<?xml version="1.0" encoding="UTF-8"?><svg id="Layer_2" xmlns="http://www.w3.org/2000/svg" xmlns:xlink="http://www.w3.org/1999/xlink" viewBox="0 0 30.69 30.64"><defs><style>.cls-1{fill:url(#linear-gradient);}.cls-2{fill:url(#linear-gradient-3);}.cls-3{fill:url(#linear-gradient-4);}.cls-4{fill:url(#linear-gradient-2);}.cls-5{fill:url(#linear-gradient-6);}.cls-6{fill:url(#linear-gradient-7);}.cls-7{fill:url(#linear-gradient-5);}</style><linearGradient id="linear-gradient" x1="8.17" y1="22.47" x2="25.76" y2="4.87" gradientTransform="matrix(1, 0, 0, 1, 0, 0)" gradientUnits="userSpaceOnUse"><stop offset="0" stop-color="#eac954"/><stop offset=".02" stop-color="#dfbd4a"/><stop offset=".06" stop-color="#c29e31"/><stop offset=".1" stop-color="#946c09"/><stop offset=".12" stop-color="#896000"/><stop offset=".19" stop-color="#9f7813"/><stop offset=".34" stop-color="#d7b544"/><stop offset=".39" stop-color="#eac954"/><stop offset=".39" stop-color="#eaca56"/><stop offset=".42" stop-color="#f2da6b"/><stop offset=".46" stop-color="#f7e67c"/><stop offset=".5" stop-color="#fcef88"/><stop offset=".57" stop-color="#fef48f"/><stop offset=".75" stop-color="#fff691"/><stop offset=".82" stop-color="#faed85"/><stop offset=".94" stop-color="#f0d666"/><stop offset="1" stop-color="#eac954"/></linearGradient><linearGradient id="linear-gradient-2" x1="8.17" y1="22.47" x2="25.76" y2="4.87" xlink:href="#linear-gradient"/><linearGradient id="linear-gradient-3" x1="9.51" y1="9.45" x2="21.65" y2="21.59" xlink:href="#linear-gradient"/><linearGradient id="linear-gradient-4" x1="9.46" y1="9.4" x2="20.89" y2="20.83" xlink:href="#linear-gradient"/><linearGradient id="linear-gradient-5" x1="8.68" y1="21.95" x2="25.01" y2="5.62" xlink:href="#linear-gradient"/><linearGradient id="linear-gradient-6" x1="2.53" y1="28.13" x2="26.75" y2="3.91" xlink:href="#linear-gradient"/><linearGradient id="linear-gradient-7" x1="7.13" y1="7.07" x2="25.16" y2="25.11" xlink:href="#linear-gradient"/></defs><g id="Layer_1-2"><g><path class="cls-1" d="M15.35,6.93c-4.61,0-8.36,3.75-8.36,8.36s3.75,8.36,8.36,8.36,8.36-3.75,8.36-8.36-3.75-8.36-8.36-8.36Zm0,15.3c-3.83,0-6.94-3.11-6.94-6.94s3.11-6.94,6.94-6.94,6.94,3.11,6.94,6.94-3.11,6.94-6.94,6.94Z"/><path class="cls-4" d="M15.35,9.28c-3.31,0-6.01,2.7-6.01,6.01s2.7,6.01,6.01,6.01,6.01-2.7,6.01-6.01-2.7-6.01-6.01-6.01Zm0,11.58c-3.07,0-5.57-2.5-5.57-5.57s2.5-5.57,5.57-5.57,5.57,2.5,5.57,5.57-2.5,5.57-5.57,5.57Z"/><path class="cls-2" d="M15.35,6.66c-4.76,0-8.62,3.87-8.62,8.62s3.87,8.62,8.62,8.62,8.62-3.87,8.62-8.62-3.87-8.62-8.62-8.62Zm0,16.91c-4.57,0-8.28-3.72-8.28-8.28S10.78,7,15.35,7s8.29,3.72,8.29,8.28-3.72,8.28-8.29,8.28Z"/><path class="cls-3" d="M15.35,12.43c-1.58,0-2.86,1.28-2.86,2.86s1.28,2.86,2.86,2.86,2.86-1.28,2.86-2.86-1.28-2.86-2.86-2.86Z"/><circle class="cls-7" cx="15.35" cy="15.29" r="2.66"/><path class="cls-5" d="M30.5,17.76c.13-.81,.2-1.65,.2-2.48v-.04h-.86c0-1.02-.11-2.02-.32-2.98l.84-.18c-.17-.81-.41-1.61-.71-2.38l-.81,.31c-.37-.94-.83-1.83-1.38-2.66l.73-.48c-.45-.69-.97-1.35-1.52-1.96l-.64,.59c-.68-.74-1.43-1.4-2.24-1.99l.51-.71c-.67-.48-1.39-.91-2.13-1.28l-.39,.78c-.89-.44-1.83-.8-2.81-1.05l.21-.83c-.8-.21-1.62-.35-2.45-.42l-.08,.86c-.43-.04-.87-.06-1.31-.06-.57,0-1.13,.04-1.69,.1l-.1-.86c-.82,.1-1.64,.26-2.44,.49l.24,.83c-.97,.28-1.9,.66-2.78,1.12l-.41-.77c-.73,.39-1.43,.84-2.09,1.34l.52,.69c-.8,.61-1.53,1.29-2.19,2.05l-.66-.57c-.54,.62-1.04,1.3-1.47,2l.74,.46c-.52,.85-.96,1.75-1.31,2.7l-.81-.29c-.28,.78-.5,1.59-.65,2.4l.85,.16c-.16,.86-.25,1.74-.25,2.64,0,.12,0,.23,0,.34l-.86,.02c.02,.83,.11,1.66,.26,2.47l.85-.16c.19,1,.47,1.96,.86,2.88l-.8,.33c.32,.76,.7,1.51,1.14,2.21l.74-.46c.53,.85,1.15,1.65,1.84,2.37l-.63,.6c.57,.6,1.2,1.15,1.86,1.65l.52-.69c.8,.6,1.66,1.12,2.57,1.55l-.37,.78c.75,.35,1.53,.65,2.33,.87l.24-.83c.95,.27,1.94,.44,2.95,.51l-.06,.86c.35,.02,.71,.04,1.06,.04,.47,0,.95-.02,1.42-.07l-.08-.86c1.01-.09,2-.29,2.94-.58l.25,.82c.79-.24,1.57-.56,2.31-.93l-.39-.78c.9-.45,1.75-.99,2.53-1.61l.54,.68c.65-.51,1.26-1.08,1.82-1.69l-.64-.58c.67-.74,1.27-1.55,1.78-2.41l.75,.44c.42-.71,.79-1.47,1.08-2.24l-.81-.31c.36-.92,.63-1.89,.79-2.89l.85,.14Zm-1.02-2.51h-.89c0-.93-.1-1.84-.29-2.73l.87-.18c.2,.94,.31,1.91,.31,2.91Zm-14.13,11.86c-6.52,0-11.83-5.31-11.83-11.83S8.82,3.46,15.35,3.46s11.83,5.31,11.83,11.83-5.31,11.83-11.83,11.83ZM28.51,10.15l-.83,.32c-.34-.86-.76-1.67-1.26-2.44l.74-.49c.53,.81,.98,1.68,1.34,2.6Zm-2.74-4.41l-.65,.6c-.62-.68-1.31-1.28-2.05-1.82l.52-.72c.79,.57,1.53,1.22,2.19,1.94Zm-4.15-3.12l-.39,.79c-.81-.4-1.67-.73-2.57-.96l.22-.86c.96,.25,1.87,.59,2.74,1.03Zm-6.27-1.47c.43,0,.86,.02,1.28,.06l-.08,.88c-.4-.04-.8-.06-1.2-.06-.52,0-1.04,.03-1.54,.09l-.1-.88c.54-.06,1.09-.1,1.65-.1Zm-3.89,.55l.24,.85c-.89,.25-1.74,.6-2.54,1.02l-.42-.78c.86-.45,1.76-.82,2.71-1.09Zm-4.64,2.32l.54,.71c-.73,.55-1.4,1.18-2,1.88l-.67-.58c.64-.74,1.36-1.41,2.13-2Zm-3.49,3.84l.75,.47c-.48,.77-.88,1.6-1.2,2.47l-.83-.3c.33-.93,.76-1.81,1.28-2.63ZM1.21,15.29c0-.88,.09-1.74,.24-2.58l.87,.16c-.15,.79-.23,1.59-.23,2.42,0,.11,0,.21,0,.32l-.89,.02c0-.11,0-.22,0-.34Zm.25,2.61l.87-.16c.17,.91,.43,1.79,.78,2.63l-.82,.34c-.37-.89-.65-1.83-.83-2.8Zm1.88,4.84l.75-.47c.49,.78,1.05,1.5,1.68,2.17l-.64,.61c-.67-.7-1.28-1.48-1.79-2.31Zm3.5,3.83l.53-.71c.73,.55,1.51,1.03,2.35,1.42l-.38,.8c-.89-.42-1.73-.93-2.5-1.51Zm4.65,2.31l.24-.85c.87,.25,1.77,.41,2.7,.47l-.06,.88c-.99-.07-1.96-.24-2.88-.5Zm5.17,.48l-.08-.88c.93-.09,1.83-.27,2.69-.53l.26,.85c-.92,.29-1.88,.48-2.87,.57Zm4.99-1.43l-.4-.79c.82-.41,1.6-.91,2.31-1.47l.55,.69c-.76,.61-1.59,1.13-2.47,1.57Zm4.14-3.13l-.66-.6c.62-.68,1.16-1.42,1.63-2.21l.76,.45c-.5,.84-1.08,1.63-1.74,2.35Zm2.74-4.41l-.83-.32c.33-.84,.57-1.73,.72-2.64l.88,.14c-.16,.98-.42,1.92-.77,2.82Z"/><path class="cls-6" d="M15.35,3.22C8.69,3.22,3.28,8.64,3.28,15.29s5.41,12.06,12.06,12.06,12.06-5.41,12.06-12.06S22,3.22,15.35,3.22Zm0,23.74c-6.44,0-11.67-5.24-11.67-11.67S8.91,3.62,15.35,3.62s11.67,5.24,11.67,11.67-5.24,11.67-11.67,11.67Z"/></g></g></svg>