<?xml version="1.0" encoding="UTF-8"?><svg id="Layer_2" xmlns="http://www.w3.org/2000/svg" xmlns:xlink="http://www.w3.org/1999/xlink" viewBox="0 0 72.29 72.35"><defs><style>.cls-1{fill:url(#linear-gradient);}.cls-2{fill:url(#linear-gradient-8);}.cls-3{fill:url(#linear-gradient-9);}.cls-4{fill:url(#linear-gradient-3);}.cls-5{fill:url(#linear-gradient-4);}.cls-6{fill:url(#linear-gradient-2);}.cls-7{fill:url(#linear-gradient-6);}.cls-8{fill:url(#linear-gradient-7);}.cls-9{fill:url(#linear-gradient-5);}.cls-10{fill:url(#linear-gradient-10);}</style><linearGradient id="linear-gradient" x1="5.6" y1="66.72" x2="66.27" y2="6.05" gradientTransform="matrix(1, 0, 0, 1, 0, 0)" gradientUnits="userSpaceOnUse"><stop offset="0" stop-color="#eac954"/><stop offset=".02" stop-color="#dfbd4a"/><stop offset=".06" stop-color="#c29e31"/><stop offset=".1" stop-color="#946c09"/><stop offset=".12" stop-color="#896000"/><stop offset=".19" stop-color="#9f7813"/><stop offset=".34" stop-color="#d7b544"/><stop offset=".39" stop-color="#eac954"/><stop offset=".39" stop-color="#eaca56"/><stop offset=".42" stop-color="#f2da6b"/><stop offset=".46" stop-color="#f7e67c"/><stop offset=".5" stop-color="#fcef88"/><stop offset=".57" stop-color="#fef48f"/><stop offset=".75" stop-color="#fff691"/><stop offset=".82" stop-color="#faed85"/><stop offset=".94" stop-color="#f0d666"/><stop offset="1" stop-color="#eac954"/></linearGradient><linearGradient id="linear-gradient-2" x1="5.81" y1="5.84" x2="64.91" y2="64.95" xlink:href="#linear-gradient"/><linearGradient id="linear-gradient-3" x1="5.6" y1="66.72" x2="66.27" y2="6.05" xlink:href="#linear-gradient"/><linearGradient id="linear-gradient-4" x1="5.6" y1="66.72" x2="66.27" y2="6.05" xlink:href="#linear-gradient"/><linearGradient id="linear-gradient-5" x1="17" y1="78.13" x2="77.67" y2="17.46" xlink:href="#linear-gradient"/><linearGradient id="linear-gradient-6" x1="20.71" y1="81.84" x2="81.38" y2="21.17" gradientTransform="translate(74.78 -25.06) rotate(65.45)" xlink:href="#linear-gradient"/><linearGradient id="linear-gradient-7" x1="6.75" y1="67.88" x2="67.42" y2="7.21" gradientTransform="translate(26.94 -29.77) rotate(40.9)" xlink:href="#linear-gradient"/><linearGradient id="linear-gradient-8" x1="-10.49" y1="50.64" x2="50.18" y2="-10.03" gradientTransform="translate(22.58 -6.96) rotate(49.1)" xlink:href="#linear-gradient"/><linearGradient id="linear-gradient-9" x1="-.04" y1="61.09" x2="60.63" y2=".42" gradientTransform="translate(20.36 -2.27) rotate(24.55)" xlink:href="#linear-gradient"/><linearGradient id="linear-gradient-10" x1="21.37" y1="21.4" x2="47.62" y2="47.65" xlink:href="#linear-gradient"/></defs><g id="Layer_1-2"><g><path class="cls-1" d="M36.14,69.72c-8.97,0-17.39-3.49-23.72-9.82-6.33-6.33-9.82-14.76-9.82-23.72S6.09,18.79,12.42,12.45C18.75,6.12,27.18,2.64,36.14,2.64s17.39,3.49,23.72,9.82c6.33,6.33,9.82,14.76,9.82,23.72s-3.49,17.39-9.82,23.72c-6.33,6.33-14.76,9.82-23.72,9.82Zm0-62.97c-16.23,0-29.43,13.2-29.43,29.43s13.2,29.43,29.43,29.43,29.43-13.2,29.43-29.43S52.37,6.75,36.14,6.75Z"/><path class="cls-6" d="M36.14,66.83c-8.19,0-15.9-3.19-21.68-8.97-5.79-5.79-8.97-13.49-8.97-21.68s3.19-15.9,8.97-21.68S27.95,5.52,36.14,5.52s15.9,3.19,21.68,8.97c5.79,5.79,8.97,13.49,8.97,21.68s-3.19,15.9-8.97,21.68c-5.79,5.79-13.49,8.97-21.68,8.97Zm0-60.09c-16.23,0-29.43,13.2-29.43,29.43s13.2,29.43,29.43,29.43,29.43-13.2,29.43-29.43S52.37,6.75,36.14,6.75Z"/><path class="cls-4" d="M36.14,72.35h-.04v-4.11h.04c1.94,0,3.88-.17,5.77-.52l.73,4.04c-2.13,.39-4.32,.58-6.5,.58Zm-9.57-1.28c-2.11-.58-4.18-1.35-6.16-2.31l1.79-3.7c1.75,.84,3.58,1.53,5.45,2.04l-1.08,3.96Zm25.24-2.27l-1.78-3.7c1.75-.84,3.43-1.85,5-2.99l2.42,3.32c-1.77,1.29-3.67,2.43-5.64,3.37Zm-39.43-5.33c-1.65-1.44-3.18-3.04-4.54-4.75l3.21-2.56c1.21,1.52,2.57,2.93,4.03,4.21l-2.7,3.1Zm52.02-4.69l-3.21-2.57c1.21-1.52,2.3-3.15,3.21-4.86l3.62,1.95c-1.04,1.93-2.25,3.77-3.62,5.48ZM2.89,50.46c-.86-2.01-1.55-4.12-2.03-6.25l4.01-.91c.43,1.89,1.03,3.76,1.8,5.54l-3.78,1.62Zm68.52-6.18l-4.01-.92c.43-1.89,.69-3.83,.78-5.77l4.11,.18c-.09,2.19-.39,4.39-.87,6.51ZM4.11,34.8l-4.11-.17c.09-2.19,.38-4.39,.87-6.51l4.01,.91c-.43,1.89-.69,3.83-.77,5.77Zm63.32-5.71c-.43-1.89-1.03-3.76-1.79-5.54l3.78-1.62c.86,2.01,1.54,4.12,2.03,6.26l-4.01,.9ZM7.86,21.04l-3.62-1.94c1.03-1.93,2.25-3.77,3.62-5.49l3.21,2.56c-1.21,1.52-2.29,3.15-3.21,4.86Zm53.39-4.81c-1.21-1.52-2.56-2.94-4.03-4.21l2.7-3.1c1.65,1.44,3.18,3.04,4.54,4.75l-3.22,2.56ZM17.23,10.27l-2.43-3.32c1.77-1.29,3.67-2.43,5.64-3.38l1.78,3.7c-1.75,.84-3.43,1.85-5,3Zm32.89-2.97c-1.75-.85-3.58-1.54-5.45-2.05l1.09-3.96c2.11,.58,4.18,1.36,6.15,2.31l-1.79,3.7Zm-19.78-2.67l-.74-4.04c2.14-.39,4.34-.59,6.54-.59h.07V4.11h-.08c-1.94,0-3.89,.18-5.8,.52Z"/><path class="cls-5" d="M36.14,44.89c-2.53,0-4.92-1.09-6.58-3-1.65-1.91-2.4-4.44-2.04-6.94,.23-1.66,.94-3.2,2.04-4.47,1.1-1.27,2.53-2.19,4.13-2.65,1.58-.46,3.32-.46,4.9,0,3.27,.95,5.69,3.75,6.17,7.12,.36,2.51-.39,5.04-2.04,6.94-1.66,1.91-4.05,3-6.58,3Zm0-14.54c-.56,0-1.11,.08-1.64,.23-1.07,.31-2.03,.93-2.77,1.78-.74,.85-1.21,1.88-1.36,2.99-.24,1.68,.26,3.38,1.37,4.65,1.11,1.28,2.72,2.01,4.41,2.01s3.3-.73,4.41-2.01c1.11-1.28,1.61-2.97,1.37-4.65-.32-2.26-1.94-4.13-4.13-4.77-.53-.16-1.09-.23-1.65-.23Z"/><rect class="cls-9" x="34.91" y="50.3" width="2.47" height="17.36"/><rect class="cls-7" x="55.66" y="36.98" width="2.47" height="17.36" transform="translate(-8.27 78.43) rotate(-65.45)"/><rect class="cls-8" x="44.71" y="20.01" width="17.36" height="2.47" transform="translate(-.88 40.14) rotate(-40.9)"/><rect class="cls-2" x="17.67" y="12.57" width="2.47" height="17.36" transform="translate(-9.53 21.62) rotate(-49.1)"/><rect class="cls-3" x="6.72" y="44.42" width="17.36" height="2.47" transform="translate(-17.58 10.53) rotate(-24.55)"/><path class="cls-10" d="M36.14,52.36c-4.69,0-9.15-2.03-12.23-5.58-3.07-3.54-4.46-8.24-3.79-12.9,.44-3.08,1.75-5.95,3.79-8.3,2.04-2.36,4.7-4.06,7.68-4.93,2.94-.86,6.18-.86,9.12,0,6.07,1.77,10.57,6.97,11.46,13.23,.66,4.66-.72,9.36-3.79,12.9-3.08,3.54-7.53,5.58-12.23,5.58Zm0-28.25c-1.15,0-2.3,.16-3.4,.48-2.22,.65-4.2,1.92-5.73,3.68-1.52,1.76-2.5,3.89-2.82,6.19-.49,3.48,.54,6.99,2.83,9.63,2.3,2.65,5.62,4.16,9.12,4.16s6.83-1.52,9.12-4.16c2.29-2.64,3.32-6.15,2.83-9.63-.66-4.67-4.02-8.54-8.55-9.87-1.1-.32-2.25-.48-3.41-.48Z"/></g></g></svg>