<svg height="512pt" viewBox="0 1 512 511" width="512pt" xmlns="http://www.w3.org/2000/svg"><path d="m502.730469 265.769531c0 136.265625-110.464844 246.730469-246.730469 246.730469s-246.730469-110.464844-246.730469-246.730469 110.464844-246.730469 246.730469-246.730469 246.730469 110.464844 246.730469 246.730469zm0 0" fill="#85d0f9"/><path d="m434.996094 218.570312v11.800782c0 9.027344 7.320312 16.34375 16.347656 16.34375s16.347656-7.316406 16.347656-16.34375v-21.433594zm0 0" fill="#dfdee4"/><path d="m451.34375 230.371094v-16.617188l-16.347656 4.816406v11.800782c0 12.683594 13.761718 20.371094 24.519531 14.140625-4.878906-2.828125-8.171875-8.09375-8.171875-14.140625zm0 0" fill="#d1d0d6"/><path d="m482.320312 165.375h-98.933593v9.230469c0 6.144531-3.035157 10.105469-7.15625 13.71875v49.390625l106.089843-31.261719zm0 0" fill="#dfdee4"/><path d="m411.417969 216.730469v-40.703125c0-4.519532 2.453125-8.480469 6.085937-10.652344h-34.117187v9.230469c0 6.144531-3.035157 10.105469-7.15625 13.71875v49.390625l39.472656-11.632813c-2.617187-2.28125-4.285156-5.625-4.285156-9.351562zm0 0" fill="#d1d0d6"/><path d="m461.238281 212.652344v-48.347656c0-5.464844-4.429687-9.894532-9.894531-9.894532-5.460938 0-9.890625 4.433594-9.890625 9.894532v54.175781zm0 0" fill="#d1d0d6"/><path d="m502.105469 219.929688c-5.460938 0-9.890625-4.429688-9.890625-9.894532v-24.808594c0-5.460937 4.429687-9.890624 9.890625-9.890624 5.464843 0 9.894531 4.429687 9.894531 9.890624v24.808594c0 5.460938-4.429688 9.894532-9.894531 9.894532zm0 0" fill="#ef4e57"/><path d="m503.820312 165.375h-22.820312v41.46875l22.648438-6.675781c4.953124-1.457031 8.351562-6.003907 8.351562-11.164063v-15.449218c0-4.519532-3.664062-8.179688-8.179688-8.179688zm0 0" fill="#f37254"/><path d="m411.96875 418.160156c-1.902344-4.335937.070312-9.394531 4.40625-11.300781l8.679688-3.808594v-22.125l-14.445313-16.046875c-3.167969-3.519531-2.882813-8.941406.636719-12.109375 3.519531-3.167969 8.941406-2.882812 12.113281.636719l16.644531 18.492188c1.417969 1.574218 2.199219 3.617187 2.199219 5.738281v31.015625c0 3.402344-2.011719 6.484375-5.128906 7.855468l-13.804688 6.058594c-4.324219 1.894532-9.386719-.050781-11.300781-4.40625zm0 0" fill="#587ecd"/><path d="m402.246094 398.332031c-4.734375 0-8.574219-3.839843-8.574219-8.574219v-23.015624c0-4.738282 3.835937-8.578126 8.574219-8.578126 4.734375 0 8.574218 3.839844 8.574218 8.578126v23.015624c0 4.734376-3.835937 8.574219-8.574218 8.574219zm0 0" fill="#5f6abb"/><path d="m419.777344 346.191406-33.71875-65.53125c-1.542969 10.90625-10.867188 19.300782-22.175782 19.300782-1.988281 0-3.90625-.285157-5.742187-.773438l32.050781 62.289062zm0 0" fill="#dfdee4"/><path d="m404.574219 354.046875-29.410157-57.152344c-.34375.144531-4.792968 3.066407-11.28125 3.066407-1.988281 0-3.90625-.285157-5.742187-.773438l32.050781 62.289062zm0 0" fill="#d1d0d6"/><path d="m419.46875 345.59375-29.585938 15.285156 2.925782 5.683594c1.554687 3.023438 5.265625 4.210938 8.28125 2.652344l18.65625-9.636719c3.019531-1.558594 4.203125-5.277344 2.648437-8.300781zm0 0" fill="#48a4ef"/><path d="m407.035156 358.835938-2.769531-5.386719-14.382813 7.429687 2.925782 5.683594c1.554687 3.019531 5.261718 4.210938 8.28125 2.652344l13.378906-6.910156c-2.910156.65625-6-.691407-7.433594-3.46875zm0 0" fill="#587ecd"/><path d="m364.941406 259.9375c4.234375 0 8.175782 1.21875 11.535156 3.289062.683594-1.707031 1.070313-3.566406 1.070313-5.511718v-72.027344c-6.761719 5.925781-15.5625 9.382812-24.921875 9.382812h-21.417969v62.644532c0 7.839844 6.121094 14.304687 13.820313 14.890625 3.519531-7.476563 11.101562-12.667969 19.914062-12.667969zm0 0" fill="#587ecd"/><path d="m355.539062 257.714844v-62.765625c-.964843.074219-1.933593.121093-2.914062.121093h-21.417969v62.644532c0 7.839844 6.121094 14.304687 13.820313 14.890625 2.265625-4.8125 6.21875-8.664063 11.09375-10.808594-.375-1.300781-.582032-2.667969-.582032-4.082031zm0 0" fill="#5f6abb"/><path d="m384 268.304688c-6.078125-10.53125-19.546875-14.140626-30.078125-8.058594-10.53125 6.082031-14.140625 19.546875-8.058594 30.082031 6.078125 10.53125 19.546875 14.140625 30.078125 8.058594s14.140625-19.550781 8.058594-30.082031zm0 0" fill="#d1d0d6"/><path d="m364.941406 257.304688c-3.742187-.003907-7.535156.9375-11.011718 2.945312-10.53125 6.082031-14.140626 19.550781-8.058594 30.082031 6.082031 10.53125 19.550781 14.140625 30.082031 8.058594 3.476563-2.003906 6.191406-4.816406 8.058594-8.0625-16.957031-.015625-27.527344-18.339844-19.070313-33.023437zm0 0" fill="#b5b2be"/><path d="m376.144531 151.367188h-29.988281c-8.222656 0-14.949219 6.730468-14.949219 14.949218v31.394532h21.417969c13.988281 0 32.082031-9.613282 32.082031-23.105469v-14.671875c-.003906-4.730469-3.835937-8.566406-8.5625-8.566406zm0 0" fill="#5f6abb"/><path d="m355.582031 166.316406c0-8.21875 6.726563-14.949218 14.949219-14.949218h-24.375c-8.222656 0-14.949219 6.730468-14.949219 14.949218v31.394532h21.417969c.992188 0 1.980469-.054688 2.957031-.132813zm0 0" fill="#6757aa"/><path d="m77.003906 218.570312v11.800782c0 9.027344-7.320312 16.34375-16.347656 16.34375s-16.347656-7.316406-16.347656-16.34375v-21.433594zm0 0" fill="#dfdee4"/><path d="m60.65625 230.371094v-16.617188l-16.347656-4.816406v21.433594c0 9.027344 7.320312 16.34375 16.347656 16.34375 2.980469 0 5.765625-.808594 8.171875-2.203125-4.882813-2.828125-8.171875-8.09375-8.171875-14.140625zm0 0" fill="#d1d0d6"/><path d="m29.679688 165.375h98.933593v9.230469c0 6.144531 3.035157 10.105469 7.15625 13.71875v49.390625l-106.089843-31.261719zm0 0" fill="#dfdee4"/><path d="m98.917969 220.132812v-43.761718c0-4.796875 2.785156-8.96875 6.816406-10.996094h-76.054687v41.078125l71.800781 21.15625c-1.597657-2.078125-2.5625-4.667969-2.5625-7.476563zm0 0" fill="#d1d0d6"/><path d="m50.761719 212.652344v-48.347656c0-5.464844 4.429687-9.894532 9.894531-9.894532 5.460938 0 9.890625 4.433594 9.890625 9.894532v54.175781zm0 0" fill="#b5b2be"/><path d="m9.894531 219.929688c5.460938 0 9.890625-4.429688 9.890625-9.894532v-24.808594c0-5.460937-4.429687-9.890624-9.890625-9.890624-5.464843 0-9.894531 4.425781-9.894531 9.890624v24.808594c0 5.460938 4.429688 9.894532 9.894531 9.894532zm0 0" fill="#ef4e57"/><path d="m8.179688 165.375h22.820312v41.46875l-22.648438-6.675781c-4.953124-1.457031-8.351562-6.003907-8.351562-11.164063v-15.449218c0-4.519532 3.664062-8.179688 8.179688-8.179688zm0 0" fill="#f37254"/><path d="m100.03125 418.160156c1.902344-4.335937-.070312-9.394531-4.40625-11.300781l-8.679688-3.808594v-22.125l14.445313-16.046875c3.167969-3.519531 2.882813-8.941406-.636719-12.109375-3.523437-3.167969-8.945312-2.882812-12.113281.636719l-16.644531 18.492188c-1.417969 1.574218-2.199219 3.617187-2.199219 5.738281v31.015625c0 3.402344 2.011719 6.484375 5.128906 7.855468l13.804688 6.058594c4.324219 1.894532 9.386719-.050781 11.300781-4.40625zm0 0" fill="#587ecd"/><path d="m109.753906 398.332031c4.734375 0 8.574219-3.839843 8.574219-8.574219v-23.015624c0-4.738282-3.835937-8.578126-8.574219-8.578126-4.734375 0-8.574218 3.839844-8.574218 8.578126v23.015624c0 4.734376 3.839843 8.574219 8.574218 8.574219zm0 0" fill="#5f6abb"/><path d="m121.871094 361.355469 31.988281-62.167969c-13.324219 3.539062-26.082031-5.542969-27.917969-18.527344l-33.65625 65.410156zm0 0" fill="#dfdee4"/><path d="m107.132812 353.742188 29.355469-57.046876c-5.523437-3.375-9.585937-9.214843-10.546875-16.035156l-33.65625 65.410156zm0 0" fill="#d1d0d6"/><path d="m92.53125 345.59375 29.585938 15.285156-2.925782 5.683594c-1.554687 3.023438-5.265625 4.210938-8.28125 2.652344l-18.65625-9.636719c-3.019531-1.558594-4.203125-5.277344-2.648437-8.300781zm0 0" fill="#48a4ef"/><path d="m107.378906 353.265625-14.847656-7.671875-2.925781 5.683594c-1.546875 3.003906-.375 6.738281 2.648437 8.296875l12.214844 6.3125c-1.207031-1.804688-1.425781-4.195313-.363281-6.261719zm0 0" fill="#587ecd"/><path d="m147.058594 259.9375c-4.234375 0-8.175782 1.21875-11.535156 3.289062-.683594-1.707031-1.070313-3.566406-1.070313-5.511718v-72.027344c6.761719 5.925781 15.5625 9.382812 24.921875 9.382812h21.417969v62.644532c0 7.839844-6.121094 14.304687-13.820313 14.890625-3.519531-7.476563-11.101562-12.667969-19.914062-12.667969zm0 0" fill="#587ecd"/><path d="m156.738281 256.714844v-61.746094c-8.367187-.582031-16.160156-3.917969-22.285156-9.28125v72.027344c0 1.945312.386719 3.804687 1.070313 5.511718 3.359374-2.070312 7.300781-3.289062 11.535156-3.289062 4.042968 0 7.820312 1.101562 11.070312 3.007812-.882812-1.902343-1.390625-4.007812-1.390625-6.230468zm0 0" fill="#5f6abb"/><path d="m135.855469 151.367188h29.988281c8.222656 0 14.949219 6.730468 14.949219 14.949218v31.394532h-21.417969c-13.988281 0-32.082031-9.613282-32.082031-23.105469v-14.671875c.003906-4.730469 3.835937-8.566406 8.5625-8.566406zm0 0" fill="#5f6abb"/><path d="m154.042969 183.605469v-23.671875c0-4.730469 3.835937-8.566406 8.5625-8.566406h-26.746094c-4.730469 0-8.5625 3.835937-8.5625 8.566406v14.671875c0 13.527343 18.140625 23.105469 32.078125 23.105469h2.28125c-4.582031-3.894532-7.613281-7.914063-7.613281-14.105469zm0 0" fill="#6757aa"/><path d="m293.003906 137.039062h-74.632812c-8.410156 0-15.230469 7.183594-15.230469 16.046876h105.09375c0-8.863282-6.820313-16.046876-15.230469-16.046876zm0 0" fill="#5f6abb"/><path d="m284.070312 386.476562v124.425782c12.183594-1.382813 24.09375-3.644532 35.671876-6.734375v-125.585938c-6.976563 13.113281-23.90625 16.78125-35.671876 7.894531zm0 0" fill="#d1d0d6"/><path d="m191.367188 378.582031v125.347657c11.574218 3.132812 23.488281 5.445312 35.671874 6.871093v-124.324219c-11.769531 8.890626-28.699218 5.210938-35.671874-7.894531zm0 0" fill="#d1d0d6"/><path d="m191.367188 376.992188v49.476562h35.671874v-41.320312c-11.765624 9.1875-28.695312 5.386718-35.671874-8.15625zm0 0" fill="#eceeed"/><path d="m284.070312 385.148438v41.320312h35.671876v-49.476562c-6.984376 13.566406-23.921876 17.328124-35.671876 8.15625zm0 0" fill="#eceeed"/><path d="m307.484375 258.496094h-28.9375c-2.542969 0-4.984375-1.035156-6.785156-2.871094l-11.039063-11.28125c-2.742187-2.800781-7.1875-2.800781-9.925781 0l-10.964844 11.203125c-1.847656 1.886719-4.355469 2.949219-6.96875 2.949219h-28.828125c-6.464844 0-12.316406-2.613282-16.648437-6.839844.03125.03125.058593.066406.089843.097656 9.210938 8.867188 14.886719 20.882813 14.886719 33.808594v25.230469c0 15.371093 12.199219 27.832031 27.246094 27.832031h52.992187c14.664063 0 26.550782-12.144531 26.550782-27.125v-25.9375c0-12.925781 5.679687-24.941406 14.886718-33.808594.035157-.03125.0625-.070312.09375-.101562-4.328124 4.230468-10.183593 6.84375-16.648437 6.84375zm0 0" fill="#5f6abb"/><path d="m238.972656 310.792969v-25.230469c0-9.890625-3.335937-19.246094-9.023437-27.066406h-25.914063c-6.460937 0-12.316406-2.613282-16.648437-6.839844.03125.03125.058593.066406.09375.097656 9.207031 8.867188 14.886719 20.882813 14.886719 33.808594v25.230469c0 15.371093 12.195312 27.832031 27.242187 27.832031h36.601563c-15.042969 0-27.238282-12.460938-27.238282-27.832031zm0 0" fill="#6757aa"/><path d="m278.546875 258.496094c-2.542969 0-4.984375-1.035156-6.78125-2.871094l-11.042969-11.28125c-2.742187-2.800781-7.1875-2.800781-9.925781 0l-10.964844 11.203125c-1.847656 1.886719-4.355469 2.949219-6.96875 2.949219h-1.875v30.023437c0 13.976563 11.089844 25.308594 24.769531 25.308594 13.683594 0 24.773438-11.332031 24.773438-25.308594v-30.023437zm0 0" fill="#587ecd"/><path d="m255.554688 310.113281v-43.332031c0-6.601562 5.398437-12 12-12h3.382812l-10.214844-10.4375c-2.742187-2.800781-7.1875-2.800781-9.925781 0l-10.960937 11.203125c-1.851563 1.886719-4.359376 2.949219-6.972657 2.949219h-1.875v30.023437c0 13.976563 11.089844 25.308594 24.773438 25.308594.128906 0 .257812-.007813.390625-.011719-.382813-1.167968-.597656-2.410156-.597656-3.703125zm0 0" fill="#5f6abb"/><path d="m322.589844 151.367188h-69.46875v93.4375c2.535156-1.027344 5.546875-.515626 7.601562 1.542968l11.039063 11.039063c1.800781 1.796875 4.242187 2.808593 6.785156 2.808593h28.9375c13.324219 0 24.125-10.800781 24.125-24.125v-75.683593c0-4.980469-4.039063-9.019531-9.019531-9.019531zm0 0" fill="#dfdee4"/><path d="m279.878906 236.070312v-75.683593c0-4.980469 4.035156-9.019531 9.019532-9.019531h-35.777344v93.4375c2.535156-1.027344 5.546875-.515626 7.601562 1.542968l11.039063 11.039063c1.800781 1.796875 4.242187 2.808593 6.785156 2.808593h25.457031c-13.324218 0-24.125-10.800781-24.125-24.125zm0 0" fill="#d1d0d6"/><path d="m331.609375 214.578125v-19.789063l-41.785156-.21875c-.019531 0-.035157 0-.054688 0-5.4375 0-9.863281 4.394532-9.890625 9.839844-.027344 5.464844 4.378906 9.917969 9.839844 9.945313l41.839844.222656zm0 0" fill="#f37254"/><path d="m255.761719 151.367188h-66.644531c-5.085938 0-9.207032 4.121093-9.207032 9.207031v75.496093c0 13.324219 10.800782 24.125 24.125 24.125h28.828125c2.613281 0 5.121094-1.039062 6.96875-2.886718l10.964844-10.964844c1.367187-1.371094 3.167969-2.054688 4.960937-2.054688v-92.921874zm0 0" fill="#584496"/><path d="m222.363281 151.367188c5.082031 0 9.203125 4.121093 9.203125 9.207031v75.496093c0 13.324219-10.800781 24.125-24.125 24.125h25.421875c2.613281 0 5.121094-1.039062 6.96875-2.886718l10.964844-10.964844c1.367187-1.371094 3.164063-2.054688 4.960937-2.054688v-92.921874zm0 0" fill="#6757aa"/><path d="m319.761719 376.992188c0 12.164062-9.859375 22.023437-22.023438 22.023437-12.160156 0-22.019531-9.859375-22.019531-22.023437 0-12.160157 9.859375-22.019532 22.019531-22.019532 12.164063 0 22.023438 9.859375 22.023438 22.019532zm0 0" fill="#5f6abb"/><path d="m235.390625 376.992188c0 12.164062-9.859375 22.023437-22.019531 22.023437-12.164063 0-22.023438-9.859375-22.023438-22.023437 0-12.160157 9.859375-22.019532 22.023438-22.019532 12.160156 0 22.019531 9.859375 22.019531 22.019532zm0 0" fill="#5f6abb"/><path d="m302.703125 338.625h-94.296875c-3.335938 0-6.039062 2.703125-6.039062 6.039062v13.273438l28.589843 32.265625h49.195313l28.59375-32.265625v-13.273438c-.003906-3.335937-2.707032-6.039062-6.042969-6.039062zm0 0" fill="#6757aa"/><path d="m250.175781 353.128906c0-8.011718 6.496094-14.503906 14.503907-14.503906h-56.273438c-3.335938 0-6.039062 2.703125-6.039062 6.039062v13.273438l28.589843 32.269531h19.21875zm0 0" fill="#584496"/><path d="m191.007812 68.46875v26.402344c0 6.539062 5.300782 11.839844 11.839844 11.839844h15.195313v-50.078126h-15.195313c-6.539062 0-11.839844 5.300782-11.839844 11.835938zm0 0" fill="#5f6abb"/><path d="m320.515625 68.46875v26.402344c0 6.539062-5.300781 11.839844-11.839844 11.839844h-15.199219v-50.078126h15.199219c6.539063 0 11.839844 5.300782 11.839844 11.835938zm0 0" fill="#5f6abb"/><g fill="#6757aa"><path d="m191.007812 72.226562v22.644532c0 6.539062 5.300782 11.839844 11.839844 11.839844h15.195313v-22.644532h-15.195313c-6.539062 0-11.839844-5.300781-11.839844-11.839844zm0 0"/><path d="m308.675781 84.066406h-15.199219v22.644532h15.199219c6.539063 0 11.839844-5.300782 11.839844-11.839844v-22.644532c0 6.539063-5.300781 11.839844-11.839844 11.839844zm0 0"/><path d="m255.761719 116.386719 51.234375-13.796875v-56.617188c0-2.839844-1.339844-5.519531-3.609375-7.226562l-13.28125-9.972656c-8.691407 8.984374-20.859375 14.582031-34.34375 14.582031-13.515625 0-25.707031-5.625-34.402344-14.644531l-13.070313 9.898437c-2.371093 1.792969-3.761718 4.59375-3.761718 7.566406v56.414063zm0 0"/></g><path d="m255.761719 116.386719v-73.035157c-13.515625 0-25.707031-5.621093-34.402344-14.640624l-13.070313 9.898437c-2.371093 1.792969-3.761718 4.59375-3.761718 7.566406v56.414063zm0 0" fill="#584496"/><path d="m255.761719 45.992188c14.25 0 27.035156-6.242188 35.789062-16.132813l-9.328125-7.007813c-15.789062-11.855468-37.523437-11.8125-53.265625.109376l-9.035156 6.839843c8.757813 9.921875 21.5625 16.191407 35.839844 16.191407zm0 0" fill="#dfdee4"/><path d="m277.472656 19.742188c-15.199218-8.625-34.300781-7.546876-48.515625 3.214843l-9.035156 6.84375c8.757813 9.925781 21.5625 16.191407 35.839844 16.191407 7.632812 0 14.839843-1.804688 21.238281-4.992188-5.410156-5.976562-5.292969-15.375.472656-21.257812zm0 0" fill="#d1d0d6"/><path d="m255.761719 56.265625c-5.464844 0-9.894531-4.429687-9.894531-9.894531v-35.976563c0-5.464843 4.429687-9.894531 9.894531-9.894531 5.464843 0 9.890625 4.429688 9.890625 9.894531v35.976563c0 5.464844-4.425782 9.894531-9.890625 9.894531zm0 0" fill="#b5b2be"/><path d="m255.761719 37.191406c-5.464844 0-9.894531-4.429687-9.894531-9.894531v19.074219c0 5.464844 4.429687 9.894531 9.894531 9.894531 5.464843 0 9.890625-4.429687 9.890625-9.894531v-19.074219c0 5.464844-4.425782 9.894531-9.890625 9.894531zm0 0" fill="#d1d0d6"/><path d="m255.761719 115.785156 26.953125-4.621094-20.648438-15.503906c-3.855468-2.898437-9.167968-2.886718-13.011718.027344l-20.390626 15.4375zm0 0" fill="#dfdee4"/><path d="m255.761719 115.535156v-11.507812c0-3.910156 2.414062-7.28125 5.828125-8.699219-3.808594-2.554687-8.84375-2.4375-12.535156.355469l-20.390626 15.441406 27.097657 4.660156.011719-.003906c-.003907-.082031-.011719-.164062-.011719-.246094zm0 0" fill="#d1d0d6"/><path d="m204.527344 100.667969v15.542969c0 4.714843 2.511718 9.070312 6.597656 11.429687l38.039062 21.960937c2.039063 1.179688 4.320313 1.765626 6.597657 1.765626v-36.902344zm0 0" fill="#b5b2be"/><path d="m306.996094 100.667969v15.542969c0 4.714843-2.515625 9.070312-6.597656 11.429687l-38.039063 21.960937c-2.042969 1.179688-4.320313 1.765626-6.597656 1.765626v-36.902344zm0 0" fill="#dfdee4"/><path d="m255.761719 88.898438c-11.875 0-22.949219-2.253907-31.1875-6.347657-4.894531-2.433593-6.886719-8.371093-4.457031-13.261719 2.433593-4.894531 8.371093-6.886718 13.261718-4.457031 5.394532 2.679688 13.761719 4.28125 22.382813 4.28125 8.621093 0 16.988281-1.601562 22.382812-4.28125 4.890625-2.429687 10.832031-.4375 13.261719 4.457031 2.433594 4.890626.4375 10.828126-4.457031 13.261719-8.238281 4.09375-19.3125 6.347657-31.1875 6.347657zm0 0" fill="#85d0f9"/><path d="m257.007812 72.6875c.714844-1.441406 1.679688-2.675781 2.800782-3.695312-1.335938.078124-2.6875.121093-4.046875.121093-8.621094 0-16.988281-1.601562-22.382813-4.28125-4.890625-2.429687-10.828125-.4375-13.261718 4.457031-2.429688 4.890626-.4375 10.828126 4.457031 13.261719 8.234375 4.09375 19.3125 6.347657 31.1875 6.347657 1.855469 0 3.691406-.058594 5.5-.167969-5.171875-3.46875-7.101563-10.316407-4.253907-16.042969zm0 0" fill="#48a4ef"/><path d="m301.90625 475.519531c-8.582031 0-15.773438-5.871093-17.835938-13.808593v49.1875c12.183594-1.378907 24.09375-3.640626 35.671876-6.730469v-42.457031c-2.058594 7.9375-9.25 13.808593-17.835938 13.808593zm0 0" fill="#b5b2be"/><path d="m209.203125 475.519531c-8.585937 0-15.777344-5.871093-17.835937-13.808593v42.21875c11.574218 3.132812 23.488281 5.445312 35.671874 6.871093v-49.089843c-2.058593 7.9375-9.253906 13.808593-17.835937 13.808593zm0 0" fill="#b5b2be"/><path d="m166.125 268.304688c-6.082031-10.53125-19.546875-14.140626-30.082031-8.058594-10.53125 6.078125-14.140625 19.546875-8.058594 30.078125 6.082031 10.535156 19.550781 14.140625 30.082031 8.0625 10.53125-6.082031 14.140625-19.550781 8.058594-30.082031zm0 0" fill="#d1d0d6"/><path d="m147.058594 257.304688c-3.742188-.003907-7.535156.9375-11.011719 2.945312-10.53125 6.082031-14.140625 19.550781-8.058594 30.082031s19.546875 14.140625 30.082031 8.058594c3.476563-2.003906 6.191407-4.816406 8.058594-8.0625-16.953125-.015625-27.527344-18.339844-19.070312-33.023437zm0 0" fill="#b5b2be"/><path d="m273.617188 121.328125c0-5.460937 2.078124-10.265625 5.230468-13.078125l-23.085937 6.21875v36.902344c2.277343 0 4.554687-.589844 6.597656-1.769532l21.886719-12.636718c-5.960938-.734375-10.628906-7.449219-10.628906-15.636719zm0 0" fill="#d1d0d6"/></svg>