<svg height="512pt" viewBox="-21 0 512 512" width="512pt" xmlns="http://www.w3.org/2000/svg"><path d="m466.246094 278.875c0 128.75-104.371094 233.125-233.121094 233.125s-233.125-104.375-233.125-233.125 104.375-233.121094 233.125-233.121094 233.121094 104.371094 233.121094 233.121094zm0 0" fill="#584496"/><path d="m340.921875 451.632812v-14.550781c-16.628906 4.210938-33.902344 7.425781-51.691406 9.546875v34.398438c0 2.832031 1.039062 5.5625 2.917969 7.683594 2.554687 2.878906 6.625 7.367187 11.488281 12.421874 21.128906-6.699218 40.953125-16.324218 59-28.402343-4.136719-2.027344-8.121094-3.871094-11.523438-5.394531-6.191406-2.773438-10.191406-8.914063-10.191406-15.703126zm0 0" fill="#f2ba88"/><path d="m343.363281 460.441406c-1.558593-2.613281-2.441406-5.636718-2.441406-8.808594v-14.550781c-16.628906 4.210938-33.902344 7.421875-51.691406 9.546875v34.398438c0 2.832031 1.039062 5.5625 2.917969 7.683594.871093.976562 1.925781 2.152343 3.117187 3.464843 1.613281-23.777343 25.5-39.621093 48.097656-31.734375zm0 0" fill="#e2a97a"/><path d="m135.890625 451.632812c0 6.789063-4 12.929688-10.195313 15.703126-2.121093.949218-10.453124 5.019531-17.425781 8.4375 19.167969 12.175781 40.230469 21.628906 62.652344 27.820312 4.824219-5.074219 11.398437-12.246094 13.738281-14.882812 1.878906-2.121094 2.917969-4.851563 2.917969-7.683594v-34.398438c-17.785156-2.121094-35.0625-5.335937-51.6875-9.546875zm0 0" fill="#f2ba88"/><path d="m133.445312 460.441406c1.5625-2.613281 2.445313-5.636718 2.445313-8.808594v-14.550781c16.625 4.210938 33.902344 7.421875 51.691406 9.546875v34.398438c0 2.832031-1.039062 5.5625-2.921875 7.683594-.867187.976562-1.925781 2.152343-3.113281 3.464843-1.613281-23.777343-25.5-39.621093-48.101563-31.734375zm0 0" fill="#e2a97a"/><path d="m280.039062 50.652344c-2.894531-.847656-4.183593-4.257813-2.589843-6.816406 8.363281-13.46875 10.820312-26.421876 5.234375-30.640626-6.449219-4.871093-21.164063 3.75-32.871094 19.25-.96875 1.28125-1.878906 2.570313-2.746094 3.859376.007813-.375.011719-.75.011719-1.132813 0-19.425781-6.546875-35.171875-14.628906-35.171875-8.078125 0-14.628907 15.746094-14.628907 35.171875 0 1.230469.027344 2.449219.078126 3.644531.175781 4.0625-2.671876 7.625-6.667969 8.371094-69.449219 12.972656-121.691407 74.734375-121.691407 147.867188v201.628906c0 16.382812 10.667969 30.847656 26.308594 35.71875 76.464844 23.824218 165.636719 24.703125 244.863282.078125 15.792968-4.910157 26.554687-19.519531 26.554687-36.058594v-202.875c.003906-67.4375-45.445313-124.769531-107.226563-142.894531zm0 0" fill="#7dcf74"/><path d="m140.15625 413.683594v-218.625c0-73.136719 39.039062-134.898438 90.933594-147.871094 2.988281-.746094 5.113281-4.308594 4.984375-8.367188-.039063-1.199218-.058594-2.414062-.058594-3.644531 0-12.019531 1.875-22.621093 4.730469-28.96875-2.355469-3.910156-5.214844-6.207031-8.296875-6.207031-8.078125 0-14.628907 15.746094-14.628907 35.171875 0 1.230469.027344 2.449219.078126 3.644531.175781 4.0625-2.671876 7.625-6.667969 8.371094-69.449219 12.972656-121.691407 74.734375-121.691407 147.867188v201.628906c0 16.382812 10.667969 30.847656 26.308594 35.71875 10.804688 3.367187 21.933594 6.285156 33.332032 8.757812-5.609376-6.921875-9.023438-16.78125-9.023438-27.476562zm0 0" fill="#6cb964"/><path d="m310.308594 147.769531c-22.929688-39.714843-73.714844-53.320312-113.425782-30.390625-39.714843 22.929688-53.324218 73.710938-30.394531 113.425782 22.929688 39.714843 73.714844 53.324218 113.429688 30.394531 39.714843-22.933594 53.320312-73.714844 30.390625-113.429688zm0 0" fill="#fff"/><path d="m214.558594 203.0625c-18.0625-31.285156-13.4375-69.429688 8.746094-95.425781-9.054688 1.671875-17.988282 4.878906-26.417969 9.746093-39.714844 22.929688-53.320313 73.714844-30.390625 113.429688 22.929687 39.714844 73.714844 53.320312 113.429687 30.390625 8.429688-4.867187 15.667969-11 21.644531-18.003906-33.601562 6.214843-68.949218-8.851563-87.011718-40.136719zm0 0" fill="#dfdee4"/><path d="m194.558594 155.289062c-28 36.050782-2.554688 89.503907 43.847656 89.503907 30.652344 0 55.5-24.847657 55.5-55.5 0-12.816407-4.355469-24.609375-11.652344-34.003907zm0 0" fill="#dfdee4"/><path d="m260.265625 240.316406c-36.578125-12.144531-59.460937-47.527344-56.582031-85.027344h-9.125c-7.296875 9.394532-11.652344 21.1875-11.652344 34.003907 0 39.910156 40.914062 66.660156 77.359375 51.023437zm0 0" fill="#b5b2be"/><path d="m252.769531 189.292969c0 7.933593-6.429687 14.363281-14.363281 14.363281s-14.363281-6.429688-14.363281-14.363281c0-7.933594 6.429687-14.363281 14.363281-14.363281s14.363281 6.429687 14.363281 14.363281zm0 0" fill="#6757aa"/><path d="m280.597656 334.054688 11.839844 23.085937c2.722656 5.3125 10.632812 4.152344 11.714844-1.71875l5.589844-30.277344c-7.480469 3.671875-17.472657 6.726563-29.144532 8.910157zm0 0" fill="#f9da9b"/><path d="m167.070312 325.144531 5.585938 30.277344c1.085938 5.871094 8.992188 7.03125 11.71875 1.71875l11.839844-23.085937c-11.671875-2.183594-21.664063-5.238282-29.144532-8.910157zm0 0" fill="#f9da9b"/><path d="m251.527344 310.257812c-3.375-2.109374-4.402344-6.558593-2.289063-9.933593l3.824219-6.113281c2.109375-3.378907 6.558594-4.40625 9.933594-2.292969 3.375 2.109375 4.402344 6.558593 2.289062 9.933593l-3.820312 6.117188c-2.117188 3.386719-6.570313 4.394531-9.9375 2.289062zm0 0" fill="#6cb964"/><path d="m215.347656 307.96875-3.824218-6.117188c-2.109376-3.375-1.082032-7.824218 2.292968-9.933593s7.824219-1.085938 9.933594 2.292969l3.824219 6.113281c2.113281 3.375 1.085937 7.824219-2.289063 9.933593-3.378906 2.109376-7.824218 1.085938-9.9375-2.289062zm0 0" fill="#6cb964"/><path d="m465.59375 324.863281c-17.632812-44.832031-82.214844-55.75-84.957031-56.195312-7.496094-1.21875-14.542969 3.878906-15.769531 11.371093-1.222657 7.492188 3.863281 14.5625 11.355468 15.800782 14.40625 2.378906 53.949219 14.050781 63.773438 39.15625 2.960937 7.5625 3.195312 16.164062.738281 25.75-.722656 2.816406-3.359375 4.679687-6.265625 4.558594-9.042969-.382813-16.390625 1.929687-20.066406 3.394531-12.351563 4.929687-11.160156 22.816406 1.683594 26.105469 3.046874.78125 4.386718 4.328124 2.460937 6.820312-.078125.101562-.15625.203125-.234375.304688-4.460938 5.75-3.996094 14.109374 1.421875 18.972656 5.992187 5.371094 15.191406 4.5 20.078125-1.777344 21.453125-27.582031 38.507812-61.902344 25.78125-94.261719zm0 0" fill="#f2ba88"/><path d="m11.21875 324.863281c17.632812-44.832031 82.214844-55.75 84.957031-56.195312 7.496094-1.21875 14.542969 3.878906 15.769531 11.371093 1.222657 7.492188-3.863281 14.5625-11.355468 15.800782-14.40625 2.378906-53.949219 14.050781-63.777344 39.15625-2.960938 7.5625-3.195312 16.164062-.734375 25.75.722656 2.816406 3.359375 4.679687 6.265625 4.558594 9.042969-.382813 16.386719 1.929687 20.0625 3.394531 7.0625 2.816406 10.5 10.824219 7.683594 17.886719-1.691406 4.238281-5.257813 7.167968-9.363282 8.21875-3.046874.78125-4.386718 4.328124-2.464843 6.820312.078125.101562.15625.203125.234375.304688 7.199218 9.285156.84375 22.507812-10.621094 22.507812-4.101562 0-8.160156-1.824219-10.875-5.3125-21.34375-27.4375-38.566406-61.753906-25.78125-94.261719zm0 0" fill="#f2ba88"/><path d="m145.105469 309.136719c0-3.980469 3.230469-7.207031 7.210937-7.207031 3.980469 0 7.207032 3.226562 7.207032 7.207031 0 7.257812 27.84375 21.382812 78.882812 21.382812s78.878906-14.125 78.878906-21.382812c0-3.980469 3.230469-7.207031 7.210938-7.207031 3.980468 0 7.207031 3.226562 7.207031 7.207031 0 47.523437-186.597656 47.703125-186.597656 0zm0 0" fill="#6cb964"/><path d="m111.945312 280.039062c-1.226562-7.492187-8.273437-12.589843-15.769531-11.371093-2.171875.351562-43.265625 7.300781-68.964843 32.539062 12.132812-4.859375 24.253906 7.015625 19.707031 19.230469 15.78125-15.199219 42.40625-22.738281 53.671875-24.597656 7.492187-1.238282 12.578125-8.308594 11.355468-15.800782zm0 0" fill="#e2a97a"/><path d="m449.808594 301.410156c-25.683594-25.402344-66.992188-32.386718-69.171875-32.738281-7.496094-1.21875-14.546875 3.875-15.769531 11.367187-1.222657 7.492188 3.863281 14.566407 11.351562 15.800782 11.167969 1.84375 37.425781 9.277344 53.253906 24.214844-4.230468-12.410157 8.355469-23.941407 20.335938-18.644532zm0 0" fill="#e2a97a"/><path d="m313.929688 146.480469c-34.691407-56.085938-116.269532-56.230469-151.046876 0-2.773437 4.484375.476563 10.277343 5.75 10.277343h139.546876c5.269531 0 8.523437-5.792968 5.75-10.277343zm0 0" fill="#6cb964"/><path d="m233.636719 104.476562c-29.921875 1.585938-55.898438 17.988282-70.753907 42.003907-2.773437 4.484375.476563 10.277343 5.75 10.277343h74.726563c-20.285156-9.53125-25.207031-36.128906-9.722656-52.28125zm0 0" fill="#5ba852"/><path d="m282.683594 13.195312c-6.449219-4.871093-21.164063 3.75-32.871094 19.25-.96875 1.28125-1.878906 2.570313-2.746094 3.859376 0 3.464843 4.140625 5.269531 6.664063 2.894531 7.441406-7 19.972656-16.503907 31.632812-14.609375.835938-5.226563.03125-9.347656-2.679687-11.394532zm0 0" fill="#6cb964"/></svg>