<svg height="512pt" viewBox="-9 0 511 512" width="512pt" xmlns="http://www.w3.org/2000/svg"><path d="m492.847656 265.824219c0 135.960937-110.214844 246.175781-246.171875 246.175781-135.960937 0-246.175781-110.214844-246.175781-246.175781 0-135.957031 110.214844-246.171875 246.175781-246.171875 135.957031 0 246.171875 110.214844 246.171875 246.171875zm0 0" fill="#584496"/><path d="m17.742188 356.503906c36.109374 91.082032 124.996093 155.496094 228.933593 155.496094 103.933594 0 192.820313-64.414062 228.929688-155.496094zm0 0" fill="#f79552"/><path d="m253.859375 356.503906h-236.117187c36.109374 91.082032 124.996093 155.496094 228.933593 155.496094 2.332031 0 4.652344-.042969 6.972657-.109375-57.421876-32.203125-56.164063-123.046875.210937-155.386719zm0 0" fill="#f37254"/><path d="m105.675781 380.800781 20.234375 28.578125h241.523438l21.734375-28.578125zm0 0" fill="#5f6abb"/><path d="m105.675781 380.800781 20.234375 28.578125h57.597656l-15.808593-28.578125zm0 0" fill="#584496"/><path d="m420.0625 269.304688c-20.25 0-328.496094 0-346.777344 0l-40.484375 61.59375h427.746094zm0 0" fill="#5f6abb"/><path d="m420.0625 269.304688c-6.660156 0-48.925781 0-100.84375 0l17.171875 61.59375h124.160156zm0 0" fill="#48a4ef"/><path d="m320.21875 269.304688c-17.863281 0-129.160156 0-147.089844 0l-17.171875 61.59375h181.429688zm0 0" fill="#587ecd"/><path d="m32.800781 330.898438 22.796875 43.640624c2.429688 4.652344 7.242188 7.566407 12.488282 7.566407h357.175781c5.246093 0 10.058593-2.914063 12.488281-7.566407l22.800781-43.640624c-12.066406 0-415.6875 0-427.75 0zm0 0" fill="#587ecd"/><path d="m175.683594 374.539062-19.738282-43.640624c-44.1875 0-78.410156 0-123.144531 0l22.796875 43.640624c2.429688 4.652344 7.242188 7.566407 12.488282 7.566407h118.410156c-4.542969 0-8.710938-2.914063-10.8125-7.566407zm0 0" fill="#5f6abb"/><path d="m76.730469 356.117188c-6.847657-3.613282-15.316407-1.550782-19.734375 4.808593l-21.671875 31.171875c5.699219 9.519532 12.023437 18.617188 18.917969 27.246094l27.957031-41.421875c5.027343-7.449219 2.480469-17.613281-5.46875-21.804687zm0 0" fill="#eceeed"/><path d="m66.160156 374.390625c4.210938-6.054687 11.136719-9.203125 18.097656-8.835937-1.046874-3.894532-3.636718-7.382813-7.527343-9.4375-6.847657-3.613282-15.316407-1.550782-19.734375 4.808593l-21.671875 31.171875c2.820312 4.710938 5.796875 9.320313 8.917969 13.824219zm0 0" fill="#d1d0d6"/><path d="m436.351562 360.925781c-4.417968-6.359375-12.886718-8.421875-19.734374-4.808593-7.949219 4.191406-10.5 14.355468-5.46875 21.804687l27.957031 41.421875c6.894531-8.628906 13.21875-17.726562 18.917969-27.246094zm0 0" fill="#eceeed"/><path d="m449.824219 404.867188-25.019531-35.992188c-3.238282-4.652344-8.214844-7.441406-13.5-8.054688-3.449219 4.941407-3.785157 11.722657-.15625 17.101563l27.960937 41.421875c3.742187-4.6875 7.3125-9.519531 10.714844-14.476562zm0 0" fill="#d1d0d6"/><path d="m309.234375 377.921875c-5.027344-7.449219-2.480469-17.613281 5.46875-21.804687 6.847656-3.613282 15.316406-1.550782 19.734375 4.808593l29.984375 43.125c8.621094 12.40625 7.84375 29.054688-1.894531 40.601563l-30.601563 36.28125c-1.257812 1.488281-3.664062.242187-3.167969-1.644532l11.394532-43.363281c1.464844-5.578125.457031-11.519531-2.769532-16.296875zm0 0" fill="#eceeed"/><path d="m320.4375 365.675781c-2.402344-3.457031-6-5.628906-9.878906-6.324219-4.515625 4.988282-5.332032 12.636719-1.328125 18.570313l28.152343 41.707031c3.226563 4.78125 4.234376 10.71875 2.769532 16.296875l-11.394532 43.363281c-.269531 1.015626.304688 1.839844 1.089844 2.15625l18.675782-32.039062c8.925781-15.152344 10.519531-28.199219 1.894531-40.601562zm0 0" fill="#d1d0d6"/><path d="m340.238281 435.507812c1.304688-5.421874.300781-11.144531-2.800781-15.792968 2.132812-11.421875 12.800781-19.859375 25.113281-18.351563l1.871094 2.6875c8.625 12.40625 7.847656 29.054688-1.894531 40.601563l-1.632813 1.933594c-8.8125.433593-16.496093-4.09375-20.65625-11.078126zm0 0" fill="#d1d0d6"/><path d="m337.4375 419.710938c3.105469 4.652343 4.117188 10.382812 2.8125 15.8125 2.480469 4.160156 6.242188 7.464843 10.746094 9.359374 12.714844-25.28125-2.214844-36.972656-3.402344-40.148437-5.203125 3.320313-8.980469 8.683594-10.15625 14.976563zm0 0" fill="#b5b2be"/><path d="m184.113281 377.921875c5.027344-7.449219 2.480469-17.613281-5.46875-21.804687-6.847656-3.613282-15.316406-1.550782-19.734375 4.808593l-29.984375 43.125c-8.625 12.40625-7.847656 29.054688 1.894531 40.601563l30.601563 36.28125c1.257813 1.488281 3.664063.242187 3.167969-1.644532l-11.398438-43.363281c-1.464844-5.578125-.453125-11.519531 2.773438-16.296875zm0 0" fill="#eceeed"/><path d="m145.320312 450.597656c-8.953124-14.183594-10.515624-28.199218-1.894531-40.605468l29.984375-43.125c2.488282-3.578126 6.257813-5.796876 10.296875-6.40625-1.296875-1.75-2.992187-3.25-5.0625-4.34375-6.847656-3.613282-15.316406-1.550782-19.734375 4.808593l-29.984375 43.125c-8.621093 12.40625-7.847656 29.054688 1.894531 40.601563l30.601563 36.28125c.789063.933594 2.03125.789062 2.722656.085937zm0 0" fill="#d1d0d6"/><path d="m153.105469 435.507812c-1.300781-5.421874-.296875-11.144531 2.804687-15.792968-2.132812-11.421875-12.800781-19.859375-25.113281-18.351563l-1.871094 2.6875c-8.625 12.40625-7.847656 29.054688 1.894531 40.601563l1.628907 1.933594c8.816406.433593 16.5-4.09375 20.65625-11.078126zm0 0" fill="#d1d0d6"/><path d="m132.453125 446.585938c3.328125.164062 6.453125-.296876 9.703125-1.628907-11.808594-24.003906 3.394531-36.71875 4.515625-39.628906-4.472656-3.160156-10.003906-4.683594-15.875-3.964844-1.277344 2.289063-12.652344 15.585938-5.59375 33.820313 1.472656 3.804687 3.855469 7.753906 7.25 11.402344zm0 0" fill="#b5b2be"/><path d="m271.039062 323.566406v-16.847656c0-13.457031-10.90625-24.367188-24.363281-24.367188-13.460937 0-24.367187 10.910157-24.367187 24.367188v16.847656zm0 0" fill="#5f6abb"/><path d="m246.675781 0c-86.421875 0-156.484375 70.058594-156.484375 156.480469v87.570312h312.964844v-87.570312c0-86.421875-70.058594-156.480469-156.480469-156.480469zm0 0" fill="#85d0f9"/><path d="m265.175781 1.09375c-6.070312-.714844-12.242187-1.09375-18.5-1.09375-86.421875 0-156.484375 70.058594-156.484375 156.480469v87.570312h37v-87.570312c0-80.160157 60.28125-146.234375 137.984375-155.386719zm0 0" fill="#48a4ef"/><path d="m90.191406 207.601562v36.449219h312.964844v-36.449219c-12.203125 0-289.742188 0-312.964844 0zm0 0" fill="#ace3fc"/><path d="m90.191406 207.601562v36.449219h37v-36.449219c-19.09375 0-32.601562 0-37 0zm0 0" fill="#85d0f9"/><path d="m326.324219 215.671875c-5.292969-9.460937-14.5625-16.03125-25.242188-17.890625l-34.496093-6.003906c-10.441407 11.917968-29.382813 11.917968-39.824219 0l-34.492188 6.003906c-10.679687 1.859375-19.953125 8.429688-25.246093 17.890625l-15.875 28.378906h191.054687zm0 0" fill="#eceeed"/><path d="m221.269531 192.730469-29.003906 5.050781c-10.675781 1.859375-19.949219 8.429688-25.242187 17.890625l-15.878907 28.378906h52.265625l8.449219-33.042969c2.125-8.3125 5.460937-14.707031 9.410156-18.277343zm0 0" fill="#dfdee4"/><path d="m260.308594 204.570312v-7.578124c-8.332032 4.953124-18.9375 4.953124-27.269532 0v7.578124c0 7.53125 6.105469 13.636719 13.636719 13.636719 7.527344 0 13.632813-6.105469 13.632813-13.636719zm0 0" fill="#6cb964"/><path d="m246.675781 204.570312v-3.863281c-4.738281 0-9.472656-1.238281-13.636719-3.714843v7.578124c0 7.53125 6.105469 13.636719 13.636719 13.636719 2.484375 0 4.808594-.675781 6.816407-1.839843-4.070313-2.359376-6.816407-6.753907-6.816407-11.796876zm0 0" fill="#5ba852"/><path d="m203.410156 244.050781v-17.691406c0-4.183594-3.394531-7.574219-7.578125-7.574219-4.183593 0-7.574219 3.390625-7.574219 7.574219v17.691406zm0 0" fill="#d1d0d6"/><path d="m305.089844 244.050781v-17.691406c0-4.183594-3.390625-7.574219-7.574219-7.574219-4.1875 0-7.578125 3.390625-7.578125 7.574219v17.691406zm0 0" fill="#d1d0d6"/><path d="m245.773438 53.679688c-32.457032.476562-58.742188 27.238281-58.671876 59.699218.027344 13.054688 4.253907 25.121094 11.402344 34.921875 8.023438 11.007813 15.546875 22.367188 22.144532 34.28125l2.695312 4.867188c10.148438 18.332031 36.511719 18.332031 46.660156 0l3.019532-5.453125c6.46875-11.683594 13.859374-22.820313 21.75-33.59375 7.214843-9.855469 11.472656-22.007813 11.472656-35.15625 0-33.203125-27.160156-60.0625-60.472656-59.566406zm0 0" fill="#7dcf74"/><path d="m240.117188 182.582031c-5.097657-11.917969-10.910157-23.277343-17.109376-34.28125-5.519531-9.804687-8.785156-21.871093-8.808593-34.921875-.050781-30.1875 17.511719-55.429687 40.136719-59.207031-2.800782-.359375-5.65625-.539063-8.5625-.496094-32.457032.480469-58.742188 27.242188-58.671876 59.703125.027344 13.050782 4.253907 25.117188 11.402344 34.921875 8.023438 11.003907 15.546875 22.363281 22.144532 34.28125l2.695312 4.867188c6.507812 11.757812 19.683594 15.960937 30.976562 12.636719-10.3125-3.925782-12.925781-15.359376-14.203124-17.503907zm0 0" fill="#6cb964"/><path d="m246.675781 179.398438c-4.820312 0-9.632812-1.125-14.023437-3.378907-3.738282-1.914062-5.210938-6.492187-3.296875-10.230469 1.914062-3.734374 6.492187-5.210937 10.230469-3.292968 4.371093 2.238281 9.804687 2.238281 14.175781 0 3.734375-1.917969 8.316406-.441406 10.230469 3.292968 1.914062 3.738282.441406 8.316407-3.296876 10.230469-4.386718 2.253907-9.207031 3.378907-14.019531 3.378907zm0 0" fill="#6cb964"/><path d="m230.558594 112.1875c-3.886719-6.726562-12.804688-8.730469-19.246094-4.003906-4.921875 3.613281-6.699219 10.339844-4.214844 15.914062 2.78125 6.25 6.410156 4.949219 10.898438 11.433594.023437.027344.042968.058594.0625.085938 2.757812 3.890624 8.203125 5.097656 12.339844 2.734374 4.621093-2.640624 6.113281-8.558593 3.378906-13.046874-2.871094-4.71875-.007813-7.550782-3.21875-13.117188zm0 0" fill="#6757aa"/><path d="m227.390625 130.953125c-.019531-.03125-.039063-.058594-.058594-.085937-4.476562-6.464844-8.125-5.203126-10.902343-11.433594-2.058594-4.617188-1.183594-10.023438 1.96875-13.792969-2.453126.136719-4.910157.949219-7.089844 2.546875-4.917969 3.609375-6.699219 10.335938-4.214844 15.914062 2.785156 6.25 6.414062 4.949219 10.902344 11.429688.019531.03125.039062.058594.0625.085938 2.757812 3.890624 8.199218 5.101562 12.339844 2.734374 1.527343-.871093 2.707031-2.109374 3.511718-3.535156-2.546875-.328125-4.960937-1.667968-6.519531-3.863281zm0 0" fill="#584496"/><path d="m420.0625 270.3125h-346.777344c-7.53125 0-13.636718-6.101562-13.636718-13.632812s6.105468-13.636719 13.636718-13.636719h346.777344c7.53125 0 13.636719 6.105469 13.636719 13.636719s-6.105469 13.632812-13.636719 13.632812zm0 0" fill="#d1d0d6"/><path d="m112.648438 256.679688c0-7.53125 6.105468-13.636719 13.636718-13.636719h-53c-7.53125 0-13.636718 6.105469-13.636718 13.636719s6.105468 13.632812 13.636718 13.632812h53c-7.53125 0-13.636718-6.101562-13.636718-13.632812zm0 0" fill="#b5b2be"/><path d="m262.789062 112.1875c3.886719-6.726562 12.804688-8.730469 19.246094-4.003906 4.921875 3.613281 6.699219 10.339844 4.21875 15.914062-2.785156 6.25-6.410156 4.949219-10.902344 11.433594-.023437.027344-.042968.058594-.0625.085938-2.757812 3.890624-8.199218 5.097656-12.339843 2.734374-4.621094-2.640624-6.109375-8.558593-3.375-13.046874 2.867187-4.71875.003906-7.550782 3.214843-13.117188zm0 0" fill="#6757aa"/><path d="m265.957031 130.953125c.019531-.03125.039063-.058594.058594-.085937 4.476563-6.464844 8.125-5.203126 10.902344-11.433594 2.058593-4.617188 1.183593-10.023438-1.96875-13.792969 2.453125.136719 4.910156.949219 7.089843 2.546875 4.921876 3.609375 6.699219 10.335938 4.214844 15.914062-2.785156 6.25-6.410156 4.949219-10.902344 11.429688-.019531.03125-.039062.058594-.0625.085938-2.757812 3.890624-8.199218 5.101562-12.339843 2.734374-1.527344-.871093-2.707031-2.109374-3.511719-3.535156 2.546875-.328125 4.960938-1.667968 6.519531-3.863281zm0 0" fill="#584496"/><path d="m364.46875 78.75c0 7.089844-5.746094 12.835938-12.835938 12.835938-7.085937 0-12.832031-5.746094-12.832031-12.835938s5.746094-12.835938 12.832031-12.835938c7.089844 0 12.835938 5.746094 12.835938 12.835938zm0 0" fill="#ace3fc"/><path d="m334.234375 89.425781c0 3.945313-3.199219 7.148438-7.148437 7.148438-3.949219 0-7.152344-3.203125-7.152344-7.148438 0-3.949219 3.203125-7.152343 7.152344-7.152343 3.949218 0 7.148437 3.203124 7.148437 7.152343zm0 0" fill="#ace3fc"/><path d="m453.546875 344.398438h-412.746094c-7.457031 0-13.5-6.042969-13.5-13.5 0-7.457032 6.042969-13.5 13.5-13.5h412.746094c7.457031 0 13.5 6.042968 13.5 13.5 0 7.457031-6.042969 13.5-13.5 13.5zm0 0" fill="#6757aa"/></svg>