<svg height="512pt" viewBox="0 0 512 512" width="512pt" xmlns="http://www.w3.org/2000/svg"><path d="m512 256c0 141.386719-114.613281 256-256 256s-256-114.613281-256-256 114.613281-256 256-256 256 114.613281 256 256zm0 0" fill="#584496"/><path d="m256.910156 266.980469c-11.707031-3.503907-24.394531 3.566406-27.554687 15.371093-1.851563 6.902344 1.316406 11.652344-4.59375 19.429688-7.878907 10.355469-20.300781 24.667969-36.378907 36.710938-17.125 12.824218-41.730468-.753907-39.089843-22.882813.453125-3.808594-1.402344 1.179687 65.253906-106.148437 2.9375-4.703126 7.109375-8.589844 12.183594-10.824219 6.257812-2.753907 11.179687-8.386719 12.691406-15.710938 2.222656-10.773437-4.074219-21.738281-14.503906-25.242187-12.136719-4.074219-25.011719 2.964844-28.273438 15.140625-1.792969 6.699219 1.007813 13.875-5.460937 24.242187l-55.214844 88.433594c-3.945312 6.320312-10.96875 3.675781-11.066406 3.679688-4.8125-1.289063-7.683594-6.21875-6.429688-11.039063l28.53125-109.875c1.703125-6.5625 5.289063-12.445313 10.148438-17.179687 11.378906-11.089844 7.511718-30.402344-7.296875-36.175782-12.433594-4.847656-25.953125 2.238282-29.308594 14.765625-3.105469 11.582031 4.9375 16.488281.589844 33.230469l-28.117188 108.269531c-1.265625 4.875-6.261719 7.785157-11.125 6.480469-4.054687-1.085938-6.832031-4.808594-6.71875-9.003906l-6.066406-83.949219c-.578125-19.3125 5.449219-27.3125 6.554687-33.605469 1.859376-10.582031-4.417968-21.132812-14.597656-24.566406-12.148437-4.097656-25.039062 2.941406-28.304687 15.128906-4.25 15.859375 9.328125 18.539063 8.9375 43.734375 4.214843 109.179688 4.53125 103.195313 3.867187 105.664063l-4.078125 15.226562c-6.105469 22.785156-13.402343 45.875-9.46875 69.136719l1.117188 6.609375c17.050781 30.089844 40.019531 56.375 67.328125 77.296875l.609375-2.285156c6.378906-23.796875 20.113281-35.699219 24.410156-41.730469 15.777344-19.074219 42.992187-33.320312 64.257813-45.992188 25.882812-15.425781 45.101562-37.085937 56.292968-51.875 3.085938-4.082031 7.375-7.003906 12.175782-8.78125 6.457031-2.390624 11.699218-7.773437 13.617187-14.933593 3.085937-11.519531-3.570313-23.351563-14.917969-26.75zm0 0" fill="#7dcf74"/><path d="m492.671875 304.125c3.933594-23.257812-3.363281-46.347656-9.472656-69.136719-4.105469-15.636719-4.332031-15.460937-4.382813-17.328125l4.171875-103.5625c-.386719-25.105468 13.175781-27.917968 8.941407-43.734375-3.269532-12.1875-16.160157-19.226562-28.308594-15.128906-10.179688 3.4375-16.457032 13.984375-14.597656 24.566406 1.113281 6.316407 7.136718 14.289063 6.554687 33.605469l-6.066406 83.949219c.113281 4.195312-2.664063 7.917969-6.71875 9.003906-4.863281 1.304687-9.859375-1.605469-11.125-6.476563l-28.113281-108.273437c-4.394532-16.921875 3.746093-21.460937.589843-33.230469-3.355469-12.527344-16.875-19.613281-29.308593-14.765625-9.332032 3.636719-15.082032 13.382813-13.734376 23.3125 1.835938 13.46875 12.328126 13.640625 16.585938 30.042969l28.53125 109.875c2.667969 10.269531-12.089844 16.019531-17.5 7.359375l-55.210938-88.433594c-6.535156-10.464843-3.636718-17.429687-5.460937-24.242187-3.265625-12.175782-16.136719-19.214844-28.273437-15.140625-18.800782 6.3125-20.246094 32.839843-1.8125 40.953125 5.074218 2.234375 9.246093 6.121094 12.183593 10.824218 68.097657 109.652344 64.792969 102.195313 65.296875 106.519532 2.503906 21.445312-21.855468 35.453125-39.136718 22.511718-16.074219-12.042968-28.5-26.355468-36.375-36.710937-2.691407-3.539063-4.175782-7.898437-3.890626-12.332031.996094-15.375-13.96875-26.746094-28.257812-22.46875-20.164062 6.035156-21.058594 34.371094-1.300781 41.683594 4.796875 1.777343 9.085937 4.699218 12.175781 8.78125 11.191406 14.789062 30.40625 36.449218 56.289062 51.871093 21.265626 12.671875 48.480469 26.917969 64.261719 45.992188 4.273438 6.007812 18.027344 17.921875 24.40625 41.734375l13.269531 51.402344c21.371094-21.335938 38.976563-46.4375 51.761719-74.210938-4.625-23.824219 1.503907-38.96875 4.027344-58.8125zm0 0" fill="#7dcf74"/><path d="m31.195312 354.304688c-1.136718 15.171874 1.429688 23.421874 1.941407 27.726562 17.050781 30.089844 40.019531 56.375 67.328125 77.296875l.609375-2.285156c6.378906-23.796875 20.113281-35.699219 24.410156-41.730469 4.199219-5.078125 9.210937-9.808594 14.703125-14.261719-42.703125 21.675781-95.132812-.484375-108.992188-46.746093zm0 0" fill="#6cb964"/><path d="m487.980469 332.09375c-19.636719 27.203125-56.476563 34.132812-84.375 17.242188 1.613281 2.347656 14.121093 14.429687 20.007812 36.410156l13.269531 51.40625c21.371094-21.339844 38.976563-46.4375 51.761719-74.214844-1.96875-10.160156-2.1875-20.585938-.664062-30.84375zm0 0" fill="#6cb964"/><g fill="#93e288"><path d="m470.886719 54.070312c-5.523438 3.339844-9.226563 9.378907-9.226563 16.300782 0 14.394531 15.355469 23.535156 27.972656 16.84375 3.078126-5.28125 3.796876-11.25 2.296876-16.851563-2.617188-9.761719-11.40625-16.214843-21.042969-16.292969zm0 0"/><path d="m389.042969 77.3125c6.128906 0 11.566406-2.902344 15.050781-7.398438 4.382812-15.792968-9.65625-30.902343-25.90625-27.316406-15.304688 10.632813-7.769531 34.714844 10.855469 34.714844zm0 0"/><path d="m312.355469 120.15625c7.054687 0 13.203125-3.84375 16.496093-9.539062-.191406-3.410157.242188-5.175782-.804687-9.085938-3.195313-11.917969-15.585937-18.90625-27.488281-15.382812-14.125 11.164062-6.273438 34.007812 11.796875 34.007812zm0 0"/><path d="m296.042969 218.152344c.980469-15.183594-13.636719-26.539063-27.867188-22.574219-14.554687 10.949219-6.882812 34.28125 11.433594 34.28125 7.027344 0 13.148437-3.8125 16.453125-9.472656-.050781-.742188-.070312-1.488281-.019531-2.234375zm0 0"/><path d="m266.082031 272.433594c-12.625-5.964844-27.179687 3.253906-27.179687 17.222656 0 10.527344 8.53125 19.058594 19.058594 19.058594.046874 0 .089843-.003906.136718-.003906.039063-.015626.074219-.03125.113282-.046876 6.460937-2.390624 11.699218-7.773437 13.617187-14.933593 2.113281-7.886719-.34375-15.921875-5.746094-21.296875zm0 0"/><path d="m226.605469 198.699219c6.964843-3.113281 11.410156-8.980469 12.816406-15.773438 1.453125-7.050781-.757813-14.167969-5.371094-19.238281-12.558593-7.851562-29.136719 1.109375-29.136719 16.15625 0 11.351562 9.972657 20.476562 21.691407 18.855469zm0 0"/><path d="m154.582031 153.867188c.8125-.960938 1.660157-1.898438 2.566407-2.78125 9.488281-9.246094 8.761718-25.011719-2.105469-33.253907-12.453125-4.449219-25.460938 4.796875-25.460938 17.933594 0 12.921875 12.636719 22.15625 25 18.101563zm0 0"/><path d="m42.914062 145.097656c0 15.164063 16.84375 24.152344 29.417969 15.984375 1.6875-5.195312 2.65625-6.152343 3.332031-9.984375 1.914063-10.886718-4.792968-21.894531-15.804687-24.933594-9.53125 1.050782-16.945313 9.121094-16.945313 18.933594zm0 0"/></g></svg>