<svg height="512pt" viewBox="-4 0 512 512.00002" width="512pt" xmlns="http://www.w3.org/2000/svg"><path d="m504.738281 259.632812c0 139.378907-112.988281 252.367188-252.371093 252.367188-139.378907 0-252.367188-112.988281-252.367188-252.367188 0-139.382812 112.988281-252.371093 252.367188-252.371093 139.382812 0 252.371093 112.988281 252.371093 252.371093zm0 0" fill="#587ecd"/><path d="m252.367188 406.992188c-103.203126 0-186.867188-83.664063-186.867188-186.871094v-33.25c0-103.207032 83.664062-186.871094 186.867188-186.871094 103.207031 0 186.871093 83.664062 186.871093 186.871094v33.25c0 103.207031-83.664062 186.871094-186.871093 186.871094zm0 0" fill="#a2e0fc"/><path d="m297.515625 392.324219c-103.207031 0-186.871094-83.664063-186.871094-186.867188v-33.253906c0-74.617187 43.742188-139.007813 106.972657-168.964844-86.597657 16.289063-152.117188 92.300781-152.117188 183.632813v33.25c0 103.207031 83.664062 186.871094 186.867188 186.871094 28.589843 0 55.671874-6.429688 79.902343-17.90625-11.261719 2.117187-22.875 3.238281-34.753906 3.238281zm0 0" fill="#85d0f9"/><path d="m364.4375 71.289062c-2.882812 1.007813-5.851562 1.980469-8.921875 2.910157-4.0625 1.226562-7.65625 3.679687-10.246094 7.035156-9.375 12.15625-24.066406 20.027344-40.515625 20.027344h-104.773437c-16.535157 0-31.300781-7.957031-40.667969-20.230469-2.472656-3.238281-5.945312-5.585938-9.84375-6.761719-3.160156-.949219-6.210938-1.945312-9.167969-2.980469-18.5625 23.96875-29.628906 55.015626-29.628906 87.605469v45.609375l283.390625.1875v-45.796875c0-32.589843-11.066406-63.636719-29.625-87.605469zm0 0" fill="#feeabb"/><path d="m164.671875 204.503906v-45.609375c0-22.042969 5.066406-43.375 14.089844-62.292969-7.683594-3.535156-14.363281-8.910156-19.449219-15.566406-2.472656-3.242187-5.945312-5.589844-9.84375-6.761718-3.160156-.953126-6.210938-1.949219-9.167969-2.980469-18.5625 23.964843-29.628906 55.011719-29.628906 87.601562v45.609375l54 .191406zm0 0" fill="#f9da9b"/><path d="m442.128906 421.777344c-4.257812-25.71875-23.273437-46.519532-48.511718-53.054688l-21.117188-5.472656c-32.484375 27.296875-74.382812 43.742188-120.132812 43.742188-45.746094 0-87.644532-16.449219-120.128907-43.742188l-21.117187 5.472656c-25.238282 6.539063-44.253906 27.335938-48.511719 53.054688l-.585937 3.550781c46.265624 53.105469 114.382812 86.671875 190.34375 86.671875 75.964843 0 144.082031-33.566406 190.347656-86.671875zm0 0" fill="#f79552"/><g fill="#f58453"><path d="m99.394531 421.777344c3.898438-23.554688 20.179688-42.972656 42.28125-51.097656-3.226562-2.378907-6.375-4.855469-9.441406-7.429688l-21.113281 5.472656c-25.238282 6.539063-44.253906 27.335938-48.511719 53.054688l-.589844 3.550781c9.472657 10.871094 19.871094 20.90625 31.054688 30.019531zm0 0"/><path d="m141.964844 452.621094c-4.144532 0-7.5 3.359375-7.5 7.5v22.679687c4.90625 2.597657 9.90625 5.046875 15 7.320313v-30c0-4.140625-3.359375-7.5-7.5-7.5zm0 0"/><path d="m362.773438 452.621094c-4.140626 0-7.5 3.359375-7.5 7.5v30c5.09375-2.273438 10.09375-4.722656 15-7.320313v-22.679687c0-4.140625-3.359376-7.5-7.5-7.5zm0 0"/></g><path d="m363.554688 370.308594c-.417969-.105469-32.824219-26.777344-111.183594-26.777344-2.140625 0-4.277344.03125-6.40625.066406-73.148438 1.429688-104.324219 27.054688-104.324219 27.054688 30.988281 22.835937 69.28125 36.339844 110.726563 36.339844 41.449218 0 79.742187-13.503907 110.730468-36.339844zm0 0" fill="#f37254"/><path d="m322.894531 372.769531c-5.921875-.015625-10.722656-4.820312-10.722656-10.746093 0-4.902344 3.550781-9.117188 8.039063-10.40625-21.726563-5.859376-45.695313-8.085938-67.84375-8.085938-.101563 0-2.304688-.003906-6.40625.066406-73.144532 1.429688-104.78125 26.710938-104.78125 26.710938 30.992187 22.835937 69.738281 36.683594 111.1875 36.683594 24.957031 0 48.765624-4.902344 70.527343-13.78125zm0 0" fill="#ef4e57"/><path d="m252.367188 406.992188c37.796874 0 72.960937-11.230469 102.367187-30.519532-67.105469-17.609375-137.625-17.609375-204.730469 0 29.40625 19.289063 64.570313 30.519532 102.363282 30.519532zm0 0" fill="#584496"/><path d="m313.9375 368.003906c-54.5-8.417968-110.304688-5.601562-163.933594 8.46875 29.40625 19.289063 64.570313 30.519532 102.363282 30.519532 19.582031 0 38.453124-3.019532 56.1875-8.609376-8.167969-8.679687-6.296876-25.03125 5.382812-30.378906zm0 0" fill="#483a84"/><path d="m292.972656 366.386719v-14.167969c-23.890625 17.632812-57.320312 17.632812-81.210937 0v14.167969c0 22.425781 18.179687 40.605469 40.605469 40.605469 22.425781 0 40.605468-18.179688 40.605468-40.605469zm0 0" fill="#f2ba88"/><path d="m251.367188 366.386719v-.964844c-13.996094-.199219-27.9375-4.59375-39.605469-13.203125v14.167969c0 22.425781 18.179687 40.605469 40.605469 40.605469 7.195312 0 13.945312-1.878907 19.804687-5.15625-12.410156-6.949219-20.804687-20.214844-20.804687-35.449219zm0 0" fill="#e2a97a"/><path d="m363.574219 371.25c0-.316406-.011719-.628906-.019531-.941406-31.070313 23.042968-69.53125 36.683594-111.1875 36.683594-41.652344 0-80.113282-13.640626-111.1875-36.683594-.003907.3125-.019532.625-.019532.941406 0 37.882812 49.789063 68.59375 111.207032 68.59375 61.417968 0 111.207031-30.710938 111.207031-68.59375zm0 0" fill="#f37254"/><path d="m302.644531 469.652344h-100.554687c-4.367188 0-7.90625 3.542968-7.90625 7.910156v27.683594c18.679687 4.410156 38.160156 6.753906 58.183594 6.753906 20.027343 0 39.503906-2.34375 58.183593-6.753906v-27.683594c0-4.367188-3.539062-7.910156-7.90625-7.910156zm0 0" fill="#48a4ef"/><path d="m252.367188 476.5625c0-2.972656 1.640624-5.554688 4.0625-6.910156h-54.339844c-4.367188 0-7.90625 3.542968-7.90625 7.910156v27.683594c18.679687 4.410156 38.15625 6.753906 58.183594 6.753906zm0 0" fill="#328be0"/><path d="m94.679688 428.550781h-29.800782c8.757813 9.714844 18.265625 18.738281 28.421875 27h1.378907c7.457031 0 13.5-6.046875 13.5-13.5 0-7.457031-6.042969-13.5-13.5-13.5zm0 0" fill="#dbdadf"/><path d="m64.890625 428.550781c8.644531 9.589844 18.085937 18.566407 28.183594 26.796875l4.960937-26.363281c-3.148437-.804687-3.296875-.285156-33.144531-.433594zm0 0" fill="#d1d0d6"/><path d="m396.539062 441.773438c0 7.457031 6.046876 13.5 13.5 13.5h1.738282c10.125-8.257813 19.59375-17.289063 28.324218-27h-30.0625c-7.453124 0-13.5 6.046874-13.5 13.5zm0 0" fill="#dbdadf"/><path d="m430.433594 428.273438h-20.394532c-7.453124 0-13.5 6.046874-13.5 13.5 0 7.457031 6.046876 13.5 13.5 13.5h1.738282c2.476562-2.019532 4.914062-4.085938 7.3125-6.199219-5.753906-8.925781.636718-20.800781 11.34375-20.800781zm0 0" fill="#d1d0d6"/><path d="m368.640625 194.730469v54.425781c18.941406 1.660156 34.511719-11.410156 34.511719-27.210938 0-15.875-15.664063-28.863281-34.511719-27.214843zm0 0" fill="#f2ba88"/><path d="m136.097656 194.21875c-18.910156-1.359375-34.511718 11.746094-34.511718 27.726562 0 15.90625 15.511718 29.09375 34.511718 27.726563zm0 0" fill="#f2ba88"/><path d="m368.640625 223.699219v25.457031c18.941406 1.660156 34.511719-11.410156 34.511719-27.210938 0-4.578124-1.308594-8.914062-3.617188-12.730468-5.675781 9.394531-17.429687 15.664062-30.894531 14.484375zm0 0" fill="#e2a97a"/><path d="m105.128906 209.214844c-2.265625 3.828125-3.542968 8.160156-3.542968 12.730468 0 15.910157 15.511718 29.09375 34.511718 27.726563v-25.460937c-13.554687.976562-25.328125-5.457032-30.96875-14.996094zm0 0" fill="#e2a97a"/><path d="m363.660156 166.472656-39.441406-30.710937c-6.652344-5.179688-14.421875-6.179688-21.304688-3.507813-26.839843 10.375-97.511718 35.5-157.78125 37.890625l.007813.019531s-9.046875.550782-9.046875 7.71875v73.023438c0 66.628906 55.226562 120.902344 121.785156 117.796875 61.65625-2.875 110.761719-53.765625 110.761719-116.140625v-73.253906c0-8.378906-4.976563-12.835938-4.980469-12.835938zm0 0" fill="#fcd2a4"/><path d="m164.597656 250.90625v-82.242188c-6.5625.71875-13.070312 1.230469-19.460937 1.484376l.007812.015624s-9.046875.554688-9.046875 7.722657v73.023437c0 66.628906 55.222656 120.902344 121.78125 117.796875 2.996094-.140625 5.960938-.394531 8.890625-.757812-57.453125-7.144531-102.171875-57.085938-102.171875-117.042969zm0 0" fill="#f2ba88"/><path d="m277.382812 288.824219h-50.03125c-7.015624 0-11.929687 7.074219-9.347656 13.601562 12.308594 31.078125 56.425782 31.0625 68.726563 0 2.585937-6.527343-2.328125-13.601562-9.347657-13.601562zm0 0" fill="#634456"/><path d="m277.382812 288.824219h-24.402343c7.019531 0 11.933593 7.074219 9.347656 13.601562-3.929687 9.921875-12.046875 17.71875-22.164063 21.257813 18.964844 6.636718 39.355469-3.046875 46.566407-21.257813 2.585937-6.527343-2.328125-13.601562-9.347657-13.601562zm0 0" fill="#553346"/><path d="m276.769531 316.535156c-6.507812-5.738281-15.039062-9.234375-24.402343-9.234375-9.359376 0-17.890626 3.496094-24.402344 9.234375 13.984375 12.328125 34.835937 12.316406 48.804687 0zm0 0" fill="#ef4e57"/><path d="m253.921875 325.742188c11.542969-.480469 11.542969-17.929688 0-18.410157-.515625-.019531-1.035156-.03125-1.554687-.03125-9.359376 0-17.890626 3.5-24.402344 9.234375 7.03125 6.199219 16.210937 9.609375 25.957031 9.207032zm0 0" fill="#f6737e"/><path d="m312.082031 228.941406c-1.5625-4.492187-5.808593-7.511718-10.566406-7.511718-4.761719 0-9.007813 3.019531-10.566406 7.511718-1.355469 3.914063-5.628907 5.984375-9.542969 4.625-3.914062-1.355468-5.984375-5.628906-4.625-9.542968 3.652344-10.523438 13.589844-17.59375 24.734375-17.59375s21.085937 7.070312 24.738281 17.59375c1.355469 3.914062-.714844 8.1875-4.628906 9.542968-3.894531 1.355469-8.179688-.695312-9.542969-4.625zm0 0" fill="#634456"/><path d="m214.160156 229.363281c-1.613281-4.652343-6.011718-7.777343-10.9375-7.777343-4.933594 0-9.328125 3.125-10.941406 7.777343-1.359375 3.914063-5.636719 5.984375-9.546875 4.628907-3.910156-1.359376-5.980469-5.632813-4.625-9.546876 3.707031-10.679687 13.800781-17.859374 25.113281-17.859374s21.40625 7.179687 25.113282 17.859374c1.355468 3.914063-.714844 8.1875-4.628907 9.546876-3.90625 1.351562-8.183593-.703126-9.546875-4.628907zm0 0" fill="#634456"/><path d="m252.367188 263.660156c-4.140626 0-7.5-3.359375-7.5-7.5v-12.667968c0-4.140626 3.359374-7.5 7.5-7.5 4.144531 0 7.5 3.359374 7.5 7.5v12.667968c0 4.140625-3.355469 7.5-7.5 7.5zm0 0" fill="#f2ba88"/><path d="m390.273438 60.769531c-10.199219-11.148437-21.742188-21.042969-34.359376-29.460937v-.007813c-29.691406-19.777343-65.296874-31.300781-103.546874-31.300781-36.992188 0-72.859376 10.839844-103.546876 31.300781v.011719c-12.613281 8.414062-24.15625 18.308594-34.355468 29.460938 9.539062 5.503906 21.378906 10.398437 35.003906 14.5 3.902344 1.171874 7.375 3.523437 9.847656 6.761718 9.367188 12.269532 24.128906 20.226563 40.667969 20.226563h104.773437c16.445313 0 31.136719-7.867188 40.511719-20.023438 2.589844-3.359375 6.183594-5.8125 10.246094-7.039062 13.523437-4.085938 25.273437-8.957031 34.757813-14.429688zm0 0" fill="#eceeed"/><path d="m252.367188 0c-32.167969 0-63.480469 8.199219-91.28125 23.789062 1.535156 15.179688 41.8125 27.339844 91.28125 27.339844 49.460937 0 89.734374-12.15625 91.28125-27.332031-27.03125-15.152344-58.160157-23.796875-91.28125-23.796875zm0 0" fill="#d1d0d6"/><path d="m170.339844 35.304688c13.9375-12.949219 29.847656-23.804688 47.238281-32.046876-19.183594 3.613282-38.34375 10.351563-56.488281 20.53125.414062 4.125 3.710937 8.019532 9.25 11.515626zm0 0" fill="#b5b2be"/><path d="m161.089844 23.808594c-4.167969 2.335937-8.265625 4.824218-12.269532 7.492187v.011719c-12.613281 8.414062-24.15625 18.308594-34.355468 29.460938 9.539062 5.503906 21.378906 10.398437 35.003906 14.5 3.902344 1.171874 7.375 3.519531 9.847656 6.761718 9.363282 12.269532 24.128906 20.226563 40.667969 20.226563h52.382813v-51.132813c-49.445313 0-89.710938-12.148437-91.277344-27.320312zm0 0" fill="#dfdee4"/><path d="m139.710938 72.089844c8.613281-13.546875 18.921874-25.90625 30.628906-36.785156-5.53125-3.488282-8.824219-7.378907-9.246094-11.496094-17.34375 9.71875-32.960938 22.105468-46.316406 36.628906-.101563.113281-.207032.222656-.308594.335938 7.179688 4.144531 15.671875 7.945312 25.242188 11.316406zm0 0" fill="#d1d0d6"/><path d="m308.40625 398.4375c-17.6875 5.558594-36.511719 8.554688-56.039062 8.554688-41.652344 0-80.113282-13.640626-111.183594-36.683594-.007813.3125-.023438.625-.023438.941406 0 37.882812 49.789063 68.59375 111.207032 68.59375 25.585937 0 49.148437-5.332031 67.9375-14.289062-12.851563-1.925782-19.027344-16.597657-11.898438-27.117188zm0 0" fill="#ef4e57"/></svg>