<svg height="512pt" viewBox="0 0 512.00001 512" width="512pt" xmlns="http://www.w3.org/2000/svg"><path d="m512 256c0 141.386719-114.613281 256-256 256s-256-114.613281-256-256 114.613281-256 256-256 256 114.613281 256 256zm0 0" fill="#553346"/><path d="m387.484375 266.65625c25.570313-14.765625 83.085937-47.972656 118.03125-68.144531-3.503906-15.261719-8.378906-29.996094-14.472656-44.078125-37.109375 21.425781-137.773438 79.542968-165.664063 95.644531-10.859375 6.269531-24.742187 2.550781-31.015625-8.308594-6.269531-10.859375-2.546875-24.746093 8.3125-31.015625 29.367188-16.957031 2.914063-1.683594 33.964844-19.609375 10.859375-6.273437 14.582031-20.15625 8.308594-31.015625-6.269531-10.859375-20.152344-14.582031-31.011719-8.3125l-24.070312 13.898438-9.902344 5.714844.003906-.003907c-10.859375 6.269531-24.742188 2.550781-31.015625-8.308593-6.269531-10.859376-2.546875-24.746094 8.3125-31.015626 29.367187-16.957031 56.15625-32.421874 87.207031-50.347656 10.859375-6.273437 14.582032-20.15625 8.3125-31.015625-6.269531-10.859375-20.15625-14.582031-31.015625-8.3125-19.679687 11.363281-58.25 33.632813-76.746093 44.308594l-165.53125 95.570313c-76.015626 43.886718-102.058594 141.089843-58.171876 217.105468 43.886719 76.015625 141.085938 102.058594 217.105469 58.171875l165.53125-95.570312c18.507813-10.6875 75.105469-43.363281 94.847657-54.761719 5.175781-2.988281 8.722656-7.707031 10.347656-13 .371094-2.460938.695312-4.9375.992187-7.417969-.117187-3.613281-1.097656-7.246093-3.03125-10.59375-6.269531-10.859375-20.152343-14.582031-31.011719-8.3125l-35.78125 20.660157-30.136718 17.398437.003906-.003906c-10.859375 6.269531-24.746094 2.550781-31.015625-8.308594-6.269531-10.863281-2.546875-24.746094 8.3125-31.015625zm0 0" fill="#fab94f"/><path d="m23.339844 402.804688 28.988281-17.917969c-50.425781-82.488281 9.023437-189.828125 106.632813-189.828125 20.640624 0 40.125 5.039062 57.292968 13.945312-6.515625-22.277344 10.410156-44.640625 33.804688-44.171875-7.734375-11.007812-4.269532-26.105469 7.207031-32.730469 29.371094-16.957031 56.160156-32.425781 87.210937-50.351562 10.859376-6.269531 14.578126-20.15625 8.308594-31.015625-6.269531-10.859375-20.152344-14.578125-31.015625-8.308594-19.679687 11.363281-58.25 33.628907-76.742187 44.308594l-165.535156 95.570313c-76.015626 43.886718-102.058594 141.089843-58.171876 217.105468.660157 1.144532 1.332032 2.273438 2.019532 3.394532zm0 0" fill="#f79552"/><path d="m424.222656 114.359375c-6.269531-10.859375-20.15625-14.582031-31.015625-8.3125l-15.265625 8.816406c-10.859375 6.269531-14.582031 20.15625-8.308594 31.015625 6.269532 10.859375 20.152344 14.578125 31.011719 8.308594l15.269531-8.8125c10.859376-6.269531 14.578126-20.15625 8.308594-31.015625zm0 0" fill="#f79552"/><path d="m34.074219 319.941406c0 68.863282 56.023437 124.886719 124.886719 124.886719 46.203124 0 86.636718-25.234375 108.234374-62.636719 10.585938-18.335937 16.644532-39.59375 16.644532-62.25 0-68.859375-56.019532-124.882812-124.882813-124.882812-68.542969 0-124.882812 55.730468-124.882812 124.882812zm0 0" fill="#f58453"/><path d="m343.273438 397.046875c8.257812-4.765625 11.082031-15.324219 6.308593-23.578125-4.660156-8.0625-14.976562-10.820312-23.042969-6.160156l-104.96875 60.660156c-37.40625 21.59375-85.039062 23.230469-125.054687.128906-83.128906-47.996094-82.910156-168.414062-.167969-216.179687 3.585938-2.074219 7.273438-3.957031 11.035156-5.660157l34.03125-17.441406c9.523438-4.882812 12.980469-16.765625 7.5625-25.996094-5.007812-8.527343-15.957031-11.417968-24.523437-6.472656l-44.960937 25.957032c-76.015626 43.886718-102.058594 141.089843-58.171876 217.105468 43.886719 76.015625 141.085938 102.058594 217.105469 58.171875zm0 0" fill="#fedc4c"/><g fill="#f37254"><path d="m283.113281 306.996094c-3.476562-32.921875-19.929687-64.089844-47.183593-85.394532-14.273438 6.445313-24.90625 19.535157-27.945313 35.328126-.796875 4.144531-3.476563 7.652343-7.285156 9.472656-9.371094 4.484375-15.597657 14.484375-14.449219 25.808594 1.21875 11.980468 10.917969 21.652343 22.898438 22.835937 14.578124 1.445313 16.679687-8.550781 27.511718-3.867187 5.945313 2.570312 12.492188 4 19.378906 4 10.015626-.003907 19.320313-3.023438 27.074219-8.183594zm0 0"/><path d="m141.726562 391.179688c12.015626-29.539063-13.167968-60.769532-44.460937-55.660157-14.253906-35.125-11.835937-75.492187 7.539063-109.046875 5.722656-9.910156 12.777343-18.957031 20.902343-26.914062-52.835937 14.609375-91.632812 63.089844-91.632812 120.382812 0 68.863282 56.023437 124.886719 124.886719 124.886719 33.960937 0 64.792968-13.644531 87.328124-35.722656-34.835937 9.632812-73.296874 3.898437-104.5625-17.925781zm0 0"/><path d="m153.746094 274.730469c0 11.015625-8.929688 19.941406-19.945313 19.941406-11.011719 0-19.941406-8.925781-19.941406-19.941406s8.929687-19.945313 19.941406-19.945313c11.015625 0 19.945313 8.929688 19.945313 19.945313zm0 0"/><path d="m200.113281 367.304688c-7.023437 0-12.722656-5.695313-12.722656-12.714844 0-7.023438 5.6875-12.714844 12.707031-12.714844h.011719c7.023437 0 12.714844 5.691406 12.714844 12.714844 0 7.019531-5.691407 12.714844-12.710938 12.714844zm0 0"/></g><path d="m505.515625 198.511719c-3.503906-15.261719-8.378906-29.996094-14.472656-44.078125-14.796875 8.539062-39.683594 22.910156-66.035157 38.125-11.226562 6.480468-14.976562 20.898437-8.324218 32.023437 6.214844 10.398438 19.625 13.882813 30.117187 7.828125 20.785157-12 42.25-24.394531 58.714844-33.898437zm0 0" fill="#f79552"/><path d="m178.925781 443.152344c-27.4375 4.46875-56.515625-.105469-82.410156-15.054688-83.128906-47.996094-82.910156-168.414062-.167969-216.179687 3.585938-2.074219 7.273438-3.957031 11.035156-5.660157l34.03125-17.441406c9.523438-4.882812 12.980469-16.765625 7.5625-25.996094-5.007812-8.527343-15.957031-11.417968-24.523437-6.472656l-44.960937 25.957032c-76.015626 43.886718-102.058594 141.089843-58.171876 217.105468 34.242188 59.3125 100.945313 88.199219 164.714844 77.183594-13.914062-5.222656-17.652344-23.066406-7.109375-33.441406zm0 0" fill="#fab94f"/></svg>