<svg height="512pt" viewBox="-20 0 511 512" width="512pt" xmlns="http://www.w3.org/2000/svg"><path d="m472.207031 276.148438c0 130.257812-105.597656 235.851562-235.855469 235.851562-130.257812 0-235.851562-105.59375-235.851562-235.851562 0-130.257813 105.59375-235.855469 235.851562-235.855469 130.257813 0 235.855469 105.597656 235.855469 235.855469zm0 0" fill="#fab94f"/><path d="m111.539062 287.996094c-48.691406 28.460937-74.429687 46.308594-85.027343 95.917968 14.898437 28.953126 35.617187 54.421876 60.605469 74.863282h57.292968v-18.25c0-10.835938 8.785156-19.621094 19.621094-19.621094h18.964844v-246.765625s-3.808594 74.316406-71.457032 113.855469zm0 0" fill="#6757aa"/><path d="m164.03125 420.90625h18.964844v-143.996094c-9.039063 12.367188-21.484375 24.761719-38.585938 35.675782v127.941406c0-10.835938 8.785156-19.621094 19.621094-19.621094zm0 0" fill="#584496"/><path d="m111.539062 287.996094c-48.691406 28.460937-74.421874 46.324218-85.019531 95.933594 2.003907 3.894531 4.125 7.722656 6.335938 11.488281h3.949219c15.464843 0 29.226562-9.253907 35.667968-23.308594 10.511719-22.945313 30.347656-34.777344 67.199219-56.597656 19.578125-11.597657 33.46875-25.117188 43.324219-38.601563v-102.769531s-3.808594 74.316406-71.457032 113.855469zm0 0" fill="#5f6abb"/><path d="m144.410156 312.585938c17.101563-10.914063 29.546875-23.308594 38.585938-35.675782v-102.769531c0 .039063-2.484375 48.042969-38.585938 87.40625zm0 0" fill="#6757aa"/><path d="m361.164062 287.996094c-67.644531-39.542969-71.457031-113.855469-71.457031-113.855469v246.765625h18.964844c10.839844 0 19.625 8.785156 19.625 19.621094v18.25h57.292969c24.988281-20.445313 45.707031-45.910156 60.605468-74.863282-10.601562-49.609374-36.335937-67.457031-85.03125-95.917968zm0 0" fill="#6757aa"/><path d="m308.671875 420.90625h-18.964844v-143.996094c9.042969 12.367188 21.488281 24.761719 38.589844 35.675782v127.941406c0-10.835938-8.785156-19.621094-19.625-19.621094zm0 0" fill="#584496"/><path d="m361.164062 287.996094c-67.644531-39.542969-71.457031-113.855469-71.457031-113.855469v102.769531c9.859375 13.484375 23.746094 27.003906 43.324219 38.601563 36.851562 21.820312 56.691406 33.652343 67.203125 56.597656 6.441406 14.054687 20.203125 23.308594 35.664063 23.308594h3.953124c2.210938-3.765625 4.332032-7.59375 6.335938-11.488281-10.597656-49.609376-36.328125-67.472657-85.023438-95.933594zm0 0" fill="#5f6abb"/><path d="m328.292969 261.546875c-36.113281-39.378906-38.585938-87.40625-38.585938-87.40625v102.769531c9.042969 12.367188 21.484375 24.761719 38.585938 35.671875zm0 0" fill="#6757aa"/><path d="m193.558594 82.691406h85.589844c-10.109376-50.449218-25.523438-82.691406-42.796876-82.691406-17.273437 0-32.6875 32.242188-42.792968 82.691406zm0 0" fill="#f37254"/><path d="m236.351562 0c-17.273437 0-32.6875 32.242188-42.792968 82.691406h36.445312c4.46875-38.847656 10.746094-66.882812 17.925782-77.726562-3.734376-3.242188-7.605469-4.964844-11.578126-4.964844zm0 0" fill="#ef4e57"/><path d="m280.417969 457.328125 9.289062 36.703125h-106.710937l9.292968-36.703125zm0 0" fill="#dfdee4"/><path d="m192.289062 457.328125-9.292968 36.703125h51.71875l4.789062-36.703125zm0 0" fill="#d1d0d6"/><path d="m271.648438 80.050781h-70.589844c-10.0625 0-18.21875 8.15625-18.21875 18.214844v323.878906h107.023437v-323.878906c0-10.058594-8.152343-18.214844-18.214843-18.214844zm0 0" fill="#dfdee4"/><path d="m235.277344 80.050781h-34.21875c-10.0625 0-18.214844 8.15625-18.214844 18.214844v323.878906h34.214844v-323.878906c0-10.058594 8.15625-18.214844 18.21875-18.214844zm0 0" fill="#d1d0d6"/><path d="m308.671875 420.125h-144.640625c-10.835938 0-19.621094 8.96875-19.621094 20.027344v18.625h183.886719v-18.625c0-11.058594-8.785156-20.027344-19.625-20.027344zm0 0" fill="#48a4ef"/><path d="m211.53125 420.125h-47.5c-10.835938 0-19.621094 8.96875-19.621094 20.027344v18.625h47.5v-18.625c0-11.058594 8.785156-20.027344 19.621094-20.027344zm0 0" fill="#5091de"/><path d="m271.648438 80.050781h-70.589844c-10.0625 0-18.214844 8.15625-18.214844 18.214844v41.757813h107.023438v-41.757813c-.003907-10.058594-8.160157-18.214844-18.21875-18.214844zm0 0" fill="#d1d0d6"/><path d="m217.058594 98.265625c0-10.058594 8.15625-18.214844 18.214844-18.214844h-34.214844c-10.0625 0-18.21875 8.15625-18.21875 18.214844v41.757813h34.21875zm0 0" fill="#b5b2be"/><path d="m236.351562 458.777344c-10.65625 0-19.292968-8.636719-19.292968-19.292969v-88.128906c0-10.65625 8.636718-19.296875 19.292968-19.296875s19.296876 8.640625 19.296876 19.296875v88.128906c-.003907 10.65625-8.640626 19.292969-19.296876 19.292969zm0 0" fill="#5f6abb"/><path d="m236.351562 396.191406c-10.65625 0-19.292968-8.636718-19.292968-19.292968v62.585937c0 10.65625 8.636718 19.292969 19.292968 19.292969s19.296876-8.636719 19.296876-19.292969v-62.585937c-.003907 10.65625-8.640626 19.292968-19.296876 19.292968zm0 0" fill="#6757aa"/><path d="m236.351562 512c21.878907 0 43.054688-2.992188 63.160157-8.566406-1.292969-9.398438-9.335938-16.648438-19.09375-16.648438h-88.128907c-9.757812 0-17.800781 7.25-19.089843 16.648438 20.101562 5.574218 41.277343 8.566406 63.152343 8.566406zm0 0" fill="#5f6abb"/><path d="m235.175781 486.785156h-42.886719c-9.757812 0-17.800781 7.246094-19.09375 16.648438 14.375 3.984375 29.300782 6.640625 44.636719 7.839844 1.8125-12.226563 8.636719-21.867188 17.34375-24.488282zm0 0" fill="#6757aa"/><path d="m257.664062 127.710938c-6.796874-11.773438-21.851562-15.808594-33.625-9.011719-11.773437 6.800781-15.808593 21.855469-9.011718 33.628906 6.800781 11.773437 21.855468 15.804687 33.628906 9.007813 11.769531-6.796876 15.804688-21.851563 9.007812-33.625zm0 0" fill="#6757aa"/><path d="m236.351562 140.023438c-4.554687-7.890626-4.238281-17.25.003907-24.613282-4.183594-.003906-8.425781 1.050782-12.308594 3.292969-11.777344 6.800781-15.808594 21.855469-9.011719 33.625 6.796875 11.777344 21.851563 15.808594 33.625 9.011719 3.886719-2.242188 6.921875-5.386719 9.007813-9.011719-8.496094-.011719-16.761719-4.417969-21.316407-12.304687zm0 0" fill="#584496"/><g fill="#f9da9b"><path d="m457.546875 194.136719h-105.261719c-7.355468 0-13.320312 5.964843-13.320312 13.320312 0 7.402344 6.03125 13.324219 13.324218 13.324219h45.304688c7.355469 0 13.320312 5.964844 13.320312 13.320312 0 7.300782-5.902343 13.324219-13.320312 13.324219h-14.5c-7.355469 0-13.324219 5.964844-13.324219 13.320313 0 7.375 5.992188 13.332031 13.324219 13.332031h89.085938c-.242188-28.089844-5.386719-55.011719-14.632813-79.941406zm0 0"/><path d="m3.480469 238.636719h109.613281c7.535156 0 13.652344-6.292969 13.308594-13.945313-.320313-7.175781-6.5-12.707031-13.683594-12.707031h-27.125c-8.855469 0-15.554688-8.585937-12.625-17.679687 1.753906-5.433594 7.015625-8.964844 12.722656-8.964844h59.207032c7.464843 0 13.609374-6.203125 13.316406-13.851563-.277344-7.210937-6.472656-12.792969-13.691406-12.792969h-72.039063c-7.5625 0-13.664063-6.308593-13.308594-13.957031.332031-7.171875 6.507813-12.6875 13.683594-12.6875h18.785156c7.460938 0 13.605469-6.207031 13.3125-13.851562-.28125-7.214844-6.476562-12.796875-13.691406-12.796875h-17.621094c-36.496093 34.792968-61.84375 81.171875-70.164062 133.234375zm0 0"/><path d="m374.328125 139.898438h19.855469c7.355468 0 13.324218 5.964843 13.324218 13.324218s-5.96875 13.324219-13.324218 13.324219h-19.855469c-7.355469 0-13.320313-5.964844-13.320313-13.324219s5.964844-13.324218 13.320313-13.324218zm0 0"/></g></svg>