<svg height="512pt" viewBox="-18 0 511 512" width="512pt" xmlns="http://www.w3.org/2000/svg"><path d="m476.339844 274.078125c0 131.402344-106.519532 237.921875-237.917969 237.921875-131.402344 0-237.921875-106.519531-237.921875-237.921875 0-131.398437 106.519531-237.917969 237.921875-237.917969 131.398437 0 237.917969 106.519532 237.917969 237.917969zm0 0" fill="#fab94f"/><path d="m316.820312 172.019531v105.101563h64.398438c6.6875 0 11.902344-5.757813 11.296875-12.417969-4.949219-54.671875-26.445313-68.855469-75.695313-92.683594zm0 0" fill="#48a4ef"/><path d="m346.5 266.226562v-65.164062c0-4.207031 1.457031-8.082031 3.871094-11.175781-9.367188-5.902344-20.480469-11.542969-33.550782-17.867188v105.101563h33.339844c-2.285156-3.050782-3.660156-6.8125-3.660156-10.894532zm0 0" fill="#5091de"/><path d="m159.960938 172.019531v105.101563h-64.394532c-6.6875 0-11.902344-5.757813-11.300781-12.417969 4.953125-54.671875 26.449219-68.855469 75.695313-92.683594zm0 0" fill="#48a4ef"/><path d="m130.28125 266.226562v-65.164062c0-4.207031-1.453125-8.082031-3.871094-11.175781 9.371094-5.902344 20.484375-11.542969 33.554688-17.867188v105.101563h-33.339844c2.285156-3.050782 3.65625-6.8125 3.65625-10.894532zm0 0" fill="#5091de"/><path d="m428.933594 416.613281c-24.667969-5.128906-49.441406 5.890625-62.308594 27.097657-.917969 1.515624-2.945312 1.949218-4.339844.851562-5.933594-4.664062-13.414062-7.453125-21.550781-7.453125h-.023437c-1.175782 0-2.117188-.964844-2.085938-2.140625.007812-.292969.011719-.585938.011719-.878906 0-27.742188-29.878907-43.453125-50.644531-32.867188-1.980469 1.011719-3.996094-.136718-5.226563-1.367187-6.621094-7.140625-8.558594-14.503907-8.558594-24.242188v-37.050781h-71.660156v37.050781c0 9.738281-1.941406 17.101563-8.558594 24.242188 0 0-2.492187 2.722656-4.476562 1.714843-21.890625-11.160156-51.398438 4.835938-51.398438 32.519532 0 .292968.003907.585937.015625.878906.03125 1.175781-.910156 2.140625-2.085937 2.140625h-.023438c-8.136719 0-15.617187 2.789063-21.554687 7.453125-1.390625 1.097656-3.417969.664062-4.335938-.851562-12.730468-20.976563-37.351562-32.253907-62.234375-27.113282 17.320313 23.117188 38.421875 42.507813 61.75 57.5625h.027344c37.113281 23.9375 81.304687 37.839844 128.75 37.839844 47.441406 0 91.632813-13.902344 128.746094-37.835938h.027343c22.984376-14.832031 44.1875-34.128906 61.738282-57.550781zm0 0" fill="#feeabb"/><path d="m260.542969 423.390625c0-24.742187 0-66.628906 0-84.828125h-44.039063v84.828125c-.289062 14.234375-3.808594 62.445313-37.515625 81.125 18.996094 4.886719 38.910157 7.484375 59.433594 7.484375 20.570313 0 40.53125-2.613281 59.566406-7.519531-33.644531-18.707031-37.15625-66.867188-37.445312-81.089844zm0 0" fill="#f9da9b"/><path d="m245.882812 429.34375c0-26.574219 0-71.746094 0-90.78125h-14.722656v90.78125c-.089844 14.152344-1.128906 59.867188-10.46875 82 5.855469.429688 11.765625.65625 17.730469.65625 6.03125 0 12.007813-.230469 17.925781-.671875-9.335937-22.132813-10.375-67.835937-10.464844-81.984375zm0 0" fill="#f4c676"/><path d="m277.042969 274.621094 8.148437 36.585937h-93.601562l8.148437-36.585937zm0 0" fill="#d1d0d6"/><path d="m199.738281 274.621094-8.148437 36.585937h43.941406l4.324219-36.585937zm0 0" fill="#b5b2be"/><path d="m200.964844 72.320312h74.855468c-8.839843-44.121093-22.324218-72.320312-37.429687-72.320312s-28.585937 28.199219-37.425781 72.320312zm0 0" fill="#f37254"/><path d="m238.390625 0c-15.105469 0-28.585937 28.199219-37.425781 72.320312h33.148437c3.734375-33.4375 8.953125-57.714843 14.921875-67.519531-3.421875-3.132812-6.984375-4.800781-10.644531-4.800781zm0 0" fill="#ef4e57"/><path d="m317.929688 277.121094h-33.847657v-155.121094c18.695313 0 33.847657 15.152344 33.847657 33.847656zm0 0" fill="#d1d0d6"/><path d="m158.855469 277.121094h33.84375v-155.121094c-18.691407 0-33.84375 15.152344-33.84375 33.847656zm0 0" fill="#b5b2be"/><path d="m269.257812 69.550781h-61.734374c-8.796876 0-15.933594 7.132813-15.933594 15.929688v191.640625h93.601562v-191.640625c0-8.796875-7.132812-15.929688-15.933594-15.929688zm0 0" fill="#dfdee4"/><path d="m237.402344 69.550781h-29.878906c-8.796876 0-15.929688 7.132813-15.929688 15.929688v191.640625h29.875v-191.640625c0-8.796875 7.132812-15.929688 15.933594-15.929688zm0 0" fill="#d1d0d6"/><path d="m238.390625 277.121094c-9.347656 0-16.921875-7.578125-16.921875-16.925782v-77.300781c0-9.347656 7.574219-16.921875 16.921875-16.921875s16.921875 7.574219 16.921875 16.921875v77.300781c.003906 9.347657-7.574219 16.925782-16.921875 16.925782zm0 0" fill="#48a4ef"/><path d="m238.390625 220.441406c-9.347656 0-16.921875-7.578125-16.921875-16.921875v56.675781c0 9.347657 7.578125 16.925782 16.921875 16.925782 9.347656 0 16.921875-7.578125 16.921875-16.925782v-56.675781c.003906 9.34375-7.574219 16.921875-16.921875 16.921875zm0 0" fill="#5091de"/><path d="m293.964844 324.964844c0 9.347656-7.574219 16.921875-16.921875 16.921875h-77.304688c-9.34375 0-16.921875-7.574219-16.921875-16.921875s7.578125-16.921875 16.921875-16.921875h77.304688c9.347656 0 16.921875 7.574219 16.921875 16.921875zm0 0" fill="#6757aa"/><path d="m221.46875 324.964844c0-9.347656 7.578125-16.921875 16.921875-16.921875h-38.652344c-9.34375 0-16.921875 7.574219-16.921875 16.921875s7.578125 16.921875 16.921875 16.921875h38.652344c-9.34375 0-16.921875-7.574219-16.921875-16.921875zm0 0" fill="#584496"/><path d="m257.027344 111.230469c-5.945313-10.296875-19.109375-13.824219-29.40625-7.878907-10.296875 5.945313-13.824219 19.113282-7.878906 29.410157 5.941406 10.296875 19.109374 13.824219 29.40625 7.878906 10.296874-5.945313 13.824218-19.113281 7.878906-29.410156zm0 0" fill="#6757aa"/><path d="m240.671875 120.683594c-3.703125-6.417969-3.726563-13.953125-.726563-20.15625-4.15625-.304688-8.4375.585937-12.316406 2.828125-10.300781 5.945312-13.828125 19.113281-7.882812 29.410156 5.945312 10.296875 19.113281 13.824219 29.410156 7.878906 3.878906-2.238281 6.792969-5.503906 8.609375-9.253906-6.875-.503906-13.386719-4.289063-17.09375-10.707031zm0 0" fill="#584496"/><g fill="#f9da9b"><path d="m127.136719 106.894531h-57.976563c-22.386718 22.664063-40.265625 49.792969-52.15625 79.945313h79.324219c7.332031 0 13.324219-5.960938 13.324219-13.332032 0-7.359374-5.96875-13.324218-13.324219-13.324218h-14.5c-7.417969 0-13.320313-6.019532-13.320313-13.320313 0-7.355469 5.964844-13.324219 13.320313-13.324219h45.304687c7.292969 0 13.324219-5.921874 13.324219-13.320312 0-7.359375-5.964843-13.324219-13.320312-13.324219zm0 0"/><path d="m476.339844 274.078125c0-7.324219-.347656-14.570313-.996094-21.726563h-55.125c-7.355469 0-13.324219 5.964844-13.324219 13.320313 0 7.402344 6.035157 13.324219 13.324219 13.324219h17.160156c7.355469 0 13.320313 5.964844 13.320313 13.320312 0 7.363282-5.96875 13.324219-13.320313 13.324219h-80.417968c-7.355469 0-13.320313 5.964844-13.320313 13.320313 0 7.402343 6.03125 13.324218 13.320313 13.324218h53.308593c7.355469 0 13.320313 5.964844 13.320313 13.320313 0 7.300781-5.902344 13.324219-13.324219 13.324219h-21.5c-7.355469 0-13.320313 5.964843-13.320313 13.320312 0 7.375 5.988282 13.335938 13.324219 13.335938h59.859375c17.679688-33.265626 27.710938-71.210938 27.710938-111.507813zm0 0"/><path d="m84.035156 347.246094h19.855469c7.359375 0 13.324219 5.964844 13.324219 13.324218 0 7.355469-5.964844 13.320313-13.324219 13.320313h-19.855469c-7.355468 0-13.320312-5.964844-13.320312-13.320313 0-7.359374 5.964844-13.324218 13.320312-13.324218zm0 0"/><path d="m167.320312 455.605469c4.621094-1.582031 6.394532-7.132813 3.484376-11.058594-3.167969-4.28125-5.574219-10.484375-4.773438-19.265625 2-21.964844 23.480469-23.710938 23.480469-23.710938-21.890625-11.160156-51.398438 4.839844-51.398438 32.519532 0 .292968.003907.589844.011719.878906.035156 1.175781-.90625 2.140625-2.085938 2.140625h-.019531c-8.136719 0-15.617187 2.789063-21.554687 7.457031-1.394532 1.09375-3.417969.660156-4.335938-.851562-12.730468-20.980469-37.351562-32.253906-62.238281-27.117188 17.324219 23.121094 38.425781 42.511719 61.753906 57.566406h.027344c9.605469 6.195313 19.691406 11.710938 30.179687 16.496094 3.25-22.246094 16.636719-31.34375 27.46875-35.054687zm0 0"/></g></svg>