<svg height="512pt" viewBox="0 0 512 512" width="512pt" xmlns="http://www.w3.org/2000/svg"><path d="m512 256c0 141.386719-114.613281 256-256 256s-256-114.613281-256-256 114.613281-256 256-256 256 114.613281 256 256zm0 0" fill="#584496"/><path d="m456.476562 96.800781-62.175781 5.546875c-2.644531.238282-5.066406 1.582032-6.660156 3.699219-1.601563 2.117187-2.226563 4.8125-1.730469 7.417969l16.601563 86.773437-81.507813 21.835938-167.765625-38.84375c-2.605469-.605469-5.351562-.066407-7.535156 1.480469-2.1875 1.542968-3.609375 3.949218-3.914063 6.609374l-24.695312 217.765626c-.3125 2.726562.589844 5.457031 2.464844 7.464843 1.78125 1.90625 4.269531 2.980469 6.863281 2.980469.140625 0 .277344-.003906.417969-.007812l186.46875-8.28125c4.835937-.214844 8.714844-4.070313 8.960937-8.90625l8.265625-163.375 85.265625-22.84375c4.753907-1.269532 7.71875-6 6.792969-10.832032l-16.289062-85.152344 63.054687-5.625c-4.046875-6.089843-8.34375-11.996093-12.882813-17.707031zm-152.53125 296.0625-166.953124 7.414063 22.273437-196.375 152.453125 35.296875zm0 0" fill="#5f6abb"/><path d="m98.597656 102.960938h-.011718c-6.914063 0-12.515626 5.605468-12.515626 12.519531 0 6.914062 5.613282 12.519531 12.527344 12.519531 6.914063 0 12.519532-5.605469 12.519532-12.519531 0-6.914063-5.605469-12.519531-12.519532-12.519531zm0 0" fill="#fab94f"/><path d="m476.871094 228.414062h-.011719c-6.914063 0-12.511719 5.605469-12.511719 12.519532 0 6.914062 5.613282 12.519531 12.523438 12.519531 6.914062 0 12.519531-5.605469 12.519531-12.519531 0-6.914063-5.605469-12.519532-12.519531-12.519532zm0 0" fill="#dfdee4"/><path d="m413.382812 389.34375h-.011718c-6.914063 0-12.511719 5.605469-12.511719 12.519531 0 6.914063 5.609375 12.519531 12.523437 12.519531 6.914063 0 12.519532-5.605468 12.519532-12.519531 0-6.914062-5.605469-12.519531-12.519532-12.519531zm0 0" fill="#fab94f"/><path d="m200.621094 152.050781c6.914062 0 12.519531-5.605469 12.519531-12.519531s-5.605469-12.519531-12.519531-12.519531h-.011719c-6.914063 0-12.511719 5.605469-12.511719 12.519531s5.609375 12.519531 12.523438 12.519531zm0 0" fill="#dfdee4"/><path d="m267.675781 62.367188h-5.359375v-5.359376c0-5.1875-4.207031-9.390624-9.390625-9.390624-5.183593 0-9.390625 4.203124-9.390625 9.390624v5.359376h-5.359375c-5.1875 0-9.390625 4.203124-9.390625 9.390624 0 5.183594 4.203125 9.386719 9.390625 9.386719h5.359375v5.363281c0 5.1875 4.207032 9.390626 9.390625 9.390626 5.183594 0 9.390625-4.203126 9.390625-9.390626v-5.363281h5.359375c5.1875 0 9.390625-4.203125 9.390625-9.386719 0-5.1875-4.203125-9.390624-9.390625-9.390624zm0 0" fill="#5f6abb"/><path d="m404.523438 320.386719v-5.363281h5.363281c5.183593 0 9.386719-4.203126 9.386719-9.390626 0-5.183593-4.203126-9.386718-9.386719-9.386718h-5.363281v-5.363282c0-5.183593-4.203126-9.386718-9.390626-9.386718-5.183593 0-9.386718 4.203125-9.386718 9.386718v5.363282h-5.363282c-5.183593 0-9.390624 4.203125-9.390624 9.386718 0 5.1875 4.207031 9.390626 9.390624 9.390626h5.363282v5.363281c0 5.183593 4.203125 9.386719 9.386718 9.386719 5.1875 0 9.390626-4.203126 9.390626-9.386719zm0 0" fill="#5f6abb"/><path d="m112.507812 386.042969c-13.289062 7.675781-17.859374 24.726562-10.1875 38.015625 7.671876 13.289062 24.726563 17.855468 38.015626 10.183594 13.289062-7.671876 17.859374-24.722657 10.1875-38.011719-7.671876-13.289063-24.726563-17.859375-38.015626-10.1875zm0 0" fill="#48a4ef"/><path d="m126.421875 410.144531c-5.140625-8.902343-4.777344-19.488281.007813-27.816406-4.734376-.007813-9.535157 1.183594-13.921876 3.71875-13.289062 7.671875-17.859374 24.722656-10.1875 38.011719 7.671876 13.289062 24.726563 17.859375 38.015626 10.1875 4.386718-2.535156 7.816406-6.09375 10.179687-10.199219-9.609375-.023437-18.953125-5.003906-24.09375-13.902344zm0 0" fill="#587ecd"/><path d="m307.257812 207.648438c-13.289062 7.671874-17.859374 24.726562-10.1875 38.015624 7.671876 13.289063 24.726563 17.859376 38.015626 10.1875 13.285156-7.675781 17.855468-24.726562 10.183593-38.015624-7.671875-13.289063-24.722656-17.859376-38.011719-10.1875zm0 0" fill="#48a4ef"/><path d="m321.164062 231.753906c-5.140624-8.902344-4.777343-19.492187.011719-27.820312-4.734375-.007813-9.53125 1.183594-13.917969 3.714844-13.289062 7.671874-17.859374 24.726562-10.1875 38.015624 7.671876 13.289063 24.726563 17.859376 38.015626 10.183594 4.386718-2.53125 7.816406-6.089844 10.175781-10.195312-9.609375-.015625-18.957031-4.996094-24.097657-13.898438zm0 0" fill="#587ecd"/><path d="m419.234375 97.789062c-7.671875-13.292968-24.726563-17.859374-38.015625-10.1875-13.289062 7.671876-17.859375 24.722657-10.183594 38.015626 7.671875 13.289062 24.722656 17.855468 38.011719 10.183593s17.859375-24.722656 10.1875-38.011719zm0 0" fill="#48a4ef"/><path d="m395.132812 111.703125c-5.136718-8.902344-4.777343-19.488281.007813-27.816406-4.734375-.007813-9.535156 1.179687-13.921875 3.714843-13.289062 7.671876-17.859375 24.722657-10.183594 38.015626 7.671875 13.289062 24.722656 17.855468 38.011719 10.183593 4.390625-2.53125 7.820313-6.09375 10.179687-10.199219-9.605468-.015624-18.953124-5-24.09375-13.898437zm0 0" fill="#587ecd"/><path d="m294.835938 370.59375c-17.242188 9.953125-23.171876 32.082031-13.21875 49.324219 9.957031 17.242187 32.082031 23.171875 49.328124 13.214843 17.242188-9.953124 23.171876-32.082031 13.214844-49.324218-9.953125-17.242188-32.082031-23.171875-49.324218-13.214844zm0 0" fill="#48a4ef"/><path d="m312.890625 401.863281c-6.667969-11.550781-6.203125-25.285156.007813-36.089843-6.144532-.011719-12.371094 1.53125-18.0625 4.820312-17.242188 9.953125-23.171876 32.082031-13.21875 49.324219 9.957031 17.242187 32.082031 23.171875 49.324218 13.214843 5.695313-3.285156 10.148438-7.90625 13.207032-13.234374-12.460938-.023438-24.589844-6.484376-31.257813-18.035157zm0 0" fill="#587ecd"/><g fill="#48a4ef"><path d="m413.371094 189.246094c-9.816406 0-17.800782 7.988281-17.800782 17.804687 0 9.816407 7.984376 17.800781 17.800782 17.800781s17.800781-7.984374 17.800781-17.800781c.003906-9.816406-7.984375-17.804687-17.800781-17.804687zm0 0"/><path d="m151.121094 174.574219c-9.816406 0-17.804688 7.988281-17.804688 17.804687s7.988282 17.800782 17.804688 17.800782 17.800781-7.984376 17.800781-17.800782-7.984375-17.804687-17.800781-17.804687zm0 0"/></g></svg>