<svg height="512pt" viewBox="-16 0 512 512.00003" width="512pt" xmlns="http://www.w3.org/2000/svg"><path d="m479.042969 272.480469c0 132.28125-107.234375 239.519531-239.519531 239.519531-132.28125 0-239.5156255-107.238281-239.5156255-239.519531s107.2343755-239.515625 239.5156255-239.515625c132.285156 0 239.519531 107.234375 239.519531 239.515625zm0 0" fill="#553346"/><path d="m150.34375 401.71875c-4.355469-.59375-8.828125-.800781-13.382812-.5625-1.414063.074219-2.816407.191406-4.203126.347656-1.632812.183594-3.1875-.695312-3.917968-2.167968-9.308594-18.785157-31.082032-27.84375-50.984375-21.097657-1.386719.472657-2.925781.132813-3.972657-.894531-10.535156-10.320312-24.980468-16.660156-40.898437-16.566406-5.300781.03125-10.425781.785156-15.292969 2.148437 22.140625 54.253907 63.605469 98.558594 115.84375 124.382813zm0 0" fill="#6cb964"/><path d="m461.363281 362.910156c-4.851562-1.351562-9.953125-2.101562-15.230469-2.132812-15.917968-.09375-30.363281 6.246094-40.902343 16.570312-1.046875 1.023438-2.582031 1.363282-3.972657.894532-3.546874-1.203126-7.316406-1.953126-11.242187-2.15625-17.21875-.902344-32.542969 8.726562-39.738281 23.25-.730469 1.472656-2.289063 2.355468-3.921875 2.167968-1.386719-.152344-2.785157-.273437-4.199219-.347656-4.554688-.238281-9.027344-.03125-13.382812.5625l16.800781 85.566406c52.773437-26.117187 93.859375-70.628906 115.789062-124.375zm0 0" fill="#7dcf74"/><path d="m374.429688 408.699219c0-13.746094 7.34375-25.769531 18.324218-32.375-.90625-.109375-1.816406-.191407-2.738281-.238281-17.214844-.902344-32.542969 8.726562-39.738281 23.25-.730469 1.472656-2.285156 2.355468-3.917969 2.167968-1.386719-.152344-2.789063-.273437-4.203125-.347656-4.550781-.238281-9.023438-.03125-13.382812.5625l16.800781 85.566406c22.066406-10.917968 41.828125-24.855468 59.300781-41.539062-17.351562-3.410156-30.445312-18.695313-30.445312-37.046875zm0 0" fill="#6cb964"/><path d="m129.808594 485.441406c32.875 16.96875 70.171875 26.558594 109.714844 26.558594 39.503906 0 76.769531-9.570312 109.617187-26.507812l-56.972656-290.445313-105.335938.011719zm0 0" fill="#f9da9b"/><path d="m332.097656 398.601562c-7.003906 19.113282-23.296875 34.320313-44.589844 38.839844-15.476562 3.289063-31.527343 5.015625-47.984374 5.015625-16.492188 0-32.578126-1.734375-48.085938-5.035156-21.285156-4.53125-37.566406-19.726563-44.570312-38.832031l-17.054688 86.851562c32.871094 16.96875 70.171875 26.558594 109.714844 26.558594 39.503906 0 76.769531-9.570312 109.617187-26.507812zm0 0" fill="#f4c676"/><path d="m174.59375 503.085938c20.648438 5.804687 42.425781 8.914062 64.929688 8.914062 22.757812 0 44.769531-3.175781 65.625-9.101562l-43.726563-307.992188-42.542969.101562zm0 0" fill="#f4c676"/><path d="m305.148438 502.875-9.617188-67.722656c-2.585938.933594-5.261719 1.703125-8.023438 2.289062-15.476562 3.289063-31.527343 5.015625-47.984374 5.015625-16.492188 0-32.578126-1.734375-48.085938-5.035156-2.445312-.523437-4.816406-1.1875-7.121094-1.976563l-9.722656 67.632813c20.71875 5.828125 42.625 8.921875 64.933594 8.921875 21.496094 0 43.660156-2.863281 65.621094-9.125zm0 0" fill="#fab94f"/><g fill="#feeabb"><path d="m195.574219 362.707031c-4.109375-.507812-7.03125-4.25-6.523438-8.363281l1.046875-8.515625c.507813-4.109375 4.25-7.050781 8.363282-6.527344 4.113281.507813 7.035156 4.25 6.527343 8.363281l-1.050781 8.515626c-.507812 4.132812-4.277344 7.039062-8.363281 6.527343zm0 0"/><path d="m302.265625 486.960938c-3.734375 0-6.96875-2.78125-7.4375-6.582032l-1.046875-8.515625c-.507812-4.113281 2.414062-7.855469 6.523438-8.363281 4.121093-.515625 7.859374 2.414062 8.363281 6.527344l1.050781 8.515625c.507812 4.109375-2.414062 7.855469-6.527344 8.359375-.3125.039062-.621094.058594-.925781.058594zm0 0"/><path d="m202.53125 313.871094c-.304688 0-.613281-.019532-.925781-.058594-4.113281-.507812-7.035157-4.25-6.527344-8.363281l7.425781-60.210938c.507813-4.113281 4.25-7.046875 8.363282-6.527343 4.109374.507812 7.035156 4.25 6.527343 8.363281l-7.425781 60.210937c-.46875 3.800782-3.703125 6.585938-7.4375 6.585938zm0 0"/><path d="m275.890625 306.476562c-3.738281 0-6.972656-2.792968-7.4375-6.59375l-6.441406-52.820312c-.5-4.113281 2.425781-7.851562 6.539062-8.355469 4.109375-.496093 7.851563 2.425781 8.351563 6.539063l6.441406 52.816406c.5 4.113281-2.425781 7.855469-6.539062 8.355469-.304688.039062-.613282.058593-.914063.058593zm0 0"/></g><path d="m290.105469 373.355469c0 7.84375-6.359375 14.207031-14.207031 14.207031-7.847657 0-14.207032-6.363281-14.207032-14.207031 0-7.847657 6.359375-14.210938 14.207032-14.210938 7.847656 0 14.207031 6.363281 14.207031 14.210938zm0 0" fill="#587ecd"/><path d="m253.179688 407.542969h-22.972657c-2.527343 0-4.882812-1.273438-6.269531-3.382813l-9.695312-14.742187c-2.273438-3.464844-1.3125-8.113281 2.148437-10.390625 3.460937-2.273438 8.113281-1.3125 10.386719 2.148437l7.472656 11.363281h18.929688c4.144531 0 7.503906 3.359376 7.503906 7.503907 0 4.140625-3.359375 7.5-7.503906 7.5zm0 0" fill="#6757aa"/><path d="m211.566406 482.703125c-.066406 0-.132812 0-.199218-.003906-4.140626-.105469-7.410157-3.550781-7.300782-7.691407l.667969-25.503906c.058594-2.257812 1.132813-4.367187 2.921875-5.746094l23.753906-18.304687c3.28125-2.527344 7.992188-1.914063 10.519532 1.363281 2.527343 3.28125 1.917968 7.992188-1.363282 10.523438l-20.929687 16.125-.574219 21.933594c-.105469 4.074218-3.441406 7.304687-7.496094 7.304687zm0 0" fill="#6757aa"/><path d="m239.523438 276.691406c-4.140626 0-7.5-3.355468-7.5-7.5v-13.003906c0-4.140625 3.359374-7.5 7.5-7.5 4.144531 0 7.503906 3.359375 7.503906 7.5v13.003906c0 4.144532-3.359375 7.5-7.503906 7.5zm0 0" fill="#feeabb"/><path d="m241.695312 446.457031c-2.484374 0-4.996093-.683593-7.246093-2.117187-6.285157-4.007813-8.132813-12.355469-4.125-18.644532l18.945312-29.714843c4.007813-6.289063 12.355469-8.136719 18.640625-4.128907 6.289063 4.007813 8.136719 12.355469 4.128906 18.644532l-18.945312 29.714844c-2.574219 4.039062-6.9375 6.246093-11.398438 6.246093zm0 0" fill="#5f6abb"/><path d="m275.511719 453.570312c-3.925781-1.316406-6.042969-5.570312-4.726563-9.496093l5.015625-14.949219-15.558593-20.167969c-2.527344-3.277343-1.921876-7.988281 1.359374-10.519531s7.988282-1.921875 10.519532 1.355469l18.003906 23.335937c1.527344 1.980469 1.96875 4.59375 1.171875 6.96875l-6.289063 18.746094c-1.320312 3.9375-5.578124 6.039062-9.496093 4.726562zm0 0" fill="#587ecd"/><path d="m250.164062 489.339844-17.316406-18.730469c-1.53125-1.65625-2.234375-3.917969-1.917968-6.152344l4.242187-29.6875c.585937-4.101562 4.382813-6.949219 8.484375-6.363281s6.953125 4.382812 6.367188 8.484375l-3.738282 26.15625 14.894532 16.109375c2.8125 3.042969 2.625 7.789062-.414063 10.601562-3.035156 2.804688-7.785156 2.632813-10.601563-.417968zm0 0" fill="#587ecd"/><path d="m239.523438 0c-39.617188 0-71.738282 32.117188-71.738282 71.738281v16.066407h143.476563v-16.066407c0-39.621093-32.117188-71.738281-71.738281-71.738281zm0 0" fill="#85d0f9"/><path d="m257.851562 2.371094c-5.851562-1.539063-11.992187-2.371094-18.328124-2.371094-39.617188 0-71.738282 32.117188-71.738282 71.738281v16.066407h36.652344v-16.066407c0-33.285156 22.671875-61.265625 53.414062-69.367187zm0 0" fill="#48a4ef"/><path d="m348.773438 126.914062c-17.28125-7.421874-30.816407-21.53125-37.511719-39.109374h-143.476563c-6.695312 17.578124-20.226562 31.6875-37.507812 39.109374l-26.019532 11.171876h270.535157zm0 0" fill="#5f6abb"/><path d="m212.882812 87.804688h-45.097656c-6.695312 17.578124-20.226562 31.6875-37.507812 39.109374l-26.019532 11.171876h83.960938c5.394531-7.996094 19.085938-12.570313 24.664062-50.28125zm0 0" fill="#6757aa"/><path d="m267.375 87.804688h-55.703125c-5.570313 37.664062-19.363281 42.421874-24.664063 50.28125h105.035157c-5.394531-7.992188-19.089844-12.570313-24.667969-50.28125zm0 0" fill="#587ecd"/><path d="m240.175781 87.804688h-28.503906c-5.570313 37.664062-19.359375 42.421874-24.664063 50.28125h37.25c3.511719-8.070313 12.316407-12.546876 15.917969-50.28125zm0 0" fill="#5f6abb"/><path d="m239.523438 167.640625h-135.265626c21.933594 11.980469 30 13.914063 40.953126 24.121094 4.4375 4.132812 9.929687 6.269531 15.53125 6.269531h157.949218c5.351563 0 10.617188-2.007812 14.839844-5.984375 11.027344-10.390625 18.925781-12.1875 41.261719-24.40625zm0 0" fill="#6757aa"/><path d="m205.066406 181.148438-18.058594-13.507813h-82.75c21.933594 11.980469 30 13.914063 40.953126 24.121094 4.4375 4.132812 9.929687 6.269531 15.53125 6.269531h65.472656c-9.382813 0-10.214844-8.707031-21.148438-16.882812zm0 0" fill="#584496"/><path d="m312.570312 97.472656h-146.089843c-5.339844 0-9.667969-4.328125-9.667969-9.667968 0-5.339844 4.328125-9.664063 9.667969-9.664063h146.089843c5.339844 0 9.667969 4.324219 9.667969 9.664063 0 5.339843-4.328125 9.667968-9.667969 9.667968zm0 0" fill="#d0f2fc"/><path d="m194.769531 87.804688c0-5.339844 4.328125-9.664063 9.667969-9.664063h-37.957031c-5.339844 0-9.667969 4.324219-9.667969 9.664063 0 5.339843 4.328125 9.667968 9.667969 9.667968h37.957031c-5.339844 0-9.667969-4.328125-9.667969-9.667968zm0 0" fill="#ace3fc"/><path d="m374.792969 172.890625h-270.535157c-9.609374 0-17.402343-7.789063-17.402343-17.402344 0-9.609375 7.789062-17.402343 17.402343-17.402343h270.535157c9.609375 0 17.402343 7.792968 17.402343 17.402343-.003906 9.613281-7.792968 17.402344-17.402343 17.402344zm0 0" fill="#5f6abb"/><path d="m374.792969 172.890625h-270.535157c-9.609374 0-17.402343-7.789063-17.402343-17.402344 0-9.609375 7.789062-17.402343 17.402343-17.402343h270.535157c9.609375 0 17.402343 7.792968 17.402343 17.402343-.003906 9.613281-7.792968 17.402344-17.402343 17.402344zm0 0" fill="#5f6abb"/><path d="m169.5 155.488281c0-9.609375 7.898438-17.402343 17.507812-17.402343h-82.75c-9.609374 0-17.402343 7.792968-17.402343 17.402343 0 9.613281 7.789062 17.402344 17.402343 17.402344h82.75c-9.609374 0-17.507812-7.789063-17.507812-17.402344zm0 0" fill="#6757aa"/><path d="m287.378906 37.429688c0 6.410156-5.195312 11.609374-11.605468 11.609374-6.410157 0-11.605469-5.199218-11.605469-11.609374 0-6.410157 5.195312-11.605469 11.605469-11.605469 6.410156 0 11.605468 5.195312 11.605468 11.605469zm0 0" fill="#d0f2fc"/><path d="m260.039062 47.082031c0 3.570313-2.894531 6.46875-6.464843 6.46875-3.570313 0-6.464844-2.898437-6.464844-6.46875 0-3.570312 2.894531-6.464843 6.464844-6.464843 3.570312 0 6.464843 2.894531 6.464843 6.464843zm0 0" fill="#d0f2fc"/><path d="m450.636719 159.265625h-31.289063c-7.335937 0-13.328125 5.960937-13.328125 13.335937 0 7.355469 5.96875 13.324219 13.324219 13.324219h14.503906c7.421875 0 13.324219 6.023438 13.324219 13.324219 0 7.355469-5.96875 13.324219-13.324219 13.324219h-45.3125c-7.292968 0-13.324218 5.921875-13.324218 13.324219 0 7.355468 5.96875 13.324218 13.324218 13.324218h88.199219c-3.972656-28.574218-12.972656-55.535156-26.097656-79.957031zm0 0" fill="#634456"/><path d="m116.664062 217.316406h-80.425781c-7.355469 0-13.324219-5.964844-13.324219-13.324218 0-7.359376 5.964844-13.324219 13.324219-13.324219h28.160157c7.292968 0 13.328124-5.921875 13.328124-13.324219 0-7.359375-5.96875-13.324219-13.324218-13.324219h-38.480469c-20.980469 41.238281-29.363281 87.378907-24.644531 133.25h83.578125c7.332031 0 13.324219-5.960937 13.324219-13.332031 0-7.359375-5.96875-13.324219-13.324219-13.324219h-21.503907c-7.421874 0-13.324218-6.023437-13.324218-13.324219 0-7.359374 5.964844-13.324218 13.324218-13.324218h53.3125c7.292969 0 13.324219-5.921875 13.324219-13.324219 0-7.359375-5.964843-13.324219-13.324219-13.324219zm0 0" fill="#634456"/><path d="m419.941406 265.871094h19.855469c7.359375 0 13.324219 5.964844 13.324219 13.324218 0 7.359376-5.964844 13.324219-13.324219 13.324219h-19.855469c-7.359375 0-13.328125-5.964843-13.328125-13.324219 0-7.359374 5.964844-13.324218 13.328125-13.324218zm0 0" fill="#634456"/></svg>