<svg height="512pt" viewBox="-8 0 511 512" width="512pt" xmlns="http://www.w3.org/2000/svg"><path d="m496.230469 264.132812c0 136.894532-110.972657 247.867188-247.863281 247.867188-136.894532 0-247.867188-110.972656-247.867188-247.867188 0-136.890624 110.972656-247.863281 247.867188-247.863281 136.890624 0 247.863281 110.972657 247.863281 247.863281zm0 0" fill="#553346"/><path d="m248.367188 0c-80.773438 0-146.488282 65.714844-146.488282 146.484375v47.152344l292.972656.195312v-47.347656c0-80.769531-65.714843-146.484375-146.484374-146.484375zm0 0" fill="#feeabb"/><path d="m158.628906 193.636719v-47.152344c0-71.066406 50.871094-130.464844 118.109375-143.714844-9.179687-1.8125-18.667969-2.769531-28.371093-2.769531-80.773438 0-146.488282 65.714844-146.488282 146.484375v47.152344l56.75.195312zm0 0" fill="#f9da9b"/><path d="m444.148438 416.140625c-5.070313-25.613281-24.363282-46.15625-49.761719-52.738281-14.492188-3.753906-29.402344-5.65625-44.375-5.65625-201.003907 1.640625-210.523438-3.964844-247.667969 5.65625-25.394531 6.578125-44.691406 27.125-49.761719 52.738281 45.351563 58.328125 116.179688 95.859375 195.785157 95.859375 79.601562 0 150.433593-37.53125 195.78125-95.859375zm0 0" fill="#f79552"/><g fill="#f58453"><path d="m103.25 409.472656c4.835938-24.425781 22.613281-44.234375 46.28125-51.726562-1.90625.113281-21.824219-.914063-47.1875 5.65625-25.394531 6.578125-44.691406 27.125-49.761719 52.738281 11.636719 14.964844 24.960938 28.550781 39.667969 40.496094zm0 0"/><path d="m134.226562 450.140625c-4.28125 0-7.75 3.472656-7.75 7.753906v22.097657c5.058594 2.863281 10.230469 5.558593 15.503907 8.066406v-30.164063c0-4.28125-3.46875-7.753906-7.753907-7.753906zm0 0"/><path d="m362.503906 450.140625c-4.28125 0-7.753906 3.472656-7.753906 7.753906v30.167969c5.273438-2.511719 10.445312-5.207031 15.507812-8.070312v-22.097657c0-4.28125-3.472656-7.753906-7.753906-7.753906zm0 0"/></g><path d="m363.3125 365.042969c-.902344-.207031-34.855469-29.113281-121.570312-27.613281-75.617188 1.480468-107.847657 27.96875-107.847657 27.96875 67.964844 50.085937 160.9375 50.117187 228.945313 0zm0 0" fill="#f37254"/><path d="m321.273438 367.585938c-6.121094-.011719-11.082032-4.980469-11.082032-11.105469 0-5.070313 3.667969-9.425781 8.3125-10.757813-19.660156-5.300781-45.191406-8.839844-76.761718-8.292968-75.617188 1.480468-108.320313 27.613281-108.320313 27.613281 54.789063 40.378906 126 48.917969 187.851563 23.679687zm0 0" fill="#ef4e57"/><path d="m354.191406 371.414062c-69.375-18.199218-142.277344-18.199218-211.652344 0 62.855469 41.234376 146.261719 42.902344 211.652344 0zm0 0" fill="#584496"/><path d="m312.015625 362.664062c-56.34375-8.703124-114.035156-5.796874-169.476563 8.75 49.996094 32.800782 110.585938 39.457032 163.910157 22.65625-8.441407-8.976562-6.507813-25.878906 5.566406-31.40625zm0 0" fill="#483a84"/><path d="m363.332031 366.019531c0-.328125-.015625-.652343-.019531-.976562-67.804688 50.289062-161.320312 50.859375-229.890625 0-.007813.324219-.023437.648437-.023437.976562 0 39.164063 51.472656 70.910157 114.96875 70.910157 63.492187 0 114.964843-31.746094 114.964843-70.910157zm0 0" fill="#f37254"/><path d="m303.1875 404.269531c0-3.757812 1.148438-7.25 3.109375-10.144531-56.882813 17.871094-121.644531 8.914062-172.875-29.082031-.007813.324219-.023437.648437-.023437.976562 0 39.164063 51.472656 70.910157 114.96875 70.910157 26.449218 0 50.808593-5.511719 70.234374-14.773438-8.71875-1.304688-15.414062-8.804688-15.414062-17.886719zm0 0" fill="#ef4e57"/><path d="m290.34375 360.988281v-14.644531c-24.699219 18.226562-59.257812 18.226562-83.957031 0v14.644531c0 23.1875 18.792969 41.980469 41.976562 41.980469 23.1875 0 41.980469-18.792969 41.980469-41.980469zm0 0" fill="#f2ba88"/><path d="m247.363281 360.988281v-.996093c-14.476562-.199219-28.90625-4.742188-40.976562-13.648438v14.644531c0 32.246094 34.785156 52.152344 62.46875 36.636719-12.820313-7.183594-21.492188-20.894531-21.492188-36.636719zm0 0" fill="#e2a97a"/><path d="m300.34375 467.75h-103.953125c-4.515625 0-8.175781 3.660156-8.175781 8.171875v28.714844c19.253906 4.796875 39.390625 7.363281 60.132812 7.363281h.019532.019531c20.738281-.003906 40.875-2.566406 60.128906-7.363281v-28.714844c0-4.515625-3.660156-8.171875-8.171875-8.171875zm0 0" fill="#48a4ef"/><path d="m248.460938 474.921875c0-3.09375 1.71875-5.785156 4.253906-7.171875h-56.324219c-4.515625 0-8.175781 3.660156-8.175781 8.171875v28.714844c19.253906 4.796875 39.390625 7.363281 60.132812 7.363281h.019532.019531.074219zm0 0" fill="#328be0"/><path d="m367.535156 183.535156v56.265625c19.582032 1.714844 36.710938-11.796875 36.710938-28.132812 0-16.414063-17.226563-29.839844-36.710938-28.132813zm0 0" fill="#f2ba88"/><path d="m129.195312 183.003906c-19.542968-1.40625-36.710937 12.140625-36.710937 28.660156 0 16.449219 17.070313 30.078126 36.710937 28.664063zm0 0" fill="#f2ba88"/><path d="m367.535156 213.519531v26.28125c19.582032 1.714844 36.710938-11.796875 36.710938-28.132812 0-4.726563-1.433594-9.203125-3.933594-13.144531-6.164062 9.726562-18.847656 16.214843-32.777344 14.996093zm0 0" fill="#e2a97a"/><path d="m96.34375 198.523438c-2.453125 3.953124-3.859375 8.425781-3.859375 13.140624 0 16.449219 17.070313 30.078126 36.710937 28.664063v-26.277344c-14.019531 1.007813-26.726562-5.652343-32.851562-15.527343zm0 0" fill="#e2a97a"/><path d="m363.421875 154.320312-40.777344-31.746093c-6.878906-5.355469-14.910156-6.390625-22.027343-3.628907-27.746094 10.726563-100.804688 36.703126-163.109376 39.175782l.007813.015625s-9.355469.574219-9.355469 7.980469v75.492187c0 68.882813 57.09375 124.988281 125.902344 121.78125 63.738281-2.976563 114.503906-55.585937 114.503906-120.070313v-75.730468c0-8.664063-5.144531-13.269532-5.144531-13.269532zm0 0" fill="#fcd2a4"/><path d="m158.828125 241.609375v-85.160156c-7.1875.816406-14.324219 1.390625-21.320313 1.667969l.007813.019531s-9.355469.570312-9.355469 7.980469v75.488281c0 72.523437 63.046875 130.253906 135.679688 120.917969-59.097656-7.660157-105.011719-59.144532-105.011719-120.914063zm0 0" fill="#f2ba88"/><path d="m310.097656 218.898438c-1.613281-4.644532-6.003906-7.765626-10.921875-7.765626-4.921875 0-9.3125 3.121094-10.925781 7.765626-1.402344 4.046874-5.820312 6.1875-9.867188 4.785156-4.042968-1.40625-6.1875-5.824219-4.78125-9.867188 3.773438-10.878906 14.050782-18.1875 25.574219-18.1875 11.519531 0 21.796875 7.308594 25.570313 18.1875 1.40625 4.042969-.734375 8.460938-4.78125 9.867188-4.027344 1.394531-8.457032-.71875-9.867188-4.785156zm0 0" fill="#634456"/><path d="m208.867188 219.335938c-1.667969-4.808594-6.214844-8.039063-11.3125-8.039063-5.09375 0-9.640626 3.230469-11.308594 8.039063-1.40625 4.046874-5.824219 6.1875-9.867188 4.785156-4.046875-1.40625-6.1875-5.824219-4.785156-9.867188 3.835938-11.042968 14.265625-18.464844 25.960938-18.464844 11.695312 0 22.128906 7.417969 25.960937 18.464844 1.40625 4.042969-.734375 8.460938-4.78125 9.867188-4.039063 1.398437-8.460937-.726563-9.867187-4.785156zm0 0" fill="#634456"/><path d="m248.363281 254.789062c-4.28125 0-7.753906-3.46875-7.753906-7.75v-13.097656c0-4.28125 3.472656-7.753906 7.753906-7.753906 4.285157 0 7.753907 3.472656 7.753907 7.753906v13.097656c0 4.28125-3.46875 7.75-7.753907 7.75zm0 0" fill="#f2ba88"/><path d="m274.226562 280.808594h-51.722656c-7.257812 0-12.335937 7.3125-9.664062 14.054687 12.722656 32.132813 58.332031 32.117188 71.050781 0 2.671875-6.742187-2.410156-14.054687-9.664063-14.054687zm0 0" fill="#634456"/><path d="m274.226562 280.808594h-25.226562c7.253906 0 12.335938 7.3125 9.664062 14.054687-4.0625 10.261719-12.453124 18.320313-22.910156 21.980469 19.601563 6.863281 40.679688-3.152344 48.136719-21.980469 2.671875-6.742187-2.410156-14.054687-9.664063-14.054687zm0 0" fill="#553346"/><path d="m273.59375 309.453125c-14.457031-12.738281-36.011719-12.726563-50.457031 0 14.457031 12.742187 36.011719 12.730469 50.457031 0zm0 0" fill="#ef4e57"/><path d="m249.96875 318.972656c11.765625-.492187 12.734375-19.066406-1.605469-19.066406-9.675781 0-18.496093 3.617188-25.226562 9.550781 7.257812 6.390625 16.734375 9.933594 26.832031 9.515625zm0 0" fill="#f6737e"/></svg>