<svg height="512pt" viewBox="0 -11 512 512" width="512pt" xmlns="http://www.w3.org/2000/svg"><path d="m421.613281 54.851562c-42.125-34.285156-95.863281-54.851562-154.410156-54.851562-135.199219 0-244.796875 109.601562-244.796875 244.796875 0 135.199219 109.597656 244.800781 244.796875 244.800781 58.550781 0 112.285156-20.566406 154.410156-54.855468zm0 0" fill="#587ecd"/><path d="m120.804688 116.109375h-89.324219c-17.386719 0-31.480469 14.09375-31.480469 31.480469v194.414062c0 17.386719 14.09375 31.484375 31.484375 31.484375h89.320313c17.386718 0 31.484374-14.097656 31.484374-31.484375v-194.414062c-.003906-17.386719-14.097656-31.480469-31.484374-31.480469zm0 0" fill="#eceeed"/><path d="m50.730469 342.003906v-194.414062c0-17.386719 14.09375-31.480469 31.484375-31.480469h-50.734375c-17.386719 0-31.480469 14.09375-31.480469 31.480469v194.414062c0 17.390625 14.09375 31.484375 31.484375 31.484375h50.730469c-17.386719 0-31.484375-14.097656-31.484375-31.484375zm0 0" fill="#d1d0d6"/><path d="m96.714844 93.503906c-2.945313-2.683594-3.160156-7.242187-.476563-10.1875l25.425781-27.9375c1.367188-1.503906 3.304688-2.359375 5.332032-2.359375h55.347656c3.984375 0 7.214844 3.226563 7.214844 7.210938s-3.230469 7.210937-7.214844 7.210937h-52.15625l-23.28125 25.582032c-2.683594 2.945312-7.242188 3.160156-10.191406.480468zm0 0" fill="#5091de"/><path d="m182.34375 436.574219h-55.347656c-2.027344 0-3.964844-.855469-5.332032-2.355469l-25.425781-27.941406c-2.683593-2.945313-2.46875-7.503906.480469-10.1875 2.941406-2.679688 7.503906-2.464844 10.1875.480468l23.28125 25.582032h52.15625c3.984375 0 7.214844 3.226562 7.214844 7.210937s-3.230469 7.210938-7.214844 7.210938zm0 0" fill="#5091de"/><path d="m76.152344 143.941406c-3.980469 0-7.214844-3.226562-7.214844-7.210937s3.222656-7.210938 7.207031-7.210938h.007813c3.984375 0 7.210937 3.226563 7.210937 7.210938s-3.226562 7.210937-7.210937 7.210937zm0 0" fill="#d1d0d6"/><path d="m419.613281 53.242188h-184.515625c-8.347656 0-15.175781 6.828124-15.175781 15.171874v352.769532c0 8.34375 6.828125 15.171875 15.175781 15.171875h184.515625c56.296875-44.851563 92.386719-113.984375 92.386719-191.558594 0-77.570313-36.089844-146.703125-92.386719-191.554687zm0 0" fill="#d0f2fc"/><path d="m251.140625 421.179688v-352.765626c0-8.34375 6.828125-15.175781 15.175781-15.175781h-31.21875c-8.34375 0-15.175781 6.828125-15.175781 15.175781v352.765626c0 8.347656 6.828125 15.175781 15.175781 15.175781h31.21875c-8.347656 0-15.175781-6.828125-15.175781-15.175781zm0 0" fill="#85d0f9"/><path d="m276.105469 94.6875h-17.753907c-3.984374 0-7.210937-3.226562-7.210937-7.210938 0-3.984374 3.226563-7.210937 7.210937-7.210937h17.753907c3.984375 0 7.210937 3.226563 7.210937 7.210937 0 3.984376-3.226562 7.210938-7.210937 7.210938zm0 0" fill="#85d0f9"/><path d="m304.3125 199.679688c-24.449219 0-44.335938-19.886719-44.335938-44.335938s19.886719-44.335938 44.335938-44.335938c5.308594 0 9.617188 4.304688 9.617188 9.613282 0 5.3125-4.308594 9.617187-9.617188 9.617187-13.84375 0-25.105469 11.261719-25.105469 25.105469s11.261719 25.105469 25.105469 25.105469c5.308594 0 9.617188 4.304687 9.617188 9.617187 0 5.308594-4.308594 9.613282-9.617188 9.613282zm0 0" fill="#5f6abb"/><path d="m304.3125 199.679688c-5.3125 0-9.617188-4.304688-9.617188-9.613282 0-5.3125 4.304688-9.617187 9.617188-9.617187 13.84375 0 25.105469-11.261719 25.105469-25.105469 0-5.3125 4.304687-9.617188 9.613281-9.617188 5.3125 0 9.617188 4.304688 9.617188 9.617188 0 24.449219-19.890626 44.335938-44.335938 44.335938zm0 0" fill="#fab94f"/><path d="m339.03125 164.960938c-5.308594 0-9.613281-4.304688-9.613281-9.617188 0-13.84375-11.261719-25.105469-25.105469-25.105469-5.3125 0-9.617188-4.304687-9.617188-9.617187 0-5.308594 4.304688-9.613282 9.617188-9.613282 24.445312 0 44.335938 19.886719 44.335938 44.335938 0 5.3125-4.304688 9.617188-9.617188 9.617188zm0 0" fill="#f79552"/><path d="m312.789062 377.410156c-3.1875-4.246094-2.335937-10.273437 1.910157-13.464844l34.644531-26.039062c4.242188-3.191406 10.269531-2.335938 13.460938 1.90625 3.191406 4.246094 2.339843 10.273438-1.90625 13.464844l-34.644532 26.042968c-4.242187 3.191407-10.273437 2.335938-13.464844-1.910156zm0 0" fill="#f79552"/><path d="m395.816406 274.535156c-3.980468 0-7.210937-3.230468-7.210937-7.214844v-18.238281c0-3.980469 3.230469-7.210937 7.210937-7.210937 3.984375 0 7.214844 3.226562 7.214844 7.210937v18.238281c0 3.984376-3.230469 7.214844-7.214844 7.214844zm0 0" fill="#5091de"/><path d="m469.761719 274.535156c-3.984375 0-7.210938-3.230468-7.210938-7.214844v-52.433593c0-3.984375 3.226563-7.210938 7.210938-7.210938s7.210937 3.226563 7.210937 7.210938v52.433593c0 3.984376-3.226562 7.214844-7.210937 7.214844zm0 0" fill="#85d0f9"/><path d="m445.113281 274.535156c-3.980469 0-7.210937-3.230468-7.210937-7.214844v-20.515624c0-3.984376 3.230468-7.214844 7.210937-7.214844 3.984375 0 7.210938 3.230468 7.210938 7.214844v20.515624c0 3.984376-3.226563 7.214844-7.210938 7.214844zm0 0" fill="#7dcf74"/><path d="m420.464844 274.535156c-3.980469 0-7.210938-3.230468-7.210938-7.214844v-29.636718c0-3.984375 3.230469-7.210938 7.210938-7.210938 3.984375 0 7.214844 3.226563 7.214844 7.210938v29.636718c0 3.984376-3.230469 7.214844-7.214844 7.214844zm0 0" fill="#fedc4c"/><g fill="#85d0f9"><path d="m467.355469 135.347656h-69.128907c-3.984374 0-7.214843-3.230468-7.214843-7.214844 0-3.984374 3.230469-7.210937 7.214843-7.210937h69.128907c3.984375 0 7.210937 3.226563 7.210937 7.210937 0 3.984376-3.226562 7.214844-7.210937 7.214844zm0 0"/><path d="m467.355469 159.992188h-69.128907c-3.984374 0-7.214843-3.226563-7.214843-7.210938 0-3.980469 3.230469-7.210938 7.214843-7.210938h69.128907c3.984375 0 7.210937 3.226563 7.210937 7.210938s-3.226562 7.210938-7.210937 7.210938zm0 0"/><path d="m467.355469 184.640625h-69.128907c-3.984374 0-7.214843-3.226563-7.214843-7.210937 0-3.984376 3.230469-7.210938 7.214843-7.210938h69.128907c3.984375 0 7.210937 3.226562 7.210937 7.210938 0 3.984374-3.226562 7.210937-7.210937 7.210937zm0 0"/><path d="m467.355469 350.148438h-69.128907c-3.984374 0-7.214843-3.230469-7.214843-7.214844 0-3.980469 3.230469-7.210938 7.214843-7.210938h69.128907c3.984375 0 7.210937 3.226563 7.210937 7.210938s-3.226562 7.214844-7.210937 7.214844zm0 0"/><path d="m467.355469 374.796875h-69.128907c-3.984374 0-7.214843-3.230469-7.214843-7.214844 0-3.980469 3.230469-7.210937 7.214843-7.210937h69.128907c3.984375 0 7.210937 3.226562 7.210937 7.210937s-3.226562 7.214844-7.210937 7.214844zm0 0"/><path d="m467.851562 385.046875c-.164062-.011719-.328124-.027344-.496093-.027344h-69.132813c-3.980468 0-7.210937 3.226563-7.210937 7.210938s3.230469 7.210937 7.210937 7.210937h58.738282c3.800781-4.65625 7.433593-9.460937 10.890624-14.394531zm0 0"/></g><path d="m395.816406 292.042969c-3.980468 0-7.210937-3.230469-7.210937-7.214844v-15.382813c0-3.984374 3.230469-7.210937 7.210937-7.210937 3.984375 0 7.214844 3.226563 7.214844 7.210937v15.382813c0 3.984375-3.230469 7.214844-7.214844 7.214844zm0 0" fill="#5f6abb"/><path d="m469.761719 292.042969c-3.984375 0-7.210938-3.230469-7.210938-7.214844v-44.230469c0-3.984375 3.226563-7.210937 7.210938-7.210937s7.210937 3.226562 7.210937 7.210937v44.230469c0 3.984375-3.226562 7.214844-7.210937 7.214844zm0 0" fill="#48a4ef"/><path d="m445.113281 292.042969c-3.980469 0-7.210937-3.230469-7.210937-7.214844v-17.304687c0-3.984376 3.230468-7.214844 7.210937-7.214844 3.984375 0 7.210938 3.230468 7.210938 7.214844v17.304687c0 3.984375-3.226563 7.214844-7.210938 7.214844zm0 0" fill="#6cb964"/><path d="m420.464844 292.042969c-3.980469 0-7.210938-3.230469-7.210938-7.214844v-25c0-3.980469 3.230469-7.210937 7.210938-7.210937 3.984375 0 7.214844 3.226562 7.214844 7.210937v25c0 3.984375-3.230469 7.214844-7.214844 7.214844zm0 0" fill="#fab94f"/><path d="m350.046875 242.746094h-69.132813c-3.984374 0-7.210937-3.226563-7.210937-7.210938 0-3.980468 3.226563-7.210937 7.210937-7.210937h69.132813c3.980469 0 7.210937 3.226562 7.210937 7.210937s-3.230468 7.210938-7.210937 7.210938zm0 0" fill="#85d0f9"/><path d="m350.046875 267.394531h-69.132813c-3.984374 0-7.210937-3.226562-7.210937-7.210937s3.226563-7.210938 7.210937-7.210938h69.132813c3.980469 0 7.210937 3.226563 7.210937 7.210938s-3.230468 7.210937-7.210937 7.210937zm0 0" fill="#85d0f9"/><path d="m350.046875 292.042969h-69.132813c-3.984374 0-7.210937-3.226563-7.210937-7.210938s3.226563-7.210937 7.210937-7.210937h69.132813c3.980469 0 7.210937 3.226562 7.210937 7.210937s-3.230468 7.210938-7.210937 7.210938zm0 0" fill="#85d0f9"/><path d="m316.824219 380.527344-19.492188-8.003906c-4.914062-2.019532-7.261719-7.636719-5.242187-12.546876 2.015625-4.914062 7.632812-7.257812 12.546875-5.242187l19.492187 8.003906c4.914063 2.019531 7.261719 7.632813 5.242188 12.546875-2.011719 4.90625-7.625 7.261719-12.546875 5.242188zm0 0" fill="#fab94f"/><path d="m266.308594 390.449219c-3.25-4.199219-2.476563-10.238281 1.722656-13.488281l27.070312-20.9375c4.199219-3.25 10.238282-2.480469 13.488282 1.722656 3.25 4.199218 2.476562 10.238281-1.722656 13.488281l-27.066407 20.9375c-4.203125 3.25-10.242187 2.476563-13.492187-1.722656zm0 0" fill="#5f6abb"/><path d="m304.3125 130.238281c5.308594 0 9.617188-4.304687 9.617188-9.617187 0-5.308594-4.308594-9.613282-9.617188-9.613282-24.449219 0-44.335938 19.890626-44.335938 44.335938h19.230469c0-13.839844 11.261719-25.105469 25.105469-25.105469zm0 0" fill="#5f6abb"/><path d="m129.882812 342.429688c0 4.757812-3.894531 8.652343-8.65625 8.652343h-90.167968c-4.761719 0-8.65625-3.894531-8.65625-8.652343v-195.265626c0-4.757812 3.894531-8.652343 8.652344-8.652343h14.085937c3.132813 0 5.671875 2.542969 5.671875 5.675781 0 5.96875 4.886719 10.855469 10.855469 10.855469h28.949219c5.972656 0 10.855468-4.886719 10.855468-10.855469 0-3.132812 2.539063-5.675781 5.675782-5.675781h14.082031c4.757812 0 8.652343 3.894531 8.652343 8.652343zm0 0" fill="#48a4ef"/><path d="m50.730469 342.003906v-194.414062c0-.898438.046875-1.785156.121093-2.660156-.015624-.246094-.039062-.492188-.039062-.742188 0-3.132812-2.539062-5.675781-5.671875-5.675781h-14.082031c-4.761719 0-8.652344 3.894531-8.652344 8.652343v195.265626c0 4.757812 3.894531 8.652343 8.652344 8.652343h21.007812c-.863281-2.875-1.335937-5.921875-1.335937-9.078125zm0 0" fill="#587ecd"/><path d="m79.722656 327.289062h-7.160156c-3.980469 0-7.210938-3.226562-7.210938-7.210937s3.230469-7.210937 7.210938-7.210937h7.160156c3.980469 0 7.210938 3.226562 7.210938 7.210937s-3.230469 7.210937-7.210938 7.210937zm0 0" fill="#85d0f9"/></svg>