<svg height="512pt" viewBox="0 -18 512 511" width="512pt" xmlns="http://www.w3.org/2000/svg"><path d="m474.789062 237.894531c0 131.109375-106.285156 237.394531-237.394531 237.394531s-237.394531-106.285156-237.394531-237.394531 106.285156-237.394531 237.394531-237.394531 237.394531 106.285156 237.394531 237.394531zm0 0" fill="#fab94f"/><path d="m215.753906 66.308594h-60.417968c-7.351563 0-13.320313-5.964844-13.320313-13.324219 0-7.355469 5.964844-13.324219 13.320313-13.324219h21.160156c7.292968 0 13.324218-5.921875 13.324218-13.320312 0-7.355469-5.96875-13.324219-13.324218-13.324219h-15.367188c-44.730468 15.167969-83.457031 43.308594-111.738281 79.9375h166.363281c7.292969 0 13.320313-5.921875 13.320313-13.324219 0-7.355468-5.964844-13.320312-13.320313-13.320312zm0 0" fill="#f9da9b"/><path d="m342.570312 378.558594c12.074219 0 21.863282-9.789063 21.863282-21.863282h-43.730469c0 12.074219 9.789063 21.863282 21.867187 21.863282zm0 0" fill="#5f6abb"/><path d="m340.039062 356.695312h-19.335937c0 12.074219 9.789063 21.867188 21.867187 21.867188 3.46875 0 6.75-.816406 9.664063-2.253906-7.222656-3.570313-12.195313-11.007813-12.195313-19.613282zm0 0" fill="#6757aa"/><path d="m402.121094 308.105469h-118.738282c-6.601562 0-12 5.402343-12 12v30.160156c0 6.601563 5.398438 12 12 12h118.738282c6.597656 0 12-5.398437 12-12v-30.160156c0-6.597657-5.398438-12-12-12zm0 0" fill="#5f6abb"/><path d="m320.703125 350.265625v-30.160156c0-6.597657 5.402344-12 12-12h-49.320313c-6.601562 0-12 5.398437-12 12v30.160156c0 6.597656 5.398438 12 12 12h49.320313c-6.597656 0-12-5.398437-12-12zm0 0" fill="#6757aa"/><path d="m283.382812 362.265625h118.738282c6.597656 0 12-5.398437 12-12v-15.078125h-142.738282v15.078125c0 6.601563 5.398438 12 12 12zm0 0" fill="#6757aa"/><path d="m271.382812 335.1875v15.078125c0 6.601563 5.398438 12 12 12h49.320313c-6.597656 0-12-5.398437-12-12v-15.078125zm0 0" fill="#584496"/><path d="m51.4375 105.015625v14.84375h50.507812l-25.292968-25.289063c-9.304688-9.304687-25.214844-2.714843-25.214844 10.445313zm0 0" fill="#5091de"/><path d="m498.765625 225.921875-81.859375-31.484375c-18.304688-7.039062-38.136719-9.183594-57.523438-6.210938-4.796874.738282-9.660156-.863281-13.136718-4.25l-57.933594-56.425781c-5.800781-5.644531-13.574219-8.804687-21.667969-8.804687h-234.609375c-20.363281 35.019531-32.035156 75.71875-32.035156 119.148437 0 18.164063 2.050781 35.851563 5.914062 52.847657.222657-.230469 3.441407-7.878907 12.460938-7.878907h103.820312c4.898438 0 9.421876 2.613281 11.871094 6.855469l18.816406 32.589844c1.78125 3.089844 5.078126 4.992187 8.644532 4.992187h89.800781c3.566406 0 6.859375-1.902343 8.644531-4.988281l18.816406-32.59375c2.449219-4.242188 6.972657-6.855469 11.871094-6.855469h103.820313c4.894531 0 9.421875 2.613281 11.867187 6.855469l18.964844 32.84375c1.691406 2.929688 4.820312 4.738281 8.207031 4.738281h15.835938c12.953125 0 25.515625-4.445312 35.585937-12.589843l15.390625-12.449219c7.378907-5.972657 11.667969-14.957031 11.667969-24.449219v-32.621094c0-8.542968-5.261719-16.203125-13.234375-19.269531zm0 0" fill="#48a4ef"/><path d="m51.4375 127.796875c0-3.605469 1.621094-6.847656 4.15625-9.050781h-23.558594c-20.363281 35.019531-32.035156 75.71875-32.035156 119.148437 0 18.167969 2.050781 35.851563 5.914062 52.847657.222657-.230469 3.441407-7.878907 12.460938-7.878907h33.0625zm0 0" fill="#5091de"/><path d="m181.375 149.441406h-164.332031c-10.984375 27.335938-17.042969 57.1875-17.042969 88.453125 0 18.164063 2.050781 35.851563 5.914062 52.847657.222657-.230469 3.441407-7.878907 12.460938-7.878907h103.820312c4.898438 0 9.421876 2.613281 11.871094 6.855469l18.816406 32.589844c1.78125 3.089844 5.078126 4.992187 8.644532 4.992187h28.179687v-169.527343c0-4.601563-3.730469-8.332032-8.332031-8.332032zm0 0" fill="#5091de"/><path d="m18.375 282.863281h33.0625v-133.421875h-34.394531c-11.253907 28.003906-17.042969 57.980469-17.042969 88.453125 0 18.167969 2.050781 35.851563 5.914062 52.847657.214844-.222657 3.441407-7.878907 12.460938-7.878907zm0 0" fill="#587ecd"/><path d="m509.53125 235.425781h-35.742188v46.042969h37.996094c.140625-1.207031.214844-2.425781.214844-3.65625v-32.621094c0-3.492187-.890625-6.824218-2.46875-9.765625zm0 0" fill="#d0f2fc"/><path d="m473.789062 258.449219v23.019531h37.996094c.140625-1.207031.214844-2.425781.214844-3.65625v-23.019531c0 1.226562-.074219 2.449219-.214844 3.65625zm0 0" fill="#85d0f9"/><path d="m474.789062 235.425781h-17.820312c-7.542969 0-13.714844 6.171875-13.714844 13.714844v18.613281c0 7.542969 6.171875 13.714844 13.714844 13.714844h17.820312zm0 0" fill="#fab94f"/><path d="m456.96875 281.46875h17.820312v-23.023438h-17.820312c-6.792969 0-12.457031-5.007812-13.519531-11.507812-.011719.097656-.195313 1.09375-.195313 2.203125v18.613281c0 7.542969 6.171875 13.714844 13.714844 13.714844zm0 0" fill="#f79552"/><path d="m138.769531 297.867188 14.113281 24.441406c1.78125 3.089844 5.078126 4.992187 8.644532 4.992187h89.800781c3.566406 0 6.863281-1.902343 8.644531-4.992187l14.113282-24.441406zm0 0" fill="#5f6abb"/><path d="m185.34375 149.441406h-129.539062c-2.410157 0-4.367188 1.953125-4.367188 4.363282v18.4375c0 .761718.199219 1.511718.582031 2.171874l17.007813 29.597657c.777344 1.355469 2.222656 2.191406 3.785156 2.191406h112.53125c2.410156 0 4.363281-1.953125 4.363281-4.363281v-48.035156c0-2.410157-1.953125-4.363282-4.363281-4.363282zm0 0" fill="#d0f2fc"/><path d="m342.84375 204.015625 9.417969-16.390625c-2.226563-.734375-4.292969-1.96875-6.015625-3.648438l-35.460938-34.535156h-84.257812c-2.410156 0-4.363282 1.953125-4.363282 4.363282v48.035156c0 2.410156 1.953126 4.363281 4.363282 4.363281h112.53125c1.5625 0 3.007812-.835937 3.785156-2.1875zm0 0" fill="#d0f2fc"/><path d="m123.175781 204.015625-17.007812-29.597656c-.378907-.664063-.578125-1.410157-.578125-2.175781v-18.4375c0-2.410157 1.953125-4.363282 4.363281-4.363282h-58.515625v22.800782c0 .761718.199219 1.511718.582031 2.175781l17.007813 29.597656c.777344 1.351563 2.222656 2.1875 3.785156 2.1875h54.148438c-1.5625 0-3.003907-.835937-3.785157-2.1875zm0 0" fill="#85d0f9"/><path d="m276.3125 201.839844v-48.035156c0-2.410157 1.953125-4.363282 4.367188-4.363282h-54.152344c-2.410156 0-4.363282 1.953125-4.363282 4.363282v48.035156c0 2.410156 1.953126 4.363281 4.363282 4.363281h54.152344c-2.414063 0-4.367188-1.953125-4.367188-4.363281zm0 0" fill="#85d0f9"/><path d="m254.195312 247.566406h-23.675781c-4.617187 0-8.355469-3.742187-8.355469-8.355468 0-4.613282 3.738282-8.355469 8.355469-8.355469h23.675781c4.613282 0 8.355469 3.742187 8.355469 8.355469 0 4.613281-3.742187 8.355468-8.355469 8.355468zm0 0" fill="#5091de"/><g fill="#feeabb"><path d="m342.753906 435.148438c-4.617187 0-8.355468-3.738282-8.355468-8.355469v-28.519531c0-4.613282 3.738281-8.351563 8.355468-8.351563 4.613282 0 8.351563 3.738281 8.351563 8.351563v28.519531c0 4.617187-3.738281 8.355469-8.351563 8.355469zm0 0"/><path d="m387.808594 435.148438c-4.613282 0-8.355469-3.738282-8.355469-8.355469v-28.519531c0-4.613282 3.742187-8.351563 8.355469-8.351563 4.613281 0 8.355468 3.738281 8.355468 8.351563v28.519531c0 4.617187-3.742187 8.355469-8.355468 8.355469zm0 0"/><path d="m297.695312 435.148438c-4.613281 0-8.355468-3.738282-8.355468-8.355469v-28.519531c0-4.613282 3.742187-8.351563 8.355468-8.351563 4.613282 0 8.355469 3.738281 8.355469 8.351563v28.519531c0 4.617187-3.742187 8.355469-8.355469 8.355469zm0 0"/><path d="m70.285156 389.921875c-4.460937 0-8.09375 3.496094-8.332031 7.894531 5.285156 5.792969 10.859375 11.320313 16.6875 16.570313v-16.113281c0-4.613282-3.742187-8.351563-8.355469-8.351563zm0 0"/><path d="m115.34375 435.148438c-4.617188 0-8.355469-3.738282-8.355469-8.355469v-28.519531c0-4.613282 3.738281-8.351563 8.355469-8.351563 4.613281 0 8.351562 3.738281 8.351562 8.351563v28.519531c0 4.617187-3.738281 8.355469-8.351562 8.355469zm0 0"/></g><path d="m406.351562 289.71875c-2.449218-4.242188-6.976562-6.855469-11.871093-6.855469h-103.820313c-4.898437 0-9.421875 2.613281-11.871094 6.855469l-11.257812 19.5h150.078125zm0 0" fill="#5091de"/><path d="m343.316406 282.863281h-52.65625c-4.898437 0-9.421875 2.613281-11.871094 6.855469l-11.257812 19.5h62.25l6.585938-19.5c1.433593-4.242188 4.082031-6.855469 6.949218-6.855469zm0 0" fill="#5f6abb"/><path d="m401.457031 66.320312h-56.320312c-7.359375 0-13.324219 5.964844-13.324219 13.324219 0 7.402344 6.03125 13.320313 13.324219 13.320313h45.304687c7.355469 0 13.320313 5.96875 13.320313 13.324218 0 7.300782-5.902344 13.320313-13.320313 13.320313h-14.5c-7.355468 0-13.324218 5.964844-13.324218 13.324219 0 7.371094 5.992187 13.332031 13.324218 13.332031h80.507813c-12.71875-30.367187-31.558594-57.53125-54.992188-79.945313zm0 0" fill="#f9da9b"/><path d="m70.296875 378.558594c12.074219 0 21.863281-9.789063 21.863281-21.863282h-43.726562c0 12.074219 9.789062 21.863282 21.863281 21.863282zm0 0" fill="#5f6abb"/><path d="m67.765625 356.695312h-19.332031c0 12.074219 9.789062 21.867188 21.863281 21.867188 3.472656 0 6.753906-.816406 9.667969-2.253906-7.226563-3.570313-12.199219-11.007813-12.199219-19.613282zm0 0" fill="#6757aa"/><path d="m129.847656 308.105469h-118.734375c-.183593 0-.363281.019531-.546875.027343 5.941406 19.203126 14.257813 37.355469 24.597656 54.132813h94.683594c6.601563 0 12.003906-5.398437 12.003906-12v-30.160156c-.003906-6.597657-5.402343-12-12.003906-12zm0 0" fill="#5f6abb"/><path d="m60.433594 308.105469h-49.320313c-.183593 0-.363281.019531-.546875.027343 5.941406 19.203126 14.257813 37.355469 24.597656 54.132813h25.269532c-6.601563 0-12-5.398437-12-12v-30.160156c0-6.597657 5.398437-12 12-12zm0 0" fill="#6757aa"/><path d="m35.164062 362.265625h94.683594c6.601563 0 12.003906-5.402344 12.003906-12v-15.082031h-121.058593c4.214843 9.367187 9.023437 18.40625 14.371093 27.082031zm0 0" fill="#6757aa"/><path d="m48.433594 350.265625v-15.082031h-27.640625c4.214843 9.367187 9.023437 18.40625 14.371093 27.082031h25.269532c-6.601563 0-12-5.398437-12-12zm0 0" fill="#584496"/><path d="m10.910156 309.21875h134.425782l-11.257813-19.5c-2.449219-4.242188-6.972656-6.855469-11.871094-6.855469h-103.820312c-8.855469 0-12.324219 7.742188-12.472657 7.894531 1.425782 6.253907 3.09375 12.410157 4.996094 18.460938zm0 0" fill="#587ecd"/><path d="m18.386719 282.863281c-8.855469 0-12.324219 7.742188-12.472657 7.894531 1.425782 6.25 3.09375 12.40625 4.996094 18.460938h46.597656l6.589844-19.5c1.429688-4.242188 4.078125-6.855469 6.945313-6.855469zm0 0" fill="#5f6abb"/></svg>