<svg height="512pt" viewBox="0 0 512 512" width="512pt" xmlns="http://www.w3.org/2000/svg"><path d="m512 256c0 141.386719-114.613281 256-256 256s-256-114.613281-256-256 114.613281-256 256-256 256 114.613281 256 256zm0 0" fill="#584496"/><path d="m210.496094 387.6875 203.289062-352.109375c6.550782-11.34375 2.664063-25.847656-8.679687-32.394531-11.34375-6.550782-25.847657-2.664063-32.398438 8.679687l-203.289062 352.105469zm0 0" fill="#48a4ef"/><path d="m268.964844 191.546875-99.546875 172.421875 41.078125 23.714844 98.1875-170.066406c-18.640625 10.070312-41.539063-4.46875-39.71875-26.070313zm0 0" fill="#5091de"/><path d="m212.867188 355.714844 188.007812-325.640625c2.820312-4.882813 1.148438-11.128907-3.734375-13.949219-4.886719-2.816406-11.128906-1.144531-13.949219 3.738281l-188.007812 325.640625c-3.945313 6.824219 1.039062 15.316406 8.832031 15.316406 3.53125 0 6.960937-1.832031 8.851563-5.105468zm0 0" fill="#85d0f9"/><path d="m273.777344 209.371094-78.59375 136.132812c-3.945313 6.832032 1.046875 15.316406 8.832031 15.316406 3.53125 0 6.960937-1.832031 8.851563-5.105468l78.125-135.3125c-7.09375-1.296875-13.21875-5.355469-17.214844-11.03125zm0 0" fill="#48a4ef"/><path d="m104.394531 462.28125c16.523438 12.164062 34.558594 22.390625 53.777344 30.34375l43.097656-74.640625-53.476562-30.875zm0 0" fill="#d1d0d6"/><path d="m142.53125 407.882812-9.078125-5.242187c-7.523437-4.34375-17.140625-1.765625-21.484375 5.757813-4.34375 7.523437-1.765625 17.140624 5.757812 21.484374l9.078126 5.238282zm0 0" fill="#48a4ef"/><path d="m125.152344 417.015625c-6.050782-3.492187-9.972656-8.535156-10.082032-12.441406-1.199218 1.078125-2.253906 2.351562-3.101562 3.824219-4.34375 7.523437-1.765625 17.140624 5.757812 21.484374l9.078126 5.242188 7.425781-12.867188zm0 0" fill="#5091de"/><path d="m104.394531 462.28125c8.285157 6.101562 16.949219 11.710938 25.953125 16.792969l44.183594-76.527344-26.738281-15.4375zm0 0" fill="#b5b2be"/><path d="m301.503906 387.6875-203.289062-352.109375c-6.550782-11.34375-2.664063-25.847656 8.679687-32.394531 11.34375-6.550782 25.847657-2.664063 32.398438 8.679687l203.289062 352.105469zm0 0" fill="#ef4e57"/><path d="m298.65625 355.714844-188.003906-325.640625c-2.820313-4.882813-1.148438-11.128907 3.734375-13.949219 4.886719-2.816406 11.128906-1.144531 13.949219 3.738281l188.007812 325.636719c3.941406 6.828125-1.039062 15.320312-8.832031 15.320312-3.53125 0-6.960938-1.832031-8.855469-5.105468zm0 0" fill="#f37254"/><path d="m364.207031 387.109375-53.476562 30.875 43.097656 74.640625c19.21875-7.953125 37.253906-18.179688 53.777344-30.34375zm0 0" fill="#b5b2be"/><path d="m369.46875 407.882812 9.078125-5.242187c7.523437-4.34375 17.140625-1.765625 21.484375 5.757813 4.34375 7.523437 1.765625 17.140624-5.757812 21.484374l-9.078126 5.238282zm0 0" fill="#ef4e57"/><path d="m386.164062 415.832031c5.996094-3.460937 12.234376-4.394531 15.65625-2.667969-2.125-10.578124-13.984374-15.886718-23.273437-10.523437l-9.078125 5.242187 7.617188 13.191407zm0 0" fill="#dd4351"/><path d="m285.769531 360.433594 41.078125-23.714844 23.128906 40.0625-41.074218 23.71875zm0 0" fill="#eceeed"/><path d="m285.769531 360.433594 20.539063-11.859375 23.132812 40.066406-20.539062 11.859375zm0 0" fill="#d1d0d6"/><path d="m285.785156 370.65625c1.730469 0 3.488282-.441406 5.097656-1.371094l41.078126-23.714844c4.882812-2.820312 6.554687-9.066406 3.734374-13.949218-2.816406-4.886719-9.0625-6.558594-13.949218-3.738282l-41.078125 23.71875c-4.882813 2.820313-6.554688 9.0625-3.734375 13.949219 1.890625 3.273438 5.324218 5.105469 8.851562 5.105469zm0 0" fill="#d1d0d6"/><path d="m299.191406 340.90625-18.519531 10.695312c-4.886719 2.820313-6.558594 9.0625-3.738281 13.949219 1.890625 3.273438 5.324218 5.105469 8.851562 5.105469 1.730469 0 3.488282-.441406 5.097656-1.371094l20.3125-11.726562c-9.136718 1.179687-16.035156-8.269532-12.003906-16.652344zm0 0" fill="#b5b2be"/><path d="m364.207031 387.109375-26.738281 15.4375 44.183594 76.527344c9.003906-5.082031 17.667968-10.695313 25.953125-16.792969zm0 0" fill="#d1d0d6"/><path d="m301.957031 423.746094 71.632813-41.355469c7.519531-4.34375 10.097656-13.960937 5.753906-21.484375-4.339844-7.523438-13.960938-10.101562-21.484375-5.757812l-71.632813 41.359374c-7.523437 4.339844-10.097656 13.960938-5.753906 21.484376 4.339844 7.523437 13.960938 10.097656 21.484375 5.753906zm0 0" fill="#d1d0d6"/><path d="m322.25 375.707031-36.023438 20.800781c-7.523437 4.339844-10.097656 13.960938-5.757812 21.484376 4.34375 7.523437 13.964844 10.101562 21.484375 5.753906l35.519531-20.503906c-15.125 1.878906-24.890625-15.679688-15.222656-27.535157zm0 0" fill="#b5b2be"/><path d="m162.011719 376.796875 23.132812-40.066406 41.074219 23.71875-23.132812 40.0625zm0 0" fill="#eceeed"/><path d="m162.011719 376.796875 23.132812-40.066406 20.539063 11.859375-23.132813 40.066406zm0 0" fill="#d1d0d6"/><path d="m176.3125 341.839844c.867188 1.5 2.125 2.800781 3.734375 3.730468l41.078125 23.714844c4.882812 2.820313 11.128906 1.148438 13.949219-3.734375 2.820312-4.886719 1.148437-11.128906-3.738281-13.949219l-41.078126-23.71875c-4.886718-2.820312-11.128906-1.144531-13.949218 3.738282-1.890625 3.277344-1.761719 7.164062.003906 10.21875zm0 0" fill="#d1d0d6"/><path d="m208.777344 338.574219-18.519532-10.691407c-4.886718-2.820312-11.128906-1.144531-13.949218 3.738282-1.890625 3.277344-1.761719 7.164062.003906 10.21875.867188 1.5 2.125 2.800781 3.734375 3.730468l20.3125 11.726563c-5.585937-7.320313-.855469-18.019531 8.417969-18.722656zm0 0" fill="#b5b2be"/><path d="m138.417969 382.390625 71.632812 41.355469c7.523438 4.34375 17.140625 1.765625 21.484375-5.757813 4.34375-7.519531 1.765625-17.140625-5.757812-21.484375l-71.628906-41.355468c-7.523438-4.34375-17.144532-1.765626-21.488282 5.757812s-1.765625 17.140625 5.757813 21.484375zm0 0" fill="#d1d0d6"/><path d="m190.171875 375.945312-36.023437-20.796874c-7.523438-4.34375-17.140626-1.765626-21.488282 5.757812-4.339844 7.523438-1.765625 17.140625 5.757813 21.484375l35.519531 20.507813c-9.191406-12.160157 1.128906-29.398438 16.234375-26.953126zm0 0" fill="#b5b2be"/></svg>