<svg height="512pt" viewBox="-5 0 512 512.00002" width="512pt" xmlns="http://www.w3.org/2000/svg"><path d="m502.203125 260.898438c0 138.679687-112.421875 251.101562-251.101563 251.101562-138.679687 0-251.101562-112.421875-251.101562-251.101562 0-138.679688 112.421875-251.101563 251.101562-251.101563 138.679688 0 251.101563 112.421875 251.101563 251.101563zm0 0" fill="#584496"/><path d="m49.90625 411.160156c45.792969 61.21875 118.867188 100.839844 201.195312 100.839844 81.820313 0 154.492188-39.144531 200.335938-99.714844-114.851562-62.957031-286.203125-63.21875-401.53125-1.125zm0 0" fill="#d1d0d6"/><path d="m218.503906 365.835938c-64.109375 4.046874-122.378906 20.441406-168.597656 45.324218 38.964844 52.089844 97.6875 88.539063 165.054688 98.25-59.15625-26.460937-57.394532-119.847656 3.542968-143.574218zm0 0" fill="#b5b2be"/><path d="m103.691406 211.9375h-1.476562v-1.476562c0-4.144532-3.359375-7.5-7.5-7.5-4.144532 0-7.5 3.355468-7.5 7.5v1.476562h-1.480469c-4.140625 0-7.5 3.359375-7.5 7.5 0 4.144531 3.359375 7.5 7.5 7.5h1.480469v1.476562c0 4.144532 3.355468 7.5 7.5 7.5 4.140625 0 7.5-3.355468 7.5-7.5v-1.476562h1.476562c4.140625 0 7.5-3.355469 7.5-7.5 0-4.140625-3.359375-7.5-7.5-7.5zm0 0" fill="#fab94f"/><path d="m387.066406 327.167969c-4.054687 0-7.5 3.269531-7.5 7.5s3.4375 7.5 7.5 7.5c4.058594 0 7.5-3.292969 7.5-7.5 0-4.21875-3.457031-7.5-7.5-7.5zm0 0" fill="#f9da9b"/><path d="m80.550781 154.71875c-4.078125 0-7.5 3.289062-7.5 7.5 0 4.226562 3.4375 7.5 7.5 7.5 4.097657 0 7.5-3.332031 7.5-7.5 0-4.210938-3.449219-7.5-7.5-7.5zm0 0" fill="#5f6abb"/><path d="m422.496094 280.335938c-7.914063 0-14.636719 6.382812-14.636719 14.640624 0 8.136719 6.585937 14.636719 14.636719 14.636719 7.921875 0 14.636718-6.429687 14.636718-14.636719 0-8.195312-6.699218-14.640624-14.636718-14.640624zm0 0" fill="#f79552"/><path d="m446.910156 159.332031v-3.601562c0-23.953125-19.488281-43.441407-43.441406-43.441407-14.824219 0-26.886719-12.058593-26.886719-26.886718v-3.597656c0-12.300782 8.304688-22.691407 19.597657-25.875-5.269532-3.738282-10.699219-7.269532-16.261719-10.601563-22.921875 14.839844-19.597657 38.882813-19.890625 40.074219 0 23.957031 19.488281 43.441406 43.441406 43.441406 14.824219 0 26.886719 12.0625 26.886719 26.886719v3.601562c0 14.824219-12.0625 26.886719-26.886719 26.886719h-57.351562c-4.570313 0-8.277344 3.707031-8.277344 8.277344 0 4.570312 3.707031 8.277344 8.277344 8.277344h57.351562c23.953125 0 43.441406-19.488282 43.441406-43.441407zm0 0" fill="#d0f2fc"/><path d="m389.949219 126.679688c-5.125-5.351563-2.46875-14.175782 4.640625-15.90625-10.476563-3.675782-18.007813-13.65625-18.007813-25.371094v-3.601563c0-12.296875 8.304688-22.6875 19.597657-25.871093-5.269532-3.738282-10.699219-7.273438-16.261719-10.601563-22.921875 14.835937-19.597657 38.882813-19.890625 40.074219 0 19.234375 12.570312 35.578125 29.921875 41.277344zm0 0" fill="#85d0f9"/><path d="m402.496094 186.21875h-56.378906c-4.570313 0-8.277344 3.707031-8.277344 8.277344 0 4.570312 3.707031 8.277344 8.277344 8.277344h53.8125c-5.957032-4.601563-4.539063-13.964844 2.566406-16.554688zm0 0" fill="#85d0f9"/><path d="m314.324219 58.503906c-94.242188 0-67 0-127.308594 0-9.386719 0-17.066406 7.679688-17.066406 17.066406v44.496094c1.066406-.164062 2.15625-.246094 3.269531-.246094h154.90625c1.109375 0 2.203125.082032 3.269531.246094v-44.496094c0-9.386718-7.679687-17.066406-17.070312-17.066406zm0 0" fill="#5f6abb"/><path d="m328.125 119.820312c1.109375 0 2.203125.082032 3.269531.246094v-.246094c-1.066406 0-2.15625 0-3.269531 0zm0 0" fill="#5f6abb"/><path d="m194.980469 75.570312c0-9.386718 7.679687-17.066406 17.070312-17.066406-6.363281 0-14.3125 0-25.035156 0-9.386719 0-17.066406 7.679688-17.066406 17.066406v44.496094c1.066406-.164062 2.15625-.246094 3.269531-.246094h21.761719zm0 0" fill="#6757aa"/><path d="m174.265625 117.730469h21.757813v94.136719c-22.042969 9.613281-43.519532 3.4375-43.519532 3.4375v-75.8125c0-12.019532 9.742188-21.761719 21.761719-21.761719zm0 0" fill="#d1d0d6"/><path d="m196.023438 211.867188v88.347656c0 12.019531-9.742188 21.761718-21.757813 21.761718-12.019531 0-21.761719-9.742187-21.761719-21.761718v-84.910156s21.476563 6.175781 43.519532-3.4375zm0 0" fill="#b5b2be"/><path d="m174.265625 321.976562c-12.019531 0-21.761719-9.742187-21.761719-21.761718v-72.679688s21.476563-6.175781 43.519532 3.4375v69.242188c0 12.019531-9.742188 21.761718-21.757813 21.761718zm0 0" fill="#d1d0d6"/><path d="m196.023438 286.878906v13.335938c0 12.019531-9.742188 21.761718-21.757813 21.761718-12.019531 0-21.761719-9.742187-21.761719-21.761718v-13.335938zm0 0" fill="#b5b2be"/><path d="m327.078125 117.730469h-21.761719v94.136719c22.042969 9.613281 43.523438 3.4375 43.523438 3.4375v-75.8125c0-12.019532-9.742188-21.761719-21.761719-21.761719zm0 0" fill="#dfdee4"/><path d="m305.316406 211.867188v88.347656c0 12.019531 9.746094 21.761718 21.761719 21.761718 12.019531 0 21.761719-9.742187 21.761719-21.761718v-84.910156s-21.480469 6.175781-43.523438-3.4375zm0 0" fill="#d1d0d6"/><path d="m327.078125 321.976562c12.019531 0 21.761719-9.742187 21.761719-21.761718v-72.679688s-21.480469-6.175781-43.523438 3.4375v69.242188c0 12.019531 9.746094 21.761718 21.761719 21.761718zm0 0" fill="#dfdee4"/><path d="m305.316406 286.878906v13.335938c0 12.019531 9.746094 21.761718 21.761719 21.761718 12.019531 0 21.761719-9.742187 21.761719-21.761718v-13.335938zm0 0" fill="#d1d0d6"/><path d="m194.980469 117.730469v306.847656h43.523437v-127.691406c0-6.273438 4.492188-11.820313 10.707032-12.6875 7.34375-1.023438 13.628906 4.648437 13.628906 11.792969v128.585937h43.523437c0-14.195313 0-265.679687 0-306.847656-25.746093 0-85.449219 0-111.382812 0zm0 0" fill="#eceeed"/><path d="m219.234375 117.730469c-9.453125 0-17.878906 0-24.253906 0v306.847656h24.253906c0-44.871094 0-293.238281 0-306.847656zm0 0" fill="#d1d0d6"/><path d="m306.363281 425.285156v-.707031h-43.523437v49.324219h73.183594c-.757813-2.628906 4.535156-21.617188-19.199219-32.605469-6.296875-2.914063-10.460938-9.070313-10.460938-16.011719zm0 0" fill="#dbdadf"/><path d="m287.082031 425.285156v-.707031h-24.242187v49.324219h40.761718c-.429687-2.679688 2.496094-21.640625-10.691406-32.605469-3.507812-2.914063-5.828125-9.070313-5.828125-16.011719zm0 0" fill="#b5b2be"/><path d="m194.980469 425.285156v-.707031h43.523437v49.324219h-73.183594c.753907-2.628906-4.535156-21.617188 19.195313-32.605469 6.300781-2.914063 10.464844-9.070313 10.464844-16.011719zm0 0" fill="#dbdadf"/><g fill="#b5b2be"><path d="m214.601562 441.296875c2.789063-2.914063 4.632813-9.070313 4.632813-16.011719v-.707031h-24.253906v.707031c0 6.941406-4.164063 13.097656-10.464844 16.011719-23.738281 10.988281-18.445313 29.992187-19.195313 32.605469h40.78125c.335938-2.625-2-21.625 8.5-32.605469zm0 0"/><path d="m337.96875 481.738281h-74.082031c-4.328125 0-7.835938-3.507812-7.835938-7.835937s3.507813-7.835938 7.835938-7.835938h74.082031c4.328125 0 7.835938 3.507813 7.835938 7.835938s-3.507813 7.835937-7.835938 7.835937zm0 0"/><path d="m237.457031 481.738281h-74.402343c-4.328126 0-7.835938-3.507812-7.835938-7.835937s3.507812-7.835938 7.835938-7.835938h74.402343c4.328125 0 7.835938 3.507813 7.835938 7.835938s-3.507813 7.835937-7.835938 7.835937zm0 0"/></g><path d="m275.25 172.152344h-49.15625c-2.410156 0-4.367188 1.953125-4.367188 4.367187v29.632813c0 2.414062 1.957032 4.367187 4.367188 4.367187h49.15625c2.410156 0 4.367188-1.957031 4.367188-4.367187v-29.632813c0-2.414062-1.957032-4.367187-4.367188-4.367187zm0 0" fill="#48a4ef"/><path d="m250.671875 206.152344v-29.632813c0-2.414062 1.957031-4.367187 4.367187-4.367187h-28.945312c-2.410156 0-4.367188 1.953125-4.367188 4.367187v29.632813c0 2.414062 1.957032 4.367187 4.367188 4.367187h28.945312c-2.410156 0-4.367187-1.953125-4.367187-4.367187zm0 0" fill="#328be0"/><path d="m271.78125 157.261719h-9.039062c-4.328126 0-7.835938-3.507813-7.835938-7.835938s3.507812-7.835937 7.835938-7.835937h9.039062c4.328125 0 7.835938 3.507812 7.835938 7.835937 0 4.324219-3.507813 7.835938-7.835938 7.835938zm0 0" fill="#dfdee4"/><path d="m164.996094 172.152344h-13.539063v-26.113282h13.539063c7.214844 0 13.058594 5.84375 13.058594 13.054688s-5.84375 13.058594-13.058594 13.058594zm0 0" fill="#f79552"/><path d="m335.300781 172.152344h13.539063v-26.113282h-13.539063c-7.210937 0-13.058593 5.84375-13.058593 13.054688s5.847656 13.058594 13.058593 13.058594zm0 0" fill="#ef4e57"/><path d="m309.605469 58.503906c0 32.308594-26.195313 70.109375-58.503907 70.109375-32.308593 0-58.503906-37.800781-58.503906-70.109375 0-32.3125 26.195313-58.503906 58.503906-58.503906 32.308594 0 58.503907 26.191406 58.503907 58.503906zm0 0" fill="#eceeed"/><path d="m234.597656 58.503906c0-27.914062 12.535156-51.246094 29.300782-57.082031-4.121094-.921875-8.398438-1.421875-12.796876-1.421875-32.308593 0-58.503906 26.191406-58.503906 58.503906 0 32.308594 26.195313 70.109375 58.503906 70.109375 4.394532 0 8.679688-.707031 12.796876-1.996093-16.765626-8.195313-29.300782-40.199219-29.300782-68.113282zm0 0" fill="#dfdee4"/><path d="m281.683594 8.628906c-8.902344-5.472656-19.371094-8.628906-30.582032-8.628906-11.210937 0-21.679687 3.15625-30.582031 8.628906 8.902344 7.289063 19.371094 11.84375 30.582031 11.84375 11.210938 0 21.683594-4.554687 30.582032-11.84375zm0 0" fill="#dfdee4"/><path d="m243.960938 19.839844c5.144531-9.097656 12.078124-15.683594 19.9375-18.417969-4.304688-.960937-8.707032-1.421875-12.796876-1.421875-17.414062 0-28.355468 7.65625-30.582031 8.628906 6.980469 5.714844 14.929688 9.738282 23.441407 11.210938zm0 0" fill="#d1d0d6"/><path d="m286.472656 52.710938c-.101562-2.261719-1.953125-4.050782-4.214844-4.050782h-64.40625c-2.261718 0-4.113281 1.789063-4.214843 4.050782-.042969.992187-.066407 2-.066407 3.011718 0 12.847656 3.480469 24.570313 9.207032 33.476563.78125 1.210937 2.121094 1.941406 3.558594 1.941406h47.4375c1.441406 0 2.78125-.730469 3.558593-1.941406 5.726563-8.90625 9.207031-20.628907 9.207031-33.476563 0-1.011718-.023437-2.019531-.066406-3.011718zm0 0" fill="#85d0f9"/><path d="m242.917969 89.199219c-5.726563-8.90625-9.210938-20.628907-9.210938-33.476563 0-1.011718.023438-2.019531.066407-3.011718.101562-2.261719 1.953124-4.050782 4.21875-4.050782h-20.140626c-2.261718 0-4.113281 1.789063-4.214843 4.050782-.042969.992187-.066407 2-.066407 3.011718 0 12.847656 3.480469 24.570313 9.207032 33.476563.78125 1.210937 2.117187 1.941406 3.558594 1.941406h20.140624c-1.441406 0-2.78125-.730469-3.558593-1.941406zm0 0" fill="#48a4ef"/><path d="m266.644531 284.199219h-14.148437c5.835937.769531 10.34375 5.746093 10.34375 11.792969v128.585937h24.253906v-119.929687c0-11.292969-9.15625-20.449219-20.449219-20.449219zm0 0" fill="#d1d0d6"/></svg>