<svg height="512pt" viewBox="-8 0 511 512" width="512pt" xmlns="http://www.w3.org/2000/svg"><path d="m495.457031 264.519531c0 136.679688-110.800781 247.480469-247.476562 247.480469-136.679688 0-247.480469-110.800781-247.480469-247.480469 0-136.675781 110.800781-247.476562 247.480469-247.476562 136.675781 0 247.476562 110.800781 247.476562 247.476562zm0 0" fill="#587ecd"/><path d="m104.269531 466.015625c40.515625 28.949219 90.121094 45.984375 143.710938 45.984375 53.585937 0 103.195312-17.035156 143.707031-45.984375zm0 0" fill="#6757aa"/><path d="m237.261719 466.015625h-132.992188c37.335938 26.675781 82.394531 43.222656 131.171875 45.660156-29.046875-1.9375-27.644531-45.660156 1.820313-45.660156zm0 0" fill="#584496"/><path d="m142.007812 87.984375c17.660157 0 17.660157-12.238281 35.320313-12.238281s17.660156 12.238281 35.316406 12.238281c17.660157 0 17.660157-12.238281 35.320313-12.238281s17.660156 12.238281 35.320312 12.238281 17.660156-12.238281 35.324219-12.238281c17.660156 0 17.660156 12.238281 35.324219 12.238281 16.570312 0 17.609375-10.761719 32.257812-12.089844-29.070312-45.628906-80.101562-75.894531-138.210937-75.894531s-109.144531 30.265625-138.214844 75.894531c14.632813 1.335938 15.675781 12.089844 32.242187 12.089844zm0 0" fill="#a2e0fc"/><path d="m109.765625 75.894531c14.074219 1.285157 15.585937 11.273438 30.410156 12.035157 22.699219-49.320313 66.839844-83.859376 118.347657-87.582032-3.488282-.222656-7-.347656-10.542969-.347656-57.679688 0-108.921875 29.921875-138.214844 75.894531zm0 0" fill="#85d0f9"/><path d="m384.832031 73.804688c-15.453125.851562-16.101562 11.960937-32.785156 11.960937-17.347656 0-17.347656-12.019531-34.695313-12.019531-17.347656 0-17.347656 12.019531-34.695312 12.019531-17.34375 0-17.34375-12.019531-34.691406-12.019531s-17.347656 12.019531-34.691406 12.019531-17.34375-12.019531-34.6875-12.019531c-17.347657 0-17.347657 12.019531-34.695313 12.019531-16.675781 0-17.328125-11.101563-32.765625-11.960937-17.007812 25.820312-26.914062 56.734374-26.914062 89.964843v172.628907h113.183593c4.226563 0 8.070313 2.449218 9.859375 6.277343l8.746094 18.757813h64l9.515625-19.523438c1.640625-3.375 5.066406-5.511718 8.820313-5.511718h113.410156v-172.632813c0-33.230469-9.90625-64.140625-26.914063-89.960937zm0 0" fill="#48a4ef"/><path d="m123.839844 163.769531c0-28.289062 6.308594-54.894531 17.402344-78.109375-14.140626-1.109375-15.542969-11.042968-30.117188-11.855468-18.007812 27.339843-26.902344 58.578124-26.914062 89.910156v.050781 172.632813h39.628906zm0 0" fill="#328be0"/><path d="m247.980469 368.644531c-4.148438 0-7.511719-3.363281-7.511719-7.511719v-71.386718c0-4.148438 3.363281-7.511719 7.511719-7.511719 4.148437 0 7.507812 3.363281 7.507812 7.511719v71.386718c0 4.148438-3.359375 7.511719-7.507812 7.511719zm0 0" fill="#85d0f9"/><path d="m197.394531 334.394531h-113.183593v27.039063h132.722656l-9.683594-20.761719c-1.785156-3.828125-5.628906-6.277344-9.855469-6.277344zm0 0" fill="#eceeed"/><path d="m84.210938 334.394531h39.667968v27.039063h-39.667968zm0 0" fill="#dfdee4"/><path d="m298.335938 334.394531c-3.753907 0-7.179688 2.140625-8.820313 5.511719l-10.492187 21.527344h132.722656v-27.039063zm0 0" fill="#eceeed"/><path d="m339.703125 334.394531h-41.367187c-3.753907 0-7.179688 2.140625-8.824219 5.511719l-10.488281 21.527344h41.367187l10.492187-21.527344c1.644532-3.371094 5.066407-5.511719 8.820313-5.511719zm0 0" fill="#dfdee4"/><g fill="#85d0f9"><path d="m306.914062 318.539062c-4.148437 0-7.511718-3.363281-7.511718-7.511718v-16.023438c0-4.148437 3.363281-7.511718 7.511718-7.511718 4.148438 0 7.511719 3.363281 7.511719 7.511718v16.023438c0 4.148437-3.363281 7.511718-7.511719 7.511718zm0 0"/><path d="m383.925781 318.539062c-4.148437 0-7.511719-3.363281-7.511719-7.511718v-46.066406c0-4.148438 3.363282-7.511719 7.511719-7.511719 4.148438 0 7.511719 3.363281 7.511719 7.511719v46.066406c0 4.148437-3.363281 7.511718-7.511719 7.511718zm0 0"/><path d="m358.253906 318.539062c-4.148437 0-7.511718-3.363281-7.511718-7.511718v-18.023438c0-4.148437 3.363281-7.511718 7.511718-7.511718 4.148438 0 7.511719 3.363281 7.511719 7.511718v18.023438c0 4.148437-3.363281 7.511718-7.511719 7.511718zm0 0"/><path d="m332.585938 318.539062c-4.148438 0-7.511719-3.363281-7.511719-7.511718v-26.039063c0-4.144531 3.363281-7.507812 7.511719-7.507812 4.148437 0 7.511718 3.363281 7.511718 7.507812v26.039063c0 4.148437-3.363281 7.511718-7.511718 7.511718zm0 0"/></g><path d="m140.601562 317.308594c-8.273437 0-16.117187-3.148438-22.09375-8.859375-3-2.867188-3.109374-7.621094-.242187-10.621094s7.621094-3.105469 10.621094-.238281c3.167969 3.027344 7.328125 4.695312 11.710937 4.695312 9.351563 0 16.960938-7.609375 16.960938-16.960937 0-4.148438 3.363281-7.511719 7.511718-7.511719 4.148438 0 7.511719 3.363281 7.511719 7.511719 0 17.636719-14.347656 31.984375-31.980469 31.984375zm0 0" fill="#a2e0fc"/><path d="m165.070312 292.835938c-4.148437 0-7.511718-3.363282-7.511718-7.511719 0-9.351563-7.609375-16.960938-16.960938-16.960938-4.148437 0-7.507812-3.363281-7.507812-7.511719 0-4.148437 3.359375-7.511718 7.507812-7.511718 17.636719 0 31.984375 14.347656 31.984375 31.984375 0 4.148437-3.363281 7.511719-7.511719 7.511719zm0 0" fill="#d0f2fc"/><path d="m268.648438 234.207031c-.589844-1.480469-2.214844-2.285156-3.765626-1.90625-4.082031.996094-11.558593 1.625-16.285156-5.164062-.394531-.566407-.617187-1.238281-.617187-1.925781 0 .6875-.226563 1.359374-.621094 1.925781-4.726563 6.789062-12.203125 6.160156-16.285156 5.164062-1.546875-.378906-3.171875.425781-3.761719 1.90625-.730469 1.832031-1.683594 3.25-2.769531 4.347657 3.464843 9.59375 12.648437 16.453124 23.4375 16.453124 10.785156 0 19.972656-6.859374 23.433593-16.453124-1.085937-1.097657-2.035156-2.515626-2.765624-4.347657zm0 0" fill="#ef4e57"/><path d="m246.339844 240.105469c0-4.125 1.675781-7.859375 4.386718-10.554688-.75-.679687-1.46875-1.46875-2.128906-2.417969-.394531-.566406-.617187-1.234374-.617187-1.925781 0 .691407-.222657 1.359375-.617188 1.925781-4.726562 6.792969-12.207031 6.164063-16.285156 5.167969-1.550781-.378906-3.175781.425781-3.765625 1.90625-.730469 1.832031-1.679688 3.246094-2.769531 4.347657 3.464843 9.59375 12.648437 16.449218 23.4375 16.449218 2.613281 0 5.128906-.410156 7.496093-1.15625-5.367187-2.25-9.136718-7.554687-9.136718-13.742187zm0 0" fill="#dd4351"/><path d="m247.980469 255.007812c-7.984375 0-15.082031-3.765624-19.640625-9.605468h-.007813c5.777344 12.625 11.191407 30.28125 11.191407 44.050781 0 1.84375 1.496093 3.335937 3.335937 3.335937h10.238281c1.84375 0 3.335938-1.492187 3.335938-3.335937 0-13.769531 5.414062-31.425781 11.191406-44.050781h-.007812c-4.558594 5.839844-11.65625 9.605468-19.636719 9.605468zm0 0" fill="#f2606a"/><path d="m249.421875 289.453125c0-10.613281-2.085937-23.527344-4.753906-34.675781-6.617188-.878906-12.410157-4.355469-16.328125-9.375h-.007813c5.777344 12.625 11.195313 30.28125 11.195313 44.050781 0 1.84375 1.492187 3.335937 3.332031 3.335937h8.722656c-1.191406-.003906-2.160156-1.492187-2.160156-3.335937zm0 0" fill="#ef4e57"/><path d="m228.332031 245.402344h.007813c0 .003906.003906.007812.007812.007812-1.605468-2.050781-2.902344-4.359375-3.804687-6.855468-5.386719 5.433593-14.1875 2.847656-16.804688 1.90625-.496093-.179688-1.019531-.242188-1.542969-.175782-1.523437.203125-5.125.554688-9.53125.117188-.214843 1.292968-.328124 2.621094-.328124 3.972656 0 13.46875 10.917968 24.386719 24.386718 24.386719 5.4375 0 10.460938-1.785157 14.515625-4.792969-1.957031-6.652344-4.398437-13.082031-6.90625-18.566406zm0 0" fill="#f2606a"/><path d="m289.765625 240.285156c-.523437-.066406-1.050781-.003906-1.546875.175782-2.617188.941406-11.417969 3.527343-16.804688-1.90625-.898437 2.496093-2.195312 4.804687-3.800781 6.855468 0 0 .003907-.003906.003907-.007812h.007812c-2.507812 5.484375-4.949219 11.914062-6.90625 18.566406 4.054688 3.007812 9.078125 4.789062 14.515625 4.789062 13.46875 0 24.386719-10.917968 24.386719-24.386718 0-1.351563-.113282-2.675782-.324219-3.96875-4.40625.4375-8.007813.085937-9.53125-.117188zm0 0" fill="#f6737e"/><path d="m425.980469 387.472656h-356.003907c-7.464843 0-13.519531-6.054687-13.519531-13.519531 0-7.46875 6.054688-13.519531 13.519531-13.519531h356.003907c7.464843 0 13.519531 6.050781 13.519531 13.519531 0 7.464844-6.054688 13.519531-13.519531 13.519531zm0 0" fill="#dfdee4"/><path d="m110.710938 373.953125c0-7.46875 6.050781-13.519531 13.519531-13.519531h-54.25c-7.46875 0-13.519531 6.050781-13.519531 13.519531 0 7.464844 6.050781 13.519531 13.519531 13.519531h54.25c-7.46875 0-13.519531-6.054687-13.519531-13.519531zm0 0" fill="#d1d0d6"/><path d="m123.695312 310.53125c-1.867187 0-3.734374-.691406-5.1875-2.082031-6.378906-6.09375-9.890624-14.304688-9.890624-23.125 0-17.636719 14.347656-31.984375 31.980468-31.984375 4.148438 0 7.511719 3.363281 7.511719 7.511718 0 4.148438-3.363281 7.511719-7.511719 7.511719-9.351562 0-16.957031 7.609375-16.957031 16.960938 0 4.675781 1.863281 9.03125 5.242187 12.265625 3 2.863281 3.109376 7.621094.242188 10.617187-1.472656 1.546875-3.449219 2.324219-5.429688 2.324219zm0 0" fill="#85d0f9"/><path d="m140.5625 302.28125c-4.371094-.007812-8.515625-1.671875-11.675781-4.691406-3-2.867188-7.753907-2.757813-10.621094.238281-2.867187 3-2.757813 7.753906.242187 10.621094 5.964844 5.703125 13.796876 8.847656 22.054688 8.855469zm0 0" fill="#a2e0fc"/><path d="m323.507812 197.667969c-.324218-.589844-.441406-1.265625-.375-1.9375 1.011719-10.320313-3.074218-16.773438-4.9375-19.128907-.535156-.675781-.757812-1.550781-.65625-2.410156.871094-7.28125-3.335937-11.464844-5.261718-12.96875-.597656-.464844-1.015625-1.117187-1.203125-1.855468-4.660157-18.273438-20.269531-22.902344-24.4375-23.824219-.640625-.140625-1.226563-.457031-1.660157-.945313-5.851562-6.484375-13.902343-4.714844-16.789062-3.789062-.703125.222656-1.464844.199218-2.148438-.074219-6.71875-2.699219-13.136718-.433594-16.195312 1.042969-1.144531.550781-1.867188 1.703125-1.867188 2.972656v90.945312c0 .695313.226563 1.367188.625 1.9375 4.75 6.824219 12.265626 6.195313 16.367188 5.191407 1.558594-.378907 3.1875.429687 3.785156 1.917969 4.363282 10.960937 16.507813 7.425781 19.671875 6.285156.496094-.179688 1.027344-.246094 1.550781-.171875 4.1875.558593 23.949219 2.234375 33.3125-14.183594 7.679688-13.460937 2.019532-25.730469.21875-29.003906zm0 0" fill="#f98591"/><path d="m295.886719 173.570312c.121093-.210937.253906-.414062.359375-.636718.167968-.355469 4.304687-8.667969 18.089844-4.484375.960937.289062 1.933593.375 2.875.289062-1.015626-3.976562-3.558594-6.4375-4.933594-7.515625-.597656-.464844-1.015625-1.117187-1.207032-1.855468-.679687-2.667969-1.597656-5.035157-2.671874-7.152344-8.949219-.308594-15.621094 2.964844-20.066407 6.886718-2.515625-2.058593-4.808593-2.988281-5.375-3.199218-3.910156-1.445313-8.253906.546875-9.703125 4.457031-1.445312 3.910156.546875 8.253906 4.457032 9.703125.769531.285156 4.511718 2.050781 2.609374 8.894531-1.117187 4.019531 1.234376 8.179688 5.253907 9.296875.675781.1875 1.355469.277344 2.023437.277344 3.304688 0 6.339844-2.1875 7.269532-5.53125.988281-3.554688 1.234374-6.683594 1.019531-9.429688zm0 0" fill="#f6737e"/><path d="m262.535156 188.988281c-.527344.011719-5.316406.15625-11.007812 1.871094-1.230469.375-2.410156.796875-3.546875 1.265625v17.84375c4.507812-5.382812 14.664062-5.875 14.894531-5.882812 4.152344-.101563 7.445312-3.542969 7.363281-7.703126-.085937-4.167968-3.554687-7.5-7.703125-7.394531zm0 0" fill="#f6737e"/><path d="m172.449219 197.667969c.324219-.589844.441406-1.265625.375-1.9375-1.007813-10.320313 3.074219-16.773438 4.9375-19.128907.535156-.675781.761719-1.550781.65625-2.410156-.871094-7.28125 3.339843-11.464844 5.261719-12.96875.597656-.464844 1.015624-1.117187 1.207031-1.855468 4.65625-18.273438 20.269531-22.902344 24.433593-23.824219.640626-.140625 1.226563-.457031 1.664063-.945313 5.851563-6.484375 13.898437-4.714844 16.785156-3.789062.703125.222656 1.464844.199218 2.148438-.074219 6.722656-2.699219 13.140625-.433594 16.199219 1.042969 1.144531.550781 1.863281 1.703125 1.863281 2.972656v90.945312c0 .695313-.226563 1.367188-.621094 1.9375-4.75 6.824219-12.265625 6.195313-16.367187 5.191407-1.558594-.378907-3.191407.429687-3.785157 1.917969-4.367187 10.960937-16.507812 7.425781-19.671875 6.285156-.5-.179688-1.027344-.246094-1.550781-.171875-4.1875.558593-23.953125 2.234375-33.3125-14.183594-7.683594-13.460937-2.023437-25.730469-.222656-29.003906zm0 0" fill="#f6737e"/><path d="m200.070312 173.570312c-.121093-.210937-.253906-.414062-.359374-.636718-.167969-.355469-4.304688-8.667969-18.089844-4.484375-.960938.289062-1.933594.375-2.875.289062 1.015625-3.976562 3.558594-6.4375 4.933594-7.515625.597656-.464844 1.015624-1.117187 1.207031-1.855468.679687-2.667969 1.597656-5.035157 2.671875-7.152344 8.949218-.308594 15.621094 2.964844 20.066406 6.886718 2.515625-2.058593 4.808594-2.988281 5.375-3.199218 3.910156-1.445313 8.253906.546875 9.703125 4.457031 1.445313 3.910156-.550781 8.253906-4.457031 9.703125-.769532.285156-4.511719 2.050781-2.609375 8.894531 1.117187 4.019531-1.234375 8.179688-5.253907 9.296875-.675781.1875-1.355468.277344-2.023437.277344-3.304687 0-6.339844-2.1875-7.269531-5.53125-.988282-3.554688-1.234375-6.683594-1.019532-9.429688zm0 0" fill="#f2606a"/><path d="m233.421875 188.988281c.527344.011719 5.316406.15625 11.007813 1.871094 1.230468.375 2.414062.796875 3.550781 1.265625v17.84375c-4.511719-5.382812-14.667969-5.875-14.894531-5.882812-4.15625-.101563-7.449219-3.542969-7.367188-7.703126.085938-4.167968 3.554688-7.5 7.703125-7.394531zm0 0" fill="#f2606a"/><path d="m456.140625 395.878906c0-5.195312-4.210937-9.410156-9.410156-9.410156h-397.503907c-5.199218 0-9.410156 4.214844-9.410156 9.410156v2.527344c17.519532 27.183594 40.21875 50.699219 66.699219 69.183594h282.925781c26.480469-18.484375 49.183594-42 66.703125-69.183594v-2.527344zm0 0" fill="#5f6abb"/><path d="m119.121094 386.46875h-69.894532c-5.199218 0-9.410156 4.214844-9.410156 9.410156v2.527344c17.519532 27.183594 40.21875 50.699219 66.699219 69.183594h12.605469zm0 0" fill="#6757aa"/><path d="m107.390625 420.257812c-3.734375-6.464843-12.003906-8.679687-18.46875-4.949218-6.46875 3.734375-8.683594 12.003906-4.949219 18.46875 3.734375 6.46875 12 8.683594 18.46875 4.949218 6.464844-3.734374 8.679688-12 4.949219-18.46875zm0 0" fill="#a2e0fc"/><path d="m95.683594 427.027344c-2.5-4.328125-2.320313-9.464844.007812-13.507813-2.300781-.003906-4.632812.570313-6.765625 1.800781-6.46875 3.734376-8.683593 12.003907-4.949219 18.46875 3.730469 6.464844 12 8.683594 18.464844 4.949219 2.136719-1.234375 3.796875-2.96875 4.945313-4.960937-4.664063-.003906-9.203125-2.417969-11.703125-6.75zm0 0" fill="#85d0f9"/><path d="m183.535156 420.257812c-3.734375-6.464843-12.003906-8.679687-18.46875-4.945312-6.46875 3.730469-8.683594 12-4.949218 18.464844 3.734374 6.46875 12.003906 8.683594 18.46875 4.949218 6.464843-3.734374 8.683593-12 4.949218-18.46875zm0 0" fill="#a2e0fc"/><path d="m171.832031 427.027344c-2.503906-4.328125-2.320312-9.464844.003907-13.507813-2.300782-.003906-4.628907.570313-6.765626 1.800781-6.464843 3.734376-8.679687 12.003907-4.949218 18.46875 3.734375 6.464844 12.003906 8.683594 18.46875 4.949219 2.136718-1.234375 3.796875-2.96875 4.941406-4.960937-4.664062-.003906-9.199219-2.417969-11.699219-6.75zm0 0" fill="#85d0f9"/><path d="m259.679688 420.257812c-3.734376-6.464843-12-8.679687-18.46875-4.945312-6.464844 3.730469-8.679688 12-4.945313 18.464844 3.730469 6.46875 12 8.683594 18.464844 4.949218 6.46875-3.734374 8.683593-12 4.949219-18.46875zm0 0" fill="#a2e0fc"/><path d="m247.980469 427.027344c-2.503907-4.328125-2.324219-9.464844.003906-13.507813-2.300781-.003906-4.628906.570313-6.765625 1.800781-6.464844 3.734376-8.683594 12.003907-4.949219 18.46875 3.734375 6.464844 12.003907 8.683594 18.46875 4.949219 2.132813-1.234375 3.792969-2.96875 4.941407-4.960937-4.664063-.003906-9.199219-2.417969-11.699219-6.75zm0 0" fill="#85d0f9"/><path d="m335.824219 420.257812c-3.730469-6.464843-12-8.679687-18.46875-4.945312-6.464844 3.730469-8.679688 12-4.945313 18.464844 3.730469 6.46875 12 8.683594 18.46875 4.949218 6.464844-3.734374 8.679688-12 4.945313-18.46875zm0 0" fill="#a2e0fc"/><path d="m324.125 427.027344c-2.5-4.328125-2.320312-9.464844.007812-13.507813-2.300781-.003906-4.632812.570313-6.765624 1.800781-6.46875 3.734376-8.683594 12.003907-4.949219 18.46875 3.730469 6.464844 12 8.683594 18.46875 4.949219 2.132812-1.234375 3.792969-2.96875 4.941406-4.960937-4.664063-.003906-9.199219-2.417969-11.703125-6.75zm0 0" fill="#85d0f9"/><path d="m411.972656 420.257812c-3.734375-6.464843-12.003906-8.679687-18.46875-4.949218-6.46875 3.734375-8.683594 12.003906-4.949218 18.46875 3.734374 6.46875 12.003906 8.683594 18.46875 4.949218 6.464843-3.734374 8.679687-12 4.949218-18.46875zm0 0" fill="#a2e0fc"/><path d="m400.273438 427.027344c-2.5-4.328125-2.320313-9.464844.007812-13.507813-2.300781-.003906-4.632812.570313-6.765625 1.800781-6.46875 3.734376-8.683594 12.003907-4.949219 18.46875 3.730469 6.464844 12 8.683594 18.464844 4.949219 2.136719-1.234375 3.796875-2.96875 4.945312-4.960937-4.664062-.003906-9.203124-2.417969-11.703124-6.75zm0 0" fill="#85d0f9"/><path d="m302.996094 34.597656c0 6.902344-5.597656 12.5-12.5 12.5-6.90625 0-12.5-5.597656-12.5-12.5s5.59375-12.5 12.5-12.5c6.902344 0 12.5 5.597656 12.5 12.5zm0 0" fill="#d0f2fc"/><path d="m273.550781 44.992188c0 3.847656-3.121093 6.964843-6.964843 6.964843s-6.964844-3.117187-6.964844-6.964843c0-3.84375 3.121094-6.960938 6.964844-6.960938s6.964843 3.117188 6.964843 6.960938zm0 0" fill="#d0f2fc"/></svg>