<svg height="512pt" viewBox="0 0 512 512" width="512pt" xmlns="http://www.w3.org/2000/svg"><path d="m512 256c0 141.386719-114.613281 256-256 256s-256-114.613281-256-256 114.613281-256 256-256 256 114.613281 256 256zm0 0" fill="#587ecd"/><path d="m325.074219 124.789062c-100.613281 0-71.527344 0-135.914063 0-10.023437 0-18.222656 8.199219-18.222656 18.222657v47.503906c1.140625-.171875 2.304688-.261719 3.492188-.261719h165.378906c1.183594 0 2.351562.089844 3.492187.261719v-47.503906c0-10.023438-8.203125-18.222657-18.226562-18.222657zm0 0" fill="#5f6abb"/><path d="m197.660156 143.011719c0-10.023438 8.203125-18.222657 18.226563-18.222657-6.792969 0-15.277344 0-26.726563 0-10.023437 0-18.222656 8.199219-18.222656 18.222657v47.503906c1.140625-.171875 2.304688-.261719 3.492188-.261719h23.230468zm0 0" fill="#6757aa"/><path d="m339.808594 190.253906c1.183594 0 2.351562.089844 3.492187.261719v-.261719c-1.140625 0-2.304687 0-3.492187 0zm0 0" fill="#6757aa"/><path d="m419.15625 349.425781-57.230469-57.234375v-80.9375c0-12.832031-10.402343-23.234375-23.234375-23.234375h-23.230468v113.796875.003906c0 6.375 2.613281 12.234376 6.800781 16.421876h.003906l64.035156 64.039062c9.070313 9.070312 23.785157 9.074219 32.855469 0 9.074219-9.070312 9.074219-23.78125 0-32.855469zm0 0" fill="#d1d0d6"/><path d="m330.25 326.230469 56.050781 56.050781c9.070313 9.074219 23.785157 9.074219 32.855469 0 9.074219-9.070312 9.074219-23.78125 0-32.855469l-57.234375-57.234375c.003906 0-24.894531 9.605469-31.671875 34.039063zm0 0" fill="#dfdee4"/><path d="m338.691406 188.019531h-23.230468v100.503907c23.53125 10.261718 46.464843 3.667968 46.464843 3.667968v-80.9375c0-12.832031-10.402343-23.234375-23.234375-23.234375zm0 0" fill="#dfdee4"/><path d="m419.15625 349.425781-14.570312-14.570312-32.855469 32.855469 14.574219 14.570312c9.070312 9.070312 23.78125 9.074219 32.851562 0 9.074219-9.070312 9.074219-23.78125 0-32.855469zm0 0" fill="#d1d0d6"/><path d="m347.46875 246.121094h14.453125v-27.878906h-14.453125c-7.699219 0-13.941406 6.242187-13.941406 13.941406 0 7.699218 6.242187 13.9375 13.941406 13.9375zm0 0" fill="#ef4e57"/><path d="m95.078125 349.425781 57.234375-57.234375v-80.9375c0-12.832031 10.402344-23.234375 23.234375-23.234375h23.230469v113.796875.003906c0 6.375-2.613282 12.234376-6.800782 16.421876l-64.039062 64.039062c-9.074219 9.074219-23.785156 9.074219-32.859375 0-9.070313-9.070312-9.070313-23.78125 0-32.855469zm0 0" fill="#b5b2be"/><path d="m183.984375 326.230469-56.050781 56.050781c-9.070313 9.074219-23.78125 9.074219-32.855469 0-9.070313-9.070312-9.070313-23.78125 0-32.855469l57.234375-57.234375s24.898438 9.605469 31.671875 34.039063zm0 0" fill="#d1d0d6"/><path d="m175.546875 188.019531h23.230469v100.503907c-23.53125 10.261718-46.464844 3.667968-46.464844 3.667968v-80.9375c0-12.832031 10.402344-23.234375 23.234375-23.234375zm0 0" fill="#d1d0d6"/><path d="m95.078125 349.425781 14.574219-14.570312 32.855468 32.855469-14.570312 14.570312c-9.074219 9.070312-23.785156 9.074219-32.859375 0-9.070313-9.070312-9.070313-23.78125 0-32.855469zm0 0" fill="#b5b2be"/><path d="m166.769531 246.121094h-14.457031v-27.878906h14.457031c7.699219 0 13.9375 6.242187 13.9375 13.941406 0 7.699218-6.238281 13.9375-13.9375 13.9375zm0 0" fill="#f79552"/><path d="m496.320312 188.160156h-116.960937c-8.625 0-15.679687-7.058594-15.679687-15.683594v-116.957031c0-8.625 7.058593-15.679687 15.679687-15.679687h116.960937c8.625 0 15.679688 7.054687 15.679688 15.679687v116.957031c0 8.625-7.058594 15.683594-15.679688 15.683594zm0 0" fill="#f79552"/><path d="m414.78125 172.476562v-116.957031c0-8.625 7.054688-15.679687 15.679688-15.679687h-51.101563c-8.625 0-15.679687 7.054687-15.679687 15.679687v116.957031c0 8.625 7.058593 15.683594 15.679687 15.683594h51.101563c-8.625 0-15.679688-7.058594-15.679688-15.683594zm0 0" fill="#f58453"/><path d="m404.53125 78.417969h-9.652344c-4.621094 0-8.363281-3.746094-8.363281-8.367188 0-4.621093 3.746094-8.367187 8.363281-8.367187h9.652344c4.617188 0 8.363281 3.746094 8.363281 8.367187 0 4.621094-3.742187 8.367188-8.363281 8.367188zm0 0" fill="#fedc4c"/><path d="m84.390625 324.367188-16.199219-16.488282c-1.535156-1.5625-2.398437-3.667968-2.398437-5.863281v-37.648437c0-4.621094 3.746093-8.367188 8.367187-8.367188s8.367188 3.746094 8.367188 8.367188v34.226562l13.796875 14.046875c3.238281 3.296875 3.191406 8.59375-.105469 11.832031-3.292969 3.238282-8.589844 3.191406-11.828125-.105468zm0 0" fill="#5091de"/><path d="m74.160156 240.6875c-4.621094 0-8.367187-3.746094-8.367187-8.367188v-13.9375c0-4.621093 3.746093-8.367187 8.367187-8.367187s8.367188 3.746094 8.367188 8.367187v13.9375c0 4.621094-3.746094 8.367188-8.367188 8.367188zm0 0" fill="#5091de"/><path d="m132.640625 188.160156h-116.957031c-8.625 0-15.683594-7.058594-15.683594-15.683594v-116.957031c0-8.625 7.058594-15.679687 15.683594-15.679687h116.957031c8.625 0 15.679687 7.054687 15.679687 15.679687v116.957031c0 8.625-7.054687 15.683594-15.679687 15.683594zm0 0" fill="#48a4ef"/><path d="m51.101562 172.476562v-116.957031c0-8.625 7.054688-15.679687 15.679688-15.679687h-51.097656c-8.625 0-15.683594 7.054687-15.683594 15.679687v116.957031c0 8.625 7.058594 15.683594 15.683594 15.683594h51.097656c-8.625 0-15.679688-7.058594-15.679688-15.683594zm0 0" fill="#328be0"/><path d="m40.851562 78.417969h-9.652343c-4.617188 0-8.363281-3.746094-8.363281-8.367188 0-4.621093 3.746093-8.367187 8.363281-8.367187h9.652343c4.621094 0 8.367188 3.746094 8.367188 8.367187 0 4.621094-3.746094 8.367188-8.367188 8.367188zm0 0" fill="#a2e0fc"/><path d="m415.265625 324.472656c-3.296875-3.234375-3.34375-8.535156-.105469-11.828125l13.800782-14.050781v-34.226562c0-4.621094 3.742187-8.367188 8.363281-8.367188 4.621093 0 8.367187 3.746094 8.367187 8.367188v37.648437c0 2.195313-.863281 4.300781-2.398437 5.863281l-16.195313 16.488282c-3.238281 3.296874-8.535156 3.34375-11.832031.105468zm0 0" fill="#5091de"/><path d="m437.324219 240.6875c-4.617188 0-8.363281-3.746094-8.363281-8.367188v-13.9375c0-4.621093 3.746093-8.367187 8.363281-8.367187 4.621093 0 8.367187 3.746094 8.367187 8.367187v13.9375c0 4.621094-3.746094 8.367188-8.367187 8.367188zm0 0" fill="#5091de"/><g fill="#fab94f"><path d="m394.4375 163.804688c-4.621094 0-8.367188-3.746094-8.367188-8.367188v-17.847656c0-4.621094 3.746094-8.367188 8.367188-8.367188 4.617188 0 8.363281 3.746094 8.363281 8.367188v17.847656c0 4.621094-3.746093 8.367188-8.363281 8.367188zm0 0"/><path d="m480.214844 163.804688c-4.617188 0-8.363282-3.746094-8.363282-8.367188v-51.3125c0-4.621094 3.746094-8.363281 8.363282-8.363281 4.621094 0 8.367187 3.742187 8.367187 8.363281v51.3125c0 4.621094-3.746093 8.367188-8.367187 8.367188zm0 0"/><path d="m451.621094 163.804688c-4.617188 0-8.363282-3.746094-8.363282-8.367188v-20.078125c0-4.621094 3.746094-8.367187 8.363282-8.367187 4.621094 0 8.367187 3.746093 8.367187 8.367187v20.078125c0 4.621094-3.746093 8.367188-8.367187 8.367188zm0 0"/><path d="m423.027344 163.804688c-4.621094 0-8.363282-3.746094-8.363282-8.367188v-29.003906c0-4.621094 3.746094-8.363282 8.363282-8.363282 4.621094 0 8.367187 3.742188 8.367187 8.363282v29.003906c0 4.621094-3.746093 8.367188-8.367187 8.367188zm0 0"/></g><path d="m74.859375 165.136719c-4.621094 0-8.363281-3.742188-8.363281-8.363281 0-11.429688-9.300782-20.730469-20.730469-20.730469-4.621094 0-8.367187-3.746094-8.367187-8.367188 0-4.621093 3.746093-8.363281 8.367187-8.363281 20.65625 0 37.460937 16.804688 37.460937 37.460938 0 4.621093-3.746093 8.363281-8.367187 8.363281zm0 0" fill="#a2e0fc"/><path d="m102.554688 165.136719c-4.617188 0-8.363282-3.742188-8.363282-8.363281 0-26.703126-21.722656-48.425782-48.425781-48.425782-4.621094 0-8.367187-3.746094-8.367187-8.367187 0-4.621094 3.746093-8.367188 8.367187-8.367188 35.925781 0 65.15625 29.230469 65.15625 65.160157 0 4.621093-3.746094 8.363281-8.367187 8.363281zm0 0" fill="#d0f2fc"/><path d="m45.761719 165.140625c-4.601563 0-8.363281-3.757813-8.363281-8.363281 0-5.4375 5.015624-9.214844 10.003906-8.210938 3.984375.828125 6.726562 4.265625 6.726562 8.210938 0 4.601562-3.761718 8.363281-8.367187 8.363281zm0 0" fill="#85d0f9"/><path d="m197.660156 505.316406c15.023438 3.5 30.558594 5.671875 46.464844 6.398438v-132.425782c0-6.695312 4.800781-12.617187 11.433594-13.542968 7.839844-1.097656 14.550781 4.964844 14.550781 12.589844v133.273437c15.921875-.867187 31.449219-3.195313 46.464844-6.839844 0-4.96875 0-315.496093 0-316.75-27.484375 0-91.222657 0-118.914063 0zm0 0" fill="#eceeed"/><path d="m226.214844 210.867188c0-12.617188 10.230468-22.847657 22.847656-22.847657-20.007812 0-39.203125 0-51.402344 0v317.296875c9.332032 2.175782 18.863282 3.835938 28.554688 4.957032 0-13.246094 0-286.476563 0-299.40625zm0 0" fill="#dfdee4"/><path d="m283.359375 246.121094h-52.480469c-2.574218 0-4.664062 2.089844-4.664062 4.664062v31.636719c0 2.574219 2.089844 4.664063 4.664062 4.664063h52.480469c2.574219 0 4.664063-2.089844 4.664063-4.664063v-31.636719c-.003907-2.574218-2.089844-4.664062-4.664063-4.664062zm0 0" fill="#48a4ef"/><path d="m257.117188 282.421875v-31.636719c0-2.574218 2.089843-4.664062 4.664062-4.664062h-30.902344c-2.574218 0-4.664062 2.089844-4.664062 4.664062v31.636719c0 2.574219 2.089844 4.664063 4.664062 4.664063h30.902344c-2.574219 0-4.664062-2.089844-4.664062-4.664063zm0 0" fill="#328be0"/><path d="m319.578125 124.789062c0 34.496094-27.964844 74.847657-62.460937 74.847657-34.492188 0-62.457032-40.351563-62.457032-74.847657 0-34.492187 27.964844-62.457031 62.457032-62.457031 34.496093 0 62.460937 27.964844 62.460937 62.457031zm0 0" fill="#eceeed"/><path d="m239.5 124.789062c0-29.800781 13.382812-54.707031 31.28125-60.941406-4.398438-.980468-8.96875-1.515625-13.664062-1.515625-34.496094 0-62.457032 27.964844-62.457032 62.457031 0 34.496094 27.960938 74.847657 62.457032 74.847657 4.695312 0 9.265624-.75 13.664062-2.128907-17.898438-8.746093-31.28125-42.917968-31.28125-72.71875zm0 0" fill="#dfdee4"/><path d="m289.765625 71.539062c-9.5-5.835937-20.675781-9.207031-32.648437-9.207031-11.96875 0-23.144532 3.371094-32.644532 9.207031 20.410156 16.730469 44.566406 16.988282 65.292969 0zm0 0" fill="#dfdee4"/><path d="m249.496094 83.515625c5.492187-9.714844 12.890625-16.742187 21.285156-19.667969-4.5625-1.019531-9.261719-1.515625-13.664062-1.515625-11.71875 0-22.40625 3.121094-32.644532 9.210938 7.449219 6.105469 15.9375 10.398437 25.023438 11.972656zm0 0" fill="#d1d0d6"/><path d="m294.878906 118.605469c-.105468-2.414063-2.082031-4.320313-4.5-4.320313h-68.757812c-2.414063 0-4.394532 1.90625-4.5 4.320313-.601563 13.617187 2.5625 27.761719 9.761718 38.953125.828126 1.292968 2.261719 2.074218 3.796876 2.074218h50.640624c1.539063 0 2.96875-.78125 3.800782-2.074218 6.113281-9.503906 9.832031-22.019532 9.832031-35.738282-.003906-1.082031-.027344-2.152343-.074219-3.214843zm0 0" fill="#85d0f9"/><path d="m248.378906 157.558594c-7.199218-11.191406-10.359375-25.335938-9.757812-38.953125.105468-2.414063 2.082031-4.320313 4.5-4.320313h-21.5c-2.417969 0-4.394532 1.90625-4.5 4.320313-.601563 13.617187 2.558594 27.761719 9.757812 38.953125.832032 1.292968 2.261719 2.074218 3.800782 2.074218h21.5c-1.539063 0-2.96875-.78125-3.800782-2.074218zm0 0" fill="#48a4ef"/><path d="m279.65625 230.222656h-9.652344c-4.617187 0-8.363281-3.746094-8.363281-8.367187 0-4.617188 3.746094-8.363281 8.363281-8.363281h9.652344c4.621094 0 8.363281 3.746093 8.363281 8.363281 0 4.621093-3.742187 8.367187-8.363281 8.367187zm0 0" fill="#dfdee4"/><path d="m276.226562 365.746094h-17.160156c6.230469.820312 11.042969 6.132812 11.042969 12.589844v133.273437c9.773437-.53125 19.394531-1.621094 28.839844-3.21875v-119.921875c0-12.550781-10.171875-22.722656-22.722657-22.722656zm0 0" fill="#dfdee4"/></svg>