<svg height="512pt" viewBox="0 0 512 512" width="512pt" xmlns="http://www.w3.org/2000/svg"><path d="m512 256c0 141.386719-114.613281 256-256 256s-256-114.613281-256-256 114.613281-256 256-256 256 114.613281 256 256zm0 0" fill="#7dcf74"/><path d="m265.054688 39.78125c-4.527344-6.039062-13.582032-6.039062-18.109376 0l-51.191406 68.25h120.488282zm0 0" fill="#6757aa"/><path d="m260.15625 36.054688c-4.53125-1.78125-10.003906-.550782-13.210938 3.726562l-51.191406 68.25h41.097656l21.269532-68.25c.546875-1.761719 1.257812-2.996094 2.035156-3.726562zm0 0" fill="#584496"/><path d="m333.828125 357.554688c-2.839844-8.421876-11.921875-6.730469-12.644531-6.90625-2.902344 0-5.257813-2.355469-5.257813-5.257813v94.984375l71.316407-15.347656c-24.808594-15.496094-43.914063-39.292969-53.414063-67.472656zm0 0" fill="#5f6abb"/><path d="m178.171875 357.554688c2.839844-8.421876 11.921875-6.730469 12.644531-6.90625 2.902344 0 5.257813-2.355469 5.257813-5.257813v94.984375l-71.316407-15.347656c24.808594-15.496094 43.914063-39.292969 53.414063-67.472656zm0 0" fill="#5f6abb"/><path d="m62.09375 205.496094c-21.964844 0-42.496094 6.25-59.917969 17.0625-1.429687 10.945312-2.175781 22.105468-2.175781 33.441406 0 68.734375 27.09375 131.132812 71.175781 177.121094 58.625-4.640625 104.914063-53.832032 104.914063-113.632813 0-62.855469-51.140625-113.992187-113.996094-113.992187zm0 0" fill="#eceeed"/><path d="m40.15625 362.855469c-36.011719-50.339844-25.082031-120.285157 24.070312-157.332031-.710937-.011719-1.417968-.027344-2.132812-.027344-21.964844 0-42.496094 6.25-59.917969 17.0625-1.429687 10.945312-2.175781 22.105468-2.175781 33.441406 0 68.734375 27.09375 131.132812 71.175781 177.121094 22.234375-1.761719 42.691407-9.933594 59.523438-22.660156-34.765625-.703126-68.800781-17.210938-90.542969-47.605469zm0 0" fill="#dfdee4"/><path d="m62.09375 239.144531c-24.820312 0-47.046875 11.320313-61.796875 29.066407 2.238281 47.640624 17.5 91.867187 42.304687 129.21875 50.855469 12.722656 99.835938-25.988282 99.835938-77.941407 0-44.300781-36.042969-80.34375-80.34375-80.34375zm0 0" fill="#48a4ef"/><path d="m40.15625 362.855469c-25.421875-35.535157-27.445312-80.835938-9.152344-117.441407-11.988281 5.050782-22.503906 12.929688-30.707031 22.796876 2.125 45.164062 16.203125 89.96875 42.3125 129.222656 12.089844 3.023437 24.941406 3.277344 37.773437.277344-15.507812-8.015626-29.394531-19.710938-40.226562-34.855469zm0 0" fill="#587ecd"/><path d="m335.910156 319.488281c0 59.800781 46.289063 108.992188 104.914063 113.632813 44.082031-45.988282 71.175781-108.386719 71.175781-177.121094 0-11.335938-.746094-22.496094-2.175781-33.441406-75.03125-46.554688-173.914063 7.273437-173.914063 96.929687zm0 0" fill="#eceeed"/><path d="m404.175781 295.164062c0-36.335937 17.085938-68.753906 43.644531-89.640624-61.894531 1.113281-111.910156 51.804687-111.910156 113.964843 0 59.800781 46.289063 108.988281 104.914063 113.632813 10.390625-10.839844 19.820312-22.597656 28.191406-35.128906-38.316406-18.386719-64.839844-57.566407-64.839844-102.828126zm0 0" fill="#d1d0d6"/><path d="m449.90625 239.144531c-44.304688 0-80.34375 36.042969-80.34375 80.34375 0 52 49.03125 90.652344 99.835938 77.941407 24.804687-37.351563 40.066406-81.578126 42.304687-129.21875-14.75-17.746094-36.972656-29.066407-61.796875-29.066407zm0 0" fill="#48a4ef"/><path d="m468.371094 397.671875c-37.96875-18.519531-64.195313-57.5-64.195313-102.507813 0-17.097656 3.785157-33.324218 10.558594-47.894531-26.722656 13.070313-45.171875 40.527344-45.171875 72.21875 0 51.472657 48.15625 90.15625 98.808594 78.183594zm0 0" fill="#587ecd"/><path d="m116.316406 298.683594c-2.136718-.875-4.527344-.925782-6.699218-.148438l-25.3125 9.082032 11.953124-25.320313c27.121094-11.542969 26.75-10.78125 28.816407-12.601563-4.09375-5.171874-8.808594-9.828124-14.035157-13.855468l-25.316406 10.601562c-2.128906.890625-3.855468 2.539063-4.839844 4.628906l-11.585937 24.546876-9.347656-22.804688c11.417969-32.242188 11.324219-30.679688 11.472656-33.109375-3.0625-.355469-6.167969-.558594-9.324219-.558594-3.449218 0-6.835937.246094-10.171875.667969l-10.78125 30.066406c-.78125 2.175782-.726562 4.5625.148438 6.699219l8.488281 20.722656-22.210938-9.300781c-14.667968-30.765625-13.679687-29.679688-15.273437-31.492188-4.394531 3.484376-8.417969 7.417969-12 11.730469.105469 2.210938.234375 4.414063.394531 6.609375l11.507813 24.378906c.984375 2.089844 2.710937 3.738282 4.839843 4.628907l20.65625 8.652343-22.28125 9.125-7.617187-2.734374c1.886719 7.472656 4.109375 14.8125 6.640625 22.003906 4.21875.550781 5.386719-1.230469 25.464844-9.097656l-9.296875 22.207031-9.285157 4.382812c2.5 5.726563 5.207032 11.34375 8.105469 16.84375l12.402344-5.851562c2.089844-.988281 3.742187-2.714844 4.632813-4.84375l8.53125-20.375 9.246093 25.773437c-10.996093 27.304688-11.300781 26.527344-11.46875 29.332032 6.699219.777343 12.882813.75 19.710938-.132813l10.417969-25.429687c.875-2.140626.925781-4.527344.148437-6.699219l-9.078125-25.3125 25.316406 11.949219c11.566406 27.160156 10.761719 26.71875 12.609375 28.820312 5.167969-4.097656 9.820313-8.808594 13.847657-14.035156l-10.601563-25.316406c-.890625-2.128907-2.539063-3.855469-4.628906-4.839844l-24.320313-11.480469 26.355469-9.453125 26.34375 10.796875c.980469.398437 1.988281.613281 2.988281.671875.351563-3.058594.554688-6.167969.554688-9.324219 0-3.519531-.25-6.980469-.691406-10.382812zm-50.804687 28.6875c-.027344.0625-.046875.125-.074219.1875-2.015625-.773438-4.304688-.863282-6.5-.078125-.0625.023437-.121094.054687-.183594.078125-.910156-2.039063-2.539062-3.753906-4.726562-4.726563.796875-2.082031.855468-4.449219 0-6.683593 2.039062-.910157 3.753906-2.550782 4.726562-4.742188 1.0625.40625 2.1875.644531 3.34375.644531 1.113282 0 2.242188-.207031 3.339844-.628906.878906 1.972656 2.433594 3.65625 4.539062 4.648437.0625.03125.125.046876.1875.078126-.773437 2.015624-.863281 4.304687-.078124 6.496093.023437.066407.058593.121094.082031.183594-1.976563.878906-3.660157 2.433594-4.65625 4.542969zm0 0" fill="#587ecd"/><path d="m29.445312 375.230469 12.382813-5.84375c.804687-.378907 1.535156-.867188 2.191406-1.445313-1.328125-1.652344-2.617187-3.34375-3.867187-5.085937-2.953125-4.132813-5.578125-8.398438-7.90625-12.765625l-1.640625 3.921875-9.28125 4.382812c2.65625 6.082031 5.167969 11.242188 8.121093 16.835938zm0 0" fill="#5f6abb"/><path d="m58.808594 383.199219c-5.132813 12.941406-5.878906 13.382812-6.039063 16.074219 6.652344.773437 12.824219.757812 19.710938-.132813l1.945312-4.746094c-5.46875-3.253906-10.695312-6.988281-15.617187-11.195312zm0 0" fill="#5f6abb"/><path d="m26.425781 337.324219c-2.265625-5.910157-4.015625-11.949219-5.246093-18.050781l-5.765626 2.359374-7.609374-2.730468c1.917968 7.609375 4.082031 14.710937 6.644531 22.003906 3.847656.492188 5.660156-1.25 11.976562-3.582031zm0 0" fill="#5f6abb"/><path d="m.703125 274.875 11.496094 24.351562c.984375 2.089844 2.710937 3.738282 4.839843 4.628907l2.164063.910156c-.71875-10.207031-.066406-20.449219 1.914063-30.4375-7.625-15.867187-7.265626-16.050781-8.820313-17.820313-4.394531 3.484376-8.417969 7.417969-12 11.730469.066406 1.433594.199219 3.746094.40625 6.636719zm0 0" fill="#5f6abb"/><path d="m504.125 298.683594c-2.136719-.875-4.523438-.925782-6.699219-.148438l-25.3125 9.082032 11.953125-25.320313 26.261719-10.996094c.441406-.183593.851563-.40625 1.246094-.648437.042969-.800782.089843-1.601563.128906-2.40625-3.8125-4.59375-8.121094-8.757813-12.851563-12.40625l-25.316406 10.601562c-2.132812.890625-3.855468 2.542969-4.84375 4.632813l-11.585937 24.546875-9.34375-22.808594c11.375-32.121094 11.324219-30.675781 11.472656-33.105469-6.671875-.777343-12.769531-.746093-19.496094.105469l-10.785156 30.066406c-.777344 2.175782-.726563 4.5625.152344 6.699219l8.488281 20.722656-22.210938-9.300781c-14.667968-30.765625-13.683593-29.679688-15.273437-31.492188-5.113281 4.050782-9.722656 8.707032-13.71875 13.863282l13.617187 28.855468c.988282 2.089844 2.710938 3.738282 4.84375 4.628907l20.65625 8.648437-22.28125 9.128906c-32.105468-11.367187-30.667968-11.324218-33.105468-11.46875-.777344 6.671876-.746094 12.769532.105468 19.492188l30.066407 10.785156c1.023437.363282 2.089843.546875 3.15625.546875 1.203125 0 2.410156-.234375 3.542969-.695312l20.722656-8.488281-9.300782 22.207031c-30.789062 14.679687-29.675781 13.679687-31.488281 15.273437 4.050781 5.113282 8.707031 9.722656 13.863281 13.71875l28.851563-13.621094c2.089844-.984374 3.738281-2.710937 4.632813-4.84375l8.53125-20.375 9.246093 25.777344c-11.03125 27.394532-11.304687 26.53125-11.46875 29.332032 6.699219.777343 12.878907.75 19.707031-.136719l10.417969-25.425781c.878907-2.140626.929688-4.527344.148438-6.703126l-9.078125-25.3125 25.320312 11.953126 2.765625 6.609374c3.1875-7.140624 6.066407-14.445312 8.597657-21.910156-.046876-.023437-.089844-.050781-.140626-.074218l-24.316406-11.476563 26.355469-9.453125 3.839844 1.574219c1.542969-6.109375 2.867187-12.304688 3.960937-18.578125zm-50.800781 28.6875c-.027344.0625-.050781.125-.078125.1875-2.015625-.773438-4.304688-.863282-6.496094-.078125-.0625.023437-.125.054687-.1875.078125-.90625-2.039063-2.539062-3.753906-4.726562-4.726563.800781-2.082031.859374-4.449219 0-6.683593 2.042968-.910157 3.757812-2.550782 4.730468-4.742188 1.0625.40625 2.1875.644531 3.34375.644531 1.113282 0 2.242188-.207031 3.335938-.628906.878906 1.972656 2.4375 3.65625 4.542968 4.648437.058594.03125.121094.046876.183594.074219-.773437 2.015625-.863281 4.308594-.074218 6.5.023437.066407.054687.121094.082031.183594-1.976563.878906-3.660157 2.433594-4.65625 4.542969zm0 0" fill="#587ecd"/><g fill="#6757aa"><path d="m429.640625 369.386719c.496094-.234375.960937-.511719 1.402344-.824219-4.386719-5.195312-8.308594-10.789062-11.722657-16.710938l-.90625 2.160157c-30.785156 14.683593-29.675781 13.683593-31.488281 15.273437 8.371094 10.085938 12.289063 12.292969 13.863281 13.71875zm0 0"/><path d="m400.007812 299.226562c.929688 1.96875 2.523438 3.539063 4.484376 4.460938-.207032-2.816406-.316407-5.65625-.316407-8.523438 0-8.597656.957031-16.976562 2.769531-25.035156-5.46875-11.316406-5.308593-11.882812-6.835937-13.621094-5.113281 4.050782-9.722656 8.707032-13.71875 13.863282zm0 0"/><path d="m460.289062 399.140625 1.933594-4.71875c-5.570312-3.152344-10.847656-6.761719-15.789062-10.773437-4.933594 12.460937-5.691406 12.9375-5.851563 15.625 6.574219.714843 12.453125.804687 19.707031-.132813zm0 0"/><path d="m370.226562 329.65625 30.070313 10.785156c1.019531.367188 2.085937.546875 3.152344.546875 1.207031 0 2.410156-.230469 3.542969-.695312l5.5625-2.277344c-2.34375-5.75-4.234376-11.730469-5.621094-17.902344l-3.707032 1.519531c-32.101562-11.367187-30.667968-11.320312-33.105468-11.46875-.917969 7.894532-.585938 12.292969.105468 19.492188zm0 0"/></g><path d="m387.242188 211.460938c-24.828126 15.507812-43.945313 39.332031-53.4375 67.539062-1.375 4.097656-5.230469 6.839844-9.550782 6.839844h-3.933594c-2.425781 0-4.394531 1.96875-4.394531 4.394531v57.648437c0 2.902344 2.351563 5.257813 5.257813 5.257813.746094.183594 9.820312-1.46875 12.644531 6.90625 9.5 28.179687 28.605469 51.980469 53.414063 67.472656 5.660156 3.535157 13.003906-.609375 13.003906-7.285156v-201.488281c.003906-6.675782-7.339844-10.820313-13.003906-7.285156zm0 0" fill="#dfdee4"/><path d="m387.242188 356.890625c-24.808594-7.746094-43.914063-19.644531-53.414063-33.734375-1.394531-2.066406-5.285156-3.453125-9.648437-3.453125-6.90625-.03125-7.03125.066406-8.253907-.085937v28.265624c0 2.902344 2.355469 5.257813 5.257813 5.257813.746094.183594 9.824218-1.46875 12.644531 6.90625 9.5 28.179687 28.609375 51.980469 53.417969 67.472656 5.660156 3.535157 13.003906-.609375 13.003906-7.285156v-66.984375c0 3.335938-7.34375 5.410156-13.007812 3.640625zm0 0" fill="#d1d0d6"/><path d="m124.757812 211.460938c24.828126 15.507812 43.945313 39.332031 53.4375 67.539062 1.375 4.097656 5.230469 6.839844 9.550782 6.839844h3.933594c2.425781 0 4.394531 1.96875 4.394531 4.394531v57.648437c0 2.902344-2.351563 5.257813-5.257813 5.257813-.746094.183594-9.820312-1.46875-12.644531 6.90625-9.5 28.179687-28.605469 51.980469-53.414063 67.472656-5.660156 3.535157-13.003906-.609375-13.003906-7.285156v-201.488281c-.003906-6.675782 7.339844-10.820313 13.003906-7.285156zm0 0" fill="#dfdee4"/><path d="m124.757812 356.890625c24.808594-7.746094 43.914063-19.644531 53.414063-33.734375 1.394531-2.066406 5.285156-3.453125 9.648437-3.453125 6.90625-.03125 7.03125.066406 8.253907-.085937v28.265624c0 2.902344-2.355469 5.257813-5.257813 5.257813-.746094.183594-9.824218-1.46875-12.644531 6.90625-9.5 28.179687-28.609375 51.980469-53.417969 67.472656-5.660156 3.535157-13.003906-.609375-13.003906-7.285156v-66.984375c0 3.335938 7.34375 5.410156 13.007812 3.640625zm0 0" fill="#d1d0d6"/><path d="m269.558594 486.488281v9.023438c0 8.9375 7.242187 16.183593 16.179687 16.183593 8.941407 0 16.1875-7.246093 16.1875-16.183593v-9.023438zm0 0" fill="#eceeed"/><path d="m210.074219 486.488281v9.023438c0 8.9375 7.246093 16.183593 16.1875 16.183593 8.9375 0 16.179687-7.246093 16.179687-16.183593v-9.023438zm0 0" fill="#eceeed"/><path d="m285.742188 495.511719v-9.023438h-16.183594v9.023438c0 8.9375 7.242187 16.183593 16.183594 16.183593 2.949218 0 5.707031-.804687 8.089843-2.183593-4.832031-2.800781-8.089843-8.015625-8.089843-14zm0 0" fill="#dfdee4"/><path d="m226.261719 495.511719v-9.023438h-16.1875v9.023438c0 8.9375 7.246093 16.183593 16.1875 16.183593 2.949219 0 5.707031-.804687 8.089843-2.183593-4.832031-2.800781-8.089843-8.015625-8.089843-14zm0 0" fill="#dfdee4"/><path d="m318.417969 442.867188v-235.691407c-14.4375 0-110.0625 0-124.835938 0v235.691407zm0 0" fill="#d1d0d6"/><path d="m318.417969 319.488281v-112.3125c-14.4375 0-110.0625 0-124.835938 0v112.3125zm0 0" fill="#6757aa"/><path d="m231.859375 207.175781c-18.03125 0-33.109375 0-38.277344 0v112.3125h38.277344zm0 0" fill="#584496"/><path d="m193.582031 442.867188v42.011718c0 4.332032 3.507813 7.839844 7.839844 7.839844h109.15625c4.332031 0 7.84375-3.507812 7.84375-7.839844v-42.011718zm0 0" fill="#d1d0d6"/><path d="m231.859375 484.878906v-42.011718h-38.277344v42.011718c0 4.332032 3.507813 7.839844 7.839844 7.839844h38.277344c-4.332031 0-7.839844-3.507812-7.839844-7.839844zm0 0" fill="#b5b2be"/><path d="m282.335938 319.488281c-1.59375 0-2.984376-1.160156-3.171876-2.742187-1.355468-11.589844-11.210937-20.582032-23.164062-20.582032-11.890625 0-21.699219 8.898438-23.144531 20.394532-.210938 1.6875-1.679688 2.933594-3.378907 2.933594h-35.898437v123.375h124.839844v-123.378907zm0 0" fill="#eceeed"/><path d="m231.859375 318.519531c-.621094.597657-1.464844.96875-2.382813.96875h-35.894531v123.378907h38.277344zm0 0" fill="#dfdee4"/><path d="m171.488281 106.785156c0 10.429688-2.609375 20.253906-7.195312 28.875l46.371093 23.347656 15.820313-52.222656zm0 0" fill="#48a4ef"/><path d="m199.570312 106.785156-12.257812 40.464844 23.351562 11.757812 15.820313-52.222656zm0 0" fill="#587ecd"/><path d="m301.335938 159.007812-15.820313-52.222656s.242187 0 0 0h54.996094c0 10.429688 2.609375 20.253906 7.199219 28.875zm0 0" fill="#48a4ef"/><path d="m340.511719 106.785156h-25.472657c-.023437 13.6875 3.117188 27.535156 9.726563 40.425782l22.945313-11.550782c-4.589844-8.621094-7.199219-18.445312-7.199219-28.875zm0 0" fill="#587ecd"/><path d="m288.007812 106.785156c-19.367187 0-44.925781 0-64.015624 0l-30.410157 100.390625h124.835938zm0 0" fill="#587ecd"/><path d="m223.992188 106.785156-30.410157 100.390625h38.277344l30.414063-100.390625c45.988281 0 7.746093 0-38.28125 0zm0 0" fill="#5f6abb"/><path d="m193.582031 207.175781v33.644531h124.835938v-33.644531c-14.4375 0-110.0625 0-124.835938 0zm0 0" fill="#5f6abb"/><path d="m193.582031 207.175781v33.644531h38.277344v-33.644531c-18.03125 0-33.109375 0-38.277344 0zm0 0" fill="#6757aa"/><path d="m256 362.128906c-8.9375 0-16.183594 7.246094-16.183594 16.183594v73.578125c0 8.9375 7.246094 16.183594 16.183594 16.183594s16.183594-7.246094 16.183594-16.183594v-73.578125c0-8.9375-7.246094-16.183594-16.183594-16.183594zm0 0" fill="#48a4ef"/><path d="m256 411.628906c-8.9375 0-16.183594 7.246094-16.183594 16.183594v24.078125c0 8.9375 7.246094 16.183594 16.183594 16.183594s16.183594-7.246094 16.183594-16.183594v-24.078125c0-8.9375-7.246094-16.183594-16.183594-16.183594zm0 0" fill="#587ecd"/><path d="m430.554688 160.210938c-29.457032 17.007812-67.265626 6.878906-84.273438-22.578126-17.007812-29.460937-6.878906-67.265624 22.582031-84.273437 29.457031-17.007813 67.265625-6.878906 84.273438 22.578125 17.007812 29.460938 6.878906 67.265625-22.582031 84.273438zm0 0" fill="#5f6abb"/><path d="m375.425781 120.804688c-14.09375-24.40625-9.539062-54.53125 9.183594-73.820313-5.394531 1.359375-10.695313 3.457031-15.746094 6.375-29.457031 17.007813-39.589843 54.8125-22.578125 84.273437 17.007813 29.457032 54.8125 39.585938 84.269532 22.578126 5.054687-2.914063 9.519531-6.457032 13.394531-10.449219-26.066407 6.574219-54.433594-4.546875-68.523438-28.957031zm0 0" fill="#6757aa"/><path d="m385.6875 82.5c-13.390625 7.730469-17.992188 24.914062-10.261719 38.304688 7.730469 13.390624 24.914063 17.996093 38.304688 10.265624 13.390625-7.730468 17.996093-24.914062 10.261719-38.304687-7.730469-13.390625-24.914063-17.996094-38.304688-10.265625zm0 0" fill="#48a4ef"/><path d="m274.417969 100.878906c-4.417969-19.394531-32.421875-19.398437-36.839844 0-1.269531 5.585938-.492187 5.519532-.726563 52.277344 0 2.492188 2.019532 4.507812 4.507813 4.507812h29.28125c2.488281 0 4.507813-2.019531 4.507813-4.507812-.238282-46.917969.539062-46.703125-.730469-52.277344zm0 0" fill="#5f6abb"/><path d="m274.417969 100.878906c-4.417969-19.394531-32.421875-19.398437-36.839844 0-1.269531 5.585938-.492187 5.519532-.726563 52.277344 0 2.492188 2.019532 4.507812 4.507813 4.507812h29.28125c2.488281 0 4.507813-2.019531 4.507813-4.507812-.238282-46.917969.539062-46.703125-.730469-52.277344zm0 0" fill="#5f6abb"/><path d="m237.582031 116.117188c-.476562-2.089844-.730469-4.265626-.730469-6.5v43.539062c0 2.492188 2.019532 4.507812 4.507813 4.507812h29.28125c2.488281 0 4.507813-2.019531 4.507813-4.507812v-43.539062c0 2.234374-.253907 4.410156-.726563 6.5-4.417969 19.394531-32.421875 19.398437-36.839844 0zm0 0" fill="#6757aa"/><path d="m407.320312 111.140625c.167969-.148437.34375-.273437.519532-.410156l-7.546875-13.066407c-5.054688 2.054688-11.042969.191407-13.90625-4.769531-1.941407-3.359375-1.921875-7.359375-.320313-10.601562-.125.070312-.253906.136719-.378906.207031-13.390625 7.730469-17.996094 24.914062-10.261719 38.304688 7.730469 13.390624 24.914063 17.996093 38.304688 10.265624.183593-.105468.359375-.222656.539062-.332031-3.691406-.148437-7.246093-2.097656-9.261719-5.585937-2.707031-4.691406-1.613281-10.640625 2.3125-14.011719zm0 0" fill="#587ecd"/><path d="m404.386719 114.878906c-4.421875 2.550782-10.15625 1.105469-12.769531-3.421875-2.261719-3.914062-1.347657-8.878906 1.929687-11.691406 4.335937-3.855469 11.289063-2.804687 14.261719 2.34375 2.558594 4.433594 1.0625 10.175781-3.421875 12.769531zm0 0" fill="#85d0f9"/><path d="m143.140625 160.210938c-29.460937 17.007812-67.265625 6.878906-84.273437-22.578126-17.007813-29.460937-6.878907-67.265624 22.578124-84.273437 29.460938-17.007813 67.265626-6.878906 84.273438 22.578125 17.007812 29.460938 6.878906 67.265625-22.578125 84.273438zm0 0" fill="#5f6abb"/><path d="m88.007812 120.804688c-14.089843-24.40625-9.539062-54.53125 9.1875-73.820313-5.398437 1.359375-10.695312 3.457031-15.746093 6.375-29.460938 17.007813-39.589844 54.8125-22.582031 84.273437 17.007812 29.457032 54.8125 39.585938 84.273437 22.578126 5.050781-2.914063 9.519531-6.457032 13.394531-10.449219-26.070312 6.574219-54.433594-4.546875-68.527344-28.957031zm0 0" fill="#6757aa"/><path d="m98.273438 82.5c-13.390626 7.730469-17.996094 24.914062-10.265626 38.304688 7.730469 13.390624 24.914063 17.996093 38.304688 10.265624 13.390625-7.730468 17.996094-24.914062 10.265625-38.304687s-24.914063-17.996094-38.304687-10.265625zm0 0" fill="#48a4ef"/><path d="m119.90625 111.140625c.164062-.148437.34375-.273437.515625-.410156l-7.542969-13.066407c-5.054687 2.054688-11.046875.191407-13.910156-4.769531-1.941406-3.359375-1.921875-7.359375-.316406-10.601562-.128906.070312-.253906.136719-.378906.207031-13.390626 7.730469-17.996094 24.914062-10.265626 38.304688 7.730469 13.390624 24.914063 17.996093 38.304688 10.265624.183594-.105468.359375-.222656.539062-.332031-3.691406-.148437-7.246093-2.097656-9.257812-5.585937-2.707031-4.691406-1.613281-10.640625 2.3125-14.011719zm0 0" fill="#587ecd"/><path d="m116.96875 114.878906c-4.417969 2.550782-10.15625 1.105469-12.769531-3.421875-2.257813-3.914062-1.347657-8.878906 1.929687-11.691406 4.339844-3.855469 11.289063-2.804687 14.261719 2.34375 2.558594 4.433594 1.066406 10.175781-3.421875 12.769531zm0 0" fill="#85d0f9"/><path d="m436.835938 296.851562c-12.484376 7.207032-16.777344 23.226563-9.570313 35.707032 7.207031 12.484375 23.226563 16.777344 35.710937 9.570312 12.484376-7.207031 16.773438-23.226562 9.566407-35.710937-7.207031-12.480469-23.226563-16.773438-35.707031-9.566407zm0 0" fill="#5f6abb"/><path d="m457 323.550781c.15625-.140625.320312-.253906.484375-.382812l-7.035156-12.179688c-4.710938 1.914063-10.292969.179688-12.964844-4.445312-1.808594-3.132813-1.789063-6.863281-.296875-9.882813-.117188.066406-.234375.125-.351562.191406-12.484376 7.207032-16.773438 23.226563-9.566407 35.710938 7.207031 12.480469 23.222657 16.773438 35.707031 9.566406.171876-.097656.335938-.207031.503907-.308594-3.441407-.136718-6.757813-1.957031-8.632813-5.207031-2.527344-4.375-1.507812-9.917969 2.152344-13.0625zm0 0" fill="#6757aa"/><path d="m457.453125 315.128906c-2.769531-4.796875-9.25-5.777344-13.296875-2.183594-3.050781 2.621094-3.902344 7.25-1.796875 10.898438 2.4375 4.21875 7.785156 5.566406 11.90625 3.1875 4.179687-2.414062 5.574219-7.765625 3.1875-11.902344zm0 0" fill="#48a4ef"/><path d="m49.023438 296.851562c-12.484376 7.207032-16.773438 23.226563-9.566407 35.707032 7.207031 12.484375 23.226563 16.777344 35.707031 9.570312 12.484376-7.207031 16.777344-23.226562 9.570313-35.710937-7.207031-12.480469-23.226563-16.773438-35.710937-9.566407zm0 0" fill="#5f6abb"/><path d="m69.191406 323.550781c.152344-.140625.320313-.253906.480469-.382812l-7.03125-12.179688c-4.710937 1.914063-10.296875.179688-12.964844-4.445312-1.808593-3.132813-1.792969-6.863281-.296875-9.882813-.117187.066406-.238281.125-.355468.191406-12.480469 7.207032-16.773438 23.226563-9.566407 35.710938 7.207031 12.480469 23.226563 16.773438 35.707031 9.566406.171876-.097656.339844-.207031.507813-.308594-3.441406-.136718-6.757813-1.957031-8.636719-5.207031-2.523437-4.375-1.503906-9.917969 2.15625-13.0625zm0 0" fill="#6757aa"/><path d="m69.644531 315.128906c-2.773437-4.796875-9.253906-5.777344-13.296875-2.183594-3.054687 2.621094-3.902344 7.25-1.796875 10.898438 2.4375 4.21875 7.785157 5.566406 11.902344 3.1875 4.183594-2.414062 5.574219-7.765625 3.191406-11.902344zm0 0" fill="#48a4ef"/></svg>