<?xml version="1.0" encoding="UTF-8"?><svg xmlns="http://www.w3.org/2000/svg" xmlns:xlink="http://www.w3.org/1999/xlink" viewBox="0 0 99.63 98.47"><defs><style>.cls-1{fill:url(#linear-gradient);}.cls-2{fill:#ced3f4;}.cls-3{fill:#afb6e5;}.cls-4{fill:#c6ccf4;}.cls-5{mix-blend-mode:multiply;}.cls-6{fill:url(#Radial_Gradient_1-2);}.cls-7{fill:url(#Radial_Gradient_1-5);}.cls-8{fill:url(#Radial_Gradient_1-3);}.cls-9{fill:url(#Radial_Gradient_1-6);}.cls-10{fill:url(#Radial_Gradient_1-8);}.cls-11{fill:url(#Radial_Gradient_1-4);}.cls-12{fill:url(#Radial_Gradient_1-7);}.cls-13{fill:url(#Radial_Gradient_1-9);}.cls-14{mix-blend-mode:screen;}.cls-15{fill:url(#Radial_Gradient_1);}.cls-16{fill:url(#linear-gradient-8);}.cls-17{fill:url(#linear-gradient-3);}.cls-18{fill:url(#linear-gradient-4);}.cls-19{fill:url(#linear-gradient-2);}.cls-20{fill:url(#linear-gradient-6);}.cls-21{fill:url(#linear-gradient-7);}.cls-22{fill:url(#linear-gradient-5);}.cls-23{fill:url(#Radial_Gradient_1-12);}.cls-24{fill:url(#Radial_Gradient_1-11);}.cls-25{fill:url(#Radial_Gradient_1-14);}.cls-26{fill:url(#Radial_Gradient_1-13);}.cls-27{fill:url(#Radial_Gradient_1-10);}.cls-28{fill:url(#Radial_Gradient_1-16);}.cls-29{fill:url(#Radial_Gradient_1-15);}.cls-30{isolation:isolate;}</style><linearGradient id="linear-gradient" x1="-16.7" y1="125.26" x2="48.88" y2="33.92" gradientTransform="matrix(1, 0, 0, 1, 0, 0)" gradientUnits="userSpaceOnUse"><stop offset="0" stop-color="#b9bfea"/><stop offset=".39" stop-color="#ced3f4"/><stop offset=".67" stop-color="#dde2fb"/><stop offset=".78" stop-color="#e5e9ff"/><stop offset="1" stop-color="#eff1ff"/></linearGradient><linearGradient id="linear-gradient-2" x1="3.85" y1="50.41" x2="90.35" y2="80.41" gradientTransform="matrix(1, 0, 0, 1, 0, 0)" gradientUnits="userSpaceOnUse"><stop offset="0" stop-color="#00c7c5"/><stop offset=".33" stop-color="#2d9be0"/><stop offset=".63" stop-color="#5277f7"/><stop offset=".69" stop-color="#5a76f6"/><stop offset=".79" stop-color="#7273f5"/><stop offset=".91" stop-color="#9970f4"/><stop offset="1" stop-color="#bb6df3"/></linearGradient><linearGradient id="linear-gradient-3" x1="24.95" y1="115.46" x2="88.52" y2="52.07" xlink:href="#linear-gradient"/><radialGradient id="Radial_Gradient_1" cx="73.08" cy="41.77" fx="73.08" fy="41.77" r="4.97" gradientTransform="matrix(1, 0, 0, 1, 0, 0)" gradientUnits="userSpaceOnUse"><stop offset="0" stop-color="#fff"/><stop offset="1" stop-color="#000"/></radialGradient><radialGradient id="Radial_Gradient_1-2" cx="75.81" cy="65.19" fx="75.81" fy="65.19" r="6.52" xlink:href="#Radial_Gradient_1"/><radialGradient id="Radial_Gradient_1-3" cx="87.25" cy="53.27" fx="87.25" fy="53.27" r="8.77" xlink:href="#Radial_Gradient_1"/><radialGradient id="Radial_Gradient_1-4" cx="59.18" cy="64.81" fx="59.18" fy="64.81" r=".92" xlink:href="#Radial_Gradient_1"/><radialGradient id="Radial_Gradient_1-5" cx="62.98" cy="41.08" fx="62.98" fy="41.08" r="3.72" xlink:href="#Radial_Gradient_1"/><radialGradient id="Radial_Gradient_1-6" cx="94.49" cy="71.9" fx="94.49" fy="71.9" r="5.45" xlink:href="#Radial_Gradient_1"/><radialGradient id="Radial_Gradient_1-7" cx="93.2" cy="82.24" fx="93.2" fy="82.24" r="3.15" xlink:href="#Radial_Gradient_1"/><radialGradient id="Radial_Gradient_1-8" cx="84.71" cy="89.07" fx="84.71" fy="89.07" r="1.39" xlink:href="#Radial_Gradient_1"/><radialGradient id="Radial_Gradient_1-9" cx="72.97" cy="84.27" fx="72.97" fy="84.27" r=".97" xlink:href="#Radial_Gradient_1"/><radialGradient id="Radial_Gradient_1-10" cx="57.2" cy="50.24" fx="57.2" fy="50.24" r="1.26" xlink:href="#Radial_Gradient_1"/><linearGradient id="linear-gradient-4" x1="7.31" y1="40.45" x2="93.81" y2="70.45" xlink:href="#linear-gradient-2"/><linearGradient id="linear-gradient-5" x1="70.2" y1="58.25" x2="80.06" y2="72.23" gradientTransform="matrix(1, 0, 0, 1, 0, 0)" gradientUnits="userSpaceOnUse"><stop offset="0" stop-color="#afb6e5"/><stop offset=".47" stop-color="#d1d5f0"/><stop offset=".8" stop-color="#b8bee7"/><stop offset=".99" stop-color="#afb6e5"/></linearGradient><linearGradient id="linear-gradient-6" x1="45.29" y1="18.25" x2="52.05" y2="27.75" xlink:href="#linear-gradient-5"/><linearGradient id="linear-gradient-7" x1="7.04" y1="100.81" x2="55.26" y2="11.85" xlink:href="#linear-gradient"/><radialGradient id="Radial_Gradient_1-11" cx="35.02" cy="17.4" fx="35.02" fy="17.4" r="1.15" xlink:href="#Radial_Gradient_1"/><radialGradient id="Radial_Gradient_1-12" cx="56.87" cy="15.81" fx="56.87" fy="15.81" r="12.78" xlink:href="#Radial_Gradient_1"/><radialGradient id="Radial_Gradient_1-13" cx="47.42" cy="24.69" fx="47.42" fy="24.69" r="4.61" xlink:href="#Radial_Gradient_1"/><radialGradient id="Radial_Gradient_1-14" cx="63.81" cy="34.36" fx="63.81" fy="34.36" r="4.44" xlink:href="#Radial_Gradient_1"/><radialGradient id="Radial_Gradient_1-15" cx="57.75" cy="41.32" fx="57.75" fy="41.32" r="1.72" xlink:href="#Radial_Gradient_1"/><radialGradient id="Radial_Gradient_1-16" cx="38.33" cy="6.22" fx="38.33" fy="6.22" r="2.51" xlink:href="#Radial_Gradient_1"/><linearGradient id="linear-gradient-8" x1="17.33" y1="11.57" x2="103.83" y2="41.57" xlink:href="#linear-gradient-2"/></defs><g class="cls-30"><g id="Layer_2"><g id="Layer_1-2"><g><path class="cls-4" d="M17.17,26.49c1.32-.14,2.71-.11,4.16,.1l-.19-1.74c-.45,0-.9,.03-1.34,.08l-3.24-5.72c-1.71,.28-3.3,.82-4.75,1.61l-2.63,1.56c1.45-.79,3.04-1.33,4.75-1.61l3.24,5.72Z"/><path class="cls-4" d="M51.67,46.91l-2.55,3.01c1.06,1.89,2.03,3.83,2.88,5.8l4.38,.67c1.05,2.58,1.94,5.2,2.64,7.81l2.63-1.56c-.7-2.61-1.59-5.23-2.64-7.81l-4.38-.67c-.85-1.97-1.82-3.91-2.88-5.8l2.55-3.01c-1.45-2.46-3.04-4.84-4.75-7.1l-2.63,1.56h0c1.71,2.26,3.3,4.63,4.75,7.1Z"/><path class="cls-4" d="M26.65,22.81l1.46,5.93c.76,.36,1.53,.76,2.31,1.21,.78,.45,1.55,.94,2.31,1.46l.92-2.66c-.2-.12-.39-.24-.59-.36-.78-.45-1.55-.85-2.31-1.21l-1.46-5.93c-2.05-.89-4.03-1.51-5.93-1.88l-2.63,1.56h0c1.9,.36,3.88,.99,5.93,1.88Z"/><path class="cls-4" d="M40.12,32.14l-.61,4.96c1.45,1.47,2.85,3.04,4.16,4.71l2.61-1.6c-1.31-1.65-2.69-3.22-4.13-4.67l.61-4.96c-1.9-1.83-3.88-3.5-5.93-4.97l-2.63,1.56h0c2.05,1.47,4.03,3.14,5.93,4.97Z"/><path class="cls-4" d="M58.22,79.43l-2.17-1.02c-.21,1.66-.55,3.19-1.02,4.58l4,5.08c-.7,1.8-1.59,3.39-2.64,4.76l2.63-1.56c1.05-1.37,1.94-2.95,2.64-4.76l-4-5.08c.22-.64,.4-1.31,.56-2Z"/><path class="cls-4" d="M63.33,72.05l-4.65-3.19c-.16-1.5-.42-3.01-.74-4.53l-2.91,.33c.47,1.94,.81,3.86,1.02,5.76l4.65,3.19c.1,1.2,.15,2.4,.15,3.58s-.05,2.31-.15,3.4l2.63-1.56c.1-1.09,.15-2.22,.15-3.4s-.05-2.37-.15-3.58Z"/><path class="cls-2" d="M52.44,88.88l-.44-.44c-.85,.99-1.82,1.81-2.88,2.47l2.38,5.56c.98-.29,1.92-.68,2.81-1.16l-2.55-5.96c.24-.15,.47-.31,.69-.47Z"/><polygon class="cls-3" points="39.52 92.65 40.12 98.31 42.76 96.75 42.15 91.09 39.52 92.65"/><polygon class="cls-3" points="51.67 96.87 54.3 95.3 51.75 89.35 49.11 90.91 51.67 96.87"/><polygon class="cls-3" points="57.65 81.43 55.02 82.99 59.02 88.07 61.65 86.51 57.65 81.43"/><polygon class="cls-3" points="39.52 37.09 42.15 35.53 42.76 30.58 40.12 32.14 39.52 37.09"/><polygon class="cls-3" points="28.11 28.74 30.75 27.18 29.29 21.25 26.65 22.81 28.11 28.74"/><polygon class="cls-3" points="17.17 26.49 19.8 24.93 16.56 19.21 13.93 20.77 17.17 26.49"/><polygon class="cls-3" points="8.85 30.81 11.48 29.25 7.1 24.86 4.47 26.42 8.85 30.81"/><polygon class="cls-3" points=".15 38.66 2.79 37.1 7.44 39.28 4.8 40.84 .15 38.66"/><polygon class="cls-3" points="4.46 53.48 1.82 55.04 5.83 54.58 8.46 53.02 4.46 53.48"/><polygon class="cls-3" points="26.65 92.08 29.29 90.52 30.75 86.28 28.11 87.84 26.65 92.08"/><g><path class="cls-1" d="M60.69,80.59c.1-1.09,.15-2.22,.15-3.4s-.05-2.37-.15-3.58l-4.65-3.19c-.21-1.9-.55-3.83-1.02-5.76l4-.46c-.7-2.61-1.59-5.23-2.64-7.81l-4.38-.67c-.85-1.97-1.82-3.91-2.88-5.8l2.55-3.01c-1.45-2.46-3.04-4.84-4.75-7.1l-3.24,1.98c-1.32-1.66-2.71-3.24-4.16-4.71l.61-4.96c-1.9-1.83-3.88-3.5-5.93-4.97l-1.46,4.24c-.76-.52-1.53-1.01-2.31-1.46-.78-.45-1.55-.85-2.31-1.21l-1.46-5.93c-2.05-.89-4.03-1.51-5.93-1.88l.61,5.66c-1.45-.21-2.85-.24-4.16-.1l-3.24-5.72c-1.71,.28-3.3,.82-4.75,1.61l2.55,5.96c-1.06,.66-2.03,1.49-2.88,2.47l-4.38-4.39c-1.05,1.36-1.94,2.95-2.64,4.76l4,5.08c-.47,1.39-.81,2.92-1.02,4.58L.15,38.66c-.1,1.09-.15,2.22-.15,3.4s.05,2.37,.15,3.58l4.65,3.19c.21,1.9,.55,3.83,1.02,5.76l-4,.46c.7,2.61,1.59,5.23,2.64,7.81l4.38,.67c.85,1.97,1.82,3.91,2.88,5.8l-2.55,3.01c1.45,2.46,3.04,4.84,4.75,7.1l3.24-1.98c1.32,1.66,2.71,3.24,4.16,4.71l-.61,4.96c1.9,1.83,3.88,3.5,5.93,4.97l1.46-4.24c.76,.52,1.53,1.01,2.31,1.46,.78,.45,1.55,.85,2.31,1.21l1.46,5.93c2.05,.89,4.03,1.51,5.93,1.88l-.61-5.66c1.45,.21,2.85,.24,4.16,.1l3.24,5.72c1.71-.28,3.3-.82,4.75-1.61l-2.55-5.96c1.06-.66,2.03-1.49,2.88-2.47l4.38,4.39c1.05-1.37,1.94-2.95,2.64-4.76l-4-5.08c.47-1.39,.81-2.92,1.02-4.58l4.65,2.18Zm-30.27-12.72c-3.97-2.29-7.18-7.84-7.18-12.39s3.22-6.39,7.18-4.1c3.97,2.29,7.18,7.84,7.18,12.39s-3.22,6.39-7.18,4.1Z"/><path class="cls-19" d="M30.42,32.86c-12.88-7.44-23.32-1.48-23.32,13.3s10.44,32.79,23.32,40.23c12.88,7.44,23.32,1.48,23.32-13.3s-10.44-32.79-23.32-40.23Zm0,37.82c-5.32-3.07-9.63-10.51-9.63-16.62s4.31-8.56,9.63-5.49c5.32,3.07,9.63,10.51,9.63,16.62s-4.31,8.56-9.63,5.49Z"/><g class="cls-5"><path class="cls-3" d="M41.06,64.19c0-6.11-4.31-13.54-9.63-16.62-3.51-2.02-6.56-1.63-8.25,.61,1.77-1.3,4.36-1.28,7.25,.39,5.32,3.07,9.63,10.51,9.63,16.62,0,2.08-.51,3.73-1.38,4.89,1.48-1.09,2.38-3.1,2.38-5.89Z"/><path class="cls-3" d="M31.42,85.39c-12.88-7.44-23.32-25.45-23.32-40.23,0-5.5,1.45-9.78,3.93-12.6-3.09,2.76-4.93,7.4-4.93,13.6,0,14.78,10.44,32.79,23.32,40.23,8.09,4.67,15.21,4.06,19.39-.7-4.27,3.81-10.92,4.01-18.39-.3Z"/></g></g><polygon class="cls-3" points="54.3 45.35 51.67 46.91 49.11 49.92 51.75 48.36 54.3 45.35"/><polygon class="cls-3" points="54.63 54.17 52 55.73 56.38 56.39 59.01 54.83 54.63 54.17"/><polygon class="cls-3" points="56.04 70.42 58.68 68.86 63.33 72.05 60.69 73.61 56.04 70.42"/><g class="cls-14"><path class="cls-3" d="M23.14,55.58c0,4.55,3.22,10.1,7.18,12.39,2.41,1.39,4.55,1.26,5.85-.08-1.31,1.23-3.39,1.31-5.73-.04-3.97-2.29-7.18-7.84-7.18-12.39,0-1.78,.5-3.15,1.33-4.01-.91,.86-1.46,2.26-1.46,4.13Z"/><path class="cls-3" d="M9.47,30.15c.67-.65,1.39-1.23,2.16-1.71v-.03c-.78,.49-1.5,1.07-2.16,1.74Z"/><path class="cls-3" d="M26.55,22.91l1.46,5.93c.76,.36,1.53,.76,2.31,1.21,.78,.45,1.55,.94,2.31,1.46l.06-.16c-.74-.5-1.49-.98-2.24-1.41-.78-.45-1.55-.85-2.31-1.21l-1.46-5.93c-2.05-.89-4.03-1.51-5.93-1.88l.02,.15c1.86,.37,3.79,.98,5.79,1.85Z"/><path class="cls-3" d="M13.83,20.87l3.24,5.72c1.32-.14,2.71-.11,4.16,.1v-.14c-1.42-.19-2.77-.22-4.04-.08l-3.24-5.72c-1.71,.28-3.3,.82-4.75,1.61l.02,.05c1.41-.75,2.96-1.26,4.61-1.53Z"/><path class="cls-3" d="M5.7,54.58l-3.85,.44s.02,.07,.03,.1l3.85-.44s-.02-.07-.02-.11Z"/><path class="cls-3" d="M40.02,32.24l-.61,4.96c1.45,1.47,2.85,3.04,4.16,4.71l3.24-1.98c1.71,2.26,3.3,4.63,4.75,7.1l-2.55,3.01c1.06,1.89,2.03,3.83,2.88,5.8l4.38,.67c1.04,2.55,1.92,5.13,2.61,7.7l.15-.02c-.7-2.61-1.59-5.23-2.64-7.81l-4.38-.67c-.85-1.97-1.82-3.91-2.88-5.8l2.55-3.01c-1.45-2.46-3.04-4.84-4.75-7.1l-3.24,1.98c-1.32-1.66-2.71-3.24-4.16-4.71l.61-4.96c-1.9-1.83-3.88-3.5-5.93-4.97l-.06,.17c2.02,1.46,3.99,3.11,5.87,4.92Z"/><path class="cls-3" d="M51.3,89.18c.21-.2,.41-.42,.6-.64h0c-.19,.22-.39,.43-.6,.64Z"/><path class="cls-3" d="M49.02,91.01l2.53,5.91s.1-.05,.14-.07l-2.54-5.93s-.09,.06-.13,.09Z"/><path class="cls-3" d="M39.42,92.75l.59,5.51s.09,.02,.14,.03l-.59-5.52s-.09,0-.14-.02Z"/><path class="cls-3" d="M56.04,78.55l-.1-.05c-.21,1.66-.55,3.19-1.02,4.58l4,5.08c-.68,1.74-1.53,3.28-2.54,4.62l.02,.02c1.05-1.37,1.94-2.95,2.64-4.76l-4-5.08c.45-1.34,.79-2.82,1-4.41Z"/><path class="cls-3" d="M8.75,30.91s.08-.08,.12-.13l-4.38-4.39s-.07,.09-.1,.14l4.36,4.37Z"/><path class="cls-3" d="M60.72,73.59l-4.65-3.19c-.2-1.86-.54-3.76-1-5.66l-.15,.02c.47,1.94,.81,3.86,1.02,5.76l4.65,3.19c.1,1.2,.15,2.4,.15,3.58,0,1.12-.05,2.19-.14,3.23l.11,.05c.1-1.09,.15-2.22,.15-3.4s-.05-2.37-.15-3.58Z"/><path class="cls-3" d="M4.7,40.94c0-.06,.02-.11,.02-.17L.17,38.64c0,.06,0,.12-.01,.17l4.54,2.13Z"/><path class="cls-3" d="M28.01,87.94l-1.4,4.07s.04,.03,.06,.05l1.4-4.08s-.04-.03-.07-.04Z"/></g></g><g><polygon class="cls-3" points="58.18 43.71 60.82 42.15 59.91 37.31 57.28 38.88 58.18 43.71"/><g><path class="cls-4" d="M63.92,42.75c1.2-.65,2.57-1.01,4.07-1.05l-.16-1.07c-.44,.15-.87,.33-1.28,.55l-2.88-3.47c-.84,.54-1.59,1.21-2.26,2.01l2.51,3.02Z"/><path class="cls-4" d="M95.62,78.69l-2.04-.87c-.29,1.77-.82,3.31-1.55,4.6l2.39,3.96c-.84,1.25-1.86,2.27-3.03,3.03h0l2.63-1.56c1.17-.76,2.2-1.77,3.03-3.03l-2.39-3.96c.37-.66,.7-1.38,.96-2.16Z"/><path class="cls-4" d="M67.39,37.65c1.54,.06,3.18,.39,4.9,1l1.41,4.22c.82,.34,1.66,.75,2.52,1.24,.85,.49,1.69,1.05,2.52,1.66l1.34-2.46c-.4-.27-.81-.52-1.22-.76-.85-.49-1.69-.9-2.52-1.24l-1.41-4.22c-1.72-.61-3.36-.95-4.9-1l-2.63,1.56h0Z"/><path class="cls-4" d="M99.47,71.73l-3.25-2.36c-.28-2.05-.79-4.14-1.5-6.22l2.33-1.38c-.84-2.22-1.86-4.41-3.03-6.53l-2.88,.14c-1.2-2.04-2.57-3.98-4.07-5.75l.6-3.35c-1.54-1.72-3.18-3.28-4.9-4.65l-2.63,1.56h0c1.72,1.37,3.36,2.93,4.9,4.65l-.6,3.35c1.5,1.77,2.87,3.71,4.07,5.75l2.88-.14c1.17,2.12,2.2,4.31,3.03,6.53l-2.39,1.21c.73,2.13,1.26,4.28,1.55,6.39l3.25,2.36c.1,1.03,.16,2.05,.16,3.05s-.06,1.95-.16,2.86h0l2.63-1.56c.1-.91,.16-1.86,.16-2.86s-.06-2.02-.16-3.05Z"/><polygon class="cls-3" points="72.29 85.5 74.92 83.94 76.33 81.35 73.69 82.91 72.29 85.5"/><polygon class="cls-3" points="85.03 91.04 87.67 89.48 87.06 85.43 84.43 86.99 85.03 91.04"/><polygon class="cls-3" points="92.03 82.41 94.66 80.85 97.05 84.82 94.41 86.38 92.03 82.41"/><polygon class="cls-3" points="93.58 70.93 96.22 69.37 99.47 71.73 96.83 73.3 93.58 70.93"/><polygon class="cls-3" points="88.5 56.94 91.13 55.38 94.02 55.24 91.38 56.8 88.5 56.94"/><polygon class="cls-3" points="84.43 51.19 87.06 49.63 87.67 46.28 85.03 47.84 84.43 51.19"/><polygon class="cls-3" points="73.69 42.87 76.33 41.31 74.92 37.09 72.29 38.65 73.69 42.87"/><polygon class="cls-3" points="63.92 42.75 66.56 41.19 63.67 37.72 61.04 39.28 63.92 42.75"/><polygon class="cls-3" points="58.84 50.87 61.47 49.31 58.22 47.92 55.59 49.48 58.84 50.87"/><g><path class="cls-17" d="M96.83,79.21c.1-.91,.16-1.86,.16-2.86s-.06-2.02-.16-3.05l-3.25-2.36c-.29-2.11-.82-4.26-1.55-6.39l2.39-1.21c-.84-2.22-1.86-4.41-3.03-6.53l-2.88,.14c-1.2-2.04-2.57-3.98-4.07-5.75l.6-3.35c-1.54-1.72-3.18-3.28-4.9-4.65l-1.41,2.59c-.82-.61-1.66-1.17-2.52-1.66-.85-.49-1.69-.9-2.52-1.24l-1.41-4.22c-1.72-.61-3.36-.95-4.9-1l.6,4.05c-1.5,.04-2.87,.4-4.07,1.05l-2.88-3.47c-1.17,.76-2.2,1.77-3.03,3.03l2.39,3.96c-.73,1.29-1.26,2.83-1.55,4.6l-3.25-1.39c-.1,.91-.16,1.86-.16,2.86s.06,2.02,.16,3.05l3.25,2.36c.29,2.11,.82,4.26,1.55,6.39l-2.39,1.21c.84,2.22,1.86,4.41,3.03,6.53l2.88-.14c1.2,2.04,2.57,3.98,4.07,5.75l-.6,3.35c1.54,1.72,3.18,3.28,4.9,4.65l1.41-2.59c.82,.61,1.66,1.17,2.52,1.66,.85,.49,1.69,.9,2.52,1.24l1.41,4.22c1.72,.61,3.36,.95,4.9,1l-.6-4.05c1.5-.04,2.87-.4,4.07-1.05l2.88,3.47c1.17-.76,2.2-1.77,3.03-3.03l-2.39-3.96c.73-1.29,1.26-2.83,1.55-4.6l3.25,1.39Zm-20.62-7.84c-3.38-1.95-6.12-6.67-6.12-10.55s2.74-5.44,6.12-3.49c3.38,1.95,6.12,6.68,6.12,10.55s-2.74,5.44-6.12,3.49Z"/><g class="cls-14"><path class="cls-15" d="M72.21,38.81l1.41,4.22c.82,.34,1.66,.75,2.52,1.24,.85,.49,1.69,1.05,2.52,1.66l.1-.19c-.82-.61-1.66-1.17-2.51-1.66-.85-.49-1.69-.9-2.52-1.24l-1.41-4.22c-1.72-.62-3.36-.95-4.9-1l.03,.19c1.5,.07,3.1,.4,4.76,1Z"/><path class="cls-6" d="M70.02,60.96c0,3.88,2.74,8.6,6.12,10.55,2.39,1.38,4.46,.99,5.47-.73-1.04,1.57-3.05,1.88-5.36,.54-3.38-1.95-6.12-6.67-6.12-10.55,0-1.13,.24-2.06,.65-2.76-.48,.73-.76,1.72-.76,2.95Z"/><path class="cls-8" d="M84.96,47.99l-.6,3.35c1.5,1.77,2.87,3.71,4.07,5.75l2.88-.14c1.16,2.08,2.16,4.24,2.99,6.42l.15-.08c-.84-2.22-1.86-4.41-3.03-6.53l-2.88,.14c-1.2-2.04-2.57-3.98-4.07-5.75l.6-3.35c-1.54-1.72-3.18-3.28-4.9-4.65l-.1,.19c1.72,1.37,3.36,2.93,4.89,4.65Z"/><path class="cls-11" d="M60.28,64.19l-2.24,1.14s.03,.07,.04,.11l2.24-1.13s-.02-.07-.04-.11Z"/><path class="cls-7" d="M60.96,39.44l2.88,3.47c1.2-.65,2.57-1.01,4.07-1.05l-.03-.18c-1.45,.06-2.77,.41-3.94,1.04l-2.88-3.47c-1.17,.76-2.2,1.77-3.03,3.03v.02c.83-1.18,1.81-2.14,2.93-2.86Z"/><path class="cls-9" d="M96.86,73.26l-3.25-2.36c-.28-2.07-.8-4.18-1.52-6.28l-.14,.07c.73,2.13,1.26,4.28,1.55,6.39l3.25,2.36c.1,1.03,.16,2.05,.16,3.05,0,.92-.05,1.8-.14,2.64l.08,.04c.1-.91,.16-1.86,.16-2.86s-.06-2.02-.16-3.05Z"/><path class="cls-12" d="M93.57,77.99l-.07-.03c-.29,1.77-.82,3.31-1.55,4.6l2.38,3.95c.04-.06,.08-.11,.12-.17l-2.39-3.96c.7-1.23,1.22-2.7,1.51-4.39Z"/><path class="cls-10" d="M84.35,87.14l.58,3.86s.09,0,.14,0l-.58-3.88s-.09,0-.13,0Z"/><polygon class="cls-13" points="73.62 83.06 72.31 85.47 72.31 85.47 73.62 83.07 73.62 83.06"/><path class="cls-27" d="M58.76,51.03c.01-.07,.03-.14,.04-.21l-3.19-1.36c0,.07-.01,.15-.02,.22l3.17,1.36Z"/></g><path class="cls-18" d="M76.21,46.6c-8.54-4.93-15.46-.98-15.46,8.82s6.92,21.74,15.46,26.67c8.54,4.93,15.46,.98,15.46-8.82s-6.92-21.74-15.46-26.67Zm0,27.05c-4.48-2.59-8.11-8.85-8.11-13.99s3.63-7.21,8.11-4.63c4.48,2.59,8.11,8.85,8.11,13.99s-3.63,7.21-8.11,4.63Z"/><g class="cls-5"><path class="cls-3" d="M82.23,74.05c1.88-.62,3.1-2.55,3.1-5.52,0-5.14-3.63-11.41-8.11-13.99-2.39-1.38-4.53-1.42-6.02-.39,1.38-.45,3.12-.2,5.02,.89,4.48,2.59,8.11,8.85,8.11,13.99,0,2.4-.8,4.12-2.1,5.02Z"/><path class="cls-3" d="M77.21,81.59c-8.54-4.93-15.46-16.87-15.46-26.67,0-4.8,1.67-8.19,4.37-9.83-3.29,1.36-5.37,4.95-5.37,10.33,0,9.8,6.92,21.74,15.46,26.67,4.35,2.51,8.28,2.71,11.09,1.01-2.71,1.12-6.23,.72-10.09-1.51Z"/></g></g><path class="cls-22" d="M70.09,60.81c0,3.88,2.74,8.6,6.12,10.55,2.4,1.38,4.46,.99,5.47-.73-.85,.02-1.81-.24-2.83-.83-3.38-1.95-6.12-6.67-6.12-10.55,0-1.13,.24-2.05,.65-2.76-1.95,.05-3.28,1.62-3.28,4.32Z"/></g><path class="cls-4" d="M45.78,2.19l2.02,4.95c.52,.23,1.05,.49,1.59,.8s1.07,.66,1.59,1.03l1.7-2.19c-.22-.14-.43-.27-.65-.4-.54-.31-1.07-.57-1.59-.8l-2.02-4.95c-1.87-.6-3.61-.76-5.18-.53l-2.63,1.56c1.57-.24,3.31-.07,5.18,.53Z"/><path class="cls-4" d="M58.18,11.82l-.9,3.79c.84,1.23,1.59,2.54,2.25,3.88l3.76,1.14c.99,2.37,1.73,4.8,2.15,7.18l2.63-1.56c-.42-2.38-1.15-4.81-2.15-7.18l-3.76-1.14c-.65-1.34-1.41-2.64-2.25-3.88l.9-3.79c-1.57-2.05-3.31-3.9-5.18-5.45l-2.63,1.56c1.87,1.56,3.61,3.41,5.18,5.45Z"/><path class="cls-20" d="M45.08,20.2c0,2.73,1.93,6.06,4.31,7.43,1.9,1.1,3.51,.61,4.08-1.02-.45-.08-.94-.25-1.45-.54-2.38-1.37-4.31-4.7-4.31-7.43,0-.55,.08-1.03,.23-1.44-1.67-.28-2.86,.85-2.86,3Z"/><path class="cls-3" d="M64.87,28.55c0-.22,0-.44-.02-.66l-2.72,.34c.06,.64,.1,1.26,.1,1.88s-.04,1.2-.1,1.76l3.3,4.22c-.42,1.9-1.15,3.48-2.15,4.7h0l2.63-1.56c.99-1.22,1.73-2.8,2.15-4.7l-3.3-4.22c.06-.56,.1-1.15,.1-1.76Z"/><polygon class="cls-3" points="38.13 3.01 35.49 4.58 39.25 7.78 41.89 6.22 38.13 3.01"/><polygon class="cls-3" points="33.34 17.57 35.98 16.01 39.28 15.59 36.64 17.15 33.34 17.57"/><polygon class="cls-3" points="45.78 39.01 48.41 37.45 50.43 34.84 47.8 36.4 45.78 39.01"/><polygon class="cls-4" points="64.77 30.31 62.14 31.87 65.43 36.1 68.07 34.53 64.77 30.31"/><g><path class="cls-21" d="M62.24,30.11c0-.62-.04-1.25-.1-1.88l3.3-.42c-.42-2.38-1.15-4.81-2.15-7.18l-3.76-1.14c-.65-1.34-1.41-2.64-2.25-3.88l.9-3.79c-1.57-2.05-3.31-3.9-5.18-5.45l-2.02,2.62c-.52-.37-1.05-.72-1.59-1.03s-1.07-.57-1.59-.8l-2.02-4.95c-1.87-.6-3.61-.76-5.18-.53l.9,4.83c-.84,.27-1.59,.7-2.25,1.28l-3.76-3.2c-.99,1.23-1.73,2.8-2.15,4.7l3.3,4.22c-.06,.56-.1,1.15-.1,1.77s.04,1.25,.1,1.88l-3.3,.42c.42,2.38,1.15,4.81,2.15,7.18l3.76,1.14c.65,1.34,1.41,2.64,2.25,3.88l-.9,3.79c1.57,2.05,3.31,3.9,5.18,5.45l2.02-2.62c.52,.37,1.05,.72,1.59,1.03s1.07,.57,1.59,.8l2.02,4.95c1.87,.6,3.61,.76,5.18,.53l-.9-4.83c.84-.27,1.59-.7,2.25-1.28l3.76,3.2c.99-1.22,1.73-2.8,2.15-4.7l-3.3-4.22c.06-.56,.1-1.15,.1-1.76Zm-12.85-2.47c-2.38-1.37-4.31-4.7-4.31-7.43s1.93-3.83,4.31-2.46c2.38,1.37,4.31,4.7,4.31,7.43s-1.93,3.83-4.31,2.46Z"/><g class="cls-14"><path class="cls-24" d="M36.61,17.14l-3.2,.4s.01,.07,.02,.11l3.18-.4s0-.07,0-.11Z"/><path class="cls-23" d="M45.75,2.29l2.02,4.95c.52,.23,1.05,.49,1.59,.8,.54,.31,1.07,.66,1.59,1.03l2.02-2.62c1.87,1.56,3.61,3.41,5.18,5.45l-.9,3.79c.84,1.23,1.59,2.54,2.25,3.88l3.76,1.14c.98,2.34,1.71,4.73,2.13,7.08h.11c-.42-2.4-1.15-4.83-2.15-7.2l-3.76-1.14c-.65-1.34-1.41-2.64-2.25-3.88l.9-3.79c-1.57-2.05-3.31-3.9-5.18-5.45l-2.02,2.62c-.52-.37-1.05-.72-1.59-1.03-.54-.31-1.07-.57-1.59-.8l-2.02-4.95c-1.87-.6-3.61-.76-5.18-.53l.02,.11c1.54-.21,3.25-.04,5.07,.54Z"/><path class="cls-26" d="M45.06,20.3c0,2.73,1.93,6.06,4.31,7.43,1.64,.95,3.07,.72,3.79-.41-.75,1.02-2.13,1.2-3.7,.29-2.38-1.37-4.31-4.7-4.31-7.43,0-.85,.19-1.54,.52-2.05-.38,.52-.61,1.25-.61,2.17Z"/><path class="cls-25" d="M62.31,30.08c0-.58-.04-1.18-.09-1.77h-.1c.06,.65,.1,1.28,.1,1.89s-.04,1.2-.1,1.76l3.3,4.22c-.37,1.66-.97,3.07-1.78,4.22,.85-1.17,1.49-2.62,1.87-4.34l-3.3-4.22c.06-.56,.1-1.15,.1-1.76Z"/><path class="cls-29" d="M57.26,38.98l.88,4.73s.07,0,.11-.01l-.89-4.75s-.07,.03-.11,.04Z"/><path class="cls-28" d="M35.47,4.67l3.76,3.2c.65-.58,1.41-1.02,2.25-1.28l-.02-.08c-.8,.27-1.52,.68-2.14,1.24l-3.76-3.2c-.13,.16-.25,.32-.37,.48,.09-.12,.18-.25,.27-.36Z"/></g><path class="cls-16" d="M49.39,9.89c-6.16-3.56-11.15-.71-11.15,6.36s4.99,15.68,11.15,19.24c6.16,3.56,11.15,.71,11.15-6.36s-4.99-15.68-11.15-19.24Zm0,19.78c-3.36-1.94-6.08-6.64-6.08-10.49s2.72-5.41,6.08-3.47c3.36,1.94,6.08,6.64,6.08,10.49s-2.72,5.41-6.08,3.47Z"/><g class="cls-5"><path class="cls-3" d="M55.97,25.2c0-3.86-2.72-8.55-6.08-10.5-2.7-1.56-4.99-.86-5.78,1.47,1.05-1.5,3.02-1.78,5.28-.47,3.36,1.94,6.08,6.64,6.08,10.5,0,.76-.11,1.42-.3,1.99,.51-.73,.8-1.74,.8-2.99Z"/><path class="cls-3" d="M49.89,34.49c-6.16-3.56-11.15-12.17-11.15-19.24,0-1.61,.27-3,.75-4.14-.79,1.3-1.25,3.03-1.25,5.14,0,7.07,4.99,15.68,11.15,19.24,4.75,2.74,8.8,1.66,10.41-2.22-1.85,3.05-5.59,3.71-9.91,1.22Z"/></g></g><polygon class="cls-3" points="50.43 5.58 47.8 7.14 45.78 2.19 48.41 .63 50.43 5.58"/><polygon class="cls-3" points="58.18 11.82 60.82 10.25 59.91 14.05 57.28 15.61 58.18 11.82"/><polygon class="cls-3" points="62.16 17.92 65.92 19.06 63.29 20.62 59.53 19.49 62.16 17.92"/></g></g></g></g></svg>