<?xml version="1.0" encoding="UTF-8"?><svg xmlns="http://www.w3.org/2000/svg" xmlns:xlink="http://www.w3.org/1999/xlink" viewBox="0 0 111.5 94.92"><defs><style>.cls-1{fill:url(#linear-gradient);}.cls-2{fill:#ced3f4;}.cls-3{fill:#afb6e5;}.cls-4,.cls-5{mix-blend-mode:multiply;}.cls-6{fill:url(#radial-gradient-3);opacity:.7;}.cls-6,.cls-7{mix-blend-mode:color-dodge;}.cls-7{fill:url(#radial-gradient-5);opacity:.6;}.cls-8{fill:url(#radial-gradient-6);}.cls-9{fill:url(#radial-gradient-4);}.cls-10{fill:url(#radial-gradient-8);}.cls-11{fill:url(#radial-gradient-7);}.cls-12{fill:url(#radial-gradient-2);}.cls-13{fill:url(#linear-gradient-3);}.cls-14{fill:url(#linear-gradient-2);}.cls-5{fill:url(#radial-gradient);}.cls-15{isolation:isolate;}</style><radialGradient id="radial-gradient" cx="1003.24" cy="-2380.56" fx="1003.24" fy="-2380.56" r="31.84" gradientTransform="translate(-1165.06 1644.84) scale(1.22 .66)" gradientUnits="userSpaceOnUse"><stop offset=".19" stop-color="#afb6e5"/><stop offset="1" stop-color="#fff"/></radialGradient><radialGradient id="radial-gradient-2" cx="42.31" cy="35.35" fx="42.31" fy="35.35" r="62.53" gradientTransform="translate(87.82 -18.76) rotate(76.46)" gradientUnits="userSpaceOnUse"><stop offset=".14" stop-color="#6cf"/><stop offset=".7" stop-color="#5277f7"/><stop offset=".8" stop-color="#4f79f5"/><stop offset=".86" stop-color="#4781f0"/><stop offset=".91" stop-color="#398fe7"/><stop offset=".95" stop-color="#25a2db"/><stop offset=".99" stop-color="#0bbbcc"/><stop offset="1" stop-color="#00c7c5"/></radialGradient><radialGradient id="radial-gradient-3" cx="102.31" cy="72.63" fx="102.31" fy="72.63" r="51.35" gradientTransform="matrix(1, 0, 0, 1, 0, 0)" gradientUnits="userSpaceOnUse"><stop offset="0" stop-color="#afb6e5"/><stop offset=".07" stop-color="#8c92b8"/><stop offset=".14" stop-color="#6c708d"/><stop offset=".22" stop-color="#4e5267"/><stop offset=".31" stop-color="#363847"/><stop offset=".4" stop-color="#22232d"/><stop offset=".5" stop-color="#131318"/><stop offset=".62" stop-color="#08080a"/><stop offset=".76" stop-color="#010102"/><stop offset="1" stop-color="#000"/></radialGradient><radialGradient id="radial-gradient-4" cx="43.22" cy="38.77" fx="43.22" fy="38.77" r="58.86" gradientTransform="matrix(1, 0, 0, 1, 0, 0)" gradientUnits="userSpaceOnUse"><stop offset=".14" stop-color="#e5e9ff"/><stop offset=".7" stop-color="#afb6e5"/><stop offset=".84" stop-color="#b1b8e6"/><stop offset=".92" stop-color="#b9c0ea"/><stop offset=".98" stop-color="#c7cdf0"/><stop offset="1" stop-color="#ced3f4"/></radialGradient><radialGradient id="radial-gradient-5" cx="42.24" cy="32.82" fx="42.24" fy="32.82" r="23.25" gradientTransform="translate(66.08 -13.94) rotate(80.87)" gradientUnits="userSpaceOnUse"><stop offset="0" stop-color="#6cf"/><stop offset=".02" stop-color="#61c3f4"/><stop offset=".09" stop-color="#4d9bc1"/><stop offset=".18" stop-color="#3b7693"/><stop offset=".26" stop-color="#2b566b"/><stop offset=".35" stop-color="#1d3b4a"/><stop offset=".44" stop-color="#12252f"/><stop offset=".54" stop-color="#0a141a"/><stop offset=".66" stop-color="#04090b"/><stop offset=".79" stop-color="#010202"/><stop offset="1" stop-color="#000"/></radialGradient><linearGradient id="linear-gradient" x1="13.95" y1="16.36" x2="100.7" y2="82.61" gradientTransform="matrix(1, 0, 0, 1, 0, 0)" gradientUnits="userSpaceOnUse"><stop offset="0" stop-color="#cdd2f3"/><stop offset=".25" stop-color="#e5e9ff"/><stop offset=".31" stop-color="#eff1ff"/><stop offset=".37" stop-color="#fff"/><stop offset=".49" stop-color="#ebedf8"/><stop offset=".72" stop-color="#b8bee8"/><stop offset=".76" stop-color="#afb6e5"/><stop offset=".91" stop-color="#afb6e5"/><stop offset="1" stop-color="#afb6e5"/></linearGradient><linearGradient id="linear-gradient-2" x1="98.24" y1="41.22" x2=".99" y2="63.72" xlink:href="#linear-gradient"/><linearGradient id="linear-gradient-3" x1="33.58" y1="90.19" x2="77.83" y2="6.69" xlink:href="#linear-gradient"/><radialGradient id="radial-gradient-6" cx="23.75" cy="46.95" fx="23.75" fy="46.95" r="4.5" gradientTransform="matrix(1, 0, 0, 1, 0, 0)" gradientUnits="userSpaceOnUse"><stop offset="0" stop-color="#f36dd4"/><stop offset=".39" stop-color="#cf6de7"/><stop offset=".59" stop-color="#bb6df3"/><stop offset=".73" stop-color="#a158dc"/><stop offset=".9" stop-color="#8945c6"/><stop offset="1" stop-color="#813fbf"/></radialGradient><radialGradient id="radial-gradient-7" cx="83.42" cy="70.62" fx="83.42" fy="70.62" r="4.5" xlink:href="#radial-gradient-6"/><radialGradient id="radial-gradient-8" cx="30.08" cy="6.62" fx="30.08" fy="6.62" r="4.5" xlink:href="#radial-gradient-6"/></defs><g class="cls-15"><g id="Layer_2"><g id="Layer_1-2"><g><g><ellipse class="cls-5" cx="61.2" cy="73.91" rx="38.92" ry="21.01"/><circle class="cls-12" cx="55.82" cy="46.36" r="43.5" transform="translate(-2.32 89.78) rotate(-76.46)"/><path class="cls-6" d="M82.09,13.24c3.78,6.56,5.95,14.15,5.95,22.26,0,24.67-20,44.67-44.67,44.67-5.46,0-10.69-.98-15.52-2.78,7.31,6.14,16.73,9.85,27.02,9.85,23.21,0,42.02-18.81,42.02-42.02,0-12.82-5.75-24.29-14.8-31.99Z"/><path class="cls-9" d="M20.9,42.83s1.22,.31,2,.25c.78-.06,1.13,.19,2.38,1.16,1.25,.97,2.32-.25,2.32-.25,0,0-1.85-.97-3.19-1.63-1.35-.66-3.51,.47-3.51,.47Zm18.38-18.44c-.53-.25-1.19,.63-1.5,1.1-.31,.47-.44,1-.66,1.16-.22,.16,1.38,.34,1.88,.31,.5-.03,.66-.19,1.06,.16,.41,.34,1.03,.13,1.03-.09s-.44-.75-.47-1.1c-.03-.34-.78-.31-1.22-.5-.44-.19,.28-.85-.13-1.03Zm-12.49,17.57c-.06-.22-.97,.34-1.13-.22-.16-.56-.53-1.31-.53-1.31l-.63-.03c-.03,.53,.47,1.88,1.47,2.25,1,.38,.88-.47,.81-.69Zm3.04,3.29c1.13,0,2.97-.25,3.82,.16,.85,.41,1.75,1.22,1.75,1.22,0,0-.25-1.25-2.72-1.72-2.47-.47-4.32-.81-4.32-.81,0,0,.41,.44,.16,.66-.25,.22-.94,.47-.94,.47l1.78,.44s.13-.41,.47-.41Zm20.92,14.06c-.78-.59-1.53-1.22-2.63-1.22s-2.54-1.03-2.91-1.32c-.38-.28-1.38-.81-1.75-1.63-.38-.81-2.38-2.16-2.82-2.54-.44-.38-1.72,.03-3.29-1-1.57-1.03-.31-1.28-2.16-1.57-1.85-.28-2.41-.03-3.41-.13-1-.09-1.63-1-2.44-1s-2.63,1.63-3.04,1.94c-.41,.31-.5,.16-1.22-.28-.72-.44-1.22,.5-2.47-.09-1.25-.6,.5-3.29,.53-3.73,.03-.44-.56-.31-1.63-.19-1.06,.13-2.69,.22-2.69,.22,0,0,.09-.91,.22-1.66,.13-.75,1.1-1.5,.63-2.13-.47-.63-1.78-.09-2.5,.31-.72,.41-.63,2.22-2.57,1.78-1.94-.44-1.41-3.63-1.31-4.23,.09-.59-.03-1.03,.72-1.72,.75-.69,2.57-.41,3.44-.44s1.66-.69,2.38-.88c.72-.19,1.35,.53,2.16,1.53,.81,1,.22,2,.22,2,0,0,1.38,.09,1.94-.56,.56-.66-.44-3.16-.19-3.88,.25-.72,3.13-1.91,3.38-2.32,.25-.41-.16-1.19,.53-2.54,.69-1.35,2.47-.91,2.63-.91s.03-.44-.28-.88c-.31-.44,.19-.81,.69-1.06,.5-.25,2.38-.91,2.38-.91,0,0-.53,.38-.5,.91,.03,.53,.69-.06,1.57-.47,.88-.41,2.38-.91,2.38-.91l-.38-.53s-.88,.22-1.6,.09c-.72-.13-.75-.5-.94-1.22-.19-.72-3.16,.34-3.16,.34,0,0,.94-.78,1.66-1.13s3.63-.09,4.16-.13c.53-.03,1.13-.85,1.97-.88,.85-.03,1-.66,.85-1.1-.16-.44-1.44-.85-3.07-1.91-1.63-1.06-2.54-2.72-2.54-2.72,0,0-.5,.78-1.03,1.13-.53,.34-1.25,.13-1.91-.69-.66-.81-1.97-1.38-2.79-1.47-.81-.09-2.76-.03-2.76-.03,0,0,.06,.41,.13,1.06,.06,.66-.75,1.19-.75,1.19,0,0,1.5,.56,1.66,1.35s-2.04,1.19-2.04,1.19c0,0,.5,1.63,.19,1.66-.31,.03-1.38-1.28-1.6-1.94-.16-.49-1.35-.48-2.62-.64-4.92,7.04-7.83,15.59-7.84,24.83,1.11,.32,2.15,.52,2.6,.48,1.06-.09,.63,.56,2.66,1.35,2.04,.78,2.76,1.63,3.29,2.5,.53,.88,2.44,1.69,3.29,1.13,.85-.56,1.06,0,1.5,1.32,.44,1.32-.63,2.1-1.5,3.01-.88,.91-.85,2.85-.85,3.73s.6,.85,1.06,2.04c.47,1.19,1.53,3.69,3.04,4.67,1.5,.97,2.76,1.72,2.85,3.1s-1.03,5.7-.91,6.61c.13,.91-.19,2.19-.85,3.16-.16,.24-.28,.41-.36,.57,1.73,1.43,3.57,2.71,5.51,3.86,.13-.1,.28-.2,.42-.3,.5-.34-.66-.53-.66-.88s.28-.22,1.25-.03c.97,.19,1.13-.66,1.5-1.19,.38-.53,1.88-.69,2.5-1.13,.63-.44,1.5-1.6,2.44-2.13,.94-.53,1-1.53,2.07-2.79,1.06-1.25,.38-1.41,1-2.63,.63-1.22,3.04-1.69,3.98-1.97,.94-.28,1.13-1.53,1.35-2.19s1-.6,.69-.81c-.31-.22-.34-1.22-.34-2.25s1.16-1.75,2.1-2.82c.94-1.06,.53-1.75,.16-2.54-.38-.78-.59-.25-1.38-.85ZM23.95,18.13c.11,.13,.58-.15,.59-.4,.01-.25-.32-.19-.5-.09-.18,.09-.27,.23-.2,.33,.07,.1,.01,.04,.1,.16Zm.28,3.18c-.16,0-.19,.23-.16,.34,.03,.11,.29-.1,.54-.1s.91-.1,.99-.03c.08,.07,.38-.24,.06-.28s-.74,.25-.85,.09c-.1-.16-.22-.28-.34-.22s0,.19-.25,.2Zm1.34-4.92c1.06-.13,3.1,.34,3.82,.75,.72,.41,3.54,.88,3.6,.78,.06-.09-2.04-1.19-2.04-1.19,0,0,1.94,.5,2.57,.5s.53-.56,.09-.81c-.44-.25-2.04-.94-1.47-1.22,.56-.28,1.31,.59,2,.78,.69,.19,1.5-.78,1.53-1,.03-.22-1.5-.63-2.66-1.06-.44-.17-.73-.35-.97-.54-.18-.14,.21-.33,.05-.49-.19-.18-.93-.32-1.21-.51-.24-.16-.82-.36-1.52-.56-1.24,.95-2.42,1.97-3.55,3.04,.06,.09,.1,.19,.09,.27-.03,.38-1.41,1.38-.34,1.25Zm54.42,14.53c-.41,.09-.06,.03-.41,.09-.34,.06-.28-.16-.34,.06s.19,.41,.19,.69-.19,.56,.03,.56,.56-.03,.69-.19c.13-.16,.13-.53,.13-.69s.03-.16-.03-.47-.22-.44-.22-.44c.03-.19,.47-.47,.09-.5-.38-.03-.53,.09-.53,.19s.22,.41,.22,.41l.19,.03s.41,.16,0,.25Zm10.8,3.54c-.06-.16-.81-.28-.94-.25-.13,.03-.91,.31-.91,.31,.22,0,.75-.03,1.1,.09s.81,0,.75-.16Zm4.67,.22s.34-.28,.25-.28-.53,.06-.72,.06-.44,.22-.44,.22l-.19,.19c.25,.13,.63,.16,.75,.13s.34-.31,.34-.31Zm-27.55-10.9c-.16,.16-.44,.03-.25,.41,.22,.44,1.35-.03,1.82-.06,.47-.03,1.03-.31,1.03-.56s0-.66,.09-.75c.09-.09,0-.56-.28-.66-.28-.09-1.28-.19-1.47-.03-.19,.16-.28,.44-.56,.41-.28-.03-1.03,.13-.75,.53,.28,.41,.53,.56,.38,.72Zm-7.81-11.05s-1.11-.17-1.77-.08c-.66,.09-1.35,.28-1.5,.14-.16-.14,.47-.2,.61-.27,.14-.06,.86-.28,.52-.3-.34-.02-1.25,.05-.97-.06,.28-.11,1.24-.19,.92-.19s-1.77-.19-1.06-.2c.7-.02,1.64,.2,2,.42,.36,.22,.61,.36,1.05,.36s.63,.09,.64-.16c.02-.25,.19-.36-.13-.47-.31-.11-.74-.22-1.03-.3-.3-.08-.94-.33-.95-.39-.02-.06-1.64-.05-.94-.25,.7-.2,1.3-.2,1.55,.03,.25,.24,.75,.47,1.11,.34,.36-.13,.36-.24,.02-.36-.34-.13-1.16-.06-1.42-.31-.27-.25,.02-.31,.02-.31l1.64,.22s.64-.05,.66-.09c.02-.05-.19-.17-.02-.34,.17-.17-.14-.31-.31-.53-.17-.22,.49,.02,.69,.08,.2,.06,.77,.3,.63-.09-.14-.39-.34-.55-.47-.75-.13-.2-.2-.36,.02-.36s1.1,.83,1.1,.64-.05-.52-.05-.61-.11-.09-.49-.27c-.38-.17,.16-.14,.16-.42s-.27-.59-.08-.83c.19-.23,.47-.2,.75-.3,.28-.09,.66-.41,1.11-.45,.45-.05,.55-.14,1.49-.31,.94-.17,2.16-.11,1.24-.23-.92-.13-2.16-.14-2.65-.14s-1.49-.14-1.82-.05c-.33,.09-.22,.33-.77,.13-.55-.2,.03-.33-.75-.33s-2.13,.66-2.11,.38c.02-.28,1.49-.42,1.91-.52s1.36-.27,.89-.27-1.21-.13-1.83-.13-1.78,.11-1.8-.05c-.02-.16,.31-.33-.19-.33s-1.25-.33-1.83-.03c-.58,.3-2-.11-2.61-.11s-4.27,.25-5.18,.25-1.91,.05-2.52,.06c-.61,.02-1.96,.22-1.24,.28,.72,.06,1.97,.09,1.71,.25-.27,.16-1.33,.19-1.28,.25,.05,.06,1.33,.13,.92,.22-.41,.09-1.24,.23-1.64-.11-.41-.34-.58-.63-.91-.63-.09,0-.23,0-.4,.01-.28,.09-.55,.19-.83,.28,.19,.14,.45,.3,.23,.3-.24,0-.48-.04-.71-.14-2.74,.96-5.35,2.19-7.8,3.65,.74-.01,1.38,0,2.01,.05,.67,.05,1.19,.09,1.5,.22,.31,.13,.83,.39,.96,.64s1.16,1.13,1.21,1.44c.05,.31-.14,.58,.55,.58s1.27-.2,1.52-.19c.25,.02,.8,.16,.81,.38,.02,.22,.34,.61-.03,.5-.38-.11-1.41-.28-1.68-.2-.27,.08-.45,.2-.49,.39-.03,.19,.05,.55,.55,.47,.5-.08,.53-.36,1.1-.36s.74,0,.81,.17c.08,.17,.64,.2,0,.41-.64,.2-.92,.19-1.25,.19s-.61,.19-.61,.28,.03,.44,.03,.72-.22,.56-.05,.74,.55,.27,.72,.58c.17,.31,.19,.17,.22,.42,.03,.25-.11,.27,.22,.41,.33,.14,.41-.23,.59,.33,.19,.56,.91,.7,1.03,.86s-.06,.39,.55,.44c.61,.05,1.25-.03,1.63,.23,.38,.27,.92,.66,1.3,.55,.38-.11,.33-.41,.59-.86,.27-.45,.14-.91,.61-1.11,.47-.2,.74,.13,.83-.52,.09-.64-.61-.58,.27-.81,.88-.23,.06-.11,1.03-.31,.97-.2,1.68-.14,1.8-.34,.13-.2,1.28-.94,2.05-1.11,.77-.17,1.08-.05,1.72-.19,.64-.14,1.96-.5,2.27-.49,.31,.02,1.22-.34,1.58-.41s.53-.31,.53-.31Zm5.5,3.07c.03-.47-.13-1-1.41-.78-1.28,.22-1.75,.44-2.47,.34-.72-.09-1.88-.66-2.63,0-.55,.48,1.32,1.44,2.63,1.57,1.32,.13,3.85-.66,3.88-1.13Zm33.21,30.92c-.25-.58-1.29-2-1.29-2.8s-1.25-2.13-1.46-2.84c-.21-.71-.83-1.63-.17-1.84,.67-.21,2.3,2.34,2.67,3.13,.12,.26,.39,.77,.69,1.35-.28-4.68-1.3-9.15-2.94-13.32-.11-.01-.22-.02-.32,0-.85,.06-1.46,.27-2.25,.52-.8,.25-1.6,.19-1.82-.17s-.38-.72-.34-.85c.1-.41,.5-.58,.58-.8,.08-.22,.85-.88,1.39-1.03,.55-.16,1.57,.24,1.63,.53,.05,.24,.21,.19,.43,.12-1.5-3.39-3.43-6.55-5.71-9.42-.8,.09-1.87,.39-2.02,.56-.2,.22-.25,.49-.36,.75-.11,.27-.45,.53-.49,.78-.03,.25,.16,.14,.23,.34,.08,.2-.8,.67-.99,.85-.19,.17-.5-.31-.99-.36-.49-.05-.89,0-.99,.17-.09,.17-.47,.2-.86,.08-.39-.13,.08-.2,.22-.3,.14-.09-.16-.14-.58,.09-.42,.23-.78,0-.7-.17,.16-.34,.64-.05,1-.33,.36-.28,.81-.09,1.3-.34,.49-.25,.13-.69,.14-.97,.02-.28,.89-.49,1.11-.72,.22-.23,1.36-.41,1.85-.41,.3,0,1.16-.09,1.98-.2-.63-.79-1.29-1.56-1.98-2.3-.26,.04-.48,.02-.6,.13-.16,.14-.27,.42-.05,.58s.44,.42,.25,.66c-.19,.23-.58,.56-1.1,.52-.52-.05-.56,.02-.81-.06l-.06-.02c-.25-.14-.42-.39-.25-.74,.17-.34,.45-.56,.77-.72,.31-.16,.78-.2,1.02-.25,.23-.05,.53-.09,.58-.28,0-.02,.02-.03,.03-.05-1.08-1.15-2.22-2.24-3.42-3.27-.09,.01-.17,.03-.29,.05-.53,.13-.75,.41-.53,.47s-.16,.44-.31,.56c-.16,.13-.78,.34-.97,.44s-.41,.63-.53,.85c-.1,.17-.53,.52-.86,.93-.03,.01-.05,.02-.08,.03-.96,.38-3.26,.5-3.17,1.96,.08,1.46,1.34,1.54,2,1.42,.67-.13,1.75-.5,1.75-.5l.88,1.84s-1.71-1.21-2.8-.38-.04,1.92-.04,1.92c0,0-2.42,.54-3.05,.29-.63-.25,.5-1.21,.5-1.21,0,0-1.54-.08-1.63,.21-.08,.29,.75,.5,.75,.5,0,0-.29,.17-.63,.17s-1.75-.38-1.84-.67c-.08-.29-.88-.65-.88-.65,0,0,.48-.58,.56-.73,.08-.15,.21-.23,.08-.29s-1.21,.02-1.21-.13,.52-.38,.44-.5c-.08-.13-1.29-.04-1.38,.1-.08,.15-.33,.58-.48,.65-.15,.06-.36-.23-.56-.06-.21,.17,.31,.44,.33,.56s-.04,.54,.08,.61c.13,.06,.9-.13,.88,.1-.02,.23-.25,.46,0,.69,.25,.23,.88,.31,.79,.46-.08,.15-.73,.29-.77,.58-.04,.29-.33,.63-.33,.63l.73,.27s-1.23,.61-1.04,.73c.19,.13,1.57-.1,1.9-.13,.33-.02,2.17,.02,2.44-.31,.27-.33,.58-1.52,1.04-1.23,.46,.29-.88,1.69-1.77,1.88-.9,.19-1.52,.15-1.63,.19-.1,.04,.38,.33-.08,.4-.46,.06-1.38,.25-1.46,.4-.08,.15,2.07,.58,2.23,1.52,.17,.94,.25,1.57-.52,1.52-.77-.04-2.88-.13-3.28-.15-.4-.02-.88,.04-.92,.29-.04,.25,.31,.9,.21,1.36-.1,.46-.44,1.13-.42,1.34,.02,.21,.38,.17,.33,.56-.04,.4-.08,.67-.08,.67,0,0,.27-.02,.65-.06,.38-.04,.81-.04,.96,.29,.15,.33,.44,.29,.75,.13,.31-.17,1.38-.06,1.77-.31,.4-.25,.83-.44,.98-.48,.15-.04,.54-.54,.58-.71s-.38-.46,.1-.92c.48-.46,1.86-.88,1.84-1.13-.02-.25-.35-.65,.31-.9,.67-.25,1.63,.33,1.75,.23,.13-.1,.75-.35,.92-.5,.17-.15,.63-.69,1.21-.02,.58,.67,1.11,1.5,1.84,1.67s1.06,.17,1.27,.46c.21,.29,.42,.25,.54,.42,.13,.17,.31,.46,.23,.58-.08,.13-.06,.29-.33,.4-.27,.1-1.21,0-1.54,.06-.33,.06-.5,.1-.42,.23s.81,.33,1.11,.52c.29,.19,.56,.21,.56,.21l.1-.27s-.19-.27-.08-.38c.1-.1,.33-.27,.48-.21,.15,.06,.38-.23,.38-.29s.21-.25,.31-.27c.1-.02,.27-.21,.1-.31-.17-.1-.34-.16-.31-.35,.03-.2,.08-.39,.34-.28,.26,.1,.46,.24,.52,.33,.06,.09,.3-.03,.25-.17-.05-.14-.18-.37-.48-.43-.3-.06-.78-.28-.83-.42-.05-.14,.18-.28-.26-.28s-1.03-.32-1.15-.64c-.11-.31-.18-.35-.42-.51-.24-.16-.59-.52-.33-.77,.26-.25,.67,.13,1.14,.48,.47,.35,1.53,.71,1.79,.87,.26,.16,1.16,.55,1.16,.73s-.29,.71-.07,.86c.22,.15,.7,.57,.83,.86,.14,.28,.34,.41,.42,.45,.07,.04-.23,.16-.08,.3,.15,.15,.29,.04,.27,.3-.02,.26-.01,.23,.25,.26,.26,.03,.58,.19,.64,.23,.05,.04-.22-.63-.09-.63s.03-.32,.16-.35,.55,.34,.62,.21,.16-.35,0-.47c-.16-.11-.43-.43-.53-.53-.1-.1-.44-.48-.32-.64,.11-.16,.36,.21,.64,.11,.27-.09,.25-.42,.41-.42s.23,.02,.6,.02,.7,.21,.7,.21c0,0-.27,.33-.21,.56,.06,.23,.33,.06,.38,.43,.04,.37-.01,.47,.09,.57,.1,.1,.31,.33,.33,.48,.02,.15,.18,.22,.38,.22s.53-.03,.62,.17c.08,.2,.26,.32,.55,.28,.29-.04,.29-.41,.49-.42,.2-.01,.7,.16,1.01,.37,.31,.21,.9,.11,1.06,.01,.17-.1,.28-.39,.51-.31,.23,.07,.52,.07,.65-.02,.13-.09,.26-.1,.2,.04-.06,.15-.25,.2-.23,.38,.02,.18,0,.24,.03,.42,.03,.18,.05,.51-.16,.86-.21,.34-.41,1.59-.93,1.67-.52,.08-1.06-.49-1.76-.3-.7,.19-.87,.59-1.41,.54-.54-.05-1.99-.44-2.18-.39-.19,.05-.34-.15-.34-.22s-.7,0-.98-.21c-.28-.21-1.05-.76-1.74-.24s-.46,.67-.44,.89c.02,.22-.1,.74-.51,.56-.41-.18-1.18-.65-1.54-.63-.37,.02-.63-.27-.75-.55-.13-.28-.92-.52-1.28-.47-.37,.05-.64,.11-.99-.18-.35-.29-.76-.58-.71-.7,.05-.11,.77-.05,.8-.27,.03-.22-.37-.15-.47-.33-.1-.19-.18-.18-.28-.3-.1-.13-.19-.24-.04-.35,.15-.11,.29-.31,.24-.37-.05-.05-.35,.2-.45,.06-.09-.14-.22-.28-.51-.24-.29,.04-.59,.3-.99,.18-.4-.13-.53-.03-.89-.01-.36,.02-.42,.24-.66,.24s-1.01-.2-1.66-.07c-.65,.13-2.17,.51-2.49,.74-.32,.23-.55,.35-.99,.19-.44-.17-1.05,.19-1.22,.02-.17-.17-.48-.42-.48-.42l-.42,.18s-.25,.79-1.25,1.34c-1,.54-1,1.17-1.09,1.75-.08,.58-.46,1.25-1.42,1.63-.96,.38-1.34,1.75-1.88,2.09-.54,.33-1.88,2.13-1.42,2.84,.46,.71,.79,1.54,.33,2.8-.46,1.25-.83,2.92,1.92,4.88,2.76,1.96,3.76,2.38,3.76,2.38,0,0,1.54-1,2.63-.58,1.09,.42,2.76-.5,3.59-.67,.83-.17,1.84,.63,2.09,1.04,.25,.42,2.51-.96,2.34,.92-.17,1.88-.54,2.3-.29,2.8,.25,.5,1.38,1.67,2,2.8,.63,1.13,.92,1.8,.67,2.09-.25,.29,.54,.75,.33,1.42-.21,.67-1.46,1.29-1.13,3.21,.33,1.92,1.42,2.5,1.71,4.05,.29,1.54,.04,2.09,1.04,3.34,1,1.25,1.5,2,1.46,2.63-.02,.3-.04,.56,0,.77,8.13-7.72,13.26-18.55,13.52-30.58-.23-.19-.42-.38-.5-.58Z"/><circle class="cls-7" cx="41.22" cy="31.8" r="31.8" transform="translate(3.28 67.45) rotate(-80.87)"/></g><path class="cls-3" d="M55.75,75.87C25.01,75.87,0,64.21,0,49.87c0-6.14,4.6-12.07,12.94-16.72,.36-.2,.82-.07,1.02,.29,.2,.36,.07,.82-.29,1.02-7.85,4.37-12.17,9.84-12.17,15.41,0,13.51,24.34,24.5,54.25,24.5s54.25-10.99,54.25-24.5c0-5.57-4.32-11.04-12.17-15.41-.36-.2-.49-.66-.29-1.02,.2-.36,.66-.49,1.02-.29,8.35,4.64,12.95,10.58,12.95,16.72,0,14.34-25.01,26-55.75,26Z"/><g class="cls-4"><path class="cls-2" d="M97.96,57.23c-2.96,1.66-6.37,3.14-10.17,4.4-3.98-8.21-10.28-17.02-18.44-25.18-3.3-3.3-6.7-6.29-10.13-8.95,5.11-3.37,10.24-6.05,15.18-7.88,5.08-1.89,9.64-2.75,13.52-2.63-.47-.51-.94-1.01-1.43-1.49-3.73,.1-7.97,1-12.61,2.71-5.18,1.92-10.56,4.75-15.91,8.33-7.19-5.4-14.44-9.31-21-11.48,.02-.17,.05-.33,.05-.5,0-1.97-1.59-3.56-3.56-3.56-1.56,0-2.87,1.01-3.36,2.41-.8-.11-1.59-.21-2.35-.25-.52,.44-1.04,.9-1.54,1.36,1.18,0,2.42,.09,3.71,.27,.12,1.86,1.65,3.33,3.54,3.33,1.3,0,2.43-.7,3.05-1.74,6.26,2.08,13.22,5.85,20.17,11.04-5.39,3.72-10.74,8.19-15.79,13.24-3.16,3.16-6.08,6.43-8.74,9.76-.58-.42-1.29-.67-2.06-.67-1.97,0-3.56,1.6-3.56,3.56,0,1.14,.54,2.14,1.37,2.79-1.32,1.89-2.55,3.79-3.68,5.68-3.92-1.27-7.44-2.78-10.49-4.47,.16,.63,.34,1.26,.53,1.88,2.76,1.43,5.84,2.73,9.21,3.85-1.45,2.53-2.71,5.04-3.78,7.52,.33,.49,.67,.97,1.02,1.44,1.16-2.79,2.57-5.63,4.22-8.49,8.84,2.75,19.44,4.35,30.84,4.35,8.23,0,16.04-.85,23.08-2.35,.61,1.1,1.76,1.85,3.11,1.85,1.96,0,3.55-1.58,3.56-3.54,.5-.15,1.02-.29,1.51-.44,.66,1.43,1.27,2.86,1.79,4.26,.66,1.78,1.18,3.49,1.58,5.13,.37-.49,.73-.99,1.09-1.49-.72-2.67-1.75-5.47-3.07-8.36,3.3-1.12,6.32-2.4,9.03-3.82,.19-.62,.37-1.25,.53-1.88Zm-12.74,5.19c-.54-1.27-1.81-2.17-3.28-2.17-1.97,0-3.56,1.6-3.56,3.56,0,.1,.02,.2,.03,.3-6.9,1.44-14.57,2.26-22.66,2.26-11.12,0-21.47-1.52-30.09-4.13,1.1-1.83,2.29-3.66,3.57-5.48,.27,.06,.54,.11,.83,.11,1.97,0,3.56-1.59,3.56-3.56,0-.65-.19-1.25-.49-1.77,2.67-3.35,5.61-6.65,8.79-9.83,5.11-5.11,10.53-9.62,15.98-13.34,3.5,2.7,6.99,5.76,10.38,9.14,7.8,7.8,14.07,16.34,18.11,24.57-.38,.12-.79,.22-1.18,.34Z"/><path class="cls-2" d="M14.38,35.59c-.13-.47-.23-.93-.33-1.39-.22,.76-.42,1.52-.6,2.3,.13,.04,.27,.05,.41,.02,.4-.11,.63-.52,.53-.92Z"/></g><path class="cls-1" d="M83.64,93.4c-4.56,0-9.91-1.23-15.74-3.68-.38-.16-.56-.6-.4-.98,.16-.38,.61-.56,.98-.4,11.41,4.81,20.75,4.77,25.63-.11,4.55-4.55,4.93-12.8,1.06-23.22-3.94-10.62-11.78-22.15-22.1-32.46-10.31-10.31-21.84-18.16-32.46-22.1-10.43-3.87-18.67-3.49-23.22,1.06-3.86,3.86-4.72,10.62-2.42,19.03,.11,.4-.13,.81-.53,.92-.4,.11-.81-.13-.92-.53-2.49-9.09-1.52-16.17,2.8-20.49,4.99-4.99,13.8-5.49,24.81-1.41,10.82,4.01,22.54,11.98,33,22.44,10.46,10.46,18.43,22.18,22.44,33,4.08,11.01,3.58,19.82-1.41,24.81-2.74,2.74-6.7,4.11-11.53,4.11Z"/><path class="cls-3" d="M27.86,93.4c-4.83,0-8.79-1.37-11.53-4.11-4.99-4.99-5.49-13.8-1.41-24.81,4.01-10.82,11.98-22.54,22.44-33C59.1,9.75,85.03,.31,95.17,10.45c4.26,4.26,5.26,11.22,2.9,20.13-.11,.4-.51,.64-.92,.53-.4-.11-.64-.52-.53-.92,2.22-8.37,1.35-14.83-2.51-18.69-9.55-9.55-34.53-.11-55.68,21.04-10.31,10.31-18.16,21.84-22.1,32.46-3.87,10.43-3.49,18.67,1.06,23.22,4.85,4.85,14.13,4.91,25.47,.18,.38-.16,.82,.02,.98,.4,.16,.38-.02,.82-.4,.98-5.76,2.41-11.05,3.61-15.57,3.61Z"/><path class="cls-14" d="M55.75,75.87C25.01,75.87,0,64.21,0,49.87,0,43.73,4.6,37.8,12.95,33.15c.36-.2,.82-.07,1.02,.29,.2,.36,.07,.82-.29,1.02-7.85,4.37-12.17,9.84-12.17,15.41,0,13.51,24.34,24.5,54.25,24.5s54.25-10.99,54.25-24.5c0-5.57-4.32-11.04-12.17-15.41-.36-.2-.49-.66-.29-1.02,.2-.36,.66-.49,1.02-.29,8.35,4.64,12.95,10.58,12.95,16.72,0,14.34-25.01,26-55.75,26Z"/><path class="cls-13" d="M27.86,93.4c-4.83,0-8.79-1.37-11.53-4.11-4.99-4.99-5.49-13.8-1.41-24.81,4.01-10.82,11.98-22.54,22.44-33,10.46-10.46,22.18-18.43,33-22.44,11.01-4.08,19.82-3.58,24.81,1.41,4.26,4.26,5.26,11.22,2.9,20.13-.1,.4-.51,.64-.92,.53-.4-.11-.64-.52-.53-.92,2.22-8.37,1.35-14.83-2.51-18.69-4.55-4.55-12.8-4.93-23.22-1.06-10.62,3.94-22.15,11.78-32.46,22.1s-18.16,21.84-22.1,32.46c-3.87,10.43-3.49,18.67,1.06,23.22,4.85,4.85,14.13,4.91,25.47,.18,.38-.16,.82,.02,.98,.4,.16,.38-.02,.82-.4,.98-5.76,2.41-11.05,3.61-15.57,3.61Z"/><circle class="cls-8" cx="24.75" cy="47.62" r="4.5"/><circle class="cls-11" cx="84.42" cy="71.29" r="4.5"/><circle class="cls-10" cx="31.08" cy="7.29" r="4.5"/></g></g></g></g></svg>