<?xml version="1.0" encoding="UTF-8"?><svg xmlns="http://www.w3.org/2000/svg" xmlns:xlink="http://www.w3.org/1999/xlink" viewBox="0 0 95.4 113.85"><defs><style>.cls-1{fill:url(#Radial_Gradient_1-2);}.cls-1,.cls-2{mix-blend-mode:color-dodge;}.cls-3{fill:url(#radial-gradient-2);}.cls-3,.cls-4,.cls-5,.cls-6,.cls-7{mix-blend-mode:multiply;}.cls-4{fill:url(#radial-gradient-4);}.cls-8{fill:url(#linear-gradient);}.cls-9{mask:url(#mask);}.cls-10{fill:#6cf;}.cls-11{fill:#fff;}.cls-12{fill:#afb6e5;}.cls-5,.cls-6{fill:#a2a8c8;}.cls-13{fill:url(#radial-gradient-3);mix-blend-mode:screen;}.cls-6,.cls-14,.cls-15{opacity:.5;}.cls-16{fill:url(#New_Gradient_Swatch_copy_36-2);}.cls-17{fill:url(#New_Gradient_Swatch_copy_36);}.cls-18{fill:url(#Linear_Gradient_1);}.cls-19{fill:url(#linear-gradient-8);}.cls-20{fill:url(#linear-gradient-3);}.cls-21{fill:url(#linear-gradient-4);}.cls-22{fill:url(#linear-gradient-2);}.cls-23{fill:url(#linear-gradient-6);}.cls-24{fill:url(#linear-gradient-7);}.cls-25{fill:url(#linear-gradient-5);}.cls-7{fill:url(#radial-gradient);}.cls-14{fill:url(#linear-gradient-11);}.cls-26{fill:url(#linear-gradient-14);}.cls-27{fill:url(#linear-gradient-15);}.cls-28{fill:url(#linear-gradient-13);}.cls-29{fill:url(#linear-gradient-12);}.cls-30{fill:url(#linear-gradient-10);}.cls-31{isolation:isolate;}.cls-15{fill:url(#linear-gradient-9);}.cls-2{fill:url(#Radial_Gradient_1);}</style><radialGradient id="radial-gradient" cx="960.64" cy="-2339.09" fx="960.64" fy="-2339.09" r="10.08" gradientTransform="translate(-1107.78 1650.77) scale(1.22 .66)" gradientUnits="userSpaceOnUse"><stop offset=".19" stop-color="#afb6e5"/><stop offset="1" stop-color="#fff"/></radialGradient><linearGradient id="linear-gradient" x1="110.62" y1="109.33" x2="127.8" y2="109.33" gradientTransform="translate(-54.82)" gradientUnits="userSpaceOnUse"><stop offset="0" stop-color="#b9bfea"/><stop offset=".25" stop-color="#e5e9ff"/><stop offset=".7" stop-color="#afb6e5"/><stop offset=".95" stop-color="#b9c0ea"/><stop offset="1" stop-color="#bdc3ec"/></linearGradient><linearGradient id="linear-gradient-2" x1="4572.25" y1="94.63" x2="4586.08" y2="109.46" gradientTransform="translate(4646.95) rotate(-180) scale(1 -1)" gradientUnits="userSpaceOnUse"><stop offset="0" stop-color="#afb6e5"/><stop offset=".14" stop-color="#b5bce8"/><stop offset=".35" stop-color="#c7cdf0"/><stop offset=".58" stop-color="#e5e9ff"/><stop offset=".95" stop-color="#f4f4fb"/><stop offset="1" stop-color="#f7f6fb"/></linearGradient><radialGradient id="Radial_Gradient_1" cx="61.64" cy="110" fx="61.64" fy="110" r="6.44" gradientTransform="matrix(1, 0, 0, 1, 0, 0)" gradientUnits="userSpaceOnUse"><stop offset="0" stop-color="#fff"/><stop offset="1" stop-color="#000"/></radialGradient><linearGradient id="linear-gradient-3" x1="115.91" y1="86.58" x2="122.71" y2="86.58" xlink:href="#linear-gradient"/><radialGradient id="radial-gradient-2" cx="63.61" cy="64.31" fx="63.61" fy="64.31" r="16.21" gradientTransform="matrix(1, 0, 0, 1, 0, 0)" gradientUnits="userSpaceOnUse"><stop offset=".18" stop-color="#4d5a96"/><stop offset=".25" stop-color="#6a75a7"/><stop offset=".36" stop-color="#979ec1"/><stop offset=".48" stop-color="#bcc1d7"/><stop offset=".6" stop-color="#d9dce9"/><stop offset=".71" stop-color="#eeeff5"/><stop offset=".83" stop-color="#fafbfc"/><stop offset=".93" stop-color="#fff"/></radialGradient><linearGradient id="linear-gradient-4" x1="33.97" y1="46.29" x2="98.92" y2="93.62" gradientTransform="matrix(1, 0, 0, 1, 0, 0)" gradientUnits="userSpaceOnUse"><stop offset="0" stop-color="#407eec"/><stop offset=".09" stop-color="#3f7bec"/><stop offset="1" stop-color="#3863f5"/></linearGradient><linearGradient id="linear-gradient-5" x1="82.03" y1="35.14" x2="6.02" y2="87.81" gradientTransform="matrix(1, 0, 0, 1, 0, 0)" gradientUnits="userSpaceOnUse"><stop offset="0" stop-color="#00c7c5"/><stop offset=".33" stop-color="#2d9be0"/><stop offset=".63" stop-color="#5277f7"/><stop offset=".69" stop-color="#5a76f6"/><stop offset=".79" stop-color="#7273f5"/><stop offset=".91" stop-color="#9970f4"/><stop offset="1" stop-color="#bb6df3"/></linearGradient><linearGradient id="linear-gradient-6" x1="5113.51" y1="1565.22" x2="5157.58" y2="1565.22" gradientTransform="translate(2118.05 3093.28) rotate(-150) skewX(-49.11)" xlink:href="#linear-gradient-4"/><linearGradient id="linear-gradient-7" x1="79.29" y1="35.37" x2="6.1" y2="85.56" xlink:href="#linear-gradient-5"/><linearGradient id="linear-gradient-8" x1="3507.2" y1="-977.75" x2="3507.2" y2="-1009.93" gradientTransform="translate(-1253.54 2834.03) rotate(-45.63) scale(.98 1.02) skewX(30.39)" gradientUnits="userSpaceOnUse"><stop offset="0" stop-color="#afb6e5"/><stop offset=".14" stop-color="#b5bce8"/><stop offset=".35" stop-color="#c7cdf0"/><stop offset=".58" stop-color="#e5e9ff"/><stop offset=".86" stop-color="#f4f6ff"/><stop offset="1" stop-color="#fff"/></linearGradient><linearGradient id="linear-gradient-9" x1="28.26" y1="54.4" x2="33.74" y2="84.87" gradientTransform="matrix(1, 0, 0, 1, 0, 0)" xlink:href="#linear-gradient-8"/><linearGradient id="linear-gradient-10" x1="2621.04" y1="-1239.72" x2="2621.04" y2="-1270.75" gradientTransform="translate(-1493.58 2202.01) rotate(-30) scale(1.15 .87) skewX(23.41)" xlink:href="#linear-gradient-8"/><linearGradient id="linear-gradient-11" x1="39.21" y1="51.81" x2="38.1" y2="71.72" gradientTransform="matrix(1, 0, 0, 1, 0, 0)" xlink:href="#linear-gradient-8"/><linearGradient id="linear-gradient-12" x1="53.27" y1="12.4" x2="96.07" y2="89.7" gradientTransform="matrix(1, 0, 0, 1, 0, 0)" gradientUnits="userSpaceOnUse"><stop offset="0" stop-color="#407eec"/><stop offset=".11" stop-color="#55a9ef"/><stop offset=".18" stop-color="#61c2f2"/><stop offset="1" stop-color="#3863f5"/></linearGradient><radialGradient id="radial-gradient-3" cx="715.33" cy="-4561.49" fx="715.33" fy="-4561.49" r="34.85" gradientTransform="translate(14.42 1914.26) rotate(-21.03) scale(1 .38)" gradientUnits="userSpaceOnUse"><stop offset="0" stop-color="#6cf"/><stop offset=".02" stop-color="#62c5f6"/><stop offset=".13" stop-color="#4b97bd"/><stop offset=".25" stop-color="#376f8b"/><stop offset=".37" stop-color="#264d60"/><stop offset=".49" stop-color="#18313d"/><stop offset=".62" stop-color="#0d1b22"/><stop offset=".74" stop-color="#060c0f"/><stop offset=".87" stop-color="#010303"/><stop offset="1" stop-color="#000"/></radialGradient><radialGradient id="radial-gradient-4" cx="4806.21" cy="49.47" fx="4806.21" fy="49.47" r="4.47" gradientTransform="translate(4867.02) rotate(-180) scale(1 -1)" gradientUnits="userSpaceOnUse"><stop offset="0" stop-color="#8770b8"/><stop offset="1" stop-color="#fff"/></radialGradient><linearGradient id="linear-gradient-13" x1="4800.32" y1="45.03" x2="4810.88" y2="52.26" gradientTransform="translate(4867.02) rotate(-180) scale(1 -1)" xlink:href="#linear-gradient-8"/><radialGradient id="Radial_Gradient_1-2" cx="4806" cy="47.39" fx="4806" fy="47.39" r="3.67" gradientTransform="translate(4867.02) rotate(-180) scale(1 -1)" xlink:href="#Radial_Gradient_1"/><linearGradient id="linear-gradient-14" x1="60.32" y1="41.4" x2="63.51" y2="41.4" gradientTransform="matrix(1, 0, 0, 1, 0, 0)" gradientUnits="userSpaceOnUse"><stop offset="0" stop-color="#3b3aba"/><stop offset=".14" stop-color="#564bd7"/><stop offset=".23" stop-color="#6152e3"/><stop offset=".4" stop-color="#4528c9"/><stop offset=".48" stop-color="#4221a9"/><stop offset=".57" stop-color="#3f1b8c"/><stop offset=".63" stop-color="#3f1982"/><stop offset=".87" stop-color="#5e239e"/><stop offset="1" stop-color="#491c8b"/></linearGradient><linearGradient id="Linear_Gradient_1" x1="61.98" y1="38.36" x2="61.98" y2="45.76" gradientTransform="matrix(1, 0, 0, 1, 0, 0)" gradientUnits="userSpaceOnUse"><stop offset="0" stop-color="#fff"/><stop offset="1" stop-color="#000"/></linearGradient><mask id="mask" x="59.48" y="33.37" width="4.99" height="17.9" maskUnits="userSpaceOnUse"><rect class="cls-18" x="59.48" y="33.98" width="4.99" height="17.29"/></mask><linearGradient id="New_Gradient_Swatch_copy_36" x1="61.91" y1="37.44" x2="61.91" y2="44.31" gradientTransform="matrix(1, 0, 0, 1, 0, 0)" gradientUnits="userSpaceOnUse"><stop offset=".1" stop-color="#45108a"/><stop offset="1" stop-color="#7c1dc9"/></linearGradient><linearGradient id="linear-gradient-15" x1="63.28" y1="37.33" x2="65.77" y2="30.17" gradientTransform="matrix(1, 0, 0, 1, 0, 0)" gradientUnits="userSpaceOnUse"><stop offset=".08" stop-color="#3f1982"/><stop offset="1" stop-color="#5e239e"/></linearGradient><linearGradient id="New_Gradient_Swatch_copy_36-2" x1="61.5" y1="33.43" x2="75.24" y2="29.71" xlink:href="#New_Gradient_Swatch_copy_36"/></defs><g class="cls-31"><g id="Layer_2"><g id="Layer_1-2"><g><ellipse class="cls-7" cx="66.41" cy="107.2" rx="12.32" ry="6.65"/><path class="cls-8" d="M73.17,105.59h-17.46v2.39c0,2.81,3.91,5.08,8.73,5.08s8.73-2.28,8.73-5.08v-2.39Z"/><ellipse class="cls-22" cx="64.44" cy="105.62" rx="8.73" ry="5.08"/><path class="cls-2" d="M64.44,110.69c-4.77,0-8.64-2.23-8.72-4.99,0,.03,0,.06,0,.09,0,2.81,3.91,5.08,8.73,5.08s8.73-2.28,8.73-5.08c0-.03,0-.06,0-.09-.08,2.76-3.96,4.99-8.72,4.99Z"/><path class="cls-20" d="M67.96,65.74h-6.91v39.66c0,1.11,1.55,2.01,3.45,2.01s3.45-.9,3.45-2.01v-39.66Z"/><path class="cls-3" d="M67.96,65.74h-6.91v39.66c0,1.11,1.55,2.01,3.45,2.01s3.45-.9,3.45-2.01v-39.66Z"/><path class="cls-21" d="M51.69,75.75l-30.83-17.8v-19.41c0-11.35,6.9-16.57,15.42-11.66h0c8.51,4.92,15.42,18.1,15.42,29.46v19.41Z"/><polygon class="cls-25" points="20.85 57.95 67.25 30.72 51.69 75.75 20.85 57.95"/><path class="cls-10" d="M36.27,26.88h0c-8.51-4.92-15.42,.3-15.42,11.66v19.41l30.83,17.8v-19.41c0-11.35-6.9-24.54-15.42-29.46Zm14.43,47.16l-28.86-16.66v-18.84c0-7.6,3.26-12.52,8.31-12.52,1.76,0,3.65,.58,5.63,1.72,8.23,4.75,14.92,17.58,14.92,28.6v17.7Z"/><path class="cls-23" d="M5.33,84.5h0c-7.9-4.56-6.91-12.52,2.21-17.79l14.72-8.5,28.5,15.57,.09,.94-14.72,8.5c-9.12,5.26-22.91,5.84-30.81,1.28Z"/><path class="cls-24" d="M5.33,83.54h0c-7.9-4.56-6.91-12.52,2.21-17.79l14.72-8.5,28.59,16.51-14.72,8.5c-9.12,5.26-22.91,5.84-30.81,1.28Z"/><g><path class="cls-6" d="M36.14,83.22l3.11-1.79,12.35-13.95c.93-1.05,.2-2.34-1.62-2.88l-17.53-5.22c-1.82-.54-4.05-.13-4.98,.92l-15.14,17.09c-.93,1.05-.21,2.34,1.62,2.88l17.33,5.16c1.71-.61,3.35-1.34,4.86-2.21Z"/><path class="cls-19" d="M26.86,59.47l-15.14,17.09c-.93,1.05-.21,2.34,1.62,2.88l17.53,5.22c1.82,.54,4.05,.13,4.98-.92l15.14-17.09c.93-1.05,.21-2.34-1.62-2.88l-17.53-5.22c-1.82-.54-4.05-.13-4.98,.92Z"/><path class="cls-15" d="M50.99,66.05l-15.14,17.09c-.93,1.05-3.16,1.46-4.98,.92l-17.53-5.22c-1.11-.33-1.81-.94-1.98-1.61-.22,.88,.53,1.79,1.98,2.22l17.53,5.22c1.82,.54,4.05,.13,4.98-.92l15.14-17.09c.36-.41,.47-.85,.36-1.28-.06,.23-.17,.45-.36,.66Z"/><path class="cls-6" d="M50.42,65.23l-15.74,3.83,2.21,4.21s-3.14,.61-7.19,1.4l3.81,9.66s-5.01-8.47-5.52-9.33c-7.14,1.39-15.99,3.11-15.99,3.1l22.96-5.4s-5.75-13.98-5.73-13.99l4.92,9.36c1.66-.29,16.26-2.84,16.26-2.83Z"/><polygon class="cls-11" points="12 78.09 34.96 72.69 29.23 58.7 34 72.46 12 78.09"/><polygon class="cls-5" points="12 78.09 34.96 72.69 29.23 58.7 35.9 72.92 12 78.09"/></g><g><path class="cls-6" d="M41.43,48.73l-23.5,13.57c-1.44,.83-1.43,2.19,.02,3.02l13.96,8.06c1.45,.84,3.8,.84,5.24,0l23.5-13.57c1.44-.83,1.43-2.19-.02-3.02l-13.96-8.06c-1.45-.84-3.8-.84-5.24,0Z"/><path class="cls-30" d="M40.9,47.71l-23.5,13.57c-1.44,.83-1.43,2.19,.02,3.02l13.96,8.06c1.45,.84,3.8,.84,5.24,0l23.5-13.57c1.44-.83,1.43-2.19-.02-3.02l-13.96-8.06c-1.45-.84-3.8-.84-5.24,0Z"/><path class="cls-14" d="M60.11,58.1l-23.5,13.57c-1.44,.83-3.79,.83-5.24,0l-13.96-8.06c-.58-.33-.91-.75-1.04-1.18-.19,.66,.15,1.36,1.04,1.87l13.96,8.06c1.45,.84,3.8,.84,5.24,0l23.5-13.57c.87-.5,1.2-1.19,1.02-1.85-.12,.42-.46,.83-1.02,1.15Z"/><path class="cls-6" d="M60.32,57.34l-17.04,.86-.12,4.39s-3.32,.03-7.6,.06l-1.48,9.85s-.29-8.93-.32-9.83c-7.55,.06-16.9,.13-16.9,.12l24.77-1.08s1.92-14.3,1.94-14.3l-.26,9.76c1.74,.02,17.02,.17,17.01,.19Z"/><polygon class="cls-11" points="16.86 62.78 41.63 61.7 43.57 47.39 40.83 61.31 16.86 62.78"/><polygon class="cls-5" points="16.86 62.78 41.63 61.7 43.57 47.39 42.4 62.09 16.86 62.78"/></g><path class="cls-29" d="M79.99,1.85h0c-3.7-2.13-7.09-2.36-9.74-1l-.03-.05L26.87,25.58l.06,.11c2.59-1.14,5.83-.84,9.34,1.19h0c8.51,4.92,15.42,18.1,15.42,29.46v19.41l43.72-25.03V31.31c0-11.35-6.9-24.54-15.42-29.46Z"/><path class="cls-13" d="M93.53,15.35c2.67,6.96-9.91,18.27-28.1,25.26-18.2,6.99-35.11,7.02-37.79,.07-2.67-6.96,9.91-18.27,28.1-25.26,18.2-6.99,35.11-7.02,37.79-.07Z"/><g><path class="cls-4" d="M56.93,50.91c0,2.46,1.74,3.45,3.88,2.21,2.15-1.24,3.88-4.24,3.88-6.7s-1.74-3.45-3.88-2.21c-2.15,1.24-3.88,4.24-3.88,6.7Z"/><path class="cls-12" d="M57.65,49.72c0,1.04,.36,1.78,.95,2.14,.02,.01,.77,.51,.78,.52,.61,.34,.22-.43,1.15-.97,1.86-1.08,3.37-3.68,3.37-5.82,0-1.06,.98-1.07,.38-1.42-.02,0-.88-.53-.9-.54-.61-.33-1.44-.27-2.36,.26-1.86,1.08-3.37,3.68-3.37,5.82Z"/><path class="cls-28" d="M58.52,50.27c0,2.14,1.51,3,3.37,1.92,1.86-1.08,3.37-3.68,3.37-5.82s-1.51-3-3.37-1.92c-1.86,1.08-3.37,3.68-3.37,5.82Z"/><path class="cls-1" d="M61.69,44.31c.97-.56,1.84-.59,2.45-.19-.55-.14-1.23-.03-1.96,.4-1.86,1.08-3.37,3.68-3.37,5.82,0,1.03,.35,1.75,.92,2.11-.85-.21-1.41-1.03-1.41-2.32,0-2.14,1.51-4.74,3.37-5.82Z"/></g><path class="cls-26" d="M63.51,33.37h-3.19v15.13c0,.51,.71,.93,1.6,.93s1.6-.42,1.6-.93v-15.13Z"/><g class="cls-9"><path class="cls-17" d="M63.51,33.37h-3.19v15.13c0,.51,.71,.93,1.6,.93s1.6-.42,1.6-.93v-15.13Z"/></g><polygon class="cls-27" points="69.83 32.09 69.84 32.75 60.32 37.58 60.32 31.57 69.83 26.08 69.82 26.67 66.84 30.81 69.83 32.09"/><polygon class="cls-16" points="69.83 32.73 60.32 38.22 60.32 32.21 69.83 26.71 66.84 31.44 69.83 32.73"/><path class="cls-10" d="M36.27,26.88h0c-2.53-1.46-4.91-2.02-7.02-1.8l.44,.96c.15,0,.3-.03,.45-.03,1.76,0,3.65,.58,5.63,1.72,8.23,4.75,14.92,17.58,14.92,28.6v17.7l.99,1.71v-19.41c0-11.35-6.9-24.54-15.42-29.46Z"/></g></g></g></g></svg>