<?xml version="1.0" encoding="UTF-8"?><svg id="Layer_2" xmlns="http://www.w3.org/2000/svg" xmlns:xlink="http://www.w3.org/1999/xlink" viewBox="0 0 22.35 29.28"><defs><style>.cls-1{fill:url(#linear-gradient);}.cls-1,.cls-2,.cls-3,.cls-4,.cls-5,.cls-6,.cls-7,.cls-8,.cls-9,.cls-10,.cls-11,.cls-12,.cls-13,.cls-14,.cls-15,.cls-16,.cls-17,.cls-18,.cls-19,.cls-20,.cls-21,.cls-22,.cls-23,.cls-24,.cls-25,.cls-26,.cls-27,.cls-28,.cls-29,.cls-30,.cls-31,.cls-32,.cls-33,.cls-34,.cls-35,.cls-36,.cls-37,.cls-38,.cls-39,.cls-40,.cls-41,.cls-42,.cls-43,.cls-44,.cls-45,.cls-46,.cls-47,.cls-48,.cls-49,.cls-50,.cls-51,.cls-52,.cls-53,.cls-54,.cls-55,.cls-56,.cls-57,.cls-58,.cls-59,.cls-60,.cls-61,.cls-62,.cls-63,.cls-64,.cls-65,.cls-66,.cls-67,.cls-68,.cls-69,.cls-70,.cls-71,.cls-72,.cls-73,.cls-74,.cls-75,.cls-76,.cls-77,.cls-78{fill-rule:evenodd;}.cls-1,.cls-67,.cls-68,.cls-79,.cls-70,.cls-77,.cls-78{opacity:.5;}.cls-2{fill:url(#linear-gradient-39);}.cls-3{fill:url(#linear-gradient-34);}.cls-4{fill:url(#linear-gradient-37);}.cls-5{fill:url(#linear-gradient-35);}.cls-6{fill:url(#linear-gradient-36);}.cls-7{fill:url(#linear-gradient-38);}.cls-8{fill:url(#linear-gradient-31);}.cls-9{fill:url(#linear-gradient-29);}.cls-10{fill:url(#linear-gradient-28);}.cls-11{fill:url(#linear-gradient-25);}.cls-12{fill:url(#linear-gradient-32);}.cls-13{fill:url(#linear-gradient-30);}.cls-14{fill:url(#linear-gradient-33);}.cls-15{fill:url(#linear-gradient-14);}.cls-16{fill:url(#linear-gradient-11);}.cls-17{fill:url(#linear-gradient-13);}.cls-18{fill:url(#linear-gradient-12);}.cls-19{fill:url(#linear-gradient-10);}.cls-20{fill:url(#linear-gradient-15);}.cls-21{fill:url(#linear-gradient-19);}.cls-22{fill:url(#linear-gradient-17);}.cls-23{fill:url(#linear-gradient-16);}.cls-24{fill:url(#linear-gradient-23);}.cls-25{fill:url(#linear-gradient-22);}.cls-26{fill:url(#linear-gradient-20);}.cls-27{fill:url(#linear-gradient-18);}.cls-28{fill:url(#linear-gradient-21);}.cls-29{fill:url(#linear-gradient-26);}.cls-30{fill:url(#linear-gradient-24);}.cls-31{fill:url(#linear-gradient-27);}.cls-32{fill:url(#linear-gradient-42);}.cls-33{fill:url(#linear-gradient-43);}.cls-34{fill:url(#linear-gradient-40);}.cls-35{fill:url(#linear-gradient-41);}.cls-36{fill:url(#linear-gradient-45);}.cls-37{fill:url(#linear-gradient-46);}.cls-38{fill:url(#linear-gradient-44);}.cls-39{fill:url(#linear-gradient-49);}.cls-40{fill:url(#linear-gradient-48);}.cls-41{fill:url(#linear-gradient-47);}.cls-42{fill:url(#linear-gradient-72);}.cls-43{fill:url(#linear-gradient-73);}.cls-44{fill:url(#linear-gradient-70);}.cls-45{fill:url(#linear-gradient-71);}.cls-46{fill:url(#linear-gradient-77);}.cls-47{fill:url(#linear-gradient-78);}.cls-48{fill:url(#linear-gradient-79);}.cls-49{fill:url(#linear-gradient-74);}.cls-50{fill:url(#linear-gradient-62);}.cls-51{fill:url(#linear-gradient-69);}.cls-52{fill:url(#linear-gradient-67);}.cls-53{fill:url(#linear-gradient-68);}.cls-54{fill:url(#linear-gradient-65);}.cls-55{fill:url(#linear-gradient-66);}.cls-56{fill:url(#linear-gradient-63);}.cls-57{fill:url(#linear-gradient-64);}.cls-58{fill:url(#linear-gradient-51);}.cls-59{fill:url(#linear-gradient-52);}.cls-60{fill:url(#linear-gradient-50);}.cls-61{fill:url(#linear-gradient-57);}.cls-62{fill:url(#linear-gradient-55);}.cls-63{fill:url(#linear-gradient-56);}.cls-64{fill:url(#linear-gradient-53);}.cls-65{fill:url(#linear-gradient-54);}.cls-66{fill:url(#linear-gradient-80);}.cls-67,.cls-71{fill:#fdfdfe;}.cls-68{fill:#f1f0fa;}.cls-80{fill:url(#linear-gradient-5);}.cls-69{fill:url(#linear-gradient-75);opacity:.8;}.cls-70{fill:url(#linear-gradient-76);}.cls-81{fill:url(#linear-gradient-59);}.cls-82{fill:url(#linear-gradient-58);}.cls-83{fill:url(#linear-gradient-60);}.cls-84{fill:url(#linear-gradient-61);}.cls-72{fill:url(#linear-gradient-8);}.cls-73{fill:url(#linear-gradient-9);}.cls-74{fill:url(#linear-gradient-4);}.cls-75{fill:url(#linear-gradient-6);}.cls-76{fill:url(#linear-gradient-7);}.cls-77{fill:url(#linear-gradient-3);}.cls-78{fill:url(#linear-gradient-2);}</style><linearGradient id="linear-gradient" x1="-.73" y1="8.78" x2="9.26" y2="21.95" gradientTransform="matrix(1, 0, 0, 1, 0, 0)" gradientUnits="userSpaceOnUse"><stop offset=".32" stop-color="#d0d0ff"/><stop offset=".44" stop-color="#b0b0ff"/><stop offset=".83" stop-color="#5051ff"/><stop offset="1" stop-color="#2b2cff"/></linearGradient><linearGradient id="linear-gradient-2" x1="10.52" y1="1.05" x2="33.11" y2="57.2" xlink:href="#linear-gradient"/><linearGradient id="linear-gradient-3" x1="-75.1" y1="13.78" x2="-64.34" y2="27.64" gradientTransform="translate(65.86 20.17) rotate(30) skewX(49.11)" xlink:href="#linear-gradient"/><linearGradient id="linear-gradient-4" x1="2.18" y1="10.68" x2="6.22" y2="15.52" gradientTransform="translate(8.15 -13.35) rotate(30) skewX(30)" gradientUnits="userSpaceOnUse"><stop offset=".32" stop-color="#b0b0f5"/><stop offset=".79" stop-color="#5051fc"/><stop offset="1" stop-color="#2b2cff"/></linearGradient><linearGradient id="linear-gradient-5" x1="10.64" y1="27.41" x2="4.63" y2="16.99" gradientTransform="translate(8.15 -13.35) rotate(30) skewX(30)" gradientUnits="userSpaceOnUse"><stop offset="0" stop-color="#5a5bff"/><stop offset=".55" stop-color="#7f80ff"/><stop offset="1" stop-color="#a1a1ff"/></linearGradient><linearGradient id="linear-gradient-6" x1="-71.84" y1="16.21" x2="-73.26" y2="15.75" gradientTransform="translate(65.86 20.17) rotate(30) skewX(49.11)" xlink:href="#linear-gradient-5"/><linearGradient id="linear-gradient-7" x1="-72.83" y1="17.93" x2="-74.25" y2="17.47" gradientTransform="translate(65.86 20.17) rotate(30) skewX(49.11)" xlink:href="#linear-gradient-5"/><linearGradient id="linear-gradient-8" x1="-73.32" y1="18.78" x2="-74.74" y2="18.31" gradientTransform="translate(65.86 20.17) rotate(30) skewX(49.11)" xlink:href="#linear-gradient-5"/><linearGradient id="linear-gradient-9" x1="-67.58" y1="15.92" x2="-70.94" y2="15.92" gradientTransform="translate(65.86 20.17) rotate(30) skewX(49.11)" xlink:href="#linear-gradient-5"/><linearGradient id="linear-gradient-10" x1="-67.96" y1="16.58" x2="-71.32" y2="16.58" gradientTransform="translate(65.86 20.17) rotate(30) skewX(49.11)" xlink:href="#linear-gradient-5"/><linearGradient id="linear-gradient-11" x1="-68.33" y1="17.23" x2="-71.7" y2="17.23" gradientTransform="translate(65.86 20.17) rotate(30) skewX(49.11)" xlink:href="#linear-gradient-5"/><linearGradient id="linear-gradient-12" x1="-68.71" y1="17.89" x2="-72.08" y2="17.89" gradientTransform="translate(65.86 20.17) rotate(30) skewX(49.11)" xlink:href="#linear-gradient-5"/><linearGradient id="linear-gradient-13" x1="-69.09" y1="18.55" x2="-72.46" y2="18.55" gradientTransform="translate(65.86 20.17) rotate(30) skewX(49.11)" xlink:href="#linear-gradient-5"/><linearGradient id="linear-gradient-14" x1="-77.07" y1="25.28" x2="-78.49" y2="24.81" gradientTransform="translate(65.86 20.17) rotate(30) skewX(49.11)" xlink:href="#linear-gradient-5"/><linearGradient id="linear-gradient-15" x1="-77.83" y1="26.59" x2="-79.25" y2="26.12" gradientTransform="translate(65.86 20.17) rotate(30) skewX(49.11)" xlink:href="#linear-gradient-5"/><linearGradient id="linear-gradient-16" x1="-78.55" y1="27.85" x2="-79.97" y2="27.38" gradientTransform="translate(65.86 20.17) rotate(30) skewX(49.11)" xlink:href="#linear-gradient-5"/><linearGradient id="linear-gradient-17" x1="-72.81" y1="24.99" x2="-76.18" y2="24.99" gradientTransform="translate(65.86 20.17) rotate(30) skewX(49.11)" xlink:href="#linear-gradient-5"/><linearGradient id="linear-gradient-18" x1="-73.19" y1="25.64" x2="-76.55" y2="25.64" gradientTransform="translate(65.86 20.17) rotate(30) skewX(49.11)" xlink:href="#linear-gradient-5"/><linearGradient id="linear-gradient-19" x1="-73.57" y1="26.3" x2="-76.93" y2="26.3" gradientTransform="translate(65.86 20.17) rotate(30) skewX(49.11)" xlink:href="#linear-gradient-5"/><linearGradient id="linear-gradient-20" x1="-73.95" y1="26.96" x2="-77.31" y2="26.96" gradientTransform="translate(65.86 20.17) rotate(30) skewX(49.11)" xlink:href="#linear-gradient-5"/><linearGradient id="linear-gradient-21" x1="-74.33" y1="27.61" x2="-77.69" y2="27.61" gradientTransform="translate(65.86 20.17) rotate(30) skewX(49.11)" xlink:href="#linear-gradient-5"/><linearGradient id="linear-gradient-22" x1="-75.31" y1="19.57" x2="-74.61" y2="20.11" gradientTransform="translate(65.86 20.17) rotate(30) skewX(49.11)" xlink:href="#linear-gradient"/><linearGradient id="linear-gradient-23" x1="-76.07" y1="20.64" x2="-75.24" y2="21.33" gradientTransform="translate(65.86 20.17) rotate(30) skewX(49.11)" xlink:href="#linear-gradient"/><linearGradient id="linear-gradient-24" x1="-76.79" y1="21.74" x2="-75.95" y2="22.49" gradientTransform="translate(65.86 20.17) rotate(30) skewX(49.11)" xlink:href="#linear-gradient"/><linearGradient id="linear-gradient-25" x1="-77.42" y1="22.75" x2="-76.64" y2="23.71" gradientTransform="translate(65.86 20.17) rotate(30) skewX(49.11)" xlink:href="#linear-gradient"/><linearGradient id="linear-gradient-26" x1="-71.25" y1="20.17" x2="-73.29" y2="19.5" gradientTransform="translate(65.86 20.17) rotate(30) skewX(49.11)" xlink:href="#linear-gradient-5"/><linearGradient id="linear-gradient-27" x1="-71.4" y1="20.43" x2="-73.43" y2="19.76" gradientTransform="translate(65.86 20.17) rotate(30) skewX(49.11)" xlink:href="#linear-gradient-5"/><linearGradient id="linear-gradient-28" x1="-72.71" y1="20.47" x2="-73.7" y2="20.14" gradientTransform="translate(65.86 20.17) rotate(30) skewX(49.11)" xlink:href="#linear-gradient-5"/><linearGradient id="linear-gradient-29" x1="-71.93" y1="21.35" x2="-73.96" y2="20.68" gradientTransform="translate(65.86 20.17) rotate(30) skewX(49.11)" xlink:href="#linear-gradient-5"/><linearGradient id="linear-gradient-30" x1="-72.08" y1="21.6" x2="-74.11" y2="20.93" gradientTransform="translate(65.86 20.17) rotate(30) skewX(49.11)" xlink:href="#linear-gradient-5"/><linearGradient id="linear-gradient-31" x1="-73.38" y1="21.64" x2="-74.38" y2="21.32" gradientTransform="translate(65.86 20.17) rotate(30) skewX(49.11)" xlink:href="#linear-gradient-5"/><linearGradient id="linear-gradient-32" x1="-72.6" y1="22.52" x2="-74.64" y2="21.85" gradientTransform="translate(65.86 20.17) rotate(30) skewX(49.11)" xlink:href="#linear-gradient-5"/><linearGradient id="linear-gradient-33" x1="-72.75" y1="22.77" x2="-74.79" y2="22.1" gradientTransform="translate(65.86 20.17) rotate(30) skewX(49.11)" xlink:href="#linear-gradient-5"/><linearGradient id="linear-gradient-34" x1="-74.06" y1="22.82" x2="-75.05" y2="22.49" gradientTransform="translate(65.86 20.17) rotate(30) skewX(49.11)" xlink:href="#linear-gradient-5"/><linearGradient id="linear-gradient-35" x1="-73.28" y1="23.69" x2="-75.32" y2="23.02" gradientTransform="translate(65.86 20.17) rotate(30) skewX(49.11)" xlink:href="#linear-gradient-5"/><linearGradient id="linear-gradient-36" x1="-73.43" y1="23.95" x2="-75.46" y2="23.28" gradientTransform="translate(65.86 20.17) rotate(30) skewX(49.11)" xlink:href="#linear-gradient-5"/><linearGradient id="linear-gradient-37" x1="-74.74" y1="23.99" x2="-75.73" y2="23.66" gradientTransform="translate(65.86 20.17) rotate(30) skewX(49.11)" xlink:href="#linear-gradient-5"/><linearGradient id="linear-gradient-38" x1="-58.33" y1="15.81" x2="-62.65" y2="13.24" gradientTransform="translate(65.86 20.17) rotate(30) skewX(49.11)" xlink:href="#linear-gradient-5"/><linearGradient id="linear-gradient-39" x1="-61.01" y1="15.85" x2="-63.49" y2="14.38" gradientTransform="translate(65.86 20.17) rotate(30) skewX(49.11)" xlink:href="#linear-gradient-5"/><linearGradient id="linear-gradient-40" x1="-63.59" y1="17.06" x2="-66.06" y2="15.59" gradientTransform="translate(65.86 20.17) rotate(30) skewX(49.11)" xlink:href="#linear-gradient-5"/><linearGradient id="linear-gradient-41" x1="-56.93" y1="20.52" x2="-64.13" y2="16.23" gradientTransform="translate(65.86 20.17) rotate(30) skewX(49.11)" xlink:href="#linear-gradient-5"/><linearGradient id="linear-gradient-42" x1="-57.12" y1="20.84" x2="-64.31" y2="16.55" gradientTransform="translate(65.86 20.17) rotate(30) skewX(49.11)" xlink:href="#linear-gradient-5"/><linearGradient id="linear-gradient-43" x1="-60.61" y1="19.82" x2="-65.57" y2="16.86" gradientTransform="translate(65.86 20.17) rotate(30) skewX(49.11)" xlink:href="#linear-gradient-5"/><linearGradient id="linear-gradient-44" x1="-66.4" y1="21.92" x2="-68.87" y2="20.45" gradientTransform="translate(65.86 20.17) rotate(30) skewX(49.11)" xlink:href="#linear-gradient-5"/><linearGradient id="linear-gradient-45" x1="-59.74" y1="25.38" x2="-66.93" y2="21.09" gradientTransform="translate(65.86 20.17) rotate(30) skewX(49.11)" xlink:href="#linear-gradient-5"/><linearGradient id="linear-gradient-46" x1="-59.93" y1="25.71" x2="-67.12" y2="21.41" gradientTransform="translate(65.86 20.17) rotate(30) skewX(49.11)" xlink:href="#linear-gradient-5"/><linearGradient id="linear-gradient-47" x1="-63.41" y1="24.68" x2="-68.38" y2="21.72" gradientTransform="translate(65.86 20.17) rotate(30) skewX(49.11)" xlink:href="#linear-gradient-5"/><linearGradient id="linear-gradient-48" x1="-67.73" y1="24.23" x2="-70.2" y2="22.76" gradientTransform="translate(65.86 20.17) rotate(30) skewX(49.11)" xlink:href="#linear-gradient-5"/><linearGradient id="linear-gradient-49" x1="-61.07" y1="27.69" x2="-68.26" y2="23.4" gradientTransform="translate(65.86 20.17) rotate(30) skewX(49.11)" xlink:href="#linear-gradient-5"/><linearGradient id="linear-gradient-50" x1="-61.26" y1="28.01" x2="-68.45" y2="23.72" gradientTransform="translate(65.86 20.17) rotate(30) skewX(49.11)" xlink:href="#linear-gradient-5"/><linearGradient id="linear-gradient-51" x1="-64.74" y1="26.99" x2="-69.71" y2="24.02" gradientTransform="translate(65.86 20.17) rotate(30) skewX(49.11)" xlink:href="#linear-gradient-5"/><linearGradient id="linear-gradient-52" x1="-70.51" y1="29.06" x2="-72.99" y2="27.58" gradientTransform="translate(65.86 20.17) rotate(30) skewX(49.11)" gradientUnits="userSpaceOnUse"><stop offset="0" stop-color="#3839ff"/><stop offset=".55" stop-color="#5d5eff"/><stop offset="1" stop-color="#7f7fff"/></linearGradient><linearGradient id="linear-gradient-53" x1="-63.86" y1="32.52" x2="-71.05" y2="28.22" xlink:href="#linear-gradient-52"/><linearGradient id="linear-gradient-54" x1="-64.04" y1="32.84" x2="-71.24" y2="28.54" xlink:href="#linear-gradient-52"/><linearGradient id="linear-gradient-55" x1="-67.53" y1="31.81" x2="-72.5" y2="28.85" xlink:href="#linear-gradient-52"/><linearGradient id="linear-gradient-56" x1="-73.01" y1="28.38" x2="-80.56" y2="28.38" gradientTransform="translate(65.86 20.17) rotate(30) skewX(49.11)" xlink:href="#linear-gradient-5"/><linearGradient id="linear-gradient-57" x1="-73.25" y1="28.79" x2="-80.79" y2="28.79" gradientTransform="translate(65.86 20.17) rotate(30) skewX(49.11)" xlink:href="#linear-gradient-5"/><linearGradient id="linear-gradient-58" x1="9.59" y1="18.91" x2="9.01" y2="17.91" xlink:href="#linear-gradient-5"/><linearGradient id="linear-gradient-59" x1="11.26" y1="18.91" x2="10.68" y2="17.91" xlink:href="#linear-gradient-5"/><linearGradient id="linear-gradient-60" x1="12.93" y1="18.91" x2="12.35" y2="17.91" xlink:href="#linear-gradient-5"/><linearGradient id="linear-gradient-61" x1="14.6" y1="18.91" x2="14.02" y2="17.91" xlink:href="#linear-gradient-5"/><linearGradient id="linear-gradient-62" x1="-69.85" y1="19.18" x2="-67.8" y2="19.19" gradientTransform="translate(65.86 20.17) rotate(30) skewX(49.11)" xlink:href="#linear-gradient"/><linearGradient id="linear-gradient-63" x1="-69.77" y1="19.46" x2="-68.34" y2="19.47" gradientTransform="translate(65.86 20.17) rotate(30) skewX(49.11)" xlink:href="#linear-gradient"/><linearGradient id="linear-gradient-64" x1="-68.41" y1="19.14" x2="-66.3" y2="19.2" gradientTransform="translate(65.86 20.17) rotate(30) skewX(49.11)" xlink:href="#linear-gradient"/><linearGradient id="linear-gradient-65" x1="-68.27" y1="19.43" x2="-66.8" y2="19.47" gradientTransform="translate(65.86 20.17) rotate(30) skewX(49.11)" xlink:href="#linear-gradient"/><linearGradient id="linear-gradient-66" x1="-66.85" y1="19.13" x2="-64.52" y2="19.21" gradientTransform="translate(65.86 20.17) rotate(30) skewX(49.11)" xlink:href="#linear-gradient"/><linearGradient id="linear-gradient-67" x1="-66.68" y1="19.42" x2="-65.05" y2="19.48" gradientTransform="translate(65.86 20.17) rotate(30) skewX(49.11)" xlink:href="#linear-gradient"/><linearGradient id="linear-gradient-68" x1="-65.01" y1="19.03" x2="-63.04" y2="19.22" gradientTransform="translate(65.86 20.17) rotate(30) skewX(49.11)" xlink:href="#linear-gradient"/><linearGradient id="linear-gradient-69" x1="-64.9" y1="19.35" x2="-63.53" y2="19.49" gradientTransform="translate(65.86 20.17) rotate(30) skewX(49.11)" xlink:href="#linear-gradient"/><linearGradient id="linear-gradient-70" x1="14.88" y1="27.69" x2="10.46" y2="25.05" gradientTransform="translate(8.15 -13.35) rotate(30) skewX(30)" xlink:href="#linear-gradient"/><linearGradient id="linear-gradient-71" x1="12.57" y1="27.14" x2="9.71" y2="25.43" gradientTransform="translate(8.15 -13.35) rotate(30) skewX(30)" xlink:href="#linear-gradient"/><linearGradient id="linear-gradient-72" x1="16.29" y1="29.05" x2="10.92" y2="25.84" gradientTransform="translate(8.15 -13.35) rotate(30) skewX(30)" xlink:href="#linear-gradient"/><linearGradient id="linear-gradient-73" x1="13.95" y1="28.48" x2="10.16" y2="26.22" gradientTransform="translate(8.15 -13.35) rotate(30) skewX(30)" xlink:href="#linear-gradient"/><linearGradient id="linear-gradient-74" x1="17.48" y1="30.3" x2="11.31" y2="26.61" gradientTransform="translate(8.15 -13.35) rotate(30) skewX(30)" xlink:href="#linear-gradient"/><linearGradient id="linear-gradient-75" x1="3.7" y1="1.61" x2="11.03" y2="18.44" gradientTransform="matrix(1, 0, 0, 1, 0, 0)" gradientUnits="userSpaceOnUse"><stop offset=".14" stop-color="#8788e2"/><stop offset=".39" stop-color="#5a5abe"/><stop offset=".66" stop-color="#2f2f9c"/><stop offset=".87" stop-color="#141486"/><stop offset="1" stop-color="#0b0b7f"/></linearGradient><linearGradient id="linear-gradient-76" x1="4.96" y1="-.83" x2="8.91" y2="7.57" gradientTransform="matrix(1, 0, 0, 1, 0, 0)" gradientUnits="userSpaceOnUse"><stop offset=".32" stop-color="#9999f5"/><stop offset=".75" stop-color="#5051fb"/><stop offset="1" stop-color="#2b2cff"/></linearGradient><linearGradient id="linear-gradient-77" x1="-5.84" y1="14" x2="1.04" y2="22.23" gradientTransform="translate(8.15 -13.35) rotate(30) skewX(30)" gradientUnits="userSpaceOnUse"><stop offset="0" stop-color="#e0dffc"/><stop offset="1" stop-color="#9a9be8"/></linearGradient><linearGradient id="linear-gradient-78" x1="7.78" y1="10.73" x2="5.49" y2="11.36" gradientTransform="matrix(1, 0, 0, 1, 0, 0)" gradientUnits="userSpaceOnUse"><stop offset="0" stop-color="#9a9be8"/><stop offset="1" stop-color="#c6c6f2"/></linearGradient><linearGradient id="linear-gradient-79" x1="-11.3" y1="103.48" x2="-14.12" y2="104.25" gradientTransform="translate(-34.4 -131.7) rotate(30) skewX(49.11)" xlink:href="#linear-gradient-78"/><linearGradient id="linear-gradient-80" x1="-12.03" y1="103.98" x2="-13.84" y2="104.47" gradientTransform="translate(-34.4 -131.7) rotate(30) skewX(49.11)" xlink:href="#linear-gradient-78"/></defs><g id="Layer_1-2"><g><path class="cls-1" d="M10.62,18.37c-.16,.24-.6,.56-1.58-.46-.29-.84-.84-1.62-1.46-1.98L1.69,12.54c-.93-.54-1.69,.03-1.69,1.27H0c0,1.24,.75,2.68,1.69,3.22l5.89,3.4c.88,.51,1.6,.03,1.68-1.08,.44,.13,1.14,.15,1.4-.94,0-.03-.03-.07-.04-.05Z"/><g class="cls-79"><path class="cls-71" d="M7.39,17.37L1.84,14.16c-.1-.06-.17-.2-.17-.33h0c0-.13,.08-.19,.17-.13l5.55,3.21c.1,.06,.17,.2,.17,.33h0c0,.13-.08,.19-.17,.13Z"/><path class="cls-71" d="M7.39,18.39L1.84,15.18c-.1-.06-.17-.2-.17-.33h0c0-.13,.08-.19,.17-.13l5.55,3.21c.1,.06,.17,.2,.17,.33h0c0,.13-.08,.19-.17,.13Z"/><path class="cls-71" d="M5.48,18.3l-3.64-2.1c-.1-.06-.17-.2-.17-.33h0c0-.13,.08-.19,.17-.13l3.64,2.1c.1,.06,.17,.2,.17,.33h0c0,.13-.08,.19-.17,.13Z"/></g></g><g><path class="cls-78" d="M21.97,29.09l-11.72-6.77c-.21-.12-.38-.45-.38-.72V1.1c0-.28,.17-.41,.38-.29l11.72,6.77c.21,.12,.38,.45,.38,.72V28.8c0,.28-.17,.41-.38,.29Z"/><path class="cls-77" d="M21.63,29.24l-11.72-6.77c-.21-.12-.38-.45-.38-.73V1.25c0-.28,.17-.41,.38-.29l11.72,6.77c.21,.12,.38,.45,.38,.72V28.95c0,.28-.17,.41-.38,.29Z"/><g><g><path class="cls-74" d="M13.31,5.42c0,.81-.49,1.18-1.09,.83-.6-.35-1.09-1.28-1.09-2.09s.49-1.18,1.09-.83,1.09,1.28,1.09,2.09Z"/><path class="cls-68" d="M12.47,4.49c0,.2-.12,.3-.26,.22-.14-.08-.26-.31-.26-.51s.12-.3,.26-.22c.14,.08,.26,.31,.26,.51Z"/><path class="cls-68" d="M12.87,5.73c.03,.18-.02,.32-.12,.35-.15,.05-.34,.02-.54-.09-.2-.11-.38-.3-.54-.53-.1-.15-.15-.35-.12-.49,.07-.33,.19-.34,.66-.07,.46,.27,.58,.41,.66,.83Z"/></g><rect class="cls-80" x="14.74" y="8.09" width=".05" height="16.03"/><g><path class="cls-75" d="M11.34,7.22l-1-.58c-.06-.03-.1-.12-.1-.19h0c0-.07,.04-.11,.1-.08l1,.58c.06,.03,.1,.12,.1,.19h0c0,.07-.04,.11-.1,.08Z"/><path class="cls-76" d="M11.34,9.2l-1-.58c-.06-.03-.1-.12-.1-.19h0c0-.07,.04-.11,.1-.08l1,.58c.06,.03,.1,.12,.1,.19h0c0,.07-.04,.11-.1,.08Z"/><path class="cls-72" d="M11.34,10.18l-1-.58c-.06-.03-.1-.12-.1-.19h0c0-.07,.04-.11,.1-.08l1,.58c.06,.03,.1,.12,.1,.19h0c0,.07-.04,.11-.1,.08Z"/><path class="cls-73" d="M14.02,8.56l-1.6-.92s-.05,0-.05,.04h0s.02,.08,.05,.1l1.6,.92s.05,0,.05-.04h0s-.02-.08-.05-.1Z"/><path class="cls-19" d="M14.02,9.32l-1.6-.92s-.05,0-.05,.04h0s.02,.08,.05,.1l1.6,.92s.05,0,.05-.04h0s-.02-.08-.05-.1Z"/><path class="cls-16" d="M14.02,10.07l-1.6-.92s-.05,0-.05,.04h0s.02,.08,.05,.1l1.6,.92s.05,0,.05-.04h0s-.02-.08-.05-.1Z"/><path class="cls-18" d="M14.02,10.83l-1.6-.92s-.05,0-.05,.04h0s.02,.08,.05,.1l1.6,.92s.05,0,.05-.04h0s-.02-.08-.05-.1Z"/><path class="cls-17" d="M14.02,11.59l-1.6-.92s-.05,0-.05,.04h0s.02,.08,.05,.1l1.6,.92s.05,0,.05-.04h0s-.02-.08-.05-.1Z"/></g><g><path class="cls-15" d="M11.34,17.68l-1-.58c-.06-.03-.1-.12-.1-.19h0c0-.07,.04-.11,.1-.08l1,.58c.06,.03,.1,.12,.1,.19h0c0,.07-.04,.11-.1,.08Z"/><path class="cls-20" d="M11.34,19.2l-1-.58c-.06-.03-.1-.12-.1-.19h0c0-.07,.04-.11,.1-.08l1,.58c.06,.03,.1,.12,.1,.19h0c0,.07-.04,.11-.1,.08Z"/><path class="cls-23" d="M11.34,20.65l-1-.58c-.06-.03-.1-.12-.1-.19h0c0-.07,.04-.11,.1-.08l1,.58c.06,.03,.1,.12,.1,.19h0c0,.07-.04,.11-.1,.08Z"/><path class="cls-22" d="M14.02,19.03l-1.6-.92s-.05,0-.05,.04h0s.02,.08,.05,.1l1.6,.92s.05,0,.05-.04h0s-.02-.08-.05-.1Z"/><path class="cls-27" d="M14.02,19.78l-1.6-.92s-.05,0-.05,.04h0s.02,.08,.05,.1l1.6,.92s.05,0,.05-.04h0s-.02-.08-.05-.1Z"/><path class="cls-21" d="M14.02,20.54l-1.6-.92s-.05,0-.05,.04h0s.02,.08,.05,.1l1.6,.92s.05,0,.05-.04h0s-.02-.08-.05-.1Z"/><path class="cls-26" d="M14.02,21.3l-1.6-.92s-.05,0-.05,.04h0s.02,.08,.05,.1l1.6,.92s.05,0,.05-.04h0s-.02-.08-.05-.1Z"/><path class="cls-28" d="M14.02,22.06l-1.6-.92s-.05,0-.05,.04h0s.02,.08,.05,.1l1.6,.92s.05,0,.05-.04h0s-.02-.08-.05-.1Z"/></g><g><path class="cls-25" d="M11.27,12.06l-.36-.21s-.07-.08-.07-.13v-.48c0-.05,.03-.07,.07-.05l.36,.21s.07,.08,.07,.13v.48c0,.05-.03,.07-.07,.05Z"/><path class="cls-24" d="M11.27,13.41l-.36-.21s-.07-.08-.07-.13v-.48c0-.05,.03-.07,.07-.05l.36,.21s.07,.08,.07,.13v.48c0,.05-.03,.07-.07,.05Z"/><path class="cls-30" d="M11.27,14.77l-.36-.21s-.07-.08-.07-.13v-.48c0-.05,.03-.07,.07-.05l.36,.21s.07,.08,.07,.13v.48c0,.05-.03,.07-.07,.05Z"/><path class="cls-11" d="M11.27,16.12l-.36-.21s-.07-.08-.07-.13v-.48c0-.05,.03-.07,.07-.05l.36,.21s.07,.08,.07,.13v.48c0,.05-.03,.07-.07,.05Z"/></g><g><path class="cls-29" d="M13.74,12.97l-1.61-.93s-.06-.06-.06-.11h0s.02-.06,.06-.04l1.61,.93s.05,.06,.05,.11h0s-.02,.06-.05,.04Z"/><path class="cls-31" d="M13.74,13.26l-1.61-.93s-.06-.06-.06-.11h0s.02-.06,.06-.04l1.61,.93s.05,.06,.05,.11h0s-.02,.06-.05,.04Z"/><path class="cls-10" d="M12.86,13.05l-.73-.42s-.06-.06-.06-.11h0s.02-.06,.06-.04l.73,.42s.05,.06,.05,.11h0s-.02,.06-.05,.04Z"/></g><g><path class="cls-9" d="M13.74,14.32l-1.61-.93s-.06-.06-.06-.11h0s.02-.06,.06-.04l1.61,.93s.05,.06,.05,.11h0s-.02,.06-.05,.04Z"/><path class="cls-13" d="M13.74,14.61l-1.61-.93s-.06-.06-.06-.11h0s.02-.06,.06-.04l1.61,.93s.05,.06,.05,.11h0s-.02,.06-.05,.04Z"/><path class="cls-8" d="M12.86,14.4l-.73-.42s-.06-.06-.06-.11h0s.02-.06,.06-.04l.73,.42s.05,.06,.05,.11h0s-.02,.06-.05,.04Z"/></g><g><path class="cls-12" d="M13.74,15.67l-1.61-.93s-.06-.06-.06-.11h0s.02-.06,.06-.04l1.61,.93s.05,.06,.05,.11h0s-.02,.06-.05,.04Z"/><path class="cls-14" d="M13.74,15.97l-1.61-.93s-.06-.06-.06-.11h0s.02-.06,.06-.04l1.61,.93s.05,.06,.05,.11h0s-.02,.06-.05,.04Z"/><path class="cls-3" d="M12.86,15.75l-.73-.42s-.06-.06-.06-.11h0s.02-.06,.06-.04l.73,.42s.05,.06,.05,.11h0s-.02,.06-.05,.04Z"/></g><g><path class="cls-5" d="M13.74,17.03l-1.61-.93s-.06-.06-.06-.11h0s.02-.06,.06-.04l1.61,.93s.05,.06,.05,.11h0s-.02,.06-.05,.04Z"/><path class="cls-6" d="M13.74,17.32l-1.61-.93s-.06-.06-.06-.11h0s.02-.06,.06-.04l1.61,.93s.05,.06,.05,.11h0s-.02,.06-.05,.04Z"/><path class="cls-4" d="M12.86,17.11l-.73-.42s-.06-.06-.06-.11h0s.02-.06,.06-.04l.73,.42s.05,.06,.05,.11h0s-.02,.06-.05,.04Z"/></g><path class="cls-7" d="M19.78,9.26l-3.25-1.88c-.07-.04-.12-.14-.12-.24v-.57c0-.09,.06-.13,.12-.09l3.25,1.88c.07,.04,.12,.14,.12,.24v.57c0,.09-.06,.13-.12,.09Z"/><path class="cls-2" d="M18.95,9.92l-1.83-1.06s-.09-.1-.09-.17v-.28c0-.07,.04-.1,.09-.07l1.83,1.05s.09,.1,.09,.17v.28c0,.07-.04,.1-.09,.07Z"/><g><path class="cls-34" d="M17.34,10.28l-1.86-1.07s-.07-.09-.07-.14v-.11c0-.05,.03-.08,.07-.06l1.86,1.07s.07,.09,.07,.14v.11c0,.05-.03,.08-.07,.06Z"/><path class="cls-35" d="M21.2,13.13l-5.74-3.31s-.05-.06-.05-.1h0s.02-.06,.05-.04l5.74,3.31s.05,.06,.05,.1h0s-.02,.06-.05,.04Z"/><path class="cls-32" d="M21.2,13.5l-5.74-3.31s-.05-.06-.05-.1h0s.02-.06,.05-.04l5.74,3.31s.05,.06,.05,.1h0s-.02,.06-.05,.04Z"/><path class="cls-33" d="M19.39,12.83l-3.93-2.27s-.05-.06-.05-.1h0s.02-.06,.05-.04l3.93,2.27s.05,.06,.05,.1h0s-.02,.06-.05,.04Z"/></g><g><path class="cls-38" d="M17.34,15.9l-1.86-1.07s-.07-.09-.07-.14v-.11c0-.05,.03-.08,.07-.06l1.86,1.07s.07,.09,.07,.14v.11c0,.05-.03,.08-.07,.06Z"/><path class="cls-36" d="M21.2,18.74l-5.74-3.31s-.05-.06-.05-.1h0s.02-.06,.05-.04l5.74,3.31s.05,.06,.05,.1h0s-.02,.06-.05,.04Z"/><path class="cls-37" d="M21.2,19.12l-5.74-3.31s-.05-.06-.05-.1h0s.02-.06,.05-.04l5.74,3.31s.05,.06,.05,.1h0s-.02,.06-.05,.04Z"/><path class="cls-41" d="M19.39,18.44l-3.93-2.27s-.05-.06-.05-.1h0s.02-.06,.05-.04l3.93,2.27s.05,.06,.05,.1h0s-.02,.06-.05,.04Z"/></g><g><path class="cls-40" d="M17.34,18.56l-1.86-1.07s-.07-.09-.07-.14v-.11c0-.05,.03-.08,.07-.06l1.86,1.07s.07,.09,.07,.14v.11c0,.05-.03,.08-.07,.06Z"/><path class="cls-39" d="M21.2,21.4l-5.74-3.31s-.05-.06-.05-.1h0s.02-.06,.05-.04l5.74,3.31s.05,.06,.05,.1h0s-.02,.06-.05,.04Z"/><path class="cls-60" d="M21.2,21.78l-5.74-3.31s-.05-.06-.05-.1h0s.02-.06,.05-.04l5.74,3.31s.05,.06,.05,.1h0s-.02,.06-.05,.04Z"/><path class="cls-58" d="M19.39,21.11l-3.93-2.27s-.05-.06-.05-.1h0s.02-.06,.05-.04l3.93,2.27s.05,.06,.05,.1h0s-.02,.06-.05,.04Z"/></g><g><path class="cls-59" d="M17.34,24.13l-1.86-1.07s-.07-.09-.07-.14v-.11c0-.05,.03-.08,.07-.06l1.86,1.07s.07,.09,.07,.14v.11c0,.05-.03,.08-.07,.06Z"/><path class="cls-64" d="M21.2,26.98l-5.74-3.31s-.05-.06-.05-.1h0s.02-.06,.05-.04l5.74,3.31s.05,.06,.05,.1h0s-.02,.06-.05,.04Z"/><path class="cls-65" d="M21.2,27.35l-5.74-3.31s-.05-.06-.05-.1h0s.02-.06,.05-.04l5.74,3.31s.05,.06,.05,.1h0s-.02,.06-.05,.04Z"/><path class="cls-62" d="M19.39,26.68l-3.93-2.27s-.05-.06-.05-.1h0s.02-.06,.05-.04l3.93,2.27s.05,.06,.05,.1h0s-.02,.06-.05,.04Z"/></g><path class="cls-63" d="M14.02,22.95l-3.72-2.15s-.05,0-.05,.04h0s.02,.08,.05,.1l3.72,2.15s.05,0,.05-.04h0s-.02-.08-.05-.1Z"/><path class="cls-61" d="M14.02,23.42l-3.72-2.15s-.05,0-.05,.04h0s.02,.08,.05,.1l3.72,2.15s.05,0,.05-.04h0s-.02-.08-.05-.1Z"/><g><path class="cls-82" d="M16.37,13.29c-.07,0-.15-.02-.22-.07-.27-.16-.48-.56-.48-.91,0-.21,.07-.37,.2-.44,.11-.06,.25-.06,.39,.02,.27,.16,.48,.56,.48,.91,0,.21-.07,.37-.2,.44-.05,.03-.11,.04-.16,.04Zm-.34-1.24s-.04,0-.06,.01c-.06,.03-.09,.13-.09,.25,0,.28,.17,.61,.37,.72,.05,.03,.12,.05,.17,.02,.06-.03,.09-.13,.09-.25,0-.28-.17-.61-.37-.72-.03-.02-.07-.04-.12-.04Z"/><path class="cls-81" d="M17.82,14.12c-.07,0-.15-.02-.22-.07-.27-.16-.48-.56-.48-.91,0-.21,.07-.37,.2-.44,.11-.07,.25-.06,.39,.02,.27,.16,.48,.56,.48,.91,0,.21-.07,.37-.2,.44-.05,.03-.11,.04-.16,.04Zm-.34-1.24s-.04,0-.06,.01c-.06,.03-.09,.13-.09,.25,0,.28,.17,.61,.37,.72,.05,.03,.12,.05,.17,.02,.06-.03,.09-.13,.09-.25,0-.28-.17-.61-.37-.72-.03-.02-.07-.04-.12-.04Z"/><path class="cls-83" d="M19.26,14.96c-.07,0-.15-.02-.22-.07-.27-.16-.48-.56-.48-.91,0-.21,.07-.37,.2-.44,.11-.07,.25-.06,.39,.02,.27,.16,.48,.56,.48,.91,0,.21-.07,.37-.2,.44-.05,.03-.11,.04-.16,.04Zm-.34-1.24s-.04,0-.06,.01c-.06,.03-.09,.13-.09,.25,0,.28,.17,.61,.37,.72,.05,.03,.12,.05,.17,.02,.06-.03,.09-.13,.09-.25,0-.28-.17-.61-.37-.72-.03-.02-.07-.04-.12-.04Z"/><path class="cls-84" d="M20.71,15.79c-.07,0-.15-.02-.22-.07-.27-.16-.48-.56-.48-.91,0-.21,.07-.37,.2-.44,.11-.06,.25-.06,.39,.02,.27,.16,.48,.56,.48,.91,0,.21-.07,.37-.2,.44-.05,.03-.11,.04-.16,.04Zm-.34-1.24s-.04,0-.06,.01c-.06,.03-.09,.13-.09,.25,0,.28,.17,.61,.37,.72,.05,.03,.12,.05,.17,.02,.06-.03,.09-.13,.09-.25,0-.28-.17-.61-.37-.72-.03-.02-.07-.04-.12-.04Z"/><g><path class="cls-50" d="M16.68,14.02l-.96-.55s-.07-.08-.07-.13h0s.03-.07,.07-.05l.96,.55s.07,.08,.07,.13h0s-.03,.07-.07,.05Z"/><path class="cls-56" d="M16.34,14.15l-.62-.36s-.07-.08-.07-.13h0s.03-.07,.07-.05l.62,.36s.07,.08,.07,.13h0s-.03,.07-.07,.05Z"/></g><g><path class="cls-57" d="M18.13,14.86l-.96-.55s-.07-.08-.07-.13h0s.03-.07,.07-.05l.96,.55s.07,.08,.07,.13h0s-.03,.07-.07,.05Z"/><path class="cls-54" d="M17.79,14.98l-.62-.36s-.07-.08-.07-.13h0s.03-.07,.07-.05l.62,.36s.07,.08,.07,.13h0s-.03,.07-.07,.05Z"/></g><g><path class="cls-55" d="M19.57,15.69l-.96-.55s-.07-.08-.07-.13h0s.03-.07,.07-.05l.96,.55s.07,.08,.07,.13h0s-.03,.07-.07,.05Z"/><path class="cls-52" d="M19.24,15.82l-.62-.36s-.07-.08-.07-.13h0s.03-.07,.07-.05l.62,.36s.07,.08,.07,.13h0s-.03,.07-.07,.05Z"/></g><g><path class="cls-53" d="M21.02,16.53l-.96-.55s-.07-.08-.07-.13h0s.03-.07,.07-.05l.96,.55s.07,.08,.07,.13h0s-.03,.07-.07,.05Z"/><path class="cls-51" d="M20.68,16.65l-.62-.36s-.07-.08-.07-.13h0s.03-.07,.07-.05l.62,.36s.07,.08,.07,.13h0s-.03,.07-.07,.05Z"/></g></g><g><polygon class="cls-44" points="18.91 21.85 15.41 19.82 15.41 19.63 18.91 21.65 18.91 21.85"/><polygon class="cls-45" points="17.64 21.57 15.41 20.28 15.41 20.08 17.64 21.37 17.64 21.57"/><polygon class="cls-42" points="19.68 23.2 15.41 20.73 15.41 20.53 19.68 23 19.68 23.2"/><polygon class="cls-43" points="18.4 22.91 15.41 21.18 15.41 20.98 18.4 22.71 18.4 22.91"/><polygon class="cls-49" points="20.33 24.45 15.41 21.61 15.41 21.41 20.33 24.25 20.33 24.45"/></g></g></g><g><g><path class="cls-69" d="M10.45,15.73L3.36,11.64c-.09-.05-.17-.2-.17-.33V2.25l7.44,4.3V15.6c0,.13-.08,.18-.17,.13Z"/><path class="cls-70" d="M10.62,6.55L3.18,2.25V.15c0-.13,.08-.18,.17-.13l7.1,4.1c.09,.05,.17,.2,.17,.33v2.1Z"/></g><g><path class="cls-46" d="M8.65,9c0,1.37-.83,2-1.86,1.41-1.03-.59-1.86-2.18-1.86-3.56s.83-2,1.86-1.41c1.03,.59,1.86,2.18,1.86,3.56Z"/><path class="cls-67" d="M7.23,7.21c0,.34-.2,.51-.44,.37-.24-.14-.44-.53-.44-.88s.2-.51,.44-.37c.24,.14,.44,.53,.44,.88Z"/><path class="cls-67" d="M7.9,9.32c.05,.3-.03,.54-.2,.6-.26,.08-.57,.04-.91-.16-.34-.2-.65-.51-.91-.9-.18-.26-.26-.59-.2-.84,.13-.56,.33-.57,1.12-.12,.79,.46,.99,.7,1.12,1.41Z"/></g><g class="cls-79"><path class="cls-47" d="M5.37,10.65l2.42,1.4c.06,.04,.11,0,.11-.07v-.31c0-.07-.05-.16-.11-.2l-2.42-1.4c-.06-.04-.11,0-.11,.07v.31c0,.07,.05,.16,.11,.2Z"/><path class="cls-48" d="M7.63,12.62l-2.31-1.33s-.07-.08-.07-.14h0c0-.05,.03-.08,.07-.05l2.31,1.33s.07,.08,.07,.14h0c0,.05-.03,.08-.07,.05Z"/><path class="cls-66" d="M7.18,12.76l-1.42-.82s-.07-.08-.07-.14h0c0-.05,.03-.08,.07-.05l1.42,.82s.07,.08,.07,.14h0c0,.05-.03,.08-.07,.05Z"/></g></g></g></svg>