<?xml version="1.0" encoding="UTF-8"?><svg xmlns="http://www.w3.org/2000/svg" xmlns:xlink="http://www.w3.org/1999/xlink" viewBox="0 0 55.61 117.15"><defs><style>.cls-1{fill:url(#radial-gradient-4);}.cls-1,.cls-2,.cls-3,.cls-4,.cls-5{mix-blend-mode:color-dodge;}.cls-2{fill:url(#Radial_Gradient_1-2);}.cls-3{fill:url(#Radial_Gradient_1-3);}.cls-6{fill:url(#linear-gradient);}.cls-7{fill:url(#radial-gradient);}.cls-7,.cls-8,.cls-9{mix-blend-mode:multiply;opacity:.5;}.cls-4{fill:url(#radial-gradient-3);opacity:.7;}.cls-8{fill:#afb6e5;}.cls-10{fill:url(#New_Gradient_Swatch_copy_36);}.cls-11{fill:url(#linear-gradient-10);mix-blend-mode:screen;}.cls-12{fill:url(#linear-gradient-8);}.cls-13{fill:url(#linear-gradient-9);}.cls-14{fill:url(#linear-gradient-3);}.cls-15{fill:url(#linear-gradient-4);}.cls-16{fill:url(#linear-gradient-2);}.cls-17{fill:url(#linear-gradient-6);}.cls-18{fill:url(#linear-gradient-5);}.cls-9{fill:url(#radial-gradient-2);}.cls-19{fill:url(#linear-gradient-14);}.cls-20{fill:url(#linear-gradient-15);}.cls-21{fill:url(#linear-gradient-13);}.cls-22{fill:url(#linear-gradient-12);}.cls-23{fill:url(#linear-gradient-11);}.cls-24{isolation:isolate;}.cls-25{fill:url(#linear-gradient-7);opacity:.3;}.cls-5{fill:url(#Radial_Gradient_1);}</style><radialGradient id="radial-gradient" cx="992.57" cy="-2345.64" fx="992.57" fy="-2345.64" r="20.54" gradientTransform="translate(-1185.85 1651.49) scale(1.22 .66)" gradientUnits="userSpaceOnUse"><stop offset=".19" stop-color="#afb6e5"/><stop offset="1" stop-color="#fff"/></radialGradient><linearGradient id="linear-gradient" x1="1437.61" y1="-2224.22" x2="1431.48" y2="-2255.65" gradientTransform="translate(-133.42 2732.35) rotate(-28.69)" gradientUnits="userSpaceOnUse"><stop offset="0" stop-color="#bb6df3"/><stop offset=".43" stop-color="#5277f7"/><stop offset="1" stop-color="#61c2f2"/></linearGradient><linearGradient id="linear-gradient-2" x1="734.9" y1="-89.28" x2="777.54" y2="-98.84" gradientTransform="translate(763.21 170.23) rotate(179.91) scale(1 -1)" xlink:href="#linear-gradient"/><linearGradient id="linear-gradient-3" x1="1405.75" y1="-2232.57" x2="1401.26" y2="-2224.46" gradientTransform="translate(-133.42 2732.35) rotate(-28.69)" gradientUnits="userSpaceOnUse"><stop offset="0" stop-color="#273b98"/><stop offset=".23" stop-color="#2e2ba2"/><stop offset=".4" stop-color="#361cac"/><stop offset=".77" stop-color="#440b88"/><stop offset="1" stop-color="#4e0070"/></linearGradient><linearGradient id="linear-gradient-4" x1="-521.97" y1="-75.7" x2="-492.76" y2="-75.7" gradientTransform="translate(535.21 169.93) rotate(-.09)" gradientUnits="userSpaceOnUse"><stop offset="0" stop-color="#676fae"/><stop offset=".05" stop-color="#747cb7"/><stop offset=".11" stop-color="#8b92c8"/><stop offset=".23" stop-color="#afb6e5"/><stop offset=".35" stop-color="#949bcf"/><stop offset=".38" stop-color="#8d94c9"/><stop offset=".55" stop-color="#5e67a8"/><stop offset=".61" stop-color="#616aaa"/><stop offset=".67" stop-color="#6c74b2"/><stop offset=".72" stop-color="#7d85be"/><stop offset=".78" stop-color="#969dd0"/><stop offset=".78" stop-color="#979ed1"/><stop offset="1" stop-color="#7179b5"/></linearGradient><linearGradient id="linear-gradient-5" x1="-530.63" y1="-121.16" x2="-484.21" y2="-121.16" gradientTransform="translate(535.21 169.93) rotate(-.09)" gradientUnits="userSpaceOnUse"><stop offset=".01" stop-color="#ced3f4"/><stop offset=".07" stop-color="#d8dcf6"/><stop offset=".16" stop-color="#f3f4fc"/><stop offset=".2" stop-color="#fff"/><stop offset=".27" stop-color="#f5f6ff"/><stop offset=".36" stop-color="#e5e9ff"/><stop offset=".39" stop-color="#dadffa"/><stop offset=".47" stop-color="#c2c8ee"/><stop offset=".55" stop-color="#b4bae7"/><stop offset=".61" stop-color="#afb6e5"/><stop offset=".78" stop-color="#b9c0ea"/><stop offset="1" stop-color="#ced3f4"/></linearGradient><linearGradient id="linear-gradient-6" x1="-516.17" y1="-159.98" x2="-491.69" y2="-150.06" gradientTransform="translate(535.21 169.93) rotate(-.09)" gradientUnits="userSpaceOnUse"><stop offset="0" stop-color="#5277f7"/><stop offset=".04" stop-color="#537ef7"/><stop offset=".09" stop-color="#5892f9"/><stop offset=".15" stop-color="#60b3fc"/><stop offset=".19" stop-color="#6cf"/><stop offset=".34" stop-color="#5277f7"/><stop offset=".62" stop-color="#5a99fa"/><stop offset=".85" stop-color="#5faefc"/><stop offset="1" stop-color="#61b6fd"/></linearGradient><linearGradient id="linear-gradient-7" x1="-496.53" y1="-161.24" x2="-528.13" y2="-145.77" gradientTransform="translate(535.21 169.93) rotate(-.09)" gradientUnits="userSpaceOnUse"><stop offset="0" stop-color="#5277f7"/><stop offset=".04" stop-color="#537ef7"/><stop offset=".09" stop-color="#5892f9"/><stop offset=".15" stop-color="#60b3fc"/><stop offset=".19" stop-color="#6cf"/><stop offset=".34" stop-color="#5277f7"/><stop offset=".35" stop-color="#5279f7"/><stop offset=".46" stop-color="#5997fa"/><stop offset=".57" stop-color="#5faefc"/><stop offset=".69" stop-color="#62bffd"/><stop offset=".83" stop-color="#65c8fe"/><stop offset="1" stop-color="#6cf"/></linearGradient><radialGradient id="radial-gradient-2" cx="-506.76" cy="-3173.22" fx="-506.76" fy="-3173.22" r="32.94" gradientTransform="translate(541.81 5125.92) rotate(-.09) scale(1 1.6)" gradientUnits="userSpaceOnUse"><stop offset=".53" stop-color="#fff"/><stop offset=".71" stop-color="#fafaff"/><stop offset=".92" stop-color="#ecefff"/><stop offset="1" stop-color="#e5e9ff"/></radialGradient><radialGradient id="radial-gradient-3" cx="22941.67" cy="10238.87" fx="22941.67" fy="10238.87" r="39.39" gradientTransform="translate(7597.74 8702.14) rotate(165.95) scale(.23 1) skewX(.02)" gradientUnits="userSpaceOnUse"><stop offset="0" stop-color="#afb6e5"/><stop offset=".07" stop-color="#8c92b8"/><stop offset=".14" stop-color="#6c708d"/><stop offset=".22" stop-color="#4e5267"/><stop offset=".31" stop-color="#363847"/><stop offset=".4" stop-color="#22232d"/><stop offset=".5" stop-color="#131318"/><stop offset=".62" stop-color="#08080a"/><stop offset=".76" stop-color="#010102"/><stop offset="1" stop-color="#000"/></radialGradient><linearGradient id="linear-gradient-8" x1="-524.44" y1="-122.4" x2="-511.82" y2="-100.54" xlink:href="#linear-gradient-4"/><linearGradient id="linear-gradient-9" x1="-529.59" y1="-109.96" x2="-511.99" y2="-109.96" gradientTransform="translate(535.21 169.93) rotate(-.09)" gradientUnits="userSpaceOnUse"><stop offset=".04" stop-color="#929ad6"/><stop offset=".36" stop-color="#afb6e5"/><stop offset=".61" stop-color="#949cd3"/><stop offset="1" stop-color="#646eb5"/></linearGradient><linearGradient id="New_Gradient_Swatch_copy_36" x1="1408.28" y1="-2278.95" x2="1417.48" y2="-2264.28" gradientTransform="translate(-133.42 2732.35) rotate(-28.69)" gradientUnits="userSpaceOnUse"><stop offset=".1" stop-color="#45108a"/><stop offset="1" stop-color="#7c1dc9"/></linearGradient><linearGradient id="linear-gradient-10" x1="-527.72" y1="-120.25" x2="-518.49" y2="-108.67" gradientTransform="translate(535.21 169.93) rotate(-.09)" gradientUnits="userSpaceOnUse"><stop offset="0" stop-color="#5277f7"/><stop offset="1" stop-color="#000"/></linearGradient><linearGradient id="linear-gradient-11" x1="-517.82" y1="-100.14" x2="-527.77" y2="-117.38" xlink:href="#linear-gradient-4"/><radialGradient id="Radial_Gradient_1" cx="-519.06" cy="-110.21" fx="-519.06" fy="-110.21" r="9.44" gradientTransform="translate(535.21 169.93) rotate(-.09)" gradientUnits="userSpaceOnUse"><stop offset="0" stop-color="#fff"/><stop offset="1" stop-color="#000"/></radialGradient><radialGradient id="radial-gradient-4" cx="-17948.56" cy="7925.67" fx="-17948.56" fy="7925.67" r="36.95" gradientTransform="translate(2079.08 8710.61) rotate(13.9) scale(.23 -1) skewX(-.01)" gradientUnits="userSpaceOnUse"><stop offset="0" stop-color="#972a74"/><stop offset=".02" stop-color="#8c276b"/><stop offset=".11" stop-color="#671c4f"/><stop offset=".21" stop-color="#471336"/><stop offset=".32" stop-color="#2d0c22"/><stop offset=".43" stop-color="#180613"/><stop offset=".57" stop-color="#0a0308"/><stop offset=".73" stop-color="#020001"/><stop offset="1" stop-color="#000"/></radialGradient><linearGradient id="linear-gradient-12" x1="-531.88" y1="-60.6" x2="-519.77" y2="-97.67" gradientTransform="translate(535.21 169.93) rotate(-.09)" gradientUnits="userSpaceOnUse"><stop offset="0" stop-color="#4666d4"/><stop offset=".33" stop-color="#4e71eb"/><stop offset=".46" stop-color="#5277f7"/><stop offset=".5" stop-color="#537cf7"/><stop offset=".55" stop-color="#578df9"/><stop offset=".61" stop-color="#5da8fb"/><stop offset=".67" stop-color="#6cf"/><stop offset=".8" stop-color="#5277f7"/></linearGradient><linearGradient id="linear-gradient-13" x1="-5.14" y1="106.81" x2="30.53" y2="78.81" gradientTransform="matrix(1, 0, 0, 1, 0, 0)" xlink:href="#linear-gradient"/><radialGradient id="Radial_Gradient_1-2" cx="-1121.76" cy="-701.79" fx="-1121.76" fy="-701.79" r="15.58" gradientTransform="translate(1015.04 714.77) rotate(-.08) scale(.89)" xlink:href="#Radial_Gradient_1"/><linearGradient id="linear-gradient-14" x1="-486.4" y1="-72.33" x2="-493" y2="-91.87" xlink:href="#linear-gradient-12"/><linearGradient id="linear-gradient-15" x1="1423.43" y1="-2203.76" x2="1423.93" y2="-2256.13" xlink:href="#linear-gradient"/><radialGradient id="Radial_Gradient_1-3" cx="-494.58" cy="-80.41" fx="-494.58" fy="-80.41" r="13.85" xlink:href="#Radial_Gradient_1"/></defs><g class="cls-24"><g id="Layer_2"><g id="Layer_1-2"><g><ellipse class="cls-7" cx="27.36" cy="103.6" rx="25.1" ry="13.55"/><g><path class="cls-6" d="M42.55,82.29l13.06,6.93v-8.8c-.01-1.23-.25-2.32-.7-3.17l-5.65-10.71c-1.22-2.31-3.84-2.71-6.73-1.04h0l.02,16.79Z"/><path class="cls-16" d="M13.05,82.33L.01,89.3v-8.8c-.01-1.23,.22-2.32,.67-3.18l5.62-10.73c1.21-2.31,3.83-2.72,6.72-1.06h0l.02,16.79Z"/></g><g><path class="cls-14" d="M34.04,101.73l-12.42,.02v1.75h0s0,.03,0,.05c0,2,2.79,3.61,6.22,3.61s6.21-1.63,6.21-3.63c0-.02,0-.03,0-.05h0v-1.75Z"/><path class="cls-15" d="M42.65,86.18l-29.68,.04v8.82h.02s0,.08,0,.12c0,4.77,6.66,8.63,14.85,8.62,8.19-.01,14.83-3.89,14.82-8.66,0-.04,0-.08,0-.12h0v-8.82Z"/><path class="cls-8" d="M42.65,86.49l-29.68,.04v7.03h.02s0,.06,0,.1c0,3.8,6.65,6.88,14.85,6.87,8.19-.01,14.83-3.11,14.83-6.91,0-.03,0-.06,0-.09h0v-7.03Z"/><g><path class="cls-18" d="M50.96,56.98c1.49-12.58-1.45-25.37-8.65-35.78-.3-.44-.61-.87-.93-1.3L27.68,1.19,14.04,19.94c-.31,.43-.62,.86-.92,1.3C5.94,31.68,3.04,44.48,4.57,57.05l3.53,29.2h0c0,.05,0,.11,0,.16,0,6.34,8.84,11.46,19.72,11.45,10.88-.02,19.7-5.17,19.69-11.5,0-.05,0-.11,0-.16h0l3.45-29.21Z"/><path class="cls-17" d="M41.38,19.9L27.68,1.19,14.04,19.94c-.08,.11-.15,.21-.22,.32,2.37,3.1,7.7,5.25,13.91,5.24,6.2,0,11.53-2.18,13.89-5.28-.08-.11-.15-.21-.22-.32Z"/><path class="cls-25" d="M41.38,19.9L27.68,1.19,14.04,19.94c-.08,.11-.15,.21-.22,.32,2.37,3.1,7.7,5.25,13.91,5.24,6.2,0,11.53-2.18,13.89-5.28-.08-.11-.15-.21-.22-.32Z"/><path class="cls-9" d="M50.96,56.98c1.49-12.58-1.45-25.37-8.65-35.78-.3-.44-.61-.87-.93-1.3L27.68,1.19,14.04,19.94c-.31,.43-.62,.86-.92,1.3C5.94,31.68,3.04,44.48,4.57,57.05l3.53,29.2h0c0,.05,0,.11,0,.16,0,6.34,8.84,11.46,19.72,11.45,10.88-.02,19.7-5.17,19.69-11.5,0-.05,0-.11,0-.16h0l3.45-29.21Z"/><path class="cls-4" d="M37,40.77c-3.94-15.74-12.09-33.85-10.16-34.73,3.39-1.55,17.6,16.09,21.55,31.83,3.47,13.85-.37,48.36-3.96,49.26-3.58,.9-3.96-32.5-7.43-46.36Z"/><g><path class="cls-12" d="M24.79,64.78c0,2.72-.93,4.65-2.46,5.59-.05,.03-1.47,.93-1.51,.96-1.59,.89-.57-1.13-2.99-2.52-4.86-2.8-8.81-9.59-8.82-15.16,0-2.76-2.55-2.78-.99-3.7,.04-.03,1.77-.98,1.81-1,1.58-.86,3.75-.71,6.14,.67,4.86,2.8,8.81,9.59,8.82,15.16Z"/><path class="cls-13" d="M23.06,65.81c0,5.58-3.93,7.83-8.79,5.03s-8.81-9.59-8.82-15.16c0-5.58,3.93-7.83,8.79-5.03,4.86,2.8,8.81,9.59,8.82,15.16Z"/><path class="cls-10" d="M21.4,64.86c0,4.53-3.19,6.36-7.14,4.08-3.95-2.27-7.16-7.79-7.16-12.31,0-4.53,3.19-6.36,7.14-4.08,3.95,2.27,7.16,7.79,7.16,12.31Z"/><path class="cls-11" d="M19.91,62.6c0,3.41-2.4,4.78-5.37,3.07-2.97-1.71-5.39-5.86-5.39-9.27,0-3.41,2.4-4.78,5.37-3.07,2.97,1.71,5.39,5.86,5.39,9.27Z"/><path class="cls-23" d="M15.67,68.35c-3.95-2.27-7.16-7.79-7.16-12.31,0-2.09,.68-3.6,1.79-4.4-1.93,.36-3.2,2.14-3.2,4.99,0,4.53,3.21,10.04,7.16,12.31,2.13,1.22,4.04,1.26,5.35,.32-1.13,.21-2.48-.07-3.94-.91Z"/><path class="cls-5" d="M14.49,50.42c-2.33-1.34-4.74-1.25-5.86-.72,1.47-.41,3.54-.17,5.52,.97,4.86,2.8,8.81,9.59,8.82,15.16,0,2.9-1.32,4.96-3.02,5.82,1.79-.67,3.37-2.76,3.37-6.07,0-5.58-3.96-12.37-8.82-15.16Z"/></g><path class="cls-1" d="M19.46,41.84C24.14,22.94,33.85,1.16,31.53,.11,27.45-1.73,11.45,19.66,6.77,38.57c-4.12,16.64-2.13,36.2,2.18,37.27s6.39-17.35,10.51-33.99Z"/></g></g><g><path class="cls-22" d="M13.21,94.4L2.86,114.3l-2.1-1.24v-8.42c-.01-1.18,.21-2.48,.64-3.8l5.37-16.49c1.16-3.55,3.66-6.85,6.42-8.45h0l2.02,1.22-1.99,17.28Z"/><path class="cls-21" d="M15.31,95.63L2.86,114.3v-8.42c-.01-1.18,.21-2.48,.64-3.8l5.37-16.49c1.16-3.55,3.66-6.85,6.42-8.45h0l.03,18.49Z"/><path class="cls-2" d="M3.03,106.11c0-1.18,.22-2.48,.65-3.8l5.37-16.49c1.1-3.39,3.44-6.55,6.06-8.22v-.5h0c-2.76,1.6-5.27,4.9-6.42,8.45l-5.37,16.49c-.43,1.32-.65,2.62-.65,3.8v8.42l.38-.55v-7.6Z"/><path class="cls-19" d="M42.43,94.35l10.41,19.87,2.1-1.24v-8.42c-.01-1.18-.24-2.48-.67-3.8l-5.42-16.48c-1.17-3.55-3.68-6.84-6.45-8.43h0l-2.02,1.22,2.04,17.27Z"/><path class="cls-20" d="M40.33,95.6l12.51,18.63v-8.42c-.01-1.18-.24-2.48-.67-3.8l-5.42-16.48c-1.17-3.55-3.68-6.84-6.45-8.43h0l.03,18.49Z"/><path class="cls-3" d="M52.44,102.01l-5.42-16.48c-1.17-3.55-3.68-6.84-6.45-8.43h0v.11c2.5,1.71,4.72,4.75,5.79,8.01l5.42,16.48c.43,1.32,.66,2.62,.66,3.8v7.75l.67,.98v-8.42c-.01-1.18-.24-2.48-.67-3.8Z"/></g></g></g></g></g></svg>