<?xml version="1.0" encoding="UTF-8"?><svg xmlns="http://www.w3.org/2000/svg" xmlns:xlink="http://www.w3.org/1999/xlink" viewBox="0 0 121.54 88.52"><defs><style>.cls-1{fill:#abb2e2;opacity:.05;}.cls-2{fill:#a7addf;opacity:.1;}.cls-3{fill:url(#linear-gradient);}.cls-4{fill:#fff;}.cls-5{fill:#5b58a3;}.cls-6{mix-blend-mode:multiply;}.cls-6,.cls-7{fill:#afb6e5;}.cls-8{fill:#a3a9dc;opacity:.14;}.cls-9{fill:#9fa4d8;opacity:.19;}.cls-10{fill:url(#linear-gradient-3);}.cls-11{fill:url(#linear-gradient-2);}.cls-12{opacity:.2;}.cls-13{fill:url(#radial-gradient);}.cls-13,.cls-14{mix-blend-mode:color-dodge;}.cls-7{opacity:0;}.cls-15{isolation:isolate;}.cls-14{fill:url(#Radial_Gradient_1);}.cls-16{fill:#7f80bf;opacity:.57;}.cls-17{fill:#7b7cbc;opacity:.62;}.cls-18{fill:#8385c2;opacity:.52;}.cls-19{fill:#8789c6;opacity:.48;}.cls-20{fill:#6361a9;opacity:.9;}.cls-21{fill:#6765ac;opacity:.86;}.cls-22{fill:#6f6eb3;opacity:.76;}.cls-23{fill:#6b6ab0;opacity:.81;}.cls-24{fill:#7373b6;opacity:.71;}.cls-25{fill:#9397cf;opacity:.33;}.cls-26{fill:#979bd2;opacity:.29;}.cls-27{fill:#9ba0d5;opacity:.24;}.cls-28{fill:#8b8ec9;opacity:.43;}.cls-29{fill:#8f92cc;opacity:.38;}.cls-30{fill:#7777b9;opacity:.67;}.cls-31{fill:#5f5ca6;opacity:.95;}</style><linearGradient id="linear-gradient" x1="27.04" y1="-4.89" x2="115.11" y2="109.86" gradientTransform="matrix(1, 0, 0, 1, 0, 0)" gradientUnits="userSpaceOnUse"><stop offset="0" stop-color="#cdd2f3"/><stop offset=".43" stop-color="#e5e9ff"/><stop offset=".55" stop-color="#eff1ff"/><stop offset=".67" stop-color="#fff"/><stop offset=".69" stop-color="#ebedf8"/><stop offset=".75" stop-color="#b8bee8"/><stop offset=".76" stop-color="#afb6e5"/><stop offset=".91" stop-color="#afb6e5"/><stop offset="1" stop-color="#afb6e5"/></linearGradient><linearGradient id="linear-gradient-2" x1=".42" y1="96.94" x2="72.41" y2="22.33" gradientTransform="matrix(1, 0, 0, 1, 0, 0)" gradientUnits="userSpaceOnUse"><stop offset="0" stop-color="#afb6e5"/><stop offset=".14" stop-color="#b5bce8"/><stop offset=".35" stop-color="#c7cdf0"/><stop offset=".58" stop-color="#e5e9ff"/><stop offset=".86" stop-color="#f4f6ff"/><stop offset="1" stop-color="#fff"/></linearGradient><linearGradient id="linear-gradient-3" x1="-3.68" y1="7.64" x2="92.73" y2="76.41" gradientTransform="matrix(1, 0, 0, 1, 0, 0)" gradientUnits="userSpaceOnUse"><stop offset="0" stop-color="#00c7c5"/><stop offset=".39" stop-color="#2d9be0"/><stop offset=".74" stop-color="#5277f7"/><stop offset=".78" stop-color="#5a76f6"/><stop offset=".85" stop-color="#7273f5"/><stop offset=".94" stop-color="#9970f4"/><stop offset="1" stop-color="#bb6df3"/></linearGradient><radialGradient id="Radial_Gradient_1" cx="62.26" cy="45.24" fx="62.26" fy="45.24" r="44.48" gradientTransform="matrix(1, 0, 0, 1, 0, 0)" gradientUnits="userSpaceOnUse"><stop offset="0" stop-color="#fff"/><stop offset="1" stop-color="#000"/></radialGradient><radialGradient id="radial-gradient" cx="110.68" cy="-4750.96" fx="110.68" fy="-4750.96" r="7.01" gradientTransform="translate(844.22 2070.77) rotate(-22.34) scale(.68 .45)" gradientUnits="userSpaceOnUse"><stop offset="0" stop-color="#bcbec0"/><stop offset="0" stop-color="#b8babc"/><stop offset=".14" stop-color="#88898b"/><stop offset=".28" stop-color="#5e5f60"/><stop offset=".42" stop-color="#3c3c3d"/><stop offset=".56" stop-color="#212222"/><stop offset=".7" stop-color="#0e0f0f"/><stop offset=".85" stop-color="#030303"/><stop offset="1" stop-color="#000"/></radialGradient></defs><g class="cls-15"><g id="Layer_2"><g id="Layer_1-2"><g><g class="cls-12"><path class="cls-7" d="M93.95,88.52c-1.32,0-2.53-.29-3.48-.84l-40.81-23.52L8.86,40.64c-1.27-.73-2-1.89-1.99-3.18,0-1.41,.88-2.73,2.4-3.61l15.39-12.23c1.2-.69,2.7-1.07,4.22-1.07,1.32,0,2.53,.29,3.48,.84l43.59,24.74,43.59,24.74c1.27,.73,1.99,1.89,1.99,3.18,0,1.41-.88,2.73-2.4,3.61l-20.96,9.8c-1.2,.69-2.7,1.07-4.22,1.07Z"/><path class="cls-1" d="M9.33,33.96l3.25-2.57c.08-.04,5.66-4.4,5.73-4.36l6.33-4.67c1.14-.66,2.71-.94,4.16-.94,1.26,0,2.52,.34,3.43,.86l37.58,21.33,5.55,3.15,43.13,24.48c.97,.56,1.7,1.45,1.93,2.39,.06,.23,.09,.47,.1,.71,.04,1.38-.81,2.69-2.33,3.57l-3.66,1.74c-.08,.05-6.44,2.97-6.51,2.93l-10.57,4.54c-1.14,.66-2.71,.94-4.16,.94-1.26,0-2.53-.34-3.43-.87l-33.33-19.21-7.07-4.08L9.03,40.63c-1-.58-1.74-1.5-1.95-2.47-.04-.21-.07-.42-.08-.64-.04-1.38,.8-2.69,2.33-3.57Z"/><path class="cls-2" d="M9.39,34.06l3.22-2.53c.16-.09,5.58-4.23,5.72-4.15l6.28-4.28c1.08-.63,2.72-.81,4.1-.81,1.2,0,2.52,.39,3.38,.89l37.18,21.11,5.49,3.12,42.67,24.23c.92,.53,1.71,1.44,1.94,2.33,.06,.23,.1,.46,.12,.69,.08,1.36-.74,2.66-2.26,3.54l-3.61,1.74c-.16,.09-6.32,2.87-6.46,2.79l-10.45,4.08c-1.08,.63-2.73,.81-4.11,.81-1.2,0-2.52-.4-3.38-.89l-33.01-19.01-7-4.03L9.2,40.63c-.95-.55-1.75-1.49-1.96-2.41-.05-.2-.09-.41-.1-.62-.08-1.36,.73-2.66,2.25-3.54Z"/><path class="cls-8" d="M9.45,34.17l3.19-2.5c.23-.13,5.51-4.06,5.71-3.94l6.24-3.89c1.03-.59,2.74-.68,4.04-.68,1.14,0,2.51,.45,3.33,.92l36.77,20.88,5.43,3.08,42.21,23.97c.88,.51,1.72,1.43,1.95,2.27,.06,.22,.12,.44,.14,.68,.12,1.33-.67,2.63-2.18,3.5l-3.56,1.75c-.23,.13-6.21,2.78-6.41,2.66l-10.33,3.62c-1.03,.59-2.74,.68-4.05,.68-1.14,0-2.52-.45-3.33-.92l-32.68-18.82-6.93-3.99L9.36,40.62c-.9-.52-1.76-1.48-1.97-2.35-.05-.2-.1-.4-.12-.6-.12-1.33,.66-2.63,2.18-3.5Z"/><path class="cls-9" d="M9.51,34.28l3.16-2.46c.31-.18,5.43-3.89,5.7-3.74l6.2-3.5c.97-.56,2.75-.55,3.98-.55,1.07,0,2.51,.5,3.28,.94l36.37,20.66,5.37,3.05,41.75,23.72c.83,.48,1.73,1.43,1.96,2.21,.06,.22,.13,.43,.15,.66,.16,1.3-.6,2.59-2.11,3.46l-3.51,1.76c-.31,.18-6.09,2.68-6.36,2.52l-10.21,3.16c-.97,.56-2.76,.54-3.99,.54-1.07,0-2.52-.5-3.29-.95l-32.35-18.62-6.86-3.95L9.53,40.62c-.85-.49-1.77-1.47-1.99-2.29-.05-.19-.11-.39-.13-.59-.16-1.3,.59-2.6,2.1-3.47Z"/><path class="cls-27" d="M9.57,34.38l3.13-2.43c.39-.22,5.35-3.73,5.69-3.53l6.16-3.11c.91-.53,2.76-.41,3.92-.41,1.01,0,2.5,.55,3.23,.97l35.97,20.44,5.31,3.02,41.29,23.46c.78,.45,1.74,1.42,1.97,2.15,.07,.21,.14,.42,.17,.64,.19,1.28-.53,2.56-2.04,3.43l-3.46,1.76c-.39,.22-5.97,2.58-6.31,2.39l-10.09,2.7c-.91,.53-2.77,.41-3.93,.41-1.01,0-2.52-.56-3.24-.98l-32.02-18.43-6.79-3.91L9.7,40.62c-.8-.46-1.78-1.47-2-2.23-.05-.19-.12-.38-.15-.57-.21-1.28,.52-2.57,2.03-3.44Z"/><path class="cls-26" d="M9.63,34.49l3.1-2.39c.47-.27,5.27-3.56,5.68-3.32l6.12-2.72c.86-.49,2.77-.28,3.86-.28,.95,0,2.5,.6,3.18,.99l35.56,20.21,5.25,2.98,40.83,23.21c.73,.42,1.75,1.41,1.98,2.1,.07,.21,.15,.41,.19,.62,.23,1.25-.46,2.53-1.96,3.39l-3.41,1.77c-.47,.27-5.86,2.49-6.26,2.25l-9.97,2.24c-.86,.49-2.78,.28-3.87,.28-.95,0-2.51-.61-3.19-1l-31.7-18.23-6.72-3.86L9.87,40.61c-.75-.43-1.8-1.46-2.02-2.17-.06-.19-.13-.36-.17-.55-.25-1.25,.45-2.53,1.95-3.4Z"/><path class="cls-25" d="M9.69,34.59l3.07-2.35c.55-.31,5.2-3.39,5.67-3.12l6.08-2.33c.8-.46,2.79-.15,3.8-.15,.88,0,2.49,.65,3.13,1.02l35.16,19.99,5.19,2.95,40.37,22.95c.68,.39,1.76,1.4,1.99,2.04,.07,.2,.16,.4,.21,.6,.27,1.22-.4,2.49-1.89,3.35l-3.36,1.77c-.54,.31-5.74,2.39-6.21,2.12l-9.84,1.78c-.8,.46-2.8,.15-3.81,.15-.88,0-2.51-.67-3.15-1.03l-31.37-18.03-6.64-3.82L10.04,40.61c-.7-.4-1.81-1.45-2.03-2.11-.06-.18-.14-.35-.18-.54-.29-1.22,.38-2.5,1.88-3.37Z"/><path class="cls-29" d="M9.76,34.7l3.05-2.32c.62-.36,5.12-3.22,5.66-2.91l6.03-1.94c.74-.43,2.8-.02,3.74-.02,.82,0,2.49,.71,3.08,1.05l34.76,19.77,5.13,2.91,39.91,22.7c.63,.37,1.78,1.39,2,1.98,.08,.2,.17,.38,.23,.58,.31,1.2-.33,2.46-1.82,3.32l-3.31,1.78c-.62,.36-5.62,2.3-6.16,1.98l-9.72,1.32c-.74,.43-2.81,.01-3.76,.01-.82,0-2.51-.72-3.1-1.06l-31.04-17.84-6.57-3.78L10.2,40.6c-.65-.38-1.83-1.44-2.05-2.05-.06-.18-.15-.34-.2-.52-.33-1.2,.3-2.47,1.8-3.33Z"/><path class="cls-28" d="M9.82,34.81l3.02-2.28c.7-.4,5.04-3.06,5.65-2.71l5.99-1.55c.69-.4,2.81,.11,3.68,.11,.76,0,2.48,.76,3.03,1.07l34.36,19.54,5.07,2.88,39.45,22.44c.58,.34,1.8,1.38,2.01,1.92,.08,.2,.19,.37,.25,.57,.36,1.17-.26,2.43-1.74,3.28l-3.26,1.78c-.7,.4-5.51,2.2-6.11,1.85l-9.6,.86c-.69,.4-2.83-.12-3.7-.12-.76,0-2.51-.77-3.05-1.09l-30.71-17.64-6.5-3.73L10.37,40.6c-.6-.35-1.85-1.43-2.06-1.99-.07-.18-.16-.33-.22-.5-.38-1.17,.23-2.44,1.73-3.3Z"/><path class="cls-19" d="M9.88,34.91l2.99-2.24c.78-.45,4.96-2.89,5.64-2.5l5.95-1.16c.63-.36,2.83,.24,3.62,.24,.69,0,2.48,.81,2.98,1.1l33.95,19.32,5,2.85,38.99,22.18c.54,.31,1.91,1.35,2.02,1.86,.11,.17,.2,.36,.26,.55,.4,1.14-.19,2.39-1.67,3.25l-3.21,1.79c-.78,.45-5.39,2.1-6.06,1.71l-9.48,.41c-.63,.36-2.84-.25-3.64-.25-.69,0-2.51-.83-3-1.11l-30.39-17.45-6.43-3.69L10.54,40.59c-.55-.32-1.97-1.4-2.08-1.93-.1-.16-.18-.32-.24-.49-.42-1.15,.16-2.4,1.65-3.26Z"/><path class="cls-18" d="M9.94,35.02l2.96-2.21c.86-.49,4.89-2.72,5.63-2.29l5.91-.77c.57-.33,2.84,.38,3.56,.38,.63,0,2.47,.86,2.93,1.12l33.55,19.1,4.94,2.81,38.53,21.93c.49,.28,1.93,1.33,2.03,1.81,.12,.17,.21,.35,.28,.53,.44,1.12-.12,2.36-1.6,3.21l-3.16,1.79c-.86,.49-5.27,2.01-6.02,1.58l-9.36-.05c-.57,.33-2.85-.39-3.58-.39-.63,0-2.5-.88-2.96-1.14l-30.06-17.25-6.36-3.65L10.71,40.59c-.5-.29-1.99-1.38-2.09-1.87-.11-.15-.19-.31-.25-.47-.46-1.12,.09-2.37,1.57-3.23Z"/><path class="cls-16" d="M10,35.13l2.93-2.17c.93-.54,4.81-2.55,5.62-2.09l5.87-.38c.51-.3,2.85,.51,3.5,.51,.57,0,2.47,.92,2.88,1.15l33.15,18.87,4.88,2.78,38.07,21.67c.44,.25,1.95,1.32,2.04,1.75,.13,.16,.22,.33,.3,.51,.48,1.09-.05,2.32-1.52,3.17l-3.11,1.8c-.93,.54-5.16,1.91-5.97,1.44l-9.23-.51c-.51,.3-2.87-.52-3.52-.52-.57,0-2.5-.93-2.91-1.17l-29.73-17.06-6.29-3.61L10.88,40.58c-.45-.26-2.02-1.37-2.1-1.81-.11-.14-.2-.3-.27-.45-.51-1.09,.02-2.34,1.5-3.19Z"/><path class="cls-17" d="M10.06,35.23l2.9-2.14c1.01-.58,4.73-2.39,5.61-1.88h5.83c.46-.25,2.86,.65,3.44,.65,.5,0,2.46,.97,2.83,1.18l32.74,18.65,4.82,2.75,37.61,21.42c.39,.22,1.97,1.31,2.05,1.69,.13,.16,.24,.32,.32,.49,.52,1.06,.01,2.29-1.45,3.14l-3.06,1.8c-1.01,.58-5.04,1.82-5.92,1.31l-9.11-.97c-.46,.26-2.88-.65-3.46-.65-.5,0-2.5-.99-2.86-1.2l-29.41-16.86-6.21-3.56L11.04,40.58c-.4-.23-2.04-1.36-2.12-1.75-.12-.14-.21-.29-.29-.44-.55-1.07-.05-2.31,1.42-3.16Z"/><path class="cls-30" d="M10.12,35.34l2.87-2.1c1.09-.63,4.65-2.22,5.6-1.67l5.78,.4c.4-.23,2.88,.77,3.38,.77,.44,0,2.46,1.02,2.78,1.2l32.34,18.42,4.76,2.71,37.15,21.16c.34,.2,1.99,1.3,2.07,1.63,.14,.15,.25,.31,.34,.47,.57,1.04,.08,2.26-1.38,3.1l-3.01,1.81c-1.09,.63-4.92,1.72-5.87,1.17l-8.99-1.43c-.4,.23-2.9-.78-3.4-.78-.44,0-2.5-1.04-2.81-1.22l-29.08-16.67-6.14-3.52L11.21,40.58c-.35-.2-2.07-1.35-2.13-1.69-.12-.13-.22-.28-.31-.42-.6-1.04-.12-2.27,1.35-3.13Z"/><path class="cls-24" d="M10.18,35.44l2.84-2.06c1.17-.67,4.57-2.05,5.59-1.47l5.74,.79c.34-.2,2.89,.9,3.32,.9,.38,0,2.46,1.07,2.73,1.23l31.94,18.2,4.7,2.68,36.69,20.91c.29,.17,2.01,1.29,2.08,1.57,.14,.14,.26,.3,.36,.45,.61,1.01,.15,2.22-1.3,3.06l-2.96,1.81c-1.17,.67-4.81,1.62-5.82,1.04l-8.87-1.89c-.34,.2-2.91-.92-3.35-.92-.38,0-2.5-1.1-2.77-1.25l-28.75-16.47-6.07-3.48L11.38,40.57c-.3-.17-2.09-1.34-2.15-1.63-.13-.13-.23-.26-.32-.4-.65-1.01-.2-2.24,1.27-3.09Z"/><path class="cls-22" d="M10.25,35.55l2.81-2.03c1.25-.72,4.5-1.88,5.58-1.26l5.7,1.19c.29-.16,2.9,1.03,3.26,1.03,.32,0,2.45,1.12,2.68,1.26l31.53,17.98,4.64,2.65,36.23,20.65c.24,.14,2.03,1.28,2.09,1.51,.15,.14,.27,.28,.37,.44,.66,.98,.22,2.19-1.23,3.03l-2.91,1.82c-1.25,.72-4.69,1.53-5.77,.9l-8.75-2.35c-.29,.16-2.93-1.05-3.29-1.05-.32,0-2.49-1.15-2.72-1.28l-28.42-16.28-6-3.44L11.55,40.57c-.25-.14-2.11-1.33-2.16-1.57-.13-.12-.25-.25-.34-.39-.69-.98-.27-2.21,1.2-3.06Z"/><path class="cls-23" d="M10.31,35.66l2.78-1.99c1.32-.76,4.42-1.72,5.56-1.05l5.66,1.58c.23-.13,2.91,1.17,3.2,1.17,.25,0,2.45,1.18,2.63,1.28l31.13,17.75,4.58,2.61,35.77,20.4c.19,.11,2.06,1.27,2.1,1.46,.16,.13,.29,.27,.39,.42,.7,.95,.29,2.16-1.16,2.99l-2.86,1.83c-1.32,.76-4.57,1.43-5.72,.77l-8.63-2.81c-.23,.13-2.94-1.18-3.23-1.18-.25,0-2.49-1.2-2.67-1.31l-28.1-16.08-5.93-3.39L11.72,40.56c-.2-.12-2.14-1.32-2.18-1.51-.14-.12-.26-.24-.36-.37-.74-.96-.34-2.18,1.12-3.02Z"/><path class="cls-21" d="M10.37,35.76l2.75-1.96c1.4-.81,4.34-1.55,5.55-.85l5.62,1.97c.17-.1,2.93,1.3,3.14,1.3,.19,0,2.44,1.23,2.58,1.31l30.73,17.53,4.52,2.58,35.31,20.14c.15,.08,2.08,1.26,2.11,1.4,.16,.12,.3,.26,.41,.4,.74,.92,.36,2.12-1.08,2.96l-2.81,1.83c-1.4,.81-4.46,1.33-5.67,.63l-8.5-3.27c-.17,.1-2.95-1.31-3.17-1.31-.19,0-2.49-1.26-2.62-1.33l-27.77-15.88-5.86-3.35L11.88,40.56c-.15-.09-2.16-1.31-2.19-1.45-.15-.11-.27-.23-.37-.35-.79-.93-.41-2.15,1.05-2.99Z"/><path class="cls-20" d="M10.43,35.87l2.72-1.92c1.48-.85,4.26-1.38,5.54-.64l5.58,2.36c.11-.07,2.94,1.43,3.08,1.43,.13,0,2.44,1.28,2.53,1.33l30.33,17.31,4.46,2.54,34.85,19.88c.1,.06,2.1,1.24,2.12,1.34,.17,.12,.31,.25,.43,.38,.79,.89,.43,2.09-1.01,2.92l-2.76,1.84c-1.48,.85-4.34,1.24-5.62,.5l-8.38-3.73c-.11,.07-2.97-1.45-3.11-1.45-.13,0-2.49-1.31-2.58-1.36l-27.44-15.69-5.78-3.31L12.05,40.55c-.1-.06-2.19-1.3-2.2-1.39-.15-.11-.28-.22-.39-.34-.83-.9-.48-2.11,.97-2.95Z"/><path class="cls-31" d="M10.49,35.97l2.69-1.88c1.56-.9,4.19-1.21,5.53-.44l5.54,2.75c.06-.03,2.95,1.56,3.02,1.56,.06,0,2.43,1.33,2.48,1.36l29.92,17.08,4.4,2.51,34.39,19.63s2.12,1.23,2.13,1.28c.18,.11,.32,.23,.45,.36,.83,.86,.49,2.06-.94,2.88l-2.72,1.84c-1.56,.9-4.22,1.14-5.57,.36l-8.26-4.19c-.06,.03-2.98-1.58-3.05-1.58-.06,0-2.48-1.36-2.53-1.39l-27.11-15.49-5.71-3.26L12.22,40.55c-.05-.03-2.21-1.29-2.22-1.34-.16-.1-.29-.21-.41-.32-.88-.87-.55-2.08,.9-2.92Z"/><path class="cls-5" d="M90.96,85.42l-40.4-23.07L10.16,39.27c-1.42-.82-1.24-2.25,.4-3.19l2.67-1.85c1.63-.94,4.11-1.05,5.52-.23l40.4,23.07,40.4,23.07c1.42,.82,1.24,2.25-.4,3.19l-2.67,1.85c-1.63,.94-4.11,1.05-5.52,.23Z"/></g><g><path class="cls-3" d="M94.13,45.28L17.04,1.34C14.38-.19,11.94-.36,10.01,.58l-.06-.07L3.81,4.12l.02,.08c1.98-1.18,4.57-1.1,7.41,.54L88.33,48.67c6.21,3.58,11.24,13.2,11.24,21.48v8.16c0,4.02-1.2,6.98-3.13,8.55l3.43-2.26c2.88-1.65,5.5-4.22,5.5-9.69v-8.16c0-8.28-5.03-17.9-11.24-21.48Z"/><path class="cls-11" d="M88.33,48.67L11.24,4.74C5.03,1.16,0,4.96,0,13.24v8.16c0,8.28,5.03,17.9,11.24,21.48l77.09,43.93c6.21,3.58,11.24-.22,11.24-8.5v-8.16c0-8.28-5.03-17.9-11.24-21.48Z"/><path class="cls-10" d="M92.8,86.34c-1.09,0-2.28-.37-3.55-1.1L12.15,41.3C6.55,38.07,1.82,28.95,1.82,21.4V13.24c0-4.87,1.95-8.02,4.96-8.02,1.09,0,2.28,.37,3.55,1.1L87.42,50.25c5.6,3.23,10.33,12.35,10.33,19.9v8.16c0,2.6-.54,4.74-1.56,6.18-.86,1.22-2.01,1.84-3.4,1.84Z"/><path class="cls-6" d="M93.8,85.84c-1.09,0-2.28-.37-3.55-1.1L13.15,40.8c-5.6-3.23-10.33-12.35-10.33-19.9V12.74c0-3.53,1.02-6.14,2.73-7.33-2.3,.75-3.73,3.65-3.73,7.83v8.16c0,7.55,4.73,16.67,10.33,19.9l77.09,43.93c1.27,.73,2.46,1.1,3.55,1.1,.86,0,1.62-.24,2.28-.71-.4,.13-.83,.21-1.28,.21Z"/><path class="cls-14" d="M88.97,48.15L11.87,4.21c-3.08-1.78-5.88-1.73-7.91-.23,1.84-.7,4.45-.84,6.89,.57L87.95,48.49c6.21,3.58,11.24,13.2,11.24,21.48v8.16c0,4.17-1.63,7.59-3.68,9.12,2.84-1.08,4.7-4.44,4.7-9.46v-8.16c0-8.28-5.03-17.9-11.24-21.48Z"/><path class="cls-13" d="M100.62,49.96c.84,2.04-.98,4.72-4.07,5.99-3.09,1.27-3.41-.53-4.25-2.57s-1.44-2.35,1.64-3.62c3.09-1.27,5.83-1.85,6.67,.19Z"/></g><path class="cls-4" d="M7.86,25.34v-7.76c0-4.16,2.53-6.07,5.64-4.27l44.22,25.29c3.1,1.79,5.64,6.64,5.64,10.78v7.76c0,4.14-2.54,6.06-5.64,4.27L13.5,36.12c-3.12-1.8-5.64-6.63-5.64-10.78Z"/><path class="cls-4" d="M91.16,78.82l-5.52-9.53c-.58-1-1.46-1.61-2.13-1.55l-1.62-2.79c2.43-2.28,2.19-7.67-.74-12.71-3.19-5.51-8.37-8.49-11.56-6.67-3.19,1.82-3.19,7.76,0,13.27,2.92,5.04,7.5,7.96,10.7,7.02l1.62,2.79c-.39,.55-.3,1.61,.28,2.61l5.52,9.53c.69,1.19,1.81,1.84,2.5,1.45l.95-.54c.69-.39,.69-1.68,0-2.87Zm-11.98-16.71c-2.1,1.2-5.51-.77-7.62-4.4-2.1-3.63-2.1-7.54,0-8.74,2.1-1.2,5.51,.77,7.62,4.4,2.1,3.63,2.1,7.54,0,8.74Z"/></g></g></g></g></svg>