<?xml version="1.0" encoding="UTF-8"?><svg xmlns="http://www.w3.org/2000/svg" xmlns:xlink="http://www.w3.org/1999/xlink" viewBox="0 0 109.16 97.97"><defs><style>.cls-1{opacity:.04;}.cls-1,.cls-2,.cls-3,.cls-4,.cls-5,.cls-6,.cls-7,.cls-8,.cls-9,.cls-10,.cls-11,.cls-12,.cls-13,.cls-14,.cls-15,.cls-16,.cls-17,.cls-18,.cls-19,.cls-20,.cls-21,.cls-22,.cls-23,.cls-24,.cls-25,.cls-26,.cls-27,.cls-28,.cls-29,.cls-30,.cls-31,.cls-32{fill:#585d85;}.cls-2{opacity:.06;}.cls-3{opacity:.05;}.cls-4{opacity:.03;}.cls-33{fill:url(#radial-gradient-4);}.cls-33,.cls-34,.cls-35,.cls-36,.cls-37,.cls-38{mix-blend-mode:color-dodge;}.cls-34{fill:url(#radial-gradient-5);}.cls-35{fill:url(#Radial_Gradient_1-2);}.cls-36{fill:url(#Radial_Gradient_1-3);}.cls-5{opacity:.13;}.cls-6{opacity:.08;}.cls-7{opacity:.07;}.cls-8{opacity:.12;}.cls-9{opacity:.11;}.cls-10{opacity:.1;}.cls-11{opacity:.09;}.cls-39{fill:url(#radial-gradient-3);}.cls-39,.cls-40{mix-blend-mode:multiply;}.cls-41{fill:url(#linear-gradient);}.cls-37{opacity:.4;}.cls-42{fill:url(#radial-gradient-2);}.cls-12{opacity:.15;}.cls-13{opacity:.15;}.cls-14{opacity:.14;}.cls-15{opacity:.22;}.cls-16{opacity:.23;}.cls-17{opacity:.21;}.cls-18{opacity:.19;}.cls-19{opacity:.2;}.cls-20{opacity:.17;}.cls-21{opacity:.18;}.cls-22{opacity:.16;}.cls-43{fill:url(#linear-gradient-8);}.cls-44{fill:url(#linear-gradient-9);}.cls-45{fill:url(#linear-gradient-3);}.cls-46{fill:url(#linear-gradient-4);}.cls-47{fill:url(#linear-gradient-2);}.cls-48{fill:url(#linear-gradient-6);}.cls-49{fill:url(#linear-gradient-7);}.cls-50{fill:url(#linear-gradient-5);}.cls-40{fill:url(#radial-gradient);}.cls-51{opacity:.5;}.cls-23{opacity:.02;}.cls-24{opacity:0;}.cls-52{fill:url(#linear-gradient-14);}.cls-53{fill:url(#linear-gradient-15);}.cls-54{fill:url(#linear-gradient-13);}.cls-55{fill:url(#linear-gradient-12);}.cls-56{fill:url(#linear-gradient-10);}.cls-57{fill:url(#linear-gradient-11);}.cls-58{isolation:isolate;}.cls-25{opacity:0;}.cls-59{fill:url(#Radial_Gradient_1-4);mix-blend-mode:screen;}.cls-38{fill:url(#Radial_Gradient_1);}.cls-26{opacity:.29;}.cls-27{opacity:.3;}.cls-28{opacity:.26;}.cls-29{opacity:.27;}.cls-30{opacity:.28;}.cls-31{opacity:.24;}.cls-32{opacity:.25;}</style><linearGradient id="linear-gradient" x1="88.94" y1="71.04" x2="71.25" y2="39.94" gradientTransform="matrix(1, 0, 0, 1, 0, 0)" gradientUnits="userSpaceOnUse"><stop offset="0" stop-color="#cdd2f3"/><stop offset=".04" stop-color="#fff"/><stop offset=".17" stop-color="#ebeeff"/><stop offset=".2" stop-color="#e5e9ff"/><stop offset=".35" stop-color="#dadffa"/><stop offset=".59" stop-color="#bfc5ed"/><stop offset=".72" stop-color="#afb6e5"/><stop offset=".91" stop-color="#afb6e5"/><stop offset="1" stop-color="#afb6e5"/></linearGradient><linearGradient id="linear-gradient-2" x1="81.25" y1="71.24" x2="62.69" y2="40.94" gradientTransform="matrix(1, 0, 0, 1, 0, 0)" gradientUnits="userSpaceOnUse"><stop offset="0" stop-color="#e5e9ff"/><stop offset=".23" stop-color="#dadffa"/><stop offset=".62" stop-color="#bfc5ed"/><stop offset=".82" stop-color="#afb6e5"/></linearGradient><radialGradient id="Radial_Gradient_1" cx="87.83" cy="62.58" fx="87.83" fy="62.58" r="16.51" gradientTransform="matrix(1, 0, 0, 1, 0, 0)" gradientUnits="userSpaceOnUse"><stop offset="0" stop-color="#fff"/><stop offset="1" stop-color="#000"/></radialGradient><linearGradient id="linear-gradient-3" x1="71.84" y1="57.75" x2="80.12" y2="55.27" gradientTransform="matrix(1, 0, 0, 1, 0, 0)" gradientUnits="userSpaceOnUse"><stop offset=".04" stop-color="#5277f7"/><stop offset=".27" stop-color="#5586f8"/><stop offset=".71" stop-color="#5faefc"/><stop offset="1" stop-color="#6cf"/></linearGradient><linearGradient id="linear-gradient-4" x1="60.68" y1="58.72" x2="80.58" y2="54.26" xlink:href="#linear-gradient-3"/><linearGradient id="linear-gradient-5" x1="72.72" y1="49.87" x2="71.3" y2="52.58" xlink:href="#linear-gradient-3"/><radialGradient id="radial-gradient" cx="69.84" cy="38.51" fx="69.84" fy="38.51" r="17.65" gradientTransform="matrix(1, 0, 0, 1, 0, 0)" gradientUnits="userSpaceOnUse"><stop offset="0" stop-color="#afb6e5"/><stop offset="1" stop-color="#fff"/></radialGradient><linearGradient id="linear-gradient-6" x1="74.76" y1="2.68" x2="92.74" y2="33.82" gradientTransform="matrix(1, 0, 0, 1, 0, 0)" gradientUnits="userSpaceOnUse"><stop offset=".03" stop-color="#588ff9"/><stop offset=".14" stop-color="#5da5fb"/><stop offset=".3" stop-color="#6cf"/><stop offset=".64" stop-color="#5277f7"/><stop offset=".88" stop-color="#588ff9"/><stop offset=".97" stop-color="#5277f7"/></linearGradient><linearGradient id="linear-gradient-7" x1="40.14" y1="31.08" x2="111.94" y2="14.98" gradientTransform="translate(22 -34.81) rotate(30.31)" xlink:href="#linear-gradient-3"/><radialGradient id="Radial_Gradient_1-2" cx="77.87" cy="22.78" fx="77.87" fy="22.78" r="13.7" xlink:href="#Radial_Gradient_1"/><linearGradient id="linear-gradient-8" x1="44.68" y1="10.88" x2="70.92" y2="56.33" gradientTransform="matrix(1, 0, 0, 1, 0, 0)" gradientUnits="userSpaceOnUse"><stop offset="0" stop-color="#cdd2f3"/><stop offset=".2" stop-color="#e5e9ff"/><stop offset=".28" stop-color="#eff1ff"/><stop offset=".35" stop-color="#fff"/><stop offset=".46" stop-color="#ebedf8"/><stop offset=".68" stop-color="#b8bee8"/><stop offset=".72" stop-color="#afb6e5"/><stop offset=".91" stop-color="#afb6e5"/><stop offset="1" stop-color="#afb6e5"/></linearGradient><radialGradient id="radial-gradient-2" cx="-23706.17" cy="-11267.09" fx="-23706.17" fy="-11267.09" r="47.03" gradientTransform="translate(4956.96 2729.84) rotate(-20.34) scale(.53 .37) skewX(-56.13)" gradientUnits="userSpaceOnUse"><stop offset="0" stop-color="#5277f7"/><stop offset="0" stop-color="#5176f6"/><stop offset=".12" stop-color="#3e5bbd"/><stop offset=".24" stop-color="#2e438b"/><stop offset=".36" stop-color="#202e60"/><stop offset=".49" stop-color="#141d3d"/><stop offset=".61" stop-color="#0b1022"/><stop offset=".74" stop-color="#05070f"/><stop offset=".87" stop-color="#010103"/><stop offset="1" stop-color="#000"/></radialGradient><linearGradient id="linear-gradient-9" x1="15.51" y1="14.59" x2="53.49" y2="80.38" xlink:href="#linear-gradient-6"/><linearGradient id="linear-gradient-10" x1="-46.88" y1="68.46" x2="103.11" y2="34.84" gradientTransform="translate(29.87 -6.26) rotate(30.31)" xlink:href="#linear-gradient-3"/><linearGradient id="linear-gradient-11" x1="43.35" y1="81.22" x2="8.68" y2="21.17" gradientTransform="translate(29.87 -6.26) rotate(30.31)" xlink:href="#linear-gradient-8"/><linearGradient id="linear-gradient-12" x1="36.8" y1="86.06" x2="2.3" y2="26.31" xlink:href="#linear-gradient-6"/><radialGradient id="Radial_Gradient_1-3" cx="31.69" cy="51.28" fx="31.69" fy="51.28" r="28.42" xlink:href="#Radial_Gradient_1"/><radialGradient id="radial-gradient-3" cx="51.56" cy="39.47" fx="51.56" fy="39.47" r="40.98" gradientTransform="translate(29.87 -6.26) rotate(30.31)" xlink:href="#radial-gradient"/><linearGradient id="linear-gradient-13" x1="33.65" y1="40.29" x2="41.39" y2="54.26" gradientTransform="matrix(1, 0, 0, 1, 0, 0)" gradientUnits="userSpaceOnUse"><stop offset=".12" stop-color="#361cac"/><stop offset=".35" stop-color="#3830bd"/><stop offset=".52" stop-color="#3c26ad"/><stop offset=".85" stop-color="#480c84"/><stop offset="1" stop-color="#4e0070"/></linearGradient><linearGradient id="linear-gradient-14" x1="27.62" y1="50.92" x2="35.72" y2="50.92" gradientTransform="matrix(1, 0, 0, 1, 0, 0)" gradientUnits="userSpaceOnUse"><stop offset="0" stop-color="#273b98"/><stop offset=".23" stop-color="#2e2ba2"/><stop offset=".4" stop-color="#361cac"/><stop offset=".77" stop-color="#440b88"/><stop offset="1" stop-color="#4e0070"/></linearGradient><linearGradient id="linear-gradient-15" x1="28.89" y1="50.92" x2="34.46" y2="50.92" gradientTransform="matrix(1, 0, 0, 1, 0, 0)" gradientUnits="userSpaceOnUse"><stop offset="0" stop-color="#836df3"/><stop offset=".05" stop-color="#8b6df3"/><stop offset=".22" stop-color="#a56df3"/><stop offset=".37" stop-color="#b56df3"/><stop offset=".49" stop-color="#bb6df3"/><stop offset="1" stop-color="#f36dd4"/></linearGradient><radialGradient id="Radial_Gradient_1-4" cx="32.51" cy="50.78" fx="32.51" fy="50.78" r="4.38" xlink:href="#Radial_Gradient_1"/><radialGradient id="radial-gradient-4" cx="492.76" cy="-1604.61" fx="492.76" fy="-1604.61" r="18.63" gradientTransform="translate(1037.79 1121.43) rotate(-51.62) scale(.39 .9) skewX(.02)" gradientUnits="userSpaceOnUse"><stop offset="0" stop-color="#6cf"/><stop offset="0" stop-color="#62c5f6"/><stop offset=".07" stop-color="#4b97bd"/><stop offset=".14" stop-color="#376f8b"/><stop offset=".21" stop-color="#264d60"/><stop offset=".27" stop-color="#18313d"/><stop offset=".34" stop-color="#0d1b22"/><stop offset=".41" stop-color="#060c0f"/><stop offset=".48" stop-color="#010303"/><stop offset=".55" stop-color="#000"/></radialGradient><radialGradient id="radial-gradient-5" cx="2566.29" cy="-12076.53" fx="2566.29" fy="-12076.53" r="23.92" gradientTransform="translate(-1225.47 5311.64) rotate(-21.22) scale(1.21 .37)" xlink:href="#radial-gradient-4"/></defs><g class="cls-58"><g id="Layer_2"><g id="Layer_1-2"><g><g class="cls-51"><path class="cls-24" d="M50.46,95.96c-5.33,3.07-14.86,2.57-21.24-1.11-6.39-3.69-7.26-9.19-1.93-12.27l58.64-29.64c5.32-3.07,14.7-5.87,21.09-2.18,6.39,3.69-3.04,12.92-8.36,16l-48.19,29.2Z"/><path class="cls-25" d="M51.36,95.13c-5.23,3.02-14.58,2.54-20.84-1.08-6.26-3.62-7.1-9.01-1.87-12.03l57.06-28.85c5.23-3.02,14.43-5.73,20.69-2.11,6.26,3.61-2.86,12.62-8.09,15.64l-46.95,28.43Z"/><path class="cls-23" d="M52.25,94.31c-5.14,2.97-14.31,2.5-20.44-1.04-6.13-3.54-6.94-8.83-1.81-11.8l55.48-28.07c5.14-2.97,14.16-5.58,20.29-2.04,6.13,3.54-2.69,12.33-7.82,15.29l-45.71,27.66Z"/><path class="cls-4" d="M53.15,93.48c-5.04,2.91-14.03,2.46-20.03-1.01-6-3.47-6.79-8.66-1.74-11.57l53.9-27.28c5.04-2.91,13.89-5.44,19.89-1.97,6,3.47-2.51,12.03-7.56,14.94l-44.46,26.89Z"/><path class="cls-1" d="M54.04,92.66c-4.95,2.86-13.75,2.42-19.63-.97-5.88-3.39-6.63-8.48-1.68-11.33l52.33-26.5c4.95-2.86,13.62-5.29,19.49-1.9,5.87,3.39-2.34,11.73-7.29,14.58l-43.22,26.12Z"/><path class="cls-3" d="M54.94,91.83c-4.86,2.8-13.48,2.38-19.22-.93-5.75-3.32-6.47-8.3-1.62-11.1l50.75-25.72c4.85-2.8,13.35-5.15,19.09-1.83,5.75,3.32-2.16,11.43-7.02,14.23l-41.98,25.35Z"/><path class="cls-2" d="M55.83,91.01c-4.76,2.75-13.2,2.35-18.82-.9-5.62-3.24-6.31-8.12-1.55-10.87l49.17-24.93c4.76-2.75,13.08-5.01,18.69-1.76,5.62,3.24-1.99,11.13-6.75,13.88l-40.74,24.58Z"/><path class="cls-7" d="M56.73,90.18c-4.67,2.69-12.93,2.31-18.42-.86-5.49-3.17-6.16-7.94-1.49-10.63l47.59-24.15c4.67-2.69,12.81-4.86,18.3-1.69,5.49,3.17-1.81,10.83-6.48,13.52l-39.5,23.81Z"/><path class="cls-6" d="M57.62,89.36c-4.57,2.64-12.65,2.27-18.01-.82-5.36-3.09-6-7.76-1.43-10.4l46.01-23.36c4.57-2.64,12.54-4.72,17.9-1.62,5.36,3.09-1.64,10.53-6.21,13.17l-38.26,23.04Z"/><path class="cls-11" d="M58.52,88.53c-4.48,2.59-12.38,2.23-17.61-.79-5.23-3.02-5.84-7.58-1.36-10.17l44.43-22.58c4.48-2.59,12.27-4.57,17.5-1.55,5.23,3.02-1.46,10.23-5.94,12.82l-37.02,22.27Z"/><path class="cls-10" d="M59.42,87.71c-4.39,2.53-12.1,2.2-17.21-.75-5.1-2.95-5.69-7.4-1.3-9.93l42.85-21.79c4.38-2.53,12-4.43,17.1-1.48,5.1,2.95-1.29,9.93-5.67,12.46l-35.77,21.5Z"/><path class="cls-9" d="M60.31,86.88c-4.29,2.48-11.83,2.16-16.8-.71-4.97-2.87-5.53-7.22-1.24-9.7l41.28-21.01c4.29-2.48,11.73-4.28,16.7-1.41,4.97,2.87-1.11,9.63-5.4,12.11l-34.53,20.73Z"/><path class="cls-8" d="M61.21,86.06c-4.2,2.42-11.55,2.12-16.4-.68-4.84-2.8-5.37-7.04-1.17-9.47l39.7-20.22c4.2-2.42,11.46-4.14,16.3-1.34,4.84,2.8-.94,9.33-5.14,11.75l-33.29,19.96Z"/><path class="cls-5" d="M62.1,85.23c-4.1,2.37-11.28,2.08-15.99-.64-4.72-2.72-5.21-6.87-1.11-9.23l38.12-19.44c4.1-2.37,11.19-4,15.9-1.27,4.71,2.72-.76,9.03-4.87,11.4l-32.05,19.19Z"/><path class="cls-14" d="M63,84.41c-4.01,2.32-11,2.04-15.59-.6-4.59-2.65-5.06-6.69-1.05-9l36.54-18.66c4.01-2.31,10.92-3.85,15.5-1.2,4.59,2.65-.59,8.73-4.6,11.05l-30.81,18.42Z"/><path class="cls-12" d="M63.89,83.58c-3.92,2.26-10.73,2.01-15.19-.57-4.46-2.57-4.9-6.51-.98-8.77l34.96-17.87c3.91-2.26,10.65-3.71,15.1-1.13,4.46,2.57-.41,8.43-4.33,10.69l-29.57,17.65Z"/><path class="cls-13" d="M64.79,82.76c-3.82,2.21-10.45,1.97-14.78-.53-4.33-2.5-4.74-6.33-.92-8.53l33.38-17.09c3.82-2.21,10.38-3.56,14.71-1.06,4.33,2.5-.24,8.13-4.06,10.34l-28.33,16.88Z"/><path class="cls-22" d="M65.68,81.93c-3.73,2.15-10.18,1.93-14.38-.49-4.2-2.43-4.59-6.15-.86-8.3l31.8-16.3c3.73-2.15,10.11-3.42,14.31-.99,4.2,2.42-.06,7.83-3.79,9.99l-27.08,16.11Z"/><path class="cls-20" d="M66.58,81.11c-3.63,2.1-9.9,1.89-13.97-.46-4.07-2.35-4.43-5.97-.79-8.07l30.22-15.52c3.63-2.1,9.84-3.27,13.91-.92,4.07,2.35,.11,7.54-3.52,9.63l-25.84,15.34Z"/><path class="cls-21" d="M67.47,80.28c-3.54,2.04-9.63,1.85-13.57-.42-3.94-2.28-4.27-5.79-.73-7.84l28.65-14.73c3.54-2.04,9.57-3.13,13.51-.85,3.94,2.28,.29,7.24-3.25,9.28l-24.6,14.57Z"/><path class="cls-18" d="M68.37,79.45c-3.45,1.99-9.35,1.82-13.17-.39-3.81-2.2-4.11-5.61-.67-7.6l27.07-13.95c3.45-1.99,9.3-2.99,13.11-.78,3.81,2.2,.46,6.94-2.98,8.93l-23.36,13.79Z"/><path class="cls-19" d="M69.26,78.63c-3.35,1.94-9.08,1.78-12.76-.35-3.69-2.13-3.96-5.43-.6-7.37l25.49-13.16c3.35-1.93,9.03-2.84,12.71-.71,3.68,2.13,.64,6.64-2.72,8.57l-22.12,13.02Z"/><path class="cls-17" d="M70.16,77.8c-3.26,1.88-8.8,1.74-12.36-.31-3.56-2.05-3.8-5.25-.54-7.14l23.91-12.38c3.26-1.88,8.76-2.7,12.31-.64,3.56,2.05,.81,6.34-2.45,8.22l-20.88,12.25Z"/><path class="cls-15" d="M71.05,76.98c-3.16,1.83-8.53,1.7-11.95-.28-3.43-1.98-3.64-5.08-.48-6.9l22.33-11.6c3.16-1.83,8.49-2.55,11.91-.57,3.43,1.98,.99,6.04-2.18,7.86l-19.63,11.48Z"/><path class="cls-16" d="M71.95,76.15c-3.07,1.77-8.25,1.67-11.55-.24-3.3-1.9-3.49-4.9-.42-6.67l20.75-10.81c3.07-1.77,8.22-2.41,11.51-.5,3.3,1.9,1.16,5.74-1.91,7.51l-18.39,10.71Z"/><path class="cls-31" d="M72.84,75.33c-2.98,1.72-7.98,1.63-11.15-.2-3.17-1.83-3.33-4.72-.35-6.44l19.17-10.03c2.98-1.72,7.95-2.27,11.12-.43,3.17,1.83,1.34,5.44-1.64,7.16l-17.15,9.94Z"/><path class="cls-32" d="M73.74,74.5c-2.88,1.66-7.7,1.59-10.74-.17-3.04-1.76-3.17-4.54-.29-6.2l17.6-9.24c2.88-1.66,7.68-2.12,10.72-.36,3.04,1.76,1.51,5.14-1.37,6.8l-15.91,9.17Z"/><path class="cls-28" d="M74.63,73.68c-2.79,1.61-7.43,1.55-10.34-.13-2.91-1.68-3.01-4.36-.23-5.97l16.02-8.46c2.79-1.61,7.41-1.98,10.32-.29,2.91,1.68,1.68,4.84-1.1,6.45l-14.67,8.4Z"/><path class="cls-29" d="M75.53,72.85c-2.69,1.56-7.15,1.51-9.93-.09-2.78-1.61-2.86-4.18-.16-5.74l14.44-7.67c2.69-1.56,7.14-1.83,9.92-.23,2.78,1.61,1.86,4.54-.83,6.1l-13.43,7.63Z"/><path class="cls-30" d="M76.42,72.03c-2.6,1.5-6.88,1.48-9.53-.06-2.66-1.53-2.7-4-.1-5.5l12.86-6.89c2.6-1.5,6.87-1.69,9.52-.16,2.65,1.53,2.03,4.24-.57,5.74l-12.19,6.86Z"/><path class="cls-26" d="M77.32,71.2c-2.51,1.45-6.6,1.44-9.13-.02-2.53-1.46-2.54-3.82-.04-5.27l11.28-6.11c2.51-1.45,6.6-1.54,9.12-.09,2.53,1.46,2.21,3.94-.3,5.39l-10.94,6.09Z"/><path class="cls-27" d="M78.21,70.38c-2.41,1.39-6.33,1.4-8.72,.02-2.4-1.38-2.39-3.64,.03-5.04l9.7-5.32c2.41-1.39,6.33-1.4,8.72-.02,2.4,1.38,2.38,3.64-.03,5.04l-9.7,5.32Z"/></g><g><g><path class="cls-41" d="M87.08,70.63l-.04-.33c-.91-7.12-4.13-12.55-4.13-19.23v-17.12l-11.39-6.58-6.13,3.65s8.43,25.25,7.49,31.4c0,2.31,1.64,5.14,3.65,6.3l.1,.06,1.06,8.96,8.04-4.65c.83-.29,1.35-1.16,1.35-2.47Z"/><path class="cls-47" d="M74.53,77.85l-6.9-3.98c-2.02-1.16-3.65-3.99-3.65-6.3h0c.94-6.15,1.4-12.65,1.4-19.42V31.02l11.39,6.58v17.12c0,6.67,.46,13.6,1.36,20.72l.04,.33c0,2.31-1.64,3.25-3.65,2.08Z"/><path class="cls-38" d="M78.45,75.28c-.91-7.12-1.36-14.04-1.36-20.72v-17.12l-11.39-6.58v.58l10.79,6.23v17.12c0,6.67,.46,13.6,1.36,20.72l.04,.33c0,1.14-.4,1.94-1.04,2.32,.99-.18,1.64-1.09,1.64-2.55l-.04-.33Z"/><g><polygon class="cls-45" points="72.98 53.78 72.01 61.68 74.13 60.46 74.13 53.09 72.98 53.78"/><polygon class="cls-46" points="72.99 53.78 72.01 61.68 67.85 59.33 68.83 51.39 72.99 53.78"/><polygon class="cls-50" points="68.83 51.39 72.99 53.78 74.13 53.09 69.96 50.71 68.83 51.39"/></g><path class="cls-40" d="M74.53,77.85l-6.9-3.98c-2.02-1.16-3.65-3.99-3.65-6.3h0c.94-6.15,1.4-12.65,1.4-19.42V31.02l11.39,6.58v17.12c0,6.67,.46,13.6,1.36,20.72l.04,.33c0,2.31-1.64,3.25-3.65,2.08Z"/></g><g><path class="cls-48" d="M99.83,23.61c0,3.93-1.35,6.71-3.56,8.05-.07,.04-11.5,6.78-11.57,6.81-2.29,1.28-.83-1.63-4.31-3.63-7-4.04-12.68-13.83-12.68-21.87,0-3.97-3.67-4.01-1.42-5.33,.06-.04,11.94-6.84,12-6.88,2.28-1.24,5.41-1.01,8.85,.98,7,4.04,12.68,13.83,12.68,21.87Z"/><ellipse class="cls-49" cx="75.26" cy="23.21" rx="10.32" ry="17.88" transform="translate(-1.42 41.16) rotate(-30.31)"/><path class="cls-35" d="M75.87,8.35c-3.36-1.94-6.41-2.2-8.67-1.07,2.11-.59,4.74-.15,7.58,1.49,7,4.04,12.68,13.83,12.68,21.87,0,4.18-1.54,7.06-4,8.29,3.1-.87,5.1-3.95,5.1-8.72,0-8.04-5.68-17.83-12.68-21.87Z"/></g><path class="cls-43" d="M85.98,31.35c0,3.81-1.32,6.51-3.46,7.82-.01,0-2.02,1.17-4.87,2.82-11.87,6.89-16.31,19.11-22.93,34.19l-.03,.07c-4.51,2.52-40.7-58.14-36.27-60.75h.02c15.85,1.22,28.57,4.01,40.06-2.58,3.73-2.14,6.54-3.75,6.56-3.76,2.22-1.2,5.25-.98,8.6,.95,6.8,3.93,12.32,13.44,12.32,21.25Z"/><g class="cls-37"><path class="cls-42" d="M94.11,28.37c-2.32,2.38-4.61,4.31-6.47,5.52-.01,0-1.72,1.11-4.13,2.66-10.07,6.48-13.13,11.45-24.26,32.67-.02,.04-6.35-6.57-6.35-6.57-3.77,2.41-10.55-15.31,12.2-28.25l.67,.42c5.93-1.79,8.93-3.66,18.63-9.89,3.15-2.02,5.53-3.55,5.54-3.55,1.83-1.16,6.25-.63,6.74-.04,.98,1.2,2.17,2.16-2.58,7.04Z"/></g><g><path class="cls-44" d="M58.2,64.21c0,8.2-2.83,14.01-7.43,16.82-.14,.08-4.42,2.8-4.56,2.88-4.79,2.68-1.73-3.4-8.99-7.59-14.63-8.44-26.48-28.9-26.48-45.68,0-8.3-7.67-8.37-2.97-11.14,.13-.08,5.33-2.94,5.47-3.01,4.77-2.58,11.3-2.11,18.49,2.04,14.63,8.44,26.48,28.9,26.48,45.68Z"/><ellipse class="cls-56" cx="26.48" cy="52.01" rx="21.56" ry="37.34" transform="translate(-22.63 20.48) rotate(-30.31)"/><ellipse class="cls-57" cx="26.48" cy="52.01" rx="20.15" ry="34.91" transform="translate(-22.63 20.48) rotate(-30.31)"/><path class="cls-55" d="M31.35,78.38c-13.67-7.89-24.76-27.02-24.76-42.71,0-7.23,2.36-12.47,6.24-15.25-6.69,1.22-11.11,7.39-11.11,17.29,0,15.69,11.09,34.81,24.76,42.71,7.37,4.26,13.99,4.37,18.52,1.13-3.91,.71-8.61-.26-13.65-3.17Z"/><path class="cls-36" d="M27.26,20.95c-7.01-4.05-14.27-3.78-17.63-2.19,4.42-1.24,10.66-.49,16.6,2.94,14.63,8.44,26.48,28.9,26.48,45.68,0,8.74-3.98,14.93-9.13,17.5,5.4-2,10.16-8.28,10.16-18.25,0-16.78-11.86-37.24-26.48-45.68Z"/><ellipse class="cls-39" cx="26.48" cy="52.01" rx="20.15" ry="34.91" transform="translate(-22.63 20.48) rotate(-30.31)"/></g><g><path class="cls-54" d="M40.44,36.42c-1.49,1.22-11.61,9.5-11.63,9.51-.72,.42,.46,.43,.46,1.7,0,2.57,1.81,5.7,4.05,6.99,1.11,.64,.64,1.57,1.38,1.16,.02-.01,10.56-4.04,13.43-5.14-1.83-5-4.48-9.89-7.68-14.24Z"/><path class="cls-52" d="M35.72,53.26c0,2.57-1.81,3.6-4.05,2.31-2.24-1.29-4.05-4.42-4.05-6.99s1.81-3.6,4.05-2.31c2.24,1.29,4.05,4.42,4.05,6.99Z"/><path class="cls-53" d="M34.46,52.52c0,1.77-1.25,2.48-2.79,1.59-1.54-.89-2.79-3.04-2.79-4.8s1.25-2.48,2.79-1.59c1.54,.89,2.79,3.04,2.79,4.8Z"/><path class="cls-59" d="M31.87,46.17c-1.07-.62-2.05-.7-2.77-.34,.68-.19,1.51-.05,2.42,.48,2.24,1.29,4.05,4.42,4.05,6.99,0,1.34-.49,2.26-1.28,2.65,.99-.28,1.63-1.26,1.63-2.79,0-2.57-1.81-5.7-4.05-6.99Z"/></g><path class="cls-33" d="M28.1,68c7.27,5.75,11.14,12.96,8.65,16.1-2.49,3.14-10.39,1.02-17.66-4.73s-11.14-12.96-8.65-16.1c2.49-3.14,10.39-1.02,17.66,4.73Z"/><path class="cls-34" d="M77.17,12.97c1.77,4.56-8.87,12.94-23.76,18.72s-28.4,6.77-30.16,2.22c-1.77-4.56,8.87-12.94,23.76-18.72,14.89-5.78,28.4-6.77,30.16-2.22Z"/></g></g></g></g></g></svg>