<?xml version="1.0" encoding="UTF-8"?><svg xmlns="http://www.w3.org/2000/svg" xmlns:xlink="http://www.w3.org/1999/xlink" viewBox="0 0 115.15 101.77"><defs><style>.cls-1{fill:#836df3;mix-blend-mode:screen;opacity:.7;}.cls-2{fill:url(#linear-gradient);}.cls-3{fill:#fff;}.cls-4{fill:#bb6df3;}.cls-5{fill:#ced3f4;}.cls-6{fill:#afb6e5;}.cls-7{fill:#361cac;}.cls-8{fill:#5277f7;}.cls-9{fill:url(#linear-gradient-8);}.cls-10{fill:url(#linear-gradient-3);}.cls-11{fill:url(#linear-gradient-4);}.cls-12{fill:url(#linear-gradient-2);}.cls-13{fill:url(#linear-gradient-6);}.cls-14{fill:url(#linear-gradient-7);}.cls-15{fill:url(#linear-gradient-5);}.cls-16{fill:url(#radial-gradient);mix-blend-mode:multiply;}.cls-17{fill:url(#New_Gradient_Swatch_copy_12);opacity:.5;}.cls-18{isolation:isolate;}</style><radialGradient id="radial-gradient" cx="1044.17" cy="-2511.28" fx="1044.17" fy="-2511.28" r="25.84" gradientTransform="translate(-1192.73 1687.23) scale(1.22 .64)" gradientUnits="userSpaceOnUse"><stop offset=".19" stop-color="#afb6e5"/><stop offset="1" stop-color="#fff"/></radialGradient><linearGradient id="linear-gradient" x1="106.01" y1="85.51" x2="47.35" y2="-1.16" gradientTransform="matrix(1, 0, 0, 1, 0, 0)" gradientUnits="userSpaceOnUse"><stop offset=".09" stop-color="#4088ec"/><stop offset=".5" stop-color="#388cd6"/><stop offset=".69" stop-color="#4dc0e9"/><stop offset=".8" stop-color="#58d9f3"/><stop offset="1" stop-color="#38a6f5"/></linearGradient><linearGradient id="linear-gradient-2" x1="56.33" y1="1768.44" x2="143.36" y2="1768.44" gradientTransform="translate(-24.04 -2040.39) rotate(30) skewX(30)" gradientUnits="userSpaceOnUse"><stop offset="0" stop-color="#311b61"/><stop offset=".2" stop-color="#290e52"/><stop offset=".49" stop-color="#200041"/><stop offset="1" stop-color="#0f001f"/></linearGradient><linearGradient id="linear-gradient-3" x1="85.33" y1="30.2" x2="36" y2="76.2" gradientTransform="translate(34.55 -24.46) rotate(30.31)" gradientUnits="userSpaceOnUse"><stop offset="0" stop-color="#00c7c5"/><stop offset=".33" stop-color="#2d9be0"/><stop offset=".63" stop-color="#5277f7"/><stop offset=".69" stop-color="#5a76f6"/><stop offset=".79" stop-color="#7273f5"/><stop offset=".91" stop-color="#9970f4"/><stop offset="1" stop-color="#bb6df3"/></linearGradient><linearGradient id="linear-gradient-4" x1="45.91" y1="71.82" x2="66.35" y2="46.74" gradientTransform="matrix(1, 0, 0, 1, 0, 0)" gradientUnits="userSpaceOnUse"><stop offset="0" stop-color="#836df3"/><stop offset=".05" stop-color="#8b6df3"/><stop offset=".22" stop-color="#a56df3"/><stop offset=".37" stop-color="#b56df3"/><stop offset=".49" stop-color="#bb6df3"/><stop offset="1" stop-color="#f36dd4"/></linearGradient><linearGradient id="New_Gradient_Swatch_copy_12" x1="62.03" y1="51.38" x2="63.27" y2="51.38" gradientTransform="matrix(1, 0, 0, 1, 0, 0)" gradientUnits="userSpaceOnUse"><stop offset="0" stop-color="#311b61"/><stop offset=".2" stop-color="#290e52"/><stop offset=".49" stop-color="#200041"/><stop offset="1" stop-color="#0f001f"/></linearGradient><linearGradient id="linear-gradient-5" x1="0" y1="79.03" x2="24.63" y2="79.03" gradientTransform="matrix(1, 0, 0, 1, 0, 0)" gradientUnits="userSpaceOnUse"><stop offset="0" stop-color="#00c7c5"/><stop offset=".4" stop-color="#5277f7"/><stop offset=".52" stop-color="#6175f6"/><stop offset=".75" stop-color="#8971f4"/><stop offset="1" stop-color="#bb6df3"/></linearGradient><linearGradient id="linear-gradient-6" x1="28.12" y1="69.43" x2="29.77" y2="72.31" gradientTransform="matrix(1, 0, 0, 1, 0, 0)" gradientUnits="userSpaceOnUse"><stop offset="0" stop-color="#273b98"/><stop offset=".23" stop-color="#2e2ba2"/><stop offset=".4" stop-color="#361cac"/><stop offset=".77" stop-color="#440b88"/><stop offset="1" stop-color="#4e0070"/></linearGradient><linearGradient id="linear-gradient-7" x1="4.84" y1="77.68" x2="46.49" y2="57.19" xlink:href="#linear-gradient-5"/><linearGradient id="linear-gradient-8" x1="10.49" y1="88.21" x2="35.04" y2="59.17" xlink:href="#linear-gradient-5"/></defs><g class="cls-18"><g id="Layer_2"><g id="Layer_1-2"><g><ellipse class="cls-16" cx="83.56" cy="85.28" rx="31.59" ry="16.49"/><g><path class="cls-2" d="M67.94,5.17C58.14-.49,49.2-1.34,42.5,1.83l-5.39,3.06v.03c6.69-3.11,15.58-2.23,25.33,3.4,20.81,12.02,37.68,41.12,37.68,65,0,11.59-3.98,19.82-10.45,23.85l3.62-2.11c7.58-3.53,12.35-12.19,12.35-24.88,0-23.88-16.87-52.98-37.68-65Z"/><path class="cls-12" d="M62.43,8.32C41.62-3.7,24.75,5.92,24.75,29.8s16.87,52.98,37.68,65,37.68,2.4,37.68-21.48S83.24,20.33,62.43,8.32Z"/><path class="cls-3" d="M62.99,8c-10.55-6.09-20.09-6.62-26.93-2.55,6.8-3.72,16.11-3.06,26.38,2.87,20.81,12.02,37.68,41.11,37.68,65,0,11.77-4.1,20.07-10.75,24.03,6.98-3.82,11.31-12.25,11.31-24.35,0-23.88-16.87-52.98-37.68-65Z"/><ellipse class="cls-10" cx="62.43" cy="51.56" rx="30.67" ry="53.13" transform="translate(-17.49 38.55) rotate(-30.31)"/><ellipse class="cls-3" cx="62.43" cy="51.56" rx="29.01" ry="50.25" transform="translate(-17.49 38.55) rotate(-30.31)"/><ellipse class="cls-6" cx="62.43" cy="51.56" rx="24.83" ry="43.01" transform="translate(-17.49 38.56) rotate(-30.31)"/><ellipse class="cls-3" cx="62.43" cy="51.56" rx="20.12" ry="34.86" transform="translate(-17.49 38.56) rotate(-30.31)"/><ellipse class="cls-6" cx="62.43" cy="51.56" rx="15.68" ry="27.16" transform="translate(-17.49 38.56) rotate(-30.31)"/><ellipse class="cls-3" cx="62.43" cy="51.56" rx="11.5" ry="19.92" transform="translate(-17.49 38.56) rotate(-30.31)"/><path class="cls-6" d="M62.98,92.11c-19.68-11.36-35.64-38.89-35.64-61.48,0-10.78,3.64-18.49,9.58-22.37-6.27,3.75-10.13,11.6-10.13,22.71,0,22.59,15.96,50.11,35.64,61.48,10.29,5.94,19.55,6.29,26.06,2.04-6.47,3.88-15.51,3.39-25.51-2.39Z"/><path class="cls-5" d="M62.98,79.58c-13.66-7.88-24.72-26.98-24.72-42.65,0-7.51,2.55-12.86,6.7-15.54-4.48,2.55-7.25,8.05-7.25,15.88,0,15.67,11.07,34.76,24.72,42.65,7.11,4.11,13.52,4.35,18.03,1.44-4.47,2.55-10.65,2.15-17.48-1.79Z"/><path class="cls-5" d="M62.98,67.42c-7.8-4.51-14.13-15.42-14.13-24.37,0-4.17,1.38-7.19,3.63-8.75-2.58,1.45-4.18,4.6-4.18,9.1,0,8.95,6.33,19.86,14.13,24.37,4.17,2.4,7.91,2.5,10.49,.7-2.55,1.43-6.07,1.2-9.94-1.04Z"/><path class="cls-11" d="M70.29,56.1c0,4.98-3.52,6.99-7.86,4.48-4.34-2.51-7.86-8.58-7.86-13.56s3.52-6.99,7.86-4.48c4.34,2.51,7.86,8.58,7.86,13.56Z"/><path class="cls-17" d="M63.27,51.74c0,.39-.28,.55-.62,.35-.34-.2-.62-.68-.62-1.07s.28-.55,.62-.35c.34,.2,.62,.68,.62,1.07Z"/><path class="cls-4" d="M62.43,42.53c-1.96-1.13-3.76-1.34-5.14-.77,1.3-.33,2.89-.05,4.61,.95,4.34,2.51,7.86,8.58,7.86,13.56,0,2.73-1.06,4.56-2.73,5.25,1.97-.5,3.25-2.42,3.25-5.43,0-4.98-3.52-11.05-7.86-13.56Z"/></g><g><path class="cls-15" d="M5.93,84.5l-4.12-.56c-2.25-.3-2.46-3.48-.27-4.08l23.1-6.31-18.71,10.95Z"/><path class="cls-8" d="M6.09,84.1l-4.12-.56c-1.43-.19-2.03-1.54-1.73-2.65-.6,1.16-.04,2.84,1.57,3.06l4.12,.56,18.71-10.95-.99,.27-17.55,10.28Z"/><path class="cls-1" d="M1.91,83.66l4.12,.56,17.88-10.47-.26,.07-17.55,10.28-4.12-.56c-1.43-.19-2.03-1.54-1.73-2.65-.02,.05-.04,.1-.06,.14-.29,1.11,.31,2.43,1.73,2.63Z"/><g><path class="cls-6" d="M64.04,50.85c0,.08-.03,.14-.07,.17,0,0-.41,1.89-5.46,4.82-7.22,4.18-4,1.96-4,1.96-.19,.11-.07-.13-.36-.3-.58-.34-1.06-1.15-1.06-1.82,0-.33-.31-.33-.12-.44,0,0-3.53,1.69,3.69-2.49,5.07-2.93,6.94-2.36,6.94-2.36,.05-.03,.11-.02,.19,.02,.15,.08,.26,.29,.26,.46Z"/><path class="cls-5" d="M55.06,57.19c0,.76-.54,1.07-1.2,.68-.66-.38-1.2-1.31-1.2-2.07s.54-1.07,1.2-.68c.66,.38,1.2,1.31,1.2,2.07Z"/></g><g><path class="cls-13" d="M54.82,57.22c0,.35-.12,.61-.32,.73L4.66,86.91c-.21,.12-.07-.15-.39-.33-.63-.37-1.15-1.25-1.15-1.98,0-.36-.33-.36-.13-.48l49.88-28.97c.21-.11,.49-.09,.8,.09,.63,.37,1.15,1.25,1.15,1.98Z"/><path class="cls-7" d="M4.95,86.2c0,.73-.51,1.02-1.15,.65-.63-.37-1.15-1.25-1.15-1.98s.51-1.02,1.15-.65,1.15,1.25,1.15,1.98Z"/></g><path class="cls-8" d="M5.24,82.99l19.11-11.01-14.91-1.22c-5.58-.46-9.06,5.94-5.63,10.37l1.44,1.86Z"/><path class="cls-14" d="M5.54,82.93l19.1-11.01-14.91-1.22c-5.58-.46-9.06,5.94-5.63,10.37l1.43,1.86Z"/><path class="cls-1" d="M4.39,81.19c-3.43-4.43,.04-10.83,5.63-10.37l14.48,1.19,.15-.09-14.91-1.22c-5.58-.46-9.06,5.94-5.63,10.37l1.44,1.86,.13-.08-1.28-1.66Z"/><path class="cls-8" d="M6.45,85.23l.47,1.69c1.25,4.5,7.24,5.39,9.75,1.45l8.89-13.97-19.1,10.84Z"/><path class="cls-9" d="M6.75,84.99l.47,1.69c1.25,4.5,7.24,5.39,9.75,1.45l8.89-13.97-19.1,10.84Z"/><path class="cls-1" d="M17.12,87.85c-2.51,3.94-8.49,3.05-9.75-1.45l-.42-1.52-.21,.12,.47,1.69c1.25,4.5,7.24,5.39,9.75,1.45l8.89-13.97-.03,.02-8.7,13.67Z"/></g></g></g></g></g></svg>