<svg xmlns="http://www.w3.org/2000/svg" fill-rule="evenodd" clip-rule="evenodd" image-rendering="optimizeQuality" shape-rendering="geometricPrecision" text-rendering="geometricPrecision" viewBox="0 0 512 512"><path fill="#424242" fill-rule="nonzero" d="M257 485c-68,0 -123,-27 -123,-60 0,-26 33,-49 82,-57 6,-1 75,-1 81,0 49,8 81,31 81,57 2,33 -54,60 -121,60z" class="color373e4e svgShape"/><path fill="#373737" fill-rule="nonzero" d="M280 426c-4,0 -43,0 -48,0 -4,0 -7,-3 -7,-7l0 -83c0,-4 3,-7 7,-7l48 0c4,0 7,3 7,7l0 83c0,4 -3,7 -7,7z" class="color30343e svgShape"/><path fill="#424242" fill-rule="nonzero" d="M135 27l341 0c20,0 36,16 36,36l0 244c0,20 -16,37 -36,37l-440 0c-20,0 -36,-17 -36,-37l0 -244c0,-20 16,-36 36,-36l99 0z" class="color373e4e svgShape"/><path fill="#d6d6d6" d="M476 41l-440 0c-12,0 -22,10 -22,22l0 213 484 0 0 -213c0,-12 -10,-22 -22,-22z" class="colorb5daf7 svgShape"/><path fill="#080808" fill-rule="nonzero" d="M214 317l-19 0c-4 0-8-3-8-7 0-4 4-8 8-8l19 0c4 0 8 4 8 8 0 4-4 7-8 7zM266 317l-19 0c-5 0-8-3-8-7 0-4 3-8 8-8l19 0c4 0 7 4 7 8 0 4-3 7-7 7zM318 317l-19 0c-4 0-8-3-8-7 0-4 4-8 8-8l19 0c4 0 7 4 7 8 0 4-3 7-7 7z" class="color2e3038 svgShape"/><path fill="#979797" fill-rule="nonzero" d="M256 169c-10,0 -18,-9 -18,-18l0 -77c0,-10 8,-18 18,-18 10,0 18,8 18,18l0 77c0,10 -8,18 -18,18z" class="coloref4b3f svgShape"/><path fill="#979797" fill-rule="nonzero" d="M256 261c-50,0 -90,-41 -90,-90 0,-35 19,-66 50,-82 2,-1 5,-1 6,0 2,1 4,2 5,4l7 20c2,4 0,8 -3,10 -18,9 -29,27 -29,48 0,30 24,54 54,54 30,0 54,-25 54,-54 0,-20 -11,-39 -29,-48 -4,-2 -5,-6 -4,-10l8 -19c1,-2 3,-4 5,-5 1,-1 4,0 6,1 31,15 50,46 50,81 0,49 -40,90 -90,90z" class="coloref4b3f svgShape"/></svg>