<svg id="Layer_1" enable-background="new 0 0 512 512" height="512" viewBox="0 0 512 512" width="512" xmlns="http://www.w3.org/2000/svg"><g><path d="m245.002 10.998c-78.736 0-148.788 37.149-193.61 94.868l-51.253 158.013c4.161 131.663 112.19 237.123 244.863 237.123 135.311 0 245.002-109.691 245.002-245.002s-109.691-245.002-245.002-245.002z" fill="#3ece9a"/><path d="m481.573 207.529-124.045-124.046c-19.677-19.677-51.58-19.677-71.257 0-19.677 19.677-19.677 51.579 0 71.256l24.615 24.615c2.808 2.808.819 7.609-3.152 7.609h-107.173l2.745 8.862c-1.858 1.362-5.681 4.738-6.337 9.846-.588 4.578 1.502 9.288 6.214 13.999 5.34 5.341 5.342 10.427 5.343 15.345.002 6.891.004 14.011 14.812 19.516l3.585 42.149c-1.597 1.507-5.724 5.977-5.54 11.788.144 4.551 2.868 8.756 8.096 12.498.755.541 1.092 1.227 1.092 2.228 0 1.617-.806 3.662-2.251 6.033h79.414c3.971 0 5.96 4.801 3.152 7.61l-24.615 24.615c-19.677 19.677-19.677 51.579 0 71.256s51.58 19.677 71.257 0l124.045-124.046c27.928-27.927 27.928-73.206 0-101.133z" fill="#816ae2"/><path d="m230.001 329.228c2.467-4.319 2.889-7.664.35-9.482-15.648-11.201-1.871-22.447-1.871-22.447l-3.73-43.851c-25.5-9-6.835-21.165-20.508-34.838s.826-22.164.826-22.164l-2.937-9.481h-64.126c-40.492 0-76.047-25.303-90.533-60.873h-10.21c-18.46 29.456-30.821 63.116-35.334 99.22v22.8c25.701 47.981 76.288 81.106 134.725 81.106v.011h93.348z" fill="#7255ce"/><g><g><path d="m254.415 297.299h-25.935c-4.655 0-8.428-3.774-8.428-8.428v-61.55c0-4.654 3.773-8.428 8.428-8.428h25.935c4.655 0 8.428 3.774 8.428 8.428s-3.773 8.428-8.428 8.428h-17.507v44.694h17.507c4.655 0 8.428 3.774 8.428 8.428s-3.773 8.428-8.428 8.428z" fill="#deeeff"/></g><g><path d="m252.503 266.523h-24.023c-4.655 0-8.428-3.774-8.428-8.428s3.773-8.428 8.428-8.428h24.023c4.655 0 8.428 3.773 8.428 8.428 0 4.654-3.773 8.428-8.428 8.428z" fill="#deeeff"/></g></g><g><g><path d="m133.846 297.582c-10.828 0-20.994-4.365-27.892-11.977-3.126-3.45-2.863-8.779.586-11.904s8.779-2.862 11.905.585c3.654 4.033 9.411 6.44 15.401 6.44 5.655 0 9.626-3.313 10.198-6.517.757-4.24-5.718-6.979-7.721-7.718-9.654-3.561-18.228-7.376-18.588-7.538-.406-.181-.798-.394-1.17-.637-6.769-4.414-10.256-12.152-9.1-20.195 1.229-8.555 7.474-15.521 16.299-18.179 17.312-5.213 31.546 6.526 32.144 7.028 3.563 2.995 4.024 8.312 1.029 11.874-2.982 3.549-8.265 4.019-11.828 1.068-.256-.204-8.098-6.358-16.483-3.83-3.621 1.09-4.336 3.465-4.476 4.435-.095.661-.144 2.23 1.216 3.379 2.27.993 9.275 4.009 16.79 6.781 16.056 5.923 20.074 17.57 18.481 26.496-2.111 11.826-13.379 20.409-26.791 20.409z" fill="#deeeff"/></g></g><g><g><path d="m204.242 235.465h-34.305c-4.655 0-8.428-3.774-8.428-8.428s3.773-8.428 8.428-8.428h34.305c4.655 0 8.428 3.774 8.428 8.428s-3.773 8.428-8.428 8.428z" fill="#deeeff"/></g><g><path d="m187.021 297.582c-4.655 0-8.428-3.774-8.428-8.428v-60.134c0-4.654 3.773-8.428 8.428-8.428s8.428 3.774 8.428 8.428v60.134c0 4.655-3.773 8.428-8.428 8.428z" fill="#deeeff"/></g></g><g><g><path d="m278.84 297.582c-4.655 0-8.428-3.774-8.428-8.428v-62.118c0-4.654 3.773-8.428 8.428-8.428s8.428 3.774 8.428 8.428v62.118c0 4.655-3.773 8.428-8.428 8.428z" fill="#deeeff"/></g><g><path d="m278.96 270.601c-2.216 0-4.345-.873-5.923-2.432-1.59-1.571-2.491-3.709-2.505-5.944 0 0-.078-12.764-.078-17.658 0-4.002-.043-17.503-.043-17.503-.007-2.24.878-4.391 2.459-5.976 1.582-1.586 3.729-2.478 5.969-2.478h17.296c14.503 0 26.301 11.645 26.301 25.958 0 14.312-11.798 25.958-26.301 25.958-4.786 0-17.123.077-17.123.077-.017-.002-.034-.002-.052-.002zm8.333-35.136c.009 3.562.018 7.296.018 9.102 0 2.122.015 5.734.031 9.133 3.277-.017 6.732-.031 8.794-.031 5.12 0 9.445-4.168 9.445-9.102s-4.325-9.102-9.445-9.102z" fill="#deeeff"/></g></g><g><g><path d="m424.351 303.618c-4.655 0-8.428-3.774-8.428-8.428v-65.762h-7.43c-4.655 0-8.428-3.774-8.428-8.428s3.773-8.428 8.428-8.428h15.857c4.655 0 8.428 3.774 8.428 8.428v74.19c.001 4.655-3.772 8.428-8.427 8.428z" fill="#ffdd40"/></g></g><g><g><path d="m368.795 303.618c-16.013 0-29.041-13.028-29.041-29.041v-32.965c0-16.012 13.028-29.04 29.041-29.04s29.04 13.028 29.04 29.04v32.965c.001 16.014-13.027 29.041-29.04 29.041zm0-74.189c-6.719 0-12.185 5.466-12.185 12.184v32.965c0 6.719 5.466 12.185 12.185 12.185s12.185-5.466 12.185-12.185v-32.965c0-6.718-5.466-12.184-12.185-12.184z" fill="#ffdd40"/></g></g><path d="m230.352 319.746h-93.23c-.154-.007-.311-.011-.467-.011-38.443 0-74.586-15.169-101.77-42.713-14.853-15.05-25.978-32.706-32.956-51.877-1.271 10.107-1.929 20.404-1.929 30.855 0 2.637.056 5.261.139 7.879 6.078 9.41 13.173 18.28 21.249 26.463 30.661 31.069 71.407 48.23 114.784 48.354.16.008.32.012.482.012h93.698c5.237 0 9.481-4.245 9.481-9.481s-4.245-9.481-9.481-9.481z" fill="#ffc839"/><path d="m61.937 164.668c20.429 20.492 47.444 31.777 76.068 31.777h67.063c5.237 0 9.481-4.245 9.481-9.481 0-5.237-4.245-9.481-9.481-9.481h-67.063c-23.548 0-45.794-9.305-62.639-26.202-12.671-12.71-20.902-28.461-23.974-45.414-5.039 6.489-9.755 13.24-14.132 20.225 5.184 14.248 13.524 27.389 24.677 38.576z" fill="#ffc839"/><g><path d="m321.9 456.947c-15.992 0-31.025-6.227-42.333-17.535s-17.534-26.341-17.534-42.333 6.226-31.025 17.534-42.333l16.039-16.038h-65.255c-5.237 0-9.481-4.245-9.481-9.481s4.245-9.481 9.481-9.481h77.383c5.657 0 10.712 3.378 12.878 8.604s.98 11.189-3.02 15.191l-24.616 24.615c-7.726 7.725-11.98 17.998-11.98 28.924s4.254 21.198 11.98 28.924c7.725 7.726 17.998 11.981 28.924 11.981s21.198-4.255 28.924-11.981l124.045-124.045c24.186-24.186 24.186-63.539 0-87.725-3.703-3.703-3.703-9.707 0-13.409 3.704-3.702 9.706-3.702 13.409 0 15.297 15.297 23.722 35.636 23.722 57.27 0 21.635-8.425 41.974-23.722 57.272l-124.045 124.046c-11.308 11.307-26.341 17.534-42.333 17.534zm-14.165-118.238h.01z" fill="#ffdd40"/></g><g><path d="m307.735 196.445h-102.667c-5.237 0-9.481-4.245-9.481-9.481 0-5.237 4.245-9.481 9.481-9.481h90.538l-16.039-16.038c-23.342-23.342-23.342-61.324 0-84.666 11.307-11.307 26.341-17.534 42.333-17.534s31.025 6.226 42.333 17.534c3.703 3.703 3.703 9.707 0 13.409-3.704 3.702-9.706 3.702-13.409 0-7.725-7.726-17.998-11.98-28.924-11.98s-21.198 4.254-28.924 11.98c-15.949 15.948-15.949 41.899 0 57.847l24.615 24.615c4 4.001 5.186 9.963 3.021 15.19s-7.22 8.605-12.877 8.605z" fill="#ffdd40"/></g><g><path d="m481.573 217.01c-2.427 0-4.853-.926-6.705-2.777l-124.044-124.045c-3.703-3.703-3.703-9.707 0-13.409 3.704-3.702 9.706-3.702 13.409 0l124.045 124.045c3.703 3.703 3.703 9.707 0 13.409-1.852 1.85-4.278 2.777-6.705 2.777z" fill="#ffeb97"/></g><g fill="#55deb0"><path d="m333.543 27.5c-27.463-10.649-57.317-16.502-88.541-16.502-62.383 0-119.3 23.336-162.551 61.73 6.071 27.197 22.297 70.591 64.299 73.969 98.583 7.929 53.528-115.304 186.793-119.197z"/><path d="m225 414.281c0-43.333-56-43.333-121.228-43.333-28.516 0-51.562 5.543-68.472 11.781 42.927 70.891 120.776 118.273 209.703 118.273 2.026 0 4.046-.028 6.061-.077-40.105-27.03-26.064-54.169-26.064-86.644z"/></g></g></svg>