<svg id="Layer_1" enable-background="new 0 0 512 512" height="512" viewBox="0 0 512 512" width="512" xmlns="http://www.w3.org/2000/svg"><g><circle cx="256" cy="266.998" fill="#2a428c" r="245.002"/><path d="m110.895 464.409v-456.909c0-4.143-3.358-7.5-7.5-7.5s-7.5 3.357-7.5 7.5v444.951c4.836 4.179 9.845 8.162 15 11.958z" fill="#3c58a0"/><path d="m449.758 416.939h-387.516c4.004 5.166 8.201 10.175 12.597 15h362.323c4.396-4.825 8.592-9.834 12.596-15z" fill="#3c58a0"/><path d="m252.542 245.702h-23.683c-4.353 0-7.882 3.529-7.882 7.882v28.668c0 4.353 3.529 7.882 7.882 7.882h23.683c4.353 0 7.882-3.529 7.882-7.882v-28.668c0-4.353-3.529-7.882-7.882-7.882z" fill="#6bedc5"/><path d="m391.343 106.9h-23.683c-4.353 0-7.882 3.529-7.882 7.882v28.668c0 4.353 3.529 7.882 7.882 7.882h23.683c4.353 0 7.882-3.529 7.882-7.882v-28.668c.001-4.353-3.528-7.882-7.882-7.882z" fill="#ff4155"/><path d="m460.745 176.301h-23.683c-4.353 0-7.882 3.529-7.882 7.882v28.667c0 4.353 3.529 7.882 7.882 7.882h23.683c4.353 0 7.882-3.529 7.882-7.882v-28.667c0-4.353-3.529-7.882-7.882-7.882z" fill="#ffdd40"/><path d="m252.542 287.134h-23.683c-4.353 0-7.882-3.529-7.882-7.882v41.432c0 4.353 3.529 7.882 7.882 7.882h23.683c4.353 0 7.882-3.529 7.882-7.882v-41.432c0 4.353-3.529 7.882-7.882 7.882z" fill="#3ece9a"/><path d="m391.343 148.332h-23.683c-4.353 0-7.882-3.529-7.882-7.882v41.432c0 4.353 3.529 7.882 7.882 7.882h23.683c4.353 0 7.882-3.529 7.882-7.882v-41.432c.001 4.353-3.528 7.882-7.882 7.882z" fill="#e80054"/><path d="m460.745 217.733h-23.683c-4.353 0-7.882-3.529-7.882-7.882v41.432c0 4.353 3.529 7.882 7.882 7.882h23.683c4.353 0 7.882-3.529 7.882-7.882v-41.432c0 4.353-3.529 7.882-7.882 7.882z" fill="#ffb332"/><g><path d="m101.472 364.035h-12.126c-4.142 0-7.5-3.357-7.5-7.5s3.358-7.5 7.5-7.5h12.125c4.142 0 7.5 3.357 7.5 7.5s-3.357 7.5-7.499 7.5z" fill="#6389c6"/></g><g><path d="m101.472 294.634h-12.126c-4.142 0-7.5-3.357-7.5-7.5 0-4.142 3.358-7.5 7.5-7.5h12.125c4.142 0 7.5 3.358 7.5 7.5.001 4.142-3.357 7.5-7.499 7.5z" fill="#6389c6"/></g><g><path d="m101.472 225.233h-12.126c-4.142 0-7.5-3.357-7.5-7.5s3.358-7.5 7.5-7.5h12.125c4.142 0 7.5 3.357 7.5 7.5.001 4.143-3.357 7.5-7.499 7.5z" fill="#6389c6"/></g><g><path d="m101.472 155.832h-12.126c-4.142 0-7.5-3.357-7.5-7.5s3.358-7.5 7.5-7.5h12.125c4.142 0 7.5 3.357 7.5 7.5s-3.357 7.5-7.499 7.5z" fill="#6389c6"/></g><g><path d="m101.472 86.432h-12.126c-4.142 0-7.5-3.357-7.5-7.5s3.358-7.5 7.5-7.5h12.125c4.142 0 7.5 3.357 7.5 7.5s-3.357 7.5-7.499 7.5z" fill="#6389c6"/></g><g><path d="m171.299 445.988c-4.142 0-7.5-3.357-7.5-7.5v-12.126c0-4.143 3.358-7.5 7.5-7.5s7.5 3.357 7.5 7.5v12.126c0 4.143-3.358 7.5-7.5 7.5z" fill="#6389c6"/></g><g><path d="m240.7 445.988c-4.142 0-7.5-3.357-7.5-7.5v-12.126c0-4.143 3.358-7.5 7.5-7.5s7.5 3.357 7.5 7.5v12.126c0 4.143-3.358 7.5-7.5 7.5z" fill="#6389c6"/></g><g><path d="m310.101 445.988c-4.142 0-7.5-3.357-7.5-7.5v-12.126c0-4.143 3.358-7.5 7.5-7.5s7.5 3.357 7.5 7.5v12.126c0 4.143-3.358 7.5-7.5 7.5z" fill="#6389c6"/></g><g><path d="m379.502 445.988c-4.142 0-7.5-3.357-7.5-7.5v-12.126c0-4.143 3.358-7.5 7.5-7.5s7.5 3.357 7.5 7.5v12.126c0 4.143-3.358 7.5-7.5 7.5z" fill="#6389c6"/></g><path d="m256 21.996c-40.313 0-78.349 9.74-111.891 26.99 8.521 36.669 34.153 115.876 96.591 115.876 69.602 0 65.318-101.928 163.279-93.126-41.115-31.208-92.38-49.74-147.979-49.74z" fill="#3c58a0"/><path d="m496.978 311.397c-23.658-6.387-55.293-16.291-80.33-29.029-46.046-23.425-104.491 5.179-98.64 49.83 5.107 38.973 56.256 51.9 151.76 54.558 12.952-23.07 22.283-48.443 27.21-75.359z" fill="#3c58a0"/><path d="m321.942 176.301h-23.683c-4.353 0-7.882 3.529-7.882 7.882v28.667c0 4.353 3.529 7.882 7.882 7.882h23.683c4.353 0 7.882-3.529 7.882-7.882v-28.667c0-4.353-3.529-7.882-7.882-7.882z" fill="#ffdd40"/><path d="m321.942 217.733h-23.683c-4.353 0-7.882-3.529-7.882-7.882v41.432c0 4.353 3.529 7.882 7.882 7.882h23.683c4.353 0 7.882-3.529 7.882-7.882v-41.432c0 4.353-3.529 7.882-7.882 7.882z" fill="#ffb332"/><path d="m186.796 176.301h-23.683c-4.353 0-7.882 3.529-7.882 7.882v28.667c0 4.353 3.529 7.882 7.882 7.882h23.683c4.353 0 7.882-3.529 7.882-7.882v-28.667c0-4.353-3.529-7.882-7.882-7.882z" fill="#ffdd40"/><path d="m186.796 217.733h-23.683c-4.353 0-7.882-3.529-7.882-7.882v41.432c0 4.353 3.529 7.882 7.882 7.882h23.683c4.353 0 7.882-3.529 7.882-7.882v-41.432c0 4.353-3.529 7.882-7.882 7.882z" fill="#ffb332"/></g></svg>