<svg id="Layer_1" enable-background="new 0 0 512 512" height="512" viewBox="0 0 512 512" width="512" xmlns="http://www.w3.org/2000/svg"><g><path d="m41.641 385.698 24.517 36.167c26.09 31.944 60.078 57.178 98.99 72.726l66.466 16.203c8.022.793 16.156 1.206 24.386 1.206 13.707 0 27.145-1.144 40.239-3.308l44.858-11.884c15.27-5.656 29.818-12.795 43.48-21.235l46.017-36.715c43.536-44.224 70.409-104.899 70.409-171.859 0-135.311-109.691-245.002-245.002-245.002s-245.002 109.691-245.002 245.002c-.001 43.068 11.126 83.533 30.642 118.699z" fill="#47354f"/><path d="m226.428 73.143h-49.418c-6.551 0-11.863-5.311-11.863-11.862v-49.418c.001-6.552 5.312-11.863 11.863-11.863h49.418c6.551 0 11.862 5.311 11.862 11.863v49.417c.001 6.552-5.31 11.863-11.862 11.863z" fill="#ffc839"/><path d="m226.428 438.857h-49.418c-6.552 0-11.862 5.311-11.862 11.863v43.871c20.892 8.347 43.199 13.904 66.466 16.203 3.949-1.926 6.677-5.967 6.677-10.657v-49.417c-.001-6.552-5.311-11.863-11.863-11.863z" fill="#49b1f7"/><path d="m311.434 73.143c-20.198 0-36.572-16.374-36.572-36.571 0-20.198 16.374-36.572 36.572-36.572 20.198 0 36.571 16.374 36.571 36.571 0 20.198-16.374 36.572-36.571 36.572z" fill="#3ece9a"/><path d="m320.886 46.857c-10.099 0-18.286-8.187-18.286-18.286 0-10.099 8.187-18.286 18.286-18.286 10.099 0 18.286 8.187 18.286 18.286 0 10.099-8.187 18.286-18.286 18.286z" fill="#6bedc5"/><path d="m311.434 292.571c-20.198 0-36.572-16.374-36.572-36.571 0-20.198 16.374-36.571 36.571-36.571 20.198 0 36.571 16.373 36.571 36.571.001 20.198-16.373 36.571-36.57 36.571z" fill="#3ece9a"/><path d="m320.886 266.285c-10.099 0-18.286-8.187-18.286-18.286 0-10.099 8.187-18.286 18.286-18.286 10.099 0 18.286 8.187 18.286 18.286 0 10.1-8.187 18.286-18.286 18.286z" fill="#6bedc5"/><path d="m311.434 438.857c-20.198 0-36.572 16.374-36.572 36.572 0 14.774 8.766 27.493 21.376 33.264 15.491-2.56 30.493-6.563 44.858-11.885 4.342-6.014 6.908-13.395 6.908-21.379.001-20.198-16.373-36.572-36.57-36.572z" fill="#3ece9a"/><path d="m445.857 73.143h-49.418c-6.551 0-11.862-5.311-11.862-11.862v-49.418c0-6.552 5.31-11.863 11.862-11.863h49.418c6.551 0 11.862 5.311 11.862 11.863v49.417c0 6.552-5.311 11.863-11.862 11.863z" fill="#49b1f7"/><path d="m443.038 44.357h-24.709c-3.276 0-5.931-2.656-5.931-5.931v-24.709c0-3.276 2.656-5.931 5.931-5.931h24.709c3.276 0 5.931 2.656 5.931 5.931v24.709c0 3.276-2.655 5.931-5.931 5.931z" fill="#73c3f9"/><path d="m430.594 438.857h-34.155c-6.551 0-11.863 5.311-11.863 11.863v24.853c16.795-10.375 32.24-22.72 46.018-36.716z" fill="#ffc839"/><path d="m456.143 161.992-25.693-42.627c-4.223-7.006-14.381-7.006-18.604 0l-25.693 42.627c-4.364 7.239.85 16.468 9.302 16.468h51.387c8.451 0 13.665-9.229 9.301-16.468z" fill="#9181f2"/><path d="m449.931 151.052-12.847-21.313c-2.111-3.503-7.19-3.503-9.302 0l-12.847 21.313c-2.182 3.619.425 8.234 4.651 8.234h25.693c4.227 0 6.834-4.615 4.652-8.234z" fill="#a69dfc"/><path d="m236.714 161.992-25.693-42.627c-4.223-7.006-14.381-7.006-18.604 0l-25.693 42.627c-4.364 7.239.85 16.468 9.302 16.468h51.387c8.452 0 13.665-9.229 9.301-16.468z" fill="#ff7186"/><path d="m230.503 151.052-12.847-21.313c-2.111-3.503-7.191-3.503-9.302 0l-12.847 21.313c-2.182 3.619.425 8.234 4.651 8.234h25.693c4.227 0 6.833-4.615 4.652-8.234z" fill="#f9a0b1"/><path d="m236.714 381.421-25.693-42.626c-4.223-7.006-14.381-7.006-18.604 0l-25.693 42.626c-4.364 7.239.85 16.468 9.302 16.468h51.387c8.452-.001 13.665-9.23 9.301-16.468z" fill="#9181f2"/><path d="m230.503 370.48-12.847-21.313c-2.111-3.503-7.191-3.503-9.302 0l-12.847 21.313c-2.182 3.619.425 8.234 4.651 8.234h25.693c4.227 0 6.833-4.614 4.652-8.234z" fill="#a69dfc"/><path d="m111.004 346.715c3.958 3.958 6.024 9.076 6.248 14.259l24.168-24.168c-3.823-2.878-7.495-6.05-10.976-9.531s-6.653-7.152-9.531-10.976l-24.168 24.168c5.183.224 10.302 2.29 14.259 6.248z" fill="#bec8f7"/><path d="m94.441 393.658 18.082-18.082c8.389-8.389 8.389-21.991 0-30.38s-21.991-8.389-30.38 0l-16.983 16.983c-.992 11.116.557 33.37 29.281 31.479z" fill="#ff7186"/><path d="m274.513 183.206c-37.936-37.937-98.111-40.068-138.555-6.409.365 4.788 1.763 11.302 6.312 15.709 3.707 3.592 8.819 5.142 15.226 4.605-.286 2.29-.297 6.015 1.796 9.205 1.756 2.678 4.598 4.417 8.46 5.183-.491 3.428-1.051 11.729 3.599 18.22 3.234 4.516 8.316 7.225 15.11 8.058l28.034 38.134c-.781 2.627-2.8 11.232 1.875 17.894 3.424 4.879 9.58 7.514 18.314 7.844-.476 2.448-.811 6.719 1.556 10.03 1.818 2.544 4.81 3.985 8.906 4.298-.396 3.17-.611 9.932 3.553 15.183 3.265 4.118 8.487 6.343 15.493 6.674 3.588-2.746 7.039-5.755 10.322-9.038 40.203-40.205 40.203-105.387-.001-145.59z" fill="#deeeff"/><path d="m266.018 336.399c-24.226-.002-19.112-21.859-19.112-21.859-15.22 0-10.306-14.358-10.306-14.358-29.317 0-20.443-24.543-20.443-24.543l-28.876-39.28c-23.219-2.39-17.788-26.1-17.788-26.1-14.007-1.74-10.143-14.87-10.143-14.87-18.406 2.673-21.569-11.856-21.953-19.77-2.926 2.348-5.758 4.872-8.472 7.586-40.203 40.203-40.203 105.385 0 145.588 37.482 37.483 96.672 40.014 137.093 7.606z" fill="#d3dcfb"/><path d="m157.496 197.111c-.286 2.29-.297 6.015 1.796 9.205 1.756 2.678 4.598 4.417 8.46 5.183-.491 3.428-1.051 11.729 3.599 18.22 3.234 4.516 8.316 7.225 15.11 8.058l28.034 38.134c-.781 2.627-2.8 11.232 1.875 17.894 3.424 4.879 9.58 7.514 18.314 7.844-.476 2.448-.811 6.719 1.556 10.03 1.794 2.51 4.736 3.942 8.749 4.28 3.156-2.281 6.177-4.83 9.017-7.67 28.832-28.831 28.831-75.744-.001-104.575-26.432-26.433-68.051-28.613-97.013-6.579.172-.013.332-.009.504-.024z" fill="#56415e"/><path d="m236.6 300.182c-29.317 0-20.443-24.543-20.443-24.543l-28.876-39.28c-23.219-2.39-17.788-26.1-17.788-26.1-13.634-1.694-10.337-14.175-10.152-14.838-3.479 2.436-6.804 5.186-9.909 8.291-28.832 28.831-28.832 75.743-.001 104.575 26.562 26.562 68.46 28.632 97.438 6.251-15.173-.023-10.269-14.356-10.269-14.356z" fill="#47354f"/><path d="m167.752 211.499c-.491 3.428-1.051 11.729 3.599 18.22 3.234 4.516 8.316 7.225 15.11 8.058l28.034 38.134c-.781 2.627-2.8 11.232 1.875 17.894 3.357 4.783 9.346 7.404 17.81 7.816 10.065-5.379 16.915-15.984 16.915-28.193v-34.853c0-17.645-14.305-31.95-31.95-31.95h-34.853c-6.184 0-11.953 1.762-16.844 4.803.103.021.199.05.304.071z" fill="#ffdd40"/><path d="m184.292 305.376h34.854c6.443 0 12.435-1.914 17.453-5.194-29.316 0-20.442-24.543-20.442-24.543l-28.876-39.28c-23.219-2.39-17.788-26.1-17.788-26.1-10.192 5.339-17.15 16.01-17.15 28.313v34.853c0 17.647 14.304 31.951 31.949 31.951z" fill="#ffc839"/><path d="m216.157 236.36h-28.876c-2.868 0-5.202 2.334-5.202 5.203v28.874c0 2.869 2.334 5.203 5.202 5.203h28.876c2.868 0 5.202-2.334 5.202-5.203v-28.874c0-2.869-2.334-5.203-5.202-5.203z" fill="#ffeb97"/><path d="m10.998 266.998c0 25.645 3.947 50.366 11.258 73.595 20.942-10.054 48.454-30.655 43.827-68.507-7.333-59.997 23.333-90.003 57.333-132.669 21.432-26.896 14.121-60.745 5.789-82.097-70.855 42.938-118.207 120.777-118.207 209.678z" fill="#56415e"/><path d="m66.16 361.179-24.519 24.519c7.104 12.802 15.317 24.902 24.517 36.167.265-.24.54-.463.795-.719l28.488-28.489c-28.724 1.892-30.273-20.362-29.281-31.478z" fill="#ff4155"/><path d="m456.143 381.421-25.693-42.626c-4.223-7.006-14.381-7.006-18.604 0l-25.693 42.626c-4.364 7.239.85 16.468 9.302 16.468h51.387c8.451-.001 13.665-9.23 9.301-16.468z" fill="#ff7186"/><path d="m449.931 370.48-12.847-21.313c-2.111-3.503-7.19-3.503-9.302 0l-12.847 21.313c-2.182 3.619.425 8.234 4.651 8.234h25.693c4.227 0 6.834-4.614 4.652-8.234z" fill="#f9a0b1"/><path d="m320.886 485.858c-10.099 0-18.286-8.187-18.286-18.286 0-10.099 8.187-18.286 18.286-18.286 10.099 0 18.286 8.187 18.286 18.286 0 10.1-8.187 18.286-18.286 18.286z" fill="#6bedc5"/><path d="m223.609 483.358h-24.709c-3.276 0-5.931-2.656-5.931-5.931v-24.709c0-3.276 2.655-5.931 5.931-5.931h24.709c3.276 0 5.931 2.656 5.931 5.931v24.709c.001 3.276-2.655 5.931-5.931 5.931z" fill="#73c3f9"/><path d="m445.857 292.571h-49.418c-6.551 0-11.862-5.311-11.862-11.862v-49.418c0-6.552 5.311-11.863 11.862-11.863h49.418c6.551 0 11.863 5.311 11.863 11.863v49.418c-.001 6.551-5.312 11.862-11.863 11.862z" fill="#ffc839"/><path d="m443.038 263.786h-24.709c-3.276 0-5.931-2.656-5.931-5.931v-24.709c0-3.276 2.656-5.931 5.931-5.931h24.709c3.276 0 5.931 2.656 5.931 5.931v24.709c0 3.275-2.655 5.931-5.931 5.931z" fill="#ffdd40"/><path d="m223.609 44.357h-24.709c-3.276 0-5.931-2.656-5.931-5.931v-24.709c0-3.276 2.655-5.931 5.931-5.931h24.709c3.276 0 5.931 2.656 5.931 5.931v24.709c.001 3.276-2.655 5.931-5.931 5.931z" fill="#ffdd40"/><path d="m336.142 182.857h-49.418c-6.551 0-11.862-5.311-11.862-11.862v-49.418c0-6.551 5.311-11.862 11.862-11.862h49.418c6.552 0 11.863 5.311 11.863 11.862v49.418c0 6.551-5.311 11.862-11.863 11.862z" fill="#fc90ce"/><path d="m333.324 154.071h-24.709c-3.276 0-5.931-2.656-5.931-5.931v-24.709c0-3.276 2.655-5.931 5.931-5.931h24.709c3.276 0 5.931 2.656 5.931 5.931v24.709c0 3.276-2.656 5.931-5.931 5.931z" fill="#fcb1df"/><path d="m336.142 402.286h-49.418c-6.552 0-11.863-5.311-11.863-11.862v-49.418c0-6.552 5.311-11.862 11.863-11.862h49.418c6.552 0 11.863 5.311 11.863 11.862v49.418c0 6.551-5.311 11.862-11.863 11.862z" fill="#fc90ce"/><path d="m333.324 373.5h-24.709c-3.276 0-5.931-2.655-5.931-5.931v-24.709c0-3.276 2.655-5.931 5.931-5.931h24.709c3.276 0 5.931 2.656 5.931 5.931v24.709c0 3.276-2.656 5.931-5.931 5.931z" fill="#fcb1df"/></g></svg>