<svg id="Layer_1" enable-background="new 0 0 512 512" height="512" viewBox="0 0 512 512" width="512" xmlns="http://www.w3.org/2000/svg"><g><path d="m456.159 408.309c28.243-39.931 44.843-88.681 44.843-141.311 0-135.311-109.691-245.002-245.002-245.002s-245.002 109.691-245.002 245.002c0 52.63 16.6 101.38 44.843 141.311z" fill="#e80054"/><path d="m377.628 0h-195.918c-.964 1.709-1.745 3.782-1.92 6.163-.348 4.752 1.787 9.472 6.344 14.028 4.167 4.168 5.982 7.869 5.393 11.001-.715 3.802-4.89 5.677-4.928 5.693l-.291.125-.216.233c-.547.592-13.396 14.714-12.191 33.309.746 11.521 6.748 22.119 17.843 31.509l19.128 116.231c-.561 2.047-2.926 12.183 2.676 20.186 4.076 5.822 11.317 9.024 21.522 9.519 14.329.694 19.479 4.517 21.275 7.601 2.171 3.725.279 7.565.188 7.746-.331.673-8.037 16.609-1.489 28.831 3.699 6.904 11.151 11.132 22.149 12.562 15.319 1.994 35.041 7.409 42 21.89 5.328 11.087 2.44 25.922-8.587 44.095l-16.195 33.291 6.006 11.903c-3.732 2.908-15.98 13.553-16.495 28.33-.366 10.514 5.32 20.674 16.9 30.204v17.701c-1.816 1.529-7.042 6.48-6.915 12.718.029 1.397.325 2.751.879 4.062 19.634-3.124 38.495-8.567 56.282-16.064l85.93-60.763c6.862-7.519 13.267-15.463 19.161-23.795v-329.778c0-43.302-35.228-78.531-78.531-78.531z" fill="#deeeff"/><path d="m134.372 0c-43.303 0-78.531 35.229-78.531 78.531v329.778c5.893 8.332 12.298 16.276 19.16 23.795l85.931 60.764c29.232 12.319 61.354 19.132 95.068 19.132 13.738 0 27.205-1.15 40.327-3.324-3.889-8.407 5.997-15.807 5.997-15.807v-19.131c-38.064-30.762 0-57.374 0-57.374l-6.238-12.364 15.803-32.5c27.089-44.647 1.999-63.5-34.501-68.25s-19.508-39.243-19.508-39.243 8.258-16.007-22.737-17.508-22.736-28.116-22.736-28.116l-19.273-117.112c-36.254-30.229-5.94-63.008-5.94-63.008s13.364-5.767 0-19.131c-8.143-8.143-6.361-15.007-3.728-19.131h-49.094z" fill="#bec8f7"/><path d="m377.628 28.697h-186.12c.16.867.169 1.7.019 2.495-.715 3.802-4.89 5.677-4.928 5.693l-.291.125-.216.233c-.547.592-13.396 14.714-12.191 33.309.746 11.521 6.748 22.119 17.843 31.509l19.128 116.231c-.561 2.047-2.926 12.183 2.676 20.186 4.076 5.822 11.317 9.024 21.522 9.519 14.329.694 19.479 4.517 21.275 7.601 2.171 3.725.279 7.565.188 7.746-.331.673-8.037 16.609-1.489 28.831 3.699 6.904 11.151 11.132 22.149 12.562 15.319 1.994 35.041 7.409 42 21.89 5.328 11.087 2.44 25.922-8.587 44.095l-16.195 33.291 6.006 11.903c-3.732 2.908-15.98 13.553-16.495 28.33-.366 10.514 5.32 20.674 16.9 30.204v8.853h70.303c20.366-10.863 39.015-24.515 55.441-40.451.58-3.04.895-6.174.895-9.383v-354.938c.001-27.522-22.31-49.834-49.833-49.834z" fill="#1e9ef4"/><path d="m84.537 78.531v354.938c0 3.209.315 6.343.895 9.383 16.427 15.936 35.075 29.589 55.442 40.451h161.45v-9.565c-38.064-30.762 0-57.374 0-57.374l-6.238-12.364 15.803-32.5c27.089-44.647 1.999-63.5-34.501-68.25s-19.508-39.243-19.508-39.243 8.258-16.007-22.737-17.508-22.736-28.116-22.736-28.116l-19.273-117.112c-36.254-30.229-5.94-63.008-5.94-63.008s6.865-2.965 5.831-9.566h-58.654c-27.522 0-49.834 22.312-49.834 49.834z" fill="#0781dd"/><path d="m302.324 473.738h-167.952c-4.706 0-9.222-.819-13.423-2.309 12.568 8.319 25.939 15.521 39.986 21.44h141.389c5.283 0 9.566-4.283 9.566-9.566-.001-5.282-4.283-9.565-9.566-9.565z" fill="#49b1f7"/><path d="m102.29 457.772c-5.133-6.76-8.187-15.18-8.187-24.303v-354.938c0-22.204 18.065-40.269 40.269-40.269h52.822c5.283 0 9.566-4.283 9.566-9.566s-4.283-9.566-9.566-9.566h-52.822c-32.753 0-59.4 26.647-59.4 59.4v353.552c8.433 9.243 17.572 17.828 27.318 25.69z" fill="#49b1f7"/><g><path d="m202.531 312.369c-6.278-4.835-7.449-13.844-2.614-20.122l35.226-45.748c4.835-6.278 13.843-7.45 20.122-2.614 6.278 4.835 7.449 13.844 2.615 20.122l-35.227 45.748c-4.827 6.268-13.836 7.456-20.122 2.614z" fill="#d3dcfb"/></g><g><path d="m201.542 223.365c-7.925 0-14.348-6.424-14.348-14.348v-49.516c0-7.925 6.424-14.348 14.348-14.348 7.925 0 14.348 6.424 14.348 14.348v49.516c0 7.925-6.423 14.348-14.348 14.348z" fill="#d3dcfb"/></g><g><path d="m276.622 415.2c-4.602-1.535-8.188-5.175-9.591-9.739-2.387-7.76 1.169-12.415 7.625-20.867 5.015-6.567 14.35-18.79 29.999-41.15 5.535-7.908 7.573-13.344 8.307-16.513 1.79-7.719 9.504-12.527 17.218-10.736 7.72 1.789 12.527 9.499 10.737 17.218-1.902 8.203-6.192 17.114-12.751 26.486-8.233 11.762-14.764 20.79-19.864 27.7 7.334-.035 15.434-.107 23.143-.203 7.887-.135 14.428 6.243 14.528 14.167s-6.243 14.428-14.167 14.528c-38.691.485-51.298.404-55.184-.891z" fill="#d3dcfb"/></g><g><path d="m237.757 266.621c-6.278-4.834-7.449-13.844-2.615-20.122l35.226-45.748c4.832-6.278 13.844-7.45 20.122-2.615 6.278 4.834 7.449 13.843 2.615 20.122l-35.225 45.748c-4.827 6.271-13.837 7.456-20.123 2.615z" fill="#deeeff"/></g><g><path d="m201.542 173.849c-7.925 0-14.348-6.424-14.348-14.348v-35.168h-6.819c-7.924 0-14.348-6.424-14.348-14.348s6.424-14.349 14.348-14.349h21.168c7.925 0 14.348 6.424 14.348 14.349v49.516c-.001 7.925-6.424 14.348-14.349 14.348z" fill="#deeeff"/></g><g><path d="m325.123 344.405c-7.86-1.004-13.419-8.189-12.417-16.05l.35-2.74c-.375-5.724-5.151-10.266-10.968-10.266-5.243 0-9.778 3.72-10.785 8.845-1.528 7.776-9.06 12.84-16.845 11.314-7.775-1.527-12.841-9.068-11.315-16.845 3.642-18.549 20.021-32.012 38.944-32.012 21.884 0 39.688 17.804 39.688 39.689 0 .607-.038 1.214-.115 1.816l-.489 3.83c-.998 7.832-8.154 13.423-16.048 12.419z" fill="#deeeff"/></g><g><path d="m332.349 38.262h-145.155c-5.283 0-9.566-4.283-9.566-9.566s4.282-9.566 9.566-9.566h145.155c5.283 0 9.566 4.282 9.566 9.566s-4.283 9.566-9.566 9.566z" fill="#73c3f9"/></g><path d="m377.628 473.738h-75.305c-5.283 0-9.566 4.283-9.566 9.566s4.283 9.566 9.566 9.566h48.742c14.047-5.919 27.418-13.121 39.985-21.44-4.2 1.489-8.716 2.308-13.422 2.308z" fill="#73c3f9"/><path d="m437.028 432.083v-258.238c0-5.283-4.283-9.566-9.566-9.566s-9.566 4.282-9.566 9.566v259.625c0 9.123-3.054 17.544-8.187 24.303 9.747-7.863 18.885-16.447 27.319-25.69z" fill="#73c3f9"/><g><path d="m427.462 183.41c-5.283 0-9.566-4.283-9.566-9.566v-95.313c0-22.204-18.064-40.269-40.268-40.269h-45.279c-5.283 0-9.566-4.283-9.566-9.566s4.283-9.566 9.566-9.566h45.279c32.753 0 59.399 26.647 59.399 59.4v95.314c.001 5.284-4.282 9.566-9.565 9.566z" fill="#9bd8f9"/></g></g></svg>