<svg id="Layer_1" enable-background="new 0 0 512 512" height="512" viewBox="0 0 512 512" width="512" xmlns="http://www.w3.org/2000/svg"><g><path d="m141.912 483.851c34.076 17.965 72.889 28.149 114.088 28.149s80.012-10.184 114.088-28.149l60.307-44.791c43.653-44.241 70.607-105 70.607-172.063 0-135.311-109.691-245.002-245.002-245.002s-245.002 109.692-245.002 245.003c0 67.062 26.954 127.822 70.607 172.063z" fill="#ffdd40"/><path d="m207.298 125.186 16.465-16.133c1.369-1.341 3.677-.371 3.677 1.545v125.538l9-1.491s10.128 23.144 39.121 0c2.383-1.902 5.432-2.765 9-2.779 0-29.779 0-104.079 0-121.267 0-1.916 2.308-2.886 3.677-1.545l16.465 16.132c11.266 11.04 29.349 10.856 40.388-.411 11.04-11.268 10.854-29.351-.411-40.388l-68.69-67.306c-11.105-10.881-28.873-10.881-39.978 0l-68.691 67.306c-11.267 11.04-11.45 29.122-.411 40.388 11.039 11.267 29.122 11.45 40.388.411z" fill="#816ae2"/><path d="m423.901 445.404-137.747-184.088c-1.034-1.383-1.593-3.062-1.593-4.789v-14.324c0-2.378 0-6.686 0-12.339-3.568.014-6.617.877-9 2.779-28.993 23.144-39.121 0-39.121 0l-9 1.491v8.068 14.323c0 1.727-.559 3.407-1.593 4.789l-137.748 184.09c13.862 13.051 29.236 24.512 45.845 34.074l119.556-159.777c1.249-1.669 3.751-1.669 4.999 0l119.556 159.777c16.61-9.561 31.984-21.023 45.846-34.074z" fill="#6f5ed3"/><path d="m265.705 314.307c-2.277-3.041-5.905-4.857-9.705-4.857s-7.428 1.816-9.706 4.859l-120.096 160.499c5.115 3.202 10.355 6.219 15.714 9.043l114.088-152.469 114.088 152.469c5.359-2.825 10.599-5.842 15.714-9.043z" fill="#9181f2"/><path d="m227.44 223.644c-4.971 0-9 4.029-9 9v23.548l-136.835 182.869c4.242 4.299 8.639 8.444 13.187 12.421l138.262-184.775c2.183-2.92 3.386-6.535 3.386-10.18v-23.883c0-4.971-4.029-9-9-9z" fill="#9181f2"/><path d="m293.561 256.192v-23.548c0-4.971-4.029-9-9-9s-9 4.029-9 9v23.883c0 3.646 1.203 7.263 3.387 10.181l138.26 184.774c4.548-3.977 8.945-8.122 13.187-12.421z" fill="#9c8ff7"/><g><path d="m227.44 241.644c-4.971 0-9-4.029-9-9v-105.775l-4.843 4.746c-7.072 6.93-16.391 10.731-26.277 10.731-.131 0-.262 0-.393-.002-10.033-.102-19.425-4.104-26.446-11.27s-10.832-16.638-10.73-26.67c.102-10.033 4.105-19.425 11.271-26.446l68.69-67.307c14.495-14.201 38.08-14.201 52.575 0 3.55 3.479 3.608 9.177.13 12.728-3.479 3.551-9.178 3.608-12.728.13-7.549-7.396-19.831-7.396-27.38 0l-68.689 67.306c-3.732 3.656-5.816 8.547-5.87 13.771-.053 5.225 1.932 10.157 5.588 13.89 3.656 3.731 8.547 5.816 13.772 5.869 5.223.048 10.157-1.931 13.889-5.588l16.465-16.134c3.217-3.152 7.981-4.062 12.135-2.318 4.155 1.745 6.84 5.785 6.84 10.292v122.047c.001 4.971-4.028 9-8.999 9z" fill="#9c8ff7"/></g><g><path d="m284.561 241.644c-4.971 0-9-4.029-9-9v-122.046c0-4.507 2.685-8.547 6.84-10.292 4.155-1.746 8.919-.835 12.138 2.32l16.463 16.131c3.732 3.657 8.674 5.659 13.889 5.588 5.225-.053 10.116-2.138 13.772-5.869 3.656-3.732 5.641-8.665 5.588-13.891-.053-5.225-2.138-10.114-5.869-13.771-3.551-3.479-3.609-9.177-.13-12.728s9.177-3.608 12.727-.13c7.166 7.021 11.169 16.412 11.271 26.444s-3.708 19.505-10.73 26.672c-7.022 7.166-16.414 11.169-26.446 11.27-.131.002-.263.002-.392.002-9.888.001-19.205-3.802-26.277-10.731l-4.843-4.745v105.774c-.001 4.973-4.03 9.002-9.001 9.002z" fill="#9c8ff7"/></g><g><path d="m344.679 93.386c-2.273 0-4.547-.855-6.298-2.571l-68.69-67.307c-3.55-3.479-3.608-9.178-.129-12.728 3.478-3.551 9.177-3.607 12.727-.13l68.69 67.307c3.55 3.479 3.608 9.178.129 12.728-1.762 1.799-4.095 2.701-6.429 2.701z" fill="#a69dfc"/></g><g fill="#ffeb97"><path d="m256 512c23.17 0 45.586-3.221 66.829-9.236-16.244-58.276-40.16-95.112-66.829-95.112-26.67 0-50.586 36.836-66.83 95.112 21.244 6.015 43.66 9.236 66.83 9.236z"/><path d="m367.417 285.206c45.24 61.653 81.089 86.388 105.475 95.79 17.94-34.052 28.11-72.834 28.11-113.998 0-57.577-19.871-110.508-53.116-152.33-61.323 32.001-138.493 91.462-80.469 170.538z"/><path d="m144.583 285.206c-45.24 61.653-81.089 86.388-105.475 95.79-17.94-34.052-28.11-72.834-28.11-113.998 0-57.577 19.871-110.508 53.116-152.33 61.323 32.001 138.493 91.462 80.469 170.538z"/></g></g></svg>