<svg id="Layer_1" enable-background="new 0 0 512 512" height="512" viewBox="0 0 512 512" width="512" xmlns="http://www.w3.org/2000/svg"><g><path d="m245.002 10.998c-57.989 0-111.26 20.159-153.221 53.834l-.001 382.335c41.961 33.675 95.233 53.835 153.222 53.835 135.311 0 245.002-109.691 245.002-245.002s-109.691-245.002-245.002-245.002z" fill="#3ece9a"/><path d="m307.337 51.337h-142.561c-3.128 0-6.24.074-9.335.214-.974 2.948-1.549 6.538-.544 10.027 1.188 4.119 4.315 7.273 9.297 9.37 3.826 1.612 5.975 3.732 6.388 6.298.935 5.818-6.714 12.568-6.791 12.636l-.233.256c-.554.771-13.512 19.102-9.332 38.482 2.26 10.479 9.121 19.181 20.398 25.875l7.499 197.464c-2.033 2.794-12.009 17.673-7.823 35.159 3.332 13.923 14.738 25.635 33.903 34.819v19.785c-1.648 1.407-6.065 5.681-5.852 10.884.122 2.99 1.733 5.691 4.762 8.058h100.226c112.745 0 204.661-91.92 204.661-204.663 0-112.852-91.811-204.664-204.663-204.664z" fill="#deeeff"/><path d="m209.703 442.435v-21.446c-58.185-27.326-26.061-68.558-26.061-68.558l-7.55-198.815c-39.796-22.949-11.315-62.604-11.315-62.604s16.611-14.447 0-21.446c-10.376-4.372-9.697-12.548-7.725-18.071-22.904.859-44.864 5.507-65.27 13.338-16.827 13.505-31.818 29.197-44.578 46.625v289.085c12.76 17.428 27.75 33.12 44.577 46.625 22.691 8.708 47.299 13.496 72.996 13.496h44.927c-13.186-8.318-.001-18.229-.001-18.229z" fill="#bec8f7"/><path d="m307.337 80.289h-136.965c-1.274 4.897-6.517 9.536-6.581 9.592l-.233.256c-.554.771-13.512 19.102-9.332 38.482 2.26 10.479 9.121 19.181 20.398 25.875l7.499 197.464c-2.033 2.794-12.009 17.673-7.823 35.159 3.332 13.923 14.738 25.635 33.903 34.819v9.775h99.135c96.743 0 175.709-78.97 175.709-175.71.001-96.744-78.966-175.712-175.71-175.712z" fill="#816ae2"/><path d="m183.642 352.431-7.55-198.815c-39.796-22.949-11.315-62.604-11.315-62.604s5.874-5.109 7.142-10.723h-7.142c-58.228 0-110.007 28.615-142.014 72.486-14.598 31.373-22.763 66.343-22.763 103.225 0 36.881 8.165 71.851 22.761 103.223 32.007 43.873 83.787 72.488 142.015 72.488h44.927v-10.723c-58.185-27.326-26.061-68.557-26.061-68.557z" fill="#6f5ed3"/><path d="m209.703 420.988h-44.926c-86.003 0-156.835-66.148-164.322-150.239 2.875 48.399 19.796 93.01 46.748 129.822 32.101 26.155 73.035 41.862 117.574 41.862h44.926c5.922 0 10.723-4.801 10.723-10.723 0-5.92-4.801-10.722-10.723-10.722z" fill="#9181f2"/><path d="m164.776 91.012c5.922 0 10.723-4.801 10.723-10.723s-4.801-10.723-10.723-10.723c-44.539 0-85.473 15.707-117.573 41.862-26.953 36.812-43.874 81.423-46.748 129.822 7.486-84.09 78.318-150.238 164.321-150.238z" fill="#9181f2"/><g><path d="m307.339 442.435h-97.636c-5.922 0-10.723-4.801-10.723-10.723s4.801-10.723 10.723-10.723h97.636c90.974 0 164.986-74.013 164.986-164.987 0-5.922 4.801-10.723 10.723-10.723s10.723 4.801 10.723 10.723c0 102.799-83.634 186.433-186.432 186.433z" fill="#9c8ff7"/></g><g><path d="m307.338 91.012h-142.562c-5.922 0-10.723-4.801-10.723-10.723s4.801-10.723 10.723-10.723h142.561c5.922 0 10.723 4.801 10.723 10.723.001 5.921-4.8 10.723-10.722 10.723z" fill="#9c8ff7"/></g><g><path d="m483.048 266.724c-5.922 0-10.723-4.801-10.723-10.723 0-90.975-74.013-164.99-164.987-164.99-5.922 0-10.723-4.801-10.723-10.723s4.801-10.723 10.723-10.723c102.799 0 186.433 83.635 186.433 186.436 0 5.922-4.801 10.723-10.723 10.723z" fill="#a69dfc"/></g><g><g><path d="m176.091 354.554c-7.995 0-14.476-6.481-14.476-14.476v-157.51h-22.285c-7.995 0-14.476-6.481-14.476-14.476s6.481-14.476 14.476-14.476h36.761c7.995 0 14.476 6.481 14.476 14.476v171.987c.001 7.995-6.48 14.475-14.476 14.475z" fill="#bec8f7"/></g></g><g><g><path d="m277.918 358.414c-33.268 0-35.683-.805-37.591-1.442-4.87-1.624-8.508-5.297-9.979-10.077-2.319-7.539 1.89-13.668 3.687-16.284 1.666-2.425 4.145-5.672 7.896-10.584 8.78-11.495 25.12-32.892 52.495-72.005 8.31-11.874 13.668-22.548 15.932-31.741l.626-4.897c-.442-15.965-13.567-28.817-29.637-28.817-14.138 0-26.373 10.046-29.092 23.886-1.541 7.845-9.155 12.96-16.995 11.415-7.845-1.542-12.956-9.15-11.415-16.995 5.378-27.384 29.561-47.259 57.501-47.259 32.313 0 58.601 26.288 58.601 58.601 0 .614-.039 1.226-.117 1.835l-.852 6.671c-.062.483-.148.961-.257 1.435-3.006 12.968-9.929 27.256-20.576 42.468-22.228 31.759-37.293 52.011-46.982 64.801 16.788.028 39.858-.119 61.436-.389 7.96-.112 14.556 6.299 14.657 14.293.1 7.994-6.299 14.557-14.293 14.657-24.284.305-42.027.428-55.045.428zm-30.537-29.412v.001s.001-.001 0-.001z" fill="#deeeff"/></g></g></g></svg>