<svg id="Layer_1" enable-background="new 0 0 512 512" height="512" viewBox="0 0 512 512" width="512" xmlns="http://www.w3.org/2000/svg"><g><path d="m245.002 10.998c-57.988 0-111.26 20.159-153.221 53.834l-.001 382.335c41.961 33.675 95.233 53.835 153.222 53.835 135.311 0 245.002-109.691 245.002-245.002s-109.691-245.002-245.002-245.002z" fill="#49b1f7"/><path d="m307.337 51.336h-142.561c-.841 0-1.678.019-2.517.029-2.1 1.773-5.379 5.23-5.354 9.522.02 3.668 2.4 7.015 7.073 9.948 3.52 2.209 5.419 4.792 5.645 7.677.457 5.808-5.769 11.312-5.832 11.367l-.15.151c-.625.723-15.259 17.927-12.098 37.158 1.773 10.789 8.817 19.972 20.939 27.301l8.692 196.622c-2.168 2.797-12.538 17.329-8.619 34.727 3.226 14.317 15.217 26.461 35.646 36.104v19.732c-1.829 1.413-6.77 5.761-6.848 11.568-.035 2.584.89 5.065 2.748 7.42h103.235c112.748.002 204.664-91.918 204.664-204.661 0-112.853-91.811-204.665-204.663-204.665z" fill="#deeeff"/><path d="m164.776 51.336c-25.696 0-50.304 4.788-72.995 13.496-16.827 13.505-31.818 29.197-44.578 46.625v289.086c12.76 17.428 27.75 33.12 44.577 46.625 22.691 8.708 47.3 13.496 72.996 13.496h41.297c-8.95-9.751 3.629-18.229 3.629-18.229v-21.446c-61.16-28.326-27.003-69.381-27.003-69.381l-8.753-197.991c-41.916-24.699-9.17-62.604-9.17-62.604s14.336-12.447 0-21.446c-14.336-9.001 0-18.231 0-18.231z" fill="#bec8f7"/><path d="m307.337 80.289h-137.785c-.702 5.105-5.704 9.542-5.76 9.591l-.15.151c-.625.723-15.259 17.927-12.098 37.158 1.773 10.789 8.817 19.972 20.939 27.301l8.692 196.622c-2.168 2.797-12.538 17.329-8.619 34.727 3.226 14.317 15.217 26.461 35.646 36.104v9.769h99.135c96.743 0 175.709-78.97 175.709-175.71.002-96.745-78.965-175.713-175.709-175.713z" fill="#fb7ac0"/><path d="m182.699 351.607-8.753-197.991c-41.916-24.699-9.17-62.604-9.17-62.604s5.61-4.872 6.301-10.723h-6.302c-58.228 0-110.007 28.615-142.014 72.486-14.596 31.373-22.761 66.343-22.761 103.225 0 36.881 8.165 71.851 22.761 103.223 32.007 43.873 83.787 72.488 142.015 72.488h44.927v-10.723c-61.16-28.326-27.004-69.381-27.004-69.381z" fill="#f964b2"/><path d="m209.703 420.988h-44.926c-86.003 0-156.836-66.149-164.322-150.239 2.875 48.399 19.795 93.01 46.748 129.823 32.101 26.155 73.035 41.862 117.574 41.862h44.926c5.922 0 10.723-4.801 10.723-10.723 0-5.921-4.801-10.723-10.723-10.723z" fill="#fb7ac0"/><path d="m164.776 91.011c5.922 0 10.723-4.801 10.723-10.723s-4.801-10.723-10.723-10.723c-44.539 0-85.473 15.707-117.574 41.862-26.952 36.813-43.872 81.424-46.747 129.823 7.486-84.09 78.318-150.239 164.321-150.239z" fill="#fb7ac0"/><g><path d="m307.339 442.435h-97.636c-5.922 0-10.723-4.801-10.723-10.723s4.801-10.723 10.723-10.723h97.636c90.974 0 164.986-74.013 164.986-164.987 0-5.922 4.801-10.723 10.723-10.723s10.723 4.801 10.723 10.723c0 102.799-83.633 186.433-186.432 186.433z" fill="#fc90ce"/></g><g><path d="m307.338 91.011h-142.562c-5.922 0-10.723-4.801-10.723-10.723s4.801-10.723 10.723-10.723h142.561c5.922 0 10.723 4.801 10.723 10.723.001 5.922-4.8 10.723-10.722 10.723z" fill="#fc90ce"/></g><g><path d="m483.047 266.724c-5.922 0-10.723-4.801-10.723-10.723 0-90.975-74.013-164.99-164.987-164.99-5.922 0-10.723-4.801-10.723-10.723s4.801-10.723 10.723-10.723c102.799 0 186.433 83.635 186.433 186.436.001 5.922-4.8 10.723-10.723 10.723z" fill="#fcb1df"/></g><g><g><path d="m286.078 358.384c-34.917 0-63.324-28.408-63.324-63.325v-78.12c0-34.917 28.407-63.324 63.324-63.324s63.324 28.407 63.324 63.324v78.12c0 34.918-28.407 63.325-63.324 63.325zm0-175.816c-18.953 0-34.372 15.419-34.372 34.372v78.12c0 18.953 15.419 34.372 34.372 34.372s34.372-15.42 34.372-34.372v-78.12c0-18.953-15.419-34.372-34.372-34.372z" fill="#deeeff"/></g></g><g><g><path d="m173.947 354.555c-7.995 0-14.476-6.481-14.476-14.476v-157.511h-22.284c-7.995 0-14.476-6.481-14.476-14.476s6.481-14.476 14.476-14.476h36.76c7.995 0 14.476 6.481 14.476 14.476v171.987c0 7.995-6.481 14.476-14.476 14.476z" fill="#bec8f7"/></g></g></g></svg>