<svg id="Layer_1" enable-background="new 0 0 512 512" height="512" viewBox="0 0 512 512" width="512" xmlns="http://www.w3.org/2000/svg"><g><path d="m245.002 10.998c-25.958 0-50.967 4.051-74.446 11.531v466.942c23.479 7.48 48.488 11.531 74.446 11.531 135.311 0 245.002-109.691 245.002-245.002s-109.691-245.002-245.002-245.002z" fill="#ffdd40"/><path d="m278.529 22.529h-107.973c-21.926 6.986-42.508 16.979-61.271 29.486v115.094c8.528 10.329 21.252 17.479 37.994 21.289 13.854 3.151 24.667 10.968 32.14 23.231 24.613 40.395 6.224 117.011 4.973 122.055-1.797 2.62-15.801 24.088-9.728 47.964 4.13 16.238 16.608 29.648 37.095 39.868v17.562c-1.57 1.566-6.164 6.731-5.725 13.165.294 4.316 2.767 8.234 7.357 11.665-2.23 2.742-6.774 9.346-5.046 15.865 1.091 4.117 4.442 7.368 9.975 9.699h60.209c128.737-.001 233.471-104.736 233.471-233.472 0-128.737-104.735-233.471-233.471-233.471z" fill="#f9a0b1"/><path d="m215.612 463.638c-16.75-11.176-2.354-23.919-2.354-23.919v-19.135c-65.854-32.231-27.479-86.269-27.479-86.269s33.833-131-38.167-147.38c-18.876-4.295-30.879-12.483-38.327-22.224v295.274c18.763 12.507 39.345 22.501 61.271 29.486h52.27c-25.036-7.343-7.214-25.833-7.214-25.833z" fill="#ff7186"/><path d="m278.529 48.362h-130.541c-13.221 0-26.156 1.263-38.703 3.646-8.318 5.545-16.26 11.607-23.818 18.102.356 1.21.877 2.448 1.634 3.644 2.213 3.5 5.873 5.809 10.877 6.86 3.51.737 5.754 2.227 6.672 4.425 1.992 4.771-2.376 11.638-2.42 11.706l-.142.279c-.535 1.4-12.935 34.615 1.521 61.644 7.999 14.955 22.691 24.957 43.67 29.73 13.854 3.151 24.667 10.968 32.14 23.231 24.613 40.395 6.224 117.011 4.973 122.055-1.797 2.62-15.801 24.088-9.728 47.964 4.13 16.238 16.608 29.648 37.095 39.868v17.562c-1.57 1.566-6.164 6.731-5.725 13.165.286 4.206 2.657 8.029 7.024 11.396h65.472c114.335 0 207.638-93.297 207.638-207.639 0-114.335-93.298-207.638-207.639-207.638z" fill="#ff7186"/><path d="m213.258 439.719v-19.135c-65.854-32.231-27.479-86.269-27.479-86.269s33.833-131-38.167-147.38-44.124-89.375-44.124-89.375 9.873-15.244-5.203-18.414c-7.704-1.619-10.578-6.108-11.551-10.111-9.203 7.8-17.843 16.242-25.807 25.3l.094 323.439c14.154 16.081 30.377 30.297 48.262 42.22 12.547 2.383 25.482 3.646 38.703 3.646h67.625c-16.749-11.178-2.353-23.921-2.353-23.921z" fill="#ff4155"/><path d="m278.529 81.848h-130.541c-14.776 0-29.134 1.864-42.853 5.366.321 4.44-2.868 9.471-2.906 9.53l-.142.279c-.535 1.4-12.935 34.615 1.521 61.644 7.999 14.955 22.691 24.957 43.67 29.73 13.854 3.151 24.667 10.968 32.14 23.231 24.613 40.395 6.224 117.011 4.973 122.055-1.797 2.62-15.801 24.088-9.728 47.964 4.13 16.238 16.608 29.648 37.095 39.868v8.636h66.771c95.834 0 174.151-78.326 174.151-174.151.001-95.835-78.326-174.152-174.151-174.152z" fill="#ff4155"/><path d="m185.779 334.315s33.833-131-38.167-147.38-44.124-89.375-44.124-89.375 3.615-5.592 3.121-10.706c-23.342 5.74-44.871 16.209-63.497 30.332-27.183 39.459-43.112 87.273-43.112 138.814 0 51.54 15.928 99.353 43.111 138.813 29.219 22.156 65.572 35.338 104.876 35.338h65.271v-9.568c-65.853-32.23-27.479-86.268-27.479-86.268z" fill="#e80054"/><path d="m213.258 420.584h-65.271c-43.791 0-85.074-17.166-116.245-48.336-1.86-1.859-3.666-3.757-5.425-5.687 9.4 18.555 21.093 35.748 34.705 51.216 26.456 14.33 56.15 21.943 86.965 21.943h65.271c5.284 0 9.568-4.284 9.568-9.568s-4.283-9.568-9.568-9.568z" fill="#cc0053"/><path d="m103.489 97.559c5.085-1.436 8.043-6.723 6.606-11.808-1.436-5.086-6.722-8.043-11.808-6.606-13.165 3.719-25.663 8.85-37.358 15.185-13.594 15.465-25.27 32.652-34.656 51.2 20.296-22.393 46.777-39.371 77.216-47.971z" fill="#cc0053"/><g><g><path d="m84.146 345.728c-9.247 0-16.743-7.496-16.743-16.743v-113.035h-10.996c-9.247 0-16.743-7.496-16.743-16.743s7.496-16.743 16.743-16.743h27.739c9.247 0 16.743 7.496 16.743 16.743v129.778c0 9.247-7.496 16.743-16.743 16.743z" fill="#bec8f7"/></g></g><g><path d="m332.548 228.024c-.926 0-1.866-.18-2.774-.561-3.654-1.534-5.373-5.74-3.84-9.394l30.92-73.676c1.534-3.653 5.738-5.372 9.393-3.84 3.654 1.534 5.373 5.74 3.84 9.394l-30.92 73.676c-1.153 2.747-3.815 4.401-6.619 4.401z" fill="#deeeff"/></g><g><path d="m327.588 182.664c-11.49 0-20.838-10.341-20.838-23.052s9.348-23.052 20.838-23.052 20.838 10.341 20.838 23.052-9.348 23.052-20.838 23.052zm0-31.752c-3.516 0-6.486 3.984-6.486 8.701s2.97 8.701 6.486 8.701 6.487-3.984 6.487-8.701-2.971-8.701-6.487-8.701z" fill="#deeeff"/></g><g><path d="m367.434 233.037c-11.49 0-20.838-10.341-20.838-23.052s9.348-23.051 20.838-23.051 20.838 10.34 20.838 23.051-9.348 23.052-20.838 23.052zm0-31.751c-3.516 0-6.486 3.984-6.486 8.7 0 4.717 2.97 8.701 6.486 8.701s6.487-3.984 6.487-8.701c-.001-4.716-2.972-8.7-6.487-8.7z" fill="#deeeff"/></g><g><g><path d="m154.737 348.376c-29.925 0-54.272-24.346-54.272-54.272v-60.016c0-29.926 24.347-54.272 54.272-54.272 29.926 0 54.272 24.346 54.272 54.272v60.016c0 29.926-24.346 54.272-54.272 54.272zm0-135.074c-11.461 0-20.785 9.325-20.785 20.785v60.016c0 11.461 9.324 20.785 20.785 20.785s20.785-9.325 20.785-20.785v-60.016c0-11.46-9.324-20.785-20.785-20.785z" fill="#bec8f7"/></g></g><g><g><path d="m262.568 348.376c-29.925 0-54.272-24.346-54.272-54.272v-60.016c0-29.926 24.346-54.272 54.272-54.272s54.272 24.346 54.272 54.272v60.016c0 29.926-24.346 54.272-54.272 54.272zm0-135.074c-11.461 0-20.785 9.325-20.785 20.785v60.016c0 11.461 9.324 20.785 20.785 20.785s20.785-9.325 20.785-20.785v-60.016c.001-11.46-9.324-20.785-20.785-20.785z" fill="#deeeff"/></g></g><g><path d="m278.53 439.719h-65.271c-5.284 0-9.568-4.284-9.568-9.568s4.284-9.568 9.568-9.568h65.271c43.793 0 85.077-17.167 116.248-48.339 31.17-31.171 48.336-72.454 48.336-116.244 0-5.284 4.284-9.568 9.568-9.568s9.568 4.284 9.568 9.568c0 48.901-19.156 94.99-53.94 129.775-34.787 34.786-80.876 53.944-129.78 53.944z" fill="#e80054"/></g><g><path d="m100.882 97.923c-4.174 0-8.011-2.754-9.202-6.969-1.437-5.085 1.521-10.372 6.606-11.808 16.121-4.555 32.842-6.865 49.701-6.865h130.542c5.284 0 9.568 4.284 9.568 9.568s-4.284 9.568-9.568 9.568h-130.542c-15.099 0-30.071 2.067-44.498 6.143-.87.245-1.745.363-2.607.363z" fill="#e80054"/></g><g><path d="m452.681 265.568c-5.284 0-9.568-4.284-9.568-9.568 0-43.794-17.167-85.079-48.339-116.25-31.171-31.17-72.454-48.335-116.245-48.335-5.284 0-9.568-4.284-9.568-9.568s4.284-9.568 9.568-9.568c48.902 0 94.991 19.156 129.776 53.939 34.786 34.785 53.944 80.876 53.944 129.781-.001 5.285-4.284 9.569-9.568 9.569z" fill="#e80054"/></g></g></svg>