<svg id="Layer_1" enable-background="new 0 0 512 512" height="512" viewBox="0 0 512 512" width="512" xmlns="http://www.w3.org/2000/svg"><g><circle cx="252.558" cy="266.998" fill="#2a428c" r="245.002"/><g><path d="m438.983 284.496c-3.668 0-7.2-2.025-8.952-5.53l-56.864-113.727c-2.47-4.939-.468-10.946 4.472-13.416 4.941-2.471 10.946-.468 13.417 4.473l56.864 113.727c2.47 4.939.468 10.946-4.472 13.416-1.436.717-2.963 1.057-4.465 1.057z" fill="#73c3f9"/></g><g><path d="m312.637 284.831c-1.503 0-3.029-.34-4.464-1.058-4.94-2.47-6.942-8.477-4.472-13.416l57.033-114.067c2.47-4.941 8.477-6.942 13.417-4.473 4.94 2.47 6.942 8.477 4.472 13.416l-57.033 114.066c-1.753 3.507-5.285 5.532-8.953 5.532z" fill="#6bedc5"/></g><g><path d="m296.911 287.552c-2.56 0-5.118-.977-7.071-2.929l-51-51.001c-3.905-3.905-3.905-10.237.001-14.143 3.905-3.904 10.236-3.903 14.142 0l51.001 51.001c3.905 3.905 3.905 10.237 0 14.143-1.954 1.952-4.514 2.929-7.073 2.929z" fill="#ff7186"/></g><g><path d="m173.35 354.478c-1.51 0-3.043-.343-4.485-1.068-4.934-2.48-6.922-8.492-4.441-13.426l57.176-113.702c2.481-4.934 8.493-6.924 13.427-4.441 4.934 2.48 6.922 8.492 4.441 13.426l-57.176 113.701c-1.756 3.493-5.282 5.51-8.942 5.51z" fill="#ffdd40"/></g><path d="m375.894 119.913c-15.67 0-28.419 12.749-28.419 28.419s12.749 28.418 28.419 28.418 28.418-12.748 28.418-28.418-12.748-28.419-28.418-28.419z" fill="#3ece9a"/><path d="m381.07 127.08c-7.049 0-12.784 5.735-12.784 12.784s5.735 12.784 12.784 12.784 12.784-5.735 12.784-12.784-5.734-12.784-12.784-12.784z" fill="#6bedc5"/><path d="m107.287 464.285v-456.785c0-4.142-3.358-7.5-7.5-7.5s-7.5 3.358-7.5 7.5v444.798c4.837 4.188 9.843 8.183 15 11.987z" fill="#3c58a0"/><path d="m446.317 416.939h-387.518c4.004 5.166 8.201 10.175 12.597 15h362.325c4.396-4.826 8.593-9.835 12.596-15z" fill="#3c58a0"/><g><path d="m97.864 364.034h-12.126c-4.142 0-7.5-3.357-7.5-7.5s3.358-7.5 7.5-7.5h12.126c4.142 0 7.5 3.357 7.5 7.5s-3.358 7.5-7.5 7.5z" fill="#6389c6"/></g><g><path d="m97.864 294.634h-12.126c-4.142 0-7.5-3.357-7.5-7.5s3.358-7.5 7.5-7.5h12.126c4.142 0 7.5 3.357 7.5 7.5 0 4.142-3.358 7.5-7.5 7.5z" fill="#6389c6"/></g><g><path d="m97.864 225.232h-12.126c-4.142 0-7.5-3.357-7.5-7.5s3.358-7.5 7.5-7.5h12.126c4.142 0 7.5 3.357 7.5 7.5s-3.358 7.5-7.5 7.5z" fill="#6389c6"/></g><g><path d="m97.864 155.832h-12.126c-4.142 0-7.5-3.358-7.5-7.5 0-4.143 3.358-7.5 7.5-7.5h12.126c4.142 0 7.5 3.357 7.5 7.5s-3.358 7.5-7.5 7.5z" fill="#6389c6"/></g><g><path d="m97.864 86.431h-12.126c-4.142 0-7.5-3.357-7.5-7.5s3.358-7.5 7.5-7.5h12.126c4.142 0 7.5 3.357 7.5 7.5s-3.358 7.5-7.5 7.5z" fill="#6389c6"/></g><g><path d="m167.691 445.987c-4.142 0-7.5-3.357-7.5-7.5v-12.126c0-4.143 3.358-7.5 7.5-7.5s7.5 3.357 7.5 7.5v12.126c0 4.143-3.358 7.5-7.5 7.5z" fill="#6389c6"/></g><g><path d="m237.092 445.987c-4.142 0-7.5-3.357-7.5-7.5v-12.126c0-4.143 3.358-7.5 7.5-7.5s7.5 3.357 7.5 7.5v12.126c0 4.143-3.358 7.5-7.5 7.5z" fill="#6389c6"/></g><g><path d="m306.493 445.987c-4.142 0-7.5-3.357-7.5-7.5v-12.126c0-4.143 3.358-7.5 7.5-7.5s7.5 3.357 7.5 7.5v12.126c0 4.143-3.358 7.5-7.5 7.5z" fill="#6389c6"/></g><g><path d="m375.894 445.987c-4.142 0-7.5-3.357-7.5-7.5v-12.126c0-4.143 3.358-7.5 7.5-7.5s7.5 3.357 7.5 7.5v12.126c0 4.143-3.358 7.5-7.5 7.5z" fill="#6389c6"/></g><g><path d="m145.331 225.232h-7.124c-4.142 0-7.5-3.357-7.5-7.5s3.358-7.5 7.5-7.5h7.124c4.142 0 7.5 3.357 7.5 7.5s-3.358 7.5-7.5 7.5z" fill="#deeeff"/></g><g><path d="m184.399 225.232h-7.124c-4.142 0-7.5-3.357-7.5-7.5s3.358-7.5 7.5-7.5h7.124c4.142 0 7.5 3.357 7.5 7.5s-3.358 7.5-7.5 7.5z" fill="#deeeff"/></g><g><path d="m301.603 225.232h-7.124c-4.142 0-7.5-3.357-7.5-7.5s3.358-7.5 7.5-7.5h7.124c4.142 0 7.5 3.357 7.5 7.5s-3.358 7.5-7.5 7.5z" fill="#deeeff"/></g><g><path d="m379.74 225.232h-7.124c-4.142 0-7.5-3.357-7.5-7.5s3.358-7.5 7.5-7.5h7.124c4.142 0 7.5 3.357 7.5 7.5s-3.358 7.5-7.5 7.5z" fill="#deeeff"/></g><g><path d="m457.876 225.232h-7.124c-4.142 0-7.5-3.357-7.5-7.5s3.358-7.5 7.5-7.5h7.124c4.142 0 7.5 3.357 7.5 7.5s-3.358 7.5-7.5 7.5z" fill="#deeeff"/></g><g><path d="m496.944 225.232h-7.124c-4.142 0-7.5-3.357-7.5-7.5s3.358-7.5 7.5-7.5h7.124c4.142 0 7.5 3.357 7.5 7.5s-3.358 7.5-7.5 7.5z" fill="#deeeff"/></g><path d="m252.558 21.996c-40.313 0-78.349 9.74-111.891 26.99 8.521 36.669 34.153 115.876 96.591 115.876 69.602 0 65.318-101.928 163.279-93.126-41.115-31.208-92.379-49.74-147.979-49.74z" fill="#3c58a0"/><path d="m445.295 258.715c-15.67 0-28.419 12.749-28.419 28.419s12.749 28.418 28.419 28.418 28.418-12.748 28.418-28.418-12.748-28.419-28.418-28.419z" fill="#1e9ef4"/><path d="m450.471 265.882c-7.049 0-12.784 5.735-12.784 12.784s5.735 12.784 12.784 12.784 12.784-5.735 12.784-12.784-5.735-12.784-12.784-12.784z" fill="#73c3f9"/><path d="m306.493 258.715c-15.67 0-28.419 12.749-28.419 28.419s12.749 28.418 28.419 28.418 28.418-12.748 28.418-28.418-12.748-28.419-28.418-28.419z" fill="#e80054"/><path d="m311.669 265.882c-7.049 0-12.784 5.735-12.784 12.784s5.735 12.784 12.784 12.784 12.784-5.735 12.784-12.784-5.734-12.784-12.784-12.784z" fill="#ff4155"/><path d="m237.092 189.377c-15.67 0-28.419 12.749-28.419 28.419s12.749 28.418 28.419 28.418 28.418-12.748 28.418-28.418-12.748-28.419-28.418-28.419z" fill="#ffb332"/><path d="m242.268 196.544c-7.049 0-12.784 5.735-12.784 12.784s5.735 12.784 12.784 12.784 12.784-5.735 12.784-12.784-5.734-12.784-12.784-12.784z" fill="#ffdd40"/><path d="m167.691 327.327c-15.67 0-28.419 12.749-28.419 28.419s12.749 28.418 28.419 28.418 28.418-12.748 28.418-28.418-12.748-28.419-28.418-28.419z" fill="#9c8ff7"/><path d="m172.868 334.493c-7.049 0-12.784 5.735-12.784 12.784s5.735 12.784 12.784 12.784 12.784-5.735 12.784-12.784-5.735-12.784-12.784-12.784z" fill="#a69dfc"/></g></svg>