<svg id="Layer_1" enable-background="new 0 0 512 512" height="512" viewBox="0 0 512 512" width="512" xmlns="http://www.w3.org/2000/svg"><g><path d="m245.002 10.998c-135.311 0-245.002 109.691-245.002 245.002 0 24.118 3.502 47.415 9.995 69.429l32.741 68.843c44.138 64.442 118.259 106.73 202.266 106.73 135.311 0 245.002-109.691 245.002-245.002s-109.691-245.002-245.002-245.002z" fill="#47354f"/><g><path d="m272.437 182.775c-41.166 0-74.658-33.492-74.658-74.659s33.492-74.658 74.658-74.658c24.838 0 47.978 12.301 61.9 32.906 4.215 6.239 2.574 14.714-3.665 18.928s-14.713 2.574-18.928-3.664c-8.843-13.091-23.537-20.905-39.307-20.905-26.132 0-47.392 21.26-47.392 47.392s21.26 47.393 47.392 47.393c7.529 0 13.633 6.104 13.633 13.633 0 7.53-6.104 13.634-13.633 13.634z" fill="#ff7186"/></g><path d="m272.437 33.458c-5.159 0-10.194.532-15.058 1.538-7.626 1.578-13.233 8.256-13.248 16.044v.129.181c.02 7.827 7.649 13.407 15.168 11.231 4.173-1.208 8.581-1.856 13.139-1.856 15.769 0 30.464 7.814 39.307 20.905 4.413 6.532 13.497 8.021 19.794 3.03 5.686-4.508 6.579-12.795 2.471-18.776-13.957-20.316-36.929-32.426-61.573-32.426z" fill="#f9a0b1"/><g><path d="m340.404 109.397c-.554 0-1.114-.033-1.678-.102l-42.289-5.193c-7.473-.918-12.787-7.721-11.87-15.193.918-7.473 7.727-12.778 15.193-11.87l29.031 3.566 4.155-28.953c1.069-7.454 7.981-12.635 15.431-11.558 7.453 1.069 12.628 7.979 11.558 15.431l-6.052 42.175c-.974 6.783-6.793 11.697-13.479 11.697z" fill="#ff4155"/></g><path d="m442.876 352.769h-188.412v27.266h188.412c7.529 0 13.633-6.104 13.633-13.633s-6.104-13.633-13.633-13.633z" fill="#6bedc5"/><g><path d="m268.979 380.034c61.901 0 112.263-50.362 112.263-112.263 0-61.902-50.361-112.262-112.263-112.262s-112.263 50.361-112.263 112.262c0 7.529 6.104 13.633 13.633 13.633s13.633-6.104 13.633-13.633c0-46.867 38.129-84.996 84.997-84.996s84.997 38.129 84.997 84.996c0 46.868-38.129 84.997-84.997 84.997h-71.122v27.266z" fill="#ffdd40"/></g><g><path d="m143.78 380.034h-98.323c-7.529 0-13.633-6.104-13.633-13.633s6.104-13.633 13.633-13.633h98.323c7.529 0 13.633 6.104 13.633 13.633s-6.104 13.633-13.633 13.633z" fill="#ffdd40"/></g><g><path d="m167.309 290.476c-4.403 0-8.719-2.13-11.344-6.055l-23.685-35.416c-4.186-6.259-2.505-14.726 3.754-18.911 6.259-4.184 14.726-2.504 18.911 3.753l16.26 24.313 24.639-15.762c6.342-4.058 14.773-2.205 18.83 4.139 4.057 6.342 2.205 14.772-4.138 18.83l-35.892 22.96c-2.274 1.454-4.819 2.149-7.335 2.149z" fill="#ffb332"/></g><circle cx="170.349" cy="366.401" fill="#ffb332" r="41.063"/><circle cx="178.974" cy="357.495" fill="#ffdd40" r="20.531"/><circle cx="470.937" cy="366.401" fill="#3ece9a" r="41.063"/><path d="m12.59 325.338c-.872 0-1.736.037-2.595.09 7.32 24.815 18.457 47.989 32.741 68.843 6.772-7.322 10.917-17.111 10.917-27.871 0-22.677-18.385-41.062-41.063-41.062z" fill="#1e9ef4"/><g fill="#56415e"><path d="m0 256c0 6.028.219 12.005.648 17.923 36.688 7.849 77.611-9.717 93.091-49.623 6.51-16.783 17.498-35.022 35.547-53.07 43.24-43.24 26.052-104.279 11.772-137.135-83.338 39.106-141.058 123.758-141.058 221.905z"/><path d="m391.192 182.775c8.812 21.034 15.147 38.421 19.699 52.547 11.716 36.353 47.459 50.524 78.1 42.888.658-7.317 1.013-14.721 1.013-22.209 0-66.679-26.65-127.126-69.864-171.301-22.359 18.207-48.551 51.284-28.948 98.075z"/><path d="m181.839 492.774c20.151 5.363 41.322 8.228 63.163 8.228 50.902 0 98.176-15.527 137.352-42.098-13.29-17.778-34.493-29.34-58.266-29.34h-70.174c-36.773 0-67.377 27.667-72.075 63.21z"/></g><path d="m361.942 307.029c6.835 1.293 13.515-2.995 15.349-9.706 2.574-9.419 3.951-19.328 3.951-29.553 0-42.678-23.942-79.864-59.098-98.847-6.278-3.39-14.072-1.345-17.906 4.672-.05.078-.1.156-.149.235-4.145 6.55-1.918 15.332 4.914 18.993 26.741 14.332 44.973 42.543 44.973 74.947 0 7.754-1.052 15.265-3.013 22.404-2.065 7.52 2.794 15.256 10.447 16.752.177.036.354.07.532.103z" fill="#ffeb97"/><circle cx="477.04" cy="357.495" fill="#6bedc5" r="20.531"/></g></svg>