<svg id="Layer_1" enable-background="new 0 0 512 512" height="512" viewBox="0 0 512 512" width="512" xmlns="http://www.w3.org/2000/svg"><g><path d="m245.002 10.998c-118.027 0-216.551 83.462-239.798 194.583l58.357 215.056c44.821 49.366 109.51 80.365 181.441 80.365 135.311 0 245.002-109.691 245.002-245.002s-109.691-245.002-245.002-245.002z" fill="#2a428c"/><path d="m.575 272.655c3.374 1.346 7.052 2.094 10.907 2.094h.807v58.032c9.696 29.403 24.8 56.346 44.148 79.643 8.825-5.088 14.77-14.612 14.77-25.531v-141.602c0-16.27-13.189-29.459-29.459-29.459h-30.265c-2.915 0-5.729.43-8.388 1.219-2.027 12.685-3.095 25.692-3.095 38.949 0 5.599.206 11.15.575 16.655z" fill="#e80054"/><g><path d="m252.673 357.559c-.125 0-.253.001-.377.002-15.754.198-32.299.344-47.295.417 10.441-14.146 23.797-32.611 40.625-56.654 13.208-18.871 27.899-45.753 27.899-68.79 0-44.872-36.506-81.378-81.378-81.378-38.799 0-72.381 27.604-79.85 65.637-3.135 15.966 7.266 31.448 23.23 34.584 15.971 3.133 31.45-7.267 34.584-23.23 2.057-10.473 11.324-18.073 22.036-18.073 11.883 0 21.64 9.277 22.411 20.969-.035.113.508 11.195-17.201 36.496-45.665 65.245-64.143 87.109-71.122 97.266-15.171 22.098-4.356 43.816 13.718 49.842 10.376 3.459 67.462 2.401 113.082 1.828 16.269-.205 29.292-13.559 29.087-29.827-.203-16.143-13.35-29.089-29.449-29.089z" fill="#ffdd40"/></g><g fill="#ffb332"><path d="m135.527 251.377c15.971 3.133 31.449-7.267 34.584-23.23 1.555-7.918 7.235-14.188 14.542-16.779-4.615-1.683-9.569-2.87-14.697-3.537-31.265-4.065-18.459-33.022-18.459-33.022l-6.993-8.185c-16.251 11.752-28.129 29.398-32.208 50.168-3.134 15.966 7.266 31.449 23.231 34.585z"/><path d="m253.035 416.475c16.269-.205 29.292-13.559 29.087-29.827-.203-16.143-13.351-29.089-29.449-29.089-.125 0-.253.001-.377.002-15.754.198-32.299.344-47.295.417 8.771-11.883 19.608-26.829 32.823-45.554-4.032-1.44-7.853-2.338-11.361-2.537-35.424-2.011-20.305-36.187-20.305-36.187 6.726-12.999 8.346-24.259 6.347-33.633-2.11 5.95-6.4 14.973-15.149 27.472-45.665 65.245-64.143 87.109-71.122 97.266-15.171 22.098-4.356 43.816 13.718 49.842 10.377 3.458 67.463 2.401 113.083 1.828z"/></g><g><path d="m501.257 189.264c0-53.042-43.153-96.194-96.195-96.194-45.864 0-85.56 32.628-94.39 77.581-3.136 15.965 7.265 31.45 23.229 34.585 15.97 3.132 31.449-7.266 34.585-23.229 3.416-17.395 18.799-30.018 36.576-30.018 20.555 0 37.277 16.722 37.277 37.276 0 20.555-16.722 37.277-37.277 37.277-16.27 0-29.459 13.189-29.459 29.459s13.189 29.459 29.459 29.459c20.555 0 37.277 16.722 37.277 37.277 0 20.554-16.722 37.276-37.277 37.276-20.018 0-37.277-16.235-37.277-37.276 0-16.27-13.189-29.459-29.459-29.459s-29.459 13.189-29.459 29.459c0 53.238 43.204 96.194 96.195 96.194 53.042 0 96.195-43.152 96.195-96.194 0-25.893-10.287-49.426-26.984-66.736 16.697-17.311 26.984-40.844 26.984-66.737z" fill="#3ece9a"/></g><g fill="#2bbc85"><path d="m310.672 170.651c-3.136 15.965 7.265 31.45 23.229 34.585 15.97 3.132 31.45-7.266 34.585-23.229 3.013-15.34 15.334-26.964 30.395-29.497-4.688-3.704-9.94-5.928-15.809-5.928-35.816 0-23.254-29.764-23.254-29.764l-6.8-8.388c-21.396 13.792-37.173 35.884-42.346 62.221z"/><path d="m482.221 265.371c-4.996-2.232-10.152-2.95-15.408-1.638-41.074 10.253-34.907-34.667-34.907-34.667s-.736-4.657-2.335-11.751c-6.558 5.737-15.132 9.226-24.51 9.226-16.27 0-29.459 13.189-29.459 29.459s13.189 29.459 29.459 29.459c20.555 0 37.277 16.722 37.277 37.277 0 20.554-16.722 37.276-37.277 37.276-20.018 0-37.277-16.235-37.277-37.276 0-16.27-13.189-29.459-29.459-29.459s-29.459 13.189-29.459 29.459c0 53.239 43.204 96.194 96.195 96.194 53.042 0 96.195-43.152 96.195-96.194.001-21.483-7.086-41.338-19.035-57.365z"/></g><g fill="#ff4155"><path d="m71.208 285.781c-5.934 0-10.744 4.811-10.744 10.744v90.368c0 7.5-4.445 13.966-10.83 16.949 4.398 5.803 9.04 11.412 13.927 16.795 11.055-7.171 18.39-19.613 18.39-33.744v-90.368c0-5.933-4.81-10.744-10.743-10.744z"/><path d="m23.033 274.749c0-5.933-4.81-10.743-10.744-10.743h-.807c-4.306 0-8.265-1.477-11.431-3.93.582 35.608 8.757 69.365 22.982 99.729z"/><path d="m11.483 226.575h30.266c5.934 0 10.744-4.811 10.744-10.744s-4.81-10.744-10.744-10.744h-30.266c-2.136 0-4.232.171-6.278.493-1.643 7.852-2.906 15.842-3.777 23.951 2.907-1.862 6.352-2.956 10.055-2.956z"/></g><g><path d="m189.132 427.829c-27.866 0-45.718-.704-52.577-2.991-12.34-4.114-22.126-13.778-26.176-25.851-4.37-13.026-1.884-27.325 6.999-40.263 2.262-3.291 5.427-7.439 10.219-13.716 10.925-14.314 29.211-38.271 60.958-83.63 3.402-4.861 10.101-6.043 14.962-2.641s6.044 10.1 2.642 14.962c-32.002 45.722-50.456 69.9-61.482 84.346-4.43 5.804-7.631 9.998-9.586 12.844-5.041 7.342-6.543 14.697-4.339 21.264 1.916 5.711 6.626 10.309 12.6 12.302 8.316 2.605 64.811 1.863 98.567 1.42l10.983-.142c4.999-.063 9.674-2.069 13.164-5.648s5.378-8.303 5.315-13.302c-.129-10.19-8.521-18.48-18.707-18.48l-.287.002c-15.849.199-32.232.343-47.333.416-.017 0-.035 0-.052 0-4.044 0-7.747-2.27-9.579-5.879-1.84-3.624-1.478-7.975.935-11.245 9.426-12.771 19.555-26.806 30.107-41.712 3.428-4.843 10.133-5.991 14.976-2.562 4.843 3.428 5.99 10.133 2.562 14.976-6.067 8.572-11.998 16.86-17.74 24.792 8.589-.074 17.315-.165 25.898-.273l.513-.003c21.886 0 39.916 17.808 40.192 39.697.135 10.738-3.919 20.886-11.417 28.573-7.497 7.689-17.54 11.996-28.278 12.132l-10.972.143c-20.441.268-38.185.469-53.067.469z" fill="#ffdd40"/></g><g><path d="m141.213 262.675c-2.559.001-5.151-.246-7.755-.757-21.754-4.273-35.975-25.445-31.704-47.196 4.578-23.31 17.847-43.721 37.364-57.476 4.852-3.418 11.553-2.257 14.971 2.592 3.418 4.85 2.257 11.553-2.592 14.971-14.974 10.554-25.152 26.198-28.658 44.053-1.988 10.127 4.632 19.983 14.759 21.972 10.125 1.989 19.983-4.633 21.971-14.758 1.393-7.092 4.985-13.401 10.387-18.245 4.419-3.961 11.21-3.591 15.171.827s3.591 11.21-.827 15.171c-1.899 1.703-3.161 3.912-3.647 6.387-3.759 19.146-20.619 32.458-39.44 32.459z" fill="#ffdd40"/></g><g><path d="m405.062 429.674c-58.966 0-106.939-47.972-106.939-106.938 0-22.168 18.035-40.202 40.203-40.202s40.202 18.034 40.202 40.202c0 14.63 11.903 26.532 26.533 26.532s26.533-11.902 26.533-26.532-11.903-26.533-26.533-26.533c-22.168 0-40.203-18.034-40.203-40.202s18.035-40.204 40.203-40.204c5.305 0 10.426-1.566 14.809-4.531 4.915-3.322 11.594-2.033 14.918 2.882s2.034 11.594-2.882 14.918c-7.951 5.376-17.234 8.218-26.845 8.218-10.32 0-18.715 8.397-18.715 18.716 0 10.32 8.395 18.715 18.715 18.715 26.479 0 48.021 21.542 48.021 48.02s-21.542 48.019-48.021 48.019-48.021-21.541-48.021-48.019c0-10.32-8.396-18.715-18.715-18.715s-18.716 8.396-18.716 18.715c0 47.118 38.333 85.451 85.452 85.451 47.118 0 85.451-38.333 85.451-85.451 0-22.2-8.514-43.25-23.973-59.277-4.12-4.27-3.997-11.072.273-15.191s11.072-3.999 15.192.274c19.344 20.053 29.996 46.402 29.996 74.195 0 58.966-47.972 106.938-106.938 106.938z" fill="#3ece9a"/></g><g><path d="m339.586 216.534c-2.557 0-5.15-.246-7.752-.756-10.54-2.07-19.641-8.12-25.628-17.034-5.988-8.914-8.145-19.627-6.076-30.164 5.66-28.815 23.262-54.321 48.293-69.979 5.029-3.15 11.658-1.622 14.806 3.41 3.147 5.031 1.621 11.66-3.41 14.806-20.014 12.521-34.085 32.897-38.605 55.905-.963 4.905.041 9.893 2.828 14.042 2.787 4.15 7.024 6.967 11.929 7.93 10.131 1.988 19.985-4.634 21.973-14.758 2.832-14.424 11.992-26.582 25.129-33.356 5.275-2.715 11.754-.647 14.472 4.627 2.719 5.273.648 11.753-4.626 14.472-7.268 3.747-12.331 10.452-13.891 18.397-3.761 19.146-20.62 32.458-39.442 32.458z" fill="#3ece9a"/></g><g><path d="m235.223 326.837c-2.146 0-4.312-.641-6.197-1.975-4.843-3.428-5.991-10.133-2.563-14.976 3.296-4.658 6.748-9.562 10.361-14.724 16.496-23.569 25.957-46.396 25.957-62.629 0-38.948-31.686-70.634-70.634-70.634-14.608 0-28.665 4.464-40.65 12.91-4.849 3.421-11.553 2.258-14.971-2.592s-2.257-11.554 2.594-14.971c15.627-11.013 33.964-16.834 53.027-16.834 50.796 0 92.121 41.325 92.121 92.121 0 12.069-3.877 37.854-29.84 74.95-3.635 5.193-7.108 10.127-10.426 14.814-2.094 2.96-5.41 4.54-8.779 4.54z" fill="#ffeb97"/></g><g><path d="m197.347 278.283c-2.128 0-4.276-.631-6.151-1.943-4.861-3.402-6.043-10.102-2.641-14.962 13.285-18.98 15.021-28.529 15.232-30.197-.673-5.855-5.679-10.364-11.639-10.364-2.894 0-5.68 1.07-7.847 3.012-4.417 3.963-11.209 3.592-15.171-.827-3.961-4.418-3.591-11.211.827-15.171 6.114-5.482 13.995-8.502 22.191-8.502 17.433 0 31.986 13.619 33.131 31.006.024.368.029.737.016 1.105-.124 4.778-2.285 18.184-19.136 42.258-2.091 2.987-5.425 4.585-8.812 4.585z" fill="#ffeb97"/></g><g><path d="m474.271 266.744c-2.685 0-5.373-1-7.458-3.011-4.271-4.119-4.393-10.921-.274-15.191 15.459-16.027 23.973-37.079 23.973-59.278 0-47.118-38.333-85.451-85.451-85.451-15.998 0-31.643 4.497-45.244 13.004-5.031 3.149-11.66 1.62-14.806-3.411-3.146-5.03-1.619-11.659 3.411-14.806 17.021-10.646 36.607-16.274 56.639-16.274 58.967 0 106.939 47.972 106.939 106.938 0 27.793-10.652 54.142-29.995 74.195-2.108 2.186-4.919 3.285-7.734 3.285z" fill="#6bedc5"/></g><g><path d="m425.899 230.91c-3.448 0-6.834-1.656-8.91-4.727-3.323-4.917-2.033-11.594 2.883-14.918 7.341-4.964 11.724-13.188 11.724-22.001 0-14.63-11.903-26.532-26.533-26.532-4.206 0-8.404 1.019-12.141 2.946-5.275 2.717-11.753.648-14.473-4.624-2.719-5.274-.649-11.754 4.624-14.473 6.769-3.491 14.373-5.336 21.99-5.336 26.479 0 48.021 21.541 48.021 48.019 0 15.958-7.916 30.837-21.176 39.802-1.845 1.246-3.939 1.844-6.009 1.844z" fill="#6bedc5"/></g><g><path d="m71.208 307.269c-5.934 0-10.744-4.81-10.744-10.744v-51.235c0-10.32-8.396-18.715-18.716-18.715-5.934 0-10.744-4.811-10.744-10.744s4.81-10.744 10.744-10.744c22.168 0 40.203 18.034 40.203 40.202v51.235c0 5.934-4.81 10.745-10.743 10.745z" fill="#ff7186"/></g><path d="m245.002 10.998c-97.148 0-181.072 56.551-220.692 138.522 23.349 13.003 52.518 19.725 76.687-4.443 48.964-48.964 59.891-34.18 155.003-52.007 44.257-8.295 60.451-39.258 65.123-69.997-23.963-7.826-49.544-12.075-76.121-12.075z" fill="#3c58a0"/><path d="m354.474 473.262c-13.235-9.929-29.471-15.031-46.017-15.031h-88.902c-33.74 0-55.381 11.911-68.673 24.028 28.98 12.07 60.769 18.744 94.121 18.744 39.965 0 77.693-9.575 111.022-26.547-.518-.409-1.034-.806-1.551-1.194z" fill="#3c58a0"/></g></svg>