<svg id="Layer_1" enable-background="new 0 0 512 512" height="512" viewBox="0 0 512 512" width="512" xmlns="http://www.w3.org/2000/svg"><g><path d="m245.002 21.996c-135.311 0-245.002 109.691-245.002 245.002 0 58.956 20.829 113.043 55.522 155.317l34.162 34.162c42.275 34.694 96.362 55.523 155.318 55.523 135.311 0 245.002-109.691 245.002-245.002s-109.691-245.002-245.002-245.002z" fill="#47354f"/><path d="m76.938 400.9c.289 11.647 5.154 33.133 37.45 30.875l27.243-27.243c-9.348.984-18.526-2.184-25.252-8.91-6.896-6.896-9.855-16.256-8.89-25.272z" fill="#ff4155"/><g><g><path d="m141.21 324.673-25.947 25.948c-12.735 12.735-12.735 33.382 0 46.117 12.734 12.734 33.381 12.736 46.117 0l25.947-25.947c-17.72-12.813-33.305-28.398-46.117-46.118z" fill="#ff7186"/></g></g><path d="m306.526 0c-54.087 0-103.284 20.909-139.975 55.071.72 3.275 2.223 6.943 5.309 9.684 4.475 3.976 11.12 5.005 19.749 3.053 7.26-1.64 12.072-1.338 13.551.854 1.972 2.922-1.606 9.38-3.014 11.411l-.171.246-.063.292c-.22 1.015-5.233 25.058 7.249 43.15 6.662 9.655 17.052 15.712 30.896 18.012l3.418 15.646c-.555 3.491-4.641 33.16 12.898 54.012 10.822 12.865 27.574 19.515 49.81 19.774l2.021 20.954c-3.069 4.137-22.744 32.233-14.773 62.237 5.47 20.591 22.746 37.099 51.353 49.072l4.287 17.014c-1.476 2.372-6.49 11.388-3.186 19.672.924 2.317 2.412 4.35 4.444 6.096 92.432-20.07 161.671-102.331 161.671-200.776 0-113.48-91.994-205.474-205.474-205.474z" fill="#deeeff"/><path d="m346.053 362.375c-91.947-38.007-36.301-109.776-36.301-109.776l-2.206-22.883c-75.121 0-62.544-72.333-62.544-72.333l-3.699-16.929c-49.197-7.429-37.925-59.523-37.925-59.523s14.288-20.548-12.1-14.585c-17.388 3.93-22.184-5.552-23.434-12.478-41.046 37.568-66.792 91.578-66.792 151.606 0 113.48 91.994 205.474 205.474 205.474 15.702 0 30.991-1.769 45.684-5.105-12.373-9.325-1.526-25.091-1.526-25.091z" fill="#bec8f7"/><path d="m306.526 34.214c-38.187 0-73.492 12.567-102.004 33.777.253.201.47.422.639.672 1.972 2.922-1.606 9.38-3.014 11.411l-.171.246-.063.292c-.22 1.015-5.233 25.058 7.249 43.15 6.662 9.655 17.052 15.712 30.896 18.012l3.418 15.646c-.555 3.491-4.641 33.16 12.898 54.012 10.822 12.865 27.574 19.515 49.81 19.774l2.021 20.954c-3.069 4.137-22.744 32.233-14.773 62.237 5.47 20.591 22.746 37.099 51.353 49.072l2.127 8.439c75.008-18.201 130.876-85.911 130.876-166.437-.003-94.431-76.829-171.257-171.262-171.257z" fill="#1e9ef4"/><path d="m309.752 252.599-2.206-22.883c-75.121 0-62.544-72.333-62.544-72.333l-3.699-16.929c-49.197-7.429-37.925-59.523-37.925-59.523s6.76-9.721 2.393-13.85c-42.702 31.174-70.504 81.594-70.504 138.393 0 94.433 76.826 171.259 171.259 171.259 14.429 0 28.444-1.802 41.84-5.178l-2.313-9.179c-91.948-38.008-36.301-109.777-36.301-109.777z" fill="#0781dd"/><g><g><g><path d="m241.303 274.705c-7.85 0-14.212-6.363-14.212-14.212v-91.615h-8.408c-7.85 0-14.212-6.363-14.212-14.212s6.363-14.212 14.212-14.212h22.62c7.849 0 14.212 6.363 14.212 14.212v105.827c.001 7.849-6.362 14.212-14.212 14.212z" fill="#deeeff"/></g></g></g><g><g><g><path d="m384.894 274.705c-7.849 0-14.212-6.363-14.212-14.212v-91.615h-8.408c-7.85 0-14.212-6.363-14.212-14.212s6.363-14.212 14.212-14.212h22.62c7.85 0 14.212 6.363 14.212 14.212v105.827c.001 7.849-6.362 14.212-14.212 14.212z" fill="#deeeff"/></g></g></g><g><g><path d="m297.002 191.525c-5.51-5.531-6.114-14.788 0-21.095 6.12-6.12 16.373-5.814 22.068 1.093 4.877 5.93 4.414 14.585-.983 20.003-5.925 5.906-15.365 5.717-21.085-.001z" fill="#deeeff"/></g></g><g><g><path d="m297.002 248.406c-5.698-5.896-5.978-14.928 0-21.096 6.093-6.093 16.351-5.84 22.068 1.093 5.294 6.437 4.174 15.992-2.076 20.985-5.867 4.84-14.567 4.441-19.992-.982z" fill="#deeeff"/></g></g><g><path d="m306.527 386.207c-99.657 0-180.734-81.077-180.734-180.734 0-53.886 23.869-104.597 65.486-139.127 4.028-3.342 10.001-2.785 13.342 1.241 3.341 4.027 2.786 10-1.241 13.341-37.265 30.92-58.637 76.315-58.637 124.545 0 89.208 72.576 161.784 161.784 161.784 13.371 0 26.67-1.643 39.527-4.882 5.076-1.275 10.224 1.798 11.503 6.873s-1.798 10.224-6.873 11.503c-14.37 3.62-29.226 5.456-44.157 5.456z" fill="#49b1f7"/></g><g><path d="m339.181 373.878c-1.279-5.074 1.798-10.224 6.872-11.503 68.573-17.28 122.258-79.722 122.258-156.902 0-26.262-6.465-52.351-18.696-75.448-2.449-4.624-.685-10.359 3.939-12.808 4.626-2.444 10.359-.683 12.807 3.94 13.672 25.819 20.899 54.976 20.899 84.317 0 85.993-59.729 155.909-136.576 175.278-5.105 1.282-10.231-1.827-11.503-6.874z" fill="#73c3f9"/></g><g><path d="m190.037 79.688c-3.341-4.028-2.786-10.001 1.242-13.342 32.337-26.83 73.267-41.606 115.247-41.606 5.233 0 9.475 4.242 9.475 9.475s-4.242 9.475-9.475 9.475c-37.571 0-74.204 13.225-103.148 37.241-4.009 3.325-9.985 2.801-13.341-1.243z" fill="#73c3f9"/></g><g><path d="m449.615 130.025c-28.2-53.254-83.028-86.336-143.088-86.336-5.233 0-9.475-4.242-9.475-9.475s4.242-9.475 9.475-9.475c67.097 0 128.342 36.945 159.835 96.417 2.449 4.624.685 10.359-3.939 12.808-4.655 2.462-10.373.66-12.808-3.939z" fill="#9bd8f9"/></g><path d="m65 222.96c-7.181-34.748-25.641-49.756-43.811-55.753-13.611 30.482-21.189 64.25-21.189 99.791 0 35.687 7.643 69.583 21.362 100.162 9.809-1.162 18.687-3.614 26.628-6.828 29.72-12.026 44.356-45.636 33.578-75.831-5.167-14.477-10.964-34.426-16.568-61.541z" fill="#56415e"/><path d="m245.002 512c36.402 0 70.945-7.95 102.002-22.191-6.141-17.973-21.214-36.1-55.592-43.173-27.12-5.58-47.075-11.359-61.556-16.513-30.204-10.751-63.801 3.916-75.801 33.646-3.342 8.279-5.851 17.578-6.938 27.884 29.98 13.084 63.083 20.347 97.885 20.347z" fill="#56415e"/><circle cx="133.847" cy="370.349" fill="#f9a0b1" r="17.612"/><path d="m77.938 399.9-22.415 22.415c10.239 12.477 21.685 23.923 34.162 34.162l25.703-25.703c-32.296 2.259-37.161-19.227-37.45-30.874z" fill="#e80054"/></g></svg>