<svg id="Layer_1" enable-background="new 0 0 512 512" height="512" viewBox="0 0 512 512" width="512" xmlns="http://www.w3.org/2000/svg"><g><path d="m245.002 10.998c-135.311 0-245.002 109.691-245.002 245.002 0 53.178 16.949 102.392 45.73 142.553l14.207 18c44.92 51.734 111.171 84.449 185.064 84.449 135.311 0 245.002-109.691 245.002-245.002s-109.69-245.002-245.001-245.002z" fill="#49b1f7"/><path d="m199.592 257.15h-32.192c-5.204 0-10.009-1.733-13.915-4.622v53.997c0 12.168 9.955 22.123 22.123 22.123h23.984z" fill="#47354f"/><path d="m307.794 257.15h-32.191v71.497h23.983c12.168 0 22.124-9.956 22.124-22.123v-53.997c-3.907 2.89-8.713 4.623-13.916 4.623z" fill="#6c5475"/><path d="m197.603 257.15h79.988v71.497h-79.988z" fill="#56415e"/><g><path d="m237.597 416.553c-4.971 0-9-4.029-9-9s4.029-9 9-9c88.609 0 160.698-72.089 160.698-160.698 0-88.61-72.089-160.699-160.698-160.699s-160.698 72.089-160.698 160.699c0 4.971-4.029 9-9 9s-9-4.029-9-9c0-98.535 80.163-178.699 178.698-178.699s178.698 80.164 178.698 178.699c0 98.534-80.163 178.698-178.698 178.698z" fill="#ffdd40"/></g><g><path d="m143.874 388.352c-1.71 0-3.437-.486-4.968-1.502-34.255-22.732-59.815-56.776-71.971-95.859-1.477-4.746 1.174-9.79 5.921-11.267 4.743-1.479 9.791 1.175 11.267 5.921 10.931 35.142 33.921 65.757 64.737 86.207 4.142 2.749 5.271 8.334 2.522 12.476-1.734 2.61-4.594 4.024-7.508 4.024z" fill="#ffdd40"/></g><path d="m500.506 398.553h-454.776c4.459 6.223 9.198 12.231 14.207 18h440.568c4.971 0 9-4.029 9-9s-4.028-9-8.999-9z" fill="#93f9d7"/><g><path d="m64.728 266.598c-2.639 0-5.251-1.155-7.027-3.369l-34.24-42.69c-3.11-3.877-2.487-9.542 1.39-12.651 3.877-3.111 9.542-2.488 12.652 1.39l28.722 35.811 36.388-27.987c3.939-3.029 9.59-2.293 12.621 1.646 3.03 3.94 2.293 9.591-1.647 12.621l-43.378 33.364c-1.634 1.256-3.565 1.865-5.481 1.865z" fill="#ffb332"/></g><g><path d="m466.709 452.844c-2.303 0-4.606-.879-6.364-2.636-3.515-3.515-3.515-9.214 0-12.728l29.927-29.927-29.927-29.927c-3.515-3.515-3.515-9.214 0-12.728s9.213-3.514 12.728 0l36.291 36.291c3.515 3.515 3.515 9.214 0 12.729l-36.291 36.291c-1.758 1.756-4.061 2.635-6.364 2.635z" fill="#3ece9a"/></g><path d="m289.77 209.43c-9.111-10.64-9.263-25.191-8.473-33.235h-85.897c-1.329 2.824-2.913 6.569-4.309 10.924-2.852 8.89-5.373 22.012-1.198 34.039 3.922 11.301 12.949 19.69 26.827 24.936 3.112-8.518 11.296-14.615 20.878-14.615 12.252 0 22.219 9.967 22.219 22.218 0 2.12-.317 4.164-.873 6.106h48.85c12.935 0 23.518-10.583 23.518-23.518v-13.415c-19.25.776-33.224-3.726-41.542-13.44z" fill="#876d93"/><path d="m307.793 176.195h-28.022c-1.447 14.775.374 50.209 51.54 48.181v-24.663c0-12.935-10.582-23.518-23.518-23.518z" fill="#9983a5"/><path d="m167.401 176.195c-12.935 0-23.518 10.583-23.518 23.518v36.572c0 12.935 10.583 23.518 23.518 23.518h48.851c-.556-1.943-.873-3.987-.873-6.106 0-3.199.685-6.24 1.908-8.991-41.262-15.57-26.807-54.813-20.222-68.51h-29.664z" fill="#6c5475"/><path d="m237.597 229.607c-13.304 0-24.089 10.785-24.089 24.089 0 2.114.3 4.153.811 6.106h46.555c.511-1.953.811-3.992.811-6.106.001-13.304-10.784-24.089-24.088-24.089z" fill="#47354f"/><g><path d="m280.498 177.151c-11.167 0-21.4-6.176-26.706-16.117-3.2-5.996-9.405-9.721-16.193-9.721s-12.993 3.725-16.193 9.721c-5.305 9.939-15.536 16.114-26.703 16.117-.001 0-.003 0-.004 0s-.003 0-.004 0c-4.142 0-7.523-3.357-7.523-7.5s3.335-7.5 7.477-7.5c5.667 0 10.831-3.135 13.524-8.18 5.813-10.892 17.089-17.658 29.426-17.658s23.613 6.767 29.427 17.658c2.692 5.046 7.855 8.18 13.472 8.18 4.142 0 7.5 3.357 7.5 7.5s-3.358 7.5-7.5 7.5z" fill="#deeeff"/></g><path d="m245.002 501.002c35.725 0 69.661-7.652 100.266-21.397-11.67-22.208-34.947-37.362-61.776-37.362h-76.982c-26.823 0-50.095 15.148-61.768 37.347 30.607 13.746 64.535 21.412 100.26 21.412z" fill="#73c3f9"/></g></svg>