<svg id="Layer_1" enable-background="new 0 0 512 512" height="512" viewBox="0 0 512 512" width="512" xmlns="http://www.w3.org/2000/svg"><g><path d="m453.534 411.934c29.832-40.59 47.468-90.7 47.468-144.936 0-135.311-109.691-245.002-245.002-245.002s-245.002 109.691-245.002 245.002 109.691 245.002 245.002 245.002c46.957 0 90.822-13.22 128.095-36.126z" fill="#e80054"/><path d="m313.381 385.678c-.956-1.113-2.344-1.763-3.811-1.785-1.447-.062-2.874.585-3.864 1.668-23.496 25.729-60.542 47.544-94.447 47.544-19.22 0-36.249-7.007-50.614-20.824-28.826-27.733-31.833-57.988-29.279-78.486 7.106-57.023 58.23-81.157 59.058-81.9 2.798-1.595 3.449-5.35 1.35-7.795l-25.831-30.073c-1.624-1.89-4.373-2.339-6.515-1.063-42.347 25.247-71.096 68.143-76.902 114.745-5.577 44.753 10.048 87.384 43.996 120.041 62.073 59.719 152.998 36 212.194-25.449 1.835-1.905 1.92-4.892.197-6.897z" fill="#ff8f33"/><path d="m394.718 348.587c1.64 0 3.193-.786 4.162-2.132 23.287-32.355 38.84-57.187 39.49-58.228 0 0 .001-.001.001-.001 7.181-11.506 3.661-26.712-7.845-33.897-5.567-3.48-12.164-4.581-18.574-3.096-6.41 1.482-11.855 5.364-15.333 10.93-.126.201-12.809 20.434-32.245 47.877-1.36 1.919-1.239 4.519.294 6.303 27.003 30.487 25.864 32.244 30.05 32.244z" fill="#ffb332"/><path d="m439.107 429.758-248.836-289.699c-.009-.011-.02-.022-.029-.034-.013-.015-.026-.03-.038-.044l-.397-.508c-13.844-17.26-8.669-46.775 9.897-59.153 23.098-15.417 63.019-10.326 77.984 15.487 6.946 11.978 9.46 31.117-18.013 54.27-5.181 4.367-11.21 8.9-18.43 13.861-2.506 1.722-2.977 5.247-.986 7.566l25.538 29.731c1.723 2.006 4.686 2.372 6.844.849 6.999-4.936 13.132-9.636 18.75-14.371 36.95-31.138 52.554-75.762 28.876-116.599-29.64-51.115-101.893-62.395-147.873-31.741-43.301 28.877-52.977 92.767-19.886 132.256.016.021.032.041.045.058.071.09.145.178.222.263.027.029.053.058.08.086l250.014 291.074c13.174-9.881 25.31-21.067 36.238-33.352z" fill="#ffb332"/><path d="m344.357 408.319c-.503.595-.997 1.193-1.503 1.787-26.061 30.633-72.647 64.302-125.244 66.929-33.049 1.673-63.456-9.817-87.533-32.981-32.755-31.508-47.835-72.602-42.463-115.712 5.761-46.234 34.603-88.317 77.151-112.572 3.245-1.85 6.399-3.649 9.512-5.425l-18.376-21.391c-1.606.916-3.207 1.829-4.847 2.763-50.093 28.556-84.079 78.351-90.914 133.203-6.477 51.983 11.544 101.379 50.743 139.087 27.796 26.74 62.512 40.875 100.394 40.875 2.549 0 5.146-.065 7.717-.194 60.519-3.024 113.566-40.494 143.621-75.116z" fill="#ffc839"/><path d="m300.327 357.067c-2.774 3.372-5.535 6.673-8.238 9.85-21.078 24.778-52.344 42.279-77.81 43.551-14.897.748-26.965-3.837-37.994-14.446-22.096-21.258-24.449-44.056-22.532-59.439 3.176-25.49 19.632-49.008 44.02-62.911l.307-.175c7.162-4.082 13.95-7.953 20.429-11.668l-18.371-21.384c-5.064 2.896-10.3 5.882-15.768 8.999l-.308.175c-31.932 18.204-53.533 49.434-57.782 83.54-2.699 21.661.455 53.61 30.812 82.815 15.367 14.782 33.574 22.256 54.168 22.256 1.458 0 2.928-.037 4.41-.112 33.115-1.654 71.389-22.561 97.506-53.262 1.799-2.114 3.622-4.282 5.455-6.485z" fill="#ffc839"/><g fill="#ffdd40"><path d="m442.476 235.193c-22.056-13.779-51.21-7.04-64.989 15.017-.155.248-14.494 23.116-36.172 53.31l18.506 21.664c24.526-33.767 40.977-60.035 41.145-60.303 5.693-9.111 17.735-11.896 26.844-6.204 9.11 5.689 11.896 17.728 6.212 26.834-.866 1.387-20.159 32.181-48.182 70.134l18.449 21.598c30.722-41.155 52.284-75.575 53.217-77.067 13.767-22.06 7.024-51.21-15.03-64.983z"/><path d="m315.833 73.688c9.855 16.998 12.823 35.984 8.58 54.902-4.514 20.123-16.735 38.697-36.324 55.205-8.443 7.115-18.149 14.224-30.175 22.089l18.121 21.214c11.64-7.734 21.304-14.892 29.895-22.132 24.322-20.497 39.63-44.154 45.498-70.317 5.793-25.835 1.767-51.717-11.645-74.849-29.534-50.931-96.113-73.125-154.869-51.631-9.521 3.485-17.709 7.551-25.035 12.435-26.214 17.482-43.902 46.111-48.53 78.546-4.541 31.829 4.199 63.578 23.981 87.104 4.92 5.851 13.652 6.606 19.504 1.686 5.851-4.921 6.606-13.653 1.686-19.505-14.718-17.505-21.193-41.332-17.763-65.375 3.516-24.646 16.813-46.306 36.48-59.421 5.477-3.651 11.754-6.749 19.189-9.471 46.323-16.94 98.514.044 121.407 39.52z"/><path d="m205.848 145.041c5.851-4.921 6.605-13.654 1.684-19.505-2.492-2.963-3.536-7.846-2.791-13.063.816-5.724 3.68-10.852 7.483-13.386.356-.238 1.776-1.108 5.105-2.326 19.609-7.171 35.963 1.943 40.845 10.362 1.434 2.473 2.404 5.489-.185 10.769-2.247 4.579-6.69 9.744-12.85 14.935-7.6 6.404-17.555 13.447-30.944 21.879l18.162 21.262c12.831-8.212 22.73-15.319 30.622-21.97 31.784-26.785 25.637-49.567 19.144-60.763-6.162-10.628-17.262-19.202-30.453-23.524-13.942-4.568-29.516-4.197-43.854 1.049-4.507 1.649-8.094 3.384-10.958 5.296-10.304 6.868-17.603 19.022-19.526 32.507-1.867 13.083 1.418 25.764 9.011 34.792 4.921 5.852 13.653 6.606 19.505 1.686z"/></g><path d="m406.945 459.987-250.293-291.398c-4.981-5.801-13.721-6.463-19.521-1.482-5.799 4.982-6.463 13.722-1.481 19.52l248.444 289.246c7.925-4.87 15.556-10.173 22.851-15.886z" fill="#ffeb97"/><path d="m207.212 125.162c-4.981-5.801-13.721-6.462-19.521-1.482-5.799 4.982-6.463 13.722-1.481 19.521l249.422 290.381c6.367-6.863 12.346-14.089 17.901-21.648z" fill="#ffeb97"/><path d="m11.118 259.614c112.054-34.576 84.387-103.766 53.72-145.845-32.243 40.174-52.087 90.72-53.72 145.845z" fill="#ff4155"/><path d="m500.208 247.258c-5.673-71.145-41.74-133.714-95.209-174.741-18.926 41.494-42.041 117.067 34.107 127.865 32.692 4.635 51.17 23.3 61.102 46.876z" fill="#ff4155"/></g></svg>