<svg id="Layer_1" enable-background="new 0 0 512 512" height="512" viewBox="0 0 512 512" width="512" xmlns="http://www.w3.org/2000/svg"><g><path d="m245.002 10.998c-135.311 0-245.002 109.691-245.002 245.002 0 50.317 15.178 97.085 41.191 135.994l90.099 81.058c33.985 17.841 72.665 27.95 113.712 27.95 135.311 0 245.002-109.691 245.002-245.002s-109.691-245.002-245.002-245.002z" fill="#47354f"/><g fill="#ff7186"><path d="m398.463 113.794h38.912c10.882 0 20.894 3.769 28.823 10.057-1.596-4.895-1.397-9.135.613-12.637 3.252-5.664 10.589-8.535 16.171-9.948-12.622-9.778-28.44-15.619-45.606-15.619h-38.912c-7.773 0-14.074 6.301-14.074 14.074 0 7.772 6.3 14.073 14.073 14.073z"/><path d="m498.799 187.167c-.015 0-.029 0-.044-.001-6.859-.025-12.538-5.951-14.902-8.841v16.612c0 25.628-20.85 46.478-46.478 46.478h-69.577c-7.773 0-14.074 6.301-14.074 14.074s6.301 14.074 14.074 14.074h69.577c41.148 0 74.625-33.477 74.625-74.626v-15.676c-4.184 5.248-8.615 7.906-13.201 7.906z"/></g><g><path d="m418.789 144.172c-3.65 0-7.297-1.411-10.054-4.224l-29.765-30.378c-5.362-5.472-5.362-14.228 0-19.7l29.766-30.378c5.439-5.552 14.35-5.642 19.902-.203s5.643 14.351.203 19.902l-20.115 20.529 20.114 20.528c5.44 5.552 5.349 14.463-.203 19.902-2.738 2.685-6.294 4.022-9.848 4.022z" fill="#ff4155"/></g><path d="m296.741 37.426h-170.25v1.473h3.045c17.814 0 32.307 14.492 32.307 32.307v54.566c0 17.814-14.493 32.306-32.307 32.306h-3.045v1.473h170.25c18.627 0 33.781-15.154 33.781-33.78v-54.565c-.001-18.627-15.154-33.78-33.781-33.78z" fill="#deeeff"/><path d="m195.824 125.771v-54.565c0-18.626 15.154-33.78 33.781-33.78h-103.114v1.473h3.045c17.814 0 32.307 14.492 32.307 32.306v54.566c0 17.814-14.493 32.306-32.307 32.306h-3.045v1.473h103.114c-18.627.001-33.781-15.153-33.781-33.779z" fill="#d3dcfb"/><path d="m129.536 37.426h-46.103l.354.223c-2.811 2.756-8.48 9.273-7.882 16.515.409 4.955 3.637 9.219 9.593 12.672 17.803 10.321 38.781 56.424 42.186 64.111-2.771 2.161-10.209 8.759-10.186 17.268.011 3.988 1.662 7.78 4.901 11.336h7.138c18.627 0 33.781-15.154 33.781-33.78v-54.565c-.001-18.627-15.154-33.78-33.782-33.78z" fill="#ffdd40"/><path d="m86.25 37.426h-11.278c-18.627 0-33.78 15.154-33.78 33.78v54.565c0 18.626 15.153 33.78 33.78 33.78h49.503c-14.777-14.559 5.062-28.112 5.062-28.112s-23.287-54.307-43.287-65.902 0-28.111 0-28.111z" fill="#ffb332"/><path d="m347.68 194.938h-170.25v1.473h3.045c17.814 0 32.307 14.492 32.307 32.306v54.566c0 17.814-14.493 32.306-32.307 32.306h-3.045v1.473h170.25c18.627 0 33.781-15.154 33.781-33.78v-54.565c0-18.626-15.154-33.779-33.781-33.779z" fill="#deeeff"/><path d="m246.764 283.283v-54.565c0-18.626 15.153-33.78 33.781-33.78h-103.115v1.473h3.045c17.814 0 32.307 14.492 32.307 32.306v54.566c0 17.814-14.493 32.307-32.307 32.307h-3.045v1.473h103.114c-18.627 0-33.78-15.154-33.78-33.78z" fill="#d3dcfb"/><path d="m180.476 194.938h-47.972l.288.206c-2.475 2.719-7.619 9.316-7.011 16.629.404 4.866 3.256 9.081 8.476 12.528 15.794 10.43 40.369 56.676 44.337 64.277-2.662 2.361-9.849 9.564-9.505 18.255.145 3.658 1.598 7.079 4.333 10.23h7.054c18.627 0 33.781-15.154 33.781-33.78v-54.565c-.001-18.627-15.154-33.78-33.781-33.78z" fill="#f9a0b1"/><path d="m135.083 194.938h-9.172c-18.627 0-33.781 15.154-33.781 33.78v54.565c0 18.626 15.153 33.78 33.781 33.78h49.554c-13.397-13.703 5.011-28.112 5.011-28.112s-27.726-54.236-45.393-65.902c-17.666-11.666 0-28.111 0-28.111z" fill="#ff4155"/><path d="m296.741 352.449h-170.25v1.473h3.045c17.814 0 32.307 14.492 32.307 32.306v54.566c0 17.225-13.552 31.342-30.553 32.257.974.512 1.947 1.024 2.929 1.522h162.521c18.627 0 33.781-15.154 33.781-33.78v-54.565c.001-18.625-15.153-33.779-33.78-33.779z" fill="#deeeff"/><path d="m195.824 440.794v-54.565c0-18.626 15.154-33.78 33.781-33.78h-103.114v1.473h3.045c17.814 0 32.307 14.492 32.307 32.306v54.566c0 17.225-13.552 31.342-30.553 32.257.974.512 1.947 1.024 2.929 1.522h95.385c-18.626.001-33.78-15.152-33.78-33.779z" fill="#d3dcfb"/><path d="m129.536 352.449h-49.976c-2.85 2.393-8.502 8.024-8.392 14.992.085 5.3 3.455 10.138 10.018 14.379 18.848 12.18 42.732 57.086 46.505 64.334-2.37 2.382-8.771 9.657-8.519 18.571.015.53.062 1.054.123 1.575 4.7 2.821 9.492 5.505 14.393 8.009 16.674-2.054 29.629-16.296 29.629-33.516v-54.565c0-18.625-15.153-33.779-33.781-33.779z" fill="#9bd8f9"/><path d="m82 352.449h-7.028c-18.627 0-33.78 15.154-33.78 33.78v5.765c8.356 12.497 17.845 24.168 28.294 34.9l21.171 19.342c9.535 7.747 19.663 14.791 30.302 21.061-2.19-11.302 8.578-20.834 8.578-20.834s-26.537-52.331-47.537-65.902 0-28.112 0-28.112z" fill="#49b1f7"/><path d="m74.971 65.537c-3.125 0-5.669 2.543-5.669 5.669v54.566c0 3.125 2.543 5.668 5.669 5.668h54.565c3.126 0 5.668-2.542 5.668-5.668v-54.566c0-3.125-2.542-5.669-5.668-5.669z" fill="#ff8f33"/><path d="m125.91 223.049c-3.125 0-5.668 2.543-5.668 5.669v54.566c0 3.125 2.542 5.668 5.668 5.668h54.566c3.125 0 5.669-2.542 5.669-5.668v-54.566c0-3.125-2.543-5.669-5.669-5.669z" fill="#e80054"/><g><path d="m291.059 78.699h-98.583c-4.318 0-7.819-3.5-7.819-7.819s3.501-7.819 7.819-7.819h98.583c4.318 0 7.819 3.5 7.819 7.819s-3.501 7.819-7.819 7.819z" fill="#bec8f7"/></g><g><path d="m291.059 106.307h-98.583c-4.318 0-7.819-3.5-7.819-7.819s3.501-7.819 7.819-7.819h98.583c4.318 0 7.819 3.5 7.819 7.819s-3.501 7.819-7.819 7.819z" fill="#bec8f7"/></g><g><path d="m244.374 133.914h-51.898c-4.318 0-7.819-3.5-7.819-7.819s3.501-7.819 7.819-7.819h51.898c4.318 0 7.819 3.5 7.819 7.819s-3.501 7.819-7.819 7.819z" fill="#bec8f7"/></g><g><path d="m341.998 236.211h-98.583c-4.318 0-7.819-3.5-7.819-7.819 0-4.318 3.501-7.819 7.819-7.819h98.583c4.318 0 7.819 3.5 7.819 7.819s-3.501 7.819-7.819 7.819z" fill="#bec8f7"/></g><g><path d="m341.998 263.819h-98.583c-4.318 0-7.819-3.5-7.819-7.819s3.501-7.819 7.819-7.819h98.583c4.318 0 7.819 3.5 7.819 7.819s-3.501 7.819-7.819 7.819z" fill="#bec8f7"/></g><g><path d="m295.313 291.426h-51.898c-4.318 0-7.819-3.5-7.819-7.819s3.501-7.819 7.819-7.819h51.898c4.318 0 7.819 3.5 7.819 7.819s-3.501 7.819-7.819 7.819z" fill="#bec8f7"/></g><path d="m129.537 380.561h-54.566c-3.125 0-5.669 2.543-5.669 5.669v40.497c6.8 6.997 14.013 13.588 21.602 19.736h38.632c3.126 0 5.668-2.542 5.668-5.668v-54.565c.001-3.126-2.542-5.669-5.667-5.669z" fill="#1e9ef4"/><g><path d="m291.059 393.723h-98.583c-4.318 0-7.819-3.5-7.819-7.819s3.501-7.819 7.819-7.819h98.583c4.318 0 7.819 3.5 7.819 7.819s-3.501 7.819-7.819 7.819z" fill="#bec8f7"/></g><g><path d="m291.059 421.331h-98.583c-4.318 0-7.819-3.5-7.819-7.819s3.501-7.819 7.819-7.819h98.583c4.318 0 7.819 3.5 7.819 7.819s-3.501 7.819-7.819 7.819z" fill="#bec8f7"/></g><g><path d="m244.374 448.938h-51.898c-4.318 0-7.819-3.5-7.819-7.819s3.501-7.819 7.819-7.819h51.898c4.318 0 7.819 3.5 7.819 7.819s-3.501 7.819-7.819 7.819z" fill="#bec8f7"/></g><path d="m12.217 179.442c-7.918 24.089-12.217 49.82-12.217 76.558 0 27.754 4.626 54.424 13.133 79.295 25.059-14.361 48.284-41.598 48.284-79.295 0-34.759-27.401-61.099-49.2-76.558z" fill="#56415e"/><path d="m485.762 301.535c-41.068 3.474-97.938 21.426-111.012 92.188-5.278 28.568-2.213 50.243 5.328 66.692 54.164-35.864 93.238-92.67 105.684-158.88z" fill="#56415e"/><path d="m481.459 100.109c-8.744 2.437-20.607 8.347-17.251 22.249 11.874 8.428 19.644 22.276 19.644 37.913v20.362c4.818 5.318 16.148 14.544 28.147.961v-21.323c.001-24.667-12.038-46.568-30.54-60.162z" fill="#f9a0b1"/></g></svg>