<svg id="Layer_1" enable-background="new 0 0 512 512" height="512" viewBox="0 0 512 512" width="512" xmlns="http://www.w3.org/2000/svg"><g><path d="m496.122 315.865c3.197-15.792 4.88-32.133 4.88-48.867 0-135.311-109.691-245.002-245.002-245.002s-245.002 109.691-245.002 245.002c0 16.735 1.683 33.075 4.88 48.867l57.526 114.468c44.862 50.117 110.04 81.667 182.596 81.667s137.734-31.55 182.596-81.667z" fill="#2a428c"/><path d="m324.899 342.424h-118.851c-6.593 2.753-11.179 9.315-11.165 16.936v.19.189c-.014 7.622 4.573 14.183 11.166 16.936h118.85c9.328 0 16.754-7.622 16.738-16.95 0-.059 0-.117 0-.175 0-.059 0-.117 0-.175.016-9.328-7.41-16.951-16.738-16.951z" fill="#ff4155"/><path d="m196.238 359.725c0-.059 0-.117 0-.175 0-.059 0-.117 0-.175-.017-9.328 7.41-16.95 16.738-16.95h-74.341c.266 1.496 2.15 7.438 2.15 17.126 0 9.002-2.001 16.289-2.15 17.125h74.341c-9.328-.001-16.754-7.623-16.738-16.951z" fill="#e80054"/><path d="m370.466 271.011c11.056 0 20.206-8.147 21.782-18.763l-59.589-93.254c-5.032-7.874-15.474-10.015-23.333-4.96-.096.062-.193.124-.29.186-7.852 5.012-10.255 15.367-5.24 23.217l58.865 92.119c2.427.928 5.051 1.455 7.805 1.455z" fill="#3ece9a"/><g><path d="m389.754 248.345c.006.197.03.388.03.586 0 11.115-9.01 20.125-20.125 20.125-3.061 0-5.95-.703-8.547-1.925l28.842 45.135c.654-.538 10.461-11.817 26.997-17.842l1.824-.665z" fill="#2bbc85"/></g><path d="m183.363 162.583c-2.497 0-4.882.455-7.109 1.243-17.64 27.605-39.89 62.425-56.95 89.123-5.016 7.85-2.611 18.203 5.241 23.215.097.062.193.124.289.186 7.859 5.055 18.3 2.917 23.331-4.957 16.926-26.489 38.966-60.98 56.543-88.487-.565-11.317-9.891-20.323-21.345-20.323z" fill="#ffb332"/><g><path d="m182.875 163.961c11.115 0 20.125 9.01 20.125 20.125 0 .547-.039 1.083-.082 1.619 16.508-25.834 29.483-46.138 31.364-49.083-1.01-.491-14.759-4.301-27.451-17.123l-1.37-1.384c-1.617 2.531-14.135 22.12-30.271 47.373 2.369-.98 4.963-1.527 7.685-1.527z" fill="#ff8f33"/></g><path d="m71.509 288.718c-13.81 0-26.721 4.016-37.643 10.927-1.347 4.101-2.226 9.679.181 14.834 2.953 6.322 10.053 10.321 21.104 11.889 30.72 4.355 35.361 60.606 35.692 65.293-.751 2.089-4.366 13.293 1.207 21.456 2.922 4.28 7.816 6.906 14.574 7.856 21.293-12.245 35.716-35.223 35.716-61.423.001-38.958-31.874-70.832-70.831-70.832z" fill="#f9a0b1"/><path d="m108.73 419.711c-26.343-2.327-16.368-27.829-16.368-27.829s-3.5-62.25-37-67c-25.224-3.577-22.384-19.057-19.442-26.488-7.722 4.528-14.526 10.471-20.042 17.472 3.293 16.27 8.2 31.954 14.545 46.879l14.033 27.888c8.323 14.208 18.032 27.505 28.948 39.701 12.917-.345 24.996-4.198 35.326-10.623z" fill="#ff7186"/><path d="m71.509 318.298c-22.747 0-41.252 18.505-41.252 41.251 0 1.052.053 2.092.13 3.124 4.105 9.668 8.823 19.011 14.087 27.995 7.246 6.304 16.699 10.133 27.035 10.133 22.747 0 41.251-18.506 41.251-41.252s-18.504-41.251-41.251-41.251z" fill="#ff4155"/><path d="m478.027 366.173c-1.078-2.202-4.494-8.902-9.826-16.714-5.933-8.691-15.431-20.384-26.988-26.725-5.107-2.802-8.057-6.478-8.768-10.925-1.638-10.245 8.761-21.653 9.132-22.056l.984-1.004c-.688-.02-1.378-.031-2.07-.031-38.957 0-70.832 31.874-70.832 70.832 0 38.322 30.849 69.767 68.937 70.784 10.916-12.195 20.624-25.492 28.947-39.699l12.202-24.247z" fill="#3ece9a"/><path d="m256 0c-15.078 0-29.084 4.79-40.602 12.903-.447 5.278.055 11.693 3.661 16.799 3.988 5.649 10.932 8.513 20.637 8.513 29.74 0 35.996 57.381 36.474 62.295-.794 2.183-4.514 13.642 1.54 21.935 3.281 4.496 8.795 7.156 16.422 7.979 19.624-12.629 32.7-34.65 32.7-59.592 0-38.958-31.875-70.832-70.832-70.832z" fill="#ffeb97"/><path d="m296.124 129.102c-28.966-1.892-18.429-28.387-18.429-28.387s-5.333-64-38-64c-21.96 0-23.81-15.063-22.663-24.938-19.16 12.712-31.864 34.467-31.864 59.055 0 38.957 31.875 70.831 70.832 70.831 14.869 0 28.697-4.653 40.124-12.561z" fill="#ffdd40"/><path d="m255.999 29.58c-22.747 0-41.251 18.505-41.251 41.251s18.505 41.252 41.251 41.252c22.747 0 41.252-18.506 41.252-41.252.001-22.746-18.505-41.251-41.252-41.251z" fill="#ffb332"/><g fill="#3c58a0"><path d="m229.502 221.18-21.502 33.646c-13.376 20.931 1.655 48.378 26.495 48.379l43.003.003c24.841.002 39.876-27.446 26.5-48.378l-21.501-33.648c-12.365-19.352-40.629-19.352-52.995-.002z"/><path d="m500.785 257.069c-3.357-84.181-49.176-157.43-116.638-198.913-13.702 22.853-27.387 63.501 4.215 111.226 39.613 59.823 53.783 91.464 112.423 87.687z"/><path d="m11.142 258.979c26.554.744 69.596-7.141 95.558-59.236 31.924-64.06 52.217-92.172 19.964-140.846-67.317 41.927-112.804 115.597-115.522 200.082z"/><path d="m140.425 483.048c34.43 18.462 73.773 28.952 115.575 28.952 41.784 0 81.11-10.48 115.529-28.927-12.613-23.372-40.961-56.779-99.119-53.211-71.463 4.384-105.955.862-131.985 53.186z"/></g><path d="m440.491 324.048c21.871 12 36.538 43.512 36.538 43.512l2 .25 2.548-5.064c6.345-14.926 11.252-30.61 14.545-46.88-12.998-16.496-33.125-27.147-55.631-27.147 0-.001-21.871 23.329 0 35.329z" fill="#93f9d7"/><path d="m481.742 359.55c0-22.747-18.505-41.251-41.251-41.251-22.747 0-41.251 18.505-41.251 41.251 0 22.747 18.505 41.252 41.251 41.252 10.336 0 19.789-3.83 27.035-10.134 5.264-8.983 9.981-18.325 14.086-27.991.078-1.034.13-2.074.13-3.127z" fill="#2bbc85"/></g></svg>