<svg id="Layer_1" enable-background="new 0 0 512 512" height="512" viewBox="0 0 512 512" width="512" xmlns="http://www.w3.org/2000/svg"><g><path d="m410.701 456.974c55.103-44.926 90.301-113.336 90.301-189.976 0-135.311-109.691-245.002-245.002-245.002s-245.002 109.691-245.002 245.002c0 131.599 103.759 238.95 233.93 244.742z" fill="#816ae2"/><path d="m339.469 0h-40.147c-2.571 2.388-7.812 8.133-7.65 15.155.111 4.835 2.742 9.267 7.827 13.189-1.52 2.195-4.152 6.907-3.18 12.115.818 4.381 3.962 8.039 9.344 10.874 12.7 6.689 15.63 62.297 15.698 83.676-.819 1.604-3.742 8.062-1.518 14.631 1.386 4.095 4.467 7.372 9.171 9.765-2.279 2.882-6.459 9.36-4.999 16.667.808 4.044 3.218 7.668 7.172 10.847h8.282c39.278 0 71.233-31.954 71.233-71.233v-44.453c0-39.278-31.955-71.233-71.233-71.233z" fill="#9bd8f9"/><path d="m301.612 0h-6.596c-39.278 0-71.233 31.955-71.233 71.233v44.453c0 39.278 31.955 71.233 71.233 71.233h38.655c-17.62-12.377-2.225-28.037-2.225-28.037-17.667-7.5-8.583-23.5-8.583-23.5s-.125-76.75-16.5-85.375-4.75-21.969-4.75-21.969c-19.001-13.343-.001-28.038-.001-28.038z" fill="#49b1f7"/><path d="m339.469 345.463h-44.453c-.772 0-1.537.034-2.304.058-2.72 2.603-8.51 9.051-7.983 16.367.336 4.662 3.146 8.753 8.361 12.177-1.284 2.953-3.876 10.469-.464 16.988 2.846 5.435 9.092 8.739 18.565 9.819 6.014.686 10.795 3.334 14.211 7.869 9.267 12.307 6.024 34.746 5.747 36.53l-7.385 21.867c-.707 1.44-7.307 15.531-1.082 26.969 1.22 2.241 2.853 4.21 4.874 5.914l51.075-20.902c11.288-6.542 22.013-13.948 32.069-22.146v-40.277c.002-39.278-31.953-71.233-71.231-71.233z" fill="#f9a0b1"/><path d="m295.016 345.463c-39.278 0-71.233 31.955-71.233 71.234v44.452c0 19.767 8.098 37.673 21.145 50.591 3.672.163 7.361.26 11.073.26 21.096 0 41.563-2.681 61.094-7.697l12.044-4.929c-14.306-11.199-3.983-31.659-3.983-31.659l7.457-22.083s7.25-43-21.25-46.25-16.346-25.881-16.346-25.881c-19.847-11.881-.001-28.038-.001-28.038z" fill="#ff7186"/><path d="m339.469 373.501h-44.453c-.88 0-1.753.035-2.621.087.229.16.457.319.695.476-1.284 2.953-3.876 10.469-.464 16.988 2.846 5.435 9.092 8.739 18.565 9.819 6.014.686 10.795 3.334 14.211 7.869 9.267 12.307 6.024 34.746 5.747 36.53l-7.385 21.867c-.707 1.44-7.307 15.531-1.082 26.969 1.46 2.683 3.51 4.976 6.115 6.889 17.574-5.463 34.299-12.851 49.931-21.916 2.518-5.471 3.935-11.542 3.935-17.931v-44.453c.001-23.757-19.437-43.194-43.194-43.194z" fill="#ff4155"/><path d="m325.155 467.715 7.457-22.083s7.25-43-21.25-46.25-16.346-25.881-16.346-25.881c-23.757 0-43.195 19.438-43.195 43.195v44.453c0 23.757 19.438 43.195 43.195 43.195h21.978c4.588-1.175 9.12-2.488 13.6-3.919-16.437-10.913-5.439-32.71-5.439-32.71z" fill="#e80054"/><path d="m339.469 28.038h-40.352c.128.102.251.205.382.306-1.52 2.195-4.152 6.907-3.18 12.115.818 4.381 3.962 8.039 9.344 10.874 12.7 6.689 15.63 62.297 15.698 83.676-.819 1.604-3.742 8.062-1.518 14.631 1.289 3.809 4.064 6.901 8.229 9.241h11.396c23.757 0 43.195-19.438 43.195-43.196v-44.451c.001-23.758-19.437-43.196-43.194-43.196z" fill="#49b1f7"/><path d="m295.016 158.882h36.43c-17.667-7.5-8.583-23.5-8.583-23.5s-.125-76.75-16.5-85.375-4.75-21.969-4.75-21.969h-6.596c-23.757 0-43.195 19.438-43.195 43.195v44.453c-.001 23.758 19.437 43.196 43.194 43.196z" fill="#1e9ef4"/><g><path d="m145.577 440.869c-7.743 0-14.019-6.276-14.019-14.019v-186.612c0-7.743 6.276-14.019 14.019-14.019s14.019 6.276 14.019 14.019v186.612c0 7.742-6.277 14.019-14.019 14.019z" fill="#bec8f7"/></g><g><path d="m145.577 450.272c-3.543 0-7.085-1.335-9.811-4.006l-30.259-29.649c-5.53-5.418-5.621-14.295-.202-19.825 5.418-5.53 14.294-5.62 19.825-.202l20.448 20.035 20.448-20.035c5.53-5.419 14.406-5.328 19.825.202s5.329 14.406-.202 19.825l-30.26 29.649c-2.726 2.671-6.27 4.006-9.812 4.006z" fill="#bec8f7"/></g><g><g><path d="m312.15 485.494c-3.171 0-6.302-1.448-8.341-4.188-3.412-4.588-2.472-11.067 2.093-14.499.372-.286 18.938-14.82 21.948-41.029.654-5.698 5.795-9.794 11.501-9.132 5.697.654 9.786 5.804 9.131 11.501-4.08 35.533-29.081 54.503-30.144 55.293-1.86 1.386-4.033 2.054-6.188 2.054z" fill="#deeeff"/></g><g><path d="m317.243 455.431c-17.391 0-31.54-14.149-31.54-31.54s14.149-31.539 31.54-31.539 31.539 14.149 31.539 31.539c0 17.391-14.149 31.54-31.539 31.54zm0-42.31c-5.939 0-10.771 4.832-10.771 10.771s4.832 10.771 10.771 10.771 10.77-4.832 10.77-10.771-4.832-10.771-10.77-10.771z" fill="#deeeff"/></g></g><g><g><path d="m319.869 140.422c-5.735 0-10.384-4.65-10.384-10.384v-62.771h-5.252c-5.735 0-10.384-4.65-10.384-10.384s4.649-10.384 10.384-10.384h15.637c5.735 0 10.384 4.65 10.384 10.384v73.155c-.001 5.734-4.65 10.384-10.385 10.384z" fill="#deeeff"/></g></g><path d="m62.805 116.322c-32.459 41.559-51.807 93.856-51.807 150.676 0 42.723 10.946 82.885 30.171 117.852 45.852-5.494 47.943-51.28 47.943-51.28s0-113.188 0-166.69c0-22.412-12.167-38.928-26.307-50.558z" fill="#9181f2"/><path d="m501.002 266.998c0-29.826-5.336-58.405-15.095-84.841-47.941 5.597-126.128 24.027-126.128 84.711 0 50.442 66.666 78.161 123.147 92.594 11.641-28.533 18.076-59.744 18.076-92.464z" fill="#9181f2"/><g><path d="m145.577 254.257c-7.743 0-14.019-6.276-14.019-14.019v-108.211c0-27.849 21.764-50.91 49.547-52.499 7.727-.459 14.354 5.465 14.797 13.195.442 7.73-5.465 14.354-13.195 14.797-12.959.742-23.11 11.507-23.11 24.508v108.211c-.001 7.741-6.278 14.018-14.02 14.018z" fill="#deeeff"/></g></g></svg>