<svg id="Layer_1" enable-background="new 0 0 512 512" height="512" viewBox="0 0 512 512" width="512" xmlns="http://www.w3.org/2000/svg"><g><path d="m406.398 449.408c57.568-44.831 94.604-114.791 94.604-193.408 0-135.311-109.691-245.002-245.002-245.002s-245.002 109.691-245.002 245.002c0 79.51 37.885 150.16 96.576 194.92z" fill="#816ae2"/><g><path d="m170.73 236.637h-8.632c-32.469 0-58.884-26.415-58.884-58.884v-18.006c0-23.784-19.35-43.135-43.135-43.135h-5.641c-4.349 0-7.875-3.525-7.875-7.875s3.526-7.875 7.875-7.875h5.641c32.469 0 58.884 26.415 58.884 58.884v18.006c0 23.784 19.35 43.135 43.135 43.135h8.632c4.349 0 7.875 3.525 7.875 7.875-.001 4.349-3.526 7.875-7.875 7.875z" fill="#6bedc5"/></g><g><path d="m60.079 356.661h-5.641c-4.349 0-7.875-3.525-7.875-7.875 0-4.349 3.526-7.875 7.875-7.875h5.641c23.785 0 43.135-19.35 43.135-43.135v-18.006c0-32.469 26.415-58.884 58.884-58.884h8.632c4.349 0 7.875 3.525 7.875 7.875s-3.526 7.875-7.875 7.875h-8.632c-23.785 0-43.135 19.35-43.135 43.134v18.006c0 32.47-26.415 58.885-58.884 58.885z" fill="#9bd8f9"/></g><g><path d="m351.96 236.637h-10.639c-4.349 0-7.875-3.525-7.875-7.875s3.526-7.875 7.875-7.875h10.639c23.784 0 43.134-19.351 43.134-43.135v-18.006c0-32.469 26.415-58.884 58.884-58.884h5.641c4.349 0 7.875 3.525 7.875 7.875s-3.526 7.875-7.875 7.875h-5.641c-23.785 0-43.135 19.35-43.135 43.135v18.006c0 32.468-26.415 58.884-58.883 58.884z" fill="#ffdd40"/></g><g><path d="m456.979 356.661h-5.641c-32.469 0-58.884-26.415-58.884-58.884v-18.006c0-23.784-19.35-43.134-43.134-43.134h-7.999c-4.349 0-7.875-3.525-7.875-7.875s3.526-7.875 7.875-7.875h7.999c32.468 0 58.884 26.415 58.884 58.884v18.006c0 23.784 19.35 43.135 43.134 43.135h5.641c4.349 0 7.875 3.525 7.875 7.875 0 4.349-3.526 7.874-7.875 7.874z" fill="#f9a0b1"/></g><path d="m329.61 196.196c-3.323-9.264-13.247-30.919-34.89-36.695-1.153-.308-1.458-1.8-.519-2.537l3.244-2.549c1.471-1.156.905-3.503-.931-3.857-7.854-1.514-24.676-4.064-41.703-2.236-4.424 6.018-7.207 14.565 2.889 22.417 18.077 14.06-7.307 28.137-7.307 28.137l-19.132 53.29h86.903c.216-8.761 1.677-31.951 10.833-48.47 1.272-2.298 1.5-5.027.613-7.5z" fill="#56415e"/><path d="m252.177 198.876s25.383-14.077 7.307-28.137c-10.202-7.934-7.254-16.579-2.75-22.606-18.204 1.612-37.022 8.009-45.699 25.851-.983 2.022-2.836 3.477-5.013 4.04-4.793 1.241-13.415 4.98-19.035 16.186-1.099 2.191-1.287 4.733-.499 7.054 2.731 8.049 9.384 29.661 10.078 50.901h36.477z" fill="#47354f"/><g><path d="m322.882 248.622c-2.722-2.495-8.808-1.23-11.153.297.514 3.199.543 6.471.099 9.702l-2.767 20.151c0 1.624-.051 3.218-.145 4.784 6.747 2.035 10.761-4.022 11.326-8.178.243-1.789.64-3.553 1.191-5.274 1.796-5.605 8.27-15.232 1.449-21.482z" fill="#ffaa7b"/></g><g><path d="m191.175 248.622c2.722-2.495 8.808-1.23 11.153.297-.514 3.199-.543 6.471-.099 9.702l2.767 20.151c0 1.624.051 3.218.145 4.784-6.747 2.035-10.761-4.022-11.326-8.178-.243-1.789-.64-3.553-1.191-5.274-1.795-5.605-8.269-15.232-1.449-21.482z" fill="#fc9460"/></g><path d="m300.58 354.433c-6.736-6.735-8.443-19.505-8.75-28.44-3.515 4.095-7.204 7.519-10.729 10.256-6.868 5.333-15.343 8.23-24.072 8.23-1.013 0-2.021-.043-3.025-.12-.057 8.156-1.842 21.301-11.432 30.891-.131.131-.262.24-.393.366l1.447.736s9.378 4.114 13.403 10.016c4.025-5.902 13.403-10.016 13.403-10.016l38.67-19.668c-2.797-.827-5.631-1.584-8.522-2.251z" fill="#ffaa7b"/><path d="m205.824 357.126 37.509 19.078c.342-.307.684-.613 1.024-.953 9.553-9.553 11.361-22.634 11.431-30.796-8.289-.261-16.289-3.124-22.831-8.205-3.525-2.737-7.214-6.162-10.729-10.256-.308 8.934-2.015 21.704-8.751 28.44-2.679.618-5.306 1.321-7.903 2.078z" fill="#fc9460"/><path d="m332.495 360.904c-4.776-2.212-13.583-6.61-20.74-8.935l-.198 5.801c-1.766-.571-3.542-1.119-5.342-1.625l-37.565 19.105s-14.375 6.303-14.375 14.375v111.355c.576.004 1.148.022 1.725.022 56.694 0 108.883-19.265 150.398-51.594l-1.164-20.772c0-22.018-13.755-43.773-36.522-50.495z" fill="#d3dcfb"/><path d="m310.728 242.693c-.623-1.625-1.408-3.27-2.397-4.822-1.675-2.628-2.412-5.737-2.188-8.837.646-8.916.299-26.354-11.405-31.62-9.943-4.474-22.141-1.884-29.92.703-4.693 1.56-9.746 1.652-14.491.313-8.08 7.165-8.266 21.845-7.683 29.792.231 3.142-.542 6.285-2.241 8.95-.979 1.536-1.762 3.161-2.388 4.77-2.032 5.219-2.624 10.879-1.863 16.421l2.827 20.589c0 29.599 15.8 49.718 29.24 60.155 1.585 1.231 3.258 2.327 4.995 3.296 2.79-1.26 5.441-2.843 7.885-4.741 13.157-10.217 28.625-29.912 28.625-58.889l2.767-20.151c.739-5.373.179-10.86-1.763-15.929z" fill="#ffc7ab"/><g><path d="m268.357 337.661c-13.157-10.217-28.625-29.912-28.625-58.889l-2.768-20.155c-.745-5.425-.165-10.966 1.824-16.075.613-1.575 1.38-3.166 2.338-4.669 1.663-2.609 2.42-5.686 2.194-8.762-.602-8.197-.374-23.719 8.857-30.235-.99-.198-1.973-.438-2.938-.759-7.779-2.587-19.976-5.177-29.92-.703-11.738 5.281-12.053 22.804-11.399 31.697.226 3.076-.531 6.153-2.194 8.762-.958 1.503-1.725 3.094-2.338 4.669-1.989 5.109-2.569 10.65-1.824 16.075l2.767 20.155c0 28.976 15.468 48.672 28.625 58.889 6.867 5.333 15.343 8.23 24.071 8.23 6.19 0 12.248-1.463 17.7-4.212-2.235-1.128-4.372-2.467-6.37-4.018z" fill="#ffaa7b"/></g><ellipse cx="482.138" cy="348.787" fill="#ff4155" rx="29.862" ry="29.862" transform="matrix(.736 -.677 .677 .736 -108.88 418.119)"/><path d="m245.407 375.25-28.292-14.39-4.227 15.343-.449-1.431c-.509.159-12.598 4.005-24.886 12.238-16.463 11.032-25.165 24.682-25.165 39.475v55.985c28.84 11.94 60.455 18.532 93.612 18.532 1.265 0 2.522-.029 3.782-.048 0-44.954 0-107.451 0-111.329 0-8.072-14.375-14.375-14.375-14.375z" fill="#bec8f7"/><path d="m163.888 426.485c0-34.898 49-50.282 49-50.282l4.227-15.343-.596-.303v.001l-8.676-4.413c-1.77.499-3.517 1.037-5.254 1.597l-.286-5.773c-6.987 2.269-16.4 6.924-20.74 8.935l-36.218 17.238c-22.846 6.747-36.521 28.52-36.521 50.495l-1.249 22.284c17.138 13.07 36.053 23.923 56.314 32.154-.001-17.775-.001-39.525-.001-56.59z" fill="#a9bbfc"/><path d="m495.452 138.599h-26.627c-9.139 0-16.548-7.409-16.548-16.548v-26.627c0-9.139 7.409-16.548 16.548-16.548h26.627c9.139 0 16.548 7.409 16.548 16.548v26.627c0 9.139-7.409 16.548-16.548 16.548z" fill="#ffb332"/><path d="m496.976 118.918h-13.314c-4.57 0-8.274-3.704-8.274-8.274v-13.313c0-4.57 3.704-8.274 8.274-8.274h13.314c4.57 0 8.274 3.704 8.274 8.274v13.313c0 4.57-3.704 8.274-8.274 8.274z" fill="#ffdd40"/><path d="m41.883 319.874h-17.44c-4.934 0-9.493 2.632-11.959 6.905l-8.72 15.103c-2.467 4.273-2.467 9.537 0 13.809l8.72 15.103c2.467 4.273 7.026 6.905 11.959 6.905h17.44c4.934 0 9.493-2.632 11.959-6.905l8.72-15.103c2.467-4.273 2.467-9.537 0-13.809l-8.72-15.103c-2.467-4.273-7.026-6.905-11.959-6.905z" fill="#49b1f7"/><path d="m42.715 329.164h-8.72c-2.467 0-4.746 1.316-5.98 3.452l-4.36 7.551c-1.233 2.136-1.233 4.768 0 6.905l4.36 7.552c1.233 2.136 3.513 3.452 5.98 3.452h8.72c2.467 0 4.746-1.316 5.98-3.452l4.36-7.552c1.233-2.136 1.233-4.768 0-6.905l-4.36-7.551c-1.233-2.137-3.513-3.452-5.98-3.452z" fill="#73c3f9"/><path d="m71.302 121.047-25.599-42.469c-4.207-6.979-14.328-6.979-18.535 0l-25.598 42.469c-4.348 7.212.846 16.407 9.267 16.407h51.196c8.422-.001 13.616-9.196 9.269-16.407z" fill="#3ece9a"/><path d="m64.197 108.573-12.614-20.927c-2.073-3.439-7.06-3.439-9.133 0l-12.614 20.927c-2.142 3.554.417 8.085 4.567 8.085h25.227c4.15 0 6.709-4.531 4.567-8.085z" fill="#6bedc5"/><g><path d="m295.649 339.076c-.763-.422-1.713.02-1.887.874-1.135 5.56-6.061 23.075-24.352 33.47-1.801 1.024-2.233 3.427-.87 4.988l18.483 21.169c3.837 4.42 10.903 3.625 13.673-1.532 4.683-8.718 11.207-21.987 16.036-36.254.865-2.554.25-5.378-1.572-7.366-5.623-6.132-12.21-11.319-19.511-15.349z" fill="#deeeff"/></g><g><path d="m218.408 339.076c.763-.422 1.713.02 1.887.874 1.135 5.56 6.061 23.075 24.352 33.47 1.801 1.024 2.233 3.427.87 4.988l-18.483 21.169c-3.838 4.42-10.903 3.625-13.673-1.532-4.683-8.718-11.207-21.987-16.036-36.254-.864-2.554-.25-5.378 1.572-7.366 5.623-6.132 12.21-11.319 19.511-15.349z" fill="#deeeff"/></g><g fill="#9181f2"><path d="m256 10.998c-53.028 0-102.118 16.851-142.216 45.484 15.67 27.525 53.054 64.901 140.578 64.901 77.056 0 122.068-33.226 146.852-62.715-40.639-29.955-90.855-47.67-145.214-47.67z"/><path d="m486.296 172.217c-25.702 5.502-55.909 19.542-55.909 55.167 0 40.896 39.807 61.774 66.909 71.252 2.431-13.847 3.705-28.092 3.705-42.636.001-29.429-5.192-57.643-14.705-83.783z"/><path d="m25.704 172.217c25.702 5.502 55.909 19.542 55.909 55.167 0 40.896-39.807 61.774-66.909 71.252-2.43-13.847-3.705-28.092-3.705-42.636-.001-29.429 5.192-57.643 14.705-83.783z"/></g><path d="m371.91 471.881c-.003-18.393-5.444-31.295-11.381-39.897-4.585-6.644-14.974-3.467-14.974 4.605v47.517c9.061-3.563 17.857-7.652 26.355-12.225z" fill="#bec8f7"/><ellipse cx="486.071" cy="341.73" fill="#ff7186" rx="14.931" ry="14.931" transform="matrix(.383 -.924 .924 .383 -15.658 660.028)"/></g></svg>