<svg id="Layer_1" enable-background="new 0 0 512 512" height="512" viewBox="0 0 512 512" width="512" xmlns="http://www.w3.org/2000/svg"><g><path d="m256 21.996c-135.311 0-245.002 109.691-245.002 245.002 0 133.65 107.019 242.293 240.036 244.939l117.64-27.34c78.613-40.79 132.328-122.917 132.328-217.599 0-135.311-109.691-245.002-245.002-245.002z" fill="#2a428c"/><path d="m413.178 138.124h-23.59c-2.001 2.343-6.391 8.346-6.415 15.986-.017 5.775 2.465 11.193 7.379 16.107 13.167 13.167 16.955 24.215 17.715 26.858-1.509 2.262-6.286 10.378-3.861 19.301 1.25 4.601 4.205 8.62 8.803 12.022 17.133-.017 31.018-13.91 31.018-31.047v-28.178c-.001-17.149-13.902-31.049-31.049-31.049z" fill="#f9a0b1"/><path d="m385 138.124c-17.147 0-31.048 13.901-31.048 31.048v28.178c0 17.147 13.901 31.048 31.048 31.048h28.178c.84 0 1.67-.043 2.493-.108-19.419-12.729-5.778-30.925-5.778-30.925s-2.668-12.596-18.281-28.208c-15.613-15.613 0-31.032 0-31.032h-6.612z" fill="#ff7186"/><path d="m413.193 194.065v-21.609c0-1.822-1.477-3.3-3.3-3.3h-21.609c-1.822 0-3.3 1.477-3.3 3.3v21.609c0 1.822 1.477 3.3 3.3 3.3h21.609c1.823 0 3.3-1.478 3.3-3.3z" fill="#ff4155"/><path d="m240.851 173.601c13.577 13.578 21.795 19.505 22.139 19.751l.732.524 4.72-2.339c.222 4.31 1.534 13.133 8.291 18.083 5.072 3.714 12.077 4.413 20.873 2.109 2.252-4.3 3.532-9.189 3.532-14.379v-28.178c0-17.147-13.901-31.048-31.048-31.048h-28.178c-.599 0-1.193.021-1.784.055-2.439 4.2-11.989 22.71.723 35.422z" fill="#3ece9a"/><path d="m210.863 169.172v28.178c0 17.147 13.901 31.048 31.048 31.048h28.178c12.664 0 23.55-7.586 28.38-18.458-30.192 8.742-28.55-20.808-28.55-20.808l-6.057 3s-8.305-5.945-21.951-19.592c-13.646-13.646 0-34.416 0-34.416-17.147 0-31.048 13.9-31.048 31.048z" fill="#2bbc85"/><path d="m288.073 457.191c21.949 4.067 53.733 3.889 82.062-19.268 4.184-10.998 15.252-24.616 15.252-53.015.001-7.757.001-62.558.001-82.715 0-9.652-7.897-17.548-17.549-17.549h-1.669c-9.652 0-17.549 7.897-17.549 17.549v-11.808c0-9.379-6.829-17.616-16.141-18.734-11.101-1.333-20.625 7.4-20.625 18.248v-3.708c0-9.379-6.829-17.615-16.141-18.734-11.1-1.334-20.625 7.399-20.625 18.248v-58.456c0-9.379-6.829-17.616-16.142-18.734-11.101-1.333-20.625 7.4-20.625 18.248v97.568c0 1.182-.605 2.217-1.515 2.824l.445 16.99c.133 5.091-3.354 8.111-6.382 9.151-3.117 1.072-7.509.784-10.474-3.236-2.966-4.02-4.971-8.605-6.025-13.685-12.024 15.151-14.271 35.988-5.534 53.427 8.608 16.644-2.941-1.657 37.679 50.806.717.903 1.344 1.865 1.886 2.869 5.835 3.105 20.578 10.177 39.671 13.714z" fill="#ffc7ab"/><path d="m252.402 208.382h8.569c4.922 0 8.948 4.027 8.948 8.947v16.095c0 4.922-4.026 8.948-8.948 8.948h-8.569c-4.921 0-8.948-4.026-8.948-8.948v-16.095c0-4.921 4.026-8.947 8.948-8.947z" fill="#fce4d9"/><path d="m238.841 344.104-.519-19.771c0 1.922-1.589 3.462-3.51 3.391-4.957-.181-12.59-.354-18.752 6.622-1.053 1.192-2.033 2.428-2.955 3.696 1.268 5.202 3.441 9.475 6.013 12.962 6.335 8.587 20.003 3.768 19.723-6.9z" fill="#ffaa7b"/><path d="m246.516 440.607c2.741 3.451 4.232 7.728 4.232 12.134l.286 59.195c1.652.034 3.306.064 4.966.064 40.629 0 78.941-9.9 112.675-27.403l-.117-39.257c0-3.426 1.198-6.834 2.949-10.644-55.065 47.94-124.991 5.911-124.991 5.911z" fill="#ffaa7b"/><g><path d="m254.752 203.937c-2.276 0-4.46-.904-6.069-2.514l-14.373-14.373c-3.352-3.353-3.352-8.786 0-12.139 3.352-3.351 8.786-3.351 12.138 0l8.304 8.304 12.15-12.151c3.353-3.353 8.787-3.352 12.139-.001 3.352 3.352 3.352 8.786 0 12.138l-18.22 18.221c-1.61 1.611-3.793 2.515-6.069 2.515z" fill="#deeeff"/></g><path d="m501.002 266.998c0-6.061-.229-12.068-.662-18.018-31.575.924-77.311 11.604-77.311 65.736v82.667s.78 18.154 15.277 33.272c38.975-43.384 62.696-100.746 62.696-163.657z" fill="#3c58a0"/><path d="m11.03 269.564c1.182 114.95 81.515 210.911 189.102 236.005 10.626-31.014 7.814-65.103-12.492-79.18-44.972-31.179-36.569-58.206-42.71-128.939-4.631-53.328-91.45-38.441-133.9-27.886z" fill="#3c58a0"/><g><path d="m270.089 0h-23.59c-2.001 2.343-6.391 8.346-6.415 15.986-.018 5.774 2.465 11.193 7.379 16.107 13.167 13.167 16.955 24.215 17.715 26.858-1.509 2.262-6.286 10.378-3.861 19.301 1.25 4.601 4.205 8.62 8.803 12.022 17.133-.017 31.018-13.91 31.018-31.047v-28.179c-.001-17.147-13.902-31.048-31.049-31.048z" fill="#f9a0b1"/><path d="m241.911 0c-17.147 0-31.048 13.901-31.048 31.048v28.178c0 17.147 13.901 31.048 31.048 31.048h28.178c.84 0 1.67-.043 2.493-.108-19.419-12.729-5.778-30.925-5.778-30.925s-2.668-12.596-18.281-28.208c-15.613-15.613 0-31.032 0-31.032h-6.612z" fill="#ff7186"/><path d="m270.104 55.941v-21.609c0-1.822-1.477-3.3-3.3-3.3h-21.609c-1.822 0-3.3 1.477-3.3 3.3v21.609c0 1.822 1.477 3.3 3.3 3.3h21.609c1.823 0 3.3-1.477 3.3-3.3z" fill="#ff4155"/></g><g><path d="m127 138.123h-23.59c-2.001 2.343-6.391 8.346-6.415 15.986-.018 5.774 2.465 11.193 7.379 16.106 13.167 13.167 16.955 24.215 17.715 26.858-1.509 2.262-6.286 10.378-3.861 19.301 1.25 4.601 4.205 8.62 8.803 12.022 17.134-.017 31.018-13.91 31.018-31.047v-28.178c-.001-17.147-13.901-31.048-31.049-31.048z" fill="#f9a0b1"/><path d="m98.822 138.123c-17.147 0-31.048 13.901-31.048 31.048v28.178c0 17.147 13.901 31.048 31.048 31.048h28.178c.84 0 1.67-.043 2.493-.108-19.419-12.729-5.778-30.925-5.778-30.925s-2.668-12.596-18.281-28.209 0-31.032 0-31.032z" fill="#ff7186"/><path d="m127.015 194.065v-21.609c0-1.822-1.477-3.3-3.3-3.3h-21.609c-1.822 0-3.3 1.477-3.3 3.3v21.609c0 1.822 1.477 3.3 3.3 3.3h21.609c1.823-.001 3.3-1.478 3.3-3.3z" fill="#ff4155"/></g><g><path d="m413.178 0h-23.59c-2.001 2.343-6.391 8.346-6.415 15.986-.018 5.774 2.465 11.193 7.379 16.107 13.167 13.167 16.955 24.215 17.715 26.858-1.509 2.262-6.286 10.378-3.861 19.301 1.25 4.601 4.205 8.62 8.803 12.022 17.134-.017 31.018-13.91 31.018-31.047v-28.179c-.001-17.147-13.902-31.048-31.049-31.048z" fill="#ffdd40"/><path d="m385 0c-17.147 0-31.048 13.901-31.048 31.048v28.178c0 17.147 13.901 31.048 31.048 31.048h28.178c.84 0 1.67-.043 2.493-.108-19.419-12.729-5.778-30.925-5.778-30.925s-2.668-12.596-18.281-28.208c-15.613-15.613 0-31.032 0-31.032h-6.612z" fill="#ffb332"/><path d="m413.193 55.941v-21.609c0-1.822-1.477-3.3-3.3-3.3h-21.609c-1.822 0-3.3 1.477-3.3 3.3v21.609c0 1.822 1.477 3.3 3.3 3.3h21.609c1.823 0 3.3-1.477 3.3-3.3z" fill="#ff8f33"/></g><g><path d="m127 0h-23.59c-2.001 2.343-6.391 8.346-6.415 15.986-.018 5.774 2.465 11.193 7.379 16.107 13.167 13.167 16.955 24.215 17.715 26.858-1.509 2.262-6.286 10.378-3.861 19.301 1.25 4.601 4.205 8.62 8.803 12.022 17.134-.017 31.018-13.91 31.018-31.047v-28.179c-.001-17.147-13.901-31.048-31.049-31.048z" fill="#ffdd40"/><path d="m98.822 0c-17.147 0-31.048 13.901-31.048 31.048v28.178c0 17.147 13.901 31.048 31.048 31.048h28.178c.84 0 1.67-.043 2.493-.108-19.419-12.729-5.778-30.925-5.778-30.925s-2.668-12.596-18.281-28.208c-15.613-15.613 0-31.032 0-31.032h-6.612z" fill="#ffb332"/><path d="m127.015 55.941v-21.609c0-1.822-1.477-3.3-3.3-3.3h-21.609c-1.822 0-3.3 1.477-3.3 3.3v21.609c0 1.822 1.477 3.3 3.3 3.3h21.609c1.823 0 3.3-1.477 3.3-3.3z" fill="#ff8f33"/></g></g></svg>