<svg width="131" height="130" xmlns="http://www.w3.org/2000/svg" xmlns:xlink="http://www.w3.org/1999/xlink" xml:space="preserve" overflow="hidden"><defs><filter id="fx0" x="-10%" y="-10%" width="120%" height="120%" filterUnits="userSpaceOnUse" primitiveUnits="userSpaceOnUse"><feComponentTransfer color-interpolation-filters="sRGB"><feFuncR type="discrete" tableValues="1.000000 1.000000"/><feFuncG type="discrete" tableValues="1.000000 1.000000"/><feFuncB type="discrete" tableValues="1.000000 1.000000"/><feFuncA type="linear" slope="1.000000" intercept="0.000000"/></feComponentTransfer><feGaussianBlur stdDeviation="7.645003 7.645003"/></filter><clipPath id="clip1"><rect x="25" y="406" width="131" height="130"/></clipPath><clipPath id="clip2"><rect x="0.592194" y="0.150909" width="64.7785" height="65.6588"/></clipPath><clipPath id="clip3"><rect x="0" y="0" width="66" height="66"/></clipPath><clipPath id="clip4"><rect x="23" y="23" width="20" height="20"/></clipPath><clipPath id="clip5"><rect x="23" y="23" width="20" height="20"/></clipPath><clipPath id="clip6"><rect x="23" y="23" width="20" height="20"/></clipPath><clipPath id="clip7"><rect x="72" y="449" width="37" height="37"/></clipPath><clipPath id="clip8"><rect x="72" y="449" width="37" height="37"/></clipPath><clipPath id="clip9"><rect x="72" y="449" width="37" height="37"/></clipPath></defs><g clip-path="url(#clip1)" transform="translate(-25 -406)"><g clip-path="url(#clip2)" filter="url(#fx0)" transform="matrix(1.98485 0 0 1.98485 25 406)"><g clip-path="url(#clip3)"><g clip-path="url(#clip4)" transform="matrix(1 0 0 1 -2.98023e-07 -7.51019e-06)"><g clip-path="url(#clip5)" transform="matrix(1 0 0 1 -2.98023e-07 -7.51019e-06)"><g clip-path="url(#clip6)" transform="matrix(1 0 0 1 -2.98023e-07 -7.51019e-06)"><path d="M24.507 33.4901 23.9736 37.3479C23.8025 38.4147 24.6373 39.4815 25.7139 39.5721L28.7882 39.898C29.0273 39.9242 29.2572 40.0048 29.4604 40.1335L32.3046 41.7668C34.1804 42.8747 36.702 42.0417 37.5536 40.0414L38.6626 37.519C38.7427 37.3359 38.8583 37.1705 39.0027 37.0322L41.6358 34.5004C42.4302 33.7689 42.4357 32.4153 41.6474 31.6773L38.8589 28.9506C38.7058 28.8013 38.5858 28.6214 38.5068 28.4227L37.5733 26.0765C36.7825 23.9998 34.1531 23.0859 32.2496 24.2434L29.2182 26.0139C29.0464 26.1258 28.8551 26.2044 28.6543 26.2458L25.5384 26.8637 25.2985 26.911C24.2597 27.0963 23.5272 28.1875 23.7515 29.2193L24.4924 32.9858C24.5251 33.1519 24.53 33.3223 24.507 33.4901ZM26.0343 38.8527C25.9177 38.8218 25.8481 38.7025 25.8785 38.5858L26.1563 37.5292C26.187 37.4125 26.3066 37.3428 26.4233 37.3736 26.5401 37.4043 26.6097 37.5239 26.579 37.6406L26.3012 38.6968C26.2702 38.8134 26.151 38.883 26.0343 38.8527ZM26.714 30.4081C26.5977 30.4393 26.4779 30.3706 26.4461 30.2544L26.1599 29.2004C26.1282 29.084 26.1969 28.9639 26.3134 28.9322 26.4298 28.9006 26.5498 28.9693 26.5815 29.0857L26.8677 30.1397C26.8993 30.2562 26.8306 30.3764 26.714 30.4081ZM26.8859 31.0405C27.0023 31.0089 27.1223 31.0777 27.1539 31.1941L27.44 32.2482C27.4736 32.364 27.4069 32.4852 27.2911 32.5188 27.1752 32.5524 27.054 32.4857 27.0204 32.3698 27.0197 32.3674 27.019 32.365 27.0184 32.3625L26.7323 31.3084C26.7007 31.192 26.7695 31.0721 26.8859 31.0405ZM26.4341 36.473 26.7119 35.4168C26.7425 35.3001 26.862 35.2303 26.9787 35.261 27.0955 35.2916 27.1652 35.4111 27.1346 35.5278L26.8568 36.5841C26.8261 36.7008 26.7066 36.7705 26.5899 36.7399 26.4732 36.7092 26.4034 36.5897 26.4341 36.473ZM27.2664 39.442 26.7369 39.5144C26.6175 39.532 26.5065 39.4494 26.489 39.33 26.4714 39.2107 26.554 39.0997 26.6733 39.0821L27.1974 39.0105C27.3165 38.9914 27.4286 39.0726 27.4477 39.1917 27.4668 39.3108 27.3857 39.4229 27.2665 39.442ZM30.6815 39.9573 30.0221 40.0763C29.9035 40.0985 29.7893 40.0203 29.7671 39.9016 29.7449 39.783 29.8231 39.6688 29.9417 39.6467L30.6012 39.5277C30.7199 39.5063 30.8335 39.5853 30.8548 39.704 30.876 39.8216 30.7988 39.9343 30.6815 39.9571ZM37.1538 39.8652C36.4664 41.429 34.6932 42.2026 33.0793 41.6427 33.4959 41.4346 33.8697 41.1501 34.1814 40.8042L34.9038 41.5338C34.9881 41.6201 35.1264 41.6216 35.2127 41.5373 35.299 41.4529 35.3005 41.3146 35.2161 41.2283 35.2154 41.2276 35.2147 41.2269 35.214 41.2262L34.4559 40.4608C34.5991 40.2582 34.7215 40.0417 34.8215 39.8146L35.9309 37.2922C35.9476 37.2536 35.9662 37.2165 35.9862 37.1797L38.2508 37.3705ZM41.3328 34.1851 38.6998 36.7169C38.6243 36.7897 38.5548 36.8683 38.4919 36.9521L36.3092 36.7687 38.9037 34.2736C39.2279 33.9638 39.4353 33.5517 39.4909 33.1067L41.7963 33.2137C41.766 33.5833 41.6011 33.929 41.3328 34.1851ZM38.5534 29.263 41.3419 31.9897C41.5609 32.2023 41.7105 32.4762 41.7712 32.7753L39.4982 32.6698C39.4558 32.2069 39.249 31.7744 38.9153 31.4508L36.3776 28.9696 38.3903 29.0821C38.4409 29.1456 38.4954 29.206 38.5534 29.263ZM37.1673 26.2382C37.191 26.2932 38.0954 28.5763 38.1205 28.6295L35.9436 28.5075C35.8756 28.4106 35.819 28.3062 35.7751 28.1962L34.8412 25.8501C34.7137 25.5298 34.5421 25.2288 34.3315 24.9559L35.0098 24.2958C35.9916 24.573 36.7889 25.2907 37.1673 26.2382ZM34.488 24.1938 34.0446 24.6249C33.8993 24.4767 33.7418 24.3409 33.5738 24.219 33.8758 24.1674 34.1836 24.159 34.488 24.1938ZM32.4269 26.1989 33.2101 25.4372C33.2938 25.3503 33.4321 25.3478 33.519 25.4316 33.6058 25.5153 33.6083 25.6536 33.5246 25.7405 33.5213 25.7439 33.5179 25.7471 33.5145 25.7503L32.7317 26.512C32.6452 26.5961 32.5069 26.5942 32.4227 26.5078 32.3386 26.4213 32.3405 26.283 32.4269 26.1989ZM30.6597 26.9791 30.8803 26.9522 30.7594 26.9117C30.645 26.8734 30.5833 26.7496 30.6216 26.6352 30.6599 26.5208 30.7837 26.4591 30.8981 26.4974L31.934 26.844C32.1679 26.9262 32.1087 27.2671 31.8644 27.2696 31.8579 27.2696 30.7132 27.4127 30.7132 27.4127 30.5934 27.4275 30.4844 27.3424 30.4696 27.2227 30.4548 27.1029 30.5399 26.9939 30.6597 26.9791ZM30.2599 39.0249C30.2719 38.9049 30.379 38.8173 30.4991 38.8293 30.4992 38.8293 30.4993 38.8294 30.4995 38.8294L31.5859 38.939C31.7727 38.9513 31.8506 39.2051 31.7071 39.3209 31.7071 39.3209 32.6552 39.1607 32.9687 39.0937 33.036 39.0772 33.107 39.0977 33.1551 39.1476 33.2858 39.279 33.6768 39.6741 33.6768 39.6741 33.7624 39.7591 33.7628 39.8974 33.6777 39.983 33.5927 40.0685 33.4543 40.0689 33.3688 39.9839 33.3681 39.9832 33.3674 39.9824 33.3666 39.9817L32.9301 39.5408 31.7552 39.7563C31.6366 39.7785 31.5225 39.7003 31.5003 39.5817 31.4858 39.5039 31.5145 39.4243 31.5753 39.3737 31.5211 39.3784 30.5067 39.2656 30.4554 39.2641 30.3354 39.252 30.2478 39.1449 30.2599 39.0249 30.2599 39.0249 30.2599 39.0249 30.2599 39.0249ZM29.3812 26.2316C29.4195 26.1172 29.5433 26.0555 29.6577 26.0938L30.0154 26.1964C30.1295 26.2356 30.1902 26.3599 30.1509 26.474 30.1121 26.5868 29.9901 26.6476 29.8767 26.6107L29.5191 26.5083C29.4046 26.4701 29.3429 26.3463 29.3812 26.2319 29.3812 26.2318 29.3812 26.2317 29.3812 26.2316ZM28.4915 27.246 29.5758 27.1124C29.6957 27.0991 29.8036 27.1856 29.8169 27.3055 29.8299 27.4234 29.7465 27.5301 29.6289 27.546L28.5447 27.6796C28.4247 27.6929 28.3168 27.6064 28.3035 27.4865 28.2905 27.3686 28.374 27.2618 28.4915 27.246ZM28.276 38.8377 29.1403 38.6994C29.159 38.6966 29.178 38.696 29.1968 38.6979L29.4127 38.7198C29.5327 38.7319 29.6201 38.8391 29.608 38.9592 29.5958 39.0792 29.4886 39.1667 29.3686 39.1545L29.1815 39.1356 28.3448 39.2692C28.2258 39.2889 28.1133 39.2084 28.0936 39.0894 28.0738 38.9704 28.1543 38.8579 28.2733 38.8382 28.2742 38.838 28.2751 38.8379 28.276 38.8377ZM27.6902 33.4151 27.4124 34.4716C27.3816 34.5884 27.262 34.658 27.1453 34.6273 27.0286 34.5965 26.9589 34.4769 26.9897 34.3602L27.2147 33.5046 26.4009 33.4901C26.2803 33.4879 26.1842 33.3884 26.1863 33.2678 26.1884 33.1471 26.2879 33.051 26.4086 33.0531L27.5008 33.0728C27.68 33.0746 27.7557 33.2665 27.6902 33.4151ZM25.8163 27.1185C25.9328 27.0868 26.0528 27.1556 26.0844 27.272 26.0844 27.272 26.0844 27.272 26.0844 27.272L26.1565 27.5317 27.4074 27.3791C27.5271 27.3634 27.6367 27.4477 27.6523 27.5673 27.668 27.687 27.5837 27.7966 27.4641 27.8123 27.4629 27.8125 27.4618 27.8126 27.4607 27.8127L26.2747 27.9574 26.2953 28.0316C26.3259 28.1483 26.256 28.2677 26.1393 28.2982 26.0241 28.3284 25.906 28.2607 25.8737 28.1461L25.6626 27.3864C25.631 27.27 25.6999 27.15 25.8163 27.1185 25.8163 27.1185 25.8163 27.1185 25.8163 27.1185ZM25.6273 33.2559C25.6251 33.3751 25.5279 33.4705 25.4088 33.4705L25.4052 33.4705 25.0901 33.4602C24.9695 33.4591 24.8725 33.3605 24.8736 33.2398 24.8747 33.1192 24.9733 33.0222 25.094 33.0233L25.0979 33.0233 25.4129 33.0336C25.5335 33.0359 25.6294 33.1354 25.6273 33.2559ZM24.3688 27.9476C24.3573 27.8275 24.4453 27.7207 24.5654 27.7092 24.5654 27.7092 24.5654 27.7092 24.5654 27.7092L25.243 27.6279C25.3633 27.6181 25.4686 27.7078 25.4784 27.828 25.4879 27.9456 25.4023 28.0495 25.285 28.0627 25.2591 28.0642 24.6121 28.1464 24.5863 28.145 24.4738 28.1449 24.3797 28.0594 24.3689 27.9475Z" fill="#FFFFFF" fill-rule="nonzero" fill-opacity="1"/></g></g></g></g></g><g clip-path="url(#clip7)"><g clip-path="url(#clip8)"><g clip-path="url(#clip9)"><path d="M73.6426 468.473 72.5839 476.13C72.2443 478.247 73.9013 480.365 76.0382 480.545L82.1403 481.191C82.6148 481.244 83.0711 481.403 83.4743 481.659L89.1197 484.901C92.8428 487.1 97.848 485.446 99.5383 481.476L101.739 476.47C101.898 476.106 102.128 475.778 102.414 475.503L107.641 470.478C109.218 469.026 109.228 466.339 107.664 464.875L102.129 459.463C101.825 459.166 101.587 458.809 101.43 458.415L99.5773 453.758C98.0077 449.636 92.7887 447.822 89.0106 450.119L82.9938 453.634C82.6527 453.856 82.273 454.012 81.8744 454.094L75.6899 455.32 75.2137 455.414C73.1519 455.782 71.6979 457.948 72.1431 459.996L73.6137 467.472C73.6786 467.802 73.6884 468.14 73.6426 468.473ZM76.6741 479.117C76.4428 479.055 76.3045 478.819 76.3648 478.587L76.9162 476.49C76.9773 476.258 77.2146 476.12 77.4463 476.181 77.678 476.242 77.8163 476.479 77.7552 476.711L77.2038 478.807C77.1424 479.039 76.9057 479.177 76.6741 479.117ZM78.0233 462.355C77.7924 462.417 77.5547 462.281 77.4915 462.05L76.9235 459.958C76.8606 459.727 76.997 459.489 77.2281 459.426 77.4591 459.363 77.6974 459.5 77.7603 459.731L78.3283 461.823C78.3911 462.054 78.2546 462.293 78.0233 462.355ZM78.3644 463.611C78.5955 463.548 78.8336 463.685 78.8963 463.916L79.4643 466.008C79.531 466.238 79.3986 466.478 79.1687 466.545 78.9387 466.612 78.6982 466.479 78.6314 466.249 78.63 466.244 78.6287 466.24 78.6275 466.235L78.0595 464.143C77.9969 463.911 78.1334 463.673 78.3644 463.611ZM77.4676 474.393 78.019 472.297C78.0799 472.065 78.317 471.927 78.5487 471.988 78.7804 472.049 78.9189 472.286 78.858 472.517L78.3066 474.614C78.2458 474.846 78.0086 474.984 77.7769 474.923 77.5452 474.862 77.4068 474.625 77.4676 474.393ZM79.1197 480.286 78.0687 480.43C77.8318 480.465 77.6115 480.301 77.5766 480.064 77.5418 479.827 77.7056 479.607 77.9426 479.572L78.9827 479.43C79.2191 479.392 79.4416 479.553 79.4795 479.79 79.5174 480.026 79.3564 480.248 79.12 480.286ZM85.8982 481.309 84.5893 481.545C84.3539 481.589 84.1273 481.434 84.0832 481.199 84.0392 480.963 84.1944 480.737 84.4298 480.693L85.7387 480.457C85.9744 480.414 86.1998 480.571 86.2422 480.806 86.2842 481.04 86.1309 481.264 85.8982 481.309ZM98.7447 481.126C97.3803 484.23 93.8607 485.766 90.6575 484.654 91.4843 484.241 92.2263 483.677 92.8449 482.99L94.2787 484.438C94.4461 484.61 94.7207 484.613 94.8919 484.445 95.0631 484.278 95.0661 484.003 94.8987 483.832 94.8973 483.831 94.8958 483.829 94.8944 483.828L93.3898 482.309C93.6739 481.906 93.9169 481.477 94.1154 481.026L96.3173 476.019C96.3506 475.943 96.3874 475.869 96.4272 475.796L100.922 476.175ZM107.039 469.852 101.813 474.878C101.663 475.022 101.525 475.178 101.401 475.344L97.0682 474.98 102.218 470.028C102.861 469.413 103.273 468.595 103.384 467.712L107.959 467.924C107.899 468.658 107.572 469.344 107.039 469.852ZM101.523 460.083 107.058 465.495C107.492 465.917 107.789 466.46 107.91 467.054L103.398 466.845C103.314 465.926 102.903 465.067 102.241 464.425L97.2041 459.5 101.199 459.724C101.299 459.85 101.408 459.97 101.523 460.083ZM98.7715 454.079C98.8185 454.188 100.614 458.72 100.663 458.825L96.3427 458.583C96.2076 458.391 96.0953 458.184 96.0081 457.965L94.1545 453.308C93.9014 452.673 93.5609 452.075 93.1428 451.534L94.4891 450.223C96.4379 450.774 98.0204 452.198 98.7715 454.079ZM93.4535 450.021 92.5733 450.877C92.285 450.582 91.9723 450.313 91.6389 450.071 92.2383 449.969 92.8493 449.952 93.4535 450.021ZM89.3625 454.001 90.917 452.489C91.0832 452.317 91.3577 452.312 91.5301 452.478 91.7024 452.644 91.7074 452.919 91.5412 453.091 91.5347 453.098 91.5281 453.104 91.5211 453.11L89.9674 454.622C89.7958 454.789 89.5212 454.786 89.3542 454.614 89.1872 454.442 89.1909 454.168 89.3625 454.001ZM85.8548 455.549 86.2927 455.496 86.0528 455.416C85.8257 455.34 85.7032 455.094 85.7793 454.867 85.8553 454.64 86.101 454.517 86.3281 454.593L88.3841 455.281C88.8484 455.444 88.7309 456.121 88.246 456.126 88.233 456.126 85.961 456.41 85.961 456.41 85.7233 456.439 85.5069 456.271 85.4775 456.033 85.4482 455.795 85.6171 455.579 85.8548 455.549ZM85.0613 479.459C85.0852 479.22 85.2977 479.046 85.536 479.07 85.5363 479.07 85.5365 479.07 85.5368 479.07L87.6932 479.288C88.0639 479.313 88.2186 479.816 87.9338 480.046 87.9338 480.046 89.8156 479.728 90.4379 479.595 90.5714 479.562 90.7124 479.603 90.8079 479.702 91.0673 479.963 91.8434 480.747 91.8434 480.747 92.0132 480.916 92.014 481.19 91.8452 481.36 91.6763 481.53 91.4018 481.531 91.232 481.362 91.2305 481.361 91.2292 481.359 91.2277 481.358L90.3613 480.483 88.0292 480.91C87.7939 480.954 87.5674 480.799 87.5234 480.564 87.4945 480.409 87.5515 480.251 87.6722 480.151 87.5646 480.16 85.5512 479.936 85.4494 479.933 85.2111 479.909 85.0374 479.697 85.0613 479.459 85.0613 479.459 85.0613 479.459 85.0613 479.459ZM83.3173 454.066C83.3933 453.839 83.639 453.716 83.8661 453.792L84.576 453.996C84.8025 454.074 84.9229 454.32 84.845 454.547 84.768 454.771 84.5258 454.891 84.3008 454.818L83.5909 454.615C83.3638 454.539 83.2412 454.293 83.3172 454.066 83.3172 454.066 83.3172 454.066 83.3173 454.066ZM81.5513 456.079 83.7034 455.814C83.9415 455.788 84.1557 455.959 84.182 456.197 84.2079 456.431 84.0423 456.643 83.8089 456.675L81.6569 456.94C81.4188 456.966 81.2045 456.794 81.1782 456.557 81.1524 456.322 81.318 456.111 81.5513 456.079ZM81.1235 479.087 82.8391 478.812C82.8762 478.807 82.9138 478.806 82.9511 478.81L83.3797 478.853C83.6179 478.877 83.7915 479.09 83.7674 479.328 83.7432 479.566 83.5305 479.74 83.2922 479.716L82.9208 479.678 81.2601 479.943C81.0239 479.983 80.8006 479.823 80.7615 479.587 80.7223 479.35 80.882 479.127 81.1183 479.088 81.1201 479.088 81.1218 479.087 81.1235 479.087ZM79.9608 468.324 79.4094 470.421C79.3483 470.653 79.111 470.791 78.8793 470.73 78.6476 470.669 78.5093 470.432 78.5704 470.2L79.017 468.502 77.4019 468.473C77.1624 468.469 76.9717 468.271 76.9759 468.032 76.98 467.792 77.1776 467.601 77.417 467.605L79.585 467.645C79.9405 467.648 80.0909 468.029 79.9608 468.324ZM76.2415 455.826C76.4726 455.763 76.7108 455.9 76.7736 456.131 76.7736 456.131 76.7736 456.131 76.7736 456.131L76.9167 456.646 79.3996 456.343C79.637 456.312 79.8547 456.48 79.8857 456.717 79.9168 456.954 79.7495 457.172 79.512 457.203 79.5098 457.204 79.5076 457.204 79.5054 457.204L77.1514 457.491 77.1923 457.638C77.2529 457.87 77.1142 458.107 76.8825 458.168 76.6539 458.228 76.4195 458.093 76.3554 457.866L75.9363 456.358C75.8737 456.127 76.0103 455.889 76.2415 455.826 76.2415 455.826 76.2415 455.826 76.2415 455.826ZM75.8662 468.008C75.862 468.244 75.6691 468.434 75.4326 468.434L75.4254 468.434 74.8001 468.413C74.5606 468.411 74.3682 468.216 74.3703 467.976 74.3724 467.737 74.5683 467.544 74.8077 467.546L74.8156 467.546 75.4409 467.567C75.6801 467.571 75.8705 467.769 75.8662 468.008ZM73.3684 457.472C73.3455 457.233 73.5201 457.021 73.7585 456.999 73.7586 456.999 73.7586 456.999 73.7587 456.999L75.1036 456.837C75.3423 456.818 75.5514 456.996 75.5707 457.234 75.5895 457.468 75.4196 457.674 75.1869 457.7 75.1354 457.703 73.8513 457.866 73.8 457.864 73.5767 457.863 73.39 457.694 73.3686 457.471Z" fill="#FFFFFF" fill-rule="nonzero" fill-opacity="1"/></g></g></g></g></svg>