<svg width="156" height="156" xmlns="http://www.w3.org/2000/svg" xmlns:xlink="http://www.w3.org/1999/xlink" xml:space="preserve" overflow="hidden"><defs><filter id="fx0" x="-10%" y="-10%" width="120%" height="120%" filterUnits="userSpaceOnUse" primitiveUnits="userSpaceOnUse"><feComponentTransfer color-interpolation-filters="sRGB"><feFuncR type="discrete" tableValues="1.000000 1.000000"/><feFuncG type="discrete" tableValues="1.000000 1.000000"/><feFuncB type="discrete" tableValues="1.000000 1.000000"/><feFuncA type="linear" slope="0.400000" intercept="0.000000"/></feComponentTransfer><feGaussianBlur stdDeviation="2.222222 2.222222"/></filter><clipPath id="clip1"><rect x="214" y="262" width="156" height="156"/></clipPath><clipPath id="clip2"><rect x="0.937714" y="0.912079" width="153.099" height="153.125"/></clipPath><clipPath id="clip3"><rect x="0" y="0" width="155" height="155"/></clipPath><clipPath id="clip4"><rect x="7" y="7" width="141" height="141"/></clipPath><clipPath id="clip5"><rect x="7" y="7" width="141" height="141"/></clipPath><clipPath id="clip6"><rect x="7" y="7" width="141" height="141"/></clipPath><clipPath id="clip7"><rect x="224" y="272" width="137" height="137"/></clipPath><clipPath id="clip8"><rect x="224" y="272" width="137" height="137"/></clipPath><clipPath id="clip9"><rect x="224" y="272" width="137" height="137"/></clipPath></defs><g clip-path="url(#clip1)" transform="translate(-214 -262)"><g clip-path="url(#clip2)" filter="url(#fx0)" transform="translate(215 263)"><g clip-path="url(#clip3)"><g clip-path="url(#clip4)"><g clip-path="url(#clip5)"><g clip-path="url(#clip6)"><path d="M77.5 51.6735C63.2544 51.6735 51.6735 63.2544 51.6735 77.5 51.6735 91.7456 63.2544 103.327 77.5 103.327 91.7456 103.327 103.327 91.7456 103.327 77.5 103.327 63.2544 91.7456 51.6735 77.5 51.6735ZM77.5 96.2294C67.1745 96.2294 58.7706 87.8255 58.7706 77.5 58.7706 67.1745 67.1745 58.7706 77.5 58.7706 87.8255 58.7706 96.2294 67.1745 96.2294 77.5 96.2294 87.8255 87.8255 96.2294 77.5 96.2294Z" fill="#FFFFFF" fill-rule="nonzero" fill-opacity="1"/><path d="M77.5 41.0149C57.3615 41.0149 40.9893 57.3871 40.9893 77.5256 40.9893 97.6642 57.3615 114.036 77.5 114.036 97.6386 114.036 114.011 97.6642 114.011 77.5256 114.011 57.3871 97.6386 41.0149 77.5 41.0149ZM77.5 112.345C58.2838 112.345 42.6803 96.7162 42.6803 77.5256 42.6803 58.3351 58.3095 42.7059 77.5 42.7059 96.6906 42.7059 112.32 58.3351 112.32 77.5256 112.32 96.7162 96.6906 112.345 77.5 112.345Z" fill="#FFFFFF" fill-rule="nonzero" fill-opacity="1"/><path d="M146.191 90.3876C146.986 86.1601 147.37 81.83 147.37 77.4744L147.37 77.3207 141.221 77.3207C141.221 69.9416 139.914 62.8445 137.557 56.2341L143.373 54.1844C141.938 50.1106 140.093 46.1648 137.941 42.4241L132.586 45.5243C128.948 39.2983 124.311 33.7384 118.853 29.0753L122.876 24.3609C119.596 21.5425 116.035 19.0316 112.294 16.8794L109.22 22.2343C103.096 18.6985 96.3062 16.162 89.1066 14.804L90.2339 8.73173C86.0576 7.96309 81.7532 7.57876 77.4744 7.57876L77.3719 7.57876 77.3719 13.7792C69.9673 13.7792 62.8701 15.0859 56.2597 17.4174L54.21 11.6013C50.1362 13.0362 46.1905 14.8553 42.4497 17.0331L45.5499 22.388C39.3239 26.0007 33.764 30.6638 29.1009 36.0956L24.4121 32.073C21.5938 35.3525 19.0828 38.9139 16.9306 42.6291L22.2855 45.7293C18.7498 51.8528 16.1876 58.6425 14.8553 65.8166L8.78298 64.6892C8.01433 68.8912 7.60438 73.1956 7.60438 77.5L7.60438 77.5769 13.7792 77.5769C13.7792 84.9815 15.0859 92.0787 17.4174 98.689L11.6013 100.739C13.0362 104.813 14.8553 108.758 17.0331 112.499L22.388 109.399C26.0007 115.625 30.6638 121.185 36.0956 125.874L32.073 130.562C35.3525 133.381 38.9139 135.892 42.6291 138.044L45.7293 132.689C51.8528 136.225 58.6169 138.787 65.8166 140.119L64.6892 146.191C68.8912 146.986 73.2212 147.37 77.5256 147.37L77.5512 147.37 77.5512 141.221C84.9303 141.221 92.0531 139.94 98.6634 137.608L100.713 143.424C104.787 141.989 108.733 140.17 112.473 138.018L109.373 132.663C115.599 129.051 121.185 124.413 125.848 118.981L130.537 123.004C133.355 119.724 135.866 116.163 138.018 112.448L132.663 109.348C136.225 103.224 138.761 96.46 140.119 89.2603L146.191 90.3876ZM77.5 132.023C47.4203 132.023 22.9773 107.554 22.9773 77.5 22.9773 47.4459 47.4459 22.9773 77.5 22.9773 107.554 22.9773 132.023 47.4459 132.023 77.5 132.023 107.554 107.554 132.023 77.5 132.023Z" fill="#FFFFFF" fill-rule="nonzero" fill-opacity="1"/></g></g></g></g></g><g clip-path="url(#clip7)"><g clip-path="url(#clip8)"><g clip-path="url(#clip9)"><path d="M292.5 315.18C278.534 315.18 267.18 326.534 267.18 340.5 267.18 354.466 278.534 365.82 292.5 365.82 306.466 365.82 317.82 354.466 317.82 340.5 317.82 326.534 306.466 315.18 292.5 315.18ZM292.5 358.862C282.377 358.862 274.138 350.623 274.138 340.5 274.138 330.377 282.377 322.138 292.5 322.138 302.623 322.138 310.862 330.377 310.862 340.5 310.862 350.623 302.623 358.862 292.5 358.862Z" fill="#FFFFFF" fill-rule="nonzero" fill-opacity="1"/><path d="M292.5 304.73C272.756 304.73 256.705 320.781 256.705 340.525 256.705 360.269 272.756 376.32 292.5 376.32 312.244 376.32 328.295 360.269 328.295 340.525 328.295 320.781 312.244 304.73 292.5 304.73ZM292.5 374.662C273.661 374.662 258.363 359.339 258.363 340.525 258.363 321.711 273.686 306.388 292.5 306.388 311.314 306.388 326.637 321.711 326.637 340.525 326.637 359.339 311.314 374.662 292.5 374.662Z" fill="#FFFFFF" fill-rule="nonzero" fill-opacity="1"/><path d="M359.845 353.135C360.623 348.99 361 344.745 361 340.475L361 340.324 354.971 340.324C354.971 333.09 353.69 326.132 351.379 319.651L357.081 317.642C355.675 313.648 353.866 309.779 351.756 306.112L346.506 309.151C342.939 303.047 338.393 297.596 333.042 293.025L336.986 288.403C333.771 285.64 330.279 283.178 326.612 281.068L323.598 286.318C317.594 282.851 310.937 280.365 303.879 279.033L304.984 273.08C300.89 272.327 296.67 271.95 292.475 271.95L292.374 271.95 292.374 278.029C285.115 278.029 278.157 279.31 271.676 281.596L269.667 275.893C265.673 277.3 261.804 279.084 258.137 281.219L261.176 286.469C255.072 290.01 249.622 294.582 245.05 299.907L240.453 295.964C237.69 299.179 235.228 302.671 233.118 306.313L238.368 309.352C234.902 315.356 232.39 322.012 231.084 329.046L225.13 327.94C224.377 332.06 223.975 336.28 223.975 340.5L223.975 340.575 230.029 340.575C230.029 347.835 231.31 354.793 233.596 361.274L227.893 363.283C229.3 367.277 231.084 371.145 233.219 374.813L238.469 371.773C242.01 377.877 246.582 383.328 251.907 387.925L247.964 392.522C251.179 395.285 254.671 397.747 258.313 399.857L261.352 394.607C267.356 398.073 273.987 400.585 281.046 401.891L279.94 407.845C284.06 408.623 288.305 409 292.525 409L292.55 409 292.55 402.971C299.785 402.971 306.768 401.715 313.248 399.43L315.258 405.132C319.252 403.725 323.12 401.941 326.788 399.831L323.748 394.582C329.852 391.04 335.328 386.493 339.9 381.168L344.497 385.112C347.26 381.896 349.721 378.405 351.831 374.763L346.582 371.723C350.073 365.72 352.56 359.088 353.891 352.03L359.845 353.135ZM292.5 393.954C263.01 393.954 239.046 369.965 239.046 340.5 239.046 311.035 263.035 287.046 292.5 287.046 321.965 287.046 345.954 311.035 345.954 340.5 345.954 369.965 321.965 393.954 292.5 393.954Z" fill="#FFFFFF" fill-rule="nonzero" fill-opacity="1"/></g></g></g></g></svg>