<svg width="51" height="52" xmlns="http://www.w3.org/2000/svg" xmlns:xlink="http://www.w3.org/1999/xlink" xml:space="preserve" overflow="hidden"><defs><filter id="fx0" x="-10%" y="-10%" width="120%" height="120%" filterUnits="userSpaceOnUse" primitiveUnits="userSpaceOnUse"><feComponentTransfer color-interpolation-filters="sRGB"><feFuncR type="discrete" tableValues="1.000000 1.000000"/><feFuncG type="discrete" tableValues="1.000000 1.000000"/><feFuncB type="discrete" tableValues="1.000000 1.000000"/><feFuncA type="linear" slope="1.000000" intercept="0.000000"/></feComponentTransfer><feGaussianBlur stdDeviation="3.302712 3.302712"/></filter><clipPath id="clip1"><rect x="557" y="316" width="51" height="52"/></clipPath><clipPath id="clip2"><rect x="0.81189" y="0.827087" width="48.3762" height="48.3192"/></clipPath><clipPath id="clip3"><rect x="0" y="0" width="50" height="50"/></clipPath><clipPath id="clip4"><rect x="10" y="10" width="30" height="30"/></clipPath><clipPath id="clip5"><rect x="10" y="10" width="30" height="30"/></clipPath><clipPath id="clip6"><rect x="10" y="10" width="30" height="30"/></clipPath><clipPath id="clip7"><rect x="569" y="328" width="28" height="28"/></clipPath><clipPath id="clip8"><rect x="569" y="328" width="28" height="28"/></clipPath><clipPath id="clip9"><rect x="569" y="328" width="28" height="28"/></clipPath></defs><g clip-path="url(#clip1)" transform="translate(-557 -316)"><g clip-path="url(#clip2)" filter="url(#fx0)" transform="translate(558 317)"><g clip-path="url(#clip3)"><g clip-path="url(#clip4)"><g clip-path="url(#clip5)"><g clip-path="url(#clip6)"><path d="M25.0019 22.1098C23.3846 22.1098 22.0717 23.4226 22.0717 25.04 22.0717 26.6573 23.3846 27.9702 25.0019 27.9702 26.6192 27.9702 27.9321 26.6573 27.9321 25.04 27.9321 23.4226 26.6192 22.1098 25.0019 22.1098Z" fill="#FFFFFF" fill-rule="nonzero" fill-opacity="1"/><path d="M25.0019 15.0011C30.5388 15.0011 35.0407 19.503 35.0407 25.04 35.0407 30.5769 30.5388 35.0788 25.0019 35.0788 19.4649 35.0788 14.9631 30.5769 14.9631 25.04 14.9631 19.503 19.4649 15.0011 25.0019 15.0011M25.0019 14.5864C19.229 14.5864 14.5483 19.2671 14.5483 25.0362 14.5483 30.8052 19.229 35.4898 25.0019 35.4898 30.7748 35.4898 35.4517 30.809 35.4517 25.0362 35.4517 19.2633 30.771 14.5864 25.0019 14.5864Z" fill="#FFFFFF" fill-rule="nonzero" fill-opacity="1"/><path d="M38.9717 28.0044C39.1772 27.034 39.28 26.037 39.28 25.0362L39.28 25.0019 37.598 25.0095C37.598 24.1114 37.499 23.2362 37.3164 22.3914L38.9641 22.0374C38.7548 21.0632 38.4428 20.1081 38.0356 19.1986L36.4944 19.8912C36.1329 19.0844 35.6876 18.3233 35.1701 17.6155L36.5362 16.6185C35.9502 15.8155 35.2766 15.0696 34.5346 14.4075L33.4043 15.6671C32.7536 15.0811 32.0382 14.5635 31.2733 14.1221L32.1181 12.657C31.2542 12.1585 30.3371 11.7513 29.3896 11.4468L28.872 13.0528C28.0462 12.7864 27.1862 12.5999 26.2957 12.5086L26.467 10.8342C25.4814 10.7352 24.4691 10.7352 23.4835 10.838L23.6585 12.5124C22.7719 12.6075 21.908 12.794 21.0861 13.0642L20.5609 11.4583C19.6133 11.7665 18.6962 12.1775 17.8362 12.6798L18.6848 14.1411C17.9237 14.5864 17.2083 15.1039 16.5576 15.6899L15.4235 14.4379C14.6853 15.1039 14.0155 15.8536 13.4295 16.6565L14.7994 17.6497C14.2857 18.3576 13.8443 19.1225 13.4827 19.9292L11.9377 19.2442C11.5343 20.1537 11.2223 21.1127 11.0206 22.0869L12.6684 22.4332C12.4895 23.2742 12.3944 24.1457 12.3944 25.0362L12.3944 25.0514 10.72 25.0514C10.72 26.0522 10.8265 27.0492 11.032 28.0196L12.6798 27.6695C12.8663 28.541 13.1441 29.3744 13.498 30.1697L11.9567 30.8585C12.3639 31.768 12.8663 32.6357 13.4523 33.4386L14.8185 32.4416C15.336 33.1532 15.9296 33.8077 16.5804 34.3976L15.4502 35.6534C16.1922 36.3194 17.0028 36.9092 17.8628 37.4077L18.7076 35.9426C19.4649 36.3802 20.2679 36.7418 21.1089 37.0158L20.5875 38.6217C21.5351 38.9299 22.5169 39.1354 23.5101 39.2381L23.6814 37.5637C24.1114 37.6094 24.549 37.6322 24.9905 37.6322 25.4319 37.6322 25.8771 37.6094 26.3148 37.5637L26.4898 39.2381C27.483 39.1354 28.4648 38.9261 29.4086 38.6179L28.8873 37.0119C29.7321 36.738 30.535 36.3764 31.2885 35.9388L32.1371 37.4039C32.9972 36.9054 33.8077 36.3155 34.5498 35.6458L33.4196 34.39C34.0741 33.8001 34.6601 33.1456 35.1815 32.434L36.5476 33.4272C37.1337 32.6204 37.636 31.7528 38.0432 30.8433L36.4982 30.1545C36.8521 29.3592 37.1299 28.522 37.3125 27.6543L38.9603 28.0044ZM25.0019 36.6086C18.6201 36.6086 13.4295 31.4179 13.4295 25.0362 13.4295 18.6544 18.6201 13.4675 25.0019 13.4675 31.3836 13.4675 36.5743 18.6582 36.5743 25.04 36.5743 31.4217 31.3836 36.6124 25.0019 36.6124Z" fill="#FFFFFF" fill-rule="nonzero" fill-opacity="1"/></g></g></g></g></g><g clip-path="url(#clip7)"><g clip-path="url(#clip8)"><g clip-path="url(#clip9)"><path d="M583.002 339.166C581.416 339.166 580.129 340.454 580.129 342.039 580.129 343.625 581.416 344.912 583.002 344.912 584.587 344.912 585.875 343.625 585.875 342.039 585.875 340.454 584.587 339.166 583.002 339.166Z" fill="#FFFFFF" fill-rule="nonzero" fill-opacity="1"/><path d="M583.002 332.197C588.43 332.197 592.844 336.611 592.844 342.039 592.844 347.468 588.43 351.881 583.002 351.881 577.573 351.881 573.16 347.468 573.16 342.039 573.16 336.611 577.573 332.197 583.002 332.197M583.002 331.791C577.342 331.791 572.753 336.379 572.753 342.035 572.753 347.691 577.342 352.284 583.002 352.284 588.662 352.284 593.247 347.695 593.247 342.035 593.247 336.376 588.658 331.791 583.002 331.791Z" fill="#FFFFFF" fill-rule="nonzero" fill-opacity="1"/><path d="M596.698 344.946C596.899 343.994 597 343.017 597 342.035L597 342.002 595.351 342.009C595.351 341.129 595.254 340.271 595.075 339.443L596.69 339.096C596.485 338.14 596.179 337.204 595.78 336.312L594.269 336.991C593.915 336.2 593.478 335.454 592.971 334.76L594.31 333.783C593.736 332.996 593.075 332.264 592.348 331.615L591.24 332.85C590.602 332.276 589.9 331.768 589.15 331.335L589.979 329.899C589.132 329.41 588.232 329.011 587.304 328.713L586.796 330.287C585.987 330.026 585.143 329.843 584.27 329.754L584.438 328.112C583.472 328.015 582.48 328.015 581.513 328.116L581.685 329.757C580.816 329.851 579.969 330.033 579.163 330.298L578.648 328.724C577.719 329.026 576.82 329.429 575.977 329.921L576.809 331.354C576.062 331.791 575.361 332.298 574.723 332.872L573.611 331.645C572.888 332.298 572.231 333.033 571.656 333.82L572.999 334.794C572.496 335.488 572.063 336.238 571.709 337.029L570.194 336.357C569.798 337.249 569.492 338.189 569.295 339.144L570.91 339.484C570.735 340.308 570.642 341.162 570.642 342.035L570.642 342.05 569 342.05C569 343.032 569.104 344.009 569.306 344.96L570.921 344.617C571.104 345.472 571.377 346.289 571.724 347.068L570.213 347.744C570.612 348.635 571.104 349.486 571.679 350.273L573.018 349.296C573.526 349.993 574.108 350.635 574.745 351.213L573.637 352.445C574.365 353.097 575.16 353.676 576.003 354.164L576.831 352.728C577.573 353.157 578.361 353.512 579.185 353.78L578.674 355.355C579.603 355.657 580.566 355.858 581.539 355.959L581.707 354.317C582.129 354.362 582.558 354.385 582.991 354.385 583.423 354.385 583.86 354.362 584.289 354.317L584.461 355.959C585.434 355.858 586.397 355.653 587.322 355.351L586.811 353.776C587.639 353.508 588.427 353.153 589.165 352.724L589.997 354.161C590.84 353.672 591.635 353.094 592.363 352.437L591.255 351.206C591.896 350.628 592.471 349.986 592.982 349.288L594.321 350.262C594.896 349.471 595.388 348.62 595.787 347.729L594.273 347.053C594.62 346.274 594.892 345.453 595.071 344.602L596.687 344.946ZM583.002 353.381C576.745 353.381 571.656 348.292 571.656 342.035 571.656 335.779 576.745 330.694 583.002 330.694 589.258 330.694 594.347 335.783 594.347 342.039 594.347 348.296 589.258 353.385 583.002 353.385Z" fill="#FFFFFF" fill-rule="nonzero" fill-opacity="1"/></g></g></g></g></svg>