<svg width="569" height="568" xmlns="http://www.w3.org/2000/svg" xmlns:xlink="http://www.w3.org/1999/xlink" xml:space="preserve" overflow="hidden"><defs><filter id="fx0" x="-10%" y="-10%" width="120%" height="120%" filterUnits="userSpaceOnUse" primitiveUnits="userSpaceOnUse"><feComponentTransfer color-interpolation-filters="sRGB"><feFuncR type="discrete" tableValues="0.749020 0.749020"/><feFuncG type="discrete" tableValues="0.749020 0.749020"/><feFuncB type="discrete" tableValues="0.749020 0.749020"/><feFuncA type="linear" slope="0.400000" intercept="0.000000"/></feComponentTransfer><feGaussianBlur stdDeviation="6.111111 6.111111"/></filter><filter id="fx1" x="-10%" y="-10%" width="120%" height="120%" filterUnits="userSpaceOnUse" primitiveUnits="userSpaceOnUse"><feComponentTransfer color-interpolation-filters="sRGB"><feFuncR type="discrete" tableValues="1.000000 1.000000"/><feFuncG type="discrete" tableValues="1.000000 1.000000"/><feFuncB type="discrete" tableValues="1.000000 1.000000"/><feFuncA type="linear" slope="1.000000" intercept="0.000000"/></feComponentTransfer><feGaussianBlur stdDeviation="15.083003 15.083003"/></filter><clipPath id="clip2"><rect x="22" y="371" width="569" height="568"/></clipPath><clipPath id="clip3"><rect x="1.6666" y="7.64722" width="147.667" height="135.206"/></clipPath><clipPath id="clip4"><rect x="0" y="0" width="151" height="151"/></clipPath><clipPath id="clip5"><rect x="19" y="19" width="112" height="111"/></clipPath><clipPath id="clip6"><rect x="19" y="19" width="112" height="111"/></clipPath><clipPath id="clip7"><rect x="19" y="19" width="112" height="111"/></clipPath><clipPath id="clip8"><rect x="20" y="20" width="111" height="111"/></clipPath><clipPath id="clip9"><rect x="20" y="20" width="111" height="111"/></clipPath><clipPath id="clip10"><rect x="20" y="20" width="111" height="111"/></clipPath><clipPath id="clip11"><rect x="250" y="585" width="112" height="111"/></clipPath><clipPath id="clip12"><rect x="250" y="585" width="112" height="111"/></clipPath><clipPath id="clip13"><rect x="250" y="585" width="112" height="111"/></clipPath><clipPath id="clip14"><rect x="0.27042" y="1.46443" width="112.459" height="109.971"/></clipPath><clipPath id="clip15"><rect x="0" y="0" width="113" height="113"/></clipPath><clipPath id="clip16"><rect x="45" y="45" width="23" height="23"/></clipPath><clipPath id="clip17"><rect x="45" y="45" width="23" height="23"/></clipPath><clipPath id="clip18"><rect x="45" y="45" width="23" height="23"/></clipPath><clipPath id="clip19"><rect x="251" y="586" width="111" height="111"/></clipPath><clipPath id="clip20"><rect x="251" y="586" width="111" height="111"/></clipPath><clipPath id="clip21"><rect x="251" y="586" width="111" height="111"/></clipPath></defs><g clip-path="url(#clip2)" transform="translate(-22 -371)"><g clip-path="url(#clip3)" filter="url(#fx0)" transform="translate(231 579)"><g clip-path="url(#clip4)"><g clip-path="url(#clip5)"><g clip-path="url(#clip6)"><g clip-path="url(#clip7)"><path d="M106.133 82.5 84.0039 82.5 82.0703 79.707 89.1602 78.8477C91.5234 78.418 93.0273 76.4844 93.0273 74.3359L93.0273 62.9492C93.0273 60.5859 91.3086 58.6523 89.1602 58.4375L82.0703 57.3633 86.3672 51.5625C87.8711 49.8438 87.4414 47.2656 85.9375 45.7617L77.9883 37.8125C76.4844 36.0938 73.9062 35.8789 71.9727 37.168L66.1719 41.4648 65.0977 34.375C64.8828 32.2266 62.9492 30.5078 60.5859 30.5078L49.4141 30.5078C47.0508 30.5078 45.1172 32.2266 44.9023 34.375L43.8281 41.4648 38.0273 37.168C36.0938 35.8789 33.5156 36.0938 32.0117 37.8125L24.0625 45.7617C22.3438 47.2656 22.1289 49.8438 23.418 51.7773L27.9297 57.5781 20.8398 58.4375C18.4766 58.8672 16.7578 60.5859 16.7578 62.9492L16.7578 74.3359C16.7578 76.6992 18.4766 78.418 20.625 78.8477L27.9297 79.9219 25.7812 82.5 3.65234 82.5C1.71875 82.5 0 80.7812 0 78.8477L0 29.6484 110 29.6484 110 78.6328C110 80.7812 108.281 82.5 106.133 82.5ZM12.4609 22.9883C8.80859 22.9883 5.80078 19.9805 5.80078 16.3281 5.80078 12.6758 8.80859 9.66797 12.4609 9.66797 16.1133 9.66797 19.1211 12.6758 19.1211 16.3281 19.1211 19.9805 15.8984 22.9883 12.4609 22.9883ZM12.4609 12.8906C10.5273 12.8906 9.02344 14.3945 9.02344 16.3281 9.02344 18.2617 10.5273 19.9805 12.4609 19.9805 14.3945 19.9805 15.8984 18.2617 15.8984 16.3281 15.8984 14.3945 14.3945 12.8906 12.4609 12.8906ZM30.7227 22.9883C27.0703 22.9883 24.2773 19.9805 24.2773 16.3281 24.2773 12.6758 27.0703 9.66797 30.7227 9.66797 34.5898 9.66797 37.3828 12.6758 37.3828 16.3281 37.3828 19.9805 34.5898 22.9883 30.7227 22.9883ZM30.7227 12.8906C29.0039 12.8906 27.2852 14.3945 27.2852 16.3281 27.2852 18.2617 28.7891 19.9805 30.7227 19.9805 32.8711 19.9805 34.375 18.2617 34.375 16.3281 34.375 14.3945 32.8711 12.8906 30.7227 12.8906ZM49.4141 22.9883C45.7617 22.9883 42.7539 19.9805 42.7539 16.3281 42.7539 12.6758 45.7617 9.66797 49.4141 9.66797 53.0664 9.66797 55.8594 12.4609 55.8594 16.3281 55.8594 19.9805 53.0664 22.9883 49.4141 22.9883ZM49.4141 12.8906C47.4805 12.8906 45.9766 14.3945 45.9766 16.3281 45.9766 18.2617 47.4805 19.9805 49.4141 19.9805 51.3477 19.9805 52.8516 18.2617 52.8516 16.3281 52.8516 14.3945 51.3477 12.8906 49.4141 12.8906ZM0 26.4258 0 10.0977C0 7.94922 1.71875 6.23047 3.65234 6.23047L106.133 6.23047C108.281 6.23047 110 7.94922 110 10.0977L110 26.4258 0 26.4258Z" fill="#BFBFBF" fill-rule="evenodd" fill-opacity="1" transform="matrix(1.00909 0 0 1 19.9999 19.7501)"/><path d="M60.5859 103.77 49.4141 103.77C48.5547 103.77 47.9102 103.34 47.9102 102.48L46.1914 92.168C45.7617 91.9531 45.1172 91.7383 44.4727 91.5234L36.0938 97.7539C35.6641 98.1836 34.5898 98.1836 34.1602 97.5391L25.9961 89.5898C25.5664 88.9453 25.5664 88.0859 25.9961 87.4414L32.2266 79.2773C31.7969 78.6328 31.582 77.9883 31.3672 77.3438L21.2695 75.8398C20.4102 75.8398 19.7656 74.9805 19.7656 74.3359L19.7656 62.9492C19.7656 62.0898 20.4102 61.6602 21.2695 61.4453L31.3672 60.1562C31.7969 59.5117 31.7969 58.8672 32.2266 58.2227L25.9961 49.8438C25.5664 49.1992 25.5664 48.3398 25.9961 47.9102L34.1602 39.7461C34.5898 39.3164 35.6641 39.3164 36.0938 39.7461L44.4727 45.7617C45.1172 45.5469 45.7617 45.332 46.1914 45.1172L47.9102 34.8047C47.9102 33.9453 48.5547 33.5156 49.4141 33.5156L60.5859 33.5156C61.4453 33.5156 62.0898 33.9453 62.0898 34.8047L63.5938 45.1172C64.2383 45.332 64.8828 45.5469 65.3125 45.7617L73.9062 39.7461C74.3359 39.3164 75.4102 39.3164 75.8398 39.7461L83.7891 47.9102C84.4336 48.3398 84.4336 49.1992 84.0039 49.8438L77.7734 58.2227C77.9883 58.8672 78.2031 59.2969 78.418 59.9414L88.7305 61.4453C89.5898 61.4453 90.0195 62.0898 90.0195 62.9492L90.0195 74.3359C90.0195 74.9805 89.5898 75.625 88.7305 75.8398L78.418 77.1289C78.2031 77.7734 77.9883 78.418 77.7734 79.0625L84.0039 87.2266C84.4336 87.8711 84.2188 88.7305 83.7891 89.375L75.8398 97.3242C75.1953 97.9688 74.3359 97.9688 73.6914 97.5391L65.3125 91.3086C64.8828 91.5234 64.2383 91.9531 63.5938 91.9531L62.0898 102.266C62.0898 103.34 61.4453 103.77 60.5859 103.77ZM55 82.9297C47.0508 82.9297 40.8203 76.4844 40.8203 68.75 40.8203 60.8008 47.0508 54.5703 55 54.5703 62.7344 54.5703 69.1797 60.8008 69.1797 68.75 69.1797 76.4844 62.7344 82.9297 55 82.9297ZM55 57.5781C48.7695 57.5781 43.8281 62.5195 43.8281 68.5352 43.8281 74.7656 48.9844 79.707 55 79.707 61.0156 79.707 66.1719 74.7656 66.1719 68.75 66.1719 62.7344 61.0156 57.5781 55 57.5781Z" fill="#BFBFBF" fill-rule="evenodd" fill-opacity="1" transform="matrix(1.00909 0 0 1 19.9999 19.7501)"/></g></g></g><g clip-path="url(#clip8)"><g clip-path="url(#clip9)"><g clip-path="url(#clip10)"><path d="M127.133 103.25 105.004 103.25 103.07 100.457 110.16 99.5978C112.523 99.1681 114.027 97.2345 114.027 95.0861L114.027 83.6993C114.027 81.3361 112.309 79.4025 110.16 79.1876L103.07 78.1134 107.367 72.3126C108.871 70.5939 108.441 68.0157 106.937 66.5118L98.9883 58.5626C97.4843 56.8439 94.9062 56.629 92.9726 57.9181L87.1718 62.215 86.0976 55.1251C85.8828 52.9767 83.9492 51.2579 81.5859 51.2579L70.414 51.2579C68.0508 51.2579 66.1172 52.9767 65.9023 55.1251L64.8281 62.215 59.0273 57.9181C57.0937 56.629 54.5156 56.8439 53.0117 58.5626L45.0625 66.5118C43.3437 68.0157 43.1289 70.5939 44.4179 72.5275L48.9297 78.3282 41.8398 79.1876C39.4765 79.6173 37.7578 81.3361 37.7578 83.6993L37.7578 95.0861C37.7578 97.4493 39.4765 99.1681 41.625 99.5978L48.9297 100.672 46.7812 103.25 24.6523 103.25C22.7187 103.25 21 101.531 21 99.5978L21 50.3986 131 50.3986 131 99.3829C131 101.531 129.281 103.25 127.133 103.25ZM33.4609 43.7384C29.8086 43.7384 26.8008 40.7306 26.8008 37.0782 26.8008 33.4259 29.8086 30.4181 33.4609 30.4181 37.1133 30.4181 40.1211 33.4259 40.1211 37.0782 40.1211 40.7306 36.8984 43.7384 33.4609 43.7384ZM33.4609 33.6407C31.5273 33.6407 30.0234 35.1447 30.0234 37.0782 30.0234 39.0118 31.5273 40.7306 33.4609 40.7306 35.3945 40.7306 36.8984 39.0118 36.8984 37.0782 36.8984 35.1447 35.3945 33.6407 33.4609 33.6407ZM51.7226 43.7384C48.0703 43.7384 45.2773 40.7306 45.2773 37.0782 45.2773 33.4259 48.0703 30.4181 51.7226 30.4181 55.5898 30.4181 58.3828 33.4259 58.3828 37.0782 58.3828 40.7306 55.5898 43.7384 51.7226 43.7384ZM51.7226 33.6407C50.0039 33.6407 48.2851 35.1447 48.2851 37.0782 48.2851 39.0118 49.789 40.7306 51.7226 40.7306 53.8711 40.7306 55.375 39.0118 55.375 37.0782 55.375 35.1447 53.8711 33.6407 51.7226 33.6407ZM70.414 43.7384C66.7617 43.7384 63.7539 40.7306 63.7539 37.0782 63.7539 33.4259 66.7617 30.4181 70.414 30.4181 74.0664 30.4181 76.8593 33.2111 76.8593 37.0782 76.8593 40.7306 74.0664 43.7384 70.414 43.7384ZM70.414 33.6407C68.4804 33.6407 66.9765 35.1447 66.9765 37.0782 66.9765 39.0118 68.4804 40.7306 70.414 40.7306 72.3476 40.7306 73.8515 39.0118 73.8515 37.0782 73.8515 35.1447 72.3476 33.6407 70.414 33.6407ZM21 47.1759 21 30.8478C21 28.6993 22.7187 26.9806 24.6523 26.9806L127.133 26.9806C129.281 26.9806 131 28.6993 131 30.8478L131 47.1759 21 47.1759Z" fill="#F2F2F2" fill-rule="evenodd" fill-opacity="1"/><path d="M81.5859 124.52 70.414 124.52C69.5547 124.52 68.9101 124.09 68.9101 123.231L67.1914 112.918C66.7617 112.703 66.1172 112.488 65.4726 112.274L57.0937 118.504C56.664 118.934 55.5898 118.934 55.1601 118.289L46.9961 110.34C46.5664 109.695 46.5664 108.836 46.9961 108.192L53.2265 100.027C52.7968 99.3829 52.582 98.7384 52.3672 98.0939L42.2695 96.59C41.4101 96.59 40.7656 95.7306 40.7656 95.0861L40.7656 83.6993C40.7656 82.84 41.4101 82.4103 42.2695 82.1954L52.3672 80.9064C52.7968 80.2618 52.7968 79.6173 53.2265 78.9728L46.9961 70.5939C46.5664 69.9493 46.5664 69.09 46.9961 68.6603L55.1601 60.4962C55.5898 60.0665 56.664 60.0665 57.0937 60.4962L65.4726 66.5118C66.1172 66.297 66.7617 66.0822 67.1914 65.8673L68.9101 55.5548C68.9101 54.6954 69.5547 54.2657 70.414 54.2657L81.5859 54.2657C82.4453 54.2657 83.0898 54.6954 83.0898 55.5548L84.5937 65.8673C85.2383 66.0822 85.8828 66.297 86.3125 66.5118L94.9062 60.4962C95.3359 60.0665 96.4101 60.0665 96.8398 60.4962L104.789 68.6603C105.434 69.09 105.434 69.9493 105.004 70.5939L98.7734 78.9728C98.9883 79.6173 99.2031 80.047 99.4179 80.6915L109.73 82.1954C110.59 82.1954 111.02 82.84 111.02 83.6993L111.02 95.0861C111.02 95.7306 110.59 96.3751 109.73 96.59L99.4179 97.879C99.2031 98.5236 98.9883 99.1681 98.7734 99.8126L105.004 107.977C105.434 108.621 105.219 109.481 104.789 110.125L96.8398 118.074C96.1953 118.719 95.3359 118.719 94.6914 118.289L86.3125 112.059C85.8828 112.274 85.2383 112.703 84.5937 112.703L83.0898 123.016C83.0898 124.09 82.4453 124.52 81.5859 124.52ZM76 103.68C68.0508 103.68 61.8203 97.2345 61.8203 89.5001 61.8203 81.5509 68.0508 75.3204 76 75.3204 83.7343 75.3204 90.1797 81.5509 90.1797 89.5001 90.1797 97.2345 83.7343 103.68 76 103.68ZM76 78.3282C69.7695 78.3282 64.8281 83.2697 64.8281 89.2853 64.8281 95.5157 69.9843 100.457 76 100.457 82.0156 100.457 87.1718 95.5157 87.1718 89.5001 87.1718 83.4845 82.0156 78.3282 76 78.3282Z" fill="#F2F2F2" fill-rule="evenodd" fill-opacity="1"/></g></g></g></g></g><g clip-path="url(#clip11)"><g clip-path="url(#clip12)"><g clip-path="url(#clip13)"><path d="M106.133 82.5 84.0039 82.5 82.0703 79.707 89.1602 78.8477C91.5234 78.418 93.0273 76.4844 93.0273 74.3359L93.0273 62.9492C93.0273 60.5859 91.3086 58.6523 89.1602 58.4375L82.0703 57.3633 86.3672 51.5625C87.8711 49.8438 87.4414 47.2656 85.9375 45.7617L77.9883 37.8125C76.4844 36.0938 73.9062 35.8789 71.9727 37.168L66.1719 41.4648 65.0977 34.375C64.8828 32.2266 62.9492 30.5078 60.5859 30.5078L49.4141 30.5078C47.0508 30.5078 45.1172 32.2266 44.9023 34.375L43.8281 41.4648 38.0273 37.168C36.0938 35.8789 33.5156 36.0938 32.0117 37.8125L24.0625 45.7617C22.3438 47.2656 22.1289 49.8438 23.418 51.7773L27.9297 57.5781 20.8398 58.4375C18.4766 58.8672 16.7578 60.5859 16.7578 62.9492L16.7578 74.3359C16.7578 76.6992 18.4766 78.418 20.625 78.8477L27.9297 79.9219 25.7812 82.5 3.65234 82.5C1.71875 82.5 0 80.7812 0 78.8477L0 29.6484 110 29.6484 110 78.6328C110 80.7812 108.281 82.5 106.133 82.5ZM12.4609 22.9883C8.80859 22.9883 5.80078 19.9805 5.80078 16.3281 5.80078 12.6758 8.80859 9.66797 12.4609 9.66797 16.1133 9.66797 19.1211 12.6758 19.1211 16.3281 19.1211 19.9805 15.8984 22.9883 12.4609 22.9883ZM12.4609 12.8906C10.5273 12.8906 9.02344 14.3945 9.02344 16.3281 9.02344 18.2617 10.5273 19.9805 12.4609 19.9805 14.3945 19.9805 15.8984 18.2617 15.8984 16.3281 15.8984 14.3945 14.3945 12.8906 12.4609 12.8906ZM30.7227 22.9883C27.0703 22.9883 24.2773 19.9805 24.2773 16.3281 24.2773 12.6758 27.0703 9.66797 30.7227 9.66797 34.5898 9.66797 37.3828 12.6758 37.3828 16.3281 37.3828 19.9805 34.5898 22.9883 30.7227 22.9883ZM30.7227 12.8906C29.0039 12.8906 27.2852 14.3945 27.2852 16.3281 27.2852 18.2617 28.7891 19.9805 30.7227 19.9805 32.8711 19.9805 34.375 18.2617 34.375 16.3281 34.375 14.3945 32.8711 12.8906 30.7227 12.8906ZM49.4141 22.9883C45.7617 22.9883 42.7539 19.9805 42.7539 16.3281 42.7539 12.6758 45.7617 9.66797 49.4141 9.66797 53.0664 9.66797 55.8594 12.4609 55.8594 16.3281 55.8594 19.9805 53.0664 22.9883 49.4141 22.9883ZM49.4141 12.8906C47.4805 12.8906 45.9766 14.3945 45.9766 16.3281 45.9766 18.2617 47.4805 19.9805 49.4141 19.9805 51.3477 19.9805 52.8516 18.2617 52.8516 16.3281 52.8516 14.3945 51.3477 12.8906 49.4141 12.8906ZM0 26.4258 0 10.0977C0 7.94922 1.71875 6.23047 3.65234 6.23047L106.133 6.23047C108.281 6.23047 110 7.94922 110 10.0977L110 26.4258 0 26.4258Z" fill="#BFBFBF" fill-rule="evenodd" fill-opacity="1" transform="matrix(1.00909 0 0 1 251 585)"/><path d="M60.5859 103.77 49.4141 103.77C48.5547 103.77 47.9102 103.34 47.9102 102.48L46.1914 92.168C45.7617 91.9531 45.1172 91.7383 44.4727 91.5234L36.0938 97.7539C35.6641 98.1836 34.5898 98.1836 34.1602 97.5391L25.9961 89.5898C25.5664 88.9453 25.5664 88.0859 25.9961 87.4414L32.2266 79.2773C31.7969 78.6328 31.582 77.9883 31.3672 77.3438L21.2695 75.8398C20.4102 75.8398 19.7656 74.9805 19.7656 74.3359L19.7656 62.9492C19.7656 62.0898 20.4102 61.6602 21.2695 61.4453L31.3672 60.1562C31.7969 59.5117 31.7969 58.8672 32.2266 58.2227L25.9961 49.8438C25.5664 49.1992 25.5664 48.3398 25.9961 47.9102L34.1602 39.7461C34.5898 39.3164 35.6641 39.3164 36.0938 39.7461L44.4727 45.7617C45.1172 45.5469 45.7617 45.332 46.1914 45.1172L47.9102 34.8047C47.9102 33.9453 48.5547 33.5156 49.4141 33.5156L60.5859 33.5156C61.4453 33.5156 62.0898 33.9453 62.0898 34.8047L63.5938 45.1172C64.2383 45.332 64.8828 45.5469 65.3125 45.7617L73.9062 39.7461C74.3359 39.3164 75.4102 39.3164 75.8398 39.7461L83.7891 47.9102C84.4336 48.3398 84.4336 49.1992 84.0039 49.8438L77.7734 58.2227C77.9883 58.8672 78.2031 59.2969 78.418 59.9414L88.7305 61.4453C89.5898 61.4453 90.0195 62.0898 90.0195 62.9492L90.0195 74.3359C90.0195 74.9805 89.5898 75.625 88.7305 75.8398L78.418 77.1289C78.2031 77.7734 77.9883 78.418 77.7734 79.0625L84.0039 87.2266C84.4336 87.8711 84.2188 88.7305 83.7891 89.375L75.8398 97.3242C75.1953 97.9688 74.3359 97.9688 73.6914 97.5391L65.3125 91.3086C64.8828 91.5234 64.2383 91.9531 63.5938 91.9531L62.0898 102.266C62.0898 103.34 61.4453 103.77 60.5859 103.77ZM55 82.9297C47.0508 82.9297 40.8203 76.4844 40.8203 68.75 40.8203 60.8008 47.0508 54.5703 55 54.5703 62.7344 54.5703 69.1797 60.8008 69.1797 68.75 69.1797 76.4844 62.7344 82.9297 55 82.9297ZM55 57.5781C48.7695 57.5781 43.8281 62.5195 43.8281 68.5352 43.8281 74.7656 48.9844 79.707 55 79.707 61.0156 79.707 66.1719 74.7656 66.1719 68.75 66.1719 62.7344 61.0156 57.5781 55 57.5781Z" fill="#BFBFBF" fill-rule="evenodd" fill-opacity="1" transform="matrix(1.00909 0 0 1 251 585)"/></g></g></g><g clip-path="url(#clip14)" filter="url(#fx1)" transform="matrix(5.00885 0 0 5.00885 24 372)"><g clip-path="url(#clip15)"><g clip-path="url(#clip16)" transform="matrix(1 0 0 1 1.19209e-07 1.84774e-06)"><g clip-path="url(#clip17)" transform="matrix(1 0 0 1 1.19209e-07 1.84774e-06)"><g clip-path="url(#clip18)" transform="matrix(1 0 0 1 1.19209e-07 1.84774e-06)"><path d="M66.7085 61.9404 62.2905 61.9404 61.9045 61.3828 63.32 61.2112C63.7918 61.1254 64.092 60.7394 64.092 60.3105L64.092 58.0371C64.092 57.5653 63.7489 57.1793 63.32 57.1364L61.9045 56.9219 62.7623 55.7638C63.0626 55.4207 62.9768 54.906 62.6766 54.6057L61.0895 53.0187C60.7893 52.6755 60.2746 52.6326 59.8885 52.89L58.7304 53.7479 58.516 52.3324C58.4731 51.9035 58.087 51.5603 57.6152 51.5603L55.3848 51.5603C54.913 51.5603 54.5269 51.9035 54.484 52.3324L54.2696 53.7479 53.1115 52.89C52.7254 52.6326 52.2107 52.6755 51.9105 53.0187L50.3234 54.6057C49.9803 54.906 49.9374 55.4207 50.1947 55.8067L51.0955 56.9648 49.68 57.1364C49.2082 57.2222 48.8651 57.5653 48.8651 58.0371L48.8651 60.3105C48.8651 60.7823 49.2082 61.1254 49.6371 61.2112L51.0955 61.4257 50.6666 61.9404 46.2486 61.9404C45.8626 61.9404 45.5194 61.5973 45.5194 61.2112L45.5194 51.3888 67.4806 51.3888 67.4806 61.1683C67.4806 61.5973 67.1374 61.9404 66.7085 61.9404ZM48.0072 50.0591C47.278 50.0591 46.6775 49.4586 46.6775 48.7294 46.6775 48.0002 47.278 47.3997 48.0072 47.3997 48.7364 47.3997 49.3369 48.0002 49.3369 48.7294 49.3369 49.4586 48.6935 50.0591 48.0072 50.0591ZM48.0072 48.0431C47.6212 48.0431 47.3209 48.3434 47.3209 48.7294 47.3209 49.1154 47.6212 49.4586 48.0072 49.4586 48.3932 49.4586 48.6935 49.1154 48.6935 48.7294 48.6935 48.3434 48.3932 48.0431 48.0072 48.0431ZM51.6531 50.0591C50.9239 50.0591 50.3663 49.4586 50.3663 48.7294 50.3663 48.0002 50.9239 47.3997 51.6531 47.3997 52.4252 47.3997 52.9828 48.0002 52.9828 48.7294 52.9828 49.4586 52.4252 50.0591 51.6531 50.0591ZM51.6531 48.0431C51.31 48.0431 50.9668 48.3434 50.9668 48.7294 50.9668 49.1154 51.2671 49.4586 51.6531 49.4586 52.082 49.4586 52.3823 49.1154 52.3823 48.7294 52.3823 48.3434 52.082 48.0431 51.6531 48.0431ZM55.3848 50.0591C54.6556 50.0591 54.0551 49.4586 54.0551 48.7294 54.0551 48.0002 54.6556 47.3997 55.3848 47.3997 56.114 47.3997 56.6716 47.9573 56.6716 48.7294 56.6716 49.4586 56.114 50.0591 55.3848 50.0591ZM55.3848 48.0431C54.9987 48.0431 54.6985 48.3434 54.6985 48.7294 54.6985 49.1154 54.9987 49.4586 55.3848 49.4586 55.7708 49.4586 56.0711 49.1154 56.0711 48.7294 56.0711 48.3434 55.7708 48.0431 55.3848 48.0431ZM45.5194 50.7454 45.5194 47.4855C45.5194 47.0566 45.8626 46.7134 46.2486 46.7134L66.7085 46.7134C67.1374 46.7134 67.4806 47.0566 67.4806 47.4855L67.4806 50.7454 45.5194 50.7454Z" fill="#F2F2F2" fill-rule="evenodd" fill-opacity="1"/><path d="M57.6152 66.1868 55.3848 66.1868C55.2132 66.1868 55.0845 66.101 55.0845 65.9294L54.7414 63.8706C54.6556 63.8277 54.5269 63.7848 54.3982 63.7419L52.7254 64.9858C52.6396 65.0716 52.4252 65.0716 52.3394 64.9429L50.7095 63.3559C50.6237 63.2272 50.6237 63.0556 50.7095 62.9269L51.9534 61.297C51.8676 61.1683 51.8247 61.0396 51.7818 60.911L49.7658 60.6107C49.5942 60.6107 49.4656 60.4391 49.4656 60.3105L49.4656 58.0371C49.4656 57.8656 49.5942 57.7798 49.7658 57.7369L51.7818 57.4795C51.8676 57.3509 51.8676 57.2222 51.9534 57.0935L50.7095 55.4207C50.6237 55.292 50.6237 55.1204 50.7095 55.0346L52.3394 53.4047C52.4252 53.3189 52.6396 53.3189 52.7254 53.4047L54.3982 54.6057C54.5269 54.5628 54.6556 54.5199 54.7414 54.477L55.0845 52.4182C55.0845 52.2466 55.2132 52.1608 55.3848 52.1608L57.6152 52.1608C57.7868 52.1608 57.9155 52.2466 57.9155 52.4182L58.2157 54.477C58.3444 54.5199 58.4731 54.5628 58.5588 54.6057L60.2746 53.4047C60.3603 53.3189 60.5748 53.3189 60.6606 53.4047L62.2476 55.0346C62.3763 55.1204 62.3763 55.292 62.2905 55.4207L61.0466 57.0935C61.0895 57.2222 61.1324 57.308 61.1753 57.4366L63.2342 57.7369C63.4057 57.7369 63.4915 57.8656 63.4915 58.0371L63.4915 60.3105C63.4915 60.4391 63.4057 60.5678 63.2342 60.6107L61.1753 60.8681C61.1324 60.9968 61.0895 61.1254 61.0466 61.2541L62.2905 62.884C62.3763 63.0127 62.3334 63.1843 62.2476 63.313L60.6606 64.9C60.5319 65.0287 60.3603 65.0287 60.2317 64.9429L58.5588 63.699C58.4731 63.7419 58.3444 63.8277 58.2157 63.8277L57.9155 65.8865C57.9155 66.101 57.7868 66.1868 57.6152 66.1868ZM56.5 62.0262C54.913 62.0262 53.6691 60.7394 53.6691 59.1953 53.6691 57.6082 54.913 56.3643 56.5 56.3643 58.0441 56.3643 59.3309 57.6082 59.3309 59.1953 59.3309 60.7394 58.0441 62.0262 56.5 62.0262ZM56.5 56.9648C55.2561 56.9648 54.2696 57.9514 54.2696 59.1524 54.2696 60.3963 55.299 61.3828 56.5 61.3828 57.701 61.3828 58.7304 60.3963 58.7304 59.1953 58.7304 57.9943 57.701 56.9648 56.5 56.9648Z" fill="#F2F2F2" fill-rule="evenodd" fill-opacity="1"/></g></g></g></g></g><g clip-path="url(#clip19)"><g clip-path="url(#clip20)"><g clip-path="url(#clip21)"><path d="M358.133 668.5 336.004 668.5 334.07 665.707 341.16 664.848C343.523 664.418 345.027 662.484 345.027 660.336L345.027 648.949C345.027 646.586 343.309 644.652 341.16 644.438L334.07 643.363 338.367 637.563C339.871 635.844 339.441 633.266 337.937 631.762L329.988 623.813C328.484 622.094 325.906 621.879 323.973 623.168L318.172 627.465 317.098 620.375C316.883 618.227 314.949 616.508 312.586 616.508L301.414 616.508C299.051 616.508 297.117 618.227 296.902 620.375L295.828 627.465 290.027 623.168C288.094 621.879 285.516 622.094 284.012 623.813L276.062 631.762C274.344 633.266 274.129 635.844 275.418 637.777L279.93 643.578 272.84 644.438C270.477 644.867 268.758 646.586 268.758 648.949L268.758 660.336C268.758 662.699 270.477 664.418 272.625 664.848L279.93 665.922 277.781 668.5 255.652 668.5C253.719 668.5 252 666.781 252 664.848L252 615.649 362 615.649 362 664.633C362 666.781 360.281 668.5 358.133 668.5ZM264.461 608.988C260.809 608.988 257.801 605.981 257.801 602.328 257.801 598.676 260.809 595.668 264.461 595.668 268.113 595.668 271.121 598.676 271.121 602.328 271.121 605.981 267.898 608.988 264.461 608.988ZM264.461 598.891C262.527 598.891 261.023 600.395 261.023 602.328 261.023 604.262 262.527 605.981 264.461 605.981 266.395 605.981 267.898 604.262 267.898 602.328 267.898 600.395 266.395 598.891 264.461 598.891ZM282.723 608.988C279.07 608.988 276.277 605.981 276.277 602.328 276.277 598.676 279.07 595.668 282.723 595.668 286.59 595.668 289.383 598.676 289.383 602.328 289.383 605.981 286.59 608.988 282.723 608.988ZM282.723 598.891C281.004 598.891 279.285 600.395 279.285 602.328 279.285 604.262 280.789 605.981 282.723 605.981 284.871 605.981 286.375 604.262 286.375 602.328 286.375 600.395 284.871 598.891 282.723 598.891ZM301.414 608.988C297.762 608.988 294.754 605.981 294.754 602.328 294.754 598.676 297.762 595.668 301.414 595.668 305.066 595.668 307.859 598.461 307.859 602.328 307.859 605.981 305.066 608.988 301.414 608.988ZM301.414 598.891C299.48 598.891 297.977 600.395 297.977 602.328 297.977 604.262 299.48 605.981 301.414 605.981 303.348 605.981 304.852 604.262 304.852 602.328 304.852 600.395 303.348 598.891 301.414 598.891ZM252 612.426 252 596.098C252 593.949 253.719 592.231 255.652 592.231L358.133 592.231C360.281 592.231 362 593.949 362 596.098L362 612.426 252 612.426Z" fill="#F2F2F2" fill-rule="evenodd" fill-opacity="1"/><path d="M312.586 689.77 301.414 689.77C300.555 689.77 299.91 689.34 299.91 688.481L298.191 678.168C297.762 677.953 297.117 677.738 296.473 677.524L288.094 683.754C287.664 684.184 286.59 684.184 286.16 683.539L277.996 675.59C277.566 674.945 277.566 674.086 277.996 673.442L284.227 665.277C283.797 664.633 283.582 663.988 283.367 663.344L273.27 661.84C272.41 661.84 271.766 660.981 271.766 660.336L271.766 648.949C271.766 648.09 272.41 647.66 273.27 647.445L283.367 646.156C283.797 645.512 283.797 644.867 284.227 644.223L277.996 635.844C277.566 635.199 277.566 634.34 277.996 633.91L286.16 625.746C286.59 625.317 287.664 625.317 288.094 625.746L296.473 631.762C297.117 631.547 297.762 631.332 298.191 631.117L299.91 620.805C299.91 619.945 300.555 619.516 301.414 619.516L312.586 619.516C313.445 619.516 314.09 619.945 314.09 620.805L315.594 631.117C316.238 631.332 316.883 631.547 317.312 631.762L325.906 625.746C326.336 625.317 327.41 625.317 327.84 625.746L335.789 633.91C336.434 634.34 336.434 635.199 336.004 635.844L329.773 644.223C329.988 644.867 330.203 645.297 330.418 645.942L340.73 647.445C341.59 647.445 342.02 648.09 342.02 648.949L342.02 660.336C342.02 660.981 341.59 661.625 340.73 661.84L330.418 663.129C330.203 663.774 329.988 664.418 329.773 665.063L336.004 673.227C336.434 673.871 336.219 674.731 335.789 675.375L327.84 683.324C327.195 683.969 326.336 683.969 325.691 683.539L317.312 677.309C316.883 677.524 316.238 677.953 315.594 677.953L314.09 688.266C314.09 689.34 313.445 689.77 312.586 689.77ZM307 668.93C299.051 668.93 292.82 662.484 292.82 654.75 292.82 646.801 299.051 640.57 307 640.57 314.734 640.57 321.18 646.801 321.18 654.75 321.18 662.484 314.734 668.93 307 668.93ZM307 643.578C300.77 643.578 295.828 648.52 295.828 654.535 295.828 660.766 300.984 665.707 307 665.707 313.016 665.707 318.172 660.766 318.172 654.75 318.172 648.734 313.016 643.578 307 643.578Z" fill="#F2F2F2" fill-rule="evenodd" fill-opacity="1"/></g></g></g></g></svg>