<svg width="2209" height="1032" xmlns="http://www.w3.org/2000/svg" xmlns:xlink="http://www.w3.org/1999/xlink" xml:space="preserve" overflow="hidden"><defs><filter id="fx0" x="-10%" y="-10%" width="120%" height="120%" filterUnits="userSpaceOnUse" primitiveUnits="userSpaceOnUse"><feComponentTransfer color-interpolation-filters="sRGB"><feFuncR type="discrete" tableValues="1.000000 1.000000"/><feFuncG type="discrete" tableValues="1.000000 1.000000"/><feFuncB type="discrete" tableValues="1.000000 1.000000"/><feFuncA type="linear" slope="0.400000" intercept="0.000000"/></feComponentTransfer><feGaussianBlur stdDeviation="7.638889 7.638889"/></filter><clipPath id="clip1"><rect x="-9" y="68" width="2209" height="1032"/></clipPath><clipPath id="clip2"><rect x="-22.9167" y="-22.9167" width="2250.83" height="1074.83"/></clipPath><clipPath id="clip3"><rect x="0" y="0" width="2205" height="1029"/></clipPath></defs><g clip-path="url(#clip1)" transform="translate(9 -68)"><g clip-path="url(#clip2)" filter="url(#fx0)" transform="translate(-6 69)"><g clip-path="url(#clip3)"><path d="M26.4001 117.753C26.4001 67.0352 67.5153 25.92 118.233 25.92L2086.77 25.92C2137.48 25.92 2178.6 67.0352 2178.6 117.753L2178.6 911.247C2178.6 961.965 2137.48 1003.08 2086.77 1003.08L118.233 1003.08C67.5153 1003.08 26.4001 961.965 26.4001 911.247Z" stroke="#FFFFFF" stroke-width="5" stroke-linecap="butt" stroke-linejoin="miter" stroke-miterlimit="8" stroke-opacity="1" fill="#F2F2F2" fill-rule="evenodd" fill-opacity="0.329412"/></g></g><path d="M41.5001 194.533C41.5001 144.809 81.8091 104.5 131.533 104.5L2061.47 104.5C2111.19 104.5 2151.5 144.809 2151.5 194.533L2151.5 972.467C2151.5 1022.19 2111.19 1062.5 2061.47 1062.5L131.533 1062.5C81.8091 1062.5 41.5001 1022.19 41.5001 972.467Z" stroke="#FFFFFF" stroke-width="4.58333" stroke-linecap="butt" stroke-linejoin="miter" stroke-miterlimit="8" stroke-opacity="1" fill="#F2F2F2" fill-rule="evenodd" fill-opacity="0.329412"/></g></svg>