<svg width="2218" height="1040" xmlns="http://www.w3.org/2000/svg" xmlns:xlink="http://www.w3.org/1999/xlink" xml:space="preserve" overflow="hidden"><defs><filter id="fx0" x="-10%" y="-10%" width="120%" height="120%" filterUnits="userSpaceOnUse" primitiveUnits="userSpaceOnUse"><feComponentTransfer color-interpolation-filters="sRGB"><feFuncR type="discrete" tableValues="1.000000 1.000000"/><feFuncG type="discrete" tableValues="1.000000 1.000000"/><feFuncB type="discrete" tableValues="1.000000 1.000000"/><feFuncA type="linear" slope="0.400000" intercept="0.000000"/></feComponentTransfer><feGaussianBlur stdDeviation="7.638889 7.638889"/></filter><clipPath id="clip1"><rect x="2177" y="1196" width="2218" height="1040"/></clipPath><clipPath id="clip2"><rect x="0.983398" y="1.51343" width="2213.03" height="1036.97"/></clipPath><clipPath id="clip3"><rect x="0" y="0" width="2215" height="1040"/></clipPath></defs><g clip-path="url(#clip1)" transform="translate(-2177 -1196)"><g clip-path="url(#clip2)" filter="url(#fx0)" transform="translate(2179 1197)"><g clip-path="url(#clip3)"><path d="M31.4001 123.667C31.4001 73.002 72.4721 31.9301 123.137 31.9301L2091.86 31.9301C2142.53 31.9301 2183.6 73.002 2183.6 123.667L2183.6 916.333C2183.6 966.998 2142.53 1008.07 2091.86 1008.07L123.137 1008.07C72.4721 1008.07 31.4001 966.998 31.4001 916.333Z" fill="#F2F2F2" fill-rule="evenodd" fill-opacity="0.329412"/><path d="M23.9001 123.478 24.4024 113.531 25.9065 103.675 28.3534 94.159 31.6927 85.0354 35.8734 76.3567 40.8449 68.1735 46.5569 60.5349 52.9599 53.4898 60.005 47.0868 67.6435 41.3748 75.8268 36.4033 84.5054 32.2226 93.629 28.8833 103.145 26.4364 113.001 24.9323 122.948 24.4301 2092.05 24.4301 2102 24.9323 2111.85 26.4364 2121.37 28.8833 2130.49 32.2226 2139.17 36.4033 2147.36 41.3748 2155 47.0868 2162.04 53.4898 2168.44 60.5349 2174.16 68.1735 2179.13 76.3568 2183.31 85.0354 2186.65 94.159 2189.09 103.675 2190.6 113.531 2191.1 123.478 2191.1 916.522 2190.6 926.47 2189.09 936.325 2186.65 945.841 2183.31 954.965 2179.13 963.643 2174.16 971.827 2168.44 979.465 2162.04 986.51 2155 992.913 2147.36 998.625 2139.17 1003.6 2130.49 1007.78 2121.37 1011.12 2111.85 1013.56 2102 1015.07 2092.05 1015.57 122.948 1015.57 113.001 1015.07 103.145 1013.56 93.629 1011.12 84.5055 1007.78 75.8268 1003.6 67.6435 998.625 60.005 992.913 52.9599 986.51 46.5569 979.465 40.8449 971.827 35.8734 963.643 31.6927 954.965 28.3534 945.841 25.9065 936.325 24.4024 926.47 23.9001 916.522ZM26.4001 916.459 26.8929 926.217 28.359 935.824 30.7438 945.098 33.9982 953.99 38.073 962.449 42.919 970.426 48.4874 977.872 54.7297 984.74 61.5979 990.983 69.0444 996.551 77.0211 1001.4 85.4799 1005.47 94.3717 1008.73 103.647 1011.11 113.253 1012.58 123.011 1013.07 2091.99 1013.07 2101.75 1012.58 2111.35 1011.11 2120.63 1008.73 2129.52 1005.47 2137.98 1001.4 2145.96 996.551 2153.4 990.983 2160.27 984.74 2166.51 977.872 2172.08 970.426 2176.93 962.449 2181 953.99 2184.26 945.098 2186.64 935.824 2188.11 926.217 2188.6 916.459 2188.6 123.541 2188.11 113.783 2186.64 104.176 2184.26 94.9017 2181 86.0098 2176.93 77.5511 2172.08 69.5743 2166.51 62.1279 2160.27 55.2596 2153.4 49.0173 2145.96 43.4489 2137.98 38.603 2129.52 34.5281 2120.63 31.2737 2111.35 28.8889 2101.75 27.4228 2091.99 26.9301 123.011 26.9301 113.253 27.4228 103.647 28.8889 94.3717 31.2737 85.4799 34.5281 77.0211 38.603 69.0444 43.4489 61.5979 49.0173 54.7297 55.2596 48.4874 62.1279 42.919 69.5743 38.073 77.5511 33.9982 86.0099 30.7438 94.9017 28.359 104.176 26.8929 113.783 26.4001 123.541ZM28.9001 123.604 29.3833 114.035 30.8114 104.678 33.1341 95.6444 36.3038 86.9843 40.2727 78.7454 44.9932 70.9751 50.4179 63.7208 56.4995 57.0294 63.1909 50.9478 70.4452 45.5231 78.2154 40.8026 86.4544 36.8337 95.1145 33.664 104.148 31.3414 113.505 29.9132 123.074 29.4301 2091.93 29.4301 2101.5 29.9132 2110.85 31.3414 2119.89 33.664 2128.55 36.8337 2136.78 40.8026 2144.55 45.5231 2151.81 50.9478 2158.5 57.0294 2164.58 63.7208 2170.01 70.9751 2174.73 78.7454 2178.7 86.9843 2181.87 95.6444 2184.19 104.678 2185.62 114.035 2186.1 123.604 2186.1 916.396 2185.62 925.965 2184.19 935.322 2181.87 944.356 2178.7 953.016 2174.73 961.255 2170.01 969.025 2164.58 976.279 2158.5 982.971 2151.81 989.052 2144.55 994.477 2136.78 999.198 2128.55 1003.17 2119.89 1006.34 2110.85 1008.66 2101.5 1010.09 2091.93 1010.57 123.074 1010.57 113.505 1010.09 104.148 1008.66 95.1145 1006.34 86.4544 1003.17 78.2154 999.198 70.4452 994.477 63.1909 989.052 56.4995 982.971 50.4179 976.279 44.9932 969.025 40.2727 961.255 36.3037 953.016 33.1341 944.356 30.8114 935.322 29.3833 925.965 28.9001 916.396ZM33.9001 916.27 34.3642 925.46 35.7164 934.32 37.9148 942.87 40.9148 951.067 44.6719 958.866 49.1415 966.223 54.2789 973.093 60.039 979.431 66.3768 985.191 73.2469 990.329 80.6041 994.798 88.4033 998.555 96.6 1001.56 105.15 1003.75 114.01 1005.11 123.2 1005.57 2091.8 1005.57 2100.99 1005.11 2109.85 1003.75 2118.4 1001.56 2126.6 998.555 2134.4 994.798 2141.75 990.329 2148.62 985.191 2154.96 979.431 2160.72 973.093 2165.86 966.223 2170.33 958.866 2174.09 951.067 2177.09 942.87 2179.28 934.32 2180.64 925.46 2181.1 916.27 2181.1 123.73 2180.64 114.54 2179.28 105.68 2177.09 97.1299 2174.09 88.9333 2170.33 81.134 2165.86 73.7768 2160.72 66.9067 2154.96 60.5689 2148.62 54.8088 2141.75 49.6714 2134.4 45.2018 2126.6 41.4447 2118.4 38.4447 2109.85 36.2463 2100.99 34.8941 2091.8 34.4301 123.2 34.4301 114.01 34.8941 105.15 36.2463 96.6 38.4447 88.4033 41.4447 80.6041 45.2018 73.2469 49.6714 66.3768 54.8088 60.039 60.5689 54.2789 66.9067 49.1415 73.7768 44.6719 81.134 40.9148 88.9333 37.9148 97.1299 35.7164 105.68 34.3642 114.54 33.9001 123.73ZM36.4001 123.793 36.8547 114.792 38.1688 106.181 40.3051 97.8727 43.2203 89.9077 46.8715 82.3283 51.2157 75.1776 56.2094 68.4996 61.8088 62.3387 67.9697 56.7393 74.6477 51.7456 81.7984 47.4014 89.3778 43.7502 97.3427 40.835 105.651 38.6988 114.262 37.3846 123.263 36.9301 2091.74 36.9301 2100.74 37.3846 2109.35 38.6988 2117.66 40.835 2125.62 43.7503 2133.2 47.4014 2140.35 51.7456 2147.03 56.7393 2153.19 62.3387 2158.79 68.4997 2163.78 75.1776 2168.13 82.3283 2171.78 89.9077 2174.7 97.8727 2176.83 106.181 2178.15 114.792 2178.6 123.793 2178.6 916.207 2178.15 925.208 2176.83 933.819 2174.7 942.127 2171.78 950.092 2168.13 957.672 2163.78 964.822 2158.79 971.5 2153.19 977.661 2147.03 983.261 2140.35 988.254 2133.2 992.599 2125.62 996.25 2117.66 999.165 2109.35 1001.3 2100.74 1002.62 2091.74 1003.07 123.263 1003.07 114.262 1002.62 105.651 1001.3 97.3427 999.165 89.3778 996.25 81.7984 992.599 74.6477 988.254 67.9697 983.261 61.8088 977.661 56.2094 971.5 51.2157 964.822 46.8715 957.672 43.2203 950.092 40.3051 942.127 38.1688 933.819 36.8547 925.208 36.4001 916.207ZM38.9001 916.144 39.3451 924.956 40.6213 933.318 42.6955 941.385 45.5259 949.118 49.0712 956.478 53.2898 963.422 58.1399 969.907 63.5786 975.892 69.5627 981.33 76.0485 986.18 82.9927 990.399 90.3522 993.944 98.0855 996.775 106.152 998.849 114.514 1000.12 123.326 1000.57 2091.67 1000.57 2100.49 1000.12 2108.85 998.849 2116.91 996.775 2124.65 993.944 2132.01 990.399 2138.95 986.18 2145.44 981.33 2151.42 975.892 2156.86 969.907 2161.71 963.422 2165.93 956.478 2169.47 949.118 2172.3 941.385 2174.38 933.318 2175.66 924.956 2176.1 916.144 2176.1 123.856 2175.66 115.044 2174.38 106.682 2172.3 98.6154 2169.47 90.8822 2165.93 83.5226 2161.71 76.5784 2156.86 70.0926 2151.42 64.1085 2145.44 58.6698 2138.95 53.8198 2132.01 49.6011 2124.65 46.0558 2116.91 43.2254 2108.85 41.1512 2100.49 39.875 2091.67 39.4301 123.326 39.4301 114.514 39.875 106.152 41.1512 98.0855 43.2254 90.3523 46.0558 82.9927 49.6011 76.0485 53.8198 69.5627 58.6698 63.5786 64.1085 58.1399 70.0926 53.2898 76.5784 49.0712 83.5226 45.5259 90.8822 42.6955 98.6154 40.6213 106.682 39.3451 115.044 38.9001 123.856Z" fill="#FFFFFF" fill-rule="nonzero" fill-opacity="1"/></g></g><path d="M2231.5 1328.44C2231.5 1278.77 2271.77 1238.5 2321.44 1238.5L4251.56 1238.5C4301.23 1238.5 4341.5 1278.77 4341.5 1328.44L4341.5 2105.56C4341.5 2155.23 4301.23 2195.5 4251.56 2195.5L2321.44 2195.5C2271.77 2195.5 2231.5 2155.23 2231.5 2105.56Z" fill="#F2F2F2" fill-rule="evenodd" fill-opacity="0.329412"/><path d="M2224.05 1328.25 2224.55 1318.49 2226.02 1308.82 2228.42 1299.48 2231.7 1290.53 2235.8 1282.01 2240.68 1273.98 2246.29 1266.48 2252.57 1259.57 2259.48 1253.29 2266.98 1247.68 2275.01 1242.8 2283.53 1238.7 2292.48 1235.42 2301.82 1233.02 2311.49 1231.54 2321.25 1231.05 4251.75 1231.05 4261.51 1231.54 4271.18 1233.02 4280.52 1235.42 4289.47 1238.7 4297.99 1242.8 4306.02 1247.68 4313.52 1253.29 4320.43 1259.57 4326.71 1266.48 4332.32 1273.98 4337.2 1282.01 4341.3 1290.53 4344.58 1299.48 4346.98 1308.82 4348.46 1318.49 4348.95 1328.25 4348.95 2105.75 4348.46 2115.51 4346.98 2125.18 4344.58 2134.52 4341.3 2143.47 4337.2 2151.99 4332.32 2160.02 4326.71 2167.52 4320.43 2174.43 4313.52 2180.71 4306.02 2186.32 4297.99 2191.2 4289.47 2195.3 4280.52 2198.58 4271.18 2200.98 4261.51 2202.46 4251.75 2202.95 2321.25 2202.95 2311.49 2202.46 2301.82 2200.98 2292.48 2198.58 2283.53 2195.3 2275.01 2191.2 2266.98 2186.32 2259.48 2180.71 2252.57 2174.43 2246.29 2167.52 2240.68 2160.02 2235.8 2151.99 2231.7 2143.47 2228.42 2134.52 2226.02 2125.18 2224.55 2115.51 2224.05 2105.75ZM2226.53 2105.69 2227.02 2115.26 2228.46 2124.68 2230.8 2133.78 2233.99 2142.51 2237.99 2150.8 2242.74 2158.63 2248.2 2165.93 2254.33 2172.67 2261.07 2178.8 2268.37 2184.26 2276.2 2189.01 2284.49 2193.01 2293.22 2196.2 2302.32 2198.54 2311.74 2199.98 2321.31 2200.47 4251.69 2200.47 4261.26 2199.98 4270.68 2198.54 4279.78 2196.2 4288.51 2193.01 4296.8 2189.01 4304.63 2184.26 4311.94 2178.8 4318.67 2172.67 4324.8 2165.93 4330.26 2158.63 4335.01 2150.8 4339.01 2142.51 4342.2 2133.78 4344.54 2124.68 4345.98 2115.26 4346.47 2105.69 4346.47 1328.31 4345.98 1318.74 4344.54 1309.32 4342.2 1300.22 4339.01 1291.49 4335.01 1283.2 4330.26 1275.37 4324.8 1268.07 4318.67 1261.33 4311.94 1255.2 4304.63 1249.74 4296.8 1244.99 4288.51 1240.99 4279.78 1237.8 4270.68 1235.46 4261.26 1234.02 4251.69 1233.53 2321.31 1233.53 2311.74 1234.02 2302.32 1235.46 2293.22 1237.8 2284.49 1240.99 2276.2 1244.99 2268.37 1249.74 2261.07 1255.2 2254.33 1261.33 2248.2 1268.07 2242.74 1275.37 2237.99 1283.2 2233.99 1291.49 2230.8 1300.22 2228.46 1309.32 2227.02 1318.74 2226.53 1328.31ZM2229.02 1328.38 2229.49 1318.99 2230.89 1309.81 2233.17 1300.96 2236.28 1292.46 2240.17 1284.38 2244.8 1276.76 2250.12 1269.65 2256.08 1263.08 2262.65 1257.12 2269.76 1251.8 2277.38 1247.17 2285.46 1243.28 2293.96 1240.17 2302.81 1237.89 2311.99 1236.49 2321.38 1236.02 4251.62 1236.02 4261.01 1236.49 4270.19 1237.89 4279.04 1240.17 4287.54 1243.28 4295.62 1247.17 4303.24 1251.8 4310.35 1257.12 4316.92 1263.08 4322.88 1269.65 4328.2 1276.76 4332.83 1284.38 4336.72 1292.46 4339.83 1300.96 4342.11 1309.81 4343.51 1318.99 4343.98 1328.38 4343.98 2105.62 4343.51 2115.01 4342.11 2124.19 4339.83 2133.04 4336.72 2141.54 4332.83 2149.62 4328.2 2157.24 4322.88 2164.35 4316.92 2170.92 4310.35 2176.88 4303.24 2182.2 4295.62 2186.83 4287.54 2190.72 4279.04 2193.83 4270.19 2196.11 4261.01 2197.51 4251.62 2197.98 2321.38 2197.98 2311.99 2197.51 2302.81 2196.11 2293.96 2193.83 2285.46 2190.72 2277.38 2186.83 2269.76 2182.2 2262.65 2176.88 2256.08 2170.92 2250.12 2164.35 2244.8 2157.24 2240.17 2149.62 2236.28 2141.54 2233.17 2133.04 2230.89 2124.19 2229.49 2115.01 2229.02 2105.62ZM2233.98 2105.5 2234.44 2114.51 2235.76 2123.19 2237.92 2131.57 2240.86 2139.6 2244.54 2147.25 2248.92 2154.46 2253.95 2161.19 2259.6 2167.4 2265.81 2173.05 2272.54 2178.08 2279.75 2182.46 2287.4 2186.14 2295.43 2189.08 2303.81 2191.24 2312.49 2192.56 2321.5 2193.02 4251.5 2193.02 4260.51 2192.56 4269.19 2191.24 4277.57 2189.08 4285.6 2186.14 4293.25 2182.46 4300.46 2178.08 4307.19 2173.05 4313.4 2167.4 4319.05 2161.19 4324.08 2154.46 4328.46 2147.25 4332.14 2139.6 4335.08 2131.57 4337.24 2123.19 4338.56 2114.51 4339.02 2105.5 4339.02 1328.5 4338.56 1319.49 4337.24 1310.81 4335.08 1302.43 4332.14 1294.4 4328.46 1286.75 4324.08 1279.54 4319.05 1272.81 4313.4 1266.6 4307.19 1260.95 4300.46 1255.92 4293.25 1251.54 4285.6 1247.86 4277.57 1244.92 4269.19 1242.76 4260.51 1241.44 4251.5 1240.98 2321.5 1240.98 2312.49 1241.44 2303.81 1242.76 2295.43 1244.92 2287.4 1247.86 2279.75 1251.54 2272.54 1255.92 2265.81 1260.95 2259.6 1266.6 2253.95 1272.81 2248.92 1279.54 2244.54 1286.75 2240.86 1294.4 2237.92 1302.43 2235.76 1310.81 2234.44 1319.49 2233.98 1328.5ZM2236.47 1328.56 2236.91 1319.74 2238.2 1311.31 2240.29 1303.17 2243.15 1295.37 2246.72 1287.94 2250.98 1280.94 2255.87 1274.39 2261.36 1268.36 2267.39 1262.87 2273.94 1257.98 2280.94 1253.72 2288.37 1250.15 2296.17 1247.29 2304.31 1245.2 2312.74 1243.91 2321.56 1243.47 4251.44 1243.47 4260.26 1243.91 4268.69 1245.2 4276.83 1247.29 4284.63 1250.15 4292.06 1253.72 4299.06 1257.98 4305.61 1262.87 4311.64 1268.36 4317.13 1274.39 4322.02 1280.94 4326.28 1287.94 4329.85 1295.37 4332.71 1303.17 4334.8 1311.31 4336.09 1319.74 4336.53 1328.56 4336.53 2105.44 4336.09 2114.26 4334.8 2122.69 4332.71 2130.83 4329.85 2138.63 4326.28 2146.06 4322.02 2153.06 4317.13 2159.61 4311.64 2165.64 4305.61 2171.13 4299.06 2176.02 4292.06 2180.28 4284.63 2183.85 4276.83 2186.71 4268.69 2188.8 4260.26 2190.09 4251.44 2190.53 2321.56 2190.53 2312.74 2190.09 2304.31 2188.8 2296.17 2186.71 2288.37 2183.85 2280.94 2180.28 2273.94 2176.02 2267.39 2171.13 2261.36 2165.64 2255.87 2159.61 2250.98 2153.06 2246.72 2146.06 2243.15 2138.63 2240.29 2130.83 2238.2 2122.69 2236.91 2114.26 2236.47 2105.44ZM2238.95 2105.37 2239.38 2114.01 2240.63 2122.19 2242.66 2130.09 2245.44 2137.67 2248.91 2144.87 2253.04 2151.67 2257.79 2158.03 2263.11 2163.89 2268.98 2169.21 2275.33 2173.96 2282.13 2178.09 2289.33 2181.56 2296.91 2184.34 2304.81 2186.37 2312.99 2187.62 2321.63 2188.05 4251.37 2188.05 4260.01 2187.62 4268.19 2186.37 4276.09 2184.34 4283.67 2181.56 4290.87 2178.09 4297.67 2173.96 4304.03 2169.21 4309.89 2163.89 4315.21 2158.03 4319.96 2151.67 4324.09 2144.87 4327.56 2137.67 4330.34 2130.09 4332.37 2122.19 4333.62 2114.01 4334.05 2105.37 4334.05 1328.63 4333.62 1319.99 4332.37 1311.81 4330.34 1303.91 4327.56 1296.33 4324.09 1289.13 4319.96 1282.33 4315.21 1275.97 4309.89 1270.11 4304.03 1264.79 4297.67 1260.04 4290.87 1255.91 4283.67 1252.44 4276.09 1249.66 4268.19 1247.63 4260.01 1246.38 4251.37 1245.95 2321.63 1245.95 2312.99 1246.38 2304.81 1247.63 2296.91 1249.66 2289.33 1252.44 2282.13 1255.91 2275.33 1260.04 2268.98 1264.79 2263.11 1270.11 2257.79 1275.97 2253.04 1282.33 2248.91 1289.13 2245.44 1296.33 2242.66 1303.91 2240.63 1311.81 2239.38 1319.99 2238.95 1328.63Z" fill="#FFFFFF" fill-rule="nonzero" fill-opacity="1"/></g></svg>