<svg width="468" height="463" xmlns="http://www.w3.org/2000/svg" xmlns:xlink="http://www.w3.org/1999/xlink" xml:space="preserve" overflow="hidden"><defs><filter id="fx0" x="-10%" y="-10%" width="120%" height="120%" filterUnits="userSpaceOnUse" primitiveUnits="userSpaceOnUse"><feComponentTransfer color-interpolation-filters="sRGB"><feFuncR type="discrete" tableValues="0.749020 0.749020"/><feFuncG type="discrete" tableValues="0.749020 0.749020"/><feFuncB type="discrete" tableValues="0.749020 0.749020"/><feFuncA type="linear" slope="0.400000" intercept="0.000000"/></feComponentTransfer><feGaussianBlur stdDeviation="6.111111 6.111111"/></filter><filter id="fx1" x="-10%" y="-10%" width="120%" height="120%" filterUnits="userSpaceOnUse" primitiveUnits="userSpaceOnUse"><feComponentTransfer color-interpolation-filters="sRGB"><feFuncR type="discrete" tableValues="0.000000 0.000000"/><feFuncG type="discrete" tableValues="0.000000 0.000000"/><feFuncB type="discrete" tableValues="0.000000 0.000000"/><feFuncA type="linear" slope="0.400000" intercept="0.000000"/></feComponentTransfer><feGaussianBlur stdDeviation="6.111111 6.111111"/></filter><filter id="fx2" x="-10%" y="-10%" width="120%" height="120%" filterUnits="userSpaceOnUse" primitiveUnits="userSpaceOnUse"><feComponentTransfer color-interpolation-filters="sRGB"><feFuncR type="discrete" tableValues="1.000000 1.000000"/><feFuncG type="discrete" tableValues="1.000000 1.000000"/><feFuncB type="discrete" tableValues="1.000000 1.000000"/><feFuncA type="linear" slope="0.741176" intercept="0.000000"/></feComponentTransfer><feGaussianBlur stdDeviation="14.316936 14.316936"/></filter><clipPath id="clip3"><rect x="224" y="256" width="468" height="463"/></clipPath><clipPath id="clip4"><rect x="1.81964" y="1.61316" width="149.366" height="149.319"/></clipPath><clipPath id="clip5"><rect x="0" y="0" width="153" height="153"/></clipPath><clipPath id="clip6"><rect x="19" y="20" width="113" height="113"/></clipPath><clipPath id="clip7"><rect x="19" y="20" width="113" height="113"/></clipPath><clipPath id="clip8"><rect x="19" y="20" width="113" height="113"/></clipPath><clipPath id="clip9"><rect x="19" y="19" width="114" height="114"/></clipPath><clipPath id="clip10"><rect x="19" y="19" width="114" height="114"/></clipPath><clipPath id="clip11"><rect x="19" y="19" width="114" height="114"/></clipPath><clipPath id="clip12"><rect x="1.81964" y="1.61145" width="148.367" height="148.321"/></clipPath><clipPath id="clip13"><rect x="0" y="0" width="152" height="152"/></clipPath><clipPath id="clip14"><rect x="19" y="19" width="113" height="113"/></clipPath><clipPath id="clip15"><rect x="19" y="19" width="113" height="113"/></clipPath><clipPath id="clip16"><rect x="19" y="19" width="113" height="113"/></clipPath><clipPath id="clip17"><rect x="401" y="421" width="113" height="113"/></clipPath><clipPath id="clip18"><rect x="401" y="421" width="113" height="113"/></clipPath><clipPath id="clip19"><rect x="401" y="421" width="113" height="113"/></clipPath><clipPath id="clip20"><rect x="0.493328" y="0.441483" width="114.015" height="114.003"/></clipPath><clipPath id="clip21"><rect x="0" y="0" width="115" height="115"/></clipPath><clipPath id="clip22"><rect x="43" y="43" width="29" height="29"/></clipPath><clipPath id="clip23"><rect x="43" y="43" width="29" height="29"/></clipPath><clipPath id="clip24"><rect x="43" y="43" width="29" height="29"/></clipPath><clipPath id="clip25"><rect x="401" y="420" width="114" height="114"/></clipPath><clipPath id="clip26"><rect x="401" y="420" width="114" height="114"/></clipPath><clipPath id="clip27"><rect x="401" y="420" width="114" height="114"/></clipPath></defs><g clip-path="url(#clip3)" transform="translate(-224 -256)"><g clip-path="url(#clip4)" filter="url(#fx0)" transform="translate(382 414)"><g clip-path="url(#clip5)"><g clip-path="url(#clip6)"><g clip-path="url(#clip7)"><g clip-path="url(#clip8)"><path d="M42.8242 109.788C50.4652 117.442 59.0992 123.504 67.7989 127.316 76.5643 131.024 84.0849 132.599 92.4368 131.204 101.158 129.609 107.432 124.247 111.138 115.904 118.556 99.078 125.595 61.2648 130.9 30.2023 131.853 25.4795 127.33 20.9448 122.602 21.8898 91.529 27.1245 53.7005 34.0807 36.8589 41.4614 28.4327 45.1539 23.128 51.6092 21.518 60.1295 20.153 67.357 21.4786 75.8795 25.3527 84.7739 29.1436 93.4823 35.1855 102.132 42.8242 109.788ZM106.411 108.239C106.784 110.489 106.923 112.771 106.824 115.049 106.788 115.773 106.171 116.331 105.447 116.295 104.723 116.258 104.165 115.642 104.201 114.918 104.29 112.822 104.162 110.722 103.818 108.653 103.7 107.938 104.183 107.262 104.899 107.143 105.614 107.025 106.289 107.508 106.408 108.223 106.409 108.229 106.41 108.234 106.411 108.239ZM100.725 94.738C101.385 94.4437 102.159 94.7404 102.454 95.4005 102.454 95.4021 102.455 95.4036 102.456 95.4051 103.366 97.4491 104.161 99.5421 104.838 101.675 105.056 102.366 104.672 103.104 103.98 103.322 103.289 103.54 102.551 103.156 102.333 102.464 101.686 100.425 100.926 98.423 100.056 96.4683 99.7631 95.8057 100.063 95.0311 100.725 94.738ZM94.1627 83.3848C94.7632 82.9821 95.5765 83.1422 95.9792 83.7429 95.9805 83.7444 95.9816 83.7462 95.9827 83.7479 97.2361 85.6248 98.4086 87.5367 99.4652 89.4311 99.8185 90.0641 99.5919 90.8639 98.9588 91.2172 98.3257 91.5704 97.526 91.3438 97.1727 90.7108 96.149 88.8776 95.0158 87.0248 93.7996 85.2048 93.3973 84.6019 93.5601 83.7871 94.1627 83.3848ZM85.9815 73.1298C86.5231 72.6486 87.3519 72.6965 87.8343 73.237 89.3174 74.9017 90.748 76.6211 92.089 78.3492 92.5335 78.9219 92.4298 79.7466 91.8571 80.1911 91.2844 80.6356 90.4597 80.5319 90.0152 79.9592 88.7114 78.2792 87.318 76.6036 85.8743 74.9826 85.393 74.441 85.4409 73.6122 85.9815 73.1298ZM76.5336 64.0298C77.0094 63.4829 77.8383 63.4241 78.3864 63.8986 80.0402 65.3357 81.6808 66.8561 83.2602 68.4179 83.7786 68.9246 83.7883 69.7556 83.2814 70.274 82.7748 70.7925 81.944 70.8019 81.4255 70.2952 81.4216 70.2915 81.4177 70.2878 81.4139 70.2839 79.8761 68.7636 78.2771 67.2804 76.6649 65.8804 76.118 65.4055 76.0592 64.5771 76.5336 64.0298ZM65.9549 56.2773C66.3464 55.6694 67.1569 55.494 67.7648 55.8857 67.7659 55.8864 67.7672 55.8873 67.7683 55.8879 69.5971 57.0692 71.4302 58.3554 73.2218 59.7095 73.7999 60.1468 73.9139 60.9699 73.4766 61.5481 73.0393 62.1262 72.2162 62.2402 71.638 61.8029 69.8989 60.4882 68.1183 59.2392 66.3421 58.0907 65.7344 57.6972 65.5609 56.8856 65.9544 56.278 65.9547 56.2777 65.9547 56.2775 65.9549 56.2773ZM54.2802 50.312C54.56 49.6433 55.3287 49.328 55.9974 49.6076 57.9836 50.441 60.0136 51.4123 62.0283 52.4929 62.6566 52.8543 62.8731 53.6567 62.5117 54.2851 62.1652 54.8871 61.4097 55.1153 60.788 54.8051 58.8455 53.7639 56.8942 52.8298 54.9824 52.0292 54.3145 51.7485 54.0004 50.98 54.2802 50.312ZM41.5839 47.1423C41.6716 46.4228 42.3257 45.9107 43.0452 45.9982 45.285 46.2815 47.4989 46.74 49.6667 47.3698 50.37 47.5452 50.7979 48.2577 50.6225 48.961 50.447 49.6643 49.7348 50.0921 49.0313 49.9167 49.0022 49.9095 48.9733 49.9012 48.9449 49.892 46.9092 49.3018 44.8306 48.8711 42.728 48.6035 42.0085 48.5158 41.4965 47.8618 41.5839 47.1423Z" fill="#BFBFBF" fill-rule="nonzero" fill-opacity="1"/></g></g></g><g clip-path="url(#clip9)"><g clip-path="url(#clip10)"><g clip-path="url(#clip11)"><path d="M43.028 109.583C50.7372 117.305 59.4484 123.421 68.2257 127.268 77.0693 131.009 84.6571 132.598 93.0835 131.19 101.883 129.581 108.213 124.171 111.951 115.754 119.436 98.7773 126.538 60.6265 131.89 29.2867 132.852 24.5217 128.288 19.9465 123.519 20.8999 92.1676 26.1814 54.0014 33.1997 37.0095 40.6463 28.508 44.3717 23.1559 50.8847 21.5315 59.4811 20.1543 66.7731 21.4918 75.3717 25.4005 84.3455 29.2252 93.1317 35.3211 101.858 43.028 109.583ZM107.182 108.02C107.559 110.29 107.699 112.592 107.599 114.891 107.563 115.622 106.941 116.184 106.21 116.148 105.479 116.111 104.916 115.489 104.953 114.758 105.043 112.644 104.914 110.526 104.567 108.437 104.447 107.716 104.935 107.034 105.657 106.915 106.378 106.795 107.06 107.283 107.179 108.004 107.18 108.01 107.181 108.015 107.182 108.02ZM101.446 94.3985C102.112 94.1017 102.893 94.401 103.19 95.0671 103.19 95.0686 103.191 95.0701 103.192 95.0717 104.11 97.1339 104.912 99.2456 105.595 101.397 105.815 102.095 105.428 102.839 104.73 103.059 104.032 103.279 103.288 102.892 103.068 102.194 102.415 100.136 101.648 98.1165 100.771 96.1443 100.475 95.4758 100.778 94.6943 101.446 94.3985ZM94.8249 82.944C95.4307 82.5377 96.2513 82.6993 96.6576 83.3053 96.6589 83.3069 96.66 83.3086 96.6611 83.3104 97.9258 85.204 99.1087 87.133 100.175 89.0443 100.531 89.683 100.303 90.4899 99.6638 90.8463 99.0251 91.2028 98.2182 90.9741 97.8618 90.3354 96.8289 88.4859 95.6856 86.6165 94.4585 84.7803 94.0527 84.172 94.2169 83.3499 94.8249 82.944ZM86.5706 72.5975C87.1171 72.1119 87.9533 72.1603 88.4399 72.7056 89.9363 74.3852 91.3797 76.1199 92.7326 77.8634 93.1811 78.4413 93.0765 79.2733 92.4987 79.7218 91.9209 80.1702 91.0888 80.0656 90.6404 79.4878 89.325 77.7928 87.9191 76.1022 86.4624 74.4668 85.9769 73.9204 86.0252 73.0841 86.5706 72.5975ZM77.0384 63.4162C77.5184 62.8645 78.3547 62.8051 78.9078 63.2838 80.5763 64.7338 82.2316 66.2677 83.825 67.8435 84.3481 68.3547 84.3578 69.1931 83.8464 69.7162 83.3353 70.2393 82.4971 70.2487 81.974 69.7376 81.97 69.7338 81.9661 69.7301 81.9623 69.7261 80.4108 68.1922 78.7974 66.6959 77.1708 65.2834 76.6191 64.8042 76.5597 63.9684 77.0384 63.4162ZM66.3652 55.5945C66.7603 54.9812 67.578 54.8041 68.1913 55.1994 68.1924 55.2001 68.1937 55.201 68.1948 55.2016 70.0399 56.3934 71.8894 57.6912 73.697 59.0573 74.2803 59.4985 74.3953 60.329 73.9541 60.9123 73.5129 61.4957 72.6824 61.6106 72.0991 61.1695 70.3445 59.843 68.548 58.5828 66.7558 57.4241 66.1427 57.0271 65.9677 56.2083 66.3648 55.5951 66.365 55.5949 66.365 55.5947 66.3652 55.5945ZM54.5863 49.5759C54.8685 48.9012 55.6441 48.5832 56.3188 48.8652 58.3228 49.7061 60.3709 50.686 62.4036 51.7763 63.0374 52.1409 63.2559 52.9505 62.8913 53.5845 62.5417 54.1919 61.7794 54.4221 61.1522 54.1092 59.1923 53.0586 57.2237 52.1162 55.2947 51.3084 54.6209 51.0253 54.304 50.2499 54.5863 49.5759ZM41.7766 46.3779C41.8651 45.652 42.525 45.1354 43.2509 45.2236 45.5107 45.5094 47.7445 45.972 49.9316 46.6074 50.6412 46.7845 51.0729 47.5033 50.8959 48.2128 50.7189 48.9224 50.0003 49.3541 49.2905 49.1771 49.2611 49.1698 49.232 49.1614 49.2033 49.1522 47.1494 48.5567 45.0523 48.1221 42.9309 47.8522 42.205 47.7637 41.6884 47.1038 41.7766 46.3779Z" fill="#FFFFFF" fill-rule="nonzero" fill-opacity="1"/></g></g></g></g></g><g clip-path="url(#clip12)" filter="url(#fx1)" transform="translate(382 415)"><g clip-path="url(#clip13)"><g clip-path="url(#clip14)"><g clip-path="url(#clip15)"><g clip-path="url(#clip16)"><path d="M42.8242 108.788C50.4652 116.442 59.0992 122.504 67.7989 126.316 76.5643 130.024 84.0849 131.599 92.4368 130.204 101.158 128.609 107.432 123.247 111.138 114.904 118.556 98.078 125.595 60.2648 130.9 29.2023 131.853 24.4795 127.33 19.9448 122.602 20.8898 91.529 26.1245 53.7005 33.0807 36.8589 40.4614 28.4327 44.1539 23.128 50.6092 21.518 59.1295 20.153 66.357 21.4786 74.8795 25.3527 83.7739 29.1436 92.4823 35.1855 101.132 42.8242 108.788ZM106.411 107.239C106.784 109.489 106.923 111.771 106.824 114.049 106.788 114.773 106.171 115.331 105.447 115.295 104.723 115.258 104.165 114.642 104.201 113.918 104.29 111.822 104.162 109.722 103.818 107.653 103.7 106.938 104.183 106.262 104.899 106.143 105.614 106.025 106.289 106.508 106.408 107.223 106.409 107.229 106.41 107.234 106.411 107.239ZM100.725 93.738C101.385 93.4437 102.159 93.7404 102.454 94.4005 102.454 94.4021 102.455 94.4036 102.456 94.4051 103.366 96.4491 104.161 98.5421 104.838 100.675 105.056 101.366 104.672 102.104 103.98 102.322 103.289 102.54 102.551 102.156 102.333 101.464 101.686 99.4248 100.926 97.423 100.056 95.4683 99.7631 94.8057 100.063 94.0311 100.725 93.738ZM94.1627 82.3848C94.7632 81.9821 95.5765 82.1422 95.9792 82.7429 95.9805 82.7444 95.9816 82.7462 95.9827 82.7479 97.2361 84.6248 98.4086 86.5367 99.4652 88.4311 99.8185 89.0641 99.5919 89.8639 98.9588 90.2172 98.3257 90.5704 97.526 90.3438 97.1727 89.7108 96.149 87.8776 95.0158 86.0248 93.7996 84.2048 93.3973 83.6019 93.5601 82.7871 94.1627 82.3848ZM85.9815 72.1298C86.5231 71.6486 87.3519 71.6965 87.8343 72.237 89.3174 73.9017 90.748 75.6211 92.089 77.3492 92.5335 77.9219 92.4298 78.7466 91.8571 79.1911 91.2844 79.6356 90.4597 79.5319 90.0152 78.9592 88.7114 77.2792 87.318 75.6036 85.8743 73.9826 85.393 73.441 85.4409 72.6122 85.9815 72.1298ZM76.5336 63.0298C77.0094 62.4829 77.8383 62.4241 78.3864 62.8986 80.0402 64.3357 81.6808 65.8561 83.2602 67.4179 83.7786 67.9246 83.7883 68.7556 83.2814 69.274 82.7748 69.7925 81.944 69.8019 81.4255 69.2952 81.4216 69.2915 81.4177 69.2878 81.4139 69.2839 79.8761 67.7636 78.2771 66.2804 76.6649 64.8804 76.118 64.4055 76.0592 63.5771 76.5336 63.0298ZM65.9549 55.2773C66.3464 54.6694 67.1569 54.494 67.7648 54.8857 67.7659 54.8864 67.7672 54.8873 67.7683 54.8879 69.5971 56.0692 71.4302 57.3554 73.2218 58.7095 73.7999 59.1468 73.9139 59.9699 73.4766 60.5481 73.0393 61.1262 72.2162 61.2402 71.638 60.8029 69.8989 59.4882 68.1183 58.2392 66.3421 57.0907 65.7344 56.6972 65.5609 55.8856 65.9544 55.278 65.9547 55.2777 65.9547 55.2775 65.9549 55.2773ZM54.2802 49.312C54.56 48.6433 55.3287 48.328 55.9974 48.6076 57.9836 49.441 60.0136 50.4123 62.0283 51.4929 62.6566 51.8543 62.8731 52.6567 62.5117 53.2851 62.1652 53.8871 61.4097 54.1153 60.788 53.8051 58.8455 52.7639 56.8942 51.8298 54.9824 51.0292 54.3145 50.7485 54.0004 49.98 54.2802 49.312ZM41.5839 46.1423C41.6716 45.4228 42.3257 44.9107 43.0452 44.9982 45.285 45.2815 47.4989 45.74 49.6667 46.3698 50.37 46.5452 50.7979 47.2577 50.6225 47.961 50.447 48.6643 49.7348 49.0921 49.0313 48.9167 49.0022 48.9095 48.9733 48.9012 48.9449 48.892 46.9092 48.3018 44.8306 47.8711 42.728 47.6035 42.0085 47.5158 41.4965 46.8618 41.5839 46.1423Z" fill="#BFBFBF" fill-rule="nonzero" fill-opacity="1"/></g></g></g></g></g><g clip-path="url(#clip17)"><g clip-path="url(#clip18)"><g clip-path="url(#clip19)"><path d="M424.824 510.038C432.465 517.692 441.099 523.754 449.799 527.566 458.564 531.274 466.085 532.849 474.437 531.454 483.158 529.859 489.432 524.497 493.138 516.154 500.556 499.328 507.595 461.515 512.9 430.452 513.853 425.729 509.33 421.195 504.602 422.14 473.529 427.374 435.701 434.331 418.859 441.711 410.433 445.404 405.128 451.859 403.518 460.379 402.153 467.607 403.479 476.129 407.353 485.024 411.144 493.732 417.185 502.382 424.824 510.038ZM488.411 508.489C488.784 510.739 488.923 513.021 488.824 515.299 488.788 516.023 488.171 516.581 487.447 516.545 486.723 516.508 486.165 515.892 486.201 515.168 486.29 513.072 486.162 510.972 485.818 508.903 485.7 508.188 486.183 507.512 486.899 507.393 487.614 507.275 488.289 507.758 488.408 508.473 488.409 508.479 488.41 508.484 488.411 508.489ZM482.725 494.988C483.385 494.694 484.159 494.99 484.454 495.651 484.454 495.652 484.455 495.654 484.456 495.655 485.366 497.699 486.161 499.792 486.838 501.925 487.056 502.616 486.672 503.354 485.98 503.572 485.289 503.79 484.551 503.406 484.333 502.714 483.686 500.675 482.926 498.673 482.056 496.718 481.763 496.056 482.063 495.281 482.725 494.988ZM476.163 483.635C476.763 483.232 477.576 483.392 477.979 483.993 477.981 483.994 477.982 483.996 477.983 483.998 479.236 485.875 480.409 487.787 481.465 489.681 481.818 490.314 481.592 491.114 480.959 491.467 480.326 491.82 479.526 491.594 479.173 490.961 478.149 489.128 477.016 487.275 475.8 485.455 475.397 484.852 475.56 484.037 476.163 483.635ZM467.981 473.38C468.523 472.899 469.352 472.946 469.834 473.487 471.317 475.152 472.748 476.871 474.089 478.599 474.533 479.172 474.43 479.997 473.857 480.441 473.284 480.886 472.46 480.782 472.015 480.209 470.711 478.529 469.318 476.854 467.874 475.233 467.393 474.691 467.441 473.862 467.981 473.38ZM458.534 464.28C459.009 463.733 459.838 463.674 460.386 464.149 462.04 465.586 463.681 467.106 465.26 468.668 465.779 469.175 465.788 470.006 465.281 470.524 464.775 471.042 463.944 471.052 463.426 470.545 463.422 470.542 463.418 470.538 463.414 470.534 461.876 469.014 460.277 467.53 458.665 466.13 458.118 465.656 458.059 464.827 458.534 464.28ZM447.955 456.527C448.346 455.919 449.157 455.744 449.765 456.136 449.766 456.136 449.767 456.137 449.768 456.138 451.597 457.319 453.43 458.605 455.222 459.96 455.8 460.397 455.914 461.22 455.477 461.798 455.039 462.376 454.216 462.49 453.638 462.053 451.899 460.738 450.118 459.489 448.342 458.341 447.734 457.947 447.561 457.136 447.954 456.528 447.955 456.528 447.955 456.528 447.955 456.527ZM436.28 450.562C436.56 449.893 437.329 449.578 437.997 449.858 439.984 450.691 442.014 451.662 444.028 452.743 444.657 453.104 444.873 453.907 444.512 454.535 444.165 455.137 443.41 455.365 442.788 455.055 440.845 454.014 438.894 453.08 436.982 452.279 436.315 451.999 436 451.23 436.28 450.562ZM423.584 447.392C423.672 446.673 424.326 446.161 425.045 446.248 427.285 446.532 429.499 446.99 431.667 447.62 432.37 447.795 432.798 448.508 432.622 449.211 432.447 449.914 431.735 450.342 431.031 450.167 431.002 450.159 430.973 450.151 430.945 450.142 428.909 449.552 426.831 449.121 424.728 448.854 424.009 448.766 423.496 448.112 423.584 447.392Z" fill="#BFBFBF" fill-rule="nonzero" fill-opacity="1"/></g></g></g><g clip-path="url(#clip20)" filter="url(#fx2)" transform="matrix(4.0087 0 0 4.0087 228 260)"><g clip-path="url(#clip21)"><g clip-path="url(#clip22)" transform="matrix(1 0 0 1 -1.54972e-06 -2.5034e-06)"><g clip-path="url(#clip23)" transform="matrix(1 0 0 1 -1.54972e-06 -2.5034e-06)"><g clip-path="url(#clip24)" transform="matrix(1 0 0 1 -1.54972e-06 -2.5034e-06)"><path d="M49.1501 65.7528C51.0733 67.6792 53.2463 69.2048 55.4359 70.1644 57.642 71.0976 59.5348 71.494 61.6369 71.1428 63.832 70.7414 65.411 69.392 66.3436 67.2922 68.2106 63.0572 69.9823 53.5402 71.3174 45.7223 71.5574 44.5336 70.4189 43.3923 69.2291 43.6301 61.4084 44.9476 51.8875 46.6984 47.6488 48.556 45.528 49.4853 44.1929 51.1101 43.7877 53.2545 43.4441 55.0735 43.7778 57.2185 44.7528 59.4571 45.7069 61.6489 47.2276 63.8258 49.1501 65.7528ZM65.1539 65.363C65.248 65.9291 65.2828 66.5035 65.2579 67.0769 65.2488 67.2592 65.0936 67.3996 64.9113 67.3904 64.729 67.3813 64.5887 67.2261 64.5978 67.0439 64.6203 66.5164 64.588 65.9879 64.5014 65.467 64.4716 65.2871 64.5933 65.1169 64.7733 65.0872 64.9533 65.0573 65.1234 65.179 65.1532 65.359 65.1534 65.3603 65.1536 65.3617 65.1539 65.363ZM63.723 61.9649C63.8891 61.8909 64.0838 61.9655 64.158 62.1317 64.1581 62.1321 64.1583 62.1325 64.1585 62.1328 64.3875 62.6473 64.5876 63.1741 64.758 63.7108 64.8129 63.8848 64.7163 64.0704 64.5422 64.1253 64.3681 64.1802 64.1825 64.0836 64.1276 63.9095 63.9648 63.3962 63.7734 62.8924 63.5545 62.4004 63.4808 62.2337 63.5562 62.0387 63.723 61.9649ZM62.0713 59.1075C62.2224 59.0062 62.4271 59.0465 62.5285 59.1976 62.5288 59.198 62.5291 59.1985 62.5293 59.1989 62.8448 59.6713 63.1399 60.1525 63.4058 60.6293 63.4948 60.7886 63.4377 60.9899 63.2784 61.0788 63.119 61.1677 62.9178 61.1107 62.8288 60.9513 62.5712 60.49 62.286 60.0236 61.9799 59.5656 61.8786 59.4138 61.9196 59.2088 62.0713 59.1075ZM60.0122 56.5265C60.1485 56.4054 60.3571 56.4174 60.4785 56.5535 60.8518 56.9724 61.2118 57.4052 61.5493 57.8401 61.6612 57.9843 61.6351 58.1918 61.491 58.3037 61.3468 58.4156 61.1393 58.3895 61.0274 58.2453 60.6993 57.8225 60.3486 57.4008 59.9852 56.9928 59.8641 56.8565 59.8761 56.6479 60.0122 56.5265ZM57.6343 54.2361C57.754 54.0985 57.9627 54.0837 58.1006 54.2031 58.5168 54.5648 58.9298 54.9475 59.3273 55.3406 59.4578 55.4681 59.4602 55.6772 59.3326 55.8077 59.2051 55.9382 58.996 55.9406 58.8655 55.8131 58.8645 55.8121 58.8635 55.8112 58.8626 55.8102 58.4756 55.4276 58.0731 55.0543 57.6673 54.7019 57.5297 54.5824 57.5149 54.3739 57.6343 54.2361ZM54.9718 52.285C55.0703 52.132 55.2743 52.0878 55.4273 52.1864 55.4276 52.1866 55.4279 52.1868 55.4282 52.187 55.8885 52.4843 56.3498 52.808 56.8008 53.1488 56.9463 53.2588 56.9749 53.466 56.8649 53.6115 56.7548 53.757 56.5477 53.7857 56.4021 53.6757 55.9644 53.3448 55.5163 53.0304 55.0692 52.7414 54.9163 52.6423 54.8726 52.4381 54.9717 52.2851 54.9717 52.2851 54.9717 52.285 54.9718 52.285ZM52.0334 50.7836C52.1039 50.6153 52.2973 50.5359 52.4656 50.6063 52.9655 50.8161 53.4765 51.0605 53.9835 51.3325 54.1416 51.4234 54.1962 51.6254 54.1052 51.7836 54.018 51.9351 53.8278 51.9925 53.6714 51.9144 53.1825 51.6524 52.6914 51.4173 52.2102 51.2158 52.0421 51.1451 51.963 50.9517 52.0334 50.7836ZM48.838 49.9858C48.8601 49.8047 49.0247 49.6758 49.2058 49.6979 49.7695 49.7692 50.3267 49.8846 50.8723 50.0431 51.0493 50.0872 51.157 50.2665 51.1128 50.4435 51.0687 50.6206 50.8894 50.7282 50.7124 50.6841 50.705 50.6823 50.6978 50.6802 50.6906 50.6779 50.1783 50.5293 49.6551 50.4209 49.1259 50.3536 48.9448 50.3315 48.816 50.1669 48.838 49.9858Z" fill="#FFFFFF" fill-rule="nonzero" fill-opacity="1"/></g></g></g></g></g><g clip-path="url(#clip25)"><g clip-path="url(#clip26)"><g clip-path="url(#clip27)"><path d="M425.028 509.833C432.737 517.555 441.448 523.671 450.226 527.518 459.069 531.259 466.657 532.848 475.084 531.44 483.883 529.831 490.213 524.421 493.951 516.004 501.436 499.027 508.538 460.877 513.89 429.537 514.852 424.772 510.288 420.196 505.519 421.15 474.168 426.431 436.001 433.45 419.009 440.896 410.508 444.622 405.156 451.135 403.532 459.731 402.154 467.023 403.492 475.622 407.4 484.596 411.225 493.382 417.321 502.108 425.028 509.833ZM489.182 508.27C489.559 510.54 489.699 512.842 489.599 515.141 489.563 515.872 488.941 516.434 488.21 516.398 487.479 516.361 486.916 515.739 486.953 515.008 487.043 512.894 486.914 510.776 486.567 508.687 486.447 507.966 486.935 507.284 487.657 507.165 488.378 507.045 489.06 507.533 489.179 508.254 489.18 508.26 489.181 508.265 489.182 508.27ZM483.446 494.649C484.112 494.352 484.893 494.651 485.19 495.317 485.19 495.319 485.191 495.32 485.192 495.322 486.11 497.384 486.912 499.496 487.595 501.647 487.815 502.345 487.428 503.089 486.73 503.309 486.032 503.529 485.288 503.142 485.068 502.444 484.415 500.386 483.648 498.367 482.771 496.394 482.475 495.726 482.778 494.944 483.446 494.649ZM476.825 483.194C477.431 482.788 478.251 482.949 478.658 483.555 478.659 483.557 478.66 483.559 478.661 483.56 479.926 485.454 481.109 487.383 482.175 489.294 482.531 489.933 482.303 490.74 481.664 491.096 481.025 491.453 480.218 491.224 479.862 490.585 478.829 488.736 477.686 486.867 476.459 485.03 476.053 484.422 476.217 483.6 476.825 483.194ZM468.571 472.847C469.117 472.362 469.953 472.41 470.44 472.956 471.936 474.635 473.38 476.37 474.733 478.113 475.181 478.691 475.076 479.523 474.499 479.972 473.921 480.42 473.089 480.316 472.64 479.738 471.325 478.043 469.919 476.352 468.462 474.717 467.977 474.17 468.025 473.334 468.571 472.847ZM459.038 463.666C459.518 463.114 460.355 463.055 460.908 463.534 462.576 464.984 464.232 466.518 465.825 468.094 466.348 468.605 466.358 469.443 465.846 469.966 465.335 470.489 464.497 470.499 463.974 469.988 463.97 469.984 463.966 469.98 463.962 469.976 462.411 468.442 460.797 466.946 459.171 465.533 458.619 465.054 458.56 464.218 459.038 463.666ZM448.365 455.844C448.76 455.231 449.578 455.054 450.191 455.449 450.192 455.45 450.194 455.451 450.195 455.452 452.04 456.643 453.889 457.941 455.697 459.307 456.28 459.749 456.395 460.579 455.954 461.162 455.513 461.746 454.682 461.861 454.099 461.419 452.344 460.093 450.548 458.833 448.756 457.674 448.143 457.277 447.968 456.458 448.365 455.845 448.365 455.845 448.365 455.845 448.365 455.844ZM436.586 449.826C436.869 449.151 437.644 448.833 438.319 449.115 440.323 449.956 442.371 450.936 444.404 452.026 445.037 452.391 445.256 453.2 444.891 453.835 444.542 454.442 443.779 454.672 443.152 454.359 441.192 453.309 439.224 452.366 437.295 451.558 436.621 451.275 436.304 450.5 436.586 449.826ZM423.777 446.628C423.865 445.902 424.525 445.385 425.251 445.474 427.511 445.759 429.744 446.222 431.932 446.857 432.641 447.034 433.073 447.753 432.896 448.463 432.719 449.172 432 449.604 431.29 449.427 431.261 449.42 431.232 449.411 431.203 449.402 429.149 448.807 427.052 448.372 424.931 448.102 424.205 448.014 423.688 447.354 423.777 446.628Z" fill="#FFFFFF" fill-rule="nonzero" fill-opacity="1"/></g></g></g></g></svg>