<svg id="alchool" enable-background="new 0 0 300 300" height="512" viewBox="0 0 300 300" width="512" xmlns="http://www.w3.org/2000/svg"><g><circle cx="228" cy="192" r="4"/><circle cx="152" cy="244" r="4"/><path d="m260 264h-136.744c.453-1.265.744-2.607.744-4.025v-125.11c0-7.16-5.086-13.152-11.836-14.555l-11.586-60.646c4.27-1.141 7.422-5.041 7.422-9.664 0-3.254-1.586-6.123-4-7.95v-2.654c0-6.283-5.113-11.396-11.398-11.396h-13.204c-6.285 0-11.398 5.113-11.398 11.396v2.654c-2.414 1.827-4 4.696-4 7.95 0 4.508 2.996 8.328 7.105 9.572l-11.625 60.817c-6.57 1.535-11.48 7.443-11.48 14.476v125.109c0 1.418.291 2.761.744 4.025h-12.744c-2.211 0-4 1.791-4 4s1.789 4 4 4h224c2.211 0 4-1.791 4-4s-1.789-3.999-4-3.999zm-184-224.604c0-1.873 1.523-3.396 3.398-3.396h13.203c1.876 0 3.399 1.523 3.399 3.396v.604h-20zm40 220.579c0 2.219-1.805 4.025-4.027 4.025h-51.946c-2.223 0-4.027-1.807-4.027-4.025v-43.975h60zm0-51.975h-60v-36h60zm0-44h-60v-29.135c0-3.785 3.078-6.865 6.863-6.865 1.918 0 3.57-1.363 3.93-3.25l12.996-68c.223-1.17-.086-2.381-.848-3.299-.757-.92-1.89-1.451-3.082-1.451h-1.859c-1.102 0-2-.896-2-2s.898-2 2-2h24c1.102 0 2 .896 2 2s-.898 2-2 2h-2.195c-1.191 0-2.324.531-3.082 1.451-.762.918-1.07 2.129-.848 3.299l12.992 68c.359 1.887 2.352 3.25 4.27 3.25 3.785 0 6.863 3.08 6.863 6.865z"/><path d="m75.172 200.828c.781.781 1.805 1.172 2.828 1.172s2.047-.391 2.828-1.172l18-18c1.562-1.562 1.562-4.094 0-5.656s-4.094-1.562-5.656 0l-18 18c-1.563 1.562-1.563 4.094 0 5.656z"/><path d="m78.142 186.668c2.362 0 4.276-1.915 4.276-4.276s-1.915-4.277-4.276-4.277-4.277 1.915-4.277 4.277 1.916 4.276 4.277 4.276z"/><path d="m94.142 194.115c-2.362 0-4.277 1.915-4.277 4.277s1.915 4.276 4.277 4.276 4.276-1.915 4.276-4.276-1.914-4.277-4.276-4.277z"/><path d="m188 197.852c0-2.209-1.789-4-4-4s-4 1.791-4 4v5.66c0 2.209 1.789 4 4 4s4-1.791 4-4z"/><path d="m184 216.488c-2.211 0-4 1.791-4 4v5.66c0 2.209 1.789 4 4 4s4-1.791 4-4v-5.66c0-2.209-1.789-4-4-4z"/><path d="m169.852 208c-2.211 0-4 1.791-4 4s1.789 4 4 4h5.66c2.211 0 4-1.791 4-4s-1.789-4-4-4z"/><path d="m192.488 208c-2.211 0-4 1.791-4 4s1.789 4 4 4h5.66c2.211 0 4-1.791 4-4s-1.789-4-4-4z"/><path d="m145.969 163.666h6.031v16.334c0 1.617.973 3.076 2.469 3.695.496.205 1.015.305 1.531.305 1.039 0 2.062-.406 2.828-1.172l18.836-18.838 60.371-.324c9.906 0 17.965-8.033 17.965-17.908v-57.882c7.329-6.241 12-15.517 12-25.876 0-18.748-15.254-34-34-34s-34 15.252-34 34c0 .675.062 1.334.101 2h-54.133c-9.906 0-17.968 8.033-17.968 17.908v63.85c0 9.875 8.062 17.908 17.969 17.908zm88.031-127.666c14.336 0 26 11.664 26 26s-11.664 26-26 26-26-11.664-26-26 11.664-26 26-26zm-22 96h-40c-2.211 0-4 1.791-4 4v6c0 1.104-.898 2-2 2s-2-.896-2-2v-6c0-2.209-1.789-4-4-4h-2.727c-2.77 0-5.023-2.254-5.023-5.023v-13.953c0-2.77 2.254-5.023 5.023-5.023h69.953c2.77 0 5.023 2.254 5.023 5.023v13.953c0 2.77-2.254 5.023-5.023 5.023h-3.226c-2.211 0-4 1.791-4 4v6c0 1.104-.898 2-2 2s-2-.896-2-2v-6c0-2.209-1.789-4-4-4zm11.467-32h-62.433l2.08-11.566c.461-2.568 2.691-4.434 5.301-4.434h39.71c3.778 4.436 8.675 7.87 14.248 9.908zm-87.467-18.092c0-5.463 4.473-9.908 9.969-9.908h55.537c.425 1.377.957 2.704 1.546 4h-34.638c-6.484 0-12.027 4.633-13.176 11.018l-2.488 13.839c-4.948 1.847-8.501 6.582-8.501 12.167v13.953c0 6.752 5.164 12.32 11.75 12.961v2.062c0 5.514 4.484 10 10 10s10-4.486 10-10v-2h32v2c0 5.514 4.484 10 10 10s10-4.486 10-10v-2.023c6.824-.4 12.25-6.078 12.25-13v-13.953c0-5.585-3.552-10.32-8.5-12.167l-.901-5.016c1.039.096 2.088.159 3.152.159 4.994 0 9.724-1.11 14-3.052v52.81c0 5.463-4.469 9.908-9.988 9.908l-62.035.334c-1.051.006-2.059.426-2.805 1.172l-13.172 13.172v-10.678c0-2.209-1.789-4-4-4h-10.031c-5.496 0-9.969-4.445-9.969-9.908z"/><circle cx="218.25" cy="118.848" r="6"/><circle cx="166.25" cy="118.848" r="6"/><path d="m234 80c9.926 0 18-8.074 18-18s-8.074-18-18-18-18 8.074-18 18 8.074 18 18 18zm0-8c-1.286 0-2.506-.265-3.635-.708l12.927-12.927c.444 1.129.708 2.35.708 3.635 0 5.514-4.484 10-10 10zm0-20c1.286 0 2.506.265 3.635.708l-12.927 12.927c-.444-1.129-.708-2.35-.708-3.635 0-5.514 4.484-10 10-10z"/></g></svg>