<svg id="fire" enable-background="new 0 0 300 300" height="512" viewBox="0 0 300 300" width="512" xmlns="http://www.w3.org/2000/svg"><g><path d="m82 58.586c2.209 0 4-1.791 4-4v-5.66c0-2.209-1.791-4-4-4s-4 1.791-4 4v5.66c0 2.209 1.791 4 4 4z"/><path d="m82 81.223c2.209 0 4-1.791 4-4v-5.66c0-2.209-1.791-4-4-4s-4 1.791-4 4v5.66c0 2.209 1.791 4 4 4z"/><path d="m67.852 67.074h5.66c2.209 0 4-1.791 4-4s-1.791-4-4-4h-5.66c-2.209 0-4 1.791-4 4s1.791 4 4 4z"/><path d="m90.488 67.074h5.66c2.209 0 4-1.791 4-4s-1.791-4-4-4h-5.66c-2.209 0-4 1.791-4 4s1.791 4 4 4z"/><path d="m170 203.074c-11.027 0-20 8.973-20 20s8.973 20 20 20 20-8.973 20-20-8.973-20-20-20zm0 32c-6.617 0-12-5.383-12-12s5.383-12 12-12 12 5.383 12 12-5.383 12-12 12z"/><path d="m90 175.074h-8c-2.209 0-4 1.791-4 4s1.791 4 4 4h8c2.209 0 4-1.791 4-4s-1.791-4-4-4z"/><path d="m266 247.074h-74.905c2.601-2.289 4.825-4.986 6.575-8h20.33c1.338 0 2.586-.668 3.328-1.781l8-12c.438-.656.672-1.43.672-2.219v-32-5.818-2.189c0-8.525-5.388-15.767-12.917-18.636 3.651-5.637 8.321-15.539 8.474-29.481.168-15.391-11.506-30.514-12.002-31.15-.986-1.26-2.631-1.822-4.172-1.404-1.547.406-2.701 1.697-2.938 3.277-.793 5.336-3.748 10.008-6.393 13.256l-3.781-14.396c-.328-1.248-1.236-2.262-2.441-2.721-1.207-.461-2.559-.312-3.635.4l-6.766 4.477c.607-11.223-2.16-23.084-2.312-23.727-.396-1.67-1.814-2.9-3.523-3.059-1.711-.152-3.328.793-4.025 2.361-.059.133-5.975 13.389-12.59 22.15-3.27 4.328-8.041 7.916-10.801 9.793l-13.778-10.332c-1.395-1.045-3.297-1.055-4.711-.049-1.42 1.008-2.02 2.828-1.492 4.486.125.398 2.757 9.121-2.24 21.499-14.18-9.489-31.635-14.737-49.651-14.737h-24.306c-2.209 0-4 1.791-4 4s1.791 4 4 4h12v40h-12c-2.209 0-4 1.791-4 4s1.791 4 4 4h12v48h-12c-2.209 0-4 1.791-4 4v12c0 2.209 1.791 4 4 4h88.33c1.75 3.014 3.974 5.711 6.575 8h-114.905c-2.209 0-4 1.791-4 4s1.791 4 4 4h232c2.209 0 4-1.791 4-4s-1.791-4-4-4zm-50.141-16h-14.913c.338-1.305.604-2.636.775-4h16.804zm6.141-45.818v1.818h-11.709c-2.268 0-4.131-1.77-4.281-4h13.809c1.202 0 2.181.979 2.181 2.182zm-3.117-10.182h-16.883c-2.209 0-4 1.791-4 4v3.709c0 6.777 5.514 12.291 12.291 12.291h11.709v8h-12c-2.209 0-4 1.791-4 4s1.791 4 4 4h12v8h-20.278c-1.979-15.76-15.435-28-31.722-28s-29.744 12.24-31.722 28h-3.982c1.362-13.209 8.921-23.462 21.167-28.277 1.531-.602 2.537-2.078 2.537-3.723v-16h52 .008c3.532 0 6.679 1.563 8.875 4zm-79.901-59.263 8.617 6.463c1.289.969 3.025 1.064 4.412.258.389-.225 9.541-5.605 15.35-13.297 2.895-3.832 5.611-8.336 7.838-12.385.518 5.811.521 12.303-1.004 16.988-.525 1.617.029 3.391 1.383 4.42 1.352 1.029 3.213 1.09 4.629.152l9.744-6.445 4.162 15.846c.346 1.314 1.332 2.363 2.623 2.785 1.287.424 2.705.162 3.764-.691.369-.299 7.1-5.828 11.145-14.346 2.836 5.09 5.988 12.334 5.912 19.305-.168 15.389-6.791 25.039-9.361 28.211h-97.998c.318-3.943 1.152-10.139 3.344-15.451l2.328 5.043c.533 1.156 1.584 1.988 2.83 2.244 1.254.256 2.543-.098 3.484-.953.527-.479 5.336-5.016 11.334-16.998 4.162-8.312 5.363-15.671 5.464-21.149zm-64.982 7.263h4.307c16.828 0 33.086 4.985 46.109 13.988-1.479 2.665-2.833 4.81-3.966 6.438l-2.818-6.102c-.57-1.236-1.73-2.098-3.08-2.285-1.348-.213-2.699.322-3.586 1.355-6.587 7.677-8.331 20.209-8.794 26.605h-28.172zm0 48h76v13.361c-13.932 6.442-22.405 18.89-23.741 34.639h-52.259zm-16 60v-4h80.278c.171 1.364.438 2.695.775 4zm88-8c0-13.234 10.766-24 24-24s24 10.766 24 24-10.766 24-24 24-24-10.765-24-24z"/><circle cx="190" cy="147.074" r="4"/><path d="m158 155.074c6.617 0 12-5.383 12-12 0-2.209-1.791-4-4-4s-4 1.791-4 4c0 2.205-1.795 4-4 4s-4-1.795-4-4 1.795-4 4-4c2.209 0 4-1.791 4-4s-1.791-4-4-4c-6.617 0-12 5.383-12 12s5.383 12 12 12z"/><path d="m144 61.604c2.502 0 4.53-2.028 4.53-4.529 0-2.502-2.028-4.53-4.53-4.53-2.501 0-4.529 2.028-4.529 4.53 0 2.501 2.028 4.529 4.529 4.529z"/></g></svg>