<svg id="funeral" enable-background="new 0 0 300 300" height="512" viewBox="0 0 300 300" width="512" xmlns="http://www.w3.org/2000/svg"><g><path d="m236 52.529c2.501 0 4.53-2.028 4.53-4.529 0-2.502-2.028-4.53-4.53-4.53s-4.53 2.028-4.53 4.53c0 2.501 2.029 4.529 4.53 4.529z"/><path d="m147.969 165.666h6.033v16.334c0 1.617.975 3.076 2.469 3.695.496.205 1.016.305 1.531.305 1.041 0 2.062-.406 2.828-1.172l18.838-18.838 60.365-.324c9.908 0 17.969-8.033 17.969-17.908v-63.85c0-9.875-8.061-17.908-17.969-17.908h-92.064c-9.906 0-17.967 8.033-17.967 17.908v63.85c0 9.875 8.06 17.908 17.967 17.908zm-9.967-81.758c0-5.463 4.471-9.908 9.967-9.908h92.064c5.496 0 9.969 4.445 9.969 9.908v63.85c0 5.463-4.473 9.908-9.99 9.908l-62.032.334c-1.053.006-2.062.426-2.807 1.172l-13.172 13.172v-10.678c0-2.209-1.791-4-4-4h-10.033c-5.496 0-9.967-4.445-9.967-9.908v-63.85z"/><path d="m158 141.938v2.062c0 5.514 4.486 10 10 10s10-4.486 10-10v-2h32v2c0 5.514 4.486 10 10 10s10-4.486 10-10v-2.023c6.822-.4 12.25-6.078 12.25-13v-13.953c0-5.585-3.552-10.32-8.5-12.167l-2.488-13.839c-1.147-6.385-6.688-11.018-13.176-11.018h-47.672c-6.484 0-12.025 4.633-13.176 11.018l-2.488 13.839c-4.949 1.847-8.5 6.582-8.5 12.167v13.953c0 6.752 5.164 12.32 11.75 12.961zm12.414-55.938h47.672c2.611 0 4.84 1.863 5.301 4.432l2.08 11.568h-62.433l2.08-11.566c.46-2.569 2.691-4.434 5.3-4.434zm-16.164 29.023c0-2.77 2.254-5.023 5.023-5.023h69.953c2.77 0 5.023 2.254 5.023 5.023v13.953c0 2.77-2.254 5.023-5.023 5.023h-3.226c-2.209 0-4 1.791-4 4v6c0 1.104-.896 2-2 2s-2-.896-2-2v-6c0-2.209-1.791-4-4-4h-40c-2.209 0-4 1.791-4 4v6c0 1.104-.896 2-2 2s-2-.896-2-2v-6c0-2.209-1.791-4-4-4h-2.727c-2.77 0-5.023-2.254-5.023-5.023z"/><circle cx="220.25" cy="120.848" r="6"/><circle cx="168.25" cy="120.848" r="6"/><path d="m82 126c6.617 0 12-5.383 12-12s-5.383-12-12-12h-5.09c-2.504-7.035-9.25-12-16.91-12s-14.406 4.965-16.91 12h-1.09c-6.617 0-12 5.383-12 12s5.383 12 12 12zm-44-12c0-2.205 1.795-4 4-4h4.201c1.988 0 3.674-1.461 3.959-3.428.705-4.886 4.936-8.572 9.84-8.572s9.135 3.686 9.84 8.572c.285 1.967 1.971 3.428 3.959 3.428h8.201c2.205 0 4 1.795 4 4s-1.795 4-4 4h-40c-2.205 0-4-1.795-4-4z"/><path d="m78 78h40c6.617 0 12-5.383 12-12s-5.383-12-12-12h-5.09c-2.504-7.035-9.25-12-16.91-12s-14.406 4.965-16.91 12h-1.09c-6.617 0-12 5.383-12 12s5.383 12 12 12zm0-16h4.201c1.988 0 3.674-1.461 3.959-3.428.705-4.886 4.936-8.572 9.84-8.572s9.135 3.686 9.84 8.572c.285 1.967 1.971 3.428 3.959 3.428h8.201c2.205 0 4 1.795 4 4s-1.795 4-4 4h-40c-2.205 0-4-1.795-4-4s1.795-4 4-4z"/><path d="m238 222h-112v-28c0-14.078-10.454-25.729-24-27.681v-12.319h4c2.209 0 4-1.791 4-4s-1.791-4-4-4h-4v-4c0-2.209-1.791-4-4-4s-4 1.791-4 4v4h-4c-2.209 0-4 1.791-4 4s1.791 4 4 4h4v12.319c-13.546 1.952-24 13.603-24 27.681v28.278c-15.76 1.978-28 15.435-28 31.722 0 2.209 1.791 4 4 4s4-1.791 4-4c0-13.234 10.766-24 24-24h164c13.234 0 24 10.766 24 24 0 2.209 1.791 4 4 4s4-1.791 4-4c0-17.645-14.355-32-32-32zm-140-48c11.027 0 20 8.973 20 20v28h-40v-28c0-11.027 8.973-20 20-20z"/><path d="m90 194h16c2.209 0 4-1.791 4-4s-1.791-4-4-4h-16c-2.209 0-4 1.791-4 4s1.791 4 4 4z"/><path d="m102 198h-8c-2.209 0-4 1.791-4 4s1.791 4 4 4h8c2.209 0 4-1.791 4-4s-1.791-4-4-4z"/><path d="m218 179.852c0-2.209-1.791-4-4-4s-4 1.791-4 4v5.66c0 2.209 1.791 4 4 4s4-1.791 4-4z"/><path d="m214 198.488c-2.209 0-4 1.791-4 4v5.66c0 2.209 1.791 4 4 4s4-1.791 4-4v-5.66c0-2.209-1.791-4-4-4z"/><path d="m199.852 190c-2.209 0-4 1.791-4 4s1.791 4 4 4h5.66c2.209 0 4-1.791 4-4s-1.791-4-4-4z"/><path d="m222.488 190c-2.209 0-4 1.791-4 4s1.791 4 4 4h5.66c2.209 0 4-1.791 4-4s-1.791-4-4-4z"/></g></svg>