<svg id="journalist" enable-background="new 0 0 300 300" height="512" viewBox="0 0 300 300" width="512" xmlns="http://www.w3.org/2000/svg"><g><circle cx="250" cy="197.999" r="4"/><circle cx="126" cy="125.999" r="4"/><circle cx="86" cy="125.999" r="4"/><path d="m106 145.999c-4.23 0-8.195 2.295-10.348 5.986-.721 1.238-.725 2.766-.012 4.008.715 1.24 2.037 2.006 3.469 2.006h13.781c1.432 0 2.754-.766 3.469-2.006.713-1.242.709-2.77-.012-4.008-2.152-3.691-6.117-5.986-10.347-5.986z"/><path d="m62 229.999c-2.209 0-4 1.791-4 4v28c0 2.209 1.791 4 4 4s4-1.791 4-4v-28c0-2.209-1.791-4-4-4z"/><path d="m248.035 65.999h-87.852c-9.916-19.482-30.969-32-54.183-32-33.084 0-60 25.121-60 56 0 10.162 2.96 20.053 8.518 28.719-.325 1.105-.518 2.269-.518 3.484v1.561c0 2.048.389 4.027 1.044 5.897-8.284 7.912-13.044 18.831-13.044 30.339 0 10.059 3.67 19.817 10.178 27.394-11.251 7.694-18.178 20.177-18.178 33.704v40.902c0 2.209 1.791 4 4 4s4-1.791 4-4v-40.902c0-13.191 8.266-25.195 20.814-30.488l11.186-3.877v11.267c0 2.927.848 5.637 2.226 8h-2.226c-2.209 0-4 1.791-4 4v16c0 2.209 1.791 4 4 4h4v4c-2.209 0-4 1.791-4 4v24c0 2.209 1.791 4 4 4 0 0 23.997.002 24 .002h59.867c4.242 0 8.246-1.672 11.273-4.705 3.125-3.131 4.84-7.316 4.828-11.775l.032-28.424c0-16.418-10.188-31.316-26.09-38.01l-20.604-7.792c5.227-3.985 9.738-8.972 12.177-14.705 3.237 3.129 7.632 5.075 12.486 5.075h6.031v16.334c0 1.617.973 3.076 2.469 3.695.496.205 1.016.305 1.531.305 1.039 0 2.062-.406 2.828-1.172l18.836-18.838 60.371-.324c9.906 0 17.965-8.033 17.965-17.908v-63.85c0-9.875-8.059-17.908-17.965-17.908zm-142.035-24c18.997 0 36.292 9.547 45.41 24.657-7.692 2.025-13.41 8.956-13.41 17.251v15.543c-39.071 4.043-54.263-3.342-60-10.781v-10.67c0-2.209-1.791-4-4-4s-4 1.791-4 4v10.674c-4.254 5.682-8 12.243-8 21.326v.748c-.807.291-1.553.69-2.268 1.135-3.749-6.744-5.732-14.228-5.732-21.883 0-26.467 23.326-48 52-48zm-46.049 141.143c-.19.08-.369.176-.558.259-6.049-6.341-9.393-14.562-9.393-23.402 0-8.055 2.892-15.748 8-21.833v7.833c0 2.209 1.791 4 4 4 1.714 0 3.149-1.089 3.718-2.604l1.102 7.437c1.236 8.349 7.183 14.951 12.518 19.326-1.058.953-2 2.019-2.774 3.22zm22.049 14.857v-12c0-4.412 3.588-8 8-8s8 3.588 8 8v12c0 4.412-3.588 8-8 8s-8-3.588-8-8zm-4 24v-8h24v8zm8 8h8v4h-8zm-4 12h16v16h-16zm66.945-51.482c12.789 5.384 21.055 17.388 21.055 30.576l-.031 28.434c.004 2.33-.879 4.504-2.492 6.119-1.516 1.52-3.508 2.355-5.609 2.355h-55.868v-12.002h44.688c2.211 0 4-1.791 4-4v-24c0-2.209-1.789-4-4-4s-4 1.791-4 4v20h-40.688c0-2.209-1.791-4-4-4v-4h4c2.209 0 4-1.791 4-4v-16c0-2.209-1.791-4-4-4h-2.226c1.378-2.363 2.226-5.073 2.226-8v-12c3.896 0 10.309-1.92 16.84-5.352zm-11.679-36.858c-1.969 13.283-23.689 24.34-31.266 24.34-.633 0-1.481-.13-2.397-.315-2.816-4.589-7.836-7.685-13.603-7.685-.864 0-1.697.123-2.524.255-7.277-5.049-11.919-11.039-12.741-16.595l-2.5-16.873c-.229-1.547-1.338-2.818-2.838-3.254-4.424-1.289-7.396-5.215-7.396-9.77v-1.561c0-2.289 1.801-4.127 4.1-4.186 2.17-.055 3.9-1.828 3.9-3.998v-4.02c0-5.23 1.576-9.33 4.268-13.502 10.847 10.479 32.252 14.158 63.732 11.001v6.501 33.758c0 .205.054.395.061.599-.003.018-.015.032-.018.05zm120.734-5.902c0 5.463-4.469 9.908-9.988 9.908l-62.035.334c-1.051.006-2.059.426-2.805 1.172l-13.172 13.172v-10.678c0-2.209-1.789-4-4-4h-10.031c-5.496 0-9.969-4.445-9.969-9.908v-63.85c0-5.463 4.473-9.908 9.969-9.908h92.066c5.496 0 9.965 4.445 9.965 9.908z"/><path d="m241.75 102.856-2.488-13.841c-1.148-6.383-6.691-11.016-13.176-11.016h-47.672c-6.484 0-12.027 4.633-13.176 11.018l-2.488 13.839c-4.948 1.847-8.501 6.582-8.501 12.167v13.953c0 6.752 5.164 12.32 11.75 12.961v2.062c0 5.514 4.484 10 10 10s10-4.486 10-10v-2h32v2c0 5.514 4.484 10 10 10s10-4.486 10-10v-2.023c6.824-.4 12.25-6.078 12.25-13v-13.953c.001-5.585-3.551-10.32-8.499-12.167zm-63.336-16.857h47.672c2.609 0 4.84 1.865 5.301 4.432l2.08 11.568h-62.433l2.08-11.566c.46-2.569 2.691-4.434 5.3-4.434zm63.836 42.977c0 2.77-2.254 5.023-5.023 5.023h-3.227c-2.211 0-4 1.791-4 4v6c0 1.104-.898 2-2 2s-2-.896-2-2v-6c0-2.209-1.789-4-4-4h-40c-2.211 0-4 1.791-4 4v6c0 1.104-.898 2-2 2s-2-.896-2-2v-6c0-2.209-1.789-4-4-4h-2.727c-2.77 0-5.023-2.254-5.023-5.023v-13.953c0-2.77 2.254-5.023 5.023-5.023h69.953c2.77 0 5.023 2.254 5.023 5.023v13.953z"/><circle cx="228.25" cy="120.847" r="6"/><circle cx="176.25" cy="120.847" r="6"/><path d="m86 109.999h-8c-2.209 0-4 1.791-4 4s1.791 4 4 4h8c2.209 0 4-1.791 4-4s-1.791-4-4-4z"/><path d="m134 109.999h-8c-2.209 0-4 1.791-4 4s1.791 4 4 4h8c2.209 0 4-1.791 4-4s-1.791-4-4-4z"/><path d="m222 203.851c-2.211 0-4 1.791-4 4v5.66c0 2.209 1.789 4 4 4s4-1.791 4-4v-5.66c0-2.209-1.789-4-4-4z"/><path d="m222 226.487c-2.211 0-4 1.791-4 4v5.66c0 2.209 1.789 4 4 4s4-1.791 4-4v-5.66c0-2.209-1.789-4-4-4z"/><path d="m213.512 217.999h-5.66c-2.211 0-4 1.791-4 4s1.789 4 4 4h5.66c2.211 0 4-1.791 4-4s-1.789-4-4-4z"/><path d="m236.148 217.999h-5.66c-2.211 0-4 1.791-4 4s1.789 4 4 4h5.66c2.211 0 4-1.791 4-4s-1.789-4-4-4z"/></g></svg>