<svg id="lights" enable-background="new 0 0 300 300" height="512" viewBox="0 0 300 300" width="512" xmlns="http://www.w3.org/2000/svg"><g><path d="m82 69.512c2.211 0 4-1.791 4-4v-5.66c0-2.209-1.789-4-4-4s-4 1.791-4 4v5.66c0 2.209 1.789 4 4 4z"/><path d="m82 92.148c2.211 0 4-1.791 4-4v-5.66c0-2.209-1.789-4-4-4s-4 1.791-4 4v5.66c0 2.209 1.789 4 4 4z"/><path d="m67.852 78h5.66c2.211 0 4-1.791 4-4s-1.789-4-4-4h-5.66c-2.211 0-4 1.791-4 4s1.789 4 4 4z"/><path d="m90.488 78h5.66c2.211 0 4-1.791 4-4s-1.789-4-4-4h-5.66c-2.211 0-4 1.791-4 4s1.789 4 4 4z"/><path d="m136 52.529c2.501 0 4.53-2.028 4.53-4.529 0-2.502-2.028-4.53-4.53-4.53s-4.53 2.028-4.53 4.53c0 2.501 2.029 4.529 4.53 4.529z"/><path d="m166 214c-11.027 0-20 8.973-20 20s8.973 20 20 20 20-8.973 20-20-8.973-20-20-20zm0 32c-6.617 0-12-5.383-12-12s5.383-12 12-12 12 5.383 12 12-5.383 12-12 12z"/><path d="m86 186h-8c-2.211 0-4 1.791-4 4s1.789 4 4 4h8c2.211 0 4-1.791 4-4s-1.789-4-4-4z"/><path d="m266 258h-28v-116h16c2.211 0 4-1.791 4-4v-100c0-2.209-1.789-4-4-4h-52c-2.211 0-4 1.791-4 4v100c0 2.209 1.789 4 4 4h16v36.098c-3.351-2.536-7.476-4.098-11.992-4.098h-50.133l-15.73-18.875c-15.196-18.236-39.809-29.125-65.836-29.125h-24.309c-2.211 0-4 1.791-4 4s1.789 4 4 4h12v40h-12c-2.211 0-4 1.791-4 4s1.789 4 4 4h12v48h-12c-2.211 0-4 1.791-4 4v12c0 2.209 1.789 4 4 4h88.33c1.75 3.014 3.974 5.711 6.575 8h-110.905c-2.211 0-4 1.791-4 4s1.789 4 4 4h232c2.211 0 4-1.791 4-4s-1.789-4-4-4zm-60-216h22 22v92h-22-22zm24 100v116h-4v-116zm-32.278 96h16.804l-2.667 4h-14.913c.339-1.305.605-2.636.776-4zm20.278-41.818v1.818h-11.707c-2.27 0-4.133-1.77-4.281-4h13.805c1.203 0 2.183.979 2.183 2.182zm-3.117-10.182h-16.883c-2.211 0-4 1.791-4 4v3.709c0 6.777 5.516 12.291 12.293 12.291h11.707v8h-12c-2.211 0-4 1.791-4 4s1.789 4 4 4h12v8h-20.278c-1.979-15.76-15.435-28-31.722-28s-29.744 12.24-31.722 28h-3.983c1.359-13.209 8.921-23.462 21.17-28.277 1.527-.602 2.535-2.078 2.535-3.723v-16h52.008c3.532 0 6.679 1.563 8.875 4zm-144.883-52h4.309c23.684 0 45.996 9.812 59.688 26.246l11.461 13.754h-75.458zm0 48h76v13.361c-13.932 6.442-22.408 18.891-23.741 34.639h-52.259zm-16 60v-4h80.278c.171 1.364.438 2.695.775 4zm88-8c0-13.234 10.766-24 24-24s24 10.766 24 24-10.766 24-24 24-24-10.766-24-24zm51.67 16h20.33c1.336 0 2.586-.668 3.328-1.781l.672-1.008v10.789h-30.905c2.601-2.289 4.825-4.986 6.575-8z"/><path d="m148.707 145.695 41.641 17.098c.492.201 1.008.299 1.52.299.984 0 1.957-.365 2.707-1.057 1.145-1.053 1.574-2.67 1.105-4.15l-16.57-52.338c-.535-1.688-1.969-2.865-3.891-2.793-1.77.035-3.309 1.23-3.777 2.941l-3.34 12.148-12.402-2.232c-1.547-.26-3.137.389-4.023 1.701-.887 1.314-.914 3.027-.066 4.369l6.637 10.531-10.152 6.396c-1.266.799-1.98 2.238-1.852 3.73.127 1.492 1.076 2.787 2.463 3.357zm18.438-14.363-3.93-6.24 7.07 1.273c2.039.363 4.02-.885 4.562-2.879l.723-2.621 9.902 31.275-26.547-10.898 6.969-4.393c.898-.566 1.535-1.465 1.77-2.5s.047-2.119-.519-3.017z"/><path d="m210 60c0 5.684 2.699 10.699 6.826 14-4.127 3.301-6.826 8.316-6.826 14s2.699 10.699 6.826 14c-4.126 3.301-6.826 8.316-6.826 14 0 9.926 8.074 18 18 18s18-8.074 18-18c0-5.684-2.699-10.699-6.826-14 4.126-3.301 6.826-8.316 6.826-14s-2.699-10.699-6.826-14c4.126-3.301 6.826-8.316 6.826-14 0-9.926-8.074-18-18-18s-18 8.074-18 18zm28 56c0 5.514-4.484 10-10 10s-10-4.486-10-10 4.484-10 10-10 10 4.486 10 10zm0-28c0 5.514-4.484 10-10 10s-10-4.486-10-10 4.484-10 10-10 10 4.486 10 10zm-10-38c5.516 0 10 4.486 10 10s-4.484 10-10 10-10-4.486-10-10 4.484-10 10-10z"/></g></svg>