<svg id="railway" enable-background="new 0 0 300 300" height="512" viewBox="0 0 300 300" width="512" xmlns="http://www.w3.org/2000/svg"><g><path d="m100.095 72.776c2.209 0 4-1.791 4-4v-5.66c0-2.209-1.791-4-4-4s-4 1.791-4 4v5.66c0 2.209 1.791 4 4 4z"/><path d="m100.095 95.413c2.209 0 4-1.791 4-4v-5.66c0-2.209-1.791-4-4-4s-4 1.791-4 4v5.66c0 2.209 1.791 4 4 4z"/><path d="m85.947 81.265h5.66c2.209 0 4-1.791 4-4s-1.791-4-4-4h-5.66c-2.209 0-4 1.791-4 4s1.791 4 4 4z"/><path d="m108.584 81.265h5.66c2.209 0 4-1.791 4-4s-1.791-4-4-4h-5.66c-2.209 0-4 1.791-4 4s1.791 4 4 4z"/><path d="m154.095 55.794c2.501 0 4.53-2.028 4.53-4.529 0-2.502-2.028-4.53-4.53-4.53s-4.53 2.028-4.53 4.53c.001 2.501 2.029 4.529 4.53 4.529z"/><path d="m132.095 201.265c-11.027 0-20 8.973-20 20s8.973 20 20 20 20-8.973 20-20-8.972-20-20-20zm0 32c-6.617 0-12-5.383-12-12s5.383-12 12-12 12 5.383 12 12-5.382 12-12 12z"/><path d="m52.095 181.265c2.209 0 4-1.791 4-4s-1.791-4-4-4h-8c-2.209 0-4 1.791-4 4s1.791 4 4 4z"/><path d="m269.808 110.712-28.518-15.447 28.518-15.447c1.943-1.053 2.664-3.48 1.613-5.422l-7.617-14.07c-.506-.934-1.359-1.627-2.377-1.93-1.02-.307-2.113-.191-3.045.316l-30.287 16.406v-17.853c0-2.209-1.791-4-4-4h-16c-2.209 0-4 1.791-4 4v17.853l-30.287-16.406c-.934-.508-2.031-.623-3.045-.316-1.018.303-1.871.996-2.377 1.93l-7.617 14.07c-1.051 1.941-.33 4.369 1.613 5.422l28.518 15.447-28.518 15.447c-1.943 1.053-2.664 3.48-1.613 5.422l7.617 14.07c.506.934 1.359 1.627 2.377 1.93 1.014.303 2.111.189 3.045-.316l30.287-16.406v113.853c-9.692 0-17.698 6.815-19.548 16h-31.357c2.601-2.289 4.825-4.986 6.575-8h20.33c1.338 0 2.586-.668 3.328-1.781l8-12c.438-.656.672-1.43.672-2.219v-32-5.818-2.189c0-11.023-8.969-19.992-19.992-19.992h-50.135l-15.73-18.875c-15.195-18.236-39.809-29.125-65.836-29.125h-8.307c-2.209 0-4 1.791-4 4s1.791 4 4 4h8.307c23.682 0 45.996 9.812 59.691 26.246l11.462 13.754h-79.46c-2.209 0-4 1.791-4 4s1.791 4 4 4h80v13.361c-13.932 6.442-22.405 18.89-23.741 34.639h-56.259c-2.209 0-4 1.791-4 4v12c0 2.209 1.791 4 4 4h72.33c1.75 3.014 3.974 5.711 6.575 8h-78.905c-2.209 0-4 1.791-4 4s1.791 4 4 4h232c2.209 0 4-1.791 4-4s-1.791-4-4-4h-16.464c-1.862-9.17-9.887-16-19.536-16v-113.855l30.287 16.406c.59.32 1.244.482 1.904.482.383 0 .768-.055 1.141-.166 1.018-.303 1.871-.996 2.377-1.93l7.617-14.07c1.051-1.94.331-4.368-1.613-5.421zm-91.853 118.553h-14.913c.338-1.305.604-2.636.775-4h16.804zm6.14-45.819v1.818h-11.709c-2.268 0-4.131-1.77-4.281-4h13.809c1.203.001 2.181.979 2.181 2.182zm-66.537 5.541c1.531-.602 2.537-2.078 2.537-3.723v-16h52.008c3.532 0 6.679 1.563 8.875 4h-16.883c-2.209 0-4 1.791-4 4v3.709c0 6.777 5.514 12.291 12.291 12.291h11.709v8h-12c-2.209 0-4 1.791-4 4s1.791 4 4 4h12v8h-20.278c-1.979-15.76-15.435-28-31.722-28s-29.744 12.24-31.722 28h-3.982c1.362-13.209 8.921-23.462 21.167-28.277zm-81.463 40.278v-4h64.278c.171 1.364.438 2.695.775 4zm72-8c0-13.234 10.766-24 24-24s24 10.766 24 24-10.766 24-24 24-24-10.766-24-24zm104-160h8v18.187l-4 2.167-4-2.167zm27.264 184h-46.53c1.645-4.676 6.033-8 11.266-8h24c5.21 0 9.612 3.329 11.264 8zm-19.264-16h-8v-118.187l4-2.167 4 2.167zm38.579-106.387-40.674-22.033c-.594-.322-1.248-.482-1.904-.482s-1.311.16-1.904.482l-40.674 22.033-3.809-7.035 31.494-17.061c1.291-.699 2.096-2.049 2.096-3.518s-.805-2.818-2.096-3.518l-31.494-17.061 3.809-7.035 40.674 22.033c1.188.645 2.621.645 3.809 0l40.674-22.033 3.809 7.035-31.494 17.061c-1.291.699-2.096 2.049-2.096 3.518s.805 2.818 2.096 3.518l31.494 17.061z"/></g></svg>