<svg id="sadness" enable-background="new 0 0 300 300" height="512" viewBox="0 0 300 300" width="512" xmlns="http://www.w3.org/2000/svg"><g><path d="m178.168 199.061c-4.938-1.751-14.443-4.274-28.168-7.485v-9.576h44c2.209 0 4-1.791 4-4v-74c0-38.598-31.402-70-70-70s-70 31.402-70 70v74c0 2.209 1.791 4 4 4h44v9.575c-13.725 3.211-23.23 5.734-28.166 7.485-14.033 4.973-23.834 20.616-23.834 38.038v24.902c0 2.209 1.791 4 4 4s4-1.791 4-4v-24.902c0-14.094 7.609-26.635 18.508-30.498 4.417-1.566 13.303-3.933 25.764-6.872 1.389 13.041 8.231 50.272 21.728 50.272s20.339-37.231 21.728-50.272c12.461 2.939 21.348 5.306 25.766 6.872 10.897 3.863 18.506 16.404 18.506 30.498v24.902c0 2.209 1.791 4 4 4s4-1.791 4-4v-24.902c0-17.422-9.801-33.065-23.832-38.037zm-64.168-10.395c4.131 1.017 9.272 1.334 14 1.334s9.869-.317 14-1.334v3.659c-2.011.729-6.92 1.675-14 1.675s-11.989-.946-14-1.675zm-28.055-66.939-.171-26.078c.087-5.321 4.488-9.649 9.808-9.649h28.244c13.715 14.717 33.566 18.816 46.416 19.83l-.238 23.686c-2.303 9.02-21.477 40.486-41.775 40.486-.062 0-.127-.002-.189-.002-6.213-.06-12.668-3.588-18.619-8.557 4.944-1.483 8.58-6.022 8.58-11.443 0-4.658-3.74-20-12-20-6.293 0-9.956 8.896-11.346 15.198-4.645-6.478-7.869-12.523-8.654-15.645v-7.553c-.001-.097-.049-.178-.056-.273zm16.055 28.273c0-3.303 2.285-9.744 4-11.662 1.715 1.918 4 8.359 4 11.662 0 2.205-1.795 4-4 4s-4-1.795-4-4zm25.961 28c.086 0 .168.002.254.002 4.735 0 9.367-1.288 13.785-3.442v5.765c-2.011.729-6.92 1.675-14 1.675s-11.989-.946-14-1.675v-6.252c4.556 2.387 9.263 3.881 13.961 3.927zm-61.961-4v-70c0-34.188 27.812-62 62-62s62 27.812 62 62v70h-40v-4.411c8.071-6.07 15.021-14.511 20-22.266v6.677c0 2.209 1.791 4 4 4s4-1.791 4-4l.279-51.898c.021-2.162-1.682-3.951-3.844-4.035-11.445-.447-32.613-3.471-45.807-18.688-.76-.875-1.861-1.379-3.021-1.379h-30.025c-9.66 0-17.648 7.857-17.809 17.607l.227 58.393c0 2.209 1.791 4 4 4s4-1.791 4-4v-7.186c5.046 7.598 12.079 15.927 20 22.073v5.113zm62.039 68.002c-4.829-.997-12.161-26.964-13.725-41.259 4.076.956 9.078 1.257 13.686 1.257s9.61-.301 13.686-1.257c-1.562 14.295-8.888 40.262-13.647 41.259z"/><path d="m234 150c-6.617 0-12 5.383-12 12s5.383 12 12 12 12-5.383 12-12-5.383-12-12-12zm0 16c-2.205 0-4-1.795-4-4s1.795-4 4-4 4 1.795 4 4-1.795 4-4 4z"/><path d="m174 242c-2.209 0-4 1.791-4 4v16c0 2.209 1.791 4 4 4s4-1.791 4-4v-16c0-2.209-1.791-4-4-4z"/><path d="m82 242c-2.209 0-4 1.791-4 4v16c0 2.209 1.791 4 4 4s4-1.791 4-4v-16c0-2.209-1.791-4-4-4z"/><path d="m127.996 142h.004c.547 0 1.527.57 2.727 2.297.768 1.094 1.969 1.666 3.199 1.666.799 0 1.611-.24 2.324-.738 1.807-1.262 2.215-3.803.959-5.615-3.211-4.631-6.773-5.61-9.209-5.61-.01 0-.02 0-.029 0-2.445.008-6.035 1.006-9.207 5.648l-.02.027 6.578 4.555c1.121-1.64 2.117-2.228 2.674-2.23z"/><circle cx="106" cy="122" r="4"/><circle cx="150" cy="122" r="4"/><path d="m148.211 113.578 8 4c.574.287 1.186.422 1.785.422 1.469 0 2.881-.809 3.582-2.211.988-1.977.188-4.379-1.789-5.367l-8-4c-1.982-.99-4.381-.188-5.367 1.789-.988 1.977-.188 4.379 1.789 5.367z"/><path d="m98.004 118c.6 0 1.211-.135 1.785-.422l8-4c1.977-.988 2.777-3.391 1.789-5.367-.986-1.977-3.383-2.779-5.367-1.789l-8 4c-1.977.988-2.777 3.391-1.789 5.367.701 1.402 2.113 2.211 3.582 2.211z"/></g></svg>