<svg id="tire-inflate" enable-background="new 0 0 300 300" height="512" viewBox="0 0 300 300" width="512" xmlns="http://www.w3.org/2000/svg"><g><path d="m176 55.794c2.501 0 4.53-2.028 4.53-4.529 0-2.502-2.028-4.53-4.53-4.53s-4.53 2.028-4.53 4.53c0 2.501 2.029 4.529 4.53 4.529z"/><path d="m256 103.794c2.501 0 4.53-2.028 4.53-4.529 0-2.502-2.028-4.53-4.53-4.53s-4.53 2.028-4.53 4.53c0 2.501 2.029 4.529 4.53 4.529z"/><path d="m213.695 177.265h-47.211c-1.617 0-3.078.975-3.695 2.469-.621 1.496-.277 3.215.867 4.359l33.391 33.391c.75.752 1.77 1.172 2.828 1.172.062 0 .129-.002.191-.004 1.129-.055 2.18-.582 2.895-1.453 8.371-10.158 13.457-22.451 14.715-35.551.109-1.123-.262-2.238-1.02-3.072s-1.832-1.311-2.961-1.311zm-20.961 8c-1.015 4.134-2.642 8.095-4.852 11.741l-11.741-11.741zm6.735 23.328-5.822-5.822c3.516-5.32 5.984-11.267 7.257-17.506h8.222c-1.458 8.412-4.743 16.347-9.657 23.328z"/><path d="m90.303 173.265h47.213c1.617 0 3.076-.975 3.695-2.469.619-1.496.277-3.215-.867-4.359l-33.393-33.391c-.797-.799-1.92-1.211-3.021-1.168-1.125.055-2.178.582-2.895 1.453-8.367 10.154-13.455 22.449-14.715 35.551-.107 1.123.264 2.238 1.021 3.072s1.835 1.311 2.962 1.311zm20.953-8c1.014-4.134 2.654-8.088 4.866-11.736l11.736 11.736zm-6.727-23.328 5.828 5.828c-3.517 5.325-5.978 11.261-7.253 17.5h-8.232c1.46-8.412 4.743-16.35 9.657-23.328z"/><path d="m147.531 186.054c-1.496-.619-3.215-.277-4.359.867l-33.391 33.393c-.797.797-1.221 1.895-1.168 3.021.055 1.125.582 2.178 1.453 2.895 10.158 8.367 22.451 13.455 35.551 14.715.129.012.254.018.383.018.988 0 1.949-.367 2.691-1.039.832-.758 1.309-1.834 1.309-2.961v-47.213c0-1.618-.973-3.077-2.469-3.696zm-5.531 29.951c-4.134-1.015-8.092-2.647-11.739-4.859l11.739-11.739zm-23.328 6.73 5.828-5.828c5.322 3.516 11.259 5.979 17.5 7.254v8.231c-8.41-1.459-16.348-4.744-23.328-9.657z"/><path d="m162.789 170.796c.617 1.494 2.078 2.469 3.695 2.469h47.211c1.129 0 2.203-.477 2.961-1.311s1.129-1.949 1.02-3.072c-1.258-13.1-6.344-25.393-14.715-35.551-.715-.871-1.766-1.398-2.895-1.453-1.137-.049-2.227.371-3.02 1.168l-33.391 33.391c-1.143 1.144-1.487 2.863-.866 4.359zm36.68-28.859c4.914 6.98 8.199 14.916 9.656 23.328h-8.218c-1.275-6.237-3.745-12.188-7.26-17.507zm-11.59 11.59c2.209 3.646 3.844 7.605 4.86 11.738h-16.598z"/><path d="m156.469 164.476c.496.205 1.016.305 1.531.305 1.039 0 2.062-.406 2.828-1.172l33.391-33.393c.797-.797 1.223-1.895 1.168-3.02-.055-1.127-.582-2.178-1.453-2.896-10.152-8.365-22.445-13.455-35.551-14.715-1.109-.088-2.234.262-3.074 1.021-.832.758-1.309 1.834-1.309 2.961v47.213c0 1.618.973 3.077 2.469 3.696zm5.531-29.956c4.133 1.014 8.087 2.655 11.735 4.867l-11.735 11.735zm23.328-6.728-5.828 5.828c-5.323-3.517-11.262-5.978-17.5-7.251v-8.231c8.414 1.459 16.352 4.742 23.328 9.654z"/><path d="m141.211 179.734c-.619-1.494-2.078-2.469-3.695-2.469h-47.213c-1.127 0-2.203.477-2.961 1.311s-1.129 1.949-1.021 3.072c1.26 13.102 6.348 25.396 14.715 35.551.717.871 1.77 1.398 2.895 1.453.064.002.129.004.193.004 1.059 0 2.076-.42 2.828-1.172l33.393-33.391c1.143-1.145 1.485-2.863.866-4.359zm-36.682 28.859c-4.914-6.979-8.197-14.916-9.656-23.328h8.229c1.275 6.237 3.736 12.177 7.254 17.501zm11.596-11.596c-2.211-3.647-3.858-7.599-4.872-11.732h16.604z"/><path d="m145.617 109.585c-13.102 1.26-25.396 6.348-35.551 14.715-.871.717-1.398 1.77-1.453 2.895-.053 1.127.371 2.225 1.168 3.021l33.391 33.393c.766.766 1.789 1.172 2.828 1.172.516 0 1.035-.1 1.531-.305 1.496-.619 2.469-2.078 2.469-3.695v-47.213c0-1.127-.477-2.203-1.309-2.961-.839-.76-1.945-1.11-3.074-1.022zm-3.617 8.553v8.231c-6.24 1.274-12.178 3.735-17.5 7.252l-5.828-5.828c6.978-4.913 14.916-8.196 23.328-9.655zm-11.736 21.249c3.647-2.211 7.602-3.852 11.736-4.866v16.602z"/><path d="m160.828 186.921c-1.145-1.145-2.859-1.482-4.359-.867-1.496.619-2.469 2.078-2.469 3.695v47.213c0 1.127.477 2.203 1.309 2.961.742.672 1.703 1.039 2.691 1.039.129 0 .254-.006.383-.018 13.102-1.26 25.395-6.348 35.551-14.715.871-.717 1.398-1.77 1.453-2.895.055-1.127-.371-2.225-1.168-3.021zm12.912 24.226c-3.648 2.212-7.606 3.844-11.74 4.858v-16.598zm-11.74 21.245v-8.231c6.238-1.273 12.177-3.735 17.501-7.252l5.827 5.827c-6.98 4.914-14.914 8.197-23.328 9.656z"/><path d="m226 68.776c2.211 0 4-1.791 4-4v-5.66c0-2.209-1.789-4-4-4s-4 1.791-4 4v5.66c0 2.209 1.789 4 4 4z"/><path d="m226 91.413c2.211 0 4-1.791 4-4v-5.66c0-2.209-1.789-4-4-4s-4 1.791-4 4v5.66c0 2.209 1.789 4 4 4z"/><path d="m211.852 77.265h5.66c2.211 0 4-1.791 4-4s-1.789-4-4-4h-5.66c-2.211 0-4 1.791-4 4s1.789 4 4 4z"/><path d="m234.488 77.265h5.66c2.211 0 4-1.791 4-4s-1.789-4-4-4h-5.66c-2.211 0-4 1.791-4 4s1.789 4 4 4z"/><path d="m266 245.265h-24.442c-1.147-5.67-4.646-10.528-9.632-13.352 11.844-16.613 18.074-36.086 18.074-56.648 0-54.037-43.961-98-98-98-54.037 0-98 43.963-98 98 0 20.562 6.23 40.035 18.074 56.648-4.986 2.823-8.485 7.681-9.632 13.352h-28.442c-2.209 0-4 1.791-4 4s1.791 4 4 4h232c2.211 0 4-1.791 4-4s-1.789-4-4-4zm-36-70c0-43.01-34.992-78-78-78-43.01 0-78 34.99-78 78 0 30.736 17.915 57.298 43.811 70h-47.13c1.332-3.783 4.518-6.723 8.637-7.668 1.34-.307 2.43-1.279 2.883-2.578.455-1.297.211-2.736-.646-3.811-12.793-16.074-19.555-35.418-19.555-55.943 0-49.627 40.373-90 90-90 49.625 0 90 40.373 90 90 0 20.525-6.762 39.869-19.555 55.943-.855 1.074-1.102 2.514-.648 3.811.457 1.299 1.543 2.271 2.883 2.578 4.121.945 7.307 3.885 8.639 7.668h-47.131c25.896-12.702 43.812-39.264 43.812-70zm-78 70c-38.598 0-70-31.402-70-70s31.402-70 70-70 70 31.402 70 70-31.402 70-70 70z"/></g></svg>