<svg id="truck" enable-background="new 0 0 300 300" height="512" viewBox="0 0 300 300" width="512" xmlns="http://www.w3.org/2000/svg"><g><path d="m86 85.074c6.617 0 12-5.383 12-12s-5.383-12-12-12-12 5.383-12 12 5.383 12 12 12zm0-16c2.207 0 4 1.795 4 4s-1.793 4-4 4-4-1.795-4-4 1.793-4 4-4z"/><path d="m52 103.351c2.362 0 4.276-1.915 4.276-4.276s-1.914-4.277-4.276-4.277-4.276 1.915-4.276 4.277 1.914 4.276 4.276 4.276z"/><path d="m252 99.351c2.362 0 4.276-1.915 4.276-4.276s-1.915-4.277-4.276-4.277-4.276 1.915-4.276 4.277 1.914 4.276 4.276 4.276z"/><path d="m261.596 225.074h12.404c2.211 0 4-1.791 4-4v-96c0-2.209-1.789-4-4-4h-172c-2.211 0-4 1.791-4 4v60.269c-1.424 1.142-2.783 2.156-3.824 2.864l-4.176-3.132v-44.001c0-2.209-1.789-4-4-4h-4v-8c0-1.285-.617-2.492-1.66-3.244-1.051-.756-2.391-.955-3.605-.551l-36 12c-1.117.373-2.012 1.217-2.449 2.309l-16 40c-.188.473-.285.977-.285 1.486v40c0 2.209 1.789 4 4 4h10.451c.982 4.82 3.693 9.074 7.624 12h-18.076c-2.211 0-4 1.791-4 4s1.789 4 4 4h248c2.211 0 4-1.791 4-4s-1.789-4-4-4h-20.124c3.879-2.887 6.72-7.095 7.72-12zm0-8c-.606-2.974-1.929-5.663-3.698-8h12.102v8zm8.404-88v72h-101.317c-2.677-12.303-10.718-22.749-11.128-23.275-.984-1.262-2.625-1.816-4.172-1.404-1.547.406-2.703 1.697-2.938 3.277-.793 5.336-3.75 10.008-6.395 13.256l-3.781-14.396c-.324-1.248-1.234-2.262-2.441-2.721-1.203-.461-2.555-.311-3.633.4l-6.766 4.477c.605-11.223-2.164-23.084-2.316-23.727-.395-1.67-1.812-2.9-3.523-3.059-1.738-.166-3.328.793-4.023 2.361-.056.126-5.372 12.041-11.566 20.745v-47.935h163.999zm-100.451 80h24.553c-1.769 2.337-3.092 5.026-3.698 8h-21.48c.364-2.499.589-5.164.625-8zm-2.397 16h23.252c1 4.905 3.841 9.112 7.719 12h-36.2c1.815-3.02 3.751-7.037 5.229-12zm42.848 8c-6.617 0-12-5.383-12-12s5.383-12 12-12 12 5.383 12 12-5.383 12-12 12zm15.898-24h.205c-.032.043-.07.081-.102.124-.033-.043-.071-.081-.103-.124zm-129.886-12.543c.387-.227 9.539-5.605 15.348-13.295 2.898-3.838 5.621-8.35 7.848-12.404.52 5.623.574 12.135-1.012 17.006-.523 1.617.027 3.391 1.383 4.42 1.352 1.027 3.207 1.09 4.629.152l9.746-6.445 4.16 15.846c.344 1.314 1.332 2.361 2.621 2.785 1.285.43 2.707.166 3.762-.691.371-.299 7.102-5.828 11.148-14.346 2.836 5.09 5.988 12.334 5.91 19.305-.168 15.406-6.803 25.057-9.36 28.211h-97.999c.318-3.944 1.152-10.14 3.343-15.453l2.328 5.045c.535 1.156 1.586 1.988 2.832 2.244 1.242.248 2.539-.1 3.484-.953.527-.479 5.336-5.016 11.336-16.998 4.16-8.311 5.363-15.67 5.461-21.148l8.621 6.463c1.286.963 3.02 1.067 4.411.256zm-35.495 13.458c2.338.956 4.346 2.625 5.696 4.814-.625.999-1.226 1.925-1.764 2.698l-2.816-6.102c-.259-.562-.651-1.032-1.116-1.41zm13.483-72.915h-7.353l7.353-2.451zm-29.293 8h17.293v24.721l-29.544 5.909zm-14.707 39.279 36.785-7.357c1.867-.373 3.215-2.016 3.215-3.922v-28h12v34.002l-1.602-1.201c-1.387-1.047-3.293-1.053-4.711-.049-1.418 1.008-2.016 2.828-1.492 4.486.14.435 3.285 10.768-3.784 24.962-3.718-3.866-8.887-6.2-14.411-6.2-9.658 0-17.737 6.883-19.596 16h-6.404zm26 24.721c.429 0 .849.047 1.27.093-.88.166-1.705.603-2.305 1.302-4.425 5.156-6.663 12.507-7.798 18.72-1.994-2.17-3.167-5.039-3.167-8.115 0-6.617 5.383-12 12-12zm165.876 28c1.57-1.169 2.955-2.554 4.124-4.124 1.169 1.57 2.554 2.955 4.124 4.124zm20.124-4c-6.617 0-12-5.383-12-12s5.383-12 12-12 12 5.383 12 12-5.383 12-12 12z"/><circle cx="134" cy="221.074" r="4"/><path d="m102 229.074c6.617 0 12-5.383 12-12 0-2.209-1.789-4-4-4s-4 1.791-4 4c0 2.205-1.793 4-4 4s-4-1.795-4-4 1.793-4 4-4c2.211 0 4-1.791 4-4s-1.789-4-4-4c-6.617 0-12 5.383-12 12s5.383 12 12 12z"/><path d="m58 189.074h4c2.211 0 4-1.791 4-4s-1.789-4-4-4h-4c-2.211 0-4 1.791-4 4s1.789 4 4 4z"/><path d="m174 68.586c2.211 0 4-1.791 4-4v-5.66c0-2.209-1.789-4-4-4s-4 1.791-4 4v5.66c0 2.209 1.789 4 4 4z"/><path d="m174 91.223c2.211 0 4-1.791 4-4v-5.66c0-2.209-1.789-4-4-4s-4 1.791-4 4v5.66c0 2.209 1.789 4 4 4z"/><path d="m159.852 77.074h5.66c2.211 0 4-1.791 4-4s-1.789-4-4-4h-5.66c-2.211 0-4 1.791-4 4s1.789 4 4 4z"/><path d="m182.488 77.074h5.66c2.211 0 4-1.791 4-4s-1.789-4-4-4h-5.66c-2.211 0-4 1.791-4 4s1.789 4 4 4z"/></g></svg>