<svg id="warning" enable-background="new 0 0 300 300" height="512" viewBox="0 0 300 300" width="512" xmlns="http://www.w3.org/2000/svg"><g><path d="m266 262h-27.814l2.955-65.027c1.488.66 3.133 1.027 4.859 1.027 6.617 0 12-5.383 12-12v-57.975c0-14.648-9.32-27.126-22.328-31.911 3.89-3.774 6.328-9.034 6.328-14.87v-19.244-6.707c0-7.33-5.965-13.293-13.293-13.293h-30.707c-2.211 0-4 1.791-4 4 0 6.516 3.179 12.259 8.018 15.912-.001.031-.018.057-.018.088v33.539c-12.804 3.98-22.491 15.349-23.809 29.242-.125.389-.191.799-.191 1.219v8h-16c-6.617 0-12 5.383-12 12s5.383 12 12 12h32l.004 20.182 3.81 83.818h-64.164c.207-.824.35-1.672.35-2.559v-8.14c2.421-2.056 3.992-5.082 3.992-8.499v-44.802c0-4.092-2.832-8.449-5.945-12h9.953c2.211 0 4-1.791 4-4v-11.846c0-6.701-5.453-12.154-12.16-12.154h-20.712l-3.02-12.882c2.191-.883 4.114-2.381 5.408-4.499l37.262-60.967c1.641-2.842 1.641-6.232 0-9.072-1.656-2.869-4.629-4.58-7.957-4.58h-77.641c-3.328 0-6.301 1.711-7.957 4.58-1.641 2.84-1.641 6.23.051 9.158l25.83 42.262h-47.14c-2.211 0-4 1.791-4 4s1.789 4 4 4h52.029l6.49 10.619c1.294 2.117 3.216 3.616 5.407 4.499l4.828 20.591-68.505-3.703c-2.238-.104-4.09 1.57-4.211 3.777-.117 2.207 1.574 4.092 3.781 4.211l70.838 3.829 1.236 5.273 6.526 22.904h-77.016c-2.211 0-4 1.791-4 4s1.789 4 4 4h42.633v12c0 2.209 1.789 4 4 4h28c6.561 0 12.343-3.219 15.992-8.114v24.917c0 1.764-1.434 3.197-3.199 3.197h-88.793c-2.211 0-4 1.791-4 4s1.789 4 4 4h52v5.441c0 .887.143 1.735.35 2.559h-56.35c-2.211 0-4 1.791-4 4s1.789 4 4 4h232c2.211 0 4-1.791 4-4s-1.789-4-4-4zm-20-72c-2.207 0-4-1.795-4-4v-4h8v4c0 2.205-1.793 4-4 4zm-17.293-140c2.918 0 5.293 2.375 5.293 5.293v2.707h-20c-5.215 0-9.664-3.344-11.316-8zm-18.707 44v-28.404c1.293.264 2.63.404 4 .404h20v15.244c0 7.033-5.723 12.756-12.754 12.756h-9.223zm-52 52c0-2.205 1.793-4 4-4h4v8h-4c-2.207 0-4-1.795-4-4zm16 4v-8h8c2.211 0 4-1.791 4-4v-11.062c.047-.207.078-.42.094-.635.891-13.629 12.281-24.303 25.93-24.303h11.953c14.347 0 26.023 11.676 26.023 26.025v45.975h-8v-44c0-2.209-1.789-4-4-4s-4 1.791-4 4v44h-32v-16-4-20c0-2.209-1.789-4-4-4s-4 1.791-4 4v16zm28.182 32h31.631l-3.636 80h-8.177v-64c0-2.209-1.789-4-4-4s-4 1.791-4 4v64h-8.178zm-136.03-106.348c-.258-.443-.141-.828 0-1.072.125-.217.422-.58 1.028-.58h77.641c.605 0 .902.363 1.027.58.141.244.258.629.051.986l-37.211 60.881c-.856 1.403-2.165 1.553-2.688 1.553s-1.832-.15-2.688-1.553zm48.851 90.348h18.837c2.293 0 4.16 1.863 4.16 4.154v7.846h-16.016c-1.504 0-2.822.87-3.503 2.175l-.88-3.087zm-1.003 52h-24v-8h31.68 3.637c-1.653 4.656-6.102 8-11.317 8zm10.7-16-4.685-16.442c4.34 3.5 9.978 9.501 9.978 12.442v4zm-24.141 60c-1.41 0-2.559-1.148-2.559-2.559v-5.441h28v5.441c0 1.41-1.148 2.559-2.559 2.559z"/><path d="m38 242h32c2.211 0 4-1.791 4-4v-20c0-2.209-1.789-4-4-4h-32c-2.211 0-4 1.791-4 4v20c0 2.209 1.789 4 4 4zm4-20h24v12h-24z"/><path d="m122 242c2.211 0 4-1.791 4-4s-1.789-4-4-4h-16c-2.211 0-4 1.791-4 4s1.789 4 4 4z"/><path d="m62 54c6.617 0 12-5.383 12-12s-5.383-12-12-12-12 5.383-12 12 5.383 12 12 12zm0-16c2.207 0 4 1.795 4 4s-1.793 4-4 4-4-1.795-4-4 1.793-4 4-4z"/><path d="m156 52.276c2.362 0 4.276-1.915 4.276-4.276s-1.915-4.277-4.276-4.277-4.276 1.915-4.276 4.277 1.914 4.276 4.276 4.276z"/><path d="m168 100.276c2.362 0 4.276-1.915 4.276-4.276s-1.915-4.277-4.276-4.277-4.276 1.915-4.276 4.277 1.914 4.276 4.276 4.276z"/><path d="m106 114c2.211 0 4-1.791 4-4v-28c0-2.209-1.789-4-4-4s-4 1.791-4 4v28c0 2.209 1.789 4 4 4z"/><circle cx="106" cy="122" r="4"/></g></svg>