<svg width="435" height="435" xmlns="http://www.w3.org/2000/svg" xmlns:xlink="http://www.w3.org/1999/xlink" xml:space="preserve" overflow="hidden"><defs><filter id="fx0" x="-10%" y="-10%" width="120%" height="120%" filterUnits="userSpaceOnUse" primitiveUnits="userSpaceOnUse"><feComponentTransfer color-interpolation-filters="sRGB"><feFuncR type="discrete" tableValues="0.749020 0.749020"/><feFuncG type="discrete" tableValues="0.749020 0.749020"/><feFuncB type="discrete" tableValues="0.749020 0.749020"/><feFuncA type="linear" slope="0.400000" intercept="0.000000"/></feComponentTransfer><feGaussianBlur stdDeviation="6.111111 6.111111"/></filter><filter id="fx1" x="-10%" y="-10%" width="120%" height="120%" filterUnits="userSpaceOnUse" primitiveUnits="userSpaceOnUse"><feComponentTransfer color-interpolation-filters="sRGB"><feFuncR type="discrete" tableValues="0.000000 0.000000"/><feFuncG type="discrete" tableValues="0.000000 0.000000"/><feFuncB type="discrete" tableValues="0.000000 0.000000"/><feFuncA type="linear" slope="0.400000" intercept="0.000000"/></feComponentTransfer><feGaussianBlur stdDeviation="6.111111 6.111111"/></filter><filter id="fx2" x="-10%" y="-10%" width="120%" height="120%" filterUnits="userSpaceOnUse" primitiveUnits="userSpaceOnUse"><feComponentTransfer color-interpolation-filters="sRGB"><feFuncR type="discrete" tableValues="1.000000 1.000000"/><feFuncG type="discrete" tableValues="1.000000 1.000000"/><feFuncB type="discrete" tableValues="1.000000 1.000000"/><feFuncA type="linear" slope="1.000000" intercept="0.000000"/></feComponentTransfer><feGaussianBlur stdDeviation="14.869586 14.869586"/></filter><clipPath id="clip3"><rect x="82" y="912" width="435" height="435"/></clipPath><clipPath id="clip4"><rect x="8.16049" y="0.765259" width="143.444" height="157.568"/></clipPath><clipPath id="clip5"><rect x="0" y="0" width="160" height="160"/></clipPath><clipPath id="clip6"><rect x="20" y="20" width="120" height="120"/></clipPath><clipPath id="clip7"><rect x="20" y="20" width="120" height="120"/></clipPath><clipPath id="clip8"><rect x="20" y="20" width="120" height="120"/></clipPath><clipPath id="clip9"><rect x="19" y="19" width="120" height="120"/></clipPath><clipPath id="clip10"><rect x="19" y="19" width="120" height="120"/></clipPath><clipPath id="clip11"><rect x="19" y="19" width="120" height="120"/></clipPath><clipPath id="clip12"><rect x="8.16052" y="0.765381" width="142.444" height="156.568"/></clipPath><clipPath id="clip13"><rect x="0" y="0" width="159" height="159"/></clipPath><clipPath id="clip14"><rect x="20" y="19" width="119" height="120"/></clipPath><clipPath id="clip15"><rect x="20" y="19" width="119" height="120"/></clipPath><clipPath id="clip16"><rect x="20" y="19" width="119" height="120"/></clipPath><clipPath id="clip17"><rect x="242" y="1058" width="119" height="119"/></clipPath><clipPath id="clip18"><rect x="242" y="1058" width="119" height="119"/></clipPath><clipPath id="clip19"><rect x="242" y="1058" width="119" height="119"/></clipPath><clipPath id="clip20"><rect x="2.21165" y="0.0938721" width="119.509" height="123.515"/></clipPath><clipPath id="clip21"><rect x="0" y="0" width="124" height="124"/></clipPath><clipPath id="clip22"><rect x="44" y="44" width="36" height="35"/></clipPath><clipPath id="clip23"><rect x="44" y="44" width="36" height="35"/></clipPath><clipPath id="clip24"><rect x="44" y="44" width="36" height="35"/></clipPath><clipPath id="clip25"><rect x="240" y="1057" width="120" height="119"/></clipPath><clipPath id="clip26"><rect x="240" y="1057" width="120" height="119"/></clipPath><clipPath id="clip27"><rect x="240" y="1057" width="120" height="119"/></clipPath></defs><g clip-path="url(#clip3)" transform="translate(-82 -912)"><g clip-path="url(#clip4)" filter="url(#fx0)" transform="translate(221 1051)"><g clip-path="url(#clip5)"><g clip-path="url(#clip6)"><g clip-path="url(#clip7)"><g clip-path="url(#clip8)"><path d="M83.1133 86.0509C84.3479 84.9771 85.4826 83.7936 86.5036 82.5148 86.9829 81.9119 86.883 81.0347 86.2801 80.5553 85.6772 80.076 84.7998 80.1759 84.3205 80.7788 83.4062 81.924 82.3898 82.9841 81.2839 83.9456 80.7024 84.4509 80.6406 85.3315 81.1459 85.913 81.6512 86.4946 82.5318 86.5564 83.1133 86.0511Z" fill="#BFBFBF" fill-rule="nonzero" fill-opacity="1"/><path d="M35.8215 103.158 31.3962 106.993C27.5985 110.14 27.4939 116.42 31.187 119.687L46.4293 133.8C52.1429 139.11 60.541 140.343 67.5401 136.901 74.9472 133.468 78.7677 125.167 76.5581 117.307L66.9056 82.8625 91.024 107.234C97.325 113.593 107.255 114.578 114.682 109.579 121.069 105.275 122.424 95.8502 120.458 88.7567L114.217 64.0224 114.217 64.0201 112.188 55.9806 113.188 56.9591C116.623 60.3385 122.115 60.3989 125.625 57.0962L130.324 52.6918C133.248 50.0724 133.271 45.1242 130.368 42.4792L113.483 26.3794C107.763 20.8886 99.0003 20.0987 92.3907 24.4782 86.1687 28.5709 83.2398 36.1685 85.1042 43.3787L91.9863 69.9887C91.9863 69.991 91.9863 69.991 91.9886 69.9933L91.9886 69.998 94.078 78.0723 67.1566 51.9202C62.0968 47.0115 52.4072 45.2939 46.5943 50.6767 39.9886 56.7567 37.3885 66.0489 39.8796 74.6743L48.4374 104.624 46.8523 103.22C43.7081 100.445 38.9971 100.418 35.8215 103.158ZM62.2728 95.6413C60.7746 96.3495 59.202 96.888 57.5843 97.2469 56.8329 97.4154 56.0869 96.9429 55.9183 96.1914 55.7498 95.44 56.2224 94.6939 56.9738 94.5254 58.3855 94.2128 59.758 93.7438 61.0656 93.127 61.7598 92.7937 62.593 93.0863 62.9263 93.7805 63.2596 94.4748 62.967 95.308 62.2728 95.6413ZM108.628 69.6535C107.15 70.4059 105.592 70.989 103.983 71.392 103.237 71.5826 102.478 71.1322 102.287 70.3859 102.097 69.6396 102.547 68.8802 103.293 68.6897 104.695 68.3396 106.053 67.8327 107.341 67.1789 108.02 66.8145 108.865 67.069 109.23 67.7474 109.594 68.4259 109.34 69.2714 108.661 69.6358 108.65 69.6417 108.639 69.6475 108.628 69.6531ZM108.811 27.8622 111.819 28.6478 128.444 44.499C130.194 46.0934 130.18 49.0777 128.416 50.6581L123.716 55.0602C121.297 57.3377 117.51 57.2966 115.14 54.9673L110.896 50.8092 106.359 30.0935C106.006 28.7082 107.466 27.3788 108.811 27.8622ZM93.5795 69.5587C92.8253 66.6069 97.2085 63.9039 101.91 62.6446 104.221 62.0257 106.525 61.7821 108.395 61.9457 111.516 62.2581 112.368 63.4332 112.655 64.6095 112.889 65.5657 112.379 66.7489 111.294 66.7245 110.522 66.7222 109.897 66.0942 109.9 65.3219 109.9 65.2752 109.902 65.2282 109.907 65.1817 109.399 64.7569 106.755 64.2437 102.627 65.3402 98.5891 66.4122 96.5371 68.2079 96.3081 68.8305 96.5336 68.9946 97.2803 69.3748 98.8759 69.2993 99.6655 69.2268 100.364 69.8078 100.437 70.5974 100.439 70.6236 100.441 70.6499 100.442 70.6762 100.457 71.5259 99.7103 72.1256 98.8759 72.0884 94.856 71.9096 93.8217 70.5063 93.5795 69.5587ZM86.9729 75.0624C87.131 75.6505 86.8916 76.3315 86.5662 77.1589 86.2652 77.868 86.5962 78.687 87.3053 78.988 88.0144 79.289 88.8335 78.9581 89.1344 78.2489 89.2506 77.977 89.3506 77.712 89.4366 77.4541L95.4098 83.2553 99.8514 101.826C100.198 103.441 98.773 104.224 97.3993 104.006L89.2111 101.435 77.4529 89.5539C77.991 89.3682 78.5153 89.1444 79.0218 88.8846 79.7079 88.5341 79.98 87.6939 79.6295 87.0078 79.2791 86.3216 78.4389 86.0495 77.7527 86.4 76.2011 87.1147 75.723 87.2539 75.0055 87.081 74.9381 87.0136 74.7475 86.3395 75.4564 84.7475 76.1839 83.1158 77.5714 81.2123 79.2612 79.5226 83.0124 75.769 86.4012 74.6836 86.9729 75.0624ZM63.3984 54.7581C66.0433 55.3229 68.2839 56.9754 68.6186 57.2287L84.4837 72.6406C82.1757 73.4378 79.5308 75.3088 77.2879 77.5493 75.0357 79.8526 73.4343 82.0514 72.5302 84.5801L65.3623 77.3378 60.0864 57.5704C59.5657 55.4507 61.6296 54.3746 63.3984 54.7581ZM47.3545 94.8248C46.515 91.6627 51.0131 88.6863 55.8956 87.4005 60.8747 86.0894 66.4041 86.3883 67.1199 89.7857 67.3126 90.7 67.0695 91.5363 66.5019 92.3962 66.0835 93.0428 65.2201 93.2278 64.5735 92.8095 63.9269 92.3911 63.7419 91.5279 64.1603 90.8811 64.1695 90.8669 64.1788 90.8529 64.1886 90.839 64.3076 90.6977 64.3787 90.5224 64.392 90.3381 64.2449 89.7845 61.3417 88.8416 56.6114 90.0971 51.9365 91.3385 49.9054 93.5648 50.0502 94.1101 50.1011 94.2988 50.8309 94.8441 52.7388 94.9436 53.5074 94.9926 54.0908 95.6552 54.0418 96.4239 53.9937 97.1799 53.351 97.7591 52.594 97.7287 48.6519 97.5225 47.62 95.8223 47.3545 94.8248ZM49.8273 109.584 53.8017 127.733C54.0852 129.209 53.725 130.966 51.8354 130.694L45.4624 129.102 33.0813 117.642C30.5967 115.443 30.6664 111.218 33.2231 109.101L37.6484 105.266C39.7652 103.44 42.9051 103.456 45.0022 105.305Z" fill="#BFBFBF" fill-rule="nonzero" fill-opacity="1"/></g></g></g><g clip-path="url(#clip9)"><g clip-path="url(#clip10)"><g clip-path="url(#clip11)"><path d="M82.1133 85.0508C83.3479 83.977 84.4826 82.7935 85.5036 81.5147 85.9829 80.9118 85.8829 80.0346 85.28 79.5551 84.6771 79.0759 83.7997 79.1758 83.3205 79.7787 82.4061 80.9239 81.3898 81.9839 80.2839 82.9455 79.7024 83.4508 79.6406 84.3314 80.1458 84.9129 80.6511 85.4944 81.5318 85.5563 82.1133 85.051Z" fill="#FFFFFF" fill-rule="nonzero" fill-opacity="1"/><path d="M34.8215 102.157 30.3962 105.992C26.5984 109.139 26.4938 115.419 30.187 118.687L45.4292 132.8C51.1429 138.11 59.541 139.343 66.5401 135.9 73.9471 132.468 77.7677 124.166 75.5581 116.307L65.9056 81.8624 90.024 106.234C96.325 112.593 106.255 113.577 113.682 108.579 120.069 104.275 121.424 94.8501 119.458 87.7566L113.217 63.0223 113.217 63.02 111.188 54.9805 112.188 55.959C115.623 59.3384 121.115 59.3988 124.625 56.0961L129.324 51.6917C132.248 49.0723 132.271 44.1241 129.368 41.4791L112.483 25.3793C106.763 19.8885 98.0002 19.0986 91.3906 23.478 85.1687 27.5707 82.2397 35.1684 84.1042 42.3786L90.9862 68.9885C90.9862 68.9909 90.9862 68.9909 90.9885 68.9932L90.9885 68.9978 93.078 77.0722 66.1566 50.9201C61.0968 46.0113 51.4071 44.2937 45.5943 49.6766 38.9886 55.7565 36.3885 65.0488 38.8796 73.6742L47.4374 103.624 45.8522 102.22C42.7081 99.4446 37.997 99.4177 34.8215 102.157ZM61.2727 94.6412C59.7745 95.3494 58.202 95.8879 56.5843 96.2467 55.8329 96.4152 55.0868 95.9427 54.9183 95.1913 54.7498 94.4399 55.2223 93.6938 55.9737 93.5253 57.3855 93.2127 58.7579 92.7437 60.0655 92.1268 60.7598 91.7935 61.593 92.0862 61.9263 92.7804 62.2596 93.4746 61.967 94.3079 61.2727 94.6412ZM107.628 68.6534C106.15 69.4057 104.592 69.9889 102.983 70.3919 102.237 70.5825 101.478 70.1321 101.287 69.3858 101.097 68.6395 101.547 67.8801 102.293 67.6895 103.695 67.3395 105.053 66.8326 106.341 66.1788 107.02 65.8144 107.865 66.0689 108.23 66.7473 108.594 67.4257 108.34 68.2713 107.661 68.6357 107.65 68.6415 107.639 68.6474 107.628 68.6529ZM107.811 26.8621 110.819 27.6477 127.444 43.4989C129.194 45.0933 129.18 48.0776 127.416 49.658L122.716 54.0601C120.297 56.3376 116.51 56.2965 114.14 53.9671L109.896 49.8091 105.359 29.0934C105.006 27.7081 106.465 26.3787 107.811 26.8621ZM92.5795 68.5586C91.8253 65.6068 96.2085 62.9037 100.91 61.6445 103.221 61.0255 105.525 60.782 107.395 60.9456 110.516 61.258 111.368 62.4331 111.655 63.6094 111.889 64.5656 111.379 65.7488 110.294 65.7244 109.522 65.7221 108.897 65.0941 108.9 64.3217 108.9 64.275 108.902 64.2281 108.907 64.1816 108.399 63.7567 105.755 63.2435 101.626 64.3401 97.5891 65.412 95.537 67.2077 95.3081 67.8304 95.5335 67.9945 96.2803 68.3747 97.8759 68.2992 98.6654 68.2267 99.3641 68.8077 99.4366 69.5973 99.4392 69.6235 99.4408 69.6498 99.4417 69.676 99.4573 70.5258 98.7103 71.1254 97.8759 71.0882 93.8559 70.9095 92.8216 69.5061 92.5795 68.5586ZM85.9729 74.0623C86.1309 74.6503 85.8915 75.3313 85.5661 76.1588 85.2652 76.8679 85.5961 77.6869 86.3052 77.9879 87.0144 78.2889 87.8334 77.9579 88.1344 77.2488 88.2506 76.9769 88.3506 76.7119 88.4366 76.4539L94.4098 82.2552 98.8514 100.826C99.1977 102.441 97.7729 103.224 96.3993 103.006L88.2111 100.435 76.4529 88.5538C76.9909 88.3681 77.5153 88.1443 78.0217 87.8844 78.7078 87.5339 78.98 86.6937 78.6295 86.0076 78.279 85.3215 77.4388 85.0494 76.7527 85.3998 75.2011 86.1145 74.723 86.2538 74.0055 86.0808 73.9381 86.0134 73.7475 85.3394 74.4564 83.7473 75.1839 82.1157 76.5714 80.2122 78.2611 78.5225 82.0124 74.7689 85.4011 73.6835 85.9729 74.0623ZM62.3983 53.7579C65.0433 54.3227 67.2839 55.9753 67.6185 56.2286L83.4837 71.6405C81.1757 72.4377 78.5307 74.3087 76.2879 76.5492 74.0357 78.8525 72.4343 81.0512 71.5302 83.58L64.3623 76.3377 59.0863 56.5703C58.5657 54.4506 60.6296 53.3745 62.3983 53.7579ZM46.3545 93.8247C45.515 90.6626 50.0131 87.6862 54.8955 86.4004 59.8747 85.0893 65.404 85.3882 66.1199 88.7855 66.3126 89.6999 66.0694 90.5361 65.5019 91.3961 65.0835 92.0427 64.2201 92.2277 63.5735 91.8093 62.9269 91.391 62.7419 90.5278 63.1602 89.8809 63.1695 89.8668 63.1788 89.8528 63.1886 89.8389 63.3076 89.6976 63.3787 89.5223 63.3919 89.338 63.2448 88.7844 60.3416 87.8414 55.6114 89.097 50.9365 90.3383 48.9053 92.5647 49.0501 93.11 49.101 93.2987 49.8308 93.844 51.7388 93.9434 52.5074 93.9925 53.0908 94.6551 53.0417 95.4237 52.9936 96.1798 52.351 96.759 51.594 96.7285 47.6519 96.5224 46.6199 94.8222 46.3545 93.8247ZM48.8272 108.583 52.8017 126.733C53.0852 128.209 52.725 129.966 50.8354 129.694L44.4624 128.102 32.0813 116.642C29.5967 114.443 29.6664 110.218 32.223 108.1L36.6483 104.266C38.7652 102.44 41.905 102.456 44.0022 104.305Z" fill="#FFFFFF" fill-rule="nonzero" fill-opacity="1"/></g></g></g></g></g><g clip-path="url(#clip12)" filter="url(#fx1)" transform="translate(222 1052)"><g clip-path="url(#clip13)"><g clip-path="url(#clip14)"><g clip-path="url(#clip15)"><g clip-path="url(#clip16)"><path d="M82.1133 85.0509C83.3479 83.9771 84.4826 82.7936 85.5036 81.5148 85.9829 80.9119 85.883 80.0347 85.2801 79.5553 84.6772 79.076 83.7998 79.1759 83.3205 79.7788 82.4062 80.924 81.3898 81.9841 80.2839 82.9456 79.7024 83.4509 79.6406 84.3315 80.1459 84.913 80.6512 85.4946 81.5318 85.5564 82.1133 85.0511Z" fill="#BFBFBF" fill-rule="nonzero" fill-opacity="1"/><path d="M34.8215 102.158 30.3962 105.993C26.5985 109.14 26.4939 115.42 30.187 118.687L45.4293 132.8C51.1429 138.11 59.541 139.343 66.5401 135.901 73.9472 132.468 77.7677 124.167 75.5581 116.307L65.9056 81.8625 90.024 106.234C96.325 112.593 106.255 113.578 113.682 108.579 120.069 104.275 121.424 94.8502 119.458 87.7567L113.217 63.0224 113.217 63.0201 111.188 54.9806 112.188 55.9591C115.623 59.3385 121.115 59.3989 124.625 56.0962L129.324 51.6918C132.248 49.0724 132.271 44.1242 129.368 41.4792L112.483 25.3794C106.763 19.8886 98.0003 19.0987 91.3907 23.4782 85.1687 27.5709 82.2398 35.1685 84.1042 42.3787L90.9863 68.9887C90.9863 68.991 90.9863 68.991 90.9886 68.9933L90.9886 68.998 93.078 77.0723 66.1566 50.9202C61.0968 46.0115 51.4072 44.2939 45.5943 49.6767 38.9886 55.7567 36.3885 65.0489 38.8796 73.6743L47.4374 103.624 45.8523 102.22C42.7081 99.4447 37.9971 99.4178 34.8215 102.158ZM61.2728 94.6413C59.7746 95.3495 58.202 95.888 56.5843 96.2469 55.8329 96.4154 55.0869 95.9429 54.9183 95.1914 54.7498 94.44 55.2224 93.6939 55.9738 93.5254 57.3855 93.2128 58.758 92.7438 60.0656 92.127 60.7598 91.7937 61.593 92.0863 61.9263 92.7805 62.2596 93.4748 61.967 94.308 61.2728 94.6413ZM107.628 68.6535C106.15 69.4059 104.592 69.989 102.983 70.392 102.237 70.5826 101.478 70.1322 101.287 69.3859 101.097 68.6396 101.547 67.8802 102.293 67.6897 103.695 67.3396 105.053 66.8327 106.341 66.1789 107.02 65.8145 107.865 66.069 108.23 66.7474 108.594 67.4259 108.34 68.2714 107.661 68.6358 107.65 68.6417 107.639 68.6475 107.628 68.6531ZM107.811 26.8622 110.819 27.6478 127.444 43.499C129.194 45.0934 129.18 48.0777 127.416 49.6581L122.716 54.0602C120.297 56.3377 116.51 56.2966 114.14 53.9673L109.896 49.8092 105.359 29.0935C105.006 27.7082 106.466 26.3788 107.811 26.8622ZM92.5795 68.5587C91.8253 65.6069 96.2085 62.9039 100.91 61.6446 103.221 61.0257 105.525 60.7821 107.395 60.9457 110.516 61.2581 111.368 62.4332 111.655 63.6095 111.889 64.5657 111.379 65.7489 110.294 65.7245 109.522 65.7222 108.897 65.0942 108.9 64.3219 108.9 64.2752 108.902 64.2282 108.907 64.1817 108.399 63.7569 105.755 63.2437 101.627 64.3402 97.5891 65.4122 95.5371 67.2079 95.3081 67.8305 95.5336 67.9946 96.2803 68.3748 97.8759 68.2993 98.6655 68.2268 99.3641 68.8078 99.4366 69.5974 99.4392 69.6236 99.4408 69.6499 99.4417 69.6762 99.4573 70.5259 98.7103 71.1256 97.8759 71.0884 93.856 70.9096 92.8217 69.5063 92.5795 68.5587ZM85.9729 74.0624C86.131 74.6505 85.8916 75.3315 85.5662 76.1589 85.2652 76.868 85.5962 77.687 86.3053 77.988 87.0144 78.289 87.8335 77.9581 88.1344 77.2489 88.2506 76.977 88.3506 76.712 88.4366 76.4541L94.4098 82.2553 98.8514 100.826C99.1977 102.441 97.773 103.224 96.3993 103.006L88.2111 100.435 76.4529 88.5539C76.991 88.3682 77.5153 88.1444 78.0218 87.8846 78.7079 87.5341 78.98 86.6939 78.6295 86.0078 78.2791 85.3216 77.4389 85.0495 76.7527 85.4 75.2011 86.1147 74.723 86.2539 74.0055 86.081 73.9381 86.0136 73.7475 85.3395 74.4564 83.7475 75.1839 82.1158 76.5714 80.2123 78.2612 78.5226 82.0124 74.769 85.4012 73.6836 85.9729 74.0624ZM62.3984 53.7581C65.0433 54.3229 67.2839 55.9754 67.6186 56.2287L83.4837 71.6406C81.1757 72.4378 78.5308 74.3088 76.2879 76.5493 74.0357 78.8526 72.4343 81.0514 71.5302 83.5801L64.3623 76.3378 59.0864 56.5704C58.5657 54.4507 60.6296 53.3746 62.3984 53.7581ZM46.3545 93.8248C45.515 90.6627 50.0131 87.6863 54.8956 86.4005 59.8747 85.0894 65.4041 85.3883 66.1199 88.7857 66.3126 89.7 66.0695 90.5363 65.5019 91.3962 65.0835 92.0428 64.2201 92.2278 63.5735 91.8095 62.9269 91.3911 62.7419 90.5279 63.1603 89.8811 63.1696 89.8669 63.1788 89.8529 63.1886 89.839 63.3076 89.6977 63.3787 89.5224 63.392 89.3381 63.2449 88.7845 60.3417 87.8416 55.6114 89.0971 50.9365 90.3385 48.9054 92.5648 49.0502 93.1101 49.1011 93.2988 49.8309 93.8441 51.7388 93.9436 52.5074 93.9926 53.0908 94.6552 53.0418 95.4239 52.9937 96.1799 52.351 96.7591 51.594 96.7287 47.6519 96.5225 46.62 94.8223 46.3545 93.8248ZM48.8273 108.584 52.8017 126.733C53.0852 128.209 52.725 129.966 50.8354 129.694L44.4624 128.102 32.0813 116.642C29.5967 114.443 29.6664 110.218 32.2231 108.101L36.6484 104.266C38.7652 102.44 41.9051 102.456 44.0022 104.305Z" fill="#BFBFBF" fill-rule="nonzero" fill-opacity="1"/></g></g></g></g></g><g clip-path="url(#clip17)"><g clip-path="url(#clip18)"><g clip-path="url(#clip19)"><path d="M304.113 1123.3C305.348 1122.23 306.483 1121.04 307.504 1119.76 307.983 1119.16 307.883 1118.28 307.28 1117.81 306.677 1117.33 305.8 1117.43 305.321 1118.03 304.406 1119.17 303.39 1120.23 302.284 1121.2 301.702 1121.7 301.641 1122.58 302.146 1123.16 302.651 1123.74 303.532 1123.81 304.113 1123.3Z" fill="#BFBFBF" fill-rule="nonzero" fill-opacity="1"/><path d="M256.822 1140.41 252.396 1144.24C248.598 1147.39 248.494 1153.67 252.187 1156.94L267.429 1171.05C273.143 1176.36 281.541 1177.59 288.54 1174.15 295.947 1170.72 299.768 1162.42 297.558 1154.56L287.906 1120.11 312.024 1144.48C318.325 1150.84 328.255 1151.83 335.682 1146.83 342.069 1142.52 343.424 1133.1 341.458 1126.01L335.217 1101.27 335.217 1101.27 333.188 1093.23 334.188 1094.21C337.623 1097.59 343.115 1097.65 346.625 1094.35L351.324 1089.94C354.248 1087.32 354.271 1082.37 351.368 1079.73L334.483 1063.63C328.763 1058.14 320 1057.35 313.391 1061.73 307.169 1065.82 304.24 1073.42 306.104 1080.63L312.986 1107.24C312.986 1107.24 312.986 1107.24 312.989 1107.24L312.989 1107.25 315.078 1115.32 288.157 1089.17C283.097 1084.26 273.407 1082.54 267.594 1087.93 260.989 1094.01 258.389 1103.3 260.88 1111.92L269.437 1141.87 267.852 1140.47C264.708 1137.69 259.997 1137.67 256.822 1140.41ZM283.273 1132.89C281.775 1133.6 280.202 1134.14 278.584 1134.5 277.833 1134.67 277.087 1134.19 276.918 1133.44 276.75 1132.69 277.222 1131.94 277.974 1131.78 279.385 1131.46 280.758 1130.99 282.066 1130.38 282.76 1130.04 283.593 1130.34 283.926 1131.03 284.26 1131.72 283.967 1132.56 283.273 1132.89ZM329.628 1106.9C328.15 1107.66 326.592 1108.24 324.983 1108.64 324.237 1108.83 323.478 1108.38 323.287 1107.64 323.097 1106.89 323.547 1106.13 324.293 1105.94 325.695 1105.59 327.053 1105.08 328.341 1104.43 329.02 1104.06 329.865 1104.32 330.23 1105 330.594 1105.68 330.34 1106.52 329.661 1106.89 329.65 1106.89 329.639 1106.9 329.628 1106.9ZM329.811 1065.11 332.819 1065.9 349.444 1081.75C351.194 1083.34 351.18 1086.33 349.416 1087.91L344.716 1092.31C342.297 1094.59 338.51 1094.55 336.14 1092.22L331.896 1088.06 327.359 1067.34C327.006 1065.96 328.466 1064.63 329.811 1065.11ZM314.579 1106.81C313.825 1103.86 318.209 1101.15 322.91 1099.89 325.221 1099.28 327.525 1099.03 329.395 1099.2 332.516 1099.51 333.368 1100.68 333.655 1101.86 333.889 1102.82 333.379 1104 332.294 1103.97 331.522 1103.97 330.897 1103.34 330.9 1102.57 330.9 1102.53 330.902 1102.48 330.907 1102.43 330.399 1102.01 327.755 1101.49 323.627 1102.59 319.589 1103.66 317.537 1105.46 317.308 1106.08 317.534 1106.24 318.28 1106.62 319.876 1106.55 320.665 1106.48 321.364 1107.06 321.437 1107.85 321.439 1107.87 321.441 1107.9 321.442 1107.93 321.457 1108.78 320.71 1109.38 319.876 1109.34 315.856 1109.16 314.822 1107.76 314.579 1106.81ZM307.973 1112.31C308.131 1112.9 307.892 1113.58 307.566 1114.41 307.265 1115.12 307.596 1115.94 308.305 1116.24 309.014 1116.54 309.833 1116.21 310.134 1115.5 310.251 1115.23 310.351 1114.96 310.437 1114.7L316.41 1120.51 320.851 1139.08C321.198 1140.69 319.773 1141.47 318.399 1141.26L310.211 1138.69 298.453 1126.8C298.991 1126.62 299.515 1126.39 300.022 1126.13 300.708 1125.78 300.98 1124.94 300.63 1124.26 300.279 1123.57 299.439 1123.3 298.753 1123.65 297.201 1124.36 296.723 1124.5 296.006 1124.33 295.938 1124.26 295.748 1123.59 296.456 1122 297.184 1120.37 298.571 1118.46 300.261 1116.77 304.012 1113.02 307.401 1111.93 307.973 1112.31ZM284.398 1092.01C287.043 1092.57 289.284 1094.23 289.619 1094.48L305.484 1109.89C303.176 1110.69 300.531 1112.56 298.288 1114.8 296.036 1117.1 294.434 1119.3 293.53 1121.83L286.362 1114.59 281.086 1094.82C280.566 1092.7 282.63 1091.62 284.398 1092.01ZM268.355 1132.07C267.515 1128.91 272.013 1125.94 276.896 1124.65 281.875 1123.34 287.404 1123.64 288.12 1127.04 288.313 1127.95 288.069 1128.79 287.502 1129.65 287.084 1130.29 286.22 1130.48 285.573 1130.06 284.927 1129.64 284.742 1128.78 285.16 1128.13 285.17 1128.12 285.179 1128.1 285.189 1128.09 285.308 1127.95 285.379 1127.77 285.392 1127.59 285.245 1127.03 282.342 1126.09 277.611 1127.35 272.936 1128.59 270.905 1130.81 271.05 1131.36 271.101 1131.55 271.831 1132.09 273.739 1132.19 274.507 1132.24 275.091 1132.91 275.042 1133.67 274.994 1134.43 274.351 1135.01 273.594 1134.98 269.652 1134.77 268.62 1133.07 268.355 1132.07ZM270.827 1146.83 274.802 1164.98C275.085 1166.46 274.725 1168.22 272.835 1167.94L266.462 1166.35 254.081 1154.89C251.597 1152.69 251.666 1148.47 254.223 1146.35L258.648 1142.52C260.765 1140.69 263.905 1140.71 266.002 1142.56Z" fill="#BFBFBF" fill-rule="nonzero" fill-opacity="1"/></g></g></g><g clip-path="url(#clip20)" filter="url(#fx2)" transform="matrix(3.49194 0 0 3.49194 84 914)"><g clip-path="url(#clip21)"><g clip-path="url(#clip22)" transform="matrix(1 0 0 1 1.19209e-06 2.98023e-06)"><g clip-path="url(#clip23)" transform="matrix(1 0 0 1 1.19209e-06 2.98023e-06)"><g clip-path="url(#clip24)" transform="matrix(1 0 0 1 1.19209e-06 2.98023e-06)"><path d="M62.7484 63.5896C63.1019 63.2821 63.4269 62.9432 63.7193 62.577 63.8565 62.4043 63.8279 62.1531 63.6553 62.0158 63.4826 61.8786 63.2313 61.9072 63.0941 62.0798 62.8322 62.4078 62.5412 62.7113 62.2245 62.9867 62.058 63.1314 62.0403 63.3836 62.185 63.5501 62.3297 63.7167 62.5819 63.7344 62.7484 63.5897Z" fill="#FFFFFF" fill-rule="nonzero" fill-opacity="1"/><path d="M49.2052 68.4885 47.9379 69.5867C46.8504 70.488 46.8204 72.2864 47.878 73.2222L52.243 77.2637C53.8793 78.7844 56.2842 79.1376 58.2886 78.1516 60.4098 77.1685 61.5039 74.7913 60.8711 72.5407L58.1069 62.6765 65.0138 69.656C66.8182 71.477 69.6621 71.7589 71.7889 70.3276 73.618 69.0949 74.006 66.3959 73.4429 64.3645L71.6558 57.2812 71.6558 57.2805 71.0747 54.9783 71.3609 55.2585C72.3448 56.2262 73.9175 56.2435 74.9225 55.2977L76.2684 54.0364C77.1057 53.2863 77.1123 51.8693 76.281 51.1118L71.4455 46.5012C69.8074 44.9288 67.298 44.7026 65.4052 45.9568 63.6234 47.1288 62.7846 49.3046 63.3185 51.3694L65.2894 58.9898C65.2894 58.9905 65.2894 58.9905 65.29 58.9911L65.29 58.9925 65.8884 61.3047 58.1788 53.8155C56.7298 52.4097 53.9549 51.9178 52.2903 53.4594 50.3986 55.2005 49.654 57.8615 50.3674 60.3316L52.8181 68.9085 52.3642 68.5065C51.4638 67.7116 50.1146 67.7039 49.2052 68.4885ZM56.7802 66.336C56.3511 66.5389 55.9008 66.6931 55.4375 66.7958 55.2224 66.8441 55.0087 66.7088 54.9604 66.4936 54.9122 66.2784 55.0475 66.0648 55.2627 66.0165 55.667 65.927 56.06 65.7927 56.4345 65.616 56.6333 65.5206 56.8719 65.6044 56.9674 65.8032 57.0628 66.002 56.979 66.2406 56.7802 66.336ZM70.0552 58.8938C69.6319 59.1093 69.1858 59.2763 68.725 59.3917 68.5113 59.4463 68.2939 59.3173 68.2393 59.1035 68.1847 58.8898 68.3137 58.6724 68.5274 58.6178 68.9288 58.5176 69.3177 58.3724 69.6866 58.1852 69.8809 58.0808 70.123 58.1537 70.2274 58.348 70.3318 58.5423 70.2589 58.7844 70.0646 58.8888 70.0615 58.8904 70.0584 58.8921 70.0552 58.8937ZM70.1076 46.9259 70.9689 47.1508 75.7299 51.6902C76.2311 52.1468 76.2271 53.0014 75.7219 53.454L74.3761 54.7147C73.6831 55.3669 72.5987 55.3551 71.92 54.6881L70.7047 53.4973 69.4054 47.5648C69.3042 47.1682 69.7222 46.7874 70.1076 46.9259ZM65.7456 58.8667C65.5296 58.0214 66.7849 57.2473 68.1313 56.8867 68.7931 56.7094 69.4529 56.6396 69.9883 56.6865 70.8822 56.776 71.1261 57.1125 71.2084 57.4493 71.2754 57.7232 71.1293 58.062 70.8186 58.055 70.5974 58.0544 70.4186 57.8745 70.4193 57.6533 70.4193 57.64 70.42 57.6265 70.4214 57.6132 70.276 57.4915 69.5187 57.3446 68.3365 57.6586 67.1803 57.9656 66.5926 58.4798 66.527 58.6581 66.5916 58.7051 66.8055 58.814 67.2624 58.7924 67.4885 58.7716 67.6886 58.938 67.7093 59.1641 67.7101 59.1716 67.7105 59.1792 67.7108 59.1867 67.7153 59.43 67.5013 59.6017 67.2624 59.5911 66.1112 59.5399 65.815 59.138 65.7456 58.8667ZM63.8537 60.4428C63.8989 60.6112 63.8304 60.8062 63.7372 61.0432 63.651 61.2462 63.7458 61.4808 63.9489 61.567 64.1519 61.6532 64.3865 61.5584 64.4727 61.3553 64.506 61.2775 64.5346 61.2016 64.5592 61.1277L66.2698 62.789 67.5417 68.1071C67.6409 68.5697 67.2329 68.794 66.8395 68.7315L64.4946 67.9953 61.1274 64.5928C61.2815 64.5396 61.4316 64.4755 61.5767 64.4011 61.7732 64.3007 61.8511 64.0601 61.7507 63.8636 61.6503 63.6671 61.4097 63.5892 61.2133 63.6896 60.7689 63.8942 60.632 63.9341 60.4265 63.8846 60.4072 63.8653 60.3526 63.6723 60.5556 63.2163 60.764 62.7491 61.1613 62.204 61.6452 61.7201 62.7195 60.6451 63.6899 60.3343 63.8537 60.4428ZM57.1025 54.6282C57.86 54.7899 58.5016 55.2631 58.5975 55.3357L63.1408 59.7492C62.4799 59.9775 61.7224 60.5133 61.0801 61.155 60.4352 61.8146 59.9766 62.4442 59.7177 63.1684L57.665 61.0944 56.1541 55.4335C56.005 54.8265 56.596 54.5183 57.1025 54.6282ZM52.508 66.1022C52.2676 65.1967 53.5557 64.3443 54.9539 63.9761 56.3798 63.6006 57.9633 63.6862 58.1683 64.6591 58.2235 64.921 58.1538 65.1605 57.9913 65.4067 57.8715 65.5919 57.6242 65.6449 57.4391 65.5251 57.2539 65.4053 57.2009 65.1581 57.3207 64.9728 57.3234 64.9688 57.326 64.9648 57.3288 64.9608 57.3629 64.9203 57.3833 64.8701 57.3871 64.8174 57.3449 64.6588 56.5135 64.3888 55.1589 64.7483 53.8201 65.1038 53.2385 65.7414 53.2799 65.8976 53.2945 65.9516 53.5035 66.1077 54.0499 66.1362 54.27 66.1503 54.4371 66.34 54.423 66.5602 54.4093 66.7767 54.2252 66.9425 54.0084 66.9338 52.8795 66.8748 52.584 66.3879 52.508 66.1022ZM53.2161 70.3288 54.3543 75.5264C54.4355 75.949 54.3323 76.4522 53.7912 76.3744L51.9661 75.9184 48.4205 72.6365C47.709 72.0069 47.7289 70.7968 48.4611 70.1904L49.7284 69.0922C50.3346 68.5693 51.2338 68.5741 51.8343 69.1035Z" fill="#FFFFFF" fill-rule="nonzero" fill-opacity="1"/></g></g></g></g></g><g clip-path="url(#clip25)"><g clip-path="url(#clip26)"><g clip-path="url(#clip27)"><path d="M303.113 1122.3C304.348 1121.23 305.483 1120.04 306.504 1118.76 306.983 1118.16 306.883 1117.28 306.28 1116.81 305.677 1116.33 304.8 1116.43 304.32 1117.03 303.406 1118.17 302.39 1119.23 301.284 1120.2 300.702 1120.7 300.641 1121.58 301.146 1122.16 301.651 1122.74 302.532 1122.81 303.113 1122.3Z" fill="#FFFFFF" fill-rule="nonzero" fill-opacity="1"/><path d="M255.822 1139.41 251.396 1143.24C247.598 1146.39 247.494 1152.67 251.187 1155.94L266.429 1170.05C272.143 1175.36 280.541 1176.59 287.54 1173.15 294.947 1169.72 298.768 1161.42 296.558 1153.56L286.906 1119.11 311.024 1143.48C317.325 1149.84 327.255 1150.83 334.682 1145.83 341.069 1141.52 342.424 1132.1 340.458 1125.01L334.217 1100.27 334.217 1100.27 332.188 1092.23 333.188 1093.21C336.623 1096.59 342.115 1096.65 345.625 1093.35L350.324 1088.94C353.248 1086.32 353.271 1081.37 350.368 1078.73L333.483 1062.63C327.763 1057.14 319 1056.35 312.391 1060.73 306.169 1064.82 303.24 1072.42 305.104 1079.63L311.986 1106.24C311.986 1106.24 311.986 1106.24 311.989 1106.24L311.989 1106.25 314.078 1114.32 287.157 1088.17C282.097 1083.26 272.407 1081.54 266.594 1086.93 259.989 1093.01 257.389 1102.3 259.88 1110.92L268.437 1140.87 266.852 1139.47C263.708 1136.69 258.997 1136.67 255.822 1139.41ZM282.273 1131.89C280.775 1132.6 279.202 1133.14 277.584 1133.5 276.833 1133.67 276.087 1133.19 275.918 1132.44 275.75 1131.69 276.222 1130.94 276.974 1130.78 278.385 1130.46 279.758 1129.99 281.066 1129.38 281.76 1129.04 282.593 1129.34 282.926 1130.03 283.26 1130.72 282.967 1131.56 282.273 1131.89ZM328.628 1105.9C327.15 1106.66 325.592 1107.24 323.983 1107.64 323.237 1107.83 322.478 1107.38 322.287 1106.64 322.097 1105.89 322.547 1105.13 323.293 1104.94 324.695 1104.59 326.053 1104.08 327.341 1103.43 328.02 1103.06 328.865 1103.32 329.23 1104 329.594 1104.68 329.34 1105.52 328.661 1105.89 328.65 1105.89 328.639 1105.9 328.628 1105.9ZM328.811 1064.11 331.819 1064.9 348.444 1080.75C350.194 1082.34 350.18 1085.33 348.416 1086.91L343.716 1091.31C341.297 1093.59 337.51 1093.55 335.14 1091.22L330.896 1087.06 326.359 1066.34C326.006 1064.96 327.466 1063.63 328.811 1064.11ZM313.579 1105.81C312.825 1102.86 317.208 1100.15 321.91 1098.89 324.221 1098.28 326.525 1098.03 328.395 1098.2 331.516 1098.51 332.368 1099.68 332.655 1100.86 332.889 1101.82 332.379 1103 331.294 1102.97 330.522 1102.97 329.897 1102.34 329.9 1101.57 329.9 1101.53 329.902 1101.48 329.907 1101.43 329.399 1101.01 326.755 1100.49 322.626 1101.59 318.589 1102.66 316.537 1104.46 316.308 1105.08 316.534 1105.24 317.28 1105.62 318.876 1105.55 319.665 1105.48 320.364 1106.06 320.437 1106.85 320.439 1106.87 320.441 1106.9 320.442 1106.93 320.457 1107.78 319.71 1108.38 318.876 1108.34 314.856 1108.16 313.822 1106.76 313.579 1105.81ZM306.973 1111.31C307.131 1111.9 306.892 1112.58 306.566 1113.41 306.265 1114.12 306.596 1114.94 307.305 1115.24 308.014 1115.54 308.833 1115.21 309.134 1114.5 309.251 1114.23 309.351 1113.96 309.437 1113.7L315.41 1119.51 319.851 1138.08C320.198 1139.69 318.773 1140.47 317.399 1140.26L309.211 1137.69 297.453 1125.8C297.991 1125.62 298.515 1125.39 299.022 1125.13 299.708 1124.78 299.98 1123.94 299.63 1123.26 299.279 1122.57 298.439 1122.3 297.753 1122.65 296.201 1123.36 295.723 1123.5 295.005 1123.33 294.938 1123.26 294.747 1122.59 295.456 1121 296.184 1119.37 297.571 1117.46 299.261 1115.77 303.012 1112.02 306.401 1110.93 306.973 1111.31ZM283.398 1091.01C286.043 1091.57 288.284 1093.23 288.619 1093.48L304.484 1108.89C302.176 1109.69 299.531 1111.56 297.288 1113.8 295.036 1116.1 293.434 1118.3 292.53 1120.83L285.362 1113.59 280.086 1093.82C279.566 1091.7 281.63 1090.62 283.398 1091.01ZM267.354 1131.07C266.515 1127.91 271.013 1124.94 275.896 1123.65 280.875 1122.34 286.404 1122.64 287.12 1126.04 287.313 1126.95 287.069 1127.79 286.502 1128.65 286.084 1129.29 285.22 1129.48 284.573 1129.06 283.927 1128.64 283.742 1127.78 284.16 1127.13 284.17 1127.12 284.179 1127.1 284.189 1127.09 284.308 1126.95 284.379 1126.77 284.392 1126.59 284.245 1126.03 281.342 1125.09 276.611 1126.35 271.936 1127.59 269.905 1129.81 270.05 1130.36 270.101 1130.55 270.831 1131.09 272.739 1131.19 273.507 1131.24 274.091 1131.91 274.042 1132.67 273.994 1133.43 273.351 1134.01 272.594 1133.98 268.652 1133.77 267.62 1132.07 267.354 1131.07ZM269.827 1145.83 273.802 1163.98C274.085 1165.46 273.725 1167.22 271.835 1166.94L265.462 1165.35 253.081 1153.89C250.597 1151.69 250.666 1147.47 253.223 1145.35L257.648 1141.52C259.765 1139.69 262.905 1139.71 265.002 1141.56Z" fill="#FFFFFF" fill-rule="nonzero" fill-opacity="1"/></g></g></g></g></svg>