<svg width="1627" height="1604" xmlns="http://www.w3.org/2000/svg" xmlns:xlink="http://www.w3.org/1999/xlink" xml:space="preserve" overflow="hidden"><defs><filter id="fx0" x="-10%" y="-10%" width="120%" height="120%" filterUnits="userSpaceOnUse" primitiveUnits="userSpaceOnUse"><feComponentTransfer color-interpolation-filters="sRGB"><feFuncR type="discrete" tableValues="0.949020 0.949020"/><feFuncG type="discrete" tableValues="0.949020 0.949020"/><feFuncB type="discrete" tableValues="0.949020 0.949020"/><feFuncA type="linear" slope="0.400000" intercept="0.000000"/></feComponentTransfer><feGaussianBlur stdDeviation="6.111111 6.111111"/></filter><filter id="fx1" x="-10%" y="-10%" width="120%" height="120%" filterUnits="userSpaceOnUse" primitiveUnits="userSpaceOnUse"><feComponentTransfer color-interpolation-filters="sRGB"><feFuncR type="discrete" tableValues="0.949020 0.949020"/><feFuncG type="discrete" tableValues="0.949020 0.949020"/><feFuncB type="discrete" tableValues="0.949020 0.949020"/><feFuncA type="linear" slope="0.400000" intercept="0.000000"/></feComponentTransfer><feGaussianBlur stdDeviation="6.111111 6.111111"/></filter><filter id="fx2" x="-10%" y="-10%" width="120%" height="120%" filterUnits="userSpaceOnUse" primitiveUnits="userSpaceOnUse"><feComponentTransfer color-interpolation-filters="sRGB"><feFuncR type="discrete" tableValues="0.949020 0.949020"/><feFuncG type="discrete" tableValues="0.949020 0.949020"/><feFuncB type="discrete" tableValues="0.949020 0.949020"/><feFuncA type="linear" slope="0.400000" intercept="0.000000"/></feComponentTransfer><feGaussianBlur stdDeviation="6.111111 6.111111"/></filter><filter id="fx3" x="-10%" y="-10%" width="120%" height="120%" filterUnits="userSpaceOnUse" primitiveUnits="userSpaceOnUse"><feComponentTransfer color-interpolation-filters="sRGB"><feFuncR type="discrete" tableValues="0.949020 0.949020"/><feFuncG type="discrete" tableValues="0.949020 0.949020"/><feFuncB type="discrete" tableValues="0.949020 0.949020"/><feFuncA type="linear" slope="0.400000" intercept="0.000000"/></feComponentTransfer><feGaussianBlur stdDeviation="6.111111 6.111111"/></filter><filter id="fx4" x="-10%" y="-10%" width="120%" height="120%" filterUnits="userSpaceOnUse" primitiveUnits="userSpaceOnUse"><feComponentTransfer color-interpolation-filters="sRGB"><feFuncR type="discrete" tableValues="0.949020 0.949020"/><feFuncG type="discrete" tableValues="0.949020 0.949020"/><feFuncB type="discrete" tableValues="0.949020 0.949020"/><feFuncA type="linear" slope="0.400000" intercept="0.000000"/></feComponentTransfer><feGaussianBlur stdDeviation="6.111111 6.111111"/></filter><filter id="fx5" x="-10%" y="-10%" width="120%" height="120%" filterUnits="userSpaceOnUse" primitiveUnits="userSpaceOnUse"><feComponentTransfer color-interpolation-filters="sRGB"><feFuncR type="discrete" tableValues="0.949020 0.949020"/><feFuncG type="discrete" tableValues="0.949020 0.949020"/><feFuncB type="discrete" tableValues="0.949020 0.949020"/><feFuncA type="linear" slope="0.400000" intercept="0.000000"/></feComponentTransfer><feGaussianBlur stdDeviation="6.111111 6.111111"/></filter><filter id="fx6" x="-10%" y="-10%" width="120%" height="120%" filterUnits="userSpaceOnUse" primitiveUnits="userSpaceOnUse"><feComponentTransfer color-interpolation-filters="sRGB"><feFuncR type="discrete" tableValues="0.949020 0.949020"/><feFuncG type="discrete" tableValues="0.949020 0.949020"/><feFuncB type="discrete" tableValues="0.949020 0.949020"/><feFuncA type="linear" slope="0.400000" intercept="0.000000"/></feComponentTransfer><feGaussianBlur stdDeviation="6.111111 6.111111"/></filter><filter id="fx7" x="-10%" y="-10%" width="120%" height="120%" filterUnits="userSpaceOnUse" primitiveUnits="userSpaceOnUse"><feComponentTransfer color-interpolation-filters="sRGB"><feFuncR type="discrete" tableValues="0.949020 0.949020"/><feFuncG type="discrete" tableValues="0.949020 0.949020"/><feFuncB type="discrete" tableValues="0.949020 0.949020"/><feFuncA type="linear" slope="0.400000" intercept="0.000000"/></feComponentTransfer><feGaussianBlur stdDeviation="6.111111 6.111111"/></filter><filter id="fx8" x="-10%" y="-10%" width="120%" height="120%" filterUnits="userSpaceOnUse" primitiveUnits="userSpaceOnUse"><feComponentTransfer color-interpolation-filters="sRGB"><feFuncR type="discrete" tableValues="0.949020 0.949020"/><feFuncG type="discrete" tableValues="0.949020 0.949020"/><feFuncB type="discrete" tableValues="0.949020 0.949020"/><feFuncA type="linear" slope="0.400000" intercept="0.000000"/></feComponentTransfer><feGaussianBlur stdDeviation="6.111111 6.111111"/></filter><filter id="fx9" x="-10%" y="-10%" width="120%" height="120%" filterUnits="userSpaceOnUse" primitiveUnits="userSpaceOnUse"><feComponentTransfer color-interpolation-filters="sRGB"><feFuncR type="discrete" tableValues="0.949020 0.949020"/><feFuncG type="discrete" tableValues="0.949020 0.949020"/><feFuncB type="discrete" tableValues="0.949020 0.949020"/><feFuncA type="linear" slope="0.400000" intercept="0.000000"/></feComponentTransfer><feGaussianBlur stdDeviation="6.111111 6.111111"/></filter><filter id="fx10" x="-10%" y="-10%" width="120%" height="120%" filterUnits="userSpaceOnUse" primitiveUnits="userSpaceOnUse"><feComponentTransfer color-interpolation-filters="sRGB"><feFuncR type="discrete" tableValues="0.949020 0.949020"/><feFuncG type="discrete" tableValues="0.949020 0.949020"/><feFuncB type="discrete" tableValues="0.949020 0.949020"/><feFuncA type="linear" slope="0.400000" intercept="0.000000"/></feComponentTransfer><feGaussianBlur stdDeviation="6.111111 6.111111"/></filter><filter id="fx11" x="-10%" y="-10%" width="120%" height="120%" filterUnits="userSpaceOnUse" primitiveUnits="userSpaceOnUse"><feComponentTransfer color-interpolation-filters="sRGB"><feFuncR type="discrete" tableValues="0.949020 0.949020"/><feFuncG type="discrete" tableValues="0.949020 0.949020"/><feFuncB type="discrete" tableValues="0.949020 0.949020"/><feFuncA type="linear" slope="0.400000" intercept="0.000000"/></feComponentTransfer><feGaussianBlur stdDeviation="6.111111 6.111111"/></filter><filter id="fx12" x="-10%" y="-10%" width="120%" height="120%" filterUnits="userSpaceOnUse" primitiveUnits="userSpaceOnUse"><feComponentTransfer color-interpolation-filters="sRGB"><feFuncR type="discrete" tableValues="0.949020 0.949020"/><feFuncG type="discrete" tableValues="0.949020 0.949020"/><feFuncB type="discrete" tableValues="0.949020 0.949020"/><feFuncA type="linear" slope="0.400000" intercept="0.000000"/></feComponentTransfer><feGaussianBlur stdDeviation="6.111111 6.111111"/></filter><filter id="fx13" x="-10%" y="-10%" width="120%" height="120%" filterUnits="userSpaceOnUse" primitiveUnits="userSpaceOnUse"><feComponentTransfer color-interpolation-filters="sRGB"><feFuncR type="discrete" tableValues="0.949020 0.949020"/><feFuncG type="discrete" tableValues="0.949020 0.949020"/><feFuncB type="discrete" tableValues="0.949020 0.949020"/><feFuncA type="linear" slope="0.400000" intercept="0.000000"/></feComponentTransfer><feGaussianBlur stdDeviation="6.111111 6.111111"/></filter><filter id="fx14" x="-10%" y="-10%" width="120%" height="120%" filterUnits="userSpaceOnUse" primitiveUnits="userSpaceOnUse"><feComponentTransfer color-interpolation-filters="sRGB"><feFuncR type="discrete" tableValues="0.949020 0.949020"/><feFuncG type="discrete" tableValues="0.949020 0.949020"/><feFuncB type="discrete" tableValues="0.949020 0.949020"/><feFuncA type="linear" slope="0.400000" intercept="0.000000"/></feComponentTransfer><feGaussianBlur stdDeviation="6.111111 6.111111"/></filter><filter id="fx15" x="-10%" y="-10%" width="120%" height="120%" filterUnits="userSpaceOnUse" primitiveUnits="userSpaceOnUse"><feComponentTransfer color-interpolation-filters="sRGB"><feFuncR type="discrete" tableValues="0.949020 0.949020"/><feFuncG type="discrete" tableValues="0.949020 0.949020"/><feFuncB type="discrete" tableValues="0.949020 0.949020"/><feFuncA type="linear" slope="0.400000" intercept="0.000000"/></feComponentTransfer><feGaussianBlur stdDeviation="6.111111 6.111111"/></filter><filter id="fx16" x="-10%" y="-10%" width="120%" height="120%" filterUnits="userSpaceOnUse" primitiveUnits="userSpaceOnUse"><feComponentTransfer color-interpolation-filters="sRGB"><feFuncR type="discrete" tableValues="0.949020 0.949020"/><feFuncG type="discrete" tableValues="0.949020 0.949020"/><feFuncB type="discrete" tableValues="0.949020 0.949020"/><feFuncA type="linear" slope="0.400000" intercept="0.000000"/></feComponentTransfer><feGaussianBlur stdDeviation="6.111111 6.111111"/></filter><filter id="fx17" x="-10%" y="-10%" width="120%" height="120%" filterUnits="userSpaceOnUse" primitiveUnits="userSpaceOnUse"><feComponentTransfer color-interpolation-filters="sRGB"><feFuncR type="discrete" tableValues="0.949020 0.949020"/><feFuncG type="discrete" tableValues="0.949020 0.949020"/><feFuncB type="discrete" tableValues="0.949020 0.949020"/><feFuncA type="linear" slope="0.400000" intercept="0.000000"/></feComponentTransfer><feGaussianBlur stdDeviation="6.111111 6.111111"/></filter><filter id="fx18" x="-10%" y="-10%" width="120%" height="120%" filterUnits="userSpaceOnUse" primitiveUnits="userSpaceOnUse"><feComponentTransfer color-interpolation-filters="sRGB"><feFuncR type="discrete" tableValues="0.949020 0.949020"/><feFuncG type="discrete" tableValues="0.949020 0.949020"/><feFuncB type="discrete" tableValues="0.949020 0.949020"/><feFuncA type="linear" slope="0.400000" intercept="0.000000"/></feComponentTransfer><feGaussianBlur stdDeviation="6.111111 6.111111"/></filter><filter id="fx19" x="-10%" y="-10%" width="120%" height="120%" filterUnits="userSpaceOnUse" primitiveUnits="userSpaceOnUse"><feComponentTransfer color-interpolation-filters="sRGB"><feFuncR type="discrete" tableValues="0.949020 0.949020"/><feFuncG type="discrete" tableValues="0.949020 0.949020"/><feFuncB type="discrete" tableValues="0.949020 0.949020"/><feFuncA type="linear" slope="0.400000" intercept="0.000000"/></feComponentTransfer><feGaussianBlur stdDeviation="6.111111 6.111111"/></filter><filter id="fx20" x="-10%" y="-10%" width="120%" height="120%" filterUnits="userSpaceOnUse" primitiveUnits="userSpaceOnUse"><feComponentTransfer color-interpolation-filters="sRGB"><feFuncR type="discrete" tableValues="0.949020 0.949020"/><feFuncG type="discrete" tableValues="0.949020 0.949020"/><feFuncB type="discrete" tableValues="0.949020 0.949020"/><feFuncA type="linear" slope="0.400000" intercept="0.000000"/></feComponentTransfer><feGaussianBlur stdDeviation="6.111111 6.111111"/></filter><filter id="fx21" x="-10%" y="-10%" width="120%" height="120%" filterUnits="userSpaceOnUse" primitiveUnits="userSpaceOnUse"><feComponentTransfer color-interpolation-filters="sRGB"><feFuncR type="discrete" tableValues="0.949020 0.949020"/><feFuncG type="discrete" tableValues="0.949020 0.949020"/><feFuncB type="discrete" tableValues="0.949020 0.949020"/><feFuncA type="linear" slope="0.400000" intercept="0.000000"/></feComponentTransfer><feGaussianBlur stdDeviation="6.111111 6.111111"/></filter><clipPath id="clip22"><rect x="1375" y="426" width="1627" height="1604"/></clipPath><clipPath id="clip23"><rect x="-18.3334" y="-18.3333" width="1661.67" height="1638.67"/></clipPath><clipPath id="clip24"><rect x="0" y="0" width="1625" height="1602"/></clipPath><clipPath id="clip25"><rect x="-18.3334" y="-18.3333" width="1085.67" height="1082.67"/></clipPath><clipPath id="clip26"><rect x="0" y="0" width="1049" height="1046"/></clipPath><clipPath id="clip27"><rect x="-18.3334" y="-18.3333" width="1035.67" height="1019.67"/></clipPath><clipPath id="clip28"><rect x="0" y="0" width="999" height="983"/></clipPath><clipPath id="clip29"><rect x="-18.3334" y="-18.3333" width="1149.67" height="1143.67"/></clipPath><clipPath id="clip30"><rect x="0" y="0" width="1113" height="1107"/></clipPath><clipPath id="clip31"><rect x="-18.3334" y="-18.3333" width="967.667" height="945.667"/></clipPath><clipPath id="clip32"><rect x="0" y="0" width="931" height="909"/></clipPath><clipPath id="clip33"><rect x="-18.3334" y="-18.3333" width="237.667" height="647.667"/></clipPath><clipPath id="clip34"><rect x="0" y="0" width="201" height="611"/></clipPath><clipPath id="clip35"><rect x="-18.3334" y="-18.3333" width="265.667" height="264.667"/></clipPath><clipPath id="clip36"><rect x="0" y="0" width="229" height="228"/></clipPath><clipPath id="clip37"><rect x="-18.3333" y="-18.3333" width="265.667" height="265.667"/></clipPath><clipPath id="clip38"><rect x="0" y="0" width="229" height="229"/></clipPath><clipPath id="clip39"><rect x="-18.3333" y="-18.3333" width="265.667" height="265.667"/></clipPath><clipPath id="clip40"><rect x="0" y="0" width="229" height="229"/></clipPath><clipPath id="clip41"><rect x="-18.3334" y="-18.3334" width="265.667" height="265.667"/></clipPath><clipPath id="clip42"><rect x="0" y="0" width="229" height="229"/></clipPath><clipPath id="clip43"><rect x="-18.3333" y="-18.3334" width="265.667" height="264.667"/></clipPath><clipPath id="clip44"><rect x="0" y="0" width="229" height="228"/></clipPath><clipPath id="clip45"><rect x="-18.3333" y="-18.3334" width="265.667" height="264.667"/></clipPath><clipPath id="clip46"><rect x="0" y="0" width="229" height="228"/></clipPath><clipPath id="clip47"><rect x="-18.3334" y="-18.3334" width="265.667" height="265.667"/></clipPath><clipPath id="clip48"><rect x="0" y="0" width="229" height="229"/></clipPath><clipPath id="clip49"><rect x="-18.3333" y="-18.3334" width="265.667" height="265.667"/></clipPath><clipPath id="clip50"><rect x="0" y="0" width="229" height="229"/></clipPath><clipPath id="clip51"><rect x="-18.3333" y="-18.3334" width="265.667" height="265.667"/></clipPath><clipPath id="clip52"><rect x="0" y="0" width="229" height="229"/></clipPath><clipPath id="clip53"><rect x="-18.3333" y="-18.3333" width="237.667" height="647.667"/></clipPath><clipPath id="clip54"><rect x="0" y="0" width="201" height="611"/></clipPath><clipPath id="clip55"><rect x="-18.3334" y="-18.3333" width="647.667" height="237.667"/></clipPath><clipPath id="clip56"><rect x="0" y="0" width="611" height="201"/></clipPath><clipPath id="clip57"><rect x="-18.3334" y="-18.3334" width="647.667" height="237.667"/></clipPath><clipPath id="clip58"><rect x="0" y="0" width="611" height="201"/></clipPath><clipPath id="clip59"><rect x="-18.3334" y="-18.3333" width="438.667" height="436.667"/></clipPath><clipPath id="clip60"><rect x="0" y="0" width="402" height="400"/></clipPath><clipPath id="clip61"><rect x="-18.3333" y="-18.3333" width="438.667" height="436.667"/></clipPath><clipPath id="clip62"><rect x="0" y="0" width="402" height="400"/></clipPath><clipPath id="clip63"><rect x="-18.3334" y="-18.3334" width="438.667" height="436.667"/></clipPath><clipPath id="clip64"><rect x="0" y="0" width="402" height="400"/></clipPath><clipPath id="clip65"><rect x="-18.3333" y="-18.3334" width="438.667" height="437.667"/></clipPath><clipPath id="clip66"><rect x="0" y="0" width="402" height="401"/></clipPath></defs><g clip-path="url(#clip22)" transform="translate(-1375 -426)"><g clip-path="url(#clip23)" filter="url(#fx0)" transform="translate(1378 427)"><g clip-path="url(#clip24)"><path d="M22.7772 156.274C22.7772 82.5459 82.5457 22.7774 156.274 22.7774L1469.28 22.7774C1543.01 22.7774 1602.78 82.5459 1602.78 156.274L1602.78 1446.28C1602.78 1520.01 1543.01 1579.78 1469.28 1579.78L156.274 1579.78C82.5457 1579.78 22.7772 1520.01 22.7772 1446.28Z" stroke="#F2F2F2" stroke-width="5" stroke-linecap="butt" stroke-linejoin="miter" stroke-miterlimit="8" stroke-opacity="1" fill="#7F7F7F" fill-rule="evenodd" fill-opacity="0.301961"/></g></g><path d="M1410.5 592.997C1410.5 519.269 1470.27 459.5 1544 459.5L2857 459.5C2930.73 459.5 2990.5 519.269 2990.5 592.997L2990.5 1883C2990.5 1956.73 2930.73 2016.5 2857 2016.5L1544 2016.5C1470.27 2016.5 1410.5 1956.73 1410.5 1883Z" stroke="#F2F2F2" stroke-width="4.58333" stroke-linecap="butt" stroke-linejoin="miter" stroke-miterlimit="8" stroke-opacity="1" fill="#7F7F7F" fill-rule="evenodd" fill-opacity="0.301961"/><g clip-path="url(#clip25)" filter="url(#fx1)" transform="translate(1666 700)"><g clip-path="url(#clip26)"><path d="M22.7772 218.463C22.7772 110.389 110.389 22.7773 218.463 22.7773L831.092 22.7773C939.166 22.7773 1026.78 110.389 1026.78 218.463L1026.78 828.092C1026.78 936.166 939.166 1023.78 831.092 1023.78L218.463 1023.78C110.389 1023.78 22.7772 936.166 22.7772 828.092Z" stroke="#F2F2F2" stroke-width="5" stroke-linecap="butt" stroke-linejoin="miter" stroke-miterlimit="8" stroke-opacity="1" fill="#D9D9D9" fill-rule="evenodd" fill-opacity="0.301961"/></g></g><path d="M1698.5 928.186C1698.5 820.112 1786.11 732.5 1894.19 732.5L2506.81 732.5C2614.89 732.5 2702.5 820.112 2702.5 928.186L2702.5 1537.81C2702.5 1645.89 2614.89 1733.5 2506.81 1733.5L1894.19 1733.5C1786.11 1733.5 1698.5 1645.89 1698.5 1537.81Z" stroke="#F2F2F2" stroke-width="4.58333" stroke-linecap="butt" stroke-linejoin="miter" stroke-miterlimit="8" stroke-opacity="1" fill="#D9D9D9" fill-rule="evenodd" fill-opacity="0.301961"/><g clip-path="url(#clip27)" filter="url(#fx2)" transform="translate(1693 735)"><g clip-path="url(#clip28)"><path d="M22.7775 206.147C22.7775 104.875 104.875 22.7774 206.147 22.7774L793.408 22.7774C894.68 22.7774 976.777 104.875 976.777 206.147L976.777 777.407C976.777 878.68 894.68 960.777 793.408 960.777L206.147 960.777C104.875 960.777 22.7775 878.68 22.7775 777.407Z" stroke="#F2F2F2" stroke-width="5" stroke-linecap="butt" stroke-linejoin="miter" stroke-miterlimit="8" stroke-opacity="1" fill="#D9D9D9" fill-rule="evenodd" fill-opacity="0.301961"/></g></g><path d="M1725.5 950.87C1725.5 849.598 1807.6 767.5 1908.87 767.5L2496.13 767.5C2597.4 767.5 2679.5 849.598 2679.5 950.87L2679.5 1522.13C2679.5 1623.4 2597.4 1705.5 2496.13 1705.5L1908.87 1705.5C1807.6 1705.5 1725.5 1623.4 1725.5 1522.13Z" stroke="#F2F2F2" stroke-width="4.58333" stroke-linecap="butt" stroke-linejoin="miter" stroke-miterlimit="8" stroke-opacity="1" fill="#D9D9D9" fill-rule="evenodd" fill-opacity="0.301961"/><g clip-path="url(#clip29)" filter="url(#fx3)" transform="translate(1635 671)"><g clip-path="url(#clip30)"><path d="M22.7773 230.388C22.7773 115.728 115.728 22.7775 230.388 22.7775L883.167 22.7775C997.827 22.7775 1090.78 115.728 1090.78 230.388L1090.78 877.167C1090.78 991.827 997.827 1084.78 883.167 1084.78L230.388 1084.78C115.728 1084.78 22.7773 991.827 22.7773 877.167Z" stroke="#F2F2F2" stroke-width="5" stroke-linecap="butt" stroke-linejoin="miter" stroke-miterlimit="8" stroke-opacity="1" fill="#D9D9D9" fill-rule="evenodd" fill-opacity="0.301961"/></g></g><path d="M1667.5 911.111C1667.5 796.451 1760.45 703.5 1875.11 703.5L2527.89 703.5C2642.55 703.5 2735.5 796.451 2735.5 911.111L2735.5 1557.89C2735.5 1672.55 2642.55 1765.5 2527.89 1765.5L1875.11 1765.5C1760.45 1765.5 1667.5 1672.55 1667.5 1557.89Z" stroke="#F2F2F2" stroke-width="4.58333" stroke-linecap="butt" stroke-linejoin="miter" stroke-miterlimit="8" stroke-opacity="1" fill="#D9D9D9" fill-rule="evenodd" fill-opacity="0.301961"/><g clip-path="url(#clip31)" filter="url(#fx4)" transform="translate(1725 772)"><g clip-path="url(#clip32)"><path d="M22.7773 191.68C22.7773 98.3976 98.3978 22.7772 191.68 22.7772L739.874 22.7772C833.157 22.7772 908.777 98.3976 908.777 191.68L908.777 717.874C908.777 811.157 833.157 886.777 739.874 886.777L191.68 886.777C98.3978 886.777 22.7773 811.157 22.7773 717.874Z" stroke="#F2F2F2" stroke-width="5" stroke-linecap="butt" stroke-linejoin="miter" stroke-miterlimit="8" stroke-opacity="1" fill="#D9D9D9" fill-rule="evenodd" fill-opacity="0.301961"/></g></g><path d="M1757.5 973.403C1757.5 880.12 1833.12 804.5 1926.4 804.5L2474.6 804.5C2567.88 804.5 2643.5 880.12 2643.5 973.403L2643.5 1499.6C2643.5 1592.88 2567.88 1668.5 2474.6 1668.5L1926.4 1668.5C1833.12 1668.5 1757.5 1592.88 1757.5 1499.6Z" stroke="#F2F2F2" stroke-width="4.58333" stroke-linecap="butt" stroke-linejoin="miter" stroke-miterlimit="8" stroke-opacity="1" fill="#D9D9D9" fill-rule="evenodd" fill-opacity="0.301961"/><g clip-path="url(#clip33)" filter="url(#fx5)" transform="translate(1455 903)"><g clip-path="url(#clip34)"><path d="M22.7772 53.2733C22.7772 36.4307 36.4308 22.7771 53.2734 22.7771L148.281 22.7771C165.124 22.7771 178.777 36.4307 178.777 53.2733L178.777 558.281C178.777 575.124 165.124 588.777 148.281 588.777L53.2734 588.777C36.4308 588.777 22.7772 575.124 22.7772 558.281Z" stroke="#F2F2F2" stroke-width="5" stroke-linecap="butt" stroke-linejoin="miter" stroke-miterlimit="8" stroke-opacity="1" fill="#7F7F7F" fill-rule="evenodd" fill-opacity="0.301961"/></g></g><path d="M1487.5 965.996C1487.5 949.153 1501.15 935.5 1518 935.5L1613 935.5C1629.85 935.5 1643.5 949.153 1643.5 965.996L1643.5 1471C1643.5 1487.85 1629.85 1501.5 1613 1501.5L1518 1501.5C1501.15 1501.5 1487.5 1487.85 1487.5 1471Z" stroke="#F2F2F2" stroke-width="4.58333" stroke-linecap="butt" stroke-linejoin="miter" stroke-miterlimit="8" stroke-opacity="1" fill="#7F7F7F" fill-rule="evenodd" fill-opacity="0.301961"/><g clip-path="url(#clip35)" filter="url(#fx6)" transform="translate(1795 848)"><g clip-path="url(#clip36)"><path d="M22.7771 58.5517C22.7771 38.7939 38.7939 22.7771 58.5517 22.7771L171.003 22.7771C190.761 22.7771 206.777 38.7939 206.777 58.5517L206.777 170.003C206.777 189.76 190.761 205.777 171.003 205.777L58.5517 205.777C38.7939 205.777 22.7771 189.76 22.7771 170.003Z" stroke="#F2F2F2" stroke-width="5" stroke-linecap="butt" stroke-linejoin="miter" stroke-miterlimit="8" stroke-opacity="1" fill="#7F7F7F" fill-rule="evenodd" fill-opacity="0.301961"/></g></g><path d="M1827.5 916.274C1827.5 896.517 1843.52 880.5 1863.27 880.5L1975.73 880.5C1995.48 880.5 2011.5 896.517 2011.5 916.274L2011.5 1027.73C2011.5 1047.48 1995.48 1063.5 1975.73 1063.5L1863.27 1063.5C1843.52 1063.5 1827.5 1047.48 1827.5 1027.73Z" stroke="#F2F2F2" stroke-width="4.58333" stroke-linecap="butt" stroke-linejoin="miter" stroke-miterlimit="8" stroke-opacity="1" fill="#7F7F7F" fill-rule="evenodd" fill-opacity="0.301961"/><g clip-path="url(#clip37)" filter="url(#fx7)" transform="translate(2076 851)"><g clip-path="url(#clip38)"><path d="M22.7773 58.7474C22.7773 38.8816 38.8817 22.7772 58.7475 22.7772L170.807 22.7772C190.673 22.7772 206.777 38.8816 206.777 58.7474L206.777 170.807C206.777 190.673 190.673 206.777 170.807 206.777L58.7475 206.777C38.8817 206.777 22.7773 190.673 22.7773 170.807Z" stroke="#F2F2F2" stroke-width="5" stroke-linecap="butt" stroke-linejoin="miter" stroke-miterlimit="8" stroke-opacity="1" fill="#7F7F7F" fill-rule="evenodd" fill-opacity="0.301961"/></g></g><path d="M2108.5 919.47C2108.5 899.604 2124.6 883.5 2144.47 883.5L2256.53 883.5C2276.4 883.5 2292.5 899.604 2292.5 919.47L2292.5 1031.53C2292.5 1051.4 2276.4 1067.5 2256.53 1067.5L2144.47 1067.5C2124.6 1067.5 2108.5 1051.4 2108.5 1031.53Z" stroke="#F2F2F2" stroke-width="4.58333" stroke-linecap="butt" stroke-linejoin="miter" stroke-miterlimit="8" stroke-opacity="1" fill="#7F7F7F" fill-rule="evenodd" fill-opacity="0.301961"/><g clip-path="url(#clip39)" filter="url(#fx8)" transform="translate(2347 851)"><g clip-path="url(#clip40)"><path d="M22.7771 58.7474C22.7771 38.8816 38.8815 22.7772 58.7472 22.7772L170.807 22.7772C190.673 22.7772 206.777 38.8816 206.777 58.7474L206.777 170.807C206.777 190.673 190.673 206.777 170.807 206.777L58.7472 206.777C38.8815 206.777 22.7771 190.673 22.7771 170.807Z" stroke="#F2F2F2" stroke-width="5" stroke-linecap="butt" stroke-linejoin="miter" stroke-miterlimit="8" stroke-opacity="1" fill="#7F7F7F" fill-rule="evenodd" fill-opacity="0.301961"/></g></g><path d="M2379.5 919.47C2379.5 899.604 2395.6 883.5 2415.47 883.5L2527.53 883.5C2547.4 883.5 2563.5 899.604 2563.5 919.47L2563.5 1031.53C2563.5 1051.4 2547.4 1067.5 2527.53 1067.5L2415.47 1067.5C2395.6 1067.5 2379.5 1051.4 2379.5 1031.53Z" stroke="#F2F2F2" stroke-width="4.58333" stroke-linecap="butt" stroke-linejoin="miter" stroke-miterlimit="8" stroke-opacity="1" fill="#7F7F7F" fill-rule="evenodd" fill-opacity="0.301961"/><g clip-path="url(#clip41)" filter="url(#fx9)" transform="translate(1796 1110)"><g clip-path="url(#clip42)"><path d="M22.7772 58.7477C22.7772 38.8819 38.8816 22.7775 58.7474 22.7775L170.807 22.7775C190.673 22.7775 206.777 38.8819 206.777 58.7477L206.777 170.808C206.777 190.673 190.673 206.778 170.807 206.778L58.7474 206.778C38.8816 206.778 22.7772 190.673 22.7772 170.808Z" stroke="#F2F2F2" stroke-width="5" stroke-linecap="butt" stroke-linejoin="miter" stroke-miterlimit="8" stroke-opacity="1" fill="#7F7F7F" fill-rule="evenodd" fill-opacity="0.301961"/></g></g><path d="M1828.5 1178.47C1828.5 1158.6 1844.6 1142.5 1864.47 1142.5L1976.53 1142.5C1996.4 1142.5 2012.5 1158.6 2012.5 1178.47L2012.5 1290.53C2012.5 1310.4 1996.4 1326.5 1976.53 1326.5L1864.47 1326.5C1844.6 1326.5 1828.5 1310.4 1828.5 1290.53Z" stroke="#F2F2F2" stroke-width="4.58333" stroke-linecap="butt" stroke-linejoin="miter" stroke-miterlimit="8" stroke-opacity="1" fill="#7F7F7F" fill-rule="evenodd" fill-opacity="0.301961"/><g clip-path="url(#clip43)" filter="url(#fx10)" transform="translate(2077 1114)"><g clip-path="url(#clip44)"><path d="M22.7773 58.5518C22.7773 38.794 38.7942 22.7772 58.5519 22.7772L171.003 22.7772C190.76 22.7772 206.777 38.794 206.777 58.5518L206.777 170.003C206.777 189.76 190.76 205.777 171.003 205.777L58.5519 205.777C38.7942 205.777 22.7773 189.76 22.7773 170.003Z" stroke="#F2F2F2" stroke-width="5" stroke-linecap="butt" stroke-linejoin="miter" stroke-miterlimit="8" stroke-opacity="1" fill="#7F7F7F" fill-rule="evenodd" fill-opacity="0.301961"/></g></g><path d="M2109.5 1182.27C2109.5 1162.52 2125.52 1146.5 2145.27 1146.5L2257.73 1146.5C2277.48 1146.5 2293.5 1162.52 2293.5 1182.27L2293.5 1293.73C2293.5 1313.48 2277.48 1329.5 2257.73 1329.5L2145.27 1329.5C2125.52 1329.5 2109.5 1313.48 2109.5 1293.73Z" stroke="#F2F2F2" stroke-width="4.58333" stroke-linecap="butt" stroke-linejoin="miter" stroke-miterlimit="8" stroke-opacity="1" fill="#7F7F7F" fill-rule="evenodd" fill-opacity="0.301961"/><g clip-path="url(#clip45)" filter="url(#fx11)" transform="translate(2348 1114)"><g clip-path="url(#clip46)"><path d="M22.7773 58.5518C22.7773 38.794 38.7942 22.7772 58.5519 22.7772L171.003 22.7772C190.76 22.7772 206.777 38.794 206.777 58.5518L206.777 170.003C206.777 189.76 190.76 205.777 171.003 205.777L58.5519 205.777C38.7942 205.777 22.7773 189.76 22.7773 170.003Z" stroke="#F2F2F2" stroke-width="5" stroke-linecap="butt" stroke-linejoin="miter" stroke-miterlimit="8" stroke-opacity="1" fill="#7F7F7F" fill-rule="evenodd" fill-opacity="0.301961"/></g></g><path d="M2380.5 1182.27C2380.5 1162.52 2396.52 1146.5 2416.27 1146.5L2528.73 1146.5C2548.48 1146.5 2564.5 1162.52 2564.5 1182.27L2564.5 1293.73C2564.5 1313.48 2548.48 1329.5 2528.73 1329.5L2416.27 1329.5C2396.52 1329.5 2380.5 1313.48 2380.5 1293.73Z" stroke="#F2F2F2" stroke-width="4.58333" stroke-linecap="butt" stroke-linejoin="miter" stroke-miterlimit="8" stroke-opacity="1" fill="#7F7F7F" fill-rule="evenodd" fill-opacity="0.301961"/><g clip-path="url(#clip47)" filter="url(#fx12)" transform="translate(1796 1374)"><g clip-path="url(#clip48)"><path d="M22.7772 58.7477C22.7772 38.8819 38.8816 22.7775 58.7474 22.7775L170.807 22.7775C190.673 22.7775 206.777 38.8819 206.777 58.7477L206.777 170.808C206.777 190.673 190.673 206.778 170.807 206.778L58.7474 206.778C38.8816 206.778 22.7772 190.673 22.7772 170.808Z" stroke="#F2F2F2" stroke-width="5" stroke-linecap="butt" stroke-linejoin="miter" stroke-miterlimit="8" stroke-opacity="1" fill="#7F7F7F" fill-rule="evenodd" fill-opacity="0.301961"/></g></g><path d="M1828.5 1442.47C1828.5 1422.6 1844.6 1406.5 1864.47 1406.5L1976.53 1406.5C1996.4 1406.5 2012.5 1422.6 2012.5 1442.47L2012.5 1554.53C2012.5 1574.4 1996.4 1590.5 1976.53 1590.5L1864.47 1590.5C1844.6 1590.5 1828.5 1574.4 1828.5 1554.53Z" stroke="#F2F2F2" stroke-width="4.58333" stroke-linecap="butt" stroke-linejoin="miter" stroke-miterlimit="8" stroke-opacity="1" fill="#7F7F7F" fill-rule="evenodd" fill-opacity="0.301961"/><g clip-path="url(#clip49)" filter="url(#fx13)" transform="translate(2077 1377)"><g clip-path="url(#clip50)"><path d="M22.7773 58.7473C22.7773 38.8815 38.8818 22.7771 58.7476 22.7771L170.807 22.7771C190.673 22.7771 206.777 38.8815 206.777 58.7473L206.777 170.807C206.777 190.673 190.673 206.777 170.807 206.777L58.7476 206.777C38.8818 206.777 22.7773 190.673 22.7773 170.807Z" stroke="#F2F2F2" stroke-width="5" stroke-linecap="butt" stroke-linejoin="miter" stroke-miterlimit="8" stroke-opacity="1" fill="#7F7F7F" fill-rule="evenodd" fill-opacity="0.301961"/></g></g><path d="M2109.5 1445.47C2109.5 1425.6 2125.6 1409.5 2145.47 1409.5L2257.53 1409.5C2277.4 1409.5 2293.5 1425.6 2293.5 1445.47L2293.5 1557.53C2293.5 1577.4 2277.4 1593.5 2257.53 1593.5L2145.47 1593.5C2125.6 1593.5 2109.5 1577.4 2109.5 1557.53Z" stroke="#F2F2F2" stroke-width="4.58333" stroke-linecap="butt" stroke-linejoin="miter" stroke-miterlimit="8" stroke-opacity="1" fill="#7F7F7F" fill-rule="evenodd" fill-opacity="0.301961"/><g clip-path="url(#clip51)" filter="url(#fx14)" transform="translate(2348 1377)"><g clip-path="url(#clip52)"><path d="M22.7773 58.7473C22.7773 38.8815 38.8818 22.7771 58.7476 22.7771L170.807 22.7771C190.673 22.7771 206.777 38.8815 206.777 58.7473L206.777 170.807C206.777 190.673 190.673 206.777 170.807 206.777L58.7476 206.777C38.8818 206.777 22.7773 190.673 22.7773 170.807Z" stroke="#F2F2F2" stroke-width="5" stroke-linecap="butt" stroke-linejoin="miter" stroke-miterlimit="8" stroke-opacity="1" fill="#7F7F7F" fill-rule="evenodd" fill-opacity="0.301961"/></g></g><path d="M2380.5 1445.47C2380.5 1425.6 2396.6 1409.5 2416.47 1409.5L2528.53 1409.5C2548.4 1409.5 2564.5 1425.6 2564.5 1445.47L2564.5 1557.53C2564.5 1577.4 2548.4 1593.5 2528.53 1593.5L2416.47 1593.5C2396.6 1593.5 2380.5 1577.4 2380.5 1557.53Z" stroke="#F2F2F2" stroke-width="4.58333" stroke-linecap="butt" stroke-linejoin="miter" stroke-miterlimit="8" stroke-opacity="1" fill="#7F7F7F" fill-rule="evenodd" fill-opacity="0.301961"/><g clip-path="url(#clip53)" filter="url(#fx15)" transform="translate(2727 903)"><g clip-path="url(#clip54)"><path d="M22.7773 53.2733C22.7773 36.4307 36.431 22.7771 53.2736 22.7771L148.281 22.7771C165.124 22.7771 178.778 36.4307 178.778 53.2733L178.778 558.281C178.778 575.124 165.124 588.777 148.281 588.777L53.2736 588.777C36.431 588.777 22.7773 575.124 22.7773 558.281Z" stroke="#F2F2F2" stroke-width="5" stroke-linecap="butt" stroke-linejoin="miter" stroke-miterlimit="8" stroke-opacity="1" fill="#7F7F7F" fill-rule="evenodd" fill-opacity="0.301961"/></g></g><path d="M2759.5 965.996C2759.5 949.153 2773.15 935.5 2790 935.5L2885 935.5C2901.85 935.5 2915.5 949.153 2915.5 965.996L2915.5 1471C2915.5 1487.85 2901.85 1501.5 2885 1501.5L2790 1501.5C2773.15 1501.5 2759.5 1487.85 2759.5 1471Z" stroke="#F2F2F2" stroke-width="4.58333" stroke-linecap="butt" stroke-linejoin="miter" stroke-miterlimit="8" stroke-opacity="1" fill="#7F7F7F" fill-rule="evenodd" fill-opacity="0.301961"/><g clip-path="url(#clip55)" filter="url(#fx16)" transform="translate(1885 495)"><g clip-path="url(#clip56)"><path d="M53.2734 178.777C36.4308 178.777 22.7772 165.124 22.7772 148.281L22.7772 53.2731C22.7772 36.4305 36.4308 22.7768 53.2734 22.7768L558.281 22.7768C575.124 22.7768 588.777 36.4305 588.777 53.2731L588.777 148.281C588.777 165.124 575.124 178.777 558.281 178.777Z" stroke="#F2F2F2" stroke-width="5" stroke-linecap="butt" stroke-linejoin="miter" stroke-miterlimit="8" stroke-opacity="1" fill="#7F7F7F" fill-rule="evenodd" fill-opacity="0.301961"/></g></g><path d="M1948 683.5C1931.15 683.5 1917.5 669.846 1917.5 653.004L1917.5 557.996C1917.5 541.153 1931.15 527.5 1948 527.5L2453 527.5C2469.85 527.5 2483.5 541.153 2483.5 557.996L2483.5 653.004C2483.5 669.846 2469.85 683.5 2453 683.5Z" stroke="#F2F2F2" stroke-width="4.58333" stroke-linecap="butt" stroke-linejoin="miter" stroke-miterlimit="8" stroke-opacity="1" fill="#7F7F7F" fill-rule="evenodd" fill-opacity="0.301961"/><g clip-path="url(#clip57)" filter="url(#fx17)" transform="translate(1895 1756)"><g clip-path="url(#clip58)"><path d="M53.2731 178.778C36.4306 178.778 22.777 165.124 22.777 148.281L22.777 53.2737C22.777 36.4311 36.4306 22.7775 53.2731 22.7775L558.281 22.7775C575.124 22.7775 588.777 36.4311 588.777 53.2737L588.777 148.281C588.777 165.124 575.124 178.778 558.281 178.778Z" stroke="#F2F2F2" stroke-width="5" stroke-linecap="butt" stroke-linejoin="miter" stroke-miterlimit="8" stroke-opacity="1" fill="#7F7F7F" fill-rule="evenodd" fill-opacity="0.301961"/></g></g><path d="M1958 1944.5C1941.15 1944.5 1927.5 1930.85 1927.5 1914L1927.5 1819C1927.5 1802.15 1941.15 1788.5 1958 1788.5L2463 1788.5C2479.85 1788.5 2493.5 1802.15 2493.5 1819L2493.5 1914C2493.5 1930.85 2479.85 1944.5 2463 1944.5Z" stroke="#F2F2F2" stroke-width="4.58333" stroke-linecap="butt" stroke-linejoin="miter" stroke-miterlimit="8" stroke-opacity="1" fill="#7F7F7F" fill-rule="evenodd" fill-opacity="0.301961"/><g clip-path="url(#clip59)" filter="url(#fx18)" transform="translate(1437 495)"><g clip-path="url(#clip60)"><path d="M22.7773 92.1754C22.7773 53.848 53.8478 22.7775 92.1752 22.7775L310.379 22.7775C348.707 22.7775 379.777 53.848 379.777 92.1754L379.777 308.373C379.777 346.701 348.707 377.771 310.379 377.771L92.1752 377.771C53.8478 377.771 22.7773 346.701 22.7773 308.373Z" stroke="#F2F2F2" stroke-width="5" stroke-linecap="butt" stroke-linejoin="miter" stroke-miterlimit="8" stroke-opacity="1" fill="#7F7F7F" fill-rule="evenodd" fill-opacity="0.301961"/></g></g><path d="M1469.5 596.898C1469.5 558.571 1500.57 527.5 1538.9 527.5L1757.1 527.5C1795.43 527.5 1826.5 558.571 1826.5 596.898L1826.5 813.096C1826.5 851.424 1795.43 882.494 1757.1 882.494L1538.9 882.494C1500.57 882.494 1469.5 851.424 1469.5 813.096Z" stroke="#F2F2F2" stroke-width="4.58333" stroke-linecap="butt" stroke-linejoin="miter" stroke-miterlimit="8" stroke-opacity="1" fill="#7F7F7F" fill-rule="evenodd" fill-opacity="0.301961"/><g clip-path="url(#clip61)" filter="url(#fx19)" transform="translate(2522 494)"><g clip-path="url(#clip62)"><path d="M22.7771 92.1754C22.7771 53.8479 53.8476 22.7774 92.1751 22.7774L310.379 22.7774C348.707 22.7774 379.777 53.8479 379.777 92.1754L379.777 308.374C379.777 346.701 348.707 377.772 310.379 377.772L92.1751 377.772C53.8476 377.772 22.7771 346.701 22.7771 308.374Z" stroke="#F2F2F2" stroke-width="5" stroke-linecap="butt" stroke-linejoin="miter" stroke-miterlimit="8" stroke-opacity="1" fill="#7F7F7F" fill-rule="evenodd" fill-opacity="0.301961"/></g></g><path d="M2554.5 595.898C2554.5 557.571 2585.57 526.5 2623.9 526.5L2842.1 526.5C2880.43 526.5 2911.5 557.571 2911.5 595.898L2911.5 812.096C2911.5 850.424 2880.43 881.494 2842.1 881.494L2623.9 881.494C2585.57 881.494 2554.5 850.424 2554.5 812.096Z" stroke="#F2F2F2" stroke-width="4.58333" stroke-linecap="butt" stroke-linejoin="miter" stroke-miterlimit="8" stroke-opacity="1" fill="#7F7F7F" fill-rule="evenodd" fill-opacity="0.301961"/><g clip-path="url(#clip63)" filter="url(#fx20)" transform="translate(1455 1563)"><g clip-path="url(#clip64)"><path d="M22.7772 92.1751C22.7772 53.8476 53.8477 22.7771 92.1752 22.7771L310.379 22.7771C348.707 22.7771 379.777 53.8476 379.777 92.1751L379.777 308.373C379.777 346.701 348.707 377.771 310.379 377.771L92.1752 377.771C53.8477 377.771 22.7772 346.701 22.7772 308.373Z" stroke="#F2F2F2" stroke-width="5" stroke-linecap="butt" stroke-linejoin="miter" stroke-miterlimit="8" stroke-opacity="1" fill="#7F7F7F" fill-rule="evenodd" fill-opacity="0.301961"/></g></g><path d="M1487.5 1664.9C1487.5 1626.57 1518.57 1595.5 1556.9 1595.5L1775.1 1595.5C1813.43 1595.5 1844.5 1626.57 1844.5 1664.9L1844.5 1881.1C1844.5 1919.42 1813.43 1950.49 1775.1 1950.49L1556.9 1950.49C1518.57 1950.49 1487.5 1919.42 1487.5 1881.1Z" stroke="#F2F2F2" stroke-width="4.58333" stroke-linecap="butt" stroke-linejoin="miter" stroke-miterlimit="8" stroke-opacity="1" fill="#7F7F7F" fill-rule="evenodd" fill-opacity="0.301961"/><g clip-path="url(#clip65)" filter="url(#fx21)" transform="translate(2540 1561)"><g clip-path="url(#clip66)"><path d="M22.7773 92.3718C22.7773 53.9359 53.9358 22.7775 92.3716 22.7775L310.183 22.7775C348.619 22.7775 379.777 53.9359 379.777 92.3718L379.777 309.183C379.777 347.619 348.619 378.777 310.183 378.777L92.3716 378.777C53.9358 378.777 22.7773 347.619 22.7773 309.183Z" stroke="#F2F2F2" stroke-width="5" stroke-linecap="butt" stroke-linejoin="miter" stroke-miterlimit="8" stroke-opacity="1" fill="#7F7F7F" fill-rule="evenodd" fill-opacity="0.301961"/></g></g><path d="M2572.5 1663.09C2572.5 1624.66 2603.66 1593.5 2642.09 1593.5L2859.91 1593.5C2898.34 1593.5 2929.5 1624.66 2929.5 1663.09L2929.5 1879.91C2929.5 1918.34 2898.34 1949.5 2859.91 1949.5L2642.09 1949.5C2603.66 1949.5 2572.5 1918.34 2572.5 1879.91Z" stroke="#F2F2F2" stroke-width="4.58333" stroke-linecap="butt" stroke-linejoin="miter" stroke-miterlimit="8" stroke-opacity="1" fill="#7F7F7F" fill-rule="evenodd" fill-opacity="0.301961"/></g></svg>