<?xml version="1.0" encoding="iso-8859-1"?>
<!-- Generator: Adobe Illustrator 19.0.0, SVG Export Plug-In . SVG Version: 6.00 Build 0)  -->
<svg xmlns="http://www.w3.org/2000/svg" xmlns:xlink="http://www.w3.org/1999/xlink" version="1.1" id="Capa_1" x="0px" y="0px" viewBox="0 0 504.119 504.119" style="enable-background:new 0 0 504.119 504.119;" xml:space="preserve">
<path style="fill:#323738;" d="M410.118,36.32L359.627,7.396c-2.209-1.607-4.576-2.97-7.093-4.064l-0.744-0.425l-0.032,0.063  c-13.584-5.522-31.13-3.525-50.271,7.522l-155.514,89.777c-42.76,24.69-77.741,85.287-77.741,134.668v179.558  c0,24.08,8.361,41.157,21.847,49.538l-0.13,0.232l56.111,31.791l31.555-54.938l123.873-71.511  c42.752-24.69,77.745-85.287,77.745-134.668V90.092L410.118,36.32z"/>
<path style="fill:#252B2D;" d="M410.118,36.32l-54.044-12.674c-2.209-1.611-13.245-1.568-15.762-2.666l-4.009-1.607l-7.215-1.339  c-13.584-5.522-8.46-18.593-27.601-7.546l-155.514,89.781c-42.76,24.69-77.741,85.287-77.741,134.668v179.558  c0,24.08,8.361,41.157,21.847,49.538l-0.13,0.232l56.111,31.791l31.555-54.938l123.873-71.511  c42.752-24.69,77.745-85.287,77.745-134.668V90.092L410.118,36.32z"/>
<path style="fill:#090C0C;" d="M71.194,209.069c-1.887,8.787-2.962,17.495-2.962,25.868v179.558c0,24.08,8.361,41.157,21.847,49.538  l-0.13,0.232l56.111,31.791l31.555-54.938l123.873-71.511c7.263-4.194,14.285-9.496,20.96-15.537L71.194,209.069z"/>
<path style="fill:#3B4142;" d="M199.418,131.261c-42.76,24.69-77.753,85.287-77.753,134.668v179.558  c0,49.38,34.993,69.577,77.753,44.891l155.506-89.781c42.76-24.69,77.753-85.287,77.753-134.668V86.374  c0-49.38-34.993-69.577-77.753-44.891L199.418,131.261z"/>
<path style="opacity:0.2;fill:#383E3F;enable-background:new    ;" d="M432.681,86.374c0-49.38-34.993-69.577-77.753-44.891  l-155.51,89.777c-42.76,24.69-77.753,85.287-77.753,134.668v179.558c0,49.38,34.993,69.577,77.753,44.891"/>
<path style="fill:#4F5759;" d="M164.882,504.119h-0.008c-28.192,0-46.407-23.016-46.407-58.632V265.929  c0-50.527,35.592-112.187,79.344-137.44l155.514-89.781c12.607-7.278,24.769-10.965,36.147-10.965  c28.191,0,46.415,23.016,46.415,58.632v179.558c0,50.527-35.6,112.187-79.352,137.44l-155.514,89.781  C188.41,500.429,176.256,504.119,164.882,504.119z M389.472,34.158c-10.24,0-21.323,3.399-32.937,10.098l-155.514,89.777  c-41.984,24.245-76.146,83.413-76.146,131.895v179.558c0,32.209,15.325,52.22,39.999,52.22h0.008  c10.24,0,21.315-3.403,32.929-10.102l155.514-89.777c41.984-24.241,76.146-83.413,76.146-131.895V86.374  C429.471,54.166,414.151,34.158,389.472,34.158z"/>
<g style="enable-background:new    ;">
	<path style="fill:#FF1F3A;" d="M253.15,325.53l-0.244-85.902l71.483,1.91L253.15,325.53 M279.92,127.323   c-67.033,38.699-121.222,132.569-121.009,209.601c0.221,77.06,54.768,108.111,121.801,69.408   c67.068-38.723,121.23-132.529,121.017-209.601C401.508,119.706,346.996,88.6,279.92,127.323"/>
</g>
<path style="fill:#C8131A;" d="M279.92,127.323c-67.033,38.699-121.222,132.569-121.009,209.601  c0.169,60.188,33.489,92.31,80.006,85.047l155.297-268.973C377.039,109.434,332.31,97.075,279.92,127.323z M253.15,325.53  l-0.244-85.902l71.483,1.91L253.15,325.53z"/>
<g>
</g>
<g>
</g>
<g>
</g>
<g>
</g>
<g>
</g>
<g>
</g>
<g>
</g>
<g>
</g>
<g>
</g>
<g>
</g>
<g>
</g>
<g>
</g>
<g>
</g>
<g>
</g>
<g>
</g>
</svg>
