<?xml version="1.0" encoding="iso-8859-1"?>
<!-- Generator: Adobe Illustrator 19.0.0, SVG Export Plug-In . SVG Version: 6.00 Build 0)  -->
<svg xmlns="http://www.w3.org/2000/svg" xmlns:xlink="http://www.w3.org/1999/xlink" version="1.1" id="Capa_1" x="0px" y="0px" viewBox="0 0 504.119 504.119" style="enable-background:new 0 0 504.119 504.119;" xml:space="preserve">
<path style="fill:#323738;" d="M410.124,36.32L359.633,7.396c-2.209-1.607-4.577-2.97-7.093-4.064l-0.744-0.425l-0.032,0.063  c-13.584-5.522-31.13-3.525-50.271,7.522l-155.518,89.777c-42.76,24.69-77.745,85.287-77.745,134.668v179.558  c0,24.08,8.361,41.157,21.847,49.538l-0.13,0.232l56.115,31.791l31.555-54.938l123.876-71.511  c42.752-24.69,77.745-85.287,77.745-134.668V90.092L410.124,36.32z"/>
<path style="fill:#252B2D;" d="M410.124,36.32l-54.047-12.674c-2.209-1.611-13.245-1.568-15.762-2.666l-4.005-1.607l-7.215-1.339  c-13.584-5.522-8.46-18.593-27.601-7.546l-155.518,89.781c-42.76,24.69-77.745,85.287-77.745,134.668v179.558  c0,24.08,8.361,41.157,21.847,49.538l-0.13,0.232l56.115,31.791l31.555-54.938l123.876-71.511  c42.752-24.69,77.745-85.287,77.745-134.668V90.092L410.124,36.32z"/>
<path style="fill:#090C0C;" d="M71.192,209.069c-1.887,8.787-2.962,17.495-2.962,25.868v179.558c0,24.08,8.361,41.157,21.847,49.538  l-0.13,0.232l56.115,31.791l31.555-54.938l123.876-71.511c7.263-4.194,14.285-9.496,20.961-15.537L71.192,209.069z"/>
<path style="fill:#3B4142;" d="M199.424,131.261c-42.76,24.69-77.753,85.287-77.753,134.668v179.558  c0,49.38,34.993,69.577,77.753,44.891l155.506-89.781c42.76-24.69,77.753-85.287,77.753-134.668V86.374  c0-49.38-34.993-69.577-77.753-44.891L199.424,131.261z"/>
<path style="opacity:0.2;fill:#383E3F;enable-background:new    ;" d="M432.683,86.374c0-49.38-34.993-69.577-77.753-44.891  L199.424,131.26c-42.76,24.69-77.753,85.287-77.753,134.668v179.558c0,49.38,34.993,69.577,77.753,44.891"/>
<path style="fill:#4F5759;" d="M164.884,504.119h-0.008c-28.192,0-46.407-23.016-46.407-58.632V265.929  c0-50.527,35.592-112.187,79.344-137.44l155.514-89.781c12.607-7.278,24.769-10.965,36.147-10.965  c28.191,0,46.415,23.016,46.415,58.632v179.558c0,50.527-35.6,112.187-79.352,137.44l-155.514,89.781  C188.416,500.429,176.262,504.119,164.884,504.119z M389.478,34.158c-10.24,0-21.323,3.399-32.937,10.098l-155.518,89.777  c-41.984,24.245-76.146,83.413-76.146,131.895v179.558c0,32.209,15.325,52.22,39.999,52.22h0.008  c10.24,0,21.315-3.403,32.929-10.102l155.514-89.777c41.984-24.241,76.146-83.413,76.146-131.895V86.374  C429.477,54.166,414.153,34.158,389.478,34.158z"/>
<g style="enable-background:new    ;">
	<path style="fill:#D1D2DB;" d="M199.774,271.277c-4.915,15.632-7.668,31.374-7.625,46.281   c0.114,40.653,20.783,63.917,50.653,63.338L199.774,271.277"/>
	<path style="fill:#FFFFFF;" d="M283.152,274.018l-26.577,105.035c8.031-1.914,16.486-5.321,25.261-10.39   c10.409-6.006,20.385-13.824,29.676-22.953c-0.228-0.331-0.453-0.662-0.63-1.055L283.152,274.018"/>
	<path style="fill:#D1D2DB;" d="M281.249,163.198c-1.839,1.059-3.694,2.217-5.506,3.379c-0.654,0.433-1.252,0.87-1.887,1.292   c-1.209,0.811-2.383,1.579-3.545,2.422c-0.752,0.551-1.508,1.13-2.261,1.682c-1.032,0.768-2.036,1.524-3.037,2.336   c-0.831,0.65-1.631,1.319-2.438,1.985c-0.929,0.74-1.835,1.497-2.737,2.276c-0.855,0.756-1.709,1.508-2.56,2.261   c-0.831,0.74-1.634,1.493-2.462,2.257c-0.906,0.843-1.784,1.697-2.662,2.548c-0.733,0.713-1.434,1.41-2.162,2.146   c-0.929,0.945-1.887,1.898-2.84,2.911c-0.555,0.579-1.13,1.205-1.686,1.812c-1.056,1.13-2.107,2.288-3.111,3.419   c-0.303,0.347-0.603,0.729-0.902,1.071c-7.03,8.109-13.529,16.924-19.346,26.246l-0.146,0.232   c-1.154,1.855-2.261,3.702-3.363,5.589l-0.252,0.402c-1.075,1.871-2.131,3.749-3.131,5.632l-0.224,0.417   c-1.032,1.926-2.032,3.836-3.009,5.793l-0.051,0.083c-1.855,3.698-3.604,7.436-5.234,11.24c2.091-1.146,4.076-2.237,5.762-3.206   c9.33-5.388,23.808-15.045,23.808-15.045c0.098-0.071,0.201-0.13,0.299-0.185c4.549-2.631,5.006,4.947,0.303,8.314   c0,0-4.848,3.434-10.236,6.888l32.882,92.471l18.527-75.292l0.847-3.442l-14.052-35.793c-4.832,2.442-9.385,4.435-9.385,4.435   c-4.73,2.391-4.293-6.01,0.268-8.645c0.091-0.055,0.193-0.106,0.284-0.154c0,0,14.769-7.223,23.544-12.288   c9.354-5.4,23.836-15.061,23.836-15.061c0.098-0.067,0.201-0.126,0.291-0.181c4.529-2.615,5.01,4.947,0.284,8.326   c0,0-4.852,3.434-10.232,6.888l32.622,91.754l8.83-39.4c3.809-16.404,6.747-28.345,6.723-37.132   c-0.039-12.686-4.037-19.204-7.456-24.06c-1.032-1.343-2.048-2.611-3.009-3.875c-0.276-0.362-0.555-0.725-0.807-1.095   c-0.201-0.26-0.378-0.536-0.579-0.796c-0.228-0.358-0.453-0.693-0.681-1.024c-0.232-0.331-0.429-0.705-0.634-1.079   c-0.177-0.272-0.354-0.551-0.532-0.851c-0.327-0.65-0.658-1.3-0.933-1.977l-0.252-0.634c-0.209-0.52-0.386-1.052-0.563-1.587   c-0.079-0.276-0.154-0.575-0.205-0.87c-0.15-0.547-0.256-1.122-0.358-1.701c-0.051-0.26-0.098-0.52-0.13-0.796   c-0.098-0.898-0.177-1.772-0.185-2.725c-0.024-9.448,6.183-21.835,14.962-26.9c0.406-0.236,0.784-0.398,1.162-0.614   c-0.48-0.213-1.012-0.425-1.516-0.63l-0.024-0.012c-0.961-0.429-1.946-0.788-2.954-1.134l-0.079-0.016   c-0.981-0.354-2.016-0.654-3.025-0.937l-0.098-0.032c-1.032-0.244-2.068-0.488-3.123-0.689l-0.154-0.028   c-1.032-0.217-2.091-0.354-3.151-0.496l-0.248-0.028c-1.036-0.098-2.068-0.197-3.123-0.248l-0.378-0.016   c-1.04-0.043-2.068-0.083-3.127-0.079l-0.504,0.032c-1.008,0.004-2.04,0.047-3.068,0.118l-0.654,0.063   c-1.012,0.087-1.993,0.193-3.025,0.331c-0.276,0.039-0.555,0.083-0.831,0.13c-0.985,0.13-1.938,0.28-2.922,0.469   c-0.354,0.087-0.677,0.161-1.032,0.221c-0.929,0.193-1.863,0.41-2.82,0.646c-0.406,0.083-0.831,0.221-1.233,0.335   c-0.878,0.221-1.784,0.48-2.67,0.733c-0.5,0.146-1.004,0.319-1.508,0.492c-0.831,0.276-1.662,0.555-2.493,0.831   c-0.575,0.217-1.182,0.453-1.784,0.685c-0.752,0.291-1.508,0.583-2.288,0.886c-0.681,0.307-1.386,0.626-2.087,0.918   c-0.677,0.307-1.359,0.61-2.06,0.933c-0.855,0.406-1.737,0.855-2.591,1.288c-0.532,0.244-1.056,0.496-1.607,0.788   C284.121,161.599,282.679,162.375,281.249,163.198"/>
	<path style="fill:#FFFFFF;" d="M359.857,171.358c0.41,3.033,0.622,6.412,0.63,10.201c0.032,10.425-1.623,23.131-6.684,40.732   l-27.049,106.488c26.526-33.174,44.312-76.579,44.205-114.46C370.912,196.439,366.887,181.941,359.857,171.358"/>
</g>
<g>
</g>
<g>
</g>
<g>
</g>
<g>
</g>
<g>
</g>
<g>
</g>
<g>
</g>
<g>
</g>
<g>
</g>
<g>
</g>
<g>
</g>
<g>
</g>
<g>
</g>
<g>
</g>
<g>
</g>
</svg>
