<?xml version="1.0" encoding="iso-8859-1"?>
<!-- Generator: Adobe Illustrator 19.0.0, SVG Export Plug-In . SVG Version: 6.00 Build 0)  -->
<svg xmlns="http://www.w3.org/2000/svg" xmlns:xlink="http://www.w3.org/1999/xlink" version="1.1" id="Capa_1" x="0px" y="0px" viewBox="0 0 504.118 504.118" style="enable-background:new 0 0 504.118 504.118;" xml:space="preserve">
<path style="fill:#1CC464;" d="M410.131,36.319L359.632,7.395c-2.213-1.607-4.576-2.97-7.089-4.064l-0.752-0.425l-0.032,0.067  c-13.584-5.526-31.13-3.529-50.271,7.519l-155.506,89.777c-42.76,24.69-77.753,85.287-77.753,134.668v179.558  c0,24.08,8.369,41.157,21.855,49.538l-0.13,0.232l56.107,31.791l31.563-54.938l123.869-71.511  c42.76-24.69,77.749-85.287,77.749-134.668V90.091L410.131,36.319z"/>
<path style="fill:#15A054;" d="M410.131,36.319l-54.048-12.674c-2.213-1.611-13.253-1.571-15.762-2.666l-4.009-1.603l-7.211-1.343  c-13.584-5.522-8.468-18.593-27.609-7.546l-155.51,89.781c-42.76,24.69-77.753,85.287-77.753,134.668v179.558  c0,24.08,8.369,41.157,21.855,49.538l-0.13,0.232l56.107,31.791l31.563-54.938l123.869-71.511  c42.76-24.69,77.749-85.287,77.749-134.668V90.091L410.131,36.319z"/>
<path style="fill:#07875C;" d="M71.195,209.064c-1.887,8.791-2.966,17.499-2.966,25.872v179.558c0,24.08,8.369,41.157,21.855,49.538  l-0.13,0.232l56.107,31.791l31.563-54.938l123.869-71.511c7.266-4.194,14.285-9.496,20.968-15.537L71.195,209.064z"/>
<path style="fill:#25D625;" d="M199.427,131.26c-42.756,24.69-77.749,85.287-77.749,134.668v179.558  c0,49.38,34.993,69.577,77.749,44.891l155.51-89.781c42.76-24.69,77.745-85.287,77.745-134.668V86.373  c0-49.38-34.985-69.577-77.745-44.891L199.427,131.26z"/>
<path style="fill:#1BBF1B;" d="M432.683,86.373c0-49.38-34.985-69.577-77.745-44.891l-155.51,89.777  c-42.756,24.69-77.749,85.287-77.749,134.668v179.558c0,49.38,34.993,69.577,77.749,44.891"/>
<path style="fill:#2AE82A;" d="M164.887,504.118L164.887,504.118c-28.199,0-46.419-23.016-46.419-58.632V265.928  c0-50.527,35.6-112.187,79.352-137.441l155.51-89.781c12.603-7.278,24.769-10.965,36.151-10.965  c28.191,0,46.407,23.016,46.407,58.632v179.558c0,50.527-35.592,112.187-79.352,137.444L201.03,493.153  C188.423,500.428,176.269,504.118,164.887,504.118z M389.486,34.157c-10.244,0-21.327,3.399-32.945,10.098l-155.51,89.777  c-41.984,24.245-76.146,83.413-76.146,131.895v179.558c0,32.209,15.325,52.22,39.999,52.22h0.004  c10.244,0,21.319-3.403,32.933-10.102l155.51-89.777c41.984-24.241,76.146-83.413,76.146-131.895V86.373  C429.481,54.165,414.152,34.157,389.486,34.157z"/>
<g style="enable-background:new    ;">
	<path style="fill:#FFFFFF;" d="M318.948,316.226c-6.12,3.529-15.628,6.853-34.131,8.712c-34.237,3.497-56.34-23.737-58.084-25.328   c-1.634-1.646-13.863-13.162-13.919-32.37c-0.055-19.168,8.397-33.394,11.819-39.4c2.8-4.935,7.448-9.078,11.898-11.654   c1.402-0.807,2.714-1.489,3.891-2.099c3.407-1.812,5.108-2.568,7.381,2.332c2.836,6.16,9.732,21.386,10.559,22.906   c0.819,1.485,1.646,3.679,0.508,6.94c-1.103,3.308-2.052,5.022-3.745,8.294c-1.725,3.296-3.363,5.975-5.049,9.358   c-1.568,3.048-3.332,6.329-1.355,9.137c2.009,2.686,8.885,11.559,18.952,16.061c13.032,5.77,23.576,3.938,27.345,3.572   c1.059-0.098,2.194-0.484,3.32-1.13c1.835-1.063,3.612-2.812,4.888-5.12c2.576-4.691,5.766-11.878,9.027-19.031   c1.56-3.466,3.407-5.577,5.392-6.719c0.953-0.559,1.942-0.882,2.942-1.032c3.143-0.532,19.791-0.733,23.233-0.721   c3.403-0.012,5.664-0.37,6.491,0.803c0.819,1.189,0.843,8.964-1.91,19.673c-2.788,10.76-13.926,24.718-22.788,32.055   C323.733,313.024,321.685,314.65,318.948,316.226 M280.17,129.72l-0.067,0.039c-64.126,37.025-116.153,127.13-115.94,200.862   c0.083,29.212,8.373,51.614,22.378,65.56l-14.356,58.037l44.682-42.256c18.428,3.367,40.409-1.193,64.063-14.848   c64.126-37.029,116.118-127.145,115.909-200.838C396.622,122.552,344.3,92.695,280.17,129.72"/>
</g>
<path style="fill:#E9F4E4;" d="M280.17,129.72l-0.067,0.039c-64.126,37.025-116.153,127.13-115.94,200.862  c0.083,29.212,8.373,51.614,22.378,65.56l-14.356,58.037l44.682-42.256c8.684,1.587,18.18,1.343,28.247-0.713l50.668-87.761  c-3.277,0.543-6.865,1.036-10.961,1.445c-34.237,3.497-56.34-23.737-58.084-25.328c-1.634-1.646-13.863-13.162-13.919-32.37  c-0.055-19.168,8.397-33.394,11.819-39.4c2.8-4.935,7.448-9.078,11.898-11.654c1.402-0.807,2.714-1.489,3.891-2.099  c3.407-1.812,5.108-2.568,7.381,2.332c2.836,6.16,9.732,21.386,10.559,22.906c0.819,1.485,1.646,3.679,0.508,6.94  c-1.103,3.308-2.052,5.022-3.745,8.294c-1.725,3.296-3.363,5.975-5.049,9.358c-1.568,3.048-3.332,6.329-1.355,9.137  c2.009,2.686,8.885,11.559,18.952,16.061c13.032,5.77,23.576,3.938,27.345,3.572c1.059-0.098,2.194-0.484,3.32-1.13  c1.835-1.063,3.612-2.812,4.888-5.12c2.576-4.691,5.766-11.878,9.027-19.031c1.56-3.466,3.407-5.577,5.392-6.719  c0.953-0.559,1.942-0.882,2.942-1.032c1.662-0.28,7.113-0.469,12.383-0.579l58.104-100.64  C375.807,113.494,331.831,99.894,280.17,129.72z"/>
<g>
</g>
<g>
</g>
<g>
</g>
<g>
</g>
<g>
</g>
<g>
</g>
<g>
</g>
<g>
</g>
<g>
</g>
<g>
</g>
<g>
</g>
<g>
</g>
<g>
</g>
<g>
</g>
<g>
</g>
</svg>
