<?xml version="1.0" encoding="iso-8859-1"?>
<!-- Generator: Adobe Illustrator 19.0.0, SVG Export Plug-In . SVG Version: 6.00 Build 0)  -->
<svg xmlns="http://www.w3.org/2000/svg" xmlns:xlink="http://www.w3.org/1999/xlink" version="1.1" id="Capa_1" x="0px" y="0px" viewBox="0 0 504.119 504.119" style="enable-background:new 0 0 504.119 504.119;" xml:space="preserve">
<path style="fill:#0F9AD1;" d="M410.12,36.32L359.629,7.396c-2.209-1.607-4.576-2.97-7.093-4.064l-0.744-0.425L351.76,2.97  c-13.584-5.522-31.13-3.525-50.271,7.522l-155.518,89.777c-42.76,24.69-77.737,85.287-77.737,134.668v179.558  c0,24.08,8.361,41.157,21.847,49.538l-0.13,0.232l56.107,31.791l31.555-54.938l123.876-71.511  c42.752-24.69,77.745-85.287,77.745-134.668V90.092L410.12,36.32z"/>
<path style="fill:#1088C4;" d="M410.12,36.32l-54.048-12.674c-2.209-1.611-13.245-1.568-15.762-2.666l-4.005-1.607l-7.215-1.339  c-13.584-5.522-8.46-18.593-27.601-7.546l-155.518,89.781c-42.76,24.69-77.737,85.287-77.737,134.668v179.558  c0,24.08,8.361,41.157,21.847,49.538l-0.13,0.232l56.107,31.791l31.555-54.938l123.876-71.511  c42.752-24.69,77.745-85.287,77.745-134.668V90.092L410.12,36.32z"/>
<path style="fill:#0C79BC;" d="M71.196,209.069c-1.887,8.787-2.962,17.495-2.962,25.868v179.558c0,24.08,8.361,41.157,21.847,49.538  l-0.13,0.232l56.107,31.791l31.555-54.938l123.876-71.511c7.263-4.194,14.285-9.496,20.96-15.537L71.196,209.069z"/>
<path style="fill:#25C6F2;" d="M199.42,131.261c-42.76,24.69-77.753,85.287-77.753,134.668v179.558  c0,49.38,34.993,69.577,77.753,44.891l155.506-89.781c42.76-24.69,77.753-85.287,77.753-134.668V86.374  c0-49.38-34.993-69.577-77.753-44.891L199.42,131.261z"/>
<path style="fill:#1CB1E6;" d="M432.679,86.374c0-49.38-34.993-69.577-77.753-44.891L199.42,131.261  c-42.76,24.69-77.753,85.287-77.753,134.668v179.558c0,49.38,34.993,69.577,77.753,44.891"/>
<path style="fill:#22D5FF;" d="M164.88,504.119h-0.008c-28.192,0-46.407-23.016-46.407-58.632V265.929  c0-50.527,35.592-112.187,79.344-137.44l155.514-89.781c12.607-7.278,24.769-10.965,36.147-10.965  c28.191,0,46.415,23.016,46.415,58.632v179.558c0,50.527-35.6,112.187-79.352,137.44l-155.514,89.781  C188.412,500.429,176.258,504.119,164.88,504.119z M389.474,34.158c-10.24,0-21.323,3.399-32.937,10.098l-155.518,89.777  c-41.984,24.245-76.146,83.413-76.146,131.895v179.558c0,32.209,15.325,52.22,39.999,52.22h0.008  c10.24,0,21.315-3.403,32.929-10.102l155.514-89.777c41.984-24.241,76.146-83.413,76.146-131.895V86.374  C429.473,54.166,414.149,34.158,389.474,34.158z"/>
<g style="enable-background:new    ;">
	<path style="fill:#FFFFFF;" d="M349.798,139.658c-28.491,16.455-47.99,46.698-58.021,89.84c-0.677,2.989-0.012,5.396,1.733,6.211   c1.13,0.555,2.595,0.343,4.08-0.512c0.776-0.449,1.56-1.075,2.296-1.859c4.076-4.301,8.109-7.597,12.032-9.858   c1.957-1.134,4.545-2.312,5.778-1.457c1.174,0.855,1.619,3.828,1.225,8.574c-0.339,4.612-2.686,14.773-11.977,36.911   c-7.507,17.806-11.469,23.824-12.883,25.679c-1.229-0.796-4.679-4.604-8.739-23.009c-1.02-3.958-3.206-15.037-7.845-45.3   c-4.836-31.189-19.59-29.814-31.134-23.15c-1.087,0.626-2.178,1.319-3.296,2.087c-7.865,5.392-18.03,18.062-32.039,40.038   c-10.618,17.061-19.554,31.311-28.077,44.792c-2.446,3.852-2.788,8.255-0.792,10.012l9.157,8.097   c1.205,1.044,2.981,0.929,4.777-0.102c1.189-0.689,2.383-1.78,3.426-3.222c7.66-10.504,10.902-14.533,12.174-15.99   c1.445,0.016,6.333,1.831,12.473,23.099l15.821,56.162l0.161,0.5c8.818,21.516,20.405,28.306,34.426,20.208   c20.401-11.78,43.784-45.245,71.42-102.258c26.415-54.051,39.672-91.794,40.503-115.369c0.658-18.148-2.54-29.72-9.563-34.347   c-5.845-3.836-14.139-2.871-24.623,2.832C351.453,138.724,350.618,139.185,349.798,139.658"/>
</g>
<path style="fill:#D3EAF4;" d="M376.911,135.436c-5.845-3.836-14.139-2.871-24.623,2.832c-0.835,0.457-1.67,0.918-2.489,1.394  c-28.491,16.455-47.99,46.698-58.021,89.84c-0.677,2.989-0.012,5.396,1.733,6.211c1.13,0.555,2.595,0.343,4.08-0.512  c0.776-0.449,1.56-1.075,2.296-1.859c4.076-4.301,8.109-7.597,12.032-9.858c1.957-1.134,4.545-2.312,5.778-1.457  c1.174,0.855,1.619,3.828,1.225,8.574c-0.339,4.612-2.686,14.773-11.977,36.911c-7.507,17.806-11.469,23.824-12.883,25.679  c-1.229-0.796-4.679-4.604-8.739-23.009c-1.02-3.958-3.206-15.037-7.845-45.3c-4.836-31.189-19.59-29.814-31.134-23.15  c-1.087,0.626-2.178,1.319-3.296,2.087c-7.865,5.392-18.03,18.062-32.039,40.038c-10.618,17.061-19.554,31.311-28.077,44.792  c-2.446,3.852-2.788,8.255-0.792,10.012l9.157,8.097c1.205,1.044,2.981,0.929,4.777-0.102c1.189-0.689,2.383-1.78,3.426-3.222  c7.66-10.504,10.902-14.533,12.174-15.99c1.445,0.016,6.333,1.831,12.473,23.099l15.821,56.162l0.161,0.5  c4.982,12.15,10.843,19.598,17.526,22.327l128.859-223.181C386.647,150.209,383.468,139.752,376.911,135.436z"/>
<g>
</g>
<g>
</g>
<g>
</g>
<g>
</g>
<g>
</g>
<g>
</g>
<g>
</g>
<g>
</g>
<g>
</g>
<g>
</g>
<g>
</g>
<g>
</g>
<g>
</g>
<g>
</g>
<g>
</g>
</svg>
