<?xml version="1.0" encoding="iso-8859-1"?>
<!-- Generator: Adobe Illustrator 19.0.0, SVG Export Plug-In . SVG Version: 6.00 Build 0)  -->
<svg xmlns="http://www.w3.org/2000/svg" xmlns:xlink="http://www.w3.org/1999/xlink" version="1.1" id="Capa_1" x="0px" y="0px" viewBox="0 0 504.119 504.119" style="enable-background:new 0 0 504.119 504.119;" xml:space="preserve">
<path style="fill:#48287C;" d="M410.118,36.32L359.627,7.396c-2.209-1.607-4.576-2.97-7.093-4.064l-0.744-0.425l-0.032,0.063  c-13.584-5.522-31.13-3.525-50.271,7.522l-155.514,89.777c-42.76,24.69-77.741,85.287-77.741,134.668v179.558  c0,24.08,8.361,41.157,21.847,49.538l-0.13,0.232l56.111,31.791l31.555-54.938l123.873-71.511  c42.752-24.69,77.745-85.287,77.745-134.668V90.092L410.118,36.32z"/>
<path style="fill:#43246B;" d="M410.118,36.32l-54.044-12.674c-2.209-1.611-13.245-1.568-15.762-2.666l-4.009-1.607l-7.215-1.339  c-13.584-5.522-8.46-18.593-27.601-7.546l-155.514,89.781c-42.76,24.69-77.741,85.287-77.741,134.668v179.558  c0,24.08,8.361,41.157,21.847,49.538l-0.13,0.232l56.111,31.791l31.555-54.938l123.873-71.511  c42.752-24.69,77.745-85.287,77.745-134.668V90.092L410.118,36.32z"/>
<path style="fill:#371B54;" d="M71.194,209.069c-1.887,8.787-2.962,17.495-2.962,25.868v179.558c0,24.08,8.361,41.157,21.847,49.538  l-0.13,0.232l56.111,31.791l31.555-54.938l123.873-71.511c7.263-4.194,14.285-9.496,20.96-15.537L71.194,209.069z"/>
<path style="fill:#694193;" d="M199.418,131.261c-42.76,24.69-77.753,85.287-77.753,134.668v179.558  c0,49.38,34.993,69.577,77.753,44.891l155.506-89.781c42.76-24.69,77.753-85.287,77.753-134.668V86.374  c0-49.38-34.993-69.577-77.753-44.891L199.418,131.261z"/>
<path style="fill:#5F3882;" d="M432.681,86.374c0-49.38-34.993-69.577-77.753-44.891l-155.51,89.777  c-42.76,24.69-77.753,85.287-77.753,134.668v179.558c0,49.38,34.993,69.577,77.753,44.891"/>
<path style="fill:#7549AD;" d="M164.882,504.119h-0.008c-28.192,0-46.407-23.016-46.407-58.632V265.929  c0-50.527,35.592-112.187,79.344-137.44l155.514-89.781c12.607-7.278,24.769-10.965,36.147-10.965  c28.191,0,46.415,23.016,46.415,58.632v179.558c0,50.527-35.6,112.187-79.352,137.44l-155.514,89.781  C188.41,500.429,176.256,504.119,164.882,504.119z M389.472,34.158c-10.24,0-21.323,3.399-32.937,10.098l-155.514,89.777  c-41.984,24.245-76.146,83.413-76.146,131.895v179.558c0,32.209,15.325,52.22,39.999,52.22h0.008  c10.24,0,21.315-3.403,32.929-10.102l155.514-89.777c41.984-24.241,76.146-83.413,76.146-131.895V86.374  C429.471,54.166,414.151,34.158,389.472,34.158z"/>
<g style="enable-background:new    ;">
	<g>
		<path style="fill:#E3D7F4;" d="M286.273,172.871c-2.785,1.607-3.623,2.442-4.714,4.246c-2.229,3.576-2.091,8.417,0.224,9.161    c1.237,0.39,2.194,0.067,7.676-2.753c16.246-8.283,28.656-10.382,40.684-6.959c14.438,4.045,23.517,16.085,26.975,35.706    c0.898,4.982,1.335,9.358,1.634,16.333c0.185,4.521,0.343,5.474,0.874,6.353c0.91,1.477,2.796,1.449,4.667,0.37    c1.516-0.874,3.017-2.43,3.986-4.439c1.154-2.316,1.3-3.698,1.083-9.393c-0.599-16.668-3.84-30.283-9.507-40.034    c-4.076-6.971-7.916-10.768-14.828-14.742c-7.365-4.139-12.91-5.565-21.602-5.411c-8.838,0.154-16.868,2.044-26.805,6.333    c-1.989,0.882-5.585,2.639-8.05,3.946C287.675,172.075,286.919,172.493,286.273,172.871"/>
		<path style="fill:#E3D7F4;" d="M293.027,193.174c-2.765,1.595-4.1,3.163-5.088,5.498c-1.378,3.226-1.193,6.046,0.473,7.223    c1.063,0.835,2.623,0.599,5.467-0.78c7.818-3.793,16.431-5.813,22.248-5.171c6.778,0.685,12.331,4.135,16.167,9.96    c3.367,5.092,5.333,13.021,5.352,21.599c0.016,5.573,0.701,7.235,2.914,7.263c0.733,0.02,1.776-0.366,2.753-0.929    c0.823-0.477,1.599-1.075,2.099-1.674c1.055-1.245,2.261-3.474,2.631-4.817c0.402-1.418,0.378-8.613-0.008-12.359    c-1.083-10.165-4.234-18.389-9.263-24.052c-8.944-10.063-22.575-11.571-40.113-4.395    C296.296,191.5,294.465,192.339,293.027,193.174"/>
		<path style="fill:#E3D7F4;" d="M298.226,215.099c-1.016,0.591-1.477,1.02-2.225,1.894c-2.911,3.419-3.726,8.55-1.607,10.22    c1.158,0.894,2.241,0.733,5.79-0.796c7.578-3.332,12.06-2.655,14.616,2.154c1.217,2.249,1.906,5.033,2.292,9.354    c0.339,3.222,0.768,4.246,2.154,4.636c0.93,0.291,2.154,0,3.356-0.693c1.276-0.74,2.536-1.93,3.411-3.36    c1.831-3.001,2.127-5.486,1.327-10.957c-1.182-8.377-3.812-13.166-8.629-15.592c-3.757-1.855-8.117-1.824-13.8,0.071    c-1.209,0.378-3.423,1.367-4.931,2.15C299.234,214.556,298.679,214.843,298.226,215.099"/>
	</g>
	<path style="fill:#FFFFFF;" d="M225.321,211.432c-0.748,0.433-1.434,0.902-1.997,1.363c-2.769,2.261-6.176,6.577-13.631,17.278   c-4.462,6.428-10.606,16.857-12.032,20.488c-3.356,8.535-3.135,14.025,1,24.572c5.38,13.855,12.694,26.128,21.894,36.848   l0.276,0.303c1.292,1.512,2.631,3.025,4.017,4.482c1.493,1.599,3.06,3.127,4.655,4.64c17.12,16.25,37.171,26.057,60.554,29.633   c0.477,0.071,0.957,0.142,1.438,0.217c3.399,0.492,6.9,0.819,10.453,1.024c0.63,0.043,1.284,0.071,1.938,0.098   c3.552,0.173,7.176,0.248,10.91,0.126c0.555-0.004,1.13-0.02,1.686-0.051c3.931-0.158,7.885-0.382,11.961-0.8   c4.384-0.449,6.254-0.914,9.165-2.599c0.536-0.307,1.103-0.658,1.733-1.055c4.923-3.135,8.641-7.018,13.883-14.647   c5.793-8.413,14.084-25.092,16.203-32.654c2.02-7.188,1.477-12.343-1.528-14.832c-1.717-1.386-14.375-5.884-20.267-7.255   c-4.49-0.973-11.441-1.906-14.616-1.985c-2.552-0.02-5.1,0.701-7.613,2.154c-1.627,0.937-3.241,2.186-4.84,3.73   c-3.19,3.115-4.238,4.829-8.925,14.301c-2.406,4.832-4.636,9.247-4.907,9.724L306.377,307c-0.453,0.575-1.13,1.398-1.808,2.143   v0.028l-0.122,0.134c-1.166,1.288-2.454,2.351-3.931,3.202c-3.34,1.926-7.625,2.781-13.509,2.808   c-6.601,0.051-12.446-1.319-19.109-4.454c-5.648-2.643-11.355-7.046-14.56-11.217c-4.124-5.341-7.27-13.603-7.306-19.133   c-0.008-2.395,0.815-6.258,1.839-8.558l0.477-0.886l0.098-0.169c0.224-0.398,0.524-0.886,0.855-1.445   c1.099-1.768,2.655-4.23,4.285-6.676c6.845-10.319,8.377-13.17,9.271-17.475c0.898-4.053-0.071-8.239-2.954-13.001   c-5.037-8.29-20.393-21.914-25.884-22.938c-0.906-0.142-2.469-0.169-3.478,0.008C229.086,209.617,227.05,210.436,225.321,211.432"/>
	<g>
		<path style="fill:#E3D7F4;" d="M300.518,312.513c-3.34,1.926-7.625,2.781-13.509,2.808c-6.601,0.051-12.446-1.319-19.109-4.454    c-5.648-2.643-11.355-7.046-14.56-11.217c-4.124-5.341-7.27-13.603-7.306-19.133c-0.008-2.395,0.815-6.258,1.839-8.558    l0.477-0.886l0.098-0.169c0.224-0.398,0.524-0.886,0.855-1.445c1.099-1.768,2.655-4.23,4.285-6.676    c6.845-10.319,8.377-13.17,9.271-17.475c0.898-4.053-0.071-8.239-2.954-13.001c-5.037-8.29-20.393-21.914-25.884-22.938    c-0.906-0.142-2.469-0.169-3.478,0.008c-1.457,0.24-3.493,1.059-5.218,2.052c-0.748,0.433-1.434,0.902-1.997,1.363    c-2.769,2.261-6.176,6.577-13.631,17.278c-4.462,6.428-10.606,16.857-12.032,20.488c-3.356,8.535-3.135,14.025,1,24.572    c5.38,13.855,12.694,26.128,21.894,36.848l0.276,0.303c1.292,1.512,2.631,3.025,4.017,4.482c1.493,1.599,3.06,3.127,4.655,4.64    c14.84,14.084,31.89,23.312,51.397,27.853l22.469-38.92C302.488,311.158,301.566,311.906,300.518,312.513z"/>
		<path style="fill:#E3D7F4;" d="M315.169,289.902l1.631-2.824C316.304,287.862,315.76,288.807,315.169,289.902z"/>
	</g>
</g>
<g>
</g>
<g>
</g>
<g>
</g>
<g>
</g>
<g>
</g>
<g>
</g>
<g>
</g>
<g>
</g>
<g>
</g>
<g>
</g>
<g>
</g>
<g>
</g>
<g>
</g>
<g>
</g>
<g>
</g>
</svg>
