<?xml version="1.0" encoding="iso-8859-1"?>
<!-- Generator: Adobe Illustrator 19.0.0, SVG Export Plug-In . SVG Version: 6.00 Build 0)  -->
<svg xmlns="http://www.w3.org/2000/svg" xmlns:xlink="http://www.w3.org/1999/xlink" version="1.1" id="Capa_1" x="0px" y="0px" viewBox="0 0 504.119 504.119" style="enable-background:new 0 0 504.119 504.119;" xml:space="preserve">
<path style="fill:#DCF1F9;" d="M410.124,36.321L359.633,7.393c-2.209-1.611-4.576-2.97-7.093-4.064l-0.744-0.421l-0.032,0.063  c-13.584-5.522-31.13-3.529-50.271,7.519l-155.518,89.777c-42.76,24.69-77.745,85.287-77.745,134.668v179.558  c0,24.08,8.361,41.157,21.847,49.534l-0.13,0.236l56.115,31.795l31.555-54.942l123.876-71.511  c42.752-24.69,77.745-85.291,77.745-134.668V90.088L410.124,36.321z"/>
<path style="fill:#CCE6F2;" d="M410.124,36.321l-54.048-12.678c-2.209-1.607-13.245-1.568-15.762-2.67l-4.005-1.599l-7.215-1.339  c-13.584-5.522-8.46-18.593-27.601-7.546l-155.518,89.777c-42.76,24.69-77.745,85.287-77.745,134.668v179.558  c0,24.08,8.361,41.157,21.847,49.534l-0.13,0.236l56.115,31.795l31.555-54.942l123.876-71.511  c42.752-24.69,77.745-85.291,77.745-134.668V90.088L410.124,36.321z"/>
<path style="fill:#BFD9E8;" d="M71.192,209.065c-1.887,8.791-2.962,17.495-2.962,25.868v179.558c0,24.08,8.361,41.157,21.847,49.534  l-0.13,0.236l56.115,31.795l31.555-54.942l123.876-71.511c7.263-4.194,14.285-9.492,20.96-15.537L71.192,209.065z"/>
<path style="fill:#FFFFFF;" d="M199.425,131.261c-42.76,24.686-77.753,85.291-77.753,134.668v179.562  c0,49.377,34.993,69.577,77.753,44.883l155.506-89.777c42.76-24.686,77.753-85.287,77.753-134.668V86.367  c0-49.376-34.993-69.573-77.753-44.883L199.425,131.261z"/>
<path style="opacity:0.1;fill:#5BC0D8;enable-background:new    ;" d="M432.684,86.367c0-49.376-34.993-69.573-77.753-44.883  l-155.506,89.777c-42.76,24.686-77.753,85.291-77.753,134.668v179.562c0,49.377,34.993,69.577,77.753,44.883"/>
<path style="fill:#FFFFFF;" d="M164.884,504.119h-0.008c-28.192,0-46.407-23.012-46.407-58.628V265.929  c0-50.523,35.592-112.183,79.344-137.444l155.514-89.777c12.607-7.278,24.769-10.965,36.147-10.965  c28.191,0,46.415,23.016,46.415,58.628v179.562c0,50.527-35.6,112.183-79.352,137.444l-155.514,89.777  C188.417,500.429,176.262,504.119,164.884,504.119z M389.479,34.15c-10.24,0-21.323,3.399-32.937,10.098l-155.518,89.789  c-41.984,24.241-76.146,83.409-76.146,131.891V445.49c0,32.209,15.325,52.216,39.999,52.216h0.008  c10.24,0,21.315-3.399,32.929-10.098l155.514-89.785c41.984-24.237,76.146-83.409,76.146-131.891V86.367  C429.478,54.158,414.153,34.15,389.479,34.15z"/>
<g style="enable-background:new    ;">
	<path style="fill:#32455C;" d="M294.712,146.822l-31.397,18.125c-0.544,0.315-1.422,1.335-1.552,2.753   c-1.784,20.708-9.519,59.699-42.047,92.318l0.091,32.544l21.725-12.548l0.236,82.286c0.083,27.872,17.506,57.324,63.011,31.055   c0.532-0.311,1.067-0.63,1.619-0.953c15.789-9.444,33.276-27.313,37.128-36.214l-10.409-29.98   c-3.994,4.525-11.634,10.913-17.31,14.336c-0.311,0.185-0.614,0.37-0.918,0.544c-16.388,9.464-19.641-3.064-19.795-13.442   l-0.221-78.427l43.095-24.883l-0.106-38.152l-42.965,24.812L294.712,146.822"/>
</g>
<path style="fill:#1B2835;" d="M294.873,249.218l43.095-24.883l-0.106-38.152l-42.965,24.812l-0.185-64.173l-31.397,18.125  c-0.544,0.315-1.422,1.335-1.552,2.753c-1.784,20.708-9.519,59.699-42.047,92.318l0.091,32.544l21.725-12.548l0.236,82.286  c0.039,12.776,3.734,25.868,12.091,33.788l41.228-71.404L294.873,249.218z"/>
<g>
</g>
<g>
</g>
<g>
</g>
<g>
</g>
<g>
</g>
<g>
</g>
<g>
</g>
<g>
</g>
<g>
</g>
<g>
</g>
<g>
</g>
<g>
</g>
<g>
</g>
<g>
</g>
<g>
</g>
</svg>
