<?xml version="1.0" encoding="iso-8859-1"?>
<!-- Generator: Adobe Illustrator 19.0.0, SVG Export Plug-In . SVG Version: 6.00 Build 0)  -->
<svg xmlns="http://www.w3.org/2000/svg" xmlns:xlink="http://www.w3.org/1999/xlink" version="1.1" id="Capa_1" x="0px" y="0px" viewBox="0 0 504.115 504.115" style="enable-background:new 0 0 504.115 504.115;" xml:space="preserve">
<path style="fill:#3B66ED;" d="M410.122,36.321L359.631,7.393c-2.209-1.611-4.577-2.97-7.093-4.064l-0.744-0.421l-0.032,0.063  c-13.584-5.522-31.13-3.529-50.271,7.519l-155.518,89.777c-42.76,24.686-77.745,85.287-77.745,134.668v179.558  c0,24.08,8.361,41.157,21.847,49.534l-0.13,0.236l56.115,31.795l31.555-54.942l123.876-71.511  c42.752-24.69,77.745-85.291,77.745-134.668V90.088L410.122,36.321z"/>
<path style="fill:#2A4BD8;" d="M410.122,36.321l-54.047-12.678c-2.209-1.607-13.245-1.568-15.762-2.67l-4.009-1.599l-7.211-1.343  c-13.584-5.522-8.46-18.593-27.601-7.546l-155.518,89.781c-42.76,24.686-77.745,85.287-77.745,134.668v179.558  c0,24.08,8.361,41.157,21.847,49.534l-0.13,0.236l56.115,31.795l31.555-54.942l123.876-71.511  c42.752-24.69,77.745-85.291,77.745-134.668V90.088L410.122,36.321z"/>
<path style="fill:#1A40BA;" d="M71.19,209.065c-1.887,8.791-2.962,17.495-2.962,25.868v179.558c0,24.08,8.361,41.157,21.847,49.534  l-0.13,0.236l56.115,31.795l31.555-54.942l123.876-71.511c7.263-4.194,14.285-9.492,20.961-15.537L71.19,209.065z"/>
<path style="fill:#607EFC;" d="M199.423,131.257c-42.76,24.686-77.753,85.291-77.753,134.668v179.562  c0,49.377,34.993,69.577,77.753,44.883l155.506-89.777c42.76-24.686,77.753-85.287,77.753-134.668V86.367  c0-49.376-34.993-69.573-77.753-44.883L199.423,131.257z"/>
<path style="fill:#5069FF;" d="M432.682,86.367c0-49.376-34.993-69.573-77.753-44.883l-155.506,89.773  c-42.76,24.686-77.753,85.291-77.753,134.668v179.562c0,49.377,34.993,69.577,77.753,44.883"/>
<path style="fill:#7D9CFF;" d="M164.882,504.115h-0.008c-28.192,0-46.407-23.012-46.407-58.628V265.925  c0-50.523,35.592-112.183,79.344-137.444l155.514-89.777c12.607-7.278,24.769-10.965,36.147-10.965  c28.191,0,46.415,23.016,46.415,58.628v179.562c0,50.527-35.6,112.183-79.352,137.444L201.021,493.15  C188.415,500.425,176.26,504.115,164.882,504.115z M389.477,34.15c-10.24,0-21.323,3.399-32.937,10.098l-155.518,89.785  c-41.984,24.241-76.146,83.409-76.146,131.891v179.562c0,32.209,15.325,52.216,39.999,52.216h0.008  c10.24,0,21.315-3.399,32.929-10.098l155.514-89.785c41.984-24.237,76.146-83.409,76.146-131.891V86.367  C429.476,54.158,414.151,34.15,389.477,34.15z"/>
<g style="enable-background:new    ;">
	<path style="fill:#CCD4F2;" d="M248.756,201.582l-45.316,26.167c-8.357,4.825-15.104,16.502-15.076,26.112l0.441,156.247   c0.028,9.61,6.814,13.442,15.179,8.613l45.316-26.159c8.361-4.832,15.073-16.455,15.041-26.061L263.9,210.254   C263.872,200.637,257.117,196.758,248.756,201.582"/>
	<path style="fill:#FFFFFF;" d="M354.511,140.528l-45.316,26.155c-8.365,4.836-15.108,16.514-15.076,26.124l0.244,86.792   c0.024,9.606,6.81,13.477,15.179,8.645l45.312-26.159c8.365-4.832,15.108-16.51,15.076-26.12l-0.244-86.796   C369.663,139.563,362.873,135.692,354.511,140.528"/>
	<path style="fill:#CCD4F2;" d="M369.686,149.169c-0.024-9.606-6.814-13.477-15.179-8.641l-45.316,26.155   c-8.365,4.836-15.108,16.514-15.076,26.124l0.244,86.792c0.024,9.606,6.81,13.477,15.179,8.645l9.874-5.695l50.4-87.3   L369.686,149.169z"/>
</g>
<g>
</g>
<g>
</g>
<g>
</g>
<g>
</g>
<g>
</g>
<g>
</g>
<g>
</g>
<g>
</g>
<g>
</g>
<g>
</g>
<g>
</g>
<g>
</g>
<g>
</g>
<g>
</g>
<g>
</g>
</svg>
