<?xml version="1.0" encoding="iso-8859-1"?>
<!-- Generator: Adobe Illustrator 19.0.0, SVG Export Plug-In . SVG Version: 6.00 Build 0)  -->
<svg xmlns="http://www.w3.org/2000/svg" xmlns:xlink="http://www.w3.org/1999/xlink" version="1.1" id="Capa_1" x="0px" y="0px" viewBox="0 0 504.115 504.115" style="enable-background:new 0 0 504.115 504.115;" xml:space="preserve">
<path style="fill:#5EEF79;" d="M410.122,36.321L359.631,7.393c-2.209-1.611-4.577-2.97-7.093-4.064l-0.744-0.421l-0.032,0.063  c-13.584-5.522-31.13-3.529-50.271,7.519l-155.518,89.777c-42.76,24.69-77.745,85.287-77.745,134.668v179.558  c0,24.08,8.361,41.157,21.847,49.534l-0.13,0.236l56.115,31.795l31.555-54.942l123.876-71.511  c42.752-24.69,77.745-85.291,77.745-134.668V90.088L410.122,36.321z"/>
<path style="fill:#48E069;" d="M410.122,36.321l-54.047-12.678c-2.209-1.607-13.245-1.568-15.762-2.67l-4.009-1.599l-7.211-1.343  c-13.584-5.522-8.46-18.593-27.601-7.546l-155.518,89.781c-42.76,24.69-77.745,85.287-77.745,134.668v179.558  c0,24.08,8.361,41.157,21.847,49.534l-0.13,0.236l56.115,31.795l31.555-54.942l123.876-71.511  c42.752-24.69,77.745-85.291,77.745-134.668V90.088L410.122,36.321z"/>
<path style="fill:#37D660;" d="M71.19,209.065c-1.887,8.791-2.962,17.495-2.962,25.868v179.558c0,24.08,8.361,41.157,21.847,49.534  l-0.13,0.236l56.115,31.795l31.555-54.942l123.876-71.511c7.263-4.194,14.285-9.492,20.961-15.537L71.19,209.065z"/>
<path style="fill:#FFFFFF;" d="M199.423,131.257c-42.76,24.686-77.753,85.291-77.753,134.668v179.562  c0,49.377,34.993,69.577,77.753,44.883l155.506-89.777c42.76-24.686,77.753-85.287,77.753-134.668V86.367  c0-49.376-34.993-69.573-77.753-44.883L199.423,131.257z"/>
<path style="opacity:0.1;fill:#5BC0D8;enable-background:new    ;" d="M432.682,86.367c0-49.376-34.993-69.573-77.753-44.883  l-155.506,89.773c-42.76,24.686-77.753,85.291-77.753,134.668v179.562c0,49.377,34.993,69.577,77.753,44.883"/>
<path style="fill:#FFFFFF;" d="M164.882,504.115h-0.008c-28.192,0-46.407-23.012-46.407-58.628V265.925  c0-50.523,35.592-112.183,79.344-137.444l155.514-89.777c12.607-7.278,24.769-10.965,36.147-10.965  c28.191,0,46.415,23.016,46.415,58.628v179.562c0,50.527-35.6,112.183-79.352,137.444L201.021,493.15  C188.415,500.425,176.26,504.115,164.882,504.115z M389.477,34.15c-10.24,0-21.323,3.399-32.937,10.098l-155.518,89.785  c-41.984,24.241-76.146,83.409-76.146,131.891v179.562c0,32.209,15.325,52.216,39.999,52.216h0.008  c10.24,0,21.315-3.399,32.929-10.098l155.514-89.785c41.984-24.237,76.146-83.409,76.146-131.891V86.367  C429.476,54.158,414.151,34.15,389.477,34.15z"/>
<g style="enable-background:new    ;">
	<path style="fill:#48E069;" d="M222.207,344.458c-3.037,1.757-5.506,0.469-6.439-2.127c-1.107-3.722,1.583-8.98,4.825-12.099   c14.383-12.016,28.117-21.811,41.094-29.294c23.914-13.812,45.261-19.795,63.468-17.443c3.769-0.284,4.332,4.344,2.729,8.96   c-1.378,3.206-3.446,5.778-5.608,7.026c-1.193,0.689-2.414,0.977-3.568,0.744c-16.207-2.127-35.044,3.088-56.367,15.395   c-12.04,6.955-24.867,16.163-38.463,27.601C223.298,343.741,222.746,344.147,222.207,344.458 M219.914,309.859   c-3.623,2.087-7.125,1.705-8.038-1.875c-1.075-4.34,1.063-11.15,5.36-14.887c13.525-12.505,28.144-23.221,42.87-31.72   c28.046-16.191,56.454-24.348,78.407-21.555c3.245-0.032,4.868,5.246,2.186,11.158c-1.745,3.844-4.447,7.18-7.168,8.747   c-1.414,0.819-2.84,1.158-4.131,0.839c-19.015-2.355-44.445,5.049-69.238,19.365c-13.21,7.625-26.238,17.215-38.022,28.333   C221.407,308.894,220.659,309.425,219.914,309.859 M213.822,275.7c-4.34,2.505-8.239,1.441-9.578-2.379   c-1.654-5.258,1.575-13.328,6.416-17.975c14.415-13.225,32.37-26.293,51.279-37.215c31.224-18.022,65.056-30.188,89.947-27.573   c4.86,0.299,6.483,6.798,3.801,13.919c-1.76,3.891-5.163,7.633-8.661,9.653c-1.816,1.052-3.671,1.634-5.333,1.536   c-21.476-2.233-51.877,8.806-79.691,24.863c-16.939,9.779-32.914,21.417-45.34,33.052   C215.708,274.456,214.751,275.157,213.822,275.7 M277.79,142.186c-59.246,34.206-107.583,117.921-107.39,186.01   c0.193,68.116,48.845,95.839,108.099,61.629C337.777,355.6,386.114,271.88,385.921,203.764   C385.728,135.676,337.623,107.638,277.79,142.186"/>
</g>
<path style="fill:#37D660;" d="M277.79,142.186c-59.246,34.206-107.583,117.921-107.39,186.01  c0.161,57.056,34.332,85.744,80.246,73.46l58.762-101.774c-14.001,0.477-29.692,5.707-47.069,15.738  c-12.04,6.955-24.867,16.163-38.463,27.601c-0.575,0.52-1.13,0.922-1.67,1.233c-3.037,1.757-5.506,0.469-6.439-2.127  c-1.107-3.722,1.583-8.98,4.825-12.099c14.383-12.016,28.117-21.811,41.094-29.294c21.323-12.316,40.594-18.365,57.431-17.869  l13.131-22.749c-0.977,0.358-1.946,0.473-2.848,0.248c-19.015-2.355-44.445,5.049-69.238,19.365  c-13.21,7.625-26.238,17.215-38.022,28.333c-0.733,0.626-1.477,1.162-2.221,1.591c-3.623,2.087-7.125,1.705-8.038-1.875  c-1.075-4.34,1.063-11.15,5.36-14.887c13.525-12.505,28.144-23.221,42.87-31.72c28.046-16.191,56.454-24.348,78.407-21.555  c1.729-0.016,2.97,1.505,3.375,3.801l40.279-69.762C369.761,128.236,327.899,113.254,277.79,142.186z M355.685,204.473  c-1.76,3.891-5.163,7.633-8.661,9.653c-1.816,1.052-3.671,1.634-5.333,1.536c-21.476-2.233-51.877,8.806-79.691,24.863  c-16.939,9.779-32.914,21.417-45.34,33.052c-0.953,0.882-1.906,1.579-2.84,2.123c-4.34,2.505-8.239,1.441-9.578-2.379  c-1.654-5.258,1.575-13.328,6.416-17.975c14.415-13.225,32.37-26.293,51.279-37.215c31.224-18.022,65.056-30.188,89.947-27.573  C356.744,190.854,358.367,197.349,355.685,204.473z"/>
<g>
</g>
<g>
</g>
<g>
</g>
<g>
</g>
<g>
</g>
<g>
</g>
<g>
</g>
<g>
</g>
<g>
</g>
<g>
</g>
<g>
</g>
<g>
</g>
<g>
</g>
<g>
</g>
<g>
</g>
</svg>
