<?xml version="1.0" encoding="utf-8"?>
<!-- Generator: Adobe Illustrator 26.3.1, SVG Export Plug-In . SVG Version: 6.00 Build 0)  -->
<svg version="1.1" id="Capa_1" xmlns="http://www.w3.org/2000/svg" xmlns:xlink="http://www.w3.org/1999/xlink" x="0px" y="0px"
	 viewBox="0 0 504.1 504.1" style="enable-background:new 0 0 504.1 504.1;" xml:space="preserve">
<style type="text/css">
	.st0{fill:#DCF1F9;}
	.st1{fill:#CCE6F2;}
	.st2{fill:#BFD9E8;}
	.st3{fill:#FFFFFF;}
	.st4{opacity:0.1;fill:#5BC0D8;enable-background:new    ;}
	.st5{enable-background:new    ;}
	.st6{fill:#2F3638;}
</style>
<path class="st0" d="M119,39.8l9.4-5.4c0.4-0.3,0.9-0.6,1.3-0.8l0.1-0.1l0,0c2.5-1,5.8-0.7,9.4,1.4l29.1,16.8
	c8,4.6,14.5,16,14.5,25.2v33.6c0,4.5-1.6,7.7-4.1,9.3l0,0l-10.5,5.9l-5.9-10.3l-23.2-13.4c-8-4.6-14.5-16-14.5-25.2V49.8L119,39.8z"
	/>
<path class="st1" d="M119,39.8l10.1-2.4c0.4-0.3,2.5-0.3,2.9-0.5l0.7-0.3l1.3-0.3c2.5-1,1.6-3.5,5.2-1.4l29.1,16.8
	c8,4.6,14.5,16,14.5,25.2v33.6c0,4.5-1.6,7.7-4.1,9.3l0,0l-10.5,5.9l-5.9-10.3l-23.2-13.4c-8-4.6-14.5-16-14.5-25.2V49.8L119,39.8z"
	/>
<path class="st2" d="M182.3,72.1c0.4,1.6,0.6,3.3,0.6,4.8v33.6c0,4.5-1.6,7.7-4.1,9.3l0,0l-10.5,5.9l-5.9-10.3l-23.2-13.4
	c-1.4-0.8-2.7-1.8-3.9-2.9L182.3,72.1z"/>
<path class="st3" d="M158.4,57.5c8,4.6,14.5,16,14.5,25.2v33.6c0,9.2-6.5,13-14.5,8.4l-29.1-16.8c-8-4.6-14.5-16-14.5-25.2V49.2
	c0-9.2,6.5-13,14.5-8.4L158.4,57.5z"/>
<path class="st4" d="M114.7,49.2c0-9.2,6.5-13,14.5-8.4l29.1,16.8c8,4.6,14.5,16,14.5,25.2v33.6c0,9.2-6.5,13-14.5,8.4"/>
<path class="st3" d="M164.8,127.3L164.8,127.3c5.3,0,8.7-4.3,8.7-11V82.7c0-9.4-6.7-21-14.8-25.7l-29.1-16.8
	c-2.4-1.4-4.6-2.1-6.8-2.1c-5.3,0-8.7,4.3-8.7,11v33.6c0,9.5,6.7,21,14.8,25.7l29.1,16.8C160.4,126.6,162.7,127.3,164.8,127.3z
	 M122.8,39.4c1.9,0,4,0.6,6.2,1.9l29.1,16.8c7.9,4.5,14.2,15.6,14.2,24.7v33.6c0,6-2.9,9.8-7.5,9.8h0c-1.9,0-4-0.6-6.2-1.9
	l-29.1-16.8c-7.9-4.5-14.2-15.6-14.2-24.7V49.2C115.3,43.1,118.2,39.4,122.8,39.4z"/>
<g class="st5">
	<path class="st6" d="M143.1,61.1c10.9,6.3,19.7,21.6,19.7,34.2c0,10.1-5.7,15.3-13.6,13.8c-0.1,0-0.2-0.1-0.3-0.2
		c-0.7-0.4-1-1.2-1-1.7c0-0.5,0-2,0-3.9c0.7,0.6,1.4,1.1,2,1.4c3.8,2.2,4.7-0.6,4.7-0.6c0.9-2.1,2.2-2.1,2.2-2.1
		c1.7-0.4,0-1.4-0.1-1.5c0,0,0,0,0,0c-2-1-3,0.6-3,0.6c-1,1.4-2.3,1.2-3.5,0.5c-0.9-0.5-1.8-1.4-2.3-1.9c-0.2-1.6-0.7-2.9-1.2-3.8
		c4.4,2,9,2.7,9-6.1c0-2.5-0.8-5-2-7.3c0.2-0.5,0.9-2.4-0.2-6.1c0,0-0.1-0.1-0.4-0.3c-0.7-0.4-2.3-1-5-0.5c-1.6-1.4-3.3-2.6-4.9-3.6
		c-1.7-1-3.4-1.7-4.9-2.1c-2.7-3.6-4.3-4.9-5-5.3c-0.3-0.2-0.4-0.2-0.4-0.2c-1.1,2.5-0.4,5.2-0.2,5.9c-1.3,0.9-2,2.5-2.1,4.9
		c0,8.8,4.6,13.3,9,16.4c-0.7,0.3-1.4,1.3-1.4,3.4c0,3.1,0,5.5,0,6.3c0,0.5-0.3,1-1,0.6c-0.1-0.1-0.2-0.1-0.4-0.2
		c-7.8-7.5-13.5-19.3-13.4-29.4C123.4,59.9,132.2,54.8,143.1,61.1"/>
</g>
<path d="M124.4,65.8c2.6-7.5,10.1-9.8,18.8-4.8c10.9,6.3,19.7,21.6,19.7,34.2c0,10-5.7,15.3-13.5,13.8l-1.4-2.4c0-0.7,0-1.9,0-3.3
	c0.7,0.6,1.4,1.1,2,1.4c3.8,2.2,4.7-0.6,4.7-0.6c0.9-2.1,2.2-2.1,2.2-2.1c1.7-0.4,0-1.4-0.1-1.5c0,0,0,0,0,0c-2-1-3,0.6-3,0.6
	c-1,1.4-2.3,1.2-3.5,0.5c-0.9-0.5-1.8-1.4-2.3-1.9c-0.2-1.6-0.7-2.9-1.2-3.8c4.4,2,9,2.7,9-6.1c0-2.5-0.8-5-2-7.3
	c0.2-0.5,0.9-2.4-0.2-6.1c0,0-0.1-0.1-0.4-0.3c-0.7-0.4-2.3-1-5-0.5c-1.6-1.4-3.3-2.6-4.9-3.6c-1.7-1-3.4-1.7-4.9-2.1
	c-2.7-3.6-4.3-4.9-5-5.3c-0.3-0.2-0.4-0.2-0.4-0.2c-1.1,2.5-0.4,5.2-0.2,5.9c-1.3,0.9-2,2.5-2.1,4.9c0,0.4,0,0.7,0,1.1L124.4,65.8z"
	/>
<path d="M139.5,91.8C139.4,91.8,139.4,91.9,139.5,91.8l-0.2-0.1C139.4,91.7,139.4,91.8,139.5,91.8z"/>
</svg>
