<?xml version="1.0" encoding="iso-8859-1"?>
<!-- Generator: Adobe Illustrator 19.0.0, SVG Export Plug-In . SVG Version: 6.00 Build 0)  -->
<svg xmlns="http://www.w3.org/2000/svg" xmlns:xlink="http://www.w3.org/1999/xlink" version="1.1" id="Capa_1" x="0px" y="0px" viewBox="0 0 504.119 504.119" style="enable-background:new 0 0 504.119 504.119;" xml:space="preserve">
<path style="fill:#323738;" d="M410.12,36.32L359.629,7.396c-2.209-1.607-4.576-2.97-7.093-4.064l-0.744-0.425L351.76,2.97  c-13.584-5.522-31.13-3.525-50.271,7.522l-155.518,89.777c-42.76,24.69-77.737,85.287-77.737,134.668v179.558  c0,24.08,8.361,41.157,21.847,49.538l-0.13,0.232l56.107,31.791l31.555-54.938l123.876-71.511  c42.752-24.69,77.745-85.287,77.745-134.668V90.092L410.12,36.32z"/>
<path style="fill:#252B2D;" d="M410.12,36.32l-54.048-12.674c-2.209-1.611-13.245-1.568-15.762-2.666l-4.005-1.607l-7.215-1.339  c-13.584-5.522-8.46-18.593-27.601-7.546l-155.518,89.781c-42.76,24.69-77.737,85.287-77.737,134.668v179.558  c0,24.08,8.361,41.157,21.847,49.538l-0.13,0.232l56.107,31.791l31.555-54.938l123.876-71.511  c42.752-24.69,77.745-85.287,77.745-134.668V90.092L410.12,36.32z"/>
<path style="fill:#090C0C;" d="M71.196,209.069c-1.887,8.787-2.962,17.495-2.962,25.868v179.558c0,24.08,8.361,41.157,21.847,49.538  l-0.13,0.232l56.107,31.791l31.555-54.938l123.876-71.511c7.263-4.194,14.285-9.496,20.96-15.537L71.196,209.069z"/>
<path style="fill:#3B4142;" d="M199.42,131.261c-42.76,24.69-77.753,85.287-77.753,134.668v179.558  c0,49.38,34.993,69.577,77.753,44.891l155.506-89.781c42.76-24.69,77.753-85.287,77.753-134.668V86.374  c0-49.38-34.993-69.577-77.753-44.891L199.42,131.261z"/>
<path style="opacity:0.2;fill:#383E3F;enable-background:new    ;" d="M432.679,86.374c0-49.38-34.993-69.577-77.753-44.891  L199.42,131.261c-42.76,24.69-77.753,85.287-77.753,134.668v179.558c0,49.38,34.993,69.577,77.753,44.891"/>
<path style="fill:#4F5759;" d="M164.88,504.119h-0.008c-28.192,0-46.407-23.016-46.407-58.632V265.929  c0-50.527,35.592-112.187,79.344-137.44l155.514-89.781c12.607-7.278,24.769-10.965,36.147-10.965  c28.191,0,46.415,23.016,46.415,58.632v179.558c0,50.527-35.6,112.187-79.352,137.44l-155.514,89.781  C188.412,500.429,176.258,504.119,164.88,504.119z M389.474,34.158c-10.24,0-21.323,3.399-32.937,10.098l-155.518,89.777  c-41.984,24.245-76.146,83.413-76.146,131.895v179.558c0,32.209,15.325,52.22,39.999,52.22h0.008  c10.24,0,21.315-3.403,32.929-10.102l155.514-89.777c41.984-24.241,76.146-83.413,76.146-131.895V86.374  C429.473,54.166,414.149,34.158,389.474,34.158z"/>
<g style="enable-background:new    ;">
	<g>
		<path style="fill:#AF0505;" d="M197.73,306.995c-2.981,1.717-5.632,5.104-7.479,9.551c-4.057,10-5.711,35.107-4.265,50.302    c0.528,5.01,1.367,8.909,2.56,10.87c1.623,2.71,4.368,3.281,7.538,1.571c0.13-0.067,0.252-0.134,0.386-0.213    c1.934-1.115,5.285-4.265,40.641-37.975l16.868-16.033c4.167-3.651,6.999-9.803,7.231-15.691c0.016-0.386,0.024-0.752,0.016-1.111    c0.008,0.358,0,0.729-0.016,1.111c-0.232,5.888-3.064,12.044-7.231,15.691l-16.868,16.033    c-35.36,33.709-38.707,36.856-40.641,37.975c-0.13,0.079-0.252,0.146-0.386,0.213c-3.17,1.709-5.916,1.134-7.538-1.571    c-1.197-1.961-2.036-5.856-2.56-10.87c-1.445-15.195,6.554-29.259,10.602-39.259c1.851-4.447,4.506-7.83,7.479-9.559    c0.13-0.063,0.256-0.142,0.386-0.205c1.205-0.697,0.142-4.88,7.278-8.995c5.022-2.899,14.119-5.778,30.929-7.389    c-40.696,3.895-42.496,4.151-44.548,5.341C197.986,306.849,197.853,306.924,197.73,306.995"/>
		<path style="fill:#AF0505;" d="M270.73,332.508c-3.194,1.843-6.152,5.069-8.094,9.031l-8.287,16.297    c-28.361,55.438-29.542,57.943-30.224,60.648c0.681-2.71,5.317,3.978,33.717-51.527l8.279-16.301    c2.58-5.313,4.128-17.117,8.066-19.389c0.327-0.189,0.681-0.311,1.044-0.366C273.731,331.099,272.207,331.658,270.73,332.508"/>
		<path style="fill:#AF0505;" d="M342.575,173.725c-1.67,0.961-3.265,2.446-4.691,4.383c-1.65,2.241-2.871,4.848-25.769,54.816    c14.305-31.232,22.193-39.668,26.486-42.145c1.099-0.634,1.961-0.878,2.643-1.012c0.681-0.165,1.166-0.201,1.528-0.406    c0.126-0.079,0.244-0.177,0.343-0.307c1.418-1.93,3.005-3.391,4.667-4.352c1.457-0.839,2.966-1.296,4.474-1.339    c7.223-0.035,17.089,6.483,21.429,15.013c-5.341-11.622-19.204-25.974-26.691-25.939    C345.505,172.449,344.017,172.894,342.575,173.725"/>
		<path style="fill:#AF0505;" d="M268.414,129.938c0.043-0.016,0.083-0.031,0.126-0.043    C268.497,129.906,268.457,129.922,268.414,129.938 M264.751,131.71c-14.848,8.57-49.412,40.507-56.383,52.945    c-2.473,4.454-3.403,8.759-2.631,11.63c1.229,2.229,53.406,67.639,53.406,67.639c5.423,7.058,10.118,6.298,13.147,4.549    c1.292-0.744,2.284-1.686,2.903-2.257c1.91-1.816,7.656-7.231,7.526-22.032c0.13,14.801-5.616,20.216-7.526,22.032    c-0.618,0.575-1.611,1.512-2.903,2.257c-3.029,1.745-7.723,2.509-13.147-4.549c0,0-30.456-73.011-31.689-75.248    c-0.768-2.871,0.158-7.133,2.635-11.626c7.148-12.765,24.856-39.57,36.151-46.088c0.673-0.39,1.319-0.705,1.942-0.937    C267.209,130.383,266.055,130.958,264.751,131.71"/>
		<path style="fill:#AF0505;" d="M313.588,294.152c-3.048,1.76-6.109,5.289-8.334,9.846c-3.194,6.404-3.679,12.686-1.111,15.762    l6.695,8.81c22.579,29.59,24.281,31.638,25.943,32.122c1.489,0.528,3.206,0.228,5.057-0.843c1.256-0.721,2.572-1.804,3.907-3.21    c9.527-9.929,30.279-52.901,31.72-65.662c0.079-0.697,0.114-1.355,0.106-1.961c0.008,0.607-0.032,1.264-0.106,1.961    c-1.441,12.761-22.193,55.729-31.72,65.662c-1.335,1.406-2.651,2.493-3.907,3.21c-1.851,1.067-3.568,1.371-5.057,0.843    c-1.662-0.484-3.363-2.536-25.943-32.122l-0.386-8.476c-2.564-3.076-2.079-9.37,1.079-15.742c2.245-4.573,5.293-8.097,8.334-9.85    c1.115-0.646,2.233-1.056,3.312-1.185l10.52-3.505l-16.794,3.151C315.821,293.1,314.711,293.502,313.588,294.152"/>
	</g>
	<g>
		<path style="fill:#CC2414;" d="M211.732,308.834c-7.136,4.116-6.073,8.298-7.278,8.995c-0.126,0.063-0.252,0.142-0.386,0.205    c-2.977,1.725-5.632,5.112-7.479,9.559c-4.049,10-12.052,24.06-10.602,39.259c0.528,5.01,1.367,8.909,2.56,10.87    c1.623,2.71,4.368,3.281,7.538,1.571c0.13-0.067,0.252-0.134,0.386-0.213c1.934-1.115,5.285-4.265,40.641-37.975l16.868-16.033    c4.167-3.651,6.999-9.803,7.231-15.691c0.016-0.386,0.024-0.752,0.016-1.111c-0.083-5.38-2.651-8.594-6.672-8.05l-11.898,1.229    C225.851,303.057,216.753,305.936,211.732,308.834"/>
		<path style="fill:#CC2414;" d="M274.188,331.268c-3.938,2.272-5.486,14.076-8.066,19.389l-8.279,16.301    c-28.4,55.505-33.036,48.821-33.717,51.527c-0.417,1.615-0.599,3.167-0.414,4.514c0.15,1.942,0.945,3.552,2.284,4.691    c6.199,4.986,34.146,1.276,46.096-5.624c0.87-0.5,1.654-1.02,2.336-1.552c3.529-2.777,6.077-6.573,7.144-10.665    c0.642-2.564,0.713-4.143,0.685-50.609l0.055-20.748c0.272-5.207-2.509-8.157-7.085-7.593    C274.869,330.957,274.515,331.079,274.188,331.268"/>
		<path style="fill:#CC2414;" d="M347.778,184.702c-1.662,0.961-3.245,2.422-4.667,4.352c-0.098,0.13-0.217,0.232-0.343,0.307    c-0.362,0.205-0.847,0.24-1.528,0.406c-0.681,0.134-1.544,0.378-2.643,1.012c-4.293,2.477-12.182,10.913-26.486,42.145    L301.654,255.7c-2.761,5.486-2.745,11.071-0.071,14.289c2.249,2.725,5.754,3.041,9.271,1.016c0.831-0.48,1.662-1.095,2.477-1.839    l-0.217,0.579c2.123-2.174,5.9-5.435,12.804-11.362c42.91-36.915,44.556-38.53,46.245-40.791    c2.588-3.525,3.911-7.719,3.647-11.752l-0.008-0.417c-0.224-2.422-0.989-4.809-2.131-7.046    c-4.344-8.527-14.206-15.045-21.429-15.013C350.744,183.406,349.235,183.867,347.778,184.702"/>
		<path style="fill:#CC2414;" d="M266.236,130.962c-11.295,6.518-28.999,33.323-36.151,46.088    c-2.477,4.498-3.403,8.759-2.635,11.626c1.229,2.237,31.689,75.248,31.689,75.248c5.423,7.058,10.118,6.298,13.147,4.549    c1.292-0.744,2.284-1.686,2.903-2.257c1.91-1.816,7.656-7.231,7.526-22.032c-0.004-0.725-0.028-1.477-0.067-2.245    c-0.776-19.476-6.136-104.995-6.762-108.776c-0.87-3.182-3.363-4.399-6.971-3.395c-0.118,0.039-0.248,0.083-0.378,0.126    c-0.047,0.012-0.083,0.028-0.126,0.043c-0.079,0.02-0.158,0.051-0.24,0.083C267.555,130.257,266.91,130.572,266.236,130.962"/>
		<path style="fill:#CC2414;" d="M319.87,294.502c-3.04,1.753-6.089,5.278-8.334,9.85c-3.163,6.372-3.647,12.666-1.079,15.742    l0.386,8.476c22.579,29.59,24.281,31.638,25.943,32.122c1.489,0.528,3.206,0.228,5.057-0.843c1.256-0.721,2.572-1.804,3.907-3.21    c9.527-9.929,30.279-52.901,31.72-65.662c0.079-0.697,0.114-1.355,0.106-1.961c0-3.332-1.122-5.518-3.194-6.25    c-1.631-0.465-2.851-0.295-40.68,7.046l-10.52,3.505C322.103,293.451,320.985,293.856,319.87,294.502"/>
	</g>
</g>
<g>
</g>
<g>
</g>
<g>
</g>
<g>
</g>
<g>
</g>
<g>
</g>
<g>
</g>
<g>
</g>
<g>
</g>
<g>
</g>
<g>
</g>
<g>
</g>
<g>
</g>
<g>
</g>
<g>
</g>
</svg>
