<?xml version="1.0" encoding="iso-8859-1"?>
<!-- Generator: Adobe Illustrator 19.0.0, SVG Export Plug-In . SVG Version: 6.00 Build 0)  -->
<svg xmlns="http://www.w3.org/2000/svg" xmlns:xlink="http://www.w3.org/1999/xlink" version="1.1" id="Capa_1" x="0px" y="0px" viewBox="0 0 504.119 504.119" style="enable-background:new 0 0 504.119 504.119;" xml:space="preserve">
<path style="fill:#AD0B0B;" d="M410.124,36.32L359.633,7.396c-2.209-1.607-4.577-2.97-7.093-4.064l-0.744-0.425l-0.032,0.063  c-13.584-5.522-31.13-3.525-50.271,7.522l-155.518,89.777c-42.76,24.69-77.745,85.287-77.745,134.668v179.558  c0,24.08,8.361,41.157,21.847,49.538l-0.13,0.232l56.115,31.791l31.555-54.938l123.876-71.511  c42.752-24.69,77.745-85.287,77.745-134.668V90.092L410.124,36.32z"/>
<path style="fill:#9B0A0A;" d="M410.124,36.32l-54.047-12.674c-2.209-1.611-13.245-1.568-15.762-2.666l-4.005-1.607l-7.215-1.339  c-13.584-5.522-8.46-18.593-27.601-7.546l-155.518,89.781c-42.76,24.69-77.745,85.287-77.745,134.668v179.558  c0,24.08,8.361,41.157,21.847,49.538l-0.13,0.232l56.115,31.791l31.555-54.938l123.876-71.511  c42.752-24.69,77.745-85.287,77.745-134.668V90.092L410.124,36.32z"/>
<path style="fill:#870000;" d="M71.192,209.069c-1.887,8.787-2.962,17.495-2.962,25.868v179.558c0,24.08,8.361,41.157,21.847,49.538  l-0.13,0.232l56.115,31.791l31.555-54.938l123.876-71.511c7.263-4.194,14.285-9.496,20.961-15.537L71.192,209.069z"/>
<path style="fill:#D80B0B;" d="M199.424,131.261c-42.76,24.69-77.753,85.287-77.753,134.668v179.558  c0,49.38,34.993,69.577,77.753,44.891l155.506-89.781c42.76-24.69,77.753-85.287,77.753-134.668V86.374  c0-49.38-34.993-69.577-77.753-44.891L199.424,131.261z"/>
<path style="fill:#C40808;" d="M432.683,86.374c0-49.38-34.993-69.577-77.753-44.891L199.424,131.26  c-42.76,24.69-77.753,85.287-77.753,134.668v179.558c0,49.38,34.993,69.577,77.753,44.891"/>
<path style="fill:#F21919;" d="M164.884,504.119h-0.008c-28.192,0-46.407-23.016-46.407-58.632V265.929  c0-50.527,35.592-112.187,79.344-137.44l155.514-89.781c12.607-7.278,24.769-10.965,36.147-10.965  c28.191,0,46.415,23.016,46.415,58.632v179.558c0,50.527-35.6,112.187-79.352,137.44l-155.514,89.781  C188.416,500.429,176.262,504.119,164.884,504.119z M389.478,34.158c-10.24,0-21.323,3.399-32.937,10.098l-155.518,89.777  c-41.984,24.245-76.146,83.413-76.146,131.895v179.558c0,32.209,15.325,52.22,39.999,52.22h0.008  c10.24,0,21.315-3.403,32.929-10.102l155.514-89.777c41.984-24.241,76.146-83.413,76.146-131.895V86.374  C429.477,54.166,414.153,34.158,389.478,34.158z"/>
<g style="enable-background:new    ;">
	<path style="fill:#FFF6F3;" d="M285.877,330.559l0.091-0.091c13.462-7.771,22.599-15.998,27.932-25.171   c1.193-2.036,2.745-3.612,4.301-4.513c1.556-0.898,3.107-1.111,4.285-0.441c2.383,1.323,2.399,5.715,0.024,9.783   c-7.7,13.281-19.653,24.47-36.502,34.198l-0.091,0.051l-0.122,0.075c-16.845,9.728-28.822,12.351-36.577,7.995   c-2.391-1.319-2.399-5.707-0.032-9.783c1.193-2.036,2.745-3.608,4.301-4.51c1.56-0.902,3.115-1.122,4.309-0.461   c5.376,2.989,14.494,0.681,27.955-7.093L285.877,330.559 M252.877,316.959c-8.298,4.789-15.301,1.158-15.332-8.342   c-0.024-9.46,6.94-21.437,15.23-26.234c8.33-4.809,15.116-0.76,15.147,8.704C267.945,300.583,261.207,312.155,252.877,316.959    M318.909,278.839c-8.33,4.809-15.332,1.174-15.36-8.322c-0.024-9.464,6.94-21.441,15.269-26.25   c8.29-4.789,15.076-0.744,15.108,8.716C333.946,262.479,327.207,274.042,318.909,278.839 M359.692,151.938   c-5.632,3.249-10.248,0.697-10.268-5.746c-0.016-6.404,4.569-14.277,10.208-17.534c5.632-3.249,10.224-0.673,10.24,5.73   C369.892,140.827,365.332,148.689,359.692,151.938 M359.593,114.81c-8.645,4.99-16.116,14.919-19.846,25.253l-37.002,11.418   c-0.469,0.146-0.937,0.354-1.398,0.622c-2.599,1.497-4.97,4.773-5.762,8.196l-14.222,59.995   c-23.922,14.494-46.375,34.525-63.878,56.99c-4.553-1.406-10.26-0.532-16.455,3.044c-14.746,8.515-26.73,29.129-26.683,45.926   c0.032,10.366,4.655,16.88,11.654,18.349c-0.276,2.576-0.421,5.116-0.414,7.566c0.063,21.008,10.815,34.367,30.338,37.581   c18.7,3.115,43.422-3.521,69.6-18.629c26.207-15.136,50.853-37.006,69.506-61.684c19.401-25.687,30.086-51.424,30.031-72.432   c-0.008-2.233-0.177-4.372-0.402-6.443c7.44-9.732,12.355-22.087,12.323-32.847c-0.047-16.809-12.075-23.548-26.825-15.033   c-6.384,3.69-12.268,9.637-16.853,16.573c-16.345-2.272-37.061,2.631-59.262,13.97l11.461-48.345l31.839-9.842   c0.878,12.717,10.587,17.562,22.386,10.748c12.339-7.125,22.331-24.348,22.284-38.412   C381.976,113.345,371.925,107.689,359.593,114.81"/>
</g>
<path style="fill:#FFE2D9;" d="M379.014,179.326c-2.777,0.492-5.746,1.568-8.854,3.363c-6.384,3.69-12.268,9.637-16.853,16.573  c-16.345-2.272-37.061,2.631-59.262,13.97l11.461-48.345l31.839-9.842c0.878,12.717,10.587,17.562,22.386,10.748  c12.339-7.125,22.331-24.348,22.284-38.412c-0.039-14.029-10.09-19.688-22.422-12.564c-8.645,4.99-16.116,14.919-19.846,25.253  l-37.002,11.418c-0.469,0.146-0.937,0.354-1.398,0.622c-2.599,1.497-4.97,4.773-5.762,8.196l-14.222,59.995  c-23.922,14.494-46.375,34.525-63.878,56.99c-4.553-1.406-10.26-0.532-16.455,3.044c-14.746,8.515-26.73,29.129-26.683,45.926  c0.032,10.366,4.655,16.88,11.654,18.349c-0.276,2.576-0.421,5.116-0.414,7.566c0.063,21.008,10.815,34.367,30.338,37.581  c12.855,2.143,28.562-0.327,45.631-6.991l21.161-36.647c-15.206,8.275-26.23,10.401-33.501,6.321  c-2.391-1.319-2.399-5.707-0.032-9.783c1.193-2.036,2.745-3.608,4.301-4.51c1.56-0.902,3.115-1.122,4.309-0.461  c5.376,2.989,14.494,0.681,27.955-7.093l0.13-0.039l0.091-0.091c3.308-1.906,6.353-3.848,9.145-5.825l28.633-49.589  c-1.524,1.477-3.131,2.8-4.84,3.785c-8.33,4.809-15.332,1.174-15.36-8.322c-0.024-9.464,6.94-21.441,15.269-26.25  c8.29-4.789,15.076-0.744,15.108,8.716c0.008,1.89-0.323,3.875-0.815,5.864L379.014,179.326z M359.629,128.658  c5.632-3.249,10.224-0.673,10.24,5.73c0.024,6.439-4.537,14.301-10.177,17.55c-5.632,3.249-10.248,0.697-10.268-5.746  C349.408,139.788,353.993,131.915,359.629,128.658z M252.877,316.959c-8.298,4.789-15.301,1.158-15.332-8.342  c-0.024-9.46,6.94-21.437,15.23-26.234c8.33-4.809,15.116-0.76,15.147,8.704C267.945,300.583,261.207,312.155,252.877,316.959z"/>
<g>
</g>
<g>
</g>
<g>
</g>
<g>
</g>
<g>
</g>
<g>
</g>
<g>
</g>
<g>
</g>
<g>
</g>
<g>
</g>
<g>
</g>
<g>
</g>
<g>
</g>
<g>
</g>
<g>
</g>
</svg>
