<?xml version="1.0" encoding="iso-8859-1"?>
<!-- Generator: Adobe Illustrator 19.0.0, SVG Export Plug-In . SVG Version: 6.00 Build 0)  -->
<svg xmlns="http://www.w3.org/2000/svg" xmlns:xlink="http://www.w3.org/1999/xlink" version="1.1" id="Capa_1" x="0px" y="0px" viewBox="0 0 504.119 504.119" style="enable-background:new 0 0 504.119 504.119;" xml:space="preserve">
<path style="fill:#AD0B0B;" d="M410.124,36.32L359.633,7.396c-2.209-1.607-4.577-2.97-7.093-4.064l-0.744-0.425l-0.032,0.063  c-13.584-5.522-31.13-3.525-50.271,7.522l-155.518,89.777c-42.76,24.69-77.745,85.287-77.745,134.668v179.558  c0,24.08,8.361,41.157,21.847,49.538l-0.13,0.232l56.115,31.791l31.555-54.938l123.876-71.511  c42.752-24.69,77.745-85.287,77.745-134.668V90.092L410.124,36.32z"/>
<path style="fill:#9B0A0A;" d="M410.124,36.32l-54.047-12.674c-2.209-1.611-13.245-1.568-15.762-2.666l-4.005-1.607l-7.215-1.339  c-13.584-5.522-8.46-18.593-27.601-7.546l-155.518,89.781c-42.76,24.69-77.745,85.287-77.745,134.668v179.558  c0,24.08,8.361,41.157,21.847,49.538l-0.13,0.232l56.115,31.791l31.555-54.938l123.876-71.511  c42.752-24.69,77.745-85.287,77.745-134.668V90.092L410.124,36.32z"/>
<path style="fill:#870000;" d="M71.192,209.069c-1.887,8.787-2.962,17.495-2.962,25.868v179.558c0,24.08,8.361,41.157,21.847,49.538  l-0.13,0.232l56.115,31.791l31.555-54.938l123.876-71.511c7.263-4.194,14.285-9.496,20.961-15.537L71.192,209.069z"/>
<path style="fill:#D80B0B;" d="M199.424,131.261c-42.76,24.69-77.753,85.287-77.753,134.668v179.558  c0,49.38,34.993,69.577,77.753,44.891l155.506-89.781c42.76-24.69,77.753-85.287,77.753-134.668V86.374  c0-49.38-34.993-69.577-77.753-44.891L199.424,131.261z"/>
<path style="fill:#C40808;" d="M432.683,86.374c0-49.38-34.993-69.577-77.753-44.891L199.424,131.26  c-42.76,24.69-77.753,85.287-77.753,134.668v179.558c0,49.38,34.993,69.577,77.753,44.891"/>
<path style="fill:#F21919;" d="M164.884,504.119h-0.008c-28.192,0-46.407-23.016-46.407-58.632V265.929  c0-50.527,35.592-112.187,79.344-137.44l155.514-89.781c12.607-7.278,24.769-10.965,36.147-10.965  c28.191,0,46.415,23.016,46.415,58.632v179.558c0,50.527-35.6,112.187-79.352,137.44l-155.514,89.781  C188.416,500.429,176.262,504.119,164.884,504.119z M389.478,34.158c-10.24,0-21.323,3.399-32.937,10.098l-155.518,89.777  c-41.984,24.245-76.146,83.413-76.146,131.895v179.558c0,32.209,15.325,52.22,39.999,52.22h0.008  c10.24,0,21.315-3.403,32.929-10.102l155.514-89.777c41.984-24.241,76.146-83.413,76.146-131.895V86.374  C429.477,54.166,414.153,34.158,389.478,34.158z"/>
<g style="enable-background:new    ;">
	<path style="fill:#FFFFFF;" d="M279.792,143.691c-58.49,33.772-105.752,115.633-105.559,182.835   c0.138,49.81,26.344,77.58,63.732,74.835c-0.331-8.287-0.11-18.672,1.737-28.999c2.009-11.024,13.442-74.145,13.442-74.145   s-3.415-5.837-3.45-17.313c-0.047-18.034,9.039-36.766,20.354-43.299c3.226-1.863,5.896-2.469,8.027-2.076l0.028-0.051l0.161,0.087   c4.084,0.886,6.093,5.541,6.112,12.083c0.028,11.114-6.089,31.291-9.22,48.538c-2.619,14.462,5.671,20.212,16.774,13.804   c20.07-11.587,33.489-48.998,33.394-84.07c-0.079-26.675-15.77-37.597-44.197-21.189c-32.122,18.546-52.051,57.624-51.964,88.34   c0.032,10.63,2.765,16.538,7.034,19.858c1.981,1.552,2.229,2.434,1.532,5.927c-0.48,2.517-1.642,8.578-2.135,10.992   c-0.516,2.599-1.847,4.588-3.489,5.537c-0.555,0.315-1.158,0.516-1.772,0.583c-14.844,1.619-21.776-13.044-21.831-33.985   c-0.098-34.572,25.159-90.667,75.473-119.713c40.444-23.359,67.151-5.069,67.245,31c0.142,47.754-22.851,96.725-56.915,116.393   c-11.441,6.601-22.193,5.711-25.911-0.193c0,0-6.089,31.586-7.365,37.746c-2.198,10.634-6.573,22.567-10.567,32.185   c9.543-2.245,19.594-6.317,30.015-12.323c58.486-33.768,105.744-115.629,105.555-182.835   C385.843,137.035,338.278,109.93,279.792,143.691"/>
	<polyline style="fill:#FFFFFF;" points="278.103,235.473 278.075,235.524 278.012,235.63 278.441,235.666 278.264,235.563    278.103,235.473  "/>
</g>
<g style="enable-background:new    ;">
	<g>
		<path style="fill:#EACECE;" d="M268.394,329.468c0,0-6.089,31.586-7.365,37.746c-2.198,10.634-6.573,22.567-10.567,32.185    c0.583-0.138,1.185-0.347,1.772-0.496l39.129-67.765C281.068,335.994,271.793,334.86,268.394,329.468z"/>
		<path style="fill:#EACECE;" d="M382.102,173.985c-12.516-44.288-53.614-58.4-102.309-30.291    c-58.49,33.768-105.752,115.629-105.559,182.831c0.138,49.81,26.344,77.58,63.732,74.835c-0.331-8.287-0.11-18.672,1.737-28.999    c2.009-11.024,13.442-74.145,13.442-74.145s-3.415-5.837-3.45-17.313c-0.047-18.034,9.039-36.766,20.354-43.299    c3.226-1.863,5.896-2.469,8.027-2.076l0.028-0.051l0.161,0.087c4.084,0.886,6.093,5.541,6.112,12.083    c0.028,11.114-6.089,31.291-9.22,48.538c-2.619,14.462,5.671,20.212,16.774,13.804c20.07-11.587,33.489-48.998,33.394-84.07    c-0.079-26.675-15.77-37.597-44.197-21.189c-32.122,18.546-52.051,57.624-51.964,88.34c0.032,10.63,2.765,16.538,7.034,19.858    c1.981,1.552,2.229,2.434,1.532,5.927c-0.48,2.517-1.642,8.578-2.135,10.992c-0.516,2.599-1.847,4.588-3.489,5.537    c-0.555,0.315-1.158,0.516-1.772,0.583c-14.844,1.619-21.776-13.044-21.831-33.985c-0.098-34.572,25.159-90.667,75.473-119.713    c40.444-23.359,67.151-5.069,67.245,31c0.016,5.199-0.291,10.409-0.811,15.596L382.102,173.985z"/>
	</g>
	<polyline style="fill:#FFFFFF;" points="278.103,235.473 278.075,235.524 278.012,235.63 278.441,235.666 278.264,235.563    278.103,235.473  "/>
</g>
<g>
</g>
<g>
</g>
<g>
</g>
<g>
</g>
<g>
</g>
<g>
</g>
<g>
</g>
<g>
</g>
<g>
</g>
<g>
</g>
<g>
</g>
<g>
</g>
<g>
</g>
<g>
</g>
<g>
</g>
</svg>
