<?xml version="1.0" encoding="iso-8859-1"?>
<!-- Generator: Adobe Illustrator 19.0.0, SVG Export Plug-In . SVG Version: 6.00 Build 0)  -->
<svg xmlns="http://www.w3.org/2000/svg" xmlns:xlink="http://www.w3.org/1999/xlink" version="1.1" id="Capa_1" x="0px" y="0px" viewBox="0 0 504.119 504.119" style="enable-background:new 0 0 504.119 504.119;" xml:space="preserve">
<path style="fill:#084684;" d="M410.12,36.32L359.629,7.396c-2.209-1.607-4.576-2.97-7.093-4.064l-0.744-0.425L351.76,2.97  c-13.584-5.522-31.13-3.525-50.271,7.522l-155.518,89.777c-42.76,24.69-77.737,85.287-77.737,134.668v179.558  c0,24.08,8.361,41.157,21.847,49.538l-0.13,0.232l56.107,31.791l31.555-54.938l123.876-71.511  c42.752-24.69,77.745-85.287,77.745-134.668V90.092L410.12,36.32z"/>
<path style="fill:#033168;" d="M410.12,36.32l-54.048-12.674c-2.209-1.611-13.245-1.568-15.762-2.666l-4.005-1.607l-7.215-1.339  c-13.584-5.522-8.46-18.593-27.601-7.546l-155.518,89.781c-42.76,24.69-77.737,85.287-77.737,134.668v179.558  c0,24.08,8.361,41.157,21.847,49.538l-0.13,0.232l56.107,31.791l31.555-54.938l123.876-71.511  c42.752-24.69,77.745-85.287,77.745-134.668V90.092L410.12,36.32z"/>
<path style="fill:#022456;" d="M71.196,209.069c-1.887,8.787-2.962,17.495-2.962,25.868v179.558c0,24.08,8.361,41.157,21.847,49.538  l-0.13,0.232l56.107,31.791l31.555-54.938l123.876-71.511c7.263-4.194,14.285-9.496,20.96-15.537L71.196,209.069z"/>
<path style="fill:#033E93;" d="M199.42,131.261c-42.76,24.69-77.753,85.287-77.753,134.668v179.558  c0,49.38,34.993,69.577,77.753,44.891l155.506-89.781c42.76-24.69,77.753-85.287,77.753-134.668V86.374  c0-49.38-34.993-69.577-77.753-44.891L199.42,131.261z"/>
<path style="fill:#002F83;" d="M432.679,86.374c0-49.38-34.993-69.577-77.753-44.891L199.42,131.261  c-42.76,24.69-77.753,85.287-77.753,134.668v179.558c0,49.38,34.993,69.577,77.753,44.891"/>
<path style="fill:#1B53A5;" d="M164.88,504.119h-0.008c-28.192,0-46.407-23.016-46.407-58.632V265.929  c0-50.527,35.592-112.187,79.344-137.44l155.514-89.781c12.607-7.278,24.769-10.965,36.147-10.965  c28.191,0,46.415,23.016,46.415,58.632v179.558c0,50.527-35.6,112.187-79.352,137.44l-155.514,89.781  C188.412,500.429,176.258,504.119,164.88,504.119z M389.474,34.158c-10.24,0-21.323,3.399-32.937,10.098l-155.518,89.777  c-41.984,24.245-76.146,83.413-76.146,131.895v179.558c0,32.209,15.325,52.22,39.999,52.22h0.008  c10.24,0,21.315-3.403,32.929-10.102l155.514-89.777c41.984-24.241,76.146-83.413,76.146-131.895V86.374  C429.473,54.166,414.149,34.158,389.474,34.158z"/>
<g style="enable-background:new    ;">
	<path style="fill:#FFFFFF;" d="M307.625,153.974l-62.956,36.348c-6.782,3.915-12.477,12.768-13.529,21.087l-25.671,204.67   c-0.469,3.619,0.39,6.506,2.288,8.015c1.93,1.489,4.758,1.351,7.731-0.362l38.869-22.441c2.316-1.339,4.289-4.431,4.647-7.274   l9.224-73.586l0.059-0.256c0.299-2.548,2.076-5.333,4.198-6.558l18.456-10.658c43.618-25.186,69.671-63.716,77.458-114.609   c0.248-1.638,0.638-4.726,0.666-4.84c2.544-21.315-0.402-33.28-9.795-40.062C349.397,136.33,332.02,139.89,307.625,153.974"/>
</g>
<g>
</g>
<g>
</g>
<g>
</g>
<g>
</g>
<g>
</g>
<g>
</g>
<g>
</g>
<g>
</g>
<g>
</g>
<g>
</g>
<g>
</g>
<g>
</g>
<g>
</g>
<g>
</g>
<g>
</g>
</svg>
