<?xml version="1.0" encoding="iso-8859-1"?>
<!-- Generator: Adobe Illustrator 19.0.0, SVG Export Plug-In . SVG Version: 6.00 Build 0)  -->
<svg xmlns="http://www.w3.org/2000/svg" xmlns:xlink="http://www.w3.org/1999/xlink" version="1.1" id="Capa_1" x="0px" y="0px" viewBox="0 0 504.115 504.115" style="enable-background:new 0 0 504.115 504.115;" xml:space="preserve">
<path style="fill:#A9EAD1;" d="M410.122,36.321L359.631,7.393c-2.209-1.611-4.577-2.97-7.093-4.064l-0.744-0.421l-0.032,0.063  c-13.584-5.522-31.13-3.529-50.271,7.519l-155.518,89.777c-42.76,24.69-77.745,85.287-77.745,134.668v179.558  c0,24.08,8.361,41.157,21.847,49.534l-0.13,0.236l56.115,31.795l31.555-54.942l123.876-71.511  c42.752-24.69,77.745-85.291,77.745-134.668V90.088L410.122,36.321z"/>
<path style="fill:#95E5C8;" d="M410.122,36.321l-54.047-12.678c-2.209-1.607-13.245-1.568-15.762-2.67l-4.009-1.599l-7.211-1.343  c-13.584-5.522-8.46-18.593-27.601-7.546l-155.518,89.781c-42.76,24.69-77.745,85.287-77.745,134.668v179.558  c0,24.08,8.361,41.157,21.847,49.534l-0.13,0.236l56.115,31.795l31.555-54.942l123.876-71.511  c42.752-24.69,77.745-85.291,77.745-134.668V90.088L410.122,36.321z"/>
<path style="fill:#7ED1B5;" d="M71.19,209.065c-1.887,8.791-2.962,17.495-2.962,25.868v179.558c0,24.08,8.361,41.157,21.847,49.534  l-0.13,0.236l56.115,31.795l31.555-54.942l123.876-71.511c7.263-4.194,14.285-9.492,20.961-15.537L71.19,209.065z"/>
<path style="fill:#FFFFFF;" d="M199.423,131.257c-42.76,24.686-77.753,85.291-77.753,134.668v179.562  c0,49.377,34.993,69.577,77.753,44.883l155.506-89.777c42.76-24.686,77.753-85.287,77.753-134.668V86.367  c0-49.376-34.993-69.573-77.753-44.883L199.423,131.257z"/>
<path style="opacity:0.1;fill:#5BC0D8;enable-background:new    ;" d="M432.682,86.367c0-49.376-34.993-69.573-77.753-44.883  l-155.506,89.773c-42.76,24.686-77.753,85.291-77.753,134.668v179.562c0,49.377,34.993,69.577,77.753,44.883"/>
<path style="fill:#FFFFFF;" d="M164.882,504.115h-0.008c-28.192,0-46.407-23.012-46.407-58.628V265.925  c0-50.523,35.592-112.183,79.344-137.444l155.514-89.777c12.607-7.278,24.769-10.965,36.147-10.965  c28.191,0,46.415,23.016,46.415,58.628v179.562c0,50.527-35.6,112.183-79.352,137.444L201.021,493.15  C188.415,500.425,176.26,504.115,164.882,504.115z M389.477,34.15c-10.24,0-21.323,3.399-32.937,10.098l-155.518,89.785  c-41.984,24.241-76.146,83.409-76.146,131.891v179.562c0,32.209,15.325,52.216,39.999,52.216h0.008  c10.24,0,21.315-3.399,32.929-10.098l155.514-89.785c41.984-24.237,76.146-83.409,76.146-131.891V86.367  C429.476,54.158,414.151,34.15,389.477,34.15z"/>
<g style="enable-background:new    ;">
	<path style="fill:#95E5C8;" d="M258.212,247.757l29.385-28.294l-5.002-14.108c-2.036-5.707,1.197-15.017,7.137-20.76   c1.193-1.142,2.402-2.06,3.596-2.753c4.785-2.761,9.259-1.871,10.886,2.698l5.002,14.104l14.249-13.749   c1.201-1.142,2.41-2.064,3.604-2.749c4.773-2.753,9.224-1.855,10.847,2.71c2.04,5.707-1.162,15.002-7.164,20.748l-14.218,13.729   l9.559,27.045l14.261-13.722c1.205-1.154,2.43-2.083,3.639-2.784c4.762-2.753,9.216-1.855,10.811,2.71   c2.032,5.707-1.166,15.002-7.136,20.764l-14.253,13.718l5.006,14.108c2.032,5.699-1.166,14.994-7.168,20.74   c-1.138,1.13-2.273,2.005-3.415,2.662c-0.161,0.095-0.323,0.181-0.48,0.268c-4.679,2.591-8.988,1.627-10.559-2.855l-4.998-14.108   l-29.375,28.32l4.998,14.076c2.001,5.719-1.201,15.013-7.164,20.771c-1.209,1.158-2.438,2.091-3.623,2.773   c-0.095,0.059-0.185,0.106-0.272,0.158c-4.679,2.556-8.988,1.587-10.555-2.883l-4.998-14.112l-14.257,13.753   c-1.209,1.162-2.446,2.091-3.627,2.773c-0.091,0.051-0.185,0.102-0.268,0.15c-4.679,2.56-8.992,1.591-10.559-2.883   c-2.032-5.699,1.17-14.994,7.136-20.724l14.249-13.749l-9.567-27.045l-14.249,13.718c-1.209,1.158-2.442,2.083-3.651,2.784   c-0.095,0.055-0.193,0.11-0.28,0.158c-4.647,2.544-8.952,1.611-10.551-2.851c-2.005-5.723,1.193-15.013,7.164-20.775l14.257-13.714   l-5.002-14.115c-2.04-5.699,1.162-14.994,7.133-20.716c1.209-1.17,2.43-2.095,3.635-2.792c4.773-2.749,9.224-1.855,10.85,2.694   L258.212,247.757 M306.23,128.874c-14.671,8.468-31.74,21.984-51.83,40.527c-75.551,69.738-93.097,117.595-70.156,191.397   c16.841,54.209,39.026,69.341,79.525,45.958c14.663-8.46,31.724-21.977,51.807-40.511c75.587-69.758,93.129-117.618,70.183-191.417   C368.926,120.619,346.741,105.48,306.23,128.874"/>
	<g>
		<path style="fill:#7ED1B5;" d="M313.52,292.758l-1.729-4.884l-29.373,28.322l4.998,14.076c0.729,2.076,0.748,4.636,0.221,7.314    L313.52,292.758z"/>
		<path style="fill:#7ED1B5;" d="M306.23,128.874c-14.671,8.468-31.74,21.984-51.83,40.527    c-75.551,69.738-93.097,117.595-70.156,191.397c13.611,43.804,30.716,62.082,58.147,55.146l37.096-64.244    c-0.961,0.839-1.926,1.575-2.863,2.115c-0.095,0.059-0.185,0.106-0.272,0.158c-4.679,2.556-8.988,1.587-10.555-2.883    l-4.997-14.111l-14.257,13.753c-1.209,1.162-2.446,2.091-3.627,2.773c-0.091,0.051-0.185,0.102-0.268,0.15    c-4.679,2.56-8.992,1.591-10.559-2.883c-2.032-5.699,1.17-14.994,7.136-20.724l14.249-13.749l-9.567-27.045l-14.249,13.718    c-1.209,1.158-2.442,2.083-3.651,2.785c-0.095,0.055-0.193,0.11-0.28,0.158c-4.647,2.544-8.952,1.611-10.551-2.851    c-2.005-5.723,1.193-15.013,7.164-20.775l14.257-13.714l-5.002-14.115c-2.04-5.699,1.162-14.994,7.133-20.716    c1.209-1.17,2.43-2.095,3.635-2.792c4.773-2.749,9.224-1.855,10.85,2.694l4.994,14.115l29.385-28.294l-5.002-14.108    c-2.036-5.707,1.197-15.017,7.137-20.76c1.193-1.142,2.402-2.06,3.596-2.753c4.785-2.761,9.259-1.871,10.886,2.698l5.002,14.104    l14.249-13.749c1.201-1.142,2.41-2.064,3.604-2.749c4.773-2.753,9.224-1.855,10.847,2.71c2.04,5.707-1.162,15.002-7.164,20.748    l-14.218,13.729l9.559,27.045l14.261-13.722c1.205-1.154,2.43-2.083,3.639-2.784c2.399-1.39,4.718-1.843,6.636-1.375    l33.658-58.289C367.618,119.777,345.559,106.161,306.23,128.874z"/>
	</g>
	<polyline style="fill:#7ED1B5;" points="294.914,240.148 265.538,268.438 275.104,295.479 304.477,267.189 294.914,240.148  "/>
</g>
<g>
</g>
<g>
</g>
<g>
</g>
<g>
</g>
<g>
</g>
<g>
</g>
<g>
</g>
<g>
</g>
<g>
</g>
<g>
</g>
<g>
</g>
<g>
</g>
<g>
</g>
<g>
</g>
<g>
</g>
</svg>
