<?xml version="1.0" encoding="iso-8859-1"?>
<!-- Generator: Adobe Illustrator 19.0.0, SVG Export Plug-In . SVG Version: 6.00 Build 0)  -->
<svg xmlns="http://www.w3.org/2000/svg" xmlns:xlink="http://www.w3.org/1999/xlink" version="1.1" id="Capa_1" x="0px" y="0px" viewBox="0 0 504.119 504.119" style="enable-background:new 0 0 504.119 504.119;" xml:space="preserve">
<path style="fill:#1CC464;" d="M410.132,36.32L359.633,7.396c-2.213-1.611-4.577-2.97-7.089-4.068l-0.752-0.421L351.76,2.97  c-13.584-5.522-31.13-3.525-50.271,7.522l-155.506,89.773c-42.76,24.69-77.753,85.291-77.753,134.668v179.562  c0,24.076,8.369,41.153,21.855,49.534l-0.13,0.236l56.107,31.791l31.563-54.938l123.869-71.515  c42.76-24.686,77.749-85.287,77.749-134.668V90.088L410.132,36.32z"/>
<path style="fill:#15A054;" d="M410.132,36.32l-54.047-12.678c-2.213-1.607-13.253-1.568-15.762-2.666l-4.005-1.603l-7.215-1.339  c-13.584-5.522-8.468-18.593-27.609-7.546l-155.51,89.777c-42.76,24.69-77.753,85.291-77.753,134.668v179.562  c0,24.076,8.369,41.153,21.855,49.534l-0.13,0.236l56.107,31.791l31.563-54.938l123.869-71.515  c42.76-24.686,77.749-85.287,77.749-134.668V90.088L410.132,36.32z"/>
<path style="fill:#07875C;" d="M71.196,209.065c-1.887,8.791-2.966,17.499-2.966,25.868v179.562  c0,24.076,8.369,41.153,21.855,49.534l-0.13,0.236l56.107,31.791l31.563-54.938l123.869-71.515  c7.266-4.191,14.285-9.492,20.968-15.537L71.196,209.065z"/>
<path style="fill:#25D625;" d="M199.428,131.257c-42.756,24.69-77.749,85.291-77.749,134.668v179.562  c0,49.377,34.993,69.577,77.749,44.887l155.51-89.781c42.76-24.686,77.745-85.283,77.745-134.668V86.37  c0-49.38-34.985-69.573-77.745-44.887L199.428,131.257z"/>
<path style="fill:#1BBF1B;" d="M432.683,86.37c0-49.38-34.985-69.573-77.745-44.887l-155.51,89.773  c-42.756,24.69-77.749,85.291-77.749,134.668v179.562c0,49.377,34.993,69.577,77.749,44.887"/>
<path style="fill:#2AE82A;" d="M164.888,504.119L164.888,504.119c-28.199,0-46.419-23.016-46.419-58.632V265.925  c0-50.523,35.6-112.183,79.352-137.44l155.51-89.781c12.603-7.278,24.769-10.961,36.151-10.961  c28.191,0,46.407,23.016,46.407,58.628v179.558c0,50.53-35.592,112.187-79.352,137.444L201.031,493.15  C188.424,500.425,176.27,504.119,164.888,504.119z M389.486,34.154c-10.244,0-21.327,3.399-32.945,10.098l-155.51,89.781  c-41.984,24.241-76.146,83.409-76.146,131.891v179.562c0,32.209,15.325,52.216,39.999,52.216h0.004  c10.244,0,21.319-3.399,32.933-10.098l155.51-89.781c41.984-24.241,76.146-83.413,76.146-131.895V86.37  C429.481,54.162,414.153,34.154,389.486,34.154z"/>
<g style="enable-background:new    ;">
	<path style="fill:#D7FFA4;" d="M256.622,220.207c-20.76,12.024-41.531,24.009-62.287,36.001c-2.052,1.178-3.761,3.107-5.297,5.478   c-2.879,4.506-3.17,8.377-2.859,12.111c0.071,24.655,0.083,49.314,0.181,73.949c0.008,4.289,2.788,6.463,6.376,5.569   c1.205-0.315,2.402-0.977,3.639-1.686c14.119-8.121,28.231-16.234,42.346-24.383c-0.236,1.351-0.477,2.706-0.717,4.049   c-1.599,8.55-5.258,16.506-11.11,23.946c-3.186,4.049-6.731,6.936-10.252,9.968c-1.205,1.044-2.076,2.233-2.855,3.694   c-1.587,2.922-0.768,4.876-0.886,7.231c0.024,7.708,0.016,15.474,0.039,23.186c0.807,1.784,2.139,2.469,4.12,1.323   c0.244-0.138,0.5-0.307,0.76-0.504c3.131-2.328,6.231-4.671,9.295-7.377c7.156-6.384,13.489-14.131,19.346-22.709   c0.571-0.989,1.142-1.973,1.713-2.926c11.28-18.664,17.258-37.151,17.302-55.012c0.098-26.943-0.236-82.129-0.244-83.964   C265.208,217.222,262.132,217.025,256.622,220.207"/>
	<path style="fill:#EFFFD7;" d="M341.988,324.71c0.335,0.291,0.752,0.189,1.174-0.02   C342.741,324.899,342.323,325.002,341.988,324.71 M366.655,156.684c-20.649,11.953-41.263,23.82-61.909,35.773   c-1.56,0.902-3.041,2.135-4.387,3.919c-3.513,4.557-4.62,8.94-4.21,13.277l0.032,0.67c0.071,24.348,0.106,48.671,0.181,73.019   c0.012,6.191,3.671,8.338,8.991,5.368c1.418-0.815,2.867-1.65,4.273-2.465c13.036-7.491,26.096-15.029,39.129-22.524   c-1.04,7.459-3.277,14.781-7.778,22.26c-3.749,6.187-8.286,10.598-13.131,14.687c-3.82,3.206-4.99,5.372-4.978,8.936   c0.004,1.004,0.035,1.989,0.039,2.993c-0.016,4.651-0.035,9.267-0.083,13.895c0.043,2.58,0.083,5.124,0.114,7.664   c0.039,3.3,1.957,4.175,4.632,2.631c0.303-0.181,0.626-0.386,0.949-0.63c4.151-3.119,8.212-6.538,12.213-10.161l0.449-0.54   l0.811-0.744c0.48-0.555,0.933-1.122,1.41-1.65c19.204-20.299,32.205-50.349,32.134-74.346c-0.047-26.927-0.232-80.679-0.24-84.074   C375.272,157.314,372.126,153.521,366.655,156.684"/>
	<path style="fill:#D7FFA4;" d="M375.296,164.643c-0.024-7.326-3.17-11.118-8.641-7.96c-20.649,11.953-41.263,23.82-61.909,35.773   c-1.56,0.902-3.041,2.135-4.387,3.919c-3.513,4.557-4.62,8.94-4.21,13.277l0.032,0.67c0.071,24.348,0.106,48.671,0.181,73.019   c0.012,6.191,3.671,8.338,8.991,5.368c1.418-0.815,2.867-1.65,4.273-2.465c3.824-2.198,7.648-4.403,11.473-6.605l54.264-93.991   C375.327,174.277,375.3,165.915,375.296,164.643z"/>
</g>
<g>
</g>
<g>
</g>
<g>
</g>
<g>
</g>
<g>
</g>
<g>
</g>
<g>
</g>
<g>
</g>
<g>
</g>
<g>
</g>
<g>
</g>
<g>
</g>
<g>
</g>
<g>
</g>
<g>
</g>
</svg>
