<?xml version="1.0" encoding="iso-8859-1"?>
<!-- Generator: Adobe Illustrator 19.0.0, SVG Export Plug-In . SVG Version: 6.00 Build 0)  -->
<svg xmlns="http://www.w3.org/2000/svg" xmlns:xlink="http://www.w3.org/1999/xlink" version="1.1" id="Capa_1" x="0px" y="0px" viewBox="0 0 504.119 504.119" style="enable-background:new 0 0 504.119 504.119;" xml:space="preserve">
<path style="fill:#323738;" d="M410.12,36.32L359.629,7.396c-2.209-1.607-4.576-2.97-7.093-4.064l-0.744-0.425L351.76,2.97  c-13.584-5.522-31.13-3.525-50.271,7.522l-155.514,89.777c-42.76,24.69-77.745,85.287-77.745,134.668v179.558  c0,24.08,8.361,41.157,21.847,49.538l-0.13,0.232l56.115,31.791l31.555-54.938l123.876-71.511  c42.752-24.69,77.745-85.287,77.745-134.668V90.092L410.12,36.32z"/>
<path style="fill:#252B2D;" d="M410.12,36.32l-54.044-12.674c-2.209-1.611-13.245-1.568-15.762-2.666l-4.009-1.607l-7.215-1.339  c-13.584-5.522-8.46-18.593-27.601-7.546l-155.514,89.781c-42.76,24.69-77.745,85.287-77.745,134.668v179.558  c0,24.08,8.361,41.157,21.847,49.538l-0.13,0.232l56.115,31.791l31.555-54.938l123.876-71.511  c42.752-24.69,77.745-85.287,77.745-134.668V90.092L410.12,36.32z"/>
<path style="fill:#090C0C;" d="M71.192,209.069c-1.887,8.787-2.962,17.495-2.962,25.868v179.558c0,24.08,8.361,41.157,21.847,49.538  l-0.13,0.232l56.115,31.791l31.555-54.938l123.876-71.511c7.263-4.194,14.285-9.496,20.96-15.537L71.192,209.069z"/>
<path style="fill:#3B4142;" d="M199.42,131.261c-42.76,24.69-77.753,85.287-77.753,134.668v179.558  c0,49.38,34.993,69.577,77.753,44.891l155.506-89.781c42.76-24.69,77.753-85.287,77.753-134.668V86.374  c0-49.38-34.993-69.577-77.753-44.891L199.42,131.261z"/>
<path style="opacity:0.2;fill:#383E3F;enable-background:new    ;" d="M432.683,86.374c0-49.38-34.993-69.577-77.753-44.891  L199.42,131.26c-42.76,24.69-77.753,85.287-77.753,134.668v179.558c0,49.38,34.993,69.577,77.753,44.891"/>
<path style="fill:#4F5759;" d="M164.884,504.119h-0.008c-28.192,0-46.407-23.016-46.407-58.632V265.929  c0-50.527,35.592-112.187,79.344-137.44l155.514-89.781c12.607-7.278,24.769-10.965,36.147-10.965  c28.191,0,46.415,23.016,46.415,58.632v179.558c0,50.527-35.6,112.187-79.352,137.44l-155.514,89.781  C188.412,500.429,176.258,504.119,164.884,504.119z M389.474,34.158c-10.24,0-21.323,3.399-32.937,10.098l-155.514,89.777  c-41.984,24.245-76.146,83.413-76.146,131.895v179.558c0,32.209,15.325,52.22,39.999,52.22h0.008  c10.24,0,21.315-3.403,32.929-10.102l155.514-89.777c41.984-24.241,76.146-83.413,76.146-131.895V86.374  C429.473,54.166,414.153,34.158,389.474,34.158z"/>
<path style="fill:#D80B0B;" d="M268.713,262.569l0.13,46.655c0,0,39.329-22.753,55.339-32c-8.562,35.249-22,59.51-55.209,78.683  c-33.575,19.393-59.857,3.167-59.971-35.509c-0.106-38.656,25.994-85.122,59.573-104.507c17.782-10.264,29.243-9.673,39.794-5.77  c8.417-14.545,7.696-15.498,29.054-51.149c-18.243-8.554-42.453-6.223-68.986,9.094c-56.537,32.642-102.191,111.837-102.006,176.92  c0.189,65.083,46.143,91.388,102.676,58.746c84.527-48.805,104.925-145.404,97.918-197.919L268.713,262.569z"/>
<g>
	<path style="fill:#B20D0D;" d="M268.973,355.903c-33.575,19.393-59.857,3.167-59.971-35.509   c-0.106-38.656,25.994-85.122,59.573-104.507c17.782-10.264,29.243-9.673,39.794-5.77c8.417-14.545,7.696-15.498,29.054-51.149   c-18.243-8.554-42.453-6.223-68.986,9.094c-56.537,32.642-102.191,111.837-102.006,176.92   c0.161,54.693,32.638,81.983,76.552,69.939l39.022-67.584C278.024,350.302,273.719,353.162,268.973,355.903z"/>
	<path style="fill:#B20D0D;" d="M268.843,309.224c0,0,35.537-20.559,52.799-30.531l40.424-70.018l-93.353,53.894L268.843,309.224z"/>
</g>
<polygon style="fill:#D80B0B;" points="406.583,150.398 406.528,131.348 383.338,144.734 383.26,118.044 366.706,127.594   366.785,154.289 342.945,168.05 342.997,187.108 366.836,173.347 366.915,200.818 383.468,191.26 383.39,163.793 "/>
<g>
</g>
<g>
</g>
<g>
</g>
<g>
</g>
<g>
</g>
<g>
</g>
<g>
</g>
<g>
</g>
<g>
</g>
<g>
</g>
<g>
</g>
<g>
</g>
<g>
</g>
<g>
</g>
<g>
</g>
</svg>
