<?xml version="1.0" encoding="iso-8859-1"?>
<!-- Generator: Adobe Illustrator 19.0.0, SVG Export Plug-In . SVG Version: 6.00 Build 0)  -->
<svg xmlns="http://www.w3.org/2000/svg" xmlns:xlink="http://www.w3.org/1999/xlink" version="1.1" id="Capa_1" x="0px" y="0px" viewBox="0 0 504.119 504.119" style="enable-background:new 0 0 504.119 504.119;" xml:space="preserve">
<path style="fill:#40E269;" d="M410.124,36.32L359.633,7.396c-2.209-1.611-4.577-2.97-7.093-4.068l-0.744-0.421l-0.032,0.063  c-13.584-5.522-31.13-3.525-50.271,7.522l-155.518,89.773c-42.76,24.69-77.745,85.291-77.745,134.668v179.562  c0,24.076,8.361,41.153,21.847,49.534l-0.13,0.236l56.115,31.791l31.555-54.938l123.876-71.515  c42.752-24.686,77.745-85.287,77.745-134.668V90.088L410.124,36.32z"/>
<path style="fill:#46D16A;" d="M410.124,36.32l-54.047-12.678c-2.209-1.607-13.245-1.568-15.762-2.666l-4.005-1.603l-7.215-1.339  c-13.584-5.522-8.46-18.593-27.601-7.546l-155.518,89.777c-42.76,24.69-77.745,85.291-77.745,134.668v179.562  c0,24.076,8.361,41.153,21.847,49.534l-0.13,0.236l56.115,31.791l31.555-54.938l123.876-71.515  c42.752-24.686,77.745-85.287,77.745-134.668V90.088L410.124,36.32z"/>
<path style="fill:#23B579;" d="M71.192,209.065c-1.887,8.791-2.962,17.499-2.962,25.868v179.562  c0,24.076,8.361,41.153,21.847,49.534l-0.13,0.236l56.115,31.791l31.555-54.938l123.876-71.515  c7.263-4.191,14.285-9.492,20.961-15.533L71.192,209.065z"/>
<path style="fill:#FFFFFF;" d="M199.424,131.257c-42.76,24.69-77.753,85.291-77.753,134.668v179.562  c0,49.38,34.993,69.577,77.753,44.887l155.506-89.777c42.76-24.69,77.753-85.287,77.753-134.672V86.37  c0-49.38-34.993-69.573-77.753-44.887L199.424,131.257z"/>
<path style="opacity:0.1;fill:#5BC0D8;enable-background:new    ;" d="M432.683,86.37c0-49.38-34.993-69.573-77.753-44.887  l-155.506,89.773c-42.76,24.69-77.753,85.291-77.753,134.668v179.562c0,49.38,34.993,69.577,77.753,44.887"/>
<path style="fill:#FFFFFF;" d="M164.884,504.119h-0.008c-28.192,0-46.407-23.016-46.407-58.632V265.925  c0-50.523,35.592-112.183,79.344-137.44l155.514-89.781c12.607-7.278,24.769-10.961,36.147-10.961  c28.191,0,46.415,23.016,46.415,58.628v179.558c0,50.53-35.6,112.187-79.352,137.444l-155.514,89.781  C188.416,500.425,176.262,504.119,164.884,504.119z M389.478,34.154c-10.24,0-21.323,3.399-32.937,10.098l-155.518,89.781  c-41.984,24.245-76.146,83.409-76.146,131.891v179.562c0,32.209,15.325,52.216,39.999,52.216h0.008  c10.24,0,21.315-3.399,32.929-10.098l155.514-89.781c41.984-24.241,76.146-83.413,76.146-131.895V86.37  C429.477,54.162,414.153,34.154,389.478,34.154z"/>
<g style="enable-background:new    ;">
	<path style="fill:#40E269;" d="M222.109,172.816l-0.276,0.311l-43.492,75.142l-0.161,0.41c0.906-1.071,2.119-2.473,2.32-2.666   c3.785-4.175,8.377-7.912,13.922-11.106l22.473-12.981c1.284-0.74,2.336-2.548,2.328-4.025c0,0-0.339-22.059-0.354-28.243v-0.071   c-0.012-5.088,0.89-10.047,2.501-14.675L222.109,172.816"/>
	<path style="fill:#46D16A;" d="M314.569,243.46c0.768-7.924,3.391-18.542,12.556-23.84c0.189-0.11,0.382-0.217,0.575-0.323   c10.681-5.738,12.209,5.018,12.26,12.887c-4.506,0.303-10.086,2.048-16.132,5.266c-0.551,0.291-1.091,0.599-1.631,0.906   C319.543,239.896,316.983,241.621,314.569,243.46 M256.209,145.648c-6.798,3.927-12.509,7.975-14.986,10.22   c-4.352,3.911-9.181,9.574-11.878,15.612c-1.78,3.986-2.914,8.483-2.934,13.792c0.008,3.029,0.126,10.043,0.181,16.349   c0.083,6.254,0.201,11.867,0.201,11.906c0.016,5.632-3.958,12.512-8.858,15.344l-22.449,12.958   c-4.793,2.769-8.448,5.809-11.244,8.869c-2.804,3.096-4.789,6.227-6.305,9.433c-2.962,6.376-3.489,12.438-3.434,18.286   c0,0,0.047,4.762,1.087,13.422c0.831,6.715,7.696,52.854,14.163,64.378c2.485,4.478,4.147,6.006,9.027,5.797   c10.858-0.902,35.69-9.244,47.325-14.249c5.392-2.32,9.854-3.694,13.513-5.809c4.218-2.438,7.377-5.845,9.693-12.8   c0,0,0.839-3.092,2.013-7.586c3.749-15.352,4.226-27.333,4.198-35.761c0-0.433,0.284-0.823,0.567-0.985   c0.276-0.161,0.547-0.102,0.551,0.343c0.016,5.939-0.937,27.656,12.934,25.32c5.451-0.886,16.778-5.439,28.314-10.543   c10.413-4.612,17.967-4.265,18.054,26.569c0.047,18.723-3.363,23.257-21.173,33.548c-0.878,0.508-1.717,0.996-2.536,1.461   c-12.583,7.266-17.479,9.716-17.51-2.721c-0.024-8.858,6.25-13.257,12.284-16.742c1.264-0.733,2.525-1.418,3.71-2.107   c3.04-1.757,0.803-3.068,0.788-9.677c-0.024-6.554,3.549-12.434,0.169-10.602c-2.674,1.465-5.222,2.871-7.641,4.273   c-18.861,10.878-29.735,21.134-29.645,51.263c0.083,30.842,10.346,30.633,43.737,11.355c26.199-15.124,35.419-21.461,46.096-66.371   c2.143-8.901,7.247-35.194,10.279-76.158c1.89-25.911-2.182-98.41-5.27-115.495c-1.824-9.996-7.519-12.154-12.662-11.331   c-5.553,0.914-16.782,4.99-30.913,11.24c-7.436,3.277-15.722,7.755-22.815,11.851c-3.749,2.158-7.156,4.218-9.945,5.935   c-1-7.089-5.648-11.406-10.866-10.807C274.404,136.271,264.495,140.867,256.209,145.648"/>
	<g>
		<path style="fill:#23B579;" d="M275.952,357.825l14.013-24.265C283.03,339.558,278.244,346.848,275.952,357.825z"/>
		<path style="fill:#23B579;" d="M369.227,128.536c-1.824-9.996-7.519-12.154-12.662-11.331c-5.553,0.914-16.782,4.99-30.913,11.24    c-7.436,3.277-15.722,7.755-22.815,11.851c-3.749,2.158-7.156,4.218-9.945,5.935c-1-7.089-5.648-11.406-10.866-10.807    c-7.625,0.851-17.53,5.447-25.821,10.232c-6.798,3.927-12.509,7.975-14.986,10.22c-4.352,3.911-9.181,9.574-11.878,15.612    c-1.78,3.986-2.914,8.483-2.934,13.792c0.008,3.029,0.126,10.043,0.181,16.349c0.083,6.254,0.201,11.867,0.201,11.906    c0.016,5.632-3.958,12.512-8.858,15.344l-22.449,12.958c-4.793,2.769-8.448,5.809-11.244,8.869    c-2.804,3.096-4.789,6.227-6.305,9.433c-2.962,6.376-3.489,12.438-3.434,18.286c0,0,0.047,4.762,1.087,13.422    c0.831,6.715,7.696,52.854,14.163,64.378c2.485,4.478,4.147,6.006,9.027,5.797c10.858-0.902,35.69-9.244,47.325-14.249    c5.392-2.32,9.854-3.694,13.513-5.809c4.218-2.438,7.377-5.845,9.693-12.8c0,0,0.839-3.092,2.013-7.585    c3.749-15.352,4.226-27.333,4.198-35.761c0-0.433,0.284-0.823,0.567-0.985c0.276-0.161,0.547-0.102,0.551,0.343    c0.016,5.939-0.937,27.656,12.934,25.32c3.627-0.587,9.874-2.816,17.03-5.734l67.371-116.693    C372.819,162.769,370.881,137.692,369.227,128.536z M323.832,237.454c-0.551,0.291-1.091,0.599-1.631,0.906    c-2.658,1.536-5.215,3.257-7.633,5.1c0.768-7.924,3.391-18.542,12.556-23.84c0.189-0.11,0.382-0.217,0.575-0.323    c10.681-5.738,12.209,5.018,12.26,12.887C335.458,232.491,329.878,234.236,323.832,237.454z"/>
	</g>
</g>
<g>
</g>
<g>
</g>
<g>
</g>
<g>
</g>
<g>
</g>
<g>
</g>
<g>
</g>
<g>
</g>
<g>
</g>
<g>
</g>
<g>
</g>
<g>
</g>
<g>
</g>
<g>
</g>
<g>
</g>
</svg>
