<?xml version="1.0" encoding="iso-8859-1"?>
<!-- Generator: Adobe Illustrator 19.0.0, SVG Export Plug-In . SVG Version: 6.00 Build 0)  -->
<svg xmlns="http://www.w3.org/2000/svg" xmlns:xlink="http://www.w3.org/1999/xlink" version="1.1" id="Capa_1" x="0px" y="0px" viewBox="0 0 504.115 504.115" style="enable-background:new 0 0 504.115 504.115;" xml:space="preserve">
<path style="fill:#4028EA;" d="M410.122,36.321L359.631,7.393c-2.209-1.611-4.577-2.97-7.093-4.064l-0.744-0.421l-0.032,0.063  c-13.584-5.522-31.13-3.529-50.271,7.519l-155.518,89.777c-42.76,24.686-77.745,85.287-77.745,134.668v179.558  c0,24.08,8.361,41.157,21.847,49.534l-0.13,0.236l56.115,31.795l31.555-54.942l123.876-71.511  c42.752-24.69,77.745-85.291,77.745-134.668V90.088L410.122,36.321z"/>
<path style="fill:#1B1BB2;" d="M410.122,36.321l-54.047-12.678c-2.209-1.607-13.245-1.568-15.762-2.67l-4.009-1.599l-7.211-1.343  c-13.584-5.522-8.46-18.593-27.601-7.546l-155.518,89.781c-42.76,24.686-77.745,85.287-77.745,134.668v179.558  c0,24.08,8.361,41.157,21.847,49.534l-0.13,0.236l56.115,31.795l31.555-54.942l123.876-71.511  c42.752-24.69,77.745-85.291,77.745-134.668V90.088L410.122,36.321z"/>
<path style="fill:#0B0B84;" d="M71.19,209.065c-1.887,8.791-2.962,17.495-2.962,25.868v179.558c0,24.08,8.361,41.157,21.847,49.534  l-0.13,0.236l56.115,31.795l31.555-54.942l123.876-71.511c7.263-4.194,14.285-9.492,20.961-15.537L71.19,209.065z"/>
<path style="fill:#1E1EAF;" d="M199.423,131.257c-42.76,24.686-77.753,85.291-77.753,134.668v179.562  c0,49.377,34.993,69.577,77.753,44.883l155.506-89.777c42.76-24.686,77.753-85.287,77.753-134.668V86.367  c0-49.376-34.993-69.573-77.753-44.883L199.423,131.257z"/>
<path style="fill:#1919A5;" d="M432.682,86.367c0-49.376-34.993-69.573-77.753-44.883l-155.506,89.773  c-42.76,24.686-77.753,85.291-77.753,134.668v179.562c0,49.377,34.993,69.577,77.753,44.883"/>
<path style="fill:#0B0B84;" d="M164.882,504.115h-0.008c-28.192,0-46.407-23.012-46.407-58.628V265.925  c0-50.523,35.592-112.183,79.344-137.444l155.514-89.777c12.607-7.278,24.769-10.965,36.147-10.965  c28.191,0,46.415,23.016,46.415,58.628v179.562c0,50.527-35.6,112.183-79.352,137.444L201.021,493.15  C188.415,500.425,176.26,504.115,164.882,504.115z M389.477,34.15c-10.24,0-21.323,3.399-32.937,10.098l-155.518,89.785  c-41.984,24.241-76.146,83.409-76.146,131.891v179.562c0,32.209,15.325,52.216,39.999,52.216h0.008  c10.24,0,21.315-3.399,32.929-10.098l155.514-89.785c41.984-24.237,76.146-83.409,76.146-131.891V86.367  C429.476,54.158,414.151,34.15,389.477,34.15z"/>
<g style="enable-background:new    ;">
	<g>
		<polyline style="fill:#1083DD;" points="277.14,298.086 226.358,376.43 204.527,372.547 204.57,390.999 277.424,399.525     349.994,307.046 349.943,288.583 328.202,317.629 277.14,298.086   "/>
		<polyline style="fill:#1083DD;" points="203.664,277.54 153.599,353.04 226.326,366.025 276.971,287.598 203.664,277.54   "/>
	</g>
	<polyline style="fill:#38B4F9;" points="349.982,193.06 276.971,287.598 327.86,307.405 400.276,210.617 349.982,193.06  "/>
	<polyline style="fill:#1083DD;" points="327.289,104.594 276.672,182.965 349.982,193.06 400.008,117.543 327.289,104.594  "/>
	<polyline style="fill:#38B4F9;" points="225.747,163.214 153.335,259.966 203.664,277.54 276.672,182.965 225.747,163.214  "/>
</g>
<g>
</g>
<g>
</g>
<g>
</g>
<g>
</g>
<g>
</g>
<g>
</g>
<g>
</g>
<g>
</g>
<g>
</g>
<g>
</g>
<g>
</g>
<g>
</g>
<g>
</g>
<g>
</g>
<g>
</g>
</svg>
