<?xml version="1.0" encoding="iso-8859-1"?>
<!-- Generator: Adobe Illustrator 19.0.0, SVG Export Plug-In . SVG Version: 6.00 Build 0)  -->
<svg xmlns="http://www.w3.org/2000/svg" xmlns:xlink="http://www.w3.org/1999/xlink" version="1.1" id="Capa_1" x="0px" y="0px" viewBox="0 0 504.119 504.119" style="enable-background:new 0 0 504.119 504.119;" xml:space="preserve">
<path style="fill:#4028EA;" d="M410.124,36.321L359.633,7.393c-2.209-1.611-4.576-2.97-7.093-4.064l-0.744-0.421l-0.032,0.063  c-13.584-5.522-31.13-3.529-50.271,7.519l-155.518,89.777c-42.76,24.686-77.745,85.287-77.745,134.668v179.558  c0,24.08,8.361,41.157,21.847,49.534l-0.13,0.236l56.115,31.795l31.555-54.942l123.876-71.511  c42.752-24.69,77.745-85.291,77.745-134.668V90.088L410.124,36.321z"/>
<path style="fill:#1B1BB2;" d="M410.124,36.321l-54.048-12.678c-2.209-1.607-13.245-1.568-15.762-2.67l-4.005-1.599l-7.215-1.339  c-13.584-5.522-8.46-18.593-27.601-7.546l-155.518,89.777c-42.76,24.686-77.745,85.287-77.745,134.668v179.558  c0,24.08,8.361,41.157,21.847,49.534l-0.13,0.236l56.115,31.795l31.555-54.942l123.876-71.511  c42.752-24.69,77.745-85.291,77.745-134.668V90.088L410.124,36.321z"/>
<path style="fill:#0B0B84;" d="M71.192,209.065c-1.887,8.791-2.962,17.495-2.962,25.868v179.558c0,24.08,8.361,41.157,21.847,49.534  l-0.13,0.236l56.115,31.795l31.555-54.942l123.876-71.511c7.263-4.194,14.285-9.492,20.96-15.537L71.192,209.065z"/>
<path style="fill:#1E1EAF;" d="M199.425,131.261c-42.76,24.686-77.753,85.291-77.753,134.668v179.562  c0,49.377,34.993,69.577,77.753,44.883l155.506-89.777c42.76-24.686,77.753-85.287,77.753-134.668V86.367  c0-49.376-34.993-69.573-77.753-44.883L199.425,131.261z"/>
<path style="fill:#1919A5;" d="M432.684,86.367c0-49.376-34.993-69.573-77.753-44.883l-155.506,89.777  c-42.76,24.686-77.753,85.291-77.753,134.668v179.562c0,49.377,34.993,69.577,77.753,44.883"/>
<path style="fill:#0B0B84;" d="M164.884,504.119h-0.008c-28.192,0-46.407-23.012-46.407-58.628V265.929  c0-50.523,35.592-112.183,79.344-137.444l155.514-89.777c12.607-7.278,24.769-10.965,36.147-10.965  c28.191,0,46.415,23.016,46.415,58.628v179.562c0,50.527-35.6,112.183-79.352,137.444l-155.514,89.777  C188.417,500.429,176.262,504.119,164.884,504.119z M389.479,34.15c-10.24,0-21.323,3.399-32.937,10.098l-155.518,89.789  c-41.984,24.241-76.146,83.409-76.146,131.891V445.49c0,32.209,15.325,52.216,39.999,52.216h0.008  c10.24,0,21.315-3.399,32.929-10.098l155.514-89.785c41.984-24.237,76.146-83.409,76.146-131.891V86.367  C429.478,54.158,414.153,34.15,389.479,34.15z"/>
<g style="enable-background:new    ;">
	<g>
		<path style="fill:#47BBF4;" d="M191.981,370.716l-0.122-44.438l36.206-20.901c6.302-3.56,11.193-5.459,14.679-5.648    c6.274-0.386,9.389,3.769,9.417,12.469c0.024,10.268-3.159,18.987-9.586,26.384c-3.549,3.998-8.507,7.83-14.876,11.508    L191.981,370.716 M191.78,298.701l-0.102-36.746l32.02-18.491c6.999-4.037,12.808-6.498,17.353-7.424    c5.285-0.551,7.94,3.068,7.96,10.831c0.016,6.995-1.977,13.044-5.943,18.089c-4.005,5.065-9.173,9.429-15.537,13.103    L191.78,298.701 M233.323,208.908l-71.003,40.999l0.469,166.613l66.221-38.235c7.459-4.309,14.387-9.035,20.756-14.198    c6.361-5.218,11.914-11.177,16.581-17.963c4.143-5.963,7.621-12.331,10.342-19.094c4.38-10.386,6.534-20.5,6.506-30.366    c-0.028-9.586-1.953-16.656-5.809-21.106c-3.856-4.498-9.531-6.112-17.03-4.907c4.947-5.727,8.669-11.043,11.193-15.982    c4.521-8.802,6.79-18.294,6.758-28.479c-0.028-9.858-2.339-16.994-6.825-21.496C263.952,197.463,251.27,198.873,233.323,208.908"/>
		<polyline style="fill:#47BBF4;" points="377.293,133.604 314.309,169.968 314.365,190.673 377.352,154.309 377.293,133.604   "/>
	</g>
	<path style="fill:#81DFFC;" d="M321.871,250.77c1.036-8.617,3.549-16.471,7.542-23.469c4.001-7.007,9.657-12.623,16.947-16.825   c6.719-3.879,12.316-4.888,16.908-3.127c4.513,1.855,7.062,6.861,7.617,15.128L321.871,250.77 M346.242,183.934   c-15.9,9.184-28.833,22.355-38.798,39.519c-9.929,17.12-14.872,36.38-14.813,57.73c0.063,22.749,5.6,36.08,16.711,39.751   c11.075,3.73,23.867,1.406,38.325-6.94c17.518-10.118,31.153-23.985,40.83-41.563c6.246-11.177,9.74-20.645,10.492-28.373   l-29.026,16.766c-1.678,4.608-3.604,8.515-5.813,11.863c-4.037,6.101-9.314,11.004-15.754,14.722   c-6.124,3.533-11.366,5.022-15.707,4.407c-7.152-0.807-10.945-7.326-11.433-19.393l79.167-45.706   c0.114-10.724-0.228-18.747-1.02-23.914c-1.327-8.913-4.234-15.738-8.759-20.452c-4.955-5.486-11.197-7.956-18.806-7.404   C364.265,175.47,355.746,178.44,346.242,183.934"/>
	<path style="fill:#47BBF4;" d="M371.842,174.943c-7.578,0.528-16.096,3.497-25.6,8.988c-15.9,9.184-28.833,22.355-38.798,39.519   c-9.929,17.12-14.872,36.38-14.813,57.73c0.047,15.821,2.737,27.073,8.113,33.701l21.13-36.596c-0.295-1.796-0.528-3.71-0.614-5.86   l5.994-3.466l18.456-31.953l-23.843,13.765c1.036-8.617,3.549-16.471,7.542-23.469c4.001-7.007,9.657-12.623,16.947-16.825   c6.546-3.781,12.02-4.817,16.538-3.237l18.058-31.271C378.168,175.069,375.139,174.706,371.842,174.943z"/>
</g>
<g>
</g>
<g>
</g>
<g>
</g>
<g>
</g>
<g>
</g>
<g>
</g>
<g>
</g>
<g>
</g>
<g>
</g>
<g>
</g>
<g>
</g>
<g>
</g>
<g>
</g>
<g>
</g>
<g>
</g>
</svg>
