<svg xmlns="http://www.w3.org/2000/svg" viewBox="0 0 50 50"><path fill="#defbf9" d="M15.434 47.247c-.287 0-.562-.057-.821-.179-2.02-.95-1.567-5.187-.832-8.574.99-4.556 3.038-10.26 5.768-16.06 5.035-10.7 12.297-21.172 15.837-19.505 2.02.95 1.567 5.188.832 8.575-.99 4.556-3.038 10.26-5.767 16.06-2.103 4.468-4.433 8.615-6.74 11.995a52.378 52.378 0 0 1-1.58 2.193c-1.987 2.608-4.65 5.495-6.697 5.495zM34.557 3.828c-.96 0-2.789 1.188-5.462 4.59-2.831 3.605-5.875 8.745-8.571 14.474-2.697 5.73-4.717 11.351-5.69 15.83-1.055 4.857-.569 6.992.238 7.372.853.402 2.93-.7 6.203-4.995a50.814 50.814 0 0 0 1.546-2.148c2.275-3.333 4.577-7.429 6.655-11.846 2.696-5.729 4.717-11.35 5.69-15.83 1.054-4.856.568-6.992-.239-7.372a.863.863 0 0 0-.37-.075z" class="colordedffb svgShape"/><path fill="#defbf9" d="M34.84 47.115c-1.946 0-4.469-2.576-6.359-4.916-2.93-3.627-6.089-8.799-8.897-14.562-5.179-10.63-8.785-22.852-5.268-24.566 2.917-1.42 8.305 5.443 12.376 12.341a99.301 99.301 0 0 1 3.724 6.948c1.963 4.03 3.621 8.088 4.795 11.734.44 1.367.81 2.671 1.101 3.878.374 1.551.617 2.942.722 4.134.234 2.648-.22 4.27-1.351 4.82a1.9 1.9 0 0 1-.844.19zM15.183 3.955a.895.895 0 0 0-.396.085c-.801.39-1.258 2.532-.138 7.374 1.033 4.465 3.13 10.06 5.903 15.752 2.773 5.692 5.886 10.79 8.766 14.356 3.122 3.866 5.09 4.827 5.892 4.436.66-.32.933-1.69.75-3.757-.1-1.14-.335-2.477-.696-3.977a53.134 53.134 0 0 0-1.08-3.8c-1.157-3.598-2.796-7.607-4.737-11.592a98.362 98.362 0 0 0-3.684-6.873c-4.741-8.035-8.812-12.004-10.58-12.004z" class="colordedffb svgShape"/><path fill="#defbf9" d="M11.001 32.51c-4.147 0-9.499-.492-9.969-2.983-.415-2.194 3.283-4.312 6.458-5.702 4.27-1.87 10.092-3.555 16.391-4.745 6.3-1.19 12.335-1.744 16.993-1.561 3.464.136 7.68.76 8.094 2.953.23 1.216-.765 2.527-2.956 3.898l-.57-.913c1.701-1.065 2.6-2.08 2.467-2.785-.165-.876-2.111-1.881-7.077-2.077-4.579-.18-10.529.368-16.75 1.543-6.223 1.175-11.961 2.835-16.16 4.674-4.552 1.993-5.997 3.64-5.832 4.515.241 1.276 4.118 2.452 12.061 2.017l.059 1.075c-.859.047-1.981.09-3.209.09z" class="colordedffb svgShape"/><path fill="#defbf9" d="m14.21 32.42-.059-1.076c3.607-.198 7.676-.71 11.767-1.484 5.547-1.047 10.831-2.517 14.878-4.137l.4 1c-4.11 1.645-9.465 3.135-15.078 4.196-4.137.781-8.254 1.3-11.908 1.5z" class="colordedffb svgShape"/><path fill="#defbf9" d="M43.224 38.161c-2.922 0-7.133-1.425-9.957-2.53l.392-1.002c7.179 2.807 11.037 2.914 11.675 1.775.436-.777-.409-2.798-4.088-6.139-3.393-3.08-8.304-6.483-13.826-9.58-5.523-3.098-10.987-5.513-15.385-6.802-4.77-1.398-6.935-1.065-7.37-.287-.316.56.09 1.654 1.113 2.999.608.799 1.426 1.686 2.433 2.637l-.74.783c-1.049-.991-1.907-1.923-2.55-2.768-1.352-1.778-1.754-3.183-1.196-4.178 1.914-3.413 13.908.892 24.221 6.676 5.592 3.136 10.572 6.589 14.024 9.723 2.566 2.33 5.396 5.516 4.304 7.463-.498.888-1.62 1.23-3.05 1.23z" class="colordedffb svgShape"/><path fill="#defbf9" d="M33.267 35.632c-3.512-1.373-7.39-3.233-11.214-5.378-5.857-3.285-11.172-7.017-14.582-10.24l.74-.782c3.348 3.164 8.585 6.84 14.369 10.082 3.782 2.122 7.613 3.96 11.08 5.315l-.393 1.003z" class="colordedffb svgShape"/><path fill="#56f9ec" d="M47.112 24.057a.268.268 0 0 1 0 .08c.018.18.013.363-.018.533a2.387 2.387 0 0 1-2.114 1.995 2.383 2.383 0 0 1-2.6-2.133c-.058-.58.1-1.136.404-1.578.096-.152.217-.291.355-.416a2.302 2.302 0 0 1 1.365-.62 2.391 2.391 0 0 1 2.608 2.14z" class="color566df9 svgShape"/><path fill="#41e1d4" d="M47.112 24.057a.268.268 0 0 1 0 .08c.018.18.013.363-.018.533a2.374 2.374 0 0 1-1.735 1.037 2.383 2.383 0 0 1-2.6-2.132c-.02-.212-.01-.42.025-.621.096-.152.217-.291.355-.416a2.302 2.302 0 0 1 1.365-.62 2.391 2.391 0 0 1 2.608 2.14z" class="color678aee svgShape"/><path fill="#8ffef5" d="M47.112 24.057a.268.268 0 0 1 0 .08 2.358 2.358 0 0 1-1.372.62 2.383 2.383 0 0 1-2.6-2.132.323.323 0 0 1 0-.087 2.302 2.302 0 0 1 1.364-.62 2.391 2.391 0 0 1 2.608 2.14z" class="color8fabfe svgShape"/><path fill="#5ec3bb" d="M30.971 9.282a.268.268 0 0 1 0 .079c.019.18.013.363-.017.533a2.387 2.387 0 0 1-2.115 1.995 2.383 2.383 0 0 1-2.6-2.133c-.058-.58.1-1.135.405-1.578.096-.152.217-.291.355-.416a2.302 2.302 0 0 1 1.364-.62 2.391 2.391 0 0 1 2.608 2.14z" class="color5ec363 svgShape"/><path fill="#61d5cc" d="M30.971 9.282a.268.268 0 0 1 0 .079c.019.18.013.363-.017.533a2.374 2.374 0 0 1-1.735 1.038 2.383 2.383 0 0 1-2.6-2.133c-.021-.212-.01-.42.025-.621.096-.152.217-.291.355-.416a2.302 2.302 0 0 1 1.364-.62 2.391 2.391 0 0 1 2.608 2.14z" class="color72d561 svgShape"/><path fill="#5ae7dc" d="M30.971 9.282a.268.268 0 0 1 0 .079 2.358 2.358 0 0 1-1.372.621A2.383 2.383 0 0 1 27 7.849a.323.323 0 0 1 0-.087 2.302 2.302 0 0 1 1.364-.62 2.391 2.391 0 0 1 2.608 2.14z" class="color78e75a svgShape"/><path fill="#32dfd1" d="M8.347 17.004c.002.023.005.055 0 .079.018.18.012.363-.018.533a2.387 2.387 0 0 1-2.115 1.995 2.383 2.383 0 0 1-2.6-2.133c-.057-.58.1-1.135.405-1.578.096-.152.217-.291.355-.416a2.302 2.302 0 0 1 1.364-.62 2.391 2.391 0 0 1 2.609 2.14z" class="colordf3260 svgShape"/><path fill="#35e9da" d="M8.347 17.004c.002.023.005.055 0 .079.018.18.012.363-.018.533a2.374 2.374 0 0 1-1.735 1.038 2.383 2.383 0 0 1-2.6-2.133c-.02-.212-.01-.42.025-.62.096-.153.217-.292.355-.417a2.302 2.302 0 0 1 1.364-.62 2.391 2.391 0 0 1 2.609 2.14z" class="colore93565 svgShape"/><path fill="#51f4e7" d="M8.347 17.004c.002.023.005.055 0 .079a2.358 2.358 0 0 1-1.373.621 2.383 2.383 0 0 1-2.6-2.133c-.002-.031-.005-.055 0-.087a2.302 2.302 0 0 1 1.364-.62 2.391 2.391 0 0 1 2.609 2.14z" class="colorf45170 svgShape"/><path fill="#5ec3bb" d="M23.69 41.726a.268.268 0 0 1 0 .08c.018.18.012.363-.018.533a2.387 2.387 0 0 1-2.115 1.995 2.383 2.383 0 0 1-2.6-2.133c-.057-.58.1-1.135.405-1.578.096-.152.217-.291.355-.416a2.302 2.302 0 0 1 1.364-.62 2.391 2.391 0 0 1 2.609 2.14z" class="color5ec363 svgShape"/><path fill="#61d5cc" d="M23.69 41.726a.268.268 0 0 1 0 .08c.018.18.012.363-.018.533a2.374 2.374 0 0 1-1.735 1.037 2.383 2.383 0 0 1-2.6-2.132c-.02-.212-.01-.42.025-.621.096-.152.217-.291.355-.416a2.302 2.302 0 0 1 1.364-.62 2.391 2.391 0 0 1 2.609 2.14z" class="color72d561 svgShape"/><path fill="#5ae7dc" d="M23.69 41.726a.268.268 0 0 1 0 .08 2.358 2.358 0 0 1-1.373.62 2.383 2.383 0 0 1-2.6-2.132.323.323 0 0 1 0-.087 2.302 2.302 0 0 1 1.364-.62 2.391 2.391 0 0 1 2.609 2.14z" class="color78e75a svgShape"/><path fill="#32dfd1" d="M38.674 41.04c.002.024.005.055 0 .08.018.18.013.363-.018.532a2.387 2.387 0 0 1-2.114 1.996 2.383 2.383 0 0 1-2.6-2.133c-.058-.581.1-1.136.405-1.579.095-.152.216-.29.354-.416a2.302 2.302 0 0 1 1.365-.62 2.391 2.391 0 0 1 2.608 2.14z" class="colordf3260 svgShape"/><path fill="#35e9da" d="M38.674 41.04c.002.024.005.055 0 .08.018.18.013.363-.018.532a2.374 2.374 0 0 1-1.735 1.038 2.383 2.383 0 0 1-2.6-2.133c-.02-.212-.01-.419.026-.62.095-.153.216-.292.354-.417a2.302 2.302 0 0 1 1.365-.62 2.391 2.391 0 0 1 2.608 2.14z" class="colore93565 svgShape"/><path fill="#51f4e7" d="M38.674 41.04c.002.024.005.055 0 .08a2.358 2.358 0 0 1-1.372.62 2.383 2.383 0 0 1-2.6-2.132.323.323 0 0 1 0-.088 2.302 2.302 0 0 1 1.364-.62 2.391 2.391 0 0 1 2.608 2.14z" class="colorf45170 svgShape"/><path fill="#defbf9" d="M40.996 26.762a.539.539 0 0 1-.2-1.039c.725-.29 1.413-.586 2.044-.88a.539.539 0 0 1 .454.976c-.648.302-1.354.606-2.098.904a.535.535 0 0 1-.2.039zM22.114 41.416a.538.538 0 0 1-.433-.858 53.79 53.79 0 0 0 1.14-1.607.538.538 0 1 1 .89.608c-.391.571-.782 1.123-1.163 1.638a.537.537 0 0 1-.434.219zM36.241 40.796a.539.539 0 0 1-.53-.446 34.69 34.69 0 0 0-.446-2.126.539.539 0 0 1 1.047-.252c.185.767.34 1.505.46 2.192a.539.539 0 0 1-.53.632zM7.84 20.162a.536.536 0 0 1-.37-.147 27.22 27.22 0 0 1-1.88-1.947.539.539 0 0 1 .815-.704 26.133 26.133 0 0 0 1.806 1.868.539.539 0 0 1-.37.93z" class="colordedffb svgShape"/><path fill="#5af2e6" d="M12.855 25.565c0 .044 0 .103.014.147 0 .343.046.684.135.996a4.494 4.494 0 0 0 4.338 3.343c2.467 0 4.472-2.021 4.472-4.486 0-1.101-.4-2.11-1.055-2.883a3.768 3.768 0 0 0-.742-.714 4.343 4.343 0 0 0-2.985-.894c-2.22.152-3.993 1.937-4.161 4.143a3.78 3.78 0 0 0-.016.348z" class="color7e5af2 svgShape"/><path fill="#6ff9ee" d="M12.87 25.217c.01.253.05.5.114.732a3.89 3.89 0 0 0 3.755 2.893c2.134 0 3.87-1.749 3.87-3.883a3.86 3.86 0 0 0-.913-2.496 3.26 3.26 0 0 0-.642-.616 3.745 3.745 0 0 0-2.022-.773c-2.22.152-3.993 1.937-4.161 4.143z" class="color986ff9 svgShape"/><path fill="#8afdf4" d="M14.695 25.658c.614.435 1.537.186 2.058-.554.523-.74.45-1.69-.166-2.126-.615-.433-1.536-.186-2.059.555-.523.74-.447 1.691.167 2.125z" class="colorb28afd svgShape"/><path fill="#5af2e6" d="M18.783 21.07c0 .044 0 .103.013.147 0 .343.046.685.135.996a4.494 4.494 0 0 0 4.338 3.343c2.467 0 4.472-2.02 4.472-4.486 0-1.1-.4-2.11-1.055-2.883a3.768 3.768 0 0 0-.742-.714 4.343 4.343 0 0 0-2.985-.894c-2.22.152-3.993 1.937-4.161 4.143a3.78 3.78 0 0 0-.015.348z" class="color7e5af2 svgShape"/><path fill="#6ff9ee" d="M18.798 20.722c.009.254.048.501.114.732a3.89 3.89 0 0 0 3.754 2.894c2.135 0 3.87-1.75 3.87-3.884a3.86 3.86 0 0 0-.913-2.496 3.26 3.26 0 0 0-.642-.616 3.745 3.745 0 0 0-2.022-.773c-2.22.152-3.993 1.937-4.161 4.143z" class="color986ff9 svgShape"/><path fill="#8afdf4" d="M20.622 21.163c.614.436 1.537.187 2.058-.553.523-.74.45-1.691-.166-2.126-.615-.434-1.535-.187-2.058.555-.524.74-.448 1.69.166 2.124z" class="colorb28afd svgShape"/><path fill="#5af2e6" d="M19.188 26.748c0 .044 0 .103.014.147 0 .343.045.685.135.996a4.494 4.494 0 0 0 4.337 3.343c2.467 0 4.473-2.02 4.473-4.486 0-1.101-.401-2.11-1.055-2.883a3.768 3.768 0 0 0-.743-.714 4.343 4.343 0 0 0-2.984-.894c-2.22.152-3.993 1.937-4.162 4.143a3.78 3.78 0 0 0-.015.348z" class="color7e5af2 svgShape"/><path fill="#6ff9ee" d="M19.203 26.4c.01.253.049.5.114.732a3.89 3.89 0 0 0 3.755 2.893c2.134 0 3.87-1.749 3.87-3.883a3.86 3.86 0 0 0-.913-2.496 3.26 3.26 0 0 0-.642-.616 3.745 3.745 0 0 0-2.022-.773c-2.22.152-3.993 1.937-4.162 4.143z" class="color986ff9 svgShape"/><path fill="#8afdf4" d="M21.028 26.84c.614.436 1.537.187 2.058-.553.523-.74.45-1.69-.167-2.126-.614-.433-1.535-.186-2.058.555-.523.74-.448 1.691.167 2.125z" class="colorb28afd svgShape"/><path fill="#5af2e6" d="M17.089 32.3c0 .044 0 .104.013.148 0 .343.046.684.136.996a4.494 4.494 0 0 0 4.337 3.343c2.467 0 4.473-2.021 4.473-4.487 0-1.1-.401-2.11-1.056-2.883a3.768 3.768 0 0 0-.742-.713 4.343 4.343 0 0 0-2.985-.894c-2.22.151-3.992 1.937-4.161 4.143a3.78 3.78 0 0 0-.015.347z" class="color7e5af2 svgShape"/><path fill="#6ff9ee" d="M17.104 31.953c.01.253.049.5.114.731a3.89 3.89 0 0 0 3.754 2.894c2.135 0 3.87-1.749 3.87-3.883a3.86 3.86 0 0 0-.912-2.496 3.26 3.26 0 0 0-.643-.617 3.745 3.745 0 0 0-2.022-.772c-2.22.151-3.992 1.937-4.161 4.143z" class="color986ff9 svgShape"/><path fill="#8afdf4" d="M18.928 32.394c.615.435 1.537.186 2.058-.554.524-.74.45-1.69-.166-2.126-.614-.434-1.535-.186-2.058.555-.523.74-.448 1.691.166 2.125z" class="colorb28afd svgShape"/><path fill="#5af2e6" d="M24.842 30.644c0 .044 0 .103.014.147 0 .343.045.685.135.996a4.494 4.494 0 0 0 4.337 3.343c2.467 0 4.473-2.02 4.473-4.486 0-1.1-.401-2.11-1.055-2.883a3.768 3.768 0 0 0-.743-.714 4.343 4.343 0 0 0-2.984-.894c-2.22.152-3.993 1.937-4.162 4.143a3.78 3.78 0 0 0-.015.348z" class="color7e5af2 svgShape"/><path fill="#6ff9ee" d="M24.857 30.296c.01.254.049.501.114.732a3.89 3.89 0 0 0 3.755 2.894c2.134 0 3.87-1.75 3.87-3.884a3.86 3.86 0 0 0-.913-2.496 3.26 3.26 0 0 0-.642-.616 3.745 3.745 0 0 0-2.022-.773c-2.22.152-3.993 1.937-4.162 4.143z" class="color986ff9 svgShape"/><path fill="#8afdf4" d="M26.682 30.737c.614.436 1.537.187 2.058-.553.523-.74.45-1.691-.167-2.126-.614-.434-1.535-.187-2.058.555-.523.74-.448 1.69.167 2.124z" class="colorb28afd svgShape"/><path fill="#5af2e6" d="M23.969 22.773c0 .044 0 .103.013.147 0 .343.046.685.135.996a4.494 4.494 0 0 0 4.338 3.343c2.467 0 4.472-2.02 4.472-4.486 0-1.1-.4-2.11-1.055-2.883a3.768 3.768 0 0 0-.742-.714 4.343 4.343 0 0 0-2.985-.894c-2.22.152-3.993 1.937-4.161 4.143a3.78 3.78 0 0 0-.015.348z" class="color7e5af2 svgShape"/><path fill="#6ff9ee" d="M23.984 22.425c.009.254.048.501.114.732a3.89 3.89 0 0 0 3.754 2.894c2.135 0 3.87-1.75 3.87-3.884a3.86 3.86 0 0 0-.913-2.496 3.26 3.26 0 0 0-.642-.616 3.745 3.745 0 0 0-2.022-.773c-2.22.152-3.993 1.937-4.161 4.143z" class="color986ff9 svgShape"/><path fill="#8afdf4" d="M25.808 22.866c.615.436 1.537.187 2.058-.553.523-.74.45-1.691-.166-2.126-.615-.434-1.535-.187-2.058.555-.523.74-.448 1.69.166 2.124z" class="colorb28afd svgShape"/><path fill="#defbf9" d="M14.18 32.42a.539.539 0 0 1-.029-1.076c3.607-.198 7.676-.71 11.767-1.484 5.547-1.047 10.831-2.517 14.878-4.137a.538.538 0 1 1 .4 1c-4.11 1.645-9.465 3.135-15.078 4.196-4.137.781-8.254 1.3-11.908 1.5l-.03.001z" class="colordedffb svgShape"/><path fill="#defbf9" d="M33.463 35.669a.54.54 0 0 1-.196-.037c-3.512-1.373-7.39-3.233-11.214-5.378-5.857-3.285-11.172-7.017-14.582-10.24a.538.538 0 1 1 .74-.782c3.348 3.164 8.585 6.84 14.369 10.082 3.782 2.122 7.613 3.96 11.08 5.315a.539.539 0 0 1-.197 1.04zM34.698 34.798a.54.54 0 0 1-.512-.373c-1.158-3.6-2.797-7.608-4.739-11.593a98.282 98.282 0 0 0-3.683-6.873.538.538 0 1 1 .928-.547 99.301 99.301 0 0 1 3.724 6.948c1.963 4.03 3.621 8.088 4.795 11.734a.539.539 0 0 1-.513.704z" class="colordedffb svgShape"/></svg>