<svg xmlns="http://www.w3.org/2000/svg" viewBox="0 0 51 51"><path fill="#18d6c7" d="m24.142 49.142-3.202-1.861-.024-8.69 3.202 1.861z" class="colord6b218 svgShape"/><path fill="#7ce8df" d="m37.776 16.797-3.202-1.861 7.566-4.368 3.202 1.861z" class="color7ccfe8 svgShape"/><path fill="#1ac6b8" d="m27.105 28.028 5.74 7.385-2.694 1.555.025 8.69-6.034 3.484-.024-8.69-2.692 1.554z" class="colorc6a51a svgShape"/><path fill="#0ff1df" d="m21.426 42.006-3.202-1.861 5.68-13.978 3.201 1.861z" class="colorf1c40f svgShape"/><path fill="#84fff5" d="m28.494 25.624-3.202-1.861 9.274-11.925 3.202 1.86z" class="color84dbff svgShape"/><path fill="#41e1d4" d="m37.768 13.698.008 3.099 7.566-4.368.019 6.93-7.562 4.366.008 3.093-9.313-1.194z" class="color77c6d8 svgShape"/><path fill="#2ebfb3" d="M16.434 39.158 12 36.581l-.009-3.096 4.435 2.577z" class="color2ebf69 svgShape"/><path fill="#44ccc1" d="m30.082 12.406-4.435-2.577 2.694-1.555 4.435 2.576z" class="colorcc4444 svgShape"/><path fill="#2eccbf" d="m16.394 26.038-3.201-1.861 9.313 1.194 3.202 1.861z" class="color2ecc71 svgShape"/><path fill="#2ebfb3" d="m16.403 29.134-3.202-1.861-.008-3.096 3.201 1.861z" class="color2ebf69 svgShape"/><path fill="#44ccc1" d="m21.357 17.446-3.202-1.86 2.694-1.556 3.202 1.861z" class="colorcc4444 svgShape"/><path fill="#3fd8cc" d="m27.096 24.828-3.202-1.861-5.739-7.381 3.202 1.86z" class="colord8463f svgShape"/><path fill="#32a59c" d="m16.394 26.038 9.314 1.194-9.274 11.926-.008-3.096L8.86 40.43l-.019-6.93 7.562-4.366z" class="color32a560 svgShape"/><path fill="#2ebfb3" d="m8.86 40.43-3.202-1.861-.019-6.93L8.841 33.5z" class="color2ebf69 svgShape"/><path fill="#30b2a7" d="m8.841 33.5-3.202-1.861 7.562-4.366 3.202 1.861z" class="color30b265 svgShape"/><path fill="#3fd8cc" d="m24.051 15.891-3.202-1.861-.025-8.69 3.202 1.861z" class="colord8463f svgShape"/><path fill="#42c1b7" d="m30.057 3.719.025 8.687 2.694-1.556-5.68 13.978-5.739-7.382 2.694-1.555-.025-8.69z" class="colorc14242 svgShape"/><path fill="#3ce7d9" d="M24.026 7.201 20.824 5.34l6.031-3.482 3.202 1.861z" class="colore74c3c svgShape"/></svg>