<svg xmlns="http://www.w3.org/2000/svg" enable-background="new 0 0 52 52" viewBox="0 0 52 52"><path fill="#1d4340" d="M21.3,48.2v0.6c0,0.3-0.2,0.6-0.6,0.8c-0.8,0.4-2,0.4-2.7,0c-0.4-0.2-0.6-0.5-0.6-0.8v-0.6
									c0-0.3,0.2-0.6,0.6-0.8c0.8-0.4,2-0.4,2.7,0C21.2,47.7,21.3,48,21.3,48.2z" class="color1d2943 svgShape"/><path fill="#1d4340" d="M21.3,48.2l0,0.6c0,0.3-0.2,0.6-0.6,0.8c-0.8,0.4-2,0.4-2.7,0c-0.4-0.2-0.6-0.5-0.6-0.8l0-0.6
									c0,0.3,0.2,0.6,0.6,0.8c0.8,0.4,2,0.4,2.7,0C21.2,48.8,21.3,48.5,21.3,48.2z" class="color1d2943 svgShape"/><path fill="#4c7572" d="M20.8,47.4c0.8,0.4,0.8,1.2,0,1.6c-0.8,0.4-2,0.4-2.7,0c-0.8-0.4-0.8-1.2,0-1.6
									C18.8,47,20,47,20.8,47.4z" class="color4c5c75 svgShape"/><path fill="#f1fcfb" d="M20.3,42.1l0,6.1c0,0.1-0.1,0.3-0.3,0.4c-0.4,0.2-1,0.2-1.3,0c-0.2-0.1-0.3-0.2-0.3-0.4l0-6.1
							c0,0.1,0.1,0.3,0.3,0.4c0.4,0.2,1,0.2,1.3,0C20.3,42.4,20.3,42.2,20.3,42.1z" class="colorf3f1fc svgShape"/><path fill="#1d4340" d="M46.2,33.8v0.6c0,0.3-0.2,0.6-0.6,0.8c-0.8,0.4-2,0.4-2.8,0c-0.4-0.2-0.6-0.5-0.6-0.8v-0.7
									c0-0.3,0.2-0.6,0.6-0.8c0.8-0.4,2-0.4,2.8,0C46,33.2,46.2,33.5,46.2,33.8z" class="color1d2943 svgShape"/><path fill="#1d4340" d="M46.2,33.8v0.6c0,0.3-0.2,0.6-0.6,0.8c-0.8,0.4-2,0.4-2.7,0c-0.4-0.2-0.6-0.5-0.6-0.8l0-0.6
									c0,0.3,0.2,0.6,0.6,0.8c0.8,0.4,2,0.4,2.7,0C46,34.4,46.2,34.1,46.2,33.8z" class="color1d2943 svgShape"/><path fill="#4c7572" d="M45.6,33c0.8,0.4,0.8,1.2,0,1.6c-0.8,0.4-2,0.4-2.7,0c-0.8-0.4-0.8-1.2,0-1.6
									C43.7,32.6,44.9,32.6,45.6,33z" class="color4c5c75 svgShape"/><path fill="#f1fcfb" d="M45.2,27.7l0,6.1c0,0.1-0.1,0.3-0.3,0.4c-0.4,0.2-1,0.2-1.3,0c-0.2-0.1-0.3-0.2-0.3-0.4l0-6.1
							c0,0.1,0.1,0.3,0.3,0.4c0.4,0.2,1,0.2,1.3,0C45.1,27.9,45.2,27.8,45.2,27.7z" class="colorf3f1fc svgShape"/><g class="color000000 svgShape"><path fill="#1d4340" d="M9.7,41.5v0.6c0,0.3-0.2,0.6-0.6,0.8c-0.8,0.4-2,0.4-2.8,0c-0.4-0.2-0.6-0.5-0.6-0.8v-0.6
									c0-0.3,0.2-0.6,0.6-0.8c0.8-0.5,2-0.5,2.8,0C9.5,40.9,9.7,41.2,9.7,41.5z" class="color1d2943 svgShape"/><path fill="#1d4340" d="M9.7,41.5l0,0.6c0,0.3-0.2,0.6-0.6,0.8c-0.8,0.4-2,0.4-2.7,0c-0.4-0.2-0.6-0.5-0.6-0.8l0-0.6
									c0,0.3,0.2,0.6,0.6,0.8c0.8,0.4,2,0.4,2.7,0C9.5,42,9.7,41.7,9.7,41.5z" class="color1d2943 svgShape"/><path fill="#4c7572" d="M9.1,40.7c0.8,0.4,0.8,1.2,0,1.6c-0.8,0.4-2,0.4-2.7,0c-0.8-0.4-0.8-1.2,0-1.6
									C7.1,40.2,8.3,40.2,9.1,40.7z" class="color4c5c75 svgShape"/><path fill="#f1fcfb" d="M8.7,35.3l0,6.1c0,0.1-0.1,0.3-0.3,0.4c-0.4,0.2-1,0.2-1.3,0c-0.2-0.1-0.3-0.2-0.3-0.4l0-6.1
							c0,0.1,0.1,0.3,0.3,0.4c0.4,0.2,1,0.2,1.3,0C8.6,35.6,8.7,35.5,8.7,35.3z" class="colorf3f1fc svgShape"/></g><g class="color000000 svgShape"><polygon fill="#1ffeec" points="46.1 14.1 46 32.4 19.3 47.9 5.9 40.1 5.9 21.8 19.4 29.6" class="colorfebc1f svgShape"/><polygon fill="#6cfff3" points="46.1 14.1 46 32.4 19.3 47.9 19.4 29.6" class="colorffd06c svgShape"/><polygon fill="#1ffeec" points="19.4 29.6 19.3 47.9 5.9 40.1 5.9 21.8" class="colorfebc1f svgShape"/><polygon fill="#113330" points="47.1 13.9 47.1 15 19 31.3 4.9 23.2 4.9 22 33 5.7" class="color111d33 svgShape"/><polygon fill="#113330" points="4.9 23.2 4.9 22 19 30.1 19 31.3" class="color111d33 svgShape"/><polygon fill="#1d4340" points="47.1 13.9 47.1 15 19 31.3 19 30.1" class="color1d2943 svgShape"/><polygon fill="#4c7572" points="47.1 13.9 19 30.1 4.9 22 33 5.7" class="color4c5c75 svgShape"/><polygon fill="#56aaa3" points="31.7 25.7 31.7 29.6 20.5 36 20.3 35.9 20.3 32 31.4 25.6" class="coloraa6256 svgShape"/><polygon fill="#5abfb7" points="31.7 25.7 31.7 29.6 20.5 36 20.6 32.1" class="colorbf7d5a svgShape"/><polygon fill="#56aaa3" points="20.6 32.1 20.5 36 20.3 35.9 20.3 32" class="coloraa6256 svgShape"/><polygon fill="#60dbd1" points="31.7 25.7 20.6 32.1 20.3 32 31.4 25.5" class="colordba660 svgShape"/><polygon fill="#113330" points="27.7 30 27.7 30.3 24.9 31.9 24.5 31.7 24.5 31.4 24.7 31.3 24.9 31.4 27.1 30.2 27.1 29.9 27.3 29.8" class="color111d33 svgShape"/><polygon fill="#113330" points="27.3 30 27.3 30.3 27.1 30.2 27.1 29.9" class="color111d33 svgShape"/><polygon fill="#113330" points="24.9 31.6 24.9 31.9 24.5 31.7 24.5 31.4" class="color111d33 svgShape"/><polygon fill="#1d4340" points="27.7 30 27.7 30.3 24.9 31.9 24.9 31.6" class="color1d2943 svgShape"/><polygon fill="#4c7572" points="27.7 30 24.9 31.6 24.5 31.4 24.7 31.3 24.9 31.4 27.3 30 27.1 29.9 27.3 29.8" class="color4c5c75 svgShape"/><polygon fill="#56aaa3" points="31.7 30.7 31.7 34.5 20.5 41 20.3 40.9 20.3 37 31.4 30.5" class="coloraa6256 svgShape"/><polygon fill="#5abfb7" points="31.7 30.7 31.7 34.5 20.5 41 20.6 37.1" class="colorbf7d5a svgShape"/><polygon fill="#56aaa3" points="20.6 37.1 20.5 41 20.3 40.9 20.3 37" class="coloraa6256 svgShape"/><polygon fill="#60dbd1" points="31.7 30.7 20.6 37.1 20.3 37 31.4 30.5" class="colordba660 svgShape"/><polygon fill="#56aaa3" points="31.7 35.6 31.7 39.5 20.5 46 20.3 45.9 20.3 42 31.4 35.5" class="coloraa6256 svgShape"/><polygon fill="#5abfb7" points="31.7 35.6 31.7 39.5 20.5 46 20.6 42.1" class="colorbf7d5a svgShape"/><polygon fill="#56aaa3" points="20.6 42.1 20.5 46 20.3 45.9 20.3 42" class="coloraa6256 svgShape"/><polygon fill="#60dbd1" points="31.7 35.6 20.6 42.1 20.3 42 31.4 35.5" class="colordba660 svgShape"/><polygon fill="#113330" points="27.6 39.9 27.6 40.2 24.8 41.8 24.4 41.6 24.4 41.3 24.6 41.2 24.8 41.3 27 40.1 27 39.8 27.2 39.7" class="color111d33 svgShape"/><polygon fill="#113330" points="27.2 39.9 27.2 40.2 27 40.1 27 39.8" class="color111d33 svgShape"/><polygon fill="#113330" points="24.8 41.5 24.8 41.8 24.4 41.6 24.4 41.3" class="color111d33 svgShape"/><line x1="27.6" x2="24.8" y1="40.2" y2="41.8" fill="none"/><polygon fill="#4c7572" points="27.6 39.9 24.8 41.5 24.4 41.3 24.6 41.2 24.8 41.3 27.2 39.9 27 39.8 27.2 39.7" class="color4c5c75 svgShape"/><polygon fill="#113330" points="27.7 35 27.7 35.3 24.9 36.9 24.5 36.7 24.5 36.4 24.7 36.3 24.9 36.4 27.1 35.2 27.1 34.9 27.3 34.8" class="color111d33 svgShape"/><polygon fill="#113330" points="27.3 35 27.3 35.3 27.1 35.1 27.1 34.9" class="color111d33 svgShape"/><polygon fill="#113330" points="24.9 36.6 24.9 36.9 24.5 36.6 24.5 36.4" class="color111d33 svgShape"/><polygon fill="#1d4340" points="27.7 35 27.7 35.3 24.9 36.9 24.9 36.6" class="color1d2943 svgShape"/><polygon fill="#4c7572" points="27.7 35 24.9 36.6 24.5 36.4 24.7 36.2 24.9 36.4 27.3 35 27.1 34.9 27.3 34.7" class="color4c5c75 svgShape"/><polygon fill="#56aaa3" points="45 17.9 45 21.8 33.9 28.2 33.7 28.1 33.7 24.2 44.8 17.8" class="coloraa6256 svgShape"/><polygon fill="#5abfb7" points="45 17.9 45 21.8 33.9 28.2 33.9 24.4" class="colorbf7d5a svgShape"/><polygon fill="#56aaa3" points="33.9 24.4 33.9 28.2 33.7 28.1 33.7 24.2" class="coloraa6256 svgShape"/><polygon fill="#60dbd1" points="45 17.9 33.9 24.4 33.7 24.2 44.8 17.8" class="colordba660 svgShape"/><polygon fill="#113330" points="41.1 22.2 41.1 22.5 38.3 24.1 37.9 23.9 37.9 23.6 38.1 23.5 38.3 23.6 40.5 22.4 40.5 22.1 40.7 22" class="color111d33 svgShape"/><polygon fill="#113330" points="40.7 22.2 40.7 22.5 40.5 22.4 40.5 22.1" class="color111d33 svgShape"/><polygon fill="#113330" points="38.3 23.9 38.3 24.1 37.9 23.9 37.9 23.6" class="color111d33 svgShape"/><polygon fill="#1d4340" points="41.1 22.2 41.1 22.5 38.3 24.1 38.3 23.9" class="color1d2943 svgShape"/><polygon fill="#4c7572" points="41.1 22.2 38.3 23.9 37.9 23.6 38.1 23.5 38.3 23.6 40.7 22.2 40.5 22.1 40.7 22" class="color4c5c75 svgShape"/><polygon fill="#56aaa3" points="45 22.9 45 26.8 33.9 33.2 33.7 33.1 33.7 29.2 44.8 22.8" class="coloraa6256 svgShape"/><polygon fill="#5abfb7" points="45 22.9 45 26.8 33.9 33.2 33.9 29.3" class="colorbf7d5a svgShape"/><polygon fill="#56aaa3" points="33.9 29.3 33.9 33.2 33.7 33.1 33.7 29.2" class="coloraa6256 svgShape"/><polygon fill="#60dbd1" points="45 22.9 33.9 29.3 33.7 29.2 44.8 22.8" class="colordba660 svgShape"/><polygon fill="#56aaa3" points="45 27.9 45 31.7 33.9 38.2 33.7 38.1 33.7 34.2 44.8 27.7" class="coloraa6256 svgShape"/><polygon fill="#5abfb7" points="45 27.9 45 31.7 33.9 38.2 33.9 34.3" class="colorbf7d5a svgShape"/><polygon fill="#56aaa3" points="33.9 34.3 33.9 38.2 33.7 38.1 33.7 34.2" class="coloraa6256 svgShape"/><polygon fill="#60dbd1" points="45 27.9 33.9 34.3 33.7 34.2 44.8 27.7" class="colordba660 svgShape"/><polygon fill="#113330" points="41 32.2 41 32.4 38.2 34.1 37.8 33.8 37.8 33.5 38 33.4 38.2 33.5 40.3 32.3 40.3 32 40.5 31.9" class="color111d33 svgShape"/><polygon fill="#113330" points="40.6 32.2 40.6 32.4 40.3 32.3 40.3 32" class="color111d33 svgShape"/><polygon fill="#113330" points="38.2 33.8 38.2 34.1 37.8 33.8 37.8 33.5" class="color111d33 svgShape"/><line x1="41" x2="38.2" y1="32.4" y2="34.1" fill="none"/><polygon fill="#4c7572" points="41 32.2 38.2 33.8 37.8 33.5 38 33.4 38.2 33.5 40.6 32.2 40.3 32 40.5 31.9" class="color4c5c75 svgShape"/><polygon fill="#113330" points="41.1 27.2 41.1 27.5 38.3 29.1 37.9 28.9 37.9 28.6 38.1 28.5 38.3 28.6 40.5 27.4 40.5 27.1 40.7 27" class="color111d33 svgShape"/><polygon fill="#113330" points="40.7 27.2 40.7 27.5 40.5 27.4 40.5 27.1" class="color111d33 svgShape"/><polygon fill="#113330" points="38.3 28.8 38.3 29.1 37.9 28.9 37.9 28.6" class="color111d33 svgShape"/><polygon fill="#1d4340" points="41.1 27.2 41.1 27.5 38.3 29.1 38.3 28.8" class="color1d2943 svgShape"/><polygon fill="#4c7572" points="41.1 27.2 38.3 28.8 37.9 28.6 38.1 28.5 38.3 28.6 40.7 27.2 40.5 27.1 40.7 27" class="color4c5c75 svgShape"/><g class="color000000 svgShape"><path fill="#56aaa3" d="M20,28.6v0.3c0,0.2-0.1,0.3-0.3,0.4c-0.4,0.2-1.1,0.2-1.5,0c-0.2-0.1-0.3-0.3-0.3-0.4v-0.3
										c0-0.2,0.1-0.3,0.3-0.4c0.4-0.2,1.1-0.2,1.5,0C19.9,28.2,20,28.4,20,28.6z" class="coloraa6256 svgShape"/><path fill="#56aaa3" d="M20,28.6l0,0.3c0,0.2-0.1,0.3-0.3,0.4c-0.4,0.2-1.1,0.2-1.5,0c-0.2-0.1-0.3-0.3-0.3-0.4l0-0.3
										c0,0.2,0.1,0.3,0.3,0.4c0.4,0.2,1.1,0.2,1.5,0C19.9,28.9,20,28.7,20,28.6z" class="coloraa6256 svgShape"/><ellipse cx="18.9" cy="28.6" fill="#60dbd1" class="colordba660 svgShape" rx=".6" ry="1.1" transform="rotate(-89.838 18.95 28.552)"/><path fill="#e7fcfa" d="M19.5,25.4l0,3.2c0,0.1,0,0.1-0.1,0.2c-0.2,0.1-0.5,0.1-0.7,0c-0.1-0.1-0.2-0.1-0.1-0.2l0-3.2
										c0,0.1,0,0.2,0.1,0.2c0.2,0.1,0.5,0.1,0.7,0C19.4,25.5,19.5,25.5,19.5,25.4z" class="colore9e7fc svgShape"/><ellipse cx="19" cy="25.4" fill="#defbf9" class="colordedffb svgShape" rx=".3" ry=".5" transform="matrix(.00283 -1 1 .00283 -6.48 44.265)"/><g class="color000000 svgShape"><path fill="#56aaa3" d="M8.4,21.9v0.3c0,0.2-0.1,0.3-0.3,0.4c-0.4,0.2-1.1,0.2-1.5,0c-0.2-0.1-0.3-0.3-0.3-0.4v-0.3
										c0-0.2,0.1-0.3,0.3-0.4c0.4-0.3,1.1-0.3,1.5,0C8.3,21.6,8.4,21.7,8.4,21.9z" class="coloraa6256 svgShape"/><path fill="#56aaa3" d="M8.4,21.9l0,0.3c0,0.2-0.1,0.3-0.3,0.4c-0.4,0.2-1.1,0.2-1.5,0c-0.2-0.1-0.3-0.3-0.3-0.4l0-0.3
										c0,0.2,0.1,0.3,0.3,0.4c0.4,0.2,1.1,0.2,1.5,0C8.3,22.2,8.4,22,8.4,21.9z" class="coloraa6256 svgShape"/><ellipse cx="7.4" cy="21.9" fill="#60dbd1" class="colordba660 svgShape" rx=".6" ry="1.1" transform="rotate(-89.838 7.363 21.862)"/><path fill="#e7fcfa" d="M7.9,18.7l0,3.2c0,0.1,0,0.1-0.1,0.2c-0.2,0.1-0.5,0.1-0.7,0c-0.1-0.1-0.2-0.1-0.1-0.2l0-3.2
										c0,0.1,0,0.2,0.1,0.2c0.2,0.1,0.5,0.1,0.7,0C7.8,18.8,7.9,18.8,7.9,18.7z" class="colore9e7fc svgShape"/><ellipse cx="7.4" cy="18.7" fill="#defbf9" class="colordedffb svgShape" rx=".3" ry=".5" transform="rotate(-89.838 7.37 18.692)"/></g></g><g class="color000000 svgShape"><path fill="#56aaa3" d="M45.5,13.8v0.3c0,0.2-0.1,0.3-0.3,0.4c-0.4,0.2-1.1,0.2-1.5,0c-0.2-0.1-0.3-0.3-0.3-0.4v-0.3
										c0-0.2,0.1-0.3,0.3-0.4c0.4-0.2,1.1-0.2,1.5,0C45.4,13.5,45.5,13.7,45.5,13.8z" class="coloraa6256 svgShape"/><path fill="#56aaa3" d="M45.5,13.8l0,0.3c0,0.2-0.1,0.3-0.3,0.4c-0.4,0.2-1.1,0.2-1.5,0c-0.2-0.1-0.3-0.3-0.3-0.4l0-0.3
										c0,0.2,0.1,0.3,0.3,0.4c0.4,0.2,1.1,0.2,1.5,0C45.4,14.1,45.5,14,45.5,13.8z" class="coloraa6256 svgShape"/><ellipse cx="44.5" cy="13.8" fill="#60dbd1" class="colordba660 svgShape" rx=".6" ry="1.1" transform="rotate(-89.838 44.48 13.81)"/><path fill="#e7fcfa" d="M45,10.6l0,3.2c0,0.1,0,0.1-0.1,0.2c-0.2,0.1-0.5,0.1-0.7,0C44,14,44,13.9,44,13.8l0-3.2
										c0,0.1,0,0.2,0.1,0.2c0.2,0.1,0.5,0.1,0.7,0C44.9,10.8,45,10.7,45,10.6z" class="colore9e7fc svgShape"/><ellipse cx="44.5" cy="10.6" fill="#defbf9" class="colordedffb svgShape" rx=".3" ry=".5" transform="rotate(-89.838 44.487 10.64)"/><g class="color000000 svgShape"><path fill="#56aaa3" d="M34,7.1l0,0.3c0,0.2-0.1,0.3-0.3,0.4c-0.4,0.2-1.1,0.2-1.5,0c-0.2-0.1-0.3-0.3-0.3-0.4l0-0.3
										c0,0.2,0.1,0.3,0.3,0.4c0.4,0.2,1.1,0.2,1.5,0C33.9,7.4,34,7.3,34,7.1z" class="coloraa6256 svgShape"/><ellipse cx="32.9" cy="7.1" fill="#60dbd1" class="colordba660 svgShape" rx=".6" ry="1.1" transform="rotate(-89.838 32.895 7.121)"/><path fill="#e7fcfa" d="M33.4,4l0,3.2c0,0.1,0,0.1-0.1,0.2c-0.2,0.1-0.5,0.1-0.7,0c-0.1-0.1-0.2-0.1-0.1-0.2l0-3.2
										c0,0.1,0,0.2,0.1,0.2c0.2,0.1,0.5,0.1,0.7,0C33.4,4.1,33.4,4,33.4,4z" class="colore9e7fc svgShape"/><ellipse cx="32.9" cy="4" fill="#defbf9" class="colordedffb svgShape" rx=".3" ry=".5" transform="rotate(-89.838 32.901 3.951)"/></g></g><g class="color000000 svgShape" opacity=".6"><polygon fill="#49feef" points="4.9 19.4 4.9 18.3 19 26.4 19 27.6" class="color497bfe svgShape"/></g><g class="color000000 svgShape" opacity=".6"><polygon fill="#50fff1" points="47.1 10.1 47.1 11.3 19 27.6 19 26.4" class="color5094ff svgShape"/></g><g class="color000000 svgShape" opacity=".6"><polygon fill="#41e1d4" points="47.1 10.1 30.7 19.6 25.3 22.8 23 24.1 21.3 25.1 19 26.4 4.9 18.3 21.3 8.8 23 7.8 25.3 6.5 30.7 3.3 33 2" class="color57b3fe svgShape"/></g><g class="color000000 svgShape" opacity=".15"><polygon fill="#fff" points="23 7.8 23 24.1 21.3 25.1 21.3 8.8" class="colorffffff svgShape"/><polygon fill="#fff" points="30.7 3.3 30.7 19.6 25.3 22.8 25.3 6.5" class="colorffffff svgShape"/></g></g></svg>