<svg xmlns="http://www.w3.org/2000/svg" viewBox="0 0 130 130"><path fill="#3beddf" d="m105.133 10.224-12.82-7.345a9.45 9.45 0 0 0-1.801-1.032l-.189-.107-.008.016C86.866.354 82.411.86 77.551 3.665L38.065 26.46c-10.857 6.268-19.74 21.655-19.74 34.193v45.591c0 6.114 2.123 10.45 5.547 12.577l-.033.06 14.248 8.073 8.012-13.95 31.453-18.157c10.855-6.269 19.74-21.656 19.74-34.193V23.876l7.841-13.652z" class="color3b66ed svgShape"/><path fill="#2ad8ca" d="M105.133 10.224 91.411 7.005c-.561-.408-3.363-.398-4.002-.678l-1.018-.406-1.832-.341C81.11 4.178 82.411.859 77.551 3.664L38.065 26.46c-10.857 6.268-19.74 21.655-19.74 34.193v45.591c0 6.114 2.123 10.45 5.547 12.577l-.033.06 14.248 8.073 8.012-13.95 31.453-18.157c10.855-6.269 19.74-21.656 19.74-34.193V23.876l7.841-13.652z" class="color2a4bd8 svgShape"/><path fill="#1abaad" d="M19.077 54.085c-.479 2.232-.752 4.442-.752 6.568v45.591c0 6.114 2.123 10.45 5.547 12.577l-.033.06 14.248 8.073 8.012-13.95 31.453-18.157c1.844-1.065 3.627-2.41 5.322-3.945L19.077 54.085z" class="color1a40ba svgShape"/><path fill="#60fcef" d="M51.635 34.329c-10.857 6.268-19.742 21.656-19.742 34.193v45.592c0 12.537 8.885 17.666 19.742 11.396l39.484-22.795c10.857-6.268 19.742-21.655 19.742-34.193V22.931c0-12.537-8.885-17.665-19.742-11.396L51.635 34.329z" class="color607efc svgShape"/><path fill="#50fff1" d="M110.862 22.931c0-12.537-8.885-17.665-19.742-11.396L51.635 34.329c-10.857 6.268-19.742 21.656-19.742 34.193v45.592c0 12.537 8.885 17.666 19.742 11.396" class="color5069ff svgShape"/><path fill="#7dfff4" d="M42.866 129h-.002c-7.158 0-11.783-5.843-11.783-14.886V68.522c0-12.828 9.037-28.484 20.146-34.898l39.486-22.795c3.201-1.848 6.289-2.784 9.178-2.784 7.158 0 11.785 5.844 11.785 14.886v45.592c0 12.829-9.039 28.484-20.148 34.898l-39.486 22.795C48.84 128.063 45.754 129 42.866 129zM99.891 9.673c-2.6 0-5.414.863-8.363 2.564L52.042 35.034c-10.66 6.155-19.334 21.178-19.334 33.488v45.592c0 8.178 3.891 13.258 10.156 13.258h.002c2.6 0 5.412-.863 8.361-2.564l39.486-22.797c10.66-6.154 19.334-21.178 19.334-33.488V22.931c0-8.178-3.89-13.258-10.156-13.258z" class="color7d9cff svgShape"/><path fill="#41e1d4" d="M54.063 81.812c-2.809 1.622-5.109 5.603-5.109 8.847v11.795c0 3.244 2.301 4.571 5.109 2.949l10.215-5.897c2.809-1.622 5.107-5.603 5.107-8.847V78.864c0-3.244-2.299-4.57-5.107-2.949l-10.215 5.897z" class="color39a6ff svgShape"/><path fill="#27ffed" d="M80.459 66.597c-2.809 1.621-5.109 5.603-5.109 8.846v11.796c0 3.244 2.301 4.571 5.109 2.949l10.215-5.897c2.809-1.622 5.107-5.604 5.107-8.848V63.647c0-3.244-2.299-4.57-5.107-2.949l-10.215 5.899z" class="colorffcb27 svgShape"/><path fill="#22ffed" d="m88.247 62.101-7.787 4.496c-2.809 1.621-5.109 5.603-5.109 8.846v8.993l12.896-22.335z" class="colorffaf22 svgShape"/><path fill="#18eddc" d="M54.063 52.755c-2.809 1.622-5.109 5.604-5.109 8.847v11.796c0 3.244 2.301 4.57 5.109 2.949l10.215-5.898c2.809-1.621 5.107-5.603 5.107-8.847V49.807c0-3.243-2.299-4.57-5.107-2.948l-10.215 5.896z" class="colored185f svgShape"/><path fill="#24d3c5" d="M80.459 37.539c-2.809 1.622-5.109 5.603-5.109 8.847v11.795c0 3.245 2.301 4.571 5.109 2.949l10.215-5.897c2.809-1.622 5.107-5.603 5.107-8.847V34.591c0-3.244-2.299-4.57-5.107-2.949l-10.215 5.897z" class="color87d324 svgShape"/></svg>