<svg xmlns="http://www.w3.org/2000/svg" viewBox="0 0 50 50"><path fill="#9ec9c5" d="M38.026 37.65c0 .66-.43 1.32-1.31 1.83l-3.61 2.08v.01l-12.3 7.1c-.71.41-1.34.43-1.78.12l-1.33-.74a.848.848 0 0 1-.19-.14l-2.71-1.51c-.09-.05-.18-.12-.26-.2-.17-.03-.32-.09-.46-.19l-1.33-.73c-.44-.25-.71-.79-.71-1.55l-.06-28.56c0-1.54 1.07-3.41 2.41-4.18l4.97-2.87 7.33-4.23 3.71-2.14c1.73-1 4.54-1 6.26 0 .85.49 1.28 1.14 1.28 1.8l.09 34.1z" class="color9ea9c9 svgShape"/><path fill="#9ec9c5" d="m36.08 37.659-.09-34.105c-.002-.366-.241-.73-.718-1.008-.964-.56-2.532-.56-3.502 0l.09 34.105c.97-.56 2.538-.56 3.502 0 .477.278.717.642.718 1.008zm1.945-.01-.09-34.105c.002.66-.433 1.323-1.305 1.826l.09 34.106c.872-.504 1.307-1.166 1.305-1.827z" class="color9ea9c9 svgShape"/><path fill="#b0cfcc" d="m20.726 8.923.09 34.105 11.044-6.377-.09-34.105z" class="colorb0b8cf svgShape"/><path fill="#9ec9c5" d="m19.351 8.124.09 34.105 1.375.799-.09-34.105zM24.216 10.951l.09 34.105 1.369.796-.09-34.105z" class="color9ea9c9 svgShape"/><path fill="#c9e2e0" d="m11.974 15.17.062 28.556c0 .763.273 1.301.71 1.55l1.39.778c-.436-.25-.382-.745-.382-1.509l-.102-28.541c0-1.528.933-3.284 2.265-4.063L28.08 4.677l-1.399-.785-12.291 7.1c-1.34.772-2.416 2.642-2.416 4.178z" class="colorc9cee2 svgShape"/><path fill="#b0cfcc" d="M15.785 11.773c-1.339.773-2.415 2.643-2.41 4.176l.058 28.557c.004 1.533 1.088 2.156 2.426 1.383l12.296-7.1-.074-34.115-12.296 7.1z" class="colorb0b8cf svgShape"/><path fill="#fff" d="m14.024 16.29.062 28.556c0 .764.273 1.302.71 1.552l2.917 1.634c-.437-.25-.702-.787-.702-1.551l-.062-28.556c0-1.527 1.075-3.398 2.408-4.177L34.194 5.19 31.27 3.548l-14.83 8.565c-1.34.772-2.415 2.642-2.415 4.178z" class="colorffffff svgShape"/><path fill="#d2d6d6" d="M19.36 13.751c-1.338.773-2.414 2.643-2.41 4.175l.059 28.558c.004 1.532 1.088 2.156 2.426 1.383l14.835-8.565-.075-34.115-14.834 8.564z" class="colord6d4d2 svgShape"/><path fill="#9ec9c5" d="M20.21 14.22c-1.338.772-2.142 2.909-2.137 4.441l.14 28.617c.005 1.533 1.254 2.16 2.592 1.388l12.297-7.1-.075-34.115-12.816 6.768z" class="color9ea9c9 svgShape"/><path fill="#fff" d="m26.35 6.382.694.406 1.77 1.028.693.406 5.604-3.235c.88-.507.88-1.333.015-1.832-.873-.506-2.299-.506-3.18 0L26.35 6.382z" class="colorffffff svgShape"/><path fill="#9ec9c5" d="m25.585 11.331.09 34.521 11.045-6.376-.09-34.521z" class="color9ea9c9 svgShape"/><path fill="#9bfff7" d="m13.32 37.075.01 3.539c0 .192.071.324.172.384l.518.298c-.111-.06-.182-.202-.182-.394l1.112-1.116c0-.384-.104-1.134.24-1.336l.636-2.89-.518-.287-1.37.74c-.345.192-.618.678-.618 1.062z" class="colorffde9b svgShape"/><path fill="#1ffeec" d="M14.446 36.302c-.343.197-.62.677-.618 1.062l.01 3.54c.001.392.28.544.622.346l1.376-.739-.014-4.948-1.376.739z" class="colorfebc1f svgShape"/><path fill="#5ae7dc" d="m13.608 32.203.01 3.539c0 .192.071.323.172.384l.518.298c-.111-.061-.182-.203-.182-.395l1.023-1.859c0-.384-.233-1.076.111-1.279l.854-2.203-.518-.287-1.37.74c-.345.192-.618.677-.618 1.062z" class="color78e75a svgShape"/><path fill="#5ec3bb" d="M14.734 31.43c-.343.197-.62.676-.618 1.062l.01 3.539c.001.393.28.544.622.347l1.376-.739-.014-4.948-1.376.739z" class="color5ec363 svgShape"/><path fill="#41e1d4" d="m13.896 27.33.01 3.54c0 .192.071.323.172.384l.518.297c-.111-.06-.182-.202-.182-.394l1.055-2.452c0-.384-.484-1.233-.14-1.435l1.073-1.454-.518-.288-1.37.74c-.345.193-.618.678-.618 1.062z" class="color57b3fe svgShape"/><path fill="#49feef" d="M15.022 26.557c-.343.198-.62.677-.618 1.063l.01 3.539c.001.393.28.544.622.347l1.376-.74-.014-4.947-1.376.738z" class="color497bfe svgShape"/><path fill="#51f4e7" d="m14.184 22.458.01 3.54c0 .191.071.323.172.383l.518.298c-.111-.06-.182-.202-.182-.394l.655-2.717c0-.384-.063-1.05.281-1.253l1.052-1.371-.518-.288-1.37.74c-.345.192-.618.678-.618 1.062z" class="colorf45170 svgShape"/><path fill="#32dfd1" d="M15.31 21.685c-.343.198-.62.677-.618 1.063l.01 3.538c0 .394.28.545.622.347l1.376-.739-.014-4.948-1.376.74z" class="colordf3260 svgShape"/><path fill="#fff" d="M32.379 21.416c.453.613.688 1.456.691 2.551.002.785-.099 1.495-.29 2.17s-.461 1.244-.808 1.74c-.36.49-.772.876-1.236 1.144-.399.23-.721.328-.992.291-.271-.036-.465-.22-.582-.524-.41.993-1.066 1.757-1.955 2.27-.49.283-.94.41-1.34.36-.4-.051-.724-.265-.957-.634-.233-.37-.351-.88-.353-1.531a5.579 5.579 0 0 1 .343-1.918c.23-.637.538-1.2.937-1.712.411-.52.849-.92 1.351-1.21.76-.439 1.34-.477 1.767-.146l-.002-.784 1.559-.9.012 4.278c.001.547.182.724.543.516.27-.156.476-.453.63-.912.14-.452.216-1.044.214-1.799-.003-.888-.185-1.553-.535-2.033-.362-.473-.866-.716-1.511-.729-.645-.013-1.38.219-2.23.71a8.028 8.028 0 0 0-2.214 1.9 9.023 9.023 0 0 0-1.502 2.557 7.71 7.71 0 0 0-.521 2.747c.002.933.172 1.665.535 2.182.35.525.84.804 1.486.832.632.05 1.367-.167 2.204-.65a8.902 8.902 0 0 0 2.253-1.878l.364.99a8.55 8.55 0 0 1-1.21 1.173c-.476.379-.94.705-1.403.973-1.082.625-2.05.916-2.875.874-.839-.035-1.485-.388-1.938-1.045-.466-.65-.701-1.552-.704-2.707-.004-1.14.225-2.295.686-3.48a11.739 11.739 0 0 1 1.952-3.276 10.711 10.711 0 0 1 2.883-2.436c1.056-.61 1.997-.9 2.823-.888.813.034 1.459.343 1.925.934zm-3.8 6.864a3.17 3.17 0 0 0 .409-1.585c-.002-.563-.145-.91-.416-1.08-.258-.162-.607-.124-1.032.122s-.76.601-1.029 1.083a3.123 3.123 0 0 0-.382 1.526c.001.562.131.932.39 1.108.271.17.606.14 1.032-.106a2.769 2.769 0 0 0 1.029-1.068M37.36 12.452c-.882 0-1.663.386-2.231 1.03-.575.637-.919 1.512-.919 2.5 0-1.947-1.411-3.53-3.148-3.53.862 0 1.662-.406 2.236-1.022.55-.644.912-1.54.912-2.507 0 .967.344 1.863.919 2.507.568.616 1.35 1.022 2.23 1.022z" class="colorffffff svgShape"/><path fill="#c9e2e0" d="m19.351 8.124 1.375.799L31.77 2.546c.97-.56 2.538-.56 3.502 0 .959.558.959 1.468-.012 2.029L24.216 10.95l1.37.796L36.63 5.37c1.731-1 1.74-2.626.025-3.622-1.72-1-4.528-1-6.26 0L19.351 8.123z" class="colorc9cee2 svgShape"/><path fill="#c9e2e0" d="m16.92 17.947.062 28.555c0 .764.273 1.302.71 1.551l1.39.778c-.436-.25-.7-.787-.7-1.551l-.063-28.556c0-1.528 1.076-3.398 2.408-4.177l12.3-7.093-1.4-.785-12.29 7.1c-1.341.772-2.417 2.642-2.417 4.178z" class="colorc9cee2 svgShape"/></svg>