<svg width="390" height="394" xmlns="http://www.w3.org/2000/svg" xmlns:xlink="http://www.w3.org/1999/xlink" xml:space="preserve" overflow="hidden"><defs><filter id="fx0" x="-10%" y="-10%" width="120%" height="120%" filterUnits="userSpaceOnUse" primitiveUnits="userSpaceOnUse"><feComponentTransfer color-interpolation-filters="sRGB"><feFuncR type="discrete" tableValues="0.949020 0.949020"/><feFuncG type="discrete" tableValues="0.949020 0.949020"/><feFuncB type="discrete" tableValues="0.949020 0.949020"/><feFuncA type="linear" slope="1.000000" intercept="0.000000"/></feComponentTransfer><feGaussianBlur stdDeviation="6.111111 6.111111"/></filter><clipPath id="clip1"><rect x="632" y="1045" width="390" height="394"/></clipPath><clipPath id="clip2"><rect x="-18.3333" y="-18.3334" width="424.667" height="423.667"/></clipPath><clipPath id="clip3"><rect x="0" y="0" width="388" height="387"/></clipPath></defs><g clip-path="url(#clip1)" transform="translate(-632 -1045)"><g clip-path="url(#clip2)" filter="url(#fx0)" transform="translate(634 1052)"><g clip-path="url(#clip3)"><path d="M22.5001 193.352C22.5001 98.6355 99.2832 21.8523 194 21.8523 288.717 21.8523 365.5 98.6355 365.5 193.352 365.5 288.069 288.717 364.852 194 364.852 99.2832 364.852 22.5001 288.069 22.5001 193.352ZM53.6649 193.352C53.6649 270.857 116.495 333.688 194 333.688 271.505 333.688 334.335 270.857 334.335 193.352 334.335 115.847 271.505 53.0171 194 53.0171 116.495 53.0171 53.6649 115.847 53.6649 193.352Z" stroke="#FFFFFF" stroke-width="5" stroke-linecap="butt" stroke-linejoin="miter" stroke-miterlimit="8" stroke-opacity="1" fill="#F2F2F2" fill-rule="evenodd" fill-opacity="0.329412"/></g></g><path d="M656.5 1223C656.5 1128.28 733.283 1051.5 828 1051.5 922.717 1051.5 999.5 1128.28 999.5 1223 999.5 1317.72 922.717 1394.5 828 1394.5 733.283 1394.5 656.5 1317.72 656.5 1223ZM687.665 1223C687.665 1300.51 750.495 1363.34 828 1363.34 905.505 1363.34 968.335 1300.51 968.335 1223 968.335 1145.49 905.505 1082.66 828 1082.66 750.495 1082.66 687.665 1145.49 687.665 1223Z" stroke="#FFFFFF" stroke-width="4.58333" stroke-linecap="butt" stroke-linejoin="miter" stroke-miterlimit="8" stroke-opacity="1" fill="#F2F2F2" fill-rule="evenodd" fill-opacity="0.329412"/></g></svg>