<svg width="239" height="114" xmlns="http://www.w3.org/2000/svg" xmlns:xlink="http://www.w3.org/1999/xlink" xml:space="preserve" overflow="hidden"><defs><filter id="fx0" x="-10%" y="-10%" width="120%" height="120%" filterUnits="userSpaceOnUse" primitiveUnits="userSpaceOnUse"><feComponentTransfer color-interpolation-filters="sRGB"><feFuncR type="discrete" tableValues="1.000000 1.000000"/><feFuncG type="discrete" tableValues="1.000000 1.000000"/><feFuncB type="discrete" tableValues="1.000000 1.000000"/><feFuncA type="linear" slope="1.000000" intercept="0.000000"/></feComponentTransfer><feGaussianBlur stdDeviation="3.762488 3.762488"/></filter><filter id="fx1" x="-10%" y="-10%" width="120%" height="120%" filterUnits="userSpaceOnUse" primitiveUnits="userSpaceOnUse"><feComponentTransfer color-interpolation-filters="sRGB"><feFuncR type="discrete" tableValues="1.000000 1.000000"/><feFuncG type="discrete" tableValues="1.000000 1.000000"/><feFuncB type="discrete" tableValues="1.000000 1.000000"/><feFuncA type="linear" slope="1.000000" intercept="0.000000"/></feComponentTransfer><feGaussianBlur stdDeviation="3.762488 3.762488"/></filter><clipPath id="clip2"><rect x="572" y="-4" width="239" height="114"/></clipPath><clipPath id="clip3"><rect x="-11.2875" y="-11.2875" width="258.575" height="135.575"/></clipPath><clipPath id="clip4"><rect x="0" y="0" width="236" height="113"/></clipPath><clipPath id="clip5"><rect x="1.61316" y="1.87817" width="182.575" height="23.5749"/></clipPath><clipPath id="clip6"><rect x="0" y="0" width="186" height="27"/></clipPath></defs><g clip-path="url(#clip2)" transform="translate(-572 4)"><g clip-path="url(#clip3)" filter="url(#fx0)" transform="translate(576 -4)"><g clip-path="url(#clip4)"><path d="M18.163 0.41 20.869-0.082 14.719-11.029C17.22-12.792 19.147-15.211 19.147-18.614 19.147-23.78 15.211-27.142 4.1-25.338L4.1 0 6.642 0 6.642-9.635 12.628-9.799ZM6.642-23.37C13.694-24.477 16.605-22.017 16.605-18.122 16.605-15.252 15.088-13.161 12.956-11.726L6.642-11.603ZM41.3667 0.451 41.6947-1.722C31.5267-2.009 28.5337-4.182 28.2877-9.307L42.3917-9.635C43.1297-15.949 40.3827-20.336 35.0527-20.336 29.9277-20.336 25.8277-15.703 25.8277-9.676 25.8277-3.239 29.2307 0.246 41.3667 0.451ZM34.5607-18.245C38.3327-18.245 40.1777-15.416 40.0957-11.275L28.2877-10.947C28.5337-15.539 30.9117-18.245 34.5607-18.245ZM55.8373-1.558C53.0903-1.558 51.2453-2.87 51.2453-5.207 51.2453-8.323 54.1563-10.086 62.1513-9.266 62.1513-7.052 62.1923-5.453 62.2333-4.059 60.5523-2.665 58.1743-1.558 55.8373-1.558ZM62.6023 0.082 64.8573-0.041C64.7343-2.952 64.6113-5.535 64.6113-9.881 64.6113-17.425 61.4543-19.803 50.3023-20.213L50.0153-17.999C59.1173-17.63 61.8643-16.277 62.1103-11.193 53.0493-11.849 48.7853-8.856 48.7853-4.633 48.7853-1.435 51.3273 0.492 54.9353 0.492 58.1743 0.492 60.7163-1.025 62.3563-2.542 62.4383-1.681 62.5613-0.492 62.6023 0.082ZM87.856 0 88.102-1.927 81.378-1.927 81.378-28.577 72.85-28.577 72.604-26.814 78.877-26.527 78.877-1.927 72.194-1.927 72.194 0ZM104.787-23.247 105.115-28.659 102.491-28.659 102.286-23.247ZM112.618 0 112.823-1.927 104.992-1.927 104.992-19.844 94.9877-19.844 94.7827-18.122 102.491-17.794 102.491-1.927 94.7007-1.927 94.7007 0ZM133.402 0.369 133.607-1.804C126.596-1.927 124.628-2.911 124.628-6.601L124.628-17.876 133.197-17.876 133.197-19.844 124.628-19.844 124.628-25.707 122.168-25.461 122.168-19.844 118.314-19.844 117.986-17.876 122.168-17.876 122.168-6.191C122.168-1.435 125.038 0.41 133.402 0.369ZM140.37 7.298C146.766 6.396 148.57 4.51 151.071-1.804 153.982-8.815 156.155-14.678 158-19.844L155.622-19.844C154.187-15.949 151.358-7.749 149.472-3.239L149.185-3.239C146.684-8.733 144.265-14.391 142.051-19.926L139.509-19.803C141.805-14.268 145.331-6.027 147.996-0.328L148.037-0.328C146.479 3.198 145.372 4.1 140.124 4.92Z" fill="#FFFFFF" fill-rule="nonzero" fill-opacity="1" transform="matrix(1 0 0 1 37.9006 65)"/></g></g><text fill="#FFFFFF" fill-opacity="1" font-family="Operator Mono Light,Operator Mono Light_MSFontService,sans-serif" font-style="normal" font-variant="normal" font-weight="300" font-stretch="normal" font-size="41" text-anchor="start" direction="ltr" writing-mode="lr-tb" unicode-bidi="normal" text-decoration="none" transform="matrix(1 0 0 1 613.901 58)">Reality</text><g clip-path="url(#clip5)" filter="url(#fx1)" transform="translate(601 50)"><g clip-path="url(#clip6)"><path d="M12.9006 13.1656 52.9006 13.1656 92.9006 13.1656 132.901 13.1656 172.901 13.1656 172.901 14.1656 132.901 14.1656 92.9006 14.1656 52.9006 14.1656 12.9006 14.1656Z" fill="#FFFFFF" fill-rule="evenodd" fill-opacity="1"/></g></g><path d="M613.901 59.7447 653.901 59.7447 693.901 59.7447 733.901 59.7447 773.901 59.7447 773.901 60.7447 733.901 60.7447 693.901 60.7447 653.901 60.7447 613.901 60.7447Z" fill="#FFFFFF" fill-rule="evenodd" fill-opacity="1"/></g></svg>