<svg width="312" height="119" xmlns="http://www.w3.org/2000/svg" xmlns:xlink="http://www.w3.org/1999/xlink" xml:space="preserve" overflow="hidden"><defs><filter id="fx0" x="-10%" y="-10%" width="120%" height="120%" filterUnits="userSpaceOnUse" primitiveUnits="userSpaceOnUse"><feComponentTransfer color-interpolation-filters="sRGB"><feFuncR type="discrete" tableValues="1.000000 1.000000"/><feFuncG type="discrete" tableValues="1.000000 1.000000"/><feFuncB type="discrete" tableValues="1.000000 1.000000"/><feFuncA type="linear" slope="1.000000" intercept="0.000000"/></feComponentTransfer><feGaussianBlur stdDeviation="3.762488 3.762488"/></filter><filter id="fx1" x="-10%" y="-10%" width="120%" height="120%" filterUnits="userSpaceOnUse" primitiveUnits="userSpaceOnUse"><feComponentTransfer color-interpolation-filters="sRGB"><feFuncR type="discrete" tableValues="1.000000 1.000000"/><feFuncG type="discrete" tableValues="1.000000 1.000000"/><feFuncB type="discrete" tableValues="1.000000 1.000000"/><feFuncA type="linear" slope="1.000000" intercept="0.000000"/></feComponentTransfer><feGaussianBlur stdDeviation="3.762488 3.762488"/></filter><filter id="fx2" x="-10%" y="-10%" width="120%" height="120%" filterUnits="userSpaceOnUse" primitiveUnits="userSpaceOnUse"><feComponentTransfer color-interpolation-filters="sRGB"><feFuncR type="discrete" tableValues="1.000000 1.000000"/><feFuncG type="discrete" tableValues="1.000000 1.000000"/><feFuncB type="discrete" tableValues="1.000000 1.000000"/><feFuncA type="linear" slope="1.000000" intercept="0.000000"/></feComponentTransfer><feGaussianBlur stdDeviation="3.762488 3.762488"/></filter><filter id="fx3" x="-10%" y="-10%" width="120%" height="120%" filterUnits="userSpaceOnUse" primitiveUnits="userSpaceOnUse"><feComponentTransfer color-interpolation-filters="sRGB"><feFuncR type="discrete" tableValues="1.000000 1.000000"/><feFuncG type="discrete" tableValues="1.000000 1.000000"/><feFuncB type="discrete" tableValues="1.000000 1.000000"/><feFuncA type="linear" slope="1.000000" intercept="0.000000"/></feComponentTransfer><feGaussianBlur stdDeviation="3.762488 3.762488"/></filter><clipPath id="clip4"><rect x="1095" y="-9" width="312" height="119"/></clipPath><clipPath id="clip5"><rect x="-11.2875" y="-11.2875" width="327.575" height="135.575"/></clipPath><clipPath id="clip6"><rect x="0" y="0" width="305" height="113"/></clipPath><clipPath id="clip7"><rect x="1.93848" y="2.02213" width="251.575" height="23.5749"/></clipPath><clipPath id="clip8"><rect x="0" y="0" width="255" height="27"/></clipPath><clipPath id="clip9"><rect x="-11.2875" y="-11.2875" width="328.575" height="135.575"/></clipPath><clipPath id="clip10"><rect x="0" y="0" width="306" height="113"/></clipPath><clipPath id="clip11"><rect x="2.15906" y="1.89037" width="251.575" height="23.5749"/></clipPath><clipPath id="clip12"><rect x="0" y="0" width="255" height="27"/></clipPath></defs><g clip-path="url(#clip4)" transform="translate(-1095 9)"><g clip-path="url(#clip5)" filter="url(#fx0)" transform="translate(1096 -5)"><g clip-path="url(#clip6)"><path d="M19.803-2.214 7.093-2.214 7.093-11.89 18.04-11.89 18.04-13.858 7.093-13.858 7.093-23.206 19.639-23.206 19.639-25.42 4.51-25.42 4.51 0 19.557 0ZM40.5467 0.082 43.2937-0.123 35.8317-9.963 43.4167-19.844 40.7107-19.844 34.3557-11.398 27.7137-19.967 25.0077-19.762 32.6337-9.84 25.0077 0 27.6317 0 34.0687-8.446ZM56.2883-1.681C55.0583-1.681 53.7873-1.886 52.4343-2.378 52.3933-8.651 52.3113-12.587 52.2293-16.236 53.7053-17.425 55.5503-18.204 57.4773-18.204 60.8803-18.204 63.4633-15.334 63.4633-10.168 63.4633-4.715 60.2243-1.681 56.2883-1.681ZM52.4343 6.765 52.4343 0.205C53.4183 0.41 54.4023 0.492 55.3043 0.492 60.9623 0.492 65.9233-3.731 65.9233-10.783 65.9233-16.605 62.6843-20.295 58.3793-20.295 55.7963-20.295 53.7463-19.147 52.1473-17.835L51.9833-19.926 49.6873-19.762C49.8513-15.416 49.9333-9.102 49.9333 0.041L49.9333 6.97ZM87.2 0.451 87.528-1.722C77.36-2.009 74.367-4.182 74.121-9.307L88.225-9.635C88.963-15.949 86.216-20.336 80.886-20.336 75.761-20.336 71.661-15.703 71.661-9.676 71.661-3.239 75.064 0.246 87.2 0.451ZM80.394-18.245C84.166-18.245 86.011-15.416 85.929-11.275L74.121-10.947C74.367-15.539 76.745-18.245 80.394-18.245ZM109.379 0 109.625-1.927 102.45-1.927C102.409-6.847 102.327-11.152 102.286-14.883 104.459-16.482 107.452-17.589 111.839-17.917L111.716-20.541C107.411-20.09 104.213-18.45 102.204-16.523 102.163-17.466 102.04-19.311 101.999-19.844L94.7007-19.844 94.4957-18.081 99.7437-17.794C99.8667-13.53 99.9077-8.487 100.031-1.927L94.4137-1.927 94.4137 0ZM127.703-23.247 128.031-28.659 125.407-28.659 125.202-23.247ZM135.534 0 135.739-1.927 127.908-1.927 127.908-19.844 117.904-19.844 117.699-18.122 125.407-17.794 125.407-1.927 117.617-1.927 117.617 0ZM155.95 0.451 156.278-1.722C146.11-2.009 143.117-4.182 142.871-9.307L156.975-9.635C157.713-15.949 154.966-20.336 149.636-20.336 144.511-20.336 140.411-15.703 140.411-9.676 140.411-3.239 143.814 0.246 155.95 0.451ZM149.144-18.245C152.916-18.245 154.761-15.416 154.679-11.275L142.871-10.947C143.117-15.539 145.495-18.245 149.144-18.245ZM172.471-18.163C175.3-18.163 176.981-16.687 176.981-12.628L176.981 0 179.441 0 179.441-13.407C179.441-18.286 177.063-20.295 173.373-20.295 170.503-20.295 168.289-19.024 166.567-17.671L166.362-19.926 164.066-19.762C164.271-15.129 164.353-8.487 164.353 0L166.854 0C166.854-7.38 166.772-12.628 166.649-16.154 168.412-17.343 170.298-18.163 172.471-18.163ZM186.818-9.635C186.818-3.608 190.221 0.82 202.07 0.164L202.398-1.968C192.107-1.517 189.278-4.633 189.278-9.963 189.278-14.432 191.656-17.63 202.07-17.794L201.906-20.172C190.549-19.803 186.818-15.006 186.818-9.635ZM224.7 0.451 225.028-1.722C214.86-2.009 211.867-4.182 211.621-9.307L225.725-9.635C226.463-15.949 223.716-20.336 218.386-20.336 213.261-20.336 209.161-15.703 209.161-9.676 209.161-3.239 212.564 0.246 224.7 0.451ZM217.894-18.245C221.666-18.245 223.511-15.416 223.429-11.275L211.621-10.947C211.867-15.539 214.245-18.245 217.894-18.245Z" fill="#FFFFFF" fill-rule="nonzero" fill-opacity="1" transform="matrix(1 0 0 1 38.2258 65)"/></g></g><text fill="#FFFFFF" fill-opacity="1" font-family="Operator Mono Light,Operator Mono Light_MSFontService,sans-serif" font-style="normal" font-variant="normal" font-weight="300" font-stretch="normal" font-size="41" text-anchor="start" direction="ltr" writing-mode="lr-tb" unicode-bidi="normal" text-decoration="none" transform="matrix(1 0 0 1 1134.23 57)">Experience</text><g clip-path="url(#clip7)" filter="url(#fx1)" transform="translate(1121 49)"><g clip-path="url(#clip8)"><path d="M13.2258 13.3096 70.4758 13.3096 127.726 13.3096 184.976 13.3096 242.226 13.3096 242.226 14.3096 184.976 14.3096 127.726 14.3096 70.4758 14.3096 13.2258 14.3096Z" fill="#FFFFFF" fill-rule="evenodd" fill-opacity="1"/></g></g><path d="M1134.23 58.8887 1191.48 58.8887 1248.73 58.8887 1305.98 58.8887 1363.23 58.8887 1363.23 59.8887 1305.98 59.8887 1248.73 59.8887 1191.48 59.8887 1134.23 59.8887Z" fill="#FFFFFF" fill-rule="evenodd" fill-opacity="1"/><g clip-path="url(#clip9)" filter="url(#fx2)" transform="translate(1099 -6)"><g clip-path="url(#clip10)"><path d="M19.803-2.214 7.093-2.214 7.093-11.89 18.04-11.89 18.04-13.858 7.093-13.858 7.093-23.206 19.639-23.206 19.639-25.42 4.51-25.42 4.51 0 19.557 0ZM40.5467 0.082 43.2937-0.123 35.8317-9.963 43.4167-19.844 40.7107-19.844 34.3557-11.398 27.7137-19.967 25.0077-19.762 32.6337-9.84 25.0077 0 27.6317 0 34.0687-8.446ZM56.2883-1.681C55.0583-1.681 53.7873-1.886 52.4343-2.378 52.3933-8.651 52.3113-12.587 52.2293-16.236 53.7053-17.425 55.5503-18.204 57.4773-18.204 60.8803-18.204 63.4633-15.334 63.4633-10.168 63.4633-4.715 60.2243-1.681 56.2883-1.681ZM52.4343 6.765 52.4343 0.205C53.4183 0.41 54.4023 0.492 55.3043 0.492 60.9623 0.492 65.9233-3.731 65.9233-10.783 65.9233-16.605 62.6843-20.295 58.3793-20.295 55.7963-20.295 53.7463-19.147 52.1473-17.835L51.9833-19.926 49.6873-19.762C49.8513-15.416 49.9333-9.102 49.9333 0.041L49.9333 6.97ZM87.2 0.451 87.528-1.722C77.36-2.009 74.367-4.182 74.121-9.307L88.225-9.635C88.963-15.949 86.216-20.336 80.886-20.336 75.761-20.336 71.661-15.703 71.661-9.676 71.661-3.239 75.064 0.246 87.2 0.451ZM80.394-18.245C84.166-18.245 86.011-15.416 85.929-11.275L74.121-10.947C74.367-15.539 76.745-18.245 80.394-18.245ZM109.379 0 109.625-1.927 102.45-1.927C102.409-6.847 102.327-11.152 102.286-14.883 104.459-16.482 107.452-17.589 111.839-17.917L111.716-20.541C107.411-20.09 104.213-18.45 102.204-16.523 102.163-17.466 102.04-19.311 101.999-19.844L94.7007-19.844 94.4957-18.081 99.7437-17.794C99.8667-13.53 99.9077-8.487 100.031-1.927L94.4137-1.927 94.4137 0ZM127.703-23.247 128.031-28.659 125.407-28.659 125.202-23.247ZM135.534 0 135.739-1.927 127.908-1.927 127.908-19.844 117.904-19.844 117.699-18.122 125.407-17.794 125.407-1.927 117.617-1.927 117.617 0ZM155.95 0.451 156.278-1.722C146.11-2.009 143.117-4.182 142.871-9.307L156.975-9.635C157.713-15.949 154.966-20.336 149.636-20.336 144.511-20.336 140.411-15.703 140.411-9.676 140.411-3.239 143.814 0.246 155.95 0.451ZM149.144-18.245C152.916-18.245 154.761-15.416 154.679-11.275L142.871-10.947C143.117-15.539 145.495-18.245 149.144-18.245ZM172.471-18.163C175.3-18.163 176.981-16.687 176.981-12.628L176.981 0 179.441 0 179.441-13.407C179.441-18.286 177.063-20.295 173.373-20.295 170.503-20.295 168.289-19.024 166.567-17.671L166.362-19.926 164.066-19.762C164.271-15.129 164.353-8.487 164.353 0L166.854 0C166.854-7.38 166.772-12.628 166.649-16.154 168.412-17.343 170.298-18.163 172.471-18.163ZM186.818-9.635C186.818-3.608 190.221 0.82 202.07 0.164L202.398-1.968C192.107-1.517 189.278-4.633 189.278-9.963 189.278-14.432 191.656-17.63 202.07-17.794L201.906-20.172C190.549-19.803 186.818-15.006 186.818-9.635ZM224.7 0.451 225.028-1.722C214.86-2.009 211.867-4.182 211.621-9.307L225.725-9.635C226.463-15.949 223.716-20.336 218.386-20.336 213.261-20.336 209.161-15.703 209.161-9.676 209.161-3.239 212.564 0.246 224.7 0.451ZM217.894-18.245C221.666-18.245 223.511-15.416 223.429-11.275L211.621-10.947C211.867-15.539 214.245-18.245 217.894-18.245Z" fill="#7F7F7F" fill-rule="nonzero" fill-opacity="1" transform="matrix(1 0 0 1 38.4465 65)"/></g></g><text fill="#7F7F7F" fill-opacity="1" font-family="Operator Mono Light,Operator Mono Light_MSFontService,sans-serif" font-style="normal" font-variant="normal" font-weight="300" font-stretch="normal" font-size="41" text-anchor="start" direction="ltr" writing-mode="lr-tb" unicode-bidi="normal" text-decoration="none" transform="matrix(1 0 0 1 1137.45 56)">Experience</text><g clip-path="url(#clip11)" filter="url(#fx3)" transform="translate(1124 48)"><g clip-path="url(#clip12)"><path d="M13.4465 13.1778 70.6965 13.1778 127.947 13.1778 185.197 13.1778 242.447 13.1778 242.447 14.1778 185.197 14.1778 127.947 14.1778 70.6965 14.1778 13.4465 14.1778Z" fill="#7F7F7F" fill-rule="evenodd" fill-opacity="1"/></g></g><path d="M1137.45 57.7569 1194.7 57.7569 1251.95 57.7569 1309.2 57.7569 1366.45 57.7569 1366.45 58.7569 1309.2 58.7569 1251.95 58.7569 1194.7 58.7569 1137.45 58.7569Z" fill="#7F7F7F" fill-rule="evenodd" fill-opacity="1"/></g></svg>