<svg width="504" height="490" xmlns="http://www.w3.org/2000/svg" xmlns:xlink="http://www.w3.org/1999/xlink" xml:space="preserve" overflow="hidden"><defs><filter id="fx0" x="-10%" y="-10%" width="120%" height="120%" filterUnits="userSpaceOnUse" primitiveUnits="userSpaceOnUse"><feComponentTransfer color-interpolation-filters="sRGB"><feFuncR type="discrete" tableValues="1.000000 1.000000"/><feFuncG type="discrete" tableValues="1.000000 1.000000"/><feFuncB type="discrete" tableValues="1.000000 1.000000"/><feFuncA type="linear" slope="1.000000" intercept="0.000000"/></feComponentTransfer><feGaussianBlur stdDeviation="15.439023 15.471282"/></filter><filter id="fx1" x="-10%" y="-10%" width="120%" height="120%" filterUnits="userSpaceOnUse" primitiveUnits="userSpaceOnUse"><feComponentTransfer color-interpolation-filters="sRGB"><feFuncR type="discrete" tableValues="0.000000 0.000000"/><feFuncG type="discrete" tableValues="0.000000 0.000000"/><feFuncB type="discrete" tableValues="0.000000 0.000000"/><feFuncA type="linear" slope="0.400000" intercept="0.000000"/></feComponentTransfer><feGaussianBlur stdDeviation="6.111111 6.111111"/></filter><filter id="fx2" x="-10%" y="-10%" width="120%" height="120%" filterUnits="userSpaceOnUse" primitiveUnits="userSpaceOnUse"><feComponentTransfer color-interpolation-filters="sRGB"><feFuncR type="discrete" tableValues="1.000000 1.000000"/><feFuncG type="discrete" tableValues="1.000000 1.000000"/><feFuncB type="discrete" tableValues="1.000000 1.000000"/><feFuncA type="linear" slope="1.000000" intercept="0.000000"/></feComponentTransfer><feGaussianBlur stdDeviation="14.299567 14.349742"/></filter><clipPath id="clip3"><rect x="206" y="403" width="504" height="490"/></clipPath><clipPath id="clip4"><rect x="0.275352" y="0.359604" width="125.449" height="122.448"/></clipPath><clipPath id="clip5"><rect x="0" y="0" width="126" height="123"/></clipPath><clipPath id="clip6"><rect x="46" y="48" width="34" height="29"/></clipPath><clipPath id="clip7"><rect x="46" y="48" width="34" height="29"/></clipPath><clipPath id="clip8"><rect x="46" y="48" width="34" height="29"/></clipPath><clipPath id="clip9"><rect x="46" y="46" width="34" height="29"/></clipPath><clipPath id="clip10"><rect x="46" y="46" width="34" height="29"/></clipPath><clipPath id="clip11"><rect x="46" y="46" width="34" height="29"/></clipPath><clipPath id="clip12"><rect x="1.66656" y="1.41681" width="167.667" height="148.666"/></clipPath><clipPath id="clip13"><rect x="0" y="0" width="171" height="152"/></clipPath><clipPath id="clip14"><rect x="19" y="19" width="132" height="113"/></clipPath><clipPath id="clip15"><rect x="19" y="19" width="132" height="113"/></clipPath><clipPath id="clip16"><rect x="19" y="19" width="132" height="113"/></clipPath><clipPath id="clip17"><rect x="392" y="577" width="132" height="112"/></clipPath><clipPath id="clip18"><rect x="392" y="577" width="132" height="112"/></clipPath><clipPath id="clip19"><rect x="392" y="577" width="132" height="112"/></clipPath><clipPath id="clip20"><rect x="0.430008" y="0.431519" width="123.14" height="118.137"/></clipPath><clipPath id="clip21"><rect x="0" y="0" width="124" height="119"/></clipPath><clipPath id="clip22"><rect x="43" y="43" width="38" height="33"/></clipPath><clipPath id="clip23"><rect x="43" y="43" width="38" height="33"/></clipPath><clipPath id="clip24"><rect x="43" y="43" width="38" height="33"/></clipPath><clipPath id="clip25"><rect x="392" y="570" width="132" height="114"/></clipPath><clipPath id="clip26"><rect x="392" y="570" width="132" height="114"/></clipPath><clipPath id="clip27"><rect x="392" y="570" width="132" height="114"/></clipPath></defs><g clip-path="url(#clip3)" transform="translate(-206 -403)"><g clip-path="url(#clip4)" filter="url(#fx0)" transform="matrix(3.99206 0 0 3.98374 207 403)"><g clip-path="url(#clip5)"><g clip-path="url(#clip6)" transform="matrix(1 0 0 1 -6.25849e-07 -1.0103e-05)"><g clip-path="url(#clip7)" transform="matrix(1 0 0 1 -6.25849e-07 -1.0103e-05)"><g clip-path="url(#clip8)" transform="matrix(1 0 0 1 -6.25849e-07 -1.0103e-05)"><path d="M15.744 28.1142 31.4879 20.2422 28.0614 15.8362 15.744 21.9954Z" fill="#BFBFBF" fill-rule="nonzero" fill-opacity="1" transform="matrix(1.04215 0 0 1 46.5924 48.2796)"/><path d="M19.8003 5.21687 15.744 0 15.744 7.24335Z" fill="#BFBFBF" fill-rule="nonzero" fill-opacity="1" transform="matrix(1.04215 0 0 1 46.5924 48.2796)"/><path d="M15.744 13.9908 23.5788 10.0728 20.5043 6.12103 15.744 8.50061Z" fill="#BFBFBF" fill-rule="nonzero" fill-opacity="1" transform="matrix(1.04215 0 0 1 46.5924 48.2796)"/><path d="M15.744 15.248 15.744 20.7382 27.3574 14.9309 24.2828 10.9803Z" fill="#BFBFBF" fill-rule="nonzero" fill-opacity="1" transform="matrix(1.04215 0 0 1 46.5924 48.2796)"/><path d="M15.744 0 11.6876 5.21687 15.744 7.24335Z" fill="#BFBFBF" fill-rule="nonzero" fill-opacity="0.5" transform="matrix(1.04215 0 0 1 46.5924 48.2796)"/><path d="M15.744 8.50061 10.9837 6.12103 7.90909 10.0728 15.744 13.9908Z" fill="#BFBFBF" fill-rule="nonzero" fill-opacity="0.5" transform="matrix(1.04215 0 0 1 46.5924 48.2796)"/><path d="M15.744 15.248 7.20511 10.9803 4.13054 14.9309 15.744 20.7382Z" fill="#BFBFBF" fill-rule="nonzero" fill-opacity="0.5" transform="matrix(1.04215 0 0 1 46.5924 48.2796)"/><path d="M3.42656 15.8362 0 20.2422 15.744 28.1142 15.744 21.9954Z" fill="#BFBFBF" fill-rule="nonzero" fill-opacity="0.5" transform="matrix(1.04215 0 0 1 46.5924 48.2796)"/></g></g></g><g clip-path="url(#clip9)" transform="matrix(1 0 0 1 -6.25849e-07 -1.0103e-05)"><g clip-path="url(#clip10)" transform="matrix(1 0 0 1 -6.25849e-07 -1.0103e-05)"><g clip-path="url(#clip11)" transform="matrix(1 0 0 1 -6.25849e-07 -1.0103e-05)"><path d="M15.744 28.1143 31.488 20.2423 28.0614 15.8362 15.744 21.9955Z" fill="#FFFFFF" fill-rule="nonzero" fill-opacity="1" transform="matrix(1.04215 0 0 1 46.5924 46.7735)"/><path d="M19.8003 5.21689 15.744 0 15.744 7.24337Z" fill="#FFFFFF" fill-rule="nonzero" fill-opacity="1" transform="matrix(1.04215 0 0 1 46.5924 46.7735)"/><path d="M15.744 13.9908 23.5789 10.0728 20.5043 6.12105 15.744 8.50064Z" fill="#FFFFFF" fill-rule="nonzero" fill-opacity="1" transform="matrix(1.04215 0 0 1 46.5924 46.7735)"/><path d="M15.744 15.2481 15.744 20.7382 27.3575 14.9309 24.2829 10.9803Z" fill="#FFFFFF" fill-rule="nonzero" fill-opacity="1" transform="matrix(1.04215 0 0 1 46.5924 46.7735)"/><path d="M15.744 0 11.6877 5.21689 15.744 7.24337Z" fill="#FFFFFF" fill-rule="nonzero" fill-opacity="0.5" transform="matrix(1.04215 0 0 1 46.5924 46.7735)"/><path d="M15.744 8.50064 10.9837 6.12105 7.90912 10.0728 15.744 13.9908Z" fill="#FFFFFF" fill-rule="nonzero" fill-opacity="0.5" transform="matrix(1.04215 0 0 1 46.5924 46.7735)"/><path d="M15.744 15.2481 7.20513 10.9803 4.13055 14.9309 15.744 20.7382Z" fill="#FFFFFF" fill-rule="nonzero" fill-opacity="0.5" transform="matrix(1.04215 0 0 1 46.5924 46.7735)"/><path d="M3.42657 15.8362 0 20.2423 15.744 28.1143 15.744 21.9955Z" fill="#FFFFFF" fill-rule="nonzero" fill-opacity="0.5" transform="matrix(1.04215 0 0 1 46.5924 46.7735)"/></g></g></g></g></g><g clip-path="url(#clip12)" filter="url(#fx1)" transform="translate(373 571)"><g clip-path="url(#clip13)"><g clip-path="url(#clip14)"><g clip-path="url(#clip15)"><g clip-path="url(#clip16)"><path d="M62.7198 112 125.44 80.6398 111.789 63.0872 62.7198 87.6241Z" fill="#BFBFBF" fill-rule="nonzero" fill-opacity="1" transform="matrix(1.04433 0 0 1 19.9999 19.7502)"/><path d="M78.8792 20.7827 62.7198 0 62.7198 28.8556Z" fill="#BFBFBF" fill-rule="nonzero" fill-opacity="1" transform="matrix(1.04433 0 0 1 19.9999 19.7502)"/><path d="M62.7198 55.7355 93.9319 40.1273 81.6836 24.3846 62.7198 33.8642Z" fill="#BFBFBF" fill-rule="nonzero" fill-opacity="1" transform="matrix(1.04433 0 0 1 19.9999 19.7502)"/><path d="M62.7198 60.7442 62.7198 82.6155 108.985 59.4808 96.7364 43.7426Z" fill="#BFBFBF" fill-rule="nonzero" fill-opacity="1" transform="matrix(1.04433 0 0 1 19.9999 19.7502)"/><path d="M62.7198 0 46.5605 20.7827 62.7198 28.8556Z" fill="#BFBFBF" fill-rule="nonzero" fill-opacity="0.5" transform="matrix(1.04433 0 0 1 19.9999 19.7502)"/><path d="M62.7198 33.8642 43.756 24.3846 31.5078 40.1273 62.7198 55.7355Z" fill="#BFBFBF" fill-rule="nonzero" fill-opacity="0.5" transform="matrix(1.04433 0 0 1 19.9999 19.7502)"/><path d="M62.7198 60.7442 28.7033 43.7426 16.455 59.4808 62.7198 82.6155Z" fill="#BFBFBF" fill-rule="nonzero" fill-opacity="0.5" transform="matrix(1.04433 0 0 1 19.9999 19.7502)"/><path d="M13.6505 63.0872 0 80.6398 62.7198 112 62.7198 87.6241Z" fill="#BFBFBF" fill-rule="nonzero" fill-opacity="0.5" transform="matrix(1.04433 0 0 1 19.9999 19.7502)"/></g></g></g></g></g><g clip-path="url(#clip17)"><g clip-path="url(#clip18)"><g clip-path="url(#clip19)"><path d="M62.7198 112 125.44 80.6398 111.789 63.0872 62.7198 87.6241Z" fill="#BFBFBF" fill-rule="nonzero" fill-opacity="1" transform="matrix(1.04433 0 0 1 393 577)"/><path d="M78.8792 20.7827 62.7198 0 62.7198 28.8556Z" fill="#BFBFBF" fill-rule="nonzero" fill-opacity="1" transform="matrix(1.04433 0 0 1 393 577)"/><path d="M62.7198 55.7355 93.9319 40.1273 81.6836 24.3846 62.7198 33.8642Z" fill="#BFBFBF" fill-rule="nonzero" fill-opacity="1" transform="matrix(1.04433 0 0 1 393 577)"/><path d="M62.7198 60.7442 62.7198 82.6155 108.985 59.4808 96.7364 43.7426Z" fill="#BFBFBF" fill-rule="nonzero" fill-opacity="1" transform="matrix(1.04433 0 0 1 393 577)"/><path d="M62.7198 0 46.5605 20.7827 62.7198 28.8556Z" fill="#BFBFBF" fill-rule="nonzero" fill-opacity="0.5" transform="matrix(1.04433 0 0 1 393 577)"/><path d="M62.7198 33.8642 43.756 24.3846 31.5078 40.1273 62.7198 55.7355Z" fill="#BFBFBF" fill-rule="nonzero" fill-opacity="0.5" transform="matrix(1.04433 0 0 1 393 577)"/><path d="M62.7198 60.7442 28.7033 43.7426 16.455 59.4808 62.7198 82.6155Z" fill="#BFBFBF" fill-rule="nonzero" fill-opacity="0.5" transform="matrix(1.04433 0 0 1 393 577)"/><path d="M13.6505 63.0872 0 80.6398 62.7198 112 62.7198 87.6241Z" fill="#BFBFBF" fill-rule="nonzero" fill-opacity="0.5" transform="matrix(1.04433 0 0 1 393 577)"/></g></g></g><g clip-path="url(#clip20)" filter="url(#fx2)" transform="matrix(3.50806 0 0 3.4958 241 419)"><g clip-path="url(#clip21)"><g clip-path="url(#clip22)" transform="matrix(1 0 0 1 1.37091e-06 -8.91089e-06)"><g clip-path="url(#clip23)" transform="matrix(1 0 0 1 1.37091e-06 -8.91089e-06)"><g clip-path="url(#clip24)" transform="matrix(1 0 0 1 1.37091e-06 -8.91089e-06)"><path d="M17.9415 32.0385 35.8831 23.0677 31.9782 18.0466 17.9415 25.0656Z" fill="#FFFFFF" fill-rule="nonzero" fill-opacity="1" transform="matrix(1.04067 0 0 1 43.3287 43.4808)"/><path d="M22.5641 5.94506 17.9415 0 17.9415 8.25439Z" fill="#FFFFFF" fill-rule="nonzero" fill-opacity="1" transform="matrix(1.04067 0 0 1 43.3287 43.4808)"/><path d="M17.9415 15.9436 26.87 11.4787 23.3663 6.97542 17.9415 9.68715Z" fill="#FFFFFF" fill-rule="nonzero" fill-opacity="1" transform="matrix(1.04067 0 0 1 43.3287 43.4808)"/><path d="M17.9415 17.3764 17.9415 23.6329 31.176 17.015 27.6723 12.5129Z" fill="#FFFFFF" fill-rule="nonzero" fill-opacity="1" transform="matrix(1.04067 0 0 1 43.3287 43.4808)"/><path d="M17.9415 0 13.319 5.94506 17.9415 8.25439Z" fill="#FFFFFF" fill-rule="nonzero" fill-opacity="0.5" transform="matrix(1.04067 0 0 1 43.3287 43.4808)"/><path d="M17.9415 9.68715 12.5168 6.97542 9.01306 11.4787 17.9415 15.9436Z" fill="#FFFFFF" fill-rule="nonzero" fill-opacity="0.5" transform="matrix(1.04067 0 0 1 43.3287 43.4808)"/><path d="M17.9415 17.3764 8.21082 12.5129 4.70709 17.015 17.9415 23.6329Z" fill="#FFFFFF" fill-rule="nonzero" fill-opacity="0.5" transform="matrix(1.04067 0 0 1 43.3287 43.4808)"/><path d="M3.90485 18.0466 0 23.0677 17.9415 32.0385 17.9415 25.0656Z" fill="#FFFFFF" fill-rule="nonzero" fill-opacity="0.5" transform="matrix(1.04067 0 0 1 43.3287 43.4808)"/></g></g></g></g></g><g clip-path="url(#clip25)"><g clip-path="url(#clip26)"><g clip-path="url(#clip27)"><path d="M62.72 112 125.44 80.64 111.789 63.0874 62.72 87.6244Z" fill="#FFFFFF" fill-rule="nonzero" fill-opacity="1" transform="matrix(1.04432 0 0 1 393 571)"/><path d="M78.8794 20.7827 62.72 0 62.72 28.8557Z" fill="#FFFFFF" fill-rule="nonzero" fill-opacity="1" transform="matrix(1.04432 0 0 1 393 571)"/><path d="M62.72 55.7357 93.9322 40.1274 81.6839 24.3847 62.72 33.8643Z" fill="#FFFFFF" fill-rule="nonzero" fill-opacity="1" transform="matrix(1.04432 0 0 1 393 571)"/><path d="M62.72 60.7444 62.72 82.6157 108.985 59.481 96.7367 43.7427Z" fill="#FFFFFF" fill-rule="nonzero" fill-opacity="1" transform="matrix(1.04432 0 0 1 393 571)"/><path d="M62.72 0 46.5607 20.7827 62.72 28.8557Z" fill="#FFFFFF" fill-rule="nonzero" fill-opacity="0.5" transform="matrix(1.04432 0 0 1 393 571)"/><path d="M62.72 33.8643 43.7562 24.3847 31.5079 40.1274 62.72 55.7357Z" fill="#FFFFFF" fill-rule="nonzero" fill-opacity="0.5" transform="matrix(1.04432 0 0 1 393 571)"/><path d="M62.72 60.7444 28.7034 43.7427 16.455 59.481 62.72 82.6157Z" fill="#FFFFFF" fill-rule="nonzero" fill-opacity="0.5" transform="matrix(1.04432 0 0 1 393 571)"/><path d="M13.6506 63.0874 0 80.64 62.72 112 62.72 87.6244Z" fill="#FFFFFF" fill-rule="nonzero" fill-opacity="0.5" transform="matrix(1.04432 0 0 1 393 571)"/></g></g></g></g></svg>