<svg width="239" height="115" xmlns="http://www.w3.org/2000/svg" xmlns:xlink="http://www.w3.org/1999/xlink" xml:space="preserve" overflow="hidden"><defs><filter id="fx0" x="-10%" y="-10%" width="120%" height="120%" filterUnits="userSpaceOnUse" primitiveUnits="userSpaceOnUse"><feComponentTransfer color-interpolation-filters="sRGB"><feFuncR type="discrete" tableValues="1.000000 1.000000"/><feFuncG type="discrete" tableValues="1.000000 1.000000"/><feFuncB type="discrete" tableValues="1.000000 1.000000"/><feFuncA type="linear" slope="1.000000" intercept="0.000000"/></feComponentTransfer><feGaussianBlur stdDeviation="3.762488 3.762488"/></filter><filter id="fx1" x="-10%" y="-10%" width="120%" height="120%" filterUnits="userSpaceOnUse" primitiveUnits="userSpaceOnUse"><feComponentTransfer color-interpolation-filters="sRGB"><feFuncR type="discrete" tableValues="1.000000 1.000000"/><feFuncG type="discrete" tableValues="1.000000 1.000000"/><feFuncB type="discrete" tableValues="1.000000 1.000000"/><feFuncA type="linear" slope="1.000000" intercept="0.000000"/></feComponentTransfer><feGaussianBlur stdDeviation="3.762488 3.762488"/></filter><clipPath id="clip2"><rect x="2653" y="105" width="239" height="115"/></clipPath><clipPath id="clip3"><rect x="-11.2874" y="-11.2875" width="258.575" height="136.575"/></clipPath><clipPath id="clip4"><rect x="0" y="0" width="236" height="114"/></clipPath><clipPath id="clip5"><rect x="1.43652" y="1.69659" width="182.575" height="23.5749"/></clipPath><clipPath id="clip6"><rect x="0" y="0" width="186" height="27"/></clipPath></defs><g clip-path="url(#clip2)" transform="translate(-2653 -105)"><g clip-path="url(#clip3)" filter="url(#fx0)" transform="translate(2653 104)"><g clip-path="url(#clip4)"><path d="M19.516-2.091C8.323-1.64 5.453-5.658 5.453-12.628 5.453-18.655 7.749-22.919 19.27-23.247L19.106-25.707C6.765-25.215 2.829-19.188 2.829-12.259 2.829-4.715 6.396 0.902 19.27 0.123ZM33.8637 0.574C38.8247 0.574 43.0067-3.731 43.0067-10.25 43.0067-16.564 39.4807-20.377 34.5607-20.377 29.5997-20.377 25.3767-16.072 25.3767-9.635 25.3767-3.28 28.9847 0.574 33.8637 0.574ZM34.2327-1.517C30.5017-1.517 27.8777-4.633 27.8777-10.127 27.8777-15.334 30.5017-18.286 34.1507-18.286 37.9227-18.286 40.5467-15.211 40.5467-9.758 40.5467-4.51 37.9227-1.517 34.2327-1.517ZM57.8873-18.163C60.7163-18.163 62.3973-16.687 62.3973-12.628L62.3973 0 64.8573 0 64.8573-13.407C64.8573-18.286 62.4793-20.295 58.7893-20.295 55.9193-20.295 53.7053-19.024 51.9833-17.671L51.7783-19.926 49.4823-19.762C49.6873-15.129 49.7693-8.487 49.7693 0L52.2703 0C52.2703-7.38 52.1883-12.628 52.0653-16.154 53.8283-17.343 55.7143-18.163 57.8873-18.163ZM87.569 0.369 87.774-1.804C80.763-1.927 78.795-2.911 78.795-6.601L78.795-17.876 87.364-17.876 87.364-19.844 78.795-19.844 78.795-25.707 76.335-25.461 76.335-19.844 72.481-19.844 72.153-17.876 76.335-17.876 76.335-6.191C76.335-1.435 79.205 0.41 87.569 0.369ZM101.671-1.558C98.9237-1.558 97.0787-2.87 97.0787-5.207 97.0787-8.323 99.9897-10.086 107.985-9.266 107.985-7.052 108.026-5.453 108.067-4.059 106.386-2.665 104.008-1.558 101.671-1.558ZM108.436 0.082 110.691-0.041C110.568-2.952 110.445-5.535 110.445-9.881 110.445-17.425 107.288-19.803 96.1357-20.213L95.8487-17.999C104.951-17.63 107.698-16.277 107.944-11.193 98.8827-11.849 94.6187-8.856 94.6187-4.633 94.6187-1.435 97.1607 0.492 100.769 0.492 104.008 0.492 106.55-1.025 108.19-2.542 108.272-1.681 108.395-0.492 108.436 0.082ZM118.068-9.635C118.068-3.608 121.471 0.82 133.32 0.164L133.648-1.968C123.357-1.517 120.528-4.633 120.528-9.963 120.528-14.432 122.906-17.63 133.32-17.794L133.156-20.172C121.799-19.803 118.068-15.006 118.068-9.635ZM156.319 0.369 156.524-1.804C149.513-1.927 147.545-2.911 147.545-6.601L147.545-17.876 156.114-17.876 156.114-19.844 147.545-19.844 147.545-25.707 145.085-25.461 145.085-19.844 141.231-19.844 140.903-17.876 145.085-17.876 145.085-6.191C145.085-1.435 147.955 0.41 156.319 0.369Z" fill="#FFFFFF" fill-rule="nonzero" fill-opacity="1" transform="matrix(1 0 0 1 37.7239 66)"/></g></g><text fill="#FFFFFF" fill-opacity="1" font-family="Operator Mono Light,Operator Mono Light_MSFontService,sans-serif" font-style="normal" font-variant="normal" font-weight="300" font-stretch="normal" font-size="41" text-anchor="start" direction="ltr" writing-mode="lr-tb" unicode-bidi="normal" text-decoration="none" transform="matrix(1 0 0 1 2690.72 167)">Contact</text><g clip-path="url(#clip5)" filter="url(#fx1)" transform="translate(2678 159)"><g clip-path="url(#clip6)"><path d="M12.7239 12.9841 52.7239 12.9841 92.7239 12.9841 132.724 12.9841 172.724 12.9841 172.724 13.9841 132.724 13.9841 92.7239 13.9841 52.7239 13.9841 12.7239 13.9841Z" fill="#FFFFFF" fill-rule="evenodd" fill-opacity="1"/></g></g><path d="M2690.72 168.563 2730.72 168.563 2770.72 168.563 2810.72 168.563 2850.72 168.563 2850.72 169.563 2810.72 169.563 2770.72 169.563 2730.72 169.563 2690.72 169.563Z" fill="#FFFFFF" fill-rule="evenodd" fill-opacity="1"/></g></svg>