<svg xmlns="http://www.w3.org/2000/svg" version="1" viewBox="0 0 256 256"><path fill="#FFF" d="m232 188-104 60-104-60V68L128 8l104 60z"/><path fill="#E9E9E9" d="m232 188-104 60V8l104 60z"/><path fill="#D73F45" d="M128 8 24 68v60h104z"/><path fill="#D02228" d="M128 8v120h104V68z"/><path fill="#FFF" d="M58.562 86.351c0-10.487 6.165-19.54 15.083-23.77a24.463 24.463 0 0 0-3.687-.277c-13.344 0-24.162 10.767-24.162 24.047 0 13.281 10.818 24.047 24.162 24.047 1.255 0 2.485-.095 3.687-.276-8.918-4.231-15.083-13.284-15.083-23.771z"/><path fill="#FFF" d="m76.014 86.789-3.618-2.799-3.595 2.833 1.427-4.461-3.689-2.696 4.502.039 1.313-4.499 1.356 4.486 4.501-.084-3.665 2.733zM89.463 76.774l-3.62-2.798-3.593 2.833 1.427-4.461-3.689-2.695 4.501.038 1.316-4.499 1.353 4.486 4.501-.084-3.663 2.732zM102.911 86.789l-3.618-2.799-3.595 2.833 1.427-4.461-3.687-2.696 4.499.039 1.315-4.499 1.355 4.486 4.501-.084-3.665 2.733zM81.088 102.532l-3.62-2.796-3.593 2.832 1.427-4.461-3.687-2.696 4.499.041 1.315-4.5 1.355 4.485 4.501-.085-3.665 2.734zM97.896 102.532l-3.619-2.796-3.592 2.832 1.426-4.461-3.689-2.696 4.502.041 1.313-4.5 1.356 4.485 4.5-.085-3.664 2.734z"/></svg>