<svg xmlns="http://www.w3.org/2000/svg" width="48" height="48"><g fill="none" fill-rule="evenodd"><path fill="#FFF" d="m24 0 20.785 12v24L24 48 3.215 36V12L24 0z"/><path fill="#E94B35" fill-rule="nonzero" d="M44.785 14H28.369L14.84 5.288 24 0l20.785 12v2z"/><path fill="#227FBB" fill-rule="nonzero" d="M14.84 42.712 28.37 34h16.416v2L24 48l-9.16-5.288z"/><path fill="#1AAF5D" d="M12.892 6.413 27.781 16h17.004v16H27.78l-14.888 9.587L3.215 36V12l9.677-5.587z"/><path fill="#F2C500" fill-rule="nonzero" d="M3.215 13.651 19.774 24 3.215 34.349V13.65z"/><path fill="#000" d="M3.215 16.01 16 24 3.215 31.99V16.01z"/></g></svg>