<svg xmlns="http://www.w3.org/2000/svg" width="48" height="48"><g fill="none" fill-rule="evenodd"><path fill="#E94B35" d="m24 0 20.785 12v24L24 48 3.215 36V12z"/><path fill="#F2C500" d="m12.5 18.5-4.408 3.068 1.555-5.14-4.28-3.246 5.37-.11L12.5 8l1.763 5.073 5.37.11-4.28 3.244 1.555 5.14zM20.726 9.752l-1.384.367.858-1.147-.775-1.204 1.355.463.904-1.11-.021 1.431 1.335.518-1.367.423-.08 1.429zM25.4 13.595l-.609 1.296-.326-1.394-1.421-.179 1.225-.742-.27-1.405 1.084.935 1.256-.69-.557 1.32 1.045.979zM24.86 18.885l-1.298.601.645-1.278-.972-1.05 1.413.22.7-1.25.227 1.414 1.405.277-1.274.653.171 1.422zM20.726 22.752l-1.384.367.858-1.147-.775-1.204 1.355.463.904-1.11-.021 1.431 1.335.518-1.367.423-.08 1.429z"/></g></svg>