<svg xmlns="http://www.w3.org/2000/svg" width="48" height="48"><g fill="none" fill-rule="evenodd"><path fill="#F2C500" d="m24 0 20.785 12v24L24 48 3.215 36V12L24 0z"/><path fill="#9C3900" d="M16 41.072V6.928l8-4.619 18.785 10.846v21.69L24 45.691l-8-4.62z"/><path fill="#E87E04" d="M13 8.66v30.68l-4-2.31V10.97l4-2.31z"/><path fill="#1AAF5D" d="M9 10.97v26.06l-3.785-2.185v-21.69L9 10.97z"/><path fill="#F2C500" d="M18 15h1v-1a1 1 0 1 0-1 1zM40 15h-1v-1a1 1 0 1 1 1 1zM18 32h1v1a1 1 0 1 1-1-1zM40 32h-1v1a1 1 0 1 0 1-1zM25.012 28.805a.673.673 0 0 0-.659-.675h-.257c-.364 0-.948-.097-1.28-.219 0 0-2.765-.834-2.765-2.07 0-1.235.588-2.277.588-2.277.15-.319.156-.852.022-1.189 0 0-1.177-2.646-.93-4.127.247-1.482 1.877-2.155 1.877-2.155.328-.175.593-.012.593.35v5.747c0 .367.204.887.455 1.159l1.14 1.237a.592.592 0 0 0 .89-.004l.786-.897c.24-.274.19-.648-.138-.85l-1.897-1.17v-.722l1.429-.154c.365-.04.405-.222.09-.408l-1.52-.898v-1.235h1.796c.373 0 .89-.216 1.15-.474l.287-.288c.261-.261.777-.474 1.149-.474h1.12c.373 0 .792.274.934.605l.703 1.643c.143.335.119.872-.05 1.193L29.502 22.4c-.17.324-.002.598.367.61l4.347.155c.373.013.92-.152 1.22-.365l.572-.41c.3-.215.298-.546-.024-.753l-.863-.555a2.703 2.703 0 0 0-1.242-.364h-1.12a.676.676 0 0 1-.675-.675v-1.12c0-.373.262-.81.597-.982l1.291-.661-.7 1.6c-.146.333.034.603.4.603h.218c.367 0 .954.05 1.318.113l.912.157c.361.062.848.348 1.076.623l.642.778c.233.283.448.81.475 1.174 0 0 .209 2.023-.053 3.331-.262 1.31-.854 1.945-.854 1.945-.21.29-.41.82-.445 1.192l-.346 3.609a.749.749 0 0 1-.74.666h-.645c-.373 0-.558-.283-.416-.623l.51-1.224c.144-.344.128-.888-.039-1.222l-.637-1.274c-.165-.33-.3-.295-.3.077v1.12c0 .373-.117.959-.259 1.299l-.51 1.224c-.144.344-.554.623-.929.623h-.776c-.37 0-.537-.264-.37-.598l.637-1.274c.165-.33.3-.901.3-1.274v-1.12c0-.373-.3-.675-.672-.675h-3.955a.673.673 0 0 0-.671.675v1.12c0 .373-.133.94-.3 1.274l-.637 1.274c-.165.33-.595.598-.973.598h-.782c-.373 0-.542-.264-.375-.598l.637-1.274a3.38 3.38 0 0 0 .299-1.274v-1.12z"/></g></svg>