<svg xmlns="http://www.w3.org/2000/svg" viewBox="0 0 256 256"><switch><g><path fill="#f7f300" d="m232.3 187.5-104 60-104-60v-120l104-60 104 60z"/><path fill="#e9e9e9" d="M24.3 87.1h208v79.5h-208z"/><path fill="#d02228" d="M24.3 87.1h208V67.5l-104-60-104 60z"/><path d="m24.3 187.5 104 60 104-60v-20.9h-208z"/><path fill="#fff" d="M24.3 87.1h104v79.5h-104z"/><path fill="#d73f45" d="m128.3 7.5-104 60v19.6h104z"/><path fill="#282828" d="M24.3 166.6v20.9l104 60v-80.9z"/><path fill="#fff" d="m128.6 128.2 24.7 22.9-1.8-41.7c-.3-6.3-5.7-4.9-9.7-2.6-4 2.6-8.6 2.6-13.5.9-4.9 1.7-9.5 1.7-13.5-.9-4-2.3-9.5-3.7-9.7 2.6l-1.8 41.7 25.3-22.9z"/><path fill="#c09300" d="M103.3 151.4c-.2-.1-.2-.1-.2-.2l1.8-41.7c.1-2.1.8-3.6 2-4.3 2.5-1.4 6.5.6 8 1.5 3.7 2.4 8.2 2.7 13.3.9h.2c5.1 1.8 9.6 1.5 13.3-.9 1.6-.9 5.6-2.9 8.1-1.5 1.3.7 1.9 2.1 2 4.3l1.8 41.7c0 .1 0 .2-.1.2h-.3l-24.6-22.8-25.1 22.8h-.2zm5.6-46.2c-.7 0-1.3.1-1.8.4-1.1.6-1.7 1.9-1.8 3.9l-1.7 41.1 24.9-22.6c.1-.1.2-.1.3 0l24.3 22.6-1.7-41.1c-.1-2-.7-3.3-1.8-3.9-2.3-1.3-6.1.6-7.6 1.5-3.8 2.4-8.4 2.7-13.6.9-5.2 1.8-9.8 1.5-13.6-.9-1.3-.7-3.7-1.9-5.9-1.9z"/><path fill="#c09300" d="m107.9 108-1.7 40.5-2.9 2.6 1.8-41.7c.8-.5 2.3-1.4 2.8-1.4zm3.5 2.9-1.4 33.9-2.9 3 1.8-39.2c.5.6 2.2 2 2.5 2.3zm3.2 2.6-1.1 28.3-2.3 2.3 1.4-32.3c.5.6 1.6 1.4 2 1.7zm3.4 1.5-1.1 24.1-2.3 1.8 1.1-26.8c.6.3 1.7.9 2.3.9zm3.1 0-.8 20.1-2.3 2.3.9-22.1c.5-.1 2-.1 2.2-.3zM751.3 108l-1.7 40.5-2.9 2.6 1.8-41.7c.8-.5 2.2-1.4 2.8-1.4zm3.4 2.9-1.4 33.9-2.9 3 1.8-39.2c.5.6 2.2 2 2.5 2.3zm3.2 2.6-1.1 28.3-2.3 2.3 1.4-32.3c.6.6 1.7 1.4 2 1.7zm3.4 1.5-1.1 24.1-2.3 1.8 1.1-26.8c.6.3 1.8.9 2.3.9zm3.2 0-.8 20.1-2.3 2.3.9-22.1c.5-.1 1.9-.1 2.2-.3zM129.5 132.8l3.5 15.8-1.1 1.1-1.2-.9-2-14.1.8 14.1-1.1 1.4-1.1-1.4.8-14.1-2 14.1-1.2.9-1.1-1.1 3.5-15.8h2.2z"/><path fill="#c09300" d="m128.3 150.6-1.3-1.7.5-9.3-1.3 9.4-1.4 1-1.3-1.3 3.5-16h2.6l3.5 16-1.3 1.3-1.4-1-1.3-9.4.5 9.3-1.3 1.7zm-.9-1.8.9 1.2.9-1.2-.8-14h.4l2 14 1 .7.9-.9-3.4-15.5h-2l-3.4 15.5.9.9 1-.7 2-14h.4l-.8 14z"/><path fill="#fff" d="m120.6 125.8-6.9 24.4 9.5 1.4 4-18.4-6.6-7.4z"/><path fill="#c09300" d="m123.1 151.9-9.5-1.5c-.1 0-.1 0-.1-.1v-.2l6.9-24.4c0-.1.1-.1.2-.2.1 0 .2 0 .2.1l6.6 7.5c0 .1.1.1 0 .2l-4 18.4c-.1.2-.2.2-.3.2zm-9.2-1.8 9 1.4 4-18.1-6.3-7.1-6.7 23.8z"/><path fill="#c09300" d="M119.1 136.4c-.1 0-.2-.1-.2-.1l-.8-2 .4-.2.7 1.7 4.2-4 .3.3-4.5 4.3h-.1z"/><path fill="#c09300" d="M122.3 138.1c-.2 0-.2-.1-.2-.2l-.9-8.8h.5l.9 8.2 2.5-3.3.4.3-2.8 3.7c-.2.1-.3.1-.4.1z"/><path fill="#c09300" d="m123.825 135.67.48-.14 1.559 5.38-.48.138z"/><path fill="#c09300" d="m123.8 148.6-.9-4.2-1.8 2.9c0 .1-.1.1-.2.1s-.2-.1-.2-.2l-1-3-1.8 3c0 .1-.1.1-.2.1s-.2-.1-.2-.2l-1.5-5.5c0-.1 0-.2.1-.2l3-3c.1-.1.1-.1.2-.1s.1.1.2.2l.8 2.8 1.8-2.5c.1-.1.1-.1.2-.1s.2.1.2.2l.8 4.3 2.9-4.3.4.3-3.1 4.7 1 4.6-.7.1zm-4.1-5.2c.1 0 .2.1.2.2l1 3 1.8-2.9-.8-4.2-1.8 2.4c-.1.1-.1.1-.2.1s-.2-.1-.2-.2l-.7-2.8-2.6 2.6 1.3 4.9 1.8-2.9c.1-.1.1-.2.2-.2z"/><path fill="#c09300" d="m121.5 151.8-1-3-1.5 2.5c0 .1-.1.1-.2.1s-.2-.1-.2-.2l-1.1-3.7-1.6 2.3-.4-.3 1.9-2.7c.1-.1.1-.1.2-.1s.2.1.2.2l1.1 3.6 1.4-2.4c0-.1.1-.1.2-.1s.2.1.2.2l1.1 3.5-.3.1z"/><path fill="#fff" d="m763.9 125.8-6.9 24.4 9.5 1.4 4-18.4-6.6-7.4z"/><path fill="#c09300" d="M766.5 151.9c.1 0 .2-.1.2-.2l4-18.4v-.2l-6.6-7.5c-.1-.1-.1-.1-.2-.1s-.1.1-.2.2l-6.9 24.4v.2c0 .1.1.1.1.1l9.6 1.5zm3.8-18.5-4 18.1-9-1.4 6.7-23.8 6.3 7.1z"/><path fill="#c09300" d="M762.5 136.4c.1 0 .1 0 .2-.1l4.5-4.3-.3-.3-4.2 4-.7-1.7-.4.2.8 2c-.1.2-.1.2.1.2-.1 0-.1 0 0 0z"/><path fill="#c09300" d="M765.7 138.1c.1 0 .1 0 .2-.1l2.8-3.7-.4-.3-2.5 3.3-.9-8.2h-.5l.9 8.8c.2.1.2.2.4.2-.1 0-.1 0 0 0z"/><path fill="#c09300" d="m769.126 140.9-1.558-5.379-.48.14 1.558 5.378z"/><path fill="#c09300" d="m767.2 148.6.4-.1-1-4.6 3.1-4.7-.4-.3-2.9 4.3-.8-4.3c0-.1-.1-.2-.2-.2s-.2 0-.2.1l-1.8 2.5-.8-2.8c0-.1-.1-.1-.2-.2-.1 0-.2 0-.2.1l-3 3c-.1.1-.1.1-.1.2l1.5 5.5c0 .1.1.2.2.2s.2 0 .2-.1l1.8-3 1 3c0 .1.1.1.2.2.1 0 .2 0 .2-.1l1.8-2.9 1.2 4.2zm-1.1-4.9-1.8 2.9-1-3c0-.1-.1-.1-.2-.2-.1 0-.2 0-.2.1l-1.8 2.9-1.3-4.9 2.6-2.6.8 2.9c0 .1.1.1.2.2.1 0 .2 0 .2-.1l1.8-2.4.7 4.2z"/><path fill="#c09300" d="m764.8 151.8.4-.1-1.1-3.5c0-.1-.1-.1-.2-.2-.1 0-.2 0-.2.1l-1.4 2.4-1.1-3.6c0-.1-.1-.1-.2-.2-.1 0-.2 0-.2.1l-1.9 2.7.4.3 1.6-2.3 1.1 3.7c0 .1.1.2.2.2s.2 0 .2-.1l1.5-2.5.9 3z"/><path fill="#fff" d="M128.3 161.2c7.2 0 14.1-.6 18.1-1.7 1.7-.3 1.7-1.2 1.7-2.3 1.7-.6.8-2.6 2-2.6-1.2.3-1.4-2-2.9-1.7 0-2-2-2.3-3.7-1.7-3.4 1.1-9.5 1.4-15.2 1.4-5.7-.3-11.8-.3-15.2-1.4-1.7-.6-3.7-.3-3.7 1.7-1.5-.3-1.7 2-2.9 1.7 1.2 0 .3 2 2 2.6 0 1.1 0 2 1.8 2.3 3.9 1.1 10.8 1.7 18 1.7z"/><path fill="#c09300" d="M128.3 161.6c-7.7 0-14.3-.6-18.2-1.7-1.9-.3-2.1-1.4-2.1-2.5-.9-.4-1.1-1.3-1.2-1.8-.1-.4-.2-.6-.2-.6h-.2c-.2-.1-.3-.3-.3-.5s.2-.4.4-.4h.3c.2 0 .4-.2.7-.6.4-.5.8-1 1.5-1.1.1-.8.5-1.2.9-1.5.8-.6 2.1-.6 3.4-.2 2.8.9 7.3 1.1 12 1.3 1 0 2.1.1 3.1.1 7.4 0 12.3-.5 15.1-1.4 1.3-.4 2.6-.4 3.4.2.3.2.7.7.9 1.5.7.1 1.2.7 1.5 1.1.3.4.5.6.7.6h.3c.2 0 .4.2.4.4s-.1.4-.3.5h-.2c-.1.1-.1.2-.2.6-.1.6-.3 1.4-1.2 1.8 0 1.1-.2 2.1-2 2.5-4.1 1.1-10.8 1.7-18.5 1.7zm-20.8-6.8c.1.2.2.5.2.7.1.6.3 1.1 1 1.3.2.1.3.2.3.4 0 1.1 0 1.7 1.4 1.9 3.7 1.1 10.4 1.7 18 1.7s14.2-.6 18-1.7c1.4-.2 1.4-.8 1.4-1.9 0-.2.1-.3.3-.4.7-.2.8-.7 1-1.3.1-.2.1-.5.2-.7-.3-.2-.5-.5-.7-.7-.5-.6-.7-.9-1.2-.8-.1 0-.3 0-.4-.1-.1-.1-.2-.2-.2-.3 0-.6-.2-1-.5-1.2-.6-.4-1.6-.4-2.6-.1-2.9 1-7.9 1.4-15.4 1.4-1 0-2.1-.1-3.1-.1-4.8-.2-9.3-.3-12.2-1.3-1.1-.4-2.1-.3-2.6.1-.4.3-.5.7-.5 1.2 0 .1-.1.3-.2.3-.1.1-.2.1-.4.1-.4-.1-.7.2-1.2.8-.2.2-.4.5-.6.7z"/><path fill="#fff" d="M118.5 150.3c2.3.3 4.9.6 6.9.3 1.1 0 2 2-.3 2.3-2 .3-5.2 0-6.9-.3-1.4-.3-4.6-.8-6.6-1.4-2-.9-.6-2.6.6-2.3 1.8.5 4.1 1.1 6.3 1.4z"/><path fill="#c09300" d="M123.2 153.2c-1.8 0-3.8-.2-5-.4-1.2-.2-4.6-.8-6.6-1.4-1.4-.6-1.2-1.5-1.1-1.7.2-.7 1.1-1.2 1.8-1 1.2.4 3.6 1.1 6.3 1.4 2.1.3 4.8.6 6.9.3.7 0 1.3.6 1.4 1.3 0 .3 0 1.2-1.6 1.4-.7.1-1.4.1-2.1.1zM112 149c-.4 0-.9.3-1.1.8-.1.5.1.9.8 1.2 2 .6 5.3 1.2 6.6 1.4 1.6.3 4.7.6 6.8.3.8-.1 1.3-.5 1.2-1 0-.5-.5-.9-.9-.9-2.1.3-4.8 0-7-.3-2.8-.4-5.2-1.1-6.4-1.5.1 0 0 0 0 0z"/><path fill="#fff" d="M138.1 150.3c-2.3.3-4.9.6-6.9.3-1.2 0-2 2 .3 2.3 2 .3 5.2 0 6.9-.3 1.5-.3 4.6-.8 6.6-1.4 2-.9.6-2.6-.6-2.3-1.7.5-4 1.1-6.3 1.4z"/><path fill="#c09300" d="M133.4 153.2c-.7 0-1.4 0-2-.1-1.6-.2-1.7-1.2-1.6-1.4 0-.7.7-1.3 1.4-1.3 2 .3 4.7 0 6.9-.3 2.7-.4 5.1-1.1 6.3-1.4.7-.2 1.6.3 1.8 1 .1.3.3 1.1-1.1 1.7-2.1.6-5.4 1.2-6.7 1.4-1.1.2-3.1.4-5 .4zm-2.2-2.4c-.5 0-.9.5-.9.9 0 .5.4.8 1.2.9 2.1.3 5.2 0 6.8-.3 1.2-.2 4.5-.8 6.6-1.4.7-.3 1-.7.8-1.2-.2-.5-.8-.8-1.3-.7-1.2.4-3.6 1.1-6.3 1.5-2.1.3-4.8.6-6.9.3z"/><path fill="#fff" d="M111.4 149.1c-1.8-.3-2.6 1.7-2 2.8.3-.6 1.4-.6 1.7-1.1.3-.8-.3-.8.3-1.7z"/><path fill="#c09300" d="M109.4 152.2c-.1 0-.2 0-.2-.1-.4-.7-.2-1.7.3-2.4.5-.6 1.2-.9 2-.8.1 0 .1.1.2.1v.2c-.3.4-.2.5-.2.7 0 .2.1.5-.1.9s-.6.6-1 .7c-.3.1-.6.3-.7.5-.2.2-.2.2-.3.2zm1.6-2.9c-.6 0-1 .4-1.2.6-.3.5-.5 1.1-.4 1.6.2-.1.4-.2.7-.3.3-.1.6-.3.7-.5.1-.3.1-.5.1-.7 0-.2 0-.4.1-.7z"/><path fill="#fff" d="M118.3 154.4c0-1.1 1.1-1 1.1-2.1 0-.6-.3-1.4-.9-1.4-.6 0-1.1.6-1.1 1.1-.3 1.1.9 1.3.9 2.4z"/><path fill="#c09300" d="M118.3 154.7c-.1 0-.2-.1-.2-.2 0-.5-.2-.7-.4-1-.3-.4-.6-.8-.4-1.5 0-.7.7-1.3 1.4-1.3s1.1 1 1.1 1.7-.4 1-.6 1.2c-.3.2-.5.4-.5.9-.2.1-.3.2-.4.2zm.2-3.6c-.4 0-.9.5-.9.9v.1c-.1.5.1.8.3 1.1.1.1.2.3.3.5.1-.2.3-.3.4-.4.3-.2.5-.4.5-.9.1-.6-.2-1.3-.6-1.3z"/><path fill="#fff" d="M126.5 151.2c1.7 0 1.5 2.3.7 3.4 0-.8-1.4-1.1-1.4-1.7-.1-.9 1.2-.9.7-1.7z"/><path fill="#c09300" d="M127.2 154.8s-.1 0 0 0c-.2 0-.2-.1-.2-.2 0-.3-.4-.6-.7-.8-.4-.3-.7-.5-.7-.9 0-.5.3-.8.6-1 .3-.3.4-.3.2-.6 0-.1-.1-.2 0-.2s.1-.1.2-.1c.8 0 1.2.4 1.3.8.4.9.1 2.2-.4 3h-.3zm-.4-3.4c.1.4-.2.6-.5.8-.3.2-.4.4-.4.6 0 .1.3.3.5.5.3.2.6.4.8.7.3-.7.5-1.6.2-2.1-.1-.2-.3-.4-.6-.5z"/><path fill="#fff" d="M145.3 149.1c1.8-.3 2.6 1.7 2 2.8-.3-.6-1.4-.6-1.7-1.1-.3-.8.2-.8-.3-1.7z"/><path fill="#c09300" d="M147.3 152.2c-.1 0-.2-.1-.2-.1-.1-.2-.4-.3-.7-.5-.4-.2-.8-.3-1-.7-.2-.5-.1-.7-.1-.9 0-.2.1-.4-.2-.7 0-.1-.1-.1 0-.2s.1-.1.2-.1c.8-.1 1.5.1 2 .8.5.7.6 1.7.3 2.4h-.3zm-1.7-2.9c.1.3.1.5.1.7 0 .2-.1.4.1.7.1.2.4.3.7.4.2.1.5.2.7.3.1-.5 0-1.1-.4-1.6-.2-.1-.5-.4-1.2-.5z"/><path fill="#fff" d="M138.4 154.4c0-1.1-1.1-1-1.1-2.1 0-.6.3-1.4.9-1.4.6 0 1.1.6 1.1 1.1.2 1.1-.9 1.3-.9 2.4z"/><path fill="#c09300" d="M138.4 154.7c-.1 0-.2-.1-.2-.2 0-.5-.2-.7-.5-.9-.3-.3-.6-.6-.6-1.2 0-.7.4-1.7 1.1-1.7.7 0 1.4.7 1.4 1.3.1.7-.2 1.1-.4 1.5-.2.3-.4.6-.4 1-.2.1-.3.2-.4.2zm-.3-3.6c-.4 0-.7.7-.7 1.2s.2.7.5.9c.1.1.3.2.4.4.1-.2.2-.3.3-.5.3-.3.5-.6.3-1.1v-.1c.1-.4-.3-.8-.8-.8z"/><path fill="#fff" d="M130.2 151.2c-1.7 0-1.5 2.3-.7 3.4 0-.8 1.4-1.1 1.4-1.7 0-.9-1.3-.9-.7-1.7z"/><path fill="#c09300" d="M129.5 154.8c-.1 0-.1 0-.2-.1-.6-.8-.9-2.1-.4-3 .2-.4.6-.8 1.3-.8.1 0 .2 0 .2.1v.2c-.2.3-.1.3.2.6.3.2.6.5.6 1 0 .4-.4.6-.7.9-.4.2-.7.5-.7.8-.1.2-.2.3-.3.3zm.3-3.4c-.3.1-.4.2-.6.5-.3.6-.2 1.5.2 2.1.2-.3.5-.5.8-.7.2-.2.5-.4.5-.5 0-.3-.2-.4-.4-.6-.3-.1-.6-.4-.5-.8z"/><path fill="#fff" d="M112 149.7c.6 0 1.4.3 1.7.6l-1.7-.6z"/><path fill="#c09300" d="M113.7 150.4s-.1 0 0 0l-1.7-.6h-.1c-.1 0-.1-.1-.1-.2s.1-.1.2-.1c.6 0 1.5.3 1.8.6v.2c0 .1-.1.1-.1.1z"/><path fill="#fff" d="M114.8 150.6c.3 0 1.5.3 2 .6l-2-.6z"/><path fill="#c09300" d="m116.8 151.3-2-.6s-.1 0-.1-.1v-.2c0-.1.1-.1.2-.1.4 0 1.5.3 2.1.6.1 0 .1.1.1.2-.1.2-.2.2-.3.2z"/><path fill="#fff" d="M125.2 151.7c-.6 0-1.7 0-2 .3l2-.3z"/><path fill="#c09300" d="M123.1 152.1c-.1 0-.1 0-.1-.1v-.2c.3-.3 1.2-.3 2.1-.3.1 0 .1 0 .2.1v.2c0 .1-.1.1-.1.1l-2.1.2c.1 0 .1 0 0 0z"/><path fill="#fff" d="M122 151.7c-.3-.3-1.4-.3-2 0h2z"/><path fill="#c09300" d="M122 151.9h-2c-.1 0-.1 0-.2-.1 0-.1 0-.1.1-.2.6-.3 1.8-.4 2.2 0 0 0 .1.1 0 .2 0 .1 0 .1-.1.1z"/><path fill="#fff" d="M144.7 149.7c-.6 0-1.4.3-1.7.6l1.7-.6z"/><path fill="#c09300" d="M143 150.4c-.1 0-.1 0-.1-.1v-.2c.4-.4 1.3-.6 1.8-.6.1 0 .1.1.2.1 0 .1 0 .2-.1.2l-1.8.6z"/><path fill="#fff" d="M141.8 150.6c-.3 0-1.4.3-2 .6l2-.6z"/><path fill="#c09300" d="M139.8 151.3c-.1 0-.1 0-.1-.1s0-.2.1-.2c.6-.3 1.7-.6 2.1-.6.1 0 .1 0 .2.1v.2s-.1 0-.1.1l-2.2.5z"/><path fill="#fff" d="M131.5 151.7c.6 0 1.7 0 2 .3l-2-.3z"/><path fill="#c09300" d="m133.5 152.1-2-.3h-.1s-.1-.1 0-.2c0-.1.1-.1.2-.1.8 0 1.8 0 2.1.3.1 0 .1.1 0 .2s-.1.1-.2.1z"/><path fill="#fff" d="M134.6 151.7c.3-.3 1.5-.3 2 0h-2z"/><path fill="#c09300" d="M136.7 151.9h-2c-.1 0-.2-.1-.2-.2s0-.1.1-.1c.4-.4 1.6-.3 2.2 0 .1 0 .1.1.1.2-.1 0-.2.1-.2.1z"/><g fill="#c09300"><path d="M111.5 154.3c-.2 0-.3-.2-.2-.4.1-.2.2-.3.4-.3.1 0 .3.2.3.3 0 .1-.1.3-.1.3h-.1c-.1.1-.2.1-.3.1zm19.8 1.4c-.1 0-.2-.2-.2-.3 0-.1.2-.4.3-.4.1 0 .2.1.3.2.1.1.1.3-.1.4 0 .1-.2.1-.3.1zm.1.9c-.2-.1-.2-.1-.2-.3 0-.2 0-.2.2-.3l.1-.1.1.1c.2.1.3.2.3.3 0 .1-.1.3-.2.3h-.3z"/><path d="M113.1 152.6c-.1 0-.3.1-.4.2-.2.1-.5.2-.7 0-.2-.1-.5 0-.6.3.1.2.4.4.6.2.1-.2.6-.3.6 0-.2.2-.1.6-.3.8 0 .2-.1.3-.2.5-.2 0-.3 0-.5.1-.2 0-.5.1-.6.3-.1.2-.3.4-.3.7 0 .3.3.3.6.3.2.1.5.2.7.2l1.2.3c.6.2 1.2.3 1.7.4h.2c.2 0 .4-.2.4-.4.1-.4.2-.8.3-1.3.1-.2.2-.5-.1-.5-.2.1-.3.3-.6.3s-.1.3 0 .5c0 .2 0 .5-.2.6-.2.1-.4 0-.6-.1-.2 0-.6-.1-.4-.4.1-.2.1-.4.2-.6.1-.2.1-.5.2-.7-.1-.3-.4.1-.5.1-.1.1-.6.1-.3.3.2.2 0 .4 0 .6 0 .3-.3.3-.5.3s-.5-.2-.3-.4c0-.2.1-.4.2-.6.1-.3.2-.5.2-.7 0-.2.1-.4.2-.6 0-.2.2-.5.2-.7-.3.1-.3 0-.4 0zm-1.3 2.7c.2 0 .2.1.1.2l-.1.1c-.2 0-.2 0-.2-.1s0-.1.1-.1c0-.1 0-.1.1-.1zm-.4 1.8c-.2-.2-.2-.3.1-.5.1-.1.2-.1.3 0 .2.2.2.3 0 .5-.1.1-.1.1-.2.1s-.1 0-.2-.1zm1.1.3c-.2 0-.3-.2-.2-.4 0-.2.1-.2.3-.2.3 0 .3 0 .3.3 0 .1 0 .2-.1.2-.1.1-.2.1-.3.1zm32.2 0c-.1-.1-.1-.1-.1-.2s.1-.3.3-.3c.2-.1.3-.1.4.1.1.2.1.3 0 .5-.1.1-.1.1-.3.1-.2-.1-.2-.1-.3-.2zm-30.7.4c-.1 0-.2-.1-.2-.3 0-.1 0-.1.1-.2.1 0 .1-.1.2-.1h.2c.2.1.2.3.1.4-.1.3-.2.3-.4.2zm7.9.4-.1-.1c0-.2 0-.4.1-.6 0-.2 0-.4.1-.6.1-.3.1-.7.1-1 0-.2 0-.3.1-.5.1-.3 0-.5.1-.8 0-.1.1-.4.2-.2s.3.4.5.5c.2.1 0 .2-.1.3-.1.1-.2.2-.2.4 0 .1-.1.3-.1.4 0 .2 0 .5-.1.7-.1.2 0 .5-.1.7 0 .1-.1.3-.1.4 0 .1 0 .3-.1.4-.1.1-.2.1-.3 0zm10.7-3.5c-.2.1-.3.3-.5.4-.2.2.2.3.2.4.1.2.1.4.1.7.1.2.1.4.1.6 0 .2-.3.2-.4.3-.2.1-.2.2-.4.4-.1.2-.1.4-.1.6 0 .2-.1.3 0 .5v.1c0 .1.1 0 .2 0 .2 0 .4 0 .5-.1.4-.1.9-.1 1.3-.1.3 0 .5-.1.8-.1.2 0 .3-.2.3-.3-.1-.2 0-.5-.1-.8-.1-.2-.1-.5-.1-.8 0-.2-.3-.3-.4-.1-.1.1-.3.1-.4.3-.1.2.2.2.3.4.1.2 0 .4.1.5 0 .2-.2.2-.3.2-.2.1-.5.1-.6-.1-.1-.2-.1-.4-.1-.5 0-.3-.1-.6-.1-1s-.1-.8-.1-1.2c0-.1-.1-.4-.3-.3zm-.2 2.9h.1v.2H132.2c-.1-.1-.1-.1 0-.2h.2zm-10.8-3.3c-.1 0-.3.3-.5.2-.3 0-.3.3 0 .4v.3c0 .3-.1.5-.1.8 0 .3-.1.6-.1.9-.1.3-.1.7-.1 1 0 .3-.3.2-.4.1v-.4c.1-.3-.2-.4-.4-.4s-.4-.2-.3-.4c.1-.1.4-.1.5-.1.4.1.3-.4.2-.6-.1-.2-.4-.3-.5-.6 0-.3-.2-.6-.4-.8-.4 0-.7.3-.8.6-.2 0-.3.1-.5.2-.3.1-.6.5-.3.7.2.1.8.2.5.5-.1.3-.4.3-.7.2-.3 0-.6-.1-.5-.4-.1-.3 0-.6-.2-.8-.1-.3-.4-.2-.4 0-.3.2-.2.5 0 .7.1.3 0 .6-.1.8-.1.3-.4.3-.7.4-.1 0-.6 0-.4.2.3.1.6.2.9.1.3 0 .6-.2.7-.5.2-.2.5-.1.8-.1.3 0 .6.2.8.1.1-.2.4-.5.6-.2 0 .3.3.5.5.4.3 0 .2.2.2.4 0 .3.2.5.5.7h.3c.3-.1.6-.2.6-.5.1-.2.1-.5.2-.8.1-.4.1-.8.2-1.2.1-.4.1-.8.1-1.2 0-.3.1-.6.1-.8-.2.1-.3.1-.3.1zm-2.5 1.5c.1 0 .1.1.1.2s.1.2.2.3c.1 0 .1.1 0 .1h-.2c-.2 0-.3-.1-.5-.2l-.1-.1.1-.1c.1 0 .1-.1.2-.2h.2zm23.8-2.8c-.2 0-.4 0-.6.1-.4 0-.6.4-.2.6.2.6.6-.1.9-.1.5.1.6.7.6 1.1 0 .4.1.8.3 1.2.3.4-.3.6-.5.3-.2-.2-.7-.5-1-.2-.3.1-.3.6-.6.7-.4.1-.5-.4-.7-.6-.2-.3-.6-.3-.9-.4-.2-.3-.1-.8-.4-1.1-.3.1-.8.6-.3.8.4.3-.2.5-.4.7-.3.3-.3.7-.3 1.1-.5.3-.5-.3-.6-.6 0-.4-.4-.3-.6-.1-.3.1-.5.5-.8.7v.7c.1.3.4.2.7.1.4-.1.5.2.2.4-.2.2-.8.1-.7.5h.6c.4-.1.8-.4.9-.8.1-.4.6-.3.9-.4.4-.1.8-.1.9.3.3.3.8.6 1.1.2.3-.2.4-.5.4-.8-.1-.3.5-.3.6-.1.2.3.8.2 1.1 0 .3-.2.4-.6.8-.6.6-.2 1.3-.3 1.9-.5.5-.1-.1-.4-.2-.6-.4-.2-.7.6-1.2.2-.3-.3-.3-.7-.4-1.1-.1-.5-.1-1.1-.4-1.4-.4-.3-.7-.4-1.1-.3zm-2.4 3.4s.1 0 .2.1c.2.1.3.2.3.3 0 .1 0 .1-.1.1s-.2.1-.2.1c-.1 0-.2-.1-.2-.2v-.4c-.1 0-.1 0 0 0zm2.3.1c.1 0 .2 0 .3.1.1.1 0 .2-.1.3-.1 0-.1.1-.2.1 0 0-.1 0-.1-.1-.1-.1-.1-.1-.1-.2s.1-.2.2-.2zm-3.2 0s.1 0 .1.1c.1.1.1.1.1.2v.2c0 .1 0 .1-.2.1s-.3 0-.2-.2c0-.1 0-.2.1-.2 0-.1.1-.2.1-.2zm-2 .5c.1 0 .1.1.2.2 0 .1 0 .2-.1.2s-.3.1-.3 0c0 0-.1 0-.1-.1v-.2s0-.1.1-.1c.1.1.2 0 .2 0zm3.4.5c.1 0 .1 0 .2.1s.1.1 0 .2h-.4s-.1 0-.1-.1 0-.1.1-.1c0-.1.1-.1.2-.1zm-6.2 1.7c-.1 0-.1 0 0 0 0-.2.2-.2.3-.3.2-.1.4-.2.5-.4 0-.1.2-.2.2-.3v-.5c0-.2-.2-.3-.3-.4-.1-.1-.2-.1-.3-.2 0-.1.1-.2.1-.3.1-.2.1-.3.2-.5.1-.1.2 0 .3.1.1.1.1.2.2.3.1.1.2.3.2.4.1.1.1.2.1.3 0 .2.1.3.1.4 0 .2 0 .4-.1.6-.1.1-.2.2-.2.3-.1.1-.2.2-.4.3-.1 0-.2.2-.3.1-.2.1-.4.2-.6.1 0 .1 0 0 0 0zm-2.5.2c-.1-.1-.1-.1-.1-.2s0-.1.1-.2c.2-.2.2-.2.5 0 .3.1.3.1.4.1 0-.1.2-.2.3-.2.1 0 .1 0 .2.1s.1.1.1.2c0 .2 0 .2-.1.3-.1.1-.1.1-.2.1-.2 0-.3-.1-.3-.2s-.1-.1-.1-.1l-.1.1c-.1 0-.2.1-.3.2h-.2l-.2-.2zm-7.2-3.2c-.2 0-.5.2-.5.4.1.3.3.5.1.8.1.4-.3.5-.5.3-.2-.4-.2-.7-.5-1-.3-.1-.4.4-.6.5.1.3.4.5.4.9.1.3-.1.7-.4.9-.2.2-.6.2-.9.2-.4.2.3.3.4.3.4 0 .8 0 1-.3.3-.1.3-.6.6-.7.6 0 1.1.1 1.7.1.3.1.8 0 1 .2 0 .4.3.6.7.8.2.1.4-.2.6-.2.3-.1.2-.5.5-.7h1.8c.1 0 .1-.2.2-.2 0-.2 0-.5-.1-.7-.1-.3 0-.7-.2-.9-.3-.1-.6.2-.9.2-.3.1-.6.5-.6.8-.2.3-.5-.1-.4-.3v-.4c-.2-.2-.5-.1-.8-.2-.4 0-.7-.1-1.1-.1-.3 0-.7 0-1-.1-.4 0-.3-.4-.4-.6h-.1zm.8 1.3h.4c.2 0 .3-.1.5 0 .4.1.7 0 1.1.1.1 0 .2.1.2.1v.7c0 .1 0 .2-.1.3h-.1c-.1 0-.2-.1-.2-.2v-.5c-.1-.1-.2-.1-.3-.1H125.7c-.1 0-.2 0-.3-.1-.1-.1 0-.2.1-.3h.4zm4 .1c.1 0 .1 0 .1.1v.2s0 .1-.1.1c-.2.1-.4.1-.4 0 0 0 0-.2.1-.2.2-.2.3-.2.3-.2z"/></g><path fill="#fff" d="M128.3 137.2c11.8-9.1 10.8-22.3 10.8-22.3-.3.1-.6.1-.9.1-2.5 0-8.4-1.4-9.7-3.2-1.5 1.6-7.5 3.2-10 3.2-.3 0-.6 0-.9-.1 0-.1-1.1 13.2 10.7 22.3z"/><path fill="#c09300" d="m128.3 137.4-.1-.1c-11.7-9-10.8-22.4-10.8-22.5v-.2h.2c.3.1.6.1.9.1 2.5 0 8.4-1.6 9.8-3.1l.2-.2.2.2c1.3 1.7 7.1 3.1 9.6 3.1.3 0 .6 0 .9-.1h.2v.2c0 .1.9 13.5-10.9 22.5l-.2.1zm-10.5-22.3c-.1 1.8 0 13.6 10.6 21.8 10.6-8.2 10.6-20 10.6-21.8-.2 0-.5.1-.7.1-2.4 0-8.1-1.3-9.8-3.1-1.8 1.7-7.7 3.1-9.9 3.1-.4-.1-.6-.1-.8-.1z"/><path fill="#fff" d="M138.1 115.8h-.3c-2.2 0-7.4-1.1-9.4-2.9-2.1 1.6-7.4 2.9-9.6 2.9h-.3c0 .5 0 1 .1 1.5.1 1.8.4 3.5.9 5.3 1.5 5.4 4.5 9.9 8.9 13.4 4.4-3.5 7.4-8 8.9-13.4.5-1.7.8-3.5.9-5.3-.1-.5 0-1-.1-1.5z"/><path fill="#c09300" d="m128.3 136.2-.1-.1c-4.4-3.5-7.4-8.1-8.9-13.5-.5-1.8-.8-3.5-.9-5.3 0-.4-.1-1-.1-1.5v-.2h.5c2.2 0 7.5-1.3 9.5-2.8l.1-.1.1.1c2 1.7 7.3 2.8 9.3 2.8h.5v.2c0 .5 0 1.1-.1 1.5-.1 1.8-.4 3.5-.9 5.3-1.5 5.4-4.6 10-8.9 13.5l-.1.1zm-9.6-20.2c0 .5 0 .9.1 1.3.1 1.7.4 3.5.9 5.2 1.5 5.3 4.4 9.8 8.7 13.2 4.3-3.5 7.2-7.9 8.7-13.3.5-1.7.8-3.5.9-5.2 0-.3 0-.8.1-1.3h-.1c-2.1 0-7.3-1.1-9.5-2.8-2.2 1.6-7.3 2.8-9.6 2.8-.1.1-.2.1-.2.1z"/><path fill="#c09300" d="M124.5 114.7c-2.1.7-4.4 1.1-5.7 1.1h-.3c0 .5 0 1 .1 1.5.1 1.8.4 3.5.9 5.2 1 3.6 2.7 6.9 5 9.7v-17.5zm7.4 0v17.8c2.5-2.9 4.2-6.2 5.3-9.9.5-1.7.8-3.5.9-5.2 0-.5.1-1 .1-1.5h-.3c-1.4-.1-3.8-.5-6-1.2z"/><path fill="#fff" d="M132.8 110.4c.2 0-.3-1.3-.3-1.3.6.7 3 .8 3 .8-1.4-.6-2.9-5.4-2.7-9.3.2-3.8-.6-5.4-1.1-5.9-.7-.7-3-1.4-4.6-1.4-.9 0-.7.7-.7.7-1.6-.4-3.2-.6-3.9-.1-.7.5-.8 2.7-.3 2.3 1.2-1 2.2-.1 3 1 .6.9.6 3.5-.3 6.6-1 3.2-3.6 6.4-3.6 6.4 1.4 0 3.4-1.3 3.4-1.3l-.5 2c1.5-.7 2.7-1.8 2.7-1.8l1.4 1.5c.5-.6 1.4-1.5 1.4-1.5s1.2 1.1 3.1 1.3z"/><path fill="#c09300" d="m123.8 111.2.5-1.9c-.7.4-2 1-3.1 1h-.5l.3-.4s2.6-3.2 3.6-6.3c1-3.1.9-5.6.4-6.4-.5-.8-1.1-1.2-1.6-1.3-.4-.1-.7.1-1.1.4-.2.1-.3.1-.4.1-.2-.1-.2-.2-.3-.5-.1-.6.1-1.8.7-2.2.9-.6 2.7-.3 3.8 0 0-.1.1-.2.2-.3.2-.2.4-.3.8-.3 1.6.1 4 .8 4.7 1.5.6.6 1.3 2.2 1.2 6.1-.2 3.9 1.3 8.5 2.6 9.1l-.1.4c-.2 0-1.6-.1-2.6-.5.2.7.1.8.1.9-.1.1-.1.1-.2.1-1.5-.1-2.6-1-3-1.4l-1.3 1.3-.2.2-1.5-1.5c-.4.3-1.4 1.2-2.6 1.7l-.4.2zm1.1-2.9-.5 2.1c1.3-.7 2.2-1.6 2.2-1.6l.2-.1 1.4 1.5c.5-.6 1.3-1.3 1.3-1.3l.2-.1.1.2s1.1 1.1 2.7 1.4c-.1-.2-.2-.6-.3-1l.4-.2c.3.4 1.4.6 2.2.7-1.3-1.5-2.4-5.6-2.2-9 .2-3.9-.6-5.3-1.1-5.8-.7-.7-2.9-1.3-4.4-1.4-.1 0-.3 0-.4.1-.1.1-.1.3-.1.3l.1.3-.3-.1c-1.8-.5-3.2-.5-3.7-.1-.2.1-.4.5-.5 1-.1.4-.1.7 0 .9.4-.3.9-.4 1.3-.4.6.1 1.3.6 1.9 1.5.7 1 .6 3.8-.3 6.8-.8 2.6-2.6 5.1-3.3 6.1 1.3-.2 2.8-1.2 2.8-1.2l.3-.6z"/><path fill="#c09300" d="m124.8 109-.3-.3c1.5-1.6 2.3-7.4 2.3-7.5l.5.1c-.2.2-1 6-2.5 7.7zm2.2.1-.4-.2c1-1.9 1.3-7.8 1.3-7.8h.5c0 .2-.3 6-1.4 8zm2.5 0c-.4-1.1-.4-7.5-.4-7.8h.5c0 1.8.1 6.7.4 7.6l-.5.2zm2.8.2c-1.4-2-1.7-7.4-1.7-7.6h.5c0 .1.3 5.5 1.6 7.4l-.4.2zm-6.8-11c-.1-.5-.2-.9-.4-1.2-.7-1-1.8-1.9-3-1 0 0 .4-1.3 1.3-1.3.7 0 2.2.5 3.6 2.8 0 0-1-.2-1.2 0-.5.5-.3.7-.3.7z"/><path fill="#c09300" d="M125.4 98.4s-.1-.1 0-.2c-.1-.4-.2-.7-.3-1-.6-.8-1.1-1.3-1.7-1.3-.4-.1-.8.1-1.2.4l-.2.1.1-.2c0-.1.4-1.3 1.3-1.4h.1c.7 0 2.2.6 3.6 2.9l.1.1h-.1c-.4-.1-1-.2-1.2 0-.2.2-.3.3-.3.4v.2h-.2zm-2.2-2.7h.2c.6.1 1.2.6 1.8 1.4.1.2.2.5.3.8.1-.1.1-.2.2-.3.2-.2.9-.1 1.2 0-1.3-2.2-2.8-2.7-3.4-2.7-.6 0-1 .7-1.2 1.1.3-.2.6-.3.9-.3z"/><g fill="#c09300"><path d="M122 94.6c.1-.3.3-.6.5-.7.7-.5 2.3-.3 3.9.1 0 0-.1-.7.7-.7 1.5.1 3.8.7 4.6 1.4.2.2.4.5.5.9-.4-.5-1.4-.5-1.6-.4-.4 0-.6 0-1.1.2-.2.1-.6.1-.8.3-.2.1-.3.6-.5.6-.4 0-.4-.1-.5-.2-.1-.2-.2-.4-.3-.4-.4.1-1-.2-1.8-.9-.8-.6-1.1-.8-2.2-.7-1.1 0-1.4.6-1.4.5z"/><path d="M128.1 96.2c-.3 0-.4-.1-.5-.2v-.1c0-.1-.1-.1-.1-.2-.1-.1-.1-.2-.2-.2-.4.1-1-.2-1.9-.9-.8-.6-1.1-.8-2.1-.7-1 .1-1.3.6-1.3.6l-.1-.1v-.1c.1-.2.2-.6.5-.8.9-.6 2.8-.2 3.9.1 0-.1 0-.3.1-.4.1-.2.4-.2.7-.2 1.6.1 3.9.7 4.6 1.5.2.2.4.5.6.9v.1h-.2c-.3-.4-1.2-.4-1.5-.4h-.3c-.2 0-.5 0-.8.1h-.1c-.2.1-.5.1-.7.3l-.2.2c-.1.3-.2.5-.4.5zm-.8-.7c.1 0 .2.1.3.2 0 .1.1.1.1.2l.1.1c0 .1.1.1.4.1.1 0 .2-.2.3-.3.1-.1.1-.2.2-.3.2-.1.5-.2.8-.3h.1c.4-.1.6-.1.9-.1h.3s.9-.1 1.5.3c-.1-.2-.2-.4-.4-.6-.7-.7-3-1.3-4.5-1.4-.3 0-.5 0-.6.2-.1.2-.1.4-.1.4v.1h-.1c-1.8-.5-3.2-.5-3.9-.1-.1.1-.2.2-.3.5.2-.2.6-.4 1.2-.4 1.1-.1 1.4.1 2.2.7.5.5 1.1.8 1.5.7z"/></g><circle cx="127.9" cy="95.1" r=".4" fill="#fff"/></g></switch></svg>