<svg xmlns="http://www.w3.org/2000/svg" version="1" viewBox="0 0 256 256"><path fill="#FFF" d="m232 188-104 60-104-60V68L128 8l104 60z"/><path fill="#E9E9E9" d="m232 188-104 60V8l104 60z"/><path fill="#D02228" d="M128 86.76c-26.44 0-45.846 20.609-45.846 46.037 0 25.432 19.405 46.041 45.846 46.041 26.441 0 45.846-20.609 45.846-46.041 0-25.428-19.405-46.037-45.846-46.037z"/><path fill="#D73F45" d="M82.154 132.797c0 25.432 19.405 46.041 45.846 46.041V86.76c-26.44 0-45.846 20.609-45.846 46.037z"/><path fill="#D02228" d="M173.846 132.797c0-25.428-19.405-46.037-45.846-46.037v92.078c26.441 0 45.846-20.609 45.846-46.041z"/></svg>