<svg xmlns="http://www.w3.org/2000/svg" version="1" viewBox="0 0 256 256"><path fill="#F7F300" d="m232 188-104 60-104-60V68L128 8l104 60z"/><path fill="#E9E9E9" d="M24 87.797h208v79.514H24z"/><path fill="#F78E14" d="M24 87.797h208V68L128 8 24 68z"/><path fill="#009416" d="m24 188 104 60 104-60v-20.689H24z"/><path fill="#FFF" d="M24 87.797h104v79.514H24z"/><path fill="#F7A33F" d="M128 8 24 68v19.797h104z"/><path fill="#19A82D" d="M24 167.311V188l104 60v-80.689z"/><ellipse cx="128" cy="128.084" fill="#004364" rx="31.288" ry="31.363"/><path fill="#FFF" d="m128 128.084-.952 11.01.832 16.617a26.1 26.1 0 0 1-1.744-.062 1.745 1.745 0 0 0-1.503-1.961 1.749 1.749 0 0 0-1.952 1.502 23.973 23.973 0 0 1-1.699-.391l5.094-15.834L128 128.084zm0 0-3.765 10.389-3.484 16.268a26.248 26.248 0 0 1-1.664-.514 1.755 1.755 0 0 0-.949-2.285 1.74 1.74 0 0 0-2.273.949 28.941 28.941 0 0 1-1.539-.818l9.008-13.975L128 128.084zm0 0-6.319 9.057-7.565 14.809a26.83 26.83 0 0 1-1.479-.926 1.746 1.746 0 0 0-.32-2.449 1.735 1.735 0 0 0-2.442.32 27.056 27.056 0 0 1-1.277-1.191l12.312-11.156 7.09-8.464zm0 0-8.441 7.106-11.133 12.344c-.408-.412-.806-.84-1.186-1.279a1.746 1.746 0 0 0 .318-2.449 1.732 1.732 0 0 0-2.441-.32c-.321-.484-.63-.978-.926-1.482l14.774-7.584 9.035-6.336zm0 0-9.991 4.678-13.938 9.031a29.908 29.908 0 0 1-.818-1.543 1.748 1.748 0 0 0 .945-2.281 1.743 1.743 0 0 0-2.275-.949 25.839 25.839 0 0 1-.515-1.67l16.232-3.492 10.36-3.774zm0 0-10.855 1.93-15.797 5.103a26.834 26.834 0 0 1-.391-1.701c.95-.127 1.625-1.006 1.499-1.963s-1-1.625-1.955-1.502c-.04-.58-.059-1.166-.061-1.746l16.577.832 10.983-.953zm0 0-10.982-.955-16.577.834c.002-.582.021-1.164.061-1.746a1.747 1.747 0 0 0 .456-3.463c.111-.574.241-1.143.391-1.703l15.797 5.106L128 128.084zm0 0-10.359-3.775-16.232-3.492c.154-.559.323-1.117.515-1.668a1.744 1.744 0 0 0 1.33-3.228c.259-.525.53-1.039.818-1.543l13.938 9.029 9.99 4.677zm0 0-9.034-6.332-14.774-7.588c.296-.502.604-.996.926-1.479a1.739 1.739 0 0 0 2.441-.324 1.75 1.75 0 0 0-.318-2.451c.38-.434.777-.861 1.186-1.273l11.133 12.338 8.44 7.109zm0 0-7.092-8.461-12.312-11.162c.414-.41.84-.807 1.277-1.187.583.764 1.68.912 2.442.322a1.747 1.747 0 0 0 .32-2.451 33.06 33.06 0 0 1 1.479-.928l7.565 14.811 6.321 9.056zm0 0-4.667-10.014-9.008-13.969a23.163 23.163 0 0 1 1.539-.822 1.738 1.738 0 0 0 2.273.943 1.748 1.748 0 0 0 .949-2.279 27.859 27.859 0 0 1 1.664-.516l3.484 16.271L128 128.084zm0 0-1.925-10.881-5.094-15.838c.563-.145 1.13-.279 1.699-.389a1.741 1.741 0 0 0 1.952 1.5c.959-.123 1.63-1 1.503-1.955a24.238 24.238 0 0 1 1.744-.064l-.832 16.619.953 11.008zm0 0 .955-11.008-.836-16.619a24.78 24.78 0 0 1 1.743.064 1.744 1.744 0 0 0 3.457.455c.569.109 1.136.244 1.697.389l-5.094 15.838L128 128.084zm0 0 3.767-10.385 3.482-16.271c.562.156 1.117.324 1.664.516a1.75 1.75 0 0 0 .945 2.279 1.74 1.74 0 0 0 2.277-.943c.523.256 1.036.527 1.539.822l-9.007 13.969L128 128.084zm0 0 6.317-9.057 7.567-14.811c.503.297.995.606 1.477.928a1.75 1.75 0 0 0 .322 2.451 1.74 1.74 0 0 0 2.444-.322c.435.381.862.777 1.277 1.187l-12.314 11.162-7.09 8.462zm0 0 8.441-7.109 11.133-12.338c.409.412.806.84 1.186 1.273a1.753 1.753 0 0 0-.32 2.451 1.74 1.74 0 0 0 2.443.324c.321.482.635.977.928 1.479l-14.778 7.588-9.033 6.332zm0 0 9.989-4.678 13.939-9.029c.29.504.56 1.018.818 1.543a1.745 1.745 0 0 0 1.332 3.228c.188.551.358 1.109.513 1.668l-16.23 3.492L128 128.084zm0 0 10.855-1.928 15.797-5.106c.149.561.279 1.129.389 1.703a1.744 1.744 0 0 0-1.497 1.959 1.74 1.74 0 0 0 1.954 1.504c.041.582.06 1.164.062 1.746l-16.579-.834-10.981.956zm0 0 10.98.953 16.579-.832c-.002.58-.021 1.166-.062 1.746a1.742 1.742 0 0 0-1.954 1.502 1.748 1.748 0 0 0 1.497 1.963c-.109.57-.239 1.139-.389 1.701l-15.797-5.103-10.854-1.93zm0 0 10.362 3.773 16.23 3.492a27.141 27.141 0 0 1-.513 1.67 1.745 1.745 0 0 0-2.277.949 1.751 1.751 0 0 0 .945 2.281 29.151 29.151 0 0 1-.818 1.543l-13.939-9.031-9.99-4.677zm0 0 9.032 6.334 14.778 7.584a29.68 29.68 0 0 1-.928 1.482 1.735 1.735 0 0 0-2.443.32 1.751 1.751 0 0 0 .32 2.449c-.38.439-.776.867-1.186 1.279l-11.133-12.344-8.44-7.104zm0 0 7.091 8.463 12.314 11.156c-.415.412-.842.809-1.277 1.191a1.737 1.737 0 0 0-2.444-.32 1.747 1.747 0 0 0-.322 2.449c-.482.324-.974.635-1.477.926l-7.567-14.809-6.318-9.056zm0 0 4.668 10.014 9.007 13.975c-.503.287-1.016.56-1.539.818a1.743 1.743 0 0 0-2.277-.949 1.754 1.754 0 0 0-.945 2.285c-.547.189-1.102.359-1.664.514l-3.482-16.268L128 128.084zm0 0 1.923 10.881 5.094 15.834c-.562.152-1.128.279-1.697.391a1.751 1.751 0 0 0-1.957-1.502 1.749 1.749 0 0 0-1.5 1.961c-.582.039-1.162.062-1.743.062l.836-16.617-.956-11.01z"/><ellipse cx="127.999" cy="128.084" fill="#004364" rx="5.625" ry="5.637"/></svg>