<svg xmlns="http://www.w3.org/2000/svg" width="512" height="512"><g transform="translate(0 -540.362)"><path fill="#2b4896" d="M 375.73438 48 L 135.73438 48.308594 L 16 256.30664 L 136.26562 464 L 376.26562 463.69141 L 496 255.69141 L 375.73438 48 z " transform="translate(0 540.362)"/><path fill="#fff" d="M111.91602 89.683594L89.820312 128.07031 167.86328 221.33398 222.0957 221.33398 111.91602 89.683594zM399.35156 88.787109L279.85742 221.33398 335.8418 221.33398 421.25195 126.60547 399.35156 88.787109zM179.29883 290.66602L91.980469 387.52148 113.59961 424.85742 233.19922 290.66602 179.29883 290.66602zM278.62109 290.66602L399.00586 424.18555 420.82227 386.28711 334.61719 290.66602 278.62109 290.66602z" transform="translate(0 540.362)"/><path fill="#e32d3c" d="M101.28906 108.14648L94.119141 120.59961 179.10352 221.33398 196.80273 221.33398 101.28906 108.14648zM403.8457 96.546875L290.43945 221.33398 308.6875 221.33398 410.95898 108.83008 403.8457 96.546875zM205.56641 290.66406L205.56641 290.66602 101.91797 404.68359 108.62305 416.26172 221.40039 290.66406 205.56641 290.66406zM304.64062 290.66602L409.47852 405.99414 416.55859 393.69531 322.92383 290.66602 304.64062 290.66602z" transform="translate(0 540.362)"/><path fill="#fff" d="m 221.33372,588.36221 69.33322,0 0,415.99999 -69.33322,0 z"/><path fill="#fff" d="M 36.132812 221.33398 L 16 256.30664 L 35.896484 290.66602 L 475.86719 290.66602 L 496 255.69141 L 476.10547 221.33398 L 36.132812 221.33398 z " transform="translate(0 540.362)"/><path fill="#e32d3c" d="m 235.20036,588.36221 41.59993,0 0,415.99999 -41.59993,0 z"/><path fill="#e32d3c" d="M 28.150391 235.19922 L 16 256.30664 L 27.867188 276.80078 L 483.84766 276.80078 L 496 255.69141 L 484.13477 235.19922 L 28.150391 235.19922 z " transform="translate(0 540.362)"/></g></svg>