<svg xmlns="http://www.w3.org/2000/svg" version="1" viewBox="0 0 256 256"><path fill="#D73F45" d="M232 187.999 128 248 24 187.999v-120L128 8l104 59.999z"/><path fill="#D02228" d="M232 187.999 128 248V8l104 59.999z"/><path fill="#19A82D" d="m141.65 131.222 2.045 6.655 25.359-19.453-44.121.013-1.869 6.047 4.922-15.967 3.084 9.904 6.641.006L127.992 87l-13.621 44.229 5.352 4.099 3.16-10.26H149.637l-7.987 6.154zm-8.529-6.154 3.162 10.26-8.281 6.341-21.643-16.57 9.895-.03 2.055-6.652-31.363.029 35.703 27.322 2.25-1.722-10.256 7.853 3.029-9.923-5.367-4.117-9.664 31.446 35.688-27.343 3.059 9.918-8.018-6.101-5.375 4.105 25.389 19.405-13.645-44.22-6.618-.001z"/></svg>