<svg id="Layer_1" enable-background="new 0 0 512 512" height="512" viewBox="0 0 512 512" width="512" xmlns="http://www.w3.org/2000/svg"><g><path d="m412.725 460.537c9.189-7.143 17.853-14.926 25.931-23.282 0 0 4.428-6.422 6.178-9.672s47.667-75.995 47.667-75.995c9.7-26.366 15-54.859 15-84.591 0-135.311-109.691-245.002-245.002-245.002s-245.003 109.692-245.003 245.003c0 114.753 78.897 211.065 185.402 237.686.842-.171 205.933-41.895 209.827-44.147z" fill="#2a428c"/><path d="m242.834 482.177 13.132-10.39h-15.132c-25.343 0-45.96-20.618-45.96-45.96v-97.903c0-16.706-13.591-30.298-30.298-30.298h-67.143c-4.137 5.959-6.537 9.382-6.64 9.529l-.861 1.227 1.227.862c.09.063 9.018 6.433 9.075 14.753.034 4.884-3.025 9.585-9.092 13.976-.551.398-1.304.785-2.296 1.151 1.055.038 2.112.064 3.176.064h61.293v86.641c0 34.672 20.266 64.7 49.575 78.859 11.375 2.844 23.066 4.889 35.008 6.083-16.004-16.222 4.936-28.594 4.936-28.594z" fill="#3692bc"/><path d="m397.005 471.787h-143.039l-13.132 10.39s-20.739 12.257-5.153 28.366c8.807.961 17.754 1.456 26.817 1.456 49.68.001 95.895-14.8 134.507-40.212z" fill="#0cacba"/><path d="m408.979 205.332c24.949-13.175 7.568-28.375 4.592-30.749-2.827-.277-5.692-.422-8.591-.422h-61.293v-86.641c0-48.259-39.261-87.52-87.521-87.52h-2.221c-2.566 2.502-8.105 8.816-7.981 16.642.091 5.754 3.215 11.042 9.287 15.716.838.646 1.666 2.724-.156 9.202h1.071c25.342 0 45.96 20.617 45.96 45.96v97.904c0 16.706 13.591 30.298 30.298 30.298h68.283c2.542-5.199 5.295-8.818 8.272-10.39z" fill="#2abcc8"/><path d="m492.5 351.589v-89.907c0-46.858-37.016-85.231-83.343-87.419s22.968 16.734-4.178 31.069c-2.977 1.572-5.73 5.192-8.272 10.39h8.272c25.342 0 45.96 20.618 45.96 45.96v161.887c17.681-21.257 31.836-45.546 41.561-71.98z" fill="#0cacba"/><path d="m92.021 308.016s2.639-3.759 7.241-10.39h-7.241c-25.343 0-45.96-20.618-45.96-45.96v-164.146c0-25.342 20.617-45.96 45.96-45.96h164.146c.149 0 .296.01.444.011 1.439-5.371 1.399-8.981-.445-10.402-19.585-15.079 0-31.169 0-31.169h-164.145c-48.26 0-87.521 39.261-87.521 87.52v164.146c0 48.259 39.261 87.521 87.521 87.521 21.853-15.814 0-31.171 0-31.171z" fill="#0cacba"/><g><path d="m240.834 482.177c-31.072 0-56.35-25.278-56.35-56.35v-97.904c0-10.977-8.93-19.908-19.907-19.908h-72.556c-5.739 0-10.39-4.652-10.39-10.39s4.652-10.39 10.39-10.39h72.555c22.435 0 40.688 18.253 40.688 40.688v97.904c0 19.613 15.956 35.57 35.57 35.57 5.738 0 10.39 4.652 10.39 10.39-.001 5.738-4.652 10.39-10.39 10.39z" fill="#2abcc8"/></g><g><path d="m92.021 308.016c-31.071 0-56.35-25.278-56.35-56.35v-164.146c0-31.071 25.279-56.35 56.35-56.35h164.145c5.738 0 10.39 4.652 10.39 10.39s-4.652 10.39-10.39 10.39h-164.145c-19.614 0-35.57 15.957-35.57 35.57v164.145c0 19.613 15.956 35.57 35.57 35.57 5.738 0 10.39 4.652 10.39 10.39s-4.652 10.391-10.39 10.391z" fill="#2ed1e2"/></g><g fill="#2ed1e2"><path d="m438.656 437.255c8.187-8.469 15.768-17.525 22.674-27.101v-148.473c0-31.071-25.279-56.35-56.351-56.35-5.738 0-10.39 4.652-10.39 10.39 0 5.739 4.652 10.39 10.39 10.39 19.614 0 35.571 15.957 35.571 35.569v164.146c0 3.998-.673 7.84-1.894 11.429z"/><path d="m412.725 460.537c-2.495.557-5.085.86-7.746.86h-164.145c-5.738 0-10.39 4.652-10.39 10.39s4.652 10.39 10.39 10.39h138.898c11.6-6.333 22.626-13.582 32.993-21.64z"/></g><g><path d="m404.979 226.112h-72.555c-22.435 0-40.688-18.253-40.688-40.688v-97.904c0-19.613-15.956-35.57-35.57-35.57-5.738 0-10.39-4.652-10.39-10.39s4.652-10.39 10.39-10.39c31.072 0 56.35 25.279 56.35 56.35v97.903c0 10.978 8.93 19.908 19.908 19.908h72.555c5.738 0 10.39 4.652 10.39 10.39 0 5.739-4.652 10.391-10.39 10.391z" fill="#9bd8f9"/></g><g fill="#3c58a0"><path d="m35.653 359.693c18.787 45.921 51.111 84.863 92.014 111.873 0-11.683 0-26.624 0-45.703 0-59.322-64.949-65.973-92.014-66.17z"/><path d="m431.304 146.447h44.519c-25.518-45.06-64.889-81.24-112.339-102.734.545 32.172 8.498 102.734 67.82 102.734z"/><path d="m350.685 283.58h-52.61c-20.118 0-36.578 16.46-36.578 36.578v52.61c0 20.118 16.46 36.578 36.578 36.578h52.61c20.118 0 36.578-16.46 36.578-36.578v-52.61c0-20.118-16.46-36.578-36.578-36.578z"/><path d="m199.686 105.778h-52.61c-20.118 0-36.578 16.46-36.578 36.578v52.61c0 20.118 16.46 36.578 36.578 36.578h52.61c20.118 0 36.578-16.46 36.578-36.578v-52.61c-.001-20.118-16.461-36.578-36.578-36.578z"/></g></g></svg>