<svg id="Layer_1" enable-background="new 0 0 512 512" height="512" viewBox="0 0 512 512" width="512" xmlns="http://www.w3.org/2000/svg"><g><path d="m31.743 365.774h448.514c13.329-30.217 20.745-63.628 20.745-98.776 0-135.311-109.691-245.002-245.002-245.002s-245.002 109.691-245.002 245.002c0 35.148 7.416 68.559 20.745 98.776z" fill="#816ae2"/><path d="m147.447 135.947c.402.351.817.701 1.25 1.051-3.55 3.187-12.253 12.194-12.498 24.105-.175 8.541 4.051 16.697 12.567 24.264-2.245 2.059-6.336 6.582-6.275 12.182.043 3.921 2.089 7.554 6.085 10.818-2.208 1.821-5.794 5.519-6.068 10.493-.241 4.366 2.103 8.621 6.969 12.655l-6.576 47.932-.027.204 6.594 48.059c-1.896 1.393-6.398 5.253-6.667 10.679-.195 3.931 1.85 7.742 6.082 11.347-2.893 3.273-10.193 12.735-10.252 24.894-.041 8.463 3.451 16.456 10.386 23.778-3.052 3.446-12.362 14.819-17.51 30.645-4.397 13.518-6.199 32.307 5.265 52.015 35.286 19.698 75.942 30.932 119.228 30.932 4.808 0 9.579-.154 14.318-.431l181.2-96.936c11.366-15.03 21.042-31.41 28.739-48.859v-229.827z" fill="#ffe98d"/><path d="m31.743 365.774c21.974 49.816 60.055 90.931 107.645 116.741-27.543-43.438 11.691-84.14 11.691-84.14-24.635-24.635 0-48.795 0-48.795-15.28-11.701 0-21.16 0-21.16l-6.692-48.77 6.692-48.77c-15.947-12.567 0-22.5 0-22.5-15.947-11.234 0-23 0-23-30.113-25.234 0-48.433 0-48.433-.45-.336-.875-.669-1.289-1h-118.047z" fill="#ffdd40"/><path d="m428.431 185.38h-69.977c-2.372 1.988-6.467 6.194-6.558 11.612-.068 4.115 2.163 8.003 6.641 11.574-2.357 2.225-6.682 7.143-6.642 13.258.03 4.658 2.562 8.971 7.527 12.828v209.642l.344.416c.145.176 9.6 11.86 9.737 26.015l58.965-29.758c8.29-8.219 16.011-17.013 23.065-26.341v-206.144c-.001-12.739-10.364-23.102-23.102-23.102z" fill="#ffb332"/><path d="m360.921 185.38h-67.508c-12.739 0-23.103 10.363-23.103 23.102v303.092c7.809-.45 15.513-1.287 23.109-2.451l77.642-39.184c-.468-14.477-10.141-26.184-10.141-26.184v-209.848c-16.937-12.54 0-25.425 0-25.425-16.936-11.966.001-23.102.001-23.102z" fill="#ffa233"/><path d="m218.587 185.38h-69.835c-2.248 2.064-6.321 6.58-6.261 12.168.043 3.921 2.089 7.554 6.085 10.818-2.208 1.821-5.794 5.519-6.068 10.493-.241 4.366 2.103 8.621 6.969 12.655l-6.576 47.932-.027.204 6.594 48.059c-1.896 1.393-6.398 5.253-6.667 10.679-.195 3.931 1.85 7.742 6.082 11.347-.325.368-.712.825-1.132 1.345h24.987c3.855 0 6.99 3.137 6.99 6.991v15.85h38.86c12.738 0 23.103-10.363 23.103-23.103v-142.336c-.002-12.739-10.366-23.102-23.104-23.102z" fill="#ffb332"/><path d="m151.079 185.38h-67.51c-12.738 0-23.101 10.363-23.101 23.102v142.336c0 12.739 10.363 23.103 23.101 23.103h38.861v-15.85c0-3.854 3.136-6.991 6.99-6.991h20.289c.832-.972 1.369-1.5 1.369-1.5-15.28-11.701 0-21.16 0-21.16l-6.692-48.77 6.692-48.77c-15.947-12.567 0-22.5 0-22.5-15.946-11.234.001-23 .001-23z" fill="#ffa233"/><path d="m218.587 208.38h-70.027c-2.209 1.826-5.779 5.517-6.052 10.48-.241 4.366 2.103 8.621 6.969 12.655l-6.576 47.932-.027.204 6.594 48.059c-1.896 1.393-6.398 5.253-6.667 10.679-.195 3.931 1.85 7.742 6.082 11.347-.29.329-.634.736-1.002 1.186h70.707c.057 0 .103-.046.103-.103v-142.337c-.002-.056-.047-.102-.104-.102z" fill="#3c58a0"/><path d="m151.079 208.38h-67.51c-.056 0-.102.046-.102.102v142.336c0 .057.046.103.102.103h66.277c.755-.872 1.232-1.34 1.232-1.34-15.28-11.701 0-21.16 0-21.16l-6.692-48.77 6.692-48.77c-15.946-12.569.001-22.501.001-22.501z" fill="#2a428c"/><path d="m359.422 444.294.344.416c.197.238 17.475 21.592 5.534 41.599 23.203-11.591 44.314-26.747 62.605-44.763l-33.178-10.981-33.805 11.189-1.5-.496z" fill="#2a428c"/><path d="m360.921 443.754v-2l-33.805-11.189-33.805 11.189v67.423c26.433-4.039 51.468-12.312 74.408-24.091 10.443-20.466-6.798-41.332-6.798-41.332z" fill="#3c58a0"/><path d="m424.788 208.482h-66.351c.035.028.064.057.099.085-2.357 2.225-6.682 7.143-6.642 13.258.03 4.658 2.562 8.971 7.527 12.828v.369h69.11v-22.796c.001-2.068-1.675-3.744-3.743-3.744z" fill="#fe8f83"/><path d="m360.921 208.482h-63.867c-2.068 0-3.744 1.676-3.744 3.744v22.796h67.611v-1.114c-16.937-12.542 0-25.426 0-25.426z" fill="#fe646f"/><path d="m327.116 432.565-33.805 11.189v-209.847h33.805z" fill="#e41e7f"/><path d="m360.921 443.754-33.805-11.189v-198.658h33.805z" fill="#fe0364"/><path d="m394.727 432.565-33.806 11.189v-209.847h33.806z" fill="#fd3581"/><path d="m394.727 432.565 31.649 10.475c.722-.699 1.443-1.398 2.157-2.106v-207.027h-33.805v198.658z" fill="#fe646f"/><path d="m151.079 279.65h-45.111v44.004c0 2.632 2.134 4.766 4.766 4.766h40.345z" fill="#fd3581"/><path d="m196.189 279.65h-45.111v48.77h40.345c2.632 0 4.766-2.134 4.766-4.766z" fill="#ffb332"/><path d="m151.079 230.88h-40.345c-2.632 0-4.766 2.134-4.766 4.766v44.004h45.111z" fill="#a49bf9"/><path d="m191.424 230.88h-40.345v48.77h45.111v-44.004c-.001-2.632-2.134-4.766-4.766-4.766z" fill="#2ed1e2"/><path d="m146.397 106.451c.628.627 1.305 1.248 2.046 1.858-2.96 2.007-8.295 6.471-8.802 12.837-.423 5.311 2.603 10.621 8.996 15.801h334.213c5.045 0 9.135-4.09 9.135-9.135v-21.361z" fill="#2abcc8"/><path d="m20.015 127.812c0 5.045 4.09 9.135 9.135 9.135h121.928c-22.447-16.75 0-28.496 0-28.496-.922-.669-1.728-1.335-2.477-2h-128.586z" fill="#0cacba"/><path d="m148.674 81.451c-2.577 2.226-7.46 7.294-7.516 13.779-.04 4.664 2.408 9.057 7.284 13.079-.065.044-.136.095-.203.142h53.682c-.418-1.168-.658-2.421-.658-3.731v-23.269z" fill="#2ed1e2"/><path d="m151.079 81.451h-134.579c-7.456 0-13.5 6.044-13.5 13.5s6.044 13.5 13.5 13.5h134.579c-18.947-13.746 0-27 0-27z" fill="#2abcc8"/><path d="m414.539 94.951c0-7.456 6.044-13.5 13.5-13.5h-117.302v23.269c0 1.31-.24 2.563-.658 3.731h117.961c-7.457 0-13.501-6.044-13.501-13.5z" fill="#2ed1e2"/><path d="m509 94.951c0-7.456-6.044-13.5-13.5-13.5h-69.461c-7.456 0-13.5 6.044-13.5 13.5s6.044 13.5 13.5 13.5h69.461c7.456 0 13.5-6.044 13.5-13.5z" fill="#9bd8f9"/><path d="m279.263 28.043v-16.043c0-6.6-5.4-12-12-12h-22.525c-6.6 0-12 5.4-12 12v16.043z" fill="#efe2dd"/><path d="m172.736 349.58h-24.023c.059.051.109.104.169.155-2.893 3.273-10.193 12.735-10.252 24.894-.041 8.451 3.442 16.433 10.357 23.746h23.75c4.689 0 8.49-3.801 8.49-8.491v-31.814c0-4.689-3.802-8.49-8.491-8.49z" fill="#f9f3f1"/><path d="m151.079 349.58h-21.658c-4.689 0-8.49 3.801-8.49 8.491v31.814c0 4.689 3.801 8.491 8.49 8.491h21.658c-24.635-24.637 0-48.796 0-48.796z" fill="#f3eae6"/><path d="m301.557 21.996h-47.557s-15.275 12.298 0 23.375v48.588s-15.025 11.511 0 23.375h47.557c7.245 0 13.173-5.928 13.173-13.173v-68.992c0-7.245-5.928-13.173-13.173-13.173z" fill="#f9f3f1"/><path d="m256 21.996h-45.557c-7.245 0-13.173 5.928-13.173 13.173v68.991c0 7.245 5.928 13.173 13.173 13.173h45.557c-15.025-11.864 0-23.375 0-23.375v-48.587c-15.275-11.077 0-23.375 0-23.375z" fill="#f3eae6"/><ellipse cx="256" cy="69.665" fill="#2abcc8" rx="24.294" ry="24.294" transform="matrix(.232 -.973 .973 .232 128.804 302.496)"/><circle cx="261.25" cy="64.268" fill="#2ed1e2" r="12.147"/></g></svg>