<svg id="Layer_1" enable-background="new 0 0 512 512" height="512" viewBox="0 0 512 512" width="512" xmlns="http://www.w3.org/2000/svg"><g><path d="m256 21.996c-135.311 0-245.002 109.691-245.002 245.002 0 86.648 44.981 162.789 112.865 206.349l262.378 1.187c68.936-43.353 114.761-120.087 114.761-207.536 0-135.311-109.691-245.002-245.002-245.002z" fill="#2a428c"/><path d="m175.36 288.628c26.296-4.01 53.223-6.101 80.64-6.101s54.344 2.091 80.64 6.101v-237.599c-26.296 4.01-53.223 6.101-80.64 6.101s-54.344-2.091-80.64-6.101z" fill="#2ed1e2"/><g><path d="m256 57.131c-56.866 0-111.633-8.958-162.997-25.502-3.131 9.025-4.838 18.71-4.838 28.787 0 48.545 39.494 88.04 88.039 88.04s88.039-39.495 88.039-88.04c0-1.122-.028-2.238-.07-3.35-2.72.04-5.444.065-8.173.065z" fill="#ffe98d"/></g><g><path d="m119.215 39.333c-2.439 6.571-3.777 13.673-3.777 21.083 0 33.506 27.259 60.766 60.765 60.766s60.765-27.26 60.765-60.766c0-1.222-.047-2.432-.118-3.637-40.533-1.439-79.908-7.417-117.635-17.446z" fill="#ffdd40"/></g><path d="m146.096 45.737c-2.165 4.433-3.384 9.413-3.384 14.679 0 18.497 14.995 33.492 33.492 33.492s33.492-14.995 33.492-33.492c0-1.813-.149-3.59-.426-5.324-21.448-1.872-42.533-5.01-63.174-9.355z" fill="#ffc839"/><path d="m367.059 117.107v-24.881c0-2.159-1.75-3.908-3.908-3.908h-55.204c-2.159 0-3.908 1.75-3.908 3.908v24.881z" fill="#548bed"/><path d="m254.154 173.979c-1.674 1.427-13.585 12.321.193 22.404v14.443s-8.278 5.969 0 12.17l.778 14.443s-2.431 2.019-.778 4.805c.901 1.519-14.215 22.416-28.155 41.115 9.867-.549 19.803-.832 29.807-.832 11.533 0 22.976.38 34.326 1.105v-109.653z" fill="#f9f3f1"/><path d="m256.154 173.979h-40.526c-3.236 0-5.86 2.624-5.86 5.86v104.683c6.14-.53 12.31-.951 18.507-1.272 13.917-18.671 28.972-39.49 28.073-41.005-1.653-2.786.778-4.805.778-4.805l-.778-14.443c-8.278-6.201 0-12.17 0-12.17v-14.443c-13.78-10.083-1.868-20.978-.194-22.405z" fill="#f3eae6"/><g><path d="m290.345 210.826h-53.201c-3.989 0-7.221-3.233-7.221-7.221 0-3.989 3.233-7.221 7.221-7.221h53.201c3.988 0 7.221 3.233 7.221 7.221.001 3.988-3.232 7.221-7.221 7.221z" fill="#2ed1e2"/></g><g><path d="m290.345 237.439h-53.201c-3.989 0-7.221-3.233-7.221-7.222 0-3.988 3.233-7.221 7.221-7.221h53.201c3.988 0 7.221 3.233 7.221 7.221.001 3.989-3.232 7.222-7.221 7.222z" fill="#2ed1e2"/></g><g><path d="m382.791 297.777v-175.652c0-3.236-2.624-5.86-5.86-5.86h-82.766c-3.236 0-5.86 2.623-5.86 5.86v161.381c32.364 1.943 63.942 6.787 94.486 14.271z" fill="#3378dd"/></g><path d="m170 50.177c-5.75-.937-11.47-1.967-17.157-3.087l-4.943 31.898c-2.645.607-9.322 2.688-12.796 8.731-2.75 4.782-2.819 10.846-.214 18.04-2.922 1.13-9.1 4.186-11.391 10.461-1.851 5.07-.722 10.986 3.355 17.61-1.834.432-4.489 1.312-7.151 3.089-4.28 2.857-9.373 8.639-9.486 19.979l-1.635 3.001v143.39c22.3-6.431 45.195-11.455 68.594-14.94v-139.918z" fill="#4fabf7"/><path d="m110.083 160.281 1.633-2.997c0-21.164 17.643-22.359 17.643-22.359-15.141-22.024 7.489-28.25 7.489-28.25-9.403-23.274 12.374-26.416 12.374-26.416l5.096-32.888c-40.116-7.784-78.628-20.06-114.98-36.311v317.537c22.779-10.182 46.41-18.795 70.746-25.735v-142.581z" fill="#0cacba"/><path d="m334.823 51.31v37.008l1.661 200.292c47.777 7.271 93.466 20.894 136.178 39.987v-317.537c-43.208 19.316-89.458 33.044-137.839 40.25z" fill="#9bd8f9"/><path d="m363.15 88.318h-28.327v28.789h32.236v-24.881c0-2.159-1.75-3.908-3.909-3.908z" fill="#72aafc"/><path d="m94.14 229.956v77.726c6.846-2.188 13.746-4.258 20.709-6.173v-71.553c-3.229 1.179-6.717 1.823-10.354 1.823-3.638 0-7.125-.644-10.355-1.823z" fill="#f9f3f1"/><g><path d="m114.849 261.553h-20.709c-3.989 0-7.221-3.233-7.221-7.221 0-3.989 3.233-7.222 7.221-7.222h20.709c3.989 0 7.221 3.233 7.221 7.222.001 3.988-3.232 7.221-7.221 7.221z" fill="#efe2dd"/></g><g><path d="m104.495 182.209c-3.988 0-7.221-3.233-7.221-7.221v-17.704c0-3.989 3.233-7.221 7.221-7.221 3.989 0 7.222 3.233 7.222 7.221v17.704c-.001 3.988-3.234 7.221-7.222 7.221z" fill="#f9f3f1"/></g><path d="m376.931 116.265h-42.108v172.083c.298.044.593.096.891.141 2.394.361 4.782.738 7.165 1.131.894.147 1.786.301 2.679.453 1.882.32 3.76.649 5.635.989.776.141 1.553.276 2.328.42 2.414.448 4.822.916 7.225 1.397.855.171 1.709.347 2.563.523 1.992.409 3.98.829 5.964 1.26.622.135 1.247.265 1.869.403 2.428.537 4.849 1.096 7.264 1.666.818.193 1.635.389 2.451.586.644.155 1.29.305 1.933.462v-175.654c.001-3.237-2.622-5.86-5.859-5.86z" fill="#548bed"/><g><path d="m355.861 210.826h-40.626c-3.988 0-7.221-3.233-7.221-7.221 0-3.989 3.233-7.221 7.221-7.221h40.626c3.988 0 7.221 3.233 7.221 7.221s-3.232 7.221-7.221 7.221z" fill="#f9f3f1"/></g><g><path d="m355.861 237.439h-40.626c-3.988 0-7.221-3.233-7.221-7.222 0-3.988 3.233-7.221 7.221-7.221h40.626c3.988 0 7.221 3.233 7.221 7.221 0 3.989-3.232 7.222-7.221 7.222z" fill="#f9f3f1"/></g><g><path d="m355.861 184.213h-40.626c-3.988 0-7.221-3.233-7.221-7.221s3.233-7.221 7.221-7.221h40.626c3.988 0 7.221 3.233 7.221 7.221s-3.232 7.221-7.221 7.221z" fill="#f9f3f1"/></g><g><path d="m355.861 157.599h-40.626c-3.988 0-7.221-3.233-7.221-7.221 0-3.989 3.233-7.221 7.221-7.221h40.626c3.988 0 7.221 3.233 7.221 7.221s-3.232 7.221-7.221 7.221z" fill="#f9f3f1"/></g><g><path d="m355.861 264.052h-40.626c-3.988 0-7.221-3.233-7.221-7.222s3.233-7.221 7.221-7.221h40.626c3.988 0 7.221 3.233 7.221 7.221 0 3.989-3.232 7.222-7.221 7.222z" fill="#f9f3f1"/></g><path d="m152.845 47.082-4.945 31.906c-2.645.607-9.322 2.688-12.796 8.731-2.75 4.782-2.819 10.846-.214 18.04-2.922 1.13-9.1 4.186-11.391 10.461-1.764 4.834-.814 10.439 2.812 16.691 14.191 9.797 31.382 15.544 49.892 15.544.326 0 .648-.021.973-.025v-97.12c-7.988-1.191-16.121-2.605-24.331-4.228z" fill="#ffdd40"/><path d="m93.003 31.629c-3.132 9.025-4.838 18.71-4.838 28.787 0 31.34 16.464 58.904 41.194 74.508-15.141-22.024 7.489-28.25 7.489-28.25-9.403-23.274 12.374-26.416 12.374-26.416l5.096-32.887c-20.245-3.945-40.995-9.198-61.315-15.742z" fill="#ffc839"/><path d="m101.199 183.872c-.975 4.156.333 8.541 3.884 13.04v4.355h29.508c-1.069-13.937-11.595-25.221-25.174-27.449-2.493 1.493-6.995 4.833-8.218 10.054z" fill="#4f71b6"/><path d="m111.716 174.28c-2.313-.568-4.732-.87-7.221-.87-15.889 0-28.901 12.274-30.096 27.856h32.184v-4.883c-11.831-14.44 5.126-22.1 5.133-22.103z" fill="#3c58a0"/><path d="m105.083 205.651v4.768c-.812 1.454-3.327 6.616-1.633 12.252 1.232 4.096 4.389 7.436 9.351 9.965 12.003-3.429 20.949-14.098 21.812-26.985z" fill="#efe2dd"/><path d="m106.583 205.651h-32.206c1.053 15.721 14.13 28.148 30.118 28.148 3.637 0 7.121-.649 10.35-1.828-16.895-7.558-8.262-21.145-8.262-21.145z" fill="#e1d3ce"/><g><path d="m30.931 339.658c-2.716 0-5.317-1.539-6.545-4.162-1.691-3.612-.133-7.912 3.479-9.602 47.025-22.013 96.903-37.051 148.248-44.696 3.948-.587 7.619 2.135 8.207 6.079.587 3.945-2.135 7.619-6.079 8.207-49.962 7.438-98.495 22.071-144.253 43.491-.991.463-2.032.683-3.057.683z" fill="#2ed1e2"/></g><g><path d="m298.393 437.739c-6.795-6.795-8.518-19.678-8.828-28.692-3.547 4.131-7.269 7.586-10.825 10.347-6.929 5.381-15.479 8.303-24.285 8.303-.174 0-.346-.009-.52-.011-1.83 10.324-6.691 25.269-19.618 35.586-.175.14-.366.254-.552.377 6.247 3.076 13.269 4.809 20.69 4.809 20.185 0 37.435-12.787 44.087-30.684-.05-.011-.099-.024-.149-.035z" fill="#ffaa7b"/></g><path d="m254.455 427.697c-8.806 0-17.356-2.922-24.285-8.303-3.557-2.762-7.279-6.217-10.825-10.347-.311 9.014-2.033 21.897-8.829 28.692-.05.012-.098.024-.148.036 4.155 11.178 12.444 20.362 23.001 25.683.278-.036.539-.066.778-.089 1.295-.126 2.531-.611 3.547-1.423 12.661-10.104 16.575-25.252 17.778-34.27-.338.009-.677.021-1.017.021z" fill="#fc9460"/><path d="m256 512c47.863 0 92.51-13.738 130.241-37.466-7.807-8.078-18.67-13.896-33.758-15.13-4.531-.37-6.941-2.128-12.281-5.139-7.363-4.152-14.795-7.705-22.486-10.637-9.18 26.098-34.064 44.863-63.261 44.863-15.32 0-29.447-5.173-40.747-13.854-.795.483-1.678.821-2.624.948-9.103 1.223-34.774 5.594-50.02 17.338 29.198 12.283 61.273 19.077 94.936 19.077z" fill="#fd3581"/><path d="m191.195 443.628c-7.691 2.932-15.123 6.485-22.486 10.637-5.34 3.011-7.751 4.768-12.281 5.139-14.337 1.172-24.854 6.487-32.565 13.943 12.302 7.894 25.363 14.703 39.039 20.326 14.905-11.182 39.498-15.368 48.278-16.548 1.36-.183 2.602-.784 3.602-1.682-10.755-7.928-19.073-18.981-23.587-31.815z" fill="#fe0364"/><path d="m298.393 437.739c-.292-.293-.563-.611-.837-.925-6.33 17.695-23.257 30.393-43.101 30.393-7.294 0-14.191-1.721-20.316-4.77-4.318.53-13.129 2.696-18.973 11.505-.51.768-1.155 1.416-1.886 1.939 11.455 8.691 25.718 13.863 41.175 13.863 29.727 0 55.066-19.097 64.428-45.661-6.604-2.582-13.392-4.707-20.49-6.344z" fill="#fe646f"/><path d="m211.354 436.814c-.274.314-.545.632-.837.925-7.097 1.638-13.885 3.762-20.49 6.343 4.559 12.934 12.911 24.087 23.707 32.138.875-.525 1.635-1.242 2.214-2.114 5.704-8.598 14.466-10.375 18.2-10.738.459-.045.906-.15 1.343-.284-11.184-5.115-19.964-14.605-24.137-26.27z" fill="#fd3581"/><path d="m424.627 139.676c4.411 2.933 10.357 3.089 17.687.462 1.703 3.08 6.777 10.958 15.451 13.894 4.704 1.59 9.699 1.457 14.898-.373v-81.844c-25.478 8.867-46.324 29.237-54.984 56.117.64 3.404 2.352 8.687 6.948 11.744z" fill="#b4d667"/><path d="m472.662 152.06c-19.815 7.391-29.629-13.794-29.629-13.794-23.641 9.289-24.234-13.431-24.237-13.576-1.483 4.054-2.695 8.262-3.588 12.616-8.966 43.739 16.335 86.685 57.454 100.882z" fill="#88ce65"/><path d="m457.765 154.031c4.704 1.59 9.699 1.457 14.898-.373v-52.144c-14.632 7.894-25.941 21.697-30.184 38.914 1.842 3.252 6.861 10.752 15.286 13.603z" fill="#88ce65"/><path d="m472.662 208.49v-56.43c-19.552 7.292-29.359-13.22-29.616-13.766-.42 1.474-.808 2.964-1.12 4.49-5.51 26.878 7.736 53.314 30.736 65.706z" fill="#6faf46"/><path d="m152.845 47.079-4.945 31.91c-2.645.607-9.322 2.688-12.796 8.731-2.59 4.504-2.8 10.146-.639 16.797 10.895 10.317 25.585 16.666 41.739 16.666.326 0 .648-.02.973-.025v-69.848c-7.989-1.191-16.151-2.618-24.332-4.231z" fill="#ffc839"/><path d="m119.215 39.333c-2.439 6.571-3.777 13.673-3.777 21.083 0 18.498 8.319 35.082 21.4 46.236-9.379-23.253 12.382-26.394 12.382-26.394l5.096-32.885c-11.791-2.293-23.643-4.994-35.101-8.04z" fill="#ffb332"/><path d="m177.177 51.31c-10.6-1.576-22.117-3.686-31.081-5.573-2.165 4.433-3.384 9.413-3.384 14.679 0 18.497 14.995 33.492 33.492 33.492.326 0 .649-.015.973-.025z" fill="#ffa233"/><g><path d="m177.184 58.539c-.354 0-.712-.026-1.073-.079-51.34-7.644-101.217-22.682-148.246-44.696-3.612-1.691-5.169-5.989-3.479-9.602 1.691-3.612 5.99-5.169 9.602-3.479 45.762 21.42 94.294 36.053 144.251 43.491 3.944.587 6.666 4.262 6.079 8.207-.535 3.583-3.616 6.158-7.134 6.158z" fill="#2ed1e2"/></g><g><path d="m256 64.352c-26.741 0-53.62-1.983-79.888-5.893-3.945-.587-6.667-4.262-6.08-8.206.587-3.945 4.26-6.668 8.206-6.08 25.567 3.806 51.731 5.736 77.762 5.736 77.538 0 152.234-16.563 222.012-49.226 3.618-1.692 7.912-.133 9.602 3.479 1.691 3.612.133 7.912-3.479 9.602-71.709 33.568-148.465 50.588-228.135 50.588z" fill="#a6e7f0"/></g><g><path d="m137.267 210.826h-65.544c-3.989 0-7.221-3.233-7.221-7.221 0-3.989 3.233-7.221 7.221-7.221h65.544c3.988 0 7.221 3.233 7.221 7.221.001 3.988-3.232 7.221-7.221 7.221z" fill="#f9f3f1"/></g><g><path d="m481.069 339.658c-1.025 0-2.066-.22-3.057-.683-69.778-32.664-144.474-49.227-222.012-49.227-26.039 0-52.2 1.929-77.759 5.735-3.948.58-7.619-2.136-8.207-6.079-.587-3.945 2.135-7.619 6.079-8.207 26.261-3.91 53.139-5.892 79.887-5.892 79.67 0 156.426 17.02 228.135 50.588 3.612 1.69 5.169 5.99 3.479 9.602-1.227 2.623-3.829 4.163-6.545 4.163z" fill="#a6e7f0"/></g><g><path d="m253.721 242.198c-7.178 5.91-18.355 19.568-5.102 40.967.004.006.007.011.01.017 4.511 1.085 9.258.896 13.684-.577 7.848-2.61 20.154-5.224 30.187-.71 11.808 5.313 11.323 22.071 10.672 31.066-.227 3.127.517 6.264 2.207 8.916.998 1.565 1.79 3.225 2.418 4.865.781 2.038 1.336 4.143 1.68 6.281 1.812-.878 5.238-2.669 7.454-2.356.272-9.403 1.139-19.54 1.139-19.54 9.459-46.327-28.842-68.902-64.349-68.929z" fill="#4f66d0"/></g><g><path d="m256.347 242.244c-4.607-.147-9.188.078-13.634.684-35.262 4.804-38.613 24.797-38.629 32.132-.003 1.538-.856 2.964-2.239 3.637-18.342 8.923-8.453 51.927-8.453 51.927 1.842.123 4.604 1.704 6.042 2.4.352-2.191.927-4.349 1.739-6.434.619-1.589 1.392-3.194 2.359-4.711 1.677-2.632 2.441-5.736 2.213-8.839-.659-8.972-1.176-25.815 10.666-31.143 10.032-4.514 22.339-1.9 30.187.71 1.216.404 2.457.706 3.709.917-.326-.637-.669-1.267-1.05-1.883-13.802-22.289 1.286-35.428 7.09-39.397z" fill="#3c58a0"/></g><path d="m308.631 325.908c-.628-1.639-1.42-3.299-2.418-4.865-1.69-2.652-2.434-5.788-2.207-8.916.651-8.995.302-26.588-11.506-31.901-10.032-4.514-22.338-1.901-30.186.709-4.954 1.648-10.309 1.68-15.286.124-8.035 7.312-8.215 22.053-7.628 30.054.234 3.185-.55 6.37-2.271 9.071-.992 1.556-1.785 3.203-2.42 4.834-2.059 5.289-2.659 11.025-1.888 16.642l2.865 20.866c0 29.998 16.013 50.388 29.634 60.965 1.561 1.212 3.205 2.297 4.912 3.26 3.019-1.308 5.881-2.993 8.508-5.033 13.274-10.308 28.879-30.178 28.879-59.411l2.791-20.33c.745-5.42.181-10.955-1.779-16.069z" fill="#ffc7ab"/><g><g><path d="m265.494 421.718c-13.274-10.308-28.879-30.178-28.879-59.411l-2.792-20.334c-.751-5.473-.167-11.064 1.84-16.218.619-1.589 1.392-3.194 2.359-4.711 1.677-2.632 2.441-5.736 2.213-8.839-.609-8.295-.376-24.027 9.023-30.565-.895-.191-1.786-.413-2.66-.704-7.848-2.61-20.154-5.223-30.186-.709-11.842 5.328-12.16 23.006-11.501 31.978.228 3.103-.536 6.208-2.213 8.839-.967 1.517-1.74 3.122-2.358 4.711-2.006 5.154-2.591 10.744-1.84 16.218l2.792 20.334c0 29.233 15.605 49.103 28.879 59.411 6.928 5.38 15.479 8.303 24.285 8.303 6.17 0 12.212-1.44 17.662-4.15-2.329-1.157-4.55-2.542-6.624-4.153z" fill="#ffaa7b"/></g></g><g><path d="m298.148 303.634c-24.11 0-75.479 0-89.524 0-11.235 0-20.343 9.108-20.343 20.343v21.614c0 .094 0 .188.001.283.127 11.122 9.416 19.972 20.538 19.972h17.571c2.482 0 4.881-.889 6.763-2.507l13.469-11.575c3.889-3.342 9.636-3.342 13.526 0l13.469 11.575c1.882 1.617 4.281 2.507 6.763 2.507h17.571c11.122 0 20.411-8.851 20.538-19.972.001-.094.001-.188.001-.283v-21.614c.001-11.235-9.107-20.343-20.343-20.343z" fill="#3c58a0"/></g><path d="m318.49 345.873c.001-.094.001-.188.001-.283v-21.614c0-9.474-6.486-17.412-15.253-19.675l-5.09 6.554s-25.132 22.833-.196 47.768c1.968 1.969 4.722 3.819 8.117 5.555 7.186-3.063 12.327-10.055 12.421-18.305z" fill="#4f71b6"/><path d="m188.281 323.977v21.614c0 .094 0 .188.001.283.127 11.122 9.416 19.972 20.538 19.972h17.571c2.482 0 4.881-.889 6.763-2.507l13.239-11.377c-.874-2.36-2.319-4.299-4.477-5.674-21.167-13.493-3.45-35.432-3.45-35.432l-2.722-7.222c-11.911 0-22 0-27.12 0-11.235 0-20.343 9.108-20.343 20.343z" fill="#2a428c"/><g><path d="m226.392 373.067h-17.571c-15.136 0-27.588-12.162-27.759-27.111l-.001-.366v-21.614c0-15.199 12.365-27.564 27.564-27.564h29.842c3.989 0 7.222 3.233 7.222 7.221s-3.233 7.221-7.222 7.221h-29.842c-7.234 0-13.121 5.887-13.121 13.121l.001 21.82c.081 7.07 6.054 12.827 13.316 12.827h17.571c.755 0 1.485-.271 2.057-.762 3.023-2.598 7.583-2.254 10.183.772 2.599 3.025 2.254 7.584-.772 10.183-3.189 2.743-7.262 4.252-11.468 4.252z" fill="#efe2dd"/></g><g><path d="m298.149 310.856h-59.683c-3.988 0-7.221-3.233-7.221-7.221 0-3.989 3.233-7.221 7.221-7.221h59.683c3.989 0 7.221 3.233 7.221 7.221s-3.233 7.221-7.221 7.221z" fill="#f3eae6"/></g><g><path d="m297.952 373.067h-17.572c-4.205 0-8.278-1.509-11.468-4.25l-13.47-11.576c-1.191-1.024-2.922-1.024-4.112 0l-13.469 11.575c-3.025 2.6-7.585 2.256-10.183-.77-2.6-3.025-2.255-7.584.77-10.183l13.469-11.575c6.647-5.712 16.293-5.712 22.94 0l13.469 11.575c.571.491 1.302.762 2.055.762h17.572c7.263 0 13.236-5.757 13.316-12.833l.001-.201v-21.614c0-3.989 3.233-7.222 7.221-7.222s7.221 3.233 7.221 7.222l-.001 21.974c-.17 14.954-12.622 27.116-27.759 27.116z" fill="#f3eae6"/></g><g><path d="m318.491 331.198c-3.988 0-7.221-3.233-7.221-7.221 0-7.235-5.887-13.121-13.121-13.121-3.988 0-7.221-3.233-7.221-7.221 0-3.989 3.233-7.221 7.221-7.221 15.199 0 27.564 12.366 27.564 27.564 0 3.987-3.233 7.22-7.222 7.22z" fill="#f9f3f1"/></g><g fill="#3c58a0"><path d="m167.394 360.92c-10.255-40.697-39.942-35.949-85.1-16.177-21.329 9.339-34.95 23.53-43.389 35.907 12.887 24.565 29.819 46.674 49.915 65.441 72.841 7.666 88.129-47.256 78.574-85.171z"/><path d="m344.606 360.92c10.255-40.697 39.942-35.949 85.1-16.177 21.329 9.339 34.95 23.53 43.389 35.907-12.887 24.565-29.819 46.674-49.915 65.441-72.841 7.666-88.129-47.256-78.574-85.171z"/></g></g></svg>