<svg id="Layer_1" enable-background="new 0 0 512 512" height="512" viewBox="0 0 512 512" width="512" xmlns="http://www.w3.org/2000/svg"><g><path d="m256 21.996c-135.311 0-245.002 109.691-245.002 245.002 0 9.884.602 19.627 1.74 29.205l14.72 59.227c35.471 91.605 124.414 156.57 228.542 156.57 26.369 0 51.757-4.183 75.558-11.892l55.053-25.806c68.731-43.395 114.391-120.012 114.391-207.304 0-135.311-109.691-245.002-245.002-245.002z" fill="#2a428c"/><path d="m27.458 355.43c-.109-2.64-.178-5.289-.178-7.955 0-38.289 11.312-75.208 32.712-106.765 3.225-4.755 1.984-11.225-2.771-14.45-4.757-3.226-11.226-1.984-14.451 2.772-13.991 20.63-24.091 43.323-30.033 67.172 2.453 20.637 7.466 40.489 14.721 59.226z" fill="#efe2dd"/><path d="m418.617 337.071c-5.746 0-10.404 4.659-10.404 10.404 0 62.391-30.155 117.871-76.655 152.632 19.542-6.33 38.007-15.043 55.053-25.806 26.613-35.346 42.41-79.275 42.41-126.827 0-5.744-4.659-10.403-10.404-10.403z" fill="#f3eae6"/><g><path d="m51.372 245.275c-2.01 0-4.041-.581-5.83-1.794-4.756-3.225-5.996-9.695-2.771-14.45 39.42-58.128 104.831-92.831 174.975-92.831 5.746 0 10.405 4.659 10.405 10.404 0 5.746-4.658 10.404-10.404 10.404-63.237 0-122.21 31.29-157.754 83.701-2.013 2.967-5.288 4.566-8.621 4.566z" fill="#f3eae6"/></g><g><path d="m418.617 357.879c-5.746 0-10.404-4.659-10.404-10.404v-163.32c0-5.746 4.659-10.404 10.404-10.404 5.746 0 10.404 4.658 10.404 10.404v163.319c0 5.746-4.658 10.405-10.404 10.405z" fill="#f9f3f1"/></g><g><path d="m364.709 220.941c-2.785 0-5.563-1.112-7.612-3.309-17.651-18.934-38.54-33.84-62.089-44.304-24.369-10.828-50.363-16.319-77.261-16.319-5.746 0-10.404-4.658-10.404-10.404s4.658-10.404 10.404-10.404c29.827 0 58.665 6.094 85.712 18.112 26.121 11.607 49.289 28.137 68.859 49.131 3.918 4.202 3.687 10.786-.516 14.704-2.006 1.868-4.552 2.793-7.093 2.793z" fill="#f9f3f1"/></g><path d="m383.069 0c-5.746 0-10.404 4.659-10.404 10.404v18.821c0 5.746 4.659 10.404 10.404 10.404 5.746 0 10.404-4.659 10.404-10.404v-18.821c0-5.745-4.659-10.404-10.404-10.404z" fill="#ffdd40"/><path d="m454.164 0c-5.746 0-10.404 4.659-10.404 10.404v18.821c0 5.746 4.658 10.404 10.404 10.404s10.404-4.659 10.404-10.404v-18.821c0-5.745-4.658-10.404-10.404-10.404z" fill="#ffdd40"/><path d="m383.069 37.629c-5.746 0-10.404-4.659-10.404-10.404v37.629c0 5.746 4.659 10.404 10.404 10.404 5.746 0 10.404-4.659 10.404-10.404v-37.629c0 5.746-4.659 10.404-10.404 10.404z" fill="#ffc839"/><path d="m454.164 37.629c-5.746 0-10.404-4.659-10.404-10.404v37.629c0 5.746 4.658 10.404 10.404 10.404s10.404-4.659 10.404-10.404v-37.629c0 5.746-4.658 10.404-10.404 10.404z" fill="#ffc839"/><path d="m217.746 191.253c-25.822 0-50.178 6.27-71.636 17.362-.761 2.357-1.679 6.79.575 10.33 2.023 3.178 6.014 4.789 11.862 4.789 4.044 0 6.812 1.102 8.226 3.273 2.947 4.529-.292 12.51-.646 13.348-.788 1.351-8.482 15.041-3.435 26.151 2.913 6.411 9.431 10.578 19.373 12.386 30.426 5.532 38.936 109.697 39.543 117.699-1.896 3.135-12.389 21.742-6.106 39.816 4.064 11.693 14.278 20.519 30.359 26.237l4.849 18.815c-.916 1.847-3.464 7.854-.816 13.006 1.026 1.996 2.686 3.593 4.962 4.784 68.362-16.658 119.112-78.285 119.112-151.775 0-86.278-69.943-156.221-156.222-156.221z" fill="#fe0364"/><path d="m252.307 481.645-5.193-20.15c-53.434-18.465-23.974-64.528-23.974-64.528s-7.807-113.55-40.807-119.55-14.866-36.381-14.866-36.381 8.366-18.801-8.92-18.801c-17.15 0-10.562-14.392-10.457-14.618-51.315 25.607-86.566 78.612-86.566 139.859 0 86.279 69.943 156.222 156.222 156.222 13.635 0 26.861-1.751 39.469-5.034-11.993-4.588-4.908-17.019-4.908-17.019z" fill="#e41e7f"/><g><path d="m217.746 486.01c-76.388 0-138.534-62.146-138.534-138.535 0-26.696 7.645-52.635 22.107-75.011 14.074-21.775 33.864-39.143 57.229-50.229 5.191-2.463 11.396-.252 13.859 4.941 2.463 5.191.252 11.397-4.94 13.86-40.972 19.438-67.447 61.218-67.447 106.439 0 64.915 52.812 117.727 117.726 117.727 9.946 0 19.826-1.247 29.368-3.707 5.566-1.435 11.237 1.915 12.672 7.478 1.434 5.565-1.914 11.238-7.478 12.672-11.238 2.897-22.866 4.365-34.562 4.365z" fill="#fd3581"/></g><path d="m170.61 287.949v119.052c0 10.279 11.377 16.483 20.017 10.915l92.382-59.526c7.935-5.113 7.935-16.717 0-21.83l-92.382-59.526c-8.64-5.567-20.017.636-20.017 10.915z" fill="#f3eae6"/><path d="m210.568 316.641v28.361c0 11.866 13.133 19.027 23.107 12.6l22.008-14.181c9.16-5.902 9.16-19.297 0-25.199l-22.008-14.181c-9.974-6.427-23.107.734-23.107 12.6z" fill="#f9f3f1"/><g><path d="m289.326 251.663c-2.006 0-4.033-.578-5.819-1.786-19.472-13.168-42.213-20.128-65.761-20.128-17.579 0-34.495 3.797-50.279 11.286-5.189 2.461-11.396.252-13.86-4.941-2.463-5.191-.251-11.396 4.94-13.86 18.594-8.821 38.511-13.294 59.199-13.294 27.719 0 54.49 8.194 77.417 23.698 4.76 3.219 6.01 9.687 2.791 14.447-2.011 2.975-5.291 4.578-8.628 4.578z" fill="#fe646f"/></g><g><path d="m249.703 481.976c-4.633 0-8.858-3.116-10.068-7.809-1.434-5.565 1.914-11.238 7.479-12.672 52.024-13.408 88.358-60.294 88.358-114.019 0-5.746 4.659-10.404 10.404-10.404s10.404 4.659 10.404 10.404c0 63.219-42.756 118.392-103.974 134.169-.87.224-1.744.331-2.603.331z" fill="#fe646f"/></g><g><path d="m345.876 357.88c-5.746 0-10.404-4.659-10.404-10.404 0-39.112-19.426-75.598-51.965-97.599-4.76-3.219-6.01-9.687-2.791-14.447 3.219-4.759 9.685-6.01 14.447-2.791 38.27 25.875 61.118 68.805 61.118 114.837 0 5.745-4.659 10.404-10.405 10.404z" fill="#fe8f83"/></g><path d="m401.609 158.055v15.518c0 9.354 7.653 17.008 17.007 17.008 9.354 0 17.008-7.653 17.008-17.008v-15.518z" fill="#2ed1e2"/><path d="m413.762 73.177.429 4.162s-12.809 9.641 0 19.985c12.809 10.343 2.426 20.809 2.426 20.809s-15.763 24.388 9.772 40.963h10.653c6.786 0 12.287-5.501 12.287-12.287 0-9.041 5.237-17.263 13.43-21.086l.271-.127c8.193-3.823 13.43-12.045 13.43-21.086v-31.333c-6.871 0-35.494 0-62.698 0z" fill="#2abcc8"/><path d="m360.774 104.511c0 9.041 5.237 17.263 13.43 21.086l.271.127c8.193 3.823 13.43 12.045 13.43 21.086 0 6.786 5.501 12.287 12.287 12.287h28.198c-25.536-16.575-9.772-40.963-9.772-40.963s10.383-10.465-2.426-20.809c-12.809-10.343 0-19.985 0-19.985l-.429-4.162c-25.023 0-49.327 0-54.988 0v31.333z" fill="#0cacba"/><g><path d="m424.611 118.132h-11.989c-5.746 0-10.404-4.659-10.404-10.404 0-5.746 4.659-10.404 10.404-10.404h11.989c5.746 0 10.404 4.659 10.404 10.404.001 5.746-4.658 10.404-10.404 10.404z" fill="#2ed1e2"/></g><path d="m476.459 56.53h-64.091c-4.24 1.56-7.271 5.623-7.271 10.404s3.031 8.845 7.272 10.404h64.091c5.746 0 10.404-4.659 10.404-10.404-.001-5.745-4.659-10.404-10.405-10.404z" fill="#f9f3f1"/><path d="m405.787 66.935c0-5.746 4.659-10.404 10.404-10.404h-55.417c-5.746 0-10.404 4.659-10.404 10.404 0 5.746 4.659 10.404 10.404 10.404h55.417c-5.745 0-10.404-4.659-10.404-10.404z" fill="#f3eae6"/><g fill="#3c58a0"><path d="m42.999 145.867c12.033 8.39 29.424 9.662 49.334-3.784 51.333-34.667 91.167-44.76 173.333-34.356 73.646 9.325 64.574-45.428 53.349-77.535-20.109-5.337-41.227-8.196-63.015-8.196-91.248 0-170.837 49.888-213.001 123.871z"/><path d="m483.84 176.751c-13.807 12.109-27.507 30.947-27.507 58.044v96.702c0 16.048 4.356 31.872 13.027 45.375 1.004 1.564 2.094 3.126 3.253 4.678 18.119-34.184 28.388-73.167 28.388-114.553.001-31.87-6.089-62.317-17.161-90.246z"/></g></g></svg>