<svg id="Layer_1" enable-background="new 0 0 512 512" height="512" viewBox="0 0 512 512" width="512" xmlns="http://www.w3.org/2000/svg"><g><path d="m245.002 10.998c-55.117 0-105.98 18.204-146.914 48.922l-24.676 370.936c32.348 31.748 73.462 54.585 119.382 64.552l123.463-4.945c100.555-30.52 173.747-123.938 173.747-234.463 0-135.311-109.691-245.002-245.002-245.002z" fill="#2abcc8"/><path d="m476.521 59.92h-337.479l.001.001c-1.917 2.182-5.794 7.371-5.418 13.308.227 3.592 1.954 6.812 5.137 9.595-2.116 2.018-5.835 6.373-6.283 12.387-.383 5.153 1.713 10.29 6.236 15.291-3.109 1.986-9.506 6.852-11.065 14.062-1.067 4.936.333 9.982 4.16 15.008v76.651c-1.022 1.737-4.752 8.811-2.865 16.662 1.207 5.024 4.45 9.298 9.65 12.725-2.553 2.448-7.233 7.854-6.947 14.355.217 4.931 3.221 9.386 8.93 13.249v62.365c-1.951 1.625-7.857 7.138-7.83 14.286.017 4.499 2.361 8.692 6.972 12.482-.564.517-1.272 1.193-2.073 2.009h374.353v-268.956c0-19.564-15.916-35.48-35.479-35.48z" fill="#3c58a0"/><path d="m141.104 59.92h-43.016c-9.328 7-18.139 14.651-26.368 22.883l-48.852 69.749c-14.662 31.43-22.868 66.478-22.868 103.448 0 38.906 9.084 75.686 25.223 108.357h114.569c1.389-1.349 2.285-2.078 2.285-2.078-17.618-12.885 0-25.977 0-25.977v-63.894c-19.535-12.59-.974-27.013-.974-27.013-19.258-11.103-7.793-28.75-7.793-28.75v-77.585c-13.552-17.188 7.793-28.225 7.793-28.225-16.127-16.127 0-28.055 0-28.055-13.508-9.968.001-22.86.001-22.86z" fill="#2a428c"/><path d="m241.657 476.353c-.647 9.335-1.978 17.598-3.92 24.536 2.414.071 4.834.114 7.265.114 24.786 0 48.706-3.694 71.255-10.539-2.669-5.014-4.979-11.218-5.981-18.692l-2.605-19.44h-40.121c-13.585-.001-24.959 10.551-25.893 24.021z" fill="#f3eae6"/><path d="m243.154 476.456c.885-12.767 11.598-22.625 24.396-22.625h40.322l-3.358-25.054h-97.029l-5.762 42.994c-1.367 10.197-5.13 17.991-8.93 23.637 15.033 3.263 30.578 5.15 46.501 5.517 2.203-8.012 3.324-16.731 3.86-24.469z" fill="#efe2dd"/><path d="m476.521 82.78h-337.805c.016.014.03.029.047.044-2.116 2.018-5.835 6.373-6.283 12.387-.383 5.153 1.713 10.29 6.236 15.291-3.109 1.986-9.506 6.852-11.065 14.062-1.067 4.936.333 9.982 4.16 15.008v76.651c-1.022 1.737-4.752 8.811-2.865 16.662 1.207 5.024 4.45 9.298 9.65 12.725-2.553 2.448-7.233 7.854-6.947 14.355.217 4.931 3.221 9.386 8.93 13.249v62.365c-1.951 1.625-7.857 7.138-7.83 14.286.017 4.499 2.361 8.692 6.972 12.482-.564.517-1.272 1.193-2.073 2.009h351.492v-268.956c0-6.841-5.779-12.62-12.619-12.62z" fill="#a49bf9"/><path d="m142.077 336.302v-63.894c-19.535-12.59-.974-27.013-.974-27.013-19.258-11.103-7.793-28.75-7.793-28.75v-77.585c-13.552-17.188 7.793-28.225 7.793-28.225-16.127-16.127 0-28.055 0-28.055h-69.366c-20.103 20.108-36.711 43.702-48.877 69.786v206.868c.77 1.651 1.557 3.292 2.363 4.923h114.569c1.389-1.349 2.285-2.078 2.285-2.078-17.618-12.885 0-25.977 0-25.977z" fill="#9181f2"/><path d="m139.641 362.279c.028.023.05.047.078.07-4.311 3.952-16.851 16.909-17.187 34.189-.235 12.077 5.602 23.614 17.318 34.318h336.671c19.563 0 35.479-15.916 35.479-35.479v-33.097h-372.359z" fill="#f9f3f1"/><path d="m142.077 362.279h-117.887c12.377 25.669 29.11 48.838 49.222 68.577h68.666c-40.619-35.643-.001-68.577-.001-68.577z" fill="#f3eae6"/><ellipse cx="256" cy="396.567" fill="#e1d3ce" rx="15.295" ry="15.295" transform="matrix(.707 -.707 .707 .707 -205.435 297.171)"/><path d="m461.085 115.311c0-2.472-2.004-4.476-4.475-4.476h-318.402c-3.25 2.163-9.078 6.888-10.557 13.729-1.067 4.936.333 9.982 4.16 15.008v76.651c-1.022 1.737-4.752 8.811-2.865 16.662 1.182 4.922 4.331 9.118 9.347 12.509h322.792z" fill="#f9f3f1"/><path d="m133.311 216.645v-77.585c-13.552-17.188 7.793-28.225 7.793-28.225h-85.713c-2.472 0-4.475 2.004-4.475 4.476v130.084h90.188c-19.259-11.104-7.793-28.75-7.793-28.75z" fill="#f3eae6"/><path d="m461.085 244.874h-323.523c.343.246.672.498 1.034.737-2.553 2.448-7.233 7.854-6.947 14.355.212 4.81 3.083 9.166 8.523 12.963h320.914v-28.055z" fill="#b4d667"/><path d="m50.915 272.929h91.162v-.521c-19.535-12.59-.974-27.013-.974-27.013-.296-.171-.563-.347-.844-.521h-89.344z" fill="#88ce65"/><g><path d="m133.311 154.646h-44.264c-4.304 0-7.793-3.489-7.793-7.793s3.489-7.793 7.793-7.793h44.264c4.304 0 7.793 3.489 7.793 7.793 0 4.305-3.489 7.793-7.793 7.793z" fill="#e1d3ce"/></g><g><path d="m133.311 185.646h-44.264c-4.304 0-7.793-3.489-7.793-7.793s3.489-7.793 7.793-7.793h44.264c4.304 0 7.793 3.489 7.793 7.793 0 4.305-3.489 7.793-7.793 7.793z" fill="#e1d3ce"/></g><g><path d="m133.311 216.645h-44.264c-4.304 0-7.793-3.489-7.793-7.793s3.489-7.793 7.793-7.793h44.264c4.304 0 7.793 3.489 7.793 7.793s-3.489 7.793-7.793 7.793z" fill="#e1d3ce"/></g><ellipse cx="403.516" cy="167.613" fill="#fd3581" rx="36.914" ry="36.914" transform="matrix(.977 -.214 .214 .977 -26.554 90.419)"/><circle cx="410.266" cy="159.658" fill="#fe646f" r="18.457"/><g><path d="m279.664 222.729c-3.439 0-6.587-2.294-7.521-5.775-5.091-18.958-17.259-34.799-34.264-44.605s-36.813-12.402-55.77-7.313c-4.157 1.117-8.431-1.349-9.548-5.505-1.116-4.157 1.349-8.431 5.506-9.548 22.98-6.17 46.987-3.022 67.598 8.864 20.612 11.885 35.361 31.087 41.531 54.066 1.116 4.157-1.349 8.432-5.505 9.548-.677.18-1.358.268-2.027.268z" fill="#0cacba"/></g><g><path d="m279.663 222.727c-1.245 0-2.508-.298-3.681-.928-3.792-2.038-5.215-6.762-3.178-10.553 13.08-24.348 36.222-40.99 63.493-45.66 4.24-.727 8.27 2.123 8.997 6.366s-2.124 8.27-6.366 8.997c-22.505 3.853-41.601 17.584-52.391 37.672-1.408 2.619-4.097 4.106-6.874 4.106z" fill="#2ed1e2"/></g><g><path d="m337.805 195.464c-1.278.001-2.572-.314-3.769-.977-3.765-2.085-5.126-6.827-3.041-10.593l6.945-12.539-12.54-6.946c-3.765-2.085-5.126-6.827-3.041-10.593 2.084-3.765 6.828-5.13 10.593-3.041l19.357 10.721c3.765 2.085 5.126 6.827 3.041 10.593l-10.721 19.357c-1.421 2.568-4.082 4.018-6.824 4.018z" fill="#9bd8f9"/></g><path d="m143.676 272.408h-92.761v59.419c0 2.472 2.004 4.476 4.475 4.476h88.286z" fill="#fd3581"/><path d="m168.534 272.408v63.894h288.076c2.472 0 4.475-2.004 4.475-4.476v-59.419h-292.551z" fill="#f9f3f1"/><path d="m142.077 272.408h28.055v63.894h-28.055z" fill="#fe646f"/><g><path d="m426.786 312.148h-220.978c-4.304 0-7.793-3.489-7.793-7.793s3.489-7.793 7.793-7.793h220.978c4.304 0 7.793 3.489 7.793 7.793 0 4.305-3.488 7.793-7.793 7.793z" fill="#e1d3ce"/></g><g fill="#2ed1e2"><path d="m245.002 10.998c-28.35 0-55.569 4.827-80.895 13.685 6.716 8.221 16.305 15.295 29.428 15.295h111.328s17.218-.247 30.816-11.643c-28.048-11.18-58.642-17.337-90.677-17.337z"/><path d="m146.432 451.728h-48.774c22.416 16.901 47.825 30.039 75.295 38.479 7.081-18.136-6.325-38.479-26.521-38.479z"/></g></g></svg>