<svg id="Layer_1" enable-background="new 0 0 512 512" height="512" viewBox="0 0 512 512" width="512" xmlns="http://www.w3.org/2000/svg"><g><path d="m84.933 442.365 357.924-16.922c36.26-42.719 58.146-98.022 58.146-158.445 0-135.311-109.691-245.002-245.002-245.002s-245.002 109.691-245.002 245.002c-.001 68.749 28.328 130.872 73.934 175.367z" fill="#816ae2"/><path d="m441.885 90.9c-3.482-6.993-11.746-13.742-30.434-14.767h-29.72c-8.276 0-15.008-6.733-15.008-15.009v-22.37c0-26.031-12.327-35.28-19.692-38.485-1.829-.176-3.673-.269-5.526-.269h-144.807s-29.231 30.474 0 59.705c.541.541 1.033 1.075 1.5 1.605h105.592c1.679 0 3.398.08 5.116.238 7.018 3.136 18.496 12.07 18.496 36.911v22.37c0 9.161 7.453 16.614 16.613 16.614 13.172 1.315 48.705-5.674 58.617 13.678.599 3.32.903 6.661.903 9.934v301.545c14.438-10.907 27.625-23.379 39.321-37.158v-324.091c0-3.531-.339-7.026-.971-10.451z" fill="#efe2dd"/><path d="m139.033 0c-9.048 0-16.384 7.335-16.384 16.384v44.926h77.549c-.467-.53-.959-1.064-1.5-1.605-29.231-29.231 0-59.705 0-59.705h-59.665z" fill="#e1d3ce"/><path d="m404.169 150.605c-3.482-6.993-11.745-13.742-30.434-14.767h-29.72c-8.276 0-15.008-6.733-15.008-15.009v-22.37c0-26.031-12.327-35.28-19.692-38.485-1.829-.177-3.673-.27-5.526-.27h-137.138c-3.174 1.881-8.286 5.709-10.243 11.7-1.593 4.877-.766 10.15 2.457 15.682v14.026c-1.227 1.55-4.881 6.776-4.042 13.168.609 4.643 3.427 8.79 8.38 12.343-1.973 3.496-6.839 13.589-3.541 23.137 2.212 6.404 7.628 11.21 16.106 14.295v58.39c-2.279 1.859-10.021 8.877-10.364 18.657-.23 6.561 2.917 12.896 9.361 18.854-4.137 2.901-13.731 11.784-13.731 31.764v170.862c-.007.52-.085 12.874 6.809 26.521 1.377 2.726 3.102 5.611 5.254 8.508 25.891 9.313 53.803 14.389 82.903 14.389 56.124 0 107.83-18.885 149.14-50.629v-300.315c0-3.531-.339-7.026-.971-10.451z" fill="#f3eae6"/><path d="m169.89 59.705h-68.574c-9.049 0-16.384 7.335-16.384 16.384v366.275c25.482 24.861 56.365 44.203 90.715 56.129-13.361-16.653-13.113-35.893-13.113-35.893s0-146.601 0-170.882 14.734-31.549 14.734-31.549c-23.346-19.83 0-36.995 0-36.995v-60.183c-29.596-10.008-12.055-36.809-12.055-36.809-16.901-11.067-4.848-24.529-4.848-24.529v-14.976c-10.999-18.323 9.525-26.972 9.525-26.972z" fill="#efe2dd"/><path d="m344.491 76.564c-10.795-10.795-25.436-16.859-40.702-16.859 0 0 23.843 2.63 23.843 38.754v22.37c0 9.049 7.335 16.384 16.384 16.384h29.72c11.238.616 31.405 4.426 31.405 23.843 0-15.266-6.065-29.907-16.859-40.702z" fill="#f9f3f1"/><path d="m382.207 16.859c-10.795-10.795-25.436-16.859-40.702-16.859 0 0 23.843 2.63 23.843 38.754v22.37c0 9.049 7.335 16.384 16.384 16.384h29.72c11.238.616 31.405 4.425 31.405 23.843 0-15.266-6.064-29.907-16.859-40.702z" fill="#f3eae6"/><path d="m277.977 126.183h-115.343c.194.146.369.297.569.441-1.973 3.496-6.839 13.589-3.541 23.137 2.212 6.404 7.628 11.21 16.106 14.295v58.39c-2.279 1.859-10.021 8.877-10.364 18.657-.23 6.561 2.917 12.896 9.361 18.854-.095.067-.197.141-.298.214h103.509c13.617 0 24.656-11.039 24.656-24.655v-84.676c0-13.618-11.038-24.657-24.655-24.657z" fill="#fd3581"/><path d="m61.803 126.183c-13.617 0-24.655 11.039-24.655 24.656v84.676c0 13.617 11.039 24.655 24.655 24.655h115.465c-23.346-19.83 0-36.995 0-36.995v-60.183c-29.596-10.008-12.055-36.809-12.055-36.809z" fill="#fe0364"/><path d="m133.412 101.654h26.954c4.136 0 7.488-3.353 7.488-7.488 0-4.136-3.352-7.489-7.488-7.489h-26.954c-4.136 0-7.488 3.353-7.488 7.489-.001 4.136 3.352 7.488 7.488 7.488z" fill="#4f71b6"/><g fill="#e1d3ce"><path d="m125.923 299.208c0 4.136 3.352 7.488 7.488 7.488h221.052c4.136 0 7.488-3.352 7.488-7.488s-3.353-7.488-7.488-7.488h-221.051c-4.136-.001-7.489 3.352-7.489 7.488z"/><path d="m354.464 323.813h-221.052c-4.136 0-7.488 3.353-7.488 7.488 0 4.136 3.352 7.488 7.488 7.488h221.052c4.136 0 7.488-3.353 7.488-7.488.001-4.136-3.352-7.488-7.488-7.488z"/><path d="m354.464 355.906h-221.052c-4.136 0-7.488 3.352-7.488 7.488s3.352 7.488 7.488 7.488h221.052c4.136 0 7.488-3.353 7.488-7.488.001-4.135-3.352-7.488-7.488-7.488z"/><path d="m354.464 388h-221.052c-4.136 0-7.488 3.353-7.488 7.488 0 4.136 3.352 7.489 7.488 7.489h221.052c4.136 0 7.488-3.353 7.488-7.489.001-4.136-3.352-7.488-7.488-7.488z"/><path d="m354.464 420.093h-221.052c-4.136 0-7.488 3.353-7.488 7.488 0 4.136 3.352 7.488 7.488 7.488h221.052c4.136 0 7.488-3.352 7.488-7.488.001-4.135-3.352-7.488-7.488-7.488z"/></g><path d="m146.825 216.373 3.893 10.314c1.469 3.893 5.807 5.815 9.65 4.362 3.87-1.46 5.822-5.78 4.362-9.65l-22.97-60.865c-.025-.067-.051-.134-.078-.201-1.375-3.348-4.602-5.511-8.221-5.511 0 0-.002 0-.003 0-3.622.001-6.849 2.168-8.222 5.518-.023.057-.046.116-.069.174l-23.18 60.863c-1.472 3.864.468 8.192 4.333 9.663 3.863 1.466 8.189-.467 9.663-4.333l3.936-10.335h26.906zm-13.392-35.484 7.739 20.507h-15.549z" fill="#f9f3f1"/><path d="m104.834 192.596c0-4.136-3.352-7.488-7.488-7.488h-15.376v-15.082h17.348c4.136 0 7.488-3.353 7.488-7.489s-3.352-7.488-7.488-7.488h-24.836c-4.136 0-7.489 3.352-7.489 7.488v61.279c0 4.136 3.352 7.489 7.489 7.489 4.136 0 7.488-3.353 7.488-7.489v-23.732h15.375c4.136.001 7.489-3.352 7.489-7.488z" fill="#f9f3f1"/><path d="m200.889 231.531c10.339 0 19.113-4.148 25.184-11.392 2.657-3.169 2.242-7.892-.928-10.549-3.168-2.658-7.892-2.241-10.549.928-3.532 4.21-8.296 6.036-13.707 6.036-12.891 0-23.378-10.487-23.378-23.377s10.487-23.377 23.378-23.377c4.685 0 9.204 1.379 13.065 3.989 3.43 2.317 8.084 1.414 10.398-2.013 2.315-3.428 1.414-8.082-2.013-10.398-6.348-4.288-13.765-6.555-21.45-6.555-21.149 0-38.355 17.205-38.355 38.354s17.205 38.354 38.355 38.354z" fill="#f9f3f1"/><path d="m234.721 169.8h9.489v54.243c0 4.136 3.352 7.489 7.488 7.489s7.489-3.352 7.489-7.489v-54.243h9.626c4.136 0 7.489-3.353 7.489-7.489s-3.353-7.488-7.489-7.488h-34.092c-4.136 0-7.488 3.352-7.488 7.488s3.351 7.489 7.488 7.489z" fill="#f9f3f1"/><path d="m11.019 268.655c.33 49.679 15.451 95.833 41.175 134.307 3.932-7.39 6.17-15.803 6.17-24.718v-57.652c0-22.002-18.41-45.55-47.345-51.937z" fill="#9181f2"/><path d="m491.322 198.63c-14.25 9.523-23.687 25.747-23.687 44.077v57.652c0 17.328 8.436 32.772 21.397 42.454 7.762-23.874 11.969-49.352 11.969-75.815.001-23.73-3.385-46.667-9.679-68.368z" fill="#9181f2"/></g></svg>