<svg id="Layer_1" enable-background="new 0 0 512 512" height="512" viewBox="0 0 512 512" width="512" xmlns="http://www.w3.org/2000/svg"><g><path d="m245.002 10.998c-120.944 0-221.408 87.638-241.381 202.872v84.259c19.973 115.234 120.437 202.872 241.381 202.872 135.311 0 245.002-109.691 245.002-245.002s-109.691-245.001-245.002-245.001z" fill="#ffdd40"/><path d="m469.281 240.055h-71.341c-9.539 0-17.895-6.805-19.87-16.181-15.079-71.622-79.169-123.607-152.389-123.607-23.755 0-46.546 5.477-67.017 15.315.695.231 1.416.443 2.17.632-1.365 3.219-3.614 10.227-.715 16.502 2.137 4.627 6.591 7.849 13.253 9.596-.284.531-.603 1.172-.927 1.885 16.136-7.714 34.189-12.04 53.235-12.04 68.287 0 123.842 55.555 123.842 123.842 0 55.045-36.102 101.809-85.868 117.879.941.344 1.916.664 2.964.932-1.758 3.06-4.604 9.379-2.654 15.679 1.508 4.873 5.532 8.651 11.975 11.251-.295.527-.628 1.169-.961 1.897 51.184-17.258 91.533-60.615 103.092-115.51 1.974-9.376 10.331-16.182 19.87-16.182h71.929c8.917 0 16.19-7.317 15.939-16.401-.234-8.54-7.648-15.489-16.527-15.489z" fill="#0cacba"/><path d="m269.029 373.814c-1.07-.208-2.048-.46-2.985-.732-12.658 4.376-26.236 6.759-40.363 6.759-68.287 0-123.843-55.555-123.843-123.842 0-50.091 29.894-93.33 72.778-112.817.617-1.172 1.08-1.868 1.08-1.868-24.333-5-12.704-26.156-12.704-26.156-.811-.158-1.569-.341-2.298-.537-43.623 20.2-77.054 60.1-87.402 109.252-1.973 9.376-10.33 16.182-19.869 16.182h-52.893c-.339 5.273-.53 10.586-.53 15.945s.191 10.672.53 15.945h52.891c9.54 0 17.896 6.806 19.869 16.184 15.08 71.621 79.17 123.604 152.39 123.604 17.844 0 35.142-3.095 51.323-8.801.647-1.221 1.166-1.956 1.166-1.956-23.191-8.09-9.14-27.162-9.14-27.162z" fill="#3692bc"/><g fill="#2ed1e2"><path d="m272.009 107.684c-4.194-5.783-5.596-10.846-4.163-15.048 2.212-6.489 10.569-9.048 10.743-9.1l.261-.076 1.342-1.001c-17.265-5.444-35.586-8.377-54.51-8.377-27.282 0-53.312 6.089-76.723 17.028-1.321 3.136-3.551 10.069-.672 16.167 2.048 4.338 6.233 7.328 12.447 8.909 19.756-9.222 41.768-14.378 64.948-14.378 16.599 0 32.607 2.655 47.624 7.551-.474-.583-.913-1.145-1.297-1.675z"/><path d="m511.984 254.827c-.62-22.583-19.775-40.956-42.702-40.956h-66.622c-3.254-13.648-8.034-26.664-14.132-38.88-.176.527-.341 1.037-.482 1.514-1.633 5.508-4.406 9.081-8.243 10.623-6.761 2.716-14.934-1.561-15.771-2.017-.258-.191-1.103-.821-2.423-1.81 6.811 12.675 11.907 26.407 14.956 40.89 2.124 10.085 11.114 17.405 21.377 17.405h71.342c8.053 0 14.775 6.276 14.987 13.99.226 8.206-6.351 14.819-14.399 14.819h-71.932c-10.263 0-19.253 7.319-21.377 17.406-11.204 53.215-50.008 96.434-100.639 113.958-1.626 2.916-4.379 9.194-2.054 15.134 1.861 4.754 6.516 8.139 13.832 10.087 56.577-20.608 100.594-68.613 114.957-128.86h67.21c23.766 0 42.764-19.57 42.115-43.303z"/></g><g fill="#2abcc8"><path d="m278.17 400.975c-.001 0-.001 0-.002-.001-16.396 5.962-34.073 9.218-52.487 9.218-73.909 0-136.164-52.48-150.883-122.381-2.122-10.086-11.113-17.407-21.377-17.407h-52.988c.545 9.394 1.615 18.645 3.189 27.726h45.081c19.297 80.942 92.106 139.788 176.979 139.788 22.635 0 44.41-4.188 64.542-11.861-25.885-5.507-12.054-25.082-12.054-25.082z"/><path d="m.433 241.596h52.989c10.264 0 19.254-7.321 21.377-17.406 10.267-48.764 43.71-89.133 88.192-109.029l.001-.003c-23.037-4.49-11.924-25.025-11.924-25.025-50.463 22.796-89.086 68.038-102.365 123.737h-45.082c-1.574 9.08-2.644 18.332-3.188 27.726z"/></g><path d="m225.681 130.617c-18.787 0-36.618 4.161-52.631 11.598.111.03.211.068.323.098-1.832 3.419-5.069 11.003-2.159 17.704 1.718 3.954 5.264 6.887 10.56 8.77 13.207-6.676 28.124-10.444 43.907-10.444 53.848 0 97.657 43.809 97.657 97.657 0 44.362-29.735 81.904-70.319 93.757-1.251 3.944-2.346 10.06.283 15.513 2.189 4.539 6.518 7.688 12.859 9.404 49.334-16.874 84.903-63.697 84.903-118.675 0-69.135-56.247-125.382-125.383-125.382z" fill="#2ed1e2"/><path d="m254.784 349.229c-9.196 2.877-18.971 4.429-29.103 4.429-53.849 0-97.658-43.809-97.658-97.657 0-38.825 22.776-72.428 55.668-88.158-21.387-6.435-7.995-26.528-7.995-26.528-.151-.031-.283-.07-.431-.102-44.101 19.445-74.967 63.576-74.967 114.787 0 69.137 56.247 125.383 125.383 125.383 15.131 0 29.644-2.694 43.085-7.628-19.017-3.844-16.192-18.278-13.982-24.526z" fill="#2abcc8"/><path d="m466.255 150.661c-39.392-82.589-123.653-139.663-221.253-139.663-56.078 0-107.745 18.851-149.034 50.548 6.572 6.949 17.279 11.613 34.061 3.435 39.333-19.167 159.586-48.042 240.833 40.833 40.875 44.714 72.248 52.377 95.393 44.847z" fill="#ffe98d"/><path d="m466.255 361.339c-39.391 82.589-123.653 139.663-221.253 139.663-56.078 0-107.745-18.851-149.034-50.548 6.572-6.949 17.279-11.613 34.061-3.435 39.333 19.167 159.586 48.043 240.833-40.833 40.875-44.714 72.248-52.378 95.393-44.847z" fill="#ffe98d"/><path d="m363.215 186.374s20.054 11.504 26.267-9.44c-22.08-45.587-62.471-80.25-111.062-95.025l-.25.187s-21.943 6.386-7.375 26.469c40.23 12.356 73.586 40.779 92.42 77.809z" fill="#9bd8f9"/></g></svg>