<svg id="Layer_1" enable-background="new 0 0 512 512" height="512" viewBox="0 0 512 512" width="512" xmlns="http://www.w3.org/2000/svg"><g><path d="m446.436 421.128c34.115-42.099 54.566-95.722 54.566-154.13 0-135.311-109.691-245.002-245.002-245.002s-245.002 109.691-245.002 245.002c0 65.515 25.716 125.023 67.603 168.983z" fill="#ffdd40"/><path d="m445.32 104.421c-4-8.033-13.492-15.787-34.96-16.963h-34.141c-9.506 0-17.24-7.735-17.24-17.242v-25.698c0-29.903-14.16-40.527-22.621-44.209-2.102-.202-4.219-.309-6.348-.309h-156.452c-2.858 2.824-9.696 10.617-9.687 20.554.007 6.479 2.932 12.578 8.702 18.162-4.162 1.101-11.733 3.914-16.616 10.528-3.945 5.343-5.295 12.036-4.013 19.893 3.838 23.515 14.712 58.832 16.467 64.455-1.388 1.846-4.873 7.228-4.088 13.822.58 4.875 3.347 9.282 8.23 13.118-3.194 3.339-11.165 12.876-11.475 25.213-.222 8.838 3.555 17.208 11.225 24.878 24.184 24.185 1.354 94.577 1.121 95.285l-.084.255 3.398 94.317c-1.455 2.577-9.255 17.121-11.913 37.128-2.216 16.677-.975 39.821 14.569 62.161 24.103 7.928 49.85 12.231 76.606 12.231 76.903 0 145.518-35.442 190.436-90.872v-304.702c0-4.057-.389-8.071-1.116-12.005z" fill="#4f71b6"/><path d="m175.754 0h-78.332c-10.395 0-18.821 8.426-18.821 18.821v417.16c28.077 29.467 63.425 51.939 103.161 64.56-34.506-47.163-3.508-99.686-3.508-99.686l-3.404-94.477s23.641-71.69-1.485-96.816 1.485-49.19 1.485-49.19c-17.264-12.192-4.77-26.47-4.77-26.47s-12.466-39.338-16.656-65.007c-4.189-25.669 22.329-29.327 22.329-29.327-23.36-19.746.001-39.568.001-39.568z" fill="#3c58a0"/><path d="m352.951 284.263h-12.457c-3.577 0-6.746-2.328-7.788-5.751-1.801-5.914-4.157-11.586-7.015-16.951-1.683-3.16-1.095-7.048 1.437-9.58l8.804-8.804c3.187-3.187 3.187-8.354 0-11.54l-19.735-19.736c-3.187-3.187-8.353-3.187-11.54 0l-8.804 8.804c-2.532 2.532-6.42 3.12-9.58 1.437-5.365-2.857-11.037-5.214-16.951-7.015-3.422-1.042-5.751-4.211-5.751-7.788v-12.457c0-4.507-3.653-8.16-8.16-8.16h-27.911c-4.506 0-8.16 3.653-8.16 8.16v12.456c0 3.577-2.329 6.746-5.751 7.789-5.914 1.801-11.586 4.157-16.951 7.015-.578.308-1.185.514-1.8.672-1.148 3.754-4.065 15.531 1.236 24.554 3.21 5.464 8.814 8.866 16.66 10.113 15.403 2.448 45.323 48.592 67.399 86.266l4.936-4.936c1.335-1.333 3.503-1.333 4.838 0l5.395 5.395c2.056 2.058 5.162 2.522 7.729 1.158 3.217-1.713 6.617-3.119 10.104-4.182 2.776-.845 4.642-3.37 4.642-6.282v-7.632c0-1.887 1.534-3.421 3.421-3.421h17.102c1.887 0 3.421 1.534 3.421 3.421v1.225h11.231c4.507 0 8.16-3.654 8.16-8.16v-27.91c-.001-4.507-3.654-8.16-8.161-8.16z" fill="#f9f3f1"/><path d="m187.058 220.705-8.804-8.804c-3.187-3.187-8.353-3.187-11.54 0l-19.736 19.736c-3.187 3.187-3.187 8.354 0 11.54l8.804 8.804c2.532 2.532 3.12 6.42 1.437 9.58-2.857 5.365-5.214 11.037-7.014 16.951-1.042 3.423-4.211 5.751-7.789 5.751h-12.456c-4.507 0-8.16 3.654-8.16 8.16v27.91c0 4.507 3.654 8.16 8.16 8.16h12.457c3.577 0 6.746 2.329 7.789 5.751 1.801 5.914 4.157 11.586 7.014 16.951 1.683 3.16 1.095 7.048-1.437 9.58l-8.804 8.804c-3.187 3.187-3.187 8.353 0 11.54l19.736 19.735c3.187 3.187 8.354 3.187 11.54 0l8.804-8.804c2.532-2.532 6.42-3.12 9.58-1.437 5.365 2.857 11.037 5.214 16.951 7.015 3.422 1.042 5.751 4.211 5.751 7.789v12.456c0 4.507 3.654 8.16 8.16 8.16h27.91c4.507 0 8.16-3.654 8.16-8.16v-10.319h-2.137c-1.886 0-3.42-1.534-3.42-3.421v-17.101c0-1.887 1.534-3.421 3.42-3.421h7.632c2.913 0 5.438-1.866 6.283-4.643 1.064-3.492 2.471-6.891 4.182-10.103 1.365-2.564.9-5.67-1.158-7.729l-5.395-5.395c-1.333-1.333-1.333-3.504 0-4.838l8.26-8.26c-22.208-37.84-52.348-84.113-68.267-86.643-27.144-4.314-16.332-33.858-16.332-33.858-3.161 1.683-7.049 1.095-9.581-1.437z" fill="#efe2dd"/><path d="m376.766 19.367c-12.401-12.401-29.219-19.367-46.756-19.367 0 0 27.389 3.021 27.389 44.519v25.698c0 10.395 8.427 18.821 18.821 18.821h34.14c12.909.708 36.076 5.084 36.076 27.389 0-17.537-6.966-34.355-19.367-46.756z" fill="#6389c6"/><path d="m215.37 39.568h-45.565c-4.235 1.486-9.914 4.346-13.848 9.676-3.945 5.343-5.295 12.036-4.013 19.893 3.838 23.515 14.712 58.832 16.467 64.455-1.388 1.846-4.873 7.228-4.088 13.822.572 4.809 3.281 9.159 8.042 12.958h43.005c12.277 0 22.23-9.952 22.23-22.23v-76.344c0-12.277-9.953-22.23-22.23-22.23z" fill="#f9f3f1"/><path d="m175.754 39.568h-109.956c-12.277 0-22.23 9.953-22.23 22.229v76.345c0 12.277 9.952 22.23 22.23 22.23h109.052c-17.264-12.192-4.77-26.47-4.77-26.47s-12.466-39.338-16.656-65.007c-4.189-25.668 22.33-29.327 22.33-29.327z" fill="#efe2dd"/><path d="m153.425 68.896c-.025-.067-.051-.133-.078-.198-1.338-3.257-4.477-5.36-7.997-5.36h-.007c-3.524.003-6.661 2.112-7.996 5.373-.023.054-.044.11-.066.167l-21.141 55.508c-1.449 3.803.461 8.062 4.265 9.511 3.802 1.441 8.06-.46 9.511-4.265l3.457-9.077h23.793l3.418 9.056c1.114 2.951 3.917 4.77 6.896 4.77.865 0 1.745-.153 2.601-.477 3.808-1.436 5.73-5.689 4.293-9.497zm-14.439 36.918 6.337-16.639 6.279 16.639z" fill="#2a428c"/><path d="m107.004 96.662c1.966-3.128 3.122-6.815 3.122-10.775 0-11.207-9.118-20.325-20.325-20.325h-16.354c-4.071 0-7.37 3.299-7.37 7.37v56.301c0 4.064 3.296 7.37 7.37 7.37h.033s15.034-.068 19.178-.068c12.421 0 22.524-10.104 22.524-22.524 0-6.973-3.187-13.214-8.178-17.349zm-26.188-16.36h8.984c3.079 0 5.585 2.506 5.585 5.585s-2.506 5.585-5.585 5.585c-.12 0-.587-.001-8.984.016zm11.841 41.494c-2.186 0-7.394.019-11.841.037v-15.594c5.524-.021 3.296-.005 11.841-.011 4.293 0 7.784 3.492 7.784 7.783 0 4.293-3.491 7.785-7.784 7.785z" fill="#2a428c"/><path d="m207.767 63.379h-31.092c-4.071 0-7.37 3.299-7.37 7.37s3.299 7.37 7.37 7.37h8.113v48.93c0 4.071 3.299 7.37 7.37 7.37s7.37-3.299 7.37-7.37v-48.93h8.239c4.071 0 7.37-3.299 7.37-7.37 0-4.07-3.299-7.37-7.37-7.37z" fill="#4f71b6"/><circle cx="241.455" cy="306.378" fill="#4f71b6" r="57.867"/><path d="m398.065 382.033h-7.632c-2.192 0-4.134-1.427-4.772-3.524-1.103-3.624-2.547-7.099-4.298-10.386-1.031-1.936-.671-4.318.881-5.87l5.394-5.394c1.952-1.953 1.952-5.118 0-7.071l-12.092-12.092c-1.952-1.953-5.118-1.953-7.071 0l-5.394 5.394c-1.551 1.551-3.934 1.912-5.87.88-3.287-1.751-6.762-3.194-10.386-4.298-2.097-.638-3.524-2.58-3.524-4.772v-7.632c0-2.761-2.239-5-5-5h-17.101c-2.761 0-5 2.238-5 5v7.632c0 2.192-1.427 4.134-3.523 4.772-3.624 1.104-7.099 2.547-10.386 4.298-.585.312-1.211.481-1.843.544-1.149 3.025-3.669 11.311.158 17.995 2.795 4.881 8.301 7.757 16.363 8.548 23.72 2.325 36.243 40.958 36.852 42.886.21 1.055 2.055 9.297 9.054 12.708 4.842 2.358 10.87 1.801 17.935-1.648.051-.671.223-1.339.554-1.96 1.751-3.287 3.195-6.762 4.298-10.386.638-2.097 2.58-3.524 4.772-3.524h7.632c2.761 0 5-2.238 5-5v-17.101c-.001-2.761-2.24-4.999-5.001-4.999z" fill="#2ed1e2"/><path d="m296.419 343.09-5.394-5.394c-1.952-1.953-5.118-1.953-7.071 0l-12.092 12.092c-1.953 1.953-1.953 5.118 0 7.071l5.395 5.394c1.551 1.551 1.912 3.933.88 5.87-1.751 3.287-3.194 6.762-4.298 10.386-.639 2.097-2.58 3.524-4.772 3.524h-7.632c-2.761 0-5 2.239-5 5v17.101c0 2.762 2.238 5 5 5h7.632c2.192 0 4.134 1.427 4.772 3.524 1.103 3.624 2.547 7.099 4.298 10.386 1.031 1.937.671 4.319-.88 5.87l-5.395 5.394c-1.953 1.953-1.953 5.118 0 7.071l12.092 12.092c1.953 1.953 5.119 1.953 7.071 0l5.394-5.394c1.551-1.551 3.934-1.912 5.87-.881 3.287 1.751 6.762 3.195 10.386 4.298 2.097.639 3.523 2.58 3.523 4.772v7.632c0 2.762 2.239 5 5 5h17.102c2.761 0 5-2.238 5-5v-7.632c0-2.192 1.427-4.134 3.524-4.772 3.624-1.103 7.099-2.547 10.386-4.298 1.936-1.031 4.319-.671 5.87.881l5.394 5.394c1.952 1.953 5.118 1.953 7.071 0l12.092-12.092c1.952-1.953 1.952-5.118 0-7.071l-5.394-5.394c-1.552-1.551-1.912-3.933-.881-5.87-22.252 11.729-26.086-9.467-26.086-9.467s-12.662-41.512-38.162-44.012-14.825-25.594-14.825-25.594c-1.936 1.031-4.319.67-5.87-.881z" fill="#2abcc8"/><ellipse cx="329.749" cy="395.583" fill="#4f71b6" rx="31.231" ry="31.23" transform="matrix(.16 -.987 .987 .16 -113.546 657.709)"/><g fill="#ffe98d"><path d="m24.97 348.711c18.456-8.311 31.395-26.888 31.395-48.352v-57.652c0-22.483-14.194-41.801-34.059-49.467-7.34 23.279-11.307 48.054-11.307 73.758-.001 28.655 4.928 56.157 13.971 81.713z"/><path d="m491.322 198.63c-14.25 9.523-23.687 25.747-23.687 44.077v57.652c0 17.328 8.436 32.772 21.397 42.454 7.762-23.874 11.969-49.352 11.969-75.815.001-23.73-3.385-46.667-9.679-68.368z"/></g></g></svg>