<svg id="Layer_1" enable-background="new 0 0 512 512" height="512" viewBox="0 0 512 512" width="512" xmlns="http://www.w3.org/2000/svg"><g><path d="m245.002 10.998c-55.117 0-105.98 18.204-146.914 48.922l-24.677 370.936c32.348 31.748 73.462 54.585 119.382 64.552l123.463-4.945c100.556-30.52 173.748-123.938 173.748-234.463 0-135.311-109.691-245.002-245.002-245.002z" fill="#816ae2"/><path d="m476.521 59.921h-336.763c-2.183 2-6.055 6.311-6.077 11.758-.018 3.994 2.016 7.736 6.047 11.144-2.42 2.242-6.977 7.327-7.118 13.921-.106 5.007 2.343 9.774 7.284 14.188-4.494 4.851-19.394 23.703-3.843 46.245 16.224 23.517 10.434 30.298 10.392 30.345-.271.267-6.622 6.617-6.656 15.319-.021 5.028 2.066 9.758 6.202 14.065v13.346c-4.274 4.792-9.232 16.201-.191 28.584l-11.595 31.389c-1.357 2.168-14.822 24.998 4.898 46.003-1.948 1.916-5.528 6.189-5.888 12-.296 4.783 1.645 9.489 5.771 14.006-.524.526-1.209 1.242-1.995 2.123h375.011v-268.957c0-19.563-15.916-35.479-35.479-35.479z" fill="#3c58a0"/><path d="m142.09 59.921h-44.002c-9.328 7-18.139 14.651-26.368 22.883l-48.852 69.75c-14.662 31.429-22.868 66.476-22.868 103.446 0 38.906 9.084 75.686 25.223 108.358h113.813c1.259-1.352 2.068-2.078 2.068-2.078-14.534-14.534.157-25.977.157-25.977-21.652-21.652-5.706-45.406-5.706-45.406l11.933-32.305c-11.9-15.472 0-27.749 0-27.749v-14.547c-13.958-13.959.006-27.703.006-27.703s7.256-6.952-10.209-32.266 4.805-45.49 4.805-45.49c-17.964-14.644 0-28.055 0-28.055-15.547-11.534 0-22.861 0-22.861z" fill="#2a428c"/><path d="m241.657 476.353c-.647 9.335-1.977 17.598-3.92 24.536 2.414.071 4.834.114 7.265.114 24.786 0 48.706-3.694 71.255-10.539-2.668-5.014-4.979-11.218-5.981-18.692l-2.605-19.44h-40.121c-13.585-.001-24.959 10.551-25.893 24.021z" fill="#f3eae6"/><path d="m243.154 476.456c.885-12.767 11.598-22.625 24.396-22.625h40.322l-3.358-25.054h-97.029l-5.762 42.994c-1.367 10.197-5.13 17.991-8.93 23.637 15.033 3.263 30.578 5.15 46.501 5.517 2.203-8.012 3.324-16.731 3.86-24.469z" fill="#efe2dd"/><path d="m476.521 82.78h-336.841c.017.014.03.029.047.043-2.42 2.242-6.977 7.327-7.118 13.921-.106 5.007 2.343 9.774 7.284 14.188-4.494 4.851-19.394 23.703-3.843 46.245 16.224 23.517 10.434 30.298 10.392 30.345-.271.267-6.622 6.617-6.656 15.319-.021 5.028 2.066 9.758 6.202 14.065v13.346c-4.274 4.792-9.232 16.201-.191 28.584l-11.595 31.389c-1.357 2.168-14.822 24.998 4.898 46.003-1.948 1.916-5.528 6.189-5.888 12-.296 4.783 1.645 9.489 5.771 14.006-.524.526-1.209 1.242-1.995 2.123h352.15v-268.957c.002-6.841-5.777-12.62-12.617-12.62z" fill="#2a428c"/><path d="m141.104 362.279c-14.534-14.534.157-25.977.157-25.977-21.652-21.652-5.706-45.406-5.706-45.406l11.933-32.305c-11.9-15.472 0-27.749 0-27.749v-14.547c-13.958-13.959.006-27.703.006-27.703s7.256-6.952-10.209-32.266 4.805-45.49 4.805-45.49c-17.964-14.644 0-28.055 0-28.055h-70.353c-20.103 20.108-36.711 43.702-48.877 69.786v206.868c.77 1.651 1.557 3.292 2.363 4.923h113.813c1.259-1.352 2.068-2.079 2.068-2.079z" fill="#1c2e7a"/><path d="m407.142 110.836h-267.353c.036.032.069.065.105.097-4.494 4.851-19.394 23.703-3.843 46.245 16.224 23.517 10.434 30.298 10.392 30.345-.271.267-6.622 6.617-6.656 15.319-.021 5.028 2.066 9.758 6.202 14.065v13.346c-4.274 4.792-9.232 16.201-.191 28.584l-11.595 31.389c-1.357 2.168-14.822 24.998 4.898 46.003-.023.023-.049.05-.073.073h268.113c29.792 0 53.943-24.151 53.943-53.943v-117.581c.001-29.792-24.15-53.942-53.942-53.942z" fill="#3c58a0"/><path d="m142.09 110.836h-37.232c-29.792 0-53.943 24.151-53.943 53.943v117.581c0 29.792 24.151 53.943 53.943 53.943h36.403c-21.652-21.652-5.706-45.406-5.706-45.406l11.933-32.305c-11.9-15.472 0-27.749 0-27.749v-14.547c-13.958-13.959.006-27.703.006-27.703s7.256-6.952-10.209-32.266c-17.464-25.316 4.805-45.491 4.805-45.491z" fill="#2a428c"/><path d="m138.941 362.279c-3.821 3.841-15.629 17.134-16.123 35.201-.317 11.586 4.116 22.79 13.19 33.375h340.512c19.563 0 35.479-15.916 35.479-35.479v-33.097z" fill="#f9f3f1"/><path d="m73.411 430.856h64.59c-32.533-36.639 3.102-68.577 3.102-68.577h-116.913c12.377 25.669 29.11 48.838 49.221 68.577z" fill="#f3eae6"/><ellipse cx="256" cy="396.567" fill="#e1d3ce" rx="15.295" ry="15.295" transform="matrix(.639 -.769 .769 .639 -212.646 340.243)"/><g><path d="m330.074 177.736c-1.81 3.854-4.735 7.159-8.548 9.361l-54.934 31.716c-3.925 2.266-8.393 3.146-12.756 2.698v88.842c4.363.448 8.831-.432 12.756-2.698l54.934-31.716c6.555-3.784 10.592-10.778 10.592-18.347v-70.869c.001-3.167-.741-6.215-2.044-8.987z" fill="#9181f2"/></g><g><path d="m245.407 218.812-54.934-31.716c-3.812-2.201-6.738-5.506-8.548-9.361-1.302 2.772-2.045 5.82-2.045 8.986v70.869c0 7.569 4.038 14.563 10.592 18.347l54.934 31.716c3.277 1.892 6.935 2.838 10.592 2.838v-88.842c-3.655.002-7.313-.944-10.591-2.837z" fill="#816ae2"/></g><path d="m321.527 168.375-9.952-5.746-30.339 17.516c-3.898 2.25-8.743 2.25-12.642 0l-36.671-21.172c-2.479-1.431-4.395-3.689-5.44-6.394 1.045-2.705 2.962-4.963 5.44-6.394l1.677-.968-1.157-1.075-41.971 24.232c-4.509 2.603-7.785 6.741-9.417 11.524 1.632 4.783 4.908 8.921 9.417 11.524l54.934 31.716c6.555 3.784 14.63 3.784 21.185 0l54.934-31.716c4.509-2.603 7.785-6.741 9.417-11.524-1.631-4.782-4.906-8.92-9.415-11.523z" fill="#a49bf9"/><path d="m266.593 136.659c-6.474-3.738-14.429-3.777-20.94-.131l-14.479 8.359c-1.69.976-3.121 2.275-4.243 3.791-1.718 2.321-1.718 5.481 0 7.802 1.123 1.517 2.553 2.816 4.243 3.792l36.671 21.172c4.375 2.526 9.766 2.526 14.142 0l31.088-17.949z" fill="#bebbff"/><g><path d="m133.987 291.608h-38.738c-4.017 0-7.273-3.256-7.273-7.274s3.256-7.273 7.273-7.273h38.738c4.017 0 7.274 3.256 7.274 7.273s-3.257 7.274-7.274 7.274z" fill="#ffb332"/></g><g><path d="m133.987 170.076h-38.738c-4.017 0-7.273-3.256-7.273-7.274s3.256-7.274 7.273-7.274h38.738c4.017 0 7.274 3.256 7.274 7.274s-3.257 7.274-7.274 7.274z" fill="#2abcc8"/></g><g><path d="m378.02 291.608c-2.245 0-4.459-1.035-5.884-2.988l-13.502-18.516c-2.366-3.245-1.654-7.795 1.592-10.163 3.246-2.365 7.794-1.654 10.163 1.592l13.502 18.516c2.366 3.245 1.654 7.795-1.592 10.162-1.292.944-2.792 1.397-4.279 1.397z" fill="#2abcc8"/></g><g><path d="m364.506 188.593c-1.487 0-2.986-.455-4.279-1.397-3.246-2.367-3.958-6.917-1.592-10.163l13.502-18.516c2.366-3.246 6.919-3.957 10.163-1.592 3.246 2.367 3.958 6.917 1.592 10.163l-13.502 18.516c-1.424 1.953-3.639 2.989-5.884 2.989z" fill="#ffb332"/></g><g><path d="m147.488 230.842h-52.239c-4.017 0-7.273-3.256-7.273-7.273s3.256-7.274 7.273-7.274h52.239c4.017 0 7.274 3.256 7.274 7.274s-3.257 7.273-7.274 7.273z" fill="#2ed1e2"/></g><g><path d="m133.981 291.608c-1.486 0-2.986-.453-4.279-1.396-3.246-2.367-3.959-6.917-1.592-10.162l13.501-18.516c2.367-3.246 6.919-3.957 10.163-1.592 3.246 2.367 3.958 6.916 1.592 10.163l-13.501 18.516c-1.424 1.952-3.64 2.987-5.884 2.987z" fill="#ffdd40"/></g><g><path d="m147.494 188.592c-2.246 0-4.459-1.035-5.883-2.988l-13.501-18.516c-2.366-3.246-1.654-7.795 1.592-10.163 3.245-2.366 7.795-1.655 10.163 1.592l13.501 18.516c2.366 3.246 1.654 7.795-1.592 10.163-1.294.942-2.793 1.396-4.28 1.396z" fill="#2ed1e2"/></g><g><path d="m416.751 230.842h-52.239c-4.017 0-7.274-3.256-7.274-7.273s3.256-7.274 7.274-7.274h52.239c4.017 0 7.274 3.256 7.274 7.274s-3.256 7.273-7.274 7.273z" fill="#2ed1e2"/></g><g><path d="m416.751 291.608h-38.737c-4.017 0-7.274-3.256-7.274-7.274s3.256-7.273 7.274-7.273h38.737c4.017 0 7.274 3.256 7.274 7.273s-3.256 7.274-7.274 7.274z" fill="#2ed1e2"/></g><g><path d="m416.751 170.076h-38.737c-4.017 0-7.274-3.256-7.274-7.274s3.256-7.274 7.274-7.274h38.737c4.017 0 7.274 3.256 7.274 7.274s-3.256 7.274-7.274 7.274z" fill="#ffdd40"/></g><g fill="#9181f2"><path d="m245.002 10.998c-28.35 0-55.569 4.827-80.895 13.685 6.716 8.221 16.305 15.295 29.428 15.295h111.328s17.218-.247 30.816-11.643c-28.048-11.18-58.642-17.337-90.677-17.337z"/><path d="m146.432 451.729h-48.774c22.416 16.901 47.825 30.039 75.295 38.479 7.081-18.137-6.325-38.479-26.521-38.479z"/></g></g></svg>