<svg id="Layer_1" enable-background="new 0 0 512 512" height="512" viewBox="0 0 512 512" width="512" xmlns="http://www.w3.org/2000/svg"><g><path d="m105.856 460.601 365.175-76.105c19.102-34.885 29.97-74.921 29.97-117.498 0-135.311-109.691-245.002-245.002-245.002s-245.002 109.691-245.002 245.002c.001 78.732 37.146 148.78 94.859 193.603z" fill="#2a428c"/><path d="m469.924 103.666c-3.971-7.975-13.395-15.673-34.708-16.84h-33.894c-9.438 0-17.116-7.679-17.116-17.117v-25.513c0-29.686-14.057-40.234-22.458-43.889-2.085-.201-4.187-.307-6.301-.307h-149.02c-3.259 3.203-11.883 12.827-11.671 24.816.138 7.805 4.009 15.03 11.512 21.499-3.392 2.958-11.462 11.04-11.057 20.682.265 6.298 4.08 11.97 11.348 16.876-3.409 5.618-15.543 28.49-4.541 53.101 15.417 18.025 24.742 41.408 24.742 66.93 0 22.568-7.294 43.462-19.64 60.46v201.43c-.008.554-.12 13.73 5.758 28.137 2.055 5.036 5.018 10.565 9.272 15.737 11.066 1.528 22.363 2.332 33.85 2.332 29.604 0 57.977-5.259 84.247-14.88l32.283-14.561c9.26-5.017 18.161-10.614 26.654-16.741l-.002-.006 18.368-14.633.001.001c21.485-18.862 39.647-41.418 53.482-66.684v-268.912c-.001-4.027-.388-8.013-1.109-11.918z" fill="#f3eae6"/><g fill="#efe2dd"><path d="m208.62 0h-84.079c-10.319 0-18.685 8.366-18.685 18.685v83.65c5.783-1.01 11.728-1.542 17.795-1.542 35.213 0 66.354 17.748 84.964 44.763-21.82-31.082.004-62.131.004-62.131-26.828-16.889 0-37.106 0-37.106-27.827-22.328.001-46.319.001-46.319z"/><path d="m208.62 465.812v-203.57c-18.609 27.02-49.753 44.77-84.969 44.77-6.067 0-12.012-.531-17.795-1.541v155.13c33.608 26.101 74.189 43.648 118.479 49.367-16.065-18.402-15.715-44.156-15.715-44.156z"/></g><path d="m336.801 46.32c-3.476 2.4-10.091 7.983-10.84 16.119-.639 6.951 3.171 14.006 11.317 20.987h53.852c-4.191-3.123-6.923-8.101-6.923-13.718v-23.388z" fill="#fe646f"/><path d="m339.614 46.32h-133.352c-3.395 2.962-11.456 11.04-11.051 20.677.257 6.109 3.864 11.626 10.712 16.43h133.691c-27.5-22.223 0-37.107 0-37.107z" fill="#fd3581"/><path d="m208.62 46.32h-55.494c-3.049 0-5.521 2.472-5.521 5.521v26.065c0 3.049 2.472 5.521 5.521 5.521h55.494c-26.828-16.89 0-37.107 0-37.107z" fill="#fe0364"/><g fill="#e1d3ce"><path d="m338.635 121.856h-100.387c-4.041 0-7.317-3.276-7.317-7.317s3.275-7.317 7.317-7.317h100.387c4.041 0 7.317 3.276 7.317 7.317 0 4.042-3.276 7.317-7.317 7.317z"/><path d="m419.66 309.025h-117.106c-4.041 0-7.317-3.276-7.317-7.317s3.276-7.317 7.317-7.317h117.106c4.041 0 7.317 3.276 7.317 7.317s-3.276 7.317-7.317 7.317z"/><path d="m274.34 309.025h-117.113c-4.041 0-7.317-3.276-7.317-7.317s3.276-7.317 7.317-7.317h117.113c4.041 0 7.317 3.276 7.317 7.317s-3.276 7.317-7.317 7.317z"/><path d="m419.66 340.382h-117.106c-4.041 0-7.317-3.276-7.317-7.317s3.276-7.317 7.317-7.317h117.106c4.041 0 7.317 3.276 7.317 7.317 0 4.042-3.276 7.317-7.317 7.317z"/><path d="m274.34 340.382h-117.113c-4.041 0-7.317-3.276-7.317-7.317s3.276-7.317 7.317-7.317h117.113c4.041 0 7.317 3.276 7.317 7.317 0 4.042-3.276 7.317-7.317 7.317z"/><path d="m419.66 371.74h-117.106c-4.041 0-7.317-3.276-7.317-7.317s3.276-7.317 7.317-7.317h117.106c4.041 0 7.317 3.276 7.317 7.317s-3.276 7.317-7.317 7.317z"/><path d="m274.34 371.74h-117.113c-4.041 0-7.317-3.276-7.317-7.317s3.276-7.317 7.317-7.317h117.113c4.041 0 7.317 3.276 7.317 7.317s-3.276 7.317-7.317 7.317z"/><path d="m419.66 403.097h-117.106c-4.041 0-7.317-3.276-7.317-7.317s3.276-7.317 7.317-7.317h117.106c4.041 0 7.317 3.276 7.317 7.317 0 4.042-3.276 7.317-7.317 7.317z"/><path d="m274.34 403.097h-117.113c-4.041 0-7.317-3.276-7.317-7.317s3.276-7.317 7.317-7.317h117.113c4.041 0 7.317 3.276 7.317 7.317 0 4.042-3.276 7.317-7.317 7.317z"/><path d="m419.66 434.455h-117.106c-4.041 0-7.317-3.276-7.317-7.317s3.276-7.317 7.317-7.317h117.106c4.041 0 7.317 3.276 7.317 7.317s-3.276 7.317-7.317 7.317z"/><path d="m274.34 434.455h-117.113c-4.041 0-7.317-3.276-7.317-7.317s3.276-7.317 7.317-7.317h117.113c4.041 0 7.317 3.276 7.317 7.317s-3.276 7.317-7.317 7.317z"/><path d="m302.554 451.179c-4.041 0-7.317 3.275-7.317 7.317 0 4.041 3.276 7.317 7.317 7.317h96.627c6.359-4.587 12.488-9.471 18.368-14.633h-114.995z"/><path d="m274.34 465.812h-117.113c-4.041 0-7.317-3.276-7.317-7.317s3.276-7.317 7.317-7.317h117.113c4.041 0 7.317 3.275 7.317 7.317 0 4.041-3.276 7.317-7.317 7.317z"/><path d="m302.554 482.536c-4.041 0-7.317 3.275-7.317 7.317 0 4.041 3.276 7.317 7.317 7.317h37.584c11.222-4.103 22.059-9.004 32.444-14.633h-70.028z"/><path d="m171.863 497.169h102.477c4.041 0 7.317-3.275 7.317-7.317 0-4.041-3.276-7.317-7.317-7.317h-117.113c-3.404 0-6.257 2.328-7.074 5.478 7.056 3.386 14.298 6.447 21.71 9.156z"/></g><path d="m421.539 145.563h-69.301c-5.889 2.708-16.624 9.583-16.624 23.751v71.984l.005.117c.047.602 1.27 13.898 15.902 20.826h70.018c4.277 0 7.743-3.467 7.743-7.744v-101.19c0-4.277-3.467-7.744-7.743-7.744z" fill="#2ed1e2"/><path d="m356.37 145.563h-147.75c11.435 16.602 18.14 36.701 18.14 58.34s-6.705 41.738-18.14 58.339h146.827c-17.167-6.072-18.332-20.944-18.332-20.944s0-53.484 0-71.984c-.001-18.253 18.755-23.611 19.255-23.751z" fill="#2abcc8"/><path d="m123.65 99.225c-18.029 0-35.009 4.582-49.835 12.642-1.22 5.701-5.19 28.667 5.863 45.044 5.629 8.342 14.272 13.585 25.713 15.605l-17.603 29.529 77.305 71.697c-.855 2.761-2.804 10.779.93 17.252 1.39 2.41 3.42 4.302 6.023 5.703 33.421-17.501 56.281-52.526 56.281-92.796.001-57.718-46.957-104.676-104.677-104.676z" fill="#548bed"/><path d="m166.825 273.303-77.125-71.531 18.118-30.394c-45.942-6.267-32.264-60.387-32.251-60.436-33.592 17.446-56.594 52.566-56.594 92.961 0 57.72 46.958 104.678 104.678 104.678 18.102 0 35.144-4.62 50.012-12.741-13.09-6.077-6.838-22.537-6.838-22.537z" fill="#3378dd"/><path d="m142.945 255.159c-1.778 0-3.58-.454-5.229-1.411l-58.495-33.889c-4.996-2.894-6.698-9.289-3.804-14.283 2.893-4.995 9.287-6.7 14.283-3.804l58.495 33.889c4.995 2.894 6.698 9.289 3.804 14.283-1.937 3.346-5.447 5.215-9.054 5.215z" fill="#72aafc"/><path d="m84.471 207.444c-3.607 0-7.116-1.869-9.054-5.215-2.894-4.995-1.191-11.39 3.804-14.283l58.5-33.893c4.993-2.896 11.39-1.191 14.283 3.804 2.894 4.995 1.191 11.39-3.804 14.283l-58.5 33.893c-1.648.957-3.45 1.411-5.229 1.411z" fill="#8bbffc"/><path d="m72.528 177.338c-14.649 0-26.566 11.917-26.566 26.565s11.917 26.565 26.566 26.565c14.648 0 26.565-11.917 26.565-26.565s-11.917-26.565-26.565-26.565z" fill="#efe2dd"/><path d="m153.086 183.797c14.648 0 26.565-11.917 26.565-26.566 0-14.648-11.917-26.565-26.565-26.565s-26.565 11.917-26.565 26.565c0 14.649 11.917 26.566 26.565 26.566z" fill="#f9f3f1"/><path d="m153.086 224.008c-14.648 0-26.565 11.917-26.565 26.566 0 14.648 11.917 26.565 26.565 26.565s26.565-11.917 26.565-26.565-11.917-26.566-26.565-26.566z" fill="#f9f3f1"/><path d="m401.865 19.227c-12.311-12.311-29.008-19.227-46.418-19.227 0 0 27.191 2.999 27.191 44.197v25.512c0 10.319 8.366 18.685 18.685 18.685h33.893c12.816.702 35.815 5.047 35.815 27.191 0-17.41-6.916-34.107-19.227-46.418z" fill="#f9f3f1"/><path d="m12.91 297.611c6.508 52.185 29.421 99.266 63.426 135.928.367-2.465.56-4.972.56-7.514v-68.03c0-25.026-24.736-51.739-63.986-60.384z" fill="#3c58a0"/></g></svg>