<svg id="Layer_1" enable-background="new 0 0 512 512" height="512" viewBox="0 0 512 512" width="512" xmlns="http://www.w3.org/2000/svg"><g><path d="m245.002 21.996c-135.311 0-245.002 109.691-245.002 245.002 0 53 16.833 102.066 45.438 142.153l57.411 57.411c40.087 28.606 89.153 45.438 142.153 45.438 135.311 0 245.002-109.691 245.002-245.002s-109.691-245.002-245.002-245.002z" fill="#2a428c"/><path d="m136.005 427.799c-5.531-5.531-13.713-6.765-20.45-3.742-2.127.955-3.975 2.264-5.453 3.742 1.823-1.823 3.176-3.937 4.069-6.19l-6.416 6.416c-3.2.118-17.264 1.202-23.791 11.068-1.859 2.81-2.907 6.059-3.17 9.714 6.999 6.326 14.357 12.263 22.055 17.756l31.445-11.15 1.711-1.711c7.153-7.154 7.153-18.751 0-25.903z" fill="#f9f3f1"/><path d="m110.103 401.897c-7.153-7.153-18.75-7.152-25.902 0 1.5-1.5 2.8-3.353 3.742-5.453 3.023-6.736 1.789-14.918-3.742-20.45-7.153-7.153-18.75-7.152-25.902 0l-1.711 1.711-11.15 31.445c10.702 14.997 23.058 28.732 36.792 40.95.463-20.551 26.162-20.591 26.162-20.591l1.711-1.711c7.153-7.152 7.153-18.749 0-25.901z" fill="#f3eae6"/><path d="m82.49 403.608c7.153-7.152 18.749-7.153 25.902 0s7.153 18.75 0 25.902c1.621-1.621 3.478-2.856 5.453-3.742l273.585-273.586-27.613-27.613-273.585 273.586c-.886 1.975-2.12 3.832-3.742 5.453z" fill="#ffc839"/><path d="m82.49 377.706c7.153 7.153 7.153 18.75 0 25.902l278.183-278.183-25.902-25.902-278.183 278.183c7.153-7.153 18.749-7.153 25.902 0z" fill="#ffb332"/><path d="m134.294 429.51c7.153 7.153 7.153 18.75 0 25.902l278.183-278.183-25.902-25.902-278.183 278.183c7.153-7.153 18.75-7.153 25.902 0z" fill="#ffdd40"/><g><path d="m478.068 111.638 17.838-17.838c21.458-21.458 21.458-56.248 0-77.706-21.458-21.458-56.248-21.458-77.706 0l-17.838 17.838z" fill="#fd3581"/></g><path d="m434.717 154.989-52.674-52.675c.033.356.064.711.107 1.075-3.977-.166-13.186.191-19.031 5.993-3.682 3.655-5.338 8.784-4.945 15.254l53.448 53.448c6.378 6.378 16.717 6.378 23.095 0 6.377-6.377 6.377-16.717 0-23.095z" fill="#efe2dd"/><path d="m333.915 77.283c-6.378 6.378-6.378 16.718 0 23.095l25.902 25.902c-2.817-24.55 24.071-21.264 24.071-21.264-.054-.34-.081-.651-.126-.982l-26.751-26.751c-6.378-6.378-16.718-6.378-23.096 0z" fill="#e1d3ce"/><path d="m480.052 109.654-52.403-52.403.086.374c-4.018-.12-12.868.348-18.329 6.135-3.667 3.886-5.082 9.381-4.216 16.356-.296-.036-.625-.07-.969-.101l52.735 52.735c6.378 6.378 16.718 6.378 23.095 0 6.379-6.379 6.379-16.718.001-23.096z" fill="#f9f3f1"/><path d="m402.346 31.948c-6.378-6.378-16.717-6.378-23.095 0s-6.378 16.717 0 23.095l26.694 26.695c.653.1 1.039.183 1.039.183-4.683-25.976 22.668-22.668 22.668-22.668z" fill="#f3eae6"/><path d="m457.384 132.322-52.208-52.208c-3.944-.479-12.451-.748-18.09 4.558-4.249 3.999-5.91 10.248-4.95 18.593l52.152 52.152c6.378 6.377 16.717 6.377 23.095 0 6.379-6.378 6.379-16.718.001-23.095z" fill="#f3eae6"/><path d="m356.583 54.616c-6.378 6.378-6.378 16.717 0 23.095l27.305 27.305c-4.612-29.214 23.095-23.095 23.095-23.095l-27.305-27.305c-6.377-6.378-16.717-6.378-23.095 0z" fill="#efe2dd"/><g><path d="m250.03 250.832c-3.78 0-7.558-1.441-10.442-4.325l-112.727-112.727c-5.767-5.768-5.767-15.117 0-20.884 5.766-5.768 15.117-5.769 20.884 0l112.726 112.727c5.767 5.768 5.767 15.117 0 20.884-2.882 2.883-6.662 4.325-10.441 4.325z" fill="#fd3581"/></g><g><path d="m388.662 389.463c-3.78 0-7.559-1.442-10.442-4.325l-138.632-138.631c-5.767-5.768-5.767-15.117 0-20.884 5.766-5.766 15.117-5.766 20.884 0l138.632 138.631c5.767 5.766 5.767 15.117 0 20.884-2.883 2.883-6.663 4.325-10.442 4.325z" fill="#fe646f"/></g><path d="m315.67 32.36c-22.378-6.731-46.097-10.364-70.668-10.364-135.311 0-245.002 109.691-245.002 245.002 0 7.22.323 14.363.935 21.424 28.189 3.667 69.251 2.058 99.732-28.422 51.115-51.115-20.177-122.77 5.725-156.477 24.9-32.403 67.608-3.216 67.608-3.216 98.889 52.98 134.079-41.87 141.67-67.947z" fill="#3c58a0"/><path d="m479.74 196.665c-28.329 8.615-117.984 44.391-66.152 141.136 0 0 29.187 42.708-3.216 67.608-33.707 25.902-105.362-45.39-156.477 5.726-30.615 30.615-32.102 71.903-28.373 100.101 6.427.506 12.923.765 19.481.765 135.311 0 245.002-109.691 245.002-245.002-.001-24.45-3.599-48.054-10.265-70.334z" fill="#3c58a0"/><circle cx="473.033" cy="48.197" fill="#fe646f" r="21.033"/></g></svg>