<svg id="Layer_1" enable-background="new 0 0 512 512" height="512" viewBox="0 0 512 512" width="512" xmlns="http://www.w3.org/2000/svg"><g><path d="m442.51 86.148h-373.02c-36.467 42.775-58.492 98.239-58.492 158.854 0 135.311 109.691 245.002 245.002 245.002s245.002-109.691 245.002-245.002c0-60.615-22.024-116.079-58.492-158.854z" fill="#2a428c"/><path d="m256 0c-19.818 0-39.078 2.375-57.532 6.819l.19.082c-2.343 3.88-7.771 14.504-5.364 26.386 1.84 9.085 7.854 16.812 17.874 22.964 8.38 5.146 12.633 10.835 12.642 16.91.016 11.829-15.854 21.77-16.015 21.869l-.289.179-.184.284c-.15.234-3.677 5.789-2.311 11.53.738 3.106 2.736 5.635 5.938 7.516 1.311.77 5.344 8.272 2.207 72.511-1.53 31.335-4.11 62.438-4.611 68.348-4.525 1.521-22.519 8.714-22.519 26.833v196.973c-.005.271-.146 19.649 12.992 32.797h125.425c2.159 0 4.306-.108 6.437-.314 8.58-3.733 22.94-14.508 22.94-44.832v-26.06c0-9.64 7.843-17.485 17.484-17.485h34.622c21.77-1.193 31.397-9.056 35.453-17.202.737-3.99 1.132-8.061 1.132-12.175v-307.785c-44.939-52.711-111.816-86.148-186.511-86.148z" fill="#2ed1e2"/><path d="m187.525 479.23s0-177.292 0-197 22.428-25.703 22.428-25.703 11.947-137.297 1.755-143.283c-10.192-5.985-3.125-16.938-3.125-16.938s35.275-21.743 3.37-41.334c-31.67-19.445-11.385-48.306-11.083-48.732-52.096 11.985-97.847 40.576-131.38 79.908v406.766c0 10.541 8.545 19.086 19.086 19.086h112.569c-13.972-12.773-13.62-32.77-13.62-32.77z" fill="#2abcc8"/><g><path d="m390.035 316.887h-205.366c-4.128 0-7.474-3.346-7.474-7.474s3.346-7.474 7.474-7.474h205.366c4.128 0 7.474 3.346 7.474 7.474s-3.346 7.474-7.474 7.474z" fill="#f9f3f1"/></g><g><path d="m155.522 316.887h-33.951c-4.128 0-7.474-3.346-7.474-7.474s3.346-7.474 7.474-7.474h33.951c4.128 0 7.474 3.346 7.474 7.474s-3.346 7.474-7.474 7.474z" fill="#ffdd40"/></g><g><path d="m390.035 348.918h-205.366c-4.128 0-7.474-3.346-7.474-7.474s3.346-7.474 7.474-7.474h205.366c4.128 0 7.474 3.346 7.474 7.474s-3.346 7.474-7.474 7.474z" fill="#f9f3f1"/></g><g><path d="m390.035 389.49h-205.366c-4.128 0-7.474-3.346-7.474-7.474s3.346-7.474 7.474-7.474h205.366c4.128 0 7.474 3.346 7.474 7.474 0 4.129-3.346 7.474-7.474 7.474z" fill="#f9f3f1"/></g><g><path d="m155.522 389.49h-33.951c-4.128 0-7.474-3.346-7.474-7.474s3.346-7.474 7.474-7.474h33.951c4.128 0 7.474 3.346 7.474 7.474 0 4.129-3.346 7.474-7.474 7.474z" fill="#4f71b6"/></g><g><path d="m326.578 421.522h-141.909c-4.128 0-7.474-3.346-7.474-7.474s3.346-7.474 7.474-7.474h141.908c4.128 0 7.474 3.346 7.474 7.474.001 4.128-3.345 7.474-7.473 7.474z" fill="#f9f3f1"/></g><path d="m219.438 171.263c-7.57 0-13.764 6.194-13.764 13.764v71.501h132.673c5.502 0 9.963-4.461 9.963-9.963v-75.302z" fill="#3c58a0"/><path d="m206.846 248.511v-64.138c0-6.6 5.4-12 12-12h129.464v-23.128h-182.316v97.319c0 5.502 4.46 9.963 9.962 9.963h33.997c-1.923-2.13-3.107-4.938-3.107-8.016z" fill="#2a428c"/><g><path d="m313.428 210.009h-112.551c-4.264 0-7.719-3.456-7.719-7.719s3.456-7.719 7.719-7.719h112.551c4.263 0 7.719 3.456 7.719 7.719s-3.456 7.719-7.719 7.719z" fill="#4f71b6"/></g><g fill="#f3eae6"><path d="m167.521 150.319h24.641l21.404-37.074h-46.045c-3.13 0-5.667 2.537-5.667 5.667v25.739c0 3.131 2.538 5.668 5.667 5.668z"/><path d="m249.838 113.245-21.404 37.074h44.19l21.404-37.074z"/><path d="m346.783 113.245h-16.482l-21.405 37.074h37.886c3.13 0 5.667-2.537 5.667-5.667v-25.739c.001-3.13-2.536-5.668-5.666-5.668z"/></g><path d="m332.159 113.245h-39.989l-21.404 37.074h39.988z" fill="#4f71b6"/><path d="m190.304 150.319h39.988l21.405-37.074h-39.989z" fill="#3c58a0"/><path d="m153.738 78.449 22.852-9.215 33.717 26.378-42.703 17.221c-2.903 1.171-6.205-.234-7.376-3.137l-9.626-23.871c-1.171-2.903.233-6.206 3.136-7.376z" fill="#3c58a0"/><path d="m243.946 82.046-33.716-26.378 40.983-16.527 33.716 26.379z" fill="#4f71b6"/><path d="m333.856 45.789-15.286 6.164-33.717-26.378 35.137-14.17c2.903-1.171 6.205.234 7.376 3.136l9.626 23.871c1.171 2.904-.234 6.207-3.136 7.377z" fill="#4f71b6"/><path d="m320.293 51.259-37.087 14.955-33.716-26.378 37.086-14.955z" fill="#f9f3f1"/><path d="m174.867 69.928 37.086-14.955 33.717 26.378-37.087 14.956z" fill="#f3eae6"/><ellipse cx="161.854" cy="113.245" fill="#fd3581" rx="16.304" ry="16.305" transform="matrix(.118 -.993 .993 .118 30.375 260.671)"/><path d="m371.858 492.36c-12.575 12.575-29.631 19.64-47.415 19.64 0 0 27.775-3.064 27.775-45.146v-26.06c0-10.541 8.545-19.086 19.086-19.086h34.621c13.091-.718 36.585-5.155 36.585-27.775 0 17.784-7.065 34.84-19.64 47.415z" fill="#9bd8f9"/><path d="m47.525 294.156v-94.143c0-16.745-8.368-31.62-21.119-40.683-9.959 26.667-15.409 55.531-15.409 85.671 0 31.373 5.906 61.365 16.652 88.936 12.052-9.13 19.876-23.584 19.876-39.781z" fill="#3c58a0"/><path d="m464.475 294.156v-94.143c0-16.745 8.368-31.62 21.119-40.683 9.959 26.667 15.409 55.531 15.409 85.671 0 31.373-5.906 61.365-16.652 88.936-12.052-9.13-19.876-23.584-19.876-39.781z" fill="#3c58a0"/><g><path d="m313.428 232.206c-4.263 0-7.719-3.456-7.719-7.719v-44.394c0-4.263 3.456-7.719 7.719-7.719s7.719 3.456 7.719 7.719v44.394c0 4.263-3.456 7.719-7.719 7.719z" fill="#6389c6"/></g><g><path d="m257.152 232.206c-4.263 0-7.719-3.456-7.719-7.719v-44.394c0-4.263 3.456-7.719 7.719-7.719s7.719 3.456 7.719 7.719v44.394c0 4.263-3.455 7.719-7.719 7.719z" fill="#6389c6"/></g><g><path d="m200.877 232.206c-4.264 0-7.719-3.456-7.719-7.719v-44.394c0-4.263 3.456-7.719 7.719-7.719s7.719 3.456 7.719 7.719v44.394c0 4.263-3.456 7.719-7.719 7.719z" fill="#6389c6"/></g></g></svg>