<svg id="Layer_1" enable-background="new 0 0 512 512" height="512" viewBox="0 0 512 512" width="512" xmlns="http://www.w3.org/2000/svg"><g><path d="m245.002 10.998c-55.117 0-105.98 18.204-146.914 48.922l-24.676 370.936c32.348 31.748 73.462 54.584 119.382 64.552l123.463-4.944c100.555-30.521 173.747-123.939 173.747-234.464 0-135.311-109.691-245.002-245.002-245.002z" fill="#816ae2"/><path d="m476.521 59.92h-378.433c-9.327 7-18.139 14.65-26.367 22.883l-48.853 69.75c-14.662 31.43-22.868 66.477-22.868 103.447 0 38.906 9.084 75.686 25.223 108.357h486.777v-268.957c0-19.564-15.916-35.48-35.479-35.48z" fill="#3c58a0"/><path d="m139.862 59.92h-41.774c-9.327 7-18.139 14.65-26.367 22.883l-48.853 69.75c-14.662 31.43-22.868 66.477-22.868 103.447 0 38.906 9.084 75.686 25.223 108.358h113.765c1.284-1.352 2.116-2.078 2.116-2.078-18.592-12.283 0-25.977 0-25.977-26.259-8.927-25.742-42.574-25.742-42.574s0-110.5 0-140 24.5-42.893 24.5-42.893c-18.75-13.643 0-28.055 0-28.055-15.25-11.199 0-22.861 0-22.861z" fill="#2a428c"/><path d="m241.657 476.353c-.647 9.335-1.977 17.598-3.92 24.536 2.414.071 4.834.114 7.265.114 24.786 0 48.706-3.694 71.255-10.539-2.668-5.014-4.979-11.218-5.981-18.692l-2.605-19.44h-40.121c-13.585-.001-24.959 10.551-25.893 24.021z" fill="#f3eae6"/><path d="m243.154 476.456c.885-12.767 11.598-22.625 24.396-22.625h40.322l-3.358-25.054h-97.029l-5.762 42.994c-1.367 10.197-5.13 17.991-8.93 23.636 15.033 3.263 30.579 5.15 46.501 5.517 2.203-8.011 3.324-16.73 3.86-24.468z" fill="#efe2dd"/><path d="m476.521 82.78h-339.076c.022.019.04.038.062.057-2.554 2.385-7.567 7.955-7.477 14.845.061 4.719 2.49 9.093 7.223 13.025-5.87 3.96-23.391 17.887-23.391 43.021v139.977c-.005.354-.096 8.776 3.1 18.435 3.966 11.981 11.282 20.457 21.245 24.664-2.668 2.513-7.017 7.551-6.862 13.593.112 4.43 2.599 8.479 7.394 12.056-.503.5-1.12 1.139-1.814 1.905h352.215v-268.958c0-6.841-5.779-12.62-12.619-12.62z" fill="#2ed1e2"/><path d="m141.104 362.279c-18.592-12.283 0-25.977 0-25.977-26.259-8.927-25.742-42.574-25.742-42.574s0-110.5 0-140 24.5-42.893 24.5-42.893c-18.75-13.643 0-28.055 0-28.055h-68.125c-20.103 20.108-36.711 43.702-48.877 69.786v206.868c.77 1.651 1.557 3.292 2.363 4.923h113.765c1.283-1.351 2.116-2.078 2.116-2.078z" fill="#2abcc8"/><path d="m138.524 362.279c.075.057.138.116.215.173-3.934 3.912-14.823 16.217-15.399 32.975-.423 12.305 4.863 24.216 15.682 35.429h337.5c19.563 0 35.479-15.916 35.479-35.479v-33.097h-373.477z" fill="#f9f3f1"/><path d="m141.104 362.279h-116.914c12.378 25.669 29.11 48.838 49.222 68.577h67.692c-36.649-36.649 0-68.577 0-68.577z" fill="#f3eae6"/><ellipse cx="256" cy="396.567" fill="#e1d3ce" rx="15.295" ry="15.295" transform="matrix(.23 -.973 .973 .23 -188.776 554.606)"/><path d="m407.142 110.836h-270.076c-6.04 4.118-23.204 18.01-23.204 42.893v139.977c-.005.354-.096 8.776 3.1 18.435 3.818 11.534 10.747 19.806 20.146 24.163h270.034c29.792 0 53.943-24.151 53.943-53.943v-117.583c0-29.792-24.151-53.942-53.943-53.942z" fill="#a6e7f0"/><path d="m115.362 153.729c0-29.5 24.5-42.893 24.5-42.893h-35.004c-29.792 0-53.943 24.151-53.943 53.943v117.581c0 29.792 24.151 53.943 53.943 53.943h36.246c-26.259-8.927-25.742-42.574-25.742-42.574s0-110.5 0-140z" fill="#2ed1e2"/><path d="m334.519 244.849c-8.642-3.968-10.401-16.93-10.418-17.06l-.033-.256-.115-.23c-.721-1.431-17.857-35.211-35.721-49.124-4.563-3.554-6.967-7.609-7.145-12.055-.348-8.709 7.858-16.329 7.941-16.405l.326-.299.178-.671c-2.339-.219-4.706-.344-7.102-.344h-56.263c-1.106 0-2.204.036-3.298.083l1.176.563c-2.936 5.238-11.636 23.218 1.242 32.541 12.695 9.189 9.414 30.043 9.121 31.744-.716 1.999-7.721 22.518 1.191 36.086 4.469 6.805 12.138 10.617 22.802 11.337l6.229 7.085c-1.933 2.708-6.595 10.331-4.73 18.685 1.045 4.686 3.966 8.769 8.69 12.201h13.839c35.714 0 65.588-24.917 73.242-58.309-8.613 5.422-15.731 6.917-21.152 4.428z" fill="#fd3581"/><path d="m287.995 148.633c-.462.426-18.259 17.044-.685 30.73 17.803 13.865 35.303 48.615 35.303 48.615s3.993 31.492 32.578 14.5c1.566-6.042 2.402-12.378 2.402-18.91-.001-39.636-30.689-72.084-69.598-74.935z" fill="#fe646f"/><path d="m151.004 223.569c0 41.512 33.652 75.163 75.163 75.163h45.088c-19.978-12.6-4.689-30.956-4.689-30.956l-7.45-8.474c-39.246-2.177-23.254-45.573-23.254-45.573s4.428-23.126-9.695-33.35 0-31.973 0-31.973c-41.511 0-75.163 33.651-75.163 75.163z" fill="#fe0364"/><path d="m287.31 179.363h-20.92c-4.02 0-7.282 3.266-7.273 7.287v.061.002 72.589c0 5.679 3.676 8.474 7.423 8.474h.027c.632-.002 15.535-.06 21.482-.164 21.071-.367 36.364-18.89 36.364-44.042-.001-26.442-14.911-44.207-37.103-44.207zm.484 73.703c-3.19.056-9.188.1-14.006.127-.097-29.679-.046-20.923-.111-59.283h13.633c16.63 0 22.555 15.321 22.555 29.659 0 14.021-6.906 29.232-22.071 29.497z" fill="#ffdd40"/><path d="m240.611 253.061c-.031 0-.062 0-.093.001-8.062.102-16.648.163-23.405.165 15.997-21.267 27.699-36.344 27.699-48.053 0-14.233-11.579-25.812-25.812-25.812-12.307 0-22.958 8.755-25.328 20.816-.774 3.942 1.794 7.766 5.735 8.54 3.944.765 7.765-1.794 8.54-5.735 1.032-5.258 5.68-9.074 11.052-9.074 6.075 0 11.042 4.834 11.257 10.858-1.781 5.275 3.661 2.518-28.762 44.975-4.469 5.851-6.319 8.272-5.061 12.364.733 2.38 2.538 4.208 4.954 5.014 3.18 1.063 29.967.605 39.312.487 4.017-.05 7.232-3.348 7.181-7.364-.049-3.986-3.295-7.182-7.269-7.182z" fill="#ffdd40"/><g fill="#9181f2"><path d="m245.002 10.998c-28.35 0-55.569 4.827-80.895 13.685 6.716 8.221 16.305 15.295 29.428 15.295h111.328s17.218-.247 30.816-11.643c-28.048-11.18-58.642-17.337-90.677-17.337z"/><path d="m146.432 451.728h-48.774c22.416 16.901 47.825 30.039 75.295 38.479 7.081-18.136-6.325-38.479-26.521-38.479z"/></g></g></svg>