<svg id="Layer_1" enable-background="new 0 0 512 512" height="512" viewBox="0 0 512 512" width="512" xmlns="http://www.w3.org/2000/svg"><g><path d="m431.631 437.444v-362.889c-43.498-39.491-101.254-63.557-164.633-63.557-135.311 0-245.002 109.691-245.002 245.002s109.691 245.002 245.002 245.002c63.379 0 121.135-24.066 164.633-63.558z" fill="#ffdd40"/><path d="m468.542 116.661-.034-.024-17.798-22.71c-6.003-6.799-12.365-13.275-19.079-19.371h-181.633l.038.064c-1.041 2.17-3.586 8.363-1.741 13.802 1.043 3.074 3.282 5.377 6.656 6.845 2.09.909 3.385 2.292 3.958 4.227 1.761 5.938-3.698 14.881-4.511 16.163-1.275 1.161-8.846 8.492-9.225 19.094-.264 7.382 3.022 14.544 9.767 21.288 19.273 19.273 63.054 82.123 68.311 89.7l-55.495 105.709-.088.203c-.246.705-5.938 17.417 1.424 30.834 3.956 7.211 10.918 12.035 20.69 14.339 8.535 2.013 13.388 4.729 13.664 7.65.399 4.227-8.333 9.768-13.932 12.267l-.2.108c-.295.189-7.223 4.727-7.523 11.92-.123 2.945.884 5.846 2.987 8.677h146.854c6.714-6.096 13.076-12.572 19.079-19.371l17.798-22.711.028-.016c27.404-39.561 43.463-87.579 43.463-139.348 0-51.766-16.057-99.78-43.458-139.339z" fill="#548bed"/><path d="m174.134 74.555c-15.669 0-30.4 6.101-41.481 17.181l-110.362 110.363c-29.721 29.721-29.721 78.08 0 107.801l110.364 110.364c11.08 11.079 25.811 17.18 41.48 17.18h112.563c-9.302-11.132 3.427-19.335 3.427-19.335s33.375-14.879 0-22.747-21.042-43.219-21.042-43.219l55.917-106.513s-48.248-69.901-69-90.653-.45-38.34-.45-38.34 11.7-17.657 0-22.747-3.8-19.335-3.8-19.335z" fill="#3378dd"/><g><path d="m403.563 352.143-157.125-171.545c-5.728-6.253-5.301-15.965.952-21.693 6.252-5.728 15.965-5.301 21.693.952l157.125 171.546c5.728 6.253 5.301 15.965-.952 21.693-6.24 5.715-15.953 5.314-21.693-.953z" fill="#efe2dd"/></g><g><path d="m247.39 353.095c-6.253-5.728-6.68-15.44-.952-21.693l78.562-85.772c5.726-6.254 15.44-6.681 21.693-.952 6.253 5.728 6.68 15.44.952 21.693l-78.562 85.773c-5.735 6.262-15.452 6.67-21.693.951z" fill="#f3eae6"/></g><g><path d="m336.318 271.354c-3.704 0-7.419-1.332-10.366-4.032-6.253-5.728-6.68-15.44-.952-21.693l78.562-85.773c5.726-6.253 15.441-6.682 21.693-.952 6.253 5.728 6.68 15.44.952 21.693l-78.562 85.773c-3.028 3.307-7.171 4.984-11.327 4.984z" fill="#f9f3f1"/></g><g><path d="m290.125 418.11h-115.99c-10.504 0-20.38-4.091-27.808-11.517l-110.365-110.364c-10.745-10.747-16.662-25.034-16.662-40.229s5.918-29.482 16.663-40.228l110.361-110.363c7.43-7.428 17.307-11.519 27.811-11.519h81.416c6.281 0 11.374 5.093 11.374 11.373 0 6.281-5.093 11.373-11.374 11.373h-81.416c-4.428 0-8.593 1.725-11.727 4.858l-110.36 110.36c-6.449 6.45-10.001 15.024-10.001 24.144s3.552 17.694 10.001 24.145l110.362 110.364c3.131 3.131 7.296 4.856 11.724 4.856h115.99c6.281 0 11.373 5.093 11.373 11.373.001 6.281-5.091 11.374-11.372 11.374z" fill="#548bed"/></g><g><path d="m396.377 116.637h-140.827c-6.281 0-11.373-5.092-11.373-11.373s5.092-11.373 11.373-11.373h140.827c6.281 0 11.374 5.093 11.374 11.373-.001 6.281-5.093 11.373-11.374 11.373z" fill="#72aafc"/></g><path d="m468.508 395.363h-178.383c-6.281 0-11.374 5.092-11.374 11.374s5.093 11.374 11.374 11.374h160.557c6.373-7.218 12.327-14.813 17.826-22.748z" fill="#72aafc"/><path d="m379.53 105.264c0 6.281 5.092 11.373 11.374 11.373h77.604c-5.498-7.936-11.452-15.53-17.826-22.747h-59.778c-6.282 0-11.374 5.093-11.374 11.374z" fill="#8bbffc"/><g fill="#ffe98d"><path d="m266.998 10.998c-25.07 0-49.258 3.774-72.035 10.771 5.698 15.774 20.846 27.128 38.521 27.128h67.661c17.609 0 32.712-11.268 38.46-26.948-22.944-7.111-47.326-10.951-72.607-10.951z"/><path d="m266.998 501.002c-25.07 0-49.258-3.774-72.035-10.77 5.698-15.774 20.846-27.128 38.521-27.128h67.661c17.609 0 32.712 11.268 38.46 26.948-22.944 7.11-47.326 10.95-72.607 10.95z"/></g></g></svg>