<svg id="Layer_1" enable-background="new 0 0 512 512" height="512" viewBox="0 0 512 512" width="512" xmlns="http://www.w3.org/2000/svg"><g><path d="m256 21.996c-135.311 0-245.002 109.691-245.002 245.002 0 120.919 87.602 221.367 202.801 241.369l42.032 3.631c.056 0 .112.002.169.002 135.311 0 245.002-109.691 245.002-245.002s-109.691-245.002-245.002-245.002z" fill="#2a428c"/><g><path d="m244.991 272.597c-9.337 0-16.905-7.568-16.905-16.905v-130.425c0-9.337 7.568-16.905 16.905-16.905s16.905 7.568 16.905 16.905v130.425c0 9.337-7.568 16.905-16.905 16.905z" fill="#fe0364"/></g><g><path d="m244.991 238.787c-9.337 0-16.905 7.568-16.905 16.905v230.476c0 9.848-5.867 18.346-14.286 22.199 13.657 2.371 27.699 3.621 42.032 3.631 3.874-7.789 6.064-16.556 6.064-25.83v-230.476c0-9.337-7.568-16.905-16.905-16.905z" fill="#fd3581"/></g><g><path d="m256.949 451.605c-70.062 0-127.063-57.001-127.063-127.063 0-49.728 31.092-82.791 61.507-108.576.119-.101.238-.2.36-.297l130.75-104.785c19.012-15.237 18.621-37.305 12.51-51.573-6.052-14.13-20.621-28.14-43.355-25.084-8.141 1.095-29.763 4.002-29.763 53.334v37.707c0 9.337-7.568 16.905-16.905 16.905s-16.905-7.568-16.905-16.905v-37.708c0-43.993 15.802-81.023 59.066-86.842 34.202-4.598 65.19 13.173 78.942 45.282 13.976 32.63 4.955 69.307-22.446 91.267l-130.567 104.637c-43.396 36.843-49.384 61.49-49.384 82.638 0 51.42 41.833 93.253 93.253 93.253 9.337 0 16.905 7.568 16.905 16.905s-7.568 16.905-16.905 16.905z" fill="#fe646f"/></g><path d="m371.219 261.559c6.933 6.216 16.154 9.491 27.448 9.791 5.034-4.403 10.58-8.236 16.548-11.38 2.76-1.454 2.76-5.35 0-6.804-15.367-8.095-27.98-20.708-36.075-36.075-1.454-2.76-5.35-2.76-6.804 0-3.691 7.006-8.329 13.431-13.731 19.125.456 4.148 2.622 16.385 12.614 25.343z" fill="#ffe98d"/><g><path d="m256.949 451.605c-9.337 0-16.905-7.568-16.905-16.905s7.568-16.905 16.905-16.905c29.241 0 53.03-23.789 53.03-53.03s-23.789-53.03-53.03-53.03c-14.166 0-27.483 5.516-37.499 15.532-6.601 6.601-17.305 6.601-23.907 0-6.602-6.602-6.602-17.305 0-23.907 16.401-16.402 38.21-25.435 61.405-25.435 47.884 0 86.84 38.956 86.84 86.84.002 47.883-38.955 86.84-86.839 86.84z" fill="#fe8f83"/></g><path d="m144.525 430.325c-59-42.057-75-111.943-44-181.943 23.659-53.423-35.385-79.589-64.679-88.987-15.906 32.483-24.848 68.997-24.848 107.603 0 105.381 66.539 195.204 159.891 229.791 6.459-22.542 1.108-46.881-26.364-66.464z" fill="#3c58a0"/><path d="m501.002 266.998c0-34.476-7.135-67.282-19.986-97.041-18.452 12.462-41.585 36.676-31.49 76.425 16 63-58.789 65.27-73.789 129.011-7.283 30.949-1.299 66.142 18.116 94.162 64.678-44.104 107.149-118.367 107.149-202.557z" fill="#3c58a0"/><path d="m400.403 269.877c-38.985 0-40.418-35.146-40.418-35.146l-.004-.003c-6.74 7.447-14.757 13.715-23.721 18.438-2.76 1.454-2.76 5.35 0 6.804 15.367 8.096 27.98 20.708 36.075 36.076 1.454 2.76 5.35 2.76 6.804 0 5.308-10.078 12.568-18.958 21.264-26.169z" fill="#ffdd40"/><path d="m412.262 143.485c3.466 3.108 8.077 4.745 13.724 4.895 2.517-2.202 5.29-4.118 8.274-5.69 1.38-.727 1.38-2.675 0-3.402-7.684-4.048-13.99-10.354-18.038-18.038-.727-1.38-2.675-1.38-3.402 0-1.845 3.503-4.165 6.715-6.866 9.562.229 2.076 1.312 8.194 6.308 12.673z" fill="#ffe98d"/><path d="m426.854 147.644c-19.492 0-20.209-17.573-20.209-17.573l-.002-.002c-3.37 3.723-7.378 6.857-11.86 9.219-1.38.727-1.38 2.675 0 3.402 7.684 4.048 13.99 10.354 18.038 18.038.727 1.38 2.675 1.38 3.402 0 2.653-5.038 6.283-9.478 10.631-13.084z" fill="#ffdd40"/><path d="m155.432 158.736c4.948 4.437 11.53 6.774 19.591 6.988 3.593-3.143 7.551-5.879 11.811-8.123 1.97-1.038 1.97-3.819 0-4.856-10.969-5.778-19.971-14.781-25.749-25.749-1.038-1.97-3.819-1.97-4.856 0-2.634 5.001-5.945 9.586-9.801 13.651.326 2.962 1.872 11.696 9.004 18.089z" fill="#ffe98d"/><path d="m176.262 164.674c-27.826 0-28.85-25.086-28.85-25.086l-.003-.002c-4.811 5.315-10.533 9.789-16.931 13.16-1.97 1.038-1.97 3.819 0 4.856 10.969 5.778 19.971 14.781 25.75 25.75 1.038 1.97 3.819 1.97 4.856 0 3.79-7.193 8.972-13.531 15.178-18.678z" fill="#ffdd40"/></g></svg>