<?xml version="1.0" encoding="UTF-8"?><svg xmlns="http://www.w3.org/2000/svg" viewBox="0 0 6.28 81.65"><defs><style>.cls-1{fill:#6aad06;}.cls-2{fill:#80d008;}.cls-3{fill:#95f209;}.cls-4{fill:#b4fe41;}.cls-5{fill:#9cfe09;}.cls-6{fill:#8ee708;}.cls-7{fill:#325103;}.cls-8{fill:#b8fe4c;}.cls-9{fill:#aafe2b;}.cls-10{fill:#a5fe1f;}.cls-11{fill:#affe36;}.cls-12{fill:#bdfe57;}.cls-13{fill:#cbfe79;}.cls-14{fill:#d0fe84;}.cls-15{fill:#c2fe62;}.cls-16{fill:#c7fe6e;}.cls-17{fill:#233a02;}.cls-18{fill:#070c00;}.cls-19{fill:#152301;}.cls-20{fill:#0e1701;}.cls-21{fill:#1c2e02;}.cls-22{fill:#406804;}.cls-23{fill:#a1fe14;}.cls-24{fill:#87db08;}.cls-25{fill:#63a206;}.cls-26{fill:#2b4503;}.cls-27{fill:#558b05;}.cls-28{fill:#477305;}.cls-29{fill:#395c04;}.cls-30{fill:#5c9606;}.cls-31{fill:#71b907;}.cls-32{fill:#4e7f05;}.cls-33{fill:#79c407;}.cls-34{mix-blend-mode:screen;}.cls-35{isolation:isolate;}</style></defs><g class="cls-35"><g id="Layer_2"><g id="Layer_1-2"><g class="cls-34"><path d="M6.28,3.14V78.5c0,1.74-1.41,3.14-3.14,3.14s-3.14-1.41-3.14-3.14V3.14C0,1.41,1.41,0,3.14,0s3.14,1.41,3.14,3.14Z"/><path class="cls-18" d="M6.13,3.14V78.5c0,1.65-1.34,2.98-2.98,2.98s-2.98-1.34-2.98-2.98V3.14C.16,1.49,1.49,.16,3.14,.16s2.98,1.34,2.98,2.99Z"/><path class="cls-20" d="M5.97,3.14V78.5c0,1.56-1.27,2.83-2.83,2.83s-2.83-1.27-2.83-2.83V3.14C.31,1.58,1.58,.31,3.14,.31s2.83,1.27,2.83,2.83Z"/><path class="cls-19" d="M5.81,3.14V78.5c0,1.48-1.2,2.67-2.67,2.67s-2.67-1.2-2.67-2.67V3.14C.47,1.67,1.67,.47,3.14,.47s2.67,1.2,2.67,2.67Z"/><path class="cls-21" d="M5.66,3.14V78.5c0,1.39-1.13,2.51-2.51,2.51s-2.51-1.13-2.51-2.51V3.14C.63,1.75,1.75,.63,3.14,.63s2.51,1.13,2.51,2.51Z"/><path class="cls-17" d="M5.5,3.14V78.5c0,1.3-1.06,2.36-2.36,2.36s-2.36-1.06-2.36-2.36V3.14C.79,1.84,1.84,.79,3.14,.79s2.36,1.06,2.36,2.36Z"/><path class="cls-26" d="M5.34,3.14V78.5c0,1.21-.98,2.2-2.2,2.2s-2.2-.98-2.2-2.2V3.14C.94,1.93,1.93,.94,3.14,.94s2.2,.98,2.2,2.2Z"/><path class="cls-7" d="M5.18,3.14V78.5c0,1.13-.91,2.04-2.04,2.04s-2.04-.91-2.04-2.04V3.14c0-1.13,.91-2.04,2.04-2.04s2.04,.91,2.04,2.04Z"/><path class="cls-29" d="M5.03,3.14V78.5c0,1.04-.84,1.89-1.89,1.89s-1.89-.84-1.89-1.89V3.14c0-1.04,.84-1.89,1.89-1.89s1.89,.84,1.89,1.89Z"/><path class="cls-22" d="M4.87,3.14V78.5c0,.95-.77,1.73-1.73,1.73s-1.73-.77-1.73-1.73V3.14c0-.95,.77-1.73,1.73-1.73s1.73,.77,1.73,1.73Z"/><path class="cls-28" d="M4.71,3.14V78.5c0,.87-.7,1.57-1.57,1.57s-1.57-.7-1.57-1.57V3.14c0-.87,.7-1.57,1.57-1.57s1.57,.7,1.57,1.57Z"/><path class="cls-32" d="M4.56,3.14V78.5c0,.78-.63,1.41-1.41,1.41s-1.41-.63-1.41-1.41V3.14c0-.78,.63-1.41,1.41-1.41s1.41,.63,1.41,1.41Z"/><path class="cls-27" d="M4.51,3.14V78.5c0,.76-.61,1.37-1.37,1.37s-1.37-.61-1.37-1.37V3.14c0-.76,.61-1.37,1.37-1.37s1.37,.61,1.37,1.37Z"/><path class="cls-30" d="M4.47,3.14V78.5c0,.73-.59,1.33-1.33,1.33s-1.33-.59-1.33-1.33V3.14c0-.73,.59-1.33,1.33-1.33s1.33,.59,1.33,1.33Z"/><path class="cls-25" d="M4.43,3.14V78.5c0,.71-.58,1.29-1.29,1.29s-1.29-.58-1.29-1.29V3.14c0-.71,.58-1.29,1.29-1.29s1.29,.58,1.29,1.29Z"/><path class="cls-1" d="M4.38,3.14V78.5c0,.69-.56,1.24-1.24,1.24s-1.24-.56-1.24-1.24V3.14c0-.69,.56-1.24,1.24-1.24s1.24,.56,1.24,1.24Z"/><path class="cls-31" d="M4.34,3.14V78.5c0,.66-.54,1.2-1.2,1.2s-1.2-.54-1.2-1.2V3.14c0-.66,.54-1.2,1.2-1.2s1.2,.54,1.2,1.2Z"/><path class="cls-33" d="M4.3,3.14V78.5c0,.64-.52,1.16-1.16,1.16s-1.16-.52-1.16-1.16V3.14c0-.64,.52-1.16,1.16-1.16s1.16,.52,1.16,1.16Z"/><path class="cls-2" d="M4.26,3.14V78.5c0,.62-.5,1.11-1.11,1.11s-1.11-.5-1.11-1.11V3.14c0-.62,.5-1.11,1.11-1.11s1.11,.5,1.11,1.11Z"/><path class="cls-24" d="M4.21,3.14V78.5c0,.59-.48,1.07-1.07,1.07s-1.07-.48-1.07-1.07V3.14c0-.59,.48-1.07,1.07-1.07s1.07,.48,1.07,1.07Z"/><path class="cls-6" d="M4.17,3.14V78.5c0,.57-.46,1.03-1.03,1.03s-1.03-.46-1.03-1.03V3.14c0-.57,.46-1.03,1.03-1.03s1.03,.46,1.03,1.03Z"/><path class="cls-3" d="M4.13,3.14V78.5c0,.54-.44,.99-.99,.99s-.99-.44-.99-.99V3.14c0-.54,.44-.99,.99-.99s.99,.44,.99,.99Z"/><path class="cls-5" d="M4.08,3.14V78.5c0,.52-.42,.94-.94,.94s-.94-.42-.94-.94V3.14c0-.52,.42-.94,.94-.94s.94,.42,.94,.94Z"/><path class="cls-23" d="M4.03,3.14V78.5c0,.49-.4,.89-.89,.89s-.89-.4-.89-.89V3.14c0-.49,.4-.89,.89-.89s.89,.4,.89,.89Z"/><path class="cls-10" d="M3.97,3.14V78.5c0,.46-.37,.83-.83,.83s-.83-.37-.83-.83V3.14c0-.46,.37-.83,.83-.83s.83,.37,.83,.83Z"/><path class="cls-9" d="M3.91,3.14V78.5c0,.43-.35,.77-.77,.77s-.77-.35-.77-.77V3.14c0-.43,.35-.77,.77-.77s.77,.35,.77,.77Z"/><path class="cls-11" d="M3.86,3.14V78.5c0,.39-.32,.71-.71,.71s-.71-.32-.71-.71V3.14c0-.39,.32-.71,.71-.71s.71,.32,.71,.71Z"/><path class="cls-4" d="M3.8,3.14V78.5c0,.36-.29,.66-.66,.66s-.66-.29-.66-.66V3.14c0-.36,.29-.66,.66-.66s.66,.29,.66,.66Z"/><path class="cls-8" d="M3.74,3.14V78.5c0,.33-.27,.6-.6,.6s-.6-.27-.6-.6V3.14c0-.33,.27-.6,.6-.6s.6,.27,.6,.6Z"/><path class="cls-12" d="M3.68,3.14V78.5c0,.3-.24,.54-.54,.54s-.54-.24-.54-.54V3.14c0-.3,.24-.54,.54-.54s.54,.24,.54,.54Z"/><path class="cls-15" d="M3.63,3.14V78.5c0,.27-.22,.49-.49,.49s-.49-.22-.49-.49V3.14c0-.27,.22-.49,.49-.49s.49,.22,.49,.49Z"/><path class="cls-16" d="M3.57,3.14V78.5c0,.24-.19,.43-.43,.43s-.43-.19-.43-.43V3.14c0-.24,.19-.43,.43-.43s.43,.19,.43,.43Z"/><path class="cls-13" d="M3.51,3.14V78.5c0,.21-.17,.37-.37,.37s-.37-.17-.37-.37V3.14c0-.21,.17-.37,.37-.37s.37,.17,.37,.37Z"/><path class="cls-14" d="M3.46,3.14V78.5c0,.17-.14,.31-.31,.31s-.31-.14-.31-.31V3.14c0-.17,.14-.31,.31-.31s.31,.14,.31,.31Z"/></g></g></g></g></svg>