<svg xmlns="http://www.w3.org/2000/svg" viewBox="0 0 24 24"><path fill="#20f4e3" d="M19 14.125V3H1v.592C.42 3.8 0 4.35 0 5s.42 1.2 1 1.408V16a1 1 0 0 0 1 1h14v4h3v-3.125L24 21V11l-5 3.125z" class="colorf47920 svgShape"></path><g fill="#41e1d4" class="colorffffff svgShape"><path d="M17 3h-3l-2 2 2 2h3l-2-2zM11 3H8L6 5l2 2h3L9 5zM19 4l-1 1 1 1zM1.5 6.5 2 7h3L3 5c0 .827-.673 1.5-1.5 1.5zM1.5 3.5C2.327 3.5 3 4.173 3 5l2-2H2l-.5.5z" opacity=".8" fill="#000000" class="color000000 svgShape"></path><circle cx="1.5" cy="5" r="1.5" opacity=".1" fill="#000000" class="color000000 svgShape"></circle><path d="M19 21v-3.125L24 21V11l-5 3.125V11h-3v10z" opacity=".2" fill="#000000" class="color000000 svgShape"></path></g></svg>