<svg xmlns="http://www.w3.org/2000/svg" viewBox="0 0 520 520"><path fill="#4dfff1" d="M415 243.33 450 260c0 52.469-21.267 99.969-55.65 134.351C359.966 428.734 312.466 450 260 450l-21-35 21-41c31.48 0 59.98-12.76 80.61-33.39C361.24 319.98 374 291.48 374 260l41-16.67zM260 146c-31.48 0-59.98 12.76-80.61 33.39S146 228.52 146 260l-41 27.33L70 260c0-52.465 21.268-99.965 55.651-134.349C160.035 91.268 207.535 70 260 70l20 35-20 41z" class="colorff884d svgShape"></path><path fill="#4dfff1" d="M450 260h-76c0-62.96-51.04-114-114-114V70c104.93 0 190 85.07 190 190zM260 380v70c-104.93 0-190-85.06-190-190h76c0 62.96 51.04 114 114 114v6z" class="colorff4d4d svgShape"></path><path fill="#4dfff1" d="M309.995 499.772a5.002 5.002 0 0 1-1.032-9.893c90.678-19.211 161.691-90.225 180.915-180.916a5 5 0 1 1 9.782 2.075c-20.042 94.556-94.082 168.595-188.625 188.625a5.07 5.07 0 0 1-1.04.109zM25.235 215.001a5 5 0 0 1-4.896-6.038c20.043-94.549 94.083-168.584 188.625-188.614a5.001 5.001 0 0 1 2.073 9.783C120.359 49.343 49.345 120.353 30.121 211.037a5.001 5.001 0 0 1-4.886 3.964zm184.77 284.771c-.343 0-.692-.035-1.041-.109-94.543-20.03-168.583-94.069-188.625-188.625a5 5 0 0 1 9.782-2.075c19.224 90.691 90.237 161.705 180.915 180.916a5.001 5.001 0 0 1-1.031 9.893zm284.76-284.771a5.001 5.001 0 0 1-4.886-3.964c-19.224-90.684-90.238-161.694-180.915-180.905a5 5 0 1 1 2.073-9.783c94.542 20.03 168.582 94.065 188.625 188.614a5.001 5.001 0 0 1-4.897 6.038z" class="colorff884d svgShape"></path><path fill="#41e1d4" d="M260 5a5 5 0 0 0-5 5v144.67a5 5 0 1 0 10 0V10a5 5 0 0 0-5-5zm0 344a5 5 0 0 0-5 5v156a5 5 0 1 0 10 0V354a5 5 0 0 0-5-5zm250-94H357.384a5 5 0 1 0 0 10H510a5 5 0 1 0 0-10zm-349 0H10a5 5 0 1 0 0 10h151a5 5 0 1 0 0-10z" class="colorffe278 svgShape"></path><path fill="#0ce4d2" d="M260 140.333c66.09 0 119.667 53.577 119.667 119.667S326.09 379.667 260 379.667 140.333 326.09 140.333 260 193.91 140.333 260 140.333zM322.983 260c0-34.777-28.195-62.982-62.983-62.982S197.018 225.223 197.018 260c0 34.787 28.195 62.983 62.982 62.983s62.983-28.196 62.983-62.983z" class="colore40c57 svgShape"></path></svg>