<svg id="book" enable-background="new 0 0 300 300" height="512" viewBox="0 0 300 300" width="512" xmlns="http://www.w3.org/2000/svg"><g><circle cx="44.163" cy="120.829" r="4"/><path d="m262.102 42.562 4.563-4.563c1.562-1.562 1.562-4.096 0-5.656-1.562-1.562-4.094-1.562-5.656 0l-4.562 4.563-4.562-4.563c-1.562-1.562-4.094-1.562-5.656 0-1.562 1.561-1.562 4.094 0 5.656l4.563 4.563-4.563 4.563c-1.562 1.562-1.562 4.096 0 5.656.781.781 1.805 1.172 2.828 1.172s2.047-.391 2.828-1.172l4.562-4.563 4.562 4.563c.781.781 1.805 1.172 2.828 1.172s2.047-.391 2.828-1.172c1.562-1.561 1.562-4.094 0-5.656z"/><path d="m256.993 216.509c-2.362 0-4.276 1.915-4.276 4.277s1.915 4.276 4.276 4.276 4.276-1.915 4.276-4.276-1.914-4.277-4.276-4.277z"/><path d="m46.163 176.829c-7.719 0-14 6.281-14 14s6.281 14 14 14 14-6.281 14-14-6.281-14-14-14zm0 20c-3.309 0-6-2.691-6-6s2.691-6 6-6 6 2.691 6 6-2.691 6-6 6z"/><path d="m236.163 56.829h-156.066c-8.785 0-15.934 7.148-15.934 15.934v176.066c0 11.027 8.973 20 20 20h152c2.209 0 4-1.791 4-4v-204c0-2.209-1.791-4-4-4zm-4 172h-136v-164h136zm-152.066-164h8.066v164h-4c-4.52 0-8.647 1.564-12 4.102v-160.168c0-4.375 3.559-7.934 7.934-7.934zm4.066 196c-5.208 0-9.606-3.354-11.263-8h63.263c2.209 0 4-1.791 4-4s-1.791-4-4-4h-63.263c1.656-4.646 6.055-8 11.263-8h148v24z"/><path d="m164.163 188.829c2.209 0 4-1.791 4-4s-1.791-4-4-4h-12c-2.209 0-4 1.791-4 4v24c0 2.209 1.791 4 4 4h12c2.209 0 4-1.791 4-4s-1.791-4-4-4h-8v-4h8c2.209 0 4-1.791 4-4s-1.791-4-4-4h-8v-4z"/><path d="m188.163 188.829c2.209 0 4-1.791 4-4s-1.791-4-4-4h-12c-2.209 0-4 1.791-4 4v24c0 2.209 1.791 4 4 4s4-1.791 4-4v-8h8c2.209 0 4-1.791 4-4s-1.791-4-4-4h-8v-4z"/><path d="m200.163 180.829c-2.209 0-4 1.791-4 4v24c0 2.209 1.791 4 4 4s4-1.791 4-4v-24c0-2.209-1.791-4-4-4z"/><path d="m124.163 212.829h9.795c5.627 0 10.205-4.578 10.205-10.205v-11.59c0-5.627-4.578-10.205-10.205-10.205h-9.795c-2.209 0-4 1.791-4 4v24c0 2.209 1.791 4 4 4zm4-24h5.795c1.217 0 2.205.988 2.205 2.205v11.59c0 1.217-.988 2.205-2.205 2.205h-5.795z"/><path d="m132.163 124.092v8.737c0 1.436.77 2.762 2.016 3.473l25.984 14.848v13.679c0 2.209 1.791 4 4 4s4-1.791 4-4v-13.679l25.984-14.848c1.246-.711 2.016-2.037 2.016-3.473v-8.737c4.646-1.656 8-6.055 8-11.263 0-6.617-5.383-12-12-12s-12 5.383-12 12c0 5.208 3.354 9.606 8 11.263v6.417l-20 11.427v-33.844c4.646-1.656 8-6.055 8-11.263 0-6.617-5.383-12-12-12s-12 5.383-12 12c0 5.208 3.354 9.606 8 11.263v33.844l-20-11.427v-6.417c4.646-1.656 8-6.055 8-11.263 0-6.617-5.383-12-12-12s-12 5.383-12 12c0 5.208 3.354 9.606 8 11.263zm60-15.263c2.205 0 4 1.795 4 4s-1.795 4-4 4-4-1.795-4-4 1.795-4 4-4zm-28-16c2.205 0 4 1.795 4 4s-1.795 4-4 4-4-1.795-4-4 1.795-4 4-4zm-28 16c2.205 0 4 1.795 4 4s-1.795 4-4 4-4-1.795-4-4 1.795-4 4-4z"/></g></svg>