<svg id="decentralize-bank" enable-background="new 0 0 300 300" height="512" viewBox="0 0 300 300" width="512" xmlns="http://www.w3.org/2000/svg"><g><path d="m77.516 56.484c.781.781 1.805 1.172 2.828 1.172s2.047-.391 2.828-1.172l2.828-2.828 2.828 2.828c.781.781 1.805 1.172 2.828 1.172s2.047-.391 2.828-1.172c1.562-1.562 1.562-4.094 0-5.656l-2.828-2.828 2.828-2.828c1.562-1.562 1.562-4.094 0-5.656s-4.094-1.562-5.656 0l-2.828 2.828-2.828-2.828c-1.562-1.562-4.094-1.562-5.656 0s-1.562 4.094 0 5.656l2.828 2.828-2.828 2.828c-1.563 1.563-1.563 4.094 0 5.656z"/><path d="m246 120c2.211 0 4-1.791 4-4v-24c0-1.615-.973-3.07-2.461-3.691l-96-40c-.984-.41-2.094-.41-3.078 0l-96 40c-1.488.621-2.461 2.076-2.461 3.691v24c0 2.209 1.789 4 4 4h8v48h-8c-2.211 0-4 1.791-4 4v12c0 2.209 1.789 4 4 4h75.779l-49.302 20.301c-1.5.617-2.477 2.078-2.477 3.699v12.737c-4.646 1.656-8 6.055-8 11.263 0 6.617 5.383 12 12 12s12-5.383 12-12c0-5.208-3.354-9.606-8-11.263v-10.057l60-24.706v7.554l-29.789 14.895c-1.356.677-2.211 2.061-2.211 3.577v8.737c-4.646 1.656-8 6.055-8 11.263 0 6.617 5.383 12 12 12s12-5.383 12-12c0-5.208-3.354-9.606-8-11.263v-6.264l24-12v34.264c-4.646 1.656-8 6.055-8 11.263 0 6.617 5.383 12 12 12s12-5.383 12-12c0-5.208-3.354-9.606-8-11.263v-34.264l24 12v6.264c-4.646 1.656-8 6.055-8 11.263 0 6.617 5.383 12 12 12s12-5.383 12-12c0-5.208-3.354-9.606-8-11.263v-8.737c0-1.516-.855-2.9-2.211-3.578l-29.789-14.895v-7.68l64 24.889v10.001c-4.646 1.656-8 6.055-8 11.263 0 6.617 5.383 12 12 12s12-5.383 12-12c0-5.208-3.354-9.606-8-11.263v-12.737c0-1.65-1.012-3.131-2.551-3.729l-52.126-20.271h74.677c2.211 0 4-1.791 4-4v-12c0-2.209-1.789-4-4-4h-8v-48zm-164 120c-2.207 0-4-1.795-4-4s1.793-4 4-4 4 1.795 4 4-1.793 4-4 4zm36 0c-2.207 0-4-1.795-4-4s1.793-4 4-4 4 1.795 4 4-1.793 4-4 4zm64 0c-2.207 0-4-1.795-4-4s1.793-4 4-4 4 1.795 4 4-1.793 4-4 4zm40 0c-2.207 0-4-1.795-4-4s1.793-4 4-4 4 1.795 4 4-1.793 4-4 4zm-164-145.334 92-38.332 92 38.332v17.334h-184zm132 73.334v-48h16v48zm-80-48v48h-16v-48zm8 0h16v48h-16zm24 0h16v48h-16zm24 0h16v48h-16zm-96 0h16v48h-16zm80 136c-2.207 0-4-1.795-4-4s1.793-4 4-4 4 1.795 4 4-1.793 4-4 4zm92-76h-92.031c-.006 0-.011 0-.018 0h-91.951v-4h184zm-12-12h-16v-48h16z"/><circle cx="194" cy="40" r="4"/><path d="m230 68c6.617 0 12-5.383 12-12s-5.383-12-12-12-12 5.383-12 12 5.383 12 12 12zm0-16c2.207 0 4 1.795 4 4s-1.793 4-4 4-4-1.795-4-4 1.793-4 4-4z"/><path d="m150 68c-8.824 0-16 7.178-16 16s7.176 16 16 16 16-7.178 16-16-7.176-16-16-16zm0 24c-4.41 0-8-3.588-8-8s3.59-8 8-8 8 3.588 8 8-3.59 8-8 8z"/></g></svg>