<svg id="exchange" enable-background="new 0 0 300 300" height="512" viewBox="0 0 300 300" width="512" xmlns="http://www.w3.org/2000/svg"><g><path d="m74 65.999c6.617 0 12-5.383 12-12s-5.383-12-12-12-12 5.383-12 12 5.383 12 12 12zm0-16c2.205 0 4 1.795 4 4s-1.795 4-4 4-4-1.795-4-4 1.795-4 4-4z"/><path d="m248.213 51.151c2.362 0 4.277-1.915 4.277-4.276 0-2.362-1.915-4.277-4.277-4.277s-4.276 1.915-4.276 4.277c-.001 2.361 1.914 4.276 4.276 4.276z"/><path d="m68.213 210.598c-2.362 0-4.276 1.915-4.276 4.277s1.915 4.276 4.276 4.276 4.277-1.915 4.277-4.276c-.001-2.363-1.916-4.277-4.277-4.277z"/><path d="m242 121.999h4v4c0 2.209 1.791 4 4 4s4-1.791 4-4v-4h4c2.209 0 4-1.791 4-4s-1.791-4-4-4h-4v-4c0-2.209-1.791-4-4-4s-4 1.791-4 4v4h-4c-2.209 0-4 1.791-4 4s1.791 4 4 4z"/><path d="m271.053 254.14-44-12c-.6-.164-1.23-.189-1.838-.062l-59.297 11.859-69.832-11.025c-1.209-.192-2.086-1.22-2.086-2.442 0-1.363 1.107-2.471 2.471-2.471h85.529c.51 0 1.014-.098 1.486-.285l20-8c2.051-.822 3.049-3.148 2.229-5.201-.822-2.049-3.143-3.045-5.201-2.229l-19.283 7.715h-39.231v-.613c0-6.279 5.107-11.387 11.387-11.387h24.613c1.615 0 3.084-.998 3.703-2.49.291-.695 7.385-17.031 31.73-13.551 11.525 1.646 17.258 3.939 22.801 6.158 7.564 3.025 14.709 5.883 33.766 5.883 2.209 0 4-1.791 4-4s-1.791-4-4-4c-17.516 0-23.67-2.461-30.795-5.312-5.701-2.279-12.164-4.865-24.639-6.646-18.372-2.617-29.143 4.41-34.853 10.539 1.492-4.684 2.286-9.59 2.286-14.58 0-16.756-8.645-31.514-21.695-40.103l44.859-7.082c5.121-.811 8.836-5.162 8.836-10.344 0-5.773-4.697-10.471-10.471-10.471h-1.799c10.155-8.99 16.269-22.076 16.269-36 0-26.467-21.533-48-48-48s-48 21.533-48 48c0 5.536.936 10.892 2.749 16h-.356c-3.502-5.82-14.477-19.451-38.959-15.959-12.475 1.781-18.938 4.367-24.639 6.646-7.123 2.851-13.277 5.312-30.793 5.312-2.209 0-4 1.791-4 4s1.791 4 4 4c19.057 0 26.201-2.857 33.766-5.883 5.543-2.219 11.275-4.512 22.801-6.158 24.363-3.482 31.439 12.854 31.719 13.527.609 1.518 2.08 2.514 3.715 2.514h24.613c6.279 0 11.387 5.107 11.387 11.387v.613h-39.23l-19.283-7.715c-2.059-.816-4.381.178-5.201 2.229-.82 2.053.178 4.379 2.229 5.201l20 8c.473.188.977.285 1.486.285h85.529c1.363 0 2.471 1.107 2.471 2.471 0 1.223-.877 2.25-2.084 2.441l-56.77 8.963c-4.184-1.195-8.583-1.875-13.146-1.875-4.104 0-8.067.573-11.871 1.546l-47.344-9.468c-.613-.127-1.24-.104-1.838.062l-44 12c-2.131.582-3.387 2.781-2.807 4.912.486 1.779 2.098 2.949 3.857 2.949.348 0 .703-.047 1.055-.143l43.088-11.752 34.89 6.977c-13.785 8.446-23.032 23.603-23.032 40.917 0 16.685 8.568 31.395 21.525 40h-11.054c-5.773 0-10.471 4.697-10.471 10.471 0 5.182 3.715 9.533 8.838 10.344l70.539 11.137c.461.072.939.064 1.408-.029l59.074-11.814 43.088 11.752c.354.096.707.143 1.055.143 1.76 0 3.371-1.17 3.857-2.949.58-2.133-.675-4.332-2.806-4.914zm-124.44-152.141h-13.213c-2.215-5.045-3.4-10.405-3.4-16 0-22.057 17.943-40 40-40s40 17.943 40 40c0 15.293-8.872 29.346-22.619 36h-21.381v-.613c0-10.69-8.697-19.387-19.387-19.387zm-52.613 88c0-22.057 17.943-40 40-40s40 17.943 40 40c0 7.075-1.929 13.929-5.448 20h-15.165c-10.689 0-19.387 8.697-19.387 19.387v.613c-22.057 0-40-17.943-40-40z"/><path d="m138 209.999v-4h2c5.514 0 10-4.486 10-10 0-2.25-.746-4.328-2.004-6 1.258-1.672 2.004-3.75 2.004-6 0-5.514-4.486-10-10-10h-2v-4c0-2.209-1.791-4-4-4s-4 1.791-4 4v4h-8c-2.209 0-4 1.791-4 4v24c0 2.209 1.791 4 4 4h8v4c0 2.209 1.791 4 4 4s4-1.791 4-4zm-12-28h14c1.104 0 2 .896 2 2s-.896 2-2 2h-14zm0 12h14c1.104 0 2 .896 2 2s-.896 2-2 2h-14z"/><path d="m166 105.999c0 2.209 1.791 4 4 4s4-1.791 4-4v-4h8c2.209 0 4-1.791 4-4v-12c0-2.209-1.791-4-4-4h-8v-4h8c2.209 0 4-1.791 4-4s-1.791-4-4-4h-8v-4c0-2.209-1.791-4-4-4s-4 1.791-4 4v4h-8c-2.209 0-4 1.791-4 4v12c0 2.209 1.791 4 4 4h8v4h-8c-2.209 0-4 1.791-4 4s1.791 4 4 4h8zm-4-24v-4h4v4zm12 8h4v4h-4z"/></g></svg>