<svg id="farm" enable-background="new 0 0 300 300" height="512" viewBox="0 0 300 300" width="512" xmlns="http://www.w3.org/2000/svg"><g><path d="m102.729 90.927c0 2.362 1.915 4.276 4.276 4.276s4.277-1.915 4.277-4.276-1.915-4.277-4.277-4.277-4.276 1.915-4.276 4.277z"/><path d="m89.516 62.484c.781.781 1.805 1.172 2.828 1.172s2.047-.391 2.828-1.172l2.828-2.828 2.828 2.828c.781.781 1.805 1.172 2.828 1.172s2.047-.391 2.828-1.172c1.562-1.562 1.562-4.094 0-5.656l-2.828-2.828 2.828-2.828c1.562-1.562 1.562-4.094 0-5.656s-4.094-1.562-5.656 0l-2.828 2.828-2.828-2.828c-1.562-1.562-4.094-1.562-5.656 0s-1.562 4.094 0 5.656l2.828 2.828-2.828 2.828c-1.563 1.563-1.563 4.094 0 5.656z"/><path d="m274 258h-10.162c3.817-4.251 6.162-9.85 6.162-16v-20c0-2.209-1.791-4-4-4h-16v-112c0-2.209-1.791-4-4-4s-4 1.791-4 4v112h-16c-2.209 0-4 1.791-4 4v20c0 6.15 2.345 11.749 6.162 16h-17.957l3.244-64.609c1.086.365 2.227.609 3.435.609h2.234c6 0 10.883-4.883 10.883-10.883v-52.908c0-15.454-12.534-28.031-28-28.194v-4.701c4.656-1.65 8-6.1 8-11.314v-20h16c2.209 0 4-1.791 4-4s-1.791-4-4-4h-16.498l-2.737-20.529c-.266-1.987-1.961-3.471-3.965-3.471h-25.602c-2.004 0-3.699 1.484-3.965 3.471l-2.736 20.529h-16.498c-2.209 0-4 1.791-4 4s1.791 4 4 4h16v20c0 5.215 3.344 9.664 8 11.314v4.701c-15.466.163-28 12.74-28 28.194v52.908c0 6 4.883 10.883 10.883 10.883h2.234c1.206 0 2.346-.244 3.431-.607l3.247 64.607h-49.99c18.012-10.366 30.195-29.769 30.195-52 0-33.084-26.916-60-60-60s-60 26.916-60 60c0 22.231 12.183 41.634 30.195 52h-34.195c-2.209 0-4 1.791-4 4s1.791 4 4 4h248c2.209 0 4-1.791 4-4s-1.791-4-4-4zm-44-16v-16h12v8c0 2.209 1.791 4 4 4s4-1.791 4-4v-8h12v16c0 8.822-7.178 16-16 16s-16-7.178-16-16zm-36 16v-24h9.402l-1.206 24zm-4-64c-2.209 0-4 1.791-4 4v28h-9.807l-2.193-43.6v-4.4-40h32l.005 39.974c0 .009-.005.017-.005.026v4.316l-2.196 43.684h-9.804v-28c0-2.209-1.791-4-4-4zm-11.997-83.97c.017 6.603 5.39 11.97 11.997 11.97s11.98-5.367 11.997-11.97h.003v19.97h-24v-19.97zm43.997 20.179v52.908c0 1.59-1.293 2.883-2.883 2.883h-2.234c-1.59 0-2.883-1.293-2.883-2.883v-.717-4.4-44c0-2.209-1.791-4-4-4v-18.189c7.056 3.169 12 10.205 12 18.398zm-41.299-88.209h18.598l2.133 16h-22.863zm21.299 24v20c0 2.205-1.795 4-4 4-2.209 0-4 1.791-4 4v16c0 2.205-1.795 4-4 4s-4-1.795-4-4v-16c0-2.209-1.791-4-4-4-2.205 0-4-1.795-4-4v-20zm-36 117.117c0 1.59-1.293 2.883-2.883 2.883h-2.234c-1.59 0-2.883-1.293-2.883-2.883v-52.908c0-8.193 4.944-15.229 12-18.398v18.189c-2.209 0-4 1.791-4 4l.005 43.974c0 .009-.005.017-.005.026zm10.596 50.883h9.404v24h-8.197zm-138.596-28c0-28.674 23.326-52 52-52s52 23.326 52 52-23.326 52-52 52-52-23.326-52-52z"/><path d="m130 194c0-6.617-5.383-12-12-12s-12 5.383-12 12c0 5.208 3.354 9.606 8 11.263v6.417l-20 11.427v-33.844c4.646-1.656 8-6.055 8-11.263 0-6.617-5.383-12-12-12s-12 5.383-12 12c0 5.208 3.354 9.606 8 11.263v33.844l-20-11.427v-6.417c4.646-1.656 8-6.055 8-11.263 0-6.617-5.383-12-12-12s-12 5.383-12 12c0 5.208 3.354 9.606 8 11.263v8.737c0 1.436.77 2.762 2.016 3.473l25.984 14.848v13.679c0 2.209 1.791 4 4 4s4-1.791 4-4v-13.679l25.984-14.848c1.246-.711 2.016-2.037 2.016-3.473v-8.737c4.646-1.657 8-6.055 8-11.263zm-68-4c2.205 0 4 1.795 4 4s-1.795 4-4 4-4-1.795-4-4 1.795-4 4-4zm28-16c2.205 0 4 1.795 4 4s-1.795 4-4 4-4-1.795-4-4 1.795-4 4-4zm28 24c-2.205 0-4-1.795-4-4s1.795-4 4-4 4 1.795 4 4-1.795 4-4 4z"/><path d="m58 114c6.617 0 12-5.383 12-12s-5.383-12-12-12-12 5.383-12 12 5.383 12 12 12zm0-16c2.205 0 4 1.795 4 4s-1.795 4-4 4-4-1.795-4-4 1.795-4 4-4z"/></g></svg>