<?xml version="1.0" encoding="UTF-8"?>
<svg xmlns="http://www.w3.org/2000/svg" xmlns:xlink="http://www.w3.org/1999/xlink" version="1.1" id="gasfee" x="0px" y="0px" viewBox="0 0 300 300" style="enable-background:new 0 0 300 300;" xml:space="preserve" width="512" height="512">
<g>
	<path d="M208.791,88.195c6.617,0,12-5.383,12-12s-5.383-12-12-12s-12,5.383-12,12S202.173,88.195,208.791,88.195z M208.791,72.195   c2.207,0,4,1.795,4,4s-1.793,4-4,4s-4-1.795-4-4S206.584,72.195,208.791,72.195z"/>
	<circle cx="92.791" cy="56.195" r="4"/>
	<path d="M85.275,75.711c-1.562-1.562-4.094-1.562-5.656,0l-2.828,2.828l-2.828-2.828c-1.562-1.562-4.094-1.562-5.656,0   s-1.562,4.094,0,5.656l2.828,2.828l-2.828,2.828c-1.562,1.562-1.562,4.094,0,5.656c0.781,0.781,1.805,1.172,2.828,1.172   s2.047-0.391,2.828-1.172l2.828-2.828l2.828,2.828c0.781,0.781,1.805,1.172,2.828,1.172s2.047-0.391,2.828-1.172   c1.562-1.562,1.562-4.094,0-5.656l-2.828-2.828l2.828-2.828C86.838,79.805,86.838,77.274,85.275,75.711z"/>
	<path d="M179.513,89.264c-4.027-3.738-5.82-7.666-5.48-12.006c0.793-10.119,13.199-20.57,17.914-23.742   c1.344-0.906,2.012-2.535,1.688-4.125c-0.328-1.588-1.582-2.824-3.176-3.125c-19.539-3.709-40.359,3.99-51.801,19.121   c-7.652,10.121-10.172,22.158-7.41,34.193c-17.16-6.885-31.594,2.803-37.555,10.082c-0.727,0.889-1.035,2.047-0.852,3.18   c0.188,1.133,0.852,2.131,1.82,2.74c20.039,12.582,14.129,24.316,5.176,42.078c-5.137,10.193-10.957,21.75-11.047,34.508   c-0.152,22.412,10.195,40.844,29.141,51.898c12.109,7.064,26.727,10.59,41.469,10.59c15.027,0,30.18-3.664,42.922-10.98   c19.602-11.258,30.418-29.482,30.469-51.328C233.056,188.533,235.142,140.92,179.513,89.264z M224.802,191.871   c-0.008,0.109-0.012,0.217-0.012,0.324c0,18.926-9.395,34.746-26.453,44.543c-22.504,12.928-54.621,13.109-76.375,0.418   c-11.578-6.756-25.344-20.035-25.172-44.934c0.074-10.885,5.219-21.092,10.191-30.963c8.41-16.688,17.09-33.912-3.918-49.619   c5.578-4.643,17.961-11.639,33.211,0.029c1.48,1.129,3.539,1.09,4.977-0.094c1.438-1.186,1.863-3.205,1.031-4.871   c-6.367-12.76-5.391-25.721,2.754-36.492c7.836-10.365,20.945-16.574,34.5-16.863c-5.789,5.459-12.73,13.859-13.477,23.264   c-0.543,6.846,2.152,13.074,8.008,18.514C227.716,144.942,224.845,191.293,224.802,191.871z"/>
	<path d="M157.537,133.871l-20,28c-0.715,0.998-0.93,2.27-0.586,3.449c0.348,1.178,1.215,2.133,2.355,2.59l20,8   c0.477,0.189,0.98,0.285,1.484,0.285s1.008-0.096,1.484-0.285l20-8c1.141-0.457,2.008-1.412,2.355-2.59   c0.344-1.18,0.129-2.451-0.586-3.449l-20-28C162.545,131.766,159.037,131.766,157.537,133.871z M156.791,148.677v17.61   l-9.785-3.914L156.791,148.677z M164.791,166.287v-17.61l9.785,13.696L164.791,166.287z"/>
	<path d="M178.732,172.766l-17.941,10.766l-17.941-10.766c-1.5-0.904-3.41-0.725-4.723,0.445c-1.305,1.166-1.703,3.045-0.977,4.639   l20,44c0.648,1.43,2.07,2.346,3.641,2.346s2.992-0.916,3.641-2.346l20-44c0.727-1.594,0.328-3.473-0.977-4.639   C182.142,172.043,180.232,171.865,178.732,172.766z M156.791,190.46v11.269l-7.043-15.495L156.791,190.46z M164.791,201.729V190.46   l7.043-4.226L164.791,201.729z"/>
	<path d="M114.646,178.545c1.293-1.783,0.902-4.277-0.879-5.578c-1.785-1.312-4.285-0.914-5.59,0.869   c-5.68,7.771-12.68,27.148,1.488,44.857c0.793,0.988,1.953,1.502,3.129,1.502c0.875,0,1.758-0.287,2.496-0.877   c1.723-1.379,2.004-3.896,0.625-5.621C102.084,196.408,114.127,179.266,114.646,178.545z"/>
</g>















</svg>
