<svg id="ico" enable-background="new 0 0 300 300" height="512" viewBox="0 0 300 300" width="512" xmlns="http://www.w3.org/2000/svg"><g><path d="m220.213 95.98c2.362 0 4.277-1.915 4.277-4.276 0-2.362-1.915-4.277-4.277-4.277s-4.276 1.915-4.276 4.277c-.001 2.361 1.914 4.276 4.276 4.276z"/><path d="m149.516 55.312c.781.781 1.805 1.172 2.828 1.172s2.047-.391 2.828-1.172l2.828-2.828 2.828 2.828c.781.781 1.805 1.172 2.828 1.172s2.047-.391 2.828-1.172c1.562-1.562 1.562-4.094 0-5.656l-2.828-2.828 2.828-2.828c1.562-1.562 1.562-4.094 0-5.656s-4.094-1.562-5.656 0l-2.828 2.828-2.828-2.828c-1.562-1.562-4.094-1.562-5.656 0s-1.562 4.094 0 5.656l2.828 2.828-2.828 2.828c-1.563 1.563-1.563 4.094 0 5.656z"/><path d="m106 70.828c6.617 0 12-5.383 12-12s-5.383-12-12-12-12 5.383-12 12 5.383 12 12 12zm0-16c2.207 0 4 1.795 4 4s-1.793 4-4 4-4-1.795-4-4 1.793-4 4-4z"/><path d="m262 194.828h-28c-2.211 0-4 1.791-4 4v2.999c-6.374-.965-10.348-2.532-14.793-4.312-5.703-2.279-12.164-4.865-24.641-6.646-4.669-.664-8.839-.7-12.566-.294v-86.79c0-7.145-5.812-12.957-12.957-12.957h-118.086c-7.145 0-12.957 5.813-12.957 12.957v118.086c0 7.145 5.812 12.957 12.957 12.957h15.369c-.194.796-.326 1.615-.326 2.471 0 5.182 3.715 9.533 8.836 10.344l70.539 11.137c.207.033.418.049.625.049.262 0 .527-.025.785-.078l59.074-11.814 28.141 7.673v4.218c0 2.209 1.789 4 4 4h28c2.211 0 4-1.791 4-4v-60c0-2.209-1.789-4-4-4zm-112.737-12c-1.656-4.646-6.055-8-11.263-8s-9.606 3.354-11.263 8h-8.737c-.938 0-1.844.328-2.562.928l-22.887 19.072h-50.551v-12h16.737c1.656 4.646 6.055 8 11.263 8 6.617 0 12-5.383 12-12s-5.383-12-12-12c-5.208 0-9.606 3.354-11.263 8h-16.737v-44h14l22.8 30.4c.754 1.008 1.941 1.6 3.199 1.6h56c1.188 0 2.312-.527 3.074-1.439l18.801-22.561h10.126v36zm-7.263 4c0 2.205-1.793 4-4 4s-4-1.795-4-4 1.793-4 4-4 4 1.795 4 4zm-76 0c0-2.205 1.793-4 4-4s4 1.795 4 4-1.793 4-4 4-4-1.795-4-4zm32.737-68c1.656 4.646 6.055 8 11.263 8s9.606-3.354 11.263-8h48.737v20h-32.737c-1.656-4.646-6.055-8-11.263-8-6.617 0-12 5.383-12 12s5.383 12 12 12c5.208 0 9.606-3.354 11.263-8h12.196l-13.333 16h-52.126l-18-24h8c1.215 0 2.363-.553 3.125-1.502l14.797-18.498zm7.263-4c0-2.205 1.793-4 4-4s4 1.795 4 4-1.793 4-4 4-4-1.795-4-4zm20 32c-2.207 0-4-1.795-4-4s1.793-4 4-4 4 1.795 4 4-1.793 4-4 4zm-79.043-48h118.086c2.734 0 4.957 2.225 4.957 4.957v7.043h-48.737c-1.656-4.646-6.055-8-11.263-8s-9.606 3.354-11.263 8h-8.737c-1.215 0-2.363.553-3.125 1.502l-14.797 18.498h-30.078v-27.043c0-2.732 2.223-4.957 4.957-4.957zm-4.957 123.043v-11.043h52c.938 0 1.844-.328 2.562-.928l22.887-19.072h7.288c1.656 4.646 6.055 8 11.263 8s9.606-3.354 11.263-8h20.737v1.488c-10.514 3.486-16.085 10.678-18.391 14.512h-22.223c-10.691 0-19.387 8.697-19.387 19.387v.613h-63.042c-2.734 0-4.957-2.224-4.957-4.957zm161.051 17.098c-.598-.162-1.219-.186-1.836-.062l-59.297 11.859-69.832-11.026c-1.207-.191-2.086-1.219-2.086-2.441 0-1.363 1.109-2.471 2.473-2.471h85.527c.508 0 1.012-.098 1.484-.285l20-8c2.051-.822 3.051-3.148 2.23-5.201s-3.164-3.039-5.199-2.229l-19.285 7.715h-39.23v-.613c0-6.279 5.109-11.387 11.387-11.387h24.613c1.617 0 3.082-.998 3.703-2.49.289-.695 7.379-17.031 31.73-13.551 11.527 1.646 17.258 3.939 22.801 6.158 4.998 1.999 9.767 3.897 17.766 4.972v36.401zm54.949 15.859h-20v-52h20z"/><path d="m248.213 215.98c2.362 0 4.277-1.915 4.277-4.276 0-2.362-1.915-4.277-4.277-4.277s-4.276 1.915-4.276 4.277c-.001 2.361 1.914 4.276 4.276 4.276z"/></g></svg>