<svg id="liquidation" enable-background="new 0 0 300 300" height="512" viewBox="0 0 300 300" width="512" xmlns="http://www.w3.org/2000/svg"><g><circle cx="48" cy="249.956" r="4"/><path d="m56.484 189.472c-1.562-1.562-4.094-1.562-5.656 0l-2.828 2.828-2.828-2.828c-1.562-1.562-4.094-1.562-5.656 0s-1.562 4.094 0 5.656l2.828 2.828-2.828 2.828c-1.562 1.562-1.562 4.094 0 5.656.781.781 1.805 1.172 2.828 1.172s2.047-.391 2.828-1.172l2.828-2.828 2.828 2.828c.781.781 1.805 1.172 2.828 1.172s2.047-.391 2.828-1.172c1.562-1.562 1.562-4.094 0-5.656l-2.828-2.828 2.828-2.828c1.563-1.563 1.563-4.094 0-5.656z"/><path d="m256 89.956c-6.617 0-12 5.383-12 12s5.383 12 12 12 12-5.383 12-12-5.383-12-12-12zm0 16c-2.207 0-4-1.795-4-4s1.793-4 4-4 4 1.795 4 4-1.793 4-4 4z"/><path d="m148 89.956c-33.086 0-60 26.916-60 60s26.914 60 60 60 60-26.916 60-60-26.914-60-60-60zm0 112c-28.672 0-52-23.326-52-52s23.328-52 52-52 52 23.326 52 52-23.328 52-52 52z"/><path d="m176 125.956c-6.617 0-12 5.383-12 12 0 5.208 3.354 9.606 8 11.263v6.417l-20 11.427v-33.844c4.646-1.656 8-6.055 8-11.263 0-6.617-5.383-12-12-12s-12 5.383-12 12c0 5.208 3.354 9.606 8 11.263v33.844l-20-11.427v-6.417c4.646-1.656 8-6.055 8-11.263 0-6.617-5.383-12-12-12s-12 5.383-12 12c0 5.208 3.354 9.606 8 11.263v8.737c0 1.436.77 2.762 2.016 3.473l25.984 14.848v13.679c0 2.209 1.789 4 4 4s4-1.791 4-4v-13.679l25.984-14.848c1.246-.711 2.016-2.037 2.016-3.473v-8.737c4.646-1.656 8-6.055 8-11.263 0-6.617-5.383-12-12-12zm-56 8c2.207 0 4 1.795 4 4s-1.793 4-4 4-4-1.795-4-4 1.793-4 4-4zm28-16c2.207 0 4 1.795 4 4s-1.793 4-4 4-4-1.795-4-4 1.793-4 4-4zm28 24c-2.207 0-4-1.795-4-4s1.793-4 4-4 4 1.795 4 4-1.793 4-4 4z"/><path d="m246.398 134.757c-1.762-1.33-4.273-.967-5.598.799-1.328 1.768-.969 4.275.801 5.6l6.399 4.801h-32c-2.211 0-4 1.791-4 4s1.789 4 4 4h32l-6.399 4.801c-1.77 1.324-2.129 3.832-.801 5.6.785 1.047 1.984 1.6 3.203 1.6.836 0 1.676-.26 2.395-.801l16-12c1.008-.754 1.602-1.939 1.602-3.199s-.594-2.445-1.602-3.199z"/><path d="m51.996 165.956c1.219 0 2.418-.553 3.203-1.6 1.328-1.768.969-4.275-.801-5.6l-6.398-4.8h32c2.211 0 4-1.791 4-4s-1.789-4-4-4h-32l6.399-4.801c1.77-1.324 2.129-3.832.801-5.6-1.328-1.77-3.832-2.133-5.598-.799l-16 12c-1.008.754-1.602 1.939-1.602 3.199s.594 2.445 1.602 3.199l16 12c.718.542 1.558.802 2.394.802z"/><path d="m156.801 243.556-4.801 6.401v-32.001c0-2.209-1.789-4-4-4s-4 1.791-4 4v32.001l-4.801-6.401c-1.324-1.766-3.832-2.133-5.598-.799-1.77 1.324-2.129 3.832-.801 5.6l12 16c.754 1.008 1.941 1.6 3.199 1.6s2.445-.592 3.199-1.6l12-16c1.328-1.768.969-4.275-.801-5.6-1.764-1.328-4.272-.965-5.596.799z"/><path d="m139.199 56.356 4.801-6.401v32.001c0 2.209 1.789 4 4 4s4-1.791 4-4v-32.001l4.801 6.401c.785 1.047 1.984 1.6 3.203 1.6.836 0 1.676-.26 2.395-.801 1.77-1.324 2.129-3.832.801-5.6l-12-16c-1.508-2.016-4.891-2.016-6.398 0l-12 16c-1.328 1.768-.969 4.275.801 5.6 1.768 1.334 4.276.967 5.596-.799z"/><path d="m223.801 205.394c-2.188.312-3.707 2.338-3.395 4.525l1.131 7.919-22.627-22.626c-1.562-1.562-4.094-1.562-5.656 0s-1.562 4.094 0 5.656l22.628 22.626-7.917-1.13c-2.18-.309-4.215 1.209-4.527 3.393-.312 2.188 1.207 4.213 3.395 4.525l19.797 2.828c.191.027.379.041.566.041 1.055 0 2.074-.416 2.828-1.172.891-.891 1.309-2.146 1.133-3.395l-2.828-19.799c-.313-2.184-2.352-3.71-4.528-3.391z"/><path d="m71.629 94.56c.188 0 .379-.014.57-.041 2.188-.312 3.707-2.338 3.395-4.525l-1.131-7.919 22.627 22.625c.781.781 1.805 1.172 2.828 1.172s2.047-.391 2.828-1.172c1.562-1.562 1.562-4.094 0-5.656l-22.628-22.626 7.917 1.13c2.207.316 4.215-1.207 4.527-3.393.312-2.188-1.207-4.213-3.395-4.525l-19.797-2.828c-1.27-.178-2.508.242-3.395 1.131-.891.891-1.309 2.146-1.133 3.395l2.828 19.799c.287 1.993 1.998 3.433 3.959 3.433z"/><path d="m97.09 195.212-22.627 22.626 1.131-7.919c.312-2.188-1.207-4.213-3.395-4.525-2.191-.301-4.215 1.209-4.527 3.393l-2.828 19.799c-.176 1.248.242 2.504 1.133 3.395.754.756 1.773 1.172 2.828 1.172.188 0 .375-.014.566-.041l19.797-2.828c2.188-.312 3.707-2.338 3.395-4.525-.313-2.186-2.34-3.719-4.527-3.393l-7.917 1.13 22.628-22.626c1.562-1.562 1.562-4.094 0-5.656s-4.095-1.565-5.657-.002z"/><path d="m196.082 105.872c1.023 0 2.047-.391 2.828-1.172l22.627-22.626-1.131 7.919c-.312 2.188 1.207 4.213 3.395 4.525.191.027.383.041.57.041 1.961 0 3.672-1.439 3.957-3.434l2.828-19.799c.176-1.248-.242-2.504-1.133-3.395-.887-.889-2.125-1.311-3.395-1.131l-19.797 2.828c-2.188.312-3.707 2.338-3.395 4.525.312 2.184 2.332 3.691 4.527 3.393l7.917-1.13-22.628 22.626c-1.562 1.562-1.562 4.094 0 5.656.783.783 1.807 1.174 2.83 1.174z"/></g></svg>