<svg id="metadata" enable-background="new 0 0 300 300" height="512" viewBox="0 0 300 300" width="512" xmlns="http://www.w3.org/2000/svg"><g><path d="m206 61.891c6.617 0 12-5.383 12-12s-5.383-12-12-12-12 5.383-12 12 5.383 12 12 12zm0-16c2.207 0 4 1.795 4 4s-1.793 4-4 4-4-1.795-4-4 1.793-4 4-4z"/><path d="m118.397 56.26c2.362 0 4.276-1.915 4.276-4.276s-1.915-4.276-4.276-4.276-4.277 1.915-4.277 4.276 1.915 4.276 4.277 4.276z"/><path d="m49.375 52.938c.781.781 1.805 1.172 2.828 1.172s2.047-.391 2.828-1.172l3.172-3.172 3.172 3.172c.781.781 1.805 1.172 2.828 1.172s2.047-.391 2.828-1.172c1.562-1.562 1.562-4.094 0-5.656l-3.172-3.172 3.172-3.172c1.562-1.562 1.562-4.094 0-5.656s-4.094-1.562-5.656 0l-3.172 3.172-3.172-3.172c-1.562-1.562-4.094-1.562-5.656 0s-1.562 4.094 0 5.656l3.172 3.172-3.172 3.172c-1.563 1.562-1.563 4.093 0 5.656z"/><path d="m262 73.891h-224c-2.211 0-4 1.791-4 4v149.67c0 3.49 2.84 6.33 6.328 6.33h77.672v24h-8c-2.211 0-4 1.791-4 4s1.789 4 4 4h80c2.211 0 4-1.791 4-4s-1.789-4-4-4h-8v-24h77.672c3.488 0 6.328-2.84 6.328-6.33v-149.67c0-2.209-1.789-4-4-4zm-4 8v116h-216v-116zm-84 176h-48v-24h48zm-132-32v-20h216v20z"/><path d="m58 169.891h36c2.211 0 4-1.791 4-4s-1.789-4-4-4h-36c-2.211 0-4 1.791-4 4s1.789 4 4 4z"/><path d="m54 177.891c0 2.209 1.789 4 4 4h56c2.211 0 4-1.791 4-4s-1.789-4-4-4h-56c-2.211 0-4 1.791-4 4z"/><path d="m230 185.891h12c2.211 0 4-1.791 4-4v-76c0-2.209-1.789-4-4-4h-12c-2.211 0-4 1.791-4 4v76c0 2.209 1.789 4 4 4zm4-76h4v68h-4z"/><path d="m206 185.891h12c2.211 0 4-1.791 4-4v-56c0-2.209-1.789-4-4-4h-12c-2.211 0-4 1.791-4 4v56c0 2.209 1.789 4 4 4zm4-56h4v48h-4z"/><path d="m194 157.891h-12c-2.211 0-4 1.791-4 4v20c0 2.209 1.789 4 4 4h12c2.211 0 4-1.791 4-4v-20c0-2.209-1.789-4-4-4zm-4 20h-4v-12h4z"/><path d="m158 185.891h12c2.211 0 4-1.791 4-4v-36c0-2.209-1.789-4-4-4h-12c-2.211 0-4 1.791-4 4v36c0 2.209 1.789 4 4 4zm4-36h4v28h-4z"/><path d="m53.738 149.699c0 2.209 1.789 4 4 4h48c2.211 0 4-1.791 4-4 0-10.792-6.147-20.16-15.115-24.833 4.315-3.671 7.115-9.072 7.115-15.167 0-11.027-8.973-20-20-20s-20 8.973-20 20c0 6.096 2.8 11.496 7.115 15.167-8.967 4.673-15.115 14.041-15.115 24.833zm16-40c0-6.617 5.383-12 12-12s12 5.383 12 12-5.383 12-12 12-12-5.383-12-12zm12 20c9.66 0 17.738 6.883 19.598 16h-39.195c1.859-9.117 9.937-16 19.597-16z"/><path d="m134 189.891c2.211 0 4-1.791 4-4v-92c0-2.209-1.789-4-4-4s-4 1.791-4 4v92c0 2.209 1.789 4 4 4z"/><path d="m158 101.891h20c2.211 0 4-1.791 4-4s-1.789-4-4-4h-20c-2.211 0-4 1.791-4 4s1.789 4 4 4z"/><path d="m158 113.891h36c2.211 0 4-1.791 4-4s-1.789-4-4-4h-36c-2.211 0-4 1.791-4 4s1.789 4 4 4z"/><path d="m158 125.891h8c2.211 0 4-1.791 4-4s-1.789-4-4-4h-8c-2.211 0-4 1.791-4 4s1.789 4 4 4z"/></g></svg>