<svg id="sharing-economy" enable-background="new 0 0 300 300" height="512" viewBox="0 0 300 300" width="512" xmlns="http://www.w3.org/2000/svg"><g><path d="m150.262 113.841c-26.469 0-48 21.533-48 48s21.531 48 48 48 48-21.533 48-48-21.532-48-48-48zm0 88c-22.055 0-40-17.943-40-40s17.945-40 40-40 40 17.943 40 40-17.946 40-40 40z"/><path d="m187.93 245.802c-11.875 5.334-24.547 8.039-37.668 8.039-11.192 0-22.081-2.052-32.437-5.96l6.32-2.338c2.074-.768 3.133-3.068 2.363-5.141-.766-2.072-3.066-3.127-5.137-2.363l-15.008 5.553c-2.074.768-3.133 3.068-2.363 5.141l5.551 15.006c.594 1.613 2.125 2.613 3.75 2.613.461 0 .93-.082 1.387-.25 2.074-.768 3.133-3.068 2.363-5.141l-2.049-5.542c11.259 4.245 23.105 6.423 35.26 6.423 14.258 0 28.035-2.941 40.949-8.742 2.012-.904 2.914-3.271 2.008-5.287-.903-2.019-3.266-2.927-5.289-2.011z"/><path d="m197.816 83.067c26.029 15.747 42.239 42.525 44.231 72.502l-4.516-3.676c-1.703-1.396-4.234-1.133-5.625.576-1.395 1.713-1.137 4.232.578 5.627l12.406 10.1c.742.605 1.633.898 2.52.898 1.164 0 2.316-.504 3.105-1.475l10.102-12.408c1.395-1.713 1.137-4.232-.578-5.627-1.707-1.396-4.234-1.133-5.625.576l-4.354 5.348c-2.021-32.78-19.676-62.087-48.103-79.285-1.898-1.145-4.352-.539-5.492 1.352-1.145 1.891-.539 4.35 1.351 5.492z"/><path d="m156.262 145.841h-2v-4c0-2.209-1.789-4-4-4s-4 1.791-4 4v4h-8c-2.211 0-4 1.791-4 4v24c0 2.209 1.789 4 4 4h8v4c0 2.209 1.789 4 4 4s4-1.791 4-4v-4h2c5.516 0 10-4.486 10-10 0-2.25-.746-4.328-2.004-6 1.258-1.672 2.004-3.75 2.004-6 0-5.514-4.485-10-10-10zm0 24h-14v-4h14c1.102 0 2 .896 2 2s-.899 2-2 2zm0-12h-14v-4h14c1.102 0 2 .896 2 2s-.899 2-2 2z"/><path d="m122 93.649c0 2.209 1.789 4 4 4h48c2.211 0 4-1.791 4-4 0-10.792-6.147-20.16-15.115-24.833 4.315-3.671 7.115-9.071 7.115-15.167 0-11.027-8.973-20-20-20s-20 8.973-20 20c0 6.096 2.8 11.496 7.115 15.167-8.968 4.673-15.115 14.041-15.115 24.833zm16-40c0-6.617 5.383-12 12-12s12 5.383 12 12-5.383 12-12 12-12-5.382-12-12zm12 20c9.66 0 17.738 6.883 19.598 16h-39.195c1.859-9.117 9.937-16 19.597-16z"/><path d="m78.885 216.817c4.315-3.672 7.115-9.072 7.115-15.168 0-11.027-8.973-20-20-20s-20 8.973-20 20c0 6.096 2.8 11.496 7.115 15.167-8.968 4.673-15.115 14.041-15.115 24.833 0 2.209 1.789 4 4 4h48c2.211 0 4-1.791 4-4 0-10.792-6.147-20.16-15.115-24.832zm-24.885-15.168c0-6.617 5.383-12 12-12s12 5.383 12 12-5.383 12-12 12-12-5.382-12-12zm-7.598 36c1.859-9.117 9.938-16 19.598-16s17.738 6.883 19.598 16z"/><path d="m246.885 216.817c4.315-3.671 7.115-9.072 7.115-15.167 0-11.027-8.973-20-20-20s-20 8.973-20 20c0 6.096 2.8 11.496 7.115 15.167-8.968 4.672-15.115 14.04-15.115 24.832 0 2.209 1.789 4 4 4h48c2.211 0 4-1.791 4-4 0-10.792-6.147-20.16-15.115-24.832zm-24.885-15.168c0-6.617 5.383-12 12-12s12 5.383 12 12-5.383 12-12 12-12-5.382-12-12zm-7.598 36c1.859-9.117 9.938-16 19.598-16s17.738 6.883 19.598 16z"/><circle cx="46.262" cy="85.841" r="4"/><path d="m61.777 66.325c.781.781 1.805 1.172 2.828 1.172s2.047-.391 2.828-1.172l2.828-2.828 2.828 2.828c.781.781 1.805 1.172 2.828 1.172s2.047-.391 2.828-1.172c1.562-1.562 1.562-4.094 0-5.656l-2.828-2.828 2.828-2.828c1.562-1.562 1.562-4.094 0-5.656s-4.094-1.562-5.656 0l-2.828 2.828-2.828-2.828c-1.562-1.562-4.094-1.562-5.656 0s-1.562 4.094 0 5.656l2.828 2.828-2.828 2.828c-1.562 1.562-1.562 4.094 0 5.656z"/><path d="m90.262 77.841h5.814c-28.717 18.529-45.814 49.713-45.814 84 0 2.209 1.789 4 4 4s4-1.791 4-4c0-32.283 16.448-61.611 44-78.495v6.495c0 2.209 1.789 4 4 4s4-1.791 4-4v-16c0-2.209-1.789-4-4-4h-16c-2.211 0-4 1.791-4 4s1.789 4 4 4z"/></g></svg>