<svg id="user-female" enable-background="new 0 0 300 300" height="512" viewBox="0 0 300 300" width="512" xmlns="http://www.w3.org/2000/svg"><g><path d="m194 166.828c4.414 0 8.49-2.033 11.186-5.58.918-1.209 1.072-2.836.398-4.197-.676-1.361-2.064-2.223-3.584-2.223h-16c-1.52 0-2.908.861-3.584 2.223-.674 1.361-.52 2.988.398 4.197 2.696 3.547 6.772 5.58 11.186 5.58z"/><circle cx="210" cy="138.828" r="4"/><circle cx="178" cy="138.828" r="4"/><path d="m163.516 55.312c.781.781 1.805 1.172 2.828 1.172s2.047-.391 2.828-1.172l2.828-2.828 2.828 2.828c.781.781 1.805 1.172 2.828 1.172s2.047-.391 2.828-1.172c1.562-1.562 1.562-4.094 0-5.656l-2.828-2.828 2.828-2.828c1.562-1.562 1.562-4.094 0-5.656s-4.094-1.562-5.656 0l-2.828 2.828-2.828-2.828c-1.562-1.562-4.094-1.562-5.656 0s-1.562 4.094 0 5.656l2.828 2.828-2.828 2.828c-1.563 1.563-1.563 4.094 0 5.656z"/><path d="m218 65.357c2.501 0 4.53-2.028 4.53-4.529 0-2.502-2.028-4.53-4.53-4.53s-4.53 2.028-4.53 4.53 2.029 4.529 4.53 4.529z"/><path d="m150 81.357c2.501 0 4.53-2.028 4.53-4.529 0-2.502-2.028-4.53-4.53-4.53s-4.53 2.028-4.53 4.53 2.029 4.529 4.53 4.529z"/><path d="m78 206.828c-6.617 0-12 5.383-12 12s5.383 12 12 12 12-5.383 12-12-5.383-12-12-12zm0 16c-2.205 0-4-1.795-4-4s1.795-4 4-4 4 1.795 4 4-1.795 4-4 4z"/><path d="m274 254.828h-8v-24.963c0-12.661-6.086-23.9-15.457-31.037h3.457c2.209 0 4-1.791 4-4v-76.27c0-19.701-15.051-35.73-33.549-35.73h-28.904c-18.498 0-33.547 16.029-33.547 35.73v.27 30 21.982c0 8.66 3.719 16.411 9.545 21.554-10.205 3.627-17.545 13.354-17.545 24.786v25.678h-18.097l-8.063-60.527c-.264-1.988-1.959-3.473-3.965-3.473h-37.809l3.878-9.047c23.343-4.685 40.056-24.926 40.056-48.953 0-27.57-22.43-50-50-50s-50 22.43-50 50c0 24.027 16.713 44.268 40.057 48.953l3.878 9.047h-47.935c-1.152 0-2.25.498-3.01 1.365s-1.107 2.02-.955 3.162l10.125 76c.264 1.988 1.959 3.473 3.965 3.473h237.875c2.209 0 4-1.791 4-4s-1.791-4-4-4zm-236-134c0-23.158 18.842-42 42-42s42 18.842 42 42c0 20.809-14.93 38.238-35.498 41.441-1.361.213-2.518 1.111-3.061 2.377l-3.441 8.028-3.441-8.027c-.543-1.266-1.699-2.164-3.061-2.377-20.568-3.204-35.498-20.633-35.498-41.442zm157.547-30h28.904c14.088 0 25.549 12.439 25.549 27.73v72.27h-36v-10.421c14.038-5.001 24-17.257 24-31.579v-30c0-2.209-1.791-4-4-4h-40v-4c0-2.209-1.791-4-4-4s-4 1.791-4 4v4h-15.741c1.687-13.529 12.37-24 25.288-24zm-5.547 108c2.209 0 4-1.791 4-4v-12.466c1.959.28 3.954.466 6 .466s4.041-.186 6-.466v12.466c0 2.209 1.791 4 4 4h2.232 1.565c-.981 6.767-6.764 12-13.798 12s-12.817-5.233-13.798-12zm-20-76h60v26c0 14.336-13.457 26-30 26s-30-11.664-30-26zm0 46.792c4.136 4.767 9.641 8.522 16 10.787v10.16c-9.002-1.281-16-9.603-16-19.757zm-8 47.53c0-9.347 7.06-16.993 16.113-18.099 1.118 11.09 10.507 19.777 21.887 19.777 11.456 0 20.884-8.804 21.899-20h5.064c17.113 0 31.037 13.924 31.037 31.037v24.963h-20v-20c0-2.209-1.791-4-4-4s-4 1.791-4 4v20h-48.526l3.854-5.781c.818-1.227.895-2.805.199-4.105-.697-1.301-2.053-2.113-3.527-2.113v-8c0-2.209-1.791-4-4-4s-4 1.791-4 4v8h-12zm-122.373 37.678-9.059-68h89.805l9.059 68zm97.342-4h37.556l-2.666 4h-34.357z"/><path d="m62.211 114.406 16 8c.562.281 1.176.422 1.789.422s1.227-.141 1.789-.422l16-8c1.08-.541 1.859-1.541 2.117-2.721.26-1.18-.027-2.412-.783-3.355l-16-20c-1.516-1.898-4.73-1.898-6.246 0l-16 20c-.756.943-1.043 2.176-.783 3.355.258 1.18 1.037 2.18 2.117 2.721zm17.789-17.176 9.785 12.232-9.785 4.893-9.785-4.893z"/><path d="m80 154.828c1.436 0 2.762-.77 3.473-2.016l16-28c.875-1.529.645-3.453-.566-4.732-1.213-1.281-3.117-1.621-4.695-.83l-14.212 7.105-14.211-7.105c-1.578-.787-3.484-.451-4.695.83-1.211 1.279-1.441 3.203-.566 4.732l16 28c.71 1.247 2.036 2.016 3.472 2.016zm-1.789-20.422c1.125.562 2.453.562 3.578 0l4.184-2.092-5.973 10.452-5.973-10.451z"/></g></svg>