<svg id="verify-transaction" enable-background="new 0 0 300 300" height="512" viewBox="0 0 300 300" width="512" xmlns="http://www.w3.org/2000/svg"><g><path d="m168.827 105.172c-.75-.75-1.768-1.172-2.828-1.172h-48c-2.209 0-4 1.791-4 4v88c0 2.209 1.791 4 4 4h64c2.209 0 4-1.791 4-4v-72c0-1.061-.422-2.078-1.172-2.828zm1.172 12.484 2.344 2.344h-2.344zm-48 74.344v-80h40v12c0 2.209 1.791 4 4 4h12v64z"/><path d="m155.999 136h-2v-4c0-2.209-1.791-4-4-4s-4 1.791-4 4v4h-8c-2.209 0-4 1.791-4 4v24c0 2.209 1.791 4 4 4h8v4c0 2.209 1.791 4 4 4s4-1.791 4-4v-4h2c5.514 0 10-4.486 10-10 0-2.25-.746-4.328-2.004-6 1.258-1.672 2.004-3.75 2.004-6 0-5.514-4.486-10-10-10zm0 24h-14v-4h14c1.104 0 2 .896 2 2s-.896 2-2 2zm0-12h-14v-4h14c1.104 0 2 .896 2 2s-.896 2-2 2z"/><path d="m217.515 92.484c.781.781 1.805 1.172 2.828 1.172s2.047-.391 2.828-1.172l2.828-2.828 2.828 2.828c.781.781 1.805 1.172 2.828 1.172s2.047-.391 2.828-1.172c1.562-1.562 1.562-4.094 0-5.656l-2.828-2.828 2.828-2.828c1.562-1.562 1.562-4.094 0-5.656s-4.094-1.562-5.656 0l-2.828 2.828-2.828-2.828c-1.562-1.562-4.094-1.562-5.656 0s-1.562 4.094 0 5.656l2.828 2.828-2.828 2.828c-1.563 1.563-1.563 4.094 0 5.656z"/><path d="m68.212 224.599c-2.362 0-4.276 1.915-4.276 4.277s1.915 4.276 4.276 4.276 4.277-1.915 4.277-4.276c-.001-2.363-1.915-4.277-4.277-4.277z"/><path d="m93.999 240c-6.617 0-12 5.383-12 12s5.383 12 12 12 12-5.383 12-12-5.383-12-12-12zm0 16c-2.205 0-4-1.795-4-4s1.795-4 4-4 4 1.795 4 4-1.795 4-4 4z"/><path d="m146.062 79.69c-.009.108-.062.2-.062.31v16c0 2.209 1.791 4 4 4s4-1.791 4-4v-16c0-.11-.054-.202-.062-.31 13.575-1.924 24.061-13.59 24.061-27.69 0-15.439-12.561-28-28-28s-28 12.561-28 28c0 14.1 10.486 25.766 24.063 27.69zm3.937-47.69c11.027 0 20 8.973 20 20s-8.973 20-20 20-20-8.973-20-20 8.973-20 20-20z"/><path d="m140.21 59.578 8 4c.574.287 1.186.422 1.785.422 1.469 0 2.881-.809 3.582-2.211l8-16c.988-1.977.188-4.379-1.789-5.367-1.98-.988-4.381-.186-5.367 1.789l-6.211 12.422-4.422-2.211c-1.982-.988-4.379-.188-5.367 1.789s-.187 4.379 1.789 5.367z"/><path d="m265.743 148.227c-2.08-15.297-16.229-26.045-31.518-23.971-12.65 1.72-22.169 11.695-23.917 23.744h-16.31c-2.209 0-4 1.791-4 4s1.791 4 4 4h16.297c2.008 13.907 13.981 24.002 27.687 24.002 1.25 0 2.518-.084 3.789-.258 15.299-2.08 26.052-16.221 23.972-31.517zm-25.048 23.591c-10.928 1.467-21.027-6.195-22.514-17.123-1.484-10.926 6.197-21.025 17.123-22.514.91-.123 1.812-.184 2.707-.184 9.842 0 18.443 7.289 19.807 17.307 1.482 10.926-6.198 21.026-17.123 22.514z"/><path d="m247.788 140.422c-1.979-.992-4.381-.186-5.367 1.789l-6.211 12.422-4.422-2.211c-1.979-.994-4.379-.186-5.367 1.789-.988 1.977-.188 4.379 1.789 5.367l8 4c.574.287 1.186.422 1.785.422 1.469 0 2.881-.809 3.582-2.211l8-16c.989-1.977.188-4.379-1.789-5.367z"/><path d="m71.788 140.422c-1.984-.992-4.381-.186-5.367 1.789l-6.211 12.422-4.422-2.211c-1.979-.994-4.379-.186-5.367 1.789-.988 1.977-.188 4.379 1.789 5.367l8 4c.574.287 1.186.422 1.785.422 1.469 0 2.881-.809 3.582-2.211l8-16c.989-1.977.188-4.379-1.789-5.367z"/><path d="m153.999 220.319v-12.319c0-2.209-1.791-4-4-4s-4 1.791-4 4v12.319c-13.546 1.951-24 13.603-24 27.681 0 15.439 12.561 28 28 28s28-12.561 28-28c0-14.078-10.453-25.729-24-27.681zm-4 47.681c-11.027 0-20-8.973-20-20s8.973-20 20-20 20 8.973 20 20-8.972 20-20 20z"/><path d="m159.788 236.422c-1.98-.992-4.381-.186-5.367 1.789l-6.211 12.422-4.422-2.211c-1.982-.994-4.379-.186-5.367 1.789-.988 1.977-.188 4.379 1.789 5.367l8 4c.574.287 1.186.422 1.785.422 1.469 0 2.881-.809 3.582-2.211l8-16c.989-1.977.188-4.379-1.789-5.367z"/><path d="m105.999 148h-16.319c-1.951-13.546-13.603-24-27.681-24-15.439 0-28 12.561-28 28s12.561 28 28 28c14.078 0 25.729-10.454 27.681-24h16.319c2.209 0 4-1.791 4-4s-1.791-4-4-4zm-44 24c-11.027 0-20-8.973-20-20s8.973-20 20-20 20 8.973 20 20-8.972 20-20 20z"/></g></svg>