<svg width="1577" height="92" xmlns="http://www.w3.org/2000/svg" xmlns:xlink="http://www.w3.org/1999/xlink" xml:space="preserve" overflow="hidden"><defs><clipPath id="clip0"><rect x="1411" y="2383" width="1577" height="92"/></clipPath></defs><g clip-path="url(#clip0)" transform="translate(-1411 -2383)"><path d="M1418.5 2470.5 1491.93 2389.5 2905.07 2389.5 2978.5 2470.5Z" fill="#F2F2F2" fill-rule="evenodd" fill-opacity="0.490196"/><path d="M2978.5 2472.79 2941.83 2472.79 2941.83 2471.26 2978.5 2471.26ZM2978.5 2469.74 2941.83 2469.74 2941.83 2468.21 2978.5 2468.21ZM2928.08 2472.79 2923.5 2472.79 2923.5 2471.26 2928.08 2471.26ZM2928.08 2469.74 2923.5 2469.74 2923.5 2468.21 2928.08 2468.21ZM2909.75 2472.79 2905.17 2472.79 2905.17 2471.26 2909.75 2471.26ZM2909.75 2469.74 2905.17 2469.74 2905.17 2468.21 2909.75 2468.21ZM2891.42 2472.79 2854.75 2472.79 2854.75 2471.26 2891.42 2471.26ZM2891.42 2469.74 2854.75 2469.74 2854.75 2468.21 2891.42 2468.21ZM2841 2472.79 2836.42 2472.79 2836.42 2471.26 2841 2471.26ZM2841 2469.74 2836.42 2469.74 2836.42 2468.21 2841 2468.21ZM2822.67 2472.79 2818.08 2472.79 2818.08 2471.26 2822.67 2471.26ZM2822.67 2469.74 2818.08 2469.74 2818.08 2468.21 2822.67 2468.21ZM2804.33 2472.79 2767.67 2472.79 2767.67 2471.26 2804.33 2471.26ZM2804.33 2469.74 2767.67 2469.74 2767.67 2468.21 2804.33 2468.21ZM2753.92 2472.79 2749.33 2472.79 2749.33 2471.26 2753.92 2471.26ZM2753.92 2469.74 2749.33 2469.74 2749.33 2468.21 2753.92 2468.21ZM2735.58 2472.79 2731 2472.79 2731 2471.26 2735.58 2471.26ZM2735.58 2469.74 2731 2469.74 2731 2468.21 2735.58 2468.21ZM2717.25 2472.79 2680.58 2472.79 2680.58 2471.26 2717.25 2471.26ZM2717.25 2469.74 2680.58 2469.74 2680.58 2468.21 2717.25 2468.21ZM2666.83 2472.79 2662.25 2472.79 2662.25 2471.26 2666.83 2471.26ZM2666.83 2469.74 2662.25 2469.74 2662.25 2468.21 2666.83 2468.21ZM2648.5 2472.79 2643.92 2472.79 2643.92 2471.26 2648.5 2471.26ZM2648.5 2469.74 2643.92 2469.74 2643.92 2468.21 2648.5 2468.21ZM2630.17 2472.79 2593.5 2472.79 2593.5 2471.26 2630.17 2471.26ZM2630.17 2469.74 2593.5 2469.74 2593.5 2468.21 2630.17 2468.21ZM2579.75 2472.79 2575.17 2472.79 2575.17 2471.26 2579.75 2471.26ZM2579.75 2469.74 2575.17 2469.74 2575.17 2468.21 2579.75 2468.21ZM2561.42 2472.79 2556.83 2472.79 2556.83 2471.26 2561.42 2471.26ZM2561.42 2469.74 2556.83 2469.74 2556.83 2468.21 2561.42 2468.21ZM2543.08 2472.79 2506.42 2472.79 2506.42 2471.26 2543.08 2471.26ZM2543.08 2469.74 2506.42 2469.74 2506.42 2468.21 2543.08 2468.21ZM2492.67 2472.79 2488.08 2472.79 2488.08 2471.26 2492.67 2471.26ZM2492.67 2469.74 2488.08 2469.74 2488.08 2468.21 2492.67 2468.21ZM2474.33 2472.79 2469.75 2472.79 2469.75 2471.26 2474.33 2471.26ZM2474.33 2469.74 2469.75 2469.74 2469.75 2468.21 2474.33 2468.21ZM2456 2472.79 2419.33 2472.79 2419.33 2471.26 2456 2471.26ZM2456 2469.74 2419.33 2469.74 2419.33 2468.21 2456 2468.21ZM2405.58 2472.79 2401 2472.79 2401 2471.26 2405.58 2471.26ZM2405.58 2469.74 2401 2469.74 2401 2468.21 2405.58 2468.21ZM2387.25 2472.79 2382.67 2472.79 2382.67 2471.26 2387.25 2471.26ZM2387.25 2469.74 2382.67 2469.74 2382.67 2468.21 2387.25 2468.21ZM2368.92 2472.79 2332.25 2472.79 2332.25 2471.26 2368.92 2471.26ZM2368.92 2469.74 2332.25 2469.74 2332.25 2468.21 2368.92 2468.21ZM2318.5 2472.79 2313.92 2472.79 2313.92 2471.26 2318.5 2471.26ZM2318.5 2469.74 2313.92 2469.74 2313.92 2468.21 2318.5 2468.21ZM2300.17 2472.79 2295.58 2472.79 2295.58 2471.26 2300.17 2471.26ZM2300.17 2469.74 2295.58 2469.74 2295.58 2468.21 2300.17 2468.21ZM2281.83 2472.79 2245.17 2472.79 2245.17 2471.26 2281.83 2471.26ZM2281.83 2469.74 2245.17 2469.74 2245.17 2468.21 2281.83 2468.21ZM2231.42 2472.79 2226.83 2472.79 2226.83 2471.26 2231.42 2471.26ZM2231.42 2469.74 2226.83 2469.74 2226.83 2468.21 2231.42 2468.21ZM2213.08 2472.79 2208.5 2472.79 2208.5 2471.26 2213.08 2471.26ZM2213.08 2469.74 2208.5 2469.74 2208.5 2468.21 2213.08 2468.21ZM2194.75 2472.79 2158.08 2472.79 2158.08 2471.26 2194.75 2471.26ZM2194.75 2469.74 2158.08 2469.74 2158.08 2468.21 2194.75 2468.21ZM2144.33 2472.79 2139.75 2472.79 2139.75 2471.26 2144.33 2471.26ZM2144.33 2469.74 2139.75 2469.74 2139.75 2468.21 2144.33 2468.21ZM2126 2472.79 2121.42 2472.79 2121.42 2471.26 2126 2471.26ZM2126 2469.74 2121.42 2469.74 2121.42 2468.21 2126 2468.21ZM2107.67 2472.79 2071 2472.79 2071 2471.26 2107.67 2471.26ZM2107.67 2469.74 2071 2469.74 2071 2468.21 2107.67 2468.21ZM2057.25 2472.79 2052.67 2472.79 2052.67 2471.26 2057.25 2471.26ZM2057.25 2469.74 2052.67 2469.74 2052.67 2468.21 2057.25 2468.21ZM2038.92 2472.79 2034.33 2472.79 2034.33 2471.26 2038.92 2471.26ZM2038.92 2469.74 2034.33 2469.74 2034.33 2468.21 2038.92 2468.21ZM2020.58 2472.79 1983.92 2472.79 1983.92 2471.26 2020.58 2471.26ZM2020.58 2469.74 1983.92 2469.74 1983.92 2468.21 2020.58 2468.21ZM1970.17 2472.79 1965.58 2472.79 1965.58 2471.26 1970.17 2471.26ZM1970.17 2469.74 1965.58 2469.74 1965.58 2468.21 1970.17 2468.21ZM1951.83 2472.79 1947.25 2472.79 1947.25 2471.26 1951.83 2471.26ZM1951.83 2469.74 1947.25 2469.74 1947.25 2468.21 1951.83 2468.21ZM1933.5 2472.79 1896.83 2472.79 1896.83 2471.26 1933.5 2471.26ZM1933.5 2469.74 1896.83 2469.74 1896.83 2468.21 1933.5 2468.21ZM1883.08 2472.79 1878.5 2472.79 1878.5 2471.26 1883.08 2471.26ZM1883.08 2469.74 1878.5 2469.74 1878.5 2468.21 1883.08 2468.21ZM1864.75 2472.79 1860.17 2472.79 1860.17 2471.26 1864.75 2471.26ZM1864.75 2469.74 1860.17 2469.74 1860.17 2468.21 1864.75 2468.21ZM1846.42 2472.79 1809.75 2472.79 1809.75 2471.26 1846.42 2471.26ZM1846.42 2469.74 1809.75 2469.74 1809.75 2468.21 1846.42 2468.21ZM1796 2472.79 1791.42 2472.79 1791.42 2471.26 1796 2471.26ZM1796 2469.74 1791.42 2469.74 1791.42 2468.21 1796 2468.21ZM1777.67 2472.79 1773.08 2472.79 1773.08 2471.26 1777.67 2471.26ZM1777.67 2469.74 1773.08 2469.74 1773.08 2468.21 1777.67 2468.21ZM1759.33 2472.79 1722.67 2472.79 1722.67 2471.26 1759.33 2471.26ZM1759.33 2469.74 1722.67 2469.74 1722.67 2468.21 1759.33 2468.21ZM1708.92 2472.79 1704.33 2472.79 1704.33 2471.26 1708.92 2471.26ZM1708.92 2469.74 1704.33 2469.74 1704.33 2468.21 1708.92 2468.21ZM1690.58 2472.79 1686 2472.79 1686 2471.26 1690.58 2471.26ZM1690.58 2469.74 1686 2469.74 1686 2468.21 1690.58 2468.21ZM1672.25 2472.79 1635.58 2472.79 1635.58 2471.26 1672.25 2471.26ZM1672.25 2469.74 1635.58 2469.74 1635.58 2468.21 1672.25 2468.21ZM1621.83 2472.79 1617.25 2472.79 1617.25 2471.26 1621.83 2471.26ZM1621.83 2469.74 1617.25 2469.74 1617.25 2468.21 1621.83 2468.21ZM1603.5 2472.79 1598.92 2472.79 1598.92 2471.26 1603.5 2471.26ZM1603.5 2469.74 1598.92 2469.74 1598.92 2468.21 1603.5 2468.21ZM1585.17 2472.79 1548.5 2472.79 1548.5 2471.26 1585.17 2471.26ZM1585.17 2469.74 1548.5 2469.74 1548.5 2468.21 1585.17 2468.21ZM1534.75 2472.79 1530.17 2472.79 1530.17 2471.26 1534.75 2471.26ZM1534.75 2469.74 1530.17 2469.74 1530.17 2468.21 1534.75 2468.21ZM1516.42 2472.79 1511.83 2472.79 1511.83 2471.26 1516.42 2471.26ZM1516.42 2469.74 1511.83 2469.74 1511.83 2468.21 1516.42 2468.21ZM1498.08 2472.79 1461.42 2472.79 1461.42 2471.26 1498.08 2471.26ZM1498.08 2469.74 1461.42 2469.74 1461.42 2468.21 1498.08 2468.21ZM1447.67 2472.79 1443.08 2472.79 1443.08 2471.26 1447.67 2471.26ZM1447.67 2469.74 1443.08 2469.74 1443.08 2468.21 1447.67 2468.21ZM1429.33 2472.79 1424.75 2472.79 1424.75 2471.26 1429.33 2471.26ZM1429.33 2469.74 1424.75 2469.74 1424.75 2468.21 1429.33 2468.21ZM1421.84 2463.4 1446.47 2436.24 1447.6 2437.27 1422.97 2464.43ZM1424.1 2465.46 1448.73 2438.29 1449.86 2439.32 1425.24 2466.48ZM1455.7 2426.05 1458.78 2422.66 1459.91 2423.68 1456.83 2427.08ZM1457.97 2428.1 1461.04 2424.71 1462.18 2425.73 1459.1 2429.13ZM1468.02 2412.47 1471.09 2409.07 1472.23 2410.1 1469.15 2413.5ZM1470.28 2414.52 1473.36 2411.13 1474.49 2412.15 1471.41 2415.55ZM1480.33 2398.89 1490.92 2387.21 1513.85 2387.21 1513.85 2388.74 1491.59 2388.74 1481.46 2399.91ZM1482.59 2400.94 1492.27 2390.26 1513.85 2390.26 1513.85 2391.79 1492.95 2391.79 1483.72 2401.96ZM1527.6 2387.21 1532.18 2387.21 1532.18 2388.74 1527.6 2388.74ZM1527.6 2390.26 1532.18 2390.26 1532.18 2391.79 1527.6 2391.79ZM1545.93 2387.21 1550.52 2387.21 1550.52 2388.74 1545.93 2388.74ZM1545.93 2390.26 1550.52 2390.26 1550.52 2391.79 1545.93 2391.79ZM1564.27 2387.21 1600.93 2387.21 1600.93 2388.74 1564.27 2388.74ZM1564.27 2390.26 1600.93 2390.26 1600.93 2391.79 1564.27 2391.79ZM1614.68 2387.21 1619.27 2387.21 1619.27 2388.74 1614.68 2388.74ZM1614.68 2390.26 1619.27 2390.26 1619.27 2391.79 1614.68 2391.79ZM1633.02 2387.21 1637.6 2387.21 1637.6 2388.74 1633.02 2388.74ZM1633.02 2390.26 1637.6 2390.26 1637.6 2391.79 1633.02 2391.79ZM1651.35 2387.21 1688.02 2387.21 1688.02 2388.74 1651.35 2388.74ZM1651.35 2390.26 1688.02 2390.26 1688.02 2391.79 1651.35 2391.79ZM1701.77 2387.21 1706.35 2387.21 1706.35 2388.74 1701.77 2388.74ZM1701.77 2390.26 1706.35 2390.26 1706.35 2391.79 1701.77 2391.79ZM1720.1 2387.21 1724.68 2387.21 1724.68 2388.74 1720.1 2388.74ZM1720.1 2390.26 1724.68 2390.26 1724.68 2391.79 1720.1 2391.79ZM1738.43 2387.21 1775.1 2387.21 1775.1 2388.74 1738.43 2388.74ZM1738.43 2390.26 1775.1 2390.26 1775.1 2391.79 1738.43 2391.79ZM1788.85 2387.21 1793.43 2387.21 1793.43 2388.74 1788.85 2388.74ZM1788.85 2390.26 1793.43 2390.26 1793.43 2391.79 1788.85 2391.79ZM1807.18 2387.21 1811.77 2387.21 1811.77 2388.74 1807.18 2388.74ZM1807.18 2390.26 1811.77 2390.26 1811.77 2391.79 1807.18 2391.79ZM1825.52 2387.21 1862.18 2387.21 1862.18 2388.74 1825.52 2388.74ZM1825.52 2390.26 1862.18 2390.26 1862.18 2391.79 1825.52 2391.79ZM1875.93 2387.21 1880.52 2387.21 1880.52 2388.74 1875.93 2388.74ZM1875.93 2390.26 1880.52 2390.26 1880.52 2391.79 1875.93 2391.79ZM1894.27 2387.21 1898.85 2387.21 1898.85 2388.74 1894.27 2388.74ZM1894.27 2390.26 1898.85 2390.26 1898.85 2391.79 1894.27 2391.79ZM1912.6 2387.21 1949.27 2387.21 1949.27 2388.74 1912.6 2388.74ZM1912.6 2390.26 1949.27 2390.26 1949.27 2391.79 1912.6 2391.79ZM1963.02 2387.21 1967.6 2387.21 1967.6 2388.74 1963.02 2388.74ZM1963.02 2390.26 1967.6 2390.26 1967.6 2391.79 1963.02 2391.79ZM1981.35 2387.21 1985.93 2387.21 1985.93 2388.74 1981.35 2388.74ZM1981.35 2390.26 1985.93 2390.26 1985.93 2391.79 1981.35 2391.79ZM1999.68 2387.21 2036.35 2387.21 2036.35 2388.74 1999.68 2388.74ZM1999.68 2390.26 2036.35 2390.26 2036.35 2391.79 1999.68 2391.79ZM2050.1 2387.21 2054.68 2387.21 2054.68 2388.74 2050.1 2388.74ZM2050.1 2390.26 2054.68 2390.26 2054.68 2391.79 2050.1 2391.79ZM2068.43 2387.21 2073.02 2387.21 2073.02 2388.74 2068.43 2388.74ZM2068.43 2390.26 2073.02 2390.26 2073.02 2391.79 2068.43 2391.79ZM2086.77 2387.21 2123.43 2387.21 2123.43 2388.74 2086.77 2388.74ZM2086.77 2390.26 2123.43 2390.26 2123.43 2391.79 2086.77 2391.79ZM2137.18 2387.21 2141.77 2387.21 2141.77 2388.74 2137.18 2388.74ZM2137.18 2390.26 2141.77 2390.26 2141.77 2391.79 2137.18 2391.79ZM2155.52 2387.21 2160.1 2387.21 2160.1 2388.74 2155.52 2388.74ZM2155.52 2390.26 2160.1 2390.26 2160.1 2391.79 2155.52 2391.79ZM2173.85 2387.21 2210.52 2387.21 2210.52 2388.74 2173.85 2388.74ZM2173.85 2390.26 2210.52 2390.26 2210.52 2391.79 2173.85 2391.79ZM2224.27 2387.21 2228.85 2387.21 2228.85 2388.74 2224.27 2388.74ZM2224.27 2390.26 2228.85 2390.26 2228.85 2391.79 2224.27 2391.79ZM2242.6 2387.21 2247.18 2387.21 2247.18 2388.74 2242.6 2388.74ZM2242.6 2390.26 2247.18 2390.26 2247.18 2391.79 2242.6 2391.79ZM2260.93 2387.21 2297.6 2387.21 2297.6 2388.74 2260.93 2388.74ZM2260.93 2390.26 2297.6 2390.26 2297.6 2391.79 2260.93 2391.79ZM2311.35 2387.21 2315.93 2387.21 2315.93 2388.74 2311.35 2388.74ZM2311.35 2390.26 2315.93 2390.26 2315.93 2391.79 2311.35 2391.79ZM2329.68 2387.21 2334.27 2387.21 2334.27 2388.74 2329.68 2388.74ZM2329.68 2390.26 2334.27 2390.26 2334.27 2391.79 2329.68 2391.79ZM2348.02 2387.21 2384.68 2387.21 2384.68 2388.74 2348.02 2388.74ZM2348.02 2390.26 2384.68 2390.26 2384.68 2391.79 2348.02 2391.79ZM2398.43 2387.21 2403.02 2387.21 2403.02 2388.74 2398.43 2388.74ZM2398.43 2390.26 2403.02 2390.26 2403.02 2391.79 2398.43 2391.79ZM2416.77 2387.21 2421.35 2387.21 2421.35 2388.74 2416.77 2388.74ZM2416.77 2390.26 2421.35 2390.26 2421.35 2391.79 2416.77 2391.79ZM2435.1 2387.21 2471.77 2387.21 2471.77 2388.74 2435.1 2388.74ZM2435.1 2390.26 2471.77 2390.26 2471.77 2391.79 2435.1 2391.79ZM2485.52 2387.21 2490.1 2387.21 2490.1 2388.74 2485.52 2388.74ZM2485.52 2390.26 2490.1 2390.26 2490.1 2391.79 2485.52 2391.79ZM2503.85 2387.21 2508.43 2387.21 2508.43 2388.74 2503.85 2388.74ZM2503.85 2390.26 2508.43 2390.26 2508.43 2391.79 2503.85 2391.79ZM2522.18 2387.21 2558.85 2387.21 2558.85 2388.74 2522.18 2388.74ZM2522.18 2390.26 2558.85 2390.26 2558.85 2391.79 2522.18 2391.79ZM2572.6 2387.21 2577.18 2387.21 2577.18 2388.74 2572.6 2388.74ZM2572.6 2390.26 2577.18 2390.26 2577.18 2391.79 2572.6 2391.79ZM2590.93 2387.21 2595.52 2387.21 2595.52 2388.74 2590.93 2388.74ZM2590.93 2390.26 2595.52 2390.26 2595.52 2391.79 2590.93 2391.79ZM2609.27 2387.21 2645.93 2387.21 2645.93 2388.74 2609.27 2388.74ZM2609.27 2390.26 2645.93 2390.26 2645.93 2391.79 2609.27 2391.79ZM2659.68 2387.21 2664.27 2387.21 2664.27 2388.74 2659.68 2388.74ZM2659.68 2390.26 2664.27 2390.26 2664.27 2391.79 2659.68 2391.79ZM2678.02 2387.21 2682.6 2387.21 2682.6 2388.74 2678.02 2388.74ZM2678.02 2390.26 2682.6 2390.26 2682.6 2391.79 2678.02 2391.79ZM2696.35 2387.21 2733.02 2387.21 2733.02 2388.74 2696.35 2388.74ZM2696.35 2390.26 2733.02 2390.26 2733.02 2391.79 2696.35 2391.79ZM2746.77 2387.21 2751.35 2387.21 2751.35 2388.74 2746.77 2388.74ZM2746.77 2390.26 2751.35 2390.26 2751.35 2391.79 2746.77 2391.79ZM2765.1 2387.21 2769.68 2387.21 2769.68 2388.74 2765.1 2388.74ZM2765.1 2390.26 2769.68 2390.26 2769.68 2391.79 2765.1 2391.79ZM2783.43 2387.21 2820.1 2387.21 2820.1 2388.74 2783.43 2388.74ZM2783.43 2390.26 2820.1 2390.26 2820.1 2391.79 2783.43 2391.79ZM2833.85 2387.21 2838.43 2387.21 2838.43 2388.74 2833.85 2388.74ZM2833.85 2390.26 2838.43 2390.26 2838.43 2391.79 2833.85 2391.79ZM2852.18 2387.21 2856.77 2387.21 2856.77 2388.74 2852.18 2388.74ZM2852.18 2390.26 2856.77 2390.26 2856.77 2391.79 2852.18 2391.79ZM2870.52 2387.21 2906.08 2387.21 2908.19 2389.53 2907.06 2390.55 2905.41 2388.74 2870.52 2388.74ZM2870.52 2390.26 2904.73 2390.26 2905.92 2391.58 2904.79 2392.61 2904.05 2391.79 2870.52 2391.79ZM2917.42 2399.72 2920.5 2403.11 2919.37 2404.14 2916.29 2400.74ZM2915.16 2401.77 2918.24 2405.16 2917.11 2406.19 2914.03 2402.79ZM2929.74 2413.3 2932.81 2416.69 2931.68 2417.72 2928.6 2414.32ZM2927.47 2415.35 2930.55 2418.75 2929.42 2419.77 2926.34 2416.38ZM2942.05 2426.88 2966.68 2454.05 2965.54 2455.07 2940.92 2427.91ZM2939.79 2428.93 2964.41 2456.1 2963.28 2457.12 2938.65 2429.96ZM2975.91 2464.23 2978.99 2467.63 2977.86 2468.65 2974.78 2465.26ZM2973.65 2466.29 2976.73 2469.68 2975.59 2470.71 2972.52 2467.31Z" fill="#FFFFFF" fill-rule="nonzero" fill-opacity="1"/></g></svg>