<svg width="271" height="120" xmlns="http://www.w3.org/2000/svg" xmlns:xlink="http://www.w3.org/1999/xlink" xml:space="preserve" overflow="hidden"><defs><filter id="fx0" x="-10%" y="-10%" width="120%" height="120%" filterUnits="userSpaceOnUse" primitiveUnits="userSpaceOnUse"><feComponentTransfer color-interpolation-filters="sRGB"><feFuncR type="discrete" tableValues="1.000000 1.000000"/><feFuncG type="discrete" tableValues="1.000000 1.000000"/><feFuncB type="discrete" tableValues="1.000000 1.000000"/><feFuncA type="linear" slope="1.000000" intercept="0.000000"/></feComponentTransfer><feGaussianBlur stdDeviation="3.762488 3.762488"/></filter><filter id="fx1" x="-10%" y="-10%" width="120%" height="120%" filterUnits="userSpaceOnUse" primitiveUnits="userSpaceOnUse"><feComponentTransfer color-interpolation-filters="sRGB"><feFuncR type="discrete" tableValues="1.000000 1.000000"/><feFuncG type="discrete" tableValues="1.000000 1.000000"/><feFuncB type="discrete" tableValues="1.000000 1.000000"/><feFuncA type="linear" slope="1.000000" intercept="0.000000"/></feComponentTransfer><feGaussianBlur stdDeviation="3.762488 3.762488"/></filter><filter id="fx2" x="-10%" y="-10%" width="120%" height="120%" filterUnits="userSpaceOnUse" primitiveUnits="userSpaceOnUse"><feComponentTransfer color-interpolation-filters="sRGB"><feFuncR type="discrete" tableValues="1.000000 1.000000"/><feFuncG type="discrete" tableValues="1.000000 1.000000"/><feFuncB type="discrete" tableValues="1.000000 1.000000"/><feFuncA type="linear" slope="1.000000" intercept="0.000000"/></feComponentTransfer><feGaussianBlur stdDeviation="3.762488 3.762488"/></filter><filter id="fx3" x="-10%" y="-10%" width="120%" height="120%" filterUnits="userSpaceOnUse" primitiveUnits="userSpaceOnUse"><feComponentTransfer color-interpolation-filters="sRGB"><feFuncR type="discrete" tableValues="1.000000 1.000000"/><feFuncG type="discrete" tableValues="1.000000 1.000000"/><feFuncB type="discrete" tableValues="1.000000 1.000000"/><feFuncA type="linear" slope="1.000000" intercept="0.000000"/></feComponentTransfer><feGaussianBlur stdDeviation="3.762488 3.762488"/></filter><clipPath id="clip4"><rect x="2369" y="100" width="271" height="120"/></clipPath><clipPath id="clip5"><rect x="-11.2874" y="-11.2875" width="281.575" height="135.575"/></clipPath><clipPath id="clip6"><rect x="0" y="0" width="259" height="113"/></clipPath><clipPath id="clip7"><rect x="1.26562" y="1.94958" width="205.575" height="23.5749"/></clipPath><clipPath id="clip8"><rect x="0" y="0" width="209" height="27"/></clipPath><clipPath id="clip9"><rect x="-11.2874" y="-11.2875" width="282.575" height="136.575"/></clipPath><clipPath id="clip10"><rect x="0" y="0" width="260" height="114"/></clipPath><clipPath id="clip11"><rect x="1.9707" y="1.5782" width="205.575" height="23.5749"/></clipPath><clipPath id="clip12"><rect x="0" y="0" width="209" height="27"/></clipPath></defs><g clip-path="url(#clip4)" transform="translate(-2369 -100)"><g clip-path="url(#clip5)" filter="url(#fx0)" transform="translate(2373 105)"><g clip-path="url(#clip6)"><path d="M3.649-2.214 3.608 0.246C15.047 0.943 19.475-3.116 19.475-6.888 19.475-12.997 6.273-14.801 6.273-19.557 6.273-21.853 8.774-23.78 18.081-23.206L17.917-25.584C7.503-26.199 3.69-22.632 3.69-19.106 3.69-13.161 16.892-11.48 16.892-6.478 16.892-3.854 13.366-1.353 3.649-2.214ZM41.3667 0.451 41.6947-1.722C31.5267-2.009 28.5337-4.182 28.2877-9.307L42.3917-9.635C43.1297-15.949 40.3827-20.336 35.0527-20.336 29.9277-20.336 25.8277-15.703 25.8277-9.676 25.8277-3.239 29.2307 0.246 41.3667 0.451ZM34.5607-18.245C38.3327-18.245 40.1777-15.416 40.0957-11.275L28.2877-10.947C28.5337-15.539 30.9117-18.245 34.5607-18.245ZM63.5453 0 63.7913-1.927 56.6163-1.927C56.5753-6.847 56.4933-11.152 56.4523-14.883 58.6253-16.482 61.6183-17.589 66.0053-17.917L65.8823-20.541C61.5773-20.09 58.3793-18.45 56.3703-16.523 56.3293-17.466 56.2063-19.311 56.1653-19.844L48.8673-19.844 48.6623-18.081 53.9103-17.794C54.0333-13.53 54.0743-8.487 54.1973-1.927L48.5803-1.927 48.5803 0ZM80.23-2.255 79.943-2.255C77.483-8.159 75.31-14.063 73.301-19.926L70.8-19.803C73.096-13.161 75.597-6.519 78.426 0.164L81.665 0.164C84.453-6.478 87.077-13.202 89.373-19.844L86.831-19.844C84.863-14.022 82.69-8.118 80.23-2.255ZM104.787-23.247 105.115-28.659 102.491-28.659 102.286-23.247ZM112.618 0 112.823-1.927 104.992-1.927 104.992-19.844 94.9877-19.844 94.7827-18.122 102.491-17.794 102.491-1.927 94.7007-1.927 94.7007 0ZM118.068-9.635C118.068-3.608 121.471 0.82 133.32 0.164L133.648-1.968C123.357-1.517 120.528-4.633 120.528-9.963 120.528-14.432 122.906-17.63 133.32-17.794L133.156-20.172C121.799-19.803 118.068-15.006 118.068-9.635ZM155.95 0.451 156.278-1.722C146.11-2.009 143.117-4.182 142.871-9.307L156.975-9.635C157.713-15.949 154.966-20.336 149.636-20.336 144.511-20.336 140.411-15.703 140.411-9.676 140.411-3.239 143.814 0.246 155.95 0.451ZM149.144-18.245C152.916-18.245 154.761-15.416 154.679-11.275L142.871-10.947C143.117-15.539 145.495-18.245 149.144-18.245ZM178.17-19.967C168.207-20.787 164.968-17.548 164.968-14.637 164.968-9.635 176.448-9.184 176.448-5.166 176.448-3.239 173.947-1.394 164.763-2.132L164.64 0.123C175.546 0.82 178.99-2.378 178.99-5.453 178.99-10.578 167.51-11.316 167.51-15.047 167.51-16.769 169.601-18.532 178.293-17.712Z" fill="#FFFFFF" fill-rule="nonzero" fill-opacity="1" transform="matrix(1 0 0 1 37.5532 65)"/></g></g><text fill="#FFFFFF" fill-opacity="1" font-family="Operator Mono Light,Operator Mono Light_MSFontService,sans-serif" font-style="normal" font-variant="normal" font-weight="300" font-stretch="normal" font-size="41" text-anchor="start" direction="ltr" writing-mode="lr-tb" unicode-bidi="normal" text-decoration="none" transform="matrix(1 0 0 1 2410.55 167)">Services</text><g clip-path="url(#clip7)" filter="url(#fx1)" transform="translate(2398 159)"><g clip-path="url(#clip8)"><path d="M12.5532 13.2371 58.3032 13.2371 104.053 13.2371 149.803 13.2371 195.553 13.2371 195.553 14.2371 149.803 14.2371 104.053 14.2371 58.3032 14.2371 12.5532 14.2371Z" fill="#FFFFFF" fill-rule="evenodd" fill-opacity="1"/></g></g><path d="M2410.55 168.816 2456.3 168.816 2502.05 168.816 2547.8 168.816 2593.55 168.816 2593.55 169.816 2547.8 169.816 2502.05 169.816 2456.3 169.816 2410.55 169.816Z" fill="#FFFFFF" fill-rule="evenodd" fill-opacity="1"/><g clip-path="url(#clip9)" filter="url(#fx2)" transform="translate(2378 103)"><g clip-path="url(#clip10)"><path d="M3.649-2.214 3.608 0.246C15.047 0.943 19.475-3.116 19.475-6.888 19.475-12.997 6.273-14.801 6.273-19.557 6.273-21.853 8.774-23.78 18.081-23.206L17.917-25.584C7.503-26.199 3.69-22.632 3.69-19.106 3.69-13.161 16.892-11.48 16.892-6.478 16.892-3.854 13.366-1.353 3.649-2.214ZM41.3667 0.451 41.6947-1.722C31.5267-2.009 28.5337-4.182 28.2877-9.307L42.3917-9.635C43.1297-15.949 40.3827-20.336 35.0527-20.336 29.9277-20.336 25.8277-15.703 25.8277-9.676 25.8277-3.239 29.2307 0.246 41.3667 0.451ZM34.5607-18.245C38.3327-18.245 40.1777-15.416 40.0957-11.275L28.2877-10.947C28.5337-15.539 30.9117-18.245 34.5607-18.245ZM63.5453 0 63.7913-1.927 56.6163-1.927C56.5753-6.847 56.4933-11.152 56.4523-14.883 58.6253-16.482 61.6183-17.589 66.0053-17.917L65.8823-20.541C61.5773-20.09 58.3793-18.45 56.3703-16.523 56.3293-17.466 56.2063-19.311 56.1653-19.844L48.8673-19.844 48.6623-18.081 53.9103-17.794C54.0333-13.53 54.0743-8.487 54.1973-1.927L48.5803-1.927 48.5803 0ZM80.23-2.255 79.943-2.255C77.483-8.159 75.31-14.063 73.301-19.926L70.8-19.803C73.096-13.161 75.597-6.519 78.426 0.164L81.665 0.164C84.453-6.478 87.077-13.202 89.373-19.844L86.831-19.844C84.863-14.022 82.69-8.118 80.23-2.255ZM104.787-23.247 105.115-28.659 102.491-28.659 102.286-23.247ZM112.618 0 112.823-1.927 104.992-1.927 104.992-19.844 94.9877-19.844 94.7827-18.122 102.491-17.794 102.491-1.927 94.7007-1.927 94.7007 0ZM118.068-9.635C118.068-3.608 121.471 0.82 133.32 0.164L133.648-1.968C123.357-1.517 120.528-4.633 120.528-9.963 120.528-14.432 122.906-17.63 133.32-17.794L133.156-20.172C121.799-19.803 118.068-15.006 118.068-9.635ZM155.95 0.451 156.278-1.722C146.11-2.009 143.117-4.182 142.871-9.307L156.975-9.635C157.713-15.949 154.966-20.336 149.636-20.336 144.511-20.336 140.411-15.703 140.411-9.676 140.411-3.239 143.814 0.246 155.95 0.451ZM149.144-18.245C152.916-18.245 154.761-15.416 154.679-11.275L142.871-10.947C143.117-15.539 145.495-18.245 149.144-18.245ZM178.17-19.967C168.207-20.787 164.968-17.548 164.968-14.637 164.968-9.635 176.448-9.184 176.448-5.166 176.448-3.239 173.947-1.394 164.763-2.132L164.64 0.123C175.546 0.82 178.99-2.378 178.99-5.453 178.99-10.578 167.51-11.316 167.51-15.047 167.51-16.769 169.601-18.532 178.293-17.712Z" fill="#7F7F7F" fill-rule="nonzero" fill-opacity="1" transform="matrix(1 0 0 1 38.2581 66)"/></g></g><text fill="#7F7F7F" fill-opacity="1" font-family="Operator Mono Light,Operator Mono Light_MSFontService,sans-serif" font-style="normal" font-variant="normal" font-weight="300" font-stretch="normal" font-size="41" text-anchor="start" direction="ltr" writing-mode="lr-tb" unicode-bidi="normal" text-decoration="none" transform="matrix(1 0 0 1 2416.26 165)">Services</text><g clip-path="url(#clip11)" filter="url(#fx3)" transform="translate(2403 158)"><g clip-path="url(#clip12)"><path d="M13.2581 12.8657 59.0081 12.8657 104.758 12.8657 150.508 12.8657 196.258 12.8657 196.258 13.8657 150.508 13.8657 104.758 13.8657 59.0081 13.8657 13.2581 13.8657Z" fill="#7F7F7F" fill-rule="evenodd" fill-opacity="1"/></g></g><path d="M2416.26 167.445 2462.01 167.445 2507.76 167.445 2553.51 167.445 2599.26 167.445 2599.26 168.445 2553.51 168.445 2507.76 168.445 2462.01 168.445 2416.26 168.445Z" fill="#7F7F7F" fill-rule="evenodd" fill-opacity="1"/></g></svg>