<svg width="170" height="115" xmlns="http://www.w3.org/2000/svg" xmlns:xlink="http://www.w3.org/1999/xlink" xml:space="preserve" overflow="hidden"><defs><filter id="fx0" x="-10%" y="-10%" width="120%" height="120%" filterUnits="userSpaceOnUse" primitiveUnits="userSpaceOnUse"><feComponentTransfer color-interpolation-filters="sRGB"><feFuncR type="discrete" tableValues="1.000000 1.000000"/><feFuncG type="discrete" tableValues="1.000000 1.000000"/><feFuncB type="discrete" tableValues="1.000000 1.000000"/><feFuncA type="linear" slope="1.000000" intercept="0.000000"/></feComponentTransfer><feGaussianBlur stdDeviation="3.762488 3.762488"/></filter><filter id="fx1" x="-10%" y="-10%" width="120%" height="120%" filterUnits="userSpaceOnUse" primitiveUnits="userSpaceOnUse"><feComponentTransfer color-interpolation-filters="sRGB"><feFuncR type="discrete" tableValues="1.000000 1.000000"/><feFuncG type="discrete" tableValues="1.000000 1.000000"/><feFuncB type="discrete" tableValues="1.000000 1.000000"/><feFuncA type="linear" slope="1.000000" intercept="0.000000"/></feComponentTransfer><feGaussianBlur stdDeviation="3.762488 3.762488"/></filter><clipPath id="clip2"><rect x="1535" y="105" width="170" height="115"/></clipPath><clipPath id="clip3"><rect x="-11.2875" y="-11.2875" width="190.575" height="135.575"/></clipPath><clipPath id="clip4"><rect x="0" y="0" width="168" height="113"/></clipPath><clipPath id="clip5"><rect x="1.61255" y="1.75333" width="114.575" height="23.5749"/></clipPath><clipPath id="clip6"><rect x="0" y="0" width="118" height="27"/></clipPath></defs><g clip-path="url(#clip2)" transform="translate(-1535 -105)"><g clip-path="url(#clip3)" filter="url(#fx0)" transform="translate(1537 107)"><g clip-path="url(#clip4)"><path d="M16.441 0 19.024 0 19.024-25.42 16.441-25.42 16.441-13.899 6.109-13.899 6.109-25.42 3.526-25.42 3.526 0 6.109 0 6.109-11.89 16.441-11.89ZM33.8637 0.574C38.8247 0.574 43.0067-3.731 43.0067-10.25 43.0067-16.564 39.4807-20.377 34.5607-20.377 29.5997-20.377 25.3767-16.072 25.3767-9.635 25.3767-3.28 28.9847 0.574 33.8637 0.574ZM34.2327-1.517C30.5017-1.517 27.8777-4.633 27.8777-10.127 27.8777-15.334 30.5017-18.286 34.1507-18.286 37.9227-18.286 40.5467-15.211 40.5467-9.758 40.5467-4.51 37.9227-1.517 34.2327-1.517ZM54.0743-18.163C55.6733-18.163 56.2063-17.261 56.2063-15.006L56.2063 0 58.3793 0 58.3793-15.949C58.3793-16.236 58.3793-16.523 58.3383-16.769 59.3633-17.671 60.5113-18.163 61.4953-18.163 63.1353-18.163 63.6683-17.261 63.6683-14.924L63.6683 0 66.0873 0 66.0873-15.908C66.0873-18.901 64.7343-20.295 62.5613-20.295 60.8393-20.295 59.2403-19.311 58.0923-18.204 57.5593-19.598 56.4933-20.295 54.9763-20.295 53.2953-20.295 51.6963-19.27 50.5483-17.999L50.3843-19.926 48.1703-19.762C48.3343-15.129 48.4163-8.487 48.4163 0L50.8353 0C50.8353-7.339 50.7533-12.792 50.6303-16.359 51.7783-17.548 53.0493-18.163 54.0743-18.163ZM87.2 0.451 87.528-1.722C77.36-2.009 74.367-4.182 74.121-9.307L88.225-9.635C88.963-15.949 86.216-20.336 80.886-20.336 75.761-20.336 71.661-15.703 71.661-9.676 71.661-3.239 75.064 0.246 87.2 0.451ZM80.394-18.245C84.166-18.245 86.011-15.416 85.929-11.275L74.121-10.947C74.367-15.539 76.745-18.245 80.394-18.245Z" fill="#FFFFFF" fill-rule="nonzero" fill-opacity="1" transform="matrix(1 0 0 1 37.9 65)"/></g></g><text fill="#FFFFFF" fill-opacity="1" font-family="Operator Mono Light,Operator Mono Light_MSFontService,sans-serif" font-style="normal" font-variant="normal" font-weight="300" font-stretch="normal" font-size="41" text-anchor="start" direction="ltr" writing-mode="lr-tb" unicode-bidi="normal" text-decoration="none" transform="matrix(1 0 0 1 1574.9 169)">Home</text><g clip-path="url(#clip5)" filter="url(#fx1)" transform="translate(1562 161)"><g clip-path="url(#clip6)"><path d="M12.9 13.0408 35.9 13.0408 58.9 13.0408 81.9 13.0408 104.9 13.0408 104.9 14.0408 81.9 14.0408 58.9 14.0408 35.9 14.0408 12.9 14.0408Z" fill="#FFFFFF" fill-rule="evenodd" fill-opacity="1"/></g></g><path d="M1574.9 170.62 1597.9 170.62 1620.9 170.62 1643.9 170.62 1666.9 170.62 1666.9 171.62 1643.9 171.62 1620.9 171.62 1597.9 171.62 1574.9 171.62Z" fill="#FFFFFF" fill-rule="evenodd" fill-opacity="1"/></g></svg>