<svg id="Layer_1" enable-background="new 0 0 50 50" height="512" viewBox="0 0 50 50" width="512" xmlns="http://www.w3.org/2000/svg"><g><g><g><g><g><g enable-background="new"><g><path d="m42.9957 21.9493-.0712 27.0507-36.28499-20.9491.0712-27.0507z" fill="#febb61"/></g></g></g><g><g enable-background="new"><g><path d="m42.99231 21.9512-14.20901 5.6467 14.1378 21.3964-15.08589-21.02-3.0287 1.2032-3.01201-4.6907-15.15159 3.5622 14.2018-5.0345-14.1306-22.0085 18.0975 25.4537z" fill="#efa143"/></g></g></g></g><g fill="#ffdd94"><path d="m6.71071 1c-.0754.4057 24.0684 15.2127 36.285 20.9491-11.25351-6.9171-23.41091-13.9045-36.285-20.9491z"/><path d="m42.9958 21.9491c-.55479 8.0661-.2566 26.7089-.0713 27.0509.40131-5.1479.7051-20.7326.0713-27.0509z"/></g></g><g><g enable-background="new"><path d="m22.0288 3.0333c1.2114-.7037 2.8891-.6045 4.7412.4649 3.6807 2.125 6.6531 7.2734 6.6411 11.5029-.006 2.1009-.7473 3.5792-1.9433 4.2742l-1.1022.6405c1.1959-.695 1.9372-2.1728 1.9432-4.2737.012-4.2294-2.96039-9.3784-6.6411-11.5034-1.8521-1.0689-3.5298-1.1685-4.7411-.4648z" fill="#fe91ab"/><g><path d="m25.66771 4.1389c-3.6806-2.125-6.6724-.42-6.6844 3.8095-.012 4.229 2.9604 9.3775 6.641 11.5025 3.6807 2.125 6.6725.42 6.6845-3.809.01199-4.2295-2.96039-9.378-6.6411-11.503z" fill="#e34454"/></g><g><path d="m29.0109 9.9578c-1.34549-2.3582-4.387-5.0817-6.6491-3.7983-.92139.5273-1.3907 1.5548-1.395 3.054-.0089 3.0728 1.9945 6.4694 4.6214 7.9861.6761.3904 1.795.7308 2.52321.4506l-.44931-1.1589c-.615.299-1.3273.2196-2.1175-.2366-2.02719-1.1706-3.6338-3.8907-3.6267-6.4386.0036-1.2442.3863-2.1109 1.1371-2.5759 1.8105-1.1148 4.3706 1.1238 5.36841 3.0173.64109 1.2146.96439 2.4829.96079 3.7698-.0016.5057-.1041 1.5483-.5921 1.6839-1.14469.3179-.5029-3.1787-.6585-5.3105l-1.3925-.804-.002.6543c-.3881-.6294-.7206-1.2344-1.3988-1.6262-.70889-.4094-1.287-.4436-1.7174-.1016-.4352.3457-.6571.9657-.6596 1.8429-.0055 1.8951 1.2202 3.7774 2.4596 4.493 1.0652.6151 1.4442.0354 1.6627-.0598.2826.8045.5992 1.5036 1.3376 1.93 1.3569.783 1.8978-.5808 1.9021-2.1466.00451-1.5319-.4377-3.088-1.3144-4.6249zm-3.47048 3.5576c-.762-.44-1.15071-1.5081-1.14871-2.3377.0013-.4532.10971-.781.322-.974.5155-.4692 1.3721.2761 1.7139.9611.21181.4278.3184.878.3171 1.3386-.00241.87-.41801 1.4663-1.20429 1.012z" fill="#fff"/></g></g></g><g><g><g enable-background="new"><g><path d="m33.1232 36.0441v10.2267l-.8353.4854v-10.2267z" fill="#272e3a"/></g><g><path d="m32.2879 36.5295v10.2267l-19.96459-11.5266v-10.2267z" fill="#373f51"/></g><g><path d="m33.1232 36.0441-.8353.4854-19.96459-11.5266.8352-.4854z" fill="#4c5671"/></g></g></g><g><g><g enable-background="new"><g><path d="m15.7437 36.8193-2.4289-1.4115c-.6501-.3778-1.0533-1.1806-1.0565-2.3211-.0054-1.8866 1.082-4.1067 2.5767-5.4825l2.4288 1.4115c-1.4947 1.3757-2.5821 3.5959-2.5767 5.4825.0032 1.1405.40651 1.9433 1.0566 2.3211z" fill="#fff"/></g><g><path d="m17.26381 29.0157.02261 7.9767c-1.49761.3518-2.594-.6106-2.59931-2.4942-.0054-1.8866 1.08199-4.1068 2.5767-5.4825z" fill="#b4bed7"/></g></g></g><g><g enable-background="new"><g><path d="m20.1736 39.3781-2.4288-1.4115c-.6502-.3778-1.05339-1.1806-1.0566-2.3211-.0054-1.8866 1.082-4.1068 2.5767-5.4825l2.4288 1.4114c-1.4947 1.3758-2.582 3.596-2.5767 5.4825.0032 1.1406.4065 1.9434 1.0566 2.3212z" fill="#fff"/></g><g><path d="m21.6937 31.5744.0226 7.9768c-1.4976.3518-2.594-.6106-2.5993-2.4943-.00529-1.8865 1.08201-4.1067 2.5767-5.4825z" fill="#b4bed7"/></g></g></g><g><g enable-background="new"><g><path d="m24.6035 41.9369-2.4288-1.4115c-.6501-.3778-1.0534-1.1806-1.0566-2.3212-.0054-1.8865 1.082-4.1067 2.5767-5.4825l2.4288 1.4115c-1.4947 1.3758-2.582 3.596-2.5767 5.4825.00331 1.1406.40652 1.9434 1.0566 2.3212z" fill="#fff"/></g><g><path d="m26.1237 34.1332.0226 7.9768c-1.4977.3518-2.594-.6107-2.5994-2.4943-.0053-1.8865 1.082-4.1067 2.5768-5.4825z" fill="#b4bed7"/></g></g></g><g><g enable-background="new"><g><path d="m29.03342 44.4956-2.42881-1.4114c-.6501-.3778-1.0534-1.1807-1.0566-2.3212-.0053-1.8865 1.082-4.1067 2.5767-5.4825l2.4289 1.4115c-1.4947 1.3758-2.5821 3.5959-2.5768 5.4825.00329 1.1405.40649 1.9433 1.05661 2.3211z" fill="#fff"/></g><g><path d="m30.5536 36.692.0226 7.9767c-1.4976.3519-2.594-.6106-2.5994-2.4942-.0053-1.8866 1.0821-4.1067 2.5768-5.4825z" fill="#b4bed7"/></g></g></g></g><g fill="#272e3a"><g><path d="m14.3202 33.9522c-.0021.7283-.2683 1.1267-.894.7655-.6297-.3636-.8879-1.0691-.88579-1.7931.002-.7215.26279-1.1287.893-.7648.6252.3609.88879 1.0647.88679 1.7924zm-.5752.2685c.06841-.1114.10341-.2906.1041-.5382.0011-.3862-.0825-.873-.417-1.0661-.3355-.1937-.4196.1962-.42069.5824-.00111.387.08219.8728.416 1.0656.1437.0829.2501.0695.31759-.0437"/><path d="m18.3528 35.0929-.007 2.4731-.4615-.2664.00571-2.0023-.40971-.2366.00131-.4708z"/><path d="m23.07371 38.1732c.1468.3173.21971.6701.2186 1.0573-.0021.7221-.2623 1.1302-.8931.766-.6297-.3636-.8879-1.0691-.88579-1.793.00109-.3873.07569-.6549.22379-.8019.149-.1476.3715-.1349.66921.037.29778.1719.51958.4157.66729.7346zm-.35571 1.3264c.06841-.1115.1025-.2913.1032-.5388.0007-.2476-.0322-.466-.09979-.6571-.06751-.19-.17261-.3256-.31621-.4085-.1437-.0829-.2492-.0689-.3176.0426-.0684.1126-.1025.2923-.10319.5398-.00111.3871.08219.8729.41609 1.0656.14361.0829.2491.069.3175-.0436"/><path d="m27.39391 40.4237c.3012.465.3367.9376-.1897 1.2603l-.389.2393.84921.4903-.00142.4951-1.5175-.8762.0012-.4103.633-.3784c.2785-.1634.4751-.3189.28571-.656-.12741-.2237-.36181-.3332-.56751-.0775l-.3841-.484c.4025-.483.9848-.0625 1.28011.3974z"/></g><g><path d="m15.4936 28.58-.7995.3501-.18169.3796 1.132.8104.21919-.458-.6334-.4537.4943-.2212c.436-.1945.5271-.3196.6268-.5018l-.3786-.2201c-.09428.1276-.11479.1578-.4791.3147z"/><path d="m19.5051 32.435c.5161.3699.9556-.1351 1.2301-.7087.0995-.2079.1654-.4038.2048-.5898l-.3779-.2198c-.0223.1659-.0789.3505-.1793.5601-.1421.297-.40939.7304-.677.5388-.2675-.1916-.08939-.6883.0528-.9858.0885-.1846.18-.3176.2737-.4208l-.3916-.2276c-.081.1128-.1591.2414-.2325.3949-.27409.5727-.4199 1.2889.0969 1.6587z"/><path d="m23.5843 33.933-.1817.3796 1.132.8104.2192-.458-.63339-.4537c.358-.1683.71349-.2933.92539-.4687.052-.0432.0847-.1075.1253-.1629l-.3863-.2247c-.016.0136-.0218.0326-.0401.0447-.1792.1181-.4365.2112-1.1604.5333z"/><path d="m28.39531 37.4378c.5164.3696.9558-.1355 1.23011-.7086.07889-.1647.13659-.3222.17779-.4733l-.3757-.2183c-.031.1358-.0769.2797-.1545.4421-.1422.297-.4094.7304-.677.5388-.26759-.1916-.0894-.6888.0528-.9858.06461-.1347.1308-.2411.1981-.3326l-.38049-.2212c-.05781.0906-.11431.1881-.168.3003-.27431.5732-.41961 1.2885.09689 1.6586z"/></g></g></g></g></g></svg>