<svg xmlns="http://www.w3.org/2000/svg" id="Layer_1" x="0" y="0" enable-background="new 0 0 140 140" version="1.1" viewBox="0 0 140 140" xml:space="preserve"><g id="Email_Marketing"><polygon fill="#1d2943" points="57.457 83.899 59.156 75.085 57.882 74.063 38.15 85.53 36.143 95.938 46.927 102.164 66.659 90.697 66.663 89.214"/><polygon fill="#d3d7df" points="38.15 85.53 57.882 74.063 59.156 75.085 39.424 86.552"/><polygon fill="#111d33" points="39.424 86.552 59.156 75.085 57.457 83.899 37.725 95.366"/><polygon fill="#4c5c75" points="37.725 95.366 57.457 83.899 66.663 89.214 46.931 100.681"/><polygon fill="#111d33" points="46.931 100.681 66.663 89.214 66.659 90.697 46.927 102.164"/><polygon fill="#1d2943" points="38.15 85.53 39.424 86.552 37.725 95.366 46.931 100.681 46.927 102.164 36.143 95.938"/><g><path fill="#e3e7f0" d="M73.5027313,7.3403201c1.3639526-0.7874784,2.6073303-0.0917506,2.776886,1.5598235
																	l5.219902,50.8455544c0.169548,1.6515236-0.7998276,3.624836-2.1637802,4.4123154l-62.9481201,36.3431168
																	c-1.3639088,0.7874527-2.6030512,0.0892258-2.7726002-1.562294L8.3951159,48.0932808
																	c-0.1695547-1.651577,0.795579-3.6223907,2.1594896-4.4098434L73.5027313,7.3403201z M79.9033279,60.6672592
																	l-5.219902-50.8455544c-0.059845-0.5828781-0.5008621-0.8265409-0.9822693-0.5485973L10.7530289,45.6162262
																	c-0.4771271,0.2754707-0.8215599,0.9726143-0.7617207,1.5554924l5.219902,50.8455544
																	c0.0598392,0.5828781,0.5008574,0.8265381,0.9779835,0.5510712l62.9481277-36.3431206
																	C79.6187286,61.9472809,79.9631653,61.2501373,79.9033279,60.6672592"/><path fill="#5094ff" d="M79.9062347,60.6653633c0.0568161,0.5797348-0.2841797,1.2844925-0.7729568,1.5572891
																	L16.1935825,98.5632782c-0.4774675,0.2841797-0.9207325,0.0341339-0.9776239-0.5456009l-0.2386646-2.2961807
																	L9.9871149,47.1726074c-0.0568218-0.579731,0.2841778-1.2844887,0.7615776-1.5572891L73.6997681,9.2746258
																	c0.4773941-0.2841778,0.9207306-0.0340652,0.9889297,0.545599l4.9787979,48.5603409L79.9062347,60.6653633z"/><path fill="#e3e7f0" d="M79.9062347,60.6653633c0.0568161,0.5797348-0.2841797,1.2844925-0.7729568,1.5572891
																	L16.1935825,98.5632782c-0.4774675,0.2841797-0.9207325,0.0341339-0.9776239-0.5456009l-0.2843428-2.7416992
																	l64.6902008-37.3409348L79.9062347,60.6653633z"/><g><path fill="#4c5c75" d="M75.0667725,7.0854192c-0.456398-0.1455259-0.998703-0.072783-1.5608673,0.2579098
																	L10.5552387,43.6864967c-1.3624935,0.7870483-2.3280916,2.758007-2.1627455,4.40485l5.224885,50.8473587
																	c0.0926037,0.8928528,0.4960394,1.5079346,1.0649023,1.7592697l-2.3148508-1.0119019
																	c-0.5688629-0.2513275-0.9722986-0.8664169-1.0649023-1.7659302L6.0842633,47.0794067
																	c-0.171967-1.6534615,0.7936306-3.624382,2.1561246-4.4114304L71.1910553,6.3248091
																	c0.6282883-0.3637543,1.2235489-0.4100561,1.7064285-0.1984076L75.0667725,7.0854192z"/></g></g><g><path fill="#1d2943" d="M67.6044083,90.2799072l-0.0100098,1.4799805
													c0,0.3199463-0.2099609,0.6500244-0.6399536,0.9000244l-16.6199913,9.6600342c-0.8600464,0.5-2.2700195,0.5-3.1500244,0
													l-7.9099731-4.5799561v-1.4801025l19.75-11.4499512l7.9199791,4.539917
													C67.3844376,89.5998535,67.6044083,89.9399414,67.6044083,90.2799072z"/><path fill="#1d2943" d="M67.6031799,90.2689056l-0.0069733,1.4866867
													c0,0.3274994-0.2159958,0.6549606-0.6410599,0.9058304l-16.6168861,9.6542587
													c-0.863987,0.5016937-2.2714767,0.5016937-3.1494179,0l-7.9153061-4.570816v-1.4867249l7.9153061,4.570816
													c0.8779411,0.5016937,2.2854309,0.5016937,3.156395,0l16.6099091-9.6542587
													C67.3871841,90.9238739,67.6031799,90.5963669,67.6031799,90.2689056z"/><path fill="#4c5c75" d="M66.9406204,89.3483658c0.8763885,0.5059814,0.8810043,1.3487396,0.0147171,1.8261642
													l-16.6122971,9.628006c-0.8662567,0.5294189-2.2763443,0.5294342-3.1527328,0.0234528l-7.9141388-4.5692291
													l19.7503128-11.451622L66.9406204,89.3483658z"/></g><g><path fill="#4c5c75" d="M16.5535316,96.145401c0.543293-0.3136673,1.0367775-0.036644,1.1136551,0.625267
											c0.0760498,0.6547699-0.2950993,1.4310455-0.8383923,1.7447128
											c-0.537466,0.3103027-1.0309572,0.0332336-1.1070061-0.6215363
											C15.6449099,97.2319336,16.0160637,96.4557114,16.5535316,96.145401z"/><path fill="#f45170" d="M19.7900066,94.276825c0.537468-0.3103104,1.0367775-0.036644,1.1136551,0.625267
											c0.0760498,0.6547699-0.3009243,1.4344025-0.8383923,1.7447052
											c-0.537466,0.3103104-1.0367813,0.0365982-1.1128311-0.6181717
											C18.8755608,95.3667145,19.2525387,94.5871277,19.7900066,94.276825z"/><path fill="#5ec363" d="M23.0264816,92.4082413c0.537468-0.3103027,1.0309334-0.0332718,1.1078129,0.6286392
											c0.0760479,0.6547699-0.2950821,1.4310303-0.83255,1.7413406
											c-0.537466,0.3103027-1.0367813,0.0365982-1.1128311-0.6181717
											C22.1120358,93.4981384,22.4890137,92.7185516,23.0264816,92.4082413z"/></g><g><polygon fill="#d4daea" points="73.142 18.838 17.759 50.811 17.759 50.809 16.582 50.126 16.669 89.585 17.846 90.269 17.846 90.267 73.23 58.293"/><polygon fill="#d4daea" points="17.846 90.269 16.67 89.585 16.582 50.126 17.759 50.809"/><polygon fill="#fff" points="73.23 58.293 17.845 90.268 17.757 50.812 73.142 18.838"/><polygon fill="#cc104a" points="73.144 18.83 17.754 50.81 16.584 50.13 16.574 46.17 71.954 14.19 73.134 14.88"/><polygon fill="#cc104a" points="17.759 50.809 16.582 50.126 16.573 46.167 17.749 46.851"/><polygon fill="#f45170" points="17.749 46.851 16.573 46.167 71.954 14.193 73.13 14.876"/><polygon fill="#e93565" points="73.13 14.876 73.139 18.835 17.759 50.809 17.749 46.851"/><g><polygon fill="#fff" points="46.3 33.261 46.296 31.82 71.551 17.238 71.555 18.679"/><path fill="#fff" d="M24.3144131 45.8432388c-.3430824.198082-.6193485.040638-.6204681-.3536034-.0011044-.3890343.2733688-.8644485.6164513-1.0625267.3385696-.1954765.6148376-.0380325.6159401.3510017C24.9274559 45.1723518 24.6529827 45.6477661 24.3144131 45.8432388zM22.1295166 47.1046944c-.3385696.1954727-.6148376.0380287-.6159554-.3562126-.0011044-.3890343.2733669-.8644447.6119366-1.0599213.3430843-.1980782.6193504-.0406342.6204548.3484001C22.7470703 46.4312019 22.472599 46.9066124 22.1295166 47.1046944zM19.949131 48.3635445c-.3385696.1954727-.6148357.0380287-.6159554-.3562126-.0011024-.3890343.2733688-.8644485.6119366-1.0599213.3430843-.198082.6193523-.040638.6204548.3483963C20.5666866 47.6900482 20.2922153 48.1654625 19.949131 48.3635445z"/></g></g><path fill="#f9a83d" d="M63.0149956,54.9941406l-0.0571289-20.1567383h-0.000061l-0.0025024-0.8884277
				c-0.0014648-0.5275879-0.1887817-0.8972168-0.4898071-1.0698242l0.0012817-0.001709l-1.612915-0.9384766
				c-0.3059082-0.1765137-0.7296143-0.1413574-1.1884766,0.1176758L31.8346977,48.1196289
				c-0.2269897,0.1337891-0.4429321,0.3134766-0.6395874,0.5234375c-0.0015259,0.001709-0.0033569,0.0029297-0.0048828,0.0046387
				c-0.0140381,0.0151367-0.026123,0.0327148-0.0400391,0.0480957c-0.5748291,0.6320801-0.9755249,1.5250244-0.9755249,2.3010254
				l0.0650635,21.9312744c0,0.5299072,0.1859741,0.9017334,0.4834595,1.0692139l1.1868286,0.6870117l0.4313965,0.2509766
				c-0.0018311-0.0012207-0.0031128-0.0030518-0.0048828-0.0041504l0.008606,0.0048828
				c0.3026733,0.1772461,0.7219238,0.1540527,1.1859741-0.1140137l27.8291016-16.0671387
				c0.9165649-0.5291748,1.6602783-1.8153076,1.6572876-2.8725586L63.0149956,54.9941406z"/><g><path fill="#ffde9b" d="M32.3414154,74.9352493l-1.6128941-0.9384766
							c-0.3059711-0.1765442-0.4824448-0.5413437-0.4824448-1.0709076L30.187252,51.002594
							c-0.0117798-1.0590515,0.7295933-2.3417664,1.647438-2.8830338l27.8306923-16.062973
							c0.458889-0.2589264,0.8825798-0.2941914,1.1884804-0.1176472l1.612896,0.9384785L31.8706779,73.8643494
							C31.8706779,74.3939056,32.0472221,74.7587051,32.3414154,74.9352493z"/><path fill="#ffb961" d="M61.2871819,32.9964218c0.9165726-0.5291824,1.6651115-0.104599,1.6681099,0.9525986
											l0.0621796,21.9333992c0.0029984,1.0572014-0.7406921,2.3433228-1.6572647,2.872509L33.5310822,74.8220825
											c-0.9200401,0.5311813-1.6668568,0.1056061-1.6698532-0.9515991L31.7990475,51.937088
											c-0.0029984-1.0572014,0.7389698-2.3423271,1.6590099-2.8735123L61.2871819,32.9964218z"/><path fill="#ffd06c" d="M31.7977943,51.9363098l0.0650845,21.9313354c0,0.5299225,0.1858921,0.9017639,0.4834003,1.0691605
											l-1.6230907-0.9395447c-0.2975063-0.1673355-0.4834538-0.539238-0.4834538-1.0691605l-0.0650864-21.9312782
											c0-1.0598564,0.7437382-2.3428268,1.6641197-2.872757l1.6231461,0.9395447
											C32.5415306,49.5935364,31.7977943,50.8765106,31.7977943,51.9363098z"/><path fill="#c4990d" d="M31.8015366,52.8034744l0.2371941,0.0307198l0.0120163,0.0015526
													c-0.0572681-0.0012054-0.1137314-0.0047073-0.1704826-0.0073929
													c-0.0261307-0.0012321-0.0523014-0.0023422-0.0786667-0.0028954L31.8015366,52.8034744z"/><path fill="#f3a250" d="M62.95784,34.8373871c-3.5114708,5.307457-9.228981,13.2442322-13.0584679,18.4348831
													c-1.2167091,1.6492882-2.2134056,2.986042-2.483387,3.3494606
													c-4.2423286-0.8485832-10.6721802-2.0558281-15.614378-3.7962837
													c0.0262566,0.0008736,0.0524254,0.0019646,0.078661,0.002903
													c0.0567551,0.0026855,0.1132183,0.0061798,0.1704865,0.0073929
													c6.2829704,0.2445221,15.2614555,1.9053612,15.3616829,1.9203949
													C51.6254082,49.1177292,58.4568863,40.1976051,62.95784,34.8373871z"/><path fill="#f9a83d" d="M62.95784 34.8373947l.0571442 20.1567421-13.115612-1.7218628C53.7850227 48.005497 59.4740105 40.1030655 62.95784 34.8373947zM31.8015976 52.8254585c4.6504021 1.6376724 12.3546486 3.1529655 13.1201553 3.3226471l-13.0630093 16.834095L31.8015976 52.8254585z"/></g><g><path fill="#e93565" d="M62.3714867,35.4795227c-1.4938736,0.8624916-2.7128525,0.1678047-2.7177849-1.5717087
							c-0.0048714-1.7165451,1.2061844-3.8142128,2.700058-4.6767025c1.5137901-0.8739891,2.7327652-0.1793041,2.7376328,1.537241
							C65.0963287,32.5078697,63.8852768,34.6055336,62.3714867,35.4795227z"/></g><g><path fill="#fff" d="M63.3820953,32.3462067l-0.3033447,0.1769257v-1.8369427
							c0-0.1644611-0.0924034-0.232378-0.2528381-0.1431866l-0.0842476,0.0505066
							c-0.1011772,0.0607815-0.1651726,0.1366711-0.2190971,0.2443008l-1.2976799,2.6545067
							c-0.033741,0.0758133-0.05056,0.1431885-0.05056,0.2106667v0.0505066c0,0.1418571,0.1124725,0.2226181,0.2527885,0.1348534
							l1.255558-0.7247772v0.6319962c0,0.1407928,0.0925179,0.1806412,0.2022285,0.1180878
							c0.103035-0.0687637,0.2022324-0.205349,0.2022324-0.34552v-0.6319962l0.29496-0.1770287
							c0.0989876-0.0495453,0.1853638-0.1834221,0.1853638-0.3116798
							C63.5674591,32.3216095,63.4750443,32.2841797,63.3820953,32.3462067z M61.6209106,33.3657951l1.0533295-2.1907959
							l0.0084343,1.5756683L61.6209106,33.3657951z"/></g><g><path fill="#f5c9c6" d="M120.9425659,37.6074219l-1.3169708,3.5200577
						c-0.0382462,0.3834877-5.0383682-1.4331017-5.0747604-1.9014359l0.2074585-4.3334007L120.9425659,37.6074219z"/><path fill="#6f93f1" d="M117.3112335,35.9817047c-0.4852982-0.0249786-0.722908,4.5820236-0.2376099,4.6070023
						c1.2257767,0.5029488,2.468895,0.9034195,2.4882889,0.7089691l1.3806686-3.690258L117.3112335,35.9817047z"/><path fill="#f45170" d="M98.9988098,31.750843c-3.4714203-1.9973602-0.949913-9.8273029,3.5658417-12.4346771l0,0
											c2.9695129-1.7149239,5.4435501-0.2978344,5.4531937,3.1097908
											c0.0093002,3.2906075-2.3116608,7.3121777-5.1739578,8.9645348
											C101.6422653,32.0842552,100.1966248,32.4405174,98.9988098,31.750843z M102.8100128,19.7870998
											c-2.7055054,1.562273-4.8992767,5.3607712-4.8905258,8.4681416
											c0.0085678,3.0030441,2.0560684,4.1783485,4.6790237,2.6643219
											c2.7043991-1.5613174,4.8973694-5.3604507,4.8886185-8.4690933
											C107.4785614,19.4505653,105.4306259,18.2739468,102.8100128,19.7870998L102.8100128,19.7870998z"/><path fill="#c9cee2" d="M112.269371,28.4105568l-0.004158,2.77878l-0.004158,1.4247036l-12.2364883-1.0675011
											c-4.0562286-0.811245-1.9463272-9.0909481,2.6998291-11.775425
											c1.7486725-1.0135021,3.2855072-0.8348751,4.1411514,0.2616787l0.2201233,0.3239918L112.269371,28.4105568z"/><path fill="#e3e7f0" d="M112.269371,28.4105568l-0.004158,2.77878l-10.7868881-0.9428234
											c-1.2876053-0.2575722-2.1390915-1.4662304-2.1432495-3.3893967
											c-0.004158-2.2595291,1.154686-4.8804703,2.832756-6.7287998
											c1.5823364-1.1150303,3.5494461-1.5671024,4.6977158-0.0955238l0.2201233,0.3239918L112.269371,28.4105568z"/><path fill="#e9e8e6" d="M114.4400406,34.5053406c-0.0040207-0.006691-0.0093765-0.0147209-0.0133896-0.0214119
																	h0.0013351C114.4320068,34.4906197,114.4360199,34.4973106,114.4400406,34.5053406z"/><path fill="#f45170" d="M114.5485611,28.8200798c-0.3688431-0.2128468-0.0604019,1.4406624-0.6278915,1.7669468
													c-1.1279221,0.6526546-2.1974487,0.6580162-2.1974487,1.9561825
													c0.007103,0.6455116-0.4377594,1.0509415-0.0688705,1.2637444l-2.6143112-1.509491
													c-0.3688889-0.2128029-0.5958939-0.666811-0.5958939-1.3123226
													c-0.007103-1.3052654,0.9079742-2.8800545,2.0358963-3.5326653
													c0.5674896-0.3334274,1.0853653-0.3617878,1.4542084-0.1489849L114.5485611,28.8200798z"/><path fill="#df3260" d="M113.0943069,28.9633331c1.1304092-0.6526432,2.0484467-0.1294804,2.0521317,1.1694489
													c0.003685,1.2998371-0.9083939,2.8796158-2.0388031,3.5322609
													c-1.1312027,0.6530991-2.0492401,0.1299362-2.0529251-1.1699028
													C111.0510254,31.1962128,111.9631042,29.6164322,113.0943069,28.9633331z"/><g><path fill="#4c5c75" d="M112.119873,32.041729l-0.0073776,7.0842018
									c-0.0005798,0.2071877,0.1358566,0.4145889,0.4088974,0.5722237c0.5449142,0.314579,1.4245453,0.3139992,1.9648743,0
									c0.2685852-0.156105,0.4032059-0.3605003,0.4037857-0.5652122l0.0073776-7.0912132H112.119873z"/></g><g><path fill="#d4daea" d="M115.5844574,29.836134c-0.3214645-0.1855068-0.0526428,1.2556076-0.5472336,1.5399799
												c-0.9830399,0.568819-1.915184,0.5734921-1.915184,1.7049065
												c0.0061874,0.5625954-0.3815308,0.915947-0.0600281,1.1014137l-1.0712204-0.6152382
												c-0.3215027-0.1854668-0.5193481-0.5811577-0.5193481-1.1437531
												c-0.0061874-1.1376019,0.7913437-2.510107,1.7743835-3.0788879
												c0.4945908-0.2905998,0.9459457-0.3153152,1.2674103-0.1298485L115.5844574,29.836134z"/><path fill="#f1f6fa" d="M114.3170013,29.9609852c0.9852066-0.5688095,1.7853241-0.1128483,1.7885361,1.0192318
												c0.003212,1.1328697-0.7917099,2.5097237-1.7769165,3.0785332
												c-0.9859009,0.5692101-1.7860107,0.1132469-1.7892227-1.0196228
												C112.5361862,31.9070473,113.3311081,30.5301933,114.3170013,29.9609852z"/></g><g><path fill="#4c5c75" d="M115.3296967 31.2631798c.0799179-.0461445.1450653-.0090199.1453247.0827999.000267.0918179-.0644684.2010441-.1443939.2471886l-2.0154037 1.1635952c-.0799103.0461349-.14505.0118904-.1453094-.0799294s.0644684-.2039261.144371-.2500572L115.3296967 31.2631798zM115.3317795 31.9978104c.0799179-.0461445.1450653-.0090179.1453247.0828018.000267.0918579-.0644608.2039642-.1443863.2501068l-2.0154037 1.1635971c-.0799103.0461349-.1450577.0090065-.1453171-.0828514-.0002594-.0918159.0644608-.2039223.144371-.2500572L115.3317795 31.9978104zM115.3276062 30.5256672c.0799179-.0461445.1450653-.0090199.1453247.0827999s-.0644608.2039242-.1443863.2500687l-2.0154037 1.1635971c-.0799103.0461349-.1450577.0090103-.1453171-.0828114-.0002594-.0918179.0644608-.2039242.144371-.2500591L115.3276062 30.5256672z"/></g><g><path fill="#f4d6d4" d="M112.7746353,36.4219284c-0.0619659,1.2014732-0.1662445,2.1726761-0.8647614,2.1366463
						c-0.6985245-0.036026-1.2145538-1.0392189-1.1525879-2.2406921c0.0619659-1.2014771,0.6784668-2.1462593,1.3769836-2.1102333
						C112.8327942,34.2436752,112.8366013,35.2204514,112.7746353,36.4219284z"/></g><g><path fill="#f1f6fa" d="M110.4818344,32.0075493c0.0985336,0.0568886,0.1795502,0.197216,0.1792297,0.310421
							l-0.0004578,0.1613464c-0.0003204,0.113205-0.0818634,0.1596756-0.1804047,0.102787l-0.9852219-0.568821
							c-0.0985184-0.056881-0.1820068-0.1986351-0.1816864-0.3118401l0.0004578-0.1613445
							c0.0003204-0.1132069,0.0843353-0.1582508,0.1828537-0.1013699L110.4818344,32.0075493z"/></g><g><path fill="#6f93f1" d="M131.2275543,48.7537346l-0.1105804-12.5205345
								C131.1169739,36.2332001,137.3844299,37.9885864,131.2275543,48.7537346z"/><path fill="#f45170" d="M126.535881,126.6117172l0.1297073,4.8678818h1.5993805
								c-0.0433807-1.4517365-0.0569916-4.1270218,0.3549194-5.5052338
								c0.5827942-1.9501419-1.0196152-3.9642639-1.0196152-3.9642639l-4.3826447-0.4964905l-1.4064789,5.07061
								c0,0-1.03685,0.3540115-1.4065552,1.9455795c-0.3696976,1.591568,2.3482285,1.3746948,3.4914551,1.150589
								C125.0392456,129.4561768,126.535881,126.6117172,126.535881,126.6117172z"/><path fill="#f4d6d4" d="M122.3606949,122.7086945c0,0-0.1999588,3.5113068-0.7090912,4.0596085
								c0,0,2.1930923-2.1124649,2.3430557-4.2774734L122.3606949,122.7086945z"/><path fill="#f45170" d="M118.5776749,123.0196991c0,0,2.8803406,1.6326141,0.9301071,6.239212V134l-1.3872223-0.1184998
								c0,0-0.5716248-4.3375854-1.580368-3.2952271c-1.0087433,1.0423737-3.0934753,3.9340973-6.7249527,2.8244781
								s-0.4163818-5.0368805,2.3641052-4.1660461l1.1664963-2.424408l2.3537292-4.6738434L118.5776749,123.0196991z"/><path fill="#f4d6d4" d="M112.4904785,126.5842667c0,0,0.0896835,2.5187912-0.6952667,3.377327
								c-0.7849503,0.858551,1.3123398-0.0367889,1.545372-1.0179749s2.9122391-4.5625229,2.9122391-4.5625229
								L112.4904785,126.5842667z"/><path fill="#4c5c75" d="M133.3072968,76.1062927c0,0-1.7361908,13.3122482-1.8067932,21.6277542
								c-0.0706024,8.3112869-3.655159,24.4107208-3.655159,24.4107208
								c0.0415268,0.3238907-1.5659103,0.6395645-3.0529099,0.7641907
								c-1.2419205,0.0996857-2.3924713,0.0705795-2.4298401-0.1993637c0,0-0.9354782-20.9600372-1.076683-26.7584305
								c-0.1370773-5.7984009-0.8796692-26.0295792-0.8796692-26.0295792l7.248024,3.4765549L133.3072968,76.1062927z"/><path fill="#425168" d="M118.5786819,123.0211182c0.1246033,0.4569321-1.2087097,1.4620743-2.662468,2.3094177
								c-1.6406784,0.963562-3.4350281,1.7237015-3.426712,1.2543945c0.9968719-4.598053-3.3869476-19.9554291-5.1397476-23.9013367
								c-1.7528305-3.9459152,0.8532333-28.7745667,0.8532333-28.7745667s3.5596313-1.1961899,7.3352585-2.0144882
								c4.2657242-0.926239,9.2456741-1.3236542,8.7806778,0.9470367
								c-0.7931747,3.8733521-8.5377045,25.3556747-8.0662689,27.1187897
								C118.9981689,105.3600311,118.5786819,123.0211182,118.5786819,123.0211182z"/><path fill="#4c5c75" d="M115.4011688,121.3347321c0.3821259,1.2835007,0.7891922,2.6874619,0.5150452,3.9958038
								c-1.6406784,0.963562-3.4350281,1.7237015-3.426712,1.2543945c0.9968719-4.598053-3.3869476-19.9554291-5.1397476-23.9013367
								c-1.7528305-3.9459152,0.8532333-28.7745667,0.8532333-28.7745667s3.5596313-1.1961899,7.3352585-2.0144882
								c0.3115234,0.0664749,0.5981216,0.1952591,0.822403,0.4153595c0.3613586,0.3530502,0.4859619,0.8847198,0.5565948,1.387291
								c0.7725601,5.3457184-2.159874,15.0983124-3.3810349,20.360939
								c-1.1090012,4.7724686-0.8016357,9.7443085-0.4569092,14.6289368
								c0.0872345,1.2377625,0.178627,2.4755249,0.3281555,3.7050705
								C113.7812576,115.4283371,114.528923,118.4065323,115.4011688,121.3347321z"/><path fill="#425168" d="M133.3072968,76.1062927c0,0-1.7361908,13.3122482-1.8067932,21.6277542
								c-0.0706024,8.3112869-3.655159,24.4107208-3.655159,24.4107208
								c0.0415268,0.3238907-1.5659103,0.6395645-3.0529099,0.7641907c0.0540009-0.1827316,0.0996857-0.3654633,0.1453934-0.5481949
								c0.3821259-1.4703903,0.7600861-2.9449387,0.9802399-4.4485855
								c0.5731964-3.9583893,0.0124512-7.9873505,0.1910477-11.9830551
								c0.1578445-3.4766006,0.8764343-6.9033203,1.241951-10.3674011
								c0.6064072-5.8067093,0.2076797-16.3236084,0.3031998-22.1635818L133.3072968,76.1062927z"/><path fill="#8fabfe" d="M133.3072968,77.4447861c-0.8176575,2.8558655-12.9176559,2.6406784-20.4065933,2.5866318
								c-3.0736465-0.0207443-5.3290405-0.1619492-5.6281128-0.3198395
								c-1.0300827-0.5399323,0.8556366-8.2947083,2.3259964-13.6902237
								c0.834877-3.0528793,0.7227478-7.4307327,0.6479874-11.7131081v-0.004158
								c-0.0166321-0.9220848-0.0290756-1.8400154-0.0332336-2.7372551
								c-0.004158-2.3010559,0.0622864-4.4775352,0.3696747-6.2968102c0.2741241-1.6448059,1.8026428-3.1110344,3.8503647-4.3654289
								v-0.004158c4.2577362-2.6094551,10.7769089-4.3198471,13.0450745-4.8637695
								c0.7572174-0.1815834,1.5385895-0.2582626,2.3114777-0.1635284c4.8651886,0.5963287,2.9943848,6.5437317,2.7697296,9.1517868
								c-0.2450714,2.845253-1.491745,8.0746765-0.3121033,15.189785
								C133.4230042,67.3256607,134.1267242,74.5828094,133.3072968,77.4447861z"/><path fill="#f4d6d4" d="M87.2880478,36.4004669L82.939827,40.417923c0,0-2.9807587-0.7826271-4.3482285-2.1808815
								c-1.3675232-1.3879395,0.3098068-3.6940384,0.4914703-5.0193062c0.1709061-1.3148251-3.8888397-3.2139416-3.2691727-4.580864
								c0.6089096-1.3566036,4.3100662,1.8105373,6.4681702,2.8227024
								C84.450798,32.4823151,87.2880478,36.4004669,87.2880478,36.4004669z"/><path fill="#8fabfe" d="M115.9644547,40.0599365l-1.2900391,1.2799072l-0.3399658,11.0300293l-1.7950592-0.137394
								c0,0-12.2919464,2.3206825-16.4919586,0.3106728c-4.0999756-1.960083-14.3930359-12.4533081-14.3930359-12.4533081
								c-0.2999878-0.2299805-0.0299683-1.0499268,0.5-2c1-1.7999268,3.0452194-4.3374634,3.6252365-3.9074097
								c0,0,9.394783,7.8474731,12.6848221,9.5275269C101.7644424,45.3798828,115.9644547,40.0599365,115.9644547,40.0599365z"/><path fill="#6f93f1" d="M113.9644547,58.2598877c-1.0300293,4.5999756-2.0400391,8.5999756-1.1300049,13.2200928
								c0.3800049,1.9099121,0.4799805,3.8399658,0.5299683,5.7799072c0.0200195,0.9300537-0.1199951,1.9000244-0.460022,2.7700195
								c-3.0799561-0.0200195-5.3299561-0.1600342-5.6299438-0.3199463
								c-1.0300293-0.5400391,0.8499756-8.2900391,2.3199463-13.6900635c0.8400269-3.0499268,0.710022-9.2199707,0.6300049-13.5
								c2.4519958-0.4260254,4.6839142-0.9888916,6.1799927-2.0100098
								C116.9744034,52.8199463,114.4744034,55.9499512,113.9644547,58.2598877z"/><g><path fill="#f4d6d4" d="M116.8905869,22.7411461c0,0-0.1193237,3.2040005,0.3727722,4.3922234
								s-0.4015656,1.9249496-0.665451,2.6983967c-0.2638931,0.773447,0.2991867,6.1842289,2.4729156,6.134634
								s2.6408691-12.1751175,2.4663162-12.4238186C121.3625793,23.2938805,116.8905869,22.7411461,116.8905869,22.7411461z"/><path fill="#f1f6fa" d="M127.7132187,38.568325c-4.4363861,1.9385529-6.3672104,1.7795944-8.8994904-0.5725632
								c2.6282349-1.1546516,6.5591049-2.0619583,9.9056778-1.9032822
								C128.7194061,36.0924797,129.1794739,37.9274826,127.7132187,38.568325z"/><path fill="#8a4852" d="M129.6013184,35.2937927c0,0-7.7189255,7.0473328-14.5217819,7.5444565
								c0,0,6.7323761-8.2683792,4.1590042-14.4547443c-2.4541626-5.901495-2.5122757-6.0356121-2.5122757-6.0356121
								s-0.7772675-1.5159836,0.8093185-2.7185001c1.589325-1.2064419,11.9034882-6.1453924,14.69487,2.2852211
								C135.0257263,30.3479557,129.6013184,35.2937927,129.6013184,35.2937927z"/></g></g></g></g></svg>