<svg xmlns="http://www.w3.org/2000/svg" enable-background="new 0 0 51 51" viewBox="0 0 51 51"><path fill="#EFC348" d="M42.59929,4.26503c0.98589-0.56921,1.79105-0.11251,1.79427,1.02465l0.06689,23.59225
				c0.00322,1.13716-0.79671,2.52055-1.78261,3.08976L12.74396,49.25402c-0.98962,0.57136-1.79292,0.11359-1.79615-1.02356
				L10.88093,24.6382c-0.00322-1.13716,0.79486-2.51948,1.78448-3.09084L42.59929,4.26503z"/><path fill="#FFE2A9" d="M39.53447,1.62084c-0.32543-0.18912-0.77578-0.16247-1.27189,0.12397L8.32872,19.02714
				c-0.98965,0.57137-1.78773,1.95369-1.78451,3.09085L6.6111,45.71023c0.00161,0.56493,0.20066,0.96218,0.52192,1.14889
				l4.33674,2.52021c-0.32126-0.18669-0.52035-0.58396-0.52192-1.14887L10.88095,24.6382
				c-0.00322-1.13716,0.79482-2.51948,1.78448-3.09083L42.5993,4.26502c0.49611-0.28643,0.94646-0.31307,1.27187-0.12395
				L39.53447,1.62084z"/><path fill="#FFD651" d="M10.87958,24.63737l0.07001,23.59003c0,0.57001,0.19995,0.96997,0.51996,1.15002L7.12958,46.8574
				c-0.32001-0.17999-0.52002-0.58002-0.52002-1.15002L6.53955,22.11741c0-1.14001,0.79999-2.52002,1.78998-3.09003l4.34003,2.52002
				C11.67957,22.11741,10.87958,23.49741,10.87958,24.63737z"/><path fill="#C4990D" d="M10.8836,25.57012l0.25514,0.03304l0.01292,0.00167c-0.0616-0.0013-0.12233-0.00506-0.18337-0.00795
						c-0.02811-0.00133-0.05626-0.00252-0.08462-0.00311L10.8836,25.57012z"/><path fill="#CEA03A" d="M44.3963,6.24523c-3.7726,5.70214-9.87012,14.16884-14.0461,19.82914
							c-1.30873,1.77403-2.38081,3.21188-2.67121,3.60279c-4.84658-0.87918-12.17864-2.45758-16.79531-4.0834
							c0.02824,0.00094,0.05639,0.00212,0.08461,0.00312c0.06105,0.00289,0.12178,0.00665,0.18338,0.00795
							c5.26862,0.20505,11.69594,1.2778,16.52351,2.06564C32.23121,21.57292,39.53709,12.0321,44.3963,6.24523z"/><path fill="#DDB040" d="M44.3963 6.24524l.06147 21.68122L30.3502 26.07437C34.52327 20.41801 40.62344 11.94776 44.3963 6.24524zM10.88367 25.59377c4.04537 1.42461 9.90971 2.6974 14.11245 3.57394L10.94514 47.27499 10.88367 25.59377z"/><path fill="#FFF" d="M14.34664,23.77738c-1.73099,0-3.19995,1.4037-3.19995,3.20001c0-1.77002-1.42999-3.20001-3.19-3.20001
		c1.76112,0,3.19-1.4192,3.19-3.19C11.14668,22.34445,12.57526,23.77738,14.34664,23.77738z"/></svg>