<svg xmlns="http://www.w3.org/2000/svg" id="Layer_1" x="0" y="0" enable-background="new 0 0 140 140" version="1.1" viewBox="0 0 140 140" xml:space="preserve"><g id="Video_Mail"><polygon fill="#febc1f" points="81.933 25.789 76.539 22.654 41.2 7.97 6.06 63.345 6.221 120.08 11.615 123.215 82.094 82.524"/><polygon fill="#ef7b56" points="46.594 11.104 41.2 7.97 76.539 22.654 81.933 25.789"/><polygon fill="#febc1f" points="11.615 123.215 6.221 120.08 6.06 63.345 11.454 66.48"/><polygon fill="#f3a250" points="11.454 66.48 6.06 63.345 41.2 7.97 46.594 11.104"/><polygon fill="#febc1f" points="46.594 11.104 81.933 25.789 82.094 82.524 11.615 123.215 11.454 66.48"/><g><polygon fill="#c9cee2" points="72.374 7.592 70.402 6.446 17.354 37.074 17.557 108.772 19.529 109.918 72.577 79.291"/><polygon fill="#c9cee2" points="19.529 109.918 17.557 108.772 17.354 37.074 19.326 38.22"/><polygon fill="#d4daea" points="19.326 38.22 17.354 37.074 70.402 6.446 72.374 7.592"/><polygon fill="#f1f6fa" points="72.374 7.592 72.577 79.291 19.529 109.918 19.326 38.22"/><polygon fill="#f45170" points="23.663 40.716 68.241 14.981 68.241 44.895 23.833 70.529"/><polygon fill="#e3e7f0" points="23.663 73.885 68.241 48.15 68.241 51.008 23.833 76.642"/><polygon fill="#e3e7f0" points="23.663 80.41 68.241 54.675 68.241 57.533 23.833 83.168"/></g><g><polygon fill="#ffd06c" points="81.933 25.724 82.094 82.524 46.773 74.47"/><polygon fill="#febc1f" points="46.773 74.47 82.094 82.524 11.615 123.215"/><polygon fill="#ffd06c" points="11.454 66.415 46.773 74.47 11.615 123.215"/></g><g><path fill="#fff" d="M45.9302673,34.438015c3.9970894-2.3077202,7.2479553-0.4551964,7.2609863,4.1414223
								c0.0130081,4.5893211-3.2167435,10.1834335-7.2138329,12.4911537
								c-4.0001907,2.3095093-7.2510338,0.456974-7.2640457-4.1323471
								C38.7003441,42.3416252,41.9300766,36.7475243,45.9302673,34.438015z M43.9078331,47.8997192l5.9566154-7.4031906
								l-5.9821548-0.5101738L43.9078331,47.8997192"/><polygon fill="#f45170" points="43.882 39.986 49.864 40.497 43.908 47.9"/></g><g><path fill="#f4d6d4" d="M119.347084,110.7744522c0,0,0.5212708,1.193222-1.1597519,1.3682404
							c0,0,0.1324921,0.5750809-0.951004,0.5294647c0,0,0.0798416,0.6843109-0.9852524,0.5364838
							c0,0,0.1757507,0.4694824-1.0441666,0.5657883c0,0-3.8640518,0.211998-5.7230682-0.9234467
							s5.7169418-2.6915283,5.7169418-2.6915283L119.347084,110.7744522z"/><path fill="#e5b6b5" d="M118.1873474 112.1426773c-.217926.0543213-.4295959-.0120468-.6254883-.0793381-.1885376-.0902328-.3763428-.1893692-.5108337-.3659439C117.4761047 111.7827377 117.8113708 111.9462662 118.1873474 112.1426773zM117.245697 112.6703186c-.2179565.0543213-.4295959-.0120468-.6255188-.0793381-.1885071-.0902328-.3763123-.1893692-.5108032-.3659439C116.5344543 112.310379 116.8697205 112.4739075 117.245697 112.6703186zM116.2513733 113.2086487c-.217926.0543137-.4295654-.0120544-.6254883-.0793381-.1885376-.0902405-.3763123-.1893692-.5108337-.3659515C115.5401611 112.8487091 115.8753967 113.0122299 116.2513733 113.2086487z"/><path fill="#f4d6d4" d="M122.081871,86.7660141c5.3102264,1.1224365,12.0107651-1.7810898,11.8550034-4.2268906
							c-0.167038-2.4352875-6.8780823-1.4277573-6.8780823-1.4277573s1.0948029-1.2146454,1.6047363-2.3190002
							c0.4985809-1.0937729-1.036644-2.0189514-1.9554062-1.1359558c-0.9524002,0.9036407-4.8718262,3.2724991-4.8718262,3.2724991
							S116.7712631,85.6544724,122.081871,86.7660141z"/><path fill="#5094ff" d="M98.313736,79.0941086c-0.3869095,0.2767334,0.9125366,9.8251114,3.6863861,10.455246
							c4.7480698,1.0786209,20.8399048-2.2579651,20.8399048-2.2579651c0.9418106-0.1363602-0.2383499-6.9329681-1.1801682-6.796608
							l-15.4705811,1.6644821c-2.5544281-16.6545868-8.63694-20.5421181-8.63694-20.5421181L98.313736,79.0941086z"/><path fill="#e5b6b5" d="M90.453331,127.8056412c0,0,0.6827927,5.8109512-1.8568268,4.2824783
						c0,0-1.6047745,0.6058502-2.1192245-0.7199707s-0.3968811-2.7367249-0.3968811-2.7367249L90.453331,127.8056412z"/><path fill="#f4d6d4" d="M107.839798,113.017868l-0.1465912,0.1242065l-20.3842392,17.4051819
						c-0.842453,0.7167969-1.7516479,1.3551788-2.7325974,1.8663177
						c-10.6350708,5.5414734-10.295784-10.9116211-10.295784-10.9116211l-1.0726013-16.8507843l1.7215271-0.5514755
						l14.4032211-4.6205521l1.2296524,11.0123138l0.3229523,2.8990326L107.839798,113.017868z"/><path fill="#f5c9c6" d="M108.7658157,112.2906647L87.3090134,130.547226
						c-0.842453,0.7167969-1.7516556,1.3551788-2.732605,1.8663177
						c-10.6351089,5.5415497-10.2958221-10.9115906-10.2958221-10.9115906v-17.7021942l1.7215271-0.5514755
						c-0.5514908,7.3978653-0.4060211,15.244339,1.2186203,22.4856949c0.2856903,1.2718658,0.6471024,2.6793823,1.6060181,3.5587616
						c0.6856308,0.6285095,1.6097412,0.9464569,2.533844,1.0458527c2.1140289,0.2285309,4.6278839-1.0512238,6.3618317-2.2858887
						c1.7314606-1.232132,3.1623383-2.8344421,4.6553268-4.3497772c4.3174896-4.3671646,9.290802-8.0834732,14.7037888-10.9825058
						c0.4024658-0.2161255,0.8197861-0.4297562,1.2719193-0.457077
						C108.4950485,112.2533951,108.6316605,112.2633438,108.7658157,112.2906647z"/><path fill="#f45170" d="M91.4095764,111.7159042c-6.9700317-0.3099976-12,2.4400024-14.7800293,4.5400391v0.0100098
						c-1.6699829,1.2599487-2.539978,2.289978-2.539978,2.289978c-0.4699707-5.2700195-1.4699707-9.4899902-0.8800049-13.9000244
						l12.5-4.0199585l3.6199951-1.1600342l0.460022,2.7299805l0.0999756,0.5900269L91.4095764,111.7159042z"/><path fill="#f5c9c6" d="M128.6440277,105.4574509c-0.2484283,3.2294159-10.5729752,6.8880692-19.9483643,7.5285492
						c-7.7390289,0.5286942-26.1938477-8.2844925-26.1938477-8.2844925l1.9451294-4.6354523l2.2779617-5.4303894
						l11.551384-0.9961548c0,0,7.3581085,0.6309738,13.8343277,1.7389145
						c3.4803238,0.5962067,6.7072601,1.3290253,8.3989944,2.1761322
						C125.3537369,99.9766235,128.8924408,102.2280273,128.6440277,105.4574509z"/><path fill="#e93565" d="M112.2695618,95.3958969l-0.1599731-0.0199585
						c-2.5900269,1.2699585-6.8900146,5.9500122-10.9400024,10.1400146c0,0-5.4400024-1.3200073-10.6600342-3.0700073
						l-0.7199707-0.2400513c-1.4400024-0.5-2.8400269-1.0299683-4.0800171-1.5699463
						c-0.4400024-0.1900024-0.8599854-0.3800049-1.2600098-0.5700073l2.2800293-5.4299927l11.5499878-1
						c0,0,0.7399902,0.0599976,1.960022,0.1799927C102.8995667,94.0858994,107.8295593,94.6359482,112.2695618,95.3958969z"/><path fill="#df3260" d="M100.2395935,93.8159409v0.0100098c0,0-3.7000122,5.1799927-9.7300415,8.6199951
						c-0.2099609,0.1300049-0.4099731,0.2399902-0.6199951,0.3499756c-1.1099854,0.5999756-2.289978,1.1400146-3.539978,1.5700073
						c-6.6000366,2.2799683-12.8681412,4.5812454-9.7200317,11.8900146v0.0100098
						c-1.6699829,1.2599487-2.539978,2.289978-2.539978,2.289978c-0.4699707-5.2700195-1.4699707-9.4899902-0.8800049-13.9000244
						l12.5-4.0199585c-0.4400024-0.1900024-0.8599854-0.3800049-1.2600098-0.5700073l2.2800293-5.4299927l11.5499878-1
						C98.2795715,93.6359482,99.0195618,93.6959457,100.2395935,93.8159409z"/><path fill="#57b3fe" d="M100.1195984,93.4459457c0.2599487,4.3200073-26.9100342,15.1399536-27.0300293,11.3899536
						c0,0-2.7661514-24.8458939-1.4861832-31.1259232c1.2700195-6.2800293,9.5961685-10.0040855,9.5961685-10.0040855
						c20.2700195-9.75,18.0499878,2.4900551,18.4700317,6.5000038
						C100.0295715,73.7459335,101.2795715,85.5159531,100.1195984,93.4459457z"/><path fill="#f5c9c6" d="M90.9597626,115.8226318c0,0-4.2805557,6.2589722-6.8755951,5.4096832
						c-2.8524475-0.9335251-1.6915894,2.533844,0.8641205,1.5084c1.0997772-0.4412613,2.9793015-2.1245728,4.2769318-3.5732956
						C90.6107178,117.6205978,93.1644669,115.283699,90.9597626,115.8226318z"/><path fill="#dedffb" d="M119.2995911,105.6458969v0.6800537c0,0.1299438-0.0900269,0.2599487-0.25,0.3599854
																	l-25.960022,14.8900146c-0.3400269,0.1900024-0.8900146,0.1999512-1.2399902,0l-15.8599854-9.1600342
																	c-0.1700439-0.0899658-0.25-0.2299805-0.25-0.3599854v-0.6799927
																	c0-0.1300049,0.0799561-0.2600098,0.2599487-0.3599854l25.9500122-14.8900146
																	c0.3400269-0.2000122,0.9000244-0.2000122,1.2399902,0l15.8600464,9.1499634
																	C119.219574,105.3759384,119.2995911,105.5159531,119.2995911,105.6458969z"/><path fill="#dedffb" d="M75.7366409,111.3726959l0.0048523,0.6881104
																						c0,0.1300735,0.0824127,0.2601776,0.2521133,0.3565445l15.8581314,9.1594162
																						c0.3442001,0.1975327,0.901741,0.1927109,1.2411118,0L119.044693,106.68367
																						c0.1696777-0.0963669,0.2569656-0.2264404,0.2569656-0.3613663l-0.0048523-0.6881027
																						c0,0.1349182-0.0824356,0.2650223-0.2569656,0.3613663l-25.9518433,14.8930893
																						c-0.3393707,0.1927109-0.8969116,0.1975327-1.2411118-0.0048218l-15.8581314-9.1545944
																						C75.8190765,111.6328735,75.7366409,111.5028,75.7366409,111.3726959z"/><path fill="#f3f1fc" d="M119.039093,105.9973373L93.0889053,120.886528
																						c-0.3399734,0.1994324-0.8973236,0.1994324-1.2428741,0l-15.8565979-9.1561661
																						c-0.3399734-0.1994019-0.3343964-0.5206833,0.0055771-0.7145767l25.9501877-14.8946991
																						c0.3399734-0.1938934,0.9029007-0.1938934,1.2429123,0l15.8565674,9.1561661
																						C119.3902283,105.4766541,119.3791046,105.8034821,119.039093,105.9973373z"/><g><path fill="#dedffb" d="M98.2494812,104.5600433l-4.3604126-2.5238953
																					c-0.1779785-0.102066-0.4380569-0.102066-0.6023788,0l-6.7562408,3.8709183
																					c-0.1711273,0.095253-0.1711273,0.251709,0,0.346962l0.0068512,0.0067673l6.7493896-3.8709183
																					c0.1643219-0.1020203,0.4244003-0.1020203,0.6023788,0l4.3535995,2.517128h0.006813
																					C98.4206085,104.8117905,98.4206085,104.6552963,98.2494812,104.5600433z"/><path fill="#fff" d="M93.2866898,102.3898773l-6.7493896,3.8709183l4.3535614,2.5171356
																					c0.1779785,0.1020584,0.4449539,0.1020584,0.6229324,0l6.7288742-3.8709259l-4.3535995-2.517128
																					C93.7110901,102.2878571,93.4510117,102.2878571,93.2866898,102.3898773z"/></g><g><polygon fill="#4c5c75" points="103.169 112.471 103.697 112.776 102.472 113.479 101.944 113.174"/><polygon fill="#4c5c75" points="103.155 104.747 104.372 105.45 103.149 106.152 101.932 105.448"/><polygon fill="#4c5c75" points="113.223 106.702 113.751 107.007 112.528 107.709 112 107.404"/><polygon fill="#4c5c75" points="107.924 108.909 106.707 108.207 107.93 107.504 109.147 108.208"/><polygon fill="#4c5c75" points="103.073 106.628 104.288 107.33 103.063 108.033 101.848 107.331"/><polygon fill="#4c5c75" points="101.492 113.433 102.02 113.738 100.795 114.441 100.267 114.136"/><polygon fill="#4c5c75" points="102.895 111.795 101.678 111.092 102.903 110.389 104.12 111.092"/><polygon fill="#4c5c75" points="103.606 104.488 108.184 101.861 109.401 102.564 104.824 105.191"/><polygon fill="#4c5c75" points="101.48 105.708 102.697 106.411 101.472 107.114 100.254 106.411"/><polygon fill="#4c5c75" points="99.803 106.67 101.02 107.373 99.797 108.075 98.58 107.372"/><polygon fill="#4c5c75" points="99.543 113.719 98.326 113.015 99.551 112.312 100.768 113.015"/><polygon fill="#4c5c75" points="108.016 105.624 109.233 106.326 108.008 107.029 106.79 106.326"/><polygon fill="#4c5c75" points="106.519 110.549 107.047 110.854 105.824 111.556 105.296 111.251"/><polygon fill="#4c5c75" points="101.558 105.233 100.341 104.53 101.564 103.828 102.781 104.531"/><polygon fill="#4c5c75" points="101.22 112.756 100.003 112.053 101.228 111.35 102.446 112.053"/><polygon fill="#4c5c75" points="98.14 115.356 98.669 115.662 97.443 116.365 96.915 116.06"/><polygon fill="#4c5c75" points="98.046 109.512 99.262 110.214 98.036 110.917 96.821 110.215"/><polygon fill="#4c5c75" points="98.128 107.631 99.346 108.334 98.12 109.037 96.903 108.334"/><polygon fill="#4c5c75" points="97.952 112.799 96.735 112.096 97.96 111.393 99.178 112.096"/><polygon fill="#4c5c75" points="99.817 114.394 100.345 114.699 99.12 115.402 98.592 115.097"/><polygon fill="#4c5c75" points="97.868 114.679 96.651 113.976 97.877 113.273 99.094 113.976"/><polygon fill="#4c5c75" points="111.548 107.663 112.076 107.968 110.851 108.672 110.323 108.367"/><polygon fill="#4c5c75" points="110.058 106.283 112.959 104.619 114.176 105.322 111.276 106.986"/><polygon fill="#4c5c75" points="104.748 105.667 105.963 106.369 104.74 107.071 103.525 106.369"/><polygon fill="#4c5c75" points="104.572 110.833 103.355 110.13 104.578 109.428 105.795 110.131"/><polygon fill="#4c5c75" points="106.333 107.991 105.116 107.288 106.339 106.586 107.556 107.289"/><polygon fill="#4c5c75" points="103.233 104.272 102.016 103.569 103.241 102.865 104.458 103.569"/><polygon fill="#4c5c75" points="110.908 105.366 109.685 106.067 108.468 105.364 109.691 104.662"/><polygon fill="#4c5c75" points="108.196 109.586 108.724 109.891 107.499 110.595 106.971 110.29"/><polygon fill="#4c5c75" points="106.425 104.705 107.64 105.406 106.415 106.109 105.2 105.408"/><polygon fill="#4c5c75" points="104.664 107.547 105.882 108.25 104.656 108.953 103.439 108.25"/><polygon fill="#4c5c75" points="99.721 108.551 100.936 109.253 99.711 109.956 98.496 109.254"/><polygon fill="#4c5c75" points="104.844 111.51 105.372 111.815 104.147 112.518 103.619 112.213"/><polygon fill="#4c5c75" points="102.981 109.914 101.764 109.211 102.987 108.509 104.204 109.212"/><polygon fill="#4c5c75" points="101.396 107.59 102.611 108.292 101.388 108.994 100.173 108.292"/><polygon fill="#4c5c75" points="99.629 111.837 98.412 111.134 99.637 110.431 100.855 111.134"/><polygon fill="#4c5c75" points="104.91 103.31 103.693 102.606 106.593 100.942 107.81 101.645"/><polygon fill="#4c5c75" points="109.871 108.626 110.399 108.931 109.176 109.632 108.648 109.327"/><polygon fill="#4c5c75" points="101.304 110.876 100.087 110.173 101.312 109.47 102.53 110.173"/><polygon fill="#4c5c75" points="110.142 104.403 111.368 103.7 112.585 104.403 111.36 105.106"/><polygon fill="#4c5c75" points="106.877 104.446 109.777 102.781 110.992 103.483 108.092 105.147"/><polygon fill="#4c5c75" points="113.674 106.443 114.9 105.74 115.428 106.045 114.203 106.748"/><polygon fill="#4c5c75" points="109.599 107.949 108.382 107.245 109.607 106.542 110.825 107.245"/><polygon fill="#4c5c75" points="106.247 109.872 105.03 109.169 106.255 108.466 107.472 109.169"/><polygon fill="#4c5c75" points="96.453 108.592 97.671 109.295 96.445 109.998 95.228 109.295"/><polygon fill="#4c5c75" points="96.369 110.475 97.584 111.176 96.359 111.879 95.144 111.178"/><polygon fill="#4c5c75" points="94.788 117.28 95.317 117.585 94.091 118.288 93.563 117.983"/><polygon fill="#4c5c75" points="96.465 116.318 96.994 116.622 95.768 117.325 95.24 117.02"/><polygon fill="#4c5c75" points="96.277 113.76 95.06 113.058 96.286 112.354 97.503 113.058"/><polygon fill="#4c5c75" points="94.517 116.603 93.299 115.9 94.525 115.196 95.742 115.9"/><polygon fill="#4c5c75" points="96.192 115.642 94.974 114.938 96.199 114.235 97.417 114.938"/><polygon fill="#4c5c75" points="94.776 109.554 95.994 110.257 94.768 110.96 93.551 110.257"/><polygon fill="#4c5c75" points="94.694 111.435 95.91 112.137 94.684 112.84 93.469 112.139"/><polygon fill="#4c5c75" points="94.609 113.317 95.826 114.02 94.6 114.723 93.383 114.02"/><polygon fill="#4c5c75" points="93.113 118.241 93.642 118.546 92.417 119.249 91.888 118.944"/><polygon fill="#4c5c75" points="93.101 110.515 94.319 111.219 93.093 111.922 91.876 111.219"/><polygon fill="#4c5c75" points="92.926 115.684 91.708 114.981 92.934 114.277 94.151 114.981"/><polygon fill="#4c5c75" points="93.018 112.398 94.233 113.1 93.007 113.802 91.792 113.101"/><polygon fill="#4c5c75" points="91.622 116.862 92.847 116.159 94.065 116.862 92.84 117.565"/><polygon fill="#4c5c75" points="88.15 112.926 86.933 112.223 88.158 111.52 89.376 112.223"/><polygon fill="#4c5c75" points="92.474 115.943 89.574 117.607 88.356 116.904 91.257 115.24"/><polygon fill="#4c5c75" points="91.502 111.003 90.285 110.299 99.889 104.789 101.106 105.492"/><polygon fill="#4c5c75" points="91.332 114.764 90.117 114.062 91.343 113.359 92.558 114.061"/><polygon fill="#4c5c75" points="89.206 115.984 87.981 116.687 86.765 115.985 87.991 115.282"/><polygon fill="#4c5c75" points="83.581 114.146 86.482 112.482 87.699 113.185 84.798 114.849"/><polygon fill="#4c5c75" points="91.424 111.478 92.642 112.181 91.416 112.884 90.199 112.181"/><polygon fill="#4c5c75" points="89.825 111.965 88.608 111.262 89.833 110.558 91.051 111.262"/><polygon fill="#4c5c75" points="88.073 113.401 89.29 114.104 88.064 114.807 86.847 114.104"/><polygon fill="#4c5c75" points="92.39 117.823 91.165 118.526 89.947 117.823 91.173 117.12"/><polygon fill="#4c5c75" points="87.615 115.065 86.39 115.768 85.172 115.065 86.398 114.362"/><polygon fill="#4c5c75" points="89.75 112.439 90.967 113.142 89.741 113.845 88.524 113.142"/><polygon fill="#4c5c75" points="89.666 114.321 90.881 115.023 89.656 115.726 88.44 115.024"/></g><g><path fill="#d19d9d" d="M88.5965118,132.0881195c0.0232391-0.8069916,0.1199875-1.5504608,0.0819855-2.3492889
						c0.1936569,0.3630829,0.2182159,0.7844391,0.2086258,1.1842499
						C88.8486328,131.3235474,88.7821808,131.7245789,88.5965118,132.0881195z"/></g><g><path fill="#f5c9c6" d="M86.5201492,104.9434967c2.0037537-0.9265137,3.6965942-0.9639664,5.7207947-0.3574448
							c1.5306549,0.6713028,4.1184006,0.668457,4.3774338,1.2466812c0.241478,0.535408-0.0850677,1.1876221-1.6793518,0.8143005
							c-0.1045532-0.0325317-0.1472168,0.0633774-0.0633926,0.1460114c1.1150131,0.9080811,5.3522263,2.62854,4.2734528,3.8615417
							c-0.8609619,0.8845139-4.1615982-1.2226028-4.0713501-1.2791519c0.1446075,0.0097504-2.7903748,3.5500336-5.393631,1.5203781
							c-1.7432022-1.3696823-3.3009186-3.5307083-3.6572495-4.927063
							C85.8834763,105.515892,86.0938797,105.1292953,86.5201492,104.9434967z"/></g><g><path fill="#5094ff" d="M68.7885666,97.4558563c2.5463181,5.2495193,18.720314,11.9309311,18.720314,11.9309311
										c0.6578674,0.1377869,2.8563614-5.7354126,2.198494-5.8731995l-13.1112061-8.7145767
										c-0.7321014-0.5067673-1.0573273-1.4131241-0.8016052-2.2482834
										c1.0698929-3.6135254,4.8616257-15.5963745,4.100235-20.7851257
										c-0.3198853-2.1373444-3.5603256-3.7921753-5.3719254-2.6163788
										c-0.8755493,0.564003-1.7797318,1.5057144-2.4704437,3.0677872
										C70.1621246,76.5171051,66.3071213,92.3309937,68.7885666,97.4558563z"/></g><g><path fill="#f5c9c6" d="M81.1949921,57.4631233l0.2865295,4.5016174l0.0594101,1.8035851
												c3.6314621,4.9227905,9.9775314,2.7929153,9.9775314,2.7929153l0.3708725-1.8779602
												c-3.0478821-0.5328293-5.8246155-2.8022194-7.638298-4.2470551
												C83.2042542,59.6257133,81.1949921,57.4631233,81.1949921,57.4631233z"/><path fill="#f4d6d4" d="M82.3325119,59.2281952c0,0,0.6220551,0.6214752,1.6733627,1.4337578
											c1.8052292,1.4528313,4.8427353,3.5283699,7.8829651,4.074398
											c0.0265045,0.0011978,0.0782547,0.0298538,0.1311874,0.0322418
											c0.8956223,0.1459503,1.8086548,0.2003708,2.6685715-0.0377426
											c4.1123123-1.1592674,3.513176-16.0998154,1.9862671-18.1335526
											c-2.5507278,1.8364372-6.4117661,3.600441-10.8058548,2.4790077l-0.0132599-0.0005951
											c-0.1095123,0.0741692-0.2056885,0.1489372-0.2898865,0.2506485
											c-0.3735733,0.3391838-0.6188431,0.7763939-0.77388,1.2704735
											c-0.6853867,2.250309-3.7056656-2.0113487-3.7056656-2.0113487l1.5112228,3.8595657
											c0,0-0.1510544-1.0310669-1.9116898,0.643219C78.899971,54.7350159,82.3325119,59.2281952,82.3325119,59.2281952z"/><path fill="#8a4852" d="M82.1553116,62.8088455c0,0-1.9955292-8.8135948,0.0113983-9.2681618
												c1.969017-0.4563904,1.4634399,3.6194115,1.4634399,3.6194115l1.1893692,0.0536995l0.1041946-2.3078461
												c1.8245773-1.0267944,2.1257172-3.9272652,2.1257172-3.9272652s4.2490845,1.000248,8.0293884,0.230896
												c3.8197937-0.8052101,3.9819336-2.3019142,3.9819336-2.3019142
												c2.067688-6.4116936-4.4250488-7.1560249-8.7735825-8.047966
												c-4.3476944-0.9107208-10.2169113,0.8736076-12.0102768,8.3315773
												C76.4818192,56.686924,82.1553116,62.8088455,82.1553116,62.8088455z"/></g><g><path fill="#1d2943" d="M128.2308655,88.3743515c0.0137939,0.0079956,0.0323486,0.0109863,0.043335,0.0219116
					l-0.5939941-0.5891113c-0.109436-0.112915-0.3619385-0.0794678-0.7070313,0.1213379L99.558075,103.6595688
					c-0.5891724,0.3388062-1.2288818,1.0289307-1.4266968,1.5476074l-5.9215698,15.4215698
					c-0.0841675,0.2133179-0.0757446,0.3638916,0.0042114,0.4433594l0.5897827,0.5891113
					c-0.0204468-0.0214844-0.0222778-0.0609741-0.0324097-0.0926514c0.0640259,0.1956177,0.3289185,0.2075806,0.7390137-0.02771
					l27.4161377-15.7312012c0.5911865-0.3391724,1.2305298-1.03302,1.4287109-1.5490723l5.9221191-15.4213867
					C128.3716125,88.5938339,128.3425598,88.4400864,128.2308655,88.3743515z"/><path fill="#1d2943" d="M128.2742157,88.3962936c-0.109436-0.1087494-0.3619385-0.0752869-0.7070541,0.1212921
										l-27.4150772,15.731102c-0.5891953,0.3387909-1.22892,1.0289459-1.4267349,1.5475998l-5.9215317,15.4215851
										c-0.0841827,0.2133179-0.0757828,0.3638916,0,0.4433594l-0.589798-0.5891037
										c-0.0799713-0.0794754-0.0883713-0.2300415-0.0042191-0.443367l5.9215622-15.4215851
										c0.1978226-0.5186462,0.8375168-1.2088013,1.4267349-1.5475998l27.4150848-15.731102
										c0.345108-0.2007599,0.5976181-0.23423,0.7070465-0.1212845L128.2742157,88.3962936z"/><path fill="#9ea9c9" d="M127.5671539,88.5174255c0.5911407-0.3391953,0.9093018-0.1965942,0.7102356,0.3217697
										l-5.9221344,15.4214249c-0.1981583,0.5160141-0.837532,1.2098694-1.4286804,1.5490646l-27.4161911,15.7311554
										c-0.5884705,0.3376617-0.9057083,0.1927032-0.70755-0.3233109l5.922142-15.4214249
										c0.1990662-0.518364,0.8375168-1.2098618,1.4259872-1.5475159L127.5671539,88.5174255z"/><g><path fill="#fff" d="M112.8479156,103.7034607c-0.430603,1.1182327-1.8104019,2.6183548-3.0837097,3.3454208
								c-1.2733078,0.7316818-1.9585953,0.4187698-1.5326004-0.6948547
								c0.4306107-1.1182022,1.8104019-2.6183548,3.0883484-3.3499985
								C112.5886307,102.2769547,113.2738876,102.5898666,112.8479156,103.7034607z"/></g></g></g></g></svg>