<svg width="220" height="114" xmlns="http://www.w3.org/2000/svg" xmlns:xlink="http://www.w3.org/1999/xlink" xml:space="preserve" overflow="hidden"><defs><filter id="fx0" x="-10%" y="-10%" width="120%" height="120%" filterUnits="userSpaceOnUse" primitiveUnits="userSpaceOnUse"><feComponentTransfer color-interpolation-filters="sRGB"><feFuncR type="discrete" tableValues="1.000000 1.000000"/><feFuncG type="discrete" tableValues="1.000000 1.000000"/><feFuncB type="discrete" tableValues="1.000000 1.000000"/><feFuncA type="linear" slope="1.000000" intercept="0.000000"/></feComponentTransfer><feGaussianBlur stdDeviation="3.762488 3.762488"/></filter><filter id="fx1" x="-10%" y="-10%" width="120%" height="120%" filterUnits="userSpaceOnUse" primitiveUnits="userSpaceOnUse"><feComponentTransfer color-interpolation-filters="sRGB"><feFuncR type="discrete" tableValues="1.000000 1.000000"/><feFuncG type="discrete" tableValues="1.000000 1.000000"/><feFuncB type="discrete" tableValues="1.000000 1.000000"/><feFuncA type="linear" slope="1.000000" intercept="0.000000"/></feComponentTransfer><feGaussianBlur stdDeviation="3.762488 3.762488"/></filter><filter id="fx2" x="-10%" y="-10%" width="120%" height="120%" filterUnits="userSpaceOnUse" primitiveUnits="userSpaceOnUse"><feComponentTransfer color-interpolation-filters="sRGB"><feFuncR type="discrete" tableValues="1.000000 1.000000"/><feFuncG type="discrete" tableValues="1.000000 1.000000"/><feFuncB type="discrete" tableValues="1.000000 1.000000"/><feFuncA type="linear" slope="1.000000" intercept="0.000000"/></feComponentTransfer><feGaussianBlur stdDeviation="3.762488 3.762488"/></filter><filter id="fx3" x="-10%" y="-10%" width="120%" height="120%" filterUnits="userSpaceOnUse" primitiveUnits="userSpaceOnUse"><feComponentTransfer color-interpolation-filters="sRGB"><feFuncR type="discrete" tableValues="1.000000 1.000000"/><feFuncG type="discrete" tableValues="1.000000 1.000000"/><feFuncB type="discrete" tableValues="1.000000 1.000000"/><feFuncA type="linear" slope="1.000000" intercept="0.000000"/></feComponentTransfer><feGaussianBlur stdDeviation="3.762488 3.762488"/></filter><clipPath id="clip4"><rect x="2094" y="-9" width="220" height="114"/></clipPath><clipPath id="clip5"><rect x="-11.2874" y="-11.2875" width="235.575" height="136.575"/></clipPath><clipPath id="clip6"><rect x="0" y="0" width="213" height="114"/></clipPath><clipPath id="clip7"><rect x="1.53955" y="1.31403" width="160.575" height="23.5749"/></clipPath><clipPath id="clip8"><rect x="0" y="0" width="164" height="27"/></clipPath><clipPath id="clip9"><rect x="-11.2874" y="-11.2875" width="235.575" height="136.575"/></clipPath><clipPath id="clip10"><rect x="0" y="0" width="213" height="114"/></clipPath><clipPath id="clip11"><rect x="1.32568" y="1.31403" width="160.575" height="23.5749"/></clipPath><clipPath id="clip12"><rect x="0" y="0" width="164" height="27"/></clipPath></defs><g clip-path="url(#clip4)" transform="translate(-2094 9)"><g clip-path="url(#clip5)" filter="url(#fx0)" transform="translate(2095 -7)"><g clip-path="url(#clip6)"><path d="M10.906 0.615C16.81 0.615 20.582-4.346 20.541-13.161 20.5-21.402 17.261-26.035 11.685-26.035 5.781-26.035 2.009-21.115 2.009-12.259 2.009-4.018 5.33 0.615 10.906 0.615ZM11.193-23.862C15.58-23.862 17.958-19.926 17.958-12.628 17.958-5.453 15.58-1.558 11.357-1.558 6.929-1.558 4.592-5.494 4.592-12.792 4.592-19.967 6.929-23.862 11.193-23.862ZM32.6337 0.451C38.0047 0.451 43.0067-3.813 43.0067-10.783 43.0067-16.605 39.7677-20.295 35.4627-20.295 33.0027-20.295 30.9937-19.27 29.4357-17.999L29.4357-28.823 26.9347-28.618 26.9347-0.533C28.6977 0.123 30.6657 0.451 32.6337 0.451ZM33.4947-1.722C32.2237-1.722 30.8707-1.968 29.4357-2.46L29.4357-16.318C30.8707-17.466 32.7157-18.204 34.5607-18.204 38.0047-18.204 40.5467-15.334 40.5467-10.168 40.5467-4.715 37.4717-1.722 33.4947-1.722ZM60.6753-23.247 60.9213-28.659 58.3383-28.659 58.2153-23.247ZM60.9623-1.64 60.9623-19.844 49.5643-19.844 49.4003-18.122 58.4613-17.794 58.4613-1.189C58.4613 3.157 56.9853 4.387 47.6783 4.797L47.5963 7.175C57.8873 6.765 60.9623 4.1 60.9623-1.64ZM87.2 0.451 87.528-1.722C77.36-2.009 74.367-4.182 74.121-9.307L88.225-9.635C88.963-15.949 86.216-20.336 80.886-20.336 75.761-20.336 71.661-15.703 71.661-9.676 71.661-3.239 75.064 0.246 87.2 0.451ZM80.394-18.245C84.166-18.245 86.011-15.416 85.929-11.275L74.121-10.947C74.367-15.539 76.745-18.245 80.394-18.245ZM95.1517-9.635C95.1517-3.608 98.5547 0.82 110.404 0.164L110.732-1.968C100.441-1.517 97.6117-4.633 97.6117-9.963 97.6117-14.432 99.9897-17.63 110.404-17.794L110.24-20.172C98.8827-19.803 95.1517-15.006 95.1517-9.635ZM133.402 0.369 133.607-1.804C126.596-1.927 124.628-2.911 124.628-6.601L124.628-17.876 133.197-17.876 133.197-19.844 124.628-19.844 124.628-25.707 122.168-25.461 122.168-19.844 118.314-19.844 117.986-17.876 122.168-17.876 122.168-6.191C122.168-1.435 125.038 0.41 133.402 0.369Z" fill="#FFFFFF" fill-rule="nonzero" fill-opacity="1" transform="matrix(1 0 0 1 37.8269 66)"/></g></g><text fill="#FFFFFF" fill-opacity="1" font-family="Operator Mono Light,Operator Mono Light_MSFontService,sans-serif" font-style="normal" font-variant="normal" font-weight="300" font-stretch="normal" font-size="41" text-anchor="start" direction="ltr" writing-mode="lr-tb" unicode-bidi="normal" text-decoration="none" transform="matrix(1 0 0 1 2132.83 55)">Object</text><g clip-path="url(#clip7)" filter="url(#fx1)" transform="translate(2120 48)"><g clip-path="url(#clip8)"><path d="M12.8269 12.6015 47.3269 12.6015 81.8269 12.6015 116.327 12.6015 150.827 12.6015 150.827 13.6015 116.327 13.6015 81.8269 13.6015 47.3269 13.6015 12.8269 13.6015Z" fill="#FFFFFF" fill-rule="evenodd" fill-opacity="1"/></g></g><path d="M2132.83 57.1806 2167.33 57.1806 2201.83 57.1806 2236.33 57.1806 2270.83 57.1806 2270.83 58.1806 2236.33 58.1806 2201.83 58.1806 2167.33 58.1806 2132.83 58.1806Z" fill="#FFFFFF" fill-rule="evenodd" fill-opacity="1"/><g clip-path="url(#clip9)" filter="url(#fx2)" transform="translate(2099 -7)"><g clip-path="url(#clip10)"><path d="M10.906 0.615C16.81 0.615 20.582-4.346 20.541-13.161 20.5-21.402 17.261-26.035 11.685-26.035 5.781-26.035 2.009-21.115 2.009-12.259 2.009-4.018 5.33 0.615 10.906 0.615ZM11.193-23.862C15.58-23.862 17.958-19.926 17.958-12.628 17.958-5.453 15.58-1.558 11.357-1.558 6.929-1.558 4.592-5.494 4.592-12.792 4.592-19.967 6.929-23.862 11.193-23.862ZM32.6337 0.451C38.0047 0.451 43.0067-3.813 43.0067-10.783 43.0067-16.605 39.7677-20.295 35.4627-20.295 33.0027-20.295 30.9937-19.27 29.4357-17.999L29.4357-28.823 26.9347-28.618 26.9347-0.533C28.6977 0.123 30.6657 0.451 32.6337 0.451ZM33.4947-1.722C32.2237-1.722 30.8707-1.968 29.4357-2.46L29.4357-16.318C30.8707-17.466 32.7157-18.204 34.5607-18.204 38.0047-18.204 40.5467-15.334 40.5467-10.168 40.5467-4.715 37.4717-1.722 33.4947-1.722ZM60.6753-23.247 60.9213-28.659 58.3383-28.659 58.2153-23.247ZM60.9623-1.64 60.9623-19.844 49.5643-19.844 49.4003-18.122 58.4613-17.794 58.4613-1.189C58.4613 3.157 56.9853 4.387 47.6783 4.797L47.5963 7.175C57.8873 6.765 60.9623 4.1 60.9623-1.64ZM87.2 0.451 87.528-1.722C77.36-2.009 74.367-4.182 74.121-9.307L88.225-9.635C88.963-15.949 86.216-20.336 80.886-20.336 75.761-20.336 71.661-15.703 71.661-9.676 71.661-3.239 75.064 0.246 87.2 0.451ZM80.394-18.245C84.166-18.245 86.011-15.416 85.929-11.275L74.121-10.947C74.367-15.539 76.745-18.245 80.394-18.245ZM95.1517-9.635C95.1517-3.608 98.5547 0.82 110.404 0.164L110.732-1.968C100.441-1.517 97.6117-4.633 97.6117-9.963 97.6117-14.432 99.9897-17.63 110.404-17.794L110.24-20.172C98.8827-19.803 95.1517-15.006 95.1517-9.635ZM133.402 0.369 133.607-1.804C126.596-1.927 124.628-2.911 124.628-6.601L124.628-17.876 133.197-17.876 133.197-19.844 124.628-19.844 124.628-25.707 122.168-25.461 122.168-19.844 118.314-19.844 117.986-17.876 122.168-17.876 122.168-6.191C122.168-1.435 125.038 0.41 133.402 0.369Z" fill="#7F7F7F" fill-rule="nonzero" fill-opacity="1" transform="matrix(1 0 0 1 37.613 66)"/></g></g><text fill="#7F7F7F" fill-opacity="1" font-family="Operator Mono Light,Operator Mono Light_MSFontService,sans-serif" font-style="normal" font-variant="normal" font-weight="300" font-stretch="normal" font-size="41" text-anchor="start" direction="ltr" writing-mode="lr-tb" unicode-bidi="normal" text-decoration="none" transform="matrix(1 0 0 1 2136.61 55)">Object</text><g clip-path="url(#clip11)" filter="url(#fx3)" transform="translate(2124 48)"><g clip-path="url(#clip12)"><path d="M12.613 12.6015 47.113 12.6015 81.613 12.6015 116.113 12.6015 150.613 12.6015 150.613 13.6015 116.113 13.6015 81.613 13.6015 47.113 13.6015 12.613 13.6015Z" fill="#7F7F7F" fill-rule="evenodd" fill-opacity="1"/></g></g><path d="M2136.61 57.1806 2171.11 57.1806 2205.61 57.1806 2240.11 57.1806 2274.61 57.1806 2274.61 58.1806 2240.11 58.1806 2205.61 58.1806 2171.11 58.1806 2136.61 58.1806Z" fill="#7F7F7F" fill-rule="evenodd" fill-opacity="1"/></g></svg>