<svg id="_x31_plus1" enable-background="new 0 0 300 300" height="512" viewBox="0 0 300 300" width="512" xmlns="http://www.w3.org/2000/svg"><g><path d="m228 70c7.719 0 14-6.281 14-14s-6.281-14-14-14-14 6.281-14 14 6.281 14 14 14zm0-20c3.309 0 6 2.691 6 6s-2.691 6-6 6-6-2.691-6-6 2.691-6 6-6z"/><circle cx="216" cy="92" r="4.53"/><path d="m71.121 67.012c.781.781 1.805 1.172 2.828 1.172s2.047-.391 2.828-1.172l3.068-3.068 3.068 3.068c.781.781 1.805 1.172 2.828 1.172s2.047-.391 2.828-1.172c1.562-1.562 1.562-4.094 0-5.656l-3.068-3.068 3.068-3.068c1.562-1.562 1.562-4.094 0-5.656s-4.094-1.562-5.656 0l-3.068 3.068-3.068-3.068c-1.562-1.562-4.094-1.562-5.656 0s-1.562 4.094 0 5.656l3.068 3.068-3.068 3.068c-1.562 1.562-1.562 4.093 0 5.656z"/><path d="m142 90h4v4c0 2.209 1.789 4 4 4s4-1.791 4-4v-4h4c2.211 0 4-1.791 4-4s-1.789-4-4-4h-4v-4c0-2.209-1.789-4-4-4s-4 1.791-4 4v4h-4c-2.211 0-4 1.791-4 4s1.789 4 4 4z"/><path d="m119.789 77.578 2.211-1.105v25.527c0 2.209 1.789 4 4 4s4-1.791 4-4v-32c0-1.387-.719-2.674-1.898-3.402-1.18-.73-2.652-.795-3.891-.176l-8 4c-1.977.988-2.777 3.391-1.789 5.367s3.39 2.777 5.367 1.789z"/><path d="m171.789 77.578 2.211-1.105v25.527c0 2.209 1.789 4 4 4s4-1.791 4-4v-32c0-1.387-.719-2.674-1.898-3.402-1.18-.73-2.648-.795-3.891-.176l-8 4c-1.977.988-2.777 3.391-1.789 5.367s3.39 2.777 5.367 1.789z"/><path d="m159.266 206.205c-2.109-.709-4.363.436-5.059 2.529l-5.957 17.861-3.422-3.424c-1.562-1.562-4.094-1.562-5.656 0s-1.562 4.094 0 5.656l8 8c.758.76 1.781 1.172 2.828 1.172.305 0 .613-.035.918-.107 1.352-.318 2.438-1.312 2.875-2.627l8-24c.699-2.095-.434-4.361-2.527-5.06z"/><path d="m262 138h-22.914c7.688-6.677 10.687-15.016 6.863-20.072h-.004c-2.246-2.973-6.168-4.123-11.074-3.199-3.918.73-8.223 2.756-12.113 5.703-4.12 3.119-7.07 6.732-8.758 10.262-1.688-3.53-4.638-7.142-8.758-10.262-3.891-2.947-8.195-4.973-12.113-5.703-4.887-.92-8.824.225-11.074 3.199h-.004c-3.823 5.056-.825 13.396 6.863 20.072h-22.914c-2.211 0-4 1.791-4 4v16c0 2.209 1.789 4 4 4h4v30.087c-5.725-3.84-12.604-6.087-20-6.087s-14.275 2.247-20 6.087v-30.087h4c2.211 0 4-1.791 4-4v-16c0-2.209-1.789-4-4-4h-22.914c7.688-6.677 10.687-15.016 6.863-20.072h-.004c-2.246-2.973-6.168-4.123-11.074-3.199-3.918.73-8.223 2.756-12.113 5.703-4.12 3.119-7.07 6.732-8.758 10.262-1.688-3.53-4.638-7.142-8.758-10.262-3.891-2.947-8.195-4.973-12.113-5.703-4.891-.92-8.824.225-11.074 3.199h-.004c-3.823 5.056-.825 13.396 6.863 20.072h-22.914c-2.211 0-4 1.791-4 4v16c0 2.209 1.789 4 4 4h4v56c0 2.209 1.789 4 4 4h68c0 19.85 16.148 36 36 36s36-16.15 36-36h68c2.211 0 4-1.791 4-4v-56h4c2.211 0 4-1.791 4-4v-16c0-2.209-1.789-4-4-4zm-52 16v-8h8v8zm8 8v52h-8v-52zm9.586-35.189c2.879-2.182 6.07-3.719 8.754-4.219.668-.125 1.215-.17 1.66-.17 1.043 0 1.504.254 1.566.334.602.795-.98 5.76-7.152 10.434-2.879 2.182-6.07 3.719-8.754 4.219-2.242.422-3.145-.051-3.227-.164-.601-.794.977-5.759 7.153-10.434zm-39.152-4.055c.09-.117.988-.584 3.227-.164 2.684.5 5.875 2.037 8.754 4.219 6.176 4.676 7.754 9.641 7.156 10.434-.082.107-.996.586-3.23.164-2.684-.5-5.875-2.037-8.754-4.219-6.173-4.674-7.755-9.639-7.153-10.434zm-18.434 23.244h32v8h-32zm-40 8h-32v-8h32zm-48 0v-8h8v8zm8 8v52h-8v-52zm9.586-35.189c2.879-2.182 6.07-3.719 8.754-4.219.668-.125 1.215-.17 1.66-.17 1.043 0 1.504.254 1.566.334.602.795-.98 5.76-7.152 10.434-2.879 2.182-6.07 3.719-8.754 4.219-2.234.422-3.145-.051-3.227-.164-.601-.794.977-5.759 7.153-10.434zm-39.152-4.055c.09-.117.992-.584 3.227-.164 2.684.5 5.875 2.037 8.754 4.219 6.176 4.676 7.754 9.641 7.156 10.434-.082.107-.996.586-3.23.164-2.684-.5-5.875-2.037-8.754-4.219-6.173-4.674-7.755-9.639-7.153-10.434zm-18.434 23.244h32v8h-32zm8 16h24v52h-24zm48 52v-52h24v37.422c-3.385 4.19-5.836 9.153-7.073 14.578zm52 36c-15.438 0-28-12.561-28-28s12.562-28 28-28 28 12.561 28 28-12.562 28-28 28zm35.073-36c-1.237-5.424-3.688-10.387-7.073-14.578v-37.422h24v52zm64.927 0h-24v-52h24zm8-60h-32v-8h32z"/></g></svg>