<svg id="calculate" enable-background="new 0 0 300 300" height="512" viewBox="0 0 300 300" width="512" xmlns="http://www.w3.org/2000/svg"><g><path d="m99.532 43.17c2.362 0 4.276-1.915 4.276-4.276s-1.915-4.277-4.276-4.277-4.277 1.915-4.277 4.277 1.915 4.276 4.277 4.276z"/><path d="m80.828 54.555c-1.562-1.562-4.094-1.562-5.656 0l-3.172 3.172-3.172-3.172c-1.562-1.562-4.094-1.562-5.656 0s-1.562 4.094 0 5.656l3.172 3.172-3.172 3.172c-1.562 1.562-1.562 4.094 0 5.656.781.781 1.805 1.172 2.828 1.172s2.047-.391 2.828-1.172l3.172-3.172 3.172 3.172c.781.781 1.805 1.172 2.828 1.172s2.047-.391 2.828-1.172c1.562-1.562 1.562-4.094 0-5.656l-3.172-3.172 3.172-3.172c1.563-1.562 1.563-4.093 0-5.656z"/><path d="m221.133 57.383h-110.266c-9.301 0-16.867 7.567-16.867 16.865v174.27c0 9.299 7.566 16.865 16.867 16.865h110.266c9.301 0 16.867-7.566 16.867-16.865v-174.27c0-9.298-7.566-16.865-16.867-16.865zm8.867 191.135c0 4.889-3.977 8.865-8.867 8.865h-110.266c-4.891 0-8.867-3.977-8.867-8.865v-174.27c0-4.889 3.977-8.865 8.867-8.865h110.266c4.891 0 8.867 3.977 8.867 8.865z"/><path d="m222 69.383h-112c-2.211 0-4 1.791-4 4v48c0 2.209 1.789 4 4 4h112c2.211 0 4-1.791 4-4v-48c0-2.209-1.789-4-4-4zm-4 48h-104v-40h104z"/><path d="m218 193.383h-24c-2.211 0-4 1.791-4 4v52c0 2.209 1.789 4 4 4h24c2.211 0 4-1.791 4-4v-52c0-2.209-1.789-4-4-4zm-4 52h-16v-44h16z"/><path d="m218 161.383h-24c-2.211 0-4 1.791-4 4v20c0 2.209 1.789 4 4 4h24c2.211 0 4-1.791 4-4v-20c0-2.209-1.789-4-4-4zm-4 20h-16v-12h16z"/><path d="m218 129.383h-24c-2.211 0-4 1.791-4 4v20c0 2.209 1.789 4 4 4h24c2.211 0 4-1.791 4-4v-20c0-2.209-1.789-4-4-4zm-4 20h-16v-12h16z"/><path d="m178 161.383h-24c-2.211 0-4 1.791-4 4v20c0 2.209 1.789 4 4 4h24c2.211 0 4-1.791 4-4v-20c0-2.209-1.789-4-4-4zm-4 20h-16v-12h16z"/><path d="m178 193.383h-24c-2.211 0-4 1.791-4 4v20c0 2.209 1.789 4 4 4h24c2.211 0 4-1.791 4-4v-20c0-2.209-1.789-4-4-4zm-4 20h-16v-12h16z"/><path d="m178 225.383h-24c-2.211 0-4 1.791-4 4v20c0 2.209 1.789 4 4 4h24c2.211 0 4-1.791 4-4v-20c0-2.209-1.789-4-4-4zm-4 20h-16v-12h16z"/><path d="m178 129.383h-24c-2.211 0-4 1.791-4 4v20c0 2.209 1.789 4 4 4h24c2.211 0 4-1.791 4-4v-20c0-2.209-1.789-4-4-4zm-4 20h-16v-12h16z"/><path d="m138 161.383h-24c-2.211 0-4 1.791-4 4v20c0 2.209 1.789 4 4 4h24c2.211 0 4-1.791 4-4v-20c0-2.209-1.789-4-4-4zm-4 20h-16v-12h16z"/><path d="m138 193.383h-24c-2.211 0-4 1.791-4 4v20c0 2.209 1.789 4 4 4h24c2.211 0 4-1.791 4-4v-20c0-2.209-1.789-4-4-4zm-4 20h-16v-12h16z"/><path d="m138 225.383h-24c-2.211 0-4 1.791-4 4v20c0 2.209 1.789 4 4 4h24c2.211 0 4-1.791 4-4v-20c0-2.209-1.789-4-4-4zm-4 20h-16v-12h16z"/><path d="m138 129.383h-24c-2.211 0-4 1.791-4 4v20c0 2.209 1.789 4 4 4h24c2.211 0 4-1.791 4-4v-20c0-2.209-1.789-4-4-4zm-4 20h-16v-12h16z"/><path d="m186.121 113.262c1.023 0 2.047-.391 2.828-1.172l20-20c1.562-1.562 1.562-4.094 0-5.656s-4.094-1.562-5.656 0l-20 20c-1.562 1.562-1.562 4.094 0 5.656.781.781 1.805 1.172 2.828 1.172z"/><path d="m188.12 95.792c2.501 0 4.529-2.028 4.529-4.53 0-2.501-2.028-4.529-4.529-4.529s-4.53 2.028-4.53 4.529c.001 2.503 2.029 4.53 4.53 4.53z"/><path d="m204.12 102.734c-2.501 0-4.53 2.028-4.53 4.529 0 2.502 2.028 4.53 4.53 4.53s4.529-2.028 4.529-4.53-2.027-4.529-4.529-4.529z"/><path d="m142 93.383h6.094l-5.809 14.514c-.82 2.053.18 4.379 2.23 5.201.484.193.988.287 1.484.287 1.586-.002 3.09-.953 3.715-2.516l8-20c.492-1.232.34-2.629-.402-3.729-.746-1.1-1.984-1.758-3.312-1.758h-12c-2.211 0-4 1.791-4 4s1.789 4.001 4 4.001z"/><path d="m168 113.383c5.516 0 10-4.486 10-10v-8c0-5.514-4.484-10-10-10s-10 4.486-10 10v8c0 5.514 4.484 10 10 10zm-2-18c0-1.104.898-2 2-2s2 .896 2 2v8c0 1.104-.898 2-2 2s-2-.896-2-2z"/><path d="m126 105.383h8c2.211 0 4-1.791 4-4s-1.789-4-4-4h-8c-2.211 0-4 1.791-4 4s1.789 4 4 4z"/></g></svg>