<svg id="e-shop" enable-background="new 0 0 300 300" height="512" viewBox="0 0 300 300" width="512" xmlns="http://www.w3.org/2000/svg"><g><path d="m68 132c7.719 0 14-6.281 14-14s-6.281-14-14-14-14 6.281-14 14 6.281 14 14 14zm0-20c3.309 0 6 2.691 6 6s-2.691 6-6 6-6-2.691-6-6 2.691-6 6-6z"/><circle cx="240" cy="78" r="4.53"/><path d="m204.77 172h-74.77v-4c0-4.412 3.59-8 8-8 8.824 0 16-7.178 16-16v-20c0-2.209-1.789-4-4-4s-4 1.791-4 4v20c0 4.412-3.59 8-8 8-8.824 0-16 7.178-16 16v4h-78.77c-7.296 0-13.23 5.934-13.23 13.229v69.543c0 7.294 5.934 13.228 13.23 13.228h161.54c7.297 0 13.23-5.934 13.23-13.229v-69.543c0-7.294-5.934-13.228-13.23-13.228zm5.23 82.771c0 2.883-2.348 5.229-5.23 5.229h-161.54c-2.883 0-5.23-2.346-5.23-5.229v-69.543c0-2.883 2.348-5.229 5.23-5.229h161.54c2.883 0 5.23 2.346 5.23 5.229z"/><path d="m178 236h-80c-2.211 0-4 1.791-4 4v12c0 2.209 1.789 4 4 4h80c2.211 0 4-1.791 4-4v-12c0-2.209-1.789-4-4-4zm-4 12h-72v-4h72z"/><path d="m202 236h-12c-2.211 0-4 1.791-4 4v12c0 2.209 1.789 4 4 4h12c2.211 0 4-1.791 4-4v-12c0-2.209-1.789-4-4-4zm-4 12h-4v-4h4z"/><path d="m178 212h-12c-2.211 0-4 1.791-4 4v12c0 2.209 1.789 4 4 4h12c2.211 0 4-1.791 4-4v-12c0-2.209-1.789-4-4-4zm-4 12h-4v-4h4z"/><path d="m142 232h12c2.211 0 4-1.791 4-4v-12c0-2.209-1.789-4-4-4h-12c-2.211 0-4 1.791-4 4v12c0 2.209 1.789 4 4 4zm4-12h4v4h-4z"/><path d="m118 232h12c2.211 0 4-1.791 4-4v-12c0-2.209-1.789-4-4-4h-12c-2.211 0-4 1.791-4 4v12c0 2.209 1.789 4 4 4zm4-12h4v4h-4z"/><path d="m70 232h36c2.211 0 4-1.791 4-4v-12c0-2.209-1.789-4-4-4h-36c-2.211 0-4 1.791-4 4v12c0 2.209 1.789 4 4 4zm4-12h28v4h-28z"/><path d="m46 232h12c2.211 0 4-1.791 4-4v-12c0-2.209-1.789-4-4-4h-12c-2.211 0-4 1.791-4 4v12c0 2.209 1.789 4 4 4zm4-12h4v4h-4z"/><path d="m86 236h-40c-2.211 0-4 1.791-4 4v12c0 2.209 1.789 4 4 4h40c2.211 0 4-1.791 4-4v-12c0-2.209-1.789-4-4-4zm-4 12h-32v-4h32z"/><path d="m202 212h-12c-2.211 0-4 1.791-4 4v12c0 2.209 1.789 4 4 4h12c2.211 0 4-1.791 4-4v-12c0-2.209-1.789-4-4-4zm-4 12h-4v-4h4z"/><path d="m202 188h-12c-2.211 0-4 1.791-4 4s1.789 4 4 4h12c2.211 0 4-1.791 4-4s-1.789-4-4-4z"/><path d="m178 188h-12c-2.211 0-4 1.791-4 4s1.789 4 4 4h12c2.211 0 4-1.791 4-4s-1.789-4-4-4z"/><path d="m142 196h12c2.211 0 4-1.791 4-4s-1.789-4-4-4h-12c-2.211 0-4 1.791-4 4s1.789 4 4 4z"/><path d="m118 196h12c2.211 0 4-1.791 4-4s-1.789-4-4-4h-12c-2.211 0-4 1.791-4 4s1.789 4 4 4z"/><path d="m94 196h12c2.211 0 4-1.791 4-4s-1.789-4-4-4h-12c-2.211 0-4 1.791-4 4s1.789 4 4 4z"/><path d="m70 196h12c2.211 0 4-1.791 4-4s-1.789-4-4-4h-12c-2.211 0-4 1.791-4 4s1.789 4 4 4z"/><path d="m46 196h12c2.211 0 4-1.791 4-4s-1.789-4-4-4h-12c-2.211 0-4 1.791-4 4s1.789 4 4 4z"/><path d="m202 200h-12c-2.211 0-4 1.791-4 4s1.789 4 4 4h12c2.211 0 4-1.791 4-4s-1.789-4-4-4z"/><path d="m178 200h-12c-2.211 0-4 1.791-4 4s1.789 4 4 4h12c2.211 0 4-1.791 4-4s-1.789-4-4-4z"/><path d="m142 208h12c2.211 0 4-1.791 4-4s-1.789-4-4-4h-12c-2.211 0-4 1.791-4 4s1.789 4 4 4z"/><path d="m118 208h12c2.211 0 4-1.791 4-4s-1.789-4-4-4h-12c-2.211 0-4 1.791-4 4s1.789 4 4 4z"/><path d="m94 208h12c2.211 0 4-1.791 4-4s-1.789-4-4-4h-12c-2.211 0-4 1.791-4 4s1.789 4 4 4z"/><path d="m70 208h12c2.211 0 4-1.791 4-4s-1.789-4-4-4h-12c-2.211 0-4 1.791-4 4s1.789 4 4 4z"/><path d="m46 208h12c2.211 0 4-1.791 4-4s-1.789-4-4-4h-12c-2.211 0-4 1.791-4 4s1.789 4 4 4z"/><path d="m249.605 184.245v-16.245c0-8.822-7.176-16-16-16h-47.605c-4.41 0-8-3.588-8-8v-20c0-2.209-1.789-4-4-4s-4 1.791-4 4v20c0 8.822 7.176 16 16 16h47.605c4.41 0 8 3.588 8 8v16.365c-11.113 1.909-19.605 11.589-19.605 23.239v20.793c0 13.015 10.59 23.603 23.605 23.603h.789c13.016 0 23.606-10.588 23.606-23.604v-20.793c0-11.923-8.896-21.784-20.395-23.358zm12.395 44.151c0 8.604-7 15.604-15.605 15.604h-.789c-8.606 0-15.606-7-15.606-15.604v-20.793c0-8.603 7-15.603 15.605-15.603h.789c8.606 0 15.606 7 15.606 15.604z"/><path d="m246 196c-2.211 0-4 1.791-4 4v8c0 2.209 1.789 4 4 4s4-1.791 4-4v-8c0-2.209-1.789-4-4-4z"/><path d="m97.715 40h8.875l3.203 12.799 7.977 47.859c.32 1.928 1.988 3.342 3.945 3.342h.737c-.448 1.257-.737 2.591-.737 4 0 6.617 5.383 12 12 12s12-5.383 12-12c0-1.409-.289-2.743-.737-4h33.474c-.448 1.257-.737 2.591-.737 4 0 6.617 5.383 12 12 12s12-5.383 12-12c0-1.409-.289-2.743-.737-4h.737c1.957 0 3.625-1.414 3.945-3.342l8-48c.195-1.16-.133-2.346-.895-3.244-.758-.896-1.875-1.414-3.051-1.414h-92.878l-3.243-12.971c-.445-1.779-2.042-3.029-3.878-3.029h-12c-2.211 0-4 1.791-4 4s1.789 4 4 4zm40 68c0 2.205-1.793 4-4 4s-4-1.795-4-4 1.793-4 4-4 4 1.795 4 4zm56 0c0 2.205-1.793 4-4 4s-4-1.795-4-4 1.793-4 4-4 4 1.795 4 4zm11.277-52-6.664 40h-73.227l-6.664-40z"/><path d="m154.121 87.879c1.023 0 2.047-.391 2.828-1.172l20-20c1.562-1.562 1.562-4.094 0-5.656s-4.094-1.562-5.656 0l-20 20c-1.562 1.562-1.562 4.094 0 5.656.781.781 1.805 1.172 2.828 1.172z"/><path d="m156.12 70.409c2.501 0 4.529-2.028 4.529-4.53 0-2.501-2.028-4.529-4.529-4.529s-4.53 2.028-4.53 4.529c.001 2.502 2.029 4.53 4.53 4.53z"/><path d="m172.12 77.35c-2.501 0-4.53 2.028-4.53 4.529 0 2.502 2.028 4.53 4.53 4.53s4.529-2.028 4.529-4.53c0-2.501-2.027-4.529-4.529-4.529z"/><path d="m225.375 131.047c.781.781 1.805 1.172 2.828 1.172s2.047-.391 2.828-1.172l3.172-3.172 3.172 3.172c.781.781 1.805 1.172 2.828 1.172s2.047-.391 2.828-1.172c1.562-1.562 1.562-4.094 0-5.656l-3.172-3.172 3.172-3.172c1.562-1.562 1.562-4.094 0-5.656s-4.094-1.562-5.656 0l-3.172 3.172-3.172-3.172c-1.562-1.562-4.094-1.562-5.656 0s-1.562 4.094 0 5.656l3.172 3.172-3.172 3.172c-1.563 1.562-1.563 4.093 0 5.656z"/></g></svg>