<svg id="economy" enable-background="new 0 0 300 300" height="512" viewBox="0 0 300 300" width="512" xmlns="http://www.w3.org/2000/svg"><g><path d="m58.397 82.369c2.362 0 4.277-1.915 4.277-4.276s-1.915-4.276-4.277-4.276-4.276 1.915-4.276 4.276 1.914 4.276 4.276 4.276z"/><path d="m258 156h-17.6c-5.709-10.311-13.389-18.395-22.4-23.588v-24.412c0-2.209-1.791-4-4-4-14.787 0-27.48 7.426-34.439 20h-6.418c3.083-6.009 4.857-12.795 4.857-20 0-24.262-19.738-44-44-44s-44 19.738-44 44c0 7.205 1.774 13.991 4.857 20h-.857c-30.879 0-56 25.121-56 56v8c0 20.104 10.666 38.455 28 48.469v15.531c0 2.209 1.791 4 4 4h24c1.516 0 2.9-.855 3.578-2.211l2.879-5.76c11.691.088 56.285.018 79.072-.025l2.893 5.785c.678 1.356 2.062 2.211 3.578 2.211h20c2.209 0 4-1.791 4-4v-13.322c18.816-8.135 31.604-22.516 35.529-39.971l14.26-7.129c1.356-.678 2.211-2.062 2.211-3.578v-28c0-2.209-1.791-4-4-4zm-124-88c19.85 0 36 16.15 36 36s-16.15 36-36 36-36-16.15-36-36 16.15-36 36-36zm120 117.527-13.789 6.895c-1.123.562-1.918 1.619-2.145 2.854-4.119 22.385-22.771 32.789-33.525 37-1.533.6-2.541 2.078-2.541 3.725v12h-13.527l-2.895-5.789c-.678-1.357-2.062-2.212-3.578-2.212-.002 0-.006 0-.008 0-32.412.061-81.459.115-83.629.016-1.672-.139-3.205.721-3.941 2.195l-2.895 5.789h-17.527v-13.896c0-1.49-.828-2.857-2.15-3.547-15.946-8.319-25.85-24.625-25.85-42.557v-8c0-26.467 21.533-48 48-48h6.086c2.519 3.045 5.456 5.724 8.695 8h-22.781c-2.209 0-4 1.791-4 4s1.791 4 4 4h96c2.209 0 4-1.791 4-4s-1.791-4-4-4h-22.781c3.239-2.276 6.177-4.955 8.695-8h14.086c1.543 0 2.949-.889 3.611-2.281 4.707-9.891 13.65-16.229 24.389-17.486v22.555c0 1.5.84 2.875 2.174 3.559 9.092 4.664 16.791 12.783 22.266 23.477.683 1.336 2.058 2.176 3.56 2.176h16z"/><circle cx="208" cy="158" r="6"/><path d="m115.502 127.123c.736.59 1.619.877 2.496.877 1.172 0 2.336-.514 3.125-1.502l32-40c1.381-1.725 1.102-4.242-.625-5.621-1.723-1.377-4.24-1.104-5.621.625l-32 40c-1.381 1.725-1.102 4.242.625 5.621z"/><path d="m120 100c5.514 0 10-4.486 10-10s-4.486-10-10-10-10 4.486-10 10 4.486 10 10 10zm0-12c1.104 0 2 .896 2 2s-.896 2-2 2-2-.896-2-2 .896-2 2-2z"/><path d="m138 118c0 5.514 4.486 10 10 10s10-4.486 10-10-4.486-10-10-10-10 4.486-10 10zm12 0c0 1.104-.896 2-2 2s-2-.896-2-2 .896-2 2-2 2 .896 2 2z"/><path d="m194 68c6.617 0 12-5.383 12-12s-5.383-12-12-12-12 5.383-12 12 5.383 12 12 12zm0-16c2.205 0 4 1.795 4 4s-1.795 4-4 4-4-1.795-4-4 1.795-4 4-4z"/><path d="m156.283 190.242c-3.467-.682-7.027.207-9.781 2.41l-.502.403v-23.033c0-6.617-5.383-12-12-12s-12 5.383-12 12v23.033l-.086-.068c-2.643-2.115-6.113-3.094-9.525-2.676-3.213.387-6.021 1.953-7.906 4.404-1.625 2.111-2.482 4.635-2.482 7.301 0 3.668 1.641 7.086 4.504 9.375l19.998 16c2.209 1.766 4.854 2.648 7.498 2.648s5.289-.883 7.498-2.648h-.002l19.668-15.73c4.732-3.787 6.16-10.441 3.322-15.48-1.751-3.105-4.741-5.269-8.204-5.939zm-.117 15.172-19.666 15.73s0 0-.002 0c-1.469 1.176-3.525 1.176-4.998 0l-19.998-16c-.955-.764-1.502-1.904-1.502-3.129 0-.617.143-1.539.824-2.424.762-.992 1.91-1.266 2.525-1.34.191-.023.385-.035.578-.035 1.088 0 2.174.363 2.988 1.016l6.584 5.27c1.203.957 2.85 1.146 4.232.482 1.387-.666 2.268-2.068 2.268-3.605v-31.357c0-2.205 1.795-4 4-4s4 1.795 4 4v31.357c0 1.537.881 2.939 2.268 3.605 1.383.666 3.029.479 4.232-.482l7.002-5.604c.916-.732 2.105-1.021 3.262-.803 1.172.227 2.15.941 2.754 2.012.919 1.633.325 3.963-1.351 5.307z"/><path d="m217.375 91.047c.781.781 1.805 1.172 2.828 1.172s2.047-.391 2.828-1.172l3.172-3.172 3.172 3.172c.781.781 1.805 1.172 2.828 1.172s2.047-.391 2.828-1.172c1.562-1.562 1.562-4.094 0-5.656l-3.172-3.172 3.172-3.172c1.562-1.562 1.562-4.094 0-5.656s-4.094-1.562-5.656 0l-3.172 3.172-3.172-3.172c-1.562-1.562-4.094-1.562-5.656 0s-1.562 4.094 0 5.656l3.172 3.172-3.172 3.172c-1.563 1.562-1.563 4.093 0 5.656z"/></g></svg>