<svg id="news" enable-background="new 0 0 300 300" height="512" viewBox="0 0 300 300" width="512" xmlns="http://www.w3.org/2000/svg"><g><path d="m148 223.891c-6.617 0-12 5.383-12 12s5.383 12 12 12 12-5.383 12-12-5.383-12-12-12zm0 16c-2.205 0-4-1.795-4-4s1.795-4 4-4 4 1.795 4 4-1.795 4-4 4z"/><path d="m96.397 86.26c2.362 0 4.276-1.915 4.276-4.276 0-2.362-1.915-4.277-4.276-4.277s-4.277 1.915-4.277 4.277c0 2.361 1.915 4.276 4.277 4.276z"/><path d="m188.397 225.707c-2.362 0-4.277 1.915-4.277 4.277s1.915 4.276 4.277 4.276 4.276-1.915 4.276-4.276c0-2.363-1.914-4.277-4.276-4.277z"/><path d="m139.375 70.938c.781.781 1.805 1.172 2.828 1.172s2.047-.391 2.828-1.172l3.172-3.172 3.172 3.172c.781.781 1.805 1.172 2.828 1.172s2.047-.391 2.828-1.172c1.562-1.562 1.562-4.094 0-5.656l-3.172-3.172 3.172-3.172c1.562-1.562 1.562-4.094 0-5.656s-4.094-1.562-5.656 0l-3.172 3.172-3.172-3.172c-1.562-1.562-4.094-1.562-5.656 0s-1.562 4.094 0 5.656l3.172 3.172-3.172 3.172c-1.563 1.562-1.563 4.093 0 5.656z"/><path d="m52.397 146.26c2.362 0 4.276-1.915 4.276-4.276 0-2.362-1.915-4.277-4.276-4.277s-4.277 1.915-4.277 4.277c0 2.361 1.915 4.276 4.277 4.276z"/><path d="m52.397 149.707c-2.362 0-4.277 1.915-4.277 4.277s1.915 4.276 4.277 4.276 4.276-1.915 4.276-4.276c0-2.363-1.914-4.277-4.276-4.277z"/><path d="m234 115.891c-16.543 0-30 13.457-30 30s13.457 30 30 30 30-13.457 30-30-13.457-30-30-30zm0 52c-12.131 0-22-9.869-22-22s9.869-22 22-22 22 9.869 22 22-9.869 22-22 22z"/><path d="m241.293 132.941-20 20c-1.562 1.562-1.562 4.094 0 5.656.781.781 1.805 1.172 2.828 1.172s2.047-.391 2.828-1.172l20-20c1.562-1.562 1.562-4.094 0-5.656s-4.094-1.562-5.656 0z"/><path d="m226.12 142.3c2.501 0 4.529-2.028 4.529-4.53 0-2.501-2.028-4.529-4.529-4.529s-4.53 2.028-4.53 4.529c.001 2.502 2.029 4.53 4.53 4.53z"/><path d="m242.12 149.241c-2.501 0-4.53 2.028-4.53 4.529 0 2.502 2.028 4.53 4.53 4.53s4.529-2.028 4.529-4.53c0-2.501-2.027-4.529-4.529-4.529z"/><path d="m212 107.891h40c8.822 0 16-7.178 16-16s-7.178-16-16-16h-8c-2.209 0-4 1.791-4 4s1.791 4 4 4h8c4.412 0 8 3.588 8 8s-3.588 8-8 8h-40c-2.209 0-4 1.791-4 4s1.791 4 4 4z"/><path d="m252 183.891h-16c-2.209 0-4 1.791-4 4s1.791 4 4 4h16c4.412 0 8 3.588 8 8s-3.588 8-8 8h-8c-2.209 0-4 1.791-4 4s1.791 4 4 4h8c8.822 0 16-7.178 16-16s-7.178-16-16-16z"/><path d="m188 107.891h12c2.209 0 4-1.791 4-4s-1.791-4-4-4h-12c-2.209 0-4 1.791-4 4s1.791 4 4 4z"/><path d="m224 183.891h-36c-2.209 0-4 1.791-4 4s1.791 4 4 4h36c2.209 0 4-1.791 4-4s-1.791-4-4-4z"/><path d="m188 175.891h16c2.209 0 4-1.791 4-4s-1.791-4-4-4h-16c-2.209 0-4 1.791-4 4s1.791 4 4 4z"/><path d="m188 123.891h20c2.209 0 4-1.791 4-4s-1.791-4-4-4h-20c-2.209 0-4 1.791-4 4s1.791 4 4 4z"/><path d="m188 139.891h8c2.209 0 4-1.791 4-4s-1.791-4-4-4h-8c-2.209 0-4 1.791-4 4s1.791 4 4 4z"/><path d="m188 159.891h8c2.209 0 4-1.791 4-4s-1.791-4-4-4h-8c-2.209 0-4 1.791-4 4s1.791 4 4 4z"/><path d="m170.961 88.027-103.49 27.863h-14.655c-11.479 0-20.816 9.338-20.816 20.816v22.367c0 11.479 9.338 20.816 20.816 20.816h10.348l12.183 54.289c.232 1.035.865 1.936 1.762 2.504.646.408 1.389.621 2.141.621.293 0 .586-.031.877-.098l19.516-4.381c2.154-.482 3.51-2.623 3.025-4.777l-9.24-41.17 77.533 20.875c.342.092.691.137 1.039.137.869 0 1.727-.283 2.434-.824.986-.758 1.566-1.932 1.566-3.176v-112c0-1.244-.58-2.418-1.566-3.176-.989-.756-2.28-1.008-3.473-.686zm-130.961 71.047v-22.367c0-7.066 5.75-12.816 12.816-12.816h11.184v48h-11.184c-7.066 0-12.816-5.75-12.816-12.817zm53.986 66.822-11.709 2.629-10.665-47.52 13.091 3.525zm74.014-27.224-96-25.847v-49.868l96-25.847z"/><path d="m124 167.891c2.209 0 4-1.791 4-4v-32c0-2.209-1.791-4-4-4s-4 1.791-4 4v32c0 2.209 1.791 4 4 4z"/><path d="m136 171.891c2.209 0 4-1.791 4-4v-40c0-2.209-1.791-4-4-4s-4 1.791-4 4v40c0 2.209 1.791 4 4 4z"/><path d="m148 175.891c2.209 0 4-1.791 4-4v-48c0-2.209-1.791-4-4-4s-4 1.791-4 4v48c0 2.209 1.791 4 4 4z"/></g></svg>