<svg id="online-pay" enable-background="new 0 0 300 300" height="512" viewBox="0 0 300 300" width="512" xmlns="http://www.w3.org/2000/svg"><g><path d="m77.49 61.312c.781.781 1.805 1.172 2.828 1.172s2.047-.391 2.828-1.172l2.828-2.828 2.828 2.828c.781.781 1.805 1.172 2.828 1.172s2.047-.391 2.828-1.172c1.562-1.562 1.562-4.094 0-5.656l-2.828-2.828 2.829-2.828c1.562-1.562 1.562-4.094 0-5.656s-4.094-1.562-5.656 0l-2.828 2.828-2.828-2.828c-1.562-1.562-4.094-1.562-5.656 0s-1.562 4.094 0 5.656l2.828 2.828-2.828 2.828c-1.563 1.563-1.563 4.094-.001 5.656z"/><path d="m77.948 99.997c2.362 0 4.277-1.915 4.277-4.276s-1.915-4.277-4.277-4.277c-2.361 0-4.276 1.915-4.276 4.277s1.915 4.276 4.276 4.276z"/><path d="m233.948 155.444c-2.361 0-4.276 1.915-4.276 4.277s1.915 4.276 4.276 4.276c2.362 0 4.277-1.915 4.277-4.276s-1.914-4.277-4.277-4.277z"/><path d="m42.111 197.217h.016l28-.098c2.207-.008 3.992-1.805 3.984-4.014-.008-2.205-1.797-3.986-4-3.986-.004 0-.008 0-.016 0l-28 .098c-2.207.008-3.992 1.805-3.984 4.014.008 2.205 1.797 3.986 4 3.986z"/><path d="m90.154 205.049c-.008-2.205-1.797-3.986-4-3.986-.004 0-.008 0-.016 0l-44 .154c-2.207.008-3.992 1.805-3.984 4.014.008 2.205 1.797 3.986 4 3.986h.016l44-.154c2.207-.008 3.992-1.805 3.984-4.014z"/><circle cx="233.975" cy="204.828" r="4"/><path d="m273.975 240.828h-20v-48h20c2.211 0 4-1.791 4-4s-1.789-4-4-4h-56c-2.211 0-4 1.791-4 4v3.49c-8.871-.854-13.528-2.695-18.793-4.801-1.625-.65-3.333-1.324-5.203-1.998v-36.894c1.318.119 2.647.202 3.996.202 24.262 0 44-19.738 44-44s-19.738-44-44-44-44 19.738-44 44c0 7.199 1.772 13.981 4.851 19.986h-119.91c-7.09 0-12.859 5.58-12.859 12.438v31.999c-.002.055-.031.102-.031.158 0 .054.029.099.031.152v42.83c0 6.857 5.77 12.438 12.859 12.438h7.385c-.194.796-.326 1.615-.326 2.471 0 5.182 3.715 9.533 8.836 10.344l70.539 11.137c.207.033.418.049.625.049.262 0 .527-.025.785-.078l59.074-11.814 32.141 8.766v7.127c0 2.209 1.789 4 4 4h32c2.211 0 4-1.791 4-4v-4h20c2.211 0 4-1.791 4-4s-1.789-4.002-4-4.002zm-243.918-91.567 151.922-.54v16.121l-151.922.538zm163.918-80.433c19.852 0 36 16.15 36 36s-16.148 36-36 36-36-16.15-36-36 16.148-36 36-36zm-159.059 63.986h125.132c2.5 3.025 5.416 5.686 8.628 7.954l-138.619.493v-4.009c0-2.447 2.179-4.438 4.859-4.438zm-4.859 79.577v-39.01l151.922-.538v10.232c-3.194-.805-6.911-1.559-11.438-2.205-24.508-3.492-35.457 10.141-38.957 15.959h-22.223c-10.691 0-19.387 8.697-19.387 19.387v.613h-55.058c-2.68-.001-4.859-1.991-4.859-4.438zm152.968 16.578c-.598-.164-1.219-.188-1.836-.062l-59.297 11.859-69.831-11.026c-1.207-.191-2.086-1.219-2.086-2.441 0-1.363 1.109-2.471 2.473-2.471h85.527c.508 0 1.012-.098 1.484-.285l20-8c2.051-.822 3.051-3.148 2.23-5.201s-3.168-3.039-5.199-2.229l-19.285 7.715h-39.23v-.613c0-6.279 5.109-11.387 11.387-11.387h24.613c1.617 0 3.082-.998 3.703-2.49.289-.695 7.363-17.043 31.73-13.551 11.527 1.646 17.258 3.939 22.801 6.158 5.755 2.302 11.28 4.468 21.766 5.396v37.069zm62.95 19.859h-24v-56h24v52z"/><path d="m175.475 127.951c.738.59 1.621.877 2.496.877 1.176 0 2.336-.514 3.129-1.502l32-40c1.379-1.725 1.098-4.242-.625-5.621-1.73-1.379-4.242-1.096-5.625.625l-32 40c-1.379 1.725-1.098 4.242.625 5.621z"/><path d="m179.975 100.828c5.516 0 10-4.486 10-10s-4.484-10-10-10-10 4.486-10 10 4.484 10 10 10zm0-12c1.102 0 2 .896 2 2s-.898 2-2 2-2-.896-2-2 .898-2 2-2z"/><path d="m197.975 118.828c0 5.514 4.484 10 10 10s10-4.486 10-10-4.484-10-10-10-10 4.486-10 10zm12 0c0 1.104-.898 2-2 2s-2-.896-2-2 .898-2 2-2 2 .897 2 2z"/></g></svg>