<svg id="purchase-mobile" enable-background="new 0 0 300 300" height="512" viewBox="0 0 300 300" width="512" xmlns="http://www.w3.org/2000/svg"><g><path d="m88 246c0 2.209 1.789 4 4 4h40c2.211 0 4-1.791 4-4s-1.789-4-4-4h-40c-2.211 0-4 1.791-4 4z"/><path d="m204 166h-28v-107.705c0-11.191-9.105-20.295-20.297-20.295h-87.406c-11.192 0-20.297 9.104-20.297 20.295v183.41c0 11.191 9.105 20.295 20.297 20.295h87.406c11.191 0 20.297-9.104 20.297-20.295v-19.705h28c15.438 0 28-12.561 28-28s-12.562-28-28-28zm-72.472-120c-.947 2.341-3.235 4-5.911 4h-27.234c-2.676 0-4.964-1.659-5.911-4zm36.472 195.705c0 6.779-5.516 12.295-12.297 12.295h-87.406c-6.781 0-12.297-5.516-12.297-12.295v-183.41c0-6.779 5.516-12.295 12.297-12.295h15.944c1.145 6.794 7.028 12 14.142 12h27.234c7.113 0 12.997-5.206 14.142-12h15.944c6.781 0 12.297 5.516 12.297 12.295v107.705h-64c-15.438 0-28 12.561-28 28s12.562 28 28 28h64zm-60-63.705h-8c-2.211 0-4 1.791-4 4v12c0 2.209 1.789 4 4 4h8v4h-8c-2.211 0-4 1.791-4 4s1.789 4 4 4h8v4h-4c-11.027 0-20-8.973-20-20s8.973-20 20-20h4zm0 8v4h-4v-4zm8 12h4v4h-4zm88 16h-88v-4h8c2.211 0 4-1.791 4-4v-12c0-2.209-1.789-4-4-4h-8v-4h8c2.211 0 4-1.791 4-4s-1.789-4-4-4h-8v-4h88c11.027 0 20 8.973 20 20s-8.973 20-20 20z"/><path d="m240 122c-6.617 0-12 5.383-12 12s5.383 12 12 12 12-5.383 12-12-5.383-12-12-12zm0 16c-2.207 0-4-1.795-4-4s1.793-4 4-4 4 1.795 4 4-1.793 4-4 4z"/><path d="m238 76.529c2.502 0 4.53-2.028 4.53-4.529s-2.028-4.53-4.53-4.53c-2.501 0-4.529 2.028-4.529 4.53s2.027 4.529 4.529 4.529z"/><path d="m203.516 86.484c.781.781 1.805 1.172 2.828 1.172s2.047-.391 2.828-1.172l2.828-2.828 2.828 2.828c.781.781 1.805 1.172 2.828 1.172s2.047-.391 2.828-1.172c1.562-1.562 1.562-4.094 0-5.656l-2.828-2.828 2.828-2.828c1.562-1.562 1.562-4.094 0-5.656s-4.094-1.562-5.656 0l-2.828 2.828-2.828-2.828c-1.562-1.562-4.094-1.562-5.656 0s-1.562 4.094 0 5.656l2.828 2.828-2.828 2.828c-1.563 1.563-1.563 4.094 0 5.656z"/><path d="m208 190h-68c-2.211 0-4 1.791-4 4s1.789 4 4 4h68c2.211 0 4-1.791 4-4s-1.789-4-4-4z"/><path d="m89.738 130.365h2.051c-1.269 1.677-2.051 3.74-2.051 6 0 5.514 4.484 10 10 10s10-4.486 10-10c0-2.26-.782-4.323-2.051-6h20.101c-1.269 1.677-2.051 3.74-2.051 6 0 5.514 4.484 10 10 10s10-4.486 10-10c0-2.26-.782-4.323-2.051-6h2.051c1.836 0 3.434-1.25 3.879-3.029l8-32c.301-1.195.031-2.461-.727-3.432s-1.922-1.539-3.152-1.539h-68.874l-3.246-12.971c-.445-1.779-2.043-3.029-3.879-3.029h-12c-2.211 0-4 1.791-4 4s1.789 4 4 4h8.875l11.246 44.971c.446 1.779 2.043 3.029 3.879 3.029zm10 8c-1.102 0-2-.896-2-2s.898-2 2-2 2 .896 2 2-.898 2-2 2zm36 0c-1.102 0-2-.896-2-2s.898-2 2-2 2 .896 2 2-.898 2-2 2zm12.875-40-6 24h-49.75l-6-24z"/></g></svg>