<svg id="sold-out" enable-background="new 0 0 300 300" height="512" viewBox="0 0 300 300" width="512" xmlns="http://www.w3.org/2000/svg"><g><path d="m252 65.674h-204c-2.211 0-4 1.791-4 4v108c0 2.209 1.789 4 4 4h88v80c0 2.209 1.789 4 4 4s4-1.791 4-4v-80h12v80c0 2.209 1.789 4 4 4s4-1.791 4-4v-80h88c2.211 0 4-1.791 4-4v-108c0-2.209-1.789-4-4-4zm-4 108h-196v-100h196z"/><path d="m169.27 117.674h5.461c5.109 0 9.27-4.158 9.27-9.271v-13.458c0-5.113-4.16-9.271-9.27-9.271h-5.461c-5.109 0-9.27 4.158-9.27 9.271v13.457c0 5.114 4.16 9.272 9.27 9.272zm-1.27-22.729c0-.701.57-1.271 1.27-1.271h5.461c.699 0 1.27.57 1.27 1.271v13.457c0 .701-.57 1.271-1.27 1.271h-5.461c-.699 0-1.27-.57-1.27-1.271z"/><path d="m141.27 157.674h5.461c5.109 0 9.27-4.158 9.27-9.271v-13.457c0-5.113-4.16-9.271-9.27-9.271h-5.461c-5.109 0-9.27 4.158-9.27 9.271v13.457c0 5.113 4.16 9.271 9.27 9.271zm-1.27-22.729c0-.701.57-1.271 1.27-1.271h5.461c.699 0 1.27.57 1.27 1.271v13.457c0 .701-.57 1.271-1.27 1.271h-5.461c-.699 0-1.27-.57-1.27-1.271z"/><path d="m169.27 157.674h5.461c5.109 0 9.27-4.158 9.27-9.271v-18.729c0-2.209-1.789-4-4-4s-4 1.791-4 4v18.729c0 .701-.57 1.271-1.27 1.271h-5.461c-.699 0-1.27-.57-1.27-1.271v-18.729c0-2.209-1.789-4-4-4s-4 1.791-4 4v18.729c0 5.113 4.16 9.271 9.27 9.271z"/><path d="m136 109.674c-2.211 0-4 1.791-4 4s1.789 4 4 4h16c2.211 0 4-1.791 4-4v-12c0-2.209-1.789-4-4-4h-12v-4h12c2.211 0 4-1.791 4-4s-1.789-4-4-4h-16c-2.211 0-4 1.791-4 4v12c0 2.209 1.789 4 4 4h12v4z"/><path d="m90 153.674c16.543 0 30-13.457 30-30s-13.457-30-30-30-30 13.457-30 30 13.457 30 30 30zm0-52c12.129 0 22 9.869 22 22s-9.871 22-22 22-22-9.869-22-22 9.871-22 22-22z"/><path d="m77.172 136.502c.781.781 1.805 1.172 2.828 1.172s2.047-.391 2.828-1.172l7.172-7.172 7.172 7.172c.781.781 1.805 1.172 2.828 1.172s2.047-.391 2.828-1.172c1.562-1.562 1.562-4.094 0-5.656l-7.172-7.172 7.172-7.172c1.562-1.562 1.562-4.094 0-5.656s-4.094-1.562-5.656 0l-7.172 7.172-7.172-7.172c-1.562-1.562-4.094-1.562-5.656 0s-1.562 4.094 0 5.656l7.172 7.172-7.172 7.172c-1.563 1.562-1.563 4.093 0 5.656z"/><path d="m185.352 52.947c.781.781 1.805 1.172 2.828 1.172s2.047-.391 2.828-1.172l3.068-3.068 3.068 3.068c.781.781 1.805 1.172 2.828 1.172s2.047-.391 2.828-1.172c1.562-1.562 1.562-4.094 0-5.656l-3.068-3.068 3.068-3.068c1.562-1.562 1.562-4.094 0-5.656s-4.094-1.562-5.656 0l-3.068 3.068-3.068-3.068c-1.562-1.562-4.094-1.562-5.656 0s-1.562 4.094 0 5.656l3.068 3.068-3.068 3.068c-1.563 1.563-1.563 4.094 0 5.656z"/><path d="m192 117.674h12c2.211 0 4-1.791 4-4s-1.789-4-4-4h-8v-20c0-2.209-1.789-4-4-4s-4 1.791-4 4v24c0 2.209 1.789 4 4 4z"/><path d="m216 117.674h10.996c4.965 0 9.004-4.039 9.004-9.004v-13.992c0-4.965-4.039-9.004-9.004-9.004h-10.996c-2.211 0-4 1.791-4 4v24c0 2.209 1.789 4 4 4zm4-24h6.996c.555 0 1.004.451 1.004 1.004v13.992c0 .553-.449 1.004-1.004 1.004h-6.996z"/><path d="m192 133.674h4v20c0 2.209 1.789 4 4 4s4-1.791 4-4v-20h4c2.211 0 4-1.791 4-4s-1.789-4-4-4h-16c-2.211 0-4 1.791-4 4s1.789 4 4 4z"/></g></svg>