<svg id="tag" enable-background="new 0 0 300 300" height="512" viewBox="0 0 300 300" width="512" xmlns="http://www.w3.org/2000/svg"><g><path d="m69.809 134.219c-2.362 0-4.276 1.915-4.276 4.277s1.915 4.276 4.276 4.276 4.276-1.915 4.276-4.276c0-2.363-1.915-4.277-4.276-4.277z"/><path d="m245.809 50.219c-2.362 0-4.276 1.915-4.276 4.277s1.915 4.276 4.276 4.276 4.276-1.915 4.276-4.276c0-2.363-1.915-4.277-4.276-4.277z"/><path d="m73.915 85.402c0-6.617-5.383-12-12-12s-12 5.383-12 12 5.383 12 12 12 12-5.382 12-12zm-12 4c-2.207 0-4-1.795-4-4s1.793-4 4-4 4 1.795 4 4-1.793 4-4 4z"/><path d="m242.946 94.793c-1.562-1.562-4.094-1.562-5.656 0l-3.172 3.172-3.172-3.172c-1.562-1.562-4.094-1.562-5.656 0s-1.562 4.094 0 5.656l3.172 3.172-3.172 3.172c-1.562 1.562-1.562 4.094 0 5.656.781.781 1.805 1.172 2.828 1.172s2.047-.391 2.828-1.172l3.172-3.172 3.172 3.172c.781.781 1.805 1.172 2.828 1.172s2.047-.391 2.828-1.172c1.562-1.562 1.562-4.094 0-5.656l-3.172-3.172 3.172-3.172c1.563-1.562 1.563-4.094 0-5.656z"/><path d="m196.38 110.756c-1.301-4.312-4.844-7.564-9.254-8.49l-16.135-3.378-.21-.115c4.61-7.161 7.134-15.643 7.134-24.37 0-23.711-17.945-43-40-43s-40 19.289-40 43c0 9.055 2.632 17.454 7.096 24.392l-8.689 4.739c-3.953 2.158-6.406 6.295-6.406 10.795v126.775c0 6.781 5.516 12.299 12.297 12.299h36.921l1.942 6.447c1.602 5.312 6.496 8.748 11.781 8.748 1.172 0 2.367-.17 3.547-.525l68.359-20.617c6.488-1.957 10.18-8.832 8.223-15.326zm-58.465-71.354c17.645 0 32 15.701 32 35 0 7.389-2.174 14.562-6.16 20.538l-3.529-1.925c3.639-5.346 5.689-11.885 5.689-18.613 0-17.094-12.562-31-28-31s-28 13.906-28 31 12.562 31 28 31c2.115 0 4.208-.365 6.279-.897.843 1.078 1.408 2.365 1.608 3.782-2.608.739-5.251 1.115-7.887 1.115-17.645 0-32-15.701-32-35s14.356-35 32-35zm-15.296 49.788c-2.93-4.002-4.704-9.159-4.704-14.788 0-12.682 8.973-23 20-23s20 10.318 20 23c0 5.408-1.717 10.63-4.748 14.762l-9.361-5.106c-3.695-2.012-8.09-2.012-11.777 0zm-24.704 151.914v-126.776c0-1.572.859-3.02 2.238-3.773l9.875-5.386c3.623 3.796 7.903 6.863 12.648 8.973 2.044 6.627 8.118 11.26 15.238 11.26 8.824 0 16-7.178 16-16s-7.176-16-16-16c-2.779 0-5.509.753-7.907 2.117-.387-.192-.761-.41-1.134-.629l6.986-3.809c1.281-.703 2.824-.703 4.113 0l35.699 19.471c1.383.756 2.242 2.203 2.242 3.775v126.775c0 2.371-1.926 4.299-4.297 4.299h-71.406c-2.369.001-4.295-1.926-4.295-4.297zm124.535-1.309-68.359 20.617c-2.258.688-4.672-.607-5.359-2.873l-1.247-4.137h26.133c6.781 0 12.297-5.518 12.297-12.299v-126.775c0-1.5-.295-2.951-.805-4.311l.375.079c1.539.324 2.777 1.459 3.234 2.967l36.605 121.373c.685 2.271-.604 4.675-2.874 5.359z"/><path d="m153.915 229.402h-40c-2.211 0-4 1.791-4 4s1.789 4 4 4h40c2.211 0 4-1.791 4-4s-1.789-4-4-4z"/><path d="m113.915 225.402h12c2.211 0 4-1.791 4-4s-1.789-4-4-4h-12c-2.211 0-4 1.791-4 4s1.789 4 4 4z"/><path d="m119.415 188.525c.738.59 1.621.877 2.496.877 1.176 0 2.336-.514 3.129-1.502l32-40c1.379-1.725 1.098-4.242-.625-5.621-1.727-1.381-4.242-1.098-5.625.625l-32 40c-1.379 1.725-1.098 4.242.625 5.621z"/><path d="m123.915 161.402c5.516 0 10-4.486 10-10s-4.484-10-10-10-10 4.486-10 10 4.484 10 10 10zm0-12c1.102 0 2 .896 2 2s-.898 2-2 2-2-.896-2-2 .898-2 2-2z"/><path d="m151.915 169.402c-5.516 0-10 4.486-10 10s4.484 10 10 10 10-4.486 10-10-4.484-10-10-10zm0 12c-1.102 0-2-.896-2-2s.898-2 2-2 2 .896 2 2-.898 2-2 2z"/></g></svg>