<svg xmlns="http://www.w3.org/2000/svg" viewBox="0 0 51 51"><path fill="#B5E5F4" d="m41.33 1.627 3.258 1.894c-.341-.2-.814-.171-1.336.13l-3.259-1.894c.522-.3.995-.329 1.337-.13z"/><path fill="#3F9AE0" d="M9.67 49.373 6.412 47.48c-.338-.197-.547-.613-.549-1.205l3.259 1.893c.001.592.21 1.009.548 1.205z"/><path fill="#3F9AE0" d="m9.122 48.168-3.259-1.893-.064-22.613 3.258 1.894z"/><path fill="#82C6E0" d="m10.93 22.312-3.258-1.894L39.993 1.757l3.259 1.894z"/><path fill="#B5E5F4" d="m10.93 22.312-3.258-1.894L29.786 7.651l3.259 1.893z"/><path fill="#82C6E0" d="M9.057 25.556 5.8 23.662c-.003-1.192.836-2.645 1.873-3.244l3.258 1.894c-1.037.599-1.876 2.052-1.873 3.244z"/><path fill="#0074D1" d="M43.252 3.651c1.037-.599 1.881-.117 1.885 1.074l.064 22.613c.003 1.192-.836 2.645-1.873 3.244l-32.321 18.66c-1.037.6-1.882.118-1.885-1.074l-.065-22.612c-.003-1.192.836-2.645 1.873-3.244L43.252 3.65z"/><path fill="#F25A5A" d="m40.187 30.409-.85-.494a1.18 1.18 0 0 1-.054-.033c-.366-.24-.607-.69-.656-1.311a3.183 3.183 0 0 1-.005-.064c0-.02-.001-.027-.002-.034l-.001-.034v-.019a2.923 2.923 0 0 1-.002-.087l.85.494v.05l.001.037.001.019.001.034.002.034a4.032 4.032 0 0 0 .005.064c.05.621.29 1.07.656 1.31.017.012.035.023.054.034zM42.83 23.9l.85.494c-.448-.26-1.069-.223-1.754.172l-.85-.494c.685-.395 1.306-.432 1.754-.172z"/><path fill="#F25A5A" d="M41.926 24.567c1.362-.787 2.47-.154 2.474 1.412.005 1.565-1.095 3.472-2.458 4.258-.713.412-1.357.435-1.81.139-.365-.24-.606-.69-.655-1.311a3.183 3.183 0 0 1-.005-.064c0-.02-.001-.027-.002-.034l-.001-.034v-.019a2.923 2.923 0 0 1-.002-.122v-.036l.001-.019.001-.04a3.439 3.439 0 0 1 .004-.08c.04-.69.279-1.429.649-2.102.449-.817 1.09-1.536 1.804-1.948z"/><path fill="#DD4A4A" d="m39.467 28.827-.85-.494V28.243l.002-.04a3.439 3.439 0 0 1 .004-.079c.04-.69.279-1.43.649-2.103.449-.817 1.09-1.536 1.804-1.948l.85.494c-.714.412-1.355 1.131-1.804 1.948-.37.673-.609 1.412-.65 2.103a3.74 3.74 0 0 0-.003.08l-.001.04V28.791l-.001.035z"/><path fill="#FFD651" d="M37.465 26.158c.683-.394 1.302-.433 1.748-.174l.85.494c-.446-.259-1.065-.22-1.748.174l-.85-.494z"/><path fill="#FFD651" d="M37.429 26.179a3.41 3.41 0 0 1 .036-.021l.85.494a3.41 3.41 0 0 0-.036.021l-.85-.494z"/><path fill="#EFC348" d="M35.007 30.418c-.005-1.553 1.077-3.44 2.422-4.239l.85.494c-1.345.799-2.427 2.686-2.422 4.239.002.777.277 1.324.72 1.581l-.85-.494c-.443-.257-.718-.804-.72-1.581z"/><path fill="#DDB040" d="m36.578 32.493-.85-.494c-.445-.257-.718-.804-.72-1.582l.848.494c.004.778.277 1.325.722 1.582z"/><path fill="#FFD651" d="M38.315 26.652c.714-.412 1.357-.436 1.807-.137-.37.673-.609 1.412-.649 2.1a3.936 3.936 0 0 0-.003.07l-.002.035V28.776a3.631 3.631 0 0 0 0 .086v.036l.001.035v.018l.002.037a2.915 2.915 0 0 0 .005.074c.05.624.29 1.074.657 1.314-.447.814-1.088 1.534-1.802 1.946-1.361.786-2.47.154-2.474-1.41-.005-1.567 1.097-3.474 2.458-4.26z"/><path fill="#82C6E0" d="M40.6 19.263c.763-.44 1.385-.086 1.388.793.002.878-.614 1.947-1.38 2.39l-2.664 1.537c-.765.442-1.387.089-1.39-.79-.002-.878.617-1.95 1.381-2.392l2.664-1.538zm-24.197 13.97c.764-.441 1.386-.086 1.389.793.002.875-.614 1.947-1.38 2.389l-2.665 1.539c-.764.44-1.386.087-1.389-.792-.002-.877.616-1.95 1.38-2.39l2.665-1.54z"/><path fill="#005E87" d="M29.865 32.42c.754-.434 1.368-.084 1.37.783.003.864-.605 1.92-1.36 2.357l-15.949 8.912c-.753.434-1.367.086-1.37-.781-.002-.866.607-1.924 1.361-2.36l15.948-8.91z"/><path fill="#82C6E0" d="M24.468 28.577c.764-.442 1.386-.086 1.388.793.003.88-.614 1.947-1.38 2.389l-2.663 1.538c-.764.44-1.386.087-1.389-.791-.002-.878.615-1.95 1.38-2.391l2.664-1.538zm8.065-4.657c.764-.44 1.386-.086 1.389.793.002.877-.614 1.947-1.38 2.39l-2.664 1.537c-.763.44-1.386.088-1.388-.791-.003-.886.621-1.953 1.38-2.39l2.663-1.539z"/><path fill="#EFC348" d="m18.063 26.039-.85-.494 2.519-1.454.85.494z"/><path fill="#FFD651" d="m19.528 21.514.85.494c-.123-.071-.293-.061-.48.047l-.85-.494c.187-.108.357-.118.48-.047zm-2.315 4.031c-.001-.37-.131-.629-.342-.75l.85.493c.21.122.34.382.342.751l-.85-.494z"/><path fill="#EFC348" d="m16.063 28.142-.85-.494c.213.123.508.106.833-.082.647-.374 1.169-1.278 1.167-2.02l.85.493c.002.743-.52 1.647-1.167 2.02-.325.189-.62.206-.833.083z"/><path fill="#EFC348" d="m13.201 28.846-.85-.494 2.521-1.455.85.494z"/><path fill="#DDB040" d="m16.063 28.142-.85-.494c-.21-.122-.34-.382-.341-.751l.85.494c0 .369.131.629.341.75zm.808-3.348.85.494c-.212-.124-.507-.106-.833.082l-.85-.494c.326-.188.62-.206.833-.082z"/><path fill="#EFC348" d="m13.406 31.789-.85-.494c-.122-.07-.197-.221-.198-.435l.85.494c.001.214.076.364.198.435z"/><path fill="#FFE2A9" d="M16.888 25.192c.732-.422 1.327-.083 1.33.758.002.841-.59 1.865-1.321 2.287-.733.423-1.327.084-1.33-.757-.002-.842.589-1.865 1.321-2.288z"/><path fill="#DDB040" d="m15.722 27.39-.85-.493c-.002-.744.52-1.648 1.166-2.021l.85.494c-.646.373-1.168 1.277-1.166 2.02z"/><path fill="#CEA03A" d="m20.582 24.585.007 2.508c.001.43-.3.954-.674 1.17l-6.027 3.479c-.374.216-.678.041-.68-.388l-.007-2.508 2.52-1.455c.003.743.528 1.042 1.175.669.647-.374 1.169-1.278 1.167-2.02l2.519-1.455z"/><path fill="#DDB040" d="m13.208 31.354-.85-.494-.007-2.508.85.494z"/><path fill="#EFC348" d="m13.201 28.846-.85-.494-.006-2.141.85.494z"/><path fill="#FFD651" d="m13.871 25.535-.85-.494 6.026-3.48.85.494z"/><path fill="#EFC348" d="m13.871 25.535-.85-.494 3.234-1.868.85.494z"/><path fill="#DDB040" d="M19.897 22.055c.374-.215.678-.042.679.388l.006 2.142-2.52 1.454c-.001-.743-.527-1.043-1.174-.67-.646.374-1.168 1.278-1.166 2.022l-2.52 1.455-.007-2.141c0-.431.3-.954.676-1.17l6.026-3.48z"/><path fill="#FFD651" d="m13.195 26.705-.85-.494c-.001-.431.3-.954.676-1.17l.85.494c-.375.216-.677.739-.676 1.17z"/><path fill="#FFF" d="M40.276 7.146a.178.178 0 0 1 0 .343 3.49 3.49 0 0 0-2.233 2.232.178.178 0 0 1-.343 0 3.494 3.494 0 0 0-2.232-2.232.178.178 0 0 1 0-.343A3.49 3.49 0 0 0 37.7 4.913a.178.178 0 0 1 .343 0 3.49 3.49 0 0 0 2.233 2.233z"/></svg>