<svg width="289" height="119" xmlns="http://www.w3.org/2000/svg" xmlns:xlink="http://www.w3.org/1999/xlink" xml:space="preserve" overflow="hidden"><defs><filter id="fx0" x="-10%" y="-10%" width="120%" height="120%" filterUnits="userSpaceOnUse" primitiveUnits="userSpaceOnUse"><feComponentTransfer color-interpolation-filters="sRGB"><feFuncR type="discrete" tableValues="1.000000 1.000000"/><feFuncG type="discrete" tableValues="1.000000 1.000000"/><feFuncB type="discrete" tableValues="1.000000 1.000000"/><feFuncA type="linear" slope="1.000000" intercept="0.000000"/></feComponentTransfer><feGaussianBlur stdDeviation="3.762488 3.762488"/></filter><filter id="fx1" x="-10%" y="-10%" width="120%" height="120%" filterUnits="userSpaceOnUse" primitiveUnits="userSpaceOnUse"><feComponentTransfer color-interpolation-filters="sRGB"><feFuncR type="discrete" tableValues="1.000000 1.000000"/><feFuncG type="discrete" tableValues="1.000000 1.000000"/><feFuncB type="discrete" tableValues="1.000000 1.000000"/><feFuncA type="linear" slope="1.000000" intercept="0.000000"/></feComponentTransfer><feGaussianBlur stdDeviation="3.762488 3.762488"/></filter><filter id="fx2" x="-10%" y="-10%" width="120%" height="120%" filterUnits="userSpaceOnUse" primitiveUnits="userSpaceOnUse"><feComponentTransfer color-interpolation-filters="sRGB"><feFuncR type="discrete" tableValues="1.000000 1.000000"/><feFuncG type="discrete" tableValues="1.000000 1.000000"/><feFuncB type="discrete" tableValues="1.000000 1.000000"/><feFuncA type="linear" slope="1.000000" intercept="0.000000"/></feComponentTransfer><feGaussianBlur stdDeviation="3.762488 3.762488"/></filter><filter id="fx3" x="-10%" y="-10%" width="120%" height="120%" filterUnits="userSpaceOnUse" primitiveUnits="userSpaceOnUse"><feComponentTransfer color-interpolation-filters="sRGB"><feFuncR type="discrete" tableValues="1.000000 1.000000"/><feFuncG type="discrete" tableValues="1.000000 1.000000"/><feFuncB type="discrete" tableValues="1.000000 1.000000"/><feFuncA type="linear" slope="1.000000" intercept="0.000000"/></feComponentTransfer><feGaussianBlur stdDeviation="3.762488 3.762488"/></filter><clipPath id="clip4"><rect x="2681" y="-9" width="289" height="119"/></clipPath><clipPath id="clip5"><rect x="-11.2874" y="-11.2875" width="305.575" height="136.575"/></clipPath><clipPath id="clip6"><rect x="0" y="0" width="283" height="114"/></clipPath><clipPath id="clip7"><rect x="2.1665" y="1.63345" width="228.575" height="23.5749"/></clipPath><clipPath id="clip8"><rect x="0" y="0" width="232" height="27"/></clipPath><clipPath id="clip9"><rect x="-11.2874" y="-11.2875" width="305.575" height="136.575"/></clipPath><clipPath id="clip10"><rect x="0" y="0" width="283" height="114"/></clipPath><clipPath id="clip11"><rect x="1.98975" y="1.71823" width="228.575" height="23.5749"/></clipPath><clipPath id="clip12"><rect x="0" y="0" width="232" height="27"/></clipPath></defs><g clip-path="url(#clip4)" transform="translate(-2681 9)"><g clip-path="url(#clip5)" filter="url(#fx0)" transform="translate(2682 -6)"><g clip-path="url(#clip6)"><path d="M16.441 0 19.024 0 19.024-25.42 16.441-25.42 16.441-13.899 6.109-13.899 6.109-25.42 3.526-25.42 3.526 0 6.109 0 6.109-11.89 16.441-11.89ZM36.0367-23.247 36.3647-28.659 33.7407-28.659 33.5357-23.247ZM43.8677 0 44.0727-1.927 36.2417-1.927 36.2417-19.844 26.2377-19.844 26.0327-18.122 33.7407-17.794 33.7407-1.927 25.9507-1.927 25.9507 0ZM64.2833 0.451 64.6113-1.722C54.4433-2.009 51.4503-4.182 51.2043-9.307L65.3083-9.635C66.0463-15.949 63.2993-20.336 57.9693-20.336 52.8443-20.336 48.7443-15.703 48.7443-9.676 48.7443-3.239 52.1473 0.246 64.2833 0.451ZM57.4773-18.245C61.2493-18.245 63.0943-15.416 63.0123-11.275L51.2043-10.947C51.4503-15.539 53.8283-18.245 57.4773-18.245ZM86.462 0 86.708-1.927 79.533-1.927C79.492-6.847 79.41-11.152 79.369-14.883 81.542-16.482 84.535-17.589 88.922-17.917L88.799-20.541C84.494-20.09 81.296-18.45 79.287-16.523 79.246-17.466 79.123-19.311 79.082-19.844L71.784-19.844 71.579-18.081 76.827-17.794C76.95-13.53 76.991-8.487 77.114-1.927L71.497-1.927 71.497 0ZM101.671-1.558C98.9237-1.558 97.0787-2.87 97.0787-5.207 97.0787-8.323 99.9897-10.086 107.985-9.266 107.985-7.052 108.026-5.453 108.067-4.059 106.386-2.665 104.008-1.558 101.671-1.558ZM108.436 0.082 110.691-0.041C110.568-2.952 110.445-5.535 110.445-9.881 110.445-17.425 107.288-19.803 96.1357-20.213L95.8487-17.999C104.951-17.63 107.698-16.277 107.944-11.193 98.8827-11.849 94.6187-8.856 94.6187-4.633 94.6187-1.435 97.1607 0.492 100.769 0.492 104.008 0.492 106.55-1.025 108.19-2.542 108.272-1.681 108.395-0.492 108.436 0.082ZM132.295 0 132.541-1.927 125.366-1.927C125.325-6.847 125.243-11.152 125.202-14.883 127.375-16.482 130.368-17.589 134.755-17.917L134.632-20.541C130.327-20.09 127.129-18.45 125.12-16.523 125.079-17.466 124.956-19.311 124.915-19.844L117.617-19.844 117.412-18.081 122.66-17.794C122.783-13.53 122.824-8.487 122.947-1.927L117.33-1.927 117.33 0ZM140.985-9.635C140.985-3.608 144.388 0.82 156.237 0.164L156.565-1.968C146.274-1.517 143.445-4.633 143.445-9.963 143.445-14.432 145.823-17.63 156.237-17.794L156.073-20.172C144.716-19.803 140.985-15.006 140.985-9.635ZM172.471-18.163C175.3-18.163 176.981-16.687 176.981-12.628L176.981 0 179.441 0 179.441-13.407C179.441-18.286 177.063-20.295 173.373-20.295 170.667-20.295 168.494-19.147 166.813-17.876L166.813-28.823 164.353-28.618 164.353 0 166.813 0 166.813-16.236C168.535-17.384 170.339-18.163 172.471-18.163ZM186.203 7.298C192.599 6.396 194.403 4.51 196.904-1.804 199.815-8.815 201.988-14.678 203.833-19.844L201.455-19.844C200.02-15.949 197.191-7.749 195.305-3.239L195.018-3.239C192.517-8.733 190.098-14.391 187.884-19.926L185.342-19.803C187.638-14.268 191.164-6.027 193.829-0.328L193.87-0.328C192.312 3.198 191.205 4.1 185.957 4.92Z" fill="#FFFFFF" fill-rule="nonzero" fill-opacity="1" transform="matrix(1 0 0 1 38.4539 66)"/></g></g><text fill="#FFFFFF" fill-opacity="1" font-family="Operator Mono Light,Operator Mono Light_MSFontService,sans-serif" font-style="normal" font-variant="normal" font-weight="300" font-stretch="normal" font-size="41" text-anchor="start" direction="ltr" writing-mode="lr-tb" unicode-bidi="normal" text-decoration="none" transform="matrix(1 0 0 1 2720.45 56)">Hierarchy</text><g clip-path="url(#clip7)" filter="url(#fx1)" transform="translate(2707 49)"><g clip-path="url(#clip8)"><path d="M13.4539 12.9209 64.9539 12.9209 116.454 12.9209 167.954 12.9209 219.454 12.9209 219.454 13.9209 167.954 13.9209 116.454 13.9209 64.9539 13.9209 13.4539 13.9209Z" fill="#FFFFFF" fill-rule="evenodd" fill-opacity="1"/></g></g><path d="M2720.45 58.5 2771.95 58.5 2823.45 58.5 2874.95 58.5 2926.45 58.5 2926.45 59.5 2874.95 59.5 2823.45 59.5 2771.95 59.5 2720.45 59.5Z" fill="#FFFFFF" fill-rule="evenodd" fill-opacity="1"/><g clip-path="url(#clip9)" filter="url(#fx2)" transform="translate(2685 -7)"><g clip-path="url(#clip10)"><path d="M16.441 0 19.024 0 19.024-25.42 16.441-25.42 16.441-13.899 6.109-13.899 6.109-25.42 3.526-25.42 3.526 0 6.109 0 6.109-11.89 16.441-11.89ZM36.0367-23.247 36.3647-28.659 33.7407-28.659 33.5357-23.247ZM43.8677 0 44.0727-1.927 36.2417-1.927 36.2417-19.844 26.2377-19.844 26.0327-18.122 33.7407-17.794 33.7407-1.927 25.9507-1.927 25.9507 0ZM64.2833 0.451 64.6113-1.722C54.4433-2.009 51.4503-4.182 51.2043-9.307L65.3083-9.635C66.0463-15.949 63.2993-20.336 57.9693-20.336 52.8443-20.336 48.7443-15.703 48.7443-9.676 48.7443-3.239 52.1473 0.246 64.2833 0.451ZM57.4773-18.245C61.2493-18.245 63.0943-15.416 63.0123-11.275L51.2043-10.947C51.4503-15.539 53.8283-18.245 57.4773-18.245ZM86.462 0 86.708-1.927 79.533-1.927C79.492-6.847 79.41-11.152 79.369-14.883 81.542-16.482 84.535-17.589 88.922-17.917L88.799-20.541C84.494-20.09 81.296-18.45 79.287-16.523 79.246-17.466 79.123-19.311 79.082-19.844L71.784-19.844 71.579-18.081 76.827-17.794C76.95-13.53 76.991-8.487 77.114-1.927L71.497-1.927 71.497 0ZM101.671-1.558C98.9237-1.558 97.0787-2.87 97.0787-5.207 97.0787-8.323 99.9897-10.086 107.985-9.266 107.985-7.052 108.026-5.453 108.067-4.059 106.386-2.665 104.008-1.558 101.671-1.558ZM108.436 0.082 110.691-0.041C110.568-2.952 110.445-5.535 110.445-9.881 110.445-17.425 107.288-19.803 96.1357-20.213L95.8487-17.999C104.951-17.63 107.698-16.277 107.944-11.193 98.8827-11.849 94.6187-8.856 94.6187-4.633 94.6187-1.435 97.1607 0.492 100.769 0.492 104.008 0.492 106.55-1.025 108.19-2.542 108.272-1.681 108.395-0.492 108.436 0.082ZM132.295 0 132.541-1.927 125.366-1.927C125.325-6.847 125.243-11.152 125.202-14.883 127.375-16.482 130.368-17.589 134.755-17.917L134.632-20.541C130.327-20.09 127.129-18.45 125.12-16.523 125.079-17.466 124.956-19.311 124.915-19.844L117.617-19.844 117.412-18.081 122.66-17.794C122.783-13.53 122.824-8.487 122.947-1.927L117.33-1.927 117.33 0ZM140.985-9.635C140.985-3.608 144.388 0.82 156.237 0.164L156.565-1.968C146.274-1.517 143.445-4.633 143.445-9.963 143.445-14.432 145.823-17.63 156.237-17.794L156.073-20.172C144.716-19.803 140.985-15.006 140.985-9.635ZM172.471-18.163C175.3-18.163 176.981-16.687 176.981-12.628L176.981 0 179.441 0 179.441-13.407C179.441-18.286 177.063-20.295 173.373-20.295 170.667-20.295 168.494-19.147 166.813-17.876L166.813-28.823 164.353-28.618 164.353 0 166.813 0 166.813-16.236C168.535-17.384 170.339-18.163 172.471-18.163ZM186.203 7.298C192.599 6.396 194.403 4.51 196.904-1.804 199.815-8.815 201.988-14.678 203.833-19.844L201.455-19.844C200.02-15.949 197.191-7.749 195.305-3.239L195.018-3.239C192.517-8.733 190.098-14.391 187.884-19.926L185.342-19.803C187.638-14.268 191.164-6.027 193.829-0.328L193.87-0.328C192.312 3.198 191.205 4.1 185.957 4.92Z" fill="#7F7F7F" fill-rule="nonzero" fill-opacity="1" transform="matrix(1 0 0 1 38.2771 66)"/></g></g><text fill="#7F7F7F" fill-opacity="1" font-family="Operator Mono Light,Operator Mono Light_MSFontService,sans-serif" font-style="normal" font-variant="normal" font-weight="300" font-stretch="normal" font-size="41" text-anchor="start" direction="ltr" writing-mode="lr-tb" unicode-bidi="normal" text-decoration="none" transform="matrix(1 0 0 1 2723.28 56)">Hierarchy</text><g clip-path="url(#clip11)" filter="url(#fx3)" transform="translate(2710 48)"><g clip-path="url(#clip12)"><path d="M13.2771 13.0057 64.7771 13.0057 116.277 13.0057 167.777 13.0057 219.277 13.0057 219.277 14.0057 167.777 14.0057 116.277 14.0057 64.7771 14.0057 13.2771 14.0057Z" fill="#7F7F7F" fill-rule="evenodd" fill-opacity="1"/></g></g><path d="M2723.28 57.5848 2774.78 57.5848 2826.28 57.5848 2877.78 57.5848 2929.28 57.5848 2929.28 58.5848 2877.78 58.5848 2826.28 58.5848 2774.78 58.5848 2723.28 58.5848Z" fill="#7F7F7F" fill-rule="evenodd" fill-opacity="1"/></g></svg>