<?xml version="1.0" encoding="UTF-8"?><svg id="Layer_2" xmlns="http://www.w3.org/2000/svg" viewBox="0 0 209.18 227.68"><defs><style>.cls-1{fill:#fff;}</style></defs><g id="_ÎÓÈ_1"><g><g><polygon class="cls-1" points="18.18 211.51 66.49 211.51 68.38 213.4 88.93 213.4 91.27 211.06 91.27 209.06 81.83 199.62 77.63 199.62 70.42 206.83 60.11 206.83 57.52 209.42 19.82 209.42 18.63 208.23 11.52 208.23 9.71 210.03 9.71 211.51 18.18 211.51"/><path class="cls-1" d="M89.79,221.58c-.18,0-.32-.14-.32-.32v-5.49c0-.08,.03-.17,.09-.23l4.12-4.12c.06-.06,.14-.09,.23-.09h1.21c.18,0,.32,.14,.32,.32s-.14,.32-.32,.32h-1.08l-3.93,3.93v5.36c0,.18-.14,.32-.32,.32Z"/><path class="cls-1" d="M104.71,224.23s-.08-.02-.11-.05l-9.99-9.99h-1.19l-1.8,1.8c-.06,.06-.16,.06-.23,0s-.06-.16,0-.23l1.85-1.85s.07-.05,.11-.05h1.32s.08,.02,.11,.05l10.03,10.03c.06,.06,.06,.16,0,.23-.03,.03-.07,.05-.11,.05Z"/><path class="cls-1" d="M107.85,227.68c-.08,0-.16-.03-.23-.09l-1.88-1.88c-.12-.12-.12-.33,0-.45s.33-.12,.45,0l1.88,1.88c.12,.12,.12,.33,0,.45-.06,.06-.14,.09-.23,.09Z"/><path class="cls-1" d="M70.51,204.54h-1.64c-.18,0-.32-.14-.32-.32s.14-.32,.32-.32h1.51l5.79-5.79v-2.77l-34.95-34.95h-3.83l-3.22,3.22c-.06,.06-.14,.09-.23,.09h-2.25c-.18,0-.32-.14-.32-.32s.14-.32,.32-.32h2.12l3.22-3.22c.06-.06,.14-.09,.23-.09h4.09c.08,0,.17,.03,.23,.09l35.13,35.13c.06,.06,.09,.14,.09,.23v3.03c0,.08-.03,.17-.09,.23l-5.98,5.98c-.06,.06-.14,.09-.23,.09Z"/><path class="cls-1" d="M27.3,163.41H15.39s-.08-.02-.11-.05l-10.7-10.7s-.05-.07-.05-.11v-22.17s.02-.08,.05-.11l2.13-2.13c.06-.06,.16-.06,.23,0s.06,.16,0,.23l-2.08,2.08v22.03l10.61,10.61h11.84c.09,0,.16,.07,.16,.16s-.07,.16-.16,.16Z"/><path class="cls-1" d="M18.14,206.88h-7.21s-.08-.02-.11-.05l-6.43-6.43s-.05-.07-.05-.11v-7.9s.02-.08,.05-.11l.98-.98c.06-.06,.16-.06,.23,0s.06,.16,0,.23l-.94,.94v7.77l6.34,6.34h7.14c.09,0,.16,.07,.16,.16s-.07,.16-.16,.16Z"/><path class="cls-1" d="M21.7,207.04h-2.09c-.18,0-.32-.14-.32-.32s.14-.32,.32-.32h2.09c.18,0,.32,.14,.32,.32s-.14,.32-.32,.32Z"/><path class="cls-1" d="M36.36,201.6H8.76s-.04,0-.06-.02l-1.27-1.27s-.02-.04-.02-.06v-1.19s.04-.08,.08-.08h2.22s.08,.04,.08,.08-.04,.08-.08,.08h-2.14v1.07l1.22,1.22h27.56s.08,.04,.08,.08-.04,.08-.08,.08Z"/><path class="cls-1" d="M13.02,199.23h-1.7c-.09,0-.16-.07-.16-.16s.07-.16,.16-.16h1.7c.09,0,.16,.07,.16,.16s-.07,.16-.16,.16Z"/><path class="cls-1" d="M36.36,196.53H8.76s-.04,0-.06-.02l-1.27-1.27s-.02-.04-.02-.06v-1.19s.04-.08,.08-.08h2.22s.08,.04,.08,.08-.04,.08-.08,.08h-2.14v1.07l1.22,1.22h27.56s.08,.04,.08,.08-.04,.08-.08,.08Z"/><path class="cls-1" d="M13.02,194.15h-1.7c-.09,0-.16-.07-.16-.16s.07-.16,.16-.16h1.7c.09,0,.16,.07,.16,.16s-.07,.16-.16,.16Z"/><path class="cls-1" d="M36.36,191.45H8.76s-.04,0-.06-.02l-1.27-1.27s-.02-.04-.02-.06v-1.19s.04-.08,.08-.08h2.22s.08,.04,.08,.08-.04,.08-.08,.08h-2.14v1.07l1.22,1.22h27.56s.08,.04,.08,.08-.04,.08-.08,.08Z"/><path class="cls-1" d="M13.02,189.07h-1.7c-.09,0-.16-.07-.16-.16s.07-.16,.16-.16h1.7c.09,0,.16,.07,.16,.16s-.07,.16-.16,.16Z"/><path class="cls-1" d="M36.36,186.37H8.76s-.04,0-.06-.02l-1.27-1.27s-.02-.04-.02-.06v-1.19s.04-.08,.08-.08h2.22s.08,.04,.08,.08-.04,.08-.08,.08h-2.14v1.07l1.22,1.22h27.56s.08,.04,.08,.08-.04,.08-.08,.08Z"/><path class="cls-1" d="M13.02,183.99h-1.7c-.09,0-.16-.07-.16-.16s.07-.16,.16-.16h1.7c.09,0,.16,.07,.16,.16s-.07,.16-.16,.16Z"/><path class="cls-1" d="M36.36,181.29H8.76s-.04,0-.06-.02l-1.27-1.27s-.02-.04-.02-.06v-1.19s.04-.08,.08-.08h2.22s.08,.04,.08,.08-.04,.08-.08,.08h-2.14v1.07l1.22,1.22h27.56s.08,.04,.08,.08-.04,.08-.08,.08Z"/><path class="cls-1" d="M13.02,178.92h-1.7c-.09,0-.16-.07-.16-.16s.07-.16,.16-.16h1.7c.09,0,.16,.07,.16,.16s-.07,.16-.16,.16Z"/><rect class="cls-1" x="37.98" y="201.26" width=".53" height=".53" transform="translate(76.48 403.05) rotate(180)"/><rect class="cls-1" x="37.98" y="196.18" width=".53" height=".53" transform="translate(76.48 392.89) rotate(180)"/><rect class="cls-1" x="37.98" y="191.1" width=".53" height=".53" transform="translate(76.48 382.74) rotate(180)"/><rect class="cls-1" x="37.98" y="186.03" width=".53" height=".53" transform="translate(76.48 372.58) rotate(180)"/><rect class="cls-1" x="37.98" y="180.95" width=".53" height=".53" transform="translate(76.48 362.43) rotate(180)"/><path class="cls-1" d="M70.51,193s-.08-.02-.11-.05l-28.21-28.21h-1.92l-1.72,1.72v1.81c0,.09-.07,.16-.16,.16s-.16-.07-.16-.16v-1.87s.02-.08,.05-.11l1.81-1.81s.07-.05,.11-.05h2.05s.08,.02,.11,.05l28.25,28.25c.06,.06,.06,.16,0,.23-.03,.03-.07,.05-.11,.05Z"/><path class="cls-1" d="M3.49,181.03s-.08-.04-.08-.08v-12.02s0-.04,.02-.06l21.29-21.29s.04-.02,.06-.02h5.35s.04,0,.06,.02l3.93,3.93s.03,.08,0,.11-.08,.03-.11,0l-3.91-3.91h-5.28L3.57,168.96v11.98s-.04,.08-.08,.08Z"/><polygon class="cls-1" points="3.49 169.97 11.76 161.7 11.76 160.82 3.49 168.93 3.49 169.97"/><polygon class="cls-1" points="60.38 202.89 51.54 194.04 49.73 194.04 50.71 193.07 52.57 193.07 60.34 200.83 60.38 202.89"/><polygon class="cls-1" points="60.38 199.39 51.54 190.55 49.73 190.55 50.71 189.57 52.57 189.57 60.34 197.34 60.38 199.39"/><polygon class="cls-1" points="60.38 195.9 51.54 187.06 49.73 187.06 50.71 186.08 52.57 186.08 60.34 193.84 60.38 195.9"/><polygon class="cls-1" points="60.38 192.41 51.54 183.56 49.73 183.56 50.71 182.58 52.57 182.58 60.34 190.35 60.38 192.41"/><polygon class="cls-1" points="16.14 166.48 12.19 170.43 12.19 171.24 11.75 170.8 11.75 169.97 15.22 166.49 16.14 166.48"/><polygon class="cls-1" points="14.58 166.48 10.62 170.43 10.62 171.24 10.19 170.8 10.19 169.97 13.66 166.49 14.58 166.48"/><polygon class="cls-1" points="13.02 166.48 9.06 170.43 9.06 171.24 8.62 170.8 8.62 169.97 12.1 166.49 13.02 166.48"/><polygon class="cls-1" points="11.45 166.48 7.5 170.43 7.5 171.24 7.06 170.8 7.06 169.97 10.53 166.49 11.45 166.48"/><rect class="cls-1" x="61.95" y="201.79" width="1.23" height=".29" transform="translate(125.13 403.87) rotate(180)"/><rect class="cls-1" x="61.95" y="198.23" width="1.23" height=".29" transform="translate(125.13 396.74) rotate(180)"/><rect class="cls-1" x="61.95" y="194.66" width="1.23" height=".29" transform="translate(125.13 389.62) rotate(180)"/><rect class="cls-1" x="61.95" y="191.1" width="1.23" height=".29" transform="translate(125.13 382.49) rotate(180)"/><path class="cls-1" d="M30.13,215.61H7.49s-.04,0-.06-.02l-2.26-2.26s-.02-.04-.02-.06v-7.78l-3.76-3.76H.08s-.08-.04-.08-.08,.04-.08,.08-.08H1.43s.04,0,.06,.02l3.8,3.8s.02,.04,.02,.06v7.78l2.22,2.22H30.1l2.76-2.76s.04-.02,.06-.02h22.14s.04,0,.06,.02l1.25,1.25s.03,.08,0,.11-.08,.03-.11,0l-1.23-1.23h-22.07l-2.76,2.76s-.04,.02-.06,.02Z"/><polygon class="cls-1" points="7.27 215.31 23.28 215.31 23.46 215.49 7.49 215.53 7.27 215.31"/><path class="cls-1" d="M7.89,214.87s-.04,0-.06-.02l-2.01-2.01s-.02-.04-.02-.06v-4.44s0-.04,.02-.06l.61-.61s.04-.02,.06-.02h.51s.08,.04,.08,.08-.04,.08-.08,.08h-.48l-.56,.56v4.38l1.99,1.99s.03,.08,0,.11c-.02,.02-.04,.02-.06,.02Z"/><path class="cls-1" d="M57.44,215.46c-.08,0-.16-.03-.23-.09l-.58-.58c-.12-.12-.12-.33,0-.45s.33-.12,.45,0l.58,.58c.12,.12,.12,.33,0,.45-.06,.06-.14,.09-.23,.09Z"/><path class="cls-1" d="M52.55,213.33h-20.13s-.08-.04-.08-.08,.04-.08,.08-.08h20.1l.22-.22v-.21s.04-.08,.08-.08,.08,.04,.08,.08v.24s0,.04-.02,.06l-.27,.27s-.04,.02-.06,.02Z"/><path class="cls-1" d="M29.7,215.06h-2.51s-.08-.04-.08-.08,.04-.08,.08-.08h2.48l1.67-1.67v-.41h-14.08s-.08-.04-.08-.08,.04-.08,.08-.08h14.16s.08,.04,.08,.08v.52s0,.04-.02,.06l-1.71,1.71s-.04,.02-.06,.02Z"/><path class="cls-1" d="M86.85,217.49s-.04,0-.06-.02l-2.73-2.73h-16.54s-.04,0-.06-.02l-2.06-2.06s-.02-.04-.02-.06,0-.04,.02-.06l.3-.3s.08-.03,.11,0,.03,.08,0,.11l-.24,.24,1.98,1.98h16.54s.04,0,.06,.02l2.76,2.76s.03,.08,0,.11c-.02,.02-.04,.02-.06,.02Z"/><path class="cls-1" d="M65.46,212.67h-1.71s-.08-.04-.08-.08,.04-.08,.08-.08h1.71s.08,.04,.08,.08-.04,.08-.08,.08Z"/><path class="cls-1" d="M67.37,204.31h-1.17s-.08-.04-.08-.08,.04-.08,.08-.08h1.17s.08,.04,.08,.08-.04,.08-.08,.08Z"/><path class="cls-1" d="M47.45,204.92h-1.15s-.08-.04-.08-.08,.04-.08,.08-.08h1.15s.08,.04,.08,.08-.04,.08-.08,.08Z"/><path class="cls-1" d="M44.63,199.83h-1.01s-.08-.04-.08-.08v-1.01s.04-.08,.08-.08h1.01s.08,.04,.08,.08v1.01s-.04,.08-.08,.08Zm-.93-.16h.85v-.85h-.85v.85Z"/><path class="cls-1" d="M44.63,195.39h-1.01s-.08-.04-.08-.08v-1.01s.04-.08,.08-.08h1.01s.08,.04,.08,.08v1.01s-.04,.08-.08,.08Zm-.93-.16h.85v-.85h-.85v.85Z"/><path class="cls-1" d="M44.63,190.96h-1.01s-.08-.04-.08-.08v-1.01s.04-.08,.08-.08h1.01s.08,.04,.08,.08v1.01s-.04,.08-.08,.08Zm-.93-.16h.85v-.85h-.85v.85Z"/><path class="cls-1" d="M44.63,186.52h-1.01s-.08-.04-.08-.08v-1.01s.04-.08,.08-.08h1.01s.08,.04,.08,.08v1.01s-.04,.08-.08,.08Zm-.93-.16h.85v-.85h-.85v.85Z"/><path class="cls-1" d="M44.63,182.08h-1.01s-.08-.04-.08-.08v-1.01s.04-.08,.08-.08h1.01s.08,.04,.08,.08v1.01s-.04,.08-.08,.08Zm-.93-.16h.85v-.85h-.85v.85Z"/><rect class="cls-1" x="39.8" y="173.43" width="2.81" height=".33" transform="translate(82.41 347.2) rotate(180)"/><rect class="cls-1" x="32.45" y="173.43" width="2.82" height=".33" transform="translate(67.72 347.2) rotate(180)"/><rect class="cls-1" x="25.11" y="173.43" width="2.82" height=".33" transform="translate(53.04 347.2) rotate(180)"/><rect class="cls-1" x="17.77" y="173.43" width="2.82" height=".33" transform="translate(38.35 347.2) rotate(180)"/><rect class="cls-1" x="6.1" y="151.4" width="1.88" height=".45" transform="translate(14.08 303.26) rotate(180)"/><rect class="cls-1" x="6.1" y="148.25" width="1.88" height=".45" transform="translate(14.08 296.95) rotate(180)"/><rect class="cls-1" x="6.1" y="145.1" width="1.88" height=".45" transform="translate(14.08 290.65) rotate(180)"/><rect class="cls-1" x="6.1" y="141.95" width="1.88" height=".45" transform="translate(14.08 284.34) rotate(180)"/><rect class="cls-1" x="6.1" y="138.79" width="1.88" height=".45" transform="translate(14.08 278.04) rotate(180)"/><rect class="cls-1" x="6.1" y="135.64" width="1.88" height=".45" transform="translate(14.08 271.73) rotate(180)"/><rect class="cls-1" x="6.1" y="132.49" width="1.88" height=".45" transform="translate(14.08 265.43) rotate(180)"/><polygon class="cls-1" points="95.66 133.44 95.66 181.75 97.54 183.64 97.54 204.19 95.2 206.53 93.2 206.53 83.76 197.09 83.76 192.89 90.97 185.68 90.97 175.37 93.56 172.78 93.56 135.07 92.37 133.88 92.37 126.78 94.18 124.97 95.66 124.97 95.66 133.44"/><path class="cls-1" d="M95.8,210.69c-.18,0-.32-.14-.32-.32v-1.21c0-.08,.03-.17,.09-.23l4.11-4.12c.06-.06,.14-.09,.23-.09h5.49c.18,0,.32,.14,.32,.32s-.14,.32-.32,.32h-5.35l-3.93,3.93v1.08c0,.18-.14,.32-.32,.32Z"/><path class="cls-1" d="M108.21,220.13s-.08-.02-.11-.05l-10.03-10.03s-.05-.07-.05-.11v-1.32s.02-.08,.05-.11l1.85-1.85c.06-.06,.16-.06,.23,0s.06,.16,0,.23l-1.8,1.8v1.19l9.99,9.99c.06,.06,.06,.16,0,.23-.03,.03-.07,.05-.11,.05Z"/><path class="cls-1" d="M111.5,223.43c-.08,0-.16-.03-.23-.09l-1.88-1.88c-.12-.12-.12-.33,0-.45s.33-.12,.45,0l1.88,1.88c.12,.12,.12,.33,0,.45-.06,.06-.14,.09-.23,.09Z"/><path class="cls-1" d="M82.39,192.06h-3.03c-.08,0-.17-.03-.23-.09l-35.13-35.13c-.06-.06-.09-.14-.09-.23v-4.09c0-.08,.03-.17,.09-.23l3.22-3.22v-2.12c0-.18,.14-.32,.32-.32s.32,.14,.32,.32v2.25c0,.08-.03,.17-.09,.23l-3.22,3.22v3.83l34.95,34.95h2.77l5.79-5.79v-1.51c0-.18,.14-.32,.32-.32s.32,.14,.32,.32v1.64c0,.08-.03,.17-.09,.23l-5.98,5.98c-.06,.06-.14,.09-.23,.09Z"/><path class="cls-1" d="M47.39,142.71c-.09,0-.16-.07-.16-.16v-11.84l-10.61-10.61H14.59l-2.08,2.08c-.06,.06-.16,.06-.23,0s-.06-.16,0-.23l2.13-2.13s.07-.05,.11-.05h22.17s.08,.02,.11,.05l10.7,10.7s.05,.07,.05,.11v11.9c0,.09-.07,.16-.16,.16Z"/><path class="cls-1" d="M90.86,133.55c-.09,0-.16-.07-.16-.16v-7.14l-6.34-6.34h-7.77l-.94,.94c-.06,.06-.16,.06-.23,0s-.06-.16,0-.23l.98-.98s.07-.05,.11-.05h7.9s.08,.02,.11,.05l6.43,6.43s.05,.07,.05,.11v7.21c0,.09-.07,.16-.16,.16Z"/><path class="cls-1" d="M90.86,137.28c-.18,0-.32-.14-.32-.32v-2.09c0-.18,.14-.32,.32-.32s.32,.14,.32,.32v2.09c0,.18-.14,.32-.32,.32Z"/><path class="cls-1" d="M85.66,151.7s-.08-.04-.08-.08v-27.57l-1.22-1.22h-1.07v2.14s-.04,.08-.08,.08-.08-.04-.08-.08v-2.22s.04-.08,.08-.08h1.19s.04,0,.06,.02l1.27,1.27s.02,.04,.02,.06v27.6s-.04,.08-.08,.08Z"/><path class="cls-1" d="M83.21,128.44c-.09,0-.16-.07-.16-.16v-1.7c0-.09,.07-.16,.16-.16s.16,.07,.16,.16v1.7c0,.09-.07,.16-.16,.16Z"/><path class="cls-1" d="M80.59,151.7s-.08-.04-.08-.08v-27.57l-1.22-1.22h-1.07v2.14s-.04,.08-.08,.08-.08-.04-.08-.08v-2.22s.04-.08,.08-.08h1.19s.04,0,.06,.02l1.27,1.27s.02,.04,.02,.06v27.6s-.04,.08-.08,.08Z"/><path class="cls-1" d="M78.13,128.44c-.09,0-.16-.07-.16-.16v-1.7c0-.09,.07-.16,.16-.16s.16,.07,.16,.16v1.7c0,.09-.07,.16-.16,.16Z"/><path class="cls-1" d="M75.51,151.7s-.08-.04-.08-.08v-27.57l-1.22-1.22h-1.07v2.14s-.04,.08-.08,.08-.08-.04-.08-.08v-2.22s.04-.08,.08-.08h1.19s.04,0,.06,.02l1.27,1.27s.02,.04,.02,.06v27.6s-.04,.08-.08,.08Z"/><path class="cls-1" d="M73.05,128.44c-.09,0-.16-.07-.16-.16v-1.7c0-.09,.07-.16,.16-.16s.16,.07,.16,.16v1.7c0,.09-.07,.16-.16,.16Z"/><path class="cls-1" d="M70.43,151.7s-.08-.04-.08-.08v-27.57l-1.22-1.22h-1.07v2.14s-.04,.08-.08,.08-.08-.04-.08-.08v-2.22s.04-.08,.08-.08h1.19s.04,0,.06,.02l1.27,1.27s.02,.04,.02,.06v27.6s-.04,.08-.08,.08Z"/><path class="cls-1" d="M67.98,128.44c-.09,0-.16-.07-.16-.16v-1.7c0-.09,.07-.16,.16-.16s.16,.07,.16,.16v1.7c0,.09-.07,.16-.16,.16Z"/><path class="cls-1" d="M65.36,151.7s-.08-.04-.08-.08v-27.57l-1.22-1.22h-1.07v2.14s-.04,.08-.08,.08-.08-.04-.08-.08v-2.22s.04-.08,.08-.08h1.19s.04,0,.06,.02l1.27,1.27s.02,.04,.02,.06v27.6s-.04,.08-.08,.08Z"/><path class="cls-1" d="M62.9,128.44c-.09,0-.16-.07-.16-.16v-1.7c0-.09,.07-.16,.16-.16s.16,.07,.16,.16v1.7c0,.09-.07,.16-.16,.16Z"/><rect class="cls-1" x="85.4" y="153.23" width=".53" height=".53" transform="translate(-67.84 239.16) rotate(-90)"/><rect class="cls-1" x="80.32" y="153.23" width=".53" height=".53" transform="translate(-72.91 234.09) rotate(-90)"/><rect class="cls-1" x="75.24" y="153.23" width=".53" height=".53" transform="translate(-77.99 229.01) rotate(-90)"/><rect class="cls-1" x="70.17" y="153.23" width=".53" height=".53" transform="translate(-83.07 223.93) rotate(-90)"/><rect class="cls-1" x="65.09" y="153.23" width=".53" height=".53" transform="translate(-88.14 218.86) rotate(-90)"/><path class="cls-1" d="M76.98,185.93s-.08-.02-.11-.05l-28.25-28.25s-.05-.07-.05-.11v-2.05s.02-.08,.05-.11l1.81-1.81s.07-.05,.11-.05h1.87c.09,0,.16,.07,.16,.16s-.07,.16-.16,.16h-1.81l-1.72,1.72v1.92l28.21,28.21c.06,.06,.06,.16,0,.23-.03,.03-.07,.05-.11,.05Z"/><path class="cls-1" d="M35.71,149.4s-.04,0-.06-.02l-3.93-3.93s-.02-.04-.02-.06v-5.35s0-.04,.02-.06l21.29-21.29s.04-.02,.06-.02h12.02s.08,.04,.08,.08-.04,.08-.08,.08h-11.98l-21.25,21.25v5.28l3.91,3.91s.03,.08,0,.11c-.02,.01-.04,.02-.06,.02Z"/><polygon class="cls-1" points="54.11 118.75 45.84 127.02 44.96 127.02 53.07 118.75 54.11 118.75"/><polygon class="cls-1" points="87.03 175.64 78.18 166.79 78.18 164.99 77.21 165.97 77.21 167.83 84.97 175.6 87.03 175.64"/><polygon class="cls-1" points="83.54 175.64 74.69 166.79 74.69 164.99 73.71 165.97 73.71 167.83 81.48 175.6 83.54 175.64"/><polygon class="cls-1" points="80.04 175.64 71.2 166.79 71.2 164.99 70.22 165.97 70.22 167.83 77.98 175.6 80.04 175.64"/><polygon class="cls-1" points="76.55 175.64 67.7 166.79 67.7 164.99 66.72 165.97 66.72 167.83 74.49 175.6 76.55 175.64"/><polygon class="cls-1" points="50.62 131.4 54.57 127.44 55.38 127.44 54.94 127.01 54.11 127.01 50.64 130.48 50.62 131.4"/><polygon class="cls-1" points="50.62 129.84 54.57 125.88 55.38 125.88 54.94 125.44 54.11 125.44 50.64 128.92 50.62 129.84"/><polygon class="cls-1" points="50.62 128.27 54.57 124.32 55.38 124.32 54.94 123.88 54.11 123.88 50.64 127.35 50.62 128.27"/><polygon class="cls-1" points="50.62 126.71 54.57 122.76 55.38 122.76 54.94 122.32 54.11 122.32 50.64 125.79 50.62 126.71"/><rect class="cls-1" x="85.46" y="177.68" width="1.23" height=".29" transform="translate(-91.75 263.9) rotate(-90)"/><rect class="cls-1" x="81.9" y="177.68" width="1.23" height=".29" transform="translate(-95.31 260.33) rotate(-90)"/><rect class="cls-1" x="78.34" y="177.68" width="1.23" height=".29" transform="translate(-98.87 256.77) rotate(-90)"/><rect class="cls-1" x="74.77" y="177.68" width="1.23" height=".29" transform="translate(-102.44 253.21) rotate(-90)"/><path class="cls-1" d="M98.13,171.64s-.04,0-.06-.02l-1.25-1.25s-.02-.03-.02-.06v-22.14s0-.04,.02-.06l2.76-2.76v-22.58l-2.22-2.22h-7.78s-.04,0-.06-.02l-3.8-3.8s-.02-.04-.02-.06v-1.35s.04-.08,.08-.08,.08,.04,.08,.08v1.31l3.76,3.76h7.78s.04,0,.06,.02l2.26,2.26s.02,.04,.02,.06v22.64s0,.04-.02,.06l-2.76,2.76v22.07l1.23,1.23s.03,.08,0,.11c-.02,.02-.04,.02-.06,.02Z"/><polygon class="cls-1" points="99.45 122.53 99.45 138.54 99.63 138.72 99.67 122.75 99.45 122.53"/><path class="cls-1" d="M98.93,123.22s-.04,0-.06-.02l-1.99-1.99h-4.38l-.56,.56v.48s-.04,.08-.08,.08-.08-.04-.08-.08v-.52s0-.04,.02-.06l.61-.61s.04-.02,.06-.02h4.44s.04,0,.06,.02l2.01,2.01s.03,.08,0,.11c-.02,.02-.04,.02-.06,.02Z"/><path class="cls-1" d="M99.28,173.02c-.08,0-.16-.03-.23-.09l-.58-.58c-.12-.12-.12-.33,0-.45s.33-.12,.45,0l.58,.58c.12,.12,.12,.33,0,.45-.06,.06-.14,.09-.23,.09Z"/><path class="cls-1" d="M97.12,168.15h-.24s-.08-.04-.08-.08,.04-.08,.08-.08h.21l.22-.22v-20.1s.04-.08,.08-.08,.08,.04,.08,.08v20.13s0,.04-.02,.06l-.27,.27s-.04,.02-.06,.02Z"/><path class="cls-1" d="M97.41,146.75h-.53s-.08-.04-.08-.08v-14.16s.04-.08,.08-.08,.08,.04,.08,.08v14.08h.41l1.67-1.67v-2.48s.04-.08,.08-.08,.08,.04,.08,.08v2.51s0,.04-.02,.06l-1.71,1.71s-.04,.02-.06,.02Z"/><path class="cls-1" d="M101.55,202.18s-.04,0-.06-.02l-2.76-2.76s-.02-.04-.02-.06v-16.54l-1.98-1.98-.24,.24s-.08,.03-.11,0-.03-.08,0-.11l.3-.3s.08-.03,.11,0l2.06,2.06s.02,.04,.02,.06v16.54l2.73,2.73s.03,.08,0,.11c-.02,.01-.04,.02-.06,.02Z"/><path class="cls-1" d="M96.73,180.8s-.08-.04-.08-.08v-1.71s.04-.08,.08-.08,.08,.04,.08,.08v1.71s-.04,.08-.08,.08Z"/><path class="cls-1" d="M88.37,182.71s-.08-.04-.08-.08v-1.17s.04-.08,.08-.08,.08,.04,.08,.08v1.17s-.04,.08-.08,.08Z"/><path class="cls-1" d="M88.98,162.79s-.08-.04-.08-.08v-1.15s.04-.08,.08-.08,.08,.04,.08,.08v1.15s-.04,.08-.08,.08Z"/><path class="cls-1" d="M83.89,159.97h-1.01s-.08-.04-.08-.08v-1.01s.04-.08,.08-.08h1.01s.08,.04,.08,.08v1.01s-.04,.08-.08,.08Zm-.93-.16h.85v-.85h-.85v.85Z"/><path class="cls-1" d="M79.45,159.97h-1.01s-.08-.04-.08-.08v-1.01s.04-.08,.08-.08h1.01s.08,.04,.08,.08v1.01s-.04,.08-.08,.08Zm-.93-.16h.85v-.85h-.85v.85Z"/><path class="cls-1" d="M75.02,159.97h-1.01s-.08-.04-.08-.08v-1.01s.04-.08,.08-.08h1.01s.08,.04,.08,.08v1.01s-.04,.08-.08,.08Zm-.93-.16h.85v-.85h-.85v.85Z"/><path class="cls-1" d="M70.58,159.97h-1.01s-.08-.04-.08-.08v-1.01s.04-.08,.08-.08h1.01s.08,.04,.08,.08v1.01s-.04,.08-.08,.08Zm-.93-.16h.85v-.85h-.85v.85Z"/><path class="cls-1" d="M66.15,159.97h-1.01s-.08-.04-.08-.08v-1.01s.04-.08,.08-.08h1.01s.08,.04,.08,.08v1.01s-.04,.08-.08,.08Zm-.93-.16h.85v-.85h-.85v.85Z"/><rect class="cls-1" x="56.33" y="156.3" width="2.82" height=".33" transform="translate(-98.72 214.2) rotate(-90)"/><rect class="cls-1" x="56.33" y="148.96" width="2.82" height=".33" transform="translate(-91.38 206.86) rotate(-90)"/><rect class="cls-1" x="56.33" y="141.61" width="2.82" height=".33" transform="translate(-84.04 199.52) rotate(-90)"/><rect class="cls-1" x="56.33" y="134.27" width="2.82" height=".33" transform="translate(-76.7 192.17) rotate(-90)"/><rect class="cls-1" x="34.83" y="122.07" width="1.88" height=".45" transform="translate(-86.53 158.07) rotate(-90)"/><rect class="cls-1" x="31.68" y="122.07" width="1.88" height=".45" transform="translate(-89.68 154.92) rotate(-90)"/><rect class="cls-1" x="28.52" y="122.07" width="1.88" height=".45" transform="translate(-92.83 151.76) rotate(-90)"/><rect class="cls-1" x="25.37" y="122.07" width="1.88" height=".45" transform="translate(-95.99 148.61) rotate(-90)"/><rect class="cls-1" x="22.22" y="122.07" width="1.88" height=".45" transform="translate(-99.14 145.46) rotate(-90)"/><rect class="cls-1" x="19.07" y="122.07" width="1.88" height=".45" transform="translate(-102.29 142.31) rotate(-90)"/><rect class="cls-1" x="15.91" y="122.07" width="1.88" height=".45" transform="translate(-105.44 139.15) rotate(-90)"/></g><g><polygon class="cls-1" points="191 211.51 142.68 211.51 140.8 213.4 120.24 213.4 117.91 211.06 117.91 209.06 127.35 199.62 131.54 199.62 138.76 206.83 149.07 206.83 151.66 209.42 189.36 209.42 190.55 208.23 197.66 208.23 199.47 210.03 199.47 211.51 191 211.51"/><path class="cls-1" d="M119.38,221.58c-.18,0-.32-.14-.32-.32v-5.36l-3.93-3.93h-1.08c-.18,0-.32-.14-.32-.32s.14-.32,.32-.32h1.21c.08,0,.17,.03,.23,.09l4.12,4.12c.06,.06,.09,.14,.09,.23v5.49c0,.18-.14,.32-.32,.32Z"/><path class="cls-1" d="M104.46,224.23s-.08-.02-.11-.05c-.06-.06-.06-.16,0-.23l10.03-10.03s.07-.05,.11-.05h1.32s.08,.02,.11,.05l1.85,1.85c.06,.06,.06,.16,0,.23s-.16,.06-.23,0l-1.8-1.8h-1.19l-9.99,9.99s-.07,.05-.11,.05Z"/><path class="cls-1" d="M101.33,227.68c-.08,0-.16-.03-.23-.09-.12-.12-.12-.33,0-.45l1.88-1.88c.12-.12,.33-.12,.45,0s.12,.33,0,.45l-1.88,1.88c-.06,.06-.14,.09-.23,.09Z"/><path class="cls-1" d="M140.31,204.54h-1.64c-.08,0-.17-.03-.23-.09l-5.98-5.98c-.06-.06-.09-.14-.09-.23v-3.03c0-.08,.03-.17,.09-.23l35.13-35.13c.06-.06,.14-.09,.23-.09h4.09c.08,0,.17,.03,.23,.09l3.22,3.22h2.12c.18,0,.32,.14,.32,.32s-.14,.32-.32,.32h-2.25c-.08,0-.17-.03-.23-.09l-3.22-3.22h-3.83l-34.95,34.95v2.77l5.79,5.79h1.51c.18,0,.32,.14,.32,.32s-.14,.32-.32,.32Z"/><path class="cls-1" d="M193.78,163.41h-11.9c-.09,0-.16-.07-.16-.16s.07-.16,.16-.16h11.84l10.61-10.61v-22.03l-2.08-2.08c-.06-.06-.06-.16,0-.23s.16-.06,.23,0l2.13,2.13s.05,.07,.05,.11v22.17s-.02,.08-.05,.11l-10.7,10.7s-.07,.05-.11,.05Z"/><path class="cls-1" d="M198.25,206.88h-7.21c-.09,0-.16-.07-.16-.16s.07-.16,.16-.16h7.14l6.34-6.34v-7.77l-.94-.94c-.06-.06-.06-.16,0-.23s.16-.06,.23,0l.98,.98s.05,.07,.05,.11v7.9s-.02,.08-.05,.11l-6.43,6.43s-.07,.05-.11,.05Z"/><path class="cls-1" d="M189.56,207.04h-2.09c-.18,0-.32-.14-.32-.32s.14-.32,.32-.32h2.09c.18,0,.32,.14,.32,.32s-.14,.32-.32,.32Z"/><path class="cls-1" d="M200.42,201.6h-27.6s-.08-.04-.08-.08,.04-.08,.08-.08h27.56l1.22-1.22v-1.07h-2.14s-.08-.04-.08-.08,.04-.08,.08-.08h2.22s.08,.04,.08,.08v1.19s0,.04-.02,.06l-1.27,1.27s-.04,.02-.06,.02Z"/><path class="cls-1" d="M197.86,199.23h-1.7c-.09,0-.16-.07-.16-.16s.07-.16,.16-.16h1.7c.09,0,.16,.07,.16,.16s-.07,.16-.16,.16Z"/><path class="cls-1" d="M200.42,196.53h-27.6s-.08-.04-.08-.08,.04-.08,.08-.08h27.56l1.22-1.22v-1.07h-2.14s-.08-.04-.08-.08,.04-.08,.08-.08h2.22s.08,.04,.08,.08v1.19s0,.04-.02,.06l-1.27,1.27s-.04,.02-.06,.02Z"/><path class="cls-1" d="M197.86,194.15h-1.7c-.09,0-.16-.07-.16-.16s.07-.16,.16-.16h1.7c.09,0,.16,.07,.16,.16s-.07,.16-.16,.16Z"/><path class="cls-1" d="M200.42,191.45h-27.6s-.08-.04-.08-.08,.04-.08,.08-.08h27.56l1.22-1.22v-1.07h-2.14s-.08-.04-.08-.08,.04-.08,.08-.08h2.22s.08,.04,.08,.08v1.19s0,.04-.02,.06l-1.27,1.27s-.04,.02-.06,.02Z"/><path class="cls-1" d="M197.86,189.07h-1.7c-.09,0-.16-.07-.16-.16s.07-.16,.16-.16h1.7c.09,0,.16,.07,.16,.16s-.07,.16-.16,.16Z"/><path class="cls-1" d="M200.42,186.37h-27.6s-.08-.04-.08-.08,.04-.08,.08-.08h27.56l1.22-1.22v-1.07h-2.14s-.08-.04-.08-.08,.04-.08,.08-.08h2.22s.08,.04,.08,.08v1.19s0,.04-.02,.06l-1.27,1.27s-.04,.02-.06,.02Z"/><path class="cls-1" d="M197.86,183.99h-1.7c-.09,0-.16-.07-.16-.16s.07-.16,.16-.16h1.7c.09,0,.16,.07,.16,.16s-.07,.16-.16,.16Z"/><path class="cls-1" d="M200.42,181.29h-27.6s-.08-.04-.08-.08,.04-.08,.08-.08h27.56l1.22-1.22v-1.07h-2.14s-.08-.04-.08-.08,.04-.08,.08-.08h2.22s.08,.04,.08,.08v1.19s0,.04-.02,.06l-1.27,1.27s-.04,.02-.06,.02Z"/><path class="cls-1" d="M197.86,178.92h-1.7c-.09,0-.16-.07-.16-.16s.07-.16,.16-.16h1.7c.09,0,.16,.07,.16,.16s-.07,.16-.16,.16Z"/><rect class="cls-1" x="170.67" y="201.26" width=".53" height=".53"/><rect class="cls-1" x="170.67" y="196.18" width=".53" height=".53"/><rect class="cls-1" x="170.67" y="191.1" width=".53" height=".53"/><rect class="cls-1" x="170.67" y="186.03" width=".53" height=".53"/><rect class="cls-1" x="170.67" y="180.95" width=".53" height=".53"/><path class="cls-1" d="M138.67,193s-.08-.02-.11-.05c-.06-.06-.06-.16,0-.23l28.25-28.25s.07-.05,.11-.05h2.05s.08,.02,.11,.05l1.81,1.81s.05,.07,.05,.11v1.87c0,.09-.07,.16-.16,.16s-.16-.07-.16-.16v-1.81l-1.72-1.72h-1.92l-28.21,28.21s-.07,.05-.11,.05Z"/><path class="cls-1" d="M205.68,181.03s-.08-.04-.08-.08v-11.98l-21.25-21.25h-5.28l-3.91,3.91s-.08,.03-.11,0-.03-.08,0-.11l3.93-3.93s.04-.02,.06-.02h5.35s.04,0,.06,.02l21.29,21.29s.02,.04,.02,.06v12.02s-.04,.08-.08,.08Z"/><polygon class="cls-1" points="205.68 169.97 197.41 161.7 197.41 160.82 205.68 168.93 205.68 169.97"/><polygon class="cls-1" points="148.8 202.89 157.64 194.04 159.44 194.04 158.46 193.07 156.6 193.07 148.84 200.83 148.8 202.89"/><polygon class="cls-1" points="148.8 199.39 157.64 190.55 159.44 190.55 158.46 189.57 156.6 189.57 148.84 197.34 148.8 199.39"/><polygon class="cls-1" points="148.8 195.9 157.64 187.06 159.44 187.06 158.46 186.08 156.6 186.08 148.84 193.84 148.8 195.9"/><polygon class="cls-1" points="148.8 192.41 157.64 183.56 159.44 183.56 158.46 182.58 156.6 182.58 148.84 190.35 148.8 192.41"/><polygon class="cls-1" points="193.03 166.48 196.99 170.43 196.99 171.24 197.43 170.8 197.43 169.97 193.95 166.49 193.03 166.48"/><polygon class="cls-1" points="194.6 166.48 198.55 170.43 198.55 171.24 198.99 170.8 198.99 169.97 195.52 166.49 194.6 166.48"/><polygon class="cls-1" points="196.16 166.48 200.12 170.43 200.12 171.24 200.55 170.8 200.55 169.97 197.08 166.49 196.16 166.48"/><polygon class="cls-1" points="197.72 166.48 201.68 170.43 201.68 171.24 202.12 170.8 202.12 169.97 198.64 166.49 197.72 166.48"/><rect class="cls-1" x="146" y="201.79" width="1.23" height=".29"/><rect class="cls-1" x="146" y="198.23" width="1.23" height=".29"/><rect class="cls-1" x="146" y="194.66" width="1.23" height=".29"/><rect class="cls-1" x="146" y="191.1" width="1.23" height=".29"/><path class="cls-1" d="M201.68,215.61h-22.64s-.04,0-.06-.02l-2.76-2.76h-22.07l-1.23,1.23s-.08,.03-.11,0c-.03-.03-.03-.08,0-.11l1.25-1.25s.04-.02,.06-.02h22.14s.04,0,.06,.02l2.76,2.76h22.58l2.22-2.22v-7.78s0-.04,.02-.06l3.8-3.8s.04-.02,.06-.02h1.35s.08,.04,.08,.08-.04,.08-.08,.08h-1.31l-3.76,3.76v7.78s0,.04-.02,.06l-2.26,2.26s-.04,.02-.06,.02Z"/><polygon class="cls-1" points="201.9 215.31 185.89 215.31 185.72 215.49 201.68 215.53 201.9 215.31"/><path class="cls-1" d="M201.29,214.87s-.04,0-.06-.02c-.03-.03-.03-.08,0-.11l1.99-1.99v-4.38l-.56-.56h-.48s-.08-.04-.08-.08,.04-.08,.08-.08h.52s.04,0,.06,.02l.61,.61s.02,.04,.02,.06v4.44s0,.04-.02,.06l-2.01,2.01s-.04,.02-.06,.02Z"/><path class="cls-1" d="M151.74,215.46c-.08,0-.16-.03-.23-.09-.12-.12-.12-.33,0-.45l.58-.58c.12-.12,.33-.12,.45,0s.12,.33,0,.45l-.58,.58c-.06,.06-.14,.09-.23,.09Z"/><path class="cls-1" d="M176.76,213.33h-20.13s-.04,0-.06-.02l-.27-.27s-.02-.04-.02-.06v-.24s.04-.08,.08-.08,.08,.04,.08,.08v.21l.22,.22h20.1s.08,.04,.08,.08-.04,.08-.08,.08Z"/><path class="cls-1" d="M181.99,215.06h-2.51s-.04,0-.06-.02l-1.71-1.71s-.02-.03-.02-.06v-.52s.04-.08,.08-.08h14.16s.08,.04,.08,.08-.04,.08-.08,.08h-14.08v.41l1.67,1.67h2.48s.08,.04,.08,.08-.04,.08-.08,.08Z"/><path class="cls-1" d="M122.33,217.49s-.04,0-.06-.02c-.03-.03-.03-.08,0-.11l2.76-2.76s.04-.02,.06-.02h16.54l1.98-1.98-.24-.24s-.03-.08,0-.11c.03-.03,.08-.03,.11,0l.3,.3s.02,.04,.02,.06,0,.04-.02,.06l-2.06,2.06s-.04,.02-.06,.02h-16.54l-2.73,2.73s-.04,.02-.06,.02Z"/><path class="cls-1" d="M145.42,212.67h-1.71s-.08-.04-.08-.08,.04-.08,.08-.08h1.71s.08,.04,.08,.08-.04,.08-.08,.08Z"/><path class="cls-1" d="M142.98,204.31h-1.17s-.08-.04-.08-.08,.04-.08,.08-.08h1.17s.08,.04,.08,.08-.04,.08-.08,.08Z"/><path class="cls-1" d="M162.87,204.92h-1.15s-.08-.04-.08-.08,.04-.08,.08-.08h1.15s.08,.04,.08,.08-.04,.08-.08,.08Z"/><path class="cls-1" d="M165.56,199.83h-1.01s-.08-.04-.08-.08v-1.01s.04-.08,.08-.08h1.01s.08,.04,.08,.08v1.01s-.04,.08-.08,.08Zm-.93-.16h.85v-.85h-.85v.85Z"/><path class="cls-1" d="M165.56,195.39h-1.01s-.08-.04-.08-.08v-1.01s.04-.08,.08-.08h1.01s.08,.04,.08,.08v1.01s-.04,.08-.08,.08Zm-.93-.16h.85v-.85h-.85v.85Z"/><path class="cls-1" d="M165.56,190.96h-1.01s-.08-.04-.08-.08v-1.01s.04-.08,.08-.08h1.01s.08,.04,.08,.08v1.01s-.04,.08-.08,.08Zm-.93-.16h.85v-.85h-.85v.85Z"/><path class="cls-1" d="M165.56,186.52h-1.01s-.08-.04-.08-.08v-1.01s.04-.08,.08-.08h1.01s.08,.04,.08,.08v1.01s-.04,.08-.08,.08Zm-.93-.16h.85v-.85h-.85v.85Z"/><path class="cls-1" d="M165.56,182.08h-1.01s-.08-.04-.08-.08v-1.01s.04-.08,.08-.08h1.01s.08,.04,.08,.08v1.01s-.04,.08-.08,.08Zm-.93-.16h.85v-.85h-.85v.85Z"/><rect class="cls-1" x="166.56" y="173.43" width="2.82" height=".33"/><rect class="cls-1" x="173.91" y="173.43" width="2.82" height=".33"/><rect class="cls-1" x="181.25" y="173.43" width="2.82" height=".33"/><rect class="cls-1" x="188.59" y="173.43" width="2.81" height=".33"/><rect class="cls-1" x="201.19" y="151.4" width="1.88" height=".45"/><rect class="cls-1" x="201.19" y="148.25" width="1.88" height=".45"/><rect class="cls-1" x="201.19" y="145.1" width="1.88" height=".45"/><rect class="cls-1" x="201.19" y="141.95" width="1.88" height=".45"/><rect class="cls-1" x="201.19" y="138.79" width="1.88" height=".45"/><rect class="cls-1" x="201.19" y="135.64" width="1.88" height=".45"/><rect class="cls-1" x="201.19" y="132.49" width="1.88" height=".45"/><polygon class="cls-1" points="113.52 133.44 113.52 181.75 111.64 183.64 111.64 204.19 113.97 206.53 115.98 206.53 125.42 197.09 125.42 192.89 118.2 185.68 118.2 175.37 115.62 172.78 115.62 135.07 116.81 133.88 116.81 126.78 115 124.97 113.52 124.97 113.52 133.44"/><path class="cls-1" d="M113.38,210.69c-.18,0-.32-.14-.32-.32v-1.08l-3.93-3.93h-5.35c-.18,0-.32-.14-.32-.32s.14-.32,.32-.32h5.49c.08,0,.17,.03,.23,.09l4.12,4.12c.06,.06,.09,.14,.09,.23v1.21c0,.18-.14,.32-.32,.32Z"/><path class="cls-1" d="M100.96,220.13s-.08-.02-.11-.05c-.06-.06-.06-.16,0-.23l9.99-9.99v-1.19l-1.8-1.8c-.06-.06-.06-.16,0-.23s.16-.06,.23,0l1.85,1.85s.05,.07,.05,.11v1.32s-.02,.08-.05,.11l-10.03,10.03s-.07,.05-.11,.05Z"/><path class="cls-1" d="M97.67,223.43c-.08,0-.16-.03-.23-.09-.12-.12-.12-.33,0-.45l1.88-1.88c.12-.12,.33-.12,.45,0s.12,.33,0,.45l-1.88,1.88c-.06,.06-.14,.09-.23,.09Z"/><path class="cls-1" d="M129.82,192.06h-3.03c-.08,0-.17-.03-.23-.09l-5.98-5.98c-.06-.06-.09-.14-.09-.23v-1.64c0-.18,.14-.32,.32-.32s.32,.14,.32,.32v1.51l5.79,5.79h2.77l34.95-34.95v-3.83l-3.22-3.22c-.06-.06-.09-.14-.09-.23v-2.25c0-.18,.14-.32,.32-.32s.32,.14,.32,.32v2.12l3.22,3.22c.06,.06,.09,.14,.09,.23v4.09c0,.08-.03,.17-.09,.23l-35.13,35.13c-.06,.06-.14,.09-.23,.09Z"/><path class="cls-1" d="M161.78,142.71c-.09,0-.16-.07-.16-.16v-11.9s.02-.08,.05-.11l10.7-10.7s.07-.05,.11-.05h22.17s.08,.02,.11,.05l2.13,2.13c.06,.06,.06,.16,0,.23s-.16,.06-.23,0l-2.08-2.08h-22.03l-10.61,10.61v11.84c0,.09-.07,.16-.16,.16Z"/><path class="cls-1" d="M118.31,133.55c-.09,0-.16-.07-.16-.16v-7.21s.02-.08,.05-.11l6.43-6.43s.07-.05,.11-.05h7.9s.08,.02,.11,.05l.98,.98c.06,.06,.06,.16,0,.23s-.16,.06-.23,0l-.94-.94h-7.77l-6.34,6.34v7.14c0,.09-.07,.16-.16,.16Z"/><path class="cls-1" d="M118.31,137.28c-.18,0-.32-.14-.32-.32v-2.09c0-.18,.14-.32,.32-.32s.32,.14,.32,.32v2.09c0,.18-.14,.32-.32,.32Z"/><path class="cls-1" d="M123.51,151.7s-.08-.04-.08-.08v-27.6s0-.04,.02-.06l1.27-1.27s.04-.02,.06-.02h1.19s.08,.04,.08,.08v2.22s-.04,.08-.08,.08-.08-.04-.08-.08v-2.14h-1.07l-1.22,1.22v27.57s-.04,.08-.08,.08Z"/><path class="cls-1" d="M125.97,128.44c-.09,0-.16-.07-.16-.16v-1.7c0-.09,.07-.16,.16-.16s.16,.07,.16,.16v1.7c0,.09-.07,.16-.16,.16Z"/><path class="cls-1" d="M128.59,151.7s-.08-.04-.08-.08v-27.6s0-.04,.02-.06l1.27-1.27s.04-.02,.06-.02h1.19s.08,.04,.08,.08v2.22s-.04,.08-.08,.08-.08-.04-.08-.08v-2.14h-1.07l-1.22,1.22v27.57s-.04,.08-.08,.08Z"/><path class="cls-1" d="M131.05,128.44c-.09,0-.16-.07-.16-.16v-1.7c0-.09,.07-.16,.16-.16s.16,.07,.16,.16v1.7c0,.09-.07,.16-.16,.16Z"/><path class="cls-1" d="M133.67,151.7s-.08-.04-.08-.08v-27.6s0-.04,.02-.06l1.27-1.27s.04-.02,.06-.02h1.19s.08,.04,.08,.08v2.22s-.04,.08-.08,.08-.08-.04-.08-.08v-2.14h-1.07l-1.22,1.22v27.57s-.04,.08-.08,.08Z"/><path class="cls-1" d="M136.12,128.44c-.09,0-.16-.07-.16-.16v-1.7c0-.09,.07-.16,.16-.16s.16,.07,.16,.16v1.7c0,.09-.07,.16-.16,.16Z"/><path class="cls-1" d="M138.74,151.7s-.08-.04-.08-.08v-27.6s0-.04,.02-.06l1.27-1.27s.04-.02,.06-.02h1.19s.08,.04,.08,.08v2.22s-.04,.08-.08,.08-.08-.04-.08-.08v-2.14h-1.07l-1.22,1.22v27.57s-.04,.08-.08,.08Z"/><path class="cls-1" d="M141.2,128.44c-.09,0-.16-.07-.16-.16v-1.7c0-.09,.07-.16,.16-.16s.16,.07,.16,.16v1.7c0,.09-.07,.16-.16,.16Z"/><path class="cls-1" d="M143.82,151.7s-.08-.04-.08-.08v-27.6s0-.04,.02-.06l1.27-1.27s.04-.02,.06-.02h1.19s.08,.04,.08,.08v2.22s-.04,.08-.08,.08-.08-.04-.08-.08v-2.14h-1.07l-1.22,1.22v27.57s-.04,.08-.08,.08Z"/><path class="cls-1" d="M146.28,128.44c-.09,0-.16-.07-.16-.16v-1.7c0-.09,.07-.16,.16-.16s.16,.07,.16,.16v1.7c0,.09-.07,.16-.16,.16Z"/><rect class="cls-1" x="123.25" y="153.23" width=".53" height=".53" transform="translate(-29.99 277.01) rotate(-90)"/><rect class="cls-1" x="128.32" y="153.23" width=".53" height=".53" transform="translate(-24.91 282.09) rotate(-90)"/><rect class="cls-1" x="133.4" y="153.23" width=".53" height=".53" transform="translate(-19.83 287.17) rotate(-90)"/><rect class="cls-1" x="138.48" y="153.23" width=".53" height=".53" transform="translate(-14.76 292.24) rotate(-90)"/><rect class="cls-1" x="143.55" y="153.23" width=".53" height=".53" transform="translate(-9.68 297.32) rotate(-90)"/><path class="cls-1" d="M132.19,185.93s-.08-.02-.11-.05c-.06-.06-.06-.16,0-.23l28.21-28.21v-1.92l-1.72-1.72h-1.81c-.09,0-.16-.07-.16-.16s.07-.16,.16-.16h1.87s.08,.02,.11,.05l1.81,1.81s.05,.07,.05,.11v2.05s-.02,.08-.05,.11l-28.25,28.25s-.07,.05-.11,.05Z"/><path class="cls-1" d="M173.47,149.4s-.04,0-.06-.02c-.03-.03-.03-.08,0-.11l3.91-3.91v-5.28l-21.25-21.25h-11.98s-.08-.04-.08-.08,.04-.08,.08-.08h12.02s.04,0,.06,.02l21.29,21.29s.02,.04,.02,.06v5.35s0,.04-.02,.06l-3.93,3.93s-.04,.02-.06,.02Z"/><polygon class="cls-1" points="155.07 118.75 163.34 127.02 164.21 127.02 156.1 118.75 155.07 118.75"/><polygon class="cls-1" points="122.15 175.64 130.99 166.79 130.99 164.99 131.97 165.97 131.97 167.83 124.21 175.6 122.15 175.64"/><polygon class="cls-1" points="125.64 175.64 134.49 166.79 134.49 164.99 135.46 165.97 135.46 167.83 127.7 175.6 125.64 175.64"/><polygon class="cls-1" points="129.13 175.64 137.98 166.79 137.98 164.99 138.96 165.97 138.96 167.83 131.19 175.6 129.13 175.64"/><polygon class="cls-1" points="132.63 175.64 141.47 166.79 141.47 164.99 142.45 165.97 142.45 167.83 134.69 175.6 132.63 175.64"/><polygon class="cls-1" points="158.56 131.4 154.6 127.44 153.8 127.44 154.23 127.01 155.07 127.01 158.54 130.48 158.56 131.4"/><polygon class="cls-1" points="158.56 129.84 154.6 125.88 153.8 125.88 154.23 125.44 155.07 125.44 158.54 128.92 158.56 129.84"/><polygon class="cls-1" points="158.56 128.27 154.6 124.32 153.8 124.32 154.23 123.88 155.07 123.88 158.54 127.35 158.56 128.27"/><polygon class="cls-1" points="158.56 126.71 154.6 122.76 153.8 122.76 154.23 122.32 155.07 122.32 158.54 125.79 158.56 126.71"/><rect class="cls-1" x="122.49" y="177.68" width="1.23" height=".29" transform="translate(-54.72 300.92) rotate(-90)"/><rect class="cls-1" x="126.05" y="177.68" width="1.23" height=".29" transform="translate(-51.16 304.49) rotate(-90)"/><rect class="cls-1" x="129.61" y="177.68" width="1.23" height=".29" transform="translate(-47.6 308.05) rotate(-90)"/><rect class="cls-1" x="133.17" y="177.68" width="1.23" height=".29" transform="translate(-44.03 311.61) rotate(-90)"/><path class="cls-1" d="M111.04,171.64s-.04,0-.06-.02c-.03-.03-.03-.08,0-.11l1.23-1.23v-22.07l-2.76-2.76s-.02-.04-.02-.06v-22.64s0-.04,.02-.06l2.26-2.26s.04-.02,.06-.02h7.78l3.76-3.76v-1.31s.04-.08,.08-.08,.08,.04,.08,.08v1.35s0,.04-.02,.06l-3.8,3.8s-.04,.02-.06,.02h-7.78l-2.22,2.22v22.58l2.76,2.76s.02,.04,.02,.06v22.14s0,.04-.02,.06l-1.25,1.25s-.04,.02-.06,.02Z"/><polygon class="cls-1" points="109.73 122.53 109.73 138.54 109.55 138.72 109.51 122.75 109.73 122.53"/><path class="cls-1" d="M110.24,123.22s-.04,0-.06-.02c-.03-.03-.03-.08,0-.11l2.01-2.01s.04-.02,.06-.02h4.44s.04,0,.06,.02l.61,.61s.02,.04,.02,.06v.52s-.04,.08-.08,.08-.08-.04-.08-.08v-.48l-.56-.56h-4.38l-1.99,1.99s-.04,.02-.06,.02Z"/><path class="cls-1" d="M109.9,173.02c-.08,0-.16-.03-.23-.09-.12-.12-.12-.33,0-.45l.58-.58c.12-.12,.33-.12,.45,0s.12,.33,0,.45l-.58,.58c-.06,.06-.14,.09-.23,.09Z"/><path class="cls-1" d="M112.29,168.15h-.24s-.04,0-.06-.02l-.27-.27s-.02-.04-.02-.06v-20.13s.04-.08,.08-.08,.08,.04,.08,.08v20.1l.22,.22h.21s.08,.04,.08,.08-.04,.08-.08,.08Z"/><path class="cls-1" d="M112.29,146.75h-.53s-.04,0-.06-.02l-1.71-1.71s-.02-.03-.02-.06v-2.51s.04-.08,.08-.08,.08,.04,.08,.08v2.48l1.67,1.67h.41v-14.08s.04-.08,.08-.08,.08,.04,.08,.08v14.16s-.04,.08-.08,.08Z"/><path class="cls-1" d="M107.62,202.18s-.04,0-.06-.02c-.03-.03-.03-.08,0-.11l2.73-2.73v-16.54s0-.04,.02-.06l2.06-2.06s.04-.02,.06-.02h0s.04,0,.06,.02l.3,.3s.03,.08,0,.11c-.03,.03-.08,.03-.11,0l-.24-.24-1.98,1.98v16.54s0,.04-.02,.06l-2.76,2.76s-.04,.02-.06,.02Z"/><path class="cls-1" d="M112.44,180.8s-.08-.04-.08-.08v-1.71s.04-.08,.08-.08,.08,.04,.08,.08v1.71s-.04,.08-.08,.08Z"/><path class="cls-1" d="M120.81,182.71s-.08-.04-.08-.08v-1.17s.04-.08,.08-.08,.08,.04,.08,.08v1.17s-.04,.08-.08,.08Z"/><path class="cls-1" d="M120.19,162.79s-.08-.04-.08-.08v-1.15s.04-.08,.08-.08,.08,.04,.08,.08v1.15s-.04,.08-.08,.08Z"/><path class="cls-1" d="M126.3,159.97h-1.01s-.08-.04-.08-.08v-1.01s.04-.08,.08-.08h1.01s.08,.04,.08,.08v1.01s-.04,.08-.08,.08Zm-.93-.16h.85v-.85h-.85v.85Z"/><path class="cls-1" d="M130.73,159.97h-1.01s-.08-.04-.08-.08v-1.01s.04-.08,.08-.08h1.01s.08,.04,.08,.08v1.01s-.04,.08-.08,.08Zm-.93-.16h.85v-.85h-.85v.85Z"/><path class="cls-1" d="M135.17,159.97h-1.01s-.08-.04-.08-.08v-1.01s.04-.08,.08-.08h1.01s.08,.04,.08,.08v1.01s-.04,.08-.08,.08Zm-.93-.16h.85v-.85h-.85v.85Z"/><path class="cls-1" d="M139.6,159.97h-1.01s-.08-.04-.08-.08v-1.01s.04-.08,.08-.08h1.01s.08,.04,.08,.08v1.01s-.04,.08-.08,.08Zm-.93-.16h.85v-.85h-.85v.85Z"/><path class="cls-1" d="M144.04,159.97h-1.01s-.08-.04-.08-.08v-1.01s.04-.08,.08-.08h1.01s.08,.04,.08,.08v1.01s-.04,.08-.08,.08Zm-.93-.16h.85v-.85h-.85v.85Z"/><rect class="cls-1" x="150.03" y="156.3" width="2.82" height=".33" transform="translate(-5.03 307.9) rotate(-90)"/><rect class="cls-1" x="150.03" y="148.96" width="2.82" height=".33" transform="translate(2.32 300.56) rotate(-90)"/><rect class="cls-1" x="150.03" y="141.61" width="2.82" height=".33" transform="translate(9.66 293.21) rotate(-90)"/><rect class="cls-1" x="150.03" y="134.27" width="2.82" height=".33" transform="translate(17 285.87) rotate(-90)"/><rect class="cls-1" x="172.46" y="122.07" width="1.88" height=".45" transform="translate(51.11 295.7) rotate(-90)"/><rect class="cls-1" x="175.62" y="122.07" width="1.88" height=".45" transform="translate(54.26 298.86) rotate(-90)"/><rect class="cls-1" x="178.77" y="122.07" width="1.88" height=".45" transform="translate(57.41 302.01) rotate(-90)"/><rect class="cls-1" x="181.92" y="122.07" width="1.88" height=".45" transform="translate(60.56 305.16) rotate(-90)"/><rect class="cls-1" x="185.07" y="122.07" width="1.88" height=".45" transform="translate(63.72 308.31) rotate(-90)"/><rect class="cls-1" x="188.23" y="122.07" width="1.88" height=".45" transform="translate(66.87 311.47) rotate(-90)"/><rect class="cls-1" x="191.38" y="122.07" width="1.88" height=".45" transform="translate(70.02 314.62) rotate(-90)"/></g><g><polygon class="cls-1" points="191 16.16 142.69 16.16 140.8 14.28 120.25 14.28 117.92 16.62 117.92 18.62 127.35 28.06 131.55 28.06 138.76 20.85 149.08 20.85 151.66 18.26 189.37 18.26 190.56 19.45 197.66 19.45 199.47 17.64 199.47 16.16 191 16.16"/><path class="cls-1" d="M115.27,16.34h-1.21c-.18,0-.32-.14-.32-.32s.14-.32,.32-.32h1.08l3.93-3.93V6.42c0-.18,.14-.32,.32-.32s.32,.14,.32,.32v5.49c0,.08-.03,.17-.09,.23l-4.12,4.12c-.06,.06-.14,.09-.23,.09Z"/><path class="cls-1" d="M115.83,13.8h-1.32s-.08-.02-.11-.05l-10.03-10.03c-.06-.06-.06-.16,0-.23s.16-.06,.23,0l9.99,9.99h1.19l1.8-1.8c.06-.06,.16-.06,.23,0s.06,.16,0,.23l-1.85,1.85s-.07,.05-.11,.05Z"/><path class="cls-1" d="M103.22,2.52c-.08,0-.16-.03-.23-.09l-1.88-1.88c-.12-.12-.12-.33,0-.45s.33-.12,.45,0l1.88,1.88c.12,.12,.12,.33,0,.45-.06,.06-.14,.09-.23,.09Z"/><path class="cls-1" d="M171.92,67.91h-4.09c-.08,0-.17-.03-.23-.09l-35.13-35.13c-.06-.06-.09-.14-.09-.23v-3.03c0-.08,.03-.17,.09-.23l5.98-5.98c.06-.06,.14-.09,.23-.09h1.64c.18,0,.32,.14,.32,.32s-.14,.32-.32,.32h-1.51l-5.79,5.79v2.77l34.95,34.95h3.83l3.22-3.22c.06-.06,.14-.09,.23-.09h2.25c.18,0,.32,.14,.32,.32s-.14,.32-.32,.32h-2.12l-3.22,3.22c-.06,.06-.14,.09-.23,.09Z"/><path class="cls-1" d="M202.36,99.58s-.08-.02-.11-.05c-.06-.06-.06-.16,0-.23l2.08-2.08v-22.03l-10.61-10.61h-11.84c-.09,0-.16-.07-.16-.16s.07-.16,.16-.16h11.9s.08,.02,.11,.05l10.7,10.7s.05,.07,.05,.11v22.17s-.02,.08-.05,.11l-2.13,2.13s-.07,.05-.11,.05Z"/><path class="cls-1" d="M203.7,36.43s-.08-.02-.11-.05c-.06-.06-.06-.16,0-.23l.94-.94v-7.77l-6.34-6.34h-7.14c-.09,0-.16-.07-.16-.16s.07-.16,.16-.16h7.21s.08,.02,.11,.05l6.43,6.43s.05,.07,.05,.11v7.9s-.02,.08-.05,.11l-.98,.98s-.07,.05-.11,.05Z"/><path class="cls-1" d="M189.57,21.27h-2.09c-.18,0-.32-.14-.32-.32s.14-.32,.32-.32h2.09c.18,0,.32,.14,.32,.32s-.14,.32-.32,.32Z"/><path class="cls-1" d="M201.69,28.69h-2.22s-.08-.04-.08-.08,.04-.08,.08-.08h2.14v-1.07l-1.22-1.22h-27.56s-.08-.04-.08-.08,.04-.08,.08-.08h27.6s.04,0,.06,.02l1.27,1.27s.02,.03,.02,.06v1.19s-.04,.08-.08,.08Z"/><path class="cls-1" d="M197.86,28.77h-1.7c-.09,0-.16-.07-.16-.16s.07-.16,.16-.16h1.7c.09,0,.16,.07,.16,.16s-.07,.16-.16,.16Z"/><path class="cls-1" d="M201.69,33.77h-2.22s-.08-.04-.08-.08,.04-.08,.08-.08h2.14v-1.07l-1.22-1.22h-27.56s-.08-.04-.08-.08,.04-.08,.08-.08h27.6s.04,0,.06,.02l1.27,1.27s.02,.03,.02,.06v1.19s-.04,.08-.08,.08Z"/><path class="cls-1" d="M197.86,33.85h-1.7c-.09,0-.16-.07-.16-.16s.07-.16,.16-.16h1.7c.09,0,.16,.07,.16,.16s-.07,.16-.16,.16Z"/><path class="cls-1" d="M201.69,38.85h-2.22s-.08-.04-.08-.08,.04-.08,.08-.08h2.14v-1.07l-1.22-1.22h-27.56s-.08-.04-.08-.08,.04-.08,.08-.08h27.6s.04,0,.06,.02l1.27,1.27s.02,.04,.02,.06v1.19s-.04,.08-.08,.08Z"/><path class="cls-1" d="M197.86,38.93h-1.7c-.09,0-.16-.07-.16-.16s.07-.16,.16-.16h1.7c.09,0,.16,.07,.16,.16s-.07,.16-.16,.16Z"/><path class="cls-1" d="M201.69,43.92h-2.22s-.08-.04-.08-.08,.04-.08,.08-.08h2.14v-1.07l-1.22-1.22h-27.56s-.08-.04-.08-.08,.04-.08,.08-.08h27.6s.04,0,.06,.02l1.27,1.27s.02,.03,.02,.06v1.19s-.04,.08-.08,.08Z"/><path class="cls-1" d="M197.86,44h-1.7c-.09,0-.16-.07-.16-.16s.07-.16,.16-.16h1.7c.09,0,.16,.07,.16,.16s-.07,.16-.16,.16Z"/><path class="cls-1" d="M201.69,49h-2.22s-.08-.04-.08-.08,.04-.08,.08-.08h2.14v-1.07l-1.22-1.22h-27.56s-.08-.04-.08-.08,.04-.08,.08-.08h27.6s.04,0,.06,.02l1.27,1.27s.02,.03,.02,.06v1.19s-.04,.08-.08,.08Z"/><path class="cls-1" d="M197.86,49.08h-1.7c-.09,0-.16-.07-.16-.16s.07-.16,.16-.16h1.7c.09,0,.16,.07,.16,.16s-.07,.16-.16,.16Z"/><rect class="cls-1" x="170.67" y="25.89" width=".53" height=".53"/><rect class="cls-1" x="170.67" y="30.97" width=".53" height=".53"/><rect class="cls-1" x="170.67" y="36.04" width=".53" height=".53"/><rect class="cls-1" x="170.67" y="41.12" width=".53" height=".53"/><rect class="cls-1" x="170.67" y="46.2" width=".53" height=".53"/><path class="cls-1" d="M168.98,63.25h-2.05s-.08-.02-.11-.05l-28.25-28.25c-.06-.06-.06-.16,0-.23s.16-.06,.23,0l28.21,28.21h1.92l1.72-1.72v-1.81c0-.09,.07-.16,.16-.16s.16,.07,.16,.16v1.87s-.02,.08-.05,.11l-1.81,1.81s-.07,.05-.11,.05Z"/><path class="cls-1" d="M184.4,80.12h-5.35s-.04,0-.06-.02l-3.93-3.93s-.03-.08,0-.11,.08-.03,.11,0l3.91,3.91h5.28l21.25-21.25v-11.99s.04-.08,.08-.08,.08,.04,.08,.08v12.02s0,.04-.02,.06l-21.29,21.29s-.04,.02-.06,.02Z"/><polygon class="cls-1" points="205.69 57.71 197.42 65.98 197.42 66.86 205.69 58.75 205.69 57.71"/><polygon class="cls-1" points="148.8 24.79 157.65 33.64 159.45 33.64 158.47 34.61 156.61 34.61 148.85 26.85 148.8 24.79"/><polygon class="cls-1" points="148.8 28.28 157.65 37.13 159.45 37.13 158.47 38.11 156.61 38.11 148.85 30.34 148.8 28.28"/><polygon class="cls-1" points="148.8 31.78 157.65 40.62 159.45 40.62 158.47 41.6 156.61 41.6 148.85 33.84 148.8 31.78"/><polygon class="cls-1" points="148.8 35.27 157.65 44.12 159.45 44.12 158.47 45.1 156.61 45.1 148.85 37.33 148.8 35.27"/><polygon class="cls-1" points="193.04 61.2 197 57.25 197 56.44 197.43 56.88 197.43 57.71 193.96 61.18 193.04 61.2"/><polygon class="cls-1" points="194.6 61.2 198.56 57.25 198.56 56.44 199 56.88 199 57.71 195.52 61.18 194.6 61.2"/><polygon class="cls-1" points="196.17 61.2 200.12 57.25 200.12 56.44 200.56 56.88 200.56 57.71 197.09 61.18 196.17 61.2"/><polygon class="cls-1" points="197.73 61.2 201.69 57.25 201.69 56.44 202.12 56.88 202.12 57.71 198.65 61.18 197.73 61.2"/><rect class="cls-1" x="146" y="25.6" width="1.23" height=".29"/><rect class="cls-1" x="146" y="29.17" width="1.23" height=".29"/><rect class="cls-1" x="146" y="32.73" width="1.23" height=".29"/><rect class="cls-1" x="146" y="36.29" width="1.23" height=".29"/><path class="cls-1" d="M209.1,26.11h-1.35s-.04,0-.06-.02l-3.8-3.8s-.02-.04-.02-.06v-7.78l-2.22-2.22h-22.58l-2.76,2.76s-.04,.02-.06,.02h-22.14s-.04,0-.06-.02l-1.25-1.25s-.03-.08,0-.11,.08-.03,.11,0l1.23,1.23h22.07l2.76-2.76s.04-.02,.06-.02h22.64s.04,0,.06,.02l2.26,2.26s.02,.04,.02,.06v7.78l3.76,3.76h1.31s.08,.04,.08,.08-.04,.08-.08,.08Z"/><polygon class="cls-1" points="201.91 12.37 185.9 12.37 185.72 12.19 201.69 12.15 201.91 12.37"/><path class="cls-1" d="M202.7,20.04h-.52s-.08-.04-.08-.08,.04-.08,.08-.08h.48l.56-.56v-4.38l-1.99-1.99s-.03-.08,0-.11,.08-.03,.11,0l2.01,2.01s.02,.04,.02,.06v4.44s0,.04-.02,.06l-.61,.61s-.04,.02-.06,.02Z"/><path class="cls-1" d="M152.32,13.44c-.08,0-.16-.03-.23-.09l-.58-.58c-.12-.12-.12-.33,0-.45s.33-.12,.45,0l.58,.58c.12,.12,.12,.33,0,.45-.06,.06-.14,.09-.23,.09Z"/><path class="cls-1" d="M156.37,15.02s-.08-.04-.08-.08v-.24s0-.04,.02-.06l.27-.27s.04-.02,.06-.02h20.13s.08,.04,.08,.08-.04,.08-.08,.08h-20.1l-.22,.22v.21s-.04,.08-.08,.08Z"/><path class="cls-1" d="M191.93,15.02h-14.16s-.08-.04-.08-.08v-.53s0-.04,.02-.06l1.71-1.71s.04-.02,.06-.02h2.51s.08,.04,.08,.08-.04,.08-.08,.08h-2.48l-1.67,1.67v.41h14.08s.08,.04,.08,.08-.04,.08-.08,.08Z"/><path class="cls-1" d="M143.42,15.47s-.04,0-.06-.02c-.03-.03-.03-.08,0-.11l.24-.24-1.98-1.98h-16.54s-.04,0-.06-.02l-2.76-2.76s-.03-.08,0-.11c.03-.03,.08-.03,.11,0l2.73,2.73h16.54s.04,0,.06,.02l2.06,2.06s.03,.08,0,.11l-.3,.3s-.04,.02-.06,.02Z"/><path class="cls-1" d="M145.43,15.17h-1.71s-.08-.04-.08-.08,.04-.08,.08-.08h1.71s.08,.04,.08,.08-.04,.08-.08,.08Z"/><path class="cls-1" d="M142.99,23.53h-1.17s-.08-.04-.08-.08,.04-.08,.08-.08h1.17s.08,.04,.08,.08-.04,.08-.08,.08Z"/><path class="cls-1" d="M162.87,22.92h-1.15s-.08-.04-.08-.08,.04-.08,.08-.08h1.15s.08,.04,.08,.08-.04,.08-.08,.08Z"/><path class="cls-1" d="M165.56,29.02h-1.01s-.08-.04-.08-.08v-1.01s.04-.08,.08-.08h1.01s.08,.04,.08,.08v1.01s-.04,.08-.08,.08Zm-.93-.16h.85v-.85h-.85v.85Z"/><path class="cls-1" d="M165.56,33.46h-1.01s-.08-.04-.08-.08v-1.01s.04-.08,.08-.08h1.01s.08,.04,.08,.08v1.01s-.04,.08-.08,.08Zm-.93-.16h.85v-.85h-.85v.85Z"/><path class="cls-1" d="M165.56,37.89h-1.01s-.08-.04-.08-.08v-1.01s.04-.08,.08-.08h1.01s.08,.04,.08,.08v1.01s-.04,.08-.08,.08Zm-.93-.16h.85v-.85h-.85v.85Z"/><path class="cls-1" d="M165.56,42.33h-1.01s-.08-.04-.08-.08v-1.01s.04-.08,.08-.08h1.01s.08,.04,.08,.08v1.01s-.04,.08-.08,.08Zm-.93-.16h.85v-.85h-.85v.85Z"/><path class="cls-1" d="M165.56,46.76h-1.01s-.08-.04-.08-.08v-1.01s.04-.08,.08-.08h1.01s.08,.04,.08,.08v1.01s-.04,.08-.08,.08Zm-.93-.16h.85v-.85h-.85v.85Z"/><rect class="cls-1" x="166.57" y="53.92" width="2.82" height=".33"/><rect class="cls-1" x="173.91" y="53.92" width="2.81" height=".33"/><rect class="cls-1" x="181.26" y="53.92" width="2.82" height=".33"/><rect class="cls-1" x="188.6" y="53.92" width="2.82" height=".33"/><rect class="cls-1" x="201.2" y="75.82" width="1.88" height=".45"/><rect class="cls-1" x="201.2" y="78.98" width="1.88" height=".45"/><rect class="cls-1" x="201.2" y="82.13" width="1.88" height=".45"/><rect class="cls-1" x="201.2" y="85.28" width="1.88" height=".45"/><rect class="cls-1" x="201.2" y="88.44" width="1.88" height=".45"/><rect class="cls-1" x="201.2" y="91.59" width="1.88" height=".45"/><rect class="cls-1" x="201.2" y="94.74" width="1.88" height=".45"/><polygon class="cls-1" points="113.53 94.24 113.53 45.93 111.64 44.04 111.64 23.49 113.98 21.15 115.98 21.15 125.42 30.59 125.42 34.79 118.21 42 118.21 52.31 115.62 54.9 115.62 92.6 116.81 93.8 116.81 100.9 115.01 102.71 113.53 102.71 113.53 94.24"/><path class="cls-1" d="M109.27,22.95h-5.49c-.18,0-.32-.14-.32-.32s.14-.32,.32-.32h5.35l3.93-3.93v-1.08c0-.18,.14-.32,.32-.32s.32,.14,.32,.32v1.21c0,.08-.03,.17-.09,.23l-4.11,4.12c-.06,.06-.14,.09-.23,.09Z"/><path class="cls-1" d="M109.15,21.07s-.08-.02-.11-.05c-.06-.06-.06-.16,0-.23l1.8-1.8v-1.19l-9.99-9.99c-.06-.06-.06-.16,0-.23s.16-.06,.23,0l10.03,10.03s.05,.07,.05,.11v1.32s-.02,.08-.05,.11l-1.85,1.85s-.07,.05-.11,.05Z"/><path class="cls-1" d="M99.56,6.77c-.08,0-.16-.03-.23-.09l-1.88-1.88c-.12-.12-.12-.33,0-.45s.33-.12,.45,0l1.88,1.88c.12,.12,.12,.33,0,.45-.06,.06-.14,.09-.23,.09Z"/><path class="cls-1" d="M161.64,81.05c-.18,0-.32-.14-.32-.32v-2.25c0-.08,.03-.17,.09-.23l3.22-3.22v-3.83l-34.95-34.95h-2.77l-5.79,5.79v1.51c0,.18-.14,.32-.32,.32s-.32-.14-.32-.32v-1.64c0-.08,.03-.17,.09-.23l5.98-5.98c.06-.06,.14-.09,.23-.09h3.03c.08,0,.17,.03,.23,.09l35.13,35.13c.06,.06,.09,.14,.09,.23v4.09c0,.08-.03,.17-.09,.23l-3.22,3.22v2.12c0,.18-.14,.32-.32,.32Z"/><path class="cls-1" d="M194.66,107.89h-22.17s-.08-.02-.11-.05l-10.7-10.7s-.05-.07-.05-.11v-11.9c0-.09,.07-.16,.16-.16s.16,.07,.16,.16v11.84l10.61,10.61h22.03l2.08-2.08c.06-.06,.16-.06,.23,0s.06,.16,0,.23l-2.13,2.13s-.07,.05-.11,.05Z"/><path class="cls-1" d="M132.65,108.08h-7.9s-.08-.02-.11-.05l-6.43-6.43s-.05-.07-.05-.11v-7.21c0-.09,.07-.16,.16-.16s.16,.07,.16,.16v7.14l6.34,6.34h7.77l.94-.94c.06-.06,.16-.06,.23,0s.06,.16,0,.23l-.98,.98s-.07,.05-.11,.05Z"/><path class="cls-1" d="M118.32,93.13c-.18,0-.32-.14-.32-.32v-2.09c0-.18,.14-.32,.32-.32s.32,.14,.32,.32v2.09c0,.18-.14,.32-.32,.32Z"/><path class="cls-1" d="M125.97,105.01h-1.19s-.04,0-.06-.02l-1.27-1.27s-.02-.04-.02-.06v-27.6s.04-.08,.08-.08,.08,.04,.08,.08v27.57l1.22,1.22h1.07v-2.14s.04-.08,.08-.08,.08,.04,.08,.08v2.22s-.04,.08-.08,.08Z"/><path class="cls-1" d="M125.97,101.26c-.09,0-.16-.07-.16-.16v-1.7c0-.09,.07-.16,.16-.16s.16,.07,.16,.16v1.7c0,.09-.07,.16-.16,.16Z"/><path class="cls-1" d="M131.05,105.01h-1.19s-.04,0-.06-.02l-1.27-1.27s-.02-.04-.02-.06v-27.6s.04-.08,.08-.08,.08,.04,.08,.08v27.57l1.22,1.22h1.07v-2.14s.04-.08,.08-.08,.08,.04,.08,.08v2.22s-.04,.08-.08,.08Z"/><path class="cls-1" d="M131.05,101.26c-.09,0-.16-.07-.16-.16v-1.7c0-.09,.07-.16,.16-.16s.16,.07,.16,.16v1.7c0,.09-.07,.16-.16,.16Z"/><path class="cls-1" d="M136.13,105.01h-1.19s-.04,0-.06-.02l-1.27-1.27s-.02-.04-.02-.06v-27.6s.04-.08,.08-.08,.08,.04,.08,.08v27.57l1.22,1.22h1.07v-2.14s.04-.08,.08-.08,.08,.04,.08,.08v2.22s-.04,.08-.08,.08Z"/><path class="cls-1" d="M136.13,101.26c-.09,0-.16-.07-.16-.16v-1.7c0-.09,.07-.16,.16-.16s.16,.07,.16,.16v1.7c0,.09-.07,.16-.16,.16Z"/><path class="cls-1" d="M141.21,105.01h-1.19s-.04,0-.06-.02l-1.27-1.27s-.02-.04-.02-.06v-27.6s.04-.08,.08-.08,.08,.04,.08,.08v27.57l1.22,1.22h1.07v-2.14s.04-.08,.08-.08,.08,.04,.08,.08v2.22s-.04,.08-.08,.08Z"/><path class="cls-1" d="M141.21,101.26c-.09,0-.16-.07-.16-.16v-1.7c0-.09,.07-.16,.16-.16s.16,.07,.16,.16v1.7c0,.09-.07,.16-.16,.16Z"/><path class="cls-1" d="M146.28,105.01h-1.19s-.04,0-.06-.02l-1.27-1.27s-.02-.04-.02-.06v-27.6s.04-.08,.08-.08,.08,.04,.08,.08v27.57l1.22,1.22h1.07v-2.14s.04-.08,.08-.08,.08,.04,.08,.08v2.22s-.04,.08-.08,.08Z"/><path class="cls-1" d="M146.28,101.26c-.09,0-.16-.07-.16-.16v-1.7c0-.09,.07-.16,.16-.16s.16,.07,.16,.16v1.7c0,.09-.07,.16-.16,.16Z"/><rect class="cls-1" x="123.25" y="73.91" width=".53" height=".53" transform="translate(197.7 -49.34) rotate(90)"/><rect class="cls-1" x="128.33" y="73.91" width=".53" height=".53" transform="translate(202.77 -54.42) rotate(90)"/><rect class="cls-1" x="133.41" y="73.91" width=".53" height=".53" transform="translate(207.85 -59.49) rotate(90)"/><rect class="cls-1" x="138.48" y="73.91" width=".53" height=".53" transform="translate(212.93 -64.57) rotate(90)"/><rect class="cls-1" x="143.56" y="73.91" width=".53" height=".53" transform="translate(218.01 -69.65) rotate(90)"/><path class="cls-1" d="M158.64,74.18h-1.87c-.09,0-.16-.07-.16-.16s.07-.16,.16-.16h1.81l1.72-1.72v-1.92l-28.21-28.21c-.06-.06-.06-.16,0-.23s.16-.06,.23,0l28.25,28.25s.05,.07,.05,.11v2.05s-.02,.08-.05,.11l-1.81,1.81s-.07,.05-.11,.05Z"/><path class="cls-1" d="M156.11,109.01h-12.02s-.08-.04-.08-.08,.04-.08,.08-.08h11.98l21.25-21.25v-5.28l-3.91-3.91s-.03-.08,0-.11c.03-.03,.08-.03,.11,0l3.93,3.93s.02,.04,.02,.06v5.35s0,.04-.02,.06l-21.29,21.29s-.04,.02-.06,.02Z"/><polygon class="cls-1" points="155.07 108.93 163.34 100.66 164.22 100.66 156.11 108.93 155.07 108.93"/><polygon class="cls-1" points="122.15 52.04 131 60.89 131 62.69 131.98 61.71 131.98 59.85 124.21 52.08 122.15 52.04"/><polygon class="cls-1" points="125.65 52.04 134.49 60.89 134.49 62.69 135.47 61.71 135.47 59.85 127.71 52.08 125.65 52.04"/><polygon class="cls-1" points="129.14 52.04 137.99 60.89 137.99 62.69 138.96 61.71 138.96 59.85 131.2 52.08 129.14 52.04"/><polygon class="cls-1" points="132.64 52.04 141.48 60.89 141.48 62.69 142.46 61.71 142.46 59.85 134.69 52.08 132.64 52.04"/><polygon class="cls-1" points="158.57 96.28 154.61 100.24 153.8 100.24 154.24 100.67 155.07 100.67 158.55 97.2 158.57 96.28"/><polygon class="cls-1" points="158.57 97.84 154.61 101.8 153.8 101.8 154.24 102.24 155.07 102.24 158.55 98.76 158.57 97.84"/><polygon class="cls-1" points="158.57 99.4 154.61 103.36 153.8 103.36 154.24 103.8 155.07 103.8 158.55 100.33 158.57 99.4"/><polygon class="cls-1" points="158.57 100.97 154.61 104.92 153.8 104.92 154.24 105.36 155.07 105.36 158.55 101.89 158.57 100.97"/><rect class="cls-1" x="122.49" y="49.71" width="1.23" height=".29" transform="translate(172.97 -73.25) rotate(90)"/><rect class="cls-1" x="126.06" y="49.71" width="1.23" height=".29" transform="translate(176.53 -76.81) rotate(90)"/><rect class="cls-1" x="129.62" y="49.71" width="1.23" height=".29" transform="translate(180.09 -80.38) rotate(90)"/><rect class="cls-1" x="133.18" y="49.71" width="1.23" height=".29" transform="translate(183.65 -83.94) rotate(90)"/><path class="cls-1" d="M123.39,112.42s-.08-.04-.08-.08v-1.31l-3.76-3.76h-7.78s-.04,0-.06-.02l-2.26-2.26s-.02-.04-.02-.06v-22.64s0-.04,.02-.06l2.76-2.76v-22.07l-1.23-1.22s-.03-.08,0-.11c.03-.03,.08-.03,.11,0l1.25,1.25s.02,.04,.02,.06v22.14s0,.04-.02,.06l-2.76,2.76v22.58l2.22,2.22h7.78s.04,0,.06,.02l3.8,3.8s.02,.04,.02,.06v1.35s-.04,.08-.08,.08Z"/><polygon class="cls-1" points="109.73 105.15 109.73 89.14 109.56 88.96 109.51 104.93 109.73 105.15"/><path class="cls-1" d="M116.71,106.63h-4.44s-.04,0-.06-.02l-2.01-2.01s-.03-.08,0-.11,.08-.03,.11,0l1.99,1.99h4.38l.56-.56v-.48s.04-.08,.08-.08,.08,.04,.08,.08v.52s0,.04-.02,.06l-.61,.61s-.04,.02-.06,.02Z"/><path class="cls-1" d="M110.48,55.88c-.08,0-.16-.03-.23-.09l-.58-.58c-.12-.12-.12-.33,0-.45s.33-.12,.45,0l.58,.58c.12,.12,.12,.33,0,.45-.06,.06-.14,.09-.23,.09Z"/><path class="cls-1" d="M111.79,80.09s-.08-.04-.08-.08v-20.13s0-.04,.02-.06l.27-.27s.04-.02,.06-.02h.24s.08,.04,.08,.08-.04,.08-.08,.08h-.21l-.22,.22v20.1s-.04,.08-.08,.08Z"/><path class="cls-1" d="M112.3,95.25s-.08-.04-.08-.08v-14.08h-.41l-1.67,1.67v2.48s-.04,.08-.08,.08-.08-.04-.08-.08v-2.51s0-.04,.02-.06l1.71-1.71s.04-.02,.06-.02h.53s.08,.04,.08,.08v14.16s-.04,.08-.08,.08Z"/><path class="cls-1" d="M112.45,47.04s-.04,0-.06-.02l-2.06-2.06s-.02-.04-.02-.06V28.37l-2.73-2.73s-.03-.08,0-.11,.08-.03,.11,0l2.76,2.76s.02,.04,.02,.06v16.54l1.98,1.98,.24-.24s.08-.03,.11,0,.03,.08,0,.11l-.3,.3s-.04,.02-.06,.02Z"/><path class="cls-1" d="M112.45,48.75s-.08-.04-.08-.08v-1.71s.04-.08,.08-.08,.08,.04,.08,.08v1.71s-.04,.08-.08,.08Z"/><path class="cls-1" d="M120.82,46.31s-.08-.04-.08-.08v-1.17s.04-.08,.08-.08,.08,.04,.08,.08v1.17s-.04,.08-.08,.08Z"/><path class="cls-1" d="M120.2,66.19s-.08-.04-.08-.08v-1.15s.04-.08,.08-.08,.08,.04,.08,.08v1.15s-.04,.08-.08,.08Z"/><path class="cls-1" d="M126.3,68.88h-1.01s-.08-.04-.08-.08v-1.01s.04-.08,.08-.08h1.01s.08,.04,.08,.08v1.01s-.04,.08-.08,.08Zm-.93-.16h.85v-.85h-.85v.85Z"/><path class="cls-1" d="M130.74,68.88h-1.01s-.08-.04-.08-.08v-1.01s.04-.08,.08-.08h1.01s.08,.04,.08,.08v1.01s-.04,.08-.08,.08Zm-.93-.16h.85v-.85h-.85v.85Z"/><path class="cls-1" d="M135.17,68.88h-1.01s-.08-.04-.08-.08v-1.01s.04-.08,.08-.08h1.01s.08,.04,.08,.08v1.01s-.04,.08-.08,.08Zm-.93-.16h.85v-.85h-.85v.85Z"/><path class="cls-1" d="M139.61,68.88h-1.01s-.08-.04-.08-.08v-1.01s.04-.08,.08-.08h1.01s.08,.04,.08,.08v1.01s-.04,.08-.08,.08Zm-.93-.16h.85v-.85h-.85v.85Z"/><path class="cls-1" d="M144.05,68.88h-1.01s-.08-.04-.08-.08v-1.01s.04-.08,.08-.08h1.01s.08,.04,.08,.08v1.01s-.04,.08-.08,.08Zm-.93-.16h.85v-.85h-.85v.85Z"/><rect class="cls-1" x="150.04" y="71.05" width="2.82" height=".33" transform="translate(222.66 -80.23) rotate(90)"/><rect class="cls-1" x="150.04" y="78.39" width="2.82" height=".33" transform="translate(230 -72.88) rotate(90)"/><rect class="cls-1" x="150.04" y="85.74" width="2.82" height=".33" transform="translate(237.34 -65.54) rotate(90)"/><rect class="cls-1" x="150.04" y="93.08" width="2.82" height=".33" transform="translate(244.69 -58.2) rotate(90)"/><rect class="cls-1" x="172.47" y="105.15" width="1.88" height=".45" transform="translate(278.79 -68.03) rotate(90)"/><rect class="cls-1" x="175.62" y="105.15" width="1.88" height=".45" transform="translate(281.94 -71.18) rotate(90)"/><rect class="cls-1" x="178.77" y="105.15" width="1.88" height=".45" transform="translate(285.1 -74.34) rotate(90)"/><rect class="cls-1" x="181.93" y="105.15" width="1.88" height=".45" transform="translate(288.25 -77.49) rotate(90)"/><rect class="cls-1" x="185.08" y="105.15" width="1.88" height=".45" transform="translate(291.4 -80.64) rotate(90)"/><rect class="cls-1" x="188.23" y="105.15" width="1.88" height=".45" transform="translate(294.56 -83.8) rotate(90)"/><rect class="cls-1" x="191.39" y="105.15" width="1.88" height=".45" transform="translate(297.71 -86.95) rotate(90)"/></g><g><polygon class="cls-1" points="18.18 16.16 66.5 16.16 68.38 14.28 88.94 14.28 91.27 16.62 91.27 18.62 81.84 28.06 77.64 28.06 70.43 20.85 60.11 20.85 57.53 18.26 19.82 18.26 18.63 19.45 11.52 19.45 9.72 17.64 9.72 16.16 18.18 16.16"/><path class="cls-1" d="M95.12,16.34h-1.21c-.08,0-.17-.03-.23-.09l-4.11-4.12c-.06-.06-.09-.14-.09-.23V6.42c0-.18,.14-.32,.32-.32s.32,.14,.32,.32v5.35l3.93,3.93h1.08c.18,0,.32,.14,.32,.32s-.14,.32-.32,.32Z"/><path class="cls-1" d="M94.69,13.8h-1.32s-.08-.02-.11-.05l-1.85-1.85c-.06-.06-.06-.16,0-.23s.16-.06,.23,0l1.8,1.8h1.19l9.99-9.99c.06-.06,.16-.06,.23,0s.06,.16,0,.23l-10.03,10.03s-.07,.05-.11,.05Z"/><path class="cls-1" d="M105.97,2.52c-.08,0-.16-.03-.23-.09-.12-.12-.12-.33,0-.45l1.88-1.88c.12-.12,.33-.12,.45,0s.12,.33,0,.45l-1.88,1.88c-.06,.06-.14,.09-.23,.09Z"/><path class="cls-1" d="M41.36,67.91h-4.09c-.08,0-.17-.03-.23-.09l-3.22-3.22h-2.12c-.18,0-.32-.14-.32-.32s.14-.32,.32-.32h2.25c.08,0,.17,.03,.23,.09l3.22,3.22h3.83l34.95-34.95v-2.77l-5.79-5.79h-1.51c-.18,0-.32-.14-.32-.32s.14-.32,.32-.32h1.64c.08,0,.17,.03,.23,.09l5.98,5.98c.06,.06,.09,.14,.09,.23v3.03c0,.08-.03,.17-.09,.23l-35.13,35.13c-.06,.06-.14,.09-.23,.09Z"/><path class="cls-1" d="M6.83,99.58s-.08-.02-.11-.05l-2.13-2.13s-.05-.07-.05-.11v-22.17s.02-.08,.05-.11l10.7-10.7s.07-.05,.11-.05h11.9c.09,0,.16,.07,.16,.16s-.07,.16-.16,.16H15.47l-10.61,10.61v22.03l2.08,2.08c.06,.06,.06,.16,0,.23-.03,.03-.07,.05-.11,.05Z"/><path class="cls-1" d="M5.49,36.43s-.08-.02-.11-.05l-.98-.98s-.05-.07-.05-.11v-7.9s.02-.08,.05-.11l6.43-6.43s.07-.05,.11-.05h7.21c.09,0,.16,.07,.16,.16s-.07,.16-.16,.16h-7.14l-6.34,6.34v7.77l.94,.94c.06,.06,.06,.16,0,.23-.03,.03-.07,.05-.11,.05Z"/><path class="cls-1" d="M21.71,21.27h-2.09c-.18,0-.32-.14-.32-.32s.14-.32,.32-.32h2.09c.18,0,.32,.14,.32,.32s-.14,.32-.32,.32Z"/><path class="cls-1" d="M9.72,28.69h-2.22s-.08-.04-.08-.08v-1.19s0-.04,.02-.06l1.27-1.27s.04-.02,.06-.02h27.6s.08,.04,.08,.08-.04,.08-.08,.08H8.8l-1.22,1.22v1.07h2.14s.08,.04,.08,.08-.04,.08-.08,.08Z"/><path class="cls-1" d="M13.03,28.77h-1.7c-.09,0-.16-.07-.16-.16s.07-.16,.16-.16h1.7c.09,0,.16,.07,.16,.16s-.07,.16-.16,.16Z"/><path class="cls-1" d="M9.72,33.77h-2.22s-.08-.04-.08-.08v-1.19s0-.04,.02-.06l1.27-1.27s.04-.02,.06-.02h27.6s.08,.04,.08,.08-.04,.08-.08,.08H8.8l-1.22,1.22v1.07h2.14s.08,.04,.08,.08-.04,.08-.08,.08Z"/><path class="cls-1" d="M13.03,33.85h-1.7c-.09,0-.16-.07-.16-.16s.07-.16,.16-.16h1.7c.09,0,.16,.07,.16,.16s-.07,.16-.16,.16Z"/><path class="cls-1" d="M9.72,38.85h-2.22s-.08-.04-.08-.08v-1.19s0-.04,.02-.06l1.27-1.27s.04-.02,.06-.02h27.6s.08,.04,.08,.08-.04,.08-.08,.08H8.8l-1.22,1.22v1.07h2.14s.08,.04,.08,.08-.04,.08-.08,.08Z"/><path class="cls-1" d="M13.03,38.93h-1.7c-.09,0-.16-.07-.16-.16s.07-.16,.16-.16h1.7c.09,0,.16,.07,.16,.16s-.07,.16-.16,.16Z"/><path class="cls-1" d="M9.72,43.92h-2.22s-.08-.04-.08-.08v-1.19s0-.04,.02-.06l1.27-1.27s.04-.02,.06-.02h27.6s.08,.04,.08,.08-.04,.08-.08,.08H8.8l-1.22,1.22v1.07h2.14s.08,.04,.08,.08-.04,.08-.08,.08Z"/><path class="cls-1" d="M13.03,44h-1.7c-.09,0-.16-.07-.16-.16s.07-.16,.16-.16h1.7c.09,0,.16,.07,.16,.16s-.07,.16-.16,.16Z"/><path class="cls-1" d="M9.72,49h-2.22s-.08-.04-.08-.08v-1.19s0-.04,.02-.06l1.27-1.27s.04-.02,.06-.02h27.6s.08,.04,.08,.08-.04,.08-.08,.08H8.8l-1.22,1.22v1.07h2.14s.08,.04,.08,.08-.04,.08-.08,.08Z"/><path class="cls-1" d="M13.03,49.08h-1.7c-.09,0-.16-.07-.16-.16s.07-.16,.16-.16h1.7c.09,0,.16,.07,.16,.16s-.07,.16-.16,.16Z"/><rect class="cls-1" x="37.98" y="25.89" width=".53" height=".53" transform="translate(76.5 52.31) rotate(180)"/><rect class="cls-1" x="37.98" y="30.97" width=".53" height=".53" transform="translate(76.5 62.47) rotate(180)"/><rect class="cls-1" x="37.98" y="36.04" width=".53" height=".53" transform="translate(76.5 72.62) rotate(180)"/><rect class="cls-1" x="37.98" y="41.12" width=".53" height=".53" transform="translate(76.5 82.78) rotate(180)"/><rect class="cls-1" x="37.98" y="46.2" width=".53" height=".53" transform="translate(76.5 92.93) rotate(180)"/><path class="cls-1" d="M42.26,63.25h-2.05s-.08-.02-.11-.05l-1.81-1.81s-.05-.07-.05-.11v-1.87c0-.09,.07-.16,.16-.16s.16,.07,.16,.16v1.81l1.72,1.72h1.92l28.21-28.21c.06-.06,.16-.06,.23,0,.06,.06,.06,.16,0,.23l-28.25,28.25s-.07,.05-.11,.05Z"/><path class="cls-1" d="M30.14,80.12h-5.35s-.04,0-.06-.02L3.44,58.81s-.02-.04-.02-.06v-12.02s.04-.08,.08-.08,.08,.04,.08,.08v11.99l21.25,21.25h5.28l3.91-3.91s.08-.03,.11,0,.03,.08,0,.11l-3.93,3.93s-.04,.02-.06,.02Z"/><polygon class="cls-1" points="3.5 57.71 11.77 65.98 11.77 66.86 3.5 58.75 3.5 57.71"/><polygon class="cls-1" points="60.39 24.79 51.54 33.64 49.74 33.64 50.72 34.61 52.58 34.61 60.34 26.85 60.39 24.79"/><polygon class="cls-1" points="60.39 28.28 51.54 37.13 49.74 37.13 50.72 38.11 52.58 38.11 60.34 30.34 60.39 28.28"/><polygon class="cls-1" points="60.39 31.78 51.54 40.62 49.74 40.62 50.72 41.6 52.58 41.6 60.34 33.84 60.39 31.78"/><polygon class="cls-1" points="60.39 35.27 51.54 44.12 49.74 44.12 50.72 45.1 52.58 45.1 60.34 37.33 60.39 35.27"/><polygon class="cls-1" points="16.15 61.2 12.19 57.25 12.19 56.44 11.75 56.88 11.75 57.71 15.23 61.18 16.15 61.2"/><polygon class="cls-1" points="14.59 61.2 10.63 57.25 10.63 56.44 10.19 56.88 10.19 57.71 13.66 61.18 14.59 61.2"/><polygon class="cls-1" points="13.02 61.2 9.07 57.25 9.07 56.44 8.63 56.88 8.63 57.71 12.1 61.18 13.02 61.2"/><polygon class="cls-1" points="11.46 61.2 7.5 57.25 7.5 56.44 7.07 56.88 7.07 57.71 10.54 61.18 11.46 61.2"/><rect class="cls-1" x="61.96" y="25.6" width="1.23" height=".29" transform="translate(125.14 51.49) rotate(180)"/><rect class="cls-1" x="61.96" y="29.17" width="1.23" height=".29" transform="translate(125.14 58.62) rotate(180)"/><rect class="cls-1" x="61.96" y="32.73" width="1.23" height=".29" transform="translate(125.14 65.74) rotate(180)"/><rect class="cls-1" x="61.96" y="36.29" width="1.23" height=".29" transform="translate(125.14 72.87) rotate(180)"/><path class="cls-1" d="M1.43,26.11H.09s-.08-.04-.08-.08,.04-.08,.08-.08H1.4l3.76-3.76v-7.78s0-.04,.02-.06l2.26-2.26s.04-.02,.06-.02H30.14s.04,0,.06,.02l2.76,2.76h22.07l1.23-1.23s.08-.03,.11,0,.03,.08,0,.11l-1.25,1.25s-.04,.02-.06,.02h-22.14s-.04,0-.06-.02l-2.76-2.76H7.53l-2.22,2.22v7.78s0,.04-.02,.06l-3.8,3.8s-.04,.02-.06,.02Z"/><polygon class="cls-1" points="7.28 12.37 23.29 12.37 23.47 12.19 7.5 12.15 7.28 12.37"/><path class="cls-1" d="M7.01,20.04h-.52s-.04,0-.06-.02l-.61-.61s-.02-.04-.02-.06v-4.44s0-.04,.02-.06l2.01-2.01s.08-.03,.11,0c.03,.03,.03,.08,0,.11l-1.99,1.99v4.38l.56,.56h.48s.08,.04,.08,.08-.04,.08-.08,.08Z"/><path class="cls-1" d="M56.87,13.44c-.08,0-.16-.03-.23-.09-.12-.12-.12-.33,0-.45l.58-.58c.12-.12,.33-.12,.45,0s.12,.33,0,.45l-.58,.58c-.06,.06-.14,.09-.23,.09Z"/><path class="cls-1" d="M52.82,15.02s-.08-.04-.08-.08v-.21l-.22-.22h-20.1s-.08-.04-.08-.08,.04-.08,.08-.08h20.13s.04,0,.06,.02l.27,.27s.02,.03,.02,.06v.24s-.04,.08-.08,.08Z"/><path class="cls-1" d="M31.42,15.02h-14.16s-.08-.04-.08-.08,.04-.08,.08-.08h14.08v-.41l-1.67-1.67h-2.48s-.08-.04-.08-.08,.04-.08,.08-.08h2.51s.04,0,.06,.02l1.71,1.71s.02,.04,.02,.06v.53s-.04,.08-.08,.08Z"/><path class="cls-1" d="M65.76,15.47s-.04,0-.06-.02l-.3-.3s-.03-.08,0-.11l2.06-2.06s.04-.02,.06-.02h16.54l2.73-2.73s.08-.03,.11,0,.03,.08,0,.11l-2.76,2.76s-.04,.02-.06,.02h-16.54l-1.98,1.98,.24,.24s.03,.08,0,.11c-.02,.02-.04,.02-.06,.02Z"/><path class="cls-1" d="M65.46,15.17h-1.71s-.08-.04-.08-.08,.04-.08,.08-.08h1.71s.08,.04,.08,.08-.04,.08-.08,.08Z"/><path class="cls-1" d="M67.37,23.53h-1.17s-.08-.04-.08-.08,.04-.08,.08-.08h1.17s.08,.04,.08,.08-.04,.08-.08,.08Z"/><path class="cls-1" d="M47.46,22.92h-1.15s-.08-.04-.08-.08,.04-.08,.08-.08h1.15s.08,.04,.08,.08-.04,.08-.08,.08Z"/><path class="cls-1" d="M44.64,29.02h-1.01s-.08-.04-.08-.08v-1.01s.04-.08,.08-.08h1.01s.08,.04,.08,.08v1.01s-.04,.08-.08,.08Zm-.93-.16h.85v-.85h-.85v.85Z"/><path class="cls-1" d="M44.64,33.46h-1.01s-.08-.04-.08-.08v-1.01s.04-.08,.08-.08h1.01s.08,.04,.08,.08v1.01s-.04,.08-.08,.08Zm-.93-.16h.85v-.85h-.85v.85Z"/><path class="cls-1" d="M44.64,37.89h-1.01s-.08-.04-.08-.08v-1.01s.04-.08,.08-.08h1.01s.08,.04,.08,.08v1.01s-.04,.08-.08,.08Zm-.93-.16h.85v-.85h-.85v.85Z"/><path class="cls-1" d="M44.64,42.33h-1.01s-.08-.04-.08-.08v-1.01s.04-.08,.08-.08h1.01s.08,.04,.08,.08v1.01s-.04,.08-.08,.08Zm-.93-.16h.85v-.85h-.85v.85Z"/><path class="cls-1" d="M44.64,46.76h-1.01s-.08-.04-.08-.08v-1.01s.04-.08,.08-.08h1.01s.08,.04,.08,.08v1.01s-.04,.08-.08,.08Zm-.93-.16h.85v-.85h-.85v.85Z"/><rect class="cls-1" x="39.8" y="53.92" width="2.82" height=".33" transform="translate(82.42 108.16) rotate(180)"/><rect class="cls-1" x="32.46" y="53.92" width="2.82" height=".33" transform="translate(67.74 108.16) rotate(180)"/><rect class="cls-1" x="25.12" y="53.92" width="2.81" height=".33" transform="translate(53.05 108.16) rotate(180)"/><rect class="cls-1" x="17.77" y="53.92" width="2.82" height=".33" transform="translate(38.37 108.16) rotate(180)"/><rect class="cls-1" x="6.11" y="75.82" width="1.88" height=".45" transform="translate(14.09 152.1) rotate(180)"/><rect class="cls-1" x="6.11" y="78.98" width="1.88" height=".45" transform="translate(14.09 158.4) rotate(180)"/><rect class="cls-1" x="6.11" y="82.13" width="1.88" height=".45" transform="translate(14.09 164.71) rotate(180)"/><rect class="cls-1" x="6.11" y="85.28" width="1.88" height=".45" transform="translate(14.09 171.02) rotate(180)"/><rect class="cls-1" x="6.11" y="88.44" width="1.88" height=".45" transform="translate(14.09 177.32) rotate(180)"/><rect class="cls-1" x="6.11" y="91.59" width="1.88" height=".45" transform="translate(14.09 183.63) rotate(180)"/><rect class="cls-1" x="6.11" y="94.74" width="1.88" height=".45" transform="translate(14.09 189.93) rotate(180)"/><polygon class="cls-1" points="95.66 94.24 95.66 45.93 97.55 44.04 97.55 23.49 95.21 21.15 93.21 21.15 83.77 30.59 83.77 34.79 90.98 42 90.98 52.31 93.57 54.9 93.57 92.6 92.38 93.8 92.38 100.9 94.18 102.71 95.66 102.71 95.66 94.24"/><path class="cls-1" d="M105.41,22.95h-5.49c-.08,0-.17-.03-.23-.09l-4.12-4.12c-.06-.06-.09-.14-.09-.23v-1.21c0-.18,.14-.32,.32-.32s.32,.14,.32,.32v1.08l3.93,3.93h5.35c.18,0,.32,.14,.32,.32s-.14,.32-.32,.32Z"/><path class="cls-1" d="M100.04,21.07s-.08-.02-.11-.05l-1.85-1.85s-.05-.07-.05-.11v-1.32s.02-.08,.05-.11l10.03-10.03c.06-.06,.16-.06,.23,0s.06,.16,0,.23l-9.99,9.99v1.19l1.8,1.8c.06,.06,.06,.16,0,.23-.03,.03-.07,.05-.11,.05Z"/><path class="cls-1" d="M109.62,6.77c-.08,0-.16-.03-.23-.09-.12-.12-.12-.33,0-.45l1.88-1.88c.12-.12,.33-.12,.45,0s.12,.33,0,.45l-1.88,1.88c-.06,.06-.14,.09-.23,.09Z"/><path class="cls-1" d="M47.55,81.05c-.18,0-.32-.14-.32-.32v-2.12l-3.22-3.22c-.06-.06-.09-.14-.09-.23v-4.09c0-.08,.03-.17,.09-.23l35.13-35.13c.06-.06,.14-.09,.23-.09h3.03c.08,0,.17,.03,.23,.09l5.98,5.98c.06,.06,.09,.14,.09,.23v1.64c0,.18-.14,.32-.32,.32s-.32-.14-.32-.32v-1.51l-5.79-5.79h-2.77l-34.95,34.95v3.83l3.22,3.22c.06,.06,.09,.14,.09,.23v2.25c0,.18-.14,.32-.32,.32Z"/><path class="cls-1" d="M36.7,107.89H14.53s-.08-.02-.11-.05l-2.13-2.13c-.06-.06-.06-.16,0-.23s.16-.06,.23,0l2.08,2.08h22.03l10.61-10.61v-11.84c0-.09,.07-.16,.16-.16s.16,.07,.16,.16v11.9s-.02,.08-.05,.11l-10.7,10.7s-.07,.05-.11,.05Z"/><path class="cls-1" d="M84.44,108.08h-7.9s-.08-.02-.11-.05l-.98-.98c-.06-.06-.06-.16,0-.23s.16-.06,.23,0l.94,.94h7.77l6.34-6.34v-7.14c0-.09,.07-.16,.16-.16s.16,.07,.16,.16v7.21s-.02,.08-.05,.11l-6.43,6.43s-.07,.05-.11,.05Z"/><path class="cls-1" d="M90.87,93.13c-.18,0-.32-.14-.32-.32v-2.09c0-.18,.14-.32,.32-.32s.32,.14,.32,.32v2.09c0,.18-.14,.32-.32,.32Z"/><path class="cls-1" d="M84.4,105.01h-1.19s-.08-.04-.08-.08v-2.22s.04-.08,.08-.08,.08,.04,.08,.08v2.14h1.07l1.22-1.22v-27.57s.04-.08,.08-.08,.08,.04,.08,.08v27.6s0,.04-.02,.06l-1.27,1.27s-.04,.02-.06,.02Z"/><path class="cls-1" d="M83.21,101.26c-.09,0-.16-.07-.16-.16v-1.7c0-.09,.07-.16,.16-.16s.16,.07,.16,.16v1.7c0,.09-.07,.16-.16,.16Z"/><path class="cls-1" d="M79.32,105.01h-1.19s-.08-.04-.08-.08v-2.22s.04-.08,.08-.08,.08,.04,.08,.08v2.14h1.07l1.22-1.22v-27.57s.04-.08,.08-.08,.08,.04,.08,.08v27.6s0,.04-.02,.06l-1.27,1.27s-.04,.02-.06,.02Z"/><path class="cls-1" d="M78.14,101.26c-.09,0-.16-.07-.16-.16v-1.7c0-.09,.07-.16,.16-.16s.16,.07,.16,.16v1.7c0,.09-.07,.16-.16,.16Z"/><path class="cls-1" d="M74.25,105.01h-1.19s-.08-.04-.08-.08v-2.22s.04-.08,.08-.08,.08,.04,.08,.08v2.14h1.07l1.22-1.22v-27.57s.04-.08,.08-.08,.08,.04,.08,.08v27.6s0,.04-.02,.06l-1.27,1.27s-.04,.02-.06,.02Z"/><path class="cls-1" d="M73.06,101.26c-.09,0-.16-.07-.16-.16v-1.7c0-.09,.07-.16,.16-.16s.16,.07,.16,.16v1.7c0,.09-.07,.16-.16,.16Z"/><path class="cls-1" d="M69.17,105.01h-1.19s-.08-.04-.08-.08v-2.22s.04-.08,.08-.08,.08,.04,.08,.08v2.14h1.07l1.22-1.22v-27.57s.04-.08,.08-.08,.08,.04,.08,.08v27.6s0,.04-.02,.06l-1.27,1.27s-.04,.02-.06,.02Z"/><path class="cls-1" d="M67.98,101.26c-.09,0-.16-.07-.16-.16v-1.7c0-.09,.07-.16,.16-.16s.16,.07,.16,.16v1.7c0,.09-.07,.16-.16,.16Z"/><path class="cls-1" d="M64.09,105.01h-1.19s-.08-.04-.08-.08v-2.22s.04-.08,.08-.08,.08,.04,.08,.08v2.14h1.07l1.22-1.22v-27.57s.04-.08,.08-.08,.08,.04,.08,.08v27.6s0,.04-.02,.06l-1.27,1.27s-.04,.02-.06,.02Z"/><path class="cls-1" d="M62.9,101.26c-.09,0-.16-.07-.16-.16v-1.7c0-.09,.07-.16,.16-.16s.16,.07,.16,.16v1.7c0,.09-.07,.16-.16,.16Z"/><rect class="cls-1" x="85.4" y="73.91" width=".53" height=".53" transform="translate(159.85 -11.49) rotate(90)"/><rect class="cls-1" x="80.33" y="73.91" width=".53" height=".53" transform="translate(154.77 -6.41) rotate(90)"/><rect class="cls-1" x="75.25" y="73.91" width=".53" height=".53" transform="translate(149.7 -1.34) rotate(90)"/><rect class="cls-1" x="70.17" y="73.91" width=".53" height=".53" transform="translate(144.62 3.74) rotate(90)"/><rect class="cls-1" x="65.1" y="73.91" width=".53" height=".53" transform="translate(139.54 8.82) rotate(90)"/><path class="cls-1" d="M52.42,74.18h-1.87s-.08-.02-.11-.05l-1.81-1.81s-.05-.07-.05-.11v-2.05s.02-.08,.05-.11l28.25-28.25c.06-.06,.16-.06,.23,0s.06,.16,0,.23l-28.21,28.21v1.92l1.72,1.72h1.81c.09,0,.16,.07,.16,.16s-.07,.16-.16,.16Z"/><path class="cls-1" d="M65.1,109.01h-12.02s-.04,0-.06-.02l-21.29-21.29s-.02-.04-.02-.06v-5.35s0-.04,.02-.06l3.93-3.93s.08-.03,.11,0,.03,.08,0,.11l-3.91,3.91v5.28l21.25,21.25h11.99s.08,.04,.08,.08-.04,.08-.08,.08Z"/><polygon class="cls-1" points="54.11 108.93 45.85 100.66 44.97 100.66 53.08 108.93 54.11 108.93"/><polygon class="cls-1" points="87.04 52.04 78.19 60.89 78.19 62.69 77.21 61.71 77.21 59.85 84.98 52.08 87.04 52.04"/><polygon class="cls-1" points="83.54 52.04 74.7 60.89 74.7 62.69 73.72 61.71 73.72 59.85 81.48 52.08 83.54 52.04"/><polygon class="cls-1" points="80.05 52.04 71.2 60.89 71.2 62.69 70.23 61.71 70.23 59.85 77.99 52.08 80.05 52.04"/><polygon class="cls-1" points="76.55 52.04 67.71 60.89 67.71 62.69 66.73 61.71 66.73 59.85 74.49 52.08 76.55 52.04"/><polygon class="cls-1" points="50.62 96.28 54.58 100.24 55.39 100.24 54.95 100.67 54.12 100.67 50.64 97.2 50.62 96.28"/><polygon class="cls-1" points="50.62 97.84 54.58 101.8 55.39 101.8 54.95 102.24 54.12 102.24 50.64 98.76 50.62 97.84"/><polygon class="cls-1" points="50.62 99.4 54.58 103.36 55.39 103.36 54.95 103.8 54.12 103.8 50.64 100.33 50.62 99.4"/><polygon class="cls-1" points="50.62 100.97 54.58 104.92 55.39 104.92 54.95 105.36 54.12 105.36 50.64 101.89 50.62 100.97"/><rect class="cls-1" x="85.47" y="49.71" width="1.23" height=".29" transform="translate(135.94 -36.22) rotate(90)"/><rect class="cls-1" x="81.9" y="49.71" width="1.23" height=".29" transform="translate(132.37 -32.66) rotate(90)"/><rect class="cls-1" x="78.34" y="49.71" width="1.23" height=".29" transform="translate(128.81 -29.1) rotate(90)"/><rect class="cls-1" x="74.78" y="49.71" width="1.23" height=".29" transform="translate(125.25 -25.54) rotate(90)"/><path class="cls-1" d="M85.8,112.42s-.08-.04-.08-.08v-1.35s0-.04,.02-.06l3.8-3.8s.04-.02,.06-.02h7.78l2.22-2.22v-22.58l-2.76-2.76s-.02-.04-.02-.06v-22.14s0-.04,.02-.06l1.25-1.25s.08-.03,.11,0c.03,.03,.03,.08,0,.11l-1.23,1.22v22.07l2.76,2.76s.02,.04,.02,.06v22.64s0,.04-.02,.06l-2.26,2.26s-.04,.02-.06,.02h-7.78l-3.76,3.76v1.31s-.04,.08-.08,.08Z"/><polygon class="cls-1" points="99.46 105.15 99.46 89.14 99.63 88.96 99.67 104.93 99.46 105.15"/><path class="cls-1" d="M96.92,106.63h-4.44s-.04,0-.06-.02l-.61-.61s-.02-.04-.02-.06v-.52s.04-.08,.08-.08,.08,.04,.08,.08v.48l.56,.56h4.38l1.99-1.99s.08-.03,.11,0,.03,.08,0,.11l-2.01,2.01s-.04,.02-.06,.02Z"/><path class="cls-1" d="M98.71,55.88c-.08,0-.16-.03-.23-.09-.12-.12-.12-.33,0-.45l.58-.58c.12-.12,.33-.12,.45,0s.12,.33,0,.45l-.58,.58c-.06,.06-.14,.09-.23,.09Z"/><path class="cls-1" d="M97.4,80.09s-.08-.04-.08-.08v-20.1l-.22-.22h-.21s-.08-.04-.08-.08,.04-.08,.08-.08h.24s.04,0,.06,.02l.27,.27s.02,.04,.02,.06v20.13s-.04,.08-.08,.08Z"/><path class="cls-1" d="M96.89,95.25s-.08-.04-.08-.08v-14.16s.04-.08,.08-.08h.53s.04,0,.06,.02l1.71,1.71s.02,.04,.02,.06v2.51s-.04,.08-.08,.08-.08-.04-.08-.08v-2.48l-1.67-1.67h-.41v14.08s-.04,.08-.08,.08Z"/><path class="cls-1" d="M96.74,47.04s-.04,0-.06-.02l-.3-.3s-.03-.08,0-.11,.08-.03,.11,0l.24,.24,1.98-1.98V28.33s0-.04,.02-.06l2.76-2.76s.08-.03,.11,0,.03,.08,0,.11l-2.73,2.73v16.54s0,.04-.02,.06l-2.06,2.06s-.04,.02-.06,.02Z"/><path class="cls-1" d="M96.74,48.75s-.08-.04-.08-.08v-1.71s.04-.08,.08-.08,.08,.04,.08,.08v1.71s-.04,.08-.08,.08Z"/><path class="cls-1" d="M88.37,46.31s-.08-.04-.08-.08v-1.17s.04-.08,.08-.08,.08,.04,.08,.08v1.17s-.04,.08-.08,.08Z"/><path class="cls-1" d="M88.99,66.19s-.08-.04-.08-.08v-1.15s.04-.08,.08-.08,.08,.04,.08,.08v1.15s-.04,.08-.08,.08Z"/><path class="cls-1" d="M83.9,68.88h-1.01s-.08-.04-.08-.08v-1.01s.04-.08,.08-.08h1.01s.08,.04,.08,.08v1.01s-.04,.08-.08,.08Zm-.93-.16h.85v-.85h-.85v.85Z"/><path class="cls-1" d="M79.46,68.88h-1.01s-.08-.04-.08-.08v-1.01s.04-.08,.08-.08h1.01s.08,.04,.08,.08v1.01s-.04,.08-.08,.08Zm-.93-.16h.85v-.85h-.85v.85Z"/><path class="cls-1" d="M75.02,68.88h-1.01s-.08-.04-.08-.08v-1.01s.04-.08,.08-.08h1.01s.08,.04,.08,.08v1.01s-.04,.08-.08,.08Zm-.93-.16h.85v-.85h-.85v.85Z"/><path class="cls-1" d="M70.59,68.88h-1.01s-.08-.04-.08-.08v-1.01s.04-.08,.08-.08h1.01s.08,.04,.08,.08v1.01s-.04,.08-.08,.08Zm-.93-.16h.85v-.85h-.85v.85Z"/><path class="cls-1" d="M66.15,68.88h-1.01s-.08-.04-.08-.08v-1.01s.04-.08,.08-.08h1.01s.08,.04,.08,.08v1.01s-.04,.08-.08,.08Zm-.93-.16h.85v-.85h-.85v.85Z"/><rect class="cls-1" x="56.34" y="71.05" width="2.82" height=".33" transform="translate(128.96 13.47) rotate(90)"/><rect class="cls-1" x="56.34" y="78.39" width="2.82" height=".33" transform="translate(136.3 20.81) rotate(90)"/><rect class="cls-1" x="56.34" y="85.74" width="2.82" height=".33" transform="translate(143.65 28.16) rotate(90)"/><rect class="cls-1" x="56.34" y="93.08" width="2.82" height=".33" transform="translate(150.99 35.5) rotate(90)"/><rect class="cls-1" x="34.84" y="105.15" width="1.88" height=".45" transform="translate(141.16 69.6) rotate(90)"/><rect class="cls-1" x="31.68" y="105.15" width="1.88" height=".45" transform="translate(138.01 72.76) rotate(90)"/><rect class="cls-1" x="28.53" y="105.15" width="1.88" height=".45" transform="translate(134.85 75.91) rotate(90)"/><rect class="cls-1" x="25.38" y="105.15" width="1.88" height=".45" transform="translate(131.7 79.06) rotate(90)"/><rect class="cls-1" x="22.22" y="105.15" width="1.88" height=".45" transform="translate(128.55 82.21) rotate(90)"/><rect class="cls-1" x="19.07" y="105.15" width="1.88" height=".45" transform="translate(125.39 85.37) rotate(90)"/><rect class="cls-1" x="15.92" y="105.15" width="1.88" height=".45" transform="translate(122.24 88.52) rotate(90)"/></g></g></g></svg>