<svg id="cat1" enable-background="new 0 0 300 300" height="512" viewBox="0 0 300 300" width="512" xmlns="http://www.w3.org/2000/svg"><g><path d="m176.309 106.692c.781.781 1.805 1.172 2.828 1.172s2.047-.391 2.828-1.172l3.535-3.535 3.535 3.535c.781.781 1.805 1.172 2.828 1.172s2.047-.391 2.828-1.172c1.562-1.562 1.562-4.094 0-5.656l-3.535-3.535 3.535-3.535c1.562-1.562 1.562-4.094 0-5.656s-4.094-1.562-5.656 0l-3.535 3.535-3.535-3.535c-1.562-1.562-4.094-1.562-5.656 0s-1.562 4.094 0 5.656l3.535 3.535-3.535 3.535c-1.563 1.562-1.563 4.093 0 5.656z"/><path d="m52 200c7.719 0 14-6.281 14-14s-6.281-14-14-14-14 6.281-14 14 6.281 14 14 14zm0-20c3.309 0 6 2.691 6 6s-2.691 6-6 6-6-2.691-6-6 2.691-6 6-6z"/><path d="m216 50.53c2.501 0 4.53-2.028 4.53-4.529s-2.028-4.53-4.53-4.53-4.53 2.028-4.53 4.53 2.029 4.529 4.53 4.529z"/><path d="m90.736 116c-2.209 0-4 1.791-4 4s1.791 4 4 4c4.349 0 8.21-1.97 10.863-5.018 2.654 3.048 6.514 5.018 10.863 5.018 2.209 0 4-1.791 4-4s-1.791-4-4-4c-3.564 0-6.463-2.898-6.463-6.463v-1.687c1.146-.188 2.359-.599 3.279-1.52l2.533-2.537c1.148-1.143 1.588-3.193.969-4.689-.814-1.973-2.953-3.104-5.865-3.104h-9.93c-2.914 0-5.053 1.131-5.867 3.104-.617 1.494-.18 3.541.963 4.684l2.543 2.543c.732.733 1.651 1.146 2.574 1.384v1.823c.001 3.564-2.897 6.462-6.462 6.462z"/><path d="m118 96.002c.418 0 .846-.066 1.266-.207l12-4c2.096-.699 3.229-2.965 2.529-5.061-.697-2.094-2.957-3.236-5.061-2.529l-12 4c-2.096.699-3.229 2.965-2.529 5.061.559 1.676 2.119 2.736 3.795 2.736z"/><path d="m86 96.002c1.676 0 3.236-1.061 3.795-2.736.699-2.096-.434-4.361-2.529-5.061l-12-4c-2.104-.707-4.363.436-5.061 2.529-.699 2.096.434 4.361 2.529 5.061l12 4c.42.141.848.207 1.266.207z"/><path d="m266 256h-45.774c3.584-4.1 5.774-9.447 5.774-15.307 0-4.38-.269-8.716-.658-13.027 24.904-18.592 39.746-48.09 39.746-79.323 0-27.803-11.797-54.488-32.367-73.219-4.896-4.455-12.498-4.1-16.951.795-4.455 4.893-4.098 12.498.793 16.953 15.586 14.189 24.525 34.408 24.525 55.471 0 19.458-7.586 38.015-20.9 51.904-10.371-35.617-34.215-66.383-67.32-85.265.721-2.524 1.132-5.178 1.132-7.93v-18.105c0-2.304-.299-4.536-.811-6.686 11.93-18.672-3.132-43.317-3.797-44.383-.881-1.41-2.549-2.129-4.178-1.801-17.666 3.535-26.728 18.009-29.753 23.923h-27.109c-3.025-5.914-12.088-20.388-29.754-23.922-1.645-.328-3.297.391-4.178 1.803-.669 1.071-15.842 25.896-3.663 44.588-.479 2.086-.757 4.249-.757 6.478v18.105c0 12.91 8.499 23.867 20.194 27.587.795 10.812 4.596 21.08 11.128 29.788l12.678 16.907v54.666c-11.869 0-21.725 8.667-23.639 20h-36.361c-2.209 0-4 1.791-4 4s1.791 4 4 4h232c2.209 0 4-1.791 4-4s-1.791-4-4-4zm-16.912-107.656c0-23.309-9.893-45.684-27.139-61.385-1.631-1.486-1.75-4.021-.264-5.652 1.482-1.631 4.02-1.748 5.65-.266 18.908 17.217 29.752 41.748 29.752 67.303 0 27.154-12.193 52.89-32.877 70.057-.479-3.075-1.048-6.124-1.72-9.145 16.916-15.66 26.598-37.732 26.598-60.912zm-105.102-103.721c2.647 5.154 7.886 17.339 4.906 27.941-5.225-7.579-13.958-12.564-23.839-12.564h-.35c3.32-5.132 9.537-12.433 19.283-15.377zm-84.162.002c9.686 2.937 15.917 10.24 19.259 15.375h-.136c-9.961 0-18.763 5.06-23.973 12.742-3.088-10.642 2.189-22.933 4.85-28.117zm-1.824 62.428v-18.106c0-11.55 9.396-20.947 20.947-20.947h46.105c11.552 0 20.948 9.397 20.948 20.947v18.105c0 11.551-9.396 20.947-20.947 20.947h-7.787c-1.691 0-3.201 1.064-3.77 2.66-1.135 3.193-4.148 5.34-7.496 5.34h-8c-3.348 0-6.361-2.146-7.496-5.34-.568-1.596-2.078-2.66-3.77-2.66h-7.787c-11.551.001-20.947-9.395-20.947-20.946zm52.531 148.947c1.764-6.948 7.966-12 15.469-12h12c2.209 0 4-1.791 4-4v-8c0-17.943 14.52-32 33.057-32 2.209 0 4-1.791 4-4s-1.791-4-4-4c-13.058 0-24.502 5.661-31.97 14.647-4.388-6.505-5.038-14.084-5.087-14.776v-15.871c0-2.209-1.791-4-4-4s-4 1.791-4 4v14.789l-7.328 10.992c-.385.576-.613 1.242-.662 1.934l-2.368 33.145c-8.951 2.414-15.747 9.804-17.287 19.14h-23.849c1.781-6.893 8.053-12 15.494-12h4c2.209 0 4-1.791 4-4v-60c0-.865-.281-1.707-.801-2.4l-13.479-17.973c-5.22-6.963-8.436-15.079-9.407-23.659.213.005.42.032.634.032h5.248c2.822 4.879 8.064 8 13.805 8h8c5.74 0 10.982-3.121 13.805-8h5.248c10.348 0 19.42-5.477 24.539-13.666 42.256 24.425 68.408 69.427 68.408 118.36 0 8.439-6.867 15.307-15.307 15.307h-92.162zm21.53-53.88c1.237 3.685 3.206 7.874 6.354 11.629-2.809 5.448-4.415 11.628-4.415 18.251v4h-6.275l2.189-30.66z"/></g></svg>