<svg id="cat12" enable-background="new 0 0 300 300" height="512" viewBox="0 0 300 300" width="512" xmlns="http://www.w3.org/2000/svg"><g><path d="m196.309 112.693c.781.781 1.805 1.172 2.828 1.172s2.047-.391 2.828-1.172l3.535-3.535 3.535 3.535c.781.781 1.805 1.172 2.828 1.172s2.047-.391 2.828-1.172c1.562-1.562 1.562-4.094 0-5.656l-3.535-3.535 3.535-3.535c1.562-1.562 1.562-4.094 0-5.656s-4.094-1.562-5.656 0l-3.535 3.535-3.535-3.535c-1.562-1.562-4.094-1.562-5.656 0s-1.562 4.094 0 5.656l3.535 3.535-3.535 3.535c-1.563 1.563-1.563 4.094 0 5.656z"/><circle cx="236" cy="52.002" r="4.53"/><path d="m74 192.002c0-7.719-6.281-14-14-14s-14 6.281-14 14 6.281 14 14 14 14-6.281 14-14zm-20 0c0-3.309 2.691-6 6-6s6 2.691 6 6-2.691 6-6 6-6-2.691-6-6z"/><path d="m118 106.004c.418 0 .846-.066 1.266-.207l12-4c2.096-.699 3.229-2.965 2.529-5.061-.697-2.096-2.957-3.234-5.061-2.529l-12 4c-2.096.699-3.229 2.965-2.529 5.061.559 1.675 2.119 2.736 3.795 2.736z"/><path d="m86 106.004c1.676 0 3.236-1.061 3.795-2.736.699-2.096-.434-4.361-2.529-5.061l-12-4c-2.104-.705-4.363.434-5.061 2.529-.699 2.096.434 4.361 2.529 5.061l12 4c.42.141.848.207 1.266.207z"/><path d="m266 262.002h-14.162c3.817-4.251 6.162-9.85 6.162-16v-56c0-13.234-10.766-24-24-24v-16c0-6.617-5.383-12-12-12s-12 5.383-12 12v16c0 13.234 10.766 24 24 24v56h-8.07c-.007-.039-.004-.079-.012-.117l-4.646-22.463c-8.83-42.679-37.049-78.72-76.018-97.674 5.387-5.26 8.746-12.588 8.746-20.694v-14.298c22.055-21.037 3.16-57.086 2.328-58.641-.854-1.598-2.674-2.432-4.436-2.008-17.859 4.166-26.883 21.186-29.801 27.895h-38.771c-2.918-6.709-11.941-23.729-29.801-27.895-1.764-.424-3.582.41-4.436 2.008-.794 1.485-18.884 35.971.917 57.219v15.721c0 15.641 12.48 28.393 28 28.899v2.513c0 12.168 4.021 24.23 11.322 33.963l12.678 16.906v54.666c-11.869 0-21.725 8.667-23.639 20h-44.361c-2.209 0-4 1.791-4 4s1.791 4 4 4h232c2.209 0 4-1.791 4-4s-1.791-4-4-4zm-24-16v-56c0-4.412-3.588-8-8-8-8.822 0-16-7.178-16-16v-16c0-2.205 1.795-4 4-4s4 1.795 4 4v16c0 4.412 3.588 8 8 8 8.822 0 16 7.178 16 16v56c0 8.822-7.178 16-16 16h-13.774c2.022-2.313 3.597-5.02 4.584-8h9.19c4.412 0 8-3.588 8-8zm-124-180c0 8.822-7.178 16-16 16s-16-7.178-16-16zm-60 39.053v-17.352c0-1.08-.438-2.115-1.213-2.869-14.287-13.883-5.668-37.744-2.027-46.021 15.369 5.641 22 24.293 22.07 24.494.233.671.66 1.219 1.17 1.667v1.028c0 13.234 10.766 24 24 24s24-10.766 24-24v-.19c1.186-.375 2.159-1.288 2.582-2.505.07-.201 6.703-18.857 22.076-24.496 3.744 8.484 12.744 33.377-3.266 47.139-.885.76-1.393 1.867-1.393 3.033v16.072c0 11.551-9.396 20.947-20.947 20.947h-7.787c-1.691 0-3.201 1.064-3.77 2.66-1.135 3.193-4.148 5.34-7.496 5.34v-8.15c1.146-.188 2.359-.599 3.279-1.52l2.533-2.537c1.148-1.143 1.588-3.193.969-4.689-.814-1.973-2.953-3.104-5.865-3.104h-9.93c-2.914 0-5.053 1.131-5.867 3.104-.617 1.494-.18 3.541.963 4.684l2.543 2.543c.945.947 2.201 1.36 3.375 1.539v8.131c-3.348 0-6.361-2.146-7.496-5.34-.568-1.596-2.078-2.66-3.77-2.66h-7.787c-11.55-.001-20.946-9.397-20.946-20.948zm44 144.947h4c2.209 0 4-1.791 4-4v-32h11.704l-3.428 48h-31.77c1.781-6.893 8.053-12 15.494-12zm30.04-41.848c2.714 7.893 8.445 16.659 19.128 20.342-.736 3.043-1.167 6.213-1.167 9.506v4h-8c-5.511 0-10.578 1.886-14.634 5.02l2.548-35.68zm-5.534 53.848c1.781-6.893 8.053-12 15.494-12h24c2.209 0 4-1.791 4-4s-1.791-4-4-4h-8v-4c0-17.943 14.52-32 33.057-32 2.209 0 4-1.791 4-4s-1.791-4-4-4c-16.706 0-30.745 9.275-37.214 22.922-14.425-4.914-15.767-21.81-15.843-23.051v-15.872c0-2.209-1.791-4-4-4s-4 1.791-4 4v14.789l-6.141 9.211h-13.859v-20c0-.865-.281-1.707-.801-2.4l-13.479-17.973c-6.267-8.356-9.719-18.709-9.72-29.157 2.977 3.423 7.31 5.53 12 5.53h8c5.74 0 10.982-3.121 13.805-8h5.248c4.54 0 8.823-1.08 12.651-2.951 38.839 17.288 67.105 52.281 75.732 93.992l4.561 22.039c-.207 8.262-6.992 14.92-15.303 14.92h-76.188z"/><path d="m71.678 69.785c2.09-.717 3.203-2.992 2.486-5.08-.168-.494-4.27-12.123-14.875-14.598-1.764-.424-3.582.41-4.434 2.006-.416.773-10.02 19.088 2.783 29.047.729.566 1.594.842 2.453.842 1.191 0 2.371-.531 3.16-1.545 1.355-1.742 1.041-4.256-.703-5.613-5.123-3.984-3.559-11.348-2.043-15.629 4.119 2.689 6.043 7.949 6.096 8.098.721 2.08 2.989 3.199 5.077 2.472z"/><path d="m133.734 69.785c2.09.725 4.365-.396 5.08-2.486.023-.064 1.953-5.375 6.094-8.082 1.514 4.285 3.074 11.645-2.045 15.627-1.744 1.357-2.059 3.871-.703 5.613.789 1.014 1.969 1.545 3.16 1.545.859 0 1.725-.275 2.453-.842 12.803-9.959 3.199-28.273 2.783-29.047-.855-1.596-2.67-2.43-4.434-2.006-10.605 2.475-14.707 14.104-14.875 14.598-.716 2.088.398 4.363 2.487 5.08z"/></g></svg>