<svg id="cat13" enable-background="new 0 0 300 300" height="512" viewBox="0 0 300 300" width="512" xmlns="http://www.w3.org/2000/svg"><g><path d="m200.309 113.736c.781.781 1.805 1.172 2.828 1.172s2.047-.391 2.828-1.172l3.535-3.535 3.535 3.535c.781.781 1.805 1.172 2.828 1.172s2.047-.391 2.828-1.172c1.562-1.562 1.562-4.094 0-5.656l-3.535-3.535 3.535-3.535c1.562-1.562 1.562-4.094 0-5.656s-4.094-1.562-5.656 0l-3.535 3.535-3.535-3.535c-1.562-1.562-4.094-1.562-5.656 0s-1.562 4.094 0 5.656l3.535 3.535-3.535 3.535c-1.563 1.562-1.563 4.093 0 5.656z"/><path d="m216 57.574c2.501 0 4.53-2.028 4.53-4.529 0-2.502-2.028-4.53-4.53-4.53s-4.53 2.028-4.53 4.53c0 2.501 2.029 4.529 4.53 4.529z"/><circle cx="104" cy="161.044" r="4.53"/><path d="m116 192.515c-2.501 0-4.53 2.028-4.53 4.53 0 2.501 2.028 4.529 4.53 4.529s4.53-2.028 4.53-4.529c0-2.502-2.029-4.53-4.53-4.53z"/><path d="m160 184.515c-2.501 0-4.53 2.028-4.53 4.53 0 2.501 2.028 4.529 4.53 4.529s4.53-2.028 4.53-4.529c0-2.502-2.029-4.53-4.53-4.53z"/><path d="m204.53 241.044c0-2.502-2.028-4.53-4.53-4.53s-4.53 2.028-4.53 4.53c0 2.501 2.028 4.529 4.53 4.529s4.53-2.027 4.53-4.529z"/><path d="m52 207.044c7.719 0 14-6.281 14-14s-6.281-14-14-14-14 6.281-14 14 6.281 14 14 14zm0-20c3.309 0 6 2.691 6 6s-2.691 6-6 6-6-2.691-6-6 2.691-6 6-6z"/><path d="m146 151.044c-6.617 0-12 5.383-12 12s5.383 12 12 12 12-5.383 12-12-5.383-12-12-12zm0 16c-2.205 0-4-1.795-4-4s1.795-4 4-4 4 1.795 4 4-1.795 4-4 4z"/><path d="m178 215.044c-6.617 0-12 5.383-12 12s5.383 12 12 12 12-5.383 12-12-5.383-12-12-12zm0 16c-2.205 0-4-1.795-4-4s1.795-4 4-4 4 1.795 4 4-1.795 4-4 4z"/><path d="m134 111.046c.418 0 .846-.066 1.266-.207l12-4c2.096-.699 3.229-2.965 2.529-5.061-.699-2.094-2.953-3.232-5.061-2.529l-12 4c-2.096.699-3.229 2.965-2.529 5.061.559 1.676 2.119 2.736 3.795 2.736z"/><path d="m86 111.046c1.676 0 3.236-1.061 3.795-2.736.699-2.096-.434-4.361-2.529-5.061l-12-4c-2.105-.703-4.363.436-5.061 2.529-.699 2.096.434 4.361 2.529 5.061l12 4c.42.141.848.207 1.266.207z"/><path d="m266 263.044h-30.162c3.817-4.251 6.162-9.85 6.162-16v-60c15.439 0 28-12.561 28-28s-12.561-28-28-28-28 12.561-28 28c0 .133.004.264.012.422-.008.104-.012.207-.012.311v30.349c-10.53-24.261-27.66-45.477-50.015-61.073 1.286-3.24 2.015-6.76 2.015-10.452v-1.336c0-9.553-2.729-18.459-7.379-26.07 2.785-3.604 6.195-7.918 8.434-10.737 2.244-2.82 3.064-6.457 2.254-9.977l-7.473-32.379c-1.033-4.477-4.461-7.871-8.947-8.859-4.484-.992-9.027.65-11.848 4.275l-15.914 20.462c-1.951 2.512-2.814 5.756-2.363 8.904l.688 4.809c-2.508-.387-5.057-.649-7.672-.649h-11.559c-2.524 0-4.985.248-7.41.609l.682-4.769c.451-3.148-.412-6.393-2.363-8.904l-15.917-20.461c-2.818-3.627-7.355-5.275-11.846-4.275-4.486.988-7.914 4.383-8.949 8.861l-7.471 32.377c-.811 3.52.01 7.156 2.254 9.977 2.2 2.768 5.531 6.985 8.29 10.552-4.719 7.65-7.491 16.624-7.491 26.254v1.336c0 11.395 6.751 21.218 16.449 25.754 1.197 9.83 4.912 19.169 10.873 27.117l12.678 16.906v54.666c-11.869 0-21.725 8.667-23.639 20h-36.361c-2.209 0-4 1.791-4 4s1.791 4 4 4h232c2.209 0 4-1.791 4-4s-1.791-4-4-4zm-4.081-104.796c-1.285.471-2.589.796-3.919.796-6.617 0-12-5.383-12-12 0-2.513.79-4.895 2.23-6.907 7.721 2.555 13.348 9.627 13.689 18.111zm-39.919 55.81v-53.678c.031-.221.045-.449.037-.678-.002-.053-.033-.605-.037-.658 0-10.194 7.697-18.538 17.567-19.754-1.025 2.421-1.567 5.043-1.567 7.754 0 11.027 8.973 20 20 20 .804 0 1.6-.06 2.391-.159-3.056 7.14-10.146 12.159-18.391 12.159-1.027 0-2.119-.1-3.338-.305-1.156-.189-2.348.129-3.246.893-.898.76-1.416 1.877-1.416 3.053v64.359c0 7.983-5.894 14.562-13.549 15.752 3.453-4.066 5.549-9.319 5.549-15.059 0-11.488-1.397-22.77-4.001-33.676 0-.001.001-.002.001-.003zm-37.855-56.321c3.441 3.928 6.659 8.026 9.614 12.299-1.146.636-2.413 1.008-3.759 1.008-4.412 0-8-3.588-8-8 0-2.018.817-3.867 2.145-5.307zm-53.463-95.986c-.145-1.01.133-2.055.762-2.861l15.912-20.461c1.367-1.756 3.26-1.502 3.811-1.373.547.121 2.377.684 2.875 2.846l7.471 32.377c.262 1.131 0 2.299-.719 3.203-1.879 2.363-4.595 5.796-7.074 8.978-2.597-3-5.541-5.681-8.771-7.997-.197-8.02 4.318-15.105 4.386-15.21 1.219-1.836.721-4.314-1.115-5.537-1.842-1.23-4.324-.729-5.547 1.109-.222.332-4.336 6.714-5.461 15.09-1.747-.829-3.54-1.571-5.391-2.197zm-71.219 13.731c-.719-.904-.98-2.072-.719-3.203l7.469-32.375c.5-2.164 2.33-2.727 2.877-2.848.551-.123 2.445-.379 3.809 1.373l15.913 20.461c.629.809.906 1.852.762 2.861l-1.125 7.868c-2.308.766-4.531 1.708-6.678 2.787-1.016-8.626-5.33-15.233-5.562-15.58-1.223-1.836-3.699-2.33-5.533-1.111-1.838 1.219-2.342 3.697-1.129 5.539.052.08 4.915 7.693 4.339 16.083-2.719 2.071-5.222 4.401-7.468 6.973-2.447-3.14-5.108-6.502-6.955-8.828zm2.537 43.119v-1.336c0-23.281 18.939-42.221 42.221-42.221h11.559c23.281 0 42.221 18.939 42.221 42.221v1.336c0 11.273-9.17 20.443-20.443 20.443h-8.364c.536-2.565.807-5.308.807-8 0-9.633-3.338-20-10.666-20h-18.668c-7.328 0-10.666 10.367-10.666 20 0 2.692.271 5.435.807 8h-8.364c-11.274 0-20.444-9.17-20.444-20.443zm38.975 24.443c-.973-.834-2.975-5.035-2.975-12 0-6.289 1.626-10.297 2.659-11.636l1.353 1.354c.016.051.033.105.049.16.622 2.048 1.533 4.949 3.939 5.832v16.289h-5.025zm13.025-16.331c2.331-.927 3.229-3.771 3.842-5.79.018-.057.033-.109.049-.162l1.404-1.406c1.029 1.272 2.705 5.301 2.705 11.689 0 6.965-2.002 11.166-2.975 12h-5.025zm18.039 82.483c2.714 7.893 8.444 16.662 19.127 20.345-.736 3.042-1.167 6.211-1.167 9.503v4h-8c-5.511 0-10.578 1.886-14.634 5.02l2.548-35.68zm-5.533 53.848c1.781-6.893 8.053-12 15.494-12h12c2.209 0 4-1.791 4-4v-8c0-17.943 14.52-32 33.057-32 2.209 0 4-1.791 4-4s-1.791-4-4-4c-16.705 0-30.745 9.275-37.213 22.921-14.425-4.915-15.767-21.81-15.844-23.05v-15.872c0-2.209-1.791-4-4-4s-4 1.791-4 4v14.789l-7.328 10.992c-.385.576-.613 1.242-.662 1.934l-3.735 52.285h-39.769c1.781-6.893 8.053-12 15.494-12h4c2.209 0 4-1.791 4-4v-8.568c6.881-1.789 12-7.999 12-15.432s-5.119-13.643-12-15.432v-20.568c0-.865-.281-1.707-.801-2.4l-13.479-17.973c-4.422-5.896-7.397-12.687-8.795-19.868 1.155.143 2.324.241 3.518.241h11.493c1.677 2.448 3.903 4 6.73 4h18.668c2.827 0 5.053-1.552 6.73-4h11.493c9.116 0 17.224-4.328 22.433-11.019 6.746 4.758 12.986 10.05 18.672 15.819-2.934 2.937-4.662 6.907-4.662 11.2 0 8.822 7.178 16 16 16 2.889 0 5.649-.878 8.094-2.346 12.833 21.088 19.906 45.556 19.906 71.041 0 8.439-6.867 15.307-15.307 15.307h-76.187zm-24.506-46.887c2.38 1.387 4 3.939 4 6.887s-1.62 5.5-4 6.887z"/></g></svg>