<svg id="cat20" enable-background="new 0 0 300 300" height="512" viewBox="0 0 300 300" width="512" xmlns="http://www.w3.org/2000/svg"><g><path d="m228.309 106.691c.781.781 1.805 1.172 2.828 1.172s2.047-.391 2.828-1.172l3.535-3.535 3.535 3.535c.781.781 1.805 1.172 2.828 1.172s2.047-.391 2.828-1.172c1.562-1.562 1.562-4.094 0-5.656l-3.535-3.535 3.535-3.535c1.562-1.562 1.562-4.094 0-5.656s-4.094-1.562-5.656 0l-3.535 3.535-3.535-3.535c-1.562-1.562-4.094-1.562-5.656 0s-1.562 4.094 0 5.656l3.535 3.535-3.535 3.535c-1.563 1.563-1.563 4.094 0 5.656z"/><path d="m126 108.002c.418 0 .844-.066 1.266-.207l12-4c2.094-.699 3.227-2.965 2.527-5.061-.699-2.094-2.941-3.232-5.059-2.529l-12 4c-2.094.699-3.227 2.965-2.527 5.061.559 1.675 2.117 2.736 3.793 2.736z"/><path d="m80.734 103.795 12 4c.422.141.848.207 1.266.207 1.676 0 3.234-1.061 3.793-2.736.699-2.096-.434-4.361-2.527-5.061l-12-4c-2.109-.703-4.359.436-5.059 2.529-.699 2.096.434 4.362 2.527 5.061z"/><path d="m266 260h-18.226c1.378-2.363 2.226-5.073 2.226-8v-77.359c7.114-2.849 12-9.841 12-17.711v-12.93c0-2.209-1.789-4-4-4h-8.254c-10.887 0-19.746 8.857-19.746 19.746v84.254h-4.032c-.187-38.336-15.488-72.037-42.844-96h10.876c11.027 0 20-8.973 20-20 0-2.209-1.789-4-4-4h-16.008c2.516-3.346 4.008-7.502 4.008-12 0-2.209-1.789-4-4-4h-24.427c-.168-1.347-.352-2.688-.625-4h21.052c11.027 0 20-8.973 20-20 0-2.209-1.789-4-4-4h-20.008c2.516-3.346 4.008-7.502 4.008-12 0-2.209-1.789-4-4-4h-20.103c2.539-3.353 4.103-7.48 4.103-12 0-2.209-1.789-4-4-4h-8.103c2.539-3.353 4.103-7.48 4.103-12 0-2.209-1.789-4-4-4h-37.699c-12.759 0-24.445 6.268-31.603 16.763-17.49 3.537-30.698 19.021-30.698 37.538v.83c-5.039 7.826-8 17.111-8 27.09v1.336c0 7.661 3.058 14.61 8 19.73v32.713c0 10.177 7.67 18.51 17.518 19.749 4.182 8.914 10.495 16.579 18.482 22.343v29.908c-11.869 0-21.726 8.667-23.639 20h-36.361c-2.211 0-4 1.791-4 4s1.789 4 4 4h232c2.211 0 4-1.791 4-4s-1.789-4-4-4zm-28-100.254c0-6.477 5.27-11.746 11.746-11.746h4.254v8.93c0 5.096-3.527 9.559-8.441 10.754h-7.559zm-60-27.746h27.316c-1.652 4.656-6.102 8-11.316 8h-20.93c-3.085-2.213-6.317-4.292-9.645-6.282 4.013-4.823 6.447-10.992 6.552-17.718h19.339c-1.652 4.656-6.102 8-11.316 8-2.211 0-4 1.791-4 4s1.789 4 4 4zm-8-44h31.316c-1.652 4.656-6.102 8-11.316 8h-23.473c-3.881-9.921-10.812-18.304-19.658-24h3.131 31.316c-1.652 4.656-6.102 8-11.316 8-2.211 0-4 1.791-4 4s1.789 4 4 4zm-16.684-48c-1.652 4.656-6.102 8-11.316 8h-16-26.208c5.521-5.092 12.771-8 20.508-8zm-57.015 16h29.699 16 19.316c-1.652 4.656-6.102 8-11.316 8h-49.777c-12.307 0-23.58 4.467-32.323 11.842 4.272-11.561 15.373-19.842 28.401-19.842zm-38.301 58.221c0-23.282 18.941-42.221 42.223-42.221h19.555c23.281 0 42.222 18.939 42.222 42.221v1.336c0 11.273-9.172 20.443-20.441 20.443h-7.792c.148-1.287.233-2.621.233-4 0-11.402-5.301-20-12.332-20-2.211 0-4 1.791-4 4s1.789 4 4 4c1.113 0 4.332 4.127 4.332 12s-3.219 12-4.332 12h-.036l-7.632-13.085v-14.915c0-2.209-1.789-4-4-4s-4 1.791-4 4v14.915l-7.632 13.085h-.036c-1.113 0-4.332-4.127-4.332-12s3.219-12 4.332-12c2.211 0 4-1.791 4-4s-1.789-4-4-4c-7.031 0-12.332 8.598-12.332 20 0 1.379.085 2.713.233 4h-7.792c-11.269 0-20.441-9.17-20.441-20.443zm52 25.718 2.367 4.061h-4.734zm-36 39.375c-4.656-1.65-8-6.1-8-11.314v-26.905c3.764 1.842 7.976 2.905 12.441 2.905h9.94c.478 1.061 1.019 2.024 1.618 2.9v20.414c-4.656-1.65-8-6.1-8-11.314 0-2.209-1.789-4-4-4s-4 1.791-4 4v23.314zm60.504 39.141c3.069 2.558 8.237 5.666 16.712 8.038-.743 3.065-1.216 6.23-1.216 9.507v4h-8c-5.243 0-10.084 1.709-14.036 4.573l1.919-19.184zm-7.996 41.545c1.777-6.893 8.051-12 15.492-12h12c2.211 0 4-1.791 4-4v-8c0-12.584 7.156-23.668 18.68-28.924 2.012-.916 2.895-3.289 1.98-5.299-.918-2.012-3.289-2.9-5.301-1.979-8.845 4.034-15.604 10.833-19.527 19.115-10.496-2.857-14.621-6.751-15.832-8.162v-8.326c2.883.885 6.797 1.574 12 1.574 2.211 0 4-1.791 4-4s-1.789-4-4-4c-9.664 0-13.16-2.83-13.172-2.83v.002c-1.141-1.145-2.859-1.484-4.359-.867-1.496.62-2.469 2.079-2.469 3.696v14.789l-7.328 10.992c-.363.545-.586 1.17-.652 1.82l-3.607 36.066c-.021.11-.032.222-.051.332h-39.854c1.777-6.893 8.051-12 15.492-12h4c2.211 0 4-1.791 4-4v-36c0-1.338-.668-2.586-1.781-3.328-8.111-5.408-14.401-13.006-18.219-21.974v-10.707c3.344 2.516 7.5 4.01 12 4.01 2.211 0 4-1.791 4-4v-20.051c.113.005.218.051.332.051h23.336c4.197 0 7.746-3.106 9.95-8h9.94c5.765 0 11.127-1.735 15.613-4.695 38.802 22.235 60.967 60.654 60.829 105.818-.023 8.203-6.891 14.877-15.305 14.877zm93.834 0c2.028-2.316 3.604-5.022 4.566-8h9.092c2.211 0 4-1.791 4-4v-72.316h4v76.316c0 4.412-3.59 8-8 8z"/><path d="m216 54.53c2.502 0 4.529-2.028 4.529-4.53s-2.027-4.529-4.529-4.529c-2.501 0-4.529 2.028-4.529 4.529s2.028 4.53 4.529 4.53z"/><path d="m56 232c7.719 0 14-6.281 14-14s-6.281-14-14-14-14 6.281-14 14 6.281 14 14 14zm0-20c3.309 0 6 2.691 6 6s-2.691 6-6 6-6-2.691-6-6 2.691-6 6-6z"/></g></svg>