<svg id="cat23" enable-background="new 0 0 300 300" height="512" viewBox="0 0 300 300" width="512" xmlns="http://www.w3.org/2000/svg"><g><circle cx="236" cy="50.432" r="4.53"/><path d="m66 206.432c0-7.719-6.281-14-14-14s-14 6.281-14 14 6.281 14 14 14 14-6.282 14-14zm-20 0c0-3.309 2.691-6 6-6s6 2.691 6 6-2.691 6-6 6-6-2.692-6-6z"/><path d="m176.309 51.123c.781.781 1.805 1.172 2.828 1.172s2.047-.391 2.828-1.172l3.535-3.535 3.535 3.535c.781.781 1.805 1.172 2.828 1.172s2.047-.391 2.828-1.172c1.562-1.562 1.562-4.094 0-5.656l-3.535-3.535 3.535-3.535c1.562-1.562 1.562-4.094 0-5.656s-4.094-1.562-5.656 0l-3.535 3.535-3.535-3.535c-1.562-1.562-4.094-1.562-5.656 0s-1.562 4.094 0 5.656l3.535 3.535-3.535 3.535c-1.563 1.562-1.563 4.094 0 5.656z"/><path d="m118 104.434c.418 0 .846-.066 1.266-.207l12-4c2.096-.699 3.229-2.965 2.529-5.061-.697-2.092-2.955-3.234-5.061-2.529l-12 4c-2.096.699-3.229 2.965-2.529 5.061.559 1.675 2.119 2.736 3.795 2.736z"/><path d="m84.734 104.227c.42.141.848.207 1.266.207 1.676 0 3.236-1.061 3.795-2.736.699-2.096-.434-4.361-2.529-5.061l-12-4c-2.102-.705-4.363.438-5.061 2.529-.699 2.096.434 4.361 2.529 5.061z"/><path d="m266 260.432h-23.234c4.469-4.659 7.234-10.965 7.234-17.916v-138.178c0-22.004-17.902-39.906-39.906-39.906h-16.094c-1.387 0-2.674.719-3.402 1.896-.729 1.18-.795 2.652-.176 3.893l8.932 17.861-5.146-.268c-1.422-.084-2.76.605-3.543 1.787-.781 1.18-.881 2.686-.26 3.959l9.197 18.871h-5.602c-2.209 0-4 1.791-4 4v7.992c-6.353-2.73-13.048-4.803-20-6.156v-.267c0-10.557-6.369-19.75-16-23.63v-.991c0-2.244-.258-4.471-.768-6.639 11.971-18.666-3.17-43.355-3.84-44.428-.883-1.412-2.531-2.135-4.178-1.803-17.61 3.521-26.657 17.865-29.753 23.922h-27.11c-3.098-6.068-12.133-20.397-29.754-23.922-1.641-.332-3.297.393-4.178 1.803-.674 1.08-15.922 25.955-3.695 44.641-.48 2.113-.724 4.266-.724 6.426v.993c-9.627 3.881-16 13.079-16 23.628v2.432c0 2.209 1.791 4 4 4h12v12c0 1.475.812 2.83 2.113 3.527.59.316 1.24.473 1.887.473.775 0 1.549-.227 2.219-.672l10.373-6.914 6.359 2.12-2.941 41.181c-.096 1.332.482 2.625 1.537 3.445 1.055.818 2.447 1.053 3.719.635l6.734-2.247v6.451c0 2.209 1.791 4 4 4h8v52c-11.916 0-21.748 8.566-23.647 20h-36.353c-2.209 0-4 1.791-4 4s1.791 4 4 4h232c2.209 0 4-1.791 4-4s-1.791-3.999-4-3.999zm-68-140h8c1.379 0 2.66-.711 3.393-1.879.73-1.17.807-2.633.203-3.873l-9.027-18.525 5.225.271c1.424.062 2.773-.615 3.555-1.803.779-1.191.867-2.707.23-3.98l-9.105-18.211h9.621c17.594 0 31.906 14.312 31.906 31.906v72.076c-8.837-20.556-24.441-37.54-44-48.123v-7.859zm-36.068-4h-7.932v-13.157c4.486 2.897 7.454 7.694 7.932 13.157zm-119.864 0c.477-5.458 3.447-10.254 7.932-13.153v13.153zm21.713 8.672-5.781 3.853v-35.578c0-2.041.301-4.078.896-6.055.369-1.225.129-2.551-.645-3.57-8.791-11.582-1.656-28.395 1.574-34.699 9.736 2.946 15.943 10.247 19.267 15.377h-1.092c-2.209 0-4 1.791-4 4s1.791 4 4 4h48c2.209 0 4-1.791 4-4s-1.791-4-4-4h-1.277c3.328-5.13 9.54-12.436 19.27-15.379 3.229 6.264 10.342 22.932 1.686 34.553-.762 1.023-.99 2.352-.611 3.572.619 2.002.934 4.088.934 6.201v35.578l-5.781-3.854c-1.025-.686-2.312-.855-3.484-.467l-6.868 2.289c-.676-8.108-6.599-14.494-13.867-14.494h-9.084-9.93-8.988c-7.268 0-13.191 6.386-13.867 14.494l-6.868-2.289c-1.173-.392-2.458-.222-3.484.468zm52.219 11.328h-10v-12.15c1.146-.188 2.359-.599 3.279-1.52l2.326-2.33h4.395c3.252 0 6 3.664 6 8s-2.748 8-6 8zm-23.705-16 2.33 2.33c.945.947 2.201 1.36 3.375 1.539v12.131h-10c-3.252 0-6-3.664-6-8s2.748-8 6-8zm-4.295 24h28c.187 0 .362-.055.547-.063-2.823 2.497-6.49 4.063-10.547 4.063h-8c-4.057 0-7.724-1.566-10.547-4.063.185.008.36.063.547.063zm6 104h4 8c2.209 0 4-1.791 4-4s-1.791-4-4-4h-4v-56c0-2.209-1.791-4-4-4h-8v-8c0-1.285-.617-2.494-1.662-3.244-1.043-.756-2.385-.955-3.604-.551l-6.318 2.105 1.605-22.465c4.401 4.988 10.82 8.155 17.979 8.155h8c12.234 0 22.338-9.205 23.8-21.05l7.609-2.536 10.373 6.914c.67.447 1.443.672 2.219.672.646 0 1.297-.156 1.887-.473 1.301-.697 2.113-2.053 2.113-3.527v-11.926c48.784 1.552 88 41.695 88 90.85v27.16c0 9.879-8.037 17.916-17.916 17.916h-97.561c1.769-6.942 8.005-12 15.477-12h12 12c2.209 0 4-1.791 4-4s-1.791-4-4-4h-8v-4c0-17.943 14.52-32 33.057-32 1.842 0 3.445-1.258 3.885-3.047.154-.627 1.229-5.426-.688-9.871 4.328.301 9.254 1.396 13.527 4.246 1.836 1.223 4.318.727 5.547-1.109 1.225-1.838.729-4.322-1.109-5.547-13.318-8.873-30.463-4.732-31.189-4.553-1.959.49-3.246 2.365-3 4.369.248 2.006 1.951 3.512 3.971 3.512 2.176 0 3.672.492 4.443 1.461.568.715.816 1.719.898 2.693-15.062 1.259-27.521 10.141-33.504 22.764-13.243-4.516-15.456-19.115-15.784-22.43l2.475-7.428 8.205 2.734c1.326.443 2.795.158 3.863-.754s1.578-2.314 1.348-3.699l-4-24c-.363-2.176-2.402-3.646-4.604-3.287-2.178.363-3.65 2.424-3.287 4.604l2.908 17.445-5.697-1.898c-2.105-.709-4.363.436-5.061 2.529l-3.831 11.494-7.702 11.553c-.385.576-.613 1.242-.662 1.934l-3.735 52.285h-39.752c1.768-6.942 8.003-12 15.477-12zm38.031-41.836c2.714 7.878 8.502 16.573 19.153 20.259-.747 3.064-1.184 6.259-1.184 9.577v4h-8c-5.517 0-10.581 1.848-14.629 4.953l2.543-35.613z"/></g></svg>