<svg id="cat24" enable-background="new 0 0 300 300" height="512" viewBox="0 0 300 300" width="512" xmlns="http://www.w3.org/2000/svg"><g><circle cx="216" cy="43.265" r="4.53"/><path d="m66 183.265c0-7.719-6.281-14-14-14s-14 6.281-14 14 6.281 14 14 14 14-6.281 14-14zm-20 0c0-3.309 2.691-6 6-6s6 2.691 6 6-2.691 6-6 6-6-2.692-6-6z"/><path d="m200.309 103.956c.781.781 1.805 1.172 2.828 1.172s2.047-.391 2.828-1.172l3.535-3.535 3.535 3.535c.781.781 1.805 1.172 2.828 1.172s2.047-.391 2.828-1.172c1.562-1.562 1.562-4.094 0-5.656l-3.535-3.535 3.535-3.535c1.562-1.562 1.562-4.094 0-5.656s-4.094-1.562-5.656 0l-3.535 3.535-3.535-3.535c-1.562-1.562-4.094-1.562-5.656 0s-1.562 4.094 0 5.656l3.535 3.535-3.535 3.535c-1.563 1.562-1.563 4.094 0 5.656z"/><path d="m98.883 93.72c1.223 2.188 3.898 3.545 6.986 3.545h.131v8c0 2.209 1.791 4 4 4s4-1.791 4-4v-8h.033c3.082 0 5.758-1.355 6.982-3.537l4.281-7.625c.951-1.697.934-3.709-.047-5.385-1.248-2.131-3.906-3.453-6.937-3.453h-16.725c-3.031 0-5.689 1.322-6.936 3.453-.98 1.676-.998 3.688-.047 5.385zm17.709-8.455-2.232 3.975c-.09.014-.199.025-.326.025h-8.164c-.127 0-.236-.01-.326-.025l-2.232-3.975z"/><path d="m134 77.267c.418 0 .846-.066 1.266-.207l12-4c2.096-.699 3.229-2.965 2.529-5.061-.697-2.094-2.961-3.232-5.061-2.529l-12 4c-2.096.699-3.229 2.965-2.529 5.061.559 1.675 2.119 2.736 3.795 2.736z"/><path d="m86 77.267c1.676 0 3.236-1.061 3.795-2.736.699-2.096-.434-4.361-2.529-5.061l-12-4c-2.104-.703-4.363.436-5.061 2.529-.699 2.096.434 4.361 2.529 5.061l12 4c.42.14.848.207 1.266.207z"/><path d="m266 253.265h-12v-2.953c0-26.24-14.718-49.102-36.329-60.781-10.89-30.67-31.777-56.725-59.309-74.066 7.049-5.286 11.638-13.68 11.638-23.147v-3.053-7.514c13.75-11.906 13.99-34.473 13.994-35.463.006-1.668-1.023-3.164-2.584-3.754-14.971-5.67-29.018-.205-35.496 3.154-1.633-.281-3.262-.424-4.861-.424h-62.106c-1.705 0-3.453.166-5.211.492-6.51-3.402-20.578-8.922-35.625-3.223-1.559.59-2.588 2.084-2.584 3.752.004 1.015.241 24.103 14.473 35.89v3.09 7.053c0 12.837 8.407 23.736 20 27.516v7.896c0 12.168 4.021 24.23 11.322 33.963l12.678 16.906v54.666c-11.939 0-21.753 8.56-23.646 20h-36.354c-2.209 0-4 1.791-4 4s1.791 4 4 4h232c2.209 0 4-1.791 4-4s-1.791-4-4-4zm-208-160.947v-7.053-5.059-10.941c0-2.209-1.791-4-4-4s-4 1.791-4 4v.747c-4.535-7.266-5.91-16.34-6.307-20.887 11.998-3.252 23.055 1.846 27.463 4.334.879.498 1.918.641 2.896.408 1.67-.398 3.316-.602 4.895-.602h62.105c1.502 0 3.055.178 4.613.529.967.213 1.969.072 2.832-.412 5.439-3.041 15.896-7.391 27.33-4.262-.384 4.376-1.699 12.943-5.845 20.062-.047-2.168-1.804-3.917-3.983-3.917-2.209 0-4 1.791-4 4v10.576 9.424 3.053c0 11.551-9.396 20.947-20.947 20.947h-15.787c-1.691 0-3.201 1.064-3.77 2.66-1.135 3.193-4.148 5.34-7.496 5.34h-8c-3.348 0-6.361-2.146-7.496-5.34-.568-1.596-2.078-2.66-3.77-2.66h-15.786c-11.551 0-20.947-9.397-20.947-20.947zm36 148.947h4c2.209 0 4-1.791 4-4v-60c0-.865-.281-1.707-.801-2.4l-13.479-17.973c-6.267-8.358-9.72-18.713-9.72-29.162v-6.513c.317.01.627.048.947.048h13.248c2.822 4.879 8.064 8 13.805 8h8c5.74 0 10.982-3.121 13.805-8h13.248c3.144 0 6.164-.52 9.001-1.451 25.786 15.035 45.846 37.947 57.305 65.256-7.037-2.424-14.555-3.804-22.405-3.804h-22.954c-2.209 0-4 1.791-4 4v5.527l-18.211-9.105c-1.24-.617-2.715-.553-3.893.176s-1.896 2.014-1.896 3.401v5.527l-4-2v-19.527c0-2.209-1.791-4-4-4s-4 1.791-4 4v15.527l-6.211-3.105c-1.238-.617-2.713-.553-3.893.176-1.178.729-1.896 2.016-1.896 3.402v6.953c0 13.3 3.844 25.689 10.386 36.239l-2.067 24.808h-39.792c1.766-6.945 7.987-12 15.473-12zm32.347 12 1.262-15.147c5.465 6.117 11.961 11.28 19.27 15.147zm52.7 0c-33.662 0-61.047-27.385-61.047-61.047v-.48l18.211 9.105c1.24.615 2.711.555 3.893-.176 1.178-.729 1.896-2.016 1.896-3.402v-5.527l18.211 9.105c1.238.615 2.709.555 3.893-.176 1.178-.729 1.896-2.016 1.896-3.402v-8h18.953c33.662 0 61.047 27.385 61.047 61.047v2.953z"/></g></svg>