<svg id="cat28" enable-background="new 0 0 300 300" height="512" viewBox="0 0 300 300" width="512" xmlns="http://www.w3.org/2000/svg"><g><path d="m230.771 251.217c9.708-1.365 17.229-9.641 17.229-19.72v-120h16c6.617 0 12-5.383 12-12s-5.383-12-12-12h-22.016c-9.918 0-17.984 8.068-17.984 17.984v59.412c-6.605-8.166-16.703-13.396-28-13.396-27.202 0-47.695-24.479-53.891-48.272 8.313-5.093 13.891-14.233 13.891-24.675v-7.371c28.457-3.863 37.496-40.129 37.883-41.738.309-1.283-.039-2.637-.922-3.617-.887-.98-2.211-1.471-3.508-1.279-16.215 2.203-35.512 9.148-44.965 12.828-5.02-3.805-11.121-5.875-17.438-5.875h-38.101c-6.016 0-11.883 1.891-16.766 5.363-10.492-4.031-28.352-10.238-43.645-12.316-1.305-.178-2.621.305-3.508 1.283-.887.98-1.23 2.336-.918 3.621.368 1.527 9.025 35.976 35.888 41.286v7.814c0 11.303 6.529 21.089 16 25.852v37.56c0 12.166 4.02 24.229 11.32 33.963l12.68 16.907v54.666c-11.869 0-21.725 8.667-23.639 20h-44.361c-2.211 0-4 1.791-4 4s1.789 4 4 4h232c2.211 0 4-1.791 4-4s-1.789-4-4-4h-43.58c4.92-4.224 8.572-9.861 10.351-16.28zm-162.771-172.667v-11.274c0-2.066-1.574-3.793-3.629-3.982-17.66-1.637-26.867-20.004-30.539-29.746 14.004 2.781 29.121 8.271 37.551 11.582 1.363.543 2.922.283 4.047-.67 3.781-3.199 8.582-4.963 13.52-4.963h38.102c5.176 0 10.156 1.928 14.027 5.428 1.137 1.025 2.754 1.312 4.168.748 7.047-2.814 23.668-9.086 38.93-12.127-3.773 10.078-13.445 29.408-32.293 29.953-2.16.062-3.883 1.834-3.883 3.998v11.053c0 11.551-9.398 20.947-20.949 20.947h-3.785c-1.691 0-3.203 1.066-3.77 2.66-1.133 3.193-4.148 5.34-7.496 5.34v-12.15c1.146-.188 2.358-.599 3.277-1.52l2.539-2.537c1.145-1.143 1.586-3.193.969-4.689-.816-1.973-2.953-3.104-5.867-3.104h-9.934c-2.914 0-5.051 1.131-5.867 3.104-.613 1.494-.18 3.541.965 4.684l2.543 2.543c.946.947 2.201 1.36 3.375 1.539v12.131c-3.348 0-6.363-2.146-7.496-5.34-.566-1.594-2.078-2.66-3.77-2.66h-3.785c-11.552-.001-20.95-9.397-20.95-20.948zm48.508 188.947c1.777-6.893 8.051-12 15.492-12h8 4 16c2.211 0 4-1.791 4-4s-1.789-4-4-4h-12v-24c0-17.943 14.52-32 33.059-32h14.941c2.211 0 4-1.791 4-4s-1.789-4-4-4h-14.941c-20.841 0-37.545 14.415-40.534 33.78-3.948-6.398-4.495-13.463-4.524-13.923v-15.857c0-2.209-1.789-4-4-4s-4 1.791-4 4v14.789l-7.328 10.992c-.438.656-.672 1.43-.672 2.219v35.247c-6.058 3.517-10.43 9.596-11.639 16.753h-23.854c1.777-6.893 8.051-12 15.492-12h4c2.211 0 4-1.791 4-4v-60c0-.865-.281-1.707-.801-2.4l-13.48-17.973c-6.266-8.357-9.719-18.715-9.719-29.162v-34.92c1.612.279 3.259.455 4.949.455h1.246c2.82 4.879 8.062 8 13.805 8h8c5.742 0 10.984-3.121 13.805-8h1.246c2.648 0 5.203-.388 7.642-1.057 7.364 26.359 30.533 53.057 61.308 53.057 15.438 0 28 12.561 28 28v4c0 2.209 1.789 4 4 4s4-1.791 4-4v-4-8-74.016c0-5.506 4.48-9.984 9.984-9.984h22.015c2.207 0 4 1.795 4 4s-1.793 4-4 4h-20c-2.211 0-4 1.791-4 4v124c0 5.215-3.344 9.664-8 11.314v-27.314c0-2.209-1.789-4-4-4s-4 1.791-4 4v26.904c0 13.838-11.258 25.096-25.098 25.096zm13.547-53.871c1.65 4.91 4.642 10.703 9.945 15.175v18.696h-8c-1.365 0-2.696.141-4 .361v-31.15z"/><path d="m184.691 91.806c-1.562-1.562-4.094-1.562-5.656 0l-3.535 3.535-3.535-3.535c-1.562-1.562-4.094-1.562-5.656 0s-1.562 4.094 0 5.656l3.535 3.535-3.535 3.535c-1.562 1.562-1.562 4.094 0 5.656.781.781 1.805 1.172 2.828 1.172s2.047-.391 2.828-1.172l3.535-3.535 3.535 3.535c.781.781 1.805 1.172 2.828 1.172s2.047-.391 2.828-1.172c1.562-1.562 1.562-4.094 0-5.656l-3.535-3.535 3.535-3.535c1.563-1.563 1.563-4.094 0-5.656z"/><circle cx="214" cy="49.497" r="4.53"/><path d="m72 197.497c0-7.719-6.281-14-14-14s-14 6.281-14 14 6.281 14 14 14 14-6.281 14-14zm-20 0c0-3.309 2.691-6 6-6s6 2.691 6 6-2.691 6-6 6-6-2.691-6-6z"/><path d="m124.004 83.497c.602 0 1.211-.135 1.785-.422l8-4c1.977-.988 2.777-3.391 1.789-5.367-.988-1.979-3.391-2.781-5.367-1.789l-8 4c-1.977.988-2.777 3.391-1.789 5.367.703 1.402 2.113 2.211 3.582 2.211z"/><path d="m91.996 83.497c1.469 0 2.879-.809 3.582-2.211.988-1.977.188-4.379-1.789-5.367l-8-4c-1.973-.992-4.375-.189-5.367 1.789-.988 1.977-.188 4.379 1.789 5.367l8 4c.574.287 1.183.422 1.785.422z"/></g></svg>