<svg id="cat29" enable-background="new 0 0 300 300" height="512" viewBox="0 0 300 300" width="512" xmlns="http://www.w3.org/2000/svg"><g><path d="m145.646 98.332v-25.715c0-2.209-1.789-4-4-4s-4 1.791-4 4v25.715c0 13.477-10.961 24.439-24.437 24.439h-31.126c-13.477 0-24.438-10.963-24.438-24.439v-25.715c0-2.209-1.789-4-4-4s-4 1.791-4 4v25.715c0 17.887 14.551 32.439 32.438 32.439h31.125c17.887.001 32.438-14.552 32.438-32.439z"/><path d="m203.954 109.463c.781.781 1.805 1.172 2.828 1.172s2.047-.391 2.828-1.172l3.535-3.535 3.535 3.535c.781.781 1.805 1.172 2.828 1.172s2.047-.391 2.828-1.172c1.562-1.562 1.562-4.094 0-5.656l-3.535-3.535 3.535-3.535c1.562-1.562 1.562-4.094 0-5.656s-4.094-1.562-5.656 0l-3.535 3.535-3.535-3.535c-1.562-1.562-4.094-1.562-5.656 0s-1.562 4.094 0 5.656l3.535 3.535-3.535 3.535c-1.562 1.562-1.562 4.094 0 5.656z"/><path d="m113.646 90.774c.418 0 .844-.066 1.266-.207l12-4c2.094-.699 3.227-2.965 2.527-5.061-.699-2.094-2.945-3.23-5.059-2.529l-12 4c-2.094.699-3.227 2.965-2.527 5.061.558 1.675 2.117 2.736 3.793 2.736z"/><path d="m68.38 86.567 12 4c.422.141.848.207 1.266.207 1.676 0 3.234-1.061 3.793-2.736.699-2.096-.434-4.361-2.527-5.061l-12-4c-2.113-.701-4.359.436-5.059 2.529-.7 2.096.433 4.361 2.527 5.061z"/><path d="m269.646 262.772h-9.672c5.931-5.484 9.672-13.303 9.672-22 0-2.197-.246-4.389-.734-6.547 5.453-4.129 8.734-10.566 8.734-17.453 0-12.131-9.871-22-22-22-10.145 0-18.77 6.908-21.219 16.516-4.756.929-9.183 3.193-12.949 6.368-1.68-41.128-24.653-77.746-61.067-97.188 3.346-6.58 5.235-13.968 5.235-21.695v-22.263c0-2.542-.384-4.994-1.074-7.315 11.684-13.563 9.179-35.494 9.059-36.458-.164-1.324-.977-2.48-2.168-3.082-1.191-.598-2.605-.566-3.77.092l-37.16 21.025h-.121c-4.258-7.367-12.145-12-20.766-12h-28c-7.801 0-14.972 3.818-19.426 9.999l-33.621-19.025c-1.16-.658-2.578-.689-3.77-.092-1.191.6-2.004 1.756-2.168 3.082-.117.925-2.528 21.982 8.338 35.599-.865 2.572-1.354 5.315-1.354 8.174v22.262c0 20.504 13.203 38.777 32.434 45.371 1.203 9.822 4.938 19.125 10.887 27.057l12.68 16.906v54.666c-11.937 0-21.75 8.561-23.643 20h-24.357c-2.211 0-4 1.791-4 4s1.789 4 4 4h232c2.211 0 4-1.791 4-4s-1.79-3.999-4-3.999zm-109.102-201.577c-3.605-4.845-8.857-8.383-14.935-9.765l20.313-11.492c-.096 5.791-1.109 14.486-5.378 21.257zm-130.176-21.257 20.023 11.329c-6.069 1.198-11.369 4.539-15.097 9.196-3.889-6.66-4.833-14.943-4.926-20.525zm55.278 210.834h4c2.211 0 4-1.791 4-4v-60c0-.865-.281-1.707-.801-2.4l-13.48-17.973c-5.578-7.436-8.887-16.283-9.574-25.582-.125-1.682-1.289-3.104-2.914-3.559-17.211-4.805-29.23-20.631-29.23-38.486v-22.262c0-9.781 7.957-17.738 17.738-17.738h7.949c1.59 0 3.027-.939 3.664-2.396 2.555-5.834 8.305-9.604 14.648-9.604h28c6.344 0 12.094 3.77 14.648 9.604.637 1.457 2.074 2.396 3.664 2.396h11.949c9.781 0 17.738 7.957 17.738 17.738v22.262c0 17.975-12.09 33.842-29.406 38.584-2.129.584-3.383 2.783-2.801 4.914.586 2.135 2.793 3.385 4.918 2.801 10.633-2.913 19.606-9.335 25.853-17.789 35.479 18.742 57.437 54.936 57.437 95.203v4.977c-1.872 3.489-3.225 7.293-3.742 11.311h-20.258c-2.211 0-4 1.791-4 4s1.789 4 4 4h24c2.211 0 4-1.791 4-4 0-11.99 9.562-23.166 20.465-23.918 1.938-.133 3.496-1.637 3.703-3.564.762-7.137 6.711-12.518 13.832-12.518 7.719 0 14 6.281 14 14 0 5.047-2.797 9.723-7.305 12.203-1.695.934-2.48 2.947-1.859 4.781.773 2.295 1.164 4.654 1.164 7.016 0 12.131-9.871 22-22 22h-133.474c1.767-6.945 7.987-12 15.473-12h12c2.211 0 4-1.791 4-4v-8c0-17.943 14.52-32 33.059-32 2.211 0 4-1.791 4-4s-1.789-4-4-4c-18.566 0-33.873 11.434-39.11 27.62-3.321-3.75-5.246-7.177-5.949-8.553v-27.068c0-2.209-1.789-4-4-4s-4 1.791-4 4v26.344l-6.828 6.828c-.75.75-1.172 1.768-1.172 2.828v19.201c-6.078 3.491-10.445 9.561-11.643 16.799h-27.83c1.768-6.945 7.989-12 15.474-12zm35.101-25.446c1.913 2.964 4.92 6.85 9.045 10.526-.068.967-.146 1.932-.146 2.919v4h-8c-1.366 0-2.697.136-4 .352v-14.696z"/><path d="m87.856 111.194c-1.977.988-2.777 3.391-1.789 5.367.992 1.977 3.391 2.777 5.367 1.789l6.211-3.105 6.211 3.105c.574.287 1.184.422 1.785.422 1.469 0 2.879-.809 3.582-2.211.988-1.977.188-4.379-1.789-5.367l-5.789-2.895v-5.677c1.146-.188 2.358-.599 3.277-1.52l2.539-2.537c1.145-1.143 1.586-3.193.969-4.689-.816-1.973-2.953-3.104-5.867-3.104h-9.933c-2.914 0-5.051 1.131-5.867 3.104-.613 1.494-.18 3.541.965 4.684l2.543 2.543c.945.947 2.201 1.36 3.375 1.539v5.658z"/><path d="m227.646 77.301c2.502 0 4.529-2.028 4.529-4.53s-2.027-4.529-4.529-4.529c-2.501 0-4.529 2.028-4.529 4.529s2.027 4.53 4.529 4.53z"/><path d="m69.646 196.772c0-7.719-6.281-14-14-14s-14 6.281-14 14 6.281 14 14 14 14-6.282 14-14zm-20 0c0-3.309 2.691-6 6-6s6 2.691 6 6-2.691 6-6 6-6-2.692-6-6z"/></g></svg>