<svg id="cat3" enable-background="new 0 0 300 300" height="512" viewBox="0 0 300 300" width="512" xmlns="http://www.w3.org/2000/svg"><g><path d="m196.309 112.694c.781.781 1.805 1.172 2.828 1.172s2.047-.391 2.828-1.172l3.535-3.535 3.535 3.535c.781.781 1.805 1.172 2.828 1.172s2.047-.391 2.828-1.172c1.562-1.562 1.562-4.094 0-5.656l-3.535-3.535 3.535-3.535c1.562-1.562 1.562-4.094 0-5.656s-4.094-1.562-5.656 0l-3.535 3.535-3.535-3.535c-1.562-1.562-4.094-1.562-5.656 0s-1.562 4.094 0 5.656l3.535 3.535-3.535 3.535c-1.563 1.562-1.563 4.093 0 5.656z"/><path d="m118 106.004c.418 0 .846-.066 1.266-.207l12-4c2.096-.699 3.229-2.965 2.529-5.061-.699-2.092-2.959-3.234-5.061-2.529l-12 4c-2.096.699-3.229 2.965-2.529 5.061.559 1.676 2.119 2.736 3.795 2.736z"/><path d="m84.734 105.797c.42.141.848.207 1.266.207 1.676 0 3.236-1.061 3.795-2.736.699-2.096-.434-4.361-2.529-5.061l-12-4c-2.105-.705-4.363.438-5.061 2.529-.699 2.096.434 4.361 2.529 5.061z"/><path d="m236 56.532c2.501 0 4.53-2.028 4.53-4.529 0-2.502-2.028-4.53-4.53-4.53s-4.53 2.028-4.53 4.53c0 2.501 2.029 4.529 4.53 4.529z"/><path d="m74 192.002c0-7.719-6.281-14-14-14s-14 6.281-14 14 6.281 14 14 14 14-6.281 14-14zm-20 0c0-3.309 2.691-6 6-6s6 2.691 6 6-2.691 6-6 6-6-2.691-6-6z"/><path d="m266 262.002h-14.162c3.817-4.251 6.162-9.85 6.162-16v-56c0-13.234-10.766-24-24-24v-16c0-6.617-5.383-12-12-12s-12 5.383-12 12v16c0 13.234 10.766 24 24 24v56h-8.07c-.007-.039-.004-.079-.012-.117l-4.646-22.463c-8.825-42.672-37.051-78.72-76.019-97.673 5.394-5.27 8.748-12.601 8.748-20.694v-14.299c22.055-21.037 3.16-57.086 2.328-58.641-.854-1.598-2.676-2.434-4.436-2.008-17.859 4.166-26.883 21.186-29.801 27.895h-38.772c-2.918-6.709-11.941-23.729-29.801-27.895-1.764-.426-3.582.41-4.436 2.008-.794 1.485-18.884 35.971.917 57.219v15.721c0 14.699 10.932 26.878 25.266 28.694.691 1.524 1.627 2.914 2.79 4.089.29 11.7 4.24 23.226 11.266 32.593l12.678 16.905v54.666c-11.869 0-21.725 8.667-23.639 20h-44.361c-2.209 0-4 1.791-4 4s1.791 4 4 4h232c2.209 0 4-1.791 4-4s-1.791-4-4-4zm-24-16v-56c0-4.412-3.588-8-8-8-8.822 0-16-7.178-16-16v-16c0-2.205 1.795-4 4-4s4 1.795 4 4v16c0 4.412 3.588 8 8 8 8.822 0 16 7.178 16 16v56c0 8.822-7.178 16-16 16h-13.774c2.022-2.313 3.597-5.02 4.584-8h9.19c4.412 0 8-3.587 8-8zm-184-140.947v-17.351c0-1.08-.438-2.115-1.213-2.869-14.287-13.883-5.668-37.745-2.027-46.022 15.369 5.641 22 24.293 22.07 24.494.559 1.609 2.078 2.695 3.781 2.695h44.189c1.703 0 3.223-1.086 3.781-2.695.07-.201 6.703-18.857 22.076-24.496 3.744 8.484 12.744 33.377-3.266 47.139-.885.76-1.393 1.867-1.393 3.033v16.072c0 9.906-6.911 18.238-16.26 20.376-1.214-6.492-6.902-11.428-13.74-11.428h-9.084-9.93-8.984c-6.842 0-12.531 4.942-13.741 11.438-9.357-2.133-16.259-10.454-16.259-20.386zm30 28.947c-3.309 0-6-2.691-6-6s2.691-6 6-6h4.295l2.33 2.33c.945.947 2.201 1.36 3.375 1.539v8.131zm18-8.15c1.146-.188 2.359-.599 3.279-1.52l2.326-2.33h4.395c3.309 0 6 2.691 6 6s-2.691 6-6 6h-10zm26.04 82.302c2.714 7.894 8.451 16.648 19.13 20.333-.738 3.046-1.17 6.219-1.17 9.516v4h-8c-5.511 0-10.578 1.886-14.634 5.02l2.548-35.68zm-5.534 53.848c1.781-6.893 8.053-12 15.494-12h12c2.209 0 4-1.791 4-4v-8c0-17.943 14.52-32 33.057-32 2.209 0 4-1.791 4-4s-1.791-4-4-4c-16.708 0-30.749 9.278-37.216 22.928-14.428-4.917-15.765-21.817-15.841-23.056v-15.872c0-2.209-1.791-4-4-4s-4 1.791-4 4v14.789l-7.328 10.992c-.385.576-.613 1.242-.662 1.934l-3.734 52.285h-31.77c1.781-6.893 8.053-12 15.494-12h4c2.209 0 4-1.791 4-4v-60c0-.865-.281-1.707-.801-2.4l-13.479-17.973c-5.19-6.92-8.413-15.216-9.381-23.795.551.066 1.092.168 1.66.168h28c5.669 0 10.538-3.403 12.737-8.26 3.198-.407 6.228-1.319 9.005-2.676 38.82 17.295 67.073 52.288 75.694 93.978l4.561 22.039c-.207 8.262-6.992 14.92-15.303 14.92h-76.187z"/><path d="m71.678 69.786c2.09-.717 3.203-2.992 2.486-5.08-.168-.494-4.27-12.123-14.875-14.598-1.766-.426-3.582.41-4.434 2.006-.416.773-10.02 19.088 2.783 29.047.729.566 1.594.842 2.453.842 1.191 0 2.371-.531 3.16-1.545 1.355-1.742 1.041-4.256-.703-5.613-5.123-3.984-3.559-11.348-2.043-15.629 4.119 2.689 6.043 7.949 6.096 8.098.721 2.079 2.991 3.19 5.077 2.472z"/><path d="m133.734 69.786c2.092.719 4.365-.398 5.08-2.486.023-.064 1.953-5.375 6.094-8.082 1.514 4.285 3.074 11.645-2.045 15.627-1.744 1.357-2.059 3.871-.703 5.613.789 1.014 1.969 1.545 3.16 1.545.859 0 1.725-.275 2.453-.842 12.803-9.959 3.199-28.273 2.783-29.047-.854-1.596-2.672-2.432-4.434-2.006-10.605 2.475-14.707 14.104-14.875 14.598-.716 2.087.398 4.363 2.487 5.08z"/></g></svg>