<svg id="cat30" enable-background="new 0 0 300 300" height="512" viewBox="0 0 300 300" width="512" xmlns="http://www.w3.org/2000/svg"><g><path d="m168.309 106.691c.781.781 1.805 1.172 2.828 1.172s2.047-.391 2.828-1.172l3.535-3.535 3.535 3.535c.781.781 1.805 1.172 2.828 1.172s2.047-.391 2.828-1.172c1.562-1.562 1.562-4.094 0-5.656l-3.535-3.535 3.535-3.535c1.562-1.562 1.562-4.094 0-5.656s-4.094-1.562-5.656 0l-3.535 3.535-3.535-3.535c-1.562-1.562-4.094-1.562-5.656 0s-1.562 4.094 0 5.656l3.535 3.535-3.535 3.535c-1.563 1.562-1.563 4.093 0 5.656z"/><path d="m90.738 115.999c-2.211 0-4 1.791-4 4s1.789 4 4 4c4.348 0 8.208-1.97 10.861-5.018 2.654 3.048 6.515 5.018 10.865 5.018 2.211 0 4-1.791 4-4s-1.789-4-4-4c-3.566 0-6.465-2.898-6.465-6.463v-1.687c1.146-.188 2.358-.599 3.277-1.52l2.539-2.537c1.145-1.143 1.586-3.193.969-4.689-.816-1.973-2.953-3.104-5.867-3.104h-9.934c-2.914 0-5.051 1.131-5.867 3.104-.613 1.494-.18 3.541.965 4.684l2.543 2.543c.732.733 1.651 1.146 2.574 1.384v1.823c.001 3.564-2.897 6.462-6.46 6.462z"/><path d="m118 96.001c.418 0 .844-.066 1.266-.207l12-4c2.094-.699 3.227-2.965 2.527-5.061-.699-2.094-2.941-3.236-5.059-2.529l-12 4c-2.094.699-3.227 2.965-2.527 5.061.559 1.676 2.117 2.736 3.793 2.736z"/><path d="m86 96.001c1.676 0 3.234-1.061 3.793-2.736.699-2.096-.434-4.361-2.527-5.061l-12-4c-2.109-.707-4.363.436-5.059 2.529-.699 2.096.434 4.361 2.527 5.061l12 4c.422.141.848.207 1.266.207z"/><path d="m216 50.529c2.501 0 4.529-2.028 4.529-4.53s-2.028-4.53-4.529-4.53c-2.502 0-4.53 2.028-4.53 4.53s2.028 4.53 4.53 4.53z"/><path d="m52 199.999c7.719 0 14-6.281 14-14s-6.281-14-14-14-14 6.281-14 14 6.281 14 14 14zm0-20c3.309 0 6 2.691 6 6s-2.691 6-6 6-6-2.691-6-6 2.691-6 6-6z"/><path d="m266 255.999h-45.775c3.584-4.1 5.775-9.447 5.775-15.307 0-4.267-.255-8.492-.624-12.693h2.624c16.543 0 30-13.457 30-30v-76c0-15.869-12.387-28.9-28-29.934v-16.066c0-8.822-7.176-16-16-16s-16 7.178-16 16v18c0 15.869 12.387 28.9 28 29.934v72.066h-7.142c-10.984-33.811-34.21-62.89-65.991-81.014.722-2.525 1.133-5.18 1.133-7.933v-18.106c0-2.304-.299-4.534-.811-6.684 11.929-18.672-3.134-43.319-3.799-44.382-.875-1.41-2.523-2.125-4.176-1.803-17.665 3.534-26.729 18.008-29.755 23.922h-27.106c-3.025-5.914-12.09-20.388-29.755-23.922-1.633-.322-3.297.393-4.176 1.803-.669 1.071-15.842 25.896-3.665 44.59-.48 2.086-.757 4.247-.757 6.476v18.105c0 12.91 8.501 23.867 20.195 27.586.792 10.815 4.591 21.075 11.125 29.789l12.68 16.907v54.666c-11.869 0-21.726 8.667-23.639 20h-36.361c-2.211 0-4 1.791-4 4s1.789 4 4 4h232c2.211 0 4-1.791 4-4s-1.789-4-4-4zm-18-60c-1.102 0-2-.896-2-2s.898-2 2-2h2v4zm-14-60h2c1.102 0 2 .896 2 2s-.898 2-2 2h-2zm0 24.722 16 2.667v4.612h-16zm-28-66.722v-18c0-4.412 3.59-8 8-8s8 3.588 8 8v18c0 3.309 2.691 6 6 6 12.129 0 22 9.869 22 22v33.279l-16-2.667v-4.612h2c5.516 0 10-4.486 10-10s-4.484-10-10-10h-2v-6c0-3.309-2.691-6-6-6-12.129 0-22-9.869-22-22zm22 110c3.309 0 6-2.691 6-6v-22h16v8h-2c-5.516 0-10 4.486-10 10s4.484 10 10 10h1.147c-2.621 9.22-11.1 16-21.147 16h-3.515c-.781-5.419-1.887-10.754-3.262-16zm-43.093-52.391c-1.257 1.189-2.682 2.178-4.236 2.905-3.658-3.977-8.855-6.514-14.671-6.514-1.998 0-3.741.335-5.261.944-1.777-2.621-2.739-5.706-2.739-8.944 0-3.623 1.309-7.094 3.603-9.92 8.663 6.292 16.442 13.546 23.304 21.529zm-22.919 14.245c-.027-3.729-.062-7.955 1.125-9.15.578-.582 1.887-.703 2.887-.703 6.617 0 12 5.383 12 12s-5.383 12-12 12c-1 0-2.309-.121-2.887-.703-1.188-1.195-1.152-5.422-1.125-9.15l.012-2.146zm-80.664-62.108c-4.775-7.715-14.721-9.638-23.324-10.892v-3.906c0-11.551 9.398-20.947 20.949-20.947h46.102c11.551 0 20.949 9.396 20.949 20.947v18.105c0 11.551-9.398 20.947-20.949 20.947h-7.785c-1.691 0-3.203 1.066-3.77 2.66-1.133 3.193-4.148 5.34-7.496 5.34h-8c-3.348 0-6.363-2.146-7.496-5.34-.566-1.594-2.078-2.66-3.77-2.66h-5.343c.067-1.013.149-1.973.401-2.734 3.028-9.082 2.876-16.121-.468-21.52zm62.664-59.123c2.646 5.155 7.886 17.341 4.905 27.943-5.226-7.581-13.96-12.566-23.843-12.566h-.348c3.321-5.132 9.538-12.433 19.286-15.377zm-84.164.002c9.686 2.937 15.916 10.24 19.258 15.375h-.133c-9.962 0-18.765 5.06-23.975 12.743-3.09-10.643 2.191-22.934 4.85-28.118zm-1.824 62.428v-6.114c6.833 1.039 13.768 2.565 16.523 7.018 1.988 3.209 1.879 8.182-.32 14.779-.523 1.575-.666 3.059-.765 4.435-8.868-2.437-15.438-10.487-15.438-20.118zm30.693 53.873c3-1.043 6.281-1.166 9.348-.38.103 3.394 1.097 6.105 3.026 8.019 2.176 2.161 5.069 2.972 8.318 3.275.365 1.353.615 2.733.615 4.16 0 5.812-3.18 11.021-8 13.824v-9.824c0-.865-.281-1.707-.801-2.4zm27.162 3.086c-3.746.02-7.957.061-9.152-1.125-.582-.576-.703-1.889-.703-2.887 0-6.654 1.348-8 8-8 6.43 0 16 2.131 16 8 0 .998-.121 2.311-.703 2.887-1.195 1.188-5.434 1.146-9.152 1.125l-2.145-.012zm62.145 67.988c0-5.734 4.664-10.4 10.398-10.4 2.496 0 5.602 0 5.602 10.4 0 5.609-.962 8.034-1.959 9.153-3.134-3.188-7.493-4.901-13.1-5.077-.558-1.292-.941-2.652-.941-4.076zm0 12c6.408 0 10.902 2.174 11.818 12h-34.953c3.185-7.431 14.766-12 23.135-12zm19.775 12c-.247-2.982-.783-5.622-1.593-7.938 5.749-4.12 5.818-12.531 5.818-16.062 0-12.209-4.578-18.4-13.602-18.4-10.145 0-18.398 8.254-18.398 18.4 0 1.635.234 3.247.655 4.805-10.532 2.176-21.803 8.794-24.162 19.195h-35.965c1.765-6.946 7.979-12 15.471-12h12c2.211 0 4-1.791 4-4v-8c0-17.943 14.52-32 33.059-32 2.211 0 4-1.791 4-4s-1.789-4-4-4c-13.058 0-24.501 5.66-31.97 14.645-4.447-6.591-5.056-14.284-5.089-14.789v-15.855c0-2.209-1.789-4-4-4s-4 1.791-4 4v14.789l-7.328 10.992c-.383.576-.613 1.242-.66 1.934l-2.367 33.146c-8.941 2.417-15.746 9.81-17.292 19.139h-23.844c1.777-6.893 8.051-12 15.492-12h4c2.211 0 4-1.791 4-4v-41.433c9.425-3.349 16-12.332 16-22.567 0-1.354-.14-2.684-.36-3.998l.36-.002 2.082.012c.648.004 1.297.01 1.934.01 5.074 0 9.754-.318 12.918-3.457 2.035-2.02 3.066-4.9 3.066-8.564 0-11.053-12.055-16-24-16-8.181 0-12.99 2.717-14.952 8.593-4.959-1.042-10.199-.499-14.855 1.57-3.146-5.616-5.152-11.769-5.879-18.195.213.005.421.032.636.032h5.246c2.82 4.879 8.062 8 13.805 8h8c5.742 0 10.984-3.121 13.805-8h5.246c10.348 0 19.421-5.476 24.54-13.665 1.805 1.043 3.619 2.074 5.364 3.191-3.187 4.148-4.955 9.215-4.955 14.474 0 5.444 1.816 10.601 5.135 14.812-1.178 3.19-1.177 7.061-1.146 11.104l.012 2.084-.012 2.084c-.043 5.805-.086 11.287 3.445 14.848 2.02 2.037 4.902 3.068 8.566 3.068 11.027 0 20-8.973 20-20 0-2.335-.479-4.545-1.218-6.63 1.868-.954 3.588-2.167 5.154-3.574 17.874 23.428 28.063 52.39 28.063 82.896 0 8.439-6.867 15.307-15.309 15.307h-4.916zm-65.716-53.875c1.232 3.668 3.269 7.811 6.392 11.551-2.833 5.466-4.451 11.672-4.451 18.324v4h-6.276l2.19-30.66z"/></g></svg>