<svg id="cat4" enable-background="new 0 0 300 300" height="512" viewBox="0 0 300 300" width="512" xmlns="http://www.w3.org/2000/svg"><g><path d="m216 48.928c2.502 0 4.53-2.028 4.53-4.529 0-2.502-2.028-4.53-4.53-4.53-2.501 0-4.53 2.028-4.53 4.53 0 2.501 2.029 4.529 4.53 4.529z"/><path d="m116.53 148.398c0-2.502-2.028-4.53-4.53-4.53-2.501 0-4.53 2.028-4.53 4.53 0 2.501 2.028 4.529 4.53 4.529 2.502.001 4.53-2.027 4.53-4.529z"/><path d="m116 183.869c-2.501 0-4.53 2.028-4.53 4.53 0 2.501 2.028 4.529 4.53 4.529s4.53-2.028 4.53-4.529c0-2.502-2.028-4.53-4.53-4.53z"/><path d="m160 175.869c-2.501 0-4.53 2.028-4.53 4.53 0 2.501 2.028 4.529 4.53 4.529s4.53-2.028 4.53-4.529c0-2.502-2.028-4.53-4.53-4.53z"/><path d="m204.53 232.398c0-2.502-2.028-4.53-4.53-4.53-2.501 0-4.53 2.028-4.53 4.53 0 2.501 2.028 4.529 4.53 4.529 2.502.001 4.53-2.027 4.53-4.529z"/><path d="m66 184.398c0-7.719-6.281-14-14-14s-14 6.281-14 14 6.281 14 14 14 14-6.281 14-14zm-20 0c0-3.309 2.691-6 6-6s6 2.691 6 6-2.691 6-6 6-6-2.691-6-6z"/><path d="m142 130.398c-6.617 0-12 5.383-12 12s5.383 12 12 12 12-5.383 12-12-5.383-12-12-12zm0 16c-2.205 0-4-1.795-4-4s1.795-4 4-4 4 1.795 4 4-1.795 4-4 4z"/><path d="m178 206.398c-6.617 0-12 5.383-12 12s5.383 12 12 12 12-5.383 12-12-5.383-12-12-12zm0 16c-2.205 0-4-1.795-4-4s1.795-4 4-4 4 1.795 4 4-1.795 4-4 4z"/><path d="m200.309 105.09c.781.781 1.805 1.172 2.828 1.172s2.047-.391 2.828-1.172l3.535-3.535 3.535 3.535c.781.781 1.805 1.172 2.828 1.172s2.047-.391 2.828-1.172c1.562-1.562 1.562-4.094 0-5.656l-3.535-3.535 3.535-3.535c1.562-1.562 1.562-4.094 0-5.656s-4.094-1.562-5.656 0l-3.535 3.535-3.535-3.535c-1.562-1.562-4.094-1.562-5.656 0s-1.562 4.094 0 5.656l3.535 3.535-3.535 3.535c-1.563 1.562-1.563 4.093 0 5.656z"/><path d="m102.625 88.729c.945.947 2.201 1.36 3.375 1.539v12.131c0 2.209 1.791 4 4 4s4-1.791 4-4v-12.15c1.146-.188 2.359-.599 3.279-1.52l2.533-2.537c1.148-1.143 1.588-3.193.969-4.689-.814-1.973-2.953-3.104-5.865-3.104h-9.93c-2.914 0-5.053 1.131-5.867 3.104-.617 1.494-.18 3.541.963 4.684z"/><path d="m134 78.4c.418 0 .846-.066 1.266-.207l12-4c2.096-.699 3.229-2.965 2.529-5.061-.697-2.094-2.961-3.232-5.061-2.529l-12 4c-2.096.699-3.229 2.965-2.529 5.061.559 1.676 2.119 2.736 3.795 2.736z"/><path d="m86 78.4c1.676 0 3.236-1.061 3.795-2.736.699-2.096-.434-4.361-2.529-5.061l-12-4c-2.104-.703-4.363.436-5.061 2.529-.699 2.096.434 4.361 2.529 5.061l12 4c.42.141.848.207 1.266.207z"/><path d="m266 254.398h-13.043c3.148-3.806 5.043-8.686 5.043-14 0-12.131-9.869-22-22-22h-11.535c-6.053-41.669-30.15-79.055-66.166-101.753 7.084-5.282 11.701-13.698 11.701-23.194v-14.517c13.776-11.912 13.994-34.54 13.994-35.524.002-1.664-1.027-3.154-2.584-3.742-15.639-5.918-30.074 2.299-36.559 7.009-1.246-.165-2.508-.279-3.799-.279h-62.105c-1.429 0-2.824.139-4.198.34-6.401-4.669-20.914-13.03-36.638-7.07-1.557.588-2.584 2.078-2.584 3.742 0 1.01.224 24.134 14.473 35.927v14.114c0 12.837 8.407 23.736 20 27.516v7.896c0 12.168 4.021 24.23 11.322 33.963l12.678 16.906v54.666c-11.869 0-21.725 8.667-23.639 20h-36.361c-2.209 0-4 1.791-4 4s1.791 4 4 4h232c2.209 0 4-1.791 4-4s-1.791-4-4-4zm-30-28c7.719 0 14 6.281 14 14s-6.281 14-14 14h-15.774c3.584-4.1 5.774-9.447 5.774-15.307 0-4.264-.258-8.49-.63-12.693zm-51.865-77.295c3.429 3.927 6.606 8.051 9.558 12.327-1.129.612-2.374.968-3.692.968-4.412 0-8-3.588-8-8-.001-2.013.812-3.855 2.134-5.295zm-8.301-102.806c-.405 4.737-1.869 14.318-6.815 21.703-2.057-7.818-7.278-14.365-14.24-18.131 5.453-2.934 13.055-5.531 21.055-3.572zm-132.146 0c8.122-1.984 15.844.722 21.306 3.703-6.993 3.866-12.2 10.545-14.14 18.496-5.226-7.446-6.753-17.354-7.166-22.199zm14.312 47.154v-18.105c0-11.551 9.396-20.947 20.947-20.947h62.105c11.551 0 20.947 9.396 20.947 20.947v18.105c0 11.551-9.396 20.947-20.947 20.947h-15.787c-1.691 0-3.201 1.064-3.77 2.66-1.135 3.193-4.148 5.34-7.496 5.34h-8c-3.348 0-6.361-2.146-7.496-5.34-.568-1.596-2.078-2.66-3.77-2.66h-15.786c-11.551 0-20.947-9.396-20.947-20.947zm26.198 59.077c-2.962-5.329-4.911-11.193-5.728-17.236 4.403 1.781 7.53 6.083 7.53 11.106 0 2.21-.674 4.291-1.802 6.13zm47.842 48.022c2.714 7.893 8.445 16.66 19.128 20.343-.736 3.043-1.167 6.213-1.167 9.505v4h-8c-5.483 0-10.566 1.905-14.637 5.068l2.552-35.729zm-5.487 53.848c1.803-6.865 8.079-12 15.447-12h12c2.209 0 4-1.791 4-4v-8c0-17.943 14.52-32 33.057-32 2.209 0 4-1.791 4-4s-1.791-4-4-4c-16.706 0-30.746 9.276-37.214 22.924-14.403-4.906-15.762-21.761-15.843-23.047v-15.876c0-2.209-1.791-4-4-4s-4 1.791-4 4v14.789l-7.328 10.992c-.385.576-.613 1.242-.662 1.934l-3.735 52.285h-39.769c1.781-6.893 8.053-12 15.494-12h4c2.209 0 4-1.791 4-4v-8.568c6.881-1.789 12-7.999 12-15.432s-5.119-13.643-12-15.432v-20.568c0-.865-.281-1.707-.801-2.4l-12.287-16.384c3.254-3.629 5.088-8.268 5.088-13.216 0-9.638-6.888-17.719-16-19.582v-4.466c.317.01.627.048.947.048h13.248c2.822 4.879 8.064 8 13.805 8h8c5.74 0 10.982-3.121 13.805-8h13.248c3.136 0 6.149-.517 8.979-1.444 10.616 6.191 20.205 13.699 28.615 22.258-2.925 2.936-4.647 6.899-4.647 11.185 0 8.822 7.178 16 16 16 2.852 0 5.579-.858 8.002-2.291 12.817 21.078 19.998 45.543 19.998 70.985 0 8.439-6.867 15.307-15.307 15.307h-76.14zm-24.553-46.887c2.38 1.387 4 3.939 4 6.887s-1.62 5.5-4 6.887z"/></g></svg>