<svg id="cat5" enable-background="new 0 0 300 300" height="512" viewBox="0 0 300 300" width="512" xmlns="http://www.w3.org/2000/svg"><g><path d="m240 52.532c2.501 0 4.53-2.028 4.53-4.529 0-2.502-2.028-4.53-4.53-4.53s-4.53 2.028-4.53 4.53c0 2.501 2.029 4.529 4.53 4.529z"/><path d="m74 192.002c0-7.719-6.281-14-14-14s-14 6.281-14 14 6.281 14 14 14 14-6.281 14-14zm-20 0c0-3.309 2.691-6 6-6s6 2.691 6 6-2.691 6-6 6-6-2.691-6-6z"/><path d="m180.309 112.694c.781.781 1.805 1.172 2.828 1.172s2.047-.391 2.828-1.172l3.535-3.535 3.535 3.535c.781.781 1.805 1.172 2.828 1.172s2.047-.391 2.828-1.172c1.562-1.562 1.562-4.094 0-5.656l-3.535-3.535 3.535-3.535c1.562-1.562 1.562-4.094 0-5.656s-4.094-1.562-5.656 0l-3.535 3.535-3.535-3.535c-1.562-1.562-4.094-1.562-5.656 0s-1.562 4.094 0 5.656l3.535 3.535-3.535 3.535c-1.563 1.562-1.563 4.093 0 5.656z"/><path d="m118 106.004c.418 0 .846-.066 1.266-.207l12-4c2.096-.699 3.229-2.965 2.529-5.061-.697-2.092-2.957-3.234-5.061-2.529l-12 4c-2.096.699-3.229 2.965-2.529 5.061.559 1.676 2.119 2.736 3.795 2.736z"/><path d="m84.734 105.797c.42.141.848.207 1.266.207 1.676 0 3.236-1.061 3.795-2.736.699-2.096-.434-4.361-2.529-5.061l-12-4c-2.104-.705-4.363.438-5.061 2.529-.699 2.096.434 4.361 2.529 5.061z"/><path d="m266 262.002h-45.775c3.584-4.1 5.775-9.447 5.775-15.307 0-.271-.027-.543-.082-.811l-1.479-7.149c16.856-14.615 28.406-34.633 32.518-56.669 3.234-17.365 1.742-35.352-4.316-52.016-.041-.113-.13-.188-.18-.295 2.521-11.225-.911-23.514-1.094-24.141-.352-1.236-1.281-2.227-2.488-2.662-1.211-.436-2.555-.264-3.617.465l-1.367.938 1.898-10.168c.293-1.576-.383-3.174-1.715-4.062-1.336-.889-3.07-.898-4.406-.02l-17.922 11.725c-2.555 1.934-4.207 4.748-4.644 7.924-.441 3.174.383 6.332 2.316 8.887 12.719 16.809 17.801 38.322 13.938 59.027-2.238 12.012-7.337 23.145-14.802 32.635l-7.581-36.651c-3.449-16.68-15.059-30.139-31.051-36.006l-34.05-12.485c5.036-5.218 8.124-12.312 8.124-20.107v-14.298c22.051-21.037 3.16-57.086 2.328-58.641-.852-1.596-2.652-2.424-4.438-2.008-17.857 4.166-26.881 21.186-29.799 27.895h-38.771c-2.918-6.709-11.941-23.729-29.801-27.895-1.766-.426-3.582.41-4.436 2.008-.794 1.485-18.884 35.971.917 57.219v15.721c0 14.685 10.933 26.872 25.264 28.689.691 1.526 1.629 2.917 2.792 4.093.29 11.7 4.24 23.226 11.266 32.593l12.678 16.906v54.666c-11.869 0-21.725 8.667-23.639 20h-44.361c-2.209 0-4 1.791-4 4s1.791 4 4 4h232c2.211 0 4-1.791 4-4s-1.789-4-4-4zm-24.773-82.869c4.27-22.912-1.352-46.721-15.426-65.32-.645-.852-.918-1.904-.773-2.963.148-1.059.699-1.996 1.324-2.482l9.859-6.443-1.953 10.457c-.297 1.592.395 3.203 1.75 4.086 1.352.883 3.109.861 4.445-.053l4.375-3c.852 5.824 1.102 14.014-2.008 19.623-1.07 1.932-.371 4.367 1.562 5.438.858.478 1.808.554 2.701.378 3.884 13.567 4.593 27.874 2.006 41.747-3.499 18.765-12.865 35.932-26.531 49.044l-1.949-9.423c10.593-11.488 17.734-25.638 20.618-41.089zm-183.227-74.078v-17.351c0-1.08-.438-2.115-1.213-2.869-14.287-13.883-5.668-37.745-2.027-46.022 15.369 5.641 22 24.293 22.07 24.494.559 1.609 2.078 2.695 3.781 2.695h44.189c1.703 0 3.223-1.086 3.781-2.695.07-.201 6.701-18.854 22.07-24.494 3.73 8.496 12.703 33.416-3.262 47.137-.883.76-1.391 1.867-1.391 3.033v16.072c0 9.92-6.906 18.247-16.259 20.383-1.211-6.495-6.9-11.435-13.741-11.435h-27.998c-6.841 0-12.53 4.94-13.741 11.436-9.353-2.136-16.259-10.46-16.259-20.384zm30 28.947c-3.309 0-6-2.691-6-6s2.691-6 6-6h4.295l2.33 2.33c.945.947 2.201 1.36 3.375 1.539v8.131zm18-8.15c1.146-.188 2.359-.599 3.279-1.52l2.326-2.33h4.395c3.309 0 6 2.691 6 6s-2.691 6-6 6h-10zm-4 124.15h4c2.209 0 4-1.791 4-4v-60c0-.865-.281-1.707-.801-2.4l-13.479-17.973c-5.19-6.92-8.413-15.216-9.381-23.795.551.066 1.092.168 1.66.168h28c5.668 0 10.535-3.401 12.735-8.257 3.361-.426 6.528-1.425 9.417-2.893l39.015 14.306c13.379 4.906 23.09 16.164 25.973 30.115l14.855 71.809c-.207 8.262-6.992 14.92-15.305 14.92h-76.168c1.769-6.942 8.004-12 15.477-12h24c2.211 0 4-1.791 4-4s-1.789-4-4-4h-8v-4c0-17.943 14.52-32 33.059-32 2.211 0 4-1.791 4-4s-1.789-4-4-4c-16.707 0-30.747 9.275-37.215 22.922-14.425-4.915-15.767-21.808-15.844-23.04v-15.881c0-2.209-1.791-4-4-4s-4 1.791-4 4v14.789l-7.328 10.992c-.385.576-.613 1.242-.662 1.934l-3.734 52.285h-31.77c1.783-6.893 8.055-12.001 15.496-12.001zm30.031-41.836c2.714 7.88 8.501 16.574 19.154 20.263-.747 3.063-1.185 6.256-1.185 9.573v4h-8c-5.516 0-10.581 1.848-14.629 4.952l2.543-35.613z"/><path d="m71.678 69.786c2.09-.717 3.203-2.992 2.486-5.08-.168-.494-4.27-12.123-14.875-14.598-1.768-.426-3.582.41-4.434 2.006-.416.773-10.02 19.088 2.783 29.047.729.566 1.594.842 2.453.842 1.191 0 2.371-.531 3.16-1.545 1.355-1.742 1.041-4.256-.703-5.613-5.123-3.984-3.559-11.348-2.043-15.629 4.119 2.689 6.043 7.949 6.096 8.098.721 2.079 2.993 3.19 5.077 2.472z"/><path d="m133.734 69.786c2.086.719 4.363-.398 5.082-2.486.02-.064 1.949-5.375 6.09-8.082 1.516 4.285 3.074 11.645-2.047 15.627-1.742 1.357-2.059 3.871-.699 5.613.789 1.014 1.969 1.545 3.16 1.545.855 0 1.723-.275 2.453-.842 12.801-9.957 3.199-28.271 2.785-29.047-.852-1.596-2.66-2.43-4.438-2.006-10.604 2.475-14.705 14.104-14.873 14.598-.716 2.087.398 4.363 2.487 5.08z"/></g></svg>