<?xml version="1.0" encoding="UTF-8"?>
<svg xmlns="http://www.w3.org/2000/svg" xmlns:xlink="http://www.w3.org/1999/xlink" version="1.1" id="comb-cat" x="0px" y="0px" viewBox="0 0 300 300" style="enable-background:new 0 0 300 300;" xml:space="preserve" width="512" height="512">
<g>
	<path d="M156,72.529c2.501,0,4.53-2.028,4.53-4.529c0-2.502-2.028-4.53-4.53-4.53s-4.53,2.028-4.53,4.53   C151.47,70.501,153.499,72.529,156,72.529z"/>
	<path d="M109.516,54.484c0.781,0.781,1.805,1.172,2.828,1.172s2.047-0.391,2.828-1.172L118,51.656l2.828,2.828   c0.781,0.781,1.805,1.172,2.828,1.172s2.047-0.391,2.828-1.172c1.562-1.562,1.562-4.094,0-5.656L123.656,46l2.828-2.828   c1.562-1.562,1.562-4.094,0-5.656s-4.094-1.562-5.656,0L118,40.344l-2.828-2.828c-1.562-1.562-4.094-1.562-5.656,0   s-1.562,4.094,0,5.656L112.344,46l-2.828,2.828C107.953,50.391,107.953,52.922,109.516,54.484z"/>
	<path d="M117.199,174.152c0,2.121-1.725,3.848-3.846,3.848c-2.209,0-4,1.791-4,4s1.791,4,4,4c3.207,0,6.111-1.292,8.246-3.37   c2.135,2.078,5.04,3.37,8.248,3.37c2.209,0,4-1.791,4-4s-1.791-4-4-4c-2.121,0-3.848-1.727-3.848-3.848V170   c0-0.051-0.027-0.094-0.029-0.145c1.155-0.185,2.38-0.597,3.308-1.525l2.533-2.537c1.148-1.143,1.588-3.193,0.969-4.689   c-0.814-1.973-2.953-3.104-5.865-3.104h-9.93c-2.914,0-5.053,1.131-5.867,3.104c-0.617,1.494-0.18,3.541,0.963,4.684l2.543,2.543   c0.747,0.748,1.688,1.159,2.63,1.394c-0.007,0.096-0.056,0.178-0.056,0.276V174.152z"/>
	<path d="M138,154.002c0.418,0,0.846-0.066,1.266-0.207l12-4c2.096-0.699,3.229-2.965,2.529-5.061   c-0.699-2.094-2.961-3.236-5.061-2.529l-12,4c-2.096,0.699-3.229,2.965-2.529,5.061C134.764,152.941,136.324,154.002,138,154.002z"/>
	<path d="M92.734,149.795l12,4c0.42,0.141,0.848,0.207,1.266,0.207c1.676,0,3.236-1.061,3.795-2.736   c0.699-2.096-0.434-4.361-2.529-5.061l-12-4c-2.107-0.707-4.361,0.436-5.061,2.529C89.506,146.83,90.639,149.096,92.734,149.795z"/>
	<path d="M210,146c-2.209,0-4,1.791-4,4c0,11.027,8.973,20,20,20h16c11.027,0,20-8.973,20-20V54c0-11.027-8.973-20-20-20h-16   c-11.027,0-20,8.973-20,20c0,2.209,1.791,4,4,4h28v4h-28c-2.209,0-4,1.791-4,4s1.791,4,4,4h28v4h-28c-2.209,0-4,1.791-4,4   s1.791,4,4,4h28v4h-28c-2.209,0-4,1.791-4,4s1.791,4,4,4h28v4h-28c-2.209,0-4,1.791-4,4s1.791,4,4,4h28v4h-28c-2.209,0-4,1.791-4,4   s1.791,4,4,4h28v4h-28c-2.209,0-4,1.791-4,4s1.791,4,4,4h28v4h-28c-2.209,0-4,1.791-4,4s1.791,4,4,4h28v4H210z M242,162h-16   c-5.215,0-9.664-3.344-11.314-8h38.629C251.664,158.656,247.215,162,242,162z M226,42h16c5.215,0,9.664,3.344,11.314,8h-38.629   C216.336,45.344,220.785,42,226,42z M246,58h8v88h-8V58z"/>
	<path d="M262,258H160.955c3.409-3.021,5.814-7,7.271-12h42.428c10.668,0,19.346-8.678,19.346-19.346V202h12.049   c3.213,0,6.223-1.256,8.475-3.537c2.244-2.271,3.459-5.285,3.418-8.695c-0.082-6.488-5.418-11.768-11.895-11.768h-16.701   C214.678,178,206,186.678,206,197.346V222h-36.776c-1.318-8.968-4.343-17.402-8.865-24.706c7.833-1.562,16.371-5.703,22.27-11.595   c3.151,1.493,6.078,3.573,8.043,6.52c0.771,1.156,2.039,1.781,3.332,1.781c0.762,0,1.533-0.217,2.215-0.672   c1.838-1.225,2.334-3.709,1.109-5.547c-2.547-3.821-6.068-6.555-9.822-8.551c1.558-2.896,2.494-6.027,2.494-9.361   c0-1.186-0.525-2.309-1.436-3.068l-6.598-5.516c-0.01-0.288-0.058-0.567-0.073-0.854c4.043-0.986,8.945-0.99,14.619,1.283   c2.062,0.816,4.379-0.18,5.201-2.229c0.82-2.053-0.178-4.379-2.229-5.201c-6.925-2.766-13.219-2.97-18.627-1.824   c-1.142-5.544-3.102-10.791-5.827-15.562c8.343-18.181-5.047-40.071-5.64-41.021c-0.883-1.41-2.545-2.129-4.178-1.801   c-12.38,2.475-20.536,10.32-25.472,17.071c-3.53-0.74-7.18-1.149-10.927-1.149h-13.633c-5.018,0-9.861,0.736-14.467,2.042   c-4.42-6.29-12.84-15.308-26.119-17.963c-1.652-0.328-3.297,0.391-4.178,1.803c-0.679,1.087-16.012,26.19-3.445,44.905   c-1.64,3.516-2.889,7.242-3.731,11.122c-4.464-0.347-9.406,0.247-14.73,2.378c-2.051,0.822-3.049,3.148-2.229,5.201   c0.822,2.049,3.143,3.045,5.201,2.229c3.944-1.58,7.503-2.052,10.67-1.884c-0.031,0.488-0.106,0.963-0.124,1.454l-6.598,5.516   c-0.91,0.76-1.436,1.883-1.436,3.068c0,4.028,1.323,7.779,3.523,11.148c-2.607,1.775-4.992,3.975-6.852,6.764   c-1.225,1.838-0.729,4.322,1.109,5.547c0.682,0.455,1.453,0.672,2.215,0.672c1.293,0,2.561-0.625,3.332-1.781   c1.427-2.141,3.372-3.811,5.53-5.149c5.799,5.159,13.583,8.79,20.789,10.226C77.412,207.36,74,219.567,74,232.354   c0,11.768,3.05,20.206,9.137,25.646H38c-2.209,0-4,1.791-4,4s1.791,4,4,4h224c2.209,0,4-1.791,4-4S264.209,258,262,258z    M98,255.361c0-2.957,2.404-5.361,5.361-5.361h5.277c2.957,0,5.361,2.404,5.361,5.361V258H98V255.361z M102.395,242.098   C104.216,232.934,112.309,226,122,226s17.784,6.934,19.605,16.098c-0.325-0.024-0.636-0.098-0.967-0.098h-5.277   c-7.367,0-13.361,5.994-13.361,13.361c0-7.367-5.994-13.361-13.361-13.361h-5.277C103.03,242,102.72,242.074,102.395,242.098z    M130,255.361c0-2.957,2.404-5.361,5.361-5.361h5.277c2.957,0,5.361,2.404,5.361,5.361V258h-16V255.361z M209.797,230   c2.209,0,4.203-1.994,4.203-4.203v-28.451c0-6.256,5.09-11.346,11.346-11.346h16.701c2.121,0,3.867,1.736,3.896,4.078   c0.014,1.043-0.383,2.025-1.113,2.764c-0.736,0.746-1.725,1.158-2.781,1.158h-15.846c-2.209,0-4.203,1.994-4.203,4.203v28.451   c0,6.256-5.09,11.346-11.346,11.346h-40.912c0.162-1.792,0.258-3.661,0.258-5.646c0-0.79-0.066-1.568-0.091-2.354H209.797z    M163.986,102.621c2.502,4.867,7.317,16.008,5.34,26.154c-5.697-6.697-13.032-11.935-21.365-15.165   C151.629,109.236,156.865,104.769,163.986,102.621z M75.826,102.621c7.796,2.342,13.335,7.442,17.099,12.329   c-8.563,3.968-15.922,10.102-21.295,17.757C67.197,121.651,73.002,108.124,75.826,102.621z M82,174   c-0.557,0-8.86,0.071-17.279,3.295c-1.307-1.821-2.225-3.735-2.567-5.684l6.41-5.359c0.91-0.76,1.436-1.883,1.436-3.068   c0-0.48,0.057-0.945,0.072-1.421c5.417,2.453,8.501,6.34,8.739,6.652c0.785,1.039,1.982,1.586,3.193,1.586   c0.834,0,1.676-0.26,2.396-0.801c1.768-1.324,2.125-3.832,0.799-5.6c-2.489-3.319-7.439-7.644-14.146-10.03   C75.476,133.262,93.571,118,115.184,118h13.633c22.172,0,40.625,16.066,44.428,37.16c-4.827,2.443-8.438,5.766-10.443,8.44   c-1.326,1.768-0.969,4.275,0.799,5.6c0.721,0.541,1.562,0.801,2.396,0.801c1.217,0,2.418-0.553,3.203-1.6   c0.042-0.056,1.791-2.3,4.964-4.483c0.173,0.896,0.56,1.739,1.272,2.334l6.41,5.359c-0.274,1.56-0.932,3.095-1.842,4.583   C172.827,174.065,166.484,174,166,174c-2.207,0-3.994,1.787-3.996,3.994c-0.004,2.207,1.783,3.998,3.99,4.006   c0.077,0,3.395,0.038,7.68,0.863c-5.689,4.249-13.334,7.137-19.805,7.137h-10.766c-1.564,0-2.986,0.912-3.637,2.336   c-2.688,5.871-8.578,9.664-15.004,9.664h-4.926c-6.426,0-12.316-3.793-15.004-9.664c-0.65-1.424-2.072-2.336-3.637-2.336H90.131   c-6.107,0-13.253-2.58-18.821-6.441C76.958,182.062,81.912,182,82.006,182c2.207-0.008,3.994-1.799,3.99-4.006   C85.994,175.787,84.207,174,82,174z M92.833,198h5.651c4.387,7.365,12.389,12,21.053,12h4.926c8.664,0,16.666-4.635,21.053-12   h5.657c6.972,9.366,10.828,21.508,10.828,34.354c0,12.595-3.667,18.236-8.186,21.171c-0.416-2.983-1.771-5.665-3.822-7.681   C149.907,230.477,137.387,218,122,218s-27.907,12.477-27.992,27.844c-2.051,2.016-3.406,4.697-3.822,7.681   C85.667,250.59,82,244.948,82,232.354C82,219.501,85.858,207.369,92.833,198z"/>
	<path d="M66,82c6.617,0,12-5.383,12-12s-5.383-12-12-12s-12,5.383-12,12S59.383,82,66,82z M66,66c2.205,0,4,1.795,4,4s-1.795,4-4,4   s-4-1.795-4-4S63.795,66,66,66z"/>
</g>















</svg>
