<?xml version="1.0" encoding="UTF-8"?>
<svg xmlns="http://www.w3.org/2000/svg" xmlns:xlink="http://www.w3.org/1999/xlink" version="1.1" id="dryer" x="0px" y="0px" viewBox="0 0 300 300" style="enable-background:new 0 0 300 300;" xml:space="preserve" width="512" height="512">
<g>
	<path d="M229.47,160.063c0,2.501,2.028,4.529,4.53,4.529s4.53-2.028,4.53-4.529c0-2.502-2.028-4.53-4.53-4.53   S229.47,157.561,229.47,160.063z"/>
	<path d="M192.484,165.578c-1.562-1.562-4.094-1.562-5.656,0L184,168.407l-2.828-2.828c-1.562-1.562-4.094-1.562-5.656,0   s-1.562,4.094,0,5.656l2.828,2.828l-2.828,2.828c-1.562,1.562-1.562,4.094,0,5.656c0.781,0.781,1.805,1.172,2.828,1.172   s2.047-0.391,2.828-1.172l2.828-2.828l2.828,2.828c0.781,0.781,1.805,1.172,2.828,1.172s2.047-0.391,2.828-1.172   c1.562-1.562,1.562-4.094,0-5.656l-2.828-2.828l2.828-2.828C194.047,169.672,194.047,167.141,192.484,165.578z"/>
	<path d="M68,182.063c-6.617,0-12,5.383-12,12s5.383,12,12,12s12-5.383,12-12S74.617,182.063,68,182.063z M68,198.063   c-2.207,0-4-1.795-4-4s1.793-4,4-4s4,1.795,4,4S70.207,198.063,68,198.063z"/>
	<path d="M216,82.063h16c2.211,0,4-1.791,4-4s-1.789-4-4-4h-16c-2.211,0-4,1.791-4,4S213.789,82.063,216,82.063z"/>
	<path d="M216,94.063h16c2.211,0,4-1.791,4-4s-1.789-4-4-4h-16c-2.211,0-4,1.791-4,4S213.789,94.063,216,94.063z"/>
	<path d="M232,98.063h-16c-2.211,0-4,1.791-4,4s1.789,4,4,4h16c2.211,0,4-1.791,4-4S234.211,98.063,232,98.063z"/>
	<path d="M120.922,89.897c-3.207,6.242-1.543,13.516,3.707,16.217c1.34,0.686,2.781,1.012,4.242,1.012   c4.277,0,8.711-2.787,11.102-7.439c3.207-6.242,1.543-13.516-3.707-16.217C131.004,80.778,124.129,83.655,120.922,89.897z    M128.039,93.553c1.012-1.969,2.73-3.111,3.922-3.111c0.242,0,0.461,0.047,0.648,0.143c1.113,0.574,1.465,3.076,0.246,5.445   s-3.465,3.537-4.57,2.969C127.172,98.424,126.82,95.922,128.039,93.553z"/>
	<path d="M114.336,84.651c6.805,0,12.133-6.719,12.133-15.295s-5.328-15.293-12.133-15.293s-12.133,6.717-12.133,15.293   S107.531,84.651,114.336,84.651z M114.336,62.063c1.949,0,4.133,3.119,4.133,7.293c0,4.176-2.184,7.295-4.133,7.295   s-4.133-3.119-4.133-7.295C110.203,65.182,112.387,62.063,114.336,62.063z"/>
	<path d="M83.809,84.651c6.805,0,12.133-6.719,12.133-15.295s-5.328-15.293-12.133-15.293S71.676,60.78,71.676,69.356   S77.004,84.651,83.809,84.651z M83.809,62.063c1.949,0,4.133,3.119,4.133,7.293c0,4.176-2.184,7.295-4.133,7.295   s-4.133-3.119-4.133-7.295C79.676,65.182,81.859,62.063,83.809,62.063z"/>
	<path d="M78.504,90.307c-2.953-6.453-9.504-9.562-14.922-7.094c-5.406,2.479-7.324,9.475-4.367,15.932   c1.328,2.896,3.48,5.248,6.07,6.627c1.613,0.859,3.332,1.293,5.004,1.293c1.332,0,2.641-0.275,3.848-0.828   C79.543,103.76,81.461,96.762,78.504,90.307z M70.801,98.965c-0.633,0.289-1.434-0.084-1.758-0.256   c-1.031-0.549-1.965-1.605-2.555-2.896c-1.188-2.588-0.539-4.883,0.426-5.326c0.148-0.066,0.32-0.102,0.516-0.102   c1.086,0,2.797,1.059,3.801,3.254C72.414,96.227,71.77,98.52,70.801,98.965z"/>
	<path d="M103.223,125.414c2.246,0.715,4.695,0.842,7.062,0.357c5.555-1.123,10.023-5.84,10.875-11.471   c0.785-5.232-1.391-10.373-5.684-13.414c-1.801-1.277-2.836-3.141-2.836-5.107c0-7.465-5.598-13.605-12.742-13.979   c-3.75-0.205-7.285,1.109-9.984,3.676c-2.668,2.529-4.199,6.09-4.199,9.768v0.535c0,1.965-1.035,3.828-2.844,5.109   c-4.285,3.041-6.461,8.182-5.676,13.412c0.852,5.629,5.32,10.346,10.871,11.473c0.949,0.191,1.906,0.287,2.855,0.287   c1.434,0,2.855-0.217,4.203-0.646C97.812,124.563,100.535,124.559,103.223,125.414z M89.66,117.934   c-2.289-0.465-4.199-2.492-4.551-4.824c-0.344-2.262,0.555-4.391,2.391-5.695c3.891-2.76,6.215-7.109,6.215-11.635v-0.535   c0-1.514,0.605-2.922,1.703-3.965c1.023-0.973,2.352-1.498,3.762-1.498c0.098,0,0.199,0.002,0.301,0.008   c2.844,0.148,5.16,2.836,5.16,5.99c0,4.527,2.32,8.877,6.211,11.635c1.84,1.305,2.738,3.434,2.395,5.695   c-0.352,2.332-2.262,4.359-4.551,4.822c-1.043,0.213-2.074,0.166-3.051-0.143c-4.234-1.34-8.699-1.342-12.941,0.002   C91.742,118.1,90.711,118.149,89.66,117.934z"/>
	<path d="M256,214.063h-48.035c-11.008,0-19.965,8.957-19.965,19.965v8.07c0,6.598-5.367,11.965-11.965,11.965h-32.07   c-6.598,0-11.965-5.367-11.965-11.965v-16.035h8c2.211,0,4-1.791,4-4v-8c1.172,0,2.285-0.514,3.043-1.404   c0.762-0.893,1.094-2.07,0.906-3.229l-7.706-48.157c6.779-2.068,11.757-8.307,11.757-15.753v-10.096l96.469-11.388   c2.016-0.238,3.531-1.945,3.531-3.973v-60c0-2.027-1.516-3.734-3.531-3.973L97.586,38.28c-14.508-1.691-29.137,2.936-40.102,12.693   C46.371,60.866,40,75.114,40,90.063s6.371,29.197,17.484,39.09c8.43,7.504,19.019,11.95,30.067,12.846l16.558,68.998   c0.434,1.799,2.043,3.066,3.891,3.066h4v8c0,2.209,1.789,4,4,4h8v16.035c0,11.008,8.957,19.965,19.965,19.965h32.07   c11.008,0,19.965-8.957,19.965-19.965v-8.07c0-6.598,5.367-11.965,11.965-11.965H256c2.211,0,4-1.791,4-4   S258.211,214.063,256,214.063z M144,145.52c0,3.458-2.073,6.427-5.035,7.77l-2.564-16.024l7.599-0.897V145.52z M180,124.063v-68   l16,1.889v64.223L180,124.063z M244,116.508l-40,4.722V58.896l40,4.722V116.508z M48,90.063c0-12.67,5.395-24.738,14.805-33.115   c8.004-7.125,18.309-11.012,28.875-11.012c1.652,0,3.316,0.096,4.977,0.289L172,55.119v69.889l-75.336,8.893   c-12.277,1.438-24.602-2.479-33.859-10.723C53.395,114.801,48,102.733,48,90.063z M95.77,141.952   c0.608-0.049,1.216-0.035,1.824-0.105l30.857-3.643l10.858,67.859h-28.156L95.77,141.952z M120,214.063h16v4h-16V214.063z"/>
</g>















</svg>
