<?xml version="1.0" encoding="UTF-8"?>
<svg xmlns="http://www.w3.org/2000/svg" xmlns:xlink="http://www.w3.org/1999/xlink" version="1.1" id="invoice-free" x="0px" y="0px" viewBox="0 0 300 300" style="enable-background:new 0 0 300 300;" xml:space="preserve" width="512" height="512">
<g>
	<path d="M257.656,73.172l-32-32c-0.75-0.75-1.766-1.172-2.828-1.172h-120c-6.617,0-12,5.383-12,12v196c0,6.617,5.383,12,12,12h144   c6.617,0,12-5.383,12-12V76C258.828,74.939,258.406,73.922,257.656,73.172z M226.828,53.656L245.172,72h-18.344V53.656z    M246.828,252h-144c-2.205,0-4-1.795-4-4V52c0-2.205,1.795-4,4-4h116v28c0,2.209,1.789,4,4,4h28v168   C250.828,250.205,249.035,252,246.828,252z"/>
	<path d="M59.312,167.516c-1.562-1.562-4.094-1.562-5.656,0l-2.828,2.828L48,167.516c-1.562-1.562-4.094-1.562-5.656,0   s-1.562,4.094,0,5.656L45.172,176l-2.828,2.828c-1.562,1.562-1.562,4.094,0,5.656c0.781,0.781,1.805,1.172,2.828,1.172   s2.047-0.391,2.828-1.172l2.828-2.828l2.828,2.828c0.781,0.781,1.805,1.172,2.828,1.172s2.047-0.391,2.828-1.172   c1.562-1.562,1.562-4.094,0-5.656L56.484,176l2.828-2.828C60.875,171.609,60.875,169.078,59.312,167.516z"/>
	<circle cx="78.828" cy="164" r="4"/>
	<circle cx="66.828" cy="120" r="4"/>
	<path d="M172.828,148c20.953,0,38-17.047,38-38V68c0-1.537-0.883-2.939-2.266-3.605c-1.395-0.664-3.035-0.479-4.234,0.482   L185.426,80H160.23l-18.902-15.123c-1.203-0.965-2.85-1.148-4.232-0.482c-1.387,0.666-2.268,2.068-2.268,3.605v42   C134.828,130.953,151.875,148,172.828,148z M142.828,76.322l13.5,10.801c0.711,0.568,1.59,0.877,2.5,0.877h28   c0.91,0,1.789-0.309,2.5-0.877l13.5-10.801V110c0,16.543-13.457,30-30,30s-30-13.457-30-30V76.322z"/>
	<circle cx="191.027" cy="109.647" r="4"/>
	<circle cx="155.027" cy="109.647" r="4"/>
	<path d="M171.366,125.378c0.884,0.994,2.438,0.994,3.323,0l5.049-5.678c1.274-1.434,0.257-3.7-1.661-3.7h-10.098   c-1.918,0-2.936,2.266-1.661,3.7L171.366,125.378z"/>
	<path d="M238.828,212c2.211,0,4-1.791,4-4s-1.789-4-4-4h-12c-2.211,0-4,1.791-4,4v24c0,2.209,1.789,4,4,4h12c2.211,0,4-1.791,4-4   s-1.789-4-4-4h-8v-4h8c2.211,0,4-1.791,4-4s-1.789-4-4-4h-8v-4H238.828z"/>
	<path d="M214.828,212c2.211,0,4-1.791,4-4s-1.789-4-4-4h-12c-2.211,0-4,1.791-4,4v24c0,2.209,1.789,4,4,4h12c2.211,0,4-1.791,4-4   s-1.789-4-4-4h-8v-4h8c2.211,0,4-1.791,4-4s-1.789-4-4-4h-8v-4H214.828z"/>
	<path d="M162.828,212c2.211,0,4-1.791,4-4s-1.789-4-4-4h-12c-2.211,0-4,1.791-4,4v24c0,2.209,1.789,4,4,4s4-1.791,4-4v-8h8   c2.211,0,4-1.791,4-4s-1.789-4-4-4h-8v-4H162.828z"/>
	<path d="M187.09,204h-12.262c-2.211,0-4,1.791-4,4v24c0,2.209,1.789,4,4,4s4-1.791,4-4v-4.432l9.512,7.562   c0.734,0.586,1.613,0.869,2.484,0.869c1.18,0,2.344-0.518,3.133-1.51c1.375-1.73,1.09-4.246-0.641-5.621L187.195,224   c4.219-0.057,7.633-3.506,7.633-7.736v-4.527C194.828,207.471,191.355,204,187.09,204z M178.828,216v-4.088l8-0.176L187.09,216   H178.828z"/>
	<path d="M114.828,164h36c2.211,0,4-1.791,4-4s-1.789-4-4-4h-36c-2.209,0-4,1.791-4,4S112.619,164,114.828,164z"/>
	<path d="M114.828,176h24c2.211,0,4-1.791,4-4s-1.789-4-4-4h-24c-2.209,0-4,1.791-4,4S112.619,176,114.828,176z"/>
	<path d="M178.828,184c0-2.209-1.789-4-4-4h-60c-2.209,0-4,1.791-4,4s1.791,4,4,4h60C177.039,188,178.828,186.209,178.828,184z"/>
</g>















</svg>
