<?xml version="1.0" encoding="UTF-8"?>
<svg xmlns="http://www.w3.org/2000/svg" xmlns:xlink="http://www.w3.org/1999/xlink" version="1.1" id="lice-cat" x="0px" y="0px" viewBox="0 0 300 300" style="enable-background:new 0 0 300 300;" xml:space="preserve" width="512" height="512">
<g>
	<path d="M145.352,188c3.208,0,6.112-1.292,8.248-3.371c2.136,2.078,5.041,3.371,8.248,3.371c2.211,0,4-1.791,4-4s-1.789-4-4-4   c-2.121,0-3.848-1.727-3.848-3.848V172c0-0.051-0.027-0.094-0.029-0.144c1.155-0.185,2.379-0.597,3.306-1.526l2.539-2.537   c1.145-1.143,1.586-3.193,0.969-4.689c-0.816-1.973-2.953-3.104-5.867-3.104h-9.934c-2.914,0-5.051,1.131-5.867,3.104   c-0.613,1.494-0.18,3.541,0.965,4.684l2.543,2.543c0.747,0.748,1.688,1.16,2.63,1.395c-0.007,0.096-0.056,0.178-0.056,0.275v4.152   c0,2.121-1.727,3.848-3.848,3.848c-2.211,0-4,1.791-4,4S143.141,188,145.352,188z"/>
	<path d="M170,156.002c0.418,0,0.844-0.066,1.266-0.207l12-4c2.094-0.699,3.227-2.965,2.527-5.061s-2.941-3.234-5.059-2.529l-12,4   c-2.094,0.699-3.227,2.965-2.527,5.061C166.766,154.941,168.324,156.002,170,156.002z"/>
	<path d="M124.734,151.795l12,4c0.422,0.141,0.848,0.207,1.266,0.207c1.676,0,3.234-1.061,3.793-2.736   c0.699-2.096-0.434-4.361-2.527-5.061l-12-4c-2.113-0.705-4.359,0.434-5.059,2.529S122.641,151.096,124.734,151.795z"/>
	<path d="M262,240h-48v-2.639c0-7.169-5.687-12.992-12.781-13.303c-1.318-9.057-4.335-17.466-8.865-24.763   c7.834-1.56,16.375-5.703,22.274-11.596c3.151,1.493,6.078,3.573,8.043,6.52c0.77,1.156,2.039,1.781,3.332,1.781   c0.762,0,1.531-0.217,2.215-0.672c1.84-1.225,2.336-3.709,1.109-5.547c-2.547-3.821-6.068-6.555-9.822-8.551   c1.558-2.896,2.494-6.027,2.494-9.361c0-1.186-0.527-2.309-1.434-3.068l-6.602-5.516c-0.01-0.288-0.058-0.565-0.072-0.852   c4.044-0.987,8.947-0.992,14.623,1.282c2.039,0.816,4.379-0.176,5.199-2.229s-0.18-4.379-2.23-5.201   c-6.924-2.77-13.218-2.974-18.627-1.828c-1.14-5.536-3.097-10.774-5.815-15.54c2.601-5.68,3.338-12.394,2.185-19.758   C212.075,119.688,215,120,218,120c26.469,0,48-21.533,48-48s-21.531-48-48-48s-48,21.533-48,48c0,11.906,4.383,22.79,11.586,31.188   c-4.321,3.234-7.554,6.868-9.822,9.967c-3.536-0.743-7.193-1.155-10.948-1.155h-3.385c-1.789-6.881-7.997-12-15.432-12   c-6.028,0-11.223,3.389-13.95,8.323c-5.024-5.34-11.995-10.355-21.452-12.245c-1.637-0.326-3.297,0.395-4.176,1.801   c-0.683,1.093-16.038,26.234-3.416,44.948c-1.644,3.527-2.906,7.24-3.749,11.087c-4.467-0.35-9.413,0.242-14.741,2.372   c-2.051,0.822-3.051,3.148-2.23,5.201c0.82,2.051,3.172,3.043,5.199,2.229c3.939-1.577,7.494-2.05,10.658-1.884   c-0.031,0.486-0.09,0.966-0.108,1.454l-6.602,5.516c-0.906,0.76-1.434,1.883-1.434,3.068c0,4.028,1.324,7.779,3.524,11.148   c-2.607,1.775-4.992,3.975-6.852,6.764c-1.227,1.838-0.73,4.322,1.109,5.547c0.684,0.455,1.453,0.672,2.215,0.672   c1.293,0,2.562-0.625,3.332-1.781c1.427-2.141,3.372-3.811,5.53-5.149c5.799,5.159,13.583,8.791,20.789,10.226   c-4.565,7.353-7.594,15.831-8.898,24.968c-2.39,0.388-4.653,1.241-6.75,2.46C97.055,225.031,93.67,224,90,224   c-9.739,0-17.726,6.799-19.566,16H38c-2.211,0-4,1.791-4,4s1.789,4,4,4h100v14.639c0,7.367,5.992,13.361,13.359,13.361h5.281   c7.367,0,13.359-5.994,13.359-13.361V248h92c2.211,0,4-1.791,4-4S264.211,240,262,240z M138.977,240h-9.411   c-1.527-7.636-7.302-13.564-14.794-15.375c1.443-9.169,4.949-17.749,10.057-24.625h5.659c4.383,7.365,12.387,12,21.047,12h4.93   c8.66,0,16.664-4.635,21.047-12h5.66c4.99,6.718,8.468,15.068,9.968,24h-32.589C150.395,224,141.791,230.751,138.977,240z    M106.451,232.554c1.138-0.352,2.325-0.554,3.549-0.554c5.156,0,9.575,3.368,11.248,8h-11.682   C109.02,237.272,107.968,234.744,106.451,232.554z M218,32c22.055,0,40,17.943,40,40s-17.945,40-40,40s-40-17.943-40-40   S195.945,32,218,32z M187.357,108.91c3.924,3.263,8.389,5.877,13.218,7.768c1.316,5.237,1.564,9.95,0.749,14.095   c-5.69-6.688-13.015-11.922-21.337-15.152C181.893,113.354,184.362,110.991,187.357,108.91z M142,108c4.41,0,8,3.588,8,8   s-3.59,8-8,8s-8-3.588-8-8S137.59,108,142,108z M107.828,104.621c7.781,2.342,13.314,7.441,17.052,12.271   c-8.654,4.007-15.916,10.249-21.229,17.854C99.189,123.682,104.997,110.131,107.828,104.621z M114,176   c-0.555,0-8.86,0.071-17.28,3.296c-1.307-1.822-2.226-3.736-2.568-5.685l6.414-5.359c0.906-0.76,1.434-1.883,1.434-3.068   c0-0.479,0.041-0.952,0.056-1.429c5.428,2.452,8.516,6.346,8.753,6.659c0.789,1.039,1.984,1.586,3.195,1.586   c0.836,0,1.676-0.26,2.395-0.801c1.77-1.324,2.129-3.832,0.801-5.6c-2.487-3.318-7.434-7.635-14.134-10.021   c3.012-13.704,12.314-25.49,25.231-31.448c2.793,4.688,7.86,7.869,13.704,7.869c7.435,0,13.643-5.119,15.432-12h3.385   c22.17,0,40.623,16.064,44.427,37.156c-4.827,2.443-8.438,5.769-10.443,8.444c-1.328,1.768-0.969,4.275,0.801,5.6   c0.719,0.541,1.559,0.801,2.395,0.801c1.219,0,2.418-0.553,3.203-1.6c0.043-0.055,1.792-2.297,4.965-4.48   c0.174,0.896,0.561,1.737,1.27,2.332l6.414,5.359c-0.274,1.56-0.932,3.096-1.843,4.583C204.827,176.065,198.483,176,198,176   c-2.207,0-3.992,1.787-3.996,3.994s1.785,3.998,3.988,4.006c0.077,0,3.396,0.038,7.682,0.864   c-5.689,4.249-13.333,7.136-19.803,7.136h-10.77c-1.566,0-2.984,0.912-3.637,2.336c-2.688,5.871-8.574,9.664-15,9.664h-4.93   c-6.426,0-12.312-3.793-15-9.664c-0.652-1.424-2.07-2.336-3.637-2.336h-10.77c-6.107,0-13.251-2.58-18.82-6.44   c5.649-1.497,10.604-1.56,10.698-1.56c2.203-0.008,3.992-1.799,3.988-4.006S116.207,176,114,176z M90,232   c5.156,0,9.575,3.368,11.248,8H78.752C80.425,235.368,84.844,232,90,232z M206,240h-40c-2.211,0-4,1.791-4,4v18.639   c0,2.957-2.402,5.361-5.359,5.361h-5.281c-2.957,0-5.359-2.404-5.359-5.361v-16.09c0-8.021,6.527-14.549,14.551-14.549h40.09   c2.957,0,5.359,2.404,5.359,5.361V240z"/>
	<path d="M160,58.529c2.501,0,4.53-2.028,4.53-4.529c0-2.502-2.028-4.53-4.53-4.53s-4.53,2.028-4.53,4.53   C155.47,56.501,157.499,58.529,160,58.529z"/>
	<path d="M240.53,142c0-2.502-2.028-4.53-4.53-4.53s-4.53,2.028-4.53,4.53c0,2.501,2.028,4.529,4.53,4.529   S240.53,144.501,240.53,142z"/>
	<path d="M78,100c6.617,0,12-5.383,12-12s-5.383-12-12-12s-12,5.383-12,12S71.383,100,78,100z M78,84c2.207,0,4,1.795,4,4   s-1.793,4-4,4s-4-1.795-4-4S75.793,84,78,84z"/>
	<path d="M128,96c7.719,0,14-6.281,14-14c0-2.209-1.789-4-4-4s-4,1.791-4,4c0,3.309-2.691,6-6,6s-6-2.691-6-6s2.691-6,6-6   c2.211,0,4-1.791,4-4s-1.789-4-4-4c-7.719,0-14,6.281-14,14S120.281,96,128,96z"/>
	<path d="M198,76h4v1.98c0,1.321,0.242,2.573,0.585,3.786l-5.249,4.687c-1.648,1.473-1.789,4-0.32,5.648   c0.789,0.885,1.887,1.336,2.984,1.336c0.949,0,1.902-0.336,2.664-1.016l4.294-3.834c1.963,1.679,4.369,2.817,7.042,3.208V96   c0,2.209,1.789,4,4,4s4-1.791,4-4v-4.204c2.694-0.394,5.118-1.545,7.089-3.246l4.337,3.872c0.762,0.68,1.715,1.016,2.664,1.016   c1.098,0,2.195-0.451,2.984-1.336c1.469-1.648,1.328-4.176-0.32-5.648l-5.32-4.75C233.766,80.51,234,79.278,234,77.98V76h4   c2.211,0,4-1.791,4-4s-1.789-4-4-4h-4v-1.98c0-1.459-0.287-2.839-0.703-4.163l5.457-4.872c1.648-1.473,1.789-4,0.32-5.648   c-1.473-1.65-4.004-1.785-5.648-0.32l-4.664,4.165c-1.912-1.552-4.215-2.604-6.762-2.976V48c0-2.209-1.789-4-4-4s-4,1.791-4,4   v4.204c-2.526,0.369-4.812,1.406-6.715,2.937l-4.621-4.126c-1.641-1.465-4.176-1.33-5.648,0.32   c-1.469,1.648-1.328,4.176,0.32,5.648l5.386,4.809C202.294,63.136,202,64.537,202,66.02V68h-4c-2.211,0-4,1.791-4,4   S195.789,76,198,76z M216.02,60h3.961c3.32,0,6.02,2.701,6.02,6.02V77.98c0,3.318-2.699,6.02-6.02,6.02h-3.961   c-3.32,0-6.02-2.701-6.02-6.02V66.02C210,62.701,212.699,60,216.02,60z"/>
	<path d="M218,216c0,6.617,5.383,12,12,12s12-5.383,12-12s-5.383-12-12-12S218,209.383,218,216z M234,216c0,2.205-1.793,4-4,4   s-4-1.795-4-4s1.793-4,4-4S234,213.795,234,216z"/>
</g>















</svg>
