<?xml version="1.0" encoding="UTF-8"?>
<svg xmlns="http://www.w3.org/2000/svg" xmlns:xlink="http://www.w3.org/1999/xlink" version="1.1" id="lice-dog" x="0px" y="0px" viewBox="0 0 300 300" style="enable-background:new 0 0 300 300;" xml:space="preserve" width="512" height="512">
<g>
	<circle cx="122" cy="156" r="4"/>
	<circle cx="154" cy="156" r="4"/>
	<path d="M102.004,124c0.602,0,1.211-0.135,1.785-0.422c1.977-0.988,2.777-3.391,1.789-5.367c-0.973-1.945-2.055-6.076-0.75-7.383   c1.562-1.562,1.562-4.094,0-5.656s-4.094-1.562-5.656,0c-5.871,5.869-1.289,15.535-0.75,16.617   C99.125,123.191,100.535,124,102.004,124z"/>
	<path d="M170.918,118.223c-0.98,1.973-0.18,4.369,1.793,5.355c0.574,0.287,1.184,0.422,1.785,0.422   c1.469,0,2.879-0.809,3.582-2.211c0.539-1.082,5.121-10.748-0.75-16.617c-1.562-1.562-4.094-1.562-5.656,0s-1.562,4.094,0,5.656   C173.016,112.174,171.824,116.373,170.918,118.223z"/>
	<path d="M262,240h-48v-2.639c0-7.367-5.992-13.361-13.359-13.361h-12.76c-2.718-5.575-6.245-10.727-10.524-15.14   c6.461-2.429,12.722-5.433,18.722-9.077c1.191-0.725,1.922-2.021,1.922-3.418V160.34c0-10.545-2.906-20.744-8.426-29.645   c1.847-4.255,4.171-11.066,3.885-17.519C200.65,117.48,209.026,120,218,120c26.469,0,48-21.533,48-48s-21.531-48-48-48   s-48,21.533-48,48c0,2.03,0.168,4.019,0.414,5.983c-0.134,0.228-0.31,0.423-0.398,0.683c-0.023,0.068-2.383,6.869-7.594,11.598   c-4.316,3.918-6.59,10.209-7.773,15.264c-4.266-1.014-8.617-1.527-12.988-1.527h-0.229c-1.788-6.881-7.997-12-15.432-12   c-3.201,0-6.172,0.967-8.675,2.592c-1.049-1.697-2.213-3.158-3.505-4.328c-5.211-4.729-7.566-11.529-7.586-11.588   c-0.508-1.52-1.875-2.588-3.473-2.717c-1.582-0.154-3.117,0.707-3.863,2.127c-0.102,0.193-10.211,19.451-14.402,27.84   c-3.926,7.854-0.438,18.654,2.078,24.547C80.957,139.434,78,149.711,78,160.34v36.025c0,1.396,0.73,2.693,1.922,3.418   c5.997,3.644,12.258,6.648,18.722,9.077c-4.331,4.467-7.898,9.687-10.627,15.341c-8.75,0.879-15.884,7.323-17.612,15.799H38   c-2.211,0-4,1.791-4,4s1.789,4,4,4h100v14.639c0,7.367,5.992,13.361,13.359,13.361h5.281c7.367,0,13.359-5.994,13.359-13.361V248   h92c2.211,0,4-1.791,4-4S264.211,240,262,240z M218,32c22.055,0,40,17.943,40,40s-17.945,40-40,40s-40-17.943-40-40   S195.945,32,218,32z M126,100c4.41,0,8,3.588,8,8s-3.59,8-8,8s-8-3.588-8-8S121.59,100,126,100z M86,160.34   c0-9.77,2.914-19.193,8.422-27.252c0.805-1.174,0.922-2.686,0.312-3.971c-3.031-6.4-5.434-14.914-3.082-19.615   c2.559-5.117,7.355-14.35,10.691-20.742c1.512,2.428,3.527,5.092,6.102,7.43c1.209,1.096,2.29,2.724,3.241,4.803   C110.641,103.118,110,105.476,110,108c0,8.822,7.176,16,16,16c7.435,0,13.644-5.119,15.432-12h0.229   c5.031,0,10.035,0.793,14.871,2.357c0.402,0.129,0.816,0.193,1.23,0.193c0.738,0,1.469-0.203,2.109-0.602   c1-0.621,1.676-1.648,1.848-2.812c1.008-6.822,3.281-12.41,6.078-14.947c2.303-2.09,4.122-4.431,5.571-6.641   c1.892,4.795,4.503,9.227,7.751,13.126c1.328,2.585,2.55,4.974,3.475,6.83c2.387,4.777-0.219,13.646-3.176,19.791   c-0.617,1.283-0.504,2.799,0.293,3.977c5.422,8.008,8.289,17.367,8.289,27.068v10.277c-4.83-5.245-10.99-8.334-16-9.791V156   c0-11.027-8.973-20-20-20c-6.535,0-12.348,3.15-16,8.012c-3.652-4.861-9.465-8.012-16-8.012c-11.027,0-20,8.973-20,20v4.826   c-5.01,1.457-11.17,4.546-16,9.791V160.34z M86,192c0-20.234,19.828-23.91,20.656-24.055c1.93-0.32,3.344-1.99,3.344-3.945v-8   c0-6.617,5.383-12,12-12s12,5.383,12,12c0,2.209,1.789,4,4,4s4-1.791,4-4c0-6.617,5.383-12,12-12s12,5.383,12,12v8   c0,1.955,1.414,3.625,3.344,3.945C170.188,168.086,190,171.623,190,192v2.088c-11.182,6.474-23.269,10.712-36,12.67v-4.284   c6.593,0.012,12.623-4.48,14.27-11.064l1.609-6.439c0.539-2.145-0.766-4.316-2.91-4.852c-2.141-0.543-4.316,0.768-4.848,2.91   l-1.609,6.438c-0.84,3.348-4.145,5.51-7.566,4.951L142,192.57v-4.712c1.153-0.184,2.384-0.596,3.332-1.53l2.531-2.535   c1.145-1.143,1.586-3.193,0.969-4.689c-0.816-1.973-2.953-3.104-5.867-3.104h-9.93c-2.914,0-5.051,1.131-5.867,3.104   c-0.613,1.492-0.18,3.539,0.961,4.682l2.562,2.564c0.932,0.919,2.157,1.326,3.309,1.509v4.752l-11.688,1.948   c-3.23,0.531-6.359-1.328-7.406-4.449l-2.535-7.574c-0.699-2.096-2.969-3.217-5.062-2.523c-2.094,0.701-3.227,2.967-2.523,5.062   l2.535,7.576c2.039,6.076,7.641,10.004,13.852,10.004c0.273,0,0.553-0.054,0.828-0.069v4.167c-12.736-1.96-24.827-6.193-36-12.664   V192z M130,201.387l4-0.667V212c0,2.209,1.789,4,4,4s4-1.791,4-4v-11.318l4,0.675V212c0,4.412-3.59,8-8,8s-8-3.588-8-8V201.387z    M107.292,211.748c4.892,1.389,9.903,2.405,14.998,3.119C123.648,222.321,130.158,228,138,228c7.843,0,14.352-5.679,15.71-13.134   c5.094-0.713,10.103-1.734,14.993-3.122c3.992,3.501,7.474,7.626,10.194,12.256h-18.347c-10.156,0-18.76,6.751-21.574,16h-9.437   c-1.855-9.178-9.872-16-19.54-16c-3.58,0-6.997,0.981-10.039,2.761c-1.097-0.636-2.249-1.164-3.464-1.585   C99.311,220.089,102.975,215.536,107.292,211.748z M106.366,232.567c1.163-0.369,2.382-0.567,3.634-0.567   c5.222,0,9.618,3.328,11.266,8h-11.67C109.04,237.275,107.909,234.769,106.366,232.567z M90,232c5.208,0,9.606,3.354,11.263,8   H78.737C80.394,235.354,84.792,232,90,232z M206,240h-40c-2.211,0-4,1.791-4,4v18.639c0,2.957-2.402,5.361-5.359,5.361h-5.281   c-2.957,0-5.359-2.404-5.359-5.361v-16.09c0-8.021,6.527-14.549,14.551-14.549h40.09c2.957,0,5.359,2.404,5.359,5.361V240z"/>
	<path d="M160,58.529c2.501,0,4.529-2.028,4.529-4.529c0-2.502-2.028-4.53-4.529-4.53s-4.529,2.028-4.529,4.53   C155.471,56.501,157.499,58.529,160,58.529z"/>
	<path d="M240.529,142c0-2.502-2.028-4.53-4.529-4.53s-4.529,2.028-4.529,4.53c0,2.501,2.028,4.529,4.529,4.529   S240.529,144.501,240.529,142z"/>
	<path d="M78,88c6.617,0,12-5.383,12-12s-5.383-12-12-12s-12,5.383-12,12S71.383,88,78,88z M78,72c2.207,0,4,1.795,4,4s-1.793,4-4,4   s-4-1.795-4-4S75.793,72,78,72z"/>
	<path d="M124,80c7.719,0,14-6.281,14-14c0-2.209-1.789-4-4-4s-4,1.791-4,4c0,3.309-2.691,6-6,6s-6-2.691-6-6s2.691-6,6-6   c2.211,0,4-1.791,4-4s-1.789-4-4-4c-7.719,0-14,6.281-14,14S116.281,80,124,80z"/>
	<path d="M198,76h4v1.98c0,1.321,0.242,2.573,0.585,3.786l-5.249,4.687c-1.648,1.473-1.789,4-0.32,5.648   c0.789,0.885,1.887,1.336,2.984,1.336c0.949,0,1.902-0.336,2.664-1.016l4.294-3.834c1.962,1.679,4.369,2.817,7.042,3.208V96   c0,2.209,1.789,4,4,4s4-1.791,4-4v-4.204c2.693-0.394,5.118-1.545,7.089-3.246l4.337,3.872c0.762,0.68,1.715,1.016,2.664,1.016   c1.098,0,2.195-0.451,2.984-1.336c1.469-1.648,1.328-4.176-0.32-5.648l-5.319-4.75C233.766,80.51,234,79.278,234,77.98V76h4   c2.211,0,4-1.791,4-4s-1.789-4-4-4h-4v-1.98c0-1.459-0.287-2.839-0.703-4.163l5.457-4.872c1.648-1.473,1.789-4,0.32-5.648   c-1.473-1.65-4.004-1.785-5.648-0.32l-4.664,4.165c-1.912-1.552-4.215-2.604-6.762-2.976V48c0-2.209-1.789-4-4-4s-4,1.791-4,4   v4.204c-2.526,0.369-4.812,1.406-6.715,2.937l-4.621-4.126c-1.641-1.465-4.18-1.33-5.648,0.32c-1.469,1.648-1.328,4.176,0.32,5.648   l5.386,4.809C202.294,63.136,202,64.537,202,66.02V68h-4c-2.211,0-4,1.791-4,4S195.789,76,198,76z M216.02,60h3.961   c3.32,0,6.02,2.701,6.02,6.02V77.98c0,3.318-2.699,6.02-6.02,6.02h-3.961c-3.32,0-6.02-2.701-6.02-6.02V66.02   C210,62.701,212.699,60,216.02,60z"/>
	<path d="M218,216c0,6.617,5.383,12,12,12s12-5.383,12-12s-5.383-12-12-12S218,209.383,218,216z M234,216c0,2.205-1.793,4-4,4   s-4-1.795-4-4s1.793-4,4-4S234,213.795,234,216z"/>
</g>















</svg>
