<?xml version="1.0" encoding="UTF-8"?>
<svg xmlns="http://www.w3.org/2000/svg" xmlns:xlink="http://www.w3.org/1999/xlink" version="1.1" id="nails2" x="0px" y="0px" viewBox="0 0 300 300" style="enable-background:new 0 0 300 300;" xml:space="preserve" width="512" height="512">
<g>
	<circle cx="236.828" cy="233.999" r="4"/>
	<circle cx="68.828" cy="225.999" r="4"/>
	<path d="M57.312,107.515c-1.562-1.562-4.094-1.562-5.656,0l-2.828,2.828L46,107.515c-1.562-1.562-4.094-1.562-5.656,0   s-1.562,4.094,0,5.656l2.828,2.828l-2.828,2.828c-1.562,1.562-1.562,4.094,0,5.656c0.781,0.781,1.805,1.172,2.828,1.172   s2.047-0.391,2.828-1.172l2.828-2.828l2.828,2.828c0.781,0.781,1.805,1.172,2.828,1.172s2.047-0.391,2.828-1.172   c1.562-1.562,1.562-4.094,0-5.656l-2.828-2.828l2.828-2.828C58.875,111.608,58.875,109.077,57.312,107.515z"/>
	<path d="M236.828,85.999c-6.617,0-12,5.383-12,12s5.383,12,12,12s12-5.383,12-12S243.445,85.999,236.828,85.999z M236.828,101.999   c-2.207,0-4-1.795-4-4s1.793-4,4-4s4,1.795,4,4S239.035,101.999,236.828,101.999z"/>
	<path d="M244.828,37.999h-60c-4.022,0-7.657,1.542-10.471,4h-41.529v-4c0-1.146-0.492-2.24-1.354-2.998   c-0.857-0.76-1.998-1.113-3.143-0.971l-64,8c-2.002,0.25-3.504,1.951-3.504,3.969v16c0,2.018,1.502,3.719,3.504,3.969l64,8   c0.166,0.021,0.332,0.031,0.496,0.031c0.969,0,1.912-0.352,2.646-1.002c0.861-0.758,1.354-1.852,1.354-2.998v-4h41.529   c2.814,2.458,6.449,4,10.471,4h60c8.824,0,16-7.178,16-16S253.652,37.999,244.828,37.999z M124.828,65.468l-56-7V49.53l8-1v1.469   c0,2.209,1.791,4,4,4s4-1.791,4-4V47.53l8-1v3.469c0,2.209,1.791,4,4,4s4-1.791,4-4V45.53l8-1v5.469c0,2.209,1.791,4,4,4   s4-1.791,4-4V43.53l8-1V65.468z M132.828,49.999h36.568c-0.334,1.286-0.568,2.611-0.568,4s0.234,2.714,0.568,4h-36.568V49.999z    M244.828,61.999h-60c-4.41,0-8-3.588-8-8s3.59-8,8-8h60c4.41,0,8,3.588,8,8S249.238,61.999,244.828,61.999z"/>
	<path d="M236.035,139.776c1.531-3.066,0.809-6.623-1.797-8.85c-2.613-2.227-6.23-2.381-9.02-0.393l-13.587,9.706   c-2.688-0.867-5.515-1.23-8.502-1.036c-0.675-11.161-5.371-20.884-12.22-26.882l-1.139-18.968   c-0.207-3.424-2.613-6.141-5.984-6.766c-3.348-0.605-6.582,1.051-8.004,4.172l-7.404,16.273c-5.152,1.574-9.847,4.927-13.549,9.774   c-3.649-4.779-8.265-8.101-13.331-9.703l-7.437-16.344c-1.418-3.121-4.635-4.793-8.008-4.172c-3.371,0.625-5.775,3.346-5.98,6.768   l-1.127,18.787c-6.96,5.982-11.741,15.79-12.422,27.06c-2.549-0.168-5.006,0.074-7.359,0.692l-13.104-9.36   c-2.787-1.994-6.414-1.838-9.02,0.391c-2.605,2.227-3.328,5.783-1.797,8.852l7.768,15.534c-3.337,8.852-2.835,19.594,1.461,29.63   c1.52,3.553,3.521,6.924,5.957,10.039l6.416,67.396c0.197,2.07,1.939,3.621,3.979,3.621c0.127,0,0.254-0.006,0.383-0.018   c2.199-0.209,3.812-2.162,3.604-4.361l-6.529-68.59c-0.076-0.797-0.389-1.553-0.898-2.17c-2.307-2.791-4.176-5.842-5.555-9.064   c-3.523-8.232-3.957-17.273-1.162-24.188c1.822-4.506,4.838-7.75,8.719-9.383c3.006-1.26,6.443-1.404,10.209-0.443   c1.225,0.312,2.531,0.029,3.516-0.771s1.529-2.02,1.473-3.285c-0.016-0.357-0.051-0.709-0.088-1.059   c-0.023-0.219-0.055-0.439-0.055-0.668c0-15.439,9.068-28,20.213-28c6.578,0,12.785,4.541,16.602,12.146   c1.352,2.703,5.797,2.703,7.148,0c3.816-7.605,10.023-12.146,16.602-12.146c11.145,0,20.211,12.561,20.211,28   c0,0.236-0.031,0.465-0.055,0.691c-0.035,0.338-0.066,0.678-0.086,1.023c-0.062,1.268,0.484,2.49,1.469,3.293   c0.98,0.803,2.297,1.088,3.52,0.775c3.773-0.965,7.211-0.816,10.207,0.443c3.883,1.633,6.898,4.877,8.723,9.381   c2.793,6.914,2.359,15.957-1.16,24.189c-1.379,3.221-3.25,6.271-5.559,9.064c-0.512,0.617-0.824,1.373-0.898,2.17l-6.527,68.59   c-0.211,2.199,1.402,4.152,3.602,4.361c2.242,0.215,4.152-1.406,4.359-3.604l6.414-67.396c2.441-3.115,4.441-6.486,5.961-10.037   c3.99-9.32,4.7-19.241,2.117-27.698L236.035,139.776z M91.132,143.989c-1.181,0.926-2.278,1.958-3.278,3.117l-4.247-8.494   L91.132,143.989z M127.896,96.528l4.375,9.617c-1.723,0.185-3.399,0.576-5.021,1.14L127.896,96.528z M181.945,96.528l0.651,10.817   c-1.625-0.58-3.304-0.989-5.032-1.189L181.945,96.528z M227.672,138.612l-4.883,9.767c-1.057-1.4-2.233-2.651-3.528-3.757   L227.672,138.612z"/>
	<path d="M100.828,156.679c-4.07,2.352-6.758,6.43-7.568,11.486c-0.76,4.75,0.252,9.84,2.846,14.334   c3.939,6.824,10.727,10.791,17.242,10.791c2.602,0,5.162-0.633,7.48-1.971c4.07-2.352,6.758-6.43,7.568-11.486   c0.76-4.75-0.252-9.84-2.846-14.334C120.039,155.95,108.953,151.987,100.828,156.679z M120.496,178.567   c-0.422,2.633-1.725,4.701-3.668,5.822c-4.295,2.482-10.488-0.16-13.793-5.891c-1.68-2.908-2.346-6.129-1.875-9.068   c0.422-2.633,1.725-4.701,3.668-5.822c1.096-0.633,2.314-0.934,3.578-0.934c3.689,0,7.752,2.557,10.215,6.824   C120.301,172.407,120.967,175.628,120.496,178.567z"/>
	<path d="M181.262,179.833c0.809,5.057,3.496,9.135,7.566,11.486c2.316,1.338,4.879,1.971,7.48,1.971   c6.516,0,13.301-3.969,17.242-10.791c2.594-4.494,3.605-9.584,2.844-14.334c-0.809-5.057-3.496-9.135-7.566-11.486   c-8.117-4.691-19.207-0.727-24.723,8.82C181.512,169.993,180.5,175.083,181.262,179.833z M191.035,169.499   c2.465-4.268,6.527-6.824,10.215-6.824c1.262,0,2.48,0.301,3.578,0.934c1.945,1.121,3.246,3.189,3.668,5.822   c0.469,2.939-0.195,6.16-1.875,9.068c-3.309,5.729-9.492,8.369-13.793,5.891c-1.945-1.121-3.246-3.189-3.668-5.822   C188.691,175.628,189.355,172.407,191.035,169.499z"/>
	<path d="M183.48,207.151c-3.836-12.391-15.516-21.152-28.652-21.152s-24.818,8.762-28.652,21.152   c-7.865,2.785-13.348,10.348-13.348,18.848c0,11.027,8.973,20,20,20c3.443,0,6.779-0.893,9.777-2.602   c7.664,3.414,16.781,3.416,24.445-0.002c3,1.711,6.336,2.604,9.777,2.604c11.027,0,20-8.973,20-20   C196.828,217.499,191.348,209.937,183.48,207.151z M176.828,237.999c-2.543,0-5.004-0.832-7.121-2.406   c-0.703-0.523-1.543-0.791-2.387-0.791c-0.66,0-1.32,0.162-1.922,0.492c-6.453,3.539-14.688,3.539-21.141,0   c-1.371-0.752-3.055-0.639-4.311,0.299c-2.113,1.574-4.576,2.406-7.119,2.406c-6.617,0-12-5.383-12-12   c0-5.611,3.982-10.539,9.469-11.719c1.531-0.328,2.729-1.52,3.066-3.047c2.205-9.986,11.234-17.234,21.465-17.234   s19.258,7.248,21.465,17.234c0.34,1.527,1.535,2.719,3.066,3.047c5.484,1.18,9.469,6.107,9.469,11.719   C188.828,232.616,183.445,237.999,176.828,237.999z"/>
	<path d="M134.828,153.999c7.852,0,14-7.906,14-18s-6.148-18-14-18c-7.85,0-14,7.906-14,18S126.979,153.999,134.828,153.999z    M134.828,125.999c2.838,0,6,4.107,6,10s-3.162,10-6,10s-6-4.107-6-10S131.99,125.999,134.828,125.999z"/>
	<path d="M174.828,117.999c-7.852,0-14,7.906-14,18s6.148,18,14,18s14-7.906,14-18S182.68,117.999,174.828,117.999z    M174.828,145.999c-2.84,0-6-4.107-6-10s3.16-10,6-10s6,4.107,6,10S177.668,145.999,174.828,145.999z"/>
</g>















</svg>
