<?xml version="1.0" encoding="UTF-8"?>
<svg xmlns="http://www.w3.org/2000/svg" xmlns:xlink="http://www.w3.org/1999/xlink" version="1.1" id="perfume" x="0px" y="0px" viewBox="0 0 300 300" style="enable-background:new 0 0 300 300;" xml:space="preserve" width="512" height="512">
<g>
	<circle cx="68" cy="122" r="4"/>
	<path d="M56,203.656l2.828,2.828c0.781,0.781,1.805,1.172,2.828,1.172s2.047-0.391,2.828-1.172c1.562-1.562,1.562-4.094,0-5.656   L61.656,198l2.828-2.828c1.562-1.562,1.562-4.094,0-5.656s-4.094-1.562-5.656,0L56,192.344l-2.828-2.828   c-1.562-1.562-4.094-1.562-5.656,0s-1.562,4.094,0,5.656L50.344,198l-2.828,2.828c-1.562,1.562-1.562,4.094,0,5.656   c0.781,0.781,1.805,1.172,2.828,1.172s2.047-0.391,2.828-1.172L56,203.656z"/>
	<circle cx="236" cy="62" r="4"/>
	<circle cx="224" cy="74" r="4"/>
	<circle cx="224" cy="50" r="4"/>
	<circle cx="252" cy="62" r="4"/>
	<circle cx="240" cy="74" r="4"/>
	<circle cx="240" cy="50" r="4"/>
	<path d="M240,250h-48.643C206.929,233.371,216,208.793,216,182.158c0-31.064-12.206-59.024-32.236-74.989   c0.117-0.376,0.236-0.754,0.236-1.169V86c0-2.209-1.789-4-4-4h-4v-8c0-2.209-1.789-4-4-4h-4.328v-4H212c2.211,0,4-1.791,4-4   s-1.789-4-4-4h-44.328v-1.984c0-5.523-4.492-10.016-10.016-10.016h-19.445c-5.523,0-10.016,4.492-10.016,10.016V58h-16.854   C108.272,48.765,94.73,42,78,42c-19.066,0-34,8.785-34,20s14.934,20,34,20c16.73,0,30.272-6.765,33.341-16h16.854v4H124   c-2.211,0-4,1.791-4,4v8h-4c-2.211,0-4,1.791-4,4v20c0,0.415,0.119,0.793,0.236,1.169C92.207,123.134,80,151.092,80,182.158   c0,26.635,9.071,51.213,24.643,67.842H56c-2.211,0-4,1.791-4,4s1.789,4,4,4h184c2.211,0,4-1.791,4-4S242.211,250,240,250z M78,74   c-15.32,0-26-6.324-26-12s10.68-12,26-12s26,6.324,26,12S93.32,74,78,74z M136.195,56.016c0-1.111,0.902-2.016,2.016-2.016h19.445   c1.113,0,2.016,0.904,2.016,2.016V70h-23.477V56.016z M128,78h40v4h-40V78z M120,90h56v12h-56V90z M116.223,250   C98.527,235.176,88,209.939,88,182.158c0-30.589,13.304-58.792,33.942-72.158h52.117c20.633,13.366,33.94,41.57,33.94,72.158   c0,27.781-10.527,53.018-28.223,67.842H116.223z"/>
	<path d="M187.973,191.623c3.207-6.242,1.543-13.516-3.707-16.217c-5.266-2.693-12.137,0.186-15.344,6.428   s-1.543,13.516,3.707,16.217c1.34,0.686,2.781,1.012,4.242,1.012C181.148,199.062,185.582,196.275,187.973,191.623z    M180.855,187.967c-1.219,2.369-3.461,3.529-4.57,2.969c-1.113-0.574-1.465-3.076-0.246-5.445c1.012-1.969,2.73-3.111,3.922-3.111   c0.242,0,0.461,0.047,0.648,0.143C181.723,183.096,182.074,185.598,180.855,187.967z"/>
	<path d="M162.336,176.588c6.805,0,12.133-6.719,12.133-15.295S169.141,146,162.336,146s-12.133,6.717-12.133,15.293   S155.531,176.588,162.336,176.588z M162.336,154c1.949,0,4.133,3.119,4.133,7.293c0,4.176-2.184,7.295-4.133,7.295   s-4.133-3.119-4.133-7.295C158.203,157.119,160.387,154,162.336,154z"/>
	<path d="M131.809,176.588c6.805,0,12.133-6.719,12.133-15.295S138.613,146,131.809,146s-12.133,6.717-12.133,15.293   S125.004,176.588,131.809,176.588z M131.809,154c1.949,0,4.133,3.119,4.133,7.293c0,4.176-2.184,7.295-4.133,7.295   s-4.133-3.119-4.133-7.295C127.676,157.119,129.859,154,131.809,154z"/>
	<path d="M126.504,182.244c-2.957-6.453-9.5-9.561-14.922-7.094c-5.406,2.479-7.324,9.475-4.367,15.932   c1.328,2.896,3.48,5.248,6.07,6.627c1.613,0.859,3.332,1.293,5.004,1.293c1.332,0,2.641-0.275,3.848-0.828   C127.543,195.697,129.461,188.699,126.504,182.244z M118.801,190.902c-0.629,0.281-1.434-0.084-1.758-0.256   c-1.031-0.549-1.965-1.605-2.555-2.896c-1.188-2.588-0.539-4.883,0.426-5.326c0.148-0.066,0.32-0.102,0.516-0.102   c1.086,0,2.797,1.059,3.801,3.254C120.414,188.164,119.77,190.457,118.801,190.902z"/>
	<path d="M163.477,192.824c-1.801-1.277-2.836-3.141-2.836-5.107c0-7.465-5.598-13.605-12.742-13.979   c-3.766-0.205-7.285,1.109-9.984,3.676c-2.668,2.529-4.199,6.09-4.199,9.768v0.535c0,1.965-1.035,3.828-2.844,5.109   c-4.285,3.041-6.461,8.182-5.676,13.412c0.852,5.629,5.32,10.346,10.871,11.473c0.949,0.191,1.906,0.287,2.855,0.287   c1.434,0,2.855-0.217,4.203-0.646c2.691-0.854,5.414-0.854,8.098,0c2.25,0.713,4.695,0.84,7.062,0.357   c5.555-1.123,10.023-5.84,10.875-11.471C169.945,201.006,167.77,195.865,163.477,192.824z M161.246,205.047   c-0.352,2.332-2.262,4.359-4.551,4.822c-1.043,0.213-2.074,0.166-3.051-0.143c-4.234-1.34-8.699-1.342-12.941,0.002   c-0.961,0.309-1.992,0.357-3.043,0.143c-2.289-0.465-4.199-2.492-4.551-4.824c-0.344-2.262,0.555-4.391,2.391-5.695   c3.891-2.76,6.215-7.109,6.215-11.635v-0.535c0-1.514,0.605-2.922,1.703-3.965c1.023-0.973,2.352-1.498,3.762-1.498   c0.098,0,0.199,0.002,0.301,0.008c2.844,0.148,5.16,2.836,5.16,5.99c0,4.527,2.32,8.877,6.211,11.635   C160.691,200.656,161.59,202.785,161.246,205.047z"/>
	<path d="M252,122h-4v-4c0-2.209-1.789-4-4-4s-4,1.791-4,4v4h-4c-2.211,0-4,1.791-4,4s1.789,4,4,4h4v4c0,2.209,1.789,4,4,4   s4-1.791,4-4v-4h4c2.211,0,4-1.791,4-4S254.211,122,252,122z"/>
</g>















</svg>
