<?xml version="1.0" encoding="UTF-8"?>
<svg xmlns="http://www.w3.org/2000/svg" xmlns:xlink="http://www.w3.org/1999/xlink" version="1.1" id="shower" x="0px" y="0px" viewBox="0 0 300 300" style="enable-background:new 0 0 300 300;" xml:space="preserve" width="512" height="512">
<g>
	<circle cx="58.828" cy="134.982" r="4"/>
	<path d="M250.828,86.982c-6.617,0-12,5.383-12,12s5.383,12,12,12s12-5.383,12-12S257.445,86.982,250.828,86.982z M250.828,102.982   c-2.205,0-4-1.795-4-4s1.795-4,4-4s4,1.795,4,4S253.033,102.982,250.828,102.982z"/>
	<path d="M55.312,174.498c-1.562-1.562-4.094-1.562-5.656,0l-2.828,2.828L44,174.498c-1.562-1.562-4.094-1.562-5.656,0   s-1.562,4.094,0,5.656l2.828,2.828l-2.828,2.828c-1.562,1.562-1.562,4.094,0,5.656c0.781,0.781,1.805,1.172,2.828,1.172   s2.047-0.391,2.828-1.172l2.828-2.828l2.828,2.828c0.781,0.781,1.805,1.172,2.828,1.172s2.047-0.391,2.828-1.172   c1.562-1.562,1.562-4.094,0-5.656l-2.828-2.828l2.828-2.828C56.875,178.592,56.875,176.061,55.312,174.498z"/>
	<path d="M242.828,62.982v-4h4c2.209,0,4-1.791,4-4s-1.791-4-4-4h-4v-4c0-2.209-1.791-4-4-4s-4,1.791-4,4v4h-4c-2.209,0-4,1.791-4,4   s1.791,4,4,4h4v4c0,2.209,1.791,4,4,4S242.828,65.191,242.828,62.982z"/>
	<path d="M208.828,88.982h4c2.209,0,4-1.791,4-4s-1.791-4-4-4h-4v-9.434c0-2.637-0.569-5.136-1.564-7.41   c0.059-0.052,0.135-0.071,0.191-0.127l5.656-5.656c1.562-1.562,1.562-4.094,0-5.656s-4.094-1.562-5.656,0l-4.978,4.978   c-3.273-2.885-7.519-4.695-12.215-4.695h-5.434v-4c0-2.209-1.791-4-4-4s-4,1.791-4,4v4h-5.434c-4.334,0-8.274,1.554-11.437,4.053   l-4.336-4.336c-1.562-1.562-4.094-1.562-5.656,0s-1.562,4.094,0,5.656l4.905,4.905c-1.263,2.506-2.042,5.295-2.042,8.288v9.434h-4   c-2.209,0-4,1.791-4,4s1.791,4,4,4h4v9.434c0,2.62,0.559,5.106,1.542,7.368l-4.405,4.405c-1.562,1.562-1.562,4.094,0,5.656   c0.781,0.781,1.805,1.172,2.828,1.172s2.047-0.391,2.828-1.172l3.558-3.558c1.657,1.46,3.549,2.637,5.649,3.437v15.309   c-2.414,1.827-4,4.695-4,7.949c0,2.26,0.782,4.323,2.051,6c-1.269,1.677-2.051,3.74-2.051,6s0.782,4.323,2.051,6   c-1.269,1.677-2.051,3.74-2.051,6c0,3.254,1.586,6.122,4,7.949v15.344c-2.1,0.8-3.992,1.977-5.648,3.437l-3.559-3.559   c-1.562-1.562-4.094-1.562-5.656,0s-1.562,4.094,0,5.656l4.406,4.406c-0.983,2.262-1.542,4.75-1.542,7.37v9.432h-4   c-2.209,0-4,1.791-4,4s1.791,4,4,4h4v9.434c0,2.993,0.779,5.782,2.042,8.289l-4.905,4.907c-1.562,1.562-1.562,4.096,0,5.656   c0.781,0.781,1.805,1.172,2.828,1.172s2.049-0.391,2.828-1.172l4.336-4.338c3.163,2.498,7.103,4.053,11.437,4.053h5.434v4   c0,2.209,1.791,4,4,4s4-1.791,4-4v-4h5.434c4.697,0,8.942-1.809,12.215-4.695l4.978,4.98c0.781,0.781,1.805,1.172,2.828,1.172   s2.047-0.391,2.828-1.172c1.562-1.561,1.562-4.094,0-5.656l-5.656-5.658c-0.056-0.056-0.133-0.074-0.191-0.127   c0.995-2.274,1.564-4.773,1.564-7.41v-9.434h4c2.209,0,4-1.791,4-4s-1.791-4-4-4h-4v-9.432c0-2.226-0.458-4.333-1.179-6.313   l5.462-5.462c1.562-1.562,1.562-4.094,0-5.656s-4.094-1.562-5.656,0l-4.201,4.201c-1.815-1.783-4.007-3.158-6.426-4.079v-15.344   c2.414-1.827,4-4.695,4-7.949c0-2.26-0.782-4.323-2.051-6c1.269-1.677,2.051-3.74,2.051-6s-0.782-4.323-2.051-6   c1.269-1.677,2.051-3.74,2.051-6c0-3.254-1.586-6.122-4-7.949v-15.309c2.42-0.921,4.612-2.296,6.427-4.079l4.2,4.2   c0.781,0.781,1.805,1.172,2.828,1.172s2.047-0.391,2.828-1.172c1.562-1.562,1.562-4.094,0-5.656l-5.462-5.462   c0.721-1.979,1.179-4.086,1.179-6.312V88.982z M192.828,150.982c0,1.104-0.896,2-2,2h-20c-1.104,0-2-0.896-2-2s0.896-2,2-2h20   C191.932,148.982,192.828,149.879,192.828,150.982z M172.828,185.018v-12.035h16v12.035H172.828z M192.828,162.982   c0,1.104-0.896,2-2,2h-20c-1.104,0-2-0.896-2-2s0.896-2,2-2h20C191.932,160.982,192.828,161.879,192.828,162.982z M170.828,140.982   c-1.104,0-2-0.896-2-2s0.896-2,2-2h20c1.104,0,2,0.896,2,2s-0.896,2-2,2H170.828z M172.828,128.982v-12h16v12H172.828z    M200.828,203.586v26.865c0,5.826-4.74,10.566-10.566,10.566h-18.867c-5.826,0-10.566-4.74-10.566-10.566v-26.865   c0-5.828,4.74-10.568,10.566-10.568h18.867C196.088,193.018,200.828,197.758,200.828,203.586z M190.262,108.982h-18.867   c-5.826,0-10.566-4.74-10.566-10.566V71.549c0-5.826,4.74-10.566,10.566-10.566h18.867c5.826,0,10.566,4.74,10.566,10.566v26.867   C200.828,104.242,196.088,108.982,190.262,108.982z"/>
	<circle cx="172.828" cy="76.982" r="4"/>
	<circle cx="188.828" cy="76.982" r="4"/>
	<circle cx="172.828" cy="92.982" r="4"/>
	<circle cx="188.828" cy="92.982" r="4"/>
	<circle cx="172.828" cy="208.982" r="4"/>
	<circle cx="188.828" cy="208.982" r="4"/>
	<circle cx="172.828" cy="224.982" r="4"/>
	<circle cx="188.828" cy="224.982" r="4"/>
	<path d="M135.986,79.93c0-12.652-10.295-22.947-22.947-22.947c-5.174,0-10.174,1.795-14.211,5.02   c-4.037-3.225-9.037-5.02-14.211-5.02c-12.652,0-22.947,10.295-22.947,22.947c0,11.289,8.193,20.701,18.947,22.598v96.91   c-10.754,1.896-18.947,11.309-18.947,22.598c0,12.652,10.295,22.947,22.947,22.947c5.174,0,10.174-1.795,14.211-5.02   c4.037,3.225,9.037,5.02,14.211,5.02c12.652,0,22.947-10.295,22.947-22.947c0-11.289-8.193-20.701-18.947-22.598v-96.91   C127.793,100.631,135.986,91.219,135.986,79.93z M127.986,222.035c0,8.242-6.705,14.947-14.947,14.947   c-3.802,0-7.424-1.576-10.211-4.251v-5.749c0-2.209-1.791-4-4-4s-4,1.791-4,4v5.754c-2.801,2.703-6.351,4.246-10.211,4.246   c-8.242,0-14.947-6.705-14.947-14.947s6.705-14.947,14.947-14.947c2.209,0,4-1.791,4-4V179.71l20.422-8.752v32.13   c0,2.209,1.791,4,4,4C121.281,207.088,127.986,213.793,127.986,222.035z M88.617,131.71l20.422-8.752v7.298l-20.422,8.752V131.71z    M88.617,147.71l20.422-8.752v7.298l-20.422,8.752V147.71z M88.617,163.71l20.422-8.752v7.298l-20.422,8.752V163.71z    M113.039,94.877c-2.209,0-4,1.791-4,4v15.378l-20.422,8.752v-24.13c0-2.209-1.791-4-4-4c-8.242,0-14.947-6.705-14.947-14.947   s6.705-14.947,14.947-14.947c3.86,0,7.41,1.543,10.211,4.246v5.754c0,2.209,1.791,4,4,4s4-1.791,4-4v-5.749   c2.787-2.675,6.409-4.251,10.211-4.251c8.242,0,14.947,6.705,14.947,14.947S121.281,94.877,113.039,94.877z"/>
</g>















</svg>
