<svg id="cyclops" enable-background="new 0 0 300 300" height="512" viewBox="0 0 300 300" width="512" xmlns="http://www.w3.org/2000/svg"><g><path d="m50 53.357c2.501 0 4.53-2.028 4.53-4.529 0-2.502-2.028-4.53-4.53-4.53s-4.53 2.028-4.53 4.53 2.029 4.529 4.53 4.529z"/><path d="m228 72.481v-13.653c0-2.209-1.789-4-4-4-4.538 0-8.68 1.578-12.04 4.135-18.829-13.139-40.864-20.135-63.96-20.135-23.105 0-45.129 6.999-63.955 20.139-3.361-2.56-7.504-4.139-12.045-4.139-2.211 0-4 1.791-4 4v13.653c-20.632 21.054-32 48.806-32 78.347 0 61.758 50.242 112 112 112s112-50.242 112-112c0-29.532-11.366-57.289-32-78.347zm-36.052 26.347c-.086-2.766-.506-5.445-1.234-8h17.286c2.211 0 4-1.791 4-4v-12c0-5.215 3.344-9.664 8-11.314v23.168c0 6.697-5.449 12.146-12.145 12.146zm-17.128 115.822 42.917 13.262c-17.537 15.881-40.501 25.854-65.737 26.815v-11.67c1.309-.25 2.582-.626 3.781-1.127l17.758-7.41c2.039-.852 3.004-3.193 2.152-5.232s-3.199-2.994-5.23-2.15l-17.758 7.41c-2.812 1.172-6.594 1.172-9.406 0l-17.758-7.41c-2.031-.848-4.379.107-5.23 2.15-.852 2.039.113 4.381 2.152 5.232l17.758 7.41c1.199.501 2.472.876 3.781 1.127v11.67c-25.267-.962-48.259-10.957-65.804-26.872l42.979-13.202c1.68-.516 2.824-2.068 2.824-3.824v-13.019l6.305 5.404c2.719 2.332 6.191 3.615 9.773 3.615h15.844c3.582 0 7.055-1.283 9.773-3.615l6.305-5.404v13.019c.001 1.753 1.146 3.304 2.821 3.821zm-14.328-17.511c-1.273 1.09-2.895 1.689-4.57 1.689h-15.844c-1.676 0-3.297-.6-4.57-1.689l-20.117-17.242c-2.152-1.848-3.391-4.537-3.391-7.379v-21.812c0-1.068-.426-2.092-1.188-2.844-.746-.74-1.758-1.156-2.812-1.156-.023.002-.051 0-.074 0-4.918 0-9.121-10.615-11.133-19.861l7.207.021v3.963c0 2.209 1.789 4 4 4s4-1.791 4-4v-30.97c0-13.803 11.23-25.031 25.031-25.031h21.938c13.801 0 25.031 11.229 25.031 25.031v30.969c0 2.209 1.789 4 4 4s4-1.791 4-4v-4.012l7.207-.021c-2.012 9.248-6.215 19.861-11.133 19.861-.012 0-.023 0-.035 0-.957.035-2.094.432-2.852 1.182-.762.752-1.188 1.799-1.188 2.867v21.812c0 2.842-1.238 5.531-3.395 7.381zm46.177-132.103c-1.65 2.907-2.669 6.218-2.669 9.792v8h-16.783c-5.792-9.569-16.269-16-28.249-16h-21.938c-11.979 0-22.457 6.431-28.249 16h-16.781v-8c0-3.573-1.019-6.882-2.667-9.788 17.319-11.878 37.499-18.212 58.667-18.212 21.156 0 41.347 6.331 58.669 18.208zm-130.669-1.522c4.656 1.65 8 6.1 8 11.314v12c0 2.209 1.789 4 4 4h17.286c-.728 2.555-1.148 5.234-1.234 8h-15.907c-6.696 0-12.145-5.449-12.145-12.146zm-32 87.314c0-24.573 8.463-47.82 24-66.452v2.306c0 11.109 9.035 20.146 20.145 20.146h15.855v12.037l-11.988-.037c-.004 0-.008 0-.012 0-1.156 0-2.258.502-3.02 1.375-.762.877-1.105 2.041-.941 3.191.68 4.74 4.402 26.537 15.961 30.643v18.48c0 5.18 2.254 10.082 6.188 13.453l5.812 4.982v16.92l-44.243 13.589c-17.209-18.562-27.757-43.384-27.757-70.633zm180.179 70.701-44.179-13.652v-16.926l5.809-4.979c3.934-3.371 6.191-8.275 6.191-13.455v-18.529c11.559-4.107 15.281-25.902 15.961-30.643.164-1.15-.18-2.314-.941-3.191-.762-.873-1.863-1.375-3.02-1.375-.004 0-.008 0-.012 0l-11.988.037v-11.988h15.855c11.109 0 20.145-9.037 20.145-20.146v-2.302c15.536 18.636 24 41.884 24 66.448 0 27.283-10.574 52.131-27.821 70.701z"/><path d="m239.516 55.312c.781.781 1.805 1.172 2.828 1.172s2.047-.391 2.828-1.172l2.828-2.828 2.828 2.828c.781.781 1.805 1.172 2.828 1.172s2.047-.391 2.828-1.172c1.562-1.562 1.562-4.094 0-5.656l-2.828-2.828 2.828-2.828c1.562-1.562 1.562-4.094 0-5.656s-4.094-1.562-5.656 0l-2.828 2.828-2.828-2.828c-1.562-1.562-4.094-1.562-5.656 0s-1.562 4.094 0 5.656l2.828 2.828-2.828 2.828c-1.563 1.563-1.563 4.094 0 5.656z"/><path d="m250 218.828c-7.719 0-14 6.281-14 14s6.281 14 14 14 14-6.281 14-14-6.281-14-14-14zm0 20c-3.309 0-6-2.691-6-6s2.691-6 6-6 6 2.691 6 6-2.691 6-6 6z"/><circle cx="148" cy="134.828" r="4"/><path d="m168.891 111.939c-5.363 6.625-12.98 10.426-20.891 10.426s-15.527-3.801-20.891-10.426c-1.391-1.717-3.91-1.986-5.625-.592-1.719 1.391-1.984 3.91-.594 5.627 3.308 4.083 7.314 7.303 11.717 9.577-1.619 1.904-3.047 4.099-4.217 6.554-.52 1.09-.52 2.355 0 3.445 4.266 8.939 11.598 14.277 19.609 14.277s15.344-5.338 19.609-14.277c.52-1.088.52-2.355 0-3.443-1.169-2.455-2.599-4.648-4.219-6.554 4.404-2.274 8.411-5.495 11.719-9.579 1.391-1.717 1.125-4.236-.594-5.627-1.713-1.394-4.233-1.124-5.623.592zm-9.407 22.889c-2.914 5.045-7.109 8-11.484 8s-8.57-2.955-11.484-8c1.241-2.149 2.74-3.917 4.4-5.262 2.318.51 4.686.799 7.084.799 2.397 0 4.764-.289 7.081-.799 1.665 1.346 3.164 3.113 4.403 5.262z"/><path d="m161.266 163.033-12-4c-.82-.273-1.711-.273-2.531 0l-12 4c-2.094.699-3.227 2.965-2.527 5.061.695 2.094 2.941 3.236 5.059 2.529l10.733-3.578 10.734 3.578c.422.141.848.207 1.266.207 1.676 0 3.234-1.061 3.793-2.736.699-2.096-.434-4.362-2.527-5.061z"/></g></svg>