<svg id="faun" enable-background="new 0 0 300 300" height="512" viewBox="0 0 300 300" width="512" xmlns="http://www.w3.org/2000/svg"><g><path d="m50 62.004c2.501 0 4.529-2.028 4.529-4.529 0-2.502-2.028-4.53-4.529-4.53s-4.529 2.028-4.529 4.53c0 2.501 2.028 4.529 4.529 4.529z"/><path d="m195.744 54.214c1.824-2.102 3.74-4.045 5.795-5.713 4.996-3.861 11.461-6.562 19.215-8.027 2.012-.379 3.41-2.215 3.246-4.256-.168-2.039-1.848-3.623-3.895-3.672-9.438-.23-18.012 1.447-25.402 5.004-5.016 2.529-9.816 5.98-14.764 10.61-20.432-6.059-42.653-6.145-63.126-.225-4.863-4.516-9.603-7.907-14.583-10.418-7.324-3.525-15.926-5.199-25.336-4.971-2.047.049-3.727 1.633-3.895 3.672-.164 2.041 1.234 3.877 3.246 4.256 7.755 1.465 14.22 4.166 19.142 7.971 1.979 1.604 3.814 3.457 5.567 5.44-39.596 18.322-64.954 57.626-64.954 101.589 0 61.758 50.242 112 112 112s112-50.242 112-112c0-43.605-25.089-82.796-64.256-101.26zm-22.164.486c-9.163 10.196-15.241 21.044-18.417 32.775h-13.326c-3.196-11.807-9.327-22.723-18.592-32.978 16.452-4 33.918-3.931 50.335.203zm-20.134 40.774c-.403 2.626-.714 5.282-.845 8h-8.203c-.131-2.718-.441-5.374-.845-8zm-36.52-36.068c13.168 14.395 19.57 30.119 19.57 48.068 0 2.209 1.789 4 4 4h16.008c2.211 0 4-1.791 4-4 0-17.949 6.402-33.674 19.566-48.066 2.152-2.35 4.234-4.438 6.277-6.289-1.648 2.273-3.176 4.703-4.582 7.281-3.25 5.871-5.797 12.721-8.023 21.594-1.793 7.42-3.797 18.527-3.969 25.381-.055 2.209 1.691 4.043 3.902 4.098.031.002.066.002.098.002 2.164 0 3.945-1.727 4-3.9.024-.986.109-2.124.217-3.318 3.827 4.488 6.009 10.24 6.009 16.25v14.969c0 2.209 1.789 4 4 4s4-1.791 4-4v-2.285c.28.241.558.486.797.773 1.23 1.48 1.758 3.346 1.484 5.258l-.918 6.428c-.426 2.992-2.84 5.352-5.867 5.734-1.996.254-3.496 1.955-3.496 3.969v21.812c0 2.842-1.238 5.531-3.395 7.381l-19.663 16.851-5.313-19c-.484-1.727-2.059-2.922-3.852-2.922h-7.555c-1.793 0-3.367 1.195-3.852 2.922l-5.312 19.003-19.668-16.857c-2.152-1.848-3.391-4.537-3.391-7.379v-21.812c0-2.014-1.5-3.715-3.496-3.969-3.027-.383-5.441-2.742-5.867-5.732l-.918-6.43c-.273-1.912.254-3.777 1.488-5.258.238-.286.515-.53.793-.771v2.283c0 2.209 1.789 4 4 4s4-1.791 4-4v-14.969c0-6.531 2.521-12.653 6.911-17.253.164 1.58.284 3.064.315 4.322.055 2.174 1.836 3.9 4 3.9.031 0 .066 0 .098-.002 2.211-.055 3.957-1.889 3.902-4.098-.172-6.854-2.176-17.961-3.977-25.416-2.219-8.838-4.766-15.688-8.004-21.535-1.41-2.588-2.941-5.027-4.598-7.309 2.05 1.853 4.132 3.941 6.281 6.291zm57.894 159.891 42.917 13.262c-17.537 15.88-40.501 25.854-65.737 26.814v-11.899c0-2.209-1.789-4-4-4s-4 1.791-4 4v11.899c-25.268-.962-48.259-10.957-65.804-26.872l42.979-13.202c1.68-.516 2.824-2.068 2.824-3.824v-13.018l6.301 5.401c.758.651 1.6 1.206 2.479 1.695l-.334 1.193c-.926 2.957-.398 6.096 1.449 8.609 1.895 2.58 4.969 4.119 8.223 4.119h11.766c3.254 0 6.328-1.539 8.223-4.119 1.848-2.514 2.375-5.652 1.484-8.492l-.369-1.32c.875-.487 1.718-1.034 2.475-1.684l6.305-5.404v13.019c-.001 1.754 1.144 3.305 2.819 3.823zm-34.707-6.278 7.145-25.545h1.484l7.18 25.662c.203.652-.031 1.166-.262 1.482-.188.258-.742.855-1.777.855h-11.766c-1.035 0-1.59-.598-1.777-.855-.231-.316-.465-.829-.227-1.599zm-96.113-57.545c0-41.412 24.226-78.375 61.91-95.059.803 1.247 1.591 2.514 2.324 3.859 2.906 5.246 5.211 11.484 7.25 19.598.718 2.978 1.446 6.499 2.073 10.03-8.497 6.22-13.557 15.992-13.557 26.604v3.756c-2.68.846-5.115 2.388-6.941 4.582-2.66 3.193-3.848 7.389-3.262 11.506l.918 6.432c.766 5.338 4.398 9.75 9.285 11.65v18.732c0 5.18 2.254 10.082 6.188 13.453l5.812 4.982v16.92l-44.243 13.589c-17.209-18.563-27.757-43.384-27.757-70.634zm180.179 70.701-44.179-13.652v-16.926l5.809-4.979c3.934-3.371 6.191-8.275 6.191-13.455v-18.732c4.887-1.9 8.52-6.312 9.285-11.652l.918-6.43c.586-4.117-.602-8.312-3.262-11.506-1.826-2.195-4.262-3.736-6.941-4.583v-3.755c0-10.142-4.734-19.697-12.672-25.941.65-3.745 1.421-7.51 2.18-10.657 2.047-8.148 4.352-14.387 7.27-19.656.661-1.214 1.38-2.349 2.099-3.483 37.207 16.852 61.123 53.676 61.123 94.706 0 27.283-10.574 52.131-27.821 70.701z"/><path d="m239.516 59.959c.781.781 1.805 1.172 2.828 1.172s2.047-.391 2.828-1.172l2.828-2.828 2.828 2.828c.781.781 1.805 1.172 2.828 1.172s2.047-.391 2.828-1.172c1.562-1.562 1.562-4.094 0-5.656l-2.828-2.828 2.828-2.828c1.562-1.562 1.562-4.094 0-5.656s-4.094-1.562-5.656 0l-2.828 2.827-2.828-2.828c-1.562-1.562-4.094-1.562-5.656 0s-1.562 4.094 0 5.656l2.828 2.828-2.828 2.828c-1.563 1.563-1.563 4.094 0 5.657z"/><path d="m250 223.474c-7.719 0-14 6.281-14 14s6.281 14 14 14 14-6.281 14-14-6.281-14-14-14zm0 20c-3.309 0-6-2.691-6-6s2.691-6 6-6 6 2.691 6 6-2.691 6-6 6z"/><path d="m140.301 161.959c1.402 1.252 3.488 1.516 4.988 1.516h5.422c1.5 0 3.586-.264 4.988-1.518l2.824-2.529c1.246-1.102 1.789-3.172 1.203-4.725-.793-2.082-2.984-3.229-6.176-3.229h-11.102c-3.191 0-5.383 1.146-6.176 3.229-.586 1.547-.047 3.607 1.188 4.711z"/><path d="m164 147.476c.418 0 .844-.066 1.266-.207l12-4c2.094-.699 3.227-2.965 2.527-5.061-.695-2.094-2.949-3.238-5.059-2.529l-12 4c-2.094.699-3.227 2.965-2.527 5.061.559 1.676 2.117 2.736 3.793 2.736z"/><path d="m116.207 138.209c-.699 2.096.434 4.361 2.527 5.061l12 4c.422.141.848.207 1.266.207 1.676 0 3.234-1.061 3.793-2.736.699-2.096-.434-4.361-2.527-5.061l-12-4c-2.118-.71-4.36.435-5.059 2.529z"/><path d="m154.09 167.496h-12c-2.211 0-4 1.791-4 4s1.789 4 4 4h12c2.211 0 4-1.791 4-4s-1.789-4-4-4z"/></g></svg>