<svg id="fear" enable-background="new 0 0 300 300" height="512" viewBox="0 0 300 300" width="512" xmlns="http://www.w3.org/2000/svg"><g><path d="m70 49.357c2.501 0 4.53-2.028 4.53-4.529 0-2.502-2.028-4.53-4.53-4.53s-4.53 2.028-4.53 4.53 2.029 4.529 4.53 4.529z"/><path d="m148 38.828c-61.758 0-112 50.242-112 112 0 61.746 50.223 111.98 111.965 111.999.006 0 .012.001.018.001h.006.012c61.758 0 112-50.242 112-112s-50.243-112-112.001-112zm0 8c57.346 0 104 46.654 104 104 0 27.104-10.432 51.812-27.48 70.342l-43.175-21.716c6.623-7.703 10.655-17.694 10.655-28.626v-12.56c25.454-5.698 40-15.613 40-27.44 0-12.34-15.255-21.307-36.173-26.556-1.76-18.657-22.511-33.444-47.827-33.444s-46.067 14.787-47.827 33.444c-20.918 5.249-36.173 14.216-36.173 26.556 0 11.828 14.546 21.742 40 27.44v12.56c0 10.786 3.917 20.665 10.382 28.326l-42.982 21.933c-17.001-18.521-27.4-43.195-27.4-70.259 0-57.346 46.654-104 104-104zm24 184h5.184c-8.311 15.333-18.736 23.997-29.196 24-.007 0-.014 0-.02 0-10.458-.008-20.875-8.672-29.185-23.999h5.217c2.209 0 4-1.791 4-4s-1.791-4-4-4h-3.737l10.506-11.521c5.295 2.263 11.118 3.521 17.231 3.521 6.013 0 11.746-1.219 16.971-3.412l10.556 11.412h-3.527c-2.209 0-4 1.791-4 4s1.791 3.999 4 3.999zm-24-24c-19.85 0-36-16.15-36-36v-46.264c10.33-1.068 22.409-1.736 36-1.736 13.607 0 25.679.665 36 1.726v46.274c0 19.85-16.15 36-36 36zm-44-56.753c-18.322-4.347-28.255-10.627-31.101-16.056 3.454-2.897 14.342-6.225 31.101-8.496zm44-43.247c35.198 0 61.934 7.817 71.802 16.672-15.809-5.941-44.794-8.672-71.802-8.672-26.977 0-56.004 2.736-71.815 8.684 9.858-8.86 36.602-16.684 71.815-16.684zm-39.458-4.394c3.028-13.354 19.542-23.606 39.458-23.606s36.43 10.252 39.458 23.606c-12.339-2.379-26.032-3.606-39.458-3.606s-27.119 1.227-39.458 3.606zm83.458 23.072c16.794 2.266 27.672 5.594 31.109 8.498-2.836 5.432-12.77 11.72-31.109 16.071zm-114.665 101.534 43.08-21.983c1.006.813 2.04 1.593 3.116 2.316l-14.093 15.455h-5.438c-2.209 0-4 1.791-4 4s1.791 4 4 4h5.789c4.335 8.873 9.295 16.017 14.702 21.287-17.931-4.161-34.096-12.957-47.156-25.075zm108.842 3.788h5.823c2.209 0 4-1.791 4-4s-1.791-4-4-4h-5.576l-14.173-15.323c1.024-.68 2.007-1.415 2.969-2.176l43.348 21.802c-13.054 12.081-29.201 20.847-47.106 24.994 5.413-5.27 10.376-12.419 14.715-21.297z"/><path d="m239.516 55.312c.781.781 1.805 1.172 2.828 1.172s2.047-.391 2.828-1.172l2.828-2.828 2.828 2.828c.781.781 1.805 1.172 2.828 1.172s2.047-.391 2.828-1.172c1.562-1.562 1.562-4.094 0-5.656l-2.828-2.828 2.828-2.828c1.562-1.562 1.562-4.094 0-5.656s-4.094-1.562-5.656 0l-2.828 2.828-2.828-2.828c-1.562-1.562-4.094-1.562-5.656 0s-1.562 4.094 0 5.656l2.828 2.828-2.828 2.828c-1.563 1.563-1.563 4.094 0 5.656z"/><path d="m250 218.828c-7.719 0-14 6.281-14 14s6.281 14 14 14 14-6.281 14-14-6.281-14-14-14zm0 20c-3.309 0-6-2.691-6-6s2.691-6 6-6 6 2.691 6 6-2.691 6-6 6z"/><circle cx="148" cy="226.828" r="4"/><circle cx="148" cy="242.828" r="4"/><path d="m144 142.828c0-6.617-5.383-12-12-12s-12 5.383-12 12 5.383 12 12 12 12-5.383 12-12zm-16 0c0-2.205 1.795-4 4-4s4 1.795 4 4-1.795 4-4 4-4-1.795-4-4z"/><path d="m164 130.828c-6.617 0-12 5.383-12 12s5.383 12 12 12 12-5.383 12-12-5.383-12-12-12zm0 16c-2.205 0-4-1.795-4-4s1.795-4 4-4 4 1.795 4 4-1.795 4-4 4z"/><path d="m164 158.828c-2.209 0-4 1.791-4 4v2.721c-2.516.553-5.216.933-8 1.112v-3.833c0-2.209-1.791-4-4-4s-4 1.791-4 4v3.833c-2.784-.178-5.484-.559-8-1.112v-2.721c0-2.209-1.791-4-4-4s-4 1.791-4 4v12c0 2.209 1.791 4 4 4s4-1.791 4-4v-1.118c2.559.485 5.235.825 8 .986v.132c0 2.209 1.791 4 4 4s4-1.791 4-4v-.132c2.765-.161 5.441-.501 8-.986v1.118c0 2.209 1.791 4 4 4s4-1.791 4-4v-12c0-2.209-1.791-4-4-4z"/></g></svg>