<svg id="forest-mom" enable-background="new 0 0 300 300" height="512" viewBox="0 0 300 300" width="512" xmlns="http://www.w3.org/2000/svg"><g><path d="m257.706 150.828c0-14.752-2.847-29.049-8.403-42.549.385-.467.77-.933 1.118-1.453 4.906-7.338 2.07-18.156 1.73-19.367-.551-1.957-2.473-3.195-4.484-2.867-.736.118-5.087.889-9.438 3.199-20.931-30.703-55.224-48.962-92.522-48.962-61.758 0-112 50.242-112 112 0 58.77 45.433 107.436 103.776 111.673 2.36 4.07 4.68 6.749 4.877 6.972.762.863 1.852 1.355 3 1.355h.078c1.176-.023 2.281-.562 3.023-1.475.179-.219 2.259-2.822 4.4-6.78 58.938-3.714 104.845-52.428 104.845-111.746zm-13.934-48.447c-2.262 3.385-5.98 4.434-7.633 4.471-.434-1.412-.734-4.986 1.609-8.494 1.566-2.342 4.707-3.916 7.383-4.852.289 2.902.192 6.551-1.359 8.875zm-148.473 85.199c-.088-.25-6.834-20.014-.609-33.247 1.6 4.707 5.076 8.665 9.68 10.778l2.156 14.549c1.726 11.647 12.583 20.846 22.949 26.148v1.02h-23.77c-2.209 0-4 1.791-4 4v1.484c0 2.539.442 4.971 1.219 7.249-4.752 3.091-8.513 7.51-10.827 12.645-9.264-10.789-8.375-24.571 2.744-41.06.708-1.048.876-2.373.458-3.566zm3.758-58.752c0-8.168 7.131-22.667 18.748-33.383 5.459 6.864 13.779 10.211 19.979 10.211 1.001 0 1.928-.106 2.796-.277-2.743 7.88-10.253 13.449-18.875 13.449-3.67 0-7.277-1.025-10.436-2.969-.961-.588-2.129-.744-3.217-.432-1.084.316-1.984 1.078-2.479 2.094-2.566 5.295-3.869 11.117-3.869 17.307v.748c-.256.093-.491.224-.739.333-1.223-2.317-1.908-4.683-1.908-7.081zm97.133 56.221c.832 1.25 18.919 28.94 3.118 47.094-2.296-5.134-6.024-9.482-10.823-12.577.779-2.279 1.221-4.713 1.221-7.253v-1.484c0-2.209-1.789-4-4-4h-23.77v-1.02c10.365-5.302 21.221-14.501 22.949-26.148l2.156-14.549c4.69-2.151 8.22-6.211 9.777-11.032 2.393 7.021 2.879 16.066-1.078 27.434-.409 1.181-.241 2.492.45 3.535zm-66.692 29.779c.069 4.808 2.263 9.069 5.656 12h-10.933c-7.146 0-13.104-5.191-14.297-12zm-27.792-67.797c0-.295.106-.553.163-.83.2-.123.355-.279.563-.397.992-.56 1.666-1.527 1.908-2.635.456-.182.942-.311 1.465-.324 2.17-.055 3.9-1.828 3.9-3.998v-4.02c0-3.525.52-6.887 1.547-10.043 3.316 1.346 6.863 2.043 10.453 2.043 10.057 0 19.055-5.402 24-13.59 4.941 8.188 13.941 13.59 24 13.59 3.594 0 7.137-.697 10.453-2.043 1.027 3.154 1.547 6.516 1.547 10.043v4.02c0 2.17 1.73 3.943 3.898 3.998 2.301.059 4.102 1.896 4.102 4.186v1.561c0 4.555-2.973 8.48-7.395 9.77-1.5.436-2.609 1.707-2.84 3.254l-2.5 16.873c-1.969 13.283-23.688 24.34-31.266 24.34s-29.299-11.055-31.266-24.34l-2.5-16.873c-.229-1.547-1.338-2.818-2.838-3.254-4.424-1.289-7.396-5.215-7.396-9.77v-1.561zm44 63.797c2.12 0 5.007-.593 8.23-1.658v5.428c0 4.539-3.691 8.23-8.23 8.23s-8.23-3.691-8.23-8.23v-5.428c3.223 1.065 6.109 1.658 8.23 1.658zm16.207 4h19.574c-1.195 6.809-7.152 12-14.297 12h-10.933c3.392-2.931 5.587-7.192 5.656-12zm27.793-79.433v-.567c0-6.193-1.301-12.018-3.871-17.307-.492-1.018-1.395-1.777-2.477-2.094s-2.258-.156-3.215.434c-3.16 1.941-6.766 2.967-10.438 2.967-8.596 0-16.075-5.535-18.84-13.373.747.119 1.525.201 2.364.201 6.203 0 14.526-3.351 19.983-10.224 11.235 10.634 18.126 25.135 18.126 33.396 0 2.181-.566 4.382-1.632 6.567zm-21.871-46.049c-3.245 4.853-7.858 7.052-11.38 7.892 2.839-4.144 4.904-9.718 4.904-16.136 0-2.291-.391-4.532-1.011-6.685 3.383-2.012 7.052-3.327 9.707-4.067.885 5.369 1.283 13.754-2.22 18.996zm-14.477-8.244c0 9.791-6.352 15.443-7.738 15.764-1.77-.293-8.955-6.08-8.955-15.764 0-6.27 4.994-13.033 8.713-17.02 3.132 3.637 7.98 10.346 7.98 17.02zm-19.36 15.98c-3.445-.934-7.742-3.128-10.822-7.737-3.484-5.213-3.09-13.611-2.213-18.992 2.448.681 5.764 1.844 8.919 3.594-.753 2.292-1.218 4.696-1.218 7.154.001 6.161 2.26 11.759 5.334 15.981zm-36.612 145.868.467-2.567c1.021-5.615 4.309-10.595 8.969-13.8 4.133 5.03 10.397 8.245 17.401 8.245h10.035c-1.196 3.235-1.94 6.927-1.94 10.803 0 2.948.561 5.819 1.407 8.496-13.016-1.491-25.275-5.363-36.339-11.177zm47.831 16.913c-2.367-3.771-4.902-9.121-4.902-14.232 0-4.647 1.3-8.306 2.691-10.803h4.336c1.229 2.482 2.363 6.121 2.363 10.803.001 5.342-2.41 10.648-4.488 14.232zm10.775-25.035h11.198c7.008 0 13.276-3.22 17.408-8.256 4.706 3.207 7.925 8.113 8.963 13.813l.476 2.614c-11.44 5.992-24.162 9.913-37.682 11.281.812-2.719 1.351-5.647 1.351-8.649 0-3.949-.649-7.621-1.714-10.803zm51.552-.316c11.891-17.109 3.921-40.029-3.628-52.237 6.578-20.705.461-34.977-6.773-43.832 1.457-3.135 2.195-6.359 2.195-9.615 0-12.225-9.438-29.391-22.196-40.721 3.373-10.579-.009-23.025-.183-23.646-.551-1.957-2.465-3.203-4.484-2.867-.373.059-8.046 1.331-15.304 5.373-3.718-6.6-8.614-11.211-8.946-11.517-1.492-1.383-3.781-1.426-5.32-.105-.355.303-5.557 4.831-9.574 11.348-7.105-3.82-14.442-5.043-14.797-5.098-1.994-.326-3.932.91-4.482 2.867-.175.622-3.565 13.098-.174 23.685-13.112 11.416-22.82 28.573-22.82 40.683 0 4.281 1.283 8.539 3.744 12.504-16.381 13.098-9.908 39.541-7.67 46.977-13.398 20.819-10.64 35.738-3.653 45.844-25.411-19.019-41.772-49.35-41.772-83.324 0-57.346 46.654-104 104-104 34.853 0 66.887 17.17 86.285 46.011-.294.362-.628.68-.891 1.073-2.23 3.336-3.391 7.32-3.262 11.219.125 3.889 1.496 7.078 3.676 8.535 1.152.768 2.781 1.174 4.641 1.174 2.019 0 4.306-.511 6.555-1.522 4.63 11.941 6.996 24.535 6.996 37.51-.001 34.267-16.515 64.719-42.163 83.681z"/><path d="m67.706 49.357c2.501 0 4.53-2.028 4.53-4.529 0-2.502-2.028-4.53-4.53-4.53s-4.53 2.028-4.53 4.53 2.028 4.529 4.53 4.529z"/><path d="m217.221 47.312c.781.781 1.805 1.172 2.828 1.172s2.047-.391 2.828-1.172l2.828-2.828 2.828 2.828c.781.781 1.805 1.172 2.828 1.172s2.047-.391 2.828-1.172c1.562-1.562 1.562-4.094 0-5.656l-2.828-2.828 2.829-2.828c1.562-1.562 1.562-4.094 0-5.656s-4.094-1.562-5.656 0l-2.828 2.828-2.828-2.828c-1.562-1.562-4.094-1.562-5.656 0s-1.562 4.094 0 5.656l2.828 2.828-2.828 2.828c-1.563 1.563-1.563 4.094-.001 5.656z"/><path d="m247.706 218.828c-7.719 0-14 6.281-14 14s6.281 14 14 14 14-6.281 14-14-6.282-14-14-14zm0 20c-3.309 0-6-2.691-6-6s2.691-6 6-6 6 2.691 6 6-2.692 6-6 6z"/><circle cx="165.706" cy="146.828" r="4"/><circle cx="125.706" cy="146.828" r="4"/><path d="m145.706 178.828c4.23 0 8.195-2.295 10.348-5.986.719-1.238.723-2.766.012-4.008-.715-1.24-2.035-2.006-3.469-2.006h-13.781c-1.432 0-2.754.766-3.469 2.006-.713 1.242-.709 2.77.012 4.008 2.151 3.691 6.116 5.986 10.347 5.986z"/><path d="m117.706 138.828h8c2.209 0 4-1.791 4-4s-1.791-4-4-4h-8c-2.209 0-4 1.791-4 4s1.791 4 4 4z"/><path d="m165.706 138.828h8c2.211 0 4-1.791 4-4s-1.789-4-4-4h-8c-2.211 0-4 1.791-4 4s1.789 4 4 4z"/><path d="m212.303 82.314c-7.43-4.76-18.195-1.709-19.395-1.348-1.945.588-3.141 2.541-2.781 4.539.215 1.182 2.293 11.672 9.645 16.381v.002c3.109 1.992 6.754 3.064 10.352 3.064.312 0 .621-.008.93-.023 3.887-.201 7.051-1.637 8.461-3.84 2.527-3.95.57-13.792-7.212-18.775zm-8.218 12.838c-2.371-1.52-4.004-4.633-4.996-7.289 2.91-.348 6.543-.324 8.902 1.189 3.426 2.193 4.551 5.891 4.617 7.545-1.402.456-4.965.825-8.523-1.445z"/><path d="m262.147 57.121c-2.969-2.834-6.824-4.605-10.859-4.994-8.867-.82-16.969 6.785-17.871 7.656-1.461 1.41-1.633 3.691-.402 5.307.73.953 7.367 9.34 16.055 10.174.609.059 1.223.086 1.832.086 4.352 0 8.656-1.461 11.801-4.057 1.496-1.234 3.328-3.236 3.566-5.746.249-2.574-1.294-5.725-4.122-8.426zm-12.312 10.178c-2.805-.268-5.68-2.291-7.773-4.203 2.426-1.641 5.676-3.281 8.461-3.004 4.055.389 6.742 3.164 7.555 4.604-1.036 1.05-4.04 3.007-8.243 2.603z"/></g></svg>