<svg id="gnome" enable-background="new 0 0 300 300" height="512" viewBox="0 0 300 300" width="512" xmlns="http://www.w3.org/2000/svg"><g><path d="m148 38.828c-61.758 0-112 50.242-112 112s50.242 112 112 112 112-50.242 112-112-50.242-112-112-112zm-28 212.14c-2.71-.759-5.384-1.602-8-2.571v-25.569h8zm-16-5.937c-.997-.467-1.979-.957-2.958-1.454.883-1.293 1.862-2.549 2.958-3.758zm24 7.848v-27.35c7.209-2.784 12-9.539 12-17.261v-2.207c2.598.499 5.272.767 8 .767s5.402-.268 8-.767v2.207c0 7.713 4.781 14.46 12 17.258v27.353c-6.476 1.267-13.159 1.949-20 1.949s-13.524-.682-20-1.949zm7.895-158.108h.105c2.119 0 3.885-1.713 3.998-3.842.013-.221.458-5.273 8.003-11.127 7.427 5.763 7.976 10.748 7.999 11.113.049 2.168 1.82 3.912 4 3.912 2.209 0 4-1.791 4-4 0-.657-.174-4.877-4.001-10.211 12.759 3.861 22.234 13.66 23.769 25.495-6.857-1.32-14.188-2.265-21.719-2.779-2.698-5.034-7.949-8.505-14.049-8.505s-11.35 3.471-14.049 8.505c-7.531.514-14.862 1.459-21.719 2.779 1.535-11.835 11.01-21.634 23.769-25.495-3.827 5.334-4.001 9.555-4.001 10.212 0 2.168 1.729 3.885 3.895 3.943zm53.96 20.836c1.424 2.357 2.145 4.781 2.145 7.221 0 4.85-2.824 8.805-5.699 11.576-3.668-1.398-7.879-4.451-12.297-7.654-3.921-2.844-7.942-5.757-12.186-8.001 1.242-2.157 2.001-4.607 2.114-7.241 9.216.751 18.093 2.124 25.923 4.099zm-41.855 3.221c-4.412 0-8-3.588-8-8s3.588-8 8-8 8 3.588 8 8-3.588 8-8 8zm-7.739 5.916c2.304 1.287 4.918 2.084 7.739 2.084s5.435-.797 7.739-2.084c3.878 1.706 7.78 4.321 11.607 7.073-12.654-1.172-26.037-1.172-38.691 0 3.826-2.751 7.728-5.368 11.606-7.073zm52.056 22.116c4.262.171 7.683 3.665 7.683 7.968 0 4.412-3.588 8-8 8-.306 0-.603-.056-.904-.089zm-86.172-31.253c7.83-1.975 16.708-3.348 25.924-4.1.113 2.635.872 5.084 2.114 7.241-4.242 2.244-8.264 5.157-12.184 8-4.418 3.205-8.629 6.258-12.299 7.658-2.875-2.771-5.699-6.729-5.699-11.578-.001-2.439.72-4.863 2.144-7.221zm-1.241 47.134c-.301.034-.597.087-.904.087-4.412 0-8-3.588-8-8 0-4.303 3.421-7.797 7.682-7.968zm6.463-20.293c22.311-4.679 50.955-4.678 73.266 0l-1.86 24.179c-1.389 18.057-16.664 32.201-34.773 32.201s-33.385-14.145-34.773-32.201zm80.633 97.387c1.092 1.206 2.088 2.45 2.967 3.738-.982.499-1.968.99-2.967 1.459zm-8 8.562c-2.616.968-5.29 1.812-8 2.571v-28.14h8zm17.964-8.696c-2.572-3.925-5.907-7.52-9.964-10.734v-10.138c0-2.209-1.791-4-4-4h-16c-1.494 0-2.747.855-3.433 2.069-2.815-1.948-4.567-5.122-4.567-8.63v-4.58c13.643-5.554 23.921-17.971 26.319-33.026.56.059 1.112.167 1.681.167 8.822 0 16-7.178 16-16 0-8.47-6.636-15.354-14.972-15.896 4.553-4.847 6.972-10.34 6.972-16.104 0-4.537-1.477-8.92-4.391-13.023-.541-.762-1.332-1.311-2.234-1.549-.471-.125-.989-.223-1.467-.344-.958-20.586-20.256-37.085-43.908-37.085s-42.95 16.499-43.908 37.084c-.478.121-.996.219-1.467.344-.902.238-1.693.787-2.234 1.549-2.914 4.103-4.391 8.486-4.391 13.023 0 5.764 2.418 11.257 6.972 16.104-8.336.542-14.972 7.426-14.972 15.896 0 8.822 7.178 16 16 16 .569 0 1.122-.104 1.682-.163 2.4 15.054 12.676 27.469 26.318 33.022v4.58c0 3.51-1.754 6.685-4.565 8.632-.687-1.215-1.94-2.071-3.435-2.071h-16c-2.209 0-4 1.791-4 4v10.151c-4.052 3.212-7.386 6.803-9.957 10.726-29.981-18.269-50.043-51.274-50.043-88.877 0-57.346 46.654-104 104-104s104 46.654 104 104c0 37.6-20.058 70.603-50.036 88.873z"/><path d="m70 49.357c2.501 0 4.53-2.028 4.53-4.529 0-2.502-2.028-4.53-4.53-4.53s-4.53 2.028-4.53 4.53 2.029 4.529 4.53 4.529z"/><path d="m239.516 55.312c.781.781 1.805 1.172 2.828 1.172s2.047-.391 2.828-1.172l2.828-2.828 2.828 2.828c.781.781 1.805 1.172 2.828 1.172s2.047-.391 2.828-1.172c1.562-1.562 1.562-4.094 0-5.656l-2.828-2.828 2.828-2.828c1.562-1.562 1.562-4.094 0-5.656s-4.094-1.562-5.656 0l-2.828 2.828-2.828-2.828c-1.562-1.562-4.094-1.562-5.656 0s-1.562 4.094 0 5.656l2.828 2.828-2.828 2.828c-1.563 1.563-1.563 4.094 0 5.656z"/><path d="m250 218.828c-7.719 0-14 6.281-14 14s6.281 14 14 14 14-6.281 14-14-6.281-14-14-14zm0 20c-3.309 0-6-2.691-6-6s2.691-6 6-6 6 2.691 6 6-2.691 6-6 6z"/><circle cx="168" cy="150.828" r="4"/><circle cx="128" cy="150.828" r="4"/><path d="m148 186.828c7.656 0 14.264-5.451 15.711-12.963.336-1.742-.119-3.527-1.25-4.896-1.123-1.359-2.777-2.141-4.539-2.141h-9.922-8.535c-3.332 0-5.107 1.305-6.012 2.4-1.061 1.283-1.484 2.975-1.164 4.637 1.447 7.512 8.055 12.963 15.711 12.963zm6.932-12c-1.396 2.416-4.012 4-6.932 4s-5.535-1.584-6.932-4z"/><path d="m160 154.828c0-2.209-1.791-4-4-4s-4 1.791-4 4c0 2.205-1.795 4-4 4s-4-1.795-4-4c0-2.209-1.791-4-4-4s-4 1.791-4 4c0 6.617 5.383 12 12 12s12-5.383 12-12z"/></g></svg>