<svg id="minotaur" enable-background="new 0 0 300 300" height="512" viewBox="0 0 300 300" width="512" xmlns="http://www.w3.org/2000/svg"><g><path d="m70 49.357c2.501 0 4.53-2.028 4.53-4.529 0-2.502-2.028-4.53-4.53-4.53s-4.53 2.028-4.53 4.53 2.029 4.529 4.53 4.529z"/><path d="m236 81.618v-10.79c0-2.209-1.789-4-4-4-2.87 0-5.587.632-8.057 1.726-20.75-19.172-47.597-29.726-75.943-29.726-28.351 0-55.199 10.553-75.946 29.725-2.469-1.093-5.185-1.725-8.054-1.725-2.211 0-4 1.791-4 4v10.789c-15.46 19.644-24 44.149-24 69.211 0 61.758 50.242 112 112 112s112-50.242 112-112c0-25.058-8.537-49.568-24-69.21zm-84 161.438c1.309-.25 2.582-.626 3.781-1.127l17.758-7.41c2.039-.852 3.004-3.193 2.152-5.232s-3.195-2.994-5.23-2.15l-17.758 7.41c-2.812 1.172-6.594 1.172-9.406 0l-17.758-7.41c-2.031-.848-4.379.107-5.23 2.15-.852 2.039.113 4.381 2.152 5.232l17.758 7.41c1.199.501 2.472.876 3.781 1.127v11.67c-25.494-.97-48.664-11.144-66.268-27.307l26.268-10.652v2.061c0 2.209 1.789 4 4 4s4-1.791 4-4v-29.379c0 5.579 3.437 10.361 8.302 12.365 1.405 7.397 7.897 13.014 15.698 13.014h24c7.801 0 14.293-5.617 15.698-13.014 4.865-2.005 8.302-6.786 8.302-12.365v29.379c0 2.209 1.789 4 4 4s4-1.791 4-4v-2.047l26.208 10.696c-17.596 16.131-40.744 26.281-66.208 27.25zm18.621-48.228h-45.242c-2.965 0-5.379-2.412-5.379-5.379v-11.355c0-8.418 6.848-15.266 15.266-15.266h25.469c8.418 0 15.266 6.848 15.266 15.266v11.355c-.001 2.967-2.415 5.379-5.38 5.379zm-3.734 8c-1.388 2.38-3.94 4-6.887 4h-24c-2.947 0-5.499-1.62-6.887-4zm17.398-41.486c-.188.473-.285.977-.285 1.486v15.266c0-12.828-10.438-23.266-23.266-23.266h-25.469c-12.828 0-23.266 10.438-23.266 23.266v-15.266c0-.51-.098-1.014-.285-1.486l-7.129-17.818 13.529-16.668 9.885 6.188v1.785h-4c-2.211 0-4 1.791-4 4s1.789 4 4 4h4v4c0 2.209 1.789 4 4 4s4-1.791 4-4v-16c0-1.379-.711-2.66-1.879-3.391l-12.782-8.001.602-13.399c.734-8.67 6.953-15.209 14.465-15.209h23.188c7.512 0 13.73 6.539 14.453 15.053l.613 13.556-12.781 8c-1.168.73-1.879 2.012-1.879 3.391v16c0 2.209 1.789 4 4 4s4-1.791 4-4v-4h4c2.211 0 4-1.791 4-4s-1.789-4-4-4h-4v-1.785l9.885-6.188 13.529 16.668zm-1.643-42.514-.614-13.467c-.074-.874-.282-1.691-.433-2.533h34.405c2.211 0 4-1.791 4-4v-12c0-5.215 3.344-9.664 8-11.314v31.168c0 6.697-5.449 12.146-12.145 12.146zm34.692-45.493c-3.281 3.565-5.334 8.279-5.334 13.493v8h-33.193c-3.952-7.22-11.044-12-19.214-12h-23.188c-8.149 0-15.225 4.758-19.187 12h-33.218v-8c0-5.215-2.054-9.93-5.335-13.494 19.096-17.115 43.547-26.506 69.335-26.506 25.78 0 50.236 9.393 69.334 26.507zm-149.334 2.179c4.656 1.65 8 6.1 8 11.314v12c0 2.209 1.789 4 4 4h34.418c-.163.892-.378 1.761-.457 2.689l-.603 13.311h-33.213c-6.695 0-12.145-5.449-12.145-12.146zm-24 75.314c0-19.589 5.669-38.786 16-55.262v11.116c0 11.109 9.035 20.146 20.145 20.146h27.688l-10.938 13.479c-.914 1.127-1.148 2.66-.609 4.008l7.714 19.283v44.537l-32.417 13.145c-17.108-18.543-27.583-43.293-27.583-70.452zm180.354 70.517-32.354-13.204v-44.543l7.715-19.283c.539-1.348.305-2.881-.609-4.008l-10.938-13.479h27.688c11.109 0 20.145-9.037 20.145-20.146v-11.119c10.332 16.477 16 35.676 16 55.265-.001 27.191-10.502 51.967-27.647 70.517z"/><path d="m239.516 55.312c.781.781 1.805 1.172 2.828 1.172s2.047-.391 2.828-1.172l2.828-2.828 2.828 2.828c.781.781 1.805 1.172 2.828 1.172s2.047-.391 2.828-1.172c1.562-1.562 1.562-4.094 0-5.656l-2.828-2.828 2.828-2.828c1.562-1.562 1.562-4.094 0-5.656s-4.094-1.562-5.656 0l-2.828 2.828-2.828-2.828c-1.562-1.562-4.094-1.562-5.656 0s-1.562 4.094 0 5.656l2.828 2.828-2.828 2.828c-1.563 1.563-1.563 4.094 0 5.656z"/><path d="m250 218.828c-7.719 0-14 6.281-14 14s6.281 14 14 14 14-6.281 14-14-6.281-14-14-14zm0 20c-3.309 0-6-2.691-6-6s2.691-6 6-6 6 2.691 6 6-2.691 6-6 6z"/><path d="m134.828 168c-1.562-1.562-4.094-1.562-5.656 0s-1.562 4.094 0 5.656l4 4c.781.781 1.805 1.172 2.828 1.172s2.047-.391 2.828-1.172c1.562-1.562 1.562-4.094 0-5.656z"/><path d="m161.172 168-4 4c-1.562 1.562-1.562 4.094 0 5.656.781.781 1.805 1.172 2.828 1.172s2.047-.391 2.828-1.172l4-4c1.562-1.562 1.562-4.094 0-5.656s-4.094-1.562-5.656 0z"/></g></svg>