<svg id="monkey-angel" enable-background="new 0 0 300 300" height="512" viewBox="0 0 300 300" width="512" xmlns="http://www.w3.org/2000/svg"><g><path d="m257.624 181.69c2.86-9.997 4.376-20.355 4.376-30.862 0-61.758-50.242-112-112-112s-112 50.242-112 112c0 10.502 1.521 20.857 4.382 30.858-2.198 1.79-3.754 4.296-4.22 7.156-.572 3.516.41 7.072 2.695 9.758 2.285 2.688 5.617 4.229 9.143 4.229h.688c-.666 1.891-.857 3.945-.525 5.986.93 5.709 6.203 10.014 12.266 10.014h.26c-.666 1.891-.857 3.945-.525 5.986.93 5.709 6.203 10.014 12.266 10.014h1.523c20.466 18.055 46.701 28 74.05 28 27.341 0 53.588-9.946 74.053-28h1.519c6.062 0 11.336-4.305 12.268-10.016.33-2.039.139-4.094-.527-5.984h.26c6.062 0 11.336-4.305 12.268-10.016.33-2.039.139-4.094-.527-5.984h.683c3.525 0 6.857-1.541 9.143-4.229 2.285-2.686 3.268-6.242 2.695-9.758-.465-2.857-2.019-5.362-4.214-7.152zm-211.624-30.862c0-57.346 46.654-104 104-104s104 46.654 104 104c0 9.546-1.355 18.954-3.897 28.047-.179-.008-.35-.047-.53-.047h-39.467c-19.908 0-36.105 16.197-36.105 36.105v3.587c-.15-.048-.289-.11-.439-.157-4.521-1.412-7.561-5.469-7.561-10.096v-1.489c11.833-6.293 20-19.294 20-34.32 0-.546-.074-1.086-.096-1.631h8.088c4.949 0 9.65-2.246 12.9-6.16 3.51-4.23 4.932-9.812 3.9-15.318l-3.67-19.579c1.001.411 2.044.739 3.127.958 1.143.23 2.291.346 3.432.346 3.328 0 6.586-.977 9.424-2.857 4.539-3.012 7.635-7.609 8.715-12.949 1.08-5.338.018-10.777-2.992-15.316-7.465-11.254-22.688-14.334-33.945-6.873-3.324 2.205-6.141 5.084-8.325 8.391-2.961-1.284-6.112-2.146-9.394-2.476l-7.283-29.136c-.445-1.779-2.045-3.029-3.881-3.029h-28c-1.836 0-3.436 1.25-3.881 3.029l-7.242 28.971h-.911c-5.034 0-9.851 1.218-14.184 3.394-2.239-3.628-5.215-6.765-8.802-9.144-11.254-7.467-26.482-4.377-33.945 6.873-3.01 4.539-4.072 9.979-2.992 15.316 1.08 5.34 4.176 9.938 8.715 12.949 2.838 1.881 6.094 2.857 9.424 2.857 1.141 0 2.289-.115 3.432-.346 1.986-.403 3.82-1.186 5.5-2.211l-3.906 20.832c-1.031 5.506.391 11.088 3.9 15.318 3.25 3.914 7.951 6.16 12.9 6.16h8.088c-.022.545-.096 1.085-.096 1.631 0 15.026 8.167 28.027 20 34.32v1.489c0 4.627-3.039 8.684-7.561 10.096-.151.047-.29.11-.439.157v-3.587c0-19.908-16.197-36.105-36.105-36.105h-39.468c-.179 0-.349.039-.526.046-2.544-9.096-3.902-18.503-3.902-28.046zm150.981 92.744c-13.269 6.726-27.901 10.494-42.981 11.073v-16.039c8.372-.928 16.092-4.785 21.948-10.9 9.132 3.686 16.508 9.247 21.033 15.866zm-72.929-15.866c5.856 6.115 13.575 9.972 21.948 10.9v16.038c-15.084-.578-29.718-4.34-42.985-11.067 4.525-6.621 11.902-12.184 21.037-15.871zm-34.062-117.71c1.445.957 2.43 2.422 2.773 4.121s.006 3.43-.953 4.875c-1.346 2.029-3.4 3.412-5.785 3.895-2.391.482-4.816.01-6.846-1.338-2.758-1.828-4.639-4.623-5.297-7.867-.656-3.244-.01-6.551 1.82-9.309 5.025-7.574 15.283-9.652 22.855-4.627 2.697 1.788 4.912 4.166 6.56 6.912-1.747 1.492-3.34 3.178-4.775 5.017-.912-3.418-2.957-6.373-5.932-8.346-1.838-1.225-4.32-.719-5.545 1.123-1.219 1.839-.717 4.321 1.125 5.544zm7.08 40.826 4.16-22.188c2.369-12.637 12.773-21.807 24.736-21.807h48.066c11.963 0 22.367 9.17 24.736 21.805l4.16 22.189c.592 3.16-.207 6.344-2.193 8.736-1.75 2.107-4.145 3.27-6.744 3.27h-9.15c-.481-1.984-1.158-3.901-1.929-5.777 10.362-4.123 16.689-14.939 14.73-26.422-1.631-9.555-9.074-17.299-18.52-19.268-.27-.057-.543-.084-.816-.084h-56.613c-.273 0-.547.027-.816.084-9.445 1.969-16.889 9.713-18.52 19.27-1.958 11.482 4.37 22.298 14.732 26.421-.772 1.875-1.448 3.793-1.93 5.776h-9.152c-2.6 0-4.994-1.162-6.744-3.27-1.986-2.391-2.784-5.575-2.193-8.735zm39.898-59.37 2.204 2.204c.775.777 1.801 1.172 2.83 1.172.871 0 1.746-.283 2.477-.861l7.621-6.016 7.381 5.984c1.59 1.287 3.898 1.172 5.348-.279l2.204-2.204 1.844 7.376h-33.751zm2.262-9.05 1.893-7.574h21.754l1.893 7.574-3.049 3.049-7.068-5.73c-1.455-1.178-3.531-1.193-4.998-.031l-7.342 5.795zm66.823 36.59c-1.979-2.982-1.162-7.018 1.82-8.996 1.842-1.223 2.344-3.705 1.123-5.545-1.223-1.842-3.707-2.346-5.545-1.123-2.426 1.609-4.269 3.856-5.362 6.484-1.423-1.582-2.974-3.024-4.646-4.301 1.56-2.265 3.549-4.233 5.861-5.765 7.576-5.027 17.83-2.949 22.855 4.627 1.83 2.758 2.477 6.064 1.82 9.309-.658 3.244-2.539 6.039-5.297 7.867-2.029 1.352-4.457 1.824-6.846 1.338-2.383-.483-4.438-1.866-5.783-3.895zm-83.256 31.514c-8.516-1.73-14.031-9.869-12.553-18.529 1.043-6.115 5.902-11.283 11.887-12.699h55.738c5.984 1.416 10.844 6.584 11.887 12.697 1.479 8.662-4.037 16.801-12.553 18.531-1.863.379-3.203 2.018-3.203 3.92v15.059c0 7.357-5.986 13.344-13.344 13.344h-21.312c-7.357 0-13.344-5.986-13.344-13.344v-15.059c0-1.903-1.34-3.541-3.203-3.92zm16.547 40.322h21.312c5.826 0 11.105-2.357 14.96-6.155-4.345 10.676-14.184 18.155-25.616 18.155s-21.271-7.479-25.616-18.155c3.855 3.798 9.133 6.155 14.96 6.155zm2.531 18.978c2.616.647 5.327 1.022 8.125 1.022s5.509-.376 8.125-1.022c.521 6.236 4.12 11.689 9.581 14.676-4.96 4.067-11.165 6.347-17.705 6.347s-12.745-2.28-17.705-6.347c5.459-2.988 9.059-8.441 9.579-14.676zm-71.816 13.725c-.197-1.215.119-2.383.893-3.293.762-.896 1.873-1.41 3.049-1.41h20c2.209 0 4-1.791 4-4s-1.791-4-4-4h-31.573c-2.148 0-4.068-1.449-4.369-3.297-.197-1.215.119-2.383.893-3.293.762-.896 1.873-1.41 3.049-1.41h20c2.209 0 4-1.791 4-4s-1.791-4-4-4h-32.001c-1.174 0-2.285-.514-3.049-1.412-.773-.908-1.09-2.078-.895-3.289.303-1.85 2.223-3.299 4.371-3.299h39.467c15.498 0 28.105 12.607 28.105 28.105v6.743c-3.243 1.506-6.266 3.229-9.048 5.151h-34.523c-2.149.001-4.069-1.448-4.369-3.296zm29.72 11.297c-1.392 1.565-2.654 3.191-3.766 4.882-2.486-1.512-4.897-3.157-7.26-4.882zm104.211 4.889c-1.113-1.693-2.376-3.322-3.77-4.888h11.04c-2.365 1.726-4.78 3.374-7.27 4.888zm49.059-46.301c-.764.898-1.875 1.412-3.049 1.412h-32c-2.209 0-4 1.791-4 4s1.791 4 4 4h20c1.176 0 2.287.514 3.049 1.41.773.91 1.09 2.078.895 3.291-.303 1.85-2.223 3.299-4.371 3.299h-31.573c-2.209 0-4 1.791-4 4s1.791 4 4 4h20c1.176 0 2.287.514 3.049 1.41.773.91 1.09 2.078.895 3.291-.303 1.85-2.223 3.299-4.371 3.299h-34.525c-2.782-1.922-5.805-3.645-9.048-5.151v-6.743c0-15.498 12.607-28.105 28.105-28.105h39.467c2.148 0 4.068 1.449 4.371 3.299.196 1.21-.121 2.38-.894 3.288z"/><path d="m72 49.357c2.501 0 4.53-2.028 4.53-4.529 0-2.502-2.028-4.53-4.53-4.53s-4.53 2.028-4.53 4.53 2.029 4.529 4.53 4.529z"/><path d="m252 244.299c-2.501 0-4.53 2.028-4.53 4.53 0 2.501 2.028 4.529 4.53 4.529s4.53-2.028 4.53-4.529c0-2.503-2.029-4.53-4.53-4.53z"/><path d="m241.516 55.312c.781.781 1.805 1.172 2.828 1.172s2.047-.391 2.828-1.172l2.828-2.828 2.828 2.828c.781.781 1.805 1.172 2.828 1.172s2.047-.391 2.828-1.172c1.562-1.562 1.562-4.094 0-5.656l-2.828-2.828 2.828-2.828c1.562-1.562 1.562-4.094 0-5.656s-4.094-1.562-5.656 0l-2.828 2.828-2.828-2.828c-1.562-1.562-4.094-1.562-5.656 0s-1.562 4.094 0 5.656l2.828 2.828-2.828 2.828c-1.563 1.563-1.563 4.094 0 5.656z"/><path d="m130.859 159.547c.695.48 1.486.711 2.271.711 1.27 0 2.518-.602 3.293-1.725.957-1.385 3.029-3.705 6.148-3.705h14.855c2.105 0 4.145 1.121 5.746 3.158 1.363 1.736 3.879 2.037 5.617.672 1.736-1.365 2.037-3.879.672-5.617-3.15-4.006-7.424-6.213-12.035-6.213h-14.855c-4.945 0-9.584 2.607-12.727 7.154-1.256 1.819-.801 4.309 1.015 5.565z"/><path d="m142 158.828c-2.209 0-4 1.791-4 4v4c0 2.209 1.791 4 4 4s4-1.791 4-4v-4c0-2.209-1.791-4-4-4z"/><path d="m158 158.828c-2.209 0-4 1.791-4 4v4c0 2.209 1.791 4 4 4s4-1.791 4-4v-4c0-2.209-1.791-4-4-4z"/><circle cx="126" cy="134.828" r="4"/><circle cx="174" cy="134.828" r="4"/></g></svg>