<svg id="pig" enable-background="new 0 0 300 300" height="512" viewBox="0 0 300 300" width="512" xmlns="http://www.w3.org/2000/svg"><g><path d="m70 49.357c2.501 0 4.529-2.028 4.529-4.529 0-2.502-2.028-4.53-4.529-4.53s-4.529 2.028-4.529 4.53 2.028 4.529 4.529 4.529z"/><path d="m148 38.828c-61.758 0-112 50.242-112 112s50.242 112 112 112 112-50.242 112-112-50.242-112-112-112zm0 8c57.348 0 104 46.654 104 104 0 25.22-9.03 48.368-24.018 66.393 0-.127.018-.266.018-.393 0-17.425-5.839-31.571-17.246-42.157.785-3.02 1.246-6.169 1.246-9.431v-.824c0-10.666-4.465-20.68-12.324-27.811.219-2.098.324-3.971.324-5.777v-2c0-1.243-.089-2.465-.187-3.684l1.69.891c4.055 2.164 9.273 4.949 15.934 4.949 5.176 0 11.223-1.684 18.27-6.65 1.391-.98 2.008-2.732 1.543-4.367-.285-.996-7.168-24.412-24.914-27.062-10.341-1.537-18.528 2.334-23.607 5.852-8.441-9.734-20.864-15.928-34.729-15.928h-12c-13.96 0-26.464 6.273-34.907 16.124-5.089-3.597-13.372-7.619-23.894-6.048-17.746 2.65-24.629 26.066-24.914 27.062-.465 1.635.152 3.387 1.543 4.367 7.051 4.967 13.098 6.65 18.273 6.65 6.66 0 11.875-2.785 15.926-4.947l1.742-.918c.14-.072.286-.097.427-.162-.107 1.279-.196 2.564-.196 3.871v2c0 1.807.105 3.68.324 5.777-7.859 7.131-12.324 17.145-12.324 27.811v.824c0 3.263.461 6.413 1.246 9.433-11.403 10.583-17.246 24.726-17.246 42.155 0 .127.018.266.018.393-14.988-18.025-24.018-41.172-24.018-66.393 0-57.346 46.652-104 104-104zm54.835 192.315-6.835-17.084v-26.099c4.842-3.413 8.847-7.925 11.636-13.189 8.199 8.768 12.364 20.194 12.364 34.057 0 2.998-.298 6.225-.815 9.718-5.012 4.714-10.483 8.941-16.35 12.597zm-74.835-36.315h40v16h-40zm46.41-8h-52.82c-16.316 0-29.59-13.273-29.59-29.588v-.824c0-8.986 4.031-17.387 11.055-23.047 1.09-.875 1.641-2.254 1.457-3.637-.348-2.66-.512-4.854-.512-6.904v-2c0-20.953 17.047-38 38-38h12c20.953 0 38 17.047 38 38v2c0 2.051-.164 4.244-.512 6.904-.184 1.383.367 2.762 1.457 3.637 7.023 5.66 11.055 14.061 11.055 23.047v.824c0 16.315-13.273 29.588-29.59 29.588zm-81.245 44.315c-5.867-3.656-11.338-7.883-16.35-12.597-.518-3.493-.815-6.72-.815-9.718 0-13.866 4.159-25.297 12.362-34.063 2.789 5.266 6.795 9.781 11.638 13.195v26.098zm4.633-122.918c-2.001.252-3.829.825-5.685 1.777l-1.852.977c-6.273 3.352-12.738 6.805-23.312.457 2.129-5.428 7.805-17.182 17.43-18.617 7.866-1.184 14.157 1.876 18.071 4.638-1.985 3.345-3.561 6.949-4.652 10.768zm95.616-10.991c3.915-2.68 10.081-5.564 17.742-4.416 9.723 1.451 15.34 13.18 17.441 18.611-10.582 6.355-17.051 2.896-23.324-.451l-1.855-.977c-1.672-.859-3.415-1.41-5.195-1.697-1.117-3.932-2.747-7.639-4.809-11.07zm-93.23 137.904 7.531-18.823c.188-.473.285-.977.285-1.486v-22.582c3.749 1.46 7.783 2.323 12 2.501v20.081c0 2.209 1.789 4 4 4h48c2.211 0 4-1.791 4-4v-20.081c4.217-.177 8.251-1.041 12-2.501v22.582c0 .51.098 1.014.285 1.486l7.531 18.823c-14.327 7.451-30.581 11.69-47.816 11.69s-33.489-4.239-47.816-11.69z"/><path d="m239.516 55.312c.781.781 1.805 1.172 2.828 1.172s2.047-.391 2.828-1.172l2.828-2.828 2.828 2.828c.781.781 1.805 1.172 2.828 1.172s2.047-.391 2.828-1.172c1.562-1.562 1.562-4.094 0-5.656l-2.828-2.828 2.828-2.828c1.562-1.562 1.562-4.094 0-5.656s-4.094-1.562-5.656 0l-2.828 2.828-2.828-2.828c-1.562-1.562-4.094-1.562-5.656 0s-1.562 4.094 0 5.656l2.828 2.828-2.828 2.828c-1.563 1.563-1.563 4.094 0 5.656z"/><path d="m250 218.828c-7.719 0-14 6.281-14 14s6.281 14 14 14 14-6.281 14-14-6.281-14-14-14zm0 20c-3.309 0-6-2.691-6-6s2.691-6 6-6 6 2.691 6 6-2.691 6-6 6z"/><path d="m158.836 126.877c-2.176-.34-4.23 1.146-4.574 3.328-.348 2.182 1.145 4.229 3.324 4.574 7.48 1.182 11.945 7.465 11.945 16.811v4.654c0 4.115-1.793 6.268-2.383 6.371-.316-.125-.648-.209-.988-.25l-14.367-1.729c-2.004-.447-5.664-.461-7.621-.025l-14.496 1.994c-.285.039-.574.123-.844.225-.57-.123-2.363-2.277-2.363-6.389v-4.852c0-9.346 4.465-15.629 11.945-16.811 2.18-.346 3.672-2.393 3.324-4.574-.344-2.184-2.391-3.672-4.574-3.328-8.625 1.361-18.695 8.652-18.695 24.713v4.852c0 5.521 2.141 10.441 5.586 12.842 1.473 1.027 3.098 1.551 4.742 1.551.777 0 1.562-.117 2.336-.354l11.91-1.639c-1.623 3.522-5.165 5.987-9.289 5.987h-1.754c-2.211 0-4 1.791-4 4s1.789 4 4 4h1.754c5.792 0 10.901-2.764 14.246-6.986 3.345 4.222 8.454 6.986 14.246 6.986h1.754c2.211 0 4-1.791 4-4s-1.789-4-4-4h-1.754c-4.128 0-7.673-2.468-9.294-5.996l11.825 1.424c2.379.74 4.93.354 7.082-1.111 3.5-2.381 5.672-7.324 5.672-12.9v-4.654c0-16.062-10.07-23.353-18.695-24.714z"/><circle cx="124" cy="122.828" r="4"/><circle cx="172" cy="122.828" r="4"/><path d="m164 150.828v-4c0-2.209-1.789-4-4-4s-4 1.791-4 4v4c0 2.209 1.789 4 4 4s4-1.791 4-4z"/><path d="m132 146.828v4c0 2.209 1.789 4 4 4s4-1.791 4-4v-4c0-2.209-1.789-4-4-4s-4 1.791-4 4z"/></g></svg>