<?xml version="1.0" encoding="UTF-8"?>
<svg xmlns="http://www.w3.org/2000/svg" xmlns:xlink="http://www.w3.org/1999/xlink" version="1.1" id="pinocchio" x="0px" y="0px" viewBox="0 0 300 300" style="enable-background:new 0 0 300 300;" xml:space="preserve" width="512" height="512">
<g>
	<path d="M148,38.828c-61.758,0-112,50.242-112,112s50.242,112,112,112s112-50.242,112-112S209.758,38.828,148,38.828z M148,46.828   c57.346,0,104,46.654,104,104c0,22.963-7.495,44.201-20.148,61.427c-4.143-1.304-12.146-2.857-27.852-4.934v-97.6   c0-28.062-22.83-50.893-50.893-50.893h-10.215C114.83,58.828,92,81.658,92,109.721v97.659c-15.46,2.316-23.337,4.066-27.407,5.499   C51.664,195.546,44,174.066,44,150.828C44,93.482,90.654,46.828,148,46.828z M132,226.828c-10.194,0-18.55-7.719-19.753-17.603   l5.571-2.843c1.338-0.684,2.182-2.059,2.182-3.562v-7.064c3.885,1.948,8.253,3.072,12.887,3.072h30.227   c4.634,0,9.001-1.124,12.887-3.072v7.499c0,1.512,0.852,2.895,2.203,3.574l5.49,2.761c-1.374,9.687-9.694,17.237-19.693,17.237H132   z M100,143.413c1.198,0.981,2.532,1.802,4,2.372v24.156c0,7.713,3.057,14.712,8,19.899v10.531l-12,6.123V143.413z M111.814,113.672   c-0.301-4.84,1.383-9.479,4.742-13.068c3.436-3.67,8.289-5.775,13.316-5.775h36.055c9.965,0,18.072,8.107,18.072,18.072v1.977   c0,2.146,1.693,3.91,3.838,3.996c1.922,0.078,3.729,0.969,4.957,2.443c1.232,1.48,1.76,3.346,1.488,5.256l-0.92,6.43   c-0.428,2.992-2.84,5.352-5.867,5.734c-1.998,0.254-3.496,1.955-3.496,3.969v19.244l-1.699-0.34   c-5.969-1.195-10.301-6.479-10.301-12.564c0-5.633-4.584-10.217-10.217-10.217h-27.566c-5.633,0-10.217,4.584-10.217,10.217   c0,6.086-4.332,11.369-10.301,12.564l-1.699,0.34v-19.244c0-2.014-1.498-3.715-3.496-3.969c-3.027-0.383-5.439-2.742-5.867-5.734   l-0.92-6.428c-0.271-1.912,0.256-3.777,1.488-5.258c1.188-1.426,2.914-2.305,4.764-2.432c1.055-0.002,2.094-0.414,2.859-1.18   C111.893,116.643,112.26,115.084,111.814,113.672z M163.113,190.828h-30.227c-11.462,0-20.781-9.283-20.87-20.724l3.253-0.651   c9.693-1.939,16.73-10.521,16.73-20.408c0-1.223,0.994-2.217,2.217-2.217h27.566c1.223,0,2.217,0.994,2.217,2.217   c0,9.887,7.037,18.469,16.73,20.408l3.253,0.651C183.894,181.545,174.575,190.828,163.113,190.828z M184,200.789V189.84   c4.943-5.186,8-12.186,8-19.899v-24.156c1.468-0.571,2.802-1.391,4-2.372v63.412L184,200.789z M196,113.529   c-1.24-0.86-2.595-1.541-4.035-1.99c-0.711-13.746-12.117-24.711-26.037-24.711h-7.045c5.349-3.114,13.297-6.425,24.1-7.823   C190.998,86.803,196,97.682,196,109.721V113.529z M148,84.583c-4.498-3.671-13.009-9.175-26.197-12.168   c6.235-3.539,13.422-5.587,21.089-5.587h10.215c7.667,0,14.854,2.048,21.089,5.587C161.009,75.408,152.498,80.912,148,84.583z    M113.017,79.006c10.803,1.397,18.751,4.709,24.1,7.823h-7.244c-7.232,0-14.215,3.029-19.156,8.309   c-4.289,4.584-6.697,10.355-6.92,16.479c-1.352,0.447-2.627,1.093-3.797,1.903v-3.798C100,97.682,105.002,86.803,113.017,79.006z    M96,234.828c2.209,0,4-1.791,4-4v-15.354l4.727-2.412c2.848,12.44,13.996,21.765,27.273,21.765h12v19.899   c-21.335-0.812-41.038-8.074-57.218-19.899H96z M152,234.828h12c13.082,0,24.206-9.2,27.184-21.469l4.816,2.422v15.047   c0,2.209,1.791,4,4,4h9.218c-16.18,11.824-35.883,19.087-57.218,19.899V234.828z M70.048,219.563   c4.987-1.221,13.597-2.792,21.952-4.09v11.355H77.112C74.641,224.522,72.285,222.097,70.048,219.563z M218.888,226.828H204v-11.436   c8.473,1.16,17.22,2.567,22.384,3.673C224.018,221.779,221.519,224.372,218.888,226.828z"/>
	<path d="M70,49.357c2.501,0,4.53-2.028,4.53-4.529c0-2.502-2.028-4.53-4.53-4.53s-4.53,2.028-4.53,4.53   C65.47,47.33,67.499,49.357,70,49.357z"/>
	<path d="M239.516,55.312c0.781,0.781,1.805,1.172,2.828,1.172s2.047-0.391,2.828-1.172L248,52.484l2.828,2.828   c0.781,0.781,1.805,1.172,2.828,1.172s2.047-0.391,2.828-1.172c1.562-1.562,1.562-4.094,0-5.656l-2.828-2.828L256.484,44   c1.562-1.562,1.562-4.094,0-5.656s-4.094-1.562-5.656,0L248,41.172l-2.828-2.828c-1.562-1.562-4.094-1.562-5.656,0   s-1.562,4.094,0,5.656l2.828,2.828l-2.828,2.828C237.953,51.219,237.953,53.75,239.516,55.312z"/>
	<path d="M250,218.828c-7.719,0-14,6.281-14,14s6.281,14,14,14s14-6.281,14-14S257.719,218.828,250,218.828z M250,238.828   c-3.309,0-6-2.691-6-6s2.691-6,6-6s6,2.691,6,6S253.309,238.828,250,238.828z"/>
	<circle cx="164" cy="122.828" r="4"/>
	<circle cx="132" cy="122.828" r="4"/>
	<path d="M156,150.828h-16c-2.209,0-4,1.791-4,4s1.791,4,4,4h16c2.209,0,4-1.791,4-4S158.209,150.828,156,150.828z"/>
</g>















</svg>
