<svg id="pirate" enable-background="new 0 0 300 300" height="512" viewBox="0 0 300 300" width="512" xmlns="http://www.w3.org/2000/svg"><g><path d="m148 38.828c-61.758 0-112 50.242-112 112s50.242 112 112 112 112-50.242 112-112-50.242-112-112-112zm32 60h-64v-23.547c0-2.455 1.998-4.453 4.453-4.453h55.094c2.455 0 4.453 1.998 4.453 4.453zm40 8c2.205 0 4 1.795 4 4s-1.795 4-4 4h-140c-2.205 0-4-1.795-4-4s1.795-4 4-4zm-96 18.781c0-1.533 1.248-2.781 2.781-2.781h17.219v13.219c0 1.533-1.248 2.781-2.781 2.781h-17.219zm-12 1.268v-4.049h4.41c-.24.893-.41 1.813-.41 2.781v15.562l-9.089 9.089c-2.237-.873-3.926-2.825-4.274-5.259l-.92-6.428c-.271-1.912.256-3.777 1.488-5.258 1.229-1.475 3.035-2.365 4.957-2.443 2.145-.085 3.838-1.849 3.838-3.995zm10.828 49.123c-1.562-1.562-4.094-1.562-5.656 0l-4 4c-.141.141-.202.323-.318.479-.55-1.232-.854-2.577-.854-3.961v-20.033l9.656-9.656h19.562c5.945 0 10.781-4.836 10.781-10.781v-13.219h32v4.049c0 2.146 1.693 3.91 3.838 3.996 1.922.078 3.729.969 4.957 2.443 1.232 1.48 1.76 3.346 1.488 5.256l-.92 6.43c-.428 2.992-2.84 5.352-5.867 5.734-1.998.254-3.496 1.955-3.496 3.969v21.812c0 1.384-.304 2.728-.854 3.96-.116-.156-.176-.337-.317-.478l-4-4c-1.562-1.562-4.094-1.562-5.656 0s-1.562 4.094 0 5.656l4 4c.23.23.513.355.779.518l-6.864 5.883-3.509-7.018c-.986-1.975-3.385-2.777-5.367-1.789-1.977.988-2.777 3.391-1.789 5.367l4 8c.135.271.317.499.501.723l-4.429 3.796c-1.273 1.092-2.896 1.691-4.57 1.691h-3.924v-12c0-2.209-1.791-4-4-4s-4 1.791-4 4v12h-3.924c-1.674 0-3.297-.6-4.568-1.689l-4.431-3.798c.184-.225.366-.453.501-.724l4-8c.988-1.977.188-4.379-1.789-5.367-1.982-.988-4.379-.186-5.367 1.789l-3.509 7.018-6.864-5.884c.266-.162.549-.287.779-.517l4-4c1.563-1.561 1.563-4.093 0-5.655zm42.569 77.345-1.265-4.331c9.708-2.652 16.965-8.532 22.562-18.186h5.306c2.209 0 4-1.791 4-4s-1.791-4-4-4h-7.49l-8.217-6.613 41.313 11.81c-14.356 12.957-32.335 21.957-52.209 25.32zm-31.294-11.986c-6.319-1.703-11.242-5.085-15.314-10.531h5.211c2.209 0 4-1.791 4-4s-1.791-4-4-4h-.021l14.845-12.112c.418.035.83.112 1.252.112h2.943zm21.821-30.531c.277 0 .546-.058.821-.073l15.055 12.114c-2.11.11-3.799 1.822-3.799 3.959 0 2.209 1.791 4 4 4h5.178c-4.064 5.447-8.978 8.821-15.284 10.522l-8.914-30.522zm9.461-3.391c.101-.082.216-.14.315-.224l2.301-1.972v4.301zm-35.082-.222c.026.022.057.037.083.06l-2.058 1.679-.038-3.464zm-18.979 15.613h-7.324c-2.209 0-4 1.791-4 4s1.791 4 4 4h5.272c5.604 9.651 12.872 15.541 22.593 18.194l-1.262 4.323c-19.892-3.366-37.886-12.378-52.25-25.355l40.532-11.331zm27.309 31.558 9.367-32.075 9.367 32.075c-3.088.277-6.208.442-9.367.442s-6.279-.165-9.367-.442zm85.504-32.813-48.137-13.762v-9.427l9.812-8.411c3.932-3.371 6.188-8.275 6.188-13.455v-18.732c4.887-1.9 8.52-6.314 9.281-11.65l.92-6.432c.588-4.117-.6-8.312-3.258-11.506-1.834-2.199-4.256-3.803-6.943-4.648v-.721h28c6.617 0 12-5.383 12-12s-5.383-12-12-12h-32v-23.548c0-6.867-5.586-12.453-12.453-12.453h-55.094c-6.867 0-12.453 5.586-12.453 12.453v23.547h-28c-6.617 0-12 5.383-12 12s5.383 12 12 12h24v.721c-2.688.846-5.109 2.449-6.943 4.648-2.658 3.193-3.846 7.389-3.258 11.508l.92 6.43c.762 5.336 4.395 9.75 9.281 11.65v18.732c0 5.18 2.256 10.084 6.188 13.453l10.027 8.595.102 9.387-48.508 13.562c-17.24-18.568-27.809-43.41-27.809-70.686 0-57.346 46.654-104 104-104s104 46.654 104 104c0 27.304-10.592 52.17-27.863 70.745z"/><path d="m70 49.357c2.501 0 4.53-2.028 4.53-4.529 0-2.502-2.028-4.53-4.53-4.53s-4.53 2.028-4.53 4.53 2.029 4.529 4.53 4.529z"/><path d="m239.516 55.312c.781.781 1.805 1.172 2.828 1.172s2.047-.391 2.828-1.172l2.828-2.828 2.828 2.828c.781.781 1.805 1.172 2.828 1.172s2.047-.391 2.828-1.172c1.562-1.562 1.562-4.094 0-5.656l-2.828-2.828 2.828-2.828c1.562-1.562 1.562-4.094 0-5.656s-4.094-1.562-5.656 0l-2.828 2.828-2.828-2.828c-1.562-1.562-4.094-1.562-5.656 0s-1.562 4.094 0 5.656l2.828 2.828-2.828 2.828c-1.563 1.563-1.563 4.094 0 5.656z"/><path d="m250 218.828c-7.719 0-14 6.281-14 14s6.281 14 14 14 14-6.281 14-14-6.281-14-14-14zm0 20c-3.309 0-6-2.691-6-6s2.691-6 6-6 6 2.691 6 6-2.691 6-6 6z"/><circle cx="164" cy="134.828" r="4"/><path d="m140 162.828h16c2.209 0 4-1.791 4-4s-1.791-4-4-4h-16c-2.209 0-4 1.791-4 4s1.791 4 4 4z"/></g></svg>