<svg id="wizard" enable-background="new 0 0 300 300" height="512" viewBox="0 0 300 300" width="512" xmlns="http://www.w3.org/2000/svg"><g><path d="m70 49.357c2.501 0 4.53-2.028 4.53-4.529 0-2.502-2.028-4.53-4.53-4.53s-4.53 2.028-4.53 4.53 2.029 4.529 4.53 4.529z"/><path d="m148 38.828c-61.758 0-112 50.242-112 112s50.242 112 112 112 112-50.242 112-112-50.242-112-112-112zm0 8c57.346 0 104 46.654 104 104 0 27.104-10.432 51.812-27.48 70.342l-12.52-6.298v-97.597c0-13.364-4.88-26.06-13.694-36.021 2.214-4.36 3.471-9.266 3.471-14.427 0-2.209-1.791-4-4-4h-59.33c-30.021.001-54.447 24.427-54.447 54.448v97.382l-12.599 6.429c-17.002-18.52-27.401-43.194-27.401-70.258 0-57.346 46.654-104 104-104zm24.93 43.795c-2.191.287-3.734 2.297-3.447 4.486.287 2.191 2.311 3.713 4.486 3.447 7.842-1.028 14.723-4.892 19.682-10.465 6.682 8.249 10.349 18.467 10.349 29.184v15.643l-54.514-21.805c-.957-.379-2.016-.379-2.973 0l-54.513 21.806v-15.643c0-25.611 20.836-46.447 46.447-46.447h54.994c-1.73 10.212-9.972 18.413-20.511 19.794zm7.675 89.275-8.605 7.376v-12.446c0-13.234-10.766-24-24-24s-24 10.766-24 24v12.445l-3.999-3.427c-.236-.232-.466-.474-.743-.637l-3.865-3.312c-2.156-1.848-3.393-4.537-3.393-7.379v-38.98l36-14.4 36 14.4v38.98c0 2.841-1.238 5.531-3.395 7.38zm-88.605-38.361 12-4.8v35.78c0 5.18 2.256 10.084 6.188 13.453l.206.176c-5.158 3.307-12.676 8.673-18.393 14.931v-59.54zm12.73 58.627c-.771 3.129-.865 6.191-.273 9.176 1.566 7.896 7.775 14.734 18.477 20.354-25.941-2.553-30.207-8.732-30.809-11.379-1.094-4.801 4.932-11.827 12.605-18.151zm7.575 7.619c-.901-4.547.914-9.724 5.349-15.413l6.346 5.44v23.305c-5.437-3.259-10.585-7.729-11.695-13.332zm31.273 21.256c-.514-1.025-1.443-1.783-2.551-2.076-.34-.09-.684-.135-1.027-.135-.781 0-1.555.23-2.219.672l-5.781 3.854v-56.525c0-8.822 7.178-16 16-16s16 7.178 16 16v55.628c-.42.021-.82.047-1.247.066l-4.534-3.022c-.959-.641-2.143-.838-3.246-.537-1.107.293-2.037 1.051-2.551 2.076l-4.422 8.845zm28.422-7.031v-24.197l7.062-6.053c4.653 6.049 6.496 11.542 5.465 16.355-1.27 5.925-6.789 10.561-12.527 13.895zm20.35-12.219c.645-3.01.613-6.104-.09-9.27 6.932 6.033 12.787 12.98 11.592 17.943-.635 2.637-4.816 8.686-29.131 11.215 10.054-5.507 15.978-12.183 17.629-19.888zm-6.312-24.056c3.777-3.363 5.962-8.147 5.962-13.215v-35.78l12 4.8v59.323c-5.78-6.505-13.312-12.026-17.962-15.128zm-108.704 41.307 8.024-4.094c3.923 8.124 16.376 12.902 38.642 14.868v1.015c0 1.475.812 2.83 2.113 3.527 1.297.693 2.875.615 4.105-.199l5.414-3.609c1.235.05 2.524.087 3.817.123l4.972 9.947c.678 1.355 2.062 2.211 3.578 2.211s2.9-.855 3.578-2.211l4.944-9.889c1.341-.03 2.678-.06 3.958-.105l5.302 3.534c1.229.818 2.807.893 4.105.199 1.301-.697 2.113-2.053 2.113-3.527v-.874c21.871-1.847 34.558-6.723 38.582-14.839l7.987 4.017c-18.556 17.173-43.352 27.696-70.569 27.696-27.264-.002-52.098-10.563-70.665-27.79z"/><path d="m239.516 55.312c.781.781 1.805 1.172 2.828 1.172s2.047-.391 2.828-1.172l2.828-2.828 2.828 2.828c.781.781 1.805 1.172 2.828 1.172s2.047-.391 2.828-1.172c1.562-1.562 1.562-4.094 0-5.656l-2.828-2.828 2.828-2.828c1.562-1.562 1.562-4.094 0-5.656s-4.094-1.562-5.656 0l-2.828 2.828-2.828-2.828c-1.562-1.562-4.094-1.562-5.656 0s-1.562 4.094 0 5.656l2.828 2.828-2.828 2.828c-1.563 1.563-1.563 4.094 0 5.656z"/><path d="m250 218.828c-7.719 0-14 6.281-14 14s6.281 14 14 14 14-6.281 14-14-6.281-14-14-14zm0 20c-3.309 0-6-2.691-6-6s2.691-6 6-6 6 2.691 6 6-2.691 6-6 6z"/><path d="m156 174.828c0-2.209-1.791-4-4-4h-8c-2.209 0-4 1.791-4 4s1.791 4 4 4h8c2.209 0 4-1.791 4-4z"/><circle cx="128" cy="138.828" r="4"/><circle cx="168" cy="138.828" r="4"/></g></svg>