<svg xmlns="http://www.w3.org/2000/svg" viewBox="0 0 51 51"><path fill="#D6D4D2" d="m48.184 35.944-.09.062a3.054 3.054 0 0 1-.547.292c-4.468 1.823-9.922 2.964-15.094 3.608-7.64.89-14.644.45-20.855-1.648-5.281-1.555-8.694-3.962-9.817-7.414a5.725 5.725 0 0 1-.28-1.776H1.5v-8.21l2.379.215c1.708-1.643 4.086-2.99 7.105-4.06 3.62-1.324 7.362-1.32 12.088-.557 2.816.568 5.174 1.77 7.142 3.511A7.415 7.415 0 0 1 32.4 23.32c.036.115.076.228.12.338l16.971 1.532.003 8.052a3.01 3.01 0 0 1-1.31 2.702z"/><path fill="#C4C2C0" d="m49.494 33.242-.003-8.052-16.97-1.532a4.349 4.349 0 0 1-.12-.338 7.415 7.415 0 0 0-2.187-3.353c-1.968-1.742-4.326-2.943-7.142-3.511-4.63-.747-8.316-.766-11.866.48V38.14c.13.04.26.08.392.118 6.211 2.098 13.215 2.538 20.855 1.648 5.172-.644 10.626-1.785 15.094-3.608.192-.078.375-.177.547-.292.03-.02.06-.04.09-.062a3.01 3.01 0 0 0 1.31-2.702z"/><path fill="#D6D4D2" d="m49.494 33.242-.003-8.052-16.97-1.532a4.349 4.349 0 0 1-.12-.338 7.415 7.415 0 0 0-2.187-3.353c-.147-.13-.297-.257-.449-.381v20.579a67.572 67.572 0 0 0 2.688-.26c5.172-.643 10.626-1.784 15.094-3.607.192-.078.375-.177.547-.292.03-.02.06-.04.09-.062a3.01 3.01 0 0 0 1.31-2.702z"/><path fill="#C4C2C0" d="m49.494 33.242-.003-8.052-10.172-.918v14.483c2.904-.626 5.721-1.434 8.228-2.457.192-.078.375-.177.547-.292.03-.02.06-.04.09-.062a3.01 3.01 0 0 0 1.31-2.702z"/><path fill="#E9E8E6" d="M48.184 27.568c-.03.02-.06.04-.09.062a3.053 3.053 0 0 1-.547.291c-4.468 1.823-9.922 2.965-15.094 3.608-7.64.89-14.644.45-20.855-1.647-5.282-1.555-8.694-3.963-9.817-7.415-.607-1.866-.209-3.908.997-5.456 1.717-2.205 4.472-3.955 8.206-5.276 3.62-1.325 7.362-1.32 12.088-.559 2.815.57 5.173 1.77 7.142 3.512a7.415 7.415 0 0 1 2.186 3.353c.359 1.164 1.183 2.072 2.342 2.795 2.608 1.23 6.148 1.489 9.39.975.101-.016.205-.029.308-.033 1.176-.06 2.231.08 3.15.447 2.251.901 2.592 3.968.594 5.343z"/><path fill="#D6D4D2" d="m31.263 21.517-.022-.014c-1.177-.614-2.16-1.412-2.806-2.527-.054-.15-.11-.297-.168-.44-.947-2.357-3.408-3.77-5.91-3.323-.113.02-.223.052-.33.094-.63.244-1.19.604-1.675 1.09a2.397 2.397 0 0 0-.692 1.507c.31-.213.641-.388.996-.526.107-.042.217-.074.33-.094 2.502-.447 4.963.966 5.91 3.324.058.143.114.289.168.44.646 1.114 1.629 1.913 2.806 2.526l.022.014c.206.124.36.282.467.46h.098l.166-.007c1.337-.076 1.788-1.835.64-2.524z"/><path fill="#C4C2C0" d="m31.263 21.517-.022-.014c-1.177-.614-2.16-1.412-2.806-2.527-.054-.15-.11-.297-.168-.44a5.443 5.443 0 0 0-2.994-3.014v2.883a5.454 5.454 0 0 1 1.623 2.203c.058.143.114.289.168.44.646 1.114 1.629 1.913 2.806 2.526l.022.014c.206.124.36.282.467.46h.098l.166-.007c1.337-.076 1.788-1.835.64-2.524z"/><path fill="#D6D4D2" d="m31.263 21.517-.022-.014a7.897 7.897 0 0 1-1.733-1.194v3.066c.118.069.239.135.362.2l.022.013c.206.124.36.282.467.46h.098l.166-.007c1.337-.076 1.788-1.835.64-2.524z"/><path fill="#B2B0AF" d="m29.892 23.588-.022-.014c-1.177-.613-2.16-1.412-2.806-2.527-.054-.15-.11-.296-.168-.44-.947-2.357-3.408-3.77-5.91-3.323-.113.02-.223.052-.33.094a4.86 4.86 0 0 0-.996.526 2.38 2.38 0 0 0 .536 1.708c.84 1.018 2.21 1.839 3.714 2.61 1.88.857 4.002 1.42 6.271 1.807.059.01.118.016.178.018a1.352 1.352 0 0 0-.467-.459z"/><path fill="#81D672" d="M7.347 16.167c1.643-.955 4.315-.955 5.969 0 .568.328.942.726 1.121 1.146.344-.806-.03-1.695-1.121-2.325-1.654-.955-4.326-.955-5.97 0-1.077.626-1.444 1.508-1.101 2.31.177-.414.544-.807 1.102-1.131z"/><path fill="#6DCB60" d="M13.316 14.988c-1.225-.707-3.008-.89-4.518-.55v1.18c1.51-.34 3.293-.158 4.518.549.568.328.942.726 1.121 1.146.344-.806-.03-1.695-1.121-2.325z"/><path fill="#3DB542" d="M13.316 14.988a4.966 4.966 0 0 0-1.114-.461v1.18c.402.114.779.267 1.114.46.568.328.942.726 1.121 1.146.344-.806-.03-1.695-1.121-2.325z"/><path fill="#2C9A2C" d="M7.367 18.445c1.653.955 4.325.955 5.968 0 .558-.324.925-.717 1.102-1.132-.18-.42-.553-.818-1.121-1.146-1.654-.955-4.326-.955-5.97 0-.557.324-.924.717-1.101 1.132.18.42.553.818 1.122 1.146z"/><path fill="#FFD651" d="M7.246 22.785c1.698-.987 4.46-.987 6.17 0 .587.339.974.75 1.16 1.184.355-.833-.031-1.752-1.16-2.403-1.71-.987-4.472-.987-6.17 0-1.115.647-1.494 1.56-1.14 2.389.183-.429.563-.835 1.14-1.17z"/><path fill="#FFE2A9" d="M13.416 21.566c-1.266-.731-3.109-.92-4.67-.569v1.22c1.561-.352 3.404-.163 4.67.568.587.339.974.75 1.16 1.184.355-.833-.031-1.752-1.16-2.403z"/><path fill="#FFD651" d="M13.416 21.566a5.134 5.134 0 0 0-1.15-.477v1.22c.414.118.804.276 1.15.476.587.339.974.75 1.16 1.184.355-.833-.031-1.752-1.16-2.403z"/><path fill="#DDB040" d="M7.266 25.14c1.71.986 4.472.986 6.17 0 .577-.336.956-.742 1.14-1.17-.186-.435-.573-.846-1.16-1.185-1.71-.987-4.472-.987-6.17 0-.577.335-.957.74-1.14 1.17.186.434.573.845 1.16 1.185z"/><path fill="#EDB5CF" d="M16.626 27.212c1.665-.967 4.373-.967 6.048 0 .576.333.954.736 1.136 1.161.35-.816-.03-1.717-1.136-2.356-1.675-.967-4.383-.967-6.048 0-1.092.635-1.464 1.529-1.116 2.342.18-.42.551-.818 1.116-1.147z"/><path fill="#E19CBD" d="M22.674 26.017c-1.24-.716-3.047-.901-4.577-.557v1.195c1.53-.344 3.336-.16 4.577.557.576.333.954.736 1.136 1.161.35-.816-.03-1.717-1.136-2.356z"/><path fill="#DD92B6" d="M22.674 26.017a5.032 5.032 0 0 0-1.128-.467v1.195c.407.117.789.271 1.128.467.576.333.954.736 1.136 1.161.35-.816-.03-1.717-1.136-2.356z"/><path fill="#C675A0" d="M16.646 29.52c1.676.967 4.383.967 6.047 0 .566-.328.938-.726 1.117-1.147-.182-.425-.56-.828-1.136-1.16-1.675-.968-4.383-.968-6.048 0-.565.328-.937.726-1.116 1.146.182.425.56.829 1.136 1.161z"/><path fill="#A0A8AA" d="M28.893 27.754c1.61-.936 4.23-.936 5.852 0 .557.321.923.712 1.1 1.123.337-.79-.03-1.661-1.1-2.28-1.622-.935-4.242-.935-5.852 0-1.057.615-1.417 1.48-1.08 2.267.173-.407.533-.792 1.08-1.11z"/><path fill="#8D9799" d="M34.745 26.598c-1.2-.693-2.949-.873-4.43-.54v1.157c1.481-.333 3.23-.154 4.43.539.557.322.923.712 1.1 1.123.337-.79-.03-1.661-1.1-2.28z"/><path fill="#7E8A8C" d="M34.745 26.598a4.869 4.869 0 0 0-1.092-.452v1.156a4.87 4.87 0 0 1 1.092.452c.557.321.923.712 1.1 1.123.337-.79-.03-1.661-1.1-2.28z"/><path fill="#6D797A" d="M28.912 29.987c1.62.936 4.241.936 5.851 0 .548-.318.908-.703 1.081-1.11-.176-.411-.542-.802-1.1-1.123-1.62-.936-4.24-.936-5.851 0-.547.318-.907.703-1.08 1.11.175.411.542.802 1.099 1.123z"/><path fill="#3F9AE0" d="M39.934 24.76c1.561-.908 4.1-.908 5.67 0 .54.31.895.689 1.066 1.088.327-.766-.029-1.61-1.066-2.209-1.57-.907-4.109-.907-5.67 0-1.024.595-1.372 1.433-1.047 2.195.169-.394.517-.767 1.047-1.075z"/><path fill="#82C6E0" d="M45.604 23.64c-1.163-.672-2.856-.846-4.29-.523v1.12c1.434-.323 3.127-.15 4.29.522.54.312.895.69 1.066 1.089.327-.766-.029-1.61-1.066-2.209z"/><path fill="#3F9AE0" d="M45.604 23.64a4.718 4.718 0 0 0-1.057-.439v1.12c.38.11.74.255 1.057.438.54.312.895.69 1.066 1.089.327-.766-.029-1.61-1.066-2.209z"/><path fill="#006CB5" d="M39.953 26.923c1.57.907 4.11.907 5.67 0 .53-.308.878-.681 1.047-1.075-.17-.399-.526-.777-1.066-1.089-1.57-.907-4.11-.907-5.67 0-.53.308-.878.681-1.047 1.075.171.4.526.778 1.066 1.09z"/><path fill="#FFF" d="M13.82 30.06a.194.194 0 0 1 0 .373 3.796 3.796 0 0 0-1.503.925 3.796 3.796 0 0 0-.925 1.503.194.194 0 0 1-.373 0 3.8 3.8 0 0 0-2.429-2.429.194.194 0 0 1 0-.373 3.796 3.796 0 0 0 1.504-.924c.415-.416.737-.93.925-1.505a.194.194 0 0 1 .373 0 3.796 3.796 0 0 0 2.43 2.43z"/></svg>