<svg id="Capa_1" enable-background="new 0 0 497.028 497.028" height="512" viewBox="0 0 497.028 497.028" width="512" xmlns="http://www.w3.org/2000/svg"><g><path d="m82.833 176.764c-49.516 28.618-82.833 82.153-82.833 143.472 0 91.495 74.172 165.667 165.667 165.667 30.176 0 58.465-8.081 82.833-22.177v-215.239z" fill="#b3efff"/><path d="m248.5 11.098c-91.486 0-165.652 74.157-165.666 165.64l165.666 71.748 165.666-71.735c-.014-91.483-74.18-165.653-165.666-165.653z" fill="#b3efff"/><path d="m474.805 403.069c45.748-79.237 18.599-180.557-60.638-226.305l-144.947 107.611-20.72 179.332c79.237 45.748 180.557 18.599 226.305-60.638z" fill="#a6cef4"/><path d="m448.824 388.069c44.994-77.932 30.723-170.741-31.495-209.419-1.05-.639-2.098-1.282-3.163-1.899l-165.666 71.735v215.239c64.888 37.463 154.577 3.581 200.324-75.656z" fill="#b3efff"/><g fill="#a6cef4"><path d="m165.667 320.263c.01 61.308 33.324 114.831 82.833 143.471 49.509-28.641 82.823-82.163 82.833-143.471z"/><path d="m248.5 176.738c-24.368-14.097-52.657-22.168-82.833-22.168s-58.465 8.072-82.833 22.168c0 61.346 33.317 114.88 82.833 143.525 0-.027 82.833-143.525 82.833-143.525z"/><path d="m414.166 176.738c-24.368-14.097-52.657-22.168-82.833-22.168s-58.465 8.072-82.833 22.168l82.833 143.498c49.517-28.618 82.834-82.153 82.833-143.498z"/></g><path d="m248.5 176.738c-49.516 28.645-82.833 82.179-82.833 143.498 24.368 14.123 52.657 22.195 82.833 22.195s58.465-8.072 82.833-22.168c0-61.346-33.317-114.88-82.833-143.525z" fill="#9aadea"/></g></svg>