<svg id="Capa_1" enable-background="new 0 0 497 497" height="512" viewBox="0 0 497 497" width="512" xmlns="http://www.w3.org/2000/svg"><g><circle cx="248.5" cy="248.5" fill="#293560" r="248.5"/><path d="m248.5.005-215.203 124.248.001 248.495 215.202 124.247 215.203-124.247.001-248.495z" fill="#484686"/><path d="m248.5.005c21.489 37.119 61.629 62.142 107.604 62.142-22.988-39.815-64.714-62.092-107.604-62.142z" fill="#806cd4"/><path d="m248.5.005c-21.107-.015-42.531 5.351-62.125 16.664-19.606 11.32-34.957 27.177-45.498 45.478 45.994 0 86.135-25.023 107.623-62.142z" fill="#8d8ddf"/><path d="m140.936 62.159 107.564 62.091c21.43 37.171 22.991 84.428 0 124.25-45.983 0-86.129-24.981-107.615-62.111z" fill="#9cf183"/><path d="m140.878 62.125.059.034c22.958 39.825 21.376 87.073-.051 124.23-10.578-18.279-16.635-39.501-16.635-62.139 0-22.632 6.054-43.849 16.627-62.125z" fill="#39e66d"/><path d="m203.021 78.771c-19.606-11.32-41.015-16.685-62.135-16.663 21.474 37.155 61.625 62.142 107.614 62.142-10.522-18.301-25.873-34.159-45.479-45.479z" fill="#39e66d"/><path d="m356.064 62.159-107.564 62.091c-21.43 37.171-22.991 84.428 0 124.25 45.983 0 86.129-24.981 107.615-62.111z" fill="#9cf183"/><path d="m356.123 62.125-.059.034c-22.958 39.825-21.376 87.073.051 124.23 10.578-18.279 16.635-39.501 16.635-62.139 0-22.632-6.054-43.849-16.627-62.125z" fill="#39e66d"/><path d="m356.123 62.125c-21.13-.039-42.539 5.326-62.145 16.646-19.606 11.319-34.957 27.177-45.498 45.478 46.009.001 86.16-24.987 107.643-62.124z" fill="#39e66d"/><path d="m248.5 496.995c21.489-37.119 61.629-62.142 107.604-62.142-22.988 39.815-64.714 62.092-107.604 62.142z" fill="#806cd4"/><path d="m248.5 496.995c-21.107.015-42.531-5.351-62.125-16.664-19.606-11.32-34.957-27.177-45.498-45.478 45.994 0 86.135 25.023 107.623 62.142z" fill="#8d8ddf"/><path d="m140.936 434.841 107.564-62.091c21.43-37.171 22.991-84.428 0-124.25-45.983 0-86.129 24.981-107.615 62.111z" fill="#9cf183"/><path d="m140.878 434.875.059-.034c22.958-39.825 21.376-87.073-.051-124.23-10.578 18.279-16.635 39.501-16.635 62.139 0 22.632 6.054 43.849 16.627 62.125z" fill="#39e66d"/><path d="m203.021 418.229c-19.606 11.32-41.015 16.685-62.135 16.663 21.474-37.155 61.625-62.142 107.614-62.142-10.522 18.301-25.873 34.159-45.479 45.479z" fill="#39e66d"/><path d="m356.064 434.841-107.564-62.091c-21.43-37.171-22.991-84.428 0-124.25 45.983 0 86.129 24.981 107.615 62.111z" fill="#9cf183"/><path d="m356.123 434.875-.059-.034c-22.958-39.825-21.376-87.073.051-124.23 10.578 18.279 16.635 39.501 16.635 62.139 0 22.632-6.054 43.849-16.627 62.125z" fill="#39e66d"/><path d="m356.123 434.875c-21.13.039-42.539-5.326-62.145-16.646-19.606-11.319-34.957-27.177-45.498-45.478 46.009-.001 86.16 24.987 107.643 62.124z" fill="#39e66d"/><path d="m33.297 124.253c42.89-.05 84.631-22.301 107.619-62.116-45.975 0-86.13 24.998-107.619 62.116z" fill="#8d8ddf"/><path d="m33.297 124.253c-10.566 18.272-16.631 39.509-16.631 62.134 0 22.639 6.058 43.862 16.636 62.142 22.998-39.833 21.397-87.107-.005-124.276z" fill="#8d8ddf"/><path d="m33.343 248.483 107.554-62.108c42.906.027 84.613 22.303 107.604 62.125-22.992 39.823-64.699 62.099-107.597 62.142z" fill="#9cf183"/><path d="m33.284 248.517.059-.034c45.969.03 86.095 25.025 107.561 62.159-21.119.021-42.527-5.344-62.132-16.663-19.6-11.316-34.947-27.168-45.488-45.462z" fill="#39e66d"/><path d="m78.772 203.022c-19.606 11.32-34.957 27.177-45.498 45.479 42.914-.02 84.629-22.297 107.623-62.125-21.111-.039-42.519 5.326-62.125 16.646z" fill="#39e66d"/><path d="m140.907 62.177-.01 124.199c21.476 37.145 61.621 62.125 107.604 62.125 22.992-39.823 21.43-87.081.018-124.253z" fill="#6858ad"/><path d="m140.907 62.109v.068c23.011 39.795 64.72 62.048 107.612 62.071-10.542-18.3-25.892-34.157-45.497-45.476-19.6-11.316-41.002-16.681-62.115-16.663z" fill="#39e66d"/><path d="m140.907 62.109c-10.599 18.279-16.657 39.503-16.657 62.142s6.058 43.862 16.636 62.142c23.005-39.845 21.441-87.11.021-124.284z" fill="#39e66d"/><path d="m463.703 372.748c-21.401-37.169-23.003-84.443-.015-124.259 22.988 39.816 21.417 87.09.015 124.259z" fill="#806cd4"/><path d="m463.703 372.748c-10.541 18.286-25.9 34.157-45.494 45.47-19.606 11.319-41.014 16.685-62.134 16.663 22.997-39.832 64.738-62.083 107.628-62.133z" fill="#806cd4"/><path d="m356.094 434.824.01-124.199c-21.476-37.145-61.621-62.125-107.603-62.125-22.992 39.823-21.43 87.081-.018 124.253z" fill="#6858ad"/><path d="m356.094 434.892v-.068c-23.011-39.795-64.72-62.048-107.612-62.071 10.542 18.3 25.892 34.157 45.497 45.476 19.6 11.316 41.002 16.681 62.115 16.663z" fill="#0bcc63"/><path d="m372.75 372.751c0 22.639-6.058 43.862-16.637 62.142-21.44-37.174-23.004-84.439-.01-124.267 10.59 18.263 16.647 39.485 16.647 62.125z" fill="#0bcc63"/><path d="m463.658 248.517-107.554 62.108c-42.906-.027-84.613-22.303-107.604-62.125 22.992-39.823 64.699-62.099 107.597-62.142z" fill="#9cf183"/><path d="m463.717 248.483-.059.034c-45.969-.03-86.095-25.025-107.561-62.159 21.119-.021 42.527 5.344 62.132 16.663 19.6 11.317 34.947 27.169 45.488 45.462z" fill="#39e66d"/><path d="m463.717 248.483c-10.531 18.319-25.882 34.176-45.488 45.496s-41.014 16.685-62.135 16.663c23.005-39.844 64.72-62.122 107.623-62.159z" fill="#39e66d"/><path d="m33.298 372.748c21.401-37.169 23.003-84.443.015-124.259-22.987 39.816-21.416 87.09-.015 124.259z" fill="#8d8ddf"/><path d="m33.298 372.748c10.541 18.286 25.9 34.157 45.494 45.47 19.606 11.319 41.014 16.685 62.134 16.663-22.997-39.832-64.738-62.083-107.628-62.133z" fill="#8d8ddf"/><path d="m140.907 434.824-.01-124.199c21.476-37.145 61.621-62.125 107.604-62.125 22.992 39.823 21.43 87.081.018 124.253z" fill="#6858ad"/><path d="m140.907 434.892v-.068c23.011-39.795 64.72-62.048 107.612-62.071-10.542 18.3-25.892 34.157-45.497 45.476-19.6 11.316-41.001 16.681-62.115 16.663z" fill="#39e66d"/><path d="m124.251 372.751c0 22.639 6.058 43.862 16.637 62.142 21.44-37.174 23.004-84.439.01-124.267-10.589 18.263-16.647 39.485-16.647 62.125z" fill="#39e66d"/><path d="m33.343 248.517 107.554 62.108c42.906-.027 84.613-22.303 107.604-62.125-22.992-39.823-64.699-62.099-107.597-62.142z" fill="#6858ad"/><path d="m33.284 248.483.059.034c45.969-.03 86.095-25.025 107.561-62.159-21.119-.021-42.527 5.344-62.132 16.663-19.6 11.317-34.947 27.169-45.488 45.462z" fill="#39e66d"/><path d="m33.284 248.483c10.531 18.319 25.882 34.176 45.488 45.496s41.015 16.685 62.135 16.663c-23.004-39.844-64.719-62.122-107.623-62.159z" fill="#39e66d"/><path d="m463.704 124.253c-42.89-.05-84.631-22.301-107.619-62.116 45.975 0 86.131 24.998 107.619 62.116z" fill="#806cd4"/><path d="m463.704 124.253c10.566 18.272 16.631 39.509 16.631 62.134 0 22.639-6.058 43.862-16.636 62.142-22.998-39.833-21.396-87.107.005-124.276z" fill="#806cd4"/><path d="m463.659 248.483-107.554-62.108c-42.906.027-84.613 22.303-107.604 62.125 22.992 39.823 64.699 62.099 107.597 62.142z" fill="#6858ad"/><path d="m463.717 248.517-.059-.034c-45.969.03-86.095 25.025-107.561 62.159 21.119.021 42.527-5.344 62.132-16.663 19.6-11.316 34.947-27.168 45.488-45.462z" fill="#0bcc63"/><path d="m418.23 203.022c19.606 11.32 34.957 27.177 45.498 45.479-42.914-.02-84.629-22.297-107.623-62.125 21.11-.039 42.519 5.326 62.125 16.646z" fill="#0bcc63"/><path d="m356.095 62.177.01 124.199c-21.476 37.145-61.621 62.125-107.604 62.125-22.992-39.823-21.43-87.081-.018-124.253z" fill="#6858ad"/><path d="m356.094 62.109v.068c-23.011 39.795-64.72 62.048-107.612 62.071 10.542-18.3 25.892-34.157 45.497-45.476 19.601-11.316 41.002-16.681 62.115-16.663z" fill="#0bcc63"/><path d="m356.094 62.109c10.599 18.279 16.657 39.503 16.657 62.142s-6.058 43.862-16.636 62.142c-23.005-39.845-21.44-87.11-.021-124.284z" fill="#0bcc63"/><path d="m248.5 124.285-107.573 62.107v124.216l107.573 62.107 107.573-62.107v-124.216z" fill="#484686"/><path d="m293.979 169.729c19.594 11.312 40.988 16.678 62.095 16.664.01-.017.021-.034.03-.051-21.485-37.114-61.617-62.085-107.585-62.092 10.522 18.322 25.866 34.166 45.46 45.479z" fill="#f9b233"/><path d="m157.543 248.5c0-22.625-6.05-43.835-16.616-62.108-.02 0-.04-.001-.06-.001-10.567 18.273-16.617 39.484-16.617 62.109s6.05 43.836 16.617 62.109c.02 0 .04-.001.06-.001 10.566-18.273 16.616-39.483 16.616-62.108z" fill="#fdd937"/><path d="m339.457 248.5c0 22.625 6.05 43.835 16.616 62.108.02 0 .04.001.06.001 10.567-18.272 16.617-39.483 16.617-62.109s-6.05-43.836-16.617-62.109c-.02 0-.04.001-.06.001-10.566 18.273-16.616 39.483-16.616 62.108z" fill="#f9b233"/><path d="m203.021 327.271c-19.594-11.312-40.988-16.678-62.095-16.664-.01.017-.021.034-.03.051 21.485 37.114 61.617 62.085 107.585 62.092-10.522-18.322-25.866-34.166-45.46-45.479z" fill="#fdd937"/><path d="m203.021 169.729c19.594-11.312 34.938-27.157 45.479-45.444-45.987-.028-86.118 24.943-107.604 62.057.01.017.021.034.03.051 21.108.014 42.502-5.352 62.095-16.664z" fill="#fdd937"/><path d="m293.979 327.271c-19.594 11.312-34.938 27.157-45.479 45.444 45.987.028 86.118-24.943 107.604-62.057-.01-.017-.021-.034-.03-.051-21.108-.014-42.502 5.352-62.095 16.664z" fill="#f9b233"/><path d="m356.133 310.609c-.01.017-.02.033-.029.05 21.488 37.119 61.628 62.092 107.603 62.092-22.987-39.817-64.684-62.092-107.574-62.142z" fill="#25ade1"/><path d="m356.073 310.608c.01.017.021.034.03.051.01-.017.02-.033.029-.05-.019 0-.038-.001-.059-.001z" fill="#fffdcb"/><path d="m248.481 372.75c-21.411 37.171-22.972 84.428.019 124.25 22.991-39.822 21.43-87.079-.019-124.25z" fill="#1ad0ff"/><path d="m33.293 124.25c22.988 39.816 64.684 62.091 107.574 62.141.01-.017.02-.033.029-.05-21.488-37.118-61.628-62.091-107.603-62.091z" fill="#1ad0ff"/><path d="m140.896 186.342c-.01.017-.02.033-.029.05.02 0 .04.001.06.001-.01-.018-.021-.034-.031-.051z" fill="#fffdcb"/><path d="m33.293 372.75c45.975 0 86.115-24.973 107.603-62.092-.01-.017-.02-.033-.029-.05-42.89.051-84.587 22.326-107.574 62.142z" fill="#1ad0ff"/><path d="m140.867 310.609c.01.017.02.033.029.05.01-.017.021-.034.03-.051-.02 0-.039.001-.059.001z" fill="#fffdcb"/><path d="m463.707 124.25c-45.975 0-86.115 24.973-107.603 62.092.01.017.02.033.029.05 42.89-.051 84.587-22.326 107.574-62.142z" fill="#25ade1"/><path d="m356.133 186.391c-.01-.017-.02-.033-.029-.05-.01.017-.021.034-.03.051.02 0 .039-.001.059-.001z" fill="#fffdcb"/><path d="m248.519 124.25c21.411-37.171 22.972-84.428-.019-124.25-22.991 39.822-21.43 87.079.019 124.25z" fill="#1ad0ff"/><path d="m248.48 372.75c21.45-37.171 23.011-84.428.02-124.25-22.991 39.822-21.43 87.078-.02 124.25z" fill="#ff2796"/><path d="m248.52 124.25c-21.45 37.171-23.011 84.428-.02 124.25 22.991-39.822 21.43-87.078.02-124.25z" fill="#fd4c7c"/><path d="m248.5 248.5c22.991 39.822 64.697 62.098 107.594 62.142-21.467-37.162-61.612-62.142-107.594-62.142z" fill="#ff2796"/><path d="m140.906 186.358c21.467 37.162 61.612 62.142 107.594 62.142-22.991-39.822-64.697-62.098-107.594-62.142z" fill="#fd4c7c"/><path d="m356.113 186.392c-42.916.009-84.622 22.286-107.613 62.108 45.982 0 86.127-24.98 107.613-62.108z" fill="#ff2796"/><path d="m140.887 310.608c42.916-.009 84.622-22.286 107.613-62.108-45.982 0-86.127 24.98-107.613 62.108z" fill="#fd4c7c"/></g></svg>