<svg id="Capa_1" enable-background="new 0 0 497 497" height="512" viewBox="0 0 497 497" width="512" xmlns="http://www.w3.org/2000/svg"><g><path d="m284.368 62.125-35.868-62.125-30 122.125z" fill="#fc7161"/><path d="m212.632 62.125 35.868 60v-122.125z" fill="#fa9647"/><path d="m284.368 434.875-35.868 62.125-30-122.125z" fill="#1ad0ff"/><path d="m212.632 434.875 35.868-60v122.125z" fill="#66e0ff"/><path d="m105.028 124.25h-71.735l90.763 87.043z" fill="#fd4c7c"/><path d="m69.161 186.375 69.895-1.062-105.763-61.063z" fill="#ff2796"/><path d="m427.839 310.625 35.868 62.125-120.763-35.082z" fill="#0bcc63"/><path d="m391.972 372.75-34.028-61.062 105.763 61.062z" fill="#1aaa6c"/><path d="m69.161 310.625-35.868 62.125 120.763-35.082z" fill="#806cd4"/><path d="m105.028 372.75 34.028-61.062-105.763 61.062z" fill="#6858ad"/><path d="m391.972 124.25h71.735l-90.763 87.043z" fill="#fdd937"/><path d="m427.839 186.375-69.895-1.062 105.763-61.063z" fill="#f9b233"/><path d="m212.632 62.125h-71.736l53.802 61.062z" fill="#a6cef4"/><path d="m140.896 62.125 35.868 92.125 17.934-61.063z" fill="#9aadea"/><path d="m176.764 124.25-35.868-62.125-30 92.125z" fill="#a6cef4"/><path d="m140.896 62.125-35.868 62.125 35.868 30z" fill="#b3efff"/><path d="m356.104 62.125h-71.736l17.934 61.062z" fill="#a6cef4"/><path d="m320.236 154.25 35.868-92.125-53.802 31.062z" fill="#9aadea"/><path d="m391.972 124.25-35.868-62.125-15 92.125z" fill="#9aadea"/><path d="m320.236 124.25 35.868 30v-92.125z" fill="#a6cef4"/><path d="m69.161 186.375-35.868 62.125 83.801-31.063z" fill="#b3efff"/><path d="m33.293 248.5 35.868 62.125 47.933-31.062z" fill="#a6cef4"/><path d="m135.028 248.5h-101.735l53.801 31.063z" fill="#b3efff"/><path d="m135.028 248.5-47.934-31.063-53.801 31.063z" fill="#a6cef4"/><path d="m427.839 310.625 35.868-62.125-83.801 31.063z" fill="#a6cef4"/><path d="m361.972 233.5 47.934 46.063 53.801-31.063z" fill="#9aadea"/><path d="m463.707 248.5-35.868-62.125-47.933 31.062z" fill="#9aadea"/><path d="m361.972 248.5h101.735l-53.801-31.063z" fill="#a6cef4"/><path d="m284.368 434.875h71.736l-53.802-61.062z" fill="#a6cef4"/><path d="m356.104 434.875-35.868-92.125-17.934 61.063z" fill="#9aadea"/><path d="m326.104 342.75 30 92.125 35.868-62.125z" fill="#9aadea"/><path d="m320.236 372.75 35.868 62.125v-92.125z" fill="#a6cef4"/><path d="m140.896 434.875h71.736l-17.934-61.062z" fill="#a6cef4"/><path d="m176.764 342.75-35.868 92.125 53.802-31.062z" fill="#9aadea"/><path d="m176.764 372.75-50.868-30 15 92.125z" fill="#a6cef4"/><path d="m105.028 372.75 35.868 62.125v-92.125z" fill="#b3efff"/><path d="m356.104 372.749h35.867v-31.062l-35.867-31.062-15 31.062z" fill="#1aaa6c"/><path d="" fill="#b3efff"/><path d="m356.104 310.625 35.867 62.124 17.935-31.062v-31.062z" fill="#0bcc63"/><path d="m356.104 310.624 53.802 31.063 17.934-31.063-17.934-15z" fill="#1aaa6c"/><path d="m356.104 310.624h71.736l-17.934-31.062h-26.901z" fill="#0bcc63"/><path d="" fill="#b3efff"/><path d="m356.104 310.624 53.802-31.062-17.934-31.062-17.934 16.062z" fill="#1aaa6c"/><path d="m391.972 248.5-35.868-30-15 61.062 15 31.062z" fill="#0bcc63"/><path d="m356.104 372.749h-35.868v-31.062l35.868-31.062z" fill="#0bcc63"/><path d="" fill="#b3efff"/><path d="m356.104 310.625-35.868 62.124-17.934-31.062v-31.062z" fill="#39e66d"/><path d="m356.104 310.624-53.802 31.063-17.934-31.063 17.934-15z" fill="#0bcc63"/><path d="m356.104 310.624h-71.736l17.934-31.062h26.901z" fill="#39e66d"/><path d="" fill="#b3efff"/><path d="m356.104 310.624-53.802-31.062 17.934-31.062 17.934 16.062z" fill="#0bcc63"/><path d="m320.236 248.5 35.868-30v92.124z" fill="#39e66d"/><path d="m356.104 248.5h35.867v-31.063l-35.867-31.062-15 31.062z" fill="#f9b233"/><path d="" fill="#b3efff"/><path d="m356.104 186.375 35.867 62.125 17.935-31.063v-31.062z" fill="#fdd937"/><path d="m356.104 186.375 53.802 31.062 17.934-31.062-17.934-15z" fill="#f9b233"/><path d="m356.104 186.375h71.736l-17.934-31.063h-26.901z" fill="#fdd937"/><path d="" fill="#b3efff"/><path d="m356.104 186.375 53.802-31.063-17.934-31.062-17.934 16.062z" fill="#f9b233"/><path d="m391.972 124.25h-35.868l-15 31.062 15 31.063z" fill="#fdd937"/><path d="m356.104 248.5h-35.868v-31.063l35.868-31.062z" fill="#fdd937"/><path d="" fill="#b3efff"/><path d="m356.104 186.375-35.868 62.125-17.934-31.063v-31.062z" fill="#feef4c"/><path d="m356.104 186.375-53.802 31.062-17.934-31.062 17.934-15z" fill="#fdd937"/><path d="m356.104 186.375h-71.736l17.934-31.063h26.901z" fill="#feef4c"/><path d="" fill="#b3efff"/><path d="m356.104 186.375-53.802-31.063 17.934-31.062 17.934 16.062z" fill="#fdd937"/><path d="m320.236 124.25h35.868v62.125z" fill="#feef4c"/><path d="m140.896 372.749h35.868v-31.062l-35.868-31.062-15 31.062z" fill="#484686"/><path d="" fill="#b3efff"/><path d="m140.896 310.625 35.868 62.124 50.868-31.062-32.934-31.062z" fill="#6858ad"/><path d="m140.897 310.624 53.801 31.063 32.934-31.063-32.934-15z" fill="#484686"/><path d="m140.897 310.624h71.735v-31.062h-44.835z" fill="#6858ad"/><path d="" fill="#b3efff"/><path d="m140.897 310.624 53.801-31.062v-31.062h-35.867z" fill="#484686"/><path d="m176.764 248.5-35.868-30-15 61.062 15 31.062z" fill="#6858ad"/><path d="m140.896 372.749h-35.867v-31.062l35.867-31.062z" fill="#6858ad"/><path d="" fill="#b3efff"/><path d="m140.896 310.625-35.867 62.124-17.934-31.062v-31.062z" fill="#806cd4"/><path d="m140.896 310.624-53.801 31.063-17.934-31.063 17.934-15z" fill="#6858ad"/><path d="m140.896 310.624h-71.735l17.934-31.062h26.9z" fill="#806cd4"/><path d="" fill="#b3efff"/><path d="m140.896 310.624-53.801-31.062 17.934-31.062 17.933 16.062z" fill="#6858ad"/><path d="m105.029 248.5 35.867-30v92.124z" fill="#806cd4"/><path d="m140.896 248.5h35.868v-31.063l-35.868-31.062-15 31.062z" fill="#c23191"/><path d="" fill="#b3efff"/><path d="m140.896 186.375 35.868 62.125 50.868-31.063-32.934-31.062z" fill="#ff2796"/><path d="m140.897 186.375 53.801 31.062 32.934-31.062-32.934-15z" fill="#c23191"/><path d="m140.897 186.375h71.735v-46.063l-44.835 15z" fill="#ff2796"/><path d="" fill="#b3efff"/><path d="m140.897 186.375 53.801-31.063 15-15-32.934-16.062-17.933 16.062z" fill="#c23191"/><path d="m176.764 124.25h-35.868l-15 31.062 15 31.063z" fill="#ff2796"/><path d="m140.896 248.5h-35.867v-31.063l35.867-31.062z" fill="#ff2796"/><path d="" fill="#b3efff"/><path d="m140.896 186.375-35.867 62.125-17.934-31.063v-31.062z" fill="#fd4c7c"/><path d="m140.896 186.375-53.801 31.062-17.934-31.062 17.934-15z" fill="#ff2796"/><path d="m140.896 186.375h-71.735l17.934-31.063h26.9z" fill="#fd4c7c"/><path d="" fill="#b3efff"/><path d="m140.896 186.375-53.801-31.063 17.934-31.062 17.933 16.062z" fill="#ff2796"/><path d="m105.029 124.25h35.867v62.125z" fill="#fd4c7c"/><g fill="#b3efff"><path d=""/><path d=""/><path d=""/><path d=""/><path d=""/><path d=""/></g><path d="m248.5 216.375 35.868-30v-31.062l-35.868-31.063-15 31.063z" fill="#fc7161"/><path d="" fill="#b3efff"/><path d="m248.5 124.25 35.868 62.125 17.934-31.063v-31.062z" fill="#fa9647"/><path d="m248.5 124.25 53.802 31.062 17.934-31.062-17.934-15z" fill="#fc7161"/><path d="m248.5 124.25h71.736l-17.934-31.063h-26.901z" fill="#fa9647"/><path d="" fill="#b3efff"/><path d="m248.5 124.25 53.802-31.063-17.934-31.062-17.934 16.062z" fill="#fc7161"/><path d="m284.368 62.125h-35.868l-15 31.062 15 31.063z" fill="#fa9647"/><path d="m246.302 214.717-35.867-30v-31.063l35.867-31.062z" fill="#fa9647"/><path d="" fill="#b3efff"/><path d="m248.5 124.25-35.868 62.125-17.934-31.063v-31.062z" fill="#f9b233"/><path d="m248.5 124.25-53.802 31.062-17.934-31.062 17.934-15z" fill="#fa9647"/><path d="m248.5 124.25h-71.736l17.934-31.063h26.901z" fill="#f9b233"/><path d="" fill="#b3efff"/><path d="m248.5 124.25-53.802-31.063 17.934-31.062 17.934 16.062z" fill="#fa9647"/><path d="m212.632 62.125h35.868v62.125z" fill="#f9b233"/><path d="m248.5 434.875h35.868v-31.062l-35.868-31.063-15 31.063z" fill="#25ade1"/><path d="" fill="#b3efff"/><path d="m248.5 372.75 35.868 62.125 17.934-31.062v-31.063z" fill="#1ad0ff"/><path d="m248.5 372.75 53.802 31.063 17.934-31.063-17.934-15z" fill="#25ade1"/><path d="m248.5 372.75h71.736l-17.934-31.062h-26.901z" fill="#1ad0ff"/><path d="" fill="#b3efff"/><path d="m248.5 372.75 53.802-31.062-17.934-31.063-17.934 16.063z" fill="#25ade1"/><path d="m284.368 310.625-35.868-30-15 61.063 15 31.062z" fill="#1ad0ff"/><path d="m248.5 434.875h-35.868v-31.062l35.868-31.063z" fill="#1ad0ff"/><path d="" fill="#b3efff"/><path d="m248.5 372.75-35.868 62.125-17.934-31.062v-31.063z" fill="#66e0ff"/><path d="m248.5 372.75-53.802 31.063-17.934-31.063 17.934-15z" fill="#1ad0ff"/><path d="m248.5 372.75h-71.736l17.934-31.062h26.901z" fill="#66e0ff"/><path d="" fill="#b3efff"/><path d="m248.5 372.75-53.802-31.062 17.934-31.063 17.934 16.063z" fill="#1ad0ff"/><path d="m212.632 310.625 35.868-30v92.125z" fill="#66e0ff"/><path d="" fill="#b3efff"/><path d="" fill="#b3efff"/><path d="" fill="#b3efff"/><path d="" fill="#b3efff"/><path d="m248.5 310.625h35.868v-31.062l-35.868-31.063-15 31.063z" fill="#a6cef4"/><path d="" fill="#b3efff"/><path d="m248.5 248.5 35.868 62.125 17.934-31.062v-31.063z" fill="#b3efff"/><path d="m248.5 248.5 53.802 31.063 17.934-31.063-17.934-15z" fill="#a6cef4"/><path d="m248.5 248.5h71.736l-17.934-31.063h-26.901z" fill="#b3efff"/><path d="" fill="#b3efff"/><path d="m248.5 248.5 53.802-31.063-17.934-31.062-17.934 16.063z" fill="#a6cef4"/><path d="m284.368 186.375h-35.868l-15 31.063 15 31.062z" fill="#b3efff"/><path d="m248.5 310.625h-35.868v-31.062l35.868-31.063z" fill="#b3efff"/><path d="" fill="#b3efff"/><path d="m248.5 248.5-35.868 62.125-17.934-31.062v-31.063z" fill="#fff"/><path d="m248.5 248.5-53.802 31.063-17.934-31.063 17.934-15z" fill="#b3efff"/><path d="m248.5 248.5h-71.736l17.934-31.063h26.901z" fill="#fff"/><path d="" fill="#b3efff"/><path d="m248.5 248.5-53.802-31.063 17.934-31.062 17.934 16.063z" fill="#b3efff"/><path d="m212.632 186.375h35.868v62.125z" fill="#fff"/></g></svg>