<svg id="Capa_1" enable-background="new 0 0 497 497" height="512" viewBox="0 0 497 497" width="512" xmlns="http://www.w3.org/2000/svg"><g><path d="m248.5 248.5h-143.472l-71.735 124.25h260.207z" fill="#806cd4"/><path d="m248.5 248.5-71.736-124.25h-143.471l107.603 186.375z" fill="#fd4c7c"/><path d="m248.5 0-17.32 30v124.25h71.735l17.321-30z" fill="#fc7161"/><path d="m140.896 186.375 107.604 62.125 54.415-94.25-71.735-124.25z" fill="#fa9647"/><path d="m248.5 124.25v30l92.773 53.562 105.114-53.562 17.32-30z" fill="#fdd937"/><path d="m248.5 248.5h143.472l54.415-94.25h-197.887z" fill="#feef4c"/><path d="m356.104 186.375-25.981 15v107.125l98.943 64.25h34.641z" fill="#0bcc63"/><path d="m248.5 248.5 71.736 124.25h108.83l-98.943-171.375z" fill="#39e66d"/><path d="m356.104 310.625-25.981-15-68.943 60-30 111.375 17.32 30z" fill="#1ad0ff"/><path d="m248.5 248.5v124.25h-71.736l54.416 94.25 98.943-171.375z" fill="#66e0ff"/></g></svg>