<svg id="Capa_1" enable-background="new 0 0 497 497" height="512" viewBox="0 0 497 497" width="512" xmlns="http://www.w3.org/2000/svg"><g><path d="m463.707 124.25-30-17.32-185.207 141.57 185.207 141.57 30-17.32z" fill="#a6cef4"/><path d="m248.5 0-215.207 124.25v248.5l215.207 124.25 185.207-106.93v-283.14z" fill="#b3efff"/><path d="m140.896 186.375-107.604 62.125 25.981 15 81.623 47.125 107.604-62.125z" fill="#a6cef4"/><path d="m248.5 124.25v81.962l107.604-19.837v-124.25z" fill="#a6cef4"/><path d="m433.707 231.179-30 17.321 30 17.321 30.001-17.321z" fill="#9aadea"/><path d="m356.104 186.375-107.604 62.125 107.604 62.125 77.603-44.804v-34.642z" fill="#a6cef4"/><path d="m140.896 62.125v124.25l107.604 19.837v-81.962z" fill="#a6cef4"/><path d="m248.5 372.75v-62.125h107.604v124.25z" fill="#a6cef4"/><path d="m248.5 372.75v-62.125h-107.604v124.25z" fill="#a6cef4"/><path d="m248.5 124.25-107.604 62.125v124.25l107.604 62.125 107.604-62.125v-124.25z" fill="#9aadea"/><g fill="#8d8ddf"><path d="m302.302 155.312-53.802 31.063 53.802 31.062z"/><path d="m140.896 248.5 53.802 31.063v-62.126z"/><path d="m302.302 279.563-53.802 31.062 53.802 31.063z"/><path d="m194.698 155.312v62.125l53.802-31.062z"/><path d="m194.698 341.688 53.802-31.063-53.802-31.062z"/><path d="m356.104 248.5-53.802-31.063v62.126z"/></g><path d="m302.302 217.437-53.802-31.062-53.802 31.062v62.126l53.802 31.062 53.802-31.062z" fill="#806cd4"/></g></svg>