<svg id="Capa_1" enable-background="new 0 0 497 497" height="512" viewBox="0 0 497 497" width="512" xmlns="http://www.w3.org/2000/svg"><g><path d="m248.5 0 64.25 124.25c0 68.571-12.136 124.167-64.136 124.248 68.55-.041 124.136-55.653 124.136-124.248 0-68.621-55.628-124.25-124.25-124.25z" fill="#a6cef4"/><path d="m342.75 124.25c0-68.621-42.197-124.25-94.25-124.25-45.747.002-82.833 37.088-82.833 82.835s37.086 82.833 82.833 82.833c22.874 0 41.417 18.543 41.417 41.417 0 22.836-18.482 41.352-41.303 41.414 52.001-.082 94.136-55.678 94.136-124.249z" fill="#b3efff"/><path d="m248.5 331.334v165.666c45.747 0 82.833-37.086 82.833-82.833s-37.085-82.833-82.833-82.833z" fill="#a6cef4"/><path d="m301.333 414.167c0-45.747-23.654-82.833-52.833-82.833-22.874 0-41.417-18.543-41.417-41.417s18.543-41.417 41.417-41.417c.026 0 .051-.002.077-.002-.026 0-.052.001-.077.001-68.621 0-124.25 55.629-124.25 124.25s55.629 124.251 124.25 124.251c29.179 0 52.833-37.086 52.833-82.833z" fill="#b3efff"/><path d="m497 248.501c0-45.747-37.086-82.833-82.833-82.833l-41.417 207.082c68.622 0 124.25-55.629 124.25-124.249z" fill="#a6cef4"/><g fill="#b3efff"><path d="m467 248.5c0-45.747-23.654-82.833-52.833-82.833-45.748 0-82.833 37.086-82.833 82.833 0 22.874-18.543 41.417-41.417 41.417s-41.416-18.542-41.417-41.416c.001 68.62 55.629 124.248 124.25 124.248 52.053.001 94.25-55.627 94.25-124.249z"/><path d="m124.25 124.25c-68.621 0-124.25 55.629-124.25 124.25.001 45.748 37.087 82.834 82.834 82.834 45.748 0 82.833-37.086 82.833-82.833 0-22.874 18.543-41.417 41.417-41.417s41.417 18.543 41.417 41.417c-.001-68.622-55.629-124.251-124.251-124.251z"/></g></g></svg>