<svg id="Capa_1" enable-background="new 0 0 497 497" height="512" viewBox="0 0 497 497" width="512" xmlns="http://www.w3.org/2000/svg"><g><path d="m248.5 124.25-215.207 372.75h430.414z" fill="#b3efff"/><path d="m248.5 372.75-215.207-372.75h430.414z" fill="#b3efff"/><path d="m176.764 124.25 71.736-124.25 71.736 124.25-71.736 124.25z" fill="#a6cef4"/><path d="m105.028 124.25h-71.735l71.735 124.25h143.472z" fill="#a6cef4"/><path d="m391.972 124.25-143.472 124.25h143.472l71.735-124.25z" fill="#a6cef4"/><path d="m105.028 248.5-71.735 124.25h71.735l143.472-124.25z" fill="#a6cef4"/><path d="m391.972 372.75h71.735l-71.735-124.25h-143.472z" fill="#a6cef4"/><g fill="#9aadea"><path d="m320.236 372.75h71.736l-35.868-62.125h-35.868z"/><path d="m140.896 310.625-35.868 62.125h71.736v-62.125z"/><path d="m356.104 186.375 35.868-62.125h-71.736v62.125z"/><path d="m176.764 124.25h-71.736l35.868 62.125h35.868z"/><path d="m176.764 248.5-35.868-62.125-35.868 62.125 35.868 62.125z"/><path d="m320.236 248.5 35.868 62.125 35.868-62.125-35.868-62.125z"/></g><path d="m176.764 372.75 71.736 124.25 71.736-124.25-71.736-124.25z" fill="#a6cef4"/><path d="m140.896 310.625 35.868 62.125h71.736v-124.25h-71.736z" fill="#8d8ddf"/><path d="m320.236 372.75 35.868-62.125-35.868-62.125h-71.736v124.25z" fill="#8d8ddf"/><path d="m176.764 124.25-35.868 62.125 35.868 62.125h71.736v-124.25z" fill="#8d8ddf"/><path d="m248.5 124.25v124.25h71.736l35.868-62.125-35.868-62.125z" fill="#8d8ddf"/><path d="m248.5 124.25v248.5l71.736-124.25z" fill="#484686"/><path d="m248.5 124.25-71.736 124.25 71.736 124.25 37.095-124.25z" fill="#6858ad"/></g></svg>