<svg id="Capa_1" enable-background="new 0 0 497 497" height="512" viewBox="0 0 497 497" width="512" xmlns="http://www.w3.org/2000/svg"><g><path d="m248.5 0v497c137.243 0 248.5-111.257 248.5-248.5s-111.257-248.5-248.5-248.5z" fill="#293560"/><ellipse cx="248.5" cy="248.5" fill="#484686" rx="218.5" ry="248.5"/><path d="m245.293 496.959c1.066.027 2.135.041 3.207.041-1.072 0-2.138-.027-3.207-.041z" fill="#b3efff"/><path d="m248.5 0c-137.243 0-248.5 111.257-248.5 248.5 0 136.17 109.531 246.74 245.293 248.459-67.139-1.701-121.043-56.66-121.043-124.209 0-68.621 55.629-124.25 124.25-124.25s124.25-55.629 124.25-124.25-55.629-124.25-124.25-124.25z" fill="#b3efff"/><circle cx="248.5" cy="124.25" fill="#484686" r="41.417"/><circle cx="248.5" cy="372.75" fill="#b3efff" r="41.417"/></g></svg>