<svg id="Capa_1" enable-background="new 0 0 497 497" height="512" viewBox="0 0 497 497" width="512" xmlns="http://www.w3.org/2000/svg"><g><path d="m33.29 124.25 23.912 41.415-23.912 41.415 23.914 41.422-23.914 41.418 23.912 41.415-23.912 41.415 71.74 41.42 71.73-165.67-71.73-165.67z" fill="#b3efff"/><path d="m105.03 82.83 23.909 41.418-23.909 41.412c0 .01 23.909 41.425 23.909 41.425l-23.909 41.415 23.91 41.417-23.91 41.414c0 .01 23.91 41.423 23.91 41.423l-23.91 41.417 71.73 41.41 71.74-207.081-71.74-207.08z" fill="#a6cef4"/><path d="m248.5 0-71.73 41.41 23.909 41.418-23.909 41.412c0 .01 23.909 41.425 23.909 41.425l-23.909 41.415 23.91 41.417-23.91 41.414c0 .01 23.91 41.423 23.91 41.423l-23.91 41.417 23.907 41.411-23.917 41.418 71.74 41.42 71.74-248.5z" fill="#9aadea"/><path d="m463.71 124.25-23.912 41.415 23.912 41.415-23.914 41.422 23.914 41.418-23.912 41.415 23.912 41.415-71.74 41.42-71.73-165.67 71.73-165.67z" fill="#484686"/><path d="m391.97 82.83-23.909 41.418 23.909 41.412c0 .01-23.909 41.425-23.909 41.425l23.909 41.415-23.91 41.417 23.91 41.414c0 .01-23.91 41.423-23.91 41.423l23.91 41.417-71.73 41.41-71.74-207.081 71.74-207.08z" fill="#6858ad"/><path d="m248.5 0 71.73 41.41-23.909 41.418 23.909 41.412c0 .01-23.909 41.425-23.909 41.425l23.909 41.415-23.91 41.417 23.91 41.414c0 .01-23.91 41.423-23.91 41.423l23.91 41.417-23.907 41.411 23.917 41.419-71.74 41.419z" fill="#806cd4"/><path d="m391.97 331.33 71.74 41.42v-82.83z" fill="#6858ad"/><path d="m391.97 248.5 71.74 41.42v-82.84z" fill="#6858ad"/><path d="m391.97 165.67 71.74 41.41v-82.83z" fill="#6858ad"/><path d="m320.24 372.75c0 .01 71.73 41.42 71.73 41.42v-82.83z" fill="#806cd4"/><path d="m320.24 289.91c0 .01 71.73 41.42 71.73 41.42v-82.83z" fill="#806cd4"/><path d="m320.24 207.08c0 .01 71.73 41.42 71.73 41.42v-82.83z" fill="#806cd4"/><path d="m320.24 124.24c0 .01 71.73 41.42 71.73 41.42v-82.83z" fill="#806cd4"/><g fill="#8d8ddf"><path d="m248.5 414.16 71.74 41.42v-82.82c-.01-.01-71.74 41.4-71.74 41.4z"/><path d="m320.24 289.92-71.74 41.42 71.73 41.41c.01 0 .01-82.83.01-82.83z"/><path d="m248.5 248.5 71.74 41.42c0-.01 0-82.83 0-82.83 0-.01-71.74 41.41-71.74 41.41z"/><path d="m248.5 165.66 71.74 41.42v-82.83c-.01 0-71.74 41.41-71.74 41.41z"/><path d="m320.24 41.42-71.74 41.42 71.73 41.41c.01-.01.01-82.83.01-82.83z"/><path d="m176.76 372.76v82.82l71.74-41.42s-71.73-41.41-71.74-41.4z"/><path d="m176.76 289.92v82.83c.01 0 71.74-41.41 71.74-41.41z"/><path d="m176.76 207.09v82.82c0 .01 71.74-41.41 71.74-41.41s-71.74-41.42-71.74-41.41z"/><path d="m176.76 124.25v82.83l71.74-41.42s-71.73-41.41-71.74-41.41z"/><path d="m176.76 41.42v82.82c.01.01 71.74-41.4 71.74-41.4z"/></g><path d="m105.03 331.34v82.83l71.73-41.41c0-.01-71.73-41.42-71.73-41.42z" fill="#9aadea"/><path d="m105.03 248.5v82.83l71.73-41.41c0-.01-71.73-41.42-71.73-41.42z" fill="#9aadea"/><path d="m105.03 165.67v82.83l71.73-41.41c0-.01-71.73-41.42-71.73-41.42z" fill="#9aadea"/><path d="m105.03 82.83v82.83l71.73-41.41c0-.01-71.73-41.42-71.73-41.42z" fill="#9aadea"/><path d="m33.29 289.92v82.83l71.74-41.42z" fill="#a6cef4"/><path d="m33.29 207.08v82.84l71.74-41.42z" fill="#a6cef4"/><path d="m33.29 124.25v82.83l71.74-41.41z" fill="#a6cef4"/></g></svg>