<svg id="Capa_1" enable-background="new 0 0 497 497" height="512" viewBox="0 0 497 497" width="512" xmlns="http://www.w3.org/2000/svg"><g><path d="m165.667 9.381-82.834 47.824-82.833 143.471v95.648h165.667z" fill="#fffb98"/><path d="m497 200.676-82.833-143.471-82.834-47.824 165.667 286.943z" fill="#fc7161"/><path d="m392.205 79.166-60.872-69.785v286.943h165.667l-30-87.609z" fill="#fa9647"/><path d="m386.555 168.793h-228.055l90 271.002h165.667l82.833-143.471z" fill="#f9b233"/><path d="m110.444 168.794-110.444 127.53 82.833 143.471h165.667v-271.002z" fill="#fdd937"/><path d="m82.833 439.795 82.834 47.824h165.666l82.834-47.824-165.666-31.882z" fill="#fa9647"/><path d="m331.333 9.381h-165.666l-55.223 159.413 138.056 79.706 138.055-79.707z" fill="#feef4c"/></g></svg>