<svg id="aquarius" enable-background="new 0 0 300 300" height="512" viewBox="0 0 300 300" width="512" xmlns="http://www.w3.org/2000/svg"><g><path d="m227.597 93.169c2.362 0 4.276-1.915 4.276-4.276s-1.915-4.277-4.276-4.277-4.276 1.915-4.276 4.277 1.914 4.276 4.276 4.276z"/><path d="m176.371 89.629c.781.781 1.805 1.172 2.828 1.172s2.047-.391 2.828-1.172l3.172-3.172 3.172 3.172c.781.781 1.805 1.172 2.828 1.172s2.047-.391 2.828-1.172c1.562-1.562 1.562-4.094 0-5.656l-3.172-3.172 3.172-3.172c1.562-1.562 1.562-4.094 0-5.656s-4.094-1.562-5.656 0l-3.172 3.172-3.172-3.172c-1.562-1.562-4.094-1.562-5.656 0s-1.562 4.094 0 5.656l3.172 3.172-3.172 3.172c-1.562 1.562-1.562 4.093 0 5.656z"/><path d="m126 102c7.719 0 14-6.281 14-14s-6.281-14-14-14-14 6.281-14 14 6.281 14 14 14zm0-20c3.309 0 6 2.691 6 6s-2.691 6-6 6-6-2.691-6-6 2.691-6 6-6z"/><path d="m90 178c11.111 0 21.636-3.988 29.992-11.212 8.064 6.966 18.54 11.212 30.008 11.212 11.132 0 21.645-3.98 29.998-11.207 8.063 6.963 18.537 11.207 30.002 11.207 25.365 0 46-20.635 46-46 0-8.822-7.178-16-16-16s-16 7.178-16 16c0 7.719-6.281 14-14 14s-14-6.281-14-14c0-8.822-7.178-16-16-16s-16 7.178-16 16c0 7.719-6.281 14-14 14s-14-6.281-14-14c0-8.822-7.178-16-16-16s-16 7.178-16 16c0 7.719-6.281 14-14 14s-14-6.281-14-14c0-8.822-7.178-16-16-16s-16 7.178-16 16c0 25.365 20.635 46 46 46zm90-54c4.412 0 8 3.588 8 8 0 12.131 9.869 22 22 22s22-9.869 22-22c0-4.412 3.588-8 8-8s8 3.588 8 8c0 20.953-17.047 38-38 38s-38-17.047-38-38c0-4.412 3.588-8 8-8zm-60 0c4.412 0 8 3.588 8 8 0 12.131 9.869 22 22 22 6.527 0 12.381-2.873 16.414-7.402 1.789 5.325 4.499 10.229 7.985 14.488-6.838 5.76-15.377 8.914-24.399 8.914-20.953 0-38-17.047-38-38 0-4.412 3.588-8 8-8zm-60 0c4.412 0 8 3.588 8 8 0 12.131 9.869 22 22 22 6.527 0 12.381-2.873 16.414-7.402 1.787 5.321 4.496 10.221 7.978 14.478-6.842 5.758-15.388 8.924-24.392 8.924-20.953 0-38-17.047-38-38 0-4.412 3.588-8 8-8z"/><path d="m80 58h4v4c0 2.209 1.791 4 4 4s4-1.791 4-4v-4h4c2.209 0 4-1.791 4-4s-1.791-4-4-4h-4v-4c0-2.209-1.791-4-4-4s-4 1.791-4 4v4h-4c-2.209 0-4 1.791-4 4s1.791 4 4 4z"/><path d="m240 196c-8.822 0-16 7.178-16 16 0 7.719-6.281 14-14 14s-14-6.281-14-14c0-8.822-7.178-16-16-16s-16 7.178-16 16c0 7.719-6.281 14-14 14s-14-6.281-14-14c0-8.822-7.178-16-16-16s-16 7.178-16 16c0 7.719-6.281 14-14 14s-14-6.281-14-14c0-8.822-7.178-16-16-16s-16 7.178-16 16c0 25.365 20.635 46 46 46 11.111 0 21.636-3.988 29.992-11.212 8.064 6.966 18.54 11.212 30.008 11.212 11.132 0 21.645-3.98 29.998-11.207 8.063 6.963 18.537 11.207 30.002 11.207 25.365 0 46-20.635 46-46 0-8.822-7.178-16-16-16zm-188 16c0-4.412 3.588-8 8-8s8 3.588 8 8c0 12.131 9.869 22 22 22 6.527 0 12.381-2.873 16.414-7.402 1.787 5.321 4.496 10.221 7.978 14.478-6.842 5.758-15.388 8.924-24.392 8.924-20.953 0-38-17.047-38-38zm60 0c0-4.412 3.588-8 8-8s8 3.588 8 8c0 12.131 9.869 22 22 22 6.527 0 12.381-2.873 16.414-7.402 1.789 5.325 4.499 10.229 7.985 14.488-6.838 5.76-15.377 8.914-24.399 8.914-20.953 0-38-17.047-38-38zm98 38c-20.953 0-38-17.047-38-38 0-4.412 3.588-8 8-8s8 3.588 8 8c0 12.131 9.869 22 22 22s22-9.869 22-22c0-4.412 3.588-8 8-8s8 3.588 8 8c0 20.953-17.047 38-38 38z"/></g></svg>