<svg id="aries" enable-background="new 0 0 300 300" height="512" viewBox="0 0 300 300" width="512" xmlns="http://www.w3.org/2000/svg"><g><path d="m198.397 58.369c2.362 0 4.276-1.915 4.276-4.276s-1.915-4.276-4.276-4.276-4.277 1.915-4.277 4.276 1.915 4.276 4.277 4.276z"/><path d="m147.172 54.828c.781.781 1.805 1.172 2.828 1.172s2.047-.391 2.828-1.172l3.172-3.172 3.172 3.172c.781.781 1.805 1.172 2.828 1.172s2.047-.391 2.828-1.172c1.562-1.562 1.562-4.094 0-5.656l-3.172-3.172 3.172-3.172c1.562-1.562 1.562-4.094 0-5.656s-4.094-1.562-5.656 0l-3.172 3.172-3.172-3.172c-1.562-1.562-4.094-1.562-5.656 0s-1.562 4.094 0 5.656l3.172 3.172-3.172 3.172c-1.563 1.562-1.563 4.094 0 5.656z"/><path d="m96 216c-7.719 0-14 6.281-14 14s6.281 14 14 14 14-6.281 14-14-6.281-14-14-14zm0 20c-3.309 0-6-2.691-6-6s2.691-6 6-6 6 2.691 6 6-2.691 6-6 6z"/><path d="m196 74c-18.265 0-34.659 7.986-46.015 20.594-11.773-13.093-28.264-20.594-45.985-20.594-34.188 0-62 27.812-62 62 0 15.07 5.475 29.602 15.414 40.914 3.037 3.455 7.418 5.438 12.023 5.438 3.889 0 7.639-1.414 10.559-3.98 3.211-2.82 5.129-6.723 5.404-10.99.275-4.264-1.127-8.381-3.949-11.592-4.805-5.47-7.451-12.497-7.451-19.79 0-16.543 13.457-30 30-30s30 13.457 30 30v112c0 8.822 7.178 16 16 16s16-7.178 16-16v-112c0-16.543 13.457-30 30-30s30 13.457 30 30c0 7.293-2.646 14.32-7.451 19.789-2.822 3.211-4.225 7.328-3.949 11.592.275 4.268 2.193 8.17 5.404 10.988 3.209 2.822 7.32 4.209 11.592 3.951 4.268-.275 8.17-2.195 10.988-5.406 9.941-11.312 15.416-25.844 15.416-40.914 0-34.188-27.812-62-62-62zm-92 24c-20.953 0-38 17.047-38 38 0 9.236 3.354 18.141 9.443 25.07 1.41 1.605 2.111 3.664 1.975 5.797-.139 2.133-1.098 4.084-2.703 5.494-3.193 2.805-8.49 2.459-11.291-.729-8.656-9.851-13.424-22.505-13.424-35.632 0-29.775 24.225-54 54-54 15.873 0 30.62 6.91 40.923 18.931-3.403 4.94-6.107 10.392-7.972 16.22-6.561-11.423-18.859-19.151-32.951-19.151zm132.574 73.635c-1.408 1.604-3.359 2.564-5.492 2.701-2.158.145-4.193-.564-5.797-1.977-1.605-1.408-2.564-3.359-2.703-5.492-.137-2.133.564-4.191 1.975-5.797 6.09-6.93 9.443-15.834 9.443-25.07 0-20.953-17.047-38-38-38s-38 17.047-38 38v112c0 4.412-3.588 8-8 8s-8-3.588-8-8v-112c0-29.775 24.225-54 54-54s54 24.225 54 54c0 13.127-4.768 25.781-13.426 35.635z"/><path d="m206 200h-4v-4c0-2.209-1.791-4-4-4s-4 1.791-4 4v4h-4c-2.209 0-4 1.791-4 4s1.791 4 4 4h4v4c0 2.209 1.791 4 4 4s4-1.791 4-4v-4h4c2.209 0 4-1.791 4-4s-1.791-4-4-4z"/></g></svg>