<svg id="beptune" enable-background="new 0 0 300 300" height="512" viewBox="0 0 300 300" width="512" xmlns="http://www.w3.org/2000/svg"><g><path d="m261.455 98.545-24.141-24.143c-3.021-3.021-7.039-4.688-11.314-4.688s-8.293 1.666-11.312 4.688l-24.143 24.143c-1.032 1.031-1.842 2.211-2.545 3.445-.703-1.234-1.513-2.413-2.545-3.445l-24.141-24.143c-6.043-6.047-16.588-6.047-22.627 0l-24.143 24.143c-1.032 1.031-1.842 2.211-2.545 3.445-.703-1.234-1.513-2.413-2.545-3.445l-24.14-24.143c-3.021-3.021-7.039-4.688-11.314-4.688s-8.293 1.666-11.312 4.688l-24.143 24.143c-3.023 3.021-4.688 7.039-4.688 11.312s1.664 8.291 4.686 11.312c5.08 5.084 13.436 6.039 19.457 2.469v54.362c0 8.822 7.178 16 16 16h60v16h-12c-8.822 0-16 7.178-16 16s7.178 16 16 16h12v4c0 8.822 7.178 16 16 16s16-7.178 16-16v-4h12c8.822 0 16-7.178 16-16s-7.178-16-16-16h-12v-16h60c8.822 0 16-7.178 16-16v-54.361c6.021 3.57 14.377 2.615 19.455-2.469 3.023-3.021 4.688-7.039 4.688-11.312s-1.664-8.292-4.688-11.313zm-73.455 19.181c.703 1.234 1.512 2.413 2.543 3.444 5.078 5.084 13.438 6.039 19.457 2.469v38.361h-44v-38.361c6.021 3.57 14.379 2.615 19.455-2.469 1.032-1.031 1.842-2.21 2.545-3.444zm-67.799-13.525 24.145-24.143c3.02-3.023 8.287-3.023 11.311 0l24.143 24.143c1.512 1.512 2.344 3.52 2.344 5.656s-.832 4.145-2.346 5.656c-3.02 3.023-8.287 3.023-11.311 0l-3.658-3.658c-1.145-1.146-2.861-1.486-4.359-.867-1.494.619-2.469 2.078-2.469 3.695v47.317h-16v-47.316c0-1.617-.975-3.076-2.469-3.695-1.498-.619-3.217-.279-4.359.867l-3.66 3.658c-3.02 3.023-8.287 3.023-11.311 0-1.512-1.512-2.344-3.52-2.344-5.656s.831-4.145 2.343-5.657zm-8.201 13.525c.703 1.234 1.512 2.413 2.543 3.444 5.078 5.084 13.438 6.039 19.457 2.469v38.361h-44v-38.361c6.02 3.57 14.379 2.615 19.455-2.469 1.032-1.031 1.842-2.21 2.545-3.444zm50 100.274h16c4.412 0 8 3.588 8 8s-3.588 8-8 8h-16c-2.209 0-4 1.791-4 4v8c0 4.412-3.588 8-8 8s-8-3.588-8-8v-8c0-2.209-1.791-4-4-4h-16c-4.412 0-8-3.588-8-8s3.588-8 8-8h16c2.209 0 4-1.791 4-4v-20h16v20c0 2.209 1.791 4 4 4zm93.797-102.486c-3.02 3.023-8.287 3.023-11.311 0l-3.658-3.658c-1.146-1.146-2.863-1.486-4.359-.867-1.494.619-2.469 2.078-2.469 3.695v63.316c0 4.412-3.588 8-8 8h-152c-4.412 0-8-3.588-8-8v-63.316c0-1.617-.975-3.076-2.469-3.695-.496-.205-1.016-.305-1.531-.305-1.041 0-2.062.406-2.828 1.172l-3.66 3.658c-3.02 3.023-8.287 3.023-11.311 0-1.512-1.512-2.344-3.52-2.344-5.656s.832-4.145 2.344-5.656l24.145-24.143c3.02-3.023 8.287-3.023 11.311 0l24.143 24.143c1.512 1.512 2.344 3.52 2.344 5.656s-.832 4.145-2.346 5.656c-3.02 3.023-8.287 3.023-11.311 0l-3.658-3.658c-1.146-1.146-2.865-1.486-4.359-.867s-2.47 2.077-2.47 3.695v51.316c0 2.209 1.791 4 4 4h128c2.209 0 4-1.791 4-4v-51.316c0-1.617-.975-3.076-2.469-3.695-1.5-.619-3.215-.279-4.359.867l-3.66 3.658c-3.02 3.023-8.287 3.023-11.311 0-1.512-1.512-2.344-3.52-2.344-5.656s.832-4.145 2.344-5.656l24.145-24.143c3.02-3.023 8.287-3.023 11.311 0l24.143 24.143c1.512 1.512 2.344 3.52 2.344 5.656s-.833 4.144-2.347 5.656z"/><path d="m61.597 216.616c-2.362 0-4.276 1.915-4.276 4.277s1.915 4.276 4.276 4.276 4.276-1.915 4.276-4.276-1.914-4.277-4.276-4.277z"/><path d="m80 226c-7.719 0-14 6.281-14 14s6.281 14 14 14 14-6.281 14-14-6.281-14-14-14zm0 20c-3.309 0-6-2.691-6-6s2.691-6 6-6 6 2.691 6 6-2.691 6-6 6z"/><path d="m186 54h4v4c0 2.209 1.791 4 4 4s4-1.791 4-4v-4h4c2.209 0 4-1.791 4-4s-1.791-4-4-4h-4v-4c0-2.209-1.791-4-4-4s-4 1.791-4 4v4h-4c-2.209 0-4 1.791-4 4s1.791 4 4 4z"/></g></svg>