<svg id="cancer" enable-background="new 0 0 300 300" height="512" viewBox="0 0 300 300" width="512" xmlns="http://www.w3.org/2000/svg"><g><path d="m121.553 207.01c.775.744 1.773 1.113 2.77 1.113 1.051 0 2.102-.412 2.887-1.23l3.104-3.236 3.236 3.104c.775.744 1.773 1.113 2.77 1.113 1.051 0 2.102-.412 2.887-1.23 1.529-1.596 1.477-4.127-.117-5.656l-3.236-3.104 3.104-3.236c1.529-1.596 1.477-4.127-.117-5.656-1.592-1.529-4.125-1.477-5.656.117l-3.104 3.236-3.236-3.104c-1.592-1.527-4.129-1.477-5.656.117-1.529 1.596-1.477 4.127.117 5.656l3.236 3.104-3.104 3.236c-1.532 1.595-1.479 4.126.115 5.656z"/><path d="m214.195 72c7.719 0 14-6.281 14-14s-6.281-14-14-14-14 6.281-14 14 6.282 14 14 14zm0-20c3.309 0 6 2.691 6 6s-2.691 6-6 6-6-2.691-6-6 2.692-6 6-6z"/><path d="m184.592 62.369c2.362 0 4.276-1.915 4.276-4.276s-1.915-4.276-4.276-4.276-4.277 1.915-4.277 4.276 1.915 4.276 4.277 4.276z"/><path d="m92.195 160c15.439 0 28-12.561 28-28s-12.561-28-28-28-28 12.561-28 28 12.561 28 28 28zm0-48c11.027 0 20 8.973 20 20s-8.973 20-20 20-20-8.973-20-20 8.973-20 20-20z"/><path d="m92.195 184c28.674 0 52-23.326 52-52 0-8.597-2.131-16.693-5.84-23.844 2.545-.096 5.153-.156 7.84-.156 33.215 0 64.299 10.387 87.523 29.248 2.959 2.402 6.523 3.572 10.068 3.572 4.656-.002 9.277-2.02 12.438-5.906 5.561-6.848 4.514-16.943-2.334-22.506-28.906-23.478-67.154-36.408-107.695-36.408-16.871 0-30.982 1.575-44.343 4.935-3.133-.592-6.354-.935-9.657-.935-28.674 0-52 23.326-52 52s23.326 52 52 52zm54-100c38.711 0 75.166 12.295 102.652 34.619 3.424 2.779 3.947 7.828 1.168 11.25-2.783 3.424-7.832 3.947-11.254 1.168-24.646-20.014-57.519-31.037-92.566-31.037-4.462 0-8.729.151-12.794.406-4.517-5.877-10.226-10.785-16.809-14.298 9.037-1.416 18.701-2.108 29.603-2.108zm-54 4c24.262 0 44 19.738 44 44s-19.738 44-44 44-44-19.738-44-44 19.739-44 44-44z"/><path d="m207.805 148c-28.674 0-52 23.326-52 52 0 8.597 2.131 16.694 5.841 23.845-2.525.096-5.113.155-7.841.155-33.215 0-64.299-10.387-87.523-29.248-6.844-5.555-16.938-4.512-22.506 2.334-5.561 6.848-4.514 16.943 2.334 22.506 28.906 23.478 67.154 36.408 107.695 36.408 16.885 0 30.992-1.573 44.354-4.933 3.13.59 6.347.933 9.646.933 28.674 0 52-23.326 52-52s-23.326-52-52-52zm-54 100c-38.711 0-75.166-12.295-102.652-34.619-3.424-2.779-3.947-7.828-1.168-11.25 2.779-3.424 7.828-3.951 11.254-1.168 24.646 20.014 57.519 31.037 92.566 31.037 4.532 0 8.717-.146 12.795-.404 4.517 5.877 10.225 10.783 16.808 14.297-9.035 1.415-18.696 2.107-29.603 2.107zm54-4c-24.262 0-44-19.738-44-44s19.738-44 44-44 44 19.738 44 44-19.739 44-44 44z"/><path d="m207.805 172c-15.439 0-28 12.561-28 28s12.561 28 28 28 28-12.561 28-28-12.561-28-28-28zm0 48c-11.027 0-20-8.973-20-20s8.973-20 20-20 20 8.973 20 20-8.973 20-20 20z"/></g></svg>