<svg id="chiron" enable-background="new 0 0 300 300" height="512" viewBox="0 0 300 300" width="512" xmlns="http://www.w3.org/2000/svg"><g><path d="m78.027 155.973c-1.562-1.562-4.094-1.562-5.656 0l-3.172 3.172-3.172-3.172c-1.562-1.562-4.094-1.562-5.656 0s-1.562 4.094 0 5.656l3.172 3.172-3.172 3.172c-1.562 1.562-1.562 4.094 0 5.656.781.781 1.805 1.172 2.828 1.172s2.047-.391 2.828-1.172l3.172-3.172 3.172 3.172c.781.781 1.805 1.172 2.828 1.172s2.047-.391 2.828-1.172c1.562-1.562 1.562-4.094 0-5.656l-3.172-3.172 3.172-3.172c1.563-1.563 1.563-4.094 0-5.656z"/><path d="m215.597 116.616c-2.362 0-4.276 1.915-4.276 4.277s1.915 4.276 4.276 4.276 4.276-1.915 4.276-4.276-1.914-4.277-4.276-4.277z"/><path d="m66 54c-7.719 0-14 6.281-14 14s6.281 14 14 14 14-6.281 14-14-6.281-14-14-14zm0 20c-3.309 0-6-2.691-6-6s2.691-6 6-6 6 2.691 6 6-2.691 6-6 6z"/><path d="m244 198h-4v-4c0-2.209-1.789-4-4-4s-4 1.791-4 4v4h-4c-2.211 0-4 1.791-4 4s1.789 4 4 4h4v4c0 2.209 1.789 4 4 4s4-1.791 4-4v-4h4c2.211 0 4-1.791 4-4s-1.789-4-4-4z"/><path d="m203.945 71.328c.355-4.258-.969-8.4-3.73-11.664-2.762-3.26-6.625-5.252-10.883-5.609-4.266-.361-8.406.971-11.664 3.732l-29.668 25.103v-36.89c0-8.822-7.176-16-16-16s-16 7.178-16 16v130.8c-18.613 6.61-32 24.349-32 45.2 0 26.467 21.531 48 48 48s48-21.533 48-48c0-20.851-13.387-38.589-32-45.2v-31.692l29.664 25.104c2.887 2.441 6.555 3.787 10.328 3.787 4.723 0 9.18-2.064 12.223-5.664 2.762-3.264 4.086-7.406 3.73-11.664-.355-4.26-2.348-8.125-5.613-10.885l-37.562-31.786 37.562-31.785c3.266-2.762 5.258-6.627 5.613-10.887zm-31.945 150.672c0 22.057-17.945 40-40 40s-40-17.943-40-40 17.945-40 40-40 40 17.943 40 40zm-40-48c-2.731 0-5.392.282-8 .723v-128.723c0-4.412 3.59-8 8-8s8 3.588 8 8v128.723c-2.608-.441-5.269-.723-8-.723zm61.168-97.893-41.172 34.84c-.898.76-1.418 1.877-1.418 3.053s.52 2.293 1.418 3.053l41.172 34.842c1.633 1.379 2.629 3.312 2.805 5.441s-.484 4.201-1.867 5.834c-2.73 3.234-8.012 3.689-11.273.938l-34.833-29.476v-41.267l34.836-29.473c1.633-1.383 3.715-2.062 5.828-1.865 2.129.178 4.062 1.174 5.441 2.805 1.383 1.631 2.043 3.703 1.867 5.832s-1.171 4.063-2.804 5.443z"/><path d="m108 222c0 13.234 10.766 24 24 24s24-10.766 24-24-10.766-24-24-24-24 10.766-24 24zm40 0c0 8.822-7.176 16-16 16s-16-7.178-16-16 7.176-16 16-16 16 7.178 16 16z"/></g></svg>