<svg id="jupiter" enable-background="new 0 0 300 300" height="512" viewBox="0 0 300 300" width="512" xmlns="http://www.w3.org/2000/svg"><g><path d="m76 209.092c-7.719 0-14 6.281-14 14s6.281 14 14 14 14-6.281 14-14-6.281-14-14-14zm0 20c-3.309 0-6-2.691-6-6s2.691-6 6-6 6 2.691 6 6-2.691 6-6 6z"/><path d="m134.397 55.461c2.362 0 4.276-1.915 4.276-4.276s-1.915-4.276-4.276-4.276-4.277 1.915-4.277 4.276 1.915 4.276 4.277 4.276z"/><path d="m143.172 87.92c.781.781 1.805 1.172 2.828 1.172s2.047-.391 2.828-1.172l3.172-3.172 3.172 3.172c.781.781 1.805 1.172 2.828 1.172s2.047-.391 2.828-1.172c1.562-1.562 1.562-4.094 0-5.656l-3.172-3.172 3.172-3.172c1.562-1.562 1.562-4.094 0-5.656s-4.094-1.562-5.656 0l-3.172 3.172-3.172-3.172c-1.562-1.562-4.094-1.562-5.656 0s-1.562 4.094 0 5.656l3.172 3.172-3.172 3.172c-1.563 1.562-1.563 4.093 0 5.656z"/><path d="m202 53.092c-8.824 0-16 7.178-16 16v104h-40.004c2.633-6.309 4.004-13.115 4.004-20 0-28.674-23.328-52-52-52s-52 23.326-52 52c0 8.822 7.176 16 16 16s16-7.178 16-16c0-11.027 8.973-20 20-20s20 8.973 20 20-8.973 20-20 20c-8.824 0-16 7.178-16 16s7.176 16 16 16h88v32c0 8.822 7.176 16 16 16s16-7.178 16-16v-168c0-8.822-7.176-16-16-16zm-104 144c-4.41 0-8-3.588-8-8s3.59-8 8-8c15.438 0 28-12.561 28-28s-12.562-28-28-28-28 12.561-28 28c0 4.412-3.59 8-8 8s-8-3.588-8-8c0-24.262 19.738-44 44-44s44 19.738 44 44c0 7.725-2.039 15.332-5.902 21.994-.719 1.238-.719 2.764-.004 4.004.715 1.238 2.035 2.002 3.465 2.002h46.441v16zm112 40c0 4.412-3.59 8-8 8s-8-3.588-8-8v-168c0-4.412 3.59-8 8-8s8 3.588 8 8z"/><path d="m250 181.092h-4v-4c0-2.209-1.789-4-4-4s-4 1.791-4 4v4h-4c-2.211 0-4 1.791-4 4s1.789 4 4 4h4v4c0 2.209 1.789 4 4 4s4-1.791 4-4v-4h4c2.211 0 4-1.791 4-4s-1.789-4-4-4z"/></g></svg>