<svg id="leo" enable-background="new 0 0 300 300" height="512" viewBox="0 0 300 300" width="512" xmlns="http://www.w3.org/2000/svg"><g><path d="m197 111.539c0-7.719-6.281-14-14-14s-14 6.281-14 14 6.281 14 14 14 14-6.281 14-14zm-20 0c0-3.309 2.691-6 6-6s6 2.691 6 6-2.691 6-6 6-6-2.691-6-6z"/><path d="m157.673 111.632c0-2.362-1.915-4.276-4.276-4.276s-4.277 1.915-4.277 4.276 1.915 4.276 4.277 4.276 4.276-1.914 4.276-4.276z"/><path d="m224.391 213.881c-6.688-.57-13.031 3.268-15.855 9.463-1.258 2.762-3.254 4.414-6.281 5.199-6.383 1.646-15.234-1.387-18.566-6.387-.844-1.266-3.41-5.117 3.062-13.645 11.918-15.717 22.856-27.512 31.699-37.045 17.625-19 31.551-34.008 31.551-58.928 0-43.297-31.254-73.535-76-73.535-41.906 0-76 32.988-76 73.535 0 4.297.092 8.524.231 12.679-1.399-.114-2.803-.214-4.231-.214-28.674 0-52 23.326-52 52s23.326 52 52 52 52-23.326 52-52c0-14.089-5.652-26.867-14.782-36.241-.803-8.592-1.218-18.071-1.218-28.224 0-22.902 19.738-41.535 44-41.535 41.879 0 44 34.6 44 41.535 0 11.764-5.914 18.734-23.012 37.162-9.277 10.002-20.824 22.449-33.738 39.473-12.855 16.949-14.383 35.439-4.191 50.73 8.543 12.812 24.801 21.092 41.414 21.092 4.059 0 8.035-.498 11.816-1.48 12.527-3.25 22.316-11.605 27.566-23.521 2.055-4.662 1.715-9.873-.926-14.297-2.672-4.48-7.36-7.402-12.539-7.816zm-130.391 7.123c-24.262 0-44-19.738-44-44s19.738-44 44-44 44 19.738 44 44-19.738 44-44 44zm136.535 11.764c-4.242 9.633-12.148 16.381-22.254 19.006-3.125.811-6.426 1.223-9.809 1.223-14.016 0-27.656-6.881-34.758-17.529-8.184-12.279-6.758-27.391 3.91-41.459 12.672-16.707 24.07-28.994 33.23-38.865 17.435-18.794 25.146-27.73 25.146-42.605 0-22.852-13.617-49.535-52-49.535-28.674 0-52 22.221-52 49.535 0 7.407.227 14.456.647 21.11-4.931-3.269-10.459-5.681-16.369-7.12-.173-4.561-.278-9.237-.278-13.99 0-36.137 30.504-65.535 68-65.535 40.039 0 68 26.949 68 65.535 0 21.781-11.703 34.395-29.473 53.545-8.906 9.605-19.996 21.561-32.152 37.592-8.191 10.797-6.34 18.422-3.344 22.916 5.246 7.881 17.469 12.223 27.23 9.693 5.391-1.396 9.277-4.635 11.555-9.623 1.434-3.143 4.672-5.057 7.934-4.809 2.606.209 4.965 1.684 6.313 3.941 1.292 2.173 1.468 4.716.472 6.974z"/><path d="m253.656 187.004 3.172-3.172c1.562-1.562 1.562-4.094 0-5.656s-4.094-1.562-5.656 0l-3.172 3.172-3.172-3.172c-1.562-1.562-4.094-1.562-5.656 0s-1.562 4.094 0 5.656l3.172 3.172-3.172 3.172c-1.562 1.562-1.562 4.094 0 5.656.781.781 1.805 1.172 2.828 1.172s2.047-.391 2.828-1.172l3.172-3.172 3.172 3.172c.781.781 1.805 1.172 2.828 1.172s2.047-.391 2.828-1.172c1.562-1.562 1.562-4.094 0-5.656z"/><path d="m94 149.004c-15.439 0-28 12.561-28 28s12.561 28 28 28 28-12.561 28-28-12.561-28-28-28zm0 48c-11.027 0-20-8.973-20-20s8.973-20 20-20 20 8.973 20 20-8.973 20-20 20z"/></g></svg>