<svg id="moon" enable-background="new 0 0 300 300" height="512" viewBox="0 0 300 300" width="512" xmlns="http://www.w3.org/2000/svg"><g><path d="m232 128c-7.719 0-14 6.281-14 14s6.281 14 14 14 14-6.281 14-14-6.281-14-14-14zm0 20c-3.309 0-6-2.691-6-6s2.691-6 6-6 6 2.691 6 6-2.691 6-6 6z"/><path d="m170.673 118.093c0-2.362-1.915-4.276-4.276-4.276s-4.277 1.915-4.277 4.276 1.915 4.276 4.277 4.276 4.276-1.914 4.276-4.276z"/><path d="m184.828 157.172c-1.562-1.562-4.094-1.562-5.656 0l-3.172 3.172-3.172-3.172c-1.562-1.562-4.094-1.562-5.656 0s-1.562 4.094 0 5.656l3.172 3.172-3.172 3.172c-1.562 1.562-1.562 4.094 0 5.656.781.781 1.805 1.172 2.828 1.172s2.047-.391 2.828-1.172l3.172-3.172 3.172 3.172c.781.781 1.805 1.172 2.828 1.172s2.047-.391 2.828-1.172c1.562-1.562 1.562-4.094 0-5.656l-3.172-3.172 3.172-3.172c1.563-1.562 1.563-4.094 0-5.656z"/><path d="m212.902 191.998c-4.438-.098-8.312 1.576-11.359 4.568-12.805 12.534-29.688 19.434-47.543 19.434-37.496 0-68-30.504-68-68s30.504-68 68-68c17.855 0 34.738 6.9 47.543 19.434 3.051 2.988 6.98 4.566 11.363 4.566 4.273-.045 8.273-1.752 11.262-4.807s4.609-7.09 4.566-11.363c-.047-4.273-1.754-8.273-4.809-11.262-18.816-18.423-43.652-28.568-69.925-28.568-55.141 0-100 44.859-100 100s44.859 100 100 100c26.273 0 51.109-10.145 69.926-28.568 3.055-2.988 4.762-6.988 4.809-11.262.043-4.273-1.578-8.309-4.57-11.363s-6.993-4.762-11.263-4.809zm5.43 21.719c-17.316 16.949-40.164 26.283-64.332 26.283-50.73 0-92-41.271-92-92s41.27-92 92-92c24.168 0 47.016 9.334 64.332 26.283 1.523 1.496 2.379 3.494 2.402 5.631s-.789 4.154-2.285 5.684c-1.492 1.527-3.492 2.381-5.629 2.402-.027 0-.055 0-.086 0-2.105 0-4.09-.809-5.598-2.285-14.304-14.002-33.175-21.715-53.136-21.715-41.906 0-76 34.094-76 76s34.094 76 76 76c19.961 0 38.832-7.713 53.141-21.719 1.527-1.498 3.516-2.344 5.676-2.283 2.137.023 4.137.879 5.633 2.406s2.309 3.545 2.285 5.682-.88 4.135-2.403 5.631z"/><path d="m74 236h-4v-4c0-2.209-1.789-4-4-4s-4 1.791-4 4v4h-4c-2.211 0-4 1.791-4 4s1.789 4 4 4h4v4c0 2.209 1.789 4 4 4s4-1.791 4-4v-4h4c2.211 0 4-1.791 4-4s-1.789-4-4-4z"/></g></svg>