<svg id="sagittarius" enable-background="new 0 0 300 300" height="512" viewBox="0 0 300 300" width="512" xmlns="http://www.w3.org/2000/svg"><g><path d="m78.172 99.828c.781.781 1.805 1.172 2.828 1.172s2.047-.391 2.828-1.172l3.172-3.172 3.172 3.172c.781.781 1.805 1.172 2.828 1.172s2.047-.391 2.828-1.172c1.562-1.562 1.562-4.094 0-5.656l-3.172-3.172 3.172-3.172c1.562-1.562 1.562-4.094 0-5.656s-4.094-1.562-5.656 0l-3.172 3.172-3.172-3.172c-1.562-1.562-4.094-1.562-5.656 0s-1.562 4.094 0 5.656l3.172 3.172-3.172 3.172c-1.563 1.562-1.563 4.094 0 5.656z"/><path d="m195 197c-7.719 0-14 6.281-14 14s6.281 14 14 14 14-6.281 14-14-6.281-14-14-14zm0 20c-3.309 0-6-2.691-6-6s2.691-6 6-6 6 2.691 6 6-2.691 6-6 6z"/><path d="m52.397 127.904c2.362 0 4.276-1.915 4.276-4.276s-1.915-4.276-4.276-4.276-4.277 1.915-4.277 4.276 1.915 4.276 4.277 4.276z"/><path d="m241 141v-72c0-8.822-7.176-16-16-16h-72c-8.824 0-16 7.178-16 16s7.176 16 16 16h33.375l-75.374 75.376-10.688-10.688c-6.234-6.238-16.391-6.238-22.625 0-3.024 3.021-4.688 7.039-4.688 11.312s1.664 8.291 4.688 11.312l10.687 10.688-36.688 36.688c-3.023 3.021-4.687 7.039-4.687 11.312s1.664 8.291 4.688 11.312c3.023 3.024 7.039 4.688 11.312 4.688s8.289-1.664 11.312-4.688l36.688-36.687 10.688 10.688c3.023 3.023 7.039 4.687 11.312 4.687s8.289-1.664 11.312-4.688c3.024-3.021 4.688-7.039 4.688-11.312s-1.664-8.291-4.688-11.312l-10.688-10.688 75.376-75.375v33.375c0 8.822 7.176 16 16 16s16-7.178 16-16zm-172.344 95.656c-3.023 3.023-8.289 3.023-11.312 0-1.512-1.511-2.344-3.519-2.344-5.656s.832-4.145 2.344-5.656l36.688-36.688 11.312 11.312zm72.344-31.656c0 2.137-.832 4.145-2.344 5.656-3.023 3.023-8.289 3.023-11.312 0l-44-44c-1.512-1.511-2.344-3.519-2.344-5.656s.832-4.145 2.344-5.656 3.519-2.344 5.656-2.344 4.145.832 5.656 2.344l44 44c1.512 1.511 2.344 3.519 2.344 5.656zm-13.032-27.657-11.311-11.311 81.031-81.032h11.312v11.312zm105.032-36.343c0 4.412-3.59 8-8 8s-8-3.588-8-8v-60c0-2.209-1.789-4-4-4h-60c-4.41 0-8-3.588-8-8s3.59-8 8-8h72c4.41 0 8 3.588 8 8z"/><path d="m249 177h-4v-4c0-2.209-1.789-4-4-4s-4 1.791-4 4v4h-4c-2.211 0-4 1.791-4 4s1.789 4 4 4h4v4c0 2.209 1.789 4 4 4s4-1.791 4-4v-4h4c2.211 0 4-1.791 4-4s-1.789-4-4-4z"/></g></svg>