<svg id="virgo" enable-background="new 0 0 300 300" height="512" viewBox="0 0 300 300" width="512" xmlns="http://www.w3.org/2000/svg"><g><path d="m216 112c-2.676 0-5.352.279-8 .83v-16.83c0-22.057-17.945-40-40-40-8.688 0-17.106 2.863-24.015 8.065-6.693-5.039-14.982-8.065-23.985-8.065-8.684 0-17.103 2.865-24.014 8.066-6.693-5.04-14.983-8.066-23.986-8.066-8.824 0-16 7.178-16 16s7.176 16 16 16c4.41 0 8 3.588 8 8v132c0 8.822 7.176 16 16 16s16-7.178 16-16v-132c0-4.412 3.59-8 8-8s8 3.588 8 8v132c0 8.822 7.176 16 16 16s16-7.178 16-16v-132c0-4.412 3.59-8 8-8s8 3.588 8 8v84.506c-6.895 1.781-12 8.053-12 15.494s5.105 13.713 12 15.494v16.506c0 8.822 7.176 16 16 16s16-7.178 16-16v-16h8.281c21.903 0 39.719-17.818 39.719-39.719v-20.281c0-22.057-17.945-40-40-40zm-112 116c0 4.412-3.59 8-8 8s-8-3.588-8-8v-132c0-8.822-7.176-16-16-16-4.41 0-8-3.588-8-8s3.59-8 8-8c17.645 0 32 14.355 32 32zm48 0c0 4.412-3.59 8-8 8s-8-3.588-8-8v-132c0-8.822-7.176-16-16-16-3.798 0-7.244 1.385-9.99 3.603-1.709-5.227-4.477-9.964-8.035-14 5.293-3.621 11.568-5.603 18.025-5.603 17.645 0 32 14.355 32 32zm40 8c-4.41 0-8-3.588-8-8v-16h16v16c0 4.412-3.59 8-8 8zm56-63.719c0 17.49-14.23 31.719-31.719 31.719h-36.281c-4.41 0-8-3.588-8-8s3.59-8 8-8h36.281c8.668 0 15.719-7.051 15.719-15.719v-20.281c0-8.822-7.176-16-16-16s-16 7.178-16 16v28h-16v-84c0-8.822-7.176-16-16-16-3.798 0-7.244 1.385-9.99 3.603-1.709-5.226-4.476-9.964-8.034-13.999 5.292-3.62 11.565-5.604 18.024-5.604 17.645 0 32 14.355 32 32v22.1c0 1.299.633 2.518 1.691 3.268 1.059.75 2.422.939 3.645.502 3.5-1.24 7.086-1.869 10.664-1.869 17.645 0 32 14.355 32 32zm-40 7.719v-28c0-4.412 3.59-8 8-8s8 3.588 8 8v20.281c0 4.256-3.461 7.719-7.719 7.719z"/><path d="m224.301 74.828c.781.781 1.805 1.172 2.828 1.172s2.047-.391 2.828-1.172l3.172-3.172 3.172 3.172c.781.781 1.805 1.172 2.828 1.172s2.047-.391 2.828-1.172c1.562-1.562 1.562-4.094 0-5.656l-3.172-3.172 3.172-3.172c1.562-1.562 1.562-4.094 0-5.656s-4.094-1.562-5.656 0l-3.172 3.172-3.172-3.172c-1.562-1.562-4.094-1.562-5.656 0s-1.562 4.094 0 5.656l3.172 3.172-3.172 3.172c-1.563 1.562-1.563 4.094 0 5.656z"/><path d="m58 172c-7.719 0-14 6.281-14 14s6.281 14 14 14 14-6.281 14-14-6.281-14-14-14zm0 20c-3.309 0-6-2.691-6-6s2.691-6 6-6 6 2.691 6 6-2.691 6-6 6z"/><path d="m63.673 142.628c0-2.362-1.915-4.276-4.276-4.276s-4.277 1.915-4.277 4.276 1.915 4.276 4.277 4.276 4.276-1.914 4.276-4.276z"/></g></svg>