<svg id="Capa_1" enable-background="new 0 0 512 512" height="512" viewBox="0 0 512 512" width="512" xmlns="http://www.w3.org/2000/svg"><g><path d="m512 256c0 141.385-114.615 256-256 256s-256-114.615-256-256 114.615-256 256-256 256 114.615 256 256z" fill="#232e7a"/><path d="m462.319 280.418c0 113.947-92.372 206.319-206.319 206.319s-206.319-92.372-206.319-206.319 92.372-206.319 206.319-206.319 206.319 92.372 206.319 206.319z" fill="#2b3894"/><path d="m95.946 137.398c-6.294 3.943-11.612 9.261-15.555 15.555-.73 1.165-2.426 1.165-3.156 0-3.943-6.293-9.261-11.611-15.555-15.554-1.165-.729-1.165-2.426 0-3.156 6.294-3.943 11.612-9.261 15.555-15.555.73-1.165 2.426-1.165 3.156 0 3.943 6.294 9.261 11.612 15.555 15.555 1.165.729 1.165 2.426 0 3.155zm77.667 238.405c-5.314-3.329-9.804-7.819-13.133-13.133-.616-.983-2.049-.983-2.665 0-3.329 5.314-7.819 9.804-13.133 13.133-.983.616-.983 2.049 0 2.665 5.314 3.329 9.804 7.819 13.133 13.133.616.983 2.049.983 2.665 0 3.329-5.314 7.819-9.804 13.133-13.133.983-.616.983-2.049 0-2.665zm218 57c-5.314-3.329-9.804-7.819-13.133-13.133-.616-.983-2.049-.983-2.665 0-3.329 5.314-7.819 9.804-13.133 13.133-.983.616-.983 2.049 0 2.665 5.314 3.329 9.804 7.819 13.133 13.133.616.983 2.049.983 2.665 0 3.329-5.314 7.819-9.804 13.133-13.133.983-.616.983-2.049 0-2.665z" fill="#ffc14f"/><path d="m96.53 278.013c-3.962 2.482-7.31 5.83-9.792 9.792-.459.733-1.528.733-1.987 0-2.482-3.962-5.83-7.31-9.792-9.792-.733-.459-.733-1.527 0-1.987 3.962-2.482 7.31-5.83 9.792-9.792.459-.733 1.528-.733 1.987 0 2.482 3.962 5.83 7.31 9.792 9.792.733.46.733 1.528 0 1.987zm343.051 120.658c-3.962-2.482-7.31-5.83-9.792-9.792-.459-.733-1.528-.733-1.987 0-2.482 3.962-5.83 7.31-9.792 9.792-.733.459-.733 1.528 0 1.987 3.962 2.482 7.31 5.83 9.792 9.792.459.733 1.528.733 1.987 0 2.482-3.962 5.83-7.31 9.792-9.792.733-.46.733-1.528 0-1.987zm-301.575-332.587c-3.962-2.482-7.31-5.83-9.792-9.792-.459-.733-1.528-.733-1.987 0-2.482 3.962-5.83 7.31-9.792 9.792-.733.459-.733 1.528 0 1.987 3.962 2.482 7.31 5.83 9.792 9.792.459.733 1.528.733 1.987 0 2.482-3.962 5.83-7.31 9.792-9.792.733-.46.733-1.528 0-1.987zm44 381.999c-3.962-2.482-7.31-5.83-9.792-9.792-.459-.733-1.528-.733-1.987 0-2.482 3.962-5.83 7.31-9.792 9.792-.733.459-.733 1.528 0 1.987 3.962 2.482 7.31 5.83 9.792 9.792.459.733 1.528.733 1.987 0 2.482-3.962 5.83-7.31 9.792-9.792.733-.459.733-1.527 0-1.987z" fill="#24d3b5"/><path d="m280.865 119.731-43.133 43.133-70.516-70.516 43.134-43.134z" fill="#5766ce"/><path d="m462.785 301.652-43.134 43.133-206.98-206.981 43.134-43.133z" fill="#717ed6"/><path d="m471.623 316.528c-3.653 4.774-10.709 5.173-14.959.923l-262.115-262.115c-4.25-4.25-3.851-11.307.923-14.959 77.234-59.096 188.183-53.322 258.828 17.323s76.419 181.594 17.323 258.828zm-298.287-239.979c-4.25-4.25-11.307-3.851-14.959.923-59.096 77.234-53.322 188.183 17.323 258.828s181.594 76.419 258.828 17.323c4.774-3.652 5.173-10.709.923-14.959z" fill="#7fbed7"/><path d="m471.623 316.528c-3.653 4.774-10.709 5.173-14.959.923l-211.362-211.362c54.145-48.23 123.855-69.487 191.721-63.771 5.982 4.731 11.753 9.858 17.277 15.382 70.645 70.645 76.419 181.594 17.323 258.828zm-247.534-189.226c-48.23 54.146-69.487 123.855-63.771 191.721 4.731 5.982 9.858 11.753 15.382 17.277 70.645 70.645 181.594 76.419 258.828 17.323 4.774-3.652 5.173-10.709.923-14.959z" fill="#a6d2e3"/><path d="m379.347 261.347c-35.538 35.538-93.156 35.538-128.693 0-35.538-35.538-35.538-93.156 0-128.693 35.538-35.538 93.156-35.538 128.693 0 35.538 35.537 35.538 93.155 0 128.693z" fill="#5766ce"/><path d="m369.269 251.269c-29.972 29.972-78.566 29.972-108.537 0-29.972-29.972-29.972-78.566 0-108.537 29.972-29.972 78.566-29.972 108.537 0 29.972 29.971 29.972 78.565 0 108.537z" fill="#3d4ec6"/><path d="m361.669 243.669c-25.775 25.774-67.563 25.774-93.338 0s-25.775-67.563 0-93.338 67.564-25.775 93.338 0c25.775 25.774 25.775 67.564 0 93.338z" fill="#35e298"/><path d="m333.385 260.4c-22.349 6.459-47.441.882-65.054-16.731-25.775-25.774-25.774-67.563 0-93.338 17.613-17.613 42.705-23.19 65.054-16.731-10.356 2.993-20.123 8.57-28.284 16.731-25.775 25.774-25.775 67.563 0 93.338 8.161 8.161 17.928 13.738 28.284 16.731z" fill="#20b7a1"/><path d="m223.84 299.053c-2.929 2.929-7.678 2.929-10.607 0l-.286-.286c-2.929-2.929-2.929-7.678 0-10.606 2.929-2.929 7.678-2.929 10.607 0l.286.286c2.929 2.928 2.929 7.677 0 10.606z" fill="#24d3b5"/><path d="m385.711 174.372c7.81 7.81 7.81 20.474 0 28.284s-20.474 7.81-28.284 0-7.81-20.474 0-28.284 20.473-7.81 28.284 0zm-181.73 104.822c2.929-2.929 2.929-7.678 0-10.607l-.286-.286c-2.929-2.929-7.678-2.929-10.607 0-2.929 2.929-2.929 7.678 0 10.607l.286.286c2.929 2.928 7.678 2.928 10.607 0zm39.718 39.718c2.929-2.929 2.929-7.678 0-10.607l-.286-.286c-2.929-2.929-7.678-2.929-10.607 0-2.929 2.929-2.929 7.678 0 10.607l.286.286c2.929 2.929 7.678 2.929 10.607 0z" fill="#fff5f5"/><path d="m353.232 66.139c-.051.013-.101.026-.152.04-3.318.875-6.808-.615-8.458-3.624-10.799-19.683-18.998-40.654-24.42-62.486 5.321.14 10.638.494 15.936 1.062 5.039 18.697 12.292 36.916 21.759 54.237 2.323 4.248.017 9.539-4.665 10.771z" fill="#717ed6"/><path d="m414.702 86.691 10.607-10.607c2.929-2.929 7.678-2.929 10.607 0s2.929 7.678 0 10.607l-10.607 10.606c-2.929 2.929-7.678 2.929-10.607 0-2.929-2.928-2.929-7.677 0-10.606zm19.446 30.052c2.929 2.929 7.678 2.929 10.607 0l10.607-10.606c2.929-2.929 2.929-7.678 0-10.606-2.929-2.929-7.678-2.929-10.607 0l-10.607 10.606c-2.929 2.928-2.929 7.677 0 10.606zm-38.891-38.89c2.929 2.929 7.678 2.929 10.607 0l10.607-10.607c2.929-2.929 2.929-7.678 0-10.606-2.929-2.929-7.678-2.929-10.607 0l-10.607 10.606c-2.929 2.929-2.929 7.677 0 10.607zm115.612 98.009c-40.566-10.932-78.883-32.289-110.663-64.068-19.744-19.744-35.464-42.011-47.162-65.774-1.576-3.201-5.194-4.854-8.639-3.924-.049.013-.099.027-.148.04-4.569 1.235-6.864 6.334-4.766 10.578 12.598 25.479 29.421 49 50.108 69.687 34.312 34.313 76.421 57.996 122.331 69.398-.139-5.322-.492-10.639-1.061-15.937z" fill="#8c96dd"/><path d="m146.359 195.289v2.658c0 2.761-2.239 5-5 5h-116.012v89.162c0 2.761-2.239 5-5 5h-2.658c-2.761 0-5-2.239-5-5v-89.316c-2.163-.55-3.763-2.511-3.763-4.846v-2.658c0-2.761 2.239-5 5-5h127.433c2.762 0 5 2.239 5 5zm187.039 163.352h-2.658c-2.761 0-5 2.238-5 5v116.012h-89.161c-2.761 0-5 2.239-5 5v2.658c0 2.761 2.239 5 5 5h89.316c.55 2.163 2.511 3.763 4.846 3.763h2.658c2.761 0 5-2.239 5-5v-127.433c-.001-2.762-2.24-5-5.001-5z" fill="#5766ce"/><path d="m363.266 362.047v5.315c0 5.523-4.477 10-10 10h-43.288c-5.523 0-10-4.477-10-10v-5.315c0-5.523 4.477-10 10-10h43.288c5.522 0 10 4.477 10 10zm-220.313-196.626h-5.315c-5.523 0-10 4.477-10 10v43.288c0 5.523 4.477 10 10 10h5.315c5.523 0 10-4.477 10-10v-43.288c0-5.523-4.477-10-10-10z" fill="#717ed6"/><path d="m43.578 280.357-26.747 26.747c-2.455 2.455-6.473 2.561-8.936.115-.022-.021-.043-.043-.064-.064-10.218-10.218-9.875-26.999 1.03-36.777 9.844-8.826 25.214-8.44 34.633.838.058.057.115.114.172.171 2.462 2.472 2.379 6.503-.088 8.97zm-5.764-96.269c-8.65-8.65-22.676-8.65-31.326 0s-8.65 22.676 0 31.326 22.676 8.65 31.326 0c8.65-8.651 8.65-22.676 0-31.326zm210.516 277.334-26.747 26.747c-2.455 2.455-2.561 6.473-.115 8.936.021.022.043.043.064.064 10.218 10.218 26.999 9.875 36.777-1.03 8.826-9.844 8.44-25.214-.838-34.633-.057-.058-.114-.115-.171-.172-2.472-2.462-6.503-2.379-8.97.088zm64.943 5.764c-8.65 8.65-8.65 22.676 0 31.326s22.676 8.65 31.326 0 8.65-22.676 0-31.326-22.675-8.65-31.326 0z" fill="#8c96dd"/><path d="m103.307 382.865c0 23.472-19.028 42.5-42.5 42.5s-42.5-19.028-42.5-42.5 19.028-42.5 42.5-42.5 42.5 19.028 42.5 42.5z" fill="#ff3c7d"/><path d="m60.807 340.365c-7.954 0-15.397 2.185-21.763 5.987-3.802 6.366-5.987 13.809-5.987 21.763 0 23.472 19.028 42.5 42.5 42.5 7.954 0 15.397-2.185 21.763-5.987 3.802-6.366 5.987-13.809 5.987-21.763 0-23.472-19.028-42.5-42.5-42.5zm-6.648 46.703c-5.599 0-10.138-2.65-10.138-5.92 0-3.269 4.539-5.919 10.138-5.919s10.138 2.65 10.138 5.919c.001 3.27-4.538 5.92-10.138 5.92zm7.756-26.788c-3.975 0-7.197-1.881-7.197-4.202s3.222-4.202 7.197-4.202 7.197 1.881 7.197 4.202-3.222 4.202-7.197 4.202zm14.394 39.022c-3.975 0-7.197-1.881-7.197-4.202s3.222-4.202 7.197-4.202 7.197 1.881 7.197 4.202-3.222 4.202-7.197 4.202zm7.197-25.734c-3.975 0-7.197-1.882-7.197-4.202 0-2.321 3.222-4.202 7.197-4.202s7.197 1.881 7.197 4.202c.001 2.32-3.222 4.202-7.197 4.202z" fill="#ff50b5"/></g></svg>