<svg id="Capa_1" enable-background="new 0 0 512 512" height="512" viewBox="0 0 512 512" width="512" xmlns="http://www.w3.org/2000/svg"><g><path d="m0 256c0-141.384 114.615-256 255.999-256s256.479 115.505 255.999 256.888c-.292 86.046-43.036 162.092-108.381 208.291-5.698 4.029-12.513 6.18-19.492 6.18h-256.258c-6.931 0-13.713-2.104-19.374-6.102-65.633-46.35-108.493-122.798-108.493-209.257z" fill="#ffc14f"/><path d="m352 308.825v160c0 11.045-8.954 20-20 20h-152c-11.046 0-20-8.955-20-20v-160c0-11.045 8.954-20 20-20h152c11.046 0 20 8.954 20 20z" fill="#3d4ec6"/><path d="m190 303.825v170c0 8.284-6.716 15-15 15s-15-6.716-15-15v-170c0-8.285 6.716-15 15-15s15 6.716 15 15z" fill="#3342ae"/><path d="m507 78v292c0 8.284-6.716 15-15 15h-472c-8.284 0-15-6.716-15-15v-292c0-8.284 6.716-15 15-15h472c8.284 0 15 6.716 15 15z" fill="#717ed6"/><path d="m507 78v292c0 8.284-6.716 15-15 15h-337c-8.284 0-15-6.716-15-15v-292c0-8.284 6.716-15 15-15h337c8.284 0 15 6.716 15 15z" fill="#8c96dd"/><path d="m492 58h-472c-11.028 0-20 8.972-20 20v292c0 11.028 8.972 20 20 20h472c11.028 0 20-8.972 20-20v-292c0-11.028-8.972-20-20-20zm10 312c0 5.514-4.486 10-10 10h-472c-5.514 0-10-4.486-10-10v-292c0-5.514 4.486-10 10-10h472c5.514 0 10 4.486 10 10z" fill="#3342ae"/><path d="m360 100v250c0 5.523-4.477 10-10 10h-250c-5.523 0-10-4.477-10-10v-250c0-5.523 4.477-10 10-10h250c5.523 0 10 4.477 10 10z" fill="#232e7a"/><path d="m390 256.154h80c5.523 0 10 4.477 10 10v83.846c0 5.523-4.477 10-10 10h-80c-5.523 0-10-4.477-10-10v-83.846c0-5.523 4.477-10 10-10zm-10-66.154v40.577c0 5.523 4.477 10 10 10h80c5.523 0 10-4.477 10-10v-40.577c0-5.523-4.477-10-10-10h-80c-5.523 0-10 4.477-10 10zm0-90v60c0 5.523 4.477 10 10 10h80c5.523 0 10-4.477 10-10v-60c0-5.523-4.477-10-10-10h-80c-5.523 0-10 4.477-10 10z" fill="#5766ce"/><path d="m461.923 308.077c0 17.63-14.292 31.923-31.923 31.923s-31.923-14.292-31.923-31.923 14.292-31.923 31.923-31.923 31.923 14.292 31.923 31.923z" fill="#3342ae"/><path d="m390 110c0-2.761 2.239-5 5-5h70c2.761 0 5 2.239 5 5s-2.239 5-5 5h-70c-2.761 0-5-2.239-5-5zm75 15h-70c-2.761 0-5 2.239-5 5s2.239 5 5 5h70c2.761 0 5-2.239 5-5s-2.239-5-5-5zm0 20h-70c-2.761 0-5 2.239-5 5s2.239 5 5 5h70c2.761 0 5-2.239 5-5s-2.239-5-5-5z" fill="#3342ae"/><path d="m36 350h29c2.761 0 5 2.239 5 5 0 2.761-2.239 5-5 5h-29c-2.761 0-5-2.239-5-5 0-2.761 2.239-5 5-5zm-5-180.5c0 10.77 8.73 19.5 19.5 19.5 10.77 0 19.5-8.73 19.5-19.5 0-10.77-8.73-19.5-19.5-19.5-10.77 0-19.5 8.73-19.5 19.5zm5.711 63.789c7.615 7.615 19.962 7.615 27.577 0 7.615-7.615 7.615-19.962 0-27.577-7.615-7.615-19.962-7.615-27.577 0-7.615 7.615-7.615 19.961 0 27.577zm0 51c7.615 7.615 19.962 7.615 27.577 0 7.615-7.615 7.615-19.962 0-27.577-7.615-7.615-19.962-7.615-27.577 0-7.615 7.615-7.615 19.961 0 27.577zm.5 50.5c7.615 7.615 19.962 7.615 27.577 0 7.615-7.615 7.615-19.962 0-27.577-7.615-7.615-19.962-7.615-27.577 0-7.615 7.615-7.615 19.961 0 27.577z" fill="#3d4ec6"/><path d="m31 95c0-2.762 2.239-5 5-5h29c2.761 0 5 2.238 5 5 0 2.761-2.239 5-5 5h-29c-2.761 0-5-2.239-5-5zm34 15h-29c-2.761 0-5 2.238-5 5 0 2.761 2.239 5 5 5h29c2.761 0 5-2.239 5-5 0-2.762-2.239-5-5-5zm0 20h-29c-2.761 0-5 2.238-5 5 0 2.761 2.239 5 5 5h29c2.761 0 5-2.239 5-5 0-2.762-2.239-5-5-5zm0 34.5h-29c-2.761 0-5 2.238-5 5 0 2.761 2.239 5 5 5h29c2.761 0 5-2.239 5-5 0-2.762-2.239-5-5-5zm-7.782 41.211-20.506 20.506c-1.953 1.953-1.953 5.119 0 7.071s5.118 1.953 7.071 0l20.506-20.506c1.953-1.952 1.953-5.118 0-7.071s-5.119-1.952-7.071 0z" fill="#232e7a"/><path d="m415 115h-10c-2.761 0-5-2.239-5-5 0-2.761 2.239-5 5-5h10c2.761 0 5 2.239 5 5 0 2.761-2.239 5-5 5zm45 15c0-2.761-2.239-5-5-5h-10c-2.761 0-5 2.239-5 5 0 2.761 2.239 5 5 5h10c2.761 0 5-2.239 5-5zm-30 20c0-2.761-2.239-5-5-5h-10c-2.761 0-5 2.239-5 5 0 2.761 2.239 5 5 5h10c2.761 0 5-2.239 5-5zm-20.383 48c0-4.142-3.358-7.5-7.5-7.5h-.404c-4.142 0-7.5 3.358-7.5 7.5 0 4.142 3.358 7.5 7.5 7.5h.404c4.142 0 7.5-3.358 7.5-7.5zm56.17 0c0-4.142-3.358-7.5-7.5-7.5h-.404c-4.142 0-7.5 3.358-7.5 7.5 0 4.142 3.358 7.5 7.5 7.5h.404c4.142 0 7.5-3.358 7.5-7.5z" fill="#a6d2e3"/><path d="m437.702 198c0 4.142-3.358 7.5-7.5 7.5h-.404c-4.142 0-7.5-3.358-7.5-7.5s3.358-7.5 7.5-7.5h.404c4.142 0 7.5 3.358 7.5 7.5z" fill="#fff68e"/><path d="m466 219v7c0 2.209-1.791 4-4 4h-35.787c-2.209 0-4-1.791-4-4v-7c0-2.209 1.791-4 4-4h35.787c2.209 0 4 1.791 4 4z" fill="#ffcd71"/><path d="m415 219v7c0 2.209-1.791 4-4 4h-12.787c-2.209 0-4-1.791-4-4v-7c0-2.209 1.791-4 4-4h12.787c2.209 0 4 1.791 4 4zm15.255 7v-7c0-2.209 1.791-4 4-4h-8.043c-2.209 0-4 1.791-4 4v7c0 2.209 1.791 4 4 4h8.043c-2.209 0-4-1.791-4-4zm-369.755 44.5c0 5.523-4.477 10-10 10s-10-4.477-10-10 4.477-10 10-10 10 4.477 10 10z" fill="#ffc14f"/><path d="m61 321c0 5.523-4.477 10-10 10s-10-4.477-10-10 4.477-10 10-10 10 4.477 10 10zm390.923-12.923c0 12.108-9.815 21.923-21.923 21.923s-21.923-9.815-21.923-21.923c0-12.107 9.815-21.923 21.923-21.923s21.923 9.815 21.923 21.923z" fill="#ff50b5"/><path d="m406.42 230h-8.207c-2.209 0-4-1.791-4-4v-7c0-2.209 1.791-4 4-4h8.207c-2.209 0-4 1.791-4 4v7c0 2.209 1.791 4 4 4zm-349.864 44.444c-5.523 0-10-4.477-10-10 0-1.18.205-2.313.581-3.364-3.868 1.381-6.636 5.077-6.636 9.419 0 5.523 4.477 10 10 10 4.343 0 8.038-2.768 9.419-6.636-1.052.376-2.184.581-3.364.581z" fill="#ffa90b"/><path d="m60.419 324.364c-1.381 3.868-5.076 6.636-9.419 6.636-5.523 0-10-4.477-10-10 0-4.343 2.768-8.038 6.636-9.419-.375 1.051-.581 2.184-.581 3.364 0 5.523 4.477 10 10 10 1.181-.001 2.313-.206 3.364-.581zm380.581-5.364c-12.108 0-21.923-9.815-21.923-21.923 0-3.207.688-6.252 1.926-8.997-7.621 3.434-12.926 11.096-12.926 19.997 0 12.108 9.815 21.923 21.923 21.923 8.901 0 16.563-5.305 19.997-12.926-2.745 1.238-5.79 1.926-8.997 1.926z" fill="#ff3c7d"/><path d="m330 225c0 57.99-47.01 105-105 105s-105-47.01-105-105 47.01-105 105-105 105 47.01 105 105z" fill="#3342ae"/><path d="m300 225c0 41.421-33.579 75-75 75s-75-33.579-75-75 33.579-75 75-75 75 33.579 75 75z" fill="#5766ce"/><path d="m270 225c0 24.853-20.147 45-45 45s-45-20.147-45-45 20.147-45 45-45 45 20.147 45 45z" fill="#8c96dd"/><path d="m186.064 502.329c-29.311-8.305-56.483-21.701-80.5-39.172 3.64-3.795 8.762-6.158 14.435-6.158h72.218c12.747 0 23.08 10.333 23.08 23.08.001 15.254-14.558 26.409-29.233 22.25z" fill="#5766ce"/><path d="m406.435 463.158c-42.23 30.72-94.216 48.842-150.435 48.842-23.869 0-46.976-3.267-68.896-9.378-10.084-2.811-17.104-11.935-17.104-22.404 0-12.823 10.395-23.218 23.218-23.218h198.782c5.674 0 10.795 2.363 14.435 6.158z" fill="#717ed6"/><path d="m340 225c0 2.761-2.239 5-5 5h-105v105c0 2.761-2.239 5-5 5s-5-2.239-5-5v-105h-105c-2.761 0-5-2.239-5-5s2.239-5 5-5h105v-105c0-2.761 2.239-5 5-5s5 2.239 5 5v105h105c2.761 0 5 2.239 5 5zm-200 30c0 2.761-2.239 5-5 5s-5-2.239-5-5 2.239-5 5-5 5 2.239 5 5zm120-105c-5.523 0-10 4.477-10 10s4.477 10 10 10 10-4.477 10-10-4.477-10-10-10zm-80 0c-11.046 0-20 8.954-20 20s8.954 20 20 20 20-8.954 20-20-8.954-20-20-20zm115 10c-2.761 0-5 2.239-5 5s2.239 5 5 5 5-2.239 5-5-2.239-5-5-5zm-110 110c-8.284 0-15 6.716-15 15s6.716 15 15 15 15-6.716 15-15-6.716-15-15-15z" fill="#7fbed7"/><path d="m144.202 119.5h-.404c-4.142 0-7.5-3.358-7.5-7.5 0-4.142 3.358-7.5 7.5-7.5h.404c4.142 0 7.5 3.358 7.5 7.5 0 4.142-3.358 7.5-7.5 7.5zm80.798 90.5c-8.284 0-15 6.716-15 15s6.716 15 15 15 15-6.716 15-15-6.716-15-15-15zm75 57.5c0 6.903-5.596 12.5-12.5 12.5s-12.5-5.597-12.5-12.5 5.596-12.5 12.5-12.5 12.5 5.597 12.5 12.5zm-110-97.5c0 5.523-4.477 10-10 10s-10-4.477-10-10 4.477-10 10-10 10 4.477 10 10zm0 115c0 2.761-2.239 5-5 5s-5-2.239-5-5 2.239-5 5-5 5 2.239 5 5z" fill="#c0dfeb"/><path d="m123.617 112c0 4.142-3.358 7.5-7.5 7.5h-.404c-4.142 0-7.5-3.358-7.5-7.5s3.358-7.5 7.5-7.5h.404c4.142 0 7.5 3.358 7.5 7.5z" fill="#fff5f5"/></g></svg>