<svg id="Capa_1" enable-background="new 0 0 512 512" height="512" viewBox="0 0 512 512" width="512" xmlns="http://www.w3.org/2000/svg"><g><path d="m512 256c0 141.385-114.615 256-256 256s-256-114.615-256-256 114.615-256 256-256 256 114.615 256 256z" fill="#ff50b5"/><path d="m479.106 239.979c0 123.218-99.888 223.106-223.106 223.106s-223.106-99.888-223.106-223.106 99.888-223.107 223.106-223.107 223.106 99.888 223.106 223.107z" fill="#ff72c3"/><path d="m293.25 147.08h-10v-59.33c0-17.921 14.58-32.5 32.5-32.5s32.5 14.579 32.5 32.5v59.33h-10v-59.33c0-12.406-10.093-22.5-22.5-22.5s-22.5 10.094-22.5 22.5zm-119.5-59.33c0-12.406 10.093-22.5 22.5-22.5s22.5 10.094 22.5 22.5v59.33h10v-59.33c0-17.921-14.58-32.5-32.5-32.5s-32.5 14.579-32.5 32.5v59.33h10zm234.191 90h-24.026v10h24.026c21.537 0 39.059 17.521 39.059 39.059v69.883c0 21.537-17.521 39.059-39.059 39.059h-303.882c-21.538-.001-39.059-17.522-39.059-39.06v-69.883c0-21.537 17.521-39.059 39.059-39.059h24.026v-10h-24.026c-27.052.001-49.059 22.009-49.059 49.06v69.883c0 27.051 22.007 49.059 49.059 49.059h303.883c27.051 0 49.059-22.008 49.059-49.059v-69.883c-.001-27.051-22.008-49.059-49.06-49.059z" fill="#19305c"/><path d="m231.5 96.75c0 4.142-3.358 7.5-7.5 7.5h-12c-4.142 0-7.5-3.358-7.5-7.5s3.358-7.5 7.5-7.5h12c4.142 0 7.5 3.358 7.5 7.5zm59.5-7.5h-12c-4.142 0-7.5 3.358-7.5 7.5s3.358 7.5 7.5 7.5h12c4.142 0 7.5-3.358 7.5-7.5s-3.358-7.5-7.5-7.5z" fill="#717ed6"/><path d="m240.5 96.75c0 4.142-3.358 7.5-7.5 7.5h-11c-4.142 0-7.5-3.358-7.5-7.5s3.358-7.5 7.5-7.5h11c4.142 0 7.5 3.358 7.5 7.5zm59.5-7.5h-11c-4.142 0-7.5 3.358-7.5 7.5s3.358 7.5 7.5 7.5h11c4.142 0 7.5-3.358 7.5-7.5s-3.358-7.5-7.5-7.5z" fill="#8c96dd"/><path d="m371 162.25h-230v-60h230z" fill="#232e7a"/><path d="m482 262.25h-90v190h-272v-190h-90v-110c0-33.137 26.863-60 60-60h56c5.523 0 10 4.477 10 10 0 22.091 17.909 40 40 40h120c22.091 0 40-17.909 40-40 0-5.523 4.477-10 10-10h56c33.137 0 60 26.863 60 60z" fill="#3342ae"/><path d="m60 152.25v110h-30v-110c0-33.137 26.863-60 60-60h30c-33.137 0-60 26.863-60 60zm70 30c-5.523 0-10 4.477-10 10v260h20v-260c0-5.523-4.477-10-10-10z" fill="#2b3894"/><path d="m337 272.25h-162c-5.523 0-10-4.477-10-10v-70c0-5.523 4.477-10 10-10h162c5.523 0 10 4.477 10 10v70c0 5.523-4.477 10-10 10zm-89.444 50v-20c0-5.523-4.477-10-10-10h-47.556c-5.523 0-10 4.477-10 10v20c0 5.523 4.477 10 10 10h47.556c5.522 0 10-4.477 10-10zm84.444 0v-20c0-5.523-4.477-10-10-10h-47.556c-5.523 0-10 4.477-10 10v20c0 5.523 4.477 10 10 10h47.556c5.523 0 10-4.477 10-10zm-84.444 60v-20c0-5.523-4.477-10-10-10h-47.556c-5.523 0-10 4.477-10 10v20c0 5.523 4.477 10 10 10h47.556c5.522 0 10-4.477 10-10zm84.444 0v-20c0-5.523-4.477-10-10-10h-47.556c-5.523 0-10 4.477-10 10v20c0 5.523 4.477 10 10 10h47.556c5.523 0 10-4.477 10-10z" fill="#5766ce"/><path d="m320.744 142.913h-129.488c-27.936 0-50.663-22.728-50.663-50.663 0-4.143 3.358-7.5 7.5-7.5s7.5 3.357 7.5 7.5c0 19.665 15.998 35.663 35.663 35.663h129.488c19.665 0 35.663-15.998 35.663-35.663 0-4.143 3.358-7.5 7.5-7.5s7.5 3.357 7.5 7.5c0 27.936-22.727 50.663-50.663 50.663zm-162.494 298.837h-35c-4.142 0-7.5 3.358-7.5 7.5s3.358 7.5 7.5 7.5h35c4.142 0 7.5-3.358 7.5-7.5s-3.358-7.5-7.5-7.5zm-95-184.5h-35c-4.142 0-7.5 3.358-7.5 7.5s3.358 7.5 7.5 7.5h35c4.142 0 7.5-3.358 7.5-7.5s-3.358-7.5-7.5-7.5zm362.5 0h-35c-4.142 0-7.5 3.358-7.5 7.5s3.358 7.5 7.5 7.5h35c4.142 0 7.5-3.358 7.5-7.5s-3.358-7.5-7.5-7.5z" fill="#3d4ec6"/><path d="m396.25 449.25c0 4.142-3.358 7.5-7.5 7.5h-237.5c-4.142 0-7.5-3.358-7.5-7.5s3.358-7.5 7.5-7.5h237.5c4.142 0 7.5 3.358 7.5 7.5zm-275-192h-65c-4.142 0-7.5 3.358-7.5 7.5s3.358 7.5 7.5 7.5h65c4.142 0 7.5-3.358 7.5-7.5s-3.358-7.5-7.5-7.5zm362.5 0h-65c-4.142 0-7.5 3.358-7.5 7.5s3.358 7.5 7.5 7.5h65c4.142 0 7.5-3.358 7.5-7.5s-3.358-7.5-7.5-7.5zm-120.181-172.493c-4.024.177-7.139 3.675-7.163 7.703-.114 19.569-16.068 35.453-35.662 35.453h-121.095c-4.142 0-7.5 3.358-7.5 7.5 0 4.142 3.358 7.5 7.5 7.5h121.095c27.936 0 50.663-22.728 50.663-50.663 0-4.255-3.542-7.681-7.838-7.493z" fill="#5766ce"/><path d="m60 222.25h-30c-16.569 0-30-13.431-30-30v-80c0-16.569 13.431-30 30-30h30c16.569 0 30 13.431 30 30v80c0 16.569-13.431 30-30 30zm440-30v-80c0-16.569-13.431-30-30-30h-24.923c-16.569 0-30 13.431-30 30v80c0 16.569 13.431 30 30 30h24.923c16.569 0 30-13.431 30-30z" fill="#717ed6"/><path d="m66.923 222.25h-14.423c-17.949 0-32.5-13.432-32.5-30v-80c0-16.568 14.551-30 32.5-30h14.423c16.569 0 30 13.432 30 30v80c0 16.568-13.431 30-30 30zm445.077-30v-80c0-16.568-13.431-30-30-30h-14.423c-17.949 0-32.5 13.432-32.5 30v80c0 16.568 14.551 30 32.5 30h14.423c16.569 0 30-13.432 30-30zm-326.5 65.333c0 2.945-2.388 5.333-5.333 5.333s-5.333-2.388-5.333-5.333 2.388-5.333 5.333-5.333 5.333 2.388 5.333 5.333zm146.333-54.666c2.945 0 5.333-2.388 5.333-5.333s-2.388-5.333-5.333-5.333-5.333 2.388-5.333 5.333 2.388 5.333 5.333 5.333zm-151.666-10.667c-2.945 0-5.333 2.388-5.333 5.333s2.388 5.333 5.333 5.333 5.333-2.388 5.333-5.333-2.388-5.333-5.333-5.333zm151.666 60c-2.945 0-5.333 2.388-5.333 5.333s2.388 5.333 5.333 5.333 5.333-2.388 5.333-5.333-2.387-5.333-5.333-5.333z" fill="#8c96dd"/><path d="m78.452 137.25h-60c-2.761 0-5-2.239-5-5 0-2.761 2.239-5 5-5h60c2.761 0 5 2.239 5 5 0 2.761-2.239 5-5 5zm5 15c0-2.761-2.239-5-5-5h-60c-2.761 0-5 2.239-5 5 0 2.761 2.239 5 5 5h60c2.761 0 5-2.239 5-5zm0 20c0-2.761-2.239-5-5-5h-60c-2.761 0-5 2.239-5 5 0 2.761 2.239 5 5 5h60c2.761 0 5-2.239 5-5zm-10 20c0-2.761-2.239-5-5-5h-40c-2.761 0-5 2.239-5 5 0 2.761 2.239 5 5 5h40c2.761 0 5-2.239 5-5zm0-80c0-2.761-2.239-5-5-5h-40c-2.761 0-5 2.239-5 5 0 2.761 2.239 5 5 5h40c2.761 0 5-2.239 5-5zm425.076 20c0-2.761-2.239-5-5-5h-60c-2.761 0-5 2.239-5 5 0 2.761 2.239 5 5 5h60c2.762 0 5-2.239 5-5zm0 20c0-2.761-2.239-5-5-5h-60c-2.761 0-5 2.239-5 5 0 2.761 2.239 5 5 5h60c2.762 0 5-2.239 5-5zm0 20c0-2.761-2.239-5-5-5h-60c-2.761 0-5 2.239-5 5 0 2.761 2.239 5 5 5h60c2.762 0 5-2.239 5-5zm-10 20c0-2.761-2.239-5-5-5h-40c-2.761 0-5 2.239-5 5 0 2.761 2.239 5 5 5h40c2.762 0 5-2.239 5-5zm0-80c0-2.761-2.239-5-5-5h-40c-2.761 0-5 2.239-5 5 0 2.761 2.239 5 5 5h40c2.762 0 5-2.239 5-5z" fill="#5766ce"/><path d="m285.982 227.25c0 16.559-13.424 29.982-29.982 29.982s-29.982-13.424-29.982-29.982 13.424-29.982 29.982-29.982 29.982 13.423 29.982 29.982z" fill="#3342ae"/><path d="m267.81 227.25c0 6.522-5.287 11.81-11.81 11.81-6.522 0-11.81-5.288-11.81-11.81s5.287-11.81 11.81-11.81c6.522 0 11.81 5.288 11.81 11.81z" fill="#232e7a"/><path d="m256 191.271c-19.839 0-35.979 16.14-35.979 35.979s16.14 35.979 35.979 35.979 35.979-16.14 35.979-35.979-16.14-35.979-35.979-35.979zm0 59.965c-13.226 0-23.986-10.76-23.986-23.986s10.76-23.986 23.986-23.986 23.986 10.76 23.986 23.986-10.76 23.986-23.986 23.986z" fill="#24d3b5"/><path d="m291.761 231.254c-1.853 17.061-15.893 30.591-33.006 31.872-15.352 1.149-28.889-7.401-35.11-20.148-1.924-3.942 1.047-8.532 5.433-8.532h.008c2.321 0 4.387 1.363 5.419 3.441 4.376 8.808 14.01 14.562 24.768 13.13 10.698-1.424 19.255-10.111 20.537-20.827 1.316-11-4.87-20.775-14.11-24.876-2.217-.984-3.704-3.112-3.704-5.538 0-4.31 4.424-7.237 8.373-5.51 13.846 6.056 23.174 20.582 21.392 36.988z" fill="#a1ffbc"/></g></svg>