<svg id="Capa_1" enable-background="new 0 0 512 512" height="512" viewBox="0 0 512 512" width="512" xmlns="http://www.w3.org/2000/svg"><g><path d="m512 256c0 82.875-39.381 156.552-100.45 203.339-3.575 2.739-11.408-4.252-15.128-1.701-32.85 22.527-71.218 37.591-112.661 42.75-6.998.871-9.9 11.098-17.062 11.392-3.548.146-7.115.22-10.699.22-71.714 0-136.541-29.488-183.016-77-1.175-1.201 2.346-6.776 1.195-8-11.332-12.048-21.51-25.193-30.357-39.261-1.413-2.247-7.477-.156-8.822-2.449-22.247-37.944-35-82.128-35-129.29 0-141.385 114.615-256 256-256 30.376 0 59.516 5.29 86.549 15 1.922.69 2.492 4.265 4.393 5 14.6 5.645 28.554 12.589 41.718 20.692 1.636 1.007 4.601-.83 6.213.213 70.482 45.599 117.127 124.9 117.127 215.095z" fill="#ff2ea6"/><path d="m481 265c0 116.532-94.468 211-211 211s-211-94.468-211-211 94.468-211 211-211 211 94.468 211 211z" fill="#ff50b5"/><path d="m364.708 24.161c7.037 3.305 13.899 6.922 20.568 10.831 2.92 1.712 4.723 4.836 4.723 8.221v371.787c0 8.284-6.716 15-15 15h-300.878c-3.8 0-7.426-1.621-9.944-4.467-7.205-8.146-13.898-16.753-20.031-25.773-2.731-4.018-4.146-8.785-4.146-13.643v-351.117c0-8.284 6.716-15 15-15h291.137c6.421 0 12.759 1.431 18.571 4.161z" fill="#232e7a"/><path d="m329.077 155.369v111.852c0 62.812-50.104 113.731-111.911 113.731-61.807 0-111.911-50.919-111.911-113.731v-111.852c0-62.812 50.104-113.731 111.911-113.731 61.807 0 111.911 50.919 111.911 113.731z" fill="#2b3894"/><path d="m121.872 405c0 2.761-2.239 5-5 5h-40c-2.761 0-5-2.239-5-5s2.239-5 5-5h40c2.762 0 5 2.239 5 5zm-45-15h20c2.761 0 5-2.239 5-5s-2.239-5-5-5h-20c-2.761 0-5 2.239-5 5s2.239 5 5 5zm120 10h-40c-2.761 0-5 2.239-5 5s2.239 5 5 5h40c2.761 0 5-2.239 5-5s-2.238-5-5-5zm-120-70h10c2.761 0 5-2.239 5-5s-2.239-5-5-5h-10c-2.761 0-5 2.239-5 5s2.239 5 5 5zm284.288-289.5h-.404c-4.142 0-7.5 3.358-7.5 7.5s3.358 7.5 7.5 7.5h.404c4.142 0 7.5-3.358 7.5-7.5s-3.358-7.5-7.5-7.5zm-66.018 64.936h-1.945c-6.265 0-11.343 5.079-11.343 11.343v66.843c0 3.372-2.598 6.312-5.968 6.413-3.487.105-6.347-2.691-6.347-6.155v-93.191c0-6.265-5.079-11.343-11.343-11.343h-1.945c-6.265 0-11.343 5.079-11.343 11.343v93.191c0 3.401-2.757 6.158-6.158 6.158-3.401 0-6.158-2.757-6.158-6.158v-112.474c0-6.265-5.079-11.344-11.344-11.344h-1.945c-6.265 0-11.343 5.079-11.343 11.343v112.475c0 3.401-2.757 6.158-6.158 6.158-3.401 0-6.158-2.757-6.158-6.158v-101.131c0-6.265-5.079-11.344-11.344-11.344h-1.944c-6.265 0-11.343 5.079-11.343 11.343v109.894c0 5.304 2.107 10.392 5.858 14.142l24.629 24.629c5.858 5.858 5.858 15.355 0 21.213s-15.355 5.858-21.213 0l-24.042-24.042c-3.207-3.207-4.658-7.505-4.354-11.7v-77.42c0-6.265-5.079-11.343-11.343-11.343h-1.945c-6.265 0-11.343 5.079-11.343 11.343v105.545c0 20.345 9.405 38.494 24.104 50.336 4.071 3.28 6.523 8.157 6.523 13.385v21.862c0 11.046 8.954 20 20 20h84.777c11.046 0 20-8.954 20-20v-27.962c0-4.474 1.747-8.784 4.91-11.948 11.685-11.69 18.911-27.837 18.911-45.671v-128.232c0-6.264-5.079-11.343-11.343-11.343zm37.932-64.936h-.404c-4.142 0-7.5 3.358-7.5 7.5s3.358 7.5 7.5 7.5h.404c4.142 0 7.5-3.358 7.5-7.5s-3.357-7.5-7.5-7.5zm-28.085 0h-.404c-4.142 0-7.5 3.358-7.5 7.5s3.358 7.5 7.5 7.5h.404c4.142 0 7.5-3.358 7.5-7.5s-3.357-7.5-7.5-7.5z" fill="#65b1cf"/><path d="m45 305.026v95.981c-3.517-5.108-6.854-10.35-10-15.717v-350.29c0-11.046 8.954-20 20-20h287.549c8.177 2.937 16.161 6.279 23.928 10h-311.477c-5.523 0-10 4.477-10 10v9.973c0 3.497 1.827 6.74 4.817 8.552l22.366 13.555c2.99 1.813 4.817 5.056 4.817 8.553v198.735c0 3.497-1.827 6.74-4.817 8.552l-22.366 13.555c-2.99 1.812-4.817 5.055-4.817 8.551zm339.998-270.197c.001.057.002.114.002.171v84.973c0 3.497-1.827 6.74-4.817 8.552l-22.366 13.555c-2.99 1.812-4.817 5.055-4.817 8.552v204.368l32 19.394v40.606c0 5.523-4.477 10-10 10h-311.293c3.004 3.415 6.097 6.75 9.277 10h302.016c11.046 0 20-8.954 20-20v-374.013c-3.283-2.127-6.618-4.18-10.002-6.158z" fill="#717ed6"/><path d="m439.204 202.374v143.695c0 20.833-8.101 39.772-21.325 53.842-4.037 4.295-6.328 9.938-6.328 15.833v43.595c-40.474 31.009-90.474 50.206-144.851 52.441v-88.497c0-6.645-2.826-13.021-7.885-17.331-16.931-14.423-27.67-35.899-27.67-59.884v-117.761c0-7.896 6.401-14.297 14.297-14.297s14.297 6.401 14.297 14.297v73.198c0 6.13 4.969 11.099 11.099 11.099s11.099-4.969 11.099-11.099v-139.04c0-7.896 6.401-14.297 14.297-14.297 7.896 0 14.297 6.401 14.297 14.297v116.272c0 3.948 3.2 7.148 7.148 7.148s7.148-3.2 7.148-7.148v-129.036c0-7.698 5.916-14.322 13.606-14.684 8.21-.387 14.988 6.155 14.988 14.281v129.44c0 3.948 3.2 7.148 7.148 7.148s7.148-3.2 7.148-7.148v-107.055c0-7.896 6.401-14.297 14.297-14.297s14.297 6.401 14.297 14.297v107.054c0 3.948 3.2 7.148 7.148 7.148 3.948 0 7.148-3.2 7.148-7.148v-76.767c0-8.125 6.778-14.667 14.988-14.281 7.693.363 13.609 6.986 13.609 14.685z" fill="#ffbeaa"/><path d="m282 418.026v92.67c-5.058.51-10.16.874-15.301 1.084v-88.497c0-6.645-2.826-13.021-7.884-17.331-16.931-14.423-27.67-35.899-27.67-59.884v-117.761c0-7.858 6.34-14.235 14.184-14.296-.121.747-.184 1.514-.184 2.296v117.762c0 22.217 10.061 42.281 25.203 56.582 7.51 7.092 11.652 17.044 11.652 27.375zm85.719-246.343v125.068c0 4.061 3.292 7.352 7.352 7.352 4.061 0 7.352-3.292 7.352-7.352v-135.361c0-1.378.195-2.71.559-3.97 0-.001 0-.001-.001-.001-8.333-.549-15.262 6.048-15.262 14.264zm58.154 16.022c-8.333-.548-15.263 6.05-15.263 14.265v97.068c0 4.061 3.292 7.352 7.352 7.352 4.061 0 7.352-3.292 7.352-7.352v-107.361c0-1.378.195-2.71.559-3.97 0-.001 0-.002 0-.002zm-143.936-25.24v133.891c0 4.061 3.292 7.352 7.352 7.352s7.352-3.292 7.352-7.352v-144.184c0-1.378.195-2.71.559-3.97 0-.001 0-.001-.001-.001-8.332-.548-15.262 6.049-15.262 14.264zm42.891-13.168v147.125c0 4.061 3.292 7.352 7.352 7.352s7.352-3.292 7.352-7.352v-157.418c0-1.378.195-2.71.559-3.97 0-.001 0-.001-.001-.001-8.332-.549-15.262 6.049-15.262 14.264z" fill="#faa68e"/><path d="m253.53 222.097v10.293c0 4.467-3.621 8.087-8.088 8.087s-8.088-3.621-8.088-8.087v-10.293c0-4.467 3.621-8.088 8.088-8.088 4.467.001 8.088 3.621 8.088 8.088zm42.704-73.929c-4.467 0-8.088 3.621-8.088 8.088v10.293c0 4.467 3.621 8.087 8.087 8.087 4.467 0 8.088-3.621 8.088-8.087v-10.293c.001-4.467-3.62-8.088-8.087-8.088zm42.891-13.168c-4.467 0-8.088 3.621-8.088 8.087v10.293c0 4.467 3.621 8.087 8.088 8.087s8.088-3.621 8.088-8.087v-10.293c-.001-4.466-3.621-8.087-8.088-8.087zm42.891 22.386c-4.467 0-8.088 3.621-8.088 8.088v10.293c0 4.467 3.621 8.087 8.088 8.087 4.467 0 8.087-3.621 8.087-8.087v-10.293c0-4.467-3.621-8.088-8.087-8.088zm42.891 30.287c-4.467 0-8.088 3.621-8.088 8.087v10.293c0 4.467 3.621 8.088 8.088 8.088s8.087-3.621 8.087-8.088v-10.293c0-4.466-3.621-8.087-8.087-8.087z" fill="#fff5f5"/></g></svg>