<svg id="Capa_1" enable-background="new 0 0 512 512" height="512" viewBox="0 0 512 512" width="512" xmlns="http://www.w3.org/2000/svg"><g><path d="m512 256c0 141.385-114.615 256-256 256s-256-114.615-256-256 114.615-256 256-256 256 114.615 256 256z" fill="#232e7a"/><path d="m487.334 226.414c0 111.858-90.679 202.537-202.537 202.537s-202.537-90.679-202.537-202.537 90.679-202.537 202.537-202.537 202.537 90.679 202.537 202.537z" fill="#2b3894"/><path d="m402.399 309.47-11.869-11.869c-1.953-1.953-1.953-5.118 0-7.071 1.953-1.953 5.118-1.953 7.071 0l11.869 11.869c1.953 1.953 1.953 5.118 0 7.071-1.953 1.952-5.119 1.952-7.071 0zm-346.792-9.929c-1.953-1.953-5.118-1.953-7.071 0s-1.953 5.119 0 7.071l91.924 91.924c1.953 1.953 5.118 1.953 7.071 0 1.953-1.953 1.953-5.119 0-7.071zm402.929 11.421c-1.953 1.953-5.119 1.953-7.071 0l-52.426-52.426c-1.953-1.953-1.953-5.119 0-7.071s5.118-1.953 7.071 0l52.427 52.426c1.951 1.952 1.951 5.118-.001 7.071zm-320 110.502c1.953 1.953 1.953 5.119 0 7.071s-5.119 1.953-7.071 0l-15.962-15.962c-1.953-1.953-1.953-5.119 0-7.071s5.119-1.953 7.071 0zm272.928-192.928c-1.953-1.953-1.953-5.119 0-7.071s5.119-1.953 7.071 0l15.962 15.962c1.953 1.953 1.953 5.119 0 7.071s-5.119 1.953-7.071 0zm-42.928-147.072c1.953 1.953 1.953 5.119 0 7.071s-5.119 1.953-7.071 0l-15.962-15.962c-1.953-1.953-1.953-5.119 0-7.071s5.119-1.953 7.071 0zm-90 335.962c1.953 1.953 1.953 5.119 0 7.071s-5.119 1.953-7.071 0l-15.962-15.962c-1.953-1.953-1.953-5.119 0-7.071s5.119-1.953 7.071 0z" fill="#3d4ec6"/><path d="m372 243.742c0 69.588-56.412 126-126 126s-126-56.412-126-126 56.412-126 126-126 126 56.412 126 126z" fill="#754ca0"/><path d="m372 243.742c0 23.249-6.297 45.027-17.278 63.722-18.695 10.981-40.473 17.278-63.722 17.278-69.588 0-126-56.412-126-126 0-23.249 6.297-45.027 17.278-63.722 18.695-10.981 40.473-17.278 63.722-17.278 69.588 0 126 56.412 126 126z" fill="#865cb2"/><path d="m265.198 295.008c0 3.854-6.484 6.979-14.482 6.979s-14.482-3.124-14.482-6.979 6.484-6.979 14.482-6.979 14.482 3.125 14.482 6.979zm16.626-78.663c-7.998 0-14.482 3.124-14.482 6.979s6.484 6.979 14.482 6.979 14.482-3.124 14.482-6.979-6.484-6.979-14.482-6.979zm-61.867 54.419c-5.691 0-10.305 2.223-10.305 4.966s4.614 4.966 10.305 4.966 10.305-2.223 10.305-4.966c0-2.742-4.613-4.966-10.305-4.966zm107.381-25.91c-5.691 0-10.305 2.223-10.305 4.966s4.614 4.966 10.305 4.966 10.305-2.223 10.305-4.966c0-2.742-4.613-4.966-10.305-4.966zm-67.459-76.763c-5.691 0-10.305 2.223-10.305 4.966s4.614 4.966 10.305 4.966 10.305-2.223 10.305-4.966c0-2.742-4.614-4.966-10.305-4.966zm69.041 101.909c-10.331 0-18.707 4.036-18.707 9.015s8.375 9.015 18.707 9.015 18.707-4.036 18.707-9.015c-.001-4.979-8.376-9.015-18.707-9.015zm-101.049-134.539c-11.039 0-19.988 4.313-19.988 9.632 0 5.32 8.949 9.632 19.988 9.632s19.988-4.313 19.988-9.632c.001-5.319-8.948-9.632-19.988-9.632z" fill="#754ca0"/><path d="m269.896 249.01c-8.041 5.038-14.836 11.833-19.874 19.874-.932 1.488-3.1 1.488-4.032 0-5.038-8.041-11.833-14.836-19.874-19.874-1.488-.932-1.488-3.1 0-4.033 8.041-5.038 14.836-11.833 19.874-19.874.932-1.488 3.1-1.488 4.032 0 5.038 8.041 11.833 14.836 19.874 19.874 1.488.933 1.488 3.101 0 4.033z" fill="#b9a1d3"/><path d="m246 447c0 18.226-14.775 33-33 33s-33-14.774-33-33 14.775-33 33-33 33 14.774 33 33z" fill="#5766ce"/><path d="m246 447c0 6.176-1.697 11.955-4.649 16.898-4.943 2.953-10.722 4.649-16.898 4.649-18.225 0-33-14.774-33-33 0-6.176 1.697-11.955 4.649-16.898 4.943-2.952 10.722-4.649 16.898-4.649 18.225 0 33 14.774 33 33z" fill="#717ed6"/><path d="m220.064 427.961c0 2.477-3.829 4.485-8.553 4.485s-8.553-2.008-8.553-4.485 3.829-4.485 8.553-4.485 8.553 2.008 8.553 4.485zm-4.596 26.208c-3.455 0-6.255 1.469-6.255 3.28s2.801 3.28 6.255 3.28c3.455 0 6.255-1.469 6.255-3.28s-2.8-3.28-6.255-3.28zm12.609-16.075c-6.479 0-11.731 2.754-11.731 6.152s5.252 6.152 11.731 6.152 11.731-2.754 11.731-6.152-5.252-6.152-11.731-6.152z" fill="#5766ce"/><path d="m81.421 84.35c1.953 1.953 1.953 5.119 0 7.071s-5.118 1.953-7.071 0-1.953-5.119 0-7.071 5.119-1.953 7.071 0zm136.019 93.71c-3.954-4.53-8.769-7.781-13.958-9.754-9.938-3.778-19.12-9.3-26.638-16.818l-17.49-17.49c-1.846-1.847-4.846-2.145-6.859-.481-2.309 1.908-2.431 5.335-.363 7.402l22.158 22.158c2.285 2.285 1.805 6.114-.981 7.751-.03.018-.06.036-.091.053-1.945 1.151-4.419.847-6.018-.752l-43.353-43.353c-1.953-1.953-5.118-1.953-7.071 0-1.953 1.953-1.953 5.118 0 7.071l43.354 43.353c1.598 1.598 1.902 4.072.752 6.018-.018.03-.036.061-.054.091-1.637 2.786-5.466 3.267-7.751.981l-22.006-22.006c-1.847-1.847-4.846-2.145-6.859-.482-2.31 1.908-2.431 5.334-.364 7.401l18.7 18.7c7.047 7.047 12.174 15.695 15.568 25.065 1.693 4.672 4.412 9.057 8.158 12.803 14.249 14.248 37.726 13.643 51.191-1.815 11.373-13.055 11.362-32.85-.025-45.896zm-86.521-65.425c1.953-1.953 1.953-5.119 0-7.071l-14.142-14.142c-1.953-1.953-5.118-1.953-7.071 0s-1.953 5.119 0 7.071l14.142 14.142c1.952 1.952 5.118 1.952 7.071 0z" fill="#ffc14f"/><path d="m408.552 159.427-11.23 11.898c-1.856 1.967-1.812 5.053.1 6.966l11.565 11.572c2.841 2.843 1.337 7.705-2.612 8.448l-16.079 3.025c-2.658.5-4.437 3.023-4.014 5.695l2.555 16.16c.628 3.969-3.447 7.02-7.079 5.299l-14.786-7.003c-2.444-1.158-5.366-.162-6.595 2.247l-7.432 14.575c-1.826 3.58-6.915 3.653-8.842.126l-7.845-14.357c-1.297-2.373-4.246-3.285-6.656-2.058l-14.58 7.423c-3.581 1.823-7.741-1.109-7.228-5.095l2.092-16.226c.346-2.682-1.504-5.154-4.175-5.577l-16.159-2.564c-3.969-.63-5.611-5.448-2.853-8.37l11.23-11.898c1.856-1.967 1.812-5.053-.1-6.966l-11.565-11.572c-2.841-2.843-1.337-7.705 2.612-8.448l16.079-3.025c2.658-.5 4.437-3.023 4.014-5.695l-2.555-16.16c-.628-3.969 3.447-7.02 7.079-5.299l14.786 7.003c2.444 1.158 5.366.162 6.595-2.247l7.432-14.575c1.826-3.58 6.915-3.653 8.842-.126l7.845 14.357c1.297 2.373 4.246 3.285 6.656 2.058l14.58-7.423c3.581-1.823 7.741 1.109 7.228 5.095l-2.092 16.226c-.346 2.682 1.504 5.154 4.175 5.577l16.158 2.564c3.971.629 5.613 5.447 2.854 8.37zm-268.559 109.039c-1.513 4.253-6.371 6.266-10.448 4.328-6.474-3.078-13.229 3.677-10.151 10.151 1.938 4.077-.074 8.936-4.328 10.448-6.754 2.402-6.754 11.954 0 14.356 4.253 1.513 6.266 6.371 4.328 10.448-3.078 6.474 3.677 13.229 10.151 10.151 4.077-1.938 8.936.074 10.448 4.328 2.402 6.754 11.954 6.754 14.356 0 1.513-4.253 6.371-6.266 10.448-4.328 6.474 3.078 13.229-3.677 10.151-10.151-1.938-4.077.074-8.936 4.328-10.448 6.754-2.402 6.754-11.954 0-14.356-4.253-1.513-6.266-6.371-4.328-10.448 3.078-6.474-3.677-13.229-10.151-10.151-4.077 1.938-8.936-.074-10.448-4.328-2.402-6.754-11.954-6.754-14.356 0z" fill="#ffcd71"/><path d="m379.731 182.697c-4.253 1.513-6.266 6.371-4.328 10.448 3.077 6.475-3.677 13.229-10.151 10.151-4.077-1.938-8.936.075-10.448 4.328-2.402 6.754-11.954 6.754-14.356 0-1.513-4.253-6.371-6.266-10.448-4.328-6.474 3.078-13.229-3.676-10.151-10.151 1.938-4.077-.074-8.936-4.328-10.448-6.754-2.402-6.754-11.954 0-14.355 4.253-1.512 6.266-6.371 4.328-10.448-3.078-6.474 3.677-13.229 10.151-10.151 4.077 1.938 8.936-.075 10.448-4.328 2.402-6.754 11.954-6.754 14.356 0 1.512 4.253 6.371 6.266 10.448 4.328 6.474-3.078 13.229 3.677 10.151 10.151-1.938 4.077.075 8.936 4.328 10.448 6.755 2.401 6.755 11.953 0 14.355z" fill="#fff68e"/><path d="m349.204 158.387c3.943 6.294 9.261 11.612 15.555 15.555 1.165.73 1.165 2.426 0 3.156-6.294 3.943-11.612 9.261-15.555 15.555-.73 1.165-2.426 1.165-3.156 0-3.943-6.294-9.261-11.612-15.555-15.555-1.165-.73-1.165-2.426 0-3.156 6.294-3.943 11.612-9.261 15.555-15.555.73-1.165 2.427-1.165 3.156 0zm-203.611 125.052c-3.943 6.294-9.261 11.612-15.555 15.555-1.165.73-1.165 2.426 0 3.156 6.294 3.943 11.612 9.261 15.555 15.555.73 1.165 2.426 1.165 3.156 0 3.943-6.294 9.261-11.612 15.555-15.555 1.165-.73 1.165-2.426 0-3.156-6.294-3.943-11.612-9.261-15.555-15.555-.73-1.165-2.427-1.165-3.156 0z" fill="#ff50b5"/><path d="m81.185 399.169c-3.757 1.336-5.534 5.627-3.823 9.228 2.718 5.718-3.247 11.683-8.965 8.965-3.601-1.712-7.892.065-9.228 3.822-2.121 5.965-10.558 5.965-12.679 0-1.336-3.757-5.627-5.534-9.228-3.822-5.718 2.718-11.683-3.248-8.965-8.965 1.712-3.601-.066-7.892-3.822-9.228-5.965-2.122-5.965-10.558 0-12.679 3.757-1.336 5.534-5.627 3.822-9.228-2.718-5.718 3.247-11.684 8.965-8.965 3.601 1.711 7.892-.066 9.228-3.822 2.121-5.965 10.558-5.965 12.679 0 1.336 3.756 5.627 5.534 9.228 3.822 5.718-2.718 11.683 3.247 8.965 8.965-1.712 3.601.066 7.892 3.823 9.228 5.965 2.121 5.965 10.557 0 12.679zm400-312.679c-3.757-1.336-5.534-5.627-3.823-9.228 2.718-5.718-3.247-11.684-8.965-8.965-3.601 1.711-7.892-.066-9.228-3.822-2.121-5.965-10.558-5.965-12.679 0-1.336 3.756-5.627 5.534-9.228 3.822-5.718-2.718-11.683 3.247-8.965 8.965 1.712 3.601-.066 7.892-3.822 9.228-5.965 2.122-5.965 10.558 0 12.679 3.757 1.336 5.534 5.627 3.822 9.228-2.718 5.718 3.247 11.683 8.965 8.965 3.601-1.712 7.892.065 9.228 3.822 2.121 5.965 10.558 5.965 12.679 0 1.336-3.757 5.627-5.534 9.228-3.822 5.718 2.718 11.683-3.248 8.965-8.965-1.712-3.601.066-7.892 3.823-9.228 5.965-2.122 5.965-10.558 0-12.679z" fill="#ff72c3"/><path d="m67.961 394.223c-5.558 3.482-10.255 8.179-13.738 13.738-.644 1.028-2.143 1.028-2.787 0-3.482-5.559-8.179-10.256-13.738-13.738-1.029-.645-1.029-2.143 0-2.788 5.559-3.482 10.255-8.179 13.738-13.738.645-1.029 2.143-1.029 2.787 0 3.482 5.559 8.179 10.255 13.738 13.738 1.028.645 1.028 2.144 0 2.788zm400-302.787c-5.558-3.482-10.255-8.179-13.738-13.738-.644-1.029-2.143-1.029-2.787 0-3.482 5.559-8.179 10.255-13.738 13.738-1.029.645-1.029 2.143 0 2.788 5.559 3.482 10.255 8.179 13.738 13.738.645 1.028 2.143 1.028 2.787 0 3.482-5.559 8.179-10.256 13.738-13.738 1.028-.645 1.028-2.144 0-2.788z" fill="#ff3c7d"/><path d="m255 60h-100c-8.284 0-15-6.716-15-15 0-8.284 6.716-15 15-15h100c8.284 0 15 6.716 15 15 0 8.284-6.716 15-15 15z" fill="#717ed6"/><path d="m255 60h-53.255c-8.284 0-15-6.716-15-15 0-8.284 6.716-15 15-15h53.255c8.284 0 15 6.716 15 15 0 8.284-6.716 15-15 15z" fill="#8c96dd"/><path d="m230.511 40h-51.021c-5.241 0-9.489-4.249-9.489-9.489-.001-16.851 13.659-30.511 30.51-30.511h8.979c16.85 0 30.51 13.66 30.51 30.511 0 5.24-4.249 9.489-9.489 9.489z" fill="#20b7a1"/><path d="m240 30.511c0 5.241-4.249 9.489-9.489 9.489h-42.894v-9.489c0-15.385 11.386-28.109 26.192-30.207 14.805 2.097 26.191 14.822 26.191 30.207z" fill="#35e298"/><path d="m272.078 130.851-52.316-52.316c-1.953-1.953-1.953-5.118 0-7.071 1.953-1.953 5.118-1.953 7.071 0l52.316 52.316c1.953 1.953 1.953 5.118 0 7.071-1.953 1.953-5.119 1.953-7.071 0zm-22.414 116.556c-1.953 1.953-1.953 5.118 0 7.071l91.924 91.924c1.953 1.953 5.118 1.953 7.071 0 1.953-1.953 1.953-5.118 0-7.071l-91.924-91.924c-1.952-1.953-5.118-1.953-7.071 0z" fill="#20b7a1"/><path d="m248.276 92.907c1.953 1.953 1.953 5.118 0 7.071-1.953 1.952-5.118 1.952-7.071 0l-11.869-11.869c-1.953-1.952-1.953-5.118 0-7.071s5.118-1.953 7.071 0zm42.128 8.557-11.869-11.869c-1.953-1.953-5.119-1.953-7.071 0s-1.953 5.119 0 7.071l11.869 11.869c1.953 1.953 5.119 1.953 7.071 0s1.953-5.118 0-7.071zm-96.136-25.826c-1.953-1.953-5.118-1.953-7.071 0-1.953 1.953-1.953 5.119 0 7.071l11.869 11.869c1.953 1.953 5.118 1.953 7.071 0s1.953-5.119 0-7.071zm48.325 164.698c-1.953 1.953-1.953 5.118 0 7.071l42.426 42.426c1.953 1.953 5.118 1.953 7.071 0 1.953-1.953 1.953-5.118 0-7.071l-42.426-42.426c-1.952-1.953-5.118-1.953-7.071 0z" fill="#7af4ab"/><path d="m419.37 404.384c5.144 6.177 7.852 13.576 8.042 20.77-7.193-.19-14.593-2.897-20.77-8.042zm19.092-24.748-12.728 12.728c6.177 5.144 13.576 7.852 20.77 8.042-.191-7.195-2.898-14.593-8.042-20.77zm-56.568 56.568c6.177 5.144 13.576 7.852 20.769 8.042-.19-7.193-2.897-14.593-8.042-20.77z" fill="#fff68e"/><path d="m444.782 380.387-62.133 62.132c-3.515 3.515-9.242 3.58-12.759.066-.567-.567-1.125-1.149-1.672-1.747-18.464-20.162-18.387-51.599.168-71.677 20.545-22.232 55.239-22.748 76.44-1.547l.065.065c3.49 3.504 3.387 9.212-.109 12.708z" fill="#65b1cf"/><path d="m377.651 361.251 41.956 41.956c2.212 2.212 2.212 5.799 0 8.011l-6.131 6.131c-2.212 2.212-5.799 2.212-8.011 0l-41.956-41.956c-4.618-4.618-5.595-11.498-2.932-17.074 5.575-2.664 12.456-1.686 17.074 2.932z" fill="#8cc5db"/><path d="m399.01 396.752c-3.905 3.905-10.237 3.905-14.142 0l-21.359-21.359c-4.618-4.619-5.596-11.499-2.932-17.074 5.576-2.664 12.456-1.687 17.074 2.932l21.359 21.359c3.905 3.905 3.905 10.237 0 14.142z" fill="#a6d2e3"/><path d="m207.286 217.287c-8.982 8.982-23.545 8.982-32.527 0s-8.982-23.545 0-32.527 23.545-8.982 32.527 0 8.982 23.545 0 32.527z" fill="#ff3c7d"/><path d="m207.286 217.287c-3.043 3.043-6.728 5.056-10.619 6.037-3.891-.981-7.575-2.993-10.619-6.037-8.982-8.982-8.982-23.545 0-32.527 3.044-3.044 6.728-5.056 10.619-6.037 3.891.981 7.575 2.993 10.619 6.037 8.982 8.982 8.982 23.545 0 32.527z" fill="#ff50b5"/><path d="m202.957 190.245c0 1.812-2.801 3.28-6.255 3.28-3.455 0-6.255-1.469-6.255-3.28 0-1.812 2.801-3.28 6.255-3.28 3.455 0 6.255 1.468 6.255 3.28zm-14.164 8.076c-3.455 0-6.255 1.469-6.255 3.28 0 1.812 2.801 3.28 6.255 3.28 3.455 0 6.255-1.469 6.255-3.28s-2.801-3.28-6.255-3.28zm9.159 9.16c-3.455 0-6.255 1.469-6.255 3.28 0 1.812 2.801 3.28 6.255 3.28 3.455 0 6.255-1.469 6.255-3.28.001-1.812-2.8-3.28-6.255-3.28z" fill="#ff3c7d"/><path d="m79.669 166.536c-5.314 3.329-9.804 7.819-13.133 13.133-.616.983-2.049.983-2.665 0-3.329-5.314-7.819-9.804-13.133-13.133-.983-.616-.983-2.049 0-2.665 5.314-3.329 9.804-7.819 13.133-13.134.616-.983 2.049-.983 2.665 0 3.329 5.314 7.819 9.805 13.133 13.134.983.616.983 2.048 0 2.665zm399.781 41.135c-3.962-2.482-7.31-5.83-9.792-9.792-.459-.733-1.528-.733-1.987 0-2.482 3.962-5.83 7.31-9.792 9.792-.733.459-.733 1.527 0 1.987 3.962 2.482 7.31 5.83 9.792 9.792.459.733 1.527.733 1.987 0 2.482-3.962 5.83-7.31 9.792-9.792.733-.46.733-1.528 0-1.987z" fill="#fff68e"/><path d="m89.45 242.329c-3.962 2.482-7.31 5.83-9.792 9.792-.459.733-1.528.733-1.987 0-2.482-3.962-5.83-7.31-9.792-9.792-.733-.459-.733-1.527 0-1.987 3.962-2.482 7.31-5.83 9.792-9.792.459-.733 1.527-.733 1.987 0 2.482 3.962 5.83 7.31 9.792 9.792.733.46.733 1.528 0 1.987zm230 215.342c-3.962-2.482-7.31-5.83-9.792-9.792-.459-.733-1.528-.733-1.987 0-2.482 3.962-5.83 7.31-9.792 9.792-.733.459-.733 1.527 0 1.987 3.962 2.482 7.31 5.83 9.792 9.792.459.733 1.527.733 1.987 0 2.482-3.962 5.83-7.31 9.792-9.792.733-.46.733-1.528 0-1.987z" fill="#ff50b5"/></g></svg>