<svg id="Capa_1" enable-background="new 0 0 512 512" height="512" viewBox="0 0 512 512" width="512" xmlns="http://www.w3.org/2000/svg"><g><path d="m26.901 370.36c-17.091-34.171-26.761-72.699-26.899-113.472-.48-141.384 114.614-256.888 255.999-256.888s255.999 114.616 255.999 256c0 40.813-9.551 79.395-26.539 113.633-2.184 4.401-6.707 7.154-11.62 7.154h-436.476c-4.42 0-8.487-2.474-10.464-6.427z" fill="#232e7a"/><path d="m46.883 370.851c-15.783-31.556-24.713-67.136-24.841-104.789-.443-130.566 105.845-237.233 236.412-237.232s236.411 105.846 236.411 236.412c0 37.69-8.82 73.32-24.508 104.939-2.016 4.064-6.194 6.607-10.73 6.607h-403.08c-4.082-.001-7.838-2.286-9.664-5.937z" fill="#2b3894"/><path d="m33.821 282.896c-3.962 2.482-7.31 5.83-9.792 9.792-.459.733-1.527.733-1.987 0-2.482-3.962-5.83-7.31-9.792-9.792-.733-.459-.733-1.527 0-1.987 3.962-2.482 7.31-5.83 9.792-9.792.459-.733 1.527-.733 1.987 0 2.482 3.962 5.83 7.31 9.792 9.792.733.459.733 1.527 0 1.987zm175.848-246.361c-5.314 3.329-9.804 7.819-13.133 13.133-.616.983-2.049.983-2.665 0-3.329-5.314-7.819-9.804-13.133-13.133-.983-.616-.983-2.049 0-2.665 5.314-3.329 9.804-7.819 13.133-13.133.616-.983 2.049-.983 2.665 0 3.329 5.314 7.819 9.804 13.133 13.133.983.617.983 2.049 0 2.665z" fill="#ffc14f"/><path d="m62.121 149.658c-3.962 2.482-7.31 5.83-9.792 9.792-.459.733-1.527.733-1.987 0-2.482-3.962-5.83-7.31-9.792-9.792-.733-.459-.733-1.527 0-1.987 3.962-2.482 7.31-5.83 9.792-9.792.459-.733 1.527-.733 1.987 0 2.482 3.962 5.83 7.31 9.792 9.792.734.459.734 1.527 0 1.987zm397.141-33.123c-5.314 3.329-9.804 7.819-13.133 13.133-.616.983-2.049.983-2.665 0-3.329-5.314-7.819-9.804-13.133-13.133-.983-.616-.983-2.049 0-2.665 5.314-3.329 9.804-7.819 13.133-13.133.616-.983 2.049-.983 2.665 0 3.329 5.314 7.819 9.804 13.133 13.133.984.617.984 2.049 0 2.665z" fill="#5766ce"/><path d="m485.732 369.086c-41.757 84.668-128.943 142.914-229.732 142.914s-187.975-58.246-229.732-142.914z" fill="#ffc14f"/><path d="m499.45 268.494c-3.962 2.482-7.31 5.83-9.792 9.792-.459.733-1.528.733-1.987 0-2.482-3.962-5.83-7.31-9.792-9.792-.733-.459-.733-1.527 0-1.987 3.962-2.482 7.31-5.831 9.792-9.792.459-.733 1.527-.733 1.987 0 2.482 3.962 5.83 7.31 9.792 9.792.733.459.733 1.527 0 1.987z" fill="#65b1cf"/><path d="m466.334 264.562c0 72.421-36.602 136.294-92.316 174.128h-236.036c-55.714-37.835-92.316-101.707-92.316-174.128 0-116.164 94.17-210.334 210.334-210.334s210.334 94.17 210.334 210.334z" fill="#5766ce"/><path d="m429.713 145.934-336.795 96.259-16.488-57.69 306.569-87.62c18.082 13.717 33.878 30.291 46.714 49.051zm23.482 45.291-346.536 99.043 32.977 115.38 320.87-91.708c3.81-15.837 5.829-32.372 5.829-49.378-.001-25.794-4.644-50.503-13.14-73.337z" fill="#717ed6"/><path d="m240 438.69h-102.018c-55.714-37.835-92.316-101.707-92.316-174.128 0-116.164 94.17-210.334 210.334-210.334 30.004 0 58.541 6.283 84.367 17.604-30.367 108.168-80.367 298.168-100.367 366.858z" fill="#c0dfeb"/><path d="m201.733 438.69h-63.751c-55.714-37.835-92.316-101.707-92.316-174.128 0-70.882 35.062-133.574 88.788-171.68v-65.934c0-1.652 2.015-2.99 4.5-2.99h1c2.485 0 4.5 1.339 4.5 2.99v59.262c32.335-20.265 70.572-31.982 111.546-31.982 10.836 0 21.481.82 31.876 2.4-101.038 15.36-178.458 102.606-178.458 207.934 0 72.421 36.601 136.294 92.315 174.128z" fill="#a6d2e3"/><path d="m148.91 29.455c0 5.222-4.233 9.455-9.455 9.455s-9.455-4.233-9.455-9.455 4.233-9.455 9.455-9.455 9.455 4.233 9.455 9.455z" fill="#c0dfeb"/><path d="m185 260c0 27.614-22.386 50-50 50s-50-22.386-50-50 22.386-50 50-50 50 22.386 50 50z" fill="#8c96dd"/><path d="m135 205c-30.327 0-55 24.673-55 55s24.673 55 55 55 55-24.673 55-55-24.673-55-55-55zm0 100c-24.813 0-45-20.187-45-45s20.187-45 45-45 45 20.187 45 45-20.187 45-45 45z" fill="#717ed6"/><path d="m165 260c0 16.569-13.431 30-30 30s-30-13.431-30-30 13.431-30 30-30 30 13.431 30 30z" fill="#5766ce"/><path d="m163.003 270.785c-4.332 11.239-15.236 19.215-28.003 19.215-16.569 0-30-13.432-30-30 0-12.767 7.975-23.671 19.216-28.003-1.29 3.347-1.997 6.983-1.997 10.785 0 16.569 13.431 30 30 30 3.801 0 7.437-.708 10.784-1.997z" fill="#3d4ec6"/><path d="m59.599 340h190.076v10h-185.931c-1.464-3.29-2.847-6.624-4.145-10zm8.472-170c-1.656 3.285-3.229 6.619-4.715 10h226.32v-10z" fill="#7fbed7"/><path d="m261.035 151.098 64.353 11.251c21.176 3.702 33.178 26.379 24.331 45.972l-100.009 221.464-38.832-9.596 14.557-240.963c1.094-18.121 17.717-31.255 35.6-28.128z" fill="#8c96dd"/><path d="m224.956 187.153 8.168-135.209c.565-9.354 9.474-15.906 18.571-13.658l139.774 34.539c9.097 2.248 13.929 12.195 10.072 20.735l-55.748 123.452c-12.566 27.828-43.211 42.713-72.853 35.389-29.641-7.325-49.825-34.771-47.984-65.248z" fill="#a6aee5"/><path d="m179.524 431.551c0 5.558-4.505 10.063-10.063 10.063h-50.313c-5.557 0-10.063-4.505-10.063-10.063 0-5.557 4.505-10.062 10.063-10.062h50.313c5.558-.001 10.063 4.504 10.063 10.062z" fill="#8c96dd"/><path d="m402.915 431.551c0 5.558-4.505 10.063-10.063 10.063h-233.454c-5.557 0-10.063-4.505-10.063-10.063 0-5.557 4.505-10.062 10.063-10.062h233.454c5.558-.001 10.063 4.504 10.063 10.062z" fill="#a6aee5"/><path d="m179.524 449.535c0 5.557-4.505 10.063-10.063 10.063h-50.313c-5.557 0-10.063-4.505-10.063-10.063s4.505-10.063 10.063-10.063h50.313c5.558.001 10.063 4.506 10.063 10.063z" fill="#717ed6"/><path d="m402.915 449.535c0 5.557-4.505 10.063-10.063 10.063h-233.454c-5.557 0-10.063-4.505-10.063-10.063s4.505-10.063 10.063-10.063h233.454c5.558.001 10.063 4.506 10.063 10.063z" fill="#8c96dd"/><path d="m260 417.739c0 15.32-12.419 27.739-27.739 27.739s-27.739-12.419-27.739-27.739 12.419-27.739 27.739-27.739 27.739 12.419 27.739 27.739z" fill="#717ed6"/><path d="m244.722 417.739c0 6.882-5.579 12.461-12.461 12.461s-12.461-5.579-12.461-12.461 5.579-12.461 12.461-12.461 12.461 5.579 12.461 12.461z" fill="#5766ce"/></g></svg>