<svg id="Capa_1" enable-background="new 0 0 512 512" height="512" viewBox="0 0 512 512" width="512" xmlns="http://www.w3.org/2000/svg"><g><path d="m512 256c0 141.385-114.615 256-256 256s-256-114.615-256-256 114.615-256 256-256 256 114.615 256 256z" fill="#232e7a"/><path d="m433.416 256c0 97.984-79.432 177.416-177.416 177.416s-177.416-79.432-177.416-177.416 79.432-177.416 177.416-177.416 177.416 79.432 177.416 177.416z" fill="#19305c"/><path d="m84.94 167.942 11.869-11.869c1.953-1.953 5.118-1.953 7.071 0 1.953 1.953 1.953 5.118 0 7.071l-11.869 11.869c-1.953 1.953-5.118 1.953-7.071 0-1.952-1.952-1.952-5.118 0-7.071zm257.473-98.496c1.953-1.953 1.953-5.118 0-7.071s-5.119-1.953-7.071 0l-91.924 91.924c-1.953 1.953-1.953 5.118 0 7.071 1.953 1.953 5.119 1.953 7.071 0zm-262.162 151.436c-1.953-1.953-1.953-5.119 0-7.071l52.426-52.426c1.953-1.953 5.119-1.953 7.071 0s1.953 5.118 0 7.071l-52.426 52.427c-1.952 1.952-5.118 1.952-7.071-.001zm163.167 242.283c-1.953-1.953-1.953-5.119 0-7.071l52.426-52.426c1.953-1.953 5.119-1.953 7.071 0s1.953 5.118 0 7.071l-52.426 52.427c-1.953 1.951-5.119 1.951-7.071-.001zm-5.831-261.669c-1.953-1.953-1.953-5.119 0-7.071l52.426-52.426c1.953-1.953 5.119-1.953 7.071 0s1.953 5.118 0 7.071l-52.426 52.427c-1.952 1.951-5.118 1.951-7.071-.001zm68.665 230.455c-1.953-1.953-1.953-5.119 0-7.071l52.426-52.426c1.953-1.953 5.119-1.953 7.071 0s1.953 5.118 0 7.071l-52.426 52.427c-1.953 1.952-5.119 1.952-7.071-.001zm143.887-85.434c-1.953 1.953-5.119 1.953-7.071 0s-1.953-5.119 0-7.071l15.962-15.962c1.953-1.953 5.119-1.953 7.071 0s1.953 5.119 0 7.071zm-140.906-35.673c1.953-1.953 5.119-1.953 7.071 0s1.953 5.119 0 7.071l-15.962 15.962c-1.953 1.953-5.119 1.953-7.071 0s-1.953-5.119 0-7.071zm-48.788-69.361c1.953-1.953 5.119-1.953 7.071 0s1.953 5.119 0 7.071l-15.962 15.962c-1.953 1.953-5.119 1.953-7.071 0s-1.953-5.119 0-7.071z" fill="#2b3894"/><path d="m58.113 243.994c-3.962 2.482-7.31 5.83-9.792 9.792-.459.733-1.527.733-1.987 0-2.482-3.962-5.83-7.31-9.792-9.792-.733-.459-.733-1.527 0-1.987 3.962-2.482 7.31-5.83 9.792-9.792.459-.733 1.527-.733 1.987 0 2.482 3.962 5.83 7.31 9.792 9.792.733.459.733 1.527 0 1.987z" fill="#865cb2"/><path d="m213 106.5c0 23.472-19.028 42.5-42.5 42.5s-42.5-19.028-42.5-42.5 19.028-42.5 42.5-42.5 42.5 19.028 42.5 42.5z" fill="#754ca0"/><path d="m170.5 64c-7.954 0-15.397 2.185-21.763 5.987-3.802 6.366-5.987 13.809-5.987 21.763 0 9.169 2.903 17.659 7.841 24.603 1.58-4.41 5.796-7.566 10.75-7.566 6.305 0 11.416 5.111 11.416 11.416 0 4.255-2.328 7.966-5.779 9.929 5.536 2.64 11.731 4.119 18.273 4.119 7.954 0 15.397-2.185 21.763-5.987 3.802-6.366 5.987-13.809 5.987-21.763-.001-23.473-19.029-42.501-42.501-42.501zm-.892 29.152c-4.566 0-8.267-3.701-8.267-8.267s3.701-8.267 8.267-8.267 8.267 3.701 8.267 8.267-3.701 8.267-8.267 8.267zm22.638 21.615c-4.566 0-8.267-3.701-8.267-8.267s3.701-8.267 8.267-8.267 8.267 3.701 8.267 8.267-3.701 8.267-8.267 8.267z" fill="#865cb2"/><path d="m245.138 357.498c0 13.228-2.243 25.932-6.37 37.752-2.027 5.806 2.854 11.401-.04 16.739-19.374 35.741-57.217 60.011-100.728 60.011-63.237 0-114.5-51.263-114.5-114.5 0-41.808 22.408-78.383 55.869-98.37 4.249-2.538 6.485 6.527 11.068 4.547 13.912-6.011 29.253-9.342 45.372-9.342 63.236.001 109.329 39.926 109.329 103.163z" fill="#ffa90b"/><path d="m74.268 392.938c0 3.72-3.015 6.735-6.735 6.735h-13.47c-3.72 0-6.735-3.016-6.735-6.735s3.016-6.735 6.735-6.735h13.47c3.72 0 6.735 3.015 6.735 6.735zm162.102 23.193c-17.15 10.244-37.203 16.13-58.631 16.13-28.054 0-53.751-10.089-73.662-26.837-7.331-6.167-2.889-18.15 6.691-18.15h29.622c5.802 0 10.462-4.891 10.081-10.775-.348-5.37-5.046-9.43-10.427-9.43h-58.949c-4.196 0-7.984-2.538-9.557-6.428-.028-.068-.055-.136-.083-.205-2.726-6.784 2.245-14.181 9.556-14.181h8.7c3.789 0 6.847-3.128 6.732-6.942-.111-3.686-3.327-6.528-7.015-6.528h-15.779c-5.473 0-10.043-4.276-10.292-9.744-.079-1.75-.12-3.51-.12-5.279 0-21.428 5.887-41.481 16.13-58.631 11.315-6.758 23.893-11.62 37.297-14.146 7.011-1.321 14.247 5.23 21.647 5.25 62.711.166 108.309 43.055 108.476 105.765.02 7.399 5.05 15.824 3.729 22.835-2.526 13.403-7.388 25.981-14.146 37.296zm-27.733-10.51c0-3.72-3.016-6.735-6.735-6.735h-26.941c-3.72 0-6.735 3.015-6.735 6.735 0 3.72 3.015 6.735 6.735 6.735h26.941c3.72 0 6.735-3.015 6.735-6.735zm-54.806 36.752h-26.941c-3.72 0-6.735 3.015-6.735 6.735 0 3.72 3.016 6.735 6.735 6.735h26.941c3.72 0 6.735-3.015 6.735-6.735 0-3.72-3.015-6.735-6.735-6.735z" fill="#ffc14f"/><path d="m252.497 356.648c-.453-62.266-51.378-113.192-113.645-113.645-7.587-.055-15.005.628-22.186 1.981-1.303 6.912-1.984 14.043-1.984 21.334 0 3.367.145 6.701.43 9.994 1.033 11.941-8.417 22.187-20.402 22.187h-11.657c-3.688 0-6.904 2.842-7.015 6.528-.115 3.814 2.944 6.943 6.732 6.943l121.352.287c5.58 0 10.103 4.523 10.103 10.103s-4.523 10.103-10.103 10.103l-90.175.287c-3.72 0-6.735 3.015-6.735 6.735 0 3.72 3.015 6.735 6.735 6.735h25.1c5.032 0 9.86 1.9 13.602 5.265 20.281 18.236 47.11 29.333 76.531 29.333 7.291 0 14.422-.682 21.334-1.984 1.355-7.181 2.038-14.599 1.983-22.186zm-85.196-58.814h-13.471c-3.72 0-6.735-3.015-6.735-6.735s3.015-6.735 6.735-6.735h13.471c3.72 0 6.735 3.015 6.735 6.735.001 3.72-3.015 6.735-6.735 6.735zm55.703 64.329h-13.471c-3.72 0-6.735-3.015-6.735-6.735s3.015-6.735 6.735-6.735h13.471c3.72 0 6.735 3.015 6.735 6.735s-3.016 6.735-6.735 6.735z" fill="#ffcd71"/><path d="m289.458 50.164c-3.962 2.482-7.31 5.83-9.792 9.792-.459.733-1.527.733-1.987 0-2.482-3.962-5.83-7.31-9.792-9.792-.733-.459-.733-1.527 0-1.987 3.962-2.482 7.31-5.83 9.792-9.792.459-.733 1.527-.733 1.987 0 2.482 3.962 5.83 7.31 9.792 9.792.733.459.733 1.527 0 1.987zm-109.528 146.611c-5.314 3.329-9.804 7.819-13.133 13.133-.616.983-2.049.983-2.665 0-3.329-5.314-7.819-9.804-13.133-13.133-.983-.616-.983-2.049 0-2.665 5.314-3.329 9.804-7.819 13.133-13.133.616-.983 2.049-.983 2.665 0 3.329 5.314 7.819 9.804 13.133 13.133.984.617.984 2.049 0 2.665z" fill="#ffc14f"/><path d="m401.701 86.374c-3.962 2.482-7.31 5.83-9.792 9.792-.459.733-1.527.733-1.987 0-2.482-3.962-5.83-7.31-9.792-9.792-.733-.459-.733-1.527 0-1.987 3.962-2.482 7.31-5.83 9.792-9.792.459-.733 1.527-.733 1.987 0 2.482 3.962 5.83 7.31 9.792 9.792.733.46.733 1.528 0 1.987zm-84.565 286.161c-5.314 3.329-9.804 7.819-13.133 13.133-.616.983-2.049.983-2.665 0-3.329-5.314-7.819-9.804-13.133-13.133-.983-.616-.983-2.049 0-2.665 5.314-3.329 9.804-7.819 13.133-13.133.616-.983 2.049-.983 2.665 0 3.329 5.314 7.819 9.804 13.133 13.133.984.616.984 2.049 0 2.665z" fill="#fff68e"/><path d="m478.277 216.223c0 14.67 4.007 25.749-2.536 37.793-14.394 26.497-42.467 44.484-74.741 44.484-46.944 0-85-38.056-85-85 0-31.037 16.635-58.188 41.474-73.026 12.731-7.605 29.32-3.772 45.228-3.772 46.944 0 75.575 32.577 75.575 79.521z" fill="#20b7a1"/><path d="m485.987 211.99c.286 16.475-4.117 31.902-11.961 45.036-12.732 7.604-27.619 11.974-43.526 11.974-10.732 0-20.999-1.989-30.454-5.618-5.158-1.98-3.701-9.658 1.824-9.658h32.511c2.611 0 4.943-1.909 5.191-4.509.284-2.982-2.053-5.491-4.977-5.491h-62.451c-1.359 0-2.671-.541-3.602-1.531-.03-.032-.06-.064-.09-.096-2.972-3.172-.657-8.373 3.689-8.373h90.962c2.611 0 4.943-1.909 5.191-4.509.284-2.982-2.053-5.491-4.977-5.491h-104.903c-1.923 0-3.678-1.101-4.513-2.833-5.384-11.158-8.401-23.672-8.401-36.891 0-15.907 4.37-30.794 11.975-43.525 6.17-3.685 12.845-6.611 19.898-8.648 7.962-2.299 14.89 1.999 23.627 2.152 33.828.589 58.729 19.257 71.83 48.511 2.329 5.2 9.964 7.195 11.211 12.873 1.18 5.375 1.847 10.935 1.946 16.627zm-83.285 68.308c0-2.761-2.239-5-5-5h-13.574c-2.761 0-5 2.239-5 5 0 2.761 2.239 5 5 5h13.574c2.762 0 5-2.239 5-5zm-27.362-19.298c0-2.761-2.239-5-5-5h-13.574c-2.761 0-5 2.239-5 5 0 2.761 2.239 5 5 5h13.574c2.762 0 5-2.239 5-5z" fill="#35e298"/><path d="m375.915 177.582h-13.575c-2.761 0-5-2.239-5-5 0-2.761 2.239-5 5-5h13.574c2.761 0 5 2.239 5 5 .001 2.762-2.238 5-4.999 5zm108.161 17.851c-6.75 1.946-13.845 3.078-21.171 3.283-.192.022-.387.034-.585.034h-97.126c-2.611 0-4.943-1.909-5.191-4.509-.284-2.982 2.053-5.491 4.977-5.491h81.53c2.611 0 4.943-1.909 5.191-4.509.284-2.982-2.053-5.491-4.977-5.491h-10.861c-27.866 0-52.251-19.179-58.331-46.374-.042-.186-.083-.373-.123-.559 7.491-2.16 15.406-3.317 23.592-3.317 40.743 0 74.792 28.668 83.075 66.933zm-51.972-39.702c0-2.761-2.239-5-5-5h-13.574c-2.761 0-5 2.239-5 5s2.239 5 5 5h13.574c2.761 0 5-2.238 5-5z" fill="#7af4ab"/><path d="m512 216.223c0 4.142-3.358 7.5-7.5 7.5h-207c-4.142 0-7.5-3.358-7.5-7.5s3.358-7.5 7.5-7.5h207c4.142 0 7.5 3.358 7.5 7.5z" fill="#8cc5db"/><path d="m494.277 216.223c0 4.142-3.358 7.5-7.5 7.5h-133.777c-4.142 0-7.5-3.358-7.5-7.5s3.358-7.5 7.5-7.5h133.777c4.142 0 7.5 3.358 7.5 7.5z" fill="#c0dfeb"/><path d="m413.488 407.579c-3.962 2.482-7.31 5.83-9.792 9.792-.459.733-1.528.733-1.987 0-2.482-3.962-5.83-7.31-9.792-9.792-.733-.459-.733-1.527 0-1.987 3.962-2.482 7.31-5.831 9.792-9.792.459-.733 1.527-.733 1.987 0 2.482 3.962 5.83 7.31 9.792 9.792.733.46.733 1.528 0 1.987zm-94.327-134.246c-3.962-2.482-7.31-5.83-9.792-9.792-.459-.733-1.528-.733-1.987 0-2.482 3.962-5.83 7.31-9.792 9.792-.733.459-.733 1.528 0 1.987 3.962 2.482 7.31 5.83 9.792 9.792.459.733 1.528.733 1.987 0 2.482-3.962 5.83-7.31 9.792-9.792.734-.459.734-1.527 0-1.987zm-230.278-150.931c-3.962-2.482-7.31-5.83-9.792-9.792-.459-.733-1.528-.733-1.987 0-2.482 3.962-5.83 7.31-9.792 9.792-.733.459-.733 1.528 0 1.987 3.962 2.482 7.31 5.83 9.792 9.792.459.733 1.528.733 1.987 0 2.482-3.962 5.83-7.31 9.792-9.792.734-.46.734-1.528 0-1.987z" fill="#65b1cf"/></g></svg>