<svg id="Capa_1" enable-background="new 0 0 512 512" height="512" viewBox="0 0 512 512" width="512" xmlns="http://www.w3.org/2000/svg"><g><path d="m512 256.125c-.068 142.191-114.848 256.437-257.038 255.872-32.795-.13-64.136-6.427-92.923-17.792-5.209-2.056-8.894-6.724-9.741-12.26-9.125-59.624-57.905-106.194-118.576-111.945-4.601-.436-8.652-3.279-10.577-7.481-14.79-32.279-23.066-68.165-23.144-105.975-.294-141.073 114.747-256.448 255.82-256.544 141.509-.097 256.247 114.624 256.179 256.125z" fill="#ffa90b"/><path d="m479.117 220.412c0 103.569-83.96 187.529-187.529 187.529s-187.529-83.96-187.529-187.529 83.96-187.529 187.529-187.529 187.529 83.959 187.529 187.529z" fill="#ffc14f"/><path d="m448.893 25.606-32.527 32.527c-5.858 5.858-15.355 5.858-21.213 0-5.858-5.858-5.858-15.355 0-21.213l32.527-32.527c5.858-5.858 15.355-5.858 21.213 0 5.857 5.858 5.857 15.356 0 21.213z" fill="#232e7a"/><path d="m430.377 104.934-19.847 19.846c-5.858 5.858-15.355 5.858-21.213 0-5.857-5.857-5.858-15.353-.002-21.211l19.844-19.844c5.858-5.858 15.355-5.858 21.213 0 5.856 5.857 5.858 15.35.005 21.209zm-10.476-71.549c-5.858-5.858-15.355-5.858-21.213 0l-34.648 34.648c-5.858 5.858-5.858 15.355 0 21.213 5.858 5.858 15.355 5.858 21.213 0l34.648-34.648c5.858-5.858 5.858-15.355 0-21.213zm-11.641 134.677c5.858 5.858 15.355 5.858 21.213 0l24.369-24.369c5.858-5.858 5.858-15.355 0-21.213s-15.355-5.858-21.213 0l-24.372 24.372c-5.855 5.858-5.854 15.353.003 21.21zm44.168 16.644c-5.858-5.858-15.355-5.858-21.213 0l-20.459 20.459c-5.855 5.858-5.854 15.354.003 21.211 5.858 5.858 15.355 5.858 21.213 0l20.459-20.459c5.855-5.859 5.854-15.354-.003-21.211zm-122.009-124.734c-.648-5.485-5.62-9.405-11.105-8.757l-39.973 4.725c-8.227.973-14.108 8.43-13.135 16.657.973 8.227 8.43 14.108 16.657 13.135l30.042-3.551c10.97-1.296 18.811-11.24 17.514-22.209z" fill="#3342ae"/><path d="m380.303 262.487-48.083 48.083c-33.585 33.585-88.037 33.585-121.622 0-33.585-33.585-33.585-88.037 0-121.622l48.083-48.083c33.585-33.585 88.037-33.585 121.622 0 33.585 33.585 33.585 88.037 0 121.622z" fill="#3342ae"/><path d="m343.167 118.983c-16.806 2.947-32.904 10.91-45.885 23.891l-84.675 84.675c-12.981 12.981-20.945 29.079-23.891 45.885-8.289-29.051-.995-61.609 21.882-84.486l48.083-48.083c22.877-22.877 55.435-30.17 84.486-21.882z" fill="#2b3894"/><path d="m351.665 185.059-50.912 50.912c-2.929 2.929-7.678 2.929-10.607 0s-2.929-7.678 0-10.607l50.912-50.912c2.929-2.929 7.678-2.929 10.607 0 2.929 2.93 2.929 7.678 0 10.607zm-24.041-34.648c-2.929-2.929-7.678-2.929-10.607 0l-50.912 50.912c-2.929 2.929-2.929 7.677 0 10.606s7.678 2.929 10.607 0l50.912-50.912c2.929-2.928 2.929-7.677 0-10.606zm48.083 48.083c-2.929-2.929-7.678-2.929-10.607 0l-50.912 50.912c-2.929 2.929-2.929 7.678 0 10.607s7.678 2.929 10.607 0l50.912-50.912c2.929-2.929 2.929-7.678 0-10.607z" fill="#232e7a"/><path d="m321.444 274.339c-20.604 20.604-54.011 20.604-74.615 0s-20.604-54.011 0-74.615 54.011-20.604 74.615 0c20.605 20.604 20.605 54.011 0 74.615z" fill="#2b3894"/><path d="m308.885 261.78c-13.668 13.668-35.829 13.668-49.497 0s-13.668-35.829 0-49.498c13.668-13.668 35.829-13.668 49.497 0 13.669 13.669 13.669 35.83 0 49.498z" fill="#19305c"/><path d="m312.421 208.747c-15.596-15.596-40.973-15.596-56.569 0s-15.596 40.973 0 56.569 40.972 15.596 56.569 0c15.596-15.596 15.596-40.973 0-56.569zm-7.071 49.498c-11.697 11.697-30.729 11.697-42.426 0s-11.697-30.729 0-42.426 30.729-11.697 42.426 0c11.697 11.696 11.697 30.729 0 42.426z" fill="#93e2c6"/><path d="m342.119 314.813-179.587 179.587c-49.885-19.573-92.135-54.352-121.045-98.631-11.918-18.254-9.511-42.342 5.905-57.758l139.225-139.225c14.806-14.806 38.812-14.806 53.618 0l101.884 101.884c3.906 3.906 3.906 10.238 0 14.143z" fill="#717ed6"/><path d="m220.497 179.049 20.082 20.082-198.118 198.118c-7.333-11.063-13.828-22.729-19.397-34.908l183.292-183.291c3.904-3.906 10.236-3.906 14.141-.001zm-50.558 177.13c-2.929-2.929-7.678-2.929-10.607 0l-55.273 55.273c-2.929 2.929-2.929 7.677 0 10.607 2.929 2.929 7.678 2.929 10.607 0l55.273-55.273c2.929-2.929 2.929-7.678 0-10.607zm-24.042-13.435-55.273 55.273c-2.929 2.929-7.678 2.929-10.607 0s-2.929-7.678 0-10.607l55.273-55.273c2.929-2.929 7.678-2.929 10.607 0s2.929 7.678 0 10.607zm48.084 48.083-55.273 55.273c-2.929 2.929-7.678 2.929-10.607 0s-2.929-7.678 0-10.606l55.273-55.273c2.929-2.929 7.678-2.929 10.607 0 2.929 2.929 2.929 7.677 0 10.606z" fill="#5766ce"/><path d="m282.015 332.491-35.355 35.355c-5.858 5.858-15.355 5.858-21.213 0l-72.125-72.125c-5.858-5.858-5.858-15.355 0-21.213l35.355-35.355c5.858-5.858 15.355-5.858 21.213 0l72.125 72.125c5.858 5.858 5.858 15.355 0 21.213z" fill="#2b3894"/><path d="m236.053 379.74c-6.01 0-11.66-2.34-15.91-6.59l-72.125-72.125c-4.25-4.249-6.59-9.899-6.59-15.91 0-6.01 2.34-11.66 6.59-15.91l35.355-35.355c4.25-4.25 9.9-6.59 15.91-6.59s11.661 2.34 15.91 6.59l72.124 72.125c4.25 4.25 6.59 9.9 6.59 15.91s-2.341 11.661-6.59 15.91l-35.355 35.355c-4.248 4.249-9.899 6.59-15.909 6.59zm-36.769-137.481c-2.003 0-3.887.78-5.303 2.197l-35.355 35.355c-1.417 1.417-2.197 3.3-2.197 5.303s.78 3.887 2.197 5.303l72.125 72.125c1.417 1.417 3.3 2.197 5.303 2.197s3.887-.78 5.304-2.197l35.355-35.355c1.417-1.417 2.197-3.3 2.197-5.303s-.78-3.887-2.197-5.303l-72.124-72.125c-1.418-1.416-3.302-2.197-5.305-2.197z" fill="#19305c"/><path d="m241.239 309.392-17.678 17.678c-2.929 2.929-7.678 2.929-10.607 0-2.929-2.929-2.929-7.678 0-10.607l17.678-17.677c2.929-2.929 7.678-2.929 10.607 0 2.929 2.928 2.929 7.677 0 10.606z" fill="#24d3b5"/><path d="m222.383 290.536-17.678 17.678c-2.929 2.929-7.678 2.929-10.607 0s-2.929-7.678 0-10.607l17.678-17.678c2.929-2.929 7.678-2.929 10.607 0s2.929 7.678 0 10.607z" fill="#58aacb"/><path d="m260.095 328.248-17.678 17.678c-2.929 2.929-7.678 2.929-10.607 0s-2.929-7.678 0-10.607l17.678-17.678c2.929-2.929 7.678-2.929 10.607 0 2.929 2.93 2.929 7.678 0 10.607z" fill="#93e2c6"/><path d="m203.527 271.68-17.678 17.678c-2.929 2.929-7.678 2.929-10.607 0s-2.929-7.678 0-10.606l17.678-17.678c2.929-2.929 7.678-2.929 10.607 0 2.928 2.928 2.928 7.677 0 10.606z" fill="#5766ce"/><path d="m412.694 122.616-21.784 21.784c-5.858 5.858-15.355 5.858-21.213 0-5.858-5.858-5.858-15.355 0-21.213l21.784-21.784c5.858-5.858 15.355-5.858 21.213 0 5.858 5.858 5.858 15.355 0 21.213zm-23.906-58.119c-5.858-5.858-15.355-5.858-21.213 0l-38.891 38.891c-5.858 5.858-5.858 15.355 0 21.213 5.858 5.858 15.355 5.858 21.213 0l38.891-38.891c5.858-5.857 5.858-15.355 0-21.213zm42.427 80.611c-5.858-5.858-15.355-5.858-21.213 0l-23.335 23.335c-5.858 5.858-5.858 15.355 0 21.213 5.858 5.858 15.355 5.858 21.213 0l23.335-23.335c5.858-5.858 5.858-15.355 0-21.213zm1.414 59.397c-5.858-5.858-15.355-5.858-21.213 0l-22.627 22.627c-5.858 5.858-5.858 15.355 0 21.213 5.858 5.858 15.355 5.858 21.213 0l22.627-22.627c5.858-5.858 5.858-15.355 0-21.213zm-149.782-148.475c-8.198-1.19-15.809 4.492-16.999 12.69l-8.618 59.378c-1.19 8.198 4.492 15.809 12.69 16.999 8.198 1.19 15.809-4.492 16.999-12.69l8.618-59.378c1.19-8.198-4.492-15.809-12.69-16.999z" fill="#5766ce"/><path d="m394.681 148.172c-7.81 7.81-20.474 7.81-28.284 0s-7.81-20.474 0-28.284 20.474-7.81 28.284 0 7.811 20.473 0 28.284zm-44.783-44.784c-7.81-7.81-20.474-7.81-28.284 0s-7.81 20.474 0 28.284 20.474 7.81 28.284 0 7.81-20.473 0-28.284zm61.282 61.283c-7.81-7.81-20.474-7.81-28.284 0s-7.81 20.474 0 28.284 20.474 7.81 28.284 0 7.811-20.474 0-28.284zm-1.178 62.461c-7.81-7.81-20.474-7.81-28.284 0s-7.81 20.474 0 28.284 20.474 7.81 28.284 0 7.81-20.473 0-28.284zm-122.466-104.944c-6.608-8.851-19.14-10.67-27.991-4.062s-10.67 19.14-4.062 27.991 19.14 10.67 27.991 4.062 10.669-19.139 4.062-27.991z" fill="#717ed6"/><path d="m275.995 140.162c-3.319 2.478-8.018 1.796-10.495-1.523s-1.796-8.018 1.523-10.495c3.319-2.478 8.018-1.796 10.495 1.523 2.478 3.318 1.796 8.017-1.523 10.495zm65.77-27.118c-2.478-3.319-7.176-4.001-10.495-1.523s-4.001 7.176-1.523 10.495 7.176 4.001 10.495 1.523 4-7.176 1.523-10.495zm44.783 16.5c-2.478-3.319-7.176-4.001-10.495-1.523s-4.001 7.176-1.523 10.495 7.176 4.001 10.495 1.523 4.001-7.177 1.523-10.495zm16.499 44.783c-2.478-3.319-7.176-4.001-10.495-1.523s-4.001 7.176-1.523 10.495 7.176 4.001 10.495 1.523 4.001-7.176 1.523-10.495zm-1.178 62.461c-2.478-3.319-7.176-4.001-10.495-1.523s-4.001 7.176-1.523 10.495 7.176 4.001 10.495 1.523c3.318-2.477 4-7.176 1.523-10.495z" fill="#93e2c6"/></g></svg>