<svg id="Capa_1" enable-background="new 0 0 512 512" height="512" viewBox="0 0 512 512" width="512" xmlns="http://www.w3.org/2000/svg"><g><path d="m2.408 291.26c-1.596-11.592-2.417-23.432-2.408-35.465.11-141.04 115.445-256.056 256.486-255.795 141.161.263 255.514 114.777 255.514 256 0 11.964-.821 23.736-2.409 35.263-.97 7.043-6.948 12.312-14.058 12.312h-479.067c-7.11 0-13.087-5.271-14.058-12.315z" fill="#ff2ea6"/><path d="m39.999 275.123c-1.36-9.874-2.059-19.958-2.051-30.207.094-120.135 98.332-218.101 218.466-217.878 120.237.223 217.638 97.763 217.638 218.052 0 10.19-.699 20.217-2.052 30.036-.827 5.999-5.918 10.487-11.974 10.487h-408.053c-6.056 0-11.147-4.49-11.974-10.49z" fill="#ff50b5"/><path d="m509.762 290c-5.696 42.925-22.029 82.492-46.262 115.964-1.107 1.529-6.68.125-7.819 1.629-7.52 9.92-15.747 19.274-24.605 27.989-1.197 1.178 2.043 5.264.823 6.418-45.868 43.391-107.776 70-175.899 70-129.858 0-237.133-96.688-253.762-222z" fill="#754ca0"/><path d="m365.803 60.196-30-30c-1.406-1.406-3.314-2.196-5.303-2.196h-149c-1.989 0-3.897.79-5.303 2.197l-30 30c-1.407 1.406-2.197 3.313-2.197 5.303v78c0 1.989.79 3.897 2.197 5.303l30 30c1.407 1.407 3.314 2.197 5.303 2.197h149c1.989 0 3.896-.79 5.303-2.197l30-30c1.407-1.406 2.197-3.314 2.197-5.303v-78c0-1.99-.79-3.897-2.197-5.304zm-12.803 80.197-25.606 25.607h-142.788l-25.606-25.607v-71.787l25.606-25.606h142.787l25.607 25.606z" fill="#c0dfeb"/><path d="m177 110.666v25h-50v-25c0-13.807 11.193-25 25-25s25 11.193 25 25zm183-25c-13.807 0-25 11.193-25 25v25h50v-25c0-13.807-11.193-25-25-25z" fill="#58aacb"/><path d="m162 110.666v28.334c0 5.523-4.477 10-10 10s-10-4.477-10-10v-28.333c0-5.523 4.477-10 10-10s10 4.477 10 9.999zm198-10c-5.523 0-10 4.477-10 10v28.334c0 5.523 4.477 10 10 10s10-4.477 10-10v-28.333c0-5.523-4.477-10.001-10-10.001z" fill="#3993b7"/><path d="m482 204.461v143.077c0 20.435-16.565 37-37 37h-378c-20.435 0-37-16.565-37-37v-143.077c0-20.434 16.565-37 37-37h378c20.435 0 37 16.566 37 37z" fill="#7fbed7"/><path d="m438 409.869h-364c-8.284 0-15-6.716-15-15v-218.102c0-8.284 6.716-15 15-15h364c8.284 0 15 6.716 15 15v218.102c0 8.284-6.716 15-15 15z" fill="#a6d2e3"/><path d="m379.319 409.869h-246.638c-8.284 0-15-6.716-15-15v-218.102c0-8.284 6.716-15 15-15h246.638c8.284 0 15 6.716 15 15v218.102c0 8.284-6.716 15-15 15z" fill="#c0dfeb"/><path d="m453 136.705v34.91c0 8.284-6.716 15-15 15h-54.725c-3.344 0-6.466 1.671-8.32 4.453l-10.986 16.478c-1.855 2.782-4.977 4.453-8.32 4.453h-199.297c-3.344 0-6.466-1.671-8.321-4.453l-10.986-16.478c-1.855-2.782-4.977-4.453-8.321-4.453h-54.724c-8.284 0-15-6.716-15-15v-34.91c0-8.284 6.716-15 15-15h364c8.284 0 15 6.716 15 15z" fill="#7fbed7"/><path d="m453 136.705v34.91c0 8.284-6.716 15-15 15h-43.681v-64.91h43.681c8.284 0 15 6.716 15 15zm-394 0v34.91c0 8.284 6.716 15 15 15h43.681v-64.91h-43.681c-8.284 0-15 6.716-15 15z" fill="#65b1cf"/><path d="m306 120v30c0 5.523-4.477 10-10 10h-80c-5.523 0-10-4.477-10-10v-30c0-5.523 4.477-10 10-10h80c5.523 0 10 4.477 10 10z" fill="#58aacb"/><path d="m453 386.734v22.211c0 11.791-9.558 21.349-21.349 21.349h-351.302c-11.791 0-21.349-9.558-21.349-21.349v-22.212c0-11.791 9.558-21.349 21.349-21.349h48.376c3.344 0 6.466-1.671 8.32-4.453l10.986-16.479c1.855-2.782 4.977-4.453 8.32-4.453h199.296c3.344 0 6.466 1.671 8.32 4.453l10.986 16.479c1.855 2.782 4.977 4.453 8.32 4.453h48.376c11.793 0 21.351 9.559 21.351 21.35zm-147-140.734v60c0 5.523-4.477 10-10 10h-80c-5.523 0-10-4.477-10-10v-60c0-5.523 4.477-10 10-10h80c5.523 0 10 4.477 10 10zm-135-10h-50c-5.523 0-10 4.477-10 10v60c0 5.523 4.477 10 10 10h50c5.523 0 10-4.477 10-10v-60c0-5.523-4.477-10-10-10zm220 0h-50c-5.523 0-10 4.477-10 10v60c0 5.523 4.477 10 10 10h50c5.523 0 10-4.477 10-10v-60c0-5.523-4.477-10-10-10z" fill="#58aacb"/><path d="m66.12 370.817c3.777-3.379 8.763-5.433 14.229-5.433h37.332v64.91h-37.332c-5.466 0-10.453-2.055-14.229-5.433zm359.494-5.433h-31.295v64.91h31.295zm-189.614-129.384h-20c-5.523 0-10 4.477-10 10v60c0 5.523 4.477 10 10 10h20c-5.523 0-10-4.477-10-10v-60c0-5.523 4.477-10 10-10zm-105 10v60c0 5.523 4.477 10 10 10h-20c-5.523 0-10-4.477-10-10v-60c0-5.523 4.477-10 10-10h20c-5.523 0-10 4.477-10 10zm230 70h-20c-5.523 0-10-4.477-10-10v-60c0-5.523 4.477-10 10-10h20c-5.523 0-10 4.477-10 10v60c0 5.522 4.477 10 10 10zm-105 54c-2.761 0-5 2.239-5 5v20c0 2.761 2.239 5 5 5s5-2.239 5-5v-20c0-2.761-2.239-5-5-5zm-15 5v20c0 2.761-2.239 5-5 5s-5-2.239-5-5v-20c0-2.761 2.239-5 5-5s5 2.239 5 5zm40 0v20c0 2.761-2.239 5-5 5s-5-2.239-5-5v-20c0-2.761 2.239-5 5-5s5 2.239 5 5zm-60 0v20c0 2.761-2.239 5-5 5s-5-2.239-5-5v-20c0-2.761 2.239-5 5-5s5 2.239 5 5zm80 0v20c0 2.761-2.239 5-5 5s-5-2.239-5-5v-20c0-2.761 2.239-5 5-5s5 2.239 5 5z" fill="#3e9dc3"/><path d="m57.521 345.663h25.959c4.982 0 9.02 4.039 9.02 9.02v78.296c0 4.982-4.039 9.02-9.02 9.02h-25.959c-4.982 0-9.02-4.039-9.02-9.02v-78.296c-.001-4.981 4.038-9.02 9.02-9.02zm405.979 9.02c0-4.982-4.039-9.021-9.02-9.021h-25.959c-4.982 0-9.02 4.039-9.02 9.021v78.297c0 4.982 4.039 9.02 9.02 9.02h3.377c11.616-10.989 22.203-23.054 31.602-36.036z" fill="#a6d2e3"/><path d="m57.521 110h25.959c4.982 0 9.02 4.039 9.02 9.02v279.552c0 4.982-4.039 9.02-9.02 9.02h-25.959c-4.982 0-9.02-4.039-9.02-9.02v-279.552c-.001-4.982 4.038-9.02 9.02-9.02zm361.979 9.02v279.552c0 4.982 4.039 9.02 9.02 9.02h25.959c4.982 0 9.02-4.039 9.02-9.02v-279.552c0-4.982-4.039-9.02-9.02-9.02h-25.959c-4.981 0-9.02 4.038-9.02 9.02z" fill="#c0dfeb"/><path d="m80.848 165.9c.479 2.719-1.336 5.313-4.056 5.792l-9.848 1.736c-2.719.479-5.313-1.336-5.792-4.056s1.336-5.313 4.056-5.792l9.848-1.737c2.719-.479 5.313 1.337 5.792 4.057zm-5.792 90.489-9.848 1.737c-2.719.479-4.535 3.073-4.056 5.792s3.073 4.535 5.792 4.056l9.848-1.736c2.719-.479 4.535-3.073 4.056-5.792s-3.073-4.536-5.792-4.057zm0-70.909-9.848 1.736c-2.719.479-4.535 3.073-4.056 5.792.479 2.719 3.073 4.535 5.792 4.056l9.848-1.737c2.719-.479 4.535-3.073 4.056-5.792s-3.073-4.534-5.792-4.055zm0 23.636-9.848 1.737c-2.719.479-4.535 3.073-4.056 5.792s3.073 4.535 5.792 4.056l9.848-1.736c2.719-.479 4.535-3.073 4.056-5.792s-3.073-4.536-5.792-4.057zm0 70.91-9.848 1.736c-2.719.479-4.535 3.073-4.056 5.792s3.073 4.535 5.792 4.056l9.848-1.736c2.719-.479 4.535-3.073 4.056-5.792s-3.073-4.536-5.792-4.056zm0-47.273-9.848 1.736c-2.719.48-4.535 3.073-4.056 5.792s3.073 4.535 5.792 4.056l9.848-1.736c2.719-.48 4.535-3.073 4.056-5.792s-3.073-4.536-5.792-4.056zm360.152-84.698 9.848 1.737c2.719.479 5.313-1.336 5.792-4.056.479-2.719-1.336-5.313-4.056-5.792l-9.848-1.736c-2.719-.479-5.313 1.336-5.792 4.056s1.336 5.312 4.056 5.791zm-360.152 226.516-9.848 1.737c-2.719.479-4.535 3.073-4.056 5.792s3.073 4.535 5.792 4.056l9.848-1.736c2.719-.48 4.535-3.073 4.056-5.792-.479-2.721-3.073-4.536-5.792-4.057zm0-70.909-9.848 1.737c-2.719.479-4.535 3.073-4.056 5.792s3.073 4.535 5.792 4.056l9.848-1.737c2.719-.479 4.535-3.073 4.056-5.792s-3.073-4.536-5.792-4.056zm0 23.636-9.848 1.736c-2.719.479-4.535 3.073-4.056 5.792s3.073 4.535 5.792 4.056l9.848-1.736c2.719-.479 4.535-3.073 4.056-5.792s-3.073-4.535-5.792-4.056zm0 23.637-9.848 1.737c-2.719.479-4.535 3.073-4.056 5.792s3.073 4.535 5.792 4.056l9.848-1.737c2.719-.479 4.535-3.073 4.056-5.792s-3.073-4.536-5.792-4.056zm0 47.273-9.848 1.736c-2.719.479-4.535 3.073-4.056 5.792s3.073 4.535 5.792 4.056l9.848-1.737c2.719-.479 4.535-3.073 4.056-5.792s-3.073-4.535-5.792-4.055zm0-260.001-9.848 1.736c-2.719.479-4.535 3.073-4.056 5.792s3.073 4.535 5.792 4.056l9.848-1.737c2.719-.479 4.535-3.073 4.056-5.792s-3.073-4.534-5.792-4.055zm371.736 119.919-9.848-1.737c-2.719-.479-5.313 1.336-5.792 4.056s1.336 5.313 4.056 5.792l9.848 1.736c2.719.48 5.313-1.336 5.792-4.056.48-2.719-1.336-5.312-4.056-5.791zm0-47.273-9.848-1.737c-2.719-.479-5.313 1.336-5.792 4.056s1.336 5.313 4.056 5.792l9.848 1.736c2.719.479 5.313-1.336 5.792-4.056.48-2.718-1.336-5.311-4.056-5.791zm0-47.273-9.848-1.737c-2.719-.479-5.313 1.336-5.792 4.056s1.336 5.313 4.056 5.792l9.848 1.736c2.719.479 5.313-1.336 5.792-4.056.48-2.718-1.336-5.311-4.056-5.791zm0 118.182-9.848-1.736c-2.719-.479-5.313 1.336-5.792 4.056s1.336 5.313 4.056 5.792l9.848 1.736c2.719.479 5.313-1.336 5.792-4.056.48-2.719-1.336-5.312-4.056-5.792zm0-94.545-9.848-1.736c-2.719-.479-5.313 1.336-5.792 4.056s1.336 5.313 4.056 5.792l9.848 1.737c2.719.479 5.313-1.336 5.792-4.056.48-2.721-1.336-5.314-4.056-5.793zm0 47.272-9.848-1.736c-2.719-.48-5.313 1.336-5.792 4.056s1.336 5.313 4.056 5.792l9.848 1.736c2.719.479 5.313-1.336 5.792-4.056.48-2.719-1.336-5.312-4.056-5.792zm0 70.909-9.848-1.737c-2.719-.479-5.313 1.336-5.792 4.056s1.336 5.313 4.056 5.792l9.848 1.737c2.719.479 5.313-1.336 5.792-4.056.48-2.719-1.336-5.312-4.056-5.792zm0 70.91-9.848-1.737c-2.719-.479-5.313 1.336-5.792 4.056-.479 2.719 1.336 5.313 4.056 5.792l9.848 1.736c2.719.48 5.313-1.336 5.792-4.056.48-2.719-1.336-5.312-4.056-5.791zm0 23.636-9.848-1.736c-2.719-.479-5.313 1.336-5.792 4.056s1.336 5.313 4.056 5.792l9.848 1.737c2.719.479 5.313-1.336 5.792-4.056.48-2.72-1.336-5.314-4.056-5.793zm0-70.909-9.848-1.736c-2.719-.479-5.313 1.336-5.792 4.056-.479 2.719 1.336 5.313 4.056 5.792l9.848 1.736c2.719.479 5.313-1.336 5.792-4.056.48-2.719-1.336-5.313-4.056-5.792zm0 23.636-9.848-1.737c-2.719-.479-5.313 1.336-5.792 4.056s1.336 5.313 4.056 5.792l9.848 1.737c2.719.479 5.313-1.336 5.792-4.056.48-2.719-1.336-5.312-4.056-5.792z" fill="#7fbed7"/><path d="m307 190h-87.553c-2.761 0-5-2.239-5-5v-40c0-2.761 2.239-5 5-5h87.553c2.761 0 5 2.239 5 5v40c0 2.761-2.239 5-5 5z" fill="#a1ffbc"/><path d="m225 190h-20c-2.761 0-5-2.239-5-5v-40c0-2.761 2.239-5 5-5h20c-2.761 0-5 2.239-5 5v40c0 2.761 2.239 5 5 5z" fill="#93e2c6"/><path d="m290 155c0 2.761-2.239 5-5 5h-60c-2.761 0-5-2.239-5-5s2.239-5 5-5h60c2.761 0 5 2.239 5 5zm-20.556 15h-28.889c-2.761 0-5 2.239-5 5s2.239 5 5 5h28.889c2.761 0 5-2.239 5-5s-2.238-5-5-5z" fill="#24d3b5"/></g></svg>