<svg id="Capa_1" enable-background="new 0 0 512 512" height="512" viewBox="0 0 512 512" width="512" xmlns="http://www.w3.org/2000/svg"><g><path d="m512 256c0 141.385-114.615 256-256 256s-256-114.615-256-256 114.615-256 256-256 256 114.615 256 256z" fill="#19305c"/><path d="m481.965 256c0 124.797-101.168 225.965-225.965 225.965s-225.965-101.168-225.965-225.965 101.168-225.965 225.965-225.965 225.965 101.168 225.965 225.965z" fill="#232e7a"/><path d="m60.198 333.015c0 3.993-3.237 7.23-7.23 7.23h-5.541c-3.993 0-7.23-3.237-7.23-7.23s3.237-7.23 7.23-7.23h5.541c3.993 0 7.23 3.237 7.23 7.23z" fill="#e09380"/><path d="m98.705 272.571c0 3.993-3.237 7.23-7.23 7.23h-5.541c-3.993 0-7.23-3.237-7.23-7.23s3.237-7.23 7.23-7.23h5.541c3.994.001 7.23 3.238 7.23 7.23zm-78.67-17.883h-10.035c-5.523 0-10 4.477-10 10v1.714c0 5.523 4.477 10 10 10h10.035c5.523 0 10-4.477 10-10v-1.714c0-5.522-4.477-10-10-10zm76.897-91.545h-10.035c-5.523 0-10 4.477-10 10v1.714c0 5.523 4.477 10 10 10h10.035c5.523 0 10-4.477 10-10v-1.714c0-5.523-4.477-10-10-10z" fill="#faa68e"/><path d="m80.233 222.571v1.714c0 5.523-4.477 10-10 10h-10.035c-5.523 0-10-4.477-10-10v-1.714c0-5.523 4.477-10 10-10h10.035c5.523 0 10 4.478 10 10zm43.525 72.32h-10.035c-5.523 0-10 4.477-10 10v1.714c0 5.523 4.477 10 10 10h10.035c5.523 0 10-4.477 10-10v-1.714c0-5.523-4.478-10-10-10z" fill="#3e9dc3"/><path d="m50.035 122.529c0 3.993-3.237 7.23-7.23 7.23h-5.541c-3.993 0-7.23-3.237-7.23-7.23s3.237-7.23 7.23-7.23h5.541c3.993 0 7.23 3.237 7.23 7.23zm53.688 248.614h-10.035c-5.523 0-10 4.477-10 10v1.714c0 5.523 4.477 10 10 10h10.035c5.523 0 10-4.477 10-10v-1.714c0-5.523-4.477-10-10-10z" fill="#5766ce"/><path d="m50.198 179.559c0 3.993-3.237 7.23-7.23 7.23h-5.541c-3.993 0-7.23-3.237-7.23-7.23s3.237-7.23 7.23-7.23h5.541c3.993.001 7.23 3.238 7.23 7.23zm53.525-71.515h-10.035c-5.523 0-10 4.477-10 10v1.714c0 5.523 4.477 10 10 10h10.035c5.523 0 10-4.477 10-10v-1.714c0-5.523-4.477-10-10-10z" fill="#20b7a1"/><path d="m366.228 148.044v215.912c0 64.79-52.523 117.313-117.313 117.313-64.79 0-117.313-52.523-117.313-117.313v-215.912c0-64.79 52.523-117.313 117.313-117.313 64.791 0 117.313 52.523 117.313 117.313z" fill="#3e9dc3"/><path d="m338.766 135c-8.441 0-20.437-3.398-24.149-10.979-12.5-25.532-33.689-41.786-64-41.702-42.417.117-77.173 32.472-77.173 74.889v174.956c0 11.231-9.104 20.335-20.335 20.335s-20.335-9.104-20.335-20.335v-184.12c0-64.79 52.523-117.313 117.313-117.313 49.558 0 89.045 31.973 106.233 75.418 5.711 14.438-2.028 28.851-17.554 28.851z" fill="#20b7a1"/><path d="m248.915 25.731c-67.443 0-122.313 54.869-122.313 122.313v215.912c0 67.444 54.869 122.313 122.313 122.313 67.443 0 122.313-54.869 122.313-122.313v-215.912c0-67.444-54.869-122.313-122.313-122.313zm112.313 338.225c0 61.93-50.383 112.313-112.313 112.313h-.001c-61.93 0-112.313-50.383-112.313-112.313v-215.912c0-61.93 50.384-112.313 112.313-112.313s112.313 50.383 112.313 112.313v215.912z" fill="#5766ce"/><path d="m320.557 156.15v199.7c0 39.567-32.075 71.641-71.642 71.641s-71.642-32.075-71.642-71.641v-199.7c0-39.567 32.075-71.641 71.642-71.641 39.567-.001 71.642 32.074 71.642 71.641z" fill="#20b7a1"/><path d="m283.124 148.566c-5.286 0-12.32.321-16.642-2.723-5.653-3.98-10.83-5.67-18.331-5.312-17.327.828-30.736 13.248-30.736 30.594v121.15c0 10.86-8.804 19.664-19.664 19.664s-19.664-8.804-19.664-19.664v-135.05c0-39.832 32.592-73.138 72.421-72.713 19.807.211 37.687 8.46 50.531 21.64 15.419 15.824 4.179 42.414-17.915 42.414z" fill="#35e298"/><path d="m248.915 79.508c-42.261 0-76.642 34.381-76.642 76.641v199.701c0 42.26 34.381 76.641 76.642 76.641s76.642-34.381 76.642-76.641v-199.701c-.001-42.26-34.381-76.641-76.642-76.641zm66.641 276.343c0 36.746-29.896 66.641-66.642 66.641s-66.642-29.895-66.642-66.641v-199.702c0-36.746 29.896-66.641 66.642-66.641s66.642 29.895 66.642 66.641z" fill="#a6d2e3"/><path d="m276.229 170.478v171.044c0 15.085-12.229 27.313-27.313 27.313s-27.313-12.229-27.313-27.313v-171.044c0-15.085 12.229-27.313 27.313-27.313s27.313 12.228 27.313 27.313z" fill="#35e298"/><path d="m276.228 169.901v102.29c0 15.085-12.229 27.313-27.313 27.313-15.085 0-27.313-12.229-27.313-27.313v-102.29c0-15.085 12.229-27.313 27.313-27.313 15.085 0 27.313 12.229 27.313 27.313z" fill="#7af4ab"/><path d="m248.915 138.165c-17.817 0-32.313 14.496-32.313 32.313v171.044c0 17.818 14.495 32.313 32.313 32.313s32.313-14.496 32.313-32.313v-171.044c0-17.818-14.496-32.313-32.313-32.313zm22.313 203.357c0 12.304-10.01 22.313-22.313 22.313s-22.313-10.01-22.313-22.313v-171.044c0-12.304 10.01-22.313 22.313-22.313 12.304 0 22.313 10.01 22.313 22.313z" fill="#c0dfeb"/><path d="m511.977 257.01c-.371 5.729-5.384 10.062-11.126 10.062h-97.226c-2.977 0-5.39 2.413-5.39 5.39 0 2.977 2.413 5.39 5.39 5.39h80.347c5.741 0 10.755 4.333 11.126 10.062.406 6.278-4.565 11.497-10.756 11.497h-80.717c-2.977 0-5.39 2.413-5.39 5.39 0 2.977 2.413 5.39 5.39 5.39h57.511c5.741 0 10.755 4.333 11.126 10.062.406 6.278-4.565 11.497-10.756 11.497h-108.647c-15.142 0-28.958-5.677-39.437-15.018-4.142-3.692-9.434-5.832-14.983-5.832h-49.525v-109.215h43.55c6.256 0 12.221-2.644 16.418-7.283 10.849-11.991 26.533-19.524 43.976-19.524h88.79c5.953 0 10.779 4.826 10.779 10.779 0 5.953-4.826 10.779-10.779 10.779h-55.19c-4.622 0-8.368 3.747-8.368 8.368 0 4.622 3.747 8.368 8.368 8.368h104.463c5.741 0 10.755 4.333 11.126 10.062.406 6.278-4.565 11.497-10.756 11.497h-87.666c-2.977 0-5.39 2.413-5.39 5.39 0 2.977 2.413 5.39 5.39 5.39h97.595c6.191.001 11.163 5.22 10.757 11.499z" fill="#ffbeaa"/><path d="m470.396 314.872c1.365 1.986 2.082 4.451 1.845 7.092-.503 5.609-5.442 9.785-11.073 9.785h-108.309c-15.142 0-28.958-5.677-39.437-15.018-4.142-3.692-9.434-5.832-14.983-5.832h-49.525v-12.196h47.145c9.489 0 18.821 2.921 26.359 8.685 9.978 7.631 22.451 12.165 35.983 12.165h103.104c3.691.001 6.948-1.854 8.891-4.681zm24.7-26.97c-.951.274-1.955.422-2.994.422h-102.059c-3.062 0-5.543 2.482-5.543 5.543s2.482 5.543 5.543 5.543h94.298c6.195 0 11.169-5.224 10.755-11.508.001 0 .001 0 0 0zm-110.298-58.713c0 3.062 2.482 5.543 5.543 5.543h100.951c6.194 0 11.168-5.225 10.756-11.508-.001 0-.001 0-.001-.001-.951.274-1.955.422-2.994.422h-108.712c-3.061.001-5.543 2.483-5.543 5.544zm-9.73-32.752h66.581c6.194 0 11.168-5.225 10.755-11.508 0 0-.001 0-.001-.001-.951.274-1.955.421-2.994.421h-74.342c-3.062 0-5.543 2.482-5.543 5.543.001 3.063 2.482 5.545 5.544 5.545zm136.908 59.127c0-.001-.001-.001 0 0-.951.274-1.956.421-2.995.421h-118.69c-3.062 0-5.543 2.482-5.543 5.543s2.482 5.543 5.543 5.543h110.929c6.195.001 11.169-5.224 10.756-11.507z" fill="#faa68e"/><path d="m446.331 191.755h-7.761c-3.368 0-6.098-2.73-6.098-6.098 0-3.368 2.73-6.098 6.098-6.098h7.761c3.368 0 6.098 2.73 6.098 6.098 0 3.368-2.731 6.098-6.098 6.098zm55.74 32.198c0-3.368-2.73-6.098-6.098-6.098h-7.761c-3.368 0-6.098 2.73-6.098 6.098 0 3.368 2.73 6.098 6.098 6.098h7.761c3.368 0 6.098-2.73 6.098-6.098zm9.929 32.339c0-3.368-2.73-6.098-6.098-6.098h-7.761c-3.368 0-6.098 2.73-6.098 6.098 0 3.368 2.73 6.098 6.098 6.098h7.761c3.368 0 6.098-2.73 6.098-6.098zm-16.879 32.339c0-3.368-2.73-6.098-6.098-6.098h-7.761c-3.368 0-6.098 2.73-6.098 6.098 0 3.368 2.73 6.098 6.098 6.098h7.761c3.368 0 6.098-2.73 6.098-6.098zm-22.835 32.339c0-3.368-2.73-6.098-6.098-6.098h-7.761c-3.368 0-6.098 2.73-6.098 6.098 0 3.368 2.73 6.098 6.098 6.098h7.761c3.368-.001 6.098-2.731 6.098-6.098zm-218.371-134.889v139.839c0 2.761-2.239 5-5 5s-5-2.239-5-5v-139.839c0-2.761 2.239-5 5-5s5 2.238 5 5z" fill="#fff5f5"/></g></svg>