<svg id="Capa_1" enable-background="new 0 0 512 512" height="512" viewBox="0 0 512 512" width="512" xmlns="http://www.w3.org/2000/svg"><g><path d="m512 256c0 141.385-114.615 256-256 256s-256-114.615-256-256 114.615-256 256-256 256 114.615 256 256z" fill="#232e7a"/><path d="m460.188 265.342c0 112.77-91.418 204.188-204.188 204.188s-204.188-91.418-204.188-204.188 91.418-204.188 204.188-204.188 204.188 91.417 204.188 204.188z" fill="#2b3894"/><path d="m91.131 294.208c0 10.858-8.802 19.66-19.66 19.66s-19.66-8.802-19.66-19.66 8.802-19.66 19.66-19.66 19.66 8.802 19.66 19.66zm334.433 12c-10.858 0-19.66 8.802-19.66 19.66s8.802 19.66 19.66 19.66 19.66-8.802 19.66-19.66-8.803-19.66-19.66-19.66zm-367.111 30.774c-7.19 0-13.018 5.829-13.018 13.018 0 7.19 5.828 13.018 13.018 13.018s13.018-5.828 13.018-13.018-5.828-13.018-13.018-13.018zm410.042-85.368c-7.19 0-13.018 5.828-13.018 13.018s5.829 13.018 13.018 13.018c7.19 0 13.018-5.828 13.018-13.018.001-7.189-5.828-13.018-13.018-13.018zm-363.194 132.216c-7.19 0-13.018 5.828-13.018 13.018s5.828 13.018 13.018 13.018 13.018-5.828 13.018-13.018-5.828-13.018-13.018-13.018zm339.922-219.575c-7.19 0-13.018 5.828-13.018 13.018s5.828 13.018 13.018 13.018 13.018-5.828 13.018-13.018-5.828-13.018-13.018-13.018z" fill="#5766ce"/><path d="m142.957 366.082c-1.758-2.129-1.458-5.281.672-7.039 2.13-1.759 5.281-1.456 7.039.672 7.428 8.996 17.212 13.95 27.55 13.95s20.122-4.954 27.55-13.95c1.759-2.129 4.909-2.43 7.039-.672 2.129 1.758 2.43 4.91.672 7.039-9.363 11.339-21.885 17.583-35.261 17.583s-25.898-6.244-35.261-17.583zm195.146 17.583c13.375 0 25.898-6.244 35.261-17.583 1.758-2.129 1.458-5.281-.672-7.039s-5.28-1.457-7.039.672c-7.428 8.996-17.212 13.95-27.55 13.95s-20.122-4.954-27.55-13.95c-1.757-2.128-4.909-2.431-7.039-.672-2.129 1.758-2.43 4.91-.672 7.039 9.362 11.339 21.885 17.583 35.261 17.583zm-108.196-19.521c.688-2.675-.923-5.399-3.597-6.088-2.675-.689-5.4.924-6.087 3.598-4.036 15.696-13.979 28.863-27.998 37.077-14.031 8.221-30.479 10.506-46.315 6.433-2.674-.69-5.4.923-6.087 3.598-.688 2.674.922 5.399 3.597 6.088 5.958 1.531 11.99 2.289 17.978 2.289 12.517 0 24.842-3.311 35.883-9.779 16.334-9.573 27.921-24.92 32.626-43.216zm72.722 50.283c-2.529-1.772-4.918-3.445-7.607-6.176-10.625-10.786-14.676-26.949-12.042-48.04.342-2.74-1.602-5.239-4.342-5.581-2.741-.349-5.239 1.601-5.581 4.341-3.033 24.281 1.959 43.223 14.84 56.298 3.33 3.38 6.209 5.397 8.995 7.349 2.533 1.773 4.924 3.449 7.563 6.17 10.512 10.841 14.139 27.402 10.78 49.226-.42 2.729 1.452 5.282 4.181 5.702.258.04.514.06.767.06 2.425 0 4.555-1.769 4.936-4.24 3.861-25.084-.676-44.5-13.485-57.708-3.301-3.406-6.201-5.437-9.005-7.401zm73.87-5.666c-.688-2.675-3.415-4.289-6.087-3.598-15.837 4.075-32.285 1.788-46.315-6.433-14.019-8.214-23.961-21.381-27.998-37.077-.688-2.675-3.415-4.288-6.087-3.598-2.674.688-4.285 3.413-3.597 6.088 4.705 18.297 16.292 33.644 32.627 43.215 11.042 6.47 23.364 9.779 35.883 9.779 5.987 0 12.022-.758 17.978-2.289 2.673-.688 4.284-3.413 3.596-6.087zm-133.236-49.79c-.343-2.74-2.848-4.683-5.581-4.341-2.74.342-4.684 2.841-4.342 5.581 2.635 21.091-1.417 37.254-12.042 48.04-2.689 2.73-5.078 4.403-7.607 6.176-2.804 1.964-5.704 3.995-9.005 7.399-12.809 13.208-17.346 32.624-13.485 57.708.38 2.472 2.51 4.24 4.936 4.24.253 0 .509-.02.767-.06 2.729-.42 4.601-2.973 4.181-5.702-3.359-21.823.268-38.385 10.78-49.226 2.639-2.721 5.031-4.396 7.563-6.17 2.786-1.951 5.666-3.969 8.995-7.349 12.881-13.074 17.873-32.015 14.84-56.296zm11.071-7.565c-2.699.585-4.413 3.246-3.829 5.945 5.281 24.385 5.531 45.218.743 61.923-1.2 4.186-2.373 6.945-3.615 9.867-1.313 3.09-2.672 6.285-4.019 11.072-5.178 18.405-4.639 41.259 1.603 67.925.54 2.306 2.594 3.861 4.864 3.861.377 0 .761-.043 1.144-.133 2.688-.629 4.358-3.319 3.729-6.008-5.853-25.002-6.429-46.177-1.714-62.938 1.174-4.171 2.35-6.938 3.596-9.868 1.306-3.071 2.656-6.248 4.025-11.024 5.247-18.308 5.051-40.78-.583-66.795-.584-2.697-3.246-4.41-5.944-3.827z" fill="#9773bd"/><path d="m336.96 125.691c-10.754-13.53-27.753-23.656-49.822-29.122-10.024-2.483-20.477-3.851-31.138-4.141-10.662.29-21.114 1.658-31.138 4.141-22.069 5.466-39.068 15.593-49.822 29.122-26.781-42.709-24.422-79.108-.224-99.574 26.919 2.679 55.483 13.853 81.183 32.531 25.701-18.678 54.265-29.851 81.183-32.531 24.2 20.465 26.559 56.864-.222 99.574z" fill="#e20a62"/><path d="m326.654 92.967c0 9.424-31.633 17.063-70.654 17.063s-70.654-7.64-70.654-17.063c0-9.424 31.633-17.064 70.654-17.064s70.654 7.64 70.654 17.064z" fill="#35e298"/><path d="m289.638 97.052c0 5.372-15.06 9.727-33.638 9.727s-33.638-4.355-33.638-9.727 15.06-9.727 33.638-9.727 33.638 4.355 33.638 9.727z" fill="#a1ffbc"/><path d="m399.171 205.055c0 98.317-64.135 161.989-143.249 161.989s-143.25-63.672-143.25-161.989c0-46.988 14.649-93.385 38.581-129.024 4.19-6.239 12.777-7.594 18.637-2.889 23.955 19.234 53.746 29.838 86.031 29.838s62.075-10.604 86.031-29.838c5.86-4.705 14.448-3.35 18.637 2.889 23.933 35.638 38.582 82.036 38.582 129.024z" fill="#20b7a1"/><path d="m271.127 366.254c-4.971.523-10.018.79-15.127.79-79.115 0-143.25-63.672-143.25-161.989 0-46.987 14.649-93.385 38.582-129.024 4.19-6.239 12.777-7.594 18.637-2.889 2.951 2.369 5.991 4.607 9.113 6.711-22.446 35.1-36.077 79.876-36.077 125.201 0 91.968 56.119 153.62 128.122 161.2z" fill="#199a8e"/><path d="m348.949 303.211c1.953 1.952 1.953 5.118 0 7.07-.977.977-2.256 1.465-3.536 1.465s-2.559-.488-3.536-1.465c-5.649-5.648-14.72-5.842-20.604-.584-3.466 6.446-7.404 12.54-11.792 18.21-10.254 13.25-22.32 23.374-35.502 30.002 1.319.9-42.135.9-40.816 0-13.182-6.629-25.249-16.753-35.502-30.002-4.388-5.67-8.326-11.764-11.792-18.21-5.885-5.259-14.955-5.064-20.604.584-1.953 1.953-5.118 1.953-7.071 0-1.953-1.952-1.953-5.118 0-7.07 5.796-5.796 13.752-8.146 21.3-7.052-7.623-18.65-11.664-39.521-11.664-61.181 0-2.762 2.239-5 5-5s5 2.238 5 5c0 11.885 1.306 23.379 3.739 34.249 7.585-16.446 24.229-27.888 43.496-27.888 2.761 0 5 2.238 5 5s-2.239 5-5 5c-20.571 0-37.364 16.487-37.857 36.942 2.068 5.55 7.274 16.194 7.344 16.343 13.676 25.654 34.685 44.148 59.02 50.243.065-.016.131-.033.196-.05 7.284-6.663 11.621-15.721 12.232-25.584.625-10.09-2.721-19.824-9.424-27.412-1.828-2.07-1.632-5.229.438-7.058 2.069-1.827 5.23-1.631 7.058.437 8.471 9.591 12.7 21.896 11.909 34.651-.398 6.423-2.045 12.575-4.807 18.182 16.8-8.978 31.168-24.183 41.418-43.409.069-.148 8.262-17.846 10.985-27.494-.017-.167-.026-.337-.026-.509 0-8.274-6.732-15.007-15.006-15.007-2.761 0-5-2.238-5-5s2.239-5 5-5c7.473 0 14.191 3.295 18.777 8.509 1.305-8.117 1.991-16.528 1.991-25.145 0-2.762 2.239-5 5-5s5 2.238 5 5c0 2.047-.037 4.086-.108 6.117 5.864-3.668 13.21-4.907 20.347-2.798 2.648.781 4.161 3.563 3.379 6.211s-3.563 4.16-6.211 3.379c-7.936-2.342-16.299 2.206-18.642 10.143-.116.392-5.688 26.529-10.428 38.129 7.547-1.094 15.503 1.256 21.299 7.052zm-184.186-98.211c4.438 0 8.035-4.953 8.035-11.064 0-6.11-3.597-11.064-8.035-11.064s-8.035 4.953-8.035 11.064 3.598 11.064 8.035 11.064zm166.503 6.064c4.438 0 8.035-4.953 8.035-11.064s-3.597-11.064-8.035-11.064-8.035 4.953-8.035 11.064 3.598 11.064 8.035 11.064zm-126.391 77.651c0 6.11 3.597 11.064 8.035 11.064s8.035-4.953 8.035-11.064-3.597-11.064-8.035-11.064c-4.437 0-8.035 4.953-8.035 11.064zm155.411-25.439c-4.438 0-8.035 4.953-8.035 11.064 0 6.11 3.597 11.064 8.035 11.064s8.035-4.953 8.035-11.064c0-6.11-3.598-11.064-8.035-11.064zm-164.469-42.212c3.285 0 5.949-3.667 5.949-8.191s-2.663-8.191-5.949-8.191-5.949 3.667-5.949 8.191 2.664 8.191 5.949 8.191zm48.307 53.276c3.286 0 5.949-3.667 5.949-8.191s-2.663-8.191-5.949-8.191c-3.285 0-5.949 3.667-5.949 8.191s2.663 8.191 5.949 8.191zm51.624 24.17c3.285 0 5.949-3.667 5.949-8.191s-2.663-8.191-5.949-8.191-5.949 3.667-5.949 8.191 2.663 8.191 5.949 8.191zm14.794-66.58c3.285 0 5.949-3.667 5.949-8.191s-2.663-8.191-5.949-8.191-5.949 3.667-5.949 8.191 2.663 8.191 5.949 8.191z" fill="#168c80"/><path d="m319 361.597c0 4.142-3.358 7.5-7.5 7.5h-111c-4.142 0-7.5-3.358-7.5-7.5s3.358-7.5 7.5-7.5h111c4.142 0 7.5 3.358 7.5 7.5z" fill="#24d3b5"/><path d="m319 361.597c0 4.142-3.358 7.5-7.5 7.5h-75.884c-4.142 0-7.5-3.358-7.5-7.5s3.358-7.5 7.5-7.5h75.884c4.142 0 7.5 3.358 7.5 7.5z" fill="#7af4ab"/><path d="m169.637 72.938c16.952 13.677 36.841 23.022 58.479 27.33-29.878 51.877-85.752 80.979-127.811 84.891 3.502-40.402 27.938-79.279 51.106-110.012 4.351-5.771 12.601-6.748 18.226-2.209zm190.808 2.304c-4.331-5.825-12.625-6.831-18.276-2.275-16.944 13.661-36.82 22.995-58.442 27.3 29.878 51.877 83.994 80.979 126.053 84.891-3.499-40.359-26.495-79.198-49.335-109.916z" fill="#ff3c7d"/><path d="m332.891 79.818c-3.884 68.096-34.684 117.522-76.97 137.496-42.285-19.973-73.086-69.4-76.97-137.496 22.231 14.996 48.64 23.161 76.97 23.161s54.739-8.164 76.97-23.161z" fill="#ff50b5"/><path d="m220.926 79.851c0 4.142-3.358 7.5-7.5 7.5s-7.5-3.358-7.5-7.5 3.358-7.5 7.5-7.5 7.5 3.358 7.5 7.5zm79.787-9.522c-4.142 0-7.5 3.358-7.5 7.5s3.358 7.5 7.5 7.5 7.5-3.358 7.5-7.5-3.358-7.5-7.5-7.5zm-63.671-29.765c-4.142 0-7.5 3.358-7.5 7.5s3.358 7.5 7.5 7.5 7.5-3.358 7.5-7.5-3.357-7.5-7.5-7.5zm51.171 7.5c-2.761 0-5 2.239-5 5s2.239 5 5 5 5-2.239 5-5c0-2.762-2.239-5-5-5zm28.851-22.021c-2.761 0-5 2.239-5 5s2.239 5 5 5 5-2.239 5-5-2.239-5-5-5zm-104.888.016c2.761 0 5-2.239 5-5s-2.239-5-5-5-5 2.239-5 5 2.238 5 5 5zm62.443-18.117c-4.142 0-7.5 3.358-7.5 7.5s3.358 7.5 7.5 7.5 7.5-3.358 7.5-7.5-3.358-7.5-7.5-7.5z" fill="#fff5f5"/></g></svg>