<svg id="Capa_1" enable-background="new 0 0 512 512" height="512" viewBox="0 0 512 512" width="512" xmlns="http://www.w3.org/2000/svg"><g><path d="m4.064 301.679c-2.673-14.84-4.067-30.125-4.064-45.737.031-141.108 115.446-256.24 256.554-255.941 141.13.299 255.446 114.799 255.446 255.999 0 33.632-6.486 65.75-18.274 95.17h-430.609c-29.079 0-53.899-20.873-59.053-49.491z" fill="#19305c"/><path d="m19.086 353.17c-7.338-17.872-12.713-36.759-15.856-56.39 15.998-83.602 89.506-146.78 177.77-146.78 99.964 0 181 81.036 181 181 0 7.506-.457 14.904-1.345 22.17z" fill="#2b3894"/><path d="m263.639 340.665c110.953.26 115.313 165.888 4.48 171.053-4.016.187-8.057.282-12.119.282-108.332 0-200.948-67.29-238.33-162.354 75.93-5.862 155.84-8.99 238.33-8.99 2.549 0 5.095.003 7.639.009z" fill="#9773bd"/><path d="m494.33 349.646c-36.95 93.963-127.862 160.792-234.575 162.327-12.902-30.609-20.01-64.209-19.935-99.407.053-24.969 3.681-49.098 10.398-71.904 1.926-.003 3.853-.006 5.782-.006 82.49 0 162.4 3.129 238.33 8.99z" fill="#a88ac8"/><path d="m160 416.936c-19.459 0-35.234-6.5-35.234-14.518s15.775-14.518 35.234-14.518 35.234 6.5 35.234 14.518-15.775 14.518-35.234 14.518zm187.169-19.609c-26.545 0-48.064 8.867-48.064 19.804 0 10.938 21.519 19.804 48.064 19.804s48.065-8.867 48.065-19.804-21.519-19.804-48.065-19.804zm-132.254 54.709c-20.517 0-37.149 6.853-37.149 15.307s16.632 15.307 37.149 15.307 37.149-6.853 37.149-15.307-16.632-15.307-37.149-15.307z" fill="#754ca0"/><path d="m128.919 448.398c-9.68 0-17.527-3.233-17.527-7.222s7.847-7.222 17.527-7.222 17.527 3.233 17.527 7.222c.001 3.989-7.847 7.222-17.527 7.222zm162.715 1.602c-7.612 0-13.783-3.186-13.783-7.117s6.171-7.117 13.783-7.117 13.783 3.186 13.783 7.117-6.171 7.117-13.783 7.117zm142.149-54.982c-7.612 0-13.783-3.186-13.783-7.117s6.171-7.117 13.783-7.117 13.783 3.186 13.783 7.117-6.171 7.117-13.783 7.117zm-348.608-1.422c-7.633 0-13.822-2.55-13.822-5.695s6.188-5.695 13.822-5.695 13.822 2.55 13.822 5.695-6.188 5.695-13.822 5.695zm179.902 9.796c-12.122 0-21.949-4.049-21.949-9.044s9.827-9.044 21.949-9.044 21.949 4.049 21.949 9.044-9.827 9.044-21.949 9.044z" fill="#865cb2"/><path d="m202.532 467.343c0 6.665 10.338 12.334 24.766 14.436-3.873.564-8.041.871-12.383.871-20.517 0-37.149-6.853-37.149-15.307s16.632-15.307 37.149-15.307c4.342 0 8.51.307 12.383.871-14.429 2.101-24.766 7.771-24.766 14.436zm-30.149-78.52c-3.852-.596-8.025-.922-12.383-.922-19.459 0-35.234 6.5-35.234 14.518s15.775 14.518 35.234 14.518c4.358 0 8.531-.326 12.383-.922-13.35-2.065-22.851-7.373-22.851-13.596s9.501-11.531 22.851-13.596zm151.488 28.309c0-9.174 15.137-16.89 35.681-19.141-3.951-.433-8.101-.664-12.383-.664-26.545 0-48.064 8.867-48.064 19.804 0 10.938 21.519 19.804 48.064 19.804 4.281 0 8.432-.231 12.383-.664-20.544-2.25-35.681-9.966-35.681-19.139z" fill="#644189"/><path d="m355 202.745c-2.761 0-5-2.239-5-5v-142.745c0-2.761 2.239-5 5-5 2.761 0 5 2.239 5 5v142.745c0 2.761-2.239 5-5 5zm75 10.413v-98.158c0-2.761-2.239-5-5-5-2.761 0-5 2.239-5 5v98.158c0 2.761 2.239 5 5 5 2.761 0 5-2.239 5-5z" fill="#3d4ec6"/><path d="m296.536 110.738c3.329 5.314 7.819 9.804 13.133 13.133.983.616.983 2.049 0 2.665-5.314 3.329-9.804 7.819-13.133 13.133-.616.983-2.049.983-2.665 0-3.329-5.314-7.819-9.804-13.133-13.133-.983-.616-.983-2.049 0-2.665 5.314-3.329 9.804-7.819 13.133-13.133.616-.984 2.049-.984 2.665 0z" fill="#ffb52d"/><path d="m299.658 40.55c2.482 3.962 5.83 7.31 9.792 9.792.733.459.733 1.528 0 1.987-3.962 2.482-7.31 5.83-9.792 9.792-.459.733-1.528.733-1.987 0-2.482-3.962-5.83-7.31-9.792-9.792-.733-.459-.733-1.528 0-1.987 3.962-2.482 7.31-5.83 9.792-9.792.459-.733 1.527-.733 1.987 0z" fill="#9773bd"/><path d="m392.329 80.55c2.482 3.962 5.83 7.31 9.792 9.792.733.459.733 1.528 0 1.987-3.962 2.482-7.31 5.83-9.792 9.792-.459.733-1.528.733-1.987 0-2.482-3.962-5.83-7.31-9.792-9.792-.733-.459-.733-1.528 0-1.987 3.962-2.482 7.31-5.83 9.792-9.792.46-.733 1.528-.733 1.987 0z" fill="#1ed688"/><path d="m180 135v218.17h-150v-218.17c0-41.421 33.579-75 75-75 41.421 0 75 33.579 75 75z" fill="#20b7a1"/><path d="m180 135v218.17h-120v-218.17c0-36.284 25.766-66.55 60-73.499 34.234 6.949 60 37.215 60 73.499z" fill="#24d3b5"/><path d="m260 60c0 16.569-13.431 30-30 30s-30-13.431-30-30 13.431-30 30-30 30 13.431 30 30z" fill="#ffcd71"/><path d="m260 60c0 5.614-1.542 10.868-4.226 15.362-4.493 2.684-9.748 4.226-15.362 4.226-16.568 0-30-13.431-30-30 0-5.614 1.542-10.868 4.226-15.362 4.494-2.684 9.748-4.226 15.362-4.226 16.569 0 30 13.431 30 30z" fill="#fff68e"/><path d="m320 245c0 13.807-11.193 25-25 25h-160c-13.807 0-25-11.193-25-25 0-13.807 11.193-25 25-25h160c13.807 0 25 11.193 25 25z" fill="#199a8e"/><path d="m370 245c0 13.807-11.193 25-25 25h-160c-13.807 0-25-11.193-25-25 0-13.807 11.193-25 25-25h160c13.807 0 25 11.193 25 25z" fill="#20b7a1"/><path d="m295 215h-160c-16.542 0-30 13.458-30 30s13.458 30 30 30h160c16.542 0 30-13.458 30-30s-13.458-30-30-30zm-180 30c0-11.028 8.972-20 20-20h12.658c-4.76 5.311-7.658 12.323-7.658 20s2.899 14.689 7.658 20h-12.658c-11.028 0-20-8.972-20-20zm35 0c0-11.028 8.972-20 20-20h12.658c-4.76 5.311-7.658 12.323-7.658 20s2.899 14.689 7.658 20h-12.658c-11.028 0-20-8.972-20-20zm35 0c0-11.028 8.972-20 20-20h12.658c-4.76 5.311-7.658 12.323-7.658 20s2.899 14.689 7.658 20h-12.658c-11.028 0-20-8.972-20-20zm110 20h-55c-11.028 0-20-8.972-20-20s8.972-20 20-20h55c11.028 0 20 8.972 20 20s-8.972 20-20 20z" fill="#a1ffbc"/><path d="m504.33 308.33v44.841h-276.66v-44.841c0-76.398 61.933-138.33 138.33-138.33 76.397 0 138.33 61.932 138.33 138.33z" fill="#20b7a1"/><path d="m504.33 308.33v44.841h-214.33v-44.841c0-65.681 45.776-120.67 107.165-134.805 61.389 14.135 107.165 69.124 107.165 134.805z" fill="#24d3b5"/><path d="m98.997 348.191v5.959c0 4.982-4.039 9.021-9.021 9.021h-80.955c-4.982-.001-9.021-4.039-9.021-9.021v-5.959c0-4.982 4.039-9.02 9.021-9.02h80.956c4.981-.001 9.02 4.038 9.02 9.02zm210.98-9.021h-80.956c-4.982 0-9.021 4.039-9.021 9.02v5.959c0 4.982 4.039 9.021 9.021 9.021h80.956c4.982 0 9.021-4.039 9.021-9.021v-5.959c-.001-4.981-4.04-9.02-9.021-9.02zm-203.86-271.67h-29.617c-4.142 0-7.5-3.358-7.5-7.5 0-4.142 3.358-7.5 7.5-7.5h29.617c4.142 0 7.5 3.358 7.5 7.5 0 4.142-3.358 7.5-7.5 7.5zm268.5 102.5c0-4.142-3.358-7.5-7.5-7.5h-29.617c-4.142 0-7.5 3.358-7.5 7.5 0 4.142 3.358 7.5 7.5 7.5h29.617c4.142 0 7.5-3.358 7.5-7.5z" fill="#7af4ab"/><path d="m200.98 363.17h-156.602c-4.982 0-9.02-4.039-9.02-9.02v-5.959c0-4.982 4.039-9.02 9.02-9.02h156.602c4.982 0 9.02 4.039 9.02 9.02v5.959c0 4.982-4.039 9.02-9.02 9.02zm311.02-9.02v-5.959c0-4.982-4.039-9.02-9.02-9.02h-238.602c-4.982 0-9.02 4.039-9.02 9.02v5.959c0 4.982 4.039 9.02 9.02 9.02h238.602c4.981 0 9.02-4.038 9.02-9.02zm-378.5-286.65h-30.848c-4.142 0-7.5-3.358-7.5-7.5 0-4.142 3.358-7.5 7.5-7.5h30.848c4.142 0 7.5 3.358 7.5 7.5 0 4.142-3.358 7.5-7.5 7.5zm268.5 102.5c0-4.142-3.358-7.5-7.5-7.5h-30.848c-4.142 0-7.5 3.358-7.5 7.5 0 4.142 3.358 7.5 7.5 7.5h30.848c4.142 0 7.5-3.358 7.5-7.5z" fill="#a1ffbc"/><path d="m144.505 161c-6.904 0-12.5-5.596-12.5-12.5v-36.805c0-6.904 5.596-12.5 12.5-12.5 6.904 0 12.5 5.596 12.5 12.5v36.805c0 6.904-5.596 12.5-12.5 12.5zm12.5 28.168c0-6.904-5.596-12.5-12.5-12.5-6.904 0-12.5 5.596-12.5 12.5 0 6.904 5.596 12.5 12.5 12.5 6.904 0 12.5-5.596 12.5-12.5zm258.339 21.429c-6.6 6.6-1.661 22.239 11.031 34.931s28.331 17.631 34.931 11.031 1.661-22.239-11.031-34.931-28.331-17.63-34.931-11.031z" fill="#93e2c6"/></g></svg>