<svg id="Capa_1" enable-background="new 0 0 512 512" height="512" viewBox="0 0 512 512" width="512" xmlns="http://www.w3.org/2000/svg"><g><path d="m0 256c0-141.2 114.316-255.7 255.446-255.999 141.69-.3 256.026 113.337 256.552 255.026.373 100.344-56.987 187.328-140.759 229.63-4.471 2.258-9.715 2.311-14.318.335-30.967-13.297-65.084-20.661-100.922-20.661-35.804 0-69.89 7.35-100.834 20.624-4.81 2.063-10.289 1.795-14.955-.576-83.201-42.268-140.21-128.666-140.21-228.379z" fill="#19305c"/><path d="m380.029 273.236-110.208 139.096c-6.008 7.583-21.633 7.583-27.642 0l-110.208-139.096c-3.405-4.297-2.322-9.648 2.654-13.12l110.208-76.888c6.167-4.303 16.166-4.303 22.333 0l110.208 76.888c4.977 3.471 6.06 8.822 2.655 13.12z" fill="#2b3894"/><path d="m217.597 434h-42.895c-4.982 0-9.02-4.039-9.02-9.02v-5.959c0-4.982 4.039-9.02 9.02-9.02h42.895c4.982 0 9.02 4.039 9.02 9.02v5.959c0 4.981-4.039 9.02-9.02 9.02z" fill="#24d3b5"/><path d="m336.397 434h-139.932c-4.982 0-9.02-4.039-9.02-9.02v-5.959c0-4.982 4.039-9.02 9.02-9.02h139.932c4.982 0 9.02 4.039 9.02 9.02v5.959c0 4.981-4.038 9.02-9.02 9.02z" fill="#35e298"/><path d="m250 439.02v71.959c0 .321-.017.638-.05.95-39.513-.916-76.813-10.786-109.95-27.658v-45.251c0-4.982 4.039-9.02 9.02-9.02h91.959c4.982 0 9.021 4.039 9.021 9.02z" fill="#199a8e"/><path d="m372 439.02v45.251c-34.823 17.732-74.244 27.729-116 27.729-18.229 0-36.013-1.905-53.163-5.527-7.941-8.115-12.837-19.222-12.837-31.473 0-24.853 20.147-45 45-45h127.98c4.981 0 9.02 4.039 9.02 9.02z" fill="#20b7a1"/><path d="m125 322.622h-68.468c-8.284 0-15-6.716-15-15v-260c0-8.284 6.716-15 15-15h68.468c8.284 0 15 6.716 15 15v260c0 8.285-6.716 15-15 15z" fill="#3d4ec6"/><path d="m470.468 47.622v260c0 8.284-6.716 15-15 15h-164.802l-30.29 54.796c-1.902 3.441-6.85 3.441-8.752 0l-30.29-54.796h-139.206c-8.284 0-15-6.716-15-15v-260c0-8.284 6.716-15 15-15h373.34c8.284 0 15 6.716 15 15z" fill="#5766ce"/><path d="m417.149 100.813v50c0 2.761-2.239 5-5 5h-100c-2.761 0-5-2.239-5-5v-50c0-2.761 2.239-5 5-5h100c2.761 0 5 2.239 5 5zm-5 75h-100c-2.761 0-5 2.239-5 5v80c0 2.761 2.239 5 5 5h100c2.761 0 5-2.239 5-5v-80c0-2.761-2.239-5-5-5z" fill="#717ed6"/><path d="m245.104 242.833c-33.195 33.195-87.014 33.195-120.208 0s-33.195-87.014 0-120.208c33.195-33.195 87.014-33.195 120.208 0 33.195 33.194 33.195 87.013 0 120.208z" fill="#a88ac8"/><path d="m244.025 121.564c-32.756-31.636-85.294-31.636-118.049 0-11.853 11.448-19.649 25.47-23.389 40.305 1.858 7.369 4.716 14.537 8.576 21.288 1.791 3.133 6.1 3.669 8.653 1.117l53.72-53.72c1.847-1.847 4.846-2.146 6.859-.483 2.31 1.908 2.431 5.335.364 7.402l-55.859 55.859c-2.133 2.133-2.174 5.607-.042 7.742.013.013.026.026.039.039 2.201 2.201 4.494 4.257 6.865 6.166 1.238.997 3.025.915 4.149-.208l76.446-76.446c2.904-2.904 7.674-3.198 10.663-.383 3.094 2.913 3.149 7.784.166 10.767l-72.976 72.976c-1.531 1.531-1.066 4.146.92 5.007 6.718 2.916 13.735 4.923 20.865 6.021 3.308.51 6.663-.586 9.03-2.953l18.958-18.958c2.904-2.904 7.674-3.198 10.663-.383 3.094 2.913 3.149 7.784.166 10.767l-3.507 3.507c-2.288 2.288.031 6.107 3.119 5.142 12.688-3.964 24.631-10.972 34.683-21.023 11.248-11.248 18.685-24.865 22.31-39.244-3.743-14.834-11.539-28.856-23.392-40.304zm-91.552 1.768-7.071 7.071c-1.953 1.953-5.118 1.953-7.071 0s-1.953-5.118 0-7.071l7.071-7.071c1.953-1.953 5.118-1.953 7.071 0 1.953 1.952 1.953 5.118 0 7.071zm88.388 45.961-14.142 14.142c-1.953 1.953-5.118 1.953-7.071 0s-1.953-5.118 0-7.071l14.142-14.142c1.953-1.953 5.118-1.953 7.071 0s1.953 5.119 0 7.071z" fill="#b9a1d3"/><path d="m269.146 116.26-152.028 152.028c-2.929 2.929-7.678 2.929-10.607 0s-2.929-7.678 0-10.607l152.028-152.028c2.929-2.929 7.678-2.929 10.607 0 2.929 2.93 2.929 7.679 0 10.607z" fill="#a6d2e3"/><path d="m233.79 151.616-45.962 45.962c-2.929 2.929-7.678 2.929-10.607 0s-2.929-7.678 0-10.607l45.962-45.962c2.929-2.929 7.678-2.929 10.607 0s2.929 7.678 0 10.607z" fill="#adebdc"/><path d="m105.457 294.01c0 2.761-2.239 5-5 5h-30.914c-2.761 0-5-2.239-5-5v-30c0-2.761 2.239-5 5-5s5 2.239 5 5v25h25.914c2.761 0 5 2.238 5 5zm-35.457-198.38c2.761 0 5-2.239 5-5v-25.914h25c2.761 0 5-2.239 5-5s-2.239-5-5-5h-30c-2.761 0-5 2.239-5 5v30.914c0 2.761 2.239 5 5 5zm370.457 162.466c-2.761 0-5 2.239-5 5v25.914h-25c-2.761 0-5 2.239-5 5s2.239 5 5 5h30c2.761 0 5-2.239 5-5v-30.914c0-2.762-2.239-5-5-5zm.457-203.38h-30.914c-2.761 0-5 2.239-5 5s2.239 5 5 5h25.914v25c0 2.761 2.239 5 5 5s5-2.239 5-5v-30c0-2.761-2.239-5-5-5zm-38.49 176.097c0-2.761-2.239-5-5-5h-74.379c-2.761 0-5 2.239-5 5 0 2.761 2.239 5 5 5h74.379c2.761 0 5-2.238 5-5zm-28.403 20c0-2.761-2.239-5-5-5h-45.977c-2.761 0-5 2.239-5 5 0 2.761 2.239 5 5 5h45.977c2.762 0 5-2.238 5-5zm-51.872-106.68c-2.761 0-5-2.239-5-5v-17.363c0-2.761 2.239-5 5-5 2.761 0 5 2.239 5 5v17.363c0 2.762-2.239 5-5 5zm45-5v-17.363c0-2.761-2.239-5-5-5-2.761 0-5 2.239-5 5v17.363c0 2.761 2.239 5 5 5 2.761 0 5-2.238 5-5zm20 0v-8.32c0-2.761-2.239-5-5-5-2.761 0-5 2.239-5 5v8.32c0 2.761 2.239 5 5 5 2.761 0 5-2.238 5-5z" fill="#7fbed7"/><path d="m360.851 195.813h-37.807c-2.761 0-5-2.239-5-5 0-2.761 2.239-5 5-5h37.807c2.761 0 5 2.239 5 5 0 2.762-2.239 5-5 5zm46.298-56.68v-29.746c0-2.761-2.239-5-5-5-2.761 0-5 2.239-5 5v29.746c0 2.761 2.239 5 5 5 2.761 0 5-2.238 5-5zm-65.201 5c-2.761 0-5-2.239-5-5v-24.512c0-2.761 2.239-5 5-5 2.761 0 5 2.239 5 5v24.512c0 2.762-2.239 5-5 5z" fill="#adebdc"/><path d="m263.702 62.216c0 4.142-3.358 7.5-7.5 7.5h-.404c-4.142 0-7.5-3.358-7.5-7.5s3.358-7.5 7.5-7.5h.404c4.142 0 7.5 3.358 7.5 7.5z" fill="#a1ffbc"/><path d="m235.617 62.216c0 4.142-3.358 7.5-7.5 7.5h-.404c-4.142 0-7.5-3.358-7.5-7.5s3.358-7.5 7.5-7.5h.404c4.142 0 7.5 3.358 7.5 7.5zm48.67-7.5h-.404c-4.142 0-7.5 3.358-7.5 7.5s3.358 7.5 7.5 7.5h.404c4.142 0 7.5-3.358 7.5-7.5s-3.358-7.5-7.5-7.5z" fill="#fff5f5"/></g></svg>