<svg id="Capa_1" enable-background="new 0 0 512 512" height="512" viewBox="0 0 512 512" width="512" xmlns="http://www.w3.org/2000/svg"><g><path d="m512 256c0 141.385-114.615 256-256 256s-256-114.615-256-256 114.615-256 256-256 256 114.615 256 256z" fill="#19305c"/><path d="m472 256c0 119.294-96.706 216-216 216s-216-96.706-216-216 96.706-216 216-216 216 96.706 216 216z" fill="#232e7a"/><path d="m190 75c0-2.761 2.239-5 5-5h80c2.761 0 5 2.239 5 5s-2.239 5-5 5h-80c-2.761 0-5-2.239-5-5zm317 155h-80c-2.761 0-5 2.239-5 5s2.239 5 5 5h80c2.761 0 5-2.239 5-5s-2.239-5-5-5zm-212-60h-80c-2.761 0-5 2.239-5 5s2.239 5 5 5h80c2.761 0 5-2.239 5-5s-2.239-5-5-5zm-65-75c0-2.761-2.239-5-5-5h-130c-2.761 0-5 2.239-5 5s2.239 5 5 5h130c2.761 0 5-2.239 5-5zm-55 335h-60c-2.761 0-5 2.239-5 5s2.239 5 5 5h60c2.761 0 5-2.239 5-5s-2.239-5-5-5zm80-20h-100c-2.761 0-5 2.239-5 5s2.239 5 5 5h100c2.761 0 5-2.239 5-5s-2.239-5-5-5z" fill="#2b3894"/><path d="m435 170h-80c-2.761 0-5-2.239-5-5s2.239-5 5-5h80c2.761 0 5 2.239 5 5s-2.239 5-5 5zm30 10h-60c-2.761 0-5 2.239-5 5s2.239 5 5 5h60c2.761 0 5-2.239 5-5s-2.239-5-5-5z" fill="#a6d2e3"/><path d="m340 465c0 2.761-2.239 5-5 5h-80c-2.761 0-5-2.239-5-5s2.239-5 5-5h80c2.761 0 5 2.239 5 5zm-50-20c0-2.761-2.239-5-5-5h-60c-2.761 0-5 2.239-5 5s2.239 5 5 5h60c2.761 0 5-2.239 5-5z" fill="#865cb2"/><path d="m170 135c0 2.761-2.239 5-5 5h-80c-2.761 0-5-2.239-5-5s2.239-5 5-5h80c2.761 0 5 2.239 5 5zm-71.787 15h-35.043c-2.761 0-5 2.239-5 5s2.239 5 5 5h35.043c2.761 0 5-2.239 5-5s-2.239-5-5-5z" fill="#717ed6"/><path d="m450 330h-410v-73.745c0-36.592 29.663-66.255 66.255-66.255 11.943 0 23.864.344 35.75 1.028 3.867.223 5.179 16.699 9.038 16.993 84.572 6.453 129.415 8.32 204.766 47.979l42.892 7 15.903 8.37c21.767 11.457 35.396 34.031 35.396 58.63z" fill="#ff3c7d"/><path d="m450 330h-196.255c-40.728 0-73.745-33.017-73.745-73.745 0-24.314 158.351-25.017 216.052 5.352l18.551 9.764c21.768 11.456 35.397 34.03 35.397 58.629z" fill="#ff50b5"/><path d="m422.065 339.255c-2.039 19.94-11.3 37.741-25.125 50.745-13.825-13.004-23.087-30.805-25.125-50.745zm-117.626 50.745c13.825-13.004 23.087-30.805 25.125-50.745h-50.251c2.04 19.94 11.301 37.741 25.126 50.745zm-92.5 0c13.825-13.004 23.087-30.805 25.125-50.745h-50.251c2.04 19.94 11.301 37.741 25.126 50.745z" fill="#fff68e"/><path d="m422.065 320.492c-2.039 19.94-11.3 37.741-25.125 50.745-13.825-13.004-23.087-30.805-25.125-50.745zm-117.626 50.745c13.825-13.004 23.087-30.805 25.125-50.745h-50.251c2.04 19.939 11.301 37.741 25.126 50.745zm-92.5 0c13.825-13.004 23.087-30.805 25.125-50.745h-50.251c2.04 19.939 11.301 37.741 25.126 50.745z" fill="#ffc14f"/><path d="m428.878 345.864c0 3.558-2.884 6.442-6.442 6.442h-50.995c-3.558 0-6.442-2.884-6.442-6.442s2.884-6.442 6.442-6.442h50.995c3.558.001 6.442 2.885 6.442 6.442zm-98.941-6.441h-50.995c-3.558 0-6.442 2.884-6.442 6.442s2.884 6.442 6.442 6.442h50.995c3.558 0 6.442-2.884 6.442-6.442-.001-3.558-2.885-6.442-6.442-6.442zm-92.5 0h-50.995c-3.558 0-6.442 2.884-6.442 6.442s2.884 6.442 6.442 6.442h50.995c3.558 0 6.442-2.884 6.442-6.442-.001-3.558-2.885-6.442-6.442-6.442z" fill="#ff2ea6"/><path d="m452.98 340.122h-370.975c-4.982 0-9.02-4.039-9.02-9.02v-5.959c0-4.982 4.039-9.02 9.02-9.02h370.975c4.982 0 9.02 4.039 9.02 9.02v5.959c0 4.982-4.039 9.02-9.02 9.02z" fill="#ff72c3"/><path d="m35.12 272.5h54.428c5.773 0 10.452 4.68 10.452 10.452v19.216c0 5.773-4.68 10.452-10.452 10.452h-84.548c-2.761 0-5-2.239-5-5 0-19.396 15.724-35.12 35.12-35.12z" fill="#ff50b5"/><path d="m150 340c0 33.137-26.863 60-60 60s-60-26.863-60-60 26.863-60 60-60 60 26.863 60 60z" fill="#5766ce"/><path d="m149.981 338.487c.566 22.996-11.81 43.153-30.361 53.704-8.194 4.66-18.37-1.157-18.37-10.583v-.637c0-4.442 2.451-8.458 6.291-10.691 11.101-6.456 18.348-18.841 17.371-32.786-1.218-17.389-15.412-31.41-32.813-32.431-14.196-.833-26.723 6.849-32.943 18.407-2.135 3.966-6.181 6.53-10.686 6.53h-.759c-9.161 0-15.13-9.732-10.873-17.843 10.195-19.426 30.725-32.577 54.284-32.146 31.905.582 58.074 26.576 58.859 58.476z" fill="#717ed6"/><path d="m120 340c0 16.569-13.431 30-30 30s-30-13.431-30-30 13.431-30 30-30 30 13.431 30 30z" fill="#2b3894"/><path d="m105 340c0 8.271-6.729 15-15 15s-15-6.729-15-15 6.729-15 15-15 15 6.729 15 15z" fill="#3d4ec6"/><path d="m157.5 340c0 4.142-3.358 7.5-7.5 7.5s-7.5-3.358-7.5-7.5c0-28.949-23.551-52.5-52.5-52.5s-52.5 23.551-52.5 52.5c0 4.142-3.358 7.5-7.5 7.5s-7.5-3.358-7.5-7.5c0-37.22 30.28-67.5 67.5-67.5s67.5 30.28 67.5 67.5z" fill="#ff50b5"/><path d="m90 305c-19.299 0-35 15.701-35 35s15.701 35 35 35 35-15.701 35-35-15.701-35-35-35zm0 60c-13.785 0-25-11.215-25-25s11.215-25 25-25 25 11.215 25 25-11.215 25-25 25z" fill="#a1ffbc"/><path d="m264.404 233.577c0 16.25-13.173 29.423-29.423 29.423h-92.057c-19.84 0-35.924-16.084-35.924-35.925 0-20.685 17.43-37.153 38.076-35.863 32.478 2.03 64.682 6.601 96.322 13.641 13.449 2.993 23.006 14.946 23.006 28.724z" fill="#24d3b5"/><path d="m396.052 261.606 2.648 1.394h-214.775c-19.841 0-35.925-16.084-35.925-35.925 0-15.522 9.805-28.58 23.409-33.654 78.332 8.248 154.592 31.317 224.643 68.185z" fill="#7af4ab"/><path d="m405 325.143v5.959c0 4.982-4.039 9.02-9.021 9.02h-169.874c-4.982 0-9.02-4.039-9.02-9.02v-5.959c0-4.982 4.039-9.02 9.02-9.02h169.874c4.982-.001 9.021 4.038 9.021 9.02zm39.506-37.09-7.073-8.576c-2.264-2.745-6.324-3.134-9.068-.871-2.745 2.264-3.134 6.324-.871 9.068l7.073 8.576c2.264 2.745 6.324 3.134 9.068.871 2.745-2.263 3.135-6.323.871-9.068zm-146.144-25.021c0-2.761-2.239-5-5-5h-114.851c-2.761 0-5 2.239-5 5s2.239 5 5 5h114.851c2.761 0 5-2.239 5-5z" fill="#ff94d2"/><path d="m408.82 49.538h13.591c26.274 0 47.574 21.3 47.574 47.574 0 6.013-4.875 10.888-10.888 10.888h-169.671s-6.044-3.797-4.288-5.631c32.213-33.666 76.867-52.831 123.682-52.831z" fill="#5766ce"/><path d="m469.984 97.112c0 6.013-4.875 10.888-10.888 10.888h-110.596c-12.603 0-8.185-50.924 60.319-58.462h13.591c26.275 0 47.574 21.3 47.574 47.574z" fill="#717ed6"/><path d="m280 110.98v-5.959c0-4.982 4.039-9.02 9.02-9.02h51.959c4.982 0 9.02 4.039 9.02 9.02v5.959c0 4.982-4.039 9.02-9.02 9.02h-51.959c-4.981 0-9.02-4.039-9.02-9.02z" fill="#24d3b5"/><path d="m330 110.98v-5.959c0-4.982 4.039-9.02 9.02-9.02h131.96c4.982 0 9.02 4.039 9.02 9.02v5.959c0 4.982-4.039 9.02-9.02 9.02h-131.96c-4.981 0-9.02-4.039-9.02-9.02z" fill="#a1ffbc"/><path d="m490 105c0 13.807-11.193 25-25 25s-25-11.193-25-25 11.193-25 25-25 25 11.193 25 25z" fill="#8c96dd"/><path d="m476 105c0 6.075-4.925 11-11 11s-11-4.925-11-11 4.925-11 11-11 11 4.925 11 11z" fill="#7af4ab"/><path d="m421.021 100h-63.489c-2.761 0-5-2.239-5-5 0-2.761 2.239-5 5-5h63.489c2.761 0 5 2.239 5 5 0 2.761-2.238 5-5 5z" fill="#a6aee5"/></g></svg>