<svg id="Capa_1" enable-background="new 0 0 512 512" height="512" viewBox="0 0 512 512" width="512" xmlns="http://www.w3.org/2000/svg"><g><path d="m512 256c0 141.385-114.615 256-256 256s-256-114.615-256-256 114.615-256 256-256c42.779 0 83.107 10.493 118.551 29.045 3.56 1.863.216 7.846 3.675 9.869 49.836 29.155 88.932 71.166 109.916 125.679 1.568 4.074 9.889 7.668 11.252 11.839 8.182 25.045 12.606 51.79 12.606 79.568z" fill="#644189"/><path d="m482.404 240.34c0 116.391-94.354 210.745-210.745 210.745s-210.744-94.354-210.744-210.745 94.353-210.744 210.745-210.744 210.744 94.353 210.744 210.744z" fill="#754ca0"/><path d="m499.393 176.432-2.956-1.486c-4.702-2.364-10.318-.339-12.677 4.57l-14.266 29.693c-3.504 7.294-13.29 7.433-17.001.243l-15.109-29.273c-2.498-4.839-8.17-6.702-12.802-4.205l-28.021 15.105c-6.883 3.71-14.887-2.273-13.906-10.396l3.995-33.066c.661-5.466-2.901-10.506-8.037-11.374l-31.074-5.252c-7.633-1.29-10.798-11.112-5.499-17.063l21.573-24.23c3.566-4.005 3.476-10.296-.203-14.198l-22.257-23.603c-5.467-5.798-2.584-15.706 5.009-17.214l28.388-5.638c58.685 30.717 103.98 83.528 124.843 147.387zm-406.829-37.164c-6.294 3.943-11.612 9.261-15.555 15.555-.73 1.165-2.426 1.165-3.156 0-3.943-6.294-9.261-11.612-15.554-15.555-1.165-.73-1.165-2.426 0-3.156 6.294-3.943 11.612-9.261 15.554-15.555.73-1.165 2.426-1.165 3.156 0 3.943 6.294 9.261 11.612 15.555 15.555 1.165.73 1.165 2.427 0 3.156zm280.667 297.404c-5.314-3.329-9.804-7.819-13.133-13.133-.616-.983-2.049-.983-2.665 0-3.329 5.314-7.819 9.804-13.133 13.133-.983.616-.983 2.049 0 2.665 5.314 3.329 9.804 7.819 13.133 13.133.616.983 2.049.983 2.665 0 3.329-5.314 7.819-9.804 13.133-13.133.984-.616.984-2.048 0-2.665z" fill="#fff68e"/><path d="m510.097 65.139-11.23 11.898c-1.856 1.967-1.812 5.053.1 6.966l11.565 11.572c2.841 2.843 1.337 7.705-2.612 8.448l-16.079 3.025c-2.658.5-4.437 3.023-4.014 5.695l2.555 16.16c.628 3.969-3.447 7.02-7.079 5.299l-14.786-7.003c-2.444-1.158-5.366-.162-6.595 2.247l-7.432 14.575c-1.826 3.58-6.915 3.653-8.842.126l-7.845-14.357c-1.297-2.373-4.246-3.285-6.656-2.058l-14.58 7.423c-3.581 1.823-7.741-1.109-7.228-5.095l2.092-16.226c.346-2.682-1.504-5.154-4.175-5.577l-16.159-2.564c-3.969-.63-5.611-5.448-2.853-8.37l11.23-11.898c1.856-1.967 1.812-5.053-.1-6.966l-11.565-11.572c-2.841-2.843-1.337-7.705 2.612-8.448l16.079-3.025c2.658-.5 4.437-3.023 4.014-5.695l-2.555-16.16c-.628-3.969 3.447-7.02 7.079-5.299l14.786 7.003c2.444 1.158 5.366.162 6.595-2.247l7.432-14.575c1.826-3.58 6.915-3.653 8.842-.126l7.845 14.357c1.297 2.373 4.246 3.285 6.656 2.058l14.58-7.423c3.581-1.823 7.741 1.109 7.228 5.095l-2.092 16.226c-.346 2.682 1.504 5.154 4.175 5.577l16.158 2.564c3.97.629 5.612 5.447 2.854 8.37z" fill="#ffc14f"/><path d="m463.184 52.332c1.763 3.576 6.231 4.844 9.609 2.726 5.364-3.363 11.981 1.87 9.945 7.865-1.283 3.775.981 7.831 4.867 8.722 6.171 1.415 7.149 9.795 1.47 12.593-3.576 1.763-4.844 6.231-2.726 9.609 3.363 5.364-1.87 11.981-7.865 9.945-3.775-1.283-7.831.981-8.723 4.867-1.415 6.171-9.795 7.149-12.593 1.47-1.763-3.576-6.231-4.844-9.609-2.726-5.364 3.363-11.981-1.87-9.945-7.865 1.283-3.775-.981-7.831-4.867-8.723-6.171-1.415-7.149-9.795-1.47-12.593 3.576-1.763 4.844-6.231 2.726-9.609-3.363-5.364 1.87-11.981 7.865-9.945 3.775 1.283 7.831-.981 8.723-4.867 1.415-6.17 9.794-7.148 12.593-1.469z" fill="#ff2ea6"/><path d="m210.148 110.883c-3.962 2.482-7.31 5.83-9.792 9.792-.459.733-1.528.733-1.987 0-2.482-3.962-5.83-7.31-9.792-9.792-.733-.459-.733-1.528 0-1.987 3.962-2.482 7.31-5.83 9.792-9.792.459-.733 1.527-.733 1.987 0 2.482 3.962 5.83 7.31 9.792 9.792.733.459.733 1.528 0 1.987zm247.476 213.07c-3.962-2.482-7.31-5.83-9.792-9.792-.459-.733-1.528-.733-1.987 0-2.482 3.962-5.83 7.31-9.792 9.792-.733.459-.733 1.528 0 1.987 3.962 2.482 7.31 5.83 9.792 9.792.459.733 1.527.733 1.987 0 2.482-3.962 5.83-7.31 9.792-9.792.733-.459.733-1.527 0-1.987z" fill="#7af4ab"/><path d="m457.086 252.511-100.609 64.067c-3.494 2.225-8.13 1.196-10.355-2.298-2.225-3.494-1.196-8.13 2.298-10.355l100.609-64.067c3.494-2.225 8.13-1.196 10.355 2.298 2.224 3.494 1.195 8.13-2.298 10.355zm-144.197-185.403c-2.225-3.494-6.861-4.523-10.355-2.298l-66.461 42.322c-3.494 2.225-4.523 6.861-2.298 10.355 2.225 3.494 6.861 4.523 10.355 2.298l66.461-42.322c3.494-2.225 4.523-6.861 2.298-10.355zm180.663-3.49c-2.225-3.494-6.861-4.523-10.355-2.298l-66.461 42.322c-3.494 2.225-4.523 6.861-2.298 10.355 2.225 3.494 6.861 4.523 10.355 2.298l66.461-42.322c3.494-2.225 4.523-6.861 2.298-10.355z" fill="#7fbed7"/><path d="m416.867 278.122-35.865 22.838c-3.494 2.225-8.13 1.196-10.355-2.298-2.225-3.494-1.196-8.13 2.298-10.355l35.865-22.838c3.494-2.225 8.13-1.196 10.355 2.298 2.224 3.494 1.196 8.13-2.298 10.355zm-132.071-193.124c-2.225-3.494-6.861-4.523-10.355-2.298l-21.237 13.523c-3.494 2.225-4.523 6.861-2.298 10.355 2.225 3.494 6.861 4.523 10.355 2.298l21.237-13.523c3.494-2.226 4.523-6.862 2.298-10.355zm180.663-3.491c-2.225-3.494-6.861-4.523-10.355-2.298l-21.237 13.523c-3.494 2.225-4.523 6.861-2.298 10.355 2.225 3.494 6.861 4.523 10.355 2.298l21.237-13.523c3.494-2.225 4.523-6.861 2.298-10.355z" fill="#a1ffbc"/><path d="m418.578 122.56-119.524 76.112c-4.401 2.802-10.24 1.507-13.042-2.894s-1.507-10.24 2.894-13.042l119.524-76.112c4.401-2.802 10.24-1.507 13.042 2.894 2.802 4.401 1.507 10.24-2.894 13.042z" fill="#2b3894"/><path d="m93.626 351.897-53.911 34.33c-9.317 5.933-21.68 3.19-27.613-6.127l-8.97-14.087c-5.933-9.317-3.19-21.68 6.127-27.613l53.911-34.33c9.317-5.933 21.68-3.19 27.613 6.127l8.97 14.087c5.934 9.317 3.19 21.68-6.127 27.613zm187.681 81.276-160.145-83.407c-9.797-5.102-21.875-1.297-26.977 8.5l-7.714 14.812c-5.102 9.797-1.297 21.875 8.5 26.977l160.145 83.407c9.797 5.102 21.875 1.297 26.977-8.5l7.714-14.812c5.102-9.796 1.297-21.874-8.5-26.977z" fill="#5766ce"/><path d="m271.366 300.287c-14.689-23.067-45.406-29.883-68.472-15.194l-47.81 30.445c-6.94 4.419-12.408 10.29-16.263 16.966-8.219-1.244-16.677 2.757-20.731 10.542l-7.714 14.812c-5.102 9.797-1.297 21.875 8.5 26.977l84.218 43.862c9.797 5.102 21.875 1.297 26.977-8.5l7.714-14.812c4.029-7.736 2.504-16.894-3.14-22.917l21.526-13.708c23.068-14.689 29.884-45.406 15.195-68.473zm-22.805 56.52-27.331 17.404-69.255-36.07c2.681-4.162 6.279-7.823 10.721-10.652l47.81-30.445c16.477-10.492 38.417-5.623 48.909 10.853 10.491 16.478 5.622 38.418-10.854 48.91z" fill="#717ed6"/><path d="m217.954 328.699-90.57 57.674c-35.201 22.416-81.909 12.051-104.325-23.15-22.416-35.201-12.051-81.909 23.15-104.325l90.571-57.674c35.201-22.416 81.909-12.051 104.325 23.15 22.415 35.202 12.051 81.909-23.151 104.325z" fill="#7fbed7"/><path d="m294.735 279.806-87.668 55.826c-35.201 22.416-81.909 12.051-104.325-23.15-22.416-35.201-12.051-81.909 23.15-104.325l87.668-55.826c35.201-22.416 81.909-12.051 104.325 23.15 22.416 35.202 12.051 81.91-23.15 104.325z" fill="#a6d2e3"/><path d="m244.528 255.804-133.594 85.071c-9.317 5.933-21.68 3.19-27.613-6.127l-8.97-14.087c-5.933-9.317-3.19-21.68 6.127-27.613l133.594-85.071c9.317-5.933 21.68-3.19 27.613 6.127l8.97 14.087c5.933 9.318 3.19 21.68-6.127 27.613z" fill="#2b3894"/><path d="m135.566 325.19-24.632 15.685c-9.317 5.933-21.68 3.19-27.613-6.127l-8.97-14.087c-5.933-9.317-3.19-21.68 6.127-27.613l24.633-15.686c-9.316 5.933-12.059 18.295-6.126 27.612l8.97 14.087c5.934 9.316 18.295 12.06 27.611 6.129z" fill="#232e7a"/><path d="m201.668 268.146c-4.072 2.593-9.475 1.394-12.068-2.678l-7.862-12.347c-2.593-4.072-1.394-9.475 2.678-12.068s9.475-1.394 12.068 2.678l7.862 12.347c2.593 4.072 1.394 9.475-2.678 12.068z" fill="#24d3b5"/><path d="m171.91 287.096c-4.072 2.593-9.475 1.394-12.068-2.678l-7.862-12.347c-2.593-4.072-1.394-9.475 2.678-12.068 4.072-2.593 9.475-1.394 12.068 2.678l7.862 12.347c2.593 4.072 1.394 9.475-2.678 12.068z" fill="#58aacb"/><path d="m142.152 306.046c-4.072 2.593-9.475 1.394-12.068-2.678l-7.862-12.347c-2.593-4.072-1.394-9.475 2.678-12.068s9.475-1.394 12.068 2.678l7.862 12.347c2.592 4.072 1.393 9.475-2.678 12.068zm-36.504-6.882c-2.593-4.072-7.996-5.271-12.068-2.678-4.072 2.593-5.271 7.996-2.678 12.068l7.862 12.347c2.593 4.072 7.996 5.271 12.068 2.678 4.072-2.593 5.271-7.996 2.678-12.068z" fill="#5766ce"/><path d="m231.427 249.196c-4.072 2.593-9.475 1.394-12.068-2.678l-7.862-12.347c-2.593-4.072-1.394-9.475 2.678-12.068s9.475-1.394 12.068 2.678l7.862 12.347c2.593 4.073 1.394 9.475-2.678 12.068z" fill="#a1ffbc"/><path d="m237.52 383.437-31.873 20.296c-4.401 2.802-10.24 1.507-13.042-2.894-2.802-4.401-1.507-10.24 2.894-13.042l31.873-20.296c4.401-2.802 10.24-1.507 13.042 2.894s1.507 10.239-2.894 13.042z" fill="#7af4ab"/><path d="m214.329 364.606-31.873 20.296c-4.401 2.802-10.24 1.507-13.042-2.894s-1.507-10.24 2.894-13.042l31.873-20.296c4.401-2.802 10.24-1.507 13.042 2.894 2.803 4.4 1.507 10.24-2.894 13.042z" fill="#a1ffbc"/><path d="m340.735 208.717c2.102 3.301 1.13 7.68-2.171 9.782s-7.68 1.13-9.782-2.171l-43.141-67.747c-2.102-3.301-1.13-7.68 2.171-9.782s7.68-1.13 9.782 2.171zm-14.162-75.002c-2.102-3.301-6.481-4.272-9.782-2.171-3.301 2.102-4.272 6.481-2.171 9.782l32.992 51.811c2.102 3.301 6.481 4.272 9.782 2.171 3.301-2.102 4.272-6.481 2.171-9.782zm28.979-7.254c-2.102-3.301-6.481-4.272-9.782-2.171-3.301 2.102-4.272 6.481-2.17 9.782l22.844 35.874c2.102 3.301 6.481 4.272 9.782 2.171s4.272-6.481 2.171-9.782zm69.011-18.711-.021-.034c-5.602-8.797-17.274-11.387-26.071-5.785s-11.387 17.274-5.785 26.071l.022.034c5.602 8.797 17.274 11.387 26.071 5.785s11.386-17.274 5.784-26.071z" fill="#717ed6"/><path d="m418.86 111.51c0 3.516-4.227 6.366-9.441 6.366s-9.44-2.85-9.44-6.366 4.227-6.366 9.44-6.366 9.441 2.85 9.441 6.366z" fill="#8c96dd"/><path d="m293.08 400.184c-1.475-2.334-.779-5.423 1.556-6.898l67.629-42.736c2.334-1.475 5.423-.779 6.898 1.556 1.475 2.334.779 5.423-1.556 6.898l-67.629 42.736c-2.335 1.475-5.423.778-6.898-1.556zm52.951-9.803c1.475 2.334 4.563 3.031 6.898 1.556l50.722-32.052c2.334-1.475 3.031-4.563 1.556-6.898-1.475-2.334-4.563-3.031-6.898-1.556l-50.721 32.052c-2.335 1.475-3.032 4.564-1.557 6.898zm-207.684-290.453c1.475 2.334 4.563 3.031 6.898 1.556l50.722-32.052c2.334-1.475 3.031-4.563 1.556-6.898s-4.563-3.031-6.898-1.556l-50.723 32.052c-2.334 1.476-3.031 4.564-1.555 6.898zm-38.368 78.769c1.475 2.334 4.563 3.031 6.898 1.556l38.804-24.556c2.334-1.475 3.031-4.563 1.556-6.898-1.475-2.334-4.563-3.031-6.898-1.556l-38.804 24.556c-2.335 1.475-3.031 4.564-1.556 6.898z" fill="#9773bd"/></g></svg>