<svg id="Capa_1" enable-background="new 0 0 512 512" height="512" viewBox="0 0 512 512" width="512" xmlns="http://www.w3.org/2000/svg"><g><path d="m512 256c0 141.385-114.615 256-256 256-30.077 0-58.942-5.187-85.75-14.715-6.241-2.218-1.71-12.302-7.718-14.98-33.273-14.833-62.798-36.555-86.763-63.356-4.576-5.117-19.61-2.79-23.768-8.265-32.633-42.969-52.001-96.565-52.001-154.684 0-141.385 114.615-256 256-256s256 114.615 256 256z" fill="#ffb52d"/><path d="m479.655 243.266c0 116.489-94.433 210.921-210.921 210.921s-210.922-94.432-210.922-210.921 94.433-210.921 210.922-210.921 210.921 94.433 210.921 210.921z" fill="#ffc14f"/><path d="m82.75 262.556v-125c0-3.866 3.134-7 7-7h155c3.866 0 7 3.134 7 7v125c0 3.866-3.134 7-7 7h-155c-3.866 0-7-3.134-7-7z" fill="#ffcd71"/><path d="m244.75 269.556h-134.095c-3.866 0-7-3.134-7-7v-125c0-3.866 3.134-7 7-7h134.095c3.866 0 7 3.134 7 7v125c0 3.866-3.134 7-7 7z" fill="#fff68e"/><path d="m200 160h-5c-2.761 0-5-2.239-5-5 0-2.761 2.239-5 5-5h5c2.761 0 5 2.239 5 5 0 2.761-2.239 5-5 5zm20 0h-5c-2.761 0-5-2.239-5-5 0-2.761 2.239-5 5-5h5c2.761 0 5 2.239 5 5 0 2.761-2.239 5-5 5zm-37 55c0-2.761-2.239-5-5-5h-53c-2.761 0-5 2.239-5 5 0 2.761 2.239 5 5 5h53c2.761 0 5-2.239 5-5zm7 20c0-2.761-2.239-5-5-5h-60c-2.761 0-5 2.239-5 5 0 2.761 2.239 5 5 5h60c2.761 0 5-2.239 5-5z" fill="#ffcd71"/><path d="m343 422v-125c0-3.866 3.134-7 7-7h155c3.866 0 7 3.134 7 7v125c0 3.866-3.134 7-7 7h-155c-3.866 0-7-3.134-7-7z" fill="#20b7a1"/><path d="m365.068 429h-24.737c-3.866 0-7-3.134-7-7v-125c0-3.866 3.134-7 7-7h24.737c-3.866 0-7 3.134-7 7v125c0 3.866 3.134 7 7 7z" fill="#3e9dc3"/><path d="m481.04 321.859c2.761 0 5 2.239 5 5v80.867c0 2.761-2.239 5-5 5-2.761 0-5-2.239-5-5v-80.867c0-2.762 2.239-5 5-5zm-28.04 45.867v40c0 2.761 2.239 5 5 5 2.761 0 5-2.239 5-5v-40c0-2.761-2.239-5-5-5-2.761 0-5 2.239-5 5zm-40 5.827v34.173c0 2.761 2.239 5 5 5 2.761 0 5-2.239 5-5v-34.173c0-2.761-2.239-5-5-5-2.761 0-5 2.239-5 5z" fill="#a1ffbc"/><path d="m373 402.726v5c0 2.761 2.239 5 5 5 2.761 0 5-2.239 5-5v-5c0-2.761-2.239-5-5-5-2.761 0-5 2.239-5 5zm60-15v20c0 2.761 2.239 5 5 5 2.761 0 5-2.239 5-5v-20c0-2.761-2.239-5-5-5-2.761 0-5 2.239-5 5zm-40 0v20c0 2.761 2.239 5 5 5 2.761 0 5-2.239 5-5v-20c0-2.761-2.239-5-5-5-2.761 0-5 2.239-5 5z" fill="#24d3b5"/><path d="m0 181.521v-125c0-3.866 3.134-7 7-7h155c3.866 0 7 3.134 7 7v125c0 3.866-3.134 7-7 7h-155c-3.866 0-7-3.134-7-7z" fill="#ff50b5"/><path d="m29.389 188.521h-22.389c-3.866 0-7-3.134-7-7v-125c0-3.866 3.134-7 7-7h22.389c-3.866 0-7 3.134-7 7v125c0 3.867 3.133 7 7 7z" fill="#ff3c7d"/><path d="m154.513 119.596v.188c0 2.762-2.238 5-5 5s-5-2.238-5-5v-.188c0-3.378-2.749-6.127-6.127-6.127-3.379 0-6.128 2.749-6.128 6.127v20.318c0 8.893-7.234 16.127-16.127 16.127s-16.127-7.234-16.127-16.127v-56.829c0-3.379-2.749-6.127-6.127-6.127-3.379 0-6.127 2.748-6.127 6.127v77.362c0 8.893-7.234 16.127-16.127 16.127s-16.127-7.234-16.127-16.127v-72.569c0-3.379-2.748-6.127-6.127-6.127-3.378 0-6.127 2.748-6.127 6.127v42.771c0 8.893-7.235 16.127-16.128 16.127s-16.127-7.234-16.127-16.127v-.188c0-2.762 2.238-5 5-5s5 2.238 5 5v.188c0 3.378 2.749 6.127 6.127 6.127 3.379 0 6.128-2.749 6.128-6.127v-42.771c0-8.893 7.234-16.127 16.127-16.127s16.127 7.234 16.127 16.127v72.569c0 3.379 2.749 6.127 6.127 6.127 3.379 0 6.127-2.748 6.127-6.127v-77.362c0-8.893 7.234-16.127 16.127-16.127s16.127 7.234 16.127 16.127v56.829c0 3.378 2.748 6.127 6.127 6.127 3.378 0 6.127-2.749 6.127-6.127v-20.318c0-8.893 7.235-16.127 16.128-16.127s16.127 7.234 16.127 16.127z" fill="#ff94d2"/><path d="m60.496 137.851c-2.761 0-5-2.239-5-5v-31.234c0-2.761 2.239-5 5-5 2.761 0 5 2.239 5 5v31.234c0 2.761-2.238 5-5 5zm49.51-5v-31.234c0-2.761-2.239-5-5-5-2.761 0-5 2.239-5 5v31.234c0 2.761 2.239 5 5 5 2.762 0 5-2.239 5-5zm-66.723-19.383v-18.468c0-2.761-2.239-5-5-5-2.761 0-5 2.239-5 5v18.468c0 2.761 2.239 5 5 5 2.762 0 5-2.238 5-5zm89.032 15.128v-7.149c0-2.761-2.239-5-5-5-2.761 0-5 2.239-5 5v7.149c0 2.761 2.239 5 5 5 2.762 0 5-2.239 5-5zm-44.565 17.021v-56.766c0-2.761-2.239-5-5-5-2.761 0-5 2.239-5 5v56.766c0 2.761 2.239 5 5 5 2.761 0 5-2.239 5-5z" fill="#ffc7e7"/><path d="m251.742 415.794-81.491 81.491c-47.409-16.849-88.384-47.275-118.249-86.601l97.316-97.315z" fill="#ff50b5"/><path d="m161.776 322.548-100.107 100.107c-3.339-3.89-6.564-7.882-9.668-11.97l98.956-98.956z" fill="#ff3c7d"/><path d="m109.564 83v-76c0-3.866 3.134-7 7-7h95.424c3.866 0 7 3.134 7 7v76c0 3.866-3.134 7-7 7h-95.424c-3.866 0-7-3.134-7-7z" fill="#5766ce"/><path d="m127.962 90h-21.116c-3.866 0-7-3.134-7-7v-76c0-3.866 3.134-7 7-7h21.116c-3.866 0-7 3.134-7 7v76c0 3.866 3.134 7 7 7z" fill="#3d4ec6"/><path d="m125.141 32.16v25.68c0 2.761-2.239 5-5 5s-5-2.239-5-5v-25.68c0-2.762 2.239-5 5-5s5 2.238 5 5zm14.639-12.16c-2.761 0-5 2.239-5 5v40c0 2.761 2.239 5 5 5s5-2.239 5-5v-40c0-2.761-2.239-5-5-5zm19.637 7.16c-2.761 0-5 2.238-5 5v25.68c0 2.761 2.239 5 5 5s5-2.239 5-5v-25.68c0-2.762-2.238-5-5-5zm39.277 0c-2.761 0-5 2.238-5 5v25.68c0 2.761 2.239 5 5 5s5-2.239 5-5v-25.68c0-2.762-2.239-5-5-5zm-19.638-18.713c-2.761 0-5 2.239-5 5v63.106c0 2.761 2.239 5 5 5s5-2.239 5-5v-63.106c0-2.761-2.239-5-5-5z" fill="#8c96dd"/><path d="m125.141 39.319v.681c0 2.761-2.239 5-5 5s-5-2.239-5-5v-.681c0-2.762 2.239-5 5-5s5 2.239 5 5zm14.639-12.159c-2.761 0-5 2.239-5 5v15c0 2.761 2.239 5 5 5s5-2.239 5-5v-15c0-2.762-2.239-5-5-5zm58.914 7.159c-2.761 0-5 2.238-5 5v.681c0 2.761 2.239 5 5 5s5-2.239 5-5v-.681c0-2.761-2.239-5-5-5zm-19.638-18.713c-2.761 0-5 2.239-5 5v38.106c0 2.761 2.239 5 5 5s5-2.239 5-5v-38.106c0-2.761-2.239-5-5-5zm-19.639 18.713c-2.761 0-5 2.238-5 5v.681c0 2.761 2.239 5 5 5s5-2.239 5-5v-.681c0-2.761-2.238-5-5-5z" fill="#bacbec"/><path d="m482.566 224.078-87.352 87.352c-15.035 15.035-34.644 22.709-54.349 23.021-5.125.081-10.002 2.222-13.626 5.846l-74.567 74.567-102.425-102.425 69.376-69.376c4.236-4.236 6.289-10.141 5.755-16.107-2.003-22.402 5.569-45.499 22.716-62.646l73.074-73.074c5.745-5.746 15.164-5.579 20.696.5 5.181 5.693 4.681 14.561-.763 20.004l-41.017 41.017c-4.321 4.321-4.647 11.409-.406 15.809 4.321 4.482 11.458 4.531 15.842.148l82.796-82.796c5.745-5.745 15.164-5.578 20.696.5 5.181 5.693 4.681 14.561-.763 20.004l-66.199 66.199c-2.768 2.768-3.049 7.314-.365 10.163 2.777 2.949 7.42 3.001 10.263.158l76.702-76.702c5.444-5.443 14.311-5.944 20.004-.762 6.079 5.532 6.245 14.951.5 20.696l-76.987 76.987c-1.853 1.853-2.411 5.288-1.239 7.632l1.239 2.478c1.853 3.707 5.767 4.342 8.698 1.411l62.569-62.569c5.745-5.745 15.164-5.579 20.696.5 5.181 5.693 4.681 14.561-.763 20.004l-60.66 60.66c-2.768 2.768-3.049 7.315-.365 10.165 2.777 2.948 7.419 3 10.262.157l39.456-39.455c5.443-5.443 14.311-5.944 20.004-.763 6.08 5.532 6.247 14.951.502 20.697z" fill="#3d4ec6"/><path d="m266.479 165.725c-15.496 15.496-22.589 36.433-22.208 56.979.201 10.873-4.011 21.36-11.7 29.049l-71.505 71.505-10.819-10.819 69.375-69.375c4.235-4.236 6.289-10.141 5.755-16.107-2.003-22.402 5.569-45.499 22.717-62.646l73.074-73.074c5.557-5.557 14.549-5.583 20.138-.079-.614.443-1.201.94-1.753 1.493zm152.717-79.1c0-.001 0-.001 0-.001-5.505-6.28-15.07-6.515-20.879-.706l-79.155 79.155c-2.871 2.871-2.872 7.526 0 10.398 2.871 2.871 7.527 2.871 10.398 0l86.433-86.433c.974-.975 2.054-1.778 3.203-2.413zm43.151 117.234-54.096 54.096c-2.871 2.871-2.871 7.526 0 10.397s7.526 2.872 10.398 0l61.375-61.375c.974-.975 2.054-1.778 3.203-2.412 0-.001 0-.001 0-.001-5.506-6.279-15.071-6.515-20.88-.705zm11.966-51.038v-.001c-5.505-6.28-15.07-6.515-20.879-.706l-73.895 73.895c-2.871 2.872-2.871 7.526 0 10.398 2.871 2.871 7.526 2.871 10.398 0l81.173-81.174c.975-.974 2.055-1.777 3.203-2.412zm-14.499-46.157c0-.001 0-.001 0-.001-5.505-6.28-15.07-6.515-20.879-.706l-89.492 89.492c-2.871 2.871-2.871 7.526 0 10.397 2.871 2.872 7.526 2.872 10.398 0l96.77-96.77c.975-.974 2.054-1.778 3.203-2.412z" fill="#3342ae"/><path d="m339.399 300.24c-17.316 17.316-45.391 17.316-62.707 0s-17.316-45.391 0-62.707 45.391-17.316 62.707 0 17.316 45.391 0 62.707z" fill="#5766ce"/><path d="m322.529 283.369c-7.999 7.999-20.967 7.999-28.966 0s-7.999-20.967 0-28.966 20.967-7.999 28.966 0 7.999 20.967 0 28.966z" fill="#717ed6"/><path d="m498.633 208.01-16.948 16.948-20.219-20.219 16.948-16.948c5.583-5.583 14.635-5.583 20.219 0 5.583 5.584 5.583 14.636 0 20.219zm-9.198-51.459c5.444-5.443 5.944-14.311.763-20.004-5.532-6.079-14.951-6.245-20.696-.5l-14.958 14.958 20.219 20.219zm-156.544-77.037-13.241 13.24 20.219 20.219 12.955-12.955c5.444-5.443 5.944-14.311.763-20.004-5.532-6.079-14.951-6.246-20.696-.5zm142.33 30.594c5.583-5.583 5.583-14.635 0-20.219s-14.635-5.583-20.219 0l-16.825 16.826 20.219 20.219zm-39.162-40.736c-5.532-6.079-14.951-6.246-20.696-.5l-17.825 17.825 20.219 20.219 17.539-17.539c5.444-5.444 5.944-14.311.763-20.005z" fill="#717ed6"/><path d="m472.679 93.008-24.104 24.104-10.398-10.397 16.825-16.826c5.81-5.81 15.374-5.574 20.879.706v.001c-1.148.634-2.228 1.438-3.202 2.412zm5.735 94.784-16.948 16.948 10.398 10.398 24.227-24.227c.974-.975 2.054-1.778 3.203-2.412 0-.001 0-.001 0-.001-5.506-6.281-15.07-6.516-20.88-.706zm8.764-48.626c.975-.974 2.054-1.778 3.203-2.412v-.001c-5.505-6.28-15.07-6.515-20.879-.706l-14.958 14.958 10.398 10.397zm-154.287-59.652-13.24 13.24 9.9 9.899 21.726-21.726c.553-.553 1.14-1.05 1.753-1.493-5.591-5.503-14.583-5.477-20.139.08zm82.472-10.642-17.825 17.825 10.398 10.397 25.103-25.103c.974-.974 2.054-1.778 3.203-2.412 0-.001 0-.001 0-.001-5.505-6.28-15.07-6.515-20.879-.706z" fill="#5766ce"/><path d="m253.005 327.108-43.714 43.714c-1.953 1.953-5.119 1.953-7.071 0s-1.953-5.118 0-7.071l43.714-43.714c1.953-1.953 5.119-1.953 7.071 0s1.953 5.118 0 7.071zm42.047 17.012c-1.953-1.953-5.118-1.953-7.071 0l-12.59 12.59c-5.811 5.811-13.536 9.011-21.755 9.011l-12.797.001c-7.932 0-19.126 5.857-27.596 12.015l7.15 7.15c6.643-4.698 14.954-9.165 20.447-9.165l12.797-.001c10.889 0 21.126-4.24 28.826-11.939l12.59-12.59c1.951-1.954 1.952-5.119-.001-7.072zm-87.73-24.713c0-8.219 3.2-15.945 9.01-21.755l12.59-12.59c1.953-1.953 1.953-5.118 0-7.071s-5.119-1.952-7.071 0l-12.59 12.59c-7.699 7.7-11.94 17.937-11.939 28.826l-.001 12.797c0 5.493-4.468 13.804-9.166 20.446l7.15 7.15c6.157-8.471 12.015-19.665 12.015-27.597z" fill="#5766ce"/><path d="m256.826 316.216c2.929 2.929 2.929 7.678 0 10.606l-4.617 4.618c-2.929 2.929-7.677 2.929-10.606 0-2.929-2.929-2.929-7.678 0-10.607l4.617-4.617c2.928-2.928 7.677-2.928 10.606 0zm43.527 22.946c-2.929-2.929-7.678-2.929-10.607 0l-4.617 4.618c-2.929 2.929-2.929 7.678 0 10.606 2.929 2.929 7.677 2.929 10.606 0l4.617-4.617c2.93-2.93 2.93-7.678.001-10.607zm-66.258-66.258c-2.929-2.929-7.677-2.929-10.606 0l-4.617 4.617c-2.929 2.929-2.929 7.678 0 10.607 2.929 2.929 7.678 2.929 10.607 0l4.617-4.618c2.928-2.928 2.928-7.677-.001-10.606z" fill="#8c96dd"/><path d="m260.864 425.358c-2.929 2.929-7.678 2.929-10.607 0l-109.812-109.812c-2.929-2.929-2.929-7.678 0-10.607s7.678-2.929 10.607 0l109.812 109.813c2.929 2.929 2.929 7.678 0 10.606z" fill="#3342ae"/><path d="m153.948 329.048-13.502-13.502c-2.929-2.929-2.929-7.678 0-10.607s7.678-2.929 10.607 0l13.502 13.502c-2.929-2.927-7.677-2.927-10.605.001-2.93 2.93-2.93 7.677-.002 10.606z" fill="#2b3894"/><path d="m270.422 306.51c-20.746-20.746-20.746-54.502 0-75.248s54.502-20.746 75.248 0 20.746 54.502 0 75.248-54.502 20.746-75.248 0zm62.707-62.706c-13.83-13.83-36.334-13.831-50.165 0s-13.83 36.335 0 50.165 36.334 13.831 50.165 0 13.83-36.335 0-50.165z" fill="#24d3b5"/><path d="m357.565 249.421c8.146 20.81 2.71 45.755-16.309 61.048-19.779 15.904-48.609 15.37-67.845-1.186-17.256-14.853-22.471-37.949-15.646-57.785 2.11-6.134 10.017-7.827 14.603-3.24l.008.008c2.427 2.427 3.162 6.012 2.069 9.266-4.635 13.788-.578 29.878 12.17 39.632 12.676 9.699 30.708 9.562 43.255-.304 12.88-10.128 16.633-26.817 11.26-40.769-1.289-3.347-.619-7.127 1.918-9.664 4.506-4.507 12.193-2.941 14.517 2.994z" fill="#a1ffbc"/><path d="m353.845 337.061c-2.762 0-5-2.238-5-5s2.238-5 5-5c7.287 0 13.216-5.929 13.216-13.216 0-2.762 2.238-5 5-5s5 2.238 5 5c0 12.801-10.415 23.216-23.216 23.216zm45.986-18.663c0-2.762-2.238-5-5-5s-5 2.238-5 5c0 17.332-14.101 31.433-31.433 31.433-2.762 0-5 2.238-5 5s2.238 5 5 5c22.846 0 41.433-18.587 41.433-41.433zm19.737-1.164c-2.762 0-5 2.238-5 5 0 28.857-23.477 52.334-52.334 52.334-2.762 0-5 2.238-5 5s2.238 5 5 5c34.371 0 62.334-27.963 62.334-62.334 0-2.761-2.238-5-5-5z" fill="#fff"/></g></svg>