<svg id="Capa_1" enable-background="new 0 0 512 512" height="512" viewBox="0 0 512 512" width="512" xmlns="http://www.w3.org/2000/svg"><g><path d="m1.356 282.507c-.974-9.468-1.432-19.089-1.345-28.834 1.246-140.282 116.28-253.982 256.567-253.672 141.119.312 255.422 114.807 255.422 255.999v.363c-.027 19.559-16.051 35.333-35.61 35.333h-464.916c-5.236 0-9.582-3.981-10.118-9.189z" fill="#19305c"/><path d="m344.791 71.297h-86.95c-8.284 0-15-6.716-15-15 0-8.284 6.716-15 15-15h86.95c8.284 0 15 6.716 15 15 0 8.284-6.716 15-15 15zm40.595 105.735c0-8.284-6.716-15-15-15h-63.709c-8.284 0-15 6.716-15 15 0 8.284 6.716 15 15 15h63.709c8.285-.001 15-6.716 15-15zm49.066-63.786c0-8.284-6.716-15-15-15h-44.988c-8.284 0-15 6.716-15 15 0 8.284 6.716 15 15 15h44.988c8.284 0 15-6.715 15-15zm-242.643-58.246c0-8.284-6.716-15-15-15h-14.607c-8.284 0-15 6.716-15 15 0 8.284 6.716 15 15 15h14.607c8.284 0 15-6.716 15-15zm71.165 43.744h-115.91c-8.284 0-15 6.716-15 15 0 8.192-6.641 14.833-14.833 14.833h-40.771c-8.077 0-15.027 6.207-15.407 14.275-.406 8.614 6.458 15.725 14.983 15.725h86.985c8.284 0 15-6.716 15-15 0-8.192 6.641-14.833 14.833-14.833h70.119c8.284 0 15-6.716 15-15 .001-8.284-6.714-15-14.999-15z" fill="#232e7a"/><path d="m194.817 320c46.394-65.272 122.626-107.855 208.804-107.855 38.43 0 74.882 8.468 107.592 23.64.521 6.669.787 13.411.787 20.215 0 19.038-2.078 37.591-6.02 55.444-1.102 4.989-5.501 8.556-10.611 8.556z" fill="#2b3894"/><path d="m120.318 102.904c-3.962 2.482-7.31 5.83-9.792 9.792-.459.733-1.528.733-1.987 0-2.482-3.962-5.83-7.31-9.792-9.792-.733-.459-.733-1.527 0-1.987 3.962-2.482 7.31-5.831 9.792-9.792.459-.733 1.527-.733 1.987 0 2.482 3.962 5.83 7.31 9.792 9.792.733.46.733 1.528 0 1.987zm336.255 61.798c-3.962-2.482-7.31-5.83-9.792-9.792-.459-.733-1.528-.733-1.987 0-2.482 3.962-5.83 7.31-9.792 9.792-.733.459-.733 1.528 0 1.987 3.962 2.482 7.31 5.83 9.792 9.792.459.733 1.528.733 1.987 0 2.482-3.962 5.83-7.31 9.792-9.792.733-.459.733-1.527 0-1.987z" fill="#3d4ec6"/><path d="m266.786 47.237c-3.962 2.482-7.31 5.83-9.792 9.792-.459.733-1.527.733-1.987 0-2.482-3.962-5.83-7.31-9.792-9.792-.733-.459-.733-1.527 0-1.987 3.962-2.482 7.31-5.83 9.792-9.792.459-.733 1.527-.733 1.987 0 2.482 3.962 5.83 7.31 9.792 9.792.733.46.733 1.528 0 1.987z" fill="#35e298"/><path d="m458.148 368.149h-419.96c-7.721 0-14.7-4.606-17.732-11.707-9.975-23.361-16.575-48.508-19.19-74.826 59.479-18.871 97.177-76.878 111.173-127.255h135.122c49.439 111.711 141.81 146.225 258.625 156.141-2.197 10.132-4.994 20.04-8.351 29.686-5.855 16.818-21.88 27.961-39.687 27.961z" fill="#865cb2"/><path d="m20.456 356.441c-9.975-23.361-16.575-48.507-19.19-74.826 59.479-18.871 97.177-76.878 111.173-127.255l39.221 4.021c-8.857 73.844-48.663 163.139-126.423 204.771-2.02-1.83-3.667-4.102-4.781-6.711zm322.482-48.46c1.23-2.472.224-5.474-2.249-6.704-33.992-16.917-77.636-62.805-97.289-102.29-1.23-2.473-4.231-3.477-6.704-2.249-2.472 1.23-3.479 4.232-2.248 6.704 20.477 41.142 66.138 89.046 101.786 106.788.716.355 1.476.524 2.224.524 1.837.001 3.606-1.016 4.48-2.773zm-204.304 39.163c-1.052 0-2.114-.331-3.017-1.016-2.2-1.669-2.632-4.805-.963-7.005 22.941-30.256 41.663-90.753 41.734-134.858.004-2.759 2.242-4.992 5-4.992h.008c2.761.005 4.996 2.247 4.992 5.008-.074 45.955-19.708 109.155-43.766 140.884-.983 1.297-2.476 1.979-3.988 1.979zm144.084 16.768c-1.185 0-2.374-.419-3.328-1.27-29.706-26.518-61.115-84.769-70.017-129.852-.535-2.709 1.228-5.339 3.937-5.874 2.71-.539 5.339 1.228 5.874 3.937 8.543 43.27 38.539 99.043 66.866 124.328 2.06 1.839 2.239 5 .4 7.061-.988 1.107-2.357 1.67-3.732 1.67z" fill="#754ca0"/><path d="m499.149 336.31c-2.263 7.723-7.682 21.456-7.683 21.458-39.279 90.935-130.112 154.232-235.466 154.232-105.711 0-196.456-64.073-235.52-155.501h.004c-.087-.198-.173-.396-.257-.594 27.397-11.898 51.175-30.479 69.318-53.648.451-1.323.877-2.657 1.279-4.002l29.794.575 29.794-.575c.402 1.345.828 2.679 1.279 4.002 4.109 5.247 8.507 10.259 13.17 15.01 15.291 15.582 36.352 24.092 58.18 23.691.134-.002.268-.005.402-.007 8.479-.154 16.888-1.671 24.875-4.522 34.698-12.384 65.634-33.155 90.163-60.047l35.418 2.702 35.418-2.702c24.452 26.806 55.269 47.531 89.832 59.928z" fill="#a88ac8"/><path d="m499.149 336.31c-2.263 7.723-7.682 21.456-7.683 21.458-12.58 29.123-30.447 55.411-52.386 77.694-74.178 75.339-202.445 17.215-193.369-88.122.563-6.529 1.461-10.501 2.608-10.91 34.698-12.384 65.634-33.155 90.163-60.047l35.418 2.702 35.418-2.702c24.451 26.805 55.268 47.53 89.831 59.927z" fill="#b9a1d3"/><path d="m228.681 387.768c0 5.615-8.667 10.167-19.358 10.167s-19.358-4.552-19.358-10.167 8.667-10.168 19.358-10.168c10.691.001 19.358 4.553 19.358 10.168zm171.954 47.103c0 4.418-6.82 8-15.233 8s-15.232-3.582-15.232-8c0-4.419 6.82-8.001 15.232-8.001 8.413.001 15.233 3.583 15.233 8.001zm-312.413-54.48c0 3.411-5.265 6.176-11.759 6.176s-11.759-2.765-11.759-6.176 5.265-6.176 11.759-6.176 11.759 2.765 11.759 6.176zm371.501-5.783c0 4.418-6.82 8-15.233 8s-15.232-3.582-15.232-8c0-4.419 6.82-8.001 15.232-8.001 8.414 0 15.233 3.582 15.233 8.001z" fill="#9773bd"/><path d="m173.872 415.874c0 8.018-15.775 14.518-35.234 14.518s-35.234-6.5-35.234-14.518 15.775-14.518 35.234-14.518c19.459-.001 35.234 6.499 35.234 14.518zm91.936 24.908c-26.545 0-48.065 8.867-48.065 19.805s21.519 19.804 48.065 19.804 48.065-8.867 48.065-19.804c-.001-10.938-21.52-19.805-48.065-19.805zm90.915-60.391c-20.517 0-37.149 6.853-37.149 15.307s16.632 15.307 37.149 15.307 37.149-6.853 37.149-15.307-16.632-15.307-37.149-15.307z" fill="#754ca0"/><path d="m130.298 415.874c0 6.056 8.999 11.245 21.787 13.422-4.144.706-8.685 1.095-13.447 1.095-19.459 0-35.234-6.5-35.234-14.518s15.775-14.518 35.234-14.518c4.762 0 9.303.39 13.447 1.095-12.788 2.178-21.787 7.368-21.787 13.424zm216.17-20.176c0-6.5 9.832-12.053 23.702-14.273-4.17-.667-8.704-1.034-13.447-1.034-20.517 0-37.149 6.853-37.149 15.307s16.632 15.307 37.149 15.307c4.742 0 9.277-.366 13.447-1.034-13.87-2.221-23.702-7.774-23.702-14.273zm-67.213 45.87c-4.267-.511-8.779-.786-13.447-.786-26.545 0-48.065 8.867-48.065 19.805s21.519 19.804 48.065 19.804c4.668 0 9.18-.274 13.447-.786-20.001-2.397-34.618-10.004-34.618-19.019 0-9.014 14.617-16.621 34.618-19.018z" fill="#644189"/><path d="m397.643 128.5c0 24.853-20.147 45-45 45s-45-20.147-45-45 20.147-45 45-45 45 20.147 45 45z" fill="#ffcd71"/><path d="m397.643 128.5c0 8.422-2.314 16.303-6.339 23.043-6.74 4.026-14.621 6.34-23.043 6.34-24.853 0-45-20.147-45-45 0-8.422 2.314-16.303 6.34-23.043 6.74-4.026 14.621-6.34 23.043-6.34 24.852 0 44.999 20.147 44.999 45z" fill="#fff68e"/><path d="m362.702 97.809c0 3.196-5.411 5.787-12.085 5.787s-12.085-2.591-12.085-5.787 5.411-5.787 12.085-5.787c6.674-.001 12.085 2.59 12.085 5.787zm-1.472 41.675c-4.742 0-8.587 1.841-8.587 4.112s3.845 4.112 8.587 4.112c4.743 0 8.587-1.841 8.587-4.112s-3.845-4.112-8.587-4.112zm-22.698-28.596c-4.743 0-8.587 1.841-8.587 4.112s3.845 4.112 8.587 4.112 8.587-1.841 8.587-4.112-3.845-4.112-8.587-4.112zm35.958 3.534c-8.118 0-14.699 3.151-14.699 7.039 0 3.887 6.581 7.039 14.699 7.039s14.699-3.151 14.699-7.039c-.001-3.887-6.581-7.039-14.699-7.039z" fill="#ffcd71"/><path d="m232.438 95.539c-5.314 3.329-9.804 7.819-13.133 13.133-.616.983-2.049.983-2.665 0-3.329-5.314-7.819-9.804-13.133-13.133-.983-.616-.983-2.049 0-2.665 5.314-3.329 9.804-7.819 13.133-13.133.616-.983 2.049-.983 2.665 0 3.329 5.314 7.819 9.804 13.133 13.133.983.616.983 2.049 0 2.665z" fill="#ffc14f"/><path d="m256.102 167.931h-148.161c-5.523 0-10-4.477-10-10 0-5.523 4.477-10 10-10h148.161c5.523 0 10 4.477 10 10 0 5.523-4.477 10-10 10z" fill="#644189"/><path d="m150.257 305.754h-58.778c-4.142 0-7.5-3.358-7.5-7.5 0-4.142 3.358-7.5 7.5-7.5h58.778c4.142 0 7.5 3.358 7.5 7.5 0 4.143-3.358 7.5-7.5 7.5z" fill="#b9a1d3"/><path d="m413.074 283.882h-77.088c-4.142 0-7.5-3.358-7.5-7.5 0-4.142 3.358-7.5 7.5-7.5h77.088c4.142 0 7.5 3.358 7.5 7.5 0 4.142-3.357 7.5-7.5 7.5z" fill="#d3c4e3"/></g></svg>