<svg id="Capa_1" enable-background="new 0 0 512 512" height="512" viewBox="0 0 512 512" width="512" xmlns="http://www.w3.org/2000/svg"><g><path d="m511.985 258.851c-1.478 135.467-108.176 245.685-242.223 252.785-5.67.3-11.095-2.432-14.136-7.227-45.389-71.585-125.325-119.102-216.36-119.102-.014 0-.028 0-.042 0-2.631 0-5.048-1.406-6.341-3.698-20.937-37.109-32.883-79.964-32.883-125.609 0-141.384 114.615-256 255.999-256 141.532 0 257.53 117.328 255.986 258.851z" fill="#ffb52d"/><path d="m484.319 244.34c0 119.658-97.002 216.66-216.66 216.66s-216.659-97.002-216.659-216.66 97.002-216.66 216.66-216.66 216.659 97.003 216.659 216.66z" fill="#ffc14f"/><path d="m349.952 56.744-11 19.053c-1.381 2.391-4.439 3.211-6.83 1.83-2.391-1.381-3.211-4.439-1.83-6.83l11-19.053c1.381-2.391 4.439-3.211 6.83-1.83 2.391 1.38 3.211 4.438 1.83 6.83zm-14.151-25.491c-2.391-1.381-5.449-.561-6.83 1.83l-21 36.373c-1.381 2.391-.561 5.449 1.83 6.83 2.391 1.381 5.449.561 6.83-1.83l21-36.373c1.381-2.391.562-5.449-1.83-6.83zm44.874 74.081c2.391 1.381 5.449.561 6.83-1.83l11-19.053c1.381-2.391.561-5.449-1.83-6.83-2.391-1.381-5.449-.561-6.83 1.83l-11 19.053c-1.381 2.392-.562 5.45 1.83 6.83zm12.32 18.661c2.391 1.381 5.449.561 6.83-1.83l21-36.373c1.381-2.391.561-5.449-1.83-6.83-2.391-1.381-5.449-.561-6.83 1.83l-21 36.373c-1.381 2.391-.561 5.449 1.83 6.83z" fill="#fffac1"/><path d="m395.09 34.464-80 138.564c-1.381 2.391-4.439 3.211-6.83 1.83s-3.211-4.439-1.83-6.83l80-138.564c1.381-2.392 4.439-3.211 6.83-1.83 2.392 1.38 3.211 4.438 1.83 6.83z" fill="#232e7a"/><path d="m372.337 155.586-5 8.661c-2.761 4.783-8.877 6.421-13.66 3.66l-62.354-36c-4.783-2.762-6.422-8.877-3.66-13.66l5-8.661c2.761-4.783 8.877-6.421 13.66-3.66l62.354 36c4.783 2.762 6.422 8.878 3.66 13.66zm33.244-109.292c-5.523 9.566-17.755 12.843-27.321 7.321s-12.843-17.755-7.321-27.321 17.755-12.843 27.321-7.321 12.844 17.755 7.321 27.321zm-42.82 19.606 12.361 7.136c2.391 1.381 5.449.561 6.83-1.83 1.381-2.391.561-5.449-1.83-6.83l-12.361-7.137c-2.391-1.381-5.449-.561-6.83 1.83-1.381 2.393-.561 5.451 1.83 6.831zm-10.788 8.83c1.381-2.391 4.439-3.211 6.83-1.83l12.361 7.136c2.391 1.381 3.211 4.439 1.83 6.83-1.381 2.391-4.439 3.211-6.83 1.83l-12.361-7.137c-2.392-1.38-3.211-4.438-1.83-6.829zm-8.959 15.659c1.381-2.391 4.439-3.211 6.83-1.83l12.361 7.136c2.391 1.381 3.211 4.439 1.83 6.83-1.381 2.391-4.439 3.211-6.83 1.83l-12.361-7.136c-2.391-1.38-3.211-4.438-1.83-6.83z" fill="#2b3894"/><path d="m402.617 34.66c0 5.828-3.696 10.553-8.255 10.553s-8.255-4.725-8.255-10.553 3.696-10.553 8.255-10.553 8.255 4.724 8.255 10.553z" fill="#3d4ec6"/><path d="m437.78 222.237-167.055 289.346c-4.873.277-9.782.417-14.725.417-7.108 0-14.148-.29-21.109-.858-1.499-.122-1.08-2.292-2.572-2.44-4.645-.461-9.253-1.046-13.821-1.752-1.055-.163-4.022 1.702-5.072 1.526-60.242-10.084-113.355-41.206-151.529-85.556-.65-.755.255-3.136-.387-3.899-3.09-3.675-6.078-7.438-8.96-11.285-.565-.755-2.677.109-3.234-.652-6.196-8.462-11.885-17.319-17.023-26.525l169.928-294.322c4.142-7.174 13.316-9.633 20.49-5.49l209.578 121c7.175 4.142 9.633 13.316 5.491 20.49z" fill="#3d4ec6"/><path d="m253.888 98.747c-7.174-4.143-16.348-1.684-20.49 5.49l-174.959 303.037c-1.853 3.21-6.407 3.496-8.608.513-6.396-8.674-12.259-17.766-17.538-27.227l169.928-294.323c4.142-7.174 13.316-9.633 20.49-5.49z" fill="#3342ae"/><path d="m396.799 233.218-114.75 198.753c-4.142 7.175-13.316 9.633-20.49 5.491l-157.617-91c-7.174-4.142-9.633-13.316-5.49-20.491l114.75-198.753c4.142-7.174 13.316-9.632 20.49-5.49l157.617 91c7.174 4.142 9.632 13.315 5.49 20.49z" fill="#20b7a1"/><path d="m396.799 233.218-114.75 198.753c-4.142 7.175-13.316 9.633-20.49 5.491l-127.139-73.404c-7.174-4.143-9.633-13.316-5.49-20.491l114.75-198.753c4.142-7.174 13.316-9.632 20.49-5.49l127.139 73.404c7.174 4.142 9.632 13.315 5.49 20.49z" fill="#35e298"/><path d="m260.245 272.735-7.5 12.991c-2.071 3.587-6.658 4.816-10.245 2.745s-4.816-6.658-2.745-10.245l7.5-12.991c2.071-3.587 6.658-4.816 10.245-2.745 3.587 2.072 4.816 6.658 2.745 10.245zm-19.395-31.405c-3.587-2.071-8.174-.842-10.245 2.745l-17.5 30.311c-2.071 3.587-.842 8.174 2.745 10.245s8.174.842 10.245-2.745l17.5-30.311c2.071-3.587.842-8.174-2.745-10.245zm-58.057 15.556 17.5-30.311c2.071-3.587.842-8.174-2.745-10.245s-8.174-.842-10.245 2.745l-17.5 30.311c-2.071 3.587-.842 8.174 2.745 10.245 3.587 2.072 8.174.843 10.245-2.745zm144.659 34.444c-3.587-2.071-8.174-.842-10.245 2.745l-17.5 30.311c-2.071 3.587-.842 8.174 2.745 10.245s8.174.842 10.245-2.745l17.5-30.311c2.071-3.587.842-8.174-2.745-10.245zm-58.056 15.556 17.5-30.311c2.071-3.587.842-8.174-2.745-10.245s-8.174-.842-10.245 2.745l-17.5 30.311c-2.071 3.587-.842 8.174 2.745 10.245 3.587 2.072 8.174.843 10.245-2.745zm-40.197-95.376c-3.587-2.071-8.174-.842-10.245 2.745l-37.5 64.952c-2.071 3.587-.842 8.174 2.745 10.245s8.174.842 10.245-2.745l37.5-64.952c2.071-3.588.842-8.174-2.745-10.245zm86.602 50c-3.587-2.071-8.174-.842-10.245 2.745l-37.5 64.952c-2.071 3.587-.842 8.174 2.745 10.245s8.174.842 10.245-2.745l37.5-64.952c2.072-3.588.843-8.174-2.745-10.245z" fill="#199a8e"/><path d="m234.182 150.878c2.071-3.587 6.658-4.816 10.245-2.746 3.587 2.071 4.816 6.658 2.745 10.245s-6.658 4.816-10.245 2.745c-3.587-2.07-4.816-6.657-2.745-10.244zm135.569 70.188c-3.587-2.071-8.174-.842-10.245 2.746-2.071 3.587-.842 8.174 2.745 10.245 3.587 2.071 8.174.842 10.245-2.745 2.071-3.588.842-8.175-2.745-10.246zm-21.65-12.5c-3.587-2.071-8.174-.842-10.245 2.746-2.071 3.587-.842 8.174 2.745 10.245 3.587 2.071 8.174.842 10.245-2.745 2.071-3.588.842-8.175-2.745-10.246zm-36.785 15.713-47.632-27.5c-3.587-2.071-8.174-.842-10.245 2.745s-.842 8.174 2.745 10.246l47.632 27.5c3.587 2.071 8.174.842 10.245-2.746 2.071-3.587.842-8.174-2.745-10.245zm-66.634 117.413-49.363-28.5c-3.587-2.071-8.174-.842-10.245 2.745-2.071 3.587-.842 8.174 2.745 10.245l49.363 28.5c3.587 2.071 8.174.842 10.245-2.745 2.071-3.586.842-8.173-2.745-10.245zm-24.353 20.581-30.657-17.7c-3.587-2.071-8.174-.842-10.245 2.745s-.842 8.174 2.745 10.245l30.657 17.7c3.587 2.071 8.174.842 10.245-2.745s.842-8.174-2.745-10.245z" fill="#a1ffbc"/><path d="m395.059 206.232-157.617-91c-10.745-6.203-24.532-2.509-30.736 8.235l-114.75 198.754c-6.203 10.745-2.509 24.532 8.236 30.736l157.617 91c10.744 6.203 24.532 2.509 30.736-8.236l114.75-198.753c6.202-10.744 2.508-24.532-8.236-30.736zm-4.755 23.236-114.75 198.753c-2.068 3.582-6.664 4.813-10.245 2.745l-157.617-91c-3.582-2.067-4.813-6.663-2.745-10.245l114.75-198.753c2.068-3.582 6.664-4.813 10.245-2.745l157.617 91c3.581 2.068 4.813 6.663 2.745 10.245zm-204.576 243.511c-5.993 10.381-15.654 17.324-26.401 20.138-18.514-7.556-35.945-17.217-51.995-28.686-3.517-11.127-2.529-23.637 3.766-34.54 11.898-20.608 38.251-27.669 58.859-15.771 20.608 11.899 27.669 38.251 15.771 58.859z" fill="#232e7a"/><path d="m108.894 414.666-5 8.66c-2.761 4.783-8.877 6.422-13.66 3.66-4.783-2.761-6.422-8.877-3.66-13.66l5-8.66c2.761-4.783 8.877-6.422 13.66-3.66 4.783 2.761 6.422 8.877 3.66 13.66zm-44.398-11.882c-5.261-3.038-11.989-1.235-15.026 4.026-.052.091-.103.183-.153.274 3.988 5.446 8.185 10.728 12.581 15.835 2.697-.737 5.116-2.497 6.625-5.109 3.036-5.261 1.234-11.989-4.027-15.026zm17-29.445c-5.261-3.037-11.989-1.234-15.026 4.026-3.038 5.261-1.235 11.989 4.026 15.026 5.261 3.038 11.989 1.235 15.026-4.026s1.235-11.988-4.026-15.026zm131.502 92.606c-4.783-2.761-10.899-1.123-13.66 3.66l-5 8.661c-2.761 4.783-1.123 10.898 3.66 13.66 4.783 2.761 10.899 1.123 13.66-3.66l5-8.661c2.762-4.782 1.123-10.898-3.66-13.66zm33.909 2.894c-5.261-3.037-11.989-1.234-15.026 4.026-3.038 5.261-1.235 11.989 4.026 15.026s11.989 1.235 15.026-4.026 1.235-11.988-4.026-15.026zm-17 29.445c-5.261-3.038-11.989-1.235-15.026 4.026-1.121 1.941-1.582 4.083-1.454 6.165 7.061 1.182 14.221 2.075 21.465 2.667 1.536-4.82-.425-10.225-4.985-12.858z" fill="#717ed6"/><path d="m169.868 463.823c-6.841 11.85-21.994 15.91-33.843 9.068s-15.91-21.994-9.068-33.843 21.994-15.91 33.843-9.068c11.85 6.841 15.91 21.994 9.068 33.843z" fill="#ff3c7d"/><path d="m162.616 471.742c-4.069-.068-8.179-1.141-11.953-3.32-11.85-6.841-15.91-21.994-9.068-33.843 1.874-3.245 4.37-5.906 7.252-7.919 4.069.068 8.179 1.141 11.953 3.32 11.85 6.841 15.91 21.994 9.068 33.843-1.873 3.245-4.37 5.906-7.252 7.919z" fill="#ff50b5"/></g></svg>