<svg width="609" height="614" xmlns="http://www.w3.org/2000/svg" xmlns:xlink="http://www.w3.org/1999/xlink" xml:space="preserve" overflow="hidden"><defs><filter id="fx0" x="-10%" y="-10%" width="120%" height="120%" filterUnits="userSpaceOnUse" primitiveUnits="userSpaceOnUse"><feComponentTransfer color-interpolation-filters="sRGB"><feFuncR type="discrete" tableValues="1.000000 1.000000"/><feFuncG type="discrete" tableValues="1.000000 1.000000"/><feFuncB type="discrete" tableValues="1.000000 1.000000"/><feFuncA type="linear" slope="1.000000" intercept="0.000000"/></feComponentTransfer><feGaussianBlur stdDeviation="7.534350 7.534350"/></filter><filter id="fx1" x="-10%" y="-10%" width="120%" height="120%" filterUnits="userSpaceOnUse" primitiveUnits="userSpaceOnUse"><feComponentTransfer color-interpolation-filters="sRGB"><feFuncR type="discrete" tableValues="0.000000 0.000000"/><feFuncG type="discrete" tableValues="0.000000 0.000000"/><feFuncB type="discrete" tableValues="0.000000 0.000000"/><feFuncA type="linear" slope="0.400000" intercept="0.000000"/></feComponentTransfer><feGaussianBlur stdDeviation="6.111111 6.111111"/></filter><filter id="fx2" x="-10%" y="-10%" width="120%" height="120%" filterUnits="userSpaceOnUse" primitiveUnits="userSpaceOnUse"><feComponentTransfer color-interpolation-filters="sRGB"><feFuncR type="discrete" tableValues="1.000000 1.000000"/><feFuncG type="discrete" tableValues="1.000000 1.000000"/><feFuncB type="discrete" tableValues="1.000000 1.000000"/><feFuncA type="linear" slope="1.000000" intercept="0.000000"/></feComponentTransfer><feGaussianBlur stdDeviation="14.675732 14.651752"/></filter><clipPath id="clip3"><rect x="-224" y="9" width="609" height="614"/></clipPath><clipPath id="clip4"><rect x="3.7797" y="0.771896" width="101.441" height="107.206"/></clipPath><clipPath id="clip5"><rect x="0" y="0" width="109" height="109"/></clipPath><clipPath id="clip6"><rect x="23" y="23" width="62" height="63"/></clipPath><clipPath id="clip7"><rect x="23" y="23" width="62" height="63"/></clipPath><clipPath id="clip8"><rect x="23" y="23" width="62" height="63"/></clipPath><clipPath id="clip9"><rect x="23" y="23" width="63" height="63"/></clipPath><clipPath id="clip10"><rect x="23" y="23" width="63" height="63"/></clipPath><clipPath id="clip11"><rect x="23" y="23" width="63" height="63"/></clipPath><clipPath id="clip12"><rect x="7.43216" y="1.4166" width="148.135" height="159.667"/></clipPath><clipPath id="clip13"><rect x="0" y="0" width="163" height="163"/></clipPath><clipPath id="clip14"><rect x="19" y="19" width="124" height="124"/></clipPath><clipPath id="clip15"><rect x="19" y="19" width="124" height="124"/></clipPath><clipPath id="clip16"><rect x="19" y="19" width="124" height="124"/></clipPath><clipPath id="clip17"><rect x="17" y="239" width="124" height="124"/></clipPath><clipPath id="clip18"><rect x="17" y="239" width="124" height="124"/></clipPath><clipPath id="clip19"><rect x="17" y="239" width="124" height="124"/></clipPath><clipPath id="clip20"><rect x="1.34756" y="0.254284" width="108.305" height="110.401"/></clipPath><clipPath id="clip21"><rect x="0" y="0" width="111" height="111"/></clipPath><clipPath id="clip22"><rect x="44" y="44" width="23" height="23"/></clipPath><clipPath id="clip23"><rect x="44" y="44" width="23" height="23"/></clipPath><clipPath id="clip24"><rect x="44" y="44" width="23" height="23"/></clipPath><clipPath id="clip25"><rect x="18" y="238" width="124" height="125"/></clipPath><clipPath id="clip26"><rect x="18" y="238" width="124" height="125"/></clipPath><clipPath id="clip27"><rect x="18" y="238" width="124" height="125"/></clipPath></defs><g clip-path="url(#clip3)" transform="translate(224 -9)"><g clip-path="url(#clip4)" filter="url(#fx0)" transform="matrix(2 0 0 2 -29 206)"><g clip-path="url(#clip5)"><g clip-path="url(#clip6)"><g clip-path="url(#clip7)"><g clip-path="url(#clip8)"><path d="M77.6728 75.4053 30.8271 75.4053C28.4247 75.4053 26.3827 73.4834 26.3827 70.9609L26.3827 67.8379 82.1172 67.8379 82.1172 70.9609C82.1172 73.4834 80.0752 75.4053 77.6728 75.4053ZM26.3827 66.0361 26.3827 41.8926C26.3827 39.4902 28.4247 37.4482 30.8271 37.4482L38.2744 37.4482 38.6347 37.9287 34.3105 38.6494C32.9892 38.7695 32.0283 39.8506 32.0283 41.1719L32.0283 47.7783C32.0283 49.0996 32.9892 50.0605 34.3105 50.3008L38.6347 50.9014 35.9921 54.3848C35.1513 55.4658 35.2714 56.9072 36.2324 57.748L40.9169 62.4326C41.8779 63.3935 43.1992 63.5137 44.2802 62.6728L47.7636 60.0303 48.4843 64.4746C48.4843 65.0752 48.8447 65.6758 49.4453 66.0361L26.3827 66.0361ZM70.3457 37.4482 77.5527 37.4482C80.0752 37.4482 82.1172 39.4902 82.1172 41.8926L82.1172 66.0361 59.1748 66.0361C59.6552 65.6758 60.0156 65.0752 60.1357 64.3545L60.7363 60.0303 64.2197 62.6728C65.3007 63.3935 66.7421 63.2734 67.583 62.4326L72.2675 57.748C73.2285 56.7871 73.3486 55.3457 72.5078 54.3848L69.8652 50.9014 74.1894 50.3008C75.5107 50.0605 76.4716 48.9795 76.4716 47.7783L76.4716 41.1719C76.4716 39.8506 75.5107 38.7695 74.1894 38.6494L69.8652 37.9287 70.3457 37.4482Z" fill="#BFBFBF" fill-rule="evenodd" fill-opacity="1"/><path d="M58.2138 80.4502 50.2861 80.4502C49.8056 80.4502 49.4453 79.9697 49.4453 79.4893L49.4453 74.5645C49.4453 74.084 49.8056 73.6035 50.2861 73.6035L58.2138 73.6035C58.6943 73.6035 59.0546 74.084 59.0546 74.5645L59.0546 79.4893C59.0546 79.9697 58.6943 80.4502 58.2138 80.4502Z" fill="#BFBFBF" fill-rule="evenodd" fill-opacity="1"/><path d="M64.9404 85.375 43.5595 85.375C43.079 85.375 42.7187 85.0146 42.7187 84.4141L42.7187 81.4111C42.7187 79.8496 43.9199 78.6484 45.4814 78.6484L63.0185 78.6484C64.58 78.6484 65.7812 79.8496 65.7812 81.4111L65.7812 84.4141C65.7812 85.0146 65.4209 85.375 64.9404 85.375ZM57.6132 64.9551 51.0068 64.9551C50.5263 64.9551 50.166 64.5947 50.0458 64.1143L49.205 58.2285C48.8447 57.9883 48.4843 57.8682 48.124 57.748L43.1992 61.3516C42.9589 61.5918 42.3583 61.5918 42.1181 61.2314L37.4335 56.5469C37.0732 56.3066 37.0732 55.8262 37.3134 55.4658L40.9169 50.541C40.7968 50.1806 40.6767 49.8203 40.5566 49.4599L34.5507 48.6191C34.0703 48.6191 33.7099 48.1387 33.7099 47.7783L33.7099 41.1719C33.7099 40.6914 34.0703 40.331 34.5507 40.331L40.5566 39.3701C40.6767 39.0097 40.9169 38.6494 41.0371 38.289L37.3134 33.4843C37.0732 33.124 37.1933 32.6435 37.4335 32.2832L42.1181 27.5986C42.4785 27.2383 42.9589 27.2383 43.3193 27.4785L48.124 31.082C48.4843 30.9619 48.8447 30.8418 49.205 30.7217L50.166 24.5957C50.166 24.2353 50.6464 23.875 51.0068 23.875L57.6132 23.875C58.0937 23.875 58.4541 24.2353 58.4541 24.5957L59.2949 30.7217C59.6552 30.8418 60.0156 30.9619 60.3759 31.082L65.3007 27.4785C65.541 27.2383 66.1416 27.2383 66.3818 27.5986L71.0664 32.2832C71.4267 32.6435 71.4267 33.124 71.1865 33.4843L67.583 38.289C67.7031 38.6494 67.9433 39.0097 67.9433 39.3701L73.9492 40.331C74.4296 40.331 74.79 40.6914 74.79 41.1719L74.79 47.7783C74.79 48.1387 74.4296 48.499 73.9492 48.6191L67.9433 49.4599C67.8232 49.8203 67.7031 50.1806 67.583 50.541L71.1865 55.3457C71.4267 55.706 71.4267 56.1865 71.0664 56.5469L66.3818 61.2314C66.1416 61.4717 65.541 61.5918 65.3007 61.3516L60.3759 57.6279C60.0156 57.8682 59.6552 57.9883 59.2949 58.1084L58.4541 64.1143C58.4541 64.5947 57.9736 64.9551 57.6132 64.9551ZM54.25 54.8652C48.4843 54.8652 43.7998 50.1806 43.7998 44.415 43.7998 38.6494 48.4843 33.9648 54.25 33.9648 60.0156 33.9648 64.7002 38.6494 64.7002 44.415 64.7002 50.1806 60.0156 54.8652 54.25 54.8652ZM54.25 35.6465C49.4453 35.6465 45.4814 39.6103 45.4814 44.415 45.4814 49.2197 49.4453 53.1836 54.25 53.1836 59.0546 53.1836 62.8984 49.2197 62.8984 44.415 62.8984 39.6103 59.0546 35.6465 54.25 35.6465ZM54.25 51.9824C50.0458 51.9824 46.6826 48.6191 46.6826 44.415 46.6826 40.2109 50.0458 36.8476 54.25 36.8476 58.4541 36.8476 61.8173 40.2109 61.8173 44.415 61.8173 48.6191 58.4541 51.9824 54.25 51.9824ZM54.25 38.5293C51.0068 38.5293 48.3642 41.292 48.3642 44.415 48.3642 47.6582 51.0068 50.3008 54.25 50.3008 57.4931 50.3008 60.0156 47.6582 60.0156 44.415 60.0156 41.292 57.4931 38.5293 54.25 38.5293Z" fill="#BFBFBF" fill-rule="evenodd" fill-opacity="1"/></g></g></g><g clip-path="url(#clip9)"><g clip-path="url(#clip10)"><g clip-path="url(#clip11)"><path d="M54.1729 51.5303 7.32715 51.5303C4.92481 51.5303 2.88281 49.6084 2.88281 47.086L2.88281 43.9629 58.6172 43.9629 58.6172 47.086C58.6172 49.6084 56.5752 51.5303 54.1729 51.5303ZM2.88281 42.1612 2.88281 18.0176C2.88281 15.6152 4.92481 13.5732 7.32715 13.5732L14.7744 13.5732 15.1348 14.0537 10.8106 14.7744C9.48926 14.8945 8.52833 15.9756 8.52833 17.2969L8.52833 23.9033C8.52833 25.2246 9.48926 26.1856 10.8106 26.4258L15.1348 27.0264 12.4922 30.5098C11.6514 31.5908 11.7715 33.0322 12.7324 33.8731L17.417 38.5576C18.3779 39.5186 19.6992 39.6387 20.7803 38.7979L24.2637 36.1553 24.9844 40.5996C24.9844 41.2002 25.3447 41.8008 25.9453 42.1612L2.88281 42.1612ZM46.8457 13.5732 54.0528 13.5732C56.5752 13.5732 58.6172 15.6152 58.6172 18.0176L58.6172 42.1612 35.6748 42.1612C36.1553 41.8008 36.5156 41.2002 36.6358 40.4795L37.2363 36.1553 40.7197 38.7979C41.8008 39.5186 43.2422 39.3985 44.083 38.5576L48.7676 33.8731C49.7285 32.9121 49.8487 31.4707 49.0078 30.5098L46.3653 27.0264 50.6895 26.4258C52.0108 26.1856 52.9717 25.1045 52.9717 23.9033L52.9717 17.2969C52.9717 15.9756 52.0108 14.8945 50.6895 14.7744L46.3653 14.0537 46.8457 13.5732Z" fill="#F2F2F2" fill-rule="evenodd" fill-opacity="1" transform="matrix(1 0 0 1.00813 24 23.375)"/><path d="M34.7139 56.5752 26.7861 56.5752C26.3057 56.5752 25.9453 56.0948 25.9453 55.6143L25.9453 50.6895C25.9453 50.209 26.3057 49.7285 26.7861 49.7285L34.7139 49.7285C35.1944 49.7285 35.5547 50.209 35.5547 50.6895L35.5547 55.6143C35.5547 56.0948 35.1944 56.5752 34.7139 56.5752Z" fill="#F2F2F2" fill-rule="evenodd" fill-opacity="1" transform="matrix(1 0 0 1.00813 24 23.375)"/><path d="M41.4405 61.5 20.0596 61.5C19.5791 61.5 19.2188 61.1397 19.2188 60.5391L19.2188 57.5362C19.2188 55.9746 20.4199 54.7735 21.9815 54.7735L39.5186 54.7735C41.0801 54.7735 42.2813 55.9746 42.2813 57.5362L42.2813 60.5391C42.2813 61.1397 41.9209 61.5 41.4405 61.5ZM34.1133 41.0801 27.5069 41.0801C27.0264 41.0801 26.666 40.7197 26.5459 40.2393L25.7051 34.3535C25.3447 34.1133 24.9844 33.9932 24.624 33.8731L19.6992 37.4766C19.459 37.7168 18.8584 37.7168 18.6182 37.3565L13.9336 32.6719C13.5732 32.4317 13.5732 31.9512 13.8135 31.5908L17.417 26.666C17.2969 26.3057 17.1768 25.9453 17.0567 25.585L11.0508 24.7442C10.5703 24.7442 10.21 24.2637 10.21 23.9033L10.21 17.2969C10.21 16.8164 10.5703 16.4561 11.0508 16.4561L17.0567 15.4951C17.1768 15.1348 17.417 14.7744 17.5371 14.4141L13.8135 9.60938C13.5732 9.24903 13.6934 8.76856 13.9336 8.40821L18.6182 3.72363C18.9785 3.36328 19.459 3.36328 19.8193 3.60352L24.624 7.20704C24.9844 7.08692 25.3447 6.9668 25.7051 6.84668L26.666 0.720704C26.666 0.360352 27.1465 0 27.5069 0L34.1133 0C34.5938 0 34.9541 0.360352 34.9541 0.720704L35.7949 6.84668C36.1553 6.9668 36.5156 7.08692 36.876 7.20704L41.8008 3.60352C42.041 3.36328 42.6416 3.36328 42.8819 3.72363L47.5664 8.40821C47.9268 8.76856 47.9268 9.24903 47.6866 9.60938L44.083 14.4141C44.2031 14.7744 44.4434 15.1348 44.4434 15.4951L50.4492 16.4561C50.9297 16.4561 51.2901 16.8164 51.2901 17.2969L51.2901 23.9033C51.2901 24.2637 50.9297 24.624 50.4492 24.7442L44.4434 25.585C44.3233 25.9453 44.2031 26.3057 44.083 26.666L47.6866 31.4707C47.9268 31.8311 47.9268 32.3115 47.5664 32.6719L42.8819 37.3565C42.6416 37.5967 42.041 37.7168 41.8008 37.4766L36.876 33.7529C36.5156 33.9932 36.1553 34.1133 35.7949 34.2334L34.9541 40.2393C34.9541 40.7197 34.4737 41.0801 34.1133 41.0801ZM30.75 30.9903C24.9844 30.9903 20.2998 26.3057 20.2998 20.5401 20.2998 14.7744 24.9844 10.0898 30.75 10.0898 36.5156 10.0898 41.2002 14.7744 41.2002 20.5401 41.2002 26.3057 36.5156 30.9903 30.75 30.9903ZM30.75 11.7715C25.9453 11.7715 21.9815 15.7354 21.9815 20.5401 21.9815 25.3447 25.9453 29.3086 30.75 29.3086 35.5547 29.3086 39.3985 25.3447 39.3985 20.5401 39.3985 15.7354 35.5547 11.7715 30.75 11.7715ZM30.75 28.1074C26.5459 28.1074 23.1826 24.7442 23.1826 20.5401 23.1826 16.3359 26.5459 12.9727 30.75 12.9727 34.9541 12.9727 38.3174 16.3359 38.3174 20.5401 38.3174 24.7442 34.9541 28.1074 30.75 28.1074ZM30.75 14.6543C27.5069 14.6543 24.8643 17.417 24.8643 20.5401 24.8643 23.7832 27.5069 26.4258 30.75 26.4258 33.9932 26.4258 36.5156 23.7832 36.5156 20.5401 36.5156 17.417 33.9932 14.6543 30.75 14.6543Z" fill="#F2F2F2" fill-rule="evenodd" fill-opacity="1" transform="matrix(1 0 0 1.00813 24 23.375)"/></g></g></g></g></g><g clip-path="url(#clip12)" filter="url(#fx1)" transform="translate(-2 234)"><g clip-path="url(#clip13)"><g clip-path="url(#clip14)"><g clip-path="url(#clip15)"><g clip-path="url(#clip16)"><path d="M128.346 122.811 34.6542 122.811C29.8495 122.811 25.7655 118.967 25.7655 113.922L25.7655 107.676 137.234 107.676 137.234 113.922C137.234 118.967 133.15 122.811 128.346 122.811ZM25.7655 104.072 25.7655 55.7851C25.7655 50.9804 29.8495 46.8964 34.6542 46.8964L49.5487 46.8964 50.2694 47.8574 41.621 49.2988C38.9784 49.539 37.0565 51.7011 37.0565 54.3437L37.0565 67.5566C37.0565 70.1992 38.9784 72.1211 41.621 72.6015L50.2694 73.8027 44.9843 80.7695C43.3026 82.9316 43.5429 85.8144 45.4647 87.4961L54.8339 96.8652C56.7557 98.7871 59.3983 99.0273 61.5604 97.3457L68.5272 92.0605 69.9686 100.949C69.9686 102.15 70.6893 103.352 71.8905 104.072L25.7655 104.072ZM113.691 46.8964 128.105 46.8964C133.15 46.8964 137.234 50.9804 137.234 55.7851L137.234 104.072 91.3495 104.072C92.3105 103.352 93.0312 102.15 93.2714 100.709L94.4726 92.0605 101.439 97.3457C103.601 98.7871 106.484 98.5469 108.166 96.8652L117.535 87.4961C119.457 85.5742 119.697 82.6914 118.016 80.7695L112.73 73.8027 121.379 72.6015C124.021 72.1211 125.943 69.959 125.943 67.5566L125.943 54.3437C125.943 51.7011 124.021 49.539 121.379 49.2988L112.73 47.8574 113.691 46.8964Z" fill="#BFBFBF" fill-rule="evenodd" fill-opacity="1"/><path d="M89.4276 132.9 73.5722 132.9C72.6112 132.9 71.8905 131.939 71.8905 130.979L71.8905 121.129C71.8905 120.168 72.6112 119.207 73.5722 119.207L89.4276 119.207C90.3886 119.207 91.1093 120.168 91.1093 121.129L91.1093 130.979C91.1093 131.939 90.3886 132.9 89.4276 132.9Z" fill="#BFBFBF" fill-rule="evenodd" fill-opacity="1"/><path d="M102.881 142.75 60.119 142.75C59.1581 142.75 58.4374 142.029 58.4374 140.828L58.4374 134.822C58.4374 131.699 60.8397 129.297 63.9628 129.297L99.037 129.297C102.16 129.297 104.562 131.699 104.562 134.822L104.562 140.828C104.562 142.029 103.842 142.75 102.881 142.75ZM88.2265 101.91 75.0136 101.91C74.0526 101.91 73.3319 101.189 73.0917 100.229L71.4101 88.457C70.6893 87.9765 69.9686 87.7363 69.2479 87.4961L59.3983 94.7031C58.9179 95.1836 57.7167 95.1836 57.2362 94.4629L47.8671 85.0937C47.1464 84.6133 47.1464 83.6523 47.6268 82.9316L54.8339 73.082C54.5936 72.3613 54.3534 71.6406 54.1132 70.9199L42.1014 69.2383C41.1405 69.2383 40.4198 68.2773 40.4198 67.5566L40.4198 54.3437C40.4198 53.3828 41.1405 52.6621 42.1014 52.6621L54.1132 50.7402C54.3534 50.0195 54.8339 49.2988 55.0741 48.5781L47.6268 38.9687C47.1464 38.248 47.3866 37.2871 47.8671 36.5664L57.2362 27.1972C57.9569 26.4765 58.9179 26.4765 59.6386 26.957L69.2479 34.164C69.9686 33.9238 70.6893 33.6835 71.4101 33.4433L73.3319 21.1913C73.3319 20.4706 74.2929 19.7499 75.0136 19.7499L88.2265 19.7499C89.1874 19.7499 89.9081 20.4706 89.9081 21.1913L91.5898 33.4433C92.3105 33.6835 93.0312 33.9238 93.7519 34.164L103.601 26.957C104.082 26.4765 105.283 26.4765 105.764 27.1972L115.133 36.5664C115.853 37.2871 115.853 38.248 115.373 38.9687L108.166 48.5781C108.406 49.2988 108.887 50.0195 108.887 50.7402L120.898 52.6621C121.859 52.6621 122.58 53.3828 122.58 54.3437L122.58 67.5566C122.58 68.2773 121.859 68.998 120.898 69.2383L108.887 70.9199C108.646 71.6406 108.406 72.3613 108.166 73.082L115.373 82.6914C115.853 83.4121 115.853 84.373 115.133 85.0937L105.764 94.4629C105.283 94.9433 104.082 95.1836 103.601 94.7031L93.7519 87.2558C93.0312 87.7363 92.3105 87.9765 91.5898 88.2168L89.9081 100.229C89.9081 101.189 88.9472 101.91 88.2265 101.91ZM81.4999 81.7304C69.9686 81.7304 60.5995 72.3613 60.5995 60.83 60.5995 49.2988 69.9686 39.9296 81.4999 39.9296 93.0312 39.9296 102.4 49.2988 102.4 60.83 102.4 72.3613 93.0312 81.7304 81.4999 81.7304ZM81.4999 43.2929C71.8905 43.2929 63.9628 51.2207 63.9628 60.83 63.9628 70.4394 71.8905 78.3672 81.4999 78.3672 91.1093 78.3672 98.7968 70.4394 98.7968 60.83 98.7968 51.2207 91.1093 43.2929 81.4999 43.2929ZM81.4999 75.9648C73.0917 75.9648 66.3651 69.2383 66.3651 60.83 66.3651 52.4218 73.0917 45.6953 81.4999 45.6953 89.9081 45.6953 96.6347 52.4218 96.6347 60.83 96.6347 69.2383 89.9081 75.9648 81.4999 75.9648ZM81.4999 49.0585C75.0136 49.0585 69.7284 54.5839 69.7284 60.83 69.7284 67.3164 75.0136 72.6015 81.4999 72.6015 87.9862 72.6015 93.0312 67.3164 93.0312 60.83 93.0312 54.5839 87.9862 49.0585 81.4999 49.0585Z" fill="#BFBFBF" fill-rule="evenodd" fill-opacity="1"/></g></g></g></g></g><g clip-path="url(#clip17)"><g clip-path="url(#clip18)"><g clip-path="url(#clip19)"><path d="M126.346 343.061 32.6542 343.061C27.8495 343.061 23.7655 339.217 23.7655 334.172L23.7655 327.926 135.234 327.926 135.234 334.172C135.234 339.217 131.15 343.061 126.346 343.061ZM23.7655 324.322 23.7655 276.035C23.7655 271.23 27.8495 267.146 32.6542 267.146L47.5487 267.146 48.2694 268.107 39.621 269.549C36.9784 269.789 35.0565 271.951 35.0565 274.594L35.0565 287.807C35.0565 290.449 36.9784 292.371 39.621 292.852L48.2694 294.053 42.9843 301.02C41.3026 303.182 41.5429 306.064 43.4647 307.746L52.8339 317.115C54.7557 319.037 57.3983 319.277 59.5604 317.596L66.5272 312.311 67.9686 321.199C67.9686 322.4 68.6893 323.602 69.8905 324.322L23.7655 324.322ZM111.691 267.146 126.105 267.146C131.15 267.146 135.234 271.23 135.234 276.035L135.234 324.322 89.3495 324.322C90.3105 323.602 91.0312 322.4 91.2714 320.959L92.4726 312.311 99.4394 317.596C101.601 319.037 104.484 318.797 106.166 317.115L115.535 307.746C117.457 305.824 117.697 302.941 116.016 301.02L110.73 294.053 119.379 292.852C122.021 292.371 123.943 290.209 123.943 287.807L123.943 274.594C123.943 271.951 122.021 269.789 119.379 269.549L110.73 268.107 111.691 267.146Z" fill="#BFBFBF" fill-rule="evenodd" fill-opacity="1"/><path d="M87.4276 353.15 71.5722 353.15C70.6112 353.15 69.8905 352.189 69.8905 351.229L69.8905 341.379C69.8905 340.418 70.6112 339.457 71.5722 339.457L87.4276 339.457C88.3886 339.457 89.1093 340.418 89.1093 341.379L89.1093 351.229C89.1093 352.189 88.3886 353.15 87.4276 353.15Z" fill="#BFBFBF" fill-rule="evenodd" fill-opacity="1"/><path d="M100.881 363 58.119 363C57.1581 363 56.4374 362.279 56.4374 361.078L56.4374 355.072C56.4374 351.949 58.8397 349.547 61.9628 349.547L97.037 349.547C100.16 349.547 102.562 351.949 102.562 355.072L102.562 361.078C102.562 362.279 101.842 363 100.881 363ZM86.2265 322.16 73.0136 322.16C72.0526 322.16 71.3319 321.439 71.0917 320.478L69.4101 308.707C68.6893 308.227 67.9686 307.986 67.2479 307.746L57.3983 314.953C56.9179 315.434 55.7167 315.434 55.2362 314.713L45.8671 305.344C45.1464 304.863 45.1464 303.902 45.6268 303.182L52.8339 293.332C52.5936 292.611 52.3534 291.891 52.1132 291.17L40.1014 289.488C39.1405 289.488 38.4198 288.527 38.4198 287.807L38.4198 274.594C38.4198 273.633 39.1405 272.912 40.1014 272.912L52.1132 270.99C52.3534 270.27 52.8339 269.549 53.0741 268.828L45.6268 259.219C45.1464 258.498 45.3866 257.537 45.8671 256.816L55.2362 247.447C55.9569 246.727 56.9179 246.727 57.6386 247.207L67.2479 254.414C67.9686 254.174 68.6893 253.934 69.4101 253.693L71.3319 241.441C71.3319 240.721 72.2929 240 73.0136 240L86.2265 240C87.1874 240 87.9081 240.721 87.9081 241.441L89.5898 253.693C90.3105 253.934 91.0312 254.174 91.7519 254.414L101.601 247.207C102.082 246.727 103.283 246.727 103.764 247.447L113.133 256.816C113.853 257.537 113.853 258.498 113.373 259.219L106.166 268.828C106.406 269.549 106.887 270.27 106.887 270.99L118.898 272.912C119.859 272.912 120.58 273.633 120.58 274.594L120.58 287.807C120.58 288.527 119.859 289.248 118.898 289.488L106.887 291.17C106.646 291.891 106.406 292.611 106.166 293.332L113.373 302.941C113.853 303.662 113.853 304.623 113.133 305.344L103.764 314.713C103.283 315.193 102.082 315.434 101.601 314.953L91.7519 307.506C91.0312 307.986 90.3105 308.227 89.5898 308.467L87.9081 320.478C87.9081 321.439 86.9472 322.16 86.2265 322.16ZM79.4999 301.98C67.9686 301.98 58.5995 292.611 58.5995 281.08 58.5995 269.549 67.9686 260.18 79.4999 260.18 91.0312 260.18 100.4 269.549 100.4 281.08 100.4 292.611 91.0312 301.98 79.4999 301.98ZM79.4999 263.543C69.8905 263.543 61.9628 271.471 61.9628 281.08 61.9628 290.689 69.8905 298.617 79.4999 298.617 89.1093 298.617 96.7968 290.689 96.7968 281.08 96.7968 271.471 89.1093 263.543 79.4999 263.543ZM79.4999 296.215C71.0917 296.215 64.3651 289.488 64.3651 281.08 64.3651 272.672 71.0917 265.945 79.4999 265.945 87.9081 265.945 94.6347 272.672 94.6347 281.08 94.6347 289.488 87.9081 296.215 79.4999 296.215ZM79.4999 269.309C73.0136 269.309 67.7284 274.834 67.7284 281.08 67.7284 287.566 73.0136 292.852 79.4999 292.852 85.9862 292.852 91.0312 287.566 91.0312 281.08 91.0312 274.834 85.9862 269.309 79.4999 269.309Z" fill="#BFBFBF" fill-rule="evenodd" fill-opacity="1"/></g></g></g><g clip-path="url(#clip20)" filter="url(#fx2)" transform="matrix(5.5045 0 0 5.51351 -225 9)"><g clip-path="url(#clip21)" transform="translate(-7.10543e-15 -2.22045e-16)"><g clip-path="url(#clip22)" transform="matrix(1 0 0 1 -1.10269e-06 2.98023e-08)"><g clip-path="url(#clip23)" transform="matrix(1 0 0 1 -1.10269e-06 2.98023e-08)"><g clip-path="url(#clip24)" transform="matrix(1 0 0 1 -1.10269e-06 2.98023e-08)"><path d="M19.6831 18.723 2.66224 18.723C1.78937 18.723 1.04744 18.0247 1.04744 17.1082L1.04744 15.9734 21.2979 15.9734 21.2979 17.1082C21.2979 18.0247 20.556 18.723 19.6831 18.723ZM1.04744 15.3188 1.04744 6.54649C1.04744 5.67362 1.78937 4.93169 2.66224 4.93169L5.36812 4.93169 5.49905 5.10626 3.92789 5.36812C3.44782 5.41176 3.09867 5.80455 3.09867 6.28463L3.09867 8.68501C3.09867 9.16508 3.44782 9.51423 3.92789 9.60152L5.49905 9.81973 4.5389 11.0854C4.2334 11.4782 4.27704 12.0019 4.62619 12.3074L6.32827 14.0095C6.67742 14.3586 7.15749 14.4023 7.55028 14.0968L8.81594 13.1366 9.0778 14.7514C9.0778 14.9696 9.20873 15.1879 9.42694 15.3188L1.04744 15.3188ZM17.0209 4.93169 19.6395 4.93169C20.556 4.93169 21.2979 5.67362 21.2979 6.54649L21.2979 15.3188 12.962 15.3188C13.1366 15.1879 13.2676 14.9696 13.3112 14.7078L13.5294 13.1366 14.7951 14.0968C15.1879 14.3586 15.7116 14.315 16.0171 14.0095L17.7192 12.3074C18.0683 11.9583 18.112 11.4345 17.8064 11.0854L16.8463 9.81973 18.4175 9.60152C18.8975 9.51423 19.2467 9.12144 19.2467 8.68501L19.2467 6.28463C19.2467 5.80455 18.8975 5.41176 18.4175 5.36812L16.8463 5.10626 17.0209 4.93169Z" fill="#F2F2F2" fill-rule="evenodd" fill-opacity="1" transform="matrix(1 0 0 1.00648 44.3273 44.2095)"/><path d="M12.6129 20.556 9.73245 20.556C9.55787 20.556 9.42694 20.3814 9.42694 20.2068L9.42694 18.4175C9.42694 18.2429 9.55787 18.0683 9.73245 18.0683L12.6129 18.0683C12.7875 18.0683 12.9184 18.2429 12.9184 18.4175L12.9184 20.2068C12.9184 20.3814 12.7875 20.556 12.6129 20.556Z" fill="#F2F2F2" fill-rule="evenodd" fill-opacity="1" transform="matrix(1 0 0 1.00648 44.3273 44.2095)"/><path d="M15.0569 22.3453 7.28842 22.3453C7.11385 22.3453 6.98292 22.2144 6.98292 21.9962L6.98292 20.9051C6.98292 20.3378 7.41935 19.9013 7.98672 19.9013L14.3586 19.9013C14.926 19.9013 15.3624 20.3378 15.3624 20.9051L15.3624 21.9962C15.3624 22.2144 15.2315 22.3453 15.0569 22.3453ZM12.3947 14.926 9.99431 14.926C9.81973 14.926 9.6888 14.7951 9.64516 14.6205L9.33966 12.482C9.20873 12.3947 9.0778 12.351 8.94687 12.3074L7.15749 13.6167C7.07021 13.704 6.85199 13.704 6.76471 13.5731L5.06262 11.871C4.93169 11.7837 4.93169 11.6091 5.01897 11.4782L6.32827 9.6888C6.28463 9.55787 6.24099 9.42694 6.19734 9.29601L4.01518 8.99051C3.84061 8.99051 3.70968 8.81594 3.70968 8.68501L3.70968 6.28463C3.70968 6.11006 3.84061 5.97913 4.01518 5.97913L6.19734 5.62998C6.24099 5.49905 6.32827 5.36812 6.37192 5.23719L5.01897 3.49146C4.93169 3.36053 4.97533 3.18596 5.06262 3.05503L6.76471 1.35294C6.89563 1.22201 7.07021 1.22201 7.20114 1.3093L8.94687 2.6186C9.0778 2.57495 9.20873 2.53131 9.33966 2.48767L9.6888 0.26186C9.6888 0.13093 9.86338 0 9.99431 0L12.3947 0C12.5693 0 12.7002 0.13093 12.7002 0.26186L13.0057 2.48767C13.1366 2.53131 13.2676 2.57495 13.3985 2.6186L15.1879 1.3093C15.2751 1.22201 15.4934 1.22201 15.5806 1.35294L17.2827 3.05503C17.4137 3.18596 17.4137 3.36053 17.3264 3.49146L16.0171 5.23719C16.0607 5.36812 16.148 5.49905 16.148 5.62998L18.3302 5.97913C18.5047 5.97913 18.6357 6.11006 18.6357 6.28463L18.6357 8.68501C18.6357 8.81594 18.5047 8.94687 18.3302 8.99051L16.148 9.29601C16.1044 9.42694 16.0607 9.55787 16.0171 9.6888L17.3264 11.4345C17.4137 11.5655 17.4137 11.74 17.2827 11.871L15.5806 13.5731C15.4934 13.6603 15.2751 13.704 15.1879 13.6167L13.3985 12.2638C13.2676 12.351 13.1366 12.3947 13.0057 12.4383L12.7002 14.6205C12.7002 14.7951 12.5256 14.926 12.3947 14.926ZM11.1727 11.26C9.0778 11.26 7.37571 9.55787 7.37571 7.463 7.37571 5.36812 9.0778 3.66603 11.1727 3.66603 13.2676 3.66603 14.9696 5.36812 14.9696 7.463 14.9696 9.55787 13.2676 11.26 11.1727 11.26ZM11.1727 4.27704C9.42694 4.27704 7.98672 5.71727 7.98672 7.463 7.98672 9.20873 9.42694 10.649 11.1727 10.649 12.9184 10.649 14.315 9.20873 14.315 7.463 14.315 5.71727 12.9184 4.27704 11.1727 4.27704ZM11.1727 10.2125C9.64516 10.2125 8.42315 8.99051 8.42315 7.463 8.42315 5.93548 9.64516 4.71347 11.1727 4.71347 12.7002 4.71347 13.9222 5.93548 13.9222 7.463 13.9222 8.99051 12.7002 10.2125 11.1727 10.2125ZM11.1727 5.32448C9.99431 5.32448 9.03415 6.32827 9.03415 7.463 9.03415 8.64137 9.99431 9.60152 11.1727 9.60152 12.351 9.60152 13.2676 8.64137 13.2676 7.463 13.2676 6.32827 12.351 5.32448 11.1727 5.32448Z" fill="#F2F2F2" fill-rule="evenodd" fill-opacity="1" transform="matrix(1 0 0 1.00648 44.3273 44.2095)"/></g></g></g></g></g><g clip-path="url(#clip25)"><g clip-path="url(#clip26)"><g clip-path="url(#clip27)"><path d="M108.346 103.061 14.6543 103.061C9.84962 103.061 5.76563 99.2169 5.76563 94.1719L5.76563 87.9258 117.234 87.9258 117.234 94.1719C117.234 99.2169 113.15 103.061 108.346 103.061ZM5.76563 84.3223 5.76563 36.0352C5.76563 31.2305 9.84962 27.1465 14.6543 27.1465L29.5488 27.1465 30.2695 28.1074 21.6211 29.5488C18.9785 29.7891 17.0567 31.9512 17.0567 34.5938L17.0567 47.8067C17.0567 50.4492 18.9785 52.3711 21.6211 52.8516L30.2695 54.0528 24.9844 61.0196C23.3027 63.1817 23.543 66.0645 25.4649 67.7461L34.834 77.1153C36.7559 79.0372 39.3985 79.2774 41.5606 77.5957L48.5274 72.3106 49.9688 81.1993C49.9688 82.4004 50.6895 83.6016 51.8907 84.3223L5.76563 84.3223ZM93.6915 27.1465 108.106 27.1465C113.15 27.1465 117.234 31.2305 117.234 36.0352L117.234 84.3223 71.3496 84.3223C72.3106 83.6016 73.0313 82.4004 73.2715 80.959L74.4727 72.3106 81.4395 77.5957C83.6016 79.0372 86.4844 78.7969 88.1661 77.1153L97.5352 67.7461C99.4571 65.8243 99.6973 62.9414 98.0157 61.0196L92.7305 54.0528 101.379 52.8516C104.022 52.3711 105.943 50.209 105.943 47.8067L105.943 34.5938C105.943 31.9512 104.022 29.7891 101.379 29.5488L92.7305 28.1074 93.6915 27.1465Z" fill="#F2F2F2" fill-rule="evenodd" fill-opacity="1" transform="matrix(1 0 0 1.00813 18.9999 239)"/><path d="M69.4278 113.15 53.5723 113.15C52.6114 113.15 51.8907 112.19 51.8907 111.229L51.8907 101.379C51.8907 100.418 52.6114 99.4571 53.5723 99.4571L69.4278 99.4571C70.3887 99.4571 71.1094 100.418 71.1094 101.379L71.1094 111.229C71.1094 112.19 70.3887 113.15 69.4278 113.15Z" fill="#F2F2F2" fill-rule="evenodd" fill-opacity="1" transform="matrix(1 0 0 1.00813 18.9999 239)"/><path d="M82.8809 123 40.1192 123C39.1582 123 38.4375 122.279 38.4375 121.078L38.4375 115.072C38.4375 111.949 40.8399 109.547 43.9629 109.547L79.0372 109.547C82.1602 109.547 84.5625 111.949 84.5625 115.072L84.5625 121.078C84.5625 122.279 83.8418 123 82.8809 123ZM68.2266 82.1602 55.0137 82.1602C54.0528 82.1602 53.3321 81.4395 53.0918 80.4786L51.4102 68.7071C50.6895 68.2266 49.9688 67.9864 49.2481 67.7461L39.3985 74.9532C38.918 75.4336 37.7168 75.4336 37.2363 74.7129L27.8672 65.3438C27.1465 64.8633 27.1465 63.9024 27.627 63.1817L34.834 53.3321C34.5938 52.6114 34.3535 51.8907 34.1133 51.1699L22.1016 49.4883C21.1406 49.4883 20.4199 48.5274 20.4199 47.8067L20.4199 34.5938C20.4199 33.6328 21.1406 32.9121 22.1016 32.9121L34.1133 30.9903C34.3535 30.2695 34.834 29.5488 35.0742 28.8281L27.627 19.2188C27.1465 18.4981 27.3867 17.5371 27.8672 16.8164L37.2363 7.44727C37.9571 6.72657 38.918 6.72657 39.6387 7.20704L49.2481 14.4141C49.9688 14.1738 50.6895 13.9336 51.4102 13.6934L53.3321 1.44141C53.3321 0.720704 54.293 0 55.0137 0L68.2266 0C69.1875 0 69.9082 0.720704 69.9082 1.44141L71.5899 13.6934C72.3106 13.9336 73.0313 14.1738 73.752 14.4141L83.6016 7.20704C84.0821 6.72657 85.2832 6.72657 85.7637 7.44727L95.1329 16.8164C95.8536 17.5371 95.8536 18.4981 95.3731 19.2188L88.1661 28.8281C88.4063 29.5488 88.8868 30.2695 88.8868 30.9903L100.898 32.9121C101.859 32.9121 102.58 33.6328 102.58 34.5938L102.58 47.8067C102.58 48.5274 101.859 49.2481 100.898 49.4883L88.8868 51.1699C88.6465 51.8907 88.4063 52.6114 88.1661 53.3321L95.3731 62.9414C95.8536 63.6621 95.8536 64.6231 95.1329 65.3438L85.7637 74.7129C85.2832 75.1934 84.0821 75.4336 83.6016 74.9532L73.752 67.5059C73.0313 67.9864 72.3106 68.2266 71.5899 68.4668L69.9082 80.4786C69.9082 81.4395 68.9473 82.1602 68.2266 82.1602ZM61.5 61.9805C49.9688 61.9805 40.5996 52.6114 40.5996 41.0801 40.5996 29.5488 49.9688 20.1797 61.5 20.1797 73.0313 20.1797 82.4004 29.5488 82.4004 41.0801 82.4004 52.6114 73.0313 61.9805 61.5 61.9805ZM61.5 23.543C51.8907 23.543 43.9629 31.4707 43.9629 41.0801 43.9629 50.6895 51.8907 58.6172 61.5 58.6172 71.1094 58.6172 78.7969 50.6895 78.7969 41.0801 78.7969 31.4707 71.1094 23.543 61.5 23.543ZM61.5 56.2149C53.0918 56.2149 46.3653 49.4883 46.3653 41.0801 46.3653 32.6719 53.0918 25.9453 61.5 25.9453 69.9082 25.9453 76.6348 32.6719 76.6348 41.0801 76.6348 49.4883 69.9082 56.2149 61.5 56.2149ZM61.5 29.3086C55.0137 29.3086 49.7285 34.834 49.7285 41.0801 49.7285 47.5664 55.0137 52.8516 61.5 52.8516 67.9864 52.8516 73.0313 47.5664 73.0313 41.0801 73.0313 34.834 67.9864 29.3086 61.5 29.3086Z" fill="#F2F2F2" fill-rule="evenodd" fill-opacity="1" transform="matrix(1 0 0 1.00813 18.9999 239)"/></g></g></g></g></svg>