<svg width="376" height="119" xmlns="http://www.w3.org/2000/svg" xmlns:xlink="http://www.w3.org/1999/xlink" xml:space="preserve" overflow="hidden"><defs><filter id="fx0" x="-10%" y="-10%" width="120%" height="120%" filterUnits="userSpaceOnUse" primitiveUnits="userSpaceOnUse"><feComponentTransfer color-interpolation-filters="sRGB"><feFuncR type="discrete" tableValues="1.000000 1.000000"/><feFuncG type="discrete" tableValues="1.000000 1.000000"/><feFuncB type="discrete" tableValues="1.000000 1.000000"/><feFuncA type="linear" slope="1.000000" intercept="0.000000"/></feComponentTransfer><feGaussianBlur stdDeviation="3.762488 3.762488"/></filter><filter id="fx1" x="-10%" y="-10%" width="120%" height="120%" filterUnits="userSpaceOnUse" primitiveUnits="userSpaceOnUse"><feComponentTransfer color-interpolation-filters="sRGB"><feFuncR type="discrete" tableValues="1.000000 1.000000"/><feFuncG type="discrete" tableValues="1.000000 1.000000"/><feFuncB type="discrete" tableValues="1.000000 1.000000"/><feFuncA type="linear" slope="1.000000" intercept="0.000000"/></feComponentTransfer><feGaussianBlur stdDeviation="3.762488 3.762488"/></filter><filter id="fx2" x="-10%" y="-10%" width="120%" height="120%" filterUnits="userSpaceOnUse" primitiveUnits="userSpaceOnUse"><feComponentTransfer color-interpolation-filters="sRGB"><feFuncR type="discrete" tableValues="1.000000 1.000000"/><feFuncG type="discrete" tableValues="1.000000 1.000000"/><feFuncB type="discrete" tableValues="1.000000 1.000000"/><feFuncA type="linear" slope="1.000000" intercept="0.000000"/></feComponentTransfer><feGaussianBlur stdDeviation="3.762488 3.762488"/></filter><filter id="fx3" x="-10%" y="-10%" width="120%" height="120%" filterUnits="userSpaceOnUse" primitiveUnits="userSpaceOnUse"><feComponentTransfer color-interpolation-filters="sRGB"><feFuncR type="discrete" tableValues="1.000000 1.000000"/><feFuncG type="discrete" tableValues="1.000000 1.000000"/><feFuncB type="discrete" tableValues="1.000000 1.000000"/><feFuncA type="linear" slope="1.000000" intercept="0.000000"/></feComponentTransfer><feGaussianBlur stdDeviation="3.762488 3.762488"/></filter><clipPath id="clip4"><rect x="1741" y="-9" width="376" height="119"/></clipPath><clipPath id="clip5"><rect x="-11.2875" y="-11.2875" width="396.575" height="136.575"/></clipPath><clipPath id="clip6"><rect x="0" y="0" width="374" height="114"/></clipPath><clipPath id="clip7"><rect x="1.86792" y="1.63345" width="320.575" height="23.5749"/></clipPath><clipPath id="clip8"><rect x="0" y="0" width="324" height="27"/></clipPath><clipPath id="clip9"><rect x="-11.2875" y="-11.2875" width="396.575" height="135.575"/></clipPath><clipPath id="clip10"><rect x="0" y="0" width="374" height="113"/></clipPath><clipPath id="clip11"><rect x="2.1051" y="2.14543" width="320.575" height="23.5749"/></clipPath><clipPath id="clip12"><rect x="0" y="0" width="324" height="27"/></clipPath></defs><g clip-path="url(#clip4)" transform="translate(-1741 9)"><g clip-path="url(#clip5)" filter="url(#fx0)" transform="translate(1743 -6)"><g clip-path="url(#clip6)"><path d="M19.516-2.091C8.323-1.64 5.453-5.658 5.453-12.628 5.453-18.655 7.749-22.919 19.27-23.247L19.106-25.707C6.765-25.215 2.829-19.188 2.829-12.259 2.829-4.715 6.396 0.902 19.27 0.123ZM33.8637 0.574C38.8247 0.574 43.0067-3.731 43.0067-10.25 43.0067-16.564 39.4807-20.377 34.5607-20.377 29.5997-20.377 25.3767-16.072 25.3767-9.635 25.3767-3.28 28.9847 0.574 33.8637 0.574ZM34.2327-1.517C30.5017-1.517 27.8777-4.633 27.8777-10.127 27.8777-15.334 30.5017-18.286 34.1507-18.286 37.9227-18.286 40.5467-15.211 40.5467-9.758 40.5467-4.51 37.9227-1.517 34.2327-1.517ZM54.0743-18.163C55.6733-18.163 56.2063-17.261 56.2063-15.006L56.2063 0 58.3793 0 58.3793-15.949C58.3793-16.236 58.3793-16.523 58.3383-16.769 59.3633-17.671 60.5113-18.163 61.4953-18.163 63.1353-18.163 63.6683-17.261 63.6683-14.924L63.6683 0 66.0873 0 66.0873-15.908C66.0873-18.901 64.7343-20.295 62.5613-20.295 60.8393-20.295 59.2403-19.311 58.0923-18.204 57.5593-19.598 56.4933-20.295 54.9763-20.295 53.2953-20.295 51.6963-19.27 50.5483-17.999L50.3843-19.926 48.1703-19.762C48.3343-15.129 48.4163-8.487 48.4163 0L50.8353 0C50.8353-7.339 50.7533-12.792 50.6303-16.359 51.7783-17.548 53.0493-18.163 54.0743-18.163ZM76.991-18.163C78.59-18.163 79.123-17.261 79.123-15.006L79.123 0 81.296 0 81.296-15.949C81.296-16.236 81.296-16.523 81.255-16.769 82.28-17.671 83.428-18.163 84.412-18.163 86.052-18.163 86.585-17.261 86.585-14.924L86.585 0 89.004 0 89.004-15.908C89.004-18.901 87.651-20.295 85.478-20.295 83.756-20.295 82.157-19.311 81.009-18.204 80.476-19.598 79.41-20.295 77.893-20.295 76.212-20.295 74.613-19.27 73.465-17.999L73.301-19.926 71.087-19.762C71.251-15.129 71.333-8.487 71.333 0L73.752 0C73.752-7.339 73.67-12.792 73.547-16.359 74.695-17.548 75.966-18.163 76.991-18.163ZM108.272 0.041 110.568-0.082C110.363-4.756 110.281-11.357 110.281-19.844L107.821-19.844C107.821-12.505 107.862-7.216 107.985-3.731 106.222-2.501 104.377-1.681 102.204-1.681 99.4157-1.681 97.8167-3.116 97.8167-7.216L97.8167-19.967 95.3157-19.762 95.3157-6.437C95.3157-1.517 97.6937 0.492 101.302 0.492 104.172 0.492 106.386-0.861 108.067-2.214ZM126.637-18.163C129.466-18.163 131.147-16.687 131.147-12.628L131.147 0 133.607 0 133.607-13.407C133.607-18.286 131.229-20.295 127.539-20.295 124.669-20.295 122.455-19.024 120.733-17.671L120.528-19.926 118.232-19.762C118.437-15.129 118.519-8.487 118.519 0L121.02 0C121.02-7.38 120.938-12.628 120.815-16.154 122.578-17.343 124.464-18.163 126.637-18.163ZM150.62-23.247 150.948-28.659 148.324-28.659 148.119-23.247ZM158.451 0 158.656-1.927 150.825-1.927 150.825-19.844 140.821-19.844 140.616-18.122 148.324-17.794 148.324-1.927 140.534-1.927 140.534 0ZM163.902-9.635C163.902-3.608 167.305 0.82 179.154 0.164L179.482-1.968C169.191-1.517 166.362-4.633 166.362-9.963 166.362-14.432 168.74-17.63 179.154-17.794L178.99-20.172C167.633-19.803 163.902-15.006 163.902-9.635ZM193.337-1.558C190.59-1.558 188.745-2.87 188.745-5.207 188.745-8.323 191.656-10.086 199.651-9.266 199.651-7.052 199.692-5.453 199.733-4.059 198.052-2.665 195.674-1.558 193.337-1.558ZM200.102 0.082 202.357-0.041C202.234-2.952 202.111-5.535 202.111-9.881 202.111-17.425 198.954-19.803 187.802-20.213L187.515-17.999C196.617-17.63 199.364-16.277 199.61-11.193 190.549-11.849 186.285-8.856 186.285-4.633 186.285-1.435 188.827 0.492 192.435 0.492 195.674 0.492 198.216-1.025 199.856-2.542 199.938-1.681 200.061-0.492 200.102 0.082ZM225.069 0.369 225.274-1.804C218.263-1.927 216.295-2.911 216.295-6.601L216.295-17.876 224.864-17.876 224.864-19.844 216.295-19.844 216.295-25.707 213.835-25.461 213.835-19.844 209.981-19.844 209.653-17.876 213.835-17.876 213.835-6.191C213.835-1.435 216.705 0.41 225.069 0.369ZM242.287-23.247 242.615-28.659 239.991-28.659 239.786-23.247ZM250.118 0 250.323-1.927 242.492-1.927 242.492-19.844 232.488-19.844 232.283-18.122 239.991-17.794 239.991-1.927 232.201-1.927 232.201 0ZM263.03 0.574C267.991 0.574 272.173-3.731 272.173-10.25 272.173-16.564 268.647-20.377 263.727-20.377 258.766-20.377 254.543-16.072 254.543-9.635 254.543-3.28 258.151 0.574 263.03 0.574ZM263.399-1.517C259.668-1.517 257.044-4.633 257.044-10.127 257.044-15.334 259.668-18.286 263.317-18.286 267.089-18.286 269.713-15.211 269.713-9.758 269.713-4.51 267.089-1.517 263.399-1.517ZM287.054-18.163C289.883-18.163 291.564-16.687 291.564-12.628L291.564 0 294.024 0 294.024-13.407C294.024-18.286 291.646-20.295 287.956-20.295 285.086-20.295 282.872-19.024 281.15-17.671L280.945-19.926 278.649-19.762C278.854-15.129 278.936-8.487 278.936 0L281.437 0C281.437-7.38 281.355-12.628 281.232-16.154 282.995-17.343 284.881-18.163 287.054-18.163Z" fill="#FFFFFF" fill-rule="nonzero" fill-opacity="1" transform="matrix(1 0 0 1 38.1554 66)"/></g></g><text fill="#FFFFFF" fill-opacity="1" font-family="Operator Mono Light,Operator Mono Light_MSFontService,sans-serif" font-style="normal" font-variant="normal" font-weight="300" font-stretch="normal" font-size="41" text-anchor="start" direction="ltr" writing-mode="lr-tb" unicode-bidi="normal" text-decoration="none" transform="matrix(1 0 0 1 1781.16 56)">Communication</text><g clip-path="url(#clip7)" filter="url(#fx1)" transform="translate(1768 49)"><g clip-path="url(#clip8)"><path d="M13.1554 12.9209 87.6554 12.9209 162.155 12.9209 236.655 12.9209 311.155 12.9209 311.155 13.9209 236.655 13.9209 162.155 13.9209 87.6554 13.9209 13.1554 13.9209Z" fill="#FFFFFF" fill-rule="evenodd" fill-opacity="1"/></g></g><path d="M1781.16 58.5 1855.66 58.5 1930.16 58.5 2004.66 58.5 2079.16 58.5 2079.16 59.5 2004.66 59.5 1930.16 59.5 1855.66 59.5 1781.16 59.5Z" fill="#FFFFFF" fill-rule="evenodd" fill-opacity="1"/><g clip-path="url(#clip9)" filter="url(#fx2)" transform="translate(1744 -9)"><g clip-path="url(#clip10)"><path d="M19.516-2.091C8.323-1.64 5.453-5.658 5.453-12.628 5.453-18.655 7.749-22.919 19.27-23.247L19.106-25.707C6.765-25.215 2.829-19.188 2.829-12.259 2.829-4.715 6.396 0.902 19.27 0.123ZM33.8637 0.574C38.8247 0.574 43.0067-3.731 43.0067-10.25 43.0067-16.564 39.4807-20.377 34.5607-20.377 29.5997-20.377 25.3767-16.072 25.3767-9.635 25.3767-3.28 28.9847 0.574 33.8637 0.574ZM34.2327-1.517C30.5017-1.517 27.8777-4.633 27.8777-10.127 27.8777-15.334 30.5017-18.286 34.1507-18.286 37.9227-18.286 40.5467-15.211 40.5467-9.758 40.5467-4.51 37.9227-1.517 34.2327-1.517ZM54.0743-18.163C55.6733-18.163 56.2063-17.261 56.2063-15.006L56.2063 0 58.3793 0 58.3793-15.949C58.3793-16.236 58.3793-16.523 58.3383-16.769 59.3633-17.671 60.5113-18.163 61.4953-18.163 63.1353-18.163 63.6683-17.261 63.6683-14.924L63.6683 0 66.0873 0 66.0873-15.908C66.0873-18.901 64.7343-20.295 62.5613-20.295 60.8393-20.295 59.2403-19.311 58.0923-18.204 57.5593-19.598 56.4933-20.295 54.9763-20.295 53.2953-20.295 51.6963-19.27 50.5483-17.999L50.3843-19.926 48.1703-19.762C48.3343-15.129 48.4163-8.487 48.4163 0L50.8353 0C50.8353-7.339 50.7533-12.792 50.6303-16.359 51.7783-17.548 53.0493-18.163 54.0743-18.163ZM76.991-18.163C78.59-18.163 79.123-17.261 79.123-15.006L79.123 0 81.296 0 81.296-15.949C81.296-16.236 81.296-16.523 81.255-16.769 82.28-17.671 83.428-18.163 84.412-18.163 86.052-18.163 86.585-17.261 86.585-14.924L86.585 0 89.004 0 89.004-15.908C89.004-18.901 87.651-20.295 85.478-20.295 83.756-20.295 82.157-19.311 81.009-18.204 80.476-19.598 79.41-20.295 77.893-20.295 76.212-20.295 74.613-19.27 73.465-17.999L73.301-19.926 71.087-19.762C71.251-15.129 71.333-8.487 71.333 0L73.752 0C73.752-7.339 73.67-12.792 73.547-16.359 74.695-17.548 75.966-18.163 76.991-18.163ZM108.272 0.041 110.568-0.082C110.363-4.756 110.281-11.357 110.281-19.844L107.821-19.844C107.821-12.505 107.862-7.216 107.985-3.731 106.222-2.501 104.377-1.681 102.204-1.681 99.4157-1.681 97.8167-3.116 97.8167-7.216L97.8167-19.967 95.3157-19.762 95.3157-6.437C95.3157-1.517 97.6937 0.492 101.302 0.492 104.172 0.492 106.386-0.861 108.067-2.214ZM126.637-18.163C129.466-18.163 131.147-16.687 131.147-12.628L131.147 0 133.607 0 133.607-13.407C133.607-18.286 131.229-20.295 127.539-20.295 124.669-20.295 122.455-19.024 120.733-17.671L120.528-19.926 118.232-19.762C118.437-15.129 118.519-8.487 118.519 0L121.02 0C121.02-7.38 120.938-12.628 120.815-16.154 122.578-17.343 124.464-18.163 126.637-18.163ZM150.62-23.247 150.948-28.659 148.324-28.659 148.119-23.247ZM158.451 0 158.656-1.927 150.825-1.927 150.825-19.844 140.821-19.844 140.616-18.122 148.324-17.794 148.324-1.927 140.534-1.927 140.534 0ZM163.902-9.635C163.902-3.608 167.305 0.82 179.154 0.164L179.482-1.968C169.191-1.517 166.362-4.633 166.362-9.963 166.362-14.432 168.74-17.63 179.154-17.794L178.99-20.172C167.633-19.803 163.902-15.006 163.902-9.635ZM193.337-1.558C190.59-1.558 188.745-2.87 188.745-5.207 188.745-8.323 191.656-10.086 199.651-9.266 199.651-7.052 199.692-5.453 199.733-4.059 198.052-2.665 195.674-1.558 193.337-1.558ZM200.102 0.082 202.357-0.041C202.234-2.952 202.111-5.535 202.111-9.881 202.111-17.425 198.954-19.803 187.802-20.213L187.515-17.999C196.617-17.63 199.364-16.277 199.61-11.193 190.549-11.849 186.285-8.856 186.285-4.633 186.285-1.435 188.827 0.492 192.435 0.492 195.674 0.492 198.216-1.025 199.856-2.542 199.938-1.681 200.061-0.492 200.102 0.082ZM225.069 0.369 225.274-1.804C218.263-1.927 216.295-2.911 216.295-6.601L216.295-17.876 224.864-17.876 224.864-19.844 216.295-19.844 216.295-25.707 213.835-25.461 213.835-19.844 209.981-19.844 209.653-17.876 213.835-17.876 213.835-6.191C213.835-1.435 216.705 0.41 225.069 0.369ZM242.287-23.247 242.615-28.659 239.991-28.659 239.786-23.247ZM250.118 0 250.323-1.927 242.492-1.927 242.492-19.844 232.488-19.844 232.283-18.122 239.991-17.794 239.991-1.927 232.201-1.927 232.201 0ZM263.03 0.574C267.991 0.574 272.173-3.731 272.173-10.25 272.173-16.564 268.647-20.377 263.727-20.377 258.766-20.377 254.543-16.072 254.543-9.635 254.543-3.28 258.151 0.574 263.03 0.574ZM263.399-1.517C259.668-1.517 257.044-4.633 257.044-10.127 257.044-15.334 259.668-18.286 263.317-18.286 267.089-18.286 269.713-15.211 269.713-9.758 269.713-4.51 267.089-1.517 263.399-1.517ZM287.054-18.163C289.883-18.163 291.564-16.687 291.564-12.628L291.564 0 294.024 0 294.024-13.407C294.024-18.286 291.646-20.295 287.956-20.295 285.086-20.295 282.872-19.024 281.15-17.671L280.945-19.926 278.649-19.762C278.854-15.129 278.936-8.487 278.936 0L281.437 0C281.437-7.38 281.355-12.628 281.232-16.154 282.995-17.343 284.881-18.163 287.054-18.163Z" fill="#7F7F7F" fill-rule="nonzero" fill-opacity="1" transform="matrix(1 0 0 1 38.3926 65)"/></g></g><text fill="#7F7F7F" fill-opacity="1" font-family="Operator Mono Light,Operator Mono Light_MSFontService,sans-serif" font-style="normal" font-variant="normal" font-weight="300" font-stretch="normal" font-size="41" text-anchor="start" direction="ltr" writing-mode="lr-tb" unicode-bidi="normal" text-decoration="none" transform="matrix(1 0 0 1 1782.39 53)">Communication</text><g clip-path="url(#clip11)" filter="url(#fx3)" transform="translate(1769 45)"><g clip-path="url(#clip12)"><path d="M13.3926 13.4329 87.8926 13.4329 162.393 13.4329 236.893 13.4329 311.393 13.4329 311.393 14.4329 236.893 14.4329 162.393 14.4329 87.8926 14.4329 13.3926 14.4329Z" fill="#7F7F7F" fill-rule="evenodd" fill-opacity="1"/></g></g><path d="M1782.39 55.012 1856.89 55.012 1931.39 55.012 2005.89 55.012 2080.39 55.012 2080.39 56.012 2005.89 56.012 1931.39 56.012 1856.89 56.012 1782.39 56.012Z" fill="#7F7F7F" fill-rule="evenodd" fill-opacity="1"/></g></svg>