<svg xmlns="http://www.w3.org/2000/svg" enable-background="new 0 0 512 512" viewBox="0 0 512 512"><circle cx="256" cy="256" r="252" fill="#90dfd9" class="color90dfaa svgShape"/><path fill="#fff" d="M421.8,390H90.2c-2.7,0-4.9-2.2-4.9-4.9V126.9c0-2.7,2.2-4.9,4.9-4.9h331.6c2.7,0,4.9,2.2,4.9,4.9v258.2   C426.7,387.8,424.5,390,421.8,390z" class="colorffffff svgShape"/><path fill="#58fff1" d="M399.1,368.5H112.9c-3.4,0-6.1-2.7-6.1-6.1V149.6c0-3.4,2.7-6.1,6.1-6.1h286.2c3.4,0,6.1,2.7,6.1,6.1    v212.8C405.2,365.8,402.5,368.5,399.1,368.5z M119,356.3H393V155.7H119V356.3z" class="colorff7058 svgShape"/><path fill="#41e1d4" d="M192.2 173.1v15.3H154v15.8h34.4v14.6H154v15.9h39.4v15.1h-56.5v-76.7H192.2zM251.8 173.1h20.6l-23.9 37 25.9 39.7h-20.9l-16.4-25.2-16.2 25.2h-20.6l25.8-39.3-24-37.4h20.5l14.6 22.7L251.8 173.1zM284.9 173.1H302v76.7h-17.1V173.1zM353.4 187.9v61.9h-17.1v-61.9h-21.7v-14.8h60.6v14.8H353.4z" class="color54c0eb svgShape"/><polygon fill="#41e1d4" points="308.8 310.4 282.2 281 282.2 297.4 203.2 297.4 203.2 323.4 282.2 323.4 282.2 339.8" class="color54c0eb svgShape"/></svg>