<svg xmlns="http://www.w3.org/2000/svg" enable-background="new 0 0 512 512" viewBox="0 0 512 512" id="Trashcan"><linearGradient id="a" x1="94.316" x2="417.684" y1="187.632" y2="187.632" gradientTransform="matrix(1 0 0 -1 0 511)" gradientUnits="userSpaceOnUse"><stop offset="0" stop-color="#e0e0e0" class="stopColorc9f7f5 svgShape"></stop><stop offset="1" stop-color="#999999" class="stopColor47ebda svgShape"></stop></linearGradient><path fill="url(#a)" d="M417.684,134.737v323.368c0,29.765-24.13,53.895-53.895,53.895H148.211
			c-29.765,0-53.895-24.13-53.895-53.895V134.737H417.684z"></path><path fill="#ffffff" d="M175.158,134.737V80.842c0-29.765,24.13-53.895,53.895-53.895h53.895
			c29.765,0,53.895,24.13,53.895,53.895v53.895H175.158z" class="colorffffff svgShape"></path><linearGradient id="b" x1="148.21" x2="363.789" y1="430.158" y2="430.158" gradientTransform="matrix(1 0 0 -1 0 511)" gradientUnits="userSpaceOnUse"><stop offset="0" stop-color="#e4e4e4" class="stopColore3e4e6 svgShape"></stop><stop offset="1" stop-color="#9b9b9b" class="stopColor7f8eb8 svgShape"></stop></linearGradient><path fill="url(#b)" d="M336.842,161.684
			c-14.895,0-26.947-12.066-26.947-26.947V80.842c0-14.858-12.079-26.947-26.947-26.947h-53.895
			c-14.868,0-26.947,12.089-26.947,26.947v53.895c0,14.881-12.053,26.947-26.947,26.947s-26.947-12.066-26.947-26.947V80.842
			C148.211,36.266,184.474,0,229.053,0h53.895c44.579,0,80.842,36.266,80.842,80.842v53.895
			C363.789,149.618,351.737,161.684,336.842,161.684z"></path><g fill="#000000" class="color000000 svgShape"><linearGradient id="c" x1="13.474" x2="498.526" y1="376.263" y2="376.263" gradientTransform="matrix(1 0 0 -1 0 511)" gradientUnits="userSpaceOnUse"><stop offset="0" stop-color="#e4e4e4" class="stopColore3e4e6 svgShape"></stop><stop offset="1" stop-color="#9b9b9b" class="stopColor7f8eb8 svgShape"></stop></linearGradient><path fill="url(#c)" d="M471.579,161.684H40.421
			c-14.895,0-26.947-12.066-26.947-26.947s12.053-26.947,26.947-26.947h431.158c14.895,0,26.947,12.066,26.947,26.947
			S486.474,161.684,471.579,161.684z"></path></g><g fill="#000000" class="color000000 svgShape"><linearGradient id="d" x1="175.158" x2="229.053" y1="174.158" y2="174.158" gradientTransform="matrix(1 0 0 -1 0 511)" gradientUnits="userSpaceOnUse"><stop offset="0" stop-color="#e4e4e4" class="stopColore3e4e6 svgShape"></stop><stop offset="1" stop-color="#9b9b9b" class="stopColor7f8eb8 svgShape"></stop></linearGradient><path fill="url(#d)" d="M202.105,431.158
			c-14.895,0-26.947-12.066-26.947-26.947V269.474c0-14.881,12.053-26.947,26.947-26.947c14.895,0,26.947,12.066,26.947,26.947
			v134.737C229.053,419.092,217,431.158,202.105,431.158z"></path></g><g fill="#000000" class="color000000 svgShape"><linearGradient id="e" x1="282.947" x2="336.842" y1="174.158" y2="174.158" gradientTransform="matrix(1 0 0 -1 0 511)" gradientUnits="userSpaceOnUse"><stop offset="0" stop-color="#e4e4e4" class="stopColore3e4e6 svgShape"></stop><stop offset="1" stop-color="#9b9b9b" class="stopColor7f8eb8 svgShape"></stop></linearGradient><path fill="url(#e)" d="M309.895,431.158
			c-14.895,0-26.947-12.066-26.947-26.947V269.474c0-14.881,12.053-26.947,26.947-26.947c14.895,0,26.947,12.066,26.947,26.947
			v134.737C336.842,419.092,324.79,431.158,309.895,431.158z"></path></g></svg>