<svg height="512pt" viewBox="0 0 512 512" width="512pt" xmlns="http://www.w3.org/2000/svg"><path d="m512 256c0 29.945312-5.140625 58.703125-14.597656 85.421875-5.539063 15.660156-12.558594 30.613281-20.898438 44.699219-3.9375 6.675781-8.179687 13.15625-12.695312 19.414062-4.449219 6.1875-9.171875 12.152344-14.148438 17.898438-46.945312 54.253906-116.296875 88.566406-193.660156 88.566406-141.386719 0-256-114.613281-256-256s114.613281-256 256-256 256 114.613281 256 256zm0 0" fill="#ff4079"/><path d="m185.46875 405.53125h141.054688v62.691406h-141.054688zm0 0" fill="#152d59"/><path d="m485.605469 90.9375v278.390625c-9.625 19.46875-21.648438 37.535156-35.691407 53.804687-1.632812.195313-3.28125.300782-4.964843.300782h-377.898438c-1.683593 0-3.332031-.105469-4.964843-.300782-14.050782-16.28125-26.078126-34.335937-35.691407-53.804687v-278.390625c0-22.453125 18.203125-40.65625 40.65625-40.65625h377.898438c22.453125 0 40.65625 18.203125 40.65625 40.65625zm0 0" fill="#244477"/><path d="m464.707031 22.066406v324.140625c0 10.898438-8.871093 19.757813-19.757812 19.757813h-377.898438c-10.898437 0-19.757812-8.859375-19.757812-19.757813v-324.140625c0-10.894531 8.859375-19.757812 19.757812-19.757812h377.898438c10.886719 0 19.757812 8.863281 19.757812 19.757812zm0 0" fill="#87a8e6"/><path d="m464.707031 22.066406v305.332032c0 10.898437-8.871093 19.757812-19.757812 19.757812h-377.898438c-10.898437 0-19.757812-8.859375-19.757812-19.757812v-305.332032c0-10.894531 8.859375-19.757812 19.757812-19.757812h377.898438c10.886719 0 19.757812 8.863281 19.757812 19.757812zm0 0" fill="#d4e4ff"/><path d="m372.988281 481.824219c0 .667969-.023437 1.324219-.074219 1.984375-35.046874 18.023437-74.792968 28.191406-116.914062 28.191406-42.128906 0-81.878906-10.175781-116.925781-28.203125-.050781-.65625-.070313-1.316406-.070313-1.972656 0-8.328125 3.375-15.871094 8.839844-21.335938 5.464844-5.464843 13.007812-8.839843 21.335938-8.839843h173.628906c16.667968 0 30.179687 13.507812 30.179687 30.175781zm0 0" fill="#244477"/><path d="m444.949219 2.308594h-377.898438c-10.898437 0-19.757812 8.863281-19.757812 19.757812v33.011719h417.414062v-33.011719c0-10.894531-8.871093-19.757812-19.757812-19.757812zm0 0" fill="#87a8e6"/><path d="m234.359375 64.082031v144.0625c0 9.570313-7.773437 17.3125-17.34375 17.28125l-166.839844-.59375-2.882812-.011719v-178.019531h169.785156c9.539063 0 17.28125 7.734375 17.28125 17.28125zm0 0" fill="#87a8e6"/><path d="m65.828125 205.332031-46.210937-.15625c-9.523438-.03125-17.222657-7.761719-17.222657-17.285156v-143.304687c0-9.542969 7.734375-17.28125 17.28125-17.28125h213.054688c9.542969 0 17.28125 7.738281 17.28125 17.28125v144.0625c0 9.570312-7.773438 17.316406-17.34375 17.28125zm0 0" fill="#228bd1"/><path d="m229.113281 48.203125v136.816406l-163.210937-.582031-42.613282-.148438v-136.085937zm0 0" fill="#fff"/><path d="m229.113281 80.550781v104.46875l-163.210937-.582031-42.613282-.148438v-37.40625l66.636719-47.730468 58.710938 39.015625 70.519531-66.109375zm0 0" fill="#f49f3b"/><path d="m80.429688 77.40625c0 12.824219-10.394532 23.222656-23.21875 23.222656-12.828126 0-23.222657-10.398437-23.222657-23.222656s10.394531-23.21875 23.222657-23.21875c12.824218 0 23.21875 10.394531 23.21875 23.21875zm0 0" fill="#fcd971"/><path d="m219.160156 72.058594-70.519531 66.113281 58.582031 38.929687zm0 0" fill="#fcd971"/><path d="m89.925781 99.152344-24.023437 85.285156-42.613282-.148438v-37.40625zm0 0" fill="#fcd971"/><path d="m464.707031 24.316406v141.058594h-155.105469c-12.003906 0-21.730468-9.726562-21.730468-21.734375v-97.601563c0-11.996093 9.726562-21.722656 21.730468-21.722656zm0 0" fill="#87a8e6"/><path d="m481.914062 149.703125h-155.074218c-12 0-21.730469-9.730469-21.730469-21.730469v-97.601562c0-12 9.730469-21.730469 21.730469-21.730469h155.074218c12 0 21.726563 9.730469 21.726563 21.730469v97.601562c0 12-9.726563 21.730469-21.726563 21.730469zm0 0" fill="#228bd1"/><path d="m326.007812 29.539062h156.734376v96.128907h-156.734376zm0 0" fill="#ff4079"/><g fill="#fff"><path d="m349.492188 76.90625 22.125-14.371094c.433593-.347656 1.042968-.4375 1.65625-.4375 2.613281 0 5.921874 2.789063 5.921874 6.359375 0 1.480469-.609374 2.789063-1.566406 3.398438l-15.332031 9.929687 15.332031 9.929688c.957032.609375 1.566406 1.914062 1.566406 3.394531 0 3.574219-3.3125 6.359375-5.921874 6.359375-.609376 0-1.222657-.085938-1.65625-.433594l-22.125-14.375c-2.003907-1.304687-2.699219-3.394531-2.699219-4.875 0-1.480468.695312-3.574218 2.699219-4.878906zm0 0"/><path d="m423.613281 43.285156c0 .523438-.085937 1.132813-.347656 1.65625l-30.660156 62.800782c-.609375 1.304687-2.261719 2.175781-3.917969 2.175781-2.960938 0-4.878906-2.4375-4.878906-4.617188 0-.523437.175781-1.132812.4375-1.652343l30.570312-62.800782c.699219-1.480468 2.09375-2.179687 3.660156-2.179687 2.4375 0 5.136719 1.832031 5.136719 4.617187zm0 0"/><path d="m457.929688 86.660156-22.121094 14.375c-.4375.347656-1.046875.433594-1.65625.433594-2.613282 0-5.921875-2.785156-5.921875-6.359375 0-1.480469.609375-2.785156 1.566406-3.394531l15.328125-9.929688-15.328125-9.929687c-.957031-.609375-1.566406-1.917969-1.566406-3.398438 0-3.570312 3.308593-6.359375 5.921875-6.359375.609375 0 1.21875.089844 1.65625.4375l22.121094 14.371094c2.003906 1.304688 2.699218 3.398438 2.699218 4.878906 0 1.480469-.695312 3.570313-2.699218 4.875zm0 0"/></g><path d="m464.707031 247.808594v79.589844c0 10.898437-8.871093 19.757812-19.757812 19.757812h-298.097657v-76.621094c0-14.648437 11.867188-26.519531 26.507813-26.519531h277.671875c5.003906 0 9.683594 1.390625 13.675781 3.792969zm0 0" fill="#87a8e6"/><path d="m497.402344 251.726562v89.695313c-10.75 30.382813-27.074219 58.136719-47.742188 82.011719h-256.449218c-14.636719 0-26.507813-11.871094-26.507813-26.507813v-145.199219c0-14.648437 11.871094-26.519531 26.507813-26.519531h277.671874c14.648438 0 26.519532 11.871094 26.519532 26.519531zm0 0" fill="#228bd1"/><path d="m476.503906 250.230469v135.890625c-3.9375 6.675781-8.179687 13.15625-12.695312 19.414062h-272.082032c-2.277343 0-4.125-1.847656-4.125-4.128906v-151.175781c0-2.277344 1.847657-4.125 4.125-4.125h280.652344c2.277344 0 4.125 1.847656 4.125 4.125zm0 0" fill="#fff"/><path d="m435.917969 294.316406h-207.730469c-5.964844 0-10.796875-4.832031-10.796875-10.796875 0-5.960937 4.832031-10.796875 10.796875-10.796875h207.730469c5.960937 0 10.796875 4.835938 10.796875 10.796875 0 5.964844-4.835938 10.796875-10.796875 10.796875zm0 0" fill="#212733"/><path d="m435.917969 336.617188h-207.730469c-5.964844 0-10.796875-4.832032-10.796875-10.796876 0-5.960937 4.832031-10.796874 10.796875-10.796874h207.730469c5.960937 0 10.796875 4.835937 10.796875 10.796874 0 5.964844-4.835938 10.796876-10.796875 10.796876zm0 0" fill="#212733"/><path d="m435.917969 378.917969h-207.730469c-5.964844 0-10.796875-4.832031-10.796875-10.796875 0-5.960938 4.832031-10.796875 10.796875-10.796875h207.730469c5.960937 0 10.796875 4.835937 10.796875 10.796875 0 5.960937-4.835938 10.796875-10.796875 10.796875zm0 0" fill="#212733"/></svg>