<svg height="512pt" viewBox="0 0 512 512" width="512pt" xmlns="http://www.w3.org/2000/svg"><path d="m512 256c0 141.386719-114.613281 256-256 256s-256-114.613281-256-256 114.613281-256 256-256 256 114.613281 256 256zm0 0" fill="#d4e4ff"/><path d="m185.46875 405.53125h141.054688v62.691406h-141.054688zm0 0" fill="#152d59"/><path d="m485.605469 90.9375v278.390625c-9.625 19.46875-21.648438 37.535156-35.691407 53.804687-1.632812.195313-3.28125.300782-4.964843.300782h-377.898438c-1.683593 0-3.332031-.105469-4.964843-.300782-14.050782-16.28125-26.078126-34.335937-35.691407-53.804687v-278.390625c0-22.453125 18.203125-40.65625 40.65625-40.65625h377.898438c22.453125 0 40.65625 18.203125 40.65625 40.65625zm0 0" fill="#244477"/><path d="m464.710938 90.9375v255.265625c0 10.898437-8.871094 19.761719-19.757813 19.761719h-377.898437c-10.898438 0-19.757813-8.863282-19.757813-19.761719v-255.265625c0-10.898438 8.859375-19.761719 19.757813-19.761719h377.898437c10.886719 0 19.757813 8.863281 19.757813 19.761719zm0 0" fill="#fff"/><path d="m434.878906 191.332031v174.632813h-12.734375l-54.503906-42.746094h-156.933594c-15.265625 0-27.636719-12.382812-27.636719-27.648438v-104.238281c0-15.269531 12.371094-27.640625 27.636719-27.640625h196.535157c15.265624 0 27.636718 12.371094 27.636718 27.640625zm0 0" fill="#d4e4ff"/><path d="m297.800781 71.175781v98.285157c0 16.089843-13.050781 29.132812-29.144531 29.132812h-165.394531l-55.964844 43.894531v-151.550781c0-10.898438 8.859375-19.761719 19.757813-19.761719zm0 0" fill="#d4e4ff"/><path d="m426.570312 144.359375c15.269532 0 27.644532 12.375 27.644532 27.640625v184.625l-67.238282-52.738281h-156.9375c-15.265624 0-27.640624-12.375-27.640624-27.644531v-104.242188c0-15.265625 12.375-27.640625 27.640624-27.640625zm0 0" fill="#ff4079"/><path d="m372.988281 481.824219c0 .667969-.023437 1.324219-.074219 1.984375-35.046874 18.023437-74.792968 28.191406-116.914062 28.191406-42.128906 0-81.878906-10.175781-116.925781-28.203125-.050781-.65625-.070313-1.316406-.070313-1.972656 0-8.328125 3.375-15.871094 8.839844-21.335938 5.464844-5.464843 13.007812-8.839843 21.335938-8.839843h173.628906c16.667968 0 30.179687 13.507812 30.179687 30.175781zm0 0" fill="#244477"/><path d="m397.0625 221.800781c0 36.449219-29.546875 66-66 66-36.449219 0-66-29.550781-66-66 0-36.453125 29.550781-66.003906 66-66.003906 36.453125 0 66 29.550781 66 66.003906zm0 0" fill="#fcd971"/><path d="m291.757812 232.183594c0 21.707031 17.597657 39.304687 39.304688 39.304687s39.308594-17.597656 39.308594-39.304687" fill="#fff"/><path d="m317.148438 209.191406c0 7.375-5.976563 13.351563-13.347657 13.351563-7.375 0-13.351562-5.976563-13.351562-13.351563 0-7.371094 5.976562-13.347656 13.351562-13.347656 7.371094 0 13.347657 5.976562 13.347657 13.347656zm0 0" fill="#212733"/><path d="m371.675781 209.191406c0 7.375-5.976562 13.351563-13.347656 13.351563-7.375 0-13.351563-5.976563-13.351563-13.351563 0-7.371094 5.976563-13.347656 13.351563-13.347656 7.371094 0 13.347656 5.976562 13.347656 13.347656zm0 0" fill="#212733"/><path d="m368.570312 206.003906c0 3.5625-2.890624 6.453125-6.453124 6.453125-3.566407 0-6.453126-2.890625-6.453126-6.453125s2.886719-6.453125 6.453126-6.453125c3.5625 0 6.453124 2.890625 6.453124 6.453125zm0 0" fill="#fff"/><path d="m313.566406 206.003906c0 3.5625-2.890625 6.453125-6.453125 6.453125-3.566406 0-6.453125-2.890625-6.453125-6.453125s2.886719-6.453125 6.453125-6.453125c3.5625 0 6.453125 2.890625 6.453125 6.453125zm0 0" fill="#fff"/><path d="m87.652344 10.609375c-16.089844 0-29.136719 13.042969-29.136719 29.132813v194.582031l70.867187-55.582031h165.402344c16.089844 0 29.132813-13.042969 29.132813-29.132813v-109.867187c0-16.089844-13.042969-29.132813-29.132813-29.132813zm0 0" fill="#228bd1"/><path d="m262.992188 94.429688c0 38.320312-31.0625 69.382812-69.378907 69.382812-38.320312 0-69.382812-31.0625-69.382812-69.382812 0-38.316407 31.0625-69.378907 69.382812-69.378907 38.316407 0 69.378907 31.0625 69.378907 69.378907zm0 0" fill="#fcd971"/><g fill="#212733"><path d="m178.984375 81.179688c0 7.75-6.28125 14.03125-14.03125 14.03125s-14.035156-6.28125-14.035156-14.03125 6.285156-14.035157 14.035156-14.035157 14.03125 6.285157 14.03125 14.035157zm0 0"/><path d="m236.304688 81.179688c0 7.75-6.28125 14.03125-14.03125 14.03125s-14.035157-6.28125-14.035157-14.03125 6.285157-14.035157 14.035157-14.035157 14.03125 6.285157 14.03125 14.035157zm0 0"/><path d="m219.054688 113.449219c.984374 0 1.984374.246093 2.90625.761719 2.875 1.609374 3.902343 5.242187 2.292968 8.121093-6.203125 11.082031-17.941406 17.964844-30.636718 17.964844-12.691407 0-24.429688-6.882813-30.640626-17.964844-1.609374-2.875-.585937-6.507812 2.289063-8.121093 2.875-1.609376 6.511719-.585938 8.121094 2.289062 4.101562 7.316406 11.851562 11.863281 20.230469 11.863281 8.378906 0 16.128906-4.542969 20.222656-11.863281 1.09375-1.949219 3.125-3.050781 5.214844-3.050781zm0 0"/></g><path d="m232.90625 77.828125c0 3.746094-3.035156 6.78125-6.78125 6.78125s-6.785156-3.035156-6.785156-6.78125 3.039062-6.785156 6.785156-6.785156 6.78125 3.039062 6.78125 6.785156zm0 0" fill="#fff"/><path d="m175.085938 77.828125c0 3.746094-3.035157 6.78125-6.78125 6.78125-3.746094 0-6.785157-3.035156-6.785157-6.78125s3.039063-6.785156 6.785157-6.785156c3.746093 0 6.78125 3.039062 6.78125 6.785156zm0 0" fill="#fff"/></svg>