<svg height="512pt" viewBox="-1 0 512 512" width="512pt" xmlns="http://www.w3.org/2000/svg"><path d="m510.542969 256.726562c0 140.984376-114.289063 255.273438-255.269531 255.273438-140.984376 0-255.273438-114.289062-255.273438-255.273438 0-140.980468 114.289062-255.269531 255.273438-255.269531 140.980468 0 255.269531 114.289063 255.269531 255.269531zm0 0" fill="#ff4079"/><path d="m184.941406 405.835938h140.652344v62.511718h-140.652344zm0 0" fill="#152d59"/><path d="m484.222656 92.136719v277.597656c-9.59375 19.414063-21.585937 37.425781-35.589844 53.648437-1.625.199219-3.273437.304688-4.949218.304688h-376.824219c-1.675781 0-3.324219-.105469-4.949219-.304688-14.011718-16.230468-26.003906-34.234374-35.589844-53.648437v-277.597656c0-22.390625 18.148438-40.542969 40.539063-40.542969h376.824219c22.390625 0 40.539062 18.152344 40.539062 40.542969zm0 0" fill="#244477"/><path d="m463.386719 92.136719v254.539062c0 10.871094-8.847657 19.703125-19.703125 19.703125h-376.824219c-10.867187 0-19.703125-8.832031-19.703125-19.703125v-254.539062c0-10.867188 8.835938-19.703125 19.703125-19.703125h376.824219c10.855468 0 19.703125 8.835937 19.703125 19.703125zm0 0" fill="#228bd1"/><path d="m371.925781 481.910156c0 .664063-.019531 1.324219-.074219 1.980469-34.945312 17.972656-74.578124 28.109375-116.578124 28.109375-42.011719 0-81.648438-10.148438-116.59375-28.121094-.050782-.65625-.074219-1.3125-.074219-1.96875 0-8.304687 3.367187-15.828125 8.816406-21.277344 5.449219-5.449218 12.972656-8.8125 21.277344-8.8125h173.136719c16.617187 0 30.089843 13.46875 30.089843 30.089844zm0 0" fill="#244477"/><path d="m414.261719 214.066406-79.707031-105.753906-5.824219 4.390625-5.824219-4.390625-79.707031 105.753906 11.648437 8.78125 73.882813-98.027344 73.882812 98.027344zm0 0" fill="#d4e4ff"/><path d="m280.28125 100.71875h96.898438v23.964844h-96.898438zm0 0" fill="#212733"/><path d="m414.6875 27.785156h-213.550781v-27.785156h-121.949219v366.378906h20.839844v-.371094l80.269531-46.253906v46.625h20.839844v-255.238281h213.550781zm-117.195312 26.460938 30.789062 36.054687h-61.578125zm-53.386719 30.429687-30.789063-36.050781h61.578125zm75.988281-36.050781h61.578125l-30.789063 36.050781zm-139.796875-20.839844v22.867188l-51.738281-29.8125h51.738281zm-80.269531 117.183594 69.820312 40.234375-69.820312 40.230469zm69.820312-76.289062-69.820312 40.234374v-80.464843zm-69.820312 273.277343v-80.464843l69.820312 40.230468zm10.449218-98.492187 69.820313-40.234375v80.464843zm69.820313-76.292969-69.820313-40.230469 69.820313-40.230468zm20.839844-100.722656 20.367187 23.851562h-20.367187zm172.34375 23.851562 20.371093-23.851562v23.851562zm0 0" fill="#fcd971"/><path d="m228.917969 210.328125h199.007812v134.410156h-199.007812zm0 0" fill="#fff"/><g fill="#212733"><path d="m397.363281 246.101562h-142.40625c-5.945312 0-10.765625-4.820312-10.765625-10.765624 0-5.945313 4.820313-10.765626 10.765625-10.765626h142.40625c5.945313 0 10.765625 4.820313 10.765625 10.765626 0 5.945312-4.820312 10.765624-10.765625 10.765624zm0 0"/><path d="m397.363281 288.28125h-142.40625c-5.945312 0-10.765625-4.820312-10.765625-10.765625s4.820313-10.765625 10.765625-10.765625h142.40625c5.945313 0 10.765625 4.820312 10.765625 10.765625s-4.820312 10.765625-10.765625 10.765625zm0 0"/><path d="m313.3125 330.464844h-58.355469c-5.945312 0-10.765625-4.820313-10.765625-10.769532 0-5.945312 4.820313-10.765624 10.765625-10.765624h58.355469c5.949219 0 10.769531 4.820312 10.769531 10.765624 0 5.945313-4.820312 10.769532-10.769531 10.769532zm0 0"/></g></svg>