<svg height="512pt" viewBox="0 0 512 512" width="512pt" xmlns="http://www.w3.org/2000/svg"><path d="m512 256c0 141.386719-114.613281 256-256 256s-256-114.613281-256-256 114.613281-256 256-256 256 114.613281 256 256zm0 0" fill="#ff4079"/><path d="m185.46875 405.53125h141.054688v62.691406h-141.054688zm0 0" fill="#152d59"/><path d="m485.605469 90.9375v278.390625c-9.625 19.46875-21.648438 37.535156-35.691407 53.804687-1.632812.195313-3.28125.300782-4.964843.300782h-377.898438c-1.683593 0-3.332031-.105469-4.964843-.300782-14.050782-16.28125-26.078126-34.335937-35.691407-53.804687v-278.390625c0-22.453125 18.203125-40.65625 40.65625-40.65625h377.898438c22.453125 0 40.65625 18.203125 40.65625 40.65625zm0 0" fill="#244477"/><path d="m464.707031 90.9375v255.269531c0 10.898438-8.871093 19.757813-19.757812 19.757813h-377.898438c-10.898437 0-19.757812-8.859375-19.757812-19.757813v-255.269531c0-10.898438 8.859375-19.757812 19.757812-19.757812h377.898438c10.886719 0 19.757812 8.859374 19.757812 19.757812zm0 0" fill="#228bd1"/><path d="m372.988281 481.824219c0 .667969-.023437 1.324219-.074219 1.984375-35.046874 18.023437-74.792968 28.191406-116.914062 28.191406-42.128906 0-81.878906-10.175781-116.925781-28.203125-.050781-.65625-.070313-1.316406-.070313-1.972656 0-8.328125 3.375-15.871094 8.839844-21.335938 5.464844-5.464843 13.007812-8.839843 21.335938-8.839843h173.628906c16.667968 0 30.179687 13.507812 30.179687 30.175781zm0 0" fill="#244477"/><path d="m480.386719 90.9375v88.273438h-132.222657l-69.714843 54.679687v-162.714844h182.175781c10.890625 0 19.761719 8.863281 19.761719 19.761719zm0 0" fill="#0069a3"/><path d="m268.71875 365.964844h-174.152344c.8125-29.59375 21.183594-54.289063 48.652344-61.640625 1.027344-.269531 2.058594-.523438 3.101562-.753907 2.789063-.597656 5.644532-1.015624 8.554688-1.261718 1.773438-.140625 3.558594-.214844 5.371094-.214844h42.792968c4.78125 0 9.4375.507812 13.933594 1.476562.253906.058594.515625.117188.769532.171876.753906.171874 1.519531.363281 2.257812.558593.023438.007813.039062.007813.054688.015625 7.398437 1.980469 14.28125 5.21875 20.398437 9.464844 16.632813 11.542969 27.675781 30.5625 28.265625 52.183594zm0 0" fill="#f49f3b"/><path d="m268.71875 365.964844h-141.902344c.8125-29.59375 21.183594-54.289063 48.652344-61.640625 1.027344-.269531 2.058594-.523438 3.101562-.753907 2.789063-.597656 5.644532-1.015624 8.554688-1.261718 1.773438-.140625 3.558594-.214844 5.371094-.214844h10.539062c4.78125 0 9.441406.507812 13.9375 1.476562.253906.058594.515625.117188.769532.171876.753906.171874 1.515624.363281 2.253906.558593.027344.007813.042968.007813.058594.015625 7.398437 1.980469 14.28125 5.21875 20.398437 9.464844 16.632813 11.542969 27.675781 30.5625 28.265625 52.183594zm0 0" fill="#fcd971"/><path d="m220.210938 303.570312-.15625.746094-13.253907 61.648438h-50.335937l-13.246094-61.636719-.164062-.757813zm0 0" fill="#f2efea"/><path d="m181.636719 328.992188-29.578125 16.4375-9-41.851563 18.378906-10.828125" fill="#d8d4ce"/><path d="m181.636719 328.992188 29.578125 16.4375 9-41.851563-18.382813-10.828125" fill="#d8d4ce"/><path d="m93.320312 286.253906v-99.085937c0-10.070313 1.679688-19.933594 4.992188-29.320313 12.402344-35.289062 45.890625-59.007812 83.328125-59.007812 4.636719 0 9.265625.359375 13.761719 1.070312 20.570312 3.214844 39.4375 13.714844 53.121094 29.5625 13.828124 16.019532 21.445312 36.507813 21.445312 57.695313v99.089843" fill="#494e56"/><path d="m129.652344 191.035156c0 35.050782 20.523437 75.601563 31.792968 95.222656h-68.128906v-99.089843c0-10.066407 1.683594-19.929688 4.996094-29.320313 12.324219-35.085937 45.503906-58.734375 82.683594-59-27.15625.679688-51.34375 44.242188-51.34375 92.1875zm0 0" fill="#212733"/><path d="m205.085938 276.785156v28.769532c0 10.53125-6.945313 19.433593-16.507813 22.390624-2.191406.679688-4.523437 1.046876-6.9375 1.046876-12.945313 0-23.4375-10.492188-23.4375-23.4375v-28.769532zm0 0" fill="#eaa27f"/><path d="m205.085938 303.730469v1.824219c0 10.53125-6.945313 19.433593-16.507813 22.390624-8.632813-2.652343-15.121094-10.15625-16.320313-19.339843 1.566407.097656 3.140626.144531 4.722657.144531 4.4375 0 8.785156-.351562 13.019531-1.046875 5.21875-.839844 10.257812-2.183594 15.085938-3.972656zm0 0" fill="#f6ba97"/><path d="m117.339844 229.636719c0 10.855469-7.925782 19.851562-18.308594 21.519531-1.132812.1875-2.300781.28125-3.492188.28125-12.042968 0-21.796874-9.757812-21.796874-21.800781 0-12.039063 9.753906-21.796875 21.796874-21.796875 1.191407 0 2.359376.09375 3.492188.277344 10.382812 1.671874 18.308594 10.667968 18.308594 21.519531zm0 0" fill="#f6ba97"/><g fill="#eaa27f"><path d="m117.339844 229.636719c0 10.855469-7.925782 19.851562-18.308594 21.519531-1.886719-6.855469-2.890625-14.070312-2.890625-21.519531 0-7.445313 1.007813-14.664063 2.890625-21.519531 10.382812 1.671874 18.308594 10.667968 18.308594 21.519531zm0 0"/><path d="m103.332031 229.636719c0 4.304687-3.488281 7.792969-7.792969 7.792969-4.300781 0-7.789062-3.488282-7.789062-7.792969 0-4.300781 3.488281-7.789063 7.789062-7.789063 4.304688 0 7.792969 3.488282 7.792969 7.789063zm0 0"/><path d="m237.617188 201.804688v74.933593c-11.582032 11.054688-26.433594 18.710938-42.957032 21.375-.128906.019531-.269531.042969-.398437.0625-4.105469.65625-8.320313.980469-12.621094.980469-44.792969 0-81.105469-36.3125-81.105469-81.101562v-30.886719c0-3.957031.28125-7.84375.832032-11.648438 19.296874 13.878907 46.964843 12.507813 64.59375-4.15625 5.835937-5.511719 9.894531-12.082031 12.1875-19.042969 1.277343 12.195313 6.855468 24.066407 16.742187 33.410157 11.769531 11.113281 27.320313 16.476562 42.726563 16.074219zm0 0"/></g><path d="m237.617188 201.804688v74.933593c-11.582032 11.054688-26.433594 18.710938-42.957032 21.375-.128906.019531-.269531.042969-.398437.0625-38.792969-6.0625-68.46875-39.632812-68.46875-80.121093v-30.886719c0-.824219.015625-1.640625.042969-2.453125 14.300781 1.464844 29.152343-2.980469 40.125-13.351563 5.835937-5.511719 9.890624-12.082031 12.1875-19.042969 1.277343 12.195313 6.855468 24.066407 16.742187 33.410157 11.769531 11.113281 27.320313 16.476562 42.726563 16.074219zm0 0" fill="#f6ba97"/><path d="m225.199219 211.203125c0-7.4375-6.03125-13.46875-13.46875-13.46875-7.441407 0-13.472657 6.03125-13.472657 13.46875" fill="#eaa27f"/><path d="m165.035156 211.203125c0-7.4375-6.03125-13.46875-13.46875-13.46875-7.441406 0-13.472656 6.03125-13.472656 13.46875" fill="#eaa27f"/><path d="m160.765625 216.9375c0 5.082031-4.121094 9.203125-9.199219 9.203125-5.082031 0-9.203125-4.121094-9.203125-9.203125s4.121094-9.199219 9.203125-9.199219c5.078125 0 9.199219 4.117188 9.199219 9.199219zm0 0" fill="#212733"/><path d="m220.929688 216.9375c0 5.082031-4.117188 9.203125-9.199219 9.203125s-9.199219-4.121094-9.199219-9.203125 4.117188-9.199219 9.199219-9.199219 9.199219 4.117188 9.199219 9.199219zm0 0" fill="#212733"/><path d="m190.847656 240.105469h-18.402344c-2.191406 0-3.96875-1.777344-3.96875-3.96875 0-2.191407 1.777344-3.96875 3.96875-3.96875h18.402344c2.191406 0 3.96875 1.777343 3.96875 3.96875 0 2.191406-1.777344 3.96875-3.96875 3.96875zm0 0" fill="#eaa27f"/><path d="m181.648438 265.214844c-6.792969 0-13.585938-1.699219-19.777344-5.105469-1.746094-.960937-2.382813-3.152344-1.421875-4.898437.960937-1.746094 3.15625-2.382813 4.898437-1.425782 10.207032 5.609375 22.390625 5.609375 32.597656 0 1.742188-.960937 3.9375-.320312 4.898438 1.425782.960938 1.746093.324219 3.9375-1.421875 4.898437-6.191406 3.40625-12.984375 5.105469-19.773437 5.105469zm0 0" fill="#eaa27f"/><path d="m158.890625 215.316406c0 2.175782-1.765625 3.941406-3.945313 3.941406-2.175781 0-3.941406-1.765624-3.941406-3.941406 0-2.179687 1.765625-3.945312 3.941406-3.945312 2.179688 0 3.945313 1.765625 3.945313 3.945312zm0 0" fill="#fff"/><path d="m219.507812 215.316406c0 2.175782-1.765624 3.941406-3.941406 3.941406-2.179687 0-3.945312-1.765624-3.945312-3.941406 0-2.179687 1.765625-3.945312 3.945312-3.945312 2.175782 0 3.941406 1.765625 3.941406 3.945312zm0 0" fill="#fff"/><path d="m236.847656 239.347656c0 5.582032-4.523437 10.105469-10.101562 10.105469s-10.101563-4.523437-10.101563-10.105469c0-5.578125 4.523438-10.101562 10.101563-10.101562s10.101562 4.523437 10.101562 10.101562zm0 0" fill="#eaa27f"/><path d="m146.644531 239.347656c0 5.582032-4.523437 10.105469-10.101562 10.105469-5.582031 0-10.105469-4.523437-10.105469-10.105469 0-5.578125 4.523438-10.101562 10.105469-10.101562 5.578125 0 10.101562 4.523437 10.101562 10.101562zm0 0" fill="#eaa27f"/><path d="m329.046875 13.808594c-15.828125 0-28.660156 12.832031-28.660156 28.660156v191.425781l69.71875-54.679687h113.234375c15.828125 0 28.660156-12.832032 28.660156-28.664063v-108.082031c0-15.828125-12.832031-28.660156-28.660156-28.660156zm0 0" fill="#d4e4ff"/><path d="m419.4375 98.621094c-9.3125 7.601562-9.5 14.0625-9.5 25.082031 0 3.421875-1.710938 6.84375-9.503906 6.84375-6.269532 0-8.738282-2.472656-8.738282-10.644531 0-17.671875 6.078126-25.273438 11.398438-30.023438 6.652344-6.269531 18.625-12.921875 18.625-25.84375 0-10.644531-7.980469-16.34375-19.574219-16.34375-18.621093 0-16.152343 13.109375-24.894531 13.109375-4.371094 0-9.5-2.847656-9.5-9.117187 0-9.125 11.972656-22.425782 34.964844-22.425782 24.136718 0 39.148437 13.871094 39.148437 32.117188 0 19.570312-16.722656 31.925781-22.425781 37.246094zm-5.890625 58.53125c0 6.839844-5.699219 12.921875-12.921875 12.921875s-12.730469-6.082031-12.730469-12.921875c0-7.03125 5.699219-12.921875 12.730469-12.921875s12.921875 5.890625 12.921875 12.921875zm0 0" fill="#152d59"/></svg>