<svg height="512pt" viewBox="0 0 512 512" width="512pt" xmlns="http://www.w3.org/2000/svg"><path d="m512 256c0 141.386719-114.613281 256-256 256s-256-114.613281-256-256 114.613281-256 256-256 256 114.613281 256 256zm0 0" fill="#87a8e6"/><path d="m185.46875 405.53125h141.054688v62.691406h-141.054688zm0 0" fill="#152d59"/><path d="m485.605469 90.9375v278.390625c-9.625 19.46875-21.648438 37.535156-35.691407 53.804687-1.632812.195313-3.28125.300782-4.964843.300782h-377.898438c-1.683593 0-3.332031-.105469-4.964843-.300782-14.050782-16.28125-26.078126-34.335937-35.691407-53.804687v-278.390625c0-22.453125 18.203125-40.65625 40.65625-40.65625h377.898438c22.453125 0 40.65625 18.203125 40.65625 40.65625zm0 0" fill="#244477"/><path d="m464.710938 90.9375v255.265625c0 10.898437-8.871094 19.761719-19.757813 19.761719h-377.898437c-10.898438 0-19.757813-8.863282-19.757813-19.761719v-255.265625c0-10.898438 8.859375-19.761719 19.757813-19.761719h377.898437c10.886719 0 19.757813 8.863281 19.757813 19.761719zm0 0" fill="#ff4079"/><path d="m372.988281 481.824219c0 .667969-.023437 1.324219-.074219 1.984375-35.046874 18.023437-74.792968 28.191406-116.914062 28.191406-42.128906 0-81.878906-10.175781-116.925781-28.203125-.050781-.65625-.070313-1.316406-.070313-1.972656 0-8.328125 3.375-15.871094 8.839844-21.335938 5.464844-5.464843 13.007812-8.839843 21.335938-8.839843h173.628906c16.667968 0 30.179687 13.507812 30.179687 30.175781zm0 0" fill="#244477"/><path d="m418.777344 315.925781c-13.007813 19.957031-29.089844 36.707031-47.21875 50.039063h-228.75c-81.960938-60.15625-103.527344-174.644532-47.300782-260.859375 8.222657-12.613281 17.667969-23.9375 28.074219-33.929688h267.097657c65.820312 62.925781 79.652343 165.710938 28.097656 244.75zm0 0" fill="#fff"/><path d="m181.851562 325.972656c-63.664062-41.519531-81.679687-127.085937-40.164062-190.75 41.519531-63.660156 127.085938-81.675781 190.75-40.160156 63.660156 41.519531 81.675781 127.085938 40.160156 190.75-41.515625 63.660156-127.085937 81.675781-190.746094 40.160156zm0 0" fill="#ff4079"/><path d="m211.96875 279.789062c-38.199219-24.910156-49.007812-76.25-24.097656-114.449218 24.910156-38.195313 76.25-49.007813 114.449218-24.097656 38.195313 24.914062 49.003907 76.253906 24.09375 114.449218-24.90625 38.199219-76.25 49.007813-114.445312 24.097656zm0 0" fill="#fff"/><path d="m242.085938 233.609375c-12.730469-8.304687-16.335938-25.417969-8.03125-38.152344 8.304687-12.730469 25.417968-16.335937 38.148437-8.03125 12.734375 8.304688 16.335937 25.417969 8.035156 38.148438-8.304687 12.734375-25.421875 16.335937-38.152343 8.035156zm0 0" fill="#ff4079"/><path d="m264.9375 215.597656c-3.507812 5.375-10.714844 6.890625-16.089844 3.386719l-205.257812-133.859375 12.699218-19.476562 205.261719 133.859374c2.6875 1.753907 4.414063 4.433594 5.027344 7.34375.25 1.195313.3125 2.425782.175781 3.644532-.1875 1.769531-.78125 3.511718-1.816406 5.101562zm0 0" fill="#87a8e6"/><path d="m266.753906 210.496094c-3.671875 2.105468-8.363281 2.132812-12.148437-.335938l-205.261719-133.863281 6.945312-10.648437 205.261719 133.859374c2.6875 1.753907 4.414063 4.433594 5.027344 7.34375.25 1.195313.3125 2.425782.175781 3.644532zm0 0" fill="#d4e4ff"/><path d="m88.558594 20.933594 45.035156 29.371094c5.921875 3.859374 9.164062 10.71875 8.394531 17.738281l-5.464843 49.933593-80.238282-52.328124 3.402344-31.050782c1.519531-13.894531 17.164062-21.296875 28.871094-13.664062zm0 0" fill="#494e56"/><path d="m15.679688 132.6875 45.035156 29.367188c5.917968 3.863281 13.503906 4.066406 19.621094.53125l43.488281-25.136719-80.238281-52.324219-27.046876 15.632812c-12.101562 6.992188-12.566406 24.292969-.859374 31.929688zm0 0" fill="#212733"/></svg>