<svg height="512pt" viewBox="0 0 512 512" width="512pt" xmlns="http://www.w3.org/2000/svg"><path d="m512 256c0 141.386719-114.613281 256-256 256s-256-114.613281-256-256 114.613281-256 256-256 256 114.613281 256 256zm0 0" fill="#d4e4ff"/><path d="m185.472656 405.53125h141.054688v62.691406h-141.054688zm0 0" fill="#152d59"/><path d="m485.609375 90.9375v278.390625c-9.625 19.46875-21.652344 37.53125-35.695313 53.800781-1.628906.199219-3.28125.304688-4.960937.304688h-377.898437c-1.683594 0-3.332032-.105469-4.964844-.304688-14.054688-16.277344-26.078125-34.332031-35.691406-53.800781v-278.390625c0-22.457031 18.199218-40.65625 40.65625-40.65625h377.898437c22.453125 0 40.65625 18.199219 40.65625 40.65625zm0 0" fill="#244477"/><path d="m464.710938 90.9375v255.265625c0 10.898437-8.871094 19.761719-19.757813 19.761719h-377.898437c-10.898438 0-19.757813-8.863282-19.757813-19.761719v-255.265625c0-10.898438 8.859375-19.761719 19.757813-19.761719h377.898437c10.886719 0 19.757813 8.863281 19.757813 19.761719zm0 0" fill="#ff4079"/><g fill="#ce2b5c"><path d="m163.632812 187.511719h-77.339843c-5.960938 0-10.796875-4.835938-10.796875-10.796875 0-5.964844 4.835937-10.796875 10.796875-10.796875h77.339843c5.964844 0 10.796876 4.832031 10.796876 10.796875 0 5.960937-4.832032 10.796875-10.796876 10.796875zm0 0"/><path d="m163.632812 229.8125h-77.339843c-5.960938 0-10.796875-4.835938-10.796875-10.796875 0-5.964844 4.835937-10.796875 10.796875-10.796875h77.339843c5.964844 0 10.796876 4.832031 10.796876 10.796875 0 5.960937-4.832032 10.796875-10.796876 10.796875zm0 0"/><path d="m163.632812 272.113281h-77.339843c-5.960938 0-10.796875-4.835937-10.796875-10.796875 0-5.964844 4.835937-10.796875 10.796875-10.796875h77.339843c5.964844 0 10.796876 4.832031 10.796876 10.796875 0 5.960938-4.832032 10.796875-10.796876 10.796875zm0 0"/><path d="m163.632812 314.414062h-77.339843c-5.960938 0-10.796875-4.835937-10.796875-10.796874 0-5.964844 4.835937-10.796876 10.796875-10.796876h77.339843c5.964844 0 10.796876 4.832032 10.796876 10.796876 0 5.960937-4.832032 10.796874-10.796876 10.796874zm0 0"/><path d="m425.972656 187.511719h-198.191406c-5.960938 0-10.796875-4.835938-10.796875-10.796875 0-5.964844 4.835937-10.796875 10.796875-10.796875h198.191406c5.964844 0 10.796875 4.832031 10.796875 10.796875 0 5.960937-4.832031 10.796875-10.796875 10.796875zm0 0"/><path d="m425.972656 229.8125h-198.191406c-5.960938 0-10.796875-4.835938-10.796875-10.796875 0-5.964844 4.835937-10.796875 10.796875-10.796875h198.191406c5.964844 0 10.796875 4.832031 10.796875 10.796875 0 5.960937-4.832031 10.796875-10.796875 10.796875zm0 0"/><path d="m425.972656 272.113281h-198.191406c-5.960938 0-10.796875-4.835937-10.796875-10.796875 0-5.964844 4.835937-10.796875 10.796875-10.796875h198.191406c5.964844 0 10.796875 4.832031 10.796875 10.796875 0 5.960938-4.832031 10.796875-10.796875 10.796875zm0 0"/><path d="m425.972656 314.414062h-198.191406c-5.960938 0-10.796875-4.835937-10.796875-10.796874 0-5.964844 4.835937-10.796876 10.796875-10.796876h198.191406c5.964844 0 10.796875 4.832032 10.796875 10.796876 0 5.960937-4.832031 10.796874-10.796875 10.796874zm0 0"/></g><path d="m372.988281 481.824219c0 .667969-.019531 1.324219-.070312 1.984375-35.046875 18.023437-74.796875 28.191406-116.914063 28.191406-42.132812 0-81.878906-10.179688-116.925781-28.203125-.050781-.65625-.070313-1.316406-.070313-1.972656 0-8.328125 3.375-15.875 8.839844-21.339844s13.007813-8.839844 21.335938-8.839844h173.628906c16.667969 0 30.175781 13.511719 30.175781 30.179688zm0 0" fill="#244477"/><path d="m365.710938 218.570312c0 69.246094-56.136719 125.382813-125.382813 125.382813s-125.382813-56.136719-125.382813-125.382813c0-69.246093 56.136719-125.382812 125.382813-125.382812s125.382813 56.136719 125.382813 125.382812zm0 0" fill="#ce2b5c"/><path d="m381.382812 218.570312c0 69.246094-56.132812 125.382813-125.378906 125.382813s-125.382812-56.136719-125.382812-125.382813c0-69.246093 56.136718-125.382812 125.382812-125.382812s125.378906 56.136719 125.378906 125.382812zm0 0" fill="#fcd971"/><path d="m338.011719 177.566406-41.003907-41.003906-41.003906 41.003906-41.003906-41.003906-41.003906 41.003906 41.003906 41.003906-41.003906 41.003907 41.003906 41.003906 41.003906-41.003906 41.003906 41.003906 41.003907-41.003906-41.003907-41.003907zm0 0" fill="#ce2b5c"/><path d="m396.601562 71.175781-6.269531 82.023438h28.210938l-1.046875 100.304687 36.050781-139.484375h-30.300781l11.257812-42.84375" fill="#244477"/></svg>