<svg height="512pt" viewBox="0 0 512 512" width="512pt" xmlns="http://www.w3.org/2000/svg"><path d="m512 256c0 36.445312-7.617188 71.125-21.347656 102.503906-5.027344 11.484375-10.855469 22.515625-17.441406 33.039063-45.230469 72.339843-125.605469 120.457031-217.210938 120.457031-91.628906 0-172.023438-48.140625-217.246094-120.507812-6.582031-10.523438-12.410156-21.558594-17.425781-33.03125-13.722656-31.367188-21.328125-66.027344-21.328125-102.460938 0-58.503906 19.625-112.429688 52.652344-155.542969 7.585937-9.894531 15.882812-19.226562 24.804687-27.921875 46.121094-44.886718 109.097657-72.535156 178.542969-72.535156 69.421875 0 132.386719 27.628906 178.5 72.496094 8.933594 8.691406 17.230469 18.023437 24.816406 27.917968 33.050782 43.125 52.683594 97.070313 52.683594 155.585938zm0 0" fill="#228bd1"/><path d="m185.464844 405.53125h141.054687v62.691406h-141.054687zm0 0" fill="#152d59"/><path d="m485.601562 90.9375v278.390625c-9.625 19.46875-21.652343 37.535156-35.695312 53.804687-1.628906.199219-3.28125.300782-4.960938.300782h-377.898437c-1.683594 0-3.332031-.101563-4.964844-.300782-14.050781-16.28125-26.078125-34.335937-35.691406-53.804687v-278.390625c0-22.453125 18.203125-40.65625 40.65625-40.65625h377.898437c22.453126 0 40.65625 18.203125 40.65625 40.65625zm0 0" fill="#244477"/><path d="m464.707031 90.9375v255.269531c0 10.898438-8.871093 19.757813-19.757812 19.757813h-377.898438c-10.898437 0-19.757812-8.859375-19.757812-19.757813v-255.269531c0-10.898438 8.859375-19.757812 19.757812-19.757812h377.898438c10.886719 0 19.757812 8.859374 19.757812 19.757812zm0 0" fill="#ff4079"/><g fill="#244477"><path d="m372.980469 481.824219c0 .667969-.019531 1.328125-.070313 1.984375-35.046875 18.023437-74.796875 28.191406-116.914062 28.191406-42.132813 0-81.878906-10.175781-116.925782-28.203125-.050781-.65625-.070312-1.316406-.070312-1.972656 0-8.328125 3.375-15.871094 8.839844-21.335938 5.464844-5.464843 13.007812-8.839843 21.335937-8.839843h173.628907c16.667968 0 30.175781 13.507812 30.175781 30.175781zm0 0"/><path d="m62.6875 285.460938c0-.671876.222656-1.566407.445312-2.457032l41.539063-136.230468c2.457031-7.816407 12.507813-11.613282 22.777344-11.613282 10.273437 0 20.324219 3.796875 22.78125 11.613282l41.761719 136.230468c.222656.890625.449218 1.785156.449218 2.457032 0 8.261718-12.730468 14.292968-22.335937 14.292968-5.582031 0-10.050781-1.789062-11.390625-6.476562l-7.589844-27.917969h-47.125l-7.589844 27.917969c-1.34375 4.6875-5.808594 6.476562-11.390625 6.476562-9.605469 0-22.332031-6.03125-22.332031-14.292968zm81.066406-46.898438-16.304687-59.855469-16.300781 59.855469zm0 0"/><path d="m265.476562 136.5c30.820313 0 54.9375 14.292969 54.9375 52.707031v57.839844c0 38.414063-24.121093 52.707031-54.9375 52.707031h-39.53125c-9.152343 0-15.183593-4.914062-15.183593-10.496094v-142.261718c0-5.582032 6.03125-10.496094 15.183593-10.496094zm-19.875 30.371094v102.507812h19.875c12.507813 0 20.097657-7.144531 20.097657-22.332031v-57.84375c0-15.183594-7.589844-22.332031-20.097657-22.332031zm0 0"/><path d="m409.242188 255.980469c0-27.023438-70.796876-22.332031-70.796876-74.589844 0-33.5 29.257813-46.230469 57.171876-46.230469 11.835937 0 44.445312 2.230469 44.445312 19.652344 0 6.027344-4.023438 18.3125-13.847656 18.3125-8.042969 0-12.285156-8.484375-30.597656-8.484375-15.855469 0-22.332032 6.476563-22.332032 13.398437 0 22.332032 70.796875 18.089844 70.796875 74.367188 0 32.160156-23.449219 49.578125-55.832031 49.578125-29.257812 0-53.824219-14.292969-53.824219-29.03125 0-7.59375 6.699219-18.761719 15.1875-18.761719 10.496094 0 17.195313 16.527344 37.964844 16.527344 10.273437 0 21.664063-4.019531 21.664063-14.738281zm0 0"/></g><path d="m464.707031 340.550781v5.65625c0 10.898438-8.871093 19.757813-19.757812 19.757813h-8.695313l-180.308594-124.804688-32.566406-22.535156-170.726562-118.167969-5.359375-3.710937v-5.808594c0-10.898438 8.859375-19.757812 19.757812-19.757812h8.441407l1.964843 1.355468 178.5 123.539063 32.570313 22.539062zm0 0" fill="#fcd971"/><path d="m464.707031 90.9375v5.746094l-5.390625 3.730468-170.789062 118.199219-32.582032 22.546875-180.304687 124.804688h-8.589844c-10.898437 0-19.757812-8.859375-19.757812-19.757813v-5.71875l176.085937-121.863281 32.578125-22.550781 178.542969-123.578125 1.902344-1.316406h8.546875c10.886719 0 19.757812 8.859374 19.757812 19.757812zm0 0" fill="#fcd971"/></svg>