<svg height="512pt" viewBox="0 0 512 512" width="512pt" xmlns="http://www.w3.org/2000/svg"><path d="m512 256c0 141.386719-114.613281 256-256 256s-256-114.613281-256-256 114.613281-256 256-256 256 114.613281 256 256zm0 0" fill="#ff4079"/><path d="m185.46875 405.53125h141.054688v62.691406h-141.054688zm0 0" fill="#152d59"/><path d="m485.605469 90.9375v278.390625c-9.625 19.46875-21.648438 37.535156-35.691407 53.804687-1.632812.195313-3.28125.300782-4.964843.300782h-377.898438c-1.683593 0-3.332031-.105469-4.964843-.300782-14.050782-16.28125-26.078126-34.335937-35.691407-53.804687v-278.390625c0-22.453125 18.203125-40.65625 40.65625-40.65625h377.898438c22.453125 0 40.65625 18.203125 40.65625 40.65625zm0 0" fill="#244477"/><path d="m464.707031 90.9375v255.269531c0 10.898438-8.871093 19.757813-19.757812 19.757813h-377.898438c-10.898437 0-19.757812-8.859375-19.757812-19.757813v-255.269531c0-10.898438 8.859375-19.757812 19.757812-19.757812h377.898438c10.886719 0 19.757812 8.859374 19.757812 19.757812zm0 0" fill="#d4e4ff"/><path d="m372.988281 481.824219c0 .667969-.023437 1.324219-.074219 1.984375-35.046874 18.023437-74.792968 28.191406-116.914062 28.191406-42.128906 0-81.878906-10.175781-116.925781-28.203125-.050781-.65625-.070313-1.316406-.070313-1.972656 0-8.328125 3.375-15.871094 8.839844-21.335938 5.464844-5.464843 13.007812-8.839843 21.335938-8.839843h173.628906c16.667968 0 30.179687 13.507812 30.179687 30.175781zm0 0" fill="#244477"/><path d="m66.0625 95.167969 100.078125 43.039062 11.785156-51.796875 66.277344 66.679688 20.34375-58.769532 37.433594 49.113282 72.136719-68.597656-16.734376 97.878906 90.882813-33.460938-61.648437 82.546875 54.332031 70.007813-79.347657-1.207032 15.914063 50.621094-69.660156-50.460937-19.960938 49.957031-41.265625-49.453125-43.765625 61.859375-19.6875-69.980469-104.804687 52.546875 33.394531-79.027344-48.023437-30.683593 61.648437-33.4375zm0 0" fill="#212733"/></svg>