<svg height="512pt" viewBox="-5 0 512 512" width="512pt" xmlns="http://www.w3.org/2000/svg"><path d="m502.03125 260.984375c0 138.632813-112.382812 251.015625-251.015625 251.015625s-251.015625-112.382812-251.015625-251.015625 112.382812-251.015625 251.015625-251.015625 251.015625 112.382812 251.015625 251.015625zm0 0" fill="#fcd971"/><path d="m181.859375 407.605469h138.308594v61.46875h-138.308594zm0 0" fill="#152d59"/><path d="m476.148438 99.136719v272.972656c-9.433594 19.085937-21.226563 36.800781-34.996094 52.753906-1.597656.191407-3.21875.296875-4.867188.296875h-370.539062c-1.648438 0-3.269532-.105468-4.867188-.296875-13.78125-15.964843-25.574218-33.667969-35-52.753906v-272.972656c0-22.019531 17.847656-39.867188 39.867188-39.867188h370.539062c22.015625 0 39.863282 17.847657 39.863282 39.867188zm0 0" fill="#244477"/><path d="m455.660156 99.136719v250.296875c0 10.6875-8.695312 19.375-19.371094 19.375h-370.539062c-10.6875 0-19.375-8.6875-19.375-19.375v-250.296875c0-10.6875 8.6875-19.375 19.375-19.375h370.539062c10.675782 0 19.371094 8.6875 19.371094 19.375zm0 0" fill="#228bd1"/><path d="m365.722656 482.410156c0 .65625-.019531 1.300782-.070312 1.949219-34.363282 17.671875-73.335938 27.640625-114.636719 27.640625-41.308594 0-80.285156-9.980469-114.648437-27.652344-.050782-.644531-.070313-1.292968-.070313-1.9375 0-8.164062 3.308594-15.5625 8.667969-20.921875 5.355468-5.355469 12.753906-8.667969 20.921875-8.667969h170.246093c16.34375 0 29.589844 13.25 29.589844 29.589844zm0 0" fill="#244477"/><g fill="#0069a3"><path d="m160.445312 193.832031h-75.832031c-5.847656 0-10.589843-4.742187-10.589843-10.589843 0-5.84375 4.742187-10.585938 10.589843-10.585938h75.832031c5.847657 0 10.585938 4.742188 10.585938 10.585938 0 5.847656-4.738281 10.589843-10.585938 10.589843zm0 0"/><path d="m160.445312 235.308594h-75.832031c-5.847656 0-10.589843-4.742188-10.589843-10.585938 0-5.847656 4.742187-10.589844 10.589843-10.589844h75.832031c5.847657 0 10.585938 4.742188 10.585938 10.589844 0 5.84375-4.738281 10.585938-10.585938 10.585938zm0 0"/><path d="m160.445312 276.785156h-75.832031c-5.847656 0-10.589843-4.738281-10.589843-10.585937 0-5.847657 4.742187-10.589844 10.589843-10.589844h75.832031c5.847657 0 10.585938 4.742187 10.585938 10.589844 0 5.847656-4.738281 10.585937-10.585938 10.585937zm0 0"/><path d="m160.445312 318.261719h-75.832031c-5.847656 0-10.589843-4.738281-10.589843-10.585938 0-5.847656 4.742187-10.585937 10.589843-10.585937h75.832031c5.847657 0 10.585938 4.738281 10.585938 10.585937 0 5.847657-4.738281 10.585938-10.585938 10.585938zm0 0"/><path d="m417.675781 193.832031h-264.574219c-5.847656 0-10.585937-4.742187-10.585937-10.589843 0-5.84375 4.738281-10.585938 10.585937-10.585938h264.574219c5.847657 0 10.585938 4.742188 10.585938 10.585938 0 5.847656-4.738281 10.589843-10.585938 10.589843zm0 0"/><path d="m417.675781 235.308594h-264.574219c-5.847656 0-10.585937-4.742188-10.585937-10.585938 0-5.847656 4.738281-10.589844 10.585937-10.589844h264.574219c5.847657 0 10.585938 4.742188 10.585938 10.589844 0 5.84375-4.738281 10.585938-10.585938 10.585938zm0 0"/><path d="m417.675781 276.785156h-264.574219c-5.847656 0-10.585937-4.738281-10.585937-10.585937 0-5.847657 4.738281-10.589844 10.585937-10.589844h264.574219c5.847657 0 10.585938 4.742187 10.585938 10.589844 0 5.847656-4.738281 10.585937-10.585938 10.585937zm0 0"/><path d="m417.675781 318.261719h-264.574219c-5.847656 0-10.585937-4.738281-10.585937-10.585938 0-5.847656 4.738281-10.585937 10.585937-10.585937h264.574219c5.847657 0 10.585938 4.738281 10.585938 10.585937 0 5.847657-4.738281 10.585938-10.585938 10.585938zm0 0"/><path d="m371.699219 121.152344v183.980468c0 22.988282-5.652344 44.648438-15.652344 63.675782h-242.851563c-10-19.027344-15.652343-40.695313-15.652343-63.675782l.007812-113.519531v-70.460937h78.605469v23.953125l.007812 46.507812-.007812 113.519531c0 32.242188 26.226562 58.46875 58.460938 58.46875 32.242187 0 58.46875-26.226562 58.46875-58.46875v-183.980468zm0 0"/></g><path d="m388.09375 105.785156v183.976563c0 29.449219-9.28125 56.710937-25.070312 79.046875h-224.007813c-15.800781-22.335938-25.082031-49.609375-25.082031-79.046875l.011718-113.519531v-70.457032h78.601563l.011719 70.457032-.011719 113.519531c0 32.246093 26.230469 58.472656 58.460937 58.472656 32.242188 0 58.472657-26.226563 58.472657-58.472656v-183.976563zm0 0" fill="#ff4079"/><path d="m113.941406 105.78125 78.605469.007812.007813 70.449219h-78.613282zm0 0" fill="#fff"/><path d="m309.484375 105.78125h78.613281v70.457031h-78.613281zm0 0" fill="#fff"/><path d="m253.8125 0-50.285156 96.660156h42.835937v74.820313l47.023438-99.652344h-39.574219zm0 0" fill="#ff4079"/></svg>