<svg height="512pt" viewBox="0 0 512 512" width="512pt" xmlns="http://www.w3.org/2000/svg"><path d="m512 256c0 141.386719-114.613281 256-256 256s-256-114.613281-256-256 114.613281-256 256-256 256 114.613281 256 256zm0 0" fill="#d4e4ff"/><path d="m185.46875 405.53125h141.054688v62.691406h-141.054688zm0 0" fill="#152d59"/><path d="m485.605469 90.9375v278.390625c-9.625 19.46875-21.648438 37.535156-35.691407 53.804687-1.632812.195313-3.28125.300782-4.964843.300782h-377.898438c-1.683593 0-3.332031-.105469-4.964843-.300782-14.050782-16.28125-26.078126-34.335937-35.691407-53.804687v-278.390625c0-22.453125 18.203125-40.65625 40.65625-40.65625h377.898438c22.453125 0 40.65625 18.203125 40.65625 40.65625zm0 0" fill="#244477"/><path d="m464.707031 90.9375v255.269531c0 10.898438-8.871093 19.757813-19.757812 19.757813h-377.898438c-10.898437 0-19.757812-8.859375-19.757812-19.757813v-255.269531c0-10.898438 8.859375-19.757812 19.757812-19.757812h377.898438c10.886719 0 19.757812 8.859374 19.757812 19.757812zm0 0" fill="#fcd971"/><g fill="#f49f3b"><path d="m422.011719 214.152344h-332.023438c-5.964843 0-10.796875-4.832032-10.796875-10.796875 0-5.960938 4.832032-10.796875 10.796875-10.796875h332.023438c5.964843 0 10.796875 4.835937 10.796875 10.796875 0 5.964843-4.832032 10.796875-10.796875 10.796875zm0 0"/><path d="m422.011719 256.453125h-332.023438c-5.964843 0-10.796875-4.832031-10.796875-10.796875 0-5.960938 4.832032-10.796875 10.796875-10.796875h332.023438c5.964843 0 10.796875 4.835937 10.796875 10.796875 0 5.964844-4.832032 10.796875-10.796875 10.796875zm0 0"/><path d="m422.011719 298.753906h-332.023438c-5.964843 0-10.796875-4.832031-10.796875-10.796875 0-5.960937 4.832032-10.796875 10.796875-10.796875h332.023438c5.964843 0 10.796875 4.835938 10.796875 10.796875 0 5.964844-4.832032 10.796875-10.796875 10.796875zm0 0"/><path d="m422.011719 341.054688h-332.023438c-5.964843 0-10.796875-4.832032-10.796875-10.796876 0-5.960937 4.832032-10.796874 10.796875-10.796874h332.023438c5.964843 0 10.796875 4.835937 10.796875 10.796874 0 5.964844-4.832032 10.796876-10.796875 10.796876zm0 0"/><path d="m422.011719 129.550781h-332.023438c-5.964843 0-10.796875-4.832031-10.796875-10.796875 0-5.960937 4.832032-10.796875 10.796875-10.796875h332.023438c5.964843 0 10.796875 4.835938 10.796875 10.796875 0 5.964844-4.832032 10.796875-10.796875 10.796875zm0 0"/><path d="m422.011719 171.851562h-332.023438c-5.964843 0-10.796875-4.832031-10.796875-10.796874 0-5.960938 4.832032-10.796876 10.796875-10.796876h332.023438c5.964843 0 10.796875 4.835938 10.796875 10.796876 0 5.964843-4.832032 10.796874-10.796875 10.796874zm0 0"/></g><path d="m372.988281 481.824219c0 .667969-.023437 1.324219-.074219 1.984375-35.046874 18.023437-74.792968 28.191406-116.914062 28.191406-42.128906 0-81.878906-10.175781-116.925781-28.203125-.050781-.65625-.070313-1.316406-.070313-1.972656 0-8.328125 3.375-15.871094 8.839844-21.335938 5.464844-5.464843 13.007812-8.839843 21.335938-8.839843h173.628906c16.667968 0 30.179687 13.507812 30.179687 30.175781zm0 0" fill="#244477"/><path d="m231.703125 283.351562h-210.046875c-8.511719 0-15.417969-6.902343-15.417969-15.417968v-227.636719h240.886719v227.636719c0 8.515625-6.902344 15.417968-15.421875 15.417968zm0 0" fill="#fff"/><path d="m247.125 37.261719v45.472656h-240.886719v-45.472656c0-5.945313 4.832031-10.78125 10.78125-10.78125h219.324219c5.949219 0 10.78125 4.835937 10.78125 10.78125zm0 0" fill="#ff4079"/><path d="m50.042969 54.605469c0 8.144531-6.601563 14.746093-14.746094 14.746093s-14.746094-6.601562-14.746094-14.746093c0-8.140625 6.601563-14.742188 14.746094-14.742188s14.746094 6.601563 14.746094 14.742188zm0 0" fill="#244477"/><path d="m87.597656 54.605469c0 8.144531-6.601562 14.746093-14.746094 14.746093-8.144531 0-14.746093-6.601562-14.746093-14.746093 0-8.140625 6.601562-14.742188 14.746093-14.742188 8.144532 0 14.746094 6.601563 14.746094 14.742188zm0 0" fill="#fff"/><path d="m125.152344 54.605469c0 8.144531-6.601563 14.746093-14.746094 14.746093s-14.746094-6.601562-14.746094-14.746093c0-8.140625 6.601563-14.742188 14.746094-14.742188s14.746094 6.601563 14.746094 14.742188zm0 0" fill="#fff"/><path d="m247.125 238.519531v90.90625l-50.300781-50.300781zm0 0" fill="#fff"/><path d="m280.617188 283.351562h210.046874c8.515626 0 15.417969-6.902343 15.417969-15.417968v-227.636719h-240.882812v227.636719c0 8.515625 6.902343 15.417968 15.417969 15.417968zm0 0" fill="#fff"/><path d="m506.082031 37.261719v45.472656h-240.882812v-45.472656c0-5.945313 4.832031-10.78125 10.777343-10.78125h219.328126c5.945312 0 10.777343 4.835937 10.777343 10.78125zm0 0" fill="#228bd1"/><path d="m309.003906 54.605469c0 8.144531-6.601562 14.746093-14.746094 14.746093-8.144531 0-14.746093-6.601562-14.746093-14.746093 0-8.140625 6.601562-14.742188 14.746093-14.742188 8.144532 0 14.746094 6.601563 14.746094 14.742188zm0 0" fill="#244477"/><path d="m346.558594 54.605469c0 8.144531-6.601563 14.746093-14.746094 14.746093s-14.746094-6.601562-14.746094-14.746093c0-8.140625 6.601563-14.742188 14.746094-14.742188s14.746094 6.601563 14.746094 14.742188zm0 0" fill="#fff"/><path d="m384.113281 54.605469c0 8.144531-6.601562 14.746093-14.746093 14.746093-8.144532 0-14.746094-6.601562-14.746094-14.746093 0-8.140625 6.601562-14.742188 14.746094-14.742188 8.144531 0 14.746093 6.601563 14.746093 14.742188zm0 0" fill="#fff"/><path d="m265.199219 238.519531v90.90625l50.296875-50.300781zm0 0" fill="#fff"/><path d="m56.351562 243.28125c0-.433594.21875-1.304688.4375-2.175781l42.023438-136.96875c1.960938-6.53125 10.019531-9.582031 18.074219-9.582031 8.273437 0 16.332031 3.050781 18.292969 9.582031l42.027343 136.96875c.214844.871093.433594 1.523437.433594 2.175781 0 6.75-10.234375 11.757812-17.855469 11.757812-4.789062 0-8.492187-1.523437-9.582031-5.660156l-8.273437-28.960937h-49.863282l-8.277344 28.960937c-1.085937 4.136719-4.789062 5.660156-9.582031 5.660156-7.621093 0-17.855469-4.789062-17.855469-11.757812zm79.480469-45.074219-18.945312-66.851562-18.941407 66.851562zm0 0" fill="#228bd1"/><path d="m343.003906 104.789062c0-5.878906 6.09375-8.925781 12.410156-8.925781h42.027344c22.644532 0 43.769532 7.402344 43.769532 38.324219 0 17.855469-6.96875 29.613281-18.511719 34.625 13.285156 5.226562 22.429687 13.71875 22.429687 35.492188v4.574218c0 33.96875-18.945312 46.164063-43.550781 46.164063h-46.164063c-7.621093 0-12.410156-4.140625-12.410156-8.710938zm28.089844 52.917969h24.386719c11.757812 0 17.421875-7.625 17.421875-18.730469 0-11.324218-6.53125-18.289062-17.640625-18.289062h-24.171875v37.019531zm24.605469 72.511719c13.28125 0 21.121093-7.1875 21.121093-23.738281v-3.480469c0-16.984375-7.839843-23.085938-21.121093-23.085938h-24.605469v50.304688zm0 0" fill="#ff4079"/></svg>