<svg height="512pt" viewBox="0 0 512 512" width="512pt" xmlns="http://www.w3.org/2000/svg"><path d="m512 256c0 141.386719-114.613281 256-256 256s-256-114.613281-256-256 114.613281-256 256-256 256 114.613281 256 256zm0 0" fill="#f49f3b"/><path d="m185.472656 405.53125h141.054688v62.691406h-141.054688zm0 0" fill="#152d59"/><path d="m485.609375 90.9375v278.390625c-9.625 19.46875-21.652344 37.53125-35.695313 53.800781-1.628906.199219-3.28125.304688-4.960937.304688h-377.898437c-1.683594 0-3.332032-.105469-4.964844-.304688-14.054688-16.277344-26.078125-34.332031-35.691406-53.800781v-278.390625c0-22.457031 18.199218-40.65625 40.65625-40.65625h377.898437c22.453125 0 40.65625 18.199219 40.65625 40.65625zm0 0" fill="#244477"/><path d="m464.710938 90.9375v255.265625c0 10.898437-8.871094 19.761719-19.757813 19.761719h-377.898437c-10.898438 0-19.757813-8.863282-19.757813-19.761719v-255.265625c0-10.898438 8.859375-19.761719 19.757813-19.761719h377.898437c10.886719 0 19.757813 8.863281 19.757813 19.761719zm0 0" fill="#fff"/><path d="m372.988281 481.824219c0 .667969-.019531 1.324219-.070312 1.984375-35.046875 18.023437-74.796875 28.191406-116.914063 28.191406-42.132812 0-81.878906-10.179688-116.925781-28.203125-.050781-.65625-.070313-1.316406-.070313-1.972656 0-8.328125 3.375-15.875 8.839844-21.339844s13.007813-8.839844 21.335938-8.839844h173.628906c16.667969 0 30.175781 13.511719 30.175781 30.179688zm0 0" fill="#244477"/><path d="m442.746094 88.726562v163.378907h-150.617188v-114.867188l48.507813-48.511719zm0 0" fill="#228bd1"/><path d="m292.128906 137.242188 48.511719-48.515626v48.515626zm0 0" fill="#0069a3"/><path d="m220.703125 27.074219v163.382812h-150.617187v-114.867187l48.511718-48.515625zm0 0" fill="#ff4079"/><path d="m403.941406 169.5h-77.335937c-5.964844 0-10.796875-4.832031-10.796875-10.796875s4.832031-10.796875 10.796875-10.796875h77.339843c5.960938 0 10.796876 4.832031 10.796876 10.796875 0 5.960937-4.835938 10.796875-10.800782 10.796875zm0 0" fill="#212733"/><path d="m173.566406 78.585938c-5.917968-5.917969-15.515625-5.917969-21.4375 0l-10.71875 10.71875-10.71875-10.71875c-5.921875-5.917969-15.519531-5.917969-21.441406 0-5.917969 5.921874-5.917969 15.519531 0 21.441406l10.722656 10.71875-10.722656 10.71875c-5.917969 5.921875-5.917969 15.519531 0 21.441406 5.921875 5.917969 15.519531 5.917969 21.441406 0l10.71875-10.722656 10.71875 10.722656c5.921875 5.917969 15.519532 5.917969 21.441406 0 5.917969-5.921875 5.917969-15.519531 0-21.441406l-10.722656-10.71875 10.722656-10.71875c5.917969-5.921875 5.917969-15.519532-.003906-21.441406zm0 0" fill="#212733"/><path d="m313.410156 155.503906v163.378906h-150.613281v-114.867187l48.507813-48.511719zm0 0" fill="#fcd971"/><path d="m162.796875 204.019531 48.507813-48.515625v48.515625zm0 0" fill="#f49f3b"/><path d="m276.773438 236.601562h-77.339844c-5.964844 0-10.796875-4.832031-10.796875-10.796874 0-5.964844 4.832031-10.796876 10.796875-10.796876h77.339844c5.960937 0 10.796874 4.832032 10.796874 10.796876 0 5.964843-4.835937 10.796874-10.796874 10.796874zm0 0" fill="#212733"/><path d="m276.773438 278.902344h-77.339844c-5.964844 0-10.796875-4.832032-10.796875-10.796875 0-5.960938 4.832031-10.796875 10.796875-10.796875h77.339844c5.960937 0 10.796874 4.835937 10.796874 10.796875 0 5.964843-4.835937 10.796875-10.796874 10.796875zm0 0" fill="#212733"/><path d="m70.085938 75.589844 48.511718-48.515625v48.515625zm0 0" fill="#ce2b5c"/></svg>