<svg height="512pt" viewBox="0 0 512 512" width="512pt" xmlns="http://www.w3.org/2000/svg"><path d="m512 255.894531c0 141.328125-114.566406 255.894531-255.894531 255.894531-39.375 0-76.664063-8.886718-109.980469-24.773437-10.300781-4.910156-20.222656-10.488281-29.707031-16.679687-8.648438-5.652344-16.941407-11.804688-24.828125-18.425782-12.207032-10.265625-23.445313-21.652344-33.546875-33.988281-36.148438-44.117187-57.832031-100.550781-57.832031-162.027344 0-141.328125 114.566406-255.894531 255.894531-255.894531s255.894531 114.566406 255.894531 255.894531zm0 0" fill="#ce2b5c"/><path d="m185.605469 405.363281h140.996093v62.664063h-140.996093zm0 0" fill="#152d59"/><path d="m485.617188 90.898438v278.277343c-9.621094 19.460938-21.640626 37.519531-35.679688 53.78125-1.628906.199219-3.28125.304688-4.960938.304688h-377.742187c-1.679687 0-3.332031-.105469-4.960937-.304688-14.046876-16.273437-26.070313-34.320312-35.679688-53.78125v-278.277343c0-22.445313 18.195312-40.636719 40.640625-40.636719h377.742187c22.445313 0 40.640626 18.191406 40.640626 40.636719zm0 0" fill="#244477"/><path d="m464.726562 90.898438v255.164062c0 10.894531-8.867187 19.75-19.75 19.75h-377.742187c-10.894531 0-19.75-8.855469-19.75-19.75v-255.164062c0-10.890626 8.855469-19.75 19.75-19.75h377.742187c10.882813 0 19.75 8.859374 19.75 19.75zm0 0" fill="#228bd1"/><path d="m373.042969 481.625c0 .667969-.019531 1.328125-.070313 1.984375-35.03125 18.015625-74.765625 28.179687-116.867187 28.179687-42.113281 0-81.84375-10.171874-116.875-28.191406-.054688-.65625-.074219-1.316406-.074219-1.972656 0-8.324219 3.375-15.867188 8.835938-21.328125 5.464843-5.460937 13.003906-8.835937 21.328124-8.835937h173.558594c16.660156 0 30.164063 13.503906 30.164063 30.164062zm0 0" fill="#244477"/><path d="m352.929688 365.8125h-174.082032c.8125-29.578125 21.179688-54.265625 48.636719-61.613281 1.023437-.269531 2.054687-.523438 3.097656-.753907 2.789063-.597656 5.640625-1.015624 8.550781-1.261718 1.773438-.136719 3.558594-.210938 5.371094-.210938h42.773438c4.777344 0 9.433594.507813 13.925781 1.472656.253906.058594.519531.117188.773437.175782.753907.171875 1.515626.359375 2.253907.554687.023437.007813.039062.007813.058593.019531 7.394532 1.976563 14.273438 5.210938 20.390626 9.460938 16.625 11.535156 27.660156 30.546875 28.25 52.15625zm0 0" fill="#f49f3b"/><path d="m352.929688 365.8125h-141.84375c.808593-29.578125 21.175781-54.265625 48.632812-61.613281 1.023438-.269531 2.058594-.523438 3.097656-.753907 2.789063-.597656 5.644532-1.015624 8.554688-1.261718 1.769531-.136719 3.558594-.210938 5.367187-.210938h10.535157c4.78125 0 9.4375.507813 13.929687 1.472656.253906.058594.515625.117188.769531.175782.753906.171875 1.519532.359375 2.257813.554687.023437.007813.039062.007813.054687.019531 7.394532 1.976563 14.273438 5.210938 20.390625 9.460938 16.628907 11.535156 27.664063 30.546875 28.253907 52.15625zm0 0" fill="#fcd971"/><path d="m304.441406 303.445312-.15625.746094-13.246094 61.621094h-50.316406l-13.242187-61.613281-.164063-.753907zm0 0" fill="#f2efea"/><path d="m265.882812 328.855469-29.566406 16.433593-8.996094-41.835937 18.371094-10.820313" fill="#d8d4ce"/><path d="m265.882812 328.855469 29.566407 16.433593 8.996093-41.835937-18.371093-10.820313" fill="#d8d4ce"/><path d="m177.601562 286.136719v-99.046875c0-10.0625 1.679688-19.921875 4.992188-29.304688 12.398438-35.277344 45.871094-58.984375 83.292969-58.984375 4.636719 0 9.261719.359375 13.753906 1.070313 20.5625 3.210937 39.425781 13.707031 53.101563 29.550781 13.824218 16.011719 21.4375 36.492187 21.4375 57.671875v99.046875" fill="#494e56"/><path d="m213.917969 190.957031c0 35.039063 20.515625 75.570313 31.785156 95.183594h-68.101563v-99.046875c0-10.0625 1.679688-19.925781 4.992188-29.308594 12.320312-35.070312 45.488281-58.710937 82.648438-58.976562-27.144532.679687-51.324219 44.226562-51.324219 92.148437zm0 0" fill="#212733"/><path d="m289.324219 276.671875v28.757813c0 10.527343-6.941407 19.425781-16.503907 22.378906-2.1875.679687-4.523437 1.046875-6.933593 1.046875-12.941407 0-23.429688-10.484375-23.429688-23.425781v-28.757813zm0 0" fill="#eaa27f"/><path d="m289.324219 303.605469v1.824219c0 10.527343-6.941407 19.425781-16.503907 22.378906-8.628906-2.648438-15.113281-10.152344-16.3125-19.328125 1.566407.097656 3.140626.144531 4.722657.144531 4.433593 0 8.777343-.351562 13.011719-1.046875 5.214843-.839844 10.257812-2.183594 15.082031-3.972656zm0 0" fill="#f6ba97"/><path d="m201.613281 229.542969c0 10.847656-7.925781 19.84375-18.300781 21.511719-1.132812.183593-2.300781.28125-3.488281.28125-12.039063 0-21.792969-9.753907-21.792969-21.792969 0-12.035157 9.753906-21.789063 21.792969-21.789063 1.1875 0 2.355469.09375 3.488281.277344 10.375 1.671875 18.300781 10.664062 18.300781 21.511719zm0 0" fill="#f6ba97"/><path d="m201.613281 229.542969c0 10.847656-7.925781 19.84375-18.300781 21.511719-1.882812-6.855469-2.890625-14.066407-2.890625-21.511719 0-7.445313 1.007813-14.65625 2.890625-21.511719 10.375 1.671875 18.300781 10.664062 18.300781 21.511719zm0 0" fill="#eaa27f"/><path d="m187.613281 229.542969c0 4.300781-3.488281 7.789062-7.789062 7.789062-4.304688 0-7.789063-3.488281-7.789063-7.789062s3.484375-7.789063 7.789063-7.789063c4.300781 0 7.789062 3.488282 7.789062 7.789063zm0 0" fill="#eaa27f"/><path d="m321.839844 201.71875v74.902344c-11.578125 11.050781-26.421875 18.707031-42.941406 21.367187-.128907.023438-.265626.042969-.394532.066407-4.105468.65625-8.316406.980468-12.617187.980468-44.773438 0-81.070313-36.296875-81.070313-81.070312v-30.875c0-3.953125.28125-7.839844.828125-11.640625 19.289063 13.871093 46.945313 12.5 64.566407-4.15625 5.835937-5.511719 9.890624-12.074219 12.183593-19.035157 1.277344 12.1875 6.855469 24.054688 16.734375 33.394532 11.765625 11.113281 27.3125 16.472656 42.710938 16.066406zm0 0" fill="#eaa27f"/><path d="m321.839844 201.71875v74.902344c-11.578125 11.050781-26.421875 18.707031-42.941406 21.367187-.128907.023438-.265626.042969-.394532.066407-38.78125-6.058594-68.441406-39.617188-68.441406-80.089844v-30.875c0-.820313.015625-1.636719.042969-2.453125 14.296875 1.464843 29.140625-2.976563 40.105469-13.34375 5.835937-5.511719 9.890624-12.074219 12.183593-19.035157 1.277344 12.1875 6.851563 24.054688 16.734375 33.394532 11.765625 11.113281 27.3125 16.472656 42.710938 16.066406zm0 0" fill="#f6ba97"/><path d="m309.429688 211.117188c0-7.4375-6.027344-13.464844-13.464844-13.464844s-13.464844 6.027344-13.464844 13.464844" fill="#eaa27f"/><path d="m249.289062 211.117188c0-7.4375-6.03125-13.464844-13.464843-13.464844-7.4375 0-13.464844 6.027344-13.464844 13.464844" fill="#eaa27f"/><path d="m245.019531 216.851562c0 5.078126-4.117187 9.195313-9.195312 9.195313s-9.195313-4.117187-9.195313-9.195313c0-5.082031 4.117188-9.199218 9.195313-9.199218s9.195312 4.117187 9.195312 9.199218zm0 0" fill="#212733"/><path d="m305.160156 216.851562c0 5.078126-4.117187 9.195313-9.195312 9.195313s-9.195313-4.117187-9.195313-9.195313c0-5.082031 4.117188-9.199218 9.195313-9.199218s9.195312 4.117187 9.195312 9.199218zm0 0" fill="#212733"/><path d="m275.089844 240.007812h-18.394532c-2.191406 0-3.964843-1.777343-3.964843-3.96875 0-2.191406 1.777343-3.964843 3.964843-3.964843h18.394532c2.191406 0 3.96875 1.777343 3.96875 3.964843 0 2.191407-1.777344 3.96875-3.96875 3.96875zm0 0" fill="#eaa27f"/><path d="m265.894531 265.105469c-6.789062 0-13.578125-1.699219-19.765625-5.101563-1.746094-.960937-2.382812-3.152344-1.421875-4.898437.957031-1.746094 3.152344-2.382813 4.894531-1.425781 10.203126 5.609374 22.382813 5.609374 32.582032 0 1.746094-.957032 3.9375-.320313 4.898437 1.425781.960938 1.746093.324219 3.9375-1.421875 4.898437-6.1875 3.402344-12.976562 5.101563-19.765625 5.101563zm0 0" fill="#eaa27f"/><path d="m243.144531 215.226562c0 2.175782-1.761719 3.941407-3.941406 3.941407-2.175781 0-3.9375-1.765625-3.9375-3.941407 0-2.175781 1.761719-3.941406 3.9375-3.941406 2.179687 0 3.941406 1.765625 3.941406 3.941406zm0 0" fill="#fff"/><path d="m303.738281 215.226562c0 2.175782-1.765625 3.941407-3.941406 3.941407s-3.941406-1.765625-3.941406-3.941407c0-2.175781 1.765625-3.941406 3.941406-3.941406s3.941406 1.765625 3.941406 3.941406zm0 0" fill="#fff"/><path d="m321.074219 239.253906c0 5.574219-4.523438 10.097656-10.101563 10.097656-5.574218 0-10.097656-4.523437-10.097656-10.097656 0-5.578125 4.523438-10.101562 10.097656-10.101562 5.578125 0 10.101563 4.523437 10.101563 10.101562zm0 0" fill="#eaa27f"/><path d="m230.90625 239.253906c0 5.574219-4.519531 10.097656-10.097656 10.097656s-10.101563-4.523437-10.101563-10.097656c0-5.578125 4.523438-10.101562 10.101563-10.101562s10.097656 4.523437 10.097656 10.101562zm0 0" fill="#eaa27f"/><path d="m367.03125 97.234375h130.269531c8.117188 0 14.695313-6.582031 14.695313-14.695313v-67.84375c0-8.113281-6.578125-14.695312-14.695313-14.695312h-130.269531c-8.117188 0-14.695312 6.582031-14.695312 14.695312v67.839844c-.003907 8.121094 6.578124 14.699219 14.695312 14.699219zm0 0" fill="#d4e4ff"/><path d="m470.820312 38.269531h-77.308593c-5.960938 0-10.792969-4.832031-10.792969-10.792969 0-5.960937 4.832031-10.792968 10.792969-10.792968h77.308593c5.960938 0 10.789063 4.832031 10.789063 10.792968.003906 5.960938-4.828125 10.792969-10.789063 10.792969zm0 0" fill="#212733"/><path d="m470.820312 80.550781h-77.308593c-5.960938 0-10.792969-4.832031-10.792969-10.792969 0-5.960937 4.832031-10.792968 10.792969-10.792968h77.308593c5.960938 0 10.789063 4.832031 10.789063 10.792968.003906 5.960938-4.828125 10.792969-10.789063 10.792969zm0 0" fill="#212733"/><path d="m14.695312 143.886719h130.273438c8.113281 0 14.695312-6.578125 14.695312-14.695313v-67.839844c0-8.117187-6.582031-14.699218-14.695312-14.699218h-130.273438c-8.113281 0-14.695312 6.582031-14.695312 14.699218v67.839844c0 8.117188 6.582031 14.695313 14.695312 14.695313zm0 0" fill="#d4e4ff"/><path d="m118.484375 84.921875h-77.308594c-5.960937 0-10.792969-4.832031-10.792969-10.792969 0-5.960937 4.832032-10.792968 10.792969-10.792968h77.308594c5.960937 0 10.792969 4.832031 10.792969 10.792968 0 5.960938-4.832032 10.792969-10.792969 10.792969zm0 0" fill="#212733"/><path d="m118.484375 127.203125h-77.308594c-5.960937 0-10.792969-4.832031-10.792969-10.789063 0-5.960937 4.832032-10.792968 10.792969-10.792968h77.308594c5.960937 0 10.792969 4.832031 10.792969 10.792968 0 5.957032-4.832032 10.789063-10.792969 10.789063zm0 0" fill="#212733"/><path d="m323.410156 344.964844h130.273438c8.117187 0 14.695312-6.578125 14.695312-14.695313v-67.839843c0-8.117188-6.582031-14.695313-14.695312-14.695313h-130.273438c-8.113281 0-14.695312 6.582031-14.695312 14.695313v67.839843c0 8.117188 6.582031 14.695313 14.695312 14.695313zm0 0" fill="#d4e4ff"/><path d="m427.199219 286h-77.308594c-5.960937 0-10.789063-4.832031-10.789063-10.792969 0-5.960937 4.828126-10.789062 10.789063-10.789062h77.308594c5.960937 0 10.792969 4.828125 10.792969 10.789062.003906 5.960938-4.832032 10.792969-10.792969 10.792969zm0 0" fill="#212733"/><path d="m427.199219 328.285156h-77.308594c-5.960937 0-10.789063-4.832031-10.789063-10.792968 0-5.960938 4.828126-10.792969 10.789063-10.792969h77.308594c5.960937 0 10.792969 4.832031 10.792969 10.792969.003906 5.960937-4.832032 10.792968-10.792969 10.792968zm0 0" fill="#212733"/><path d="m217.710938 404.480469v67.839843c0 8.113282-6.582032 14.695313-14.695313 14.695313h-56.890625c-34.25-16.328125-64.308594-40.046875-88.082031-69.09375v-13.441406c0-8.117188 6.582031-14.695313 14.695312-14.695313h130.277344c8.113281 0 14.695313 6.578125 14.695313 14.695313zm0 0" fill="#d4e4ff"/><path d="m176.527344 428.050781h-77.304688c-5.960937 0-10.792968-4.832031-10.792968-10.792969 0-5.960937 4.832031-10.792968 10.792968-10.792968h77.308594c5.960938 0 10.789062 4.832031 10.789062 10.792968 0 5.960938-4.832031 10.792969-10.792968 10.792969zm0 0" fill="#212733"/><path d="m187.316406 459.542969c0 2.980469-1.210937 5.671875-3.152344 7.625-1.953124 1.953125-4.660156 3.167969-7.636718 3.167969h-60.109375c-8.648438-5.652344-16.941407-11.804688-24.828125-18.425782 1.953125-1.953125 4.648437-3.164062 7.636718-3.164062h77.300782c5.964844 0 10.789062 4.835937 10.789062 10.796875zm0 0" fill="#212733"/><path d="m201.613281 226.582031h-115.058593v-86.6875h10.445312v76.246094h104.613281zm0 0" fill="#fcd971"/><path d="m215.304688 221.359375c0 7.5625-6.128907 13.695313-13.691407 13.695313s-13.691406-6.132813-13.691406-13.695313c0-7.558594 6.128906-13.691406 13.691406-13.691406s13.691407 6.132812 13.691407 13.691406zm0 0" fill="#ff4079"/><g fill="#fcd971"><path d="m140.167969 389.78125h-10.441407v-59.449219h75.199219v10.445313h-64.757812zm0 0"/><path d="m288.484375 122.484375h-10.445313v-77.445313h74.296876v10.441407h-63.851563zm0 0"/><path d="m404.417969 247.734375h-10.441407v-38.558594h-39.796874v-10.445312h50.238281zm0 0"/></g><path d="m367.871094 203.953125c0 7.5625-6.128906 13.691406-13.691406 13.691406s-13.695313-6.128906-13.695313-13.691406 6.132813-13.691406 13.695313-13.691406 13.691406 6.128906 13.691406 13.691406zm0 0" fill="#ff4079"/><path d="m296.953125 122.484375c0 7.5625-6.128906 13.691406-13.691406 13.691406s-13.691407-6.128906-13.691407-13.691406 6.128907-13.691406 13.691407-13.691406 13.691406 6.128906 13.691406 13.691406zm0 0" fill="#ff4079"/><path d="m218.621094 335.554688c0 7.5625-6.132813 13.695312-13.695313 13.695312s-13.691406-6.132812-13.691406-13.695312 6.128906-13.691407 13.691406-13.691407 13.695313 6.128907 13.695313 13.691407zm0 0" fill="#ff4079"/></svg>