<svg height="512pt" viewBox="0 0 512 512" width="512pt" xmlns="http://www.w3.org/2000/svg"><path d="m512 256c0 141.386719-114.613281 256-256 256s-256-114.613281-256-256 114.613281-256 256-256 256 114.613281 256 256zm0 0" fill="#dbdbdb"/><path d="m393.550781 436.875c0-32.890625-61.582031-59.554688-137.550781-59.554688s-137.550781 26.664063-137.550781 59.554688c0 32.894531 61.582031 59.558594 137.550781 59.558594s137.550781-26.664063 137.550781-59.558594zm0 0" fill="#afafaf"/><path d="m416.980469 134.222656c-32-178.964844-289.960938-178.964844-321.960938 0-2.851562 15.929688-4.335937 32.332032-4.335937 49.082032 0 113.25 67.960937 210.613281 165.316406 253.570312 97.355469-42.957031 165.316406-140.320312 165.316406-253.570312 0-16.75-1.484375-33.152344-4.335937-49.082032zm0 0" fill="#ff616d"/><path d="m256 436.875c-97.355469-42.964844-165.316406-140.316406-165.316406-253.570312 0-16.75 1.488281-33.152344 4.339844-49.085938 15.808593-88.398438 86.730468-133.125 158.324218-134.1796875-55.664062 1.3789065-128.820312 46.0898435-141.121094 134.1796875-2.214843 15.933594-3.378906 32.335938-3.378906 49.085938 0 113.25 71.199219 210.605468 147.152344 253.570312zm0 0" fill="#e53467"/><path d="m369.3125 164.230469c0 62.578125-50.734375 113.308593-113.3125 113.308593s-113.3125-50.730468-113.3125-113.308593c0-62.582031 50.734375-113.3125 113.3125-113.3125s113.3125 50.730469 113.3125 113.3125zm0 0" fill="#e53467"/><path d="m345.019531 164.226562c0 45.714844-34.460937 83.390626-78.828125 88.4375-3.34375.386719-6.738281.585938-10.1875.585938-49.164062 0-89.027344-39.863281-89.027344-89.023438 0-49.164062 39.863282-89.015624 89.027344-89.015624 3.449219 0 6.84375.199218 10.1875.585937 44.367188 5.046875 78.828125 42.714844 78.828125 88.429687zm0 0" fill="#e5e5e5"/><path d="m345.019531 164.226562c0 45.714844-34.460937 83.390626-78.828125 88.4375-44.367187-5.046874-78.839844-42.722656-78.839844-88.4375 0-45.714843 34.472657-83.382812 78.839844-88.429687 44.367188 5.046875 78.828125 42.714844 78.828125 88.429687zm0 0" fill="#fcfcfc"/></svg>