<svg height="512pt" viewBox="0 0 512 512" width="512pt" xmlns="http://www.w3.org/2000/svg"><path d="m512 256c0 141.386719-114.613281 256-256 256s-256-114.613281-256-256 114.613281-256 256-256 256 114.613281 256 256zm0 0" fill="#77c6cf"/><path d="m393.550781 436.875c0-32.890625-61.582031-59.554688-137.550781-59.554688s-137.550781 26.664063-137.550781 59.554688c0 32.894531 61.582031 59.558594 137.550781 59.558594s137.550781-26.664063 137.550781-59.558594zm0 0" fill="#3c9ba5"/><path d="m416.980469 134.222656c-32-178.964844-289.960938-178.964844-321.960938 0-2.851562 15.929688-4.335937 32.332032-4.335937 49.082032 0 113.25 67.960937 210.613281 165.316406 253.570312 97.355469-42.957031 165.316406-140.320312 165.316406-253.570312 0-16.75-1.484375-33.152344-4.335937-49.082032zm0 0" fill="#ff616d"/><path d="m256 436.875c-97.355469-42.964844-165.316406-140.316406-165.316406-253.570312 0-16.75 1.488281-33.152344 4.339844-49.085938 15.808593-88.398438 86.730468-133.125 158.324218-134.1796875-55.664062 1.3828125-128.820312 46.0898435-141.121094 134.1796875-2.214843 15.933594-3.378906 32.335938-3.378906 49.085938 0 113.253906 71.199219 210.605468 147.152344 253.570312zm0 0" fill="#e53467"/><path d="m387.757812 164.230469c0 72.765625-58.988281 131.757812-131.757812 131.757812s-131.757812-58.992187-131.757812-131.757812c0-72.769531 58.988281-131.757813 131.757812-131.757813s131.757812 58.988282 131.757812 131.757813zm0 0" fill="#e53467"/><path d="m359.507812 164.222656c0 53.15625-40.070312 96.96875-91.65625 102.839844-3.890624.449219-7.839843.679688-11.847656.679688-57.164062 0-103.519531-46.351563-103.519531-103.519532 0-57.164062 46.355469-103.503906 103.519531-103.503906 4.007813 0 7.957032.230469 11.847656.679688 51.585938 5.871093 91.65625 49.671874 91.65625 102.824218zm0 0" fill="#e5e5e5"/><path d="m359.507812 164.222656c0 53.15625-40.070312 96.96875-91.65625 102.839844-51.589843-5.867188-91.671874-49.683594-91.671874-102.839844 0-53.152344 40.082031-96.957031 91.671874-102.824218 51.585938 5.871093 91.65625 49.671874 91.65625 102.824218zm0 0" fill="#fcfcfc"/><path d="m255.996094 89.777344 22.496094 45.578125 50.300781 7.308593-36.398438 35.476563 8.59375 50.097656-44.992187-23.652343-44.988282 23.652343 8.59375-50.097656-36.398437-35.476563 50.300781-7.308593zm0 0" fill="#fce065"/></svg>