<svg height="512pt" viewBox="0 0 512 512" width="512pt" xmlns="http://www.w3.org/2000/svg"><path d="m512 256c0 141.386719-114.613281 256-256 256s-256-114.613281-256-256 114.613281-256 256-256 256 114.613281 256 256zm0 0" fill="#71cc8a"/><path d="m393.550781 436.875c0-32.890625-61.582031-59.554688-137.550781-59.554688s-137.550781 26.664063-137.550781 59.554688c0 32.894531 61.582031 59.558594 137.550781 59.558594s137.550781-26.664063 137.550781-59.558594zm0 0" fill="#3eaf85"/><path d="m416.980469 134.222656c-32-178.964844-289.960938-178.964844-321.960938 0-2.851562 15.929688-4.335937 32.332032-4.335937 49.082032 0 113.25 67.960937 210.613281 165.316406 253.570312 97.355469-42.957031 165.316406-140.320312 165.316406-253.570312 0-16.75-1.484375-33.152344-4.335937-49.082032zm0 0" fill="#ff616d"/><path d="m256 436.875c-97.355469-42.964844-165.316406-140.316406-165.316406-253.570312 0-16.75 1.488281-33.152344 4.339844-49.085938 15.808593-88.398438 86.730468-133.125 158.324218-134.1796875-55.664062 1.3789065-128.820312 46.0898435-141.121094 134.1796875-2.214843 15.933594-3.378906 32.335938-3.378906 49.085938 0 113.25 71.199219 210.605468 147.152344 253.570312zm0 0" fill="#e53467"/><path d="m387.757812 164.230469c0 72.765625-58.988281 131.757812-131.757812 131.757812s-131.757812-58.992187-131.757812-131.757812c0-72.769531 58.988281-131.757813 131.757812-131.757813s131.757812 58.988282 131.757812 131.757813zm0 0" fill="#e53467"/><path d="m359.511719 164.226562c0 32.945313-15.390625 62.304688-39.382813 81.25-11.066406 8.757813-23.960937 15.289063-38.023437 18.933594-4.628907 1.210938-9.394531 2.101563-14.253907 2.652344-3.886718.453125-7.835937.679688-11.847656.679688-6.917968 0-13.679687-.679688-20.210937-1.972657-1.992188-.386719-3.957031-.835937-5.902344-1.347656-8.003906-2.082031-15.621094-5.089844-22.746094-8.914063-5.390625-2.894531-10.503906-6.257812-15.277343-10.03125-23.980469-18.953124-39.382813-48.304687-39.382813-81.25 0-57.167968 46.351563-103.507812 103.519531-103.507812 4.011719 0 7.960938.230469 11.847656.679688 51.585938 5.871093 91.660157 49.671874 91.660157 102.828124zm0 0" fill="#2e3651"/><path d="m359.507812 164.222656c0 53.15625-40.070312 96.96875-91.65625 102.839844-51.589843-5.867188-91.671874-49.683594-91.671874-102.839844 0-53.152344 40.082031-96.957031 91.671874-102.824218 51.585938 5.867187 91.65625 49.671874 91.65625 102.824218zm0 0" fill="#445166"/><path d="m307.007812 134.191406c0 28.171875-22.835937 51.007813-51.011718 51.007813-28.171875 0-51.007813-22.835938-51.007813-51.007813 0-28.175781 22.835938-51.011718 51.007813-51.011718 28.175781 0 51.011718 22.835937 51.011718 51.011718zm0 0" fill="#fcfcfc"/><path d="m219.402344 134.191406c0-25.726562 19.046875-46.992187 43.804687-50.496094-2.355469-.332031-4.761719-.515624-7.207031-.515624-28.171875 0-51.011719 22.835937-51.011719 51.011718 0 28.171875 22.839844 51.007813 51.011719 51.007813 2.445312 0 4.851562-.179688 7.207031-.515625-24.761719-3.5-43.804687-24.769532-43.804687-50.492188zm0 0" fill="#e5e5e5"/><path d="m324.589844 213.796875-4.460938 31.679687c-11.066406 8.757813-23.960937 15.289063-38.023437 18.933594-4.628907 1.210938-9.394531 2.101563-14.253907 2.652344-3.886718.453125-7.835937.679688-11.847656.679688-6.917968 0-13.679687-.679688-20.210937-1.972657-1.992188-.386719-3.957031-.835937-5.902344-1.347656-14.0625-3.65625-26.957031-10.1875-38.023437-18.945313l-4.460938-31.679687c-2.90625-20.679687 13.144531-39.152344 34.03125-39.152344h69.121094c20.886718 0 36.9375 18.472657 34.03125 39.152344zm0 0" fill="#fcfcfc"/><path d="m202.566406 213.796875 4.578125 41.710937c-5.390625-2.894531-10.503906-6.257812-15.277343-10.03125l-4.460938-31.679687c-2.90625-20.691406 13.144531-39.152344 34.03125-39.152344h7.628906c-16.257812 0-28.765625 18.460938-26.5 39.152344zm0 0" fill="#e5e5e5"/></svg>