<svg height="512pt" viewBox="0 0 512 512" width="512pt" xmlns="http://www.w3.org/2000/svg"><path d="m511.996094 256c0 141.382812-114.613282 255.996094-255.996094 255.996094-141.386719 0-256-114.613282-256-255.996094 0-141.386719 114.613281-256 256-256 141.382812 0 255.996094 114.613281 255.996094 256zm0 0" fill="#dbdbdb"/><path d="m512 155.960938v100.035156c0 36.050781-7.449219 70.363281-20.898438 101.472656-14.410156 33.332031-35.691406 62.996094-62.066406 87.183594-5.914062 5.433594-12.089844 10.59375-18.492187 15.453125l-55.351563-20.46875-99.191406 57.980469-99.191406-57.980469-55.347656 20.46875c-6.402344-4.859375-12.578126-10.019531-18.492188-15.453125-26.375-24.1875-47.660156-53.851563-62.066406-87.183594-13.449219-31.109375-20.89843775-65.421875-20.89843775-101.472656v-100.035156l24.31249975-8.996094 132.492188-48.996094 99.191406 57.992188 99.191406-57.992188 132.492188 48.996094zm0 0" fill="#fcfcfc"/><path d="m355.191406 97.960938v341.671874l-99.191406 57.980469v-341.660156zm0 0" fill="#e5e5e5"/><path d="m156.808594 97.96875v341.667969l-55.347656 20.46875c-6.402344-4.859375-12.578126-10.019531-18.492188-15.453125-22.371094-20.511719-41.074219-44.960938-55.023438-72.253906-2.507812-4.890626-4.851562-9.863282-7.042968-14.929688-13.449219-31.109375-20.89843775-65.421875-20.89843775-101.472656v-100.035156l24.31249975-8.996094zm0 0" fill="#e5e5e5"/><path d="m491.101562 170.515625v186.953125c-14.410156 33.332031-35.691406 62.996094-62.066406 87.183594l-73.84375-27.304688-2.015625-.738281-97.175781 56.796875-20.832031-12.183594-76.339844-44.613281-2.019531.738281-73.839844 27.304688c-26.375-24.1875-47.660156-53.851563-62.066406-87.183594v-186.953125l133.890625-49.519531 2.015625 1.183594 33.082031 19.339843 20.835937 12.183594 45.273438 26.464844 99.191406-57.988281 2.019532-1.183594zm0 0" fill="#71cc8a"/><path d="m248.6875 252.246094v114.9375l-89.859375-54.332032-136.664063 47.488282c-.425781-.949219-.84375-1.910156-1.261718-2.871094v-110.707031l135.835937-50.941407zm0 0" fill="#77c6cf"/><path d="m437.1875 389.257812-79.976562-29.582031-2.019532 1.183594-99.191406 57.988281v-150.035156l97.175781-56.800781 2.015625.742187 81.996094 30.324219zm53.914062-126.238281v-30.898437l-133.890624-49.515625-2.019532 1.179687-99.191406 57.992188-45.273438-26.46875v-61.605469l-20.835937-12.183594v61.605469l-33.082031-19.339844-2.015625-1.179687-133.890625 49.515625v30.898437l135.90625-50.257812 2.019531-.742188 76.339844 44.625v84.929688l-78.359375-45.808594-2.015625-1.179687-133.890625 49.515624v13.367188c2.191406 5.066406 4.535156 10.039062 7.042968 14.929688l128.863282-47.65625 2.019531-.742188 76.339844 44.625v92.597656l20.832031 12.183594v-27.5l97.175781-56.800781 2.015625.742187 93.570313 34.597656c6.667969-7.617187 12.894531-15.632812 18.621093-24.011718l-9.371093-3.46875v-146.179688zm0 0" fill="#fce065"/><path d="m355.191406 122.171875v295.171875l-2.015625-.742188-97.175781 56.800782v-293.238282zm0 0" fill="#3eaf85"/><path d="m156.808594 122.179688v295.167968l-73.839844 27.304688c-22.371094-20.511719-41.074219-44.960938-55.023438-72.253906-2.507812-4.890626-4.851562-9.863282-7.042968-14.929688v-186.953125l133.890625-49.519531zm0 0" fill="#3eaf85"/><g fill="#f9a53f"><path d="m355.191406 183.78125v28.972656l-2.015625-.742187-97.175781 56.800781v-27.042969zm0 0"/><path d="m355.191406 360.859375v28.984375l-2.015625-.742188-97.175781 56.800782v-27.054688zm0 0"/><path d="m156.808594 183.78125v28.972656l-135.90625 50.261719v-30.898437l133.890625-49.519532zm0 0"/><path d="m156.808594 295.765625v28.976563l-128.863282 47.65625c-2.507812-4.890626-4.851562-9.863282-7.042968-14.929688v-13.367188l133.890625-49.515624zm0 0"/></g><path d="m466.902344 401.144531c-6.226563 9.035157-13.03125 17.65625-20.355469 25.808594-4.054687 4.523437-8.273437 8.890625-12.640625 13.101563l-38.433594-38.441407 12.875-12.871093 23.070313-23.082032zm0 0" fill="#2e3651"/><path d="m466.902344 401.144531c-6.226563 9.035157-13.03125 17.65625-20.355469 25.808594l-38.199219-38.210937 23.070313-23.082032zm0 0" fill="#445166"/><path d="m462.441406 270.125c0 89.753906-72.753906 162.507812-162.507812 162.507812-89.75 0-162.507813-72.753906-162.507813-162.507812 0-89.75 72.757813-162.507812 162.507813-162.507812 89.753906 0 162.507812 72.757812 162.507812 162.507812zm0 0" fill="#ff616d"/><path d="m224.3125 368.121094c-23.914062-18.4375-41.175781-45.640625-46.496094-77.785156-6.320312-38.199219 5.574219-75.199219 29.328125-102.128907 18.183594-20.636719 43.335938-35.359375 72.582031-40.199219 1.121094-.1875 2.261719-.359374 3.382813-.507812 65.046875-8.96875 125.867187 34.582031 138.335937 99.050781.21875 1.109375.421876 2.246094.605469 3.367188 4.839844 29.246093-.992187 57.800781-14.671875 81.660156-17.835937 31.171875-49.039062 54.347656-87.238281 60.667969-6.441406 1.066406-12.859375 1.609375-19.203125 1.671875-28.351562.273437-55.167969-9.242188-76.625-25.796875zm0 0" fill="#71cc8a"/><path d="m387.464844 182.597656c-27.714844-27.710937-65.296875-39.53125-101.4375-35.46875 26.898437 3.023438 52.996094 14.84375 73.621094 35.46875 48.339843 48.339844 48.339843 126.714844 0 175.054688-20.625 20.628906-46.722657 32.445312-73.621094 35.46875 36.140625 4.0625 73.722656-7.753906 101.4375-35.46875 48.339844-48.339844 48.339844-126.714844 0-175.054688zm0 0" fill="#a1e0c2"/><path d="m408.011719 330.46875c-.199219.363281-.417969.738281-.636719 1.117188l-20.59375-14.753907-20.261719-14.503906-62.609375 87.445313-2.96875 4.140624c-4.199218.039063-8.367187-.136718-12.484375-.511718-23.699219-2.175782-45.871093-11.183594-64.148437-25.277344l79.351562-110.8125-96.519531-69.109375c.304687-.320313.585937-.65625.890625-.980469 18.105469-20.125 42.914062-34.449218 71.6875-39.214844 1.128906-.1875 2.269531-.355468 3.386719-.511718l102.660156 73.519531 35.671875 25.535156c.230469 1.109375.429688 2.246094.617188 3.367188 4.765624 28.796875-.824219 56.914062-14.042969 80.550781zm0 0" fill="#fce065"/><path d="m286.03125 393.117188c6.019531-.667969 11.996094-1.785157 17.878906-3.34375l-2.96875 4.136718c-4.199218.042969-8.367187-.132812-12.484375-.511718-.835937-.101563-1.652343-.195313-2.425781-.28125zm0 0" fill="#ffdc6d"/><path d="m408.011719 330.46875c-.199219.363281-.417969.738281-.636719 1.117188l-20.59375-14.753907c12.484375-30.679687 12.152344-65.359375-1.015625-95.816406l35.671875 25.535156c.230469 1.109375.429688 2.246094.617188 3.367188 4.765624 28.796875-.824219 56.914062-14.042969 80.550781zm0 0" fill="#ffdc6d"/><path d="m299.9375 401.980469c-35.21875 0-68.332031-13.714844-93.234375-38.621094-51.410156-51.40625-51.410156-135.058594 0-186.46875 24.902344-24.902344 58.015625-38.617187 93.234375-38.617187s68.328125 13.714843 93.234375 38.617187c24.902344 24.90625 38.617187 58.015625 38.617187 93.234375s-13.714843 68.332031-38.617187 93.234375c-24.90625 24.90625-58.015625 38.621094-93.234375 38.621094zm0-247.566407c-30.910156 0-59.964844 12.035157-81.820312 33.890626-45.117188 45.117187-45.117188 118.527343 0 163.640624 21.855468 21.855469 50.910156 33.890626 81.820312 33.890626 30.90625 0 59.964844-12.035157 81.820312-33.890626 45.113282-45.117187 45.113282-118.523437 0-163.640624-21.855468-21.855469-50.914062-33.890626-81.820312-33.890626zm0 0" fill="#e53467"/></svg>