<svg height="512pt" viewBox="0 0 512 512" width="512pt" xmlns="http://www.w3.org/2000/svg"><path d="m512 256c0 141.386719-114.613281 256-256 256s-256-114.613281-256-256 114.613281-256 256-256 256 114.613281 256 256zm0 0" fill="#77c6cf"/><path d="m393.550781 436.875c0-32.890625-61.582031-59.554688-137.550781-59.554688s-137.550781 26.664063-137.550781 59.554688c0 32.894531 61.582031 59.558594 137.550781 59.558594s137.550781-26.664063 137.550781-59.558594zm0 0" fill="#3c9ba5"/><path d="m416.980469 134.222656c-32-178.964844-289.960938-178.964844-321.960938 0-2.851562 15.929688-4.335937 32.332032-4.335937 49.082032 0 113.25 67.960937 210.613281 165.316406 253.570312 97.355469-42.957031 165.316406-140.320312 165.316406-253.570312 0-16.75-1.484375-33.152344-4.335937-49.082032zm0 0" fill="#ff616d"/><path d="m256 436.875c-97.355469-42.964844-165.316406-140.316406-165.316406-253.570312 0-16.75 1.488281-33.152344 4.339844-49.085938 15.808593-88.398438 86.730468-133.125 158.324218-134.1796875-55.664062 1.3828125-128.820312 46.0898435-141.121094 134.1796875-2.214843 15.933594-3.378906 32.335938-3.378906 49.085938 0 113.253906 71.199219 210.605468 147.152344 253.570312zm0 0" fill="#e53467"/><path d="m387.410156 164.230469c0 72.574219-58.835937 131.410156-131.410156 131.410156s-131.410156-58.835937-131.410156-131.410156c0-72.578125 58.835937-131.410157 131.410156-131.410157s131.410156 58.832032 131.410156 131.410157zm0 0" fill="#e53467"/><path d="m364.433594 164.222656c0 55.6875-41.976563 101.585938-96.019532 107.734375-4.074218.46875-8.210937.710938-12.410156.710938-59.886718 0-108.445312-48.558594-108.445312-108.445313 0-59.882812 48.558594-108.429687 108.445312-108.429687 4.199219 0 8.335938.242187 12.410156.714843 54.042969 6.144532 96.019532 52.03125 96.019532 107.714844zm0 0" fill="#e5e5e5"/><path d="m364.433594 164.222656c0 55.6875-41.976563 101.585938-96.019532 107.734375-54.042968-6.148437-96.03125-52.046875-96.03125-107.734375 0-55.683594 41.988282-101.570312 96.03125-107.714844 54.042969 6.144532 96.019532 52.03125 96.019532 107.714844zm0 0" fill="#fcfcfc"/><path d="m273.539062 156.867188c-10.371093 8.109374-10.5625 13.765624-10.5625 23.574218 0 3.582032-1.886718 7.730469-11.125 7.730469-7.734374 0-10.375-2.828125-10.375-12.636719 0-16.21875 7.167969-23.949218 12.636719-28.667968 6.226563-5.28125 16.785157-11.125 16.785157-21.308594 0-8.675782-7.542969-12.828125-16.972657-12.828125-19.238281 0-15.089843 14.523437-25.273437 14.523437-5.09375 0-11.316406-3.394531-11.316406-10.75 0-10.183594 11.691406-25.273437 37.152343-25.273437 24.144531 0 40.175781 13.390625 40.175781 31.117187 0 17.730469-16.03125 30.554688-21.125 34.519532zm-6.976562 58.839843c0 7.734375-6.414062 14.523438-14.523438 14.523438-8.109374 0-14.332031-6.789063-14.332031-14.523438 0-7.921875 6.410157-14.519531 14.332031-14.519531 7.921876 0 14.523438 6.601562 14.523438 14.519531zm0 0" fill="#445166"/></svg>