<svg height="512pt" viewBox="0 0 512 512.00001" width="512pt" xmlns="http://www.w3.org/2000/svg"><path d="m512 256c0 141.386719-114.617188 256-256 256-141.386719 0-256-114.613281-256-256 0-141.382812 114.613281-256 256-256 141.382812 0 256 114.617188 256 256zm0 0" fill="#ff616d"/><path d="m329.28125 329.28125-254.296875 107.738281 107.738281-254.296875 254.296875-107.738281zm0 0" fill="#77c6cf"/><path d="m182.71875 329.28125 254.300781 107.738281-107.738281-254.300781-254.300781-107.738281zm0 0" fill="#77c6cf"/><path d="m437.019531 74.984375-181.015625 181.015625v-104.324219zm0 0" fill="#3c9ba5"/><path d="m74.984375 437.019531 181.019531-181.019531-104.328125.003906zm0 0" fill="#3c9ba5"/><path d="m74.980469 74.980469 181.019531 181.019531h-104.328125zm0 0" fill="#3c9ba5"/><path d="m437.019531 437.019531-181.019531-181.019531v104.328125zm0 0" fill="#3c9ba5"/><path d="m359.636719 256-103.632813 256-103.632812-256 103.632812-256zm0 0" fill="#fce065"/><path d="m256 359.636719 256-103.636719-256-103.632812-256 103.632812zm0 0" fill="#fce065"/><g fill="#f9a53f"><path d="m256.003906 0v256l-73.769531-73.773438zm0 0"/><path d="m256.003906 512v-256l-73.769531 73.769531zm0 0"/><path d="m0 256h256l-73.773438 73.769531zm0 0"/><path d="m512 256h-256l73.769531 73.769531zm0 0"/><path d="m309.289062 256c0 29.429688-23.859374 53.289062-53.289062 53.289062s-53.289062-23.859374-53.289062-53.289062 23.859374-53.289062 53.289062-53.289062 53.289062 23.859374 53.289062 53.289062zm0 0"/></g><path d="m282.054688 256c0 14.390625-11.664063 26.054688-26.054688 26.054688s-26.054688-11.664063-26.054688-26.054688 11.664063-26.054688 26.054688-26.054688 26.054688 11.664063 26.054688 26.054688zm0 0" fill="#fce065"/></svg>