<svg height="512pt" viewBox="0 0 512 512" width="512pt" xmlns="http://www.w3.org/2000/svg"><path d="m512 256c0 48.285156-13.363281 93.457031-36.613281 131.992188-4.347657 7.199218-9.027344 14.179687-14.054688 20.898437-14.835937 19.914063-32.515625 37.605469-52.441406 52.453125-6.71875 5.015625-13.6875 9.707031-20.898437 14.042969-38.535157 23.25-83.695313 36.613281-131.992188 36.613281s-93.457031-13.363281-131.992188-36.613281c-7.210937-4.335938-14.179687-9.027344-20.898437-14.042969-19.925781-14.847656-37.605469-32.539062-52.441406-52.453125-5.027344-6.71875-9.707031-13.699219-14.054688-20.898437-23.25-38.535157-36.613281-83.707032-36.613281-131.992188s13.363281-93.457031 36.613281-131.992188c4.347657-7.199218 9.027344-14.179687 14.054688-20.898437 14.835937-19.914063 32.515625-37.605469 52.441406-52.453125 6.71875-5.015625 13.6875-9.707031 20.898437-14.042969 38.535157-23.25 83.695313-36.613281 131.992188-36.613281s93.457031 13.363281 131.992188 36.613281c7.210937 4.335938 14.179687 9.027344 20.898437 14.042969 19.925781 14.847656 37.605469 32.539062 52.441406 52.453125 5.027344 6.71875 9.707031 13.699219 14.054688 20.898437 23.25 38.535157 36.613281 83.707032 36.613281 131.992188zm0 0" fill="#71cc8a"/><path d="m512 256c0 48.285156-13.363281 93.457031-36.613281 131.992188-4.347657 7.199218-9.027344 14.179687-14.054688 20.898437h-52.441406v52.453125c-6.71875 5.015625-13.6875 9.707031-20.898437 14.042969-38.535157 23.25-83.695313 36.613281-131.992188 36.613281s-93.457031-13.363281-131.992188-36.613281c-7.210937-4.335938-14.179687-9.027344-20.898437-14.042969v-52.453125h-52.441406c-5.027344-6.71875-9.707031-13.699219-14.054688-20.898437-23.25-38.535157-36.613281-83.707032-36.613281-131.992188s13.363281-93.457031 36.613281-131.992188c4.347657-7.199218 9.027344-14.179687 14.054688-20.898437h52.441406v-52.453125c6.71875-5.015625 13.6875-9.707031 20.898437-14.042969 38.535157-23.25 83.695313-36.613281 131.992188-36.613281s93.457031 13.363281 131.992188 36.613281c7.210937 4.335938 14.179687 9.027344 20.898437 14.042969v52.453125h52.441406c5.027344 6.71875 9.707031 13.699219 14.054688 20.898437 23.25 38.535157 36.613281 83.707032 36.613281 131.992188zm0 0" fill="#fcfcfc"/><path d="m512 256c0-48.285156-13.363281-93.457031-36.613281-131.992188h-87.394531v-87.394531c-38.535157-23.25-83.695313-36.613281-131.992188-36.613281s-93.457031 13.363281-131.992188 36.613281v87.394531h-87.394531c-23.25 38.535157-36.613281 83.707032-36.613281 131.992188s13.363281 93.457031 36.613281 131.992188h87.394531v87.394531c33.488282 20.207031 71.984376 32.945312 113.183594 35.933593 6.207032.449219 12.488282.679688 18.808594.679688s12.601562-.230469 18.808594-.679688c41.199218-2.988281 79.695312-15.726562 113.183594-35.933593v-87.394531h87.394531c23.25-38.535157 36.613281-83.707032 36.613281-131.992188zm0 0" fill="#445166"/><g fill="#fcfcfc"><path d="m237.191406 375.671875h37.617188v78.363281h-37.617188zm0 0"/><path d="m274.808594 490.058594v21.261718c-6.207032.449219-12.488282.679688-18.808594.679688s-12.601562-.230469-18.808594-.679688v-21.261718zm0 0"/><path d="m237.191406 57.964844h37.617188v78.363281h-37.617188zm0 0"/><path d="m237.191406 21.941406v-21.261718c6.207032-.449219 12.488282-.679688 18.808594-.679688s12.601562.230469 18.808594.679688v21.261718zm0 0"/><path d="m57.964844 237.191406h78.363281v37.617188h-78.363281zm0 0"/><path d="m21.941406 274.808594h-21.261718c-.449219-6.207032-.679688-12.488282-.679688-18.808594s.230469-12.601562.679688-18.808594h21.261718zm0 0"/><path d="m375.671875 237.191406h78.363281v37.617188h-78.363281zm0 0"/><path d="m490.058594 237.191406h21.261718c.449219 6.207032.679688 12.488282.679688 18.808594s-.230469 12.601562-.679688 18.808594h-21.261718zm0 0"/></g></svg>