<svg height="512pt" viewBox="0 0 512 512" width="512pt" xmlns="http://www.w3.org/2000/svg"><path d="m512 256c0 141.386719-114.613281 256-256 256s-256-114.613281-256-256 114.613281-256 256-256 256 114.613281 256 256zm0 0" fill="#dbdbdb"/><path d="m284.214844 9.683594v500.769531c-9.257813 1.023437-18.671875 1.546875-28.210938 1.546875-1.746094 0-3.492187-.023438-5.226562-.054688-7.75-.15625-15.421875-.65625-22.988282-1.492187v-500.769531zm0 0" fill="#2e3651"/><path d="m284.214844 410.925781v99.527344c-9.257813 1.023437-18.671875 1.546875-28.210938 1.546875-1.746094 0-3.492187-.023438-5.226562-.054688v-101.019531zm0 0" fill="#445166"/><path d="m418.535156 386.613281h-318.792968c-18.726563 0-33.910157-15.183593-33.910157-33.910156v-318.796875c0-18.726562 15.179688-33.90625 33.910157-33.90625h318.792968c18.726563 0 33.910156 15.179688 33.910156 33.90625v318.796875c0 18.726563-15.183593 33.910156-33.910156 33.910156zm0 0" fill="#77c6cf"/><g fill="#fcfcfc"><path d="m418.535156 370.9375h-318.792968c-10.054688 0-18.238282-8.179688-18.238282-18.234375v-318.792969c0-10.054687 8.183594-18.238281 18.238282-18.238281h318.792968c10.054688 0 18.238282 8.183594 18.238282 18.238281v318.792969c-.003907 10.054687-8.183594 18.234375-18.238282 18.234375zm-316.132812-20.898438h313.46875v-313.46875h-313.46875zm0 0"/><path d="m181.78125 81.664062c0-8.761718 8.0625-16.476562 20.332031-16.476562h72.558594c46.265625 0 82.722656 21.734375 82.722656 80.621094v1.753906c0 58.890625-37.855469 81.324219-86.230469 81.324219h-34.703124v75.710937c0 11.21875-13.667969 16.828125-27.339844 16.828125s-27.339844-5.609375-27.339844-16.828125zm54.683594 31.195313v73.960937h34.699218c19.632813 0 31.546876-11.214843 31.546876-35.050781v-3.855469c0-23.835937-11.917969-35.054687-31.546876-35.054687zm0 0"/></g></svg>