<svg height="512pt" viewBox="0 0 512 512" width="512pt" xmlns="http://www.w3.org/2000/svg"><path d="m512 256c0 141.386719-114.613281 256-256 256s-256-114.613281-256-256 114.613281-256 256-256 256 114.613281 256 256zm0 0" fill="#77c6cf"/><path d="m284.214844 9.683594v500.769531c-9.257813 1.023437-18.671875 1.546875-28.210938 1.546875-1.746094 0-3.492187-.023438-5.226562-.054688-7.75-.15625-15.421875-.65625-22.988282-1.492187v-500.769531zm0 0" fill="#2e3651"/><path d="m284.214844 410.925781v99.527344c-9.257813 1.023437-18.671875 1.546875-28.210938 1.546875-1.746094 0-3.492187-.023438-5.226562-.054688v-101.019531zm0 0" fill="#445166"/><path d="m449.304688 193.304688c0 106.761718-86.542969 193.308593-193.304688 193.308593s-193.304688-86.546875-193.304688-193.308593c0-106.757813 86.542969-193.304688 193.304688-193.304688s193.304688 86.546875 193.304688 193.304688zm0 0" fill="#ff616d"/><path d="m404.65625 193.304688c0 82.101562-66.554688 148.65625-148.65625 148.65625s-148.65625-66.554688-148.65625-148.65625c0-82.097657 66.554688-148.65625 148.65625-148.65625s148.65625 66.558593 148.65625 148.65625zm0 0" fill="#fcfcfc"/><path d="m188.679688 94.421875c0-7.761719 7.140624-14.589844 18.003906-14.589844h64.269531c40.980469 0 73.269531 19.25 73.269531 71.40625v1.554688c0 52.15625-33.53125 72.027343-76.375 72.027343h-30.738281v67.058594c0 9.9375-12.105469 14.902344-24.214844 14.902344s-24.21875-4.964844-24.21875-14.902344v-197.457031zm48.429687 27.632813v65.507812h30.738281c17.382813 0 27.941406-9.933594 27.941406-31.046875v-3.414063c0-21.109374-10.558593-31.046874-27.941406-31.046874zm0 0" fill="#445166"/><path d="m398.601562 297.484375-38.421874 38.417969-246.773438-246.773438 38.417969-38.421875zm0 0" fill="#ff616d"/></svg>