<svg height="512pt" viewBox="0 0 512 512" width="512pt" xmlns="http://www.w3.org/2000/svg"><path d="m512 256c0 141.386719-114.613281 256-256 256s-256-114.613281-256-256 114.613281-256 256-256 256 114.613281 256 256zm0 0" fill="#445166"/><path d="m375.601562 187.800781c0 70.085938-38.394531 131.203125-95.296874 163.460938v.011719c-27.304688 15.476562-58.878907 24.328124-92.503907 24.328124-24.527343 0-47.960937-4.707031-69.433593-13.261718h-.023438c-69.34375-27.609375-118.34375-95.347656-118.34375-174.539063 0-52.636719 21.648438-100.21875 56.539062-134.304687 33.851563-33.097656 80.171876-53.496094 131.261719-53.496094 21.449219 0 42.0625 3.597656 61.257813 10.21875 73.636718 25.402344 126.542968 95.308594 126.542968 177.582031zm0 0" fill="#77c6cf"/><path d="m227.433594 371.402344c-12.777344 2.746094-26.039063 4.199218-39.632813 4.199218-24.53125 0-47.960937-4.707031-69.4375-13.261718h-.023437c-69.339844-27.609375-118.339844-95.347656-118.339844-174.539063 0-52.636719 21.648438-100.21875 56.539062-134.304687 33.851563-33.097656 80.171876-53.496094 131.261719-53.496094 13.59375 0 26.84375 1.441406 39.609375 4.199219-35.222656 7.5625-66.769531 25.015625-91.605468 49.296875-34.890626 34.085937-56.539063 81.671875-56.539063 134.304687 0 79.191407 49 146.929688 118.339844 174.539063h.023437c9.570313 3.808594 19.527344 6.867187 29.804688 9.0625zm0 0" fill="#3c9ba5"/><path d="m375.601562 187.800781c0 70.085938-38.394531 131.203125-95.296874 163.460938-32.730469-66.664063-108.855469-7.660157-117.707032-90.828125-8.835937-83.179688 91.144532-53.980469 120.347656-83.179688 29.203126-29.203125 0-74.332031-24.777343-49.554687-24.777344 24.777343-61.945313 17.699219-53.09375-7.082031 8.847656-24.777344 51.324219-35.394532 20.765625-46.011719-30.570313-10.609375 0-41.179688 23.195312-64.375l.023438-.011719c48.835937 16.847656 88.550781 53.269531 109.753906 99.886719-22.773438 0-44.011719 38.832031-22.773438 60.066406 11.527344 11.527344 25.851563 14.679687 39.550782 15.703125.011718.640625.011718 1.289062.011718 1.925781zm0 0" fill="#71cc8a"/><path d="m118.363281 362.339844h-.023437c-69.339844-27.609375-118.339844-95.347656-118.339844-174.539063 0-52.636719 21.648438-100.21875 56.539062-134.304687 51.207032 12.269531 60.054688 47.65625 26.429688 60.042968-33.144531 12.210938-35.335938 34.734376-1.523438 45.542969.507813.164063 1.003907.320313 1.523438.472657 23.914062 7.171874 14.699219 29.710937-3.078125 43.574218-8.519531 6.640625-19.019531 11.289063-28.777344 11.289063-30.085937 0-5.308593 61.058593 30.972657 61.058593 36.277343 0 36.277343 86.863282 36.277343 86.863282zm0 0" fill="#71cc8a"/><path d="m118.363281 362.339844h-.023437c-69.339844-27.609375-118.339844-95.347656-118.339844-174.539063 0-52.636719 21.648438-100.21875 56.539062-134.304687 51.207032 12.269531 60.054688 47.65625 26.429688 60.042968-33.144531 12.210938-35.335938 34.734376-1.523438 45.542969-1.4375 9.367188-2.179687 18.949219-2.179687 28.71875 0 5.15625.210937 10.265625.625 15.328125-8.519531 6.640625-19.019531 11.289063-28.78125 11.289063-30.085937 0-5.308594 61.058593 30.972656 61.058593s36.28125 86.863282 36.28125 86.863282zm0 0" fill="#3eaf85"/><path d="m466.90625 401.144531c-6.226562 9.039063-13.03125 17.660157-20.355469 25.808594-4.054687 4.527344-8.277343 8.894531-12.644531 13.105469l-38.429688-38.441406 12.871094-12.875 23.074219-23.082032zm0 0" fill="#f9a53f"/><path d="m466.90625 401.144531c-6.226562 9.039063-13.03125 17.660157-20.355469 25.808594l-38.203125-38.210937 23.074219-23.082032zm0 0" fill="#fce065"/><path d="m462.445312 270.128906c0 89.75-72.757812 162.507813-162.507812 162.507813s-162.507812-72.757813-162.507812-162.507813c0-89.753906 72.757812-162.507812 162.507812-162.507812s162.507812 72.753906 162.507812 162.507812zm0 0" fill="#ff616d"/><path d="m412.027344 322.652344c-1.429688 3.042968-2.976563 6.019531-4.648438 8.933594-17.828125 31.171874-49.039062 54.347656-87.230468 60.65625-6.445313 1.066406-12.863282 1.621093-19.203126 1.671874-28.359374.28125-55.171874-9.234374-76.632812-25.785156-23.910156-18.445312-41.179688-45.644531-46.5-77.792968-6.320312-38.191407 5.582031-75.203126 29.332031-102.128907 8.859375-10.054687 19.371094-18.695312 31.199219-25.484375 12.457031-7.148437 26.382812-12.238281 41.378906-14.714844 1.128906-.1875 2.265625-.355468 3.386719-.511718 65.054687-8.964844 125.867187 34.585937 138.332031 99.058594.230469 1.105468.429688 2.246093.617188 3.363281 4.253906 25.683593.269531 50.832031-10.03125 72.734375zm0 0" fill="#77c6cf"/><path d="m387.464844 182.601562c-27.710938-27.714843-65.296875-39.53125-101.433594-35.46875 26.898438 3.023438 52.992188 14.839844 73.621094 35.46875 48.339844 48.339844 48.339844 126.714844 0 175.054688-20.628906 20.628906-46.722656 32.445312-73.621094 35.46875 36.136719 4.0625 73.722656-7.753906 101.433594-35.46875 48.339844-48.339844 48.339844-126.714844 0-175.054688zm0 0" fill="#c4f9ff"/><path d="m412.027344 322.652344c-11.902344 8.128906-26.144532 15.832031-41.285156 22.296875-46.382813 19.792969-101.230469 27.953125-123.097657 1.191406-38.390625-46.976563 9.402344-122.25-21.273437-165.34375l11.972656-18.074219c12.457031-7.148437 26.382812-12.238281 41.378906-14.714844 1.128906-.1875 2.265625-.355468 3.386719-.511718.96875-.136719 1.953125-.261719 2.925781-.363282h.019532c63.9375-7.285156 123.109374 35.921876 135.386718 99.421876.230469 1.105468.429688 2.246093.617188 3.363281 4.253906 25.683593.269531 50.832031-10.03125 72.734375zm0 0" fill="#3eaf85"/><path d="m286.035156 393.121094c6.015625-.667969 11.992188-1.785156 17.875-3.34375l-2.964844 4.136718c-4.203124.042969-8.371093-.136718-12.488281-.511718-.835937-.105469-1.648437-.199219-2.421875-.28125zm0 0" fill="#ffdc6d"/><path d="m412.027344 322.652344c-11.902344 8.128906-26.144532 15.832031-41.285156 22.296875 36.917968-48.511719 33.21875-118.039063-11.09375-162.34375-20.617188-20.625-46.707032-32.445313-73.59375-35.472657 63.9375-7.285156 123.109374 35.921876 135.386718 99.421876.230469 1.105468.429688 2.246093.617188 3.363281 4.253906 25.683593.269531 50.832031-10.03125 72.734375zm0 0" fill="#71cc8a"/><path d="m299.9375 401.984375c-35.21875 0-68.332031-13.71875-93.234375-38.621094-51.410156-51.410156-51.410156-135.058593 0-186.46875 24.902344-24.90625 58.015625-38.621093 93.234375-38.621093s68.332031 13.714843 93.234375 38.621093c24.90625 24.902344 38.621094 58.015625 38.621094 93.234375s-13.714844 68.332032-38.621094 93.234375c-24.902344 24.902344-58.015625 38.621094-93.234375 38.621094zm0-247.566406c-30.90625 0-59.964844 12.035156-81.820312 33.890625-45.117188 45.117187-45.117188 118.523437 0 163.640625 21.855468 21.855469 50.914062 33.890625 81.820312 33.890625 30.910156 0 59.964844-12.035156 81.820312-33.890625 45.117188-45.117188 45.117188-118.527344 0-163.640625-21.855468-21.855469-50.914062-33.890625-81.820312-33.890625zm0 0" fill="#e53467"/></svg>