<svg height="512pt" viewBox="0 0 512 512" width="512pt" xmlns="http://www.w3.org/2000/svg"><path d="m512 255.765625c0 25.199219-3.644531 49.542969-10.4375 72.542969-9.929688 33.636718-26.582031 64.378906-48.410156 90.675781-46.914063 56.539063-117.714844 92.546875-196.917969 92.546875s-150.003906-36.007812-196.917969-92.546875c-36.757812-44.285156-58.847656-101.179687-58.847656-163.21875 0-58.835937 19.867188-113.039063 53.261719-156.257813 46.78125-60.527343 120.085937-99.507812 202.503906-99.507812 82.542969 0 155.953125 39.105469 202.710937 99.789062 19 24.636719 33.59375 52.84375 42.617188 83.433594 6.792969 22.996094 10.4375 47.339844 10.4375 72.542969zm0 0" fill="#77c6cf"/><g fill="#2e3651"><path d="m325.171875 418.136719v-17.398438h111.175781v17.398438c0 6.820312-5.53125 12.355469-12.355468 12.355469h-86.464844c-6.824219 0-12.355469-5.53125-12.355469-12.355469zm0 0"/><path d="m391.191406 98.882812v21.875h45.15625v-21.875c0-4.347656-3.527344-7.875-7.875-7.875h-29.40625c-4.351562 0-7.875 3.527344-7.875 7.875zm0 0"/><path d="m339.472656 98.882812v21.875h45.15625v-21.875c0-4.347656-3.527344-7.875-7.875-7.875h-29.40625c-4.351562 0-7.875 3.527344-7.875 7.875zm0 0"/></g><path d="m501.5625 147.289062v181.019532c-9.929688 33.636718-26.582031 64.378906-48.410156 90.675781h-393.835938c-36.757812-44.285156-58.847656-101.179687-58.847656-163.21875l-.46875-113.101563c0-23.832031 19.3125-43.15625 43.144531-43.15625h410.636719c.59375 0 1.179688.011719 1.761719.03125 1.148437.042969 2.285156.125 3.402343.25 23.96875 2.570313 42.617188 22.863282 42.617188 47.5zm0 0" fill="#445166"/><path d="m405.066406 405.972656h-318.539062c-6.535156 0-12.378906-2.902344-16.316406-7.476562-3.289063-3.777344-5.273438-8.714844-5.273438-14.101563v-250.277343c0-11.921876 9.667969-21.585938 21.589844-21.585938h318.539062c11.921875 0 21.585938 9.664062 21.585938 21.585938v250.277343c0 11.921875-9.664063 21.578125-21.585938 21.578125zm0 0" fill="#71cc8a"/><path d="m456.914062 301.011719v-83.515625c0-4.324219 3.503907-7.832032 7.828126-7.832032 4.324218 0 7.832031 3.507813 7.832031 7.832032v83.515625c0 4.324219-3.507813 7.828125-7.832031 7.828125-4.324219 0-7.828126-3.503906-7.828126-7.828125zm0 0" fill="#2e3651"/><path d="m44.980469 259.25c0 8.648438-7.007813 15.660156-15.65625 15.660156-8.648438 0-15.660157-7.011718-15.660157-15.660156 0-8.644531 7.011719-15.65625 15.660157-15.65625 8.648437 0 15.65625 7.011719 15.65625 15.65625zm0 0" fill="#2e3651"/><path d="m272.921875 292.265625h-96.46875l-75.6875 75.675781-30.554687 30.554688c-3.289063-3.777344-5.273438-8.714844-5.273438-14.101563v-20.484375l23.34375-23.339844 62.511719-62.503906v-75.058594h-85.855469v-28.1875h85.855469v-62.289062h28.175781v151.546875h93.953125v-151.546875h28.1875v226.699219h125.542969v28.1875h-125.542969v38.554687h-28.1875zm0 0" fill="#fce065"/><path d="m364.527344 289.300781c.054687.417969.09375.84375.136718 1.273438h-.292968c.054687-.429688.105468-.84375.15625-1.273438zm0 0" fill="#ffdc6d"/><path d="m118.765625 289.257812c.050781.441407.105469.878907.15625 1.316407h-.304687c.054687-.4375.09375-.875.148437-1.316407zm0 0" fill="#ffdc6d"/><path d="m222.234375 75.332031c-14.917969-83.421875-135.167969-83.421875-150.085937 0-1.328126 7.425781-2.019532 15.074219-2.019532 22.882813 0 52.789062 31.679688 98.175781 77.0625 118.203125 45.382813-20.027344 77.0625-65.414063 77.0625-118.203125 0-7.808594-.691406-15.457032-2.019531-22.882813zm0 0" fill="#ff616d"/><path d="m147.191406 216.417969c-45.382812-20.027344-77.0625-65.414063-77.0625-118.207031 0-7.804688.691406-15.453126 2.023438-22.878907 7.367187-41.207031 40.429687-62.058593 73.804687-62.550781-25.949219.644531-60.050781 21.484375-65.785156 62.550781-1.035156 7.425781-1.574219 15.074219-1.574219 22.878907-.003906 52.792968 33.1875 98.179687 68.59375 118.207031zm0 0" fill="#e53467"/><path d="m200.011719 89.320312c0 29.171876-23.648438 52.824219-52.820313 52.824219s-52.820312-23.652343-52.820312-52.824219c0-29.171874 23.648437-52.820312 52.820312-52.820312s52.820313 23.648438 52.820313 52.820312zm0 0" fill="#e53467"/><path d="m188.6875 89.320312c0 21.308594-16.066406 38.875-36.746094 41.226563-1.558594.179687-3.140625.273437-4.75.273437-22.917968 0-41.5-18.582031-41.5-41.5 0-22.917968 18.582032-41.496093 41.5-41.496093 1.609375 0 3.191406.09375 4.75.273437 20.679688 2.351563 36.746094 19.910156 36.746094 41.222656zm0 0" fill="#e5e5e5"/><path d="m188.6875 89.320312c0 21.308594-16.066406 38.875-36.746094 41.226563-20.683594-2.351563-36.75-19.917969-36.75-41.226563 0-21.3125 16.066406-38.871093 36.75-41.222656 20.679688 2.351563 36.746094 19.910156 36.746094 41.222656zm0 0" fill="#fcfcfc"/></svg>