<svg height="512pt" viewBox="0 0 512 512" width="512pt" xmlns="http://www.w3.org/2000/svg"><path d="m512 256c0 141.386719-114.613281 256-256 256s-256-114.613281-256-256 114.613281-256 256-256 256 114.613281 256 256zm0 0" fill="#2e3651"/><path d="m481.316406 110.90625v259.640625h-450.636718v-259.640625c0-23.082031 18.714843-41.796875 41.796874-41.796875h367.042969c23.082031 0 41.796875 18.714844 41.796875 41.796875zm0 0" fill="#fcfcfc"/><path d="m449.96875 110.90625v228.296875h-387.941406v-228.296875c0-5.757812 4.691406-10.449219 10.449218-10.449219h367.042969c5.757813 0 10.449219 4.691407 10.449219 10.449219zm0 0" fill="#71cc8a"/><path d="m30.679688 351.714844h450.636718v15.222656h-450.636718zm0 0" fill="#e5e5e5"/><path d="m488.785156 362.671875c-7.574218 16.519531-16.863281 32.089844-27.636718 46.488281-6.175782 8.253906-12.832032 16.121094-19.9375 23.5625h-370.414063c-7.105469-7.441406-13.761719-15.308594-19.9375-23.5625-10.773437-14.398437-20.0625-29.96875-27.636719-46.488281 2.640625-.625 5.398438-.960937 8.230469-.960937h449.097656c2.832031 0 5.589844.335937 8.234375.960937zm0 0" fill="#fcfcfc"/><path d="m295.25 387.21875h-78.492188c-13.382812 0-24.226562-10.847656-24.226562-24.230469v-1.277343h126.945312v1.277343c0 13.382813-10.847656 24.230469-24.226562 24.230469zm0 0" fill="#e5e5e5"/><path d="m461.148438 409.160156c-6.175782 8.253906-12.832032 16.121094-19.9375 23.5625h-370.414063c-7.105469-7.441406-13.761719-15.308594-19.9375-23.5625zm0 0" fill="#e5e5e5"/><path d="m75.058594 332.410156h361.878906v13.582032h-361.878906zm0 0" fill="#151a1c"/><path d="m358.058594 159.304688v75.128906l62.566406 62.558594 23.367188 23.363281v18.847656h-21.046876l-14.816406-14.816406-75.753906-75.742188h-96.558594v90.558594h-28.214844v-15.339844h-145.574218v-28.210937h145.574218v-195.195313h28.214844v119.972657h94.039063v-119.972657h28.203125v30.636719h85.933594v28.210938zm0 0" fill="#fce065"/><path d="m149.238281 279.964844h-21.222656c-24.339844 0-44.070313-19.730469-44.070313-44.070313v-68.59375c0-24.339843 19.730469-44.070312 44.070313-44.070312h21.222656c24.339844 0 44.070313 19.730469 44.070313 44.070312v68.59375c0 24.339844-19.730469 44.070313-44.070313 44.070313zm0 0" fill="#77c6cf"/><path d="m438.371094 345.992188h-364.746094c-10.15625 0-18.386719-8.230469-18.386719-18.386719v-216.699219c0-9.523438 7.71875-17.242188 17.238281-17.242188h367.042969c9.519531 0 17.238281 7.71875 17.238281 17.242188v216.699219c0 10.15625-8.230468 18.386719-18.386718 18.386719zm-363.3125-13.582032h361.878906c3.445312 0 6.238281-2.792968 6.238281-6.238281v-215.265625c0-2.023438-1.636719-3.660156-3.65625-3.660156h-367.042969c-2.019531 0-3.65625 1.636718-3.65625 3.660156v215.265625c0 3.445313 2.792969 6.238281 6.238282 6.238281zm0 0" fill="#e5e5e5"/><path d="m341.324219 92.316406c-16.960938-94.851562-153.679688-94.851562-170.640625 0-1.511719 8.441406-2.296875 17.132813-2.296875 26.011719 0 60.023437 36.019531 111.625 87.617187 134.394531 51.597656-22.769531 87.621094-74.371094 87.621094-134.394531-.003906-8.875-.789062-17.570313-2.300781-26.011719zm0 0" fill="#ff616d"/><path d="m256.003906 252.722656c-51.597656-22.769531-87.621094-74.367187-87.621094-134.390625 0-8.878906.792969-17.574219 2.300782-26.015625 8.378906-46.855468 45.96875-70.558594 83.914062-71.117187-29.503906.730469-68.277344 24.425781-74.792968 71.117187-1.175782 8.441406-1.792969 17.136719-1.792969 26.015625 0 60.019531 37.734375 111.621094 77.992187 134.390625zm0 0" fill="#e53467"/><path d="m316.058594 108.21875c0 33.167969-26.886719 60.058594-60.054688 60.058594-33.167968 0-60.054687-26.890625-60.054687-60.058594s26.886719-60.054688 60.054687-60.054688c33.167969 0 60.054688 26.886719 60.054688 60.054688zm0 0" fill="#e53467"/><path d="m303.183594 108.21875c0 24.226562-18.265625 44.199219-41.777344 46.871094-1.773438.207031-3.574219.3125-5.402344.3125-26.054687 0-47.183594-21.128906-47.183594-47.183594s21.128907-47.179688 47.183594-47.179688c1.828125 0 3.628906.105469 5.402344.3125 23.511719 2.671876 41.777344 22.636719 41.777344 46.867188zm0 0" fill="#e5e5e5"/><path d="m303.183594 108.21875c0 24.226562-18.265625 44.199219-41.777344 46.871094-23.515625-2.671875-41.785156-22.644532-41.785156-46.871094 0-24.230469 18.269531-44.195312 41.785156-46.867188 23.511719 2.671876 41.777344 22.636719 41.777344 46.867188zm0 0" fill="#fcfcfc"/></svg>