<svg height="512pt" viewBox="0 0 512 512" width="512pt" xmlns="http://www.w3.org/2000/svg"><path d="m512 256c0 141.386719-114.613281 256-256 256-42.222656 0-82.054688-10.21875-117.164062-28.328125-27.921876-14.398437-52.851563-33.78125-73.613282-56.96875-40.5625-45.292969-65.222656-105.125-65.222656-170.703125 0-141.386719 114.613281-256 256-256s256 114.613281 256 256zm0 0" fill="#77c6cf"/><g fill="#3c9ba5"><path d="m402.21875 335.355469c-1.292969 0-2.601562-.367188-3.757812-1.140625l-34.78125-23.175782c-3.121094-2.082031-3.96875-6.296874-1.886719-9.417968 2.078125-3.121094 6.292969-3.964844 9.417969-1.886719l34.78125 23.175781c3.121093 2.082032 3.964843 6.296875 1.886718 9.417969-1.308594 1.964844-3.464844 3.027344-5.660156 3.027344zm-54.78125-36.503907c-1.292969 0-2.601562-.367187-3.757812-1.140624l-34.78125-23.175782c-3.121094-2.078125-3.964844-6.296875-1.886719-9.417968 2.078125-3.121094 6.292969-3.964844 9.417969-1.886719l34.78125 23.179687c3.121093 2.078125 3.964843 6.296875 1.886718 9.417969-1.308594 1.960937-3.464844 3.023437-5.660156 3.023437zm-54.777344-36.5c-1.292968 0-2.601562-.371093-3.761718-1.144531l-34.78125-23.175781c-3.121094-2.078125-3.964844-6.296875-1.886719-9.417969 2.082031-3.121093 6.296875-3.964843 9.417969-1.886719l34.78125 23.175782c3.121093 2.082031 3.96875 6.296875 1.886718 9.421875-1.308594 1.964843-3.460937 3.027343-5.65625 3.027343zm-54.78125-36.503906c-1.296875 0-2.601562-.371094-3.761718-1.140625l-34.78125-23.179687c-3.121094-2.078125-3.964844-6.296875-1.886719-9.417969 2.082031-3.121094 6.296875-3.964844 9.417969-1.886719l34.785156 23.179688c3.121094 2.078125 3.964844 6.292968 1.882812 9.417968-1.308594 1.964844-3.460937 3.027344-5.65625 3.027344zm0 0"/><path d="m130.625 453.796875c-2.742188 0-5.324219-1.671875-6.355469-4.386719-1.328125-3.507812.4375-7.429687 3.949219-8.757812l39.085938-14.800782c3.507812-1.328124 7.429687.4375 8.757812 3.945313s-.4375 7.429687-3.949219 8.757813l-39.085937 14.800781c-.792969.300781-1.605469.441406-2.402344.441406zm61.5625-23.3125c-2.742188 0-5.324219-1.671875-6.355469-4.386719-1.328125-3.507812.4375-7.429687 3.949219-8.757812l39.085938-14.800782c3.507812-1.328124 7.429687.4375 8.757812 3.945313s-.4375 7.429687-3.949219 8.757813l-39.085937 14.800781c-.792969.300781-1.605469.441406-2.402344.441406zm61.5625-23.3125c-2.742188 0-5.324219-1.671875-6.355469-4.386719-1.328125-3.507812.4375-7.429687 3.949219-8.757812l39.085938-14.800782c3.507812-1.328124 7.429687.4375 8.757812 3.945313s-.441406 7.429687-3.949219 8.757813l-39.085937 14.800781c-.792969.300781-1.605469.441406-2.402344.441406zm61.5625-23.3125c-2.742188 0-5.324219-1.671875-6.355469-4.386719-1.328125-3.507812.441407-7.429687 3.949219-8.757812l39.085938-14.800782c3.507812-1.328124 7.429687.4375 8.757812 3.945313s-.4375 7.429687-3.945312 8.757813l-39.089844 14.800781c-.792969.300781-1.605469.441406-2.402344.441406zm61.5625-23.308594c-2.742188 0-5.324219-1.671875-6.355469-4.390625-1.328125-3.507812.441407-7.425781 3.949219-8.757812l15.371094-5.820313c3.511718-1.328125 7.429687.4375 8.757812 3.945313 1.328125 3.507812-.4375 7.429687-3.945312 8.757812l-15.375 5.820313c-.792969.300781-1.605469.445312-2.402344.445312zm0 0"/><path d="m260.167969 193.339844c0-14.558594-27.253907-26.359375-60.871094-26.359375-33.621094 0-60.875 11.800781-60.875 26.359375 0 14.554687 27.253906 26.355468 60.875 26.355468 33.617187 0 60.871094-11.800781 60.871094-26.355468zm0 0"/></g><path d="m270.535156 59.398438c-14.160156-79.195313-128.320312-79.195313-142.480468 0-1.261719 7.050781-1.917969 14.3125-1.917969 21.722656 0 50.117187 30.074219 93.207031 73.160156 112.21875 43.082031-19.011719 73.160156-62.101563 73.160156-112.21875 0-7.410156-.660156-14.671875-1.921875-21.722656zm0 0" fill="#ff616d"/><path d="m199.296875 193.339844c-43.085937-19.015625-73.160156-62.101563-73.160156-112.21875 0-7.410156.65625-14.671875 1.917969-21.722656 6.996093-39.121094 38.382812-58.914063 70.066406-59.3789068-24.632813.6093748-57.007813 20.3945308-62.453125 59.3789068-.980469 7.050781-1.492188 14.3125-1.492188 21.722656 0 50.121094 31.507813 93.203125 65.121094 112.21875zm0 0" fill="#e53467"/><path d="m249.441406 72.679688c0 27.695312-22.453125 50.144531-50.144531 50.144531-27.695313 0-50.148437-22.449219-50.148437-50.144531 0-27.695313 22.453124-50.144532 50.148437-50.144532 27.691406 0 50.144531 22.449219 50.144531 50.144532zm0 0" fill="#e53467"/><path d="m238.691406 72.679688c0 20.230468-15.25 36.90625-34.886718 39.136718-1.480469.171875-2.980469.261719-4.507813.261719-21.757813 0-39.398437-17.640625-39.398437-39.398437 0-21.757813 17.640624-39.394532 39.398437-39.394532 1.523437 0 3.027344.085938 4.507813.257813 19.636718 2.234375 34.886718 18.90625 34.886718 39.136719zm0 0" fill="#e5e5e5"/><path d="m238.691406 72.679688c0 20.230468-15.25 36.90625-34.886718 39.136718-19.632813-2.234375-34.886719-18.90625-34.886719-39.136718 0-20.230469 15.253906-36.902344 34.886719-39.136719 19.636718 2.234375 34.886718 18.90625 34.886718 39.136719zm0 0" fill="#fcfcfc"/><path d="m200.054688 450.476562c0 16.207032-26.171876 29.769532-61.21875 33.195313-27.921876-14.398437-52.851563-33.78125-73.613282-56.96875 14.273438-6.332031 34.1875-10.257813 56.226563-10.257813 43.414062 0 78.605469 15.234376 78.605469 34.03125zm0 0" fill="#3c9ba5"/><path d="m213.441406 277.53125c-18.285156-102.265625-165.691406-102.265625-183.980468 0-1.625 9.101562-2.476563 18.476562-2.476563 28.046875 0 64.714844 38.835937 120.347656 94.46875 144.898437 55.628906-24.550781 94.464844-80.183593 94.464844-144.898437 0-9.570313-.851563-18.945313-2.476563-28.046875zm0 0" fill="#ff616d"/><path d="m121.453125 450.476562c-55.632813-24.550781-94.46875-80.183593-94.46875-144.898437 0-9.570313.851563-18.945313 2.480469-28.050781 9.03125-50.511719 49.558594-76.070313 90.46875-76.671875-31.804688.789062-73.609375 26.335937-80.636719 76.671875-1.269531 9.105468-1.933594 18.480468-1.933594 28.050781 0 64.714844 40.683594 120.347656 84.089844 144.898437zm0 0" fill="#e53467"/><path d="m186.199219 294.679688c0 35.757812-28.988281 64.746093-64.746094 64.746093-35.761719 0-64.75-28.988281-64.75-64.746093 0-35.761719 28.988281-64.75 64.75-64.75 35.757813 0 64.746094 28.988281 64.746094 64.75zm0 0" fill="#e53467"/><path d="m172.320312 294.675781c0 26.121094-19.691406 47.652344-45.046874 50.539063-1.910157.21875-3.851563.332031-5.820313.332031-28.09375 0-50.871094-22.777344-50.871094-50.871094s22.777344-50.867187 50.871094-50.867187c1.972656 0 3.910156.117187 5.820313.335937 25.355468 2.882813 45.046874 24.410157 45.046874 50.53125zm0 0" fill="#e5e5e5"/><path d="m172.320312 294.675781c0 26.121094-19.691406 47.652344-45.046874 50.539063-25.351563-2.886719-45.046876-24.417969-45.046876-50.539063 0-26.121093 19.695313-47.648437 45.046876-50.53125 25.355468 2.882813 45.046874 24.410157 45.046874 50.53125zm0 0" fill="#fcfcfc"/><path d="m486.316406 338.507812c0-16.542968-30.96875-29.949218-69.171875-29.949218s-69.171875 13.40625-69.171875 29.949218c0 16.539063 30.96875 29.945313 69.171875 29.945313s69.171875-13.40625 69.171875-29.945313zm0 0" fill="#3c9ba5"/><path d="m498.097656 186.308594c-16.09375-89.996094-145.816406-89.996094-161.90625 0-1.433594 8.011718-2.179687 16.257812-2.179687 24.683594 0 56.949218 34.175781 105.910156 83.132812 127.511718 48.957031-21.601562 83.136719-70.5625 83.136719-127.511718-.003906-8.425782-.75-16.671876-2.183594-24.683594zm0 0" fill="#ff616d"/><path d="m417.144531 338.507812c-48.957031-21.605468-83.132812-70.566406-83.132812-127.515624 0-8.421876.746093-16.671876 2.183593-24.683594 7.945313-44.457032 43.613282-66.945313 79.617188-67.476563-27.992188.695313-64.785156 23.175781-70.96875 67.476563-1.113281 8.011718-1.699219 16.261718-1.699219 24.683594 0 56.949218 35.804688 105.90625 74 127.515624zm0 0" fill="#e53467"/><path d="m474.125 201.398438c0 31.46875-25.511719 56.980468-56.980469 56.980468s-56.980469-25.511718-56.980469-56.980468 25.511719-56.980469 56.980469-56.980469 56.980469 25.511719 56.980469 56.980469zm0 0" fill="#e53467"/><path d="m461.910156 201.398438c0 22.988281-17.332031 41.933593-39.640625 44.472656-1.683593.195312-3.390625.292968-5.125.292968-24.722656 0-44.769531-20.046874-44.769531-44.765624 0-24.722657 20.046875-44.765626 44.769531-44.765626 1.734375 0 3.441407.101563 5.125.296876 22.308594 2.535156 39.640625 21.476562 39.640625 44.46875zm0 0" fill="#e5e5e5"/><path d="m461.910156 201.398438c0 22.988281-17.332031 41.933593-39.640625 44.472656-22.3125-2.539063-39.648437-21.488282-39.648437-44.472656 0-22.988282 17.335937-41.933594 39.648437-44.46875 22.308594 2.535156 39.640625 21.476562 39.640625 44.46875zm0 0" fill="#fcfcfc"/></svg>