<svg height="512pt" viewBox="0 0 512 512" width="512pt" xmlns="http://www.w3.org/2000/svg"><path d="m512 256c0 141.386719-114.613281 256-256 256s-256-114.613281-256-256 114.613281-256 256-256 256 114.613281 256 256zm0 0" fill="#fce065"/><path d="m284.214844 49.097656v461.355469c-9.257813 1.023437-18.671875 1.546875-28.210938 1.546875-1.746094 0-3.492187-.023438-5.226562-.054688-7.75-.15625-15.421875-.65625-22.988282-1.492187v-461.355469zm0 0" fill="#2e3651"/><path d="m284.214844 431.824219v78.628906c-9.257813 1.023437-18.671875 1.546875-28.210938 1.546875-1.746094 0-3.492187-.023438-5.226562-.054688v-80.121093zm0 0" fill="#445166"/><path d="m444.867188 173.941406-153.808594-153.808594c-19.363282-19.363281-50.757813-19.363281-70.117188 0l-153.808594 153.808594c-19.363281 19.363282-19.363281 50.757813 0 70.117188l153.808594 153.808594c19.363282 19.363281 50.753906 19.363281 70.117188 0l153.808594-153.808594c19.363281-19.363282 19.363281-50.753906 0-70.117188zm0 0" fill="#77c6cf"/><g fill="#fcfcfc"><path d="m256 396.714844c-9.058594 0-17.574219-3.527344-23.976562-9.929688l-153.808594-153.808594c-6.402344-6.40625-9.929688-14.921874-9.929688-23.976562 0-9.058594 3.527344-17.570312 9.929688-23.976562l153.808594-153.808594c6.40625-6.402344 14.921874-9.929688 23.976562-9.929688 9.058594 0 17.574219 3.527344 23.976562 9.929688l153.808594 153.808594c6.402344 6.40625 9.929688 14.921874 9.929688 23.976562 0 9.058594-3.527344 17.574219-9.929688 23.976562l-153.808594 153.808594c-6.402343 6.402344-14.917968 9.929688-23.976562 9.929688zm0-354.53125c-3.476562 0-6.742188 1.351562-9.203125 3.808594l-153.804687 153.808593c-2.457032 2.457031-3.808594 5.722657-3.808594 9.199219s1.351562 6.742188 3.808594 9.199219l153.808593 153.808593c2.457031 2.457032 5.722657 3.8125 9.199219 3.8125 3.472656 0 6.742188-1.355468 9.199219-3.8125l153.808593-153.808593c2.457032-2.457031 3.808594-5.722657 3.808594-9.199219 0-3.472656-1.351562-6.742188-3.808594-9.199219l-153.808593-153.808593c-2.457031-2.457032-5.722657-3.808594-9.199219-3.808594zm0 0"/><path d="m249.929688 304.5625h-47.285157v-78.183594c0-47.164062 38.371094-85.53125 85.53125-85.53125h22.425781v47.285156h-22.425781c-21.089843 0-38.246093 17.15625-38.246093 38.246094zm0 0"/><path d="m288.699219 217.941406 68.800781-53.453125-68.800781-53.449219zm0 0"/></g></svg>