<svg height="512pt" viewBox="0 0 512 512" width="512pt" xmlns="http://www.w3.org/2000/svg"><path d="m512 256c0 79.820312-36.53125 151.101562-93.789062 198.050781-44.160157 36.214844-100.644532 57.949219-162.210938 57.949219-61.574219 0-118.0625-21.734375-162.21875-57.960938-57.25-46.9375-93.78125-118.21875-93.78125-198.039062 0-141.386719 114.613281-256 256-256s256 114.613281 256 256zm0 0" fill="#77c6cf"/><path d="m418.210938 187.515625v266.535156c-44.160157 36.214844-100.644532 57.949219-162.210938 57.949219-61.574219 0-118.0625-21.734375-162.21875-57.960938v-266.523437l37.699219-35.074219 124.519531-115.871094 124.46875 115.816407zm0 0" fill="#fcfcfc"/><path d="m356.785156 282.519531c-20.035156-112.046875-181.542968-112.046875-201.582031 0-1.78125 9.972657-2.710937 20.242188-2.710937 30.730469 0 70.90625 42.546874 131.863281 103.503906 158.757812 60.953125-26.894531 103.503906-87.851562 103.503906-158.757812 0-10.488281-.933594-20.757812-2.714844-30.730469zm0 0" fill="#ff616d"/><path d="m255.996094 472.007812c-60.953125-26.898437-103.503906-87.851562-103.503906-158.757812 0-10.484375.929687-20.757812 2.71875-30.730469 9.894531-55.347656 54.296874-83.351562 99.125-84.011719-34.851563.867188-80.65625 28.859376-88.355469 84.011719-1.386719 9.972657-2.117188 20.246094-2.117188 30.730469 0 70.90625 44.574219 131.859375 92.132813 158.757812zm0 0" fill="#e53467"/><path d="m326.9375 301.308594c0 39.179687-31.761719 70.941406-70.941406 70.941406-39.183594 0-70.945313-31.761719-70.945313-70.941406 0-39.183594 31.761719-70.945313 70.945313-70.945313 39.179687 0 70.941406 31.761719 70.941406 70.945313zm0 0" fill="#e53467"/><path d="m311.730469 301.304688c0 28.621093-21.578125 52.214843-49.355469 55.375-2.09375.242187-4.21875.363281-6.378906.363281-30.78125 0-55.738282-24.957031-55.738282-55.734375 0-30.78125 24.957032-55.734375 55.738282-55.734375 2.160156 0 4.285156.125 6.378906.367187 27.777344 3.160156 49.355469 26.742188 49.355469 55.363282zm0 0" fill="#e5e5e5"/><path d="m311.730469 301.304688c0 28.621093-21.578125 52.214843-49.355469 55.375-27.777344-3.160157-49.359375-26.753907-49.359375-55.375 0-28.621094 21.582031-52.203126 49.359375-55.363282 27.777344 3.160156 49.355469 26.742188 49.355469 55.363282zm0 0" fill="#fcfcfc"/><path d="m418.210938 187.515625v67.921875l-162.210938-143.269531-162.21875 143.269531v-67.921875l37.699219-35.074219 124.519531-109.964844 124.46875 109.910157zm0 0" fill="#e5e5e5"/><path d="m467.011719 257.773438-211.015625-186.347657-211.011719 186.347657-34.585937-39.160157 245.597656-216.890625 245.597656 216.890625zm0 0" fill="#445166"/></svg>