<svg height="512pt" viewBox="0 0 512 512" width="512pt" xmlns="http://www.w3.org/2000/svg"><path d="m512 256c0 36.050781-7.449219 70.363281-20.898438 101.46875-6.550781 15.132812-14.503906 29.507812-23.71875 42.96875-5.726562 8.378906-11.953124 16.394531-18.621093 24.011719-6.195313 7.09375-12.789063 13.832031-19.726563 20.207031-5.914062 5.433594-12.089844 10.59375-18.496094 15.453125-42.945312 32.570313-96.472656 51.890625-154.539062 51.890625s-111.59375-19.320312-154.539062-51.890625c-6.40625-4.859375-12.582032-10.019531-18.496094-15.453125-22.371094-20.511719-41.074219-44.960938-55.023438-72.253906-2.027344-3.960938-3.949218-7.972656-5.777344-12.058594-.429687-.949219-.847656-1.914062-1.265624-2.875-13.449219-31.105469-20.898438-65.417969-20.898438-101.46875 0-38.996094 8.714844-75.953125 24.316406-109.035156 40.949219-86.851563 129.292969-146.964844 231.683594-146.964844s190.734375 60.113281 231.683594 146.964844c15.601562 33.082031 24.316406 70.039062 24.316406 109.035156zm0 0" fill="#2e3651"/><path d="m512 155.960938v100.039062c0 36.050781-7.449219 70.363281-20.898438 101.46875-14.410156 33.332031-35.691406 63-62.066406 87.1875-5.914062 5.433594-12.089844 10.59375-18.496094 15.453125l-55.347656-20.46875-99.191406 57.980469-99.191406-57.980469-55.347656 20.46875c-6.40625-4.859375-12.582032-10.019531-18.496094-15.453125-26.375-24.1875-47.65625-53.855469-62.066406-87.1875-13.449219-31.105469-20.898438-65.417969-20.898438-101.46875v-100.039062l24.316406-8.996094 132.492188-48.996094 99.191406 57.992188 99.191406-57.992188 132.492188 48.996094zm0 0" fill="#fcfcfc"/><path d="m355.191406 97.964844v341.671875l-99.191406 57.980469v-341.660157zm0 0" fill="#e5e5e5"/><path d="m156.808594 97.96875v341.671875l-55.347656 20.46875c-6.40625-4.859375-12.582032-10.019531-18.496094-15.453125-22.371094-20.511719-41.074219-44.960938-55.023438-72.253906-2.507812-4.890625-4.847656-9.863282-7.042968-14.933594-13.449219-31.105469-20.898438-65.417969-20.898438-101.46875v-100.039062l24.316406-8.996094zm0 0" fill="#e5e5e5"/><path d="m491.101562 170.515625v186.953125c-14.410156 33.332031-35.691406 63-62.066406 87.1875l-73.84375-27.304688-2.015625-.742187-97.175781 56.800781-20.835938-12.183594-76.339843-44.617187-2.015625.742187-73.84375 27.304688c-26.375-24.1875-47.65625-53.855469-62.066406-87.1875v-186.953125l133.894531-49.515625 2.015625 1.179688 33.082031 19.339843 20.832031 12.183594 45.277344 26.46875 99.191406-57.992187 2.015625-1.179688zm0 0" fill="#71cc8a"/><path d="m248.6875 252.25v114.9375l-89.863281-54.335938-136.660157 47.492188c-.429687-.949219-.847656-1.914062-1.265624-2.875v-110.707031l135.835937-50.9375zm0 0" fill="#77c6cf"/><path d="m437.183594 389.261719-79.976563-29.582031-2.015625 1.179687-99.191406 57.992187v-150.035156l97.175781-56.800781 2.015625.742187 81.992188 30.320313zm53.917968-126.238281v-30.898438l-133.894531-49.519531-2.015625 1.179687-99.191406 57.992188-45.277344-26.464844v-61.609375l-20.832031-12.183594v61.609375l-33.082031-19.34375-2.015625-1.179687-133.894531 49.519531v30.898438l135.910156-50.261719 2.015625-.742188 76.339843 44.628907v84.929687l-78.355468-45.808594-2.015625-1.179687-133.894531 49.515625v13.363281c2.195312 5.070312 4.535156 10.042969 7.042968 14.933594l128.867188-47.660156 2.015625-.738282 76.339843 44.625v92.597656l20.835938 12.183594v-27.5l97.175781-56.800781 2.015625.742187 93.570313 34.597657c6.667969-7.617188 12.894531-15.632813 18.621093-24.011719l-9.371093-3.46875v-146.183594zm0 0" fill="#fce065"/><path d="m355.191406 122.175781v295.171875l-2.015625-.742187-97.175781 56.800781v-293.238281zm0 0" fill="#3eaf85"/><path d="m156.808594 122.179688v295.171874l-73.84375 27.304688c-22.371094-20.511719-41.074219-44.960938-55.023438-72.253906-2.507812-4.890625-4.847656-9.863282-7.042968-14.933594v-186.953125l133.894531-49.515625zm0 0" fill="#3eaf85"/><path d="m156.808594 195.867188v117.6875l-134.644532 46.789062c-.429687-.949219-.847656-1.914062-1.265624-2.875v-110.707031l135.835937-50.9375zm0 0" fill="#3c9ba5"/><g fill="#f9a53f"><path d="m355.191406 183.78125v28.976562l-2.015625-.742187-97.175781 56.800781v-27.042968zm0 0"/><path d="m355.191406 360.859375v28.988281l-2.015625-.742187-97.175781 56.800781v-27.054688zm0 0"/><path d="m156.808594 183.78125v28.976562l-135.910156 50.257813v-30.898437l133.894531-49.515626zm0 0"/><path d="m156.808594 295.769531v28.972657l-128.867188 47.660156c-2.507812-4.890625-4.847656-9.863282-7.042968-14.933594v-13.363281l133.894531-49.515625zm0 0"/></g><path d="m470.671875 85.738281c-18.238281-101.980469-165.234375-101.980469-183.472656 0-1.625 9.078125-2.46875 18.425781-2.46875 27.972657 0 64.535156 38.726562 120.015624 94.203125 144.496093 55.480468-24.480469 94.207031-79.960937 94.207031-144.496093 0-9.546876-.84375-18.894532-2.46875-27.972657zm0 0" fill="#ff616d"/><path d="m378.933594 258.207031c-55.476563-24.480469-94.203125-79.960937-94.203125-144.496093 0-9.546876.847656-18.894532 2.472656-27.972657 9.007813-50.375 49.421875-75.863281 90.222656-76.460937-31.722656.785156-73.410156 26.261718-80.417969 76.460937-1.265624 9.078125-1.925781 18.425781-1.925781 27.972657 0 64.535156 40.570313 120.015624 83.851563 144.496093zm0 0" fill="#e53467"/><path d="m443.507812 102.839844c0 35.660156-28.910156 64.570312-64.574218 64.570312-35.660156 0-64.570313-28.910156-64.570313-64.570312s28.910157-64.570313 64.570313-64.570313c35.664062 0 64.574218 28.910157 64.574218 64.570313zm0 0" fill="#e53467"/><path d="m429.664062 102.835938c0 26.050781-19.640624 47.523437-44.921874 50.398437-1.90625.222656-3.839844.335937-5.804688.335937-28.015625 0-50.730469-22.71875-50.730469-50.734374 0-28.015626 22.714844-50.722657 50.730469-50.722657 1.964844 0 3.902344.113281 5.804688.332031 25.28125 2.875 44.921874 24.34375 44.921874 50.390626zm0 0" fill="#e5e5e5"/><path d="m429.664062 102.835938c0 26.050781-19.640624 47.523437-44.921874 50.398437-25.28125-2.875-44.925782-24.347656-44.925782-50.398437 0-26.046876 19.644532-47.515626 44.925782-50.390626 25.28125 2.875 44.921874 24.34375 44.921874 50.390626zm0 0" fill="#fcfcfc"/></svg>