<svg height="512pt" viewBox="0 0 512 512" width="512pt" xmlns="http://www.w3.org/2000/svg"><path d="m512 256c0 97.898438-54.953125 182.960938-135.699219 226.011719-6.523437 3.488281-13.21875 6.699219-20.0625 9.613281-16.917969 7.210938-34.765625 12.652344-53.324219 16.082031-15.210937 2.832031-30.894531 4.292969-46.914062 4.292969s-31.703125-1.460938-46.914062-4.292969c-18.558594-3.429687-36.40625-8.871093-53.324219-16.082031-6.84375-2.914062-13.539063-6.125-20.0625-9.613281-43.078125-22.96875-78.816407-57.886719-102.765625-100.34375-20.96875-37.113281-32.933594-79.996094-32.933594-125.667969 0-18.546875 1.976562-36.625 5.714844-54.050781 19.550781-90.949219 87.40625-163.957031 175.40625-190.820313 7.054687-2.152344 14.242187-4.011718 21.535156-5.558594 17.199219-3.648437 35.046875-5.570312 53.34375-5.570312s36.144531 1.921875 53.34375 5.570312c7.292969 1.546876 14.480469 3.40625 21.535156 5.558594 104.855469 32.015625 181.121094 129.535156 181.121094 244.871094zm0 0" fill="#71cc8a"/><path d="m376.300781 482.011719c-6.523437 3.488281-13.21875 6.699219-20.0625 9.613281-30.785156 13.125-64.660156 20.375-100.238281 20.375s-69.453125-7.25-100.238281-20.375c-6.84375-2.914062-13.539063-6.125-20.0625-9.613281l45.421875-470.882813c7.054687-2.152344 14.242187-4.011718 21.535156-5.558594 17.199219-3.648437 35.046875-5.570312 53.34375-5.570312s36.144531 1.921875 53.34375 5.570312c7.292969 1.546876 14.480469 3.40625 21.535156 5.558594zm0 0" fill="#fcfcfc"/><path d="m356.238281 491.625c-30.785156 13.125-64.660156 20.375-100.238281 20.375s-69.453125-7.25-100.238281-20.375l46.894531-486.054688c17.199219-3.648437 35.046875-5.570312 53.34375-5.570312s36.144531 1.921875 53.34375 5.570312zm0 0" fill="#445166"/><path d="m302.914062 459.273438v48.433593c-6.582031 1.230469-13.257812 2.191407-20.007812 2.902344-8.839844.921875-17.824219 1.390625-26.90625 1.390625s-18.066406-.46875-26.90625-1.390625c-6.75-.710937-13.425781-1.671875-20.007812-2.902344v-48.433593zm0 0" fill="#f9a53f"/><path d="m283.417969 479.890625h-54.835938c-11.210937 0-20.125-9.414063-19.496093-20.617187l4.03125-72.777344.636718-11.460938c.574219-10.34375 9.132813-18.441406 19.5-18.441406h45.492188c10.367187 0 18.925781 8.097656 19.5 18.441406l.636718 11.460938 4.03125 72.777344c.628907 11.203124-8.285156 20.617187-19.496093 20.617187zm0 0" fill="#f9a53f"/><path d="m283.417969 479.890625h-54.835938c-11.210937 0-20.125-9.414063-19.496093-20.617187l4.03125-72.777344c4.066406-3.039063 9.101562-4.828125 14.546874-4.828125h56.671876c5.445312 0 10.480468 1.789062 14.546874 4.828125l4.03125 72.777344c.628907 11.203124-8.285156 20.617187-19.496093 20.617187zm0 0" fill="#fce065"/><path d="m282.90625 500.078125v10.53125c-8.839844.921875-17.824219 1.390625-26.90625 1.390625s-18.066406-.46875-26.90625-1.390625v-10.53125c0-4.226563 3.425781-7.648437 7.648438-7.648437h38.515624c4.222657 0 7.648438 3.421874 7.648438 7.648437zm0 0" fill="#77c6cf"/><path d="m223.398438 315.839844v-96.898438h-32.429688l65.035156-112.621094 65.027344 112.621094h-32.421875v96.898438zm0 0" fill="#ff616d"/><path d="m127.476562 80.738281v151.507813l-18.808593 149.421875-34.480469-75.230469" fill="#fff"/><path d="m108.667969 201.949219v179.71875h-75.734375c-20.96875-37.113281-32.933594-79.996094-32.933594-125.667969v-54.050781zm0 0" fill="#e5e5e5"/><path d="m0 80.738281h127.476562l-18.808593 149.945313h-108.667969zm0 0" fill="#fcfcfc"/><path d="m384.519531 80.738281v151.507813l18.808594 149.421875 34.480469-75.230469" fill="#e5e5e5"/><path d="m403.328125 201.949219v179.71875h75.734375c20.96875-37.113281 32.933594-79.996094 32.933594-125.667969v-54.050781zm0 0" fill="#fff"/><path d="m511.996094 80.738281h-127.476563l18.808594 149.945313h108.667969zm0 0" fill="#fcfcfc"/><g fill="#fce065"><path d="m69.992188 106.261719v-3.582031c0-12.636719-7.734376-15.089844-18.109376-15.089844-6.410156 0-8.484374-5.65625-8.484374-11.316406 0-5.65625 2.074218-11.316407 8.484374-11.316407 7.167969 0 14.710938-.941406 14.710938-16.21875 0-10.9375-6.222656-13.578125-13.953125-13.578125-9.242187 0-13.957031 2.261719-13.957031 9.617188 0 6.414062-2.828125 10.75-13.769532 10.75-13.578124 0-15.277343-2.828125-15.277343-11.882813 0-14.710937 10.5625-33.757812 43.003906-33.757812 23.949219 0 42.054687 8.675781 42.054687 34.136719 0 13.769531-5.089843 26.59375-14.519531 30.929687 11.125 4.152344 19.234375 12.449219 19.234375 27.726563v3.582031c0 30.929687-21.308594 42.625-47.714844 42.625-32.4375 0-44.886718-19.804688-44.886718-35.644531 0-8.488282 3.582031-10.75 13.957031-10.75 12.070313 0 15.085937 2.640624 15.085937 9.804687 0 8.867187 8.296876 10.941406 16.785157 10.941406 12.828125-.003906 17.355469-4.71875 17.355469-16.976562zm0 0"/><path d="m160.894531 9.886719c26.027344 0 46.394531 12.070312 46.394531 44.507812v48.851563c0 32.4375-20.371093 44.507812-46.394531 44.507812h-33.382812c-7.734375 0-12.824219-4.148437-12.824219-8.863281v-120.140625c0-4.710938 5.089844-8.863281 12.824219-8.863281zm-16.785156 25.648437v86.570313h16.785156c10.5625 0 16.972657-6.035157 16.972657-18.859375v-48.847656c0-12.824219-6.410157-18.859376-16.972657-18.859376h-16.785156zm0 0"/></g></svg>