<svg height="512pt" viewBox="0 0 512 512" width="512pt" xmlns="http://www.w3.org/2000/svg"><path d="m511.996094 256c0 141.382812-114.613282 255.996094-255.996094 255.996094-141.386719 0-256-114.613282-256-255.996094 0-141.386719 114.613281-256 256-256 141.382812 0 255.996094 114.613281 255.996094 256zm0 0" fill="#77c6cf"/><path d="m217.726562 188.5v-87.179688h-38.078124l76.359374-101.320312 76.347657 101.320312h-38.066407v87.179688zm0 0" fill="#445166"/><path d="m294.277344 323.496094v87.179687h38.078125l-76.359375 101.320313-76.347656-101.320313h38.066406v-87.179687zm0 0" fill="#445166"/><path d="m323.5 217.722656h87.179688v-38.078125l101.320312 76.359375-101.320312 76.347656v-38.066406h-87.179688zm0 0" fill="#fce065"/><path d="m188.503906 294.273438h-87.179687v38.078124l-101.32031275-76.359374 101.32031275-76.347657v38.066407h87.179687zm0 0" fill="#445166"/></svg>