<svg height="512pt" viewBox="0 0 512 512" width="512pt" xmlns="http://www.w3.org/2000/svg"><path d="m512 256c0 141.386719-114.613281 256-256 256s-256-114.613281-256-256 114.613281-256 256-256 256 114.613281 256 256zm0 0" fill="#fce065"/><path d="m284.214844 9.683594v500.769531c-9.257813 1.023437-18.671875 1.546875-28.210938 1.546875-1.746094 0-3.492187-.023438-5.226562-.054688-7.75-.15625-15.421875-.65625-22.988282-1.492187v-500.769531zm0 0" fill="#2e3651"/><path d="m284.214844 410.925781v99.527344c-9.257813 1.023437-18.671875 1.546875-28.210938 1.546875-1.746094 0-3.492187-.023438-5.226562-.054688v-101.019531zm0 0" fill="#445166"/><path d="m449.304688 193.304688c0 106.761718-86.542969 193.308593-193.304688 193.308593s-193.304688-86.546875-193.304688-193.308593c0-106.757813 86.542969-193.304688 193.304688-193.304688s193.304688 86.546875 193.304688 193.304688zm0 0" fill="#ff616d"/><path d="m135.300781 150.984375h241.394531v84.644531h-241.394531zm0 0" fill="#fcfcfc"/></svg>