<svg height="512pt" viewBox="0 0 512 512" width="512pt" xmlns="http://www.w3.org/2000/svg"><path d="m511.996094 256c0 141.382812-114.613282 255.996094-255.996094 255.996094-141.386719 0-256-114.613282-256-255.996094 0-141.386719 114.613281-256 256-256 141.382812 0 255.996094 114.613281 255.996094 256zm0 0" fill="#dbdbdb"/><path d="m512 155.960938v100.035156c0 36.050781-7.449219 70.363281-20.898438 101.472656-14.410156 33.332031-35.691406 62.996094-62.066406 87.183594-5.914062 5.433594-12.089844 10.59375-18.492187 15.453125l-55.351563-20.46875-99.191406 57.980469-99.191406-57.980469-55.347656 20.46875c-6.402344-4.859375-12.578126-10.019531-18.492188-15.453125-26.375-24.1875-47.660156-53.851563-62.066406-87.183594-13.449219-31.109375-20.89843775-65.421875-20.89843775-101.472656v-100.035156l24.31249975-8.996094 132.492188-48.996094 99.191406 57.992188 99.191406-57.992188 132.492188 48.996094zm0 0" fill="#fcfcfc"/><path d="m355.191406 97.960938v341.671874l-99.191406 57.980469v-341.660156zm0 0" fill="#e5e5e5"/><path d="m156.808594 97.96875v341.667969l-55.347656 20.46875c-6.402344-4.859375-12.578126-10.019531-18.492188-15.453125-22.371094-20.511719-41.074219-44.960938-55.023438-72.253906-2.507812-4.890626-4.851562-9.863282-7.042968-14.929688-13.449219-31.109375-20.89843775-65.421875-20.89843775-101.472656v-100.035156l24.31249975-8.996094zm0 0" fill="#e5e5e5"/><path d="m491.101562 170.515625v186.953125c-14.410156 33.332031-35.691406 62.996094-62.066406 87.183594l-73.84375-27.304688-2.015625-.738281-97.175781 56.796875-20.832031-12.183594-76.339844-44.613281-2.019531.738281-73.839844 27.304688c-26.375-24.1875-47.660156-53.851563-62.066406-87.183594v-186.953125l133.890625-49.519531 2.015625 1.183594 33.082031 19.339843 20.835937 12.183594 45.273438 26.464844 99.191406-57.988281 2.019532-1.183594zm0 0" fill="#71cc8a"/><path d="m248.6875 252.246094v114.9375l-89.859375-54.332032-136.664063 47.488282c-.425781-.949219-.84375-1.910156-1.261718-2.871094v-110.707031l135.835937-50.941407zm0 0" fill="#77c6cf"/><path d="m437.1875 389.257812-79.976562-29.582031-2.019532 1.183594-99.191406 57.988281v-150.035156l97.175781-56.800781 2.015625.742187 81.996094 30.324219zm53.914062-126.238281v-30.898437l-133.890624-49.515625-2.019532 1.179687-99.191406 57.992188-45.273438-26.46875v-61.605469l-20.835937-12.183594v61.605469l-33.082031-19.339844-2.015625-1.179687-133.890625 49.515625v30.898437l135.90625-50.257812 2.019531-.742188 76.339844 44.625v84.929688l-78.359375-45.808594-2.015625-1.179687-133.890625 49.515624v13.367188c2.191406 5.066406 4.535156 10.039062 7.042968 14.929688l128.863282-47.65625 2.019531-.742188 76.339844 44.625v92.597656l20.832031 12.183594v-27.5l97.175781-56.800781 2.015625.742187 93.570313 34.597656c6.667969-7.617187 12.894531-15.632812 18.621093-24.011718l-9.371093-3.46875v-146.179688zm0 0" fill="#fce065"/><path d="m355.191406 122.171875v295.171875l-2.015625-.742188-97.175781 56.800782v-293.238282zm0 0" fill="#3eaf85"/><path d="m156.808594 122.179688v295.167968l-73.839844 27.304688c-22.371094-20.511719-41.074219-44.960938-55.023438-72.253906-2.027343-3.960938-3.953124-7.972657-5.78125-12.058594-.425781-.949219-.84375-1.910156-1.261718-2.871094v-186.953125l133.890625-49.519531zm0 0" fill="#3eaf85"/><path d="m156.808594 195.863281v117.6875l-134.644532 46.789063c-.425781-.949219-.84375-1.910156-1.261718-2.871094v-110.707031l135.835937-50.941407zm0 0" fill="#3c9ba5"/><g fill="#f9a53f"><path d="m355.191406 183.78125v28.972656l-2.015625-.742187-97.175781 56.800781v-27.042969zm0 0"/><path d="m355.191406 360.859375v28.984375l-2.015625-.742188-97.175781 56.800782v-27.054688zm0 0"/><path d="m156.808594 183.78125v28.972656l-135.90625 50.261719v-30.898437l133.890625-49.519532zm0 0"/><path d="m156.808594 295.765625v28.976563l-128.863282 47.65625c-2.507812-4.890626-4.851562-9.863282-7.042968-14.929688v-13.367188l133.890625-49.515624zm0 0"/></g><path d="m384.035156 145.660156-17.65625 41.472656-59.707031 140.214844-28.714844 17.460938-7.332031-32.820313 77.363281-181.6875 18.390625 7.835938 1.378906.585937zm0 0" fill="#445166"/><path d="m462.140625 311.988281-8.648437 32.820313-27.398438-17.460938-59.714844-140.214844-9.738281-22.882812-7.921875-18.589844 17.660156-7.523437.21875-.09375 1.785156-.761719 16.386719-6.980469zm0 0" fill="#445166"/><path d="m368.382812 137.28125-.625 1.441406-11.117187 25.527344-78.683594 180.558594-7.332031-32.820313 77.363281-181.6875 18.390625 7.835938zm0 0" fill="#2e3651"/><path d="m453.492188 344.808594-27.398438-17.460938-59.714844-140.214844-9.738281-22.882812-7.921875-18.589844 17.660156-7.523437.21875-.09375zm0 0" fill="#2e3651"/><path d="m356.128906 39.1875h20.503906v68.960938h-20.503906zm0 0" fill="#2e3651"/><path d="m413.324219 130.109375c0 25.925781-21.015625 46.945313-46.945313 46.945313-25.925781 0-46.945312-21.019532-46.945312-46.945313 0-25.929687 21.019531-46.949219 46.945312-46.949219 25.929688 0 46.945313 21.019532 46.945313 46.949219zm0 0" fill="#ff616d"/><path d="m388.910156 130.109375c0 12.441406-10.089844 22.527344-22.53125 22.527344s-22.527344-10.085938-22.527344-22.527344c0-12.445313 10.085938-22.53125 22.527344-22.53125s22.53125 10.085937 22.53125 22.53125zm0 0" fill="#fcfcfc"/><path d="m343.65625 4.707031h45.449219v68.960938h-45.449219zm0 0" fill="#445166"/><path d="m343.65625 4.707031h20.503906v68.960938h-20.503906zm0 0" fill="#2e3651"/></svg>