<svg height="512pt" viewBox="0 0 512 512" width="512pt" xmlns="http://www.w3.org/2000/svg"><path d="m512 256c0 141.386719-114.613281 256-256 256s-256-114.613281-256-256 114.613281-256 256-256 256 114.613281 256 256zm0 0" fill="#ff616d"/><path d="m462.894531 119.230469v287.578125c-19.875 27.21875-44.996093 50.363281-73.867187 67.960937-13.101563 7.984375-26.976563 14.816407-41.480469 20.375-28.421875 10.886719-59.289063 16.855469-91.542969 16.855469-32.257812 0-63.125-5.96875-91.542968-16.855469-14.503907-5.558593-28.378907-12.390625-41.484376-20.375-28.871093-17.597656-53.988281-40.742187-73.863281-67.960937v-386.675782h314.671875zm0 0" fill="#fcfcfc"/><path d="m82.65625 161.308594h346.359375v177.101562h-346.359375zm0 0" fill="#77c6cf"/><g fill="#2e3651"><path d="m143.15625 91.417969h225.6875v20.375h-225.6875zm0 0"/><path d="m82.652344 370.28125h346.367187v20.375h-346.367187zm0 0"/><path d="m82.652344 422.523438h346.367187v20.375h-346.367187zm0 0"/><path d="m389.027344 474.769531c-13.101563 7.984375-26.976563 14.816407-41.480469 20.375h-183.085937c-14.503907-5.558593-28.378907-12.390625-41.484376-20.375zm0 0"/></g><path d="m363.785156 119.230469v-99.097657l99.109375 99.097657zm0 0" fill="#e5e5e5"/><path d="m318.183594 216.1875v66.339844h110.832031v23.617187h-162.375v32.265625h-23.605469v-71.597656h-80.8125l-63.394531 63.375-8.222656 8.222656h-7.949219v-25.421875l5.722656-5.726562 52.351563-52.347657v-34.859374h-58.074219v-23.613282h58.074219v-35.132812h23.605469v81.890625h78.699218v-81.890625h23.605469v121.21875h27.941406v-121.21875h23.601563v31.277344h110.832031v23.601562zm0 0" fill="#fce065"/><path d="m217.800781 164.390625c-13.785156-77.089844-124.902343-77.089844-138.6875 0-1.226562 6.859375-1.867187 13.925781-1.867187 21.140625 0 48.78125 29.273437 90.722656 71.210937 109.226562 41.9375-18.503906 71.210938-60.445312 71.210938-109.226562 0-7.214844-.640625-14.28125-1.867188-21.140625zm0 0" fill="#ff616d"/><path d="m148.457031 294.757812c-41.9375-18.507812-71.210937-60.441406-71.210937-109.226562 0-7.214844.640625-14.28125 1.871094-21.144531 6.808593-38.078125 37.359374-57.34375 68.195312-57.796875-23.976562.59375-55.488281 19.851562-60.785156 57.796875-.957032 6.863281-1.457032 13.929687-1.457032 21.144531 0 48.785156 30.667969 90.71875 63.386719 109.226562zm0 0" fill="#e53467"/><path d="m197.265625 177.316406c0 26.957032-21.851563 48.808594-48.808594 48.808594s-48.808593-21.851562-48.808593-48.808594c0-26.957031 21.851562-48.808594 48.808593-48.808594s48.808594 21.851563 48.808594 48.808594zm0 0" fill="#e53467"/><path d="m186.800781 177.3125c0 19.691406-14.84375 35.921875-33.953125 38.097656-1.441406.164063-2.902344.25-4.390625.25-21.175781 0-38.347656-17.167968-38.347656-38.347656 0-21.175781 17.171875-38.34375 38.347656-38.34375 1.484375 0 2.949219.085938 4.390625.253906 19.109375 2.175782 33.953125 18.398438 33.953125 38.089844zm0 0" fill="#e5e5e5"/><path d="m186.800781 177.3125c0 19.691406-14.84375 35.921875-33.953125 38.097656-19.113281-2.175781-33.960937-18.402344-33.960937-38.097656 0-19.691406 14.847656-35.914062 33.960937-38.089844 19.109375 2.175782 33.953125 18.398438 33.953125 38.089844zm0 0" fill="#fcfcfc"/></svg>