<svg height="512pt" viewBox="0 0 512 512" width="512pt" xmlns="http://www.w3.org/2000/svg"><path d="m512 256c0 141.386719-114.613281 256-256 256s-256-114.613281-256-256 114.613281-256 256-256 256 114.613281 256 256zm0 0" fill="#445166"/><path d="m160.953125 421.5h190.09375v55.546875h-190.09375zm0 0" fill="#e5e5e5"/><path d="m495.765625 111.773438v234.140624c-12.589844 33.570313-32.035156 63.800782-56.632813 88.972657h-366.257812c-24.597656-25.183594-44.054688-55.421875-56.644531-89.003907v-234.109374c0-28.109376 22.789062-50.886719 50.886719-50.886719h377.761718c28.109375 0 50.886719 22.777343 50.886719 50.886719zm0 0" fill="#fcfcfc"/><path d="m471.085938 111.773438v253.710937c0 14.441406-11.757813 26.195313-26.207032 26.195313h-377.761718c-8.117188 0-15.382813-3.71875-20.1875-9.53125-3.75-4.535157-5.996094-10.34375-5.996094-16.664063v-253.710937c0-14.453126 11.742187-26.207032 26.183594-26.207032h377.761718c14.449219 0 26.207032 11.753906 26.207032 26.207032zm0 0" fill="#77c6cf"/><path d="m352.792969 217.703125v89.046875h118.292969v31.703125h-187.488282v53.226563h-31.679687v-106.027344h-108.472657l-96.515624 96.496094c-3.75-4.535157-5.996094-10.34375-5.996094-16.664063v-22.132813l73.664062-73.664062v-46.789062h-73.664062v-31.695313h73.664062v-73.277344h31.691406v136.035157h105.628907v-136.035157h31.679687v188.824219h37.503906v-188.824219h31.691407v68.097657h118.292969v31.679687zm0 0" fill="#fce065"/><path d="m390.722656 473.714844c-13.929687 8.652344-28.746094 15.984375-44.273437 21.847656h-180.871094c-15.546875-5.863281-30.363281-13.207031-44.292969-21.847656 1.785156-7.984375 8.921875-13.949219 17.449219-13.949219h234.539063c4.929687 0 9.402343 2.003906 12.652343 5.246094 2.351563 2.347656 4.042969 5.347656 4.796875 8.703125zm0 0" fill="#e5e5e5"/><path d="m390.722656 473.714844c-13.929687 8.652344-28.746094 15.984375-44.273437 21.847656h-138.585938c-4.941406 0-9.414062-1.996094-12.652343-5.246094-3.25-3.238281-5.246094-7.710937-5.246094-12.652344 0-9.886718 8.015625-17.898437 17.898437-17.898437h165.410157c4.929687 0 9.402343 2.003906 12.652343 5.246094 2.351563 2.347656 4.042969 5.347656 4.796875 8.703125zm0 0" fill="#fcfcfc"/><path d="m265.875 415.332031c0 5.453125-4.421875 9.875-9.875 9.875s-9.875-4.421875-9.875-9.875c0-5.457031 4.421875-9.878906 9.875-9.878906s9.875 4.421875 9.875 9.878906zm0 0" fill="#e5e5e5"/><path d="m471.082031 111.773438v28.292968h-430.152343v-28.292968c0-14.453126 11.75-26.207032 26.191406-26.207032h377.753906c14.457031 0 26.207031 11.753906 26.207031 26.207032zm0 0" fill="#dbdbdb"/><g fill="#fff"><path d="m89.488281 115.378906c0 8.179688-6.632812 14.8125-14.8125 14.8125-8.179687 0-14.8125-6.632812-14.8125-14.8125 0-8.183594 6.632813-14.8125 14.8125-14.8125 8.179688 0 14.8125 6.628906 14.8125 14.8125zm0 0"/><path d="m172.191406 115.378906c0 8.179688-6.632812 14.8125-14.8125 14.8125-8.179687 0-14.8125-6.632812-14.8125-14.8125 0-8.183594 6.632813-14.8125 14.8125-14.8125 8.179688 0 14.8125 6.628906 14.8125 14.8125zm0 0"/><path d="m130.839844 115.378906c0 8.179688-6.632813 14.8125-14.8125 14.8125-8.179688 0-14.8125-6.632812-14.8125-14.8125 0-8.183594 6.632812-14.8125 14.8125-14.8125 8.179687 0 14.8125 6.628906 14.8125 14.8125zm0 0"/></g><path d="m444.875 397.851562h-377.753906c-17.84375 0-32.363282-14.519531-32.363282-32.363281v-253.714843c0-17.851563 14.519532-32.375 32.363282-32.375h377.753906c17.855469 0 32.378906 14.523437 32.378906 32.375v253.714843c0 17.84375-14.523437 32.363281-32.378906 32.363281zm-377.753906-306.113281c-11.039063 0-20.019532 8.988281-20.019532 20.035157v253.714843c0 11.039063 8.980469 20.019531 20.019532 20.019531h377.753906c11.046875 0 20.035156-8.980468 20.035156-20.019531v-253.714843c0-11.046876-8.988281-20.035157-20.035156-20.035157zm0 0" fill="#e5e5e5"/><path d="m325.339844 209.25c-13.78125-77.085938-124.898438-77.085938-138.683594 0-1.226562 6.863281-1.867188 13.929688-1.867188 21.144531 0 48.78125 29.273438 90.71875 71.210938 109.222657 41.933594-18.503907 71.210938-60.441407 71.210938-109.222657-.003907-7.214843-.644532-14.28125-1.871094-21.144531zm0 0" fill="#ff616d"/><path d="m255.996094 339.621094c-41.933594-18.507813-71.210938-60.445313-71.210938-109.226563 0-7.214843.644532-14.28125 1.871094-21.144531 6.808594-38.078125 37.359375-57.34375 68.199219-57.796875-23.976563.59375-55.492188 19.851563-60.789063 57.796875-.953125 6.863281-1.457031 13.929688-1.457031 21.144531.003906 48.78125 30.671875 90.71875 63.386719 109.226563zm0 0" fill="#e53467"/><path d="m304.808594 222.175781c0 26.957031-21.855469 48.8125-48.8125 48.8125-26.953125 0-48.808594-21.855469-48.808594-48.8125 0-26.953125 21.855469-48.808593 48.808594-48.808593 26.957031 0 48.8125 21.855468 48.8125 48.808593zm0 0" fill="#e53467"/><path d="m294.34375 222.175781c0 19.691407-14.84375 35.921875-33.957031 38.097657-1.4375.164062-2.902344.25-4.386719.25-21.179688 0-38.347656-17.171876-38.347656-38.347657s17.167968-38.34375 38.347656-38.34375c1.484375 0 2.945312.085938 4.386719.25 19.113281 2.175781 33.957031 18.402344 33.957031 38.09375zm0 0" fill="#e5e5e5"/><path d="m294.34375 222.175781c0 19.691407-14.84375 35.921875-33.957031 38.097657-19.109375-2.175782-33.957031-18.40625-33.957031-38.097657 0-19.691406 14.847656-35.917969 33.957031-38.089843 19.113281 2.171874 33.957031 18.398437 33.957031 38.089843zm0 0" fill="#fcfcfc"/></svg>