<svg height="512pt" viewBox="0 0 512 512" width="512pt" xmlns="http://www.w3.org/2000/svg"><path d="m512 256c0 130.308594-97.363281 237.882812-223.316406 253.929688-10.710938 1.371093-21.609375 2.070312-32.683594 2.070312s-21.984375-.699219-32.695312-2.070312c-125.941407-16.046876-223.304688-123.621094-223.304688-253.929688 0-141.386719 114.613281-256 256-256s256 114.613281 256 256zm0 0" fill="#71cc8a"/><path d="m288.683594 188.867188v321.0625c-10.710938 1.371093-21.609375 2.070312-32.683594 2.070312s-21.984375-.699219-32.695312-2.070312v-321.0625zm0 0" fill="#fcfcfc"/><path d="m256 188.867188v323.132812c-11.074219 0-21.984375-.699219-32.695312-2.070312v-321.0625zm0 0" fill="#e5e5e5"/><path d="m288.683594 188.867188v102.398437c-10.457032 2.601563-21.398438 3.980469-32.671875 3.980469-11.277344 0-22.238281-1.378906-32.707031-3.980469v-102.398437zm0 0" fill="#e5e5e5"/><path d="m391.082031 135.097656c0 59.226563-38.140625 109.554688-91.203125 127.789063-13.761718 4.71875-28.511718 7.28125-43.871094 7.28125-74.609374 0-135.09375-60.488281-135.09375-135.070313 0-74.613281 60.484376-135.097656 135.09375-135.097656 15.355469 0 30.109376 2.566406 43.871094 7.28125 53.0625 18.234375 91.203125 68.5625 91.203125 127.816406zm0 0" fill="#e53467"/><path d="m391.082031 135.097656c0 59.226563-38.140625 109.554688-91.203125 127.789063-53.058594-18.210938-91.222656-68.5625-91.222656-127.789063 0-59.253906 38.164062-109.605468 91.222656-127.816406 53.0625 18.234375 91.203125 68.5625 91.203125 127.816406zm0 0" fill="#ff616d"/></svg>