<svg width="40" height="40" xmlns="http://www.w3.org/2000/svg" xmlns:xlink="http://www.w3.org/1999/xlink" xml:space="preserve" overflow="hidden"><defs><filter id="fx0" x="-10%" y="-10%" width="120%" height="120%" filterUnits="userSpaceOnUse" primitiveUnits="userSpaceOnUse"><feComponentTransfer color-interpolation-filters="sRGB"><feFuncR type="discrete" tableValues="1.000000 1.000000"/><feFuncG type="discrete" tableValues="1.000000 1.000000"/><feFuncB type="discrete" tableValues="1.000000 1.000000"/><feFuncA type="linear" slope="1.000000" intercept="0.000000"/></feComponentTransfer><feGaussianBlur stdDeviation="3.302712 3.302712"/></filter><clipPath id="clip1"><rect x="717" y="454" width="40" height="40"/></clipPath><clipPath id="clip2"><rect x="0.921875" y="0.931091" width="37.1562" height="37.1216"/></clipPath><clipPath id="clip3"><rect x="0" y="0" width="39" height="39"/></clipPath><clipPath id="clip4"><rect x="10" y="10" width="19" height="19"/></clipPath><clipPath id="clip5"><rect x="10" y="10" width="19" height="19"/></clipPath><clipPath id="clip6"><rect x="10" y="10" width="19" height="19"/></clipPath><clipPath id="clip7"><rect x="729" y="466" width="17" height="17"/></clipPath><clipPath id="clip8"><rect x="729" y="466" width="17" height="17"/></clipPath><clipPath id="clip9"><rect x="729" y="466" width="17" height="17"/></clipPath></defs><g clip-path="url(#clip1)" transform="translate(-717 -454)"><g clip-path="url(#clip2)" filter="url(#fx0)" transform="translate(718 455)"><g clip-path="url(#clip3)"><g clip-path="url(#clip4)"><g clip-path="url(#clip5)"><g clip-path="url(#clip6)"><path d="M19.5012 17.7452C18.5192 17.7452 17.7221 18.5423 17.7221 19.5243 17.7221 20.5062 18.5192 21.3033 19.5012 21.3033 20.4831 21.3033 21.2802 20.5062 21.2802 19.5243 21.2802 18.5423 20.4831 17.7452 19.5012 17.7452Z" fill="#FFFFFF" fill-rule="nonzero" fill-opacity="1"/><path d="M19.5012 13.4293C22.8629 13.4293 25.5962 16.1626 25.5962 19.5243 25.5962 22.886 22.8629 25.6193 19.5012 25.6193 16.1395 25.6193 13.4062 22.886 13.4062 19.5243 13.4062 16.1626 16.1395 13.4293 19.5012 13.4293M19.5012 13.1774C15.9962 13.1774 13.1543 16.0193 13.1543 19.522 13.1543 23.0246 15.9962 25.8688 19.5012 25.8688 23.0061 25.8688 25.8457 23.0269 25.8457 19.522 25.8457 16.017 23.0038 13.1774 19.5012 13.1774Z" fill="#FFFFFF" fill-rule="nonzero" fill-opacity="1"/><path d="M27.9829 21.3241C28.1076 20.735 28.17 20.1296 28.17 19.522L28.17 19.5012 27.1488 19.5058C27.1488 18.9605 27.0887 18.4291 26.9778 17.9162L27.9783 17.7013C27.8512 17.1098 27.6617 16.5299 27.4145 15.9777L26.4788 16.3982C26.2593 15.9084 25.9889 15.4463 25.6747 15.0166L26.5042 14.4112C26.1484 13.9237 25.7394 13.4709 25.2889 13.0688L24.6027 13.8336C24.2076 13.4778 23.7732 13.1636 23.3088 12.8956L23.8217 12.006C23.2973 11.7034 22.7404 11.4561 22.1651 11.2713L21.8509 12.2463C21.3495 12.0846 20.8274 11.9714 20.2867 11.9159L20.3907 10.8993C19.7923 10.8393 19.1777 10.8393 18.5793 10.9016L18.6856 11.9182C18.1472 11.976 17.6228 12.0892 17.1237 12.2533L16.8049 11.2782C16.2296 11.4654 15.6727 11.7149 15.1506 12.0199L15.6658 12.9071C15.2037 13.1774 14.7694 13.4917 14.3743 13.8475L13.6857 13.0873C13.2375 13.4917 12.8309 13.9468 12.4751 14.4343L13.3068 15.0374C12.9949 15.4671 12.7269 15.9315 12.5074 16.4213L11.5694 16.0054C11.3245 16.5576 11.135 17.1399 11.0125 17.7314L12.013 17.9416C11.9044 18.4522 11.8466 18.9813 11.8466 19.522L11.8466 19.5312 10.83 19.5312C10.83 20.1389 10.8947 20.7442 11.0195 21.3334L12.0199 21.1208C12.1331 21.6499 12.3018 22.1559 12.5167 22.6388L11.5809 23.057C11.8281 23.6092 12.1331 24.136 12.4889 24.6235L13.3184 24.0181C13.6326 24.4502 13.993 24.8476 14.3881 25.2057L13.7019 25.9681C14.1525 26.3725 14.6446 26.7306 15.1667 27.0333L15.6797 26.1437C16.1395 26.4094 16.627 26.6289 17.1376 26.7953L16.821 27.7703C17.3963 27.9575 17.9924 28.0822 18.5955 28.1446L18.6994 27.128C18.9605 27.1557 19.2262 27.1696 19.4942 27.1696 19.7623 27.1696 20.0326 27.1557 20.2983 27.128L20.4046 28.1446C21.0076 28.0822 21.6037 27.9551 22.1767 27.768L21.8602 26.793C22.3731 26.6266 22.8606 26.4071 23.3181 26.1414L23.8333 27.031C24.3554 26.7283 24.8476 26.3702 25.2981 25.9635L24.6119 25.2011C25.0093 24.843 25.3651 24.4456 25.6817 24.0135L26.5111 24.6165C26.8669 24.1267 27.1719 23.5999 27.4191 23.0477L26.4811 22.6295C26.6959 22.1466 26.8646 21.6383 26.9755 21.1116L27.9759 21.3241ZM19.5012 26.5481C15.6265 26.5481 12.4751 23.3966 12.4751 19.522 12.4751 15.6473 15.6265 12.4982 19.5012 12.4982 23.3758 12.4982 26.5273 15.6496 26.5273 19.5243 26.5273 23.3989 23.3758 26.5504 19.5012 26.5504Z" fill="#FFFFFF" fill-rule="nonzero" fill-opacity="1"/></g></g></g></g></g><g clip-path="url(#clip7)"><g clip-path="url(#clip8)"><g clip-path="url(#clip9)"><path d="M737.501 472.78C736.538 472.78 735.757 473.561 735.757 474.524 735.757 475.486 736.538 476.268 737.501 476.268 738.464 476.268 739.245 475.486 739.245 474.524 739.245 473.561 738.464 472.78 737.501 472.78Z" fill="#FFFFFF" fill-rule="nonzero" fill-opacity="1"/><path d="M737.501 468.548C740.797 468.548 743.477 471.228 743.477 474.524 743.477 477.82 740.797 480.499 737.501 480.499 734.205 480.499 731.526 477.82 731.526 474.524 731.526 471.228 734.205 468.548 737.501 468.548M737.501 468.301C734.065 468.301 731.279 471.088 731.279 474.522 731.279 477.955 734.065 480.744 737.501 480.744 740.937 480.744 743.721 477.958 743.721 474.522 743.721 471.085 740.935 468.301 737.501 468.301Z" fill="#FFFFFF" fill-rule="nonzero" fill-opacity="1"/><path d="M745.817 476.288C745.939 475.711 746 475.117 746 474.522L746 474.501 744.999 474.506C744.999 473.971 744.94 473.45 744.831 472.947L745.812 472.737C745.687 472.157 745.502 471.588 745.259 471.047L744.342 471.459C744.127 470.979 743.862 470.526 743.554 470.104L744.367 469.511C744.018 469.033 743.617 468.589 743.175 468.195L742.503 468.945C742.115 468.596 741.689 468.288 741.234 468.025L741.737 467.153C741.223 466.856 740.677 466.614 740.113 466.433L739.805 467.389C739.313 467.23 738.801 467.119 738.271 467.065L738.373 466.068C737.787 466.009 737.184 466.009 736.597 466.07L736.702 467.067C736.174 467.124 735.66 467.234 735.17 467.395L734.858 466.439C734.294 466.623 733.748 466.868 733.236 467.167L733.741 468.036C733.288 468.301 732.862 468.609 732.475 468.958L731.8 468.213C731.36 468.609 730.962 469.056 730.613 469.534L731.428 470.125C731.122 470.546 730.86 471.001 730.645 471.482L729.725 471.074C729.485 471.615 729.299 472.186 729.179 472.766L730.16 472.972C730.053 473.473 729.997 473.991 729.997 474.522L729.997 474.531 729 474.531C729 475.126 729.063 475.72 729.186 476.297L730.167 476.089C730.278 476.608 730.443 477.104 730.654 477.577L729.736 477.987C729.979 478.529 730.278 479.045 730.626 479.523L731.44 478.93C731.748 479.353 732.101 479.743 732.488 480.094L731.816 480.841C732.257 481.238 732.74 481.589 733.252 481.886L733.755 481.013C734.205 481.274 734.683 481.489 735.184 481.652L734.874 482.608C735.438 482.792 736.022 482.914 736.613 482.975L736.715 481.978C736.971 482.006 737.232 482.019 737.494 482.019 737.757 482.019 738.022 482.006 738.283 481.978L738.387 482.975C738.978 482.914 739.562 482.789 740.124 482.606L739.814 481.65C740.317 481.487 740.795 481.272 741.243 481.011L741.748 481.883C742.26 481.587 742.743 481.235 743.184 480.837L742.512 480.089C742.901 479.738 743.25 479.349 743.56 478.925L744.374 479.516C744.722 479.036 745.021 478.52 745.264 477.978L744.344 477.568C744.555 477.095 744.72 476.596 744.829 476.08L745.81 476.288ZM737.501 481.41C733.702 481.41 730.613 478.32 730.613 474.522 730.613 470.723 733.702 467.635 737.501 467.635 741.3 467.635 744.389 470.725 744.389 474.524 744.389 478.322 741.3 481.412 737.501 481.412Z" fill="#FFFFFF" fill-rule="nonzero" fill-opacity="1"/></g></g></g></g></svg>