<svg width="55" height="56" xmlns="http://www.w3.org/2000/svg" xmlns:xlink="http://www.w3.org/1999/xlink" xml:space="preserve" overflow="hidden"><defs><filter id="fx0" x="-10%" y="-10%" width="120%" height="120%" filterUnits="userSpaceOnUse" primitiveUnits="userSpaceOnUse"><feComponentTransfer color-interpolation-filters="sRGB"><feFuncR type="discrete" tableValues="1.000000 1.000000"/><feFuncG type="discrete" tableValues="1.000000 1.000000"/><feFuncB type="discrete" tableValues="1.000000 1.000000"/><feFuncA type="linear" slope="0.400000" intercept="0.000000"/></feComponentTransfer><feGaussianBlur stdDeviation="2.222222 2.222222"/></filter><clipPath id="clip1"><rect x="709" y="560" width="55" height="56"/></clipPath><clipPath id="clip2"><rect x="0.946228" y="0.939148" width="52.1005" height="52.1075"/></clipPath><clipPath id="clip3"><rect x="0" y="0" width="54" height="54"/></clipPath><clipPath id="clip4"><rect x="7" y="7" width="40" height="40"/></clipPath><clipPath id="clip5"><rect x="7" y="7" width="40" height="40"/></clipPath><clipPath id="clip6"><rect x="7" y="7" width="40" height="40"/></clipPath><clipPath id="clip7"><rect x="718" y="569" width="38" height="38"/></clipPath><clipPath id="clip8"><rect x="718" y="569" width="38" height="38"/></clipPath><clipPath id="clip9"><rect x="718" y="569" width="38" height="38"/></clipPath></defs><g clip-path="url(#clip1)" transform="translate(-709 -560)"><g clip-path="url(#clip2)" filter="url(#fx0)" transform="translate(710 561)"><g clip-path="url(#clip3)"><g clip-path="url(#clip4)"><g clip-path="url(#clip5)"><g clip-path="url(#clip6)"><path d="M27 19.8364C23.0487 19.8364 19.8364 23.0487 19.8364 27 19.8364 30.9513 23.0487 34.1636 27 34.1636 30.9513 34.1636 34.1636 30.9513 34.1636 27 34.1636 23.0487 30.9513 19.8364 27 19.8364ZM27 32.195C24.136 32.195 21.805 29.864 21.805 27 21.805 24.136 24.136 21.805 27 21.805 29.864 21.805 32.195 24.136 32.195 27 32.195 29.864 29.864 32.195 27 32.195Z" fill="#FFFFFF" fill-rule="nonzero" fill-opacity="1"/><path d="M27 16.88C21.4141 16.88 16.8729 21.4212 16.8729 27.0071 16.8729 32.593 21.4141 37.1342 27 37.1342 32.5859 37.1342 37.1271 32.593 37.1271 27.0071 37.1271 21.4212 32.5859 16.88 27 16.88ZM27 36.6651C21.67 36.6651 17.342 32.33 17.342 27.0071 17.342 21.6842 21.6771 17.3491 27 17.3491 32.3229 17.3491 36.658 21.6842 36.658 27.0071 36.658 32.33 32.3229 36.6651 27 36.6651Z" fill="#FFFFFF" fill-rule="nonzero" fill-opacity="1"/><path d="M46.0531 30.5747C46.2734 29.4021 46.38 28.201 46.38 26.9929L46.38 26.9502 44.6744 26.9502C44.6744 24.9035 44.3119 22.935 43.6581 21.1014L45.2713 20.5329C44.8734 19.4029 44.3617 18.3085 43.7647 17.2709L42.2794 18.1308C41.2703 16.4039 39.984 14.8617 38.4702 13.5683L39.586 12.2607C38.6763 11.4789 37.6885 10.7825 36.6509 10.1855L35.7981 11.6708C34.0996 10.6901 32.2163 9.98653 30.2193 9.60987L30.532 7.92558C29.3736 7.71238 28.1797 7.60578 26.9929 7.60578L26.9645 7.60578 26.9645 9.32561C24.9106 9.32561 22.9421 9.68805 21.1085 10.3348L20.54 8.72154C19.41 9.11951 18.3156 9.62409 17.278 10.2282L18.1379 11.7135C16.411 12.7155 14.8688 14.0089 13.5754 15.5156L12.2749 14.3998C11.4932 15.3095 10.7967 16.2973 10.1997 17.3278L11.685 18.1877C10.7043 19.8862 9.99364 21.7695 9.62409 23.7593L7.9398 23.4466C7.7266 24.6121 7.61289 25.8061 7.61289 27L7.61289 27.0213 9.32561 27.0213C9.32561 29.0752 9.68805 31.0437 10.3348 32.8772L8.72154 33.4458C9.11951 34.5757 9.62409 35.6702 10.2282 36.7078L11.7135 35.8479C12.7155 37.5748 14.0089 39.1169 15.5156 40.4175L14.3998 41.718C15.3095 42.4997 16.2973 43.1962 17.3278 43.7932L18.1877 42.3078C19.8862 43.2886 21.7623 43.9992 23.7593 44.3688L23.4466 46.0531C24.6121 46.2734 25.8132 46.38 27.0071 46.38L27.0142 46.38 27.0142 44.6744C29.0609 44.6744 31.0366 44.319 32.8701 43.6723L33.4387 45.2856C34.5686 44.8876 35.6631 44.383 36.7007 43.786L35.8407 42.3007C37.5677 41.2987 39.1169 40.0124 40.4104 38.5058L41.7109 39.6215C42.4926 38.7119 43.1891 37.724 43.786 36.6936L42.3007 35.8336C43.2886 34.1351 43.9921 32.259 44.3688 30.262L46.0531 30.5747ZM27 42.1231C18.6567 42.1231 11.8769 35.3362 11.8769 27 11.8769 18.6638 18.6638 11.8769 27 11.8769 35.3362 11.8769 42.1231 18.6638 42.1231 27 42.1231 35.3362 35.3362 42.1231 27 42.1231Z" fill="#FFFFFF" fill-rule="nonzero" fill-opacity="1"/></g></g></g></g></g><g clip-path="url(#clip7)"><g clip-path="url(#clip8)"><g clip-path="url(#clip9)"><path d="M737 580.977C733.126 580.977 729.977 584.126 729.977 588 729.977 591.874 733.126 595.023 737 595.023 740.874 595.023 744.023 591.874 744.023 588 744.023 584.126 740.874 580.977 737 580.977ZM737 593.093C734.192 593.093 731.907 590.808 731.907 588 731.907 585.192 734.192 582.907 737 582.907 739.808 582.907 742.093 585.192 742.093 588 742.093 590.808 739.808 593.093 737 593.093Z" fill="#FFFFFF" fill-rule="nonzero" fill-opacity="1"/><path d="M737 578.078C731.524 578.078 727.072 582.531 727.072 588.007 727.072 593.483 731.524 597.935 737 597.935 742.476 597.935 746.928 593.483 746.928 588.007 746.928 582.531 742.476 578.078 737 578.078ZM737 597.476C731.774 597.476 727.531 593.226 727.531 588.007 727.531 582.788 731.781 578.538 737 578.538 742.219 578.538 746.469 582.788 746.469 588.007 746.469 593.226 742.219 597.476 737 597.476Z" fill="#FFFFFF" fill-rule="nonzero" fill-opacity="1"/><path d="M755.68 591.505C755.896 590.355 756 589.177 756 587.993L756 587.951 754.328 587.951C754.328 585.945 753.972 584.015 753.331 582.217L754.913 581.66C754.523 580.552 754.021 579.479 753.436 578.462L751.98 579.305C750.99 577.612 749.729 576.1 748.245 574.832L749.339 573.55C748.447 572.783 747.479 572.1 746.462 571.515L745.626 572.971C743.96 572.01 742.114 571.32 740.156 570.951L740.463 569.3C739.327 569.091 738.157 568.986 736.993 568.986L736.965 568.986 736.965 570.672C734.952 570.672 733.022 571.028 731.224 571.662L730.667 570.08C729.559 570.47 728.486 570.965 727.469 571.557L728.312 573.013C726.619 573.996 725.107 575.264 723.839 576.741L722.564 575.647C721.797 576.539 721.114 577.507 720.529 578.517L721.985 579.36C721.024 581.026 720.327 582.872 719.965 584.823L718.314 584.516C718.104 585.659 717.993 586.829 717.993 588L717.993 588.021 719.672 588.021C719.672 590.034 720.028 591.964 720.662 593.762L719.08 594.319C719.47 595.427 719.965 596.5 720.557 597.517L722.013 596.674C722.996 598.367 724.264 599.879 725.741 601.154L724.647 602.429C725.539 603.196 726.507 603.879 727.517 604.464L728.36 603.008C730.026 603.969 731.865 604.666 733.823 605.028L733.516 606.68C734.659 606.896 735.836 607 737.007 607L737.014 607 737.014 605.328C739.021 605.328 740.957 604.979 742.755 604.345L743.312 605.927C744.42 605.537 745.493 605.042 746.51 604.457L745.667 603.001C747.36 602.018 748.879 600.757 750.147 599.28L751.422 600.374C752.189 599.482 752.872 598.514 753.457 597.503L752.001 596.66C752.969 594.995 753.659 593.156 754.028 591.198L755.68 591.505ZM737 602.827C728.82 602.827 722.173 596.173 722.173 588 722.173 579.827 728.827 573.173 737 573.173 745.173 573.173 751.827 579.827 751.827 588 751.827 596.173 745.173 602.827 737 602.827Z" fill="#FFFFFF" fill-rule="nonzero" fill-opacity="1"/></g></g></g></g></svg>