<svg width="188" height="188" xmlns="http://www.w3.org/2000/svg" xmlns:xlink="http://www.w3.org/1999/xlink" xml:space="preserve" overflow="hidden"><defs><filter id="fx0" x="-10%" y="-10%" width="120%" height="120%" filterUnits="userSpaceOnUse" primitiveUnits="userSpaceOnUse"><feComponentTransfer color-interpolation-filters="sRGB"><feFuncR type="discrete" tableValues="1.000000 1.000000"/><feFuncG type="discrete" tableValues="1.000000 1.000000"/><feFuncB type="discrete" tableValues="1.000000 1.000000"/><feFuncA type="linear" slope="1.000000" intercept="0.000000"/></feComponentTransfer><feGaussianBlur stdDeviation="3.302712 3.302712"/></filter><clipPath id="clip1"><rect x="128" y="289" width="188" height="188"/></clipPath><clipPath id="clip2"><rect x="1.46187" y="1.55048" width="186.076" height="185.744"/></clipPath><clipPath id="clip3"><rect x="0" y="0" width="189" height="189"/></clipPath><clipPath id="clip4"><rect x="11" y="11" width="167" height="167"/></clipPath><clipPath id="clip5"><rect x="11" y="11" width="167" height="167"/></clipPath><clipPath id="clip6"><rect x="11" y="11" width="167" height="167"/></clipPath><clipPath id="clip7"><rect x="140" y="302" width="163" height="163"/></clipPath><clipPath id="clip8"><rect x="140" y="302" width="163" height="163"/></clipPath><clipPath id="clip9"><rect x="140" y="302" width="163" height="163"/></clipPath></defs><g clip-path="url(#clip1)" transform="translate(-128 -289)"><g clip-path="url(#clip2)" filter="url(#fx0)" transform="translate(127 289)"><g clip-path="url(#clip3)"><g clip-path="url(#clip4)"><g clip-path="url(#clip5)"><g clip-path="url(#clip6)"><path d="M94.5111 77.6746C85.0959 77.6746 77.4531 85.3175 77.4531 94.7326 77.4531 104.148 85.0959 111.791 94.5111 111.791 103.926 111.791 111.569 104.148 111.569 94.7326 111.569 85.3175 103.926 77.6746 94.5111 77.6746Z" fill="#FFFFFF" fill-rule="nonzero" fill-opacity="1"/><path d="M94.5111 36.2924C126.744 36.2924 152.951 62.4996 152.951 94.7326 152.951 126.966 126.744 153.173 94.5111 153.173 62.2781 153.173 36.0708 126.966 36.0708 94.7326 36.0708 62.4996 62.2781 36.2924 94.5111 36.2924M94.5111 33.8777C60.9046 33.8777 33.6561 61.1262 33.6561 94.7104 33.6561 128.295 60.9046 155.565 94.5111 155.565 128.118 155.565 155.344 128.317 155.344 94.7104 155.344 61.104 128.095 33.8777 94.5111 33.8777Z" fill="#FFFFFF" fill-rule="nonzero" fill-opacity="1"/><path d="M175.836 111.99C177.032 106.341 177.63 100.537 177.63 94.7104L177.63 94.5111 167.838 94.5554C167.838 89.3272 167.262 84.232 166.199 79.3139L175.791 77.2537C174.573 71.5825 172.756 66.022 170.386 60.7274L161.414 64.7593C159.309 60.0628 156.717 55.6321 153.705 51.5116L161.658 45.7075C158.246 41.0332 154.325 36.6911 150.005 32.8365L143.425 40.1692C139.637 36.7576 135.472 33.7448 131.02 31.175L135.938 22.646C130.909 19.7439 125.57 17.3735 120.054 15.6013L117.041 24.9499C112.234 23.3992 107.227 22.3137 102.043 21.782L103.04 12.0346C97.3024 11.4586 91.4096 11.4586 85.6719 12.0567L86.691 21.8042C81.5293 22.358 76.5005 23.4435 71.7154 25.0164L68.6583 15.6677C63.1421 17.4621 57.8032 19.8547 52.7965 22.7789L57.7367 31.2857C53.3061 33.8777 49.1413 36.8905 45.3531 40.3021L38.7514 33.0137C34.4537 36.8905 30.5547 41.2547 27.1431 45.929L35.1183 51.711C32.1276 55.8315 29.5578 60.2843 27.4532 64.9808L18.459 60.9932C16.1108 66.2879 14.2942 71.8705 13.1201 77.5417L22.7125 79.5576C21.6712 84.4535 21.1174 89.5266 21.1174 94.7104L21.1174 94.7991 11.37 94.7991C11.37 100.625 11.9903 106.43 13.1866 112.079L22.7789 110.04C23.8644 115.114 25.4816 119.965 27.5419 124.595L18.5698 128.605C20.9402 133.9 23.8644 138.95 27.276 143.625L35.229 137.821C38.2419 141.963 41.6978 145.774 45.486 149.207L38.9065 156.518C43.2263 160.395 47.945 163.829 52.9516 166.731L57.8696 158.202C62.2781 160.749 66.9525 162.854 71.8483 164.449L68.8133 173.797C74.3295 175.592 80.045 176.788 85.827 177.386L86.8239 167.639C89.3272 167.905 91.8748 168.038 94.4446 168.038 97.0144 168.038 99.6063 167.905 102.154 167.639L103.173 177.386C108.955 176.788 114.671 175.57 120.165 173.775L117.13 164.427C122.048 162.832 126.722 160.727 131.108 158.179L136.048 166.708C141.055 163.806 145.774 160.373 150.094 156.474L143.514 149.163C147.324 145.729 150.736 141.919 153.771 137.776L161.724 143.558C165.136 138.862 168.06 133.811 170.43 128.516L161.436 124.507C163.496 119.877 165.113 115.003 166.177 109.952L175.769 111.99ZM94.5111 162.078C57.3601 162.078 27.1431 131.861 27.1431 94.7104 27.1431 57.5595 57.3601 27.3646 94.5111 27.3646 131.662 27.3646 161.879 57.5816 161.879 94.7326 161.879 131.884 131.662 162.101 94.5111 162.101Z" fill="#FFFFFF" fill-rule="nonzero" fill-opacity="1"/></g></g></g></g></g><g clip-path="url(#clip7)"><g clip-path="url(#clip8)"><g clip-path="url(#clip9)"><path d="M221.511 367.005C212.28 367.005 204.787 374.498 204.787 383.728 204.787 392.959 212.28 400.452 221.511 400.452 230.741 400.452 238.234 392.959 238.234 383.728 238.234 374.498 230.741 367.005 221.511 367.005Z" fill="#FFFFFF" fill-rule="nonzero" fill-opacity="1"/><path d="M221.511 326.434C253.112 326.434 278.805 352.127 278.805 383.728 278.805 415.329 253.112 441.022 221.511 441.022 189.91 441.022 164.217 415.329 164.217 383.728 164.217 352.127 189.91 326.434 221.511 326.434M221.511 324.066C188.563 324.066 161.849 350.781 161.849 383.706 161.849 416.632 188.563 443.368 221.511 443.368 254.458 443.368 281.151 416.654 281.151 383.706 281.151 350.759 254.437 324.066 221.511 324.066Z" fill="#FFFFFF" fill-rule="nonzero" fill-opacity="1"/><path d="M301.241 400.647C302.414 395.109 303 389.418 303 383.706L303 383.511 293.4 383.554C293.4 378.429 292.836 373.433 291.793 368.612L301.197 366.592C300.003 361.032 298.222 355.58 295.898 350.39L287.102 354.342C285.039 349.738 282.497 345.394 279.544 341.355L287.341 335.664C283.996 331.082 280.152 326.825 275.917 323.046L269.466 330.235C265.752 326.89 261.669 323.936 257.304 321.417L262.125 313.055C257.195 310.21 251.961 307.886 246.553 306.148L243.599 315.314C238.886 313.793 233.977 312.729 228.895 312.208L229.873 302.652C224.247 302.087 218.47 302.087 212.845 302.673L213.844 312.23C208.784 312.773 203.853 313.837 199.162 315.379L196.165 306.213C190.757 307.973 185.523 310.318 180.614 313.185L185.458 321.525C181.114 324.066 177.031 327.02 173.317 330.365L166.844 323.219C162.631 327.02 158.809 331.299 155.464 335.881L163.283 341.55C160.351 345.59 157.831 349.955 155.768 354.56L146.95 350.65C144.648 355.841 142.867 361.314 141.716 366.874L151.12 368.851C150.099 373.651 149.556 378.624 149.556 383.706L149.556 383.793 140 383.793C140 389.505 140.608 395.196 141.781 400.734L151.185 398.736C152.249 403.709 153.835 408.466 155.855 413.005L147.059 416.936C149.383 422.127 152.249 427.079 155.594 431.662L163.391 425.971C166.345 430.033 169.733 433.768 173.447 437.135L166.997 444.302C171.232 448.103 175.858 451.469 180.766 454.314L185.588 445.953C189.91 448.45 194.493 450.514 199.292 452.077L196.317 461.243C201.725 463.002 207.328 464.175 212.997 464.761L213.974 455.205C216.429 455.465 218.926 455.596 221.446 455.596 223.965 455.596 226.506 455.465 229.004 455.205L230.003 464.761C235.672 464.175 241.275 462.98 246.661 461.221L243.686 452.056C248.507 450.492 253.09 448.429 257.39 445.931L262.234 454.293C267.142 451.447 271.768 448.081 276.003 444.259L269.553 437.091C273.289 433.725 276.633 429.989 279.609 425.928L287.406 431.596C290.751 426.992 293.617 422.04 295.941 416.849L287.124 412.918C289.143 408.379 290.729 403.601 291.771 398.649L301.176 400.647ZM221.511 449.753C185.088 449.753 155.464 420.129 155.464 383.706 155.464 347.284 185.088 317.681 221.511 317.681 257.933 317.681 287.558 347.306 287.558 383.728 287.558 420.151 257.933 449.775 221.511 449.775Z" fill="#FFFFFF" fill-rule="nonzero" fill-opacity="1"/></g></g></g></g></svg>