<svg width="263" height="264" xmlns="http://www.w3.org/2000/svg" xmlns:xlink="http://www.w3.org/1999/xlink" xml:space="preserve" overflow="hidden"><defs><filter id="fx0" x="-10%" y="-10%" width="120%" height="120%" filterUnits="userSpaceOnUse" primitiveUnits="userSpaceOnUse"><feComponentTransfer color-interpolation-filters="sRGB"><feFuncR type="discrete" tableValues="1.000000 1.000000"/><feFuncG type="discrete" tableValues="1.000000 1.000000"/><feFuncB type="discrete" tableValues="1.000000 1.000000"/><feFuncA type="linear" slope="1.000000" intercept="0.000000"/></feComponentTransfer><feGaussianBlur stdDeviation="7.770323 7.770323"/></filter><clipPath id="clip1"><rect x="90" y="28" width="263" height="264"/></clipPath><clipPath id="clip2"><rect x="0.853695" y="0.83836" width="130.277" height="130.293"/></clipPath><clipPath id="clip3"><rect x="0" y="0" width="132" height="132"/></clipPath><clipPath id="clip4"><rect x="24" y="24" width="84" height="84"/></clipPath><clipPath id="clip5"><rect x="24" y="24" width="84" height="84"/></clipPath><clipPath id="clip6"><rect x="24" y="24" width="84" height="84"/></clipPath><clipPath id="clip7"><rect x="140" y="78" width="164" height="164"/></clipPath><clipPath id="clip8"><rect x="140" y="78" width="164" height="164"/></clipPath><clipPath id="clip9"><rect x="140" y="78" width="164" height="164"/></clipPath></defs><g clip-path="url(#clip1)" transform="translate(-90 -28)"><g clip-path="url(#clip2)" filter="url(#fx0)" transform="matrix(2 0 0 2 90 28)"><g clip-path="url(#clip3)"><g clip-path="url(#clip4)"><g clip-path="url(#clip5)"><g clip-path="url(#clip6)"><path d="M66 50.5418C57.4734 50.5418 50.5418 57.4734 50.5418 66 50.5418 74.5266 57.4734 81.4582 66 81.4582 74.5266 81.4582 81.4582 74.5266 81.4582 66 81.4582 57.4734 74.5266 50.5418 66 50.5418ZM66 77.2103C59.8198 77.2103 54.7897 72.1802 54.7897 66 54.7897 59.8198 59.8198 54.7897 66 54.7897 72.1802 54.7897 77.2103 59.8198 77.2103 66 77.2103 72.1802 72.1802 77.2103 66 77.2103Z" fill="#FFFFFF" fill-rule="nonzero" fill-opacity="1"/><path d="M66 44.1622C53.9463 44.1622 44.1469 53.9616 44.1469 66.0153 44.1469 78.0691 53.9463 87.8685 66 87.8685 78.0537 87.8685 87.8531 78.0691 87.8531 66.0153 87.8531 53.9616 78.0537 44.1622 66 44.1622ZM66 86.8563C54.4984 86.8563 45.159 77.5016 45.159 66.0153 45.159 54.529 54.5137 45.1743 66 45.1743 77.4863 45.1743 86.841 54.529 86.841 66.0153 86.841 77.5016 77.4863 86.8563 66 86.8563Z" fill="#FFFFFF" fill-rule="nonzero" fill-opacity="1"/><path d="M107.115 73.7138C107.59 71.1834 107.82 68.5917 107.82 65.9847L107.82 65.8927 104.139 65.8927C104.139 61.476 103.357 57.2281 101.946 53.2715L105.428 52.0447C104.569 49.6063 103.465 47.2446 102.177 45.0057L98.9714 46.8613C96.7937 43.1347 94.018 39.8069 90.7515 37.0158L93.1592 34.1941C91.1963 32.5072 89.0646 31.0043 86.8257 29.7161L84.9854 32.9213C81.3202 30.805 77.2563 29.2867 72.947 28.4739L73.6218 24.8394C71.1221 24.3794 68.5457 24.1493 65.9847 24.1493L65.9233 24.1493 65.9233 27.8605C61.4914 27.8605 57.2434 28.6426 53.2868 30.0382L52.06 26.557C49.6217 27.4158 47.26 28.5046 45.021 29.8081L46.8766 33.0133C43.1501 35.1756 39.8222 37.9666 37.0312 41.2178L34.2248 38.8101C32.5379 40.773 31.035 42.9047 29.7468 45.1283L32.9519 46.9839C30.8356 50.6491 29.3021 54.713 28.5046 59.007L24.8701 58.3322C24.41 60.8473 24.1647 63.4236 24.1647 66L24.1647 66.046 27.8605 66.046C27.8605 70.478 28.6426 74.7259 30.0382 78.6825L26.557 79.9093C27.4158 82.3477 28.5046 84.7094 29.8081 86.9483L33.0133 85.0927C35.1756 88.8193 37.9666 92.1471 41.2178 94.9535L38.8101 97.7599C40.773 99.4468 42.9047 100.95 45.1283 102.238L46.9839 99.0327C50.6491 101.149 54.6977 102.683 59.007 103.48L58.3322 107.115C60.8473 107.59 63.439 107.82 66.0153 107.82L66.0307 107.82 66.0307 104.139C70.4473 104.139 74.7106 103.373 78.6672 101.977L79.894 105.458C82.3323 104.6 84.694 103.511 86.933 102.223L85.0774 99.0174C88.8039 96.8551 92.1471 94.0794 94.9381 90.8282L97.7446 93.2359C99.4315 91.273 100.934 89.1413 102.223 86.9177L99.0174 85.0621C101.149 81.3969 102.667 77.3483 103.48 73.039L107.115 73.7138ZM66 98.634C47.9961 98.634 33.366 83.9886 33.366 66 33.366 48.0114 48.0114 33.366 66 33.366 83.9886 33.366 98.634 48.0114 98.634 66 98.634 83.9886 83.9886 98.634 66 98.634Z" fill="#FFFFFF" fill-rule="nonzero" fill-opacity="1"/></g></g></g></g></g><g clip-path="url(#clip7)"><g clip-path="url(#clip8)"><g clip-path="url(#clip9)"><path d="M222 129.69C205.281 129.69 191.69 143.281 191.69 160 191.69 176.719 205.281 190.31 222 190.31 238.719 190.31 252.31 176.719 252.31 160 252.31 143.281 238.719 129.69 222 129.69ZM222 181.981C209.882 181.981 200.019 172.118 200.019 160 200.019 147.882 209.882 138.019 222 138.019 234.118 138.019 243.981 147.882 243.981 160 243.981 172.118 234.118 181.981 222 181.981Z" fill="#FFFFFF" fill-rule="nonzero" fill-opacity="1"/><path d="M222 117.181C198.365 117.181 179.151 136.395 179.151 160.03 179.151 183.665 198.365 202.879 222 202.879 245.635 202.879 264.849 183.665 264.849 160.03 264.849 136.395 245.635 117.181 222 117.181ZM222 200.895C199.448 200.895 181.135 182.552 181.135 160.03 181.135 137.508 199.478 119.165 222 119.165 244.522 119.165 262.865 137.508 262.865 160.03 262.865 182.552 244.522 200.895 222 200.895Z" fill="#FFFFFF" fill-rule="nonzero" fill-opacity="1"/><path d="M302.617 175.125C303.549 170.164 304 165.082 304 159.97L304 159.79 296.783 159.79C296.783 151.129 295.25 142.8 292.483 135.042L299.309 132.637C297.625 127.856 295.46 123.225 292.934 118.835L286.65 122.473C282.38 115.166 276.937 108.641 270.532 103.168L275.253 97.6355C271.404 94.3278 267.225 91.381 262.835 88.8551L259.226 95.1397C252.04 90.9901 244.071 88.0132 235.622 86.4195L236.945 79.293C232.043 78.3909 226.992 77.9399 221.97 77.9399L221.85 77.9399 221.85 85.2167C213.16 85.2167 204.83 86.7503 197.072 89.4866L194.667 82.6608C189.886 84.3447 185.255 86.4796 180.865 89.0356L184.503 95.3201C177.196 99.56 170.671 105.033 165.198 111.407L159.696 106.686C156.388 110.535 153.441 114.715 150.915 119.075L157.2 122.714C153.05 129.9 150.043 137.869 148.48 146.288L141.353 144.965C140.451 149.897 139.97 154.948 139.97 160L139.97 160.09 147.217 160.09C147.217 168.78 148.75 177.11 151.487 184.868L144.661 187.273C146.345 192.054 148.48 196.685 151.036 201.075L157.32 197.437C161.56 204.744 167.033 211.269 173.407 216.772L168.686 222.274C172.535 225.582 176.715 228.529 181.075 231.055L184.714 224.77C191.9 228.92 199.839 231.927 208.288 233.49L206.965 240.617C211.897 241.549 216.978 242 222.03 242L222.06 242 222.06 234.783C230.72 234.783 239.08 233.28 246.838 230.543L249.243 237.369C254.024 235.685 258.655 233.55 263.045 231.025L259.407 224.74C266.714 220.5 273.269 215.058 278.741 208.683L284.244 213.404C287.552 209.555 290.499 205.375 293.025 201.015L286.74 197.377C290.92 190.19 293.897 182.252 295.49 173.802L302.617 175.125ZM222 223.988C186.698 223.988 158.012 195.272 158.012 160 158.012 124.728 186.728 96.0117 222 96.0117 257.272 96.0117 285.988 124.728 285.988 160 285.988 195.272 257.272 223.988 222 223.988Z" fill="#FFFFFF" fill-rule="nonzero" fill-opacity="1"/></g></g></g></g></svg>