<?xml version="1.0" encoding="UTF-8"?><svg id="Layer_2" xmlns="http://www.w3.org/2000/svg" viewBox="0 0 32.97 47.56"><defs><style>.cls-1{fill:#e9e8e6;}.cls-2{fill:#ffe2a9;}.cls-3{fill:#fff;}.cls-4{fill:#efc348;}.cls-5{fill:#ffd651;}.cls-6{fill:#b2b0af;}.cls-7{fill:#ddb040;}.cls-8{fill:#c4c2c0;}.cls-9{fill:#d6d4d2;}.cls-10{fill:#434240;}.cls-11{fill:#2d2c2b;}.cls-12{fill:#383736;}.cls-13{isolation:isolate;}</style></defs><g id="Layer_1-2"><path class="cls-1" d="M21.3,36.54c.78,.45,1.41,1.54,1.41,2.44,0,.89-.63,1.25-1.42,.8-.78-.45-1.42-1.54-1.41-2.43,0-.91,.64-1.26,1.42-.81Z"/><path class="cls-8" d="M29.28,32.11l-7.71,4.62c.41,.33,.75,.81,.95,1.33l7.71-4.61c-.2-.52-.54-1-.95-1.33Z"/><path class="cls-6" d="M22.71,38.99c0,.44-.16,.75-.41,.89l7.71-4.62c.25-.15,.4-.46,.4-.9,0-.3-.06-.62-.18-.93l-7.71,4.61c.12,.31,.19,.63,.19,.94Z"/><path class="cls-9" d="M29.01,31.93c-.39-.23-.76-.25-1.01-.1l-7.71,4.63c.26-.16,.61-.13,1.01,.09,.09,.05,.18,.12,.27,.19l7.71-4.62c-.09-.07-.18-.13-.27-.18Z"/><path class="cls-11" d="M19.9,34.45c1.23,.92,2.03,2.39,2.03,4.04,0,2.8-2.26,5.06-5.05,5.06-.39,0-.77-.05-1.13-.13,.84,.63,1.89,1,3.03,1,2.79,0,5.05-2.26,5.05-5.06,0-2.4-1.68-4.41-3.92-4.92Z"/><path class="cls-12" d="M19.9,34.45c-.36-.08-.74-.13-1.13-.13-.29,0-.57,.02-.84,.07,.51,.79,.8,1.72,.8,2.72,0,2.51-1.82,4.59-4.22,4.99,.33,.51,.74,.96,1.23,1.32,.36,.08,.74,.13,1.13,.13,2.79,0,5.05-2.26,5.05-5.06,0-1.65-.8-3.12-2.03-4.04Z"/><path class="cls-10" d="M18.73,37.11c0-1-.29-1.94-.8-2.72-2.4,.4-4.22,2.48-4.22,4.98,0,1.01,.29,1.94,.8,2.73,2.39-.4,4.22-2.48,4.22-4.99Z"/><g class="cls-13"><path class="cls-9" d="M20.17,25.11l-.03,10.88c0,.28-.19,.57-.56,.79-.75,.44-1.98,.44-2.74,0-.38-.22-.57-.51-.57-.8l.03-10.88c0,.29,.19,.58,.57,.8,.76,.44,1.98,.44,2.74,0,.37-.22,.56-.5,.56-.79Z"/><path class="cls-8" d="M19.61,25.9c-.61,.35-1.51,.42-2.24,.21v10.89c.72,.2,1.61,.13,2.21-.22,.37-.22,.56-.5,.56-.79l.03-10.88c0,.28-.19,.57-.56,.79Z"/><path class="cls-6" d="M19.61,25.9c-.09,.05-.18,.1-.28,.13v10.86c.09-.04,.17-.07,.25-.12,.37-.22,.56-.5,.56-.79l.03-10.88c0,.28-.19,.57-.56,.79Z"/><path class="cls-1" d="M19.6,24.31c.76,.44,.76,1.15,0,1.58s-1.98,.44-2.74,0c-.76-.44-.76-1.15,0-1.59s1.98-.44,2.74,0Z"/></g><g><path class="cls-1" d="M8.56,44.12c.78,.45,1.41,1.54,1.41,2.44,0,.89-.63,1.25-1.42,.8-.78-.45-1.42-1.54-1.41-2.43,0-.91,.64-1.26,1.42-.81Z"/><path class="cls-8" d="M16.12,39.93l-7.3,4.37c.41,.33,.75,.81,.95,1.33l7.29-4.37c-.2-.52-.54-1-.95-1.33Z"/><path class="cls-6" d="M9.97,46.56c0,.44-.16,.75-.41,.89l7.3-4.37c.25-.15,.4-.46,.4-.9,0-.3-.06-.62-.18-.93l-7.29,4.37c.12,.31,.19,.63,.19,.94Z"/><path class="cls-9" d="M15.85,39.75c-.39-.23-.76-.25-1.01-.1l-7.3,4.38c.26-.16,.61-.13,1.01,.09,.09,.05,.18,.12,.27,.19l7.3-4.37c-.09-.07-.18-.13-.27-.18Z"/></g><path class="cls-7" d="M13.36,9.17c.4-.23,.78-.3,1.1-.19l4.02,.58c.31,.11,.7,.04,1.1-.19L31.14,2.69c.98-.57,1.78-.11,1.78,1.01l.05,17.94c0,1.12-.79,2.49-1.77,3.06L6.1,39.19c-.98,.57-1.78,.11-1.78-1.01l-.06-21.72c0-1.12,.79-2.49,1.77-3.06l7.34-4.24Z"/><path class="cls-2" d="M32.4,2.56c-.32-.19-.77-.16-1.27,.13l-11.56,6.67c-.4,.24-.79,.3-1.1,.19l-4.02-.58c-.32-.11-.71-.04-1.1,.19l-7.33,4.23c-.98,.57-1.77,1.94-1.77,3.05l.06,21.72c0,.56,.19,.95,.51,1.14l-4.26-2.45c-.32-.19-.52-.58-.52-1.13L0,14.02c0-1.12,.79-2.49,1.76-3.06l7.34-4.23c.4-.24,.78-.3,1.1-.19l4.02,.58c.32,.11,.71,.04,1.1-.19L26.88,.25c.5-.28,.94-.32,1.26-.13l4.27,2.45Z"/><path class="cls-5" d="M28.68,4.11l-9.1,5.25c-.4,.24-.79,.3-1.1,.2l-4.02-.58c-.32-.11-.71-.04-1.1,.19l-7.33,4.23c-.98,.57-1.77,1.94-1.77,3.05l.06,21.72c0,.56,.2,.95,.51,1.14l-4.26-2.45c-.32-.19-.52-.58-.52-1.13L0,14.02c0-1.12,.79-2.49,1.76-3.06l7.34-4.23c.4-.24,.78-.3,1.1-.19l4.02,.58c.32,.11,.71,.04,1.1-.19L24.42,1.67l4.26,2.45Z"/><path class="cls-2" d="M19.58,9.36c-.4,.24-.79,.3-1.1,.2l-4.02-.58c-.32-.11-.71-.04-1.1,.19l-7.33,4.23c-.98,.57-1.77,1.94-1.77,3.05l.06,21.72c0,.56,.2,.95,.51,1.14l-4.26-2.45c-.32-.19-.52-.58-.52-1.13L0,14.02c0-1.12,.79-2.49,1.76-3.06l7.34-4.23c.4-.24,.78-.3,1.1-.19l4.02,.58c.32,.11,.71,.04,1.1-.19l4.26,2.45Z"/><path class="cls-5" d="M14.47,8.98c-.32-.11-.71-.04-1.1,.19l-7.33,4.23c-.98,.57-1.77,1.94-1.77,3.05l.06,21.72c0,.56,.2,.95,.51,1.14l-4.26-2.45c-.32-.19-.52-.58-.52-1.13L0,14.02c0-1.12,.79-2.49,1.76-3.06l7.34-4.23c.4-.24,.78-.3,1.1-.19l4.26,2.45Z"/><path class="cls-2" d="M4.26,16.46l.06,21.72c0,.56,.2,.95,.51,1.14l-4.26-2.45c-.32-.19-.52-.58-.52-1.13L0,14.02c0-1.12,.79-2.49,1.76-3.06l4.26,2.45c-.98,.57-1.77,1.94-1.77,3.05Z"/><path class="cls-4" d="M4.83,39.32l-4.26-2.45c-.32-.19-.52-.58-.52-1.13L.02,23.14l4.26,2.44,.04,12.6c0,.56,.2,.95,.51,1.14Z"/><path class="cls-3" d="M9.09,13.61c-1.68,0-3.06,1.34-3.06,3.06,0-1.68-1.37-3.06-3.06-3.06,1.7,0,3.06-1.37,3.06-3.06,0,1.7,1.36,3.06,3.06,3.06Z"/></g></svg>