<?xml version="1.0" encoding="iso-8859-1"?>
<!-- Generator: Adobe Illustrator 19.0.0, SVG Export Plug-In . SVG Version: 6.00 Build 0)  -->
<svg version="1.1" id="Capa_1" xmlns="http://www.w3.org/2000/svg" xmlns:xlink="http://www.w3.org/1999/xlink" x="0px" y="0px"
	 viewBox="0 0 512 512" style="enable-background:new 0 0 512 512;" xml:space="preserve">
<g>
	<g>
		<path d="M209.295,22.842l-39.955-8.084c-40.046-8.097-82.379-8.097-122.425,0L6.96,22.842C2.907,23.662,0,27.216,0,31.347v248.101
			c0,2.603,1.172,5.068,3.185,6.717c2.018,1.653,4.682,2.321,7.216,1.788l39.955-8.084c37.798-7.641,77.753-7.646,115.543,0
			l39.955,8.084c0.568,0.117,1.146,0.174,1.718,0.174c1.983,0,3.931-0.681,5.498-1.961c2.013-1.649,3.185-4.114,3.185-6.717V31.347
			C216.255,27.22,213.344,23.662,209.295,22.842z M198.894,268.834l-29.558-5.979c-20.021-4.048-40.619-6.075-61.213-6.075
			s-41.187,2.026-61.208,6.075l-29.558,5.979V38.442l32.999-6.678c37.798-7.641,77.753-7.641,115.543,0l32.995,6.678V268.834z"/>
	</g>
</g>
<g>
	<g>
		<path d="M164.333,87.839H51.918c-4.79,0-8.678,3.888-8.678,8.678c0,4.79,3.888,8.678,8.678,8.678h112.415
			c4.795,0,8.678-3.888,8.678-8.678C173.011,91.726,169.123,87.839,164.333,87.839z"/>
	</g>
</g>
<g>
	<g>
		<path d="M164.333,122.682H51.918c-4.79,0-8.678,3.888-8.678,8.678c0,4.79,3.888,8.678,8.678,8.678h112.415
			c4.795,0,8.678-3.888,8.678-8.678C173.011,126.57,169.123,122.682,164.333,122.682z"/>
	</g>
</g>
<g>
	<g>
		<path d="M112.45,157.526H51.918c-4.79,0-8.678,3.888-8.678,8.678s3.888,8.678,8.678,8.678h60.531c4.795,0,8.678-3.888,8.678-8.678
			S117.24,157.526,112.45,157.526z"/>
	</g>
</g>
<g>
	<g>
		<path d="M164.333,192.373H51.918c-4.79,0-8.678,3.888-8.678,8.678s3.888,8.678,8.678,8.678h112.415
			c4.795,0,8.678-3.888,8.678-8.678S169.123,192.373,164.333,192.373z"/>
	</g>
</g>
<g>
	<g>
		<path d="M408.19,22.842l-39.955-8.084c-40.046-8.097-82.379-8.097-122.425,0l-39.955,8.084c-4.053,0.82-6.96,4.374-6.96,8.505
			v248.101c0,2.603,1.172,5.068,3.185,6.717c2.018,1.653,4.673,2.321,7.216,1.788l39.955-8.084c37.785-7.646,77.741-7.65,115.543,0
			l39.955,8.084c0.568,0.117,1.146,0.174,1.718,0.174c1.983,0,3.931-0.681,5.502-1.961c2.009-1.649,3.181-4.114,3.181-6.717V31.347
			C415.15,27.22,412.238,23.662,408.19,22.842z M397.789,268.834l-29.558-5.979c-20.021-4.048-40.615-6.075-61.208-6.075
			s-41.192,2.026-61.213,6.075l-29.558,5.979V38.442l32.999-6.678c37.785-7.646,77.74-7.65,115.543,0l32.995,6.678V268.834z"/>
	</g>
</g>
<g>
	<g>
		<path d="M363.227,87.839H250.808c-4.79,0-8.678,3.888-8.678,8.678c0,4.79,3.888,8.678,8.678,8.678h112.419
			c4.79,0,8.678-3.888,8.678-8.678C371.906,91.726,368.018,87.839,363.227,87.839z"/>
	</g>
</g>
<g>
	<g>
		<path d="M363.227,122.682H250.808c-4.79,0-8.678,3.888-8.678,8.678c0,4.79,3.888,8.678,8.678,8.678h112.419
			c4.79,0,8.678-3.888,8.678-8.678C371.906,126.57,368.018,122.682,363.227,122.682z"/>
	</g>
</g>
<g>
	<g>
		<path d="M363.227,192.373H250.808c-4.79,0-8.678,3.888-8.678,8.678s3.888,8.678,8.678,8.678h112.419
			c4.79,0,8.678-3.888,8.678-8.678S368.018,192.373,363.227,192.373z"/>
	</g>
</g>
<g>
	<g>
		<path d="M504.433,458.781l-103.71-104.474c-3.372-3.402-8.865-3.424-12.271-0.043c-3.402,3.372-3.419,8.869-0.043,12.271
			l103.706,104.474c3.398,3.419,3.398,8.991,0.004,12.41c-3.254,3.272-8.891,3.272-12.145,0l-103.22-103.984
			c-3.372-3.398-8.865-3.424-12.271-0.043c-3.402,3.372-3.419,8.869-0.043,12.271l103.224,103.984
			c4.908,4.942,11.434,7.667,18.385,7.667c6.947,0,13.477-2.725,18.389-7.663C514.521,485.484,514.521,468.948,504.433,458.781z"/>
	</g>
</g>
<g>
	<g>
		<path d="M388.251,193.918c-24.503-24.69-57.09-38.284-91.76-38.284c-34.666,0-67.257,13.599-91.765,38.284
			c-50.551,50.92-50.551,133.776,0,184.697c24.508,24.685,57.099,38.284,91.765,38.284c34.67,0,67.257-13.599,91.76-38.284
			C438.807,327.695,438.807,244.838,388.251,193.918z M375.937,366.383c-21.223,21.383-49.436,33.16-79.446,33.16
			c-30.005,0-58.223-11.776-79.45-33.16c-43.856-44.173-43.856-116.06,0-160.237c21.227-21.383,49.445-33.156,79.45-33.156
			c30.01,0,58.223,11.772,79.45,33.156C419.797,250.323,419.797,322.206,375.937,366.383z"/>
	</g>
</g>
<g>
</g>
<g>
</g>
<g>
</g>
<g>
</g>
<g>
</g>
<g>
</g>
<g>
</g>
<g>
</g>
<g>
</g>
<g>
</g>
<g>
</g>
<g>
</g>
<g>
</g>
<g>
</g>
<g>
</g>
</svg>
