<?xml version="1.0" encoding="iso-8859-1"?>
<!-- Generator: Adobe Illustrator 19.0.0, SVG Export Plug-In . SVG Version: 6.00 Build 0)  -->
<svg version="1.1" id="Capa_1" xmlns="http://www.w3.org/2000/svg" xmlns:xlink="http://www.w3.org/1999/xlink" x="0px" y="0px"
	 viewBox="0 0 512 512" style="enable-background:new 0 0 512 512;" xml:space="preserve">
<g>
	<g>
		<path d="M231.67,14.081L191.575,6.04c-40.177-8.054-82.646-8.054-122.823,0l-40.099,8.041c-4.057,0.816-6.973,4.374-6.973,8.509
			v246.783c0,2.604,1.163,5.064,3.176,6.713c1.566,1.284,3.515,1.966,5.502,1.966c0.568,0,1.141-0.056,1.71-0.169l40.095-8.041
			c37.943-7.602,78.055-7.602,115.998,0l40.099,8.041c2.538,0.512,5.198-0.148,7.208-1.796c2.009-1.649,3.176-4.109,3.176-6.713
			V22.59C238.643,18.455,235.727,14.897,231.67,14.081z M221.281,258.781l-29.715-5.958c-20.087-4.027-40.746-6.04-61.409-6.04
			c-20.659,0-41.319,2.013-61.409,6.04l-29.711,5.958V29.702l33.126-6.643c37.938-7.607,78.051-7.607,115.998,0l33.122,6.643
			V258.781z"/>
	</g>
</g>
<g>
	<g>
		<path d="M186.572,78.736H73.75c-4.791,0-8.679,3.888-8.679,8.679c0,4.791,3.888,8.679,8.679,8.679h112.821
			c4.791,0,8.679-3.888,8.679-8.679C195.25,82.624,191.362,78.736,186.572,78.736z"/>
	</g>
</g>
<g>
	<g>
		<path d="M186.572,113.394H73.75c-4.791,0-8.679,3.888-8.679,8.679c0,4.791,3.888,8.679,8.679,8.679h112.821
			c4.791,0,8.679-3.888,8.679-8.679C195.25,117.282,191.362,113.394,186.572,113.394z"/>
	</g>
</g>
<g>
	<g>
		<path d="M134.5,148.056H73.75c-4.791,0-8.679,3.888-8.679,8.679c0,4.791,3.888,8.679,8.679,8.679h60.75
			c4.791,0,8.679-3.888,8.679-8.679C143.179,151.944,139.291,148.056,134.5,148.056z"/>
	</g>
</g>
<g>
	<g>
		<path d="M186.572,182.714H73.75c-4.791,0-8.679,3.888-8.679,8.679c0,4.791,3.888,8.679,8.679,8.679h112.821
			c4.791,0,8.679-3.888,8.679-8.679C195.25,186.602,191.362,182.714,186.572,182.714z"/>
	</g>
</g>
<g>
	<g>
		<path d="M431.281,14.081L391.186,6.04c-40.182-8.054-82.646-8.054-122.828,0l-40.099,8.041c-4.057,0.816-6.973,4.374-6.973,8.509
			v246.783c0,2.604,1.163,5.064,3.176,6.713c1.567,1.284,3.515,1.966,5.502,1.966c0.568,0,1.141-0.056,1.705-0.169l40.104-8.041
			c14.454-2.903,29.316-4.725,44.165-5.415c4.786-0.221,8.488-4.287,8.266-9.073c-0.221-4.791-4.469-8.483-9.073-8.266
			c-15.726,0.733-31.464,2.664-46.773,5.737l-29.715,5.958V29.702l33.13-6.643c37.934-7.602,78.051-7.607,115.993,0l33.126,6.643
			v201.282c0,4.791,3.888,8.679,8.679,8.679c4.791,0,8.679-3.888,8.679-8.679V22.59C438.25,18.455,435.334,14.897,431.281,14.081z"
			/>
	</g>
</g>
<g>
	<g>
		<path d="M386.178,78.736H273.357c-4.791,0-8.679,3.888-8.679,8.679c0,4.791,3.888,8.679,8.679,8.679h112.821
			c4.791,0,8.679-3.888,8.679-8.679C394.857,82.624,390.969,78.736,386.178,78.736z"/>
	</g>
</g>
<g>
	<g>
		<path d="M386.178,113.394H273.357c-4.791,0-8.679,3.888-8.679,8.679c0,4.791,3.888,8.679,8.679,8.679h112.821
			c4.791,0,8.679-3.888,8.679-8.679C394.857,117.282,390.969,113.394,386.178,113.394z"/>
	</g>
</g>
<g>
	<g>
		<path d="M316.75,148.056h-43.393c-4.791,0-8.679,3.888-8.679,8.679c0,4.791,3.888,8.679,8.679,8.679h43.393
			c4.791,0,8.679-3.888,8.679-8.679C325.428,151.944,321.54,148.056,316.75,148.056z"/>
	</g>
</g>
<g>
	<g>
		<path d="M386.178,182.714H361.41c-4.791,0-8.679,3.888-8.679,8.679c0,4.791,3.888,8.679,8.679,8.679h24.769
			c4.791,0,8.679-3.888,8.679-8.679C394.857,186.602,390.969,182.714,386.178,182.714z"/>
	</g>
</g>
<g>
	<g>
		<path d="M314.58,182.714h-41.223c-4.791,0-8.679,3.888-8.679,8.679c0,4.791,3.888,8.679,8.679,8.679h41.223
			c4.791,0,8.679-3.888,8.679-8.679C323.259,186.602,319.371,182.714,314.58,182.714z"/>
	</g>
</g>
<g>
	<g>
		<path d="M429.831,226.042l-61.01-7.65v-74.657c0-16.728-13.63-30.34-30.375-30.34c-16.745,0-30.375,13.612-30.375,30.34v204.797
			c0,17.348,10.41,32.484,26.036,38.897v115.893c0,4.791,3.888,8.679,8.679,8.679h112.821c4.791,0,8.679-3.888,8.679-8.679V387.428
			c15.626-6.413,26.036-21.549,26.036-38.897v-61.518C490.321,253.579,463.24,226.345,429.831,226.042z M472.964,348.531
			c0,11.599-7.932,21.514-19.292,24.118c-3.944,0.903-6.743,4.409-6.743,8.457v113.537h-95.464V381.106
			c0-4.044-2.799-7.555-6.743-8.457c-11.36-2.604-19.292-12.519-19.292-24.118V143.734c0-7.16,5.841-12.983,13.018-12.983
			c7.177,0,13.018,5.823,13.018,12.983v82.316c0,4.374,3.259,8.067,7.598,8.609l69.125,8.666c0.36,0.048,0.72,0.069,1.08,0.069
			c24.092,0,43.697,19.566,43.697,43.614V348.531z"/>
	</g>
</g>
<g>
	<g>
		<path d="M360.143,217.372c-4.791,0-8.679,3.888-8.679,8.679v43.323c0,4.791,3.888,8.679,8.679,8.679
			c4.791,0,8.679-3.888,8.679-8.679V226.05C368.821,221.26,364.933,217.372,360.143,217.372z"/>
	</g>
</g>
<g>
	<g>
		<path d="M394.857,226.037c-4.791,0-8.679,3.888-8.679,8.679v25.992c0,4.791,3.888,8.679,8.679,8.679s8.679-3.888,8.679-8.679
			v-25.992C403.535,229.925,399.647,226.037,394.857,226.037z"/>
	</g>
</g>
<g>
	<g>
		<path d="M429.571,226.037c-4.791,0-8.679,3.888-8.679,8.679v25.992c0,4.791,3.888,8.679,8.679,8.679s8.679-3.888,8.679-8.679
			v-25.992C438.25,229.925,434.362,226.037,429.571,226.037z"/>
	</g>
</g>
<g>
</g>
<g>
</g>
<g>
</g>
<g>
</g>
<g>
</g>
<g>
</g>
<g>
</g>
<g>
</g>
<g>
</g>
<g>
</g>
<g>
</g>
<g>
</g>
<g>
</g>
<g>
</g>
<g>
</g>
</svg>
