<?xml version="1.0" encoding="iso-8859-1"?>
<!-- Generator: Adobe Illustrator 19.0.0, SVG Export Plug-In . SVG Version: 6.00 Build 0)  -->
<svg version="1.1" id="Capa_1" xmlns="http://www.w3.org/2000/svg" xmlns:xlink="http://www.w3.org/1999/xlink" x="0px" y="0px"
	 viewBox="0 0 512 512" style="enable-background:new 0 0 512 512;" xml:space="preserve">
<g>
	<g>
		<path d="M379.081,161.21c-3.92-3.92-10.275-3.92-14.195,0L38.335,487.765L24.24,473.67l327.253-327.258
			c3.92-3.92,3.92-10.275,0-14.195c-3.92-3.92-10.275-3.92-14.195,0L2.941,466.573C1.059,468.455,0,471.005,0,473.67
			s1.059,5.215,2.941,7.098l28.291,28.291C33.195,511.021,35.76,512,38.33,512c2.57,0,5.14-0.979,7.098-2.941l333.653-333.653
			C383.001,171.485,383.001,165.13,379.081,161.21z"/>
	</g>
</g>
<g>
	<g>
		<path d="M434.392,77.598c-23.411-23.417-61.51-23.417-84.922,0c-23.411,23.411-23.411,61.51,0,84.922
			c11.706,11.711,27.086,17.564,42.461,17.564c15.38,0,30.755-5.853,42.461-17.564C457.803,139.108,457.803,101.01,434.392,77.598z
			 M420.196,148.329c-15.591,15.581-40.945,15.581-56.531,0c-15.581-15.586-15.581-40.945,0-56.531
			c7.795-7.795,18.03-11.691,28.265-11.691s20.47,3.895,28.265,11.691C435.777,107.384,435.777,132.744,420.196,148.329z"/>
	</g>
</g>
<g>
	<g>
		<path d="M462.662,29.294c-5.542,0-10.039,4.498-10.039,10.039v20.008c0,5.542,4.498,10.039,10.039,10.039
			s10.039-4.498,10.039-10.039V39.334C472.701,33.792,468.204,29.294,462.662,29.294z"/>
	</g>
</g>
<g>
	<g>
		<path d="M476.823,190.76l-14.145-14.145c-3.92-3.92-10.275-3.92-14.195,0c-1.963,1.958-2.941,4.528-2.941,7.098
			c0,2.57,0.979,5.14,2.941,7.098l14.145,14.145c1.963,1.963,4.528,2.941,7.098,2.941c2.57,0,5.14-0.979,7.098-2.941
			c1.963-1.958,2.941-4.528,2.941-7.098C479.764,195.288,478.785,192.718,476.823,190.76z"/>
	</g>
</g>
<g>
	<g>
		<path d="M335.38,49.313l-14.145-14.145c-3.92-3.92-10.275-3.92-14.195,0c-1.963,1.958-2.941,4.528-2.941,7.098
			c0,2.57,0.979,5.14,2.941,7.098l14.145,14.145c1.963,1.963,4.528,2.942,7.098,2.942c2.57,0,5.14-0.979,7.098-2.942
			c1.963-1.958,2.941-4.528,2.941-7.098C338.322,53.84,337.343,51.27,335.38,49.313z"/>
	</g>
</g>
<g>
	<g>
		<path d="M501.961,110.02h-20.008c-5.542,0-10.039,4.498-10.039,10.039c0,5.542,4.498,10.039,10.039,10.039h20.008
			c5.542,0,10.039-4.498,10.039-10.039C512,114.517,507.502,110.02,501.961,110.02z"/>
	</g>
</g>
<g>
	<g>
		<path d="M301.929,110.02h-20.008c-5.542,0-10.039,4.498-10.039,10.039c0,5.542,4.498,10.039,10.039,10.039h20.008
			c5.547,0,10.039-4.498,10.039-10.039C311.969,114.517,307.471,110.02,301.929,110.02z"/>
	</g>
</g>
<g>
	<g>
		<path d="M391.941,0c-5.542,0-10.039,4.498-10.039,10.039v20.008c0,5.542,4.498,10.039,10.039,10.039
			c5.547,0,10.039-4.498,10.039-10.039V10.039C401.98,4.498,397.483,0,391.941,0z"/>
	</g>
</g>
<g>
	<g>
		<path d="M391.941,200.031c-5.542,0-10.039,4.498-10.039,10.039v20.008c0,5.542,4.498,10.039,10.039,10.039
			c5.547,0,10.039-4.498,10.039-10.039v-20.008C401.98,204.529,397.483,200.031,391.941,200.031z"/>
	</g>
</g>
<g>
	<g>
		<path d="M59.031,77.909L24.024,42.908c-3.925-3.92-10.28-3.92-14.201,0c-3.92,3.925-3.92,10.28,0,14.201L44.83,92.11
			c1.963,1.958,4.528,2.936,7.098,2.936c2.57,0,5.14-0.979,7.103-2.936C62.951,88.184,62.951,81.83,59.031,77.909z"/>
	</g>
</g>
<g>
	<g>
		<path d="M59.026,42.903c-3.925-3.92-10.28-3.915-14.201,0L9.818,77.904c-3.92,3.925-3.92,10.28,0,14.201
			c1.963,1.963,4.533,2.941,7.103,2.941c2.57,0,5.14-0.979,7.098-2.936l35.007-35.007C62.946,53.178,62.946,46.823,59.026,42.903z"
			/>
	</g>
</g>
<g>
	<g>
		<path d="M129.039,237.939l-35.007-35.007c-3.915-3.92-10.28-3.92-14.195,0c-3.92,3.92-3.92,10.275,0,14.195l35.007,35.007
			c1.958,1.963,4.528,2.941,7.098,2.941c2.57,0,5.14-0.979,7.098-2.941C132.959,248.215,132.959,241.86,129.039,237.939z"/>
	</g>
</g>
<g>
	<g>
		<path d="M129.039,202.933c-3.915-3.92-10.28-3.92-14.195,0l-35.007,35.007c-3.92,3.92-3.92,10.275,0,14.195
			c1.958,1.963,4.528,2.941,7.098,2.941c2.57,0,5.14-0.979,7.098-2.941l35.007-35.007
			C132.959,213.208,132.959,206.853,129.039,202.933z"/>
	</g>
</g>
<g>
	<g>
		<path d="M449.089,327.956l-35.002-35.007c-3.92-3.92-10.275-3.92-14.195,0c-3.92,3.915-3.92,10.275,0,14.195l35.002,35.007
			c1.963,1.963,4.528,2.941,7.098,2.941c2.565,0,5.135-0.979,7.098-2.941C453.01,338.236,453.01,331.876,449.089,327.956z"/>
	</g>
</g>
<g>
	<g>
		<path d="M449.089,292.949c-3.92-3.92-10.275-3.92-14.195,0l-35.002,35.007c-3.92,3.92-3.92,10.28,0,14.195
			c1.963,1.963,4.528,2.941,7.098,2.941c2.57,0,5.14-0.979,7.098-2.941l35.002-35.007
			C453.01,303.224,453.01,296.865,449.089,292.949z"/>
	</g>
</g>
<g>
	<g>
		<path d="M279.06,447.975l-34.997-35.012c-3.925-3.92-10.28-3.92-14.2,0c-3.92,3.915-3.92,10.275,0,14.195l35.002,35.012
			c1.963,1.963,4.528,2.941,7.098,2.941c2.565,0,5.135-0.979,7.098-2.941C282.98,458.255,282.98,451.895,279.06,447.975z"/>
	</g>
</g>
<g>
	<g>
		<path d="M279.06,412.963c-3.92-3.92-10.275-3.92-14.195,0l-35.002,35.012c-3.92,3.92-3.92,10.28,0,14.195
			c1.963,1.963,4.528,2.941,7.098,2.941c2.57,0,5.14-0.979,7.103-2.941l34.997-35.012C282.98,423.238,282.98,416.878,279.06,412.963
			z"/>
	</g>
</g>
<g>
</g>
<g>
</g>
<g>
</g>
<g>
</g>
<g>
</g>
<g>
</g>
<g>
</g>
<g>
</g>
<g>
</g>
<g>
</g>
<g>
</g>
<g>
</g>
<g>
</g>
<g>
</g>
<g>
</g>
</svg>
