<?xml version="1.0" encoding="iso-8859-1"?>
<!-- Generator: Adobe Illustrator 19.0.0, SVG Export Plug-In . SVG Version: 6.00 Build 0)  -->
<svg version="1.1" id="Capa_1" xmlns="http://www.w3.org/2000/svg" xmlns:xlink="http://www.w3.org/1999/xlink" x="0px" y="0px"
	 viewBox="0 0 512 512" style="enable-background:new 0 0 512 512;" xml:space="preserve">
<g>
	<g>
		<path d="M481.103,17.655H30.897C13.859,17.655,0,31.514,0,48.552c0,17.037,13.859,30.897,30.897,30.897h450.207
			c17.033,0,30.897-13.859,30.897-30.897C512,31.514,498.136,17.655,481.103,17.655z M481.103,61.793H30.897
			c-7.3,0-13.241-5.941-13.241-13.241S23.596,35.31,30.897,35.31h450.207c7.3,0,13.241,5.941,13.241,13.241
			S488.404,61.793,481.103,61.793z"/>
	</g>
</g>
<g>
	<g>
		<path d="M333.003,344.276H30.897c-7.3,0-13.241-5.941-13.241-13.241s5.941-13.241,13.241-13.241h302.742
			c4.873,0,8.828-3.955,8.828-8.828s-3.955-8.828-8.828-8.828H30.897C13.859,300.138,0,314.002,0,331.034
			s13.859,30.897,30.897,30.897h302.107c4.877,0,8.828-3.955,8.828-8.828S337.876,344.276,333.003,344.276z"/>
	</g>
</g>
<g>
	<g>
		<path d="M481.103,300.138h-53.998c-4.873,0-8.828,3.955-8.828,8.828s3.955,8.828,8.828,8.828h53.998
			c7.3,0,13.241,5.941,13.241,13.241s-5.941,13.241-13.241,13.241h-55.905c-4.873,0-8.828,3.955-8.828,8.828
			s3.955,8.828,8.828,8.828h55.905c17.033,0,30.897-13.864,30.897-30.897S498.136,300.138,481.103,300.138z"/>
	</g>
</g>
<g>
	<g>
		<path d="M467.862,61.793H44.138c-4.873,0-8.828,3.955-8.828,8.828v238.345c0,4.873,3.955,8.828,8.828,8.828h286.958
			c4.873,0,8.828-3.955,8.828-8.828s-3.955-8.828-8.828-8.828H52.966V79.448h406.069v220.69H425.83
			c-4.873,0-8.828,3.955-8.828,8.828s3.955,8.828,8.828,8.828h42.033c4.873,0,8.828-3.955,8.828-8.828V70.621
			C476.69,65.748,472.735,61.793,467.862,61.793z"/>
	</g>
</g>
<g>
	<g>
		<path d="M423.724,194.207h-88.276c-4.873,0-8.828,3.955-8.828,8.828v238.345c0,29.206,23.759,52.966,52.966,52.966
			s52.966-23.759,52.966-52.966V203.034C432.552,198.162,428.597,194.207,423.724,194.207z M414.897,441.379
			c0,19.469-15.841,35.31-35.31,35.31c-19.469,0-35.31-15.841-35.31-35.31V211.862h70.621V441.379z"/>
	</g>
</g>
<g>
	<g>
		<path d="M431.439,198.749L387.302,119.3c-1.554-2.803-4.506-4.542-7.715-4.542c-3.209,0-6.162,1.739-7.715,4.542l-44.138,79.448
			c-1.523,2.732-1.483,6.065,0.106,8.761c1.589,2.697,4.48,4.352,7.609,4.352h88.276c3.129,0,6.025-1.66,7.609-4.352
			C432.918,204.818,432.962,201.481,431.439,198.749z M350.451,194.207l29.135-52.445l29.131,52.445H350.451z"/>
	</g>
</g>
<g>
	<g>
		<path d="M370.759,229.517c-4.873,0-8.828,3.955-8.828,8.828v194.207c0,4.873,3.955,8.828,8.828,8.828s8.828-3.955,8.828-8.828
			V238.345C379.586,233.472,375.631,229.517,370.759,229.517z"/>
	</g>
</g>
<g>
	<g>
		<path d="M331.008,115.924c-4.228-2.423-9.622-0.945-12.045,3.284l-63.294,110.769l-36.317-58.103
			c-1.452-2.317-3.889-3.831-6.607-4.105l-88.276-8.828c-3.509-0.331-6.885,1.417-8.598,4.498l-44.138,79.448
			c-2.366,4.264-0.834,9.635,3.43,12.006c1.355,0.75,2.825,1.108,4.277,1.108c3.103,0,6.113-1.638,7.729-4.542l41.318-74.372
			l78.195,7.826l41.843,66.944c1.642,2.626,4.467,4.224,7.658,4.145c3.107-0.057,5.95-1.748,7.49-4.445l70.621-123.586
			C336.711,123.736,335.241,118.343,331.008,115.924z"/>
	</g>
</g>
<g>
</g>
<g>
</g>
<g>
</g>
<g>
</g>
<g>
</g>
<g>
</g>
<g>
</g>
<g>
</g>
<g>
</g>
<g>
</g>
<g>
</g>
<g>
</g>
<g>
</g>
<g>
</g>
<g>
</g>
</svg>
