<?xml version="1.0" encoding="iso-8859-1"?>
<!-- Generator: Adobe Illustrator 19.0.0, SVG Export Plug-In . SVG Version: 6.00 Build 0)  -->
<svg version="1.1" id="Capa_1" xmlns="http://www.w3.org/2000/svg" xmlns:xlink="http://www.w3.org/1999/xlink" x="0px" y="0px"
	 viewBox="0 0 512 512" style="enable-background:new 0 0 512 512;" xml:space="preserve">
<g>
	<g>
		<path d="M210.589,387.216l-47.889-33.99c-13.118-9.311-19.171-24.014-15.822-38.268l34.552-138.892
			c1.102-4.426-1.594-8.906-6.02-10.009c-4.426-1.082-8.906,1.598-10.009,6.02l-34.576,139.004
			c-4.942,21.029,3.609,42.339,22.313,55.614l47.888,33.99c1.453,1.028,3.122,1.524,4.773,1.524c2.585,0,5.132-1.21,6.743-3.481
			C215.18,395.012,214.309,389.859,210.589,387.216z"/>
	</g>
</g>
<g>
	<g>
		<path d="M381.167,311.077l-34.552-147.142c-1.045-4.443-5.5-7.185-9.926-6.152c-4.439,1.045-7.193,5.487-6.152,9.926
			l34.552,147.142c3.378,14.361-2.68,29.06-15.794,38.371l-47.992,34.06c-3.724,2.643-4.6,7.796-1.957,11.512
			c1.61,2.271,4.158,3.481,6.743,3.481c1.652,0,3.324-0.495,4.769-1.524l47.992-34.06
			C377.554,353.416,386.106,332.106,381.167,311.077z"/>
	</g>
</g>
<g>
	<g>
		<path d="M342.251,396.585l-50.102-9.666c-4.492-0.842-8.811,2.073-9.674,6.545c-0.863,4.48,2.065,8.811,6.545,9.674l50.849,9.811
			c0.516,0.099,1.041,0.149,1.565,0.149c25.749,0,46.695,20.897,46.695,46.588v35.799H123.871v-35.795
			c0-25.687,20.947-46.588,46.695-46.588c0.524,0,1.049-0.05,1.565-0.149l46.786-9.026c4.48-0.863,7.407-5.194,6.544-9.674
			c-0.867-4.484-5.215-7.391-9.674-6.544l-46.039,8.877c-34.477,0.438-62.394,28.577-62.394,63.1v44.057
			c0,4.558,3.7,8.258,8.258,8.258h280.774c4.563,0,8.258-3.695,8.258-8.258v-44.053
			C404.645,425.162,376.729,397.027,342.251,396.585z"/>
	</g>
</g>
<g>
	<g>
		<path d="M289.028,347.136h-66.064c-4.558,0-8.258,3.7-8.258,8.258v41.204c0,3.13,1.771,5.991,4.571,7.387
			c11.495,5.744,24.109,8.609,36.719,8.609c12.614,0,25.224-2.866,36.724-8.609c2.795-1.396,4.567-4.257,4.567-7.387v-41.204
			C297.286,350.836,293.587,347.136,289.028,347.136z M280.77,391.271c-15.822,6.421-33.726,6.421-49.548,0v-27.619h49.548V391.271z
			"/>
	</g>
</g>
<g>
	<g>
		<path d="M338.577,165.814c-4.558,0-8.258,3.7-8.258,8.258V321.33c0,14.229-11.607,25.806-25.872,25.806H207.55
			c-14.266,0-25.872-11.578-25.872-25.806V174.072c0-4.558-3.7-8.258-8.258-8.258c-4.558,0-8.258,3.7-8.258,8.258v147.258
			c0,23.337,19.018,42.323,42.389,42.323h96.9c23.37,0,42.385-18.985,42.385-42.323V174.072
			C346.835,169.513,343.135,165.814,338.577,165.814z"/>
	</g>
</g>
<g>
	<g>
		<path d="M338.577,132.843H207.794c-23.511,0-42.636,19.126-42.636,42.636v48.037c0,4.558,3.7,8.258,8.258,8.258h108.767
			c35.65,0,64.652-29.002,64.652-64.652v-26.021C346.835,136.543,343.135,132.843,338.577,132.843z M330.318,167.118
			c0,26.546-21.591,48.14-48.136,48.14H181.673v-39.783c0-14.402,11.718-26.12,26.12-26.12h122.525V167.118z"/>
	</g>
</g>
<g>
	<g>
		<path d="M188.833,54.561c-1.474-2.56-4.203-4.141-7.16-4.141H157.82l30.241-36.93c2.89-3.526,2.37-8.729-1.156-11.619
			c-3.522-2.89-8.725-2.374-11.619,1.156l-41.29,50.42c-2.019,2.469-2.44,5.884-1.074,8.766c1.367,2.886,4.274,4.724,7.465,4.724
			h26.925l-25.806,44.313c-2.296,3.943-0.962,8.997,2.981,11.293c1.305,0.76,2.733,1.123,4.146,1.123
			c2.845,0,5.611-1.47,7.147-4.108l33.032-56.725C190.295,60.276,190.307,57.121,188.833,54.561z"/>
	</g>
</g>
<g>
	<g>
		<path d="M280.762,50.42h-23.853l30.241-36.93c2.89-3.526,2.374-8.729-1.152-11.619c-3.53-2.89-8.737-2.374-11.619,1.156
			l-41.29,50.42c-2.019,2.469-2.44,5.884-1.073,8.766c1.367,2.886,4.273,4.724,7.465,4.724h26.925l-25.802,44.313
			c-2.296,3.943-0.962,8.997,2.981,11.293c1.305,0.76,2.733,1.123,4.146,1.123c2.845,0,5.611-1.47,7.135-4.108l33.032-56.725
			c1.486-2.556,1.495-5.706,0.025-8.27C286.447,52.001,283.718,50.42,280.762,50.42z"/>
	</g>
</g>
<g>
	<g>
		<path d="M388.117,50.42h-23.853l30.241-36.93c2.89-3.526,2.374-8.729-1.152-11.619c-3.53-2.89-8.737-2.374-11.619,1.156
			l-41.29,50.42c-2.023,2.469-2.444,5.884-1.078,8.766c1.367,2.886,4.278,4.724,7.465,4.724h26.925l-25.802,44.313
			c-2.292,3.943-0.958,8.997,2.981,11.293c1.309,0.76,2.738,1.123,4.15,1.123c2.845,0,5.611-1.47,7.135-4.108l33.032-56.725
			c1.486-2.556,1.495-5.706,0.025-8.27C393.802,52.001,391.073,50.42,388.117,50.42z"/>
	</g>
</g>
<g>
</g>
<g>
</g>
<g>
</g>
<g>
</g>
<g>
</g>
<g>
</g>
<g>
</g>
<g>
</g>
<g>
</g>
<g>
</g>
<g>
</g>
<g>
</g>
<g>
</g>
<g>
</g>
<g>
</g>
</svg>
