<?xml version="1.0" encoding="iso-8859-1"?>
<!-- Generator: Adobe Illustrator 19.0.0, SVG Export Plug-In . SVG Version: 6.00 Build 0)  -->
<svg version="1.1" id="Capa_1" xmlns="http://www.w3.org/2000/svg" xmlns:xlink="http://www.w3.org/1999/xlink" x="0px" y="0px"
	 viewBox="0 0 512 512" style="enable-background:new 0 0 512 512;" xml:space="preserve">
<g>
	<g>
		<polygon points="351.675,54.672 351.675,0 60.093,0 60.093,512 205.884,385.645 351.675,512 351.675,258.437 333.452,258.437 
			333.452,472.09 205.884,361.535 78.317,472.09 78.317,18.224 333.452,18.224 333.452,54.672 		"/>
	</g>
</g>
<g>
	<g>
		<path d="M342.563,45.56c-60.289,0-109.343,49.05-109.343,109.343s49.054,109.343,109.343,109.343
			c60.289,0,109.343-49.05,109.343-109.343S402.853,45.56,342.563,45.56z M342.563,246.022c-50.243,0-91.119-40.876-91.119-91.119
			s40.876-91.119,91.119-91.119s91.119,40.876,91.119,91.119S392.807,246.022,342.563,246.022z"/>
	</g>
</g>
<g>
	<g>
		<rect x="96.541" y="9.112" width="18.224" height="446.485"/>
	</g>
</g>
<g>
	<g>
		<path d="M405.254,129.13c-2.852-15.736-10.948-26.962-22.798-31.609c-12.192-4.784-26.488-1.549-39.409,8.629
			c-12.916-10.173-27.208-13.413-39.414-8.629c-23.226,9.116-30.766,43.405-17.171,78.062
			c11.659,29.714,42.124,46.475,55.902,47.514c0.223,0.018,0.456,0.027,0.683,0.027c0.228,0,0.46-0.009,0.683-0.027
			c13.782-1.039,44.243-17.805,55.902-47.514C405.823,159.782,407.823,143.285,405.254,129.13z M382.661,168.931
			c-8.861,22.607-32.388,34.707-39.614,35.91c-7.226-1.203-30.753-13.303-39.619-35.91c-10.365-26.429-4.706-49.902,6.861-54.444
			c1.581-0.62,3.285-0.925,5.08-0.925c6.442,0,14.019,3.936,21.185,11.208c3.426,3.472,9.549,3.472,12.975,0
			c9.171-9.294,18.994-13.13,26.27-10.283c7.754,3.043,10.547,12.52,11.522,17.9C389.267,143.103,387.567,156.42,382.661,168.931z"
			/>
	</g>
</g>
<g>
</g>
<g>
</g>
<g>
</g>
<g>
</g>
<g>
</g>
<g>
</g>
<g>
</g>
<g>
</g>
<g>
</g>
<g>
</g>
<g>
</g>
<g>
</g>
<g>
</g>
<g>
</g>
<g>
</g>
</svg>
