<?xml version="1.0" encoding="iso-8859-1"?>
<!-- Generator: Adobe Illustrator 19.0.0, SVG Export Plug-In . SVG Version: 6.00 Build 0)  -->
<svg version="1.1" id="Capa_1" xmlns="http://www.w3.org/2000/svg" xmlns:xlink="http://www.w3.org/1999/xlink" x="0px" y="0px"
	 viewBox="0 0 512 512" style="enable-background:new 0 0 512 512;" xml:space="preserve">
<g>
	<g>
		<path d="M472.297,197.71L434.043,34.482c-1.01-4.297-4.955-7.186-9.358-7.045l-182.857,9.143c-4.027,0.201-7.447,3.017-8.416,6.93
			l-12.64,50.907c-1.216,4.901,1.769,9.861,6.67,11.077c4.896,1.225,9.861-1.769,11.077-6.67l11.003-44.32l168.462-8.421
			l36.512,155.803c3.739,15.936-2.967,32.256-17.495,42.587l-56.617,40.261c-4.119,2.926-5.083,8.635-2.153,12.75
			c1.783,2.51,4.599,3.845,7.461,3.845c1.833,0,3.685-0.549,5.289-1.691l56.617-40.261
			C468.297,244.654,477.76,221.024,472.297,197.71z"/>
	</g>
</g>
<g>
	<g>
		<path d="M429.211,292.576l-56.649-10.953c-5.001-0.96-9.755,2.286-10.715,7.241c-0.955,4.96,2.286,9.755,7.241,10.715
			l57.477,11.113c0.571,0.11,1.157,0.165,1.737,0.165c28.507,0,51.698,23.191,51.698,51.698v39.73H367.538
			c-5.047,0-9.143,4.096-9.143,9.143s4.096,9.143,9.143,9.143h121.605c5.047,0,9.143-4.096,9.143-9.143v-48.873
			C498.286,324.27,467.383,293.061,429.211,292.576z"/>
	</g>
</g>
<g>
	<g>
		<path d="M370.286,237.714h-73.143c-5.047,0-9.143,4.096-9.143,9.143v45.714c0,3.465,1.957,6.629,5.051,8.178
			c12.736,6.363,26.697,9.545,40.663,9.545s27.927-3.182,40.663-9.545c3.095-1.55,5.051-4.713,5.051-8.178v-45.714
			C379.429,241.81,375.333,237.714,370.286,237.714z M361.143,286.679c-17.518,7.127-37.339,7.127-54.857,0V256h54.857V286.679z"/>
	</g>
</g>
<g>
	<g>
		<path d="M425.143,36.571c-5.047,0-9.143,4.096-9.143,9.143V209.07c0,15.794-12.85,28.645-28.64,28.645h-88.997
			c-5.047,0-9.143,4.096-9.143,9.143c0,5.047,4.096,9.143,9.143,9.143h88.992c25.879,0,46.93-21.051,46.93-46.93V45.714
			C434.286,40.667,430.19,36.571,425.143,36.571z"/>
	</g>
</g>
<g>
	<g>
		<path d="M244.009,36.571h-1.723c-5.047,0-9.143,4.096-9.143,9.143s4.096,9.143,9.143,9.143h1.723c5.047,0,9.143-4.096,9.143-9.143
			S249.056,36.571,244.009,36.571z"/>
	</g>
</g>
<g>
	<g>
		<path d="M425.143,0H280.384c-26.048,0-47.241,21.193-47.241,47.241v53.33c0,5.047,4.096,9.143,9.143,9.143h120.357
			c39.506,0,71.643-32.137,71.643-71.643V9.143C434.286,4.096,430.19,0,425.143,0z M416,38.071
			c0,29.422-23.936,53.358-53.358,53.358H251.429V47.241c0-15.968,12.992-28.955,28.955-28.955H416V38.071z"/>
	</g>
</g>
<g>
	<g>
		<path d="M317.765,384.005l-55.072-9.047c-4.987-0.8-9.687,2.555-10.505,7.538c-0.823,4.983,2.555,9.687,7.538,10.505l55.79,9.166
			c0.489,0.078,0.987,0.119,1.481,0.119c34.423,0,62.432,23.191,62.432,51.698v39.73H32v-39.73
			c0-28.507,28.005-51.698,62.432-51.698c0.498,0,0.997-0.041,1.486-0.119l58.126-9.55c4.978-0.818,8.357-5.527,7.538-10.505
			c-0.818-4.978-5.509-8.325-10.505-7.538l-57.408,9.431c-44.155,0.361-79.954,31.611-79.954,69.979v48.873
			c0,5.047,4.096,9.143,9.143,9.143h365.714c5.047,0,9.143-4.096,9.143-9.143v-48.873
			C397.714,415.616,361.92,384.361,317.765,384.005z"/>
	</g>
</g>
<g>
	<g>
		<path d="M260.571,329.143H150.857c-5.047,0-9.143,4.096-9.143,9.143V384c0,3.936,2.519,7.429,6.254,8.672
			c18.08,6.03,37.911,9.038,57.746,9.038s39.666-3.008,57.751-9.038c3.73-1.243,6.249-4.736,6.249-8.672v-45.714
			C269.714,333.239,265.618,329.143,260.571,329.143z M251.429,377.253c-29.074,8.279-62.354,8.279-91.429,0v-29.824h91.429V377.253
			z"/>
	</g>
</g>
<g>
	<g>
		<path d="M297.143,128c-5.047,0-9.143,4.096-9.143,9.143v163.355c0,15.794-12.85,28.645-28.645,28.645H152.078
			c-15.794,0-28.645-12.85-28.645-28.645V181.147c0-5.047-4.096-9.143-9.143-9.143s-9.143,4.096-9.143,9.143v119.351
			c0,25.879,21.051,46.93,46.93,46.93h107.278c25.879,0,46.93-21.051,46.93-46.93V137.143C306.286,132.096,302.19,128,297.143,128z"
			/>
	</g>
</g>
<g>
	<g>
		<path d="M259.045,91.429H86.857c-5.047,0-9.143,4.096-9.143,9.143v28.928c0,39.506,32.137,71.643,71.643,71.643h147.785
			c5.047,0,9.143-4.096,9.143-9.143v-53.33C306.286,112.622,285.093,91.429,259.045,91.429z M288,182.857H149.358
			c-29.422,0-53.358-23.936-53.358-53.358v-19.785h163.045c15.963,0,28.955,12.987,28.955,28.955V182.857z"/>
	</g>
</g>
<g>
</g>
<g>
</g>
<g>
</g>
<g>
</g>
<g>
</g>
<g>
</g>
<g>
</g>
<g>
</g>
<g>
</g>
<g>
</g>
<g>
</g>
<g>
</g>
<g>
</g>
<g>
</g>
<g>
</g>
</svg>
