<?xml version="1.0" encoding="iso-8859-1"?>
<!-- Generator: Adobe Illustrator 19.0.0, SVG Export Plug-In . SVG Version: 6.00 Build 0)  -->
<svg version="1.1" id="Capa_1" xmlns="http://www.w3.org/2000/svg" xmlns:xlink="http://www.w3.org/1999/xlink" x="0px" y="0px"
	 viewBox="0 0 512.001 512.001" style="enable-background:new 0 0 512.001 512.001;" xml:space="preserve">
<g>
	<g>
		<path d="M380.006,350.408h-0.012l-56.881-2.41c-4.454-0.126-8.277,3.287-8.464,7.773c-0.191,4.486,3.287,8.273,7.773,8.464
			l57.226,2.418c39.367,0,71.4,28.461,71.4,63.443v65.65H60.953v-65.65c0-34.987,32.028-63.447,71.745-63.451l57.933-2.454
			c4.486-0.191,7.969-3.978,7.778-8.464c-0.191-4.478-3.982-7.977-8.464-7.773l-57.592,2.446c-48.331,0-87.654,35.755-87.654,79.697
			v73.777c0,4.486,3.641,8.127,8.127,8.127h406.349c4.486,0,8.127-3.641,8.127-8.127v-73.777
			C467.302,386.155,427.996,350.408,380.006,350.408z"/>
	</g>
</g>
<g>
	<g>
		<path d="M321.016,316.673H190.985c-4.486,0-8.127,3.641-8.127,8.127v38.668c0,3.552,2.308,6.697,5.701,7.761
			c21.118,6.603,44.276,9.907,67.442,9.907c23.158,0,46.328-3.308,67.446-9.911c3.389-1.065,5.697-4.202,5.697-7.757V324.8
			C329.143,320.314,325.503,316.673,321.016,316.673z M312.889,357.393c-36.059,10.029-77.727,10.029-113.778,0v-24.466h113.778
			V357.393z"/>
	</g>
</g>
<g>
	<g>
		<path d="M369.778,136.665c-4.486,0-8.127,3.641-8.127,8.127V271.54c0,24.889-20.212,45.133-45.056,45.133H195.402
			c-24.844,0-45.056-20.244-45.056-45.133V148.022c0-4.486-3.641-8.127-8.127-8.127c-4.486,0-8.127,3.641-8.127,8.127V271.54
			c0,33.849,27.506,61.387,61.31,61.387h121.194c33.804,0,61.31-27.538,61.31-61.387V144.792
			C377.905,140.305,374.264,136.665,369.778,136.665z"/>
	</g>
</g>
<g>
	<g>
		<path d="M369.778,64.855c-4.486,0-8.127,3.641-8.127,8.127v67.885l-100.246,12.796c-6.181,0.313-12.434,0.301-18.603-0.032
			l-92.453-12.694V71.222c0-4.486-3.641-8.127-8.127-8.127s-8.127,3.641-8.127,8.127v76.8c0,4.059,2.999,7.497,7.026,8.05
			l99.803,13.702c0.215,0.033,0.431,0.053,0.65,0.065c3.596,0.199,7.221,0.301,10.85,0.301c3.381,0,6.766-0.089,10.13-0.264
			c0.199-0.008,0.402-0.028,0.601-0.053l107.65-13.739c4.059-0.52,7.099-3.97,7.099-8.062v-75.04
			C377.905,68.495,374.264,64.855,369.778,64.855z"/>
	</g>
</g>
<g>
	<g>
		<path d="M434.782,47.666c-0.175-3.625-2.735-6.697-6.27-7.522L257.744,0.212c-1.252-0.293-2.548-0.28-3.791,0.02L91.519,40.165
			c-3.487,0.857-5.998,3.901-6.177,7.485c-0.179,3.584,2.015,6.867,5.396,8.066l162.434,57.734c0.882,0.313,1.8,0.471,2.723,0.471
			c0.878,0,1.76-0.142,2.601-0.431l170.772-57.734C432.702,54.594,434.957,51.291,434.782,47.666z M255.96,97.196L121.722,49.482
			l134.221-33L397.069,49.49L255.96,97.196z"/>
	</g>
</g>
<g>
	<g>
		<path d="M410.413,422.491H337.27c-4.486,0-8.127,3.641-8.127,8.127v73.257c0,4.486,3.641,8.127,8.127,8.127h73.143
			c4.486,0,8.127-3.641,8.127-8.127v-73.257C418.54,426.132,414.899,422.491,410.413,422.491z M402.286,495.747h-56.889v-57.003
			h56.889V495.747z"/>
	</g>
</g>
<g>
</g>
<g>
</g>
<g>
</g>
<g>
</g>
<g>
</g>
<g>
</g>
<g>
</g>
<g>
</g>
<g>
</g>
<g>
</g>
<g>
</g>
<g>
</g>
<g>
</g>
<g>
</g>
<g>
</g>
</svg>
