<?xml version="1.0" encoding="iso-8859-1"?>
<!-- Generator: Adobe Illustrator 19.0.0, SVG Export Plug-In . SVG Version: 6.00 Build 0)  -->
<svg version="1.1" id="Capa_1" xmlns="http://www.w3.org/2000/svg" xmlns:xlink="http://www.w3.org/1999/xlink" x="0px" y="0px"
	 viewBox="0 0 512 512" style="enable-background:new 0 0 512 512;" xml:space="preserve">
<g>
	<g>
		<path d="M397.241,150.069c4.873,0,8.828-3.955,8.828-8.828V60.138C406.069,26.977,379.092,0,345.935,0H166.069
			c-33.161,0-60.138,26.977-60.138,60.138v81.103c0,4.873,3.955,8.828,8.828,8.828c20.877,0,44.138,43.502,44.138,105.931
			s-23.261,105.931-44.138,105.931c-4.873,0-8.828,3.955-8.828,8.828v81.103c0,33.161,26.977,60.138,60.138,60.138h179.862
			c33.161,0,60.138-26.977,60.138-60.138v-81.103c0-4.873-3.955-8.828-8.828-8.828c-20.873,0-44.138-43.502-44.138-105.931
			S376.369,150.069,397.241,150.069z M335.448,256c0,63.294,22.643,114.066,52.97,122.39v73.472
			c0,23.428-19.054,42.483-42.483,42.483H166.069c-23.424,0-42.483-19.054-42.483-42.483V378.39
			c30.323-8.324,52.966-59.096,52.966-122.39s-22.643-114.061-52.966-122.39V60.138c0-23.424,19.054-42.483,42.483-42.483h179.862
			c23.428,0,42.483,19.059,42.483,42.483v73.472C358.091,141.939,335.448,192.706,335.448,256z"/>
	</g>
</g>
<g>
	<g>
		<path d="M203.034,79.448c-4.873,0-8.828,3.955-8.828,8.828v406.069c0,4.873,3.955,8.828,8.828,8.828
			c4.877,0,8.828-3.955,8.828-8.828V88.276C211.862,83.403,207.907,79.448,203.034,79.448z"/>
	</g>
</g>
<g>
	<g>
		<path d="M238.345,79.448c-4.873,0-8.828,3.955-8.828,8.828v414.897c0,4.873,3.955,8.828,8.828,8.828h70.621
			c4.877,0,8.828-3.955,8.828-8.828V158.897C317.793,115.09,282.152,79.448,238.345,79.448z M300.138,494.345h-52.966V97.735
			c29.903,4.295,52.966,30.084,52.966,61.162V494.345z"/>
	</g>
</g>
<g>
	<g>
		<path d="M273.655,150.069c-4.873,0-8.828,3.955-8.828,8.828v26.483c0,4.873,3.955,8.828,8.828,8.828
			c4.877,0,8.828-3.955,8.828-8.828v-26.483C282.483,154.024,278.528,150.069,273.655,150.069z"/>
	</g>
</g>
<g>
	<g>
		<path d="M273.655,423.724c-4.873,0-8.828,3.955-8.828,8.828v26.483c0,4.873,3.955,8.828,8.828,8.828
			c4.877,0,8.828-3.955,8.828-8.828v-26.483C282.483,427.679,278.528,423.724,273.655,423.724z"/>
	</g>
</g>
<g>
</g>
<g>
</g>
<g>
</g>
<g>
</g>
<g>
</g>
<g>
</g>
<g>
</g>
<g>
</g>
<g>
</g>
<g>
</g>
<g>
</g>
<g>
</g>
<g>
</g>
<g>
</g>
<g>
</g>
</svg>
