<?xml version="1.0" encoding="iso-8859-1"?>
<!-- Generator: Adobe Illustrator 19.0.0, SVG Export Plug-In . SVG Version: 6.00 Build 0)  -->
<svg version="1.1" id="Capa_1" xmlns="http://www.w3.org/2000/svg" xmlns:xlink="http://www.w3.org/1999/xlink" x="0px" y="0px"
	 viewBox="0 0 512 512" style="enable-background:new 0 0 512 512;" xml:space="preserve">
<g>
	<g>
		<path d="M327.923,0H184.077C128.035,0,82.441,45.594,82.441,101.636v292.517c0,17.13,13.937,31.067,31.067,31.067h284.984
			c17.13,0,31.067-13.937,31.067-31.067V101.636C429.559,45.594,383.965,0,327.923,0z M412.203,394.153
			c0,7.559-6.153,13.711-13.711,13.711H113.508c-7.563,0-13.711-6.153-13.711-13.711V101.636c0-46.475,37.806-84.28,84.28-84.28
			h143.846c46.471,0,84.28,37.806,84.28,84.28V394.153z"/>
	</g>
</g>
<g>
	<g>
		<path d="M177.903,407.864h-52.068c-4.79,0-8.678,3.888-8.678,8.678v64.36c0,17.148,13.95,31.097,31.098,31.097h7.224
			c17.143,0,31.098-13.95,31.102-31.097v-64.36C186.581,411.752,182.693,407.864,177.903,407.864z M169.225,480.898
			c-0.004,7.58-6.17,13.746-13.746,13.746h-7.224c-7.576,0-13.742-6.166-13.742-13.742V425.22h34.712V480.898z"/>
	</g>
</g>
<g>
	<g>
		<path d="M386.174,407.864h-52.068c-4.79,0-8.678,3.888-8.678,8.678v64.36c0,17.148,13.95,31.097,31.098,31.097h7.224
			c17.143,0,31.098-13.95,31.102-31.097v-64.36C394.852,411.752,390.964,407.864,386.174,407.864z M377.496,480.898
			c-0.004,7.58-6.17,13.746-13.746,13.746h-7.224c-7.576,0-13.742-6.166-13.742-13.742V425.22h34.712V480.898z"/>
	</g>
</g>
<g>
	<g>
		<path d="M342.78,321.085c-19.139,0-34.712,15.573-34.712,34.712c0,19.139,15.573,34.712,34.712,34.712
			s34.712-15.573,34.712-34.712C377.492,336.657,361.919,321.085,342.78,321.085z M342.78,373.153
			c-9.572,0-17.356-7.784-17.356-17.356c0-9.572,7.784-17.356,17.356-17.356s17.356,7.784,17.356,17.356
			C360.136,365.368,352.351,373.153,342.78,373.153z"/>
	</g>
</g>
<g>
	<g>
		<path d="M169.22,321.085c-19.139,0-34.712,15.573-34.712,34.712c0,19.139,15.573,34.712,34.712,34.712
			c19.139,0,34.712-15.573,34.712-34.712C203.932,336.657,188.36,321.085,169.22,321.085z M169.22,373.153
			c-9.572,0-17.356-7.784-17.356-17.356c0-9.572,7.784-17.356,17.356-17.356s17.356,7.784,17.356,17.356
			C186.576,365.368,178.792,373.153,169.22,373.153z"/>
	</g>
</g>
<g>
	<g>
		<path d="M82.441,104.136H56.407c-9.572,0-17.356,7.784-17.356,17.356v78.102c0,9.572,7.784,17.356,17.356,17.356h26.034
			c9.572,0,17.356-7.784,17.356-17.356v-78.102C99.797,111.92,92.012,104.136,82.441,104.136z M56.407,199.593v-78.102h26.034
			l0.013,78.102H56.407z"/>
	</g>
</g>
<g>
	<g>
		<path d="M455.593,104.136h-26.034c-9.572,0-17.356,7.784-17.356,17.356v78.102c0,9.572,7.784,17.356,17.356,17.356h26.034
			c9.572,0,17.356-7.784,17.356-17.356v-78.102C472.949,111.92,465.165,104.136,455.593,104.136z M429.559,199.593v-78.102h26.034
			l0.013,78.102H429.559z"/>
	</g>
</g>
<g>
	<g>
		<path d="M394.843,86.78H117.148c-4.79,0-8.678,3.888-8.678,8.678v172.8c0,19.56,15.911,35.471,35.471,35.471h224.113
			c9.481,0,18.389-3.692,25.079-10.392c6.699-6.699,10.392-15.603,10.388-25.079v-172.8C403.521,90.667,399.633,86.78,394.843,86.78
			z M386.165,268.262c0,4.838-1.883,9.385-5.302,12.804s-7.971,5.307-12.809,5.307H143.941c-9.988,0-18.115-8.127-18.115-18.115
			V104.136h260.339V268.262z"/>
	</g>
</g>
<g>
</g>
<g>
</g>
<g>
</g>
<g>
</g>
<g>
</g>
<g>
</g>
<g>
</g>
<g>
</g>
<g>
</g>
<g>
</g>
<g>
</g>
<g>
</g>
<g>
</g>
<g>
</g>
<g>
</g>
</svg>
