<?xml version="1.0" encoding="iso-8859-1"?>
<!-- Generator: Adobe Illustrator 19.0.0, SVG Export Plug-In . SVG Version: 6.00 Build 0)  -->
<svg version="1.1" id="Capa_1" xmlns="http://www.w3.org/2000/svg" xmlns:xlink="http://www.w3.org/1999/xlink" x="0px" y="0px"
	 viewBox="0 0 512 512" style="enable-background:new 0 0 512 512;" xml:space="preserve">
<g>
	<g>
		<path d="M221.288,348.151c-4.79,0-8.678,3.888-8.678,8.678v137.815H21.695V216.949h119.031c4.79,0,8.678-3.888,8.678-8.678
			s-3.888-8.678-8.678-8.678H13.017c-4.79,0-8.678,3.888-8.678,8.678v295.051c0,4.79,3.888,8.678,8.678,8.678h208.271
			c4.79,0,8.678-3.888,8.678-8.678V356.829C229.966,352.039,226.078,348.151,221.288,348.151z"/>
	</g>
</g>
<g>
	<g>
		<path d="M498.983,199.593H370.128c-4.79,0-8.678,3.888-8.678,8.678s3.888,8.678,8.678,8.678h120.177v277.695H299.39V358.669
			c0-4.79-3.888-8.678-8.678-8.678s-8.678,3.888-8.678,8.678v144.653c0,4.79,3.888,8.678,8.678,8.678h208.271
			c4.79,0,8.678-3.888,8.678-8.678V208.271C507.661,203.481,503.773,199.593,498.983,199.593z"/>
	</g>
</g>
<g>
	<g>
		<path d="M368.814,121.492H143.186c-4.79,0-8.678,3.888-8.678,8.678v225.627c0,4.79,3.888,8.678,8.678,8.678h225.627
			c4.79,0,8.678-3.888,8.678-8.678V130.169C377.492,125.379,373.604,121.492,368.814,121.492z M360.136,347.119H151.864V138.847
			h208.271V347.119z"/>
	</g>
</g>
<g>
	<g>
		<path d="M91.119,381.831h-43.39c-4.79,0-8.678,3.888-8.678,8.678v112.814c0,4.79,3.888,8.678,8.678,8.678h43.39
			c4.79,0,8.678-3.888,8.678-8.678V390.508C99.797,385.718,95.909,381.831,91.119,381.831z M82.441,494.644H56.407v-95.458h26.034
			V494.644z"/>
	</g>
</g>
<g>
	<g>
		<path d="M186.576,381.831h-43.39c-4.79,0-8.678,3.888-8.678,8.678v112.814c0,4.79,3.888,8.678,8.678,8.678h43.39
			c4.79,0,8.678-3.888,8.678-8.678V390.508C195.254,385.718,191.367,381.831,186.576,381.831z M177.898,494.644h-26.034v-95.458
			h26.034V494.644z"/>
	</g>
</g>
<g>
	<g>
		<path d="M368.814,381.831h-43.39c-4.79,0-8.678,3.888-8.678,8.678v112.814c0,4.79,3.888,8.678,8.678,8.678h43.39
			c4.79,0,8.678-3.888,8.678-8.678V390.508C377.492,385.718,373.604,381.831,368.814,381.831z M360.136,494.644h-26.034v-95.458
			h26.034V494.644z"/>
	</g>
</g>
<g>
	<g>
		<path d="M91.119,234.305h-43.39c-4.79,0-8.678,3.888-8.678,8.678v112.814c0,4.79,3.888,8.678,8.678,8.678h43.39
			c4.79,0,8.678-3.888,8.678-8.678V242.983C99.797,238.193,95.909,234.305,91.119,234.305z M82.441,347.119H56.407v-95.458h26.034
			V347.119z"/>
	</g>
</g>
<g>
	<g>
		<path d="M290.712,164.881h-69.424c-4.79,0-8.678,3.888-8.678,8.678v147.525c0,4.79,3.888,8.678,8.678,8.678h69.424
			c4.79,0,8.678-3.888,8.678-8.678V173.559C299.39,168.769,295.502,164.881,290.712,164.881z M282.034,312.407h-52.068V182.237
			h52.068V312.407z"/>
	</g>
</g>
<g>
	<g>
		<path d="M464.271,381.831h-43.39c-4.79,0-8.678,3.888-8.678,8.678v112.814c0,4.79,3.888,8.678,8.678,8.678h43.39
			c4.79,0,8.678-3.888,8.678-8.678V390.508C472.949,385.718,469.061,381.831,464.271,381.831z M455.593,494.644h-26.034v-95.458
			h26.034V494.644z"/>
	</g>
</g>
<g>
	<g>
		<path d="M464.271,234.305h-43.39c-4.79,0-8.678,3.888-8.678,8.678v112.814c0,4.79,3.888,8.678,8.678,8.678h43.39
			c4.79,0,8.678-3.888,8.678-8.678V242.983C472.949,238.193,469.061,234.305,464.271,234.305z M455.593,347.119h-26.034v-95.458
			h26.034V347.119z"/>
	</g>
</g>
<g>
	<g>
		<path d="M256,0c-4.79,0-8.678,3.888-8.678,8.678v121.492c0,4.79,3.888,8.678,8.678,8.678s8.678-3.888,8.678-8.678V8.678
			C264.678,3.888,260.79,0,256,0z"/>
	</g>
</g>
<g>
	<g>
		<path d="M382.303,88.238l-41.238-27.492l41.238-27.492c3.185-2.122,4.604-6.075,3.493-9.737c-1.106-3.658-4.482-6.161-8.305-6.161
			H256c-4.79,0-8.678,3.888-8.678,8.678v69.424c0,4.79,3.888,8.678,8.678,8.678h121.492c3.823,0,7.198-2.504,8.305-6.161
			C386.907,94.312,385.484,90.359,382.303,88.238z M264.678,86.78V34.712h84.155l-28.221,18.814c-2.417,1.61-3.866,4.317-3.866,7.22
			c0,2.903,1.449,5.61,3.866,7.22l28.221,18.814H264.678z"/>
	</g>
</g>
<g>
</g>
<g>
</g>
<g>
</g>
<g>
</g>
<g>
</g>
<g>
</g>
<g>
</g>
<g>
</g>
<g>
</g>
<g>
</g>
<g>
</g>
<g>
</g>
<g>
</g>
<g>
</g>
<g>
</g>
</svg>
