<?xml version="1.0" encoding="iso-8859-1"?>
<!-- Generator: Adobe Illustrator 19.0.0, SVG Export Plug-In . SVG Version: 6.00 Build 0)  -->
<svg version="1.1" id="Capa_1" xmlns="http://www.w3.org/2000/svg" xmlns:xlink="http://www.w3.org/1999/xlink" x="0px" y="0px"
	 viewBox="0 0 512 512" style="enable-background:new 0 0 512 512;" xml:space="preserve">
<g>
	<g>
		<path d="M504,200H8c-4.416,0-8,3.584-8,8v128c0,4.416,3.584,8,8,8h496c4.416,0,8-3.584,8-8V208C512,203.584,508.416,200,504,200z
			 M496,328H16V216h480V328z"/>
	</g>
</g>
<g>
	<g>
		<path d="M504,168H8c-4.416,0-8,3.584-8,8v32c0,4.416,3.584,8,8,8h496c4.416,0,8-3.584,8-8v-32C512,171.584,508.416,168,504,168z
			 M496,200H16v-16h480V200z"/>
	</g>
</g>
<g>
	<g>
		<path d="M64,280c-4.416,0-8,3.584-8,8v48c0,4.416,3.584,8,8,8s8-3.584,8-8v-48C72,283.584,68.416,280,64,280z"/>
	</g>
</g>
<g>
	<g>
		<path d="M192,280c-4.416,0-8,3.584-8,8v48c0,4.416,3.584,8,8,8s8-3.584,8-8v-48C200,283.584,196.416,280,192,280z"/>
	</g>
</g>
<g>
	<g>
		<path d="M320,280c-4.416,0-8,3.584-8,8v48c0,4.416,3.584,8,8,8c4.416,0,8-3.584,8-8v-48C328,283.584,324.416,280,320,280z"/>
	</g>
</g>
<g>
	<g>
		<path d="M448,280c-4.416,0-8,3.584-8,8v48c0,4.416,3.584,8,8,8c4.416,0,8-3.584,8-8v-48C456,283.584,452.416,280,448,280z"/>
	</g>
</g>
<g>
	<g>
		<path d="M384,240c-4.416,0-8,3.584-8,8v88c0,4.416,3.584,8,8,8c4.416,0,8-3.584,8-8v-88C392,243.584,388.416,240,384,240z"/>
	</g>
</g>
<g>
	<g>
		<path d="M256,240c-4.416,0-8,3.584-8,8v88c0,4.416,3.584,8,8,8s8-3.584,8-8v-88C264,243.584,260.416,240,256,240z"/>
	</g>
</g>
<g>
	<g>
		<path d="M128,240c-4.416,0-8,3.584-8,8v88c0,4.416,3.584,8,8,8s8-3.584,8-8v-88C136,243.584,132.416,240,128,240z"/>
	</g>
</g>
<g>
</g>
<g>
</g>
<g>
</g>
<g>
</g>
<g>
</g>
<g>
</g>
<g>
</g>
<g>
</g>
<g>
</g>
<g>
</g>
<g>
</g>
<g>
</g>
<g>
</g>
<g>
</g>
<g>
</g>
</svg>
