<?xml version="1.0" encoding="iso-8859-1"?>
<!-- Generator: Adobe Illustrator 19.0.0, SVG Export Plug-In . SVG Version: 6.00 Build 0)  -->
<svg version="1.1" id="Capa_1" xmlns="http://www.w3.org/2000/svg" xmlns:xlink="http://www.w3.org/1999/xlink" x="0px" y="0px"
	 viewBox="0 0 512 512" style="enable-background:new 0 0 512 512;" xml:space="preserve">
<g>
	<g>
		<path d="M494.943,370.782L141.235,17.073C130.222,6.06,115.586,0,100.014,0C84.447,0,69.806,6.06,58.798,17.073L2.897,72.975
			c-3.845,3.845-3.845,10.078,0,13.922l422.218,422.218c1.925,1.925,4.441,2.885,6.961,2.885c2.516,0,5.036-0.96,6.961-2.885
			l55.906-55.902C517.668,430.489,517.668,393.506,494.943,370.782z M481.011,439.296l-48.94,48.935L23.78,79.936l48.94-48.94
			c7.291-7.291,16.985-11.303,27.294-11.303c10.309,0,20.003,4.012,27.294,11.303l353.703,353.713
			C496.061,399.759,496.061,424.246,481.011,439.296z"/>
	</g>
</g>
<g>
	<g>
		<path d="M116.964,86.095c-3.84-3.845-10.082-3.845-13.922,0l-41.61,41.61c-3.845,3.845-3.845,10.078,0,13.922
			c1.92,1.925,4.441,2.885,6.961,2.885s5.041-0.96,6.961-2.885l41.61-41.61C120.809,96.172,120.809,89.94,116.964,86.095z"/>
	</g>
</g>
<g>
	<g>
		<path d="M165.511,134.636c-3.845-3.845-10.082-3.845-13.922,0l-41.61,41.615c-3.845,3.845-3.845,10.078,0,13.922
			c1.925,1.925,4.441,2.885,6.961,2.885c2.521,0,5.041-0.96,6.961-2.885l41.61-41.615
			C169.356,144.714,169.356,138.481,165.511,134.636z"/>
	</g>
</g>
<g>
	<g>
		<path d="M214.057,183.183c-3.845-3.845-10.082-3.845-13.922,0l-41.61,41.615c-3.845,3.845-3.845,10.078,0,13.922
			c1.925,1.925,4.441,2.885,6.961,2.885c2.516,0,5.041-0.96,6.961-2.885l41.61-41.615
			C217.902,193.26,217.902,187.028,214.057,183.183z"/>
	</g>
</g>
<g>
	<g>
		<path d="M262.609,231.734c-3.85-3.845-10.082-3.845-13.927,0l-41.61,41.615c-3.845,3.845-3.845,10.082,0,13.922
			c1.925,1.925,4.441,2.885,6.961,2.885s5.041-0.965,6.971-2.88l41.605-41.615C266.454,241.812,266.454,235.579,262.609,231.734z"/>
	</g>
</g>
<g>
	<g>
		<path d="M311.15,280.281c-3.845-3.845-10.078-3.845-13.922,0l-41.61,41.61c-3.845,3.845-3.845,10.078,0,13.922
			c1.92,1.925,4.441,2.885,6.961,2.885s5.036-0.96,6.961-2.885l41.61-41.61C314.995,290.358,314.995,284.125,311.15,280.281z"/>
	</g>
</g>
<g>
	<g>
		<path d="M359.697,328.822c-3.845-3.845-10.078-3.845-13.922,0l-41.615,41.61c-3.845,3.845-3.845,10.078,0,13.922
			c1.925,1.925,4.441,2.885,6.961,2.885c2.521,0,5.041-0.96,6.961-2.885l41.615-41.61
			C363.542,338.9,363.542,332.667,359.697,328.822z"/>
	</g>
</g>
<g>
	<g>
		<path d="M408.238,377.374c-3.845-3.845-10.078-3.845-13.922,0l-41.615,41.61c-3.845,3.845-3.845,10.078,0,13.922
			c1.925,1.925,4.441,2.885,6.961,2.885s5.041-0.965,6.961-2.885l41.615-41.61C412.083,387.451,412.083,381.218,408.238,377.374z"/>
	</g>
</g>
<g>
</g>
<g>
</g>
<g>
</g>
<g>
</g>
<g>
</g>
<g>
</g>
<g>
</g>
<g>
</g>
<g>
</g>
<g>
</g>
<g>
</g>
<g>
</g>
<g>
</g>
<g>
</g>
<g>
</g>
</svg>
