<?xml version="1.0" encoding="iso-8859-1"?>
<!-- Generator: Adobe Illustrator 19.0.0, SVG Export Plug-In . SVG Version: 6.00 Build 0)  -->
<svg version="1.1" id="Capa_1" xmlns="http://www.w3.org/2000/svg" xmlns:xlink="http://www.w3.org/1999/xlink" x="0px" y="0px"
	 viewBox="0 0 512 512" style="enable-background:new 0 0 512 512;" xml:space="preserve">
<g>
	<g>
		<path d="M173.581,125.001l-36.113-7.245c-0.32-0.064-0.644-0.111-0.969-0.137c-17.485-1.438-34.94,4.527-47.863,16.414
			c-12.945,11.908-20.369,28.834-20.369,46.434v86.524c0,17.596,7.424,34.522,20.369,46.43
			c11.644,10.714,26.957,16.636,42.675,16.636c1.724,0,3.456-0.068,5.188-0.218l16.265-1.357c4.698-0.392,8.188-4.514,7.795-9.212
			c-0.397-4.698-4.561-8.192-9.216-7.795l-16.265,1.357c-12.954,1.067-25.327-3.174-34.889-11.972
			c-9.579-8.811-14.857-20.838-14.857-33.869v-86.524c0-13.035,5.278-25.062,14.857-33.882c9.446-8.691,21.641-12.949,34.419-12.002
			l35.614,7.147c4.625,0.939,9.118-2.065,10.044-6.686C181.197,130.424,178.202,125.927,173.581,125.001z"/>
	</g>
</g>
<g>
	<g>
		<path d="M414.839,134.038c-12.928-11.891-30.34-17.852-47.863-16.414c-0.328,0.026-0.653,0.073-0.973,0.137l-30.302,6.08
			c-4.621,0.926-7.612,5.423-6.686,10.044c0.922,4.617,5.406,7.616,10.044,6.686l29.798-5.978
			c12.779-0.93,24.973,3.315,34.415,12.002c9.583,8.811,14.857,20.843,14.857,33.873v86.524c0,13.026-5.274,25.058-14.857,33.869
			c-9.557,8.798-21.982,13.026-34.884,11.972l-8.316-0.695c-4.71-0.418-8.819,3.093-9.216,7.791
			c-0.393,4.693,3.093,8.823,7.791,9.216l8.32,0.695c1.732,0.145,3.46,0.218,5.188,0.218c15.71,0,31.027-5.922,42.684-16.631
			c12.941-11.908,20.365-28.834,20.365-46.43v-86.524C435.204,162.872,427.78,145.951,414.839,134.038z"/>
	</g>
</g>
<g>
	<g>
		<path d="M215.014,95.741L69.201,66.484c-0.32-0.064-0.644-0.111-0.969-0.137C50.748,64.91,33.297,70.87,20.369,82.761
			C7.424,94.674,0,111.6,0,129.2v86.524c0,17.6,7.424,34.526,20.369,46.438c11.644,10.709,26.957,16.631,42.675,16.631
			c1.724,0,3.456-0.073,5.184-0.222l6.985-0.585c4.698-0.393,8.188-4.514,7.795-9.212c-0.397-4.702-4.535-8.201-9.216-7.795
			l-6.98,0.585c-12.924,1.054-25.327-3.174-34.889-11.968c-9.583-8.811-14.857-20.843-14.857-33.873V129.2
			c0-13.03,5.278-25.062,14.861-33.882c9.442-8.691,21.649-12.941,34.415-12.002l145.314,29.154
			c4.629,0.934,9.114-2.065,10.044-6.686C222.63,101.164,219.635,96.667,215.014,95.741z"/>
	</g>
</g>
<g>
	<g>
		<path d="M491.631,82.774c-12.919-11.887-30.332-17.869-47.859-16.414c-0.329,0.026-0.653,0.073-0.973,0.137L296.986,95.749
			c-4.621,0.926-7.612,5.423-6.686,10.044c0.922,4.617,5.41,7.629,10.044,6.686l145.314-29.154
			c12.787-0.939,24.973,3.315,34.415,12.002c9.583,8.815,14.857,20.847,14.857,33.877v86.528c0,13.026-5.274,25.058-14.857,33.873
			c-9.557,8.794-21.943,13.065-34.889,11.964l-14.865-1.242c-4.71-0.418-8.819,3.093-9.212,7.795
			c-0.393,4.693,3.093,8.819,7.795,9.212l14.869,1.242c1.732,0.145,3.465,0.218,5.193,0.218c15.71,0,31.023-5.918,42.667-16.631
			C504.576,250.254,512,233.328,512,215.728v-86.524C512,111.6,504.576,94.678,491.631,82.774z"/>
	</g>
</g>
<g>
	<g>
		<path d="M358.4,189.56c-4.71,0-8.533,3.823-8.533,8.533v221l-88.397-73.762c-3.17-2.641-7.77-2.641-10.935,0l-88.401,73.762
			V198.094c0-4.71-3.823-8.533-8.533-8.533c-4.71,0-8.533,3.823-8.533,8.533V437.33c0,3.311,1.916,6.323,4.915,7.727
			c2.999,1.404,6.541,0.947,9.084-1.178L256,363l96.934,80.879c1.562,1.31,3.507,1.984,5.466,1.984c1.229,0,2.462-0.265,3.618-0.802
			c3-1.408,4.915-4.42,4.915-7.731V198.094C366.933,193.383,363.11,189.56,358.4,189.56z"/>
	</g>
</g>
<g>
	<g>
		<path d="M256,87.032c-61.167,0-110.933,49.822-110.933,111.061S194.833,309.155,256,309.155
			c61.171,0,110.933-49.822,110.933-111.061S317.171,87.032,256,87.032z M256,292.088c-51.759,0-93.867-42.167-93.867-93.995
			s42.108-93.995,93.867-93.995s93.867,42.163,93.867,93.995C349.867,249.925,307.759,292.088,256,292.088z"/>
	</g>
</g>
<g>
	<g>
		<path d="M256,121.208c-42.347,0-76.8,34.492-76.8,76.885c0,42.394,34.453,76.885,76.8,76.885s76.8-34.492,76.8-76.885
			C332.8,155.7,298.347,121.208,256,121.208z M256,257.912c-32.939,0-59.733-26.837-59.733-59.819s26.795-59.819,59.733-59.819
			s59.733,26.837,59.733,59.819S288.939,257.912,256,257.912z"/>
	</g>
</g>
<g>
</g>
<g>
</g>
<g>
</g>
<g>
</g>
<g>
</g>
<g>
</g>
<g>
</g>
<g>
</g>
<g>
</g>
<g>
</g>
<g>
</g>
<g>
</g>
<g>
</g>
<g>
</g>
<g>
</g>
</svg>
