<?xml version="1.0" encoding="iso-8859-1"?>
<!-- Generator: Adobe Illustrator 19.0.0, SVG Export Plug-In . SVG Version: 6.00 Build 0)  -->
<svg version="1.1" id="Capa_1" xmlns="http://www.w3.org/2000/svg" xmlns:xlink="http://www.w3.org/1999/xlink" x="0px" y="0px"
	 viewBox="0 0 512 512" style="enable-background:new 0 0 512 512;" xml:space="preserve">
<g>
	<g>
		<path d="M445.992,404.211H30.078C13.492,404.211,0,417.702,0,434.293v29.665c0,16.586,13.492,30.078,30.078,30.078h415.915
			c16.586,0,30.078-13.492,30.078-30.082v-29.665C476.07,417.702,462.579,404.211,445.992,404.211z M458.105,463.957
			c0,6.678-5.434,12.113-12.113,12.113H30.078c-6.678,0-12.113-5.434-12.113-12.117v-29.665c0-6.678,5.434-12.113,12.113-12.113
			h415.915c6.678,0,12.113,5.434,12.113,12.117V463.957z"/>
	</g>
</g>
<g>
	<g>
		<path d="M481.922,296.421H66.008c-16.586,0-30.078,13.492-30.078,30.078v65.599c0,16.586,13.492,30.078,30.078,30.078h415.915
			c16.586,0,30.078-13.492,30.078-30.082v-65.594C512,309.913,498.508,296.421,481.922,296.421z M494.035,392.098
			c0,6.678-5.434,12.113-12.113,12.113H66.008c-6.678,0-12.113-5.434-12.113-12.117v-65.594c0-6.678,5.434-12.113,12.113-12.113
			h415.915c6.678,0,12.113,5.434,12.113,12.113V392.098z"/>
	</g>
</g>
<g>
	<g>
		<path d="M296.421,305.404c-4.958,0-8.982,4.024-8.982,8.982v89.825c0,4.958,4.024,8.982,8.982,8.982
			c4.958,0,8.982-4.024,8.982-8.982v-89.825C305.404,309.428,301.379,305.404,296.421,305.404z"/>
	</g>
</g>
<g>
	<g>
		<path d="M296.421,440.14H143.719c-4.958,0-8.982,4.024-8.982,8.982s4.024,8.982,8.982,8.982h152.702
			c4.958,0,8.982-4.024,8.982-8.982S301.379,440.14,296.421,440.14z"/>
	</g>
</g>
<g>
	<g>
		<path d="M197.614,296.421h-80.842c-4.958,0-8.982,4.024-8.982,8.982v80.842c0,3.31,1.823,6.355,4.743,7.923
			c2.924,1.563,6.467,1.388,9.22-0.449l35.44-23.628l35.44,23.628c1.5,1.006,3.238,1.509,4.981,1.509c1.455,0,2.91-0.35,4.24-1.06
			c2.919-1.567,4.743-4.612,4.743-7.923v-80.842C206.596,300.445,202.572,296.421,197.614,296.421z M188.632,369.462l-26.458-17.637
			c-1.509-1.006-3.243-1.509-4.981-1.509s-3.472,0.503-4.981,1.509l-26.458,17.637v-55.076h62.877V369.462z"/>
	</g>
</g>
<g>
	<g>
		<path d="M368.281,260.491H125.754V44.912c0-14.862-12.086-26.947-26.947-26.947c-14.861,0-26.947,12.086-26.947,26.947v242.526
			c0,14.861,12.086,26.947,26.947,26.947h269.474c14.861,0,26.947-12.086,26.947-26.947S383.142,260.491,368.281,260.491z
			 M368.281,296.421H98.807c-4.954,0-8.982-4.029-8.982-8.982V44.912c0-4.954,4.029-8.982,8.982-8.982
			c4.954,0,8.982,4.029,8.982,8.982v233.544h260.491c4.954,0,8.982,4.029,8.982,8.982S373.234,296.421,368.281,296.421z"/>
	</g>
</g>
<g>
	<g>
		
			<rect x="81.927" y="179.654" transform="matrix(0.6866 -0.7271 0.7271 0.6866 -76.6167 199.5466)" width="222.416" height="17.966"/>
	</g>
</g>
<g>
	<g>
		
			<rect x="116.013" y="206.601" transform="matrix(0.9104 -0.4138 0.4138 0.9104 -69.0853 112.2446)" width="217.048" height="17.964"/>
	</g>
</g>
<g>
	<g>
		
			<rect x="124.264" y="233.548" transform="matrix(0.9864 -0.1643 0.1643 0.9864 -36.6745 41.6669)" width="218.55" height="17.965"/>
	</g>
</g>
<g>
	<g>
		
			<rect x="44.525" y="161.688" transform="matrix(0.3032 -0.9529 0.9529 0.3032 -59.3696 260.1475)" width="207.355" height="17.964"/>
	</g>
</g>
<g>
</g>
<g>
</g>
<g>
</g>
<g>
</g>
<g>
</g>
<g>
</g>
<g>
</g>
<g>
</g>
<g>
</g>
<g>
</g>
<g>
</g>
<g>
</g>
<g>
</g>
<g>
</g>
<g>
</g>
</svg>
