<?xml version="1.0" encoding="iso-8859-1"?>
<!-- Generator: Adobe Illustrator 19.0.0, SVG Export Plug-In . SVG Version: 6.00 Build 0)  -->
<svg version="1.1" id="Capa_1" xmlns="http://www.w3.org/2000/svg" xmlns:xlink="http://www.w3.org/1999/xlink" x="0px" y="0px"
	 viewBox="0 0 512 512" style="enable-background:new 0 0 512 512;" xml:space="preserve">
<g>
	<g>
		<path d="M258.703,60.106l-69.15-19.727c-36.662-10.462-74.585-15.764-112.714-15.764H9.846C4.411,24.615,0,29.026,0,34.462
			v368.645c0,5.435,4.411,9.846,9.846,9.846h66.993c36.303,0,72.404,5.051,107.308,15.006l69.15,19.727
			c0.891,0.256,1.797,0.379,2.703,0.379c2.117,0,4.204-0.684,5.932-1.984c2.462-1.861,3.914-4.775,3.914-7.862V69.573
			C265.846,65.177,262.927,61.312,258.703,60.106z M246.154,425.167l-56.601-16.143c-36.662-10.461-74.585-15.764-112.714-15.764
			H19.692V44.308h57.147c36.303,0,72.404,5.046,107.308,15.006l62.006,17.689V425.167z"/>
	</g>
</g>
<g>
	<g>
		<path d="M502.154,24.615h-66.993c-38.129,0-76.052,5.302-112.714,15.764l-69.15,19.727c-4.229,1.206-7.143,5.071-7.143,9.467
			v368.645c0,3.087,1.447,5.996,3.914,7.862c1.728,1.3,3.815,1.984,5.932,1.984c0.906,0,1.812-0.128,2.703-0.379l69.15-19.727
			c34.905-9.959,71.01-15.005,107.308-15.005h66.993c5.435,0,9.846-4.411,9.846-9.846V34.462
			C512,29.026,507.589,24.615,502.154,24.615z M492.308,393.26h-57.147c-38.129,0-76.052,5.302-112.714,15.764l-56.601,16.143
			V77.002l62.006-17.689c34.905-9.959,71.01-15.006,107.308-15.006h57.147V393.26z"/>
	</g>
</g>
<g>
	<g>
		<path d="M502.154,379.225c-5.435,0-9.846,4.411-9.846,9.846v49.132H285.538c-5.435,0-9.846,4.411-9.846,9.846v19.643h-39.385
			v-19.643c0-5.435-4.411-9.846-9.846-9.846H19.692v-49.132c0-5.435-4.411-9.846-9.846-9.846c-5.435,0-9.846,4.411-9.846,9.846
			v58.978c0,5.435,4.411,9.846,9.846,9.846h206.769v19.643c0,5.435,4.411,9.846,9.846,9.846h59.077c5.435,0,9.846-4.411,9.846-9.846
			v-19.643h206.769c5.435,0,9.846-4.411,9.846-9.846v-58.978C512,383.636,507.589,379.225,502.154,379.225z"/>
	</g>
</g>
<g>
</g>
<g>
</g>
<g>
</g>
<g>
</g>
<g>
</g>
<g>
</g>
<g>
</g>
<g>
</g>
<g>
</g>
<g>
</g>
<g>
</g>
<g>
</g>
<g>
</g>
<g>
</g>
<g>
</g>
</svg>
