<?xml version="1.0" encoding="iso-8859-1"?>
<!-- Generator: Adobe Illustrator 19.0.0, SVG Export Plug-In . SVG Version: 6.00 Build 0)  -->
<svg version="1.1" id="Capa_1" xmlns="http://www.w3.org/2000/svg" xmlns:xlink="http://www.w3.org/1999/xlink" x="0px" y="0px"
	 viewBox="0 0 512 512" style="enable-background:new 0 0 512 512;" xml:space="preserve">
<g>
	<g>
		<path d="M152.702,0H71.86c-4.958,0-8.982,4.024-8.982,8.982v449.123c0,4.958,4.024,8.982,8.982,8.982
			c4.958,0,8.982-4.024,8.982-8.982V17.965h62.877v400.977c0,4.958,4.024,8.982,8.982,8.982s8.982-4.024,8.982-8.982V8.982
			C161.684,4.024,157.66,0,152.702,0z"/>
	</g>
</g>
<g>
	<g>
		<path d="M412.093,0H152.702c-4.958,0-8.982,4.024-8.982,8.982v409.959c0,4.958,4.024,8.982,8.982,8.982s8.982-4.024,8.982-8.982
			V17.965h250.408c10.514,0,19.065,8.551,19.065,19.065v457.005H152.702c-4.958,0-8.982,4.024-8.982,8.982
			c0,4.958,4.024,8.982,8.982,8.982H440.14c4.958,0,8.982-4.024,8.982-8.982V37.03C449.123,16.613,432.51,0,412.093,0z"/>
	</g>
</g>
<g>
	<g>
		<path d="M440.14,413.193h-327.86c-27.239,0-49.403,22.164-49.403,49.404S85.041,512,112.281,512h327.86
			c4.958,0,8.982-4.024,8.982-8.982v-80.842C449.123,417.217,445.099,413.193,440.14,413.193z M431.158,494.035H112.281
			c-17.336,0-31.439-14.107-31.439-31.439s14.102-31.439,31.439-31.439h318.877V494.035z"/>
	</g>
</g>
<g>
	<g>
		<path d="M222.599,168.726l-28.919,23.027l9.149,11.421l10.316-8.291c1.231-0.984,3.422-3.054,6.571-6.202l-0.305,9.333
			l-0.184,8.533v51.946h18.971v-89.766H222.599z"/>
	</g>
</g>
<g>
	<g>
		<polygon points="300.647,207.468 300.647,183.521 287.201,183.521 287.201,207.468 263.437,207.468 263.437,220.915 
			287.201,220.915 287.201,244.556 300.647,244.556 300.647,220.915 324.41,220.915 324.41,207.468 		"/>
	</g>
</g>
<g>
	<g>
		<path d="M366.161,168.726l-28.919,23.027l9.149,11.421l10.316-8.291c1.231-0.984,3.422-3.054,6.571-6.202l-0.305,9.333
			l-0.184,8.533v51.946h18.971v-89.766H366.161z"/>
	</g>
</g>
<g>
</g>
<g>
</g>
<g>
</g>
<g>
</g>
<g>
</g>
<g>
</g>
<g>
</g>
<g>
</g>
<g>
</g>
<g>
</g>
<g>
</g>
<g>
</g>
<g>
</g>
<g>
</g>
<g>
</g>
</svg>
