<?xml version="1.0" encoding="iso-8859-1"?>
<!-- Generator: Adobe Illustrator 19.0.0, SVG Export Plug-In . SVG Version: 6.00 Build 0)  -->
<svg version="1.1" id="Capa_1" xmlns="http://www.w3.org/2000/svg" xmlns:xlink="http://www.w3.org/1999/xlink" x="0px" y="0px"
	 viewBox="0 0 512 512" style="enable-background:new 0 0 512 512;" xml:space="preserve">
<g>
	<g>
		<path d="M502.857,0H9.143C4.096,0,0,4.096,0,9.143v493.714C0,507.904,4.096,512,9.143,512h493.714
			c5.047,0,9.143-4.096,9.143-9.143V9.143C512,4.096,507.904,0,502.857,0z M493.714,493.714H18.286V18.286h475.429V493.714z"/>
	</g>
</g>
<g>
	<g>
		<path d="M502.857,73.143H356.571c-5.047,0-9.143,4.096-9.143,9.143s4.096,9.143,9.143,9.143h146.286
			c5.047,0,9.143-4.096,9.143-9.143S507.904,73.143,502.857,73.143z"/>
	</g>
</g>
<g>
	<g>
		<path d="M155.429,36.571C140.302,36.571,128,48.873,128,64v36.571C128,115.698,140.302,128,155.429,128
			c15.127,0,27.429-12.302,27.429-27.429V64C182.857,48.873,170.555,36.571,155.429,36.571z M164.571,100.571
			c0,5.042-4.101,9.143-9.143,9.143s-9.143-4.101-9.143-9.143V64c0-5.042,4.101-9.143,9.143-9.143s9.143,4.101,9.143,9.143V100.571z
			"/>
	</g>
</g>
<g>
	<g>
		<path d="M192,36.571c-15.127,0-27.429,12.302-27.429,27.429v36.571C164.571,115.698,176.873,128,192,128
			s27.429-12.302,27.429-27.429V64C219.429,48.873,207.127,36.571,192,36.571z M201.143,100.571c0,5.042-4.101,9.143-9.143,9.143
			s-9.143-4.101-9.143-9.143V64c0-5.042,4.101-9.143,9.143-9.143s9.143,4.101,9.143,9.143V100.571z"/>
	</g>
</g>
<g>
	<g>
		<path d="M228.571,36.571c-15.127,0-27.429,12.302-27.429,27.429v36.571c0,15.127,12.302,27.429,27.429,27.429
			C243.698,128,256,115.698,256,100.571V64C256,48.873,243.698,36.571,228.571,36.571z M237.714,100.571
			c0,5.042-4.101,9.143-9.143,9.143c-5.042,0-9.143-4.101-9.143-9.143V64c0-5.042,4.101-9.143,9.143-9.143
			c5.042,0,9.143,4.101,9.143,9.143V100.571z"/>
	</g>
</g>
<g>
	<g>
		<path d="M265.143,36.571c-15.127,0-27.429,12.302-27.429,27.429v36.571c0,15.127,12.302,27.429,27.429,27.429
			c15.127,0,27.429-12.302,27.429-27.429V64C292.571,48.873,280.27,36.571,265.143,36.571z M274.286,100.571
			c0,5.042-4.101,9.143-9.143,9.143S256,105.614,256,100.571V64c0-5.042,4.101-9.143,9.143-9.143s9.143,4.101,9.143,9.143V100.571z"
			/>
	</g>
</g>
<g>
	<g>
		<path d="M301.714,36.571c-15.127,0-27.429,12.302-27.429,27.429v36.571c0,15.127,12.302,27.429,27.429,27.429
			s27.429-12.302,27.429-27.429V64C329.143,48.873,316.841,36.571,301.714,36.571z M310.857,100.571
			c0,5.042-4.101,9.143-9.143,9.143c-5.042,0-9.143-4.101-9.143-9.143V64c0-5.042,4.101-9.143,9.143-9.143
			c5.042,0,9.143,4.101,9.143,9.143V100.571z"/>
	</g>
</g>
<g>
	<g>
		<path d="M338.286,36.571c-15.127,0-27.429,12.302-27.429,27.429v36.571c0,15.127,12.302,27.429,27.429,27.429
			c15.127,0,27.429-12.302,27.429-27.429V64C365.714,48.873,353.413,36.571,338.286,36.571z M347.429,100.571
			c0,5.042-4.101,9.143-9.143,9.143c-5.042,0-9.143-4.101-9.143-9.143V64c0-5.042,4.101-9.143,9.143-9.143
			c5.042,0,9.143,4.101,9.143,9.143V100.571z"/>
	</g>
</g>
<g>
	<g>
		<path d="M502.857,182.857h-82.286c-5.047,0-9.143,4.096-9.143,9.143s4.096,9.143,9.143,9.143h82.286
			c5.047,0,9.143-4.096,9.143-9.143S507.904,182.857,502.857,182.857z"/>
	</g>
</g>
<g>
	<g>
		<path d="M347.429,182.857h-64c-5.047,0-9.143,4.096-9.143,9.143s4.096,9.143,9.143,9.143h64c5.047,0,9.143-4.096,9.143-9.143
			S352.475,182.857,347.429,182.857z"/>
	</g>
</g>
<g>
	<g>
		<path d="M91.429,146.286C76.302,146.286,64,158.587,64,173.714v36.571c0,15.127,12.302,27.429,27.429,27.429
			c15.127,0,27.429-12.302,27.429-27.429v-36.571C118.857,158.587,106.555,146.286,91.429,146.286z M100.571,210.286
			c0,5.042-4.101,9.143-9.143,9.143s-9.143-4.101-9.143-9.143v-36.571c0-5.042,4.101-9.143,9.143-9.143s9.143,4.101,9.143,9.143
			V210.286z"/>
	</g>
</g>
<g>
	<g>
		<path d="M128,146.286c-15.127,0-27.429,12.302-27.429,27.429v36.571c0,15.127,12.302,27.429,27.429,27.429
			c15.127,0,27.429-12.302,27.429-27.429v-36.571C155.429,158.587,143.127,146.286,128,146.286z M137.143,210.286
			c0,5.042-4.101,9.143-9.143,9.143s-9.143-4.101-9.143-9.143v-36.571c0-5.042,4.101-9.143,9.143-9.143s9.143,4.101,9.143,9.143
			V210.286z"/>
	</g>
</g>
<g>
	<g>
		<path d="M228.571,146.286c-15.127,0-27.429,12.302-27.429,27.429v36.571c0,15.127,12.302,27.429,27.429,27.429
			c15.127,0,27.429-12.302,27.429-27.429v-36.571C256,158.587,243.698,146.286,228.571,146.286z M237.714,210.286
			c0,5.042-4.101,9.143-9.143,9.143c-5.042,0-9.143-4.101-9.143-9.143v-36.571c0-5.042,4.101-9.143,9.143-9.143
			c5.042,0,9.143,4.101,9.143,9.143V210.286z"/>
	</g>
</g>
<g>
	<g>
		<path d="M265.143,146.286c-15.127,0-27.429,12.302-27.429,27.429v36.571c0,15.127,12.302,27.429,27.429,27.429
			c15.127,0,27.429-12.302,27.429-27.429v-36.571C292.571,158.587,280.27,146.286,265.143,146.286z M274.286,210.286
			c0,5.042-4.101,9.143-9.143,9.143S256,215.328,256,210.286v-36.571c0-5.042,4.101-9.143,9.143-9.143s9.143,4.101,9.143,9.143
			V210.286z"/>
	</g>
</g>
<g>
	<g>
		<path d="M365.714,146.286c-15.127,0-27.429,12.302-27.429,27.429v36.571c0,15.127,12.302,27.429,27.429,27.429
			s27.429-12.302,27.429-27.429v-36.571C393.143,158.587,380.841,146.286,365.714,146.286z M374.857,210.286
			c0,5.042-4.101,9.143-9.143,9.143c-5.042,0-9.143-4.101-9.143-9.143v-36.571c0-5.042,4.101-9.143,9.143-9.143
			c5.042,0,9.143,4.101,9.143,9.143V210.286z"/>
	</g>
</g>
<g>
	<g>
		<path d="M402.286,146.286c-15.127,0-27.429,12.302-27.429,27.429v36.571c0,15.127,12.302,27.429,27.429,27.429
			c15.127,0,27.429-12.302,27.429-27.429v-36.571C429.714,158.587,417.413,146.286,402.286,146.286z M411.429,210.286
			c0,5.042-4.101,9.143-9.143,9.143c-5.042,0-9.143-4.101-9.143-9.143v-36.571c0-5.042,4.101-9.143,9.143-9.143
			c5.042,0,9.143,4.101,9.143,9.143V210.286z"/>
	</g>
</g>
<g>
	<g>
		<path d="M502.857,292.571h-82.286c-5.047,0-9.143,4.096-9.143,9.143c0,5.047,4.096,9.143,9.143,9.143h82.286
			c5.047,0,9.143-4.096,9.143-9.143C512,296.667,507.904,292.571,502.857,292.571z"/>
	</g>
</g>
<g>
	<g>
		<path d="M128,256c-15.127,0-27.429,12.302-27.429,27.429V320c0,15.127,12.302,27.429,27.429,27.429
			c15.127,0,27.429-12.302,27.429-27.429v-36.571C155.429,268.302,143.127,256,128,256z M137.143,320
			c0,5.042-4.101,9.143-9.143,9.143s-9.143-4.101-9.143-9.143v-36.571c0-5.042,4.101-9.143,9.143-9.143s9.143,4.101,9.143,9.143V320
			z"/>
	</g>
</g>
<g>
	<g>
		<path d="M329.143,256c-15.127,0-27.429,12.302-27.429,27.429V320c0,15.127,12.302,27.429,27.429,27.429
			s27.429-12.302,27.429-27.429v-36.571C356.571,268.302,344.27,256,329.143,256z M338.286,320c0,5.042-4.101,9.143-9.143,9.143
			c-5.042,0-9.143-4.101-9.143-9.143v-36.571c0-5.042,4.101-9.143,9.143-9.143c5.042,0,9.143,4.101,9.143,9.143V320z"/>
	</g>
</g>
<g>
	<g>
		<path d="M365.714,256c-15.127,0-27.429,12.302-27.429,27.429V320c0,15.127,12.302,27.429,27.429,27.429
			s27.429-12.302,27.429-27.429v-36.571C393.143,268.302,380.841,256,365.714,256z M374.857,320c0,5.042-4.101,9.143-9.143,9.143
			c-5.042,0-9.143-4.101-9.143-9.143v-36.571c0-5.042,4.101-9.143,9.143-9.143c5.042,0,9.143,4.101,9.143,9.143V320z"/>
	</g>
</g>
<g>
	<g>
		<path d="M402.286,256c-15.127,0-27.429,12.302-27.429,27.429V320c0,15.127,12.302,27.429,27.429,27.429
			c15.127,0,27.429-12.302,27.429-27.429v-36.571C429.714,268.302,417.413,256,402.286,256z M411.429,320
			c0,5.042-4.101,9.143-9.143,9.143c-5.042,0-9.143-4.101-9.143-9.143v-36.571c0-5.042,4.101-9.143,9.143-9.143
			c5.042,0,9.143,4.101,9.143,9.143V320z"/>
	</g>
</g>
<g>
	<g>
		<path d="M137.143,402.286h-128c-5.047,0-9.143,4.096-9.143,9.143s4.096,9.143,9.143,9.143h128c5.047,0,9.143-4.096,9.143-9.143
			S142.19,402.286,137.143,402.286z"/>
	</g>
</g>
<g>
	<g>
		<path d="M347.429,402.286H246.857c-5.047,0-9.143,4.096-9.143,9.143s4.096,9.143,9.143,9.143h100.571
			c5.047,0,9.143-4.096,9.143-9.143S352.475,402.286,347.429,402.286z"/>
	</g>
</g>
<g>
	<g>
		<path d="M502.857,402.286h-82.286c-5.047,0-9.143,4.096-9.143,9.143s4.096,9.143,9.143,9.143h82.286
			c5.047,0,9.143-4.096,9.143-9.143S507.904,402.286,502.857,402.286z"/>
	</g>
</g>
<g>
	<g>
		<path d="M155.429,365.714c-15.127,0-27.429,12.302-27.429,27.429v36.571c0,15.127,12.302,27.429,27.429,27.429
			c15.127,0,27.429-12.302,27.429-27.429v-36.571C182.857,378.016,170.555,365.714,155.429,365.714z M164.571,429.714
			c0,5.042-4.101,9.143-9.143,9.143s-9.143-4.101-9.143-9.143v-36.571c0-5.042,4.101-9.143,9.143-9.143s9.143,4.101,9.143,9.143
			V429.714z"/>
	</g>
</g>
<g>
	<g>
		<path d="M192,365.714c-15.127,0-27.429,12.302-27.429,27.429v36.571c0,15.127,12.302,27.429,27.429,27.429
			s27.429-12.302,27.429-27.429v-36.571C219.429,378.016,207.127,365.714,192,365.714z M201.143,429.714
			c0,5.042-4.101,9.143-9.143,9.143s-9.143-4.101-9.143-9.143v-36.571c0-5.042,4.101-9.143,9.143-9.143s9.143,4.101,9.143,9.143
			V429.714z"/>
	</g>
</g>
<g>
	<g>
		<path d="M228.571,365.714c-15.127,0-27.429,12.302-27.429,27.429v36.571c0,15.127,12.302,27.429,27.429,27.429
			c15.127,0,27.429-12.302,27.429-27.429v-36.571C256,378.016,243.698,365.714,228.571,365.714z M237.714,429.714
			c0,5.042-4.101,9.143-9.143,9.143c-5.042,0-9.143-4.101-9.143-9.143v-36.571c0-5.042,4.101-9.143,9.143-9.143
			c5.042,0,9.143,4.101,9.143,9.143V429.714z"/>
	</g>
</g>
<g>
	<g>
		<path d="M365.714,365.714c-15.127,0-27.429,12.302-27.429,27.429v36.571c0,15.127,12.302,27.429,27.429,27.429
			s27.429-12.302,27.429-27.429v-36.571C393.143,378.016,380.841,365.714,365.714,365.714z M374.857,429.714
			c0,5.042-4.101,9.143-9.143,9.143c-5.042,0-9.143-4.101-9.143-9.143v-36.571c0-5.042,4.101-9.143,9.143-9.143
			c5.042,0,9.143,4.101,9.143,9.143V429.714z"/>
	</g>
</g>
<g>
	<g>
		<path d="M402.286,365.714c-15.127,0-27.429,12.302-27.429,27.429v36.571c0,15.127,12.302,27.429,27.429,27.429
			c15.127,0,27.429-12.302,27.429-27.429v-36.571C429.714,378.016,417.413,365.714,402.286,365.714z M411.429,429.714
			c0,5.042-4.101,9.143-9.143,9.143c-5.042,0-9.143-4.101-9.143-9.143v-36.571c0-5.042,4.101-9.143,9.143-9.143
			c5.042,0,9.143,4.101,9.143,9.143V429.714z"/>
	</g>
</g>
<g>
	<g>
		<path d="M137.143,73.143h-128C4.096,73.143,0,77.239,0,82.286s4.096,9.143,9.143,9.143h128c5.047,0,9.143-4.096,9.143-9.143
			S142.19,73.143,137.143,73.143z"/>
	</g>
</g>
<g>
	<g>
		<path d="M210.286,182.857h-64c-5.047,0-9.143,4.096-9.143,9.143s4.096,9.143,9.143,9.143h64c5.047,0,9.143-4.096,9.143-9.143
			S215.333,182.857,210.286,182.857z"/>
	</g>
</g>
<g>
	<g>
		<path d="M73.143,182.857h-64C4.096,182.857,0,186.953,0,192s4.096,9.143,9.143,9.143h64c5.047,0,9.143-4.096,9.143-9.143
			S78.19,182.857,73.143,182.857z"/>
	</g>
</g>
<g>
	<g>
		<path d="M310.857,292.571H146.286c-5.047,0-9.143,4.096-9.143,9.143c0,5.047,4.096,9.143,9.143,9.143h164.571
			c5.047,0,9.143-4.096,9.143-9.143C320,296.667,315.904,292.571,310.857,292.571z"/>
	</g>
</g>
<g>
	<g>
		<path d="M109.714,292.571H9.143c-5.047,0-9.143,4.096-9.143,9.143c0,5.047,4.096,9.143,9.143,9.143h100.571
			c5.047,0,9.143-4.096,9.143-9.143C118.857,296.667,114.761,292.571,109.714,292.571z"/>
	</g>
</g>
<g>
</g>
<g>
</g>
<g>
</g>
<g>
</g>
<g>
</g>
<g>
</g>
<g>
</g>
<g>
</g>
<g>
</g>
<g>
</g>
<g>
</g>
<g>
</g>
<g>
</g>
<g>
</g>
<g>
</g>
</svg>
