<?xml version="1.0" encoding="iso-8859-1"?>
<!-- Generator: Adobe Illustrator 19.0.0, SVG Export Plug-In . SVG Version: 6.00 Build 0)  -->
<svg version="1.1" id="Capa_1" xmlns="http://www.w3.org/2000/svg" xmlns:xlink="http://www.w3.org/1999/xlink" x="0px" y="0px"
	 viewBox="0 0 512 512" style="enable-background:new 0 0 512 512;" xml:space="preserve">
<g>
	<g>
		<path d="M470.289,69.424H41.706C18.71,69.424,0,88.133,0,111.13V381.83c0,4.79,3.888,8.678,8.678,8.678h494.644
			c4.79,0,8.674-3.888,8.674-8.678V111.13C511.996,88.133,493.286,69.424,470.289,69.424z M17.356,373.152V111.13
			c0-13.425,10.926-24.35,24.35-24.35h428.583c13.425,0,24.35,10.926,24.35,24.35l0.004,262.023H17.356z"/>
	</g>
</g>
<g>
	<g>
		<path d="M503.322,373.152H8.678c-4.79,0-8.678,3.888-8.678,8.678v52.068c0,4.79,3.888,8.678,8.678,8.678h494.644
			c4.79,0,8.678-3.888,8.678-8.678V381.83C512,377.04,508.112,373.152,503.322,373.152z M494.644,425.22H17.356v-34.712h477.288
			V425.22z"/>
	</g>
</g>
<g>
	<g>
		<path d="M451.254,121.491H234.305c-3.614,0-6.856,2.243-8.123,5.632l-72.318,192.842l-51.295-73.281
			c-1.627-2.321-4.278-3.701-7.112-3.701H60.746c-4.79,0-8.678,3.888-8.678,8.678s3.888,8.678,8.678,8.678h30.191l58.16,83.074
			c1.636,2.343,4.3,3.706,7.107,3.706c0.36,0,0.725-0.022,1.093-0.069c3.193-0.408,5.901-2.547,7.034-5.563l75.989-202.639h210.935
			c4.79,0,8.678-3.888,8.678-8.678C459.932,125.379,456.044,121.491,451.254,121.491z"/>
	</g>
</g>
<g>
	<g>
		<path d="M366.271,293.254l-82.441-82.441c-3.389-3.389-8.882-3.389-12.271,0s-3.389,8.882,0,12.271L354,305.525
			c1.697,1.697,3.914,2.543,6.135,2.543c2.222,0,4.439-0.846,6.135-2.543C369.66,302.136,369.66,296.643,366.271,293.254z"/>
	</g>
</g>
<g>
	<g>
		<path d="M366.271,210.814c-3.389-3.389-8.882-3.389-12.271,0l-82.441,82.441c-3.389,3.389-3.389,8.882,0,12.271
			c1.697,1.697,3.914,2.543,6.135,2.543c2.222,0,4.439-0.846,6.135-2.543l82.441-82.441
			C369.66,219.696,369.66,214.203,366.271,210.814z"/>
	</g>
</g>
<g>
</g>
<g>
</g>
<g>
</g>
<g>
</g>
<g>
</g>
<g>
</g>
<g>
</g>
<g>
</g>
<g>
</g>
<g>
</g>
<g>
</g>
<g>
</g>
<g>
</g>
<g>
</g>
<g>
</g>
</svg>
