<?xml version="1.0" encoding="iso-8859-1"?>
<!-- Generator: Adobe Illustrator 19.0.0, SVG Export Plug-In . SVG Version: 6.00 Build 0)  -->
<svg version="1.1" id="Capa_1" xmlns="http://www.w3.org/2000/svg" xmlns:xlink="http://www.w3.org/1999/xlink" x="0px" y="0px"
	 viewBox="0 0 511.997 511.997" style="enable-background:new 0 0 511.997 511.997;" xml:space="preserve">
<g>
	<g>
		<path d="M493.998,73.885l-38.065-38.021c-18.289-18.27-48.049-18.27-66.339,0L116.487,308.622c-1.851,1.846-2.89,4.352-2.89,6.966
			s1.039,5.12,2.89,6.966l90.491,90.378c1.92,1.92,4.441,2.88,6.956,2.88s5.036-0.965,6.956-2.88l273.108-272.763
			c8.866-8.847,13.745-20.618,13.745-33.137C507.744,94.512,502.865,82.736,493.998,73.885z M480.086,126.237L213.934,392.048
			l-76.559-76.46L403.512,49.796c10.614-10.604,27.894-10.604,38.508,0l38.065,38.021c5.14,5.135,7.966,11.958,7.966,19.215
			C488.051,114.283,485.225,121.107,480.086,126.237z"/>
	</g>
</g>
<g>
	<g>
		<path d="M450.597,169.58l-90.491-90.378c-3.845-3.84-10.068-3.84-13.913,0l-41.762,41.713c-1.851,1.846-2.89,4.352-2.89,6.966
			c0,2.614,1.039,5.12,2.89,6.966l90.491,90.383c1.925,1.92,4.436,2.88,6.956,2.88c2.516,0,5.031-0.96,6.956-2.885l41.763-41.713
			c1.851-1.846,2.89-4.352,2.89-6.966C453.486,173.932,452.448,171.426,450.597,169.58z M401.878,204.346l-76.559-76.465
			l27.83-27.796l76.559,76.465L401.878,204.346z"/>
	</g>
</g>
<g>
	<g>
		<path d="M135.909,431.925c-3.372-4.268-9.566-5.007-13.829-1.625l-44.214,34.91l-44.997-1.502l60.51-60.426
			c3.845-3.84,3.85-10.078,0.005-13.922c-3.845-3.85-10.078-3.845-13.927-0.01L2.887,465.826c-2.777,2.772-3.638,6.927-2.201,10.575
			c1.438,3.658,4.908,6.105,8.827,6.233l71.296,2.378c0.113,0.005,0.222,0.005,0.33,0.005c2.21,0,4.362-0.743,6.1-2.117
			l47.04-37.145C138.552,442.382,139.281,436.194,135.909,431.925z"/>
	</g>
</g>
<g>
	<g>
		<path d="M220.896,398.985l-90.491-90.373c-3.845-3.835-10.073-3.835-13.918,0l-31.916,31.882
			c-8.212,8.207-12.736,19.111-12.736,30.71c0,11.599,4.524,22.503,12.736,30.7l42.949,42.895
			c8.473,8.463,19.599,12.692,30.725,12.692s22.257-4.234,30.735-12.697l31.916-31.877c1.851-1.846,2.89-4.352,2.89-6.966
			C223.785,403.337,222.747,400.831,220.896,398.985z M175.062,430.862c-9.27,9.265-24.359,9.26-33.63,0.005l-42.949-42.9
			c-4.49-4.48-6.961-10.437-6.961-16.768c0-6.336,2.471-12.293,6.961-16.778l24.96-24.926l76.559,76.455L175.062,430.862z"/>
	</g>
</g>
<g>
	<g>
		<path d="M502.151,470.143H157.609c-5.435,0-9.846,4.411-9.846,9.846s4.411,9.846,9.846,9.846h344.542
			c5.435,0,9.846-4.411,9.846-9.846S507.586,470.143,502.151,470.143z"/>
	</g>
</g>
<g>
</g>
<g>
</g>
<g>
</g>
<g>
</g>
<g>
</g>
<g>
</g>
<g>
</g>
<g>
</g>
<g>
</g>
<g>
</g>
<g>
</g>
<g>
</g>
<g>
</g>
<g>
</g>
<g>
</g>
</svg>
