<?xml version="1.0" encoding="iso-8859-1"?>
<!-- Generator: Adobe Illustrator 19.0.0, SVG Export Plug-In . SVG Version: 6.00 Build 0)  -->
<svg version="1.1" id="Capa_1" xmlns="http://www.w3.org/2000/svg" xmlns:xlink="http://www.w3.org/1999/xlink" x="0px" y="0px"
	 viewBox="0 0 511.999 511.999" style="enable-background:new 0 0 511.999 511.999;" xml:space="preserve">
<g>
	<g>
		<path d="M133.47,196.843c-4.831,0-8.752,3.921-8.752,8.752v47.428c0,4.831,3.921,8.752,8.752,8.752
			c4.836,0,8.752-3.921,8.752-8.757v-47.423C142.222,200.764,138.301,196.843,133.47,196.843z"/>
	</g>
</g>
<g>
	<g>
		<path d="M387.282,196.848c-4.831,0-8.752,3.921-8.752,8.752v43.047c0,4.831,3.921,8.752,8.752,8.752
			c4.836,0,8.752-3.921,8.752-8.752V205.6C396.034,200.769,392.113,196.848,387.282,196.848z"/>
	</g>
</g>
<g>
	<g>
		<path d="M387.29,75.009c-4.831,0-8.752,3.921-8.752,8.752v113.646l-111.896,7.466c-7.045,0.468-14.187,0.451-21.22-0.052
			l-103.196-7.374V85.223c0-4.831-3.921-8.752-8.752-8.752s-8.752,3.921-8.752,8.752v120.372c0,4.591,3.549,8.402,8.126,8.73
			l111.323,7.956c4.048,0.289,8.131,0.433,12.218,0.433c3.812,0,7.623-0.122,11.413-0.376l120.071-8.008
			c4.599-0.311,8.17-4.127,8.17-8.735V83.761C396.043,78.93,392.122,75.009,387.29,75.009z"/>
	</g>
</g>
<g>
	<g>
		<path d="M437.93,57.186L258.643,0.411c-1.764-0.56-3.658-0.547-5.409,0.039L82.694,57.229c-3.575,1.19-5.986,4.534-5.986,8.301
			c0,3.768,2.411,7.111,5.986,8.301l170.54,56.775c0.897,0.302,1.834,0.451,2.766,0.451c0.893,0,1.781-0.14,2.643-0.407
			L437.93,73.876c3.641-1.151,6.109-4.529,6.109-8.345S441.571,58.336,437.93,57.186z M256.065,113.103L113.165,65.526
			L256.07,17.954l150.226,47.572L256.065,113.103z"/>
	</g>
</g>
<g>
	<g>
		<path d="M258.026,275.88L74.231,232.101c-2.599-0.608-5.352-0.013-7.452,1.645c-2.101,1.659-3.326,4.188-3.326,6.866v85.36
			c0,4.831,3.921,8.752,8.752,8.752s8.752-3.921,8.752-8.752v-74.275l166.291,39.608v200.862L80.957,452.559v-60.206
			c0-4.831-3.921-8.752-8.752-8.752s-8.752,3.921-8.752,8.752v67.12c0,4.048,2.783,7.575,6.726,8.511l183.795,43.774
			c0.67,0.162,1.348,0.241,2.026,0.241c1.947,0,3.864-0.648,5.422-1.886c2.105-1.659,3.33-4.188,3.33-6.866V284.391
			C264.752,280.343,261.968,276.816,258.026,275.88z"/>
	</g>
</g>
<g>
	<g>
		<path d="M439.799,334.725c4.831,0,8.752-3.921,8.752-8.752v-85.36c0-2.674-1.23-5.208-3.33-6.866
			c-2.096-1.659-4.827-2.262-7.452-1.645L253.973,275.88c-3.943,0.936-6.726,4.459-6.726,8.511v218.856
			c0,2.678,1.225,5.208,3.326,6.866c1.562,1.238,3.479,1.886,5.426,1.886c0.678,0,1.357-0.074,2.031-0.245l183.795-43.774
			c3.943-0.936,6.726-4.459,6.726-8.511v-68.573c0-4.831-3.921-8.752-8.752-8.752s-8.752,3.921-8.752,8.752v61.659l-166.291,39.608
			V291.301l166.291-39.608v74.279C431.047,330.804,434.968,334.725,439.799,334.725z"/>
	</g>
</g>
<g>
	<g>
		<path d="M87.779,319.413H56.63c-10.717,0-19.434,8.717-19.434,19.43v39.914c0,10.717,8.717,19.434,19.434,19.434h31.149
			c10.717,0,19.434-8.717,19.434-19.434v-39.914C107.213,328.13,98.496,319.413,87.779,319.413z M89.709,378.757
			c0,1.063-0.866,1.93-1.93,1.93H56.63c-1.063,0-1.93-0.867-1.93-1.93v-39.914c0-1.063,0.866-1.925,1.93-1.925h31.149
			c1.063,0,1.93,0.862,1.93,1.925V378.757z"/>
	</g>
</g>
<g>
	<g>
		<path d="M455.369,319.413h-31.144c-10.717,0-19.434,8.717-19.434,19.43v39.914c0,10.717,8.717,19.434,19.434,19.434h31.144
			c10.717,0,19.434-8.717,19.434-19.434v-39.914C474.803,328.13,466.086,319.413,455.369,319.413z M457.299,378.757
			c0,1.063-0.867,1.93-1.93,1.93h-31.144c-1.063,0-1.93-0.867-1.93-1.93v-39.914c0-1.063,0.867-1.925,1.93-1.925h31.144
			c1.063,0,1.93,0.862,1.93,1.925V378.757z"/>
	</g>
</g>
<g>
</g>
<g>
</g>
<g>
</g>
<g>
</g>
<g>
</g>
<g>
</g>
<g>
</g>
<g>
</g>
<g>
</g>
<g>
</g>
<g>
</g>
<g>
</g>
<g>
</g>
<g>
</g>
<g>
</g>
</svg>
