<?xml version="1.0" encoding="iso-8859-1"?>
<!-- Generator: Adobe Illustrator 19.0.0, SVG Export Plug-In . SVG Version: 6.00 Build 0)  -->
<svg version="1.1" id="Capa_1" xmlns="http://www.w3.org/2000/svg" xmlns:xlink="http://www.w3.org/1999/xlink" x="0px" y="0px"
	 viewBox="0 0 512 512" style="enable-background:new 0 0 512 512;" xml:space="preserve">
<g>
	<g>
		<path d="M470.289,30.373H41.706C18.71,30.373,0,49.083,0,72.079V342.78c0,4.79,3.888,8.678,8.678,8.678h266.578
			c4.79,0,8.678-3.888,8.678-8.678s-3.888-8.678-8.678-8.678h-257.9V72.079c0-13.425,10.926-24.35,24.35-24.35h428.583
			c13.425,0,24.35,10.926,24.35,24.35v262.023H435.4c-4.79,0-8.678,3.888-8.678,8.678s3.888,8.678,8.678,8.678h67.918
			c4.795,0,8.678-3.888,8.678-8.678V72.079C511.996,49.083,493.286,30.373,470.289,30.373z"/>
	</g>
</g>
<g>
	<g>
		<path d="M280.441,334.102H8.678c-4.79,0-8.678,3.888-8.678,8.678v52.068c0,4.79,3.888,8.678,8.678,8.678h206.9
			c4.795,0,8.678-3.888,8.678-8.678s-3.888-8.678-8.678-8.678H17.356v-34.712h263.086c4.79,0,8.678-3.888,8.678-8.678
			S285.232,334.102,280.441,334.102z"/>
	</g>
</g>
<g>
	<g>
		<path d="M503.322,334.102h-70.521c-4.79,0-8.678,3.888-8.678,8.678s3.888,8.678,8.678,8.678h61.844v35.428
			c-3.072,1.336-5.22,4.4-5.22,7.962c0,4.79,3.888,8.678,8.678,8.678h5.22c4.79,0,8.678-3.888,8.678-8.678V342.78
			C512,337.989,508.112,334.102,503.322,334.102z"/>
	</g>
</g>
<g>
	<g>
		<path d="M487.333,270.106l-36.309-154.932c-1.093-4.669-5.775-7.567-10.427-6.469c-4.669,1.093-7.563,5.762-6.469,10.431
			l36.309,154.928c3.549,15.13-2.816,30.616-16.605,40.426l-52.315,37.198c-3.909,2.777-4.825,8.196-2.044,12.101
			c1.692,2.382,4.365,3.649,7.081,3.649c1.74,0,3.497-0.521,5.02-1.605l52.315-37.198
			C483.536,314.663,492.518,292.235,487.333,270.106z"/>
	</g>
</g>
<g>
	<g>
		<path d="M308.966,353.219l-51.204-38.734c-13.789-9.81-20.15-25.296-16.631-40.318l36.313-146.245
			c1.154-4.651-1.684-9.359-6.335-10.513c-4.617-1.167-9.355,1.675-10.513,6.331L224.26,270.097
			c-5.189,22.129,3.797,44.553,23.24,58.377l50.992,38.582c1.566,1.185,3.406,1.757,5.229,1.757c2.629,0,5.224-1.185,6.929-3.436
			C313.544,361.554,312.789,356.109,308.966,353.219z"/>
	</g>
</g>
<g>
	<g>
		<path d="M446.438,360.14l-42.921-8.296c-4.734-0.903-9.259,2.165-10.171,6.873c-0.907,4.708,2.169,9.259,6.873,10.171
			l43.707,8.448c0.542,0.104,1.098,0.156,1.649,0.156c27.058,0,49.07,22.012,49.07,49.07v37.71H216.949v-37.71
			c0-27.058,22.012-49.07,49.07-49.07c0.551,0,1.102-0.052,1.649-0.156l40.261-7.784c4.703-0.911,7.78-5.463,6.873-10.171
			c-0.915-4.703-5.45-7.78-10.171-6.873l-39.476,7.632c-36.231,0.464-65.562,30.082-65.562,66.421v46.388
			c0,4.79,3.888,8.678,8.678,8.678h295.051c4.79,0,8.678-3.888,8.678-8.678v-46.388C512,390.222,482.668,360.6,446.438,360.14z"/>
	</g>
</g>
<g>
	<g>
		<path d="M390.508,308.068h-69.424c-4.79,0-8.678,3.888-8.678,8.678v43.39c0,3.289,1.857,6.292,4.795,7.762
			c12.088,6.04,25.34,9.06,38.595,9.06c13.256,0,26.507-3.02,38.595-9.06c2.938-1.471,4.795-4.474,4.795-7.762v-43.39
			C399.186,311.956,395.299,308.068,390.508,308.068z M381.831,354.543c-16.627,6.764-35.441,6.764-52.068,0v-29.119h52.068V354.543
			z"/>
	</g>
</g>
<g>
	<g>
		<path d="M442.581,117.153c-4.79,0-8.678,3.888-8.678,8.678V280.88c0,14.991-12.197,27.188-27.188,27.188H304.887
			c-14.991,0-27.188-12.197-27.188-27.188V175.642c0-4.79-3.888-8.678-8.678-8.678c-4.79,0-8.678,3.888-8.678,8.678V280.88
			c0,24.563,19.985,44.544,44.544,44.544H406.71c24.563,0,44.544-19.981,44.548-44.544V125.831
			C451.259,121.04,447.371,117.153,442.581,117.153z"/>
	</g>
</g>
<g>
	<g>
		<path d="M442.576,82.441H305.178c-24.724,0-44.839,20.116-44.839,44.839v50.619c0,4.79,3.888,8.678,8.678,8.678h114.237
			c37.497,0,68-30.503,68-68.001V91.119C451.254,86.328,447.367,82.441,442.576,82.441z M433.898,118.576
			c0,27.926-22.719,50.645-50.645,50.645H277.695V127.28c0-15.156,12.331-27.483,27.483-27.483h128.72V118.576z"/>
	</g>
</g>
<g>
	<g>
		<path d="M216.949,91.119H52.068c-4.79,0-8.678,3.888-8.678,8.678c0,4.79,3.888,8.678,8.678,8.678h164.881
			c4.79,0,8.678-3.888,8.678-8.678C225.627,95.006,221.739,91.119,216.949,91.119z"/>
	</g>
</g>
<g>
	<g>
		<path d="M182.237,160.542H52.068c-4.79,0-8.678,3.888-8.678,8.678s3.888,8.678,8.678,8.678h130.169
			c4.79,0,8.678-3.888,8.678-8.678S187.028,160.542,182.237,160.542z"/>
	</g>
</g>
<g>
	<g>
		<path d="M121.492,125.831H52.068c-4.79,0-8.678,3.888-8.678,8.678s3.888,8.678,8.678,8.678h69.424c4.79,0,8.678-3.888,8.678-8.678
			S126.282,125.831,121.492,125.831z"/>
	</g>
</g>
<g>
	<g>
		<path d="M269.017,125.831H156.203c-4.79,0-8.678,3.888-8.678,8.678s3.888,8.678,8.678,8.678h112.814
			c4.79,0,8.678-3.888,8.678-8.678S273.807,125.831,269.017,125.831z"/>
	</g>
</g>
<g>
</g>
<g>
</g>
<g>
</g>
<g>
</g>
<g>
</g>
<g>
</g>
<g>
</g>
<g>
</g>
<g>
</g>
<g>
</g>
<g>
</g>
<g>
</g>
<g>
</g>
<g>
</g>
<g>
</g>
</svg>
