<?xml version="1.0" encoding="iso-8859-1"?>
<!-- Generator: Adobe Illustrator 19.0.0, SVG Export Plug-In . SVG Version: 6.00 Build 0)  -->
<svg version="1.1" id="Capa_1" xmlns="http://www.w3.org/2000/svg" xmlns:xlink="http://www.w3.org/1999/xlink" x="0px" y="0px"
	 viewBox="0 0 512 512" style="enable-background:new 0 0 512 512;" xml:space="preserve">
<g>
	<g>
		<path d="M416.121,290.651c-4.79,0-8.678,3.888-8.678,8.678v109.794l-118.103,18.653c-25.257,3.983-50.853,3.879-76.075-0.325
			L103.71,409.188V300.973c0-4.79-3.888-8.678-8.678-8.678s-8.678,3.888-8.678,8.678v115.564c0,4.244,3.068,7.867,7.25,8.561
			l116.805,19.469c13.893,2.313,27.891,3.476,41.893,3.476c13.273,0,26.546-1.041,39.745-3.12l125.427-19.807
			c4.217-0.668,7.324-4.304,7.324-8.574V299.329C424.799,294.539,420.912,290.651,416.121,290.651z"/>
	</g>
</g>
<g>
	<g>
		<path d="M496.952,269.329l-243.833-67.332c-1.54-0.425-3.167-0.417-4.712,0.026L14.952,269.355
			c-3.719,1.072-6.274,4.473-6.274,8.339c0,3.866,2.556,7.268,6.274,8.34l233.455,67.328c0.785,0.226,1.592,0.338,2.404,0.338
			c0.777,0,1.553-0.104,2.308-0.312l243.833-67.328c3.762-1.041,6.37-4.46,6.37-8.366
			C503.322,273.79,500.714,270.366,496.952,269.329z M250.863,336.006L48.67,277.695l202.192-58.316l211.178,58.316L250.863,336.006
			z"/>
	</g>
</g>
<g>
	<g>
		<path d="M450.829,286.373c-4.79,0-8.678,3.888-8.678,8.678v156.203c0,4.79,3.888,8.678,8.678,8.678
			c4.795,0,8.678-3.888,8.678-8.678V295.051C459.507,290.26,455.619,286.373,450.829,286.373z"/>
	</g>
</g>
<g>
	<g>
		<path d="M450.829,442.576c-19.139,0-34.712,15.573-34.712,34.712S431.69,512,450.829,512c19.139,0,34.712-15.573,34.712-34.712
			S469.968,442.576,450.829,442.576z M450.829,494.644c-9.572,0-17.356-7.784-17.356-17.356c0-9.572,7.784-17.356,17.356-17.356
			c9.572,0,17.356,7.784,17.356,17.356C468.185,486.86,460.401,494.644,450.829,494.644z"/>
	</g>
</g>
<g>
	<g>
		<path d="M359.71,130.169h-162.3c-4.79,0-8.678,3.888-8.678,8.678c0,4.79,3.888,8.678,8.678,8.678h162.3
			c4.795,0,8.678-3.888,8.678-8.678C368.388,134.057,364.501,130.169,359.71,130.169z"/>
	</g>
</g>
<g>
	<g>
		<path d="M194.616,87.821c-2.803-1.514-6.213-1.367-8.882,0.378L120.65,130.85c-2.447,1.605-3.922,4.335-3.922,7.259
			c0,2.924,1.475,5.654,3.922,7.259l65.085,42.652c1.441,0.942,3.094,1.419,4.756,1.419c1.414,0,2.833-0.347,4.126-1.041
			c2.803-1.519,4.552-4.447,4.552-7.637V95.457C199.168,92.268,197.419,89.339,194.616,87.821z M181.812,164.699l-40.574-26.589
			l40.574-26.594V164.699z"/>
	</g>
</g>
<g>
	<g>
		<path d="M359.71,43.39H110.631c-4.79,0-8.678,3.888-8.678,8.678s3.888,8.678,8.678,8.678H359.71c4.795,0,8.678-3.888,8.678-8.678
			S364.501,43.39,359.71,43.39z"/>
	</g>
</g>
<g>
	<g>
		<path d="M107.837,1.041c-2.803-1.514-6.213-1.367-8.882,0.377L33.87,44.071c-2.447,1.605-3.922,4.335-3.922,7.259
			c0,2.924,1.475,5.654,3.922,7.259l65.085,42.652c1.441,0.942,3.094,1.419,4.756,1.419c1.414,0,2.833-0.347,4.126-1.041
			c2.803-1.519,4.552-4.447,4.552-7.637V8.678C112.388,5.489,110.64,2.56,107.837,1.041z M95.032,77.919L54.458,51.33l40.574-26.594
			V77.919z"/>
	</g>
</g>
<g>
</g>
<g>
</g>
<g>
</g>
<g>
</g>
<g>
</g>
<g>
</g>
<g>
</g>
<g>
</g>
<g>
</g>
<g>
</g>
<g>
</g>
<g>
</g>
<g>
</g>
<g>
</g>
<g>
</g>
</svg>
