<?xml version="1.0" encoding="iso-8859-1"?>
<!-- Generator: Adobe Illustrator 19.0.0, SVG Export Plug-In . SVG Version: 6.00 Build 0)  -->
<svg version="1.1" id="Capa_1" xmlns="http://www.w3.org/2000/svg" xmlns:xlink="http://www.w3.org/1999/xlink" x="0px" y="0px"
	 viewBox="0 0 512 512" style="enable-background:new 0 0 512 512;" xml:space="preserve">
<g>
	<g>
		<path d="M413.453,296.597c-4.71,0-8.533,3.823-8.533,8.533v105.711l-116.134,18.342c-24.836,3.921-50.005,3.81-74.808-0.32
			l-107.729-17.958V305.131c0-4.71-3.823-8.533-8.533-8.533s-8.533,3.823-8.533,8.533v113.003c0,4.173,3.017,7.735,7.13,8.418
			l114.859,19.145c13.662,2.274,27.426,3.418,41.195,3.418c13.052,0,26.108-1.024,39.083-3.072l123.337-19.477
			c4.147-0.657,7.202-4.232,7.202-8.431V305.131C421.986,300.42,418.163,296.597,413.453,296.597z"/>
	</g>
</g>
<g>
	<g>
		<path d="M492.937,273.374l-239.77-66.21c-1.515-0.418-3.115-0.414-4.634,0.026L18.97,273.399c-3.657,1.054-6.17,4.399-6.17,8.201
			c0,3.806,2.513,7.147,6.17,8.201l229.564,66.21c0.772,0.222,1.566,0.333,2.364,0.333c0.764,0,1.527-0.107,2.27-0.311
			l239.77-66.206c3.699-1.024,6.263-4.39,6.263-8.226C499.2,277.764,496.636,274.398,492.937,273.374z M250.948,338.94L52.126,281.6
			l198.822-57.344L458.607,281.6L250.948,338.94z"/>
	</g>
</g>
<g>
	<g>
		<path d="M447.582,290.133c-4.71,0-8.533,3.823-8.533,8.533v153.6c0,4.71,3.823,8.533,8.533,8.533c4.715,0,8.533-3.823,8.533-8.533
			v-153.6C456.115,293.956,452.292,290.133,447.582,290.133z"/>
	</g>
</g>
<g>
	<g>
		<path d="M447.582,443.733c-18.82,0-34.133,15.313-34.133,34.133c0,18.82,15.313,34.133,34.133,34.133
			c18.82,0,34.133-15.313,34.133-34.133C481.715,459.046,466.402,443.733,447.582,443.733z M447.582,494.933
			c-9.412,0-17.067-7.654-17.067-17.067s7.654-17.067,17.067-17.067c9.412,0,17.067,7.654,17.067,17.067
			S456.994,494.933,447.582,494.933z"/>
	</g>
</g>
<g>
	<g>
		<path d="M387.849,0c-56.461,0-102.4,45.935-102.4,102.4c0,56.465,45.939,102.4,102.4,102.4c56.465,0,102.4-45.935,102.4-102.4
			C490.249,45.935,444.309,0,387.849,0z M387.849,187.733c-47.053,0-85.333-38.281-85.333-85.333s38.281-85.333,85.333-85.333
			c47.057,0,85.333,38.281,85.333,85.333S434.901,187.733,387.849,187.733z"/>
	</g>
</g>
<g>
	<g>
		<path d="M456.832,81.242c-2.564-7.88-9.574-12.975-17.86-12.975h-23.535c-0.747,0-1.399-0.478-1.621-1.186l-7.27-22.379
			c-2.564-7.885-9.574-12.979-17.86-12.979c-8.294,0-15.3,5.094-17.865,12.979l-7.266,22.383c-0.23,0.708-0.883,1.182-1.63,1.182
			h-23.539c-8.29,0-15.3,5.094-17.873,12.983c-2.556,7.885,0.124,16.124,6.827,20.996l19.038,13.828
			c0.602,0.439,0.853,1.212,0.623,1.92l-7.27,22.379c-2.56,7.881,0.115,16.124,6.818,20.996c6.703,4.868,15.369,4.877,22.084,0.004
			l19.038-13.837c0.602-0.444,1.412-0.44,2.014,0l19.038,13.833c3.354,2.436,7.198,3.656,11.042,3.656
			c3.84,0,7.684-1.22,11.038-3.656c6.707-4.873,9.387-13.112,6.827-20.996l-7.275-22.391c-0.23-0.704,0.021-1.472,0.623-1.907
			l19.038-13.833C456.721,97.365,459.401,89.126,456.832,81.242z M439.983,88.435l-19.042,13.837
			c-6.605,4.804-9.344,13.244-6.818,20.992l7.275,22.387c0.102,0.324,0.38,1.186-0.623,1.916c-1.011,0.73-1.741,0.201-2.018,0
			l-19.038-13.833c-3.302-2.402-7.172-3.601-11.042-3.601c-3.87,0-7.74,1.199-11.034,3.597l-19.034,13.833
			c-0.273,0.201-0.998,0.747-2.022,0c-1.007-0.73-0.725-1.587-0.619-1.916l7.27-22.383c2.513-7.761-0.222-16.196-6.822-20.996
			l-19.042-13.833c-0.277-0.201-1.007-0.73-0.623-1.916s1.289-1.186,1.63-1.186h23.539c8.162,0,15.343-5.214,17.86-12.975
			l7.266-22.383c0.107-0.324,0.384-1.186,1.63-1.186c1.242,0,1.523,0.862,1.626,1.186l7.275,22.387
			c2.526,7.757,9.702,12.971,17.86,12.971h23.535c0.341,0,1.246,0,1.634,1.186C440.99,87.706,440.256,88.239,439.983,88.435z"/>
	</g>
</g>
<g>
</g>
<g>
</g>
<g>
</g>
<g>
</g>
<g>
</g>
<g>
</g>
<g>
</g>
<g>
</g>
<g>
</g>
<g>
</g>
<g>
</g>
<g>
</g>
<g>
</g>
<g>
</g>
<g>
</g>
</svg>
