<?xml version="1.0" encoding="iso-8859-1"?>
<!-- Generator: Adobe Illustrator 19.0.0, SVG Export Plug-In . SVG Version: 6.00 Build 0)  -->
<svg version="1.1" id="Capa_1" xmlns="http://www.w3.org/2000/svg" xmlns:xlink="http://www.w3.org/1999/xlink" x="0px" y="0px"
	 viewBox="0 0 512 512" style="enable-background:new 0 0 512 512;" xml:space="preserve">
<g>
	<g>
		<path d="M413.453,296.849c-4.71,0-8.533,3.823-8.533,8.533v105.459l-116.134,18.342c-24.836,3.921-50.005,3.81-74.808-0.32
			l-107.729-17.958v-104.26c0-4.71-3.823-8.533-8.533-8.533s-8.533,3.823-8.533,8.533v111.488c0,4.173,3.017,7.735,7.13,8.418
			l114.859,19.145c13.662,2.274,27.426,3.418,41.195,3.418c13.052,0,26.108-1.024,39.083-3.072l123.337-19.477
			c4.147-0.657,7.202-4.232,7.202-8.431V305.382C421.986,300.672,418.163,296.849,413.453,296.849z"/>
	</g>
</g>
<g>
	<g>
		<path d="M492.937,273.374l-239.77-66.21c-1.515-0.418-3.115-0.414-4.634,0.026L18.97,273.399c-3.657,1.054-6.17,4.399-6.17,8.201
			c0,3.806,2.513,7.147,6.17,8.201l229.564,66.21c0.772,0.222,1.566,0.333,2.364,0.333c0.764,0,1.527-0.107,2.27-0.311
			l239.77-66.206c3.699-1.024,6.263-4.39,6.263-8.226C499.2,277.764,496.636,274.398,492.937,273.374z M250.948,338.94L52.126,281.6
			l198.822-57.344L458.607,281.6L250.948,338.94z"/>
	</g>
</g>
<g>
	<g>
		<path d="M447.582,290.133c-4.71,0-8.533,3.823-8.533,8.533v153.6c0,4.71,3.823,8.533,8.533,8.533c4.715,0,8.533-3.823,8.533-8.533
			v-153.6C456.115,293.956,452.292,290.133,447.582,290.133z"/>
	</g>
</g>
<g>
	<g>
		<path d="M447.582,443.733c-18.82,0-34.133,15.313-34.133,34.133c0,18.82,15.313,34.133,34.133,34.133
			c18.82,0,34.133-15.313,34.133-34.133C481.715,459.046,466.402,443.733,447.582,443.733z M447.582,494.933
			c-9.412,0-17.067-7.654-17.067-17.067s7.654-17.067,17.067-17.067c9.412,0,17.067,7.654,17.067,17.067
			S456.994,494.933,447.582,494.933z"/>
	</g>
</g>
<g>
	<g>
		<path d="M387.849,0c-56.461,0-102.4,45.935-102.4,102.4c0,56.465,45.939,102.4,102.4,102.4c56.465,0,102.4-45.935,102.4-102.4
			C490.249,45.935,444.309,0,387.849,0z M387.849,187.733c-47.053,0-85.333-38.281-85.333-85.333s38.281-85.333,85.333-85.333
			c47.057,0,85.333,38.281,85.333,85.333S434.901,187.733,387.849,187.733z"/>
	</g>
</g>
<g>
	<g>
		<path d="M387.849,42.667c-4.71,0-8.533,3.823-8.533,8.533v102.4c0,4.71,3.823,8.533,8.533,8.533c4.715,0,8.533-3.823,8.533-8.533
			V51.2C396.382,46.49,392.559,42.667,387.849,42.667z"/>
	</g>
</g>
<g>
	<g>
		<path d="M439.049,93.867h-102.4c-4.71,0-8.533,3.823-8.533,8.533c0,4.71,3.823,8.533,8.533,8.533h102.4
			c4.715,0,8.533-3.823,8.533-8.533C447.582,97.69,443.759,93.867,439.049,93.867z"/>
	</g>
</g>
<g>
</g>
<g>
</g>
<g>
</g>
<g>
</g>
<g>
</g>
<g>
</g>
<g>
</g>
<g>
</g>
<g>
</g>
<g>
</g>
<g>
</g>
<g>
</g>
<g>
</g>
<g>
</g>
<g>
</g>
</svg>
