<?xml version="1.0" encoding="iso-8859-1"?>
<!-- Generator: Adobe Illustrator 19.0.0, SVG Export Plug-In . SVG Version: 6.00 Build 0)  -->
<svg version="1.1" id="Capa_1" xmlns="http://www.w3.org/2000/svg" xmlns:xlink="http://www.w3.org/1999/xlink" x="0px" y="0px"
	 viewBox="0 0 512 512" style="enable-background:new 0 0 512 512;" xml:space="preserve">
<g>
	<g>
		<path d="M186.408,48.552H8.828C3.955,48.552,0,52.506,0,57.379v353.103c0,4.873,3.955,8.828,8.828,8.828H256
			c4.873,0,8.828-3.955,8.828-8.828V126.972C264.828,83.73,229.65,48.552,186.408,48.552z M247.172,401.655H17.655V66.207h168.753
			c33.505,0,60.765,27.26,60.765,60.765V401.655z"/>
	</g>
</g>
<g>
	<g>
		<path d="M503.172,48.552h-48.825c-4.873,0-8.828,3.955-8.828,8.828c0,4.873,3.955,8.828,8.828,8.828h39.998v335.448h-43.648
			c-4.873,0-8.828,3.955-8.828,8.828c0,4.873,3.955,8.828,8.828,8.828h52.476c4.873,0,8.828-3.955,8.828-8.828V57.379
			C512,52.506,508.045,48.552,503.172,48.552z"/>
	</g>
</g>
<g>
	<g>
		<path d="M359.199,401.655h-94.371V126.972c0-33.505,27.26-60.765,60.765-60.765h34.838c4.873,0,8.828-3.955,8.828-8.828
			c0-4.873-3.955-8.828-8.828-8.828h-34.838c-43.242,0-78.42,35.178-78.42,78.42v283.511c0,4.873,3.955,8.828,8.828,8.828h103.199
			c4.873,0,8.828-3.955,8.828-8.828C368.026,405.61,364.072,401.655,359.199,401.655z"/>
	</g>
</g>
<g>
	<g>
		<path d="M123.586,83.862H44.138c-4.873,0-8.828,3.955-8.828,8.828v105.931c0,4.873,3.955,8.828,8.828,8.828h79.448
			c4.873,0,8.828-3.955,8.828-8.828V92.69C132.414,87.817,128.459,83.862,123.586,83.862z M114.759,189.793H52.966v-88.276h61.793
			V189.793z"/>
	</g>
</g>
<g>
	<g>
		<path d="M220.69,119.172h-61.793c-4.873,0-8.828,3.955-8.828,8.828c0,4.873,3.955,8.828,8.828,8.828h61.793
			c4.873,0,8.828-3.955,8.828-8.828C229.517,123.127,225.563,119.172,220.69,119.172z"/>
	</g>
</g>
<g>
	<g>
		<path d="M185.379,83.862h-26.483c-4.873,0-8.828,3.955-8.828,8.828c0,4.873,3.955,8.828,8.828,8.828h26.483
			c4.873,0,8.828-3.955,8.828-8.828C194.207,87.817,190.252,83.862,185.379,83.862z"/>
	</g>
</g>
<g>
	<g>
		<path d="M220.69,154.483h-61.793c-4.873,0-8.828,3.955-8.828,8.828c0,4.873,3.955,8.828,8.828,8.828h61.793
			c4.873,0,8.828-3.955,8.828-8.828C229.517,158.438,225.563,154.483,220.69,154.483z"/>
	</g>
</g>
<g>
	<g>
		<path d="M220.69,189.793h-61.793c-4.873,0-8.828,3.955-8.828,8.828c0,4.873,3.955,8.828,8.828,8.828h61.793
			c4.873,0,8.828-3.955,8.828-8.828C229.517,193.748,225.563,189.793,220.69,189.793z"/>
	</g>
</g>
<g>
	<g>
		<path d="M220.69,233.931H44.138c-4.873,0-8.828,3.955-8.828,8.828c0,4.873,3.955,8.828,8.828,8.828H220.69
			c4.873,0,8.828-3.955,8.828-8.828C229.517,237.886,225.563,233.931,220.69,233.931z"/>
	</g>
</g>
<g>
	<g>
		<path d="M220.69,278.069H44.138c-4.873,0-8.828,3.955-8.828,8.828s3.955,8.828,8.828,8.828H220.69
			c4.873,0,8.828-3.955,8.828-8.828C229.517,282.024,225.563,278.069,220.69,278.069z"/>
	</g>
</g>
<g>
	<g>
		<path d="M360.426,436.966H17.655V419.31h341.548c4.873,0,8.828-3.955,8.828-8.828c0-4.873-3.955-8.828-8.828-8.828H8.828
			c-4.873,0-8.828,3.955-8.828,8.828v35.31c0,4.873,3.955,8.828,8.828,8.828h351.598c4.877,0,8.828-3.955,8.828-8.828
			S365.299,436.966,360.426,436.966z"/>
	</g>
</g>
<g>
	<g>
		<path d="M503.172,401.655h-52.48c-4.873,0-8.828,3.955-8.828,8.828c0,4.873,3.955,8.828,8.828,8.828h43.652v17.655h-42.43
			c-4.873,0-8.828,3.955-8.828,8.828s3.955,8.828,8.828,8.828h51.257c4.873,0,8.828-3.955,8.828-8.828v-35.31
			C512,405.61,508.045,401.655,503.172,401.655z"/>
	</g>
</g>
<g>
	<g>
		<path d="M220.69,322.207H44.138c-4.873,0-8.828,3.955-8.828,8.828s3.955,8.828,8.828,8.828H220.69
			c4.873,0,8.828-3.955,8.828-8.828S225.563,322.207,220.69,322.207z"/>
	</g>
</g>
<g>
	<g>
		<path d="M467.862,260.414h-15.951c-4.873,0-8.828,3.955-8.828,8.828c0,4.873,3.955,8.828,8.828,8.828h15.951
			c4.873,0,8.828-3.955,8.828-8.828C476.69,264.369,472.735,260.414,467.862,260.414z"/>
	</g>
</g>
<g>
	<g>
		<path d="M359.203,260.414H291.31c-4.873,0-8.828,3.955-8.828,8.828c0,4.873,3.955,8.828,8.828,8.828h67.893
			c4.873,0,8.828-3.955,8.828-8.828C368.031,264.369,364.076,260.414,359.203,260.414z"/>
	</g>
</g>
<g>
	<g>
		<path d="M361.931,304.552H291.31c-4.873,0-8.828,3.955-8.828,8.828c0,4.873,3.955,8.828,8.828,8.828h70.621
			c4.873,0,8.828-3.955,8.828-8.828C370.759,308.506,366.804,304.552,361.931,304.552z"/>
	</g>
</g>
<g>
	<g>
		<path d="M467.862,348.69h-13.515c-4.873,0-8.828,3.955-8.828,8.828c0,4.873,3.955,8.828,8.828,8.828h13.515
			c4.873,0,8.828-3.955,8.828-8.828C476.69,352.644,472.735,348.69,467.862,348.69z"/>
	</g>
</g>
<g>
	<g>
		<path d="M357.985,348.69H291.31c-4.873,0-8.828,3.955-8.828,8.828c0,4.873,3.955,8.828,8.828,8.828h66.675
			c4.877,0,8.828-3.955,8.828-8.828C366.813,352.644,362.858,348.69,357.985,348.69z"/>
	</g>
</g>
<g>
	<g>
		<path d="M450.207,22.069h-88.276c-4.873,0-8.828,3.955-8.828,8.828v450.207c0,3.668,2.273,6.956,5.703,8.254
			c3.421,1.302,7.305,0.34,9.741-2.41l37.522-42.478l37.522,42.478c1.713,1.938,4.131,2.984,6.616,2.984
			c1.046,0,2.11-0.185,3.125-0.574c3.43-1.298,5.703-4.586,5.703-8.254V30.897C459.034,26.024,455.08,22.069,450.207,22.069z
			 M441.379,457.777l-28.694-32.481c-1.677-1.898-4.087-2.984-6.616-2.984s-4.939,1.086-6.616,2.984l-28.694,32.481V39.724h70.621
			V457.777z"/>
	</g>
</g>
<g>
</g>
<g>
</g>
<g>
</g>
<g>
</g>
<g>
</g>
<g>
</g>
<g>
</g>
<g>
</g>
<g>
</g>
<g>
</g>
<g>
</g>
<g>
</g>
<g>
</g>
<g>
</g>
<g>
</g>
</svg>
