<?xml version="1.0" encoding="iso-8859-1"?>
<!-- Generator: Adobe Illustrator 19.0.0, SVG Export Plug-In . SVG Version: 6.00 Build 0)  -->
<svg version="1.1" id="Capa_1" xmlns="http://www.w3.org/2000/svg" xmlns:xlink="http://www.w3.org/1999/xlink" x="0px" y="0px"
	 viewBox="0 0 512 512" style="enable-background:new 0 0 512 512;" xml:space="preserve">
<g>
	<g>
		<path d="M274.539,244.868c-4.026-2.143-9.022-0.611-11.165,3.415l-49.486,93.089l-13.601-44.821l-44.717,13.655l28.618-53.834
			c2.143-4.03,0.611-9.026-3.415-11.169c-4.034-2.139-9.03-0.611-11.169,3.415l-47.319,89.022l67.006-20.459l20.406,67.266
			l68.257-128.409C280.097,252.007,278.565,247.011,274.539,244.868z"/>
	</g>
</g>
<g>
	<g>
		<path d="M342.466,248.762c-2.139-4.026-7.135-5.549-11.165-3.415c-4.026,2.143-5.558,7.143-3.415,11.169l28.54,53.69
			l-44.713-13.655l-13.601,44.821l-33.631-63.249c-2.139-4.026-7.139-5.562-11.169-3.415c-4.026,2.139-5.558,7.139-3.415,11.165
			l52.406,98.572l20.402-67.27l67.006,20.459L342.466,248.762z"/>
	</g>
</g>
<g>
	<g>
		<path d="M470.71,127.554H41.29c-4.558,0-8.258,3.7-8.258,8.258c0,4.558,3.7,8.258,8.258,8.258H470.71
			c11.718,0,24.774,20.426,24.774,49.734c0,29.308-13.056,49.734-24.774,49.734H41.29c-4.558,0-8.258,3.7-8.258,8.258
			s3.7,8.258,8.258,8.258H470.71c23.151,0,41.29-29.101,41.29-66.25C512,156.655,493.861,127.554,470.71,127.554z"/>
	</g>
</g>
<g>
	<g>
		<path d="M41.29,127.554c-23.151,0-41.29,29.101-41.29,66.25c0,37.149,18.139,66.25,41.29,66.25s41.29-29.101,41.29-66.25
			C82.581,156.655,64.442,127.554,41.29,127.554z M41.29,243.539c-11.718,0-24.774-20.426-24.774-49.734S29.572,144.07,41.29,144.07
			s24.774,20.426,24.774,49.734S53.009,243.539,41.29,243.539z"/>
	</g>
</g>
<g>
	<g>
		<path d="M272.516,127.554H214.71v16.516c11.718,0,24.774,20.426,24.774,49.734c0,29.308-13.056,49.734-24.774,49.734v16.516
			h57.806c23.151,0,41.29-29.101,41.29-66.25C313.806,156.655,295.668,127.554,272.516,127.554z M272.516,243.539h-30.253
			C250.74,231.486,256,213.814,256,193.804s-5.26-37.682-13.737-49.734h30.253c11.718,0,24.774,20.426,24.774,49.734
			C297.29,223.112,284.234,243.539,272.516,243.539z"/>
	</g>
</g>
<g>
</g>
<g>
</g>
<g>
</g>
<g>
</g>
<g>
</g>
<g>
</g>
<g>
</g>
<g>
</g>
<g>
</g>
<g>
</g>
<g>
</g>
<g>
</g>
<g>
</g>
<g>
</g>
<g>
</g>
</svg>
