<?xml version="1.0" encoding="iso-8859-1"?>
<!-- Generator: Adobe Illustrator 19.0.0, SVG Export Plug-In . SVG Version: 6.00 Build 0)  -->
<svg version="1.1" id="Capa_1" xmlns="http://www.w3.org/2000/svg" xmlns:xlink="http://www.w3.org/1999/xlink" x="0px" y="0px"
	 viewBox="0 0 512.003 512.003" style="enable-background:new 0 0 512.003 512.003;" xml:space="preserve">
<g>
	<g>
		<path d="M140.388,185.81c-59.194,0-107.355,48.161-107.355,107.355c0,59.198,48.161,107.355,107.355,107.355
			s107.355-48.161,107.355-107.355S199.582,185.81,140.388,185.81z M140.388,384.004c-50.089,0-90.839-40.749-90.839-90.839
			s40.749-90.839,90.839-90.839s90.839,40.749,90.839,90.839S190.478,384.004,140.388,384.004z"/>
	</g>
</g>
<g>
	<g>
		<path d="M60.075,111.802c-4.377-1.251-8.952,1.288-10.207,5.673L0.319,290.894c-0.714,2.494-0.215,5.174,1.346,7.242
			s4.005,3.287,6.594,3.287h33.032c4.563,0,8.258-3.7,8.258-8.258s-3.7-8.258-8.258-8.258H19.205l46.542-162.899
			C66.999,117.624,64.46,113.053,60.075,111.802z"/>
	</g>
</g>
<g>
	<g>
		<path d="M371.614,185.81c-59.198,0-107.355,48.161-107.355,107.355c0,59.198,48.157,107.355,107.355,107.355
			c59.198,0,107.355-48.161,107.355-107.355S430.812,185.81,371.614,185.81z M371.614,384.004
			c-50.089,0-90.839-40.749-90.839-90.839s40.749-90.839,90.839-90.839c50.089,0,90.839,40.749,90.839,90.839
			S421.703,384.004,371.614,384.004z"/>
	</g>
</g>
<g>
	<g>
		<path d="M511.683,290.898l-49.548-173.419c-1.255-4.385-5.822-6.933-10.211-5.673c-4.381,1.251-6.924,5.822-5.669,10.207
			l46.542,162.894h-22.086c-4.558,0-8.258,3.7-8.258,8.258s3.7,8.258,8.258,8.258h33.032c2.593,0,5.033-1.214,6.594-3.283
			C511.898,296.072,512.398,293.392,511.683,290.898z"/>
	</g>
</g>
<g>
	<g>
		<path d="M283.831,242.485c-8.481-4.666-18.106-7.131-27.83-7.131c-10.735,0-21.215,2.969-30.311,8.576
			c-3.881,2.395-5.087,7.482-2.692,11.363c1.561,2.531,4.265,3.927,7.036,3.927c1.478,0,2.977-0.401,4.323-1.23
			c12.371-7.63,28.792-8.031,41.513-1.032c4.001,2.193,9.022,0.735,11.219-3.258C289.285,249.703,287.828,244.682,283.831,242.485z"
			/>
	</g>
</g>
<g>
</g>
<g>
</g>
<g>
</g>
<g>
</g>
<g>
</g>
<g>
</g>
<g>
</g>
<g>
</g>
<g>
</g>
<g>
</g>
<g>
</g>
<g>
</g>
<g>
</g>
<g>
</g>
<g>
</g>
</svg>
