<?xml version="1.0" encoding="iso-8859-1"?>
<!-- Generator: Adobe Illustrator 19.0.0, SVG Export Plug-In . SVG Version: 6.00 Build 0)  -->
<svg version="1.1" id="Capa_1" xmlns="http://www.w3.org/2000/svg" xmlns:xlink="http://www.w3.org/1999/xlink" x="0px" y="0px"
	 viewBox="0 0 511.999 511.999" style="enable-background:new 0 0 511.999 511.999;" xml:space="preserve">
<g>
	<g>
		<path d="M497.108,150.015l-96.62-96.697c-9.631-9.635-22.436-14.948-36.061-14.948c0,0,0,0-0.004,0
			c-13.625,0-26.435,5.308-36.065,14.948L165.614,216.194L334.31,385.017l162.798-162.926
			C516.963,202.219,516.963,169.887,497.108,150.015z M485.028,210.019L334.305,360.874l-144.565-144.68L340.437,65.382
			c6.405-6.413,14.926-9.947,23.99-9.947c0.004,0,0.004,0,0.004,0c9.063,0.004,17.58,3.533,23.985,9.947l96.611,96.692
			C498.243,175.294,498.243,196.8,485.028,210.019z"/>
	</g>
</g>
<g>
	<g>
		<path d="M177.682,204.118L14.901,367.036c-19.868,19.885-19.868,52.238,0,72.118l34.453,34.474h196.419l100.601-100.682
			L177.682,204.118z M238.693,456.559H56.424l-29.451-29.473c-13.219-13.228-13.219-34.755,0-47.988L177.682,228.27l144.561,144.676
			L238.693,456.559z"/>
	</g>
</g>
<g>
</g>
<g>
</g>
<g>
</g>
<g>
</g>
<g>
</g>
<g>
</g>
<g>
</g>
<g>
</g>
<g>
</g>
<g>
</g>
<g>
</g>
<g>
</g>
<g>
</g>
<g>
</g>
<g>
</g>
</svg>
