<?xml version="1.0" encoding="iso-8859-1"?>
<!-- Generator: Adobe Illustrator 19.0.0, SVG Export Plug-In . SVG Version: 6.00 Build 0)  -->
<svg version="1.1" id="Capa_1" xmlns="http://www.w3.org/2000/svg" xmlns:xlink="http://www.w3.org/1999/xlink" x="0px" y="0px"
	 viewBox="0 0 512 512" style="enable-background:new 0 0 512 512;" xml:space="preserve">
<g>
	<g>
		<path d="M493.316,142.638L369.395,18.717C357.326,6.647,341.279,0,324.213,0c-17.062,0-33.108,6.647-45.178,18.717L18.717,279.035
			C6.648,291.104,0.001,307.151,0.001,324.212c0,17.066,6.647,33.113,18.717,45.182l123.921,123.921
			C155.091,505.773,171.449,512,187.816,512c16.362,0,32.729-6.227,45.182-18.685l260.318-260.318
			C518.227,208.082,518.227,167.549,493.316,142.638z M480.387,220.069L220.069,480.387c-17.779,17.779-46.714,17.784-64.502,0
			L31.646,356.466c-8.613-8.618-13.359-20.07-13.359-32.253c0-12.179,4.745-23.631,13.359-32.249L291.964,31.645
			c8.618-8.613,20.07-13.359,32.249-13.359c12.184,0,23.636,4.745,32.253,13.359l123.921,123.921
			C498.171,173.35,498.171,202.285,480.387,220.069z"/>
	</g>
</g>
<g>
	<g>
		<path d="M408.611,304.76L207.259,103.412c-3.429-3.429-9.5-3.429-12.929,0l-90.931,90.931c-3.57,3.57-3.57,9.358,0,12.929
			l201.347,201.352c1.714,1.714,4.041,2.679,6.464,2.679c2.428,0,4.75-0.965,6.464-2.679l90.936-90.936
			c1.714-1.714,2.679-4.041,2.679-6.464C411.29,308.801,410.326,306.474,408.611,304.76z M311.211,389.231L122.797,200.808
			l77.998-78.003l188.423,188.419L311.211,389.231z"/>
	</g>
</g>
<g>
	<g>
		<path d="M155.302,376.206l-84.435-84.44c-3.566-3.57-9.358-3.57-12.929,0c-1.788,1.788-2.679,4.124-2.679,6.464
			c0,2.341,0.891,4.677,2.679,6.464l84.435,84.44c1.783,1.788,4.124,2.679,6.464,2.679c2.336,0,4.677-0.891,6.464-2.679
			s2.679-4.124,2.679-6.464C157.981,380.33,157.089,377.994,155.302,376.206z"/>
	</g>
</g>
<g>
	<g>
		<path d="M155.302,428.168l-84.435-84.44c-3.566-3.57-9.358-3.57-12.929,0c-1.788,1.788-2.679,4.124-2.679,6.464
			c0,2.341,0.891,4.677,2.679,6.464l84.435,84.44c1.783,1.788,4.124,2.679,6.464,2.679c2.336,0,4.677-0.891,6.464-2.679
			s2.679-4.124,2.679-6.464C157.981,432.292,157.089,429.956,155.302,428.168z"/>
	</g>
</g>
<g>
</g>
<g>
</g>
<g>
</g>
<g>
</g>
<g>
</g>
<g>
</g>
<g>
</g>
<g>
</g>
<g>
</g>
<g>
</g>
<g>
</g>
<g>
</g>
<g>
</g>
<g>
</g>
<g>
</g>
</svg>
