<?xml version="1.0" encoding="iso-8859-1"?>
<!-- Generator: Adobe Illustrator 19.0.0, SVG Export Plug-In . SVG Version: 6.00 Build 0)  -->
<svg version="1.1" id="Capa_1" xmlns="http://www.w3.org/2000/svg" xmlns:xlink="http://www.w3.org/1999/xlink" x="0px" y="0px"
	 viewBox="0 0 512 512" style="enable-background:new 0 0 512 512;" xml:space="preserve">
<g>
	<g>
		<path d="M152.702,0H71.86c-4.958,0-8.982,4.024-8.982,8.982v449.123c0,4.958,4.024,8.982,8.982,8.982
			c4.958,0,8.982-4.024,8.982-8.982V17.965h62.877v400.977c0,4.958,4.024,8.982,8.982,8.982s8.982-4.024,8.982-8.982V8.982
			C161.684,4.024,157.66,0,152.702,0z"/>
	</g>
</g>
<g>
	<g>
		<path d="M412.093,0H152.702c-4.958,0-8.982,4.024-8.982,8.982v409.959c0,4.958,4.024,8.982,8.982,8.982s8.982-4.024,8.982-8.982
			V17.965h250.408c10.514,0,19.065,8.551,19.065,19.065v457.005H152.702c-4.958,0-8.982,4.024-8.982,8.982
			c0,4.958,4.024,8.982,8.982,8.982H440.14c4.958,0,8.982-4.024,8.982-8.982V37.03C449.123,16.613,432.51,0,412.093,0z"/>
	</g>
</g>
<g>
	<g>
		<path d="M440.14,413.193h-327.86c-27.239,0-49.403,22.164-49.403,49.404S85.041,512,112.281,512h327.86
			c4.958,0,8.982-4.024,8.982-8.982v-80.842C449.123,417.217,445.099,413.193,440.14,413.193z M431.158,494.035H112.281
			c-17.336,0-31.439-14.107-31.439-31.439s14.102-31.439,31.439-31.439h318.877V494.035z"/>
	</g>
</g>
<g>
	<g>
		<path d="M412.865,329.926l-62.877-224.561c-1.06-3.8-4.482-6.463-8.43-6.557c-4.123-0.121-7.496,2.398-8.74,6.14L285.377,247.26
			l-34.996-62.99c-1.585-2.852-4.59-4.621-7.855-4.621h-53.895c-4.958,0-8.982,4.024-8.982,8.982s4.024,8.982,8.982,8.982h48.609
			l42.343,76.221c1.729,3.117,5.093,4.904,8.686,4.581c3.544-0.328,6.562-2.722,7.689-6.099l44.629-133.879l54.973,196.334
			c1.109,3.97,4.716,6.566,8.646,6.566c0.804,0,1.617-0.108,2.43-0.341C411.414,339.658,414.203,334.7,412.865,329.926z"/>
	</g>
</g>
<g>
</g>
<g>
</g>
<g>
</g>
<g>
</g>
<g>
</g>
<g>
</g>
<g>
</g>
<g>
</g>
<g>
</g>
<g>
</g>
<g>
</g>
<g>
</g>
<g>
</g>
<g>
</g>
<g>
</g>
</svg>
