<?xml version="1.0" encoding="iso-8859-1"?>
<!-- Generator: Adobe Illustrator 19.0.0, SVG Export Plug-In . SVG Version: 6.00 Build 0)  -->
<svg version="1.1" id="Capa_1" xmlns="http://www.w3.org/2000/svg" xmlns:xlink="http://www.w3.org/1999/xlink" x="0px" y="0px"
	 viewBox="0 0 512 512" style="enable-background:new 0 0 512 512;" xml:space="preserve">
<g>
	<g>
		<path d="M239.213,33.574c-87.934,0-159.475,71.542-159.475,159.475s71.542,159.475,159.475,159.475
			s159.475-71.542,159.475-159.475S327.147,33.574,239.213,33.574z M239.213,335.738c-78.68,0-142.689-64.008-142.689-142.688
			S160.533,50.361,239.213,50.361s142.688,64.008,142.688,142.689S317.893,335.738,239.213,335.738z"/>
	</g>
</g>
<g>
	<g>
		<path d="M182.037,104.88c-9.963-9.963-12.934-27.761-13.669-40.939c-0.168-2.95-1.876-5.603-4.499-6.971
			c-2.627-1.368-5.775-1.259-8.293,0.298c-33.8,20.854-58.49,53.286-69.514,91.325c-0.646,2.241-0.336,4.65,0.865,6.652
			c1.196,1.998,3.177,3.412,5.46,3.895c20.09,4.255,22.637,8.926,22.658,8.977c4.419,8.838,11.428,14.445,19.741,15.796
			c1.305,0.21,2.631,0.315,3.974,0.315c9.099,0,18.885-4.839,27.975-13.929c1.838-1.838,3.798-3.676,5.766-5.531
			c10.068-9.485,21.483-20.232,21.697-34.535C194.333,121.608,190.237,113.081,182.037,104.88z M160.999,152.547
			c-2.094,1.968-4.172,3.928-6.127,5.884c-6.417,6.417-12.737,9.678-17.391,8.914c-2.925-0.474-5.418-2.74-7.416-6.732
			c-3.378-6.761-11.465-11.831-25.176-15.692c9.354-26.158,26.108-48.925,48.266-65.67c2.694,16.304,8.393,28.882,17.018,37.506
			c4.868,4.868,7.307,9.317,7.248,13.228C177.311,137.182,169.019,144.993,160.999,152.547z"/>
	</g>
</g>
<g>
	<g>
		<path d="M253.087,223.526c-3.672-14.676-12.225-26.066-24.735-32.932c-13.732-7.533-31.404-8.876-47.259-3.592
			c-10.786,3.592-21.554,8.104-27.279,16.695c-6.916,10.374-4.155,22.641-0.978,32.172c6.757,20.262,19.733,22.545,30.158,24.383
			c4.344,0.764,8.444,1.486,12.305,3.416c3.861,1.93,2.652,22.742-4.209,43.386c-1.251,3.764,0.306,7.894,3.731,9.9
			c1.284,0.747,10.378,5.846,20.312,5.846c3.106,0,6.299-0.499,9.354-1.788c4.625-1.951,10.689-6.467,13.299-16.917
			c2.321-9.283,5.401-17.11,8.377-24.685C252.731,262.702,258.938,246.922,253.087,223.526z M230.539,273.265
			c-3.026,7.697-6.455,16.418-9.04,26.758c-1.121,4.495-2.921,5.258-3.513,5.51c-2.136,0.915-5.519,0.441-8.712-0.537
			c4.73-16.745,10.718-47.754-6.48-56.341c-6.047-3.022-11.81-4.037-16.896-4.935c-9.3-1.637-13.547-2.388-17.139-13.161
			c-3.785-11.365-2.371-15.456-0.978-17.551c2.296-3.445,8.041-6.555,18.621-10.081c11.503-3.836,24.169-2.942,33.876,2.384
			c8.423,4.625,13.983,12.12,16.522,22.285C241.349,245.781,236.813,257.309,230.539,273.265z"/>
	</g>
</g>
<g>
	<g>
		<path d="M387.324,133.938c-12.804-32.017-36.096-59.493-65.591-77.362c-3.282-1.989-7.487-1.502-10.219,1.175
			c-38.635,37.779-41.98,50.99-40.15,58.93c1.062,4.608,4.407,8.163,9.178,9.753c12.611,4.201,22.901,8.431,29.432,11.293
			c-3.378,4.851-9.426,10.597-19.129,10.597c-39.558,0-61.939,0.743-61.939,16.044c0,7.118,6.732,13.362,25.969,29.394
			c7.038,5.863,17.484,14.567,20.018,18.138c0.999,10.941,10.584,43.109,17.672,50.197c4.961,4.961,13.53,9.304,22.646,9.304
			c2.405-0.004,4.843-0.302,7.252-0.957c7.621-2.111,17.693-8.599,22.427-27.53c3.11-12.427,3.844-23.716,4.436-32.785
			c0.965-14.785,1.771-20.593,6.476-22.943c5.624-2.812,14.999-10.71,31.366-46.651C388.117,138.45,388.172,136.066,387.324,133.938
			z M348.299,172.158c-13.765,6.878-14.718,21.445-15.721,36.868c-0.575,8.834-1.23,18.847-3.97,29.801
			c-1.528,6.119-4.612,13.761-10.618,15.423c-5.091,1.419-11.096-1.561-13.455-3.916c-3.836-4.574-12.938-34.048-12.938-40.07
			c0-7.122-6.732-13.367-25.974-29.402c-5.044-4.205-11.843-9.871-16.22-14.055c10.307-1.7,30.581-1.7,41.438-1.7
			c28.672,0,38.169-27.514,38.559-28.685c1.318-3.962-0.47-8.293-4.209-10.16c-0.621-0.311-14.987-7.458-36.826-14.911
			c1.603-3.941,7.621-14.332,30.158-36.927c22.813,15.31,40.998,37.187,51.846,62.439
			C356.037,167.588,349.067,171.772,348.299,172.158z"/>
	</g>
</g>
<g>
	<g>
		<path d="M239.213,0c-4.633,0-8.393,3.76-8.393,8.393s3.76,8.393,8.393,8.393c97.192,0,176.262,79.07,176.262,176.262
			s-79.07,176.262-176.262,176.262c-50.919,0-99.341-22.02-132.847-60.42c-3.051-3.492-8.351-3.853-11.843-0.802
			c-3.496,3.047-3.853,8.347-0.806,11.843c36.696,42.051,89.73,66.165,145.496,66.165c106.446,0,193.049-86.604,193.049-193.049
			S345.659,0,239.213,0z"/>
	</g>
</g>
<g>
	<g>
		<path d="M239.213,369.311c-4.633,0-8.393,3.76-8.393,8.393v92.328c0,4.633,3.76,8.393,8.393,8.393s8.393-3.76,8.393-8.393v-92.328
			C247.607,373.072,243.846,369.311,239.213,369.311z"/>
	</g>
</g>
<g>
	<g>
		<path d="M323.148,461.639H155.279c-4.633,0-8.393,3.76-8.393,8.393v33.574c0,4.633,3.76,8.393,8.393,8.393h167.869
			c4.633,0,8.393-3.76,8.393-8.393v-33.574C331.541,465.4,327.781,461.639,323.148,461.639z M314.754,495.213H163.672v-16.787
			h151.082V495.213z"/>
	</g>
</g>
<g>
</g>
<g>
</g>
<g>
</g>
<g>
</g>
<g>
</g>
<g>
</g>
<g>
</g>
<g>
</g>
<g>
</g>
<g>
</g>
<g>
</g>
<g>
</g>
<g>
</g>
<g>
</g>
<g>
</g>
</svg>
