<?xml version="1.0" encoding="iso-8859-1"?>
<!-- Generator: Adobe Illustrator 19.0.0, SVG Export Plug-In . SVG Version: 6.00 Build 0)  -->
<svg version="1.1" id="Capa_1" xmlns="http://www.w3.org/2000/svg" xmlns:xlink="http://www.w3.org/1999/xlink" x="0px" y="0px"
	 viewBox="0 0 512 512" style="enable-background:new 0 0 512 512;" xml:space="preserve">
<g>
	<g>
		<path d="M390.696,336.719c-0.004,0-0.013,0-0.018,0l-61.489-2.6c-4.643-0.154-8.987,3.575-9.19,8.448
			c-0.207,4.868,3.575,8.982,8.448,9.19l61.859,2.609c42.761,0,77.555,30.861,77.555,68.793v71.186H44.138v-71.186
			c0-37.932,34.794-68.793,77.93-68.802l62.031-2.622c4.873-0.207,8.655-4.317,8.448-9.19c-0.207-4.873-4.264-8.625-9.194-8.448
			l-61.661,2.613c-52.498,0-95.21,38.78-95.21,86.449v80.013c0,4.873,3.955,8.828,8.828,8.828H476.69
			c4.873,0,8.828-3.955,8.828-8.828v-80.013C485.517,375.495,442.823,336.719,390.696,336.719z"/>
	</g>
</g>
<g>
	<g>
		<path d="M326.621,300.138H185.379c-4.873,0-8.828,3.955-8.828,8.828v41.931c0,3.862,2.511,7.27,6.193,8.426
			c22.938,7.168,48.093,10.756,73.256,10.756c25.159,0,50.326-3.588,73.256-10.756c3.685-1.156,6.193-4.564,6.193-8.426v-41.931
			C335.448,304.093,331.493,300.138,326.621,300.138z M317.793,344.298c-39.168,10.884-84.423,10.876-123.586,0v-26.505h123.586
			V344.298z"/>
	</g>
</g>
<g>
	<g>
		<path d="M256,0c-73.013,0-132.414,59.401-132.414,132.414v118.784c0,36.718,29.877,66.595,66.591,66.595h131.646
			c36.718,0,66.591-29.877,66.591-66.595V132.414C388.414,59.401,329.013,0,256,0z M370.759,251.198
			c0,26.986-21.95,48.94-48.94,48.94H190.177c-26.982,0-48.936-21.954-48.936-48.94V132.414
			c0-63.276,51.482-114.759,114.759-114.759c63.281,0,114.759,51.482,114.759,114.759V251.198z"/>
	</g>
</g>
<g>
	<g>
		<path d="M203.034,105.931c-24.338,0-44.138,19.8-44.138,44.138s19.8,44.138,44.138,44.138c24.342,0,44.138-19.8,44.138-44.138
			S227.372,105.931,203.034,105.931z M203.034,176.552c-14.605,0-26.483-11.878-26.483-26.483s11.878-26.483,26.483-26.483
			s26.483,11.878,26.483,26.483S217.64,176.552,203.034,176.552z"/>
	</g>
</g>
<g>
	<g>
		<path d="M308.966,105.931c-24.338,0-44.138,19.8-44.138,44.138s19.8,44.138,44.138,44.138s44.138-19.8,44.138-44.138
			S333.303,105.931,308.966,105.931z M308.966,176.552c-14.605,0-26.483-11.878-26.483-26.483s11.878-26.483,26.483-26.483
			s26.483,11.878,26.483,26.483S323.571,176.552,308.966,176.552z"/>
	</g>
</g>
<g>
	<g>
		<path d="M300.138,105.931h-97.103c-4.873,0-8.828,3.955-8.828,8.828c0,4.873,3.955,8.828,8.828,8.828h97.103
			c4.877,0,8.828-3.955,8.828-8.828C308.966,109.886,305.011,105.931,300.138,105.931z"/>
	</g>
</g>
<g>
</g>
<g>
</g>
<g>
</g>
<g>
</g>
<g>
</g>
<g>
</g>
<g>
</g>
<g>
</g>
<g>
</g>
<g>
</g>
<g>
</g>
<g>
</g>
<g>
</g>
<g>
</g>
<g>
</g>
</svg>
