<?xml version="1.0" encoding="iso-8859-1"?>
<!-- Generator: Adobe Illustrator 19.0.0, SVG Export Plug-In . SVG Version: 6.00 Build 0)  -->
<svg version="1.1" id="Capa_1" xmlns="http://www.w3.org/2000/svg" xmlns:xlink="http://www.w3.org/1999/xlink" x="0px" y="0px"
	 viewBox="0 0 512 512" style="enable-background:new 0 0 512 512;" xml:space="preserve">
<g>
	<g>
		<path d="M196.571,73.143H77.714c-5.047,0-9.143,4.096-9.143,9.143v420.571c0,5.047,4.096,9.143,9.143,9.143h118.857
			c5.047,0,9.143-4.096,9.143-9.143V82.286C205.714,77.239,201.618,73.143,196.571,73.143z M187.429,493.714H86.857V91.429h100.571
			V493.714z"/>
	</g>
</g>
<g>
	<g>
		<path d="M196.571,173.714H77.714c-5.047,0-9.143,4.096-9.143,9.143c0,5.047,4.096,9.143,9.143,9.143h118.857
			c5.047,0,9.143-4.096,9.143-9.143C205.714,177.81,201.618,173.714,196.571,173.714z"/>
	</g>
</g>
<g>
	<g>
		<path d="M196.571,201.143H77.714c-5.047,0-9.143,4.096-9.143,9.143c0,5.047,4.096,9.143,9.143,9.143h118.857
			c5.047,0,9.143-4.096,9.143-9.143C205.714,205.239,201.618,201.143,196.571,201.143z"/>
	</g>
</g>
<g>
	<g>
		<path d="M196.571,228.571H77.714c-5.047,0-9.143,4.096-9.143,9.143s4.096,9.143,9.143,9.143h118.857
			c5.047,0,9.143-4.096,9.143-9.143S201.618,228.571,196.571,228.571z"/>
	</g>
</g>
<g>
	<g>
		<path d="M137.143,365.714c-22.683,0-41.143,18.455-41.143,41.143S114.459,448,137.143,448c22.683,0,41.143-18.455,41.143-41.143
			S159.826,365.714,137.143,365.714z M137.143,429.714c-12.603,0-22.857-10.254-22.857-22.857S124.539,384,137.143,384
			C149.746,384,160,394.254,160,406.857S149.746,429.714,137.143,429.714z"/>
	</g>
</g>
<g>
	<g>
		<path d="M315.429,0H196.571c-5.047,0-9.143,4.096-9.143,9.143v420.571c0,5.047,4.096,9.143,9.143,9.143h118.857
			c5.047,0,9.143-4.096,9.143-9.143V9.143C324.571,4.096,320.475,0,315.429,0z M306.286,420.571H205.714V18.286h100.571V420.571z"/>
	</g>
</g>
<g>
	<g>
		<path d="M315.429,100.571H196.571c-5.047,0-9.143,4.096-9.143,9.143s4.096,9.143,9.143,9.143h118.857
			c5.047,0,9.143-4.096,9.143-9.143S320.475,100.571,315.429,100.571z"/>
	</g>
</g>
<g>
	<g>
		<path d="M315.429,128H196.571c-5.047,0-9.143,4.096-9.143,9.143c0,5.047,4.096,9.143,9.143,9.143h118.857
			c5.047,0,9.143-4.096,9.143-9.143C324.571,132.096,320.475,128,315.429,128z"/>
	</g>
</g>
<g>
	<g>
		<path d="M315.429,155.429H196.571c-5.047,0-9.143,4.096-9.143,9.143c0,5.047,4.096,9.143,9.143,9.143h118.857
			c5.047,0,9.143-4.096,9.143-9.143C324.571,159.525,320.475,155.429,315.429,155.429z"/>
	</g>
</g>
<g>
	<g>
		<path d="M256,292.571c-22.683,0-41.143,18.455-41.143,41.143s18.459,41.143,41.143,41.143c22.688,0,41.143-18.455,41.143-41.143
			S278.688,292.571,256,292.571z M256,356.571c-12.603,0-22.857-10.254-22.857-22.857s10.254-22.857,22.857-22.857
			c12.603,0,22.857,10.254,22.857,22.857S268.603,356.571,256,356.571z"/>
	</g>
</g>
<g>
	<g>
		<path d="M434.286,73.143H315.429c-5.047,0-9.143,4.096-9.143,9.143v420.571c0,5.047,4.096,9.143,9.143,9.143h118.857
			c5.047,0,9.143-4.096,9.143-9.143V82.286C443.429,77.239,439.333,73.143,434.286,73.143z M425.143,493.714H324.571V91.429h100.571
			V493.714z"/>
	</g>
</g>
<g>
	<g>
		<path d="M434.286,173.714H315.429c-5.047,0-9.143,4.096-9.143,9.143c0,5.047,4.096,9.143,9.143,9.143h118.857
			c5.047,0,9.143-4.096,9.143-9.143C443.429,177.81,439.333,173.714,434.286,173.714z"/>
	</g>
</g>
<g>
	<g>
		<path d="M434.286,201.143H315.429c-5.047,0-9.143,4.096-9.143,9.143c0,5.047,4.096,9.143,9.143,9.143h118.857
			c5.047,0,9.143-4.096,9.143-9.143C443.429,205.239,439.333,201.143,434.286,201.143z"/>
	</g>
</g>
<g>
	<g>
		<path d="M434.286,228.571H315.429c-5.047,0-9.143,4.096-9.143,9.143s4.096,9.143,9.143,9.143h118.857
			c5.047,0,9.143-4.096,9.143-9.143S439.333,228.571,434.286,228.571z"/>
	</g>
</g>
<g>
	<g>
		<path d="M374.857,365.714c-22.688,0-41.143,18.455-41.143,41.143S352.169,448,374.857,448S416,429.545,416,406.857
			S397.545,365.714,374.857,365.714z M374.857,429.714c-12.603,0-22.857-10.254-22.857-22.857S362.254,384,374.857,384
			s22.857,10.254,22.857,22.857S387.461,429.714,374.857,429.714z"/>
	</g>
</g>
<g>
</g>
<g>
</g>
<g>
</g>
<g>
</g>
<g>
</g>
<g>
</g>
<g>
</g>
<g>
</g>
<g>
</g>
<g>
</g>
<g>
</g>
<g>
</g>
<g>
</g>
<g>
</g>
<g>
</g>
</svg>
