<?xml version="1.0" encoding="iso-8859-1"?>
<!-- Generator: Adobe Illustrator 19.0.0, SVG Export Plug-In . SVG Version: 6.00 Build 0)  -->
<svg version="1.1" id="Capa_1" xmlns="http://www.w3.org/2000/svg" xmlns:xlink="http://www.w3.org/1999/xlink" x="0px" y="0px"
	 viewBox="0 0 512.001 512.001" style="enable-background:new 0 0 512.001 512.001;" xml:space="preserve">
<g>
	<g>
		<path d="M262.245,326.676c-4.265-4.254-11.16-4.254-15.409,0L96.048,477.469c-16.956,16.956-44.554,16.961-61.521,0
			c-8.214-8.214-12.74-19.14-12.74-30.758c0-11.623,4.526-22.544,12.74-30.763L182.139,268.33c4.254-4.254,4.254-11.149,0-15.403
			s-11.155-4.254-15.403,0L19.124,400.545C6.792,412.876,0,429.271,0,446.711c0,17.435,6.792,33.835,19.118,46.161
			c12.729,12.729,29.451,19.091,46.167,19.091c16.722,0,33.438-6.362,46.167-19.091l150.793-150.793
			C266.493,337.826,266.493,330.93,262.245,326.676z"/>
	</g>
</g>
<g>
	<g>
		<path d="M478.034,110.887L401.11,33.962c-4.085-4.085-11.318-4.085-15.403,0L249.303,170.376c-4.254,4.254-4.254,11.149,0,15.403
			c4.259,4.254,11.155,4.254,15.409,0L393.413,57.073l61.516,61.516L325.166,248.357c-4.254,4.254-4.254,11.149,0,15.403
			c2.13,2.13,4.913,3.192,7.702,3.192c2.789,0,5.578-1.062,7.702-3.192L478.034,126.29
			C482.288,122.036,482.288,115.141,478.034,110.887z"/>
	</g>
</g>
<g>
	<g>
		<path d="M508.808,3.193c-2.794-2.8-6.885-3.851-10.697-2.772L390.418,31.19c-3.709,1.057-6.58,4.003-7.555,7.74
			c-0.969,3.736,0.114,7.707,2.843,10.436l76.93,76.924c2.07,2.07,4.853,3.192,7.702,3.192c0.91,0,1.83-0.114,2.734-0.349
			c3.736-0.969,6.683-3.84,7.74-7.555l30.769-107.693C512.67,10.084,511.608,5.993,508.808,3.193z M464.945,97.793l-50.742-50.742
			l71.042-20.295L464.945,97.793z"/>
	</g>
</g>
<g>
	<g>
		<path d="M215.555,281.059c-4.254-4.254-11.155-4.254-15.403,0L57.589,423.628c-4.254,4.254-4.254,11.15,0,15.403
			c2.13,2.13,4.913,3.192,7.702,3.192c2.789,0,5.577-1.068,7.702-3.192l142.563-142.569
			C219.809,292.209,219.809,285.313,215.555,281.059z"/>
	</g>
</g>
<g>
	<g>
		<path d="M401.115,95.5c-4.254-4.254-11.15-4.254-15.403,0L280.6,200.616c-4.254,4.254-4.254,11.149,0,15.403
			c2.13,2.13,4.913,3.192,7.702,3.192c2.783,0,5.572-1.062,7.702-3.192l105.111-105.117
			C405.369,106.649,405.369,99.753,401.115,95.5z"/>
	</g>
</g>
<g>
	<g>
		<path d="M478.05,385.708L111.462,19.12c-25.458-25.458-66.881-25.447-92.333,0c-25.453,25.464-25.453,66.881,0,92.328
			l366.588,366.588c2.043,2.043,4.815,3.192,7.702,3.192c2.892,0,5.665-1.149,7.707-3.192l76.924-76.924
			C482.304,396.857,482.304,389.962,478.05,385.708z M393.424,454.925L34.532,96.039c-16.961-16.95-16.956-44.549,0-61.516
			c8.481-8.481,19.619-12.718,30.758-12.718s22.283,4.238,30.763,12.713L454.94,393.404L393.424,454.925z"/>
	</g>
</g>
<g>
	<g>
		<path d="M511.575,498.112l-30.769-107.693c-1.057-3.709-4.003-6.585-7.74-7.555c-3.736-0.959-7.702,0.114-10.436,2.843
			l-76.924,76.924c-2.729,2.729-3.813,6.694-2.843,10.436c0.97,3.737,3.845,6.683,7.555,7.74l107.693,30.769
			c0.991,0.283,1.994,0.419,2.996,0.419c2.843,0,5.632-1.117,7.696-3.186C511.602,506.01,512.664,501.92,511.575,498.112z
			 M414.204,464.947l50.742-50.742l20.3,71.042L414.204,464.947z"/>
	</g>
</g>
<g>
	<g>
		<path d="M401.115,401.095L72.992,72.972c-4.248-4.254-11.155-4.254-15.403,0c-4.254,4.254-4.254,11.15,0,15.403l328.123,328.123
			c2.13,2.13,4.913,3.192,7.702,3.192c2.783,0,5.572-1.062,7.702-3.192C405.369,412.244,405.369,405.349,401.115,401.095z"/>
	</g>
</g>
<g>
</g>
<g>
</g>
<g>
</g>
<g>
</g>
<g>
</g>
<g>
</g>
<g>
</g>
<g>
</g>
<g>
</g>
<g>
</g>
<g>
</g>
<g>
</g>
<g>
</g>
<g>
</g>
<g>
</g>
</svg>
