<?xml version="1.0" encoding="iso-8859-1"?>
<!-- Generator: Adobe Illustrator 19.0.0, SVG Export Plug-In . SVG Version: 6.00 Build 0)  -->
<svg version="1.1" id="Capa_1" xmlns="http://www.w3.org/2000/svg" xmlns:xlink="http://www.w3.org/1999/xlink" x="0px" y="0px"
	 viewBox="0 0 512 512" style="enable-background:new 0 0 512 512;" xml:space="preserve">
<g>
	<g>
		<path d="M453.246,0H352.525c-4.633,0-8.393,3.76-8.393,8.393v47.331c0,4.633,3.76,8.393,8.393,8.393s8.393-3.76,8.393-8.393
			V16.787h83.934v38.937c0,4.633,3.76,8.393,8.393,8.393c4.633,0,8.393-3.76,8.393-8.393V8.393C461.639,3.76,457.879,0,453.246,0z"
			/>
	</g>
</g>
<g>
	<g>
		<path d="M453.246,152.538c-4.633,0-8.393,3.76-8.393,8.393v334.281h-83.934V159.475c0-4.633-3.76-8.393-8.393-8.393
			s-8.393,3.76-8.393,8.393v344.131c0,4.633,3.76,8.393,8.393,8.393h100.721c4.633,0,8.393-3.76,8.393-8.393V160.932
			C461.639,156.299,457.879,152.538,453.246,152.538z"/>
	</g>
</g>
<g>
	<g>
		<path d="M503.607,50.361H8.393C3.76,50.361,0,54.121,0,58.754v100.721c0,4.633,3.76,8.393,8.393,8.393h495.213
			c4.633,0,8.393-3.76,8.393-8.393V58.754C512,54.121,508.24,50.361,503.607,50.361z M495.213,151.082H16.787V67.148h478.426
			V151.082z"/>
	</g>
</g>
<g>
	<g>
		<path d="M58.754,92.328c-4.633,0-8.393,3.76-8.393,8.393v58.754c0,4.633,3.76,8.393,8.393,8.393s8.393-3.76,8.393-8.393v-58.754
			C67.148,96.088,63.387,92.328,58.754,92.328z"/>
	</g>
</g>
<g>
	<g>
		<path d="M100.721,117.508c-4.633,0-8.393,3.76-8.393,8.393v33.574c0,4.633,3.76,8.393,8.393,8.393s8.393-3.76,8.393-8.393v-33.574
			C109.115,121.268,105.354,117.508,100.721,117.508z"/>
	</g>
</g>
<g>
	<g>
		<path d="M184.656,117.508c-4.633,0-8.393,3.76-8.393,8.393v33.574c0,4.633,3.76,8.393,8.393,8.393s8.393-3.76,8.393-8.393v-33.574
			C193.049,121.268,189.289,117.508,184.656,117.508z"/>
	</g>
</g>
<g>
	<g>
		<path d="M268.59,117.508c-4.633,0-8.393,3.76-8.393,8.393v33.574c0,4.633,3.76,8.393,8.393,8.393s8.393-3.76,8.393-8.393v-33.574
			C276.984,121.268,273.223,117.508,268.59,117.508z"/>
	</g>
</g>
<g>
	<g>
		<path d="M352.525,117.508c-4.633,0-8.393,3.76-8.393,8.393v33.574c0,4.633,3.76,8.393,8.393,8.393s8.393-3.76,8.393-8.393v-33.574
			C360.918,121.268,357.158,117.508,352.525,117.508z"/>
	</g>
</g>
<g>
	<g>
		<path d="M436.459,117.508c-4.633,0-8.393,3.76-8.393,8.393v33.574c0,4.633,3.76,8.393,8.393,8.393c4.633,0,8.393-3.76,8.393-8.393
			v-33.574C444.852,121.268,441.092,117.508,436.459,117.508z"/>
	</g>
</g>
<g>
	<g>
		<path d="M142.689,92.328c-4.633,0-8.393,3.76-8.393,8.393v58.754c0,4.633,3.76,8.393,8.393,8.393s8.393-3.76,8.393-8.393v-58.754
			C151.082,96.088,147.322,92.328,142.689,92.328z"/>
	</g>
</g>
<g>
	<g>
		<path d="M226.623,92.328c-4.633,0-8.393,3.76-8.393,8.393v58.754c0,4.633,3.76,8.393,8.393,8.393s8.393-3.76,8.393-8.393v-58.754
			C235.016,96.088,231.256,92.328,226.623,92.328z"/>
	</g>
</g>
<g>
	<g>
		<path d="M310.557,92.328c-4.633,0-8.393,3.76-8.393,8.393v58.754c0,4.633,3.76,8.393,8.393,8.393s8.393-3.76,8.393-8.393v-58.754
			C318.951,96.088,315.191,92.328,310.557,92.328z"/>
	</g>
</g>
<g>
	<g>
		<path d="M394.492,92.328c-4.633,0-8.393,3.76-8.393,8.393v58.754c0,4.633,3.76,8.393,8.393,8.393c4.633,0,8.393-3.76,8.393-8.393
			v-58.754C402.885,96.088,399.125,92.328,394.492,92.328z"/>
	</g>
</g>
<g>
</g>
<g>
</g>
<g>
</g>
<g>
</g>
<g>
</g>
<g>
</g>
<g>
</g>
<g>
</g>
<g>
</g>
<g>
</g>
<g>
</g>
<g>
</g>
<g>
</g>
<g>
</g>
<g>
</g>
</svg>
