<?xml version="1.0" encoding="iso-8859-1"?>
<!-- Generator: Adobe Illustrator 19.0.0, SVG Export Plug-In . SVG Version: 6.00 Build 0)  -->
<svg version="1.1" id="Capa_1" xmlns="http://www.w3.org/2000/svg" xmlns:xlink="http://www.w3.org/1999/xlink" x="0px" y="0px"
	 viewBox="0 0 512 512" style="enable-background:new 0 0 512 512;" xml:space="preserve">
<g>
	<g>
		<path d="M390.194,502.285l-58.427-367.263c-0.73-4.579-5.023-7.705-9.61-6.971c-4.579,0.73-7.697,5.032-6.971,9.61l43.021,270.428
			l-71.684-210.264c-1.494-4.39-6.266-6.736-10.651-5.238s-6.727,6.27-5.233,10.656l103.319,303.075
			c1.183,3.462,4.423,5.682,7.94,5.682c0.667,0,1.347-0.08,2.027-0.248C388.155,510.703,390.878,506.586,390.194,502.285z"/>
	</g>
</g>
<g>
	<g>
		<path d="M237.052,189.885c-4.398-1.498-9.161,0.852-10.656,5.238l-72.603,212.967l43.352-272.476
			c0.726-4.583-2.392-8.884-6.971-9.611c-4.566-0.722-8.88,2.392-9.61,6.971L121.81,502.285c-0.684,4.306,2.04,8.419,6.27,9.468
			c0.676,0.168,1.351,0.248,2.023,0.248c3.513,0,6.757-2.22,7.944-5.687L242.289,200.54
			C243.783,196.151,241.437,191.379,237.052,189.885z"/>
	</g>
</g>
<g>
	<g>
		<path d="M398.689,310.557H113.311c-4.633,0-8.393,3.76-8.393,8.393s3.76,8.393,8.393,8.393h285.377
			c4.633,0,8.393-3.76,8.393-8.393S403.322,310.557,398.689,310.557z"/>
	</g>
</g>
<g>
	<g>
		<path d="M289.574,0h-67.148c-4.633,0-8.393,3.76-8.393,8.393v66.149c0,4.633,3.76,8.393,8.393,8.393s8.393-3.76,8.393-8.393
			V16.787h50.361v58.599c0,4.633,3.76,8.393,8.393,8.393c4.633,0,8.393-3.76,8.393-8.393V8.393C297.967,3.76,294.207,0,289.574,0z"
			/>
	</g>
</g>
<g>
	<g>
		<path d="M256,285.377c-4.633,0-8.393,3.76-8.393,8.393v50.361c0,4.633,3.76,8.393,8.393,8.393s8.393-3.76,8.393-8.393v-50.361
			C264.393,289.137,260.633,285.377,256,285.377z"/>
	</g>
</g>
<g>
	<g>
		<path d="M256,58.754c-41.652,0-75.541,33.889-75.541,75.541s33.888,75.541,75.541,75.541s75.541-33.888,75.541-75.541
			S297.652,58.754,256,58.754z M256,193.049c-32.399,0-58.754-26.355-58.754-58.754S223.601,75.541,256,75.541
			s58.754,26.355,58.754,58.754S288.399,193.049,256,193.049z"/>
	</g>
</g>
<g>
	<g>
		<path d="M256,92.328c-23.141,0-41.967,18.826-41.967,41.967c0,23.141,18.826,41.967,41.967,41.967s41.967-18.827,41.967-41.967
			C297.967,111.154,279.141,92.328,256,92.328z M256,159.475c-13.887,0-25.18-11.293-25.18-25.18c0-13.887,11.293-25.18,25.18-25.18
			s25.18,11.293,25.18,25.18C281.18,148.182,269.887,159.475,256,159.475z"/>
	</g>
</g>
<g>
</g>
<g>
</g>
<g>
</g>
<g>
</g>
<g>
</g>
<g>
</g>
<g>
</g>
<g>
</g>
<g>
</g>
<g>
</g>
<g>
</g>
<g>
</g>
<g>
</g>
<g>
</g>
<g>
</g>
</svg>
