<?xml version="1.0" encoding="iso-8859-1"?>
<!-- Generator: Adobe Illustrator 19.0.0, SVG Export Plug-In . SVG Version: 6.00 Build 0)  -->
<svg version="1.1" id="Capa_1" xmlns="http://www.w3.org/2000/svg" xmlns:xlink="http://www.w3.org/1999/xlink" x="0px" y="0px"
	 viewBox="0 0 512 512" style="enable-background:new 0 0 512 512;" xml:space="preserve">
<g>
	<g>
		<path d="M487.226,322.568c-4.558,0-8.258,3.7-8.258,8.258v16.012h-41.286c-4.558,0-8.258,3.7-8.258,8.258
			c0,4.558,3.7,8.258,8.258,8.258h49.544c4.558,0,8.258-3.7,8.258-8.258v-24.27C495.484,326.268,491.784,322.568,487.226,322.568z"
			/>
	</g>
</g>
<g>
	<g>
		<path d="M367.996,346.839h-233.72c-4.558,0-8.258,3.7-8.258,8.258c0,4.558,3.7,8.258,8.258,8.258h233.72
			c4.563,0,8.258-3.7,8.258-8.258C376.254,350.538,372.554,346.839,367.996,346.839z"/>
	</g>
</g>
<g>
	<g>
		<path d="M63.265,346.839H33.032v-15.315c0-4.558-3.7-8.258-8.258-8.258c-4.558,0-8.258,3.7-8.258,8.258v23.573
			c0,4.558,3.7,8.258,8.258,8.258h38.491c4.558,0,8.258-3.7,8.258-8.258C71.523,350.538,67.823,346.839,63.265,346.839z"/>
	</g>
</g>
<g>
	<g>
		<path d="M487.226,256h-57.806V123.871c0-4.558-3.7-8.258-8.258-8.258H24.774c-4.558,0-8.258,3.7-8.258,8.258v162.828
			c0,4.558,3.7,8.258,8.258,8.258c4.558,0,8.258-3.7,8.258-8.258v-154.57h379.871v132.129c0,4.558,3.7,8.258,8.258,8.258h57.806
			v13.502c0,4.558,3.7,8.258,8.258,8.258c4.558,0,8.258-3.7,8.258-8.258v-21.76C495.484,259.7,491.784,256,487.226,256z"/>
	</g>
</g>
<g>
	<g>
		<path d="M421.161,156.903h-86.71c-20.492,0-37.161,16.673-37.161,37.161c0,20.488,16.669,37.161,37.161,37.161h86.71
			c4.558,0,8.258-3.7,8.258-8.258v-57.806C429.419,160.603,425.72,156.903,421.161,156.903z M412.903,214.71h-78.452
			c-11.384,0-20.645-9.261-20.645-20.645s9.261-20.645,20.645-20.645h78.452V214.71z"/>
	</g>
</g>
<g>
	<g>
		<path d="M173.419,156.903H66.065c-4.558,0-8.258,3.7-8.258,8.258v57.806c0,4.558,3.7,8.258,8.258,8.258h107.355
			c4.558,0,8.258-3.7,8.258-8.258v-57.806C181.677,160.603,177.978,156.903,173.419,156.903z M165.161,214.71H74.323v-41.29h90.839
			V214.71z"/>
	</g>
</g>
<g>
	<g>
		<path d="M478.968,280.774H274.919c-4.558,0-8.258,3.7-8.258,8.258c0,4.558,3.7,8.258,8.258,8.258h204.048
			c4.558,0,8.258-3.7,8.258-8.258C487.226,284.474,483.526,280.774,478.968,280.774z"/>
	</g>
</g>
<g>
	<g>
		<path d="M194.944,280.774H24.774c-4.558,0-8.258,3.7-8.258,8.258c0,4.558,3.7,8.258,8.258,8.258h170.17
			c4.558,0,8.258-3.7,8.258-8.258C203.202,284.474,199.502,280.774,194.944,280.774z"/>
	</g>
</g>
<g>
	<g>
		<path d="M272.516,156.903h-74.323c-4.558,0-8.258,3.7-8.258,8.258v189.935c0,4.558,3.7,8.258,8.258,8.258h74.323
			c4.558,0,8.258-3.7,8.258-8.258V165.161C280.774,160.603,277.075,156.903,272.516,156.903z M264.258,346.839h-57.806V173.419
			h57.806V346.839z"/>
	</g>
</g>
<g>
	<g>
		<path d="M99.097,313.806c-22.768,0-41.29,18.523-41.29,41.29c0,22.768,18.523,41.29,41.29,41.29
			c22.767,0,41.29-18.523,41.29-41.29C140.387,332.329,121.864,313.806,99.097,313.806z M99.097,379.871
			c-13.663,0-24.774-11.111-24.774-24.774s11.111-24.774,24.774-24.774c13.663,0,24.774,11.111,24.774,24.774
			S112.76,379.871,99.097,379.871z"/>
	</g>
</g>
<g>
	<g>
		<path d="M404.645,313.806c-22.767,0-41.29,18.523-41.29,41.29c0,22.768,18.523,41.29,41.29,41.29
			c22.768,0,41.29-18.523,41.29-41.29C445.935,332.329,427.413,313.806,404.645,313.806z M404.645,379.871
			c-13.663,0-24.774-11.111-24.774-24.774s11.111-24.774,24.774-24.774s24.774,11.111,24.774,24.774
			S418.308,379.871,404.645,379.871z"/>
	</g>
</g>
<g>
	<g>
		<path d="M503.742,280.774h-24.774c-4.558,0-8.258,3.7-8.258,8.258v41.29c0,4.558,3.7,8.258,8.258,8.258h24.774
			c4.558,0,8.258-3.7,8.258-8.258v-41.29C512,284.474,508.3,280.774,503.742,280.774z M495.484,322.065h-8.258V297.29h8.258V322.065
			z"/>
	</g>
</g>
<g>
	<g>
		<path d="M33.032,280.774H8.258c-4.558,0-8.258,3.7-8.258,8.258v41.29c0,4.558,3.7,8.258,8.258,8.258h24.774
			c4.558,0,8.258-3.7,8.258-8.258v-41.29C41.29,284.474,37.591,280.774,33.032,280.774z M24.774,322.065h-8.258V297.29h8.258
			V322.065z"/>
	</g>
</g>
<g>
</g>
<g>
</g>
<g>
</g>
<g>
</g>
<g>
</g>
<g>
</g>
<g>
</g>
<g>
</g>
<g>
</g>
<g>
</g>
<g>
</g>
<g>
</g>
<g>
</g>
<g>
</g>
<g>
</g>
</svg>
