<?xml version="1.0" encoding="iso-8859-1"?>
<!-- Generator: Adobe Illustrator 19.0.0, SVG Export Plug-In . SVG Version: 6.00 Build 0)  -->
<svg version="1.1" id="Capa_1" xmlns="http://www.w3.org/2000/svg" xmlns:xlink="http://www.w3.org/1999/xlink" x="0px" y="0px"
	 viewBox="0 0 512 512" style="enable-background:new 0 0 512 512;" xml:space="preserve">
<g>
	<g>
		<path d="M470.626,426.671H75.507c-15.757,0-28.574,12.817-28.574,28.574v28.181c0,15.757,12.821,28.574,28.574,28.574h395.119
			c15.757,0,28.574-12.817,28.574-28.574v-28.181C499.2,439.488,486.383,426.671,470.626,426.671z M482.133,483.422
			c0,6.345-5.163,11.507-11.507,11.507H75.507c-6.345,0-11.507-5.163-11.507-11.507v-28.181c0-6.345,5.163-11.507,11.507-11.507
			h395.119c6.345,0,11.507,5.163,11.507,11.507V483.422z"/>
	</g>
</g>
<g>
	<g>
		<path d="M436.493,358.4H41.374c-15.757,0-28.574,12.817-28.574,28.578v28.181c0,15.757,12.817,28.574,28.574,28.574h395.119
			c15.757,0,28.574-12.817,28.574-28.578v-28.181C465.067,371.217,452.25,358.4,436.493,358.4z M448,415.159
			c0,6.345-5.163,11.507-11.507,11.507H41.374c-6.344,0-11.507-5.163-11.507-11.511v-28.181c0-6.345,5.163-11.507,11.507-11.507
			v0.004h395.119c6.344,0,11.507,5.163,11.507,11.507V415.159z"/>
	</g>
</g>
<g>
	<g>
		<path d="M470.626,256H75.507c-15.757,0-28.574,12.817-28.574,28.574v62.319c0,15.757,12.817,28.574,28.574,28.574h395.119
			c15.757,0,28.574-12.817,28.574-28.578v-62.315C499.2,268.817,486.383,256,470.626,256z M482.133,346.893
			c0,6.345-5.163,11.507-11.507,11.507H75.507C69.163,358.4,64,353.237,64,346.889v-62.315c0-6.344,5.163-11.507,11.507-11.507
			h395.119c6.345,0,11.507,5.163,11.507,11.507V346.893z"/>
	</g>
</g>
<g>
	<g>
		<path d="M436.493,213.333H75.507c-15.757,0-28.574,12.817-28.574,28.574v2.586c0,15.757,12.817,28.574,28.574,28.574h360.986
			c15.757,0,28.574-12.817,28.574-28.574v-2.586C465.067,226.15,452.25,213.333,436.493,213.333z M448,244.493
			c0,6.345-5.163,11.507-11.507,11.507H75.507C69.163,256,64,250.837,64,244.493v-2.586c0-6.345,5.163-11.507,11.507-11.507h360.986
			c6.344,0,11.507,5.163,11.507,11.507V244.493z"/>
	</g>
</g>
<g>
	<g>
		<path d="M294.4,264.533c-4.71,0-8.533,3.823-8.533,8.533V358.4c0,4.71,3.823,8.533,8.533,8.533s8.533-3.823,8.533-8.533v-85.333
			C302.933,268.356,299.11,264.533,294.4,264.533z"/>
	</g>
</g>
<g>
	<g>
		<path d="M294.4,392.533H149.333c-4.71,0-8.533,3.823-8.533,8.533s3.823,8.533,8.533,8.533H294.4c4.71,0,8.533-3.823,8.533-8.533
			S299.11,392.533,294.4,392.533z"/>
	</g>
</g>
<g>
	<g>
		<path d="M209.067,435.2c-4.71,0-8.533,3.823-8.533,8.533v59.733c0,4.71,3.823,8.533,8.533,8.533c4.71,0,8.533-3.823,8.533-8.533
			v-59.733C217.6,439.023,213.777,435.2,209.067,435.2z"/>
	</g>
</g>
<g>
	<g>
		<path d="M251.733,426.667c-4.71,0-8.533,3.823-8.533,8.533v68.267c0,4.71,3.823,8.533,8.533,8.533c4.71,0,8.533-3.823,8.533-8.533
			V435.2C260.267,430.49,256.444,426.667,251.733,426.667z"/>
	</g>
</g>
<g>
	<g>
		<path d="M192,213.333c-4.71,0-8.533,3.823-8.533,8.533V256c0,4.71,3.823,8.533,8.533,8.533s8.533-3.823,8.533-8.533v-34.133
			C200.533,217.156,196.71,213.333,192,213.333z"/>
	</g>
</g>
<g>
	<g>
		<path d="M200.533,256h-76.8c-4.71,0-8.533,3.823-8.533,8.533v76.8c0,3.145,1.732,6.037,4.506,7.526
			c2.778,1.481,6.144,1.318,8.759-0.427l33.668-22.447l33.668,22.447c1.425,0.956,3.076,1.434,4.732,1.434
			c1.382,0,2.765-0.333,4.028-1.007c2.773-1.489,4.506-4.382,4.506-7.526v-76.8C209.067,259.823,205.244,256,200.533,256z
			 M192,325.389l-25.135-16.755c-1.434-0.956-3.081-1.434-4.732-1.434c-1.651,0-3.298,0.478-4.732,1.434l-25.135,16.755v-52.322H192
			V325.389z"/>
	</g>
</g>
<g>
	<g>
		<path d="M385.886,2.62C384.277,0.947,382.054,0,379.733,0H268.8c-2.321,0-4.544,0.943-6.153,2.62s-2.466,3.934-2.372,6.255
			l8.533,213.333c0.183,4.574,3.947,8.192,8.525,8.192H371.2c4.578,0,8.341-3.618,8.525-8.192l8.533-213.333
			C388.352,6.554,387.494,4.292,385.886,2.62z M362.999,213.333h-77.466l-7.851-196.267h93.167L362.999,213.333z"/>
	</g>
</g>
<g>
</g>
<g>
</g>
<g>
</g>
<g>
</g>
<g>
</g>
<g>
</g>
<g>
</g>
<g>
</g>
<g>
</g>
<g>
</g>
<g>
</g>
<g>
</g>
<g>
</g>
<g>
</g>
<g>
</g>
</svg>
