<?xml version="1.0" encoding="iso-8859-1"?>
<!-- Generator: Adobe Illustrator 19.0.0, SVG Export Plug-In . SVG Version: 6.00 Build 0)  -->
<svg version="1.1" id="Capa_1" xmlns="http://www.w3.org/2000/svg" xmlns:xlink="http://www.w3.org/1999/xlink" x="0px" y="0px"
	 viewBox="0 0 512.001 512.001" style="enable-background:new 0 0 512.001 512.001;" xml:space="preserve">
<g>
	<g>
		<path d="M150.069,472.276H70.616c-4.873,0-8.828,3.955-8.828,8.828s3.955,8.828,8.828,8.828h79.453
			c4.873,0,8.828-3.955,8.828-8.828S154.942,472.276,150.069,472.276z"/>
	</g>
</g>
<g>
	<g>
		<path d="M70.616,472.276H50.432c-18.074,0-32.777-14.702-32.777-32.777V57.38c0-4.873-3.955-8.828-8.828-8.828
			C3.955,48.552,0,52.507,0,57.38v382.12c0,27.807,22.621,50.432,50.432,50.432h20.184c4.877,0,8.828-3.955,8.828-8.828
			S75.489,472.276,70.616,472.276z"/>
	</g>
</g>
<g>
	<g>
		<path d="M361.931,83.862H70.621c-4.873,0-8.828,3.955-8.828,8.828v388.414c0,4.873,3.955,8.828,8.828,8.828h291.31
			c4.873,0,8.828-3.95,8.828-8.828V92.69C370.759,87.817,366.804,83.862,361.931,83.862z M353.103,472.276H79.448V101.518h273.655
			V472.276z"/>
	</g>
</g>
<g>
	<g>
		<path d="M344.276,22.069H39.724C17.823,22.069,0,39.892,0,61.793s17.823,39.724,39.724,39.724h304.552
			c4.873,0,8.828-3.95,8.828-8.828V30.897C353.103,26.024,349.149,22.069,344.276,22.069z M335.448,83.862H39.724
			c-12.169,0-22.069-9.9-22.069-22.069s9.9-22.069,22.069-22.069h295.724V83.862z"/>
	</g>
</g>
<g>
	<g>
		<path d="M503.172,119.173h-88.276c-4.873,0-8.828,3.955-8.828,8.828v308.966c0,29.206,23.759,52.966,52.966,52.966
			S512,466.172,512,436.966V128C512,123.128,508.045,119.173,503.172,119.173z M494.345,436.966c0,19.469-15.841,35.31-35.31,35.31
			s-35.31-15.841-35.31-35.31V136.828h70.621V436.966z"/>
	</g>
</g>
<g>
	<g>
		<path d="M510.888,123.715L466.75,44.266c-1.554-2.803-4.507-4.542-7.715-4.542s-6.162,1.739-7.715,4.542l-44.138,79.448
			c-1.523,2.732-1.483,6.065,0.106,8.761s4.48,4.352,7.609,4.352h88.276c3.129,0,6.025-1.66,7.609-4.352
			C512.366,129.783,512.41,126.447,510.888,123.715z M429.899,119.173l29.135-52.445l29.131,52.445H429.899z"/>
	</g>
</g>
<g>
	<g>
		<path d="M335.448,48.552H61.793c-4.873,0-8.828,3.955-8.828,8.828c0,4.873,3.955,8.828,8.828,8.828h273.655
			c4.873,0,8.828-3.955,8.828-8.828C344.276,52.507,340.321,48.552,335.448,48.552z"/>
	</g>
</g>
<g>
	<g>
		<path d="M450.207,154.483c-4.873,0-8.828,3.955-8.828,8.828v264.828c0,4.873,3.955,8.828,8.828,8.828s8.828-3.95,8.828-8.828
			V163.311C459.034,158.438,455.08,154.483,450.207,154.483z"/>
	</g>
</g>
<g>
</g>
<g>
</g>
<g>
</g>
<g>
</g>
<g>
</g>
<g>
</g>
<g>
</g>
<g>
</g>
<g>
</g>
<g>
</g>
<g>
</g>
<g>
</g>
<g>
</g>
<g>
</g>
<g>
</g>
</svg>
