<?xml version="1.0" encoding="iso-8859-1"?>
<!-- Generator: Adobe Illustrator 19.0.0, SVG Export Plug-In . SVG Version: 6.00 Build 0)  -->
<svg version="1.1" id="Capa_1" xmlns="http://www.w3.org/2000/svg" xmlns:xlink="http://www.w3.org/1999/xlink" x="0px" y="0px"
	 viewBox="0 0 512 512" style="enable-background:new 0 0 512 512;" xml:space="preserve">
<g>
	<g>
		<path d="M209.937,372.982c-3.305-3.933-9.183-4.431-13.116-1.126c-14.704,12.372-36.887,11.408-50.506-2.188
			c-13.684-13.656-14.736-35.174-2.453-50.055c3.272-3.961,2.714-9.83-1.252-13.102c-3.97-3.272-9.835-2.718-13.107,1.252
			c-18.432,22.332-16.859,54.611,3.658,75.086c10.808,10.794,25.223,16.268,39.666,16.268c12.805-0.005,25.628-4.305,35.979-13.019
			C212.743,382.789,213.246,376.92,209.937,372.982z"/>
	</g>
</g>
<g>
	<g>
		<path d="M464.505,52.026c-63.217-63.106-166.077-63.101-229.281,0c-8.55,8.536-16.314,18.385-23.077,29.286l-30.087,38.32
			c-16.519,21.038-36.463,38.749-59.284,52.638L47.844,217.88c-2.444,1.485-4.063,4.012-4.403,6.847
			c-0.34,2.835,0.642,5.669,2.667,7.689L283.85,469.758c1.755,1.755,4.129,2.723,6.577,2.723c0.372,0,0.74-0.023,1.108-0.065
			c2.835-0.34,5.357-1.96,6.842-4.394l45.684-74.798c13.912-22.784,31.655-42.691,52.722-59.182l38.386-30.04
			c10.924-6.754,20.787-14.503,29.337-23.035C495.132,250.392,512,209.744,512,166.499S495.132,82.601,464.505,52.026z
			 M451.352,267.785c-7.643,7.629-16.519,14.569-26.382,20.633c-0.303,0.186-0.586,0.386-0.866,0.6l-38.795,30.357
			c-22.83,17.873-42.058,39.447-57.139,64.139l-39.526,64.716L67.653,227.617l64.814-39.447
			c24.729-15.053,46.345-34.243,64.246-57.041l30.408-38.73c0.214-0.279,0.414-0.568,0.6-0.866
			c6.065-9.844,13.019-18.706,20.661-26.335c55.947-55.859,147.003-55.868,202.969,0c27.103,27.061,42.03,63.036,42.03,101.296
			S478.455,240.729,451.352,267.785z"/>
	</g>
</g>
<g>
	<g>
		<path d="M118.629,388.849c-3.63-3.64-9.523-3.64-13.168-0.009l-60.709,60.606c-3.635,3.631-3.64,9.523-0.009,13.163
			c1.82,1.825,4.203,2.732,6.591,2.732c2.378,0,4.757-0.908,6.577-2.723l60.709-60.606
			C122.255,398.382,122.26,392.489,118.629,388.849z"/>
	</g>
</g>
<g>
	<g>
		<path d="M84.023,358.153H9.309c-5.139,0-9.309,4.17-9.309,9.309s4.17,9.309,9.309,9.309h74.714c5.139,0,9.309-4.17,9.309-9.309
			S89.162,358.153,84.023,358.153z"/>
	</g>
</g>
<g>
	<g>
		<path d="M130.722,423.418c-5.139,0-9.309,4.17-9.309,9.309v65.265c0,5.139,4.17,9.309,9.309,9.309
			c5.139,0,9.309-4.166,9.309-9.309v-65.265C140.031,427.589,135.86,423.418,130.722,423.418z"/>
	</g>
</g>
<g>
	<g>
		<path d="M444.1,101.289c-20.796-31.818-55.901-50.818-93.9-50.818c-40.019,0-77.269,21.541-97.219,56.222
			c-2.565,4.454-1.033,10.142,3.426,12.707c1.461,0.842,3.058,1.243,4.631,1.243c3.221,0,6.353-1.676,8.08-4.664
			c16.635-28.918,47.704-46.885,81.081-46.885c31.693,0,60.969,15.844,78.317,42.384c2.811,4.301,8.588,5.511,12.884,2.7
			C445.706,111.362,446.911,105.595,444.1,101.289z"/>
	</g>
</g>
<g>
</g>
<g>
</g>
<g>
</g>
<g>
</g>
<g>
</g>
<g>
</g>
<g>
</g>
<g>
</g>
<g>
</g>
<g>
</g>
<g>
</g>
<g>
</g>
<g>
</g>
<g>
</g>
<g>
</g>
</svg>
