<?xml version="1.0" encoding="iso-8859-1"?>
<!-- Generator: Adobe Illustrator 19.0.0, SVG Export Plug-In . SVG Version: 6.00 Build 0)  -->
<svg version="1.1" id="Capa_1" xmlns="http://www.w3.org/2000/svg" xmlns:xlink="http://www.w3.org/1999/xlink" x="0px" y="0px"
	 viewBox="0 0 512 512" style="enable-background:new 0 0 512 512;" xml:space="preserve">
<g>
	<g>
		<path d="M152.702,0H71.86c-4.958,0-8.982,4.024-8.982,8.982v449.123c0,4.958,4.024,8.982,8.982,8.982
			c4.958,0,8.982-4.024,8.982-8.982V17.965h62.877v404.211c0,4.958,4.024,8.982,8.982,8.982s8.982-4.024,8.982-8.982V8.982
			C161.684,4.024,157.66,0,152.702,0z"/>
	</g>
</g>
<g>
	<g>
		<path d="M412.093,0H152.702c-4.958,0-8.982,4.024-8.982,8.982V420.72c0,4.958,4.024,8.982,8.982,8.982s8.982-4.024,8.982-8.982
			V17.965h250.408c10.514,0,19.065,8.551,19.065,19.065v457.005H152.702c-4.958,0-8.982,4.024-8.982,8.982
			c0,4.958,4.024,8.982,8.982,8.982H440.14c4.958,0,8.982-4.024,8.982-8.982V37.03C449.123,16.613,432.51,0,412.093,0z"/>
	</g>
</g>
<g>
	<g>
		<path d="M440.14,413.193h-327.86c-27.239,0-49.403,22.164-49.403,49.404S85.041,512,112.281,512h327.86
			c4.958,0,8.982-4.024,8.982-8.982v-80.842C449.123,417.217,445.099,413.193,440.14,413.193z M431.158,494.035H112.281
			c-17.336,0-31.439-14.107-31.439-31.439s14.102-31.439,31.439-31.439h318.877V494.035z"/>
	</g>
</g>
<g>
	<g>
		<path d="M411.464,214.169c-29.085-33.356-71.015-52.484-115.043-52.484c-44.028,0-85.958,19.128-115.038,52.48
			c-2.951,3.386-2.951,8.426,0,11.807c29.076,33.352,71.006,52.484,115.038,52.484c44.027,0,85.958-19.128,115.043-52.48
			C414.41,222.59,414.41,217.551,411.464,214.169z M296.421,260.491c-36.159,0-70.728-14.641-96.036-40.421
			c25.313-25.784,59.877-40.421,96.036-40.421c36.159,0,70.723,14.641,96.04,40.421C367.144,245.85,332.58,260.491,296.421,260.491z
			"/>
	</g>
</g>
<g>
	<g>
		<path d="M296.421,161.684c-32.193,0-58.386,26.193-58.386,58.386s26.193,58.386,58.386,58.386
			c32.193,0,58.386-26.193,58.386-58.386S328.614,161.684,296.421,161.684z M296.421,260.491c-22.29,0-40.421-18.136-40.421-40.421
			s18.131-40.421,40.421-40.421c22.29,0,40.421,18.136,40.421,40.421S318.711,260.491,296.421,260.491z"/>
	</g>
</g>
<g>
</g>
<g>
</g>
<g>
</g>
<g>
</g>
<g>
</g>
<g>
</g>
<g>
</g>
<g>
</g>
<g>
</g>
<g>
</g>
<g>
</g>
<g>
</g>
<g>
</g>
<g>
</g>
<g>
</g>
</svg>
