<?xml version="1.0" encoding="UTF-8"?><svg xmlns="http://www.w3.org/2000/svg" xmlns:xlink="http://www.w3.org/1999/xlink" viewBox="0 0 402.59 42.67"><defs><style>.cls-1{filter:url(#drop-shadow-1);mix-blend-mode:color-dodge;}.cls-2{isolation:isolate;}.cls-3{fill:#fff;stroke:#fff;stroke-miterlimit:10;}</style><filter id="drop-shadow-1" x="-2.74" y="-2.08" width="422" height="61" filterUnits="userSpaceOnUse"><feOffset dx="7" dy="7"/><feGaussianBlur result="blur" stdDeviation="3"/><feFlood flood-color="#fff" flood-opacity=".75"/><feComposite in2="blur" operator="in"/><feComposite in="SourceGraphic"/></filter></defs><g class="cls-2"><g id="Layer_2"><g id="_ÎÓÈ_1"><g class="cls-1"><path class="cls-3" d="M301.61.77l97.73,41.12H3.24L100.97.77h200.64M301.7.63H100.89L2.48,42.04h397.63L301.7.63h0Z"/><rect class="cls-3" x="22" y="33.75" width="358.58" height=".14"/><rect class="cls-3" x="38.04" y="27" width="326.51" height=".14"/><rect class="cls-3" x="51.44" y="21.36" width="299.71" height=".14"/><rect class="cls-3" x="62.81" y="16.58" width="276.97" height=".14"/><rect class="cls-3" x="72.57" y="12.47" width="257.44" height=".14"/><rect class="cls-3" x="81.05" y="8.91" width="240.48" height=".14"/><rect class="cls-3" x="88.48" y="5.78" width="225.62" height=".14"/><rect class="cls-3" x="95.05" y="3.02" width="212.49" height=".14"/><polygon class="cls-3" points="355.84 42.09 279.3 .68 279.47 .58 356.01 41.98 355.84 42.09"/><polygon class="cls-3" points="311.65 42.08 256.97 .67 257.17 .59 311.85 41.99 311.65 42.08"/><polygon class="cls-3" points="267.45 42.07 234.65 .66 234.87 .6 267.68 42.01 267.45 42.07"/><polygon class="cls-3" points="223.26 42.05 212.33 .64 212.57 .62 223.51 42.03 223.26 42.05"/><polygon class="cls-3" points="179.33 42.05 179.08 42.03 190.02 .62 190.26 .64 179.33 42.05"/><polygon class="cls-3" points="135.13 42.07 134.91 42.01 167.71 .6 167.94 .66 135.13 42.07"/><polygon class="cls-3" points="90.94 42.08 90.74 41.99 145.42 .59 145.61 .67 90.94 42.08"/><polygon class="cls-3" points="46.74 42.09 46.57 41.98 123.12 .58 123.29 .68 46.74 42.09"/></g></g></g></g></svg>