<svg width="289" height="293" xmlns="http://www.w3.org/2000/svg" xmlns:xlink="http://www.w3.org/1999/xlink" xml:space="preserve" overflow="hidden"><defs><filter id="fx0" x="-10%" y="-10%" width="120%" height="120%" filterUnits="userSpaceOnUse" primitiveUnits="userSpaceOnUse"><feComponentTransfer color-interpolation-filters="sRGB"><feFuncR type="discrete" tableValues="0.000000 0.000000"/><feFuncG type="discrete" tableValues="0.000000 0.000000"/><feFuncB type="discrete" tableValues="0.000000 0.000000"/><feFuncA type="linear" slope="0.400000" intercept="0.000000"/></feComponentTransfer><feGaussianBlur stdDeviation="6.111111 6.111111"/></filter><filter id="fx1" x="-10%" y="-10%" width="120%" height="120%" filterUnits="userSpaceOnUse" primitiveUnits="userSpaceOnUse"><feComponentTransfer color-interpolation-filters="sRGB"><feFuncR type="discrete" tableValues="0.000000 0.000000"/><feFuncG type="discrete" tableValues="0.000000 0.000000"/><feFuncB type="discrete" tableValues="0.000000 0.000000"/><feFuncA type="linear" slope="0.400000" intercept="0.000000"/></feComponentTransfer><feGaussianBlur stdDeviation="6.111111 6.111111"/></filter><filter id="fx2" x="-10%" y="-10%" width="120%" height="120%" filterUnits="userSpaceOnUse" primitiveUnits="userSpaceOnUse"><feComponentTransfer color-interpolation-filters="sRGB"><feFuncR type="discrete" tableValues="1.000000 1.000000"/><feFuncG type="discrete" tableValues="1.000000 1.000000"/><feFuncB type="discrete" tableValues="1.000000 1.000000"/><feFuncA type="linear" slope="1.000000" intercept="0.000000"/></feComponentTransfer><feGaussianBlur stdDeviation="7.832471 7.832471"/></filter><clipPath id="clip3"><rect x="316" y="985" width="289" height="293"/></clipPath><clipPath id="clip4"><rect x="2.25723" y="26.1384" width="170.794" height="118.442"/></clipPath><clipPath id="clip5"><rect x="0" y="0" width="175" height="175"/></clipPath><clipPath id="clip6"><rect x="19" y="19" width="137" height="136"/></clipPath><clipPath id="clip7"><rect x="19" y="19" width="137" height="136"/></clipPath><clipPath id="clip8"><rect x="19" y="19" width="137" height="136"/></clipPath><clipPath id="clip9"><rect x="19" y="19" width="137" height="136"/></clipPath><clipPath id="clip10"><rect x="19" y="19" width="137" height="136"/></clipPath><clipPath id="clip11"><rect x="19" y="19" width="137" height="136"/></clipPath><clipPath id="clip12"><rect x="2.25723" y="26.1384" width="170.794" height="118.442"/></clipPath><clipPath id="clip13"><rect x="0" y="0" width="175" height="175"/></clipPath><clipPath id="clip14"><rect x="19" y="19" width="137" height="136"/></clipPath><clipPath id="clip15"><rect x="19" y="19" width="137" height="136"/></clipPath><clipPath id="clip16"><rect x="19" y="19" width="137" height="136"/></clipPath><clipPath id="clip17"><rect x="393" y="1050" width="137" height="136"/></clipPath><clipPath id="clip18"><rect x="393" y="1050" width="137" height="136"/></clipPath><clipPath id="clip19"><rect x="393" y="1050" width="137" height="136"/></clipPath><clipPath id="clip20"><rect x="0.520531" y="8.0094" width="89.0557" height="72.6386"/></clipPath><clipPath id="clip21"><rect x="0" y="0" width="90" height="90"/></clipPath><clipPath id="clip22"><rect x="23" y="23" width="44" height="44"/></clipPath><clipPath id="clip23"><rect x="23" y="23" width="44" height="44"/></clipPath><clipPath id="clip24"><rect x="23" y="23" width="44" height="44"/></clipPath><clipPath id="clip25"><rect x="393" y="1050" width="137" height="136"/></clipPath><clipPath id="clip26"><rect x="393" y="1050" width="137" height="136"/></clipPath><clipPath id="clip27"><rect x="393" y="1050" width="137" height="136"/></clipPath></defs><g clip-path="url(#clip3)" transform="translate(-316 -985)"><g clip-path="url(#clip4)" filter="url(#fx0)" transform="translate(374 1045)"><g clip-path="url(#clip5)"><g clip-path="url(#clip6)"><g clip-path="url(#clip7)"><g clip-path="url(#clip8)"><path d="M134.742 59.2611C109.986 44.477 65.3357 44.4718 40.5664 59.2611 27.6833 66.6255 20.5906 76.5132 20.5906 87.1023 20.5906 97.7019 27.657 107.613 40.4925 115.007 53.075 122.255 69.7733 126.247 87.5132 126.247 105.271 126.247 122.017 122.255 134.674 115.009 147.599 107.605 154.718 97.694 154.718 87.1023 154.718 76.5106 147.622 66.6255 134.742 59.2611ZM94.7006 57.8718C95.5525 57.6786 96.4 58.2122 96.5935 59.0642 97.0961 61.3207 97.3579 63.6244 97.3748 65.9363 97.3843 66.8101 96.6834 67.5259 95.8099 67.5352 94.9361 67.5447 94.2202 66.8441 94.2107 65.9703 94.1965 63.8828 93.9607 61.8027 93.5078 59.765 93.3142 58.9131 93.8482 58.0654 94.7001 57.8718 94.7003 57.8718 94.7006 57.8718 94.7006 57.8718ZM91.6613 77.9449C92.611 76.1412 93.2823 74.2042 93.6525 72.1995 93.8231 71.3426 94.6563 70.7862 95.5132 70.9571 96.3699 71.1277 96.9263 71.9606 96.7557 72.8176 96.3214 75.1424 95.5372 77.3878 94.4293 79.4774 94.0061 80.2421 93.0432 80.5186 92.2788 80.0954 91.5141 79.6723 91.2375 78.7096 91.6607 77.9449ZM87.5132 123.083C86.1974 123.083 84.8896 123.06 83.5897 123.014 84.3834 122.644 84.7269 121.701 84.357 120.908 84.3243 120.837 84.2863 120.77 84.2436 120.705 83.3023 119.283 82.5324 117.359 82.0182 115.136 81.8382 114.281 80.9992 113.734 80.1441 113.914 79.289 114.094 78.7421 114.933 78.9222 115.788 78.9264 115.808 78.9309 115.828 78.9359 115.848 79.7138 118.661 80.4019 121.264 82.1501 122.956 66.9837 122.242 52.9115 118.511 42.0719 112.264 30.2594 105.459 23.7546 96.5233 23.7546 87.1023 23.7546 77.6971 30.2831 68.785 42.1352 62.0086 52.8772 55.8703 66.7806 52.1736 81.7757 51.4063 79.2655 54.6785 77.6518 60.0864 77.6518 66.3196 77.6518 72.7295 79.3552 78.2693 81.9892 81.5071 76.7343 81.7339 71.8642 82.2665 67.9012 83.0707 62.4432 84.1755 60.0148 85.4833 58.9048 86.6619 52.1943 83.7774 48.814 79.4057 48.814 73.5653 48.814 72.6915 48.1058 71.9833 47.232 71.9833 46.3583 71.9833 45.65 72.6915 45.65 73.5653 45.65 79.6324 48.5134 84.426 54.1613 87.8142 60.1836 91.4239 69.5756 93.4699 82.1264 93.9129 81.7572 94.3928 81.4216 94.8977 81.1218 95.4238 80.687 96.1818 80.9491 97.1484 81.7071 97.5832 82.4652 98.018 83.4318 97.7559 83.8666 96.9979 84.5073 95.8799 85.8336 94.0052 87.5132 94.0052 90.4531 94.0052 93.7279 99.9774 93.7279 108.544 93.7279 117.111 90.4531 123.083 87.5132 123.083ZM110.187 88.5635C102.87 90.3059 96.5395 90.7763 87.5132 90.8411 77.0928 90.8411 68.7642 89.8874 62.5276 87.9803 63.6324 87.4371 65.5572 86.7489 68.8953 86.0977 74.0052 85.101 80.6656 84.5526 87.6529 84.5526 94.4483 84.5563 100.847 85.0596 105.952 86.0104 106.355 86.0879 106.769 86.0861 107.172 86.0054 114.938 84.406 123.478 80.9798 123.542 73.6484 123.526 72.7799 124.192 72.05 125.058 71.9852 125.931 71.9482 126.668 72.6261 126.705 73.4992 126.706 73.5218 126.706 73.5445 126.706 73.5672 126.706 78.6516 123.72 85.169 110.187 88.5635Z" fill="#BFBFBF" fill-rule="nonzero" fill-opacity="1"/><path d="M80.6145 100.848C79.7578 100.677 78.9246 101.233 78.7537 102.09 78.3105 104.357 78.1048 106.664 78.1394 108.974 78.1502 109.84 78.8552 110.537 79.7214 110.537L79.7412 110.537C80.6147 110.526 81.3145 109.809 81.3037 108.935 81.272 106.846 81.4577 104.76 81.8574 102.709 82.0283 101.852 81.4722 101.019 80.6152 100.848 80.615 100.848 80.6147 100.848 80.6145 100.848Z" fill="#BFBFBF" fill-rule="nonzero" fill-opacity="1"/></g></g></g><g clip-path="url(#clip9)"><g clip-path="url(#clip10)"><g clip-path="url(#clip11)"><path d="M134.742 59.2611C109.986 44.477 65.3357 44.4718 40.5664 59.2611 27.6833 66.6255 20.5906 76.5132 20.5906 87.1023 20.5906 97.7019 27.657 107.613 40.4925 115.007 53.075 122.255 69.7733 126.247 87.5132 126.247 105.271 126.247 122.017 122.255 134.674 115.009 147.599 107.605 154.718 97.694 154.718 87.1023 154.718 76.5106 147.622 66.6255 134.742 59.2611ZM94.7006 57.8718C95.5525 57.6786 96.4 58.2122 96.5935 59.0642 97.0961 61.3207 97.3579 63.6244 97.3748 65.9363 97.3843 66.8101 96.6834 67.5259 95.8099 67.5352 94.9361 67.5447 94.2202 66.8441 94.2107 65.9703 94.1965 63.8828 93.9607 61.8027 93.5078 59.765 93.3142 58.9131 93.8482 58.0654 94.7001 57.8718 94.7003 57.8718 94.7006 57.8718 94.7006 57.8718ZM91.6613 77.9449C92.611 76.1412 93.2823 74.2042 93.6525 72.1995 93.8231 71.3426 94.6563 70.7862 95.5132 70.9571 96.3699 71.1277 96.9263 71.9606 96.7557 72.8176 96.3214 75.1424 95.5372 77.3878 94.4293 79.4774 94.0061 80.2421 93.0432 80.5186 92.2788 80.0954 91.5141 79.6723 91.2375 78.7096 91.6607 77.9449ZM87.5132 123.083C86.1974 123.083 84.8896 123.06 83.5897 123.014 84.3834 122.644 84.7269 121.701 84.357 120.908 84.3243 120.837 84.2863 120.77 84.2436 120.705 83.3023 119.283 82.5324 117.359 82.0182 115.136 81.8382 114.281 80.9992 113.734 80.1441 113.914 79.289 114.094 78.7421 114.933 78.9222 115.788 78.9264 115.808 78.9309 115.828 78.9359 115.848 79.7138 118.661 80.4019 121.264 82.1501 122.956 66.9837 122.242 52.9115 118.511 42.0719 112.264 30.2594 105.459 23.7546 96.5233 23.7546 87.1023 23.7546 77.6971 30.2831 68.785 42.1352 62.0086 52.8772 55.8703 66.7806 52.1736 81.7757 51.4063 79.2655 54.6785 77.6518 60.0864 77.6518 66.3196 77.6518 72.7295 79.3552 78.2693 81.9892 81.5071 76.7343 81.7339 71.8642 82.2665 67.9012 83.0707 62.4432 84.1755 60.0148 85.4833 58.9048 86.6619 52.1943 83.7774 48.814 79.4057 48.814 73.5653 48.814 72.6915 48.1058 71.9833 47.232 71.9833 46.3583 71.9833 45.65 72.6915 45.65 73.5653 45.65 79.6324 48.5134 84.426 54.1613 87.8142 60.1836 91.4239 69.5756 93.4699 82.1264 93.9129 81.7572 94.3928 81.4216 94.8977 81.1218 95.4238 80.687 96.1818 80.9491 97.1484 81.7071 97.5832 82.4652 98.018 83.4318 97.7559 83.8666 96.9979 84.5073 95.8799 85.8336 94.0052 87.5132 94.0052 90.4531 94.0052 93.7279 99.9774 93.7279 108.544 93.7279 117.111 90.4531 123.083 87.5132 123.083ZM110.187 88.5635C102.87 90.3059 96.5395 90.7763 87.5132 90.8411 77.0928 90.8411 68.7642 89.8874 62.5276 87.9803 63.6324 87.4371 65.5572 86.7489 68.8953 86.0977 74.0052 85.101 80.6656 84.5526 87.6529 84.5526 94.4483 84.5563 100.847 85.0596 105.952 86.0104 106.355 86.0879 106.769 86.0861 107.172 86.0054 114.938 84.406 123.478 80.9798 123.542 73.6484 123.526 72.7799 124.192 72.05 125.058 71.9852 125.931 71.9482 126.668 72.6261 126.705 73.4992 126.706 73.5218 126.706 73.5445 126.706 73.5672 126.706 78.6516 123.72 85.169 110.187 88.5635Z" fill="#FFFFFF" fill-rule="nonzero" fill-opacity="1"/><path d="M80.6145 100.848C79.7578 100.677 78.9246 101.233 78.7537 102.09 78.3105 104.357 78.1048 106.664 78.1394 108.974 78.1502 109.84 78.8552 110.537 79.7214 110.537L79.7412 110.537C80.6147 110.526 81.3145 109.809 81.3037 108.935 81.272 106.846 81.4577 104.76 81.8574 102.709 82.0283 101.852 81.4722 101.019 80.6152 100.848 80.615 100.848 80.6147 100.848 80.6145 100.848Z" fill="#FFFFFF" fill-rule="nonzero" fill-opacity="1"/></g></g></g></g></g><g clip-path="url(#clip12)" filter="url(#fx1)" transform="translate(374 1045)"><g clip-path="url(#clip13)"><g clip-path="url(#clip14)"><g clip-path="url(#clip15)"><g clip-path="url(#clip16)"><path d="M134.742 59.2611C109.986 44.477 65.3357 44.4718 40.5664 59.2611 27.6833 66.6255 20.5906 76.5132 20.5906 87.1023 20.5906 97.7019 27.657 107.613 40.4925 115.007 53.075 122.255 69.7733 126.247 87.5132 126.247 105.271 126.247 122.017 122.255 134.674 115.009 147.599 107.605 154.718 97.694 154.718 87.1023 154.718 76.5106 147.622 66.6255 134.742 59.2611ZM94.7006 57.8718C95.5525 57.6786 96.4 58.2122 96.5935 59.0642 97.0961 61.3207 97.3579 63.6244 97.3748 65.9363 97.3843 66.8101 96.6834 67.5259 95.8099 67.5352 94.9361 67.5447 94.2202 66.8441 94.2107 65.9703 94.1965 63.8828 93.9607 61.8027 93.5078 59.765 93.3142 58.9131 93.8482 58.0654 94.7001 57.8718 94.7003 57.8718 94.7006 57.8718 94.7006 57.8718ZM91.6613 77.9449C92.611 76.1412 93.2823 74.2042 93.6525 72.1995 93.8231 71.3426 94.6563 70.7862 95.5132 70.9571 96.3699 71.1277 96.9263 71.9606 96.7557 72.8176 96.3214 75.1424 95.5372 77.3878 94.4293 79.4774 94.0061 80.2421 93.0432 80.5186 92.2788 80.0954 91.5141 79.6723 91.2375 78.7096 91.6607 77.9449ZM87.5132 123.083C86.1974 123.083 84.8896 123.06 83.5897 123.014 84.3834 122.644 84.7269 121.701 84.357 120.908 84.3243 120.837 84.2863 120.77 84.2436 120.705 83.3023 119.283 82.5324 117.359 82.0182 115.136 81.8382 114.281 80.9992 113.734 80.1441 113.914 79.289 114.094 78.7421 114.933 78.9222 115.788 78.9264 115.808 78.9309 115.828 78.9359 115.848 79.7138 118.661 80.4019 121.264 82.1501 122.956 66.9837 122.242 52.9115 118.511 42.0719 112.264 30.2594 105.459 23.7546 96.5233 23.7546 87.1023 23.7546 77.6971 30.2831 68.785 42.1352 62.0086 52.8772 55.8703 66.7806 52.1736 81.7757 51.4063 79.2655 54.6785 77.6518 60.0864 77.6518 66.3196 77.6518 72.7295 79.3552 78.2693 81.9892 81.5071 76.7343 81.7339 71.8642 82.2665 67.9012 83.0707 62.4432 84.1755 60.0148 85.4833 58.9048 86.6619 52.1943 83.7774 48.814 79.4057 48.814 73.5653 48.814 72.6915 48.1058 71.9833 47.232 71.9833 46.3583 71.9833 45.65 72.6915 45.65 73.5653 45.65 79.6324 48.5134 84.426 54.1613 87.8142 60.1836 91.4239 69.5756 93.4699 82.1264 93.9129 81.7572 94.3928 81.4216 94.8977 81.1218 95.4238 80.687 96.1818 80.9491 97.1484 81.7071 97.5832 82.4652 98.018 83.4318 97.7559 83.8666 96.9979 84.5073 95.8799 85.8336 94.0052 87.5132 94.0052 90.4531 94.0052 93.7279 99.9774 93.7279 108.544 93.7279 117.111 90.4531 123.083 87.5132 123.083ZM110.187 88.5635C102.87 90.3059 96.5395 90.7763 87.5132 90.8411 77.0928 90.8411 68.7642 89.8874 62.5276 87.9803 63.6324 87.4371 65.5572 86.7489 68.8953 86.0977 74.0052 85.101 80.6656 84.5526 87.6529 84.5526 94.4483 84.5563 100.847 85.0596 105.952 86.0104 106.355 86.0879 106.769 86.0861 107.172 86.0054 114.938 84.406 123.478 80.9798 123.542 73.6484 123.526 72.7799 124.192 72.05 125.058 71.9852 125.931 71.9482 126.668 72.6261 126.705 73.4992 126.706 73.5218 126.706 73.5445 126.706 73.5672 126.706 78.6516 123.72 85.169 110.187 88.5635Z" fill="#BFBFBF" fill-rule="nonzero" fill-opacity="1"/><path d="M80.6145 100.848C79.7578 100.677 78.9246 101.233 78.7537 102.09 78.3105 104.357 78.1048 106.664 78.1394 108.974 78.1502 109.84 78.8552 110.537 79.7214 110.537L79.7412 110.537C80.6147 110.526 81.3145 109.809 81.3037 108.935 81.272 106.846 81.4577 104.76 81.8574 102.709 82.0283 101.852 81.4722 101.019 80.6152 100.848 80.615 100.848 80.6147 100.848 80.6145 100.848Z" fill="#BFBFBF" fill-rule="nonzero" fill-opacity="1"/></g></g></g></g></g><g clip-path="url(#clip17)"><g clip-path="url(#clip18)"><g clip-path="url(#clip19)"><path d="M508.742 1090.51C483.986 1075.73 439.336 1075.72 414.566 1090.51 401.683 1097.88 394.591 1107.76 394.591 1118.35 394.591 1128.95 401.657 1138.86 414.493 1146.26 427.075 1153.51 443.773 1157.5 461.513 1157.5 479.271 1157.5 496.017 1153.51 508.674 1146.26 521.599 1138.86 528.718 1128.94 528.718 1118.35 528.718 1107.76 521.622 1097.88 508.742 1090.51ZM468.701 1089.12C469.553 1088.93 470.4 1089.46 470.594 1090.31 471.096 1092.57 471.358 1094.87 471.375 1097.19 471.384 1098.06 470.683 1098.78 469.81 1098.79 468.936 1098.79 468.22 1098.09 468.211 1097.22 468.196 1095.13 467.961 1093.05 467.508 1091.02 467.314 1090.16 467.848 1089.32 468.7 1089.12 468.7 1089.12 468.701 1089.12 468.701 1089.12ZM465.661 1109.19C466.611 1107.39 467.282 1105.45 467.653 1103.45 467.823 1102.59 468.656 1102.04 469.513 1102.21 470.37 1102.38 470.926 1103.21 470.756 1104.07 470.321 1106.39 469.537 1108.64 468.429 1110.73 468.006 1111.49 467.043 1111.77 466.279 1111.35 465.514 1110.92 465.238 1109.96 465.661 1109.19ZM461.513 1154.33C460.197 1154.33 458.89 1154.31 457.59 1154.26 458.383 1153.89 458.727 1152.95 458.357 1152.16 458.324 1152.09 458.286 1152.02 458.244 1151.95 457.302 1150.53 456.532 1148.61 456.018 1146.39 455.838 1145.53 454.999 1144.98 454.144 1145.16 453.289 1145.34 452.742 1146.18 452.922 1147.04 452.926 1147.06 452.931 1147.08 452.936 1147.1 453.714 1149.91 454.402 1152.51 456.15 1154.21 440.984 1153.49 426.911 1149.76 416.072 1143.51 404.259 1136.71 397.755 1127.77 397.755 1118.35 397.755 1108.95 404.283 1100.03 416.135 1093.26 426.877 1087.12 440.781 1083.42 455.776 1082.66 453.266 1085.93 451.652 1091.34 451.652 1097.57 451.652 1103.98 453.355 1109.52 455.989 1112.76 450.734 1112.98 445.864 1113.52 441.901 1114.32 436.443 1115.43 434.015 1116.73 432.905 1117.91 426.194 1115.03 422.814 1110.66 422.814 1104.82 422.814 1103.94 422.106 1103.23 421.232 1103.23 420.358 1103.23 419.65 1103.94 419.65 1104.82 419.65 1110.88 422.513 1115.68 428.161 1119.06 434.184 1122.67 443.576 1124.72 456.126 1125.16 455.757 1125.64 455.422 1126.15 455.122 1126.67 454.687 1127.43 454.949 1128.4 455.707 1128.83 456.465 1129.27 457.432 1129.01 457.867 1128.25 458.507 1127.13 459.834 1125.26 461.513 1125.26 464.453 1125.26 467.728 1131.23 467.728 1139.79 467.728 1148.36 464.453 1154.33 461.513 1154.33ZM484.187 1119.81C476.87 1121.56 470.539 1122.03 461.513 1122.09 451.093 1122.09 442.764 1121.14 436.528 1119.23 437.632 1118.69 439.557 1118 442.895 1117.35 448.005 1116.35 454.666 1115.8 461.653 1115.8 468.448 1115.81 474.847 1116.31 479.952 1117.26 480.355 1117.34 480.769 1117.34 481.172 1117.26 488.938 1115.66 497.478 1112.23 497.542 1104.9 497.526 1104.03 498.192 1103.3 499.058 1103.24 499.931 1103.2 500.668 1103.88 500.705 1104.75 500.706 1104.77 500.706 1104.79 500.706 1104.82 500.706 1109.9 497.72 1116.42 484.187 1119.81Z" fill="#BFBFBF" fill-rule="nonzero" fill-opacity="1"/><path d="M454.614 1132.1C453.758 1131.93 452.925 1132.48 452.754 1133.34 452.31 1135.61 452.105 1137.91 452.139 1140.22 452.15 1141.09 452.855 1141.79 453.721 1141.79L453.741 1141.79C454.615 1141.78 455.315 1141.06 455.304 1140.19 455.272 1138.1 455.458 1136.01 455.857 1133.96 456.028 1133.1 455.472 1132.27 454.615 1132.1 454.615 1132.1 454.615 1132.1 454.614 1132.1Z" fill="#BFBFBF" fill-rule="nonzero" fill-opacity="1"/></g></g></g><g clip-path="url(#clip20)" filter="url(#fx2)" transform="matrix(3.18889 0 0 3.18889 318 989)"><g clip-path="url(#clip21)"><g clip-path="url(#clip22)" transform="matrix(1 0 0 1 4.29153e-06 6.4373e-06)"><g clip-path="url(#clip23)" transform="matrix(1 0 0 1 4.29153e-06 6.4373e-06)"><g clip-path="url(#clip24)" transform="matrix(1 0 0 1 4.29153e-06 6.4373e-06)"><path d="M59.8146 36.1446C52.0513 31.5085 38.0495 31.5068 30.2821 36.1446 26.2422 38.454 24.018 41.5547 24.018 44.8753 24.018 48.1992 26.2339 51.3073 30.259 53.6258 34.2047 55.8988 39.4411 57.1506 45.0041 57.1506 50.5729 57.1506 55.8242 55.8988 59.7931 53.6266 63.8463 51.3048 66.0788 48.1967 66.0788 44.8753 66.0788 41.5538 63.8537 38.454 59.8146 36.1446ZM47.258 35.709C47.5252 35.6483 47.7909 35.8157 47.8516 36.0828 48.0092 36.7905 48.0913 37.5129 48.0966 38.2379 48.0996 38.5119 47.8798 38.7364 47.6059 38.7393 47.3319 38.7422 47.1074 38.5225 47.1044 38.2485 47.0999 37.5939 47.026 36.9416 46.884 36.3026 46.8233 36.0355 46.9907 35.7696 47.2579 35.709 47.258 35.709 47.258 35.709 47.258 35.709ZM46.3049 42.0036C46.6028 41.438 46.8133 40.8306 46.9294 40.202 46.9829 39.9332 47.2441 39.7588 47.5129 39.8123 47.7815 39.8658 47.956 40.127 47.9025 40.3958 47.7663 41.1248 47.5204 41.8289 47.173 42.4842 47.0402 42.724 46.7383 42.8107 46.4986 42.678 46.2588 42.5453 46.1721 42.2434 46.3048 42.0036ZM45.0041 56.1584C44.5915 56.1584 44.1814 56.1512 43.7738 56.1369 44.0227 56.0209 44.1304 55.7252 44.0144 55.4763 44.0041 55.4542 43.9922 55.433 43.9788 55.4126 43.6837 54.9669 43.4422 54.3633 43.281 53.6663 43.2245 53.3982 42.9614 53.2267 42.6933 53.2832 42.4251 53.3396 42.2536 53.6027 42.3101 53.8709 42.3114 53.8772 42.3128 53.8834 42.3144 53.8896 42.5583 54.7718 42.7741 55.5879 43.3223 56.1187 38.5663 55.8947 34.1534 54.7247 30.7543 52.7659 27.05 50.6318 25.0102 47.8296 25.0102 44.8753 25.0102 41.9259 27.0574 39.1312 30.7741 37.0062 34.1427 35.0813 38.5026 33.9221 43.2049 33.6814 42.4178 34.7076 41.9117 36.4034 41.9117 38.3581 41.9117 40.3681 42.4459 42.1054 43.2719 43.1207 41.624 43.1918 40.0968 43.3588 38.8541 43.611 37.1425 43.9575 36.381 44.3676 36.0329 44.7372 33.9285 43.8326 32.8685 42.4617 32.8685 40.6303 32.8685 40.3562 32.6464 40.1341 32.3724 40.1341 32.0984 40.1341 31.8763 40.3562 31.8763 40.6303 31.8763 42.5328 32.7743 44.036 34.5454 45.0985 36.4339 46.2305 39.3791 46.8721 43.3149 47.011 43.1991 47.1615 43.0939 47.3199 42.9999 47.4848 42.8635 47.7225 42.9457 48.0257 43.1834 48.162 43.4211 48.2983 43.7243 48.2162 43.8606 47.9784 44.0615 47.6279 44.4774 47.04 45.0041 47.04 45.9261 47.04 46.953 48.9128 46.953 51.5992 46.953 54.2856 45.9261 56.1584 45.0041 56.1584ZM52.1145 45.3335C49.8199 45.8799 47.8347 46.0274 45.0041 46.0478 41.7364 46.0478 39.1247 45.7487 37.1689 45.1506 37.5154 44.9803 38.119 44.7645 39.1658 44.5603 40.7682 44.2477 42.8568 44.0757 45.048 44.0757 47.1789 44.0769 49.1855 44.2347 50.7863 44.5329 50.9127 44.5572 51.0427 44.5566 51.1689 44.5313 53.6044 44.0298 56.2824 42.9553 56.3024 40.6563 56.2975 40.3839 56.5061 40.1551 56.7777 40.1347 57.0515 40.1231 57.2827 40.3357 57.2943 40.6095 57.2945 40.6166 57.2947 40.6237 57.2947 40.6308 57.2946 42.2252 56.3581 44.269 52.1145 45.3335Z" fill="#FFFFFF" fill-rule="nonzero" fill-opacity="1"/><path d="M42.8408 49.1858C42.5721 49.1322 42.3109 49.3066 42.2573 49.5752 42.1183 50.2862 42.0538 51.0097 42.0646 51.7341 42.068 52.0057 42.2891 52.224 42.5607 52.224L42.5669 52.224C42.8409 52.2207 43.0603 51.9958 43.0569 51.7219 43.047 51.0668 43.1052 50.4124 43.2306 49.7694 43.2841 49.5007 43.1097 49.2395 42.841 49.1859 42.8409 49.1858 42.8409 49.1858 42.8408 49.1858Z" fill="#FFFFFF" fill-rule="nonzero" fill-opacity="1"/></g></g></g></g></g><g clip-path="url(#clip25)"><g clip-path="url(#clip26)"><g clip-path="url(#clip27)"><path d="M508.742 1090.51C483.986 1075.73 439.336 1075.72 414.566 1090.51 401.683 1097.88 394.591 1107.76 394.591 1118.35 394.591 1128.95 401.657 1138.86 414.493 1146.26 427.075 1153.51 443.773 1157.5 461.513 1157.5 479.271 1157.5 496.017 1153.51 508.674 1146.26 521.599 1138.86 528.718 1128.94 528.718 1118.35 528.718 1107.76 521.622 1097.88 508.742 1090.51ZM468.701 1089.12C469.553 1088.93 470.4 1089.46 470.594 1090.31 471.096 1092.57 471.358 1094.87 471.375 1097.19 471.384 1098.06 470.683 1098.78 469.81 1098.79 468.936 1098.79 468.22 1098.09 468.211 1097.22 468.196 1095.13 467.961 1093.05 467.508 1091.02 467.314 1090.16 467.848 1089.32 468.7 1089.12 468.7 1089.12 468.701 1089.12 468.701 1089.12ZM465.661 1109.19C466.611 1107.39 467.282 1105.45 467.653 1103.45 467.823 1102.59 468.656 1102.04 469.513 1102.21 470.37 1102.38 470.926 1103.21 470.756 1104.07 470.321 1106.39 469.537 1108.64 468.429 1110.73 468.006 1111.49 467.043 1111.77 466.279 1111.35 465.514 1110.92 465.238 1109.96 465.661 1109.19ZM461.513 1154.33C460.197 1154.33 458.89 1154.31 457.59 1154.26 458.383 1153.89 458.727 1152.95 458.357 1152.16 458.324 1152.09 458.286 1152.02 458.244 1151.95 457.302 1150.53 456.532 1148.61 456.018 1146.39 455.838 1145.53 454.999 1144.98 454.144 1145.16 453.289 1145.34 452.742 1146.18 452.922 1147.04 452.926 1147.06 452.931 1147.08 452.936 1147.1 453.714 1149.91 454.402 1152.51 456.15 1154.21 440.984 1153.49 426.911 1149.76 416.072 1143.51 404.259 1136.71 397.755 1127.77 397.755 1118.35 397.755 1108.95 404.283 1100.03 416.135 1093.26 426.877 1087.12 440.781 1083.42 455.776 1082.66 453.266 1085.93 451.652 1091.34 451.652 1097.57 451.652 1103.98 453.355 1109.52 455.989 1112.76 450.734 1112.98 445.864 1113.52 441.901 1114.32 436.443 1115.43 434.015 1116.73 432.905 1117.91 426.194 1115.03 422.814 1110.66 422.814 1104.82 422.814 1103.94 422.106 1103.23 421.232 1103.23 420.358 1103.23 419.65 1103.94 419.65 1104.82 419.65 1110.88 422.513 1115.68 428.161 1119.06 434.184 1122.67 443.576 1124.72 456.126 1125.16 455.757 1125.64 455.422 1126.15 455.122 1126.67 454.687 1127.43 454.949 1128.4 455.707 1128.83 456.465 1129.27 457.432 1129.01 457.867 1128.25 458.507 1127.13 459.834 1125.26 461.513 1125.26 464.453 1125.26 467.728 1131.23 467.728 1139.79 467.728 1148.36 464.453 1154.33 461.513 1154.33ZM484.187 1119.81C476.87 1121.56 470.539 1122.03 461.513 1122.09 451.093 1122.09 442.764 1121.14 436.528 1119.23 437.632 1118.69 439.557 1118 442.895 1117.35 448.005 1116.35 454.666 1115.8 461.653 1115.8 468.448 1115.81 474.847 1116.31 479.952 1117.26 480.355 1117.34 480.769 1117.34 481.172 1117.26 488.938 1115.66 497.478 1112.23 497.542 1104.9 497.526 1104.03 498.192 1103.3 499.058 1103.24 499.931 1103.2 500.668 1103.88 500.705 1104.75 500.706 1104.77 500.706 1104.79 500.706 1104.82 500.706 1109.9 497.72 1116.42 484.187 1119.81Z" fill="#FFFFFF" fill-rule="nonzero" fill-opacity="1"/><path d="M454.614 1132.1C453.758 1131.93 452.925 1132.48 452.754 1133.34 452.31 1135.61 452.105 1137.91 452.139 1140.22 452.15 1141.09 452.855 1141.79 453.721 1141.79L453.741 1141.79C454.615 1141.78 455.315 1141.06 455.304 1140.19 455.272 1138.1 455.458 1136.01 455.857 1133.96 456.028 1133.1 455.472 1132.27 454.615 1132.1 454.615 1132.1 454.615 1132.1 454.614 1132.1Z" fill="#FFFFFF" fill-rule="nonzero" fill-opacity="1"/></g></g></g></g></svg>