<svg width="431" height="431" xmlns="http://www.w3.org/2000/svg" xmlns:xlink="http://www.w3.org/1999/xlink" xml:space="preserve" overflow="hidden"><defs><filter id="fx0" x="-10%" y="-10%" width="120%" height="120%" filterUnits="userSpaceOnUse" primitiveUnits="userSpaceOnUse"><feComponentTransfer color-interpolation-filters="sRGB"><feFuncR type="discrete" tableValues="0.000000 0.000000"/><feFuncG type="discrete" tableValues="0.000000 0.000000"/><feFuncB type="discrete" tableValues="0.000000 0.000000"/><feFuncA type="linear" slope="0.400000" intercept="0.000000"/></feComponentTransfer><feGaussianBlur stdDeviation="6.111111 6.111111"/></filter><filter id="fx1" x="-10%" y="-10%" width="120%" height="120%" filterUnits="userSpaceOnUse" primitiveUnits="userSpaceOnUse"><feComponentTransfer color-interpolation-filters="sRGB"><feFuncR type="discrete" tableValues="0.000000 0.000000"/><feFuncG type="discrete" tableValues="0.000000 0.000000"/><feFuncB type="discrete" tableValues="0.000000 0.000000"/><feFuncA type="linear" slope="0.400000" intercept="0.000000"/></feComponentTransfer><feGaussianBlur stdDeviation="6.111111 6.111111"/></filter><filter id="fx2" x="-10%" y="-10%" width="120%" height="120%" filterUnits="userSpaceOnUse" primitiveUnits="userSpaceOnUse"><feComponentTransfer color-interpolation-filters="sRGB"><feFuncR type="discrete" tableValues="1.000000 1.000000"/><feFuncG type="discrete" tableValues="1.000000 1.000000"/><feFuncB type="discrete" tableValues="1.000000 1.000000"/><feFuncA type="linear" slope="1.000000" intercept="0.000000"/></feComponentTransfer><feGaussianBlur stdDeviation="14.250403 14.250403"/></filter><clipPath id="clip3"><rect x="82" y="1063" width="431" height="431"/></clipPath><clipPath id="clip4"><rect x="3.2122" y="2.6272" width="161.647" height="159.29"/></clipPath><clipPath id="clip5"><rect x="0" y="0" width="168" height="166"/></clipPath><clipPath id="clip6"><rect x="20" y="19" width="127" height="127"/></clipPath><clipPath id="clip7"><rect x="20" y="19" width="127" height="127"/></clipPath><clipPath id="clip8"><rect x="20" y="19" width="127" height="127"/></clipPath><clipPath id="clip9"><rect x="21" y="19" width="127" height="127"/></clipPath><clipPath id="clip10"><rect x="21" y="19" width="127" height="127"/></clipPath><clipPath id="clip11"><rect x="21" y="19" width="127" height="127"/></clipPath><clipPath id="clip12"><rect x="3.2122" y="2.6272" width="160.635" height="159.29"/></clipPath><clipPath id="clip13"><rect x="0" y="0" width="167" height="166"/></clipPath><clipPath id="clip14"><rect x="20" y="19" width="127" height="127"/></clipPath><clipPath id="clip15"><rect x="20" y="19" width="127" height="127"/></clipPath><clipPath id="clip16"><rect x="20" y="19" width="127" height="127"/></clipPath><clipPath id="clip17"><rect x="235" y="1215" width="127" height="126"/></clipPath><clipPath id="clip18"><rect x="235" y="1215" width="127" height="126"/></clipPath><clipPath id="clip19"><rect x="235" y="1215" width="127" height="126"/></clipPath><clipPath id="clip20"><rect x="0.727844" y="0.635864" width="120.561" height="120.456"/></clipPath><clipPath id="clip21"><rect x="0" y="0" width="122" height="122"/></clipPath><clipPath id="clip22"><rect x="43" y="43" width="36" height="36"/></clipPath><clipPath id="clip23"><rect x="43" y="43" width="36" height="36"/></clipPath><clipPath id="clip24"><rect x="43" y="43" width="36" height="36"/></clipPath><clipPath id="clip25"><rect x="236" y="1215" width="127" height="126"/></clipPath><clipPath id="clip26"><rect x="236" y="1215" width="127" height="126"/></clipPath><clipPath id="clip27"><rect x="236" y="1215" width="127" height="126"/></clipPath></defs><g clip-path="url(#clip3)" transform="translate(-82 -1063)"><g clip-path="url(#clip4)" filter="url(#fx0)" transform="translate(215 1209)"><g clip-path="url(#clip5)"><g clip-path="url(#clip6)"><g clip-path="url(#clip7)"><g clip-path="url(#clip8)"><path d="M106.741 61.1788 112.35 56.3785C112.979 55.8588 113.067 54.928 112.547 54.2998 112.028 53.6712 111.097 53.5831 110.469 54.1026 110.456 54.1132 110.443 54.1241 110.431 54.1349L104.821 58.9342C104.21 59.4746 104.153 60.4078 104.694 61.0186 105.221 61.6149 106.127 61.6853 106.741 61.1778ZM89.7608 34.8805 95.37 30.0802C95.9986 29.5605 96.0867 28.6298 95.5669 28.0015 95.0472 27.373 94.1164 27.2849 93.4882 27.8044 93.4754 27.8149 93.4628 27.8258 93.4505 27.8366L87.8406 32.6369C87.2298 33.1773 87.1729 34.1105 87.7133 34.7213 88.241 35.3176 89.1466 35.388 89.7601 34.8805Z" fill="#BFBFBF" fill-rule="nonzero" fill-opacity="1" transform="matrix(1.00794 0 0 1 20.0001 19.7501)"/><path d="M1.71281 61.9171 2.32558 76.946C2.42616 79.4033 3.2065 81.7842 4.5798 83.8243L18.5456 104.575C19.5777 106.112 20.9218 107.415 22.4905 108.399L43.2361 121.462C45.9346 123.161 49.1539 123.833 52.3071 123.357L60.8244 122.065C63.3095 121.689 65.637 120.616 67.5354 118.969L119.939 73.5548C122.852 71.0309 124.524 67.3661 124.523 63.5118L124.523 48.8298C124.525 46.2254 123.76 43.6781 122.323 41.5061L108.399 20.4208C107.401 18.9056 106.102 17.6122 104.582 16.6211L84.8924 3.748C82.1022 1.9195 78.725 1.21034 75.435 1.76203L65.4904 3.4207C63.1161 3.81607 60.8933 4.84865 59.0599 6.40827L6.37628 51.2563C3.25535 53.8964 1.53324 57.8332 1.71281 61.9171ZM50.3679 26.0711 55.9764 21.2698C56.5961 20.7391 57.5288 20.8113 58.0596 21.431 58.5904 22.0508 58.518 22.9835 57.8984 23.5142L52.2875 28.313C51.6865 28.8643 50.7523 28.8239 50.2013 28.223 49.6501 27.622 49.6904 26.6878 50.2914 26.1366 50.316 26.114 50.3416 26.092 50.3679 26.0711ZM39.1485 35.6712 44.7595 30.87C45.3791 30.3399 46.3113 30.4127 46.8414 31.0324 47.3715 31.652 47.2987 32.5842 46.679 33.1143L41.0705 37.9156C40.4509 38.4464 39.5182 38.3741 38.9873 37.7544 38.4565 37.1348 38.5289 36.2021 39.1485 35.6712ZM27.9316 45.2713 33.5401 40.4701C34.1597 39.94 35.0919 40.0128 35.622 40.6325 36.1521 41.2521 36.0793 42.1843 35.4596 42.7144L29.8511 47.5157C29.2315 48.0458 28.2993 47.9729 27.7692 47.3533 27.2391 46.7336 27.3119 45.8014 27.9316 45.2713ZM18.8803 51.8223C19.3708 51.7441 19.8683 51.7185 20.3642 51.7461L22.3207 50.0702C22.9404 49.5393 23.8731 49.6117 24.4038 50.2313 24.9347 50.851 24.8623 51.7837 24.2427 52.3145L23.7382 52.7452C23.8243 52.7723 26.4403 54.5023 26.6101 54.6081 27.2856 55.0651 27.4628 55.983 27.0058 56.6583 26.5589 57.3193 25.6675 57.5056 24.9932 57.0789L22.4388 55.4079C21.521 54.8107 20.4154 54.5724 19.3331 54.7385 18.5324 54.8931 17.758 54.3692 17.6036 53.5684 17.4491 52.7676 17.973 51.9934 18.7738 51.8388 18.809 51.8322 18.8446 51.8265 18.8803 51.8223ZM7.22038 53.7714 11.5812 53.0971C12.385 52.96 13.1479 53.5005 13.2851 54.3042 13.4214 55.1033 12.8883 55.8627 12.0906 56.0059L7.72979 56.6802C6.92716 56.8244 6.15962 56.2907 6.01548 55.4879 5.87132 54.6854 6.40515 53.9178 7.20778 53.7736 7.21199 53.7729 7.21617 53.7721 7.22038 53.7714ZM5.87917 76.6064 64.1615 26.6347C64.867 26.0308 65.2472 25.1301 65.1877 24.2033L64.7668 17.6351 69.1153 13.9141C69.735 13.3841 69.8078 12.4519 69.2777 11.8322 68.7477 11.2124 67.8155 11.1397 67.1958 11.6697L64.5306 13.951 64.0778 6.8414C64.6928 6.61226 65.3282 6.44169 65.9752 6.33198L75.2381 4.78898 72.8067 6.87093C72.1696 7.37985 72.0655 8.30895 72.5744 8.94613 73.0833 9.58334 74.0126 9.68734 74.6497 9.17842 74.6758 9.15743 74.7014 9.13555 74.7262 9.11284L79.8056 4.76683C81.0417 5.03573 82.2183 5.52777 83.278 6.21878L102.965 19.0944C103.098 19.1805 103.226 19.2691 103.354 19.3602L99.06 23.0368C98.4228 23.5457 98.3187 24.4748 98.8277 25.1121 99.3366 25.7492 100.266 25.8531 100.903 25.3444 100.929 25.3233 100.955 25.3013 100.979 25.2787L105.485 21.4249C105.64 21.6267 105.793 21.8334 105.936 22.0475L119.86 43.1328C120.281 43.7726 120.63 44.4568 120.901 45.1729L116.04 49.3343C115.403 49.8433 115.299 50.7723 115.808 51.4096 116.317 52.0468 117.246 52.1506 117.883 51.6417 117.909 51.6208 117.935 51.5989 117.96 51.5762L121.558 48.4976C121.563 48.6084 121.57 48.7191 121.57 48.8298L121.57 63.5118C121.57 64.9357 121.275 66.3441 120.704 67.6486L113.068 68.3893C112.457 68.4484 111.879 68.6972 111.416 69.1006 105.574 74.1996 65.5568 109.024 65.5174 109.066L65.4953 113.235C65.4926 114.047 64.8333 114.704 64.0212 114.704L64.0113 114.704C63.1958 114.7 62.538 114.036 62.5422 113.22 62.5422 113.22 62.5422 113.22 62.5422 113.22L62.552 111.643 52.8633 120.059C51.3474 121.304 49.4648 119.198 50.9118 117.844L62.5717 107.71 62.5815 105.837C62.5857 105.025 63.2455 104.368 64.0581 104.368L64.0655 104.368C64.6465 104.372 65.1714 104.715 65.4067 105.247L106.108 69.8044C106.724 69.2694 106.789 68.3367 106.254 67.7212 106.16 67.6129 106.05 67.5187 105.928 67.4419 104.996 66.8562 103.891 66.1327 103.113 65.6257 102.563 65.2664 101.841 65.3156 101.344 65.7463L95.5236 70.7789C94.9039 71.3097 93.9712 71.2374 93.4404 70.6177 92.9096 69.9981 92.9819 69.0654 93.6016 68.5345L98.0879 64.6561C98.7051 64.1231 98.7733 63.1906 98.2402 62.5734 98.1477 62.4661 98.0399 62.3726 97.9205 62.2961L85.1975 54.1381C84.6492 53.7864 83.9353 53.8354 83.4404 54.2587L54.7361 78.836 58.6637 84.7865C59.1316 85.4544 58.9694 86.3753 58.3012 86.8431 57.6333 87.311 56.7127 87.1485 56.2449 86.4807 56.2294 86.4585 56.2146 86.4361 56.2003 86.4132L52.4794 80.7801 24.57 104.833C23.0565 106.064 21.2034 103.918 22.6431 102.599L81.0238 52.4425C81.6016 51.9471 81.7082 51.0937 81.2699 50.4713L77.5711 45.232 84.1516 39.6801C84.7888 39.1712 84.8929 38.2422 84.3839 37.6048 83.875 36.9677 82.946 36.8638 82.3086 37.3727 82.2825 37.3936 82.257 37.4155 82.2321 37.4382L75.878 42.835C75.7598 42.6578 69.4082 33.6803 66.9792 30.2301 66.5102 29.5642 65.5898 29.4045 64.9239 29.8738 64.8857 29.9006 64.849 29.9291 64.8136 29.9594L31.8715 58.1346 38.9689 62.6874C39.6444 63.1444 39.8216 64.0623 39.3646 64.7376 38.9177 65.3986 38.0263 65.5849 37.3521 65.1581L29.5829 60.1009 7.80116 78.8508C6.25323 80.0812 4.44691 77.9304 5.87917 76.6064ZM65.579 97.4702 65.574 98.4718C65.5694 99.2874 64.9044 99.9444 64.0889 99.9398 63.2733 99.9351 62.6162 99.2701 62.6209 98.4546L62.6258 97.4702C62.6266 96.6047 62.3724 95.7584 61.8949 95.0363L60.2683 92.5754C59.8184 91.8952 60.0052 90.979 60.6854 90.5291 61.3656 90.0793 62.2818 90.2661 62.7317 90.9463L64.3583 93.4072C64.3805 93.4417 64.3977 93.4761 64.4199 93.5106L65.5568 92.536C66.1765 92.0059 67.1087 92.0788 67.6388 92.6984 68.1688 93.3181 68.096 94.2503 67.4763 94.7804L65.5076 96.4637C65.5548 96.7971 65.5787 97.1335 65.579 97.4702ZM71.1653 87.7347 76.7762 82.9359C77.3959 82.4058 78.3281 82.4787 78.8582 83.0984 79.3882 83.718 79.3154 84.6502 78.6957 85.1803L73.0848 89.9791C72.4651 90.5092 71.5329 90.4364 71.0029 89.8167 70.4728 89.197 70.5456 88.2648 71.1653 87.7347ZM82.3847 78.1346 87.9931 73.3358C88.5941 72.7846 89.5283 72.8249 90.0793 73.4259 90.6305 74.0269 90.5902 74.961 89.9892 75.5123 89.9646 75.5349 89.939 75.5568 89.9127 75.5777L84.3042 80.379C83.6845 80.9091 82.7523 80.8363 82.2223 80.2166 81.6922 79.5969 81.765 78.6647 82.3847 78.1346ZM50.5279 72.4647C50.9777 73.1456 50.7905 74.0623 50.1095 74.5121 49.4286 74.962 48.5119 74.7747 48.062 74.0938L46.3271 71.4655C45.9941 70.9591 45.5612 70.5262 45.0548 70.1932L43.5315 69.199C42.834 68.7762 42.6113 67.8684 43.0341 67.1709 43.4569 66.4735 44.3647 66.2508 45.0622 66.6736 45.0907 66.6908 45.1185 66.709 45.1458 66.7282L46.6716 67.7249C46.7036 67.7446 46.7331 67.7667 46.7651 67.7889L48.5764 66.2385C49.196 65.7084 50.1282 65.7812 50.6583 66.4009 51.1884 67.0206 51.1156 67.9528 50.4959 68.4829L48.8372 69.9028ZM54.1848 61.4397 59.7958 56.6384C60.4154 56.1083 61.3476 56.1811 61.8777 56.8008 62.4078 57.4205 62.335 58.3527 61.7153 58.8828L56.1068 63.6816C55.4926 64.2178 54.5599 64.1548 54.0234 63.5406 53.4872 62.9261 53.5502 61.9934 54.1647 61.4571 54.1713 61.4512 54.1779 61.4453 54.1848 61.4397ZM65.4042 51.8371 71.0127 47.0383C71.6324 46.5082 72.5646 46.581 73.0947 47.2007 73.6247 47.8204 73.5519 48.7526 72.9322 49.2827L67.3238 54.0815C66.7041 54.6116 65.7719 54.5387 65.2418 53.9191 64.7117 53.2994 64.7846 52.3672 65.4042 51.8371Z" fill="#BFBFBF" fill-rule="nonzero" fill-opacity="1" transform="matrix(1.00794 0 0 1 20.0001 19.7501)"/></g></g></g><g clip-path="url(#clip9)"><g clip-path="url(#clip10)"><g clip-path="url(#clip11)"><path d="M128.741 80.9289 134.351 76.1286C134.979 75.6089 135.067 74.6782 134.548 74.0499 134.028 73.4214 133.097 73.3333 132.469 73.8528 132.456 73.8633 132.443 73.8742 132.431 73.885L126.821 78.6843C126.21 79.2247 126.153 80.1579 126.694 80.7687 127.222 81.365 128.127 81.4354 128.741 80.9279ZM111.761 54.6307 117.37 49.8304C117.999 49.3106 118.087 48.3799 117.567 47.7516 117.047 47.1231 116.117 47.035 115.488 47.5545 115.475 47.5651 115.463 47.5759 115.451 47.5867L109.841 52.387C109.23 52.9274 109.173 53.8606 109.713 54.4714 110.241 55.0677 111.147 55.1381 111.76 54.6307Z" fill="#FFFFFF" fill-rule="nonzero" fill-opacity="1"/><path d="M23.7126 81.6672 24.3254 96.6961C24.426 99.1534 25.2063 101.534 26.5796 103.574L40.5455 124.325C41.5776 125.862 42.9216 127.165 44.4904 128.149L65.2361 141.212C67.9345 142.911 71.1539 143.584 74.3071 143.107L82.8244 141.815C85.3095 141.44 87.6371 140.366 89.5354 138.719L141.939 93.305C144.852 90.781 146.525 87.1162 146.523 83.2619L146.523 68.58C146.526 65.9756 145.76 63.4282 144.323 61.2562L130.399 40.171C129.401 38.6558 128.102 37.3623 126.582 36.3713L106.892 23.4981C104.102 21.6696 100.725 20.9605 97.4351 21.5121L87.4904 23.1708C85.1161 23.5662 82.8933 24.5988 81.06 26.1584L28.3761 71.0064C25.2552 73.6465 23.5331 77.5833 23.7126 81.6672ZM72.3679 45.8213 77.9764 41.02C78.5961 40.4892 79.5288 40.5614 80.0596 41.1812 80.5904 41.8009 80.5181 42.7336 79.8984 43.2643L74.2874 48.0632C73.6865 48.6144 72.7523 48.5741 72.2013 47.9731 71.6501 47.3721 71.6904 46.438 72.2914 45.8867 72.316 45.8641 72.3416 45.8422 72.3679 45.8213ZM61.1485 55.4214 66.7594 50.6201C67.3791 50.09 68.3113 50.1628 68.8414 50.7825 69.3715 51.4022 69.2986 52.3344 68.679 52.8644L63.0705 57.6657C62.4508 58.1966 61.5181 58.1242 60.9873 57.5045 60.4565 56.8849 60.5288 55.9522 61.1485 55.4214ZM49.9315 65.0215 55.54 60.2202C56.1597 59.6901 57.0919 59.7629 57.6219 60.3826 58.152 61.0023 58.0792 61.9345 57.4595 62.4646L51.851 67.2658C51.2314 67.7959 50.2992 67.7231 49.7691 67.1034 49.239 66.4837 49.3118 65.5515 49.9315 65.0215ZM40.8802 71.5725C41.3707 71.4942 41.8682 71.4686 42.3641 71.4962L44.3206 69.8203C44.9403 69.2895 45.873 69.3618 46.4038 69.9815 46.9346 70.6011 46.8622 71.5338 46.2426 72.0647L45.7381 72.4953C45.8242 72.5224 48.4402 74.2524 48.61 74.3582 49.2855 74.8152 49.4627 75.7332 49.0057 76.4084 48.5588 77.0695 47.6674 77.2557 46.9931 76.829L44.4387 75.158C43.5209 74.5608 42.4153 74.3226 41.333 74.4887 40.5323 74.6432 39.7579 74.1193 39.6035 73.3185 39.449 72.5177 39.9729 71.7435 40.7736 71.589 40.8089 71.5823 40.8445 71.5766 40.8802 71.5725ZM29.2202 73.5215 33.581 72.8472C34.3849 72.7102 35.1478 73.2506 35.285 74.0543 35.4213 74.8534 34.8882 75.6128 34.0904 75.7561L29.7296 76.4303C28.927 76.5746 28.1595 76.0408 28.0153 75.238 27.8712 74.4355 28.405 73.6679 29.2076 73.5237 29.2118 73.523 29.216 73.5223 29.2202 73.5215ZM27.879 96.3565 86.1615 46.3848C86.867 45.7809 87.2472 44.8802 87.1877 43.9534L86.7669 37.3852 91.1154 33.6642C91.735 33.1342 91.8079 32.2021 91.2778 31.5823 90.7477 30.9625 89.8155 30.8898 89.1958 31.4199L86.5306 33.7012 86.0778 26.5915C86.6928 26.3624 87.3282 26.1918 87.9752 26.0821L97.2382 24.5391 94.8068 26.621C94.1696 27.13 94.0655 28.0591 94.5745 28.6963 95.0834 29.3335 96.0126 29.4375 96.6498 28.9285 96.6758 28.9076 96.7014 28.8857 96.7263 28.863L101.806 24.517C103.042 24.7859 104.218 25.2779 105.278 25.9689L124.966 38.8445C125.098 38.9306 125.226 39.0192 125.354 39.1103L121.06 42.7869C120.423 43.2958 120.319 44.2249 120.828 44.8622 121.337 45.4994 122.266 45.6032 122.903 45.0945 122.929 45.0734 122.955 45.0515 122.98 45.0288L127.486 41.175C127.641 41.3768 127.793 41.5835 127.936 41.7976L141.86 62.8829C142.281 63.5227 142.63 64.2069 142.901 64.923L138.041 69.0845C137.403 69.5934 137.299 70.5224 137.808 71.1598 138.317 71.7969 139.246 71.9007 139.884 71.3918 139.91 71.3709 139.935 71.349 139.96 71.3264L143.558 68.2477C143.563 68.3585 143.57 68.4692 143.57 68.58L143.57 83.2619C143.57 84.6858 143.275 86.0942 142.704 87.3987L135.068 88.1395C134.457 88.1985 133.879 88.4473 133.416 88.8507 127.574 93.9497 87.5568 128.774 87.5175 128.816L87.4953 132.985C87.4926 133.797 86.8333 134.454 86.0212 134.454L86.0114 134.454C85.1958 134.45 84.538 133.786 84.5422 132.97 84.5422 132.97 84.5422 132.97 84.5422 132.97L84.552 131.393 74.8633 139.809C73.3474 141.054 71.4647 138.948 72.9118 137.594L84.5717 127.46 84.5816 125.587C84.5857 124.775 85.2455 124.118 86.0581 124.118L86.0655 124.118C86.6465 124.122 87.1714 124.466 87.4067 124.997L128.108 89.5545C128.724 89.0195 128.789 88.0868 128.254 87.4713 128.16 87.363 128.05 87.2688 127.929 87.192 126.996 86.6063 125.891 85.8828 125.113 85.3758 124.563 85.0165 123.841 85.0658 123.344 85.4964L117.524 90.529C116.904 91.0599 115.971 90.9875 115.441 90.3678 114.91 89.7482 114.982 88.8155 115.602 88.2847L120.088 84.4062C120.705 83.8732 120.773 82.9407 120.24 82.3235 120.148 82.2162 120.04 82.1227 119.921 82.0462L107.198 73.8882C106.649 73.5365 105.935 73.5855 105.44 74.0088L76.7361 98.5861 80.6637 104.537C81.1316 105.205 80.9694 106.125 80.3012 106.593 79.6333 107.061 78.7127 106.899 78.2449 106.231 78.2294 106.209 78.2146 106.186 78.2003 106.163L74.4794 100.53 46.5699 124.583C45.0564 125.814 43.2033 123.668 44.6429 122.349L103.024 72.1926C103.602 71.6972 103.708 70.8438 103.27 70.2214L99.5711 64.9821 106.152 59.4302C106.789 58.9213 106.893 57.9923 106.384 57.3549 105.875 56.7178 104.946 56.6139 104.309 57.1228 104.283 57.1438 104.257 57.1657 104.232 57.1883L97.878 62.5851C97.7599 62.4079 91.4082 53.4305 88.9793 49.9802 88.5102 49.3143 87.5898 49.1546 86.9239 49.6239 86.8857 49.6507 86.8491 49.6793 86.8136 49.7095L53.8715 77.8848 60.9688 82.4375C61.6444 82.8945 61.8215 83.8124 61.3645 84.4877 60.9176 85.1487 60.0263 85.335 59.352 84.9083L51.5828 79.851 29.801 98.6009C28.2531 99.8314 26.4468 97.6805 27.879 96.3565ZM87.579 117.22 87.5741 118.222C87.5694 119.037 86.9044 119.695 86.0889 119.69 85.2733 119.685 84.6163 119.02 84.6209 118.205L84.6259 117.22C84.6266 116.355 84.3724 115.508 83.895 114.786L82.2683 112.326C81.8184 111.645 82.0052 110.729 82.6854 110.279 83.3656 109.829 84.2818 110.016 84.7317 110.696L86.3584 113.157C86.3805 113.192 86.3977 113.226 86.4199 113.261L87.5568 112.286C88.1765 111.756 89.1087 111.829 89.6388 112.449 90.1689 113.068 90.096 114 89.4764 114.531L87.5076 116.214C87.5549 116.547 87.5787 116.884 87.579 117.22ZM93.1653 107.485 98.7763 102.686C99.3959 102.156 100.328 102.229 100.858 102.848 101.388 103.468 101.315 104.4 100.696 104.93L95.0849 109.729C94.4652 110.259 93.533 110.186 93.0029 109.567 92.4728 108.947 92.5456 108.015 93.1653 107.485ZM104.385 97.8848 109.993 93.0859C110.594 92.5347 111.528 92.5751 112.079 93.176 112.631 93.777 112.59 94.7111 111.989 95.2624 111.965 95.285 111.939 95.3069 111.913 95.3279L106.304 100.129C105.685 100.659 104.752 100.586 104.222 99.9667 103.692 99.347 103.765 98.4148 104.385 97.8848ZM72.5279 92.2148C72.9777 92.8957 72.7905 93.8124 72.1095 94.2623 71.4286 94.7121 70.5119 94.5248 70.062 93.8439L68.327 91.2156C67.9941 90.7092 67.5612 90.2763 67.0547 89.9433L65.5314 88.9491C64.834 88.5263 64.6113 87.6185 65.0341 86.9211 65.4568 86.2236 66.3647 86.0009 67.0621 86.4237 67.0907 86.4409 67.1185 86.4591 67.1458 86.4783L68.6716 87.475C68.7036 87.4947 68.7331 87.5169 68.7651 87.539L70.5763 85.9886C71.196 85.4585 72.1282 85.5314 72.6583 86.151 73.1884 86.7707 73.1155 87.7029 72.4959 88.233L70.8372 89.6529ZM76.1848 81.1898 81.7958 76.3885C82.4154 75.8584 83.3476 75.9313 83.8777 76.5509 84.4078 77.1706 84.335 78.1028 83.7153 78.6329L78.1068 83.4317C77.4926 83.9679 76.5599 83.9049 76.0234 83.2907 75.4872 82.6762 75.5501 81.7435 76.1646 81.2073 76.1713 81.2014 76.1779 81.1954 76.1848 81.1898ZM87.4043 71.5872 93.0127 66.7884C93.6324 66.2583 94.5646 66.3312 95.0947 66.9508 95.6248 67.5705 95.5519 68.5027 94.9323 69.0328L89.3238 73.8316C88.7041 74.3617 87.7719 74.2888 87.2418 73.6692 86.7117 73.0495 86.7846 72.1173 87.4043 71.5872Z" fill="#FFFFFF" fill-rule="nonzero" fill-opacity="1"/></g></g></g></g></g><g clip-path="url(#clip12)" filter="url(#fx1)" transform="translate(215 1209)"><g clip-path="url(#clip13)"><g clip-path="url(#clip14)"><g clip-path="url(#clip15)"><g clip-path="url(#clip16)"><path d="M106.741 61.1788 112.35 56.3785C112.979 55.8588 113.067 54.928 112.547 54.2998 112.028 53.6712 111.097 53.5831 110.469 54.1026 110.456 54.1132 110.443 54.1241 110.431 54.1349L104.821 58.9342C104.21 59.4746 104.153 60.4078 104.694 61.0186 105.221 61.6149 106.127 61.6853 106.741 61.1778ZM89.7608 34.8805 95.37 30.0802C95.9986 29.5605 96.0867 28.6298 95.5669 28.0015 95.0472 27.373 94.1164 27.2849 93.4882 27.8044 93.4754 27.8149 93.4628 27.8258 93.4505 27.8366L87.8406 32.6369C87.2298 33.1773 87.1729 34.1105 87.7133 34.7213 88.241 35.3176 89.1466 35.388 89.7601 34.8805Z" fill="#BFBFBF" fill-rule="nonzero" fill-opacity="1" transform="matrix(1.00794 0 0 1 20.0001 19.7501)"/><path d="M1.71281 61.9171 2.32558 76.946C2.42616 79.4033 3.2065 81.7842 4.5798 83.8243L18.5456 104.575C19.5777 106.112 20.9218 107.415 22.4905 108.399L43.2361 121.462C45.9346 123.161 49.1539 123.833 52.3071 123.357L60.8244 122.065C63.3095 121.689 65.637 120.616 67.5354 118.969L119.939 73.5548C122.852 71.0309 124.524 67.3661 124.523 63.5118L124.523 48.8298C124.525 46.2254 123.76 43.6781 122.323 41.5061L108.399 20.4208C107.401 18.9056 106.102 17.6122 104.582 16.6211L84.8924 3.748C82.1022 1.9195 78.725 1.21034 75.435 1.76203L65.4904 3.4207C63.1161 3.81607 60.8933 4.84865 59.0599 6.40827L6.37628 51.2563C3.25535 53.8964 1.53324 57.8332 1.71281 61.9171ZM50.3679 26.0711 55.9764 21.2698C56.5961 20.7391 57.5288 20.8113 58.0596 21.431 58.5904 22.0508 58.518 22.9835 57.8984 23.5142L52.2875 28.313C51.6865 28.8643 50.7523 28.8239 50.2013 28.223 49.6501 27.622 49.6904 26.6878 50.2914 26.1366 50.316 26.114 50.3416 26.092 50.3679 26.0711ZM39.1485 35.6712 44.7595 30.87C45.3791 30.3399 46.3113 30.4127 46.8414 31.0324 47.3715 31.652 47.2987 32.5842 46.679 33.1143L41.0705 37.9156C40.4509 38.4464 39.5182 38.3741 38.9873 37.7544 38.4565 37.1348 38.5289 36.2021 39.1485 35.6712ZM27.9316 45.2713 33.5401 40.4701C34.1597 39.94 35.0919 40.0128 35.622 40.6325 36.1521 41.2521 36.0793 42.1843 35.4596 42.7144L29.8511 47.5157C29.2315 48.0458 28.2993 47.9729 27.7692 47.3533 27.2391 46.7336 27.3119 45.8014 27.9316 45.2713ZM18.8803 51.8223C19.3708 51.7441 19.8683 51.7185 20.3642 51.7461L22.3207 50.0702C22.9404 49.5393 23.8731 49.6117 24.4038 50.2313 24.9347 50.851 24.8623 51.7837 24.2427 52.3145L23.7382 52.7452C23.8243 52.7723 26.4403 54.5023 26.6101 54.6081 27.2856 55.0651 27.4628 55.983 27.0058 56.6583 26.5589 57.3193 25.6675 57.5056 24.9932 57.0789L22.4388 55.4079C21.521 54.8107 20.4154 54.5724 19.3331 54.7385 18.5324 54.8931 17.758 54.3692 17.6036 53.5684 17.4491 52.7676 17.973 51.9934 18.7738 51.8388 18.809 51.8322 18.8446 51.8265 18.8803 51.8223ZM7.22038 53.7714 11.5812 53.0971C12.385 52.96 13.1479 53.5005 13.2851 54.3042 13.4214 55.1033 12.8883 55.8627 12.0906 56.0059L7.72979 56.6802C6.92716 56.8244 6.15962 56.2907 6.01548 55.4879 5.87132 54.6854 6.40515 53.9178 7.20778 53.7736 7.21199 53.7729 7.21617 53.7721 7.22038 53.7714ZM5.87917 76.6064 64.1615 26.6347C64.867 26.0308 65.2472 25.1301 65.1877 24.2033L64.7668 17.6351 69.1153 13.9141C69.735 13.3841 69.8078 12.4519 69.2777 11.8322 68.7477 11.2124 67.8155 11.1397 67.1958 11.6697L64.5306 13.951 64.0778 6.8414C64.6928 6.61226 65.3282 6.44169 65.9752 6.33198L75.2381 4.78898 72.8067 6.87093C72.1696 7.37985 72.0655 8.30895 72.5744 8.94613 73.0833 9.58334 74.0126 9.68734 74.6497 9.17842 74.6758 9.15743 74.7014 9.13555 74.7262 9.11284L79.8056 4.76683C81.0417 5.03573 82.2183 5.52777 83.278 6.21878L102.965 19.0944C103.098 19.1805 103.226 19.2691 103.354 19.3602L99.06 23.0368C98.4228 23.5457 98.3187 24.4748 98.8277 25.1121 99.3366 25.7492 100.266 25.8531 100.903 25.3444 100.929 25.3233 100.955 25.3013 100.979 25.2787L105.485 21.4249C105.64 21.6267 105.793 21.8334 105.936 22.0475L119.86 43.1328C120.281 43.7726 120.63 44.4568 120.901 45.1729L116.04 49.3343C115.403 49.8433 115.299 50.7723 115.808 51.4096 116.317 52.0468 117.246 52.1506 117.883 51.6417 117.909 51.6208 117.935 51.5989 117.96 51.5762L121.558 48.4976C121.563 48.6084 121.57 48.7191 121.57 48.8298L121.57 63.5118C121.57 64.9357 121.275 66.3441 120.704 67.6486L113.068 68.3893C112.457 68.4484 111.879 68.6972 111.416 69.1006 105.574 74.1996 65.5568 109.024 65.5174 109.066L65.4953 113.235C65.4926 114.047 64.8333 114.704 64.0212 114.704L64.0113 114.704C63.1958 114.7 62.538 114.036 62.5422 113.22 62.5422 113.22 62.5422 113.22 62.5422 113.22L62.552 111.643 52.8633 120.059C51.3474 121.304 49.4648 119.198 50.9118 117.844L62.5717 107.71 62.5815 105.837C62.5857 105.025 63.2455 104.368 64.0581 104.368L64.0655 104.368C64.6465 104.372 65.1714 104.715 65.4067 105.247L106.108 69.8044C106.724 69.2694 106.789 68.3367 106.254 67.7212 106.16 67.6129 106.05 67.5187 105.928 67.4419 104.996 66.8562 103.891 66.1327 103.113 65.6257 102.563 65.2664 101.841 65.3156 101.344 65.7463L95.5236 70.7789C94.9039 71.3097 93.9712 71.2374 93.4404 70.6177 92.9096 69.9981 92.9819 69.0654 93.6016 68.5345L98.0879 64.6561C98.7051 64.1231 98.7733 63.1906 98.2402 62.5734 98.1477 62.4661 98.0399 62.3726 97.9205 62.2961L85.1975 54.1381C84.6492 53.7864 83.9353 53.8354 83.4404 54.2587L54.7361 78.836 58.6637 84.7865C59.1316 85.4544 58.9694 86.3753 58.3012 86.8431 57.6333 87.311 56.7127 87.1485 56.2449 86.4807 56.2294 86.4585 56.2146 86.4361 56.2003 86.4132L52.4794 80.7801 24.57 104.833C23.0565 106.064 21.2034 103.918 22.6431 102.599L81.0238 52.4425C81.6016 51.9471 81.7082 51.0937 81.2699 50.4713L77.5711 45.232 84.1516 39.6801C84.7888 39.1712 84.8929 38.2422 84.3839 37.6048 83.875 36.9677 82.946 36.8638 82.3086 37.3727 82.2825 37.3936 82.257 37.4155 82.2321 37.4382L75.878 42.835C75.7598 42.6578 69.4082 33.6803 66.9792 30.2301 66.5102 29.5642 65.5898 29.4045 64.9239 29.8738 64.8857 29.9006 64.849 29.9291 64.8136 29.9594L31.8715 58.1346 38.9689 62.6874C39.6444 63.1444 39.8216 64.0623 39.3646 64.7376 38.9177 65.3986 38.0263 65.5849 37.3521 65.1581L29.5829 60.1009 7.80116 78.8508C6.25323 80.0812 4.44691 77.9304 5.87917 76.6064ZM65.579 97.4702 65.574 98.4718C65.5694 99.2874 64.9044 99.9444 64.0889 99.9398 63.2733 99.9351 62.6162 99.2701 62.6209 98.4546L62.6258 97.4702C62.6266 96.6047 62.3724 95.7584 61.8949 95.0363L60.2683 92.5754C59.8184 91.8952 60.0052 90.979 60.6854 90.5291 61.3656 90.0793 62.2818 90.2661 62.7317 90.9463L64.3583 93.4072C64.3805 93.4417 64.3977 93.4761 64.4199 93.5106L65.5568 92.536C66.1765 92.0059 67.1087 92.0788 67.6388 92.6984 68.1688 93.3181 68.096 94.2503 67.4763 94.7804L65.5076 96.4637C65.5548 96.7971 65.5787 97.1335 65.579 97.4702ZM71.1653 87.7347 76.7762 82.9359C77.3959 82.4058 78.3281 82.4787 78.8582 83.0984 79.3882 83.718 79.3154 84.6502 78.6957 85.1803L73.0848 89.9791C72.4651 90.5092 71.5329 90.4364 71.0029 89.8167 70.4728 89.197 70.5456 88.2648 71.1653 87.7347ZM82.3847 78.1346 87.9931 73.3358C88.5941 72.7846 89.5283 72.8249 90.0793 73.4259 90.6305 74.0269 90.5902 74.961 89.9892 75.5123 89.9646 75.5349 89.939 75.5568 89.9127 75.5777L84.3042 80.379C83.6845 80.9091 82.7523 80.8363 82.2223 80.2166 81.6922 79.5969 81.765 78.6647 82.3847 78.1346ZM50.5279 72.4647C50.9777 73.1456 50.7905 74.0623 50.1095 74.5121 49.4286 74.962 48.5119 74.7747 48.062 74.0938L46.3271 71.4655C45.9941 70.9591 45.5612 70.5262 45.0548 70.1932L43.5315 69.199C42.834 68.7762 42.6113 67.8684 43.0341 67.1709 43.4569 66.4735 44.3647 66.2508 45.0622 66.6736 45.0907 66.6908 45.1185 66.709 45.1458 66.7282L46.6716 67.7249C46.7036 67.7446 46.7331 67.7667 46.7651 67.7889L48.5764 66.2385C49.196 65.7084 50.1282 65.7812 50.6583 66.4009 51.1884 67.0206 51.1156 67.9528 50.4959 68.4829L48.8372 69.9028ZM54.1848 61.4397 59.7958 56.6384C60.4154 56.1083 61.3476 56.1811 61.8777 56.8008 62.4078 57.4205 62.335 58.3527 61.7153 58.8828L56.1068 63.6816C55.4926 64.2178 54.5599 64.1548 54.0234 63.5406 53.4872 62.9261 53.5502 61.9934 54.1647 61.4571 54.1713 61.4512 54.1779 61.4453 54.1848 61.4397ZM65.4042 51.8371 71.0127 47.0383C71.6324 46.5082 72.5646 46.581 73.0947 47.2007 73.6247 47.8204 73.5519 48.7526 72.9322 49.2827L67.3238 54.0815C66.7041 54.6116 65.7719 54.5387 65.2418 53.9191 64.7117 53.2994 64.7846 52.3672 65.4042 51.8371Z" fill="#BFBFBF" fill-rule="nonzero" fill-opacity="1" transform="matrix(1.00794 0 0 1 20.0001 19.7501)"/></g></g></g></g></g><g clip-path="url(#clip17)"><g clip-path="url(#clip18)"><g clip-path="url(#clip19)"><path d="M106.741 61.1788 112.35 56.3785C112.979 55.8588 113.067 54.928 112.547 54.2998 112.028 53.6712 111.097 53.5831 110.469 54.1026 110.456 54.1132 110.443 54.1241 110.431 54.1349L104.821 58.9342C104.21 59.4746 104.153 60.4078 104.694 61.0186 105.221 61.6149 106.127 61.6853 106.741 61.1778ZM89.7608 34.8805 95.37 30.0802C95.9986 29.5605 96.0867 28.6298 95.5669 28.0015 95.0472 27.373 94.1164 27.2849 93.4882 27.8044 93.4754 27.8149 93.4628 27.8258 93.4505 27.8366L87.8406 32.6369C87.2298 33.1773 87.1729 34.1105 87.7133 34.7213 88.241 35.3176 89.1466 35.388 89.7601 34.8805Z" fill="#BFBFBF" fill-rule="nonzero" fill-opacity="1" transform="matrix(1.00794 0 0 1 235 1215)"/><path d="M1.71281 61.9171 2.32558 76.946C2.42616 79.4033 3.2065 81.7842 4.5798 83.8243L18.5456 104.575C19.5777 106.112 20.9218 107.415 22.4905 108.399L43.2361 121.462C45.9346 123.161 49.1539 123.833 52.3071 123.357L60.8244 122.065C63.3095 121.689 65.637 120.616 67.5354 118.969L119.939 73.5548C122.852 71.0309 124.524 67.3661 124.523 63.5118L124.523 48.8298C124.525 46.2254 123.76 43.6781 122.323 41.5061L108.399 20.4208C107.401 18.9056 106.102 17.6122 104.582 16.6211L84.8924 3.748C82.1022 1.9195 78.725 1.21034 75.435 1.76203L65.4904 3.4207C63.1161 3.81607 60.8933 4.84865 59.0599 6.40827L6.37628 51.2563C3.25535 53.8964 1.53324 57.8332 1.71281 61.9171ZM50.3679 26.0711 55.9764 21.2698C56.5961 20.7391 57.5288 20.8113 58.0596 21.431 58.5904 22.0508 58.518 22.9835 57.8984 23.5142L52.2875 28.313C51.6865 28.8643 50.7523 28.8239 50.2013 28.223 49.6501 27.622 49.6904 26.6878 50.2914 26.1366 50.316 26.114 50.3416 26.092 50.3679 26.0711ZM39.1485 35.6712 44.7595 30.87C45.3791 30.3399 46.3113 30.4127 46.8414 31.0324 47.3715 31.652 47.2987 32.5842 46.679 33.1143L41.0705 37.9156C40.4509 38.4464 39.5182 38.3741 38.9873 37.7544 38.4565 37.1348 38.5289 36.2021 39.1485 35.6712ZM27.9316 45.2713 33.5401 40.4701C34.1597 39.94 35.0919 40.0128 35.622 40.6325 36.1521 41.2521 36.0793 42.1843 35.4596 42.7144L29.8511 47.5157C29.2315 48.0458 28.2993 47.9729 27.7692 47.3533 27.2391 46.7336 27.3119 45.8014 27.9316 45.2713ZM18.8803 51.8223C19.3708 51.7441 19.8683 51.7185 20.3642 51.7461L22.3207 50.0702C22.9404 49.5393 23.8731 49.6117 24.4038 50.2313 24.9347 50.851 24.8623 51.7837 24.2427 52.3145L23.7382 52.7452C23.8243 52.7723 26.4403 54.5023 26.6101 54.6081 27.2856 55.0651 27.4628 55.983 27.0058 56.6583 26.5589 57.3193 25.6675 57.5056 24.9932 57.0789L22.4388 55.4079C21.521 54.8107 20.4154 54.5724 19.3331 54.7385 18.5324 54.8931 17.758 54.3692 17.6036 53.5684 17.4491 52.7676 17.973 51.9934 18.7738 51.8388 18.809 51.8322 18.8446 51.8265 18.8803 51.8223ZM7.22038 53.7714 11.5812 53.0971C12.385 52.96 13.1479 53.5005 13.2851 54.3042 13.4214 55.1033 12.8883 55.8627 12.0906 56.0059L7.72979 56.6802C6.92716 56.8244 6.15962 56.2907 6.01548 55.4879 5.87132 54.6854 6.40515 53.9178 7.20778 53.7736 7.21199 53.7729 7.21617 53.7721 7.22038 53.7714ZM5.87917 76.6064 64.1615 26.6347C64.867 26.0308 65.2472 25.1301 65.1877 24.2033L64.7668 17.6351 69.1153 13.9141C69.735 13.3841 69.8078 12.4519 69.2777 11.8322 68.7477 11.2124 67.8155 11.1397 67.1958 11.6697L64.5306 13.951 64.0778 6.8414C64.6928 6.61226 65.3282 6.44169 65.9752 6.33198L75.2381 4.78898 72.8067 6.87093C72.1696 7.37985 72.0655 8.30895 72.5744 8.94613 73.0833 9.58334 74.0126 9.68734 74.6497 9.17842 74.6758 9.15743 74.7014 9.13555 74.7262 9.11284L79.8056 4.76683C81.0417 5.03573 82.2183 5.52777 83.278 6.21878L102.965 19.0944C103.098 19.1805 103.226 19.2691 103.354 19.3602L99.06 23.0368C98.4228 23.5457 98.3187 24.4748 98.8277 25.1121 99.3366 25.7492 100.266 25.8531 100.903 25.3444 100.929 25.3233 100.955 25.3013 100.979 25.2787L105.485 21.4249C105.64 21.6267 105.793 21.8334 105.936 22.0475L119.86 43.1328C120.281 43.7726 120.63 44.4568 120.901 45.1729L116.04 49.3343C115.403 49.8433 115.299 50.7723 115.808 51.4096 116.317 52.0468 117.246 52.1506 117.883 51.6417 117.909 51.6208 117.935 51.5989 117.96 51.5762L121.558 48.4976C121.563 48.6084 121.57 48.7191 121.57 48.8298L121.57 63.5118C121.57 64.9357 121.275 66.3441 120.704 67.6486L113.068 68.3893C112.457 68.4484 111.879 68.6972 111.416 69.1006 105.574 74.1996 65.5568 109.024 65.5174 109.066L65.4953 113.235C65.4926 114.047 64.8333 114.704 64.0212 114.704L64.0113 114.704C63.1958 114.7 62.538 114.036 62.5422 113.22 62.5422 113.22 62.5422 113.22 62.5422 113.22L62.552 111.643 52.8633 120.059C51.3474 121.304 49.4648 119.198 50.9118 117.844L62.5717 107.71 62.5815 105.837C62.5857 105.025 63.2455 104.368 64.0581 104.368L64.0655 104.368C64.6465 104.372 65.1714 104.715 65.4067 105.247L106.108 69.8044C106.724 69.2694 106.789 68.3367 106.254 67.7212 106.16 67.6129 106.05 67.5187 105.928 67.4419 104.996 66.8562 103.891 66.1327 103.113 65.6257 102.563 65.2664 101.841 65.3156 101.344 65.7463L95.5236 70.7789C94.9039 71.3097 93.9712 71.2374 93.4404 70.6177 92.9096 69.9981 92.9819 69.0654 93.6016 68.5345L98.0879 64.6561C98.7051 64.1231 98.7733 63.1906 98.2402 62.5734 98.1477 62.4661 98.0399 62.3726 97.9205 62.2961L85.1975 54.1381C84.6492 53.7864 83.9353 53.8354 83.4404 54.2587L54.7361 78.836 58.6637 84.7865C59.1316 85.4544 58.9694 86.3753 58.3012 86.8431 57.6333 87.311 56.7127 87.1485 56.2449 86.4807 56.2294 86.4585 56.2146 86.4361 56.2003 86.4132L52.4794 80.7801 24.57 104.833C23.0565 106.064 21.2034 103.918 22.6431 102.599L81.0238 52.4425C81.6016 51.9471 81.7082 51.0937 81.2699 50.4713L77.5711 45.232 84.1516 39.6801C84.7888 39.1712 84.8929 38.2422 84.3839 37.6048 83.875 36.9677 82.946 36.8638 82.3086 37.3727 82.2825 37.3936 82.257 37.4155 82.2321 37.4382L75.878 42.835C75.7598 42.6578 69.4082 33.6803 66.9792 30.2301 66.5102 29.5642 65.5898 29.4045 64.9239 29.8738 64.8857 29.9006 64.849 29.9291 64.8136 29.9594L31.8715 58.1346 38.9689 62.6874C39.6444 63.1444 39.8216 64.0623 39.3646 64.7376 38.9177 65.3986 38.0263 65.5849 37.3521 65.1581L29.5829 60.1009 7.80116 78.8508C6.25323 80.0812 4.44691 77.9304 5.87917 76.6064ZM65.579 97.4702 65.574 98.4718C65.5694 99.2874 64.9044 99.9444 64.0889 99.9398 63.2733 99.9351 62.6162 99.2701 62.6209 98.4546L62.6258 97.4702C62.6266 96.6047 62.3724 95.7584 61.8949 95.0363L60.2683 92.5754C59.8184 91.8952 60.0052 90.979 60.6854 90.5291 61.3656 90.0793 62.2818 90.2661 62.7317 90.9463L64.3583 93.4072C64.3805 93.4417 64.3977 93.4761 64.4199 93.5106L65.5568 92.536C66.1765 92.0059 67.1087 92.0788 67.6388 92.6984 68.1688 93.3181 68.096 94.2503 67.4763 94.7804L65.5076 96.4637C65.5548 96.7971 65.5787 97.1335 65.579 97.4702ZM71.1653 87.7347 76.7762 82.9359C77.3959 82.4058 78.3281 82.4787 78.8582 83.0984 79.3882 83.718 79.3154 84.6502 78.6957 85.1803L73.0848 89.9791C72.4651 90.5092 71.5329 90.4364 71.0029 89.8167 70.4728 89.197 70.5456 88.2648 71.1653 87.7347ZM82.3847 78.1346 87.9931 73.3358C88.5941 72.7846 89.5283 72.8249 90.0793 73.4259 90.6305 74.0269 90.5902 74.961 89.9892 75.5123 89.9646 75.5349 89.939 75.5568 89.9127 75.5777L84.3042 80.379C83.6845 80.9091 82.7523 80.8363 82.2223 80.2166 81.6922 79.5969 81.765 78.6647 82.3847 78.1346ZM50.5279 72.4647C50.9777 73.1456 50.7905 74.0623 50.1095 74.5121 49.4286 74.962 48.5119 74.7747 48.062 74.0938L46.3271 71.4655C45.9941 70.9591 45.5612 70.5262 45.0548 70.1932L43.5315 69.199C42.834 68.7762 42.6113 67.8684 43.0341 67.1709 43.4569 66.4735 44.3647 66.2508 45.0622 66.6736 45.0907 66.6908 45.1185 66.709 45.1458 66.7282L46.6716 67.7249C46.7036 67.7446 46.7331 67.7667 46.7651 67.7889L48.5764 66.2385C49.196 65.7084 50.1282 65.7812 50.6583 66.4009 51.1884 67.0206 51.1156 67.9528 50.4959 68.4829L48.8372 69.9028ZM54.1848 61.4397 59.7958 56.6384C60.4154 56.1083 61.3476 56.1811 61.8777 56.8008 62.4078 57.4205 62.335 58.3527 61.7153 58.8828L56.1068 63.6816C55.4926 64.2178 54.5599 64.1548 54.0234 63.5406 53.4872 62.9261 53.5502 61.9934 54.1647 61.4571 54.1713 61.4512 54.1779 61.4453 54.1848 61.4397ZM65.4042 51.8371 71.0127 47.0383C71.6324 46.5082 72.5646 46.581 73.0947 47.2007 73.6247 47.8204 73.5519 48.7526 72.9322 49.2827L67.3238 54.0815C66.7041 54.6116 65.7719 54.5387 65.2418 53.9191 64.7117 53.2994 64.7846 52.3672 65.4042 51.8371Z" fill="#BFBFBF" fill-rule="nonzero" fill-opacity="1" transform="matrix(1.00794 0 0 1 235 1215)"/></g></g></g><g clip-path="url(#clip20)" filter="url(#fx2)" transform="matrix(3.5082 0 0 3.5082 86 1064)"><g clip-path="url(#clip21)" transform="matrix(1 0 0 1 0 -5.68434e-14)"><g clip-path="url(#clip22)" transform="matrix(1 0 0 1 -5.36442e-07 -1.69277e-05)"><g clip-path="url(#clip23)" transform="matrix(1 0 0 1 -5.36442e-07 -1.69277e-05)"><g clip-path="url(#clip24)" transform="matrix(1 0 0 1 -5.36442e-07 -1.69277e-05)"><path d="M73.4683 60.4809 75.0672 59.1126C75.2464 58.9644 75.2715 58.6991 75.1234 58.52 74.9752 58.3409 74.7099 58.3158 74.5308 58.4639 74.5272 58.4669 74.5236 58.47 74.5201 58.473L72.921 59.8411C72.7469 59.9951 72.7307 60.2611 72.8847 60.4352 73.0351 60.6052 73.2933 60.6253 73.4681 60.4806ZM68.6281 52.9847 70.227 51.6163C70.4062 51.4682 70.4313 51.2029 70.2831 51.0238 70.135 50.8446 69.8697 50.8195 69.6906 50.9676 69.6869 50.9706 69.6834 50.9737 69.6798 50.9768L68.0807 52.3451C67.9066 52.4992 67.8904 52.7652 68.0445 52.9393 68.1949 53.1092 68.453 53.1293 68.6279 52.9847Z" fill="#FFFFFF" fill-rule="nonzero" fill-opacity="1"/><path d="M43.5302 60.6913 43.7049 64.9753C43.7336 65.6757 43.956 66.3544 44.3475 66.9359L48.3284 72.8508C48.6226 73.289 49.0057 73.6605 49.4529 73.9409L55.3664 77.6644C56.1355 78.1487 57.0532 78.3404 57.952 78.2045L60.3799 77.8362C61.0882 77.7293 61.7517 77.4233 62.2928 76.9538L77.2302 64.0086C78.0605 63.2892 78.5374 62.2446 78.5371 61.1459L78.5371 56.9609C78.5377 56.2185 78.3195 55.4924 77.9099 54.8733L73.9409 48.863C73.6565 48.4311 73.2861 48.0624 72.8529 47.7799L67.2404 44.1104C66.445 43.5892 65.4824 43.3871 64.5446 43.5443L61.7099 44.0171C61.0331 44.1298 60.3995 44.4242 59.8769 44.8687L44.8596 57.6525C43.9699 58.4051 43.4791 59.5272 43.5302 60.6913ZM57.3993 50.4736 58.9979 49.105C59.1746 48.9537 59.4404 48.9743 59.5917 49.1509 59.7431 49.3276 59.7224 49.5934 59.5458 49.7447L57.9464 51.1126C57.7751 51.2697 57.5088 51.2582 57.3518 51.0869 57.1946 50.9156 57.2061 50.6494 57.3774 50.4922 57.3845 50.4858 57.3918 50.4795 57.3993 50.4736ZM54.2012 53.21 55.8006 51.8414C55.9772 51.6904 56.2429 51.7111 56.394 51.8877 56.5451 52.0644 56.5244 52.3301 56.3477 52.4812L54.7491 53.8498C54.5724 54.0011 54.3066 53.9805 54.1553 53.8038 54.0039 53.6272 54.0246 53.3614 54.2012 53.21ZM51.0038 55.9465 52.6025 54.5779C52.7792 54.4268 53.0449 54.4476 53.196 54.6242 53.3471 54.8009 53.3263 55.0666 53.1497 55.2177L51.551 56.5863C51.3744 56.7374 51.1086 56.7166 50.9575 56.54 50.8064 56.3633 50.8272 56.0976 51.0038 55.9465ZM48.4238 57.8139C48.5636 57.7916 48.7054 57.7843 48.8468 57.7921L49.4045 57.3144C49.5811 57.1631 49.847 57.1837 49.9983 57.3604 50.1496 57.537 50.129 57.8028 49.9523 57.9542L49.8085 58.0769C49.8331 58.0846 50.5787 58.5778 50.6271 58.6079 50.8197 58.7382 50.8702 58.9999 50.7399 59.1923 50.6126 59.3808 50.3585 59.4339 50.1663 59.3122L49.4381 58.8359C49.1765 58.6657 48.8614 58.5978 48.5529 58.6451 48.3246 58.6892 48.1039 58.5398 48.0599 58.3116 48.0158 58.0833 48.1652 57.8626 48.3934 57.8186 48.4035 57.8167 48.4136 57.8151 48.4238 57.8139ZM45.1002 58.3694 46.3432 58.1772C46.5723 58.1382 46.7898 58.2922 46.8289 58.5213 46.8678 58.7491 46.7158 58.9656 46.4884 59.0064L45.2454 59.1986C45.0166 59.2397 44.7978 59.0875 44.7567 58.8587 44.7156 58.63 44.8678 58.4112 45.0966 58.3701 45.0978 58.3699 45.099 58.3696 45.1002 58.3694ZM44.7178 64.8785 61.3311 50.6342C61.5322 50.4621 61.6406 50.2053 61.6236 49.9411L61.5036 48.0689 62.7432 47.0082C62.9198 46.8572 62.9406 46.5915 62.7895 46.4148 62.6384 46.2381 62.3726 46.2174 62.196 46.3685L61.4363 47.0188 61.3072 44.9922C61.4825 44.9269 61.6636 44.8783 61.8481 44.847L64.4884 44.4072 63.7954 45.0006C63.6138 45.1457 63.5841 45.4105 63.7292 45.5921 63.8742 45.7738 64.1391 45.8034 64.3207 45.6584 64.3282 45.6524 64.3355 45.6461 64.3425 45.6397L65.7904 44.4008C66.1428 44.4775 66.4781 44.6177 66.7802 44.8147L72.3921 48.4849C72.4299 48.5094 72.4664 48.5347 72.5029 48.5606L71.2788 49.6086C71.0972 49.7537 71.0675 50.0185 71.2126 50.2002 71.3577 50.3818 71.6225 50.4114 71.8041 50.2664 71.8116 50.2604 71.8189 50.2541 71.826 50.2477L73.1104 49.1492C73.1546 49.2067 73.1981 49.2656 73.2388 49.3266L77.2077 55.3369C77.3277 55.5193 77.4272 55.7143 77.5045 55.9185L76.119 57.1047C75.9374 57.2497 75.9078 57.5145 76.0528 57.6962 76.1979 57.8778 76.4628 57.9074 76.6444 57.7624 76.6518 57.7564 76.6591 57.7502 76.6662 57.7437L77.6918 56.8662C77.6932 56.8977 77.6953 56.9293 77.6953 56.9609L77.6953 61.1459C77.6951 61.5518 77.6111 61.9532 77.4483 62.3251L75.2717 62.5362C75.0975 62.5531 74.9329 62.624 74.801 62.739 73.1356 64.1924 61.7288 74.1191 61.7176 74.131L61.7113 75.3193C61.7105 75.5508 61.5226 75.7381 61.2911 75.7381L61.2883 75.7381C61.0558 75.7369 60.8683 75.5476 60.8695 75.3151 60.8695 75.3151 60.8695 75.3151 60.8695 75.3151L60.8723 74.8655 58.1106 77.2645C57.6785 77.6195 57.1418 77.019 57.5543 76.6332L60.8779 73.7445 60.8807 73.2107C60.8819 72.979 61.07 72.7919 61.3016 72.7919L61.3037 72.7919C61.4693 72.7929 61.619 72.8909 61.686 73.0423L73.2879 62.9396C73.4633 62.7871 73.4819 62.5212 73.3294 62.3458 73.3025 62.3149 73.2713 62.288 73.2366 62.2662 72.9708 62.0992 72.6558 61.893 72.4342 61.7485 72.2772 61.6461 72.0714 61.6601 71.9298 61.7828L70.2708 63.2174C70.0941 63.3687 69.8283 63.3481 69.677 63.1714 69.5257 62.9948 69.5463 62.7289 69.7229 62.5776L71.0017 61.4721C71.1777 61.3201 71.1971 61.0544 71.0451 60.8784 71.0188 60.8478 70.988 60.8212 70.954 60.7994L67.3274 58.474C67.1711 58.3737 66.9676 58.3877 66.8265 58.5083L58.6444 65.514 59.764 67.2102C59.8973 67.4006 59.8511 67.6631 59.6606 67.7964 59.4702 67.9298 59.2078 67.8835 59.0745 67.6931 59.0701 67.6868 59.0658 67.6804 59.0618 67.6739L58.0011 66.0682 50.0456 72.9245C49.6142 73.2752 49.086 72.6635 49.4964 72.2875L66.1376 57.9906C66.3023 57.8494 66.3327 57.6062 66.2078 57.4287L65.1535 55.9353 67.0292 54.3528C67.2108 54.2077 67.2405 53.9429 67.0954 53.7612 66.9504 53.5796 66.6856 53.55 66.5039 53.695 66.4964 53.701 66.4892 53.7072 66.4821 53.7137L64.6708 55.2521C64.6372 55.2015 62.8266 52.6425 62.1343 51.6591 62.0006 51.4692 61.7382 51.4237 61.5484 51.5575 61.5375 51.5651 61.5271 51.5733 61.517 51.5819L52.1269 59.6132 54.15 60.9109C54.3425 61.0412 54.3931 61.3028 54.2628 61.4953 54.1354 61.6837 53.8813 61.7368 53.6891 61.6152L51.4745 60.1736 45.2657 65.5182C44.8245 65.869 44.3096 65.2559 44.7178 64.8785ZM61.7351 70.8256 61.7337 71.1111C61.7324 71.3436 61.5429 71.5309 61.3104 71.5296 61.0779 71.5282 60.8906 71.3387 60.8919 71.1062L60.8933 70.8256C60.8936 70.5789 60.8211 70.3377 60.685 70.1319L60.2213 69.4304C60.0931 69.2365 60.1463 68.9753 60.3402 68.8471 60.5341 68.7189 60.7953 68.7721 60.9235 68.966L61.3872 69.6675C61.3935 69.6773 61.3984 69.6871 61.4047 69.697L61.7288 69.4192C61.9054 69.2681 62.1712 69.2888 62.3223 69.4655 62.4734 69.6421 62.4526 69.9078 62.276 70.0589L61.7148 70.5387C61.7283 70.6338 61.7351 70.7297 61.7351 70.8256ZM63.3275 68.0506 64.9269 66.6827C65.1035 66.5316 65.3692 66.5524 65.5203 66.729 65.6714 66.9056 65.6507 67.1713 65.474 67.3224L63.8747 68.6903C63.698 68.8414 63.4323 68.8207 63.2812 68.644 63.1301 68.4674 63.1509 68.2017 63.3275 68.0506ZM66.5256 65.3141 68.1242 63.9462C68.2955 63.7891 68.5618 63.8006 68.7189 63.9719 68.876 64.1432 68.8645 64.4095 68.6932 64.5666 68.6862 64.5731 68.6789 64.5793 68.6714 64.5853L67.0727 65.9538C66.8961 66.1049 66.6304 66.0842 66.4793 65.9075 66.3282 65.7309 66.3489 65.4652 66.5256 65.3141ZM57.4449 63.6979C57.5731 63.892 57.5197 64.1533 57.3256 64.2815 57.1315 64.4097 56.8702 64.3564 56.742 64.1623L56.2474 63.4131C56.1525 63.2687 56.0291 63.1453 55.8848 63.0504L55.4505 62.767C55.2517 62.6465 55.1883 62.3877 55.3088 62.1889 55.4293 61.9901 55.6881 61.9266 55.8869 62.0472 55.895 62.0521 55.9029 62.0573 55.9107 62.0627L56.3456 62.3468C56.3548 62.3524 56.3632 62.3588 56.3723 62.3651L56.8886 61.9231C57.0652 61.772 57.3309 61.7928 57.482 61.9694 57.6331 62.1461 57.6124 62.4118 57.4357 62.5629L56.9629 62.9676ZM58.4873 60.5552 60.0866 59.1867C60.2633 59.0356 60.529 59.0563 60.6801 59.233 60.8312 59.4096 60.8104 59.6753 60.6338 59.8264L59.0351 61.1943C58.86 61.3472 58.5942 61.3292 58.4412 61.1541 58.2884 60.9789 58.3064 60.7131 58.4815 60.5602 58.4834 60.5585 58.4853 60.5569 58.4873 60.5552ZM61.6853 57.8181 63.284 56.4502C63.4606 56.2991 63.7264 56.3198 63.8775 56.4965 64.0286 56.6731 64.0078 56.9388 63.8312 57.0899L62.2325 58.4578C62.0558 58.6089 61.7901 58.5882 61.639 58.4115 61.4879 58.2349 61.5087 57.9692 61.6853 57.8181Z" fill="#FFFFFF" fill-rule="nonzero" fill-opacity="1"/></g></g></g></g></g><g clip-path="url(#clip25)"><g clip-path="url(#clip26)"><g clip-path="url(#clip27)"><path d="M343.741 1276.18 349.351 1271.38C349.979 1270.86 350.067 1269.93 349.548 1269.3 349.028 1268.67 348.097 1268.58 347.469 1269.1 347.456 1269.11 347.443 1269.12 347.431 1269.14L341.821 1273.93C341.21 1274.47 341.153 1275.41 341.694 1276.02 342.222 1276.61 343.127 1276.69 343.741 1276.18ZM326.761 1249.88 332.37 1245.08C332.999 1244.56 333.087 1243.63 332.567 1243 332.047 1242.37 331.117 1242.29 330.488 1242.8 330.475 1242.82 330.463 1242.83 330.451 1242.84L324.841 1247.64C324.23 1248.18 324.173 1249.11 324.713 1249.72 325.241 1250.32 326.147 1250.39 326.76 1249.88Z" fill="#FFFFFF" fill-rule="nonzero" fill-opacity="1"/><path d="M238.713 1276.92 239.325 1291.95C239.426 1294.4 240.206 1296.78 241.58 1298.82L255.545 1319.58C256.578 1321.11 257.922 1322.42 259.49 1323.4L280.236 1336.46C282.935 1338.16 286.154 1338.83 289.307 1338.36L297.824 1337.06C300.31 1336.69 302.637 1335.62 304.535 1333.97L356.939 1288.55C359.852 1286.03 361.525 1282.37 361.523 1278.51L361.523 1263.83C361.526 1261.23 360.76 1258.68 359.323 1256.51L345.399 1235.42C344.401 1233.91 343.102 1232.61 341.582 1231.62L321.892 1218.75C319.102 1216.92 315.725 1216.21 312.435 1216.76L302.49 1218.42C300.116 1218.82 297.893 1219.85 296.06 1221.41L243.376 1266.26C240.255 1268.9 238.533 1272.83 238.713 1276.92ZM287.368 1241.07 292.976 1236.27C293.596 1235.74 294.529 1235.81 295.06 1236.43 295.59 1237.05 295.518 1237.98 294.898 1238.51L289.287 1243.31C288.686 1243.86 287.752 1243.82 287.201 1243.22 286.65 1242.62 286.69 1241.69 287.291 1241.14 287.316 1241.11 287.342 1241.09 287.368 1241.07ZM276.148 1250.67 281.759 1245.87C282.379 1245.34 283.311 1245.41 283.841 1246.03 284.371 1246.65 284.299 1247.58 283.679 1248.11L278.07 1252.92C277.451 1253.45 276.518 1253.37 275.987 1252.75 275.456 1252.13 275.529 1251.2 276.148 1250.67ZM264.932 1260.27 270.54 1255.47C271.16 1254.94 272.092 1255.01 272.622 1255.63 273.152 1256.25 273.079 1257.18 272.46 1257.71L266.851 1262.52C266.231 1263.05 265.299 1262.97 264.769 1262.35 264.239 1261.73 264.312 1260.8 264.932 1260.27ZM255.88 1266.82C256.371 1266.74 256.868 1266.72 257.364 1266.75L259.321 1265.07C259.94 1264.54 260.873 1264.61 261.404 1265.23 261.935 1265.85 261.862 1266.78 261.243 1267.31L260.738 1267.75C260.824 1267.77 263.44 1269.5 263.61 1269.61 264.286 1270.07 264.463 1270.98 264.006 1271.66 263.559 1272.32 262.667 1272.51 261.993 1272.08L259.439 1270.41C258.521 1269.81 257.415 1269.57 256.333 1269.74 255.532 1269.89 254.758 1269.37 254.603 1268.57 254.449 1267.77 254.973 1266.99 255.774 1266.84 255.809 1266.83 255.844 1266.83 255.88 1266.82ZM244.22 1268.77 248.581 1268.1C249.385 1267.96 250.148 1268.5 250.285 1269.3 250.421 1270.1 249.888 1270.86 249.09 1271.01L244.73 1271.68C243.927 1271.82 243.159 1271.29 243.015 1270.49 242.871 1269.69 243.405 1268.92 244.208 1268.77 244.212 1268.77 244.216 1268.77 244.22 1268.77ZM242.879 1291.61 301.161 1241.63C301.867 1241.03 302.247 1240.13 302.188 1239.2L301.767 1232.64 306.115 1228.91C306.735 1228.38 306.808 1227.45 306.278 1226.83 305.748 1226.21 304.815 1226.14 304.196 1226.67L301.531 1228.95 301.078 1221.84C301.693 1221.61 302.328 1221.44 302.975 1221.33L312.238 1219.79 309.807 1221.87C309.17 1222.38 309.066 1223.31 309.574 1223.95 310.083 1224.58 311.013 1224.69 311.65 1224.18 311.676 1224.16 311.701 1224.14 311.726 1224.11L316.806 1219.77C318.042 1220.04 319.218 1220.53 320.278 1221.22L339.966 1234.09C340.098 1234.18 340.226 1234.27 340.354 1234.36L336.06 1238.04C335.423 1238.55 335.319 1239.47 335.828 1240.11 336.337 1240.75 337.266 1240.85 337.903 1240.34 337.929 1240.32 337.955 1240.3 337.98 1240.28L342.486 1236.43C342.641 1236.63 342.793 1236.83 342.936 1237.05L356.86 1258.13C357.281 1258.77 357.63 1259.46 357.901 1260.17L353.041 1264.33C352.403 1264.84 352.299 1265.77 352.808 1266.41 353.317 1267.05 354.246 1267.15 354.884 1266.64 354.91 1266.62 354.935 1266.6 354.96 1266.58L358.558 1263.5C358.563 1263.61 358.57 1263.72 358.57 1263.83L358.57 1278.51C358.57 1279.94 358.275 1281.34 357.704 1282.65L350.068 1283.39C349.457 1283.45 348.879 1283.7 348.416 1284.1 342.574 1289.2 302.557 1324.02 302.517 1324.07L302.495 1328.24C302.493 1329.05 301.833 1329.7 301.021 1329.7L301.011 1329.7C300.196 1329.7 299.538 1329.04 299.542 1328.22 299.542 1328.22 299.542 1328.22 299.542 1328.22L299.552 1326.64 289.863 1335.06C288.347 1336.3 286.465 1334.2 287.912 1332.84L299.572 1322.71 299.582 1320.84C299.586 1320.02 300.246 1319.37 301.058 1319.37L301.065 1319.37C301.647 1319.37 302.171 1319.72 302.407 1320.25L343.108 1284.8C343.724 1284.27 343.789 1283.34 343.254 1282.72 343.16 1282.61 343.05 1282.52 342.929 1282.44 341.996 1281.86 340.891 1281.13 340.113 1280.63 339.563 1280.27 338.841 1280.32 338.344 1280.75L332.524 1285.78C331.904 1286.31 330.971 1286.24 330.441 1285.62 329.91 1285 329.982 1284.07 330.602 1283.53L335.088 1279.66C335.705 1279.12 335.773 1278.19 335.24 1277.57 335.148 1277.47 335.04 1277.37 334.921 1277.3L322.198 1269.14C321.649 1268.79 320.935 1268.84 320.44 1269.26L291.736 1293.84 295.664 1299.79C296.132 1300.45 295.969 1301.38 295.301 1301.84 294.633 1302.31 293.713 1302.15 293.245 1301.48 293.229 1301.46 293.215 1301.44 293.2 1301.41L289.479 1295.78 261.57 1319.83C260.056 1321.06 258.203 1318.92 259.643 1317.6L318.024 1267.44C318.602 1266.95 318.708 1266.09 318.27 1265.47L314.571 1260.23 321.152 1254.68C321.789 1254.17 321.893 1253.24 321.384 1252.6 320.875 1251.97 319.946 1251.86 319.309 1252.37 319.283 1252.39 319.257 1252.42 319.232 1252.44L312.878 1257.84C312.76 1257.66 306.408 1248.68 303.979 1245.23 303.51 1244.56 302.59 1244.4 301.924 1244.87 301.886 1244.9 301.849 1244.93 301.814 1244.96L268.871 1273.13 275.969 1277.69C276.644 1278.14 276.822 1279.06 276.365 1279.74 275.918 1280.4 275.026 1280.58 274.352 1280.16L266.583 1275.1 244.801 1293.85C243.253 1295.08 241.447 1292.93 242.879 1291.61ZM302.579 1312.47 302.574 1313.47C302.569 1314.29 301.904 1314.94 301.089 1314.94 300.273 1314.94 299.616 1314.27 299.621 1313.45L299.626 1312.47C299.627 1311.6 299.372 1310.76 298.895 1310.04L297.268 1307.58C296.818 1306.9 297.005 1305.98 297.685 1305.53 298.366 1305.08 299.282 1305.27 299.732 1305.95L301.358 1308.41C301.38 1308.44 301.398 1308.48 301.42 1308.51L302.557 1307.54C303.176 1307.01 304.109 1307.08 304.639 1307.7 305.169 1308.32 305.096 1309.25 304.476 1309.78L302.508 1311.46C302.555 1311.8 302.579 1312.13 302.579 1312.47ZM308.165 1302.73 313.776 1297.94C314.396 1297.41 315.328 1297.48 315.858 1298.1 316.388 1298.72 316.315 1299.65 315.696 1300.18L310.085 1304.98C309.465 1305.51 308.533 1305.44 308.003 1304.82 307.473 1304.2 307.546 1303.26 308.165 1302.73ZM319.385 1293.13 324.993 1288.34C325.594 1287.78 326.528 1287.83 327.079 1288.43 327.631 1289.03 327.59 1289.96 326.989 1290.51 326.965 1290.54 326.939 1290.56 326.913 1290.58L321.304 1295.38C320.685 1295.91 319.752 1295.84 319.222 1295.22 318.692 1294.6 318.765 1293.66 319.385 1293.13ZM287.528 1287.46C287.978 1288.15 287.79 1289.06 287.109 1289.51 286.429 1289.96 285.512 1289.77 285.062 1289.09L283.327 1286.47C282.994 1285.96 282.561 1285.53 282.055 1285.19L280.531 1284.2C279.834 1283.78 279.611 1282.87 280.034 1282.17 280.457 1281.47 281.365 1281.25 282.062 1281.67 282.091 1281.69 282.118 1281.71 282.146 1281.73L283.672 1282.72C283.704 1282.74 283.733 1282.77 283.765 1282.79L285.576 1281.24C286.196 1280.71 287.128 1280.78 287.658 1281.4 288.188 1282.02 288.116 1282.95 287.496 1283.48L285.837 1284.9ZM291.185 1276.44 296.796 1271.64C297.415 1271.11 298.348 1271.18 298.878 1271.8 299.408 1272.42 299.335 1273.35 298.715 1273.88L293.107 1278.68C292.493 1279.22 291.56 1279.15 291.023 1278.54 290.487 1277.93 290.55 1276.99 291.165 1276.46 291.171 1276.45 291.178 1276.45 291.185 1276.44ZM302.404 1266.84 308.013 1262.04C308.632 1261.51 309.565 1261.58 310.095 1262.2 310.625 1262.82 310.552 1263.75 309.932 1264.28L304.324 1269.08C303.704 1269.61 302.772 1269.54 302.242 1268.92 301.712 1268.3 301.785 1267.37 302.404 1266.84Z" fill="#FFFFFF" fill-rule="nonzero" fill-opacity="1"/></g></g></g></g></svg>