<?xml version="1.0" encoding="UTF-8"?><svg id="Layer_2" xmlns="http://www.w3.org/2000/svg" viewBox="0 0 11.26 11.61"><defs><style>.cls-1{fill:#fff;stroke:#999;stroke-miterlimit:10;stroke-width:.25px;}</style></defs><g id="_ÎÓÈ_1"><path class="cls-1" d="M5.94,2.25l.16.29c1.02-.58,2.32-.22,2.9.8,0,0,0,0,0,0l.29-.16c-.67-1.18-2.17-1.6-3.36-.92Z"/><path class="cls-1" d="M4.16,1.4c1.52-1.62,4.07-1.71,5.69-.2,1.63,1.52,1.71,4.07.19,5.69-1.47,1.57-3.92,1.71-5.56.31-.04-.04-.08-.07-.12-.11-.04-.04-.08-.08-.12-.12-1.52-1.54-1.55-4-.08-5.58ZM3.84,4.27c.06,1.76,1.51,3.16,3.27,3.16.04,0,.08,0,.12,0,.87-.03,1.69-.4,2.28-1.04,1.23-1.32,1.16-3.4-.16-4.63-1.32-1.23-3.4-1.16-4.63.16-.59.64-.91,1.48-.88,2.35Z"/><path class="cls-1" d="M5.94,2.25l.16.29c1.02-.58,2.32-.22,2.9.8,0,0,0,0,0,0l.29-.16c-.67-1.18-2.17-1.6-3.36-.92Z"/><path class="cls-1" d="M.33,10.23l2.74-2.83,1.09,1.02-2.74,2.83c-.13.14-.32.23-.52.24h-.03c-.41,0-.75-.33-.75-.75,0-.19.07-.37.2-.51H.33Z"/><line class="cls-1" x1="3.49" y1="8.03" x2="4.48" y2="6.98"/><rect class="cls-1" x="3.26" y="7.33" width="1.44" height=".33" transform="translate(-4.22 5.3) rotate(-46.99)"/><path class="cls-1" d="M5.94,2.25l.16.29c1.02-.58,2.32-.22,2.9.8,0,0,0,0,0,0l.29-.16c-.67-1.18-2.17-1.6-3.36-.92Z"/></g></svg>