<svg id="avatar1" enable-background="new 0 0 300 300" height="512" viewBox="0 0 300 300" width="512" xmlns="http://www.w3.org/2000/svg"><g><path d="m260 146.828c0-61.758-50.242-112-112-112s-112 50.242-112 112c0 60.191 48.189 109.77 108 111.893v4.107c0 2.209 1.791 4 4 4h20c2.209 0 4-1.791 4-4v-6.667c51.133-11.172 88-56.679 88-109.333zm-158.942 92.705c4.967-7.23 13.388-13.205 23.745-16.83 5.999 2.211 11.104 3.718 19.198 4.084v23.93c-15.393-.587-29.945-4.551-42.943-11.184zm36.942-174.705c0-5.514 4.486-10 10-10s10 4.486 10 10c0 1.005-.193 1.985-.486 2.936-3.068-.597-6.245-.936-9.514-.936-3.271 0-6.45.339-9.52.938-.292-.951-.48-1.932-.48-2.938zm-1.888 11.755c-3.94 5.385-4.115 9.596-4.112 10.263.01 2.164 1.74 3.865 3.902 3.92 2.203-.012 3.977-1.682 4.096-3.842.012-.225.373-5.125 7.965-11.045 7.451 5.824 8.014 10.793 8.039 11.068.062 2.156 1.83 3.881 3.998 3.881h.018c2.209-.01 3.992-1.809 3.982-4.018-.003-.666-.214-4.87-4.177-10.248 12.842 3.821 22.393 13.651 23.942 25.533-11.045-2.132-23.206-3.267-35.765-3.267s-24.72 1.135-35.765 3.267c1.546-11.862 11.068-21.677 23.877-25.512zm42.02 140.213c1.226-3.198 1.868-6.519 1.868-9.916 0-5.073-1.473-9.998-4.155-14.475 3.14-2.698 5.893-5.829 8.155-9.321v36.607c-1.882-1.04-3.825-2.022-5.868-2.895zm-30.132 2.085c-10.104 0-14.797-1.547-22.488-4.451-1.004-2.436-1.512-4.969-1.512-7.549 0-3.41.922-6.761 2.659-9.855 6.322 3.667 13.609 5.802 21.341 5.802 7.731 0 15.018-2.135 21.34-5.802 1.736 3.093 2.66 6.445 2.66 9.854 0 2.58-.508 5.113-1.514 7.549-7.603 2.876-12.291 4.452-22.486 4.452zm-36.633-80.433c22.311-4.678 50.955-4.678 73.266 0l-1.859 24.179c-1.389 18.057-16.664 32.201-34.773 32.201s-33.385-14.145-34.773-32.201zm79.729 20.289 1.221-15.877c4.262.171 7.683 3.665 7.683 7.968 0 4.412-3.588 8-8 8-.307 0-.603-.057-.904-.091zm-84.951-47.13c12.389-3.129 26.82-4.779 41.855-4.779s29.467 1.65 41.855 4.779c1.424 2.357 2.145 4.781 2.145 7.221 0 4.93-2.918 8.938-5.842 11.715-11.637-2.434-24.779-3.715-38.158-3.715s-26.521 1.281-38.158 3.715c-2.924-2.777-5.842-6.785-5.842-11.715 0-2.439.721-4.863 2.145-7.221zm-1.241 47.133c-.301.034-.597.088-.904.088-4.412 0-8-3.588-8-8 0-4.303 3.42-7.797 7.683-7.968zm15.25 33.665c-2.682 4.479-4.154 9.405-4.154 14.476 0 3.396.642 6.716 1.867 9.912-2.044.873-3.985 1.856-5.867 2.897v-36.605c2.261 3.491 5.014 6.622 8.154 9.32zm31.846 66.423v-32.04c4.761-.216 8.491-.842 12-1.77v33.811h-12zm20-35.824c10.012 3.659 18.153 9.516 22.986 16.585-7.189 3.648-14.895 6.44-22.986 8.352zm29.998 12.715c-2.59-3.937-5.971-7.561-9.998-10.754v-58.137c8.822 0 16-7.178 16-16 0-8.47-6.636-15.354-14.972-15.896 4.553-4.847 6.972-10.34 6.972-16.104 0-4.537-1.477-8.92-4.391-13.023-.541-.762-1.332-1.311-2.234-1.549-.469-.125-.99-.209-1.466-.33-.704-15.269-11.478-28.292-26.672-34 .487-1.65.763-3.363.763-5.098 0-9.926-8.074-18-18-18s-18 8.074-18 18c0 1.737.272 3.45.759 5.099-15.192 5.709-25.964 18.732-26.668 33.999-.475.121-.996.205-1.466.33-.902.238-1.693.787-2.234 1.549-2.914 4.103-4.391 8.486-4.391 13.023 0 5.764 2.418 11.257 6.972 16.104-8.336.542-14.972 7.426-14.972 15.896 0 8.822 7.178 16 16 16v58.135c-3.998 3.17-7.363 6.763-9.945 10.666-29.963-18.319-50.055-51.351-50.055-88.801 0-57.346 46.654-104 104-104s104 46.654 104 104c0 37.125-19.729 70.451-50.002 88.891z"/><path d="m54 49.357c2.502 0 4.53-2.028 4.53-4.529 0-2.502-2.028-4.53-4.53-4.53-2.501 0-4.529 2.028-4.529 4.53s2.028 4.529 4.529 4.529z"/><path d="m239.516 51.312c.781.781 1.805 1.172 2.828 1.172s2.047-.391 2.828-1.172l2.828-2.828 2.828 2.828c.781.781 1.805 1.172 2.828 1.172s2.047-.391 2.828-1.172c1.562-1.562 1.562-4.094 0-5.656l-2.828-2.828 2.828-2.828c1.562-1.562 1.562-4.094 0-5.656s-4.094-1.562-5.656 0l-2.828 2.828-2.828-2.828c-1.562-1.562-4.094-1.562-5.656 0s-1.562 4.094 0 5.656l2.828 2.828-2.828 2.828c-1.563 1.563-1.563 4.094 0 5.656z"/><path d="m250 214.828c-7.719 0-14 6.281-14 14s6.281 14 14 14 14-6.281 14-14-6.281-14-14-14zm0 20c-3.309 0-6-2.691-6-6s2.691-6 6-6 6 2.691 6 6-2.691 6-6 6z"/><circle cx="168" cy="142.828" r="4"/><circle cx="128" cy="142.828" r="4"/><path d="m148 174.828c7.656 0 14.264-5.451 15.711-12.963.336-1.742-.119-3.527-1.25-4.896-1.123-1.359-2.777-2.141-4.539-2.141h-18.457c-3.332 0-5.107 1.305-6.012 2.4-1.061 1.283-1.484 2.975-1.164 4.637 1.447 7.512 8.055 12.963 15.711 12.963zm6.932-12c-1.396 2.416-4.012 4-6.932 4s-5.535-1.584-6.932-4z"/></g></svg>