<svg id="avatar12" enable-background="new 0 0 300 300" height="512" viewBox="0 0 300 300" width="512" xmlns="http://www.w3.org/2000/svg"><g><path d="m150 38.828c-61.758 0-112 50.242-112 112s50.242 112 112 112 112-50.242 112-112-50.242-112-112-112zm6.609 36.483c-2.164-.29-4.361-.483-6.609-.483-2.25 0-4.449.193-6.615.484-.895-1.316-1.385-2.862-1.385-4.484 0-4.412 3.588-8 8-8s8 3.588 8 8c0 1.621-.495 3.168-1.391 4.483zm-18.707 23.455c2.207-.031 3.977-1.682 4.096-3.842.01-.19.321-3.732 4.982-8.394.986.187 1.994.298 3.02.298 1 0 1.979-.115 2.941-.293 4.585 4.601 5.04 8.18 5.061 8.412.062 2.156 1.83 3.881 3.998 3.881h.018c2.209-.01 3.992-1.809 3.982-4.018-.003-.666-.214-4.865-4.171-10.239 11.854 3.536 20.958 12.202 23.455 22.945-21.671 4.309-48.895 4.309-70.566 0 2.491-10.723 11.567-19.377 23.389-22.926-3.935 5.382-4.109 9.588-4.106 10.255.009 2.165 1.739 3.866 3.901 3.921zm-26.06 16.4c23.273 4.859 53.043 4.859 76.316 0 2.924 2.771 5.842 6.771 5.842 11.689 0 2.434-.721 4.85-2.143 7.199-12.385 3.125-26.818 4.773-41.857 4.773s-29.473-1.648-41.857-4.773c-1.422-2.35-2.143-4.766-2.143-7.199 0-4.917 2.918-8.917 5.842-11.689zm82.158 39.729v90.137c-1.32.619-2.65 1.221-4 1.786v-84.87c0-6.462-1.974-12.687-5.608-18.112 2.279-.418 4.429-.941 6.608-1.444 1.932 3.872 3 8.131 3 12.503zm8 40.416 8.227 11.517h-8.227zm-104 11.517h-8.227l8.227-11.517zm8-51.933c0-4.37 1.069-8.631 3-12.503 2.173.501 4.317 1.024 6.589 1.441-3.631 5.429-5.589 11.674-5.589 18.115v84.87c-1.35-.564-2.68-1.167-4-1.786zm12 94.874v-87.822c0-6.09 2.369-11.97 6.657-16.735 8.107 1.04 16.617 1.615 25.343 1.615 8.729 0 17.242-.576 25.351-1.617 4.29 4.767 6.649 10.63 6.649 16.736v87.822c-10.088 3.271-20.837 5.059-32 5.059s-21.912-1.787-32-5.058zm84-8.933v-26.008h16c1.498 0 2.871-.838 3.557-2.17s.568-2.936-.301-4.154l-19.256-26.958v-26.651c0-5.581-1.356-11.023-3.812-15.978 2.492-3.826 3.812-7.87 3.812-12.061 0-6.29-2.868-12.263-8.282-17.416-1.784-15.051-13.437-27.448-29.022-32.338.839-1.963 1.304-4.082 1.304-6.273 0-8.822-7.178-16-16-16s-16 7.178-16 16c0 2.193.46 4.313 1.299 6.276-15.581 4.892-27.233 17.287-29.015 32.335-5.415 5.153-8.284 11.126-8.284 17.415 0 4.192 1.32 8.237 3.812 12.062-2.454 4.955-3.812 10.398-3.812 15.978v26.651l-19.256 26.958c-.869 1.219-.986 2.822-.301 4.154s2.059 2.17 3.557 2.17h16v26.008c-31.054-18.011-52-51.599-52-90.008 0-57.346 46.654-104 104-104s104 46.654 104 104c0 38.41-20.946 71.998-52 90.008z"/><path d="m72 49.357c2.501 0 4.53-2.028 4.53-4.529 0-2.502-2.028-4.53-4.53-4.53s-4.53 2.028-4.53 4.53 2.029 4.529 4.53 4.529z"/><path d="m256 228.299c-2.501 0-4.53 2.028-4.53 4.53 0 2.501 2.028 4.529 4.53 4.529s4.53-2.028 4.53-4.529c0-2.503-2.029-4.53-4.53-4.53z"/><path d="m241.516 55.312c.781.781 1.805 1.172 2.828 1.172s2.047-.391 2.828-1.172l2.828-2.828 2.828 2.828c.781.781 1.805 1.172 2.828 1.172s2.047-.391 2.828-1.172c1.562-1.562 1.562-4.094 0-5.656l-2.828-2.828 2.828-2.828c1.562-1.562 1.562-4.094 0-5.656s-4.094-1.562-5.656 0l-2.828 2.828-2.828-2.828c-1.562-1.562-4.094-1.562-5.656 0s-1.562 4.094 0 5.656l2.828 2.828-2.828 2.828c-1.563 1.563-1.563 4.094 0 5.656z"/><path d="m171.445 166.803-17.1-13.627c-2.52-2.004-6.172-2.004-8.691 0l-17.102 13.629c-2.271 1.811-3.125 4.734-2.174 7.451.971 2.777 3.531 4.572 6.523 4.572h3.3c.981 6.767 6.764 12 13.798 12s12.817-5.233 13.798-12h3.3c2.992 0 5.553-1.795 6.523-4.572.952-2.717.099-5.641-2.175-7.453zm-21.445-6.86 13.66 10.885h-27.32zm0 22.885c-2.604 0-4.803-1.677-5.632-4h11.263c-.828 2.323-3.027 4-5.631 4z"/><circle cx="130" cy="154.828" r="4"/><circle cx="170" cy="154.828" r="4"/></g></svg>