<svg id="avatar13" enable-background="new 0 0 300 300" height="512" viewBox="0 0 300 300" width="512" xmlns="http://www.w3.org/2000/svg"><g><path d="m148 38.828c-61.758 0-112 50.242-112 112s50.242 112 112 112 112-50.242 112-112-50.242-112-112-112zm-56.896 198.991c8.472-13.025 20.969-22.714 35.689-27.559 6.485 2.911 13.65 4.568 21.207 4.568 7.555 0 14.719-1.656 21.203-4.566 14.722 4.845 27.217 14.527 35.693 27.558-16.362 10.738-35.905 17.009-56.896 17.009-20.99-.001-40.534-6.272-56.896-17.01zm80.896-128.271c-15.558 1.613-32.442 1.613-48 0v-38.353c0-2.408 1.959-4.367 4.367-4.367h39.266c2.408 0 4.367 1.959 4.367 4.367zm15.963 5.858 2.697 7.256c-12.809 2.73-27.451 4.166-42.66 4.166s-29.852-1.436-42.66-4.166l2.697-7.256c24.508 4.547 55.418 4.547 79.926 0zm-39.963 19.422c11.076 0 21.881-.741 31.963-2.169 7.748 8.198 12.037 18.836 12.037 30.169 0 24.262-19.738 44-44 44s-44-19.738-44-44c0-11.341 4.29-21.973 12.038-30.169 10.082 1.428 20.886 2.169 31.962 2.169zm63.411 98.348c-8.192-12.478-19.695-22.191-33.257-28.064 13.198-9.44 21.846-24.855 21.846-42.284 0-11.647-3.845-22.667-10.855-31.72 2.664-.515 5.286-1.062 7.806-1.68 1.109-.271 2.049-1.004 2.584-2.012.533-1.01.611-2.197.215-3.268l-5.473-14.715c-.688-1.852-2.617-2.91-4.559-2.523-3.124.646-6.375 1.209-9.719 1.694v-37.409c0-6.818-5.549-12.367-12.367-12.367h-39.266c-6.818 0-12.367 5.549-12.367 12.367v37.409c-3.344-.485-6.595-1.049-9.719-1.694-1.941-.396-3.871.672-4.559 2.523l-5.473 14.715c-.396 1.07-.318 2.258.215 3.268.535 1.008 1.475 1.74 2.584 2.012 2.521.618 5.143 1.166 7.808 1.68-7.009 9.052-10.855 20.067-10.855 31.72 0 17.427 8.646 32.841 21.842 42.281-13.561 5.875-25.064 15.594-33.253 28.067-24.661-19.034-40.589-48.858-40.589-82.348 0-57.346 46.654-104 104-104s104 46.654 104 104c0 33.49-15.928 63.314-40.589 82.348z"/><path d="m70 49.357c2.501 0 4.53-2.028 4.53-4.529 0-2.502-2.028-4.53-4.53-4.53s-4.53 2.028-4.53 4.53 2.029 4.529 4.53 4.529z"/><path d="m239.516 55.312c.781.781 1.805 1.172 2.828 1.172s2.047-.391 2.828-1.172l2.828-2.828 2.828 2.828c.781.781 1.805 1.172 2.828 1.172s2.047-.391 2.828-1.172c1.562-1.562 1.562-4.094 0-5.656l-2.828-2.828 2.828-2.828c1.562-1.562 1.562-4.094 0-5.656s-4.094-1.562-5.656 0l-2.828 2.828-2.828-2.828c-1.562-1.562-4.094-1.562-5.656 0s-1.562 4.094 0 5.656l2.828 2.828-2.828 2.828c-1.563 1.563-1.563 4.094 0 5.656z"/><path d="m250 218.828c-7.719 0-14 6.281-14 14s6.281 14 14 14 14-6.281 14-14-6.281-14-14-14zm0 20c-3.309 0-6-2.691-6-6s2.691-6 6-6 6 2.691 6 6-2.691 6-6 6z"/><circle cx="168" cy="150.828" r="4"/><circle cx="148" cy="234.828" r="4"/><circle cx="148" cy="222.828" r="4"/><circle cx="148" cy="246.828" r="4"/><circle cx="128" cy="150.828" r="4"/><path d="m144.135 191.854c.465 1.754 2.051 2.975 3.865 2.975s3.4-1.221 3.865-2.975l8-30.15c.568-2.135-.705-4.324-2.84-4.893-2.125-.559-4.324.709-4.891 2.842l-4.134 15.577-4.135-15.578c-.568-2.139-2.762-3.406-4.891-2.842-2.135.568-3.408 2.758-2.84 4.893z"/></g></svg>