<svg id="avatar18" enable-background="new 0 0 300 300" height="512" viewBox="0 0 300 300" width="512" xmlns="http://www.w3.org/2000/svg"><g><path d="m148 38.828c-61.758 0-112 50.242-112 112s50.242 112 112 112 112-50.242 112-112-50.242-112-112-112zm-87.044 168.815c.036-.021.069-.055.106-.075 6.395-3.438 9.516-10.975 7.422-17.922-.793-2.629-.105-5.355 1.836-7.297 1.938-1.939 4.656-2.629 7.297-1.838 6.934 2.086 14.488-1.029 17.926-7.426.561-1.045 1.357-1.836 2.273-2.479.721.1 1.436.221 2.184.221 1.92 0 3.793-.408 5.567-1.07 2.123 15.459 12.518 28.267 26.433 33.93v4.58c0 4.627-3.039 8.684-7.559 10.096-13.327 4.163-24.16 11.825-30.417 21.331-13.265-8.087-24.567-19.072-33.068-32.051zm116.893-118.593c-8.61-6.491-18.817-10.222-29.849-10.222s-21.239 3.731-29.849 10.222c-3.96-2.04-6.151-4.301-6.151-6.222 0-4.893 14.023-12 36-12s36 7.107 36 12c0 1.922-2.191 4.182-6.151 6.222zm-9.195 3.366c-5.62 1.452-12.596 2.413-20.654 2.413-8.059 0-15.034-.961-20.655-2.413 6.001-3.505 12.891-5.587 20.655-5.587 7.763-.001 14.653 2.082 20.654 5.587zm-49.146 5.836c8.132 3.002 18.446 4.576 28.492 4.576s20.36-1.574 28.492-4.576c10.798 10.02 17.374 25.321 19.05 40.615-.95.028-1.886.146-2.81.34-.041-4.008-.624-8.013-1.755-11.952-.094-.322-.223-.631-.395-.92-2.723-4.641-7.316-7.686-12.602-8.354-2.422-.307-4.656-1.598-6.133-3.543-4.738-6.238-13.078-8.473-20.305-5.439-2.25.945-4.836.945-7.086 0-7.207-3.027-15.559-.801-20.305 5.439-1.477 1.945-3.711 3.236-6.133 3.543-5.285.668-9.879 3.713-12.602 8.354-.172.289-.301.598-.395.92-1.13 3.936-1.713 7.938-1.755 11.943-.917-.19-1.853-.306-2.809-.333 1.678-15.294 8.254-30.594 19.051-40.613zm46.196 126.229c-4.959 4.067-11.164 6.347-17.704 6.347s-12.745-2.28-17.704-6.347c5.91-3.232 9.704-9.343 9.704-16.213v-2.207c2.598.499 5.272.767 8 .767s5.402-.268 8-.767v2.207c0 6.87 3.794 12.981 9.704 16.213zm-17.704-25.653c-18.109 0-33.383-14.145-34.773-32.201l-1.863-24.234c-.316-4.139.086-8.312 1.203-12.41 1.48-2.256 3.809-3.729 6.457-4.062 4.539-.574 8.734-2.996 11.504-6.645 2.523-3.33 6.98-4.52 10.828-2.9 4.227 1.773 9.062 1.773 13.289 0 3.844-1.615 8.305-.428 10.828 2.9 2.77 3.648 6.965 6.07 11.504 6.645h.004c2.645.334 4.973 1.807 6.453 4.062 1.117 4.098 1.52 8.271 1.203 12.41l-1.863 24.234c-1.391 18.057-16.665 32.201-34.774 32.201zm44.238-50.937c1.161-.631 2.41-1.063 3.762-1.063 4.41 0 8 3.588 8 8s-3.59 8-8 8c-1.762 0-3.413-.573-4.787-1.608zm-92.238-1.063c1.353 0 2.602.43 3.762 1.062l1.024 13.322c-1.375 1.037-3.026 1.617-4.786 1.617-4.41 0-8-3.588-8-8s3.59-8.001 8-8.001zm1.021 96.739c4.527-6.617 11.901-12.177 21.032-15.862 6.778 7.08 16.062 11.123 25.947 11.123s19.17-4.043 25.947-11.123c9.131 3.685 16.505 9.245 21.032 15.862-14.122 7.183-30.079 11.261-46.979 11.261s-32.857-4.078-46.979-11.261zm100.955-3.873c-6.257-9.506-17.09-17.168-30.417-21.331-4.52-1.412-7.559-5.469-7.559-10.096v-4.58c13.917-5.664 24.312-18.474 26.434-33.936 1.773.662 3.643 1.076 5.566 1.076 8.824 0 16-7.178 16-16 0-6.001-3.359-11.178-8.26-13.916-1.339-18.854-8.645-35.152-19.637-46.323 4.861-3.096 7.897-7.026 7.897-11.761 0-12.99-22.668-20-44-20s-44 7.01-44 20c0 4.735 3.035 8.666 7.897 11.761-10.991 11.17-18.297 27.469-19.636 46.322-4.901 2.739-8.261 7.917-8.261 13.918 0 4.981 2.335 9.382 5.914 12.318-.522.677-1.006 1.388-1.418 2.155-1.645 3.059-5.242 4.549-8.574 3.551-5.492-1.648-11.199-.215-15.258 3.84-4.059 4.059-5.496 9.764-3.84 15.262 1 3.322-.492 6.926-3.551 8.57-.154.083-.285.211-.436.3-8.174-14.846-12.837-31.885-12.837-49.996 0-57.346 46.652-104 104-104s104 46.654 104 104c0 37.596-20.053 70.595-50.024 88.866z"/><path d="m70 49.357c2.501 0 4.53-2.028 4.53-4.529 0-2.502-2.028-4.53-4.53-4.53s-4.53 2.028-4.53 4.53 2.029 4.529 4.53 4.529z"/><path d="m239.516 55.312c.781.781 1.805 1.172 2.828 1.172s2.047-.391 2.828-1.172l2.828-2.828 2.828 2.828c.781.781 1.805 1.172 2.828 1.172s2.047-.391 2.828-1.172c1.562-1.562 1.562-4.094 0-5.656l-2.828-2.828 2.828-2.828c1.562-1.562 1.562-4.094 0-5.656s-4.094-1.562-5.656 0l-2.828 2.828-2.828-2.828c-1.562-1.562-4.094-1.562-5.656 0s-1.562 4.094 0 5.656l2.828 2.828-2.828 2.828c-1.563 1.563-1.563 4.094 0 5.656z"/><path d="m250 218.828c-7.719 0-14 6.281-14 14s6.281 14 14 14 14-6.281 14-14-6.281-14-14-14zm0 20c-3.309 0-6-2.691-6-6s2.691-6 6-6 6 2.691 6 6-2.691 6-6 6z"/><circle cx="168" cy="146.828" r="4"/><circle cx="128" cy="146.828" r="4"/><path d="m157.922 158.828h-18.457c-3.324 0-5.102 1.301-6.008 2.393-1.059 1.281-1.488 2.969-1.172 4.645 1.449 7.512 8.059 12.963 15.715 12.963s14.266-5.451 15.715-12.975c.332-1.744-.129-3.527-1.262-4.893-1.121-1.356-2.773-2.133-4.531-2.133zm-9.922 12c-2.922 0-5.539-1.586-6.938-4h13.871c-1.398 2.416-4.011 4-6.933 4z"/><path d="m96 224.059c0-3.949-1.539-7.66-4.328-10.443-2.637-2.639-2.637-6.936-.004-9.57 2.793-2.787 4.332-6.498 4.332-10.447 0-1.893.762-3.646 2.141-4.939 1.613-1.512 1.695-4.043.184-5.654-1.504-1.609-4.043-1.691-5.652-.186-2.97 2.78-4.673 6.709-4.673 10.778 0 1.809-.703 3.508-1.984 4.787-5.758 5.758-5.758 15.129.004 20.891 1.277 1.275 1.98 2.975 1.98 4.783 0 2.209 1.789 4 4 4s4-1.791 4-4z"/><path d="m105.43 202.598c1.199.627 4.961 2.969 3.023 6.697-1.02 1.959-.258 4.375 1.699 5.395.59.307 1.223.451 1.844.451 1.445 0 2.84-.783 3.551-2.154 1.586-3.049 1.922-6.227.965-9.191-1.711-5.301-6.867-8.033-7.453-8.326-1.957-.988-4.34-.205-5.344 1.748s-.231 4.358 1.715 5.38z"/></g></svg>