<svg id="avatar25" enable-background="new 0 0 300 300" height="512" viewBox="0 0 300 300" width="512" xmlns="http://www.w3.org/2000/svg"><g><path d="m70 50.529c2.501 0 4.53-2.028 4.53-4.529 0-2.502-2.028-4.53-4.53-4.53s-4.53 2.028-4.53 4.53c0 2.501 2.029 4.529 4.53 4.529z"/><path d="m160.773 40.74c-3.476-2.914-7.894-4.74-12.773-4.74-4.88 0-9.298 1.826-12.774 4.741-56.638 6.423-99.226 54.063-99.226 111.259 0 61.758 50.242 112 112 112s112-50.242 112-112c0-57.191-42.589-104.835-99.227-111.26zm91.227 111.26c0 27.059-10.395 51.73-27.392 70.25l-35.56-19.707c4.501-8.875 6.952-18.85 6.952-29.144v-1.313c3.591-2.19 6.1-4.167 6.92-5.146 1.189-1.418 1.387-3.752.281-5.238-.896-1.207-2.803-2.254-5.24-1.201-2.151.92-4.117 1.549-5.961 1.981v-3.575c4.875-1.906 8.521-6.27 9.281-11.599l.92-6.432c.588-4.117-.6-8.312-3.258-11.506-1.15-1.381-2.567-2.471-4.116-3.342 3.387-4.322 5.173-9.083 5.173-14.028 0-4.537-1.477-8.918-4.389-13.021-.541-.762-1.332-1.312-2.234-1.551-.47-.125-.992-.209-1.468-.33-.685-14.855-10.92-27.554-25.469-33.49.992-2.4 1.56-4.959 1.56-7.608 0-2.201-.444-4.283-1.104-6.266 49.04 8.936 85.104 51.554 85.104 102.266zm-115.888-82.245c-3.94 5.385-4.115 9.596-4.112 10.263.01 2.164 1.74 3.865 3.902 3.92 2.221.072 3.977-1.682 4.096-3.842.012-.225.373-5.125 7.965-11.045 7.451 5.824 8.014 10.793 8.039 11.068.062 2.156 1.83 3.881 3.998 3.881h.018c2.209-.01 3.992-1.809 3.982-4.018-.003-.666-.214-4.87-4.177-10.248 12.842 3.821 22.393 13.651 23.942 25.533-11.046-2.132-23.207-3.267-35.765-3.267s-24.72 1.135-35.765 3.267c1.546-11.862 11.068-21.677 23.877-25.512zm-29.967 35.024c12.388-3.129 26.82-4.779 41.855-4.779 15.033 0 29.467 1.65 41.855 4.779 1.424 2.357 2.145 4.781 2.145 7.221 0 4.987-3 9.017-5.89 11.75-23.289-4.851-52.925-4.853-76.219 0-2.877-2.72-5.891-6.752-5.891-11.75 0-2.439.721-4.863 2.145-7.221zm-2.94 29.709c1.229-1.475 3.035-2.365 4.773-2.439l.707.004c.24.002.602-.031.896-.096 23.113-5.18 53.723-5.18 76.836 0 .293.062.627.035.896.096l.523-.008c1.922.078 3.729.969 4.957 2.443 1.232 1.48 1.76 3.346 1.488 5.256l-.92 6.43c-.164 1.15-.69 2.154-1.363 3.04v-1.214c0-2.209-1.791-4-4-4s-4 1.791-4 4v14.988c-5.577-.73-9.782-3.761-14.117-6.918-3.091-2.251-6.279-4.52-9.883-5.704v-2.366c0-2.209-1.791-4-4-4s-4 1.791-4 4v4c0 2.205-1.795 4-4 4s-4-1.795-4-4v-4c0-2.209-1.791-4-4-4s-4 1.791-4 4v2.333c-3.608 1.183-6.787 3.484-9.881 5.737-4.337 3.157-8.541 6.192-14.119 6.923v-14.993c0-2.209-1.791-4-4-4s-4 1.791-4 4v1.215c-.673-.886-1.199-1.889-1.363-3.039l-.918-6.432c-.272-1.91.258-3.775 1.488-5.256zm34.574 23.713c2.107 3.461 5.881 5.799 10.221 5.799 4.344 0 8.12-2.342 10.226-5.807 2.171.876 4.432 2.513 6.948 4.344 4.145 3.018 9.127 6.646 15.758 8.035-7.99 3.041-17.666 4.756-25.812.686-1.762-.881-2.982-1.887-3.732-3.08-1.461-2.332-5.312-2.332-6.773 0-.75 1.193-1.971 2.199-3.734 3.08-8.139 4.074-17.818 2.355-25.811-.686 6.631-1.389 11.613-5.018 15.76-8.035 2.512-1.831 4.774-3.459 6.949-4.336zm-7.636 23.418c4.861 0 9.74-.918 14.312-3.205 1.334-.666 2.512-1.404 3.545-2.227 1.033.822 2.211 1.561 3.543 2.227 11.911 5.957 25.871 2.629 36.281-2.033-.893 16.903-9.197 32.539-22.757 42.246l-13.067 9.352v-15.979c0-2.209-1.791-4-4-4s-4 1.791-4 4v16.391l-13.377-9.723c-13.445-9.769-21.654-25.437-22.464-42.295 6.416 2.875 14.175 5.247 21.984 5.246zm-4.223 43.522 19.395 14.096c.701.508 1.525.764 2.352.764.064 0 .125-.026.189-.029.051.002.093.029.145.029 1.25 0 2.321-.609 3.054-1.507l18.668-13.362c6.031-4.317 11.162-9.658 15.254-15.699l11.525 6.387c-7.664 16.743-27.068 28.18-48.502 28.18-21.573 0-41.027-11.548-48.607-28.448l11.293-6.351c4.066 6.129 9.195 11.551 15.234 15.94zm34.08-169.141c0 1.835-.417 3.608-1.203 5.227-3.462-.772-7.066-1.227-10.797-1.227-3.729 0-7.331.454-10.791 1.225-.786-1.618-1.209-3.389-1.209-5.225 0-6.617 5.383-12 12-12s12 5.383 12 12zm-30.896-6.266c-.66 1.983-1.104 4.064-1.104 6.266 0 2.652.57 5.209 1.561 7.607-14.55 5.935-24.785 18.635-25.471 33.491-.475.121-.996.205-1.466.33-.902.238-1.693.787-2.234 1.549-2.913 4.103-4.39 8.486-4.39 13.023 0 4.942 1.781 9.703 5.165 14.023-1.538.872-2.956 1.964-4.109 3.348-2.658 3.193-3.846 7.387-3.256 11.504l.918 6.432c.76 5.329 4.406 9.693 9.281 11.599v3.578c-1.844-.433-3.811-1.063-5.963-1.985-1.697-.732-4.137-.285-5.238 1.203-1.105 1.486-.908 3.82.281 5.238.821.979 3.328 2.956 6.92 5.147v1.58c0 10.075 2.364 19.855 6.697 28.601l-35.386 19.898c-16.949-18.511-27.31-43.149-27.31-70.166 0-50.716 36.062-93.331 85.104-102.266zm-51.938 178.317 15.222-8.56c9.081 19.62 30.795 32.509 55.612 32.509 24.691 0 46.377-12.803 55.523-32.29l15.215 8.432c-18.574 17.268-43.437 27.858-70.738 27.858-27.349 0-52.25-10.628-70.834-27.949z"/><path d="m239.516 56.484c.781.781 1.805 1.172 2.828 1.172s2.047-.391 2.828-1.172l2.828-2.828 2.828 2.828c.781.781 1.805 1.172 2.828 1.172s2.047-.391 2.828-1.172c1.562-1.562 1.562-4.094 0-5.656l-2.828-2.828 2.828-2.828c1.562-1.562 1.562-4.094 0-5.656s-4.094-1.562-5.656 0l-2.828 2.828-2.828-2.828c-1.562-1.562-4.094-1.562-5.656 0s-1.562 4.094 0 5.656l2.828 2.828-2.828 2.828c-1.563 1.563-1.563 4.094 0 5.656z"/><path d="m250 220c-7.719 0-14 6.281-14 14s6.281 14 14 14 14-6.281 14-14-6.281-14-14-14zm0 20c-3.309 0-6-2.691-6-6s2.691-6 6-6 6 2.691 6 6-2.691 6-6 6z"/><circle cx="164" cy="136" r="4"/><circle cx="132" cy="136" r="4"/></g></svg>