<svg id="avatar26" enable-background="new 0 0 300 300" height="512" viewBox="0 0 300 300" width="512" xmlns="http://www.w3.org/2000/svg"><g><path d="m70 49.357c2.501 0 4.53-2.028 4.53-4.529 0-2.502-2.028-4.53-4.53-4.53s-4.53 2.028-4.53 4.53 2.029 4.529 4.53 4.529z"/><path d="m148 38.828c-61.758 0-112 50.242-112 112s50.242 112 112 112 112-50.242 112-112-50.242-112-112-112zm0 8c57.348 0 104 46.654 104 104 0 27.059-10.395 51.731-27.392 70.251l-35.56-19.708c4.501-8.875 6.952-18.85 6.952-29.144v-1.313c3.59-2.19 6.098-4.167 6.918-5.146 1.188-1.418 1.387-3.752.281-5.238-.895-1.203-2.801-2.256-5.238-1.201-2.151.921-4.117 1.55-5.961 1.982v-3.577c4.874-1.906 8.522-6.27 9.285-11.601l.918-6.43c.586-4.117-.602-8.312-3.262-11.506-1.832-2.199-4.254-3.803-6.941-4.648v-.35c3.036-.534 6.019-1.106 8.883-1.754 1.145-.26 2.117-1.008 2.66-2.045.543-1.039.605-2.266.168-3.352l-5.93-14.715c-.719-1.773-2.582-2.785-4.461-2.436-.424.081-.892.134-1.32.213v-22.59c0-11.961-9.73-21.691-21.691-21.691h-44.617c-11.962-.001-21.692 9.73-21.692 21.691v22.592c-.429-.079-.897-.132-1.322-.213-1.883-.354-3.746.662-4.461 2.436l-5.928 14.715c-.438 1.088-.377 2.312.168 3.352.545 1.037 1.518 1.785 2.66 2.045 2.864.648 5.847 1.219 8.883 1.754v.35c-2.688.846-5.111 2.449-6.943 4.65-2.658 3.193-3.846 7.387-3.256 11.504l.918 6.432c.76 5.329 4.406 9.693 9.281 11.599v3.579c-1.844-.433-3.812-1.063-5.963-1.986-1.697-.732-4.137-.285-5.238 1.203-1.105 1.486-.908 3.82.281 5.238.821.979 3.328 2.956 6.92 5.147v1.58c0 10.075 2.364 19.855 6.697 28.601l-35.386 19.898c-16.95-18.513-27.311-43.151-27.311-70.168 0-57.346 46.654-104 104-104zm36 53.571c-22.631 3.17-49.371 3.17-72 0v-23.879c0-7.549 6.143-13.691 13.691-13.691h44.617c7.551 0 13.691 6.143 13.691 13.691v23.879zm-79.58 6.949c26.67 4.621 60.482 4.621 87.158 0l2.93 7.27c-13.957 2.76-29.922 4.211-46.508 4.211-16.584 0-32.551-1.451-46.51-4.211zm7.58 19.529v-2.423c11.312 1.553 23.486 2.374 36 2.374 12.512 0 24.688-.821 36-2.374v2.423c0 2.146 1.695 3.91 3.84 3.996 1.922.078 3.727.969 4.957 2.443 1.23 1.48 1.758 3.346 1.484 5.258l-.918 6.428c-.164 1.151-.69 2.154-1.363 3.041v-1.215c0-2.209-1.789-4-4-4s-4 1.791-4 4v14.991c-5.578-.731-9.783-3.764-14.117-6.92-3.095-2.254-6.274-4.552-9.883-5.735v-2.335c0-2.209-1.789-4-4-4s-4 1.791-4 4v4c0 2.205-1.793 4-4 4s-4-1.795-4-4v-4c0-2.209-1.789-4-4-4-2.209 0-4 1.791-4 4v2.332c-3.608 1.183-6.788 3.484-9.881 5.736-4.336 3.16-8.542 6.194-14.119 6.925v-14.993c0-2.209-1.791-4-4-4s-4 1.791-4 4v1.215c-.673-.886-1.199-1.889-1.363-3.039l-.918-6.432c-.271-1.91.256-3.775 1.486-5.256 1.229-1.475 3.035-2.365 4.957-2.443 2.145-.087 3.838-1.851 3.838-3.997zm25.779 30.153c2.108 3.46 5.881 5.798 10.221 5.798 4.341 0 8.115-2.339 10.223-5.801 2.173.876 4.437 2.507 6.953 4.338 4.145 3.018 9.125 6.646 15.754 8.037-7.988 3.039-17.664 4.754-25.812.684-1.762-.881-2.98-1.887-3.73-3.08-1.461-2.332-5.312-2.332-6.773 0-.75 1.193-1.969 2.199-3.734 3.08-8.139 4.074-17.814 2.355-25.811-.686 6.629-1.389 11.613-5.018 15.76-8.035 2.512-1.831 4.774-3.458 6.949-4.335zm-7.636 23.417c4.861 0 9.74-.918 14.311-3.205 1.336-.666 2.512-1.404 3.547-2.227 1.031.822 2.211 1.561 3.543 2.227 11.914 5.956 25.872 2.628 36.281-2.033-.893 16.902-9.197 32.538-22.757 42.246l-17.379 12.441-17.064-12.4c-13.445-9.769-21.654-25.437-22.464-42.295 6.414 2.875 14.173 5.247 21.982 5.246zm-19.457 27.583c4.066 6.128 9.195 11.551 15.234 15.939l18.08 13.139v17.619c-25.771-.981-49.161-11.376-66.834-27.848zm41.314 28.616 17.723-12.687c6.032-4.318 11.163-9.659 15.255-15.7l33.761 18.711c-17.661 16.42-41.014 26.777-66.739 27.757z"/><path d="m239.516 55.312c.781.781 1.805 1.172 2.828 1.172s2.047-.391 2.828-1.172l2.828-2.828 2.828 2.828c.781.781 1.805 1.172 2.828 1.172s2.047-.391 2.828-1.172c1.562-1.562 1.562-4.094 0-5.656l-2.828-2.828 2.828-2.828c1.562-1.562 1.562-4.094 0-5.656s-4.094-1.562-5.656 0l-2.828 2.828-2.828-2.828c-1.562-1.562-4.094-1.562-5.656 0s-1.562 4.094 0 5.656l2.828 2.828-2.828 2.828c-1.563 1.563-1.563 4.094 0 5.656z"/><path d="m250 218.828c-7.719 0-14 6.281-14 14s6.281 14 14 14 14-6.281 14-14-6.281-14-14-14zm0 20c-3.309 0-6-2.691-6-6s2.691-6 6-6 6 2.691 6 6-2.691 6-6 6z"/><circle cx="164" cy="134.828" r="4"/><circle cx="132" cy="134.828" r="4"/></g></svg>