<svg id="avatar29" enable-background="new 0 0 300 300" height="512" viewBox="0 0 300 300" width="512" xmlns="http://www.w3.org/2000/svg"><g><path d="m148 38.828c-61.758 0-112 50.242-112 112s50.242 112 112 112 112-50.242 112-112-50.242-112-112-112zm0 8c57.348 0 104 46.654 104 104 0 25.983-9.6 49.752-25.41 68h-17.018c1.509-2.49 2.428-5.376 2.428-8.494v-67.506h5.395c3.641 0 6.605-2.965 6.605-6.607v-26.785c0-3.643-2.965-6.607-6.605-6.607h-21.395v-14.184c0-2.643-1.184-5.107-3.246-6.76-2.059-1.652-4.719-2.277-7.301-1.699l-29.891 6.643h-15.125l-29.891-6.643c-2.582-.58-5.246.045-7.301 1.699-2.062 1.652-3.246 4.117-3.246 6.76v14.184h-21.394c-3.641 0-6.605 2.965-6.605 6.607v26.785c0 3.643 2.965 6.607 6.605 6.607h5.395v67.506c0 3.118.919 6.005 2.428 8.494h-17.018c-15.81-18.248-25.41-42.017-25.41-68 0-57.346 46.652-104 104-104zm-56 163.506v-67.506h16v8c0 1.387.719 2.674 1.898 3.402 1.176.725 2.648.791 3.891.176l6.211-3.105 6.211 3.105c.566.281 1.176.422 1.789.422.73 0 1.461-.201 2.102-.598 1.18-.729 1.898-2.016 1.898-3.402v-8h32v8c0 1.387.719 2.674 1.898 3.402 1.176.725 2.648.791 3.891.176l6.211-3.105 6.211 3.105c.566.281 1.176.422 1.789.422.73 0 1.461-.201 2.102-.598 1.18-.729 1.898-2.016 1.898-3.402v-8h16v67.506c0 4.684-3.809 8.494-8.492 8.494h-95.016c-4.683 0-8.492-3.81-8.492-8.494zm8.204-99.506c.412 1.932 1.462 3.675 3.039 4.941 2.062 1.654 4.727 2.279 7.305 1.701l2-.445-1.77 2.124c-1.793 2.152-2.777 4.879-2.777 7.678v8h-28.001v-24h20.204zm86.984-22.834c.266-.061.449.039.562.131s.25.256.25.52v20.367c0 .264-.137.428-.25.518s-.297.193-.562.133l-27.188-6.043v-.792h16c2.211 0 4-1.791 4-4s-1.789-4-4-4h-16v-.792zm5.57 27.776c1.576-1.267 2.627-3.01 3.039-4.941h20.203v24h-28v-8c0-2.803-.988-5.531-2.781-7.682l-1.766-2.12 2.001.445c.629.141 1.266.209 1.895.209 1.948-.001 3.85-.661 5.409-1.911zm-13.684 8.5c.598.717.926 1.625.926 2.559v17.527l-2.211-1.105c-1.125-.562-2.453-.562-3.578 0l-2.211 1.104v-14.631c0-.936-.328-1.842-.926-2.561l-13.185-15.819 12.782 2.841zm-63.074 2.558c0-.934.328-1.844.926-2.561l8.404-10.082 12.781-2.84-13.185 15.819c-.598.719-.926 1.625-.926 2.561v14.631l-2.211-1.105c-1.125-.562-2.453-.562-3.578 0l-2.211 1.104zm16 4.346 16-19.197 16 19.197v3.654h-32zm20-28.346h-8v-8h8zm-16-8h-16c-2.211 0-4 1.791-4 4s1.789 4 4 4h16v.792l-27.188 6.042c-.266.061-.449-.043-.563-.133-.113-.09-.25-.254-.25-.518v-20.366c0-.264.137-.428.25-.52s.297-.191.563-.131l27.188 6.042zm-58.888 132h141.777c-18.59 17.351-43.512 28-70.888 28s-52.299-10.649-70.889-28z"/><path d="m70 49.357c2.501 0 4.53-2.028 4.53-4.529 0-2.502-2.028-4.53-4.53-4.53s-4.53 2.028-4.53 4.53 2.029 4.529 4.53 4.529z"/><path d="m239.516 55.312c.781.781 1.805 1.172 2.828 1.172s2.047-.391 2.828-1.172l2.828-2.828 2.828 2.828c.781.781 1.805 1.172 2.828 1.172s2.047-.391 2.828-1.172c1.562-1.562 1.562-4.094 0-5.656l-2.828-2.828 2.828-2.828c1.562-1.562 1.562-4.094 0-5.656s-4.094-1.562-5.656 0l-2.828 2.828-2.828-2.828c-1.562-1.562-4.094-1.562-5.656 0s-1.562 4.094 0 5.656l2.828 2.828-2.828 2.828c-1.563 1.563-1.563 4.094 0 5.656z"/><path d="m250 218.828c-7.719 0-14 6.281-14 14s6.281 14 14 14 14-6.281 14-14-6.281-14-14-14zm0 20c-3.309 0-6-2.691-6-6s2.691-6 6-6 6 2.691 6 6-2.691 6-6 6z"/><circle cx="168" cy="166.828" r="4"/><circle cx="128" cy="166.828" r="4"/><path d="m161.43 178.828h-24.984c-3.977 0-6.035 1.486-7.062 2.732-1.172 1.422-1.621 3.225-1.262 5.078 1.832 9.381 10.191 16.189 19.879 16.189 9.68 0 18.043-6.809 19.879-16.195.375-1.926-.129-3.9-1.379-5.416-1.251-1.517-3.099-2.388-5.071-2.388zm-13.43 16c-5.254 0-9.855-3.275-11.555-8h23.105c-1.698 4.727-6.3 8-11.55 8z"/></g></svg>