<svg id="avatar4" enable-background="new 0 0 300 300" height="512" viewBox="0 0 300 300" width="512" xmlns="http://www.w3.org/2000/svg"><g><path d="m260 146.828c0-61.758-50.242-112-112-112s-112 50.242-112 112c0 60.311 48.137 109.772 108 111.894v4.106c0 2.209 1.791 4 4 4h20c2.209 0 4-1.791 4-4v-6.667c51.134-11.175 88-56.673 88-109.333zm-158.943 92.732c4.966-7.229 13.406-13.241 23.738-16.859 6.003 2.212 11.109 3.72 19.205 4.087v23.933c-15.399-.588-29.948-4.545-42.943-11.161zm2.943-33.06v-31.672h3.82c2.571 6.878 6.878 12.891 12.341 17.583-1.385 2.314-2.423 4.745-3.109 7.265-3.592 3.638-8.108 6.003-13.052 6.824zm68 .381c0 2.58-.508 5.113-1.514 7.549-7.604 2.875-12.291 4.451-22.486 4.451-10.104 0-14.797-1.547-22.488-4.451-1.004-2.436-1.512-4.969-1.512-7.549 0-3.405.939-6.755 2.673-9.847 6.319 3.662 13.601 5.794 21.327 5.794 7.724 0 15.004-2.131 21.322-5.791 1.733 3.092 2.678 6.441 2.678 9.844zm-24-12.053c-18.109 0-33.385-14.145-34.773-32.201l-2.138-27.799h7.931c11.188 0 20.432-3.957 26.258-10.572 4.409 17.143 19.741 29.919 38.099 30.515l-.603 7.856c-1.389 18.057-16.665 32.201-34.774 32.201zm-7.299-104h14.598c20.236 0 36.701 16.465 36.701 36.701v19.299h-7.293c-18.035 0-32.707-14.672-32.707-32.707v-8.273c0-2.209-1.791-4-4-4s-4 1.791-4 4c0 15.486-13.457 20.98-24.98 20.98h-15.014c.377-19.914 16.693-36 36.695-36zm51.299 64h4c2.209 0 4-1.791 4-4v-20h1.393c1.438 0 2.607 1.17 2.607 2.607v9.299 21.486c0 1.438-1.17 2.607-2.607 2.607h-9.393zm9.393-32h-1.645c-1.937-18.442-15.146-33.538-32.584-38.351.538-1.827.836-3.725.836-5.649 0-.101-.028-.194-.03-.295 19.062 7.26 32.625 24.351 35.444 44.499-.655-.127-1.329-.204-2.021-.204zm-41.393-44c0 1.453-.352 2.852-.857 4.195-1.27-.109-2.546-.195-3.844-.195h-14.598c-1.297 0-2.574.086-3.844.195-.505-1.343-.857-2.742-.857-4.195 0-6.617 5.383-12 12-12s12 5.383 12 12zm-31.161 5.648c-17.439 4.813-30.649 19.909-32.587 38.352h-1.645c-.692 0-1.365.077-2.021.204 2.824-20.124 16.394-37.241 35.443-44.501-.001.101-.03.195-.03.297.001 1.923.302 3.821.84 5.648zm-36.839 66.598v-17.639c0-1.438 1.17-2.607 2.607-2.607h1.393c0 2.209 1.791 4 4 4h3.064l.95 12.35c0 .025-.014.046-.014.072v19.578h-9.393c-1.438 0-2.607-1.17-2.607-2.607zm60 107.754v-32.04c4.761-.216 8.491-.842 12-1.77v33.811h-12zm20-35.826c9.992 3.653 18.143 9.532 22.976 16.594-7.186 3.645-14.888 6.436-22.976 8.347zm29.988 12.724c-5.203-7.965-13.442-14.533-23.849-18.947 1.222-3.192 1.861-6.508 1.861-9.898 0-5.06-1.484-9.991-4.162-14.469 5.463-4.692 9.771-10.705 12.342-17.583h13.213c5.85 0 10.607-4.758 10.607-10.607v-21.486-9.299-2.607c0-28.703-19.067-53.76-46.53-61.536-3.401-6.201-9.913-10.464-17.47-10.464-7.552 0-14.062 4.258-17.464 10.453-27.45 7.77-46.536 32.886-46.536 61.545v2.607 17.639 13.146c0 5.85 4.758 10.607 10.607 10.607h1.393v36c0 2.209 1.791 4 4 4 5.826 0 11.375-1.563 16.239-4.443.279 2.176.825 4.311 1.623 6.394-10.375 4.402-18.601 10.956-23.807 18.896-29.977-18.29-50.055-51.31-50.055-88.846 0-57.346 46.654-104 104-104s104 46.654 104 104c0 37.135-19.732 70.46-50.012 88.898z"/><path d="m70 45.357c2.501 0 4.53-2.028 4.53-4.529 0-2.502-2.028-4.53-4.53-4.53s-4.53 2.028-4.53 4.53 2.029 4.529 4.53 4.529z"/><path d="m239.516 51.312c.781.781 1.805 1.172 2.828 1.172s2.047-.391 2.828-1.172l2.828-2.828 2.828 2.828c.781.781 1.805 1.172 2.828 1.172s2.047-.391 2.828-1.172c1.562-1.562 1.562-4.094 0-5.656l-2.828-2.828 2.828-2.828c1.562-1.562 1.562-4.094 0-5.656s-4.094-1.562-5.656 0l-2.828 2.828-2.828-2.828c-1.562-1.562-4.094-1.562-5.656 0s-1.562 4.094 0 5.656l2.828 2.828-2.828 2.828c-1.563 1.563-1.563 4.094 0 5.656z"/><path d="m250 214.828c-7.719 0-14 6.281-14 14s6.281 14 14 14 14-6.281 14-14-6.281-14-14-14zm0 20c-3.309 0-6-2.691-6-6s2.691-6 6-6 6 2.691 6 6-2.691 6-6 6z"/><circle cx="128" cy="142.828" r="4"/><path d="m157.922 154.828h-18.457c-3.332 0-5.107 1.305-6.012 2.4-1.061 1.283-1.484 2.975-1.164 4.637 1.447 7.512 8.055 12.963 15.711 12.963s14.264-5.451 15.711-12.963c.336-1.742-.119-3.527-1.25-4.896-1.123-1.36-2.777-2.141-4.539-2.141zm-9.922 12c-2.92 0-5.535-1.584-6.932-4h13.863c-1.396 2.416-4.011 4-6.931 4z"/></g></svg>