<svg id="avatar6" enable-background="new 0 0 300 300" height="512" viewBox="0 0 300 300" width="512" xmlns="http://www.w3.org/2000/svg"><g><path d="m260 146.828c0-61.758-50.242-112-112-112s-112 50.242-112 112c0 60.286 48.147 109.772 108 111.894v4.106c0 2.209 1.789 4 4 4h20c2.211 0 4-1.791 4-4v-6.668c51.138-11.173 88-56.661 88-109.332zm-158.934 92.731c4.966-7.23 13.409-13.242 23.735-16.856 6 2.211 11.105 3.718 19.199 4.085v23.933c-15.393-.588-29.94-4.545-42.934-11.162zm10.934-122.381c0-1.295 1.055-2.35 2.35-2.35h5.54c.275.318.498.67.798.971 3.777 3.777 8.799 5.857 14.141 5.857 5.344 0 10.363-2.08 14.141-5.857.311-.311.589-.646.881-.971h31.799c1.297 0 2.352 1.055 2.352 2.35l.002 5.65h-72.004zm79.45 25.697c.184-.012.364-.047.55-.047 4.41 0 8 3.588 8 8s-3.59 8-8 8c-.372 0-.731-.06-1.093-.109zm-5.651-35.164c-1.273-.56-2.673-.883-4.151-.883h-27.038c.896-2.539 1.39-5.229 1.39-8 0-6.41-2.496-12.438-7.031-16.971-1.562-1.562-4.094-1.562-5.656 0-1.563 1.562-1.563 4.096 0 5.656 3.023 3.023 4.688 7.041 4.688 11.314s-1.664 8.291-4.688 11.314c-4.531 4.531-12.434 4.531-16.969 0-1.662-1.662-2.578-3.873-2.578-6.223 0-2.352.916-4.561 2.58-6.223 2.355-2.359 6.463-2.359 8.822 0 .969.971 1.404 2.357 1.16 3.713-.389 2.174 1.057 4.252 3.232 4.643 2.158.395 4.252-1.057 4.643-3.232.703-3.93-.559-7.959-3.379-10.779-5.375-5.379-14.762-5.379-20.137 0-3.174 3.172-4.922 7.391-4.922 11.879 0 .988.118 1.955.284 2.908h-1.7c-1.477 0-2.876.322-4.149.882-6.407-6.145-10.2-13.133-10.2-19.063 0-14.727 26.104-17.818 48-17.818 21.898 0 48 3.092 48 17.818 0 5.933-3.792 12.919-10.201 19.065zm-80.704 51.017c-.362.05-.724.1-1.095.1-4.412 0-8-3.588-8-8s3.588-8 8-8c.189 0 .364.08.551.093zm7.042-27.9h71.725l-1.089 31.799c-1.391 18.057-16.664 32.201-34.773 32.201s-33.385-14.145-34.764-32.031zm35.863 72c7.725 0 15.007-2.131 21.326-5.8 1.737 3.095 2.674 6.447 2.674 9.852 0 2.582-.508 5.115-1.512 7.551-7.605 2.875-12.293 4.449-22.488 4.449-10.104 0-14.797-1.547-22.488-4.451-1.004-2.436-1.512-4.969-1.512-7.549 0-3.408.932-6.759 2.666-9.851 6.321 3.666 13.605 5.799 21.334 5.799zm4 56v-32.04c4.76-.216 8.491-.842 12-1.77v33.81zm20-35.824c9.989 3.652 18.134 9.531 22.969 16.594-7.184 3.643-14.884 6.433-22.969 8.344zm29.981 12.726c-5.205-7.969-13.446-14.533-23.844-18.943 1.222-3.193 1.863-6.51 1.863-9.906 0-5.067-1.482-9.999-4.167-14.481 7.507-6.461 12.811-15.459 14.475-25.741.564.06 1.118.17 1.692.17 8.824 0 16-7.178 16-16s-7.176-16-16-16c-.093 0-.182.022-.275.023l.275-8.023v-9.65c0-1.296-.267-2.524-.704-3.669 8.08-7.727 12.704-16.653 12.704-24.864 0-17.131-18.84-25.818-56-25.818-37.158 0-56 8.688-56 25.818 0 8.206 4.624 17.133 12.704 24.862-.437 1.145-.704 2.374-.704 3.67l.002 9.787.271 7.886c-.092-.001-.181-.023-.273-.023-8.822 0-16 7.178-16 16s7.178 16 16 16c.569 0 1.123-.096 1.683-.155 1.637 10.258 6.944 19.266 14.475 25.735-2.681 4.477-4.158 9.404-4.158 14.473 0 3.393.641 6.711 1.864 9.905-10.365 4.398-18.592 10.947-23.801 18.885-29.979-18.297-50.063-51.322-50.063-88.843 0-57.346 46.654-104 104-104 57.348 0 104 46.654 104 104 0 37.143-19.734 70.466-50.019 88.902z"/><path d="m70 45.357c2.501 0 4.53-2.028 4.53-4.529 0-2.502-2.028-4.53-4.53-4.53s-4.53 2.028-4.53 4.53 2.029 4.529 4.53 4.529z"/><path d="m239.516 51.312c.781.781 1.805 1.172 2.828 1.172s2.047-.391 2.828-1.172l2.828-2.828 2.828 2.828c.781.781 1.805 1.172 2.828 1.172s2.047-.391 2.828-1.172c1.562-1.562 1.562-4.094 0-5.656l-2.828-2.828 2.828-2.828c1.562-1.562 1.562-4.094 0-5.656s-4.094-1.562-5.656 0l-2.828 2.828-2.828-2.828c-1.562-1.562-4.094-1.562-5.656 0s-1.562 4.094 0 5.656l2.828 2.828-2.828 2.828c-1.563 1.563-1.563 4.094 0 5.656z"/><path d="m250 214.828c-7.719 0-14 6.281-14 14s6.281 14 14 14 14-6.281 14-14-6.281-14-14-14zm0 20c-3.309 0-6-2.691-6-6s2.691-6 6-6 6 2.691 6 6-2.691 6-6 6z"/><circle cx="168" cy="142.828" r="4"/><circle cx="128" cy="142.828" r="4"/><path d="m132.324 160.406c.166.385 4.174 9.404 15.676 9.404 11.504 0 15.512-9.02 15.676-9.404.863-2.006-.059-4.307-2.055-5.199-1.992-.891-4.344.008-5.273 1.988-.219.473-2.324 4.615-8.348 4.615-5.988 0-8.104-4.096-8.344-4.605-.887-1.998-3.223-2.914-5.234-2.053-2.031.873-2.969 3.225-2.098 5.254z"/></g></svg>