<svg id="avatar9" enable-background="new 0 0 300 300" height="512" viewBox="0 0 300 300" width="512" xmlns="http://www.w3.org/2000/svg"><g><path d="m70.598 46.202c2.501 0 4.53-2.028 4.53-4.529 0-2.502-2.028-4.53-4.53-4.53s-4.53 2.028-4.53 4.53c0 2.501 2.028 4.529 4.53 4.529z"/><path d="m260 146.829c0-61.758-50.242-112-112-112s-112 50.242-112 112c0 60.189 48.19 109.767 108 111.893v4.107c0 2.209 1.789 4 4 4h20c2.211 0 4-1.791 4-4v-6.666c51.131-11.173 88-56.681 88-109.334zm-158.942 92.704c4.972-7.231 13.395-13.206 23.751-16.829 5.996 2.211 11.103 3.718 19.191 4.085v23.93c-15.392-.589-29.944-4.554-42.942-11.186zm36.942-174.704c0-5.514 4.484-10 10-10s10 4.486 10 10c0 1.006-.192 1.986-.484 2.937-3.068-.597-6.246-.937-9.516-.937-3.271 0-6.448.339-9.517.937-.294-.951-.483-1.932-.483-2.937zm-1.891 11.755c-3.938 5.385-4.112 9.595-4.109 10.263.012 2.164 1.738 3.865 3.902 3.92 2.078-.098 3.977-1.684 4.098-3.842.012-.225.371-5.127 7.965-11.047 7.449 5.824 8.012 10.793 8.035 11.068.062 2.158 1.832 3.883 4 3.883h.02c2.207-.01 3.992-1.809 3.98-4.018-.003-.666-.214-4.87-4.176-10.248 12.843 3.821 22.392 13.65 23.941 25.532-11.043-2.131-23.204-3.266-35.765-3.266-12.565 0-24.724 1.135-35.765 3.266 1.546-11.861 11.066-21.676 23.874-25.511zm-23.433 78.848-1.309-16.985c22.304-4.674 50.947-4.678 73.265.001l-1.296 16.859-34.321-3.614c-.273-.027-.562-.027-.836 0zm79.641-12.571c4.26.171 7.683 3.665 7.683 7.968 0 4.412-3.59 8-8 8-.307 0-.603-.058-.904-.092zm-86.172-31.253c12.383-3.129 26.812-4.779 41.855-4.779 15.039 0 29.473 1.65 41.859 4.779 1.422 2.354 2.141 4.777 2.141 7.221 0 4.781-2.746 8.684-5.58 11.449-.007.006-.012.013-.018.019-.082.08-.163.169-.245.247-11.637-2.434-24.777-3.715-38.156-3.715s-26.52 1.281-38.152 3.715c-2.926-2.779-5.848-6.787-5.848-11.715-.001-2.441.718-4.865 2.144-7.221zm-1.238 47.132c-.302.034-.6.09-.907.09-4.41 0-8-3.588-8-8 0-4.304 3.423-7.798 7.684-7.968zm43.691.954 34.093 3.591c-1.709 17.738-16.804 31.544-34.691 31.544-17.844 0-32.907-13.743-34.671-31.42zm-.598 43.135c7.733 0 15.021-2.135 21.344-5.803 1.734 3.092 2.656 6.444 2.656 9.856 0 2.582-.508 5.113-1.512 7.549-7.605 2.875-12.293 4.451-22.488 4.451-10.105 0-14.801-1.549-22.484-4.453-1.008-2.438-1.516-4.969-1.516-7.547 0-3.41.923-6.76 2.66-9.854 6.321 3.667 13.609 5.801 21.34 5.801zm4 56v-32.04c4.761-.216 8.492-.841 12-1.77v33.81zm20-35.825c10.012 3.66 18.155 9.517 22.99 16.584-7.19 3.649-14.897 6.442-22.99 8.354zm30 12.715c-5.186-7.881-13.556-14.517-23.867-18.923 1.225-3.196 1.867-6.516 1.867-9.914 0-5.073-1.472-10-4.153-14.476 7.533-6.473 12.84-15.485 14.473-25.748.56.059 1.11.171 1.68.171 8.824 0 16-7.178 16-16 0-8.47-6.635-15.354-14.971-15.896 4.552-4.847 6.971-10.342 6.971-16.104 0-4.545-1.477-8.926-4.387-13.023-.543-.762-1.332-1.311-2.234-1.549-.471-.125-.993-.209-1.469-.33-.704-15.268-11.477-28.29-26.671-34 .487-1.65.762-3.364.762-5.098 0-9.926-8.074-18-18-18s-18 8.074-18 18c0 1.736.272 3.448.76 5.099-15.193 5.709-25.966 18.732-26.669 34-.475.121-.996.205-1.466.33-.902.238-1.691.787-2.234 1.549-2.915 4.1-4.392 8.481-4.392 13.022 0 5.761 2.42 11.255 6.974 16.104-8.339.54-14.974 7.425-14.974 15.896 0 8.822 7.176 16 16 16 .571 0 1.123-.107 1.684-.166 1.632 10.261 6.938 19.272 14.47 25.744-2.682 4.478-4.155 9.403-4.155 14.475 0 3.394.643 6.714 1.87 9.913-10.271 4.388-18.621 10.992-23.813 18.836-29.963-18.321-50.056-51.353-50.056-88.802 0-57.346 46.652-104 104-104s104 46.654 104 104c0 37.123-19.727 70.448-50 88.89z"/><path d="m239.516 51.313c.781.781 1.805 1.172 2.828 1.172s2.047-.391 2.828-1.172l2.83-2.83 2.83 2.83c.781.781 1.805 1.172 2.828 1.172s2.047-.391 2.828-1.172c1.562-1.562 1.562-4.096 0-5.656l-2.83-2.829 2.83-2.829c1.562-1.561 1.562-4.094 0-5.656s-4.094-1.562-5.656 0l-2.83 2.83-2.83-2.83c-1.562-1.562-4.094-1.562-5.656 0s-1.562 4.096 0 5.656l2.83 2.829-2.83 2.829c-1.563 1.561-1.563 4.094 0 5.656z"/><path d="m250 214.829c-7.719 0-14 6.281-14 14s6.281 14 14 14 14-6.281 14-14-6.281-14-14-14zm0 20c-3.309 0-6-2.691-6-6s2.691-6 6-6 6 2.691 6 6-2.691 6-6 6z"/><circle cx="168.002" cy="142.828" r="4"/><circle cx="128.002" cy="142.828" r="4"/></g></svg>