<?xml version="1.0" encoding="UTF-8"?><svg id="Layer_2" xmlns="http://www.w3.org/2000/svg" viewBox="0 0 200.01 202.42"><defs><style>.cls-1{opacity:.2;}</style></defs><g id="_ÎÓÈ_1"><g><g><path d="M80.61,66.42h-15.19c-.08,0-.15-.03-.21-.09L15.9,17.02c-.11-.11-.11-.3,0-.41s.3-.11,.41,0l49.23,49.23h14.94l3.1-3.1c.05-.05,.13-.09,.21-.09h4.03c.16,0,.29,.13,.29,.29s-.13,.29-.29,.29h-3.91l-3.1,3.1c-.05,.05-.13,.09-.21,.09Z"/><path d="M76.2,83.06H43.53s-.08-.02-.1-.04l-2.66-2.66h-2.45c-.08,0-.15-.07-.15-.15s.07-.15,.15-.15h2.51s.08,.02,.1,.04l2.66,2.66h32.47v-10.22L34.2,30.7c-.06-.06-.06-.15,0-.21s.15-.06,.21,0l41.9,41.9s.04,.06,.04,.1v10.42c0,.08-.07,.15-.15,.15Z"/><path d="M36.23,80.6h-5.04c-.16,0-.29-.13-.29-.29s.13-.29,.29-.29h5.04c.16,0,.29,.13,.29,.29s-.13,.29-.29,.29Z"/><path d="M95.05,24.97h-4.41c-.08,0-.15-.03-.21-.09l-6.73-6.73h-2.28c-.16,0-.29-.13-.29-.29s.13-.29,.29-.29h2.41c.08,0,.15,.03,.21,.09l6.73,6.73h4.29c.16,0,.29,.13,.29,.29s-.13,.29-.29,.29Z"/><path d="M24.92,95.04h-3.57c-.16,0-.29-.13-.29-.29s.13-.29,.29-.29h3.28v-5.07l-7.06-7.06c-.11-.11-.11-.3,0-.41s.3-.11,.41,0l7.14,7.14c.05,.05,.09,.13,.09,.21v5.49c0,.16-.13,.29-.29,.29Z"/><path d="M18.68,94.89h-1.8c-.08,0-.15-.07-.15-.15s.07-.15,.15-.15h1.8c.08,0,.15,.07,.15,.15s-.07,.15-.15,.15Z"/><path d="M78.51,18.01h-1.7c-.08,0-.15-.07-.15-.15s.07-.15,.15-.15h1.7c.08,0,.15,.07,.15,.15s-.07,.15-.15,.15Z"/><path d="M86.83,97.59c-.16,0-.29-.13-.29-.29v-2.81c0-.08,.03-.15,.09-.21l5.56-5.56c.05-.05,.13-.09,.21-.09h3.16c.16,0,.29,.13,.29,.29s-.13,.29-.29,.29h-3.04l-5.39,5.39v2.69c0,.16-.13,.29-.29,.29Z"/><path d="M84.97,94.62h-2.31c-.08,0-.15-.07-.15-.15s.07-.15,.15-.15h2.31c.08,0,.15,.07,.15,.15s-.07,.15-.15,.15Z"/><path d="M92.32,87.42c-.08,0-.15-.07-.15-.15v-2.38c0-.08,.07-.15,.15-.15s.15,.07,.15,.15v2.38c0,.08-.07,.15-.15,.15Z"/><path d="M81.01,87.88s-.07-.01-.1-.04l-4.81-4.81c-.06-.06-.06-.15,0-.21s.15-.06,.21,0l4.81,4.81c.06,.06,.06,.15,0,.21-.03,.03-.07,.04-.1,.04Z"/><polygon points="81.82 6.74 51.97 6.74 48.25 10.46 18.07 10.46 16.57 11.96 16.57 14.06 28.99 26.48 34.3 26.48 62.57 54.75 64.07 54.75 64.07 53.95 49.94 39.82 49.94 38.21 27.14 15.41 28.49 14.06 51.14 14.06 52.9 12.3 88.93 12.3 88.93 11.15 84.72 6.74 81.82 6.74"/><path d="M59.16,40.56h-3.76c-.08,0-.15-.03-.21-.09l-22.4-22.4c-.11-.11-.11-.3,0-.41s.3-.11,.41,0l22.32,22.32h3.52l1.74-1.74c.11-.11,.3-.11,.41,0s.11,.3,0,.41l-1.83,1.83c-.05,.05-.13,.09-.21,.09Z"/><path d="M62.02,37.04s-.07-.01-.1-.04c-.06-.06-.06-.15,0-.21l2.63-2.63v-1.29c0-.08,.07-.15,.15-.15s.15,.07,.15,.15v1.35s-.02,.08-.04,.1l-2.67,2.67s-.07,.04-.1,.04Z"/><polygon points="7.19 83.82 7.19 53.97 10.91 50.25 10.91 20.07 12.41 18.57 14.51 18.57 26.93 30.99 26.93 36.3 55.2 64.57 55.2 66.07 54.4 66.07 40.27 51.94 38.66 51.94 15.86 29.14 14.51 30.49 14.51 53.14 12.75 54.9 12.75 90.93 11.6 90.93 7.19 86.72 7.19 83.82"/><path d="M38.89,63.28c-.07,0-.15-.03-.21-.09-.11-.11-.11-.3,0-.41l1.74-1.74v-3.52l-22.32-22.32c-.11-.11-.11-.3,0-.41s.3-.11,.41,0l22.4,22.4c.05,.05,.09,.13,.09,.21v3.76c0,.08-.03,.15-.09,.21l-1.83,1.83c-.06,.06-.13,.09-.21,.09Z"/><path d="M34.68,66.83h-1.35c-.08,0-.15-.07-.15-.15s.07-.15,.15-.15h1.29l2.63-2.63c.06-.06,.15-.06,.21,0s.06,.15,0,.21l-2.67,2.67s-.06,.04-.1,.04Z"/><path d="M12.25,13.25h-3.61c-.16,0-.29-.13-.29-.29v-3.61c0-.16,.13-.29,.29-.29h3.61c.16,0,.29,.13,.29,.29v3.61c0,.16-.13,.29-.29,.29Zm-3.32-.58h3.02v-3.02h-3.02v3.02Z"/><rect x="5.67" y="6.38" width="1.54" height="1.54"/><path d="M92.32,59.75h-5.3s-.04,0-.05-.02L33.68,6.45h-3.39s-.07-.03-.07-.07,.03-.07,.07-.07h3.42s.04,0,.05,.02l53.28,53.28h5.24l3.18-3.18v-7.42s.03-.07,.07-.07,.07,.03,.07,.07v7.45s0,.04-.02,.05l-3.23,3.23s-.03,.02-.05,.02Z"/><path d="M68.63,92.86h-11.43s-.04,0-.05-.02L22.6,58.28H.07s-.07-.03-.07-.07,.03-.07,.07-.07H22.63s.04,0,.05,.02l34.56,34.56h11.37l2.66-2.66v-2.33s.03-.07,.07-.07,.07,.03,.07,.07v2.36s0,.04-.02,.05l-2.71,2.71s-.03,.02-.05,.02Z"/><path d="M89.87,47.95s-.04,0-.05-.02c-.03-.03-.03-.08,0-.1l2.42-2.42V18.57s.03-.07,.07-.07,.07,.03,.07,.07v26.86s0,.04-.02,.05l-2.44,2.44s-.03,.02-.05,.02Z"/><path d="M4.33,60.64H2.13s-.07-.03-.07-.07v-.4s.03-.07,.07-.07h2.21s.07,.03,.07,.07v.4s-.03,.07-.07,.07Zm-2.13-.15h2.06v-.25H2.2v.25Z"/><path d="M4.33,64.29H2.13s-.07-.03-.07-.07v-.4s.03-.07,.07-.07h2.21s.07,.03,.07,.07v.4s-.03,.07-.07,.07Zm-2.13-.15h2.06v-.25H2.2v.25Z"/><path d="M4.33,67.95H2.13s-.07-.03-.07-.07v-.4s.03-.07,.07-.07h2.21s.07,.03,.07,.07v.4s-.03,.07-.07,.07Zm-2.13-.15h2.06v-.25H2.2v.25Z"/><path d="M4.33,71.6H2.13s-.07-.03-.07-.07v-.4s.03-.07,.07-.07h2.21s.07,.03,.07,.07v.4s-.03,.07-.07,.07Zm-2.13-.15h2.06v-.25H2.2v.25Z"/><path d="M4.33,75.25H2.13s-.07-.03-.07-.07v-.4s.03-.07,.07-.07h2.21s.07,.03,.07,.07v.4s-.03,.07-.07,.07Zm-2.13-.15h2.06v-.25H2.2v.25Z"/><path d="M4.33,78.91H2.13s-.07-.03-.07-.07v-.4s.03-.07,.07-.07h2.21s.07,.03,.07,.07v.4s-.03,.07-.07,.07Zm-2.13-.15h2.06v-.26H2.2v.26Z"/><rect x="53.67" y="4.08" width=".75" height=".75"/><rect x="67.11" y="4.08" width=".75" height=".75"/><rect x="80.54" y="4.08" width=".75" height=".75"/><path d="M95.2,20.86c-.07,0-.15-.03-.21-.09-.11-.11-.11-.3,0-.41l.87-.86v-5.78l-7.83-7.83c-.05-.05-.09-.13-.09-.21V3.58c0-.16,.13-.29,.29-.29s.29,.13,.29,.29v1.98l7.83,7.83c.05,.05,.09,.13,.09,.21v6.02c0,.08-.03,.15-.09,.21l-.95,.95c-.06,.06-.13,.09-.21,.09Z"/><path d="M96.82,18.81h-.68s-.07-.03-.07-.07,.03-.07,.07-.07h.65l.33-.33v-4.97l-5.51-5.51h-1.29s-.07-.03-.07-.07,.03-.07,.07-.07h1.32s.04,0,.05,.02l5.56,5.56s.02,.03,.02,.05v5.03s0,.04-.02,.05l-.37,.37s-.03,.02-.05,.02Z"/><path d="M95.75,7.7h-.7s-.07-.03-.07-.07,.03-.07,.07-.07h.67l.85-.85V2.92s.03-.07,.07-.07,.07,.03,.07,.07v3.82s0,.04-.02,.05l-.89,.89s-.03,.02-.05,.02Z"/><path d="M88.23,2.1s-.07-.03-.07-.07V.07s.03-.07,.07-.07,.07,.03,.07,.07v1.95s-.03,.07-.07,.07Z"/><path d="M134.59,66.42h-15.19c-.08,0-.15-.03-.21-.09l-3.1-3.1h-3.91c-.16,0-.29-.13-.29-.29s.13-.29,.29-.29h4.03c.08,0,.15,.03,.21,.09l3.1,3.1h14.94l49.23-49.23c.11-.11,.3-.11,.41,0s.11,.3,0,.41l-49.32,49.32c-.05,.05-.13,.09-.21,.09Z"/><path d="M156.49,83.06h-32.68c-.08,0-.15-.07-.15-.15v-10.42s.02-.08,.04-.1l41.9-41.9c.06-.06,.15-.06,.21,0s.06,.15,0,.21l-41.86,41.86v10.22h32.47l2.66-2.66s.06-.04,.1-.04h2.51c.08,0,.15,.07,.15,.15s-.07,.15-.15,.15h-2.45l-2.66,2.66s-.06,.04-.1,.04Z"/><path d="M168.82,80.6h-5.04c-.16,0-.29-.13-.29-.29s.13-.29,.29-.29h5.04c.16,0,.29,.13,.29,.29s-.13,.29-.29,.29Z"/><path d="M109.38,24.97h-4.41c-.16,0-.29-.13-.29-.29s.13-.29,.29-.29h4.29l6.73-6.73c.05-.05,.13-.09,.21-.09h2.41c.16,0,.29,.13,.29,.29s-.13,.29-.29,.29h-2.28l-6.73,6.73c-.05,.05-.13,.09-.21,.09Z"/><path d="M178.67,95.04h-3.57c-.16,0-.29-.13-.29-.29v-5.49c0-.08,.03-.15,.09-.21l7.14-7.14c.11-.11,.3-.11,.41,0s.11,.3,0,.41l-7.06,7.06v5.07h3.28c.16,0,.29,.13,.29,.29s-.13,.29-.29,.29Z"/><path d="M183.14,94.89h-1.8c-.08,0-.15-.07-.15-.15s.07-.15,.15-.15h1.8c.08,0,.15,.07,.15,.15s-.07,.15-.15,.15Z"/><path d="M123.21,18.01h-1.7c-.08,0-.15-.07-.15-.15s.07-.15,.15-.15h1.7c.08,0,.15,.07,.15,.15s-.07,.15-.15,.15Z"/><path d="M113.19,97.59c-.16,0-.29-.13-.29-.29v-2.69l-5.39-5.39h-3.04c-.16,0-.29-.13-.29-.29s.13-.29,.29-.29h3.16c.08,0,.15,.03,.21,.09l5.56,5.56c.05,.05,.09,.13,.09,.21v2.81c0,.16-.13,.29-.29,.29Z"/><path d="M117.35,94.62h-2.31c-.08,0-.15-.07-.15-.15s.07-.15,.15-.15h2.31c.08,0,.15,.07,.15,.15s-.07,.15-.15,.15Z"/><path d="M107.7,87.42c-.08,0-.15-.07-.15-.15v-2.38c0-.08,.07-.15,.15-.15s.15,.07,.15,.15v2.38c0,.08-.07,.15-.15,.15Z"/><path d="M119,87.88s-.07-.01-.1-.04c-.06-.06-.06-.15,0-.21l4.81-4.81c.06-.06,.15-.06,.21,0s.06,.15,0,.21l-4.81,4.81s-.07,.04-.1,.04Z"/><polygon points="118.2 6.74 148.04 6.74 151.76 10.46 181.95 10.46 183.45 11.96 183.45 14.06 171.02 26.48 165.71 26.48 137.44 54.75 135.94 54.75 135.94 53.95 150.07 39.82 150.07 38.21 172.88 15.41 171.52 14.06 148.87 14.06 147.12 12.3 111.08 12.3 111.08 11.15 115.29 6.74 118.2 6.74"/><path d="M144.61,40.56h-3.76c-.08,0-.15-.03-.21-.09l-1.83-1.83c-.11-.11-.11-.3,0-.41s.3-.11,.41,0l1.74,1.74h3.52l22.32-22.32c.11-.11,.3-.11,.41,0s.11,.3,0,.41l-22.4,22.4c-.05,.05-.13,.09-.21,.09Z"/><path d="M137.99,37.04s-.07-.01-.1-.04l-2.67-2.67s-.04-.06-.04-.1v-1.35c0-.08,.07-.15,.15-.15s.15,.07,.15,.15v1.29l2.63,2.63c.06,.06,.06,.15,0,.21-.03,.03-.07,.04-.1,.04Z"/><polygon points="192.82 83.82 192.82 53.97 189.1 50.25 189.1 20.07 187.6 18.57 185.51 18.57 173.08 30.99 173.08 36.3 144.81 64.57 144.81 66.07 145.61 66.07 159.74 51.94 161.35 51.94 184.15 29.14 185.51 30.49 185.51 53.14 187.26 54.9 187.26 90.93 188.41 90.93 192.82 86.72 192.82 83.82"/><path d="M161.12,63.28c-.07,0-.15-.03-.21-.09l-1.83-1.83c-.05-.05-.09-.13-.09-.21v-3.76c0-.08,.03-.15,.09-.21l22.4-22.4c.11-.11,.3-.11,.41,0s.11,.3,0,.41l-22.32,22.32v3.52l1.74,1.74c.11,.11,.11,.3,0,.41-.06,.06-.13,.09-.21,.09Z"/><path d="M166.69,66.83h-1.35s-.08-.02-.1-.04l-2.67-2.67c-.06-.06-.06-.15,0-.21s.15-.06,.21,0l2.63,2.63h1.29c.08,0,.15,.07,.15,.15s-.07,.15-.15,.15Z"/><path d="M191.37,13.25h-3.61c-.16,0-.29-.13-.29-.29v-3.61c0-.16,.13-.29,.29-.29h3.61c.16,0,.29,.13,.29,.29v3.61c0,.16-.13,.29-.29,.29Zm-3.32-.58h3.02v-3.02h-3.02v3.02Z"/><rect x="192.8" y="6.38" width="1.54" height="1.54" transform="translate(387.14 14.29) rotate(180)"/><path d="M113,59.75h-5.3s-.04,0-.05-.02l-3.23-3.23s-.02-.03-.02-.05v-7.45s.03-.07,.07-.07,.07,.03,.07,.07v7.42l3.18,3.18h5.24L166.25,6.32s.03-.02,.05-.02h3.42s.07,.03,.07,.07-.03,.07-.07,.07h-3.39l-53.28,53.28s-.03,.02-.05,.02Z"/><path d="M142.81,92.86h-11.43s-.04,0-.05-.02l-2.71-2.71s-.02-.03-.02-.05v-2.36s.03-.07,.07-.07,.07,.03,.07,.07v2.33l2.66,2.66h11.37l34.56-34.56s.03-.02,.05-.02h22.55s.07,.03,.07,.07-.03,.07-.07,.07h-22.52l-34.56,34.56s-.03,.02-.05,.02Z"/><path d="M110.14,47.95s-.04,0-.05-.02l-2.44-2.44s-.02-.03-.02-.05V18.57s.03-.07,.07-.07,.07,.03,.07,.07v26.83l2.42,2.42s.03,.08,0,.1c-.01,.01-.03,.02-.05,.02Z"/><path d="M197.89,60.64h-2.21s-.07-.03-.07-.07v-.4s.03-.07,.07-.07h2.21s.07,.03,.07,.07v.4s-.03,.07-.07,.07Zm-2.13-.15h2.06v-.25h-2.06v.25Z"/><path d="M197.89,64.29h-2.21s-.07-.03-.07-.07v-.4s.03-.07,.07-.07h2.21s.07,.03,.07,.07v.4s-.03,.07-.07,.07Zm-2.13-.15h2.06v-.25h-2.06v.25Z"/><path d="M197.89,67.95h-2.21s-.07-.03-.07-.07v-.4s.03-.07,.07-.07h2.21s.07,.03,.07,.07v.4s-.03,.07-.07,.07Zm-2.13-.15h2.06v-.25h-2.06v.25Z"/><path d="M197.89,71.6h-2.21s-.07-.03-.07-.07v-.4s.03-.07,.07-.07h2.21s.07,.03,.07,.07v.4s-.03,.07-.07,.07Zm-2.13-.15h2.06v-.25h-2.06v.25Z"/><path d="M197.89,75.25h-2.21s-.07-.03-.07-.07v-.4s.03-.07,.07-.07h2.21s.07,.03,.07,.07v.4s-.03,.07-.07,.07Zm-2.13-.15h2.06v-.25h-2.06v.25Z"/><path d="M197.89,78.91h-2.21s-.07-.03-.07-.07v-.4s.03-.07,.07-.07h2.21s.07,.03,.07,.07v.4s-.03,.07-.07,.07Zm-2.13-.15h2.06v-.26h-2.06v.26Z"/><rect x="145.59" y="4.08" width=".75" height=".75" transform="translate(291.93 8.92) rotate(180)"/><rect x="132.16" y="4.08" width=".75" height=".75" transform="translate(265.06 8.92) rotate(180)"/><rect x="118.72" y="4.08" width=".75" height=".75" transform="translate(238.2 8.92) rotate(180)"/><path d="M104.82,20.86c-.07,0-.15-.03-.21-.09l-.95-.95c-.05-.05-.09-.13-.09-.21v-6.02c0-.08,.03-.15,.09-.21l7.83-7.83v-1.98c0-.16,.13-.29,.29-.29s.29,.13,.29,.29v2.1c0,.08-.03,.15-.09,.21l-7.83,7.83v5.78l.86,.86c.11,.11,.11,.3,0,.41-.06,.06-.13,.09-.21,.09Z"/><path d="M103.87,18.81h-.68s-.04,0-.05-.02l-.37-.37s-.02-.03-.02-.05v-5.03s0-.04,.02-.05l5.56-5.56s.03-.02,.05-.02h1.32s.07,.03,.07,.07-.03,.07-.07,.07h-1.29l-5.51,5.51v4.97l.33,.33h.65s.07,.03,.07,.07-.03,.07-.07,.07Z"/><path d="M104.97,7.7h-.7s-.04,0-.05-.02l-.89-.89s-.02-.03-.02-.05V2.92s.03-.07,.07-.07,.07,.03,.07,.07v3.79l.85,.85h.67s.07,.03,.07,.07-.03,.07-.07,.07Z"/><path d="M111.78,2.1s-.07-.03-.07-.07V.07s.03-.07,.07-.07,.07,.03,.07,.07v1.95s-.03,.07-.07,.07Z"/><path d="M183.9,185.9c-.07,0-.15-.03-.21-.09l-49.23-49.23h-14.94l-3.1,3.1c-.05,.05-.13,.09-.21,.09h-4.03c-.16,0-.29-.13-.29-.29s.13-.29,.29-.29h3.91l3.1-3.1c.05-.05,.13-.09,.21-.09h15.19c.08,0,.15,.03,.21,.09l49.32,49.32c.11,.11,.11,.3,0,.41-.06,.06-.13,.09-.21,.09Z"/><path d="M165.71,171.97s-.07-.01-.1-.04l-41.9-41.9s-.04-.06-.04-.1v-10.42c0-.08,.07-.15,.15-.15h32.68s.08,.02,.1,.04l2.66,2.66h2.45c.08,0,.15,.07,.15,.15s-.07,.15-.15,.15h-2.51s-.08-.02-.1-.04l-2.66-2.66h-32.47v10.22l41.86,41.86c.06,.06,.06,.15,0,.21-.03,.03-.07,.04-.1,.04Z"/><path d="M168.82,122.4h-5.04c-.16,0-.29-.13-.29-.29s.13-.29,.29-.29h5.04c.16,0,.29,.13,.29,.29s-.13,.29-.29,.29Z"/><path d="M118.6,184.85h-2.41c-.08,0-.15-.03-.21-.09l-6.73-6.73h-4.29c-.16,0-.29-.13-.29-.29s.13-.29,.29-.29h4.41c.08,0,.15,.03,.21,.09l6.73,6.73h2.28c.16,0,.29,.13,.29,.29s-.13,.29-.29,.29Z"/><path d="M182.24,120.6c-.07,0-.15-.03-.21-.09l-7.14-7.14c-.05-.05-.09-.13-.09-.21v-5.49c0-.16,.13-.29,.29-.29h3.57c.16,0,.29,.13,.29,.29s-.13,.29-.29,.29h-3.28v5.07l7.06,7.06c.11,.11,.11,.3,0,.41-.06,.06-.13,.09-.21,.09Z"/><path d="M183.14,107.82h-1.8c-.08,0-.15-.07-.15-.15s.07-.15,.15-.15h1.8c.08,0,.15,.07,.15,.15s-.07,.15-.15,.15Z"/><path d="M123.21,184.7h-1.7c-.08,0-.15-.07-.15-.15s.07-.15,.15-.15h1.7c.08,0,.15,.07,.15,.15s-.07,.15-.15,.15Z"/><path d="M107.62,113.78h-3.16c-.16,0-.29-.13-.29-.29s.13-.29,.29-.29h3.04l5.39-5.39v-2.69c0-.16,.13-.29,.29-.29s.29,.13,.29,.29v2.81c0,.08-.03,.15-.09,.21l-5.56,5.56c-.05,.05-.13,.09-.21,.09Z"/><path d="M117.35,108.1h-2.31c-.08,0-.15-.07-.15-.15s.07-.15,.15-.15h2.31c.08,0,.15,.07,.15,.15s-.07,.15-.15,.15Z"/><path d="M107.7,117.67c-.08,0-.15-.07-.15-.15v-2.38c0-.08,.07-.15,.15-.15s.15,.07,.15,.15v2.38c0,.08-.07,.15-.15,.15Z"/><path d="M123.81,119.65s-.07-.01-.1-.04l-4.81-4.81c-.06-.06-.06-.15,0-.21s.15-.06,.21,0l4.81,4.81c.06,.06,.06,.15,0,.21-.03,.03-.07,.04-.1,.04Z"/><polygon points="118.2 195.68 148.04 195.68 151.76 191.96 181.95 191.96 183.45 190.46 183.45 188.37 171.02 175.94 165.71 175.94 137.44 147.67 135.94 147.67 135.94 148.47 150.07 162.61 150.07 164.21 172.88 187.01 171.52 188.37 148.87 188.37 147.12 190.12 111.08 190.12 111.08 191.27 115.29 195.68 118.2 195.68"/><path d="M167.01,184.85c-.07,0-.15-.03-.21-.09l-22.32-22.32h-3.52l-1.74,1.74c-.11,.11-.3,.11-.41,0s-.11-.3,0-.41l1.83-1.83c.05-.05,.13-.09,.21-.09h3.76c.08,0,.15,.03,.21,.09l22.4,22.4c.11,.11,.11,.3,0,.41-.06,.06-.13,.09-.21,.09Z"/><path d="M135.33,169.69c-.08,0-.15-.07-.15-.15v-1.35s.02-.08,.04-.1l2.67-2.67c.06-.06,.15-.06,.21,0s.06,.15,0,.21l-2.63,2.63v1.29c0,.08-.07,.15-.15,.15Z"/><polygon points="192.82 118.61 192.82 148.45 189.1 152.17 189.1 182.36 187.6 183.85 185.51 183.85 173.08 171.43 173.08 166.12 144.81 137.85 144.81 136.35 145.61 136.35 159.74 150.48 161.35 150.48 184.15 173.29 185.51 171.93 185.51 149.28 187.26 147.52 187.26 111.49 188.41 111.49 192.82 115.7 192.82 118.61"/><path d="M181.7,167.71c-.07,0-.15-.03-.21-.09l-22.4-22.4c-.05-.05-.09-.13-.09-.21v-3.76c0-.08,.03-.15,.09-.21l1.83-1.83c.11-.11,.3-.11,.41,0s.11,.3,0,.41l-1.74,1.74v3.52l22.32,22.32c.11,.11,.11,.3,0,.41-.06,.06-.13,.09-.21,.09Z"/><path d="M162.66,138.55s-.07-.01-.1-.04c-.06-.06-.06-.15,0-.21l2.67-2.67s.06-.04,.1-.04h1.35c.08,0,.15,.07,.15,.15s-.07,.15-.15,.15h-1.29l-2.63,2.63s-.07,.04-.1,.04Z"/><path d="M191.37,193.37h-3.61c-.16,0-.29-.13-.29-.29v-3.61c0-.16,.13-.29,.29-.29h3.61c.16,0,.29,.13,.29,.29v3.61c0,.16-.13,.29-.29,.29Zm-3.32-.58h3.02v-3.02h-3.02v3.02Z"/><rect x="192.8" y="194.51" width="1.54" height="1.54" transform="translate(387.14 390.55) rotate(180)"/><path d="M169.72,196.12h-3.42s-.04,0-.05-.02l-53.28-53.28h-5.24l-3.18,3.18v7.42s-.03,.07-.07,.07-.07-.03-.07-.07v-7.45s0-.04,.02-.05l3.23-3.23s.03-.02,.05-.02h5.3s.04,0,.05,.02l53.28,53.28h3.39s.07,.03,.07,.07-.03,.07-.07,.07Z"/><path d="M199.94,144.29h-22.55s-.04,0-.05-.02l-34.56-34.56h-11.37l-2.66,2.66v2.33s-.03,.07-.07,.07-.07-.03-.07-.07v-2.36s0-.04,.02-.05l2.71-2.71s.03-.02,.05-.02h11.43s.04,0,.05,.02l34.56,34.56h22.52s.07,.03,.07,.07-.03,.07-.07,.07Z"/><path d="M107.7,183.93s-.07-.03-.07-.07v-26.86s0-.04,.02-.05l2.44-2.44s.07-.03,.1,0c.03,.03,.03,.08,0,.1l-2.42,2.42v26.83s-.03,.07-.07,.07Z"/><path d="M197.89,142.33h-2.21s-.07-.03-.07-.07v-.4s.03-.07,.07-.07h2.21s.07,.03,.07,.07v.4s-.03,.07-.07,.07Zm-2.13-.15h2.06v-.26h-2.06v.26Z"/><path d="M197.89,138.68h-2.21s-.07-.03-.07-.07v-.4s.03-.07,.07-.07h2.21s.07,.03,.07,.07v.4s-.03,.07-.07,.07Zm-2.13-.15h2.06v-.25h-2.06v.25Z"/><path d="M197.89,135.02h-2.21s-.07-.03-.07-.07v-.4s.03-.07,.07-.07h2.21s.07,.03,.07,.07v.4s-.03,.07-.07,.07Zm-2.13-.15h2.06v-.25h-2.06v.25Z"/><path d="M197.89,131.37h-2.21s-.07-.03-.07-.07v-.4s.03-.07,.07-.07h2.21s.07,.03,.07,.07v.4s-.03,.07-.07,.07Zm-2.13-.15h2.06v-.25h-2.06v.25Z"/><path d="M197.89,127.71h-2.21s-.07-.03-.07-.07v-.4s.03-.07,.07-.07h2.21s.07,.03,.07,.07v.4s-.03,.07-.07,.07Zm-2.13-.15h2.06v-.25h-2.06v.25Z"/><path d="M197.89,124.06h-2.21s-.07-.03-.07-.07v-.4s.03-.07,.07-.07h2.21s.07,.03,.07,.07v.4s-.03,.07-.07,.07Zm-2.13-.15h2.06v-.25h-2.06v.25Z"/><rect x="145.59" y="197.59" width=".75" height=".75" transform="translate(291.93 395.93) rotate(180)"/><rect x="132.16" y="197.59" width=".75" height=".75" transform="translate(265.06 395.93) rotate(180)"/><rect x="118.72" y="197.59" width=".75" height=".75" transform="translate(238.2 395.93) rotate(180)"/><path d="M111.78,199.13c-.16,0-.29-.13-.29-.29v-1.98l-7.83-7.83c-.05-.05-.09-.13-.09-.21v-6.02c0-.08,.03-.15,.09-.21l.95-.95c.11-.11,.3-.11,.41,0s.11,.3,0,.41l-.86,.87v5.78l7.83,7.83c.05,.05,.09,.13,.09,.21v2.1c0,.16-.13,.29-.29,.29Z"/><path d="M109.69,194.72h-1.32s-.04,0-.05-.02l-5.56-5.56s-.02-.03-.02-.05v-5.03s0-.04,.02-.05l.37-.37s.03-.02,.05-.02h.68s.07,.03,.07,.07-.03,.07-.07,.07h-.65l-.33,.33v4.97l5.51,5.51h1.29s.07,.03,.07,.07-.03,.07-.07,.07Z"/><path d="M103.38,199.58s-.07-.03-.07-.07v-3.82s0-.04,.02-.05l.89-.89s.03-.02,.05-.02h.7s.07,.03,.07,.07-.03,.07-.07,.07h-.67l-.85,.85v3.79s-.03,.07-.07,.07Z"/><path d="M111.78,202.42s-.07-.03-.07-.07v-1.95s.03-.07,.07-.07,.07,.03,.07,.07v1.95s-.03,.07-.07,.07Z"/><path d="M16.11,185.9c-.07,0-.15-.03-.21-.09-.11-.11-.11-.3,0-.41l49.32-49.32c.05-.05,.13-.09,.21-.09h15.19c.08,0,.15,.03,.21,.09l3.1,3.1h3.91c.16,0,.29,.13,.29,.29s-.13,.29-.29,.29h-4.03c-.08,0-.15-.03-.21-.09l-3.1-3.1h-14.94l-49.23,49.23c-.06,.06-.13,.09-.21,.09Z"/><path d="M34.3,171.97s-.07-.01-.1-.04c-.06-.06-.06-.15,0-.21l41.86-41.86v-10.22H43.59l-2.66,2.66s-.06,.04-.1,.04h-2.51c-.08,0-.15-.07-.15-.15s.07-.15,.15-.15h2.45l2.66-2.66s.06-.04,.1-.04h32.68c.08,0,.15,.07,.15,.15v10.42s-.02,.08-.04,.1l-41.9,41.9s-.07,.04-.1,.04Z"/><path d="M36.23,122.4h-5.04c-.16,0-.29-.13-.29-.29s.13-.29,.29-.29h5.04c.16,0,.29,.13,.29,.29s-.13,.29-.29,.29Z"/><path d="M83.82,184.85h-2.41c-.16,0-.29-.13-.29-.29s.13-.29,.29-.29h2.28l6.73-6.73c.05-.05,.13-.09,.21-.09h4.41c.16,0,.29,.13,.29,.29s-.13,.29-.29,.29h-4.29l-6.73,6.73c-.05,.05-.13,.09-.21,.09Z"/><path d="M17.78,120.6c-.07,0-.15-.03-.21-.09-.11-.11-.11-.3,0-.41l7.06-7.06v-5.07h-3.28c-.16,0-.29-.13-.29-.29s.13-.29,.29-.29h3.57c.16,0,.29,.13,.29,.29v5.49c0,.08-.03,.15-.09,.21l-7.14,7.14c-.06,.06-.13,.09-.21,.09Z"/><path d="M18.68,107.82h-1.8c-.08,0-.15-.07-.15-.15s.07-.15,.15-.15h1.8c.08,0,.15,.07,.15,.15s-.07,.15-.15,.15Z"/><path d="M78.51,184.7h-1.7c-.08,0-.15-.07-.15-.15s.07-.15,.15-.15h1.7c.08,0,.15,.07,.15,.15s-.07,.15-.15,.15Z"/><path d="M95.55,113.78h-3.16c-.08,0-.15-.03-.21-.09l-5.56-5.56c-.05-.05-.09-.13-.09-.21v-2.81c0-.16,.13-.29,.29-.29s.29,.13,.29,.29v2.69l5.39,5.39h3.04c.16,0,.29,.13,.29,.29s-.13,.29-.29,.29Z"/><path d="M84.97,108.1h-2.31c-.08,0-.15-.07-.15-.15s.07-.15,.15-.15h2.31c.08,0,.15,.07,.15,.15s-.07,.15-.15,.15Z"/><path d="M92.32,117.67c-.08,0-.15-.07-.15-.15v-2.38c0-.08,.07-.15,.15-.15s.15,.07,.15,.15v2.38c0,.08-.07,.15-.15,.15Z"/><path d="M76.2,119.65s-.07-.01-.1-.04c-.06-.06-.06-.15,0-.21l4.81-4.81c.06-.06,.15-.06,.21,0s.06,.15,0,.21l-4.81,4.81s-.07,.04-.1,.04Z"/><polygon points="81.82 195.68 51.97 195.68 48.25 191.96 18.07 191.96 16.57 190.46 16.57 188.37 28.99 175.94 34.3 175.94 62.57 147.67 64.07 147.67 64.07 148.47 49.94 162.61 49.94 164.21 27.14 187.01 28.49 188.37 51.14 188.37 52.9 190.12 88.93 190.12 88.93 191.27 84.72 195.68 81.82 195.68"/><path d="M33,184.85c-.07,0-.15-.03-.21-.09-.11-.11-.11-.3,0-.41l22.4-22.4c.05-.05,.13-.09,.21-.09h3.76c.08,0,.15,.03,.21,.09l1.83,1.83c.11,.11,.11,.3,0,.41s-.3,.11-.41,0l-1.74-1.74h-3.52l-22.32,22.32c-.06,.06-.13,.09-.21,.09Z"/><path d="M64.69,169.69c-.08,0-.15-.07-.15-.15v-1.29l-2.63-2.63c-.06-.06-.06-.15,0-.21s.15-.06,.21,0l2.67,2.67s.04,.06,.04,.1v1.35c0,.08-.07,.15-.15,.15Z"/><polygon points="7.19 118.61 7.19 148.45 10.91 152.17 10.91 182.36 12.41 183.85 14.51 183.85 26.93 171.43 26.93 166.12 55.2 137.85 55.2 136.35 54.4 136.35 40.27 150.48 38.66 150.48 15.86 173.29 14.51 171.93 14.51 149.28 12.75 147.52 12.75 111.49 11.6 111.49 7.19 115.7 7.19 118.61"/><path d="M18.32,167.71c-.07,0-.15-.03-.21-.09-.11-.11-.11-.3,0-.41l22.32-22.32v-3.52l-1.74-1.74c-.11-.11-.11-.3,0-.41s.3-.11,.41,0l1.83,1.83c.05,.05,.09,.13,.09,.21v3.76c0,.08-.03,.15-.09,.21l-22.4,22.4c-.06,.06-.13,.09-.21,.09Z"/><path d="M37.35,138.55s-.07-.01-.1-.04l-2.63-2.63h-1.29c-.08,0-.15-.07-.15-.15s.07-.15,.15-.15h1.35s.08,.02,.1,.04l2.67,2.67c.06,.06,.06,.15,0,.21-.03,.03-.07,.04-.1,.04Z"/><path d="M12.25,193.37h-3.61c-.16,0-.29-.13-.29-.29v-3.61c0-.16,.13-.29,.29-.29h3.61c.16,0,.29,.13,.29,.29v3.61c0,.16-.13,.29-.29,.29Zm-3.32-.58h3.02v-3.02h-3.02v3.02Z"/><rect x="5.67" y="194.51" width="1.54" height="1.54"/><path d="M33.72,196.12h-3.42s-.07-.03-.07-.07,.03-.07,.07-.07h3.39l53.28-53.28s.03-.02,.05-.02h5.3s.04,0,.05,.02l3.23,3.23s.02,.03,.02,.05v7.45s-.03,.07-.07,.07-.07-.03-.07-.07v-7.42l-3.18-3.18h-5.24l-53.28,53.28s-.03,.02-.05,.02Z"/><path d="M22.63,144.29H.07s-.07-.03-.07-.07,.03-.07,.07-.07H22.6l34.56-34.56s.03-.02,.05-.02h11.43s.04,0,.05,.02l2.71,2.71s.02,.03,.02,.05v2.36s-.03,.07-.07,.07-.07-.03-.07-.07v-2.33l-2.66-2.66h-11.37l-34.56,34.56s-.03,.02-.05,.02Z"/><path d="M92.32,183.93s-.07-.03-.07-.07v-26.83l-2.42-2.42s-.03-.08,0-.1c.03-.03,.07-.03,.1,0l2.44,2.44s.02,.03,.02,.05v26.86s-.03,.07-.07,.07Z"/><path d="M4.33,142.33H2.13s-.07-.03-.07-.07v-.4s.03-.07,.07-.07h2.21s.07,.03,.07,.07v.4s-.03,.07-.07,.07Zm-2.13-.15h2.06v-.26H2.2v.26Z"/><path d="M4.33,138.68H2.13s-.07-.03-.07-.07v-.4s.03-.07,.07-.07h2.21s.07,.03,.07,.07v.4s-.03,.07-.07,.07Zm-2.13-.15h2.06v-.25H2.2v.25Z"/><path d="M4.33,135.02H2.13s-.07-.03-.07-.07v-.4s.03-.07,.07-.07h2.21s.07,.03,.07,.07v.4s-.03,.07-.07,.07Zm-2.13-.15h2.06v-.25H2.2v.25Z"/><path d="M4.33,131.37H2.13s-.07-.03-.07-.07v-.4s.03-.07,.07-.07h2.21s.07,.03,.07,.07v.4s-.03,.07-.07,.07Zm-2.13-.15h2.06v-.25H2.2v.25Z"/><path d="M4.33,127.71H2.13s-.07-.03-.07-.07v-.4s.03-.07,.07-.07h2.21s.07,.03,.07,.07v.4s-.03,.07-.07,.07Zm-2.13-.15h2.06v-.25H2.2v.25Z"/><path d="M4.33,124.06H2.13s-.07-.03-.07-.07v-.4s.03-.07,.07-.07h2.21s.07,.03,.07,.07v.4s-.03,.07-.07,.07Zm-2.13-.15h2.06v-.25H2.2v.25Z"/><rect x="53.67" y="197.59" width=".75" height=".75"/><rect x="67.11" y="197.59" width=".75" height=".75"/><rect x="80.54" y="197.59" width=".75" height=".75"/><path d="M88.23,199.13c-.16,0-.29-.13-.29-.29v-2.1c0-.08,.03-.15,.09-.21l7.83-7.83v-5.78l-.87-.87c-.11-.11-.11-.3,0-.41s.3-.11,.41,0l.95,.95c.05,.05,.09,.13,.09,.21v6.02c0,.08-.03,.15-.09,.21l-7.83,7.83v1.98c0,.16-.13,.29-.29,.29Z"/><path d="M91.64,194.72h-1.32s-.07-.03-.07-.07,.03-.07,.07-.07h1.29l5.51-5.51v-4.97l-.33-.33h-.65s-.07-.03-.07-.07,.03-.07,.07-.07h.68s.04,0,.05,.02l.37,.37s.02,.03,.02,.05v5.03s0,.04-.02,.05l-5.56,5.56s-.03,.02-.05,.02Z"/><path d="M96.64,199.58s-.07-.03-.07-.07v-3.79l-.85-.85h-.67s-.07-.03-.07-.07,.03-.07,.07-.07h.7s.04,0,.05,.02l.89,.89s.02,.03,.02,.05v3.82s-.03,.07-.07,.07Z"/><path d="M88.23,202.42s-.07-.03-.07-.07v-1.95s.03-.07,.07-.07,.07,.03,.07,.07v1.95s-.03,.07-.07,.07Z"/></g><g><path class="cls-1" d="M21.11,19.5h15.19c1.06,0,2.07,.42,2.81,1.17l9.45,9.45c.75,.75,1.76,1.17,2.81,1.17h19.55c1.06,0,2.07,.42,2.81,1.17l.18,.18c.75,.75,1.76,1.17,2.81,1.17h20.46v9.69h-5.29c-1.06,0-2.07,.42-2.81,1.17h0c-.75,.75-1.76,1.17-2.81,1.17H50.52c-1.06,0-2.07-.42-2.81-1.17l-4.46-4.46c-.75-.75-1.76-1.17-2.81-1.17h-11.97c-1.06,0-2.07-.42-2.81-1.17l-6.83-6.83c-.75-.75-1.17-1.76-1.17-2.81v-8.71h3.45Z"/><path class="cls-1" d="M67.46,42.42h-17.14c-.44,0-.88-.18-1.19-.49l-10.96-10.96c-.31-.31-.49-.75-.49-1.19v-3.07c0-.45,.18-.87,.49-1.19l1.27-1.27c.06-.06,.15-.06,.21,0s.06,.15,0,.21l-1.27,1.27c-.26,.26-.41,.61-.41,.99v3.07c0,.37,.15,.73,.41,.99l10.96,10.96c.26,.26,.62,.41,.99,.41h17.14c.37,0,.72-.14,.99-.41l1.83-1.83c.31-.31,.75-.49,1.19-.49h24.32c.08,0,.15,.07,.15,.15s-.07,.15-.15,.15h-24.32c-.37,0-.73,.15-.99,.41l-1.83,1.83c-.32,.32-.74,.49-1.19,.49Z"/><path class="cls-1" d="M38.53,37.79h-3.89c-.08,0-.15-.07-.15-.15s.07-.15,.15-.15h3.89c.61,0,1.1-.49,1.1-1.1v-.17c0-.29-.12-.57-.32-.78l-5.56-5.56c-.2-.2-.49-.32-.78-.32h-11.04c-.08,0-.15-.07-.15-.15s.07-.15,.15-.15h11.04c.37,0,.72,.15,.99,.41l5.56,5.56c.26,.26,.41,.62,.41,.98v.17c0,.77-.62,1.39-1.39,1.39Z"/><path class="cls-1" d="M59.35,30.39h-7.7c-.52,0-1.01-.2-1.38-.57l-4.96-4.96c-.06-.06-.06-.15,0-.21s.15-.06,.21,0l4.96,4.96c.31,.31,.73,.49,1.17,.49h7.7c.08,0,.15,.07,.15,.15s-.07,.15-.15,.15Z"/></g><g><path class="cls-1" d="M21.11,43.7h15.19c1.06,0,2.07,.42,2.81,1.17l9.45,9.45c.75,.75,1.76,1.17,2.81,1.17h19.55c1.06,0,2.07,.42,2.81,1.17l.18,.18c.75,.75,1.76,1.17,2.81,1.17h20.46v9.69h-5.29c-1.06,0-2.07,.42-2.81,1.17h0c-.75,.75-1.76,1.17-2.81,1.17H50.52c-1.06,0-2.07-.42-2.81-1.17l-4.46-4.46c-.75-.75-1.76-1.17-2.81-1.17h-11.97c-1.06,0-2.07-.42-2.81-1.17l-6.83-6.83c-.75-.75-1.17-1.76-1.17-2.81v-8.71h3.45Z"/><path class="cls-1" d="M67.46,66.63h-17.14c-.44,0-.88-.18-1.19-.49l-10.96-10.96c-.31-.31-.49-.75-.49-1.19v-3.07c0-.45,.18-.87,.49-1.19l1.27-1.27c.06-.06,.15-.06,.21,0s.06,.15,0,.21l-1.27,1.27c-.26,.26-.41,.61-.41,.99v3.07c0,.37,.15,.73,.41,.99l10.96,10.96c.26,.26,.62,.41,.99,.41h17.14c.37,0,.72-.14,.99-.41l1.83-1.83c.31-.31,.75-.49,1.19-.49h24.32c.08,0,.15,.07,.15,.15s-.07,.15-.15,.15h-24.32c-.37,0-.73,.15-.99,.41l-1.83,1.83c-.32,.32-.74,.49-1.19,.49Z"/><path class="cls-1" d="M38.53,61.99h-3.89c-.08,0-.15-.07-.15-.15s.07-.15,.15-.15h3.89c.61,0,1.1-.49,1.1-1.1v-.17c0-.29-.11-.57-.32-.78l-5.56-5.56c-.2-.2-.49-.32-.78-.32h-11.04c-.08,0-.15-.07-.15-.15s.07-.15,.15-.15h11.04c.37,0,.72,.15,.99,.41l5.56,5.56c.26,.26,.41,.61,.41,.98v.17c0,.77-.62,1.39-1.39,1.39Z"/><path class="cls-1" d="M59.35,54.6h-7.7c-.52,0-1.01-.2-1.38-.57l-4.96-4.96c-.06-.06-.06-.15,0-.21s.15-.06,.21,0l4.96,4.96c.31,.31,.73,.49,1.17,.49h7.7c.08,0,.15,.07,.15,.15s-.07,.15-.15,.15Z"/></g><g><path class="cls-1" d="M21.11,67.91h15.19c1.06,0,2.07,.42,2.81,1.17l9.45,9.45c.75,.75,1.76,1.17,2.81,1.17h19.55c1.06,0,2.07,.42,2.81,1.17l.18,.18c.75,.75,1.76,1.17,2.81,1.17h20.46v9.69h-5.29c-1.06,0-2.07,.42-2.81,1.17h0c-.75,.75-1.76,1.17-2.81,1.17H50.52c-1.06,0-2.07-.42-2.81-1.17l-4.46-4.46c-.75-.75-1.76-1.17-2.81-1.17h-11.97c-1.06,0-2.07-.42-2.81-1.17l-6.83-6.83c-.75-.75-1.17-1.76-1.17-2.81v-8.71h3.45Z"/><path class="cls-1" d="M67.46,90.84h-17.14c-.44,0-.88-.18-1.19-.49l-10.96-10.96c-.31-.31-.49-.75-.49-1.19v-3.07c0-.45,.18-.87,.49-1.19l1.27-1.27c.06-.06,.15-.06,.21,0s.06,.15,0,.21l-1.27,1.27c-.26,.26-.41,.61-.41,.99v3.07c0,.37,.15,.73,.41,.99l10.96,10.96c.26,.26,.62,.41,.99,.41h17.14c.37,0,.72-.15,.99-.41l1.83-1.83c.31-.31,.75-.49,1.19-.49h24.32c.08,0,.15,.07,.15,.15s-.07,.15-.15,.15h-24.32c-.37,0-.73,.15-.99,.41l-1.83,1.83c-.32,.32-.74,.49-1.19,.49Z"/><path class="cls-1" d="M38.53,86.2h-3.89c-.08,0-.15-.07-.15-.15s.07-.15,.15-.15h3.89c.61,0,1.1-.49,1.1-1.1v-.17c0-.29-.11-.57-.32-.78l-5.56-5.56c-.2-.2-.49-.32-.78-.32h-11.04c-.08,0-.15-.07-.15-.15s.07-.15,.15-.15h11.04c.37,0,.72,.15,.99,.41l5.56,5.56c.26,.26,.41,.61,.41,.98v.17c0,.77-.62,1.39-1.39,1.39Z"/><path class="cls-1" d="M59.35,78.81h-7.7c-.52,0-1.01-.2-1.38-.57l-4.96-4.96c-.06-.06-.06-.15,0-.21s.15-.06,.21,0l4.96,4.96c.31,.31,.73,.49,1.17,.49h7.7c.08,0,.15,.07,.15,.15s-.07,.15-.15,.15Z"/></g><g><path class="cls-1" d="M179.01,19.5h-15.19c-1.06,0-2.07,.42-2.81,1.17l-9.45,9.45c-.75,.75-1.76,1.17-2.81,1.17h-19.55c-1.06,0-2.07,.42-2.81,1.17l-.18,.18c-.75,.75-1.76,1.17-2.81,1.17h-20.46v9.69h5.29c1.06,0,2.07,.42,2.81,1.17h0c.75,.75,1.76,1.17,2.81,1.17h35.75c1.06,0,2.07-.42,2.81-1.17l4.46-4.46c.75-.75,1.76-1.17,2.81-1.17h11.97c1.06,0,2.07-.42,2.81-1.17l6.83-6.83c.75-.75,1.17-1.76,1.17-2.81v-8.71h-3.45Z"/><path class="cls-1" d="M149.8,42.42h-17.14c-.45,0-.87-.18-1.19-.49l-1.83-1.83c-.26-.26-.61-.41-.99-.41h-24.32c-.08,0-.15-.07-.15-.15s.07-.15,.15-.15h24.32c.45,0,.87,.18,1.19,.49l1.83,1.83c.26,.26,.61,.41,.99,.41h17.14c.37,0,.72-.14,.99-.41l10.96-10.96c.26-.26,.41-.61,.41-.99v-3.07c0-.37-.15-.72-.41-.99l-1.27-1.27c-.06-.06-.06-.15,0-.21s.15-.06,.21,0l1.27,1.27c.32,.32,.49,.74,.49,1.19v3.07c0,.45-.18,.87-.49,1.19l-10.96,10.96c-.32,.32-.74,.49-1.19,.49Z"/><path class="cls-1" d="M165.47,37.79h-3.89c-.77,0-1.39-.62-1.39-1.39v-.17c0-.37,.15-.73,.41-.98l5.56-5.56c.26-.26,.61-.41,.99-.41h11.04c.08,0,.15,.07,.15,.15s-.07,.15-.15,.15h-11.04c-.29,0-.57,.12-.78,.32l-5.56,5.56c-.2,.2-.32,.49-.32,.78v.17c0,.61,.49,1.1,1.1,1.1h3.89c.08,0,.15,.07,.15,.15s-.07,.15-.15,.15Z"/><path class="cls-1" d="M148.46,30.39h-7.7c-.08,0-.15-.07-.15-.15s.07-.15,.15-.15h7.7c.44,0,.86-.17,1.17-.49l4.96-4.96c.06-.06,.15-.06,.21,0s.06,.15,0,.21l-4.96,4.96c-.37,.37-.86,.57-1.38,.57Z"/></g><g><path class="cls-1" d="M179.01,43.7h-15.19c-1.06,0-2.07,.42-2.81,1.17l-9.45,9.45c-.75,.75-1.76,1.17-2.81,1.17h-19.55c-1.06,0-2.07,.42-2.81,1.17l-.18,.18c-.75,.75-1.76,1.17-2.81,1.17h-20.46v9.69h5.29c1.06,0,2.07,.42,2.81,1.17h0c.75,.75,1.76,1.17,2.81,1.17h35.75c1.06,0,2.07-.42,2.81-1.17l4.46-4.46c.75-.75,1.76-1.17,2.81-1.17h11.97c1.06,0,2.07-.42,2.81-1.17l6.83-6.83c.75-.75,1.17-1.76,1.17-2.81v-8.71h-3.45Z"/><path class="cls-1" d="M149.8,66.63h-17.14c-.45,0-.87-.18-1.19-.49l-1.83-1.83c-.26-.26-.61-.41-.99-.41h-24.32c-.08,0-.15-.07-.15-.15s.07-.15,.15-.15h24.32c.45,0,.87,.18,1.19,.49l1.83,1.83c.26,.26,.61,.41,.99,.41h17.14c.37,0,.72-.14,.99-.41l10.96-10.96c.26-.26,.41-.61,.41-.99v-3.07c0-.37-.15-.72-.41-.99l-1.27-1.27c-.06-.06-.06-.15,0-.21s.15-.06,.21,0l1.27,1.27c.32,.32,.49,.74,.49,1.19v3.07c0,.45-.18,.87-.49,1.19l-10.96,10.96c-.32,.32-.74,.49-1.19,.49Z"/><path class="cls-1" d="M165.47,61.99h-3.89c-.77,0-1.39-.62-1.39-1.39v-.17c0-.37,.15-.72,.41-.98l5.56-5.56c.26-.26,.61-.41,.99-.41h11.04c.08,0,.15,.07,.15,.15s-.07,.15-.15,.15h-11.04c-.29,0-.57,.12-.78,.32l-5.56,5.56c-.21,.21-.32,.48-.32,.78v.17c0,.61,.49,1.1,1.1,1.1h3.89c.08,0,.15,.07,.15,.15s-.07,.15-.15,.15Z"/><path class="cls-1" d="M148.46,54.6h-7.7c-.08,0-.15-.07-.15-.15s.07-.15,.15-.15h7.7c.44,0,.86-.17,1.17-.49l4.96-4.96c.06-.06,.15-.06,.21,0s.06,.15,0,.21l-4.96,4.96c-.37,.37-.86,.57-1.38,.57Z"/></g><g><path class="cls-1" d="M179.01,67.91h-15.19c-1.06,0-2.07,.42-2.81,1.17l-9.45,9.45c-.75,.75-1.76,1.17-2.81,1.17h-19.55c-1.06,0-2.07,.42-2.81,1.17l-.18,.18c-.75,.75-1.76,1.17-2.81,1.17h-20.46v9.69h5.29c1.06,0,2.07,.42,2.81,1.17h0c.75,.75,1.76,1.17,2.81,1.17h35.75c1.06,0,2.07-.42,2.81-1.17l4.46-4.46c.75-.75,1.76-1.17,2.81-1.17h11.97c1.06,0,2.07-.42,2.81-1.17l6.83-6.83c.75-.75,1.17-1.76,1.17-2.81v-8.71h-3.45Z"/><path class="cls-1" d="M149.8,90.84h-17.14c-.45,0-.87-.18-1.19-.49l-1.83-1.83c-.26-.26-.61-.41-.99-.41h-24.32c-.08,0-.15-.07-.15-.15s.07-.15,.15-.15h24.32c.45,0,.87,.18,1.19,.49l1.83,1.83c.26,.26,.61,.41,.99,.41h17.14c.37,0,.72-.15,.99-.41l10.96-10.96c.26-.26,.41-.61,.41-.99v-3.07c0-.37-.15-.72-.41-.99l-1.27-1.27c-.06-.06-.06-.15,0-.21s.15-.06,.21,0l1.27,1.27c.32,.32,.49,.74,.49,1.19v3.07c0,.45-.18,.87-.49,1.19l-10.96,10.96c-.32,.32-.74,.49-1.19,.49Z"/><path class="cls-1" d="M165.47,86.2h-3.89c-.77,0-1.39-.62-1.39-1.39v-.17c0-.37,.15-.72,.41-.98l5.56-5.56c.26-.26,.61-.41,.99-.41h11.04c.08,0,.15,.07,.15,.15s-.07,.15-.15,.15h-11.04c-.29,0-.57,.12-.78,.32l-5.56,5.56c-.21,.21-.32,.48-.32,.78v.17c0,.61,.49,1.1,1.1,1.1h3.89c.08,0,.15,.07,.15,.15s-.07,.15-.15,.15Z"/><path class="cls-1" d="M148.46,78.81h-7.7c-.08,0-.15-.07-.15-.15s.07-.15,.15-.15h7.7c.44,0,.86-.17,1.17-.49l4.96-4.96c.06-.06,.15-.06,.21,0s.06,.15,0,.21l-4.96,4.96c-.37,.37-.86,.57-1.38,.57Z"/></g><g><path class="cls-1" d="M179.01,182.02h-15.19c-1.06,0-2.07-.42-2.81-1.17l-9.45-9.45c-.75-.75-1.76-1.17-2.81-1.17h-19.55c-1.06,0-2.07-.42-2.81-1.17l-.18-.18c-.75-.75-1.76-1.17-2.81-1.17h-20.46v-9.69h5.29c1.06,0,2.07-.42,2.81-1.17h0c.75-.75,1.76-1.17,2.81-1.17h35.75c1.06,0,2.07,.42,2.81,1.17l4.46,4.46c.75,.75,1.76,1.17,2.81,1.17h11.97c1.06,0,2.07,.42,2.81,1.17l6.83,6.83c.75,.75,1.17,1.76,1.17,2.81v8.71h-3.45Z"/><path class="cls-1" d="M160.58,177.33s-.07-.01-.1-.04c-.06-.06-.06-.15,0-.21l1.27-1.27c.26-.26,.41-.61,.41-.99v-3.07c0-.37-.15-.72-.41-.99l-10.96-10.96c-.26-.26-.61-.41-.99-.41h-17.14c-.37,0-.72,.15-.99,.41l-1.83,1.83c-.32,.32-.74,.49-1.19,.49h-24.32c-.08,0-.15-.07-.15-.15s.07-.15,.15-.15h24.32c.37,0,.72-.15,.99-.41l1.83-1.83c.32-.32,.74-.49,1.19-.49h17.14c.45,0,.87,.18,1.19,.49l10.96,10.96c.32,.32,.49,.74,.49,1.19v3.07c0,.45-.18,.87-.49,1.19l-1.27,1.27s-.07,.04-.1,.04Z"/><path class="cls-1" d="M178.19,172.25h-11.04c-.37,0-.72-.15-.99-.41l-5.56-5.56c-.26-.26-.41-.61-.41-.98v-.17c0-.77,.62-1.39,1.39-1.39h3.89c.08,0,.15,.07,.15,.15s-.07,.15-.15,.15h-3.89c-.61,0-1.1,.49-1.1,1.1v.17c0,.29,.11,.57,.32,.78l5.56,5.56c.21,.21,.48,.32,.78,.32h11.04c.08,0,.15,.07,.15,.15s-.07,.15-.15,.15Z"/><path class="cls-1" d="M154.7,176.91s-.07-.01-.1-.04l-4.96-4.96c-.31-.31-.73-.49-1.17-.49h-7.7c-.08,0-.15-.07-.15-.15s.07-.15,.15-.15h7.7c.52,0,1.01,.2,1.38,.57l4.96,4.96c.06,.06,.06,.15,0,.21-.03,.03-.07,.04-.1,.04Z"/></g><g><path class="cls-1" d="M179.01,157.82h-15.19c-1.06,0-2.07-.42-2.81-1.17l-9.45-9.45c-.75-.75-1.76-1.17-2.81-1.17h-19.55c-1.06,0-2.07-.42-2.81-1.17l-.18-.18c-.75-.75-1.76-1.17-2.81-1.17h-20.46v-9.69h5.29c1.06,0,2.07-.42,2.81-1.17h0c.75-.75,1.76-1.17,2.81-1.17h35.75c1.06,0,2.07,.42,2.81,1.17l4.46,4.46c.75,.75,1.76,1.17,2.81,1.17h11.97c1.06,0,2.07,.42,2.81,1.17l6.83,6.83c.75,.75,1.17,1.76,1.17,2.81v8.71h-3.45Z"/><path class="cls-1" d="M160.58,153.12s-.07-.01-.1-.04c-.06-.06-.06-.15,0-.21l1.27-1.27c.26-.26,.41-.61,.41-.99v-3.07c0-.37-.15-.72-.41-.99l-10.96-10.96c-.26-.26-.61-.41-.99-.41h-17.14c-.37,0-.72,.15-.99,.41l-1.83,1.83c-.32,.32-.74,.49-1.19,.49h-24.32c-.08,0-.15-.07-.15-.15s.07-.15,.15-.15h24.32c.37,0,.72-.15,.99-.41l1.83-1.83c.32-.32,.74-.49,1.19-.49h17.14c.45,0,.87,.18,1.19,.49l10.96,10.96c.32,.32,.49,.74,.49,1.19v3.07c0,.45-.18,.87-.49,1.19l-1.27,1.27s-.07,.04-.1,.04Z"/><path class="cls-1" d="M178.19,148.04h-11.04c-.37,0-.72-.15-.99-.41l-5.56-5.56c-.26-.26-.41-.61-.41-.99v-.17c0-.77,.62-1.39,1.39-1.39h3.89c.08,0,.15,.07,.15,.15s-.07,.15-.15,.15h-3.89c-.61,0-1.1,.49-1.1,1.1v.17c0,.29,.11,.57,.32,.78l5.56,5.56c.21,.21,.48,.32,.78,.32h11.04c.08,0,.15,.07,.15,.15s-.07,.15-.15,.15Z"/><path class="cls-1" d="M154.7,152.7s-.07-.01-.1-.04l-4.96-4.96c-.31-.31-.73-.49-1.17-.49h-7.7c-.08,0-.15-.07-.15-.15s.07-.15,.15-.15h7.7c.52,0,1.01,.2,1.38,.57l4.96,4.96c.06,.06,.06,.15,0,.21-.03,.03-.07,.04-.1,.04Z"/></g><g><path class="cls-1" d="M179.01,133.61h-15.19c-1.06,0-2.07-.42-2.81-1.17l-9.45-9.45c-.75-.75-1.76-1.17-2.81-1.17h-19.55c-1.06,0-2.07-.42-2.81-1.17l-.18-.18c-.75-.75-1.76-1.17-2.81-1.17h-20.46v-9.69h5.29c1.06,0,2.07-.42,2.81-1.17h0c.75-.75,1.76-1.17,2.81-1.17h35.75c1.06,0,2.07,.42,2.81,1.17l4.46,4.46c.75,.75,1.76,1.17,2.81,1.17h11.97c1.06,0,2.07,.42,2.81,1.17l6.83,6.83c.75,.75,1.17,1.76,1.17,2.81v8.71h-3.45Z"/><path class="cls-1" d="M160.58,128.91s-.07-.01-.1-.04c-.06-.06-.06-.15,0-.21l1.27-1.27c.26-.26,.41-.61,.41-.99v-3.07c0-.37-.15-.72-.41-.99l-10.96-10.96c-.26-.26-.61-.41-.99-.41h-17.14c-.37,0-.72,.14-.99,.41l-1.83,1.83c-.32,.32-.74,.49-1.19,.49h-24.32c-.08,0-.15-.07-.15-.15s.07-.15,.15-.15h24.32c.37,0,.72-.15,.99-.41l1.83-1.83c.32-.32,.74-.49,1.19-.49h17.14c.45,0,.87,.18,1.19,.49l10.96,10.96c.32,.32,.49,.74,.49,1.19v3.07c0,.45-.18,.87-.49,1.19l-1.27,1.27s-.07,.04-.1,.04Z"/><path class="cls-1" d="M178.19,123.83h-11.04c-.37,0-.72-.15-.99-.41l-5.56-5.56c-.26-.26-.41-.61-.41-.98v-.17c0-.77,.62-1.39,1.39-1.39h3.89c.08,0,.15,.07,.15,.15s-.07,.15-.15,.15h-3.89c-.61,0-1.1,.49-1.1,1.1v.17c0,.29,.11,.57,.32,.78l5.56,5.56c.21,.21,.48,.32,.78,.32h11.04c.08,0,.15,.07,.15,.15s-.07,.15-.15,.15Z"/><path class="cls-1" d="M154.7,128.49s-.07-.01-.1-.04l-4.96-4.96c-.31-.31-.73-.49-1.17-.49h-7.7c-.08,0-.15-.07-.15-.15s.07-.15,.15-.15h7.7c.52,0,1.01,.2,1.38,.57l4.96,4.96c.06,.06,.06,.15,0,.21-.03,.03-.07,.04-.1,.04Z"/></g><g><path class="cls-1" d="M21.11,182.02h15.19c1.06,0,2.07-.42,2.81-1.17l9.45-9.45c.75-.75,1.76-1.17,2.81-1.17h19.55c1.06,0,2.07-.42,2.81-1.17l.18-.18c.75-.75,1.76-1.17,2.81-1.17h20.46v-9.69h-5.29c-1.06,0-2.07-.42-2.81-1.17h0c-.75-.75-1.76-1.17-2.81-1.17H50.52c-1.06,0-2.07,.42-2.81,1.17l-4.46,4.46c-.75,.75-1.76,1.17-2.81,1.17h-11.97c-1.06,0-2.07,.42-2.81,1.17l-6.83,6.83c-.75,.75-1.17,1.76-1.17,2.81v8.71h3.45Z"/><path class="cls-1" d="M39.54,177.33s-.07-.01-.1-.04l-1.27-1.27c-.31-.31-.49-.75-.49-1.19v-3.07c0-.45,.18-.87,.49-1.19l10.96-10.96c.31-.31,.75-.49,1.19-.49h17.14c.45,0,.87,.18,1.19,.49l1.83,1.83c.26,.26,.62,.41,.99,.41h24.32c.08,0,.15,.07,.15,.15s-.07,.15-.15,.15h-24.32c-.44,0-.88-.18-1.19-.49l-1.83-1.83c-.26-.26-.61-.41-.99-.41h-17.14c-.37,0-.73,.15-.99,.41l-10.96,10.96c-.26,.26-.41,.61-.41,.99v3.07c0,.37,.15,.73,.41,.99l1.27,1.27c.06,.06,.06,.15,0,.21-.03,.03-.07,.04-.1,.04Z"/><path class="cls-1" d="M32.97,172.25h-11.04c-.08,0-.15-.07-.15-.15s.07-.15,.15-.15h11.04c.29,0,.57-.11,.78-.32l5.56-5.56c.21-.21,.32-.48,.32-.78v-.17c0-.61-.49-1.1-1.1-1.1h-3.89c-.08,0-.15-.07-.15-.15s.07-.15,.15-.15h3.89c.77,0,1.39,.62,1.39,1.39v.17c0,.37-.14,.72-.41,.98l-5.56,5.56c-.26,.26-.61,.41-.99,.41Z"/><path class="cls-1" d="M45.42,176.91s-.07-.01-.1-.04c-.06-.06-.06-.15,0-.21l4.96-4.96c.36-.36,.87-.57,1.38-.57h7.7c.08,0,.15,.07,.15,.15s-.07,.15-.15,.15h-7.7c-.44,0-.86,.18-1.17,.49l-4.96,4.96s-.07,.04-.1,.04Z"/></g><g><path class="cls-1" d="M21.11,157.82h15.19c1.06,0,2.07-.42,2.81-1.17l9.45-9.45c.75-.75,1.76-1.17,2.81-1.17h19.55c1.06,0,2.07-.42,2.81-1.17l.18-.18c.75-.75,1.76-1.17,2.81-1.17h20.46v-9.69h-5.29c-1.06,0-2.07-.42-2.81-1.17h0c-.75-.75-1.76-1.17-2.81-1.17H50.52c-1.06,0-2.07,.42-2.81,1.17l-4.46,4.46c-.75,.75-1.76,1.17-2.81,1.17h-11.97c-1.06,0-2.07,.42-2.81,1.17l-6.83,6.83c-.75,.75-1.17,1.76-1.17,2.81v8.71h3.45Z"/><path class="cls-1" d="M39.54,153.12s-.07-.01-.1-.04l-1.27-1.27c-.31-.31-.49-.75-.49-1.19v-3.07c0-.45,.18-.87,.49-1.19l10.96-10.96c.31-.31,.75-.49,1.19-.49h17.14c.45,0,.87,.18,1.19,.49l1.83,1.83c.26,.26,.62,.41,.99,.41h24.32c.08,0,.15,.07,.15,.15s-.07,.15-.15,.15h-24.32c-.44,0-.88-.18-1.19-.49l-1.83-1.83c-.26-.26-.61-.41-.99-.41h-17.14c-.37,0-.73,.15-.99,.41l-10.96,10.96c-.26,.26-.41,.61-.41,.99v3.07c0,.37,.15,.73,.41,.99l1.27,1.27c.06,.06,.06,.15,0,.21-.03,.03-.07,.04-.1,.04Z"/><path class="cls-1" d="M32.97,148.04h-11.04c-.08,0-.15-.07-.15-.15s.07-.15,.15-.15h11.04c.29,0,.57-.11,.78-.32l5.56-5.56c.21-.21,.32-.48,.32-.78v-.17c0-.61-.49-1.1-1.1-1.1h-3.89c-.08,0-.15-.07-.15-.15s.07-.15,.15-.15h3.89c.77,0,1.39,.62,1.39,1.39v.17c0,.37-.14,.72-.41,.99l-5.56,5.56c-.26,.26-.61,.41-.99,.41Z"/><path class="cls-1" d="M45.42,152.7s-.07-.01-.1-.04c-.06-.06-.06-.15,0-.21l4.96-4.96c.36-.36,.87-.57,1.38-.57h7.7c.08,0,.15,.07,.15,.15s-.07,.15-.15,.15h-7.7c-.44,0-.86,.18-1.17,.49l-4.96,4.96s-.07,.04-.1,.04Z"/></g><g><path class="cls-1" d="M21.11,133.61h15.19c1.06,0,2.07-.42,2.81-1.17l9.45-9.45c.75-.75,1.76-1.17,2.81-1.17h19.55c1.06,0,2.07-.42,2.81-1.17l.18-.18c.75-.75,1.76-1.17,2.81-1.17h20.46v-9.69h-5.29c-1.06,0-2.07-.42-2.81-1.17h0c-.75-.75-1.76-1.17-2.81-1.17H50.52c-1.06,0-2.07,.42-2.81,1.17l-4.46,4.46c-.75,.75-1.76,1.17-2.81,1.17h-11.97c-1.06,0-2.07,.42-2.81,1.17l-6.83,6.83c-.75,.75-1.17,1.76-1.17,2.81v8.71h3.45Z"/><path class="cls-1" d="M39.54,128.91s-.07-.01-.1-.04l-1.27-1.27c-.31-.31-.49-.75-.49-1.19v-3.07c0-.45,.18-.87,.49-1.19l10.96-10.96c.31-.31,.75-.49,1.19-.49h17.14c.45,0,.87,.18,1.19,.49l1.83,1.83c.26,.26,.62,.41,.99,.41h24.32c.08,0,.15,.07,.15,.15s-.07,.15-.15,.15h-24.32c-.44,0-.88-.18-1.19-.49l-1.83-1.83c-.26-.26-.61-.41-.99-.41h-17.14c-.37,0-.73,.15-.99,.41l-10.96,10.96c-.26,.26-.41,.61-.41,.99v3.07c0,.37,.15,.73,.41,.99l1.27,1.27c.06,.06,.06,.15,0,.21-.03,.03-.07,.04-.1,.04Z"/><path class="cls-1" d="M32.97,123.83h-11.04c-.08,0-.15-.07-.15-.15s.07-.15,.15-.15h11.04c.29,0,.57-.11,.78-.32l5.56-5.56c.21-.21,.32-.48,.32-.78v-.17c0-.61-.49-1.1-1.1-1.1h-3.89c-.08,0-.15-.07-.15-.15s.07-.15,.15-.15h3.89c.77,0,1.39,.62,1.39,1.39v.17c0,.37-.14,.72-.41,.98l-5.56,5.56c-.26,.26-.61,.41-.99,.41Z"/><path class="cls-1" d="M45.42,128.49s-.07-.01-.1-.04c-.06-.06-.06-.15,0-.21l4.96-4.96c.36-.36,.87-.57,1.38-.57h7.7c.08,0,.15,.07,.15,.15s-.07,.15-.15,.15h-7.7c-.44,0-.86,.18-1.17,.49l-4.96,4.96s-.07,.04-.1,.04Z"/></g></g></g></svg>