<?xml version="1.0" encoding="iso-8859-1"?>
<!-- Generator: Adobe Illustrator 19.0.0, SVG Export Plug-In . SVG Version: 6.00 Build 0)  -->
<svg version="1.1" id="Capa_1" xmlns="http://www.w3.org/2000/svg" xmlns:xlink="http://www.w3.org/1999/xlink" x="0px" y="0px"
	 viewBox="0 0 512.001 512.001" style="enable-background:new 0 0 512.001 512.001;" xml:space="preserve">
<path style="fill:#FF4F6F;" d="M512.001,256.001c0,47.846-13.124,92.63-35.986,130.946c-6.186,10.365-13.082,20.26-20.626,29.612
	c-25.391,31.503-58.096,56.863-95.524,73.498c-1.264,0.554-2.539,1.108-3.814,1.651h-0.01
	c-30.73,13.061-64.533,20.292-100.038,20.292c-141.384,0-255.998-114.614-255.998-255.998c0-23.74,3.229-46.738,9.289-68.555
	c4.598-16.603,10.836-32.517,18.515-47.574c21.985-43.133,55.839-79.192,97.259-103.883c38.306-22.862,83.09-35.986,130.935-35.986
	C397.386,0.002,512.001,114.616,512.001,256.001z"/>
<path style="fill:#FF6B86;" d="M448.58,192.58c0,35.992-9.872,69.682-27.071,98.505c-4.653,7.797-9.841,15.241-15.517,22.276
	c-19.101,23.699-43.704,42.776-71.859,55.289c-0.951,0.417-1.91,0.833-2.869,1.242h-0.008
	c-23.117,9.825-48.546,15.265-75.254,15.265c-106.357,0-192.578-86.219-192.578-192.578c0-17.858,2.429-35.16,6.988-51.572
	c3.459-12.49,8.151-24.461,13.928-35.788c16.539-32.447,42.006-59.573,73.163-78.147c28.816-17.198,62.505-27.071,98.498-27.071
	C362.361,0.002,448.58,86.223,448.58,192.58z"/>
<path style="fill:#55CEED;" d="M476.014,386.947c-27.711,46.466-69.726,83.414-119.964,104.761
	c-8.704-0.554-17.596-1.641-26.655-3.26c-67.343-11.995-143.067-52.767-207.996-117.686
	C64.306,313.658,25.875,248.195,9.293,187.445c-2.278-8.328-4.138-16.562-5.58-24.68C-6.381,106.132,3.88,55.423,37.254,22.06
	L48.8,10.524c1.223-1.223,2.508-2.33,3.856-3.333C66.71-3.404,86.792-2.286,99.603,10.524l66.298,66.298
	c12.8,12.81,13.918,32.883,3.333,46.947c-1.003,1.348-2.111,2.633-3.333,3.856l-49.643,49.643
	c19.425,37.533,48.295,76.967,84.96,113.653l0.021,0.01c36.686,36.676,76.11,65.536,113.653,84.96l49.643-49.643
	c1.223-1.212,2.508-2.32,3.856-3.333c14.064-10.574,34.137-9.456,46.947,3.344L476.014,386.947z"/>
<path style="fill:#17A3BF;" d="M359.865,490.057c-1.264,0.554-2.539,1.108-3.814,1.651h-0.01c-8.693-0.554-17.596-1.651-26.645-3.26
	C262.053,476.452,186.33,435.68,121.4,370.761C64.307,313.658,25.876,248.195,9.294,187.445c-2.278-8.328-4.138-16.562-5.58-24.68
	C-6.38,106.132,3.881,55.423,37.255,22.06l11.546-11.536c1.223-1.223,2.508-2.33,3.856-3.333c10.616-7.993,24.659-9.31,36.414-3.971
	c-3.26,1.191-6.384,2.853-9.247,5.015c-1.348,1.003-2.633,2.111-3.856,3.333L64.422,23.105
	C35.834,51.693,24.204,93.008,27.809,139.872c0.596,7.837,1.62,15.83,3.072,23.938c11.985,67.333,52.767,143.067,117.686,207.996
	c64.93,64.919,140.653,105.691,207.996,117.686C357.66,489.691,358.767,489.879,359.865,490.057z"/>
<g>
	<path style="fill:#474F70;" d="M99.601,10.528l66.297,66.297c12.804,12.804,13.92,32.879,3.339,46.947
		c-1.005,1.345-2.113,2.63-3.332,3.849l-25.121,25.121c1.219-1.219,2.327-2.505,3.332-3.849
		c10.581-14.067,9.465-34.142-3.339-46.947L74.48,35.649C62.097,23.266,42.931,21.803,28.96,31.282
		c2.586-3.207,5.349-6.28,8.29-9.221L48.805,10.52c1.219-1.219,2.505-2.327,3.849-3.332C66.715-3.4,86.789-2.284,99.601,10.528z"/>
	<path style="fill:#474F70;" d="M476.014,386.947c-6.186,10.365-13.082,20.26-20.626,29.612l-65.18-65.18
		c-12.8-12.8-32.872-13.918-46.947-3.333c-1.337,1.003-2.623,2.111-3.845,3.333l25.119-25.13c1.223-1.212,2.508-2.32,3.856-3.333
		c14.064-10.574,34.137-9.456,46.947,3.344L476.014,386.947z"/>
</g>
<circle style="fill:#5CC693;" cx="382.744" cy="129.264" r="129.253"/>
<path style="fill:#FFFFFF;" d="M449.984,108.102h-46.082V62.019c0-7.874-6.383-14.258-14.258-14.258h-13.801
	c-7.874,0-14.258,6.383-14.258,14.258v46.082h-46.082c-7.874,0-14.258,6.383-14.258,14.258v13.801
	c0,7.874,6.383,14.258,14.258,14.258h46.082v46.082c0,7.874,6.383,14.258,14.258,14.258h13.801c7.874,0,14.258-6.383,14.258-14.258
	v-46.082h46.082c7.874,0,14.258-6.383,14.258-14.258v-13.801C464.242,114.485,457.858,108.102,449.984,108.102z"/>
<g>
</g>
<g>
</g>
<g>
</g>
<g>
</g>
<g>
</g>
<g>
</g>
<g>
</g>
<g>
</g>
<g>
</g>
<g>
</g>
<g>
</g>
<g>
</g>
<g>
</g>
<g>
</g>
<g>
</g>
</svg>
