<?xml version="1.0" encoding="iso-8859-1"?>
<!-- Generator: Adobe Illustrator 19.0.0, SVG Export Plug-In . SVG Version: 6.00 Build 0)  -->
<svg version="1.1" id="Capa_1" xmlns="http://www.w3.org/2000/svg" xmlns:xlink="http://www.w3.org/1999/xlink" x="0px" y="0px"
	 viewBox="0 0 512 512" style="enable-background:new 0 0 512 512;" xml:space="preserve">
<path style="fill:#FD7034;" d="M512,256c0,61.283-21.535,117.551-57.469,161.625c-20.072,24.628-44.638,45.453-72.453,61.221
	c-10.574,5.998-21.629,11.274-33.081,15.736C320.167,505.825,288.81,512,256,512c-34.001,0-66.445-6.625-96.131-18.672
	c-10.334-4.18-20.334-9.028-29.947-14.482c-29.278-16.593-54.951-38.787-75.588-65.129C20.292,370.249,0,315.486,0,256
	C0,114.615,114.615,0,256,0S512,114.615,512,256z"/>
<path style="fill:#474F70;" d="M348.996,438.094v56.487C320.167,505.825,288.81,512,256,512c-34.001,0-66.445-6.625-96.131-18.672
	v-55.233H348.996L348.996,438.094z"/>
<path style="fill:#C2C2C2;" d="M434.905,33.157H73.957c-10.839,0-19.625,8.787-19.625,19.625V273h400.199V52.782
	C454.531,41.943,445.744,33.157,434.905,33.157z"/>
<path style="fill:#EDEDED;" d="M454.531,256v161.625c-20.072,24.628-44.638,45.453-72.453,61.221H129.923
	c-29.278-16.593-54.951-38.787-75.588-65.129V256H454.531z"/>
<g>
	<path style="fill:#474F70;" d="M488.245,208.458h-23.543c-5.617,0-10.171,4.554-10.171,10.171v74.743
		c0,5.617,4.554,10.171,10.171,10.171h23.543c5.617,0,10.171-4.554,10.171-10.171v-74.743
		C498.416,213.012,493.863,208.458,488.245,208.458z"/>
	<path style="fill:#474F70;" d="M44.159,208.458H20.617c-5.617,0-10.171,4.554-10.171,10.171v74.743
		c0,5.617,4.554,10.171,10.171,10.171h23.543c5.617,0,10.171-4.554,10.171-10.171v-74.743
		C54.332,213.012,49.778,208.458,44.159,208.458z"/>
</g>
<g>
	<path style="fill:#FFFFFF;" d="M201.324,59.813c24.544,0,47.396,16.081,47.396,42.953c0,45.704-67.074,60.515-67.074,82.521v5.078
		h58.823c4.655,0,8.676,5.501,8.676,11.849c0,6.348-4.021,12.272-8.676,12.272h-75.327c-4.866,0-12.06-3.385-12.06-8.675v-20.525
		c0-33.855,68.132-51.839,68.132-81.674c0-8.675-5.712-18.831-19.678-18.831c-10.369,0-18.831,5.501-18.831,18.62
		c0,5.078-5.29,10.156-14.388,10.156c-7.195,0-12.484-3.385-12.484-14.811C155.831,74.625,177.837,59.813,201.324,59.813z"/>
	<path style="fill:#FFFFFF;" d="M309.654,180.844h-50.783c-5.29,0-9.309-3.597-9.309-9.733c0-1.693,0.422-3.598,1.481-5.501
		l50.147-98.602c2.54-5.29,7.195-7.194,11.638-7.194c4.866,0,13.753,4.232,13.753,10.58c0,1.057-0.422,2.327-1.057,3.597
		l-40.626,81.251h24.756v-22.218c0-6.137,6.983-8.675,13.753-8.675c6.983,0,13.753,2.539,13.753,8.675v22.218h9.945
		c5.713,0,8.676,6.348,8.676,12.908c0,6.348-4.232,12.695-8.676,12.695h-9.945v24.968c0,5.712-6.77,8.675-13.753,8.675
		c-6.77,0-13.753-2.962-13.753-8.675v-24.968H309.654z"/>
</g>
<path style="fill:#FF4F6F;" d="M304.05,310.993c0,4.443-2.751,11.003-5.29,16.081l-53.532,102.834
	c-1.482,2.75-4.232,4.021-7.829,4.021c-8.675,0-17.349-5.925-17.349-13.754c0-1.693,0.211-3.174,1.27-4.867l55.226-99.025v-13.965
	h-44.222v17.138c0,5.078-6.771,8.887-13.965,8.887c-7.405,0-13.542-3.809-13.542-8.887V286.87c0-4.232,5.925-8.675,12.061-8.675
	h75.115c5.29,0,12.061,4.443,12.061,8.675v24.123H304.05z"/>
<g>
</g>
<g>
</g>
<g>
</g>
<g>
</g>
<g>
</g>
<g>
</g>
<g>
</g>
<g>
</g>
<g>
</g>
<g>
</g>
<g>
</g>
<g>
</g>
<g>
</g>
<g>
</g>
<g>
</g>
</svg>
