<?xml version="1.0" encoding="iso-8859-1"?>
<!-- Generator: Adobe Illustrator 19.0.0, SVG Export Plug-In . SVG Version: 6.00 Build 0)  -->
<svg version="1.1" id="Capa_1" xmlns="http://www.w3.org/2000/svg" xmlns:xlink="http://www.w3.org/1999/xlink" x="0px" y="0px"
	 viewBox="0 0 512 512" style="enable-background:new 0 0 512 512;" xml:space="preserve">
<path style="fill:#474F70;" d="M512,256c0,2.633-0.042,5.256-0.125,7.868c-0.805,26.603-5.663,52.193-13.991,76.152
	c-8.276,23.824-19.968,46.049-34.503,66.09C416.862,470.267,341.305,512,256,512c-77.249,0-146.505-34.21-193.442-88.315
	c-23.343-26.917-41.169-58.744-51.712-93.738C3.793,306.542,0,281.715,0,256c0-3.082,0.052-6.144,0.167-9.195
	C5.005,109.672,117.697,0,256,0C397.385,0,512,114.615,512,256z"/>
<path style="fill:#17A3BF;" d="M511.875,263.868C507.716,401.617,394.752,512,256,512C114.615,512,0,397.385,0,256
	c0-3.082,0.052-6.144,0.167-9.195c22.747,7.178,35.067,18.766,74.804,18.766c57.605,0,57.605-24.336,115.2-24.336
	s57.595,24.336,115.2,24.336s57.605-24.336,115.21-24.336C468.867,241.236,476.672,258.341,511.875,263.868z"/>
<path style="fill:#55CEED;" d="M497.883,340.02C463.12,440.132,367.95,512,256,512c-115.67,0-213.431-76.716-245.154-182.053
	c16.927,6.834,31.002,14.879,64.125,14.879c57.605,0,57.605-24.336,115.2-24.336s57.595,24.336,115.2,24.336
	s57.605-24.336,115.21-24.336C461.751,320.491,473.495,332.925,497.883,340.02z"/>
<path style="fill:#FECD9C;" d="M396.507,232.082l-34.67,34.607c-13.458,13.437-30.313,64.23-63.812,85.138
	c-2.8,10.073-4.253,20.564-4.253,31.211v59.852H175.167V336.321c-19.79-24.419-30.605-54.899-30.605-86.34v-149.42
	c0-6.06,2.456-11.546,6.426-15.517c3.971-3.971,9.456-6.426,15.517-6.426c12.11,0,21.932,9.822,21.932,21.943V56.142
	c0-8.192,4.483-15.329,11.139-19.101c3.187-1.808,6.875-2.842,10.794-2.842c12.11,0,21.932,9.822,21.932,21.943v-34.21
	c0-6.06,2.456-11.536,6.426-15.506c1.4-1.4,2.978-2.602,4.712-3.584C246.627,1.034,250.316,0,254.234,0
	c12.11,0,21.932,9.822,21.932,21.932V49.56c0-8.192,4.493-15.339,11.149-19.09c3.187-1.808,6.865-2.842,10.783-2.842
	c12.121,0,21.943,9.812,21.943,21.932v191.958l43.05-42.924c9.258-9.226,24.231-9.206,33.458,0.052
	C405.765,207.893,405.744,222.856,396.507,232.082z"/>
<g>
	<path style="fill:#EAB689;" d="M153.966,249.981V82.567c-1.063,0.742-2.065,1.564-2.978,2.479
		c-3.971,3.971-6.426,9.456-6.426,15.517v149.42c0,31.441,10.815,61.921,30.605,86.34v106.569h9.404v-106.57
		C164.78,311.902,153.966,281.422,153.966,249.981z"/>
	<path style="fill:#EAB689;" d="M320.042,227.892v14.639c-0.031-0.01-0.052-0.021-0.084-0.031
		c-17.962-7.962-37.951-8.443-56.289-1.369c-18.327,7.074-32.81,20.867-40.772,38.839c-1.118,2.539-3.605,4.044-6.207,4.044
		c-0.92,0-1.86-0.188-2.748-0.585c-3.438-1.515-4.984-5.528-3.459-8.965c9.425-21.285,26.582-37.616,48.295-46.007
		C278.664,220.776,300.21,220.62,320.042,227.892z"/>
	<path style="fill:#EAB689;" d="M199.576,37.042v142.137c0,3.076-2.493,5.569-5.569,5.569l0,0c-3.076,0-5.569-2.493-5.569-5.569
		V56.142C188.437,47.95,192.92,40.814,199.576,37.042z"/>
	<path style="fill:#EAB689;" d="M243.44,2.842v154.52c0,3.076-2.493,5.569-5.569,5.569l0,0c-3.076,0-5.569-2.493-5.569-5.569V21.932
		c0-6.06,2.456-11.536,6.426-15.506C240.128,5.026,241.706,3.824,243.44,2.842z"/>
	<path style="fill:#EAB689;" d="M287.316,30.469v132.848c0,3.076-2.493,5.569-5.569,5.569h-0.01c-3.076,0-5.569-2.493-5.569-5.569
		V49.56C276.167,41.368,280.66,34.22,287.316,30.469z"/>
</g>
<path style="fill:#21ABD9;" d="M463.381,406.11C416.862,470.267,341.305,512,256,512c-77.249,0-146.505-34.21-193.442-88.315
	c3.824,0.261,7.941,0.408,12.413,0.408c57.605,0,57.605-24.336,115.2-24.336s57.595,24.336,115.2,24.336
	s57.605-24.336,115.21-24.336C439.86,399.757,452.692,402.484,463.381,406.11z"/>
<g>
</g>
<g>
</g>
<g>
</g>
<g>
</g>
<g>
</g>
<g>
</g>
<g>
</g>
<g>
</g>
<g>
</g>
<g>
</g>
<g>
</g>
<g>
</g>
<g>
</g>
<g>
</g>
<g>
</g>
</svg>
