<?xml version="1.0" encoding="iso-8859-1"?>
<!-- Generator: Adobe Illustrator 19.0.0, SVG Export Plug-In . SVG Version: 6.00 Build 0)  -->
<svg version="1.1" id="Capa_1" xmlns="http://www.w3.org/2000/svg" xmlns:xlink="http://www.w3.org/1999/xlink" x="0px" y="0px"
	 viewBox="0 0 512 512" style="enable-background:new 0 0 512 512;" xml:space="preserve">
<circle style="fill:#474F70;" cx="256" cy="256" r="256"/>
<path style="fill:#55CEED;" d="M96.389,109.615c-17.968,19.591-31.65,41.587-41.085,64.846
	C30.8,234.76,34.784,303.547,66.351,360.712c11.046,20.01,25.479,38.593,43.252,54.895c24.353,22.337,52.449,38.048,82.047,47.241
	c77.536,24.057,165.435,3.336,223.945-60.456c21.893-23.87,37.436-51.326,46.699-80.268c24.926-77.965,4.373-166.78-59.903-225.735
	c-30.772-28.225-67.5-45.876-105.722-53.137C225.422,29.694,149.011,52.242,96.389,109.615z"/>
<g>
	<path style="fill:#FCC72E;" d="M66.351,360.712c11.046,20.01,25.479,38.593,43.252,54.895
		c24.353,22.337,52.449,38.048,82.047,47.241c8.159-36.803,23.328-96.08,66.654-114.804c55.754-24.093,91.98,94.56,157.292,54.348
		c21.893-23.87,37.436-51.326,46.699-80.268c-1.861-20.851-12.573-39.347-27.586-49.851c0,0-55.014-54.418-104.405-26.469
		s-55.411,79.84-94.667,79.47s-46.768-54.775-98.22-26.737C107.543,314.81,82.285,341.334,66.351,360.712z"/>
	<path style="fill:#FCC72E;" d="M296.666,43.253c0,0-0.534,3.811-1.623,9.81c-3.873,21.231-14.751,69.829-33.9,73.882
		c-24.55,5.193-38.883-39.627-78.677-28.612c-3.151,0.869-5.988,2.01-8.574,3.371c-11.684,6.145-18.007,16.876-22.614,28.361
		c-0.01,0.01-0.021,0.031-0.021,0.042c-6.292,15.725-9.401,32.853-18.719,41.594c-0.01,0.01-0.021,0.021-0.042,0.042
		c-1.372,1.299-2.879,2.397-4.543,3.287c-13.61,7.244-47.184,3.654-72.647-0.565c9.432-23.263,23.116-45.259,41.081-64.846
		C149.008,52.245,225.422,29.694,296.666,43.253z"/>
</g>
<path id="SVGCleanerId_0" style="fill:#17A3BF;" d="M296.669,43.253c38.221,7.261,74.949,24.912,105.722,53.137
	c-23.436-21.496-51.409-34.939-80.518-40.469c-54.262-10.327-112.456,6.846-152.533,50.542
	c-13.685,14.92-24.105,31.673-31.291,49.387c-18.661,45.923-15.627,98.311,8.415,141.848c8.412,15.24,19.405,29.393,32.94,41.808
	c18.548,17.012,39.944,28.977,62.487,35.979c59.051,18.322,125.995,2.541,170.557-46.043c16.673-18.179,28.511-39.091,35.565-61.132
	c18.984-59.378,3.33-127.02-45.622-171.919c64.276,58.954,84.83,147.769,59.903,225.735c-9.262,28.942-24.805,56.398-46.699,80.268
	c-58.51,63.792-146.41,84.513-223.945,60.456c-29.6-9.192-57.694-24.903-82.047-47.241c-17.774-16.301-32.206-34.885-43.251-54.895
	c-31.568-57.165-35.551-125.952-11.049-186.251c9.435-23.259,23.117-45.256,41.085-64.846
	C149.011,52.242,225.422,29.694,296.669,43.253z"/>
<g>
	<path id="SVGCleanerId_0_1_" style="fill:#17A3BF;" d="M296.669,43.253c38.221,7.261,74.949,24.912,105.722,53.137
		c-23.436-21.496-51.409-34.939-80.518-40.469c-54.262-10.327-112.456,6.846-152.533,50.542
		c-13.685,14.92-24.105,31.673-31.291,49.387c-18.661,45.923-15.627,98.311,8.415,141.848c8.412,15.24,19.405,29.393,32.94,41.808
		c18.548,17.012,39.944,28.977,62.487,35.979c59.051,18.322,125.995,2.541,170.557-46.043
		c16.673-18.179,28.511-39.091,35.565-61.132c18.984-59.378,3.33-127.02-45.622-171.919c64.276,58.954,84.83,147.769,59.903,225.735
		c-9.262,28.942-24.805,56.398-46.699,80.268c-58.51,63.792-146.41,84.513-223.945,60.456c-29.6-9.192-57.694-24.903-82.047-47.241
		c-17.774-16.301-32.206-34.885-43.251-54.895c-31.568-57.165-35.551-125.952-11.049-186.251
		c9.435-23.259,23.117-45.256,41.085-64.846C149.011,52.242,225.422,29.694,296.669,43.253z"/>
</g>
<g>
	<path style="fill:#F9AC28;" d="M462.296,322.118c-1.462-16.368-8.382-31.284-18.561-42.026c-7.2,17.695-17.616,34.44-31.286,49.345
		c-22.938,25.009-51.805,41.324-82.47,48.778c25.221,22.751,51.435,45.217,85.62,24.177
		C437.487,378.518,453.036,351.063,462.296,322.118z"/>
	<path style="fill:#F9AC28;" d="M146.462,297.698c-0.512-0.932-1.024-1.874-1.515-2.816c-2.398,1.004-4.913,2.224-7.534,3.647
		c-29.875,16.275-55.126,42.798-71.066,62.182c11.05,20.009,25.486,38.593,43.26,54.897c24.353,22.337,52.446,38.048,82.047,47.238
		c5.956-26.853,15.638-65.688,37.283-91.981c-17.77-7.208-34.578-17.641-49.537-31.362
		C165.871,327.092,154.875,312.938,146.462,297.698z"/>
	<path style="fill:#F9AC28;" d="M296.666,43.253c0,0-0.534,3.811-1.623,9.81c-43.939-1.099-88.067,15.285-121.151,48.64
		c-11.684,6.145-18.007,16.876-22.614,28.361c-0.01,0.01-0.021,0.031-0.021,0.042c-5.214,8.27-9.621,16.887-13.201,25.744
		c-2.115,5.204-3.957,10.501-5.517,15.851c-0.01,0.01-0.021,0.021-0.042,0.042c-1.372,1.299-2.879,2.397-4.543,3.287
		c-13.61,7.244-47.184,3.654-72.647-0.565c9.432-23.263,23.116-45.259,41.081-64.846C149.008,52.245,225.422,29.694,296.666,43.253z
		"/>
</g>
<g>
	<circle style="fill:#21ABD9;" cx="356.028" cy="168.626" r="37.689"/>
	<circle style="fill:#21ABD9;" cx="417.27" cy="212.741" r="19.237"/>
</g>
<path style="fill:#FF4F6F;" d="M193.449,76.794c0,16.224-5.497,31.155-14.727,43.052c-3.627,4.676-7.831,8.881-12.507,12.516
	c-11.897,9.238-26.844,14.735-43.076,14.735s-31.17-5.497-43.068-14.735c-16.573-12.856-27.234-32.968-27.234-55.567
	c0-38.832,31.471-70.31,70.303-70.31c0.724,0,1.44,0.008,2.156,0.041C163.133,7.654,193.449,38.686,193.449,76.794z"/>
<path style="fill:#474F70;" d="M159.635,54.039c0-20.15-16.334-36.484-36.484-36.484h-0.009c-3.903,0-7.661,0.612-11.186,1.748
	h-0.001C97.279,24.026,86.66,37.792,86.66,54.039v73.459l2.621-1.38v8.035h64.686v-11.018l5.668,2.678V54.039H159.635z"/>
<path style="fill:#EDEDED;" d="M166.646,126.798c0,1.894-0.146,3.749-0.43,5.562c-11.897,9.238-26.844,14.735-43.076,14.735
	s-31.17-5.497-43.068-14.735c-0.284-1.814-0.432-3.668-0.432-5.562c0-1.399,0.391-2.732,1.098-3.871
	c0.699-1.146,1.707-2.098,2.952-2.732l2.969-1.505l0.219-0.114c7.344-3.725,15.191-6.278,23.257-7.612
	c4.286-0.699,8.636-1.057,13.004-1.057c4.676,0,9.319,0.406,13.898,1.212c1.593,0.277,3.18,0.61,4.749,0.984
	c6.091,1.456,12.003,3.618,17.622,6.473l0.228,0.114l2.96,1.505C165.084,121.455,166.646,124.008,166.646,126.798z"/>
<path style="fill:#EAB689;" d="M137.037,98.5v13.658c0,7.429-6.023,13.452-13.452,13.452l0,0c-7.429,0-13.452-6.023-13.452-13.452
	V98.5H137.037z"/>
<path style="fill:#FECD9C;" d="M134.343,60.379c-10.763-0.701-18.602-5.129-23.682-9.27c-0.001,0.006-0.004,0.024-0.01,0.054
	c0,0.001,0,0.001,0,0.001c-0.16,0.862-2.354,11.259-14.687,13.631v15.028c0,16.542,12.169,29.952,27.18,29.952l0,0
	c15.011,0,27.18-13.41,27.18-29.952v-9.612C148.217,65.142,143.726,60.991,134.343,60.379z"/>
<path style="fill:#EAB689;" d="M109.718,79.823V54.082c-1.488,3.504-5.154,9.059-13.756,10.713v15.028
	c0,16.542,12.169,29.952,27.18,29.952l0,0c2.376,0,4.681-0.339,6.878-0.97C118.341,105.448,109.718,93.746,109.718,79.823z"/>
<g>
	<polygon style="fill:#EDEDED;" points="123.143,184.249 99.565,139.79 123.143,134.153 146.72,139.79 	"/>
	<path style="fill:#EDEDED;" d="M466.087,278.12c0,20.328-9.015,38.559-23.268,50.899c-11.8,10.221-27.192,16.398-44.03,16.398
		c-16.105,0-30.883-5.657-42.47-15.091c-15.152-12.34-24.827-31.143-24.827-52.205c0-37.166,30.131-67.297,67.297-67.297
		S466.087,240.953,466.087,278.12z"/>
</g>
<path style="fill:#474F70;" d="M443.252,323.396c0,1.912-0.146,3.791-0.433,5.624c-11.8,10.221-27.192,16.398-44.03,16.398
	c-16.105,0-30.883-5.657-42.47-15.091c-0.44-2.245-0.667-4.558-0.667-6.93c0-1.406,0.393-2.745,1.105-3.897
	c0.706-1.152,1.726-2.113,2.978-2.745l11.021-5.596c4.797-2.439,9.901-4.225,15.152-5.317c1.553-0.327,3.112-0.586,4.691-0.787
	l5.158-0.667l3.698-0.473l2.672,0.347l0.993,0.126l0.027,0.006l5.158,0.659c1.579,0.2,3.138,0.46,4.691,0.787
	c5.257,1.093,10.354,2.879,15.152,5.317l11.027,5.596C441.673,318.019,443.252,320.59,443.252,323.396z"/>
<path style="fill:#EAB689;" d="M412.997,291.723v14.548c0,7.479-6.064,13.543-13.543,13.543l0,0
	c-7.479,0-13.543-6.064-13.543-13.543v-14.548H412.997z"/>
<path style="fill:#FECD9C;" d="M429.609,244.03l-60.309-3.211v33.64c0,16.654,13.501,30.155,30.155,30.155l0,0
	c16.654,0,30.155-13.501,30.155-30.155L429.609,244.03L429.609,244.03z"/>
<path style="fill:#EAB689;" d="M387.002,274.46v-32.698l-17.703-0.942v33.64c0,16.654,13.501,30.155,30.155,30.155l0,0
	c3.08,0,6.052-0.465,8.851-1.323C395.971,299.51,387.002,288.033,387.002,274.46z"/>
<path style="fill:#474F70;" d="M433.277,242.903v15.191c0,1.235-0.499,2.353-1.308,3.162c-0.832,0.833-1.991,1.337-3.264,1.308
	c-2.445-0.055-4.37-2.116-4.37-4.561v-2.297c0-1.819-0.737-3.464-1.929-4.657c-1.192-1.192-2.838-1.929-4.657-1.929
	c-2.838,0-5.599,0.953-7.811,2.732c-2.868,2.307-6.514,3.69-10.484,3.69c-3.969,0-7.615-1.382-10.483-3.69
	c-0.379-0.306-0.775-0.585-1.185-0.841c-0.004-0.004-0.01-0.007-0.016-0.01c-0.78-0.486-1.608-0.881-2.47-1.182
	c-1.324-0.46-2.723-0.699-4.143-0.699c-3.635,0-6.583,2.952-6.583,6.589v2.386c0,1.234-0.499,2.353-1.31,3.162
	c-0.809,0.809-1.927,1.308-3.162,1.308c-2.469,0-4.47-2.001-4.47-4.472v-15.191c0-13.301,10.781-24.084,24.082-24.084h19.48
	C422.495,218.819,433.277,229.603,433.277,242.903z"/>
<path style="fill:#323B5B;" d="M376.429,242.903c0-13.301,10.781-24.084,24.083-24.084h-10.797
	c-13.301,0-24.082,10.782-24.082,24.084v15.191c0,2.471,2.001,4.472,4.47,4.472c1.235,0,2.353-0.499,3.162-1.308
	c0.81-0.809,1.31-1.928,1.31-3.161v-2.386c0-1.779,0.708-3.392,1.855-4.578v-8.231H376.429z"/>
<g>
	<path style="fill:#474F70;" d="M438.426,266.941h-4.18v-27.923c0-16.48-13.407-29.887-29.887-29.887h-9.81
		c-16.48,0-29.888,13.407-29.888,29.887v27.923h-4.18v-27.923c0-18.785,15.283-34.067,34.068-34.067h9.81
		c18.785,0,34.067,15.282,34.067,34.067V266.941z"/>
	<path style="fill:#474F70;" d="M426.843,292.033h-13.845v-4.18h13.845c2.667,0,4.835-2.169,4.835-4.835v-6.31h4.18v6.31
		C435.857,287.99,431.813,292.033,426.843,292.033z"/>
</g>
<g>
	<path style="fill:#55CEED;" d="M433.966,252.327L433.966,252.327c-2.406,0-4.357,1.951-4.357,4.357v20.513
		c0,2.406,1.951,4.357,4.357,4.357l0,0c4.891,0,8.858-3.965,8.858-8.858v-11.513C442.824,256.293,438.858,252.327,433.966,252.327z"
		/>
	<path style="fill:#55CEED;" d="M364.942,252.327L364.942,252.327c2.406,0,4.357,1.951,4.357,4.357v20.513
		c0,2.406-1.951,4.357-4.357,4.357l0,0c-4.891,0-8.858-3.965-8.858-8.858v-11.513C356.086,256.293,360.051,252.327,364.942,252.327z
		"/>
	<circle style="fill:#55CEED;" cx="410.906" cy="290.471" r="4.702"/>
</g>
<polygon style="fill:#474F70;" points="398.789,379.642 375.212,335.183 398.789,329.255 422.368,335.183 "/>
<g>
</g>
<g>
</g>
<g>
</g>
<g>
</g>
<g>
</g>
<g>
</g>
<g>
</g>
<g>
</g>
<g>
</g>
<g>
</g>
<g>
</g>
<g>
</g>
<g>
</g>
<g>
</g>
<g>
</g>
</svg>
