<?xml version="1.0" encoding="iso-8859-1"?>
<!-- Generator: Adobe Illustrator 19.0.0, SVG Export Plug-In . SVG Version: 6.00 Build 0)  -->
<svg version="1.1" id="Capa_1" xmlns="http://www.w3.org/2000/svg" xmlns:xlink="http://www.w3.org/1999/xlink" x="0px" y="0px"
	 viewBox="0 0 512.001 512.001" style="enable-background:new 0 0 512.001 512.001;" xml:space="preserve">
<path style="fill:#FCC72E;" d="M511.191,256.001c0,47.77-13.103,92.483-35.929,130.739c-6.176,10.349-13.061,20.228-20.594,29.565
	c-25.351,31.454-58.004,56.773-95.373,73.381c-1.262,0.553-2.535,1.106-3.808,1.648h-0.01c-30.682,13.04-64.43,20.26-99.88,20.26
	c-141.161,0-255.594-114.433-255.594-255.594c0-23.702,3.224-46.664,9.274-68.447c4.59-16.577,10.818-32.466,18.486-47.499
	c21.95-43.065,55.751-79.067,97.105-103.719C163.114,13.51,207.827,0.407,255.597,0.407
	C396.758,0.407,511.191,114.84,511.191,256.001z"/>
<path style="fill:#FFD367;" d="M447.871,192.68c0,35.935-9.857,69.572-27.028,98.349c-4.646,7.785-9.825,15.217-15.492,22.241
	c-19.07,23.662-43.635,42.708-71.746,55.202c-0.949,0.416-1.907,0.831-2.865,1.24h-0.008c-23.081,9.81-48.469,15.241-75.135,15.241
	c-106.189,0-192.273-86.083-192.273-192.273c0-17.83,2.426-35.104,6.977-51.49c3.453-12.47,8.138-24.422,13.906-35.731
	c16.512-32.396,41.939-59.479,73.048-78.024c28.773-17.172,62.409-27.028,98.343-27.028C361.788,0.407,447.871,86.49,447.871,192.68
	z"/>
<path style="fill:#55CEED;" d="M475.262,386.74c-27.667,46.393-69.615,83.282-119.774,104.595
	c-8.69-0.553-17.568-1.638-26.613-3.255c-67.237-11.976-142.84-52.684-207.667-117.5C64.205,313.567,25.834,248.208,9.278,187.554
	c-2.274-8.315-4.131-16.535-5.571-24.641C-6.371,106.369,3.874,55.741,37.195,22.43l11.528-11.517
	c1.221-1.221,2.504-2.326,3.85-3.328c14.032-10.578,34.083-9.462,46.873,3.328l66.194,66.194
	c12.78,12.79,13.896,32.831,3.328,46.873c-1.002,1.346-2.107,2.629-3.328,3.85l-49.564,49.564
	c19.394,37.473,48.219,76.845,84.826,113.473l0.021,0.01c36.628,36.618,75.99,65.432,113.473,84.826l49.564-49.564
	c1.221-1.21,2.504-2.316,3.85-3.328c14.042-10.558,34.083-9.441,46.873,3.338L475.262,386.74z"/>
<path style="fill:#17A3BF;" d="M359.296,489.686c-1.262,0.553-2.535,1.106-3.808,1.648h-0.01c-8.68-0.553-17.568-1.648-26.603-3.255
	c-67.237-11.976-142.84-52.684-207.667-117.5C64.206,313.567,25.835,248.208,9.279,187.554c-2.274-8.315-4.131-16.535-5.571-24.641
	C-6.37,106.369,3.875,55.741,37.196,22.43l11.528-11.517c1.221-1.221,2.504-2.326,3.85-3.328C63.173-0.396,77.194-1.711,88.93,3.62
	c-3.255,1.189-6.374,2.848-9.233,5.008c-1.346,1.002-2.629,2.107-3.85,3.328L64.32,23.473
	C35.777,52.016,24.166,93.266,27.765,140.055c0.595,7.824,1.617,15.805,3.067,23.901c11.966,67.226,52.684,142.84,117.5,207.667
	c64.827,64.816,140.43,105.524,207.667,117.5C357.094,489.321,358.2,489.509,359.296,489.686z"/>
<g>
	<path style="fill:#474F70;" d="M99.443,10.916l66.193,66.193c12.784,12.784,13.898,32.827,3.334,46.873
		c-1.004,1.343-2.109,2.626-3.327,3.843l-25.082,25.082c1.217-1.217,2.323-2.501,3.327-3.843
		c10.564-14.045,9.45-34.088-3.334-46.873L74.363,35.997c-12.363-12.363-31.5-13.824-45.449-4.36c2.582-3.202,5.34-6.27,8.277-9.207
		l11.537-11.523c1.217-1.217,2.501-2.323,3.843-3.327C66.609-2.99,86.652-1.876,99.443,10.916z"/>
	<path style="fill:#474F70;" d="M475.262,386.74c-6.176,10.349-13.061,20.228-20.594,29.565l-65.077-65.077
		c-12.78-12.78-32.82-13.896-46.873-3.328c-1.335,1.001-2.619,2.107-3.839,3.328l25.079-25.09c1.221-1.21,2.504-2.316,3.85-3.328
		c14.042-10.558,34.083-9.441,46.873,3.338L475.262,386.74z"/>
</g>
<polygon style="fill:#FF4F6F;" points="375.823,127.51 380.186,6.574 259.25,10.937 288.215,39.902 172.406,155.711 
	231.049,214.354 346.858,98.545 "/>
<polygon style="fill:#5CC693;" points="308.582,166.59 304.221,287.525 425.156,283.164 396.191,254.198 512.001,138.388 
	453.358,79.745 337.548,195.555 "/>
<g>
</g>
<g>
</g>
<g>
</g>
<g>
</g>
<g>
</g>
<g>
</g>
<g>
</g>
<g>
</g>
<g>
</g>
<g>
</g>
<g>
</g>
<g>
</g>
<g>
</g>
<g>
</g>
<g>
</g>
</svg>
