<?xml version="1.0" encoding="iso-8859-1"?>
<!-- Generator: Adobe Illustrator 19.0.0, SVG Export Plug-In . SVG Version: 6.00 Build 0)  -->
<svg version="1.1" id="Capa_1" xmlns="http://www.w3.org/2000/svg" xmlns:xlink="http://www.w3.org/1999/xlink" x="0px" y="0px"
	 viewBox="0 0 512 512" style="enable-background:new 0 0 512 512;" xml:space="preserve">
<circle style="fill:#535E8A;" cx="256" cy="256" r="256"/>
<path style="fill:#21ABD9;" d="M512,256H0c0-13.291,1.014-26.352,2.968-39.1c0.606-3.918,1.296-7.805,2.069-11.661
	c6.98-34.732,20.992-66.926,40.49-95.013c9.185-13.239,19.581-25.558,31.033-36.801c2.382-2.351,4.807-4.639,7.272-6.886
	C129.296,25.203,189.701,0,256,0c59.016,0,113.361,19.968,156.662,53.52c20.699,16.029,38.86,35.161,53.812,56.707
	c13.845,19.958,24.931,41.984,32.695,65.515C507.496,200.986,512,227.976,512,256z"/>
<polygon style="fill:#474F70;" points="471.064,278.835 295.973,278.835 295.973,147.723 431.234,147.723 "/>
<polygon style="fill:#535E8A;" points="380.549,147.723 338.898,309.92 471.064,278.835 431.234,147.723 "/>
<path style="fill:#FD8B59;" d="M481.687,241.601L444.343,149.4c-3.688-9.101-12.528-15.057-22.35-15.057H275.822v257.975h196.901
	c3.897-6.175,7.534-12.528,10.898-19.048V251.496C483.621,248.111,482.962,244.736,481.687,241.601z M428.972,251.695H321.567
	c-10.156,0-18.38-8.234-18.38-18.38v-52.328c0-10.637,8.62-19.268,19.268-19.268H406.8c7.847,0,14.911,4.765,17.857,12.037
	l21.326,52.663C450.884,238.498,442.002,251.695,428.972,251.695z"/>
<path style="fill:#FF4F6F;" d="M275.811,106.82v285.497H39.278C14.388,352.852,0,306.103,0,256c0-13.291,1.014-26.352,2.968-39.1
	c0.606-3.918,1.296-7.805,2.069-11.661c6.98-34.732,20.992-66.926,40.49-95.013c9.185-13.239,19.581-25.558,31.033-36.801h165.846
	C260.859,73.425,275.811,88.377,275.811,106.82z"/>
<path style="fill:#EDEDED;" d="M487.215,366.017c-2.529,5.329-5.245,10.543-8.14,15.653c-2.027,3.605-4.148,7.158-6.353,10.647
	h-71.837c-64.366,0-7.408-19.372-10.313-26.791h93.048C484.864,365.526,486.066,365.693,487.215,366.017z"/>
<path style="fill:#C2C2C2;" d="M479.075,381.67c-2.027,3.605-4.148,7.158-6.353,10.647h-70.207V381.67H479.075z"/>
<path style="fill:#FD7034;" d="M395.254,392.318H275.82V172.635c0.458,30.867,7.388,169.126,94.123,196.515
	C393.769,376.675,399.783,384.608,395.254,392.318z"/>
<path style="fill:#E33958;" d="M197.089,392.317H39.278C14.388,352.852,0,306.103,0,256c0-13.291,1.014-26.352,2.968-39.1
	c0.606-3.918,1.296-7.805,2.069-11.661C35.934,287.775,93.414,380.656,197.089,392.317z"/>
<circle style="fill:#474F70;" cx="380.364" cy="392.474" r="59.695"/>
<circle style="fill:#C2C2C2;" cx="380.364" cy="392.474" r="34.544"/>
<path style="fill:#474F70;" d="M118.262,392.464c0,23.625-13.709,44.042-33.625,53.718c-17.471-15.747-32.758-33.876-45.359-53.864
	c-8.558-13.573-15.872-28.003-21.797-43.133c10.7-10.167,25.172-16.405,41.096-16.405
	C91.544,332.779,118.262,359.508,118.262,392.464z"/>
<path style="fill:#C2C2C2;" d="M93.132,392.464c0,16.896-12.121,30.95-28.139,33.959c-4.88-5.444-9.509-11.097-13.887-16.938
	c-4.169-5.548-8.119-11.274-11.828-17.168c-0.533-0.836-1.055-1.682-1.578-2.529c-3.051-4.974-5.945-10.062-8.652-15.256
	c6.06-9.958,17.021-16.603,29.529-16.603C77.657,357.93,93.132,373.394,93.132,392.464z"/>
<path style="fill:#474F70;" d="M313.987,288.632h28.588c3.271,0,5.921-2.651,5.921-5.921v-2.185c0-3.271-2.651-5.921-5.921-5.921
	h-28.588c-3.271,0-5.921,2.651-5.921,5.921v2.185C308.065,285.981,310.716,288.632,313.987,288.632z"/>
<path style="fill:#FCC72E;" d="M450.91,330.818h32.711v-27.864h-38.098c-5.867,0-10.026,5.725-8.213,11.305l2.841,8.743
	C441.666,327.662,446.009,330.818,450.91,330.818z"/>
<g>
	<path style="fill:#474F70;" d="M182.718,253.202h-12.404v-43.896c0-20.459-13.736-37.103-30.621-37.103h-33.1
		c-16.885,0-30.621,16.645-30.621,37.103v43.896H63.568v-43.896c0-27.298,19.3-49.507,43.025-49.507h33.1
		c23.723,0,43.025,22.209,43.025,49.507L182.718,253.202L182.718,253.202z"/>
	<path style="fill:#474F70;" d="M155.556,305.521h-21.325v-6.453h21.325c5.32,0,9.649-4.328,9.649-9.649v-20.486h6.453v20.486
		C171.658,298.298,164.435,305.521,155.556,305.521z"/>
	<path style="fill:#474F70;" d="M175.39,224.212h-8.272c-4.568,0-8.272,3.703-8.272,8.272v36.449c0,4.568,3.703,8.272,8.272,8.272
		h8.272V224.212z"/>
</g>
<path style="fill:#EDEDED;" d="M176.704,224.212L176.704,224.212c-4.568,0-8.272,3.703-8.272,8.272v36.449
	c0,4.568,3.703,8.272,8.272,8.272l0,0c8.454,0,15.309-6.853,15.309-15.309v-22.375C192.013,231.066,185.158,224.212,176.704,224.212
	z"/>
<path style="fill:#474F70;" d="M69.267,224.212h8.272c4.568,0,8.272,3.703,8.272,8.272v36.449c0,4.568-3.703,8.272-8.272,8.272
	h-8.272V224.212z"/>
<path style="fill:#EDEDED;" d="M67.954,224.212L67.954,224.212c4.568,0,8.272,3.703,8.272,8.272v36.449
	c0,4.568-3.703,8.272-8.272,8.272l0,0c-8.454,0-15.309-6.853-15.309-15.309v-22.375C52.645,231.066,59.5,224.212,67.954,224.212z"/>
<g>
	<path style="fill:#C2C2C2;" d="M59.959,261.896V239.52c0-6.985,4.679-12.873,11.073-14.71c-0.952-0.382-1.989-0.599-3.078-0.599
		l0,0c-8.454,0-15.309,6.853-15.309,15.309v22.377c0,8.454,6.853,15.309,15.309,15.309l0,0c1.089,0,2.126-0.216,3.078-0.599
		C64.638,274.77,59.959,268.882,59.959,261.896z"/>
	<circle style="fill:#C2C2C2;" cx="134.228" cy="302.299" r="7.098"/>
</g>
<g>
</g>
<g>
</g>
<g>
</g>
<g>
</g>
<g>
</g>
<g>
</g>
<g>
</g>
<g>
</g>
<g>
</g>
<g>
</g>
<g>
</g>
<g>
</g>
<g>
</g>
<g>
</g>
<g>
</g>
</svg>
