<?xml version="1.0" encoding="iso-8859-1"?>
<!-- Generator: Adobe Illustrator 19.0.0, SVG Export Plug-In . SVG Version: 6.00 Build 0)  -->
<svg version="1.1" id="Capa_1" xmlns="http://www.w3.org/2000/svg" xmlns:xlink="http://www.w3.org/1999/xlink" x="0px" y="0px"
	 viewBox="0 0 512 512" style="enable-background:new 0 0 512 512;" xml:space="preserve">
<circle style="fill:#FF4F6F;" cx="256" cy="256" r="256"/>
<circle style="fill:#FF6B86;" cx="256" cy="201.895" r="201.895"/>
<path style="fill:#F9AC28;" d="M261.927,0h-11.853c-12.519,0-22.667,10.148-22.667,22.667v84.559h57.187V22.667
	C284.594,10.148,274.446,0,261.927,0z"/>
<path style="fill:#FCC72E;" d="M256,64.335L256,64.335c-78.96,0-142.968,64.009-142.968,142.968v164.414h285.936V207.304
	C398.968,128.345,334.959,64.335,256,64.335z"/>
<g>
	<circle style="fill:#F9AC28;" cx="256" cy="428.91" r="53.075"/>
	<path style="fill:#F9AC28;" d="M253.998,64.372c-41.997,1.966-75.737,65.229-75.737,142.933v164.414h-65.229V207.304
		C113.032,129.029,175.973,65.409,253.998,64.372z"/>
</g>
<path style="fill:#FCC72E;" d="M398.968,428.904H113.032c-26.649,0-48.251-21.603-48.251-48.251l0,0
	c0-26.649,21.603-48.251,48.251-48.251h285.936c26.649,0,48.251,21.603,48.251,48.251l0,0
	C447.22,407.301,425.617,428.904,398.968,428.904z"/>
<path style="fill:#F9AC28;" d="M142.519,380.653c0-26.649,21.603-48.251,48.251-48.251h-77.739
	c-26.649,0-48.251,21.603-48.251,48.251c0,26.648,21.603,48.251,48.251,48.251h77.739
	C164.122,428.904,142.519,407.301,142.519,380.653z"/>
<g>
	<path style="fill:#FFD367;" d="M362.583,293.897L362.583,293.897c-8.079,0-14.629-6.549-14.629-14.629v-77.322
		c0-8.079,6.549-14.629,14.629-14.629l0,0c8.079,0,14.629,6.549,14.629,14.629v77.322
		C377.211,287.348,370.662,293.897,362.583,293.897z"/>
	<circle style="fill:#FFD367;" cx="389.747" cy="380.625" r="25.078"/>
</g>
<g>
</g>
<g>
</g>
<g>
</g>
<g>
</g>
<g>
</g>
<g>
</g>
<g>
</g>
<g>
</g>
<g>
</g>
<g>
</g>
<g>
</g>
<g>
</g>
<g>
</g>
<g>
</g>
<g>
</g>
</svg>
