<?xml version="1.0" encoding="iso-8859-1"?>
<!-- Generator: Adobe Illustrator 19.0.0, SVG Export Plug-In . SVG Version: 6.00 Build 0)  -->
<svg version="1.1" id="Capa_1" xmlns="http://www.w3.org/2000/svg" xmlns:xlink="http://www.w3.org/1999/xlink" x="0px" y="0px"
	 viewBox="0 0 512 512" style="enable-background:new 0 0 512 512;" xml:space="preserve">
<circle style="fill:#55CEED;" cx="256" cy="256" r="256"/>
<path style="fill:#FCC72E;" d="M69.995,381.104l20.895-67.163c-12.25-27.02-19.074-57.025-19.074-88.624
	c0-118.668,96.2-214.867,214.867-214.867s214.868,96.2,214.868,214.867s-96.2,214.867-214.868,214.867
	c-60.921,0-115.915-25.359-155.017-66.091L69.995,381.104z"/>
<path style="fill:#474F70;" d="M441.516,201.19l-26.113-1.723c-3.452-0.23-6.4-2.628-7.277-5.977
	c-2.94-11.204-7.38-21.799-13.089-31.548c-1.752-2.993-1.374-6.771,0.913-9.385l17.263-19.713c2.807-3.208,2.651-8.04-0.364-11.048
	l-8.152-8.152l-14.545-14.545c-3.015-3.015-7.848-3.17-11.048-0.364l-19.698,17.27c-2.613,2.295-6.393,2.666-9.393,0.913
	c-4.737-2.777-9.667-5.25-14.775-7.395c-5.405-2.28-11.011-4.188-16.78-5.695c-1.975-0.519-3.631-1.76-4.685-3.393
	c-0.75-1.136-1.203-2.465-1.292-3.883l-1.723-26.113c-0.282-4.248-3.809-7.551-8.071-7.551h-32.083
	c-4.255,0-7.789,3.304-8.071,7.551l-0.594,9.073l-1.121,17.04c-0.23,3.46-2.636,6.4-5.984,7.277
	c-11.204,2.933-21.799,7.373-31.54,13.082c-2.993,1.76-6.779,1.381-9.393-0.906l-19.706-17.27c-3.208-2.807-8.04-2.651-11.055,0.364
	l-16.371,16.386l-6.318,6.311c-3.015,3.007-3.17,7.848-0.364,11.048l17.27,19.706c2.287,2.613,2.658,6.4,0.906,9.393
	c-5.725,9.756-10.157,20.344-13.098,31.548c-0.876,3.349-3.816,5.747-7.277,5.977l-26.113,1.723
	c-4.255,0.282-7.559,3.809-7.559,8.071v32.075c0,4.262,3.304,7.789,7.559,8.071l26.113,1.723c3.46,0.23,6.4,2.628,7.277,5.977
	c2.94,11.212,7.373,21.806,13.098,31.562c1.752,2.993,1.381,6.778-0.913,9.393l-17.263,19.69c-2.814,3.208-2.651,8.042,0.356,11.055
	l22.467,22.475l0.23,0.23c3.015,3.007,7.841,3.163,11.048,0.364l14.924-13.075l4.789-4.195c2.613-2.295,6.393-2.666,9.393-0.906
	c3.156,1.848,6.4,3.564,9.727,5.138c6.942,3.282,14.241,5.955,21.814,7.937c0.015,0,0.022,0.007,0.038,0.015
	c3.333,0.891,5.717,3.823,5.948,7.269l1.723,26.128c0.275,4.246,3.809,7.559,8.071,7.559h32.075c4.262,0,7.789-3.311,8.071-7.559
	l1.723-26.128c0.223-3.46,2.628-6.4,5.977-7.284c2.74-0.72,5.435-1.522,8.093-2.42c8.241-2.754,16.089-6.34,23.469-10.662
	c2.993-1.752,6.771-1.381,9.385,0.906l19.698,17.263v0.015c1.53,1.336,3.43,1.997,5.324,1.997c2.079,0,4.143-0.794,5.717-2.369
	l22.705-22.705c3.015-3.007,3.17-7.841,0.364-11.048l-17.263-19.698c-2.287-2.606-2.666-6.393-0.913-9.385
	c5.709-9.756,10.15-20.351,13.089-31.562c0.876-3.349,3.823-5.747,7.277-5.977l26.113-1.723c4.255-0.282,7.559-3.809,7.559-8.071
	V209.26C449.074,204.999,445.77,201.472,441.516,201.19z M343.888,226.412c-0.579,30.59-25.549,55.545-56.138,56.124
	c-3.698,0.067-7.321-0.208-10.832-0.817c-7.892-1.351-15.228-4.313-21.658-8.539c-7.187-4.722-13.246-11.018-17.686-18.399
	c-5.353-8.895-8.353-19.371-8.145-30.56c0.438-23.574,15.339-43.806,36.151-52.107c6.207-2.487,12.948-3.913,19.981-4.039
	c1.767-0.029,3.519,0.015,5.25,0.148c8.033,0.572,15.614,2.807,22.393,6.371C331.749,184.321,344.312,203.93,343.888,226.412z"/>
<polygon style="fill:#FCC72E;" points="101.358,277.179 53.608,412.771 179.726,369.13 "/>
<g>
</g>
<g>
</g>
<g>
</g>
<g>
</g>
<g>
</g>
<g>
</g>
<g>
</g>
<g>
</g>
<g>
</g>
<g>
</g>
<g>
</g>
<g>
</g>
<g>
</g>
<g>
</g>
<g>
</g>
</svg>
