<?xml version="1.0" encoding="iso-8859-1"?>
<!-- Generator: Adobe Illustrator 19.0.0, SVG Export Plug-In . SVG Version: 6.00 Build 0)  -->
<svg version="1.1" id="Capa_1" xmlns="http://www.w3.org/2000/svg" xmlns:xlink="http://www.w3.org/1999/xlink" x="0px" y="0px"
	 viewBox="0 0 512 512" style="enable-background:new 0 0 512 512;" xml:space="preserve">
<path style="fill:#FD7034;" d="M512,256c0,15.788-1.431,31.253-4.169,46.258c-0.031,0.178-0.063,0.366-0.104,0.543
	c-6.625,35.882-20.741,69.13-40.657,98.085c-6.384,9.289-13.364,18.129-20.898,26.478c-22.215,24.66-49.162,44.962-79.412,59.507
	c-6.802,3.271-13.772,6.248-20.898,8.923c-11.494,4.305-23.374,7.816-35.589,10.449c-11.191,2.403-22.653,4.096-34.325,4.995
	C269.364,511.739,262.708,512,256,512c-6.698,0-13.333-0.251-19.905-0.763c-1.724-0.136-3.448-0.282-5.172-0.449
	c-4.566-0.449-9.091-1.003-13.584-1.693c-72.286-10.951-134.656-52.13-173.808-110.247c-4.274-6.343-8.276-12.884-11.975-19.613
	C11.442,342.674,0,300.68,0,256C0,114.615,114.615,0,256,0S512,114.615,512,256z"/>
<path style="fill:#FD8B59;" d="M463.553,207.553c0,12.801-1.161,25.339-3.38,37.503c-0.025,0.144-0.051,0.297-0.085,0.441
	c-5.371,29.091-16.816,56.048-32.962,79.523c-5.176,7.532-10.836,14.699-16.943,21.466c-18.011,19.993-39.859,36.453-64.383,48.246
	c-5.515,2.652-11.166,5.066-16.943,7.235c-9.318,3.49-18.951,6.336-28.854,8.472c-9.073,1.949-18.366,3.321-27.829,4.049
	c-5.337,0.406-10.733,0.619-16.172,0.619c-5.43,0-10.809-0.204-16.138-0.619c-1.398-0.11-2.795-0.229-4.193-0.365
	c-3.702-0.365-7.371-0.813-11.013-1.372c-58.606-8.879-109.173-42.265-140.916-89.384c-3.465-5.142-6.709-10.446-9.708-15.901
	c-16.308-29.642-25.584-63.69-25.584-99.913C48.447,92.925,141.372,0,256,0S463.553,92.925,463.553,207.553z"/>
<path style="fill:#474F70;" d="M305.3,194.498h-14.503v-57.422c0-67.586-54.986-122.572-122.572-122.572
	S45.654,69.49,45.654,137.076v57.422H31.151v-57.422c0-75.583,61.491-137.075,137.075-137.075S305.3,61.492,305.3,137.076V194.498z"
	/>
<path style="fill:#55CEED;" d="M310.272,394.449v111.794c-11.191,2.403-22.653,4.096-34.325,4.995h-39.852
	c-1.724-0.136-3.448-0.282-5.172-0.449c-4.566-0.449-9.091-1.003-13.584-1.693c-80.175-12.142-148.146-61.471-185.783-129.86
	c2.111-2.602,4.765-4.786,7.858-6.353l66.226-33.604l62.579-8.014l8.673,1.108h0.01l53.917,6.907l66.215,33.604
	C305.152,377.01,310.272,385.337,310.272,394.449z"/>
<path style="fill:#17A3BF;" d="M176.891,332.372l-53.906,6.907l-66.215,33.604c-8.119,4.127-13.239,12.455-13.239,21.567v4.399
	c-4.274-6.343-8.276-12.884-11.975-19.613c2.111-2.602,4.765-4.786,7.858-6.353l66.226-33.604l62.579-8.014L176.891,332.372z"/>
<rect x="125.743" y="291.725" style="fill:#FECD9C;" width="87.845" height="56.477"/>
<g>
	<circle style="fill:#EAB689;" cx="73.404" cy="196.629" r="27.147"/>
	<circle style="fill:#EAB689;" cx="263.053" cy="196.629" r="27.147"/>
	<path style="fill:#EAB689;" d="M148.906,291.72L148.906,291.72l-23.16-0.001v0.001h-0.001v23.884c0,0,0.001,0,0.001,0.001v23.631
		h23.16l0,0c0-8.001,6.663-14.434,14.655-14.058c1.544,0.073,3.099,0.11,4.661,0.11c16.373,0,31.808-4.026,45.368-11.137v-22.431
		h-64.684V291.72z"/>
</g>
<path style="fill:#FECD9C;" d="M266.022,119.133L70.428,108.721v109.102c0,54.012,43.785,97.796,97.796,97.796l0,0
	c54.012,0,97.796-43.785,97.796-97.796v-98.69H266.022z"/>
<path style="fill:#EAB689;" d="M182.16,64.25l-59.914,5.187c-9.14,0-17.566,3.049-24.324,8.179h-4.054v3.521
	c-7.347,7.297-11.897,17.404-11.897,28.575L66.6,164.437c0,7.123-2.937,13.039,3.829,14.266v39.12
	c0,54.012,43.785,97.796,97.796,97.796l0,0c3.646,0,7.242-0.206,10.783-0.595c-48.937-5.369-87.013-46.835-87.013-97.202v-57.707
	c0-9.025,7.024-16.663,16.041-17.018c0.284-0.012,0.569-0.017,0.856-0.017l0,0c9.202,0,18.159,3.09,25.329,8.858
	c9.306,7.486,21.226,13.534,34.003,11.965c25.448-3.122,24.697-19.932,34.003-27.418c7.171-5.768,16.127-8.858,25.329-8.858h0.397
	c11.763,0,20.946-4.393,20.964,7.371c0.012,7.919,6.251,44.056,14.17,44.234c4.133,0.093,7.891-1.545,10.587-4.245
	c2.623-2.623-0.714-6.247-0.714-10.254l-3.568-13.372"/>
<path style="fill:#474F70;" d="M277.921,115.479v49.265c0,4.006-1.622,7.631-4.244,10.254c-2.697,2.702-6.455,4.338-10.586,4.244
	c-7.929-0.179-14.171-6.862-14.171-14.791v-7.447c0-5.901-2.39-11.236-6.257-15.103c-3.867-3.867-9.202-6.257-15.103-6.257
	c-9.202,0-18.157,3.089-25.331,8.861c-9.302,7.483-21.127,11.964-34.004,11.964c-12.872,0-24.697-4.483-33.999-11.964
	c-1.23-0.992-2.514-1.899-3.843-2.727c-0.015-0.015-0.034-0.025-0.049-0.034c-2.529-1.577-5.216-2.856-8.012-3.833
	c-4.293-1.492-8.83-2.266-13.437-2.266c-11.791,0-21.35,9.574-21.35,21.37v7.735c0,4.001-1.622,7.631-4.25,10.254
	c-2.623,2.623-6.247,4.244-10.254,4.244c-8.007,0-14.498-6.49-14.498-14.503V115.48c0-43.137,34.965-78.107,78.103-78.107h63.178
	C242.95,37.372,277.921,72.342,277.921,115.479z"/>
<path style="fill:#323B5B;" d="M112.988,115.479c0-43.137,34.965-78.107,78.102-78.107h-54.455
	c-43.137,0-78.103,34.971-78.103,78.107v49.266c0,8.012,6.491,14.503,14.498,14.503c4.006,0,7.631-1.622,10.254-4.244
	c2.628-2.623,4.25-6.253,4.25-10.254v-7.734c0-11.796,9.56-21.37,21.35-21.37c1.377,0,2.744,0.091,4.104,0.228L112.988,115.479
	L112.988,115.479z"/>
<path style="fill:#EAB689;" d="M146.998,191.972c-0.544,4.508-4.523,7.816-9.063,7.816h-23.594c-2.464,0-4.696-0.997-6.312-2.613
	c-1.851-1.856-2.896-4.521-2.545-7.421c0.544-4.508,4.523-7.816,9.063-7.816h23.594c2.464,0,4.696,0.997,6.312,2.613
	C146.302,186.407,147.349,189.073,146.998,191.972z"/>
<path style="fill:#FFFFFF;" d="M146.998,198.231c-0.544,4.508-4.523,7.816-9.063,7.816h-23.594c-2.464,0-4.696-0.997-6.312-2.613
	c-1.851-1.856-2.896-4.521-2.545-7.421c0.544-4.508,4.523-7.816,9.063-7.816h23.594c2.464,0,4.696,0.997,6.312,2.613
	C146.302,192.666,147.349,195.331,146.998,198.231z"/>
<path style="fill:#EAB689;" d="M228.38,181.939h-23.799c-4.929,0-8.924,3.996-8.924,8.924l0,0c0,4.929,3.996,8.924,8.924,8.924
	h23.799c4.929,0,8.924-3.996,8.924-8.924l0,0C237.305,185.934,233.31,181.939,228.38,181.939z"/>
<path style="fill:#FFFFFF;" d="M228.38,188.197h-23.799c-4.929,0-8.924,3.996-8.924,8.924l0,0c0,4.929,3.996,8.924,8.924,8.924
	h23.799c4.929,0,8.924-3.996,8.924-8.924l0,0C237.305,192.192,233.31,188.197,228.38,188.197z"/>
<path style="fill:#EAB689;" d="M236.1,164.11h-39.238c-2.778,0-5.03,2.252-5.03,5.03l0,0c0,2.778,2.252,5.03,5.03,5.03H236.1
	c2.778,0,5.03-2.252,5.03-5.03l0,0C241.13,166.361,238.878,164.11,236.1,164.11z"/>
<g>
	<path style="fill:#474F70;" d="M138.111,194.177c0,6.555-5.315,11.87-11.87,11.87s-11.87-5.315-11.87-11.87
		c0-2.182,0.59-4.225,1.622-5.98h20.498C137.521,189.952,138.111,191.995,138.111,194.177z"/>
	<path style="fill:#474F70;" d="M228.352,194.177c0,6.555-5.315,11.87-11.87,11.87c-6.555,0-11.87-5.315-11.87-11.87
		c0-2.182,0.59-4.225,1.622-5.98h20.498C227.762,189.952,228.352,191.995,228.352,194.177z"/>
	<path style="fill:#474F70;" d="M261.092,276.624h-31.951v-9.668h31.951c7.97,0,14.456-6.486,14.456-14.456v-30.695h9.668V252.5
		C285.217,265.801,274.394,276.624,261.092,276.624z"/>
</g>
<g>
	<path style="fill:#EAB689;" d="M106.79,164.11c-2.77,0-5.145,2.167-5.196,4.936c-0.051,2.821,2.219,5.124,5.029,5.124h27.567
		c10.945,0,19.819,8.873,19.819,19.819v49.101h4.995c6.416,0,11.616-5.2,11.616-11.616v-52.229c0-8.358-6.776-15.134-15.134-15.134
		H106.79z"/>
	<path style="fill:#EAB689;" d="M185.002,259.527c-10.894,3.589-22.66,3.589-33.554,0c-2.911-0.949-6.237,0.188-7.532,2.913l0,0
		c-1.294,2.715,0.494,6.257,4.118,7.448c13.11,4.32,27.271,4.32,40.38,0c3.625-1.19,5.41-4.734,4.118-7.448l0,0
		C191.24,259.714,187.912,258.579,185.002,259.527z"/>
	<path style="fill:#EAB689;" d="M174.131,280.403h-11.814c-3.012,0-5.454,2.442-5.454,5.454l0,0c0,3.012,2.442,5.454,5.454,5.454
		h11.814c3.012,0,5.454-2.442,5.454-5.454l0,0C179.586,282.844,177.144,280.403,174.131,280.403z"/>
</g>
<g>
	<path style="fill:#17A3BF;" d="M119.901,321.547l43.35,18.579c4.468,1.915,6.301,7.274,3.939,11.523l-14.039,25.271
		c-2.724,4.903-9.454,5.687-13.233,1.543l-35.726-39.184c-3.294-3.612-2.717-9.286,1.237-12.161l6.415-4.665
		C114.183,320.752,117.244,320.409,119.901,321.547z"/>
	<path style="fill:#17A3BF;" d="M216.55,321.547l-43.351,18.579c-4.468,1.915-6.301,7.274-3.939,11.523l14.039,25.271
		c2.724,4.903,9.454,5.687,13.233,1.543l35.726-39.184c3.294-3.612,2.717-9.286-1.237-12.161l-6.415-4.665
		C222.268,320.752,219.207,320.409,216.55,321.547z"/>
</g>
<path style="fill:#474F70;" d="M290.81,154.798h-11.394c-7.398,0-13.395,5.997-13.395,13.395v52.611
	c0,7.398,5.997,13.395,13.395,13.395h11.394V154.798z"/>
<path style="fill:#55CEED;" d="M292.777,154.798L292.777,154.798c-6.845,0-12.394,5.549-12.394,12.394v54.612
	c0,6.845,5.549,12.394,12.394,12.394l0,0c12.667,0,22.937-10.269,22.937-22.937v-33.526
	C315.714,165.068,305.445,154.798,292.777,154.798z"/>
<path style="fill:#474F70;" d="M45.64,154.798h11.394c7.398,0,13.395,5.997,13.395,13.395v52.611
	c0,7.398-5.997,13.395-13.395,13.395H45.64V154.798z"/>
<path style="fill:#55CEED;" d="M43.674,154.798L43.674,154.798c6.845,0,12.394,5.549,12.394,12.394v54.612
	c0,6.845-5.549,12.394-12.394,12.394l0,0c-12.667,0-22.937-10.269-22.937-22.937v-33.526
	C20.736,165.068,31.005,154.798,43.674,154.798z"/>
<path style="fill:#17A3BF;" d="M31.882,211.261v-33.526c0-10.427,6.96-19.223,16.485-22.011c-1.448-0.593-3.032-0.927-4.694-0.927
	l0,0c-12.667,0-22.937,10.269-22.937,22.937v33.526c0,12.667,10.269,22.937,22.937,22.937l0,0c1.662,0,3.245-0.332,4.694-0.927
	C38.842,230.484,31.882,221.688,31.882,211.261z"/>
<circle style="fill:#55CEED;" cx="229.136" cy="271.788" r="10.636"/>
<g>
	<circle style="fill:#FFFFFF;" cx="168.229" cy="403.446" r="10.152"/>
	<circle style="fill:#FFFFFF;" cx="168.229" cy="442.117" r="10.152"/>
</g>
<path style="fill:#323B5B;" d="M507.726,302.801C485.742,421.836,381.398,512,256,512c-8.464,0-16.823-0.408-25.078-1.212
	c-4.566-0.449-9.091-1.003-13.584-1.693V319.133c0-9.32,7.555-16.875,16.875-16.875h269.27
	C504.947,302.258,506.368,302.446,507.726,302.801z"/>
<path style="fill:#474F70;" d="M507.831,302.258c-0.031,0.178-0.063,0.366-0.104,0.543C485.742,421.836,381.398,512,256,512
	c-8.464,0-16.823-0.408-25.078-1.212V319.133c0-9.32,7.555-16.875,16.875-16.875L507.831,302.258L507.831,302.258z"/>
<path style="fill:#323B5B;" d="M446.171,382.715v44.648c-22.215,24.66-49.162,44.962-79.412,59.507
	c-6.802,3.271-13.772,6.248-20.898,8.923V382.715H446.171z"/>
<path style="fill:#EDEDED;" d="M495.46,105.276H351.949c-9.132,0-16.537,7.404-16.537,16.537v113.754
	c0,9.132,7.404,16.537,16.537,16.537H495.46c9.132,0,16.537-7.404,16.537-16.537V121.812
	C511.997,112.679,504.593,105.276,495.46,105.276z"/>
<path style="fill:#535E8A;" d="M467.069,382.715v18.171c-6.384,9.289-13.364,18.129-20.898,26.478
	c-22.215,24.66-49.162,44.962-79.412,59.507V382.715H467.069z"/>
<path style="fill:#55CEED;" d="M479.812,145.319l-17.967,17.967v-7.859c0-6.624-5.37-11.994-11.994-11.994h-65.874
	c-6.624,0-11.994,5.37-11.994,11.994v44.976c0,6.624,5.37,11.994,11.994,11.994h65.874c6.624,0,11.994-5.37,11.994-11.994v-7.859
	l17.967,17.967c3.486,3.486,9.445,1.017,9.445-3.912v-57.366C489.258,144.301,483.298,141.833,479.812,145.319z"/>
<polygon style="fill:#FFFFFF;" points="436.107,177.914 418.744,160.551 418.744,195.277 "/>
<rect x="383.115" y="229.004" transform="matrix(-0.7071 -0.7071 0.7071 -0.7071 515.7026 718.8489)" style="fill:#EDEDED;" width="47.229" height="47.229"/>
<g>
</g>
<g>
</g>
<g>
</g>
<g>
</g>
<g>
</g>
<g>
</g>
<g>
</g>
<g>
</g>
<g>
</g>
<g>
</g>
<g>
</g>
<g>
</g>
<g>
</g>
<g>
</g>
<g>
</g>
</svg>
