<?xml version="1.0" encoding="iso-8859-1"?>
<!-- Generator: Adobe Illustrator 19.0.0, SVG Export Plug-In . SVG Version: 6.00 Build 0)  -->
<svg version="1.1" id="Capa_1" xmlns="http://www.w3.org/2000/svg" xmlns:xlink="http://www.w3.org/1999/xlink" x="0px" y="0px"
	 viewBox="0 0 512 512" style="enable-background:new 0 0 512 512;" xml:space="preserve">
<circle style="fill:#535E8A;" cx="256" cy="256" r="256"/>
<g>
	<circle style="fill:#55CEED;" cx="256" cy="256" r="256"/>
	<circle style="fill:#55CEED;" cx="256" cy="256" r="256"/>
</g>
<g>
	<path style="fill:#474F70;" d="M503.557,60.05v261.381c-7.555,28.693-19.978,55.411-36.321,79.224H44.763
		c-14.733-21.462-26.269-45.286-33.938-70.781V60.05c0-17,13.782-30.793,30.783-30.793h431.167
		C489.775,29.257,503.557,43.05,503.557,60.05z"/>
	<path style="fill:#474F70;" d="M503.557,298.297v23.134c-7.555,28.693-19.978,55.411-36.321,79.224H44.763
		c-14.733-21.462-26.269-45.286-33.938-70.781v-31.577H503.557z"/>
</g>
<path style="fill:#FFFFFF;" d="M490.854,60.488v275.299c0,10.041-6.604,18.192-14.743,18.192H38.278
	c-8.15,0-14.744-8.15-14.744-18.192V60.488c0-10.052,6.593-18.192,14.744-18.192h437.833
	C484.251,42.296,490.854,50.436,490.854,60.488z"/>
<path style="fill:#323B5B;" d="M261.457,382.052c-6.16,0-11.152-4.993-11.152-11.152c0-1.761,0.41-3.424,1.136-4.905
	c-3.7,1.815-6.247,5.617-6.247,10.016c0,6.16,4.994,11.152,11.152,11.152c4.399,0,8.201-2.547,10.016-6.247
	C264.883,381.643,263.218,382.052,261.457,382.052z"/>
<rect x="160.413" y="400.656" style="fill:#474F70;" width="193.557" height="75.797"/>
<rect x="160.413" y="400.656" style="fill:#323B5B;" width="193.557" height="20.27"/>
<path style="fill:#535E8A;" d="M398.764,468.522c-5.413,3.647-10.982,7.095-16.687,10.324H129.923
	c-5.13-2.905-10.156-5.987-15.057-9.226c10.136-15.287,27.376-24.785,46.174-24.785h192.303c11.16,0,21.786,3.354,30.689,9.279
	C389.747,457.916,394.762,462.796,398.764,468.522z"/>
<path style="fill:#BFBFBF;" d="M490.854,60.488V97.77H23.534V60.488c0-10.052,6.593-18.192,14.744-18.192h437.833
	C484.251,42.296,490.854,50.436,490.854,60.488z"/>
<circle style="fill:#FF4F6F;" cx="58.514" cy="70.029" r="11.494"/>
<circle style="fill:#FCC72E;" cx="91.429" cy="70.029" r="11.494"/>
<circle style="fill:#5CC693;" cx="124.343" cy="70.029" r="11.494"/>
<polygon style="fill:#323B5B;" points="298.315,80.826 125.607,80.826 157.532,296.669 298.315,311.306 "/>
<rect x="181.279" y="226.67" style="fill:#FECD9C;" width="71.837" height="46.185"/>
<path style="fill:#EAB689;" d="M200.22,226.674L200.22,226.674l-18.938-0.001v0.001h-0.001v19.53l0.001,0.001v19.323h18.938l0,0
	c0-6.542,5.448-11.803,11.983-11.495c1.263,0.06,2.534,0.09,3.812,0.09c13.387,0,26.009-3.292,37.098-9.106v-18.342H200.22V226.674z
	"/>
<path style="fill:#FECD9C;" d="M288.585,85.549l-145.137-8.514v89.213c0,44.166,32.49,79.969,72.568,79.969l0,0
	c40.078,0,72.568-35.803,72.568-79.969v-80.7H288.585z"/>
<g>
	<path style="fill:#EAB689;" d="M162.763,166.248V78.168l-19.315-1.133v89.213c0,44.166,32.49,79.969,72.568,79.969l0,0
		c3.275,0,6.497-0.243,9.657-0.706C190.162,240.306,162.763,206.805,162.763,166.248z"/>
	<path style="fill:#EAB689;" d="M174.041,108.061c0,0,45.166,14.382,88.064,9.08c42.899-5.301-7.576-33.883-7.576-33.883
		l-72.976-4.865l-10.338,4.865"/>
	<path style="fill:#EAB689;" d="M271.519,124.353h-32.085c-2.272,0-4.113,1.841-4.113,4.113l0,0c0,2.272,1.841,4.113,4.113,4.113
		h32.085c2.272,0,4.113-1.841,4.113-4.113l0,0C275.632,126.195,273.79,124.353,271.519,124.353z"/>
	<path style="fill:#EAB689;" d="M165.78,124.353c-2.264,0-4.208,1.772-4.249,4.036c-0.042,2.307,1.815,4.19,4.113,4.19h22.542
		c8.951,0,16.205,7.256,16.205,16.205v32.042h4.083c5.245,0,9.498-4.253,9.498-9.498v-34.6c0-6.835-5.541-12.376-12.376-12.376
		H165.78z"/>
</g>
<path style="fill:#FF6B86;" d="M226.58,203.622c-6.898,2.007-14.229,2.007-21.128,0c-1.846-0.532-3.894,0.292-4.626,2.049l0,0
	c-0.73,1.751,0.451,3.907,2.703,4.56c8.153,2.372,16.819,2.372,24.973,0c2.252-0.653,3.435-2.809,2.703-4.56l0,0
	C230.475,203.914,228.426,203.089,226.58,203.622z"/>
<path style="fill:#EAB689;" d="M219.744,215.299h-7.454c-1.901,0-3.442,1.541-3.442,3.442l0,0c0,1.901,1.541,3.442,3.442,3.442
	h7.454c1.901,0,3.442-1.541,3.442-3.442l0,0C223.185,216.839,221.645,215.299,219.744,215.299z"/>
<path style="fill:#FF4F6F;" d="M332.173,310.675v43.883c-16.85,12.403-35.767,22.17-56.126,28.692
	c-16.833,5.4-34.661,8.597-53.137,9.23c-2.283,0.08-4.583,0.12-6.89,0.12s-4.607-0.04-6.898-0.12
	c-18.476-0.633-36.296-3.83-53.137-9.23c-20.359-6.53-39.268-16.289-56.117-28.692v-43.883c0-7.451,4.183-14.262,10.817-17.627
	l54.155-27.482l44.284,6.65l3.414,0.513l10.376,1.723l0.201,0.032v7.3l44.083-16.217l54.147,27.482
	C327.982,296.414,332.173,303.224,332.173,310.675z"/>
<path style="fill:#E33958;" d="M191.999,267.994l-12.971-2.427l-54.147,27.482c-6.642,3.366-10.824,10.175-10.824,17.627v53.402
	c-4.871-2.973-9.607-6.145-14.19-9.519v-43.883c0-7.451,4.183-14.262,10.817-17.627l54.155-27.482l20.263-6.562L191.999,267.994z"/>
<path style="fill:#F7F7F7;" d="M222.91,271.647V392.48c-2.283,0.08-4.583,0.12-6.89,0.12s-4.607-0.04-6.898-0.12V271.647H222.91z"/>
<path style="fill:#EDEDED;" d="M226.052,271.916h-16.657v1.354l-0.271-0.116v21.517l6.045-10.882
	c0.576-1.033,0.847-2.152,0.847-3.252c0,1.099,0.272,2.214,0.847,3.252l6.045,10.882v-14.133h3.142v-8.621H226.052z"/>
<g>
	<path style="fill:#F7F7F7;" d="M176.502,251.064l35.447,15.192c3.654,1.566,5.151,5.948,3.221,9.423l-11.479,20.664
		c-2.227,4.009-7.73,4.651-10.82,1.262l-29.213-32.041c-2.693-2.954-2.221-7.593,1.011-9.944l5.245-3.815
		C171.826,250.414,174.329,250.133,176.502,251.064z"/>
	<path style="fill:#F7F7F7;" d="M255.532,251.064l-35.447,15.192c-3.654,1.566-5.151,5.948-3.221,9.423l11.479,20.664
		c2.227,4.009,7.73,4.651,10.82,1.262l29.213-32.041c2.694-2.954,2.221-7.593-1.011-9.944l-5.245-3.815
		C260.208,250.414,257.704,250.133,255.532,251.064z"/>
</g>
<g>
	<circle style="fill:#474F70;" cx="216.022" cy="288.068" r="4.46"/>
	<circle style="fill:#474F70;" cx="216.022" cy="323.877" r="4.46"/>
	<circle style="fill:#474F70;" cx="216.022" cy="359.696" r="4.46"/>
</g>
<path style="fill:#FFFFFF;" d="M272.503,150.374c0,3.495-2.83,6.329-6.325,6.329h-21.403c-1.747,0-3.329-0.709-4.472-1.853
	c-1.147-1.147-1.853-2.728-1.853-4.476c0-1.075,0.269-2.088,0.742-2.975c1.064-1.993,1.346-5.168,3.764-5.168l24.652-0.326
	c1.747,0,3.111,3.703,3.481,2.128c0.439-1.869,0.375,2.813,0.671,3.366C272.234,148.286,272.503,149.299,272.503,150.374z"/>
<path style="fill:#55CEED;" d="M265.18,148.94c0,3.174-1.525,5.997-3.884,7.765h-11.644c-2.359-1.768-3.884-4.589-3.884-7.765
	c0-1.784,0.483-3.454,1.326-4.889l8.901-1.579l7.86,1.579C264.698,145.485,265.18,147.155,265.18,148.94z"/>
<path style="fill:#323B5B;" d="M244.775,144.05h21.403c1.747,0,3.329,0.709,4.472,1.853c0.439,0.439,0.813,0.945,1.109,1.497
	c0.472-0.967,0.745-2.049,0.745-3.197c0-4.03-3.267-7.298-7.298-7.298h-19.46c-4.03,0-7.298,3.267-7.298,7.298
	c0,1.148,0.273,2.231,0.745,3.197C240.259,145.408,242.357,144.05,244.775,144.05z"/>
<path style="fill:#FFFFFF;" d="M198.881,150.374c0,3.495-2.83,6.329-6.325,6.329h-21.403c-1.747,0-3.329-0.709-4.472-1.853
	c-1.147-1.147-1.853-2.728-1.853-4.476c0-1.075,0.269-2.088,0.742-2.975c1.064-1.993,1.346-5.168,3.764-5.168l24.652-0.326
	c1.747,0,3.111,3.703,3.481,2.128c0.44-1.869,0.375,2.813,0.671,3.366C198.611,148.286,198.881,149.298,198.881,150.374z"/>
<path style="fill:#55CEED;" d="M191.558,148.94c0,3.174-1.525,5.997-3.884,7.765H176.03c-2.359-1.768-3.884-4.589-3.884-7.765
	c0-1.784,0.483-3.454,1.326-4.889l8.901-1.579l7.86,1.579C191.075,145.485,191.558,147.155,191.558,148.94z"/>
<path style="fill:#323B5B;" d="M171.152,144.05h21.403c1.747,0,3.329,0.709,4.472,1.853c0.439,0.439,0.813,0.945,1.109,1.497
	c0.472-0.967,0.745-2.049,0.745-3.197c0-4.03-3.267-7.298-7.298-7.298h-19.46c-4.03,0-7.298,3.267-7.298,7.298
	c0,1.148,0.273,2.231,0.745,3.197C166.636,145.408,168.734,144.05,171.152,144.05z"/>
<rect x="146.331" y="205.805" transform="matrix(0.8674 0.4977 -0.4977 0.8674 125.74 -54.3094)" style="fill:#55CEED;" width="36.855" height="5.876"/>
<g>
	<circle style="fill:#474F70;" cx="180.746" cy="217.913" r="8.28"/>
	<path style="fill:#474F70;" d="M313.451,97.404v191.636l-30.927-15.784c0,0,0-64.459,0-84.497c0-20.039,6.409-74.426-36.608-74.426
		c-13.212,0-24.766-2.884-34.693-7.075l-0.008-0.008c-11.698-4.928-21.16-11.666-28.491-17.643
		c-0.008-0.008-0.024-0.016-0.032-0.024c-0.008,0.016-0.016,0.064-0.032,0.144v0.008c-0.457,2.46-50.765,95.562-22.722,189.305
		c-48.987-10.151-82.983-53.314-82.983-101.827c0-5.568,0.448-11.209,1.37-16.881C91.792,77.711,127.703,0,216.014,0h0.024
		C269.84,0,313.451,43.611,313.451,97.404z"/>
</g>
<g>
	<path style="fill:#323B5B;" d="M104.76,160.336C117.475,82.357,150.185,8.773,228.055,0.739c-3.937-0.484-7.945-0.738-12.013-0.738
		h-0.024c-88.312,0-124.225,77.707-137.697,160.335c-8.975,55.044,27.005,107.389,81.616,118.706l0,0
		c-1.084-3.624-2.038-7.245-2.894-10.862C119.559,247.422,97.517,204.761,104.76,160.336z"/>
	<path style="fill:#323B5B;" d="M211.215,107.251c-11.698-4.928-21.16-11.666-28.491-17.643l13.26-28.484
		C195.758,61.766,187.434,86.324,211.215,107.251z"/>
</g>
<rect x="56.424" y="353.98" style="fill:#474F70;" width="323.918" height="46.677"/>
<rect x="300.366" y="262.102" style="fill:#EDEDED;" width="169.921" height="92.473"/>
<path style="fill:#BFBFBF;" d="M470.287,262.101h-4.399l-80.856,54.129l-80.856-54.129h-3.811v3.347l64.069,42.89l-64.069,42.893
	v3.344h3.818l64.653-43.286l14.831,9.928c0.415,0.275,0.889,0.411,1.365,0.411c0.475,0,0.95-0.136,1.36-0.411l14.831-9.932
	l64.66,43.289h4.402v-2.948l-64.66-43.289l64.66-43.285v-2.951H470.287z"/>
<g>
</g>
<g>
</g>
<g>
</g>
<g>
</g>
<g>
</g>
<g>
</g>
<g>
</g>
<g>
</g>
<g>
</g>
<g>
</g>
<g>
</g>
<g>
</g>
<g>
</g>
<g>
</g>
<g>
</g>
</svg>
