<?xml version="1.0" encoding="iso-8859-1"?>
<!-- Generator: Adobe Illustrator 19.0.0, SVG Export Plug-In . SVG Version: 6.00 Build 0)  -->
<svg version="1.1" id="Capa_1" xmlns="http://www.w3.org/2000/svg" xmlns:xlink="http://www.w3.org/1999/xlink" x="0px" y="0px"
	 viewBox="0 0 512 512" style="enable-background:new 0 0 512 512;" xml:space="preserve">
<path style="fill:#55CEED;" d="M512,256c0,83.331-39.811,157.362-101.46,204.1C367.595,492.68,314.065,512,256,512
	c-59.099,0-113.518-20.02-156.839-53.656C38.828,411.512,0,338.286,0,256C0,114.615,114.615,0,256,0S512,114.615,512,256z"/>
<circle style="fill:#21ABD9;" cx="256" cy="194.435" r="194.435"/>
<polygon style="fill:#323B5B;" points="344.936,88.479 155.878,88.479 190.826,324.756 344.936,340.779 "/>
<rect x="216.816" y="248.132" style="fill:#FECD9C;" width="78.629" height="50.552"/>
<path style="fill:#EAB689;" d="M237.554,248.134L237.554,248.134l-20.731-0.001v0.001h-0.001v21.379c0,0,0.001,0,0.001,0.001v21.153
	h20.731l0,0c0-7.162,5.964-12.92,13.118-12.584c1.382,0.065,2.773,0.098,4.172,0.098c14.655,0,28.471-3.604,40.61-9.968v-20.079
	L237.554,248.134L237.554,248.134z"/>
<path style="fill:#FECD9C;" d="M334.285,93.649l-158.878-9.32v97.659c0,48.346,35.566,87.539,79.438,87.539l0,0
	c43.873,0,79.438-39.193,79.438-87.539V93.649H334.285z"/>
<g>
	<path style="fill:#EAB689;" d="M196.551,181.988V85.569l-21.144-1.24v97.659c0,48.346,35.566,87.539,79.438,87.539l0,0
		c3.585,0,7.113-0.266,10.571-0.773C226.543,263.057,196.551,226.384,196.551,181.988z"/>
	<path style="fill:#EAB689;" d="M208.898,118.292c0,0,49.441,15.743,96.401,9.94c46.96-5.803-8.293-37.091-8.293-37.091
		l-79.883-5.326l-11.317,5.326"/>
	<path style="fill:#EAB689;" d="M315.602,136.127H280.48c-2.487,0-4.502,2.016-4.502,4.502l0,0c0,2.487,2.016,4.502,4.502,4.502
		h35.122c2.487,0,4.502-2.016,4.502-4.502l0,0C320.106,138.143,318.089,136.127,315.602,136.127z"/>
	<path style="fill:#EAB689;" d="M199.854,136.127c-2.48,0-4.606,1.939-4.651,4.418c-0.046,2.526,1.987,4.587,4.501,4.587h24.675
		c9.797,0,17.74,7.942,17.74,17.74v35.075h4.47c5.743,0,10.398-4.655,10.398-10.398v-37.875c0-7.481-6.066-13.547-13.547-13.547
		L199.854,136.127L199.854,136.127z"/>
</g>
<path style="fill:#FF6B86;" d="M266.41,222.9c-7.551,2.196-15.576,2.196-23.128,0c-2.021-0.582-4.263,0.319-5.064,2.243l0,0
	c-0.8,1.917,0.494,4.277,2.959,4.991c8.926,2.597,18.411,2.597,27.337,0c2.465-0.715,3.76-3.074,2.959-4.991l0,0
	C270.673,223.219,268.431,222.318,266.41,222.9z"/>
<path style="fill:#EAB689;" d="M258.927,235.682h-8.16c-2.08,0-3.768,1.686-3.768,3.767l0,0c0,2.08,1.686,3.767,3.768,3.767h8.16
	c2.08,0,3.767-1.686,3.767-3.767l0,0C262.694,237.368,261.007,235.682,258.927,235.682z"/>
<path style="fill:#EDEDED;" d="M381.999,340.088v48.037c-18.445,13.577-39.152,24.269-61.439,31.409
	c-18.428,5.911-37.942,9.411-58.167,10.104c-2.499,0.088-5.017,0.132-7.543,0.132c-2.526,0-5.043-0.044-7.551-0.132
	c-20.225-0.693-39.731-4.192-58.167-10.104c-22.287-7.148-42.985-17.831-61.431-31.409v-48.037c0-8.156,4.579-15.612,11.841-19.296
	l59.281-30.084l48.476,7.28l3.737,0.561l11.358,1.886l0.219,0.036v7.99l48.257-17.752l59.273,30.084
	C377.412,324.476,381.999,331.931,381.999,340.088z"/>
<path style="fill:#C2C2C2;" d="M228.555,293.366l-14.2-2.657l-59.273,30.084c-7.271,3.683-11.849,11.139-11.849,19.296v58.457
	c-5.333-3.254-10.516-6.727-15.533-10.42v-48.037c0-8.156,4.579-15.612,11.841-19.296l59.281-30.084l22.181-7.184L228.555,293.366z"
	/>
<path style="fill:#F7F7F7;" d="M262.392,297.365v132.272c-2.499,0.088-5.017,0.132-7.543,0.132c-2.526,0-5.043-0.044-7.551-0.132
	V297.365H262.392z"/>
<path style="fill:#EDEDED;" d="M265.831,297.659h-18.233v1.482l-0.296-0.126v23.554l6.617-11.912c0.63-1.132,0.928-2.356,0.928-3.56
	c0,1.203,0.298,2.423,0.928,3.56l6.617,11.912v-15.472h3.44v-9.438H265.831z"/>
<g>
	<path style="fill:#F7F7F7;" d="M211.591,274.833l38.803,16.631c4,1.715,5.639,6.511,3.527,10.315l-12.566,22.62
		c-2.438,4.389-8.463,5.091-11.845,1.381l-31.979-35.074c-2.949-3.234-2.431-8.312,1.108-10.886l5.743-4.176
		C206.472,274.122,209.212,273.813,211.591,274.833z"/>
	<path style="fill:#F7F7F7;" d="M298.102,274.833l-38.803,16.631c-4,1.715-5.639,6.511-3.527,10.315l12.566,22.62
		c2.438,4.389,8.463,5.091,11.845,1.381l31.979-35.074c2.949-3.234,2.431-8.312-1.108-10.886l-5.743-4.176
		C303.221,274.122,300.481,273.813,298.102,274.833z"/>
</g>
<g>
	<circle style="fill:#474F70;" cx="254.851" cy="315.34" r="4.882"/>
	<circle style="fill:#474F70;" cx="254.851" cy="354.544" r="4.882"/>
	<circle style="fill:#474F70;" cx="254.851" cy="393.749" r="4.882"/>
</g>
<path style="fill:#FFFFFF;" d="M316.677,164.613c0,3.824-3.093,6.928-6.917,6.928h-23.437c-1.912,0-3.636-0.773-4.89-2.027
	s-2.027-2.988-2.027-4.901c0-1.181,0.293-2.288,0.815-3.26c1.16-2.184,1.473-5.653,4.117-5.653l26.99-0.355
	c1.912,0,3.396,4.044,3.803,2.33c0.481-2.048,0.418,3.072,0.731,3.678C316.385,162.325,316.677,163.432,316.677,164.613z"/>
<path style="fill:#55CEED;" d="M308.663,167.685c0,1.369-0.251,2.664-0.731,3.856h-19.79c-0.481-1.191-0.731-2.487-0.731-3.856
	c0-1.954,0.533-3.783,1.452-5.35l9.749-1.724l8.6,1.724C308.14,163.903,308.663,165.731,308.663,167.685z"/>
<path style="fill:#323B5B;" d="M285.737,162.184h24.609c2.009,0,3.827,0.816,5.142,2.131c0.505,0.505,0.935,1.086,1.275,1.722
	c0.543-1.112,0.857-2.356,0.857-3.676c0-4.634-3.756-8.391-8.391-8.391h-22.375c-4.634,0-8.391,3.756-8.391,8.391
	c0,1.321,0.313,2.565,0.857,3.677C280.544,163.746,282.956,162.184,285.737,162.184z"/>
<path style="fill:#FFFFFF;" d="M236.084,164.613c0,3.824-3.093,6.928-6.917,6.928H205.73c-1.912,0-3.636-0.773-4.89-2.027
	c-1.254-1.254-2.027-2.988-2.027-4.901c0-1.181,0.293-2.288,0.815-3.26c1.16-2.184,1.473-5.653,4.117-5.653l26.99-0.355
	c1.912,0,3.406,4.044,3.803,2.33c0.481-2.048,0.418,3.072,0.742,3.678C235.792,162.325,236.084,163.432,236.084,164.613z"/>
<g>
	<path style="fill:#55CEED;" d="M228.07,167.685c0,1.369-0.251,2.664-0.731,3.856h-19.79c-0.47-1.191-0.721-2.487-0.721-3.856
		c0-1.954,0.522-3.783,1.442-5.35l9.749-1.724l8.6,1.724C227.547,163.903,228.07,165.731,228.07,167.685z"/>
	
		<rect x="178.561" y="225.281" transform="matrix(0.8674 0.4977 -0.4977 0.8674 140.0781 -68.5982)" style="fill:#55CEED;" width="40.347" height="6.433"/>
</g>
<g>
	<circle style="fill:#474F70;" cx="216.231" cy="238.55" r="9.063"/>
	<path style="fill:#474F70;" d="M361.504,106.627v209.779l-33.855-17.278c0,0,0-70.561,0-92.496
		c0-21.936,7.017-81.472-40.074-81.472c-14.463,0-27.11-3.158-37.978-7.745l-0.008-0.008c-12.805-5.394-23.163-12.771-31.189-19.313
		c-0.008-0.008-0.026-0.018-0.036-0.026c-0.008,0.018-0.018,0.07-0.036,0.158v0.008c-0.499,2.693-55.572,104.609-24.874,207.227
		c-53.624-11.113-90.839-58.361-90.839-111.468c0-6.096,0.491-12.27,1.499-18.48C118.859,85.068,158.17,0.001,254.841,0.001h0.026
		C313.765,0.001,361.504,47.74,361.504,106.627z"/>
</g>
<g>
	<path style="fill:#323B5B;" d="M133.057,175.517C146.975,90.155,182.783,9.604,268.025,0.81c-4.31-0.53-8.698-0.808-13.151-0.808
		h-0.027c-96.672,0-135.985,85.064-150.733,175.515c-9.824,60.255,29.561,117.556,89.343,129.944l0,0
		c-1.187-3.966-2.23-7.931-3.168-11.89C149.257,270.847,125.129,224.147,133.057,175.517z"/>
	<path style="fill:#323B5B;" d="M249.59,117.406c-12.805-5.394-23.163-12.771-31.189-19.313l14.516-31.18
		C232.671,67.614,223.558,94.497,249.59,117.406z"/>
	<path style="fill:#323B5B;" d="M205.145,162.184h24.609c2.009,0,3.827,0.816,5.142,2.131c0.505,0.505,0.934,1.086,1.275,1.722
		c0.543-1.112,0.857-2.356,0.857-3.676c0-4.634-3.756-8.391-8.391-8.391h-22.375c-4.634,0-8.391,3.756-8.391,8.391
		c0,1.321,0.313,2.565,0.857,3.677C199.952,163.746,202.364,162.184,205.145,162.184z"/>
	<path style="fill:#323B5B;" d="M410.54,334.921V460.1C367.595,492.68,314.065,512,256,512c-59.099,0-113.518-20.02-156.839-53.656
		V334.921c0-9.958,8.077-18.035,18.035-18.035h275.31C402.463,316.886,410.54,324.963,410.54,334.921z"/>
</g>
<path style="fill:#474F70;" d="M410.54,349.55V460.1C367.595,492.68,314.065,512,256,512c-59.099,0-113.518-20.02-156.839-53.656
	V349.55c0-9.958,8.077-18.035,18.035-18.035h275.31C402.463,331.515,410.54,339.592,410.54,349.55z"/>
<path style="fill:#EDEDED;" d="M490.036,186.322H373.498c-10.07,0-18.232,8.164-18.232,18.233v47.742
	c0,10.07,8.164,18.233,18.232,18.233h17.294v31.774l41.381-31.774h57.863c10.07,0,18.233-8.164,18.233-18.233v-47.742
	C508.27,194.485,500.107,186.322,490.036,186.322z"/>
<g>
	<path style="fill:#323B5B;" d="M415.653,244.314c0,3.214-2.767,6.071-5.981,6.071c-3.482,0-6.071-2.857-6.071-6.071
		c0-3.303,2.589-6.071,6.071-6.071C412.886,238.243,415.653,241.011,415.653,244.314z"/>
	<path style="fill:#323B5B;" d="M437.793,244.314c0,3.214-2.767,6.071-5.982,6.071c-3.481,0-6.07-2.857-6.07-6.071
		c0-3.303,2.589-6.071,6.07-6.071C435.025,238.243,437.793,241.011,437.793,244.314z"/>
	<path style="fill:#323B5B;" d="M459.933,244.314c0,3.214-2.767,6.071-5.981,6.071c-3.482,0-6.071-2.857-6.071-6.071
		c0-3.303,2.589-6.071,6.071-6.071C457.166,238.243,459.933,241.011,459.933,244.314z"/>
	<circle style="fill:#323B5B;" cx="254.851" cy="429.735" r="22.988"/>
</g>
<g>
</g>
<g>
</g>
<g>
</g>
<g>
</g>
<g>
</g>
<g>
</g>
<g>
</g>
<g>
</g>
<g>
</g>
<g>
</g>
<g>
</g>
<g>
</g>
<g>
</g>
<g>
</g>
<g>
</g>
</svg>
