<?xml version="1.0" encoding="iso-8859-1"?>
<!-- Generator: Adobe Illustrator 19.0.0, SVG Export Plug-In . SVG Version: 6.00 Build 0)  -->
<svg version="1.1" id="Capa_1" xmlns="http://www.w3.org/2000/svg" xmlns:xlink="http://www.w3.org/1999/xlink" x="0px" y="0px"
	 viewBox="0 0 512 512" style="enable-background:new 0 0 512 512;" xml:space="preserve">
<circle style="fill:#FD7034;" cx="256" cy="255.999" r="255.999"/>
<circle style="fill:#FD8B59;" cx="256" cy="183.128" r="183.128"/>
<g>
	<path style="fill:#323B5B;" d="M194.776,205.317c-5.764,0-10.435-4.672-10.435-10.435v-38.45c0-5.764,4.672-10.435,10.435-10.435
		c5.764,0,10.435,4.672,10.435,10.435v38.45C205.212,200.645,200.54,205.317,194.776,205.317z"/>
	<path style="fill:#323B5B;" d="M317.218,205.317c-5.764,0-10.435-4.672-10.435-10.435v-38.45c0-5.764,4.672-10.435,10.435-10.435
		c5.764,0,10.435,4.672,10.435,10.435v38.45C327.653,200.645,322.981,205.317,317.218,205.317z"/>
</g>
<path style="fill:#55CEED;" d="M472.955,391.952v0.014c-22.039,35.076-52.344,64.435-88.185,85.333
	C346.938,499.366,302.943,512,255.998,512s-90.94-12.634-128.772-34.701c-35.842-20.899-66.16-50.256-88.185-85.347l26.63-119.994
	c1.636-7.374,7.424-13.117,14.81-14.695l38.955-8.327c16.273-3.478,28.703-16.652,31.23-33.101l3.333-21.698
	c1.447-9.42,9.55-16.374,19.081-16.374h21.697h122.441h21.694c9.532,0,17.636,6.956,19.081,16.378l3.327,21.688
	c2.523,16.452,14.955,29.63,31.231,33.11l38.951,8.326c7.386,1.579,13.173,7.321,14.81,14.693L472.955,391.952z"/>
<path style="fill:#17A3BF;" d="M255.997,216.308c65.565,0,118.737,53.155,118.737,118.737c0,65.565-53.172,118.737-118.737,118.737
	c-65.582,0-118.737-53.172-118.737-118.737C137.261,269.463,190.416,216.308,255.997,216.308z"/>
<path style="fill:#F7F7F7;" d="M255.997,233.474c56.087,0,101.57,45.47,101.57,101.57c0,56.087-45.484,101.57-101.57,101.57
	c-56.1,0-101.57-45.484-101.57-101.57C154.427,278.944,199.897,233.474,255.997,233.474z"/>
<g>
	<path style="fill:#474F70;" d="M256.003,281.716c29.427,0,53.308,23.881,53.308,53.334c0,29.427-23.881,53.309-53.308,53.309
		c-29.452,0-53.334-23.881-53.334-53.309C202.67,305.598,226.551,281.716,256.003,281.716z"/>
	<path style="fill:#474F70;" d="M511.984,190.574l-8.683,25.546c-2.202,6.477-8.839,10.341-15.559,9.058l-3.839-0.732v-0.013
		l-98.217-18.782c-5.585-1.068-9.932-5.471-10.928-11.069l-5.753-32.328l0.841-0.147l76.005-8.989L511.984,190.574z"/>
	<path style="fill:#474F70;" d="M142.331,164.792l-5.042,32.44c-0.872,5.616-5.12,10.112-10.678,11.305l-97.766,20.965l-3.825,0.821
		c-6.693,1.438-13.421-2.28-15.766-8.712l-9.238-25.335l71.592-38.991l69.865,7.365L142.331,164.792z"/>
</g>
<path style="fill:#55CEED;" d="M439.839,102.534l30.344,7.614c5.426,1.361,9.899,5.189,12.083,10.339l29.719,70.087l-142.138-28.468
	l-0.841,0.147l-2.946-16.546c-1.274-7.156-6.732-12.839-13.831-14.399c-28.773-6.322-62.918-9.258-97.016-8.878
	c-34.107,0.38-68.179,4.076-96.795,11.036c-7.063,1.718-12.392,7.521-13.506,14.705l-2.578,16.62l-0.857-0.141L0.017,196.277
	l28.139-70.73c2.068-5.198,6.455-9.126,11.85-10.608l30.165-8.287c1.075-0.301,2.164-0.59,3.252-0.879
	c109.996-29.515,252.531-31.103,363.158-4.045C437.675,101.992,438.756,102.257,439.839,102.534z"/>
<g>
</g>
<g>
</g>
<g>
</g>
<g>
</g>
<g>
</g>
<g>
</g>
<g>
</g>
<g>
</g>
<g>
</g>
<g>
</g>
<g>
</g>
<g>
</g>
<g>
</g>
<g>
</g>
<g>
</g>
</svg>
