<?xml version="1.0" encoding="iso-8859-1"?>
<!-- Generator: Adobe Illustrator 19.0.0, SVG Export Plug-In . SVG Version: 6.00 Build 0)  -->
<svg version="1.1" id="Capa_1" xmlns="http://www.w3.org/2000/svg" xmlns:xlink="http://www.w3.org/1999/xlink" x="0px" y="0px"
	 viewBox="0 0 512 512" style="enable-background:new 0 0 512 512;" xml:space="preserve">
<g>
	<circle style="fill:#55CEED;" cx="256" cy="256" r="256"/>
	<circle style="fill:#55CEED;" cx="256" cy="256" r="256"/>
</g>
<g>
	<path style="fill:#474F70;" d="M503.557,60.05v261.381c-7.555,28.693-19.978,55.411-36.321,79.224H44.763
		c-14.733-21.462-26.269-45.286-33.938-70.781V60.05c0-17,13.782-30.793,30.783-30.793h431.167
		C489.775,29.257,503.557,43.05,503.557,60.05z"/>
	<path style="fill:#474F70;" d="M503.557,298.297v23.134c-7.555,28.693-19.978,55.411-36.321,79.224H44.763
		c-14.733-21.462-26.269-45.286-33.938-70.781v-31.577H503.557z"/>
</g>
<path style="fill:#F7F7F7;" d="M490.854,60.488v275.299c0,10.041-6.604,18.192-14.743,18.192H38.278
	c-8.15,0-14.744-8.15-14.744-18.192V60.488c0-10.052,6.593-18.192,14.744-18.192h437.833
	C484.251,42.296,490.854,50.436,490.854,60.488z"/>
<path style="fill:#323B5B;" d="M261.457,382.052c-6.16,0-11.152-4.993-11.152-11.152c0-1.761,0.41-3.424,1.136-4.905
	c-3.7,1.815-6.247,5.617-6.247,10.016c0,6.16,4.994,11.152,11.152,11.152c4.399,0,8.201-2.547,10.016-6.247
	C264.883,381.643,263.218,382.052,261.457,382.052z"/>
<rect x="160.413" y="400.656" style="fill:#474F70;" width="193.557" height="75.797"/>
<rect x="160.413" y="400.656" style="fill:#323B5B;" width="193.557" height="20.27"/>
<path style="fill:#535E8A;" d="M398.764,468.522c-5.413,3.647-10.982,7.095-16.687,10.324H129.923
	c-5.13-2.905-10.156-5.987-15.057-9.226c10.136-15.287,27.376-24.785,46.174-24.785h192.303c11.16,0,21.786,3.354,30.689,9.279
	C389.747,457.916,394.762,462.796,398.764,468.522z"/>
<path style="fill:#BFBFBF;" d="M490.854,60.488V97.77H23.534V60.488c0-10.052,6.593-18.192,14.744-18.192h437.833
	C484.251,42.296,490.854,50.436,490.854,60.488z"/>
<circle style="fill:#FF4F6F;" cx="58.514" cy="70.029" r="11.494"/>
<circle style="fill:#FCC72E;" cx="91.429" cy="70.029" r="11.494"/>
<circle style="fill:#5CC693;" cx="124.343" cy="70.029" r="11.494"/>
<path style="fill:#FCC72E;" d="M511.997,126.619c0-69.929-66.863-126.618-149.343-126.618S213.311,56.69,213.311,126.619
	c0,59.109,47.775,108.755,112.371,122.703v49.364l51.742-46.067C452.971,246.329,511.997,192.321,511.997,126.619z"/>
<path style="fill:#FFFFFF;" d="M375.879,122.14c-9.099,8.252-9.31,15.87-9.31,29.623c0,3.385-2.116,6.56-8.887,6.56
	c-5.714,0-8.252-2.328-8.252-9.733c0-21.159,5.712-29.411,11.426-34.701c8.252-7.617,22.641-16.081,22.641-33.432
	c0-13.542-9.31-21.37-24.334-21.37c-20.101,0-19.254,13.119-27.295,13.119c-3.81,0-8.676-2.962-8.676-8.675
	c0-8.887,13.754-21.582,36.605-21.582c26.873,0,42.318,15.87,42.318,36.394C402.115,101.827,382.861,114.946,375.879,122.14z
	 M370.377,186.675c0,6.771-5.501,12.695-12.483,12.695c-7.194,0-12.483-5.925-12.483-12.695c0-6.982,5.501-12.696,12.483-12.696
	C364.665,173.98,370.377,179.693,370.377,186.675z"/>
<g>
</g>
<g>
</g>
<g>
</g>
<g>
</g>
<g>
</g>
<g>
</g>
<g>
</g>
<g>
</g>
<g>
</g>
<g>
</g>
<g>
</g>
<g>
</g>
<g>
</g>
<g>
</g>
<g>
</g>
</svg>
