<?xml version="1.0" encoding="iso-8859-1"?>
<!-- Generator: Adobe Illustrator 19.0.0, SVG Export Plug-In . SVG Version: 6.00 Build 0)  -->
<svg version="1.1" id="Capa_1" xmlns="http://www.w3.org/2000/svg" xmlns:xlink="http://www.w3.org/1999/xlink" x="0px" y="0px"
	 viewBox="0 0 511.997 511.997" style="enable-background:new 0 0 511.997 511.997;" xml:space="preserve">
<path style="fill:#FD7034;" d="M508.923,255.998c0,15.694-1.423,31.065-4.144,45.98c-0.031,0.177-0.062,0.363-0.104,0.54
	c-6.585,35.666-20.617,68.715-40.413,97.495c-6.346,9.233-13.284,18.02-20.772,26.319c-10.293,11.425-21.614,21.915-33.807,31.325
	c-13.959,10.76-29.081,20.108-45.128,27.825c-3.801,1.828-7.644,3.562-11.549,5.193c-3.043,1.288-6.117,2.513-9.223,3.677
	c-3.801,1.423-7.644,2.763-11.529,3.999c-7.79,2.503-15.745,4.643-23.847,6.387c-11.124,2.389-22.517,4.071-34.119,4.965
	c-6.543,0.499-13.159,0.758-19.827,0.758c-6.658,0-13.253-0.249-19.786-0.758c-1.714-0.135-3.427-0.28-5.141-0.447
	c-4.539-0.447-9.036-0.997-13.502-1.683c-71.852-10.885-133.847-51.817-172.764-109.585c-4.248-6.304-8.226-12.806-11.903-19.495
	C11.373,342.152,0,300.41,0,255.998C0,115.463,113.926,1.537,254.461,1.537S508.923,115.463,508.923,255.998z"/>
<path style="fill:#FD8B59;" d="M460.764,207.844c0,12.724-1.154,25.186-3.36,37.278c-0.025,0.143-0.051,0.295-0.084,0.438
	c-5.339,28.916-16.714,55.711-32.764,79.045c-5.145,7.486-10.77,14.61-16.841,21.337c-17.903,19.873-39.619,36.234-63.996,47.956
	c-5.482,2.636-11.099,5.035-16.841,7.191c-9.262,3.469-18.837,6.298-28.68,8.421c-9.018,1.937-18.256,3.301-27.661,4.025
	c-5.305,0.404-10.669,0.615-16.075,0.615c-5.398,0-10.744-0.203-16.041-0.615c-1.39-0.109-2.778-0.227-4.168-0.362
	c-3.68-0.362-7.326-0.808-10.947-1.364c-58.254-8.825-108.517-42.011-140.069-88.846c-3.444-5.111-6.669-10.383-9.65-15.806
	c-16.21-29.464-25.431-63.307-25.431-99.313c0-113.939,92.366-206.306,206.306-206.306S460.764,93.905,460.764,207.844z"/>
<path style="fill:#474F70;" d="M303.461,194.867h-14.416V137.79c0-67.18-54.655-121.835-121.835-121.835S45.375,70.61,45.375,137.79
	v57.077H30.959V137.79c0-75.128,61.122-136.251,136.251-136.251S303.461,62.661,303.461,137.79V194.867z"/>
<path style="fill:#55CEED;" d="M308.404,393.616v111.122c-11.124,2.389-22.517,4.071-34.119,4.965h-39.613
	c-1.714-0.135-3.427-0.28-5.141-0.447c-4.539-0.447-9.036-0.997-13.502-1.683c-79.693-12.069-147.255-61.102-184.666-129.079
	c2.098-2.586,4.736-4.757,7.81-6.315l65.828-33.402l62.203-7.966l8.621,1.101h0.01l53.593,6.865l65.817,33.402
	C303.315,376.282,308.404,384.56,308.404,393.616z"/>
<path style="fill:#17A3BF;" d="M175.824,331.912l-53.582,6.865l-65.817,33.402c-8.07,4.103-13.159,12.38-13.159,21.437v4.373
	c-4.248-6.304-8.226-12.806-11.903-19.495c2.098-2.586,4.736-4.757,7.81-6.315l65.828-33.402l62.203-7.966L175.824,331.912z"/>
<rect x="124.987" y="291.508" style="fill:#FECD9C;" width="87.317" height="56.137"/>
<g>
	<circle style="fill:#EAB689;" cx="72.952" cy="196.983" r="26.984"/>
	<circle style="fill:#EAB689;" cx="261.462" cy="196.983" r="26.984"/>
	<path style="fill:#EAB689;" d="M148.008,291.506L148.008,291.506l-23.021-0.001v0.001h-0.001v23.741c0,0,0.001,0,0.001,0.001
		v23.489h23.021l0,0c0-7.953,6.623-14.347,14.567-13.974c1.535,0.073,3.081,0.109,4.633,0.109c16.274,0,31.616-4.002,45.096-11.07
		v-22.296h-64.296V291.506z"/>
</g>
<path style="fill:#FECD9C;" d="M264.42,119.956l-194.418-10.35v108.446c0,53.687,43.522,97.208,97.208,97.208l0,0
	c53.687,0,97.208-43.522,97.208-97.208v-98.096H264.42z"/>
<path style="fill:#EAB689;" d="M181.062,65.402l-59.554,5.156c-9.085,0-17.46,3.031-24.178,8.13H93.3v3.5
	c-7.303,7.253-11.826,17.299-11.826,28.403l-15.278,54.396c0,7.08-2.92,12.961,3.805,14.18v38.885
	c0,53.687,43.522,97.208,97.208,97.208l0,0c3.624,0,7.199-0.205,10.719-0.591c-48.643-5.336-86.49-46.554-86.49-96.617v-57.36
	c0-8.971,6.982-16.563,15.945-16.916c0.283-0.011,0.566-0.017,0.851-0.017l0,0c9.147,0,18.05,3.071,25.177,8.804
	c9.249,7.441,21.098,13.452,33.799,11.893c25.296-3.103,24.549-19.813,33.799-27.253c7.128-5.733,16.03-8.804,25.177-8.804h0.395
	c11.693,0,20.82-4.366,20.838,7.326c0.011,7.872,6.213,43.791,14.085,43.968c4.108,0.092,7.844-1.536,10.523-4.22
	c2.607-2.607-0.709-6.21-0.709-10.192l-3.547-13.291"/>
<path style="fill:#474F70;" d="M276.247,116.323v48.969c0,3.982-1.612,7.585-4.219,10.192c-2.681,2.686-6.417,4.312-10.522,4.219
	c-7.881-0.178-14.086-6.821-14.086-14.702v-7.402c0-5.865-2.375-11.168-6.219-15.012c-3.844-3.844-9.147-6.219-15.012-6.219
	c-9.147,0-18.048,3.07-25.179,8.807c-9.246,7.438-21,11.892-33.8,11.892c-12.795,0-24.549-4.456-33.795-11.892
	c-1.222-0.986-2.499-1.887-3.82-2.711c-0.015-0.015-0.034-0.025-0.049-0.034c-2.513-1.567-5.185-2.839-7.964-3.81
	c-4.268-1.483-8.777-2.253-13.357-2.253c-11.72,0-21.222,9.517-21.222,21.242v7.689c0,3.977-1.612,7.585-4.224,10.192
	c-2.607,2.607-6.21,4.219-10.192,4.219c-7.959,0-14.411-6.451-14.411-14.416v-48.969c0-42.877,34.755-77.638,77.634-77.638h62.798
	C241.487,38.685,276.247,73.446,276.247,116.323z"/>
<path style="fill:#323B5B;" d="M112.306,116.323c0-42.877,34.755-77.638,77.633-77.638h-54.128
	c-42.877,0-77.634,34.76-77.634,77.638v48.97c0,7.964,6.452,14.416,14.411,14.416c3.982,0,7.585-1.612,10.192-4.219
	c2.612-2.607,4.224-6.215,4.224-10.192v-7.688c0-11.725,9.502-21.242,21.222-21.242c1.369,0,2.727,0.09,4.08,0.226V116.323z"/>
<path style="fill:#EAB689;" d="M146.112,192.357c-0.541,4.481-4.496,7.769-9.009,7.769h-23.452c-2.449,0-4.668-0.991-6.274-2.598
	c-1.839-1.845-2.879-4.494-2.53-7.376c0.541-4.481,4.496-7.769,9.009-7.769h23.452c2.449,0,4.668,0.991,6.274,2.598
	C145.42,186.825,146.46,189.476,146.112,192.357z"/>
<path style="fill:#FFFFFF;" d="M146.112,198.577c-0.541,4.481-4.496,7.769-9.009,7.769h-23.452c-2.449,0-4.668-0.991-6.274-2.598
	c-1.839-1.845-2.879-4.494-2.53-7.376c0.541-4.481,4.496-7.769,9.009-7.769h23.452c2.449,0,4.668,0.991,6.274,2.598
	C145.42,193.046,146.46,195.696,146.112,198.577z"/>
<path style="fill:#EAB689;" d="M227.004,182.383h-23.656c-4.899,0-8.871,3.972-8.871,8.871l0,0c0,4.899,3.972,8.871,8.871,8.871
	h23.656c4.899,0,8.871-3.972,8.871-8.871l0,0C235.875,186.355,231.904,182.383,227.004,182.383z"/>
<path style="fill:#FFFFFF;" d="M227.004,188.605h-23.656c-4.899,0-8.871,3.972-8.871,8.871l0,0c0,4.899,3.972,8.871,8.871,8.871
	h23.656c4.899,0,8.871-3.972,8.871-8.871l0,0C235.875,192.576,231.904,188.605,227.004,188.605z"/>
<path style="fill:#EAB689;" d="M234.678,164.661h-39.002c-2.762,0-5,2.238-5,5l0,0c0,2.762,2.238,5,5,5h39.002c2.762,0,5-2.238,5-5
	l0,0C239.678,166.901,237.439,164.661,234.678,164.661z"/>
<g>
	<path style="fill:#474F70;" d="M137.278,194.548c0,6.515-5.283,11.799-11.799,11.799s-11.799-5.283-11.799-11.799
		c0-2.169,0.587-4.199,1.612-5.944h20.375C136.691,190.348,137.278,192.379,137.278,194.548z"/>
	<path style="fill:#474F70;" d="M226.975,194.548c0,6.515-5.283,11.799-11.799,11.799c-6.515,0-11.799-5.283-11.799-11.799
		c0-2.169,0.587-4.199,1.612-5.944h20.375C226.39,190.348,226.975,192.379,226.975,194.548z"/>
	<path style="fill:#474F70;" d="M259.519,276.5H227.76v-9.61h31.759c7.923,0,14.369-6.447,14.369-14.369v-30.51h9.61v30.51
		C283.499,265.743,272.742,276.5,259.519,276.5z"/>
</g>
<g>
	<path style="fill:#EAB689;" d="M106.144,164.661c-2.753,0-5.114,2.154-5.165,4.906c-0.051,2.804,2.206,5.093,4.999,5.093h27.401
		c10.88,0,19.699,8.82,19.699,19.699v48.806h4.964c6.377,0,11.546-5.169,11.546-11.546v-51.915c0-8.308-6.735-15.043-15.043-15.043
		H106.144z"/>
	<path style="fill:#EAB689;" d="M183.887,259.506c-10.829,3.568-22.523,3.568-33.352,0c-2.894-0.943-6.199,0.187-7.486,2.896l0,0
		c-1.286,2.698,0.491,6.219,4.093,7.403c13.032,4.294,27.107,4.294,40.137,0c3.603-1.183,5.378-4.706,4.093-7.403l0,0
		C190.088,259.691,186.78,258.563,183.887,259.506z"/>
	<path style="fill:#EAB689;" d="M173.081,280.255h-11.743c-2.994,0-5.422,2.427-5.422,5.422l0,0c0,2.994,2.427,5.422,5.422,5.422
		h11.743c2.994,0,5.422-2.427,5.422-5.422l0,0C178.503,282.683,176.076,280.255,173.081,280.255z"/>
</g>
<g>
	<path style="fill:#17A3BF;" d="M119.177,321.153l43.089,18.468c4.441,1.904,6.263,7.23,3.916,11.454l-13.955,25.119
		c-2.708,4.873-9.397,5.653-13.153,1.534l-35.511-38.948c-3.274-3.59-2.7-9.23,1.23-12.087l6.376-4.637
		C113.493,320.364,116.536,320.021,119.177,321.153z"/>
	<path style="fill:#17A3BF;" d="M215.245,321.153l-43.09,18.468c-4.441,1.904-6.262,7.23-3.916,11.454l13.955,25.119
		c2.708,4.873,9.397,5.653,13.153,1.534l35.511-38.948c3.274-3.59,2.7-9.23-1.23-12.087l-6.376-4.637
		C220.928,320.364,217.886,320.021,215.245,321.153z"/>
</g>
<path style="fill:#474F70;" d="M289.059,155.406h-11.325c-7.353,0-13.314,5.961-13.314,13.314v52.294
	c0,7.353,5.961,13.314,13.314,13.314h11.325V155.406z"/>
<path style="fill:#55CEED;" d="M291.013,155.406L291.013,155.406c-6.804,0-12.319,5.516-12.319,12.319v54.283
	c0,6.804,5.516,12.319,12.319,12.319l0,0c12.591,0,22.799-10.208,22.799-22.799v-33.324
	C313.813,165.614,303.606,155.406,291.013,155.406z"/>
<path style="fill:#474F70;" d="M45.363,155.406h11.325c7.353,0,13.314,5.961,13.314,13.314v52.294
	c0,7.353-5.961,13.314-13.314,13.314H45.363V155.406z"/>
<path style="fill:#55CEED;" d="M43.408,155.406L43.408,155.406c6.804,0,12.319,5.516,12.319,12.319v54.283
	c0,6.804-5.516,12.319-12.319,12.319l0,0c-12.591,0-22.799-10.208-22.799-22.799v-33.324
	C20.608,165.614,30.816,155.406,43.408,155.406z"/>
<path style="fill:#17A3BF;" d="M31.687,211.53v-33.324c0-10.364,6.918-19.107,16.386-21.878c-1.44-0.59-3.014-0.921-4.665-0.921l0,0
	c-12.591,0-22.799,10.208-22.799,22.799v33.324c0,12.591,10.208,22.799,22.799,22.799l0,0c1.652,0,3.226-0.33,4.665-0.921
	C38.605,230.637,31.687,221.894,31.687,211.53z"/>
<circle style="fill:#55CEED;" cx="227.758" cy="271.691" r="10.572"/>
<g>
	<circle style="fill:#FFFFFF;" cx="167.207" cy="402.557" r="10.091"/>
	<circle style="fill:#FFFFFF;" cx="167.207" cy="441.006" r="10.091"/>
</g>
<path style="fill:#17A3BF;" d="M411.22,383.312l-1.537,74.344c-13.959,10.76-29.081,20.108-45.128,27.825
	c-3.801,1.828-7.644,3.562-11.549,5.193c-3.043,1.288-6.117,2.513-9.223,3.677c-3.801,1.423-7.644,2.763-11.529,3.999
	l10.147-115.359l20.066,0.093L411.22,383.312z"/>
<path style="fill:#55CEED;" d="M411.22,383.312l-1.537,74.344c-13.959,10.76-29.081,20.108-45.128,27.825
	c-3.801,1.828-7.644,3.562-11.549,5.193l9.462-107.59L411.22,383.312z"/>
<path style="fill:#FECD9C;" d="M405.241,323.923l-31.425-12.942c-10.255-4.224-21.994,0.666-26.217,10.922l-10.239,24.861
	c-11.993,29.121,1.891,62.45,31.012,74.444l26.022,10.716l12.657-30.732"/>
<path style="fill:#EAB689;" d="M384.297,421.207c-29.121-11.993-43.005-45.323-31.012-74.444l10.239-24.861
	c2.078-5.046,5.979-8.784,10.624-10.785l-0.332-0.137c-10.255-4.224-21.994,0.666-26.217,10.922l-10.239,24.861
	c-11.993,29.121,1.891,62.451,31.012,74.444l26.022,10.716l2.31-5.607L384.297,421.207z"/>
<rect x="382.294" y="257.181" style="fill:#474F70;" width="27.697" height="193.879"/>
<path style="fill:#FECD9C;" d="M382.049,358.338l31.978-13.321c5.825-2.426,8.579-9.115,6.153-14.939l0,0
	c-2.426-5.825-9.115-8.579-14.939-6.153l-31.978,13.321c-5.825,2.426-8.579,9.115-6.153,14.939l0,0
	C369.536,358.009,376.225,360.764,382.049,358.338z"/>
<path style="fill:#EAB689;" d="M391.743,354.01c-5.825,2.426-12.513-0.328-14.939-6.153l0,0c-2.104-5.051-0.307-10.748,4.005-13.755
	l-7.546,3.143c-5.825,2.426-8.579,9.115-6.153,14.939l0,0c2.426,5.825,9.115,8.579,14.939,6.153L391.743,354.01z"/>
<g>
	<path style="fill:#FECD9C;" d="M390.836,379.43l31.978-13.321c5.825-2.426,8.579-9.115,6.153-14.939l0,0
		c-2.426-5.825-9.115-8.579-14.939-6.153l-31.978,13.321c-5.825,2.426-8.579,9.115-6.153,14.939l0,0
		C378.323,379.102,385.011,381.856,390.836,379.43z"/>
	<path style="fill:#FECD9C;" d="M399.623,400.523l31.978-13.321c5.825-2.426,8.579-9.115,6.153-14.939l0,0
		c-2.426-5.825-9.115-8.579-14.939-6.153l-31.978,13.321c-5.825,2.426-8.579,9.115-6.153,14.939l0,0
		C387.109,400.194,393.798,402.949,399.623,400.523z"/>
	<path style="fill:#FECD9C;" d="M408.409,421.615l22.813-9.503c5.825-2.426,8.579-9.115,6.153-14.939l0,0
		c-2.426-5.825-9.115-8.579-14.939-6.153l-22.813,9.503c-5.825,2.426-8.579,9.115-6.153,14.939l0,0
		C395.896,421.287,402.585,424.042,408.409,421.615z"/>
</g>
<g>
	<path style="fill:#EAB689;" d="M400.53,375.103c-5.825,2.426-12.513-0.328-14.939-6.153l0,0
		c-2.104-5.051-0.307-10.748,4.005-13.755l-7.546,3.143c-5.825,2.426-8.579,9.115-6.153,14.939l0,0
		c2.426,5.825,9.115,8.579,14.939,6.153L400.53,375.103z"/>
	<path style="fill:#EAB689;" d="M409.317,396.195c-5.825,2.426-12.513-0.328-14.939-6.153l0,0
		c-2.104-5.051-0.307-10.748,4.005-13.755l-7.546,3.143c-5.825,2.426-8.579,9.115-6.153,14.939l0,0
		c2.426,5.825,9.115,8.579,14.939,6.153L409.317,396.195z"/>
	<path style="fill:#EAB689;" d="M418.104,417.287c-5.825,2.426-12.513-0.328-14.939-6.153l0,0
		c-2.104-5.051-0.307-10.748,4.005-13.755l-7.546,3.143c-5.825,2.426-8.579,9.115-6.153,14.939l0,0
		c2.426,5.825,9.115,8.579,14.939,6.153L418.104,417.287z"/>
</g>
<circle style="fill:#FF4F6F;" cx="390.946" cy="163.197" r="121.051"/>
<path style="fill:#FFFFFF;" d="M447.061,193.848l-30.653-30.653l30.652-30.652c2.946-2.946,2.946-7.722,0-10.668l-14.792-14.792
	c-2.946-2.946-7.722-2.946-10.668,0l-30.652,30.652l-30.653-30.653c-2.945-2.946-7.722-2.946-10.668,0l-14.792,14.792
	c-2.945,2.946-2.945,7.722,0,10.668l30.653,30.653l-30.652,30.652c-2.946,2.946-2.946,7.722,0,10.668l14.792,14.792
	c2.945,2.946,7.722,2.946,10.668,0l30.652-30.652l30.653,30.653c2.946,2.946,7.722,2.946,10.668,0l14.792-14.792
	C450.007,201.571,450.007,196.794,447.061,193.848z"/>
<g>
</g>
<g>
</g>
<g>
</g>
<g>
</g>
<g>
</g>
<g>
</g>
<g>
</g>
<g>
</g>
<g>
</g>
<g>
</g>
<g>
</g>
<g>
</g>
<g>
</g>
<g>
</g>
<g>
</g>
</svg>
