<?xml version="1.0" encoding="iso-8859-1"?>
<!-- Generator: Adobe Illustrator 19.0.0, SVG Export Plug-In . SVG Version: 6.00 Build 0)  -->
<svg version="1.1" id="Capa_1" xmlns="http://www.w3.org/2000/svg" xmlns:xlink="http://www.w3.org/1999/xlink" x="0px" y="0px"
	 viewBox="0 0 512 512" style="enable-background:new 0 0 512 512;" xml:space="preserve">
<circle style="fill:#535E8A;" cx="256" cy="256" r="256"/>
<g>
	<path style="fill:#323B5B;" d="M111.028,100.056L111.028,100.056c-12.118,0-21.942,9.824-21.942,21.942v268.003
		c0,12.118,9.824,21.942,21.942,21.942l0,0c12.118,0,21.942-9.824,21.942-21.942V121.998
		C132.97,109.88,123.145,100.056,111.028,100.056z"/>
	<path style="fill:#323B5B;" d="M400.972,100.056L400.972,100.056c12.118,0,21.942,9.824,21.942,21.942v268.003
		c0,12.118-9.824,21.942-21.942,21.942l0,0c-12.118,0-21.942-9.824-21.942-21.942V121.998
		C379.03,109.88,388.855,100.056,400.972,100.056z"/>
	<path style="fill:#323B5B;" d="M256,100.056L256,100.056c12.118,0,21.942,9.824,21.942,21.942v268.003
		c0,12.118-9.824,21.942-21.942,21.942l0,0c-12.118,0-21.942-9.824-21.942-21.942V121.998
		C234.058,109.88,243.882,100.056,256,100.056z"/>
</g>
<g>
	<circle style="fill:#FCC72E;" cx="256" cy="156.306" r="38.024"/>
	<circle style="fill:#FCC72E;" cx="111.031" cy="351.692" r="38.024"/>
	<circle style="fill:#FCC72E;" cx="400.969" cy="256" r="38.024"/>
</g>
<g>
</g>
<g>
</g>
<g>
</g>
<g>
</g>
<g>
</g>
<g>
</g>
<g>
</g>
<g>
</g>
<g>
</g>
<g>
</g>
<g>
</g>
<g>
</g>
<g>
</g>
<g>
</g>
<g>
</g>
</svg>
