<svg id="brain-medic" enable-background="new 0 0 300 300" height="512" viewBox="0 0 300 300" width="512" xmlns="http://www.w3.org/2000/svg"><g><path d="m147.172 108.828c.781.781 1.805 1.172 2.828 1.172s2.047-.391 2.828-1.172c1.562-1.562 1.562-4.094 0-5.656l-5.172-5.172h18.344c2.209 0 4-1.789 4-4s-1.791-4-4-4h-18.344l5.172-5.172c1.562-1.562 1.562-4.094 0-5.656s-4.094-1.562-5.656 0l-12 12c-1.562 1.562-1.562 4.094 0 5.656z"/><path d="m45.449 100.883c-.508 10.77 3.021 21.129 9.939 29.172 1.014 1.176 1.062 2.258 1.055 5.211l-.002 22.734c0 2.211 1.791 4 4 4s4-1.789 4-4l.002-22.711c.01-3.418.021-6.953-2.988-10.453-5.58-6.484-8.426-14.859-8.014-23.574.062-1.3.205-2.594.416-3.874 1.33.359 2.701.612 4.143.612 8.822 0 16-7.176 16-16 0-3.223-.976-6.215-2.621-8.728 3.554-1.792 7.4-2.884 11.318-3.182 7.007-.505 13.773 1.324 19.519 5.177-2.593 2.845-4.216 6.589-4.216 10.733 0 8.824 7.178 16 16 16 .95 0 1.87-.121 2.776-.281.055.54.204 1.063.468 1.531l5.986 14.594-5.926 1.359c-1.66.379-2.896 1.77-3.082 3.461l-2.23 20.297h-13.465c-1.096 0-2.143.449-2.898 1.242-.754.793-1.15 1.863-1.096 2.957l.523 10.543c.105 2.137 1.873 3.801 3.99 3.801.068 0 .135 0 .203-.004 2.205-.109 3.906-1.988 3.795-4.195l-.314-6.344h10.389c3.467 0 6.354-2.637 6.715-6.109l2.031-18.488 4.523-1.035c1.857-.434 3.457-1.645 4.389-3.332.949-1.715 1.127-3.758.406-5.824l-6.496-15.852c-.047-.767-.171-1.523-.259-2.285 3.384-2.936 5.572-7.214 5.572-12.036 0-8.824-7.178-16-16-16-1.572 0-3.06.298-4.496.722-7.779-6.287-17.406-9.355-27.41-8.609-5.997.455-11.819 2.429-17.031 5.603-2.139-1.063-4.516-1.716-7.063-1.716-8.822 0-16 7.176-16 16 0 4.367 1.766 8.322 4.611 11.212-.601 2.515-1.038 5.075-1.162 7.671zm76.551-14.883c0 4.41-3.588 8-8 8s-8-3.59-8-8 3.588-8 8-8 8 3.59 8 8zm-64-12c4.412 0 8 3.59 8 8s-3.588 8-8 8-8-3.59-8-8 3.588-8 8-8z"/><path d="m266 258h-27.814l2.222-48.887c.945-.731 1.592-1.824 1.592-3.113v-12-.684c1.252.441 2.598.684 4 .684 6.617 0 12-5.383 12-12v-57.977c0-16.485-12.064-30.615-28-33.487v-1.22c4.656-1.652 8-6.102 8-11.316v-30.707c0-7.328-5.963-13.293-13.293-13.293h-30.707c-2.209 0-4 1.789-4 4 0 6.516 3.179 12.259 8.018 15.912-.001.031-.018.057-.018.088v24c0 5.215 3.344 9.664 8 11.316v1.226c-8.059 1.421-15.023 5.606-20 11.51v-48.052c0-2.211-1.791-4-4-4h-148c-2.209 0-4 1.789-4 4v128c0 2.211 1.791 4 4 4h16v72h-16c-2.209 0-4 1.789-4 4s1.791 4 4 4h232c2.209 0 4-1.789 4-4s-1.791-4-4-4zm-120-72v72h-76v-72zm8 0h4v72h-4zm12 0h16c2.209 0 4-1.789 4-4v-28h8v52c0 1.288.648 2.381 1.592 3.113l2.222 48.887h-31.814zm37.641 24h10.359v48h-8.177zm18.359 0h10.359l-2.182 48h-8.177zm24-24c-2.205 0-4-1.793-4-4v-4h8v4c0 2.207-1.795 4-4 4zm-21.293-144c2.918 0 5.293 2.375 5.293 5.293v2.707h-20c-5.215 0-9.664-3.344-11.314-8zm5.293 16v20c0 2.207-1.795 4-4 4-2.209 0-4 1.789-4 4v12c0 2.207-1.795 4-4 4s-4-1.793-4-4v-12c0-2.211-1.791-4-4-4-2.205 0-4-1.793-4-4v-20zm-23.928 40.708c.292 4.894 3.499 8.976 7.928 10.555v28.737c0 2.211 1.791 4 4 4s4-1.789 4-4v-28.737c4.426-1.578 7.631-5.655 7.927-10.543 11.512 2.719 20.073 13.162 20.073 25.303v45.977h-8v-44c0-2.211-1.791-4-4-4s-4 1.789-4 4v76h-32v-72c0-2.211-1.791-4-4-4s-4 1.789-4 4v16h-20v-8h8c2.209 0 4-1.789 4-4v-.703-9.273c0-12.331 8.413-22.626 20.072-25.316zm-44.072 47.292c-2.205 0-4-1.793-4-4s1.795-4 4-4h4v8zm16-88v66.023 5.977h-16c-6.617 0-12 5.383-12 12s5.383 12 12 12h16v12h-140v-108zm-140 116h140v4h-140zm20 12h4v72h-4z"/><path d="m256 72.276c2.362 0 4.276-1.915 4.276-4.276s-1.915-4.277-4.276-4.277-4.276 1.915-4.276 4.277 1.914 4.276 4.276 4.276z"/><path d="m96.344 226-2.828 2.828c-1.562 1.562-1.562 4.094 0 5.656.781.781 1.805 1.172 2.828 1.172s2.047-.391 2.828-1.172l2.828-2.828 2.828 2.828c.781.781 1.805 1.172 2.828 1.172s2.047-.391 2.828-1.172c1.562-1.562 1.562-4.094 0-5.656l-2.828-2.828 2.828-2.828c1.562-1.562 1.562-4.094 0-5.656s-4.094-1.562-5.656 0l-2.828 2.828-2.828-2.828c-1.562-1.562-4.094-1.562-5.656 0s-1.562 4.094 0 5.656z"/></g></svg>