<svg id="butcher" enable-background="new 0 0 300 300" height="512" viewBox="0 0 300 300" width="512" xmlns="http://www.w3.org/2000/svg"><g><path d="m94 104c-8.822 0-16 7.178-16 16s7.178 16 16 16 16-7.178 16-16-7.178-16-16-16zm0 24c-4.412 0-8-3.588-8-8s3.588-8 8-8 8 3.588 8 8-3.588 8-8 8z"/><path d="m266 264h-27.814l2.222-48.888c.945-.732 1.592-1.825 1.592-3.112v-12-.686c1.252.443 2.598.686 4 .686 6.617 0 12-5.383 12-12v-57.975c0-16.484-12.064-30.613-28-33.488v-1.223c4.656-1.65 8-6.1 8-11.314v-52c0-2.209-1.791-4-4-4h-32c-2.209 0-4 1.791-4 4v52c0 5.215 3.344 9.664 8 11.314v1.226c-8.059 1.422-15.023 5.607-20 11.511v-40.051c0-2.209-1.791-4-4-4h-132c-2.209 0-4 1.791-4 4v104c-2.209 0-4 1.791-4 4v12c0 2.209 1.791 4 4 4h12v72h-24c-2.209 0-4 1.791-4 4s1.791 4 4 4h232c2.209 0 4-1.791 4-4s-1.791-4-4-4zm-112-72v72h-76v-72zm8 0h4v72h-4zm12 0h12c2.209 0 4-1.791 4-4v-12c0-2.209-1.791-4-4-4v-12h8v52c0 1.287.648 2.38 1.592 3.112l2.222 48.888h-23.814zm29.641 24h10.359v48h-8.177zm18.359 0h10.359l-2.182 48h-8.177zm24-24c-2.205 0-4-1.795-4-4v-4h8v4c0 2.205-1.795 4-4 4zm-20-104c-2.209 0-4 1.791-4 4v12c0 2.205-1.795 4-4 4s-4-1.795-4-4v-12c0-2.209-1.791-4-4-4-2.205 0-4-1.795-4-4v-20h24v20c0 2.205-1.795 4-4 4zm4-52v20h-24v-20zm-23.929 68.706c.291 4.895 3.498 8.978 7.929 10.557v28.737c0 2.209 1.791 4 4 4s4-1.791 4-4v-28.737c4.427-1.578 7.632-5.656 7.927-10.545 11.512 2.725 20.073 13.167 20.073 25.307v45.975h-8v-44c0-2.209-1.791-4-4-4s-4 1.791-4 4v76h-32v-72c0-2.209-1.791-4-4-4s-4 1.791-4 4v16h-20v-8h8c1.894 0 3.406-1.344 3.821-3.111h.179v-.889-9.975c0-12.331 8.412-22.63 20.071-25.319zm-55.891 41.511c-2.562 1.149-5.35 1.783-8.18 1.783h-44c-7.961 0-15.572-3.406-20.883-9.348-5.383-6.02-7.844-13.801-6.934-21.91 1.426-12.688 11.652-23.002 24.318-24.531 7.566-.902 14.957 1.158 20.838 5.826 7.727 6.133 17.414 9.674 27.279 9.973 1.279.039 2.576.199 3.861.48 7.49 1.631 13.549 7.754 15.082 15.24.888 4.341.353 8.593-1.397 12.455-5.156.8-9.205 4.867-9.984 10.032zm11.82-2.217h4v8h-4c-2.205 0-4-1.795-4-4s1.795-4 4-4zm-108-72h124v58.025 5.975h-9.198c1.315-4.44 1.554-9.2.597-13.875-2.156-10.537-10.682-19.158-21.213-21.451-1.764-.385-3.557-.607-5.326-.66-8.152-.248-16.16-3.174-22.547-8.242-7.563-6.006-17.059-8.668-26.768-7.502-16.309 1.967-29.477 15.248-31.311 31.578-1.152 10.252 2.1 20.508 8.918 28.137 6.827 7.636 16.612 12.015 26.848 12.015h44c3.351 0 6.663-.635 9.78-1.795 2.108 3.459 5.881 5.795 10.22 5.795h16v12h-124zm-4 108h132v4h-132zm16 12h4v72h-4z"/><path d="m152 46.276c2.362 0 4.276-1.915 4.276-4.276s-1.915-4.277-4.276-4.277-4.276 1.915-4.276 4.277 1.914 4.276 4.276 4.276z"/><path d="m105.516 52.484c.781.781 1.805 1.172 2.828 1.172s2.047-.391 2.828-1.172l2.828-2.828 2.828 2.828c.781.781 1.805 1.172 2.828 1.172s2.047-.391 2.828-1.172c1.562-1.562 1.562-4.094 0-5.656l-2.828-2.828 2.828-2.828c1.562-1.562 1.562-4.094 0-5.656s-4.094-1.562-5.656 0l-2.828 2.828-2.828-2.828c-1.562-1.562-4.094-1.562-5.656 0s-1.562 4.094 0 5.656l2.828 2.828-2.828 2.828c-1.563 1.563-1.563 4.094 0 5.656z"/></g></svg>