<svg id="cars" enable-background="new 0 0 300 300" height="512" viewBox="0 0 300 300" width="512" xmlns="http://www.w3.org/2000/svg"><g><path d="m268 258h-27.814l2.956-65.027c1.484.66 3.129 1.027 4.857 1.027 6.617 0 12-5.383 12-12v-57.975c0-16.499-12.058-30.617-28-33.489v-1.222c4.656-1.65 8-6.1 8-11.314v-30.707c.001-7.33-5.962-13.293-13.292-13.293h-30.707c-2.209 0-4 1.791-4 4h-152c-2.209 0-4 1.791-4 4v120c0 2.209 1.791 4 4 4h58.308l-33.12 92h-33.188c-2.209 0-4 1.791-4 4s1.791 4 4 4h236c2.209 0 4-1.791 4-4s-1.791-4-4-4zm-48-68c-2.209 0-4 1.791-4 4v64h-8.178l-3.64-80h31.632l-3.636 80h-8.178v-64c0-2.209-1.791-4-4-4zm-86.812-24 33.12 92h-80.616l33.12-92zm8.504 0h3.497l33.12 92h-3.497zm12 0h42.312l.001 8.182 3.81 83.818h-13.002zm94.308 20c-2.205 0-4-1.795-4-4v-4h8v4c0 2.205-1.795 4-4 4zm4-61.975v45.975h-8v-44c0-2.209-1.791-4-4-4s-4 1.791-4 4v44h-32v-40c0-2.209-1.791-4-4-4s-4 1.791-4 4l.001 16h-20.001v-8h8c2.209 0 4-1.791 4-4v-9.975c0-12.16 8.553-22.588 20.073-25.308.379 6.278 5.555 11.283 11.927 11.283s11.548-5.005 11.927-11.283c11.516 2.723 20.073 13.158 20.073 25.308zm-88 21.975c-2.205 0-4-1.795-4-4s1.795-4 4-4h4v8zm68-68c0 2.205-1.795 4-4 4-2.209 0-4 1.791-4 4v12c0 2.205-1.795 4-4 4s-4-1.795-4-4v-12c0-2.209-1.791-4-4-4-2.205 0-4-1.795-4-4v-20h24zm-5.293-36c2.918 0 5.293 2.375 5.293 5.293v2.707h-20c-5.215 0-9.664-3.344-11.314-8zm-182.707 4h149.695c1.388 3.162 3.598 5.855 6.322 7.912 0 .031-.017.057-.017.088v24c0 5.215 3.344 9.664 8 11.314v1.224c-15.946 2.872-28 16.976-28 33.487v5.975h-16c-6.617 0-12 5.383-12 12s5.383 12 12 12h32.002v4h-152.002zm62.812 120h3.497l-33.12 92h-3.497z"/><path d="m114 236.276c2.362 0 4.276-1.915 4.276-4.276s-1.915-4.277-4.276-4.277-4.276 1.915-4.276 4.277 1.914 4.276 4.276 4.276z"/><path d="m47.516 214.484c.781.781 1.805 1.172 2.828 1.172s2.047-.391 2.828-1.172l2.828-2.828 2.828 2.828c.781.781 1.805 1.172 2.828 1.172s2.047-.391 2.828-1.172c1.562-1.562 1.562-4.094 0-5.656l-2.828-2.828 2.828-2.828c1.562-1.562 1.562-4.094 0-5.656s-4.094-1.562-5.656 0l-2.828 2.828-2.828-2.828c-1.562-1.562-4.094-1.562-5.656 0s-1.562 4.094 0 5.656l2.828 2.828-2.828 2.828c-1.563 1.563-1.563 4.094 0 5.656z"/><path d="m56 126c-2.209 0-4 1.791-4 4s1.791 4 4 4h36c2.209 0 4-1.791 4-4s-1.791-4-4-4z"/><path d="m144 126h-40c-2.209 0-4 1.791-4 4s1.791 4 4 4h40c2.209 0 4-1.791 4-4s-1.791-4-4-4z"/><path d="m116 138h-60c-2.209 0-4 1.791-4 4s1.791 4 4 4h60c2.209 0 4-1.791 4-4s-1.791-4-4-4z"/><path d="m63.224 106c1.995 5.567 7.271 9.582 13.516 9.582s11.521-4.015 13.516-9.582h48.732c1.995 5.567 7.271 9.582 13.516 9.582s11.521-4.015 13.516-9.582h2.226c6.48 0 11.754-5.273 11.754-11.754v-7.693c0-11.332-9.221-20.553-20.553-20.553h-6.757l-19.962-15.184c-.697-.529-1.547-.816-2.422-.816h-37.115c-6.793 0-13.426 2.768-18.203 7.594l-8.32 8.406h-1.32c-9.567 0-17.348 7.781-17.348 17.348v10.898c0 6.481 5.273 11.754 11.754 11.754zm13.516 1.582c-3.533 0-6.408-2.875-6.408-6.408s2.875-6.408 6.408-6.408 6.408 2.875 6.408 6.408-2.875 6.408-6.408 6.408zm75.764 0c-3.533 0-6.408-2.875-6.408-6.408s2.875-6.408 6.408-6.408 6.408 2.875 6.408 6.408-2.875 6.408-6.408 6.408zm19.496-21.029v7.693c0 2.07-1.684 3.754-3.754 3.754h-1.712c-1.453-6.418-7.178-11.234-14.03-11.234s-12.577 4.816-14.03 11.234h-26.474v-24h47.447c6.922 0 12.553 5.631 12.553 12.553zm-32.524-20.553h-27.476v-8h16.959zm-58.8-2.777c3.283-3.321 7.845-5.223 12.515-5.223h10.809v8h-26.073zm-24.676 31.023v-10.898c0-5.155 4.193-9.348 9.348-9.348h38.652v24h-13.23c-1.453-6.418-7.178-11.234-14.03-11.234s-12.577 4.816-14.03 11.234h-2.956c-2.07 0-3.754-1.684-3.754-3.754z"/><path d="m258 72.276c2.362 0 4.276-1.915 4.276-4.276s-1.915-4.277-4.276-4.277-4.276 1.915-4.276 4.277 1.914 4.276 4.276 4.276z"/></g></svg>