<svg id="drone" enable-background="new 0 0 300 300" height="512" viewBox="0 0 300 300" width="512" xmlns="http://www.w3.org/2000/svg"><g><path d="m118 168.276c2.362 0 4.277-1.915 4.277-4.276s-1.915-4.277-4.277-4.277-4.276 1.915-4.276 4.277 1.914 4.276 4.276 4.276z"/><path d="m132.484 209.516c-1.562-1.562-4.094-1.562-5.656 0l-2.828 2.828-2.828-2.828c-1.562-1.562-4.094-1.562-5.656 0s-1.562 4.094 0 5.656l2.828 2.828-2.828 2.828c-1.562 1.562-1.562 4.094 0 5.656.781.781 1.805 1.172 2.828 1.172s2.047-.391 2.828-1.172l2.828-2.828 2.828 2.828c.781.781 1.805 1.172 2.828 1.172s2.047-.391 2.828-1.172c1.562-1.562 1.562-4.094 0-5.656l-2.828-2.828 2.828-2.828c1.563-1.563 1.563-4.094 0-5.656z"/><path d="m268 258h-31.814l2.956-65.027c1.484.66 3.129 1.027 4.857 1.027 6.617 0 12-5.383 12-12v-57.975c0-16.499-12.058-30.617-28-33.489v-1.222c4.656-1.65 8-6.1 8-11.314v-24-6.707c.001-7.33-5.962-13.293-13.292-13.293h-30.707c-2.209 0-4 1.791-4 4 0 6.516 3.179 12.258 8.018 15.912-.001.031-.018.057-.018.088v24c0 5.215 3.344 9.664 8 11.314v1.224c-15.946 2.872-28 16.976-28 33.487v5.975h-16c-6.617 0-12 5.383-12 12s5.383 12 12 12h32.002l.002 20.182 3.81 83.818h-159.814c-2.209 0-4 1.791-4 4s1.791 4 4 4h232c2.209 0 4-1.791 4-4s-1.791-4-4-4zm-24-72c-2.205 0-4-1.795-4-4v-4h8v4c0 2.205-1.795 4-4 4zm-21.293-144c2.918 0 5.293 2.375 5.293 5.293v2.707h-20c-5.215 0-9.664-3.344-11.314-8zm5.293 16v20c0 2.205-1.795 4-4 4-2.209 0-4 1.791-4 4v12c0 2.205-1.795 4-4 4s-4-1.795-4-4v-12c0-2.209-1.791-4-4-4-2.205 0-4-1.795-4-4v-20zm-72 84c0-2.205 1.795-4 4-4h4v8h-4c-2.205 0-4-1.795-4-4zm16 4v-8h8c2.209 0 4-1.791 4-4v-9.975c0-12.16 8.553-22.588 20.073-25.308.379 6.278 5.555 11.283 11.927 11.283s11.548-5.005 11.927-11.283c11.516 2.723 20.073 13.158 20.073 25.308v45.975h-8v-44c0-2.209-1.791-4-4-4s-4 1.791-4 4v44h-32v-40c0-2.209-1.791-4-4-4s-4 1.791-4 4l.001 16zm28.182 32h31.632l-3.636 80h-8.178v-64c0-2.209-1.791-4-4-4s-4 1.791-4 4v64h-8.178z"/><path d="m60 182c0 6.617 5.383 12 12 12s12-5.383 12-12-5.383-12-12-12-12 5.383-12 12zm16 0c0 2.205-1.795 4-4 4s-4-1.795-4-4 1.795-4 4-4 4 1.795 4 4z"/><path d="m44 52.531v13.469h-8c-2.209 0-4 1.791-4 4v12c0 2.209 1.791 4 4 4h16.301c1.081 4.576 5.175 8 10.076 8h14.562l-14.923 8.527c-1.246.711-2.016 2.037-2.016 3.473v12c0 2.209 1.791 4 4 4s4-1.791 4-4v-9.68l25.061-14.32h17.877l25.062 14.32v9.68c0 2.209 1.791 4 4 4s4-1.791 4-4v-12c0-1.436-.77-2.762-2.016-3.473l-14.923-8.527h14.562c4.901 0 8.995-3.424 10.076-8h16.301c2.209 0 4-1.791 4-4v-12c0-2.209-1.791-4-4-4h-8v-14.469l12.496-1.562c2.191-.273 3.746-2.273 3.473-4.465-.273-2.193-2.299-3.768-4.465-3.473l-11.504 1.438v-1.469c0-2.209-1.791-4-4-4s-4 1.791-4 4v2.469l-12.496 1.562c-2.191.273-3.746 2.273-3.473 4.465.252 2.023 1.977 3.504 3.963 3.504.166 0 .334-.01.502-.031l11.504-1.438v13.469h-4.102c-3.655-4.828-9.39-8-15.898-8h-13.043c-4.039-4.883-10.14-8-16.957-8s-12.919 3.117-16.957 8h-13.043c-6.508 0-12.243 3.172-15.898 8h-4.102v-14.469l12.496-1.562c2.191-.273 3.746-2.273 3.473-4.465-.275-2.193-2.295-3.768-4.465-3.473l-11.504 1.438v-1.469c0-2.209-1.791-4-4-4s-4 1.791-4 4v2.469l-12.496 1.562c-2.191.273-3.746 2.273-3.473 4.465.252 2.024 1.977 3.504 3.963 3.504.166 0 .334-.01.502-.031zm120 21.469v4h-12c0-1.37-.141-2.707-.404-4zm-32-8c6.617 0 12 5.383 12 12v5.623c0 1.311-1.066 2.377-2.377 2.377h-22.666c3.148-3.806 5.043-8.686 5.043-14 0-2.082-.31-4.09-.853-6zm-30-8c7.719 0 14 6.281 14 14s-6.281 14-14 14-14-6.281-14-14 6.281-14 14-14zm-30 8h8.853c-.543 1.91-.853 3.918-.853 6 0 5.314 1.895 10.194 5.043 14h-22.666c-1.311 0-2.377-1.066-2.377-2.377v-5.623c0-6.617 5.383-12 12-12zm-20 12h-12v-4h12.404c-.263 1.293-.404 2.63-.404 4z"/></g></svg>