<svg id="electricity" enable-background="new 0 0 300 300" height="512" viewBox="0 0 300 300" width="512" xmlns="http://www.w3.org/2000/svg"><g><path d="m36 244.276c2.362 0 4.276-1.915 4.276-4.276s-1.915-4.277-4.276-4.277-4.276 1.915-4.276 4.277 1.914 4.276 4.276 4.276z"/><path d="m70 98h4v12c0 2.209 1.789 4 4 4s4-1.791 4-4v-12h4c2.211 0 4-1.791 4-4v-16c0-2.209-1.789-4-4-4h-4v-12c0-2.209-1.789-4-4-4s-4 1.791-4 4v12h-4c-2.211 0-4 1.791-4 4v16c0 2.209 1.789 4 4 4zm4-16h8v8h-8z"/><path d="m102 98h4v12c0 2.209 1.789 4 4 4s4-1.791 4-4v-12h4c2.211 0 4-1.791 4-4v-16c0-2.209-1.789-4-4-4h-4v-12c0-2.209-1.789-4-4-4s-4 1.791-4 4v12h-4c-2.211 0-4 1.791-4 4v16c0 2.209 1.789 4 4 4zm4-16h8v8h-8z"/><path d="m134 98h4v12c0 2.209 1.789 4 4 4s4-1.791 4-4v-12h4c2.211 0 4-1.791 4-4v-16c0-2.209-1.789-4-4-4h-4v-12c0-2.209-1.789-4-4-4s-4 1.791-4 4v12h-4c-2.211 0-4 1.791-4 4v16c0 2.209 1.789 4 4 4zm4-16h8v8h-8z"/><path d="m117.438 123.375c0-1.762-1.152-3.318-2.84-3.828-1.684-.52-3.512.143-4.488 1.609l-24 36c-.816 1.227-.895 2.805-.199 4.105s2.051 2.113 3.527 2.113h12v20c0 1.799 1.199 3.375 2.934 3.855.352.098.711.145 1.066.145 1.379 0 2.695-.715 3.43-1.941l24-40c.742-1.236.762-2.775.051-4.029s-2.039-2.029-3.48-2.029h-12v-16zm4.933 24-12.934 21.559v-9.559c0-2.209-1.789-4-4-4h-8.527l12.527-18.789v6.789c0 2.209 1.789 4 4 4z"/><circle cx="66" cy="190" r="4"/><circle cx="82" cy="190" r="4"/><circle cx="134" cy="190" r="4"/><circle cx="150" cy="190" r="4"/><path d="m266 262h-31.814l2.954-65.05c1.489.664 3.127 1.05 4.86 1.05 6.617 0 12-5.383 12-12v-57.975c0-16.489-12.063-30.617-28-33.49v-1.221c4.656-1.65 8-6.1 8-11.314v-20c2.211 0 4-1.791 4-4v-11.789c0-8.94-7.273-16.211-16.211-16.211h-15.578c-8.938 0-16.211 7.271-16.211 16.211v11.789c0 2.209 1.789 4 4 4v20c0 5.215 3.344 9.664 8 11.314v1.226c-15.118 2.735-26.872 15.663-27.898 31.467l-.067 7.993h-4.035v-84c0-2.209-1.789-4-4-4h-112c-2.211 0-4 1.791-4 4v152c0 2.209 1.789 4 4 4v12c0 2.209 1.789 4 4 4h8v40h-32c-2.211 0-4 1.791-4 4s1.789 4 4 4h232c2.211 0 4-1.791 4-4s-1.789-4-4-4zm-52-68c-2.211 0-4 1.791-4 4v64h-8.178l-3.822-84v-73.889c1.313-.558 2.667-1.018 4.077-1.353.399 6.259 5.565 11.242 11.923 11.242 6.371 0 11.548-5.005 11.927-11.282 1.405.333 2.766.774 4.073 1.327l.001 25.948c0 .002-.001.005-.001.007v47.904l-3.823 84.096h-8.177v-64c0-2.209-1.789-4-4-4zm-80 28v40h-48v-40zm8 0h4v40h-4zm12 0h8c2.211 0 4-1.791 4-4v-12c2.211 0 4-1.791 4-4v-44h20.003l.001 20.182 3.81 83.818h-39.814zm92-93.975v57.975c0 2.205-1.793 4-4 4s-4-1.795-4-4v-8-48-20.652c4.923 4.766 8 11.413 8 18.677zm-48-81.814c0-4.527 3.684-8.211 8.211-8.211h15.578c4.527 0 8.211 3.684 8.211 8.211v7.789h-32zm28 15.789v20c0 2.205-1.793 4-4 4-2.211 0-4 1.791-4 4v12c0 2.205-1.793 4-4 4s-4-1.795-4-4v-12c0-2.209-1.789-4-4-4-2.207 0-4-1.795-4-4v-20zm-48 80c2.195 0 3.98-1.77 4-3.967l.094-11.73c.431-6.597 3.406-12.534 7.907-16.906l.001 40.603h-32.002c-2.207 0-4-1.795-4-4s1.793-4 4-4zm-16-88v80h-4c-6.617 0-12 5.383-12 12s5.383 12 12 12h4v40h-104v-36h8c2.211 0 4-1.791 4-4s-1.789-4-4-4h-8v-4h8c2.211 0 4-1.791 4-4s-1.789-4-4-4h-8v-4h8c2.211 0 4-1.791 4-4s-1.789-4-4-4h-8v-76zm-100 152h96v8h-96zm12 16h4v40h-4z"/><path d="m245.516 94.484c.781.781 1.805 1.172 2.828 1.172s2.047-.391 2.828-1.172l2.828-2.828 2.828 2.828c.781.781 1.805 1.172 2.828 1.172s2.047-.391 2.828-1.172c1.562-1.562 1.562-4.094 0-5.656l-2.828-2.828 2.828-2.828c1.562-1.562 1.562-4.094 0-5.656s-4.094-1.562-5.656 0l-2.828 2.828-2.828-2.828c-1.562-1.562-4.094-1.562-5.656 0s-1.562 4.094 0 5.656l2.828 2.828-2.828 2.828c-1.563 1.563-1.563 4.094 0 5.656z"/><path d="m226 122c0-2.209-1.789-4-4-4h-16c-2.211 0-4 1.791-4 4s1.789 4 4 4h16c2.211 0 4-1.791 4-4z"/></g></svg>