<svg id="finance" enable-background="new 0 0 300 300" height="512" viewBox="0 0 300 300" width="512" xmlns="http://www.w3.org/2000/svg"><g><path d="m252 64.276c2.362 0 4.277-1.915 4.277-4.276s-1.915-4.277-4.277-4.277-4.276 1.915-4.276 4.277 1.914 4.276 4.276 4.276z"/><path d="m113.516 209.516c-1.562 1.562-1.562 4.094 0 5.656l2.828 2.828-2.828 2.828c-1.562 1.562-1.562 4.094 0 5.656.781.781 1.805 1.172 2.828 1.172s2.047-.391 2.828-1.172l2.828-2.828 2.828 2.828c.781.781 1.805 1.172 2.828 1.172s2.047-.391 2.828-1.172c1.562-1.562 1.562-4.094 0-5.656l-2.828-2.828 2.828-2.828c1.562-1.562 1.562-4.094 0-5.656s-4.094-1.562-5.656 0l-2.828 2.828-2.828-2.828c-1.563-1.563-4.094-1.563-5.656 0z"/><path d="m266 258h-31.814l2.956-65.027c1.484.66 3.129 1.027 4.857 1.027 6.617 0 12-5.383 12-12v-57.975c0-16.499-12.058-30.617-28-33.489v-1.222c4.656-1.65 8-6.1 8-11.314v-30.707c.001-7.33-5.962-13.293-13.292-13.293h-30.707c-2.209 0-4 1.791-4 4 0 6.516 3.179 12.258 8.018 15.912-.001.031-.018.057-.018.088v24c0 5.215 3.344 9.664 8 11.314v1.224c-7.998 1.44-14.99 5.726-20 11.705v-52.466c0-6.494-5.283-11.777-11.777-11.777h-120.446c-6.494 0-11.777 5.283-11.777 11.777v104.445c0 6.495 5.283 11.778 11.777 11.778h.223v92h-16c-2.209 0-4 1.791-4 4s1.791 4 4 4h232c2.209 0 4-1.791 4-4s-1.791-4-4-4zm-52-68c-2.209 0-4 1.791-4 4v64h-8.178l-3.64-80h31.632l-3.636 80h-8.178v-64c0-2.209-1.791-4-4-4zm-60-24v92h-84v-92zm8 0h4v92h-4zm12-.677c4.636-1.584 8-5.935 8-11.1v-.223h8.002l.002 20.182 3.81 83.818h-19.814zm68 20.677c-2.205 0-4-1.795-4-4v-4h8v4c0 2.205-1.795 4-4 4zm-21.293-144c2.918 0 5.293 2.375 5.293 5.293v2.707h-20c-5.215 0-9.664-3.344-11.314-8zm5.293 16v20c0 2.205-1.795 4-4 4-2.209 0-4 1.791-4 4v12c0 2.205-1.795 4-4 4s-4-1.795-4-4v-12c0-2.209-1.791-4-4-4-2.205 0-4-1.795-4-4v-20zm-23.927 40.717c.379 6.278 5.555 11.283 11.927 11.283s11.548-5.005 11.927-11.283c11.516 2.723 20.073 13.158 20.073 25.308v45.975h-8v-44c0-2.209-1.791-4-4-4s-4 1.791-4 4v44h-32v-40c0-2.209-1.791-4-4-4s-4 1.791-4 4l.001 16h-20.001v-8h8c2.209 0 4-1.791 4-4v-9.975c0-12.159 8.553-22.588 20.073-25.308zm-44.073 47.283c-2.205 0-4-1.795-4-4s1.795-4 4-4h4v8zm-112 8.223v-104.446c0-2.082 1.695-3.777 3.777-3.777h120.445c2.082 0 3.777 1.695 3.777 3.777v74.248 5.975h-16c-6.617 0-12 5.383-12 12s5.383 12 12 12h16v.223c0 2.082-1.695 3.777-3.777 3.777h-120.445c-2.082 0-3.777-1.695-3.777-3.777zm12 11.777h4v92h-4z"/><path d="m110 54c-26.467 0-48 21.533-48 48s21.533 48 48 48 48-21.533 48-48-21.533-48-48-48zm0 88c-22.057 0-40-17.943-40-40s17.943-40 40-40 40 17.943 40 40-17.943 40-40 40z"/><path d="m110 66c-19.85 0-36 16.15-36 36s16.15 36 36 36 36-16.15 36-36-16.15-36-36-36zm0 64c-15.439 0-28-12.561-28-28s12.561-28 28-28 28 12.561 28 28-12.561 28-28 28z"/><path d="m122 94c2.209 0 4-1.791 4-4s-1.791-4-4-4h-8v-4c0-2.209-1.791-4-4-4s-4 1.791-4 4v4h-8c-2.209 0-4 1.791-4 4v12c0 2.209 1.791 4 4 4h8v4h-8c-2.209 0-4 1.791-4 4s1.791 4 4 4h8v4c0 2.209 1.791 4 4 4s4-1.791 4-4v-4h8c2.209 0 4-1.791 4-4v-12c0-2.209-1.791-4-4-4h-8v-4zm-4 12v4h-4v-4zm-12-8h-4v-4h4z"/><path d="m106 198c6.617 0 12-5.383 12-12s-5.383-12-12-12-12 5.383-12 12 5.383 12 12 12zm0-16c2.205 0 4 1.795 4 4s-1.795 4-4 4-4-1.795-4-4 1.795-4 4-4z"/></g></svg>