<svg id="fitness" enable-background="new 0 0 300 300" height="512" viewBox="0 0 300 300" width="512" xmlns="http://www.w3.org/2000/svg"><g><path d="m266 260h-51.68l7.639-99.326 10.966-36.87 30.622-2.142c.865-.061 1.688-.4 2.344-.971 2.611-2.268 4.109-5.547 4.109-8.996 0-.135-.006-.268-.02-.4l-3.98-39.502v-11.793c0-2.209-1.791-4-4-4h-20c-2.209 0-4 1.791-4 4v12c0 2.209 1.791 4 4 4h3.996v19.072l-19.354-3.201c-.215-.035-.434-.053-.652-.053h-11.99v-31.818-6.707c0-7.33-5.963-13.293-13.293-13.293h-30.707c-2.209 0-4 1.791-4 4 0 6.516 3.179 12.258 8.018 15.912-.001.031-.018.057-.018.088v19.244c0 4.747 1.665 9.074 4.356 12.574h-16.346c-.219 0-.438.018-.652.053l-19.354 3.201v-19.072h3.996c2.209 0 4-1.791 4-4v-12c0-2.209-1.791-4-4-4h-20c-2.209 0-4 1.791-4 4v11.793l-3.98 39.501c-.014.133-.02.266-.02.4 0 3.449 1.498 6.729 4.109 8.996.656.57 1.479.91 2.344.971l30.622 2.142 10.966 36.87 7.639 99.327h-139.68c-2.209 0-4 1.791-4 4s1.791 4 4 4h232c2.209 0 4-1.791 4-4s-1.791-4-4-4zm-20-196h12v4h-8.004-3.996zm-45.293-16c2.918 0 5.293 2.375 5.293 5.293v2.707h-20c-5.215 0-9.664-3.344-11.314-8zm-18.707 31.244v-15.244h24v27.818h-13.041c-6.178-.883-10.959-6.156-10.959-12.574zm-52-15.244h12v4h-3.996-8.004zm-3.996 47.861 3.613-35.861h4.387v23.787c0 1.176.516 2.291 1.412 3.051.895.76 2.08 1.078 3.24.896l23.682-3.916h63.324l23.682 3.916c1.156.182 2.344-.137 3.24-.896s1.412-1.875 1.412-3.051v-23.787h4.387l3.613 35.861c-.029.691-.242 1.355-.611 1.932l-31.664 2.217c-.525.037-1.039.178-1.51.412l-15.154 7.578h-15.057v-8c0-2.209-1.791-4-4-4s-4 1.791-4 4v8h-15.057l-15.154-7.578c-.471-.234-.984-.375-1.51-.412l-31.664-2.217c-.369-.576-.582-1.24-.611-1.932zm38.597 15.912 7.61 3.805c.555.277 1.168.422 1.789.422h40c.621 0 1.234-.145 1.789-.422l7.61-3.805-8.395 28.227h-42.008zm9.719 36.227h39.36l-7.384 96h-8.296v-76c0-2.209-1.791-4-4-4s-4 1.791-4 4v76h-8.296z"/><path d="m83.724 90c0 2.362 1.915 4.276 4.276 4.276s4.276-1.915 4.276-4.276-1.914-4.277-4.276-4.277-4.276 1.915-4.276 4.277z"/><path d="m41.516 100.484c.781.781 1.805 1.172 2.828 1.172s2.047-.391 2.828-1.172l2.828-2.828 2.828 2.828c.781.781 1.805 1.172 2.828 1.172s2.047-.391 2.828-1.172c1.562-1.562 1.562-4.094 0-5.656l-2.828-2.828 2.828-2.828c1.562-1.562 1.562-4.094 0-5.656s-4.094-1.562-5.656 0l-2.828 2.828-2.828-2.828c-1.562-1.562-4.094-1.562-5.656 0s-1.562 4.094 0 5.656l2.828 2.828-2.828 2.828c-1.563 1.563-1.563 4.094 0 5.656z"/><path d="m78 56c6.617 0 12-5.383 12-12s-5.383-12-12-12-12 5.383-12 12 5.383 12 12 12zm0-16c2.205 0 4 1.795 4 4s-1.795 4-4 4-4-1.795-4-4 1.795-4 4-4z"/><path d="m50 228h84c6.617 0 12-5.383 12-12v-25l10.4-7.801c1.008-.754 1.6-1.939 1.6-3.199s-.592-2.445-1.6-3.199l-10.4-7.801v-25c0-6.617-5.383-12-12-12h-84c-6.617 0-12 5.383-12 12v72c0 6.617 5.383 12 12 12zm-4-84c0-2.205 1.795-4 4-4h84c2.205 0 4 1.795 4 4v27c0 1.26.592 2.445 1.6 3.199l7.734 5.801-7.734 5.801c-1.008.754-1.6 1.939-1.6 3.199v27c0 2.205-1.795 4-4 4h-84c-2.205 0-4-1.795-4-4z"/><path d="m91.736 198.799c.682.467 1.473.701 2.264.701s1.582-.234 2.264-.701l1.547-1.045c6.803-4.561 18.189-12.193 18.189-22.637 0-8.336-6.639-15.117-14.801-15.117-2.541 0-5.012.668-7.199 1.918-2.188-1.25-4.658-1.918-7.199-1.918-8.162 0-14.801 6.781-14.801 15.117 0 6.822 6.455 14.571 19.736 23.682zm-4.935-30.799c1.645 0 3.238.635 4.486 1.787 1.531 1.414 3.895 1.414 5.426 0 1.248-1.152 2.842-1.787 4.486-1.787 3.75 0 6.801 3.193 6.801 7.117 0 5.908-8.717 12.008-13.953 15.529-12.99-9.335-14.047-14.21-14.047-15.529 0-3.924 3.051-7.117 6.801-7.117z"/></g></svg>