<svg id="graphic" enable-background="new 0 0 300 300" height="512" viewBox="0 0 300 300" width="512" xmlns="http://www.w3.org/2000/svg"><g><path d="m268 258.229h-28.026l2.975-65.484c1.488.66 3.133 1.027 4.859 1.027 6.617 0 12-5.383 12-12v-57.975c0-16.5-12.059-30.617-28-33.489v-1.222c4.656-1.65 8-6.1 8-11.314v-30.706c0-7.33-5.965-13.295-13.293-13.295h-30.707c-2.211 0-4 1.791-4 4 0 .156.042.301.046.457h-151.854c-2.211 0-4 1.791-4 4v120c0 2.209 1.789 4 4 4h58.31l-33.12 92h-33.19c-2.211 0-4 1.791-4 4s1.789 4 4 4h236c2.211 0 4-1.791 4-4s-1.789-3.999-4-3.999zm-48.191-68.458c-2.211 0-4 1.791-4 4v64.457h-8.157l-3.661-80.457h31.632l-3.657 80.457h-8.157v-64.457c0-2.209-1.789-4-4-4zm-86.619-23.542 33.12 92h-80.62l33.12-92zm8.5 0h3.501l33.12 92h-3.501zm12 0h42.122l.001 7.725 3.831 84.275h-12.834zm94.119 19.542c-2.207 0-4-1.795-4-4v-4h8v4c0 2.206-1.793 4-4 4zm4-61.974v45.975h-8v-44c0-2.209-1.789-4-4-4s-4 1.791-4 4v44h-32v-40c0-2.209-1.789-4-4-4s-4 1.791-4 4l.001 16h-20.001v-8h8c2.211 0 4-1.791 4-4v-9.975c0-12.158 8.556-22.587 20.073-25.308.38 6.278 5.556 11.282 11.927 11.282 6.372 0 11.549-5.005 11.927-11.283 11.516 2.723 20.073 13.158 20.073 25.309zm-88 21.974c-2.207 0-4-1.795-4-4s1.793-4 4-4h4v8zm68-68c0 2.205-1.793 4-4 4-2.211 0-4 1.791-4 4v12c0 2.205-1.793 4-4 4s-4-1.795-4-4v-12c0-2.209-1.789-4-4-4-2.207 0-4-1.795-4-4v-20h24zm-5.293-36c2.918 0 5.293 2.375 5.293 5.295v2.705h-20c-5.215 0-9.664-3.344-11.316-8zm-182.516 4.458h149.752c1.394 2.961 3.487 5.502 6.074 7.455-.001.031-.018.057-.018.088v24c0 5.215 3.344 9.664 8 11.314v1.224c-15.945 2.873-28 16.977-28 33.487v5.975h-16c-6.617 0-12 5.383-12 12s5.383 12 12 12h32.002v4.457h-151.81zm62.81 120h3.501l-33.12 92h-3.501z"/><path d="m114 236.505c2.362 0 4.276-1.915 4.276-4.276s-1.915-4.277-4.276-4.277-4.276 1.915-4.276 4.277 1.914 4.276 4.276 4.276z"/><path d="m47.516 214.713c.781.781 1.805 1.172 2.828 1.172s2.047-.391 2.828-1.172l2.828-2.828 2.828 2.828c.781.781 1.805 1.172 2.828 1.172s2.047-.391 2.828-1.172c1.562-1.562 1.562-4.094 0-5.656l-2.828-2.828 2.828-2.828c1.562-1.562 1.562-4.094 0-5.656s-4.094-1.562-5.656 0l-2.828 2.827-2.828-2.828c-1.562-1.562-4.094-1.562-5.656 0s-1.562 4.094 0 5.656l2.828 2.828-2.828 2.828c-1.563 1.563-1.563 4.094 0 5.657z"/><path d="m258 72.505c2.362 0 4.276-1.915 4.276-4.276s-1.915-4.277-4.276-4.277-4.276 1.915-4.276 4.277 1.914 4.276 4.276 4.276z"/><path d="m116 88.229c0-.675-.051-1.338-.101-2h24.737l-12.14 22.072c-.684 1.238-.66 2.746.062 3.963.719 1.219 2.027 1.965 3.441 1.965h44c1.414 0 2.723-.746 3.441-1.965.723-1.217.746-2.725.062-3.963l-12.14-22.072h12.638c2.211 0 4-1.791 4-4v-24c0-2.209-1.789-4-4-4h-76c-2.211 0-4 1.791-4 4v6.006c-3.081-1.289-6.458-2.006-10-2.006-14.336 0-26 11.664-26 26 0 6.085 2.078 11.827 5.884 16.458l-17.388 31.615c-.684 1.238-.66 2.746.062 3.963.719 1.219 2.027 1.965 3.441 1.965h44c1.414 0 2.723-.746 3.441-1.965.723-1.217.746-2.725.062-3.963l-12.177-22.139c13.72-.699 24.675-12.047 24.675-25.934zm22.766 18 15.234-27.7 15.234 27.699h-30.468zm-30.766-44h68v16h-13.036l-5.46-9.928c-1.406-2.555-5.602-2.555-7.008 0l-5.46 9.928h-31.042c-1.385-3.311-3.445-6.266-5.994-8.718zm-45.234 72 15.234-27.7 15.234 27.699h-30.468zm27.234-28c-1.086 0-2.156-.131-3.213-.322l-5.283-9.606c-1.406-2.555-5.602-2.555-7.008 0l-.254.463c-1.413-2.6-2.242-5.487-2.242-8.535 0-9.926 8.074-18 18-18s18 8.074 18 18-8.074 18-18 18z"/><path d="m126 118.229c-7.719 0-14 6.281-14 14s6.281 14 14 14 14-6.281 14-14-6.281-14-14-14zm0 20c-3.309 0-6-2.691-6-6s2.691-6 6-6 6 2.691 6 6-2.691 6-6 6z"/></g></svg>