<svg id="jewelery" enable-background="new 0 0 300 300" height="512" viewBox="0 0 300 300" width="512" xmlns="http://www.w3.org/2000/svg"><g><path d="m272 262h-27.813l1.849-40.636c1.154-.702 1.965-1.914 1.965-3.364v-20.686c1.25.443 2.598.686 4 .686 6.617 0 12-5.383 12-12v-57.975c0-9.885-4.142-18.781-10.858-25 1.811-2.639 2.857-5.756 2.857-9.025v-28c0-7.441-5.105-13.713-12-15.494v-.506c0-11.027-8.973-20-20-20s-20 8.973-20 20v32c0 5.215 3.344 9.664 8 11.314v1.229c-16.151 2.853-28 16.758-28 33.482v5.975h-16c-6.617 0-12 5.383-12 12s5.383 12 12 12h32v60c0 1.449.811 2.662 1.965 3.364l1.848 40.636h-90.996l10.5-56h44.683c6.617 0 12-5.383 12-12s-5.383-12-12-12h-35.031l8.516-8.516c1.562-1.562 1.562-4.094 0-5.656l-11.312-11.312c-1.562-1.562-4.094-1.562-5.656 0l-9.486 9.484h-7.778l35.79-41.996c1.379-1.615 1.254-4.025-.281-5.488l-20.363-19.41c-.746-.709-1.734-1.105-2.762-1.105h-35.274c-1.027 0-2.016.396-2.762 1.105l-20.363 19.41c-1.535 1.463-1.66 3.873-.281 5.488l35.79 41.996h-5.778l-10.484-10.484c-1.562-1.562-4.094-1.562-5.656 0l-11.312 11.312c-1.562 1.562-1.562 4.094 0 5.656l9.514 9.516h-37.031c-6.617 0-12 5.383-12 12s5.383 12 12 12h44.683l10.5 56h-55.183c-2.211 0-4 1.791-4 4s1.789 4 4 4h236c2.211 0 4-1.791 4-4s-1.789-4-4-4zm-64-48v-32h32v4 28zm29.997 8-1.819 40h-8.178v-40zm14.003-32c-2.207 0-4-1.795-4-4v-4h8v4c0 2.205-1.793 4-4 4zm-4-124v28c0 1.571-.494 3.066-1.335 4.353-3.25-1.815-6.828-3.134-10.665-3.811v-1.228c4.656-1.65 8-6.1 8-11.314v-22.887c2.379 1.388 4 3.939 4 6.887zm-32 20c-2.207 0-4-1.795-4-4v-20h24v20c0 2.205-1.793 4-4 4-2.211 0-4 1.791-4 4v12c0 2.205-1.793 4-4 4s-4-1.795-4-4v-12c0-2.209-1.789-4-4-4zm8-48c6.617 0 12 5.383 12 12v4h-24v-4c0-6.617 5.383-12 12-12zm-60 108c0-2.205 1.793-4 4-4h4v8h-4c-2.207 0-4-1.795-4-4zm16 4v-8h8c2.211 0 4-1.791 4-4v-9.975c0-12.323 8.414-22.628 20.071-25.319.374 6.284 5.554 11.294 11.929 11.294s11.555-5.011 11.929-11.294c11.656 2.69 20.071 12.993 20.071 25.319v45.975h-8v-44c0-2.209-1.789-4-4-4s-4 1.791-4 4v44h-32v-40c0-2.209-1.789-4-4-4s-4 1.791-4 4v16zm30.003 72h9.997v40h-8.178zm-128.649-96 7.525 18.436-15.711-18.436zm9.922-20h21.447l2.412 12h-26.271zm39.556 20-15.711 18.436 7.525-18.436zm-16.827 0-12.005 29.414-12.005-29.414zm16.619-8h-7.327l-1.737-8.64zm-48.184-8.64-1.737 8.64h-7.327zm.732 71.468-11.172-11.172 5.656-5.656 8.828 8.828c.75.75 1.766 1.172 2.828 1.172h27.375c1.062 0 2.078-.422 2.828-1.172l7.828-7.828 5.656 5.656-10.172 10.172c-.745.744-1.776 1.172-2.827 1.172h-34c-1.051 0-2.082-.428-2.828-1.172zm-51.172 13.172c0-2.205 1.793-4 4-4h50 34 48c2.207 0 4 1.795 4 4s-1.793 4-4 4h-132c-2.207 0-4-1.795-4-4zm56.818 12h26.365l-10.5 56h-5.365z"/><path d="m131.516 74.484c.781.781 1.805 1.172 2.828 1.172s2.047-.391 2.828-1.172l2.828-2.828 2.828 2.828c.781.781 1.805 1.172 2.828 1.172s2.047-.391 2.828-1.172c1.562-1.562 1.562-4.094 0-5.656l-2.828-2.828 2.828-2.828c1.562-1.562 1.562-4.094 0-5.656s-4.094-1.562-5.656 0l-2.828 2.828-2.828-2.828c-1.562-1.562-4.094-1.562-5.656 0s-1.562 4.094 0 5.656l2.828 2.828-2.828 2.828c-1.563 1.563-1.563 4.094 0 5.656z"/><path d="m68 78c6.617 0 12-5.383 12-12s-5.383-12-12-12-12 5.383-12 12 5.383 12 12 12zm0-16c2.207 0 4 1.795 4 4s-1.793 4-4 4-4-1.795-4-4 1.793-4 4-4z"/><path d="m162.474 231c0 2.362 1.915 4.276 4.276 4.276s4.276-1.915 4.276-4.276-1.915-4.277-4.276-4.277-4.276 1.915-4.276 4.277z"/></g></svg>