<svg id="loading" enable-background="new 0 0 300 300" height="512" viewBox="0 0 300 300" width="512" xmlns="http://www.w3.org/2000/svg"><g><path d="m100 153.138c2.211 0 4-1.789 4-4v-8c0-2.211-1.789-4-4-4s-4 1.789-4 4v8c0 2.211 1.789 4 4 4z"/><path d="m100 121.138c2.211 0 4-1.789 4-4v-8c0-2.211-1.789-4-4-4s-4 1.789-4 4v8c0 2.211 1.789 4 4 4z"/><path d="m108 129.138c0 2.211 1.789 4 4 4h8c2.211 0 4-1.789 4-4s-1.789-4-4-4h-8c-2.211 0-4 1.789-4 4z"/><path d="m80 133.138h8c2.211 0 4-1.789 4-4s-1.789-4-4-4h-8c-2.211 0-4 1.789-4 4s1.789 4 4 4z"/><path d="m88.688 134.794-5.656 5.656c-1.562 1.562-1.562 4.094 0 5.656.781.781 1.805 1.172 2.828 1.172s2.047-.391 2.828-1.172l5.656-5.656c1.562-1.562 1.562-4.094 0-5.656s-4.094-1.562-5.656 0z"/><path d="m108.484 124.654c1.023 0 2.047-.391 2.828-1.172l5.656-5.656c1.562-1.562 1.562-4.094 0-5.656s-4.094-1.562-5.656 0l-5.656 5.656c-1.562 1.562-1.562 4.094 0 5.656.782.781 1.805 1.172 2.828 1.172z"/><path d="m88.688 123.482c.781.781 1.805 1.172 2.828 1.172s2.047-.391 2.828-1.172c1.562-1.562 1.562-4.094 0-5.656l-5.656-5.656c-1.562-1.562-4.094-1.562-5.656 0s-1.562 4.094 0 5.656z"/><path d="m103.596 173.138c-2.273 0-4.116 1.843-4.116 4.116s1.843 4.117 4.116 4.117 4.117-1.843 4.117-4.117-1.844-4.116-4.117-4.116z"/><path d="m160 77.138c6.617 0 12-5.383 12-12s-5.383-12-12-12-12 5.383-12 12 5.383 12 12 12zm0-16c2.207 0 4 1.793 4 4s-1.793 4-4 4-4-1.793-4-4 1.793-4 4-4z"/><circle cx="142" cy="35.138" r="4.276"/><path d="m87.516 61.623c.781.781 1.805 1.172 2.828 1.172s2.047-.391 2.828-1.172l2.828-2.829 2.828 2.828c.781.781 1.805 1.172 2.828 1.172s2.047-.391 2.828-1.172c1.562-1.562 1.562-4.094 0-5.656l-2.828-2.828 2.828-2.828c1.562-1.562 1.562-4.094 0-5.656s-4.094-1.562-5.656 0l-2.828 2.828-2.828-2.828c-1.562-1.562-4.094-1.562-5.656 0s-1.562 4.094 0 5.656l2.828 2.828-2.828 2.828c-1.563 1.563-1.563 4.094 0 5.657z"/><path d="m268 261.138h-28.026l2.976-65.484c1.488.66 3.133 1.027 4.859 1.027 6.617 0 12-5.383 12-12v-57.977c0-16.496-12.059-30.614-28-33.488v-1.219c4.656-1.652 8-6.102 8-11.316v-30.707c0-7.328-5.965-13.293-13.293-13.293h-30.707c-2.211 0-4 1.789-4 4 0 6.516 3.179 12.259 8.018 15.912-.001.031-.018.057-.018.088v24c0 5.215 3.344 9.664 8 11.316v1.222c-15.945 2.872-28 16.976-28 33.485v5.977h-11.809v-30.043c0-7.445-6.055-13.5-13.5-13.5h-109c-7.445 0-13.5 6.055-13.5 13.5v76.992c0 7.449 6.059 13.508 13.508 13.508h38.218l-2.88 12h-44.846c-2.211 0-4 1.789-4 4v12c0 2.211 1.789 4 4 4h12v36h-16c-2.211 0-4 1.789-4 4s1.789 4 4 4h236c2.211 0 4-1.789 4-4s-1.789-4-4-4zm-48.191-68.457c-2.211 0-4 1.789-4 4v64.457h-8.157l-3.661-80.457h31.632l-3.657 80.457h-8.157v-64.457c0-2.211-1.789-4-4-4zm-83.809 32.457v36h-68v-36zm8 0h4v36h-4zm12 0h12c2.211 0 4-1.789 4-4v-12c0-2.211-1.789-4-4-4h-44.846l-2.88-12h34.226c7.445 0 13.5-6.055 13.5-13.5v-22.957h27.811l.002 20.18 3.831 84.277h-43.644zm7.809-84.457h4v8h-4c-2.207 0-4-1.793-4-4s1.793-4 4-4zm84 48c-2.207 0-4-1.793-4-4v-4h8v4c0 2.207-1.793 4-4 4zm-21.293-144c2.918 0 5.293 2.375 5.293 5.293v2.707h-20c-5.215 0-9.664-3.344-11.316-8zm5.293 16v20c0 2.207-1.793 4-4 4-2.211 0-4 1.789-4 4v12c0 2.207-1.793 4-4 4s-4-1.793-4-4v-12c0-2.211-1.789-4-4-4-2.207 0-4-1.793-4-4v-20zm-48 80c2.211 0 4-1.789 4-4v-9.977c0-12.158 8.556-22.586 20.072-25.306.379 6.278 5.556 11.283 11.928 11.283 6.371 0 11.547-5.005 11.928-11.282 11.516 2.723 20.072 13.158 20.072 25.305v45.977h-8v-44c0-2.211-1.789-4-4-4s-4 1.789-4 4v44h-32v-40c0-2.211-1.789-4-4-4s-4 1.789-4 4l.001 16h-20.001v-8zm-138.309-43.543h109c3.031 0 5.5 2.469 5.5 5.5v30.721c-4.744 1.602-8.191 6.044-8.191 11.322s3.447 9.72 8.191 11.322v5.135h-120v-58.5c0-3.031 2.469-5.5 5.5-5.5zm-5.5 82.492v-10.492h120v10.5c0 3.031-2.469 5.5-5.5 5.5h-108.992c-3.035 0-5.508-2.472-5.508-5.508zm51.955 13.508h20.09l2.88 12h-25.85zm-51.955 20h124v4h-124zm16 12h4v36h-4z"/></g></svg>