<svg id="music" enable-background="new 0 0 300 300" height="512" viewBox="0 0 300 300" width="512" xmlns="http://www.w3.org/2000/svg"><g><path d="m52 58c6.617 0 12-5.383 12-12s-5.383-12-12-12-12 5.383-12 12 5.383 12 12 12zm0-16c2.205 0 4 1.793 4 4s-1.795 4-4 4-4-1.793-4-4 1.795-4 4-4z"/><path d="m159.516 226.484c.781.781 1.805 1.172 2.828 1.172s2.047-.391 2.828-1.172l2.828-2.828 2.828 2.828c.781.781 1.805 1.172 2.828 1.172s2.047-.391 2.828-1.172c1.562-1.562 1.562-4.094 0-5.656l-2.828-2.828 2.828-2.828c1.562-1.562 1.562-4.094 0-5.656s-4.094-1.562-5.656 0l-2.828 2.828-2.828-2.828c-1.562-1.562-4.094-1.562-5.656 0s-1.562 4.094 0 5.656l2.828 2.828-2.828 2.828c-1.563 1.563-1.563 4.094 0 5.656z"/><path d="m268 262h-27.814l2.957-65.027c1.484.66 3.129 1.027 4.857 1.027 6.617 0 12-5.383 12-12v-57.977c0-16.499-12.058-30.617-28-33.489v-1.218c4.656-1.652 8-6.102 8-11.316v-30.707c0-7.328-5.963-13.293-13.293-13.293h-30.707c-2.209 0-4 1.789-4 4 0 6.516 3.179 12.259 8.018 15.912-.001.031-.018.057-.018.088v24c0 5.215 3.344 9.664 8 11.316v1.222c-15.946 2.873-28 16.976-28 33.485v5.977h-16c-6.617 0-12 5.383-12 12s5.383 12 12 12h32.002l.002 20.18 3.81 83.82h-90.927c13.457-7.964 22.528-22.588 22.528-39.328 0-11.145-4.041-21.789-11.414-30.16v-12.773c0-14.326-10.168-26.469-24-29.165v-53.84c2.209 0 4-1.789 4-4v-22.375c0-6.41-5.215-11.625-11.625-11.625h-4.75c-6.411 0-11.626 5.215-11.626 11.625v22.375c0 2.211 1.791 4 4 4v53.82c-13.858 2.684-24 14.784-24 29.184v12.086c-7.75 8.453-12 19.344-12 30.848 0 16.74 9.071 31.364 22.528 39.328h-30.528c-2.209 0-4 1.789-4 4s1.791 4 4 4h236c2.209 0 4-1.789 4-4s-1.791-4-4-4zm-188-191.641c0-2 1.627-3.625 3.625-3.625h4.75c1.998 0 3.625 1.625 3.625 3.625v18.375h-12zm8 107.641h-4v-80h4zm-4 8h4v40h-4zm-36 36.672c0-9.949 3.854-19.34 10.85-26.441.736-.75 1.15-1.758 1.15-2.809v-13.684c0-9.98 6.678-18.409 16-20.934v67.196h-4c-2.209 0-4 1.789-4 4s1.791 4 4 4h4v4c0 2.211 1.791 4 4 4s4-1.789 4-4v-4h4v4c0 2.211 1.791 4 4 4s4-1.789 4-4v-4h4c2.209 0 4-1.789 4-4s-1.791-4-4-4h-4v-67.177c9.304 2.538 16 10.989 16 20.916v14.324c0 1.02.391 2.004 1.092 2.746 6.656 7.047 10.322 16.23 10.322 25.863 0 20.793-16.916 37.711-37.707 37.711s-37.707-16.918-37.707-37.711zm200-32.672c-2.205 0-4-1.793-4-4v-4h8v4c0 2.207-1.795 4-4 4zm-21.293-144c2.918 0 5.293 2.375 5.293 5.293v2.707h-20c-5.215 0-9.664-3.344-11.314-8zm5.293 16v20c0 2.207-1.795 4-4 4-2.209 0-4 1.789-4 4v12c0 2.207-1.795 4-4 4s-4-1.793-4-4v-12c0-2.211-1.791-4-4-4-2.205 0-4-1.793-4-4v-20zm-72 84c0-2.207 1.795-4 4-4h4v8h-4c-2.205 0-4-1.793-4-4zm16 4v-8h8c2.209 0 4-1.789 4-4v-9.977c0-12.158 8.555-22.585 20.073-25.306.379 6.278 5.556 11.283 11.927 11.283s11.548-5.005 11.927-11.282c11.515 2.72 20.073 13.155 20.073 25.306v45.976h-8v-44c0-2.211-1.791-4-4-4s-4 1.789-4 4v44h-32v-40c0-2.211-1.791-4-4-4s-4 1.789-4 4l.001 16zm28.182 32h31.632l-3.636 80h-8.178v-64c0-2.211-1.791-4-4-4s-4 1.789-4 4v64h-8.178z"/><path d="m96 250c0-2.211-1.791-4-4-4h-12c-2.209 0-4 1.789-4 4s1.791 4 4 4h12c2.209 0 4-1.789 4-4z"/><path d="m122 98c7.98 0 14-4.301 14-10v-30c0-2.211-1.791-4-4-4s-4 1.789-4 4v20.93c-1.806-.584-3.818-.93-6-.93-7.98 0-14 4.301-14 10s6.02 10 14 10zm0-12c3.486 0 5.611 1.375 5.973 2-.361.625-2.486 2-5.973 2-3.65 0-5.807-1.508-6.012-1.918.205-.574 2.362-2.082 6.012-2.082z"/><path d="m158 74c7.98 0 14-4.301 14-10v-30c0-2.211-1.791-4-4-4s-4 1.789-4 4v20.93c-1.806-.584-3.818-.93-6-.93-7.98 0-14 4.301-14 10s6.02 10 14 10zm0-12c3.486 0 5.611 1.375 5.973 2-.361.625-2.486 2-5.973 2-3.65 0-5.807-1.508-6.012-1.918.205-.574 2.362-2.082 6.012-2.082z"/><circle cx="258" cy="72" r="4.276"/></g></svg>