<svg id="analytics" enable-background="new 0 0 300 300" height="512" viewBox="0 0 300 300" width="512" xmlns="http://www.w3.org/2000/svg"><g><path d="m222.328 58.496c2.362 0 4.277-1.915 4.277-4.276s-1.915-4.277-4.277-4.277-4.276 1.915-4.276 4.277 1.915 4.276 4.276 4.276z"/><path d="m256.617 89.828h-213.234c-5.172 0-9.383 3.807-9.383 8.484v150.135c0 5.172 4.211 9.381 9.383 9.381h213.234c5.172 0 9.383-4.209 9.383-9.381v-150.135c0-4.677-4.211-8.484-9.383-8.484zm-108.617 116h4c1.102 0 2 .896 2 2v24c0 1.104-.898 2-2 2h-4c-1.102 0-2-.896-2-2v-24c0-1.103.898-2 2-2zm28-36h4c1.102 0 2 .896 2 2v60c0 1.104-.898 2-2 2h-4c-1.102 0-2-.896-2-2v-60c0-1.103.898-2 2-2zm28-32h4c1.102 0 2 .896 2 2v92c0 1.104-.898 2-2 2h-4c-1.102 0-2-.896-2-2v-92c0-1.103.898-2 2-2zm28 56h4c1.102 0 2 .896 2 2v36c0 1.104-.898 2-2 2h-4c-1.102 0-2-.896-2-2v-36c0-1.103.898-2 2-2zm26 54.619c0 .762-.621 1.381-1.383 1.381h-18.617v-8.202c4.56-.929 8-4.969 8-9.798v-36c0-4.829-3.44-8.868-8-9.798v-60.202c0-2.209-1.789-4-4-4s-4 1.791-4 4v60.202c-4.56.929-8 4.969-8 9.798v36c0 4.829 3.44 8.868 8 9.798v8.202h-20v-8.202c4.56-.929 8-4.969 8-9.798v-92c0-4.829-3.44-8.868-8-9.798v-4.202c0-2.209-1.789-4-4-4s-4 1.791-4 4v4.202c-4.56.929-8 4.969-8 9.798v92c0 4.829 3.44 8.868 8 9.798v8.202h-20v-8.202c4.56-.929 8-4.969 8-9.798v-60c0-4.829-3.44-8.868-8-9.798v-36.202c0-2.209-1.789-4-4-4s-4 1.791-4 4v36.202c-4.56.929-8 4.969-8 9.798v60c0 4.829 3.44 8.868 8 9.798v8.202h-20v-8.202c4.56-.929 8-4.969 8-9.798v-24c0-4.829-3.44-8.868-8-9.798v-72.202c0-2.209-1.789-4-4-4s-4 1.791-4 4v72.202c-4.56.929-8 4.969-8 9.798v24c0 4.829 3.44 8.868 8 9.798v8.202h-102.617c-.762 0-1.383-.619-1.383-1.381l-.012-150.066c.07-.164.574-.553 1.395-.553h213.234c.82 0 1.324.389 1.383.484z"/><circle cx="54" cy="105.828" r="4"/><circle cx="66" cy="105.828" r="4"/><circle cx="78" cy="105.828" r="4"/><path d="m69.516 60.312c.781.781 1.805 1.172 2.828 1.172s2.047-.391 2.828-1.172l2.828-2.828 2.828 2.828c.781.781 1.805 1.172 2.828 1.172s2.047-.391 2.828-1.172c1.562-1.562 1.562-4.094 0-5.656l-2.828-2.828 2.828-2.828c1.562-1.562 1.562-4.094 0-5.656s-4.094-1.562-5.656 0l-2.828 2.828-2.828-2.828c-1.562-1.562-4.094-1.562-5.656 0s-1.562 4.094 0 5.656l2.828 2.828-2.828 2.828c-1.563 1.563-1.563 4.094 0 5.656z"/><path d="m162 69.828c6.617 0 12-5.383 12-12s-5.383-12-12-12-12 5.383-12 12 5.383 12 12 12zm0-16c2.207 0 4 1.795 4 4s-1.793 4-4 4-4-1.795-4-4 1.793-4 4-4z"/><path d="m110.328 78.496c2.362 0 4.277-1.915 4.277-4.276s-1.915-4.277-4.277-4.277-4.276 1.915-4.276 4.277 1.915 4.276 4.276 4.276z"/><path d="m62 141.828h20c2.211 0 4-1.791 4-4s-1.789-4-4-4h-20c-2.211 0-4 1.791-4 4s1.789 4 4 4z"/><path d="m58 149.828c0 2.209 1.789 4 4 4h40c2.211 0 4-1.791 4-4s-1.789-4-4-4h-40c-2.211 0-4 1.791-4 4z"/><path d="m62 157.828c-2.211 0-4 1.791-4 4s1.789 4 4 4h12c2.211 0 4-1.791 4-4s-1.789-4-4-4z"/><path d="m114 185.828h-52c-2.211 0-4 1.791-4 4s1.789 4 4 4h52c2.211 0 4-1.791 4-4s-1.789-4-4-4z"/><path d="m82 197.828h-20c-2.211 0-4 1.791-4 4s1.789 4 4 4h20c2.211 0 4-1.791 4-4s-1.789-4-4-4z"/><path d="m58 213.828c0 2.209 1.789 4 4 4h40c2.211 0 4-1.791 4-4s-1.789-4-4-4h-40c-2.211 0-4 1.791-4 4z"/><path d="m66 221.828h-4c-2.211 0-4 1.791-4 4s1.789 4 4 4h4c2.211 0 4-1.791 4-4s-1.789-4-4-4z"/><path d="m114 221.828h-36c-2.211 0-4 1.791-4 4s1.789 4 4 4h36c2.211 0 4-1.791 4-4s-1.789-4-4-4z"/></g></svg>