<svg id="card" enable-background="new 0 0 300 300" height="512" viewBox="0 0 300 300" width="512" xmlns="http://www.w3.org/2000/svg"><g><path d="m222.328 58.496c2.362 0 4.277-1.915 4.277-4.276s-1.915-4.277-4.277-4.277c-2.361 0-4.276 1.915-4.276 4.277s1.915 4.276 4.276 4.276z"/><path d="m256.617 89.828h-213.234c-5.172 0-9.383 3.807-9.383 8.484v150.135c0 5.172 4.211 9.381 9.383 9.381h213.234c5.172 0 9.383-4.209 9.383-9.381v-150.135c0-4.677-4.211-8.484-9.383-8.484zm1.383 158.619c0 .762-.621 1.381-1.383 1.381h-213.234c-.762 0-1.383-.619-1.383-1.381l-.012-150.066c.07-.164.574-.553 1.395-.553h213.234c.82 0 1.324.389 1.383.484z"/><circle cx="54" cy="105.828" r="4"/><circle cx="66" cy="105.828" r="4"/><circle cx="78" cy="105.828" r="4"/><path d="m69.516 60.312c.781.781 1.805 1.172 2.828 1.172s2.047-.391 2.828-1.172l2.828-2.828 2.828 2.828c.781.781 1.805 1.172 2.828 1.172s2.047-.391 2.828-1.172c1.562-1.562 1.562-4.094 0-5.656l-2.828-2.828 2.828-2.828c1.562-1.562 1.562-4.094 0-5.656s-4.094-1.562-5.656 0l-2.828 2.828-2.828-2.828c-1.562-1.562-4.094-1.562-5.656 0s-1.562 4.094 0 5.656l2.828 2.828-2.828 2.828c-1.563 1.563-1.563 4.094 0 5.656z"/><path d="m162 69.828c6.617 0 12-5.383 12-12s-5.383-12-12-12-12 5.383-12 12 5.383 12 12 12zm0-16c2.207 0 4 1.795 4 4s-1.793 4-4 4-4-1.795-4-4 1.793-4 4-4z"/><path d="m110.328 78.496c2.362 0 4.277-1.915 4.277-4.276s-1.915-4.277-4.277-4.277c-2.361 0-4.276 1.915-4.276 4.277s1.915 4.276 4.276 4.276z"/><path d="m189.023 173.828h-78.047c-7.156 0-12.977 5.82-12.977 12.977v42.047c0 7.156 5.82 12.977 12.977 12.977h78.047c7.156 0 12.977-5.82 12.977-12.977v-42.047c0-7.157-5.82-12.977-12.977-12.977zm-78.046 8h78.047c2.742 0 4.977 2.232 4.977 4.977v3.023h-88v-3.023c-.001-2.744 2.233-4.977 4.976-4.977zm83.023 16v4h-88v-4zm-4.977 36h-78.047c-2.742 0-4.977-2.232-4.977-4.977v-19.023h88v19.023c.001 2.745-2.233 4.977-4.976 4.977z"/><path d="m142 217.828h-28c-2.211 0-4 1.791-4 4s1.789 4 4 4h28c2.211 0 4-1.791 4-4s-1.789-4-4-4z"/><path d="m166 217.828h-12c-2.211 0-4 1.791-4 4s1.789 4 4 4h12c2.211 0 4-1.791 4-4s-1.789-4-4-4z"/><path d="m122.977 145.439c.555.264 1.141.389 1.715.387 1.496 0 2.934-.842 3.617-2.283 3.961-8.332 12.473-13.715 21.691-13.715s17.73 5.381 21.688 13.711c.945 1.994 3.344 2.844 5.328 1.896 1.996-.947 2.848-3.334 1.898-5.33-5.273-11.104-16.625-18.277-28.914-18.277s-23.641 7.176-28.918 18.281c-.949 1.995-.098 4.381 1.895 5.33z"/><path d="m157.543 151.152c.582 1.641 2.121 2.666 3.77 2.666.441 0 .895-.074 1.336-.232 2.082-.736 3.172-3.023 2.434-5.105-2.254-6.371-8.316-10.652-15.082-10.652s-12.828 4.281-15.082 10.652c-.738 2.082.352 4.369 2.434 5.105 2.094.754 4.367-.354 5.105-2.434 1.129-3.186 4.16-5.324 7.543-5.324s6.413 2.139 7.542 5.324z"/><circle cx="150" cy="161.828" r="4"/></g></svg>