<svg id="direction" enable-background="new 0 0 300 300" height="512" viewBox="0 0 300 300" width="512" xmlns="http://www.w3.org/2000/svg"><g><path d="m222.328 58.496c2.362 0 4.277-1.915 4.277-4.276s-1.915-4.277-4.277-4.277-4.276 1.915-4.276 4.277 1.915 4.276 4.276 4.276z"/><path d="m256.619 89.828h-213.238c-5.172 0-9.381 3.807-9.381 8.484v150.135c0 5.172 4.209 9.381 9.381 9.381h213.238c5.172 0 9.381-4.209 9.381-9.381v-150.135c0-4.677-4.209-8.484-9.381-8.484zm1.381 158.619c0 .762-.619 1.381-1.381 1.381h-213.238c-.762 0-1.381-.619-1.381-1.381l-.012-150.066c.072-.164.572-.553 1.393-.553h213.238c.82 0 1.32.389 1.381.484z"/><circle cx="54" cy="105.828" r="4"/><circle cx="66" cy="105.828" r="4"/><circle cx="78" cy="105.828" r="4"/><path d="m69.516 60.312c.781.781 1.805 1.172 2.828 1.172s2.047-.391 2.828-1.172l2.828-2.828 2.828 2.828c.781.781 1.805 1.172 2.828 1.172s2.047-.391 2.828-1.172c1.562-1.562 1.562-4.094 0-5.656l-2.828-2.828 2.828-2.828c1.562-1.562 1.562-4.094 0-5.656s-4.094-1.562-5.656 0l-2.828 2.828-2.828-2.828c-1.562-1.562-4.094-1.562-5.656 0s-1.562 4.094 0 5.656l2.828 2.828-2.828 2.828c-1.563 1.563-1.563 4.094 0 5.656z"/><path d="m162 69.828c6.617 0 12-5.383 12-12s-5.383-12-12-12-12 5.383-12 12 5.383 12 12 12zm0-16c2.205 0 4 1.795 4 4s-1.795 4-4 4-4-1.795-4-4 1.795-4 4-4z"/><path d="m110.328 78.496c2.362 0 4.277-1.915 4.277-4.276s-1.915-4.277-4.277-4.277-4.276 1.915-4.276 4.277 1.915 4.276 4.276 4.276z"/><path d="m184.713 130.949c-1.564-1.559-4.1-1.559-5.656.012-1.559 1.564-1.555 4.098.012 5.656l5.181 5.16-16.021.034c-7.584.016-14.278 3.839-18.302 9.646-.75-1.081-1.57-2.123-2.518-3.075-4.207-4.225-9.809-6.559-15.771-6.57l-16.02-.034 5.182-5.16c1.566-1.559 1.57-4.092.012-5.656-1.557-1.562-4.088-1.57-5.656-.012l-12.025 11.975c-.752.748-1.176 1.766-1.178 2.826s.418 2.078 1.166 2.83l11.977 12.025c.781.785 1.807 1.178 2.834 1.178 1.021 0 2.043-.389 2.822-1.166 1.566-1.559 1.57-4.092.012-5.656l-5.163-5.184 16.022.034c3.826.008 7.42 1.506 10.119 4.217 2.699 2.709 4.182 6.309 4.174 10.129l-.045 13.678c-.008 2.209 1.777 4.006 3.986 4.014h.014c.022 0 .041-.012.063-.013.022 0 .041.013.063.013h.014c2.209-.008 3.994-1.805 3.986-4.014l-.045-13.672c-.016-7.896 6.396-14.334 14.293-14.352l16.023-.034-5.162 5.184c-1.559 1.564-1.555 4.098.012 5.656.781.777 1.801 1.166 2.822 1.166 1.027 0 2.053-.393 2.834-1.178l11.975-12.025c1.559-1.564 1.555-4.098-.012-5.656z"/><path d="m153.5 191.877c-.709-1.254-2.039-2.029-3.48-2.029-.002 0-.006 0-.008 0-1.445.004-2.775.785-3.48 2.045l-24.693 44.051c-.807 1.436-.648 3.219.396 4.492.773.943 1.916 1.463 3.092 1.463.414 0 .83-.064 1.236-.195l23.539-7.652 23.572 7.555c1.566.502 3.281-.006 4.324-1.285 1.039-1.277 1.189-3.061.377-4.494zm-2.186 34.162c-.799-.258-1.658-.258-2.457.004l-15.041 4.889 16.221-28.934 16.338 28.867z"/><path d="m238 129.828h-28c-2.209 0-4 1.791-4 4v24c0 2.209 1.791 4 4 4h28c2.209 0 4-1.791 4-4v-24c0-2.209-1.791-4-4-4zm-4 24h-20v-16h20z"/><path d="m90 129.828h-28c-2.209 0-4 1.791-4 4v24c0 2.209 1.791 4 4 4h28c2.209 0 4-1.791 4-4v-24c0-2.209-1.791-4-4-4zm-4 24h-20v-16h20z"/></g></svg>