<svg id="dragndrop" enable-background="new 0 0 300 300" height="512" viewBox="0 0 300 300" width="512" xmlns="http://www.w3.org/2000/svg"><g><path d="m222.328 58.496c2.362 0 4.277-1.915 4.277-4.276s-1.915-4.277-4.277-4.277-4.276 1.915-4.276 4.277 1.915 4.276 4.276 4.276z"/><path d="m256.617 89.828h-213.234c-5.172 0-9.383 3.805-9.383 8.484v150.133c0 5.172 4.211 9.383 9.383 9.383h213.234c5.172 0 9.383-4.211 9.383-9.383v-150.133c0-4.679-4.211-8.484-9.383-8.484zm1.383 158.617c0 .762-.621 1.383-1.383 1.383h-213.234c-.762 0-1.383-.621-1.383-1.383l-.012-150.066c.07-.16.574-.551 1.395-.551h213.234c.82 0 1.324.391 1.383.484z"/><circle cx="54" cy="105.828" r="4"/><circle cx="66" cy="105.828" r="4"/><circle cx="78" cy="105.828" r="4"/><path d="m69.516 60.312c.781.781 1.805 1.172 2.828 1.172s2.047-.391 2.828-1.172l2.828-2.828 2.828 2.828c.781.781 1.805 1.172 2.828 1.172s2.047-.391 2.828-1.172c1.562-1.562 1.562-4.094 0-5.656l-2.828-2.828 2.828-2.828c1.562-1.562 1.562-4.094 0-5.656s-4.094-1.562-5.656 0l-2.828 2.828-2.828-2.828c-1.562-1.562-4.094-1.562-5.656 0s-1.562 4.094 0 5.656l2.828 2.828-2.828 2.828c-1.563 1.563-1.563 4.094 0 5.656z"/><path d="m162 69.828c6.617 0 12-5.383 12-12s-5.383-12-12-12-12 5.383-12 12 5.383 12 12 12zm0-16c2.207 0 4 1.793 4 4s-1.793 4-4 4-4-1.793-4-4 1.793-4 4-4z"/><path d="m110.328 78.496c2.362 0 4.277-1.915 4.277-4.276s-1.915-4.277-4.277-4.277-4.276 1.915-4.276 4.277 1.915 4.276 4.276 4.276z"/><path d="m226 157.828h-8c-2.211 0-4 1.789-4 4s1.789 4 4 4h4v4c0 2.211 1.789 4 4 4s4-1.789 4-4v-8c0-2.211-1.789-4-4-4z"/><path d="m202.891 157.828h-15.109c-2.211 0-4 1.789-4 4s1.789 4 4 4h15.109c2.211 0 4-1.789 4-4s-1.789-4-4-4z"/><path d="m112.223 157.828h-15.11c-2.211 0-4 1.789-4 4s1.789 4 4 4h15.109c2.211 0 4-1.789 4-4s-1.788-4-3.999-4z"/><path d="m127.336 157.828c-2.211 0-4 1.789-4 4s1.789 4 4 4h15.109c2.211 0 4-1.789 4-4s-1.789-4-4-4z"/><path d="m172.668 157.828h-15.109c-2.211 0-4 1.789-4 4s1.789 4 4 4h15.109c2.211 0 4-1.789 4-4s-1.789-4-4-4z"/><path d="m82 157.828h-8c-2.211 0-4 1.789-4 4v8c0 2.211 1.789 4 4 4s4-1.789 4-4v-4h4c2.211 0 4-1.789 4-4s-1.789-4-4-4z"/><path d="m74 211.164c2.211 0 4-1.789 4-4v-18.668c0-2.211-1.789-4-4-4s-4 1.789-4 4v18.668c0 2.211 1.789 4 4 4z"/><path d="m82 229.828h-4v-4c0-2.211-1.789-4-4-4s-4 1.789-4 4v8c0 2.211 1.789 4 4 4h8c2.211 0 4-1.789 4-4s-1.789-4-4-4z"/><path d="m202.887 229.828h-15.109c-2.211 0-4 1.789-4 4s1.789 4 4 4h15.109c2.211 0 4-1.789 4-4s-1.789-4-4-4z"/><path d="m142.441 229.828h-15.109c-2.211 0-4 1.789-4 4s1.789 4 4 4h15.109c2.211 0 4-1.789 4-4s-1.789-4-4-4z"/><path d="m172.664 229.828h-15.109c-2.211 0-4 1.789-4 4s1.789 4 4 4h15.109c2.211 0 4-1.789 4-4s-1.789-4-4-4z"/><path d="m112.219 229.828h-15.11c-2.211 0-4 1.789-4 4s1.789 4 4 4h15.109c2.211 0 4-1.789 4-4s-1.788-4-3.999-4z"/><path d="m226 221.828c-2.211 0-4 1.789-4 4v4h-4c-2.211 0-4 1.789-4 4s1.789 4 4 4h8c2.211 0 4-1.789 4-4v-8c0-2.211-1.789-4-4-4z"/><path d="m226 184.492c-2.211 0-4 1.789-4 4v18.668c0 2.211 1.789 4 4 4s4-1.789 4-4v-18.668c0-2.211-1.789-4-4-4z"/><path d="m154 191.484 5.172 5.172c.781.781 1.805 1.172 2.828 1.172s2.047-.391 2.828-1.172c1.562-1.562 1.562-4.094 0-5.656l-12-12c-1.562-1.562-4.094-1.562-5.656 0l-12 12c-1.562 1.562-1.562 4.094 0 5.656s4.094 1.562 5.656 0l5.172-5.172v22.344c0 2.211 1.789 4 4 4s4-1.789 4-4z"/><path d="m114 145.828v-20c0-2.211-1.789-4-4-4h-56c-2.211 0-4 1.789-4 4v20c0 2.211 1.789 4 4 4h56c2.211 0 4-1.789 4-4zm-8-4h-48v-12h48z"/><path d="m242 121.828h-56c-2.211 0-4 1.789-4 4v20c0 2.211 1.789 4 4 4h56c2.211 0 4-1.789 4-4v-20c0-2.211-1.789-4-4-4zm-4 20h-48v-12h48z"/><path d="m170 149.828c2.211 0 4-1.789 4-4v-20c0-2.211-1.789-4-4-4h-44c-2.211 0-4 1.789-4 4v20c0 2.211 1.789 4 4 4zm-40-20h36v12h-36z"/></g></svg>