<svg id="email" enable-background="new 0 0 300 300" height="512" viewBox="0 0 300 300" width="512" xmlns="http://www.w3.org/2000/svg"><g><path d="m222.328 58.496c2.362 0 4.277-1.915 4.277-4.276s-1.915-4.277-4.277-4.277-4.276 1.915-4.276 4.277 1.915 4.276 4.276 4.276z"/><path d="m256.617 89.828h-213.236c-5.172 0-9.381 3.805-9.381 8.484v150.133c0 5.172 4.209 9.383 9.381 9.383h213.236c5.172 0 9.383-4.211 9.383-9.383v-150.133c0-4.679-4.211-8.484-9.383-8.484zm1.383 158.617c0 .762-.621 1.383-1.383 1.383h-213.236c-.762 0-1.381-.621-1.381-1.383l-.012-150.066c.072-.16.572-.551 1.393-.551h213.236c.82 0 1.324.391 1.383.484z"/><circle cx="54" cy="105.828" r="4"/><circle cx="66" cy="105.828" r="4"/><circle cx="78" cy="105.828" r="4"/><path d="m69.516 60.312c.781.781 1.805 1.172 2.828 1.172s2.047-.391 2.828-1.172l2.828-2.828 2.828 2.828c.781.781 1.805 1.172 2.828 1.172s2.047-.391 2.828-1.172c1.562-1.562 1.562-4.094 0-5.656l-2.828-2.828 2.828-2.828c1.562-1.562 1.562-4.094 0-5.656s-4.094-1.562-5.656 0l-2.828 2.828-2.828-2.828c-1.562-1.562-4.094-1.562-5.656 0s-1.562 4.094 0 5.656l2.828 2.828-2.828 2.828c-1.563 1.563-1.563 4.094 0 5.656z"/><path d="m162 69.828c6.617 0 12-5.383 12-12s-5.383-12-12-12-12 5.383-12 12 5.383 12 12 12zm0-16c2.207 0 4 1.793 4 4s-1.793 4-4 4-4-1.793-4-4 1.793-4 4-4z"/><path d="m110.328 78.496c2.362 0 4.277-1.915 4.277-4.276s-1.915-4.277-4.277-4.277-4.276 1.915-4.276 4.277 1.915 4.276 4.276 4.276z"/><path d="m106 125.828h-48c-2.209 0-4 1.789-4 4v32c0 2.211 1.791 4 4 4h48c2.209 0 4-1.789 4-4v-32c0-2.211-1.791-4-4-4zm-23.025 19.656c-.248.227-.467.375-.67.344-.217-.012-.516-.203-.795-.508l-10.46-11.492h24.658zm-13.16-1.127-7.815 7.815v-16.401zm5.39 5.923.389.427c1.732 1.898 3.988 3.004 6.35 3.113.127.004.252.008.379.008 2.188 0 4.324-.859 6.055-2.445l.794-.727 7.172 7.172h-28.688zm19.872-5.031 6.923-6.337v13.26z"/><path d="m122 117.828c-2.209 0-4 1.789-4 4v120c0 2.211 1.791 4 4 4s4-1.789 4-4v-120c0-2.211-1.791-4-4-4z"/><path d="m106 173.828h-48c-2.209 0-4 1.789-4 4s1.791 4 4 4h48c2.209 0 4-1.789 4-4s-1.791-4-4-4z"/><path d="m106 189.828h-48c-2.209 0-4 1.789-4 4s1.791 4 4 4h48c2.209 0 4-1.789 4-4s-1.791-4-4-4z"/><path d="m106 205.828h-48c-2.209 0-4 1.789-4 4s1.791 4 4 4h48c2.209 0 4-1.789 4-4s-1.791-4-4-4z"/><path d="m106 221.828h-48c-2.209 0-4 1.789-4 4s1.791 4 4 4h48c2.209 0 4-1.789 4-4s-1.791-4-4-4z"/><path d="m246 125.828h-108c-2.209 0-4 1.789-4 4v16c0 2.211 1.791 4 4 4h108c2.211 0 4-1.789 4-4v-16c0-2.211-1.789-4-4-4zm-4 16h-100v-8h100z"/><path d="m138 165.828h52c2.211 0 4-1.789 4-4s-1.789-4-4-4h-52c-2.209 0-4 1.789-4 4s1.791 4 4 4z"/><path d="m138 189.828h24c2.211 0 4-1.789 4-4s-1.789-4-4-4h-24c-2.209 0-4 1.789-4 4s1.791 4 4 4z"/><path d="m230 181.828h-56c-2.211 0-4 1.789-4 4s1.789 4 4 4h56c2.211 0 4-1.789 4-4s-1.789-4-4-4z"/><path d="m218 193.828h-80c-2.209 0-4 1.789-4 4s1.791 4 4 4h80c2.211 0 4-1.789 4-4s-1.789-4-4-4z"/><path d="m190 205.828h-52c-2.209 0-4 1.789-4 4s1.791 4 4 4h52c2.211 0 4-1.789 4-4s-1.789-4-4-4z"/><path d="m166 229.828h-28c-2.209 0-4 1.789-4 4s1.791 4 4 4h28c2.211 0 4-1.789 4-4s-1.789-4-4-4z"/></g></svg>