<svg id="load" enable-background="new 0 0 300 300" height="512" viewBox="0 0 300 300" width="512" xmlns="http://www.w3.org/2000/svg"><g><path d="m222.328 58.496c2.362 0 4.277-1.915 4.277-4.276s-1.915-4.277-4.277-4.277c-2.361 0-4.276 1.915-4.276 4.277s1.915 4.276 4.276 4.276z"/><path d="m256.617 89.828h-213.234c-5.172 0-9.383 3.807-9.383 8.484v150.135c0 5.172 4.211 9.381 9.383 9.381h213.234c5.172 0 9.383-4.209 9.383-9.381v-150.135c0-4.677-4.211-8.484-9.383-8.484zm-214.626 44h20.009v72h-20.003zm214.626 116h-213.234c-.762 0-1.383-.619-1.383-1.381l-.003-34.619h24.003c2.211 0 4-1.791 4-4v-80c0-2.209-1.789-4-4-4h-24.01l-.002-27.447c.07-.164.574-.553 1.395-.553h213.234c.82 0 1.324.389 1.383.484v27.516h-24c-2.211 0-4 1.791-4 4v80c0 2.209 1.789 4 4 4h24v34.619c0 .762-.621 1.381-1.383 1.381zm1.383-116v72h-20v-72z"/><circle cx="54" cy="105.828" r="4"/><circle cx="66" cy="105.828" r="4"/><circle cx="78" cy="105.828" r="4"/><path d="m69.516 60.312c.781.781 1.805 1.172 2.828 1.172s2.047-.391 2.828-1.172l2.828-2.828 2.828 2.828c.781.781 1.805 1.172 2.828 1.172s2.047-.391 2.828-1.172c1.562-1.562 1.562-4.094 0-5.656l-2.828-2.828 2.828-2.828c1.562-1.562 1.562-4.094 0-5.656s-4.094-1.562-5.656 0l-2.828 2.828-2.828-2.828c-1.562-1.562-4.094-1.562-5.656 0s-1.562 4.094 0 5.656l2.828 2.828-2.828 2.828c-1.563 1.563-1.563 4.094 0 5.656z"/><path d="m162 69.828c6.617 0 12-5.383 12-12s-5.383-12-12-12-12 5.383-12 12 5.383 12 12 12zm0-16c2.207 0 4 1.795 4 4s-1.793 4-4 4-4-1.795-4-4 1.793-4 4-4z"/><path d="m110.328 78.496c2.362 0 4.277-1.915 4.277-4.276s-1.915-4.277-4.277-4.277c-2.361 0-4.276 1.915-4.276 4.277s1.915 4.276 4.276 4.276z"/><path d="m214 125.828h-128c-2.211 0-4 1.791-4 4v80c0 2.209 1.789 4 4 4h128c2.211 0 4-1.791 4-4v-80c0-2.209-1.789-4-4-4zm-4 80h-120v-72h120z"/><path d="m150 193.828c2.211 0 4-1.791 4-4v-8c0-2.209-1.789-4-4-4s-4 1.791-4 4v8c0 2.209 1.789 4 4 4z"/><path d="m150 161.828c2.211 0 4-1.791 4-4v-8c0-2.209-1.789-4-4-4s-4 1.791-4 4v8c0 2.209 1.789 4 4 4z"/><path d="m158 169.828c0 2.209 1.789 4 4 4h8c2.211 0 4-1.791 4-4s-1.789-4-4-4h-8c-2.211 0-4 1.791-4 4z"/><path d="m130 173.828h8c2.211 0 4-1.791 4-4s-1.789-4-4-4h-8c-2.211 0-4 1.791-4 4s1.789 4 4 4z"/><path d="m138.688 175.484-5.656 5.658c-1.562 1.562-1.562 4.096 0 5.656.781.781 1.805 1.172 2.828 1.172s2.047-.391 2.828-1.172l5.656-5.658c1.562-1.562 1.562-4.096 0-5.656-1.563-1.562-4.094-1.562-5.656 0z"/><path d="m158.484 165.344c1.023 0 2.047-.391 2.828-1.172l5.656-5.658c1.562-1.562 1.562-4.096 0-5.656-1.562-1.562-4.094-1.562-5.656 0l-5.656 5.658c-1.562 1.562-1.562 4.096 0 5.656.782.781 1.805 1.172 2.828 1.172z"/><path d="m138.688 164.172c.781.781 1.805 1.172 2.828 1.172s2.047-.391 2.828-1.172c1.562-1.561 1.562-4.094 0-5.656l-5.656-5.658c-1.562-1.562-4.094-1.562-5.656 0-1.562 1.561-1.562 4.094 0 5.656z"/><path d="m202 221.828h-104c-2.211 0-4 1.791-4 4s1.789 4 4 4h104c2.211 0 4-1.791 4-4s-1.789-4-4-4z"/><path d="m170 233.828h-40c-2.211 0-4 1.791-4 4s1.789 4 4 4h40c2.211 0 4-1.791 4-4s-1.789-4-4-4z"/></g></svg>