<svg id="order" enable-background="new 0 0 300 300" height="512" viewBox="0 0 300 300" width="512" xmlns="http://www.w3.org/2000/svg"><g><path d="m222.328 58.496c2.362 0 4.277-1.915 4.277-4.276s-1.915-4.277-4.277-4.277-4.276 1.915-4.276 4.277 1.915 4.276 4.276 4.276z"/><path d="m256.617 89.828h-213.236c-5.172 0-9.381 3.807-9.381 8.484v150.135c0 5.172 4.209 9.381 9.381 9.381h213.236c5.172 0 9.383-4.209 9.383-9.381v-150.135c0-4.677-4.211-8.484-9.383-8.484zm1.383 158.619c0 .762-.621 1.381-1.383 1.381h-213.236c-.762 0-1.381-.619-1.381-1.381l-.012-150.066c.072-.164.572-.553 1.393-.553h213.236c.82 0 1.324.389 1.383.484z"/><circle cx="54" cy="105.828" r="4"/><circle cx="66" cy="105.828" r="4"/><circle cx="78" cy="105.828" r="4"/><path d="m69.516 60.312c.781.781 1.805 1.172 2.828 1.172s2.047-.391 2.828-1.172l2.828-2.828 2.828 2.828c.781.781 1.805 1.172 2.828 1.172s2.047-.391 2.828-1.172c1.562-1.562 1.562-4.094 0-5.656l-2.828-2.828 2.828-2.828c1.562-1.562 1.562-4.094 0-5.656s-4.094-1.562-5.656 0l-2.828 2.828-2.828-2.828c-1.562-1.562-4.094-1.562-5.656 0s-1.562 4.094 0 5.656l2.828 2.828-2.828 2.828c-1.563 1.563-1.563 4.094 0 5.656z"/><path d="m162 69.828c6.617 0 12-5.383 12-12s-5.383-12-12-12-12 5.383-12 12 5.383 12 12 12zm0-16c2.207 0 4 1.795 4 4s-1.793 4-4 4-4-1.795-4-4 1.793-4 4-4z"/><path d="m110.328 78.496c2.362 0 4.277-1.915 4.277-4.276s-1.915-4.277-4.277-4.277-4.276 1.915-4.276 4.277 1.915 4.276 4.276 4.276z"/><path d="m210 181.828h-120c-15.439 0-28 12.561-28 28s12.561 28 28 28h120c15.438 0 28-12.561 28-28s-12.562-28-28-28zm0 48h-120c-11.027 0-20-8.973-20-20s8.973-20 20-20h120c11.027 0 20 8.973 20 20s-8.973 20-20 20z"/><path d="m186 201.828c2.211 0 4-1.791 4-4s-1.789-4-4-4h-12c-2.211 0-4 1.791-4 4v24c0 2.209 1.789 4 4 4h12c2.211 0 4-1.791 4-4s-1.789-4-4-4h-8v-4h8c2.211 0 4-1.791 4-4s-1.789-4-4-4h-8v-4z"/><path d="m208.574 193.828h-10.574c-2.211 0-4 1.791-4 4v24c0 2.209 1.789 4 4 4s4-1.791 4-4v-6.344l9.172 9.172c.781.781 1.805 1.172 2.828 1.172s2.047-.391 2.828-1.172c1.562-1.562 1.562-4.094 0-5.656l-5.562-5.562c3.891-1.162 6.734-4.771 6.734-9.033v-1.152c0-5.198-4.227-9.425-9.426-9.425zm1.426 10.576c0 .785-.641 1.424-1.426 1.424h-6.574v-4h6.574c.785 0 1.426.639 1.426 1.424z"/><path d="m128.576 193.828h-10.576c-2.209 0-4 1.791-4 4v24c0 2.209 1.791 4 4 4s4-1.791 4-4v-6.344l9.172 9.172c.781.781 1.805 1.172 2.828 1.172s2.047-.391 2.828-1.172c1.562-1.562 1.562-4.094 0-5.656l-5.562-5.562c3.891-1.16 6.734-4.771 6.734-9.033v-1.152c0-5.198-4.227-9.425-9.424-9.425zm1.424 10.576c0 .785-.639 1.424-1.424 1.424h-6.576v-4h6.576c.785 0 1.424.639 1.424 1.424z"/><path d="m97.863 193.828h-3.727c-6.691 0-12.137 5.445-12.137 12.137v7.727c0 6.691 5.445 12.137 12.137 12.137h3.727c6.691 0 12.137-5.445 12.137-12.137v-7.727c0-6.692-5.445-12.137-12.137-12.137zm4.137 19.863c0 2.281-1.855 4.137-4.137 4.137h-3.727c-2.281 0-4.137-1.855-4.137-4.137v-7.727c0-2.281 1.855-4.137 4.137-4.137h3.727c2.281 0 4.137 1.855 4.137 4.137z"/><path d="m155.555 193.828h-9.555c-2.211 0-4 1.791-4 4v24c0 2.209 1.789 4 4 4h9.555c5.758 0 10.445-4.686 10.445-10.445v-11.109c0-5.76-4.688-10.446-10.445-10.446zm2.445 21.555c0 1.348-1.098 2.445-2.445 2.445h-5.555v-16h5.555c1.348 0 2.445 1.098 2.445 2.445z"/><path d="m85.941 169.828c6.648 0 12.059-5.41 12.059-12.059v-15.883c0-6.648-5.41-12.059-12.059-12.059h-15.882c-6.648 0-12.059 5.41-12.059 12.059v15.883c0 6.648 5.41 12.059 12.059 12.059zm-19.941-12.058v-15.883c0-2.238 1.82-4.059 4.059-4.059h15.883c2.238 0 4.059 1.82 4.059 4.059v15.883c0 2.238-1.82 4.059-4.059 4.059h-15.883c-2.239-.001-4.059-1.821-4.059-4.059z"/><path d="m118.059 169.828h15.883c6.648 0 12.059-5.41 12.059-12.059v-15.883c0-6.648-5.41-12.059-12.059-12.059h-15.883c-6.648 0-12.059 5.41-12.059 12.059v15.883c0 6.649 5.41 12.059 12.059 12.059zm-4.059-27.941c0-2.238 1.82-4.059 4.059-4.059h15.883c2.238 0 4.059 1.82 4.059 4.059v15.883c0 2.238-1.82 4.059-4.059 4.059h-15.883c-2.238 0-4.059-1.82-4.059-4.059z"/><path d="m166.059 169.828h15.883c6.648 0 12.059-5.41 12.059-12.059v-15.883c0-6.648-5.41-12.059-12.059-12.059h-15.883c-6.648 0-12.059 5.41-12.059 12.059v15.883c0 6.649 5.41 12.059 12.059 12.059zm-4.059-27.941c0-2.238 1.82-4.059 4.059-4.059h15.883c2.238 0 4.059 1.82 4.059 4.059v15.883c0 2.238-1.82 4.059-4.059 4.059h-15.883c-2.238 0-4.059-1.82-4.059-4.059z"/><path d="m229.941 129.828h-15.883c-6.648 0-12.059 5.41-12.059 12.059v15.883c0 6.648 5.41 12.059 12.059 12.059h15.883c6.648 0 12.059-5.41 12.059-12.059v-15.883c0-6.649-5.41-12.059-12.059-12.059zm4.059 27.942c0 2.238-1.82 4.059-4.059 4.059h-15.883c-2.238 0-4.059-1.82-4.059-4.059v-15.883c0-2.238 1.82-4.059 4.059-4.059h15.883c2.238 0 4.059 1.82 4.059 4.059z"/></g></svg>