<svg id="search" enable-background="new 0 0 300 300" height="512" viewBox="0 0 300 300" width="512" xmlns="http://www.w3.org/2000/svg"><g><path d="m222.328 58.496c2.362 0 4.277-1.915 4.277-4.276s-1.915-4.277-4.277-4.277-4.276 1.915-4.276 4.277 1.915 4.276 4.276 4.276z"/><path d="m256.617 89.828h-213.234c-5.172 0-9.383 3.807-9.383 8.484v150.135c0 5.172 4.211 9.381 9.383 9.381h213.234c5.172 0 9.383-4.209 9.383-9.381v-150.135c0-4.677-4.211-8.484-9.383-8.484zm-154.617 160h-44v-28h44zm68 0h-44v-28h44zm68 0h-44v-28h44zm20-1.381c0 .762-.621 1.381-1.383 1.381h-10.617v-32c0-2.209-1.789-4-4-4h-52c-2.211 0-4 1.791-4 4v32h-8v-32c0-2.209-1.789-4-4-4h-52c-2.211 0-4 1.791-4 4v32h-8v-32c0-2.209-1.789-4-4-4h-52c-2.211 0-4 1.791-4 4v32h-6.617c-.762 0-1.383-.619-1.383-1.381l-.012-150.066c.07-.164.574-.553 1.395-.553h213.234c.82 0 1.324.389 1.383.484z"/><circle cx="54" cy="105.828" r="4"/><circle cx="66" cy="105.828" r="4"/><circle cx="78" cy="105.828" r="4"/><path d="m69.516 60.312c.781.781 1.805 1.172 2.828 1.172s2.047-.391 2.828-1.172l2.828-2.828 2.828 2.828c.781.781 1.805 1.172 2.828 1.172s2.047-.391 2.828-1.172c1.562-1.562 1.562-4.094 0-5.656l-2.828-2.828 2.828-2.828c1.562-1.562 1.562-4.094 0-5.656s-4.094-1.562-5.656 0l-2.828 2.828-2.828-2.828c-1.562-1.562-4.094-1.562-5.656 0s-1.562 4.094 0 5.656l2.828 2.828-2.828 2.828c-1.563 1.563-1.563 4.094 0 5.656z"/><path d="m162 69.828c6.617 0 12-5.383 12-12s-5.383-12-12-12-12 5.383-12 12 5.383 12 12 12zm0-16c2.207 0 4 1.795 4 4s-1.793 4-4 4-4-1.795-4-4 1.793-4 4-4z"/><path d="m110.328 78.496c2.362 0 4.277-1.915 4.277-4.276s-1.915-4.277-4.277-4.277-4.276 1.915-4.276 4.277 1.915 4.276 4.276 4.276z"/><path d="m250 133.828h-200c-2.211 0-4 1.791-4 4v52c0 2.209 1.789 4 4 4h200c2.211 0 4-1.791 4-4v-52c0-2.209-1.789-4-4-4zm-196 8h140v44h-140zm192 44h-44v-44h44z"/><path d="m220 173.828c2.402 0 4.631-.664 6.609-1.735l8.563 8.563c.781.781 1.805 1.172 2.828 1.172s2.047-.391 2.828-1.172c1.562-1.562 1.562-4.094 0-5.656l-8.563-8.563c1.071-1.978 1.735-4.206 1.735-6.609 0-7.719-6.281-14-14-14s-14 6.281-14 14 6.281 14 14 14zm0-20c3.309 0 6 2.691 6 6s-2.691 6-6 6-6-2.691-6-6 2.691-6 6-6z"/></g></svg>