<svg id="settings" enable-background="new 0 0 300 300" height="512" viewBox="0 0 300 300" width="512" xmlns="http://www.w3.org/2000/svg"><g><path d="m222.328 58.496c2.362 0 4.277-1.915 4.277-4.276s-1.915-4.277-4.277-4.277-4.276 1.915-4.276 4.277 1.915 4.276 4.276 4.276z"/><path d="m256.619 89.828h-213.238c-5.172 0-9.381 3.805-9.381 8.484v150.133c0 5.172 4.209 9.383 9.381 9.383h213.238c5.172 0 9.381-4.211 9.381-9.383v-150.133c0-4.679-4.209-8.484-9.381-8.484zm1.381 158.617c0 .762-.619 1.383-1.381 1.383h-213.238c-.762 0-1.381-.621-1.381-1.383l-.012-150.066c.072-.16.572-.551 1.393-.551h213.238c.82 0 1.32.391 1.381.484z"/><circle cx="54" cy="105.828" r="4"/><circle cx="66" cy="105.828" r="4"/><circle cx="78" cy="105.828" r="4"/><path d="m69.516 60.312c.781.781 1.805 1.172 2.828 1.172s2.047-.391 2.828-1.172l2.828-2.828 2.828 2.828c.781.781 1.805 1.172 2.828 1.172s2.047-.391 2.828-1.172c1.562-1.562 1.562-4.094 0-5.656l-2.828-2.828 2.828-2.828c1.562-1.562 1.562-4.094 0-5.656s-4.094-1.562-5.656 0l-2.828 2.828-2.828-2.828c-1.562-1.562-4.094-1.562-5.656 0s-1.562 4.094 0 5.656l2.828 2.828-2.828 2.828c-1.563 1.563-1.563 4.094 0 5.656z"/><path d="m162 69.828c6.617 0 12-5.383 12-12s-5.383-12-12-12-12 5.383-12 12 5.383 12 12 12zm0-16c2.205 0 4 1.793 4 4s-1.795 4-4 4-4-1.793-4-4 1.795-4 4-4z"/><path d="m110.328 78.496c2.362 0 4.277-1.915 4.277-4.276s-1.915-4.277-4.277-4.277-4.276 1.915-4.276 4.277 1.915 4.276 4.276 4.276z"/><path d="m142 121.828h-92c-2.209 0-4 1.789-4 4v112c0 2.211 1.791 4 4 4h92c2.209 0 4-1.789 4-4v-112c0-2.211-1.791-4-4-4zm-4 112h-84v-104h84z"/><path d="m250 121.828h-92c-2.209 0-4 1.789-4 4v112c0 2.211 1.791 4 4 4h92c2.209 0 4-1.789 4-4v-112c0-2.211-1.791-4-4-4zm-4 112h-84v-104h84z"/><path d="m78 177.828h36c11.027 0 20-8.973 20-20s-8.973-20-20-20h-36c-11.027 0-20 8.973-20 20s8.973 20 20 20zm48-20c0 6.617-5.383 12-12 12h-20.102c2.538-3.353 4.102-7.48 4.102-12s-1.564-8.647-4.102-12h20.102c6.617 0 12 5.383 12 12zm-48-12c6.617 0 12 5.383 12 12s-5.383 12-12 12-12-5.383-12-12 5.383-12 12-12z"/><path d="m78 225.828h36c11.027 0 20-8.973 20-20s-8.973-20-20-20h-36c-11.027 0-20 8.973-20 20s8.973 20 20 20zm48-20c0 6.617-5.383 12-12 12s-12-5.383-12-12 5.383-12 12-12 12 5.383 12 12zm-48-12h20.102c-2.538 3.353-4.102 7.48-4.102 12s1.564 8.647 4.102 12h-20.102c-6.617 0-12-5.383-12-12s5.383-12 12-12z"/><path d="m203.953 197.637c7.352 0 13.334-5.98 13.334-13.332s-5.982-13.336-13.334-13.336-13.334 5.984-13.334 13.336 5.983 13.332 13.334 13.332zm0-18.668c2.941 0 5.334 2.395 5.334 5.336s-2.393 5.332-5.334 5.332-5.334-2.391-5.334-5.332 2.393-5.336 5.334-5.336z"/><path d="m174.664 193.637h.072c.52 1.625 1.176 3.199 1.963 4.719l-.057.059c-2.617 2.617-2.617 6.871-.002 9.488l3.711 3.711c2.615 2.617 6.871 2.617 9.49 0l.057-.055c1.52.785 3.096 1.441 4.721 1.961v.074c0 3.699 3.01 6.711 6.711 6.711h5.246c3.701 0 6.711-3.012 6.711-6.711v-.074c1.625-.52 3.201-1.176 4.721-1.961l.057.055c2.617 2.617 6.871 2.617 9.492 0l3.707-3.711c2.617-2.617 2.617-6.871 0-9.488l-.057-.059c.787-1.52 1.443-3.094 1.963-4.719h.072c3.701 0 6.711-3.012 6.711-6.711v-5.246c0-3.699-3.01-6.711-6.711-6.711h-.072c-.52-1.625-1.176-3.199-1.963-4.719l.057-.059c2.617-2.617 2.617-6.871.002-9.488l-3.711-3.711c-2.617-2.617-6.875-2.617-9.492 0l-.055.059c-1.521-.789-3.098-1.445-4.721-1.965v-.074c0-3.699-3.01-6.707-6.711-6.707h-5.246c-3.701 0-6.711 3.008-6.711 6.707v.074c-1.623.52-3.199 1.176-4.719 1.965l-.059-.059c-2.617-2.617-6.871-2.617-9.492 0l-3.707 3.711c-2.617 2.617-2.617 6.871 0 9.488l.057.059c-.787 1.52-1.443 3.094-1.963 4.719h-.072c-3.701 0-6.711 3.012-6.711 6.711v5.246c0 3.699 3.01 6.711 6.711 6.711zm1.289-10.668h1.869c1.902 0 3.541-1.34 3.92-3.203.576-2.836 1.688-5.512 3.305-7.949 1.051-1.586.84-3.695-.506-5.039l-1.33-1.332 1.887-1.887 1.33 1.332c1.344 1.344 3.449 1.555 5.037.508 2.443-1.617 5.119-2.73 7.951-3.309 1.863-.375 3.203-2.016 3.203-3.918v-1.867h2.668v1.867c0 1.902 1.34 3.543 3.203 3.918 2.832.578 5.508 1.691 7.955 3.309 1.584 1.047 3.689.836 5.037-.508l1.328-1.328 1.885 1.883-1.33 1.332c-1.346 1.344-1.557 3.453-.506 5.039 1.617 2.438 2.729 5.113 3.305 7.949.379 1.863 2.018 3.203 3.92 3.203h1.869v2.668h-1.869c-1.902 0-3.541 1.34-3.92 3.203-.576 2.836-1.688 5.512-3.305 7.949-1.051 1.586-.84 3.695.506 5.039l1.33 1.332-1.885 1.883-1.328-1.328c-1.348-1.348-3.453-1.559-5.041-.504-2.438 1.613-5.111 2.727-7.951 3.305-1.863.375-3.203 2.016-3.203 3.918v1.871h-2.668v-1.871c0-1.902-1.34-3.543-3.203-3.918-2.84-.578-5.514-1.691-7.949-3.305-1.59-1.055-3.695-.844-5.039.504l-1.33 1.332-1.887-1.887 1.33-1.332c1.346-1.344 1.557-3.453.506-5.039-1.617-2.438-2.729-5.113-3.305-7.949-.379-1.863-2.018-3.203-3.92-3.203h-1.869z"/></g></svg>