<svg id="user" enable-background="new 0 0 300 300" height="512" viewBox="0 0 300 300" width="512" xmlns="http://www.w3.org/2000/svg"><g><path d="m222.328 58.496c2.362 0 4.277-1.915 4.277-4.276s-1.915-4.277-4.277-4.277-4.276 1.915-4.276 4.277 1.915 4.276 4.276 4.276z"/><path d="m256.617 89.828h-213.234c-5.172 0-9.383 3.807-9.383 8.484v150.135c0 5.172 4.211 9.381 9.383 9.381h213.234c5.172 0 9.383-4.209 9.383-9.381v-150.135c0-4.677-4.211-8.484-9.383-8.484zm1.383 158.619c0 .762-.621 1.381-1.383 1.381h-213.234c-.762 0-1.383-.619-1.383-1.381l-.012-150.066c.07-.164.574-.553 1.395-.553h213.234c.82 0 1.324.389 1.383.484z"/><circle cx="54" cy="105.828" r="4"/><circle cx="66" cy="105.828" r="4"/><circle cx="78" cy="105.828" r="4"/><path d="m69.516 60.312c.781.781 1.805 1.172 2.828 1.172s2.047-.391 2.828-1.172l2.828-2.828 2.828 2.828c.781.781 1.805 1.172 2.828 1.172s2.047-.391 2.828-1.172c1.562-1.562 1.562-4.094 0-5.656l-2.828-2.828 2.828-2.828c1.562-1.562 1.562-4.094 0-5.656s-4.094-1.562-5.656 0l-2.828 2.828-2.828-2.828c-1.562-1.562-4.094-1.562-5.656 0s-1.562 4.094 0 5.656l2.828 2.828-2.828 2.828c-1.563 1.563-1.563 4.094 0 5.656z"/><path d="m162 69.828c6.617 0 12-5.383 12-12s-5.383-12-12-12-12 5.383-12 12 5.383 12 12 12zm0-16c2.207 0 4 1.795 4 4s-1.793 4-4 4-4-1.795-4-4 1.793-4 4-4z"/><path d="m110.328 78.496c2.362 0 4.277-1.915 4.277-4.276s-1.915-4.277-4.277-4.277-4.276 1.915-4.276 4.277 1.915 4.276 4.276 4.276z"/><path d="m121.305 205.828h-11.305v-6.661c9.443-4.374 16-13.708 16-24.523v-19.906c0-8.727-6.195-16.018-14.371-17.615-1.5-4.246-5.523-7.295-10.242-7.295h-13.645c-9.781 0-17.742 8.049-17.742 17.941v26.875c0 10.815 6.557 20.149 16 24.523v6.661h-11.305c-9.207 0-16.695 7.49-16.695 16.695v7.305c0 2.209 1.789 4 4 4h72c2.211 0 4-1.791 4-4v-7.305c0-9.205-7.488-16.695-16.695-16.695zm-27.305 11.294c1.257.429 2.591.706 4 .706s2.743-.277 4-.706v8.706h-8zm-16-69.352c0-5.482 4.371-9.941 9.742-9.941h13.645c1.582 0 2.871 1.332 2.871 2.971 0 2.209 1.789 4 4 4 5.371 0 9.742 4.459 9.742 9.939v1.105l-1.832-1.92c-1.23-1.291-3.172-1.609-4.75-.781-14.965 7.83-25.961.562-26.402.264-.691-.484-1.492-.721-2.289-.721-1.059 0-2.113.422-2.895 1.238l-1.832 1.92zm0 26.875v-7.213l5.5-5.764c5.016 2.352 15.691 5.672 28.887-.119l5.613 5.883v7.213c0 10.578-8.973 19.184-20 19.184s-20-8.606-20-19.184zm20 27.183c1.362 0 2.69-.127 4-.31v4.31.508c0 1.926-1.793 3.492-4 3.492s-4-1.566-4-3.492v-.508-4.31c1.31.183 2.638.31 4 .31zm-32 20.695c0-4.795 3.902-8.695 8.695-8.695h11.305v12h-20zm64 3.305h-20v-12h11.305c4.793 0 8.695 3.9 8.695 8.695z"/><path d="m214 165.828c13.234 0 24-10.766 24-24s-10.766-24-24-24-24 10.766-24 24 10.766 24 24 24zm15.432-28h-9.686l3.376-9.114c3.086 2.154 5.338 5.374 6.31 9.114zm-15.432-12c.549 0 1.068.108 1.603.162l-5.353 14.449c-.457 1.227-.281 2.6.469 3.674.746 1.074 1.973 1.715 3.281 1.715h15.432c-1.789 6.881-7.997 12-15.432 12-8.824 0-16-7.178-16-16s7.176-16 16-16z"/><path d="m146 193.828h52c11.027 0 20-8.973 20-20 0-2.209-1.789-4-4-4s-4 1.791-4 4c0 6.617-5.383 12-12 12h-52c-2.211 0-4 1.791-4 4s1.789 4 4 4z"/><path d="m250 209.828h-40c-2.211 0-4 1.791-4 4v8h-14c-3.309 0-6-2.691-6-6 0-7.719-6.281-14-14-14h-26c-2.211 0-4 1.791-4 4s1.789 4 4 4h26c3.309 0 6 2.691 6 6 0 7.719 6.281 14 14 14h14v8c0 2.209 1.789 4 4 4h40c2.211 0 4-1.791 4-4v-24c0-2.209-1.789-4-4-4zm-4 24h-32v-16h32z"/><path d="m146 137.828h16c2.211 0 4-1.791 4-4s-1.789-4-4-4h-16c-2.211 0-4 1.791-4 4s1.789 4 4 4z"/><path d="m146 149.828h24c2.211 0 4-1.791 4-4s-1.789-4-4-4h-24c-2.211 0-4 1.791-4 4s1.789 4 4 4z"/></g></svg>