<svg width="4941" height="4941" xmlns="http://www.w3.org/2000/svg" xmlns:xlink="http://www.w3.org/1999/xlink" xml:space="preserve" overflow="hidden"><defs><filter id="fx0" x="-10%" y="-10%" width="120%" height="120%" filterUnits="userSpaceOnUse" primitiveUnits="userSpaceOnUse"><feComponentTransfer color-interpolation-filters="sRGB"><feFuncR type="discrete" tableValues="0.949020 0.949020"/><feFuncG type="discrete" tableValues="0.949020 0.949020"/><feFuncB type="discrete" tableValues="0.949020 0.949020"/><feFuncA type="linear" slope="1.000000" intercept="0.000000"/></feComponentTransfer><feGaussianBlur stdDeviation="6.111111 6.111111"/></filter><clipPath id="clip1"><rect x="4" y="18" width="4941" height="4941"/></clipPath><clipPath id="clip2"><rect x="-18.3333" y="-18.3333" width="4972.67" height="4972.67"/></clipPath><clipPath id="clip3"><rect x="0" y="0" width="4936" height="4936"/></clipPath></defs><g clip-path="url(#clip1)" transform="translate(-4 -18)"><g clip-path="url(#clip2)" filter="url(#fx0)" transform="translate(7 21)"><g clip-path="url(#clip3)"><path d="M334.62 4884.85C160.879 4883.67 20.9906 4741.87 22.1697 4568.13L50.9022 334.37C52.0813 160.63 193.882 20.7408 367.622 21.9199L4601.38 50.6524C4775.12 51.8315 4915.01 193.632 4913.83 367.373L4885.1 4601.13C4883.92 4774.87 4742.12 4914.76 4568.38 4913.58Z" stroke="#FFFFFF" stroke-width="4.58333" stroke-linecap="butt" stroke-linejoin="miter" stroke-miterlimit="8" stroke-opacity="1" fill="#F2F2F2" fill-rule="evenodd" fill-opacity="0.329412"/></g></g><path d="M341.62 4892.1C167.879 4890.92 27.9906 4749.12 29.1697 4575.38L57.9022 341.62C59.0813 167.88 200.882 27.9908 374.622 29.1699L4608.38 57.9024C4782.12 59.0815 4922.01 200.882 4920.83 374.623L4892.1 4608.38C4890.92 4782.12 4749.12 4922.01 4575.38 4920.83Z" stroke="#FFFFFF" stroke-width="4.58333" stroke-linecap="butt" stroke-linejoin="miter" stroke-miterlimit="8" stroke-opacity="1" fill="#F2F2F2" fill-rule="evenodd" fill-opacity="0.329412"/></g></svg>