<svg width="2929" height="110" xmlns="http://www.w3.org/2000/svg" xmlns:xlink="http://www.w3.org/1999/xlink" xml:space="preserve" overflow="hidden"><defs><filter id="fx0" x="-10%" y="-10%" width="120%" height="120%" filterUnits="userSpaceOnUse" primitiveUnits="userSpaceOnUse"><feComponentTransfer color-interpolation-filters="sRGB"><feFuncR type="discrete" tableValues="0.949020 0.949020"/><feFuncG type="discrete" tableValues="0.949020 0.949020"/><feFuncB type="discrete" tableValues="0.949020 0.949020"/><feFuncA type="linear" slope="1.000000" intercept="0.000000"/></feComponentTransfer><feGaussianBlur stdDeviation="6.111111 6.111111"/></filter><clipPath id="clip1"><rect x="861" y="1521" width="2929" height="110"/></clipPath><clipPath id="clip2"><rect x="-18.3333" y="-18.3334" width="2960.67" height="145.667"/></clipPath><clipPath id="clip3"><rect x="0" y="0" width="2924" height="109"/></clipPath></defs><g clip-path="url(#clip1)" transform="translate(-861 -1521)"><g clip-path="url(#clip2)" filter="url(#fx0)" transform="translate(865 1523)"><g clip-path="url(#clip3)"><path d="M22.5001 26.3902C22.5001 24.1036 24.3537 22.2499 26.6404 22.2499L2897.36 22.2499C2899.65 22.2499 2901.5 24.1036 2901.5 26.3902L2901.5 82.1095C2901.5 84.3961 2899.65 86.2498 2897.36 86.2498L26.6404 86.2498C24.3537 86.2498 22.5001 84.3961 22.5001 82.1095Z" stroke="#FFFFFF" stroke-width="5" stroke-linecap="butt" stroke-linejoin="miter" stroke-miterlimit="8" stroke-opacity="1" fill="#F2F2F2" fill-rule="evenodd" fill-opacity="0.329412"/></g></g><path d="M887.5 1535.64C887.5 1533.35 889.354 1531.5 891.64 1531.5L3762.36 1531.5C3764.65 1531.5 3766.5 1533.35 3766.5 1535.64L3766.5 1591.36C3766.5 1593.65 3764.65 1595.5 3762.36 1595.5L891.64 1595.5C889.354 1595.5 887.5 1593.65 887.5 1591.36Z" stroke="#FFFFFF" stroke-width="4.58333" stroke-linecap="butt" stroke-linejoin="miter" stroke-miterlimit="8" stroke-opacity="1" fill="#F2F2F2" fill-rule="evenodd" fill-opacity="0.329412"/></g></svg>