<svg width="4941" height="4941" xmlns="http://www.w3.org/2000/svg" xmlns:xlink="http://www.w3.org/1999/xlink" xml:space="preserve" overflow="hidden"><defs><filter id="fx0" x="-10%" y="-10%" width="120%" height="120%" filterUnits="userSpaceOnUse" primitiveUnits="userSpaceOnUse"><feComponentTransfer color-interpolation-filters="sRGB"><feFuncR type="discrete" tableValues="0.949020 0.949020"/><feFuncG type="discrete" tableValues="0.949020 0.949020"/><feFuncB type="discrete" tableValues="0.949020 0.949020"/><feFuncA type="linear" slope="1.000000" intercept="0.000000"/></feComponentTransfer><feGaussianBlur stdDeviation="6.111111 6.111111"/></filter><filter id="fx1" x="-10%" y="-10%" width="120%" height="120%" filterUnits="userSpaceOnUse" primitiveUnits="userSpaceOnUse"><feComponentTransfer color-interpolation-filters="sRGB"><feFuncR type="discrete" tableValues="0.949020 0.949020"/><feFuncG type="discrete" tableValues="0.949020 0.949020"/><feFuncB type="discrete" tableValues="0.949020 0.949020"/><feFuncA type="linear" slope="1.000000" intercept="0.000000"/></feComponentTransfer><feGaussianBlur stdDeviation="6.111111 6.111111"/></filter><filter id="fx2" x="-10%" y="-10%" width="120%" height="120%" filterUnits="userSpaceOnUse" primitiveUnits="userSpaceOnUse"><feComponentTransfer color-interpolation-filters="sRGB"><feFuncR type="discrete" tableValues="0.949020 0.949020"/><feFuncG type="discrete" tableValues="0.949020 0.949020"/><feFuncB type="discrete" tableValues="0.949020 0.949020"/><feFuncA type="linear" slope="1.000000" intercept="0.000000"/></feComponentTransfer><feGaussianBlur stdDeviation="6.111111 6.111111"/></filter><filter id="fx3" x="-10%" y="-10%" width="120%" height="120%" filterUnits="userSpaceOnUse" primitiveUnits="userSpaceOnUse"><feComponentTransfer color-interpolation-filters="sRGB"><feFuncR type="discrete" tableValues="1.000000 1.000000"/><feFuncG type="discrete" tableValues="1.000000 1.000000"/><feFuncB type="discrete" tableValues="1.000000 1.000000"/><feFuncA type="linear" slope="0.400000" intercept="0.000000"/></feComponentTransfer><feGaussianBlur stdDeviation="7.638889 7.638889"/></filter><filter id="fx4" x="-10%" y="-10%" width="120%" height="120%" filterUnits="userSpaceOnUse" primitiveUnits="userSpaceOnUse"><feComponentTransfer color-interpolation-filters="sRGB"><feFuncR type="discrete" tableValues="1.000000 1.000000"/><feFuncG type="discrete" tableValues="1.000000 1.000000"/><feFuncB type="discrete" tableValues="1.000000 1.000000"/><feFuncA type="linear" slope="0.400000" intercept="0.000000"/></feComponentTransfer><feGaussianBlur stdDeviation="7.638889 7.638889"/></filter><filter id="fx5" x="-10%" y="-10%" width="120%" height="120%" filterUnits="userSpaceOnUse" primitiveUnits="userSpaceOnUse"><feComponentTransfer color-interpolation-filters="sRGB"><feFuncR type="discrete" tableValues="1.000000 1.000000"/><feFuncG type="discrete" tableValues="1.000000 1.000000"/><feFuncB type="discrete" tableValues="1.000000 1.000000"/><feFuncA type="linear" slope="0.400000" intercept="0.000000"/></feComponentTransfer><feGaussianBlur stdDeviation="7.638889 7.638889"/></filter><filter id="fx6" x="-10%" y="-10%" width="120%" height="120%" filterUnits="userSpaceOnUse" primitiveUnits="userSpaceOnUse"><feComponentTransfer color-interpolation-filters="sRGB"><feFuncR type="discrete" tableValues="0.000000 0.000000"/><feFuncG type="discrete" tableValues="0.000000 0.000000"/><feFuncB type="discrete" tableValues="0.000000 0.000000"/><feFuncA type="linear" slope="0.400000" intercept="0.000000"/></feComponentTransfer><feGaussianBlur stdDeviation="6.111111 6.111111"/></filter><filter id="fx7" x="-10%" y="-10%" width="120%" height="120%" filterUnits="userSpaceOnUse" primitiveUnits="userSpaceOnUse"><feComponentTransfer color-interpolation-filters="sRGB"><feFuncR type="discrete" tableValues="0.000000 0.000000"/><feFuncG type="discrete" tableValues="0.000000 0.000000"/><feFuncB type="discrete" tableValues="0.000000 0.000000"/><feFuncA type="linear" slope="0.400000" intercept="0.000000"/></feComponentTransfer><feGaussianBlur stdDeviation="6.111111 6.111111"/></filter><filter id="fx8" x="-10%" y="-10%" width="120%" height="120%" filterUnits="userSpaceOnUse" primitiveUnits="userSpaceOnUse"><feComponentTransfer color-interpolation-filters="sRGB"><feFuncR type="discrete" tableValues="0.000000 0.000000"/><feFuncG type="discrete" tableValues="0.000000 0.000000"/><feFuncB type="discrete" tableValues="0.000000 0.000000"/><feFuncA type="linear" slope="0.400000" intercept="0.000000"/></feComponentTransfer><feGaussianBlur stdDeviation="6.111111 6.111111"/></filter><filter id="fx9" x="-10%" y="-10%" width="120%" height="120%" filterUnits="userSpaceOnUse" primitiveUnits="userSpaceOnUse"><feComponentTransfer color-interpolation-filters="sRGB"><feFuncR type="discrete" tableValues="0.000000 0.000000"/><feFuncG type="discrete" tableValues="0.000000 0.000000"/><feFuncB type="discrete" tableValues="0.000000 0.000000"/><feFuncA type="linear" slope="0.400000" intercept="0.000000"/></feComponentTransfer><feGaussianBlur stdDeviation="6.111111 6.111111"/></filter><filter id="fx10" x="-10%" y="-10%" width="120%" height="120%" filterUnits="userSpaceOnUse" primitiveUnits="userSpaceOnUse"><feComponentTransfer color-interpolation-filters="sRGB"><feFuncR type="discrete" tableValues="1.000000 1.000000"/><feFuncG type="discrete" tableValues="1.000000 1.000000"/><feFuncB type="discrete" tableValues="1.000000 1.000000"/><feFuncA type="linear" slope="1.000000" intercept="0.000000"/></feComponentTransfer><feGaussianBlur stdDeviation="6.111111 6.111111"/></filter><filter id="fx11" x="-10%" y="-10%" width="120%" height="120%" filterUnits="userSpaceOnUse" primitiveUnits="userSpaceOnUse"><feComponentTransfer color-interpolation-filters="sRGB"><feFuncR type="discrete" tableValues="1.000000 1.000000"/><feFuncG type="discrete" tableValues="1.000000 1.000000"/><feFuncB type="discrete" tableValues="1.000000 1.000000"/><feFuncA type="linear" slope="1.000000" intercept="0.000000"/></feComponentTransfer><feGaussianBlur stdDeviation="6.111111 6.111111"/></filter><filter id="fx12" x="-10%" y="-10%" width="120%" height="120%" filterUnits="userSpaceOnUse" primitiveUnits="userSpaceOnUse"><feComponentTransfer color-interpolation-filters="sRGB"><feFuncR type="discrete" tableValues="1.000000 1.000000"/><feFuncG type="discrete" tableValues="1.000000 1.000000"/><feFuncB type="discrete" tableValues="1.000000 1.000000"/><feFuncA type="linear" slope="1.000000" intercept="0.000000"/></feComponentTransfer><feGaussianBlur stdDeviation="6.111111 6.111111"/></filter><filter id="fx13" x="-10%" y="-10%" width="120%" height="120%" filterUnits="userSpaceOnUse" primitiveUnits="userSpaceOnUse"><feComponentTransfer color-interpolation-filters="sRGB"><feFuncR type="discrete" tableValues="1.000000 1.000000"/><feFuncG type="discrete" tableValues="1.000000 1.000000"/><feFuncB type="discrete" tableValues="1.000000 1.000000"/><feFuncA type="linear" slope="1.000000" intercept="0.000000"/></feComponentTransfer><feGaussianBlur stdDeviation="6.111111 6.111111"/></filter><filter id="fx14" x="-10%" y="-10%" width="120%" height="120%" filterUnits="userSpaceOnUse" primitiveUnits="userSpaceOnUse"><feComponentTransfer color-interpolation-filters="sRGB"><feFuncR type="discrete" tableValues="1.000000 1.000000"/><feFuncG type="discrete" tableValues="1.000000 1.000000"/><feFuncB type="discrete" tableValues="1.000000 1.000000"/><feFuncA type="linear" slope="1.000000" intercept="0.000000"/></feComponentTransfer><feGaussianBlur stdDeviation="6.111111 6.111111"/></filter><filter id="fx15" x="-10%" y="-10%" width="120%" height="120%" filterUnits="userSpaceOnUse" primitiveUnits="userSpaceOnUse"><feComponentTransfer color-interpolation-filters="sRGB"><feFuncR type="discrete" tableValues="1.000000 1.000000"/><feFuncG type="discrete" tableValues="1.000000 1.000000"/><feFuncB type="discrete" tableValues="1.000000 1.000000"/><feFuncA type="linear" slope="1.000000" intercept="0.000000"/></feComponentTransfer><feGaussianBlur stdDeviation="6.111111 6.111111"/></filter><filter id="fx16" x="-10%" y="-10%" width="120%" height="120%" filterUnits="userSpaceOnUse" primitiveUnits="userSpaceOnUse"><feComponentTransfer color-interpolation-filters="sRGB"><feFuncR type="discrete" tableValues="1.000000 1.000000"/><feFuncG type="discrete" tableValues="1.000000 1.000000"/><feFuncB type="discrete" tableValues="1.000000 1.000000"/><feFuncA type="linear" slope="1.000000" intercept="0.000000"/></feComponentTransfer><feGaussianBlur stdDeviation="6.111111 6.111111"/></filter><filter id="fx17" x="-10%" y="-10%" width="120%" height="120%" filterUnits="userSpaceOnUse" primitiveUnits="userSpaceOnUse"><feComponentTransfer color-interpolation-filters="sRGB"><feFuncR type="discrete" tableValues="1.000000 1.000000"/><feFuncG type="discrete" tableValues="1.000000 1.000000"/><feFuncB type="discrete" tableValues="1.000000 1.000000"/><feFuncA type="linear" slope="1.000000" intercept="0.000000"/></feComponentTransfer><feGaussianBlur stdDeviation="6.111111 6.111111"/></filter><filter id="fx18" x="-10%" y="-10%" width="120%" height="120%" filterUnits="userSpaceOnUse" primitiveUnits="userSpaceOnUse"><feComponentTransfer color-interpolation-filters="sRGB"><feFuncR type="discrete" tableValues="1.000000 1.000000"/><feFuncG type="discrete" tableValues="1.000000 1.000000"/><feFuncB type="discrete" tableValues="1.000000 1.000000"/><feFuncA type="linear" slope="1.000000" intercept="0.000000"/></feComponentTransfer><feGaussianBlur stdDeviation="6.111111 6.111111"/></filter><filter id="fx19" x="-10%" y="-10%" width="120%" height="120%" filterUnits="userSpaceOnUse" primitiveUnits="userSpaceOnUse"><feComponentTransfer color-interpolation-filters="sRGB"><feFuncR type="discrete" tableValues="1.000000 1.000000"/><feFuncG type="discrete" tableValues="1.000000 1.000000"/><feFuncB type="discrete" tableValues="1.000000 1.000000"/><feFuncA type="linear" slope="1.000000" intercept="0.000000"/></feComponentTransfer><feGaussianBlur stdDeviation="6.111111 6.111111"/></filter><filter id="fx20" x="-10%" y="-10%" width="120%" height="120%" filterUnits="userSpaceOnUse" primitiveUnits="userSpaceOnUse"><feComponentTransfer color-interpolation-filters="sRGB"><feFuncR type="discrete" tableValues="1.000000 1.000000"/><feFuncG type="discrete" tableValues="1.000000 1.000000"/><feFuncB type="discrete" tableValues="1.000000 1.000000"/><feFuncA type="linear" slope="1.000000" intercept="0.000000"/></feComponentTransfer><feGaussianBlur stdDeviation="6.111111 6.111111"/></filter><filter id="fx21" x="-10%" y="-10%" width="120%" height="120%" filterUnits="userSpaceOnUse" primitiveUnits="userSpaceOnUse"><feComponentTransfer color-interpolation-filters="sRGB"><feFuncR type="discrete" tableValues="1.000000 1.000000"/><feFuncG type="discrete" tableValues="1.000000 1.000000"/><feFuncB type="discrete" tableValues="1.000000 1.000000"/><feFuncA type="linear" slope="1.000000" intercept="0.000000"/></feComponentTransfer><feGaussianBlur stdDeviation="6.111111 6.111111"/></filter><clipPath id="clip22"><rect x="4" y="18" width="4941" height="4941"/></clipPath><clipPath id="clip23"><rect x="-18.3333" y="-18.3333" width="4972.67" height="4972.67"/></clipPath><clipPath id="clip24"><rect x="0" y="0" width="4936" height="4936"/></clipPath><clipPath id="clip25"><rect x="-18.3333" y="-18.3333" width="4836.67" height="4836.67"/></clipPath><clipPath id="clip26"><rect x="0" y="0" width="4800" height="4800"/></clipPath><clipPath id="clip27"><rect x="-18.3333" y="-18.3333" width="4702.67" height="4702.67"/></clipPath><clipPath id="clip28"><rect x="0" y="0" width="4666" height="4666"/></clipPath><clipPath id="clip29"><rect x="-22.9167" y="-22.9167" width="854.833" height="854.833"/></clipPath><clipPath id="clip30"><rect x="0" y="0" width="809" height="809"/></clipPath><clipPath id="clip31"><rect x="-22.9167" y="-22.9167" width="732.833" height="732.833"/></clipPath><clipPath id="clip32"><rect x="0" y="0" width="687" height="687"/></clipPath><clipPath id="clip33"><rect x="-22.9167" y="-22.9167" width="620.833" height="620.833"/></clipPath><clipPath id="clip34"><rect x="0" y="0" width="575" height="575"/></clipPath><clipPath id="clip35"><rect x="-18.3333" y="-18.3333" width="182.667" height="200.667"/></clipPath><clipPath id="clip36"><rect x="0" y="0" width="146" height="164"/></clipPath><clipPath id="clip37"><rect x="-18.3333" y="-18.3333" width="191.667" height="200.667"/></clipPath><clipPath id="clip38"><rect x="0" y="0" width="155" height="164"/></clipPath><clipPath id="clip39"><rect x="-18.3333" y="-18.3333" width="181.667" height="196.667"/></clipPath><clipPath id="clip40"><rect x="0" y="0" width="145" height="160"/></clipPath><clipPath id="clip41"><rect x="-18.3333" y="-18.3333" width="189.667" height="187.667"/></clipPath><clipPath id="clip42"><rect x="0" y="0" width="153" height="151"/></clipPath><clipPath id="clip43"><path d="M2174.5 2765.5C2168.43 2765.5 2163.5 2770.2 2163.5 2776 2163.5 2781.8 2168.43 2786.5 2174.5 2786.5 2180.58 2786.5 2185.5 2781.8 2185.5 2776 2185.5 2770.2 2180.58 2765.5 2174.5 2765.5ZM4.00006 18.0001 4945 18.0001 4945 4959 4.00006 4959Z" fill-rule="evenodd" clip-rule="evenodd"/></clipPath><clipPath id="clip44"><rect x="-18.3333" y="-18.3333" width="103.667" height="102.667"/></clipPath><clipPath id="clip45"><rect x="0" y="0" width="67" height="66"/></clipPath><clipPath id="clip46"><path d="M2122.5 2824.5C2116.43 2824.5 2111.5 2829.43 2111.5 2835.5 2111.5 2841.58 2116.43 2846.5 2122.5 2846.5 2128.58 2846.5 2133.5 2841.58 2133.5 2835.5 2133.5 2829.43 2128.58 2824.5 2122.5 2824.5ZM4.00006 18.0001 4945 18.0001 4945 4959 4.00006 4959Z" fill-rule="evenodd" clip-rule="evenodd"/></clipPath><clipPath id="clip47"><rect x="-18.3333" y="-18.3333" width="103.667" height="103.667"/></clipPath><clipPath id="clip48"><rect x="0" y="0" width="67" height="67"/></clipPath><clipPath id="clip49"><path d="M2769.5 2761.5C2763.43 2761.5 2758.5 2766.42 2758.5 2772.5 2758.5 2778.57 2763.43 2783.5 2769.5 2783.5 2775.58 2783.5 2780.5 2778.57 2780.5 2772.5 2780.5 2766.42 2775.58 2761.5 2769.5 2761.5ZM4.00006 18.0001 4945 18.0001 4945 4959 4.00006 4959Z" fill-rule="evenodd" clip-rule="evenodd"/></clipPath><clipPath id="clip50"><rect x="-18.3333" y="-18.3333" width="103.667" height="103.667"/></clipPath><clipPath id="clip51"><rect x="0" y="0" width="67" height="67"/></clipPath><clipPath id="clip52"><path d="M2824.5 2816.5C2818.43 2816.5 2813.5 2821.42 2813.5 2827.5 2813.5 2833.57 2818.43 2838.5 2824.5 2838.5 2830.58 2838.5 2835.5 2833.57 2835.5 2827.5 2835.5 2821.42 2830.58 2816.5 2824.5 2816.5ZM4.00006 18.0001 4945 18.0001 4945 4959 4.00006 4959Z" fill-rule="evenodd" clip-rule="evenodd"/></clipPath><clipPath id="clip53"><rect x="-18.3333" y="-18.3333" width="103.667" height="103.667"/></clipPath><clipPath id="clip54"><rect x="0" y="0" width="67" height="67"/></clipPath><clipPath id="clip55"><path d="M2769.5 2165.5C2763.43 2165.5 2758.5 2170.43 2758.5 2176.5 2758.5 2182.58 2763.43 2187.5 2769.5 2187.5 2775.58 2187.5 2780.5 2182.58 2780.5 2176.5 2780.5 2170.43 2775.58 2165.5 2769.5 2165.5ZM4.00006 18.0001 4945 18.0001 4945 4959 4.00006 4959Z" fill-rule="evenodd" clip-rule="evenodd"/></clipPath><clipPath id="clip56"><rect x="-18.3333" y="-18.3333" width="103.667" height="103.667"/></clipPath><clipPath id="clip57"><rect x="0" y="0" width="67" height="67"/></clipPath><clipPath id="clip58"><path d="M2720.5 2706.5C2714.42 2706.5 2709.5 2711.42 2709.5 2717.5 2709.5 2723.57 2714.42 2728.5 2720.5 2728.5 2726.57 2728.5 2731.5 2723.57 2731.5 2717.5 2731.5 2711.42 2726.57 2706.5 2720.5 2706.5ZM4.00006 18.0001 4945 18.0001 4945 4959 4.00006 4959Z" fill-rule="evenodd" clip-rule="evenodd"/></clipPath><clipPath id="clip59"><rect x="-18.3333" y="-18.3333" width="103.667" height="103.667"/></clipPath><clipPath id="clip60"><rect x="0" y="0" width="67" height="67"/></clipPath><clipPath id="clip61"><path d="M2222.5 2708.5C2216.42 2708.5 2211.5 2713.2 2211.5 2719 2211.5 2724.8 2216.42 2729.5 2222.5 2729.5 2228.57 2729.5 2233.5 2724.8 2233.5 2719 2233.5 2713.2 2228.57 2708.5 2222.5 2708.5ZM4.00006 18.0001 4945 18.0001 4945 4959 4.00006 4959Z" fill-rule="evenodd" clip-rule="evenodd"/></clipPath><clipPath id="clip62"><rect x="-18.3333" y="-18.3333" width="103.667" height="102.667"/></clipPath><clipPath id="clip63"><rect x="0" y="0" width="67" height="66"/></clipPath><clipPath id="clip64"><path d="M2217.5 2217.5C2211.42 2217.5 2206.5 2222.42 2206.5 2228.5 2206.5 2234.58 2211.42 2239.5 2217.5 2239.5 2223.58 2239.5 2228.5 2234.58 2228.5 2228.5 2228.5 2222.42 2223.58 2217.5 2217.5 2217.5ZM4.00006 18.0001 4945 18.0001 4945 4959 4.00006 4959Z" fill-rule="evenodd" clip-rule="evenodd"/></clipPath><clipPath id="clip65"><rect x="-18.3333" y="-18.3333" width="103.667" height="103.667"/></clipPath><clipPath id="clip66"><rect x="0" y="0" width="67" height="67"/></clipPath><clipPath id="clip67"><path d="M2167.5 2165.5C2161.42 2165.5 2156.5 2170.43 2156.5 2176.5 2156.5 2182.58 2161.42 2187.5 2167.5 2187.5 2173.57 2187.5 2178.5 2182.58 2178.5 2176.5 2178.5 2170.43 2173.57 2165.5 2167.5 2165.5ZM4.00006 18.0001 4945 18.0001 4945 4959 4.00006 4959Z" fill-rule="evenodd" clip-rule="evenodd"/></clipPath><clipPath id="clip68"><rect x="-18.3333" y="-18.3333" width="103.667" height="103.667"/></clipPath><clipPath id="clip69"><rect x="0" y="0" width="67" height="67"/></clipPath><clipPath id="clip70"><path d="M2717.5 2216.5C2711.42 2216.5 2706.5 2221.2 2706.5 2227 2706.5 2232.8 2711.42 2237.5 2717.5 2237.5 2723.57 2237.5 2728.5 2232.8 2728.5 2227 2728.5 2221.2 2723.57 2216.5 2717.5 2216.5ZM4.00006 18.0001 4945 18.0001 4945 4959 4.00006 4959Z" fill-rule="evenodd" clip-rule="evenodd"/></clipPath><clipPath id="clip71"><rect x="-18.3333" y="-18.3333" width="103.667" height="102.667"/></clipPath><clipPath id="clip72"><rect x="0" y="0" width="67" height="66"/></clipPath><clipPath id="clip73"><path d="M2828.5 2109.5C2822.42 2109.5 2817.5 2114.43 2817.5 2120.5 2817.5 2126.58 2822.42 2131.5 2828.5 2131.5 2834.57 2131.5 2839.5 2126.58 2839.5 2120.5 2839.5 2114.43 2834.57 2109.5 2828.5 2109.5ZM4.00006 18.0001 4945 18.0001 4945 4959 4.00006 4959Z" fill-rule="evenodd" clip-rule="evenodd"/></clipPath><clipPath id="clip74"><rect x="-18.3333" y="-18.3333" width="103.667" height="103.667"/></clipPath><clipPath id="clip75"><rect x="0" y="0" width="67" height="67"/></clipPath><clipPath id="clip76"><path d="M2117.5 2108.5C2111.42 2108.5 2106.5 2113.2 2106.5 2119 2106.5 2124.8 2111.42 2129.5 2117.5 2129.5 2123.58 2129.5 2128.5 2124.8 2128.5 2119 2128.5 2113.2 2123.58 2108.5 2117.5 2108.5ZM4.00006 18.0001 4945 18.0001 4945 4959 4.00006 4959Z" fill-rule="evenodd" clip-rule="evenodd"/></clipPath><clipPath id="clip77"><rect x="-18.3333" y="-18.3333" width="103.667" height="102.667"/></clipPath><clipPath id="clip78"><rect x="0" y="0" width="67" height="66"/></clipPath></defs><g clip-path="url(#clip22)" transform="translate(-4 -18)"><g clip-path="url(#clip23)" filter="url(#fx0)" transform="translate(7 21)"><g clip-path="url(#clip24)"><path d="M334.62 4884.85C160.879 4883.67 20.9906 4741.87 22.1697 4568.13L50.9022 334.37C52.0813 160.63 193.882 20.7408 367.622 21.9199L4601.38 50.6524C4775.12 51.8315 4915.01 193.632 4913.83 367.373L4885.1 4601.13C4883.92 4774.87 4742.12 4914.76 4568.38 4913.58Z" stroke="#FFFFFF" stroke-width="4.58333" stroke-linecap="butt" stroke-linejoin="miter" stroke-miterlimit="8" stroke-opacity="1" fill="#F2F2F2" fill-rule="evenodd" fill-opacity="0.329412"/></g></g><path d="M341.62 4892.1C167.879 4890.92 27.9906 4749.12 29.1697 4575.38L57.9022 341.62C59.0813 167.88 200.882 27.9908 374.622 29.1699L4608.38 57.9024C4782.12 59.0815 4922.01 200.882 4920.83 374.623L4892.1 4608.38C4890.92 4782.12 4749.12 4922.01 4575.38 4920.83Z" stroke="#FFFFFF" stroke-width="4.58333" stroke-linecap="butt" stroke-linejoin="miter" stroke-miterlimit="8" stroke-opacity="1" fill="#F2F2F2" fill-rule="evenodd" fill-opacity="0.329412"/><g clip-path="url(#clip25)" filter="url(#fx1)" transform="translate(75 89)"><g clip-path="url(#clip26)"><path d="M326.198 4749.34C157.31 4748.2 21.3276 4610.36 22.4738 4441.47L50.4039 325.948C51.55 157.06 189.39 21.0775 358.279 22.2236L4473.8 50.1537C4642.69 51.2999 4778.67 189.14 4777.52 358.029L4749.6 4473.55C4748.45 4642.44 4610.61 4778.42 4441.72 4777.27Z" stroke="#FFFFFF" stroke-width="4.58333" stroke-linecap="butt" stroke-linejoin="miter" stroke-miterlimit="8" stroke-opacity="1" fill="#F2F2F2" fill-rule="evenodd" fill-opacity="0.329412"/></g></g><path d="M401.198 4824.59C232.31 4823.45 96.3276 4685.61 97.4738 4516.72L125.404 401.198C126.55 232.31 264.39 96.3275 433.279 97.4736L4548.8 125.404C4717.69 126.55 4853.67 264.39 4852.52 433.279L4824.6 4548.8C4823.45 4717.69 4685.61 4853.67 4516.72 4852.52Z" stroke="#FFFFFF" stroke-width="4.58333" stroke-linecap="butt" stroke-linejoin="miter" stroke-miterlimit="8" stroke-opacity="1" fill="#F2F2F2" fill-rule="evenodd" fill-opacity="0.329412"/><g clip-path="url(#clip27)" filter="url(#fx2)" transform="translate(142 156)"><g clip-path="url(#clip28)"><path d="M317.436 4616.36C153.291 4615.25 21.1272 4481.28 22.2412 4317.13L49.3869 317.187C50.5009 153.041 184.47 20.8775 348.616 21.9915L4348.56 49.1372C4512.71 50.2512 4644.87 184.221 4643.76 348.366L4616.61 4348.31C4615.5 4512.46 4481.53 4644.62 4317.38 4643.51Z" stroke="#FFFFFF" stroke-width="4.58333" stroke-linecap="butt" stroke-linejoin="miter" stroke-miterlimit="8" stroke-opacity="1" fill="#F2F2F2" fill-rule="evenodd" fill-opacity="0.329412"/></g></g><path d="M459.436 4758.61C295.291 4757.5 163.127 4623.53 164.241 4459.38L191.387 459.437C192.501 295.291 326.47 163.128 490.616 164.242L4490.56 191.387C4654.71 192.501 4786.87 326.471 4785.76 490.616L4758.61 4490.56C4757.5 4654.71 4623.53 4786.87 4459.38 4785.76Z" stroke="#FFFFFF" stroke-width="4.58333" stroke-linecap="butt" stroke-linejoin="miter" stroke-miterlimit="8" stroke-opacity="1" fill="#F2F2F2" fill-rule="evenodd" fill-opacity="0.329412"/><g clip-path="url(#clip29)" filter="url(#fx3)" transform="translate(2071 2071)"><g clip-path="url(#clip30)"><path d="M26.0798 75.0402C26.0798 48.0001 48.0001 26.0798 75.0402 26.0798L733.96 26.0798C761 26.0798 782.92 48.0001 782.92 75.0402L782.92 733.96C782.92 761 761 782.92 733.96 782.92L75.0402 782.92C48.0001 782.92 26.0798 761 26.0798 733.96Z" stroke="#FFFFFF" stroke-width="5" stroke-linecap="butt" stroke-linejoin="miter" stroke-miterlimit="8" stroke-opacity="1" fill="#F2F2F2" fill-rule="evenodd" fill-opacity="0.329412"/></g></g><path d="M2104.5 2152.5C2104.5 2125.99 2125.99 2104.5 2152.5 2104.5L2798.5 2104.5C2825.01 2104.5 2846.5 2125.99 2846.5 2152.5L2846.5 2798.5C2846.5 2825.01 2825.01 2846.5 2798.5 2846.5L2152.5 2846.5C2125.99 2846.5 2104.5 2825.01 2104.5 2798.5Z" stroke="#FFFFFF" stroke-width="4.58333" stroke-linecap="butt" stroke-linejoin="miter" stroke-miterlimit="8" stroke-opacity="1" fill="#F2F2F2" fill-rule="evenodd" fill-opacity="0.329412"/><g clip-path="url(#clip31)" filter="url(#fx4)" transform="translate(2127 2127)"><g clip-path="url(#clip32)"><path d="M26.28 67.3223C26.28 44.6553 44.6553 26.28 67.3223 26.28L619.678 26.28C642.345 26.28 660.72 44.6553 660.72 67.3223L660.72 619.678C660.72 642.345 642.345 660.72 619.678 660.72L67.3223 660.72C44.6553 660.72 26.28 642.345 26.28 619.678Z" stroke="#FFFFFF" stroke-width="5" stroke-linecap="butt" stroke-linejoin="miter" stroke-miterlimit="8" stroke-opacity="1" fill="#F2F2F2" fill-rule="evenodd" fill-opacity="0.329412"/></g></g><path d="M2159.5 2199.74C2159.5 2177.51 2177.51 2159.5 2199.74 2159.5L2741.26 2159.5C2763.49 2159.5 2781.5 2177.51 2781.5 2199.74L2781.5 2741.26C2781.5 2763.49 2763.49 2781.5 2741.26 2781.5L2199.74 2781.5C2177.51 2781.5 2159.5 2763.49 2159.5 2741.26Z" stroke="#FFFFFF" stroke-width="4.58333" stroke-linecap="butt" stroke-linejoin="miter" stroke-miterlimit="8" stroke-opacity="1" fill="#F2F2F2" fill-rule="evenodd" fill-opacity="0.329412"/><g clip-path="url(#clip33)" filter="url(#fx5)" transform="translate(2183 2183)"><g clip-path="url(#clip34)"><path d="M26.3799 60.1639C26.3799 41.5055 41.5055 26.3799 60.1639 26.3799L514.836 26.3799C533.494 26.3799 548.62 41.5055 548.62 60.1639L548.62 514.836C548.62 533.494 533.494 548.62 514.836 548.62L60.1639 548.62C41.5055 548.62 26.3799 533.494 26.3799 514.836Z" stroke="#FFFFFF" stroke-width="5" stroke-linecap="butt" stroke-linejoin="miter" stroke-miterlimit="8" stroke-opacity="1" fill="#F2F2F2" fill-rule="evenodd" fill-opacity="0.329412"/></g></g><path d="M2214.5 2247.62C2214.5 2229.33 2229.33 2214.5 2247.62 2214.5L2693.38 2214.5C2711.67 2214.5 2726.5 2229.33 2726.5 2247.62L2726.5 2693.38C2726.5 2711.67 2711.67 2726.5 2693.38 2726.5L2247.62 2726.5C2229.33 2726.5 2214.5 2711.67 2214.5 2693.38Z" stroke="#FFFFFF" stroke-width="4.58333" stroke-linecap="butt" stroke-linejoin="miter" stroke-miterlimit="8" stroke-opacity="1" fill="#F2F2F2" fill-rule="evenodd" fill-opacity="0.329412"/><g clip-path="url(#clip35)" filter="url(#fx6)" transform="translate(2097 2692)"><g clip-path="url(#clip36)"><path d="M0 0 101.558 120.608" stroke="#FFFFFF" stroke-width="5" stroke-linecap="butt" stroke-linejoin="miter" stroke-miterlimit="8" stroke-opacity="1" fill="none" fill-rule="evenodd" transform="matrix(-1 0 0 1 123.817 21.2593)"/></g></g><path d="M0 0 101.558 120.608" stroke="#FFFFFF" stroke-width="4.58333" stroke-linecap="butt" stroke-linejoin="miter" stroke-miterlimit="8" stroke-opacity="1" fill="none" fill-rule="evenodd" transform="matrix(-1 0 0 1 2224.06 2716.5)"/><g clip-path="url(#clip37)" filter="url(#fx7)" transform="translate(2693 2692)"><g clip-path="url(#clip38)"><path d="M21.259 21.2593 132.569 141.867" stroke="#FFFFFF" stroke-width="5" stroke-linecap="butt" stroke-linejoin="miter" stroke-miterlimit="8" stroke-opacity="1" fill="none" fill-rule="evenodd"/></g></g><path d="M2717.5 2716.5 2828.81 2837.11" stroke="#FFFFFF" stroke-width="4.58333" stroke-linecap="butt" stroke-linejoin="miter" stroke-miterlimit="8" stroke-opacity="1" fill="none" fill-rule="evenodd"/><g clip-path="url(#clip39)" filter="url(#fx8)" transform="translate(2092 2094)"><g clip-path="url(#clip40)"><path d="M21.259 21.259 122.817 137.938" stroke="#FFFFFF" stroke-width="5" stroke-linecap="butt" stroke-linejoin="miter" stroke-miterlimit="8" stroke-opacity="1" fill="none" fill-rule="evenodd"/></g></g><path d="M2116.5 2118.5 2218.06 2235.18" stroke="#FFFFFF" stroke-width="4.58333" stroke-linecap="butt" stroke-linejoin="miter" stroke-miterlimit="8" stroke-opacity="1" fill="none" fill-rule="evenodd"/><g clip-path="url(#clip41)" filter="url(#fx9)" transform="translate(2693 2094)"><g clip-path="url(#clip42)"><path d="M0 0 109.07 107.708" stroke="#FFFFFF" stroke-width="5" stroke-linecap="butt" stroke-linejoin="miter" stroke-miterlimit="8" stroke-opacity="1" fill="none" fill-rule="evenodd" transform="matrix(-1 0 0 1 131.329 21.259)"/></g></g><path d="M0 0 109.07 107.708" stroke="#FFFFFF" stroke-width="4.58333" stroke-linecap="butt" stroke-linejoin="miter" stroke-miterlimit="8" stroke-opacity="1" fill="none" fill-rule="evenodd" transform="matrix(-1 0 0 1 2827.57 2118.5)"/><g clip-path="url(#clip43)"><g clip-path="url(#clip44)" filter="url(#fx10)" transform="translate(2141 2743)"><g clip-path="url(#clip45)"><path d="M22.5 33C22.5 27.201 27.4249 22.5 33.5 22.5 39.5751 22.5 44.5 27.201 44.5 33 44.5 38.799 39.5751 43.5 33.5 43.5 27.4249 43.5 22.5 38.799 22.5 33Z" stroke="#D9D9D9" stroke-width="5" stroke-linecap="butt" stroke-linejoin="miter" stroke-miterlimit="8" stroke-opacity="1" fill="#FFFFFF" fill-rule="evenodd" fill-opacity="1"/></g></g></g><path d="M2163.5 2776C2163.5 2770.2 2168.42 2765.5 2174.5 2765.5 2180.58 2765.5 2185.5 2770.2 2185.5 2776 2185.5 2781.8 2180.58 2786.5 2174.5 2786.5 2168.42 2786.5 2163.5 2781.8 2163.5 2776Z" stroke="#D9D9D9" stroke-width="4.58333" stroke-linecap="butt" stroke-linejoin="miter" stroke-miterlimit="8" stroke-opacity="1" fill="#FFFFFF" fill-rule="evenodd" fill-opacity="1"/><g clip-path="url(#clip46)"><g clip-path="url(#clip47)" filter="url(#fx11)" transform="translate(2089 2802)"><g clip-path="url(#clip48)"><path d="M22.5002 33.5C22.5002 27.4249 27.4251 22.5 33.5002 22.5 39.5754 22.5 44.5002 27.4249 44.5002 33.5 44.5002 39.5751 39.5754 44.5 33.5002 44.5 27.4251 44.5 22.5002 39.5751 22.5002 33.5Z" stroke="#D9D9D9" stroke-width="5" stroke-linecap="butt" stroke-linejoin="miter" stroke-miterlimit="8" stroke-opacity="1" fill="#FFFFFF" fill-rule="evenodd" fill-opacity="1"/></g></g></g><path d="M2111.5 2835.5C2111.5 2829.42 2116.43 2824.5 2122.5 2824.5 2128.58 2824.5 2133.5 2829.42 2133.5 2835.5 2133.5 2841.58 2128.58 2846.5 2122.5 2846.5 2116.43 2846.5 2111.5 2841.58 2111.5 2835.5Z" stroke="#D9D9D9" stroke-width="4.58333" stroke-linecap="butt" stroke-linejoin="miter" stroke-miterlimit="8" stroke-opacity="1" fill="#FFFFFF" fill-rule="evenodd" fill-opacity="1"/><g clip-path="url(#clip49)"><g clip-path="url(#clip50)" filter="url(#fx12)" transform="translate(2736 2739)"><g clip-path="url(#clip51)"><path d="M22.5 33.4998C22.5 27.4246 27.4249 22.4998 33.5 22.4998 39.5751 22.4998 44.5 27.4246 44.5 33.4998 44.5 39.5749 39.5751 44.4998 33.5 44.4998 27.4249 44.4998 22.5 39.5749 22.5 33.4998Z" stroke="#D9D9D9" stroke-width="5" stroke-linecap="butt" stroke-linejoin="miter" stroke-miterlimit="8" stroke-opacity="1" fill="#FFFFFF" fill-rule="evenodd" fill-opacity="1"/></g></g></g><path d="M2758.5 2772.5C2758.5 2766.42 2763.42 2761.5 2769.5 2761.5 2775.58 2761.5 2780.5 2766.42 2780.5 2772.5 2780.5 2778.57 2775.58 2783.5 2769.5 2783.5 2763.42 2783.5 2758.5 2778.57 2758.5 2772.5Z" stroke="#D9D9D9" stroke-width="4.58333" stroke-linecap="butt" stroke-linejoin="miter" stroke-miterlimit="8" stroke-opacity="1" fill="#FFFFFF" fill-rule="evenodd" fill-opacity="1"/><g clip-path="url(#clip52)"><g clip-path="url(#clip53)" filter="url(#fx13)" transform="translate(2791 2794)"><g clip-path="url(#clip54)"><path d="M22.5 33.4998C22.5 27.4246 27.4249 22.4998 33.5 22.4998 39.5751 22.4998 44.5 27.4246 44.5 33.4998 44.5 39.5749 39.5751 44.4998 33.5 44.4998 27.4249 44.4998 22.5 39.5749 22.5 33.4998Z" stroke="#D9D9D9" stroke-width="5" stroke-linecap="butt" stroke-linejoin="miter" stroke-miterlimit="8" stroke-opacity="1" fill="#FFFFFF" fill-rule="evenodd" fill-opacity="1"/></g></g></g><path d="M2813.5 2827.5C2813.5 2821.42 2818.42 2816.5 2824.5 2816.5 2830.58 2816.5 2835.5 2821.42 2835.5 2827.5 2835.5 2833.57 2830.58 2838.5 2824.5 2838.5 2818.42 2838.5 2813.5 2833.57 2813.5 2827.5Z" stroke="#D9D9D9" stroke-width="4.58333" stroke-linecap="butt" stroke-linejoin="miter" stroke-miterlimit="8" stroke-opacity="1" fill="#FFFFFF" fill-rule="evenodd" fill-opacity="1"/><g clip-path="url(#clip55)"><g clip-path="url(#clip56)" filter="url(#fx14)" transform="translate(2736 2143)"><g clip-path="url(#clip57)"><path d="M22.5 33.5002C22.5 27.4251 27.4249 22.5002 33.5 22.5002 39.5751 22.5002 44.5 27.4251 44.5 33.5002 44.5 39.5754 39.5751 44.5002 33.5 44.5002 27.4249 44.5002 22.5 39.5754 22.5 33.5002Z" stroke="#D9D9D9" stroke-width="5" stroke-linecap="butt" stroke-linejoin="miter" stroke-miterlimit="8" stroke-opacity="1" fill="#FFFFFF" fill-rule="evenodd" fill-opacity="1"/></g></g></g><path d="M2758.5 2176.5C2758.5 2170.43 2763.42 2165.5 2769.5 2165.5 2775.58 2165.5 2780.5 2170.43 2780.5 2176.5 2780.5 2182.58 2775.58 2187.5 2769.5 2187.5 2763.42 2187.5 2758.5 2182.58 2758.5 2176.5Z" stroke="#D9D9D9" stroke-width="4.58333" stroke-linecap="butt" stroke-linejoin="miter" stroke-miterlimit="8" stroke-opacity="1" fill="#FFFFFF" fill-rule="evenodd" fill-opacity="1"/><g clip-path="url(#clip58)"><g clip-path="url(#clip59)" filter="url(#fx15)" transform="translate(2687 2684)"><g clip-path="url(#clip60)"><path d="M22.5 33.4998C22.5 27.4246 27.4249 22.4998 33.5 22.4998 39.5751 22.4998 44.5 27.4246 44.5 33.4998 44.5 39.5749 39.5751 44.4998 33.5 44.4998 27.4249 44.4998 22.5 39.5749 22.5 33.4998Z" stroke="#D9D9D9" stroke-width="5" stroke-linecap="butt" stroke-linejoin="miter" stroke-miterlimit="8" stroke-opacity="1" fill="#FFFFFF" fill-rule="evenodd" fill-opacity="1"/></g></g></g><path d="M2709.5 2717.5C2709.5 2711.42 2714.42 2706.5 2720.5 2706.5 2726.58 2706.5 2731.5 2711.42 2731.5 2717.5 2731.5 2723.57 2726.58 2728.5 2720.5 2728.5 2714.42 2728.5 2709.5 2723.57 2709.5 2717.5Z" stroke="#D9D9D9" stroke-width="4.58333" stroke-linecap="butt" stroke-linejoin="miter" stroke-miterlimit="8" stroke-opacity="1" fill="#FFFFFF" fill-rule="evenodd" fill-opacity="1"/><g clip-path="url(#clip61)"><g clip-path="url(#clip62)" filter="url(#fx16)" transform="translate(2189 2686)"><g clip-path="url(#clip63)"><path d="M22.4998 33C22.4998 27.201 27.4246 22.5 33.4998 22.5 39.5749 22.5 44.4998 27.201 44.4998 33 44.4998 38.799 39.5749 43.5 33.4998 43.5 27.4246 43.5 22.4998 38.799 22.4998 33Z" stroke="#D9D9D9" stroke-width="5" stroke-linecap="butt" stroke-linejoin="miter" stroke-miterlimit="8" stroke-opacity="1" fill="#FFFFFF" fill-rule="evenodd" fill-opacity="1"/></g></g></g><path d="M2211.5 2719C2211.5 2713.2 2216.42 2708.5 2222.5 2708.5 2228.57 2708.5 2233.5 2713.2 2233.5 2719 2233.5 2724.8 2228.57 2729.5 2222.5 2729.5 2216.42 2729.5 2211.5 2724.8 2211.5 2719Z" stroke="#D9D9D9" stroke-width="4.58333" stroke-linecap="butt" stroke-linejoin="miter" stroke-miterlimit="8" stroke-opacity="1" fill="#FFFFFF" fill-rule="evenodd" fill-opacity="1"/><g clip-path="url(#clip64)"><g clip-path="url(#clip65)" filter="url(#fx17)" transform="translate(2184 2195)"><g clip-path="url(#clip66)"><path d="M22.5 33.5C22.5 27.4249 27.4249 22.5 33.5 22.5 39.5751 22.5 44.5 27.4249 44.5 33.5 44.5 39.5751 39.5751 44.5 33.5 44.5 27.4249 44.5 22.5 39.5751 22.5 33.5Z" stroke="#D9D9D9" stroke-width="5" stroke-linecap="butt" stroke-linejoin="miter" stroke-miterlimit="8" stroke-opacity="1" fill="#FFFFFF" fill-rule="evenodd" fill-opacity="1"/></g></g></g><path d="M2206.5 2228.5C2206.5 2222.42 2211.42 2217.5 2217.5 2217.5 2223.58 2217.5 2228.5 2222.42 2228.5 2228.5 2228.5 2234.58 2223.58 2239.5 2217.5 2239.5 2211.42 2239.5 2206.5 2234.58 2206.5 2228.5Z" stroke="#D9D9D9" stroke-width="4.58333" stroke-linecap="butt" stroke-linejoin="miter" stroke-miterlimit="8" stroke-opacity="1" fill="#FFFFFF" fill-rule="evenodd" fill-opacity="1"/><g clip-path="url(#clip67)"><g clip-path="url(#clip68)" filter="url(#fx18)" transform="translate(2134 2143)"><g clip-path="url(#clip69)"><path d="M22.4998 33.5002C22.4998 27.4251 27.4246 22.5002 33.4998 22.5002 39.5749 22.5002 44.4998 27.4251 44.4998 33.5002 44.4998 39.5754 39.5749 44.5002 33.4998 44.5002 27.4246 44.5002 22.4998 39.5754 22.4998 33.5002Z" stroke="#D9D9D9" stroke-width="5" stroke-linecap="butt" stroke-linejoin="miter" stroke-miterlimit="8" stroke-opacity="1" fill="#FFFFFF" fill-rule="evenodd" fill-opacity="1"/></g></g></g><path d="M2156.5 2176.5C2156.5 2170.43 2161.42 2165.5 2167.5 2165.5 2173.57 2165.5 2178.5 2170.43 2178.5 2176.5 2178.5 2182.58 2173.57 2187.5 2167.5 2187.5 2161.42 2187.5 2156.5 2182.58 2156.5 2176.5Z" stroke="#D9D9D9" stroke-width="4.58333" stroke-linecap="butt" stroke-linejoin="miter" stroke-miterlimit="8" stroke-opacity="1" fill="#FFFFFF" fill-rule="evenodd" fill-opacity="1"/><g clip-path="url(#clip70)"><g clip-path="url(#clip71)" filter="url(#fx19)" transform="translate(2684 2194)"><g clip-path="url(#clip72)"><path d="M22.4998 33C22.4998 27.201 27.4246 22.5 33.4998 22.5 39.5749 22.5 44.4998 27.201 44.4998 33 44.4998 38.799 39.5749 43.5 33.4998 43.5 27.4246 43.5 22.4998 38.799 22.4998 33Z" stroke="#D9D9D9" stroke-width="5" stroke-linecap="butt" stroke-linejoin="miter" stroke-miterlimit="8" stroke-opacity="1" fill="#FFFFFF" fill-rule="evenodd" fill-opacity="1"/></g></g></g><path d="M2706.5 2227C2706.5 2221.2 2711.42 2216.5 2717.5 2216.5 2723.57 2216.5 2728.5 2221.2 2728.5 2227 2728.5 2232.8 2723.57 2237.5 2717.5 2237.5 2711.42 2237.5 2706.5 2232.8 2706.5 2227Z" stroke="#D9D9D9" stroke-width="4.58333" stroke-linecap="butt" stroke-linejoin="miter" stroke-miterlimit="8" stroke-opacity="1" fill="#FFFFFF" fill-rule="evenodd" fill-opacity="1"/><g clip-path="url(#clip73)"><g clip-path="url(#clip74)" filter="url(#fx20)" transform="translate(2795 2087)"><g clip-path="url(#clip75)"><path d="M22.4998 33.5C22.4998 27.4249 27.4246 22.5 33.4998 22.5 39.5749 22.5 44.4998 27.4249 44.4998 33.5 44.4998 39.5751 39.5749 44.5 33.4998 44.5 27.4246 44.5 22.4998 39.5751 22.4998 33.5Z" stroke="#D9D9D9" stroke-width="5" stroke-linecap="butt" stroke-linejoin="miter" stroke-miterlimit="8" stroke-opacity="1" fill="#FFFFFF" fill-rule="evenodd" fill-opacity="1"/></g></g></g><path d="M2817.5 2120.5C2817.5 2114.42 2822.42 2109.5 2828.5 2109.5 2834.57 2109.5 2839.5 2114.42 2839.5 2120.5 2839.5 2126.58 2834.57 2131.5 2828.5 2131.5 2822.42 2131.5 2817.5 2126.58 2817.5 2120.5Z" stroke="#D9D9D9" stroke-width="4.58333" stroke-linecap="butt" stroke-linejoin="miter" stroke-miterlimit="8" stroke-opacity="1" fill="#FFFFFF" fill-rule="evenodd" fill-opacity="1"/><g clip-path="url(#clip76)"><g clip-path="url(#clip77)" filter="url(#fx21)" transform="translate(2084 2086)"><g clip-path="url(#clip78)"><path d="M22.5 33C22.5 27.201 27.4249 22.5 33.5 22.5 39.5751 22.5 44.5 27.201 44.5 33 44.5 38.799 39.5751 43.5 33.5 43.5 27.4249 43.5 22.5 38.799 22.5 33Z" stroke="#D9D9D9" stroke-width="5" stroke-linecap="butt" stroke-linejoin="miter" stroke-miterlimit="8" stroke-opacity="1" fill="#FFFFFF" fill-rule="evenodd" fill-opacity="1"/></g></g></g><path d="M2106.5 2119C2106.5 2113.2 2111.42 2108.5 2117.5 2108.5 2123.58 2108.5 2128.5 2113.2 2128.5 2119 2128.5 2124.8 2123.58 2129.5 2117.5 2129.5 2111.42 2129.5 2106.5 2124.8 2106.5 2119Z" stroke="#D9D9D9" stroke-width="4.58333" stroke-linecap="butt" stroke-linejoin="miter" stroke-miterlimit="8" stroke-opacity="1" fill="#FFFFFF" fill-rule="evenodd" fill-opacity="1"/></g></svg>