<svg width="1930" height="1929" xmlns="http://www.w3.org/2000/svg" xmlns:xlink="http://www.w3.org/1999/xlink" xml:space="preserve" overflow="hidden"><defs><filter id="fx0" x="-10%" y="-10%" width="120%" height="120%" filterUnits="userSpaceOnUse" primitiveUnits="userSpaceOnUse"><feComponentTransfer color-interpolation-filters="sRGB"><feFuncR type="discrete" tableValues="0.949020 0.949020"/><feFuncG type="discrete" tableValues="0.949020 0.949020"/><feFuncB type="discrete" tableValues="0.949020 0.949020"/><feFuncA type="linear" slope="1.000000" intercept="0.000000"/></feComponentTransfer><feGaussianBlur stdDeviation="6.111111 6.111111"/></filter><filter id="fx1" x="-10%" y="-10%" width="120%" height="120%" filterUnits="userSpaceOnUse" primitiveUnits="userSpaceOnUse"><feComponentTransfer color-interpolation-filters="sRGB"><feFuncR type="discrete" tableValues="0.949020 0.949020"/><feFuncG type="discrete" tableValues="0.949020 0.949020"/><feFuncB type="discrete" tableValues="0.949020 0.949020"/><feFuncA type="linear" slope="1.000000" intercept="0.000000"/></feComponentTransfer><feGaussianBlur stdDeviation="6.111111 6.111111"/></filter><filter id="fx2" x="-10%" y="-10%" width="120%" height="120%" filterUnits="userSpaceOnUse" primitiveUnits="userSpaceOnUse"><feComponentTransfer color-interpolation-filters="sRGB"><feFuncR type="discrete" tableValues="0.949020 0.949020"/><feFuncG type="discrete" tableValues="0.949020 0.949020"/><feFuncB type="discrete" tableValues="0.949020 0.949020"/><feFuncA type="linear" slope="1.000000" intercept="0.000000"/></feComponentTransfer><feGaussianBlur stdDeviation="6.111111 6.111111"/></filter><clipPath id="clip3"><rect x="1466" y="1187" width="1930" height="1929"/></clipPath><clipPath id="clip4"><rect x="-18.3334" y="-18.3334" width="1962.67" height="1962.67"/></clipPath><clipPath id="clip5"><rect x="0" y="0" width="1926" height="1926"/></clipPath><clipPath id="clip6"><rect x="-18.3334" y="-18.3334" width="1855.67" height="1855.67"/></clipPath><clipPath id="clip7"><rect x="0" y="0" width="1819" height="1819"/></clipPath><clipPath id="clip8"><rect x="-18.3334" y="-18.3334" width="1751.67" height="1751.67"/></clipPath><clipPath id="clip9"><rect x="0" y="0" width="1715" height="1715"/></clipPath></defs><g clip-path="url(#clip3)" transform="translate(-1466 -1187)"><g clip-path="url(#clip4)" filter="url(#fx0)" transform="translate(1468 1188)"><g clip-path="url(#clip5)"><path d="M22.5 143.933C22.5 76.7294 76.9793 22.2501 144.183 22.2501L1781.82 22.2501C1849.02 22.2501 1903.5 76.7294 1903.5 143.933L1903.5 1781.57C1903.5 1848.77 1849.02 1903.25 1781.82 1903.25L144.183 1903.25C76.9793 1903.25 22.5 1848.77 22.5 1781.57Z" stroke="#FFFFFF" stroke-width="5" stroke-linecap="butt" stroke-linejoin="miter" stroke-miterlimit="8" stroke-opacity="1" fill="#F2F2F2" fill-rule="evenodd" fill-opacity="0.329412"/></g></g><path d="M1490.5 1318.18C1490.5 1250.98 1544.98 1196.5 1612.18 1196.5L3249.82 1196.5C3317.02 1196.5 3371.5 1250.98 3371.5 1318.18L3371.5 2955.82C3371.5 3023.02 3317.02 3077.5 3249.82 3077.5L1612.18 3077.5C1544.98 3077.5 1490.5 3023.02 1490.5 2955.82Z" stroke="#FFFFFF" stroke-width="4.58333" stroke-linecap="butt" stroke-linejoin="miter" stroke-miterlimit="8" stroke-opacity="1" fill="#F2F2F2" fill-rule="evenodd" fill-opacity="0.329412"/><g clip-path="url(#clip6)" filter="url(#fx1)" transform="translate(1522 1242)"><g clip-path="url(#clip7)"><path d="M22.5 137.011C22.5 73.6304 73.8802 22.2501 137.261 22.2501L1681.74 22.2501C1745.12 22.2501 1796.5 73.6304 1796.5 137.011L1796.5 1681.49C1796.5 1744.87 1745.12 1796.25 1681.74 1796.25L137.261 1796.25C73.8802 1796.25 22.5 1744.87 22.5 1681.49Z" stroke="#FFFFFF" stroke-width="5" stroke-linecap="butt" stroke-linejoin="miter" stroke-miterlimit="8" stroke-opacity="1" fill="#F2F2F2" fill-rule="evenodd" fill-opacity="0.329412"/></g></g><path d="M1544.5 1365.26C1544.5 1301.88 1595.88 1250.5 1659.26 1250.5L3203.74 1250.5C3267.12 1250.5 3318.5 1301.88 3318.5 1365.26L3318.5 2909.74C3318.5 2973.12 3267.12 3024.5 3203.74 3024.5L1659.26 3024.5C1595.88 3024.5 1544.5 2973.12 1544.5 2909.74Z" stroke="#FFFFFF" stroke-width="4.58333" stroke-linecap="butt" stroke-linejoin="miter" stroke-miterlimit="8" stroke-opacity="1" fill="#F2F2F2" fill-rule="evenodd" fill-opacity="0.329412"/><g clip-path="url(#clip8)" filter="url(#fx2)" transform="translate(1577 1297)"><g clip-path="url(#clip9)"><path d="M22.5 130.283C22.5 70.6182 70.8681 22.2501 130.533 22.2501L1584.47 22.2501C1644.13 22.2501 1692.5 70.6182 1692.5 130.283L1692.5 1584.22C1692.5 1643.88 1644.13 1692.25 1584.47 1692.25L130.533 1692.25C70.8681 1692.25 22.5 1643.88 22.5 1584.22Z" stroke="#FFFFFF" stroke-width="5" stroke-linecap="butt" stroke-linejoin="miter" stroke-miterlimit="8" stroke-opacity="1" fill="#F2F2F2" fill-rule="evenodd" fill-opacity="0.329412"/></g></g><path d="M1599.5 1413.53C1599.5 1353.87 1647.87 1305.5 1707.53 1305.5L3161.47 1305.5C3221.13 1305.5 3269.5 1353.87 3269.5 1413.53L3269.5 2867.47C3269.5 2927.13 3221.13 2975.5 3161.47 2975.5L1707.53 2975.5C1647.87 2975.5 1599.5 2927.13 1599.5 2867.47Z" stroke="#FFFFFF" stroke-width="4.58333" stroke-linecap="butt" stroke-linejoin="miter" stroke-miterlimit="8" stroke-opacity="1" fill="#F2F2F2" fill-rule="evenodd" fill-opacity="0.329412"/></g></svg>