<svg width="1930" height="1930" xmlns="http://www.w3.org/2000/svg" xmlns:xlink="http://www.w3.org/1999/xlink" xml:space="preserve" overflow="hidden"><defs><filter id="fx0" x="-10%" y="-10%" width="120%" height="120%" filterUnits="userSpaceOnUse" primitiveUnits="userSpaceOnUse"><feComponentTransfer color-interpolation-filters="sRGB"><feFuncR type="discrete" tableValues="0.949020 0.949020"/><feFuncG type="discrete" tableValues="0.949020 0.949020"/><feFuncB type="discrete" tableValues="0.949020 0.949020"/><feFuncA type="linear" slope="1.000000" intercept="0.000000"/></feComponentTransfer><feGaussianBlur stdDeviation="6.111111 6.111111"/></filter><filter id="fx1" x="-10%" y="-10%" width="120%" height="120%" filterUnits="userSpaceOnUse" primitiveUnits="userSpaceOnUse"><feComponentTransfer color-interpolation-filters="sRGB"><feFuncR type="discrete" tableValues="1.000000 1.000000"/><feFuncG type="discrete" tableValues="1.000000 1.000000"/><feFuncB type="discrete" tableValues="1.000000 1.000000"/><feFuncA type="linear" slope="0.400000" intercept="0.000000"/></feComponentTransfer><feGaussianBlur stdDeviation="7.638889 7.638889"/></filter><filter id="fx2" x="-10%" y="-10%" width="120%" height="120%" filterUnits="userSpaceOnUse" primitiveUnits="userSpaceOnUse"><feComponentTransfer color-interpolation-filters="sRGB"><feFuncR type="discrete" tableValues="1.000000 1.000000"/><feFuncG type="discrete" tableValues="1.000000 1.000000"/><feFuncB type="discrete" tableValues="1.000000 1.000000"/><feFuncA type="linear" slope="0.400000" intercept="0.000000"/></feComponentTransfer><feGaussianBlur stdDeviation="7.638889 7.638889"/></filter><filter id="fx3" x="-10%" y="-10%" width="120%" height="120%" filterUnits="userSpaceOnUse" primitiveUnits="userSpaceOnUse"><feComponentTransfer color-interpolation-filters="sRGB"><feFuncR type="discrete" tableValues="1.000000 1.000000"/><feFuncG type="discrete" tableValues="1.000000 1.000000"/><feFuncB type="discrete" tableValues="1.000000 1.000000"/><feFuncA type="linear" slope="0.400000" intercept="0.000000"/></feComponentTransfer><feGaussianBlur stdDeviation="7.638889 7.638889"/></filter><filter id="fx4" x="-10%" y="-10%" width="120%" height="120%" filterUnits="userSpaceOnUse" primitiveUnits="userSpaceOnUse"><feComponentTransfer color-interpolation-filters="sRGB"><feFuncR type="discrete" tableValues="1.000000 1.000000"/><feFuncG type="discrete" tableValues="1.000000 1.000000"/><feFuncB type="discrete" tableValues="1.000000 1.000000"/><feFuncA type="linear" slope="0.400000" intercept="0.000000"/></feComponentTransfer><feGaussianBlur stdDeviation="7.638889 7.638889"/></filter><filter id="fx5" x="-10%" y="-10%" width="120%" height="120%" filterUnits="userSpaceOnUse" primitiveUnits="userSpaceOnUse"><feComponentTransfer color-interpolation-filters="sRGB"><feFuncR type="discrete" tableValues="1.000000 1.000000"/><feFuncG type="discrete" tableValues="1.000000 1.000000"/><feFuncB type="discrete" tableValues="1.000000 1.000000"/><feFuncA type="linear" slope="0.400000" intercept="0.000000"/></feComponentTransfer><feGaussianBlur stdDeviation="7.638889 7.638889"/></filter><filter id="fx6" x="-10%" y="-10%" width="120%" height="120%" filterUnits="userSpaceOnUse" primitiveUnits="userSpaceOnUse"><feComponentTransfer color-interpolation-filters="sRGB"><feFuncR type="discrete" tableValues="1.000000 1.000000"/><feFuncG type="discrete" tableValues="1.000000 1.000000"/><feFuncB type="discrete" tableValues="1.000000 1.000000"/><feFuncA type="linear" slope="0.400000" intercept="0.000000"/></feComponentTransfer><feGaussianBlur stdDeviation="7.638889 7.638889"/></filter><filter id="fx7" x="-10%" y="-10%" width="120%" height="120%" filterUnits="userSpaceOnUse" primitiveUnits="userSpaceOnUse"><feComponentTransfer color-interpolation-filters="sRGB"><feFuncR type="discrete" tableValues="1.000000 1.000000"/><feFuncG type="discrete" tableValues="1.000000 1.000000"/><feFuncB type="discrete" tableValues="1.000000 1.000000"/><feFuncA type="linear" slope="0.400000" intercept="0.000000"/></feComponentTransfer><feGaussianBlur stdDeviation="7.638889 7.638889"/></filter><filter id="fx8" x="-10%" y="-10%" width="120%" height="120%" filterUnits="userSpaceOnUse" primitiveUnits="userSpaceOnUse"><feComponentTransfer color-interpolation-filters="sRGB"><feFuncR type="discrete" tableValues="1.000000 1.000000"/><feFuncG type="discrete" tableValues="1.000000 1.000000"/><feFuncB type="discrete" tableValues="1.000000 1.000000"/><feFuncA type="linear" slope="0.400000" intercept="0.000000"/></feComponentTransfer><feGaussianBlur stdDeviation="7.638889 7.638889"/></filter><filter id="fx9" x="-10%" y="-10%" width="120%" height="120%" filterUnits="userSpaceOnUse" primitiveUnits="userSpaceOnUse"><feComponentTransfer color-interpolation-filters="sRGB"><feFuncR type="discrete" tableValues="1.000000 1.000000"/><feFuncG type="discrete" tableValues="1.000000 1.000000"/><feFuncB type="discrete" tableValues="1.000000 1.000000"/><feFuncA type="linear" slope="0.400000" intercept="0.000000"/></feComponentTransfer><feGaussianBlur stdDeviation="7.638889 7.638889"/></filter><clipPath id="clip10"><rect x="1512" y="1356" width="1930" height="1930"/></clipPath><clipPath id="clip11"><rect x="-18.3334" y="-18.3334" width="1962.67" height="1962.67"/></clipPath><clipPath id="clip12"><rect x="0" y="0" width="1926" height="1926"/></clipPath><clipPath id="clip13"><rect x="-22.9166" y="-22.9166" width="583.833" height="583.833"/></clipPath><clipPath id="clip14"><rect x="0" y="0" width="538" height="538"/></clipPath><clipPath id="clip15"><rect x="-22.9167" y="-22.9166" width="584.833" height="583.833"/></clipPath><clipPath id="clip16"><rect x="0" y="0" width="539" height="538"/></clipPath><clipPath id="clip17"><rect x="-22.9167" y="-22.9166" width="583.833" height="583.833"/></clipPath><clipPath id="clip18"><rect x="0" y="0" width="538" height="538"/></clipPath><clipPath id="clip19"><rect x="-22.9166" y="-22.9167" width="583.833" height="584.833"/></clipPath><clipPath id="clip20"><rect x="0" y="0" width="538" height="539"/></clipPath><clipPath id="clip21"><rect x="-22.9167" y="-22.9167" width="584.833" height="584.833"/></clipPath><clipPath id="clip22"><rect x="0" y="0" width="539" height="539"/></clipPath><clipPath id="clip23"><rect x="-22.9167" y="-22.9167" width="583.833" height="584.833"/></clipPath><clipPath id="clip24"><rect x="0" y="0" width="538" height="539"/></clipPath><clipPath id="clip25"><rect x="-22.9166" y="-22.9167" width="583.833" height="583.833"/></clipPath><clipPath id="clip26"><rect x="0" y="0" width="538" height="538"/></clipPath><clipPath id="clip27"><rect x="-22.9167" y="-22.9167" width="584.833" height="583.833"/></clipPath><clipPath id="clip28"><rect x="0" y="0" width="539" height="538"/></clipPath><clipPath id="clip29"><rect x="-22.9167" y="-22.9167" width="583.833" height="583.833"/></clipPath><clipPath id="clip30"><rect x="0" y="0" width="538" height="538"/></clipPath></defs><g clip-path="url(#clip10)" transform="translate(-1512 -1356)"><g clip-path="url(#clip11)" filter="url(#fx0)" transform="translate(1513 1357)"><g clip-path="url(#clip12)"><path d="M22.5 143.933C22.5 76.7291 76.9793 22.2499 144.183 22.2499L1781.82 22.2499C1849.02 22.2499 1903.5 76.7291 1903.5 143.933L1903.5 1781.57C1903.5 1848.77 1849.02 1903.25 1781.82 1903.25L144.183 1903.25C76.9793 1903.25 22.5 1848.77 22.5 1781.57Z" stroke="#FFFFFF" stroke-width="5" stroke-linecap="butt" stroke-linejoin="miter" stroke-miterlimit="8" stroke-opacity="1" fill="#F2F2F2" fill-rule="evenodd" fill-opacity="0.329412"/></g></g><path d="M1535.5 1487.18C1535.5 1419.98 1589.98 1365.5 1657.18 1365.5L3294.82 1365.5C3362.02 1365.5 3416.5 1419.98 3416.5 1487.18L3416.5 3124.82C3416.5 3192.02 3362.02 3246.5 3294.82 3246.5L1657.18 3246.5C1589.98 3246.5 1535.5 3192.02 1535.5 3124.82Z" stroke="#FFFFFF" stroke-width="4.58333" stroke-linecap="butt" stroke-linejoin="miter" stroke-miterlimit="8" stroke-opacity="1" fill="#F2F2F2" fill-rule="evenodd" fill-opacity="0.329412"/><g clip-path="url(#clip13)" filter="url(#fx1)" transform="translate(1604 1506)"><g clip-path="url(#clip14)"><path d="M26.7501 58.0927C26.7501 40.7827 40.7827 26.7501 58.0927 26.7501L479.908 26.7501C497.218 26.7501 511.25 40.7827 511.25 58.0927L511.25 479.908C511.25 497.218 497.218 511.25 479.908 511.25L58.0927 511.25C40.7827 511.25 26.7501 497.218 26.7501 479.908Z" stroke="#FFFFFF" stroke-width="5" stroke-linecap="butt" stroke-linejoin="miter" stroke-miterlimit="8" stroke-opacity="1" fill="#F2F2F2" fill-rule="evenodd" fill-opacity="0.329412"/></g></g><path d="M1635.5 1568.23C1635.5 1551.26 1649.26 1537.5 1666.23 1537.5L2079.77 1537.5C2096.74 1537.5 2110.5 1551.26 2110.5 1568.23L2110.5 1981.77C2110.5 1998.74 2096.74 2012.5 2079.77 2012.5L1666.23 2012.5C1649.26 2012.5 1635.5 1998.74 1635.5 1981.77Z" stroke="#FFFFFF" stroke-width="4.58333" stroke-linecap="butt" stroke-linejoin="miter" stroke-miterlimit="8" stroke-opacity="1" fill="#F2F2F2" fill-rule="evenodd" fill-opacity="0.329412"/><g clip-path="url(#clip15)" filter="url(#fx2)" transform="translate(2206 1512)"><g clip-path="url(#clip16)"><path d="M26.74 58.0921C26.74 40.7823 40.7724 26.7499 58.0822 26.7499L480.918 26.7499C498.228 26.7499 512.26 40.7823 512.26 58.0921L512.26 479.908C512.26 497.218 498.228 511.25 480.918 511.25L58.0822 511.25C40.7724 511.25 26.74 497.218 26.74 479.908Z" stroke="#FFFFFF" stroke-width="5" stroke-linecap="butt" stroke-linejoin="miter" stroke-miterlimit="8" stroke-opacity="1" fill="#F2F2F2" fill-rule="evenodd" fill-opacity="0.329412"/></g></g><path d="M2237.5 1574.23C2237.5 1557.26 2251.26 1543.5 2268.23 1543.5L2682.77 1543.5C2699.74 1543.5 2713.5 1557.26 2713.5 1574.23L2713.5 1987.77C2713.5 2004.74 2699.74 2018.5 2682.77 2018.5L2268.23 2018.5C2251.26 2018.5 2237.5 2004.74 2237.5 1987.77Z" stroke="#FFFFFF" stroke-width="4.58333" stroke-linecap="butt" stroke-linejoin="miter" stroke-miterlimit="8" stroke-opacity="1" fill="#F2F2F2" fill-rule="evenodd" fill-opacity="0.329412"/><g clip-path="url(#clip17)" filter="url(#fx3)" transform="translate(2828 1506)"><g clip-path="url(#clip18)"><path d="M26.7502 58.0921C26.7502 40.7824 40.7826 26.7501 58.0923 26.7501L479.908 26.7501C497.218 26.7501 511.25 40.7824 511.25 58.0921L511.25 479.908C511.25 497.218 497.218 511.25 479.908 511.25L58.0923 511.25C40.7826 511.25 26.7502 497.218 26.7502 479.908Z" stroke="#FFFFFF" stroke-width="5" stroke-linecap="butt" stroke-linejoin="miter" stroke-miterlimit="8" stroke-opacity="1" fill="#F2F2F2" fill-rule="evenodd" fill-opacity="0.329412"/></g></g><path d="M2859.5 1568.23C2859.5 1551.26 2873.26 1537.5 2890.23 1537.5L3303.77 1537.5C3320.74 1537.5 3334.5 1551.26 3334.5 1568.23L3334.5 1981.77C3334.5 1998.74 3320.74 2012.5 3303.77 2012.5L2890.23 2012.5C2873.26 2012.5 2859.5 1998.74 2859.5 1981.77Z" stroke="#FFFFFF" stroke-width="4.58333" stroke-linecap="butt" stroke-linejoin="miter" stroke-miterlimit="8" stroke-opacity="1" fill="#F2F2F2" fill-rule="evenodd" fill-opacity="0.329412"/><g clip-path="url(#clip19)" filter="url(#fx4)" transform="translate(1604 2075)"><g clip-path="url(#clip20)"><path d="M26.7501 58.0822C26.7501 40.7724 40.7825 26.74 58.0923 26.74L479.908 26.74C497.218 26.74 511.25 40.7724 511.25 58.0822L511.25 480.918C511.25 498.228 497.218 512.26 479.908 512.26L58.0923 512.26C40.7825 512.26 26.7501 498.228 26.7501 480.918Z" stroke="#FFFFFF" stroke-width="5" stroke-linecap="butt" stroke-linejoin="miter" stroke-miterlimit="8" stroke-opacity="1" fill="#F2F2F2" fill-rule="evenodd" fill-opacity="0.329412"/></g></g><path d="M1635.5 2137.23C1635.5 2120.26 1649.26 2106.5 1666.23 2106.5L2079.77 2106.5C2096.74 2106.5 2110.5 2120.26 2110.5 2137.23L2110.5 2551.77C2110.5 2568.74 2096.74 2582.5 2079.77 2582.5L1666.23 2582.5C1649.26 2582.5 1635.5 2568.74 1635.5 2551.77Z" stroke="#FFFFFF" stroke-width="4.58333" stroke-linecap="butt" stroke-linejoin="miter" stroke-miterlimit="8" stroke-opacity="1" fill="#F2F2F2" fill-rule="evenodd" fill-opacity="0.329412"/><g clip-path="url(#clip21)" filter="url(#fx5)" transform="translate(2206 2075)"><g clip-path="url(#clip22)"><path d="M26.74 58.1485C26.74 40.8021 40.8021 26.74 58.1485 26.74L480.852 26.74C498.198 26.74 512.26 40.8021 512.26 58.1485L512.26 480.852C512.26 498.198 498.198 512.26 480.852 512.26L58.1485 512.26C40.8021 512.26 26.74 498.198 26.74 480.852Z" stroke="#FFFFFF" stroke-width="5" stroke-linecap="butt" stroke-linejoin="miter" stroke-miterlimit="8" stroke-opacity="1" fill="#F2F2F2" fill-rule="evenodd" fill-opacity="0.329412"/></g></g><path d="M2237.5 2137.29C2237.5 2120.29 2251.29 2106.5 2268.29 2106.5L2682.71 2106.5C2699.71 2106.5 2713.5 2120.29 2713.5 2137.29L2713.5 2551.71C2713.5 2568.71 2699.71 2582.5 2682.71 2582.5L2268.29 2582.5C2251.29 2582.5 2237.5 2568.71 2237.5 2551.71Z" stroke="#FFFFFF" stroke-width="4.58333" stroke-linecap="butt" stroke-linejoin="miter" stroke-miterlimit="8" stroke-opacity="1" fill="#F2F2F2" fill-rule="evenodd" fill-opacity="0.329412"/><g clip-path="url(#clip23)" filter="url(#fx6)" transform="translate(2828 2075)"><g clip-path="url(#clip24)"><path d="M26.7502 58.0822C26.7502 40.7724 40.7826 26.74 58.0924 26.74L479.908 26.74C497.218 26.74 511.25 40.7724 511.25 58.0822L511.25 480.918C511.25 498.228 497.218 512.26 479.908 512.26L58.0924 512.26C40.7826 512.26 26.7502 498.228 26.7502 480.918Z" stroke="#FFFFFF" stroke-width="5" stroke-linecap="butt" stroke-linejoin="miter" stroke-miterlimit="8" stroke-opacity="1" fill="#F2F2F2" fill-rule="evenodd" fill-opacity="0.329412"/></g></g><path d="M2859.5 2137.23C2859.5 2120.26 2873.26 2106.5 2890.23 2106.5L3303.77 2106.5C3320.74 2106.5 3334.5 2120.26 3334.5 2137.23L3334.5 2551.77C3334.5 2568.74 3320.74 2582.5 3303.77 2582.5L2890.23 2582.5C2873.26 2582.5 2859.5 2568.74 2859.5 2551.77Z" stroke="#FFFFFF" stroke-width="4.58333" stroke-linecap="butt" stroke-linejoin="miter" stroke-miterlimit="8" stroke-opacity="1" fill="#F2F2F2" fill-rule="evenodd" fill-opacity="0.329412"/><g clip-path="url(#clip25)" filter="url(#fx7)" transform="translate(1604 2639)"><g clip-path="url(#clip26)"><path d="M26.7501 58.0926C26.7501 40.7825 40.7827 26.75 58.0927 26.75L479.908 26.75C497.218 26.75 511.25 40.7825 511.25 58.0926L511.25 479.907C511.25 497.217 497.218 511.25 479.908 511.25L58.0927 511.25C40.7827 511.25 26.7501 497.217 26.7501 479.907Z" stroke="#FFFFFF" stroke-width="5" stroke-linecap="butt" stroke-linejoin="miter" stroke-miterlimit="8" stroke-opacity="1" fill="#F2F2F2" fill-rule="evenodd" fill-opacity="0.329412"/></g></g><path d="M1635.5 2701.23C1635.5 2684.26 1649.26 2670.5 1666.23 2670.5L2079.77 2670.5C2096.74 2670.5 2110.5 2684.26 2110.5 2701.23L2110.5 3114.77C2110.5 3131.74 2096.74 3145.5 2079.77 3145.5L1666.23 3145.5C1649.26 3145.5 1635.5 3131.74 1635.5 3114.77Z" stroke="#FFFFFF" stroke-width="4.58333" stroke-linecap="butt" stroke-linejoin="miter" stroke-miterlimit="8" stroke-opacity="1" fill="#F2F2F2" fill-rule="evenodd" fill-opacity="0.329412"/><g clip-path="url(#clip27)" filter="url(#fx8)" transform="translate(2206 2639)"><g clip-path="url(#clip28)"><path d="M26.74 58.0922C26.74 40.7824 40.7724 26.75 58.0822 26.75L480.918 26.75C498.228 26.75 512.26 40.7824 512.26 58.0922L512.26 479.908C512.26 497.218 498.228 511.25 480.918 511.25L58.0822 511.25C40.7724 511.25 26.74 497.218 26.74 479.908Z" stroke="#FFFFFF" stroke-width="5" stroke-linecap="butt" stroke-linejoin="miter" stroke-miterlimit="8" stroke-opacity="1" fill="#F2F2F2" fill-rule="evenodd" fill-opacity="0.329412"/></g></g><path d="M2237.5 2701.23C2237.5 2684.26 2251.26 2670.5 2268.23 2670.5L2682.77 2670.5C2699.74 2670.5 2713.5 2684.26 2713.5 2701.23L2713.5 3114.77C2713.5 3131.74 2699.74 3145.5 2682.77 3145.5L2268.23 3145.5C2251.26 3145.5 2237.5 3131.74 2237.5 3114.77Z" stroke="#FFFFFF" stroke-width="4.58333" stroke-linecap="butt" stroke-linejoin="miter" stroke-miterlimit="8" stroke-opacity="1" fill="#F2F2F2" fill-rule="evenodd" fill-opacity="0.329412"/><g clip-path="url(#clip29)" filter="url(#fx9)" transform="translate(2828 2645)"><g clip-path="url(#clip30)"><path d="M26.7502 58.092C26.7502 40.7823 40.7826 26.75 58.0923 26.75L479.908 26.75C497.218 26.75 511.25 40.7823 511.25 58.092L511.25 479.908C511.25 497.218 497.218 511.25 479.908 511.25L58.0923 511.25C40.7826 511.25 26.7502 497.218 26.7502 479.908Z" stroke="#FFFFFF" stroke-width="5" stroke-linecap="butt" stroke-linejoin="miter" stroke-miterlimit="8" stroke-opacity="1" fill="#F2F2F2" fill-rule="evenodd" fill-opacity="0.329412"/></g></g><path d="M2859.5 2707.23C2859.5 2690.26 2873.26 2676.5 2890.23 2676.5L3303.77 2676.5C3320.74 2676.5 3334.5 2690.26 3334.5 2707.23L3334.5 3120.77C3334.5 3137.74 3320.74 3151.5 3303.77 3151.5L2890.23 3151.5C2873.26 3151.5 2859.5 3137.74 2859.5 3120.77Z" stroke="#FFFFFF" stroke-width="4.58333" stroke-linecap="butt" stroke-linejoin="miter" stroke-miterlimit="8" stroke-opacity="1" fill="#F2F2F2" fill-rule="evenodd" fill-opacity="0.329412"/></g></svg>