<?xml version="1.0" encoding="UTF-8"?><svg id="Layer_2" xmlns="http://www.w3.org/2000/svg" viewBox="0 0 407 407"><defs><style>.cls-1,.cls-2,.cls-3{fill:#fff;}.cls-2{opacity:.2;}.cls-3{opacity:.5;}</style></defs><g id="Layer_2-2"><g><rect class="cls-3" x="3" y="3.5" width="1" height="400"/><rect class="cls-2" x="22.55" y="3" width="1" height="401"/><rect class="cls-2" x="42.6" y="3" width="1" height="401"/><rect class="cls-2" x="62.65" y="3" width="1" height="401"/><rect class="cls-2" x="82.7" y="3" width="1" height="401"/><rect class="cls-3" x="102.75" y="3" width="1" height="401"/><rect class="cls-2" x="122.8" y="3" width="1" height="401"/><rect class="cls-2" x="142.85" y="3" width="1" height="401"/><rect class="cls-2" x="162.9" y="3" width="1" height="401"/><rect class="cls-2" x="182.95" y="3" width="1" height="401"/><rect class="cls-3" x="203" y="3" width="1" height="401"/><rect class="cls-2" x="223.05" y="3" width="1" height="401"/><rect class="cls-2" x="243.1" y="3" width="1" height="401"/><rect class="cls-2" x="263.15" y="3" width="1" height="401"/><rect class="cls-2" x="283.2" y="3" width="1" height="401"/><rect class="cls-3" x="303.25" y="3" width="1" height="401"/><rect class="cls-2" x="323.3" y="3" width="1" height="401"/><rect class="cls-2" x="343.35" y="3" width="1" height="401"/><rect class="cls-2" x="363.4" y="3" width="1" height="401"/><rect class="cls-2" x="383.45" y="3" width="1" height="401"/><rect class="cls-3" x="403" y="3.5" width="1" height="400"/><rect class="cls-3" x="3.5" y="3" width="400" height="1"/><rect class="cls-2" x="3" y="22.55" width="401" height="1"/><rect class="cls-2" x="3" y="42.6" width="401" height="1"/><rect class="cls-2" x="3" y="62.65" width="401" height="1"/><rect class="cls-2" x="3" y="82.7" width="401" height="1"/><rect class="cls-3" x="3" y="102.75" width="401" height="1"/><rect class="cls-2" x="3" y="122.8" width="401" height="1"/><rect class="cls-2" x="3" y="142.85" width="401" height="1"/><rect class="cls-2" x="3" y="162.9" width="401" height="1"/><rect class="cls-2" x="3" y="182.95" width="401" height="1"/><rect class="cls-3" x="3" y="203" width="401" height="1"/><rect class="cls-2" x="3" y="223.05" width="401" height="1"/><rect class="cls-2" x="3" y="243.1" width="401" height="1"/><rect class="cls-2" x="3" y="263.15" width="401" height="1"/><rect class="cls-2" x="3" y="283.2" width="401" height="1"/><rect class="cls-3" x="3" y="303.25" width="401" height="1"/><rect class="cls-2" x="3" y="323.3" width="401" height="1"/><rect class="cls-2" x="3" y="343.35" width="401" height="1"/><rect class="cls-2" x="3" y="363.4" width="401" height="1"/><rect class="cls-2" x="3" y="383.45" width="401" height="1"/><rect class="cls-3" x="3.5" y="403" width="400" height="1"/><g><rect class="cls-1" x="3" width="1" height="7"/><rect class="cls-1" y="3" width="7" height="1"/></g><g><rect class="cls-1" x="403" width="1" height="7"/><rect class="cls-1" x="400" y="3" width="7" height="1"/></g><g><rect class="cls-1" x="3" y="100" width="1" height="7"/><rect class="cls-1" y="103" width="7" height="1"/></g><g><rect class="cls-1" x="403" y="100" width="1" height="7"/><rect class="cls-1" x="400" y="103" width="7" height="1"/></g><g><rect class="cls-1" x="3" y="200" width="1" height="7"/><rect class="cls-1" y="203" width="7" height="1"/></g><g><rect class="cls-1" x="403" y="200" width="1" height="7"/><rect class="cls-1" x="400" y="203" width="7" height="1"/></g><g><rect class="cls-1" x="3" y="300" width="1" height="7"/><rect class="cls-1" y="303" width="7" height="1"/></g><g><rect class="cls-1" x="403" y="300" width="1" height="7"/><rect class="cls-1" x="400" y="303" width="7" height="1"/></g><g><rect class="cls-1" x="3" y="400" width="1" height="7"/><rect class="cls-1" y="403" width="7" height="1"/></g><g><rect class="cls-1" x="103" width="1" height="7"/><rect class="cls-1" x="100" y="3" width="7" height="1"/></g><g><rect class="cls-1" x="103" y="100" width="1" height="7"/><rect class="cls-1" x="100" y="103" width="7" height="1"/></g><g><rect class="cls-1" x="103" y="200" width="1" height="7"/><rect class="cls-1" x="100" y="203" width="7" height="1"/></g><g><rect class="cls-1" x="103" y="300" width="1" height="7"/><rect class="cls-1" x="100" y="303" width="7" height="1"/></g><g><rect class="cls-1" x="103" y="400" width="1" height="7"/><rect class="cls-1" x="100" y="403" width="7" height="1"/></g><g><rect class="cls-1" x="203" width="1" height="7"/><rect class="cls-1" x="200" y="3" width="7" height="1"/></g><g><rect class="cls-1" x="203" y="100" width="1" height="7"/><rect class="cls-1" x="200" y="103" width="7" height="1"/></g><g><rect class="cls-1" x="203" y="200" width="1" height="7"/><rect class="cls-1" x="200" y="203" width="7" height="1"/></g><g><rect class="cls-1" x="203" y="300" width="1" height="7"/><rect class="cls-1" x="200" y="303" width="7" height="1"/></g><g><rect class="cls-1" x="203" y="400" width="1" height="7"/><rect class="cls-1" x="200" y="403" width="7" height="1"/></g><g><rect class="cls-1" x="303" width="1" height="7"/><rect class="cls-1" x="300" y="3" width="7" height="1"/></g><g><rect class="cls-1" x="303" y="100" width="1" height="7"/><rect class="cls-1" x="300" y="103" width="7" height="1"/></g><g><rect class="cls-1" x="303" y="200" width="1" height="7"/><rect class="cls-1" x="300" y="203" width="7" height="1"/></g><g><rect class="cls-1" x="303" y="300" width="1" height="7"/><rect class="cls-1" x="300" y="303" width="7" height="1"/></g><g><rect class="cls-1" x="303" y="400" width="1" height="7"/><rect class="cls-1" x="300" y="403" width="7" height="1"/></g><g><rect class="cls-1" x="403" y="400" width="1" height="7"/><rect class="cls-1" x="400" y="403" width="7" height="1"/></g><rect class="cls-1" x="53" y="53" width="1" height="1"/><rect class="cls-1" x="153" y="53" width="1" height="1"/><rect class="cls-1" x="253" y="53" width="1" height="1"/><rect class="cls-1" x="353" y="53" width="1" height="1"/><rect class="cls-1" x="53" y="153" width="1" height="1"/><rect class="cls-1" x="153" y="153" width="1" height="1"/><rect class="cls-1" x="253" y="153" width="1" height="1"/><rect class="cls-1" x="353" y="153" width="1" height="1"/><rect class="cls-1" x="53" y="253" width="1" height="1"/><rect class="cls-1" x="153" y="253" width="1" height="1"/><rect class="cls-1" x="253" y="253" width="1" height="1"/><rect class="cls-1" x="353" y="253" width="1" height="1"/><rect class="cls-1" x="53" y="353" width="1" height="1"/><rect class="cls-1" x="153" y="353" width="1" height="1"/><rect class="cls-1" x="253" y="353" width="1" height="1"/><rect class="cls-1" x="353" y="353" width="1" height="1"/></g></g></svg>