<svg id="chunk" enable-background="new 0 0 300 300" height="512" viewBox="0 0 300 300" width="512" xmlns="http://www.w3.org/2000/svg"><g><path d="m238 78.813c6.617 0 12-5.383 12-12s-5.383-12-12-12-12 5.383-12 12 5.383 12 12 12zm0-16c2.207 0 4 1.795 4 4s-1.793 4-4 4-4-1.795-4-4 1.793-4 4-4z"/><path d="m85.134 45.74c2.362 0 4.276-1.915 4.276-4.277s-1.915-4.276-4.276-4.276-4.276 1.915-4.276 4.276 1.914 4.277 4.276 4.277z"/><path d="m240.857 101.463c0 2.362 1.915 4.277 4.276 4.277s4.276-1.915 4.276-4.277-1.915-4.276-4.276-4.276-4.276 1.914-4.276 4.276z"/><path d="m45.516 71.298c.781.781 1.805 1.172 2.828 1.172s2.047-.391 2.828-1.172l2.828-2.828 2.828 2.828c.781.781 1.805 1.172 2.828 1.172s2.047-.391 2.828-1.172c1.562-1.562 1.562-4.094 0-5.656l-2.828-2.828 2.828-2.828c1.562-1.562 1.562-4.094 0-5.656s-4.094-1.562-5.656 0l-2.828 2.827-2.828-2.828c-1.562-1.562-4.094-1.562-5.656 0s-1.562 4.094 0 5.656l2.828 2.828-2.828 2.828c-1.563 1.563-1.563 4.094 0 5.657z"/><path d="m205.754 194.813c-2.211 0-4 1.791-4 4v14.955c0 5.902-1.258 11.598-3.734 16.928-.93 2.004-.059 4.383 1.941 5.312.547.254 1.121.373 1.684.373 1.508 0 2.953-.857 3.633-2.314 2.969-6.395 4.477-13.223 4.477-20.299v-14.955c-.001-2.209-1.79-4-4.001-4z"/><path d="m182 170.813c-2.211 0-4 1.791-4 4 0 20.541-.246 38.891-.246 38.902-.027 2.209 1.738 4.023 3.945 4.053h.055c2.184 0 3.969-1.756 4-3.947 0 0 .246-18.406.246-39.008 0-2.209-1.789-4-4-4z"/><path d="m79.754 202.768c-7.719 0-14 6.281-14 14s6.281 14 14 14 14-6.281 14-14-6.281-14-14-14zm0 20c-3.309 0-6-2.691-6-6s2.691-6 6-6 6 2.691 6 6-2.692 6-6 6z"/><path d="m270 254.813h-51.017c2.289-1.456 4.486-3.069 6.525-4.898 10.324-9.264 16.246-22.439 16.246-36.152v-69.75c0-8.943-3.57-17.336-10.051-23.629-4.811-4.673-10.765-7.703-17.189-8.952-2.083-42.461-12.341-58.259-14.412-61.021-1.324-1.764-3.832-2.119-5.598-.797l-7.961 5.969-8.109 5.768c-1.734 1.234-2.172 3.654-1.027 5.449.075.117 7.182 11.725 9.038 43.977h-7.969c-2.154-41.931-12.301-57.601-14.374-60.363-1.32-1.766-3.832-2.121-5.598-.799l-7.961 5.969-8.109 5.768c-1.734 1.234-2.172 3.65-1.027 5.447.075.116 7.185 11.729 9.04 43.979h-11.967c-2.16-41.961-12.319-57.618-14.379-60.365-1.32-1.764-3.832-2.119-5.598-.797l-7.961 5.969-8.109 5.768c-1.734 1.234-2.172 3.65-1.027 5.447.076.118 7.385 12.061 9.114 45.354-14.108 4.177-24.563 17.55-24.563 33.093v5.033c0 9.643-4.492 18.674-12.02 24.16-14.516 10.582-21.93 27.463-19.836 45.16 1.733 14.672 10.316 27.444 22.447 35.215h-46.548c-2.211 0-4 1.791-4 4s1.789 4 4 4h240c2.211 0 4-1.791 4-4s-1.789-4.002-4-4.002zm-36.246-110.8v69.75c0 11.443-4.953 22.449-13.59 30.197-8.941 8.025-21.07 11.861-33.246 10.539-.145-.016-.289-.023-.434-.023h-23.028c3.93-2.566 7.552-5.636 10.665-9.281 1.434-1.682 1.234-4.205-.445-5.641-1.676-1.428-4.203-1.236-5.641.445-7.061 8.272-17.045 13.346-27.802 14.477h-8.738c2.1-1.372 4.128-2.864 6.012-4.555 10.324-9.264 16.246-22.441 16.246-36.152v-69.75c0-8.945-3.57-17.338-10.051-23.631-.588-.572-1.214-1.089-1.836-1.612h7.938c.067.003.124.038.191.038.043 0 .082 0 .121-.002 10.703-.299 20.309 4.182 24.535 11.447.742 1.277 2.082 1.99 3.461 1.99.684 0 1.375-.174 2.004-.541 1.91-1.109 2.562-3.559 1.449-5.469-1.654-2.849-3.886-5.323-6.485-7.458 7.279-.214 13.96 2.404 19.048 7.347 4.918 4.773 7.625 11.127 7.625 17.891v12.129c0 2.209 1.789 4 4 4s4-1.791 4-4v-12.129c0-8.945-3.57-17.338-10.051-23.631-.589-.572-1.215-1.09-1.837-1.613h9.188c7.133-.215 13.98 2.398 19.078 7.35 4.916 4.772 7.623 11.124 7.623 17.888zm-47.813-77.981 9.797-7.346c3.193 6.307 9.138 21.889 10.74 52.09h-12.013c-1.398-25.152-5.911-38.804-8.524-44.744zm-35.972-.017 9.77-7.328c3.191 6.311 9.14 21.893 10.743 52.09h-12.013c-1.403-25.364-5.891-38.891-8.5-44.762zm-30.231-7.329c3.192 6.307 9.139 21.888 10.743 52.09h-12.013c-1.401-25.363-5.89-38.89-8.499-44.762zm-.683 60.094c.092-.003.182-.002.273-.004h.704c6.572.04 12.725 2.452 17.512 6.836-3.889 4.542-18.885 19.658-43.472 17.29 1.159-13.126 11.913-23.738 24.983-24.122zm-40.407 62.123c9.409-6.858 15.063-18.021 15.27-29.957 1.821.158 3.614.264 5.344.264 23.099 0 37.884-13.322 43.34-19.27 2.054 3.663 3.152 7.786 3.152 12.079v69.75c0 11.443-4.953 22.449-13.59 30.197-1.338 1.2-2.767 2.274-4.237 3.284-3.311-3.533-18.878-21.034-22.228-41.14-1.168-7.004-4.5-12.354-9.91-15.9-6.991-4.582-15.992-5.034-22.502-4.569 1.646-1.69 3.395-3.304 5.361-4.738zm-16.601 37.756c-1.01-8.531.705-16.803 4.604-24.005.023-.005.045.003.067-.002.152-.039 15.562-3.748 24.703 2.262 3.5 2.303 5.59 5.742 6.387 10.514 3.403 20.41 17.434 37.709 22.922 43.824-3.88 1.67-8.013 2.753-12.26 3.225h-6.47c-.279 0-.524.104-.787.159-.765-.043-1.528-.046-2.295-.13-19.16-2.083-34.664-17.159-36.871-35.847z"/><path d="m222 182.813c2.211 0 4-1.791 4-4v-16c0-2.209-1.789-4-4-4s-4 1.791-4 4v16c0 2.209 1.789 4 4 4z"/></g></svg>