<svg id="costume-man" enable-background="new 0 0 300 300" height="512" viewBox="0 0 300 300" width="512" xmlns="http://www.w3.org/2000/svg"><g><path d="m196.305 183.092-24.105-9.039c10.968-5.392 18.981-15.849 20.988-28.321 7.177-3.396 12.451-7.279 13.721-8.792 1.189-1.418 1.387-3.752.281-5.238-.898-1.207-2.805-2.254-5.24-1.201-3.06 1.312-5.766 2.063-8.229 2.418v-8c4.854-1.904 8.461-6.316 9.219-11.654l.912-6.434c.47-3.318-.219-6.568-1.852-9.401v-11.43c1.27 0 2.463-.602 3.217-1.623.756-1.021.98-2.34.605-3.553l-13.576-44.125c-1.971-6.398-7.791-10.699-14.486-10.699h-55.52c-6.695 0-12.516 4.301-14.486 10.701l-13.576 44.123c-.375 1.213-.15 2.531.605 3.553.754 1.021 1.947 1.623 3.217 1.623v11.417c-1.621 2.832-2.316 6.135-1.852 9.413l.912 6.436c.758 5.336 4.365 9.748 9.219 11.652v7.108c-1.341-.398-2.738-.888-4.23-1.528-1.701-.732-4.135-.285-5.238 1.203-1.105 1.486-.908 3.82.281 5.238.997 1.189 4.471 3.847 9.385 6.579 1.36 13.446 9.707 24.825 21.323 30.535l-24.104 9.039c-12.977 4.867-21.696 17.449-21.696 31.306v55.602c0 2.209 1.791 4 4 4s4-1.791 4-4v-55.602c0-9.025 4.884-17.308 12.476-21.836l3.528 77.619c.098 2.137 1.857 3.818 3.996 3.818h32c1.102 0 2.154-.455 2.91-1.256s1.148-1.879 1.082-2.979l-3.751-63.764h15.518l-3.751 63.766c-.066 1.1.326 2.178 1.082 2.979s1.808 1.255 2.91 1.255h32c2.139 0 3.898-1.682 3.996-3.818l3.528-77.619c7.592 4.528 12.476 12.81 12.476 21.836v55.601c0 2.209 1.791 4 4 4s4-1.791 4-4v-55.602c0-13.857-8.719-26.439-21.695-31.306zm-34.833 14.908h-7.472v-8h12c2.209 0 4-1.791 4-4v-4.227l5.489 2.058-1.932 10.924zm-22.944 0-12.084-3.244-1.932-10.924 5.489-2.058v4.226c0 2.209 1.791 4 4 4h12v8zm-.528-16v-4.615c2.159.379 4.367.615 6.633.615h10.732c2.266 0 4.475-.236 6.635-.615v4.615zm4.782-54.126c1.518 3.595 5.077 6.126 9.218 6.126s7.7-2.531 9.218-6.126c2.496.726 5.07 2.563 7.952 4.663 4.143 3.018 9.125 6.646 15.754 8.035-7.994 3.043-17.668 4.758-25.807.686-1.76-.881-2.98-1.887-3.73-3.08-1.461-2.332-5.312-2.332-6.773 0-.75 1.193-1.971 2.199-3.732 3.08-8.141 4.074-17.814 2.357-25.805-.686 6.627-1.389 11.611-5.018 15.754-8.035 2.881-2.1 5.456-3.937 7.951-4.663zm51.218-37.026c-.652-.221-1.307-.436-2-.571v-4.277h2zm-78.602-51.793c.932-3.023 3.68-5.055 6.842-5.055h55.52c3.162 0 5.91 2.031 6.842 5.053l11.982 38.947h-93.168zm-7.398 46.945v4.246c-.684.129-1.345.337-2 .56v-4.806zm-3.018 26.143-.912-6.434c-.273-1.93.258-3.811 1.496-5.297 1.232-1.48 2.965-2.338 4.713-2.412h1.721c2.209 0 4-1.791 4-4v-8h68v8.027c0 2.209 1.791 4 4 4l1.84-.014c1.852.152 3.514 1.043 4.684 2.508 1.172 1.471 1.672 3.312 1.406 5.188l-.912 6.432c-.424 2.996-2.811 5.354-5.803 5.734-1.996.256-3.494 1.955-3.494 3.969v10.722c-4.487-1.15-8.115-3.78-11.842-6.496-3.656-2.663-7.427-5.371-11.879-6.241v-5.829c0-2.209-1.791-4-4-4s-4 1.791-4 4v10c0 1.104-.896 2-2 2s-2-.896-2-2v-10c0-2.209-1.791-4-4-4s-4 1.791-4 4v5.829c-4.452.87-8.223 3.578-11.879 6.241-4.771 3.476-9.381 6.805-15.842 7.07v-11.296c0-2.014-1.498-3.713-3.494-3.969-2.992-.381-5.379-2.738-5.803-5.732zm10.43 35.596c5.706 2.224 12.208 3.88 18.736 3.88 4.861 0 9.738-.918 14.309-3.205 1.332-.666 2.51-1.404 3.543-2.227 1.033.822 2.209 1.561 3.541 2.227 9.157 4.581 19.534 3.672 28.573.888-4.05 12.013-15.394 20.698-28.749 20.698h-10.732c-13.925 0-25.661-9.446-29.221-22.261zm-1.59 118.261-3.493-76.851 6.562-2.46 2.117 11.967c.271 1.529 1.402 2.764 2.902 3.166l12.266 3.293 3.582 60.885zm48.42 0 3.582-60.885 12.266-3.293c1.5-.402 2.631-1.637 2.902-3.166l2.117-11.967 6.562 2.46-3.493 76.851z"/><path d="m76.828 131.172c-1.562-1.562-4.094-1.562-5.656 0l-3.172 3.172-3.172-3.172c-1.562-1.562-4.094-1.562-5.656 0s-1.562 4.094 0 5.656l3.172 3.172-3.172 3.172c-1.562 1.562-1.562 4.094 0 5.656.781.781 1.805 1.172 2.828 1.172s2.047-.391 2.828-1.172l3.172-3.172 3.172 3.172c.781.781 1.805 1.172 2.828 1.172s2.047-.391 2.828-1.172c1.562-1.562 1.562-4.094 0-5.656l-3.172-3.172 3.172-3.172c1.563-1.562 1.563-4.094 0-5.656z"/><path d="m234 118c-6.617 0-12 5.383-12 12s5.383 12 12 12 12-5.383 12-12-5.383-12-12-12zm0 16c-2.205 0-4-1.795-4-4s1.795-4 4-4 4 1.795 4 4-1.795 4-4 4z"/><circle cx="226" cy="178" r="4"/><circle cx="58" cy="86" r="4"/><circle cx="170" cy="106" r="4"/><circle cx="130" cy="106" r="4"/><circle cx="178" cy="218" r="4"/><circle cx="122" cy="218" r="4"/></g></svg>