<svg id="flag" enable-background="new 0 0 300 300" height="512" viewBox="0 0 300 300" width="512" xmlns="http://www.w3.org/2000/svg"><g><path d="m216 240c-6.617 0-12 5.383-12 12s5.383 12 12 12 12-5.383 12-12-5.383-12-12-12zm0 16c-2.205 0-4-1.795-4-4s1.795-4 4-4 4 1.795 4 4-1.795 4-4 4z"/><path d="m120.397 221.816c-2.362 0-4.277 1.915-4.277 4.276s1.915 4.276 4.277 4.276 4.276-1.915 4.276-4.276-1.914-4.276-4.276-4.276z"/><path d="m173.031 225.391c-1.562-1.562-4.094-1.562-5.656 0l-3.172 3.172-3.172-3.172c-1.562-1.562-4.094-1.562-5.656 0s-1.562 4.094 0 5.656l3.172 3.172-3.172 3.172c-1.562 1.562-1.562 4.094 0 5.656.781.781 1.805 1.172 2.828 1.172s2.047-.391 2.828-1.172l3.172-3.172 3.172 3.172c.781.781 1.805 1.172 2.828 1.172s2.047-.391 2.828-1.172c1.562-1.562 1.562-4.094 0-5.656l-3.172-3.172 3.172-3.172c1.563-1.563 1.563-4.094 0-5.656z"/><path d="m240 84h-8v-12c0-2.209-1.791-4-4-4h-148v-7.361l3.801-11.615c.133-.403.199-.823.199-1.245v-11.779c0-2.209-1.791-4-4-4h-20c-2.209 0-4 1.791-4 4v11.965c0 .43.068.855.205 1.262l3.795 11.419v203.354c0 2.209 1.791 4 4 4s4-1.791 4-4v-200h4v200c0 2.209 1.791 4 4 4s4-1.791 4-4v-72h128v8c0 2.209 1.791 4 4 4h28c2.209 0 4-1.791 4-4v-112c0-2.209-1.791-4-4-4zm-18.344 0 2.344-2.344v2.344zm-157.656-44h12v7.141l-2.899 8.859h-6.216l-2.885-8.682zm16 144v-108h138.344l-9.172 9.172c-.75.75-1.172 1.767-1.172 2.828v96zm156 12h-20v-104h20z"/><path d="m150.846 151.953c-.037 0-.463.025-.5.027l-.346.02c-12.131 0-22-9.869-22-22 0-12.119 9.85-21.98 22.311-21.98.051.004.484.027.535.027 1.799.059 3.49-1.113 4.004-2.879.512-1.768-.244-3.656-1.836-4.578-5.182-3.002-11.065-4.59-17.014-4.59-18.748 0-34 15.252-34 34s15.252 34 34 34c5.949 0 11.832-1.588 17.014-4.59 1.592-.922 2.348-2.811 1.836-4.578-.514-1.766-2.204-2.961-4.004-2.879zm-40.846-21.953c0-14.006 11.133-25.461 25.014-25.982-8.969 5.193-15.014 14.894-15.014 25.982s6.045 20.789 15.014 25.982c-13.881-.521-25.014-11.976-25.014-25.982z"/><path d="m176.654 125.795 2.582-6.77c.619-1.619.123-3.451-1.227-4.539-1.346-1.084-3.244-1.186-4.695-.236l-6.068 3.961-5.643-4.549c-1.348-1.088-3.244-1.188-4.695-.236-1.451.947-2.129 2.721-1.676 4.393l1.891 6.996-6.068 3.959c-1.451.947-2.129 2.721-1.676 4.393.451 1.674 1.93 2.865 3.66 2.951l7.236.365 1.891 6.994c.451 1.674 1.93 2.865 3.66 2.951.068.004.135.006.203.006 1.65 0 3.141-1.018 3.734-2.574l2.584-6.77 7.238.361c1.666.127 3.32-.949 3.938-2.568s.121-3.453-1.229-4.541zm-10.015 4.517c-.426-.596-1.008-1.066-1.682-1.355.436-.588.701-1.287.77-2.016.695.234 1.443.27 2.154.109-.006.732.189 1.453.564 2.084-.699.22-1.324.628-1.806 1.178z"/></g></svg>