<svg id="globe" enable-background="new 0 0 300 300" height="512" viewBox="0 0 300 300" width="512" xmlns="http://www.w3.org/2000/svg"><g><path d="m272.001 142.813c0-48.523-39.477-88-88-88s-88 39.477-88 88c0 14.604 3.643 28.899 10.508 41.655-6.98 1.555-11.563 3.374-15.713 5.034-4.488 1.794-8.502 3.376-14.991 4.34-.443-1.726-1.939-3.029-3.804-3.029h-40c-2.209 0-4 1.791-4 4s1.791 4 4 4h36v54.623l-34.852-10.455c-2.105-.637-4.342.566-4.98 2.684-.635 2.115.566 4.346 2.684 4.98l40 12c.377.113.764.168 1.148.168.85 0 1.689-.271 2.389-.791 1.014-.754 1.611-1.945 1.611-3.209v-12.218l28.141-7.675 59.074 11.814c.258.053.523.078.785.078.207 0 .418-.016.625-.049l70.539-11.137c5.121-.811 8.836-5.162 8.836-10.344 0-5.773-4.699-10.471-10.473-10.471h-5.19c26.681-15.508 43.663-44.117 43.663-75.998zm-36 86.471c0 1.223-.879 2.25-2.086 2.441l-69.832 11.025-59.297-11.859c-.615-.125-1.24-.104-1.838.062l-26.947 7.349v-36.395c8.007-1.075 12.764-2.978 17.766-4.977 5.543-2.219 11.275-4.51 22.801-6.158 24.375-3.49 31.437 12.852 31.719 13.527.609 1.518 2.078 2.514 3.715 2.514h24.613c6.277 0 11.387 5.107 11.387 11.387v.613h-39.23l-19.283-7.715c-2.066-.822-4.381.178-5.201 2.229-.82 2.053.178 4.379 2.229 5.201l20.002 8c.473.188.977.285 1.484.285h85.527c1.361 0 2.471 1.108 2.471 2.471zm-26.994-10.471h-13.006v-.613c0-10.689-8.695-19.387-19.387-19.387h-22.219c-3.5-5.818-14.465-19.449-38.961-15.959-.215.031-.396.066-.608.097-7.064-12.152-10.825-25.985-10.825-40.138 0-44.111 35.887-80 80-80s80 35.889 80 80c0 34.699-22.09 65.186-54.994 76z"/><path d="m215.868 183.255-.871.051c-.285.02-.57.041-.863.041-24.555 0-44.531-19.977-44.531-44.533s19.977-44.533 44.531-44.533c.293 0 .578.021.863.041l.871.051c1.969.066 3.48-1.127 3.992-2.889.508-1.764-.25-3.65-1.84-4.57-9.145-5.299-19.527-8.1-30.02-8.1-33.086 0-60 26.916-60 60s26.914 60 60 60c10.492 0 20.875-2.801 30.02-8.1 1.59-.92 2.348-2.807 1.84-4.57-.508-1.762-2.011-2.991-3.992-2.889zm-27.867 7.558c-28.672 0-52-23.326-52-52s23.328-52 52-52c4.031 0 8.043.479 11.953 1.41-22.098 6.203-38.352 26.535-38.352 50.59s16.254 44.387 38.352 50.59c-3.91.932-7.922 1.41-11.953 1.41z"/><path d="m243.895 129.833-9.668-7.795 4.426-11.604c.617-1.619.121-3.453-1.227-4.539-1.352-1.088-3.242-1.18-4.699-.236l-10.398 6.787-9.668-7.795c-1.348-1.086-3.242-1.18-4.699-.236-1.449.947-2.125 2.721-1.676 4.395l3.242 11.988-10.398 6.785c-1.453.945-2.129 2.721-1.68 4.393.453 1.674 1.93 2.865 3.664 2.951l12.402.625 3.238 11.988c.453 1.672 1.934 2.863 3.664 2.949.066.004.133.006.199.006 1.652 0 3.145-1.02 3.738-2.574l4.426-11.604 12.402.623c1.746.104 3.32-.951 3.938-2.568.618-1.619.122-3.451-1.226-4.539zm-17.617-1.651c-1.699-.088-3.32.953-3.938 2.568l-1.074 2.818-.789-2.912c-.449-1.672-1.93-2.863-3.66-2.949l-3.008-.152 2.523-1.646c1.453-.947 2.129-2.721 1.68-4.395l-.789-2.91 2.348 1.893c1.352 1.092 3.246 1.188 4.699.236l2.52-1.645-1.074 2.812c-.617 1.619-.121 3.451 1.227 4.539l2.348 1.893z"/><path d="m75.376 77.86c.781.781 1.805 1.172 2.828 1.172s2.047-.391 2.828-1.172l3.172-3.172 3.172 3.172c.781.781 1.805 1.172 2.828 1.172s2.047-.391 2.828-1.172c1.562-1.562 1.562-4.094 0-5.656l-3.172-3.172 3.172-3.172c1.562-1.562 1.562-4.094 0-5.656s-4.094-1.562-5.656 0l-3.172 3.172-3.172-3.172c-1.562-1.562-4.094-1.562-5.656 0s-1.562 4.094 0 5.656l3.172 3.172-3.172 3.172c-1.563 1.562-1.563 4.094 0 5.656z"/><path d="m127.135 45.74c2.362 0 4.276-1.915 4.276-4.277s-1.915-4.276-4.276-4.276c-2.362 0-4.276 1.915-4.276 4.276s1.914 4.277 4.276 4.277z"/><path d="m64.001 142.813c6.617 0 12-5.383 12-12s-5.383-12-12-12-12 5.383-12 12 5.383 12 12 12zm0-16c2.205 0 4 1.795 4 4s-1.795 4-4 4-4-1.795-4-4 1.795-4 4-4z"/></g></svg>