<svg id="kebab" enable-background="new 0 0 300 300" height="512" viewBox="0 0 300 300" width="512" xmlns="http://www.w3.org/2000/svg"><g><path d="m236 92.003c7.719 0 14-6.281 14-14s-6.281-14-14-14-14 6.281-14 14 6.281 14 14 14zm0-20c3.309 0 6 2.691 6 6s-2.691 6-6 6-6-2.691-6-6 2.691-6 6-6z"/><path d="m75.926 43.997c2.209 0 4-1.791 4-4s-1.791-4-4-4-4 1.791-4 4c0 2.208 1.79 4 4 4z"/><path d="m187.926 83.997c2.209 0 4-1.791 4-4s-1.791-4-4-4-4 1.791-4 4c0 2.208 1.79 4 4 4z"/><path d="m99.352 79.277c.781.781 1.805 1.172 2.828 1.172s2.047-.391 2.828-1.172l3.068-3.068 3.068 3.068c.781.781 1.805 1.172 2.828 1.172s2.047-.391 2.828-1.172c1.562-1.562 1.562-4.094 0-5.656l-3.068-3.068 3.068-3.068c1.562-1.562 1.562-4.094 0-5.656s-4.094-1.562-5.656 0l-3.068 3.068-3.068-3.068c-1.562-1.562-4.094-1.562-5.656 0s-1.562 4.094 0 5.656l3.068 3.068-3.068 3.068c-1.563 1.562-1.563 4.093 0 5.656z"/><path d="m266 256.003h-17.527l5.105-10.211c.621-1.24.555-2.713-.176-3.893-.73-1.178-2.016-1.896-3.402-1.896h-10.878l2.757-11.029c.301-1.195.031-2.461-.727-3.432s-1.922-1.539-3.152-1.539h-3.121l3.043-15.215c.234-1.176-.07-2.395-.828-3.32-.762-.928-1.895-1.465-3.094-1.465h-12v-4.361c11.333-1.913 20-11.77 20-23.639 0-2.209-1.789-4-4-4h-16v-4h8c1.16 0 2.262-.504 3.023-1.379.758-.877 1.102-2.039.938-3.188-4.84-33.883-34.301-59.434-68.531-59.434h-38.86c-34.23 0-63.691 25.551-68.531 59.434-.164 1.148.18 2.311.938 3.188.762.875 1.863 1.379 3.023 1.379h8v4h-16c-2.211 0-4 1.791-4 4 0 11.869 8.667 21.725 20 23.639v4.361h-8c-1.199 0-2.332.537-3.094 1.465-.758.926-1.062 2.145-.828 3.32l3.043 15.215h-7.121c-1.23 0-2.395.568-3.152 1.539s-1.027 2.236-.727 3.432l4.504 18.021c.141.561.355 1.086.536 1.628l-5.112 7.38h-16.049c-2.211 0-4 1.791-4 4s1.789 4 4 4h232c2.211 0 4-1.791 4-4s-1.789-4-4-4zm-26.473 0h-19.055l4-8h19.055zm-12.806-32h-9.083l8.313-12h3.17zm-10.503-12-6.218 8.977-6.218-8.977zm-17.339-8c1.042-1.156 1.852-2.506 2.384-4h12.737v4zm19.121-12h-16v-12h31.492c-1.777 6.893-8.051 12-15.492 12zm-91.43-80h38.859c28.715 0 53.637 20.332 59.777 48h-158.413c6.141-27.668 31.062-48 59.777-48zm-48.57 56h136v4h-16c-2.211 0-4 1.791-4 4v20c0 2.205-1.793 4-4 4h-4c-2.211 0-4 1.791-4 4v4c0 2.205-1.793 4-4 4s-4-1.795-4-4v-32c0-2.209-1.789-4-4-4h-92zm-19.492 12h15.492 92v12h-92c-7.441 0-13.715-5.107-15.492-12zm19.492 20h88v4h-88zm-11.121 12h99.858c1.656 4.646 6.055 8 11.263 8s9.606-3.354 11.263-8h4.786l8.313 12h-8.702c-1.199 0-2.336.537-3.094 1.465l-11.371 13.883c-1.352 1.648-3.348 2.629-5.477 2.691-2.215.057-4.184-.805-5.629-2.373l-7.05-7.666h12.961c2.211 0 4-1.791 4-4s-1.789-4-4-4h-104.721zm65.339 20-6.218 8.977-6.218-8.977zm-23.999 0-6.219 8.977-6.219-8.977zm-49.098 0h26.926l12.664 18.277c.75 1.08 1.977 1.723 3.289 1.723s2.539-.643 3.289-1.723l8.711-12.572 8.71 12.573c.75 1.078 1.977 1.723 3.289 1.723s2.539-.643 3.289-1.723l12.662-18.277h8.218l12.03 13.082c2.914 3.166 7.012 4.959 11.305 4.959.148 0 .297-.002.445-.006 4.449-.129 8.617-2.178 11.434-5.619l10.172-12.416h37.324l-2 8h-8.878c-1.516 0-2.898.855-3.578 2.211l-6.895 13.789h-129.576l-12.662-18.277c-1.5-2.16-5.078-2.16-6.578 0l-1.587 2.29zm6.879 15.024 6.218 8.977h-12.436z"/></g></svg>