<svg id="kebab2" enable-background="new 0 0 300 300" height="512" viewBox="0 0 300 300" width="512" xmlns="http://www.w3.org/2000/svg"><g><path d="m179.551 77.938c1.193.889 2.428 1.809 2.654 2.641.342 1.258-.689 3.271-2.828 5.529-1.52 1.604-1.453 4.135.15 5.654.773.734 1.764 1.098 2.752 1.098 1.059 0 2.117-.418 2.902-1.248 4.289-4.523 5.885-8.941 4.742-13.135-.951-3.496-3.633-5.494-5.592-6.955-.68-.506-1.705-1.27-1.838-1.328 0-2.322 1.955-4.553 4.867-5.549 2.09-.717 3.203-2.99 2.488-5.08-.717-2.092-2.998-3.207-5.08-2.49-6.242 2.139-10.275 7.287-10.275 13.119.002 3.975 2.926 6.153 5.058 7.744z"/><path d="m195.551 53.938c1.193.889 2.428 1.809 2.654 2.641.342 1.258-.689 3.271-2.828 5.529-1.52 1.604-1.453 4.135.15 5.654.773.734 1.764 1.098 2.752 1.098 1.059 0 2.117-.418 2.902-1.248 4.289-4.523 5.885-8.941 4.742-13.135-.951-3.496-3.633-5.494-5.592-6.955-.68-.506-1.705-1.27-1.838-1.328 0-2.322 1.955-4.553 4.867-5.549 2.09-.717 3.203-2.99 2.488-5.08-.719-2.092-2.996-3.205-5.08-2.49-6.242 2.139-10.275 7.287-10.275 13.119.002 3.975 2.926 6.153 5.058 7.744z"/><path d="m236.075 134.663c1.193.889 2.426 1.807 2.652 2.641.342 1.254-.689 3.27-2.828 5.531-1.52 1.605-1.449 4.137.154 5.654.773.732 1.762 1.096 2.75 1.096 1.061 0 2.119-.42 2.904-1.25 4.287-4.529 5.881-8.949 4.738-13.135-.951-3.496-3.633-5.492-5.59-6.951-.68-.506-1.705-1.271-1.838-1.33 0-2.322 1.955-4.553 4.865-5.549 2.09-.717 3.203-2.99 2.488-5.08-.719-2.092-2.994-3.205-5.082-2.49-6.24 2.139-10.271 7.287-10.271 13.119.001 3.974 2.923 6.152 5.058 7.744z"/><path d="m109.937 242.792c-2.362 0-4.277 1.915-4.277 4.276s1.915 4.276 4.277 4.276 4.276-1.915 4.276-4.276-1.915-4.276-4.276-4.276z"/><path d="m74.571 206.366c-1.562-1.562-4.094-1.562-5.656 0l-3.172 3.172-3.172-3.172c-1.562-1.562-4.094-1.562-5.656 0s-1.562 4.094 0 5.656l3.172 3.172-3.172 3.172c-1.562 1.562-1.562 4.094 0 5.656.781.781 1.805 1.172 2.828 1.172s2.047-.391 2.828-1.172l3.172-3.172 3.172 3.172c.781.781 1.805 1.172 2.828 1.172s2.047-.391 2.828-1.172c1.562-1.562 1.562-4.094 0-5.656l-3.172-3.172 3.172-3.172c1.562-1.562 1.562-4.093 0-5.656z"/><path d="m247.706 191.059c-2.402 0-4.63.664-6.607 1.734l-12.006-12.006c5.395-7.498 5.692-16.933.229-22.398-5.464-5.46-14.9-5.165-22.399.23l-2.132-2.132c5.99-7.247 8.396-14.232 8.564-14.735 1.74-5.229-1.096-10.902-6.328-12.65-5.215-1.744-10.895 1.092-12.648 6.326-.022.062-1.148 3.224-3.799 6.846l-3.802-3.802c9.104-10.586 11.671-22.269 5.774-28.165-3.391-3.395-8.746-4.104-15.062-1.998-4.347 1.45-8.878 4.197-13.081 7.795l-2.032-2.031c5.999-7.256 8.387-14.251 8.55-14.748 1.742-5.229-1.094-10.902-6.326-12.648-5.229-1.748-10.896 1.096-12.646 6.322-.022.062-1.15 3.226-3.803 6.848l-4.092-4.091c1.406-2.38 2.268-5.119 2.268-8.077 0-8.822-7.178-16-16-16-2.958 0-5.697.862-8.077 2.268l-2.3-2.299c5.999-7.256 8.387-14.25 8.551-14.748 1.742-5.229-1.094-10.902-6.326-12.648-5.217-1.74-10.898 1.098-12.645 6.314-.022.062-1.153 3.228-3.808 6.853l-6.509-6.509c-1.562-1.562-4.094-1.562-5.656 0s-1.562 4.094 0 5.656l6.59 6.59c-1.956 1.502-4.242 2.828-6.932 3.724-1.484.498-2.795 1.307-3.896 2.406-.002 0-.002.002-.004.004-2.697 2.695-3.623 6.619-2.416 10.24 1.396 4.184 5.311 6.836 9.496 6.836 1.047 0 2.109-.166 3.154-.514 6.015-2.004 10.869-5.088 14.8-8.494l2.245 2.244c-1.405 2.38-2.267 5.118-2.267 8.076 0 8.822 7.178 16 16 16 2.958 0 5.696-.862 8.075-2.267l4.173 4.172c-1.956 1.5-4.241 2.825-6.932 3.722-1.471.494-2.822 1.33-3.904 2.416-2.695 2.699-3.621 6.619-2.414 10.232 1.396 4.186 5.309 6.84 9.498 6.84 1.045 0 2.107-.166 3.152-.514 6.016-2.005 10.87-5.089 14.8-8.495l1.954 1.953c-9.106 10.586-11.672 22.269-5.776 28.165 2.146 2.148 5.061 3.176 8.412 3.176 5.851 0 13.032-3.144 19.766-8.939l3.871 3.871c-1.956 1.5-4.242 2.825-6.934 3.722-1.49.5-2.801 1.311-3.9 2.41-2.697 2.695-3.623 6.619-2.418 10.238 1.396 4.186 5.309 6.838 9.496 6.838 1.045 0 2.107-.166 3.154-.514 6.007-2.002 10.859-5.091 14.791-8.504l2.08 2.08c-2.152 2.975-3.57 6.31-4.052 9.684-.707 4.943.686 9.574 3.818 12.707 2.598 2.598 6.225 3.998 10.207 3.998.82 0 1.656-.059 2.5-.18 3.376-.482 6.711-1.9 9.686-4.053l12.011 12.011c-1.071 1.978-1.736 4.207-1.736 6.61 0 7.719 6.281 14 14 14s14-6.281 14-14-6.282-13.998-14-13.998zm-150.688-112.796c-1.041.354-2.18-.217-2.531-1.264-.287-.865.059-1.625.482-2.049.219-.221.486-.383.781-.482 16.072-5.355 21.348-21.299 21.363-21.357.352-1.049 1.473-1.621 2.531-1.27 1.047.35 1.613 1.484 1.262 2.543-.058.179-6.093 17.949-23.888 23.879zm25.309 9.416c0-4.412 3.588-8 8-8s8 3.588 8 8-3.588 8-8 8-8-3.588-8-8zm17.119 33.011c-1.047.344-2.182-.221-2.531-1.27-.289-.863.061-1.623.484-2.047.002-.002.004-.002.004-.004.215-.215.479-.377.775-.477 16.045-5.346 21.361-21.348 21.361-21.355.281-.84 1.068-1.373 1.906-1.373.207 0 .418.031.625.102 1.047.35 1.613 1.484 1.262 2.543-.058.18-6.095 17.952-23.886 23.881zm19.164 23.557c-2.307-2.307-.146-11.166 8.486-19.799 4.043-4.043 8.752-7.158 12.922-8.549 1.543-.514 2.963-.771 4.137-.771 1.225 0 2.184.279 2.74.836 2.305 2.307.146 11.166-8.484 19.799-8.631 8.63-17.492 10.794-19.801 8.484zm23.26 18.869c-1.049.35-2.182-.219-2.529-1.264-.289-.867.061-1.629.484-2.053.217-.217.482-.379.779-.479 16.107-5.367 21.365-21.357 21.361-21.357.352-1.051 1.486-1.613 2.529-1.273 1.049.352 1.617 1.488 1.27 2.537-.244.731-6.16 17.979-23.894 23.889zm30.744 19.455c-1.426.209-4.094.273-5.92-1.555-1.828-1.828-1.76-4.492-1.555-5.918.406-2.848 2.004-5.844 4.383-8.225 2.908-2.906 6.564-4.494 9.637-4.494 1.787 0 3.377.537 4.506 1.666 3.064 3.066 1.77 9.543-2.828 14.143-2.379 2.379-5.377 3.977-8.223 4.383zm35.092 28.488c-3.309 0-6-2.691-6-6s2.691-6 6-6 6 2.691 6 6-2.692 6-6 6z"/><path d="m199.624 239.141c-2.403 0-4.632.665-6.61 1.736l-12.011-12.011c2.152-2.975 3.57-6.31 4.053-9.686.707-4.943-.686-9.576-3.818-12.707-3.129-3.133-7.768-4.525-12.707-3.818-3.375.482-6.709 1.9-9.684 4.052l-2.126-2.125c5.999-7.256 8.387-14.251 8.55-14.748 1.742-5.229-1.094-10.902-6.326-12.648-5.217-1.732-10.898 1.098-12.645 6.314-.022.062-1.153 3.228-3.808 6.853l-3.798-3.797c9.106-10.587 11.672-22.271 5.774-28.167-5.895-5.896-17.581-3.334-28.166 5.775l-2.017-2.017c5.992-7.249 8.394-14.236 8.561-14.738 1.742-5.23-1.096-10.904-6.328-12.648-5.223-1.742-10.893 1.096-12.648 6.322-.021.062-1.148 3.226-3.8 6.848l-4.092-4.093c1.405-2.38 2.267-5.118 2.267-8.075 0-8.822-7.178-16-16-16-2.958 0-5.697.862-8.076 2.267l-2.303-2.303c5.996-7.253 8.389-14.244 8.553-14.744 1.74-5.229-1.096-10.902-6.326-12.65-5.229-1.744-10.896 1.098-12.648 6.326-.022.062-1.148 3.224-3.8 6.845l-6.513-6.511c-1.562-1.562-4.094-1.562-5.656 0s-1.562 4.096 0 5.656l6.593 6.592c-1.956 1.5-4.241 2.826-6.933 3.723-1.49.5-2.801 1.311-3.9 2.41-2.699 2.699-3.625 6.623-2.418 10.238 1.396 4.186 5.309 6.838 9.496 6.838 1.045 0 2.107-.166 3.154-.514 6.013-2.004 10.867-5.089 14.798-8.497l2.247 2.247c-1.406 2.38-2.267 5.118-2.267 8.076 0 8.822 7.178 16 16 16 2.958 0 5.698-.862 8.077-2.268l4.172 4.173c-1.956 1.5-4.241 2.826-6.933 3.722-1.484.498-2.795 1.307-3.896 2.406-.002 0-.002.002-.004.004-2.697 2.695-3.623 6.619-2.418 10.238 1.396 4.186 5.309 6.838 9.496 6.838 1.045 0 2.107-.166 3.154-.514 6.009-2.003 10.862-5.09 14.793-8.501l1.984 1.984c-3.598 4.203-6.345 8.733-7.795 13.08-2.105 6.32-1.396 11.67 1.998 15.062 2.146 2.146 5.061 3.176 8.408 3.174 5.853 0 13.034-3.143 19.768-8.937l3.868 3.867c-1.956 1.501-4.241 2.828-6.932 3.724-1.488.5-2.799 1.311-3.9 2.412-2.697 2.695-3.623 6.617-2.416 10.238 1.396 4.184 5.311 6.836 9.5 6.836 1.045 0 2.105-.164 3.15-.512 6.016-2.005 10.87-5.089 14.8-8.495l2.063 2.063c-5.397 7.498-5.693 16.936-.229 22.399 2.668 2.666 6.279 3.961 10.15 3.961 4.057 0 8.38-1.467 12.215-4.223l12.039 12.039c-1.071 1.978-1.734 4.206-1.734 6.607 0 7.719 6.281 14 14 14s14-6.281 14-14c0-7.716-6.282-13.998-14-13.998zm-150.69-112.794c-1.043.352-2.182-.217-2.529-1.268-.289-.863.061-1.625.484-2.049.217-.217.482-.379.779-.479 16.107-5.367 21.365-21.357 21.361-21.357.35-1.055 1.488-1.615 2.529-1.273 1.047.352 1.615 1.488 1.264 2.545-.058.179-6.108 17.957-23.888 23.881zm25.309 9.416c0-4.412 3.588-8 8-8s8 3.588 8 8-3.588 8-8 8-8-3.588-8-8zm17.117 33.009c-1.047.348-2.18-.219-2.529-1.264-.287-.865.059-1.625.482-2.049.221-.221.486-.383.781-.482 16.045-5.346 21.361-21.348 21.361-21.355.352-1.051 1.496-1.621 2.531-1.271 1.047.35 1.615 1.484 1.266 2.535-.242.73-6.142 17.972-23.892 23.886zm19.168 23.559c-1.09-1.09-1.115-3.725-.064-6.877 1.391-4.17 4.506-8.879 8.549-12.922 6.521-6.52 13.17-9.348 17.027-9.348 1.25 0 2.207.297 2.771.861 2.307 2.307.148 11.168-8.484 19.801-8.633 8.629-17.492 10.792-19.799 8.485zm23.262 18.869c-1.051.34-2.186-.221-2.533-1.266-.289-.867.061-1.627.484-2.051.219-.219.484-.381.779-.48 16.072-5.355 21.348-21.299 21.363-21.357.281-.84 1.066-1.371 1.904-1.371.207 0 .418.031.627.102 1.047.35 1.613 1.484 1.262 2.543-.058.179-6.095 17.95-23.886 23.88zm24.82 17.9c-3.066-3.068-1.771-9.543 2.828-14.143 2.381-2.379 5.377-3.977 8.225-4.383 1.42-.209 4.092-.271 5.918 1.555 1.828 1.828 1.76 4.494 1.555 5.92-.406 2.846-2.004 5.844-4.383 8.223-4.6 4.6-11.075 5.891-14.143 2.828zm41.014 30.041c-3.309 0-6-2.691-6-6s2.691-6 6-6 6 2.691 6 6-2.692 6-6 6z"/></g></svg>