<svg id="kebab3" enable-background="new 0 0 300 300" height="512" viewBox="0 0 300 300" width="512" xmlns="http://www.w3.org/2000/svg"><g><path d="m181.465 59.121c1.191.889 2.426 1.809 2.652 2.645.344 1.254-.688 3.27-2.828 5.529-1.516 1.605-1.449 4.137.156 5.654.773.732 1.762 1.096 2.75 1.096 1.059 0 2.117-.42 2.906-1.25 4.285-4.529 5.879-8.949 4.734-13.133-.949-3.496-3.633-5.496-5.59-6.955-.676-.506-1.703-1.27-1.836-1.328 0-2.324 1.953-4.555 4.863-5.549 2.09-.717 3.203-2.99 2.488-5.08-.719-2.092-2.988-3.205-5.082-2.49-6.238 2.137-10.27 7.287-10.27 13.119.002 3.972 2.924 6.15 5.057 7.742z"/><path d="m45.465 187.121c1.191.889 2.426 1.809 2.652 2.645.344 1.254-.688 3.27-2.828 5.529-1.516 1.605-1.449 4.137.156 5.654.773.732 1.762 1.096 2.75 1.096 1.059 0 2.117-.42 2.906-1.25 4.285-4.529 5.879-8.949 4.734-13.133-.949-3.496-3.633-5.496-5.59-6.955-.676-.506-1.703-1.27-1.836-1.328 0-2.324 1.953-4.555 4.863-5.549 2.09-.717 3.203-2.99 2.488-5.08-.719-2.092-2.988-3.209-5.082-2.49-6.238 2.137-10.27 7.287-10.27 13.119.002 3.972 2.924 6.15 5.057 7.742z"/><path d="m179.471 183.957c0 2.501 2.028 4.529 4.529 4.529s4.529-2.028 4.529-4.529c0-2.502-2.028-4.53-4.529-4.53s-4.529 2.028-4.529 4.53z"/><path d="m243.797 78.387c.781.781 1.805 1.172 2.828 1.172s2.047-.391 2.828-1.172l2.828-2.829 2.828 2.829c.781.781 1.805 1.172 2.828 1.172s2.047-.391 2.828-1.172c1.562-1.561 1.562-4.094 0-5.656l-2.829-2.829 2.829-2.829c1.562-1.562 1.562-4.096 0-5.656-1.562-1.562-4.094-1.562-5.656 0l-2.828 2.829-2.828-2.829c-1.562-1.562-4.094-1.562-5.656 0-1.562 1.561-1.562 4.094 0 5.656l2.829 2.829-2.829 2.829c-1.563 1.562-1.563 4.095 0 5.656z"/><path d="m86 105.957c0-2.209-1.789-4-4-4h-8c-2.211 0-4 1.791-4 4s1.789 4 4 4h8c2.211 0 4-1.791 4-4z"/><path d="m74 85.957h24c2.211 0 4-1.791 4-4s-1.789-4-4-4h-24c-2.211 0-4 1.791-4 4s1.789 4 4 4z"/><path d="m100.344 141.957 6.828 6.828c.75.75 1.766 1.172 2.828 1.172h20c2.211 0 4-1.791 4-4s-1.789-4-4-4h-18.344l-6.828-6.828c-.75-.75-1.766-1.172-2.828-1.172h-20c-2.211 0-4 1.791-4 4s1.789 4 4 4z"/><path d="m90 153.957h8c2.211 0 4-1.791 4-4s-1.789-4-4-4h-8c-2.211 0-4 1.791-4 4s1.789 4 4 4z"/><path d="m130 165.957h-40c-2.211 0-4 1.791-4 4s1.789 4 4 4h40c2.211 0 4-1.791 4-4s-1.789-4-4-4z"/><path d="m130 133.957c2.211 0 4-1.791 4-4 0-2.205 1.793-4 4-4 2.211 0 4-1.791 4-4s-1.789-4-4-4c-6.617 0-12 5.383-12 12 0 2.209 1.789 4 4 4z"/><path d="m118 197.957h-16c-2.211 0-4 1.791-4 4 0 2.205-1.793 4-4 4s-4-1.795-4-4c0-2.209-1.789-4-4-4s-4 1.791-4 4c0 6.617 5.383 12 12 12 5.215 0 9.664-3.344 11.316-8h12.684c2.211 0 4-1.791 4-4s-1.789-4-4-4z"/><path d="m104 128.486c2.501 0 4.529-2.028 4.529-4.529 0-2.502-2.028-4.53-4.529-4.53s-4.529 2.028-4.529 4.53c0 2.501 2.028 4.529 4.529 4.529z"/><path d="m87.471 187.957c0 2.501 2.028 4.529 4.529 4.529s4.529-2.028 4.529-4.529c0-2.502-2.028-4.53-4.529-4.53s-4.529 2.028-4.529 4.53z"/><path d="m112 88.486c2.501 0 4.529-2.028 4.529-4.529 0-2.502-2.028-4.53-4.529-4.53s-4.529 2.028-4.529 4.53c0 2.501 2.028 4.529 4.529 4.529z"/><path d="m258 253.957h-24v-208c0-2.209-1.789-4-4-4-13.234 0-24 10.766-24 24v140c0 2.209 1.789 4 4 4v44h-41.859l-6.812-10.219c-.742-1.113-1.992-1.781-3.328-1.781h-36v-12h16.52c6.281 0 11.602-4.697 12.375-10.926l17.883-143.055c.445-3.547-.656-7.121-3.023-9.801-2.367-2.682-5.773-4.219-9.352-4.219h-34.404v-12c0-2.209-1.789-4-4-4h-16c-2.211 0-4 1.791-4 4v12h-34.402c-3.578 0-6.984 1.537-9.352 4.219-2.367 2.68-3.469 6.254-3.023 9.801l17.883 143.053c.773 6.23 6.094 10.928 12.375 10.928h16.519v12h-36c-1.336 0-2.586.668-3.328 1.781l-6.812 10.219h-9.86c-2.211 0-4 1.791-4 4s1.789 4 4 4h216c2.211 0 4-1.791 4-4s-1.789-4-4-4zm-44-188c0-7.441 5.105-13.713 12-15.494v151.494h-12zm4 144h8v44h-8zm-112-156h8v8h-8zm-28.957 164.082-17.883-143.055c-.16-1.291.223-2.539 1.086-3.516.859-.975 2.051-1.512 3.352-1.512h92.805c1.301 0 2.492.537 3.352 1.512.863.977 1.246 2.225 1.086 3.516l-2.372 18.973h-24.469c-1.062 0-2.078.422-2.828 1.172l-6.828 6.828h-22.344c-2.211 0-4 1.791-4 4s1.789 4 4 4h24c1.062 0 2.078-.422 2.828-1.172l6.828-6.828h21.812l-10 80h-25.468c-2.211 0-4 1.791-4 4s1.789 4 4 4h24.468l-3.511 28.084c-.277 2.232-2.188 3.916-4.438 3.916h-57.039c-2.25 0-4.16-1.684-4.437-3.918zm28.957 11.918h8v12h-8zm-41.859 20h91.719l2.667 4h-97.053z"/></g></svg>