<svg id="meatballs" enable-background="new 0 0 300 300" height="512" viewBox="0 0 300 300" width="512" xmlns="http://www.w3.org/2000/svg"><g><path d="m125.465 85.122c1.191.889 2.426 1.809 2.652 2.645.344 1.254-.688 3.27-2.828 5.529-1.516 1.605-1.449 4.137.156 5.654.773.732 1.762 1.096 2.75 1.096 1.059 0 2.117-.42 2.906-1.25 4.285-4.529 5.879-8.949 4.734-13.133-.949-3.496-3.633-5.496-5.59-6.955-.676-.506-1.703-1.27-1.836-1.328 0-2.324 1.953-4.555 4.863-5.549 2.09-.717 3.203-2.99 2.488-5.08-.719-2.09-2.988-3.203-5.082-2.49-6.238 2.137-10.27 7.287-10.27 13.119.003 3.973 2.925 6.15 5.057 7.742z"/><path d="m141.465 69.122c1.191.889 2.426 1.809 2.652 2.645.344 1.254-.688 3.27-2.828 5.529-1.516 1.605-1.449 4.137.156 5.654.773.732 1.762 1.096 2.75 1.096 1.059 0 2.117-.42 2.906-1.25 4.285-4.529 5.879-8.949 4.734-13.133-.949-3.496-3.633-5.496-5.59-6.955-.676-.506-1.703-1.27-1.836-1.328 0-2.324 1.953-4.555 4.863-5.549 2.09-.717 3.203-2.99 2.488-5.08-.719-2.092-2.992-3.211-5.082-2.49-6.238 2.137-10.27 7.287-10.27 13.119.003 3.973 2.925 6.15 5.057 7.742z"/><path d="m197.465 97.122c1.191.889 2.426 1.809 2.652 2.645.344 1.254-.688 3.27-2.828 5.529-1.516 1.605-1.449 4.137.156 5.654.773.732 1.762 1.096 2.75 1.096 1.059 0 2.117-.42 2.906-1.25 4.285-4.529 5.879-8.949 4.734-13.133-.949-3.496-3.633-5.496-5.59-6.955-.676-.506-1.703-1.27-1.836-1.328 0-2.324 1.953-4.555 4.863-5.549 2.09-.717 3.203-2.99 2.488-5.08-.719-2.094-2.992-3.211-5.082-2.49-6.238 2.137-10.27 7.287-10.27 13.119.003 3.973 2.925 6.15 5.057 7.742z"/><path d="m67.797 100.388c.781.781 1.805 1.172 2.828 1.172s2.047-.391 2.828-1.172l2.828-2.829 2.828 2.829c.781.781 1.805 1.172 2.828 1.172s2.047-.391 2.828-1.172c1.562-1.561 1.562-4.094 0-5.656l-2.829-2.829 2.829-2.829c1.562-1.562 1.562-4.096 0-5.656-1.562-1.562-4.094-1.562-5.656 0l-2.828 2.829-2.828-2.829c-1.562-1.562-4.094-1.562-5.656 0-1.562 1.561-1.562 4.094 0 5.656l2.829 2.829-2.829 2.829c-1.562 1.562-1.562 4.095 0 5.656z"/><path d="m230 135.958c6.617 0 12-5.383 12-12s-5.383-12-12-12-12 5.383-12 12 5.383 12 12 12zm0-16c2.207 0 4 1.795 4 4s-1.793 4-4 4-4-1.795-4-4 1.793-4 4-4z"/><path d="m98 183.958c-2.211 0-4 1.791-4 4 0 2.205-1.793 4-4 4s-4-1.795-4-4 1.793-4 4-4c2.211 0 4-1.791 4-4s-1.789-4-4-4c-6.617 0-12 5.383-12 12s5.383 12 12 12 12-5.383 12-12c0-2.209-1.789-4-4-4z"/><path d="m96 166.487c2.501 0 4.529-2.028 4.529-4.529 0-2.502-2.028-4.53-4.529-4.53s-4.529 2.028-4.529 4.53c0 2.501 2.028 4.529 4.529 4.529z"/><path d="m208 185.428c-2.501 0-4.529 2.028-4.529 4.53 0 2.501 2.028 4.529 4.529 4.529s4.529-2.028 4.529-4.529c.001-2.502-2.027-4.53-4.529-4.53z"/><path d="m192 150.487c2.501 0 4.529-2.028 4.529-4.529 0-2.502-2.028-4.53-4.529-4.53s-4.529 2.028-4.529 4.53c0 2.501 2.028 4.529 4.529 4.529z"/><path d="m128 177.428c-2.501 0-4.529 2.028-4.529 4.53 0 2.501 2.028 4.529 4.529 4.529s4.529-2.028 4.529-4.529c.001-2.502-2.027-4.53-4.529-4.53z"/><path d="m152 189.428c-2.501 0-4.529 2.028-4.529 4.53 0 2.501 2.028 4.529 4.529 4.529s4.529-2.028 4.529-4.529c.001-2.502-2.027-4.53-4.529-4.53z"/><path d="m158 155.958c-2.211 0-4 1.791-4 4s1.789 4 4 4c2.207 0 4 1.795 4 4s-1.793 4-4 4c-2.211 0-4 1.791-4 4s1.789 4 4 4c6.617 0 12-5.383 12-12s-5.382-12-12-12z"/><path d="m114 135.958c2.211 0 4-1.791 4-4 0-2.205 1.793-4 4-4 1.031 0 2.012.391 2.758 1.102 1.602 1.52 4.141 1.455 5.656-.15 1.52-1.602 1.453-4.135-.148-5.654-2.242-2.127-5.18-3.297-8.266-3.297-6.617 0-12 5.383-12 12 0 2.208 1.79 3.999 4 3.999z"/><path d="m270 243.958h-56.717l3.084-4.852c13.156-1.822 25.738-6.74 36.504-14.277l19.422-13.594c1.43-1.002 2.047-2.814 1.523-4.48-.527-1.664-2.07-2.797-3.816-2.797h-36.864c1.291-2.211 2.187-4.657 2.543-7.234.277-2 1.066-3.906 2.285-5.514 5.328-7.041 5.328-16.879-.004-23.922-1.215-1.605-2.004-3.512-2.281-5.512-1.211-8.748-8.168-15.705-16.914-16.916-1.996-.275-3.902-1.064-5.516-2.287-.645-.485-1.333-.881-2.019-1.28-.396-.681-.787-1.366-1.271-2.005-1.215-1.605-2.004-3.512-2.281-5.512-1.211-8.748-8.168-15.705-16.914-16.916-1.996-.275-3.902-1.064-5.512-2.283-7.043-5.33-16.883-5.332-23.918-.002-.649.491-1.374.859-2.105 1.205-3.137-3.752-7.548-6.239-12.465-6.92-1.996-.275-3.902-1.064-5.512-2.283-7.043-5.33-16.883-5.332-23.918-.002-1.613 1.219-3.52 2.01-5.516 2.285-8.75 1.211-15.707 8.168-16.914 16.916-.277 1.996-1.066 3.902-2.285 5.512-2.058 2.714-3.311 5.878-3.776 9.221-1.219.573-2.406 1.23-3.509 2.066-1.613 1.219-3.52 2.01-5.516 2.285-8.754 1.211-15.707 8.168-16.914 16.916-.277 1.996-1.066 3.902-2.289 5.512-5.328 7.043-5.328 16.881 0 23.922 1.223 1.611 2.012 3.518 2.289 5.512.356 2.583 1.248 5.028 2.536 7.236h-35.44c-1.707 0-3.23 1.086-3.785 2.701-.555 1.617-.02 3.406 1.328 4.455l14.414 11.215c12.094 9.404 26.48 15.275 41.723 17.041l2.968 4.588h-56.648c-2.211 0-4 1.791-4 4s1.789 4 4 4h240c2.211 0 4-1.791 4-4s-1.789-4-4-4zm-42.242-81.084c.465 3.354 1.785 6.549 3.824 9.242 3.18 4.199 3.18 10.066 0 14.266-2.039 2.697-3.363 5.893-3.824 9.242-.486 3.487-2.472 6.471-5.423 8.334h-41.192c1.287-2.208 2.18-4.652 2.537-7.234.277-2 1.066-3.906 2.285-5.514 1.185-1.566 2.063-3.283 2.721-5.064.678-.224 1.369-.409 2.08-.506 8.746-1.211 15.703-8.168 16.914-16.916.277-2 1.066-3.906 2.285-5.514 2.539-3.355 3.83-7.348 3.949-11.368 1.221.424 2.472.766 3.758.944 5.215.721 9.36 4.869 10.086 10.088zm-99.482 41.084c-2.93-1.85-4.969-4.884-5.447-8.332-.461-3.348-1.785-6.543-3.828-9.244-3.18-4.199-3.18-10.066-.004-14.266 2.043-2.697 3.371-5.895 3.832-9.244.723-5.217 4.871-9.365 10.086-10.086 3.348-.465 6.543-1.787 9.246-3.83 4.195-3.18 10.062-3.18 14.266 0 2.695 2.041 5.895 3.365 9.246 3.83 5.215.721 9.359 4.869 10.086 10.088.465 3.354 1.785 6.549 3.824 9.242 3.18 4.199 3.18 10.066 0 14.266-2.039 2.697-3.363 5.893-3.824 9.242-.479 3.449-2.521 6.486-5.447 8.334zm52.15-83.002c2.695 2.041 5.895 3.365 9.246 3.83 5.215.721 9.359 4.869 10.086 10.088.465 3.354 1.785 6.549 3.824 9.242 3.18 4.199 3.18 10.066 0 14.266-2.039 2.697-3.359 5.893-3.824 9.244-.719 5.163-4.787 9.265-9.922 10.051-.292-3.685-1.541-7.307-3.875-10.389-1.215-1.605-2.004-3.512-2.281-5.512-1.211-8.748-8.168-15.705-16.914-16.916-1.996-.275-3.902-1.064-5.512-2.283-4.502-3.407-10.142-4.612-15.466-3.664.477-1.309.85-2.656 1.04-4.041.723-5.217 4.871-9.365 10.086-10.086 3.348-.465 6.543-1.787 9.246-3.83 4.196-3.18 10.063-3.18 14.266 0zm-77.597 5.916c.723-5.217 4.871-9.365 10.086-10.086 3.348-.465 6.543-1.787 9.246-3.83 4.195-3.18 10.063-3.18 14.266 0 2.695 2.041 5.895 3.365 9.242 3.83 1.688.234 3.274.833 4.679 1.717-6.05 2.771-10.5 8.458-11.44 15.273-.277 1.996-1.066 3.902-2.289 5.516-1.152 1.524-1.996 3.219-2.662 4.988-.7.237-1.4.479-2.135.58-3.132.433-6.016 1.627-8.506 3.35-2.543-1.763-5.447-2.921-8.549-3.35-1.996-.275-3.902-1.064-5.512-2.283-3.439-2.603-7.546-3.914-11.667-3.975.374-.873.826-1.715 1.409-2.486 2.043-2.697 3.371-5.894 3.832-9.244zm-32 68.754c-.461-3.348-1.785-6.543-3.828-9.244-3.18-4.199-3.18-10.066-.004-14.266 2.043-2.697 3.371-5.895 3.832-9.244.723-5.217 4.871-9.365 10.086-10.086 3.348-.465 6.543-1.787 9.246-3.83 4.195-3.18 10.062-3.18 14.266 0 2.695 2.041 5.895 3.365 9.246 3.83 1.438.198 2.792.682 4.044 1.368-1.413 2.288-2.427 4.847-2.81 7.622-.277 1.996-1.066 3.902-2.289 5.512-5.328 7.043-5.328 16.881 0 23.922 1.223 1.611 2.012 3.518 2.289 5.512.356 2.583 1.248 5.028 2.536 7.236h-41.167c-2.93-1.85-4.969-4.884-5.447-8.332zm18.531 37.793c-.668-1.031-1.77-1.697-2.992-1.811-14.438-1.336-28.098-6.729-39.496-15.594l-5.215-4.057h215.652l-9.023 6.316c-10.199 7.143-22.215 11.684-34.742 13.127-1.199.139-2.27.811-2.918 1.828l-6.821 10.729h-107.628z"/></g></svg>