<svg id="money" enable-background="new 0 0 300 300" height="512" viewBox="0 0 300 300" width="512" xmlns="http://www.w3.org/2000/svg"><g><path d="m118 90c6.617 0 12-5.383 12-12s-5.383-12-12-12-12 5.383-12 12 5.383 12 12 12zm0-16c2.207 0 4 1.795 4 4s-1.793 4-4 4-4-1.795-4-4 1.793-4 4-4z"/><path d="m179.172 79.172c-1.562 1.562-1.562 4.094 0 5.656l3.172 3.172-3.172 3.172c-1.562 1.562-1.562 4.094 0 5.656.781.781 1.805 1.172 2.828 1.172s2.047-.391 2.828-1.172l3.172-3.172 3.172 3.172c.781.781 1.805 1.172 2.828 1.172s2.047-.391 2.828-1.172c1.562-1.562 1.562-4.094 0-5.656l-3.172-3.172 3.172-3.172c1.562-1.562 1.562-4.094 0-5.656s-4.094-1.562-5.656 0l-3.172 3.172-3.172-3.172c-1.562-1.563-4.094-1.563-5.656 0z"/><circle cx="178" cy="50" r="4"/><path d="m266 110h-208c-2.211 0-4 1.791-4 4v8h-8c-2.211 0-4 1.791-4 4v8h-8c-2.211 0-4 1.791-4 4v88c0 2.209 1.789 4 4 4h156v20c0 2.209 1.789 4 4 4h68c2.211 0 4-1.791 4-4v-36c0-2.209-1.789-4-4-4h-4v-4h8c2.211 0 4-1.791 4-4v-88c0-2.209-1.789-4-4-4zm-228 112v-80h200v68h-23.432c1.789-6.881 7.997-12 15.432-12 2.211 0 4-1.791 4-4v-20c0-2.209-1.789-4-4-4s-4 1.791-4 4v16.334c-10.032 1.69-17.943 9.635-19.637 19.666h-12.363c-2.211 0-4 1.791-4 4v8zm220-4v4h-60v-4zm0 12v4h-60v-4zm-60 16v-4h60v4zm48-36v-72c0-2.209-1.789-4-4-4h-192v-4h200v80zm16-12h-4v-72c0-2.209-1.789-4-4-4h-192v-4h200z"/><path d="m86 146h-20c-2.211 0-4 1.791-4 4 0 8.822-7.176 16-16 16-2.211 0-4 1.791-4 4v20c0 2.209 1.789 4 4 4s4-1.791 4-4v-16.334c10.035-1.689 17.977-9.631 19.668-19.666h16.332c2.211 0 4-1.791 4-4s-1.789-4-4-4z"/><circle cx="50" cy="154" r="4"/><path d="m154.672 187.781c-4.43 6.645-12.023 8.971-16.672 9.783v-10.177l8.656-1.443c2.18-.363 3.652-2.424 3.289-4.604-.359-2.178-2.414-3.658-4.602-3.287l-7.343 1.226v-3.891l8.656-1.443c2.18-.363 3.652-2.424 3.289-4.604-.359-2.176-2.414-3.641-4.602-3.287l-7.343 1.225v-5.279c0-2.209-1.789-4-4-4s-4 1.791-4 4v6.612l-8.656 1.443c-2.18.363-3.652 2.424-3.289 4.604.324 1.955 2.02 3.342 3.941 3.342.219 0 .438-.018.66-.055l7.344-1.224v3.891l-8.656 1.443c-2.18.363-3.652 2.424-3.289 4.604.324 1.955 2.02 3.342 3.941 3.342.219 0 .438-.018.66-.055l7.344-1.224v13.277c0 2.209 1.789 4 4 4 .742 0 18.246-.156 27.328-13.781 1.227-1.838.73-4.322-1.109-5.547-1.848-1.231-4.324-.729-5.547 1.109z"/></g></svg>