<svg id="prayer-sound" enable-background="new 0 0 300 300" height="512" viewBox="0 0 300 300" width="512" xmlns="http://www.w3.org/2000/svg"><g><path d="m74 188c-6.617 0-12 5.383-12 12s5.383 12 12 12 12-5.383 12-12-5.383-12-12-12zm0 16c-2.205 0-4-1.795-4-4s1.795-4 4-4 4 1.795 4 4-1.795 4-4 4z"/><path d="m110.397 185.816c-2.362 0-4.277 1.915-4.277 4.276s1.915 4.276 4.277 4.276 4.276-1.915 4.276-4.276-1.914-4.276-4.276-4.276z"/><path d="m218.397 201.816c-2.362 0-4.277 1.915-4.277 4.276s1.915 4.276 4.277 4.276 4.276-1.915 4.276-4.276-1.914-4.276-4.276-4.276z"/><path d="m235.031 57.391-3.172-3.172 3.172-3.172c1.562-1.562 1.562-4.094 0-5.656s-4.094-1.562-5.656 0l-3.172 3.172-3.172-3.172c-1.562-1.562-4.094-1.562-5.656 0s-1.562 4.094 0 5.656l3.172 3.172-3.172 3.172c-1.562 1.562-1.562 4.094 0 5.656.781.781 1.805 1.172 2.828 1.172s2.047-.391 2.828-1.172l3.172-3.172 3.172 3.172c.781.781 1.805 1.172 2.828 1.172s2.047-.391 2.828-1.172c1.563-1.563 1.563-4.094 0-5.656z"/><path d="m250 128h-8c-2.209 0-4 1.791-4 4s1.791 4 4 4h8c2.209 0 4-1.791 4-4s-1.791-4-4-4z"/><path d="m240.828 145.172c-1.562-1.562-4.094-1.562-5.656 0s-1.562 4.094 0 5.656l4 4c.781.781 1.805 1.172 2.828 1.172s2.047-.391 2.828-1.172c1.562-1.562 1.562-4.094 0-5.656z"/><path d="m235.172 118.828c.781.781 1.805 1.172 2.828 1.172s2.047-.391 2.828-1.172l4-4c1.562-1.562 1.562-4.094 0-5.656s-4.094-1.562-5.656 0l-4 4c-1.563 1.562-1.563 4.094 0 5.656z"/><path d="m62 132c0-2.209-1.791-4-4-4h-8c-2.209 0-4 1.791-4 4s1.791 4 4 4h8c2.209 0 4-1.791 4-4z"/><path d="m64.828 145.172c-1.562-1.562-4.094-1.562-5.656 0l-4 4c-1.562 1.562-1.562 4.094 0 5.656.781.781 1.805 1.172 2.828 1.172s2.047-.391 2.828-1.172l4-4c1.563-1.562 1.563-4.094 0-5.656z"/><path d="m59.172 118.828c.781.781 1.805 1.172 2.828 1.172s2.047-.391 2.828-1.172c1.562-1.562 1.562-4.094 0-5.656l-4-4c-1.562-1.562-4.094-1.562-5.656 0s-1.562 4.094 0 5.656z"/><path d="m216.379 116h-2.379v-20c0-1.475-.812-2.83-2.113-3.527-1.299-.695-2.877-.625-4.105.199l-24.904 16.602c-4.207-6.068-10.043-10.915-16.877-13.911v-11.363c0-7.433-5.119-13.643-12-15.432v-12.724c1.696-.245 3.341-.786 4.836-1.624 1.928-1.08 2.615-3.518 1.535-5.445-1.08-1.926-3.516-2.609-5.445-1.535-.9.504-1.884.76-2.927.76-3.309 0-6-2.691-6-6s2.691-6 6-6c1.221 0 2.395.363 3.395 1.051 1.828 1.254 4.312.793 5.562-1.031 1.252-1.822.789-4.312-1.031-5.562-2.34-1.608-5.082-2.458-7.926-2.458-7.719 0-14 6.281-14 14 0 5.563 3.287 10.34 8 12.596v13.972c-6.881 1.789-12 7.999-12 15.432v11.363c-6.834 2.996-12.67 7.843-16.878 13.911l-24.903-16.602c-1.229-.824-2.809-.895-4.105-.199-1.302.697-2.114 2.052-2.114 3.527v20h-2.379c-7.51 0-13.621 6.111-13.621 13.621v4.758c0 7.51 6.111 13.621 13.621 13.621h2.379v20c0 1.475.812 2.83 2.113 3.527.59.317 1.241.473 1.887.473.775 0 1.549-.225 2.219-.672l24.904-16.602c4.208 6.068 10.044 10.915 16.877 13.911v99.363c0 2.209 1.791 4 4 4s4-1.791 4-4v-96.806c2.586.527 5.261.806 8 .806s5.414-.279 8-.806v96.806c0 2.209 1.791 4 4 4s4-1.791 4-4v-99.363c6.834-2.996 12.67-7.844 16.878-13.912l24.903 16.603c.67.447 1.443.672 2.219.672.646 0 1.297-.156 1.887-.473 1.301-.697 2.113-2.052 2.113-3.527v-20h2.379c7.51 0 13.621-6.111 13.621-13.621v-4.758c0-7.51-6.111-13.621-13.621-13.621zm-132.758 24c-3.1 0-5.621-2.521-5.621-5.621v-4.758c0-3.1 2.521-5.621 5.621-5.621h2.379v16zm58.379-56c0-4.412 3.588-8 8-8s8 3.588 8 8v8.806c-2.586-.527-5.261-.806-8-.806s-5.414.279-8 .806zm-48 76.525v-57.051l19.223 12.815c-2.069 4.827-3.223 10.136-3.223 15.711 0 5.576 1.154 10.885 3.223 15.711zm56 3.475c-17.645 0-32-14.355-32-32s14.355-32 32-32 32 14.355 32 32-14.355 32-32 32zm56-3.475-19.223-12.815c2.07-4.826 3.223-10.135 3.223-15.71 0-5.576-1.154-10.885-3.224-15.711l19.224-12.814zm16-26.146c0 3.1-2.521 5.621-5.621 5.621h-2.379v-16h2.379c3.1 0 5.621 2.521 5.621 5.621z"/><path d="m149 109c-12.682 0-23 10.318-23 23s10.318 23 23 23 23-10.318 23-23-10.318-23-23-23zm0 38c-8.271 0-15-6.729-15-15s6.729-15 15-15 15 6.729 15 15-6.729 15-15 15z"/></g></svg>