<svg id="smoke" enable-background="new 0 0 300 300" height="512" viewBox="0 0 300 300" width="512" xmlns="http://www.w3.org/2000/svg"><g><path d="m242 130c-6.617 0-12 5.383-12 12s5.383 12 12 12 12-5.383 12-12-5.383-12-12-12zm0 16c-2.207 0-4-1.795-4-4s1.793-4 4-4 4 1.795 4 4-1.793 4-4 4z"/><path d="m229.134 108.926c2.362 0 4.276-1.915 4.276-4.277s-1.915-4.276-4.276-4.276-4.276 1.915-4.276 4.276 1.914 4.277 4.276 4.277z"/><path d="m60.857 140.65c0 2.362 1.915 4.277 4.276 4.277s4.276-1.915 4.276-4.277-1.915-4.276-4.276-4.276-4.276 1.914-4.276 4.276z"/><path d="m49.516 106.484c.781.781 1.805 1.172 2.828 1.172s2.047-.391 2.828-1.172l2.828-2.828 2.828 2.828c.781.781 1.805 1.172 2.828 1.172s2.047-.391 2.828-1.172c1.562-1.562 1.562-4.094 0-5.656l-2.828-2.828 2.828-2.828c1.562-1.562 1.562-4.094 0-5.656s-4.094-1.562-5.656 0l-2.828 2.828-2.828-2.828c-1.562-1.562-4.094-1.562-5.656 0s-1.562 4.094 0 5.656l2.828 2.828-2.828 2.828c-1.563 1.563-1.563 4.094 0 5.656z"/><path d="m242 266h-93.323c.827-1.77 1.323-3.723 1.323-5.803v-16.578c0-9.869-4.902-19.027-13.113-24.502-6.817-4.545-10.887-12.148-10.887-20.342v-40.775c0-1.915-1.372-3.439-3.169-3.832 1.153-1.676 1.973-3.575 2.507-5.593l35.123-27.423c1.742-1.359 2.051-3.873.691-5.613l-1.275-1.634 5.002-4.431c2.441-2.041 5.625-2.455 8.516-1.098 2.883 1.35 4.605 4.059 4.605 7.244v122.38c0 8.822 7.176 16 16 16s16-7.178 16-16v-140.737c4.646-1.656 8-6.055 8-11.263v-32c0-5.208-3.354-9.606-8-11.263v-12.737c0-2.209-1.789-4-4-4s-4 1.791-4 4v12.737c-4.646 1.656-8 6.055-8 11.263v32c0 5.208 3.354 9.606 8 11.263v140.737c0 4.412-3.59 8-8 8s-8-3.588-8-8v-122.379c0-6.275-3.531-11.828-9.215-14.49-5.672-2.658-12.207-1.82-17.121 2.277l-4.719 4.179-1.629-2.087c-.652-.836-1.609-1.379-2.664-1.51-1.047-.131-2.113.164-2.949.818l-27.081 21.143c.859-1.813 1.378-3.816 1.378-5.951 0-3.8-1.533-7.242-4-9.767v-20.801c6.882-1.789 12-7.999 12-15.432 0-2.209-1.789-4-4-4h-2.225c1.378-2.363 2.225-5.073 2.225-8v-16c0-2.209-1.789-4-4-4h-28c-2.211 0-4 1.791-4 4v16c0 2.927.847 5.637 2.225 8h-2.225c-2.211 0-4 1.791-4 4 0 7.433 5.118 13.643 12 15.432v20.801c-2.467 2.525-4 5.967-4 9.767 0 3.596 1.402 6.847 3.639 9.329-4.606 3.264-7.639 8.609-7.639 14.671 0 3.774 1.177 7.271 3.169 10.168-1.797.393-3.169 1.917-3.169 3.832v40.775c0 8.193-4.07 15.797-10.887 20.342-8.211 5.475-13.113 14.633-13.113 24.502v16.578c0 2.079.496 4.032 1.323 5.803h-17.323c-2.211 0-4 1.791-4 4s1.789 4 4 4h192c2.211 0 4-1.791 4-4s-1.789-4-4-4zm-40-212c0-2.205 1.793-4 4-4s4 1.795 4 4v32c0 2.205-1.793 4-4 4s-4-1.795-4-4zm-104 90c0-5.514 4.484-10 10-10s10 4.486 10 10-4.484 10-10 10-10-4.486-10-10zm12-54v16.202c-.659-.095-1.315-.202-2-.202s-1.341.107-2 .202v-16.202zm39.473 23.576 2.914 3.732-27.299 21.314c-.497-1.572-1.145-3.073-2.029-4.427zm-51.473-51.576v-12h20v12c0 4.412-3.59 8-8 8h-4c-4.41 0-8-3.588-8-8zm-2.926 16h10.926 4 10.926c-1.383 2.389-3.969 4-6.926 4h-12c-2.957 0-5.543-1.611-6.926-4zm6.926 42c0-3.309 2.691-6 6-6s6 2.691 6 6-2.691 6-6 6-6-2.691-6-6zm-28 140.197v-16.578c0-7.188 3.57-13.859 9.551-17.846 9.047-6.031 14.449-16.123 14.449-26.998v-36.775h20v36.775c0 10.875 5.402 20.967 14.449 26.998 5.98 3.986 9.551 10.658 9.551 17.846v16.578c0 3.199-2.605 5.803-5.805 5.803h-56.39c-3.2 0-5.805-2.604-5.805-5.803z"/><circle cx="90" cy="246" r="4"/><circle cx="102" cy="246" r="4"/><circle cx="114" cy="246" r="4"/><circle cx="126" cy="246" r="4"/></g></svg>