<svg id="sword" enable-background="new 0 0 300 300" height="512" viewBox="0 0 300 300" width="512" xmlns="http://www.w3.org/2000/svg"><g><path d="m163.355 83.833c-1.562-1.562-4.094-1.562-5.656 0l-3.172 3.172-3.172-3.172c-1.562-1.562-4.094-1.562-5.656 0s-1.562 4.094 0 5.656l3.172 3.172-3.172 3.172c-1.562 1.562-1.562 4.094 0 5.656.781.781 1.805 1.172 2.828 1.172s2.047-.391 2.828-1.172l3.172-3.172 3.172 3.172c.781.781 1.805 1.172 2.828 1.172s2.047-.391 2.828-1.172c1.562-1.562 1.562-4.094 0-5.656l-3.172-3.172 3.172-3.172c1.562-1.562 1.562-4.093 0-5.656z"/><path d="m92.527 218.661c-6.617 0-12 5.383-12 12s5.383 12 12 12 12-5.383 12-12-5.383-12-12-12zm0 16c-2.205 0-4-1.795-4-4s1.795-4 4-4 4 1.795 4 4-1.795 4-4 4z"/><circle cx="72.527" cy="190.661" r="4"/><circle cx="176.527" cy="134.661" r="4"/><circle cx="208.527" cy="118.661" r="4"/><path d="m264.195 232.859c-7.837-11.307-29.946-23.579-40.942-25.989l1.351-12.432c4.519-.96 7.923-4.976 7.923-9.776 0-5.514-4.486-10-10-10s-10 4.486-10 10c0 .754.099 1.482.258 2.188l-8.483 9.543c-24.833-12.135-126.521-66.356-165.363-157.394-.775-1.818-2.762-2.799-4.68-2.303-1.916.494-3.182 2.314-2.979 4.283.382 3.721 11.159 91.959 164.948 179.892l-.212 10.148c-4.295 1.122-7.49 5-7.49 9.642 0 5.514 4.486 10 10 10s10-4.486 10-10c0-1.86-.544-3.582-1.432-5.075l8.545-11.596c13.857 5.098 28.599 13.771 28.295 18.564-.133 2.109-1.023 4.016-1.965 6.033-1.361 2.922-2.904 6.23-1.521 9.932 1.141 3.053 3.895 5.416 8.934 7.66 2.141.953 4.229 1.424 6.193 1.424 3.443 0 6.512-1.443 8.848-4.26 5.85-7.06 5.738-21.875-.228-30.484zm-59.7-24.641 12.035-13.539-1.863 17.144-10.545 14.31zm18.032-25.557c1.104 0 2 .896 2 2s-.896 2-2 2-2-.896-2-2 .896-2 2-2zm-157.389-85.058c46.255 58.264 111.526 93.97 133.653 104.989l-1.254 1.411c-.631.711-.988 1.625-1.01 2.574l-.107 5.136c-70.678-41.079-109.804-82.346-131.282-114.11zm133.389 145.058c-1.104 0-2-.896-2-2s.896-2 2-2 2 .896 2 2-.897 2-2 2zm59.736 15.577c-.943 1.133-2.348 2.094-5.627.633-4.102-1.826-4.646-3.021-4.693-3.15-.209-.561.65-2.404 1.277-3.75 1.102-2.359 2.469-5.295 2.699-8.91.753-11.895-20.708-21.668-31.344-25.768l1.172-1.591c.2-.271.358-.569.483-.879 9.157 2.229 29.198 13.66 35.39 22.596 3.809 5.492 4.151 16.584.643 20.819z"/><path d="m146.32 44.079c.516-.15 51.955-14.896 85.758 17.072.773.73 1.762 1.094 2.748 1.094 1.061 0 2.119-.42 2.906-1.252 1.518-1.605 1.447-4.137-.158-5.654-37.209-35.186-91.252-19.604-93.535-18.928-2.115.631-3.318 2.855-2.689 4.973.626 2.117 2.845 3.326 4.97 2.695z"/><path d="m91.095 86.833c.871 0 1.746-.281 2.48-.863 49.891-39.5 111.832-18.176 112.449-17.957 2.072.736 4.367-.348 5.109-2.428.74-2.08-.344-4.365-2.424-5.107-2.695-.959-66.664-23.084-120.1 19.219-1.732 1.371-2.025 3.887-.654 5.619.792.998 1.96 1.517 3.14 1.517z"/></g></svg>