<svg xmlns="http://www.w3.org/2000/svg" width="512" height="512"><defs><clipPath id="a" clipPathUnits="userSpaceOnUse"><rect width="480" height="480" x="16" y="556.362" fill="#f1c40f" ry="48"/></clipPath></defs><g clip-path="url(#a)" transform="translate(0 -540.362)"><rect width="480" height="480" x="16" y="556.362" fill="#2ecc71"/><g transform="translate(585.959 416.031) scale(.64517)"><path fill="#f1c40f" d="M -821.4242,589.48565 -511.40919,787.46573 -201.43295,589.48565 -511.40919,391.54434 -821.4242,589.48565"/><path fill="#2980b9" d="m -511.40919,456.71069 c 73.26852,0 132.69743,59.46767 132.69743,132.77496 0,73.34606 -59.42891,132.77497 -132.69743,132.77497 -73.38482,0 -132.81373,-59.42891 -132.81373,-132.77497 0,-73.30729 59.42891,-132.77496 132.81373,-132.77496"/><path fill="#fff" d="m -379.33202,602.86006 c -58.07209,-46.32586 -132.271,-73.03592 -212.36241,-70.1672 -14.14974,0.46519 -28.06689,1.97863 -41.71266,4.2643 -2.8284,6.55153 -5.15594,13.41318 -6.90043,20.46867 15.97177,-3.17885 32.40873,-5.1947 49.31088,-5.81496 79.00595,-2.79119 152.04187,24.9268 207.74921,72.49319 1.86079,-6.86166 3.17885,-13.99468 3.91541,-21.244"/><path fill="#2ecc71" d="M-626.9331 545.29194l1.47312 3.14008 2.71365.77533 2.40352-1.47313.50551-3.48897-1.43281-3.17885-2.75396-.66058-2.40352 1.43281-.50551 3.45021zm-2.63612.4652l.12405-3.37268.89008-1.93832 1.51344-1.35528 2.71365-.93039 4.76827 1.12268 2.44383 4.65197-1.00792 5.11716-4.26431 2.40352-4.80703-1.08546-2.36321-4.6132M-609.33315 542.11309l1.9011-.18607 2.3632-.35045.66058-.62027.18608-1.00792-.42798-1.04825-1.04514-.38766-1.93832.15507-2.01586.15506.31014 3.29515zm-1.97554 7.67575l-1.12267-12.90921 5.46606-.50552 3.10131.062 1.59098 1.08546.73501 2.01585-.62026 2.44384-2.48105 1.43281 1.51344.96761 1.62819 1.97863 1.82357 2.40352-3.10132.27912-2.17091-2.67333-1.51034-1.74294-.81565-.50552-1.35837 0-.54273.031.50551 5.38853-2.63612.2481M-592.89619 537.61619l.21709 8.60614 1.97864-.093 1.58787-.15507 1.00793-.57995.66058-1.27774.18607-2.3663-.31013-2.28877-.81564-1.24052-1.20021-.57995-2.17092-.031-1.16299 0zm-2.67644-2.09339l4.80704-.12405 2.44383.15507 1.97864 1.12267 1.31806 2.05307.50551 3.10132-.35044 2.75396-1.27775 2.32599-1.82357 1.08546-2.3632.34734-4.92333.15507-.31013-12.98675M-579.25042 548.12189l.12406-12.98675 9.65283.12405-.031 2.20814-6.97795-.12405-.031 2.90593 6.51276.12405-.031 2.17092-6.51276-.12406-.093 3.56651 7.24932.093c0 0 .49722 1.69545-.031 2.20814-2.34628 2.27728-9.80791-.15507-9.80791-.15507M-564.20905 548.43202l.9304-12.90922 3.87664.2171 1.74294 9.03257 2.90593-8.68368 3.95417.27912-.93039 12.94798-2.40352-.15506.73501-10.19557-3.29514 10.00174-2.51827-.15507-1.86079-10.3894-.69779 10.1568-2.44384-.15506M-538.27432 550.8743l1.93832-12.83168 9.53654 1.43281-.35045 2.21123-6.90042-1.08546-.46519 2.8315 6.47399.96761-.35045 2.20814-6.43523-1.00793-.54273 3.52774 7.21056 1.08546-.35045 2.17092-9.76914-1.51344M-510.75016 544.90428l-.81565 3.60527 1.39559.31013 2.05307.27912.96761-.46519.50552-.89318-.15507-1.24053-.93039-.81564-1.78326-.50552-1.24052-.27912zm-5.00087 9.88543l2.94625-12.63785 4.10924.96761 2.98346.85286 1.55066 1.66541.15506 2.63611-.89007 1.86079-1.35838 1.00793-1.47312.31013-2.67644-.4652-1.6685-.35045-1.08546 4.76827-2.5989-.62026M-496.40659 551.88223l1.86079.54273 2.32598.4652.85286-.31013.54273-.89008-.062-1.08546-.81565-.73811-1.86079-.62027-1.86078-.54273-.96761 3.17885zm-4.57444 6.47399l3.56651-12.48278 5.311 1.51034 2.79118 1.16299 1.12268 1.62819 0 2.1337-1.51344 2.09339-2.79118.38766 1.04514 1.47313.85286 2.44073.85286 2.86871-3.02378-.85286-1.04514-3.25638-.81565-2.20813-.57994-.73811-1.28084-.50552-.4652-.15506-1.51034 5.23346-2.52137-.73501M-481.52029 557.42583l-.15506 3.48898 2.09338 1.97553 2.75397-.27912 2.09339-2.82839.18607-3.48898-2.1306-1.898-2.79118.18607-2.05307 2.8284zm-2.55858-.77533l1.62819-2.98346 1.70572-1.27774 1.93832-.54273 2.86872.42488 3.72157 3.17884c0 0 .56884 3.58433 0 5.23347-.56727 1.64461-3.21761 4.10924-3.21761 4.10924l-4.88457.15506-3.76034-3.14008 0-5.15593M-462.21461 566.49717l.85286-2.01585 5.1947 2.1306-1.89801 4.76827-2.79118.42488-3.14008-.62027-2.98346-2.17092-1.12268-3.10131.58305-3.52774 2.17092-2.98657 3.21761-1.27774 3.10132.57995 3.10131 2.3663.54273 3.25638-2.5989-.54273-.35045-1.78326-1.51034-1.24052-2.98346-.031-2.17092 2.59891-.35045 3.60527 2.05307 2.09339 1.66851.31013 1.58787-.15507.62026-1.51344-2.79118-1.16299M-448.2587 569.63725l1.78325.85286 2.17092.85286.89318-.15507.66058-.77532.15506-1.08546-.69779-.89318-1.66851-.85286-1.86079-.89008-1.4328 2.94625zm-5.5436 5.65989l5.5436-11.70745 4.9621 2.3663 2.5989 1.62819.85286 1.74604-.42798 2.09338-1.74294 1.82048-2.86872-.031.81565 1.58787.4652 2.55859.31013 2.94625-2.8315-1.35838-.50551-3.33391-.38767-2.32599-.50551-.85286-1.12268-.65748-.4652-.2481-2.3663 4.88457-2.32598-1.12268M-439.49749 582.2751l6.20262-11.39733 8.45108 4.57444-1.00793 1.898-6.24139-3.33391-1.35527 2.5989 5.77619 3.061-1.08546 1.93832-5.69866-3.10131-1.66541 3.10131 6.3577 3.45021-1.00793 1.93832-8.72244-4.7295M-424.72749 585.60901l2.28877 1.08546-.15507 2.1337 1.28084 1.47313 1.93833.54273 1.2002-.73501.18608-.85287-.54273-.93039-1.51034-1.58787-1.86079-2.5989.34735-2.86872 1.43591-1.31805 2.05307-.27912 2.40352.93039 2.5989 2.8284-.34735 3.14008-2.32598-1.27774.15506-1.58788-1.20021-1.27774-1.78325-.50551-.73811.50551-.062.85286 1.62819 1.97864 1.86079 2.28877.54273 1.86079-.62027 2.01585-1.58787 1.51034-2.24845.31013-2.67643-1.08546-2.63612-2.90593.38766-3.64404M-411.74074 593.63366l2.24845 1.20331-.27912 2.05307 1.24053 1.58787 1.9011.62026 1.20331-.69779.21709-.77533-.46519-.96761-1.43591-1.66541-1.74294-2.71365.50551-2.83149 1.51034-1.24053 2.05617-.18608 2.3632 1.08546 2.44384 2.94625-.50552 3.10131-2.24845-1.35837.18608-1.62819-1.08546-1.27774-1.74294-.57995-.85286.38766-.12405.89318 1.55066 2.05307 1.78325 2.3663.4652 1.89801-.6978 2.01585-1.70572 1.35838-2.24845.21709-2.5989-1.20021-2.52137-3.061.54273-3.60527M-395.53638 602.1235l-1.16299 3.29515 1.35527 2.44383 2.71365.66058 2.86871-2.09338 1.20021-3.25638-1.43281-2.40352-2.71364-.6978-2.8315 2.05617zm-2.20814-1.59097l2.52137-2.28567 1.97554-.66058 2.05617.031 2.5989 1.31806 2.55858 4.14801-1.62819 5.00087-4.30307 2.90593-4.7295-1.31806-2.5989-4.22554 1.55065-4.92333"/><path fill="#fff" d="M-469.30887 539.08931l1.27774 3.76035 3.91541 0-3.17884 2.32598 1.2002 3.72158-3.21761-2.28877-3.17884 2.28877 1.27774-3.72158-3.17885-2.32598 3.91541 0 1.16299-3.76035M-510.90523 646.35598l1.20021 3.76034 3.95417 0-3.17884 2.28877 1.20331 3.76034-3.17885-2.32598-3.17884 2.32598 1.2002-3.76034-3.17884-2.28877 3.95417 0 1.20021-3.76034M-416.66408 633.13663l1.24053 3.87664 4.0317 0-3.25637 2.32599 1.24052 3.79911-3.25638-2.32599-3.21761 2.32599 1.20021-3.79911-3.21761-2.32599 3.99294 0 1.24052-3.87664M-398.09497 636.35425l.81565 2.40351 2.55858 0-2.05307 1.51034.77533 2.44384-2.09338-1.47313-2.01586 1.47313.73811-2.44384-2.05617-1.51034 2.5989 0 .73812-2.40351M-411.27555 645.81325l1.08546 3.33391 3.48898 0-2.86871 2.01586 1.12267 3.33391-2.8315-2.05307-2.8315 2.05307 1.12268-3.33391-2.86872-2.01586 3.48898 0 1.08546-3.33391M-419.57156 656.78415l1.04514 3.25637 3.41145 0-2.71365 2.01586 1.04514 3.25638-2.79118-2.01586-2.75397 2.01586 1.08546-3.25638-2.83149-2.01586 3.45021 0 1.04514-3.25637M-430.23232 664.73126l.85286 2.48105 2.5989 0-2.1306 1.58787.85286 2.48105-2.17092-1.55065-2.09339 1.55065.77533-2.48105-2.1306-1.58787 2.67643 0 .77533-2.48105M-444.18823 662.05638l.81564 2.48105 2.5989 0-2.09338 1.51344.81254 2.48105-2.1306-1.51034-2.09339 1.51034.81565-2.48105-2.09339-1.51344 2.5958 0 .77533-2.48105M-459.2296 666.59205l.89318 2.71365 2.79118 0-2.28567 1.62819.89318 2.67333-2.28877-1.66851-2.24845 1.66851.85286-2.67333-2.28567-1.62819 2.8315 0 .85286-2.71365M-443.91687 688.53384l.77533 2.51826 2.67644 0-2.13371 1.55066.81565 2.52137-2.13371-1.55066-2.17092 1.55066.85287-2.52137-2.13371-1.55066 2.5989 0 .85286-2.51826M-471.01459 676.98145l1.08546 3.41144 3.60528 0-2.94625 2.1337 1.16299 3.37268-2.90593-2.09338-2.94625 2.09338 1.163-3.37268-2.94625-2.1337 3.60528 0 1.12267-3.41144M-481.44275 663.14184l.85286 2.5989 2.79118 0-2.24845 1.58787.89317 2.63612-2.28876-1.62819-2.21124 1.62819.85286-2.63612-2.21124-1.58787 2.71365 0 .85286-2.5989M-443.5292 673.99643l1.12267 3.29515 3.48898 0-2.86871 2.05617 1.08546 3.29514-2.8315-2.01585-2.79118 2.01585 1.08545-3.29514-2.83149-2.05617 3.48897 0 1.04515-3.29515M-511.06029 695.31796l.38766 1.20021 1.24053 0-1.00793.73811.38766 1.20021-1.00792-.73501-1.00793.73501.38766-1.20021-1.00792-.73811 1.27774 0 .35045-1.20021M-475.82162 579.48392l.89007 2.71365 2.8315 0-2.28567 1.6685.89318 2.75397-2.32598-1.66851-2.28877 1.66851.85286-2.75397-2.28567-1.6685 2.8315 0 .89318-2.71365M-510.98276 608.75256l.96761 2.86871 3.02378 0-2.48105 1.78326.96761 2.86871-2.48105-1.78325-2.40352 1.78325.93039-2.86871-2.44383-1.78326 3.02378 0 .89318-2.86871M-495.3599 620.84768l.96761 3.061 3.25638 0-2.5989 1.898 1.00793 3.061-2.63612-1.89801-2.63611 1.89801 1.04514-3.061-2.67643-1.898 3.25637 0 1.00793-3.061M-524.43471 621.23534l.73812 2.44384 2.5989 0-2.09339 1.47312.77533 2.48105-2.01586-1.55065-2.09338 1.55065.77533-2.48105-2.05617-1.47312 2.52136 0 .85286-2.44384M-517.99948 632.16747l.50551 1.66541 1.70572 0-1.39559.96761.54273 1.58787-1.35527-.96761-1.39559.96761.54273-1.58787-1.35528-.96761 1.66541 0 .54273-1.66541M-621.15691 562.23286l1.24053 3.76035 3.9154 0-3.17884 2.28876 1.20331 3.76035-3.17885-2.28877-3.17884 2.28877 1.24052-3.76035-3.17884-2.28876 3.9154 0 1.20331-3.76035M-563.04605 592.39313l.96761 3.061 3.25637 0-2.63611 1.898 1.04514 3.10132-2.63612-1.89801-2.67643 1.89801 1.04824-3.10132-2.63611-1.898 3.25638 0 1.00792-3.061M-609.10055 618.59923l1.2002 3.79911 3.95418 0-3.17885 2.32598 1.20021 3.76034-3.17884-2.3632-3.21762 2.3632 1.20021-3.76034-3.17885-2.32598 3.95418 0 1.24052-3.79911M-596.07504 613.01686l.62026 1.89801 1.93832 0-1.58787 1.16299.62026 1.86079-1.58787-1.16299-1.58787 1.16299.62026-1.86079-1.58787-1.16299 1.93832 0 .62026-1.89801M-580.91737 632.74897l1.00793 3.21761 3.37267 0-2.71365 1.97864 1.00793 3.17885-2.67643-1.97864-2.79118 1.97864 1.08546-3.17885-2.75397-1.97864 3.37268 0 1.08546-3.21761M-565.13944 657.44317l1.20021 3.76035 3.95417 0-3.17884 2.28877 1.20331 3.72157-3.17885-2.28877-3.17885 2.28877 1.20331-3.72157-3.17884-2.28877 3.95417 0 1.20331-3.76035M-585.33674 646.16215l1.08546 3.17884 3.33391 0-2.71365 1.97864 1.04824 3.17885-2.75396-1.97554-2.67644 1.97554 1.00793-3.17885-2.71365-1.97864 3.37268 0 1.00793-3.17884M-625.77011 632.24501l.81564 2.52136 2.5989 0-2.09338 1.51034.81564 2.48105-2.1337-1.51344-2.09339 1.51344.77533-2.48105-2.1337-1.51034 2.63611 0 .81565-2.52136"/></g></g></svg>