<svg xmlns="http://www.w3.org/2000/svg" width="512" height="512"><defs><clipPath id="a" clipPathUnits="userSpaceOnUse"><rect width="480" height="480" x="16" y="556.362" fill="#f1c40f" ry="48"/></clipPath></defs><g clip-path="url(#a)" transform="translate(0 -540.362)"><rect width="480" height="480" x="16" y="556.362" fill="#e74c3c"/><g fill="#fcd116" transform="matrix(.87393 0 0 .87393 567.246 -73.389)"><path fill="#f1c40f" d="M-496.02962 802.3139l13.77484 42.36904 44.58867 0-36.06917 26.24399 13.74219 42.43432-36.03653-26.24399-36.10181 26.24399 13.77483-42.43432-36.06917-26.24399 44.58868 0 13.80747-42.36904M-379.82487 780.15013l-.91397 14.65616 13.61163 5.41854-14.19918 3.62323-.97925 14.65617-7.83403-12.40388-14.19918 3.62324 9.3682-11.29406-7.83403-12.40388 13.61162 5.45118 9.36819-11.3267M-329.71973 827.67657l-6.69156 13.05671 10.34744 10.41273-14.46031-2.35021-6.72421 13.08936-2.25358-14.5256-14.49296-2.31887 13.05672-6.62628-2.21964-14.49295 10.3148 10.38008 13.122-6.62628M-344.76759 887.1499l4.47192 13.97068 14.72145.0261-11.91425 8.58479 4.53721 13.97069-11.84897-8.61743-11.91425 8.61743 4.56985-13.97069-11.84897-8.61743 14.65616.0261 4.56985-14.00333M-379.89015 931.93442l-.97925 14.65617 13.64426 5.45117-14.23182 3.5906-.9453 14.65616-7.83403-12.40388-14.23182 3.62324 9.36819-11.26141-7.83402-12.43652 13.64426 5.45117 9.40084-11.3267"/></g></g></svg>