<svg xmlns="http://www.w3.org/2000/svg" width="512" height="512"><defs><clipPath id="a" clipPathUnits="userSpaceOnUse"><rect width="480" height="480" x="16" y="556.362" fill="#f1c40f" ry="48"/></clipPath></defs><g clip-path="url(#a)" transform="translate(0 -540.362)"><g><rect width="480" height="240" x="16" y="-1036.362" fill="#2980b9" transform="scale(1 -1)"/><rect width="480" height="240" x="16" y="-796.362" fill="#e74c3c" transform="scale(1 -1)"/></g><rect width="480" height="140" x="16" y="726.362" fill="#fff"/><path fill="#fff" d="m 16,1036.3622 2.71872,0 68.125,-68.35191 169.15625,-169.71977 0,-1.12875 L 16,556.36224 16,1036.3622 z"/><path fill="#27ae60" d="m 16,1006.3622 2.37888,0 59.60938,-59.80795 148.01173,-148.50481 0,-0.98765 L 16,586.36218 16,1006.3622 z"/><rect width="480" height="100" x="16" y="746.362" fill="#27ae60"/><g transform="matrix(.5 0 0 .5 8 398.181)"><path fill="#f1c40f" d="m 16,1036.3622 2.71872,0 68.125,-68.35191 169.15625,-169.71977 0,-1.12875 L 16,556.36224 16,1036.3622 z"/><path fill="#222" d="m 16,971.3622 1.9824,0 49.674477,-49.83995 123.343093,-123.75399 0,-0.82305 L 16,621.36223 16,971.3622 z"/></g></g></svg>