<svg xmlns="http://www.w3.org/2000/svg" width="512" height="512"><defs><clipPath id="b" clipPathUnits="userSpaceOnUse"><rect width="480" height="480" x="20.014" y="549.276" fill="#2980b9"/></clipPath><clipPath id="a" clipPathUnits="userSpaceOnUse"><rect width="480" height="480" x="20.014" y="549.276" fill="#f1c40f" ry="48"/></clipPath></defs><g clip-path="url(#a)" transform="translate(-4.014 -533.276)"><g clip-path="url(#b)"><rect width="480" height="480" x="20.014" y="549.276" fill="#2b4896"/><path fill="#fff" d="m 232.19609,761.96312 -256.656242,284.68748 50.25,0 0,15.9062 241.031242,-270.43743 z"/><path fill="#e32d3c" d="m -8.75279,1084.1356 248.17417,-276.38741 -18.92417,1.85616 0,-0.875 -240.8125,264.90625 z"/><path fill="#fff" d="m 498.79506,514.95268 -256.65625,284.6875 50.25,0 0,15.90625 242.03125,-268.4375 -35.625,-32.15625 z"/><path fill="#e32d3c" d="m 509.26444,518.74497 -249.5,274.53125 20.25,0 0,0.875 240.8125,-264.90625 -11.5625,-10.5 z"/><g transform="scale(1 -1) rotate(-2.113 -35933.706 7397.48)"><path fill="#fff" d="m 498.79506,514.95268 -256.65625,284.6875 50.25,0 0,15.90625 242.03125,-268.4375 -35.625,-32.15625 z"/><path fill="#e32d3c" d="m 509.26444,518.74497 -249.5,274.53125 20.25,0 0,0.875 240.8125,-264.90625 -11.5625,-10.5 z"/></g><rect width="80" height="480" x="220.014" y="549.276" fill="#fff"/><g transform="matrix(-1 0 0 1 797.31 256.409)"><path fill="#fff" d="m 498.79506,514.95268 -256.65625,284.6875 50.25,0 0,15.90625 242.03125,-268.4375 -35.625,-32.15625 z"/><path fill="#e32d3c" d="m 509.26444,518.74497 -249.5,274.53125 20.25,0 0,0.875 240.8125,-264.90625 -11.5625,-10.5 z"/></g><rect width="80" height="480" x="749.276" y="-500.014" fill="#fff" transform="rotate(90)"/><rect width="48" height="480" x="236.014" y="549.276" fill="#e32d3c"/><rect width="48" height="480" x="765.276" y="-500.014" fill="#e32d3c" transform="rotate(90)"/></g></g></svg>