<svg xmlns="http://www.w3.org/2000/svg" xmlns:xlink="http://www.w3.org/1999/xlink" width="512" height="512"><defs><g id="b"><use width="1235" height="650" transform="rotate(-144)" xlink:href="#a"/><use width="1235" height="650" transform="rotate(-72)" xlink:href="#a"/><use width="1235" height="650" xlink:href="#a"/><use width="1235" height="650" transform="rotate(72)" xlink:href="#a"/><use width="1235" height="650" transform="rotate(144)" xlink:href="#a"/></g><g id="c"><use width="1235" height="650" x="-.252" xlink:href="#b"/><use width="1235" height="650" x="-.126" xlink:href="#b"/><use width="1235" height="650" xlink:href="#b"/><use width="1235" height="650" x=".126" xlink:href="#b"/><use width="1235" height="650" x=".252" xlink:href="#b"/></g><g id="d"><use width="1235" height="650" x="-.063" xlink:href="#c"/><use width="1235" height="650" x=".315" xlink:href="#b"/></g><g id="e"><use width="1235" height="650" xlink:href="#d"/><use width="1235" height="650" y=".054" xlink:href="#c"/><use width="1235" height="650" y=".108" xlink:href="#d"/><use width="1235" height="650" y=".162" xlink:href="#c"/></g><g id="g"><use width="1235" height="650" y="-.216" xlink:href="#e"/><use width="1235" height="650" xlink:href="#e"/><use width="1235" height="650" y=".216" xlink:href="#d"/></g><clipPath id="f" clipPathUnits="userSpaceOnUse"><rect width="480" height="480" x="-868.503" y="-178.034" fill="#f1c40f" ry="48"/></clipPath><polygon id="a" fill="#fff" points="0 -.5 .162 0 -.162 0" transform="scale(.0616)"/></defs><g clip-path="url(#f)" transform="translate(884.504 194.034)"><g transform="translate(-637.999 365.34) scale(.99792)"><g transform="translate(-187.13 -122.259)"><path fill="#b22234" d="m -43.8542,-385.24771 481,0 0,-37 -481,0 0,37 z"/><path fill="#fff" d="m -43.8542,-348.24771 481,0 0,-37 -481,0 0,37 z"/><g transform="translate(0 74)"><path fill="#b22234" d="m -43.8542,-385.24771 481,0 0,-37 -481,0 0,37 z"/><path fill="#fff" d="m -43.8542,-348.24771 481,0 0,-37 -481,0 0,37 z"/></g><g transform="translate(0 148)"><path fill="#b22234" d="m -43.8542,-385.24771 481,0 0,-37 -481,0 0,37 z"/><path fill="#fff" d="m -43.8542,-348.24771 481,0 0,-37 -481,0 0,37 z"/><g transform="translate(0 74)"><path fill="#b22234" d="m -43.8542,-385.24771 481,0 0,-37 -481,0 0,37 z"/><path fill="#fff" d="m -43.8542,-348.24771 481,0 0,-37 -481,0 0,37 z"/></g></g></g><g transform="translate(-187.13 173.741)"><path fill="#b22234" d="m -43.8542,-385.24771 481,0 0,-37 -481,0 0,37 z"/><path fill="#fff" d="m -43.8542,-348.24771 481,0 0,-37 -481,0 0,37 z"/><g transform="translate(0 74)"><path fill="#b22234" d="m -43.8542,-385.24771 481,0 0,-37 -481,0 0,37 z"/><path fill="#fff" d="m -43.8542,-348.24771 481,0 0,-37 -481,0 0,37 z"/></g></g><g transform="translate(-187.13 321.741)"><path fill="#b22234" d="m -43.8542,-385.24771 481,0 0,-37 -481,0 0,37 z"/></g></g><rect width="259" height="259" x="-868.503" y="-178.034" fill="#3c3b6e"/><use width="1235" height="650" transform="matrix(342.24685 0 0 460.06792 -738.391 -48.597)" xlink:href="#g"/></g></svg>