<svg width="2411" height="1041" xmlns="http://www.w3.org/2000/svg" xmlns:xlink="http://www.w3.org/1999/xlink" xml:space="preserve" overflow="hidden"><defs><filter id="fx0" x="-10%" y="-10%" width="120%" height="120%" filterUnits="userSpaceOnUse" primitiveUnits="userSpaceOnUse"><feComponentTransfer color-interpolation-filters="sRGB"><feFuncR type="discrete" tableValues="1.000000 1.000000"/><feFuncG type="discrete" tableValues="1.000000 1.000000"/><feFuncB type="discrete" tableValues="1.000000 1.000000"/><feFuncA type="linear" slope="0.400000" intercept="0.000000"/></feComponentTransfer><feGaussianBlur stdDeviation="7.638889 7.638889"/></filter><clipPath id="clip1"><rect x="902" y="36" width="2411" height="1041"/></clipPath><clipPath id="clip2"><rect x="-22.9167" y="-22.9167" width="2454.83" height="1086.83"/></clipPath><clipPath id="clip3"><rect x="0" y="0" width="2409" height="1041"/></clipPath></defs><g clip-path="url(#clip1)" transform="translate(-902 -36)"><g clip-path="url(#clip2)" filter="url(#fx0)" transform="translate(904 36)"><g clip-path="url(#clip3)"><path d="M2217.89 26.8118C2308.86 26.8118 2382.6 100.554 2382.6 191.519L2382.6 850.327C2382.6 941.293 2308.86 1015.03 2217.89 1015.03L191.107 1015.03C100.142 1015.03 26.3998 941.293 26.3998 850.327L26.3998 191.519C26.3998 100.554 100.142 26.8118 191.107 26.8118Z" stroke="#FFFFFF" stroke-width="5" stroke-linecap="butt" stroke-linejoin="miter" stroke-miterlimit="8" stroke-opacity="1" fill="#12F2F9" fill-rule="evenodd" fill-opacity="0.329412"/></g></g><path d="M3102.02 72.5002C3191.2 72.5002 3263.5 144.796 3263.5 233.978L3263.5 879.868C3263.5 969.05 3191.2 1041.35 3102.02 1041.35L1114.98 1041.35C1025.8 1041.35 953.5 969.05 953.5 879.868L953.5 233.978C953.5 144.796 1025.8 72.5002 1114.98 72.5002Z" stroke="#FFFFFF" stroke-width="4.58333" stroke-linecap="butt" stroke-linejoin="miter" stroke-miterlimit="8" stroke-opacity="1" fill="#12F2F9" fill-rule="evenodd" fill-opacity="0.329412"/></g></svg>