<svg id="conquer" enable-background="new 0 0 300 300" height="512" viewBox="0 0 300 300" width="512" xmlns="http://www.w3.org/2000/svg"><g><path d="m69.876 151.128c0-6.617-5.383-12-12-12s-12 5.383-12 12 5.383 12 12 12 12-5.383 12-12zm-12 4c-2.205 0-4-1.795-4-4s1.795-4 4-4 4 1.795 4 4-1.795 4-4 4z"/><path d="m242.273 161.497c2.362 0 4.276-1.915 4.276-4.276s-1.915-4.276-4.276-4.276-4.277 1.915-4.277 4.276 1.915 4.276 4.277 4.276z"/><path d="m42.273 216.944c-2.362 0-4.277 1.915-4.277 4.276s1.915 4.276 4.277 4.276 4.276-1.915 4.276-4.276-1.914-4.276-4.276-4.276z"/><path d="m205.251 146.175c.781.781 1.805 1.172 2.828 1.172s2.047-.391 2.828-1.172l3.172-3.172 3.172 3.172c.781.781 1.805 1.172 2.828 1.172s2.047-.391 2.828-1.172c1.562-1.562 1.562-4.094 0-5.656l-3.172-3.172 3.172-3.172c1.562-1.562 1.562-4.094 0-5.656s-4.094-1.562-5.656 0l-3.172 3.172-3.172-3.172c-1.562-1.562-4.094-1.562-5.656 0s-1.562 4.094 0 5.656l3.172 3.172-3.172 3.172c-1.562 1.562-1.562 4.093 0 5.656z"/><path d="m189.876 157.047v-109.919c0-2.209-1.791-4-4-4s-4 1.791-4 4v4h-60c-2.209 0-4 1.791-4 4v4h-16c-2.209 0-4 1.791-4 4v52c0 2.209 1.791 4 4 4h20c2.209 0 4-1.791 4-4v-4h56v43.948c-6.346-1.271-12.903-1.948-19.617-1.948-55 0-99.744 44.744-99.744 99.744 0 2.209 1.791 4 4 4s4-1.791 4-4c0-6.157.62-12.171 1.782-17.992 8.875-11.03 46.836-23.115 80.313-11.957 12.979 4.326 22.605 9.896 31.098 14.811 12.979 7.51 24.152 13.977 41.686 13.977 7.922 0 17.148-1.325 28.42-4.466.114 1.864.189 3.737.189 5.628 0 2.209 1.791 4 4 4s4-1.791 4-4c0-45.419-30.524-83.816-72.127-95.826zm-72-45.919h-12v-44h12zm8-8v-44h56v44zm36.383 58c6.734 0 13.292.75 19.617 2.134v11.866c0 2.209 1.791 4 4 4s4-1.791 4-4v-9.744c15.185 4.804 28.661 13.468 39.302 24.824-18.567 7.909-34.287 11.533-61.898 1.174-28.16-10.557-53.226-8.54-71.583-1.55 16.733-17.657 40.374-28.704 66.562-28.704zm25.457 69.682c-8.824-5.105-18.824-10.893-32.574-15.477-29.121-9.707-61.645-3.619-79.255 6.629 2.153-5.999 4.911-11.709 8.206-17.059 16.191-11.543 45.569-19.081 80.379-6.029 13.104 4.912 23.861 6.908 33.461 6.908 13.417 0 24.581-3.92 36.683-9.214 9.462 12.133 15.96 26.681 18.356 42.567-33.884 9.724-47.176 2.137-65.256-8.325z"/><path d="m145.73 231.569c-3.332-1.078-7.285-1.07-11.119.012-3.836 1.084-7.203 3.148-9.48 5.814-2.627 3.074-3.594 6.752-2.65 10.088.945 3.334 3.693 5.961 7.543 7.203 1.66.537 3.475.805 5.35.805 1.891 0 3.846-.271 5.77-.816 3.836-1.084 7.203-3.148 9.48-5.814 2.627-3.074 3.594-6.752 2.65-10.088-.946-3.335-3.695-5.961-7.544-7.204zm-1.19 12.094c-1.244 1.455-3.275 2.662-5.576 3.312-2.301.654-4.662.688-6.484.098-1.24-.4-2.102-1.062-2.301-1.77-.201-.705.186-1.721 1.033-2.711 1.244-1.455 3.275-2.662 5.576-3.312 1.211-.344 2.439-.516 3.598-.516 1.041 0 2.023.139 2.887.418 1.24.4 2.102 1.062 2.301 1.77.201.705-.186 1.721-1.034 2.711z"/><path d="m98.273 232.944c-2.362 0-4.277 1.915-4.277 4.276s1.915 4.276 4.277 4.276 4.276-1.915 4.276-4.276-1.914-4.276-4.276-4.276z"/><path d="m82.273 244.944c-2.362 0-4.277 1.915-4.277 4.276s1.915 4.276 4.277 4.276 4.276-1.915 4.276-4.276-1.914-4.276-4.276-4.276z"/><path d="m163.035 67.3c-1.682-.514-3.508.145-4.486 1.609l-4.672 7.008-4.672-7.008c-.98-1.465-2.801-2.123-4.486-1.609-1.688.51-2.842 2.066-2.842 3.828v24c0 2.209 1.791 4 4 4s4-1.791 4-4v-10.789l.672 1.008c1.484 2.227 5.172 2.227 6.656 0l.672-1.008v10.789c0 2.209 1.791 4 4 4s4-1.791 4-4v-24c-.001-1.762-1.155-3.318-2.842-3.828z"/></g></svg>