<svg id="delivery" enable-background="new 0 0 300 300" height="512" viewBox="0 0 300 300" width="512" xmlns="http://www.w3.org/2000/svg"><g><path d="m63.663 154c-6.617 0-12 5.383-12 12s5.383 12 12 12 12-5.383 12-12-5.382-12-12-12zm0 16c-2.205 0-4-1.795-4-4s1.795-4 4-4 4 1.795 4 4-1.795 4-4 4z"/><path d="m56.06 199.816c-2.362 0-4.277 1.915-4.277 4.276s1.915 4.276 4.277 4.276 4.276-1.915 4.276-4.276-1.914-4.276-4.276-4.276z"/><path d="m244.06 143.816c-2.362 0-4.277 1.915-4.277 4.276s1.915 4.276 4.277 4.276 4.276-1.915 4.276-4.276-1.914-4.276-4.276-4.276z"/><path d="m236.695 175.391c-1.562-1.562-4.094-1.562-5.656 0l-3.172 3.172-3.172-3.172c-1.562-1.562-4.094-1.562-5.656 0s-1.562 4.094 0 5.656l3.172 3.172-3.172 3.172c-1.562 1.562-1.562 4.094 0 5.656.781.781 1.805 1.172 2.828 1.172s2.047-.391 2.828-1.172l3.172-3.172 3.172 3.172c.781.781 1.805 1.172 2.828 1.172s2.047-.391 2.828-1.172c1.562-1.562 1.562-4.094 0-5.656l-3.172-3.172 3.172-3.172c1.562-1.563 1.562-4.094 0-5.656z"/><path d="m187.663 238h-.38l-3.283-32.842c4.474-1.745 7.664-6.074 7.664-11.158 0-6.617-5.383-12-12-12h-16l53.143-70.858c1.5-1.235 2.435-2.617 2.727-4.149.012-.048.008-.095.019-.143.046-.281.112-.558.112-.85 0-37.496-34.094-68-76-68s-76 30.504-76 68c0 .293.066.571.112.853.01.047.007.093.019.14.292 1.532 1.227 2.914 2.727 4.15l53.141 70.857h-16c-6.617 0-12 5.383-12 12 0 5.084 3.19 9.413 7.664 11.158l-3.285 32.842h-.38c-6.617 0-12 5.383-12 12s5.383 12 12 12h88c6.617 0 12-5.383 12-12s-5.382-12-12-12zm-28 0h-4v-16h4zm4-24h-12c-2.209 0-4 1.791-4 4v20h-8v-32h36.38l3.2 32h-11.58v-20c0-2.209-1.791-4-4-4zm-9.999-32h-4.289l22.156-60.928c10.464-.703 21.821-1.933 30.887-4.077zm-77.004-76.004c3.577-2.008 14.081-4.701 31.329-6.395l4.81 13.226c-19.988-1.624-32.136-4.604-36.106-6.788zm67.003-57.967c11.658 8.937 21.173 24.255 26.764 42.824-11.843-.758-22.357-.853-26.764-.853s-14.921.095-26.765.854c5.592-18.571 15.107-33.887 26.765-42.825zm66.972 58.009c-3.97 2.185-16.118 5.164-36.106 6.788l4.81-13.226c17.247 1.694 27.751 4.388 31.329 6.395zm-94.385-7.131c8-.56 17.123-.907 27.413-.907s19.414.347 27.413.907l-5.278 14.515c-6.677.362-14.043.578-22.135.578s-15.458-.216-22.135-.578zm27.413 23.093c3.434 0 10.588-.06 19.177-.444l-19.177 52.739-19.177-52.739c8.589.384 15.743.444 19.177.444zm67.268-24.391c-7.878-3.161-20.019-5.017-31.984-6.099-5.101-18.6-13.661-34.026-24.633-44.7 29.342 4.1 52.461 24.769 56.617 50.799zm-77.919-50.799c-10.972 10.674-19.531 26.099-24.633 44.7-11.965 1.082-24.106 2.938-31.984 6.099 4.157-26.03 27.275-46.699 56.617-50.799zm-48.103 70.185c9.066 2.144 20.423 3.374 30.887 4.077l22.156 60.928h-4.289zm22.754 73.005h72c2.205 0 4 1.795 4 4s-1.795 4-4 4h-72c-2.205 0-4-1.795-4-4s1.795-4 4-4zm2.421 28h5.58v8h-6.38zm-1.6 16h11.18c2.209 0 4-1.791 4-4v-16c0-2.209-1.791-4-4-4h-8.78l.4-4h20.38v32h-23.58zm79.179 20h-88c-2.205 0-4-1.795-4-4s1.795-4 4-4h88c2.205 0 4 1.795 4 4s-1.795 4-4 4z"/></g></svg>