<svg id="news" enable-background="new 0 0 300 300" height="512" viewBox="0 0 300 300" width="512" xmlns="http://www.w3.org/2000/svg"><g><path d="m210 110c-2.211 0-4 1.791-4 4s1.789 4 4 4h12c2.211 0 4-1.791 4-4v-12c0-2.209-1.789-4-4-4h-8v-4h8c2.211 0 4-1.791 4-4s-1.789-4-4-4h-12c-2.211 0-4 1.791-4 4v12c0 2.209 1.789 4 4 4h8v4z"/><path d="m180.84 117.828c1.684.516 3.512-.143 4.488-1.609l4.672-7.008 4.672 7.008c.754 1.133 2.016 1.781 3.328 1.781.387 0 .777-.055 1.16-.172 1.688-.51 2.84-2.066 2.84-3.828v-24c0-2.209-1.789-4-4-4s-4 1.791-4 4v10.789l-.672-1.008c-1.484-2.227-5.172-2.227-6.656 0l-.672 1.008v-10.789c0-2.209-1.789-4-4-4s-4 1.791-4 4v24c0 1.762 1.152 3.318 2.84 3.828z"/><path d="m100.172 48.504c2.502.005 4.533-2.02 4.538-4.521s-2.02-4.533-4.521-4.538-4.533 2.02-4.538 4.521c-.004 2.502 2.02 4.533 4.521 4.538z"/><path d="m57.516 66.484c.781.781 1.805 1.172 2.828 1.172s2.047-.391 2.828-1.172l2.828-2.828 2.828 2.828c.781.781 1.805 1.172 2.828 1.172s2.047-.391 2.828-1.172c1.562-1.562 1.562-4.094 0-5.656l-2.828-2.828 2.828-2.828c1.562-1.562 1.562-4.094 0-5.656s-4.094-1.562-5.656 0l-2.828 2.828-2.828-2.828c-1.562-1.562-4.094-1.562-5.656 0s-1.562 4.094 0 5.656l2.828 2.828-2.828 2.828c-1.563 1.563-1.563 4.094 0 5.656z"/><path d="m194 226c2.211 0 4-1.791 4-4s-1.789-4-4-4h-32c-2.211 0-4 1.791-4 4s1.789 4 4 4z"/><path d="m202 230h-48c-2.211 0-4 1.791-4 4s1.789 4 4 4h48c2.211 0 4-1.791 4-4s-1.789-4-4-4z"/><path d="m78 102c0-6.617-5.383-12-12-12s-12 5.383-12 12 5.383 12 12 12 12-5.383 12-12zm-12 4c-2.205 0-4-1.795-4-4s1.795-4 4-4 4 1.795 4 4-1.795 4-4 4z"/><path d="m178 210c19.852 0 36-16.15 36-36s-16.148-36-36-36-36 16.15-36 36 16.148 36 36 36zm-24.125-50.142c4.929-3.288 13.579-5.292 23.929-1.411 4.715 1.768 8.637 2.479 12.129 2.479 4.177 0 7.746-1.033 11.334-2.477 2.563 3.823 4.196 8.311 4.61 13.143-8.915 2.227-12.508.232-18.034-2.967-3.059-1.77-6.527-3.777-11.379-5.395-8.204-2.735-17.607-2.004-24.493.515.535-1.351 1.174-2.647 1.904-3.887zm-3.875 14.142c0-.016.002-.031.002-.048 2.036-2.612 13.506-6.605 23.931-3.132 4.082 1.359 7.039 3.072 9.902 4.729 4.402 2.547 8.641 5 15.297 5 1.859 0 3.937-.22 6.231-.655-.514 2.388-1.345 4.655-2.427 6.775-6.756 3.243-13.483 3.729-20.015 1.349-9.632-3.503-18.355-1.533-24.963 5.495-4.915-5.048-7.958-11.928-7.958-19.513zm14.386 24.446c4.303-4.152 9.588-5.168 15.802-2.909 4.28 1.557 8.695 2.161 13.127 1.875-4.406 2.891-9.664 4.588-15.315 4.588-4.941 0-9.58-1.298-13.614-3.554zm30.969-46.377c-4.127 1.239-8.272 1.312-14.742-1.114-4.912-1.843-9.564-2.578-13.834-2.59 3.439-1.512 7.23-2.365 11.221-2.365 6.555 0 12.578 2.281 17.355 6.069z"/><path d="m158 118h12c2.211 0 4-1.791 4-4s-1.789-4-4-4h-8v-4h8c2.211 0 4-1.791 4-4s-1.789-4-4-4h-8v-4h8c2.211 0 4-1.791 4-4s-1.789-4-4-4h-12c-2.211 0-4 1.791-4 4v24c0 2.209 1.789 4 4 4z"/><path d="m130 118c2.209 0 4-1.791 4-4v-10.789l8.672 13.008c.754 1.133 2.016 1.781 3.328 1.781.387 0 .777-.055 1.16-.172 1.688-.51 2.84-2.066 2.84-3.828v-24c0-2.209-1.789-4-4-4s-4 1.791-4 4v10.789l-8.672-13.008c-.98-1.467-2.803-2.125-4.486-1.609-1.688.51-2.842 2.066-2.842 3.828v24c0 2.209 1.791 4 4 4z"/><path d="m242 62h-132c-2.209 0-4 1.791-4 4v80h-28c-2.209 0-4 1.791-4 4v92c0 11.027 8.973 20 20 20h135.957c8.848 0 16.043-7.197 16.043-16.045v-179.955c0-2.209-1.789-4-4-4zm-160 180v-88h24v88c0 6.617-5.383 12-12 12s-12-5.383-12-12zm156 3.955c0 4.436-3.609 8.045-8.043 8.045h-120.059c2.538-3.353 4.102-7.48 4.102-12v-92-80h124z"/><path d="m178 54c2.211 0 4-1.791 4-4v-8c0-2.209-1.789-4-4-4s-4 1.791-4 4v8c0 2.209 1.789 4 4 4z"/><path d="m190 58c1.023 0 2.047-.391 2.828-1.172l4-4c1.562-1.562 1.562-4.094 0-5.656s-4.094-1.562-5.656 0l-4 4c-1.562 1.562-1.562 4.094 0 5.656.781.781 1.805 1.172 2.828 1.172z"/><path d="m163.172 56.828c.781.781 1.805 1.172 2.828 1.172s2.047-.391 2.828-1.172c1.562-1.562 1.562-4.094 0-5.656l-4-4c-1.562-1.562-4.094-1.562-5.656 0s-1.562 4.094 0 5.656z"/></g></svg>