<svg id="pin" enable-background="new 0 0 300 300" height="512" viewBox="0 0 300 300" width="512" xmlns="http://www.w3.org/2000/svg"><g><path d="m68.838 153.128c0-6.617-5.383-12-12-12s-12 5.383-12 12 5.383 12 12 12 12-5.383 12-12zm-12 4c-2.207 0-4-1.795-4-4s1.793-4 4-4 4 1.795 4 4-1.793 4-4 4z"/><path d="m241.235 163.497c2.362 0 4.276-1.915 4.276-4.276s-1.915-4.276-4.276-4.276-4.277 1.915-4.277 4.276 1.916 4.276 4.277 4.276z"/><path d="m93.235 99.497c2.362 0 4.276-1.915 4.276-4.276s-1.915-4.276-4.276-4.276-4.277 1.915-4.277 4.276 1.916 4.276 4.277 4.276z"/><path d="m41.235 218.944c-2.362 0-4.277 1.915-4.277 4.276s1.915 4.276 4.277 4.276 4.276-1.915 4.276-4.276-1.914-4.276-4.276-4.276z"/><path d="m258.698 87.347 3.172-3.172c1.562-1.562 1.562-4.094 0-5.656s-4.094-1.562-5.656 0l-3.172 3.172-3.172-3.172c-1.562-1.562-4.094-1.562-5.656 0s-1.562 4.094 0 5.656l3.172 3.172-3.172 3.172c-1.562 1.562-1.562 4.094 0 5.656.781.781 1.805 1.172 2.828 1.172s2.047-.391 2.828-1.172l3.172-3.172 3.172 3.172c.781.781 1.805 1.172 2.828 1.172s2.047-.391 2.828-1.172c1.562-1.562 1.562-4.094 0-5.656z"/><path d="m188.337 158.938c14.046-16.279 28.501-41.292 28.501-65.81 0-28.674-23.328-52-52-52s-52 23.326-52 52c0 23.793 13.614 48.036 27.256 64.327-45.26 9.807-78.619 50.482-78.619 97.417 0 2.209 1.789 4 4 4s4-1.791 4-4c0-6.177.681-12.221 1.878-18.099 9.04-11.002 46.859-22.97 80.219-11.85 12.98 4.326 22.605 9.896 31.098 14.811 12.977 7.51 24.152 13.977 41.688 13.977 7.907 0 17.117-1.319 28.362-4.45.115 1.864.247 3.726.247 5.612 0 2.209 1.789 4 4 4s4-1.791 4-4c0-44.617-30.201-83.937-72.63-95.935zm-23.499-109.81c24.262 0 44 19.738 44 44 0 37.395-37.52 74.846-43.844 76.01-6.637-1.164-44.156-38.615-44.156-76.01 0-24.262 19.739-44 44-44zm-18.487 115.262c7.75 7.928 14.806 12.738 18.487 12.738 3.493 0 10.024-4.328 17.305-11.543 18.021 4.211 33.84 13.706 45.93 26.651-18.537 7.889-34.252 11.493-61.828 1.146-28.02-10.503-52.968-8.559-71.295-1.657 13.41-14.111 31.223-24.04 51.401-27.335zm40.327 68.42c-8.824-5.105-18.824-10.893-32.574-15.477-29.05-9.679-61.479-3.646-79.12 6.552 2.188-6.024 4.985-11.768 8.333-17.161 16.244-11.442 45.499-18.836 80.115-5.851 13.105 4.912 23.863 6.908 33.461 6.908 13.387 0 24.526-3.9 36.594-9.173 9.513 12.224 15.963 26.819 18.37 42.549-33.836 9.697-47.11 2.109-65.179-8.347z"/><path d="m144.694 233.569c-3.34-1.078-7.289-1.07-11.117.012-3.84 1.084-7.207 3.148-9.484 5.814-2.629 3.074-3.594 6.752-2.648 10.088.941 3.334 3.691 5.961 7.539 7.203 1.664.537 3.477.805 5.352.805 1.891 0 3.844-.271 5.766-.816 3.84-1.084 7.207-3.148 9.484-5.814 2.629-3.074 3.594-6.752 2.648-10.088-.942-3.335-3.692-5.961-7.54-7.204zm-1.192 12.094c-1.246 1.455-3.277 2.662-5.578 3.312-2.297.648-4.66.689-6.48.098-1.242-.4-2.102-1.062-2.305-1.77-.199-.705.188-1.719 1.035-2.711 1.246-1.455 3.277-2.662 5.578-3.312 1.211-.344 2.438-.516 3.598-.516 1.039 0 2.023.139 2.883.418 1.242.4 2.102 1.062 2.305 1.77.199.705-.188 1.719-1.036 2.711z"/><path d="m97.235 234.944c-2.362 0-4.277 1.915-4.277 4.276s1.915 4.276 4.277 4.276 4.276-1.915 4.276-4.276-1.914-4.276-4.276-4.276z"/><path d="m81.235 246.944c-2.362 0-4.277 1.915-4.277 4.276s1.915 4.276 4.277 4.276 4.276-1.915 4.276-4.276-1.914-4.276-4.276-4.276z"/><path d="m184.838 93.128c0-11.027-8.973-20-20-20s-20 8.973-20 20 8.973 20 20 20 20-8.973 20-20zm-32 0c0-6.617 5.383-12 12-12s12 5.383 12 12-5.383 12-12 12-12-5.383-12-12z"/><path d="m196.838 93.128c0-17.645-14.355-32-32-32s-32 14.355-32 32 14.355 32 32 32 32-14.356 32-32zm-56 0c0-13.234 10.766-24 24-24s24 10.766 24 24-10.766 24-24 24-24-10.766-24-24z"/></g></svg>