<svg id="robot" enable-background="new 0 0 300 300" height="512" viewBox="0 0 300 300" width="512" xmlns="http://www.w3.org/2000/svg"><g><path d="m239.94 157.185c-6.617 0-12 5.383-12 12s5.383 12 12 12 12-5.383 12-12-5.383-12-12-12zm0 16c-2.207 0-4-1.795-4-4s1.793-4 4-4 4 1.795 4 4-1.793 4-4 4z"/><path d="m192.337 123.001c-2.362 0-4.277 1.915-4.277 4.276s1.915 4.276 4.277 4.276 4.276-1.915 4.276-4.276-1.914-4.276-4.276-4.276z"/><path d="m52.337 195.001c-2.362 0-4.277 1.915-4.277 4.276s1.915 4.276 4.277 4.276 4.276-1.915 4.276-4.276-1.914-4.276-4.276-4.276z"/><path d="m84.337 67.554c2.362 0 4.276-1.915 4.276-4.276s-1.915-4.276-4.276-4.276-4.277 1.915-4.277 4.276 1.915 4.276 4.277 4.276z"/><path d="m66.424 124.7c-1.562-1.562-4.094-1.562-5.656 0l-2.828 2.828-2.828-2.828c-1.562-1.562-4.094-1.562-5.656 0s-1.562 4.094 0 5.656l2.828 2.828-2.828 2.828c-1.562 1.562-1.562 4.094 0 5.656.781.781 1.805 1.172 2.828 1.172s2.047-.391 2.828-1.172l2.828-2.828 2.828 2.828c.781.781 1.805 1.172 2.828 1.172s2.047-.391 2.828-1.172c1.562-1.562 1.562-4.094 0-5.656l-2.828-2.828 2.828-2.828c1.563-1.562 1.563-4.093 0-5.656z"/><path d="m130.129 226.63c-2.501-.005-4.533 2.02-4.538 4.521s2.02 4.533 4.521 4.538c2.502.005 4.533-2.02 4.538-4.521.005-2.502-2.02-4.534-4.521-4.538z"/><path d="m122.129 210.63c-2.501-.005-4.533 2.02-4.538 4.521s2.02 4.533 4.521 4.538c2.502.005 4.533-2.02 4.538-4.521.005-2.502-2.02-4.534-4.521-4.538z"/><path d="m152.424 148.7c-2.266-2.268-5.281-3.516-8.484-3.516h-4v-20h16c1.836 0 3.434-1.25 3.879-3.029l4-16c.301-1.195.031-2.461-.727-3.432s-1.922-1.539-3.152-1.539h-16v-28h100c2.211 0 4-1.791 4-4s-1.789-4-4-4h-96.404c.264-1.293.404-2.63.404-4s-.141-2.707-.404-4h96.404c2.211 0 4-1.791 4-4s-1.789-4-4-4h-100.102c-3.655-4.828-9.39-8-15.898-8-11.027 0-20 8.973-20 20 0 4.462 1.52 8.545 4 11.876v28.124h-16c-1.23 0-2.395.568-3.152 1.539s-1.027 2.236-.727 3.432l4 16c.445 1.779 2.043 3.029 3.879 3.029h16v20h-4c-3.203 0-6.219 1.248-8.484 3.516l-32 32c-4.035 4.033-4.664 10.4-1.5 15.141l16 24c1.777 2.666 4.484 4.482 7.629 5.111.793.158 1.59.236 2.379.236.162 0 .321-.029.483-.036-.095.992-.136 1.986-.053 2.983.461 5.475 3.492 10.664 9.262 15.828-.059.256-.137.545-.199.773-.59 2.162-1.801 6.631 3.094 10.482 2.559 2.357 5.438 3.596 8.262 3.596 1.809 0 3.594-.508 5.254-1.553 5.617-4.188 14.594-5.85 22.566-7.078.164-.025.332-.061.492-.107 11.129-3.188 9.406-12.682 8.145-19.615-.51-2.812-1.001-5.546-.981-8.107.329.273.632.571.993.812 1.977 1.32 4.277 2.018 6.652 2.018 4.031 0 7.766-1.998 9.992-5.344l16-23.998c3.164-4.742 2.535-11.109-1.5-15.143zm-24.484-99.515c6.617 0 12 5.383 12 12s-5.383 12-12 12-12-5.383-12-12 5.383-12 12-12zm-8 30.304c2.454 1.077 5.153 1.695 8 1.695s5.546-.618 8-1.695v21.695h-16zm-18.875 29.696h53.75l-2 8h-49.75zm52.362 92.132c-2.621-3.46-6.651-5.438-10.644-5.105l-7.512.391c-.172.008-.34.027-.508.059-1.695.324-3.398-.518-5.988-1.902-3.363-1.793-7.531-4.031-12.586-2.121l-2.426.803c-6.268 2.066-10.164 3.721-12.221 6.514l-6.158-9.241 21.523-21.529h22.062l21.523 21.529zm-8.03 30.575c1.438 7.912 1.16 9.396-2.246 10.428-8.863 1.371-18.844 3.295-25.598 8.346-1.266.801-3.426-1.178-3.664-1.404-.102-.098-.211-.189-.324-.273-.559-.428-.691-.676-.695-.676-.031-.232.172-.98.305-1.477.422-1.551 1.059-3.893-.035-6.439-.246-.574-.625-1.084-1.105-1.488-4.789-4.021-7.367-7.869-7.668-11.439-.242-2.891.961-5.846 3.676-9.033.801-.941 1.121-2.201.867-3.412-.645-3.096-1.852-8.859-.957-10.355.66-1.104 4.039-2.219 8.316-3.629l2.605-.865c1.637-.629 3.051-.004 6.133 1.643 2.891 1.547 6.473 3.449 10.91 2.764l7.375-.385c1.73-.105 3.199 1.053 3.973 2.209.723 1.08 1.242 2.721.645 4.205-5.111 6.975-3.669 14.895-2.513 21.28zm33.871-40.489-16 24.002c-1.176 1.768-3.758 2.297-5.547 1.107-.891-.594-1.496-1.496-1.703-2.543-.211-1.049 0-2.113.594-3.004l12.359-18.543c1.059-1.586.848-3.699-.5-5.047l-25.016-25.02c-.75-.75-1.766-1.172-2.828-1.172h-25.375c-1.063 0-2.078.422-2.828 1.172l-25.016 25.02c-1.348 1.348-1.559 3.461-.5 5.047l12.359 18.545c.594.889.805 1.953.594 3.002-.207 1.047-.812 1.949-1.703 2.543-.887.596-1.973.809-3.004.596-1.047-.211-1.949-.814-2.543-1.705l-16-24.002c-1.055-1.578-.844-3.701.5-5.045l32-32c.746-.744 1.777-1.172 2.828-1.172h8c2.211 0 4-1.791 4-4v-24h8v24c0 2.209 1.789 4 4 4h8c1.051 0 2.082.428 2.828 1.172l32 32c1.345 1.344 1.556 3.467.501 5.047z"/></g></svg>