<svg id="study" enable-background="new 0 0 300 300" height="512" viewBox="0 0 300 300" width="512" xmlns="http://www.w3.org/2000/svg"><g><path d="m235.152 85.985c7.719 0 14-6.281 14-14s-6.281-14-14-14-14 6.281-14 14 6.281 14 14 14zm0-20c3.309 0 6 2.691 6 6s-2.691 6-6 6-6-2.691-6-6 2.692-6 6-6z"/><path d="m258.808 193.985 2.828-2.828c1.562-1.562 1.562-4.094 0-5.656s-4.094-1.562-5.656 0l-2.828 2.828-2.828-2.828c-1.562-1.562-4.094-1.562-5.656 0s-1.562 4.094 0 5.656l2.828 2.828-2.828 2.828c-1.562 1.562-1.562 4.094 0 5.656.781.781 1.805 1.172 2.828 1.172s2.047-.391 2.828-1.172l2.828-2.828 2.828 2.828c.781.781 1.805 1.172 2.828 1.172s2.047-.391 2.828-1.172c1.562-1.562 1.562-4.094 0-5.656z"/><path d="m190.63 173.123c22.18-32.67 18.85-77.604-10.081-106.534-32.75-32.754-86.043-32.754-118.793 0-32.752 32.752-32.752 86.041 0 118.793 16.375 16.377 37.887 24.564 59.396 24.564 16.491 0 32.961-4.857 47.138-14.483l57.895 57.895c3.08 3.08 7.125 4.619 11.17 4.619s8.09-1.539 11.17-4.619c6.16-6.158 6.16-16.182 0-22.34zm-123.218 6.602c-29.633-29.633-29.633-77.848 0-107.48 14.816-14.816 34.279-22.225 53.74-22.225s38.924 7.408 53.74 22.225c29.633 29.633 29.633 77.848 0 107.48s-77.847 29.633-107.48 0zm175.457 67.977c-3.039 3.039-7.988 3.039-11.027 0l-57.086-57.086c1.986-1.65 3.932-3.374 5.793-5.235s3.585-3.807 5.234-5.793l57.086 57.086c3.039 3.041 3.039 7.987 0 11.028z"/><circle cx="253.152" cy="137.985" r="4"/><circle cx="145.152" cy="237.985" r="4"/><path d="m169.234 77.903c-12.842-12.842-29.92-19.918-48.082-19.918-18.164 0-35.24 7.074-48.082 19.918-12.844 12.842-19.918 29.918-19.918 48.082s7.074 35.24 19.918 48.082c12.842 12.844 29.918 19.918 48.082 19.918s35.24-7.074 48.082-19.918c12.844-12.842 19.918-29.918 19.918-48.082s-7.074-35.24-19.918-48.082zm-5.656 90.508c-11.332 11.332-26.398 17.574-42.426 17.574s-31.094-6.242-42.426-17.574-17.574-26.398-17.574-42.426 6.242-31.094 17.574-42.426 26.398-17.574 42.426-17.574 31.094 6.242 42.426 17.574 17.574 26.398 17.574 42.426-6.242 31.094-17.574 42.426z"/><path d="m96.834 84.586c1.904-1.119 2.541-3.57 1.42-5.475-1.115-1.902-3.57-2.537-5.475-1.42-4.074 2.396-7.852 5.32-11.225 8.695-4.748 4.748-8.561 10.223-11.33 16.277-.92 2.008-.037 4.381 1.973 5.301.539.248 1.105.363 1.662.363 1.516 0 2.967-.865 3.639-2.336 2.373-5.184 5.641-9.877 9.713-13.949 2.894-2.893 6.133-5.403 9.623-7.456z"/><path d="m121.152 89.985c-19.85 0-36 16.15-36 36s16.15 36 36 36 36-16.15 36-36-16.15-36-36-36zm-24.125 21.858c4.928-3.286 13.572-5.298 23.93-1.41 4.717 1.768 8.635 2.479 12.127 2.479 4.179 0 7.75-1.033 11.336-2.477 2.563 3.823 4.196 8.311 4.61 13.144-8.912 2.224-12.509.231-18.036-2.968-3.059-1.77-6.525-3.777-11.379-5.395-8.202-2.732-17.606-2.002-24.492.517.535-1.354 1.174-2.65 1.904-3.89zm41.482-7.789c-4.126 1.239-8.268 1.312-14.743-1.115-4.915-1.843-9.565-2.578-13.833-2.592 3.438-1.511 7.229-2.364 11.219-2.364 6.556.002 12.58 2.283 17.357 6.071zm-45.357 21.931c0-.016.002-.031.002-.048 2.038-2.61 13.511-6.605 23.929-3.132 4.082 1.359 7.043 3.072 9.904 4.729 4.402 2.547 8.641 5 15.295 5 1.86 0 3.939-.22 6.233-.655-.514 2.388-1.344 4.655-2.426 6.775-6.765 3.248-13.492 3.726-20.016 1.349-9.634-3.503-18.355-1.534-24.964 5.495-4.914-5.048-7.957-11.928-7.957-19.513zm14.388 24.447c4.303-4.15 9.587-5.163 15.8-2.91 4.283 1.556 8.697 2.159 13.13 1.873-4.406 2.893-9.664 4.59-15.318 4.59-4.94 0-9.579-1.297-13.612-3.553z"/></g></svg>