<svg id="travel" enable-background="new 0 0 300 300" height="512" viewBox="0 0 300 300" width="512" xmlns="http://www.w3.org/2000/svg"><g><path d="m80.397 48.353c2.362 0 4.276-1.915 4.276-4.276s-1.915-4.276-4.276-4.276-4.277 1.915-4.277 4.276 1.915 4.276 4.277 4.276z"/><path d="m43.375 77.031c.781.781 1.805 1.172 2.828 1.172s2.047-.391 2.828-1.172l3.172-3.172 3.172 3.172c.781.781 1.805 1.172 2.828 1.172s2.047-.391 2.828-1.172c1.562-1.562 1.562-4.094 0-5.656l-3.172-3.172 3.172-3.172c1.562-1.563 1.562-4.094 0-5.656s-4.094-1.562-5.656 0l-3.172 3.172-3.172-3.172c-1.562-1.562-4.094-1.562-5.656 0s-1.562 4.094 0 5.656l3.172 3.172-3.172 3.172c-1.563 1.562-1.563 4.094 0 5.656z"/><path d="m136 85.984c-44.111 0-80 35.889-80 80s35.889 80 80 80 80-35.889 80-80-35.889-80-80-80zm51.558 29.849c-18.013 6.855-34.788 6.936-49.904.065-19.927-9.061-36.997-7.653-49.9-3.204 12.783-11.584 29.677-18.71 48.246-18.71 20.208 0 38.469 8.396 51.558 21.849zm-112.829 12.529c12.796-9.132 33.3-17.14 59.615-5.182 8.652 3.934 17.729 5.898 27.178 5.898 10.119 0 20.67-2.283 31.572-6.788 7.218 9.408 12.141 20.623 14.001 32.858-18.035 9.022-26.994 4.277-44.067-4.864-9.957-5.334-22.352-11.971-40.127-17.664-21.682-6.947-38.876-5.969-52.097 3.009 1.171-2.506 2.483-4.927 3.925-7.267zm61.271 109.622c-15.181 0-29.259-4.75-40.884-12.804 9.154-11.491 24.423-21.775 47.962-13.214 15.542 5.652 31.896 5.674 47.97.329-13.218 15.687-32.977 25.689-55.048 25.689zm63.326-37.769c-18.005 9.141-36.005 10.598-53.514 4.232-22.385-8.129-42.462-2.513-56.999 15.79-15.167-13.21-24.813-32.607-24.813-54.253 0-4.812.494-9.509 1.399-14.06 7.696-10.378 21.8-22.342 55.06-11.687 17.082 5.473 29.121 11.918 38.793 17.098 11.123 5.959 19.969 10.695 30.41 10.695 5.448-.001 11.35-1.322 18.219-4.402.026.789.119 1.56.119 2.355 0 12.384-3.145 24.045-8.674 34.232z"/><path d="m236 161.984c-2.209 0-4 1.791-4 4 0 2.568-.102 5.152-.303 7.68-.174 2.203 1.471 4.129 3.672 4.305.107.008.215.012.32.012 2.066 0 3.818-1.59 3.984-3.684.217-2.738.326-5.535.326-8.312.001-2.21-1.79-4.001-3.999-4.001z"/><path d="m71.52 93.549c.912 0 1.828-.311 2.578-.943 3.84-3.244 7.961-6.203 12.246-8.797 1.891-1.143 2.496-3.604 1.352-5.492-1.143-1.891-3.605-2.5-5.492-1.352-4.645 2.811-9.107 6.016-13.266 9.527-1.689 1.426-1.9 3.949-.477 5.637.793.937 1.922 1.42 3.059 1.42z"/><path d="m128.805 70.238c.094 0 .189-.004.285-.01 2.283-.162 4.588-.244 6.91-.244h8.533c2.209 0 4-1.791 4-4s-1.791-4-4-4h-8.533c-2.514 0-5.006.09-7.473.264-2.205.156-3.865 2.068-3.709 4.271.149 2.11 1.907 3.719 3.987 3.719z"/><path d="m160.264 69.984h15.73c2.209 0 4-1.791 4-4s-1.791-4-4-4h-15.73c-2.209 0-4 1.791-4 4s1.791 4 4 4z"/><path d="m98.307 77.334c.502 0 1.014-.096 1.508-.297 4.645-1.893 9.479-3.428 14.367-4.562 2.152-.5 3.492-2.648 2.992-4.801-.502-2.152-2.654-3.488-4.801-2.992-5.301 1.23-10.541 2.895-15.578 4.945-2.045.834-3.027 3.168-2.195 5.215.632 1.55 2.129 2.492 3.707 2.492z"/><path d="m57.316 97.974c-3.559 4.113-6.818 8.539-9.689 13.154-1.166 1.877-.592 4.344 1.283 5.51.658.408 1.389.604 2.109.604 1.336 0 2.643-.67 3.4-1.887 2.65-4.262 5.662-8.35 8.947-12.146 1.445-1.67 1.262-4.197-.408-5.643-1.667-1.445-4.196-1.26-5.642.408z"/><path d="m172.486 254.808c-4.637 1.908-9.467 3.461-14.354 4.613-2.15.506-3.482 2.66-2.975 4.811.434 1.842 2.076 3.082 3.889 3.082.305 0 .613-.033.922-.107 5.299-1.25 10.533-2.932 15.561-5 2.043-.84 3.018-3.178 2.178-5.221-.84-2.041-3.17-3.021-5.221-2.178z"/><path d="m37.912 146.012c.32.078.641.115.955.115 1.799 0 3.436-1.223 3.881-3.049 1.193-4.877 2.785-9.695 4.734-14.322.857-2.035-.098-4.381-2.133-5.238-2.037-.863-4.383.096-5.238 2.133-2.113 5.018-3.84 10.24-5.133 15.525-.525 2.146.79 4.312 2.934 4.836z"/><path d="m223.264 215.023c-1.885-1.16-4.348-.576-5.506 1.303-2.635 4.27-5.631 8.367-8.904 12.18-1.439 1.676-1.246 4.201.43 5.641.754.648 1.682.965 2.604.965 1.127 0 2.246-.473 3.037-1.395 3.545-4.127 6.789-8.564 9.643-13.188 1.159-1.881.575-4.346-1.304-5.506z"/><path d="m143.225 261.719c-2.365.176-4.77.266-7.152.266-2.707-.189-5.316-.105-7.938-.316-2.215-.221-4.133 1.461-4.309 3.664-.18 2.201 1.461 4.131 3.664 4.309 2.838.23 5.766.461 8.586.344 2.576 0 5.182-.098 7.746-.289 2.201-.164 3.855-2.084 3.689-4.287s-2.07-3.893-4.286-3.691z"/><path d="m234.154 185.621c-2.141-.523-4.309.805-4.826 2.951-1.176 4.877-2.752 9.701-4.684 14.336-.852 2.039.113 4.381 2.152 5.23.502.211 1.023.311 1.537.311 1.566 0 3.053-.926 3.693-2.463 2.096-5.023 3.805-10.252 5.078-15.539.519-2.148-.803-4.308-2.95-4.826z"/><path d="m198.158 239.148c-3.824 3.254-7.936 6.229-12.221 8.844-1.885 1.15-2.48 3.613-1.33 5.498.754 1.234 2.07 1.916 3.418 1.916.711 0 1.43-.189 2.08-.586 4.641-2.832 9.094-6.055 13.236-9.578 1.682-1.432 1.887-3.955.455-5.639-1.429-1.679-3.958-1.888-5.638-.455z"/><path d="m47.113 202.32c-1.902-4.646-3.445-9.479-4.59-14.361-.504-2.152-2.668-3.496-4.807-2.982-2.152.504-3.486 2.656-2.982 4.807 1.24 5.293 2.914 10.531 4.973 15.564.635 1.551 2.129 2.488 3.705 2.488.504 0 1.018-.098 1.512-.299 2.045-.838 3.025-3.174 2.189-5.217z"/><path d="m36.555 177.332c2.203-.16 3.859-2.076 3.701-4.279-.17-2.334-.256-4.691-.256-7.068 0-2.682.111-5.381.33-8.023.182-2.201-1.455-4.135-3.656-4.316-2.217-.203-4.135 1.455-4.316 3.656-.237 2.858-.358 5.78-.358 8.682 0 2.541.094 5.113.275 7.646.152 2.105 1.908 3.711 3.986 3.711.096.001.196-.003.294-.009z"/><path d="m53.902 215.773c-1.143-1.883-3.6-2.488-5.496-1.34-1.887 1.146-2.488 3.607-1.34 5.496 2.82 4.641 6.035 9.1 9.551 13.25.793.934 1.92 1.414 3.055 1.414.914 0 1.832-.311 2.584-.947 1.686-1.43 1.895-3.953.467-5.639-3.248-3.831-6.215-7.949-8.821-12.234z"/><path d="m85.51 247.65c-4.264-2.643-8.357-5.646-12.164-8.928-1.674-1.441-4.199-1.256-5.641.418-1.443 1.672-1.256 4.199.418 5.641 4.121 3.555 8.555 6.807 13.172 9.67.656.406 1.385.6 2.104.6 1.338 0 2.646-.672 3.404-1.893 1.164-1.879.584-4.344-1.293-5.508z"/><path d="m113.25 259.273c-4.877-1.186-9.699-2.77-14.334-4.711-2.031-.854-4.379.107-5.234 2.145-.854 2.037.107 4.381 2.145 5.234 5.023 2.104 10.25 3.822 15.533 5.105.318.078.637.113.949.113 1.803 0 3.439-1.227 3.883-3.055.521-2.147-.796-4.309-2.942-4.831z"/><path d="m192 69.984h8c2.209 0 4-1.791 4-4s-1.791-4-4-4h-8c-2.209 0-4 1.791-4 4s1.791 4 4 4z"/><path d="m107.619 170.537c-2.707-.791-5.773-1.688-9.213-3.025-5.807-2.256-12.182-1.463-17.494 2.17-4.316 2.953-6.998 7.199-6.998 11.08 0 7.709 9.906 13.521 23.043 13.521s23.043-5.812 23.043-13.521c0-6.606-6.014-8.364-12.381-10.225zm-10.662 15.746c-9.186 0-15.043-3.625-15.043-5.521 0-.648.885-2.678 3.516-4.477 1.055-.723 3.377-2.029 6.342-2.029 1.16 0 2.418.199 3.736.713 3.762 1.461 7.146 2.451 9.865 3.246 2.715.793 6.092 1.781 6.617 2.414.002 0 .01.039.01.133 0 1.896-5.857 5.521-15.043 5.521z"/><path d="m125.668 153.18c-1.363-4.812-7.24-7.215-13.379-5.486-2.648.75-4.986 2.191-6.582 4.059-1.957 2.289-2.664 5.068-1.941 7.621.723 2.557 2.779 4.555 5.646 5.48 1.174.377 2.449.566 3.764.566 1.305 0 2.648-.186 3.967-.559 6.139-1.736 9.883-6.867 8.525-11.678 0-.002 0-.002 0-.003zm-10.701 3.982c-1.629.453-2.812.227-3.34-.01.346-.496 1.283-1.32 2.838-1.76 1.555-.441 2.787-.234 3.34.012-.346.496-1.285 1.319-2.838 1.758z"/><path d="m266.92 96.334-14.92-15.931v-13.661c0-10.377-2.564-20.545-7.416-29.406l-2.885-5.271c-.697-1.271-2.027-2.068-3.477-2.08-1.428.096-2.793.762-3.51 2.023l-2.842 4.998c-5.149 9.054-7.87 19.504-7.87 30.218v13.179l-14.92 15.931c-.693.742-1.08 1.719-1.08 2.734v18.916c0 2.209 1.791 4 4 4h13.404c-.874 1.826-1.404 3.845-1.404 6 0 6.385 4.906 22 14 22s14-15.615 14-22c0-2.155-.53-4.174-1.404-6h13.404c2.209 0 4-1.791 4-4v-18.916c0-1.015-.387-1.992-1.08-2.734zm-34.92 17.65v-36h12v36zm6.127-71.754c3.846 7.436 5.873 15.885 5.873 24.512v3.242h-12v-2.76c0-8.832 2.115-17.441 6.127-24.994zm-22.127 58.418 8-8.542v21.877h-8zm28 27.336c0 4.975-4.016 13.559-5.955 14.004-2.029-.445-6.045-9.029-6.045-14.004 0-3.309 2.691-6 6-6s6 2.692 6 6zm16-14h-8v-21.877l8 8.542z"/></g></svg>