<svg width="2053" height="2071" xmlns="http://www.w3.org/2000/svg" xmlns:xlink="http://www.w3.org/1999/xlink" xml:space="preserve" overflow="hidden"><defs><filter id="fx0" x="-10%" y="-10%" width="120%" height="120%" filterUnits="userSpaceOnUse" primitiveUnits="userSpaceOnUse"><feComponentTransfer color-interpolation-filters="sRGB"><feFuncR type="discrete" tableValues="0.949020 0.949020"/><feFuncG type="discrete" tableValues="0.949020 0.949020"/><feFuncB type="discrete" tableValues="0.949020 0.949020"/><feFuncA type="linear" slope="1.000000" intercept="0.000000"/></feComponentTransfer><feGaussianBlur stdDeviation="6.111111 6.111111"/></filter><filter id="fx1" x="-10%" y="-10%" width="120%" height="120%" filterUnits="userSpaceOnUse" primitiveUnits="userSpaceOnUse"><feComponentTransfer color-interpolation-filters="sRGB"><feFuncR type="discrete" tableValues="0.949020 0.949020"/><feFuncG type="discrete" tableValues="0.949020 0.949020"/><feFuncB type="discrete" tableValues="0.949020 0.949020"/><feFuncA type="linear" slope="1.000000" intercept="0.000000"/></feComponentTransfer><feGaussianBlur stdDeviation="6.111111 6.111111"/></filter><filter id="fx2" x="-10%" y="-10%" width="120%" height="120%" filterUnits="userSpaceOnUse" primitiveUnits="userSpaceOnUse"><feComponentTransfer color-interpolation-filters="sRGB"><feFuncR type="discrete" tableValues="0.949020 0.949020"/><feFuncG type="discrete" tableValues="0.949020 0.949020"/><feFuncB type="discrete" tableValues="0.949020 0.949020"/><feFuncA type="linear" slope="1.000000" intercept="0.000000"/></feComponentTransfer><feGaussianBlur stdDeviation="6.111111 6.111111"/></filter><filter id="fx3" x="-10%" y="-10%" width="120%" height="120%" filterUnits="userSpaceOnUse" primitiveUnits="userSpaceOnUse"><feComponentTransfer color-interpolation-filters="sRGB"><feFuncR type="discrete" tableValues="0.949020 0.949020"/><feFuncG type="discrete" tableValues="0.949020 0.949020"/><feFuncB type="discrete" tableValues="0.949020 0.949020"/><feFuncA type="linear" slope="1.000000" intercept="0.000000"/></feComponentTransfer><feGaussianBlur stdDeviation="6.111111 6.111111"/></filter><filter id="fx4" x="-10%" y="-10%" width="120%" height="120%" filterUnits="userSpaceOnUse" primitiveUnits="userSpaceOnUse"><feComponentTransfer color-interpolation-filters="sRGB"><feFuncR type="discrete" tableValues="0.949020 0.949020"/><feFuncG type="discrete" tableValues="0.949020 0.949020"/><feFuncB type="discrete" tableValues="0.949020 0.949020"/><feFuncA type="linear" slope="1.000000" intercept="0.000000"/></feComponentTransfer><feGaussianBlur stdDeviation="6.111111 6.111111"/></filter><filter id="fx5" x="-10%" y="-10%" width="120%" height="120%" filterUnits="userSpaceOnUse" primitiveUnits="userSpaceOnUse"><feComponentTransfer color-interpolation-filters="sRGB"><feFuncR type="discrete" tableValues="0.949020 0.949020"/><feFuncG type="discrete" tableValues="0.949020 0.949020"/><feFuncB type="discrete" tableValues="0.949020 0.949020"/><feFuncA type="linear" slope="1.000000" intercept="0.000000"/></feComponentTransfer><feGaussianBlur stdDeviation="6.111111 6.111111"/></filter><filter id="fx6" x="-10%" y="-10%" width="120%" height="120%" filterUnits="userSpaceOnUse" primitiveUnits="userSpaceOnUse"><feComponentTransfer color-interpolation-filters="sRGB"><feFuncR type="discrete" tableValues="0.949020 0.949020"/><feFuncG type="discrete" tableValues="0.949020 0.949020"/><feFuncB type="discrete" tableValues="0.949020 0.949020"/><feFuncA type="linear" slope="1.000000" intercept="0.000000"/></feComponentTransfer><feGaussianBlur stdDeviation="6.111111 6.111111"/></filter><filter id="fx7" x="-10%" y="-10%" width="120%" height="120%" filterUnits="userSpaceOnUse" primitiveUnits="userSpaceOnUse"><feComponentTransfer color-interpolation-filters="sRGB"><feFuncR type="discrete" tableValues="0.949020 0.949020"/><feFuncG type="discrete" tableValues="0.949020 0.949020"/><feFuncB type="discrete" tableValues="0.949020 0.949020"/><feFuncA type="linear" slope="1.000000" intercept="0.000000"/></feComponentTransfer><feGaussianBlur stdDeviation="6.111111 6.111111"/></filter><filter id="fx8" x="-10%" y="-10%" width="120%" height="120%" filterUnits="userSpaceOnUse" primitiveUnits="userSpaceOnUse"><feComponentTransfer color-interpolation-filters="sRGB"><feFuncR type="discrete" tableValues="0.949020 0.949020"/><feFuncG type="discrete" tableValues="0.949020 0.949020"/><feFuncB type="discrete" tableValues="0.949020 0.949020"/><feFuncA type="linear" slope="1.000000" intercept="0.000000"/></feComponentTransfer><feGaussianBlur stdDeviation="6.111111 6.111111"/></filter><filter id="fx9" x="-10%" y="-10%" width="120%" height="120%" filterUnits="userSpaceOnUse" primitiveUnits="userSpaceOnUse"><feComponentTransfer color-interpolation-filters="sRGB"><feFuncR type="discrete" tableValues="0.949020 0.949020"/><feFuncG type="discrete" tableValues="0.949020 0.949020"/><feFuncB type="discrete" tableValues="0.949020 0.949020"/><feFuncA type="linear" slope="1.000000" intercept="0.000000"/></feComponentTransfer><feGaussianBlur stdDeviation="6.111111 6.111111"/></filter><filter id="fx10" x="-10%" y="-10%" width="120%" height="120%" filterUnits="userSpaceOnUse" primitiveUnits="userSpaceOnUse"><feComponentTransfer color-interpolation-filters="sRGB"><feFuncR type="discrete" tableValues="0.949020 0.949020"/><feFuncG type="discrete" tableValues="0.949020 0.949020"/><feFuncB type="discrete" tableValues="0.949020 0.949020"/><feFuncA type="linear" slope="1.000000" intercept="0.000000"/></feComponentTransfer><feGaussianBlur stdDeviation="6.111111 6.111111"/></filter><filter id="fx11" x="-10%" y="-10%" width="120%" height="120%" filterUnits="userSpaceOnUse" primitiveUnits="userSpaceOnUse"><feComponentTransfer color-interpolation-filters="sRGB"><feFuncR type="discrete" tableValues="0.949020 0.949020"/><feFuncG type="discrete" tableValues="0.949020 0.949020"/><feFuncB type="discrete" tableValues="0.949020 0.949020"/><feFuncA type="linear" slope="1.000000" intercept="0.000000"/></feComponentTransfer><feGaussianBlur stdDeviation="6.111111 6.111111"/></filter><filter id="fx12" x="-10%" y="-10%" width="120%" height="120%" filterUnits="userSpaceOnUse" primitiveUnits="userSpaceOnUse"><feComponentTransfer color-interpolation-filters="sRGB"><feFuncR type="discrete" tableValues="0.949020 0.949020"/><feFuncG type="discrete" tableValues="0.949020 0.949020"/><feFuncB type="discrete" tableValues="0.949020 0.949020"/><feFuncA type="linear" slope="1.000000" intercept="0.000000"/></feComponentTransfer><feGaussianBlur stdDeviation="6.111111 6.111111"/></filter><filter id="fx13" x="-10%" y="-10%" width="120%" height="120%" filterUnits="userSpaceOnUse" primitiveUnits="userSpaceOnUse"><feComponentTransfer color-interpolation-filters="sRGB"><feFuncR type="discrete" tableValues="0.949020 0.949020"/><feFuncG type="discrete" tableValues="0.949020 0.949020"/><feFuncB type="discrete" tableValues="0.949020 0.949020"/><feFuncA type="linear" slope="1.000000" intercept="0.000000"/></feComponentTransfer><feGaussianBlur stdDeviation="6.111111 6.111111"/></filter><filter id="fx14" x="-10%" y="-10%" width="120%" height="120%" filterUnits="userSpaceOnUse" primitiveUnits="userSpaceOnUse"><feComponentTransfer color-interpolation-filters="sRGB"><feFuncR type="discrete" tableValues="0.949020 0.949020"/><feFuncG type="discrete" tableValues="0.949020 0.949020"/><feFuncB type="discrete" tableValues="0.949020 0.949020"/><feFuncA type="linear" slope="1.000000" intercept="0.000000"/></feComponentTransfer><feGaussianBlur stdDeviation="6.111111 6.111111"/></filter><filter id="fx15" x="-10%" y="-10%" width="120%" height="120%" filterUnits="userSpaceOnUse" primitiveUnits="userSpaceOnUse"><feComponentTransfer color-interpolation-filters="sRGB"><feFuncR type="discrete" tableValues="0.949020 0.949020"/><feFuncG type="discrete" tableValues="0.949020 0.949020"/><feFuncB type="discrete" tableValues="0.949020 0.949020"/><feFuncA type="linear" slope="1.000000" intercept="0.000000"/></feComponentTransfer><feGaussianBlur stdDeviation="6.111111 6.111111"/></filter><filter id="fx16" x="-10%" y="-10%" width="120%" height="120%" filterUnits="userSpaceOnUse" primitiveUnits="userSpaceOnUse"><feComponentTransfer color-interpolation-filters="sRGB"><feFuncR type="discrete" tableValues="0.949020 0.949020"/><feFuncG type="discrete" tableValues="0.949020 0.949020"/><feFuncB type="discrete" tableValues="0.949020 0.949020"/><feFuncA type="linear" slope="1.000000" intercept="0.000000"/></feComponentTransfer><feGaussianBlur stdDeviation="6.111111 6.111111"/></filter><filter id="fx17" x="-10%" y="-10%" width="120%" height="120%" filterUnits="userSpaceOnUse" primitiveUnits="userSpaceOnUse"><feComponentTransfer color-interpolation-filters="sRGB"><feFuncR type="discrete" tableValues="0.949020 0.949020"/><feFuncG type="discrete" tableValues="0.949020 0.949020"/><feFuncB type="discrete" tableValues="0.949020 0.949020"/><feFuncA type="linear" slope="1.000000" intercept="0.000000"/></feComponentTransfer><feGaussianBlur stdDeviation="6.111111 6.111111"/></filter><filter id="fx18" x="-10%" y="-10%" width="120%" height="120%" filterUnits="userSpaceOnUse" primitiveUnits="userSpaceOnUse"><feComponentTransfer color-interpolation-filters="sRGB"><feFuncR type="discrete" tableValues="0.949020 0.949020"/><feFuncG type="discrete" tableValues="0.949020 0.949020"/><feFuncB type="discrete" tableValues="0.949020 0.949020"/><feFuncA type="linear" slope="1.000000" intercept="0.000000"/></feComponentTransfer><feGaussianBlur stdDeviation="6.111111 6.111111"/></filter><filter id="fx19" x="-10%" y="-10%" width="120%" height="120%" filterUnits="userSpaceOnUse" primitiveUnits="userSpaceOnUse"><feComponentTransfer color-interpolation-filters="sRGB"><feFuncR type="discrete" tableValues="0.949020 0.949020"/><feFuncG type="discrete" tableValues="0.949020 0.949020"/><feFuncB type="discrete" tableValues="0.949020 0.949020"/><feFuncA type="linear" slope="1.000000" intercept="0.000000"/></feComponentTransfer><feGaussianBlur stdDeviation="6.111111 6.111111"/></filter><filter id="fx20" x="-10%" y="-10%" width="120%" height="120%" filterUnits="userSpaceOnUse" primitiveUnits="userSpaceOnUse"><feComponentTransfer color-interpolation-filters="sRGB"><feFuncR type="discrete" tableValues="0.949020 0.949020"/><feFuncG type="discrete" tableValues="0.949020 0.949020"/><feFuncB type="discrete" tableValues="0.949020 0.949020"/><feFuncA type="linear" slope="1.000000" intercept="0.000000"/></feComponentTransfer><feGaussianBlur stdDeviation="6.111111 6.111111"/></filter><filter id="fx21" x="-10%" y="-10%" width="120%" height="120%" filterUnits="userSpaceOnUse" primitiveUnits="userSpaceOnUse"><feComponentTransfer color-interpolation-filters="sRGB"><feFuncR type="discrete" tableValues="0.949020 0.949020"/><feFuncG type="discrete" tableValues="0.949020 0.949020"/><feFuncB type="discrete" tableValues="0.949020 0.949020"/><feFuncA type="linear" slope="1.000000" intercept="0.000000"/></feComponentTransfer><feGaussianBlur stdDeviation="6.111111 6.111111"/></filter><filter id="fx22" x="-10%" y="-10%" width="120%" height="120%" filterUnits="userSpaceOnUse" primitiveUnits="userSpaceOnUse"><feComponentTransfer color-interpolation-filters="sRGB"><feFuncR type="discrete" tableValues="0.949020 0.949020"/><feFuncG type="discrete" tableValues="0.949020 0.949020"/><feFuncB type="discrete" tableValues="0.949020 0.949020"/><feFuncA type="linear" slope="1.000000" intercept="0.000000"/></feComponentTransfer><feGaussianBlur stdDeviation="6.111111 6.111111"/></filter><filter id="fx23" x="-10%" y="-10%" width="120%" height="120%" filterUnits="userSpaceOnUse" primitiveUnits="userSpaceOnUse"><feComponentTransfer color-interpolation-filters="sRGB"><feFuncR type="discrete" tableValues="0.949020 0.949020"/><feFuncG type="discrete" tableValues="0.949020 0.949020"/><feFuncB type="discrete" tableValues="0.949020 0.949020"/><feFuncA type="linear" slope="1.000000" intercept="0.000000"/></feComponentTransfer><feGaussianBlur stdDeviation="6.111111 6.111111"/></filter><filter id="fx24" x="-10%" y="-10%" width="120%" height="120%" filterUnits="userSpaceOnUse" primitiveUnits="userSpaceOnUse"><feComponentTransfer color-interpolation-filters="sRGB"><feFuncR type="discrete" tableValues="0.949020 0.949020"/><feFuncG type="discrete" tableValues="0.949020 0.949020"/><feFuncB type="discrete" tableValues="0.949020 0.949020"/><feFuncA type="linear" slope="1.000000" intercept="0.000000"/></feComponentTransfer><feGaussianBlur stdDeviation="6.111111 6.111111"/></filter><filter id="fx25" x="-10%" y="-10%" width="120%" height="120%" filterUnits="userSpaceOnUse" primitiveUnits="userSpaceOnUse"><feComponentTransfer color-interpolation-filters="sRGB"><feFuncR type="discrete" tableValues="0.949020 0.949020"/><feFuncG type="discrete" tableValues="0.949020 0.949020"/><feFuncB type="discrete" tableValues="0.949020 0.949020"/><feFuncA type="linear" slope="1.000000" intercept="0.000000"/></feComponentTransfer><feGaussianBlur stdDeviation="6.111111 6.111111"/></filter><filter id="fx26" x="-10%" y="-10%" width="120%" height="120%" filterUnits="userSpaceOnUse" primitiveUnits="userSpaceOnUse"><feComponentTransfer color-interpolation-filters="sRGB"><feFuncR type="discrete" tableValues="0.949020 0.949020"/><feFuncG type="discrete" tableValues="0.949020 0.949020"/><feFuncB type="discrete" tableValues="0.949020 0.949020"/><feFuncA type="linear" slope="1.000000" intercept="0.000000"/></feComponentTransfer><feGaussianBlur stdDeviation="6.111111 6.111111"/></filter><filter id="fx27" x="-10%" y="-10%" width="120%" height="120%" filterUnits="userSpaceOnUse" primitiveUnits="userSpaceOnUse"><feComponentTransfer color-interpolation-filters="sRGB"><feFuncR type="discrete" tableValues="0.949020 0.949020"/><feFuncG type="discrete" tableValues="0.949020 0.949020"/><feFuncB type="discrete" tableValues="0.949020 0.949020"/><feFuncA type="linear" slope="1.000000" intercept="0.000000"/></feComponentTransfer><feGaussianBlur stdDeviation="6.111111 6.111111"/></filter><filter id="fx28" x="-10%" y="-10%" width="120%" height="120%" filterUnits="userSpaceOnUse" primitiveUnits="userSpaceOnUse"><feComponentTransfer color-interpolation-filters="sRGB"><feFuncR type="discrete" tableValues="0.949020 0.949020"/><feFuncG type="discrete" tableValues="0.949020 0.949020"/><feFuncB type="discrete" tableValues="0.949020 0.949020"/><feFuncA type="linear" slope="1.000000" intercept="0.000000"/></feComponentTransfer><feGaussianBlur stdDeviation="6.111111 6.111111"/></filter><filter id="fx29" x="-10%" y="-10%" width="120%" height="120%" filterUnits="userSpaceOnUse" primitiveUnits="userSpaceOnUse"><feComponentTransfer color-interpolation-filters="sRGB"><feFuncR type="discrete" tableValues="0.949020 0.949020"/><feFuncG type="discrete" tableValues="0.949020 0.949020"/><feFuncB type="discrete" tableValues="0.949020 0.949020"/><feFuncA type="linear" slope="1.000000" intercept="0.000000"/></feComponentTransfer><feGaussianBlur stdDeviation="6.111111 6.111111"/></filter><filter id="fx30" x="-10%" y="-10%" width="120%" height="120%" filterUnits="userSpaceOnUse" primitiveUnits="userSpaceOnUse"><feComponentTransfer color-interpolation-filters="sRGB"><feFuncR type="discrete" tableValues="0.949020 0.949020"/><feFuncG type="discrete" tableValues="0.949020 0.949020"/><feFuncB type="discrete" tableValues="0.949020 0.949020"/><feFuncA type="linear" slope="1.000000" intercept="0.000000"/></feComponentTransfer><feGaussianBlur stdDeviation="6.111111 6.111111"/></filter><clipPath id="clip31"><rect x="1173" y="220" width="2053" height="2071"/></clipPath><clipPath id="clip32"><rect x="-18.3334" y="-18.3333" width="1698.67" height="1697.67"/></clipPath><clipPath id="clip33"><rect x="0" y="0" width="1662" height="1661"/></clipPath><clipPath id="clip34"><rect x="-18.3334" y="-18.3333" width="1572.67" height="1571.67"/></clipPath><clipPath id="clip35"><rect x="0" y="0" width="1536" height="1535"/></clipPath><clipPath id="clip36"><rect x="-18.3334" y="-18.3333" width="333.667" height="331.667"/></clipPath><clipPath id="clip37"><rect x="0" y="0" width="297" height="295"/></clipPath><clipPath id="clip38"><rect x="-18.3333" y="-18.3333" width="332.667" height="332.667"/></clipPath><clipPath id="clip39"><rect x="0" y="0" width="296" height="296"/></clipPath><clipPath id="clip40"><rect x="-18.3334" y="-18.3334" width="332.667" height="331.667"/></clipPath><clipPath id="clip41"><rect x="0" y="0" width="296" height="295"/></clipPath><clipPath id="clip42"><rect x="-18.3333" y="-18.3334" width="332.667" height="331.667"/></clipPath><clipPath id="clip43"><rect x="0" y="0" width="296" height="295"/></clipPath><clipPath id="clip44"><rect x="-18.3334" y="-18.3333" width="303.667" height="1031.67"/></clipPath><clipPath id="clip45"><rect x="0" y="0" width="267" height="995"/></clipPath><clipPath id="clip46"><rect x="-18.3333" y="-18.3333" width="286.667" height="1031.67"/></clipPath><clipPath id="clip47"><rect x="0" y="0" width="250" height="995"/></clipPath><clipPath id="clip48"><rect x="-18.3334" y="-18.3333" width="1031.67" height="309.667"/></clipPath><clipPath id="clip49"><rect x="0" y="0" width="995" height="273"/></clipPath><clipPath id="clip50"><rect x="-18.3334" y="-18.3334" width="1031.67" height="297.667"/></clipPath><clipPath id="clip51"><rect x="0" y="0" width="995" height="261"/></clipPath><clipPath id="clip52"><rect x="-18.3334" y="-18.3333" width="234.667" height="234.667"/></clipPath><clipPath id="clip53"><rect x="0" y="0" width="198" height="198"/></clipPath><clipPath id="clip54"><rect x="-18.3333" y="-18.3333" width="234.667" height="235.667"/></clipPath><clipPath id="clip55"><rect x="0" y="0" width="198" height="199"/></clipPath><clipPath id="clip56"><rect x="-18.3333" y="-18.3333" width="233.667" height="235.667"/></clipPath><clipPath id="clip57"><rect x="0" y="0" width="197" height="199"/></clipPath><clipPath id="clip58"><rect x="-18.3334" y="-18.3334" width="234.667" height="234.667"/></clipPath><clipPath id="clip59"><rect x="0" y="0" width="198" height="198"/></clipPath><clipPath id="clip60"><rect x="-18.3333" y="-18.3334" width="234.667" height="235.667"/></clipPath><clipPath id="clip61"><rect x="0" y="0" width="198" height="199"/></clipPath><clipPath id="clip62"><rect x="-18.3333" y="-18.3334" width="233.667" height="235.667"/></clipPath><clipPath id="clip63"><rect x="0" y="0" width="197" height="199"/></clipPath><clipPath id="clip64"><rect x="-18.3334" y="-18.3334" width="234.667" height="234.667"/></clipPath><clipPath id="clip65"><rect x="0" y="0" width="198" height="198"/></clipPath><clipPath id="clip66"><rect x="-18.3333" y="-18.3333" width="245.667" height="246.667"/></clipPath><clipPath id="clip67"><rect x="0" y="0" width="209" height="210"/></clipPath><clipPath id="clip68"><rect x="-18.3333" y="-18.3334" width="234.667" height="235.667"/></clipPath><clipPath id="clip69"><rect x="0" y="0" width="198" height="199"/></clipPath><clipPath id="clip70"><rect x="-18.3333" y="-18.3334" width="233.667" height="235.667"/></clipPath><clipPath id="clip71"><rect x="0" y="0" width="197" height="199"/></clipPath><clipPath id="clip72"><rect x="-18.3334" y="-18.3333" width="245.667" height="246.667"/></clipPath><clipPath id="clip73"><rect x="0" y="0" width="209" height="210"/></clipPath><clipPath id="clip74"><rect x="-18.3334" y="-18.3333" width="245.667" height="246.667"/></clipPath><clipPath id="clip75"><rect x="0" y="0" width="209" height="210"/></clipPath><clipPath id="clip76"><rect x="-18.3333" y="-18.3333" width="245.667" height="246.667"/></clipPath><clipPath id="clip77"><rect x="0" y="0" width="209" height="210"/></clipPath><clipPath id="clip78"><rect x="-14.3334" y="-15.6042" width="70.667" height="1967.12"/></clipPath><clipPath id="clip79"><rect x="0" y="0" width="42" height="1937"/></clipPath><clipPath id="clip80"><rect x="-14.3333" y="-15.6042" width="70.667" height="1967.12"/></clipPath><clipPath id="clip81"><rect x="0" y="0" width="42" height="1937"/></clipPath><clipPath id="clip82"><rect x="-15.7584" y="-13.9998" width="1948.87" height="70.667"/></clipPath><clipPath id="clip83"><rect x="0" y="0" width="1919" height="43"/></clipPath><clipPath id="clip84"><rect x="-15.7584" y="-14.0001" width="1948.87" height="70.667"/></clipPath><clipPath id="clip85"><rect x="0" y="0" width="1919" height="43"/></clipPath><clipPath id="clip86"><rect x="-13.7834" y="-14.4566" width="830.911" height="830.911"/></clipPath><clipPath id="clip87"><rect x="0" y="0" width="803" height="802"/></clipPath><clipPath id="clip88"><rect x="-13.7834" y="-14.4501" width="830.911" height="830.911"/></clipPath><clipPath id="clip89"><rect x="0" y="0" width="803" height="802"/></clipPath><clipPath id="clip90"><rect x="-14.79" y="-14.4917" width="830.91" height="834.487"/></clipPath><clipPath id="clip91"><rect x="0" y="0" width="802" height="806"/></clipPath><clipPath id="clip92"><rect x="-14.79" y="-14.4501" width="830.911" height="830.911"/></clipPath><clipPath id="clip93"><rect x="0" y="0" width="802" height="802"/></clipPath></defs><g clip-path="url(#clip31)" transform="translate(-1173 -220)"><g clip-path="url(#clip32)" filter="url(#fx0)" transform="translate(1378 432)"><g clip-path="url(#clip33)"><path d="M1609.04 21.9832C1625.78 21.9832 1639.35 35.5548 1639.35 52.2963L1639.35 1608.37C1639.35 1625.11 1625.78 1638.68 1609.04 1638.68L52.9667 1638.68C36.2252 1638.68 22.6536 1625.11 22.6536 1608.37L22.6536 52.2963C22.6536 35.5548 36.2252 21.9832 52.9667 21.9832Z" stroke="#FFFFFF" stroke-width="5" stroke-linecap="butt" stroke-linejoin="miter" stroke-miterlimit="8" stroke-opacity="1" fill="#F2F2F2" fill-rule="evenodd" fill-opacity="0.329412"/></g></g><path d="M2971.78 451.5C2988.19 451.5 3001.5 464.805 3001.5 481.219L3001.5 2006.78C3001.5 2023.19 2988.19 2036.5 2971.78 2036.5L1446.22 2036.5C1429.81 2036.5 1416.5 2023.19 1416.5 2006.78L1416.5 481.219C1416.5 464.805 1429.81 451.5 1446.22 451.5Z" stroke="#FFFFFF" stroke-width="4.58333" stroke-linecap="butt" stroke-linejoin="miter" stroke-miterlimit="8" stroke-opacity="1" fill="#F2F2F2" fill-rule="evenodd" fill-opacity="0.329412"/><g clip-path="url(#clip34)" filter="url(#fx1)" transform="translate(1441 495)"><g clip-path="url(#clip35)"><path d="M22.4999 767.333C22.4999 355.605 356.272 21.8333 768 21.8333 1179.73 21.8333 1513.5 355.605 1513.5 767.333 1513.5 1179.06 1179.73 1512.83 768 1512.83 356.272 1512.83 22.4999 1179.06 22.4999 767.333ZM51.0382 767.333C51.0382 1163.3 372.033 1484.3 768 1484.3 1163.97 1484.3 1484.96 1163.3 1484.96 767.333 1484.96 371.366 1163.97 50.3716 768 50.3716 372.033 50.3716 51.0382 371.366 51.0382 767.333Z" stroke="#FFFFFF" stroke-width="5" stroke-linecap="butt" stroke-linejoin="miter" stroke-miterlimit="8" stroke-opacity="1" fill="#F2F2F2" fill-rule="evenodd" fill-opacity="0.329412"/></g></g><path d="M1463.5 1244C1463.5 832.272 1797.27 498.5 2209 498.5 2620.73 498.5 2954.5 832.272 2954.5 1244 2954.5 1655.73 2620.73 1989.5 2209 1989.5 1797.27 1989.5 1463.5 1655.73 1463.5 1244ZM1492.04 1244C1492.04 1639.97 1813.03 1960.96 2209 1960.96 2604.97 1960.96 2925.96 1639.97 2925.96 1244 2925.96 848.033 2604.97 527.038 2209 527.038 1813.03 527.038 1492.04 848.033 1492.04 1244Z" stroke="#FFFFFF" stroke-width="4.58333" stroke-linecap="butt" stroke-linejoin="miter" stroke-miterlimit="8" stroke-opacity="1" fill="#F2F2F2" fill-rule="evenodd" fill-opacity="0.329412"/><g clip-path="url(#clip36)" filter="url(#fx2)" transform="translate(1268 323)"><g clip-path="url(#clip37)"><path d="M269.793 21.8336C272.393 21.8336 274.5 23.9407 274.5 26.5398L274.5 268.127C274.5 270.726 272.393 272.834 269.793 272.834L27.206 272.834C24.6068 272.834 22.4998 270.726 22.4998 268.127L22.4998 26.5398C22.4998 23.9407 24.6068 21.8336 27.206 21.8336Z" stroke="#FFFFFF" stroke-width="5" stroke-linecap="butt" stroke-linejoin="miter" stroke-miterlimit="8" stroke-opacity="1" fill="#F2F2F2" fill-rule="evenodd" fill-opacity="0.329412"/></g></g><path d="M1537.79 326.5C1540.39 326.5 1542.5 328.607 1542.5 331.207L1542.5 572.794C1542.5 575.393 1540.39 577.5 1537.79 577.5L1295.21 577.5C1292.61 577.5 1290.5 575.393 1290.5 572.794L1290.5 331.207C1290.5 328.607 1292.61 326.5 1295.21 326.5Z" stroke="#FFFFFF" stroke-width="4.58333" stroke-linecap="butt" stroke-linejoin="miter" stroke-miterlimit="8" stroke-opacity="1" fill="#F2F2F2" fill-rule="evenodd" fill-opacity="0.329412"/><g clip-path="url(#clip38)" filter="url(#fx3)" transform="translate(2853 317)"><g clip-path="url(#clip39)"><path d="M268.794 21.833C271.393 21.833 273.5 23.9401 273.5 26.5393L273.5 269.127C273.5 271.726 271.393 273.833 268.794 273.833L27.2063 273.833C24.6071 273.833 22.5001 271.726 22.5001 269.127L22.5001 26.5393C22.5001 23.9401 24.6071 21.833 27.2063 21.833Z" stroke="#FFFFFF" stroke-width="5" stroke-linecap="butt" stroke-linejoin="miter" stroke-miterlimit="8" stroke-opacity="1" fill="#F2F2F2" fill-rule="evenodd" fill-opacity="0.329412"/></g></g><path d="M3121.79 320.5C3124.39 320.5 3126.5 322.607 3126.5 325.206L3126.5 567.793C3126.5 570.393 3124.39 572.5 3121.79 572.5L2880.21 572.5C2877.61 572.5 2875.5 570.393 2875.5 567.793L2875.5 325.206C2875.5 322.607 2877.61 320.5 2880.21 320.5Z" stroke="#FFFFFF" stroke-width="4.58333" stroke-linecap="butt" stroke-linejoin="miter" stroke-miterlimit="8" stroke-opacity="1" fill="#F2F2F2" fill-rule="evenodd" fill-opacity="0.329412"/><g clip-path="url(#clip40)" filter="url(#fx4)" transform="translate(1257 1895)"><g clip-path="url(#clip41)"><path d="M268.794 21.8334C271.393 21.8334 273.5 23.9404 273.5 26.5396L273.5 268.127C273.5 270.726 271.393 272.833 268.794 272.833L27.2067 272.833C24.6075 272.833 22.5005 270.726 22.5005 268.127L22.5005 26.5396C22.5005 23.9404 24.6075 21.8334 27.2067 21.8334Z" stroke="#FFFFFF" stroke-width="5" stroke-linecap="butt" stroke-linejoin="miter" stroke-miterlimit="8" stroke-opacity="1" fill="#F2F2F2" fill-rule="evenodd" fill-opacity="0.329412"/></g></g><path d="M1525.79 1898.5C1528.39 1898.5 1530.5 1900.61 1530.5 1903.21L1530.5 2144.79C1530.5 2147.39 1528.39 2149.5 1525.79 2149.5L1284.21 2149.5C1281.61 2149.5 1279.5 2147.39 1279.5 2144.79L1279.5 1903.21C1279.5 1900.61 1281.61 1898.5 1284.21 1898.5Z" stroke="#FFFFFF" stroke-width="4.58333" stroke-linecap="butt" stroke-linejoin="miter" stroke-miterlimit="8" stroke-opacity="1" fill="#F2F2F2" fill-rule="evenodd" fill-opacity="0.329412"/><g clip-path="url(#clip42)" filter="url(#fx5)" transform="translate(2858 1895)"><g clip-path="url(#clip43)"><path d="M268.794 21.8334C271.393 21.8334 273.5 23.9404 273.5 26.5396L273.5 268.127C273.5 270.726 271.393 272.833 268.794 272.833L27.2069 272.833C24.6077 272.833 22.5006 270.726 22.5006 268.127L22.5006 26.5396C22.5006 23.9404 24.6077 21.8334 27.2069 21.8334Z" stroke="#FFFFFF" stroke-width="5" stroke-linecap="butt" stroke-linejoin="miter" stroke-miterlimit="8" stroke-opacity="1" fill="#F2F2F2" fill-rule="evenodd" fill-opacity="0.329412"/></g></g><path d="M3126.79 1898.5C3129.39 1898.5 3131.5 1900.61 3131.5 1903.21L3131.5 2144.79C3131.5 2147.39 3129.39 2149.5 3126.79 2149.5L2885.21 2149.5C2882.61 2149.5 2880.5 2147.39 2880.5 2144.79L2880.5 1903.21C2880.5 1900.61 2882.61 1898.5 2885.21 1898.5Z" stroke="#FFFFFF" stroke-width="4.58333" stroke-linecap="butt" stroke-linejoin="miter" stroke-miterlimit="8" stroke-opacity="1" fill="#F2F2F2" fill-rule="evenodd" fill-opacity="0.329412"/><g clip-path="url(#clip44)" filter="url(#fx6)" transform="translate(1174 795)"><g clip-path="url(#clip45)"><path d="M240.511 22.5132C242.814 22.5132 244.68 24.3797 244.68 26.6821L244.68 968.984C244.68 971.287 242.814 973.153 240.511 973.153L26.4893 973.153C24.1869 973.153 22.3204 971.287 22.3204 968.984L22.3204 26.6821C22.3204 24.3797 24.1869 22.5132 26.4893 22.5132Z" stroke="#FFFFFF" stroke-width="5" stroke-linecap="butt" stroke-linejoin="miter" stroke-miterlimit="8" stroke-opacity="1" fill="#F2F2F2" fill-rule="evenodd" fill-opacity="0.329412"/></g></g><path d="M1412.41 808.5C1414.67 808.5 1416.5 810.33 1416.5 812.587L1416.5 1736.41C1416.5 1738.67 1414.67 1740.5 1412.41 1740.5L1202.59 1740.5C1200.33 1740.5 1198.5 1738.67 1198.5 1736.41L1198.5 812.587C1198.5 810.33 1200.33 808.5 1202.59 808.5Z" stroke="#FFFFFF" stroke-width="4.58333" stroke-linecap="butt" stroke-linejoin="miter" stroke-miterlimit="8" stroke-opacity="1" fill="#F2F2F2" fill-rule="evenodd" fill-opacity="0.329412"/><g clip-path="url(#clip46)" filter="url(#fx7)" transform="translate(2977 795)"><g clip-path="url(#clip47)"><path d="M223.665 22.5132C225.789 22.5132 227.51 24.2345 227.51 26.3577L227.51 969.308C227.51 971.432 225.789 973.153 223.665 973.153L26.3348 973.153C24.2116 973.153 22.4903 971.432 22.4903 969.308L22.4903 26.3577C22.4903 24.2345 24.2116 22.5132 26.3348 22.5132Z" stroke="#FFFFFF" stroke-width="5" stroke-linecap="butt" stroke-linejoin="miter" stroke-miterlimit="8" stroke-opacity="1" fill="#F2F2F2" fill-rule="evenodd" fill-opacity="0.329412"/></g></g><path d="M3198.73 808.5C3200.81 808.5 3202.5 810.187 3202.5 812.269L3202.5 1736.73C3202.5 1738.81 3200.81 1740.5 3198.73 1740.5L3005.27 1740.5C3003.19 1740.5 3001.5 1738.81 3001.5 1736.73L3001.5 812.269C3001.5 810.187 3003.19 808.5 3005.27 808.5Z" stroke="#FFFFFF" stroke-width="4.58333" stroke-linecap="butt" stroke-linejoin="miter" stroke-miterlimit="8" stroke-opacity="1" fill="#F2F2F2" fill-rule="evenodd" fill-opacity="0.329412"/><g clip-path="url(#clip48)" filter="url(#fx8)" transform="translate(1711 221)"><g clip-path="url(#clip49)"><path d="M22.1799 26.8777C22.1799 24.5116 24.0981 22.5934 26.4643 22.5934L968.535 22.5934C970.902 22.5934 972.82 24.5116 972.82 26.8777L972.82 246.789C972.82 249.155 970.902 251.073 968.535 251.073L26.4643 251.073C24.0981 251.073 22.1799 249.155 22.1799 246.789Z" stroke="#FFFFFF" stroke-width="5" stroke-linecap="butt" stroke-linejoin="miter" stroke-miterlimit="8" stroke-opacity="1" fill="#F2F2F2" fill-rule="evenodd" fill-opacity="0.329412"/></g></g><path d="M1742.5 231.7C1742.5 229.381 1744.38 227.5 1746.7 227.5L2670.3 227.5C2672.62 227.5 2674.5 229.381 2674.5 231.7L2674.5 447.299C2674.5 449.619 2672.62 451.5 2670.3 451.5L1746.7 451.5C1744.38 451.5 1742.5 449.619 1742.5 447.299Z" stroke="#FFFFFF" stroke-width="4.58333" stroke-linecap="butt" stroke-linejoin="miter" stroke-miterlimit="8" stroke-opacity="1" fill="#F2F2F2" fill-rule="evenodd" fill-opacity="0.329412"/><g clip-path="url(#clip50)" filter="url(#fx9)" transform="translate(1711 2030)"><g clip-path="url(#clip51)"><path d="M22.1799 26.7677C22.1799 24.5284 23.9952 22.7131 26.2345 22.7131L968.765 22.7131C971.005 22.7131 972.82 24.5284 972.82 26.7677L972.82 234.899C972.82 237.138 971.005 238.953 968.765 238.953L26.2345 238.953C23.9952 238.953 22.1799 237.138 22.1799 234.899Z" stroke="#FFFFFF" stroke-width="5" stroke-linecap="butt" stroke-linejoin="miter" stroke-miterlimit="8" stroke-opacity="1" fill="#F2F2F2" fill-rule="evenodd" fill-opacity="0.329412"/></g></g><path d="M1742.5 2040.47C1742.5 2038.28 1744.28 2036.5 1746.48 2036.5L2670.52 2036.5C2672.72 2036.5 2674.5 2038.28 2674.5 2040.47L2674.5 2244.52C2674.5 2246.72 2672.72 2248.5 2670.52 2248.5L1746.48 2248.5C1744.28 2248.5 1742.5 2246.72 1742.5 2244.52Z" stroke="#FFFFFF" stroke-width="4.58333" stroke-linecap="butt" stroke-linejoin="miter" stroke-miterlimit="8" stroke-opacity="1" fill="#F2F2F2" fill-rule="evenodd" fill-opacity="0.329412"/><g clip-path="url(#clip52)" filter="url(#fx10)" transform="translate(1826 912)"><g clip-path="url(#clip53)"><path d="M21.9899 25.202C21.9899 23.6177 23.2742 22.3333 24.8585 22.3333L173.141 22.3333C174.726 22.3333 176.01 23.6177 176.01 25.202L176.01 172.464C176.01 174.049 174.726 175.333 173.141 175.333L24.8585 175.333C23.2742 175.333 21.9899 174.049 21.9899 172.464Z" stroke="#FFFFFF" stroke-width="5" stroke-linecap="butt" stroke-linejoin="miter" stroke-miterlimit="8" stroke-opacity="1" fill="#F2F2F2" fill-rule="evenodd" fill-opacity="0.329412"/></g></g><path d="M1849.5 920.312C1849.5 918.759 1850.76 917.5 1852.31 917.5L1997.69 917.5C1999.24 917.5 2000.5 918.759 2000.5 920.312L2000.5 1064.69C2000.5 1066.24 1999.24 1067.5 1997.69 1067.5L1852.31 1067.5C1850.76 1067.5 1849.5 1066.24 1849.5 1064.69Z" stroke="#FFFFFF" stroke-width="4.58333" stroke-linecap="butt" stroke-linejoin="miter" stroke-miterlimit="8" stroke-opacity="1" fill="#F2F2F2" fill-rule="evenodd" fill-opacity="0.329412"/><g clip-path="url(#clip54)" filter="url(#fx11)" transform="translate(2110 908)"><g clip-path="url(#clip55)"><path d="M21.9902 25.2111C21.9902 23.6161 23.2832 22.3232 24.8781 22.3232L173.123 22.3232C174.718 22.3232 176.01 23.6161 176.01 25.2111L176.01 173.456C176.01 175.051 174.718 176.343 173.123 176.343L24.8781 176.343C23.2832 176.343 21.9902 175.051 21.9902 173.456Z" stroke="#FFFFFF" stroke-width="5" stroke-linecap="butt" stroke-linejoin="miter" stroke-miterlimit="8" stroke-opacity="1" fill="#F2F2F2" fill-rule="evenodd" fill-opacity="0.329412"/></g></g><path d="M2133.5 916.331C2133.5 914.767 2134.77 913.5 2136.33 913.5L2281.67 913.5C2283.23 913.5 2284.5 914.767 2284.5 916.331L2284.5 1061.67C2284.5 1063.23 2283.23 1064.5 2281.67 1064.5L2136.33 1064.5C2134.77 1064.5 2133.5 1063.23 2133.5 1061.67Z" stroke="#FFFFFF" stroke-width="4.58333" stroke-linecap="butt" stroke-linejoin="miter" stroke-miterlimit="8" stroke-opacity="1" fill="#F2F2F2" fill-rule="evenodd" fill-opacity="0.329412"/><g clip-path="url(#clip56)" filter="url(#fx12)" transform="translate(2393 908)"><g clip-path="url(#clip57)"><path d="M22 25.1919C22 23.6075 23.2844 22.3232 24.8687 22.3232L172.131 22.3232C173.715 22.3232 175 23.6075 175 25.1919L175 173.475C175 175.059 173.715 176.343 172.131 176.343L24.8687 176.343C23.2844 176.343 22 175.059 22 173.475Z" stroke="#FFFFFF" stroke-width="5" stroke-linecap="butt" stroke-linejoin="miter" stroke-miterlimit="8" stroke-opacity="1" fill="#F2F2F2" fill-rule="evenodd" fill-opacity="0.329412"/></g></g><path d="M2416.5 916.312C2416.5 914.759 2417.76 913.5 2419.31 913.5L2563.69 913.5C2565.24 913.5 2566.5 914.759 2566.5 916.312L2566.5 1061.69C2566.5 1063.24 2565.24 1064.5 2563.69 1064.5L2419.31 1064.5C2417.76 1064.5 2416.5 1063.24 2416.5 1061.69Z" stroke="#FFFFFF" stroke-width="4.58333" stroke-linecap="butt" stroke-linejoin="miter" stroke-miterlimit="8" stroke-opacity="1" fill="#F2F2F2" fill-rule="evenodd" fill-opacity="0.329412"/><g clip-path="url(#clip58)" filter="url(#fx13)" transform="translate(1826 1171)"><g clip-path="url(#clip59)"><path d="M21.9899 25.2022C21.9899 23.6178 23.2742 22.3335 24.8585 22.3335L173.141 22.3335C174.726 22.3335 176.01 23.6178 176.01 25.2022L176.01 172.465C176.01 174.049 174.726 175.333 173.141 175.333L24.8585 175.333C23.2742 175.333 21.9899 174.049 21.9899 172.465Z" stroke="#FFFFFF" stroke-width="5" stroke-linecap="butt" stroke-linejoin="miter" stroke-miterlimit="8" stroke-opacity="1" fill="#F2F2F2" fill-rule="evenodd" fill-opacity="0.329412"/></g></g><path d="M1849.5 1179.31C1849.5 1177.76 1850.76 1176.5 1852.31 1176.5L1997.69 1176.5C1999.24 1176.5 2000.5 1177.76 2000.5 1179.31L2000.5 1323.69C2000.5 1325.24 1999.24 1326.5 1997.69 1326.5L1852.31 1326.5C1850.76 1326.5 1849.5 1325.24 1849.5 1323.69Z" stroke="#FFFFFF" stroke-width="4.58333" stroke-linecap="butt" stroke-linejoin="miter" stroke-miterlimit="8" stroke-opacity="1" fill="#F2F2F2" fill-rule="evenodd" fill-opacity="0.329412"/><g clip-path="url(#clip60)" filter="url(#fx14)" transform="translate(2110 1167)"><g clip-path="url(#clip61)"><path d="M21.9902 25.2112C21.9902 23.6163 23.2832 22.3234 24.8781 22.3234L173.122 22.3234C174.717 22.3234 176.01 23.6163 176.01 25.2112L176.01 173.455C176.01 175.05 174.717 176.343 173.122 176.343L24.8781 176.343C23.2832 176.343 21.9902 175.05 21.9902 173.455Z" stroke="#FFFFFF" stroke-width="5" stroke-linecap="butt" stroke-linejoin="miter" stroke-miterlimit="8" stroke-opacity="1" fill="#F2F2F2" fill-rule="evenodd" fill-opacity="0.329412"/></g></g><path d="M2133.5 1175.33C2133.5 1173.77 2134.77 1172.5 2136.33 1172.5L2281.67 1172.5C2283.23 1172.5 2284.5 1173.77 2284.5 1175.33L2284.5 1320.67C2284.5 1322.23 2283.23 1323.5 2281.67 1323.5L2136.33 1323.5C2134.77 1323.5 2133.5 1322.23 2133.5 1320.67Z" stroke="#FFFFFF" stroke-width="4.58333" stroke-linecap="butt" stroke-linejoin="miter" stroke-miterlimit="8" stroke-opacity="1" fill="#F2F2F2" fill-rule="evenodd" fill-opacity="0.329412"/><g clip-path="url(#clip62)" filter="url(#fx15)" transform="translate(2393 1167)"><g clip-path="url(#clip63)"><path d="M22 25.192C22 23.6077 23.2843 22.3234 24.8687 22.3234L172.131 22.3234C173.715 22.3234 175 23.6077 175 25.192L175 173.475C175 175.059 173.715 176.343 172.131 176.343L24.8687 176.343C23.2843 176.343 22 175.059 22 173.475Z" stroke="#FFFFFF" stroke-width="5" stroke-linecap="butt" stroke-linejoin="miter" stroke-miterlimit="8" stroke-opacity="1" fill="#F2F2F2" fill-rule="evenodd" fill-opacity="0.329412"/></g></g><path d="M2416.5 1175.31C2416.5 1173.76 2417.76 1172.5 2419.31 1172.5L2563.69 1172.5C2565.24 1172.5 2566.5 1173.76 2566.5 1175.31L2566.5 1320.69C2566.5 1322.24 2565.24 1323.5 2563.69 1323.5L2419.31 1323.5C2417.76 1323.5 2416.5 1322.24 2416.5 1320.69Z" stroke="#FFFFFF" stroke-width="4.58333" stroke-linecap="butt" stroke-linejoin="miter" stroke-miterlimit="8" stroke-opacity="1" fill="#F2F2F2" fill-rule="evenodd" fill-opacity="0.329412"/><g clip-path="url(#clip64)" filter="url(#fx16)" transform="translate(1826 1429)"><g clip-path="url(#clip65)"><path d="M21.9899 25.2019C21.9899 23.6176 23.2742 22.3333 24.8585 22.3333L173.141 22.3333C174.726 22.3333 176.01 23.6176 176.01 25.2019L176.01 172.464C176.01 174.049 174.726 175.333 173.141 175.333L24.8585 175.333C23.2742 175.333 21.9899 174.049 21.9899 172.464Z" stroke="#FFFFFF" stroke-width="5" stroke-linecap="butt" stroke-linejoin="miter" stroke-miterlimit="8" stroke-opacity="1" fill="#F2F2F2" fill-rule="evenodd" fill-opacity="0.329412"/></g></g><path d="M1849.5 1437.31C1849.5 1435.76 1850.76 1434.5 1852.31 1434.5L1997.69 1434.5C1999.24 1434.5 2000.5 1435.76 2000.5 1437.31L2000.5 1581.69C2000.5 1583.24 1999.24 1584.5 1997.69 1584.5L1852.31 1584.5C1850.76 1584.5 1849.5 1583.24 1849.5 1581.69Z" stroke="#FFFFFF" stroke-width="4.58333" stroke-linecap="butt" stroke-linejoin="miter" stroke-miterlimit="8" stroke-opacity="1" fill="#F2F2F2" fill-rule="evenodd" fill-opacity="0.329412"/><g clip-path="url(#clip66)" filter="url(#fx17)" transform="translate(3017 2081)"><g clip-path="url(#clip67)"><path d="M21.8799 25.3116C21.8799 23.6005 23.267 22.2134 24.9781 22.2134L184.022 22.2134C185.733 22.2134 187.12 23.6005 187.12 25.3116L187.12 184.355C187.12 186.066 185.733 187.453 184.022 187.453L24.9781 187.453C23.267 187.453 21.8799 186.066 21.8799 184.355Z" stroke="#FFFFFF" stroke-width="5" stroke-linecap="butt" stroke-linejoin="miter" stroke-miterlimit="8" stroke-opacity="1" fill="#F2F2F2" fill-rule="evenodd" fill-opacity="0.329412"/></g></g><path d="M3040.5 2089.54C3040.5 2087.86 3041.86 2086.5 3043.54 2086.5L3199.46 2086.5C3201.14 2086.5 3202.5 2087.86 3202.5 2089.54L3202.5 2245.46C3202.5 2247.14 3201.14 2248.5 3199.46 2248.5L3043.54 2248.5C3041.86 2248.5 3040.5 2247.14 3040.5 2245.46Z" stroke="#FFFFFF" stroke-width="4.58333" stroke-linecap="butt" stroke-linejoin="miter" stroke-miterlimit="8" stroke-opacity="1" fill="#F2F2F2" fill-rule="evenodd" fill-opacity="0.329412"/><g clip-path="url(#clip68)" filter="url(#fx18)" transform="translate(2110 1425)"><g clip-path="url(#clip69)"><path d="M21.9902 25.211C21.9902 23.6161 23.2832 22.3231 24.8781 22.3231L173.123 22.3231C174.718 22.3231 176.01 23.6161 176.01 25.211L176.01 173.456C176.01 175.05 174.718 176.343 173.123 176.343L24.8781 176.343C23.2832 176.343 21.9902 175.05 21.9902 173.456Z" stroke="#FFFFFF" stroke-width="5" stroke-linecap="butt" stroke-linejoin="miter" stroke-miterlimit="8" stroke-opacity="1" fill="#F2F2F2" fill-rule="evenodd" fill-opacity="0.329412"/></g></g><path d="M2133.5 1433.33C2133.5 1431.77 2134.77 1430.5 2136.33 1430.5L2281.67 1430.5C2283.23 1430.5 2284.5 1431.77 2284.5 1433.33L2284.5 1578.67C2284.5 1580.23 2283.23 1581.5 2281.67 1581.5L2136.33 1581.5C2134.77 1581.5 2133.5 1580.23 2133.5 1578.67Z" stroke="#FFFFFF" stroke-width="4.58333" stroke-linecap="butt" stroke-linejoin="miter" stroke-miterlimit="8" stroke-opacity="1" fill="#F2F2F2" fill-rule="evenodd" fill-opacity="0.329412"/><g clip-path="url(#clip70)" filter="url(#fx19)" transform="translate(2393 1425)"><g clip-path="url(#clip71)"><path d="M22 25.1918C22 23.6075 23.2844 22.3231 24.8687 22.3231L172.131 22.3231C173.715 22.3231 175 23.6075 175 25.1918L175 173.475C175 175.059 173.715 176.343 172.131 176.343L24.8687 176.343C23.2844 176.343 22 175.059 22 173.475Z" stroke="#FFFFFF" stroke-width="5" stroke-linecap="butt" stroke-linejoin="miter" stroke-miterlimit="8" stroke-opacity="1" fill="#F2F2F2" fill-rule="evenodd" fill-opacity="0.329412"/></g></g><path d="M2416.5 1433.31C2416.5 1431.76 2417.76 1430.5 2419.31 1430.5L2563.69 1430.5C2565.24 1430.5 2566.5 1431.76 2566.5 1433.31L2566.5 1578.69C2566.5 1580.24 2565.24 1581.5 2563.69 1581.5L2419.31 1581.5C2417.76 1581.5 2416.5 1580.24 2416.5 1578.69Z" stroke="#FFFFFF" stroke-width="4.58333" stroke-linecap="butt" stroke-linejoin="miter" stroke-miterlimit="8" stroke-opacity="1" fill="#F2F2F2" fill-rule="evenodd" fill-opacity="0.329412"/><g clip-path="url(#clip72)" filter="url(#fx20)" transform="translate(1175 2081)"><g clip-path="url(#clip73)"><path d="M21.8801 25.3116C21.8801 23.6005 23.2673 22.2134 24.9784 22.2134L184.022 22.2134C185.733 22.2134 187.12 23.6005 187.12 25.3116L187.12 184.355C187.12 186.066 185.733 187.453 184.022 187.453L24.9784 187.453C23.2673 187.453 21.8801 186.066 21.8801 184.355Z" stroke="#FFFFFF" stroke-width="5" stroke-linecap="butt" stroke-linejoin="miter" stroke-miterlimit="8" stroke-opacity="1" fill="#F2F2F2" fill-rule="evenodd" fill-opacity="0.329412"/></g></g><path d="M1198.5 2089.54C1198.5 2087.86 1199.86 2086.5 1201.54 2086.5L1357.46 2086.5C1359.14 2086.5 1360.5 2087.86 1360.5 2089.54L1360.5 2245.46C1360.5 2247.14 1359.14 2248.5 1357.46 2248.5L1201.54 2248.5C1199.86 2248.5 1198.5 2247.14 1198.5 2245.46Z" stroke="#FFFFFF" stroke-width="4.58333" stroke-linecap="butt" stroke-linejoin="miter" stroke-miterlimit="8" stroke-opacity="1" fill="#F2F2F2" fill-rule="evenodd" fill-opacity="0.329412"/><g clip-path="url(#clip74)" filter="url(#fx21)" transform="translate(1175 222)"><g clip-path="url(#clip75)"><path d="M21.8801 25.3117C21.8801 23.6005 23.2673 22.2134 24.9784 22.2134L184.022 22.2134C185.733 22.2134 187.12 23.6005 187.12 25.3117L187.12 184.355C187.12 186.066 185.733 187.453 184.022 187.453L24.9784 187.453C23.2673 187.453 21.8801 186.066 21.8801 184.355Z" stroke="#FFFFFF" stroke-width="5" stroke-linecap="butt" stroke-linejoin="miter" stroke-miterlimit="8" stroke-opacity="1" fill="#F2F2F2" fill-rule="evenodd" fill-opacity="0.329412"/></g></g><path d="M1198.5 230.538C1198.5 228.86 1199.86 227.5 1201.54 227.5L1357.46 227.5C1359.14 227.5 1360.5 228.86 1360.5 230.538L1360.5 386.462C1360.5 388.14 1359.14 389.5 1357.46 389.5L1201.54 389.5C1199.86 389.5 1198.5 388.14 1198.5 386.462Z" stroke="#FFFFFF" stroke-width="4.58333" stroke-linecap="butt" stroke-linejoin="miter" stroke-miterlimit="8" stroke-opacity="1" fill="#F2F2F2" fill-rule="evenodd" fill-opacity="0.329412"/><g clip-path="url(#clip76)" filter="url(#fx22)" transform="translate(3017 222)"><g clip-path="url(#clip77)"><path d="M21.8799 25.3117C21.8799 23.6005 23.267 22.2134 24.9781 22.2134L184.022 22.2134C185.733 22.2134 187.12 23.6005 187.12 25.3117L187.12 184.355C187.12 186.066 185.733 187.453 184.022 187.453L24.9781 187.453C23.267 187.453 21.8799 186.066 21.8799 184.355Z" stroke="#FFFFFF" stroke-width="5" stroke-linecap="butt" stroke-linejoin="miter" stroke-miterlimit="8" stroke-opacity="1" fill="#F2F2F2" fill-rule="evenodd" fill-opacity="0.329412"/></g></g><path d="M3040.5 230.538C3040.5 228.86 3041.86 227.5 3043.54 227.5L3199.46 227.5C3201.14 227.5 3202.5 228.86 3202.5 230.538L3202.5 386.462C3202.5 388.14 3201.14 389.5 3199.46 389.5L3043.54 389.5C3041.86 389.5 3040.5 388.14 3040.5 386.462Z" stroke="#FFFFFF" stroke-width="4.58333" stroke-linecap="butt" stroke-linejoin="miter" stroke-miterlimit="8" stroke-opacity="1" fill="#F2F2F2" fill-rule="evenodd" fill-opacity="0.329412"/><g clip-path="url(#clip78)" filter="url(#fx23)" transform="translate(1177 288)"><g clip-path="url(#clip79)"><path d="M0 0 0.00036811 1896.46" stroke="#FFFFFF" stroke-width="2" stroke-linecap="butt" stroke-linejoin="miter" stroke-miterlimit="8" stroke-opacity="1" fill="none" fill-rule="evenodd" transform="matrix(-1 0 0 1 21.0004 19.7292)"/></g></g><path d="M0 0 0.000360892 1859.27" stroke="#FFFFFF" stroke-width="2.29167" stroke-linecap="butt" stroke-linejoin="miter" stroke-miterlimit="8" stroke-opacity="1" fill="none" fill-rule="evenodd" transform="matrix(-1 0 0 1 1198 308)"/><g clip-path="url(#clip80)" filter="url(#fx24)" transform="translate(3181 288)"><g clip-path="url(#clip81)"><path d="M21 19.7292 21.0004 1916.19" stroke="#FFFFFF" stroke-width="2" stroke-linecap="butt" stroke-linejoin="miter" stroke-miterlimit="8" stroke-opacity="1" fill="none" fill-rule="evenodd"/></g></g><path d="M3202 308 3202 2167.27" stroke="#FFFFFF" stroke-width="2.29167" stroke-linecap="butt" stroke-linejoin="miter" stroke-miterlimit="8" stroke-opacity="1" fill="none" fill-rule="evenodd"/><g clip-path="url(#clip82)" filter="url(#fx25)" transform="translate(1241 2245)"><g clip-path="url(#clip83)"><path d="M19.575 21.3335 1897.78 21.3339" stroke="#FFFFFF" stroke-width="2" stroke-linecap="butt" stroke-linejoin="miter" stroke-miterlimit="8" stroke-opacity="1" fill="none" fill-rule="evenodd"/></g></g><path d="M1279 2248 3120.38 2248" stroke="#FFFFFF" stroke-width="2.29167" stroke-linecap="butt" stroke-linejoin="miter" stroke-miterlimit="8" stroke-opacity="1" fill="none" fill-rule="evenodd"/><g clip-path="url(#clip84)" filter="url(#fx26)" transform="translate(1241 224)"><g clip-path="url(#clip85)"><path d="M19.575 21.3332 1897.78 21.3336" stroke="#FFFFFF" stroke-width="2" stroke-linecap="butt" stroke-linejoin="miter" stroke-miterlimit="8" stroke-opacity="1" fill="none" fill-rule="evenodd"/></g></g><path d="M1279 227 3120.37 227" stroke="#FFFFFF" stroke-width="2.29167" stroke-linecap="butt" stroke-linejoin="miter" stroke-miterlimit="8" stroke-opacity="1" fill="none" fill-rule="evenodd"/><g clip-path="url(#clip86)" filter="url(#fx27)" transform="translate(1434 488)"><g clip-path="url(#clip87)"><path d="M0 0 760.244 760.244" stroke="#FFFFFF" stroke-width="2" stroke-linecap="butt" stroke-linejoin="miter" stroke-miterlimit="8" stroke-opacity="1" fill="none" fill-rule="evenodd" transform="matrix(-1 0 0 1 781.794 20.8767)"/></g></g><path d="M0 0 745.337 745.337" stroke="#FFFFFF" stroke-width="2.29167" stroke-linecap="butt" stroke-linejoin="miter" stroke-miterlimit="8" stroke-opacity="1" fill="none" fill-rule="evenodd" transform="matrix(-1 0 0 1 2208.34 498)"/><g clip-path="url(#clip88)" filter="url(#fx28)" transform="translate(1434 1234)"><g clip-path="url(#clip89)"><path d="M781.794 781.127 21.5499 20.8834" stroke="#FFFFFF" stroke-width="2" stroke-linecap="butt" stroke-linejoin="miter" stroke-miterlimit="8" stroke-opacity="1" fill="none" fill-rule="evenodd"/></g></g><path d="M2208.34 1989.34 1463 1244" stroke="#FFFFFF" stroke-width="2.29167" stroke-linecap="butt" stroke-linejoin="miter" stroke-miterlimit="8" stroke-opacity="1" fill="none" fill-rule="evenodd"/><g clip-path="url(#clip90)" filter="url(#fx29)" transform="translate(2180 488)"><g clip-path="url(#clip91)"><path d="M20.5432 20.8416 780.786 784.662" stroke="#FFFFFF" stroke-width="2" stroke-linecap="butt" stroke-linejoin="miter" stroke-miterlimit="8" stroke-opacity="1" fill="none" fill-rule="evenodd"/></g></g><path d="M2208 498 2953.34 1246.84" stroke="#FFFFFF" stroke-width="2.29167" stroke-linecap="butt" stroke-linejoin="miter" stroke-miterlimit="8" stroke-opacity="1" fill="none" fill-rule="evenodd"/><g clip-path="url(#clip92)" filter="url(#fx30)" transform="translate(2180 1234)"><g clip-path="url(#clip93)"><path d="M0 0 760.244 760.244" stroke="#FFFFFF" stroke-width="2" stroke-linecap="butt" stroke-linejoin="miter" stroke-miterlimit="8" stroke-opacity="1" fill="none" fill-rule="evenodd" transform="matrix(1 0 0 -1 20.5432 781.127)"/></g></g><path d="M0 0 745.337 745.337" stroke="#FFFFFF" stroke-width="2.29167" stroke-linecap="butt" stroke-linejoin="miter" stroke-miterlimit="8" stroke-opacity="1" fill="none" fill-rule="evenodd" transform="matrix(1 0 0 -1 2208 1989.34)"/></g></svg>