<svg id="hand-broken" enable-background="new 0 0 300 300" height="512" viewBox="0 0 300 300" width="512" xmlns="http://www.w3.org/2000/svg"><g><path d="m268 36h-100c-2.211 0-4 1.791-4 4v82.344l-14.828 14.828c-1.562 1.562-1.562 4.094 0 5.656.781.781 1.805 1.172 2.828 1.172s2.047-.391 2.828-1.172l14.828-14.828h98.344c2.211 0 4-1.791 4-4v-84c0-2.209-1.789-4-4-4zm-4 84h-92v-76h92z"/><path d="m264 256h-143.804l3.804-79.6v-12.4h2c7.719 0 14-6.281 14-14v-25.791c0-15.454-12.534-28.031-28-28.194v-4.701c4.656-1.65 8-6.1 8-11.314v-24.506c0-10.75-8.746-19.494-19.496-19.494h-24.504c-2.211 0-4 1.791-4 4v5.854c0 5.589 3.284 10.387 8 12.683v21.463c0 5.215 3.344 9.664 8 11.314v4.701c-15.466.163-28 12.74-28 28.194v52.908c0 6 4.883 10.883 10.883 10.883h2.234c1.188 0 2.336-.191 3.406-.547l3.28 68.547h-47.803c-2.211 0-4 1.791-4 4s1.789 4 4 4h232c2.211 0 4-1.791 4-4s-1.789-4-4-4zm-147.998-88h-32.002v-4.202c.659.095 1.315.202 2 .202h30.001zm9.998-12h-40c-3.309 0-6-2.691-6-6s2.691-6 6-6h40c3.309 0 6 2.691 6 6s-2.691 6-6 6zm6-31.791v13.195c-1.826-.874-3.845-1.404-6-1.404h-2v-8c0-2.209-1.789-4-4-4s-4 1.791-4 4v8h-4v-31.97c11.054.165 20 9.139 20 20.179zm-20-44.209c0 2.205-1.793 4-4 4-2.211 0-4 1.791-4 4v12 4c0 2.205-1.793 4-4 4s-4-1.795-4-4v-16c0-2.209-1.789-4-4-4-2.207 0-4-1.795-4-4v-20h24zm-32-36h20.504c5.121 0 9.473 3.365 10.953 8h-25.312c-3.387 0-6.145-2.758-6.145-6.146zm8.003 60.03c.017 6.603 5.39 11.97 11.997 11.97 1.409 0 2.743-.289 4-.737v20.737h-18c-.685 0-1.341.107-2 .202v-8.202c0-2.209-1.789-4-4-4s-4 1.791-4 4v12.233c-2.467 2.525-4 5.967-4 9.767s1.533 7.242 4 9.767v8.233h-8v-43.791c0-11.041 8.948-20.016 20.003-20.179zm-12.003 73.087c0 1.59-1.293 2.883-2.883 2.883h-2.234c-1.59 0-2.883-1.293-2.883-2.883v-1.117h8.08c-.014.138-.08.259-.08.4zm7.996-.908c-.003-.073-.045-.136-.052-.209h32.06v.209l-3.818 79.791h-8.186v-64c0-2.209-1.789-4-4-4s-4 1.791-4 4v64h-8.186z"/><path d="m138 78.276c2.362 0 4.276-1.915 4.276-4.276s-1.915-4.277-4.276-4.277-4.276 1.915-4.276 4.277 1.914 4.276 4.276 4.276z"/><path d="m196 159.512c2.211 0 4-1.791 4-4v-5.66c0-2.209-1.789-4-4-4s-4 1.791-4 4v5.66c0 2.209 1.789 4 4 4z"/><path d="m192 178.148c0 2.209 1.789 4 4 4s4-1.791 4-4v-5.66c0-2.209-1.789-4-4-4s-4 1.791-4 4z"/><path d="m187.512 168c2.211 0 4-1.791 4-4s-1.789-4-4-4h-5.66c-2.211 0-4 1.791-4 4s1.789 4 4 4z"/><path d="m210.148 168c2.211 0 4-1.791 4-4s-1.789-4-4-4h-5.66c-2.211 0-4 1.791-4 4s1.789 4 4 4z"/><path d="m156 204c6.617 0 12-5.383 12-12s-5.383-12-12-12-12 5.383-12 12 5.383 12 12 12zm0-16c2.207 0 4 1.795 4 4s-1.793 4-4 4-4-1.795-4-4 1.793-4 4-4z"/><path d="m194 92c5.48 0 10.371-3.219 12.648-8h22.703c2.277 4.781 7.168 8 12.648 8 7.719 0 14-6.281 14-14 0-2.096-.469-4.129-1.375-6 .906-1.871 1.375-3.904 1.375-6 0-7.719-6.281-14-14-14-5.48 0-10.371 3.219-12.648 8h-22.703c-2.277-4.781-7.168-8-12.648-8-7.719 0-14 6.281-14 14 0 2.096.469 4.129 1.375 6-.906 1.871-1.375 3.904-1.375 6 0 7.719 6.281 14 14 14zm-4.766-22.416c-.562-.744-1.234-1.969-1.234-3.584 0-3.309 2.691-6 6-6 2.84 0 5.312 2.018 5.875 4.795.379 1.865 2.02 3.205 3.922 3.205h28.406c1.902 0 3.543-1.34 3.922-3.205.563-2.777 3.035-4.795 5.875-4.795 3.309 0 6 2.691 6 6 0 1.615-.672 2.84-1.234 3.584-1.082 1.43-1.082 3.402 0 4.832.562.744 1.234 1.969 1.234 3.584 0 3.309-2.691 6-6 6-2.84 0-5.312-2.018-5.875-4.795-.379-1.865-2.02-3.205-3.922-3.205h-28.406c-1.902 0-3.543 1.34-3.922 3.205-.563 2.777-3.035 4.795-5.875 4.795-3.309 0-6-2.691-6-6 0-1.615.672-2.84 1.234-3.584 1.082-1.43 1.082-3.402 0-4.832z"/><path d="m188 104h40c2.211 0 4-1.791 4-4s-1.789-4-4-4h-40c-2.211 0-4 1.791-4 4s1.789 4 4 4z"/><path d="m212 108h-24c-2.211 0-4 1.791-4 4s1.789 4 4 4h24c2.211 0 4-1.791 4-4s-1.789-4-4-4z"/><path d="m244 108h-20c-2.211 0-4 1.791-4 4s1.789 4 4 4h20c2.211 0 4-1.791 4-4s-1.789-4-4-4z"/></g></svg>