<svg id="light" enable-background="new 0 0 300 300" height="512" viewBox="0 0 300 300" width="512" xmlns="http://www.w3.org/2000/svg"><g><path d="m220 62.529c2.501 0 4.53-2.028 4.53-4.529 0-2.502-2.028-4.53-4.53-4.53s-4.53 2.028-4.53 4.53c0 2.501 2.029 4.529 4.53 4.529z"/><path d="m234 116c6.617 0 12-5.383 12-12s-5.383-12-12-12-12 5.383-12 12 5.383 12 12 12zm0-16c2.207 0 4 1.795 4 4s-1.793 4-4 4-4-1.795-4-4 1.793-4 4-4z"/><path d="m87.812 98.283 61.684 37.133c.629.377 1.34.572 2.062.572.324 0 .645-.039.965-.117 1.031-.256 1.914-.91 2.461-1.82 5.512-9.154 7.129-19.906 4.551-30.275-1.927-7.752-6.026-14.594-11.796-19.858l15.953-15.953 18.308-.383v10.418c0 5.514 4.484 10 10 10s10-4.486 10-10v-42c0-2.209-1.789-4-4-4s-4 1.791-4 4v42c0 1.104-.898 2-2 2s-2-.896-2-2v-42c0-2.209-1.789-4-4-4s-4 1.791-4 4v23.578l-20.082.422c-1.035.023-2.016.441-2.746 1.172l-17.926 17.926c-9.132-5.459-19.833-7.067-30.176-4.496-10.367 2.578-19.113 9.037-24.621 18.191-.547.908-.711 1.998-.457 3.027.258 1.03.91 1.914 1.82 2.463zm25.188-15.918c8.305-2.07 16.902-.77 24.219 3.641 7.324 4.408 12.492 11.404 14.551 19.699 1.738 6.986 1.094 14.191-1.785 20.666l-54.41-32.752c4.374-5.576 10.441-9.517 17.425-11.254z"/><path d="m266 260h-12v-48h4c8.824 0 16-7.178 16-16 0-5.896-3.241-10.999-8-13.775v-9.251c0-7.154-5.82-12.975-12.973-12.975h-78.504c-4.383-7.365-12.371-12-21.016-12h-46.902c-6.856 0-12.897 3.399-16.645 8.564-3.778-5.164-9.838-8.563-16.714-8.563h-19.246c-.031 0-.057.017-.088.018-3.653-4.839-9.396-8.018-15.912-8.018-2.211 0-4 1.791-4 4v30.707c0 2.391.685 4.606 1.795 6.547-5.75 2.428-9.795 8.123-9.795 14.746 0 8.822 7.176 16 16 16v48h-8c-2.211 0-4 1.791-4 4s1.789 4 4 4h232c2.211 0 4-1.791 4-4s-1.789-4-4-4zm-20 0h-4v-48h4zm-12-48v48h-172v-48zm-61.891-44h80.918c2.742 0 4.973 2.232 4.973 4.975v7.025h-84.737c.448-1.257.737-2.591.737-4 0-3.24-1.303-6.173-3.397-8.334.474.195.974.334 1.506.334zm-78.109.605c0-6.951 5.656-12.605 12.605-12.605h46.902c6.402 0 12.277 3.793 14.965 9.664.071.155.183.278.271.42-1.923-1.312-4.243-2.084-6.743-2.084h-60c-2.211 0-4 1.791-4 4s1.789 4 4 4h60c2.207 0 4 1.795 4 4s-1.793 4-4 4h-68v-11.244zm-20.754-12.605c7.031 0 12.754 5.723 12.754 12.756v11.244h-28v-20c0-1.37-.141-2.707-.404-4zm-31.246-7.314c4.656 1.65 8 6.1 8 11.314v20h-2.707c-2.918 0-5.293-2.375-5.293-5.293zm-8 47.314c0-4.412 3.59-8 8-8h216c4.41 0 8 3.588 8 8s-3.59 8-8 8h-216c-4.41 0-8-3.588-8-8zm16 16h4v48h-4z"/></g></svg>