<svg id="nurse-back" enable-background="new 0 0 300 300" height="512" viewBox="0 0 300 300" width="512" xmlns="http://www.w3.org/2000/svg"><g><path d="m198 38c-2.209 0-4 1.791-4 4s1.791 4 4 4c0 2.209 1.791 4 4 4s4-1.791 4-4c2.209 0 4-1.791 4-4s-1.791-4-4-4c0-2.209-1.791-4-4-4s-4 1.791-4 4z"/><path d="m86 130c6.617 0 12-5.383 12-12s-5.383-12-12-12-12 5.383-12 12 5.383 12 12 12zm0-16c2.205 0 4 1.795 4 4s-1.795 4-4 4-4-1.795-4-4 1.795-4 4-4z"/><path d="m134.397 76.369c2.362 0 4.276-1.915 4.276-4.276 0-2.362-1.915-4.277-4.276-4.277s-4.277 1.915-4.277 4.277 1.915 4.276 4.277 4.276z"/><path d="m77.375 77.047c.781.781 1.805 1.172 2.828 1.172s2.047-.391 2.828-1.172l3.172-3.172 3.172 3.172c.781.781 1.805 1.172 2.828 1.172s2.047-.391 2.828-1.172c1.562-1.562 1.562-4.094 0-5.656l-3.172-3.172 3.172-3.172c1.562-1.562 1.562-4.094 0-5.656s-4.094-1.562-5.656 0l-3.172 3.172-3.172-3.172c-1.562-1.562-4.094-1.562-5.656 0s-1.562 4.094 0 5.656l3.172 3.172-3.172 3.172c-1.563 1.562-1.563 4.093 0 5.656z"/><path d="m266 266h-12v-48h4c8.822 0 16-7.178 16-16 0-5.895-3.241-10.999-8-13.774v-9.251c0-7.154-5.82-12.975-12.975-12.975h-11.025v-45.975c0-16.658-11.873-30.605-28-33.469v-1.242c4.656-1.65 8-6.1 8-11.314v-19.67l3.945-23.672c.193-1.16-.133-2.346-.893-3.244-.759-.896-1.876-1.414-3.052-1.414h-40c-1.176 0-2.293.518-3.053 1.414-.76.898-1.086 2.084-.893 3.244l3.946 23.672v19.67c0 5.215 3.344 9.664 8 11.314v1.232c-15.303 2.718-26.857 15.451-27.895 31.293l-.105 8.161h-16c-6.617 0-12 5.383-12 12s5.383 12 12 12h32v16h-3.479c-4.381-7.365-12.369-12-21.014-12h-46.902c-6.855 0-12.897 3.4-16.646 8.565-3.778-5.166-9.838-8.565-16.715-8.565h-25.951c-7.33 0-13.293 5.963-13.293 13.293v20.868c-4.912 2.833-8 8.054-8 13.839 0 8.822 7.178 16 16 16v48h-8c-2.209 0-4 1.791-4 4s1.791 4 4 4h232c2.209 0 4-1.791 4-4s-1.791-4-4-4zm-20 0h-4v-48h4zm-148-48v16c0 6.617 5.383 12 12 12s12-5.383 12-12v-16h57.633l2.181 48h-119.814v-48zm89.641 0h10.359v48h-8.177zm18.359 0h10.359l-2.181 48h-8.178zm18.367 0h9.633v48h-11.814zm33.633-8h-136v-16h136c4.412 0 8 3.588 8 8s-3.588 8-8 8zm-48-132c-2.209 0-4 1.791-4 4v12c0 2.205-1.795 4-4 4s-4-1.795-4-4v-12c0-2.209-1.791-4-4-4-2.205 0-4-1.795-4-4v-16h24v16c0 2.205-1.795 4-4 4zm-8-44h15.277l-2.666 16h-12.611-12.612l-2.666-16zm-60 104c0-2.205 1.795-4 4-4h4v8h-4c-2.205 0-4-1.795-4-4zm44 12v-4-20c0-2.209-1.791-4-4-4s-4 1.791-4 4v16h-20v-8h8c2.209 0 4-1.791 4-4l-.006-9.773.098-1.924c.761-11.6 8.97-20.974 19.985-23.54.313 4.869 3.51 8.927 7.923 10.5v28.737c0 2.209 1.791 4 4 4s4-1.791 4-4v-28.737c4.43-1.58 7.637-5.663 7.929-10.557 11.642 2.702 20.071 13.045 20.071 25.319v45.975h-8v-44c0-2.209-1.791-4-4-4s-4 1.791-4 4v44h-32zm-92 24.605c0-6.951 5.654-12.605 12.605-12.605h46.902c6.404 0 12.279 3.793 14.965 9.664.65 1.424 2.072 2.336 3.637 2.336h80.916c2.742 0 4.975 2.232 4.975 4.975v7.025h-136v-8c0-2.209-1.791-4-4-4s-4 1.791-4 4v56c0 2.205-1.795 4-4 4s-4-1.795-4-4v-56c0-2.209-1.791-4-4-4s-4 1.791-4 4v8h-4v-11.244zm-8 .151v11.244h-28v-4-20h15.244c7.033 0 12.756 5.723 12.756 12.756zm-44-7.463c0-2.918 2.375-5.293 5.293-5.293h2.707v20c0 5.215-3.344 9.664-8 11.314zm-8 34.707c0-.821.127-1.618.361-2.374.625 1.395 2.012 2.374 3.639 2.374 6.516 0 12.258-3.179 15.912-8.018.031.001.057.018.088.018h36 8v16h-56c-4.412 0-8-3.588-8-8zm16 16h4v48h-4z"/></g></svg>