<svg id="nurse" enable-background="new 0 0 300 300" height="512" viewBox="0 0 300 300" width="512" xmlns="http://www.w3.org/2000/svg"><g><path d="m266 256h-27.815l2.223-48.888c.945-.732 1.592-1.825 1.592-3.112v-4.686c1.25.443 2.598.686 4 .686 6.617 0 12-5.383 12-12v-57.975c0-16.455-12.076-30.605-28-33.48v-1.231c4.656-1.65 8-6.1 8-11.314v-19.67l3.945-23.672c.195-1.16-.133-2.346-.895-3.244-.757-.896-1.874-1.414-3.05-1.414h-40c-1.176 0-2.293.518-3.051 1.414-.762.898-1.09 2.084-.895 3.244l3.946 23.672v19.67c0 5.215 3.344 9.664 8 11.314v1.225c-15.312 2.71-26.854 15.426-27.895 31.297l-.105 8.164h-16c-6.617 0-12 5.383-12 12s5.383 12 12 12h32v44c0 1.287.647 2.38 1.591 3.112l2.224 48.888h-163.815c-2.211 0-4 1.791-4 4s1.789 4 4 4h232c2.211 0 4-1.791 4-4s-1.789-4-4-4zm-33.641-48-2.183 48h-8.176v-48zm13.641-16c-2.207 0-4-1.795-4-4v-4h8v4c0 2.205-1.793 4-4 4zm-20-104c-2.211 0-4 1.791-4 4v12c0 2.205-1.793 4-4 4s-4-1.795-4-4v-12c0-2.209-1.789-4-4-4-2.207 0-4-1.795-4-4v-16h24v16c0 2.205-1.793 4-4 4zm-8-44h15.277l-2.666 16h-12.611-12.612l-2.666-16zm-60 104c0-2.205 1.793-4 4-4h4v8h-4c-2.207 0-4-1.795-4-4zm16 4v-8h8c2.211 0 4-1.791 4-4l-.004-9.77.098-1.928c.76-11.624 8.959-20.987 19.983-23.547.31 4.872 3.509 8.933 7.924 10.507v28.738c0 2.209 1.789 4 4 4s4-1.791 4-4v-28.737c4.426-1.578 7.631-5.656 7.927-10.544 11.506 2.727 20.072 13.188 20.072 25.306v45.975h-8v-44c0-2.209-1.789-4-4-4s-4 1.791-4 4v68h-32v-64c0-2.209-1.789-4-4-4s-4 1.791-4 4v16zm29.64 56h10.36v48h-8.176z"/><path d="m115.724 190c0 2.362 1.915 4.276 4.276 4.276s4.276-1.915 4.276-4.276-1.915-4.277-4.276-4.277-4.276 1.915-4.276 4.277z"/><path d="m82 201.852c0-2.209-1.789-4-4-4s-4 1.791-4 4v5.66c0 2.209 1.789 4 4 4s4-1.791 4-4z"/><path d="m78 220.488c-2.211 0-4 1.791-4 4v5.66c0 2.209 1.789 4 4 4s4-1.791 4-4v-5.66c0-2.209-1.789-4-4-4z"/><path d="m63.852 212c-2.211 0-4 1.791-4 4s1.789 4 4 4h5.66c2.211 0 4-1.791 4-4s-1.789-4-4-4z"/><path d="m86.488 212c-2.211 0-4 1.791-4 4s1.789 4 4 4h5.66c2.211 0 4-1.791 4-4s-1.789-4-4-4z"/><path d="m158 224c6.617 0 12-5.383 12-12s-5.383-12-12-12-12 5.383-12 12 5.383 12 12 12zm0-16c2.207 0 4 1.795 4 4s-1.793 4-4 4-4-1.795-4-4 1.793-4 4-4z"/><path d="m214 48c-2.211 0-4 1.791-4 4s1.789 4 4 4c0 2.209 1.789 4 4 4s4-1.791 4-4c2.211 0 4-1.791 4-4s-1.789-4-4-4c0-2.209-1.789-4-4-4s-4 1.791-4 4z"/><path d="m68.164 128.111 48.391.322 18.84 18.84c.766.766 1.789 1.172 2.828 1.172.516 0 1.035-.1 1.531-.305 1.496-.619 2.469-2.078 2.469-3.695v-16.334h2.031c9.906 0 17.969-8.035 17.969-17.91v-51.847c0-9.875-8.062-17.908-17.969-17.908h-76.063c-9.906 0-17.969 8.033-17.969 17.908v51.848c.001 9.874 8.063 17.909 17.942 17.909zm-9.941-69.757c0-5.463 4.473-9.908 9.969-9.908h76.062c5.496 0 9.969 4.445 9.969 9.908v51.848c0 5.465-4.473 9.91-9.969 9.91h-6.031c-2.211 0-4 1.791-4 4v10.678l-13.172-13.172c-.742-.744-1.75-1.164-2.801-1.172l-50.059-.334c-5.496 0-9.969-4.445-9.969-9.91v-51.848z"/><path d="m86 96h8v8c0 2.209 1.789 4 4 4h16c2.211 0 4-1.791 4-4v-8h8c2.211 0 4-1.791 4-4v-16c0-2.209-1.789-4-4-4h-8v-8c0-2.209-1.789-4-4-4h-16c-2.211 0-4 1.791-4 4v8h-8c-2.211 0-4 1.791-4 4v16c0 2.209 1.789 4 4 4zm4-16h8c2.211 0 4-1.791 4-4v-8h8v8c0 2.209 1.789 4 4 4h8v8h-8c-2.211 0-4 1.791-4 4v8h-8v-8c0-2.209-1.789-4-4-4h-8z"/></g></svg>