<svg id="vaccine" enable-background="new 0 0 300 300" height="512" viewBox="0 0 300 300" width="512" xmlns="http://www.w3.org/2000/svg"><g><path d="m178.484 201.516c-1.562-1.562-4.094-1.562-5.656 0l-2.828 2.828-2.828-2.828c-1.562-1.562-4.094-1.562-5.656 0s-1.562 4.094 0 5.656l2.828 2.828-2.828 2.828c-1.562 1.562-1.562 4.094 0 5.656.781.781 1.805 1.172 2.828 1.172s2.047-.391 2.828-1.172l2.828-2.828 2.828 2.828c.781.781 1.805 1.172 2.828 1.172s2.047-.391 2.828-1.172c1.562-1.562 1.562-4.094 0-5.656l-2.828-2.828 2.828-2.828c1.563-1.563 1.563-4.094 0-5.656z"/><path d="m244 219.47c-2.501 0-4.53 2.028-4.53 4.53 0 2.501 2.028 4.529 4.53 4.529s4.53-2.028 4.53-4.529c0-2.502-2.029-4.53-4.53-4.53z"/><path d="m170 78c6.617 0 12-5.383 12-12s-5.383-12-12-12-12 5.383-12 12 5.383 12 12 12zm0-16c2.207 0 4 1.795 4 4s-1.793 4-4 4-4-1.795-4-4 1.793-4 4-4z"/><path d="m238 258h-111.804l3.804-79.6v-16.4h12c2.211 0 4-1.791 4-4v-31.791c0-15.454-12.534-28.031-28-28.194v-4.701c4.656-1.65 8-6.1 8-11.314v-24.506c0-10.75-8.746-19.494-19.496-19.494h-24.504c-2.211 0-4 1.791-4 4v5.854c0 5.589 3.284 10.387 8 12.683v21.463c0 5.215 3.344 9.664 8 11.314v4.701c-15.466.163-28 12.74-28 28.194v52.908c0 6 4.883 10.883 10.883 10.883h2.234c1.188 0 2.336-.191 3.406-.547l3.28 68.547h-39.803c-2.211 0-4 1.791-4 4s1.789 4 4 4h192c2.211 0 4-1.791 4-4s-1.789-4-4-4zm-115.998-88h-32.002v-18.883c0 6 4.883 10.883 10.883 10.883h21.117zm7.998-28v-31.857c4.859 3.695 8 9.523 8 16.066v27.791h-37.117c-1.59 0-2.883-1.293-2.883-2.883v-2.234c0-1.59 1.293-2.883 2.883-2.883h25.117c2.211 0 4-1.791 4-4zm-12-60c0 2.205-1.793 4-4 4-2.211 0-4 1.791-4 4v16c0 2.205-1.793 4-4 4s-4-1.795-4-4v-16c0-2.209-1.789-4-4-4-2.207 0-4-1.795-4-4v-20h24zm-32-36h20.504c5.121 0 9.473 3.365 10.953 8h-25.312c-3.387 0-6.145-2.758-6.145-6.146zm8.003 60.03c.017 6.603 5.39 11.97 11.997 11.97 6.612 0 11.99-5.374 11.998-11.984 1.37.02 2.71.163 4.002.441v31.543h-21.117c-6 0-10.883 4.883-10.883 10.883v-18.883c0-2.209-1.789-4-4-4s-4 1.791-4 4v40h-8v-43.791c0-11.041 8.948-20.016 20.003-20.179zm-12.003 73.087c0 1.59-1.293 2.883-2.883 2.883h-2.234c-1.59 0-2.883-1.293-2.883-2.883v-1.117h8.08c-.014.138-.08.259-.08.4zm28 78.883v-64c0-2.209-1.789-4-4-4s-4 1.791-4 4v64h-8.188l-3.816-79.791c-.004-.074-.043-.136-.05-.209h32.058v.209l-3.816 79.791z"/><path d="m254 50h-16v-8h4c2.211 0 4-1.791 4-4s-1.789-4-4-4h-16c-2.211 0-4 1.791-4 4s1.789 4 4 4h4v8h-16c-2.211 0-4 1.791-4 4s1.789 4 4 4h4v48c0 2.209 1.789 4 4 4h8v12c0 2.209 1.789 4 4 4s4-1.791 4-4v-12h8c2.211 0 4-1.791 4-4v-48h4c2.211 0 4-1.791 4-4s-1.789-4-4-4zm-24 8v8h-4v-8zm-4 44v-28h16v4h-4c-2.211 0-4 1.791-4 4s1.789 4 4 4h4v4h-4c-2.211 0-4 1.791-4 4s1.789 4 4 4h4v4zm16-36h-4v-8h4z"/><path d="m154 114h12.496c4.137 0 7.504 3.367 7.504 7.504v28.346c0 11.111 9.039 20.15 20.152 20.15h23.695c11.113 0 20.152-9.039 20.152-20.15v-15.85c0-2.209-1.789-4-4-4s-4 1.791-4 4v15.85c0 6.699-5.453 12.15-12.152 12.15h-23.695c-6.699 0-12.152-5.451-12.152-12.15v-28.346c0-8.549-6.953-15.504-15.504-15.504h-12.496c-2.211 0-4 1.791-4 4s1.789 4 4 4z"/></g></svg>