<?xml version="1.0" encoding="UTF-8"?><svg id="Layer_2" xmlns="http://www.w3.org/2000/svg" viewBox="0 0 40.99 40.99"><defs><style>.cls-1{fill:#252626;}</style></defs><g id="Layer_1-2"><g><path class="cls-1" d="M20.49,13.53c-3.84,0-6.96,3.12-6.96,6.96s3.12,6.96,6.96,6.96,6.96-3.12,6.96-6.96-3.12-6.96-6.96-6.96Zm0,9.66c-1.49,0-2.69-1.21-2.69-2.69s1.21-2.69,2.69-2.69,2.69,1.21,2.69,2.69-1.21,2.69-2.69,2.69Z"/><path class="cls-1" d="M20.49,8.16c-6.8,0-12.34,5.53-12.34,12.34s5.53,12.34,12.34,12.34,12.34-5.53,12.34-12.34-5.53-12.34-12.34-12.34Zm0,22.54c-5.63,0-10.2-4.58-10.2-10.2s4.58-10.2,10.2-10.2,10.2,4.58,10.2,10.2-4.58,10.2-10.2,10.2Z"/><path class="cls-1" d="M40.94,21.89c.03-.46,.05-.93,.05-1.4v-.05h-1.89c0-.42-.02-.84-.05-1.26l1.89-.13c-.03-.46-.08-.93-.14-1.39l-1.87,.26c-.06-.42-.13-.84-.22-1.25l1.85-.39c-.1-.45-.21-.91-.33-1.36l-1.82,.51c-.12-.41-.24-.81-.38-1.21l1.78-.64c-.16-.44-.33-.87-.52-1.3l-1.74,.76c-.17-.39-.35-.77-.55-1.14l1.68-.88c-.21-.41-.45-.82-.69-1.22l-1.62,.99c-.22-.36-.46-.71-.7-1.06l1.55-1.1c-.27-.38-.55-.75-.85-1.11l-1.47,1.2c-.27-.33-.55-.64-.84-.95l1.39-1.3c-.32-.34-.65-.67-.99-.99l-1.29,1.39c-.31-.29-.63-.57-.96-.83l1.2-1.47c-.36-.29-.74-.58-1.12-.84l-1.09,1.55c-.35-.24-.7-.48-1.06-.7l.98-1.62c-.4-.24-.81-.47-1.22-.68l-.87,1.69c-.38-.19-.76-.38-1.15-.55l.75-1.74c-.43-.18-.87-.36-1.3-.51l-.63,1.79c-.4-.14-.8-.27-1.21-.38l.51-1.83c-.45-.12-.91-.23-1.36-.33l-.38,1.85c-.41-.08-.83-.15-1.25-.21l.25-1.88c-.46-.06-.93-.11-1.39-.14l-.12,1.89c-.41-.03-.82-.05-1.23-.05h-.04V0c-.47,0-.94,.02-1.4,.05l.13,1.89c-.42,.03-.85,.07-1.26,.13l-.26-1.87c-.46,.06-.92,.14-1.38,.24l.39,1.85c-.42,.09-.83,.19-1.23,.31l-.51-1.82c-.45,.13-.9,.27-1.33,.43l.64,1.78c-.4,.14-.79,.3-1.18,.47l-.76-1.74c-.42,.19-.85,.39-1.26,.6l.88,1.68c-.38,.2-.75,.4-1.11,.62l-.99-1.62c-.4,.24-.79,.5-1.17,.77l1.1,1.55c-.35,.25-.68,.5-1.01,.77l-1.2-1.47c-.36,.29-.71,.6-1.05,.92l1.3,1.39c-.31,.29-.61,.59-.9,.9l-1.39-1.3c-.32,.34-.63,.69-.92,1.05l1.47,1.2c-.27,.33-.52,.67-.77,1.01l-1.55-1.09c-.27,.38-.53,.77-.77,1.17l1.62,.98c-.22,.36-.42,.73-.62,1.11l-1.69-.87c-.21,.41-.42,.84-.6,1.27l1.74,.75c-.17,.39-.32,.78-.47,1.18l-1.79-.63c-.16,.44-.3,.89-.42,1.33l1.83,.51c-.11,.41-.22,.82-.3,1.23l-1.85-.38c-.09,.45-.17,.92-.23,1.38l1.88,.25c-.06,.42-.1,.84-.13,1.26l-1.89-.12c-.03,.45-.05,.91-.05,1.37v.02H1.89c0,.43,.02,.85,.05,1.27l-1.89,.13c.03,.46,.08,.93,.14,1.39l1.88-.26c.06,.42,.13,.84,.21,1.25l-1.85,.38c.09,.45,.21,.91,.33,1.36l1.82-.51c.12,.41,.24,.81,.38,1.21l-1.78,.64c.16,.44,.33,.87,.51,1.3l1.74-.76c.17,.39,.35,.77,.55,1.14l-1.68,.88c.21,.41,.45,.82,.69,1.22l1.62-.99c.22,.36,.46,.71,.7,1.06l-1.55,1.1c.27,.38,.55,.75,.85,1.11l1.47-1.2c.27,.33,.55,.65,.84,.95l-1.39,1.3c.32,.34,.65,.67,.99,.99l1.3-1.39c.31,.29,.63,.57,.96,.84l-1.2,1.47c.36,.29,.74,.58,1.11,.85l1.1-1.55c.35,.24,.7,.48,1.06,.7l-.98,1.62c.4,.24,.81,.47,1.22,.69l.87-1.69c.38,.19,.76,.38,1.15,.55l-.75,1.74c.43,.19,.87,.36,1.3,.51l.63-1.79c.4,.14,.8,.27,1.21,.38l-.51,1.83c.45,.12,.9,.24,1.36,.33l.38-1.85c.41,.09,.83,.15,1.25,.21l-.25,1.88c.46,.06,.93,.11,1.39,.14l.13-1.89c.42,.03,.83,.05,1.26,.05h.01v1.89c.47,0,.94-.02,1.4-.05l-.13-1.89c.43-.03,.85-.07,1.26-.13l.26,1.88c.46-.06,.92-.14,1.38-.24l-.38-1.85c.42-.09,.83-.19,1.23-.31l.51,1.83c.45-.13,.9-.27,1.33-.42l-.64-1.78c.4-.14,.79-.3,1.18-.47l.76,1.74c.43-.19,.85-.39,1.26-.6l-.88-1.68c.38-.2,.75-.4,1.11-.62l.99,1.62c.4-.24,.79-.5,1.17-.77l-1.1-1.55c.35-.24,.68-.5,1.01-.77l1.2,1.47c.36-.29,.71-.6,1.05-.92l-1.3-1.39c.31-.29,.61-.59,.9-.9l1.39,1.3c.32-.34,.63-.69,.92-1.05l-1.47-1.2c.27-.33,.52-.67,.77-1.01l1.55,1.1c.27-.38,.53-.77,.77-1.17l-1.62-.99c.22-.36,.42-.73,.62-1.11l1.68,.87c.21-.41,.42-.84,.6-1.26l-1.74-.76c.17-.39,.33-.78,.47-1.18l1.79,.63c.16-.44,.3-.89,.42-1.33l-1.83-.51c.11-.41,.22-.82,.3-1.23l1.85,.38c.09-.45,.17-.92,.24-1.38l-1.88-.26c.06-.42,.1-.84,.13-1.26l1.89,.13Zm-20.45,14.01c-8.49,0-15.4-6.91-15.4-15.4S12,5.09,20.49,5.09s15.4,6.91,15.4,15.4-6.91,15.4-15.4,15.4Z"/></g></g></svg>