<?xml version="1.0" encoding="UTF-8"?><svg id="Layer_2" xmlns="http://www.w3.org/2000/svg" viewBox="0 0 54.21 54.11"><defs><style>.cls-1{fill:#fff;}</style></defs><g id="Layer_1-2"><g><path class="cls-1" d="M27.1,12.23c-8.14,0-14.77,6.62-14.77,14.77s6.62,14.77,14.77,14.77,14.77-6.62,14.77-14.77-6.62-14.77-14.77-14.77Zm0,27.03c-6.76,0-12.26-5.5-12.26-12.26s5.5-12.26,12.26-12.26,12.26,5.5,12.26,12.26-5.5,12.26-12.26,12.26Z"/><path class="cls-1" d="M27.1,16.39c-5.85,0-10.61,4.76-10.61,10.61s4.76,10.61,10.61,10.61,10.62-4.76,10.62-10.61-4.76-10.61-10.62-10.61Zm0,20.45c-5.42,0-9.83-4.41-9.83-9.83s4.41-9.83,9.83-9.83,9.83,4.41,9.83,9.83-4.41,9.83-9.83,9.83Z"/><path class="cls-1" d="M27.1,7.77c-10.6,0-19.23,8.63-19.23,19.23s8.63,19.23,19.23,19.23,19.23-8.63,19.23-19.23S37.71,7.77,27.1,7.77Zm0,37.68c-10.17,0-18.45-8.28-18.45-18.45S16.93,8.55,27.1,8.55s18.45,8.28,18.45,18.45-8.28,18.45-18.45,18.45Z"/><path class="cls-1" d="M27.1,21.95c-2.79,0-5.05,2.26-5.05,5.05s2.26,5.05,5.05,5.05,5.05-2.26,5.05-5.05-2.26-5.05-5.05-5.05Z"/><path class="cls-1" d="M53.86,31.37c.23-1.44,.35-2.91,.35-4.37v-.07h-1.52c0-1.8-.2-3.56-.56-5.26l1.49-.32c-.3-1.43-.73-2.85-1.26-4.21l-1.43,.56c-.65-1.66-1.47-3.24-2.43-4.71l1.28-.84c-.8-1.22-1.71-2.39-2.69-3.46l-1.13,1.03c-1.19-1.3-2.52-2.48-3.96-3.51l.9-1.25c-1.19-.85-2.45-1.62-3.76-2.26l-.68,1.37c-1.57-.78-3.23-1.41-4.96-1.86l.38-1.47c-1.41-.36-2.87-.61-4.33-.75l-.14,1.52c-.76-.07-1.53-.11-2.32-.11-1.01,0-2,.07-2.98,.18l-.18-1.51c-1.45,.17-2.9,.46-4.31,.86l.42,1.47c-1.72,.49-3.36,1.16-4.91,1.98l-.72-1.35c-1.29,.68-2.53,1.48-3.7,2.36l.93,1.22c-1.41,1.07-2.7,2.29-3.86,3.62l-1.16-1.01c-.96,1.1-1.83,2.29-2.6,3.53l1.3,.81c-.93,1.49-1.7,3.09-2.31,4.77l-1.43-.52c-.49,1.37-.88,2.8-1.15,4.24l1.5,.28c-.28,1.52-.43,3.08-.43,4.67,0,.2,.01,.41,.02,.61l-1.52,.04c.03,1.46,.19,2.93,.45,4.36l1.5-.28c.33,1.76,.84,3.46,1.51,5.08l-1.41,.59c.56,1.35,1.23,2.66,2.01,3.9l1.3-.81c.94,1.51,2.03,2.91,3.25,4.18l-1.11,1.06c1.01,1.06,2.11,2.04,3.28,2.92l.92-1.22c1.41,1.06,2.92,1.98,4.53,2.74l-.65,1.38c1.32,.62,2.71,1.14,4.12,1.54l.42-1.47c1.68,.48,3.42,.79,5.22,.91l-.1,1.52c.62,.04,1.25,.06,1.87,.06,.84,0,1.68-.04,2.51-.11l-.14-1.52c1.79-.17,3.53-.51,5.2-1.03l.45,1.45c1.4-.43,2.77-.98,4.08-1.64l-.68-1.37c1.59-.8,3.08-1.75,4.46-2.85l.95,1.2c1.14-.91,2.22-1.91,3.21-2.99l-1.13-1.03c1.19-1.3,2.24-2.73,3.14-4.26l1.32,.78c.74-1.26,1.39-2.59,1.92-3.95l-1.43-.55c.63-1.63,1.11-3.34,1.4-5.11l1.5,.24Zm-1.79-4.43h-1.57c0-1.65-.18-3.26-.51-4.81l1.53-.32c.35,1.66,.54,3.38,.55,5.14Zm-24.97,20.95c-11.52,0-20.89-9.37-20.89-20.89S15.58,6.11,27.1,6.11s20.89,9.37,20.89,20.89-9.37,20.89-20.89,20.89Zm23.26-29.96l-1.46,.57c-.59-1.52-1.34-2.96-2.22-4.3l1.31-.86c.94,1.43,1.74,2.97,2.37,4.59Zm-4.85-7.78l-1.15,1.06c-1.09-1.19-2.31-2.27-3.62-3.21l.91-1.27c1.4,1.01,2.7,2.16,3.87,3.43Zm-7.32-5.52l-.7,1.4c-1.44-.71-2.95-1.29-4.53-1.7l.39-1.52c1.69,.44,3.31,1.05,4.84,1.81Zm-11.08-2.6c.76,0,1.51,.04,2.26,.11l-.14,1.56c-.7-.06-1.4-.1-2.12-.1-.92,0-1.83,.06-2.73,.16l-.18-1.56c.95-.11,1.92-.17,2.91-.17Zm-6.87,.97l.43,1.51c-1.57,.45-3.07,1.06-4.49,1.81l-.73-1.38c1.51-.8,3.12-1.45,4.79-1.93ZM12.04,7.11l.95,1.25c-1.29,.98-2.47,2.09-3.53,3.31l-1.18-1.03c1.13-1.3,2.39-2.49,3.77-3.53Zm-6.17,6.78l1.33,.82c-.85,1.37-1.56,2.82-2.11,4.36l-1.47-.53c.59-1.64,1.35-3.19,2.25-4.65Zm-3.73,13.11c0-1.56,.15-3.08,.42-4.56l1.54,.28c-.26,1.39-.4,2.81-.4,4.27,0,.19,0,.37,.01,.56l-1.57,.04c0-.2-.01-.39-.01-.59Zm.43,4.61l1.54-.29c.3,1.61,.77,3.16,1.38,4.64l-1.45,.6c-.66-1.58-1.15-3.23-1.47-4.95Zm3.33,8.54l1.33-.83c.86,1.38,1.85,2.66,2.97,3.83l-1.13,1.08c-1.19-1.25-2.25-2.61-3.17-4.08Zm6.18,6.77l.94-1.25c1.29,.97,2.67,1.81,4.15,2.5l-.67,1.42c-1.57-.74-3.05-1.64-4.42-2.67Zm8.21,4.09l.43-1.51c1.53,.44,3.13,.72,4.77,.83l-.11,1.56c-1.75-.12-3.46-.42-5.09-.89Zm9.13,.84l-.14-1.56c1.64-.15,3.23-.47,4.75-.94l.46,1.5c-1.63,.5-3.32,.84-5.07,1Zm8.82-2.52l-.7-1.4c1.45-.73,2.82-1.6,4.08-2.6l.97,1.23c-1.35,1.07-2.8,2-4.36,2.78Zm7.31-5.53l-1.16-1.06c1.09-1.19,2.05-2.5,2.88-3.9l1.35,.8c-.88,1.49-1.91,2.89-3.07,4.16Zm4.83-7.79l-1.46-.57c.58-1.49,1.01-3.05,1.28-4.67l1.55,.25c-.28,1.73-.74,3.4-1.36,4.99Z"/></g></g></svg>