<?xml version="1.0" encoding="UTF-8"?><svg id="Layer_2" xmlns="http://www.w3.org/2000/svg" viewBox="0 0 54.43 54.39"><defs><style>.cls-1{fill:#252626;}</style></defs><g id="Layer_1-2"><g><circle class="cls-1" cx="27.19" cy="27.24" r="8.12"/><path class="cls-1" d="M54.28,30.12c.1-.95,.15-1.92,.15-2.89v-.04h-4c0-1.78-.21-3.51-.6-5.17l3.9-.9c-.21-.94-.48-1.87-.8-2.78l-3.79,1.31c-.57-1.66-1.33-3.23-2.25-4.7l3.4-2.12c-.51-.81-1.06-1.61-1.66-2.36l-3.16,2.47c-1.07-1.37-2.29-2.62-3.64-3.72l2.53-3.11c-.74-.61-1.53-1.18-2.33-1.7l-2.19,3.36c-1.45-.95-3-1.74-4.65-2.34l1.38-3.75c-.9-.33-1.83-.62-2.76-.85l-.97,3.88c-1.66-.42-3.39-.65-5.16-.69L27.78,0c-.96-.02-1.93,0-2.88,.09l.33,3.99c-1.76,.15-3.48,.49-5.11,1.01l-1.22-3.81c-.91,.29-1.82,.64-2.7,1.02l1.62,3.67c-1.6,.71-3.11,1.59-4.5,2.62l-2.39-3.21c-.77,.57-1.52,1.19-2.22,1.84l2.72,2.95c-1.28,1.18-2.42,2.5-3.41,3.94l-3.3-2.27c-.54,.79-1.05,1.62-1.51,2.46l3.52,1.9c-.82,1.52-1.47,3.14-1.94,4.83l-3.86-1.07c-.26,.92-.46,1.87-.62,2.82l3.95,.65c-.2,1.24-.32,2.51-.32,3.8,0,.47,.02,.94,.05,1.4l-3.99,.24c.06,.96,.17,1.92,.32,2.87l3.95-.66c.29,1.74,.77,3.42,1.43,5l-3.7,1.53c.37,.89,.78,1.76,1.24,2.61l3.52-1.91c.84,1.53,1.84,2.96,2.99,4.26l-3.01,2.65c.63,.72,1.31,1.41,2.02,2.06l2.71-2.95c1.28,1.18,2.69,2.21,4.2,3.07l-1.99,3.48c.83,.48,1.7,.91,2.58,1.3l1.61-3.67c1.57,.69,3.24,1.21,4.97,1.54l-.74,3.93c.94,.18,1.9,.31,2.86,.39l.32-3.99c.63,.05,1.27,.08,1.91,.08,1.12,0,2.22-.08,3.3-.24l.56,3.96c.95-.13,1.9-.32,2.83-.56l-.98-3.88c1.71-.43,3.33-1.06,4.87-1.85l1.83,3.57c.85-.44,1.69-.93,2.5-1.45l-2.2-3.35c1.46-.96,2.8-2.07,4.01-3.32l2.89,2.79c.67-.69,1.3-1.42,1.89-2.18l-3.16-2.47c1.07-1.37,1.98-2.85,2.72-4.44l3.63,1.7c.41-.87,.77-1.77,1.08-2.68l-3.79-1.3c.56-1.62,.95-3.32,1.13-5.08l3.98,.42Zm-27.09,17.01c-10.97,0-19.89-8.92-19.89-19.89S16.22,7.35,27.19,7.35s19.89,8.92,19.89,19.89-8.92,19.89-19.89,19.89Z"/></g></g></svg>