<?xml version="1.0" encoding="UTF-8"?><svg id="Layer_2" xmlns="http://www.w3.org/2000/svg" viewBox="0 0 42.68 42.67"><defs><style>.cls-1{fill:#fff;}</style></defs><g id="Layer_1-2"><g><path class="cls-1" d="M21.33,7.81c-7.48,0-13.54,6.06-13.54,13.54s6.06,13.55,13.54,13.55,13.55-6.06,13.55-13.55-6.06-13.54-13.55-13.54Zm0,20.03c-3.58,0-6.48-2.91-6.48-6.49s2.9-6.48,6.48-6.48,6.49,2.9,6.49,6.48-2.9,6.49-6.49,6.49Z"/><path class="cls-1" d="M39.55,21.31c0-.9-.07-1.78-.2-2.65l3.1-.46c-.06-.4-.13-.8-.21-1.2l-3.07,.63c-.18-.87-.43-1.72-.73-2.54l2.95-1.08c-.14-.38-.29-.76-.45-1.13l-2.88,1.24c-.36-.81-.76-1.6-1.23-2.35l2.67-1.65c-.21-.34-.43-.69-.67-1.02l-2.58,1.8c-.5-.73-1.06-1.41-1.67-2.05l2.29-2.16c-.27-.29-.57-.59-.86-.87l-2.16,2.28c-.64-.62-1.32-1.18-2.05-1.68l1.81-2.57c-.33-.23-.67-.46-1.02-.67l-1.66,2.67c-.74-.47-1.53-.88-2.34-1.23l1.25-2.88c-.38-.16-.76-.31-1.13-.45l-1.09,2.95c-.82-.31-1.67-.55-2.55-.74l.64-3.07c-.39-.08-.8-.16-1.2-.22l-.46,3.1c-.86-.13-1.74-.2-2.64-.2V0h-.09c-.37,0-.74,0-1.11,.03l.17,3.13c-.9,.04-1.78,.16-2.63,.33l-.61-3.08c-.4,.08-.8,.17-1.19,.27l.79,3.03c-.86,.22-1.7,.52-2.51,.85l-1.22-2.88c-.38,.15-.74,.32-1.11,.5l1.39,2.82c-.8,.39-1.56,.84-2.28,1.34l-1.78-2.58c-.33,.23-.66,.47-.98,.72l1.93,2.48c-.7,.54-1.36,1.14-1.97,1.78l-2.27-2.18c-.28,.29-.55,.59-.81,.9l2.39,2.05c-.59,.67-1.11,1.38-1.58,2.13l-2.65-1.68c-.22,.34-.43,.69-.62,1.05l2.75,1.52c-.43,.77-.81,1.57-1.11,2.4l-2.94-1.11c-.14,.38-.27,.77-.39,1.16l2.99,.94c-.26,.83-.46,1.7-.6,2.58l-3.09-.49c-.06,.4-.11,.81-.16,1.21l3.12,.31c-.06,.6-.1,1.2-.1,1.82,0,.28,0,.55,.03,.83l-3.14,.14c.02,.41,.05,.81,.09,1.22l3.12-.32c.09,.89,.25,1.76,.46,2.61l-3.04,.76c.1,.39,.21,.79,.33,1.17l2.99-.94c.27,.85,.59,1.67,.98,2.46l-2.82,1.37c.18,.36,.37,.73,.56,1.08l2.75-1.53c.42,.78,.91,1.51,1.45,2.21l-2.49,1.92c.25,.32,.5,.64,.77,.94l2.38-2.05c.58,.67,1.2,1.3,1.87,1.88l-2.06,2.37c.31,.26,.62,.52,.94,.77l1.92-2.49c.7,.55,1.44,1.04,2.21,1.48l-1.54,2.73c.35,.2,.71,.39,1.08,.57l1.38-2.82c.79,.39,1.61,.73,2.46,1l-.95,2.98c.38,.12,.78,.24,1.17,.34l.78-3.03c.85,.22,1.72,.38,2.61,.46l-.33,3.12c.4,.04,.81,.08,1.22,.1l.15-3.13c.3,.02,.6,.03,.91,.03,.59,0,1.16-.03,1.74-.09l.3,3.12c.4-.04,.81-.09,1.21-.15l-.48-3.09c.88-.13,1.75-.34,2.59-.6l.92,3c.39-.12,.78-.25,1.15-.39l-1.09-2.94c.83-.31,1.64-.68,2.41-1.1l1.51,2.75c.35-.19,.71-.4,1.04-.61l-1.66-2.67c.75-.46,1.46-.99,2.13-1.57l2.04,2.4c.31-.26,.61-.53,.9-.81l-2.16-2.28c.64-.6,1.24-1.26,1.78-1.96l2.47,1.94c.25-.32,.49-.64,.73-.97l-2.58-1.8c.52-.73,.97-1.48,1.36-2.28l2.81,1.41c.18-.36,.36-.74,.52-1.11l-2.88-1.24c.35-.81,.64-1.64,.87-2.51l3.03,.8c.11-.39,.2-.79,.28-1.18l-3.07-.62c.17-.86,.29-1.74,.34-2.63l3.13,.18c.02-.4,.03-.81,.03-1.2v-.06h-3.13Zm-18.22,15.64c-8.6,0-15.59-6.99-15.59-15.59S12.73,5.76,21.33,5.76s15.59,6.99,15.59,15.59-6.99,15.59-15.59,15.59Z"/></g></g></svg>