<?xml version="1.0" encoding="UTF-8"?><svg id="Layer_2" xmlns="http://www.w3.org/2000/svg" viewBox="0 0 54.75 54.65"><defs><style>.cls-1{fill:#252626;}</style></defs><g id="Layer_1-2"><g><path class="cls-1" d="M27.37,12.36c-8.22,0-14.91,6.69-14.91,14.91s6.69,14.91,14.91,14.91,14.91-6.69,14.91-14.91-6.69-14.91-14.91-14.91Zm0,27.3c-6.83,0-12.38-5.55-12.38-12.38s5.55-12.38,12.38-12.38,12.38,5.55,12.38,12.38-5.55,12.38-12.38,12.38Z"/><path class="cls-1" d="M27.37,16.55c-5.91,0-10.72,4.81-10.72,10.72s4.81,10.72,10.72,10.72,10.72-4.81,10.72-10.72-4.81-10.72-10.72-10.72Zm0,20.65c-5.48,0-9.93-4.45-9.93-9.93s4.45-9.93,9.93-9.93,9.93,4.45,9.93,9.93-4.45,9.93-9.93,9.93Z"/><path class="cls-1" d="M27.37,7.85c-10.71,0-19.42,8.71-19.42,19.42s8.71,19.42,19.42,19.42,19.42-8.71,19.42-19.42S38.08,7.85,27.37,7.85Zm0,38.06c-10.27,0-18.63-8.36-18.63-18.63S17.1,8.64,27.37,8.64s18.63,8.36,18.63,18.63-8.36,18.63-18.63,18.63Z"/><path class="cls-1" d="M27.37,22.17c-2.82,0-5.1,2.28-5.1,5.1s2.28,5.1,5.1,5.1,5.1-2.28,5.1-5.1-2.28-5.1-5.1-5.1Z"/><path class="cls-1" d="M54.4,31.69c.24-1.45,.35-2.94,.35-4.42v-.07h-1.53c0-1.82-.2-3.6-.57-5.31l1.5-.32c-.31-1.44-.73-2.87-1.27-4.25l-1.44,.56c-.66-1.68-1.48-3.27-2.45-4.75l1.3-.85c-.81-1.23-1.72-2.41-2.72-3.5l-1.14,1.04c-1.21-1.32-2.55-2.5-4-3.55l.9-1.26c-1.2-.86-2.48-1.63-3.8-2.29l-.69,1.38c-1.59-.79-3.26-1.43-5.01-1.88l.38-1.49c-1.43-.37-2.9-.62-4.37-.75l-.14,1.53c-.77-.07-1.55-.11-2.34-.11-1.02,0-2.02,.07-3.01,.18l-.18-1.53c-1.47,.17-2.93,.46-4.35,.87l.42,1.48c-1.74,.5-3.4,1.17-4.96,2l-.72-1.37c-1.3,.69-2.56,1.49-3.74,2.38l.93,1.23c-1.42,1.08-2.73,2.31-3.9,3.66l-1.17-1.02c-.97,1.11-1.85,2.32-2.63,3.57l1.31,.81c-.94,1.51-1.72,3.12-2.33,4.82l-1.45-.52c-.5,1.39-.89,2.83-1.16,4.28l1.52,.28c-.28,1.53-.44,3.11-.44,4.72,0,.21,.01,.41,.02,.61l-1.54,.04c.03,1.48,.19,2.96,.46,4.41l1.51-.28c.33,1.78,.85,3.5,1.53,5.13l-1.42,.59c.57,1.36,1.25,2.69,2.03,3.94l1.31-.82c.95,1.52,2.05,2.93,3.28,4.22l-1.12,1.07c1.02,1.07,2.13,2.06,3.31,2.95l.93-1.23c1.42,1.07,2.95,2,4.58,2.77l-.66,1.4c1.34,.63,2.74,1.15,4.16,1.55l.42-1.49c1.69,.48,3.46,.79,5.27,.92l-.1,1.54c.62,.04,1.26,.06,1.89,.06,.85,0,1.7-.04,2.54-.12l-.14-1.53c1.81-.17,3.57-.52,5.25-1.04l.45,1.47c1.41-.44,2.79-.99,4.12-1.65l-.69-1.38c1.61-.8,3.12-1.77,4.51-2.88l.96,1.22c1.16-.92,2.25-1.93,3.24-3.02l-1.14-1.04c1.2-1.32,2.26-2.76,3.18-4.31l1.33,.79c.75-1.27,1.4-2.62,1.93-3.99l-1.44-.56c.64-1.65,1.12-3.37,1.41-5.16l1.52,.25Zm-1.81-4.47h-1.58c0-1.66-.18-3.29-.52-4.86l1.55-.33c.36,1.68,.55,3.41,.55,5.19Zm-25.21,21.16c-11.64,0-21.1-9.47-21.1-21.1S15.74,6.17,27.37,6.17s21.1,9.47,21.1,21.1-9.47,21.1-21.1,21.1Zm23.49-30.26l-1.47,.57c-.6-1.53-1.35-2.99-2.24-4.35l1.32-.87c.95,1.45,1.75,3,2.39,4.64Zm-4.9-7.86l-1.17,1.07c-1.1-1.2-2.33-2.29-3.66-3.25l.92-1.28c1.42,1.02,2.73,2.18,3.9,3.46Zm-7.4-5.57l-.7,1.42c-1.45-.72-2.98-1.3-4.58-1.72l.39-1.53c1.71,.44,3.34,1.06,4.89,1.83Zm-11.19-2.63c.77,0,1.53,.04,2.28,.11l-.14,1.58c-.71-.06-1.42-.1-2.14-.1-.93,0-1.85,.06-2.75,.17l-.18-1.57c.96-.11,1.94-.18,2.94-.18Zm-6.94,.98l.43,1.52c-1.59,.45-3.1,1.07-4.54,1.83l-.74-1.4c1.53-.81,3.15-1.47,4.84-1.95ZM12.16,7.18l.96,1.26c-1.3,.99-2.5,2.11-3.57,3.35l-1.19-1.04c1.14-1.32,2.42-2.51,3.81-3.57Zm-6.23,6.85l1.35,.83c-.85,1.38-1.57,2.85-2.13,4.4l-1.49-.54c.6-1.65,1.36-3.23,2.28-4.7Zm-3.77,13.24c0-1.57,.15-3.11,.43-4.6l1.56,.29c-.26,1.4-.4,2.84-.4,4.32,0,.19,0,.38,.01,.56l-1.58,.04c0-.2-.02-.4-.02-.6Zm.44,4.66l1.56-.29c.31,1.63,.77,3.2,1.4,4.69l-1.46,.61c-.66-1.59-1.16-3.27-1.49-5Zm3.36,8.63l1.34-.83c.87,1.39,1.87,2.68,3,3.86l-1.14,1.09c-1.2-1.26-2.28-2.64-3.2-4.12Zm6.24,6.84l.95-1.26c1.3,.98,2.7,1.83,4.19,2.53l-.67,1.43c-1.59-.75-3.08-1.65-4.47-2.7Zm8.29,4.13l.43-1.52c1.55,.44,3.16,.73,4.82,.84l-.11,1.58c-1.77-.12-3.49-.43-5.14-.9Zm9.22,.85l-.14-1.58c1.65-.15,3.26-.47,4.8-.95l.47,1.51c-1.64,.51-3.36,.85-5.12,1.01Zm8.9-2.54l-.71-1.42c1.47-.73,2.85-1.62,4.12-2.63l.98,1.24c-1.36,1.08-2.83,2.02-4.4,2.81Zm7.39-5.59l-1.17-1.07c1.1-1.2,2.07-2.53,2.9-3.94l1.36,.8c-.89,1.51-1.93,2.92-3.1,4.2Zm4.88-7.87l-1.48-.57c.58-1.5,1.02-3.08,1.29-4.72l1.56,.25c-.28,1.75-.75,3.43-1.37,5.04Z"/></g></g></svg>