<?xml version="1.0" encoding="UTF-8"?><svg id="Layer_2" xmlns="http://www.w3.org/2000/svg" viewBox="0 0 34.28 34.18"><defs><style>.cls-1{fill:#fff;}</style></defs><g id="Layer_1-2"><g><path class="cls-1" d="M17.14,13.62c-1.94,0-3.51,1.57-3.51,3.51s1.57,3.51,3.51,3.51,3.51-1.57,3.51-3.51-1.57-3.51-3.51-3.51Z"/><path class="cls-1" d="M17.14,5.09c6.64,0,12.05,5.4,12.05,12.05s-5.4,12.05-12.05,12.05-12.05-5.4-12.05-12.05S10.5,5.09,17.14,5.09m0-.5c-6.93,0-12.54,5.62-12.54,12.54s5.62,12.54,12.54,12.54,12.54-5.62,12.54-12.54-5.62-12.54-12.54-12.54h0Z"/><path class="cls-1" d="M33.9,20.7c.25-1.16,.37-2.36,.37-3.56v-.04h-2.02c0-1.07-.12-2.12-.34-3.13l1.98-.42c-.25-1.17-.62-2.32-1.11-3.41l-1.85,.83c-.44-.97-.97-1.88-1.59-2.73l1.64-1.2c-.7-.96-1.51-1.86-2.4-2.66l-1.35,1.51c-.78-.7-1.64-1.32-2.56-1.85l1.01-1.76c-1.04-.6-2.14-1.09-3.28-1.45l-.62,1.93c-.99-.32-2.02-.54-3.09-.65l.21-2.01c-1.18-.12-2.4-.12-3.58,0l.21,2.01c-1.07,.11-2.1,.34-3.09,.66l-.63-1.93c-1.14,.37-2.24,.86-3.27,1.46l1.02,1.75c-.92,.53-1.77,1.15-2.55,1.86l-1.36-1.5c-.89,.8-1.69,1.7-2.39,2.66l1.64,1.19c-.62,.85-1.15,1.77-1.58,2.73l-1.85-.82c-.49,1.09-.86,2.24-1.1,3.41l1.98,.42c-.21,1.01-.33,2.05-.33,3.13v.02H0c0,1.2,.13,2.4,.37,3.56l1.98-.42c.22,1.04,.56,2.05,.98,3l-1.85,.83c.49,1.09,1.09,2.13,1.8,3.1l1.64-1.2c.62,.85,1.33,1.64,2.12,2.35l-1.36,1.51c.89,.8,1.86,1.51,2.9,2.11l1.02-1.76c.91,.52,1.87,.96,2.88,1.29l-.62,1.93c1.14,.37,2.32,.62,3.51,.74l.21-2.01c.52,.05,1.04,.08,1.57,.08s1.07-.03,1.59-.08l.21,2.01c1.19-.12,2.37-.37,3.5-.74l-.63-1.93c1.01-.33,1.98-.76,2.88-1.29l1.02,1.76c1.03-.6,2.01-1.31,2.89-2.11l-1.36-1.51c.78-.71,1.49-1.49,2.11-2.35l1.64,1.19c.7-.97,1.31-2.01,1.79-3.1l-1.85-.83c.43-.95,.76-1.96,.98-3l1.98,.42Zm-16.77,10.33c-7.66,0-13.89-6.23-13.89-13.89S9.48,3.25,17.14,3.25s13.89,6.23,13.89,13.89-6.23,13.89-13.89,13.89Z"/></g></g></svg>