<?xml version="1.0" encoding="UTF-8"?><svg id="Layer_2" xmlns="http://www.w3.org/2000/svg" viewBox="0 0 68.44 68.25"><defs><style>.cls-1{fill:#252626;}</style></defs><g id="Layer_1-2"><g><path class="cls-1" d="M34.22,24.13c-5.56,0-10.09,4.53-10.09,10.09s4.53,10.09,10.09,10.09,10.09-4.53,10.09-10.09-4.53-10.09-10.09-10.09Zm0,19.36c-5.11,0-9.27-4.16-9.27-9.27s4.16-9.27,9.27-9.27,9.27,4.16,9.27,9.27-4.16,9.27-9.27,9.27Z"/><path class="cls-1" d="M34.22,27.82c-3.54,0-6.4,2.87-6.4,6.4s2.87,6.4,6.4,6.4,6.4-2.87,6.4-6.4-2.87-6.4-6.4-6.4Z"/><path class="cls-1" d="M34.22,18.6c-8.61,0-15.62,7.01-15.62,15.62s7.01,15.62,15.62,15.62,15.62-7.01,15.62-15.62-7.01-15.62-15.62-15.62Zm0,28.37c-7.03,0-12.75-5.72-12.75-12.75s5.72-12.75,12.75-12.75,12.75,5.72,12.75,12.75-5.72,12.75-12.75,12.75Z"/><path class="cls-1" d="M34.22,10.59c-13.03,0-23.63,10.6-23.63,23.63s10.6,23.63,23.63,23.63,23.63-10.6,23.63-23.63-10.6-23.63-23.63-23.63Zm0,45.62c-12.13,0-21.99-9.87-21.99-21.99S22.09,12.23,34.22,12.23s21.99,9.87,21.99,21.99-9.87,21.99-21.99,21.99Z"/><path class="cls-1" d="M63.79,34.16c0-2.11-.23-4.16-.66-6.15l4.55-.97c-.5-2.33-1.25-4.62-2.22-6.8l-4.26,1.91c-.85-1.89-1.89-3.68-3.1-5.34l3.77-2.75c-1.41-1.92-3.02-3.71-4.8-5.3l-3.12,3.47c-1.53-1.38-3.21-2.59-5-3.62l2.33-4.04c-2.07-1.19-4.27-2.17-6.54-2.9l-1.43,4.43c-1.94-.63-3.96-1.06-6.04-1.28l.47-4.62c-2.36-.24-4.79-.24-7.14,.01l.49,4.62c-2.09,.22-4.1,.66-6.04,1.3l-1.45-4.43c-2.27,.74-4.46,1.72-6.53,2.92l2.34,4.04c-1.79,1.04-3.46,2.26-4.99,3.64l-3.13-3.46c-1.77,1.6-3.38,3.39-4.78,5.32l3.78,2.74c-1.21,1.66-2.24,3.45-3.09,5.35l-4.26-1.89c-.97,2.18-1.71,4.47-2.2,6.81l4.55,.96c-.42,1.97-.64,4.02-.64,6.12v.03H0c0,2.4,.25,4.79,.75,7.11l4.55-.97c.44,2.04,1.09,4,1.92,5.87l-4.26,1.9c.97,2.17,2.18,4.26,3.59,6.19l3.77-2.75c1.22,1.67,2.6,3.21,4.14,4.59l-3.12,3.47c1.78,1.6,3.72,3.01,5.79,4.2l2.33-4.04c1.77,1.03,3.66,1.87,5.64,2.52l-1.44,4.43c2.27,.73,4.62,1.23,7,1.48l.48-4.62c1.01,.1,2.04,.16,3.08,.16s2.09-.06,3.11-.16l.48,4.62c2.38-.25,4.73-.75,7-1.48l-1.44-4.43c1.98-.65,3.86-1.5,5.64-2.52l2.34,4.04c2.06-1.19,4.01-2.61,5.78-4.21l-3.12-3.46c1.53-1.38,2.92-2.92,4.13-4.59l3.77,2.75c1.41-1.93,2.61-4.02,3.58-6.19l-4.26-1.9c.83-1.86,1.48-3.83,1.92-5.87l4.55,.96c.49-2.32,.74-4.72,.74-7.1v-.09l-4.65,.02Zm-29.57,28.4c-15.63,0-28.34-12.71-28.34-28.34S18.59,5.88,34.22,5.88s28.34,12.71,28.34,28.34-12.71,28.34-28.34,28.34Z"/></g></g></svg>