<svg xmlns="http://www.w3.org/2000/svg" viewBox="0 0 128 128" id="gesture"><path fill="none" stroke="#000000" stroke-linecap="round" stroke-linejoin="round" stroke-width="2" d="M22.6 25h14" class="colorStroke000000 svgStroke"></path><path d="m29.2 33.1 1.4-1.4-7.3-6.7 7.3-6.8-1.4-1.4-8.8 8.2z" fill="#41e1d4" class="color000000 svgShape"></path><path fill="none" stroke="#000000" stroke-linecap="round" stroke-linejoin="round" stroke-width="2" d="M84.8 25h-14" class="colorStroke000000 svgStroke"></path><path d="m78.2 16.8-1.4 1.4 7.2 6.7-7.2 6.8 1.4 1.4 8.8-8.2z" fill="#41e1d4" class="color000000 svgShape"></path><path fill="none" stroke="#000000" stroke-linecap="round" stroke-linejoin="round" stroke-miterlimit="10" stroke-width="2" d="M39.6 37.4c-1.3-1.9-2.3-4.1-2.7-6.5-1.8-9.3 4.3-18.2 13.6-19.9 9.3-1.8 18.2 4.3 19.9 13.6.6 3 .3 5.9-.6 8.6" class="colorStroke000000 svgStroke"></path><path d="M53.797 24.93c2.3 0 4.2.8 4.2 5.6v35c-.1.6.8 1 1.8 1 .9 0 1.9-.4 1.8-1.2v-21.8c0-2 1.9-3.7 4.2-3.7 2.3 0 4.2 1.6 4.2 3.7v20.6c0 1.1.8 1.6 1.8 1.6s2.1-.6 1.9-1.6v-12.6c0-2 1.9-3.7 4.2-3.7 2.3 0 4.2 1.6 4.2 3.7v16.4c-.1 1 .7 1.5 1.4 1.5.9 0 1.7-.6 1.5-1.5v-9.9c0-2 1.2-3.9 3.5-3.9h.4c1.7 0 2.7 1.5 3.2 4v10c-.1 1.3.6 16.2.1 19.5l-6.5 28.9-29.6.2-3.8-8.3-12.8-16-7.6-26.5c-1-2.5-.2-5.6 1.8-6.1 1.1-.3 2.1-.5 3-.5 1.4 0 2.6.6 4 2.3l5.9 15.5c.2.5.8.8 1.3.8.8 0 1.8-.5 1.8-1.5l-.2-47.8c.1-2 1.9-3.7 4.3-3.7m0-6c-5.6 0-10.2 4.3-10.2 9.7l.1 27.4c-2-1.8-4.3-2.7-6.9-2.7-1.6 0-3 .3-4.5.7-2.4.6-4.4 2.2-5.6 4.6-1.4 2.8-1.6 6.2-.4 9.2l7.5 26.2.3 1.2.8 1 12.4 15.3 3.5 7.6 1.6 3.5h3.9l29.5-.2h4.8l1-4.7 6.5-28.9v-.4c.4-2.4.3-7.4.1-16.2 0-1.6-.1-3.4-.1-3.9v-11l-.1-.6c-1.7-7.8-6.9-8.7-9.1-8.7h-.8c-.2 0-.5 0-.7.1-1.5-3.7-5.2-6.3-9.5-6.3-.7 0-1.3.1-2 .2-.8-4.6-5-8.2-10.1-8.2-.6 0-1.2 0-1.7.1v-3.5c-.1-10.6-7.9-11.5-10.3-11.5z" fill="#41e1d4" class="color000000 svgShape"></path><path fill="none" stroke="#000000" stroke-linecap="round" stroke-linejoin="round" stroke-width="2" d="M52.1 47.8h3.1M52.1 50.3h3.2" class="colorStroke000000 svgStroke"></path></svg>