<?xml version="1.0" encoding="UTF-8"?><svg id="Layer_2" xmlns="http://www.w3.org/2000/svg" viewBox="0 0 217.39 198.14"><defs><style>.cls-1{fill:#fff;}</style></defs><g id="_ÎÓÈ_1"><g><g><g><path class="cls-1" d="M93.78,181.38h-6.75c-.08,0-.17-.03-.22-.09l-2.84-2.84c-.06-.06-.09-.14-.09-.22V105.31c0-.18,.14-.32,.32-.32h2.53c.18,0,.32,.14,.32,.32s-.14,.32-.32,.32h-2.21v72.47l2.65,2.65h6.62c.18,0,.32,.14,.32,.32s-.14,.32-.32,.32Z"/><path class="cls-1" d="M80.9,175.8h-2.76c-.09,0-.16-.07-.16-.16s.07-.16,.16-.16h2.76c.09,0,.16,.07,.16,.16s-.07,.16-.16,.16Z"/><path class="cls-1" d="M80.9,169.16h-2.76c-.09,0-.16-.07-.16-.16s.07-.16,.16-.16h2.76c.09,0,.16,.07,.16,.16s-.07,.16-.16,.16Z"/><path class="cls-1" d="M80.9,162.51h-2.76c-.09,0-.16-.07-.16-.16s.07-.16,.16-.16h2.76c.09,0,.16,.07,.16,.16s-.07,.16-.16,.16Z"/><path class="cls-1" d="M80.9,155.87h-2.76c-.09,0-.16-.07-.16-.16s.07-.16,.16-.16h2.76c.09,0,.16,.07,.16,.16s-.07,.16-.16,.16Z"/><path class="cls-1" d="M80.9,149.22h-2.76c-.09,0-.16-.07-.16-.16s.07-.16,.16-.16h2.76c.09,0,.16,.07,.16,.16s-.07,.16-.16,.16Z"/><path class="cls-1" d="M80.9,142.58h-2.76c-.09,0-.16-.07-.16-.16s.07-.16,.16-.16h2.76c.09,0,.16,.07,.16,.16s-.07,.16-.16,.16Z"/><path class="cls-1" d="M80.9,135.94h-2.76c-.09,0-.16-.07-.16-.16s.07-.16,.16-.16h2.76c.09,0,.16,.07,.16,.16s-.07,.16-.16,.16Z"/><path class="cls-1" d="M80.9,129.29h-2.76c-.09,0-.16-.07-.16-.16s.07-.16,.16-.16h2.76c.09,0,.16,.07,.16,.16s-.07,.16-.16,.16Z"/><path class="cls-1" d="M80.9,122.65h-2.76c-.09,0-.16-.07-.16-.16s.07-.16,.16-.16h2.76c.09,0,.16,.07,.16,.16s-.07,.16-.16,.16Z"/><path class="cls-1" d="M80.9,116h-2.76c-.09,0-.16-.07-.16-.16s.07-.16,.16-.16h2.76c.09,0,.16,.07,.16,.16s-.07,.16-.16,.16Z"/><path class="cls-1" d="M80.9,109.36h-2.76c-.09,0-.16-.07-.16-.16s.07-.16,.16-.16h2.76c.09,0,.16,.07,.16,.16s-.07,.16-.16,.16Z"/><g><path class="cls-1" d="M89.18,175.8h-2.76c-.09,0-.16-.07-.16-.16s.07-.16,.16-.16h2.76c.09,0,.16,.07,.16,.16s-.07,.16-.16,.16Z"/><path class="cls-1" d="M89.18,169.16h-2.76c-.09,0-.16-.07-.16-.16s.07-.16,.16-.16h2.76c.09,0,.16,.07,.16,.16s-.07,.16-.16,.16Z"/><path class="cls-1" d="M89.18,162.51h-2.76c-.09,0-.16-.07-.16-.16s.07-.16,.16-.16h2.76c.09,0,.16,.07,.16,.16s-.07,.16-.16,.16Z"/><path class="cls-1" d="M89.18,155.87h-2.76c-.09,0-.16-.07-.16-.16s.07-.16,.16-.16h2.76c.09,0,.16,.07,.16,.16s-.07,.16-.16,.16Z"/><path class="cls-1" d="M89.18,149.22h-2.76c-.09,0-.16-.07-.16-.16s.07-.16,.16-.16h2.76c.09,0,.16,.07,.16,.16s-.07,.16-.16,.16Z"/><path class="cls-1" d="M89.18,142.58h-2.76c-.09,0-.16-.07-.16-.16s.07-.16,.16-.16h2.76c.09,0,.16,.07,.16,.16s-.07,.16-.16,.16Z"/><path class="cls-1" d="M89.18,135.94h-2.76c-.09,0-.16-.07-.16-.16s.07-.16,.16-.16h2.76c.09,0,.16,.07,.16,.16s-.07,.16-.16,.16Z"/><path class="cls-1" d="M89.18,129.29h-2.76c-.09,0-.16-.07-.16-.16s.07-.16,.16-.16h2.76c.09,0,.16,.07,.16,.16s-.07,.16-.16,.16Z"/><path class="cls-1" d="M89.18,122.65h-2.76c-.09,0-.16-.07-.16-.16s.07-.16,.16-.16h2.76c.09,0,.16,.07,.16,.16s-.07,.16-.16,.16Z"/><path class="cls-1" d="M89.18,116h-2.76c-.09,0-.16-.07-.16-.16s.07-.16,.16-.16h2.76c.09,0,.16,.07,.16,.16s-.07,.16-.16,.16Z"/><path class="cls-1" d="M89.18,109.36h-2.76c-.09,0-.16-.07-.16-.16s.07-.16,.16-.16h2.76c.09,0,.16,.07,.16,.16s-.07,.16-.16,.16Z"/></g><g><path class="cls-1" d="M87.34,172.48h-.92c-.09,0-.16-.07-.16-.16s.07-.16,.16-.16h.92c.09,0,.16,.07,.16,.16s-.07,.16-.16,.16Z"/><path class="cls-1" d="M87.34,165.84h-.92c-.09,0-.16-.07-.16-.16s.07-.16,.16-.16h.92c.09,0,.16,.07,.16,.16s-.07,.16-.16,.16Z"/><path class="cls-1" d="M87.34,159.19h-.92c-.09,0-.16-.07-.16-.16s.07-.16,.16-.16h.92c.09,0,.16,.07,.16,.16s-.07,.16-.16,.16Z"/><path class="cls-1" d="M87.34,152.55h-.92c-.09,0-.16-.07-.16-.16s.07-.16,.16-.16h.92c.09,0,.16,.07,.16,.16s-.07,.16-.16,.16Z"/><path class="cls-1" d="M87.34,145.9h-.92c-.09,0-.16-.07-.16-.16s.07-.16,.16-.16h.92c.09,0,.16,.07,.16,.16s-.07,.16-.16,.16Z"/><path class="cls-1" d="M87.34,139.26h-.92c-.09,0-.16-.07-.16-.16s.07-.16,.16-.16h.92c.09,0,.16,.07,.16,.16s-.07,.16-.16,.16Z"/><path class="cls-1" d="M87.34,132.61h-.92c-.09,0-.16-.07-.16-.16s.07-.16,.16-.16h.92c.09,0,.16,.07,.16,.16s-.07,.16-.16,.16Z"/><path class="cls-1" d="M87.34,125.97h-.92c-.09,0-.16-.07-.16-.16s.07-.16,.16-.16h.92c.09,0,.16,.07,.16,.16s-.07,.16-.16,.16Z"/><path class="cls-1" d="M87.34,119.32h-.92c-.09,0-.16-.07-.16-.16s.07-.16,.16-.16h.92c.09,0,.16,.07,.16,.16s-.07,.16-.16,.16Z"/><path class="cls-1" d="M87.34,112.68h-.92c-.09,0-.16-.07-.16-.16s.07-.16,.16-.16h.92c.09,0,.16,.07,.16,.16s-.07,.16-.16,.16Z"/></g><path class="cls-1" d="M104.67,107.43h-3.95s-.08-.02-.11-.05l-5.21-5.21h-11.2c-.09,0-.16-.07-.16-.16s.07-.16,.16-.16h11.27s.08,.02,.11,.05l5.21,5.21h3.88c.09,0,.16,.07,.16,.16s-.07,.16-.16,.16Z"/><path class="cls-1" d="M107.31,107.59h-1.57c-.18,0-.32-.14-.32-.32s.14-.32,.32-.32h1.57c.18,0,.32,.14,.32,.32s-.14,.32-.32,.32Z"/><g><path class="cls-1" d="M97.16,177.5s-.08-.02-.11-.05l-1.65-1.65h-3.88c-.09,0-.16-.07-.16-.16s.07-.16,.16-.16h3.95s.08,.02,.11,.05l1.69,1.69c.06,.06,.06,.16,0,.22-.03,.03-.07,.05-.11,.05Z"/><path class="cls-1" d="M98.52,179.08c-.08,0-.16-.03-.22-.09l-.81-.8c-.12-.12-.12-.33,0-.45,.12-.12,.33-.12,.45,0l.81,.8c.12,.12,.12,.33,0,.45-.06,.06-.14,.09-.23,.09Z"/></g><g><path class="cls-1" d="M97.16,164.21s-.08-.02-.11-.05l-1.65-1.65h-3.88c-.09,0-.16-.07-.16-.16s.07-.16,.16-.16h3.95s.08,.02,.11,.05l1.69,1.69c.06,.06,.06,.16,0,.22-.03,.03-.07,.05-.11,.05Z"/><path class="cls-1" d="M98.52,165.79c-.08,0-.16-.03-.22-.09l-.81-.81c-.12-.12-.12-.33,0-.45,.12-.12,.33-.12,.45,0l.81,.81c.12,.12,.12,.33,0,.45-.06,.06-.14,.09-.23,.09Z"/></g><g><path class="cls-1" d="M97.16,150.92s-.08-.02-.11-.05l-1.65-1.65h-3.88c-.09,0-.16-.07-.16-.16s.07-.16,.16-.16h3.95s.08,.02,.11,.05l1.69,1.69c.06,.06,.06,.16,0,.22-.03,.03-.07,.05-.11,.05Z"/><path class="cls-1" d="M98.52,152.5c-.08,0-.16-.03-.22-.09l-.81-.8c-.12-.12-.12-.33,0-.45,.12-.12,.33-.12,.45,0l.81,.8c.12,.12,.12,.33,0,.45-.06,.06-.14,.09-.23,.09Z"/></g><g><path class="cls-1" d="M97.16,137.63s-.08-.02-.11-.05l-1.65-1.65h-3.88c-.09,0-.16-.07-.16-.16s.07-.16,.16-.16h3.95s.08,.02,.11,.05l1.69,1.69c.06,.06,.06,.16,0,.23-.03,.03-.07,.05-.11,.05Z"/><path class="cls-1" d="M98.52,139.21c-.08,0-.16-.03-.22-.09l-.81-.8c-.12-.12-.12-.33,0-.45,.12-.12,.33-.12,.45,0l.81,.8c.12,.12,.12,.33,0,.45-.06,.06-.14,.09-.23,.09Z"/></g><g><path class="cls-1" d="M97.16,124.34s-.08-.02-.11-.05l-1.65-1.65h-3.88c-.09,0-.16-.07-.16-.16s.07-.16,.16-.16h3.95s.08,.02,.11,.05l1.69,1.69c.06,.06,.06,.16,0,.23-.03,.03-.07,.05-.11,.05Z"/><path class="cls-1" d="M98.52,125.92c-.08,0-.16-.03-.22-.09l-.81-.81c-.12-.12-.12-.33,0-.45,.12-.12,.33-.12,.45,0l.81,.81c.12,.12,.12,.33,0,.45-.06,.06-.14,.09-.23,.09Z"/></g><g><path class="cls-1" d="M97.16,111.05s-.08-.02-.11-.05l-1.65-1.65h-3.88c-.09,0-.16-.07-.16-.16s.07-.16,.16-.16h3.95s.08,.02,.11,.05l1.69,1.69c.06,.06,.06,.16,0,.22-.03,.03-.07,.05-.11,.05Z"/><path class="cls-1" d="M98.52,112.63c-.08,0-.16-.03-.22-.09l-.81-.8c-.12-.12-.12-.33,0-.45,.12-.12,.33-.12,.45,0l.81,.8c.12,.12,.12,.33,0,.45-.06,.06-.14,.09-.23,.09Z"/></g><path class="cls-1" d="M85.6,193.04c-.08,0-.16-.03-.22-.09l-5.43-5.43h-31.12l-3.38,3.38c-.06,.06-.14,.09-.22,.09H13.94c-.18,0-.32-.14-.32-.32s.14-.32,.32-.32h31.15l3.38-3.38c.06-.06,.14-.09,.22-.09h31.38c.08,0,.17,.03,.22,.09l5.52,5.52c.12,.12,.12,.33,0,.45-.06,.06-.14,.09-.23,.09Z"/><path class="cls-1" d="M79.84,189.95s-.08-.02-.11-.05l-.82-.82s-.05-.07-.05-.11v-.57c0-.09,.07-.16,.16-.16s.16,.07,.16,.16v.51l.77,.77c.06,.06,.06,.16,0,.22-.03,.03-.07,.05-.11,.05Z"/><path class="cls-1" d="M78,189.95s-.08-.02-.11-.05l-.82-.82s-.05-.07-.05-.11v-.57c0-.09,.07-.16,.16-.16s.16,.07,.16,.16v.51l.77,.77c.06,.06,.06,.16,0,.22-.03,.03-.07,.05-.11,.05Z"/><path class="cls-1" d="M76.16,189.95s-.08-.02-.11-.05l-.82-.82s-.05-.07-.05-.11v-.57c0-.09,.07-.16,.16-.16s.16,.07,.16,.16v.51l.77,.77c.06,.06,.06,.16,0,.22-.03,.03-.07,.05-.11,.05Z"/><path class="cls-1" d="M74.32,189.95s-.08-.02-.11-.05l-.82-.82s-.05-.07-.05-.11v-.57c0-.09,.07-.16,.16-.16s.16,.07,.16,.16v.51l.77,.77c.06,.06,.06,.16,0,.22-.03,.03-.07,.05-.11,.05Z"/><path class="cls-1" d="M72.48,189.95s-.08-.02-.11-.05l-.82-.82s-.05-.07-.05-.11v-.57c0-.09,.07-.16,.16-.16s.16,.07,.16,.16v.51l.77,.77c.06,.06,.06,.16,0,.22-.03,.03-.07,.05-.11,.05Z"/><path class="cls-1" d="M70.64,189.95s-.08-.02-.11-.05l-.82-.82s-.05-.07-.05-.11v-.57c0-.09,.07-.16,.16-.16s.16,.07,.16,.16v.51l.77,.77c.06,.06,.06,.16,0,.22-.03,.03-.07,.05-.11,.05Z"/><path class="cls-1" d="M68.8,189.95s-.08-.02-.11-.05l-.82-.82s-.05-.07-.05-.11v-.57c0-.09,.07-.16,.16-.16s.16,.07,.16,.16v.51l.77,.77c.06,.06,.06,.16,0,.22-.03,.03-.07,.05-.11,.05Z"/><path class="cls-1" d="M66.96,189.95s-.08-.02-.11-.05l-.82-.82s-.05-.07-.05-.11v-.57c0-.09,.07-.16,.16-.16s.16,.07,.16,.16v.51l.77,.77c.06,.06,.06,.16,0,.22-.03,.03-.07,.05-.11,.05Z"/><path class="cls-1" d="M65.12,189.95s-.08-.02-.11-.05l-.82-.82s-.05-.07-.05-.11v-.57c0-.09,.07-.16,.16-.16s.16,.07,.16,.16v.51l.77,.77c.06,.06,.06,.16,0,.22-.03,.03-.07,.05-.11,.05Z"/><path class="cls-1" d="M28.08,190.68s-.08-.02-.11-.05c-.06-.06-.06-.16,0-.22l.57-.57s.07-.05,.11-.05h17.29c.09,0,.16,.07,.16,.16s-.07,.16-.16,.16H28.71l-.52,.52s-.07,.05-.11,.05Z"/><path class="cls-1" d="M10.92,190.93h-2.61s-.08-.02-.11-.05l-.77-.77s-.05-.07-.05-.11v-2.04c0-.09,.07-.16,.16-.16s.16,.07,.16,.16v1.98l.67,.67h2.54c.09,0,.16,.07,.16,.16s-.07,.16-.16,.16Z"/><path class="cls-1" d="M7.55,185.82c-.09,0-.16-.07-.16-.16v-3.68c0-.09,.07-.16,.16-.16s.16,.07,.16,.16v3.68c0,.09-.07,.16-.16,.16Z"/><path class="cls-1" d="M79.84,185.44h-31.99s-.08-.02-.11-.05l-7.96-7.96s-.05-.07-.05-.11v-3.08c0-.09,.07-.16,.16-.16s.16,.07,.16,.16v3.02l7.86,7.86h31.92c.09,0,.16,.07,.16,.16s-.07,.16-.16,.16Z"/><g><g><path class="cls-1" d="M74.18,175.81h-13.67c-.09,0-.16-.07-.16-.16s.07-.16,.16-.16h13.67c.09,0,.16,.07,.16,.16s-.07,.16-.16,.16Z"/><polygon class="cls-1" points="60.36 175.67 60.36 176.03 63.98 176.03 64.37 175.64 60.36 175.67"/></g><rect class="cls-1" x="58.94" y="175.6" width=".47" height=".46" transform="translate(118.35 351.67) rotate(180)"/><rect class="cls-1" x="57.87" y="175.69" width=".29" height=".29" transform="translate(116.04 351.67) rotate(180)"/><rect class="cls-1" x="56.07" y="175.75" width=".18" height=".18" transform="translate(112.31 351.67) rotate(180)"/></g><g><g><path class="cls-1" d="M74.18,162.53h-13.67c-.09,0-.16-.07-.16-.16s.07-.16,.16-.16h13.67c.09,0,.16,.07,.16,.16s-.07,.16-.16,.16Z"/><polygon class="cls-1" points="60.36 162.38 60.36 162.74 63.98 162.74 64.37 162.36 60.36 162.38"/></g><rect class="cls-1" x="58.94" y="162.32" width=".47" height=".46" transform="translate(118.35 325.1) rotate(180)"/><rect class="cls-1" x="57.87" y="162.41" width=".29" height=".29" transform="translate(116.04 325.1) rotate(180)"/><rect class="cls-1" x="56.07" y="162.46" width=".18" height=".18" transform="translate(112.31 325.1) rotate(180)"/></g><g><g><path class="cls-1" d="M74.18,135.97h-13.67c-.09,0-.16-.07-.16-.16s.07-.16,.16-.16h13.67c.09,0,.16,.07,.16,.16s-.07,.16-.16,.16Z"/><polygon class="cls-1" points="60.36 135.82 60.36 136.18 63.98 136.18 64.37 135.8 60.36 135.82"/></g><rect class="cls-1" x="58.94" y="135.76" width=".47" height=".46" transform="translate(118.35 271.98) rotate(180)"/><rect class="cls-1" x="57.87" y="135.84" width=".29" height=".29" transform="translate(116.04 271.98) rotate(180)"/><rect class="cls-1" x="56.07" y="135.9" width=".18" height=".18" transform="translate(112.31 271.98) rotate(180)"/></g><g><g><path class="cls-1" d="M74.18,109.4h-13.67c-.09,0-.16-.07-.16-.16s.07-.16,.16-.16h13.67c.09,0,.16,.07,.16,.16s-.07,.16-.16,.16Z"/><polygon class="cls-1" points="60.36 109.26 60.36 109.62 63.98 109.62 64.37 109.23 60.36 109.26"/></g><rect class="cls-1" x="58.94" y="109.2" width=".47" height=".46" transform="translate(118.35 218.85) rotate(180)"/><rect class="cls-1" x="57.87" y="109.28" width=".29" height=".29" transform="translate(116.04 218.85) rotate(180)"/><rect class="cls-1" x="56.07" y="109.34" width=".18" height=".18" transform="translate(112.31 218.85) rotate(180)"/></g><path class="cls-1" d="M39.9,170.9c-.09,0-.16-.07-.16-.16v-14.04L5.24,122.19s-.05-.07-.05-.11v-6.65c0-.09,.07-.16,.16-.16H52.79s.08,.02,.11,.05l3.18,3.18h3.33c.09,0,.16,.07,.16,.16s-.07,.16-.16,.16h-3.4s-.08-.02-.11-.05l-3.18-3.18H5.51v6.42l34.5,34.5s.05,.07,.05,.11v14.11c0,.09-.07,.16-.16,.16Z"/><path class="cls-1" d="M50.44,109.78H28.56c-.09,0-.16-.07-.16-.16s.07-.16,.16-.16h21.88c.09,0,.16,.07,.16,.16s-.07,.16-.16,.16Z"/><polygon class="cls-1" points="93.73 191.85 43.79 141.92 43.79 136.54 47.47 136.54 47.47 136.7 43.95 136.7 43.95 141.85 93.84 191.74 93.73 191.85"/><polygon class="cls-1" points="25.88 198.14 25.72 198.14 25.72 169.03 22.04 165.35 22.15 165.24 25.88 168.97 25.88 198.14"/><polygon class="cls-1" points="18.4 108.68 18.24 108.68 18.24 106.91 18.26 106.89 22.06 103.09 73.54 103.09 73.54 103.24 22.13 103.24 18.4 106.98 18.4 108.68"/></g><path class="cls-1" d="M3.54,135.92c-.09,0-.16-.07-.16-.16v-2.3l-1.64-1.64s-.05-.07-.05-.11v-25.93s.02-.08,.05-.11l2.61-2.61s.07-.05,.11-.05h7.21c.09,0,.16,.07,.16,.16s-.07,.16-.16,.16H4.52l-2.51,2.51v25.8l1.64,1.64s.05,.07,.05,.11v2.37c0,.09-.07,.16-.16,.16Z"/><path class="cls-1" d="M3.39,143.24c-.09,0-.16-.07-.16-.16v-2.64c0-.09,.07-.16,.16-.16s.16,.07,.16,.16v2.64c0,.09-.07,.16-.16,.16Z"/><path class="cls-1" d="M2.31,154.18H.32c-.18,0-.32-.14-.32-.32s.14-.32,.32-.32h1.86l.89-.89v-3.59c0-.18,.14-.32,.32-.32s.32,.14,.32,.32v3.72c0,.08-.03,.17-.09,.23l-1.07,1.07c-.06,.06-.14,.09-.22,.09Z"/><path class="cls-1" d="M79.52,103.48h-2.86c-.18,0-.32-.14-.32-.32s.14-.32,.32-.32h2.86c.18,0,.32,.14,.32,.32s-.14,.32-.32,.32Z"/></g><g><g><path class="cls-1" d="M130.35,181.38h-6.75c-.18,0-.32-.14-.32-.32s.14-.32,.32-.32h6.62l2.65-2.65V105.63h-2.21c-.18,0-.32-.14-.32-.32s.14-.32,.32-.32h2.53c.18,0,.32,.14,.32,.32v72.91c0,.08-.03,.17-.09,.22l-2.84,2.84c-.06,.06-.14,.09-.22,.09Z"/><path class="cls-1" d="M139.25,175.8h-2.76c-.09,0-.16-.07-.16-.16s.07-.16,.16-.16h2.76c.09,0,.16,.07,.16,.16s-.07,.16-.16,.16Z"/><path class="cls-1" d="M139.25,169.16h-2.76c-.09,0-.16-.07-.16-.16s.07-.16,.16-.16h2.76c.09,0,.16,.07,.16,.16s-.07,.16-.16,.16Z"/><path class="cls-1" d="M139.25,162.51h-2.76c-.09,0-.16-.07-.16-.16s.07-.16,.16-.16h2.76c.09,0,.16,.07,.16,.16s-.07,.16-.16,.16Z"/><path class="cls-1" d="M139.25,155.87h-2.76c-.09,0-.16-.07-.16-.16s.07-.16,.16-.16h2.76c.09,0,.16,.07,.16,.16s-.07,.16-.16,.16Z"/><path class="cls-1" d="M139.25,149.22h-2.76c-.09,0-.16-.07-.16-.16s.07-.16,.16-.16h2.76c.09,0,.16,.07,.16,.16s-.07,.16-.16,.16Z"/><path class="cls-1" d="M139.25,142.58h-2.76c-.09,0-.16-.07-.16-.16s.07-.16,.16-.16h2.76c.09,0,.16,.07,.16,.16s-.07,.16-.16,.16Z"/><path class="cls-1" d="M139.25,135.94h-2.76c-.09,0-.16-.07-.16-.16s.07-.16,.16-.16h2.76c.09,0,.16,.07,.16,.16s-.07,.16-.16,.16Z"/><path class="cls-1" d="M139.25,129.29h-2.76c-.09,0-.16-.07-.16-.16s.07-.16,.16-.16h2.76c.09,0,.16,.07,.16,.16s-.07,.16-.16,.16Z"/><path class="cls-1" d="M139.25,122.65h-2.76c-.09,0-.16-.07-.16-.16s.07-.16,.16-.16h2.76c.09,0,.16,.07,.16,.16s-.07,.16-.16,.16Z"/><path class="cls-1" d="M139.25,116h-2.76c-.09,0-.16-.07-.16-.16s.07-.16,.16-.16h2.76c.09,0,.16,.07,.16,.16s-.07,.16-.16,.16Z"/><path class="cls-1" d="M139.25,109.36h-2.76c-.09,0-.16-.07-.16-.16s.07-.16,.16-.16h2.76c.09,0,.16,.07,.16,.16s-.07,.16-.16,.16Z"/><g><path class="cls-1" d="M130.97,175.8h-2.76c-.09,0-.16-.07-.16-.16s.07-.16,.16-.16h2.76c.09,0,.16,.07,.16,.16s-.07,.16-.16,.16Z"/><path class="cls-1" d="M130.97,169.16h-2.76c-.09,0-.16-.07-.16-.16s.07-.16,.16-.16h2.76c.09,0,.16,.07,.16,.16s-.07,.16-.16,.16Z"/><path class="cls-1" d="M130.97,162.51h-2.76c-.09,0-.16-.07-.16-.16s.07-.16,.16-.16h2.76c.09,0,.16,.07,.16,.16s-.07,.16-.16,.16Z"/><path class="cls-1" d="M130.97,155.87h-2.76c-.09,0-.16-.07-.16-.16s.07-.16,.16-.16h2.76c.09,0,.16,.07,.16,.16s-.07,.16-.16,.16Z"/><path class="cls-1" d="M130.97,149.22h-2.76c-.09,0-.16-.07-.16-.16s.07-.16,.16-.16h2.76c.09,0,.16,.07,.16,.16s-.07,.16-.16,.16Z"/><path class="cls-1" d="M130.97,142.58h-2.76c-.09,0-.16-.07-.16-.16s.07-.16,.16-.16h2.76c.09,0,.16,.07,.16,.16s-.07,.16-.16,.16Z"/><path class="cls-1" d="M130.97,135.94h-2.76c-.09,0-.16-.07-.16-.16s.07-.16,.16-.16h2.76c.09,0,.16,.07,.16,.16s-.07,.16-.16,.16Z"/><path class="cls-1" d="M130.97,129.29h-2.76c-.09,0-.16-.07-.16-.16s.07-.16,.16-.16h2.76c.09,0,.16,.07,.16,.16s-.07,.16-.16,.16Z"/><path class="cls-1" d="M130.97,122.65h-2.76c-.09,0-.16-.07-.16-.16s.07-.16,.16-.16h2.76c.09,0,.16,.07,.16,.16s-.07,.16-.16,.16Z"/><path class="cls-1" d="M130.97,116h-2.76c-.09,0-.16-.07-.16-.16s.07-.16,.16-.16h2.76c.09,0,.16,.07,.16,.16s-.07,.16-.16,.16Z"/><path class="cls-1" d="M130.97,109.36h-2.76c-.09,0-.16-.07-.16-.16s.07-.16,.16-.16h2.76c.09,0,.16,.07,.16,.16s-.07,.16-.16,.16Z"/></g><g><path class="cls-1" d="M130.97,172.48h-.92c-.09,0-.16-.07-.16-.16s.07-.16,.16-.16h.92c.09,0,.16,.07,.16,.16s-.07,.16-.16,.16Z"/><path class="cls-1" d="M130.97,165.84h-.92c-.09,0-.16-.07-.16-.16s.07-.16,.16-.16h.92c.09,0,.16,.07,.16,.16s-.07,.16-.16,.16Z"/><path class="cls-1" d="M130.97,159.19h-.92c-.09,0-.16-.07-.16-.16s.07-.16,.16-.16h.92c.09,0,.16,.07,.16,.16s-.07,.16-.16,.16Z"/><path class="cls-1" d="M130.97,152.55h-.92c-.09,0-.16-.07-.16-.16s.07-.16,.16-.16h.92c.09,0,.16,.07,.16,.16s-.07,.16-.16,.16Z"/><path class="cls-1" d="M130.97,145.9h-.92c-.09,0-.16-.07-.16-.16s.07-.16,.16-.16h.92c.09,0,.16,.07,.16,.16s-.07,.16-.16,.16Z"/><path class="cls-1" d="M130.97,139.26h-.92c-.09,0-.16-.07-.16-.16s.07-.16,.16-.16h.92c.09,0,.16,.07,.16,.16s-.07,.16-.16,.16Z"/><path class="cls-1" d="M130.97,132.61h-.92c-.09,0-.16-.07-.16-.16s.07-.16,.16-.16h.92c.09,0,.16,.07,.16,.16s-.07,.16-.16,.16Z"/><path class="cls-1" d="M130.97,125.97h-.92c-.09,0-.16-.07-.16-.16s.07-.16,.16-.16h.92c.09,0,.16,.07,.16,.16s-.07,.16-.16,.16Z"/><path class="cls-1" d="M130.97,119.32h-.92c-.09,0-.16-.07-.16-.16s.07-.16,.16-.16h.92c.09,0,.16,.07,.16,.16s-.07,.16-.16,.16Z"/><path class="cls-1" d="M130.97,112.68h-.92c-.09,0-.16-.07-.16-.16s.07-.16,.16-.16h.92c.09,0,.16,.07,.16,.16s-.07,.16-.16,.16Z"/></g><path class="cls-1" d="M116.67,107.43h-3.95c-.09,0-.16-.07-.16-.16s.07-.16,.16-.16h3.88l5.21-5.21s.07-.05,.11-.05h11.27c.09,0,.16,.07,.16,.16s-.07,.16-.16,.16h-11.2l-5.21,5.21s-.07,.05-.11,.05Z"/><path class="cls-1" d="M111.65,107.59h-1.57c-.18,0-.32-.14-.32-.32s.14-.32,.32-.32h1.57c.18,0,.32,.14,.32,.32s-.14,.32-.32,.32Z"/><g><path class="cls-1" d="M120.23,177.5s-.08-.02-.11-.05c-.06-.06-.06-.16,0-.22l1.69-1.69s.07-.05,.11-.05h3.95c.09,0,.16,.07,.16,.16s-.07,.16-.16,.16h-3.88l-1.65,1.65s-.07,.05-.11,.05Z"/><path class="cls-1" d="M118.87,179.08c-.08,0-.16-.03-.22-.09-.12-.12-.12-.33,0-.45l.8-.8c.12-.12,.33-.12,.45,0,.12,.12,.12,.33,0,.45l-.81,.8c-.06,.06-.14,.09-.22,.09Z"/></g><g><path class="cls-1" d="M120.23,164.21s-.08-.02-.11-.05c-.06-.06-.06-.16,0-.22l1.69-1.69s.07-.05,.11-.05h3.95c.09,0,.16,.07,.16,.16s-.07,.16-.16,.16h-3.88l-1.65,1.65s-.07,.05-.11,.05Z"/><path class="cls-1" d="M118.87,165.79c-.08,0-.16-.03-.22-.09-.12-.12-.12-.33,0-.45l.8-.81c.12-.12,.33-.12,.45,0,.12,.12,.12,.33,0,.45l-.81,.81c-.06,.06-.14,.09-.22,.09Z"/></g><g><path class="cls-1" d="M120.23,150.92s-.08-.02-.11-.05c-.06-.06-.06-.16,0-.22l1.69-1.69s.07-.05,.11-.05h3.95c.09,0,.16,.07,.16,.16s-.07,.16-.16,.16h-3.88l-1.65,1.65s-.07,.05-.11,.05Z"/><path class="cls-1" d="M118.87,152.5c-.08,0-.16-.03-.22-.09-.12-.12-.12-.33,0-.45l.8-.8c.12-.12,.33-.12,.45,0,.12,.12,.12,.33,0,.45l-.81,.8c-.06,.06-.14,.09-.22,.09Z"/></g><g><path class="cls-1" d="M120.23,137.63s-.08-.02-.11-.05c-.06-.06-.06-.16,0-.23l1.69-1.69s.07-.05,.11-.05h3.95c.09,0,.16,.07,.16,.16s-.07,.16-.16,.16h-3.88l-1.65,1.65s-.07,.05-.11,.05Z"/><path class="cls-1" d="M118.87,139.21c-.08,0-.16-.03-.22-.09-.12-.12-.12-.33,0-.45l.8-.8c.12-.12,.33-.12,.45,0,.12,.12,.12,.33,0,.45l-.81,.8c-.06,.06-.14,.09-.22,.09Z"/></g><g><path class="cls-1" d="M120.23,124.34s-.08-.02-.11-.05c-.06-.06-.06-.16,0-.23l1.69-1.69s.07-.05,.11-.05h3.95c.09,0,.16,.07,.16,.16s-.07,.16-.16,.16h-3.88l-1.65,1.65s-.07,.05-.11,.05Z"/><path class="cls-1" d="M118.87,125.92c-.08,0-.16-.03-.22-.09-.12-.12-.12-.33,0-.45l.8-.81c.12-.12,.33-.12,.45,0,.12,.12,.12,.33,0,.45l-.81,.81c-.06,.06-.14,.09-.22,.09Z"/></g><g><path class="cls-1" d="M120.23,111.05s-.08-.02-.11-.05c-.06-.06-.06-.16,0-.22l1.69-1.69s.07-.05,.11-.05h3.95c.09,0,.16,.07,.16,.16s-.07,.16-.16,.16h-3.88l-1.65,1.65s-.07,.05-.11,.05Z"/><path class="cls-1" d="M118.87,112.63c-.08,0-.16-.03-.22-.09-.12-.12-.12-.33,0-.45l.8-.8c.12-.12,.33-.12,.45,0,.12,.12,.12,.33,0,.45l-.81,.8c-.06,.06-.14,.09-.22,.09Z"/></g><path class="cls-1" d="M131.78,193.04c-.08,0-.16-.03-.22-.09-.12-.12-.12-.33,0-.45l5.52-5.52c.06-.06,.14-.09,.23-.09h31.38c.08,0,.17,.03,.23,.09l3.38,3.38h31.15c.18,0,.32,.14,.32,.32s-.14,.32-.32,.32h-31.28c-.08,0-.17-.03-.23-.09l-3.38-3.38h-31.12l-5.43,5.43c-.06,.06-.14,.09-.23,.09Z"/><path class="cls-1" d="M137.54,189.95s-.08-.02-.11-.05c-.06-.06-.06-.16,0-.22l.77-.77v-.51c0-.09,.07-.16,.16-.16s.16,.07,.16,.16v.57s-.02,.08-.05,.11l-.82,.82s-.07,.05-.11,.05Z"/><path class="cls-1" d="M139.39,189.95s-.08-.02-.11-.05c-.06-.06-.06-.16,0-.22l.77-.77v-.51c0-.09,.07-.16,.16-.16s.16,.07,.16,.16v.57s-.02,.08-.05,.11l-.82,.82s-.07,.05-.11,.05Z"/><path class="cls-1" d="M141.23,189.95s-.08-.02-.11-.05c-.06-.06-.06-.16,0-.22l.77-.77v-.51c0-.09,.07-.16,.16-.16s.16,.07,.16,.16v.57s-.02,.08-.05,.11l-.82,.82s-.07,.05-.11,.05Z"/><path class="cls-1" d="M143.07,189.95s-.08-.02-.11-.05c-.06-.06-.06-.16,0-.22l.77-.77v-.51c0-.09,.07-.16,.16-.16s.16,.07,.16,.16v.57s-.02,.08-.05,.11l-.82,.82s-.07,.05-.11,.05Z"/><path class="cls-1" d="M144.91,189.95s-.08-.02-.11-.05c-.06-.06-.06-.16,0-.22l.77-.77v-.51c0-.09,.07-.16,.16-.16s.16,.07,.16,.16v.57s-.02,.08-.05,.11l-.82,.82s-.07,.05-.11,.05Z"/><path class="cls-1" d="M146.75,189.95s-.08-.02-.11-.05c-.06-.06-.06-.16,0-.22l.77-.77v-.51c0-.09,.07-.16,.16-.16s.16,.07,.16,.16v.57s-.02,.08-.05,.11l-.82,.82s-.07,.05-.11,.05Z"/><path class="cls-1" d="M148.59,189.95s-.08-.02-.11-.05c-.06-.06-.06-.16,0-.22l.77-.77v-.51c0-.09,.07-.16,.16-.16s.16,.07,.16,.16v.57s-.02,.08-.05,.11l-.82,.82s-.07,.05-.11,.05Z"/><path class="cls-1" d="M150.43,189.95s-.08-.02-.11-.05c-.06-.06-.06-.16,0-.22l.77-.77v-.51c0-.09,.07-.16,.16-.16s.16,.07,.16,.16v.57s-.02,.08-.05,.11l-.82,.82s-.07,.05-.11,.05Z"/><path class="cls-1" d="M152.27,189.95s-.08-.02-.11-.05c-.06-.06-.06-.16,0-.22l.77-.77v-.51c0-.09,.07-.16,.16-.16s.16,.07,.16,.16v.57s-.02,.08-.05,.11l-.82,.82s-.07,.05-.11,.05Z"/><path class="cls-1" d="M189.31,190.68s-.08-.02-.11-.05l-.52-.52h-17.22c-.09,0-.16-.07-.16-.16s.07-.16,.16-.16h17.29s.08,.02,.11,.05l.57,.57c.06,.06,.06,.16,0,.22-.03,.03-.07,.05-.11,.05Z"/><path class="cls-1" d="M209.07,190.93h-2.61c-.09,0-.16-.07-.16-.16s.07-.16,.16-.16h2.54l.67-.67v-1.98c0-.09,.07-.16,.16-.16s.16,.07,.16,.16v2.04s-.02,.08-.05,.11l-.77,.77s-.07,.05-.11,.05Z"/><path class="cls-1" d="M209.84,185.82c-.09,0-.16-.07-.16-.16v-3.68c0-.09,.07-.16,.16-.16s.16,.07,.16,.16v3.68c0,.09-.07,.16-.16,.16Z"/><path class="cls-1" d="M169.53,185.44h-31.99c-.09,0-.16-.07-.16-.16s.07-.16,.16-.16h31.92l7.86-7.86v-3.02c0-.09,.07-.16,.16-.16s.16,.07,.16,.16v3.08s-.02,.08-.05,.11l-7.96,7.96s-.07,.05-.11,.05Z"/><g><g><path class="cls-1" d="M156.88,175.81h-13.67c-.09,0-.16-.07-.16-.16s.07-.16,.16-.16h13.67c.09,0,.16,.07,.16,.16s-.07,.16-.16,.16Z"/><polygon class="cls-1" points="157.03 175.67 157.03 176.03 153.41 176.03 153.02 175.64 157.03 175.67"/></g><rect class="cls-1" x="157.98" y="175.6" width=".47" height=".46"/><rect class="cls-1" x="159.22" y="175.69" width=".29" height=".29"/><rect class="cls-1" x="161.14" y="175.75" width=".18" height=".18"/></g><g><g><path class="cls-1" d="M156.88,162.53h-13.67c-.09,0-.16-.07-.16-.16s.07-.16,.16-.16h13.67c.09,0,.16,.07,.16,.16s-.07,.16-.16,.16Z"/><polygon class="cls-1" points="157.03 162.38 157.03 162.74 153.41 162.74 153.02 162.36 157.03 162.38"/></g><rect class="cls-1" x="157.98" y="162.32" width=".47" height=".46"/><rect class="cls-1" x="159.22" y="162.41" width=".29" height=".29"/><rect class="cls-1" x="161.14" y="162.46" width=".18" height=".18"/></g><g><g><path class="cls-1" d="M156.88,135.97h-13.67c-.09,0-.16-.07-.16-.16s.07-.16,.16-.16h13.67c.09,0,.16,.07,.16,.16s-.07,.16-.16,.16Z"/><polygon class="cls-1" points="157.03 135.82 157.03 136.18 153.41 136.18 153.02 135.8 157.03 135.82"/></g><rect class="cls-1" x="157.98" y="135.76" width=".47" height=".46"/><rect class="cls-1" x="159.22" y="135.84" width=".29" height=".29"/><rect class="cls-1" x="161.14" y="135.9" width=".18" height=".18"/></g><g><g><path class="cls-1" d="M156.88,109.4h-13.67c-.09,0-.16-.07-.16-.16s.07-.16,.16-.16h13.67c.09,0,.16,.07,.16,.16s-.07,.16-.16,.16Z"/><polygon class="cls-1" points="157.03 109.26 157.03 109.62 153.41 109.62 153.02 109.23 157.03 109.26"/></g><rect class="cls-1" x="157.98" y="109.2" width=".47" height=".46"/><rect class="cls-1" x="159.22" y="109.28" width=".29" height=".29"/><rect class="cls-1" x="161.14" y="109.34" width=".18" height=".18"/></g><path class="cls-1" d="M177.49,170.9c-.09,0-.16-.07-.16-.16v-14.11s.02-.08,.05-.11l34.5-34.5v-6.42h-47.21l-3.18,3.18s-.07,.05-.11,.05h-3.4c-.09,0-.16-.07-.16-.16s.07-.16,.16-.16h3.33l3.18-3.18s.07-.05,.11-.05h47.44c.09,0,.16,.07,.16,.16v6.65s-.02,.08-.05,.11l-34.5,34.5v14.04c0,.09-.07,.16-.16,.16Z"/><path class="cls-1" d="M188.83,109.78h-21.88c-.09,0-.16-.07-.16-.16s.07-.16,.16-.16h21.88c.09,0,.16,.07,.16,.16s-.07,.16-.16,.16Z"/><polygon class="cls-1" points="123.66 191.85 123.55 191.74 173.44 141.85 173.44 136.7 169.92 136.7 169.92 136.54 173.6 136.54 173.6 141.92 173.58 141.94 123.66 191.85"/><polygon class="cls-1" points="191.67 198.14 191.51 198.14 191.51 168.97 191.53 168.94 195.24 165.24 195.35 165.35 191.67 169.03 191.67 198.14"/><polygon class="cls-1" points="199.15 108.68 198.99 108.68 198.99 106.98 195.26 103.24 143.85 103.24 143.85 103.09 195.32 103.09 195.35 103.11 199.15 106.91 199.15 108.68"/></g><path class="cls-1" d="M213.85,135.92c-.09,0-.16-.07-.16-.16v-2.37s.02-.08,.05-.11l1.64-1.64v-25.8l-2.51-2.51h-7.14c-.09,0-.16-.07-.16-.16s.07-.16,.16-.16h7.21s.08,.02,.11,.05l2.61,2.61s.05,.07,.05,.11v25.93s-.02,.08-.05,.11l-1.64,1.64v2.3c0,.09-.07,.16-.16,.16Z"/><path class="cls-1" d="M214,143.24c-.09,0-.16-.07-.16-.16v-2.64c0-.09,.07-.16,.16-.16s.16,.07,.16,.16v2.64c0,.09-.07,.16-.16,.16Z"/><path class="cls-1" d="M217.07,154.18h-1.99c-.08,0-.17-.03-.22-.09l-1.07-1.07c-.06-.06-.09-.14-.09-.23v-3.72c0-.18,.14-.32,.32-.32s.32,.14,.32,.32v3.59l.89,.89h1.86c.18,0,.32,.14,.32,.32s-.14,.32-.32,.32Z"/><path class="cls-1" d="M140.73,103.48h-2.86c-.18,0-.32-.14-.32-.32s.14-.32,.32-.32h2.86c.18,0,.32,.14,.32,.32s-.14,.32-.32,.32Z"/></g><g><g><path class="cls-1" d="M133.19,93.14h-2.53c-.18,0-.32-.14-.32-.32s.14-.32,.32-.32h2.21V20.04l-2.65-2.65h-6.62c-.18,0-.32-.14-.32-.32s.14-.32,.32-.32h6.75c.08,0,.17,.03,.22,.09l2.84,2.84c.06,.06,.09,.14,.09,.23V92.82c0,.18-.14,.32-.32,.32Z"/><path class="cls-1" d="M139.25,22.65h-2.76c-.09,0-.16-.07-.16-.16s.07-.16,.16-.16h2.76c.09,0,.16,.07,.16,.16s-.07,.16-.16,.16Z"/><path class="cls-1" d="M139.25,29.29h-2.76c-.09,0-.16-.07-.16-.16s.07-.16,.16-.16h2.76c.09,0,.16,.07,.16,.16s-.07,.16-.16,.16Z"/><path class="cls-1" d="M139.25,35.94h-2.76c-.09,0-.16-.07-.16-.16s.07-.16,.16-.16h2.76c.09,0,.16,.07,.16,.16s-.07,.16-.16,.16Z"/><path class="cls-1" d="M139.25,42.58h-2.76c-.09,0-.16-.07-.16-.16s.07-.16,.16-.16h2.76c.09,0,.16,.07,.16,.16s-.07,.16-.16,.16Z"/><path class="cls-1" d="M139.25,49.23h-2.76c-.09,0-.16-.07-.16-.16s.07-.16,.16-.16h2.76c.09,0,.16,.07,.16,.16s-.07,.16-.16,.16Z"/><path class="cls-1" d="M139.25,55.87h-2.76c-.09,0-.16-.07-.16-.16s.07-.16,.16-.16h2.76c.09,0,.16,.07,.16,.16s-.07,.16-.16,.16Z"/><path class="cls-1" d="M139.25,62.52h-2.76c-.09,0-.16-.07-.16-.16s.07-.16,.16-.16h2.76c.09,0,.16,.07,.16,.16s-.07,.16-.16,.16Z"/><path class="cls-1" d="M139.25,69.16h-2.76c-.09,0-.16-.07-.16-.16s.07-.16,.16-.16h2.76c.09,0,.16,.07,.16,.16s-.07,.16-.16,.16Z"/><path class="cls-1" d="M139.25,75.81h-2.76c-.09,0-.16-.07-.16-.16s.07-.16,.16-.16h2.76c.09,0,.16,.07,.16,.16s-.07,.16-.16,.16Z"/><path class="cls-1" d="M139.25,82.45h-2.76c-.09,0-.16-.07-.16-.16s.07-.16,.16-.16h2.76c.09,0,.16,.07,.16,.16s-.07,.16-.16,.16Z"/><path class="cls-1" d="M139.25,89.1h-2.76c-.09,0-.16-.07-.16-.16s.07-.16,.16-.16h2.76c.09,0,.16,.07,.16,.16s-.07,.16-.16,.16Z"/><g><path class="cls-1" d="M130.97,22.65h-2.76c-.09,0-.16-.07-.16-.16s.07-.16,.16-.16h2.76c.09,0,.16,.07,.16,.16s-.07,.16-.16,.16Z"/><path class="cls-1" d="M130.97,29.29h-2.76c-.09,0-.16-.07-.16-.16s.07-.16,.16-.16h2.76c.09,0,.16,.07,.16,.16s-.07,.16-.16,.16Z"/><path class="cls-1" d="M130.97,35.94h-2.76c-.09,0-.16-.07-.16-.16s.07-.16,.16-.16h2.76c.09,0,.16,.07,.16,.16s-.07,.16-.16,.16Z"/><path class="cls-1" d="M130.97,42.58h-2.76c-.09,0-.16-.07-.16-.16s.07-.16,.16-.16h2.76c.09,0,.16,.07,.16,.16s-.07,.16-.16,.16Z"/><path class="cls-1" d="M130.97,49.23h-2.76c-.09,0-.16-.07-.16-.16s.07-.16,.16-.16h2.76c.09,0,.16,.07,.16,.16s-.07,.16-.16,.16Z"/><path class="cls-1" d="M130.97,55.87h-2.76c-.09,0-.16-.07-.16-.16s.07-.16,.16-.16h2.76c.09,0,.16,.07,.16,.16s-.07,.16-.16,.16Z"/><path class="cls-1" d="M130.97,62.52h-2.76c-.09,0-.16-.07-.16-.16s.07-.16,.16-.16h2.76c.09,0,.16,.07,.16,.16s-.07,.16-.16,.16Z"/><path class="cls-1" d="M130.97,69.16h-2.76c-.09,0-.16-.07-.16-.16s.07-.16,.16-.16h2.76c.09,0,.16,.07,.16,.16s-.07,.16-.16,.16Z"/><path class="cls-1" d="M130.97,75.81h-2.76c-.09,0-.16-.07-.16-.16s.07-.16,.16-.16h2.76c.09,0,.16,.07,.16,.16s-.07,.16-.16,.16Z"/><path class="cls-1" d="M130.97,82.45h-2.76c-.09,0-.16-.07-.16-.16s.07-.16,.16-.16h2.76c.09,0,.16,.07,.16,.16s-.07,.16-.16,.16Z"/><path class="cls-1" d="M130.97,89.1h-2.76c-.09,0-.16-.07-.16-.16s.07-.16,.16-.16h2.76c.09,0,.16,.07,.16,.16s-.07,.16-.16,.16Z"/></g><g><path class="cls-1" d="M130.97,25.97h-.92c-.09,0-.16-.07-.16-.16s.07-.16,.16-.16h.92c.09,0,.16,.07,.16,.16s-.07,.16-.16,.16Z"/><path class="cls-1" d="M130.97,32.62h-.92c-.09,0-.16-.07-.16-.16s.07-.16,.16-.16h.92c.09,0,.16,.07,.16,.16s-.07,.16-.16,.16Z"/><path class="cls-1" d="M130.97,39.26h-.92c-.09,0-.16-.07-.16-.16s.07-.16,.16-.16h.92c.09,0,.16,.07,.16,.16s-.07,.16-.16,.16Z"/><path class="cls-1" d="M130.97,45.91h-.92c-.09,0-.16-.07-.16-.16s.07-.16,.16-.16h.92c.09,0,.16,.07,.16,.16s-.07,.16-.16,.16Z"/><path class="cls-1" d="M130.97,52.55h-.92c-.09,0-.16-.07-.16-.16s.07-.16,.16-.16h.92c.09,0,.16,.07,.16,.16s-.07,.16-.16,.16Z"/><path class="cls-1" d="M130.97,59.2h-.92c-.09,0-.16-.07-.16-.16s.07-.16,.16-.16h.92c.09,0,.16,.07,.16,.16s-.07,.16-.16,.16Z"/><path class="cls-1" d="M130.97,65.84h-.92c-.09,0-.16-.07-.16-.16s.07-.16,.16-.16h.92c.09,0,.16,.07,.16,.16s-.07,.16-.16,.16Z"/><path class="cls-1" d="M130.97,72.49h-.92c-.09,0-.16-.07-.16-.16s.07-.16,.16-.16h.92c.09,0,.16,.07,.16,.16s-.07,.16-.16,.16Z"/><path class="cls-1" d="M130.97,79.13h-.92c-.09,0-.16-.07-.16-.16s.07-.16,.16-.16h.92c.09,0,.16,.07,.16,.16s-.07,.16-.16,.16Z"/><path class="cls-1" d="M130.97,85.78h-.92c-.09,0-.16-.07-.16-.16s.07-.16,.16-.16h.92c.09,0,.16,.07,.16,.16s-.07,.16-.16,.16Z"/></g><path class="cls-1" d="M133.19,96.28h-11.27s-.08-.02-.11-.05l-5.21-5.21h-3.88c-.09,0-.16-.07-.16-.16s.07-.16,.16-.16h3.95s.08,.02,.11,.05l5.21,5.21h11.2c.09,0,.16,.07,.16,.16s-.07,.16-.16,.16Z"/><path class="cls-1" d="M111.65,91.19h-1.57c-.18,0-.32-.14-.32-.32s.14-.32,.32-.32h1.57c.18,0,.32,.14,.32,.32s-.14,.32-.32,.32Z"/><g><path class="cls-1" d="M125.87,22.65h-3.95s-.08-.02-.11-.05l-1.69-1.69c-.06-.06-.06-.16,0-.22s.16-.06,.23,0l1.65,1.65h3.88c.09,0,.16,.07,.16,.16s-.07,.16-.16,.16Z"/><path class="cls-1" d="M119.68,20.5c-.08,0-.16-.03-.23-.09l-.8-.81c-.12-.12-.12-.33,0-.45s.33-.12,.45,0l.81,.81c.12,.12,.12,.33,0,.45-.06,.06-.14,.09-.23,.09Z"/></g><g><path class="cls-1" d="M125.87,35.94h-3.95s-.08-.02-.11-.05l-1.69-1.69c-.06-.06-.06-.16,0-.22,.06-.06,.16-.06,.23,0l1.65,1.65h3.88c.09,0,.16,.07,.16,.16s-.07,.16-.16,.16Z"/><path class="cls-1" d="M119.68,33.79c-.08,0-.16-.03-.23-.09l-.8-.8c-.12-.12-.12-.33,0-.45,.12-.12,.33-.12,.45,0l.81,.8c.12,.12,.12,.33,0,.45-.06,.06-.14,.09-.23,.09Z"/></g><g><path class="cls-1" d="M125.87,49.23h-3.95s-.08-.02-.11-.05l-1.69-1.69c-.06-.06-.06-.16,0-.22s.16-.06,.23,0l1.65,1.65h3.88c.09,0,.16,.07,.16,.16s-.07,.16-.16,.16Z"/><path class="cls-1" d="M119.68,47.08c-.08,0-.16-.03-.23-.09l-.8-.81c-.12-.12-.12-.33,0-.45s.33-.12,.45,0l.81,.81c.12,.12,.12,.33,0,.45-.06,.06-.14,.09-.23,.09Z"/></g><g><path class="cls-1" d="M125.87,62.52h-3.95s-.08-.02-.11-.05l-1.69-1.69c-.06-.06-.06-.16,0-.22s.16-.06,.23,0l1.65,1.65h3.88c.09,0,.16,.07,.16,.16s-.07,.16-.16,.16Z"/><path class="cls-1" d="M119.68,60.36c-.08,0-.16-.03-.23-.09l-.8-.81c-.12-.12-.12-.33,0-.45s.33-.12,.45,0l.81,.81c.12,.12,.12,.33,0,.45-.06,.06-.14,.09-.23,.09Z"/></g><g><path class="cls-1" d="M125.87,75.81h-3.95s-.08-.02-.11-.05l-1.69-1.69c-.06-.06-.06-.16,0-.22s.16-.06,.23,0l1.65,1.65h3.88c.09,0,.16,.07,.16,.16s-.07,.16-.16,.16Z"/><path class="cls-1" d="M119.68,73.65c-.08,0-.16-.03-.23-.09l-.8-.8c-.12-.12-.12-.33,0-.45,.12-.12,.33-.12,.45,0l.81,.8c.12,.12,.12,.33,0,.45-.06,.06-.14,.09-.23,.09Z"/></g><g><path class="cls-1" d="M125.87,89.1h-3.95s-.08-.02-.11-.05l-1.69-1.69c-.06-.06-.06-.16,0-.22s.16-.06,.23,0l1.65,1.65h3.88c.09,0,.16,.07,.16,.16s-.07,.16-.16,.16Z"/><path class="cls-1" d="M119.68,86.94c-.08,0-.16-.03-.23-.09l-.8-.81c-.12-.12-.12-.33,0-.45s.33-.12,.45,0l.81,.81c.12,.12,.12,.33,0,.45-.06,.06-.14,.09-.23,.09Z"/></g><path class="cls-1" d="M168.69,11.26h-31.38c-.08,0-.17-.03-.23-.09l-5.52-5.52c-.12-.12-.12-.33,0-.45,.12-.12,.33-.12,.45,0l5.43,5.43h31.12l3.38-3.38c.06-.06,.14-.09,.23-.09h31.28c.18,0,.32,.14,.32,.32s-.14,.32-.32,.32h-31.15l-3.38,3.38c-.06,.06-.14,.09-.23,.09Z"/><path class="cls-1" d="M138.36,9.89c-.09,0-.16-.07-.16-.16v-.51l-.77-.77c-.06-.06-.06-.16,0-.23,.06-.06,.16-.06,.22,0l.82,.82s.05,.07,.05,.11v.57c0,.09-.07,.16-.16,.16Z"/><path class="cls-1" d="M140.2,9.89c-.09,0-.16-.07-.16-.16v-.51l-.77-.77c-.06-.06-.06-.16,0-.23,.06-.06,.16-.06,.22,0l.82,.82s.05,.07,.05,.11v.57c0,.09-.07,.16-.16,.16Z"/><path class="cls-1" d="M142.04,9.89c-.09,0-.16-.07-.16-.16v-.51l-.77-.77c-.06-.06-.06-.16,0-.23s.16-.06,.22,0l.82,.82s.05,.07,.05,.11v.57c0,.09-.07,.16-.16,.16Z"/><path class="cls-1" d="M143.88,9.89c-.09,0-.16-.07-.16-.16v-.51l-.77-.77c-.06-.06-.06-.16,0-.23s.16-.06,.22,0l.82,.82s.05,.07,.05,.11v.57c0,.09-.07,.16-.16,.16Z"/><path class="cls-1" d="M145.72,9.89c-.09,0-.16-.07-.16-.16v-.51l-.77-.77c-.06-.06-.06-.16,0-.23,.06-.06,.16-.06,.22,0l.82,.82s.05,.07,.05,.11v.57c0,.09-.07,.16-.16,.16Z"/><path class="cls-1" d="M147.56,9.89c-.09,0-.16-.07-.16-.16v-.51l-.77-.77c-.06-.06-.06-.16,0-.23,.06-.06,.16-.06,.23,0l.82,.82s.05,.07,.05,.11v.57c0,.09-.07,.16-.16,.16Z"/><path class="cls-1" d="M149.4,9.89c-.09,0-.16-.07-.16-.16v-.51l-.77-.77c-.06-.06-.06-.16,0-.23s.16-.06,.22,0l.82,.82s.05,.07,.05,.11v.57c0,.09-.07,.16-.16,.16Z"/><path class="cls-1" d="M151.24,9.89c-.09,0-.16-.07-.16-.16v-.51l-.77-.77c-.06-.06-.06-.16,0-.23s.16-.06,.22,0l.82,.82s.05,.07,.05,.11v.57c0,.09-.07,.16-.16,.16Z"/><path class="cls-1" d="M153.08,9.89c-.09,0-.16-.07-.16-.16v-.51l-.77-.77c-.06-.06-.06-.16,0-.23,.06-.06,.16-.06,.23,0l.82,.82s.05,.07,.05,.11v.57c0,.09-.07,.16-.16,.16Z"/><path class="cls-1" d="M188.74,8.34h-17.29c-.09,0-.16-.07-.16-.16s.07-.16,.16-.16h17.22l.52-.52c.06-.06,.16-.06,.23,0,.06,.06,.06,.16,0,.23l-.57,.57s-.07,.05-.11,.05Z"/><path class="cls-1" d="M209.84,10.33c-.09,0-.16-.07-.16-.16v-1.98l-.67-.67h-2.54c-.09,0-.16-.07-.16-.16s.07-.16,.16-.16h2.61s.08,.02,.11,.05l.77,.77s.05,.07,.05,.11v2.05c0,.09-.07,.16-.16,.16Z"/><path class="cls-1" d="M209.84,16.31c-.09,0-.16-.07-.16-.16v-3.68c0-.09,.07-.16,.16-.16s.16,.07,.16,.16v3.68c0,.09-.07,.16-.16,.16Z"/><path class="cls-1" d="M177.49,24.05c-.09,0-.16-.07-.16-.16v-3.02l-7.86-7.86h-31.92c-.09,0-.16-.07-.16-.16s.07-.16,.16-.16h31.99s.08,.02,.11,.05l7.96,7.96s.05,.07,.05,.11v3.08c0,.09-.07,.16-.16,.16Z"/><g><g><path class="cls-1" d="M156.88,22.64h-13.67c-.09,0-.16-.07-.16-.16s.07-.16,.16-.16h13.67c.09,0,.16,.07,.16,.16s-.07,.16-.16,.16Z"/><polygon class="cls-1" points="157.03 22.47 157.03 22.11 153.41 22.11 153.02 22.49 157.03 22.47"/></g><rect class="cls-1" x="157.98" y="22.07" width=".47" height=".46"/><rect class="cls-1" x="159.22" y="22.16" width=".29" height=".29"/><rect class="cls-1" x="161.14" y="22.21" width=".18" height=".18"/></g><g><g><path class="cls-1" d="M156.88,35.92h-13.67c-.09,0-.16-.07-.16-.16s.07-.16,.16-.16h13.67c.09,0,.16,.07,.16,.16s-.07,.16-.16,.16Z"/><polygon class="cls-1" points="157.03 35.75 157.03 35.39 153.41 35.39 153.02 35.78 157.03 35.75"/></g><rect class="cls-1" x="157.98" y="35.35" width=".47" height=".46"/><rect class="cls-1" x="159.22" y="35.44" width=".29" height=".29"/><rect class="cls-1" x="161.14" y="35.5" width=".18" height=".18"/></g><g><g><path class="cls-1" d="M156.88,62.49h-13.67c-.09,0-.16-.07-.16-.16s.07-.16,.16-.16h13.67c.09,0,.16,.07,.16,.16s-.07,.16-.16,.16Z"/><polygon class="cls-1" points="157.03 62.31 157.03 61.95 153.41 61.95 153.02 62.34 157.03 62.31"/></g><rect class="cls-1" x="157.98" y="61.92" width=".47" height=".46"/><rect class="cls-1" x="159.22" y="62" width=".29" height=".29"/><rect class="cls-1" x="161.14" y="62.06" width=".18" height=".18"/></g><g><g><path class="cls-1" d="M156.88,89.05h-13.67c-.09,0-.16-.07-.16-.16s.07-.16,.16-.16h13.67c.09,0,.16,.07,.16,.16s-.07,.16-.16,.16Z"/><polygon class="cls-1" points="157.03 88.88 157.03 88.52 153.41 88.52 153.02 88.9 157.03 88.88"/></g><rect class="cls-1" x="157.98" y="88.48" width=".47" height=".46"/><rect class="cls-1" x="159.22" y="88.56" width=".29" height=".29"/><rect class="cls-1" x="161.14" y="88.62" width=".18" height=".18"/></g><path class="cls-1" d="M212.04,82.86h-47.44s-.08-.02-.11-.05l-3.18-3.18h-3.33c-.09,0-.16-.07-.16-.16s.07-.16,.16-.16h3.4s.08,.02,.11,.05l3.18,3.18h47.21v-6.42l-34.5-34.5s-.05-.07-.05-.11v-14.11c0-.09,.07-.16,.16-.16s.16,.07,.16,.16v14.04l34.5,34.5s.05,.07,.05,.11v6.65c0,.09-.07,.16-.16,.16Z"/><path class="cls-1" d="M188.83,88.68h-21.88c-.09,0-.16-.07-.16-.16s.07-.16,.16-.16h21.88c.09,0,.16,.07,.16,.16s-.07,.16-.16,.16Z"/><polygon class="cls-1" points="173.6 61.59 169.92 61.59 169.92 61.43 173.44 61.43 173.44 56.28 123.55 6.39 123.66 6.28 173.6 56.22 173.6 61.59"/><polygon class="cls-1" points="195.24 32.89 191.51 29.17 191.51 0 191.67 0 191.67 29.1 195.35 32.78 195.24 32.89"/><polygon class="cls-1" points="195.32 95.05 143.85 95.05 143.85 94.89 195.26 94.89 198.99 91.16 198.99 89.45 199.15 89.45 199.15 91.23 199.13 91.25 195.32 95.05"/></g><path class="cls-1" d="M212.93,95.13h-7.21c-.09,0-.16-.07-.16-.16s.07-.16,.16-.16h7.14l2.51-2.51v-25.8l-1.64-1.64s-.05-.07-.05-.11v-2.37c0-.09,.07-.16,.16-.16s.16,.07,.16,.16v2.3l1.64,1.64s.05,.07,.05,.11v25.93s-.02,.08-.05,.11l-2.61,2.61s-.07,.05-.11,.05Z"/><path class="cls-1" d="M214,57.85c-.09,0-.16-.07-.16-.16v-2.64c0-.09,.07-.16,.16-.16s.16,.07,.16,.16v2.64c0,.09-.07,.16-.16,.16Z"/><path class="cls-1" d="M214,49.39c-.18,0-.32-.14-.32-.32v-3.72c0-.08,.03-.17,.09-.22l1.07-1.07c.06-.06,.14-.09,.22-.09h1.99c.18,0,.32,.14,.32,.32s-.14,.32-.32,.32h-1.86l-.89,.89v3.59c0,.18-.14,.32-.32,.32Z"/><path class="cls-1" d="M140.73,95.29h-2.86c-.18,0-.32-.14-.32-.32s.14-.32,.32-.32h2.86c.18,0,.32,.14,.32,.32s-.14,.32-.32,.32Z"/></g><g><g><path class="cls-1" d="M86.73,93.14h-2.53c-.18,0-.32-.14-.32-.32V19.91c0-.08,.03-.17,.09-.23l2.84-2.84c.06-.06,.14-.09,.22-.09h6.75c.18,0,.32,.14,.32,.32s-.14,.32-.32,.32h-6.62l-2.65,2.65V92.51h2.21c.18,0,.32,.14,.32,.32s-.14,.32-.32,.32Z"/><path class="cls-1" d="M80.9,22.65h-2.76c-.09,0-.16-.07-.16-.16s.07-.16,.16-.16h2.76c.09,0,.16,.07,.16,.16s-.07,.16-.16,.16Z"/><path class="cls-1" d="M80.9,29.29h-2.76c-.09,0-.16-.07-.16-.16s.07-.16,.16-.16h2.76c.09,0,.16,.07,.16,.16s-.07,.16-.16,.16Z"/><path class="cls-1" d="M80.9,35.94h-2.76c-.09,0-.16-.07-.16-.16s.07-.16,.16-.16h2.76c.09,0,.16,.07,.16,.16s-.07,.16-.16,.16Z"/><path class="cls-1" d="M80.9,42.58h-2.76c-.09,0-.16-.07-.16-.16s.07-.16,.16-.16h2.76c.09,0,.16,.07,.16,.16s-.07,.16-.16,.16Z"/><path class="cls-1" d="M80.9,49.23h-2.76c-.09,0-.16-.07-.16-.16s.07-.16,.16-.16h2.76c.09,0,.16,.07,.16,.16s-.07,.16-.16,.16Z"/><path class="cls-1" d="M80.9,55.87h-2.76c-.09,0-.16-.07-.16-.16s.07-.16,.16-.16h2.76c.09,0,.16,.07,.16,.16s-.07,.16-.16,.16Z"/><path class="cls-1" d="M80.9,62.52h-2.76c-.09,0-.16-.07-.16-.16s.07-.16,.16-.16h2.76c.09,0,.16,.07,.16,.16s-.07,.16-.16,.16Z"/><path class="cls-1" d="M80.9,69.16h-2.76c-.09,0-.16-.07-.16-.16s.07-.16,.16-.16h2.76c.09,0,.16,.07,.16,.16s-.07,.16-.16,.16Z"/><path class="cls-1" d="M80.9,75.81h-2.76c-.09,0-.16-.07-.16-.16s.07-.16,.16-.16h2.76c.09,0,.16,.07,.16,.16s-.07,.16-.16,.16Z"/><path class="cls-1" d="M80.9,82.45h-2.76c-.09,0-.16-.07-.16-.16s.07-.16,.16-.16h2.76c.09,0,.16,.07,.16,.16s-.07,.16-.16,.16Z"/><path class="cls-1" d="M80.9,89.1h-2.76c-.09,0-.16-.07-.16-.16s.07-.16,.16-.16h2.76c.09,0,.16,.07,.16,.16s-.07,.16-.16,.16Z"/><g><path class="cls-1" d="M89.18,22.65h-2.76c-.09,0-.16-.07-.16-.16s.07-.16,.16-.16h2.76c.09,0,.16,.07,.16,.16s-.07,.16-.16,.16Z"/><path class="cls-1" d="M89.18,29.29h-2.76c-.09,0-.16-.07-.16-.16s.07-.16,.16-.16h2.76c.09,0,.16,.07,.16,.16s-.07,.16-.16,.16Z"/><path class="cls-1" d="M89.18,35.94h-2.76c-.09,0-.16-.07-.16-.16s.07-.16,.16-.16h2.76c.09,0,.16,.07,.16,.16s-.07,.16-.16,.16Z"/><path class="cls-1" d="M89.18,42.58h-2.76c-.09,0-.16-.07-.16-.16s.07-.16,.16-.16h2.76c.09,0,.16,.07,.16,.16s-.07,.16-.16,.16Z"/><path class="cls-1" d="M89.18,49.23h-2.76c-.09,0-.16-.07-.16-.16s.07-.16,.16-.16h2.76c.09,0,.16,.07,.16,.16s-.07,.16-.16,.16Z"/><path class="cls-1" d="M89.18,55.87h-2.76c-.09,0-.16-.07-.16-.16s.07-.16,.16-.16h2.76c.09,0,.16,.07,.16,.16s-.07,.16-.16,.16Z"/><path class="cls-1" d="M89.18,62.52h-2.76c-.09,0-.16-.07-.16-.16s.07-.16,.16-.16h2.76c.09,0,.16,.07,.16,.16s-.07,.16-.16,.16Z"/><path class="cls-1" d="M89.18,69.16h-2.76c-.09,0-.16-.07-.16-.16s.07-.16,.16-.16h2.76c.09,0,.16,.07,.16,.16s-.07,.16-.16,.16Z"/><path class="cls-1" d="M89.18,75.81h-2.76c-.09,0-.16-.07-.16-.16s.07-.16,.16-.16h2.76c.09,0,.16,.07,.16,.16s-.07,.16-.16,.16Z"/><path class="cls-1" d="M89.18,82.45h-2.76c-.09,0-.16-.07-.16-.16s.07-.16,.16-.16h2.76c.09,0,.16,.07,.16,.16s-.07,.16-.16,.16Z"/><path class="cls-1" d="M89.18,89.1h-2.76c-.09,0-.16-.07-.16-.16s.07-.16,.16-.16h2.76c.09,0,.16,.07,.16,.16s-.07,.16-.16,.16Z"/></g><g><path class="cls-1" d="M87.34,25.97h-.92c-.09,0-.16-.07-.16-.16s.07-.16,.16-.16h.92c.09,0,.16,.07,.16,.16s-.07,.16-.16,.16Z"/><path class="cls-1" d="M87.34,32.62h-.92c-.09,0-.16-.07-.16-.16s.07-.16,.16-.16h.92c.09,0,.16,.07,.16,.16s-.07,.16-.16,.16Z"/><path class="cls-1" d="M87.34,39.26h-.92c-.09,0-.16-.07-.16-.16s.07-.16,.16-.16h.92c.09,0,.16,.07,.16,.16s-.07,.16-.16,.16Z"/><path class="cls-1" d="M87.34,45.91h-.92c-.09,0-.16-.07-.16-.16s.07-.16,.16-.16h.92c.09,0,.16,.07,.16,.16s-.07,.16-.16,.16Z"/><path class="cls-1" d="M87.34,52.55h-.92c-.09,0-.16-.07-.16-.16s.07-.16,.16-.16h.92c.09,0,.16,.07,.16,.16s-.07,.16-.16,.16Z"/><path class="cls-1" d="M87.34,59.2h-.92c-.09,0-.16-.07-.16-.16s.07-.16,.16-.16h.92c.09,0,.16,.07,.16,.16s-.07,.16-.16,.16Z"/><path class="cls-1" d="M87.34,65.84h-.92c-.09,0-.16-.07-.16-.16s.07-.16,.16-.16h.92c.09,0,.16,.07,.16,.16s-.07,.16-.16,.16Z"/><path class="cls-1" d="M87.34,72.49h-.92c-.09,0-.16-.07-.16-.16s.07-.16,.16-.16h.92c.09,0,.16,.07,.16,.16s-.07,.16-.16,.16Z"/><path class="cls-1" d="M87.34,79.13h-.92c-.09,0-.16-.07-.16-.16s.07-.16,.16-.16h.92c.09,0,.16,.07,.16,.16s-.07,.16-.16,.16Z"/><path class="cls-1" d="M87.34,85.78h-.92c-.09,0-.16-.07-.16-.16s.07-.16,.16-.16h.92c.09,0,.16,.07,.16,.16s-.07,.16-.16,.16Z"/></g><path class="cls-1" d="M95.47,96.28h-11.27c-.09,0-.16-.07-.16-.16s.07-.16,.16-.16h11.2l5.21-5.21s.07-.05,.11-.05h3.95c.09,0,.16,.07,.16,.16s-.07,.16-.16,.16h-3.88l-5.21,5.21s-.07,.05-.11,.05Z"/><path class="cls-1" d="M107.31,91.19h-1.57c-.18,0-.32-.14-.32-.32s.14-.32,.32-.32h1.57c.18,0,.32,.14,.32,.32s-.14,.32-.32,.32Z"/><g><path class="cls-1" d="M95.47,22.65h-3.95c-.09,0-.16-.07-.16-.16s.07-.16,.16-.16h3.88l1.65-1.65c.06-.06,.16-.06,.23,0,.06,.06,.06,.16,0,.22l-1.69,1.69s-.07,.05-.11,.05Z"/><path class="cls-1" d="M97.71,20.5c-.08,0-.16-.03-.22-.09-.12-.12-.12-.33,0-.45l.81-.81c.12-.12,.33-.12,.45,0s.12,.33,0,.45l-.81,.81c-.06,.06-.14,.09-.22,.09Z"/></g><g><path class="cls-1" d="M95.47,35.94h-3.95c-.09,0-.16-.07-.16-.16s.07-.16,.16-.16h3.88l1.65-1.65c.06-.06,.16-.06,.23,0s.06,.16,0,.22l-1.69,1.69s-.07,.05-.11,.05Z"/><path class="cls-1" d="M97.71,33.79c-.08,0-.16-.03-.22-.09-.12-.12-.12-.33,0-.45l.81-.8c.12-.12,.33-.12,.45,0s.12,.33,0,.45l-.81,.8c-.06,.06-.14,.09-.22,.09Z"/></g><g><path class="cls-1" d="M95.47,49.23h-3.95c-.09,0-.16-.07-.16-.16s.07-.16,.16-.16h3.88l1.65-1.65c.06-.06,.16-.06,.23,0,.06,.06,.06,.16,0,.22l-1.69,1.69s-.07,.05-.11,.05Z"/><path class="cls-1" d="M97.71,47.08c-.08,0-.16-.03-.22-.09-.12-.12-.12-.33,0-.45l.81-.81c.12-.12,.33-.12,.45,0s.12,.33,0,.45l-.81,.81c-.06,.06-.14,.09-.22,.09Z"/></g><g><path class="cls-1" d="M95.47,62.52h-3.95c-.09,0-.16-.07-.16-.16s.07-.16,.16-.16h3.88l1.65-1.65c.06-.06,.16-.06,.23,0,.06,.06,.06,.16,0,.22l-1.69,1.69s-.07,.05-.11,.05Z"/><path class="cls-1" d="M97.71,60.36c-.08,0-.16-.03-.22-.09-.12-.12-.12-.33,0-.45l.81-.81c.12-.12,.33-.12,.45,0s.12,.33,0,.45l-.81,.81c-.06,.06-.14,.09-.22,.09Z"/></g><g><path class="cls-1" d="M95.47,75.81h-3.95c-.09,0-.16-.07-.16-.16s.07-.16,.16-.16h3.88l1.65-1.65c.06-.06,.16-.06,.23,0,.06,.06,.06,.16,0,.22l-1.69,1.69s-.07,.05-.11,.05Z"/><path class="cls-1" d="M97.71,73.65c-.08,0-.16-.03-.22-.09-.12-.12-.12-.33,0-.45l.81-.8c.12-.12,.33-.12,.45,0,.12,.12,.12,.33,0,.45l-.81,.8c-.06,.06-.14,.09-.22,.09Z"/></g><g><path class="cls-1" d="M95.47,89.1h-3.95c-.09,0-.16-.07-.16-.16s.07-.16,.16-.16h3.88l1.65-1.65c.06-.06,.16-.06,.23,0,.06,.06,.06,.16,0,.22l-1.69,1.69s-.07,.05-.11,.05Z"/><path class="cls-1" d="M97.71,86.94c-.08,0-.16-.03-.22-.09-.12-.12-.12-.33,0-.45l.81-.81c.12-.12,.33-.12,.45,0s.12,.33,0,.45l-.81,.81c-.06,.06-.14,.09-.22,.09Z"/></g><path class="cls-1" d="M80.08,11.26h-31.38c-.08,0-.17-.03-.22-.09l-3.38-3.38H13.94c-.18,0-.32-.14-.32-.32s.14-.32,.32-.32h31.28c.08,0,.17,.03,.22,.09l3.38,3.38h31.12l5.43-5.43c.12-.12,.33-.12,.45,0s.12,.33,0,.45l-5.52,5.52c-.06,.06-.14,.09-.22,.09Z"/><path class="cls-1" d="M79.03,9.89c-.09,0-.16-.07-.16-.16v-.57s.02-.08,.05-.11l.82-.82c.06-.06,.16-.06,.22,0,.06,.06,.06,.16,0,.23l-.77,.77v.51c0,.09-.07,.16-.16,.16Z"/><path class="cls-1" d="M77.19,9.89c-.09,0-.16-.07-.16-.16v-.57s.02-.08,.05-.11l.82-.82c.06-.06,.16-.06,.22,0,.06,.06,.06,.16,0,.23l-.77,.77v.51c0,.09-.07,.16-.16,.16Z"/><path class="cls-1" d="M75.35,9.89c-.09,0-.16-.07-.16-.16v-.57s.02-.08,.05-.11l.82-.82c.06-.06,.16-.06,.23,0,.06,.06,.06,.16,0,.23l-.77,.77v.51c0,.09-.07,.16-.16,.16Z"/><path class="cls-1" d="M73.51,9.89c-.09,0-.16-.07-.16-.16v-.57s.02-.08,.05-.11l.82-.82c.06-.06,.16-.06,.22,0s.06,.16,0,.23l-.77,.77v.51c0,.09-.07,.16-.16,.16Z"/><path class="cls-1" d="M71.66,9.89c-.09,0-.16-.07-.16-.16v-.57s.02-.08,.05-.11l.82-.82c.06-.06,.16-.06,.23,0,.06,.06,.06,.16,0,.23l-.77,.77v.51c0,.09-.07,.16-.16,.16Z"/><path class="cls-1" d="M69.82,9.89c-.09,0-.16-.07-.16-.16v-.57s.02-.08,.05-.11l.82-.82c.06-.06,.16-.06,.23,0,.06,.06,.06,.16,0,.23l-.77,.77v.51c0,.09-.07,.16-.16,.16Z"/><path class="cls-1" d="M67.98,9.89c-.09,0-.16-.07-.16-.16v-.57s.02-.08,.05-.11l.82-.82c.06-.06,.16-.06,.23,0,.06,.06,.06,.16,0,.23l-.77,.77v.51c0,.09-.07,.16-.16,.16Z"/><path class="cls-1" d="M66.14,9.89c-.09,0-.16-.07-.16-.16v-.57s.02-.08,.05-.11l.82-.82c.06-.06,.16-.06,.22,0s.06,.16,0,.23l-.77,.77v.51c0,.09-.07,.16-.16,.16Z"/><path class="cls-1" d="M64.3,9.89c-.09,0-.16-.07-.16-.16v-.57s.02-.08,.05-.11l.82-.82c.06-.06,.16-.06,.23,0,.06,.06,.06,.16,0,.23l-.77,.77v.51c0,.09-.07,.16-.16,.16Z"/><path class="cls-1" d="M45.94,8.34H28.65s-.08-.02-.11-.05l-.57-.57c-.06-.06-.06-.16,0-.23,.06-.06,.16-.06,.22,0l.52,.52h17.22c.09,0,.16,.07,.16,.16s-.07,.16-.16,.16Z"/><path class="cls-1" d="M7.55,10.33c-.09,0-.16-.07-.16-.16v-2.05s.02-.08,.05-.11l.77-.77s.07-.05,.11-.05h2.61c.09,0,.16,.07,.16,.16s-.07,.16-.16,.16h-2.54l-.67,.67v1.98c0,.09-.07,.16-.16,.16Z"/><path class="cls-1" d="M7.55,16.31c-.09,0-.16-.07-.16-.16v-3.68c0-.09,.07-.16,.16-.16s.16,.07,.16,.16v3.68c0,.09-.07,.16-.16,.16Z"/><path class="cls-1" d="M39.9,24.05c-.09,0-.16-.07-.16-.16v-3.08s.02-.08,.05-.11l7.96-7.96s.07-.05,.11-.05h31.99c.09,0,.16,.07,.16,.16s-.07,.16-.16,.16h-31.92l-7.86,7.86v3.02c0,.09-.07,.16-.16,.16Z"/><g><g><path class="cls-1" d="M74.18,22.64h-13.67c-.09,0-.16-.07-.16-.16s.07-.16,.16-.16h13.67c.09,0,.16,.07,.16,.16s-.07,.16-.16,.16Z"/><polygon class="cls-1" points="60.36 22.47 60.36 22.11 63.98 22.11 64.37 22.49 60.36 22.47"/></g><rect class="cls-1" x="58.94" y="22.07" width=".47" height=".46" transform="translate(118.35 44.6) rotate(180)"/><rect class="cls-1" x="57.87" y="22.16" width=".29" height=".29" transform="translate(116.04 44.6) rotate(180)"/><rect class="cls-1" x="56.07" y="22.21" width=".18" height=".18" transform="translate(112.31 44.6) rotate(180)"/></g><g><g><path class="cls-1" d="M74.18,35.92h-13.67c-.09,0-.16-.07-.16-.16s.07-.16,.16-.16h13.67c.09,0,.16,.07,.16,.16s-.07,.16-.16,.16Z"/><polygon class="cls-1" points="60.36 35.75 60.36 35.39 63.98 35.39 64.37 35.78 60.36 35.75"/></g><rect class="cls-1" x="58.94" y="35.35" width=".47" height=".46" transform="translate(118.35 71.17) rotate(180)"/><rect class="cls-1" x="57.87" y="35.44" width=".29" height=".29" transform="translate(116.04 71.17) rotate(180)"/><rect class="cls-1" x="56.07" y="35.5" width=".18" height=".18" transform="translate(112.31 71.17) rotate(180)"/></g><g><g><path class="cls-1" d="M74.18,62.49h-13.67c-.09,0-.16-.07-.16-.16s.07-.16,.16-.16h13.67c.09,0,.16,.07,.16,.16s-.07,.16-.16,.16Z"/><polygon class="cls-1" points="60.36 62.31 60.36 61.95 63.98 61.95 64.37 62.34 60.36 62.31"/></g><rect class="cls-1" x="58.94" y="61.92" width=".47" height=".46" transform="translate(118.35 124.29) rotate(180)"/><rect class="cls-1" x="57.87" y="62" width=".29" height=".29" transform="translate(116.04 124.29) rotate(180)"/><rect class="cls-1" x="56.07" y="62.06" width=".18" height=".18" transform="translate(112.31 124.29) rotate(180)"/></g><g><g><path class="cls-1" d="M74.18,89.05h-13.67c-.09,0-.16-.07-.16-.16s.07-.16,.16-.16h13.67c.09,0,.16,.07,.16,.16s-.07,.16-.16,.16Z"/><polygon class="cls-1" points="60.36 88.88 60.36 88.52 63.98 88.52 64.37 88.9 60.36 88.88"/></g><rect class="cls-1" x="58.94" y="88.48" width=".47" height=".46" transform="translate(118.35 177.42) rotate(180)"/><rect class="cls-1" x="57.87" y="88.56" width=".29" height=".29" transform="translate(116.04 177.42) rotate(180)"/><rect class="cls-1" x="56.07" y="88.62" width=".18" height=".18" transform="translate(112.31 177.42) rotate(180)"/></g><path class="cls-1" d="M52.79,82.86H5.35c-.09,0-.16-.07-.16-.16v-6.65s.02-.08,.05-.11L39.74,41.44v-14.04c0-.09,.07-.16,.16-.16s.16,.07,.16,.16v14.11s-.02,.08-.05,.11L5.51,76.12v6.42H52.72l3.18-3.18s.07-.05,.11-.05h3.4c.09,0,.16,.07,.16,.16s-.07,.16-.16,.16h-3.33l-3.18,3.18s-.07,.05-.11,.05Z"/><path class="cls-1" d="M50.44,88.68H28.56c-.09,0-.16-.07-.16-.16s.07-.16,.16-.16h21.88c.09,0,.16,.07,.16,.16s-.07,.16-.16,.16Z"/><polygon class="cls-1" points="47.47 61.59 43.79 61.59 43.79 56.22 43.81 56.2 93.73 6.28 93.84 6.39 43.95 56.28 43.95 61.43 47.47 61.43 47.47 61.59"/><polygon class="cls-1" points="22.15 32.89 22.04 32.78 25.72 29.1 25.72 0 25.88 0 25.88 29.17 25.86 29.19 22.15 32.89"/><polygon class="cls-1" points="73.54 95.05 22.06 95.05 22.04 95.03 18.24 91.23 18.24 89.45 18.4 89.45 18.4 91.16 22.13 94.89 73.54 94.89 73.54 95.05"/></g><path class="cls-1" d="M11.67,95.13H4.46s-.08-.02-.11-.05l-2.61-2.61s-.05-.07-.05-.11v-25.93s.02-.08,.05-.11l1.64-1.64v-2.3c0-.09,.07-.16,.16-.16s.16,.07,.16,.16v2.37s-.02,.08-.05,.11l-1.64,1.64v25.8l2.51,2.51h7.14c.09,0,.16,.07,.16,.16s-.07,.16-.16,.16Z"/><path class="cls-1" d="M3.39,57.85c-.09,0-.16-.07-.16-.16v-2.64c0-.09,.07-.16,.16-.16s.16,.07,.16,.16v2.64c0,.09-.07,.16-.16,.16Z"/><path class="cls-1" d="M3.39,49.39c-.18,0-.32-.14-.32-.32v-3.59l-.89-.89H.32c-.18,0-.32-.14-.32-.32s.14-.32,.32-.32h1.99c.08,0,.17,.03,.22,.09l1.07,1.07c.06,.06,.09,.14,.09,.22v3.72c0,.18-.14,.32-.32,.32Z"/><path class="cls-1" d="M79.52,95.29h-2.86c-.18,0-.32-.14-.32-.32s.14-.32,.32-.32h2.86c.18,0,.32,.14,.32,.32s-.14,.32-.32,.32Z"/></g></g></g></svg>