<svg id="calendar" enable-background="new 0 0 300 300" height="512" viewBox="0 0 300 300" width="512" xmlns="http://www.w3.org/2000/svg"><g><path d="m227.613 64h-31.613v-8c0-2.209-1.789-4-4-4s-4 1.791-4 4v8h-48v-8c0-2.209-1.789-4-4-4s-4 1.791-4 4v8h-31.613c-20.063 0-36.387 16.322-36.387 36.387v123.227c0 .353.043.696.053 1.046-2.602 1.527-5.496 2.615-8.619 3.063-1.973.281-3.434 2.287-3.434 4.277 0 2.209 1.789 4 4 4h10.218c5.084 13.974 18.461 24 34.169 24h127.227c20.062 0 36.386-16.322 36.386-36.387v-123.226c0-20.065-16.324-36.387-36.387-36.387zm28.387 159.613c0 15.653-12.734 28.387-28.387 28.387h-127.226c-11.208 0-20.89-6.545-25.502-16h152.045c13.824 0 25.07-11.246 25.07-25.068v-90.932c0-2.209-1.789-4-4-4h-168c-2.211 0-4 1.791-4 4v84c0 4.79-1.5 9.273-4 13.071v-116.684c0-15.653 12.734-28.387 28.387-28.387h31.613v13.11c-2.381 1.386-4 3.937-4 6.89 0 4.418 3.582 8 8 8s8-3.582 8-8c0-2.954-1.619-5.505-4-6.89v-13.11h48v13.11c-2.381 1.386-4 3.937-4 6.89 0 4.418 3.582 8 8 8s8-3.582 8-8c0-2.954-1.619-5.505-4-6.89v-13.11h31.613c15.653 0 28.387 12.734 28.387 28.387zm-182.926 4.387c6.719-5.916 10.926-14.568 10.926-24v-80h160v86.932c0 9.412-7.656 17.068-17.07 17.068z"/><circle cx="40" cy="80" r="4"/><path d="m61.172 58.828c.781.781 1.805 1.172 2.828 1.172s2.047-.391 2.828-1.172l3.172-3.172 3.172 3.172c.781.781 1.805 1.172 2.828 1.172s2.047-.391 2.828-1.172c1.562-1.562 1.562-4.094 0-5.656l-3.172-3.172 3.172-3.172c1.562-1.562 1.562-4.094 0-5.656s-4.094-1.562-5.656 0l-3.172 3.172-3.172-3.172c-1.562-1.562-4.094-1.562-5.656 0s-1.562 4.094 0 5.656l3.172 3.172-3.172 3.172c-1.563 1.562-1.563 4.094 0 5.656z"/><path d="m195.461 157.838c-.402-.092-8.262-1.818-16.906-.789-.594-13.643-15.668-23.93-16.324-24.369-1.352-.906-3.109-.906-4.461 0-.656.439-15.73 10.727-16.324 24.369-8.652-1.027-16.508.697-16.906.789-1.531.342-2.723 1.551-3.043 3.09-.195.953-4.715 23.471 6.461 35.139 6.152 6.422 15.43 7.928 22.773 7.926 1.919 0 3.704-.103 5.27-.248v12.255c0 2.209 1.789 4 4 4s4-1.791 4-4v-12.257c7.551.701 20.276.427 28.043-7.677 11.176-11.668 6.656-34.186 6.461-35.139-.321-1.538-1.513-2.747-3.044-3.089zm-9.191 32.693c-5.737 5.982-16.537 5.777-22.27 5.167v-31.698c0-2.209-1.789-4-4-4s-4 1.791-4 4v16.091l-8.691-8.693c-1.562-1.562-4.094-1.562-5.656 0-1.562 1.561-1.562 4.094 0 5.656l14.254 14.256c.028.028.065.036.094.062v4.324c-5.735.61-16.537.817-22.266-5.166-5.938-6.195-5.719-18.631-4.84-25.33 3.539-.486 10.074-1.004 16.031.637 1.375.377 2.855-.004 3.875-1.012 1.02-1.006 1.422-2.48 1.055-3.865-.289-1.096-.43-2.105-.43-3.086 0-6.734 6.371-13.414 10.574-16.869 4.203 3.455 10.574 10.135 10.574 16.869 0 .98-.141 1.99-.43 3.086-.367 1.385.035 2.859 1.055 3.865 1.016 1.008 2.5 1.393 3.875 1.012 5.922-1.633 12.488-1.119 16.031-.631.879 6.702 1.098 19.13-4.835 25.325z"/></g></svg>