<svg id="cidar" enable-background="new 0 0 300 300" height="512" viewBox="0 0 300 300" width="512" xmlns="http://www.w3.org/2000/svg"><g><path d="m160.355 209.197c2.211 0 4-1.791 4-4 0-5.061 2.055-9.168 6.102-12.205 1.77-1.324 2.129-3.832.801-5.6-1.324-1.766-3.836-2.131-5.598-.799-6.086 4.564-9.305 10.998-9.305 18.604 0 2.209 1.79 4 4 4z"/><circle cx="222" cy="78" r="4"/><path d="m187.172 64.828c.781.781 1.805 1.172 2.828 1.172s2.047-.391 2.828-1.172l3.172-3.172 3.172 3.172c.781.781 1.805 1.172 2.828 1.172s2.047-.391 2.828-1.172c1.562-1.562 1.562-4.094 0-5.656l-3.172-3.172 3.172-3.172c1.562-1.562 1.562-4.094 0-5.656s-4.094-1.562-5.656 0l-3.172 3.172-3.172-3.172c-1.562-1.562-4.094-1.562-5.656 0s-1.562 4.094 0 5.656l3.172 3.172-3.172 3.172c-1.563 1.562-1.563 4.094 0 5.656z"/><path d="m198 118c0 6.617 5.383 12 12 12s12-5.383 12-12-5.383-12-12-12-12 5.383-12 12zm12-4c2.207 0 4 1.795 4 4s-1.793 4-4 4-4-1.795-4-4 1.793-4 4-4z"/><path d="m254 254h-27.743c9.021-6.825 15.934-17.557 18.462-30.447 2.609-13.305.121-26.854-6.82-37.17-5.629-8.361-13.816-13.959-23.051-15.758-5.206-1.018-10.563-.758-15.786.68 2.062-10.361 8.269-12.865 8.653-13.01 2.062-.721 3.172-2.965 2.477-5.043-.695-2.094-2.941-3.232-5.059-2.529-.512.171-11.771 4.142-14.242 20.978-5.588-1.736-11.344-2.165-16.938-1.076-1.648.321-3.247.804-4.82 1.361l2.316-17.957c1.153-8.932-.979-17.864-5.641-25.315 5.293-6.018 8.192-13.618 8.192-21.714 0-18.195-14.805-33-33-33-1.006 0-2.007.045-3 .135v-8.135c0-2.209-1.789-4-4-4v-20c0-2.209-1.789-4-4-4h-28c-2.211 0-4 1.791-4 4v20c-2.211 0-4 1.791-4 4v12c0 1.998 1.489 3.582 3.405 3.88l-3.135 21.954-19.192 14.926c-10.695 8.316-16.262 21.832-14.527 35.27l12.9 99.97h-27.451c-2.211 0-4 1.791-4 4s1.789 4 4 4h208c2.211 0 4-1.791 4-4s-1.789-4-4-4zm-95.06-3.024c1.156 1.085 2.365 2.083 3.607 3.024h-3.997zm16.544-72.499c5.656-1.105 11.594-.268 17.184 2.414 1.09.525 2.363.527 3.461.002 5.594-2.684 11.547-3.512 17.188-2.416 7.137 1.391 13.512 5.785 17.945 12.373 5.766 8.568 7.809 19.928 5.605 31.164-4.059 20.693-21.242 34.818-38.273 31.502-1.016-.199-2.008-.459-2.977-.77-.395-.127-.809-.189-1.219-.189-.414 0-.824.064-1.223.191-.965.311-1.953.568-2.969.768-17.062 3.334-34.215-10.814-38.273-31.502-2.203-11.238-.16-22.598 5.605-31.166 4.435-6.586 10.81-10.981 17.946-12.371zm-73.484-104.477v-4h28v4zm49.548 40.58-13.817-10.746-1.282-8.984c1.448-.544 2.986-.85 4.551-.85 7.168 0 13 5.832 13 13 0 2.734-.875 5.386-2.452 7.58zm14.452-7.58c0 5.596-1.849 10.874-5.217 15.222-.927-.95-1.945-1.819-2.976-2.675 2.688-3.602 4.193-8 4.193-12.548 0-11.58-9.422-21-21-21-1.938 0-3.855.278-5.701.799l-.557-3.905c2.039-.529 4.118-.893 6.258-.893 13.785 0 25 11.215 25 25zm-60-61h20v16h-20zm-37.512 107.006c-1.375-10.643 3.031-21.344 11.504-27.93l20.465-15.918c.816-.637 1.355-1.566 1.504-2.592l3.51-24.566h21.059l3.509 24.566c.148 1.025.688 1.955 1.504 2.592l20.465 15.918c8.473 6.586 12.879 17.287 11.504 27.93l-3.029 23.486c-3.656 2.61-6.913 5.927-9.58 9.889-6.941 10.316-9.43 23.865-6.82 37.172 1.399 7.131 4.169 13.577 7.862 19.099l-1.465 11.348h-68.96z"/><path d="m146 174v-28c0-2.209-1.789-4-4-4h-52c-2.211 0-4 1.791-4 4v28c0 2.209 1.789 4 4 4h52c2.211 0 4-1.791 4-4zm-8-4h-44v-20h44z"/></g></svg>