<svg id="corn" enable-background="new 0 0 300 300" height="512" viewBox="0 0 300 300" width="512" xmlns="http://www.w3.org/2000/svg"><g><circle cx="200.333" cy="76" r="4"/><path d="m165.505 62.828c.781.781 1.805 1.172 2.828 1.172s2.047-.391 2.828-1.172l3.172-3.172 3.172 3.172c.781.781 1.805 1.172 2.828 1.172s2.047-.391 2.828-1.172c1.562-1.562 1.562-4.094 0-5.656l-3.172-3.172 3.172-3.172c1.562-1.562 1.562-4.094 0-5.656s-4.094-1.562-5.656 0l-3.172 3.172-3.172-3.172c-1.562-1.562-4.094-1.562-5.656 0s-1.562 4.094 0 5.656l3.172 3.172-3.172 3.172c-1.563 1.562-1.563 4.094 0 5.656z"/><path d="m116.333 84c6.617 0 12-5.383 12-12s-5.383-12-12-12-12 5.383-12 12 5.383 12 12 12zm0-16c2.205 0 4 1.795 4 4s-1.795 4-4 4-4-1.795-4-4 1.795-4 4-4z"/><path d="m139.235 137.975c1.191.889 2.426 1.809 2.652 2.641.34 1.256-.691 3.271-2.832 5.533-1.516 1.605-1.449 4.137.156 5.654.773.732 1.762 1.096 2.75 1.096 1.059 0 2.117-.42 2.906-1.25 4.285-4.527 5.879-8.947 4.738-13.133-.949-3.496-3.633-5.496-5.59-6.955-.68-.506-1.707-1.271-1.84-1.33 0-2.322 1.957-4.551 4.867-5.547 2.09-.717 3.203-2.99 2.488-5.08-.719-2.092-2.988-3.207-5.082-2.49-6.242 2.139-10.273 7.287-10.273 13.117.002 3.974 2.924 6.154 5.06 7.744z"/><path d="m155.235 113.975c1.191.889 2.426 1.809 2.652 2.641.34 1.256-.691 3.271-2.832 5.533-1.516 1.605-1.449 4.137.156 5.654.773.732 1.762 1.096 2.75 1.096 1.059 0 2.117-.42 2.906-1.25 4.285-4.527 5.879-8.947 4.738-13.133-.949-3.496-3.633-5.496-5.59-6.955-.68-.506-1.707-1.271-1.84-1.33 0-2.322 1.957-4.551 4.867-5.547 2.09-.717 3.203-2.99 2.488-5.08-.719-2.092-2.992-3.209-5.082-2.49-6.242 2.139-10.273 7.287-10.273 13.117.002 3.974 2.924 6.154 5.06 7.744z"/><path d="m268.333 248h-35.028l5.712-20h20.984c8.824 0 16-7.178 16-16 0-2.209-1.789-4-4-4h-23.668v-.127c6.766-.922 12-6.758 12-13.992 0-7.018-5.234-12.836-12.004-13.754-.141-5.938-4.395-11.051-10.012-11.965-1.807-.296-3.618-.166-5.321.327-17.894-12.171-51.758-18.848-57.871-15.87-1.586.777-2.566 2.236-2.621 3.906-.064 1.898 1.004 3.176 1.991 3.976l-90.344 6.12c-13.662.871-31.818 19.068-31.818 26.861 0 3.811 4.083 9.479 9.3 14.518h-33.634c-2.209 0-4 1.791-4 4 0 8.822 7.178 16 16 16h20.982l5.715 20h-38.363c-2.209 0-4 1.791-4 4s1.791 4 4 4h240c2.211 0 4-1.791 4-4s-1.789-4-4-4zm-28-67.572v3.572c0 2.209 1.789 4 4 4h2.121c3.242 0 5.879 2.639 5.879 6.119 0 3.242-2.637 5.881-5.879 5.881h-2.121c-2.211 0-4 1.791-4 4v4h-7.913c-.013-.146-.087-.281-.087-.428v-27.572c0-1.176.516-2.287 1.41-3.049.91-.775 2.074-1.092 3.289-.895 1.852.303 3.301 2.223 3.301 4.372zm-30.883 20.787c4.084-4.905 9.088-7.853 14.883-8.858v15.216c0 .143.039.285.044.428h-20.207c1.513-2.085 3.246-4.346 5.28-6.786zm16.781-27.571c-1.191 1.892-1.898 4.067-1.898 6.356v4.246c-4.457.587-8.61 2.071-12.381 4.36-1.557-2.661-2.094-4.68-2.635-6.776-1.621-6.273-3.59-11.041-18.426-20.668 10.43 1.981 24.925 6.144 35.34 12.482zm-165.91 20.02c.689-3.643 14.281-18.418 24.354-19.061l99.1-6.713c.957-.064 1.897-.044 2.824.01 13.019 8.41 13.911 11.819 14.973 15.929.66 2.556 1.479 5.651 4.044 9.745-.797.796-1.573 1.629-2.314 2.518-3.825 4.592-6.614 8.542-8.879 11.906h-120.18c-7.943-5.337-13.554-12.738-13.922-14.334zm7.524 29.236c-.49-1.717-2.061-2.9-3.846-2.9h-24c-2.955 0-5.541-1.611-6.926-4h233.854c-1.383 2.389-3.969 4-6.926 4h-24c-1.785 0-3.355 1.184-3.848 2.9l-7.171 25.1h-149.966z"/><path d="m84.659 194.6c-2.501 0-4.529 2.028-4.529 4.529 0 2.502 2.028 4.53 4.529 4.53 2.502 0 4.53-2.028 4.53-4.53-.001-2.501-2.028-4.529-4.53-4.529z"/><path d="m92.659 178.6c-2.501 0-4.529 2.028-4.529 4.529 0 2.502 2.028 4.53 4.529 4.53 2.502 0 4.53-2.028 4.53-4.53-.001-2.501-2.028-4.529-4.53-4.529z"/><path d="m112.659 194.6c-2.501 0-4.529 2.028-4.529 4.529 0 2.502 2.028 4.53 4.529 4.53 2.502 0 4.53-2.028 4.53-4.53-.001-2.501-2.028-4.529-4.53-4.529z"/><path d="m100.659 190.6c-2.501 0-4.529 2.028-4.529 4.529 0 2.502 2.028 4.53 4.529 4.53 2.502 0 4.53-2.028 4.53-4.53-.001-2.501-2.028-4.529-4.53-4.529z"/><path d="m113.188 183.13c0-2.501-2.028-4.529-4.53-4.529-2.501 0-4.529 2.028-4.529 4.529 0 2.502 2.028 4.53 4.529 4.53 2.503-.001 4.53-2.029 4.53-4.53z"/><path d="m120.659 182.6c-2.501 0-4.529 2.028-4.529 4.529 0 2.502 2.028 4.53 4.529 4.53 2.502 0 4.53-2.028 4.53-4.53-.001-2.501-2.028-4.529-4.53-4.529z"/><path d="m137.188 179.13c0-2.501-2.028-4.529-4.53-4.529-2.501 0-4.529 2.028-4.529 4.529 0 2.502 2.028 4.53 4.529 4.53 2.503-.001 4.53-2.029 4.53-4.53z"/><path d="m148.659 174.6c-2.501 0-4.529 2.028-4.529 4.529 0 2.502 2.028 4.53 4.529 4.53 2.502 0 4.53-2.028 4.53-4.53-.001-2.501-2.028-4.529-4.53-4.529z"/><path d="m136.659 186.6c-2.501 0-4.529 2.028-4.529 4.529 0 2.502 2.028 4.53 4.529 4.53 2.502 0 4.53-2.028 4.53-4.53-.001-2.501-2.028-4.529-4.53-4.529z"/><path d="m72.659 186.6c-2.501 0-4.529 2.028-4.529 4.529 0 2.502 2.028 4.53 4.529 4.53 2.502 0 4.53-2.028 4.53-4.53-.001-2.501-2.028-4.529-4.53-4.529z"/></g></svg>