<svg id="drink-candle" enable-background="new 0 0 300 300" height="512" viewBox="0 0 300 300" width="512" xmlns="http://www.w3.org/2000/svg"><g><path d="m153.688 88.484c.781.781 1.805 1.172 2.828 1.172s2.047-.391 2.828-1.172l2.828-2.828 2.828 2.828c.781.781 1.805 1.172 2.828 1.172s2.047-.391 2.828-1.172c1.562-1.562 1.562-4.094 0-5.656l-2.828-2.828 2.828-2.828c1.562-1.562 1.562-4.094 0-5.656s-4.094-1.562-5.656 0l-2.828 2.828-2.828-2.828c-1.562-1.562-4.094-1.562-5.656 0s-1.562 4.094 0 5.656l2.828 2.828-2.828 2.828c-1.563 1.563-1.563 4.094 0 5.656z"/><path d="m188.172 114.529c2.501 0 4.53-2.028 4.53-4.529 0-2.502-2.028-4.53-4.53-4.53s-4.53 2.028-4.53 4.53c0 2.501 2.028 4.529 4.53 4.529z"/><path d="m236.762 117.18c6.803 0 12.338-5.535 12.338-12.34 0-6.803-5.535-12.338-12.338-12.338-6.805 0-12.34 5.535-12.34 12.338 0 6.805 5.535 12.34 12.34 12.34zm0-16.678c2.393 0 4.338 1.945 4.338 4.338s-1.945 4.34-4.338 4.34-4.34-1.947-4.34-4.34 1.947-4.338 4.34-4.338z"/><circle cx="156" cy="176" r="4"/><circle cx="144" cy="192" r="4"/><path d="m268 264h-32v-56c0-2.209-1.791-4-4-4h-3.44c2.772-3.569 4.458-8.062 4.458-13.143 0-19.064-21.441-33.576-22.354-34.186-1.51-1.006-3.564-1.006-4.926.191-1.359 1.201-1.801 3.029-.99 4.652.016.051 1.484 5.328-9.416 16.229-5.779 5.779-7.697 14.926-4.666 22.246.611 1.474 1.44 2.787 2.378 4.01h-1.044c-2.209 0-4 1.791-4 4v56h-40v-44.278c15.76-1.979 28-15.435 28-31.722v-52c0-2.209-1.791-4-4-4h-38.7c-3.319-8.119-9.44-14.732-17.3-18.596v-45.403c2.209 0 4-1.791 4-4v-20c0-2.209-1.791-4-4-4v-8c0-2.209-1.791-4-4-4h-24c-2.209 0-4 1.791-4 4v8c-2.209 0-4 1.791-4 4v20c0 2.209 1.791 4 4 4v45.402c-12.236 5.998-20 18.332-20 32.139v114.484c0 1.4.287 2.725.73 3.975h-32.73c-2.209 0-4 1.791-4 4s1.791 4 4 4h236c2.209 0 4-1.791 4-4s-1.791-4-4-4zm-59.055-66.984c2.148-2.125 3.629-4.051 4.629-5.762 2.09 2.264 3.986 5.145 3.986 8.002 0 2.229-1.414 4.477-4.57 4.477-1.545 0-4.26-.297-5.076-2.281-.568-1.386-.125-3.292 1.031-4.436zm-7.957-13.616c6.365-6.365 9.457-11.58 10.846-15.598 5.539 4.969 13.184 13.547 13.184 23.055 0 1.119-.153 2.175-.381 3.193-2.638-7.556-10.142-12.719-11.16-13.39-1.51-.998-3.506-.85-4.863.354-1.189 1.062-1.621 2.711-1.152 4.193-.039.434-.426 2.445-4.141 6.119-2.242 2.217-3.494 5.189-3.635 8.201-.663-.778-1.228-1.631-1.628-2.598-1.798-4.341-.566-10.031 2.93-13.529zm-4.988 28.6h32v52h-32zm-60 6.947c1.305.338 2.636.604 4 .775v44.278h-4.73c.444-1.25.73-2.574.73-3.975zm8-6.947c-13.234 0-24-10.766-24-24v-4-24h48v28c0 13.234-10.766 24-24 24zm24-60h-48v-12h48zm-80-104h24v12h-24zm4-12h16v4h-16zm16 32v20h-16v-20zm-32.025 196c-2.191 0-3.975-1.783-3.975-3.975v-114.484c0-11.441 6.863-21.578 17.486-25.826 1.518-.61 2.514-2.08 2.514-3.715v-20h16v20c0 1.635.996 3.105 2.514 3.715 5.982 2.392 10.851 6.757 13.933 12.285h-8.447c-2.209 0-4 1.791-4 4v44h-28c-2.209 0-4 1.791-4 4v56c0 2.209 1.791 4 4 4h32c2.209 0 4-1.791 4-4v-30.905c2.289 2.601 4.986 4.825 8 6.575v44.355c0 2.191-1.783 3.975-3.975 3.975zm36.025-76v48h-24v-48z"/></g></svg>