<svg id="honey" enable-background="new 0 0 300 300" height="512" viewBox="0 0 300 300" width="512" xmlns="http://www.w3.org/2000/svg"><g><path d="m223.337 53.312c.781.781 1.805 1.172 2.828 1.172s2.047-.391 2.828-1.172l2.828-2.828 2.828 2.828c.781.781 1.805 1.172 2.828 1.172s2.047-.391 2.828-1.172c1.562-1.562 1.562-4.094 0-5.656l-2.828-2.828 2.829-2.828c1.562-1.562 1.562-4.094 0-5.656s-4.094-1.562-5.656 0l-2.828 2.828-2.828-2.828c-1.562-1.562-4.094-1.562-5.656 0s-1.562 4.094 0 5.656l2.828 2.828-2.828 2.828c-1.563 1.563-1.563 4.094-.001 5.656z"/><path d="m257.821 70.299c-2.502 0-4.53 2.028-4.53 4.53 0 2.501 2.028 4.529 4.53 4.529 2.501 0 4.529-2.028 4.529-4.529 0-2.503-2.027-4.53-4.529-4.53z"/><path d="m54.411 70.008c6.803 0 12.338-5.535 12.338-12.34 0-6.803-5.535-12.338-12.338-12.338-6.805 0-12.34 5.535-12.34 12.338 0 6.805 5.536 12.34 12.34 12.34zm0-16.678c2.393 0 4.338 1.945 4.338 4.338s-1.945 4.34-4.338 4.34-4.34-1.947-4.34-4.34 1.948-4.338 4.34-4.338z"/><path d="m249.65 256.828h-41.671c6.898-5.141 12.18-12.464 14.68-21.107 4.639-16.033 6.99-33.154 6.99-50.893 0-24.448-4.507-47.735-13.016-67.894 4.922-.487 9.478-3.368 12.393-7.962.406-.641.623-1.383.623-2.143 0-5.469-2.504-10.316-6.366-13.62 1.455-1.737 2.366-3.944 2.366-6.382 0-5.514-4.486-10-10-10h-2.202c.132-.646.202-1.315.202-2 0-12.131-9.869-22-22-22h-84c-12.131 0-22 9.869-22 22 0 .685.071 1.354.202 2h-6.201c-5.514 0-10 4.486-10 10 0 3.456 1.764 6.507 4.438 8.303-2.727 3.161-4.438 7.228-4.438 11.732 0 .762.219 1.51.627 2.152 2.92 4.574 7.475 7.441 12.389 7.921-8.509 20.159-13.016 43.445-13.016 67.892 0 17.738 2.352 34.859 6.99 50.893 2.5 8.644 7.782 15.966 14.68 21.107h-49.67c-2.209 0-4 1.791-4 4s1.791 4 4 4h208c2.209 0 4-1.791 4-4s-1.791-3.999-4-3.999zm-156-182c0-7.719 6.281-14 14-14h84c7.719 0 14 6.281 14 14 0 1.104-.896 2-2 2h-108c-1.104 0-2-.896-2-2zm-14 10h136c1.104 0 2 .896 2 2s-.896 2-2 2h-136c-1.104 0-2-.896-2-2s.896-2 2-2zm-1.936 20.856c.57-4.977 4.811-8.855 9.938-8.855h123.996c5.119 0 9.354 3.867 9.934 8.832-3.539 4.471-9.861 4.27-13.23-.533-2.98-4.258-9.602-4.256-12.582-.002-3.484 4.969-10.145 4.967-13.629.002-1.49-2.127-3.781-3.348-6.287-3.348-.002 0-.002-.002-.004-.002-2.506 0-4.799 1.221-6.291 3.35-3.48 4.969-10.145 4.965-13.629 0-2.98-4.256-9.6-4.258-12.58-.002-3.484 4.969-10.148 4.973-13.629 0-1.492-2.127-3.785-3.348-6.291-3.348-.002 0-.002.002-.004.002-2.506 0-4.797 1.221-6.287 3.346-3.484 4.969-10.145 4.967-13.629.002-2.98-4.258-9.602-4.256-12.582-.002-3.366 4.792-9.675 5.005-13.214.558zm37.535 151.144c-14.234 0-26.951-9.594-30.926-23.33-4.428-15.311-6.674-31.686-6.674-48.67 0-25.667 5.146-49.942 14.851-70.31 1.765-1.134 3.37-2.613 4.717-4.438 3.256 4.426 8.01 6.955 13.105 6.955 5.086 0 9.83-2.52 13.105-6.955 3.254 4.426 8.008 6.955 13.105 6.955 5.086 0 9.828-2.518 13.105-6.953 3.256 4.426 8.008 6.953 13.104 6.953 5.09 0 9.834-2.52 13.105-6.955 3.256 4.426 8.01 6.955 13.105 6.955 5.086 0 9.83-2.518 13.105-6.955 1.35 1.835 2.967 3.322 4.749 4.459 9.698 20.364 14.841 44.631 14.841 70.289 0 16.984-2.246 33.359-6.674 48.67-3.975 13.736-16.691 23.33-30.926 23.33z"/><path d="m105.821 230.299c-2.502 0-4.53 2.028-4.53 4.53 0 2.501 2.028 4.529 4.53 4.529 2.501 0 4.529-2.028 4.529-4.529 0-2.503-2.027-4.53-4.529-4.53z"/><path d="m201.821 167.357c2.501 0 4.529-2.028 4.529-4.529 0-2.502-2.028-4.53-4.529-4.53-2.502 0-4.53 2.028-4.53 4.53.001 2.502 2.028 4.529 4.53 4.529z"/><path d="m125.821 242.299c-2.502 0-4.53 2.028-4.53 4.53 0 2.501 2.028 4.529 4.53 4.529 2.501 0 4.529-2.028 4.529-4.529 0-2.503-2.027-4.53-4.529-4.53z"/><path d="m105.821 163.357c2.501 0 4.529-2.028 4.529-4.529 0-2.502-2.028-4.53-4.529-4.53-2.502 0-4.53 2.028-4.53 4.53.001 2.502 2.028 4.529 4.53 4.529z"/><path d="m201.65 206.578v-19.625c0-1.322-.654-2.559-1.746-3.305l-22.254-15.184v-17.512c0-1.338-.668-2.586-1.781-3.328l-24-16c-1.344-.895-3.094-.895-4.438 0l-24 16c-1.113.742-1.781 1.99-1.781 3.328v17.859l-22.219 14.812c-1.113.742-1.781 1.99-1.781 3.328v19.625c0 1.322.654 2.559 1.746 3.305l24 16.375c1.359.926 3.148.926 4.508 0l21.746-14.838 21.746 14.838c.68.463 1.467.695 2.254.695s1.574-.232 2.254-.695l24-16.375c1.091-.744 1.746-1.981 1.746-3.303zm-52-66.818 20 13.334v15.207l-20.028 11.891-19.972-11.547v-15.552zm-24 78.351-20-13.646v-15.371l20.15-13.433 19.85 11.476v17.328zm68-13.646-20 13.646-20-13.646v-17.359l19.851-11.786 20.149 13.747z"/></g></svg>