<svg id="jam" enable-background="new 0 0 300 300" height="512" viewBox="0 0 300 300" width="512" xmlns="http://www.w3.org/2000/svg"><g><path d="m199.688 64.233c.781.781 1.805 1.172 2.828 1.172s2.047-.391 2.828-1.172l2.828-2.828 2.828 2.828c.781.781 1.805 1.172 2.828 1.172s2.047-.391 2.828-1.172c1.562-1.562 1.562-4.094 0-5.656l-2.828-2.828 2.828-2.828c1.562-1.562 1.562-4.094 0-5.656s-4.094-1.562-5.656 0l-2.828 2.828-2.828-2.828c-1.562-1.562-4.094-1.562-5.656 0s-1.562 4.094 0 5.656l2.828 2.828-2.828 2.828c-1.563 1.563-1.563 4.094 0 5.656z"/><path d="m234.172 90.278c2.501 0 4.529-2.028 4.529-4.529 0-2.502-2.028-4.53-4.529-4.53-2.502 0-4.53 2.028-4.53 4.53 0 2.501 2.028 4.529 4.53 4.529z"/><path d="m142.172 50.278c2.501 0 4.529-2.028 4.529-4.529 0-2.502-2.028-4.53-4.529-4.53-2.502 0-4.53 2.028-4.53 4.53 0 2.501 2.028 4.529 4.53 4.529z"/><path d="m50.762 64.929c6.803 0 12.338-5.535 12.338-12.34 0-6.803-5.535-12.338-12.338-12.338-6.805 0-12.34 5.535-12.34 12.338 0 6.805 5.535 12.34 12.34 12.34zm0-16.678c2.393 0 4.338 1.945 4.338 4.338s-1.945 4.34-4.338 4.34-4.34-1.947-4.34-4.34 1.947-4.338 4.34-4.338z"/><path d="m262 251.749h-13.39c4.642-5.369 7.562-12.969 7.562-21.41 0-16.215-10.715-29.408-23.887-29.408-1.689 0-3.377.217-5.016.646-.201.052-.405.038-.607.079-2.674-4.379-4.347-9.203-5.338-14.043.228.041.436.136.676.136h8c13.234 0 24-10.766 24-24 0-2.209-1.791-4-4-4h-8c-9.814 0-18.26 5.927-21.975 14.385.017-9.751 1.819-17.271 1.856-17.418.357-1.441-.111-2.965-1.221-3.951-1.111-.99-2.678-1.287-4.064-.762-8.425 3.159-14.805 7.942-19.66 13.368-2.376-7.572-5.54-14.767-9.515-21.421.032 0 .063.006.095.006 5.477 0 10.658-3.014 13.861-8.062.406-.641.623-1.383.623-2.143 0-5.469-2.504-10.316-6.366-13.62 1.455-1.737 2.366-3.944 2.366-6.382 0-5.514-4.486-10-10-10h-2.202c.132-.646.202-1.315.202-2 0-12.131-9.869-22-22-22h-84c-12.131 0-22 9.869-22 22 0 .685.071 1.354.202 2h-6.202c-5.514 0-10 4.486-10 10 0 3.456 1.764 6.507 4.438 8.303-2.728 3.161-4.438 7.229-4.438 11.732 0 .762.219 1.51.627 2.152 3.205 5.021 8.377 8.02 13.836 8.02.033 0 .065-.006.098-.006-9.442 15.802-14.561 34.587-14.561 54.41 0 13.602 2.389 26.73 7.098 39.023 2.188 5.711 6.274 10.612 11.618 14.365h-22.716c-2.209 0-4 1.791-4 4s1.791 4 4 4h224c2.209 0 4-1.791 4-4s-1.791-3.999-4-3.999zm-20-84h3.494c-1.781 6.893-8.053 12-15.494 12h-3.494c1.781-6.893 8.053-12 15.494-12zm-9.715 41.182c8.76 0 15.887 9.604 15.887 21.408s-7.127 21.408-15.885 21.41h-22.611c4.642-5.369 7.562-12.969 7.562-21.41 0-7.649-2.404-14.603-6.306-19.84 2.811-1.523 5.911-1.962 8.88-1.182 3.1.809 6.377.811 9.48-.002.979-.255 1.987-.384 2.993-.384zm-38.285-10.571c0 .877-.058 1.735-.08 2.606-.191-.006-.376-.035-.568-.035-1.114 0-2.222.13-3.324.318.442-3.436 1.397-8.417 3.341-13.839.374 3.607.631 7.25.631 10.95zm18.719-35.673c-1.166 9.141-1.733 24.637 4.506 38.276-4.24-.077-8.464 1.212-12.167 3.77-1.021-.71-2.091-1.317-3.197-1.839.06-1.507.139-3.008.139-4.533 0-7.935-.91-15.677-2.495-23.167 3.234-4.719 7.518-9.136 13.214-12.507zm-146.719-60.938c0-7.719 6.281-14 14-14h84c7.719 0 14 6.281 14 14 0 1.104-.896 2-2 2h-108c-1.104 0-2-.896-2-2zm-14 10h136c1.104 0 2 .896 2 2s-.896 2-2 2h-136c-1.104 0-2-.896-2-2s.896-2 2-2zm-1.936 20.855c.57-4.977 4.811-8.855 9.938-8.855h123.996c5.119 0 9.354 3.867 9.934 8.832-3.541 4.471-9.863 4.27-13.23-.533-2.98-4.258-9.602-4.256-12.582-.002-3.484 4.969-10.145 4.967-13.629.002-1.49-2.127-3.781-3.348-6.287-3.348-.002 0-.002-.002-.004-.002-2.506 0-4.799 1.221-6.291 3.35-3.48 4.969-10.145 4.965-13.629 0-2.979-4.256-9.598-4.258-12.58-.002-3.484 4.969-10.148 4.973-13.629 0-1.492-2.127-3.785-3.348-6.291-3.348-.002 0-.002.002-.004.002-2.506 0-4.797 1.221-6.287 3.346-3.484 4.969-10.145 4.967-13.629.002-2.98-4.258-9.602-4.256-12.582-.002-3.368 4.793-9.676 5.006-13.214.558zm6.502 101.917c-4.357-11.375-6.566-23.542-6.566-36.161 0-22.799 7.285-44.036 20.448-60.288 3.204 3.748 7.565 5.884 12.226 5.884 5.086 0 9.83-2.52 13.105-6.955 3.254 4.426 8.008 6.955 13.105 6.955 5.086 0 9.828-2.518 13.105-6.953 3.256 4.426 8.008 6.953 13.104 6.953 5.09 0 9.834-2.52 13.105-6.955 3.256 4.426 8.01 6.955 13.105 6.955 4.661 0 9.022-2.135 12.241-5.905 8.223 10.154 14.158 22.243 17.433 35.471-6.337 10.587-8.402 21.793-9.053 27.865-1.332-.278-2.682-.457-4.041-.457-2.766 0-5.412.612-7.885 1.681v-34.863c0-2.209-1.791-4-4-4h-83.998c-2.209 0-4 1.791-4 4v52c0 2.209 1.791 4 4 4h72.626c-.397 2.122-.626 4.322-.626 6.59 0 8.441 2.92 16.042 7.562 21.41h-73.962c-14.385.001-27.147-7.083-31.034-17.227zm105.434-26.082c-1.908 2.1-3.542 4.561-4.824 7.31h-71.176v-44h76zm15.885 43.31c-8.758-.002-15.885-9.605-15.885-21.41s7.125-21.408 15.885-21.408c1.006 0 2.014.129 2.994.387 3.1.809 6.379.809 9.479 0 .982-.256 1.988-.387 2.994-.387 8.76 0 15.887 9.604 15.887 21.408s-7.127 21.408-15.885 21.41z"/><path d="m98 187.749h32c2.209 0 4-1.791 4-4s-1.791-4-4-4h-32c-2.209 0-4 1.791-4 4s1.791 4 4 4z"/><path d="m98 203.749h12c2.209 0 4-1.791 4-4s-1.791-4-4-4h-12c-2.209 0-4 1.791-4 4s1.791 4 4 4z"/><path d="m118 199.749c0 2.209 1.791 4 4 4h28c2.209 0 4-1.791 4-4s-1.791-4-4-4h-28c-2.209 0-4 1.791-4 4z"/></g></svg>