<svg id="man" enable-background="new 0 0 300 300" height="512" viewBox="0 0 300 300" width="512" xmlns="http://www.w3.org/2000/svg"><g><path d="m58.735 219.47c-2.502 0-4.53 2.028-4.53 4.53 0 2.501 2.028 4.53 4.53 4.53 2.501 0 4.53-2.028 4.53-4.53s-2.028-4.53-4.53-4.53z"/><path d="m242.735 131.47c-2.502 0-4.53 2.028-4.53 4.53 0 2.501 2.028 4.53 4.53 4.53 2.501 0 4.53-2.028 4.53-4.53s-2.028-4.53-4.53-4.53z"/><path d="m238.391 87.656c1.023 0 2.047-.391 2.828-1.172 1.562-1.562 1.562-4.094 0-5.656l-2.828-2.828 2.828-2.828c1.562-1.562 1.562-4.094 0-5.656s-4.094-1.562-5.656 0l-2.828 2.828-2.828-2.828c-1.562-1.562-4.094-1.562-5.656 0s-1.562 4.094 0 5.656l2.828 2.828-2.828 2.828c-1.562 1.562-1.562 4.094 0 5.656.781.781 1.805 1.172 2.828 1.172s2.047-.391 2.828-1.172l2.828-2.828 2.828 2.828c.782.782 1.805 1.172 2.828 1.172z"/><path d="m66.735 174c-7.719 0-14 6.281-14 14s6.281 14 14 14 14-6.281 14-14-6.281-14-14-14zm0 20c-3.309 0-6-2.691-6-6s2.691-6 6-6 6 2.691 6 6-2.691 6-6 6z"/><path d="m194.817 202.117c-.789-.062-12.809-.094-22.082-.111v-5.246c16.145-11.248 24-24.985 24-41.996v-4.02c4.876-3.334 8-8.904 8-14.98v-1.561c0-5.293-3.299-9.758-8-11.455v-8.748h16c1.617 0 3.076-.975 3.695-2.469.619-1.496.277-3.215-.867-4.359l-18.828-18.828v-10.344c0-1.541-.899-2.837-2.176-3.505l-5.865-41.061c-.281-1.971-1.969-3.434-3.959-3.434h-64c-1.99 0-3.678 1.463-3.959 3.434l-5.866 41.061c-1.276.668-2.175 1.965-2.175 3.505v10.344l-18.828 18.828c-1.145 1.145-1.486 2.863-.867 4.359.619 1.494 2.078 2.469 3.695 2.469h16v8.748c-4.701 1.697-8 6.162-8 11.455v1.561c0 6.075 3.124 11.646 8 14.98v4.256c0 17.107 7.549 30.4 23.76 41.832l.24.169v5.004c-9.273.018-21.293.049-22.082.111-16.777 1.326-29.918 16.016-29.918 33.441v30.443c0 2.209 1.791 4 4 4s4-1.791 4-4v-12h20v12c0 2.209 1.791 4 4 4s4-1.791 4-4v-16c0-2.209-1.791-4-4-4h-24v-10.441c0-13.281 9.904-24.467 22.461-25.461.718-.03 6.968-.055 13.904-.074 1.923 11.321 11.775 19.976 23.635 19.976h8c11.861 0 21.712-8.656 23.635-19.977 6.927.018 13.155.043 13.818.07 12.643.998 22.547 12.184 22.547 25.465v10.442h-24c-2.209 0-4 1.791-4 4v16c0 2.209 1.791 4 4 4s4-1.791 4-4v-12h20v12c0 2.209 1.791 4 4 4s4-1.791 4-4v-30.441c0-17.426-13.14-32.116-29.918-33.442zm-26.082-120.117h20v4h-20zm-44.531-44h57.062l5.143 36h-17.674c0-2.209-1.791-4-4-4h-24c-2.209 0-4 1.791-4 4h-17.674zm36.531 40v12h-16v-12zm-44 4h20v4h-20zm-2.344 12h22.344c0 2.209 1.791 4 4 4h24c2.209 0 4-1.791 4-4h22.344l12 12h-100.688zm-5.656 40.203c0-2.289 1.801-4.127 4.1-4.186 2.17-.055 3.9-1.828 3.9-3.998v-12.019h72v12.02c0 2.17 1.73 3.943 3.9 3.998 2.299.059 4.1 1.896 4.1 4.186v1.561c0 4.555-2.973 8.48-7.396 9.77-1.5.436-2.607 1.707-2.838 3.252l-.204 1.374-19.009 15.839h-29.105l-19.01-15.842-.202-1.369c-.229-1.547-1.338-2.818-2.838-3.256-4.424-1.289-7.396-5.215-7.396-9.77v-1.56zm8.141 24.453 17.299 14.416c.719.6 1.625.928 2.561.928h32c.936 0 1.842-.328 2.561-.928l17.271-14.393c-1.107 12.58-7.695 22.691-20.48 31.574-.002 0-.002 0-.002 0l-15.635 10.863-15.346-10.824c-12.876-9.079-19.231-18.952-20.229-31.636zm39.859 63.344h-8c-7.431 0-13.639-5.116-15.43-11.995 1.19-.002 2.349-.004 3.436-.005 2.207-.004 3.994-1.793 3.994-4v-3.356l9.393 6.625c.689.486 1.498.73 2.305.73.799 0 1.596-.238 2.283-.715l10.02-6.961v3.677c0 2.207 1.787 3.996 3.994 4 1.087.001 2.246.003 3.436.005-1.792 6.879-8 11.995-15.431 11.995z"/><circle cx="172.735" cy="134" r="4"/><circle cx="132.735" cy="134" r="4"/><path d="m144.735 162h16c1.061 0 2.078-.422 2.828-1.172l4-4c1.562-1.562 1.562-4.094 0-5.656s-4.094-1.562-5.656 0l-2.828 2.828h-14.344c-2.209 0-4 1.791-4 4s1.791 4 4 4z"/><path d="m124.735 126h8c2.209 0 4-1.791 4-4s-1.791-4-4-4h-8c-2.209 0-4 1.791-4 4s1.791 4 4 4z"/><path d="m172.735 126h8c2.209 0 4-1.791 4-4s-1.791-4-4-4h-8c-2.209 0-4 1.791-4 4s1.791 4 4 4z"/></g></svg>