<svg id="pizza" enable-background="new 0 0 300 300" height="512" viewBox="0 0 300 300" width="512" xmlns="http://www.w3.org/2000/svg"><g><circle cx="128" cy="61.999" r="4"/><path d="m81.172 56.827c.781.781 1.805 1.172 2.828 1.172s2.047-.391 2.828-1.172l3.172-3.172 3.172 3.172c.781.781 1.805 1.172 2.828 1.172s2.047-.391 2.828-1.172c1.562-1.562 1.562-4.094 0-5.656l-3.172-3.172 3.172-3.172c1.562-1.562 1.562-4.094 0-5.656s-4.094-1.562-5.656 0l-3.172 3.172-3.172-3.172c-1.562-1.562-4.094-1.562-5.656 0s-1.562 4.094 0 5.656l3.172 3.172-3.172 3.172c-1.563 1.562-1.563 4.094 0 5.656z"/><path d="m258.527 162.224c-1.551-5.381-1.551-11.068 0-16.451 3.906-13.57-.062-28.107-10.352-37.938-4.09-3.908-6.996-8.844-8.402-14.273-3.531-13.646-14.348-24.27-28.23-27.725-5.555-1.383-10.602-4.242-14.598-8.27-9.988-10.061-24.742-13.941-38.5-10.131-1.969.545-4.148.877-6.668 1.018-2.117.117-3.777 1.871-3.777 3.994v91.32l-66.434-71.968c-1.328-1.441-3.5-1.697-5.129-.633-8.09 5.303-13.848 13.254-16.211 22.395-1.406 5.43-4.312 10.365-8.402 14.273-10.289 9.83-14.258 24.367-10.352 37.939 1.551 5.381 1.551 11.068 0 16.451-3.906 13.57.062 28.107 10.352 37.938 4.09 3.908 6.996 8.844 8.402 14.273 3.531 13.646 14.348 24.27 28.23 27.725 5.555 1.383 10.602 4.242 14.598 8.27 7.449 7.504 17.551 11.57 27.914 11.57 3.531 0 7.09-.471 10.586-1.439 5.531-1.531 11.367-1.531 16.891 0 13.758 3.809 28.512-.07 38.5-10.131 3.996-4.027 9.043-6.887 14.598-8.27 13.883-3.455 24.699-14.078 28.23-27.725 1.406-5.43 4.312-10.365 8.402-14.273 10.289-9.83 14.258-24.367 10.352-37.938zm-109.465-5.512c1.113 1.213 2.863 1.611 4.395 1.012 1.535-.6 2.543-2.078 2.543-3.725v-79.387c2.737.484 5.368 1.263 7.84 2.391 4.32 1.973 8.922 3.178 13.676 3.58 9.664.816 18.391 5.729 23.934 13.479 2.734 3.832 6.113 7.133 10.039 9.812 7.922 5.406 12.941 13.889 13.773 23.27.41 4.67 1.648 9.193 3.684 13.441 4.082 8.525 4.082 18.303 0 26.826-2.035 4.25-3.273 8.773-3.684 13.441-.832 9.383-5.852 17.865-13.773 23.271-3.926 2.68-7.305 5.98-10.039 9.809-4.215 5.892-10.436 10.198-17.449 12.245v-4.179c0-2.209-1.789-4-4-4s-4 1.791-4 4v14c0 1.104-.898 2-2 2s-2-.896-2-2v-14c0-2.209-1.789-4-4-4s-4 1.791-4 4v8.927c-.054.024-.11.044-.164.069-2.523 1.154-5.159 1.938-7.836 2.429v-63.425c0-2.209-1.789-4-4-4s-4 1.791-4 4v63.904c-4.047-.244-8.064-1.183-11.84-2.908-4.32-1.973-8.922-3.178-13.676-3.58-9.664-.816-18.391-5.729-23.934-13.479-2.734-3.832-6.113-7.133-10.039-9.812-7.922-5.406-12.941-13.889-13.773-23.27-.41-4.67-1.648-9.193-3.684-13.441-4.082-8.525-4.082-18.303 0-26.826 2.035-4.25 3.273-8.773 3.684-13.441.832-9.383 5.852-17.865 13.777-23.273 2.374-1.622 4.548-3.536 6.54-5.666zm101.778 7.726c3.078 10.701-.059 22.174-8.188 29.939-5.172 4.938-8.844 11.18-10.621 18.055-2.797 10.803-11.387 19.221-22.418 21.967-6.977 1.734-13.32 5.33-18.348 10.395-7.949 8.008-19.711 11.094-30.688 8.057-6.922-1.914-14.234-1.914-21.156 0-10.98 3.049-22.734-.045-30.688-8.057-5.027-5.064-11.371-8.66-18.348-10.395-11.031-2.746-19.621-11.164-22.418-21.967-1.777-6.875-5.449-13.117-10.621-18.055-8.129-7.768-11.266-19.24-8.188-29.939 1.969-6.83 1.969-14.049 0-20.877-3.078-10.701.059-22.174 8.188-29.941 5.172-4.938 8.844-11.18 10.621-18.055 1.594-6.148 5.145-11.627 10.141-15.717l11.451 12.405c-1.698 1.879-3.512 3.613-5.557 5.011-9.91 6.762-16.191 17.396-17.234 29.18-.328 3.709-1.312 7.305-2.934 10.688-5.129 10.719-5.129 23.016 0 33.736 1.621 3.381 2.605 6.977 2.934 10.688 1.043 11.781 7.324 22.416 17.234 29.178 3.145 2.146 5.848 4.789 8.039 7.854 6.91 9.664 17.762 15.787 29.77 16.801 3.836.324 7.543 1.295 11.023 2.885 5.457 2.492 11.309 3.736 17.164 3.736.541 0 1.08-.065 1.621-.086.131.013.245.077.379.077.231 0 .431-.094.652-.132 4.061-.262 8.079-1.124 11.946-2.588 1.365 3.898 5.042 6.719 9.402 6.719 5.516 0 10-4.486 10-10v-1.566c9.629-2.234 18.258-7.876 23.957-15.848 2.191-3.062 4.895-5.705 8.039-7.852 9.91-6.762 16.191-17.396 17.234-29.18.328-3.709 1.312-7.305 2.934-10.688 5.129-10.719 5.129-23.016 0-33.736-1.621-3.381-2.605-6.977-2.934-10.688-1.043-11.781-7.324-22.416-17.234-29.178-3.145-2.146-5.848-4.789-8.039-7.854-6.91-9.664-17.762-15.787-29.77-16.801-3.836-.324-7.543-1.295-11.027-2.885-3.51-1.604-7.252-2.686-11.16-3.241v-10.4c1.613-.225 3.133-.535 4.578-.936 10.988-3.043 22.738.045 30.688 8.057 5.027 5.064 11.371 8.66 18.348 10.395 11.031 2.746 19.621 11.164 22.418 21.967 1.777 6.875 5.449 13.117 10.621 18.055 8.129 7.768 11.266 19.24 8.188 29.939-1.968 6.83-1.968 14.048.001 20.878z"/><path d="m169.48 149.966c.617 0 1.242-.143 1.828-.443l46.523-23.967c1.965-1.012 2.734-3.424 1.723-5.389-1.008-1.967-3.43-2.734-5.387-1.725l-46.523 23.967c-1.965 1.012-2.734 3.424-1.723 5.389.708 1.377 2.11 2.168 3.559 2.168z"/><path d="m80.445 191.831c.707 1.377 2.109 2.168 3.559 2.168.617 0 1.242-.143 1.828-.443l52.48-27.035c1.965-1.012 2.734-3.424 1.723-5.389s-3.426-2.738-5.387-1.725l-52.48 27.035c-1.965 1.012-2.734 3.424-1.723 5.389z"/><path d="m196 153.999c-8.824 0-16 7.178-16 16 0 1.952.356 3.869 1.035 5.663-5.327 2.6-9.035 8.022-9.035 14.337 0 8.822 7.176 16 16 16s16-7.178 16-16c0-1.974-.406-3.844-1.063-5.591 5.409-2.583 9.063-8.056 9.063-14.409 0-8.822-7.176-16-16-16zm-8 44c-4.41 0-8-3.588-8-8s3.59-8 8-8 8 3.588 8 8-3.59 8-8 8zm10.119-20.291c-2.486-2.05-5.573-3.348-8.978-3.594-.742-1.235-1.141-2.656-1.141-4.115 0-4.412 3.59-8 8-8s8 3.588 8 8c0 3.683-2.45 6.781-5.881 7.709z"/><path d="m80 137.999c0 8.822 7.176 16 16 16 .309 0 .611-.058.918-.075 2.131 4.733 7.961 8.075 15.082 8.075 8.973 0 16-5.271 16-12s-7.027-12-16-12c0-8.822-7.176-16-16-16s-16 7.178-16 16zm40 12c0 1.631-3.117 4-8 4s-8-2.369-8-4 3.117-4 8-4 8 2.369 8 4zm-16-12c0 .577-.074 1.142-.194 1.696-3.132 1.383-5.531 3.524-6.789 6.136-.342.044-.669.168-1.017.168-4.41 0-8-3.588-8-8s3.59-8 8-8 8 3.588 8 8z"/><path d="m132 193.999c-2.211 0-4 1.791-4 4v12c0 2.205-1.793 4-4 4s-4-1.795-4-4v-20c0-2.209-1.789-4-4-4s-4 1.791-4 4v20c0 6.617 5.383 12 12 12s12-5.383 12-12v-12c0-2.209-1.789-4-4-4z"/><circle cx="216" cy="149.999" r="4"/><path d="m184 125.999c6.73 0 12-7.027 12-16s-5.27-16-12-16-12 7.027-12 16 5.27 16 12 16zm0-24c1.633 0 4 3.117 4 8s-2.367 8-4 8-4-3.117-4-8 2.367-8 4-8z"/></g></svg>