<svg id="sunflower" enable-background="new 0 0 300 300" height="512" viewBox="0 0 300 300" width="512" xmlns="http://www.w3.org/2000/svg"><g><circle cx="258.123" cy="78" r="4"/><path d="m223.295 64.828c.781.781 1.805 1.172 2.828 1.172s2.047-.391 2.828-1.172l3.172-3.172 3.172 3.172c.781.781 1.805 1.172 2.828 1.172s2.047-.391 2.828-1.172c1.562-1.562 1.562-4.094 0-5.656l-3.172-3.172 3.172-3.172c1.562-1.562 1.562-4.094 0-5.656s-4.094-1.562-5.656 0l-3.172 3.172-3.172-3.172c-1.562-1.562-4.094-1.562-5.656 0s-1.562 4.094 0 5.656l3.172 3.172-3.172 3.172c-1.563 1.562-1.563 4.094 0 5.656z"/><path d="m235.657 132.194c6.528-10.386 10.343-20.194 10.515-20.641.766-1.988-.162-4.229-2.107-5.094-.439-.194-10.076-4.436-22.041-7.165 2.039-11.935 1.831-22.345 1.811-23.111-.053-2.129-1.768-3.844-3.896-3.896-.764-.019-11.166-.227-23.094 1.81-2.729-11.963-6.968-21.594-7.161-22.029-.865-1.947-3.098-2.875-5.092-2.109-.448.172-10.261 3.987-20.652 10.519-6.997-9.881-14.504-17.096-15.059-17.622-1.543-1.469-3.969-1.469-5.512 0-.555.526-8.056 7.735-15.05 17.61-10.388-6.53-20.195-10.344-20.641-10.514-2-.768-4.23.162-5.094 2.107-.193.438-4.436 10.073-7.164 22.04-11.935-2.041-22.345-1.833-23.111-1.81-2.129.053-3.844 1.768-3.896 3.896-.019.765-.227 11.167 1.81 23.095-11.963 2.728-21.594 6.968-22.029 7.161-1.947.865-2.875 3.104-2.109 5.092.172.45 3.987 10.262 10.518 20.653-9.881 6.996-17.095 14.503-17.621 15.058-1.469 1.545-1.469 3.967 0 5.512.526.555 7.735 8.055 17.609 15.049-6.531 10.39-10.343 20.199-10.513 20.642-.766 1.988.162 4.229 2.109 5.094.436.193 10.072 4.435 22.039 7.166-2.039 11.933-1.831 22.342-1.811 23.107.053 2.129 1.768 3.844 3.896 3.896.768.022 11.168.23 23.096-1.808 2.727 11.963 6.967 21.594 7.16 22.03.66 1.484 2.119 2.375 3.658 2.375.477 0 .963-.086 1.436-.268.442-.17 10.257-3.982 20.653-10.515 6.996 9.879 14.501 17.092 15.056 17.618.771.734 1.764 1.102 2.756 1.102s1.984-.367 2.756-1.102c.555-.526 8.057-7.736 15.052-17.612 10.381 6.529 20.187 10.343 20.64 10.517.473.182.959.268 1.436.268 1.539 0 2.998-.891 3.658-2.375.194-.439 4.437-10.078 7.166-22.045 11.929 2.036 22.334 1.827 23.11 1.814 2.129-.053 3.844-1.768 3.896-3.896.019-.765.227-11.168-1.811-23.096 11.962-2.728 21.592-6.965 22.029-7.16 1.947-.865 2.875-3.104 2.109-5.092-.171-.447-3.984-10.26-10.518-20.653 9.881-6.996 17.095-14.503 17.621-15.058 1.469-1.545 1.469-3.967 0-5.512-.529-.553-7.738-8.054-17.613-15.048zm1.517-19.899c-1.615 3.624-4.448 9.511-8.217 15.528-4.452-2.64-9.208-4.926-13.996-6.337 2.387-4.38 4.133-9.354 5.414-14.365 6.925 1.592 13.095 3.752 16.799 5.174zm-53.33-53.338c1.42 3.702 3.581 9.867 5.171 16.788-5.015 1.281-9.995 3.028-14.378 5.417-1.41-4.785-3.693-9.537-6.331-13.986 6.022-3.77 11.913-6.605 15.538-8.219zm-75.424-.01c3.618 1.611 9.497 4.438 15.528 8.217-2.64 4.452-4.927 9.209-6.338 13.998-4.381-2.387-9.356-4.134-14.368-5.415 1.591-6.925 3.755-13.096 5.178-16.8zm-53.34 53.332c3.702-1.422 9.868-3.581 16.788-5.171 1.281 5.015 3.029 9.995 5.417 14.378-4.785 1.41-9.538 3.694-13.987 6.331-3.769-6.022-6.605-11.914-8.218-15.538zm-.008 75.426c1.613-3.624 4.449-9.51 8.218-15.527 4.451 2.64 9.207 4.925 13.995 6.336-2.387 4.381-4.134 9.356-5.415 14.368-6.923-1.593-13.093-3.756-16.798-5.177zm53.33 53.338c-1.421-3.702-3.581-9.867-5.171-16.787 5.014-1.282 9.994-3.029 14.378-5.418 1.41 4.784 3.693 9.537 6.33 13.985-6.022 3.77-11.913 6.607-15.537 8.22zm75.426.008c-3.622-1.613-9.51-4.452-15.527-8.219 2.639-4.451 4.925-9.206 6.335-13.994 4.381 2.387 9.355 4.132 14.366 5.413-1.591 6.924-3.752 13.096-5.174 16.8zm53.34-53.33c-3.704 1.42-9.869 3.582-16.789 5.172-1.281-5.015-3.029-9.995-5.418-14.379 4.785-1.41 9.538-3.694 13.988-6.332 3.77 6.021 6.604 11.914 8.219 15.539zm-29.203-15.873c-1.43.178-2.654 1.109-3.205 2.439-.551 1.332-.344 2.855.541 3.992 8.773 11.244 10.27 32.607 10.506 41.402-8.795-.234-30.16-1.73-41.404-10.504-1.137-.885-2.662-1.096-3.992-.541-1.33.551-2.262 1.775-2.439 3.205-1.748 14.152-15.795 30.316-21.848 36.703-6.053-6.387-20.1-22.551-21.848-36.703-.178-1.43-1.109-2.654-2.439-3.205-.494-.205-1.014-.305-1.531-.305-.877 0-1.746.289-2.461.846-11.244 8.773-32.607 10.27-41.402 10.504.234-8.795 1.73-30.158 10.504-41.402.885-1.137 1.092-2.66.541-3.992-.551-1.33-1.775-2.262-3.205-2.439-14.154-1.748-30.318-15.795-36.705-21.848 6.387-6.053 22.551-20.1 36.703-21.848 1.43-.178 2.654-1.109 3.205-2.439.551-1.332.344-2.855-.541-3.992-8.773-11.244-10.27-32.607-10.506-41.402 8.795.234 30.16 1.73 41.404 10.504 1.137.883 2.662 1.092 3.992.541s2.262-1.775 2.439-3.205c1.748-14.152 15.795-30.316 21.848-36.703 6.053 6.387 20.1 22.551 21.848 36.703.178 1.43 1.109 2.654 2.439 3.205s2.855.342 3.992-.541c11.244-8.773 32.607-10.27 41.402-10.506-.234 8.795-1.73 30.16-10.504 41.404-.885 1.137-1.092 2.66-.541 3.992.551 1.33 1.775 2.262 3.205 2.439 14.152 1.748 30.316 15.795 36.703 21.848-6.385 6.053-22.549 20.1-36.701 21.848z"/><path d="m146.123 94c-30.879 0-56 25.121-56 56s25.121 56 56 56 56-25.121 56-56-25.121-56-56-56zm0 104c-26.467 0-48-21.533-48-48s21.533-48 48-48 48 21.533 48 48-21.533 48-48 48z"/><circle cx="126.123" cy="118" r="4"/><circle cx="114.123" cy="130" r="4"/><circle cx="110.123" cy="154" r="4"/><circle cx="170.123" cy="126" r="4"/><circle cx="178.123" cy="138" r="4"/><circle cx="166.123" cy="182" r="4"/><circle cx="182.123" cy="154" r="4"/><circle cx="142.123" cy="114" r="4"/><circle cx="130.123" cy="134" r="4"/><circle cx="122.123" cy="162" r="4"/><circle cx="122.123" cy="178" r="4"/><circle cx="118.123" cy="142" r="4"/><circle cx="158.123" cy="118" r="4"/><circle cx="158.123" cy="134" r="4"/><circle cx="158.123" cy="158" r="4"/><circle cx="158.123" cy="170" r="4"/><circle cx="150.123" cy="146" r="4"/><circle cx="166.123" cy="146" r="4"/><circle cx="174.123" cy="166" r="4"/><circle cx="146.123" cy="130" r="4"/><circle cx="142.123" cy="162" r="4"/><circle cx="138.123" cy="178" r="4"/><circle cx="150.123" cy="186" r="4"/><circle cx="134.123" cy="150" r="4"/></g></svg>