<svg id="turkey" enable-background="new 0 0 300 300" height="512" viewBox="0 0 300 300" width="512" xmlns="http://www.w3.org/2000/svg"><g><path d="m79.31 189.819c-6.617 0-12 5.383-12 12s5.383 12 12 12 12-5.383 12-12-5.383-12-12-12zm0 16c-2.205 0-4-1.795-4-4s1.795-4 4-4 4 1.795 4 4-1.795 4-4 4z"/><circle cx="55.31" cy="225.819" r="4"/><path d="m219.795 205.335c-1.562-1.562-4.094-1.562-5.656 0l-2.828 2.828-2.828-2.828c-1.562-1.562-4.094-1.562-5.656 0s-1.562 4.094 0 5.656l2.828 2.828-2.828 2.828c-1.562 1.562-1.562 4.094 0 5.656.781.781 1.805 1.172 2.828 1.172s2.047-.391 2.828-1.172l2.828-2.828 2.828 2.828c.781.781 1.805 1.172 2.828 1.172s2.047-.391 2.828-1.172c1.562-1.562 1.562-4.094 0-5.656l-2.828-2.828 2.828-2.828c1.562-1.562 1.562-4.094 0-5.656z"/><path d="m255.205 145.71c-3.348-3.932-3.895-9.602-1.359-14.105 2.75-4.895 3.359-10.773 1.672-16.131-1.691-5.359-5.566-9.828-10.633-12.258-4.656-2.234-7.461-7.191-6.977-12.334.523-5.594-1.312-11.213-5.035-15.42-3.727-4.207-9.082-6.711-14.699-6.871-5.164-.146-9.742-3.535-11.395-8.428-1.793-5.322-5.754-9.711-10.867-12.039-5.113-2.33-11.023-2.443-16.223-.303-4.77 1.975-10.332.736-13.836-3.062-3.805-4.133-9.207-6.529-14.824-6.578-5.457.072-11.062 2.256-14.941 6.322-3.566 3.742-9.152 4.873-13.889 2.828-5.158-2.225-11.068-2.223-16.221.021-5.152 2.24-9.189 6.561-11.076 11.854-1.736 4.863-6.373 8.172-11.539 8.23-5.617.064-11.014 2.479-14.809 6.619-3.793 4.143-5.725 9.73-5.297 15.332.395 5.15-2.496 10.061-7.191 12.215-5.105 2.342-9.055 6.74-10.836 12.066-1.783 5.328-1.273 11.221 1.396 16.164 2.455 4.545 1.811 10.205-1.602 14.082-3.711 4.217-5.531 9.842-4.992 15.434s3.4 10.766 7.848 14.197l1.811 1.395c5.639 4.35 12.984 5.443 19.643 2.936l34.187-12.872c-2.74 10.117-4.21 20.337-4.21 28.815 0 17.003 6.057 36.717 32 42.365v17.635c-2.209 0-4 1.791-4 4s1.791 4 4 4h8c2.211 0 4-1.791 4-4s-1.789-4-4-4v-16.389c2.526.235 5.162.389 8 .389s5.474-.154 8-.389v16.389c-2.211 0-4 1.791-4 4s1.789 4 4 4h8c2.211 0 4-1.791 4-4s-1.789-4-4-4v-17.635c25.943-5.648 32-25.361 32-42.365 0-8.912-1.636-19.744-4.654-30.363l39.646 15.775c2.461.98 5.027 1.461 7.574 1.461 4.305 0 8.551-1.375 12.145-4.051l1.816-1.352c4.508-3.354 7.457-8.479 8.094-14.061.632-5.581-1.087-11.237-4.727-15.518zm-147.895 48.109c0-12.786 3.422-28.322 8.882-41.19 7.017 8.323 11.118 20.307 11.118 33.19 0 13.107-4.318 25.415-11.641 33.768-5.608-5.911-8.359-14.422-8.359-25.768zm14.703 30.691c8.383-9.794 13.297-23.868 13.297-38.691 0-16.114-5.748-31.112-15.419-40.924 4.429-8.12 9.738-14.333 15.464-16.676 1.27-.52 2.184-1.65 2.424-3 .24-1.348-.225-2.727-1.234-3.652-3.375-3.094-5.234-7.266-5.234-11.748v-8c0-8.822 7.178-16 16-16 8.824 0 16 7.178 16 16v8c0 4.482-1.859 8.654-5.234 11.748-1.008.926-1.477 2.305-1.234 3.652.242 1.35 1.156 2.48 2.422 3 5.726 2.343 11.035 8.556 15.464 16.676-9.669 9.811-15.417 24.81-15.417 40.924 0 14.822 4.913 28.896 13.297 38.691-6.312 3.556-14.689 5.309-25.297 5.309-10.61 0-18.987-1.753-25.299-5.309zm56.937-4.921c-7.32-8.354-11.639-20.664-11.639-33.77 0-12.884 4.1-24.868 11.116-33.19 5.46 12.868 8.884 28.405 8.884 41.19-.001 11.347-2.751 19.858-8.361 25.77zm73.032-59.264c-.391 3.443-2.141 6.479-4.918 8.547l-1.816 1.352c-3.484 2.592-7.973 3.174-11.988 1.574l-45.868-18.252c-.942-2.493-1.966-4.924-3.062-7.281l36.531-3.177c2.199-.191 3.828-2.131 3.637-4.33-.191-2.203-2.164-3.855-4.332-3.639l-39.879 3.469c-1.211-2.038-2.473-3.989-3.814-5.783l36.685-19.406c1.953-1.033 2.699-3.453 1.664-5.406-1.035-1.951-3.445-2.701-5.406-1.664l-38.417 20.323c-.904-.846-1.833-1.613-2.78-2.33l25.963-35.038c1.312-1.773.941-4.279-.832-5.594-1.781-1.314-4.281-.939-5.598.832l-16.441 22.188v-4.889c0-6.442-2.564-12.287-6.709-16.602l2.358-10.118c.504-2.152-.836-4.303-2.988-4.805-2.145-.5-4.301.836-4.801 2.988l-1.601 6.872c-3.115-1.481-6.585-2.335-10.258-2.335-3.383 0-6.601.712-9.522 1.98l-1.478-6.728c-.475-2.162-2.621-3.543-4.764-3.049-2.158.473-3.523 2.607-3.049 4.764l2.151 9.796c-4.516 4.366-7.339 10.474-7.339 17.237v3.882l-15.779-21.882c-1.291-1.789-3.793-2.193-5.584-.904-1.791 1.291-2.197 3.791-.904 5.584l25.66 35.584c-1.228.906-2.417 1.931-3.573 3.052l-37.544-21.823c-1.906-1.109-4.355-.461-5.469 1.449-1.109 1.91-.461 4.357 1.449 5.469l36.238 21.064c-1.137 1.555-2.22 3.214-3.263 4.947l-40.256-4.369c-2.213-.234-4.17 1.348-4.408 3.545s1.35 4.17 3.545 4.408l37.057 4.021c-1.429 3.035-2.733 6.203-3.904 9.457l-40.062 15.084c-4.051 1.529-8.51.859-11.938-1.783l-1.809-1.395c-2.744-2.115-4.439-5.18-4.771-8.629s.746-6.779 3.033-9.381c5.617-6.379 6.676-15.689 2.637-23.168-1.646-3.051-1.947-6.539-.85-9.826 1.1-3.285 3.438-5.889 6.586-7.334 7.725-3.543 12.48-11.619 11.832-20.094-.264-3.455.881-6.764 3.221-9.318s5.537-3.984 9-4.023c8.498-.098 16.127-5.539 18.982-13.543 1.164-3.264 3.555-5.822 6.732-7.205 3.172-1.383 6.678-1.389 9.857-.014 7.803 3.369 16.986 1.502 22.85-4.652 2.391-2.506 5.664-3.836 9.082-3.842 3.465.029 6.664 1.449 9.012 3.998 5.762 6.25 14.918 8.266 22.766 5.041 3.195-1.312 6.703-1.254 9.859.184 3.152 1.436 5.496 4.035 6.605 7.316 2.719 8.053 10.25 13.625 18.746 13.867 3.465.1 6.637 1.582 8.934 4.178 2.297 2.594 3.383 5.922 3.059 9.371-.793 8.461 3.824 16.615 11.484 20.291 3.125 1.5 5.422 4.148 6.465 7.453 1.039 3.303.68 6.785-1.02 9.805-4.164 7.412-3.262 16.738 2.242 23.207 2.243 2.639 3.263 5.989 2.872 9.432z"/><circle cx="139.31" cy="97.819" r="4"/><circle cx="155.31" cy="97.819" r="4"/><path d="m156.795 106.104c-2.035-.816-4.379.178-5.199 2.229l-4.285 10.717-4.285-10.717c-.82-2.047-3.145-3.039-5.201-2.229-2.051.822-3.049 3.148-2.229 5.201l8 20c.609 1.518 2.078 2.514 3.715 2.514s3.105-.996 3.715-2.514l8-20c.819-2.052-.181-4.378-2.231-5.201z"/></g></svg>