<svg xmlns="http://www.w3.org/2000/svg" viewBox="0 0 64 64"><path fill="#41e1d4" fill-rule="evenodd" d="M32,60.75A28.75,28.75,0,1,0,3.25,32,28.763,28.763,0,0,0,32,60.75Z" class="color28c7fa svgShape"/><path fill="#0af4e1" fill-rule="evenodd" d="M32,60V3.25A28.75,28.75,0,1,0,38.546,60Z" class="color0abbf4 svgShape"/><path fill="#f1f1f1" fill-rule="evenodd" d="M32,7.25A24.75,24.75,0,1,0,56.75,32,24.762,24.762,0,0,0,32,7.25Z" class="colorf1f1f1 svgShape"/><path fill="#e7e7e7" fill-rule="evenodd" d="M32,56.75V7.25a24.75,24.75,0,0,0,0,49.5Z" class="colore7e7e7 svgShape"/><path fill="#27fdec" fill-rule="evenodd" d="M26.835,31.257h-7.5a.75.75,0,0,0-.633,1.152L31.4,52.4a.75.75,0,0,0,1.266,0l12.7-19.993a.75.75,0,0,0-.633-1.152h-7.5V12a.75.75,0,0,0-.75-.75H27.585a.75.75,0,0,0-.75.75Z" class="colorfdb827 svgShape"/></svg>