<svg xmlns="http://www.w3.org/2000/svg" viewBox="0 0 64 64"><path fill="#41e1d4" fill-rule="evenodd" d="M3.25,32A28.75,28.75,0,1,0,32,3.25,28.763,28.763,0,0,0,3.25,32Z" class="color28c7fa svgShape"/><path fill="#0af4e1" fill-rule="evenodd" d="M32,60.75V3.25a28.75,28.75,0,0,0,0,57.5Z" class="color0abbf4 svgShape"/><path fill="#f1f1f1" fill-rule="evenodd" d="M56.75,32A24.75,24.75,0,1,0,32,56.75,24.762,24.762,0,0,0,56.75,32Z" class="colorf1f1f1 svgShape"/><path fill="#e7e7e7" fill-rule="evenodd" d="M32,56.75V7.25a24.75,24.75,0,0,0,0,49.5Z" class="colore7e7e7 svgShape"/><path fill="#27fdec" fill-rule="evenodd" d="M32.743,37.165H52a.75.75,0,0,0,.75-.75V27.526a.75.75,0,0,0-.75-.75H32.743v-7.5a.75.75,0,0,0-1.152-.633L11.6,31.337a.75.75,0,0,0,0,1.266L31.591,45.3a.75.75,0,0,0,1.152-.633Z" class="colorfdb827 svgShape"/></svg>