<svg xmlns="http://www.w3.org/2000/svg" viewBox="0 0 64 64"><path fill="#41e1d4" fill-rule="evenodd" d="M60.75,32A28.75,28.75,0,1,0,32,60.75,28.763,28.763,0,0,0,60.75,32Z" class="color28c7fa svgShape"/><path fill="#0af4e1" fill-rule="evenodd" d="M32,3.25a28.75,28.75,0,0,0,0,57.5Z" class="color0abbf4 svgShape"/><path fill="#f1f1f1" fill-rule="evenodd" d="M7.25,32A24.75,24.75,0,1,0,32,7.25,24.762,24.762,0,0,0,7.25,32Z" class="colorf1f1f1 svgShape"/><path fill="#e7e7e7" fill-rule="evenodd" d="M32,7.25a24.75,24.75,0,0,0,0,49.5Z" class="colore7e7e7 svgShape"/><path fill="#27fdec" fill-rule="evenodd" d="M31.257,37.165v7.5a.75.75,0,0,0,1.152.633L52.4,32.6a.75.75,0,0,0,0-1.266l-19.993-12.7a.75.75,0,0,0-1.152.633v7.5H12a.75.75,0,0,0-.75.75v8.889a.75.75,0,0,0,.75.75Z" class="colorfdb827 svgShape"/></svg>