<?xml version="1.0" encoding="iso-8859-1"?>
<!-- Generator: Adobe Illustrator 19.0.0, SVG Export Plug-In . SVG Version: 6.00 Build 0)  -->
<svg version="1.1" id="Layer_1" xmlns="http://www.w3.org/2000/svg" xmlns:xlink="http://www.w3.org/1999/xlink" x="0px" y="0px"
	 viewBox="0 0 512 512" style="enable-background:new 0 0 512 512;" xml:space="preserve">
<path style="fill:#010101;" d="M389.115,125.883L182.253,6.45c-13.066-7.544-24.905-8.245-33.454-3.277L90.411,37.104
	c0.027-0.016,0.057-0.028,0.085-0.045C82.008,41.943,76.74,52.388,76.697,67.26l-0.674,237.702
	c-0.085,29.835,20.898,66.178,46.862,81.168l206.863,119.432c13.441,7.759,25.573,8.262,34.17,2.818
	c-0.239,0.151-0.472,0.314-0.718,0.458l58.386-33.93c8.44-4.905,13.672-15.333,13.715-30.155l0.674-237.702
	C436.062,177.209,415.079,140.873,389.115,125.883z"/>
<g style="enable-background:new    ;">
	<path style="fill:#1D1D1F;" d="M421.588,474.907l-58.386,33.93c8.44-4.905,13.674-15.333,13.715-30.155l58.386-33.93
		C435.261,459.573,430.027,470.002,421.588,474.907z"/>
	<g>
		<path style="fill:#2E2E30;" d="M90.411,37.104l58.386-33.93c8.549-4.968,20.388-4.267,33.454,3.277l-58.386,33.93
			C110.799,32.837,98.961,32.135,90.411,37.104z"/>
		<polygon style="fill:#2E2E30;" points="377.591,240.981 435.977,207.05 435.303,444.752 376.917,478.682 		"/>
	</g>
	<polygon style="fill:#3E3D43;" points="123.866,40.381 182.253,6.45 389.115,125.883 330.729,159.813 	"/>
	<path style="fill:#57565C;" d="M330.729,159.813l58.386-33.93c25.965,14.99,46.946,51.327,46.862,81.168l-58.386,33.93
		C377.676,211.14,356.693,174.804,330.729,159.813z"/>
</g>
<g style="enable-background:new    ;">
	<path style="fill:#FFFFFF;" d="M211.973,287.051c-16.848-9.727-13.637-32.787-5.851-35.713c5.906-2.208,17.864,2.789,23.319,5.349
		c0.083,0.039,0.165,0.082,0.246,0.129c1.4,0.809,2.567,2.796,2.563,4.441l-0.049,17.491c-0.026,9.139-5.524,13.983-13.287,11.487
		C216.899,289.592,214.609,288.572,211.973,287.051 M219.736,177.817c-32.657-18.855-42.683,2.117-45.264,10.441
		c-0.495,1.587,0.561,4.129,2.24,5.42l20.264,15.644c0.161,0.124,0.322,0.233,0.482,0.325c1.061,0.612,2.047,0.498,2.529-0.347
		c2.244-3.88,8.742-12.74,18.85-6.906c12.729,7.357,13.185,19.592,13.185,19.592l-0.04,13.83c-0.005,1.702-1.203,2.375-2.66,1.533
		c-0.07-0.04-0.139-0.084-0.21-0.131c-1.231-0.822-2.86-1.854-4.885-3.023c-5.368-3.099-13.525-7.166-24.475-10.876
		c-21.495-7.279-31.471,9.787-31.521,27.641c-0.05,17.837,14.758,47.123,37.067,60.002c17.066,9.853,26.725,3.614,30.311,0.137
		c0.387-0.366,0.961-0.327,1.534,0.003c0.615,0.355,1.23,1.048,1.606,1.939c0.877,2.093,2.128,4.921,3.749,8.172
		c1.741,3.493,4.053,7.307,5.938,10.26c0.87,1.362,1.946,2.406,3.023,3.028c1.172,0.677,2.346,0.853,3.259,0.391l14.83-7.648
		c1.715-0.891,1.957-3.794,0.562-6.792c-0.81-1.733-1.837-3.964-3.096-6.755c-3.951-8.748-3.771-13.776-3.771-13.776l0.17-60.001
		C263.434,232.71,259.714,200.899,219.736,177.817"/>
	<g>
		<path style="fill:#FF9911;" d="M297.009,358.194c-9.54-5.509-22.147-6.689-23.441-6.446c-1.864,0.354-1.869,2.058-1.869,2.058
			s-0.391,3.108,5.129,6.294c0.738,0.425,1.581,0.853,2.544,1.275c4.61,2.022,7.765,3.187,10.081,4.524
			c1.796,1.037,3.089,2.178,4.168,3.902c2.471,3.94,1.59,8.572-0.039,13.475c-1.628,4.903-5.618,7.479-1.777,12.099
			c0.229,0.275,0.491,0.494,0.781,0.661c5.421,3.129,20.754-11.869,13.947-27.96C304.728,363.805,301.158,360.59,297.009,358.194"/>
		<path style="fill:#FF9911;" d="M145.113,276.348c-2.522-1.457-3.519,0.21-3.519,0.21s-1.91,3.076,3.852,14.585
			c5.753,11.496,35.044,55.305,71.776,76.514c30.225,17.45,42.974,17.59,56.049,16.774c13.076-0.816,15.572-5.651,13.768-10.619
			c-0.532-1.458-1.551-2.51-2.89-3.284c-3.222-1.861-8.309-2.112-12.981-2.524c-6.622-0.589-26.968-3.399-56.213-20.284
			s-58.59-57.596-64.85-66.247C148.017,278.584,146.374,277.076,145.113,276.348"/>
	</g>
</g>
<g>
</g>
<g>
</g>
<g>
</g>
<g>
</g>
<g>
</g>
<g>
</g>
<g>
</g>
<g>
</g>
<g>
</g>
<g>
</g>
<g>
</g>
<g>
</g>
<g>
</g>
<g>
</g>
<g>
</g>
</svg>
