<?xml version="1.0" encoding="iso-8859-1"?>
<!-- Generator: Adobe Illustrator 19.0.0, SVG Export Plug-In . SVG Version: 6.00 Build 0)  -->
<svg version="1.1" id="Layer_1" xmlns="http://www.w3.org/2000/svg" xmlns:xlink="http://www.w3.org/1999/xlink" x="0px" y="0px"
	 viewBox="0 0 512 512" style="enable-background:new 0 0 512 512;" xml:space="preserve">
<path style="fill:#EB358A;" d="M389.115,125.883L182.253,6.45c-13.066-7.544-24.905-8.245-33.454-3.277L90.411,37.104
	c0.027-0.016,0.057-0.028,0.085-0.045C82.008,41.943,76.74,52.388,76.697,67.26l-0.674,237.702
	c-0.085,29.835,20.898,66.178,46.862,81.168l206.863,119.432c13.441,7.759,25.573,8.262,34.17,2.818
	c-0.239,0.151-0.472,0.314-0.718,0.458l58.386-33.93c8.44-4.905,13.672-15.333,13.715-30.155l0.674-237.702
	C436.062,177.209,415.079,140.873,389.115,125.883z"/>
<g style="enable-background:new    ;">
	<path style="fill:#EF539D;" d="M421.588,474.907l-58.386,33.93c8.44-4.905,13.674-15.333,13.715-30.155l58.386-33.93
		C435.261,459.573,430.027,470.002,421.588,474.907z"/>
	<g>
		<path style="fill:#EF72AC;" d="M90.411,37.104l58.386-33.93c8.549-4.968,20.388-4.267,33.454,3.277l-58.386,33.93
			C110.799,32.837,98.961,32.135,90.411,37.104z"/>
		<polygon style="fill:#EF72AC;" points="377.591,240.981 435.977,207.05 435.303,444.752 376.917,478.682 		"/>
	</g>
	<polygon style="fill:#F58FBF;" points="123.866,40.381 182.253,6.45 389.115,125.883 330.729,159.813 	"/>
	<path style="fill:#F7AFD4;" d="M330.729,159.813l58.386-33.93c25.965,14.99,46.946,51.327,46.862,81.168l-58.386,33.93
		C377.676,211.14,356.693,174.804,330.729,159.813z"/>
</g>
<g style="enable-background:new    ;">
	<path style="fill:#FFFFFF;" d="M224.515,353.743c-14.68-8.475-28.291-21.638-39.46-37.079
		c13.079-13.692,31.147-18.77,51.511-15.373c4.792,20.632,7.933,40.996,9.084,60.467
		C238.906,360.315,231.942,358.031,224.515,353.743 M260.516,362.681c-1.459-18.693-4.462-37.941-9.022-57.659
		c6.634,2.285,13.422,5.443,20.271,9.398c7.06,4.076,14.186,8.999,21.288,14.69C289.048,349.011,276.877,360.711,260.516,362.681
		 M176.686,247.993c17.171,9.914,33.922,15.236,49.383,16.314c1.952,5.825,3.681,11.442,5.329,17.279
		c-22.811-3.855-42.99,1.647-57.958,16.538c-11.387-20.872-18.446-43.835-18.386-64.801
		C162.243,238.604,169.504,243.846,176.686,247.993 M246.255,285.008c-1.96-6.948-4.049-13.902-6.384-20.918
		c13.571-1.494,25.643-6.978,35.522-16.418c11.447,20.61,18.657,43.513,18.996,64.346c-7.646-5.964-15.293-11.18-22.868-15.553
		C262.974,291.529,254.52,287.667,246.255,285.008 M176.857,229.899c-6.571-3.794-13.197-8.31-19.8-13.527
		c4.626-19.812,17.462-31.046,34.582-31.958c10.559,19.586,19.687,39.664,27.351,59.854
		C205.77,243.187,191.447,238.322,176.857,229.899 M232.862,244.185c-7.372-19.603-16.187-39.044-26.126-58.123
		c5.889,1.568,11.882,3.737,18.232,7.403c14.317,8.266,27.544,20.856,38.561,35.672
		C255.024,237.648,244.629,242.619,232.862,244.185 M225.019,175.63c-46.997-27.134-85.335-5.286-85.488,48.731
		c-0.154,54.003,37.935,120.084,84.932,147.218c47.009,27.141,85.44,5.24,85.594-48.764
		C310.211,268.797,272.028,202.77,225.019,175.63"/>
</g>
<g>
</g>
<g>
</g>
<g>
</g>
<g>
</g>
<g>
</g>
<g>
</g>
<g>
</g>
<g>
</g>
<g>
</g>
<g>
</g>
<g>
</g>
<g>
</g>
<g>
</g>
<g>
</g>
<g>
</g>
</svg>
