<?xml version="1.0" encoding="iso-8859-1"?>
<!-- Generator: Adobe Illustrator 19.0.0, SVG Export Plug-In . SVG Version: 6.00 Build 0)  -->
<svg version="1.1" id="Layer_1" xmlns="http://www.w3.org/2000/svg" xmlns:xlink="http://www.w3.org/1999/xlink" x="0px" y="0px"
	 viewBox="0 0 512 512" style="enable-background:new 0 0 512 512;" xml:space="preserve">
<path style="fill:#010101;" d="M389.115,125.883L182.253,6.45c-13.066-7.544-24.905-8.245-33.454-3.277L90.411,37.104
	c0.027-0.016,0.057-0.028,0.085-0.045C82.008,41.943,76.74,52.388,76.697,67.26l-0.674,237.702
	c-0.085,29.835,20.898,66.178,46.862,81.168l206.863,119.432c13.441,7.759,25.573,8.262,34.17,2.818
	c-0.239,0.151-0.472,0.314-0.718,0.458l58.386-33.93c8.44-4.905,13.672-15.333,13.715-30.155l0.674-237.702
	C436.062,177.209,415.079,140.873,389.115,125.883z"/>
<g style="enable-background:new    ;">
	<path style="fill:#1D1D1F;" d="M421.588,474.907l-58.386,33.93c8.44-4.905,13.674-15.333,13.715-30.155l58.386-33.93
		C435.261,459.573,430.027,470.002,421.588,474.907z"/>
	<g>
		<path style="fill:#2E2E30;" d="M90.411,37.104l58.386-33.93c8.549-4.968,20.388-4.267,33.454,3.277l-58.386,33.93
			C110.799,32.837,98.961,32.135,90.411,37.104z"/>
		<polygon style="fill:#2E2E30;" points="377.591,240.981 435.977,207.05 435.303,444.752 376.917,478.682 		"/>
	</g>
	<polygon style="fill:#3E3D43;" points="123.866,40.381 182.253,6.45 389.115,125.883 330.729,159.813 	"/>
	<path style="fill:#57565C;" d="M330.729,159.813l58.386-33.93c25.965,14.99,46.946,51.327,46.862,81.168l-58.386,33.93
		C377.676,211.14,356.693,174.804,330.729,159.813z"/>
</g>
<g style="enable-background:new    ;">
	<path style="fill:#CD2A01;" d="M183.253,194.967c-31.441-18.153-48.187-4.916-48.297,33.905
		c-0.106,37.361,16.518,67.133,46.455,84.417c24.163,13.95,35.756,7.595,35.756,7.595l-6.794-25.331c0,0-11.166,7.837-27.847-1.794
		c-14.747-8.514-25.187-29.321-25.12-52.9c0.086-30.24,13.366-33.402,26.425-25.862c18.82,10.866,24.766,28.339,29.839,49.231
		l6.778,28.539c6.772,27.781,19.552,54.357,56.556,75.722c26.514,15.308,44.513,16.348,44.583-8.23
		c0.056-19.905-9.755-35.905-28.137-51.441l-13.67-11.337c-9.41-7.895-12.172-13.917-12.151-21.298
		c0.024-8.355,5.812-9.929,15.229-4.491c10.264,5.926,15.806,13.545,16.638,24.621l21.383,9.388
		c-1.653-23.11-14.876-39.845-36.697-52.442c-19.243-11.109-38.087-13.62-38.162,13.172c-0.047,16.702,6.982,31.338,24.714,46.507
		l14.53,12.313c10.898,9.258,14.512,16.511,14.492,23.634c-0.026,9.093-7.716,8.341-22.272-0.063
		c-21.601-12.471-30.543-30.674-35.624-51.588l-6.989-28.636C225.99,231.463,211.694,211.388,183.253,194.967"/>
</g>
<g>
</g>
<g>
</g>
<g>
</g>
<g>
</g>
<g>
</g>
<g>
</g>
<g>
</g>
<g>
</g>
<g>
</g>
<g>
</g>
<g>
</g>
<g>
</g>
<g>
</g>
<g>
</g>
<g>
</g>
</svg>
