<?xml version="1.0" encoding="iso-8859-1"?>
<!-- Generator: Adobe Illustrator 19.0.0, SVG Export Plug-In . SVG Version: 6.00 Build 0)  -->
<svg version="1.1" id="Layer_1" xmlns="http://www.w3.org/2000/svg" xmlns:xlink="http://www.w3.org/1999/xlink" x="0px" y="0px"
	 viewBox="0 0 512 512" style="enable-background:new 0 0 512 512;" xml:space="preserve">
<path style="fill:#C60024;" d="M389.115,125.883L182.253,6.45c-13.066-7.544-24.905-8.245-33.454-3.277L90.411,37.104
	c0.027-0.016,0.057-0.028,0.085-0.045C82.008,41.943,76.74,52.388,76.697,67.26l-0.674,237.702
	c-0.085,29.835,20.898,66.178,46.862,81.168l206.863,119.432c13.441,7.759,25.573,8.262,34.17,2.818
	c-0.239,0.151-0.472,0.314-0.718,0.458l58.386-33.93c8.44-4.905,13.672-15.333,13.715-30.155l0.674-237.702
	C436.062,177.209,415.079,140.873,389.115,125.883z"/>
<g style="enable-background:new    ;">
	<path style="fill:#FE0B37;" d="M421.588,474.907l-58.386,33.93c8.44-4.905,13.674-15.333,13.715-30.155l58.386-33.93
		C435.261,459.573,430.027,470.002,421.588,474.907z"/>
	<g>
		<path style="fill:#FF3E61;" d="M90.411,37.104l58.386-33.93c8.549-4.968,20.388-4.267,33.454,3.277l-58.386,33.93
			C110.799,32.837,98.961,32.135,90.411,37.104z"/>
		<polygon style="fill:#FF3E61;" points="377.591,240.981 435.977,207.05 435.303,444.752 376.917,478.682 		"/>
	</g>
	<polygon style="fill:#FF728C;" points="123.866,40.381 182.253,6.45 389.115,125.883 330.729,159.813 	"/>
	<path style="fill:#FFA5B6;" d="M330.729,159.813l58.386-33.93c25.965,14.99,46.946,51.327,46.862,81.168l-58.386,33.93
		C377.676,211.14,356.693,174.804,330.729,159.813z"/>
</g>
<g style="enable-background:new    ;">
	<path style="fill:#FFFFFF;" d="M219.916,165.911c-24.096-13.912-51.983-22.473-73.252-7.14
		c-36.093,35.647,0.495,108.933,0.495,108.933l24.476-10.867c0,0-18.159-35.492-3.866-55.01c16.27-20.7,46.647-5.224,54.675-0.589
		c1.276,0.737,1.988,1.201,1.988,1.201s0.006,0.003,0.019,0.01c1.219,0.704,60.307,35.121,59.082,93.061
		c-4.165,30.008-24.158,24.831-39.231,16.129c-9.756-5.633-17.453-12.746-17.453-12.746l0.189-66.862l-33.792-19.509l-0.333,117.708
		c-2.101,5.495-5.565,6.16-9.55,3.858c-5.22-3.015-11.337-11.118-16.457-20.115l-0.098,34.82c0,0,11.378,16.415,25.965,24.837
		c3.858,2.228,7.942,3.896,12.098,4.554c19.869,3.132,22.056-14.738,22.056-14.738l0.098-34.513c0,0,10.141,10.495,24.039,18.52
		c18.754,10.827,44.348,17.152,61.085-12.887c21.139-63.722-39.782-127.491-39.782-127.491S248.876,182.631,219.916,165.911"/>
</g>
<g>
</g>
<g>
</g>
<g>
</g>
<g>
</g>
<g>
</g>
<g>
</g>
<g>
</g>
<g>
</g>
<g>
</g>
<g>
</g>
<g>
</g>
<g>
</g>
<g>
</g>
<g>
</g>
<g>
</g>
</svg>
