<?xml version="1.0" encoding="iso-8859-1"?>
<!-- Generator: Adobe Illustrator 19.0.0, SVG Export Plug-In . SVG Version: 6.00 Build 0)  -->
<svg version="1.1" id="Layer_1" xmlns="http://www.w3.org/2000/svg" xmlns:xlink="http://www.w3.org/1999/xlink" x="0px" y="0px"
	 viewBox="0 0 512 512" style="enable-background:new 0 0 512 512;" xml:space="preserve">
<path style="fill:#9CDD03;" d="M389.115,125.883L182.253,6.45c-13.066-7.544-24.905-8.245-33.454-3.277L90.411,37.104
	c0.027-0.016,0.057-0.028,0.085-0.045C82.008,41.943,76.74,52.388,76.697,67.26l-0.674,237.702
	c-0.085,29.835,20.898,66.178,46.862,81.168l206.863,119.432c13.441,7.759,25.573,8.262,34.17,2.818
	c-0.239,0.151-0.472,0.314-0.718,0.458l58.386-33.93c8.44-4.905,13.672-15.333,13.715-30.155l0.674-237.702
	C436.062,177.209,415.079,140.873,389.115,125.883z"/>
<g style="enable-background:new    ;">
	<path style="fill:#B3FA08;" d="M421.588,474.907l-58.386,33.93c8.44-4.905,13.674-15.333,13.715-30.155l58.386-33.93
		C435.261,459.573,430.027,470.002,421.588,474.907z"/>
	<g>
		<path style="fill:#C3FB3A;" d="M90.411,37.104l58.386-33.93c8.549-4.968,20.388-4.267,33.454,3.277l-58.386,33.93
			C110.799,32.837,98.961,32.135,90.411,37.104z"/>
		<polygon style="fill:#C3FB3A;" points="377.591,240.981 435.977,207.05 435.303,444.752 376.917,478.682 		"/>
	</g>
	<polygon style="fill:#CCFB5D;" points="123.866,40.381 182.253,6.45 389.115,125.883 330.729,159.813 	"/>
	<path style="fill:#D8FC80;" d="M330.729,159.813l58.386-33.93c25.965,14.99,46.946,51.327,46.862,81.168l-58.386,33.93
		C377.676,211.14,356.693,174.804,330.729,159.813z"/>
</g>
<g style="enable-background:new    ;">
	<path style="fill:#FFFFFF;" d="M290.495,198.27c-19.882-11.479-36.047-2.262-36.111,20.573c-0.001,0.501,0.052,1.007,0.065,1.505
		l-69.78-0.148c-6.455-10.995-15.29-20.583-25.059-26.224c-19.873-11.474-36.037-2.267-36.102,20.568
		c-0.065,22.846,15.994,50.651,35.867,62.125c7.907,4.565,15.207,5.814,21.161,4.278l73.587,83.433
		c-0.082,1.051-0.158,2.105-0.161,3.228c-0.065,22.846,16.004,50.662,35.877,62.136c19.868,11.471,36.037,2.267,36.102-20.578
		c0.065-22.835-15.999-50.648-35.867-62.12c-8.97-5.18-17.154-6.114-23.474-3.518l-71.623-81.205c0.3-1.949,0.498-4.004,0.505-6.222
		c0.001-0.242-0.026-0.495-0.034-0.743l70.217,0.147c6.415,10.677,15.057,19.964,24.597,25.471
		c19.868,11.471,36.032,2.254,36.097-20.576C326.423,237.562,310.362,209.741,290.495,198.27"/>
</g>
<g>
</g>
<g>
</g>
<g>
</g>
<g>
</g>
<g>
</g>
<g>
</g>
<g>
</g>
<g>
</g>
<g>
</g>
<g>
</g>
<g>
</g>
<g>
</g>
<g>
</g>
<g>
</g>
<g>
</g>
</svg>
