<?xml version="1.0" encoding="iso-8859-1"?>
<!-- Generator: Adobe Illustrator 19.0.0, SVG Export Plug-In . SVG Version: 6.00 Build 0)  -->
<svg version="1.1" id="Layer_1" xmlns="http://www.w3.org/2000/svg" xmlns:xlink="http://www.w3.org/1999/xlink" x="0px" y="0px"
	 viewBox="0 0 512 512" style="enable-background:new 0 0 512 512;" xml:space="preserve">
<path style="fill:#1D81CD;" d="M389.115,125.883L182.253,6.45c-13.066-7.544-24.905-8.245-33.454-3.277L90.411,37.104
	c0.027-0.016,0.057-0.028,0.085-0.045C82.008,41.943,76.74,52.388,76.697,67.26l-0.674,237.702
	c-0.085,29.835,20.898,66.178,46.862,81.168l206.863,119.432c13.441,7.759,25.573,8.262,34.17,2.818
	c-0.239,0.151-0.472,0.314-0.718,0.458l58.386-33.93c8.44-4.905,13.672-15.333,13.715-30.155l0.674-237.702
	C436.062,177.209,415.079,140.873,389.115,125.883z"/>
<g style="enable-background:new    ;">
	<path style="fill:#3D99E2;" d="M421.588,474.907l-58.386,33.93c8.44-4.905,13.674-15.333,13.715-30.155l58.386-33.93
		C435.261,459.573,430.027,470.002,421.588,474.907z"/>
	<g>
		<path style="fill:#5AAAE7;" d="M90.411,37.104l58.386-33.93c8.549-4.968,20.388-4.267,33.454,3.277l-58.386,33.93
			C110.799,32.837,98.961,32.135,90.411,37.104z"/>
		<polygon style="fill:#5AAAE7;" points="377.591,240.981 435.977,207.05 435.303,444.752 376.917,478.682 		"/>
	</g>
	<polygon style="fill:#78BAEC;" points="123.866,40.381 182.253,6.45 389.115,125.883 330.729,159.813 	"/>
	<path style="fill:#97C7EF;" d="M330.729,159.813l58.386-33.93c25.965,14.99,46.946,51.327,46.862,81.168l-58.386,33.93
		C377.676,211.14,356.693,174.804,330.729,159.813z"/>
</g>
<path style="fill:#FFFFFF;" d="M321.668,261.078c-6.902-0.463-14.329-2.366-22.116-5.795c7.957-0.894,14.083-6.027,16.991-14.694
	c-7.452,0.766-15.698-0.303-24.467-3.371c-7.006-12.656-16.994-23.81-28.056-30.197c-21.265-12.278-38.554-2.424-38.624,22
	c-0.01,3.466,0.319,7.038,0.969,10.656c-31.982-20.311-60.305-54.293-79.205-92.014c-3.33,4.623-5.259,11.111-5.282,19.22
	c-0.044,15.34,6.715,32.811,17.026,46.706c-6.31-3.872-12.234-9.288-17.417-15.603c-0.009,0.184-0.009,0.364-0.01,0.562
	c-0.061,21.416,13.16,46.969,30.756,61.188c-3.228-0.856-6.636-2.275-10.147-4.302c-2.48-1.432-4.888-3.102-7.236-4.976
	c4.857,20.404,19.029,41.397,35.87,51.48c-13.21,4.256-29.822,1.749-47.853-8.661c-3.112-1.796-6.171-3.772-9.187-5.922
	c17.007,22.381,37.211,41.388,58.952,53.941c70.797,40.875,109.703-4.18,109.869-62.621c0.005-1.912-0.024-3.845-0.096-5.782
	C309.936,270.987,316.494,266.971,321.668,261.078z"/>
<g>
</g>
<g>
</g>
<g>
</g>
<g>
</g>
<g>
</g>
<g>
</g>
<g>
</g>
<g>
</g>
<g>
</g>
<g>
</g>
<g>
</g>
<g>
</g>
<g>
</g>
<g>
</g>
<g>
</g>
</svg>
