<?xml version="1.0" encoding="iso-8859-1"?>
<!-- Generator: Adobe Illustrator 19.0.0, SVG Export Plug-In . SVG Version: 6.00 Build 0)  -->
<svg version="1.1" id="Layer_1" xmlns="http://www.w3.org/2000/svg" xmlns:xlink="http://www.w3.org/1999/xlink" x="0px" y="0px"
	 viewBox="0 0 512 512" style="enable-background:new 0 0 512 512;" xml:space="preserve">
<path style="fill:#6F75E3;" d="M389.115,125.883L182.253,6.45c-13.066-7.544-24.905-8.245-33.454-3.277L90.411,37.104
	c0.027-0.016,0.057-0.028,0.085-0.045C82.008,41.943,76.74,52.388,76.697,67.26l-0.674,237.702
	c-0.085,29.835,20.898,66.178,46.862,81.168l206.863,119.432c13.441,7.759,25.573,8.262,34.17,2.818
	c-0.239,0.151-0.472,0.314-0.718,0.458l58.386-33.93c8.44-4.905,13.672-15.333,13.715-30.155l0.674-237.702
	C436.062,177.209,415.079,140.873,389.115,125.883z"/>
<g style="enable-background:new    ;">
	<path style="fill:#FFFFFF;" d="M235.905,210.795l-34.714-20.042c-4.63-2.673-6.958-1.948-9.436-0.048
		c-1.433,1.099-1.868,2.1,1.062,4.441c5.752,4.574,8.988,10.739,9.826,17.857c1.358,11.423,1.228,21.996,0.403,32.194
		c-0.248,2.956-0.727,5.805-1.8,8.081c-1.05,2.236-2.498,2.834-4.3,1.794c-1.092-0.63-2.313-1.862-3.655-3.696
		c-3.21-4.393-5.469-9.293-7.673-14.172c-8.287-18.318-14.881-36.725-20.262-55.177c-1.561-5.333-4.246-9.565-8.321-11.988
		c-5.019-2.995-10.032-5.943-15.043-8.837c-5.011-2.893-10.021-5.732-15.033-8.511c-6.034-3.369-7.841-1.028-5.405,6.674
		c10.839,34.195,22.915,68.351,38.7,102.206c8.112,17.382,17.447,33.997,29.492,48.899c12.108,14.98,25.055,25.489,38.657,33.343
		c1.745,1.007,3.503,1.972,5.268,2.896c7.269,3.815,9.459,2.886,9.815-5.23c0.255-5.563,0.827-10.898,3.28-14.607
		c1.489-2.247,3.443-2.673,5.705-1.367c1.405,0.811,2.929,2.291,4.534,4.419c2.094,2.78,3.84,5.769,5.516,8.842
		c4.075,7.503,7.995,15.077,12.232,22.514c4.838,8.486,10.518,15.317,17.503,19.35c0.665,0.383,1.342,0.743,2.03,1.074
		l30.724,17.756c4.939,2.47,7.536-3.011,4.707-10.985c-1.994-5.617-4.606-11.096-7.364-16.533
		c-6.249-12.258-13.612-23.906-20.579-35.788c-6.291-10.71-6.681-15.047-1.581-20.254c5.549-5.721,11.539-10.832,17.134-16.482
		c5.232-5.291,10.587-10.468,13.354-18.799c1.762-5.314,0.227-8.989-5.403-13.341c-0.956-0.747-1.959-1.344-2.955-1.918
		l-33.409-19.317c-0.093-0.055-0.185-0.11-0.276-0.163c-3.947-2.278-6.159-1.486-7.588,1.802c-1.976,4.534-4.021,9.028-6.382,13.126
		c-5.336,9.343-11.304,17.896-19.649,23.235c-1.549,0.986-3.234,2.308-5.548,0.972c-0.44-0.254-0.903-0.604-1.392-1.07
		c-3.831-3.827-4.936-11.739-4.867-14.151l0.095-44.33C242.575,218.714,241.372,215.195,235.905,210.795"/>
</g>
<g style="enable-background:new    ;">
	<path style="fill:#7C84E7;" d="M421.588,474.907l-58.386,33.93c8.44-4.905,13.674-15.333,13.715-30.155l58.386-33.93
		C435.261,459.573,430.027,470.002,421.588,474.907z"/>
	<g>
		<path style="fill:#989FED;" d="M90.411,37.104l58.386-33.93c8.549-4.968,20.388-4.267,33.454,3.277l-58.386,33.93
			C110.799,32.837,98.961,32.135,90.411,37.104z"/>
		<polygon style="fill:#989FED;" points="377.591,240.981 435.977,207.05 435.303,444.752 376.917,478.682 		"/>
	</g>
	<polygon style="fill:#A8ADEF;" points="123.866,40.381 182.253,6.45 389.115,125.883 330.729,159.813 	"/>
	<path style="fill:#C5C8F5;" d="M330.729,159.813l58.386-33.93c25.965,14.99,46.946,51.327,46.862,81.168l-58.386,33.93
		C377.676,211.14,356.693,174.804,330.729,159.813z"/>
</g>
<g>
</g>
<g>
</g>
<g>
</g>
<g>
</g>
<g>
</g>
<g>
</g>
<g>
</g>
<g>
</g>
<g>
</g>
<g>
</g>
<g>
</g>
<g>
</g>
<g>
</g>
<g>
</g>
<g>
</g>
</svg>
