<?xml version="1.0" encoding="iso-8859-1"?>
<!-- Generator: Adobe Illustrator 19.0.0, SVG Export Plug-In . SVG Version: 6.00 Build 0)  -->
<svg version="1.1" id="Layer_1" xmlns="http://www.w3.org/2000/svg" xmlns:xlink="http://www.w3.org/1999/xlink" x="0px" y="0px"
	 viewBox="0 0 512 512" style="enable-background:new 0 0 512 512;" xml:space="preserve">
<path style="fill:#EB358A;" d="M389.115,125.883L182.253,6.45c-13.066-7.544-24.905-8.245-33.454-3.277L90.411,37.104
	c0.027-0.016,0.057-0.028,0.085-0.045C82.008,41.943,76.74,52.388,76.697,67.26l-0.674,237.702
	c-0.085,29.835,20.898,66.178,46.862,81.168l206.863,119.432c13.441,7.759,25.573,8.262,34.17,2.818
	c-0.239,0.151-0.472,0.314-0.718,0.458l58.386-33.93c8.44-4.905,13.672-15.333,13.715-30.155l0.674-237.702
	C436.062,177.209,415.079,140.873,389.115,125.883z"/>
<g style="enable-background:new    ;">
	<path style="fill:#EF539D;" d="M421.588,474.907l-58.386,33.93c8.44-4.905,13.674-15.333,13.715-30.155l58.386-33.93
		C435.261,459.573,430.027,470.002,421.588,474.907z"/>
	<g>
		<path style="fill:#EF72AC;" d="M90.411,37.104l58.386-33.93c8.549-4.968,20.388-4.267,33.454,3.277l-58.386,33.93
			C110.799,32.837,98.961,32.135,90.411,37.104z"/>
		<polygon style="fill:#EF72AC;" points="377.591,240.981 435.977,207.05 435.303,444.752 376.917,478.682 		"/>
	</g>
	<polygon style="fill:#F58FBF;" points="123.866,40.381 182.253,6.45 389.115,125.883 330.729,159.813 	"/>
	<path style="fill:#F7AFD4;" d="M330.729,159.813l58.386-33.93c25.965,14.99,46.946,51.327,46.862,81.168l-58.386,33.93
		C377.676,211.14,356.693,174.804,330.729,159.813z"/>
</g>
<g style="enable-background:new    ;">
	<path style="fill:#FFFFFF;" d="M184.888,317.301c-0.545-1.257-0.358-1.934-0.356-2.662c0.121-45.248,0.25-90.492,0.377-135.729
		c0.016-5.477,1.657-6.389,6.46-3.616l75.839,43.785c4.696,2.712,6.652,6.469,5.726,11.282c-1.302,6.75-2.696,13.437-4.105,20.109
		c-0.694,3.252-2.655,3.839-5.971,1.933c-3.408-1.959-6.813-3.923-10.216-5.888c-3.403-1.965-6.806-3.932-10.211-5.897
		c-5.109-2.95-10.21-5.894-15.312-8.84c-6.154-3.545-9.303-1.768-9.33,5.243c-0.003,1.12-0.021,2.224-0.009,3.344
		c0.063,5.58,3.424,11.435,8.241,14.233c4.758,2.767,9.518,5.521,14.277,8.268c5.465,3.156,10.93,6.302,16.396,9.448
		c1.281,0.74,2.546,1.568,3.64,3.076c1.796,2.47,2.374,4.875,1.961,6.996c-1.433,7.436-2.907,14.839-4.439,22.184
		c-0.52,2.468-2.417,2.904-5.121,1.359c-1.696-0.97-3.395-1.947-5.094-2.927c-1.201-0.694-2.401-1.389-3.601-2.085
		c-3.693-2.132-7.385-4.264-11.071-6.368c-3.145-1.791-6.29-3.46-9.421-5.12c-2.085-1.105-3.866-1.258-5.294-0.256
		c-4.256,2.988-8.058,6.665-12.058,10.03c-6.908,5.814-13.745,11.726-20.611,17.605
		C185.409,316.972,185.195,317.085,184.888,317.301 M282.259,204.34l-103.061-59.503c-2.029-0.509-4.144-1.393-6.032-1.288
		c-5.888,0.31-8.58,4.653-8.601,12.182c-0.188,58.91-0.341,117.832-0.508,176.747c-0.002,0.768-0.026,1.516,0.029,2.318
		c0.364,5.001,2.096,9.759,6.189,13.916c1.143,1.158,2.393,2.118,3.656,2.847c3.056,1.765,6.189,2.179,8.065,0.774
		c8.384-6.256,16.697-12.601,25.047-18.918c6.999-5.294,14.006-10.569,20.969-15.917c1.107-0.856,2.321-0.748,4.013,0.229
		c0.023,0.014,0.046,0.027,0.07,0.041c5.005,2.934,10.01,5.844,15.014,8.733c4.187,2.417,8.372,4.819,12.557,7.21
		c8.104,4.613,13.054,3.278,15.569-4.114c0.525-1.54,0.929-3.207,1.289-4.906c5.499-26.781,11.006-53.566,16.462-80.379
		c1.229-6.022,2.756-11.823,2.028-19.244c-0.637-6.461-3.621-12.605-8.709-17.312C284.982,206.527,283.617,205.477,282.259,204.34"
		/>
</g>
<g>
</g>
<g>
</g>
<g>
</g>
<g>
</g>
<g>
</g>
<g>
</g>
<g>
</g>
<g>
</g>
<g>
</g>
<g>
</g>
<g>
</g>
<g>
</g>
<g>
</g>
<g>
</g>
<g>
</g>
</svg>
