<?xml version="1.0" encoding="iso-8859-1"?>
<!-- Generator: Adobe Illustrator 19.0.0, SVG Export Plug-In . SVG Version: 6.00 Build 0)  -->
<svg version="1.1" id="Layer_1" xmlns="http://www.w3.org/2000/svg" xmlns:xlink="http://www.w3.org/1999/xlink" x="0px" y="0px"
	 viewBox="0 0 512 512" style="enable-background:new 0 0 512 512;" xml:space="preserve">
<path style="fill:#9CDD03;" d="M389.115,125.883L182.253,6.45c-13.066-7.544-24.905-8.245-33.454-3.277L90.411,37.104
	c0.027-0.016,0.057-0.028,0.085-0.045C82.008,41.943,76.74,52.388,76.697,67.26l-0.674,237.702
	c-0.085,29.835,20.898,66.178,46.862,81.168l206.863,119.432c13.441,7.759,25.573,8.262,34.17,2.818
	c-0.239,0.151-0.472,0.314-0.718,0.458l58.386-33.93c8.44-4.905,13.672-15.333,13.715-30.155l0.674-237.702
	C436.062,177.209,415.079,140.873,389.115,125.883z"/>
<g style="enable-background:new    ;">
	<path style="fill:#B3FA08;" d="M421.588,474.907l-58.386,33.93c8.44-4.905,13.674-15.333,13.715-30.155l58.386-33.93
		C435.261,459.573,430.027,470.002,421.588,474.907z"/>
	<g>
		<path style="fill:#C3FB3A;" d="M90.411,37.104l58.386-33.93c8.549-4.968,20.388-4.267,33.454,3.277l-58.386,33.93
			C110.799,32.837,98.961,32.135,90.411,37.104z"/>
		<polygon style="fill:#C3FB3A;" points="377.591,240.981 435.977,207.05 435.303,444.752 376.917,478.682 		"/>
	</g>
	<polygon style="fill:#CCFB5D;" points="123.866,40.381 182.253,6.45 389.115,125.883 330.729,159.813 	"/>
	<path style="fill:#D8FC80;" d="M330.729,159.813l58.386-33.93c25.965,14.99,46.946,51.327,46.862,81.168l-58.386,33.93
		C377.676,211.14,356.693,174.804,330.729,159.813z"/>
</g>
<g style="enable-background:new    ;">
	<path style="fill:#3E3D43;" d="M188.125,144.976l-43.161,25.152l43.02,24.837L188.125,144.976 M254.716,287.897
		c-1.144-0.66-1.983-2.346-1.779-3.525c1.054-6.07,6.136-8.218,12.231-4.7c6.111,3.529,11.155,11.524,12.172,18.788
		c0.196,1.411-0.65,2.123-1.794,1.463L254.716,287.897 M220.467,163.648l-20.862-12.045c-1.419-0.819-2.583-0.165-2.588,1.474
		l-0.157,55.255c-0.004,1.574-1.118,2.217-2.488,1.427l-46.851-27.049c-1.427-0.824-2.6-0.166-2.58,1.498
		c0.016,3.17,0.117,8.715,0.532,15.834c0.734,12.703,1.442,22.241,8.391,48.775c6.949,26.525,15.618,33.231,25.946,41.74
		c5.703,4.704,15.484,11.774,23.758,16.551c6.709,3.873,12.428,6.239,14.17,4.607c2.952-2.774,5.843-11.26,7.059-15.199
		c0.112-0.353,0.422-0.389,0.732-0.21c0.276,0.159,0.551,0.487,0.688,0.914c1.459,4.628,4.843,14.096,9.802,20.11
		c6.767,8.201,21.311,16.128,28.227,21.716c6.908,5.573,8.378,12.101,8.378,12.101s1.602,18.989-2.86,26.396
		c-3.325,5.529-9.719,2.78-14.36,0.1c-1.574-0.909-2.947-1.81-3.93-2.377c-0.862-0.497-1.933-1.043-3.079-1.704
		c-4.006-2.312-8.915-6.048-8.892-14.134c0.02-6.98,5.859-4.748,9.687-2.538c0.666,0.385,1.27,0.768,1.773,1.102
		c0.043,0.028,0.085,0.054,0.126,0.078c0.782,0.451,1.449,0.167,1.539-0.683l1.149-10.261c0.112-0.935-0.529-2.208-1.397-2.795
		c-1.043-0.708-2.696-1.749-5.242-3.218c-5.543-3.201-23.804-12.897-23.86,7.247c-0.057,20.155,9.698,33.214,9.698,33.214
		c2.198,3.94,12.757,12.494,23.928,18.943c8.402,4.851,17.153,8.512,22.947,8.121c13.491-0.916,21.326-27.832,22.704-56.132
		c1.376-28.309-0.69-81.321-1.219-91.832c-0.522-10.496-3.256-22.692-10.083-30.036c-6.811-7.334-49.621-35.02-49.621-35.02
		s-0.723-4.664-6.06-15.394C230.242,169.504,220.467,163.648,220.467,163.648"/>
</g>
<g>
</g>
<g>
</g>
<g>
</g>
<g>
</g>
<g>
</g>
<g>
</g>
<g>
</g>
<g>
</g>
<g>
</g>
<g>
</g>
<g>
</g>
<g>
</g>
<g>
</g>
<g>
</g>
<g>
</g>
</svg>
