<?xml version="1.0" encoding="iso-8859-1"?>
<!-- Generator: Adobe Illustrator 19.0.0, SVG Export Plug-In . SVG Version: 6.00 Build 0)  -->
<svg version="1.1" id="Layer_1" xmlns="http://www.w3.org/2000/svg" xmlns:xlink="http://www.w3.org/1999/xlink" x="0px" y="0px"
	 viewBox="0 0 512 512" style="enable-background:new 0 0 512 512;" xml:space="preserve">
<path style="fill:#FF9911;" d="M389.115,125.883L182.253,6.45c-13.066-7.544-24.905-8.245-33.454-3.277L90.411,37.104
	c0.027-0.016,0.057-0.028,0.085-0.045C82.008,41.943,76.74,52.388,76.697,67.26l-0.674,237.702
	c-0.085,29.835,20.898,66.178,46.862,81.168l206.863,119.432c13.441,7.759,25.573,8.262,34.17,2.818
	c-0.239,0.151-0.472,0.314-0.718,0.458l58.386-33.93c8.44-4.905,13.672-15.333,13.715-30.155l0.674-237.702
	C436.062,177.209,415.079,140.873,389.115,125.883z"/>
<g style="enable-background:new    ;">
	<path style="fill:#FFA834;" d="M421.588,474.907l-58.386,33.93c8.44-4.905,13.674-15.333,13.715-30.155l58.386-33.93
		C435.261,459.573,430.027,470.002,421.588,474.907z"/>
	<g>
		<path style="fill:#FFB657;" d="M90.411,37.104l58.386-33.93c8.549-4.968,20.388-4.267,33.454,3.277l-58.386,33.93
			C110.799,32.837,98.961,32.135,90.411,37.104z"/>
		<polygon style="fill:#FFB657;" points="377.591,240.981 435.977,207.05 435.303,444.752 376.917,478.682 		"/>
	</g>
	<polygon style="fill:#FEC377;" points="123.866,40.381 182.253,6.45 389.115,125.883 330.729,159.813 	"/>
	<path style="fill:#FEDAAA;" d="M330.729,159.813l58.386-33.93c25.965,14.99,46.946,51.327,46.862,81.168l-58.386,33.93
		C377.676,211.14,356.693,174.804,330.729,159.813z"/>
</g>
<g style="enable-background:new    ;">
	<path style="fill:#FFFFFF;" d="M118.879,188.823l-0.122,43.246c24.579,14.217,47.787,38.72,65.119,68.774
		c17.332,30.003,26.874,62.294,26.831,90.653l0.015,0.086l37.799,21.824c0.079-41.233-14.397-86.962-37.872-127.657
		C187.15,245.04,154.735,209.55,118.879,188.823 M144.775,293.176c-7.228-4.173-13.729-4.567-18.516-1.874
		c-4.765,2.724-7.719,8.489-7.742,16.76c-0.023,8.271,2.888,17.398,7.621,25.597c4.741,8.195,11.238,15.287,18.465,19.46
		c7.243,4.182,13.751,4.606,18.559,1.916c4.765-2.724,7.697-8.468,7.734-16.731c0.008-8.28-2.881-17.393-7.637-25.631
		C158.507,304.463,152.019,297.358,144.775,293.176 M119.164,111.837l-0.122,43.23c87.844,50.794,159.012,174.191,158.785,275.258
		l37.732,21.785c0.155-62.462-21.778-131.79-57.347-193.424C222.613,197.026,173.488,143.219,119.164,111.837"/>
</g>
<g>
</g>
<g>
</g>
<g>
</g>
<g>
</g>
<g>
</g>
<g>
</g>
<g>
</g>
<g>
</g>
<g>
</g>
<g>
</g>
<g>
</g>
<g>
</g>
<g>
</g>
<g>
</g>
<g>
</g>
</svg>
