<?xml version="1.0" encoding="iso-8859-1"?>
<!-- Generator: Adobe Illustrator 19.0.0, SVG Export Plug-In . SVG Version: 6.00 Build 0)  -->
<svg version="1.1" id="Layer_1" xmlns="http://www.w3.org/2000/svg" xmlns:xlink="http://www.w3.org/1999/xlink" x="0px" y="0px"
	 viewBox="0 0 512 512" style="enable-background:new 0 0 512 512;" xml:space="preserve">
<path style="fill:#3D99E2;" d="M389.115,125.883L182.253,6.45c-13.066-7.544-24.905-8.245-33.454-3.277L90.411,37.104
	c0.027-0.016,0.057-0.028,0.085-0.045C82.008,41.943,76.74,52.388,76.697,67.26l-0.674,237.702
	c-0.085,29.835,20.898,66.178,46.862,81.168l206.863,119.432c13.441,7.759,25.573,8.262,34.17,2.818
	c-0.239,0.151-0.472,0.314-0.718,0.458l58.386-33.93c8.44-4.905,13.672-15.333,13.715-30.155l0.674-237.702
	C436.062,177.209,415.079,140.873,389.115,125.883z"/>
<g style="enable-background:new    ;">
	<path style="fill:#5AAAE7;" d="M421.588,474.907l-58.386,33.93c8.44-4.905,13.674-15.333,13.715-30.155l58.386-33.93
		C435.261,459.573,430.027,470.002,421.588,474.907z"/>
	<g>
		<path style="fill:#78BAEC;" d="M90.411,37.104l58.386-33.93c8.549-4.968,20.388-4.267,33.454,3.277l-58.386,33.93
			C110.799,32.837,98.961,32.135,90.411,37.104z"/>
		<polygon style="fill:#78BAEC;" points="377.591,240.981 435.977,207.05 435.303,444.752 376.917,478.682 		"/>
	</g>
	<polygon style="fill:#97C7EF;" points="123.866,40.381 182.253,6.45 389.115,125.883 330.729,159.813 	"/>
	<path style="fill:#B3D8F5;" d="M330.729,159.813l58.386-33.93c25.965,14.99,46.946,51.327,46.862,81.168l-58.386,33.93
		C377.676,211.14,356.693,174.804,330.729,159.813z"/>
</g>
<g style="enable-background:new    ;">
	<path style="fill:#FFFFFF;" d="M195.907,316.517c-0.952-0.55-1.903-1.73-2.227-3.231l-9.622-44.928
		c-1.1-5.126,0.54-8.978,3.999-9.429l90.221-11.74c0.285-0.037,0.572,0.042,0.842,0.197c1.268,0.732,2.191,3.191,1.044,3.745
		l-74.538,36.473c-2.621,1.283-4.314,4.058-4.805,7.837l-2.589,20.092C198.048,316.954,196.977,317.135,195.907,316.517
		 M318.318,228.801c-0.644-0.372-1.308-0.62-1.969-0.707l-189.319-25.345c-4.676-0.632-4.655,6.984,0.017,11.699l46.02,46.358
		l17.646,76.199c0.741,3.197,2.924,6.088,5.183,7.392c1.186,0.684,2.392,0.932,3.422,0.559l25.747-9.226
		c1.407-0.507,3.124-0.18,4.844,0.813c1.577,0.91,3.155,2.38,4.496,4.28l46.214,65.39c0.978,1.383,2.084,2.398,3.17,3.026
		c2.442,1.41,4.785,0.858,5.349-1.885l34.459-167.972C324.339,235.765,321.584,230.686,318.318,228.801"/>
</g>
<g>
</g>
<g>
</g>
<g>
</g>
<g>
</g>
<g>
</g>
<g>
</g>
<g>
</g>
<g>
</g>
<g>
</g>
<g>
</g>
<g>
</g>
<g>
</g>
<g>
</g>
<g>
</g>
<g>
</g>
</svg>
