<?xml version="1.0" encoding="iso-8859-1"?>
<!-- Generator: Adobe Illustrator 19.0.0, SVG Export Plug-In . SVG Version: 6.00 Build 0)  -->
<svg version="1.1" id="Layer_1" xmlns="http://www.w3.org/2000/svg" xmlns:xlink="http://www.w3.org/1999/xlink" x="0px" y="0px"
	 viewBox="0 0 512 512" style="enable-background:new 0 0 512 512;" xml:space="preserve">
<path style="fill:#7F33AD;" d="M389.115,125.883L182.253,6.45c-13.066-7.544-24.905-8.245-33.454-3.277L90.411,37.104
	c0.027-0.016,0.057-0.028,0.085-0.045C82.008,41.943,76.74,52.388,76.697,67.26l-0.674,237.702
	c-0.085,29.835,20.898,66.178,46.862,81.168l206.863,119.432c13.441,7.759,25.573,8.262,34.17,2.818
	c-0.239,0.151-0.472,0.314-0.718,0.458l58.386-33.93c8.44-4.905,13.672-15.333,13.715-30.155l0.674-237.702
	C436.062,177.209,415.079,140.873,389.115,125.883z"/>
<g style="enable-background:new    ;">
	<path style="fill:#943EC7;" d="M421.588,474.907l-58.386,33.93c8.44-4.905,13.674-15.333,13.715-30.155l58.386-33.93
		C435.261,459.573,430.027,470.002,421.588,474.907z"/>
	<g>
		<path style="fill:#A258CB;" d="M90.411,37.104l58.386-33.93c8.549-4.968,20.388-4.267,33.454,3.277l-58.386,33.93
			C110.799,32.837,98.961,32.135,90.411,37.104z"/>
		<polygon style="fill:#A258CB;" points="377.591,240.981 435.977,207.05 435.303,444.752 376.917,478.682 		"/>
	</g>
	<polygon style="fill:#B77FDA;" points="123.866,40.381 182.253,6.45 389.115,125.883 330.729,159.813 	"/>
	<path style="fill:#D5B4E9;" d="M330.729,159.813l58.386-33.93c25.965,14.99,46.946,51.327,46.862,81.168l-58.386,33.93
		C377.676,211.14,356.693,174.804,330.729,159.813z"/>
</g>
<g style="enable-background:new    ;">
	<path style="fill:#FFFFFF;" d="M168.943,148.568c-1.843-1.065-3.695-1.752-5.566-2.111c-20.55-3.92-29.105,10.567-21.025,38.235
		c11.627,39.843,27.327,77.457,47.57,112.52s44.997,67.508,73.744,97.604c5.06,5.299,9.928,9.254,14.483,11.885
		c13.413,7.744,24.15,4.022,29.351-10.611c1.255-3.521,1.348-7.62,0.027-12.545c-3.192-11.914-33.625-54.996-42.752-60.842
		c-0.263-0.168-0.522-0.326-0.777-0.473c-6.507-3.756-10.151-0.596-13.249,2.845c-3.691,4.097-7.972,4.096-12.678,1.379
		c-3.051-1.762-6.279-4.662-9.642-8.329c-8.609-9.383-16.132-19.385-22.335-30.139c-6.204-10.735-11.095-22.236-14.901-34.356
		c-3.79-12.046-3.708-20.844,5.231-22.65c4.732-0.956,9.499-2.57,9.143-10.831c-0.471-10.779-22.537-58.629-31.277-67.381
		C172.508,150.985,170.729,149.6,168.943,148.568"/>
	<path style="fill:#FFFFFF;" d="M238.566,187.362c-3.548-2.049-7.08-3.771-10.552-5.138c-3.206-1.266-5.396,0.927-4.906,4.897
		c0.449,3.581,2.935,7.391,5.772,9.029c0.306,0.177,0.615,0.328,0.928,0.451c2.871,1.134,5.789,2.558,8.718,4.249
		c1.643,0.949,3.289,1.981,4.934,3.094c14.13,9.561,27.55,24.612,37.8,42.365c9.944,17.225,16.037,35.58,17.163,51.708
		c0.38,5.507,0.171,10.69-0.626,15.396c-0.559,3.356,1.569,8.079,4.756,10.56c0.339,0.26,0.678,0.493,1.017,0.69
		c2.801,1.617,5.286,0.739,5.788-2.261c0.971-5.757,1.231-12.073,0.765-18.79c-1.359-19.431-8.647-41.458-20.53-62.05
		c-12.197-21.117-28.204-39.046-45.078-50.47C242.532,189.751,240.547,188.505,238.566,187.362"/>
	<path style="fill:#FFFFFF;" d="M238.515,209.854c-2.041-1.179-4.072-2.204-6.076-3.065c-3.222-1.387-5.5,0.68-5.106,4.605
		c0.37,3.628,2.9,7.573,5.802,9.249c0.249,0.143,0.499,0.27,0.752,0.378c1.516,0.655,3.053,1.432,4.599,2.323
		c1.073,0.62,2.149,1.295,3.224,2.026c9.546,6.46,18.662,16.711,25.67,28.85c6.702,11.609,10.799,23.85,11.537,34.486
		c0.202,2.867,0.146,5.612-0.153,8.135c-0.422,3.463,1.844,8.153,5.056,10.481c0.25,0.172,0.501,0.335,0.75,0.48
		c2.914,1.682,5.448,0.655,5.837-2.53c0.405-3.426,0.481-7.108,0.209-10.982c-0.963-13.925-6.262-29.843-14.903-44.819
		c-8.955-15.501-20.658-28.631-32.948-36.954C241.347,211.559,239.929,210.67,238.515,209.854"/>
	<path style="fill:#FFFFFF;" d="M238.341,232.264c-0.379-0.218-0.755-0.427-1.128-0.627c-3.237-1.712-5.765-0.021-5.647,3.773
		c0.123,3.705,2.722,8.053,5.855,9.861c0.079,0.046,0.158,0.09,0.238,0.132c0.243,0.129,0.49,0.264,0.738,0.408
		c0.516,0.298,1.04,0.627,1.562,0.985c9.78,6.623,18.696,21.553,19.465,32.598c0.062,0.928,0.068,1.814,0.017,2.638
		c-0.229,3.593,2.201,8.22,5.437,10.339c0.137,0.089,0.275,0.177,0.403,0.252c3.059,1.766,5.65,0.531,5.87-2.91
		c0.093-1.497,0.09-3.079-0.027-4.726c-1.259-18.044-14.479-40.458-30.111-51.044C240.121,233.338,239.225,232.775,238.341,232.264"
		/>
</g>
<g>
</g>
<g>
</g>
<g>
</g>
<g>
</g>
<g>
</g>
<g>
</g>
<g>
</g>
<g>
</g>
<g>
</g>
<g>
</g>
<g>
</g>
<g>
</g>
<g>
</g>
<g>
</g>
<g>
</g>
</svg>
