<?xml version="1.0" encoding="iso-8859-1"?>
<!-- Generator: Adobe Illustrator 19.0.0, SVG Export Plug-In . SVG Version: 6.00 Build 0)  -->
<svg version="1.1" id="Layer_1" xmlns="http://www.w3.org/2000/svg" xmlns:xlink="http://www.w3.org/1999/xlink" x="0px" y="0px"
	 viewBox="0 0 512 512" style="enable-background:new 0 0 512 512;" xml:space="preserve">
<path style="fill:#005ECF;" d="M389.115,125.883L182.253,6.45c-13.066-7.544-24.905-8.245-33.454-3.277L90.411,37.104
	c0.027-0.016,0.057-0.028,0.085-0.045C82.008,41.943,76.74,52.388,76.697,67.26l-0.674,237.702
	c-0.085,29.835,20.898,66.178,46.862,81.168l206.863,119.432c13.441,7.759,25.573,8.262,34.17,2.818
	c-0.239,0.151-0.472,0.314-0.718,0.458l58.386-33.93c8.44-4.905,13.672-15.333,13.715-30.155l0.674-237.702
	C436.062,177.209,415.079,140.873,389.115,125.883z"/>
<g style="enable-background:new    ;">
	<path style="fill:#016EF1;" d="M421.588,474.907l-58.386,33.93c8.44-4.905,13.674-15.333,13.715-30.155l58.386-33.93
		C435.261,459.573,430.027,470.002,421.588,474.907z"/>
	<g>
		<path style="fill:#2487FF;" d="M90.411,37.104l58.386-33.93c8.549-4.968,20.388-4.267,33.454,3.277l-58.386,33.93
			C110.799,32.837,98.961,32.135,90.411,37.104z"/>
		<polygon style="fill:#2487FF;" points="377.591,240.981 435.977,207.05 435.303,444.752 376.917,478.682 		"/>
	</g>
	<polygon style="fill:#59A4FF;" points="123.866,40.381 182.253,6.45 389.115,125.883 330.729,159.813 	"/>
	<path style="fill:#9BC9FD;" d="M330.729,159.813l58.386-33.93c25.965,14.99,46.946,51.327,46.862,81.168l-58.386,33.93
		C377.676,211.14,356.693,174.804,330.729,159.813z"/>
</g>
<g style="enable-background:new    ;">
	<path style="fill:#0065A1;" d="M133.019,330.603l0.412-145.365l39.317,22.7l-0.412,145.365L133.019,330.603 M235.069,263.816
		l0.523,0.302c5.274-8.403,18.139-13.047,37.266-2.004c39.811,22.985,47.079,57.336,46.968,96.479l-0.226,79.733l-39.293-22.686
		l0.201-70.689c0.048-16.865-0.159-38.703-20.32-50.343c-20.459-11.813-23.646,4.746-23.7,23.701l-0.204,71.913l-39.287-22.683
		l0.412-145.365l37.717,21.776L235.069,263.816 M153.155,176.722c-12.6-7.275-22.769-24.903-22.729-39.368
		c0.041-14.445,10.277-20.291,22.877-13.016c12.57,7.258,22.752,24.892,22.711,39.336
		C175.974,178.139,165.727,183.979,153.155,176.722"/>
	<g>
		<path style="fill:#FFFFFF;" d="M172.749,207.939l-39.317-22.7l-0.412,145.365l39.317,22.7L172.749,207.939 M153.305,124.338
			c-12.6-7.275-22.836-1.428-22.877,13.016c-0.041,14.466,10.128,32.093,22.729,39.368c12.57,7.258,22.818,1.418,22.859-13.048
			C176.055,149.23,165.875,131.595,153.305,124.338"/>
		<path style="fill:#FFFFFF;" d="M272.859,262.114c-19.126-11.042-31.993-6.399-37.266,2.004l-0.523-0.302l0.056-19.866
			l-37.717-21.776l-0.412,145.365l39.287,22.683l0.204-71.913c0.053-18.956,3.241-35.514,23.7-23.701
			c20.161,11.64,20.367,33.479,20.32,50.343l-0.201,70.689l39.293,22.686l0.226-79.733
			C319.938,319.451,312.67,285.1,272.859,262.114"/>
	</g>
</g>
<g>
</g>
<g>
</g>
<g>
</g>
<g>
</g>
<g>
</g>
<g>
</g>
<g>
</g>
<g>
</g>
<g>
</g>
<g>
</g>
<g>
</g>
<g>
</g>
<g>
</g>
<g>
</g>
<g>
</g>
</svg>
