<?xml version="1.0" encoding="iso-8859-1"?>
<!-- Generator: Adobe Illustrator 19.0.0, SVG Export Plug-In . SVG Version: 6.00 Build 0)  -->
<svg version="1.1" id="Layer_1" xmlns="http://www.w3.org/2000/svg" xmlns:xlink="http://www.w3.org/1999/xlink" x="0px" y="0px"
	 viewBox="0 0 512 512" style="enable-background:new 0 0 512 512;" xml:space="preserve">
<path style="fill:#7F33AD;" d="M389.115,125.883L182.253,6.45c-13.066-7.544-24.905-8.245-33.454-3.277L90.411,37.104
	c0.027-0.016,0.057-0.028,0.085-0.045C82.008,41.943,76.74,52.388,76.697,67.26l-0.674,237.702
	c-0.085,29.835,20.898,66.178,46.862,81.168l206.863,119.432c13.441,7.759,25.573,8.262,34.17,2.818
	c-0.239,0.151-0.472,0.314-0.718,0.458l58.386-33.93c8.44-4.905,13.672-15.333,13.715-30.155l0.674-237.702
	C436.062,177.209,415.079,140.873,389.115,125.883z"/>
<g style="enable-background:new    ;">
	<path style="fill:#943EC7;" d="M421.588,474.907l-58.386,33.93c8.44-4.905,13.674-15.333,13.715-30.155l58.386-33.93
		C435.261,459.573,430.027,470.002,421.588,474.907z"/>
	<g>
		<path style="fill:#A258CB;" d="M90.411,37.104l58.386-33.93c8.549-4.968,20.388-4.267,33.454,3.277l-58.386,33.93
			C110.799,32.837,98.961,32.135,90.411,37.104z"/>
		<polygon style="fill:#A258CB;" points="377.591,240.981 435.977,207.05 435.303,444.752 376.917,478.682 		"/>
	</g>
	<polygon style="fill:#B77FDA;" points="123.866,40.381 182.253,6.45 389.115,125.883 330.729,159.813 	"/>
	<path style="fill:#D5B4E9;" d="M330.729,159.813l58.386-33.93c25.965,14.99,46.946,51.327,46.862,81.168l-58.386,33.93
		C377.676,211.14,356.693,174.804,330.729,159.813z"/>
</g>
<g style="enable-background:new    ;">
	<path style="fill:#FFFFFF;" d="M220.714,364.464c-25.677-14.825-28.718-16.693-38.858-23.084
		c-9.373-5.898-14.463-10.643-17.849-14.116c-4.483-4.592-7.676-8.835-11.031-14.646c-3.355-5.811-5.429-10.7-7.162-16.866
		c-1.307-4.657-2.854-11.407-3.253-22.434c-0.426-11.918-0.515-15.469-0.432-44.974c0.084-29.505,0.191-32.95,0.684-44.337
		c0.46-10.524,2.04-15.469,3.369-18.604c1.762-4.148,3.857-6.629,7.234-8.554c3.377-1.925,6.584-2.472,11.078-1.882
		c3.395,0.443,8.495,1.581,17.871,6.507c10.143,5.32,13.183,6.962,38.861,21.787c25.684,14.828,28.724,16.696,38.864,23.087
		c9.373,5.898,14.464,10.643,17.849,14.116c4.483,4.592,7.676,8.835,11.031,14.646c3.355,5.811,5.429,10.7,7.162,16.866
		c1.301,4.654,2.854,11.407,3.253,22.427c0.426,11.918,0.515,15.476,0.432,44.982c-0.084,29.505-0.191,32.943-0.684,44.33
		c-0.46,10.532-2.046,15.473-3.369,18.611c-1.762,4.148-3.857,6.629-7.234,8.554c-3.377,1.925-6.584,2.472-11.078,1.882
		c-3.395-0.443-8.495-1.581-17.871-6.508C249.44,380.935,246.398,379.292,220.714,364.464 M221.285,163.354
		c-26.118-15.08-29.393-16.843-39.652-22.23c-10.24-5.376-17.236-7.538-23.362-8.344c-6.329-0.824-11.705-0.139-17.068,2.918
		c-5.363,3.056-8.667,7.324-11.147,13.168c-2.399,5.658-4.046,12.751-4.545,24.248c-0.506,11.514-0.627,15.213-0.712,45.224
		c-0.085,30.012,0.015,33.838,0.453,45.897c0.433,12.034,2.034,21.004,4.394,29.409c2.438,8.683,5.707,16.744,11.036,25.975
		c5.329,9.231,10.683,16.11,16.996,22.585c6.112,6.259,13.096,12.162,23.333,18.616c10.256,6.457,13.529,8.475,39.649,23.554
		c26.125,15.083,29.399,16.847,39.658,22.233c10.235,5.366,17.236,7.538,23.356,8.34c6.335,0.828,11.711,0.142,17.075-2.914
		c5.363-3.056,8.667-7.324,11.147-13.168c2.399-5.658,4.046-12.751,4.545-24.248c0.499-11.518,0.627-15.213,0.712-45.224
		c0.085-30.013-0.021-33.842-0.453-45.897c-0.433-12.034-2.034-21.003-4.394-29.409c-2.438-8.683-5.707-16.744-11.036-25.975
		c-5.329-9.23-10.683-16.11-17.003-22.589c-6.105-6.256-13.096-12.169-23.326-18.612
		C250.683,180.454,247.409,178.437,221.285,163.354"/>
	<path style="fill:#FFFFFF;" d="M220.867,310.702c-17.701-10.219-32.007-34.999-31.949-55.345
		c0.057-20.346,14.457-28.552,32.158-18.333c17.707,10.223,32.013,35.002,31.955,55.349
		C252.973,312.72,238.574,320.925,220.867,310.702 M221.132,217.115c-27.271-15.746-49.458-3.109-49.547,28.235
		c-0.089,31.344,21.954,69.517,49.225,85.262c27.277,15.749,49.458,3.109,49.547-28.235
		C270.447,271.033,248.41,232.863,221.132,217.115"/>
	<path style="fill:#FFFFFF;" d="M272.518,231.251c-6.376-3.681-11.562-0.726-11.583,6.601c-0.021,7.32,5.13,16.243,11.507,19.924
		c6.37,3.678,11.556,0.723,11.576-6.597C284.04,243.852,278.889,234.928,272.518,231.251"/>
</g>
<g>
</g>
<g>
</g>
<g>
</g>
<g>
</g>
<g>
</g>
<g>
</g>
<g>
</g>
<g>
</g>
<g>
</g>
<g>
</g>
<g>
</g>
<g>
</g>
<g>
</g>
<g>
</g>
<g>
</g>
</svg>
