<?xml version="1.0" encoding="iso-8859-1"?>
<!-- Generator: Adobe Illustrator 19.0.0, SVG Export Plug-In . SVG Version: 6.00 Build 0)  -->
<svg version="1.1" id="Layer_1" xmlns="http://www.w3.org/2000/svg" xmlns:xlink="http://www.w3.org/1999/xlink" x="0px" y="0px"
	 viewBox="0 0 512 512" style="enable-background:new 0 0 512 512;" xml:space="preserve">
<path style="fill:#40A559;" d="M389.115,125.883L182.253,6.45c-13.066-7.544-24.905-8.245-33.454-3.277L90.411,37.104
	c0.027-0.016,0.057-0.028,0.085-0.045C82.008,41.943,76.74,52.388,76.697,67.26l-0.674,237.702
	c-0.085,29.835,20.898,66.178,46.862,81.168l206.863,119.432c13.441,7.759,25.573,8.262,34.17,2.818
	c-0.239,0.151-0.472,0.314-0.718,0.458l58.386-33.93c8.44-4.905,13.672-15.333,13.715-30.155l0.674-237.702
	C436.062,177.209,415.079,140.873,389.115,125.883z"/>
<g style="enable-background:new    ;">
	<path style="fill:#4DBA69;" d="M421.588,474.907l-58.386,33.93c8.44-4.905,13.674-15.333,13.715-30.155l58.386-33.93
		C435.261,459.573,430.027,470.002,421.588,474.907z"/>
	<g>
		<path style="fill:#65C27C;" d="M90.411,37.104l58.386-33.93c8.549-4.968,20.388-4.267,33.454,3.277l-58.386,33.93
			C110.799,32.837,98.961,32.135,90.411,37.104z"/>
		<polygon style="fill:#65C27C;" points="377.591,240.981 435.977,207.05 435.303,444.752 376.917,478.682 		"/>
	</g>
	<polygon style="fill:#7BCC92;" points="123.866,40.381 182.253,6.45 389.115,125.883 330.729,159.813 	"/>
	<path style="fill:#94D6A8;" d="M330.729,159.813l58.386-33.93c25.965,14.99,46.946,51.327,46.862,81.168l-58.386,33.93
		C377.676,211.14,356.693,174.804,330.729,159.813z"/>
</g>
<g>
	<path style="fill:#FFFFFF;" d="M288.649,233.995c-17.569-30.455-40.987-55.175-65.961-69.605
		c-51.481-29.722-93.512-5.769-93.701,53.373c-0.053,18.921,4.194,39.86,12.314,60.852L127.9,326.576l49.544,13.648
		c13.623,16.429,28.968,29.808,44.594,38.829l0.042,0.024c51.46,29.711,93.492,5.757,93.691-53.38
		C315.852,297.025,306.229,264.455,288.649,233.995z M222.131,360.954l-0.031-0.018c-13.927-8.04-27.583-20.23-39.477-35.243
		l-2.823-3.562l-29.402-8.102l7.928-28.389l-1.835-4.447c-7.721-18.674-11.789-37.47-11.73-54.313
		c0.16-49.165,35.092-69.072,77.909-44.351c20.725,11.978,40.19,32.519,54.796,57.839c14.605,25.32,22.614,52.39,22.535,76.211
		C299.838,365.745,264.907,385.652,222.131,360.954z"/>
	<path style="fill:#FFFFFF;" d="M264.89,318.745c-2.328-2.692-13.78-15.804-15.913-17.929c-0.931-0.926-1.75-1.704-2.508-2.142
		c-0.986-0.569-1.866-0.56-2.75,0.455c-1.562,1.782-6.056,5.234-7.419,6.249c-0.778,0.573-1.559,0.634-2.518,0.079
		c-0.721-0.416-1.542-1.179-2.54-2.332c-2.328-2.692-9.843-9.869-18.729-24.147c-6.912-11.111-11.571-22.592-12.921-26.066
		c-1.36-3.469-0.134-4.216,1.031-4.88c1.061-0.592,2.341-1.786,3.516-2.681c1.176-0.884,1.562-1.782,2.345-3.119
		c0.783-1.349,0.403-3.131-0.184-4.817c-0.577-1.681-5.203-17.566-7.135-24.061c-1.581-5.294-3.184-6.431-4.494-7.188
		c-0.07-0.04-0.139-0.079-0.208-0.119c-0.187-0.108-0.363-0.209-0.529-0.317c-1.368-0.872-2.922-1.783-4.476-2.68
		c-1.555-0.898-4.085-1.691-6.237-0.25c-2.142,1.459-8.192,4.466-8.229,17.659s8.289,30.774,9.455,33.236
		c1.156,2.468,16.374,38.376,39.75,63.501c5.557,5.987,9.894,10.138,13.279,13.332c3.214,3.028,6.262,5.191,9.037,6.794
		c2.052,1.185,3.955,2.063,5.664,2.755c4.478,1.811,13.821,1.48,15.777-3.664c1.965-5.139,1.981-10.509,1.404-11.952
		C268.78,323.006,267.218,321.424,264.89,318.745z"/>
</g>
<g>
</g>
<g>
</g>
<g>
</g>
<g>
</g>
<g>
</g>
<g>
</g>
<g>
</g>
<g>
</g>
<g>
</g>
<g>
</g>
<g>
</g>
<g>
</g>
<g>
</g>
<g>
</g>
<g>
</g>
</svg>
