<?xml version="1.0" encoding="iso-8859-1"?>
<!-- Generator: Adobe Illustrator 19.0.0, SVG Export Plug-In . SVG Version: 6.00 Build 0)  -->
<svg version="1.1" id="Layer_1" xmlns="http://www.w3.org/2000/svg" xmlns:xlink="http://www.w3.org/1999/xlink" x="0px" y="0px"
	 viewBox="0 0 512 512" style="enable-background:new 0 0 512 512;" xml:space="preserve">
<path style="fill:#ACABB1;" d="M389.115,125.883L182.253,6.45c-13.066-7.544-24.905-8.245-33.454-3.277L90.411,37.104
	c0.027-0.016,0.057-0.028,0.085-0.045C82.008,41.943,76.74,52.388,76.697,67.26l-0.674,237.702
	c-0.085,29.835,20.898,66.178,46.862,81.168l206.863,119.432c13.441,7.759,25.573,8.262,34.17,2.818
	c-0.239,0.151-0.472,0.314-0.718,0.458l58.386-33.93c8.44-4.905,13.672-15.333,13.715-30.155l0.674-237.702
	C436.062,177.209,415.079,140.873,389.115,125.883z"/>
<g style="enable-background:new    ;">
	<path style="fill:#C6C5CB;" d="M421.588,474.907l-58.386,33.93c8.44-4.905,13.674-15.333,13.715-30.155l58.386-33.93
		C435.261,459.573,430.027,470.002,421.588,474.907z"/>
	<g>
		<path style="fill:#D8D8DA;" d="M90.411,37.104l58.386-33.93c8.549-4.968,20.388-4.267,33.454,3.277l-58.386,33.93
			C110.799,32.837,98.961,32.135,90.411,37.104z"/>
		<polygon style="fill:#D8D8DA;" points="377.591,240.981 435.977,207.05 435.303,444.752 376.917,478.682 		"/>
	</g>
	<g>
		<polygon style="fill:#E0E0E2;" points="123.866,40.381 182.253,6.45 389.115,125.883 330.729,159.813 		"/>
		<path style="fill:#E0E0E2;" d="M330.729,159.813l58.386-33.93c25.965,14.99,46.946,51.327,46.862,81.168l-58.386,33.93
			C377.676,211.14,356.693,174.804,330.729,159.813z"/>
	</g>
</g>
<g style="enable-background:new    ;">
	<path style="fill:#3D99E2;" d="M170.423,190.422c-24.711-14.267-44.811-3.001-44.891,25.161
		c-0.079,28.12,19.892,62.521,44.601,76.787c24.692,14.256,44.775,2.98,44.854-25.14
		C215.069,239.068,195.115,204.678,170.423,190.422"/>
	<path style="fill:#EB358A;" d="M272.62,249.425c-24.692-14.256-44.793-2.99-44.873,25.172
		c-0.079,28.12,19.892,62.521,44.584,76.777c24.711,14.267,44.811,3.001,44.891-25.119
		C317.302,298.092,297.33,263.692,272.62,249.425"/>
</g>
<g>
</g>
<g>
</g>
<g>
</g>
<g>
</g>
<g>
</g>
<g>
</g>
<g>
</g>
<g>
</g>
<g>
</g>
<g>
</g>
<g>
</g>
<g>
</g>
<g>
</g>
<g>
</g>
<g>
</g>
</svg>
