<?xml version="1.0" encoding="iso-8859-1"?>
<!-- Generator: Adobe Illustrator 19.0.0, SVG Export Plug-In . SVG Version: 6.00 Build 0)  -->
<svg version="1.1" id="Layer_1" xmlns="http://www.w3.org/2000/svg" xmlns:xlink="http://www.w3.org/1999/xlink" x="0px" y="0px"
	 viewBox="0 0 512 512" style="enable-background:new 0 0 512 512;" xml:space="preserve">
<path style="fill:#ACABB1;" d="M389.115,125.883L182.253,6.45c-13.066-7.544-24.905-8.245-33.454-3.277L90.411,37.104
	c0.027-0.016,0.057-0.028,0.085-0.045C82.008,41.943,76.74,52.388,76.697,67.26l-0.674,237.702
	c-0.085,29.835,20.898,66.178,46.862,81.168l206.863,119.432c13.441,7.759,25.573,8.262,34.17,2.818
	c-0.239,0.151-0.472,0.314-0.718,0.458l58.386-33.93c8.44-4.905,13.672-15.333,13.715-30.155l0.674-237.702
	C436.062,177.209,415.079,140.873,389.115,125.883z"/>
<g style="enable-background:new    ;">
	<path style="fill:#C6C5CB;" d="M421.588,474.907l-58.386,33.93c8.44-4.905,13.674-15.333,13.715-30.155l58.386-33.93
		C435.261,459.573,430.027,470.002,421.588,474.907z"/>
	<g>
		<path style="fill:#D8D8DA;" d="M90.411,37.104l58.386-33.93c8.549-4.968,20.388-4.267,33.454,3.277l-58.386,33.93
			C110.799,32.837,98.961,32.135,90.411,37.104z"/>
		<polygon style="fill:#D8D8DA;" points="377.591,240.981 435.977,207.05 435.303,444.752 376.917,478.682 		"/>
	</g>
	<g>
		<polygon style="fill:#E0E0E2;" points="123.866,40.381 182.253,6.45 389.115,125.883 330.729,159.813 		"/>
		<path style="fill:#E0E0E2;" d="M330.729,159.813l58.386-33.93c25.965,14.99,46.946,51.327,46.862,81.168l-58.386,33.93
			C377.676,211.14,356.693,174.804,330.729,159.813z"/>
	</g>
</g>
<g style="enable-background:new    ;">
	<path style="fill:#40A559;" d="M169.907,268.131l-32.817,10.277c16.015,46.103,49.085,90.475,87.39,112.59
		c26.453,15.272,48.666,17.998,64.924,10.156l-31.586-46.53c-8.794,1.685-20.029-0.798-33.21-8.408
		C199.083,331.478,177.538,299.199,169.907,268.131"/>
	<path style="fill:#CD2A01;" d="M225.118,165.799c-38.305-22.115-71.518-16.012-87.741,11.477l32.652,48.067
		c7.782-22.161,29.439-29.499,54.963-14.762c14.383,8.304,27.282,21.445,37.405,38.465l28.197-16.068
		C273.679,205.012,251.525,181.045,225.118,165.799"/>
	<path style="fill:#FFB657;" d="M137.376,177.276c-6.681,11.365-10.52,26.376-10.571,44.541c-0.051,18.172,3.69,37.56,10.285,56.59
		l32.817-10.277c-1.939-7.882-3.031-15.743-3.01-23.167c0.021-7.417,1.155-13.992,3.132-19.621L137.376,177.276"/>
	<path style="fill:#1D81CD;" d="M317.141,311.209l-92.284-53.28l-0.123,43.554l52.733,30.445
		c-2.31,12.762-9.249,20.699-19.649,22.694l31.586,46.53c18.585-8.906,29.355-31.596,29.453-65.886
		C318.878,327.28,318.276,319.242,317.141,311.209"/>
</g>
<g>
</g>
<g>
</g>
<g>
</g>
<g>
</g>
<g>
</g>
<g>
</g>
<g>
</g>
<g>
</g>
<g>
</g>
<g>
</g>
<g>
</g>
<g>
</g>
<g>
</g>
<g>
</g>
<g>
</g>
</svg>
