<svg xmlns="http://www.w3.org/2000/svg" enable-background="new 0 0 52 52" viewBox="0 0 52 52"><path fill="#b0b8cf" d="M50,32.3v1.2c0,0.2-0.1,0.3-0.3,0.5L26.9,47.1c-0.4,0.2-1.1,0.2-1.5,0l-14.2-8.3c-0.2-0.1-0.3-0.3-0.3-0.4v-1.2c0-0.2,0.1-0.3,0.3-0.5L34,23.6c0.4-0.3,1.1-0.3,1.5,0l14.2,8.2C49.9,31.9,50,32.1,50,32.3z"/><path fill="#b0b8cf" d="M10.9,37.2l0,1.2c0,0.2,0.1,0.3,0.3,0.4l14.2,8.2c0.4,0.2,1.1,0.2,1.5,0l22.7-13.1c0.2-0.1,0.3-0.3,0.3-0.4l0-1.2c0,0.2-0.1,0.3-0.3,0.4L26.9,45.8c-0.4,0.2-1.1,0.2-1.5,0l-14.2-8.2C11,37.5,10.9,37.3,10.9,37.2z"/><path fill="#e3e7f0" d="M11.2,36.7c-0.4,0.2-0.4,0.6,0,0.9l14.2,8.2c0.4,0.2,1.1,0.2,1.5,0l22.7-13.1c0.4-0.2,0.4-0.6,0-0.9l-14.2-8.2c-0.4-0.2-1.1-0.2-1.5,0L11.2,36.7z"/><path fill="#1d2943" d="M34.7,22.3c0,0.5-0.3,1.1-0.8,1.3L11.2,36.7c-0.2,0.1-0.4,0.1-0.6,0l-0.9-0.5c-0.1-0.1-0.2-0.3-0.2-0.5l0-16.4c0-0.5,0.3-1.1,0.8-1.3L32.9,4.9c0.2-0.1,0.4-0.1,0.5-0.1l1,0.6c0,0,0,0,0,0c0.2,0.1,0.3,0.2,0.3,0.5L34.7,22.3z"/><path fill="#1d2943" d="M34.4,5.4c-0.1-0.1-0.3-0.1-0.5,0.1L11.1,18.6c-0.4,0.2-0.8,0.8-0.8,1.3l0,16.4c0,0.2,0.1,0.4,0.2,0.5l-1-0.6c-0.1-0.1-0.2-0.3-0.2-0.5l0-16.4c0-0.5,0.3-1.1,0.8-1.3L32.9,4.9c0.2-0.1,0.4-0.1,0.5-0.1L34.4,5.4z"/><path fill="#4c5c75" d="M33.8,5.4c0.4-0.2,0.8,0,0.8,0.4l0,16.4c0,0.5-0.3,1.1-0.8,1.3L11.2,36.7c-0.4,0.2-0.8,0-0.8-0.4l0-16.4c0-0.5,0.3-1.1,0.8-1.3L33.8,5.4z"/><path fill="#fff" d="M34.1,22.3c0,0.3-0.2,0.7-0.5,0.8L11.6,35.9c-0.3,0.2-0.6,0-0.6-0.4l0-15.6c0-0.3,0.2-0.7,0.5-0.8L33.5,6.3c0.3-0.2,0.6,0,0.6,0.4L34.1,22.3z"/><path fill="#b0b8cf" d="M32.3,41.3L28.3,39c-0.4-0.3-0.4-0.8,0-1l5.7-3.3c0.3-0.2,0.9-0.2,1.2,0l3.9,2.3c0.4,0.3,0.4,0.8,0,1l-5.7,3.3C33.1,41.5,32.6,41.5,32.3,41.3z M34.1,34.9l-5.7,3.3c-0.3,0.2-0.3,0.5,0,0.7l3.9,2.3c0.3,0.2,0.8,0.2,1,0l5.7-3.3c0.3-0.2,0.3-0.5,0-0.7l-3.9-2.3C34.9,34.7,34.4,34.7,34.1,34.9z"/><polygon fill="#c9cee2" points="43.6 28.3 19.3 42.3 11.5 37.7 35.7 23.7"/><polygon fill="#4c5c75" points="14.9 36.6 15.4 36.9 16.4 36.3 15.9 36"/><polygon fill="#4c5c75" points="16.4 35.7 16.9 36 17.9 35.4 17.4 35.1"/><polygon fill="#4c5c75" points="18.8 40.6 19.8 41.2 20.8 40.6 19.8 40.1"/><polygon fill="#4c5c75" points="19 35.5 20 36 21 35.5 20 34.9"/><polygon fill="#4c5c75" points="20.5 36.3 21.4 36.9 22.4 36.3 21.4 35.7"/><polygon fill="#4c5c75" points="17.5 36.3 18.5 36.9 19.4 36.3 18.5 35.8"/><polygon fill="#4c5c75" points="18.9 37.2 19.9 37.7 20.9 37.2 19.9 36.6"/><polygon fill="#4c5c75" points="16 37.2 16.9 37.8 17.9 37.2 17 36.6"/><polygon fill="#4c5c75" points="14.4 38.1 15.4 38.7 16.4 38.1 15.4 37.5"/><polygon fill="#4c5c75" points="15.9 38.9 16.9 39.5 19.4 38.1 18.4 37.5"/><polygon fill="#4c5c75" points="17.4 39.8 18.3 40.3 22.4 38 21.4 37.5"/><polygon fill="#4c5c75" points="13.4 37.5 13.9 37.8 14.9 37.2 14.4 36.9"/><polygon fill="#4c5c75" points="18 34.8 18.4 35.1 19.4 34.6 18.9 34.3"/><polygon fill="#4c5c75" points="19.5 34 20 34.2 20.9 33.7 20.5 33.4"/><polygon fill="#4c5c75" points="21 33.1 21.5 33.4 22.5 32.8 22 32.5"/><polygon fill="#4c5c75" points="22.5 32.2 23 32.5 24 31.9 23.5 31.6"/><polygon fill="#4c5c75" points="22 35.4 23 36 23.9 35.4 23 34.9"/><polygon fill="#4c5c75" points="23.5 34.5 24.5 35.1 25.5 34.5 24.5 34"/><polygon fill="#4c5c75" points="25 35.4 25.9 36 26.9 35.4 25.9 34.8"/><polygon fill="#4c5c75" points="32.5 32.7 33.5 33.3 34.5 32.7 33.5 32.2"/><polygon fill="#4c5c75" points="23.4 36.3 24.4 36.8 25.4 36.3 24.4 35.7"/><polygon fill="#4c5c75" points="28.1 30.2 29.1 30.8 30.1 30.2 29.1 29.6"/><polygon fill="#4c5c75" points="28.6 28.7 29.1 29 30.1 28.4 29.6 28.1"/><polygon fill="#4c5c75" points="29.7 29.3 30.6 29.9 31.6 29.3 30.6 28.7"/><polygon fill="#4c5c75" points="34 31.8 35 32.4 36 31.8 35 31.3"/><polygon fill="#4c5c75" points="29.6 31 30.6 31.6 33.1 30.2 32.1 29.6"/><polygon fill="#4c5c75" points="28.1 31.9 29 32.5 30 31.9 29.1 31.3"/><polygon fill="#4c5c75" points="29.5 32.8 30.5 33.3 34.5 31 33.5 30.4"/><polygon fill="#4c5c75" points="26.5 32.8 27.5 33.4 28.5 32.8 27.5 32.2"/><polygon fill="#4c5c75" points="23.6 32.8 24.5 33.4 25.5 32.8 24.6 32.3"/><polygon fill="#4c5c75" points="28 33.6 29 34.2 30 33.6 29 33.1"/><polygon fill="#4c5c75" points="25 33.7 26 34.2 27 33.7 26 33.1"/><polygon fill="#4c5c75" points="22.1 33.7 23 34.3 24 33.7 23 33.1"/><polygon fill="#4c5c75" points="26.5 34.5 27.5 35.1 28.4 34.5 27.5 33.9"/><polygon fill="#4c5c75" points="20.5 34.6 21.5 35.1 22.5 34.6 21.5 34"/><polygon fill="#4c5c75" points="21.9 38.9 22.8 39.4 32.9 33.6 32 33"/><polygon fill="#4c5c75" points="26.6 31.1 27.6 31.6 28.6 31.1 27.6 30.5"/><polygon fill="#4c5c75" points="25.1 31.9 26.1 32.5 27 31.9 26.1 31.4"/><polygon fill="#4c5c75" points="24 31.3 24.5 31.6 25.5 31 25 30.8"/><polygon fill="#4c5c75" points="25.6 30.4 26 30.7 27 30.2 26.5 29.9"/><polygon fill="#4c5c75" points="27.1 29.6 27.6 29.9 28.5 29.3 28.1 29"/><polygon fill="#4c5c75" points="21.9 37.1 22.9 37.7 23.9 37.1 22.9 36.6"/><polygon fill="#4c5c75" points="32.7 26.3 33.6 26.9 34.6 26.3 33.7 25.8"/><polygon fill="#4c5c75" points="34.2 25.4 35.1 26 36.1 25.4 35.2 24.9"/><polygon fill="#4c5c75" points="35.6 26.2 36.5 26.8 37.5 26.2 36.6 25.7"/><polygon fill="#4c5c75" points="34.1 27.1 35 27.7 36 27.1 35 26.6"/><polygon fill="#4c5c75" points="32.5 28 33.5 28.5 34.4 28 33.5 27.4"/><polygon fill="#4c5c75" points="36.9 27 37.9 27.6 38.8 27 37.9 26.5"/><polygon fill="#4c5c75" points="35.4 27.9 36.3 28.5 37.3 27.9 36.4 27.4"/><polygon fill="#4c5c75" points="33.9 28.8 34.8 29.3 35.8 28.8 34.9 28.2"/><polygon fill="#4c5c75" points="31.2 27.2 32.1 27.7 33.1 27.2 32.2 26.6"/><polygon fill="#4c5c75" points="36.7 30.4 37.6 30.9 38.6 30.4 37.6 29.8"/><polygon fill="#4c5c75" points="35.3 29.6 36.2 30.1 37.2 29.6 36.3 29"/><polygon fill="#4c5c75" points="38.3 27.8 39.2 28.4 40.2 27.8 39.3 27.3"/><polygon fill="#4c5c75" points="39.7 28.6 40.6 29.2 41.6 28.6 40.7 28.1"/><polygon fill="#4c5c75" points="36.8 28.7 37.7 29.3 38.7 28.7 37.8 28.2"/><polygon fill="#4c5c75" points="38.2 29.5 39.1 30 40.1 29.5 39.2 28.9"/><polygon fill="#4c5c75" points="20.3 39.7 21.3 40.3 22.3 39.7 21.3 39.2"/><g><path fill="#b0b8cf" d="M35.8,39.3c-0.6,0.3-1.5,0.3-2,0c-0.6-0.3-0.6-0.8,0-1.2c0.6-0.3,1.5-0.3,2,0C36.3,38.5,36.3,39,35.8,39.3z"/></g><g><path fill="#edeef2" d="M20.8 15c.6-.1.6-.2.6 0 .2 0 .4-.4.7-.3-.2.3-.4.6-.6.9.2 0 .3 0 .1.3 0 0 0 .1 0 .2 0 .1-.1.3-.2.4-.1.1-.1.2 0 .2.1.3-.2.5-.6.9 0 0-.1.1-.1.2-.1.3-.4.4-.5.7-.1.4-.1.6-.3.7-.1 0-.3.1-.4 0-.1-.1-.2-.2-.3-.4-.1-.1 0-.3.1-.5-.2.1-.3-.1-.3-.3 0-.3-.2-.4-.5-.3 0 0 0 0-.1 0-.1 0-.1.1-.2.1-.1.1-.2.1-.3 0-.1 0-.1-.1-.2-.2.1-.1.2-.2.2-.2.1-.1.2-.2.3-.3-.1 0-.1 0-.2 0 0 0-.1.1-.1.1-.1.1-.2.2-.3.4 0 .1-.1.2-.2.3-.1.1-.1.2-.1.3l0 .1c.1.2 0 .3-.1.3-.1 0-.1 0-.1.1 0 0-.1.1-.1.1 0 0 0 0 .1 0 .1-.1.1-.1.2-.1.1-.1.3-.1.4 0 .1.1.3 0 .4 0 .1 0 .1 0 .1.1 0 .2.2.2.3.2.1 0 .1.1 0 .2-.1.1-.2.3-.2.4 0 .1-.1.2-.1.2 0 0 0 0-.1 0 0 0-.1 0-.1 0-.2 0-.3-.1-.5 0 0 0 0 0-.1.1 0 0 0 0-.1 0 .1-.2.3-.4.4-.6-.1 0-.1 0-.1 0-.1.1-.1.1-.1.2 0 0 0-.1 0-.1 0-.1 0-.2-.1-.1-.1.1-.2.1-.1.2 0 .2-.1.3-.2.5.1 0 .2 0 .3.1-.1.1-.2.2-.3.2-.1 0-.1 0-.2.1 0 0-.1 0-.1.1-.1.2-.2.4-.3.6 0 .1.1.2.2.2.2 0 .4-.1.6-.1 0 0 0 .1.1.1 0 .1.1.1.1.2l0 0c0 0 0-.1 0-.1 0-.1 0-.2.1-.3.1-.1.1-.2 0-.3-.1 0-.1-.1 0-.2 0-.1 0-.2 0-.3 0-.1 0-.1.1-.2 0 0 .1 0 .1-.1.2-.1.3-.1.5-.1 0 0 0 .1 0 .1 0 0 .1.1.1.1 0-.1.1-.1.1-.2 0-.1.1-.2.1-.2 0 0 .1 0 .1.1 0 .1.1.2.2.3 0 0 .1.1.1.1.2 0 .3.1.2.4 0 0 0 .1.1.1.1 0 .1.1.1.2-.1 0-.3.1-.4.1 0-.1.1-.2.1-.4-.1.1-.2.2-.3.3 0 .1-.1.2-.1.2 0 0 0 0 .1 0 0 0 .1-.1.1-.1l.1-.1c.1 0 .1.1 0 .2-.1.1-.2.2-.3.3-.1 0-.1 0-.2 0-.1.1-.2.2-.1.3-.3.2-.4.5-.4.8 0 .1-.2.4-.3.5-.2.2 0 .2 0 .5 0 0 0 .1-.1.2 0 0-.1 0-.1 0-.1-.1 0-.3-.2-.2-.1.1-.2 0-.2.2 0 .1-.2.1-.3.2-.3.2-.3 1 0 .9.1 0 .1-.1.2-.2.1-.2.4-.4.3-.2 0 .1-.1.2-.1.4.2 0 .4-.3.3.2 0 .2.1.1.2.1.2-.1.3-.3.5-.5.2-.2.3-.1.6-.2.1-.1.2-.2.3-.1.1.1.2.2.4.1.2-.1.3.1.3.2 0 0 0 .1.1.1.1 0 .2 0 .4 0 .2 0 .3-.1.5-.1.1 0 .1.2 0 .4-.1.3-.2.5-.2.8 0 .1-.1.3-.1.5-.1.1-.2.3-.3.4-.1.1-.2.2-.2.4-.1.3-.2.6-.5.9 0 0-.1.1-.1.2-.1.3-.2.3-.4.6-.1.2-.2.5-.3.7.3.1-.4.6 0 .8l-.5.3c-.2-.3-.1-.6 0-1 .1-.7.2-1.4.3-2.1 0-.2 0-.3-.1-.3-.2 0-.3-.2-.4-.3-.1-.1-.2-.2-.2-.3 0-.2 0-.4.2-.7.1-.2.1-.3 0-.4-.2.2-.4.2-.5.1-.1-.1-.5-.1-.6-.1 0 0 0 0-.1 0-.2.1-.4.1-.5.1-.1 0-.1-.1-.1-.2 0-.1-.1-.1-.1-.2 0 .1-.1.2-.1.3-.1-.1-.1-.1-.2-.2l0 0c-.2 0-.2-.2-.3-.3 0 0-.1-.1-.1-.1-.3-.1-.4-.4-.4-.8 0-.2 0-.4-.2-.4-.1 0-.1-.1-.1-.2 0-.1-.1-.1-.2-.1l0 0c-.2-.2-.3-.4-.6-.3-.5.1-.4.3-1.4 1.4 0 0 0 0-.1.1 0 0-.1 0-.1 0l0 0c.2-.2.3-.4.5-.6l0-.1c-.1 0-.1.1-.2.1-.1 0-.2 0-.3 0 .1-.4.1-.4.2-.5-.1 0-.2 0-.3 0l0-.1c.1-.1.2-.2.3-.3-.1 0-.1 0-.2 0 0 0 0-.1 0-.1.2-.3.4-.5.7-.8.1-.1 1.2-.4 1.3-.5 0 0 0 0 0 0 .1-.1.2-.2.3-.3.1-.1.2-.2.3-.2.2-.1.3-.1.5-.2.1 0 .1 0 .2-.1-.1-.1-.1-.2-.1-.2-.1.1-.1.2-.2.2-.1.1-.2 0-.3 0 0-.1.1-.3.1-.5.1 0 .1-.1.2-.1.1-.1.3-.1.4-.1.1 0 .2 0 .4-.1.1 0 .1-.1.2-.2.1-.1.1-.1.2-.1 0 .1 0 .2.1.3 0 0 .1.1.1.1.2 0 .2 0 0 .3 0 0 0 0-.1.1l.2-.1 0 0c.1-.2.1-.3.2-.4-.1 0-.3 0-.4 0l0-.1c.1-.1.1-.2.2-.3 0 0 .1 0 .1-.1.1 0 .1-.1.2-.1 0 0 0-.1 0-.1-.1 0-.1 0-.2.1-.2.1-.3.1-.4 0 .2-.2.3-.3.5-.4 0 0 0 0 .1 0 .1 0 .1-.1.2-.1 0 0 .1 0 .2-.1 0 0 0 0 0 0 0 0 .1-.1.1-.2 0 0-.1 0-.1 0-.2.1-.3 0-.4-.1-.1 0 .1-.3.2-.4.2-.2.5-.4.7-.6.2-.2.4-.3.6-.4.4-.2.7-.4 1-.4.1 0 .2-.1.3-.2.2-.1.2-.1.3-.2l0 0c.2 0 .3-.3.5-.4.3-.1.3-.2.5-.4-.1 0-.1 0-.2.1L20.8 15zM29 19.5c0 .1 0 .2 0 .3-.1 0-.1 0-.2-.1 0 .1 0 .1 0 .2l0 0c0-.1 0-.2 0-.3L29 19.5zM28.9 18c.2-.1.2 0 .1.2.1 0 .3 0 .2.3-.1-.2-.1-.2-.3-.1C28.8 18.3 28.8 18.1 28.9 18 28.8 18 28.9 18 28.9 18zM26.2 20.3c0 .1 0 .1 0 .2 0 0-.1 0-.1.1L26.2 20.3C26.2 20.3 26.2 20.3 26.2 20.3zM28.6 19c0 0 .1 0 .1.1-.1.2-.1.3 0 .3-.1.1-.1.4-.2.5-.4.2-.4.2-.5-.1 0 0 .1-.1.1-.2C28.4 19.4 28.5 19.2 28.6 19z"/><path fill="#edeef2" d="M27.7,12.1L27.7,12.1c0.2-0.1,0.4-0.1,0.6-0.1c0.2,0,0.2,0,0.1,0.3c-0.1,0.1,0,0.1,0.1,0.1c0.1-0.1,0.3-0.2,0.4-0.1c0,0,0,0,0,0c0,0,0.1,0,0.1-0.1c0.1-0.1,0.2-0.2,0.3-0.3c0.1-0.1,0.2,0,0.3,0.2c0,0,0,0,0.1,0c0-0.1,0-0.1,0.1-0.2c0.1,0,0.2,0,0.3-0.1c0.1-0.1,0.2-0.2,0.3-0.6c0.1,0,0.1,0,0.2,0c0,0,0.1,0,0.1,0c0.2,0,0.3-0.1,0.5,0c0.1,0.1,0.5-0.4,0.6-0.2l0.1,0c0.2-0.1,0.4-0.3,0.6-0.4c0.6-0.3,0.8-0.2,1-0.2c0.1,0,0.2,0,0.3,0l0,0.2l-0.1,0.1c0,0.1-0.1,0.2-0.1,0.2c-0.2,0.1-0.2-0.2-0.5,0.3c0,0,0,0.1,0,0.1c0,0,0,0.1-0.1,0.2c-0.2,0.1-0.4,0.4-0.6,0.6c-0.1,0-0.1,0-0.2,0c-0.3,0.2-0.2,0.5-0.4,0.8c-0.1,0.1-0.3,0.5-0.4,0.7c-0.1-0.4-0.2-0.7,0.1-1c0.2-0.2,0.1-0.6-0.1-0.2c0,0.1-0.1,0.2-0.1,0.3c-0.1,0-0.2,0.1-0.3,0.1c-0.1,0-0.1,0-0.2,0.1c-0.3,0.2-0.5,0.5-0.7,0.9c0.1,0,0.2,0,0.4-0.1c0,0.1,0.1,0.3,0.1,0.4c-0.2,0.1-0.1,0.2-0.1,0.3c0,0-0.1,0.1-0.1,0.1c0.1,0.1,0.1,0.1,0.2,0.1c-0.1,0.1-0.1,0.2-0.2,0.2l0,0c0,0.2,0,0.4-0.1,0.6c0,0.1-0.1,0.2-0.1,0.3c-0.1,0.1-0.2,0.2-0.3,0.3c-0.1,0.1-0.1,0.2-0.2,0.3c0,0-0.1-0.1-0.1-0.2c0.1-0.1,0.3-0.3,0.4-0.4c0.1-0.1,0.2-0.2,0.3-0.4c0.1-0.1,0-0.2,0.1-0.3c0-0.1,0-0.1,0-0.2c0.1-0.2,0.2-0.7,0.1-0.9c0,0.4-0.2,0.7-0.4,1c0,0.1-0.1,0.2-0.1,0.2c-0.2,0.1-0.3,0.3-0.4,0.5c0,0,0.1,0.1,0.1,0.2c0,0.1,0,0.2-0.1,0.3c-0.2,0.2-0.2,0.2-0.2,0c0-0.1-0.1-0.1-0.1-0.2c0,0-0.1,0.1-0.1,0.1c0.1,0.1,0.1,0.1,0,0.2c-0.1,0.1-0.1,0.2,0,0.2c0,0.1,0.1,0.2,0.1,0.3c-0.1,0.3-0.2,0.6-0.5,0.9c-0.1,0.1-0.3,0.3-0.4,0.5c0,0-0.1,0-0.1,0.1c0-0.1,0-0.1,0-0.2c-0.1,0.1-0.2,0.1-0.1,0.3c0,0,0,0,0.1,0c0.3,0.2,0,0.6-0.2,0.8c-0.1-0.1-0.2-0.1-0.2-0.2c-0.3,0.5,0.3,0.2,0.2,0.8l0,0.1c0.1,0.1,0.1,0.1,0.1,0.3c0,0,0.2,0,0.3,0c0,0,0.1-0.1,0.1-0.1c0.2-0.1,0.4-0.1,0.5-0.1c-0.1,0.1-0.1,0.1-0.2,0.1c-0.2,0.1-0.4,0.2-0.7,0.3c-0.3,0.1-0.6-0.4-0.8-0.6c0.1,0,0.2,0,0.3,0c-0.2-0.5-0.2-0.3-0.2-0.9c-0.2,0.2-0.2,0.2-0.3,0c0-0.1-0.1-0.1-0.2-0.2c-0.2,0.1-0.3,0.3-0.4,0.5c-0.2,0.2-0.3,0.5-0.3,0.7c0,0,0,0.1-0.1,0.2c0,0.1-0.1,0.2-0.2,0.2c0,0-0.1-0.1-0.1-0.1c-0.1-0.2-0.2-0.4-0.3-0.6c-0.1,0-0.2-0.1-0.2-0.1c-0.1,0-0.1-0.1-0.3,0c-0.1,0-0.1,0.1-0.1,0.1c-0.1,0.1-0.2,0.1-0.3,0.2c0.2,0.1,0.2,0.1,0.1,0.4c-0.2,0.4-0.5,0.7-0.8,1c-0.1,0.1-0.1,0.1-0.2,0.2l0,0c0.1-0.1,0.2-0.2,0.4-0.3c0,0,0,0,0.1,0c0,0,0,0,0.1,0c0,0.1,0,0.1,0,0.2c-0.1,0.3-0.2,0.6-0.4,0.9c-0.1,0.2-0.2,0.3-0.3,0.5c-0.1,0.2-0.1,0.4,0,0.5c0,0.1,0.1,0.2,0.1,0.4c0,0.2-0.3,0.5-0.3,0.6c-0.1,0.3,0.1,0.3-0.2,0.6c-0.1,0.1-0.1,0.5-0.4,1c-0.2,0.2-0.4,0.3-0.5,0.4c0,0-0.1-0.1-0.1-0.1c-0.1-0.1-0.1-0.2-0.1-0.3c0-0.1-0.2-0.6-0.2-0.6c-0.3-0.3,0.3-0.8-0.1-1.2c-0.1-0.1-0.2-0.2-0.1-0.4c0,0,0-0.1,0-0.1c-0.1,0-0.2,0-0.2,0c-0.3,0-0.4,0.3-0.7,0.5c-0.2,0.1-0.3,0.1-0.5,0c-0.1-0.1-0.4-0.1-0.3-0.4c0-0.4-0.1-0.8,0.2-1.3c0-0.1,0.1-0.1,0.1-0.1c0.2-0.4,0.2-0.4,0.3-0.6c0-0.1,0.1-0.1,0.1-0.2c-0.2,0-0.2,0-0.2-0.3c0,0,0-0.1,0-0.1c0-0.1,0-0.2,0.1-0.3c0.1,0,0.1-0.1,0.1-0.1c0.1,0,0.1-0.1,0.2-0.1c0-0.2,0-0.2-0.1-0.3c0,0-0.1,0-0.1,0c0.1-0.1,0.2-0.2,0.2-0.3c-0.1,0-0.1,0.1-0.2,0.1c0-0.2,0.1-0.3,0.1-0.5c-0.2,0.1-0.1,0.4-0.4,0.5l0-0.3c0.1-0.1,0.2-0.2,0.3-0.3c0,0,0-0.1,0-0.1c0-0.1,0.1-0.2,0.2-0.3c0,0,0.1,0,0.1,0c-0.1,0.3,0.1,0.2,0.2,0.4c0,0.1,0.1,0.1,0.1,0.1c0.4-0.6,0.3-0.4,0.4-0.8c-0.3,0-0.3-0.4-0.1-0.6c0.3-0.3,0.4-0.7,0.6-1c0-0.1,0.1-0.2,0.1-0.2c0.2-0.3,0.6-0.8,0.9-0.8c0.8,0,0.7,0,0.9,0.1l0-0.3c0.1,0,0.2-0.1,0.2-0.1c0.2,0.1,0.4-0.4,0.6-0.4c0.1,0,0.2-0.1,0.2-0.2c0,0,0-0.1,0.1-0.2c0.1,0,0.3-0.1,0.4-0.2c0-0.1,0-0.1,0.1-0.3c0,0,0-0.1,0.1-0.1c0.1-0.2,0.1-0.3,0.2-0.3c0.1,0,0.1,0,0.2,0c0-0.1,0-0.1,0.1-0.2c0,0,0.1,0.1,0.1,0.1c0.1,0,0.1-0.1,0.2-0.2c0-0.2,0.1-0.2,0.2-0.3c0,0,0,0,0.1,0c0.1,0,0.1-0.1,0.1-0.2c0,0,0.1-0.1,0.1-0.2c0.2-0.2,0.4-0.4,0.6-0.5c0,0,0,0,0.1,0c0.1-0.1,0.2-0.2,0.3-0.3C27.6,12.3,27.6,12.2,27.7,12.1z"/><path fill="#edeef2" d="M29 18.5c0 0 .1 0 .1 0l0 0 0 0 0 0c0 0 .1 0 .1.1 0 0 0 .1-.1.2-.2 0-.1 0-.2 0C29 18.7 29 18.6 29 18.5zM30.1 11.1C30.1 11.1 30.1 11.1 30.1 11.1c.1-.1.3-.1.4-.2l0 .1c0 .1-.1.1-.1.2-.1.1-.2.1-.3.2 0 0 0 0 0 0 0 0-.1 0-.1 0l0-.1C30 11.1 30.1 11.1 30.1 11.1z"/><polygon fill="#edeef2" points="16.2 18.7 16.2 18.7 16.2 18.7 16.2 18.7"/><path fill="#edeef2" d="M16.3 18.6c.1 0 .1 0 .2.1 0 0-.1.1-.1.1-.1.1-.2 0-.3 0C16.2 18.6 16.3 18.6 16.3 18.6zM15 19.5c0 0 .1 0 .1.1 0 .1.2 0 .3 0 0-.1.1-.2.1-.2.1 0 .2 0 .2 0 0 0 .1 0 0 0 0 0 0 .1-.1.1-.2.1-.3.3-.5.4 0 0 0 0 0 0-.1 0-.2.1-.2 0-.1 0-.2 0-.3.1 0 0-.1 0-.2 0C14.7 19.9 14.8 19.7 15 19.5 14.9 19.6 15 19.5 15 19.5z"/><path fill="#edeef2" d="M15.8 18.7c.2-.1.3-.1.4 0 0 .1 0 .1-.1.2 0 0 0 0-.1 0 0 0 0 0-.1 0 0 0 0 0 0 0 0 0-.1 0-.1 0-.1 0-.1-.1-.2-.1C15.8 18.8 15.8 18.8 15.8 18.7zM27.1 11.9c.1 0 .1 0 .2 0 0 .1 0 .1.1.1 0 0 0 .1.1.1.1-.1.1-.1.1-.2.1 0 .1 0 .2 0-.1.1-.1.1-.1.2l-.3.1 0-.1c-.2 0-.4.1-.6.1 0 0 0 0 0-.1C26.9 12.1 27 12 27.1 11.9 27.1 11.9 27.1 11.9 27.1 11.9zM18.1 24.1c.1 0 .1 0 .2 0-.2.1-.3.2-.5.3C18 24.2 18 24.1 18.1 24.1zM17.4 24.2c.1-.1.3-.1.5 0-.1 0-.1.1-.1.1-.1 0-.1 0-.2 0-.1-.1-.3 0-.4.2C17.2 24.3 17.3 24.3 17.4 24.2zM15.4 19.1c0 0 .1 0 .1 0 0 .1-.1.2-.1.3 0 0 0 0 0 0-.1 0-.1 0-.2.1C15.2 19.3 15.3 19.2 15.4 19.1 15.3 19.1 15.4 19.1 15.4 19.1zM30.6 10.9c.1 0 .2-.1.3-.1 0 0 0 .1 0 .1C30.8 10.9 30.7 10.9 30.6 10.9 30.6 10.9 30.6 10.9 30.6 10.9z"/><path fill="#4c5c75" d="M29 22.1c-.1 0-.5-.1-.4-.1-.1 0-.1-.1-.1-.1 0-.1.1-.1.1-.1l.4.1C29.1 21.9 29.1 22 29 22.1 29.1 22.1 29 22.1 29 22.1zM27.8 21.9c-.2 0-1-.2-.9-.2-.1 0-.1-.1-.1-.1 0-.1.1-.1.1-.1l.9.2C27.9 21.7 27.9 21.9 27.8 21.9zM26.1 21.5c-.2 0-1-.2-.9-.2-.1 0-.1-.1-.1-.1 0-.1.1-.1.1-.1l.9.2C26.1 21.3 26.2 21.4 26.1 21.5 26.1 21.5 26.1 21.5 26.1 21.5zM24.3 21.1C24.3 21.1 24.3 21.1 24.3 21.1L24 21.1c-.1 0-.1-.1-.1-.1 0-.1.1-.1.1-.1l.4.1C24.4 21 24.4 21 24.3 21.1 24.4 21.1 24.4 21.1 24.3 21.1zM21.2 22.3l.2-.3c0 0 .1 0 .1 0 0 0 0 .1 0 .1l-.2.3C21.2 22.5 21.1 22.4 21.2 22.3zM17 27.4c.5-.5.5-.8.6-.7 0 0 0 .1 0 .1l-.5.6C17.1 27.6 17 27.5 17 27.4zM18.1 26.1l.5-.6c0 0 .1 0 .1 0 0 0 0 .1 0 .1l-.5.6C18.1 26.3 18 26.2 18.1 26.1zM19.1 24.8l.5-.6c0 0 .1 0 .1 0 0 0 0 .1 0 .1l-.5.6C19.2 25 19 24.9 19.1 24.8zM20.1 23.5l.5-.6c0 0 .1 0 .1 0 0 0 0 .1 0 .1l-.5.6C20.2 23.7 20.1 23.6 20.1 23.5zM16.3 28.3l.2-.3c0 0 .1 0 .1 0 0 0 0 .1 0 .1l-.2.3C16.4 28.5 16.2 28.4 16.3 28.3zM21.4 21.3C21.2 21.2 21 21.2 21 21c0 0 .1-.1.1-.1l.3.1c0 0 .1.1.1.1C21.5 21.3 21.5 21.3 21.4 21.3zM20.5 20.9l-.6-.2c0 0-.1-.1-.1-.1 0 0 .1-.1.1-.1l.6.2C20.7 20.8 20.6 20.9 20.5 20.9zM19.3 20.4C19.3 20.4 19.3 20.4 19.3 20.4l-.6-.2c0 0-.1-.1-.1-.1 0 0 .1-.1.1-.1l.6.2C19.4 20.3 19.4 20.3 19.3 20.4 19.4 20.4 19.3 20.4 19.3 20.4zM18.1 20C18.1 20 18.1 20 18.1 20l-.4-.1c0 0-.1-.1-.1-.1 0 0 .1-.1.1-.1l.3.1C18.2 19.8 18.2 19.9 18.1 20 18.2 20 18.1 20 18.1 20zM24.2 20.1C24.2 20.1 24.2 20.1 24.2 20.1c-.1 0-.1-.1-.1-.1l.2-.3c0 0 .1-.1.1 0 0 0 .1.1 0 .1L24.2 20.1C24.3 20.1 24.2 20.1 24.2 20.1zM24.7 19.1C24.7 19.1 24.7 19.1 24.7 19.1c-.1 0-.1-.1-.1-.1l.4-.7c0 0 .1-.1.1 0 0 0 .1.1 0 .1L24.7 19.1C24.8 19.1 24.8 19.1 24.7 19.1zM25.5 17.7C25.4 17.7 25.4 17.7 25.5 17.7c-.1 0-.1-.1-.1-.1l.4-.7c0 0 .1-.1.1 0 0 0 .1.1 0 .1L25.5 17.7C25.5 17.7 25.5 17.7 25.5 17.7zM26.2 16.4C26.2 16.4 26.1 16.4 26.2 16.4c-.1 0-.1-.1-.1-.1l.4-.7c0 0 .1-.1.1 0 0 0 .1.1 0 .1L26.2 16.4C26.2 16.4 26.2 16.4 26.2 16.4zM26.8 14.9l.2-.3c0 0 .1-.1.1 0 0 0 .1.1 0 .1L27 15C26.9 15.1 26.8 15 26.8 14.9zM28.6 14.8l-.1-.4c0 0 0-.1.1-.1 0 0 .1 0 .1.1l.1.4C28.8 14.9 28.6 14.9 28.6 14.8zM30 19.3l-.2-.7c0-.1.1-.2.2-.1l.2.7C30.2 19.4 30 19.4 30 19.3zM29.5 17.8L29.3 17c0-.1.1-.2.2-.1l.2.7C29.7 17.9 29.6 17.9 29.5 17.8zM29 16.3l-.2-.7c0 0 0-.1.1-.1 0 0 .1 0 .1.1l.2.7C29.3 16.4 29.1 16.4 29 16.3zM30.4 20.4L30.2 20c0-.1.1-.2.2-.1l.1.4C30.6 20.5 30.4 20.5 30.4 20.4zM16.4 21.6C16.4 21.6 16.4 21.6 16.4 21.6c-.1 0-.1-.1-.1-.1l.1-.4c0-.1.1-.1.1-.1.1 0 .1.1.1.1L16.4 21.6C16.5 21.5 16.4 21.6 16.4 21.6zM15.4 26.4l.2-.8c0-.1.1-.1.1-.1.1 0 .1.1.1.1l-.2.8C15.6 26.6 15.4 26.5 15.4 26.4zM15.7 24.8l.2-.8c0-.1.1-.1.1-.1.1 0 .1.1.1.1l-.2.8C15.9 24.9 15.7 24.9 15.7 24.8zM16 23.1l.2-.8c0-.1.1-.1.1-.1.1 0 .1.1.1.1l-.2.8C16.2 23.3 16 23.2 16 23.1zM15.2 27.6l.1-.4c0-.1.1-.1.1-.1.1 0 .1.1.1.1l-.1.4C15.3 27.8 15.2 27.7 15.2 27.6zM16.5 29.4l.3-.2c0 0 .1 0 .1 0 0 0 0 .1 0 .1l-.3.2C16.5 29.6 16.4 29.4 16.5 29.4zM17.5 28.8l.7-.4c0 0 .1 0 .1 0 0 0 0 .1 0 .1L17.6 29C17.5 29.1 17.4 28.9 17.5 28.8zM18.9 28.1l.7-.4c0 0 .1 0 .1 0 0 0 0 .1 0 .1L19 28.3C18.9 28.3 18.8 28.2 18.9 28.1zM20.3 27.4L21 27c0 0 .1 0 .1 0 0 0 0 .1 0 .1l-.7.4C20.3 27.6 20.2 27.4 20.3 27.4zM21.7 26.6l.7-.4c0 0 .1 0 .1 0 0 0 0 .1 0 .1l-.7.4C21.6 26.8 21.6 26.7 21.7 26.6zM23 25.9l.7-.4c0 0 .1 0 .1 0 0 0 0 .1 0 .1L23.1 26C23 26.1 22.9 25.9 23 25.9zM24.4 25.1l.7-.4c0 0 .1 0 .1 0 0 0 0 .1 0 .1l-.7.4C24.4 25.3 24.3 25.2 24.4 25.1zM25.8 24.4l.7-.4c0 0 .1 0 .1 0 0 0 0 .1 0 .1l-.7.4C25.8 24.6 25.7 24.4 25.8 24.4zM27.2 23.6l.7-.4c0 0 .1 0 .1 0 0 0 0 .1 0 .1l-.7.4C27.2 23.9 27.1 23.7 27.2 23.6zM28.6 22.9l.3-.2c0 0 .1 0 .1 0 0 0 0 .1 0 .1l-.3.2C28.5 23.1 28.5 23 28.6 22.9zM18.1 18.5c0 0 0-.1 0-.1l.3-.2c0 0 .1 0 .1 0 0 0 0 .1 0 .1l-.3.2C18.1 18.5 18.1 18.5 18.1 18.5zM19 17.9c0 0 0-.1 0-.1l.6-.4c0 0 .1 0 .1 0 0 0 0 .1 0 .1L19.1 18C19.1 18 19 18 19 17.9zM20.2 17.2c0 0 0-.1 0-.1l.6-.4c0 0 .1 0 .1 0 0 0 0 .1 0 .1C20.5 17.1 20.2 17.4 20.2 17.2zM21.4 16.4L22 16c.1-.1.2.1.1.2l-.6.4C21.4 16.6 21.3 16.5 21.4 16.4zM22.6 15.7l.6-.4c.1-.1.2.1.1.2l-.6.4C22.5 15.9 22.5 15.8 22.6 15.7zM23.7 15l.6-.4c.1-.1.2.1.1.2l-.6.4C23.7 15.2 23.6 15.1 23.7 15zM24.9 14.3l.6-.4c0 0 .1 0 .1 0 0 0 0 .1 0 .1L25 14.5C24.9 14.5 24.8 14.4 24.9 14.3zM26.1 13.6l.3-.2c0 0 .1 0 .1 0 0 0 0 .1 0 .1l-.3.2C26.1 13.8 26 13.7 26.1 13.6z"/><g><path fill="#363a44" d="M16.9,20.1c0.1-0.1,0.2-0.3,0.2-0.4l0,0.4l-0.2,0.1L16.9,20.1z"/><path fill="#8a4852" d="M16.5,18c0.4-0.2,0.7-0.1,0.8,0.3c0,0.2,0,0.3,0,0.5c0,0.3,0,0.6,0,0.9c0,0.1-0.1,0.3-0.2,0.3l0,0l-0.1,0.1l0-0.4l0-0.7C17.1,19,17,19,16.9,19c0,0-0.1,0-0.1,0.1c-0.1,0-0.2,0-0.3-0.1l0-0.1c0-0.1-0.1-0.1-0.2-0.1c0,0,0,0,0,0c-0.1,0-0.2,0.1-0.2,0.2C16,19.2,16,19.3,16,19.5c0,0.1,0,0.2,0,0.3c0,0.1,0,0.3,0,0.5c0,0,0,0.1,0,0.1c0,0,0,0.1,0,0.1c0,0,0,0.1,0,0.1l0,0.1l-0.2,0.1l0,0c-0.1,0.1-0.2,0-0.2-0.1l0,0c0,0,0-0.5,0-0.8c0-0.2,0-0.4,0-0.7C15.8,18.7,16.2,18.2,16.5,18z"/><path fill="#f4d6d4" d="M16.3,18.8C16.3,18.8,16.3,18.8,16.3,18.8c0.1-0.1,0.2,0,0.2,0l0,0.1c0,0.1,0.2,0.2,0.3,0.1c0,0,0.1,0,0.1-0.1c0.1,0,0.1-0.1,0.2-0.1l0,0.7c-0.1,0.2-0.2,0.3-0.2,0.4c-0.1,0.1-0.2,0.2-0.3,0.3c-0.1,0.1-0.2,0.1-0.3,0.1c-0.1,0-0.1,0-0.2-0.1c0,0,0-0.1,0-0.1c0-0.2,0-0.3,0-0.5c0-0.1,0-0.2,0-0.3c0-0.1,0-0.3,0.1-0.4C16.1,19,16.2,18.9,16.3,18.8z"/><path fill="#5564d7" d="M17,20.3c0,0,0,0.1,0,0.1c0,0.2-0.2,0.6-0.5,0.7c-0.3,0.1-0.5,0.1-0.5-0.2c0,0,0-0.1,0-0.1l0.1-0.1c0,0.2,0.1,0.3,0.3,0.2l0,0c0.2-0.1,0.3-0.3,0.3-0.6L17,20.3z"/><path fill="#f5c9c6" d="M16.9,20.1l0,0.1l0,0.2c0,0,0,0,0,0c0,0.2-0.1,0.5-0.3,0.6l0,0c-0.2,0.1-0.3,0-0.3-0.2c0,0,0,0,0,0l0-0.2l0-0.1c0.1,0,0.2,0,0.3-0.1C16.7,20.3,16.8,20.2,16.9,20.1z"/><path fill="#363a44" d="M16,20.4c0.1,0.1,0.1,0.1,0.2,0.1l0,0.1L16,20.7l0-0.1C16,20.5,16,20.5,16,20.4C16,20.4,16,20.4,16,20.4z"/><path fill="#748bfd" d="M17.3,20.2L17.3,20.2c0.3-0.1,0.5-0.1,0.6,0.1c-0.3,0.6-0.8,1.1-1.3,1.4c-0.5,0.3-1,0.3-1.3,0.1c0.1-0.3,0.3-0.6,0.6-0.8l0,0l0.3-0.2c0,0,0,0.1,0,0.1c0,0.2,0.2,0.3,0.5,0.2c0.3-0.1,0.5-0.5,0.5-0.7c0,0,0-0.1,0-0.1L17.3,20.2z"/><path fill="#9ad898" d="M16.5,17.3c1-0.6,1.9-0.1,1.9,1.1c0,0.6-0.2,1.3-0.6,1.9c-0.1-0.2-0.3-0.3-0.6-0.1l0,0L17,20.3l-0.1,0.1c0,0,0,0,0,0l0-0.2l0.4-0.2l0,0c0.1-0.1,0.2-0.2,0.2-0.3c0-0.3,0-0.6,0-0.9c0-0.2,0-0.4,0-0.5c-0.1-0.4-0.5-0.5-0.8-0.3c-0.4,0.2-0.7,0.8-0.8,1.2c-0.1,0.2-0.1,0.4,0,0.7c0,0.3,0,0.8,0,0.8l0,0c0,0.1,0.1,0.2,0.2,0.1l0,0l0.4-0.2l0,0.2c0,0,0,0,0,0l-0.1,0.1L15.8,21l0,0c-0.3,0.2-0.5,0.5-0.6,0.8c-0.4-0.2-0.6-0.6-0.6-1.2C14.6,19.4,15.5,17.9,16.5,17.3z"/><path fill="#ffde9b" d="M14.8,30.5c0,0.2,0.1,0.3,0.3,0.2l0,0c0.2-0.1,0.3-0.3,0.3-0.5c0,0,0.1,0,0.1,0c0,0,0.1,0.1,0.1,0.2l0,0.2c0,0,0,0.1-0.1,0.1c0,0,0,0,0,0l-0.4,0l-0.4,0.5c0,0-0.1,0-0.1,0l0-0.2c0-0.1,0-0.2,0.1-0.3C14.8,30.6,14.8,30.5,14.8,30.5z"/><path fill="#f5c9c6" d="M15.5,29.8l0,0.3c0,0,0,0,0,0c0,0.2-0.1,0.4-0.3,0.5l0,0c-0.2,0.1-0.3,0-0.3-0.2c0,0,0,0,0,0l0-0.3c0.1,0,0.2,0,0.3-0.1C15.3,30.1,15.4,30,15.5,29.8z"/><path fill="#f9cf6b" d="M16.4,29.9l0.1,0.2c-0.3,0.6-0.8,1.1-1.3,1.4c-0.5,0.3-1,0.3-1.3,0.2l0.1-0.3c0-0.2,0.2-0.3,0.3-0.4l0.5-0.3c0,0.1-0.1,0.2-0.1,0.3l0,0.2c0,0,0.1,0,0.1,0l0.4-0.5l0.4,0c0,0,0,0,0,0c0,0,0.1-0.1,0.1-0.1l0-0.2c0-0.1,0-0.2-0.1-0.2C15.9,30,16.3,29.6,16.4,29.9z"/><path fill="#f4d6d4" d="M14.7,28.7c0.1,0,0.3,0,0.4-0.1l0.1-0.1c0.2-0.1,0.3-0.1,0.4-0.1c0.1,0,0.1,0.1,0.1,0.2c0,0.1,0,0.1,0,0.2c0,0,0,0,0,0c0,0,0-0.1,0-0.1c0,0,0-0.1,0.1-0.2c0,0,0.1,0.1,0,0.2c0,0.1-0.1,0.3-0.2,0.3c-0.1,0.3-0.2,0.5-0.3,0.7c-0.1,0.1-0.2,0.2-0.3,0.3c-0.1,0.1-0.2,0.1-0.3,0.1c-0.2,0-0.3-0.1-0.4-0.3c-0.1,0-0.2,0-0.2-0.1c0-0.1,0-0.2,0.1-0.3c0,0.1,0,0.1,0,0.2c0,0,0-0.1,0-0.1c0-0.2,0.1-0.4,0.2-0.7C14.7,28.8,14.7,28.7,14.7,28.7z"/><path fill="#8a4852" d="M16,28.2L16,28.2L16,28.2c0,0.2,0,0.3-0.1,0.4c0,0.1-0.1,0.2-0.1,0.2c0,0,0,0.1,0,0.1c0,0,0,0,0,0c0,0,0-0.1,0-0.2c0-0.1-0.1-0.2-0.1-0.2c-0.1,0-0.3,0-0.4,0.1l-0.1,0.1c-0.1,0.1-0.3,0.1-0.4,0.1c0,0,0,0-0.1,0.1c-0.1,0.3-0.2,0.4-0.2,0.7c0,0,0,0.1,0,0.1c0,0,0-0.1,0-0.2c0,0,0,0,0-0.1c0-0.2,0-0.3,0-0.5c0-0.1,0-0.1,0-0.2c0-0.1,0.1-0.1,0.1-0.1c0,0,0.1,0,0.1,0C14.9,27.7,16,27.3,16,28.2z"/><path fill="#f9607f" d="M15.1,27.2c1-0.6,1.9-0.1,1.9,1.1c0,0.6-0.2,1.3-0.6,1.9c-0.1-0.1-0.1-0.5-0.4-0.3l-0.5,0.3c0,0-0.1,0-0.1,0c0,0,0,0,0,0l0-0.3c0.2-0.2,0.3-0.5,0.3-0.7c0.1-0.1,0.1-0.2,0.2-0.3c0-0.1,0-0.1,0-0.2c0-0.1,0.1-0.3,0.1-0.4l0,0c0-0.9-1.1-0.5-1.4,0.4c0,0,0,0-0.1,0c0,0-0.1,0.1-0.1,0.1c0,0.1,0,0.1,0,0.2c0,0.2,0,0.4,0,0.5c0,0,0,0,0,0.1c-0.1,0.1-0.1,0.2-0.1,0.3c0,0.1,0.1,0.2,0.2,0.1c0.1,0.2,0.2,0.3,0.4,0.3l0,0.3c0,0,0,0,0,0c0,0-0.1,0.1-0.1,0.2L14.2,31c-0.1,0.1-0.2,0.2-0.3,0.4l-0.1,0.3c-0.4-0.2-0.6-0.6-0.6-1.2C13.3,29.3,14.1,27.8,15.1,27.2z"/><path fill="#75ca75" d="M30,22.5c0,0.2,0.1,0.3,0.3,0.2l0,0c0.2-0.1,0.3-0.3,0.3-0.5c0,0,0.1,0,0.1,0c0,0,0.1,0.1,0.1,0.2l0,0.2c0,0,0,0.1-0.1,0.1c0,0,0,0,0,0l-0.4,0l-0.4,0.5c0,0,0,0,0,0c0,0-0.1,0-0.1,0l0-0.2c0-0.1,0-0.2,0.1-0.3C29.9,22.6,29.9,22.5,30,22.5z"/><path fill="#f5c9c6" d="M30.6,21.8l0,0.3c0,0,0,0,0,0c0,0.2-0.1,0.4-0.3,0.5l0,0c-0.2,0.1-0.3,0-0.3-0.2c0,0,0,0,0,0l0-0.3c0.1,0,0.2,0,0.3-0.1C30.4,22,30.5,21.9,30.6,21.8z"/><path fill="#68af68" d="M31.2,21.8c0.1-0.1,0.2,0,0.3,0.1l0.1,0.2c-0.3,0.6-0.8,1.1-1.3,1.4c-0.5,0.3-1,0.3-1.3,0.2l0.1-0.3c0-0.2,0.2-0.3,0.3-0.4l0.5-0.3c0,0.1-0.1,0.2-0.1,0.3l0,0.2c0,0,0,0,0.1,0c0,0,0,0,0,0l0.4-0.5l0.4,0c0,0,0,0,0,0c0,0,0.1-0.1,0.1-0.1l0-0.2c0-0.1,0-0.2-0.1-0.2L31.2,21.8z"/><path fill="#f4d6d4" d="M29.8,20.7c0.1,0,0.3,0,0.4-0.1c0.1,0,0.3-0.2,0.5-0.1c0.1,0.1,0.1,0.2,0.2,0.4c0,0,0,0,0,0c0,0,0-0.1,0-0.1c0,0,0-0.1,0.1-0.2c0,0,0.1,0.1,0,0.2c0,0.1-0.1,0.3-0.2,0.3c-0.1,0.3-0.2,0.5-0.3,0.7c-0.1,0.1-0.2,0.2-0.3,0.3c-0.1,0.1-0.2,0.1-0.3,0.1c-0.2,0-0.3-0.1-0.4-0.3c-0.1,0-0.2,0-0.2-0.1c0-0.1,0-0.2,0.1-0.3c0,0.1,0,0.1,0,0.2c0,0,0-0.1,0-0.1c0-0.2,0.1-0.4,0.2-0.7C29.8,20.7,29.8,20.7,29.8,20.7z"/><path fill="#5b5e71" d="M31.1,20.2L31.1,20.2L31.1,20.2c0,0.3-0.1,0.5-0.1,0.6c0,0,0,0.1,0,0.1c0,0,0,0,0,0c0,0,0-0.1,0-0.2c0-0.3-0.3-0.3-0.6-0.2l-0.1,0.1c-0.1,0.1-0.3,0.1-0.4,0.1c0,0,0,0-0.1,0.1c-0.1,0.3-0.2,0.4-0.2,0.7c0,0,0,0.1,0,0.1c0,0,0-0.1,0-0.2c0,0,0,0,0-0.1c-0.1-0.2,0-0.8,0.1-0.9c0,0,0.1,0,0.1,0C30,19.7,31.1,19.3,31.1,20.2z"/><path fill="#edeef2" d="M30.3,19.2c1-0.6,1.9-0.1,1.9,1.1c0,0.6-0.2,1.3-0.6,1.9l-0.1-0.2c0-0.1-0.2-0.1-0.3-0.1l-0.5,0.3c0,0-0.1,0-0.1,0c0,0,0,0,0,0l0-0.3c0.2-0.2,0.3-0.5,0.3-0.7c0.1-0.1,0.1-0.2,0.2-0.3c0-0.1,0-0.1,0-0.2c0-0.1,0.1-0.3,0.1-0.4l0,0c0-0.9-1.1-0.5-1.4,0.4c0,0,0,0-0.1,0c-0.2,0.1-0.2,0.6-0.1,0.9c0,0,0,0,0,0.1c-0.1,0.1-0.1,0.2-0.1,0.3c0,0.1,0.1,0.2,0.2,0.1c0.1,0.2,0.2,0.3,0.4,0.3l0,0.3c0,0,0,0,0,0c0,0-0.1,0.1-0.1,0.2l-0.5,0.3c-0.1,0.1-0.2,0.2-0.3,0.4L29,23.7c-0.4-0.2-0.6-0.6-0.6-1.2C28.4,21.2,29.2,19.8,30.3,19.2z"/><path fill="#1d2943" d="M23.2,21.8c0,0,0.1,0,0.1,0l0,0c0.1,0,0.2,0.1,0.3,0.2l-0.2,0.2l0.2,0l-0.2,0.5c-0.1,0-0.1,0.1-0.2,0.1c-0.1,0-0.1,0.1-0.2,0.1l0.1-0.7l0.1-0.3C23.2,22,23.2,22,23.2,21.8L23.2,21.8L23.2,21.8L23.2,21.8C23.2,21.8,23.2,21.8,23.2,21.8z"/><path fill="#f45170" d="M24.1,21.6l0.1,0.3c-0.2,0.4-0.5,0.7-0.8,1c-0.1,0-0.1,0.1-0.2,0.1c-0.1,0-0.1,0.1-0.2,0.1l0,0c0,0-0.1,0.1-0.1,0.1c0,0-0.1,0.1-0.1,0.1l0,0c-0.1,0-0.1,0.1-0.2,0.1c-0.1,0-0.1,0-0.2,0c-0.3,0.1-0.6,0.1-0.8-0.1l0.1-0.4c0-0.2,0.2-0.3,0.3-0.4l0.5-0.3l0,0c-0.1,0.2-0.2,0.3-0.3,0.6l0.2,0l-0.2,0.3l0.2,0.2c0.1,0,0.1,0,0.2-0.1c0.1,0,0.1-0.1,0.2-0.1l0,0c0,0,0.1,0,0.1-0.1c0,0,0.1-0.1,0.1-0.1l0,0c0.1,0,0.1-0.1,0.2-0.1c0.1,0,0.1-0.1,0.2-0.1l0.2-0.5l-0.2,0l0.2-0.2c-0.1-0.1-0.2-0.2-0.3-0.2l0,0C23.6,21.7,24,21.3,24.1,21.6z"/><g><path fill="#4d6c4c" d="M23.2,21.8L23.2,21.8L23.2,21.8L23.2,21.8C23.2,21.9,23.2,21.9,23.2,21.8z"/><path fill="#f1f6fa" d="M22.6,22.2c0,0.1,0.1,0.2,0.3,0.1l0,0c0.1-0.1,0.3-0.3,0.3-0.4l0,0l0,0l0,0c0,0.1,0,0.1,0,0.2l-0.1,0.3l-0.3,0l-0.3,0.4l-0.1-0.2C22.5,22.4,22.6,22.3,22.6,22.2L22.6,22.2z"/><polygon fill="#4d6c4c" points="22.6 22.2 22.6 22.2 22.6 22.2 22.6 22.2 22.6 22.2"/><polygon fill="#4d6c4c" points="22.6 22.2 22.6 22.2 22.6 22.2 22.6 22.2"/><path fill="#1d2943" d="M22.6,22.2C22.6,22.2,22.6,22.2,22.6,22.2L22.6,22.2L22.6,22.2l0,0.1c0,0.1,0,0.2,0,0.2l0.1,0.2l0.1,0.5c-0.1,0-0.1,0.1-0.2,0.1c-0.1,0-0.1,0-0.2,0l0,0l-0.2-0.2l0.2-0.3l-0.2,0c0.1-0.2,0.2-0.4,0.3-0.6C22.5,22.3,22.6,22.2,22.6,22.2z"/><path fill="#f5c9c6" d="M23.2,21.6l0,0.1c0,0,0,0,0,0c0,0,0,0,0,0c0,0,0,0,0,0c0,0.2-0.1,0.4-0.3,0.4l0,0c-0.1,0.1-0.3,0-0.3-0.1c0,0,0,0,0,0c0,0,0,0,0,0c0,0,0,0,0,0l0-0.1c0.1,0,0.2,0,0.3-0.1C23,21.8,23.1,21.7,23.2,21.6z"/></g><path fill="#fff" d="M23,22.7L23,22.7l0.1,0.5c0,0-0.1,0.1-0.1,0.1c0,0-0.1,0.1-0.1,0.1l0.1-0.5l0,0L23,22.7z"/><polygon fill="#fff" points="23 22.4 23 22.5 23 22.6 23 22.6 22.8 22.7 22.8 22.7 22.8 22.6 22.8 22.5"/><path fill="#c58f69" d="M23.6,20.7C23.6,20.7,23.6,20.7,23.6,20.7c0,0.2-0.1,0.4-0.2,0.6C23.5,21.1,23.6,20.9,23.6,20.7z"/><path fill="#3f434f" d="M23.1,19.6c0.1,0,0.2-0.1,0.3-0.1c0.1,0,0.2,0,0.2,0.1c0.1,0.1,0.1,0.3,0.1,0.4c0,0.1,0,0.1,0,0.2c0,0.2-0.1,0.4-0.2,0.6c0-0.2,0-0.4-0.1-0.5c0-0.1,0-0.1,0-0.2c0,0-0.1,0-0.2,0c0,0-0.1,0-0.1,0.1c0,0,0,0-0.1,0c-0.4,0.3-0.6,0.2-0.7,0.4c0,0.1,0,0.1-0.1,0.2c0,0.3-0.1,0.5-0.1,0.8c-0.1-0.1-0.1-0.2-0.1-0.4c0-0.1,0-0.2,0-0.4c0-0.1,0-0.2,0.1-0.3c0-0.1,0.1-0.2,0.2-0.2c0,0,0,0,0,0c0-0.1,0-0.1,0-0.2c0-0.1,0.1-0.2,0.2-0.2C22.7,19.7,22.9,19.6,23.1,19.6z"/><g><path fill="#fff" d="M22.9,22.4l0.3,0l-0.1,0.7l0,0L23,22.7l0,0l-0.1,0.1l0,0l-0.1,0.5l0,0l-0.1-0.5L22.9,22.4z M23,22.6l0-0.1l0,0l-0.2,0.1l0,0.1l0,0.1l0,0L23,22.6L23,22.6"/><path fill="#f4d6d4" d="M23.1,20.2C23.1,20.2,23.1,20.2,23.1,20.2c0.1-0.1,0.2-0.1,0.2-0.1c0.1,0,0.1,0,0.2,0c0,0,0,0.1,0,0.2c0,0.2,0,0.4,0.1,0.5c0.1-0.2,0.1-0.4,0.2-0.6c0,0,0.1,0.1,0.1,0.1c0,0.1-0.1,0.3-0.1,0.3c0,0.2-0.1,0.4-0.2,0.6c-0.1,0.1-0.1,0.2-0.2,0.3c-0.1,0.1-0.2,0.2-0.3,0.3C22.8,22,22.7,22,22.6,22c-0.2,0-0.3-0.1-0.4-0.4c0,0,0,0,0,0c0,0,0,0,0,0c0,0,0,0,0,0c-0.1,0.1-0.2-0.2-0.1-0.4c0,0.1,0.1,0.3,0.1,0.4c0-0.3,0.1-0.5,0.1-0.8c0-0.1,0-0.1,0.1-0.2C22.5,20.4,22.6,20.5,23.1,20.2z"/><path fill="#748bfd" d="M22.9,18.8c1-0.6,1.9-0.1,1.9,1.1c0,0.6-0.2,1.3-0.6,1.9l0,0l-0.1-0.3c-0.1-0.3-0.5,0.1-0.8,0.2c0,0-0.1,0-0.1,0c0,0,0,0,0,0l0-0.1c0.1-0.1,0.2-0.2,0.2-0.3c0.1-0.2,0.2-0.4,0.2-0.6c0.1-0.1,0.1-0.2,0.1-0.3c0-0.1,0-0.1-0.1-0.1c0-0.1,0-0.1,0-0.2c0-0.2,0-0.3-0.1-0.4c-0.1-0.1-0.1-0.1-0.2-0.1c-0.1,0-0.2,0-0.3,0.1c-0.2,0.1-0.4,0.1-0.5,0.3c-0.1,0.1-0.1,0.1-0.2,0.2c0,0.1-0.1,0.2,0,0.2c-0.1,0.1-0.2,0.1-0.2,0.2c0,0.1-0.1,0.2-0.1,0.3c0,0.1,0,0.3,0,0.4c-0.1,0.2,0,0.4,0.1,0.4c0,0,0,0,0,0c0.1,0.2,0.2,0.4,0.4,0.4l0,0.1c0,0,0,0,0,0c0,0-0.1,0.1-0.1,0.1L22,22.6c-0.1,0.1-0.2,0.2-0.3,0.4l-0.1,0.4l0,0c-0.4-0.2-0.6-0.6-0.6-1.2C21,20.9,21.8,19.5,22.9,18.8z"/></g><g><path fill="#f5c9c6" d="M28.5,13.4l0,0.2l0,0.1c0,0.2-0.2,0.5-0.3,0.6c-0.2,0.1-0.3,0-0.3-0.2l0-0.1l0-0.2c0.1,0,0.2,0,0.3-0.1C28.2,13.7,28.4,13.6,28.5,13.4z"/><path fill="#748bfd" d="M28.1,10.6c1-0.6,1.9-0.1,1.9,1.1c0,1.1-0.6,1.9-0.7,2c-0.2-0.3-0.5-0.3-0.9-0.1l0-0.2c0,0,0.1,0,0.3-0.1c0.1-0.1,0.3-0.2,0.4-0.4c0,0-0.3,0-0.2-0.5c0-0.1,0.3-1.5-0.5-1c0,0-0.2-0.1-0.5,0c-0.2,0.1-0.4,0.3-0.5,0.6c0,0-0.4,0.6-0.1,1.3c0,0,0.1,0.3-0.3,0.8c0,0,0,0.1,0.3,0c0.1-0.1,0.2-0.2,0.4-0.3l0,0.2c-0.3,0.2-0.5,0.4-0.7,0.7C27,14.9,27,15,26.9,15.2l-0.1,0C25.6,14.5,26.4,11.6,28.1,10.6z"/><path fill="#f45170" d="M28.5,13.6c0.4-0.2,0.7-0.2,0.9,0.1c-0.3,0.5-0.8,1-1.2,1.2c-0.5,0.3-0.9,0.3-1.2,0.2c0-0.1,0.1-0.3,0.2-0.4c0.2-0.3,0.4-0.6,0.7-0.7l0,0.1c0,0.2,0.2,0.3,0.3,0.2c0.2-0.1,0.3-0.4,0.3-0.6L28.5,13.6z"/><path fill="#f4d6d4" d="M28.5,11.9c0,0,0.3,0,0.3,0.5c0,0,0,0.6-0.3,1c-0.1,0.1-0.2,0.2-0.3,0.3c-0.1,0.1-0.2,0.1-0.3,0.1c0,0-0.4-0.2-0.2-0.8c0,0,0.1-0.2,0.3-0.4c0.2-0.1,0.3-0.3,0.4-0.5C28.4,12.1,28.5,12,28.5,11.9z"/></g><path fill="#8a4852" d="M28,11.4c0.3-0.2,0.5,0,0.5,0c0.8-0.4,0.5,1,0.5,1c-0.1,0.4,0.2,0.5,0.2,0.5c-0.2,0.2-0.3,0.3-0.4,0.4c-0.2,0.1-0.3,0.1-0.3,0.1c0.3-0.4,0.3-1,0.3-1c0-0.5-0.3-0.5-0.3-0.5c0,0.1-0.1,0.2-0.1,0.3c-0.1,0.2-0.3,0.3-0.4,0.5c-0.2,0.2-0.3,0.4-0.3,0.4c-0.3,0.6,0.2,0.8,0.2,0.8c-0.2,0.2-0.3,0.3-0.4,0.3c-0.3,0.1-0.3,0-0.3,0c0.4-0.5,0.3-0.8,0.3-0.8c-0.2-0.8,0.1-1.3,0.1-1.3C27.7,11.7,27.9,11.5,28,11.4z"/></g></g><g><path fill="#7e5af2" d="M2.7,21.1C2.7,21.1,2.7,21.1,2.7,21.1C2.7,21,2.6,21,2.7,21.1C2.6,21,2.7,21,2.7,21.1z"/><path fill="#7e5af2" d="M10.6,16.2c0,0.2-0.2,0.5-0.3,0.6l-2.3,1.3l-1.3,2.3l-1.4-0.8L2.9,21c-0.1,0-0.2,0.1-0.3,0c0,0-0.1,0-0.1-0.1c0,0,0,0.1,0.1,0.1l-0.6-0.3C2,20.7,2,20.6,2,20.5l0-5c0-0.2,0.2-0.5,0.3-0.6l7.3-4.2c0.1-0.1,0.2-0.1,0.2,0l0.6,0.3c0,0,0,0,0,0c0.1,0,0.1,0.1,0.1,0.2L10.6,16.2z"/><path fill="#7e5af2" d="M2.7,21.1C2.7,21.1,2.7,21.1,2.7,21.1C2.7,21,2.6,21,2.7,21.1C2.6,21,2.7,21,2.7,21.1z"/><g><path fill="#7e5af2" d="M10.4,11c-0.1,0-0.1,0-0.2,0l-7.3,4.2c-0.2,0.1-0.3,0.4-0.3,0.6l0,5c0,0.1,0,0.2,0.1,0.2l-0.6-0.3c-0.1,0-0.1-0.1-0.1-0.2l0-5c0-0.2,0.2-0.5,0.3-0.6l7.3-4.2c0.1-0.1,0.2-0.1,0.2,0L10.4,11z"/><path fill="#b28afd" d="M10.2,11c0.2-0.1,0.3,0,0.3,0.2l0,5c0,0.2-0.2,0.5-0.3,0.6l-2.3,1.3l-1.3,2.3l-1.3-0.8L2.9,21c-0.2,0.1-0.3,0-0.3-0.2l0-5c0-0.2,0.2-0.5,0.3-0.6L10.2,11z"/></g><path fill="#fff" d="M4.5 16.7c.3-.2.6 0 .6.3 0 .4-.3.8-.6 1-.3.2-.6 0-.6-.3C3.9 17.3 4.2 16.9 4.5 16.7zM6.6 15.5c.3-.2.6 0 .6.3 0 .4-.3.8-.6 1-.3.2-.6 0-.6-.3C6 16.2 6.2 15.7 6.6 15.5zM8.6 14.3c.3-.2.6 0 .6.3 0 .4-.3.8-.6 1-.3.2-.6 0-.6-.3C8 15 8.3 14.5 8.6 14.3z"/></g><g><path fill="#5ec363" d="M13.3,42.6v0.7c0,0.5-0.3,1-1,1.4c-1.3,0.8-3.5,0.8-4.8,0c-0.6-0.4-1-0.9-1-1.4v-0.7c0,0,0,0,0,0c0-0.5,0.3-1,1-1.4c1.3-0.8,3.5-0.8,4.8,0C12.9,41.6,13.3,42.1,13.3,42.6z" enable-background="new"/><path fill="#5ec363" d="M6.5,42.6l0,0.7c0,0.5,0.3,1,1,1.4c1.3,0.8,3.5,0.8,4.8,0c0.7-0.4,1-0.9,1-1.4l0-0.7c0,0.5-0.3,1-1,1.4c-1.3,0.8-3.5,0.8-4.8,0C6.8,43.6,6.5,43.1,6.5,42.6z"/><path fill="#78e75a" d="M7.5,41.2c-1.3,0.8-1.3,2,0,2.8c1.3,0.8,3.5,0.8,4.8,0c1.3-0.8,1.3-2,0-2.8C11,40.5,8.8,40.5,7.5,41.2z"/><path fill="#fff" d="M11.4 42.4C11.4 42.4 11.4 42.5 11.4 42.4c-.1.1-.1.1-.2.1 0 0-.1 0-.1 0l-.4-.3-.4.3c0 0-.1 0-.1 0 0 0-.1 0-.1 0 0 0-.1 0-.1-.1 0 0 0 0 0-.1l.4-.3L10 41.8c0 0-.1 0-.1-.1 0 0 0 0 0-.1 0 0 .1 0 .1 0 0 0 .1 0 .1 0l.4.3.4-.3c0 0 .1 0 .1 0 0 0 .1 0 .1 0 0 0 0 0 0 .1 0 0 0 0-.1.1l-.4.3L11.4 42.4C11.4 42.4 11.4 42.4 11.4 42.4zM10.8 43.1C10.8 43.1 10.8 43.2 10.8 43.1l-.9.6c0 0-.1 0-.1 0 0 0-.1 0-.1 0 0 0-.1 0-.1-.1 0 0 0-.1.1-.1l.3-.2-1.4-.8-.1.2c0 0 0 0-.1.1 0 0-.1 0-.1 0 0 0-.1 0-.1 0-.1 0-.1-.1 0-.1l.2-.3c0 0 0 0 .1-.1l.1 0c0 0 .1 0 .1 0 .1 0 .1 0 .1 0l1.6.9.3-.2c0 0 .1 0 .1 0C10.7 43 10.7 43 10.8 43.1 10.8 43.1 10.8 43.1 10.8 43.1z"/></g><g><path fill="#df3260" d="M44.7,9.8c0,0.3-0.2,0.7-0.5,0.8l-6.4,3.7c-0.8,1-1.6,1.8-2.4,2.2l-0.5-0.3c0.5-0.8,1-1.7,1.4-2.6c0-0.1,0-0.1,0,0l0-3.8c0-0.3,0.2-0.7,0.5-0.8l6.9-4c0.1-0.1,0.3-0.1,0.3,0l0.5,0.3c0,0,0,0,0,0c0.1,0,0.1,0.1,0.1,0.3L44.7,9.8z" enable-background="new"/><path fill="#df3260" d="M35.5,16.5l-0.5-0.3c0.5-0.8,1-1.7,1.4-2.6l0.5,0.3C36.5,14.8,36,15.7,35.5,16.5z"/><path fill="#e93565" d="M44.6,5.2c-0.1,0-0.2,0-0.3,0l-6.9,4C37,9.4,36.8,9.7,36.8,10l0,3.8l-0.5-0.3l0-3.8c0-0.3,0.2-0.7,0.5-0.8l6.9-4c0.1-0.1,0.3-0.1,0.3,0L44.6,5.2z"/><path fill="#f45170" d="M44.2,5.2c0.3-0.2,0.5,0,0.5,0.3l0,4.3c0,0.3-0.2,0.7-0.5,0.8l-6.4,3.7c-0.8,1-1.6,1.8-2.4,2.2c0.5-0.8,1-1.7,1.4-2.6l0-3.8c0-0.3,0.2-0.7,0.5-0.8L44.2,5.2z"/><path fill="#fff" d="M38.8 11c.6-.4 1.1-.1 1.1.6l-2.2 1.3C37.7 12.2 38.2 11.4 38.8 11zM38.8 9.7c.3-.2.5 0 .5.3 0 .3-.2.7-.5.9-.3.2-.5 0-.5-.3C38.3 10.2 38.6 9.8 38.8 9.7z"/><g><path fill="#fff" d="M41.4 10.2C41.4 10.2 41.4 10.3 41.4 10.2c0 .1 0 .1 0 .2 0 0 0 .1-.1.1l-.7.4c0 0-.1 0-.1 0 0 0 0 0 0-.1 0-.1 0-.2.1-.3 0-.1.1-.2.1-.3.1-.1.1-.2.2-.3C40.9 9.9 41 9.8 41 9.8c0-.1.1-.1.1-.2 0-.1 0-.1 0-.2 0-.1 0-.1-.1-.1 0 0-.1 0-.2.1-.1.1-.2.2-.3.3 0 0 0 0 0 0 0 0 0 0-.1 0 0 0 0 0 0-.1 0 0 0-.1 0-.1.1-.1.3-.3.4-.4C41 9 41.1 9 41.2 9c.1 0 .1 0 .2.1 0 0 .1.1.1.2 0 .1 0 .2-.1.3 0 .1-.1.2-.2.3-.1.1-.1.2-.2.3-.1.1-.2.2-.2.3 0 0-.1.1-.1.1L41.4 10.2C41.3 10.2 41.3 10.2 41.4 10.2zM42.1 10c.2-.1.3-.2.4-.4.1-.2.1-.4.1-.7 0-.2 0-.4-.1-.5-.1-.1-.2-.1-.4 0-.2.1-.3.2-.4.4-.1.2-.1.4-.1.7 0 .2 0 .4.1.5C41.8 10.1 41.9 10.1 42.1 10zM42.3 8.7c.1.1.1.2.1.4 0 .2 0 .3-.1.5-.1.1-.1.2-.2.3-.1.1-.2.1-.2 0-.1-.1-.1-.2-.1-.4 0-.2 0-.3.1-.5.1-.1.1-.2.2-.3C42.2 8.6 42.3 8.6 42.3 8.7zM43.3 9.3c.2-.1.3-.2.4-.4.1-.2.1-.4.1-.7 0-.2 0-.4-.1-.5-.1-.1-.2-.1-.4 0C43.1 7.8 43 8 42.9 8.2c-.1.2-.1.4-.1.7 0 .2 0 .4.1.5C43 9.4 43.1 9.4 43.3 9.3zM43.5 8c.1.1.1.2.1.4 0 .2 0 .3-.1.5C43.5 9 43.4 9 43.3 9.1c-.1.1-.2.1-.2 0C43 9 43 8.9 43 8.7c0-.2 0-.3.1-.5C43.1 8.1 43.2 8 43.3 8 43.4 7.9 43.5 7.9 43.5 8z"/></g></g><g><path fill="#d4daea" d="M48.3,23.4v0.8c0,0.5-0.4,1.1-1.1,1.5c-1.4,0.8-3.8,0.8-5.2,0c-0.7-0.4-1.1-1-1.1-1.5v-0.8c0-0.5,0.4-1.1,1.1-1.5c1.4-0.8,3.8-0.8,5.2,0C47.9,22.4,48.3,22.9,48.3,23.4C48.3,23.5,48.3,23.5,48.3,23.4z" enable-background="new"/><path fill="#d4daea" d="M40.9,23.5l0,0.8c0,0.5,0.4,1.1,1.1,1.5c1.4,0.8,3.8,0.8,5.2,0c0.7-0.4,1.1-1,1.1-1.5l0-0.8c0,0.5-0.4,1.1-1.1,1.5c-1.4,0.8-3.8,0.8-5.2,0C41.3,24.6,40.9,24,40.9,23.5z"/><path fill="#f1f6fa" d="M42,22c-1.4,0.8-1.4,2.2,0,3c1.4,0.8,3.8,0.8,5.2,0c1.4-0.8,1.4-2.2,0-3C45.8,21.1,43.4,21.1,42,22z"/><path fill="#4c5c75" d="M44.8 23.9c.4.3.4.5.2.7l-.7-.4-.6.4-1.1-.7 1.1-.7L44.8 23.9zM46.4 23c.4.3.4.5.2.7l-.7-.4-.6.4L44.1 23l1.1-.7L46.4 23z"/></g></svg>