<?xml version="1.0" encoding="UTF-8"?><svg id="Layer_2" xmlns="http://www.w3.org/2000/svg" viewBox="0 0 49.3 42.45"><defs><style>.cls-1{fill:#f4d6d4;}.cls-2{fill:#f9cf6b;}.cls-3{fill:#f9607f;}.cls-4{fill:#68af68;}.cls-5{fill:#e93565;}.cls-6{fill:#e3e7f0;}.cls-7{fill:#edeef2;}.cls-8{fill:#fff;}.cls-9{fill:#ffde9b;}.cls-10{fill:#f5c9c6;}.cls-11{fill:#f1f6fa;}.cls-12{fill:#f45170;}.cls-13{fill:#7e5af2;}.cls-14{fill:#b28afd;}.cls-15{fill:#b0b8cf;}.cls-16{fill:#c9cee2;}.cls-17{fill:#df3260;}.cls-18{fill:#c58f69;}.cls-19{fill:#d4daea;}.cls-20{fill:#1d2943;}.cls-21{fill:#363a44;}.cls-22{fill:#3f434f;}.cls-23{fill:#8a4852;}.cls-24{fill:#9ad898;}.cls-25{fill:#5b5e71;}.cls-26{fill:#5564d7;}.cls-27{fill:#4c5c75;}.cls-28{fill:#5ec363;}.cls-29{fill:#748bfd;}.cls-30{fill:#75ca75;}.cls-31{fill:#78e75a;}</style></defs><g id="Layer_1-2"><path class="cls-15" d="M1.3,27.5v1.2c0,.2,.1,.3,.3,.5l22.8,13.1c.4,.2,1.1,.2,1.5,0l14.2-8.3c.2-.1,.3-.3,.3-.4v-1.2c0-.2-.1-.3-.3-.5l-22.8-13.1c-.4-.3-1.1-.3-1.5,0L1.6,27c-.2,.1-.3,.3-.3,.5Z"/><path class="cls-15" d="M40.4,32.4v1.2c0,.2-.1,.3-.3,.4l-14.2,8.2c-.4,.2-1.1,.2-1.5,0L1.7,29.1c-.2-.1-.3-.3-.3-.4v-1.2c0,.2,.1,.3,.3,.4l22.7,13.1c.4,.2,1.1,.2,1.5,0l14.2-8.2c.2-.1,.3-.3,.3-.4Z"/><path class="cls-6" d="M40.1,31.9c.4,.2,.4,.6,0,.9l-14.2,8.2c-.4,.2-1.1,.2-1.5,0L1.7,27.9c-.4-.2-.4-.6,0-.9l14.2-8.2c.4-.2,1.1-.2,1.5,0l22.7,13.1Z"/><path class="cls-20" d="M16.6,17.5c0,.5,.3,1.1,.8,1.3l22.7,13.1c.2,.1,.4,.1,.6,0l.9-.5c.1-.1,.2-.3,.2-.5V14.5c0-.5-.3-1.1-.8-1.3L18.4,.1c-.2-.1-.4-.1-.5-.1l-1,.6h0c-.2,.1-.3,.2-.3,.5V17.5Z"/><path class="cls-20" d="M16.9,.6c.1-.1,.3-.1,.5,.1l22.8,13.1c.4,.2,.8,.8,.8,1.3V31.5c0,.2-.1,.4-.2,.5l1-.6c.1-.1,.2-.3,.2-.5V14.5c0-.5-.3-1.1-.8-1.3L18.4,.1c-.2-.1-.4-.1-.5-.1l-1,.6Z"/><path class="cls-27" d="M17.5,.6c-.4-.2-.8,0-.8,.4V17.4c0,.5,.3,1.1,.8,1.3l22.6,13.2c.4,.2,.8,0,.8-.4V15.1c0-.5-.3-1.1-.8-1.3L17.5,.6Z"/><path class="cls-8" d="M17.2,17.5c0,.3,.2,.7,.5,.8l22,12.8c.3,.2,.6,0,.6-.4V15.1c0-.3-.2-.7-.5-.8L17.8,1.5c-.3-.2-.6,0-.6,.4v15.6Z"/><path class="cls-15" d="M19,36.5l4-2.3c.4-.3,.4-.8,0-1l-5.7-3.3c-.3-.2-.9-.2-1.2,0l-3.9,2.3c-.4,.3-.4,.8,0,1l5.7,3.3c.3,.2,.8,.2,1.1,0Zm-1.8-6.4l5.7,3.3c.3,.2,.3,.5,0,.7l-3.9,2.3c-.3,.2-.8,.2-1,0l-5.7-3.3c-.3-.2-.3-.5,0-.7l3.9-2.3c.2-.2,.7-.2,1,0Z"/><polygon class="cls-16" points="7.7 23.5 32 37.5 39.8 32.9 15.6 18.9 7.7 23.5"/><polygon class="cls-27" points="36.4 31.8 35.9 32.1 34.9 31.5 35.4 31.2 36.4 31.8"/><polygon class="cls-27" points="34.9 30.9 34.4 31.2 33.4 30.6 33.9 30.3 34.9 30.9"/><polygon class="cls-27" points="32.5 35.8 31.5 36.4 30.5 35.8 31.5 35.3 32.5 35.8"/><polygon class="cls-27" points="32.3 30.7 31.3 31.2 30.3 30.7 31.3 30.1 32.3 30.7"/><polygon class="cls-27" points="30.8 31.5 29.9 32.1 28.9 31.5 29.9 30.9 30.8 31.5"/><polygon class="cls-27" points="33.8 31.5 32.8 32.1 31.9 31.5 32.8 31 33.8 31.5"/><polygon class="cls-27" points="32.4 32.4 31.4 32.9 30.4 32.4 31.4 31.8 32.4 32.4"/><polygon class="cls-27" points="35.3 32.4 34.4 33 33.4 32.4 34.3 31.8 35.3 32.4"/><polygon class="cls-27" points="36.9 33.3 35.9 33.9 34.9 33.3 35.9 32.7 36.9 33.3"/><polygon class="cls-27" points="35.4 34.1 34.4 34.7 31.9 33.3 32.9 32.7 35.4 34.1"/><polygon class="cls-27" points="33.9 35 33 35.5 28.9 33.2 29.9 32.7 33.9 35"/><polygon class="cls-27" points="37.9 32.7 37.4 33 36.4 32.4 36.9 32.1 37.9 32.7"/><polygon class="cls-27" points="33.3 30 32.9 30.3 31.9 29.8 32.4 29.5 33.3 30"/><polygon class="cls-27" points="31.8 29.2 31.3 29.4 30.4 28.9 30.8 28.6 31.8 29.2"/><polygon class="cls-27" points="30.3 28.3 29.8 28.6 28.8 28 29.3 27.7 30.3 28.3"/><polygon class="cls-27" points="28.8 27.4 28.3 27.7 27.3 27.1 27.8 26.8 28.8 27.4"/><polygon class="cls-27" points="29.3 30.6 28.3 31.2 27.4 30.6 28.3 30.1 29.3 30.6"/><polygon class="cls-27" points="27.8 29.7 26.8 30.3 25.8 29.7 26.8 29.2 27.8 29.7"/><polygon class="cls-27" points="26.3 30.6 25.4 31.2 24.4 30.6 25.4 30 26.3 30.6"/><polygon class="cls-27" points="18.8 27.9 17.8 28.5 16.8 27.9 17.8 27.4 18.8 27.9"/><polygon class="cls-27" points="27.9 31.5 26.9 32 25.9 31.5 26.9 30.9 27.9 31.5"/><polygon class="cls-27" points="23.2 25.4 22.2 26 21.2 25.4 22.2 24.8 23.2 25.4"/><polygon class="cls-27" points="22.7 23.9 22.2 24.2 21.2 23.6 21.7 23.3 22.7 23.9"/><polygon class="cls-27" points="21.6 24.5 20.7 25.1 19.7 24.5 20.7 23.9 21.6 24.5"/><polygon class="cls-27" points="17.3 27 16.3 27.6 15.3 27 16.3 26.5 17.3 27"/><polygon class="cls-27" points="21.7 26.2 20.7 26.8 18.2 25.4 19.2 24.8 21.7 26.2"/><polygon class="cls-27" points="23.2 27.1 22.3 27.7 21.3 27.1 22.2 26.5 23.2 27.1"/><polygon class="cls-27" points="21.8 28 20.8 28.5 16.8 26.2 17.8 25.6 21.8 28"/><polygon class="cls-27" points="24.8 28 23.8 28.6 22.8 28 23.8 27.4 24.8 28"/><polygon class="cls-27" points="27.7 28 26.8 28.6 25.8 28 26.7 27.5 27.7 28"/><polygon class="cls-27" points="23.3 28.8 22.3 29.4 21.3 28.8 22.3 28.3 23.3 28.8"/><polygon class="cls-27" points="26.3 28.9 25.3 29.4 24.3 28.9 25.3 28.3 26.3 28.9"/><polygon class="cls-27" points="29.2 28.9 28.3 29.5 27.3 28.9 28.3 28.3 29.2 28.9"/><polygon class="cls-27" points="24.8 29.7 23.8 30.3 22.9 29.7 23.8 29.1 24.8 29.7"/><polygon class="cls-27" points="30.8 29.8 29.8 30.3 28.8 29.8 29.8 29.2 30.8 29.8"/><polygon class="cls-27" points="29.4 34.1 28.5 34.6 18.4 28.8 19.3 28.2 29.4 34.1"/><polygon class="cls-27" points="24.7 26.3 23.7 26.8 22.7 26.3 23.7 25.7 24.7 26.3"/><polygon class="cls-27" points="26.2 27.1 25.2 27.7 24.3 27.1 25.2 26.6 26.2 27.1"/><polygon class="cls-27" points="27.3 26.5 26.8 26.8 25.8 26.2 26.3 26 27.3 26.5"/><polygon class="cls-27" points="25.7 25.6 25.3 25.9 24.3 25.4 24.8 25.1 25.7 25.6"/><polygon class="cls-27" points="24.2 24.8 23.7 25.1 22.8 24.5 23.2 24.2 24.2 24.8"/><polygon class="cls-27" points="29.4 32.3 28.4 32.9 27.4 32.3 28.4 31.8 29.4 32.3"/><polygon class="cls-27" points="18.6 21.5 17.7 22.1 16.7 21.5 17.6 21 18.6 21.5"/><polygon class="cls-27" points="17.1 20.6 16.2 21.2 15.2 20.6 16.1 20.1 17.1 20.6"/><polygon class="cls-27" points="15.7 21.4 14.8 22 13.8 21.4 14.7 20.9 15.7 21.4"/><polygon class="cls-27" points="17.2 22.3 16.3 22.9 15.3 22.3 16.3 21.8 17.2 22.3"/><polygon class="cls-27" points="18.8 23.2 17.8 23.7 16.9 23.2 17.8 22.6 18.8 23.2"/><polygon class="cls-27" points="14.4 22.2 13.4 22.8 12.5 22.2 13.4 21.7 14.4 22.2"/><polygon class="cls-27" points="15.9 23.1 15 23.7 14 23.1 14.9 22.6 15.9 23.1"/><polygon class="cls-27" points="17.4 24 16.5 24.5 15.5 24 16.4 23.4 17.4 24"/><polygon class="cls-27" points="20.1 22.4 19.2 22.9 18.2 22.4 19.1 21.8 20.1 22.4"/><polygon class="cls-27" points="14.6 25.6 13.7 26.1 12.7 25.6 13.7 25 14.6 25.6"/><polygon class="cls-27" points="16 24.8 15.1 25.3 14.1 24.8 15 24.2 16 24.8"/><polygon class="cls-27" points="13 23 12.1 23.6 11.1 23 12 22.5 13 23"/><polygon class="cls-27" points="11.6 23.8 10.7 24.4 9.7 23.8 10.6 23.3 11.6 23.8"/><polygon class="cls-27" points="14.5 23.9 13.6 24.5 12.6 23.9 13.5 23.4 14.5 23.9"/><polygon class="cls-27" points="13.1 24.7 12.2 25.2 11.2 24.7 12.1 24.1 13.1 24.7"/><polygon class="cls-27" points="31 34.9 30 35.5 29 34.9 30 34.4 31 34.9"/><path class="cls-15" d="M15.5,34.5c.6,.3,1.5,.3,2,0,.6-.3,.6-.8,0-1.2-.6-.3-1.5-.3-2,0-.5,.4-.5,.9,0,1.2Z"/><g><path class="cls-7" d="M30.5,10.2c-.6-.1-.6-.2-.6,0-.2,0-.4-.4-.7-.3l.6,.9c-.2,0-.3,0-.1,.3v.2c0,.1,.1,.3,.2,.4s.1,.2,0,.2c-.1,.3,.2,.5,.6,.9,0,0,.1,.1,.1,.2,.1,.3,.4,.4,.5,.7,.1,.4,.1,.6,.3,.7,.1,0,.3,.1,.4,0s.2-.2,.3-.4c.1-.1,0-.3-.1-.5,.2,.1,.3-.1,.3-.3,0-.3,.2-.4,.5-.3h.1c.1,0,.1,.1,.2,.1,.1,.1,.2,.1,.3,0,.1,0,.1-.1,.2-.2l-.2-.2-.3-.3h.2l.1,.1c.1,.1,.2,.2,.3,.4,0,.1,.1,.2,.2,.3,.1,.1,.1,.2,.1,.3v.1c-.1,.2,0,.3,.1,.3s.1,0,.1,.1l.1,.1h-.1q-.1-.1-.2-.1c-.1-.1-.3-.1-.4,0s-.3,0-.4,0-.1,0-.1,.1c0,.2-.2,.2-.3,.2s-.1,.1,0,.2,.2,.3,.2,.4,.1,.2,.1,.2h.2c.2,0,.3-.1,.5,0l.1,.1h.1c-.1-.2-.3-.4-.4-.6h.1q.1,.1,.1,.2v-.1c0-.1,0-.2,.1-.1s.2,.1,.1,.2c0,.2,.1,.3,.2,.5-.1,0-.2,0-.3,.1,.1,.1,.2,.2,.3,.2s.1,0,.2,.1c0,0,.1,0,.1,.1l.3,.6c0,.1-.1,.2-.2,.2-.2,0-.4-.1-.6-.1,0,0,0,.1-.1,.1,0,.1-.1,.1-.1,.2h0v-.1c0-.1,0-.2-.1-.3-.1-.1-.1-.2,0-.3,.1,0,.1-.1,0-.2v-.3q0-.1-.1-.2s-.1,0-.1-.1c-.2-.1-.3-.1-.5-.1v.1l-.1,.1c0-.1-.1-.1-.1-.2s-.1-.2-.1-.2c0,0-.1,0-.1,.1s-.1,.2-.2,.3l-.1,.1c-.2,0-.3,.1-.2,.4,0,0,0,.1-.1,.1s-.1,.1-.1,.2c.1,0,.3,.1,.4,.1,0-.1-.1-.2-.1-.4l.3,.3c0,.1,.1,.2,.1,.2h-.1l-.1-.1-.1-.1c-.1,0-.1,.1,0,.2l.3,.3h.2c.1,.1,.2,.2,.1,.3,.3,.2,.4,.5,.4,.8,0,.1,.2,.4,.3,.5,.2,.2,0,.2,0,.5,0,0,0,.1,.1,.2h.1c.1-.1,0-.3,.2-.2,.1,.1,.2,0,.2,.2,0,.1,.2,.1,.3,.2,.3,.2,.3,1,0,.9-.1,0-.1-.1-.2-.2-.1-.2-.4-.4-.3-.2,0,.1,.1,.2,.1,.4-.2,0-.4-.3-.3,.2,0,.2-.1,.1-.2,.1-.2-.1-.3-.3-.5-.5s-.3-.1-.6-.2c-.1-.1-.2-.2-.3-.1-.1,.1-.2,.2-.4,.1-.2-.1-.3,.1-.3,.2,0,0,0,.1-.1,.1h-.4c-.2,0-.3-.1-.5-.1-.1,0-.1,.2,0,.4,.1,.3,.2,.5,.2,.8,0,.1,.1,.3,.1,.5,.1,.1,.2,.3,.3,.4,.1,.1,.2,.2,.2,.4,.1,.3,.2,.6,.5,.9,0,0,.1,.1,.1,.2,.1,.3,.2,.3,.4,.6,.1,.2,.2,.5,.3,.7-.3,.1,.4,.6,0,.8l.5,.3c.2-.3,.1-.6,0-1l-.3-2.1c0-.2,0-.3,.1-.3,.2,0,.3-.2,.4-.3,.1-.1,.2-.2,.2-.3,0-.2,0-.4-.2-.7-.1-.2-.1-.3,0-.4,.2,.2,.4,.2,.5,.1s.5-.1,.6-.1h.1c.2,.1,.4,.1,.5,.1s.1-.1,.1-.2,.1-.1,.1-.2c0,.1,.1,.2,.1,.3l.2-.2h0c.2,0,.2-.2,.3-.3l.1-.1c.3-.1,.4-.4,.4-.8,0-.2,0-.4,.2-.4,.1,0,.1-.1,.1-.2s.1-.1,.2-.1h0c.2-.2,.3-.4,.6-.3,.5,.1,.4,.3,1.4,1.4l.1,.1h.1c-.2-.2-.3-.4-.5-.6v-.1c.1,0,.1,.1,.2,.1h.3q-.1-.4-.2-.5h.3v-.1l-.3-.3h.2v-.1c-.2-.3-.4-.5-.7-.8-.1-.1-1.2-.4-1.3-.5h0l-.3-.3c-.1-.1-.2-.2-.3-.2-.2-.1-.3-.1-.5-.2q-.1,0-.2-.1c.1-.1,.1-.2,.1-.2,.1,.1,.1,.2,.2,.2,.1,.1,.2,0,.3,0,0-.1-.1-.3-.1-.5-.1,0-.1-.1-.2-.1-.1-.1-.3-.1-.4-.1s-.2,0-.4-.1c-.1,0-.1-.1-.2-.2s-.1-.1-.2-.1c0,.1,0,.2-.1,.3l-.1,.1q-.2,0,0,.3l.1,.1-.2-.1h0c-.1-.2-.1-.3-.2-.4h.4v-.1c-.1-.1-.1-.2-.2-.3,0,0-.1,0-.1-.1-.1,0-.1-.1-.2-.1v-.1q.1,0,.2,.1c.2,.1,.3,.1,.4,0-.2-.2-.3-.3-.5-.4h-.1c-.1,0-.1-.1-.2-.1,0,0-.1,0-.2-.1h0s-.1-.1-.1-.2h.1c.2,.1,.3,0,.4-.1,.1,0-.1-.3-.2-.4-.2-.2-.5-.4-.7-.6s-.4-.3-.6-.4c-.4-.2-.7-.4-1-.4-.1,0-.2-.1-.3-.2q-.2-.1-.3-.2h0c-.2,0-.3-.3-.5-.4-.3-.1-.3-.2-.5-.4q.1,0,.2,.1l.2-.7Zm-8.2,4.5v.3q.1,0,.2-.1v.2h0v-.3l-.2-.1Zm.1-1.5c-.2-.1-.2,0-.1,.2-.1,0-.3,0-.2,.3q.1-.2,.3-.1c.1-.1,.1-.3,0-.4,.1,0,0,0,0,0Zm2.7,2.3v.2s.1,0,.1,.1l-.1-.3h0Zm-2.4-1.3s-.1,0-.1,.1c.1,.2,.1,.3,0,.3,.1,.1,.1,.4,.2,.5q.4,.2,.5-.1s-.1-.1-.1-.2c-.3-.2-.4-.4-.5-.6Z"/><path class="cls-7" d="M23.6,7.3h0c-.2-.1-.4-.1-.6-.1s-.2,0-.1,.3c.1,.1,0,.1-.1,.1-.1-.1-.3-.2-.4-.1h0s-.1,0-.1-.1l-.3-.3c-.1-.1-.2,0-.3,.2h-.1q0-.1-.1-.2c-.1,0-.2,0-.3-.1-.1-.1-.2-.2-.3-.6h-.3c-.2,0-.3-.1-.5,0-.1,.1-.5-.4-.6-.2h-.1c-.2-.1-.4-.3-.6-.4-.6-.3-.8-.2-1-.2h-.3v.2l.1,.1c0,.1,.1,.2,.1,.2,.2,.1,.2-.2,.5,.3v.1s0,.1,.1,.2c.2,.1,.4,.4,.6,.6h.2c.3,.2,.2,.5,.4,.8,.1,.1,.3,.5,.4,.7,.1-.4,.2-.7-.1-1-.2-.2-.1-.6,.1-.2,0,.1,.1,.2,.1,.3,.1,0,.2,.1,.3,.1s.1,0,.2,.1c.3,.2,.5,.5,.7,.9-.1,0-.2,0-.4-.1,0,.1-.1,.3-.1,.4,.2,.1,.1,.2,.1,.3l.1,.1q-.1,.1-.2,.1c.1,.1,.1,.2,.2,.2h0c0,.2,0,.4,.1,.6,0,.1,.1,.2,.1,.3l.3,.3c.1,.1,.1,.2,.2,.3,0,0,.1-.1,.1-.2l-.4-.4c-.1-.1-.2-.2-.3-.4-.1-.1,0-.2-.1-.3v-.2c-.1-.2-.2-.7-.1-.9,0,.4,.2,.7,.4,1,0,.1,.1,.2,.1,.2,.2,.1,.3,.3,.4,.5,0,0-.1,.1-.1,.2s0,.2,.1,.3q.2,.2,.2,0c0-.1,.1-.1,.1-.2l.1,.1q-.1,.1,0,.2c.1,.1,.1,.2,0,.2,0,.1-.1,.2-.1,.3,.1,.3,.2,.6,.5,.9,.1,.1,.3,.3,.4,.5,0,0,.1,0,.1,.1v-.2c.1,.1,.2,.1,.1,.3h-.1c-.3,.2,0,.6,.2,.8,.1-.1,.2-.1,.2-.2,.3,.5-.3,.2-.2,.8v.1q-.1,.1-.1,.3h-.3l-.1-.1c-.2-.1-.4-.1-.5-.1q.1,.1,.2,.1c.2,.1,.4,.2,.7,.3,.3,.1,.6-.4,.8-.6h-.3c.2-.5,.2-.3,.2-.9q.2,.2,.3,0c0-.1,.1-.1,.2-.2,.2,.1,.3,.3,.4,.5,.2,.2,.3,.5,.3,.7,0,0,0,.1,.1,.2,0,.1,.1,.2,.2,.2l.1-.1,.3-.6c.1,0,.2-.1,.2-.1,.1,0,.1-.1,.3,0,.1,0,.1,.1,.1,.1,.1,.1,.2,.1,.3,.2q-.2,.1-.1,.4c.2,.4,.5,.7,.8,1l.2,.2h0c-.1-.1-.2-.2-.4-.3h-.2v.2c.1,.3,.2,.6,.4,.9,.1,.2,.2,.3,.3,.5,.1,.2,.1,.4,0,.5,0,.1-.1,.2-.1,.4s.3,.5,.3,.6c.1,.3-.1,.3,.2,.6,.1,.1,.1,.5,.4,1,.2,.2,.4,.3,.5,.4l.1-.1c.1-.1,.1-.2,.1-.3s.2-.6,.2-.6c.3-.3-.3-.8,.1-1.2,.1-.1,.2-.2,.1-.4v-.1h.2c.3,0,.4,.3,.7,.5,.2,.1,.3,.1,.5,0,.1-.1,.4-.1,.3-.4,0-.4,.1-.8-.2-1.3,0-.1-.1-.1-.1-.1l-.3-.6c0-.1-.1-.1-.1-.2q.2,0,.2-.3v-.1c0-.1,0-.2-.1-.3-.1,0-.1-.1-.1-.1-.1,0-.1-.1-.2-.1q0-.2,.1-.3h.1c-.1-.1-.2-.2-.2-.3,.1,0,.1,.1,.2,.1,0-.2-.1-.3-.1-.5,.2,.1,.1,.4,.4,.5v-.3l-.3-.3v-.1c0-.1-.1-.2-.2-.3h-.1c.1,.3-.1,.2-.2,.4,0,.1-.1,.1-.1,.1-.4-.6-.3-.4-.4-.8,.3,0,.3-.4,.1-.6-.3-.3-.4-.7-.6-1,0-.1-.1-.2-.1-.2-.2-.3-.6-.8-.9-.8-.8,0-.7,0-.9,.1v-.3c-.1,0-.2-.1-.2-.1-.2,.1-.4-.4-.6-.4-.1,0-.2-.1-.2-.2,0,0,0-.1-.1-.2-.1,0-.3-.1-.4-.2q0-.1-.1-.3s0-.1-.1-.1c-.1-.2-.1-.3-.2-.3h-.2q0-.1-.1-.2l-.1,.1c-.1,0-.1-.1-.2-.2,0-.2-.1-.2-.2-.3h-.1c-.1,0-.1-.1-.1-.2,0,0-.1-.1-.1-.2-.2-.2-.4-.4-.6-.5h-.1l-.3-.3c.6,.1,.6,0,.5-.1Z"/><path class="cls-7" d="M22.3,13.7h-.1s-.1,0-.1,.1c0,0,0,.1,.1,.2h.2c-.1-.1-.1-.2-.1-.3Zm-1.1-7.4h0c-.1-.1-.3-.1-.4-.2v.1c0,.1,.1,.1,.1,.2,.1,.1,.2,.1,.3,.2h.1v-.1c0-.2-.1-.2-.1-.2Z"/><path class="cls-7" d="M35,13.8q-.1,0-.2,.1l.1,.1c.1,.1,.2,0,.3,0-.1-.2-.2-.2-.2-.2Zm1.3,.9s-.1,0-.1,.1-.2,0-.3,0c0-.1-.1-.2-.1-.2h-.2s-.1,0,0,0c0,0,0,.1,.1,.1,.2,.1,.3,.3,.5,.4h0c.1,0,.2,.1,.2,0,.1,0,.2,0,.3,.1h.2c-.3-.1-.4-.3-.6-.5,.1,.1,0,0,0,0Z"/><path class="cls-7" d="M35.5,13.9c-.2-.1-.3-.1-.4,0q0,.1,.1,.2h.3c.1,0,.1-.1,.2-.1q-.2,0-.2-.1Zm-11.3-6.8h-.2q0,.1-.1,.1s0,.1-.1,.1q-.1-.1-.1-.2h-.2q.1,.1,.1,.2l.3,.1v-.1c.2,0,.4,.1,.6,.1v-.1c-.1,0-.2-.1-.3-.2h0Zm9,12.2h-.2c.2,.1,.3,.2,.5,.3-.2-.2-.2-.3-.3-.3Zm.7,.1c-.1-.1-.3-.1-.5,0,.1,0,.1,.1,.1,.1h.2c.1-.1,.3,0,.4,.2,0-.2-.1-.2-.2-.3Zm2-5.1h-.1c0,.1,.1,.2,.1,.3h0q.1,0,.2,.1c0-.2-.1-.3-.2-.4,.1,0,0,0,0,0ZM20.7,6.1c-.1,0-.2-.1-.3-.1v.1h.3Z"/><path class="cls-27" d="M22.3,17.3c.1,0,.5-.1,.4-.1,.1,0,.1-.1,.1-.1,0-.1-.1-.1-.1-.1l-.4,.1c-.1,0-.1,.1,0,.2-.1,0,0,0,0,0Zm1.2-.2c.2,0,1-.2,.9-.2,.1,0,.1-.1,.1-.1,0-.1-.1-.1-.1-.1l-.9,.2c-.1,0-.1,.2,0,.2Zm1.7-.4c.2,0,1-.2,.9-.2,.1,0,.1-.1,.1-.1,0-.1-.1-.1-.1-.1l-.9,.2s-.1,.1,0,.2h0Zm1.8-.4h.3c.1,0,.1-.1,.1-.1,0-.1-.1-.1-.1-.1l-.4,.1,.1,.1q-.1,0,0,0Zm3.1,1.2l-.2-.3h-.1v.1l.2,.3c.1,.1,.2,0,.1-.1Zm4.2,5.1c-.5-.5-.5-.8-.6-.7v.1l.5,.6c0,.2,.1,.1,.1,0Zm-1.1-1.3l-.5-.6h-.1v.1l.5,.6c.1,.1,.2,0,.1-.1Zm-1-1.3l-.5-.6h-.1v.1l.5,.6c0,.1,.2,0,.1-.1Zm-1-1.3l-.5-.6h-.1v.1l.5,.6c0,.1,.1,0,.1-.1Zm3.8,4.8l-.2-.3h-.1v.1l.2,.3c0,.1,.2,0,.1-.1Zm-5.1-7c.2-.1,.4-.1,.4-.3l-.1-.1-.3,.1-.1,.1q0,.2,.1,.2Zm.9-.4l.6-.2,.1-.1-.1-.1-.6,.2c-.2,.1-.1,.2,0,.2Zm1.2-.5h0l.6-.2,.1-.1-.1-.1-.6,.2q-.1,.1,0,.2c-.1,0,0,0,0,0Zm1.2-.4h0l.4-.1,.1-.1-.1-.1-.3,.1c-.2,0-.2,.1-.1,.2-.1,0,0,0,0,0Zm-6.1,.1h0c.1,0,.1-.1,.1-.1l-.2-.3s-.1-.1-.1,0c0,0-.1,.1,0,.1l.2,.3c-.1,0,0,0,0,0Zm-.5-1h0c.1,0,.1-.1,.1-.1l-.4-.7s-.1-.1-.1,0c0,0-.1,.1,0,.1l.4,.7q-.1,0,0,0Zm-.8-1.4q.1,0,0,0c.1,0,.1-.1,.1-.1l-.4-.7s-.1-.1-.1,0c0,0-.1,.1,0,.1l.4,.7h0Zm-.7-1.3s.1,0,0,0c.1,0,.1-.1,.1-.1l-.4-.7s-.1-.1-.1,0c0,0-.1,.1,0,.1l.4,.7h0Zm-.6-1.5l-.2-.3s-.1-.1-.1,0c0,0-.1,.1,0,.1l.1,.3c.1,.1,.2,0,.2-.1Zm-1.8-.1l.1-.4s0-.1-.1-.1c0,0-.1,0-.1,.1l-.1,.4c0,.1,.2,.1,.2,0Zm-1.4,4.5l.2-.7c0-.1-.1-.2-.2-.1l-.2,.7c0,.2,.2,.2,.2,.1Zm.5-1.5l.2-.8c0-.1-.1-.2-.2-.1l-.2,.7c0,.3,.1,.3,.2,.2Zm.5-1.5l.2-.7s0-.1-.1-.1c0,0-.1,0-.1,.1l-.2,.7c-.1,.1,.1,.1,.2,0Zm-1.4,4.1l.2-.4c0-.1-.1-.2-.2-.1l-.1,.4c-.1,.2,.1,.2,.1,.1Zm14,1.2h0c.1,0,.1-.1,.1-.1l-.1-.4c0-.1-.1-.1-.1-.1-.1,0-.1,.1-.1,.1l.2,.5c-.1-.1,0,0,0,0Zm1,4.8l-.2-.8c0-.1-.1-.1-.1-.1-.1,0-.1,.1-.1,.1l.2,.8c0,.2,.2,.1,.2,0Zm-.3-1.6l-.2-.8c0-.1-.1-.1-.1-.1-.1,0-.1,.1-.1,.1l.2,.8c0,.1,.2,.1,.2,0Zm-.3-1.7l-.2-.8c0-.1-.1-.1-.1-.1-.1,0-.1,.1-.1,.1l.2,.8c0,.2,.2,.1,.2,0Zm.8,4.5l-.1-.4c0-.1-.1-.1-.1-.1-.1,0-.1,.1-.1,.1l.1,.4c.1,.2,.2,.1,.2,0Zm-1.3,1.8l-.3-.2h-.1v.1l.3,.2c.1,.1,.2-.1,.1-.1Zm-1-.6l-.7-.4h-.1v.1l.7,.5c.1,.1,.2-.1,.1-.2Zm-1.4-.7l-.7-.4h-.1v.1l.7,.5c.1,0,.2-.1,.1-.2Zm-1.4-.7l-.7-.4h-.1v.1l.7,.4c.1,.1,.2-.1,.1-.1Zm-1.4-.8l-.7-.4h-.1v.1l.7,.4c.2,.1,.2,0,.1-.1Zm-1.3-.7l-.7-.4h-.1v.1l.7,.4c.1,.1,.2-.1,.1-.1Zm-1.4-.8l-.7-.4h-.1v.1l.7,.4c.1,.1,.2,0,.1-.1Zm-1.4-.7l-.7-.4h-.1v.1l.7,.4c.1,.1,.2-.1,.1-.1Zm-1.4-.8l-.7-.4h-.1v.1l.7,.4c.1,.2,.2,0,.1-.1Zm-1.4-.7l-.3-.2h-.1v.1l.3,.2c.2,.1,.2,0,.1-.1Zm10.5-4.4v-.1l-.3-.2h-.1v.1l.3,.2h.1Zm-.9-.6v-.1l-.6-.4h-.1v.1l.6,.5s.1,0,.1-.1Zm-1.2-.7v-.1l-.6-.4h-.1v.1c.4,.3,.7,.6,.7,.4Zm-1.2-.8l-.6-.4c-.1-.1-.2,.1-.1,.2l.6,.4c.1,0,.2-.1,.1-.2Zm-1.2-.7l-.6-.4c-.1-.1-.2,.1-.1,.2l.6,.4c.2,0,.2-.1,.1-.2Zm-1.1-.7l-.6-.4c-.1-.1-.2,.1-.1,.2l.6,.4c.1,0,.2-.1,.1-.2Zm-1.2-.7l-.6-.4h-.1v.1l.6,.5c.1,0,.2-.1,.1-.2Zm-1.2-.7l-.3-.2h-.1v.1l.3,.2c.1,.1,.2,0,.1-.1Z"/><g><path class="cls-21" d="M34.4,15.3c-.1-.1-.2-.3-.2-.4v.4l.2,.1v-.1Z"/><path class="cls-23" d="M34.8,13.2c-.4-.2-.7-.1-.8,.3v1.4c0,.1,.1,.3,.2,.3h0l.1,.1v-1.1c-.1,0,0,0,.1,0,0,0,.1,0,.1,.1,.1,0,.2,0,.3-.1v-.1c0-.1,.1-.1,.2-.1h0c.1,0,.2,.1,.2,.2,.1,.2,.1,.3,.1,.5v1.2l.2,.1h0c.1,.1,.2,0,.2-.1h0v-1.5c-.2-.5-.6-1-.9-1.2Z"/><path class="cls-1" d="M35,14h0c-.1-.1-.2,0-.2,0v.1c0,.1-.2,.2-.3,.1,0,0-.1,0-.1-.1-.1,0-.1-.1-.2-.1v.7c.1,.2,.2,.3,.2,.4l.3,.3c.1,.1,.2,.1,.3,.1s.1,0,.2-.1v-.9c0-.1,0-.3-.1-.4,.1,.1,0,0-.1-.1Z"/><path class="cls-26" d="M34.3,15.5v.1c0,.2,.2,.6,.5,.7s.5,.1,.5-.2v-.1l-.1-.1c0,.2-.1,.3-.3,.2h0c-.2-.1-.3-.3-.3-.6h-.3Z"/><path class="cls-10" d="M34.4,15.3v.3h0c0,.2,.1,.5,.3,.6h0c.2,.1,.3,0,.3-.2h0v-.3c-.1,0-.2,0-.3-.1l-.3-.3Z"/><path class="cls-21" d="M35.3,15.6q-.1,.1-.2,.1v.1l.2,.1v-.3h0Z"/><path class="cls-29" d="M34,15.4h0c-.3-.1-.5-.1-.6,.1,.3,.6,.8,1.1,1.3,1.4s1,.3,1.3,.1c-.1-.3-.3-.6-.6-.8h0l-.3-.2v.1c0,.2-.2,.3-.5,.2-.3-.1-.5-.5-.5-.7v-.1l-.1-.1Z"/><path class="cls-24" d="M34.8,12.5c-1-.6-1.9-.1-1.9,1.1,0,.6,.2,1.3,.6,1.9,.1-.2,.3-.3,.6-.1h0l.2,.1,.1,.1h0v-.2l-.4-.2h0c-.1-.1-.2-.2-.2-.3v-1.4c.1-.4,.5-.5,.8-.3,.4,.2,.7,.8,.8,1.2,.1,.2,.1,.4,0,.7v.8h0c0,.1-.1,.2-.2,.1h0l-.4-.2v.2h0l.1,.1,.6,.1h0c.3,.2,.5,.5,.6,.8,.4-.2,.6-.6,.6-1.2,0-1.2-.9-2.7-1.9-3.3Z"/><path class="cls-9" d="M36.5,25.7c0,.2-.1,.3-.3,.2h0c-.2-.1-.3-.3-.3-.5h-.1s-.1,.1-.1,.2v.2s0,.1,.1,.1h.4l.4,.5h.1v-.2c0-.1,0-.2-.1-.3-.1-.1-.1-.2-.1-.2Z"/><path class="cls-10" d="M35.8,25v.3h0c0,.2,.1,.4,.3,.5h0c.2,.1,.3,0,.3-.2h0v-.3c-.1,0-.2,0-.3-.1-.1,.1-.2,0-.3-.2Z"/><path class="cls-2" d="M34.9,25.1l-.1,.2c.3,.6,.8,1.1,1.3,1.4s1,.3,1.3,.2l-.1-.3c0-.2-.2-.3-.3-.4l-.5-.3c0,.1,.1,.2,.1,.3v.2h-.1l-.4-.5h-.4l-.1-.1v-.2c0-.1,0-.2,.1-.2-.3-.2-.7-.6-.8-.3Z"/><path class="cls-1" d="M36.6,23.9c-.1,0-.3,0-.4-.1l-.1-.1c-.2-.1-.3-.1-.4-.1s-.1,.1-.1,.2v.2h0v-.1s0-.1-.1-.2c0,0-.1,.1,0,.2,0,.1,.1,.3,.2,.3,.1,.3,.2,.5,.3,.7l.3,.3c.1,.1,.2,.1,.3,.1,.2,0,.3-.1,.4-.3,.1,0,.2,0,.2-.1s0-.2-.1-.3v.1c0-.2-.1-.4-.2-.7-.3,0-.3-.1-.3-.1Z"/><path class="cls-23" d="M35.3,23.4h0c0,.2,0,.3,.1,.4,0,.1,.1,.2,.1,.2v.1h0v-.2c0-.1,.1-.2,.1-.2,.1,0,.3,0,.4,.1l.1,.1c.1,.1,.3,.1,.4,.1l.1,.1c.1,.3,.2,.4,.2,.7v-.9c0-.1-.1-.1-.1-.1h-.1c-.2-.9-1.3-1.3-1.3-.4Z"/><path class="cls-3" d="M36.2,22.4c-1-.6-1.9-.1-1.9,1.1,0,.6,.2,1.3,.6,1.9,.1-.1,.1-.5,.4-.3l.5,.3h.1v-.3c-.2-.2-.3-.5-.3-.7-.1-.1-.1-.2-.2-.3v-.2c0-.1-.1-.3-.1-.4h0c0-.9,1.1-.5,1.4,.4h.1l.1,.1v.8c.1,.1,.1,.2,.1,.3s-.1,.2-.2,.1c-.1,.2-.2,.3-.4,.3v.3h0s.1,.1,.1,.2l.6,.2c.1,.1,.2,.2,.3,.4l.1,.3c.4-.2,.6-.6,.6-1.2-.1-1.2-.9-2.7-1.9-3.3Z"/><path class="cls-30" d="M21.3,17.7c0,.2-.1,.3-.3,.2h0c-.2-.1-.3-.3-.3-.5h-.1s-.1,.1-.1,.2v.2s0,.1,.1,.1h.4l.4,.5h.1v-.2c0-.1,0-.2-.1-.3,0-.1,0-.2-.1-.2Z"/><path class="cls-10" d="M20.7,17v.3h0c0,.2,.1,.4,.3,.5h0c.2,.1,.3,0,.3-.2h0v-.3c-.1,0-.2,0-.3-.1-.1,0-.2-.1-.3-.2Z"/><path class="cls-4" d="M20.1,17c-.1-.1-.2,0-.3,.1l-.1,.2c.3,.6,.8,1.1,1.3,1.4s1,.3,1.3,.2l-.1-.3c0-.2-.2-.3-.3-.4l-.5-.3c0,.1,.1,.2,.1,.3v.2h-.1l-.4-.5h-.4l-.1-.1v-.2c0-.1,0-.2,.1-.2l-.5-.4Z"/><path class="cls-1" d="M21.5,15.9c-.1,0-.3,0-.4-.1-.1,0-.3-.2-.5-.1-.1,.1-.1,.2-.2,.4h0v-.1s0-.1-.1-.2c0,0-.1,.1,0,.2,0,.1,.1,.3,.2,.3,.1,.3,.2,.5,.3,.7l.3,.3c.1,.1,.2,.1,.3,.1,.2,0,.3-.1,.4-.3,.1,0,.2,0,.2-.1s0-.2-.1-.3v.1c0-.2-.1-.4-.2-.7l-.2-.2Z"/><path class="cls-25" d="M20.2,15.4h0c0,.3,.1,.5,.1,.6v.1h0v-.2c0-.3,.3-.3,.6-.2l.1,.1c.1,.1,.3,.1,.4,.1l.1,.1c.1,.3,.2,.4,.2,.7v-.2c.1-.2,0-.8-.1-.9h-.1c-.2-.7-1.3-1.1-1.3-.2Z"/><path class="cls-7" d="M21,14.4c-1-.6-1.9-.1-1.9,1.1,0,.6,.2,1.3,.6,1.9l.1-.2c0-.1,.2-.1,.3-.1l.5,.3h.1v-.3c-.2-.2-.3-.5-.3-.7-.1-.1-.1-.2-.2-.3v-.2c0-.1-.1-.3-.1-.4h0c0-.9,1.1-.5,1.4,.4h.1c.2,.1,.2,.6,.1,.9v.1c.1,.1,.1,.2,.1,.3s-.1,.2-.2,.1c-.1,.2-.2,.3-.4,.3v.3h0s.1,.1,.1,.2l.5,.3c.1,.1,.2,.2,.3,.4l.2,.1c.4-.2,.6-.6,.6-1.2,0-1.3-.8-2.7-1.9-3.3Z"/><path class="cls-20" d="M28.1,17h-.1c-.1,0-.2,.1-.3,.2l.2,.2h-.2l.2,.5c.1,0,.1,.1,.2,.1s.1,.1,.2,.1l-.1-.7-.1-.3q0,.1,0-.1h0Z"/><path class="cls-12" d="M27.2,16.8l-.1,.3c.2,.4,.5,.7,.8,1,.1,0,.1,.1,.2,.1s.1,.1,.2,.1h0l.1,.1,.1,.1h0c.1,0,.1,.1,.2,.1h.2c.3,.1,.6,.1,.8-.1l-.1-.4c0-.2-.2-.3-.3-.4l-.5-.3h0c.1,.2,.2,.3,.3,.6h-.2l.2,.3-.2,.2q-.1,0-.2-.1c-.1,0-.1-.1-.2-.1h0s-.1,0-.1-.1l-.1-.1h0c-.1,0-.1-.1-.2-.1s-.1-.1-.2-.1l-.2-.5h.2l-.2-.2c.1-.1,.2-.2,.3-.2h0c-.3-.1-.7-.5-.8-.2Z"/><g><path class="cls-11" d="M28.7,17.4c0,.1-.1,.2-.3,.1h0c-.1-.1-.3-.3-.3-.4h0v.2l.1,.3h.3l.3,.4,.1-.2c-.1-.2-.2-.3-.2-.4h0Z"/><path class="cls-20" d="M28.7,17.4h0v.3l-.1,.2-.1,.5c.1,0,.1,.1,.2,.1h.2l.2-.2-.2-.3h.2l-.3-.6c0,.1-.1,0-.1,0Z"/><path class="cls-10" d="M28.1,16.8v.1h0c0,.2,.1,.4,.3,.4h0c.1,.1,.3,0,.3-.1h0v-.1c-.1,0-.2,0-.3-.1-.1,0-.2-.1-.3-.2Z"/></g><path class="cls-8" d="M28.3,17.9h0l-.1,.5,.1,.1,.1,.1-.1-.5h0v-.2Z"/><polygon class="cls-8" points="28.3 17.6 28.3 17.7 28.3 17.8 28.3 17.8 28.5 17.9 28.5 17.9 28.5 17.8 28.5 17.7 28.3 17.6"/><path class="cls-18" d="M27.7,15.9h0c0,.2,.1,.4,.2,.6-.1-.2-.2-.4-.2-.6Z"/><path class="cls-22" d="M28.2,14.8c-.1,0-.2-.1-.3-.1s-.2,0-.2,.1c-.1,.1-.1,.3-.1,.4v.2c0,.2,.1,.4,.2,.6,0-.2,0-.4,.1-.5v-.2h.2s.1,0,.1,.1h.1c.4,.3,.6,.2,.7,.4q0,.1,.1,.2c0,.3,.1,.5,.1,.8,.1-.1,.1-.2,.1-.4v-.4c0-.1,0-.2-.1-.3,0-.1-.1-.2-.2-.2h0v-.2c0-.1-.1-.2-.2-.2-.2-.2-.4-.3-.6-.3Z"/><g><path class="cls-8" d="M28.4,17.6h-.3l.1,.7h0l.1-.4h0l.1,.1h0l.1,.5h0l.1-.5-.2-.4Zm-.1,.2v-.1h0l.2,.1v.2h0l-.2-.2h0"/><path class="cls-1" d="M28.2,15.4h0c-.1-.1-.2-.1-.2-.1h-.2v.2c0,.2,0,.4-.1,.5-.1-.2-.1-.4-.2-.6l-.1,.1c0,.1,.1,.3,.1,.3,0,.2,.1,.4,.2,.6,.1,.1,.1,.2,.2,.3l.3,.3c.3,.2,.4,.2,.5,.2,.2,0,.3-.1,.4-.4h0c.1,.1,.2-.2,.1-.4,0,.1-.1,.3-.1,.4,0-.3-.1-.5-.1-.8q0-.1-.1-.2c-.1-.2-.2-.1-.7-.4Z"/><path class="cls-29" d="M28.4,14c-1-.6-1.9-.1-1.9,1.1,0,.6,.2,1.3,.6,1.9h0l.1-.3c.1-.3,.5,.1,.8,.2h.1v-.1c-.1-.1-.2-.2-.2-.3-.1-.2-.2-.4-.2-.6-.1-.1-.1-.2-.1-.3s0-.1,.1-.1v-.2c0-.2,0-.3,.1-.4s.1-.1,.2-.1,.2,0,.3,.1c.2,.1,.4,.1,.5,.3l.2,.2c0,.1,.1,.2,0,.2,.1,.1,.2,.1,.2,.2s.1,.2,.1,.3v.4c.1,.2,0,.4-.1,.4h0c-.1,.2-.2,.4-.4,.4v.1h0l.1,.1,.4,.3c.1,.1,.2,.2,.3,.4l.1,.4h0c.4-.2,.6-.6,.6-1.2,0-1.3-.8-2.7-1.9-3.4Z"/></g><g><path class="cls-10" d="M22.8,8.6v.3c0,.2,.2,.5,.3,.6,.2,.1,.3,0,.3-.2v-.3c-.1,0-.2,0-.3-.1,0,0-.2-.1-.3-.3Z"/><path class="cls-29" d="M23.2,5.8c-1-.6-1.9-.1-1.9,1.1,0,1.1,.6,1.9,.7,2,.2-.3,.5-.3,.9-.1v-.2s-.1,0-.3-.1c-.1-.1-.3-.2-.4-.4,0,0,.3,0,.2-.5,0-.1-.3-1.5,.5-1,0,0,.2-.1,.5,0,.2,.1,.4,.3,.5,.6,0,0,.4,.6,.1,1.3,0,0-.1,.3,.3,.8,0,0,0,.1-.3,0-.1-.1-.2-.2-.4-.3v.2c.3,.2,.5,.4,.7,.7,0,.2,0,.3,.1,.5h.1c1.2-.7,.4-3.6-1.3-4.6Z"/><path class="cls-12" d="M22.8,8.8c-.4-.2-.7-.2-.9,.1,.3,.5,.8,1,1.2,1.2,.5,.3,.9,.3,1.2,.2,0-.1-.1-.3-.2-.4-.2-.3-.4-.6-.7-.7v.1c0,.2-.2,.3-.3,.2-.2-.1-.3-.4-.3-.6v-.1Z"/><path class="cls-1" d="M22.8,7.1s-.3,0-.3,.5c0,0,0,.6,.3,1l.3,.3c.1,.1,.2,.1,.3,.1,0,0,.4-.2,.2-.8,0,0-.1-.2-.3-.4-.2-.1-.3-.3-.4-.5,0,0-.1-.1-.1-.2Z"/></g><path class="cls-23" d="M23.3,6.6c-.3-.2-.5,0-.5,0-.8-.4-.5,1-.5,1,.1,.4-.2,.5-.2,.5l.4,.4c.2,.1,.3,.1,.3,.1-.3-.4-.3-1-.3-1,0-.5,.3-.5,.3-.5,0,.1,.1,.2,.1,.3,.1,.2,.3,.3,.4,.5,.2,.2,.3,.4,.3,.4,.3,.6-.2,.8-.2,.8,.2,.2,.3,.3,.4,.3,.3,.1,.3,0,.3,0-.4-.5-.3-.8-.3-.8,.2-.8-.1-1.3-.1-1.3-.1-.4-.3-.6-.4-.7Z"/></g></g><g><path class="cls-13" d="M48.6,16.3h0c0-.1,.1-.1,0,0,.1-.1,0-.1,0,0Z"/><path class="cls-13" d="M40.7,11.4c0,.2,.2,.5,.3,.6l2.3,1.3,1.3,2.3,1.4-.8,2.4,1.4c.1,0,.2,.1,.3,0,0,0,.1,0,.1-.1,0,0,0,.1-.1,.1l.6-.3v-5.2c0-.2-.2-.5-.3-.6l-7.3-4.2c-.1-.1-.2-.1-.2,0l-.6,.3h0c-.1,0-.1,.1-.1,.2l-.1,5Z"/><path class="cls-13" d="M48.6,16.3h0c0-.1,.1-.1,0,0,.1-.1,0-.1,0,0Z"/><g><path class="cls-13" d="M40.9,6.2h.2l7.3,4.2c.2,.1,.3,.4,.3,.6v5c0,.1,0,.2-.1,.2l.6-.3c.1,0,.1-.1,.1-.2v-5c0-.2-.2-.5-.3-.6l-7.3-4.2c-.1-.1-.2-.1-.2,0l-.6,.3Z"/><path class="cls-14" d="M41.1,6.2c-.2-.1-.3,0-.3,.2v5c0,.2,.2,.5,.3,.6l2.3,1.3,1.3,2.3,1.3-.8,2.4,1.4c.2,.1,.3,0,.3-.2v-5c0-.2-.2-.5-.3-.6l-7.3-4.2Z"/></g><path class="cls-8" d="M46.8,11.9c-.3-.2-.6,0-.6,.3,0,.4,.3,.8,.6,1,.3,.2,.6,0,.6-.3,0-.4-.3-.8-.6-1Zm-2.1-1.2c-.3-.2-.6,0-.6,.3,0,.4,.3,.8,.6,1,.3,.2,.6,0,.6-.3s-.2-.8-.6-1Zm-2-1.2c-.3-.2-.6,0-.6,.3,0,.4,.3,.8,.6,1s.6,0,.6-.3-.3-.8-.6-1Z"/></g><g><path class="cls-28" d="M44.8,37.8v.7c0,.5-.3,1-1,1.4-1.3,.8-3.5,.8-4.8,0-.6-.4-1-.9-1-1.4v-.7h0c0-.5,.3-1,1-1.4,1.3-.8,3.5-.8,4.8,0,.6,.4,1,.9,1,1.4Z"/><path class="cls-28" d="M38,37.8v.7c0,.5,.3,1,1,1.4,1.3,.8,3.5,.8,4.8,0,.7-.4,1-.9,1-1.4v-.7c0,.5-.3,1-1,1.4-1.3,.8-3.5,.8-4.8,0-.7-.4-1-.9-1-1.4Z"/><path class="cls-31" d="M39,36.4c-1.3,.8-1.3,2,0,2.8s3.5,.8,4.8,0,1.3-2,0-2.8c-1.3-.7-3.5-.7-4.8,0Z"/><path class="cls-8" d="M42.9,37.6s0,.1,0,0q-.1,.1-.2,.1h-.1l-.4-.3-.4,.3h-.2s-.1,0-.1-.1v-.1l.4-.3-.4-.2s-.1,0-.1-.1v-.1h.2l.4,.3,.4-.3h.2v.1l-.1,.1-.4,.3,.8,.3h0Zm-.6,.7s0,.1,0,0l-.9,.6h-.2s-.1,0-.1-.1c0,0,0-.1,.1-.1l.3-.2-1.4-.8-.1,.2-.1,.1h-.2c-.1,0-.1-.1,0-.1l.2-.3,.1-.1h.3l1.6,.9,.3-.2h.1q-.1,0,0,.1h0Z"/></g><g><path class="cls-17" d="M15.25,9.61c0,.3-.2,.7-.5,.8l-6.4,3.7c-.8,1-1.6,1.8-2.4,2.2l-.5-.3c.5-.8,1-1.7,1.4-2.6q0-.1,0,0v-3.8c0-.3,.2-.7,.5-.8l6.9-4c.1-.1,.3-.1,.3,0l.5,.3h0c.1,0,.1,.1,.1,.3l.1,4.2Z"/><path class="cls-17" d="M6.05,16.31l-.5-.3c.5-.8,1-1.7,1.4-2.6l.5,.3c-.4,.9-.9,1.8-1.4,2.6Z"/><path class="cls-5" d="M15.15,5.01h-.3l-6.9,4c-.4,.2-.6,.5-.6,.8v3.8l-.5-.3v-3.8c0-.3,.2-.7,.5-.8l6.9-4c.1-.1,.3-.1,.3,0l.6,.3Z"/><path class="cls-12" d="M14.75,5.01c.3-.2,.5,0,.5,.3v4.3c0,.3-.2,.7-.5,.8l-6.4,3.7c-.8,1-1.6,1.8-2.4,2.2,.5-.8,1-1.7,1.4-2.6v-3.8c0-.3,.2-.7,.5-.8l6.9-4.1Z"/><path class="cls-8" d="M9.35,10.81c.6-.4,1.1-.1,1.1,.6l-2.2,1.3c0-.7,.5-1.5,1.1-1.9Zm0-1.3c.3-.2,.5,0,.5,.3s-.2,.7-.5,.9-.5,0-.5-.3c0-.4,.3-.8,.5-.9Z"/><path class="cls-8" d="M11.95,10.01s0,.1,0,0v.2s0,.1-.1,.1l-.7,.4h-.1v-.1c0-.1,0-.2,.1-.3,0-.1,.1-.2,.1-.3,.1-.1,.1-.2,.2-.3l.1-.1c0-.1,.1-.1,.1-.2v-.2q0-.1-.1-.1s-.1,0-.2,.1l-.3,.3h-.1v-.2l.4-.4c.2-.1,.3-.1,.4-.1s.1,0,.2,.1c0,0,.1,.1,.1,.2s0,.2-.1,.3c0,.1-.1,.2-.2,.3-.1,.1-.1,.2-.2,.3-.1,.1-.2,.2-.2,.3l-.1,.1,.7-.4q-.1,0,0,0Zm.7-.2c.2-.1,.3-.2,.4-.4,.1-.2,.1-.4,.1-.7,0-.2,0-.4-.1-.5s-.2-.1-.4,0-.3,.2-.4,.4c-.1,.2-.1,.4-.1,.7,0,.2,0,.4,.1,.5,.1,.1,.2,.1,.4,0Zm.2-1.3c.1,.1,.1,.2,.1,.4s0,.3-.1,.5c-.1,.1-.1,.2-.2,.3-.1,.1-.2,.1-.2,0-.1-.1-.1-.2-.1-.4s0-.3,.1-.5c.1-.1,.1-.2,.2-.3,.1-.1,.2-.1,.2,0Zm1,.6c.2-.1,.3-.2,.4-.4,.1-.2,.1-.4,.1-.7,0-.2,0-.4-.1-.5s-.2-.1-.4,0c-.2,.1-.3,.3-.4,.5s-.1,.4-.1,.7c0,.2,0,.4,.1,.5,.1,0,.2,0,.4-.1Zm.2-1.3c.1,.1,.1,.2,.1,.4s0,.3-.1,.5c0,.1-.1,.1-.2,.2-.1,.1-.2,.1-.2,0-.1-.1-.1-.2-.1-.4s0-.3,.1-.5c0-.1,.1-.2,.2-.2,.1-.1,.2-.1,.2,0Z"/></g><g><path class="cls-19" d="M0,18.3v.8c0,.5,.4,1.1,1.1,1.5,1.4,.8,3.8,.8,5.2,0,.7-.4,1.1-1,1.1-1.5v-.8c0-.5-.4-1.1-1.1-1.5-1.4-.8-3.8-.8-5.2,0-.7,.5-1.1,1-1.1,1.5q0,.1,0,0Z"/><path class="cls-19" d="M7.4,18.4v.8c0,.5-.4,1.1-1.1,1.5-1.4,.8-3.8,.8-5.2,0-.7-.4-1.1-1-1.1-1.5v-.8c0,.5,.4,1.1,1.1,1.5,1.4,.8,3.8,.8,5.2,0,.7-.4,1.1-1,1.1-1.5Z"/><path class="cls-11" d="M6.3,16.9c1.4,.8,1.4,2.2,0,3s-3.8,.8-5.2,0-1.4-2.2,0-3c1.4-.9,3.8-.9,5.2,0Z"/><path class="cls-27" d="M3.5,18.8c-.4,.3-.4,.5-.2,.7l.7-.4,.6,.4,1.1-.7-1.1-.7-1.1,.7Zm-1.6-.9c-.4,.3-.4,.5-.2,.7l.7-.4,.6,.4,1.2-.7-1.1-.7-1.2,.7Z"/></g></g></svg>