<svg width="294" height="293" xmlns="http://www.w3.org/2000/svg" xmlns:xlink="http://www.w3.org/1999/xlink" xml:space="preserve" overflow="hidden"><defs><filter id="fx0" x="-10%" y="-10%" width="120%" height="120%" filterUnits="userSpaceOnUse" primitiveUnits="userSpaceOnUse"><feComponentTransfer color-interpolation-filters="sRGB"><feFuncR type="discrete" tableValues="0.000000 0.000000"/><feFuncG type="discrete" tableValues="0.000000 0.000000"/><feFuncB type="discrete" tableValues="0.000000 0.000000"/><feFuncA type="linear" slope="0.400000" intercept="0.000000"/></feComponentTransfer><feGaussianBlur stdDeviation="6.111111 6.111111"/></filter><filter id="fx1" x="-10%" y="-10%" width="120%" height="120%" filterUnits="userSpaceOnUse" primitiveUnits="userSpaceOnUse"><feComponentTransfer color-interpolation-filters="sRGB"><feFuncR type="discrete" tableValues="0.000000 0.000000"/><feFuncG type="discrete" tableValues="0.000000 0.000000"/><feFuncB type="discrete" tableValues="0.000000 0.000000"/><feFuncA type="linear" slope="0.400000" intercept="0.000000"/></feComponentTransfer><feGaussianBlur stdDeviation="6.111111 6.111111"/></filter><filter id="fx2" x="-10%" y="-10%" width="120%" height="120%" filterUnits="userSpaceOnUse" primitiveUnits="userSpaceOnUse"><feComponentTransfer color-interpolation-filters="sRGB"><feFuncR type="discrete" tableValues="1.000000 1.000000"/><feFuncG type="discrete" tableValues="1.000000 1.000000"/><feFuncB type="discrete" tableValues="1.000000 1.000000"/><feFuncA type="linear" slope="1.000000" intercept="0.000000"/></feComponentTransfer><feGaussianBlur stdDeviation="9.455637 9.488019"/></filter><clipPath id="clip3"><rect x="311" y="825" width="294" height="293"/></clipPath><clipPath id="clip4"><rect x="1.66666" y="1.72174" width="161.924" height="160.464"/></clipPath><clipPath id="clip5"><rect x="0" y="0" width="165" height="164"/></clipPath><clipPath id="clip6"><rect x="20" y="19" width="126" height="125"/></clipPath><clipPath id="clip7"><rect x="20" y="19" width="126" height="125"/></clipPath><clipPath id="clip8"><rect x="20" y="19" width="126" height="125"/></clipPath><clipPath id="clip9"><rect x="20" y="19" width="126" height="125"/></clipPath><clipPath id="clip10"><rect x="20" y="19" width="126" height="125"/></clipPath><clipPath id="clip11"><rect x="20" y="19" width="126" height="125"/></clipPath><clipPath id="clip12"><rect x="1.66666" y="1.72174" width="161.924" height="160.464"/></clipPath><clipPath id="clip13"><rect x="0" y="0" width="165" height="164"/></clipPath><clipPath id="clip14"><rect x="20" y="19" width="126" height="125"/></clipPath><clipPath id="clip15"><rect x="20" y="19" width="126" height="125"/></clipPath><clipPath id="clip16"><rect x="20" y="19" width="126" height="125"/></clipPath><clipPath id="clip17"><rect x="396" y="896" width="126" height="125"/></clipPath><clipPath id="clip18"><rect x="396" y="896" width="126" height="125"/></clipPath><clipPath id="clip19"><rect x="396" y="896" width="126" height="125"/></clipPath><clipPath id="clip20"><rect x="0.54953" y="0.609802" width="99.9503" height="99.7484"/></clipPath><clipPath id="clip21"><rect x="0" y="0" width="101" height="101"/></clipPath><clipPath id="clip22"><rect x="28" y="28" width="45" height="44"/></clipPath><clipPath id="clip23"><rect x="28" y="28" width="45" height="44"/></clipPath><clipPath id="clip24"><rect x="28" y="28" width="45" height="44"/></clipPath><clipPath id="clip25"><rect x="396" y="896" width="126" height="125"/></clipPath><clipPath id="clip26"><rect x="396" y="896" width="126" height="125"/></clipPath><clipPath id="clip27"><rect x="396" y="896" width="126" height="125"/></clipPath></defs><g clip-path="url(#clip3)" transform="translate(-311 -825)"><g clip-path="url(#clip4)" filter="url(#fx0)" transform="translate(376 891)"><g clip-path="url(#clip5)"><g clip-path="url(#clip6)"><g clip-path="url(#clip7)"><g clip-path="url(#clip8)"><path d="M61.9487 54.506C61.481 53.8538 60.5731 53.7044 59.9209 54.1723 59.2689 54.64 59.1195 55.5479 59.5871 56.1999 59.592 56.2069 59.5971 56.2137 59.6021 56.2205L63.8889 62.0872C64.3679 62.731 65.2783 62.8647 65.922 62.3856 66.558 61.9124 66.6975 61.0168 66.2354 60.3728ZM61.5026 33.2577 65.7619 27.3725C66.2325 26.7223 66.0867 25.8138 65.4364 25.3435 64.7864 24.8729 63.878 25.0185 63.4074 25.6687L59.148 31.5539C58.6775 32.2042 58.8233 33.1126 59.4735 33.583 60.1236 34.0535 61.032 33.908 61.5026 33.2577ZM73.9554 13.5703C73.3054 13.0997 72.3969 13.2452 71.9264 13.8953 71.9261 13.8954 71.9261 13.8954 71.9261 13.8955L67.6672 19.7816C67.1967 20.4319 67.3425 21.3404 67.9927 21.8109 68.643 22.2814 69.5515 22.1357 70.022 21.4854L74.2814 15.6003C74.752 14.9502 74.6067 14.0417 73.9566 13.5711 73.9561 13.5708 73.9559 13.5705 73.9554 13.5703Z" fill="#BFBFBF" fill-rule="nonzero" fill-opacity="1" transform="matrix(1.00806 0 0 1 20 19.7498)"/><path d="M91.5833 7.46665C88.3152 2.5212 82.19 0.305222 76.5144 2.015L33.526 14.7952C26.3965 16.9285 20.4531 21.8907 17.0815 28.5249L2.00774 58.3043C-0.1128 62.5229 0.145796 67.5466 2.68828 71.5253L30.1742 114.296C34.5541 121.064 42.8956 124.102 50.6027 121.736L94.676 108.059C98.0969 107.004 100.969 104.651 102.678 101.506L121.639 66.7445C124.255 61.9671 123.997 56.1314 120.97 51.6029ZM9.39349 61.7869C9.39349 61.7869 5.71878 63.1713 4.49646 63.6394 3.74815 63.9296 2.9064 63.558 2.61635 62.8097 2.3263 62.0613 2.69778 61.2197 3.44609 60.9296 4.66841 60.4614 8.34288 59.0771 8.34288 59.0771 9.09119 58.7869 9.93299 59.1585 10.2231 59.9068 10.5132 60.6549 10.1418 61.4968 9.39349 61.7869ZM22.9424 56.5339 16.1685 59.1592C15.4308 59.4752 14.5766 59.1335 14.2604 58.3958 13.9443 57.6584 14.2861 56.8039 15.0237 56.4879 15.0545 56.4748 15.0857 56.4627 15.1174 56.4515L21.8913 53.8238C22.6397 53.5337 23.4817 53.9049 23.7719 54.6533 24.0622 55.4016 23.6908 56.2437 22.9424 56.5339ZM36.4904 51.2808 29.7164 53.9061C28.9787 54.2222 28.1245 53.8805 27.8085 53.1428 27.4924 52.4053 27.8341 51.5509 28.5716 51.2348 28.6024 51.2217 28.6336 51.2096 28.6653 51.1985L35.4393 48.5707C36.1877 48.2806 37.0298 48.6519 37.3199 49.4002 37.6101 50.1486 37.2388 50.9907 36.4904 51.2808ZM83.0631 85.8701C82.4174 86.3438 81.51 86.2045 81.0362 85.5589 81.0353 85.5576 81.0345 85.5564 81.0336 85.5552L76.7469 79.687C76.2734 79.0389 76.4148 78.1298 77.0629 77.6563 77.711 77.1828 78.6202 77.3242 79.0937 77.9723L83.3804 83.8405C83.8529 84.4886 83.711 85.3971 83.0631 85.8701ZM91.6366 97.6041C90.9887 98.0778 90.0795 97.9363 89.6058 97.2885 89.6056 97.288 89.6051 97.2873 89.6046 97.2868L85.3179 91.421C84.8444 90.7729 84.9858 89.8637 85.6339 89.3903 86.282 88.9168 87.1912 89.0582 87.6647 89.7063L91.9514 95.5721C92.4251 96.2202 92.2844 97.1296 91.6366 97.6041ZM97.0788 105.066C96.4307 105.54 95.5217 105.398 95.0483 104.75 94.7576 104.352 93.8913 103.154 93.8913 103.154 93.4123 102.511 93.5457 101.6 94.1897 101.121 94.8334 100.642 95.7438 100.776 96.2229 101.419 96.228 101.426 96.233 101.433 96.2379 101.44 96.2379 101.44 97.1049 102.637 97.3948 103.036 97.8683 103.684 97.7266 104.593 97.0788 105.066ZM73.9012 70.8641 70.5202 66.2383C70.0467 65.5902 69.1376 65.4488 68.4895 65.9223 67.8414 66.3958 67.6999 67.3049 68.1734 67.953L70.9053 71.6924 65.2107 73.2666C64.8201 73.3746 64.4922 73.6408 64.3064 74.0009L41.6449 117.925C41.2775 118.639 40.4008 118.92 39.6868 118.553 38.9728 118.185 38.6919 117.309 39.0593 116.595L61.4164 73.2656C61.6603 72.7931 61.6264 72.2252 61.3285 71.7849L45.1777 47.912 51.7507 45.4732 55.3157 50.3532C55.7891 51.0013 56.6983 51.1428 57.3464 50.6693 57.9945 50.1958 58.1359 49.2866 57.6625 48.6386L54.0006 43.6253 57.2435 39.1448C57.7143 38.4948 57.569 37.5861 56.919 37.1153 56.2689 36.6445 55.3602 36.7898 54.8894 37.4398L51.2203 42.4797 43.5066 45.4417 27.0863 21.1696C29.2899 19.573 31.7469 18.3595 34.3543 17.5804L77.3426 4.80016C77.7996 4.66589 78.2646 4.56153 78.7352 4.48774L76.185 8.00915C75.7142 8.65988 75.86 9.56908 76.5107 10.0399 77.1615 10.5107 78.0707 10.3649 78.5415 9.71415L82.2905 4.52891C85.1038 5.04971 87.5848 6.69138 89.1638 9.07719L118.551 53.2135C119.514 54.6579 120.143 56.2982 120.394 58.0161Z" fill="#BFBFBF" fill-rule="nonzero" fill-opacity="1" transform="matrix(1.00806 0 0 1 20 19.7498)"/></g></g></g><g clip-path="url(#clip9)"><g clip-path="url(#clip10)"><g clip-path="url(#clip11)"><path d="M61.9487 54.506C61.481 53.8538 60.5731 53.7044 59.9209 54.1723 59.2689 54.64 59.1195 55.5479 59.5871 56.1999 59.592 56.2069 59.5971 56.2137 59.6021 56.2205L63.8889 62.0872C64.3679 62.731 65.2783 62.8647 65.922 62.3856 66.558 61.9124 66.6975 61.0168 66.2354 60.3728ZM61.5026 33.2577 65.7619 27.3725C66.2325 26.7223 66.0867 25.8138 65.4364 25.3435 64.7864 24.8729 63.878 25.0185 63.4074 25.6687L59.148 31.5539C58.6775 32.2042 58.8233 33.1126 59.4735 33.583 60.1236 34.0535 61.032 33.908 61.5026 33.2577ZM73.9554 13.5703C73.3054 13.0997 72.3969 13.2452 71.9264 13.8953 71.9261 13.8954 71.9261 13.8954 71.9261 13.8955L67.6672 19.7816C67.1967 20.4319 67.3425 21.3404 67.9927 21.8109 68.643 22.2814 69.5515 22.1357 70.022 21.4854L74.2814 15.6003C74.752 14.9502 74.6067 14.0417 73.9566 13.5711 73.9561 13.5708 73.9559 13.5705 73.9554 13.5703Z" fill="#FFFFFF" fill-rule="nonzero" fill-opacity="1" transform="matrix(1.00806 0 0 1 20 19.7498)"/><path d="M91.5833 7.46665C88.3152 2.5212 82.19 0.305222 76.5144 2.015L33.526 14.7952C26.3965 16.9285 20.4531 21.8907 17.0815 28.5249L2.00774 58.3043C-0.1128 62.5229 0.145796 67.5466 2.68828 71.5253L30.1742 114.296C34.5541 121.064 42.8956 124.102 50.6027 121.736L94.676 108.059C98.0969 107.004 100.969 104.651 102.678 101.506L121.639 66.7445C124.255 61.9671 123.997 56.1314 120.97 51.6029ZM9.39349 61.7869C9.39349 61.7869 5.71878 63.1713 4.49646 63.6394 3.74815 63.9296 2.9064 63.558 2.61635 62.8097 2.3263 62.0613 2.69778 61.2197 3.44609 60.9296 4.66841 60.4614 8.34288 59.0771 8.34288 59.0771 9.09119 58.7869 9.93299 59.1585 10.2231 59.9068 10.5132 60.6549 10.1418 61.4968 9.39349 61.7869ZM22.9424 56.5339 16.1685 59.1592C15.4308 59.4752 14.5766 59.1335 14.2604 58.3958 13.9443 57.6584 14.2861 56.8039 15.0237 56.4879 15.0545 56.4748 15.0857 56.4627 15.1174 56.4515L21.8913 53.8238C22.6397 53.5337 23.4817 53.9049 23.7719 54.6533 24.0622 55.4016 23.6908 56.2437 22.9424 56.5339ZM36.4904 51.2808 29.7164 53.9061C28.9787 54.2222 28.1245 53.8805 27.8085 53.1428 27.4924 52.4053 27.8341 51.5509 28.5716 51.2348 28.6024 51.2217 28.6336 51.2096 28.6653 51.1985L35.4393 48.5707C36.1877 48.2806 37.0298 48.6519 37.3199 49.4002 37.6101 50.1486 37.2388 50.9907 36.4904 51.2808ZM83.0631 85.8701C82.4174 86.3438 81.51 86.2045 81.0362 85.5589 81.0353 85.5576 81.0345 85.5564 81.0336 85.5552L76.7469 79.687C76.2734 79.0389 76.4148 78.1298 77.0629 77.6563 77.711 77.1828 78.6202 77.3242 79.0937 77.9723L83.3804 83.8405C83.8529 84.4886 83.711 85.3971 83.0631 85.8701ZM91.6366 97.6041C90.9887 98.0778 90.0795 97.9363 89.6058 97.2885 89.6056 97.288 89.6051 97.2873 89.6046 97.2868L85.3179 91.421C84.8444 90.7729 84.9858 89.8637 85.6339 89.3903 86.282 88.9168 87.1912 89.0582 87.6647 89.7063L91.9514 95.5721C92.4251 96.2202 92.2844 97.1296 91.6366 97.6041ZM97.0788 105.066C96.4307 105.54 95.5217 105.398 95.0483 104.75 94.7576 104.352 93.8913 103.154 93.8913 103.154 93.4123 102.511 93.5457 101.6 94.1897 101.121 94.8334 100.642 95.7438 100.776 96.2229 101.419 96.228 101.426 96.233 101.433 96.2379 101.44 96.2379 101.44 97.1049 102.637 97.3948 103.036 97.8683 103.684 97.7266 104.593 97.0788 105.066ZM73.9012 70.8641 70.5202 66.2383C70.0467 65.5902 69.1376 65.4488 68.4895 65.9223 67.8414 66.3958 67.6999 67.3049 68.1734 67.953L70.9053 71.6924 65.2107 73.2666C64.8201 73.3746 64.4922 73.6408 64.3064 74.0009L41.6449 117.925C41.2775 118.639 40.4008 118.92 39.6868 118.553 38.9728 118.185 38.6919 117.309 39.0593 116.595L61.4164 73.2656C61.6603 72.7931 61.6264 72.2252 61.3285 71.7849L45.1777 47.912 51.7507 45.4732 55.3157 50.3532C55.7891 51.0013 56.6983 51.1428 57.3464 50.6693 57.9945 50.1958 58.1359 49.2866 57.6625 48.6386L54.0006 43.6253 57.2435 39.1448C57.7143 38.4948 57.569 37.5861 56.919 37.1153 56.2689 36.6445 55.3602 36.7898 54.8894 37.4398L51.2203 42.4797 43.5066 45.4417 27.0863 21.1696C29.2899 19.573 31.7469 18.3595 34.3543 17.5804L77.3426 4.80016C77.7996 4.66589 78.2646 4.56153 78.7352 4.48774L76.185 8.00915C75.7142 8.65988 75.86 9.56908 76.5107 10.0399 77.1615 10.5107 78.0707 10.3649 78.5415 9.71415L82.2905 4.52891C85.1038 5.04971 87.5848 6.69138 89.1638 9.07719L118.551 53.2135C119.514 54.6579 120.143 56.2982 120.394 58.0161Z" fill="#FFFFFF" fill-rule="nonzero" fill-opacity="1" transform="matrix(1.00806 0 0 1 20 19.7498)"/></g></g></g></g></g><g clip-path="url(#clip12)" filter="url(#fx1)" transform="translate(376 891)"><g clip-path="url(#clip13)"><g clip-path="url(#clip14)"><g clip-path="url(#clip15)"><g clip-path="url(#clip16)"><path d="M61.9487 54.506C61.481 53.8538 60.5731 53.7044 59.9209 54.1723 59.2689 54.64 59.1195 55.5479 59.5871 56.1999 59.592 56.2069 59.5971 56.2137 59.6021 56.2205L63.8889 62.0872C64.3679 62.731 65.2783 62.8647 65.922 62.3856 66.558 61.9124 66.6975 61.0168 66.2354 60.3728ZM61.5026 33.2577 65.7619 27.3725C66.2325 26.7223 66.0867 25.8138 65.4364 25.3435 64.7864 24.8729 63.878 25.0185 63.4074 25.6687L59.148 31.5539C58.6775 32.2042 58.8233 33.1126 59.4735 33.583 60.1236 34.0535 61.032 33.908 61.5026 33.2577ZM73.9554 13.5703C73.3054 13.0997 72.3969 13.2452 71.9264 13.8953 71.9261 13.8954 71.9261 13.8954 71.9261 13.8955L67.6672 19.7816C67.1967 20.4319 67.3425 21.3404 67.9927 21.8109 68.643 22.2814 69.5515 22.1357 70.022 21.4854L74.2814 15.6003C74.752 14.9502 74.6067 14.0417 73.9566 13.5711 73.9561 13.5708 73.9559 13.5705 73.9554 13.5703Z" fill="#BFBFBF" fill-rule="nonzero" fill-opacity="1" transform="matrix(1.00806 0 0 1 20 19.7498)"/><path d="M91.5833 7.46665C88.3152 2.5212 82.19 0.305222 76.5144 2.015L33.526 14.7952C26.3965 16.9285 20.4531 21.8907 17.0815 28.5249L2.00774 58.3043C-0.1128 62.5229 0.145796 67.5466 2.68828 71.5253L30.1742 114.296C34.5541 121.064 42.8956 124.102 50.6027 121.736L94.676 108.059C98.0969 107.004 100.969 104.651 102.678 101.506L121.639 66.7445C124.255 61.9671 123.997 56.1314 120.97 51.6029ZM9.39349 61.7869C9.39349 61.7869 5.71878 63.1713 4.49646 63.6394 3.74815 63.9296 2.9064 63.558 2.61635 62.8097 2.3263 62.0613 2.69778 61.2197 3.44609 60.9296 4.66841 60.4614 8.34288 59.0771 8.34288 59.0771 9.09119 58.7869 9.93299 59.1585 10.2231 59.9068 10.5132 60.6549 10.1418 61.4968 9.39349 61.7869ZM22.9424 56.5339 16.1685 59.1592C15.4308 59.4752 14.5766 59.1335 14.2604 58.3958 13.9443 57.6584 14.2861 56.8039 15.0237 56.4879 15.0545 56.4748 15.0857 56.4627 15.1174 56.4515L21.8913 53.8238C22.6397 53.5337 23.4817 53.9049 23.7719 54.6533 24.0622 55.4016 23.6908 56.2437 22.9424 56.5339ZM36.4904 51.2808 29.7164 53.9061C28.9787 54.2222 28.1245 53.8805 27.8085 53.1428 27.4924 52.4053 27.8341 51.5509 28.5716 51.2348 28.6024 51.2217 28.6336 51.2096 28.6653 51.1985L35.4393 48.5707C36.1877 48.2806 37.0298 48.6519 37.3199 49.4002 37.6101 50.1486 37.2388 50.9907 36.4904 51.2808ZM83.0631 85.8701C82.4174 86.3438 81.51 86.2045 81.0362 85.5589 81.0353 85.5576 81.0345 85.5564 81.0336 85.5552L76.7469 79.687C76.2734 79.0389 76.4148 78.1298 77.0629 77.6563 77.711 77.1828 78.6202 77.3242 79.0937 77.9723L83.3804 83.8405C83.8529 84.4886 83.711 85.3971 83.0631 85.8701ZM91.6366 97.6041C90.9887 98.0778 90.0795 97.9363 89.6058 97.2885 89.6056 97.288 89.6051 97.2873 89.6046 97.2868L85.3179 91.421C84.8444 90.7729 84.9858 89.8637 85.6339 89.3903 86.282 88.9168 87.1912 89.0582 87.6647 89.7063L91.9514 95.5721C92.4251 96.2202 92.2844 97.1296 91.6366 97.6041ZM97.0788 105.066C96.4307 105.54 95.5217 105.398 95.0483 104.75 94.7576 104.352 93.8913 103.154 93.8913 103.154 93.4123 102.511 93.5457 101.6 94.1897 101.121 94.8334 100.642 95.7438 100.776 96.2229 101.419 96.228 101.426 96.233 101.433 96.2379 101.44 96.2379 101.44 97.1049 102.637 97.3948 103.036 97.8683 103.684 97.7266 104.593 97.0788 105.066ZM73.9012 70.8641 70.5202 66.2383C70.0467 65.5902 69.1376 65.4488 68.4895 65.9223 67.8414 66.3958 67.6999 67.3049 68.1734 67.953L70.9053 71.6924 65.2107 73.2666C64.8201 73.3746 64.4922 73.6408 64.3064 74.0009L41.6449 117.925C41.2775 118.639 40.4008 118.92 39.6868 118.553 38.9728 118.185 38.6919 117.309 39.0593 116.595L61.4164 73.2656C61.6603 72.7931 61.6264 72.2252 61.3285 71.7849L45.1777 47.912 51.7507 45.4732 55.3157 50.3532C55.7891 51.0013 56.6983 51.1428 57.3464 50.6693 57.9945 50.1958 58.1359 49.2866 57.6625 48.6386L54.0006 43.6253 57.2435 39.1448C57.7143 38.4948 57.569 37.5861 56.919 37.1153 56.2689 36.6445 55.3602 36.7898 54.8894 37.4398L51.2203 42.4797 43.5066 45.4417 27.0863 21.1696C29.2899 19.573 31.7469 18.3595 34.3543 17.5804L77.3426 4.80016C77.7996 4.66589 78.2646 4.56153 78.7352 4.48774L76.185 8.00915C75.7142 8.65988 75.86 9.56908 76.5107 10.0399 77.1615 10.5107 78.0707 10.3649 78.5415 9.71415L82.2905 4.52891C85.1038 5.04971 87.5848 6.69138 89.1638 9.07719L118.551 53.2135C119.514 54.6579 120.143 56.2982 120.394 58.0161Z" fill="#BFBFBF" fill-rule="nonzero" fill-opacity="1" transform="matrix(1.00806 0 0 1 20 19.7498)"/></g></g></g></g></g><g clip-path="url(#clip17)"><g clip-path="url(#clip18)"><g clip-path="url(#clip19)"><path d="M61.9487 54.506C61.481 53.8538 60.5731 53.7044 59.9209 54.1723 59.2689 54.64 59.1195 55.5479 59.5871 56.1999 59.592 56.2069 59.5971 56.2137 59.6021 56.2205L63.8889 62.0872C64.3679 62.731 65.2783 62.8647 65.922 62.3856 66.558 61.9124 66.6975 61.0168 66.2354 60.3728ZM61.5026 33.2577 65.7619 27.3725C66.2325 26.7223 66.0867 25.8138 65.4364 25.3435 64.7864 24.8729 63.878 25.0185 63.4074 25.6687L59.148 31.5539C58.6775 32.2042 58.8233 33.1126 59.4735 33.583 60.1236 34.0535 61.032 33.908 61.5026 33.2577ZM73.9554 13.5703C73.3054 13.0997 72.3969 13.2452 71.9264 13.8953 71.9261 13.8954 71.9261 13.8954 71.9261 13.8955L67.6672 19.7816C67.1967 20.4319 67.3425 21.3404 67.9927 21.8109 68.643 22.2814 69.5515 22.1357 70.022 21.4854L74.2814 15.6003C74.752 14.9502 74.6067 14.0417 73.9566 13.5711 73.9561 13.5708 73.9559 13.5705 73.9554 13.5703Z" fill="#BFBFBF" fill-rule="nonzero" fill-opacity="1" transform="matrix(1.00806 0 0 1 396 897)"/><path d="M91.5833 7.46665C88.3152 2.5212 82.19 0.305222 76.5144 2.015L33.526 14.7952C26.3965 16.9285 20.4531 21.8907 17.0815 28.5249L2.00774 58.3043C-0.1128 62.5229 0.145796 67.5466 2.68828 71.5253L30.1742 114.296C34.5541 121.064 42.8956 124.102 50.6027 121.736L94.676 108.059C98.0969 107.004 100.969 104.651 102.678 101.506L121.639 66.7445C124.255 61.9671 123.997 56.1314 120.97 51.6029ZM9.39349 61.7869C9.39349 61.7869 5.71878 63.1713 4.49646 63.6394 3.74815 63.9296 2.9064 63.558 2.61635 62.8097 2.3263 62.0613 2.69778 61.2197 3.44609 60.9296 4.66841 60.4614 8.34288 59.0771 8.34288 59.0771 9.09119 58.7869 9.93299 59.1585 10.2231 59.9068 10.5132 60.6549 10.1418 61.4968 9.39349 61.7869ZM22.9424 56.5339 16.1685 59.1592C15.4308 59.4752 14.5766 59.1335 14.2604 58.3958 13.9443 57.6584 14.2861 56.8039 15.0237 56.4879 15.0545 56.4748 15.0857 56.4627 15.1174 56.4515L21.8913 53.8238C22.6397 53.5337 23.4817 53.9049 23.7719 54.6533 24.0622 55.4016 23.6908 56.2437 22.9424 56.5339ZM36.4904 51.2808 29.7164 53.9061C28.9787 54.2222 28.1245 53.8805 27.8085 53.1428 27.4924 52.4053 27.8341 51.5509 28.5716 51.2348 28.6024 51.2217 28.6336 51.2096 28.6653 51.1985L35.4393 48.5707C36.1877 48.2806 37.0298 48.6519 37.3199 49.4002 37.6101 50.1486 37.2388 50.9907 36.4904 51.2808ZM83.0631 85.8701C82.4174 86.3438 81.51 86.2045 81.0362 85.5589 81.0353 85.5576 81.0345 85.5564 81.0336 85.5552L76.7469 79.687C76.2734 79.0389 76.4148 78.1298 77.0629 77.6563 77.711 77.1828 78.6202 77.3242 79.0937 77.9723L83.3804 83.8405C83.8529 84.4886 83.711 85.3971 83.0631 85.8701ZM91.6366 97.6041C90.9887 98.0778 90.0795 97.9363 89.6058 97.2885 89.6056 97.288 89.6051 97.2873 89.6046 97.2868L85.3179 91.421C84.8444 90.7729 84.9858 89.8637 85.6339 89.3903 86.282 88.9168 87.1912 89.0582 87.6647 89.7063L91.9514 95.5721C92.4251 96.2202 92.2844 97.1296 91.6366 97.6041ZM97.0788 105.066C96.4307 105.54 95.5217 105.398 95.0483 104.75 94.7576 104.352 93.8913 103.154 93.8913 103.154 93.4123 102.511 93.5457 101.6 94.1897 101.121 94.8334 100.642 95.7438 100.776 96.2229 101.419 96.228 101.426 96.233 101.433 96.2379 101.44 96.2379 101.44 97.1049 102.637 97.3948 103.036 97.8683 103.684 97.7266 104.593 97.0788 105.066ZM73.9012 70.8641 70.5202 66.2383C70.0467 65.5902 69.1376 65.4488 68.4895 65.9223 67.8414 66.3958 67.6999 67.3049 68.1734 67.953L70.9053 71.6924 65.2107 73.2666C64.8201 73.3746 64.4922 73.6408 64.3064 74.0009L41.6449 117.925C41.2775 118.639 40.4008 118.92 39.6868 118.553 38.9728 118.185 38.6919 117.309 39.0593 116.595L61.4164 73.2656C61.6603 72.7931 61.6264 72.2252 61.3285 71.7849L45.1777 47.912 51.7507 45.4732 55.3157 50.3532C55.7891 51.0013 56.6983 51.1428 57.3464 50.6693 57.9945 50.1958 58.1359 49.2866 57.6625 48.6386L54.0006 43.6253 57.2435 39.1448C57.7143 38.4948 57.569 37.5861 56.919 37.1153 56.2689 36.6445 55.3602 36.7898 54.8894 37.4398L51.2203 42.4797 43.5066 45.4417 27.0863 21.1696C29.2899 19.573 31.7469 18.3595 34.3543 17.5804L77.3426 4.80016C77.7996 4.66589 78.2646 4.56153 78.7352 4.48774L76.185 8.00915C75.7142 8.65988 75.86 9.56908 76.5107 10.0399 77.1615 10.5107 78.0707 10.3649 78.5415 9.71415L82.2905 4.52891C85.1038 5.04971 87.5848 6.69138 89.1638 9.07719L118.551 53.2135C119.514 54.6579 120.143 56.2982 120.394 58.0161Z" fill="#BFBFBF" fill-rule="nonzero" fill-opacity="1" transform="matrix(1.00806 0 0 1 396 897)"/></g></g></g><g clip-path="url(#clip20)" filter="url(#fx2)" transform="matrix(2.90099 0 0 2.89109 312 827)"><g clip-path="url(#clip21)" transform="translate(1.42109e-14 0)"><g clip-path="url(#clip22)" transform="matrix(1 0 0 1 -2.14577e-06 3.25441e-05)"><g clip-path="url(#clip23)" transform="matrix(1 0 0 1 -2.14577e-06 3.25441e-05)"><g clip-path="url(#clip24)" transform="matrix(1 0 0 1 -2.14577e-06 3.25441e-05)"><path d="M21.4275 18.8531C21.2657 18.6275 20.9516 18.5758 20.7261 18.7377 20.5005 18.8994 20.4489 19.2135 20.6106 19.439 20.6123 19.4414 20.6141 19.4438 20.6158 19.4461L22.0985 21.4754C22.2642 21.698 22.5791 21.7443 22.8018 21.5786 23.0218 21.4149 23.07 21.1051 22.9102 20.8824ZM21.2732 11.5035 22.7464 9.4679C22.9092 9.24297 22.8588 8.92875 22.6338 8.76607 22.409 8.6033 22.0948 8.65365 21.932 8.87857L20.4587 10.9142C20.296 11.1391 20.3464 11.4533 20.5713 11.616 20.7962 11.7788 21.1104 11.7284 21.2732 11.5035ZM25.5805 4.69382C25.3556 4.53106 25.0414 4.58139 24.8786 4.80626 24.8786 4.80628 24.8786 4.8063 24.8786 4.80633L23.4054 6.84228C23.2427 7.0672 23.2931 7.38145 23.518 7.54419 23.743 7.70694 24.0572 7.65652 24.2199 7.43161L25.6932 5.39599C25.856 5.17114 25.8057 4.8569 25.5809 4.69411 25.5807 4.69402 25.5806 4.69392 25.5805 4.69382Z" fill="#FFFFFF" fill-rule="nonzero" fill-opacity="1" transform="matrix(1.00462 0 0 1 28.9556 28.9683)"/><path d="M31.6778 2.58264C30.5474 0.872058 28.4287 0.105573 26.4656 0.69697L11.5963 5.11753C9.1303 5.85539 7.07453 7.57178 5.90833 9.86648L0.694457 20.1669C-0.0390164 21.6261 0.0504293 23.3637 0.929851 24.7399L10.437 39.5338C11.9519 41.875 14.8372 42.9258 17.503 42.1072L32.7475 37.3767C33.9308 37.0116 34.9242 36.1979 35.5153 35.1099L42.0737 23.0863C42.9786 21.4338 42.8894 19.4153 41.8425 17.849ZM3.24912 21.3715C3.24912 21.3715 1.97807 21.8503 1.55528 22.0123 1.29645 22.1126 1.0053 21.9841 0.904972 21.7253 0.804646 21.4664 0.933135 21.1753 1.19197 21.075 1.61476 20.913 2.88572 20.4342 2.88572 20.4342 3.14456 20.3338 3.43573 20.4623 3.53607 20.7212 3.63642 20.98 3.50795 21.2711 3.24912 21.3715ZM7.93557 19.5545 5.59251 20.4626C5.33736 20.5719 5.04189 20.4537 4.93254 20.1986 4.82321 19.9435 4.94141 19.6479 5.19656 19.5386 5.20721 19.5341 5.21801 19.5299 5.22895 19.526L7.57201 18.6171C7.83086 18.5168 8.12208 18.6452 8.22248 18.904 8.32288 19.1629 8.19442 19.4542 7.93557 19.5545ZM12.6217 17.7375 10.2786 18.6456C10.0235 18.7549 9.72801 18.6367 9.61868 18.3816 9.50936 18.1265 9.62756 17.8309 9.88265 17.7216 9.89328 17.7171 9.90409 17.7129 9.91506 17.7091L12.2581 16.8002C12.517 16.6998 12.8082 16.8282 12.9086 17.0871 13.009 17.3459 12.8805 17.6372 12.6217 17.7375ZM28.7307 29.7016C28.5074 29.8655 28.1935 29.8173 28.0297 29.594 28.0293 29.5936 28.0291 29.5932 28.0287 29.5927L26.546 27.563C26.3822 27.3388 26.4312 27.0243 26.6553 26.8606 26.8795 26.6968 27.194 26.7457 27.3577 26.9699L28.8405 28.9996C29.0039 29.2238 28.9548 29.538 28.7307 29.7016ZM31.6962 33.7603C31.4721 33.9242 31.1576 33.8752 30.9938 33.6512 30.9937 33.651 30.9935 33.6507 30.9934 33.6506L29.5106 31.6217C29.3469 31.3975 29.3958 31.083 29.62 30.9192 29.8441 30.7555 30.1586 30.8044 30.3224 31.0286L31.8051 33.0575C31.969 33.2816 31.9203 33.5962 31.6962 33.7603ZM33.5786 36.3414C33.3544 36.5052 33.0401 36.4562 32.8763 36.2321 32.7758 36.0942 32.4761 35.6801 32.4761 35.6801 32.3104 35.4574 32.3566 35.1425 32.5793 34.9768 32.802 34.811 33.1169 34.8573 33.2826 35.0799 33.2843 35.0823 33.2861 35.0847 33.2878 35.0871 33.2878 35.0871 33.5877 35.5012 33.6879 35.6391 33.8517 35.8633 33.8027 36.1777 33.5786 36.3414ZM25.5617 24.5112 24.3923 22.9112C24.2285 22.687 23.914 22.6381 23.6899 22.8019 23.4657 22.9657 23.4168 23.2801 23.5805 23.5043L24.5255 24.7977 22.5558 25.3422C22.4206 25.3796 22.3072 25.4716 22.243 25.5962L14.4046 40.7892C14.2775 41.0362 13.9742 41.1334 13.7273 41.0063 13.4803 40.8792 13.3832 40.576 13.5102 40.329L21.2433 25.3419C21.3277 25.1785 21.316 24.982 21.2129 24.8297L15.6265 16.5723 17.9001 15.7287 19.1332 17.4167C19.2969 17.6409 19.6114 17.6898 19.8356 17.526 20.0597 17.3623 20.1087 17.0478 19.9449 16.8236L18.6783 15.0896 19.8 13.5398C19.9628 13.315 19.9126 13.0007 19.6877 12.8378 19.4629 12.675 19.1486 12.7252 18.9857 12.9501L17.7166 14.6933 15.0485 15.7178 9.36888 7.32237C10.1311 6.7701 10.981 6.35038 11.8828 6.08089L26.7521 1.66033C26.9102 1.61389 27.071 1.57779 27.2338 1.55227L26.3517 2.77029C26.1888 2.99537 26.2392 3.30985 26.4643 3.4727 26.6894 3.63555 27.0039 3.58511 27.1667 3.36003L28.4635 1.56651C29.4366 1.74665 30.2947 2.31448 30.8409 3.13971L41.0056 18.406C41.3387 18.9056 41.5564 19.473 41.6431 20.0672Z" fill="#FFFFFF" fill-rule="nonzero" fill-opacity="1" transform="matrix(1.00462 0 0 1 28.9556 28.9683)"/></g></g></g></g></g><g clip-path="url(#clip25)"><g clip-path="url(#clip26)"><g clip-path="url(#clip27)"><path d="M61.9487 54.506C61.481 53.8538 60.5731 53.7044 59.9209 54.1723 59.2689 54.64 59.1195 55.5479 59.5871 56.1999 59.592 56.2069 59.5971 56.2137 59.6021 56.2205L63.8889 62.0872C64.3679 62.731 65.2783 62.8647 65.922 62.3856 66.558 61.9124 66.6975 61.0168 66.2354 60.3728ZM61.5026 33.2577 65.7619 27.3725C66.2325 26.7223 66.0867 25.8138 65.4364 25.3435 64.7864 24.8729 63.878 25.0185 63.4074 25.6687L59.148 31.5539C58.6775 32.2042 58.8233 33.1126 59.4735 33.583 60.1236 34.0535 61.032 33.908 61.5026 33.2577ZM73.9554 13.5703C73.3054 13.0997 72.3969 13.2452 71.9264 13.8953 71.9261 13.8954 71.9261 13.8954 71.9261 13.8955L67.6672 19.7816C67.1967 20.4319 67.3425 21.3404 67.9927 21.8109 68.643 22.2814 69.5515 22.1357 70.022 21.4854L74.2814 15.6003C74.752 14.9502 74.6067 14.0417 73.9566 13.5711 73.9561 13.5708 73.9559 13.5705 73.9554 13.5703Z" fill="#FFFFFF" fill-rule="nonzero" fill-opacity="1" transform="matrix(1.00806 0 0 1 396 897)"/><path d="M91.5833 7.46665C88.3152 2.5212 82.19 0.305222 76.5144 2.015L33.526 14.7952C26.3965 16.9285 20.4531 21.8907 17.0815 28.5249L2.00774 58.3043C-0.1128 62.5229 0.145796 67.5466 2.68828 71.5253L30.1742 114.296C34.5541 121.064 42.8956 124.102 50.6027 121.736L94.676 108.059C98.0969 107.004 100.969 104.651 102.678 101.506L121.639 66.7445C124.255 61.9671 123.997 56.1314 120.97 51.6029ZM9.39349 61.7869C9.39349 61.7869 5.71878 63.1713 4.49646 63.6394 3.74815 63.9296 2.9064 63.558 2.61635 62.8097 2.3263 62.0613 2.69778 61.2197 3.44609 60.9296 4.66841 60.4614 8.34288 59.0771 8.34288 59.0771 9.09119 58.7869 9.93299 59.1585 10.2231 59.9068 10.5132 60.6549 10.1418 61.4968 9.39349 61.7869ZM22.9424 56.5339 16.1685 59.1592C15.4308 59.4752 14.5766 59.1335 14.2604 58.3958 13.9443 57.6584 14.2861 56.8039 15.0237 56.4879 15.0545 56.4748 15.0857 56.4627 15.1174 56.4515L21.8913 53.8238C22.6397 53.5337 23.4817 53.9049 23.7719 54.6533 24.0622 55.4016 23.6908 56.2437 22.9424 56.5339ZM36.4904 51.2808 29.7164 53.9061C28.9787 54.2222 28.1245 53.8805 27.8085 53.1428 27.4924 52.4053 27.8341 51.5509 28.5716 51.2348 28.6024 51.2217 28.6336 51.2096 28.6653 51.1985L35.4393 48.5707C36.1877 48.2806 37.0298 48.6519 37.3199 49.4002 37.6101 50.1486 37.2388 50.9907 36.4904 51.2808ZM83.0631 85.8701C82.4174 86.3438 81.51 86.2045 81.0362 85.5589 81.0353 85.5576 81.0345 85.5564 81.0336 85.5552L76.7469 79.687C76.2734 79.0389 76.4148 78.1298 77.0629 77.6563 77.711 77.1828 78.6202 77.3242 79.0937 77.9723L83.3804 83.8405C83.8529 84.4886 83.711 85.3971 83.0631 85.8701ZM91.6366 97.6041C90.9887 98.0778 90.0795 97.9363 89.6058 97.2885 89.6056 97.288 89.6051 97.2873 89.6046 97.2868L85.3179 91.421C84.8444 90.7729 84.9858 89.8637 85.6339 89.3903 86.282 88.9168 87.1912 89.0582 87.6647 89.7063L91.9514 95.5721C92.4251 96.2202 92.2844 97.1296 91.6366 97.6041ZM97.0788 105.066C96.4307 105.54 95.5217 105.398 95.0483 104.75 94.7576 104.352 93.8913 103.154 93.8913 103.154 93.4123 102.511 93.5457 101.6 94.1897 101.121 94.8334 100.642 95.7438 100.776 96.2229 101.419 96.228 101.426 96.233 101.433 96.2379 101.44 96.2379 101.44 97.1049 102.637 97.3948 103.036 97.8683 103.684 97.7266 104.593 97.0788 105.066ZM73.9012 70.8641 70.5202 66.2383C70.0467 65.5902 69.1376 65.4488 68.4895 65.9223 67.8414 66.3958 67.6999 67.3049 68.1734 67.953L70.9053 71.6924 65.2107 73.2666C64.8201 73.3746 64.4922 73.6408 64.3064 74.0009L41.6449 117.925C41.2775 118.639 40.4008 118.92 39.6868 118.553 38.9728 118.185 38.6919 117.309 39.0593 116.595L61.4164 73.2656C61.6603 72.7931 61.6264 72.2252 61.3285 71.7849L45.1777 47.912 51.7507 45.4732 55.3157 50.3532C55.7891 51.0013 56.6983 51.1428 57.3464 50.6693 57.9945 50.1958 58.1359 49.2866 57.6625 48.6386L54.0006 43.6253 57.2435 39.1448C57.7143 38.4948 57.569 37.5861 56.919 37.1153 56.2689 36.6445 55.3602 36.7898 54.8894 37.4398L51.2203 42.4797 43.5066 45.4417 27.0863 21.1696C29.2899 19.573 31.7469 18.3595 34.3543 17.5804L77.3426 4.80016C77.7996 4.66589 78.2646 4.56153 78.7352 4.48774L76.185 8.00915C75.7142 8.65988 75.86 9.56908 76.5107 10.0399 77.1615 10.5107 78.0707 10.3649 78.5415 9.71415L82.2905 4.52891C85.1038 5.04971 87.5848 6.69138 89.1638 9.07719L118.551 53.2135C119.514 54.6579 120.143 56.2982 120.394 58.0161Z" fill="#FFFFFF" fill-rule="nonzero" fill-opacity="1" transform="matrix(1.00806 0 0 1 396 897)"/></g></g></g></g></svg>