<svg width="88" height="86" xmlns="http://www.w3.org/2000/svg" xmlns:xlink="http://www.w3.org/1999/xlink" xml:space="preserve" overflow="hidden"><defs><filter id="fx0" x="-10%" y="-10%" width="120%" height="120%" filterUnits="userSpaceOnUse" primitiveUnits="userSpaceOnUse"><feComponentTransfer color-interpolation-filters="sRGB"><feFuncR type="discrete" tableValues="1.000000 1.000000"/><feFuncG type="discrete" tableValues="1.000000 1.000000"/><feFuncB type="discrete" tableValues="1.000000 1.000000"/><feFuncA type="linear" slope="1.000000" intercept="0.000000"/></feComponentTransfer><feGaussianBlur stdDeviation="4.360842 4.312388"/></filter><clipPath id="clip1"><rect x="44" y="188" width="88" height="86"/></clipPath><clipPath id="clip2"><rect x="0.596527" y="0.933105" width="43.8025" height="42.1265"/></clipPath><clipPath id="clip3"><rect x="0" y="0" width="45" height="44"/></clipPath><clipPath id="clip4"><rect x="13" y="13" width="19" height="18"/></clipPath><clipPath id="clip5"><rect x="13" y="13" width="19" height="18"/></clipPath><clipPath id="clip6"><rect x="13" y="13" width="19" height="18"/></clipPath><clipPath id="clip7"><rect x="71" y="214" width="35" height="34"/></clipPath><clipPath id="clip8"><rect x="71" y="214" width="35" height="34"/></clipPath><clipPath id="clip9"><rect x="71" y="214" width="35" height="34"/></clipPath></defs><g clip-path="url(#clip1)" transform="translate(-44 -188)"><g clip-path="url(#clip2)" filter="url(#fx0)" transform="matrix(1.97778 0 0 2 44 187)"><g clip-path="url(#clip3)" transform="translate(-3.55271e-15 0)"><g clip-path="url(#clip4)" transform="matrix(1 0 0 1 -1.43051e-06 0)"><g clip-path="url(#clip5)" transform="matrix(1 0 0 1 -1.43051e-06 0)"><g clip-path="url(#clip6)" transform="matrix(1 0 0 1 -1.43051e-06 0)"><path d="M10.9143 2.52071C10.8082 2.49167 10.6986 2.55409 10.6695 2.66017L10.4067 3.62097C10.3777 3.72708 10.4401 3.83669 10.5462 3.86574 10.6524 3.89479 10.762 3.83234 10.791 3.72622L11.0539 2.76542C11.0829 2.6593 11.0204 2.54975 10.9143 2.52071Z" fill="#FFFFFF" fill-rule="nonzero" fill-opacity="1" transform="matrix(1.04098 0 0 1 13.6517 13.5)"/><path d="M11.9196 13.7328 11.487 13.4977 11.5952 14.1266 11.9196 13.7328Z" fill="#FFFFFF" fill-rule="nonzero" fill-opacity="1" transform="matrix(1.04098 0 0 1 13.6517 13.5)"/><path d="M4.42598 10.0104 5.184 9.4277C5.2712 9.36059 5.3963 9.37686 5.46341 9.46405 5.53051 9.55124 5.51424 9.67635 5.42705 9.74346L4.92336 10.1306 6.76846 10.5769 6.49221 8.92467C6.38164 9.00934 6.27938 9.08803 6.21662 9.13617 6.12747 9.20065 6.00293 9.18063 5.93845 9.09145 5.87665 9.00598 5.89219 8.88712 5.97391 8.82041 6.06787 8.74803 6.25115 8.60725 6.41783 8.47908L5.70396 4.21082 5.37426 4.05477C5.27379 4.00991 5.22873 3.8921 5.27359 3.79163 5.31844 3.69116 5.43625 3.6461 5.53672 3.69096 5.53948 3.69219 5.54223 3.69348 5.54492 3.69484L5.62395 3.73236 5.52533 3.14234 0.711875 9.1116C0.711211 9.11227 0.710547 9.11326 0.709883 9.11393 0.719389 9.11479 0.728822 9.11635 0.738105 9.11857ZM5.22584 2.87937C5.1601 2.8819 3.82799 2.83953 3.76092 2.84949L4.84301 3.32496Z" fill="#FFFFFF" fill-rule="nonzero" fill-opacity="1" transform="matrix(1.04098 0 0 1 13.6517 13.5)"/><path d="M0.474805 10.0277 4.75037 15.8034C5.15014 16.3522 5.87596 16.6225 6.53537 16.4658L13.2125 14.9544C13.7443 14.8328 14.1889 14.4701 14.4148 13.9735 14.4148 13.9735 16.1387 10.1665 16.7125 8.89678 16.9694 8.32851 16.903 7.66624 16.5385 7.16025 15.4687 5.67309 12.2546 1.21656 12.2546 1.21656 11.832 0.635226 11.0976 0.370275 10.4012 0.547852L3.82732 2.25881C3.32878 2.38932 2.91332 2.73333 2.69211 3.19879L0.300488 8.24467C0.0262941 8.82586 0.0932417 9.5106 0.474805 10.0277ZM3.57199 12.663C3.47368 12.7125 3.35388 12.6732 3.30404 12.575L2.7884 11.5454 2.00082 10.9252C1.91427 10.8572 1.89918 10.732 1.96712 10.6454 2.03506 10.5589 2.1603 10.5438 2.24686 10.6117L2.93781 11.1546 3.60486 10.6419C3.69401 10.5775 3.81856 10.5975 3.88304 10.6867 3.94483 10.7721 3.92929 10.891 3.84758 10.9577L3.34289 11.3458 3.90436 11.5547C4.00752 11.5931 4.05998 11.7079 4.02156 11.811 3.98315 11.9142 3.8684 11.9666 3.76523 11.9282L3.34422 11.7712 3.65965 12.3951C3.70932 12.4933 3.67011 12.6132 3.57199 12.663ZM4.47113 14.4407C4.37292 14.4903 4.25312 14.4509 4.20352 14.3527L3.75361 13.4639C3.70391 13.3657 3.74325 13.2458 3.84144 13.1961 3.93962 13.1464 4.05951 13.1857 4.10922 13.2839L4.55879 14.1728C4.60846 14.271 4.56925 14.3909 4.47113 14.4407ZM4.5817 12.0195C4.62008 11.9165 4.73463 11.8641 4.8377 11.9023L5.77137 12.2503C5.87546 12.2859 5.93097 12.3992 5.89538 12.5033 5.85975 12.6074 5.7465 12.6629 5.64241 12.6273 5.63899 12.6261 5.6356 12.6249 5.63225 12.6235L4.69891 12.2759C4.59578 12.2375 4.54328 12.1228 4.58163 12.0197 4.58167 12.0196 4.58167 12.0196 4.5817 12.0195ZM7.73965 15.99 6.87902 16.231C6.77374 16.2629 6.66251 16.2034 6.63063 16.0981 6.59939 15.995 6.65573 15.8858 6.75783 15.8515L7.61846 15.6104C7.72275 15.5754 7.8357 15.6315 7.87077 15.7359 7.9058 15.8401 7.84965 15.9531 7.74536 15.9881 7.74347 15.9888 7.74157 15.9894 7.73965 15.99ZM8.31539 13.4104C8.35384 13.3073 8.46856 13.2548 8.57172 13.2932L9.50506 13.6408C9.60822 13.6793 9.66068 13.794 9.62226 13.8972 9.58385 14.0003 9.4691 14.0528 9.36594 14.0144L8.4326 13.6667C8.32947 13.6284 8.27697 13.5137 8.31532 13.4106 8.31536 13.4105 8.31536 13.4105 8.31539 13.4104ZM9.63721 15.3833 8.68859 15.6868C8.5838 15.7204 8.47164 15.6626 8.43808 15.5578 8.40451 15.453 8.46228 15.3409 8.56707 15.3073L9.51602 15.0038C9.62031 14.9688 9.73326 15.0249 9.76833 15.1292 9.80336 15.2335 9.74721 15.3465 9.64292 15.3815 9.64103 15.3821 9.63913 15.3828 9.63721 15.3833ZM14.7946 10.8694 14.1611 11.6384C14.0898 11.7222 13.9641 11.7323 13.8803 11.661 13.7984 11.5913 13.7866 11.4691 13.8537 11.385L14.4869 10.616C14.5568 10.531 14.6824 10.5189 14.7674 10.5888 14.8524 10.6588 14.8646 10.7844 14.7946 10.8694ZM14.9245 7.43352C14.8941 7.5392 14.7838 7.6003 14.6781 7.56998L13.7209 7.29473C13.6143 7.2672 13.5503 7.15853 13.5778 7.05201 13.6053 6.9455 13.714 6.88145 13.8205 6.90894 13.824 6.90984 13.8274 6.91083 13.8308 6.91189L14.7883 7.18715C14.8939 7.2175 14.9549 7.32766 14.9245 7.43322 14.9245 7.43332 14.9245 7.43342 14.9245 7.43352ZM16.061 9.33174 15.4278 10.1007C15.3565 10.1845 15.2308 10.1947 15.147 10.1234 15.0651 10.0537 15.0533 9.93149 15.1204 9.84738L15.7536 9.0784C15.8248 8.99459 15.9506 8.98447 16.0344 9.05575 16.1163 9.12545 16.1281 9.24763 16.061 9.33174ZM10.9321 0.893828C11.0035 0.899018 11.0743 0.909898 11.144 0.926367L10.9325 1.69934C10.9008 1.80471 10.9606 1.91579 11.0659 1.94746 11.1713 1.97912 11.2824 1.91936 11.314 1.81399 11.315 1.81088 11.3158 1.80774 11.3166 1.80459L11.5165 1.07379C11.5258 1.0791 11.5348 1.08508 11.5441 1.09072L13.5854 5.42904 6.21695 2.68812ZM10.2863 6.70471C10.3054 6.81308 10.233 6.91641 10.1246 6.93547 10.0163 6.95453 9.91293 6.88214 9.89387 6.77377L9.82182 6.36471 9.37557 6.7077C9.28837 6.7748 9.16327 6.75853 9.09616 6.67134 9.02906 6.58415 9.04533 6.45904 9.13252 6.39193L9.58109 6.04695 8.97514 5.76008C8.87566 5.71296 8.83323 5.5941 8.88034 5.49462 8.92746 5.39514 9.04632 5.35271 9.1458 5.39982L9.8268 5.72256 10.1007 4.74041C10.1324 4.63502 10.2435 4.57529 10.3489 4.60693 10.4506 4.63751 10.5104 4.74254 10.4849 4.84566L10.1997 5.86766 10.959 6.08613C11.0652 6.11489 11.128 6.22429 11.0993 6.33047 11.0705 6.43669 10.9611 6.49948 10.8549 6.47072 10.8528 6.47016 10.8508 6.4696 10.8488 6.46897L10.2123 6.28602ZM7.55305 7.60617 8.34295 6.99889C8.43024 6.93185 8.55532 6.94829 8.62235 7.03558 8.68939 7.12287 8.67296 7.24794 8.58566 7.31498L7.79609 7.92193C7.7089 7.98904 7.58379 7.97277 7.51669 7.88558 7.44959 7.79838 7.46586 7.67328 7.55305 7.60617ZM7.17486 4.90742C7.07383 4.86389 7.02721 4.74665 7.07074 4.64562 7.1143 4.54458 7.23151 4.49796 7.33255 4.54152 7.33683 4.54335 7.34104 4.54534 7.3452 4.5475L8.24566 4.97383C8.34398 5.02323 8.38362 5.14296 8.33425 5.24128 8.28644 5.33644 8.17225 5.37718 8.075 5.33375ZM0.454053 8.78764C1.39642 7.42545 4.54418 3.67436 4.54418 3.67436 4.54418 3.67436 3.81301 3.32695 3.57365 3.20244 3.13205 2.97281 3.54988 2.44873 3.82102 2.44873 4.27952 2.44873 5.65449 2.4909 5.65449 2.4909 5.75048 2.49262 5.83173 2.5623 5.84807 2.65691L6.06256 3.93988 6.44506 4.12117C6.54337 4.17058 6.58302 4.29031 6.53364 4.38862 6.48583 4.48378 6.37165 4.52452 6.27439 4.48109L6.14258 4.41867 6.77576 8.20482C6.86797 8.14479 6.99138 8.17089 7.05141 8.2631 7.10796 8.34996 7.08844 8.4657 7.00652 8.52922 7.00652 8.52922 6.94277 8.57836 6.85014 8.64941L7.15826 10.4912 10.1641 8.30709 10.0669 7.75492C10.0477 7.64655 10.12 7.54315 10.2284 7.52399 10.3368 7.50484 10.4402 7.57715 10.4593 7.68553L10.5227 8.04644 12.1709 6.84914 11.806 6.74422C11.7008 6.71208 11.6415 6.60075 11.6737 6.49549 11.7051 6.39263 11.8124 6.3333 11.9163 6.36139L12.58 6.55197 13.8563 5.62461C13.9275 5.57351 14.0236 5.57444 14.0937 5.62693 14.0937 5.62693 15.8647 6.90794 16.4146 7.38471 16.7338 7.66136 16.4954 8.1087 16.225 8.0325 16.0762 7.99053 15.6354 7.84523 15.6354 7.84523 15.5291 7.81648 15.4663 7.70708 15.4951 7.60089 15.5239 7.49468 15.6333 7.43189 15.7395 7.46064 15.7415 7.46121 15.7436 7.46177 15.7456 7.4624L15.9378 7.5235 13.9709 6.034 12.9977 6.74123C13.0456 6.84031 13.0041 6.95941 12.905 7.00729 12.861 7.02857 12.8106 7.03292 12.7636 7.01947L12.6567 6.98893 10.5998 8.48307 10.6323 8.66668C10.6502 8.77522 10.5768 8.87775 10.4682 8.89568 10.3643 8.91285 10.2649 8.84611 10.2415 8.74338L7.38736 10.8172 10.9414 12.7477 10.7588 11.6789C10.7397 11.5705 10.812 11.4671 10.9203 11.4479 11.0287 11.4288 11.1321 11.5011 11.1513 11.6095L11.3767 12.9844C11.3767 12.9844 13.0302 13.8456 13.5512 14.1654 13.8676 14.3598 13.5438 14.7893 13.265 14.7893L12.4386 14.7877C12.3285 14.7876 12.2394 14.6983 12.2395 14.5883 12.2396 14.4783 12.3289 14.3891 12.4389 14.3892L12.4392 14.3892 13.1308 14.3906 12.2749 13.9257C12.2708 13.9324 12.2663 13.9387 12.2612 13.9446 12.2599 13.9463 11.6281 14.714 11.6264 14.7153 11.6022 14.7439 11.5704 14.7652 11.5348 14.7767L10.5862 15.0802C10.4814 15.1138 10.3692 15.056 10.3356 14.9512 10.3021 14.8464 10.3598 14.7343 10.4646 14.7007L10.8647 14.5725 10.2993 14.362C10.1961 14.3236 10.1437 14.2088 10.1821 14.1057 10.2205 14.0025 10.3352 13.9501 10.4384 13.9885L11.2173 14.2787 11.0218 13.2451 7.14232 11.1373 6.74887 12.6142 7.63805 12.9456C7.74121 12.984 7.79367 13.0987 7.75525 13.2019 7.71684 13.3051 7.60209 13.3575 7.49893 13.3191L6.64594 13.001C6.64594 13.001 6.10805 15.1754 5.87758 15.8852 5.75902 16.2504 5.28843 16.1301 5.16209 15.9445 5.04 15.7652 4.65309 15.2416 4.65309 15.2416 4.60637 15.142 4.64927 15.0233 4.74891 14.9766 4.84424 14.9319 4.95792 14.9691 5.00836 15.0616L5.50309 15.7446 6.76978 10.9872 0.954922 9.58109 1.46359 9.99646C1.55237 10.0614 1.57165 10.1861 1.50665 10.2749 1.44166 10.3637 1.31701 10.3829 1.22823 10.318 1.22458 10.3153 1.22102 10.3125 1.21756 10.3096 1.21756 10.3096 0.770313 9.95841 0.630527 9.83078 0.333426 9.55974 0.274391 9.04735 0.454053 8.78764ZM13.5279 12.407 12.8944 13.176C12.8258 13.262 12.7005 13.2761 12.6145 13.2075 12.5285 13.1388 12.5144 13.0135 12.583 12.9275 12.5843 12.9258 12.5856 12.9242 12.587 12.9227L13.2205 12.1537C13.2918 12.0699 13.4175 12.0597 13.5013 12.131 13.5833 12.2007 13.5951 12.3229 13.5279 12.407ZM10.8166 10.8594C10.7083 10.8781 10.6052 10.8059 10.5858 10.6977L10.4128 9.71689C10.3937 9.60852 10.466 9.50513 10.5744 9.48597 10.6827 9.46681 10.7861 9.53912 10.8053 9.6475L10.9783 10.6287C10.9974 10.737 10.925 10.8403 10.8166 10.8594 10.8166 10.8594 10.8166 10.8594 10.8166 10.8594Z" fill="#FFFFFF" fill-rule="nonzero" fill-opacity="1" transform="matrix(1.04098 0 0 1 13.6517 13.5)"/></g></g></g></g></g><g clip-path="url(#clip7)"><g clip-path="url(#clip8)"><g clip-path="url(#clip9)"><path d="M21.8285 5.04143C21.6164 4.98333 21.3972 5.10818 21.3391 5.32034L20.8134 7.24193C20.7553 7.45417 20.8803 7.67338 21.0925 7.73148 21.3047 7.78959 21.5239 7.66468 21.582 7.45244L22.1077 5.53084C22.1657 5.31861 22.0408 5.0995 21.8285 5.04143Z" fill="#FFFFFF" fill-rule="nonzero" fill-opacity="1" transform="matrix(1.02941 0 0 1 71 214)"/><path d="M23.8392 27.4656 22.9739 26.9955 23.1904 28.2532 23.8392 27.4656Z" fill="#FFFFFF" fill-rule="nonzero" fill-opacity="1" transform="matrix(1.02941 0 0 1 71 214)"/><path d="M8.85195 20.0208 10.368 18.8554C10.5424 18.7212 10.7926 18.7537 10.9268 18.9281 11.061 19.1025 11.0285 19.3527 10.8541 19.4869L9.84672 20.2612 13.5369 21.1537 12.9844 17.8493C12.7633 18.0187 12.5588 18.1761 12.4332 18.2723 12.2549 18.4013 12.0059 18.3613 11.8769 18.1829 11.7533 18.012 11.7844 17.7742 11.9478 17.6408 12.1357 17.4961 12.5023 17.2145 12.8357 16.9582L11.4079 8.42164 10.7485 8.10953C10.5476 8.01982 10.4575 7.78421 10.5472 7.58326 10.6369 7.38232 10.8725 7.2922 11.0734 7.38192 11.079 7.38437 11.0845 7.38696 11.0898 7.38969L11.2479 7.46473 11.0507 6.28469 1.42375 18.2232C1.42242 18.2245 1.42109 18.2265 1.41977 18.2279 1.43878 18.2296 1.45764 18.2327 1.47621 18.2371ZM10.4517 5.75875C10.3202 5.7638 7.65598 5.67906 7.52184 5.69898L9.68602 6.64992Z" fill="#FFFFFF" fill-rule="nonzero" fill-opacity="1" transform="matrix(1.02941 0 0 1 71 214)"/><path d="M0.949609 20.0554 9.50074 31.6067C10.3003 32.7044 11.7519 33.245 13.0707 32.9315L26.425 29.9087C27.4886 29.6656 28.3778 28.9402 28.8296 27.9471 28.8296 27.9471 32.2774 20.3329 33.4249 17.7936 33.9388 16.657 33.8061 15.3325 33.077 14.3205 30.9373 11.3462 24.5092 2.43313 24.5092 2.43313 23.664 1.27045 22.1953 0.740549 20.8024 1.0957L7.65465 4.51762C6.65756 4.77864 5.82663 5.46667 5.38422 6.39758L0.600977 16.4893C0.0525882 17.6517 0.186483 19.0212 0.949609 20.0554ZM7.14398 25.326C6.94736 25.425 6.70776 25.3463 6.60809 25.15L5.5768 23.0908 4.00164 21.8503C3.82853 21.7144 3.79836 21.464 3.93424 21.2908 4.07012 21.1177 4.3206 21.0876 4.49371 21.2234L5.87563 22.3092 7.20973 21.2839C7.38803 21.1549 7.63712 21.1949 7.76608 21.3733 7.88966 21.5442 7.85858 21.782 7.69516 21.9154L6.68578 22.6917 7.80871 23.1094C8.01503 23.1862 8.11996 23.4157 8.04313 23.622 7.96629 23.8284 7.73679 23.9333 7.53047 23.8564L6.68844 23.5423 7.3193 24.7901C7.41864 24.9865 7.34022 25.2263 7.14398 25.326ZM8.94227 28.8814C8.74584 28.9806 8.50624 28.9018 8.40703 28.7054L7.50723 26.9277C7.40782 26.7314 7.48651 26.4916 7.68287 26.3922 7.87923 26.2928 8.11903 26.3714 8.21844 26.5678L9.11758 28.3455C9.21692 28.5419 9.1385 28.7817 8.94227 28.8814ZM9.1634 24.0391C9.24016 23.8331 9.46926 23.7281 9.67539 23.8046L11.5427 24.5006C11.7509 24.5718 11.8619 24.7984 11.7908 25.0065 11.7195 25.2147 11.493 25.3258 11.2848 25.2546 11.278 25.2522 11.2712 25.2497 11.2645 25.247L9.39781 24.5517C9.19156 24.475 9.08657 24.2456 9.16327 24.0394 9.16333 24.0393 9.16333 24.0392 9.1634 24.0391ZM15.4793 31.9799 13.758 32.462C13.5475 32.5258 13.325 32.4068 13.2613 32.1962 13.1988 31.99 13.3115 31.7716 13.5157 31.703L15.2369 31.2209C15.4455 31.1508 15.6714 31.2631 15.7415 31.4717 15.8116 31.6803 15.6993 31.9062 15.4907 31.9763 15.4869 31.9775 15.4831 31.9788 15.4793 31.9799ZM16.6308 26.8208C16.7077 26.6146 16.9371 26.5096 17.1434 26.5864L19.0101 27.2817C19.2164 27.3585 19.3214 27.588 19.2445 27.7943 19.1677 28.0007 18.9382 28.1056 18.7319 28.0287L16.8652 27.3335C16.6589 27.2568 16.5539 27.0273 16.6306 26.8212 16.6307 26.821 16.6307 26.821 16.6308 26.8208ZM19.2744 30.7667 17.3772 31.3736C17.1676 31.4408 16.9433 31.3252 16.8762 31.1156 16.809 30.9061 16.9246 30.6817 17.1341 30.6146L19.032 30.0077C19.2406 29.9376 19.4665 30.0498 19.5367 30.2585 19.6067 30.4671 19.4944 30.693 19.2858 30.763 19.2821 30.7643 19.2783 30.7656 19.2744 30.7667ZM29.5893 21.7387 28.3223 23.2767C28.1797 23.4443 27.9282 23.4646 27.7606 23.322 27.5967 23.1826 27.5731 22.9382 27.7073 22.77L28.9737 21.2321C29.1136 21.0621 29.3648 21.0377 29.5348 21.1776 29.7048 21.3175 29.7292 21.5687 29.5893 21.7387ZM29.8489 14.867C29.7882 15.0784 29.5676 15.2006 29.3562 15.14L27.4417 14.5895C27.2287 14.5344 27.1006 14.3171 27.1556 14.104 27.2106 13.891 27.428 13.7629 27.6411 13.8179 27.6479 13.8197 27.6548 13.8217 27.6615 13.8238L29.5767 14.3743C29.7878 14.435 29.9098 14.6553 29.8491 14.8664 29.8491 14.8666 29.849 14.8668 29.8489 14.867ZM32.122 18.6635 30.8557 20.2014C30.7131 20.3691 30.4616 20.3893 30.294 20.2467 30.1301 20.1073 30.1065 19.863 30.2407 19.6948L31.5071 18.1568C31.6497 17.9892 31.9012 17.9689 32.0688 18.1115 32.2327 18.2509 32.2562 18.4953 32.122 18.6635ZM21.8643 1.78766C22.007 1.79804 22.1487 1.8198 22.2879 1.85273L21.8649 3.39867C21.8016 3.60941 21.9211 3.83159 22.1319 3.89491 22.3426 3.95824 22.5648 3.83873 22.6281 3.62799 22.63 3.62176 22.6316 3.61549 22.6332 3.60918L23.033 2.14758C23.0516 2.1582 23.0695 2.17016 23.0881 2.18145L27.1708 10.8581 12.4339 5.37625ZM20.5727 13.4094C20.6108 13.6262 20.466 13.8328 20.2493 13.8709 20.0325 13.9091 19.8259 13.7643 19.7877 13.5475L19.6436 12.7294 18.7511 13.4154C18.5767 13.5496 18.3265 13.5171 18.1923 13.3427 18.0581 13.1683 18.0907 12.9181 18.265 12.7839L19.1622 12.0939 17.9503 11.5202C17.7513 11.4259 17.6665 11.1882 17.7607 10.9892 17.8549 10.7903 18.0926 10.7054 18.2916 10.7996L19.6536 11.4451 20.2014 9.48082C20.2648 9.27005 20.4869 9.15058 20.6977 9.21387 20.9012 9.27503 21.0209 9.48507 20.9698 9.69133L20.3993 11.7353 21.918 12.1723C22.1305 12.2298 22.2561 12.4486 22.1985 12.6609 22.141 12.8734 21.9222 12.999 21.7098 12.9414 21.7057 12.9403 21.7016 12.9392 21.6976 12.9379L20.4246 12.572ZM15.1061 15.2123 16.6859 13.9978C16.8605 13.8637 17.1106 13.8966 17.2447 14.0712 17.3788 14.2457 17.3459 14.4959 17.1713 14.63L15.5922 15.8439C15.4178 15.9781 15.1676 15.9455 15.0334 15.7712 14.8992 15.5968 14.9317 15.3466 15.1061 15.2123ZM14.3497 9.81484C14.1477 9.72779 14.0544 9.4933 14.1415 9.29123 14.2286 9.08916 14.463 8.99592 14.6651 9.08305 14.6737 9.0867 14.6821 9.09068 14.6904 9.095L16.4913 9.94766C16.688 10.0465 16.7672 10.2859 16.6685 10.4826 16.5729 10.6729 16.3445 10.7544 16.15 10.6675ZM0.908105 17.5753C2.79285 14.8509 9.08836 7.34871 9.08836 7.34871 9.08836 7.34871 7.62603 6.65391 7.1473 6.40488 6.2641 5.94562 7.09976 4.89746 7.64203 4.89746 8.55904 4.89746 11.309 4.9818 11.309 4.9818 11.501 4.98524 11.6635 5.1246 11.6961 5.31383L12.1251 7.87977 12.8901 8.24234C13.0867 8.34116 13.166 8.58062 13.0673 8.77725 12.9717 8.96757 12.7433 9.04905 12.5488 8.96219L12.2852 8.83734 13.5515 16.4096C13.7359 16.2896 13.9828 16.3418 14.1028 16.5262 14.2159 16.6999 14.1769 16.9314 14.013 17.0584 14.013 17.0584 13.8855 17.1567 13.7003 17.2988L14.3165 20.9824 20.3283 16.6142 20.1337 15.5098C20.0954 15.2931 20.24 15.0863 20.4568 15.048 20.6735 15.0097 20.8803 15.1543 20.9186 15.3711L21.0455 16.0929 24.3419 13.6983 23.6121 13.4884C23.4016 13.4242 23.2831 13.2015 23.3474 12.991 23.4101 12.7853 23.6249 12.6666 23.8325 12.7228L25.16 13.1039 27.7127 11.2492C27.855 11.147 28.0471 11.1489 28.1875 11.2539 28.1875 11.2539 31.7293 13.8159 32.8293 14.7694 33.4676 15.3227 32.9909 16.2174 32.4501 16.065 32.1523 15.9811 31.2707 15.6905 31.2707 15.6905 31.0583 15.633 30.9327 15.4142 30.9902 15.2018 31.0477 14.9894 31.2665 14.8638 31.479 14.9213 31.4831 14.9224 31.4871 14.9235 31.4912 14.9248L31.8757 15.047 27.9418 12.068 25.9954 13.4825C26.0911 13.6806 26.0081 13.9188 25.81 14.0146 25.7219 14.0571 25.6213 14.0658 25.5272 14.0389L25.3134 13.9779 21.1995 16.9661 21.2646 17.3334C21.3005 17.5504 21.1535 17.7555 20.9364 17.7914 20.7285 17.8257 20.5298 17.6922 20.483 17.4868L14.7747 21.6345 21.8829 25.4954 21.5176 23.3577C21.4793 23.141 21.6239 22.9342 21.8407 22.8959 22.0574 22.8576 22.2642 23.0022 22.3025 23.2189L22.7534 25.9688C22.7534 25.9688 26.0605 27.6911 27.1024 28.3309 27.7351 28.7195 27.0876 29.5787 26.53 29.5787L24.8771 29.5754C24.657 29.5752 24.4788 29.3967 24.479 29.1766 24.4792 28.9565 24.6577 28.7783 24.8778 28.7785L24.8784 28.7785 26.2617 28.7811 24.5497 27.8514C24.5416 27.8647 24.5325 27.8774 24.5225 27.8893 24.5198 27.8926 23.2561 29.4279 23.2528 29.4306 23.2043 29.4878 23.1409 29.5303 23.0695 29.5534L21.1723 30.1604C20.9627 30.2275 20.7384 30.112 20.6713 29.9024 20.6041 29.6928 20.7197 29.4685 20.9293 29.4014L21.7295 29.145 20.5986 28.724C20.3922 28.6472 20.2873 28.4177 20.3641 28.2114 20.441 28.005 20.6705 27.9001 20.8768 27.977L22.4347 28.5573 22.0436 26.4901 14.2846 22.2746 13.4977 25.2284 15.2761 25.8911C15.4824 25.968 15.5873 26.1975 15.5105 26.4038 15.4337 26.6101 15.2042 26.715 14.9979 26.6382L13.2919 26.002C13.2919 26.002 12.2161 30.3508 11.7552 31.7703 11.518 32.5008 10.5769 32.2602 10.3242 31.8889 10.08 31.5304 9.30617 30.4831 9.30617 30.4831 9.21274 30.2839 9.29853 30.0466 9.49782 29.9532 9.68847 29.8638 9.91585 29.9383 10.0167 30.1232L11.0062 31.4892 13.5396 21.9745 1.90984 19.1622 2.92719 19.9929C3.10474 20.1229 3.1433 20.3722 3.01331 20.5498 2.88332 20.7273 2.63401 20.7659 2.45645 20.6359 2.44916 20.6306 2.44204 20.625 2.43512 20.6191 2.43512 20.6191 1.54063 19.9168 1.26105 19.6616 0.666852 19.1195 0.548781 18.0947 0.908105 17.5753ZM27.0559 24.814 25.7889 26.352C25.6516 26.524 25.4009 26.5521 25.2289 26.4149 25.0569 26.2777 25.0287 26.027 25.166 25.8549 25.1686 25.8517 25.1712 25.8485 25.1739 25.8453L26.441 24.3073C26.5835 24.1397 26.835 24.1195 27.0026 24.2621 27.1665 24.4014 27.1901 24.6458 27.0559 24.814ZM21.6332 21.7188C21.4166 21.7562 21.2104 21.6118 21.1716 21.3954L20.8257 19.4338C20.7873 19.217 20.932 19.0103 21.1487 18.9719 21.3655 18.9336 21.5723 19.0782 21.6106 19.295L21.9566 21.2573C21.9947 21.474 21.85 21.6806 21.6333 21.7188 21.6332 21.7188 21.6332 21.7188 21.6332 21.7188Z" fill="#FFFFFF" fill-rule="nonzero" fill-opacity="1" transform="matrix(1.02941 0 0 1 71 214)"/></g></g></g></g></svg>