<?xml version="1.0" encoding="UTF-8"?><svg id="Layer_2" xmlns="http://www.w3.org/2000/svg" viewBox="0 0 216.35 205.57"><defs><style>.cls-1{fill:#fff;}</style></defs><g id="_ÎÓÈ_1"><g><g><g><path class="cls-1" d="M93.33,79.14h-6.71c-.08,0-.16-.03-.22-.09l-2.82-2.82c-.06-.06-.09-.14-.09-.22V3.44c0-.17,.14-.32,.32-.32h2.52c.17,0,.32,.14,.32,.32s-.14,.32-.32,.32h-2.2V75.87l2.64,2.64h6.58c.17,0,.32,.14,.32,.32s-.14,.32-.32,.32Z"/><path class="cls-1" d="M80.51,73.59h-2.75c-.09,0-.16-.07-.16-.16s.07-.16,.16-.16h2.75c.09,0,.16,.07,.16,.16s-.07,.16-.16,.16Z"/><path class="cls-1" d="M80.51,66.98h-2.75c-.09,0-.16-.07-.16-.16s.07-.16,.16-.16h2.75c.09,0,.16,.07,.16,.16s-.07,.16-.16,.16Z"/><path class="cls-1" d="M80.51,60.37h-2.75c-.09,0-.16-.07-.16-.16s.07-.16,.16-.16h2.75c.09,0,.16,.07,.16,.16s-.07,.16-.16,.16Z"/><path class="cls-1" d="M80.51,53.75h-2.75c-.09,0-.16-.07-.16-.16s.07-.16,.16-.16h2.75c.09,0,.16,.07,.16,.16s-.07,.16-.16,.16Z"/><path class="cls-1" d="M80.51,47.14h-2.75c-.09,0-.16-.07-.16-.16s.07-.16,.16-.16h2.75c.09,0,.16,.07,.16,.16s-.07,.16-.16,.16Z"/><path class="cls-1" d="M80.51,40.53h-2.75c-.09,0-.16-.07-.16-.16s.07-.16,.16-.16h2.75c.09,0,.16,.07,.16,.16s-.07,.16-.16,.16Z"/><path class="cls-1" d="M80.51,33.92h-2.75c-.09,0-.16-.07-.16-.16s.07-.16,.16-.16h2.75c.09,0,.16,.07,.16,.16s-.07,.16-.16,.16Z"/><path class="cls-1" d="M80.51,27.3h-2.75c-.09,0-.16-.07-.16-.16s.07-.16,.16-.16h2.75c.09,0,.16,.07,.16,.16s-.07,.16-.16,.16Z"/><path class="cls-1" d="M80.51,20.69h-2.75c-.09,0-.16-.07-.16-.16s.07-.16,.16-.16h2.75c.09,0,.16,.07,.16,.16s-.07,.16-.16,.16Z"/><path class="cls-1" d="M80.51,14.08h-2.75c-.09,0-.16-.07-.16-.16s.07-.16,.16-.16h2.75c.09,0,.16,.07,.16,.16s-.07,.16-.16,.16Z"/><path class="cls-1" d="M80.51,7.46h-2.75c-.09,0-.16-.07-.16-.16s.07-.16,.16-.16h2.75c.09,0,.16,.07,.16,.16s-.07,.16-.16,.16Z"/><g><path class="cls-1" d="M88.75,73.59h-2.75c-.09,0-.16-.07-.16-.16s.07-.16,.16-.16h2.75c.09,0,.16,.07,.16,.16s-.07,.16-.16,.16Z"/><path class="cls-1" d="M88.75,66.98h-2.75c-.09,0-.16-.07-.16-.16s.07-.16,.16-.16h2.75c.09,0,.16,.07,.16,.16s-.07,.16-.16,.16Z"/><path class="cls-1" d="M88.75,60.37h-2.75c-.09,0-.16-.07-.16-.16s.07-.16,.16-.16h2.75c.09,0,.16,.07,.16,.16s-.07,.16-.16,.16Z"/><path class="cls-1" d="M88.75,53.75h-2.75c-.09,0-.16-.07-.16-.16s.07-.16,.16-.16h2.75c.09,0,.16,.07,.16,.16s-.07,.16-.16,.16Z"/><path class="cls-1" d="M88.75,47.14h-2.75c-.09,0-.16-.07-.16-.16s.07-.16,.16-.16h2.75c.09,0,.16,.07,.16,.16s-.07,.16-.16,.16Z"/><path class="cls-1" d="M88.75,40.53h-2.75c-.09,0-.16-.07-.16-.16s.07-.16,.16-.16h2.75c.09,0,.16,.07,.16,.16s-.07,.16-.16,.16Z"/><path class="cls-1" d="M88.75,33.92h-2.75c-.09,0-.16-.07-.16-.16s.07-.16,.16-.16h2.75c.09,0,.16,.07,.16,.16s-.07,.16-.16,.16Z"/><path class="cls-1" d="M88.75,27.3h-2.75c-.09,0-.16-.07-.16-.16s.07-.16,.16-.16h2.75c.09,0,.16,.07,.16,.16s-.07,.16-.16,.16Z"/><path class="cls-1" d="M88.75,20.69h-2.75c-.09,0-.16-.07-.16-.16s.07-.16,.16-.16h2.75c.09,0,.16,.07,.16,.16s-.07,.16-.16,.16Z"/><path class="cls-1" d="M88.75,14.08h-2.75c-.09,0-.16-.07-.16-.16s.07-.16,.16-.16h2.75c.09,0,.16,.07,.16,.16s-.07,.16-.16,.16Z"/><path class="cls-1" d="M88.75,7.46h-2.75c-.09,0-.16-.07-.16-.16s.07-.16,.16-.16h2.75c.09,0,.16,.07,.16,.16s-.07,.16-.16,.16Z"/></g><g><path class="cls-1" d="M86.92,70.29h-.92c-.09,0-.16-.07-.16-.16s.07-.16,.16-.16h.92c.09,0,.16,.07,.16,.16s-.07,.16-.16,.16Z"/><path class="cls-1" d="M86.92,63.67h-.92c-.09,0-.16-.07-.16-.16s.07-.16,.16-.16h.92c.09,0,.16,.07,.16,.16s-.07,.16-.16,.16Z"/><path class="cls-1" d="M86.92,57.06h-.92c-.09,0-.16-.07-.16-.16s.07-.16,.16-.16h.92c.09,0,.16,.07,.16,.16s-.07,.16-.16,.16Z"/><path class="cls-1" d="M86.92,50.45h-.92c-.09,0-.16-.07-.16-.16s.07-.16,.16-.16h.92c.09,0,.16,.07,.16,.16s-.07,.16-.16,.16Z"/><path class="cls-1" d="M86.92,43.84h-.92c-.09,0-.16-.07-.16-.16s.07-.16,.16-.16h.92c.09,0,.16,.07,.16,.16s-.07,.16-.16,.16Z"/><path class="cls-1" d="M86.92,37.22h-.92c-.09,0-.16-.07-.16-.16s.07-.16,.16-.16h.92c.09,0,.16,.07,.16,.16s-.07,.16-.16,.16Z"/><path class="cls-1" d="M86.92,30.61h-.92c-.09,0-.16-.07-.16-.16s.07-.16,.16-.16h.92c.09,0,.16,.07,.16,.16s-.07,.16-.16,.16Z"/><path class="cls-1" d="M86.92,24h-.92c-.09,0-.16-.07-.16-.16s.07-.16,.16-.16h.92c.09,0,.16,.07,.16,.16s-.07,.16-.16,.16Z"/><path class="cls-1" d="M86.92,17.38h-.92c-.09,0-.16-.07-.16-.16s.07-.16,.16-.16h.92c.09,0,.16,.07,.16,.16s-.07,.16-.16,.16Z"/><path class="cls-1" d="M86.92,10.77h-.92c-.09,0-.16-.07-.16-.16s.07-.16,.16-.16h.92c.09,0,.16,.07,.16,.16s-.07,.16-.16,.16Z"/></g><path class="cls-1" d="M104.17,5.54h-3.93s-.08-.02-.11-.05L94.95,.32h-11.15c-.09,0-.16-.07-.16-.16s.07-.16,.16-.16h11.22s.08,.02,.11,.05l5.18,5.18h3.86c.09,0,.16,.07,.16,.16s-.07,.16-.16,.16Z"/><path class="cls-1" d="M106.8,5.7h-1.56c-.17,0-.32-.14-.32-.32s.14-.32,.32-.32h1.56c.17,0,.32,.14,.32,.32s-.14,.32-.32,.32Z"/><g><path class="cls-1" d="M96.7,75.28s-.08-.02-.11-.05l-1.64-1.64h-3.86c-.09,0-.16-.07-.16-.16s.07-.16,.16-.16h3.93s.08,.02,.11,.05l1.68,1.69c.06,.06,.06,.16,0,.22-.03,.03-.07,.05-.11,.05Z"/><path class="cls-1" d="M98.04,76.86c-.08,0-.16-.03-.22-.09l-.8-.8c-.12-.12-.12-.32,0-.45s.32-.12,.45,0l.8,.8c.12,.12,.12,.32,0,.45-.06,.06-.14,.09-.22,.09Z"/></g><g><path class="cls-1" d="M96.7,62.05s-.08-.02-.11-.05l-1.64-1.64h-3.86c-.09,0-.16-.07-.16-.16s.07-.16,.16-.16h3.93s.08,.02,.11,.05l1.68,1.69c.06,.06,.06,.16,0,.22-.03,.03-.07,.05-.11,.05Z"/><path class="cls-1" d="M98.04,63.63c-.08,0-.16-.03-.22-.09l-.8-.8c-.12-.12-.12-.32,0-.45s.32-.12,.45,0l.8,.8c.12,.12,.12,.32,0,.45-.06,.06-.14,.09-.22,.09Z"/></g><g><path class="cls-1" d="M96.7,48.83s-.08-.02-.11-.05l-1.64-1.64h-3.86c-.09,0-.16-.07-.16-.16s.07-.16,.16-.16h3.93s.08,.02,.11,.05l1.68,1.68c.06,.06,.06,.16,0,.22-.03,.03-.07,.05-.11,.05Z"/><path class="cls-1" d="M98.04,50.4c-.08,0-.16-.03-.22-.09l-.8-.8c-.12-.12-.12-.32,0-.45,.12-.12,.32-.12,.45,0l.8,.8c.12,.12,.12,.32,0,.45-.06,.06-.14,.09-.22,.09Z"/></g><g><path class="cls-1" d="M96.7,35.6s-.08-.02-.11-.05l-1.64-1.64h-3.86c-.09,0-.16-.07-.16-.16s.07-.16,.16-.16h3.93s.08,.02,.11,.05l1.68,1.69c.06,.06,.06,.16,0,.22-.03,.03-.07,.05-.11,.05Z"/><path class="cls-1" d="M98.04,37.18c-.08,0-.16-.03-.22-.09l-.8-.8c-.12-.12-.12-.32,0-.45,.12-.12,.32-.12,.45,0l.8,.8c.12,.12,.12,.32,0,.45-.06,.06-.14,.09-.22,.09Z"/></g><g><path class="cls-1" d="M96.7,22.37s-.08-.02-.11-.05l-1.64-1.64h-3.86c-.09,0-.16-.07-.16-.16s.07-.16,.16-.16h3.93s.08,.02,.11,.05l1.68,1.69c.06,.06,.06,.16,0,.22-.03,.03-.07,.05-.11,.05Z"/><path class="cls-1" d="M98.04,23.95c-.08,0-.16-.03-.22-.09l-.8-.8c-.12-.12-.12-.32,0-.45,.12-.12,.32-.12,.45,0l.8,.8c.12,.12,.12,.32,0,.45-.06,.06-.14,.09-.22,.09Z"/></g><g><path class="cls-1" d="M96.7,9.15s-.08-.02-.11-.05l-1.64-1.64h-3.86c-.09,0-.16-.07-.16-.16s.07-.16,.16-.16h3.93s.08,.02,.11,.05l1.68,1.68c.06,.06,.06,.16,0,.22-.03,.03-.07,.05-.11,.05Z"/><path class="cls-1" d="M98.04,10.72c-.08,0-.16-.03-.22-.09l-.8-.8c-.12-.12-.12-.32,0-.45,.12-.12,.32-.12,.45,0l.8,.8c.12,.12,.12,.32,0,.45-.06,.06-.14,.09-.22,.09Z"/></g><path class="cls-1" d="M85.19,90.74c-.08,0-.16-.03-.22-.09l-5.4-5.4h-30.97l-3.37,3.37c-.06,.06-.14,.09-.22,.09H13.87c-.17,0-.32-.14-.32-.32s.14-.32,.32-.32h31l3.37-3.37c.06-.06,.14-.09,.22-.09h31.23c.08,0,.16,.03,.22,.09l5.49,5.49c.12,.12,.12,.32,0,.45-.06,.06-.14,.09-.22,.09Z"/><path class="cls-1" d="M79.46,87.67s-.08-.02-.11-.05l-.81-.81s-.05-.07-.05-.11v-.57c0-.09,.07-.16,.16-.16s.16,.07,.16,.16v.5l.77,.77c.06,.06,.06,.16,0,.22-.03,.03-.07,.05-.11,.05Z"/><path class="cls-1" d="M77.63,87.67s-.08-.02-.11-.05l-.81-.81s-.05-.07-.05-.11v-.57c0-.09,.07-.16,.16-.16s.16,.07,.16,.16v.5l.77,.77c.06,.06,.06,.16,0,.22-.03,.03-.07,.05-.11,.05Z"/><path class="cls-1" d="M75.8,87.67s-.08-.02-.11-.05l-.81-.81s-.05-.07-.05-.11v-.57c0-.09,.07-.16,.16-.16s.16,.07,.16,.16v.5l.77,.77c.06,.06,.06,.16,0,.22-.03,.03-.07,.05-.11,.05Z"/><path class="cls-1" d="M73.97,87.67s-.08-.02-.11-.05l-.81-.81s-.05-.07-.05-.11v-.57c0-.09,.07-.16,.16-.16s.16,.07,.16,.16v.5l.77,.77c.06,.06,.06,.16,0,.22-.03,.03-.07,.05-.11,.05Z"/><path class="cls-1" d="M72.14,87.67s-.08-.02-.11-.05l-.81-.81s-.05-.07-.05-.11v-.57c0-.09,.07-.16,.16-.16s.16,.07,.16,.16v.5l.77,.77c.06,.06,.06,.16,0,.22-.03,.03-.07,.05-.11,.05Z"/><path class="cls-1" d="M70.3,87.67s-.08-.02-.11-.05l-.81-.81s-.05-.07-.05-.11v-.57c0-.09,.07-.16,.16-.16s.16,.07,.16,.16v.5l.77,.77c.06,.06,.06,.16,0,.22-.03,.03-.07,.05-.11,.05Z"/><path class="cls-1" d="M68.47,87.67s-.08-.02-.11-.05l-.81-.81s-.05-.07-.05-.11v-.57c0-.09,.07-.16,.16-.16s.16,.07,.16,.16v.5l.77,.77c.06,.06,.06,.16,0,.22-.03,.03-.07,.05-.11,.05Z"/><path class="cls-1" d="M66.64,87.67s-.08-.02-.11-.05l-.81-.81s-.05-.07-.05-.11v-.57c0-.09,.07-.16,.16-.16s.16,.07,.16,.16v.5l.77,.77c.06,.06,.06,.16,0,.22-.03,.03-.07,.05-.11,.05Z"/><path class="cls-1" d="M64.81,87.67s-.08-.02-.11-.05l-.81-.81s-.05-.07-.05-.11v-.57c0-.09,.07-.16,.16-.16s.16,.07,.16,.16v.5l.77,.77c.06,.06,.06,.16,0,.22-.03,.03-.07,.05-.11,.05Z"/><path class="cls-1" d="M27.95,88.4s-.08-.02-.11-.05c-.06-.06-.06-.16,0-.22l.57-.57s.07-.05,.11-.05h17.21c.09,0,.16,.07,.16,.16s-.07,.16-.16,.16H28.58l-.52,.52s-.07,.05-.11,.05Z"/><path class="cls-1" d="M10.87,88.65h-2.59s-.08-.02-.11-.05l-.76-.76s-.05-.07-.05-.11v-2.03c0-.09,.07-.16,.16-.16s.16,.07,.16,.16v1.97l.67,.67h2.53c.09,0,.16,.07,.16,.16s-.07,.16-.16,.16Z"/><path class="cls-1" d="M7.52,83.56c-.09,0-.16-.07-.16-.16v-3.66c0-.09,.07-.16,.16-.16s.16,.07,.16,.16v3.66c0,.09-.07,.16-.16,.16Z"/><path class="cls-1" d="M79.46,83.18h-31.83s-.08-.02-.11-.05l-7.92-7.92s-.05-.07-.05-.11v-3.07c0-.09,.07-.16,.16-.16s.16,.07,.16,.16v3l7.83,7.83h31.77c.09,0,.16,.07,.16,.16s-.07,.16-.16,.16Z"/><g><g><path class="cls-1" d="M73.82,73.6h-13.61c-.09,0-.16-.07-.16-.16s.07-.16,.16-.16h13.61c.09,0,.16,.07,.16,.16s-.07,.16-.16,.16Z"/><polygon class="cls-1" points="60.07 73.46 60.07 73.81 63.67 73.81 64.06 73.43 60.07 73.46"/></g><rect class="cls-1" x="58.66" y="73.39" width=".46" height=".46" transform="translate(117.79 147.25) rotate(180)"/><rect class="cls-1" x="57.6" y="73.48" width=".29" height=".29" transform="translate(115.48 147.25) rotate(180)"/><rect class="cls-1" x="55.8" y="73.54" width=".18" height=".18" transform="translate(111.77 147.25) rotate(180)"/></g><g><g><path class="cls-1" d="M73.82,60.38h-13.61c-.09,0-.16-.07-.16-.16s.07-.16,.16-.16h13.61c.09,0,.16,.07,.16,.16s-.07,.16-.16,.16Z"/><polygon class="cls-1" points="60.07 60.24 60.07 60.6 63.67 60.6 64.06 60.21 60.07 60.24"/></g><rect class="cls-1" x="58.66" y="60.18" width=".46" height=".46" transform="translate(117.79 120.81) rotate(180)"/><rect class="cls-1" x="57.6" y="60.26" width=".29" height=".29" transform="translate(115.48 120.81) rotate(180)"/><rect class="cls-1" x="55.8" y="60.32" width=".18" height=".18" transform="translate(111.77 120.81) rotate(180)"/></g><g><g><path class="cls-1" d="M73.82,33.95h-13.61c-.09,0-.16-.07-.16-.16s.07-.16,.16-.16h13.61c.09,0,.16,.07,.16,.16s-.07,.16-.16,.16Z"/><polygon class="cls-1" points="60.07 33.8 60.07 34.16 63.67 34.16 64.06 33.78 60.07 33.8"/></g><rect class="cls-1" x="58.66" y="33.74" width=".46" height=".46" transform="translate(117.79 67.94) rotate(180)"/><rect class="cls-1" x="57.6" y="33.83" width=".29" height=".29" transform="translate(115.48 67.94) rotate(180)"/><rect class="cls-1" x="55.8" y="33.88" width=".18" height=".18" transform="translate(111.77 67.94) rotate(180)"/></g><g><g><path class="cls-1" d="M73.82,7.51h-13.61c-.09,0-.16-.07-.16-.16s.07-.16,.16-.16h13.61c.09,0,.16,.07,.16,.16s-.07,.16-.16,.16Z"/><polygon class="cls-1" points="60.07 7.37 60.07 7.73 63.67 7.73 64.06 7.34 60.07 7.37"/></g><rect class="cls-1" x="58.66" y="7.31" width=".46" height=".46" transform="translate(117.79 15.07) rotate(180)"/><rect class="cls-1" x="57.6" y="7.39" width=".29" height=".29" transform="translate(115.48 15.07) rotate(180)"/><rect class="cls-1" x="55.8" y="7.45" width=".18" height=".18" transform="translate(111.77 15.07) rotate(180)"/></g><path class="cls-1" d="M39.71,68.71c-.09,0-.16-.07-.16-.16v-13.97L5.21,20.24s-.05-.07-.05-.11v-6.62c0-.09,.07-.16,.16-.16H52.53s.08,.02,.11,.05l3.16,3.16h3.32c.09,0,.16,.07,.16,.16s-.07,.16-.16,.16h-3.38s-.08-.02-.11-.05l-3.16-3.16H5.48v6.39L39.82,54.4s.05,.07,.05,.11v14.04c0,.09-.07,.16-.16,.16Z"/><path class="cls-1" d="M50.19,7.88H28.42c-.09,0-.16-.07-.16-.16s.07-.16,.16-.16h21.77c.09,0,.16,.07,.16,.16s-.07,.16-.16,.16Z"/><polygon class="cls-1" points="93.28 89.57 43.58 39.87 43.58 34.52 47.24 34.52 47.24 34.68 43.74 34.68 43.74 39.8 93.39 89.45 93.28 89.57"/><polygon class="cls-1" points="25.75 95.82 25.6 95.82 25.6 66.86 21.93 63.19 22.05 63.08 25.75 66.79 25.75 95.82"/><polygon class="cls-1" points="18.31 6.8 18.15 6.8 18.15 5.03 18.18 5.01 21.96 1.22 73.19 1.22 73.19 1.38 22.02 1.38 18.31 5.1 18.31 6.8"/></g><path class="cls-1" d="M3.52,33.9c-.09,0-.16-.07-.16-.16v-2.29l-1.63-1.63s-.05-.07-.05-.11V3.9s.02-.08,.05-.11L4.32,1.19s.07-.05,.11-.05h7.17c.09,0,.16,.07,.16,.16s-.07,.16-.16,.16H4.5L2,3.96V29.64l1.63,1.63s.05,.07,.05,.11v2.36c0,.09-.07,.16-.16,.16Z"/><path class="cls-1" d="M3.37,41.19c-.09,0-.16-.07-.16-.16v-2.63c0-.09,.07-.16,.16-.16s.16,.07,.16,.16v2.63c0,.09-.07,.16-.16,.16Z"/><path class="cls-1" d="M2.3,52.07H.32c-.17,0-.32-.14-.32-.32s.14-.32,.32-.32h1.85l.88-.88v-3.57c0-.17,.14-.32,.32-.32s.32,.14,.32,.32v3.7c0,.08-.03,.16-.09,.22l-1.07,1.07c-.06,.06-.14,.09-.22,.09Z"/><path class="cls-1" d="M79.14,1.62h-2.85c-.17,0-.32-.14-.32-.32s.14-.32,.32-.32h2.85c.17,0,.32,.14,.32,.32s-.14,.32-.32,.32Z"/></g><g><g><path class="cls-1" d="M129.73,79.14h-6.71c-.17,0-.32-.14-.32-.32s.14-.32,.32-.32h6.58l2.64-2.64V3.76h-2.2c-.17,0-.32-.14-.32-.32s.14-.32,.32-.32h2.52c.17,0,.32,.14,.32,.32V76c0,.08-.03,.16-.09,.22l-2.82,2.82c-.06,.06-.14,.09-.22,.09Z"/><path class="cls-1" d="M138.58,73.59h-2.75c-.09,0-.16-.07-.16-.16s.07-.16,.16-.16h2.75c.09,0,.16,.07,.16,.16s-.07,.16-.16,.16Z"/><path class="cls-1" d="M138.58,66.98h-2.75c-.09,0-.16-.07-.16-.16s.07-.16,.16-.16h2.75c.09,0,.16,.07,.16,.16s-.07,.16-.16,.16Z"/><path class="cls-1" d="M138.58,60.37h-2.75c-.09,0-.16-.07-.16-.16s.07-.16,.16-.16h2.75c.09,0,.16,.07,.16,.16s-.07,.16-.16,.16Z"/><path class="cls-1" d="M138.58,53.75h-2.75c-.09,0-.16-.07-.16-.16s.07-.16,.16-.16h2.75c.09,0,.16,.07,.16,.16s-.07,.16-.16,.16Z"/><path class="cls-1" d="M138.58,47.14h-2.75c-.09,0-.16-.07-.16-.16s.07-.16,.16-.16h2.75c.09,0,.16,.07,.16,.16s-.07,.16-.16,.16Z"/><path class="cls-1" d="M138.58,40.53h-2.75c-.09,0-.16-.07-.16-.16s.07-.16,.16-.16h2.75c.09,0,.16,.07,.16,.16s-.07,.16-.16,.16Z"/><path class="cls-1" d="M138.58,33.92h-2.75c-.09,0-.16-.07-.16-.16s.07-.16,.16-.16h2.75c.09,0,.16,.07,.16,.16s-.07,.16-.16,.16Z"/><path class="cls-1" d="M138.58,27.3h-2.75c-.09,0-.16-.07-.16-.16s.07-.16,.16-.16h2.75c.09,0,.16,.07,.16,.16s-.07,.16-.16,.16Z"/><path class="cls-1" d="M138.58,20.69h-2.75c-.09,0-.16-.07-.16-.16s.07-.16,.16-.16h2.75c.09,0,.16,.07,.16,.16s-.07,.16-.16,.16Z"/><path class="cls-1" d="M138.58,14.08h-2.75c-.09,0-.16-.07-.16-.16s.07-.16,.16-.16h2.75c.09,0,.16,.07,.16,.16s-.07,.16-.16,.16Z"/><path class="cls-1" d="M138.58,7.46h-2.75c-.09,0-.16-.07-.16-.16s.07-.16,.16-.16h2.75c.09,0,.16,.07,.16,.16s-.07,.16-.16,.16Z"/><g><path class="cls-1" d="M130.34,73.59h-2.75c-.09,0-.16-.07-.16-.16s.07-.16,.16-.16h2.75c.09,0,.16,.07,.16,.16s-.07,.16-.16,.16Z"/><path class="cls-1" d="M130.34,66.98h-2.75c-.09,0-.16-.07-.16-.16s.07-.16,.16-.16h2.75c.09,0,.16,.07,.16,.16s-.07,.16-.16,.16Z"/><path class="cls-1" d="M130.34,60.37h-2.75c-.09,0-.16-.07-.16-.16s.07-.16,.16-.16h2.75c.09,0,.16,.07,.16,.16s-.07,.16-.16,.16Z"/><path class="cls-1" d="M130.34,53.75h-2.75c-.09,0-.16-.07-.16-.16s.07-.16,.16-.16h2.75c.09,0,.16,.07,.16,.16s-.07,.16-.16,.16Z"/><path class="cls-1" d="M130.34,47.14h-2.75c-.09,0-.16-.07-.16-.16s.07-.16,.16-.16h2.75c.09,0,.16,.07,.16,.16s-.07,.16-.16,.16Z"/><path class="cls-1" d="M130.34,40.53h-2.75c-.09,0-.16-.07-.16-.16s.07-.16,.16-.16h2.75c.09,0,.16,.07,.16,.16s-.07,.16-.16,.16Z"/><path class="cls-1" d="M130.34,33.92h-2.75c-.09,0-.16-.07-.16-.16s.07-.16,.16-.16h2.75c.09,0,.16,.07,.16,.16s-.07,.16-.16,.16Z"/><path class="cls-1" d="M130.34,27.3h-2.75c-.09,0-.16-.07-.16-.16s.07-.16,.16-.16h2.75c.09,0,.16,.07,.16,.16s-.07,.16-.16,.16Z"/><path class="cls-1" d="M130.34,20.69h-2.75c-.09,0-.16-.07-.16-.16s.07-.16,.16-.16h2.75c.09,0,.16,.07,.16,.16s-.07,.16-.16,.16Z"/><path class="cls-1" d="M130.34,14.08h-2.75c-.09,0-.16-.07-.16-.16s.07-.16,.16-.16h2.75c.09,0,.16,.07,.16,.16s-.07,.16-.16,.16Z"/><path class="cls-1" d="M130.34,7.46h-2.75c-.09,0-.16-.07-.16-.16s.07-.16,.16-.16h2.75c.09,0,.16,.07,.16,.16s-.07,.16-.16,.16Z"/></g><g><path class="cls-1" d="M130.34,70.29h-.92c-.09,0-.16-.07-.16-.16s.07-.16,.16-.16h.92c.09,0,.16,.07,.16,.16s-.07,.16-.16,.16Z"/><path class="cls-1" d="M130.34,63.67h-.92c-.09,0-.16-.07-.16-.16s.07-.16,.16-.16h.92c.09,0,.16,.07,.16,.16s-.07,.16-.16,.16Z"/><path class="cls-1" d="M130.34,57.06h-.92c-.09,0-.16-.07-.16-.16s.07-.16,.16-.16h.92c.09,0,.16,.07,.16,.16s-.07,.16-.16,.16Z"/><path class="cls-1" d="M130.34,50.45h-.92c-.09,0-.16-.07-.16-.16s.07-.16,.16-.16h.92c.09,0,.16,.07,.16,.16s-.07,.16-.16,.16Z"/><path class="cls-1" d="M130.34,43.84h-.92c-.09,0-.16-.07-.16-.16s.07-.16,.16-.16h.92c.09,0,.16,.07,.16,.16s-.07,.16-.16,.16Z"/><path class="cls-1" d="M130.34,37.22h-.92c-.09,0-.16-.07-.16-.16s.07-.16,.16-.16h.92c.09,0,.16,.07,.16,.16s-.07,.16-.16,.16Z"/><path class="cls-1" d="M130.34,30.61h-.92c-.09,0-.16-.07-.16-.16s.07-.16,.16-.16h.92c.09,0,.16,.07,.16,.16s-.07,.16-.16,.16Z"/><path class="cls-1" d="M130.34,24h-.92c-.09,0-.16-.07-.16-.16s.07-.16,.16-.16h.92c.09,0,.16,.07,.16,.16s-.07,.16-.16,.16Z"/><path class="cls-1" d="M130.34,17.38h-.92c-.09,0-.16-.07-.16-.16s.07-.16,.16-.16h.92c.09,0,.16,.07,.16,.16s-.07,.16-.16,.16Z"/><path class="cls-1" d="M130.34,10.77h-.92c-.09,0-.16-.07-.16-.16s.07-.16,.16-.16h.92c.09,0,.16,.07,.16,.16s-.07,.16-.16,.16Z"/></g><path class="cls-1" d="M116.11,5.54h-3.93c-.09,0-.16-.07-.16-.16s.07-.16,.16-.16h3.86L121.22,.05s.07-.05,.11-.05h11.22c.09,0,.16,.07,.16,.16s-.07,.16-.16,.16h-11.15l-5.18,5.18s-.07,.05-.11,.05Z"/><path class="cls-1" d="M111.11,5.7h-1.56c-.17,0-.32-.14-.32-.32s.14-.32,.32-.32h1.56c.17,0,.32,.14,.32,.32s-.14,.32-.32,.32Z"/><g><path class="cls-1" d="M119.65,75.28s-.08-.02-.11-.05c-.06-.06-.06-.16,0-.22l1.69-1.69s.07-.05,.11-.05h3.93c.09,0,.16,.07,.16,.16s-.07,.16-.16,.16h-3.86l-1.64,1.64s-.07,.05-.11,.05Z"/><path class="cls-1" d="M118.3,76.86c-.08,0-.16-.03-.22-.09-.12-.12-.12-.32,0-.45l.8-.8c.12-.12,.32-.12,.45,0s.12,.32,0,.45l-.8,.8c-.06,.06-.14,.09-.22,.09Z"/></g><g><path class="cls-1" d="M119.65,62.05s-.08-.02-.11-.05c-.06-.06-.06-.16,0-.22l1.69-1.69s.07-.05,.11-.05h3.93c.09,0,.16,.07,.16,.16s-.07,.16-.16,.16h-3.86l-1.64,1.64s-.07,.05-.11,.05Z"/><path class="cls-1" d="M118.3,63.63c-.08,0-.16-.03-.22-.09-.12-.12-.12-.32,0-.45l.8-.8c.12-.12,.32-.12,.45,0s.12,.32,0,.45l-.8,.8c-.06,.06-.14,.09-.22,.09Z"/></g><g><path class="cls-1" d="M119.65,48.83s-.08-.02-.11-.05c-.06-.06-.06-.16,0-.22l1.69-1.68s.07-.05,.11-.05h3.93c.09,0,.16,.07,.16,.16s-.07,.16-.16,.16h-3.86l-1.64,1.64s-.07,.05-.11,.05Z"/><path class="cls-1" d="M118.3,50.4c-.08,0-.16-.03-.22-.09-.12-.12-.12-.32,0-.45l.8-.8c.12-.12,.32-.12,.45,0,.12,.12,.12,.32,0,.45l-.8,.8c-.06,.06-.14,.09-.22,.09Z"/></g><g><path class="cls-1" d="M119.65,35.6s-.08-.02-.11-.05c-.06-.06-.06-.16,0-.22l1.69-1.69s.07-.05,.11-.05h3.93c.09,0,.16,.07,.16,.16s-.07,.16-.16,.16h-3.86l-1.64,1.64s-.07,.05-.11,.05Z"/><path class="cls-1" d="M118.3,37.18c-.08,0-.16-.03-.22-.09-.12-.12-.12-.32,0-.45l.8-.8c.12-.12,.32-.12,.45,0,.12,.12,.12,.32,0,.45l-.8,.8c-.06,.06-.14,.09-.22,.09Z"/></g><g><path class="cls-1" d="M119.65,22.37s-.08-.02-.11-.05c-.06-.06-.06-.16,0-.22l1.69-1.69s.07-.05,.11-.05h3.93c.09,0,.16,.07,.16,.16s-.07,.16-.16,.16h-3.86l-1.64,1.64s-.07,.05-.11,.05Z"/><path class="cls-1" d="M118.3,23.95c-.08,0-.16-.03-.22-.09-.12-.12-.12-.32,0-.45l.8-.8c.12-.12,.32-.12,.45,0,.12,.12,.12,.32,0,.45l-.8,.8c-.06,.06-.14,.09-.22,.09Z"/></g><g><path class="cls-1" d="M119.65,9.15s-.08-.02-.11-.05c-.06-.06-.06-.16,0-.22l1.69-1.68s.07-.05,.11-.05h3.93c.09,0,.16,.07,.16,.16s-.07,.16-.16,.16h-3.86l-1.64,1.64s-.07,.05-.11,.05Z"/><path class="cls-1" d="M118.3,10.72c-.08,0-.16-.03-.22-.09-.12-.12-.12-.32,0-.45l.8-.8c.12-.12,.32-.12,.45,0,.12,.12,.12,.32,0,.45l-.8,.8c-.06,.06-.14,.09-.22,.09Z"/></g><path class="cls-1" d="M131.15,90.74c-.08,0-.16-.03-.22-.09-.12-.12-.12-.32,0-.45l5.49-5.49c.06-.06,.14-.09,.22-.09h31.23c.08,0,.16,.03,.22,.09l3.37,3.37h31c.17,0,.32,.14,.32,.32s-.14,.32-.32,.32h-31.13c-.08,0-.16-.03-.22-.09l-3.37-3.37h-30.97l-5.4,5.4c-.06,.06-.14,.09-.22,.09Z"/><path class="cls-1" d="M136.89,87.67s-.08-.02-.11-.05c-.06-.06-.06-.16,0-.22l.77-.77v-.5c0-.09,.07-.16,.16-.16s.16,.07,.16,.16v.57s-.02,.08-.05,.11l-.81,.81s-.07,.05-.11,.05Z"/><path class="cls-1" d="M138.72,87.67s-.08-.02-.11-.05c-.06-.06-.06-.16,0-.22l.77-.77v-.5c0-.09,.07-.16,.16-.16s.16,.07,.16,.16v.57s-.02,.08-.05,.11l-.81,.81s-.07,.05-.11,.05Z"/><path class="cls-1" d="M140.55,87.67s-.08-.02-.11-.05c-.06-.06-.06-.16,0-.22l.77-.77v-.5c0-.09,.07-.16,.16-.16s.16,.07,.16,.16v.57s-.02,.08-.05,.11l-.81,.81s-.07,.05-.11,.05Z"/><path class="cls-1" d="M142.38,87.67s-.08-.02-.11-.05c-.06-.06-.06-.16,0-.22l.77-.77v-.5c0-.09,.07-.16,.16-.16s.16,.07,.16,.16v.57s-.02,.08-.05,.11l-.81,.81s-.07,.05-.11,.05Z"/><path class="cls-1" d="M144.21,87.67s-.08-.02-.11-.05c-.06-.06-.06-.16,0-.22l.77-.77v-.5c0-.09,.07-.16,.16-.16s.16,.07,.16,.16v.57s-.02,.08-.05,.11l-.81,.81s-.07,.05-.11,.05Z"/><path class="cls-1" d="M146.04,87.67s-.08-.02-.11-.05c-.06-.06-.06-.16,0-.22l.77-.77v-.5c0-.09,.07-.16,.16-.16s.16,.07,.16,.16v.57s-.02,.08-.05,.11l-.81,.81s-.07,.05-.11,.05Z"/><path class="cls-1" d="M147.87,87.67s-.08-.02-.11-.05c-.06-.06-.06-.16,0-.22l.77-.77v-.5c0-.09,.07-.16,.16-.16s.16,.07,.16,.16v.57s-.02,.08-.05,.11l-.81,.81s-.07,.05-.11,.05Z"/><path class="cls-1" d="M149.7,87.67s-.08-.02-.11-.05c-.06-.06-.06-.16,0-.22l.77-.77v-.5c0-.09,.07-.16,.16-.16s.16,.07,.16,.16v.57s-.02,.08-.05,.11l-.81,.81s-.07,.05-.11,.05Z"/><path class="cls-1" d="M151.54,87.67s-.08-.02-.11-.05c-.06-.06-.06-.16,0-.22l.77-.77v-.5c0-.09,.07-.16,.16-.16s.16,.07,.16,.16v.57s-.02,.08-.05,.11l-.81,.81s-.07,.05-.11,.05Z"/><path class="cls-1" d="M188.4,88.4s-.08-.02-.11-.05l-.52-.52h-17.14c-.09,0-.16-.07-.16-.16s.07-.16,.16-.16h17.21s.08,.02,.11,.05l.57,.57c.06,.06,.06,.16,0,.22-.03,.03-.07,.05-.11,.05Z"/><path class="cls-1" d="M208.07,88.65h-2.59c-.09,0-.16-.07-.16-.16s.07-.16,.16-.16h2.53l.67-.67v-1.97c0-.09,.07-.16,.16-.16s.16,.07,.16,.16v2.03s-.02,.08-.05,.11l-.76,.76s-.07,.05-.11,.05Z"/><path class="cls-1" d="M208.83,83.56c-.09,0-.16-.07-.16-.16v-3.66c0-.09,.07-.16,.16-.16s.16,.07,.16,.16v3.66c0,.09-.07,.16-.16,.16Z"/><path class="cls-1" d="M168.72,83.18h-31.83c-.09,0-.16-.07-.16-.16s.07-.16,.16-.16h31.77l7.83-7.83v-3c0-.09,.07-.16,.16-.16s.16,.07,.16,.16v3.07s-.02,.08-.05,.11l-7.92,7.92s-.07,.05-.11,.05Z"/><g><g><path class="cls-1" d="M156.13,73.6h-13.61c-.09,0-.16-.07-.16-.16s.07-.16,.16-.16h13.61c.09,0,.16,.07,.16,.16s-.07,.16-.16,.16Z"/><polygon class="cls-1" points="156.28 73.46 156.28 73.81 152.67 73.81 152.28 73.43 156.28 73.46"/></g><rect class="cls-1" x="157.22" y="73.39" width=".46" height=".46"/><rect class="cls-1" x="158.46" y="73.48" width=".29" height=".29"/><rect class="cls-1" x="160.37" y="73.54" width=".18" height=".18"/></g><g><g><path class="cls-1" d="M156.13,60.38h-13.61c-.09,0-.16-.07-.16-.16s.07-.16,.16-.16h13.61c.09,0,.16,.07,.16,.16s-.07,.16-.16,.16Z"/><polygon class="cls-1" points="156.28 60.24 156.28 60.6 152.67 60.6 152.28 60.21 156.28 60.24"/></g><rect class="cls-1" x="157.22" y="60.18" width=".46" height=".46"/><rect class="cls-1" x="158.46" y="60.26" width=".29" height=".29"/><rect class="cls-1" x="160.37" y="60.32" width=".18" height=".18"/></g><g><g><path class="cls-1" d="M156.13,33.95h-13.61c-.09,0-.16-.07-.16-.16s.07-.16,.16-.16h13.61c.09,0,.16,.07,.16,.16s-.07,.16-.16,.16Z"/><polygon class="cls-1" points="156.28 33.8 156.28 34.16 152.67 34.16 152.28 33.78 156.28 33.8"/></g><rect class="cls-1" x="157.22" y="33.74" width=".46" height=".46"/><rect class="cls-1" x="158.46" y="33.83" width=".29" height=".29"/><rect class="cls-1" x="160.37" y="33.88" width=".18" height=".18"/></g><g><g><path class="cls-1" d="M156.13,7.51h-13.61c-.09,0-.16-.07-.16-.16s.07-.16,.16-.16h13.61c.09,0,.16,.07,.16,.16s-.07,.16-.16,.16Z"/><polygon class="cls-1" points="156.28 7.37 156.28 7.73 152.67 7.73 152.28 7.34 156.28 7.37"/></g><rect class="cls-1" x="157.22" y="7.31" width=".46" height=".46"/><rect class="cls-1" x="158.46" y="7.39" width=".29" height=".29"/><rect class="cls-1" x="160.37" y="7.45" width=".18" height=".18"/></g><path class="cls-1" d="M176.64,68.71c-.09,0-.16-.07-.16-.16v-14.04s.02-.08,.05-.11l34.34-34.34v-6.39h-46.99l-3.16,3.16s-.07,.05-.11,.05h-3.38c-.09,0-.16-.07-.16-.16s.07-.16,.16-.16h3.32l3.16-3.16s.07-.05,.11-.05h47.21c.09,0,.16,.07,.16,.16v6.62s-.02,.08-.05,.11l-34.34,34.34v13.97c0,.09-.07,.16-.16,.16Z"/><path class="cls-1" d="M187.92,7.88h-21.77c-.09,0-.16-.07-.16-.16s.07-.16,.16-.16h21.77c.09,0,.16,.07,.16,.16s-.07,.16-.16,.16Z"/><polygon class="cls-1" points="123.07 89.57 122.96 89.45 172.61 39.8 172.61 34.68 169.1 34.68 169.1 34.52 172.77 34.52 172.77 39.87 172.74 39.89 123.07 89.57"/><polygon class="cls-1" points="190.75 95.82 190.59 95.82 190.59 66.79 190.61 66.77 194.3 63.08 194.41 63.19 190.75 66.86 190.75 95.82"/><polygon class="cls-1" points="198.19 6.8 198.04 6.8 198.04 5.1 194.32 1.38 143.16 1.38 143.16 1.22 194.39 1.22 194.41 1.25 198.19 5.03 198.19 6.8"/></g><path class="cls-1" d="M212.82,33.9c-.09,0-.16-.07-.16-.16v-2.36s.02-.08,.05-.11l1.63-1.63V3.96l-2.5-2.5h-7.11c-.09,0-.16-.07-.16-.16s.07-.16,.16-.16h7.17s.08,.02,.11,.05l2.59,2.59s.05,.07,.05,.11V29.7s-.02,.08-.05,.11l-1.63,1.63v2.29c0,.09-.07,.16-.16,.16Z"/><path class="cls-1" d="M212.98,41.19c-.09,0-.16-.07-.16-.16v-2.63c0-.09,.07-.16,.16-.16s.16,.07,.16,.16v2.63c0,.09-.07,.16-.16,.16Z"/><path class="cls-1" d="M216.03,52.07h-1.98c-.08,0-.16-.03-.22-.09l-1.07-1.07c-.06-.06-.09-.14-.09-.22v-3.7c0-.17,.14-.32,.32-.32s.32,.14,.32,.32v3.57l.88,.88h1.85c.17,0,.32,.14,.32,.32s-.14,.32-.32,.32Z"/><path class="cls-1" d="M140.06,1.62h-2.85c-.17,0-.32-.14-.32-.32s.14-.32,.32-.32h2.85c.17,0,.32,.14,.32,.32s-.14,.32-.32,.32Z"/></g><g><g><path class="cls-1" d="M132.55,202.44h-2.52c-.17,0-.32-.14-.32-.32s.14-.32,.32-.32h2.2v-72.12l-2.64-2.64h-6.58c-.17,0-.32-.14-.32-.32s.14-.32,.32-.32h6.71c.08,0,.16,.03,.22,.09l2.82,2.82c.06,.06,.09,.14,.09,.22v72.57c0,.17-.14,.32-.32,.32Z"/><path class="cls-1" d="M138.58,132.29h-2.75c-.09,0-.16-.07-.16-.16s.07-.16,.16-.16h2.75c.09,0,.16,.07,.16,.16s-.07,.16-.16,.16Z"/><path class="cls-1" d="M138.58,138.9h-2.75c-.09,0-.16-.07-.16-.16s.07-.16,.16-.16h2.75c.09,0,.16,.07,.16,.16s-.07,.16-.16,.16Z"/><path class="cls-1" d="M138.58,145.52h-2.75c-.09,0-.16-.07-.16-.16s.07-.16,.16-.16h2.75c.09,0,.16,.07,.16,.16s-.07,.16-.16,.16Z"/><path class="cls-1" d="M138.58,152.13h-2.75c-.09,0-.16-.07-.16-.16s.07-.16,.16-.16h2.75c.09,0,.16,.07,.16,.16s-.07,.16-.16,.16Z"/><path class="cls-1" d="M138.58,158.74h-2.75c-.09,0-.16-.07-.16-.16s.07-.16,.16-.16h2.75c.09,0,.16,.07,.16,.16s-.07,.16-.16,.16Z"/><path class="cls-1" d="M138.58,165.35h-2.75c-.09,0-.16-.07-.16-.16s.07-.16,.16-.16h2.75c.09,0,.16,.07,.16,.16s-.07,.16-.16,.16Z"/><path class="cls-1" d="M138.58,171.97h-2.75c-.09,0-.16-.07-.16-.16s.07-.16,.16-.16h2.75c.09,0,.16,.07,.16,.16s-.07,.16-.16,.16Z"/><path class="cls-1" d="M138.58,178.58h-2.75c-.09,0-.16-.07-.16-.16s.07-.16,.16-.16h2.75c.09,0,.16,.07,.16,.16s-.07,.16-.16,.16Z"/><path class="cls-1" d="M138.58,185.19h-2.75c-.09,0-.16-.07-.16-.16s.07-.16,.16-.16h2.75c.09,0,.16,.07,.16,.16s-.07,.16-.16,.16Z"/><path class="cls-1" d="M138.58,191.81h-2.75c-.09,0-.16-.07-.16-.16s.07-.16,.16-.16h2.75c.09,0,.16,.07,.16,.16s-.07,.16-.16,.16Z"/><path class="cls-1" d="M138.58,198.42h-2.75c-.09,0-.16-.07-.16-.16s.07-.16,.16-.16h2.75c.09,0,.16,.07,.16,.16s-.07,.16-.16,.16Z"/><g><path class="cls-1" d="M130.34,132.29h-2.75c-.09,0-.16-.07-.16-.16s.07-.16,.16-.16h2.75c.09,0,.16,.07,.16,.16s-.07,.16-.16,.16Z"/><path class="cls-1" d="M130.34,138.9h-2.75c-.09,0-.16-.07-.16-.16s.07-.16,.16-.16h2.75c.09,0,.16,.07,.16,.16s-.07,.16-.16,.16Z"/><path class="cls-1" d="M130.34,145.52h-2.75c-.09,0-.16-.07-.16-.16s.07-.16,.16-.16h2.75c.09,0,.16,.07,.16,.16s-.07,.16-.16,.16Z"/><path class="cls-1" d="M130.34,152.13h-2.75c-.09,0-.16-.07-.16-.16s.07-.16,.16-.16h2.75c.09,0,.16,.07,.16,.16s-.07,.16-.16,.16Z"/><path class="cls-1" d="M130.34,158.74h-2.75c-.09,0-.16-.07-.16-.16s.07-.16,.16-.16h2.75c.09,0,.16,.07,.16,.16s-.07,.16-.16,.16Z"/><path class="cls-1" d="M130.34,165.35h-2.75c-.09,0-.16-.07-.16-.16s.07-.16,.16-.16h2.75c.09,0,.16,.07,.16,.16s-.07,.16-.16,.16Z"/><path class="cls-1" d="M130.34,171.97h-2.75c-.09,0-.16-.07-.16-.16s.07-.16,.16-.16h2.75c.09,0,.16,.07,.16,.16s-.07,.16-.16,.16Z"/><path class="cls-1" d="M130.34,178.58h-2.75c-.09,0-.16-.07-.16-.16s.07-.16,.16-.16h2.75c.09,0,.16,.07,.16,.16s-.07,.16-.16,.16Z"/><path class="cls-1" d="M130.34,185.19h-2.75c-.09,0-.16-.07-.16-.16s.07-.16,.16-.16h2.75c.09,0,.16,.07,.16,.16s-.07,.16-.16,.16Z"/><path class="cls-1" d="M130.34,191.81h-2.75c-.09,0-.16-.07-.16-.16s.07-.16,.16-.16h2.75c.09,0,.16,.07,.16,.16s-.07,.16-.16,.16Z"/><path class="cls-1" d="M130.34,198.42h-2.75c-.09,0-.16-.07-.16-.16s.07-.16,.16-.16h2.75c.09,0,.16,.07,.16,.16s-.07,.16-.16,.16Z"/></g><g><path class="cls-1" d="M130.34,135.6h-.92c-.09,0-.16-.07-.16-.16s.07-.16,.16-.16h.92c.09,0,.16,.07,.16,.16s-.07,.16-.16,.16Z"/><path class="cls-1" d="M130.34,142.21h-.92c-.09,0-.16-.07-.16-.16s.07-.16,.16-.16h.92c.09,0,.16,.07,.16,.16s-.07,.16-.16,.16Z"/><path class="cls-1" d="M130.34,148.82h-.92c-.09,0-.16-.07-.16-.16s.07-.16,.16-.16h.92c.09,0,.16,.07,.16,.16s-.07,.16-.16,.16Z"/><path class="cls-1" d="M130.34,155.44h-.92c-.09,0-.16-.07-.16-.16s.07-.16,.16-.16h.92c.09,0,.16,.07,.16,.16s-.07,.16-.16,.16Z"/><path class="cls-1" d="M130.34,162.05h-.92c-.09,0-.16-.07-.16-.16s.07-.16,.16-.16h.92c.09,0,.16,.07,.16,.16s-.07,.16-.16,.16Z"/><path class="cls-1" d="M130.34,168.66h-.92c-.09,0-.16-.07-.16-.16s.07-.16,.16-.16h.92c.09,0,.16,.07,.16,.16s-.07,.16-.16,.16Z"/><path class="cls-1" d="M130.34,175.27h-.92c-.09,0-.16-.07-.16-.16s.07-.16,.16-.16h.92c.09,0,.16,.07,.16,.16s-.07,.16-.16,.16Z"/><path class="cls-1" d="M130.34,181.89h-.92c-.09,0-.16-.07-.16-.16s.07-.16,.16-.16h.92c.09,0,.16,.07,.16,.16s-.07,.16-.16,.16Z"/><path class="cls-1" d="M130.34,188.5h-.92c-.09,0-.16-.07-.16-.16s.07-.16,.16-.16h.92c.09,0,.16,.07,.16,.16s-.07,.16-.16,.16Z"/><path class="cls-1" d="M130.34,195.11h-.92c-.09,0-.16-.07-.16-.16s.07-.16,.16-.16h.92c.09,0,.16,.07,.16,.16s-.07,.16-.16,.16Z"/></g><path class="cls-1" d="M132.55,205.57h-11.22s-.08-.02-.11-.05l-5.18-5.18h-3.86c-.09,0-.16-.07-.16-.16s.07-.16,.16-.16h3.93s.08,.02,.11,.05l5.18,5.18h11.15c.09,0,.16,.07,.16,.16s-.07,.16-.16,.16Z"/><path class="cls-1" d="M111.11,200.5h-1.56c-.17,0-.32-.14-.32-.32s.14-.32,.32-.32h1.56c.17,0,.32,.14,.32,.32s-.14,.32-.32,.32Z"/><g><path class="cls-1" d="M125.27,132.29h-3.93s-.08-.02-.11-.05l-1.69-1.69c-.06-.06-.06-.16,0-.22,.06-.06,.16-.06,.22,0l1.64,1.64h3.86c.09,0,.16,.07,.16,.16s-.07,.16-.16,.16Z"/><path class="cls-1" d="M119.1,130.15c-.08,0-.16-.03-.22-.09l-.8-.8c-.12-.12-.12-.32,0-.45s.32-.12,.45,0l.8,.8c.12,.12,.12,.32,0,.45-.06,.06-.14,.09-.22,.09Z"/></g><g><path class="cls-1" d="M125.27,145.52h-3.93s-.08-.02-.11-.05l-1.69-1.68c-.06-.06-.06-.16,0-.22,.06-.06,.16-.06,.22,0l1.64,1.64h3.86c.09,0,.16,.07,.16,.16s-.07,.16-.16,.16Z"/><path class="cls-1" d="M119.1,143.37c-.08,0-.16-.03-.22-.09l-.8-.8c-.12-.12-.12-.32,0-.45,.12-.12,.32-.12,.45,0l.8,.8c.12,.12,.12,.32,0,.45-.06,.06-.14,.09-.22,.09Z"/></g><g><path class="cls-1" d="M125.27,158.74h-3.93s-.08-.02-.11-.05l-1.69-1.69c-.06-.06-.06-.16,0-.22,.06-.06,.16-.06,.22,0l1.64,1.64h3.86c.09,0,.16,.07,.16,.16s-.07,.16-.16,.16Z"/><path class="cls-1" d="M119.1,156.6c-.08,0-.16-.03-.22-.09l-.8-.8c-.12-.12-.12-.32,0-.45s.32-.12,.45,0l.8,.8c.12,.12,.12,.32,0,.45-.06,.06-.14,.09-.22,.09Z"/></g><g><path class="cls-1" d="M125.27,171.97h-3.93s-.08-.02-.11-.05l-1.69-1.69c-.06-.06-.06-.16,0-.22s.16-.06,.22,0l1.64,1.64h3.86c.09,0,.16,.07,.16,.16s-.07,.16-.16,.16Z"/><path class="cls-1" d="M119.1,169.82c-.08,0-.16-.03-.22-.09l-.8-.8c-.12-.12-.12-.32,0-.45,.12-.12,.32-.12,.45,0l.8,.8c.12,.12,.12,.32,0,.45-.06,.06-.14,.09-.22,.09Z"/></g><g><path class="cls-1" d="M125.27,185.19h-3.93s-.08-.02-.11-.05l-1.69-1.68c-.06-.06-.06-.16,0-.22,.06-.06,.16-.06,.22,0l1.64,1.64h3.86c.09,0,.16,.07,.16,.16s-.07,.16-.16,.16Z"/><path class="cls-1" d="M119.1,183.05c-.08,0-.16-.03-.22-.09l-.8-.8c-.12-.12-.12-.32,0-.45,.12-.12,.32-.12,.45,0l.8,.8c.12,.12,.12,.32,0,.45-.06,.06-.14,.09-.22,.09Z"/></g><g><path class="cls-1" d="M125.27,198.42h-3.93s-.08-.02-.11-.05l-1.69-1.69c-.06-.06-.06-.16,0-.22s.16-.06,.22,0l1.64,1.64h3.86c.09,0,.16,.07,.16,.16s-.07,.16-.16,.16Z"/><path class="cls-1" d="M119.1,196.28c-.08,0-.16-.03-.22-.09l-.8-.8c-.12-.12-.12-.32,0-.45,.12-.12,.32-.12,.45,0l.8,.8c.12,.12,.12,.32,0,.45-.06,.06-.14,.09-.22,.09Z"/></g><path class="cls-1" d="M167.88,120.95h-31.23c-.08,0-.16-.03-.22-.09l-5.49-5.49c-.12-.12-.12-.32,0-.45,.12-.12,.32-.12,.45,0l5.4,5.4h30.97l3.37-3.37c.06-.06,.14-.09,.22-.09h31.13c.17,0,.32,.14,.32,.32s-.14,.32-.32,.32h-31l-3.37,3.37c-.06,.06-.14,.09-.22,.09Z"/><path class="cls-1" d="M137.7,119.59c-.09,0-.16-.07-.16-.16v-.5l-.77-.77c-.06-.06-.06-.16,0-.22,.06-.06,.16-.06,.22,0l.81,.81s.05,.07,.05,.11v.57c0,.09-.07,.16-.16,.16Z"/><path class="cls-1" d="M139.53,119.59c-.09,0-.16-.07-.16-.16v-.5l-.77-.77c-.06-.06-.06-.16,0-.22,.06-.06,.16-.06,.22,0l.81,.81s.05,.07,.05,.11v.57c0,.09-.07,.16-.16,.16Z"/><path class="cls-1" d="M141.36,119.59c-.09,0-.16-.07-.16-.16v-.5l-.77-.77c-.06-.06-.06-.16,0-.22s.16-.06,.22,0l.81,.81s.05,.07,.05,.11v.57c0,.09-.07,.16-.16,.16Z"/><path class="cls-1" d="M143.19,119.59c-.09,0-.16-.07-.16-.16v-.5l-.77-.77c-.06-.06-.06-.16,0-.22,.06-.06,.16-.06,.22,0l.81,.81s.05,.07,.05,.11v.57c0,.09-.07,.16-.16,.16Z"/><path class="cls-1" d="M145.02,119.59c-.09,0-.16-.07-.16-.16v-.5l-.77-.77c-.06-.06-.06-.16,0-.22,.06-.06,.16-.06,.22,0l.81,.81s.05,.07,.05,.11v.57c0,.09-.07,.16-.16,.16Z"/><path class="cls-1" d="M146.86,119.59c-.09,0-.16-.07-.16-.16v-.5l-.77-.77c-.06-.06-.06-.16,0-.22,.06-.06,.16-.06,.22,0l.81,.81s.05,.07,.05,.11v.57c0,.09-.07,.16-.16,.16Z"/><path class="cls-1" d="M148.69,119.59c-.09,0-.16-.07-.16-.16v-.5l-.77-.77c-.06-.06-.06-.16,0-.22,.06-.06,.16-.06,.22,0l.81,.81s.05,.07,.05,.11v.57c0,.09-.07,.16-.16,.16Z"/><path class="cls-1" d="M150.52,119.59c-.09,0-.16-.07-.16-.16v-.5l-.77-.77c-.06-.06-.06-.16,0-.22,.06-.06,.16-.06,.22,0l.81,.81s.05,.07,.05,.11v.57c0,.09-.07,.16-.16,.16Z"/><path class="cls-1" d="M152.35,119.59c-.09,0-.16-.07-.16-.16v-.5l-.77-.77c-.06-.06-.06-.16,0-.22,.06-.06,.16-.06,.22,0l.81,.81s.05,.07,.05,.11v.57c0,.09-.07,.16-.16,.16Z"/><path class="cls-1" d="M187.83,118.05h-17.21c-.09,0-.16-.07-.16-.16s.07-.16,.16-.16h17.14l.52-.52c.06-.06,.16-.06,.22,0,.06,.06,.06,.16,0,.22l-.57,.57s-.07,.05-.11,.05Z"/><path class="cls-1" d="M208.83,120.03c-.09,0-.16-.07-.16-.16v-1.97l-.67-.67h-2.53c-.09,0-.16-.07-.16-.16s.07-.16,.16-.16h2.59s.08,.02,.11,.05l.76,.76s.05,.07,.05,.11v2.04c0,.09-.07,.16-.16,.16Z"/><path class="cls-1" d="M208.83,125.98c-.09,0-.16-.07-.16-.16v-3.66c0-.09,.07-.16,.16-.16s.16,.07,.16,.16v3.66c0,.09-.07,.16-.16,.16Z"/><path class="cls-1" d="M176.64,133.69c-.09,0-.16-.07-.16-.16v-3l-7.83-7.83h-31.77c-.09,0-.16-.07-.16-.16s.07-.16,.16-.16h31.83s.08,.02,.11,.05l7.92,7.92s.05,.07,.05,.11v3.07c0,.09-.07,.16-.16,.16Z"/><g><g><path class="cls-1" d="M156.13,132.28h-13.61c-.09,0-.16-.07-.16-.16s.07-.16,.16-.16h13.61c.09,0,.16,.07,.16,.16s-.07,.16-.16,.16Z"/><polygon class="cls-1" points="156.28 132.11 156.28 131.75 152.67 131.75 152.28 132.14 156.28 132.11"/></g><rect class="cls-1" x="157.22" y="131.72" width=".46" height=".46"/><rect class="cls-1" x="158.46" y="131.8" width=".29" height=".29"/><rect class="cls-1" x="160.37" y="131.86" width=".18" height=".18"/></g><g><g><path class="cls-1" d="M156.13,145.5h-13.61c-.09,0-.16-.07-.16-.16s.07-.16,.16-.16h13.61c.09,0,.16,.07,.16,.16s-.07,.16-.16,.16Z"/><polygon class="cls-1" points="156.28 145.33 156.28 144.97 152.67 144.97 152.28 145.35 156.28 145.33"/></g><rect class="cls-1" x="157.22" y="144.93" width=".46" height=".46"/><rect class="cls-1" x="158.46" y="145.02" width=".29" height=".29"/><rect class="cls-1" x="160.37" y="145.07" width=".18" height=".18"/></g><g><g><path class="cls-1" d="M156.13,171.94h-13.61c-.09,0-.16-.07-.16-.16s.07-.16,.16-.16h13.61c.09,0,.16,.07,.16,.16s-.07,.16-.16,.16Z"/><polygon class="cls-1" points="156.28 171.76 156.28 171.41 152.67 171.41 152.28 171.79 156.28 171.76"/></g><rect class="cls-1" x="157.22" y="171.37" width=".46" height=".46"/><rect class="cls-1" x="158.46" y="171.45" width=".29" height=".29"/><rect class="cls-1" x="160.37" y="171.51" width=".18" height=".18"/></g><g><g><path class="cls-1" d="M156.13,198.37h-13.61c-.09,0-.16-.07-.16-.16s.07-.16,.16-.16h13.61c.09,0,.16,.07,.16,.16s-.07,.16-.16,.16Z"/><polygon class="cls-1" points="156.28 198.2 156.28 197.84 152.67 197.84 152.28 198.22 156.28 198.2"/></g><rect class="cls-1" x="157.22" y="197.8" width=".46" height=".46"/><rect class="cls-1" x="158.46" y="197.89" width=".29" height=".29"/><rect class="cls-1" x="160.37" y="197.95" width=".18" height=".18"/></g><path class="cls-1" d="M211.02,192.21h-47.21s-.08-.02-.11-.05l-3.16-3.16h-3.32c-.09,0-.16-.07-.16-.16s.07-.16,.16-.16h3.38s.08,.02,.11,.05l3.16,3.16h46.99v-6.39l-34.34-34.34s-.05-.07-.05-.11v-14.04c0-.09,.07-.16,.16-.16s.16,.07,.16,.16v13.97l34.34,34.34s.05,.07,.05,.11v6.62c0,.09-.07,.16-.16,.16Z"/><path class="cls-1" d="M187.92,198h-21.77c-.09,0-.16-.07-.16-.16s.07-.16,.16-.16h21.77c.09,0,.16,.07,.16,.16s-.07,.16-.16,.16Z"/><polygon class="cls-1" points="172.77 171.05 169.1 171.05 169.1 170.89 172.61 170.89 172.61 165.76 122.96 116.11 123.07 116 172.77 165.7 172.77 171.05"/><polygon class="cls-1" points="194.3 142.49 190.59 138.78 190.59 109.75 190.75 109.75 190.75 138.71 194.41 142.37 194.3 142.49"/><polygon class="cls-1" points="194.39 204.34 143.16 204.34 143.16 204.19 194.32 204.19 198.04 200.47 198.04 198.77 198.19 198.77 198.19 200.54 198.17 200.56 194.39 204.34"/></g><path class="cls-1" d="M211.91,204.42h-7.17c-.09,0-.16-.07-.16-.16s.07-.16,.16-.16h7.11l2.5-2.5v-25.68l-1.63-1.63s-.05-.07-.05-.11v-2.36c0-.09,.07-.16,.16-.16s.16,.07,.16,.16v2.29l1.63,1.63s.05,.07,.05,.11v25.81s-.02,.08-.05,.11l-2.59,2.59s-.07,.05-.11,.05Z"/><path class="cls-1" d="M212.98,167.32c-.09,0-.16-.07-.16-.16v-2.63c0-.09,.07-.16,.16-.16s.16,.07,.16,.16v2.63c0,.09-.07,.16-.16,.16Z"/><path class="cls-1" d="M212.98,158.9c-.17,0-.32-.14-.32-.32v-3.7c0-.08,.03-.16,.09-.22l1.07-1.07c.06-.06,.14-.09,.22-.09h1.98c.17,0,.32,.14,.32,.32s-.14,.32-.32,.32h-1.85l-.88,.88v3.57c0,.18-.14,.32-.32,.32Z"/><path class="cls-1" d="M140.06,204.58h-2.85c-.17,0-.32-.14-.32-.32s.14-.32,.32-.32h2.85c.17,0,.32,.14,.32,.32s-.14,.32-.32,.32Z"/></g><g><g><path class="cls-1" d="M86.31,202.44h-2.52c-.17,0-.32-.14-.32-.32v-72.57c0-.08,.03-.16,.09-.22l2.82-2.82c.06-.06,.14-.09,.22-.09h6.71c.17,0,.32,.14,.32,.32s-.14,.32-.32,.32h-6.58l-2.64,2.64v72.12h2.2c.17,0,.32,.14,.32,.32s-.14,.32-.32,.32Z"/><path class="cls-1" d="M80.51,132.29h-2.75c-.09,0-.16-.07-.16-.16s.07-.16,.16-.16h2.75c.09,0,.16,.07,.16,.16s-.07,.16-.16,.16Z"/><path class="cls-1" d="M80.51,138.9h-2.75c-.09,0-.16-.07-.16-.16s.07-.16,.16-.16h2.75c.09,0,.16,.07,.16,.16s-.07,.16-.16,.16Z"/><path class="cls-1" d="M80.51,145.52h-2.75c-.09,0-.16-.07-.16-.16s.07-.16,.16-.16h2.75c.09,0,.16,.07,.16,.16s-.07,.16-.16,.16Z"/><path class="cls-1" d="M80.51,152.13h-2.75c-.09,0-.16-.07-.16-.16s.07-.16,.16-.16h2.75c.09,0,.16,.07,.16,.16s-.07,.16-.16,.16Z"/><path class="cls-1" d="M80.51,158.74h-2.75c-.09,0-.16-.07-.16-.16s.07-.16,.16-.16h2.75c.09,0,.16,.07,.16,.16s-.07,.16-.16,.16Z"/><path class="cls-1" d="M80.51,165.35h-2.75c-.09,0-.16-.07-.16-.16s.07-.16,.16-.16h2.75c.09,0,.16,.07,.16,.16s-.07,.16-.16,.16Z"/><path class="cls-1" d="M80.51,171.97h-2.75c-.09,0-.16-.07-.16-.16s.07-.16,.16-.16h2.75c.09,0,.16,.07,.16,.16s-.07,.16-.16,.16Z"/><path class="cls-1" d="M80.51,178.58h-2.75c-.09,0-.16-.07-.16-.16s.07-.16,.16-.16h2.75c.09,0,.16,.07,.16,.16s-.07,.16-.16,.16Z"/><path class="cls-1" d="M80.51,185.19h-2.75c-.09,0-.16-.07-.16-.16s.07-.16,.16-.16h2.75c.09,0,.16,.07,.16,.16s-.07,.16-.16,.16Z"/><path class="cls-1" d="M80.51,191.81h-2.75c-.09,0-.16-.07-.16-.16s.07-.16,.16-.16h2.75c.09,0,.16,.07,.16,.16s-.07,.16-.16,.16Z"/><path class="cls-1" d="M80.51,198.42h-2.75c-.09,0-.16-.07-.16-.16s.07-.16,.16-.16h2.75c.09,0,.16,.07,.16,.16s-.07,.16-.16,.16Z"/><g><path class="cls-1" d="M88.75,132.29h-2.75c-.09,0-.16-.07-.16-.16s.07-.16,.16-.16h2.75c.09,0,.16,.07,.16,.16s-.07,.16-.16,.16Z"/><path class="cls-1" d="M88.75,138.9h-2.75c-.09,0-.16-.07-.16-.16s.07-.16,.16-.16h2.75c.09,0,.16,.07,.16,.16s-.07,.16-.16,.16Z"/><path class="cls-1" d="M88.75,145.52h-2.75c-.09,0-.16-.07-.16-.16s.07-.16,.16-.16h2.75c.09,0,.16,.07,.16,.16s-.07,.16-.16,.16Z"/><path class="cls-1" d="M88.75,152.13h-2.75c-.09,0-.16-.07-.16-.16s.07-.16,.16-.16h2.75c.09,0,.16,.07,.16,.16s-.07,.16-.16,.16Z"/><path class="cls-1" d="M88.75,158.74h-2.75c-.09,0-.16-.07-.16-.16s.07-.16,.16-.16h2.75c.09,0,.16,.07,.16,.16s-.07,.16-.16,.16Z"/><path class="cls-1" d="M88.75,165.35h-2.75c-.09,0-.16-.07-.16-.16s.07-.16,.16-.16h2.75c.09,0,.16,.07,.16,.16s-.07,.16-.16,.16Z"/><path class="cls-1" d="M88.75,171.97h-2.75c-.09,0-.16-.07-.16-.16s.07-.16,.16-.16h2.75c.09,0,.16,.07,.16,.16s-.07,.16-.16,.16Z"/><path class="cls-1" d="M88.75,178.58h-2.75c-.09,0-.16-.07-.16-.16s.07-.16,.16-.16h2.75c.09,0,.16,.07,.16,.16s-.07,.16-.16,.16Z"/><path class="cls-1" d="M88.75,185.19h-2.75c-.09,0-.16-.07-.16-.16s.07-.16,.16-.16h2.75c.09,0,.16,.07,.16,.16s-.07,.16-.16,.16Z"/><path class="cls-1" d="M88.75,191.81h-2.75c-.09,0-.16-.07-.16-.16s.07-.16,.16-.16h2.75c.09,0,.16,.07,.16,.16s-.07,.16-.16,.16Z"/><path class="cls-1" d="M88.75,198.42h-2.75c-.09,0-.16-.07-.16-.16s.07-.16,.16-.16h2.75c.09,0,.16,.07,.16,.16s-.07,.16-.16,.16Z"/></g><g><path class="cls-1" d="M86.92,135.6h-.92c-.09,0-.16-.07-.16-.16s.07-.16,.16-.16h.92c.09,0,.16,.07,.16,.16s-.07,.16-.16,.16Z"/><path class="cls-1" d="M86.92,142.21h-.92c-.09,0-.16-.07-.16-.16s.07-.16,.16-.16h.92c.09,0,.16,.07,.16,.16s-.07,.16-.16,.16Z"/><path class="cls-1" d="M86.92,148.82h-.92c-.09,0-.16-.07-.16-.16s.07-.16,.16-.16h.92c.09,0,.16,.07,.16,.16s-.07,.16-.16,.16Z"/><path class="cls-1" d="M86.92,155.44h-.92c-.09,0-.16-.07-.16-.16s.07-.16,.16-.16h.92c.09,0,.16,.07,.16,.16s-.07,.16-.16,.16Z"/><path class="cls-1" d="M86.92,162.05h-.92c-.09,0-.16-.07-.16-.16s.07-.16,.16-.16h.92c.09,0,.16,.07,.16,.16s-.07,.16-.16,.16Z"/><path class="cls-1" d="M86.92,168.66h-.92c-.09,0-.16-.07-.16-.16s.07-.16,.16-.16h.92c.09,0,.16,.07,.16,.16s-.07,.16-.16,.16Z"/><path class="cls-1" d="M86.92,175.27h-.92c-.09,0-.16-.07-.16-.16s.07-.16,.16-.16h.92c.09,0,.16,.07,.16,.16s-.07,.16-.16,.16Z"/><path class="cls-1" d="M86.92,181.89h-.92c-.09,0-.16-.07-.16-.16s.07-.16,.16-.16h.92c.09,0,.16,.07,.16,.16s-.07,.16-.16,.16Z"/><path class="cls-1" d="M86.92,188.5h-.92c-.09,0-.16-.07-.16-.16s.07-.16,.16-.16h.92c.09,0,.16,.07,.16,.16s-.07,.16-.16,.16Z"/><path class="cls-1" d="M86.92,195.11h-.92c-.09,0-.16-.07-.16-.16s.07-.16,.16-.16h.92c.09,0,.16,.07,.16,.16s-.07,.16-.16,.16Z"/></g><path class="cls-1" d="M95.01,205.57h-11.22c-.09,0-.16-.07-.16-.16s.07-.16,.16-.16h11.15l5.18-5.18s.07-.05,.11-.05h3.93c.09,0,.16,.07,.16,.16s-.07,.16-.16,.16h-3.86l-5.18,5.18s-.07,.05-.11,.05Z"/><path class="cls-1" d="M106.8,200.5h-1.56c-.17,0-.32-.14-.32-.32s.14-.32,.32-.32h1.56c.17,0,.32,.14,.32,.32s-.14,.32-.32,.32Z"/><g><path class="cls-1" d="M95.01,132.29h-3.93c-.09,0-.16-.07-.16-.16s.07-.16,.16-.16h3.86l1.64-1.64c.06-.06,.16-.06,.22,0,.06,.06,.06,.16,0,.22l-1.68,1.69s-.07,.05-.11,.05Z"/><path class="cls-1" d="M97.24,130.15c-.08,0-.16-.03-.22-.09-.12-.12-.12-.32,0-.45l.8-.8c.12-.12,.32-.12,.45,0,.12,.12,.12,.32,0,.45l-.8,.8c-.06,.06-.14,.09-.22,.09Z"/></g><g><path class="cls-1" d="M95.01,145.52h-3.93c-.09,0-.16-.07-.16-.16s.07-.16,.16-.16h3.86l1.64-1.64c.06-.06,.16-.06,.22,0,.06,.06,.06,.16,0,.22l-1.68,1.68s-.07,.05-.11,.05Z"/><path class="cls-1" d="M97.24,143.37c-.08,0-.16-.03-.22-.09-.12-.12-.12-.32,0-.45l.8-.8c.12-.12,.32-.12,.45,0,.12,.12,.12,.32,0,.45l-.8,.8c-.06,.06-.14,.09-.22,.09Z"/></g><g><path class="cls-1" d="M95.01,158.74h-3.93c-.09,0-.16-.07-.16-.16s.07-.16,.16-.16h3.86l1.64-1.64c.06-.06,.16-.06,.22,0,.06,.06,.06,.16,0,.22l-1.68,1.69s-.07,.05-.11,.05Z"/><path class="cls-1" d="M97.24,156.6c-.08,0-.16-.03-.22-.09-.12-.12-.12-.32,0-.45l.8-.8c.12-.12,.32-.12,.45,0,.12,.12,.12,.32,0,.45l-.8,.8c-.06,.06-.14,.09-.22,.09Z"/></g><g><path class="cls-1" d="M95.01,171.97h-3.93c-.09,0-.16-.07-.16-.16s.07-.16,.16-.16h3.86l1.64-1.64c.06-.06,.16-.06,.22,0s.06,.16,0,.22l-1.68,1.69s-.07,.05-.11,.05Z"/><path class="cls-1" d="M97.24,169.82c-.08,0-.16-.03-.22-.09-.12-.12-.12-.32,0-.45l.8-.8c.12-.12,.32-.12,.45,0,.12,.12,.12,.32,0,.45l-.8,.8c-.06,.06-.14,.09-.22,.09Z"/></g><g><path class="cls-1" d="M95.01,185.19h-3.93c-.09,0-.16-.07-.16-.16s.07-.16,.16-.16h3.86l1.64-1.64c.06-.06,.16-.06,.22,0,.06,.06,.06,.16,0,.22l-1.68,1.68s-.07,.05-.11,.05Z"/><path class="cls-1" d="M97.24,183.05c-.08,0-.16-.03-.22-.09-.12-.12-.12-.32,0-.45l.8-.8c.12-.12,.32-.12,.45,0,.12,.12,.12,.32,0,.45l-.8,.8c-.06,.06-.14,.09-.22,.09Z"/></g><g><path class="cls-1" d="M95.01,198.42h-3.93c-.09,0-.16-.07-.16-.16s.07-.16,.16-.16h3.86l1.64-1.64c.06-.06,.16-.06,.22,0s.06,.16,0,.22l-1.68,1.69s-.07,.05-.11,.05Z"/><path class="cls-1" d="M97.24,196.28c-.08,0-.16-.03-.22-.09-.12-.12-.12-.32,0-.45l.8-.8c.12-.12,.32-.12,.45,0,.12,.12,.12,.32,0,.45l-.8,.8c-.06,.06-.14,.09-.22,.09Z"/></g><path class="cls-1" d="M79.7,120.95h-31.23c-.08,0-.16-.03-.22-.09l-3.37-3.37H13.87c-.17,0-.32-.14-.32-.32s.14-.32,.32-.32h31.13c.08,0,.16,.03,.22,.09l3.37,3.37h30.97l5.4-5.4c.12-.12,.32-.12,.45,0,.12,.12,.12,.32,0,.45l-5.49,5.49c-.06,.06-.14,.09-.22,.09Z"/><path class="cls-1" d="M78.65,119.59c-.09,0-.16-.07-.16-.16v-.57s.02-.08,.05-.11l.81-.81c.06-.06,.16-.06,.22,0,.06,.06,.06,.16,0,.22l-.77,.77v.5c0,.09-.07,.16-.16,.16Z"/><path class="cls-1" d="M76.82,119.59c-.09,0-.16-.07-.16-.16v-.57s.02-.08,.05-.11l.81-.81c.06-.06,.16-.06,.22,0,.06,.06,.06,.16,0,.22l-.77,.77v.5c0,.09-.07,.16-.16,.16Z"/><path class="cls-1" d="M74.98,119.59c-.09,0-.16-.07-.16-.16v-.57s.02-.08,.05-.11l.81-.81c.06-.06,.16-.06,.22,0,.06,.06,.06,.16,0,.22l-.77,.77v.5c0,.09-.07,.16-.16,.16Z"/><path class="cls-1" d="M73.15,119.59c-.09,0-.16-.07-.16-.16v-.57s.02-.08,.05-.11l.81-.81c.06-.06,.16-.06,.22,0,.06,.06,.06,.16,0,.22l-.77,.77v.5c0,.09-.07,.16-.16,.16Z"/><path class="cls-1" d="M71.32,119.59c-.09,0-.16-.07-.16-.16v-.57s.02-.08,.05-.11l.81-.81c.06-.06,.16-.06,.22,0,.06,.06,.06,.16,0,.22l-.77,.77v.5c0,.09-.07,.16-.16,.16Z"/><path class="cls-1" d="M69.49,119.59c-.09,0-.16-.07-.16-.16v-.57s.02-.08,.05-.11l.81-.81c.06-.06,.16-.06,.22,0,.06,.06,.06,.16,0,.22l-.77,.77v.5c0,.09-.07,.16-.16,.16Z"/><path class="cls-1" d="M67.66,119.59c-.09,0-.16-.07-.16-.16v-.57s.02-.08,.05-.11l.81-.81c.06-.06,.16-.06,.22,0,.06,.06,.06,.16,0,.22l-.77,.77v.5c0,.09-.07,.16-.16,.16Z"/><path class="cls-1" d="M65.83,119.59c-.09,0-.16-.07-.16-.16v-.57s.02-.08,.05-.11l.81-.81c.06-.06,.16-.06,.22,0,.06,.06,.06,.16,0,.22l-.77,.77v.5c0,.09-.07,.16-.16,.16Z"/><path class="cls-1" d="M64,119.59c-.09,0-.16-.07-.16-.16v-.57s.02-.08,.05-.11l.81-.81c.06-.06,.16-.06,.22,0,.06,.06,.06,.16,0,.22l-.77,.77v.5c0,.09-.07,.16-.16,.16Z"/><path class="cls-1" d="M45.72,118.05H28.51s-.08-.02-.11-.05l-.57-.57c-.06-.06-.06-.16,0-.22,.06-.06,.16-.06,.22,0l.52,.52h17.14c.09,0,.16,.07,.16,.16s-.07,.16-.16,.16Z"/><path class="cls-1" d="M7.52,120.03c-.09,0-.16-.07-.16-.16v-2.04s.02-.08,.05-.11l.76-.76s.07-.05,.11-.05h2.59c.09,0,.16,.07,.16,.16s-.07,.16-.16,.16h-2.53l-.67,.67v1.97c0,.09-.07,.16-.16,.16Z"/><path class="cls-1" d="M7.52,125.98c-.09,0-.16-.07-.16-.16v-3.66c0-.09,.07-.16,.16-.16s.16,.07,.16,.16v3.66c0,.09-.07,.16-.16,.16Z"/><path class="cls-1" d="M39.71,133.69c-.09,0-.16-.07-.16-.16v-3.07s.02-.08,.05-.11l7.92-7.92s.07-.05,.11-.05h31.83c.09,0,.16,.07,.16,.16s-.07,.16-.16,.16h-31.77l-7.83,7.83v3c0,.09-.07,.16-.16,.16Z"/><g><g><path class="cls-1" d="M73.82,132.28h-13.61c-.09,0-.16-.07-.16-.16s.07-.16,.16-.16h13.61c.09,0,.16,.07,.16,.16s-.07,.16-.16,.16Z"/><polygon class="cls-1" points="60.07 132.11 60.07 131.75 63.67 131.75 64.06 132.14 60.07 132.11"/></g><rect class="cls-1" x="58.66" y="131.72" width=".46" height=".46" transform="translate(117.79 263.89) rotate(180)"/><rect class="cls-1" x="57.6" y="131.8" width=".29" height=".29" transform="translate(115.48 263.89) rotate(180)"/><rect class="cls-1" x="55.8" y="131.86" width=".18" height=".18" transform="translate(111.77 263.89) rotate(180)"/></g><g><g><path class="cls-1" d="M73.82,145.5h-13.61c-.09,0-.16-.07-.16-.16s.07-.16,.16-.16h13.61c.09,0,.16,.07,.16,.16s-.07,.16-.16,.16Z"/><polygon class="cls-1" points="60.07 145.33 60.07 144.97 63.67 144.97 64.06 145.35 60.07 145.33"/></g><rect class="cls-1" x="58.66" y="144.93" width=".46" height=".46" transform="translate(117.79 290.32) rotate(180)"/><rect class="cls-1" x="57.6" y="145.02" width=".29" height=".29" transform="translate(115.48 290.32) rotate(180)"/><rect class="cls-1" x="55.8" y="145.07" width=".18" height=".18" transform="translate(111.77 290.32) rotate(180)"/></g><g><g><path class="cls-1" d="M73.82,171.94h-13.61c-.09,0-.16-.07-.16-.16s.07-.16,.16-.16h13.61c.09,0,.16,.07,.16,.16s-.07,.16-.16,.16Z"/><polygon class="cls-1" points="60.07 171.76 60.07 171.41 63.67 171.41 64.06 171.79 60.07 171.76"/></g><rect class="cls-1" x="58.66" y="171.37" width=".46" height=".46" transform="translate(117.79 343.2) rotate(180)"/><rect class="cls-1" x="57.6" y="171.45" width=".29" height=".29" transform="translate(115.48 343.2) rotate(180)"/><rect class="cls-1" x="55.8" y="171.51" width=".18" height=".18" transform="translate(111.77 343.2) rotate(180)"/></g><g><g><path class="cls-1" d="M73.82,198.37h-13.61c-.09,0-.16-.07-.16-.16s.07-.16,.16-.16h13.61c.09,0,.16,.07,.16,.16s-.07,.16-.16,.16Z"/><polygon class="cls-1" points="60.07 198.2 60.07 197.84 63.67 197.84 64.06 198.22 60.07 198.2"/></g><rect class="cls-1" x="58.66" y="197.8" width=".46" height=".46" transform="translate(117.79 396.07) rotate(180)"/><rect class="cls-1" x="57.6" y="197.89" width=".29" height=".29" transform="translate(115.48 396.07) rotate(180)"/><rect class="cls-1" x="55.8" y="197.95" width=".18" height=".18" transform="translate(111.77 396.07) rotate(180)"/></g><path class="cls-1" d="M52.53,192.21H5.32c-.09,0-.16-.07-.16-.16v-6.62s.02-.08,.05-.11l34.34-34.34v-13.97c0-.09,.07-.16,.16-.16s.16,.07,.16,.16v14.04s-.02,.08-.05,.11L5.48,185.5v6.39H52.47l3.16-3.16s.07-.05,.11-.05h3.38c.09,0,.16,.07,.16,.16s-.07,.16-.16,.16h-3.32l-3.16,3.16s-.07,.05-.11,.05Z"/><path class="cls-1" d="M50.19,198H28.42c-.09,0-.16-.07-.16-.16s.07-.16,.16-.16h21.77c.09,0,.16,.07,.16,.16s-.07,.16-.16,.16Z"/><polygon class="cls-1" points="47.24 171.05 43.58 171.05 43.58 165.7 43.6 165.67 93.28 116 93.39 116.11 43.74 165.76 43.74 170.89 47.24 170.89 47.24 171.05"/><polygon class="cls-1" points="22.05 142.49 21.93 142.37 25.6 138.71 25.6 109.75 25.75 109.75 25.75 138.78 25.73 138.8 22.05 142.49"/><polygon class="cls-1" points="73.19 204.34 21.96 204.34 21.93 204.32 18.15 200.54 18.15 198.77 18.31 198.77 18.31 200.47 22.02 204.19 73.19 204.19 73.19 204.34"/></g><path class="cls-1" d="M11.61,204.42H4.44s-.08-.02-.11-.05l-2.59-2.59s-.05-.07-.05-.11v-25.81s.02-.08,.05-.11l1.63-1.63v-2.29c0-.09,.07-.16,.16-.16s.16,.07,.16,.16v2.36s-.02,.08-.05,.11l-1.63,1.63v25.68l2.5,2.5h7.11c.09,0,.16,.07,.16,.16s-.07,.16-.16,.16Z"/><path class="cls-1" d="M3.37,167.32c-.09,0-.16-.07-.16-.16v-2.63c0-.09,.07-.16,.16-.16s.16,.07,.16,.16v2.63c0,.09-.07,.16-.16,.16Z"/><path class="cls-1" d="M3.37,158.9c-.17,0-.32-.14-.32-.32v-3.57l-.88-.88H.32c-.17,0-.32-.14-.32-.32s.14-.32,.32-.32h1.98c.08,0,.16,.03,.22,.09l1.07,1.07c.06,.06,.09,.14,.09,.22v3.7c0,.18-.14,.32-.32,.32Z"/><path class="cls-1" d="M79.14,204.58h-2.85c-.17,0-.32-.14-.32-.32s.14-.32,.32-.32h2.85c.17,0,.32,.14,.32,.32s-.14,.32-.32,.32Z"/></g></g></g></svg>