<?xml version="1.0" encoding="iso-8859-1"?>
<!-- Generator: Adobe Illustrator 19.0.0, SVG Export Plug-In . SVG Version: 6.00 Build 0)  -->
<svg xmlns="http://www.w3.org/2000/svg" xmlns:xlink="http://www.w3.org/1999/xlink" version="1.1" id="Layer_1" x="0px" y="0px" viewBox="0 0 512 512" style="enable-background:new 0 0 512 512;" xml:space="preserve">
<path style="fill:#E0E0E2;" d="M140.781,0L91.473,28.655l-0.225,79.238h-0.001v242.466L371.444,512l49.308-28.655V240.879l0,0  v-79.238L140.781,0z"/>
<polygon style="fill:#D8D8DA;" points="371.444,269.534 420.752,240.879 420.752,483.345 371.444,512 "/>
<path style="fill:#C6C5CB;" d="M380.613,205.507c0.683-0.395,1.239-0.073,1.241,0.713v285.847c0.002,0.79,0.26,1.747-0.423,2.141  c-0.688,0.397-2.054,0.08-2.056-0.709V207.65C379.374,206.865,379.926,205.904,380.613,205.507 M390.539,199.776  c-0.688,0.397-1.24,1.358-1.238,2.144v285.847c0.002,0.79,1.369,1.107,2.056,0.709c0.683-0.395,0.429-1.353,0.427-2.144V200.486  C391.782,199.7,391.222,199.381,390.539,199.776 M400.464,194.044c-0.688,0.397-1.24,1.358-1.238,2.144v285.847  c0.002,0.79,1.369,1.107,2.056,0.709c0.683-0.395,0.425-1.351,0.423-2.141V194.757C401.703,193.972,401.147,193.65,400.464,194.044   M410.389,188.314c-0.688,0.397-1.24,1.358-1.238,2.144v285.847c0.002,0.791,1.369,1.108,2.056,0.709  c0.683-0.395,0.429-1.353,0.427-2.144V189.025C411.633,188.239,411.073,187.92,410.389,188.314"/>
<polygon style="fill:#016EF1;" points="140.781,0 91.473,28.655 91.249,107.893 371.444,269.534 420.752,240.879 420.752,161.641   "/>
<g>
	<path style="fill:#57565C;" d="M178.764,208.717c-4.569-2.638-9.033-4.71-13.369-6.198c-4.336-1.495-8.358-2.397-12.056-2.718   c-3.699-0.312-7.014-0.063-9.952,0.731c-2.939,0.801-5.286,2.246-7.054,4.329l14.713,27.516c2.71-3.563,6.207-5.524,10.494-5.88   c4.288-0.355,9.124,1.017,14.523,4.134c5.27,3.043,9.546,6.862,12.821,11.452c3.268,4.586,4.9,9.64,4.885,15.162   c-0.017,5.793-2.025,9.388-6.019,10.791c-3.994,1.41-9.626,0.011-16.893-4.183l-5.452-3.148l-0.057,20.198l4.927,2.844   c8.788,5.074,15.348,10.754,19.671,17.027c4.33,6.278,6.485,12.921,6.465,19.922c-0.019,6.73-1.914,10.632-5.671,11.697   c-3.764,1.063-9.22-0.467-16.365-4.592c-6.329-3.654-11.602-7.909-15.815-12.768c-4.212-4.86-7.836-10.396-10.869-16.6   l-13.419,11.475c4.552,8.973,10.253,17.083,17.098,24.347c6.851,7.261,14.726,13.459,23.636,18.603   c7.036,4.063,13.368,6.733,19.001,8.03c5.627,1.294,10.413,1.296,14.353-0.006c3.933-1.305,6.991-3.891,9.176-7.757   c2.185-3.866,3.286-8.956,3.304-15.29c0.027-9.425-2.209-18.714-6.706-27.849c-4.491-9.14-10.369-16.545-17.631-22.218   c3.278,1.217,6.301,1.613,9.063,1.183c2.763-0.429,5.142-1.554,7.145-3.36c1.997-1.818,3.53-4.238,4.597-7.267   c1.062-3.025,1.605-6.559,1.616-10.601c0.016-5.382-0.941-10.829-2.863-16.322c-1.922-5.493-4.667-10.817-8.232-15.985   c-3.57-5.164-7.809-10.039-12.725-14.63C190.185,216.188,184.743,212.169,178.764,208.717"/>
	<path style="fill:#57565C;" d="M288.122,272.864l-24.088-13.907c-0.589,0.878-1.976,1.729-4.145,2.571   c-2.176,0.831-4.73,1.482-7.667,1.941c-2.938,0.468-5.929,0.596-8.98,0.386c-3.057-0.214-5.634-0.926-7.744-2.144l-0.072,25.255   c2.225,1.284,4.773,2.283,7.654,3c2.873,0.721,5.654,1.108,8.361,1.182c2.7,0.077,5.192-0.067,7.481-0.436   c2.297-0.357,3.965-1.046,5.029-2.053l-0.173,61.221l-24.964-14.413l-0.069,24.442l71.382,41.212l0.069-24.442l-22.329-12.892   L288.122,272.864"/>
</g>
<g>
	<path style="fill:#FFFFFF;" d="M199.217,108.258l-7.946-4.588l-0.068,23.884c-0.007,2.649-0.088,4.914-0.249,6.783   s-0.489,3.325-0.992,4.361c-0.503,1.037-1.24,1.596-2.198,1.678c-0.959,0.09-2.248-0.335-3.858-1.265   c-1.651-0.953-3.113-2.062-4.372-3.315c-1.265-1.266-2.167-2.267-2.705-3.021l-1.807,6.38c2.454,3.356,5.404,6.029,8.862,8.025   c3.377,1.95,6.06,2.926,8.065,2.935c1.998,0.005,3.526-0.726,4.59-2.183c1.057-1.469,1.759-3.569,2.091-6.317   c0.339-2.745,0.51-5.904,0.519-9.474L199.217,108.258"/>
	<path style="fill:#FFFFFF;" d="M242.454,133.22l-7.886-4.553l-0.068,23.954c-0.005,1.936-0.172,3.732-0.508,5.37   c-0.329,1.64-0.892,2.944-1.678,3.903c-0.792,0.954-1.834,1.501-3.123,1.64c-1.283,0.143-2.868-0.329-4.749-1.415   c-1.846-1.066-3.396-2.395-4.66-3.986c-1.264-1.591-2.292-3.318-3.071-5.186c-0.785-1.865-1.34-3.807-1.658-5.821   c-0.325-2.026-0.482-4.025-0.475-6.007l0.068-23.954l-7.94-4.584l-0.068,23.954c-0.008,3.044,0.3,6.154,0.918,9.342   c0.626,3.185,1.65,6.266,3.059,9.221c1.416,2.958,3.264,5.748,5.546,8.368c2.281,2.621,5.049,4.87,8.311,6.753   c3.147,1.817,5.859,2.762,8.127,2.838s4.12-0.538,5.568-1.82c1.442-1.294,2.507-3.152,3.189-5.583   c0.675-2.434,1.021-5.267,1.03-8.481L242.454,133.22"/>
	<polyline style="fill:#FFFFFF;" points="258.407,142.431 250.461,137.843 250.328,184.814 279.113,201.434 279.136,193.433    258.297,181.401 258.407,142.431  "/>
</g>
<g style="enable-background:new    ;">
	<polygon style="fill:#005ECF;" points="371.444,190.296 420.752,161.641 420.752,240.879 371.444,269.534  "/>
	<polygon style="fill:#2487FF;" points="91.473,28.655 140.781,0 420.752,161.641 371.444,190.296  "/>
</g>
<g>
	<path style="fill:#004FAE;" d="M400.464,194.044c-0.688,0.397-1.24,1.358-1.238,2.144v57.069l2.479-1.441v-57.06   C401.703,193.972,401.147,193.65,400.464,194.044z"/>
	<path style="fill:#004FAE;" d="M410.389,188.314c-0.688,0.397-1.24,1.358-1.238,2.144v57.032l2.484-1.443v-57.022   C411.633,188.239,411.073,187.92,410.389,188.314z"/>
	<path style="fill:#004FAE;" d="M390.539,199.776c-0.688,0.397-1.24,1.358-1.237,2.144v57.106l2.484-1.443v-57.097   C391.782,199.7,391.222,199.381,390.539,199.776z"/>
	<path style="fill:#004FAE;" d="M380.613,205.507c-0.688,0.397-1.24,1.358-1.238,2.144v57.144l2.479-1.441v-57.134   C381.853,205.433,381.297,205.112,380.613,205.507z"/>
</g>
<path style="fill:#016EF1;" d="M368.847,176.724c-0.69,0.394-1.798,0.386-2.475-0.013L119.527,32.573  c-0.681-0.4-0.266-1.74,0.424-2.134c0.685-0.391,1.381,0.315,2.063,0.715l246.844,144.14  C369.534,175.691,369.532,176.333,368.847,176.724 M378.8,171.043c0.685-0.391,0.693-1.035,0.016-1.434L131.971,25.47  c-0.681-0.4-1.381-1.103-2.067-0.712c-0.69,0.394-1.105,1.733-0.424,2.134l246.845,144.138  C377.002,171.429,378.111,171.437,378.8,171.043 M388.754,165.362c0.685-0.391,0.688-1.033,0.01-1.431L141.92,19.792  c-0.681-0.4-1.377-1.105-2.063-0.715c-0.69,0.394-1.105,1.733-0.424,2.134l246.844,144.14  C386.956,165.748,388.064,165.756,388.754,165.362 M398.707,159.681c0.685-0.391,0.693-1.035,0.016-1.434L151.878,14.108  c-0.681-0.4-1.381-1.103-2.067-0.712c-0.69,0.394-1.105,1.733-0.424,2.134l246.845,144.138  C396.909,160.067,398.018,160.074,398.707,159.681"/>
<path style="fill:#C6C5CB;" d="M314.327,168.544c-5.858-3.382-11.166-3.696-14.999-1.468l-7.807,4.537  c0.013-0.007,0.025-0.014,0.037-0.021c-3.805,2.19-6.167,6.874-6.187,13.541c-0.038,13.379,9.369,29.67,21.01,36.392  c5.88,3.395,11.204,3.697,15.04,1.443c-0.014,0.008-0.027,0.018-0.041,0.026l7.807-4.537c3.784-2.198,6.13-6.874,6.149-13.521  C335.375,191.559,325.968,175.266,314.327,168.544z"/>
<path style="fill:#E0E0E2;" d="M291.52,171.613l7.807-4.537c3.833-2.228,9.141-1.913,14.999,1.468l-7.807,4.537  C300.661,169.698,295.353,169.385,291.52,171.613z"/>
<path style="fill:#C6C5CB;" d="M329.188,218.457l-7.807,4.537c3.784-2.198,6.13-6.874,6.149-13.521  c0.038-13.377-9.369-29.671-21.01-36.392l7.807-4.537c11.641,6.721,21.048,23.016,21.01,36.392  C335.319,211.581,332.972,216.257,329.188,218.457z"/>
<path style="fill:#D8D8DA;" d="M306.518,173.081c11.641,6.721,21.048,23.016,21.011,36.392  c-0.038,13.379-9.506,18.772-21.148,12.052c-11.641-6.721-21.048-23.014-21.01-36.392  C285.409,171.756,294.877,166.36,306.518,173.081z"/>
<path style="fill:#C6C5CB;" d="M149.208,73.767c-5.858-3.382-11.166-3.696-14.999-1.468l-7.807,4.537  c0.013-0.007,0.025-0.014,0.037-0.021c-3.805,2.19-6.167,6.874-6.187,13.541c-0.038,13.379,9.369,29.671,21.01,36.392  c5.88,3.395,11.204,3.697,15.04,1.443c-0.014,0.008-0.027,0.018-0.041,0.026l7.807-4.537c3.784-2.198,6.13-6.874,6.149-13.521  C170.256,96.782,160.849,80.487,149.208,73.767z"/>
<path style="fill:#E0E0E2;" d="M126.402,76.835l7.807-4.537c3.833-2.228,9.141-1.913,14.999,1.468l-7.807,4.537  C135.542,74.921,130.234,74.608,126.402,76.835z"/>
<path style="fill:#C6C5CB;" d="M164.071,123.679l-7.807,4.537c3.784-2.198,6.13-6.874,6.149-13.521  c0.038-13.377-9.369-29.671-21.011-36.392l7.807-4.537c11.641,6.721,21.048,23.016,21.01,36.392  C170.2,116.804,167.854,121.48,164.071,123.679z"/>
<path style="fill:#D8D8DA;" d="M141.401,78.304c11.641,6.721,21.048,23.016,21.011,36.392c-0.038,13.379-9.506,18.772-21.148,12.052  c-11.641-6.721-21.048-23.014-21.011-36.392C120.29,76.979,129.76,71.583,141.401,78.304z"/>
<g>
</g>
<g>
</g>
<g>
</g>
<g>
</g>
<g>
</g>
<g>
</g>
<g>
</g>
<g>
</g>
<g>
</g>
<g>
</g>
<g>
</g>
<g>
</g>
<g>
</g>
<g>
</g>
<g>
</g>
</svg>
