<?xml version="1.0" encoding="iso-8859-1"?>
<!-- Generator: Adobe Illustrator 19.0.0, SVG Export Plug-In . SVG Version: 6.00 Build 0)  -->
<svg xmlns="http://www.w3.org/2000/svg" xmlns:xlink="http://www.w3.org/1999/xlink" version="1.1" id="Layer_1" x="0px" y="0px" viewBox="0 0 512 512" style="enable-background:new 0 0 512 512;" xml:space="preserve">
<polygon style="fill:#3E3D43;" points="367.613,71.907 51.186,255.55 51.186,336.551 195.574,419.913 512,236.27 512,155.269 "/>
<g>
	<polygon style="fill:#2E2E30;" points="61.511,330.901 61.511,274.672 184.444,345.648 184.444,401.877  "/>
	<polygon style="fill:#2E2E30;" points="195.171,338.274 511.598,154.631 511.598,235.633 195.171,419.276  "/>
</g>
<polygon style="fill:#1D1D1F;" points="216.624,350.628 490.145,191.886 490.145,223.279 216.624,382.021 "/>
<polygon style="fill:#57565C;" points="50.784,254.912 367.211,71.269 511.598,154.631 195.171,338.274 "/>
<g style="enable-background:new    ;">
	<path style="fill:#3E3D43;" d="M374.911,147.966c-11.082-6.398-28.991-6.398-39.998-0.002c-8.85,5.143-10.54,12.856-5.106,19.005   l-44.984,26.142h-63.54c-2.329,0-4.555,0.537-6.193,1.489l-16.793,9.759l-7.052-4.071l-26.371,15.326l26.544,15.324l26.371-15.326   l-7.052-4.071l14.232-8.27h42.372l-69.548,40.417l-13.691-7.905l-13.982,30.594l52.772-8.198l-12.658-7.308l103.492-60.143   l0.135,23.348l-28.49,16.556c-7.928-1.808-17.279-0.862-23.661,2.846c-8.579,4.985-8.533,13.067,0.098,18.051   c8.635,4.985,22.589,4.985,31.167,0c6.381-3.708,7.983-9.128,4.836-13.714l31.048-18.043c1.642-0.954,2.558-2.243,2.55-3.592   l-0.204-35.609l11.045-6.418c10.636,3.129,23.944,2.123,32.793-3.02C386.049,164.735,385.991,154.362,374.911,147.966"/>
</g>
<path style="fill:#898890;" d="M91.112,291.767L0,344.717v42.532l92.632,53.482l91.812-53.355v-41.728L91.112,291.767z   M89.425,435.275l0.099-0.057v0.057H89.425z"/>
<g style="enable-background:new    ;">
	<polygon style="fill:#77767E;" points="3.087,350.171 94.898,296.817 94.797,332.015 3.087,385.37  "/>
	<polygon style="fill:#2E2E30;" points="85.494,414.35 177.305,360.996 177.267,374.267 85.494,427.621  "/>
	<polygon style="fill:#57565C;" points="7.097,369.088 98.908,315.733 177.305,360.996 85.494,414.35  "/>
	<path style="fill:#ACABB1;" d="M0,344.717l92.632,53.481v42.532L0,387.249V344.717z M89.526,435.275v-35.198L3.087,350.171v35.198   l86.34,49.905"/>
	<polygon style="fill:#3E3D43;" points="85.494,414.35 85.494,427.621 7.097,382.359 7.097,369.088  "/>
	<polygon style="fill:#898890;" points="92.632,398.198 184.444,345.648 184.324,387.375 92.632,440.731  "/>
	<polygon style="fill:#C6C5CB;" points="0,344.717 91.112,291.767 184.444,345.648 92.632,398.198  "/>
</g>
<path style="fill:#77767E;" d="M77.263,339.592c0.491,0.283,0.493,0.741,0.006,1.024l-15.642,9.091  c-0.488,0.283-1.278,0.283-1.768,0l-20.584-11.885c-0.488-0.282-0.493-0.741-0.006-1.024l15.642-9.09  c0.488-0.283,1.28-0.282,1.768,0L77.263,339.592 M118.995,363.686l-20.584-11.885c-0.49-0.283-1.281-0.283-1.768,0L81,360.891  c-0.488,0.283-0.486,0.741,0.005,1.024L101.59,373.8c0.488,0.282,1.281,0.283,1.768,0L119,364.709  C119.488,364.427,119.483,363.968,118.995,363.686"/>
<g>
	<path style="fill:#57565C;" d="M59.858,349.706c0.491,0.283,1.281,0.283,1.768,0l15.642-9.091c0.487-0.283,0.485-0.741-0.006-1.024   l-9.737-5.622L50.12,344.085L59.858,349.706z"/>
	<path style="fill:#57565C;" d="M103.359,373.801l15.642-9.091c0.488-0.283,0.482-0.743-0.006-1.024l-20.584-11.885   c-0.49-0.283-1.281-0.283-1.768,0L81,360.891c-0.488,0.283-0.485,0.741,0.005,1.024L101.59,373.8   C102.078,374.083,102.871,374.084,103.359,373.801z"/>
</g>
<path style="fill:#898890;" d="M235.9,356.592c0.02,6.913,2.46,11.776,6.396,14.063l16.242,9.439  c-0.015-0.008-0.028-0.019-0.043-0.027c3.99,2.345,9.528,2.03,15.644-1.5c12.108-6.99,21.894-23.936,21.854-37.852  c-0.02-6.934-2.476-11.806-6.434-14.084c0.013,0.007,0.026,0.014,0.039,0.021l-16.242-9.439c-3.986-2.317-9.508-1.991-15.6,1.528  C245.646,325.73,235.861,342.678,235.9,356.592z"/>
<path style="fill:#C6C5CB;" d="M289.597,326.652l-16.242-9.439c-3.986-2.317-9.508-1.991-15.6,1.528l16.242,9.439  C280.089,324.661,285.61,324.334,289.597,326.652z"/>
<path style="fill:#ACABB1;" d="M242.296,370.656l16.242,9.439c-3.935-2.287-6.376-7.15-6.396-14.063  c-0.04-13.914,9.746-30.862,21.854-37.852l-16.242-9.439c-12.108,6.99-21.894,23.939-21.854,37.852  C235.92,363.505,238.36,368.368,242.296,370.656z"/>
<path style="fill:#898890;" d="M273.996,328.178c-12.108,6.99-21.894,23.939-21.854,37.852c0.04,13.916,9.888,19.526,21.997,12.536  c12.108-6.99,21.894-23.936,21.854-37.852C295.954,326.8,286.105,321.188,273.996,328.178z"/>
<path style="fill:#77767E;" d="M274.024,338.039c-7.37,4.255-13.325,14.569-13.301,23.037c0.024,8.469,6.019,11.884,13.387,7.629  c7.37-4.255,13.325-14.568,13.301-23.037C287.388,337.201,281.393,333.785,274.024,338.039z"/>
<g>
</g>
<g>
</g>
<g>
</g>
<g>
</g>
<g>
</g>
<g>
</g>
<g>
</g>
<g>
</g>
<g>
</g>
<g>
</g>
<g>
</g>
<g>
</g>
<g>
</g>
<g>
</g>
<g>
</g>
</svg>
