<?xml version="1.0" encoding="iso-8859-1"?>
<!-- Generator: Adobe Illustrator 19.0.0, SVG Export Plug-In . SVG Version: 6.00 Build 0)  -->
<svg xmlns="http://www.w3.org/2000/svg" xmlns:xlink="http://www.w3.org/1999/xlink" version="1.1" id="Layer_1" x="0px" y="0px" viewBox="0 0 511.999 511.999" style="enable-background:new 0 0 511.999 511.999;" xml:space="preserve">
<g>
	<path style="fill:#1D1D1F;" d="M356.466,509.991l26.517-15.501c5.244-3.076,8.074-9.587,8.061-18.821V160.116   c-0.024-18.58-13.184-41.161-29.393-50.429L176.779,3.962c-8.156-4.664-15.531-5.07-20.842-1.954L129.42,17.509   c0.017-0.009,0.036-0.018,0.052-0.027c-5.274,3.064-8.528,9.583-8.517,18.842v315.555c0.024,18.587,13.589,41.167,29.797,50.436   l184.872,105.723c8.389,4.797,15.946,5.079,21.286,1.668C356.762,509.8,356.617,509.903,356.466,509.991z"/>
	<path style="fill:#1D1D1F;" d="M356.466,509.991l26.517-15.501c5.244-3.076,8.074-9.587,8.061-18.821l-26.113,15.501   C364.943,500.405,361.71,506.915,356.466,509.991z"/>
</g>
<path style="fill:#57565C;" d="M155.937,2.008L129.42,17.509c5.311-3.116,12.686-2.71,20.842,1.954l26.517-15.501  C168.623-0.702,161.248-1.108,155.937,2.008z"/>
<polygon style="fill:#1D1D1F;" points="364.931,491.17 391.044,475.669 391.044,160.116 364.527,175.616 "/>
<polygon style="fill:#3E3D43;" points="335.134,125.186 361.651,109.685 176.779,3.962 150.262,19.463 "/>
<path style="fill:#57565C;" d="M364.527,175.616l26.517-15.501c-0.024-18.58-13.184-41.161-29.393-50.429l-26.517,15.501  C351.343,134.455,364.503,157.035,364.527,175.616z"/>
<path style="fill:#2E2E30;" d="M335.625,508.038c16.208,9.269,29.33,1.72,29.307-16.868l-0.404-315.554  c-0.024-18.58-13.184-41.161-29.393-50.429L150.262,19.463c-16.208-9.269-29.33-1.72-29.307,16.861v315.554  c0.024,18.587,13.589,41.167,29.797,50.436L335.625,508.038z"/>
<g>
	<path style="fill:#1D1D1F;" d="M272.071,105.712l-66.46-38.37c-2.692-1.554-4.883-0.305-4.891,2.788   c-0.008,3.102,2.168,6.872,4.86,8.426l66.46,38.37c2.692,1.554,4.883,0.306,4.891-2.796   C276.939,111.036,274.762,107.266,272.071,105.712"/>
	<path style="fill:#1D1D1F;" d="M272.071,447.285l-66.46-38.37c-2.692-1.554-4.883-0.305-4.891,2.788   c-0.008,3.102,2.168,6.872,4.86,8.426l66.46,38.37c2.692,1.554,4.883,0.306,4.891-2.796   C276.939,452.61,274.762,448.84,272.071,447.285"/>
</g>
<polyline style="fill:#C3DFF7;" points="344.538,474.973 139.426,357.674 139.426,52.528 344.538,169.827 344.929,474.973 "/>
<path style="fill:#2E2E30;" d="M372.725,318.89l2.623,1.524c-0.071-0.042-0.13-0.104-0.193-0.159  c0.52,0.446,1.308,0.479,2.204-0.038l5.427-3.134c1.563-0.903,2.828-3.094,2.823-4.89l-0.138-116.282  c-0.002-0.892-0.321-1.519-0.832-1.813c0.002,0.001,0.004,0.001,0.006,0.002l-2.623-1.524c-0.515-0.299-1.229-0.258-2.017,0.196  l-5.427,3.134c-1.563,0.903-2.823,3.091-2.818,4.882l0.138,116.281C371.901,317.965,372.216,318.594,372.725,318.89z"/>
<g>
	<path style="fill:#3E3D43;" d="M375.348,320.414l-2.623-1.524c-0.509-0.296-0.824-0.925-0.827-1.819l2.623,1.525   C374.524,319.489,374.84,320.118,375.348,320.414z"/>
	<path style="fill:#3E3D43;" d="M382.023,192.578l2.623,1.524c-0.515-0.3-1.229-0.258-2.017,0.196l-2.623-1.524   C380.794,192.32,381.507,192.278,382.023,192.578z"/>
</g>
<polygon style="fill:#57565C;" points="374.521,318.595 371.899,317.071 371.761,200.79 374.383,202.314 "/>
<polygon style="fill:#3E3D43;" points="377.202,197.432 374.579,195.908 380.006,192.774 382.63,194.299 "/>
<path style="fill:#77767E;" d="M374.383,202.314l-2.623-1.524c-0.005-1.791,1.255-3.979,2.818-4.882l2.623,1.524  C375.638,198.334,374.378,200.522,374.383,202.314z"/>
<path style="fill:#2E2E30;" d="M382.63,194.299c1.563-0.903,2.837-0.178,2.842,1.614l0.138,116.282  c0.005,1.796-1.26,3.987-2.823,4.89l-5.427,3.134c-1.563,0.903-2.832,0.174-2.837-1.622l-0.138-116.282  c-0.005-1.791,1.255-3.979,2.818-4.882L382.63,194.299z"/>
<g>
</g>
<g>
</g>
<g>
</g>
<g>
</g>
<g>
</g>
<g>
</g>
<g>
</g>
<g>
</g>
<g>
</g>
<g>
</g>
<g>
</g>
<g>
</g>
<g>
</g>
<g>
</g>
<g>
</g>
</svg>
