<?xml version="1.0" encoding="iso-8859-1"?>
<!-- Generator: Adobe Illustrator 19.0.0, SVG Export Plug-In . SVG Version: 6.00 Build 0)  -->
<svg xmlns="http://www.w3.org/2000/svg" xmlns:xlink="http://www.w3.org/1999/xlink" version="1.1" id="Layer_1" x="0px" y="0px" viewBox="0 0 512.001 512.001" style="enable-background:new 0 0 512.001 512.001;" xml:space="preserve">
<path style="fill:#2E2E30;" d="M364.99,101.831L190.436,1.053c-2.135-1.232-4.067-1.346-5.463-0.535l-43.376,25.208  c0.004-0.002,0.009-0.004,0.014-0.006c-1.387,0.798-2.247,2.505-2.254,4.931l0.201,366.263c-0.014,4.876,3.409,10.805,7.653,13.256  l174.353,100.778c2.266,1.308,4.302,1.346,5.713,0.36c-0.084,0.059-0.162,0.123-0.25,0.173l43.376-25.208  c1.378-0.8,2.233-2.502,2.239-4.923V115.088C372.657,110.221,369.226,104.277,364.99,101.831z"/>
<path style="fill:#1D1D1F;" d="M370.404,486.274l-43.376,25.208c1.378-0.8,2.233-2.502,2.239-4.925l43.376-25.208  C372.637,483.771,371.782,485.474,370.404,486.274z"/>
<path style="fill:#3E3D43;" d="M141.597,25.726l43.376-25.208c1.396-0.811,3.328-0.698,5.463,0.535L147.06,26.261  C144.925,25.028,142.992,24.915,141.597,25.726z"/>
<polygon style="fill:#1D1D1F;" points="329.267,140.295 372.644,115.088 372.644,481.349 329.267,506.557 "/>
<polygon style="fill:#3E3D43;" points="147.06,26.261 190.436,1.053 364.99,101.832 321.614,127.04 "/>
<path style="fill:#57565C;" d="M321.614,127.04l43.376-25.208c4.236,2.446,7.667,8.388,7.653,13.255l-43.376,25.208  C329.28,135.428,325.85,129.485,321.614,127.04z"/>
<path style="fill:#2E2E30;" d="M321.614,127.04c4.236,2.446,7.667,8.388,7.653,13.255v366.263c-0.014,4.876-3.467,6.836-7.703,4.39  L147.211,410.169c-4.244-2.45-7.667-8.379-7.653-13.255l-0.201-366.263c0.014-4.867,3.46-6.84,7.703-4.39L321.614,127.04z"/>
<polyline style="fill:#C3DFF7;" points="310.345,166.774 153.687,76.327 153.687,355.766 310.345,446.213 310.345,166.774 "/>
<path style="fill:#77767E;" d="M232.112,439.43c-4.876-2.816-8.829-9.672-8.814-15.276c0.016-5.604,3.995-7.871,8.871-5.056  c4.876,2.816,8.829,9.662,8.814,15.267C240.968,439.968,236.989,442.245,232.112,439.43 M232.182,414.67  c-7.003-4.043-12.722-0.793-12.745,7.254s5.66,17.889,12.663,21.933c7.003,4.043,12.722,0.784,12.745-7.263  C244.867,428.546,239.185,418.714,232.182,414.67"/>
<path style="fill:#1D1D1F;" d="M266.113,114.381l-65.779-37.977c-2.664-1.538-4.833-0.302-4.841,2.758  c-0.008,3.071,2.145,6.801,4.81,8.339l65.779,37.977c2.664,1.538,4.833,0.303,4.841-2.768  C270.931,119.651,268.777,115.919,266.113,114.381"/>
<path style="fill:#3E3D43;" d="M187.783,69.302c-2.602-1.501-4.706-0.293-4.714,2.687c-0.008,2.989,2.082,6.611,4.684,8.114  c2.593,1.497,4.706,0.302,4.715-2.686C192.476,74.435,190.377,70.799,187.783,69.302"/>
<g>
	<path style="fill:#2E2E30;" d="M344.012,264.785l3.703,2.152c-0.101-0.059-0.183-0.147-0.273-0.225   c0.734,0.63,1.847,0.676,3.111-0.053l7.661-4.423c2.207-1.275,3.993-4.367,3.985-6.902l-0.195-90.394   c-0.003-1.26-0.452-2.144-1.173-2.559c0.003,0.001,0.006,0.001,0.008,0.003l-3.703-2.151c-0.727-0.422-1.734-0.364-2.846,0.278   l-7.661,4.423c-2.207,1.274-3.985,4.362-3.979,6.891l0.195,90.394C342.848,263.48,343.293,264.368,344.012,264.785z"/>
	<path style="fill:#2E2E30;" d="M360.829,276.854c0.003,0.001,0.006,0.001,0.008,0.003l-3.703-2.151   c-0.727-0.422-1.735-0.364-2.846,0.278l-7.661,4.423c-2.207,1.274-3.985,4.362-3.979,6.891l0.195,41.284   c0.003,1.262,0.448,2.15,1.167,2.567l3.703,2.152c-0.101-0.059-0.183-0.147-0.273-0.225c0.733,0.63,1.847,0.676,3.111-0.053   l7.661-4.423c2.207-1.275,3.993-4.367,3.985-6.902l-0.195-41.284C362,278.153,361.55,277.269,360.829,276.854z"/>
</g>
<g>
	<path style="fill:#3E3D43;" d="M347.714,266.937l-3.703-2.151c-0.718-0.417-1.163-1.306-1.167-2.567l3.703,2.151   C346.551,265.631,346.996,266.519,347.714,266.937z"/>
	<path style="fill:#3E3D43;" d="M357.136,160.232l3.703,2.151c-0.727-0.422-1.734-0.364-2.846,0.278l-3.703-2.151   C355.4,159.868,356.408,159.809,357.136,160.232z"/>
</g>
<polygon style="fill:#57565C;" points="346.547,264.369 342.845,262.218 342.649,171.824 346.352,173.975 "/>
<polygon style="fill:#3E3D43;" points="350.33,167.084 346.628,164.933 354.289,160.51 357.991,162.661 "/>
<path style="fill:#77767E;" d="M346.352,173.975l-3.703-2.151c-0.007-2.529,1.771-5.616,3.979-6.891l3.703,2.151  C348.124,168.359,346.345,171.447,346.352,173.975z"/>
<path style="fill:#2E2E30;" d="M357.991,162.661c2.207-1.274,4.004-0.25,4.011,2.278l0.195,90.394  c0.007,2.536-1.778,5.629-3.985,6.903l-7.661,4.423c-2.207,1.274-3.998,0.247-4.004-2.289l-0.195-90.394  c-0.007-2.529,1.771-5.616,3.979-6.891L357.991,162.661z"/>
<g>
	<path style="fill:#3E3D43;" d="M347.714,332.301l-3.703-2.151c-0.718-0.417-1.163-1.306-1.167-2.567l3.703,2.151   C346.551,330.995,346.996,331.884,347.714,332.301z"/>
	<path style="fill:#3E3D43;" d="M357.136,274.705l3.703,2.151c-0.727-0.422-1.734-0.364-2.846,0.278l-3.703-2.151   C355.4,274.341,356.408,274.283,357.136,274.705z"/>
</g>
<polygon style="fill:#57565C;" points="346.547,329.734 342.845,327.581 342.649,286.297 346.352,288.449 "/>
<polygon style="fill:#3E3D43;" points="350.33,281.558 346.628,279.406 354.289,274.983 357.991,277.135 "/>
<path style="fill:#77767E;" d="M346.352,288.449l-3.703-2.151c-0.007-2.529,1.771-5.616,3.979-6.891l3.703,2.151  C348.124,282.832,346.345,285.921,346.352,288.449z"/>
<path style="fill:#2E2E30;" d="M357.991,277.135c2.207-1.274,4.004-0.25,4.011,2.278l0.195,41.284  c0.007,2.536-1.778,5.629-3.985,6.902l-7.661,4.423c-2.207,1.274-3.998,0.247-4.004-2.289l-0.195-41.284  c-0.007-2.529,1.771-5.616,3.979-6.891L357.991,277.135z"/>
<g>
</g>
<g>
</g>
<g>
</g>
<g>
</g>
<g>
</g>
<g>
</g>
<g>
</g>
<g>
</g>
<g>
</g>
<g>
</g>
<g>
</g>
<g>
</g>
<g>
</g>
<g>
</g>
<g>
</g>
</svg>
