<?xml version="1.0" encoding="iso-8859-1"?>
<!-- Generator: Adobe Illustrator 19.0.0, SVG Export Plug-In . SVG Version: 6.00 Build 0)  -->
<svg xmlns="http://www.w3.org/2000/svg" xmlns:xlink="http://www.w3.org/1999/xlink" version="1.1" id="Layer_1" x="0px" y="0px" viewBox="0 0 512 512" style="enable-background:new 0 0 512 512;" xml:space="preserve">
<polygon style="fill:#57565C;" points="319.781,367.828 207.465,302.556 197.477,311.074 219.695,403.786 165.77,434.92   165.803,446.728 278.121,512 345.069,473.347 "/>
<g style="enable-background:new    ;">
	<g>
		<polygon style="fill:#3E3D43;" points="278.121,512 165.803,446.728 165.77,434.92 278.087,500.192   "/>
		<polygon style="fill:#3E3D43;" points="332.013,469.057 219.695,403.786 197.477,311.074 309.794,376.345   "/>
	</g>
	<polygon style="fill:#77767E;" points="309.794,376.345 197.477,311.074 207.465,302.556 319.781,367.828  "/>
	<polygon style="fill:#2E2E30;" points="319.781,367.828 345.069,473.347 278.121,512 278.087,500.192 332.013,469.057    309.794,376.345  "/>
</g>
<path style="fill:#1D1D1F;" d="M393.311,151.444L139.322,4.803c-9.733-5.619-18.551-6.14-24.918-2.44L94.601,13.871  c0.02-0.011,0.041-0.021,0.061-0.032c-6.322,3.639-10.246,11.42-10.277,22.494l-0.601,212.016  c-0.063,22.227,15.565,49.3,34.907,60.467l253.988,146.642c10.013,5.78,19.05,6.154,25.454,2.097  c-0.18,0.114-0.354,0.236-0.537,0.343l19.803-11.507c6.288-3.654,10.187-11.425,10.218-22.468l0.601-212.017  C428.28,189.685,412.654,162.612,393.311,151.444z"/>
<g style="enable-background:new    ;">
	<path style="fill:#3E3D43;" d="M94.601,13.872l19.802-11.507c6.368-3.701,15.185-3.18,24.918,2.44l-19.802,11.506   C109.786,10.691,100.968,10.171,94.601,13.872z"/>
	<g>
		<path style="fill:#2E2E30;" d="M417.398,446.391l-19.803,11.507c6.288-3.654,10.187-11.425,10.218-22.468l19.803-11.507    C427.585,434.966,423.686,442.736,417.398,446.391z"/>
		<polygon style="fill:#2E2E30;" points="408.415,223.413 428.217,211.905 427.616,423.923 407.814,435.43   "/>
	</g>
	<polygon style="fill:#57565C;" points="119.519,16.311 139.322,4.803 393.311,151.444 373.508,162.952  "/>
	<path style="fill:#3E3D43;" d="M373.508,162.952l19.803-11.507c19.343,11.168,34.97,38.241,34.907,60.461l-19.802,11.507   C408.478,201.192,392.851,174.119,373.508,162.952z"/>
	<path style="fill:#1D1D1F;" d="M373.508,162.952c19.343,11.168,34.97,38.241,34.907,60.461l-0.601,212.017   c-0.063,22.227-15.792,31.196-35.135,20.028l-253.99-146.641c-19.343-11.168-34.97-38.241-34.907-60.467l0.601-212.017   c0.063-22.22,15.792-31.19,35.135-20.022L373.508,162.952z"/>
</g>
<path style="fill:#3E3D43;" d="M375,421.077c-5.495-3.172-9.964-0.626-9.982,5.688c-0.018,6.314,4.422,14.005,9.917,17.177  c5.495,3.172,9.964,0.626,9.982-5.688C384.935,431.94,380.495,424.25,375,421.077z"/>
<g>
	<polygon style="fill:#C3DFF7;" points="389.488,199.494 102.709,33.922 102.709,252.269 389.488,417.841  "/>
	<polygon style="fill:#C3DFF7;" points="389.488,199.494 102.709,33.922 102.709,252.269 389.488,417.841  "/>
</g>
<g>
</g>
<g>
</g>
<g>
</g>
<g>
</g>
<g>
</g>
<g>
</g>
<g>
</g>
<g>
</g>
<g>
</g>
<g>
</g>
<g>
</g>
<g>
</g>
<g>
</g>
<g>
</g>
<g>
</g>
</svg>
