<?xml version="1.0" encoding="iso-8859-1"?>
<!-- Generator: Adobe Illustrator 19.0.0, SVG Export Plug-In . SVG Version: 6.00 Build 0)  -->
<svg xmlns="http://www.w3.org/2000/svg" xmlns:xlink="http://www.w3.org/1999/xlink" version="1.1" id="Layer_1" x="0px" y="0px" viewBox="0 0 512 512" style="enable-background:new 0 0 512 512;" xml:space="preserve">
<path style="fill:#E0E0E2;" d="M380.283,66.072v379.136c-0.047,16.718-11.718,33.411-33.669,46.167  c-44.181,25.675-116.051,25.678-160.525,0.001c-22.377-12.92-32.871-29.881-32.823-46.815V65.425  c-0.048,16.934,11.128,33.895,33.506,46.815c44.473,25.677,116.345,25.674,160.525-0.001  C369.247,99.483,380.235,82.789,380.283,66.072z"/>
<path style="fill:#C6C5CB;" d="M346.773,399.761c44.473,25.677,44.707,67.305,0.523,92.982  c-44.181,25.675-116.051,25.678-160.525,0.001c-44.469-25.675-44.704-67.307-0.523-92.982  C230.433,374.085,302.304,374.086,346.773,399.761z"/>
<path style="fill:#FFA834;" d="M364.948,279.327c0.619-15.08-9.023-30.29-28.957-41.799c-38.502-22.229-100.728-22.23-138.982,0.001  c-19.064,11.079-28.571,25.59-28.55,40.111c0-0.047-0.005-0.093-0.005-0.14l-0.591,153.937  c-0.042,14.662,9.635,29.347,29.009,40.533c38.505,22.231,100.731,22.229,138.982-0.001c19.004-11.043,28.518-25.496,28.559-39.971  l0.591-153.937C365.002,278.484,364.966,278.905,364.948,279.327z"/>
<g style="enable-background:new    ;">
	<path style="fill:#F18700;" d="M365.004,278.061l-0.591,153.937c-0.041,14.475-9.554,28.927-28.559,39.971   c-38.251,22.23-100.477,22.232-138.982,0.001c-19.374-11.185-29.051-25.87-29.009-40.532l0.591-153.937   c-0.042,14.662,9.635,29.347,29.009,40.532c38.505,22.231,100.731,22.229,138.982-0.001   C355.449,306.988,364.963,292.535,365.004,278.061z"/>
	<path style="fill:#FFA834;" d="M335.991,237.528c38.505,22.231,38.708,58.272,0.453,80.504   c-38.251,22.23-100.477,22.232-138.982,0.001c-38.502-22.229-38.705-58.274-0.453-80.504   C235.264,215.297,297.489,215.299,335.991,237.528z"/>
</g>
<path style="fill:#C6C5CB;" d="M380.282,65.424h-0.016c-0.235-16.718-11.4-33.411-33.494-46.167  c-44.47-25.675-116.34-25.676-160.525,0.001c-21.949,12.755-32.923,29.449-32.97,46.167h-0.038v14.337h0.026  c0.095,16.827,11.27,33.654,33.505,46.491c44.473,25.677,116.345,25.675,160.525-0.001c22.092-12.838,33.08-29.664,32.985-46.49l0,0  V65.424H380.282z"/>
<path style="fill:#D8D8DA;" d="M346.773,19.256c44.473,25.677,44.707,67.305,0.523,92.982  c-44.181,25.675-116.051,25.678-160.525,0.001c-44.469-25.675-44.704-67.307-0.523-92.982  C230.433-6.42,302.304-6.417,346.773,19.256z"/>
<g>
	<path style="fill:#C6C5CB;" d="M322.371,35.33c0.35-8.562-5.124-17.197-16.442-23.73c-21.862-12.622-57.194-12.623-78.916,0   c-10.825,6.29-16.223,14.53-16.211,22.775c0-0.026-0.003-0.052-0.003-0.078l-0.335,22.485c-0.024,8.326,5.471,16.663,16.472,23.015   c21.863,12.623,57.196,12.621,78.915-0.001c10.792-6.27,16.193-14.477,16.216-22.696l0.336-22.485   C322.402,34.852,322.381,35.091,322.371,35.33z"/>
	<path style="fill:#C6C5CB;" d="M322.402,34.614l-0.335,22.485c-0.023,8.219-5.425,16.425-16.216,22.696   c-21.72,12.622-57.052,12.623-78.916,0c-11.002-6.352-16.496-14.689-16.472-23.015l0.335-22.485   c-0.024,8.326,5.471,16.664,16.472,23.015c21.863,12.623,57.196,12.622,78.916,0C316.977,51.039,322.379,42.832,322.402,34.614z"/>
</g>
<path style="fill:#E0E0E2;" d="M305.929,11.6c21.863,12.623,21.979,33.087,0.257,45.71c-21.72,12.622-57.052,12.623-78.916,0  c-21.862-12.622-21.977-33.088-0.257-45.711C248.735-1.024,284.067-1.023,305.929,11.6z"/>
<polygon style="fill:#FEDA44;" points="225.397,251.2 285.116,144.718 255.449,161.958 131.718,256.174 207.911,322.71   148.183,431.338 177.85,414.098 301.584,319.879 "/>
<polygon style="fill:#EEBF00;" points="271.917,337.119 301.584,319.879 177.85,414.097 148.183,431.338 "/>
<polygon style="fill:#FFEB9A;" points="195.729,268.44 225.397,251.2 301.584,319.879 271.917,337.119 "/>
<polygon style="fill:#FED322;" points="255.449,161.958 285.116,144.718 225.397,251.2 195.729,268.44 "/>
<polygon style="fill:#FEDA44;" points="271.917,337.119 148.183,431.338 207.911,322.71 131.718,256.175 255.449,161.958   195.729,268.44 "/>
<g>
</g>
<g>
</g>
<g>
</g>
<g>
</g>
<g>
</g>
<g>
</g>
<g>
</g>
<g>
</g>
<g>
</g>
<g>
</g>
<g>
</g>
<g>
</g>
<g>
</g>
<g>
</g>
<g>
</g>
</svg>
