<?xml version="1.0" encoding="iso-8859-1"?>
<!-- Generator: Adobe Illustrator 19.0.0, SVG Export Plug-In . SVG Version: 6.00 Build 0)  -->
<svg xmlns="http://www.w3.org/2000/svg" xmlns:xlink="http://www.w3.org/1999/xlink" version="1.1" id="Layer_1" x="0px" y="0px" viewBox="0 0 511.999 511.999" style="enable-background:new 0 0 511.999 511.999;" xml:space="preserve">
<path style="fill:#891D00;" d="M88.016,61.925c95.551-55.166,249.972-55.17,344.909,0.002l0.39,174.538l-173.017,99.891  L42.715,272.873l-0.39-174.538C53.808,85.206,69.025,72.889,88.016,61.925z"/>
<polygon style="fill:#AD2201;" points="42.325,98.336 42.715,272.873 260.299,336.355 259.909,161.818 "/>
<path style="fill:#CD2A01;" d="M88.016,61.925C69.025,72.889,53.808,85.206,42.325,98.336l217.584,63.481l173.017-99.891  C337.988,6.755,183.568,6.759,88.016,61.925z"/>
<g style="enable-background:new    ;">
	<path style="fill:#1A6FB0;" d="M0,125.87l0.52,220.407c0.102,35.918,23.705,71.78,70.861,99.185l173.017-99.891l-0.52-220.407   L26.294,61.691C8.529,82.018-0.228,104.299,0.016,126.54C0.014,126.316,0.001,126.094,0,125.87z"/>
	<path style="fill:#1D81CD;" d="M0,125.87l0.52,220.407c0.101,35.918,23.705,71.78,70.861,99.185l-0.52-220.407   C23.705,197.651,0.102,161.789,0,125.87z"/>
	<path style="fill:#3D99E2;" d="M26.294,61.691c-46.278,52.952-31.496,119.162,44.566,163.364l173.017-99.891L26.294,61.691z"/>
</g>
<path style="fill:#EEBF00;" d="M267.852,221.515l173.017-99.891c47.283,27.478,70.883,63.461,70.862,99.477  c0.001-0.097,0.007-0.182,0.007-0.281l0.26,128.667c0.103,36.386-23.911,72.828-71.994,100.588  c-95.558,55.17-249.979,55.166-344.909-0.002l-0.259-128.666L267.852,221.515z"/>
<path style="fill:#FECE00;" d="M94.836,321.406c94.93,55.167,249.351,55.172,344.909,0.002  c95.551-55.166,96.054-144.617,1.124-199.785l-173.017,99.891L94.836,321.406z"/>
<g>
</g>
<g>
</g>
<g>
</g>
<g>
</g>
<g>
</g>
<g>
</g>
<g>
</g>
<g>
</g>
<g>
</g>
<g>
</g>
<g>
</g>
<g>
</g>
<g>
</g>
<g>
</g>
<g>
</g>
</svg>
