<?xml version="1.0" encoding="iso-8859-1"?>
<!-- Generator: Adobe Illustrator 19.0.0, SVG Export Plug-In . SVG Version: 6.00 Build 0)  -->
<svg xmlns="http://www.w3.org/2000/svg" xmlns:xlink="http://www.w3.org/1999/xlink" version="1.1" id="Layer_1" x="0px" y="0px" viewBox="0 0 512.001 512.001" style="enable-background:new 0 0 512.001 512.001;" xml:space="preserve">
<path style="fill:#E0E0E2;" d="M268.643,260.665v-0.02h-0.002c-0.005-2.847-1.23-5.694-3.681-7.861  c-4.917-4.348-12.972-4.357-17.901-0.021c-2.465,2.168-3.699,5.026-3.7,7.882l0,0l2.011,226.809l10.626,24.545l10.579-24.545  l2.067-226.774v-0.015H268.643z"/>
<path style="fill:#D8D8DA;" d="M245.414,487.553l10.583,24.447l10.53-24.431C259.685,488.884,252.251,488.879,245.414,487.553z"/>
<path style="fill:#CD2A01;" d="M376.544,237.818v-25.086c0-0.055,0-0.109,0-0.163v-0.035h-0.001  c-0.051-17.868-11.781-35.746-35.195-49.338c-46.93-27.244-123.737-27.252-170.682-0.017  c-23.432,13.594-35.167,31.479-35.208,49.355h-0.002v25.284h0.002c-0.041,17.939,11.694,35.868,35.208,49.444  c46.946,27.104,123.752,27.112,170.682,0.017C364.865,273.702,376.594,255.765,376.544,237.818L376.544,237.818z"/>
<path style="fill:#FF3502;" d="M170.665,261.979c-46.946-27.104-46.946-71.564,0-98.799s123.752-27.229,170.682,0.017  s46.93,71.705,0,98.799C294.418,289.09,217.611,289.082,170.665,261.979z"/>
<path style="fill:#AD2201;" d="M313.39,48.141v-0.059h-0.009c-0.026-8.482-5.586-16.967-16.708-23.423  c-22.317-12.954-58.885-12.981-81.262-0.062c-11.19,6.461-16.791,14.974-16.798,23.486h-0.001v164.512h0.001  c-0.007,8.508,5.572,17.013,16.743,23.462c22.348,12.902,58.915,12.929,81.263,0.062c11.21-6.455,16.796-14.988,16.769-23.524h0.002  V48.187C313.39,48.172,313.391,48.157,313.39,48.141z"/>
<path style="fill:#CD2A01;" d="M339.165,48.142c-0.035-12.328-8.127-24.662-24.281-34.04C282.506-4.696,229.514-4.7,197.125,14.09  c-16.166,9.379-24.261,21.718-24.289,34.052h-0.003v15.802h0.003c-0.028,12.376,8.067,24.746,24.289,34.113  c32.39,18.699,85.381,18.705,117.759,0.012c16.189-9.347,24.284-21.689,24.284-34.044V48.142H339.165z"/>
<path style="fill:#FF3502;" d="M197.126,82.255c-32.39-18.699-32.39-49.374,0-68.165s85.381-18.786,117.759,0.012  c32.378,18.796,32.378,49.471,0,68.165C282.506,100.96,229.514,100.954,197.126,82.255z"/>
<g>
</g>
<g>
</g>
<g>
</g>
<g>
</g>
<g>
</g>
<g>
</g>
<g>
</g>
<g>
</g>
<g>
</g>
<g>
</g>
<g>
</g>
<g>
</g>
<g>
</g>
<g>
</g>
<g>
</g>
</svg>
