<?xml version="1.0" encoding="iso-8859-1"?>
<!-- Generator: Adobe Illustrator 19.0.0, SVG Export Plug-In . SVG Version: 6.00 Build 0)  -->
<svg xmlns="http://www.w3.org/2000/svg" xmlns:xlink="http://www.w3.org/1999/xlink" version="1.1" id="Layer_1" x="0px" y="0px" viewBox="0 0 512 512" style="enable-background:new 0 0 512 512;" xml:space="preserve">
<path style="fill:#D8D8DA;" d="M299.794,68.018c-44.883-25.913-85.549-28.318-114.912-11.254l-86.529,50.705  c0.094-0.054,0.19-0.103,0.284-0.158c-29.153,16.778-47.245,52.659-47.391,103.734c-0.29,102.488,71.774,227.31,160.966,278.805  c45.442,26.236,86.554,28.359,115.998,10.587c-0.366,0.22-0.725,0.451-1.094,0.666l86.529-50.705  c28.989-16.847,46.964-52.669,47.109-103.586C461.044,244.33,388.978,119.508,299.794,68.018z"/>
<g style="enable-background:new    ;">
	<path style="fill:#FFFFFF;" d="M358.631,219.214c62.919,108.978,62.585,226.577-0.745,262.665   c-31.664,18.044-73.081,12.296-114.448-11.587c-41.367-23.883-82.682-65.9-114.14-120.388   c-62.917-108.977-62.583-226.576,0.746-262.665c31.664-18.044,73.082-12.295,114.448,11.588S327.173,164.726,358.631,219.214z"/>
</g>
<path style="fill:#77767E;" d="M324.814,242.105c-2.112-1.219-4.225-1.511-5.84-0.586c-3.222,1.846-3.231,7.841-0.021,13.39  c1.602,2.769,3.702,4.904,5.805,6.118c2.112,1.219,4.226,1.511,5.84,0.586c3.222-1.846,3.231-7.841,0.021-13.39  C329.018,245.455,326.917,243.32,324.814,242.105 M170.298,153.095c-2.111-1.219-4.226-1.511-5.839-0.586  c-3.222,1.846-3.231,7.841-0.029,13.386c1.604,2.773,3.708,4.912,5.815,6.128c2.11,1.218,4.222,1.511,5.839,0.59  c3.222-1.846,3.231-7.841,0.022-13.39C174.506,156.449,172.404,154.311,170.298,153.095 M356.687,349.359  c-0.005-0.003-0.009-0.005-0.016-0.008c-4.555-2.62-8.247-0.496-8.255,4.732c-0.006,5.222,3.671,11.579,8.21,14.2  c0.005,0.003,0.01,0.005,0.016,0.008c4.546,2.615,8.239,0.501,8.246-4.727C364.895,358.332,361.225,351.979,356.687,349.359   M138.117,223.461c-0.005-0.003-0.01-0.005-0.016-0.008c-4.555-2.629-8.247-0.515-8.262,4.708  c-0.015,5.223,3.662,11.593,8.217,14.223c4.546,2.615,8.239,0.501,8.255-4.723C146.324,232.444,142.655,226.081,138.117,223.461   M324.568,419.803c-2.112-1.219-4.223-1.51-5.834-0.582c-3.222,1.856-3.231,7.85-0.022,13.4c1.605,2.765,3.706,4.898,5.809,6.112  c2.114,1.22,4.229,1.513,5.845,0.587c3.214-1.86,3.222-7.854,0.014-13.395C328.773,423.153,326.671,421.017,324.568,419.803   M169.885,330.7c-2.11-1.218-4.222-1.511-5.839-0.59c-3.222,1.836-3.239,7.826-0.029,13.386c1.6,2.77,3.704,4.91,5.811,6.126  c2.11,1.218,4.222,1.511,5.835,0.587c3.222-1.837,3.239-7.826,0.038-13.381C174.096,334.055,171.992,331.917,169.885,330.7   M247.3,412.214c-0.01-0.006-0.02-0.011-0.03-0.018c-0.036-0.021-0.071-0.04-0.107-0.06c-0.041-0.025-0.083-0.049-0.123-0.073  c-4.555-2.629-8.247-0.525-8.262,4.708c-0.015,5.223,3.655,11.589,8.209,14.218c0.042,0.024,0.083,0.047,0.124,0.07  c0.042,0.025,0.083,0.049,0.124,0.073c0.005,0.003,0.01,0.005,0.016,0.008c4.546,2.606,8.239,0.491,8.246-4.746  C255.501,421.179,251.831,414.83,247.3,412.214 M247.626,160.828c-0.005-0.003-0.01-0.006-0.016-0.008  c-4.546-2.625-8.239-0.511-8.246,4.727c-0.015,5.223,3.662,11.584,8.217,14.214c4.546,2.615,8.239,0.501,8.255-4.732  C255.843,169.806,252.173,163.453,247.626,160.828"/>
<path style="fill:#CD2A01;" d="M351.014,210.139l-6.413,3.727l-88.097,55.053c-1.935-1.875-3.95-3.421-5.963-4.584  c-4.794-2.768-9.566-3.394-13.161-1.304l-6.413,3.727c0.113-0.066,0.23-0.12,0.345-0.181c-0.422,0.22-0.832,0.469-1.221,0.762  c-6.712,5.031-5.89,18.972,1.826,31.117c3.491,5.494,7.795,9.684,12.082,12.159c4.832,2.79,9.64,3.4,13.248,1.258  c-0.024,0.014-0.045,0.032-0.069,0.046l6.414-3.727c0.298-0.173,0.588-0.366,0.869-0.576c5.143-3.864,5.856-12.954,2.438-22.457  L351.014,210.139z M242.275,278.877c0.599,0.193,1.209,0.466,1.82,0.818c1.943,1.122,3.895,3.022,5.477,5.511  c2.389,3.757,3.314,7.888,2.697,10.858c-0.6-0.193-1.21-0.461-1.822-0.814c-1.941-1.121-3.89-3.018-5.471-5.504  C242.587,285.984,241.658,281.85,242.275,278.877z"/>
<g style="enable-background:new    ;">
	<g>
		<path style="fill:#FF3502;" d="M238.125,279.105l6.412-3.727c-0.135,0.078-0.266,0.165-0.394,0.261    c-3.039,2.284-2.667,8.597,0.833,14.108c1.581,2.487,3.53,4.383,5.472,5.504c2.172,1.255,4.337,1.538,5.966,0.591l-6.413,3.727    c-1.63,0.947-3.794,0.664-5.966-0.59c-1.941-1.121-3.89-3.018-5.472-5.504c-3.499-5.511-3.871-11.823-0.833-14.108    C237.858,279.271,237.989,279.183,238.125,279.105z"/>
		<path style="fill:#FF3502;" d="M230.966,266.758l6.412-3.727c3.596-2.09,8.368-1.464,13.161,1.304    c2.075,1.198,4.154,2.797,6.144,4.751l-6.412,3.727c-1.989-1.954-4.069-3.554-6.144-4.751    C239.333,265.294,234.561,264.668,230.966,266.758z"/>
	</g>
	<g>
		<path style="fill:#AD2201;" d="M263.59,308.191l-6.414,3.727c0.298-0.173,0.588-0.365,0.869-0.576    c5.143-3.864,5.856-12.954,2.438-22.457l6.412-3.727c3.418,9.502,2.705,18.593-2.438,22.457    C264.179,307.827,263.888,308.018,263.59,308.191z"/>
		<polygon style="fill:#AD2201;" points="344.6,213.866 351.014,210.139 266.897,285.159 260.484,288.886   "/>
	</g>
	<path style="fill:#CD2A01;" d="M344.6,213.866l-84.116,75.02c3.418,9.502,2.705,18.593-2.438,22.457   c-3.678,2.756-8.851,2.273-14.048-0.728c-4.287-2.475-8.592-6.665-12.082-12.159c-7.716-12.145-8.538-26.086-1.826-31.117   c3.675-2.761,8.844-2.277,14.038,0.722c2.075,1.198,4.154,2.797,6.144,4.751L344.6,213.866z M250.4,299.305   c3.039-2.284,2.672-8.594-0.828-14.098c-1.583-2.49-3.534-4.389-5.477-5.511c-2.354-1.358-4.698-1.579-6.364-0.33   c-3.039,2.284-2.667,8.597,0.833,14.108c1.581,2.487,3.53,4.383,5.472,5.504C246.39,300.338,248.734,300.557,250.4,299.305"/>
</g>
<path style="fill:#D8D8DA;" d="M299.794,68.018c-44.883-25.913-85.549-28.318-114.912-11.254l-86.529,50.705  c0.093-0.054,0.19-0.103,0.283-0.157c-29.152,16.778-47.244,52.659-47.39,103.734c-0.29,102.488,71.774,227.31,160.966,278.805  c45.441,26.236,86.552,28.359,115.996,10.588c-0.365,0.22-0.723,0.45-1.092,0.665l86.529-50.705  c28.989-16.847,46.964-52.669,47.109-103.586C461.044,244.33,388.978,119.508,299.794,68.018z M319.486,451.256  c-21.283,5.034-47.25,0.23-75.257-15.941c-71.895-41.509-129.977-142.119-129.743-224.731c0.09-31.665,8.741-56.08,23.421-71.823  c21.281-5.031,47.249-0.22,75.255,15.949c71.889,41.505,129.977,142.119,129.743,224.725  C342.817,411.1,334.164,435.512,319.486,451.256z"/>
<g style="enable-background:new    ;">
	<path style="fill:#C6C5CB;" d="M120.542,145.638l31.915-18.547c-23.367,13.579-37.854,42.455-37.97,83.493   c-0.234,82.614,57.847,183.222,129.742,224.731l-31.915,18.547C140.42,412.354,82.338,311.744,82.572,229.131   C82.689,188.093,97.176,159.217,120.542,145.638z"/>
	<g>
		<path style="fill:#E0E0E2;" d="M336.849,444.386l-31.915,18.547c-23.668,13.755-56.445,11.816-92.619-9.07l31.915-18.547    C280.405,456.201,313.181,458.139,336.849,444.386z"/>
		<path style="fill:#E0E0E2;" d="M98.353,107.468l86.529-50.705c29.364-17.064,70.029-14.659,114.912,11.254l-86.529,50.705    C168.382,92.81,127.716,90.404,98.353,107.468z"/>
	</g>
	<path style="fill:#C6C5CB;" d="M413.645,450.397l-86.529,50.705c28.989-16.847,46.964-52.669,47.109-103.586   c0.29-102.481-71.774-227.303-160.96-278.794l86.529-50.705c89.185,51.491,161.251,176.313,160.96,278.794   C460.608,397.726,442.634,433.55,413.645,450.397z"/>
	<path style="fill:#D8D8DA;" d="M213.265,118.723c89.185,51.491,161.251,176.313,160.96,278.794   c-0.29,102.488-72.826,143.824-162.012,92.333C123.021,438.355,50.956,313.533,51.246,211.044   C51.537,108.564,124.073,67.228,213.265,118.723z M212.315,453.863c71.889,41.505,130.358,8.186,130.592-74.428   c0.234-82.606-57.854-183.219-129.743-224.725c-71.895-41.509-130.356-8.186-130.591,74.421   C82.338,311.744,140.42,412.354,212.315,453.863"/>
</g>
<path style="fill:#E0E0E2;" d="M430.999,202.61c-2.297-23.298-21.388-49.926-42.636-59.479c-10.591-4.762-19.719-4.38-25.929,0.083  c0.02-0.014,0.038-0.03,0.056-0.044l-22.532,16.054c-6.287,4.479-9.602,13.123-8.447,24.844  c2.297,23.298,21.389,49.935,42.637,59.487c10.556,4.746,19.661,4.383,25.868-0.041l22.532-16.054  c-0.182,0.13-0.375,0.244-0.562,0.367C428.634,223.467,432.189,214.673,430.999,202.61z"/>
<g style="enable-background:new    ;">
	<path style="fill:#D8D8DA;" d="M422.55,227.461l-22.532,16.054c-6.208,4.423-15.313,4.786-25.868,0.041   c-21.249-9.552-40.341-36.188-42.637-59.487c-1.156-11.721,2.16-20.365,8.447-24.844l22.532-16.054   c-6.286,4.479-9.602,13.123-8.447,24.844c2.298,23.298,21.389,49.935,42.638,59.487   C407.237,232.246,416.342,231.884,422.55,227.461z"/>
	<path style="fill:#E0E0E2;" d="M430.999,202.61c2.298,23.298-13.069,34.444-34.318,24.891   c-21.249-9.552-40.341-36.188-42.638-59.487c-2.298-23.298,13.07-34.435,34.319-24.883   C409.611,152.684,428.702,179.311,430.999,202.61z"/>
</g>
<g>
	<path style="fill:#D8D8DA;" d="M291.46,28.216c0.299-7.278-4.353-14.618-13.973-20.173c-18.58-10.727-48.604-10.724-67.063,0.003   c-9.201,5.347-13.79,12.349-13.781,19.358c0-0.022-0.003-0.044-0.002-0.067l-0.195,55.301c-0.02,7.074,4.649,14.158,13.996,19.555   c18.58,10.728,48.609,10.728,67.069,0c9.17-5.329,13.76-12.303,13.78-19.289l0.195-55.301   C291.486,27.807,291.468,28.011,291.46,28.216z"/>
	<path style="fill:#D8D8DA;" d="M291.487,27.604l-0.195,55.3c-0.02,6.985-4.61,13.96-13.78,19.289   c-18.46,10.728-48.489,10.728-67.069,0c-9.349-5.397-14.016-12.481-13.996-19.555l0.195-55.3   c-0.02,7.074,4.649,14.157,13.996,19.555c18.58,10.728,48.609,10.727,67.069,0C286.876,41.563,291.467,34.589,291.487,27.604z"/>
</g>
<path style="fill:#E0E0E2;" d="M277.486,8.044c18.58,10.728,18.678,28.121,0.219,38.849c-18.46,10.728-48.489,10.728-67.069,0  c-18.58-10.727-18.672-28.118-0.213-38.846C228.884-2.68,258.907-2.683,277.486,8.044z"/>
<g>
</g>
<g>
</g>
<g>
</g>
<g>
</g>
<g>
</g>
<g>
</g>
<g>
</g>
<g>
</g>
<g>
</g>
<g>
</g>
<g>
</g>
<g>
</g>
<g>
</g>
<g>
</g>
<g>
</g>
</svg>
