<?xml version="1.0" encoding="iso-8859-1"?>
<!-- Generator: Adobe Illustrator 19.0.0, SVG Export Plug-In . SVG Version: 6.00 Build 0)  -->
<svg xmlns="http://www.w3.org/2000/svg" xmlns:xlink="http://www.w3.org/1999/xlink" version="1.1" id="Layer_1" x="0px" y="0px" viewBox="0 0 512 512" style="enable-background:new 0 0 512 512;" xml:space="preserve">
<polygon style="fill:#1A6FB0;" points="316.828,175.606 227.438,0 183.302,25.649 93.217,97.635 145.041,127.555 145.041,266.97   220.869,310.749 265.004,285.101 264.86,196.733 272.694,201.255 "/>
<g style="enable-background:new    ;">
	<polygon style="fill:#155C92;" points="220.869,171.335 265.004,145.686 265.004,285.101 220.869,310.749  "/>
	<polygon style="fill:#1D81CD;" points="183.303,25.649 227.438,0 316.828,175.607 272.694,201.255  "/>
	<polygon style="fill:#1A6FB0;" points="183.303,25.649 272.694,201.255 220.869,171.335 220.869,310.749 145.041,266.97    145.041,127.555 93.217,97.635  "/>
</g>
<polygon style="fill:#8FCC05;" points="366.959,384.449 367.354,245.034 291.525,201.255 246.996,226.904 247.14,315.272   239.306,310.749 195.172,336.398 284.555,512 328.69,486.351 418.783,414.37 "/>
<g style="enable-background:new    ;">
	<g>
		<polygon style="fill:#9AD707;" points="195.172,336.398 239.306,310.749 291.131,340.669 246.996,366.318   "/>
		<polygon style="fill:#9AD707;" points="322.824,410.098 366.959,384.449 418.783,414.37 374.648,440.018   "/>
	</g>
	<polygon style="fill:#7AAB02;" points="374.648,440.018 418.783,414.37 328.69,486.351 284.555,512  "/>
	<polygon style="fill:#86BC06;" points="322.824,270.683 367.354,245.036 366.959,384.449 322.824,410.098  "/>
	<polygon style="fill:#9AD707;" points="246.996,226.904 291.525,201.255 367.354,245.036 322.824,270.683  "/>
	<polygon style="fill:#8FCC05;" points="322.824,270.683 322.824,410.098 374.648,440.018 284.555,512 195.172,336.398    246.996,366.318 246.996,226.904  "/>
</g>
<g>
</g>
<g>
</g>
<g>
</g>
<g>
</g>
<g>
</g>
<g>
</g>
<g>
</g>
<g>
</g>
<g>
</g>
<g>
</g>
<g>
</g>
<g>
</g>
<g>
</g>
<g>
</g>
<g>
</g>
</svg>
