<?xml version="1.0" encoding="iso-8859-1"?>
<!-- Generator: Adobe Illustrator 19.0.0, SVG Export Plug-In . SVG Version: 6.00 Build 0)  -->
<svg xmlns="http://www.w3.org/2000/svg" xmlns:xlink="http://www.w3.org/1999/xlink" version="1.1" id="Layer_1" x="0px" y="0px" viewBox="0 0 512 512" style="enable-background:new 0 0 512 512;" xml:space="preserve">
<g>
	<path style="fill:#EEBF00;" d="M511.967,201.394c0.752-38.641-24.417-77.461-75.488-106.947   c-97.916-56.531-259.891-59.2-361.763,0.002C25.087,123.29,0.329,161.061,0.381,198.86c0-0.121-0.007-0.241-0.006-0.363L0,312.058   c-0.109,38.163,25.08,76.384,75.513,105.501c100.228,57.866,262.203,57.865,361.779-0.002   c49.467-28.746,74.226-66.365,74.334-104.04L512,199.957C511.998,200.437,511.976,200.915,511.967,201.394z"/>
	<path style="fill:#EEBF00;" d="M512,199.957l-0.374,113.56c-0.107,37.676-24.868,75.294-74.334,104.04   c-99.576,57.867-261.552,57.867-361.779,0.002C25.08,388.441-0.107,350.221,0,312.058l0.374-113.559   C0.267,236.66,25.454,274.882,75.888,304c100.228,57.866,262.202,57.865,361.779-0.002   C487.133,275.252,511.893,237.633,512,199.957z"/>
</g>
<path style="fill:#FEDA44;" d="M436.292,94.447c100.228,57.866,100.764,151.684,1.187,209.551  C337.904,361.865,175.928,361.865,75.7,304S-25.047,152.315,74.529,94.449C176.401,35.247,338.376,37.915,436.292,94.447z"/>
<g>
	<path style="fill:#3E3D43;" d="M210.959,141.385c18.713,10.804,48.962,10.807,67.56,0c9.235-5.367,13.856-12.389,13.876-19.425   l0.061-21.294c-0.001,0.204-0.019,0.408-0.027,0.611c0.299-7.33-4.389-14.724-14.076-20.317c-18.713-10.804-48.956-10.804-67.547,0   c-9.269,5.387-13.892,12.441-13.883,19.499c0-0.022-0.003-0.045-0.003-0.067l-0.061,21.294   C196.839,128.812,201.542,135.948,210.959,141.385z"/>
	<path style="fill:#3E3D43;" d="M431.735,181.705c0.3-7.329-4.385-14.721-14.073-20.314c-18.713-10.804-48.962-10.808-67.554-0.003   c-9.269,5.386-13.89,12.441-13.879,19.5c0-0.023-0.003-0.046-0.003-0.07l-0.061,21.294c-0.02,7.128,4.684,14.267,14.102,19.704   c18.713,10.804,48.956,10.804,67.554-0.004c9.236-5.368,13.86-12.391,13.879-19.427l0.061-21.294   C431.762,181.295,431.744,181.5,431.735,181.705z"/>
	<path style="fill:#3E3D43;" d="M336.394,264.606c-0.315-2.244-2.012-4.235-4.57-5.712c-3.136-1.811-7.564-2.848-12.32-2.634   c-21.101,0.948-42.419-0.181-62.864-3.269c-20.438-3.086-39.99-8.123-57.59-14.952c-10.23-3.963-19.764-8.509-28.457-13.527   c-22.109-12.764-38.802-28.622-47.916-45.916c-4.152-7.867-6.75-16.01-7.786-24.214l0.048-16.92   c-0.001,0.222-0.016,0.445-0.044,0.669c0.354-2.752-1.452-5.314-4.589-7.125c-2.557-1.476-5.998-2.454-9.875-2.631   c-8.627-0.389-16.147,3.347-16.797,8.347c-0.506,3.934-0.695,7.879-0.574,11.821c-0.026-0.836-0.039-1.672-0.037-2.508   l-0.061,21.294c-0.037,12.782,3.217,25.561,9.674,37.813c10.687,20.252,30.088,38.656,55.806,53.504   c10.121,5.843,21.216,11.135,33.164,15.769c20.613,7.992,43.394,13.85,67.166,17.44c23.772,3.589,48.556,4.914,73.208,3.806   c8.184-0.369,14.393-4.319,14.407-8.998l0.061-21.294c0,0.03-0.007,0.059-0.007,0.089   C336.443,265.174,336.433,264.891,336.394,264.606z"/>
</g>
<g style="enable-background:new    ;">
	<path style="fill:#1D1D1F;" d="M292.455,100.666l-0.061,21.294c-0.02,7.034-4.641,14.058-13.876,19.425   c-18.598,10.808-48.847,10.804-67.56,0c-9.416-5.437-14.119-12.572-14.099-19.697l0.061-21.294   c-0.02,7.126,4.683,14.262,14.099,19.697c18.713,10.804,48.962,10.807,67.56,0C287.813,114.724,292.435,107.7,292.455,100.666z"/>
	<path style="fill:#3E3D43;" d="M278.352,80.96c18.713,10.804,18.819,28.325,0.227,39.129c-18.598,10.808-48.847,10.804-67.56,0   s-18.811-28.322-0.213-39.129C229.397,70.157,259.639,70.157,278.352,80.96z"/>
</g>
<g style="enable-background:new    ;">
	<path style="fill:#1D1D1F;" d="M431.763,181.091l-0.061,21.294c-0.02,7.035-4.644,14.059-13.879,19.427   c-18.598,10.808-48.841,10.808-67.554,0.004c-9.418-5.438-14.122-12.575-14.102-19.704l0.061-21.294   c-0.02,7.128,4.684,14.266,14.102,19.704c18.713,10.804,48.956,10.804,67.554-0.004   C427.119,195.15,431.742,188.126,431.763,181.091z"/>
	<path style="fill:#3E3D43;" d="M417.663,161.391c18.713,10.804,18.811,28.322,0.22,39.126   c-18.598,10.808-48.841,10.808-67.554,0.004c-18.713-10.804-18.819-28.325-0.22-39.134   C368.701,150.584,398.95,150.587,417.663,161.391z"/>
	<path style="fill:#2E2E30;" d="M114.937,137.459l-0.061,21.294c-0.001,0.222-0.016,0.445-0.044,0.669   c-0.343,2.659-0.517,5.326-0.525,7.995l0.061-21.294c0.007-2.668,0.182-5.335,0.525-7.995   C114.922,137.904,114.937,137.681,114.937,137.459z"/>
	<path style="fill:#1D1D1F;" d="M336.445,265.365l-0.061,21.294c-0.014,4.679-6.223,8.628-14.407,8.998   c-24.65,1.11-49.434-0.215-73.208-3.806c-23.772-3.59-46.554-9.448-67.166-17.44c-11.948-4.633-23.043-9.925-33.164-15.769   c-25.718-14.848-45.119-33.252-55.806-53.504c-6.456-12.252-9.709-25.031-9.674-37.813l0.061-21.294   c-0.037,12.783,3.217,25.561,9.674,37.813c10.687,20.252,30.088,38.656,55.806,53.504c10.121,5.843,21.216,11.135,33.164,15.769   c20.613,7.992,43.394,13.85,67.166,17.44c23.772,3.589,48.556,4.914,73.208,3.806C330.222,273.994,336.432,270.044,336.445,265.365   z"/>
	<path style="fill:#3E3D43;" d="M331.822,258.894c2.558,1.476,4.256,3.468,4.57,5.712c0.7,5.003-5.732,9.367-14.355,9.756   c-24.65,1.11-49.434-0.215-73.208-3.806c-23.772-3.59-46.554-9.448-67.166-17.44c-11.948-4.633-23.043-9.925-33.164-15.769   c-25.718-14.848-45.119-33.252-55.806-53.504c-8.025-15.229-11.101-31.272-9.062-47.126c0.65-5,8.17-8.735,16.797-8.347   c3.878,0.177,7.318,1.155,9.875,2.631c3.137,1.812,4.943,4.374,4.589,7.125c-1.752,13.6,0.892,27.413,7.782,40.466   c9.115,17.294,25.808,33.151,47.916,45.916c8.693,5.019,18.227,9.564,28.457,13.527c17.6,6.829,37.151,11.867,57.59,14.952   c20.446,3.089,41.764,4.217,62.864,3.269C324.259,256.045,328.687,257.083,331.822,258.894z"/>
</g>
<g>
</g>
<g>
</g>
<g>
</g>
<g>
</g>
<g>
</g>
<g>
</g>
<g>
</g>
<g>
</g>
<g>
</g>
<g>
</g>
<g>
</g>
<g>
</g>
<g>
</g>
<g>
</g>
<g>
</g>
</svg>
