<?xml version="1.0" encoding="iso-8859-1"?>
<!-- Generator: Adobe Illustrator 19.0.0, SVG Export Plug-In . SVG Version: 6.00 Build 0)  -->
<svg xmlns="http://www.w3.org/2000/svg" xmlns:xlink="http://www.w3.org/1999/xlink" version="1.1" id="Layer_1" x="0px" y="0px" viewBox="0 0 512 512" style="enable-background:new 0 0 512 512;" xml:space="preserve">
<path style="fill:#FF5023;" d="M456.479,252.292c-0.01-1.67-0.036-3.898-0.152-5.563c-0.193-2.783-0.459-6.498-0.877-9.254  c-0.417-2.751-1.051-6.409-1.654-9.125c-0.551-2.482-1.47-5.748-2.188-8.188c-1.012-3.442-3.211-9.185-4.358-11.644  c-1.236-2.652-2.95-6.158-4.335-8.734c-1.023-1.902-2.522-4.365-3.688-6.183c-1.071-1.67-2.537-3.873-3.728-5.459  c-1.897-2.526-4.532-5.816-6.558-8.24c-1.26-1.507-3.062-3.411-4.423-4.827c-1.312-1.364-3.09-3.157-4.486-4.434  c-2.556-2.336-6.05-5.355-8.714-7.567c-1.506-1.251-3.599-2.814-5.177-3.971c-1.572-1.153-3.679-2.68-5.313-3.743  c-3.206-2.087-7.535-4.785-10.814-6.754c-0.467-0.27-0.953-0.468-1.451-0.612c0.498,0.143,0.984,0.342,1.45,0.612  c-21.953-12.654-42.466-18.711-50.189-20.992c-0.998-0.295-6.339-1.85-13.528-3.539c-6.666-1.565-12.047-2.558-13.816-2.884  c-3.11-0.573-8.07-1.426-14.047-2.237c-7.66-1.038-13.961-1.573-14.225-1.595c-4.296-0.361-10.029-0.812-14.338-0.955  c-2.158-0.072-5.036-0.191-7.195-0.238c-2.16-0.048-5.042-0.055-7.202-0.079c-2.16-0.024-5.042,0.055-7.202,0.079  c-0.058,0.001-6.432,0.107-14.373,0.637c-5.326,0.356-5.832,0.408-14.28,1.275c-0.539,0.055-13.36,1.391-28.051,4.479  c-2.127,0.447-7.106,1.493-13.659,3.215c-5.46,1.435-7.13,1.952-13.343,3.878c-1.303,0.404-13.087,4.11-25.536,9.81  c-2.282,1.045-6.528,2.99-12.1,5.984c-1.728,0.929-4.014,2.201-5.709,3.188c-1.769,1.03-4.091,2.466-5.835,3.536  c-1.602,0.984-3.685,2.379-5.235,3.442c-1.649,1.132-3.801,2.709-5.425,3.876c-1.652,1.187-3.793,2.859-5.344,4.174  c-2.621,2.223-6.106,5.208-8.572,7.603c-3.624,3.519-4.71,4.741-8.309,8.789c-1.375,1.548-3.076,3.725-4.344,5.362  c-0.955,1.233-2.146,2.939-3.061,4.201c-1.287,1.777-2.866,4.245-3.976,6.139c-0.759,1.296-1.787,3.016-2.484,4.346  c-1.103,2.102-2.498,4.944-3.516,7.089c-1.124,2.369-2.352,5.65-3.269,8.106c-0.997,2.67-2.075,6.321-2.795,9.078  c-0.707,2.704-1.487,6.352-1.957,9.108c-0.47,2.751-0.941,6.448-1.172,9.228c-0.238,2.867-0.336,6.705-0.39,9.581l-0.021,7.411  c0.023,3.764,0.153,6.437,0.494,10.216c0.249,2.75,0.72,6.41,1.254,9.119c0.272,1.384,0.601,3.238,0.936,4.609  c0.603,2.47,1.478,5.746,2.189,8.188c0.797,2.736,2.119,6.308,3.208,8.941c0.896,2.165,2.136,5.037,3.219,7.116  c0.976,1.874,2.29,4.365,3.331,6.203c0.746,1.315,1.79,3.041,2.624,4.302c1.094,1.654,2.572,3.847,3.728,5.459  c0.915,1.277,2.194,2.938,3.17,4.169c2.446,3.079,4.928,5.907,7.812,8.896c5.404,5.603,11.587,10.976,18.379,15.972  c3.416,2.513,6.783,4.793,10.597,7.175c6.169,3.854,11.45,6.603,11.502,6.631c1.761,0.914,4.107,2.135,5.888,3.009  c1.842,0.903,4.319,2.069,6.188,2.914c6.708,3.035,12.499,5.198,12.553,5.218c6.347,2.333,9.245,3.397,12.979,4.533  c1.995,0.608,4.642,1.467,6.652,2.021c2.01,0.553,4.682,1.316,6.699,1.844c2.037,0.532,4.758,1.224,6.81,1.688  c4.01,0.903,9.502,2.142,13.803,2.88c2.097,0.36,4.884,0.887,6.989,1.197c2.115,0.312,4.931,0.751,7.05,1.037  c2.124,0.288,4.96,0.637,7.089,0.876c7.649,0.863,14.227,1.27,14.286,1.275c2.154,0.119,5.024,0.326,7.181,0.398  c2.158,0.072,5.036,0.191,7.195,0.238c2.16,0.048,5.042,0.055,7.204,0.079c4.32,0.048,10.077-0.175,14.395-0.319  c2.156-0.071,5.025-0.278,7.18-0.398c3.734-0.207,5.55-0.391,14.28-1.275c0.526-0.053,13.06-1.341,28.051-4.479  c2.059-0.431,4.796-1.038,6.844-1.52c2.051-0.483,4.771-1.186,6.816-1.695c2.018-0.502,4.676-1.291,6.681-1.846  c3.778-1.046,7.709-2.372,13.149-4.207c0.055-0.019,5.819-1.989,12.92-4.96c3.689-1.543,8.533-3.782,12.133-5.522  c0.225-0.109,5.568-2.699,11.809-6.328c3.909-2.274,7.633-4.622,11.069-6.979c9.19-6.304,14.934-11.451,19.341-15.654  c0.437-0.417,4.387-4.208,8.308-8.789c3.43-4.006,5.183-6.458,7.403-9.564c1.276-1.785,2.824-4.27,3.976-6.138  c0.787-1.279,1.743-3.04,2.484-4.346c1.172-2.064,2.568-4.911,3.514-7.087c2.525-5.801,2.823-6.708,4.765-12.606  c0.878-2.671,1.783-6.318,2.367-9.067c0.293-1.379,0.682-3.222,0.89-4.617c0.411-2.761,0.883-6.455,1.173-9.231  c0.201-1.917,0.282-4.27,0.331-6.483c0.042-1.032,0.065-2.065,0.06-3.097L456.479,252.292z M386.834,147.757  c0.239-0.002,0.478,0,0.712,0.025C387.313,147.757,387.073,147.754,386.834,147.757z M162.803,254.509  c0.068-0.077,0.147-0.168,0.233-0.265c1.023-1.082,2.323-2.456,3.517-3.562c0.134-0.122,0.269-0.246,0.409-0.371  c0.111-0.098,0.223-0.2,0.33-0.292c2.241-1.915,5.353-4.332,7.818-5.947c2.859-1.872,6.796-4.117,9.891-5.683  c0.353-0.179,0.7-0.351,1.024-0.509c1.618-0.786,3.696-1.765,5.509-2.522c0.223-0.091,0.444-0.181,0.656-0.262  c4.147-1.605,9.709-3.678,13.979-4.928c0.069-0.02,0.137-0.04,0.207-0.061c0.135-0.039,0.273-0.079,0.412-0.12  c2.458-0.71,4.973-1.366,7.527-1.966c1.768-0.374,3.943-0.86,5.923-1.266c0.685-0.135,1.368-0.277,2.056-0.403  c0.005-0.001,0.012-0.002,0.017-0.003c3.026-0.555,6.699-1.105,10.231-1.549c0.049-0.006,0.1-0.013,0.15-0.019  c2.112-0.264,4.17-0.488,6.004-0.652c2.445-0.163,5.671-0.431,8.165-0.548c3.779-0.174,6.825-0.204,8.689-0.199l0,0  c4.995,0.11,11.631,0.294,16.651,0.731c0.259,0.023,0.518,0.045,0.78,0.069c1.909,0.179,4.182,0.428,6.191,0.679  c0.53,0.067,1.06,0.134,1.6,0.208c2.403,0.327,5.543,0.876,7.949,1.265c0.117,0.021,0.23,0.04,0.347,0.061  c2.985,0.551,6.58,1.336,9.985,2.177c1.801,0.466,3.73,0.998,5.317,1.413c0.073,0.021,0.155,0.043,0.227,0.064  c2.112,0.614,3.785,1.13,5.331,1.646c0.654,0.221,1.283,0.437,1.859,0.639c0.017,0.006,0.034,0.013,0.052,0.018  c0.005,0.002,0.011,0.004,0.018,0.006c2.098,0.746,4.195,1.566,7.14,2.719c1.945,0.815,4.379,1.961,6.26,2.81  c0.284,0.138,0.56,0.272,0.824,0.402c1.779,0.873,4.097,2.142,5.823,3.114c2.739,1.628,6.26,4.006,8.864,5.857  c0.104,0.079,0.208,0.157,0.312,0.237c1.428,1.104,2.64,2.124,3.688,3.062c0.434,0.407,0.954,0.877,1.45,1.345  c0.208,0.2,0.413,0.398,0.603,0.589c0.104,0.105,0.214,0.211,0.307,0.312c0.94,1.007,2.1,2.311,3.058,3.476  c-0.993,1.209-2.312,2.621-3.344,3.698c-0.635,0.663-1.537,1.494-2.238,2.086c-2.18,1.84-5.173,4.21-7.569,5.758  c-3.635,2.351-5.771,3.636-11.068,6.293c-1.925,0.965-4.557,2.12-6.547,2.945c-2.034,0.843-4.802,1.827-6.861,2.61  c-2.158,0.821-5.116,1.694-7.335,2.334c-4.581,1.324-10.806,2.658-15.474,3.632c-2.433,0.508-5.713,1.023-8.183,1.304  c-10.754,1.226-10.754,1.226-16.673,1.488c-2.533,0.112-5.913,0.187-8.448,0.187c-2.538,0-5.919-0.131-8.456-0.187  c-2.543-0.056-5.933-0.281-8.46-0.566c-4.943-0.555-11.519-1.438-16.43-2.228c-2.434-0.392-5.644-1.118-8.045-1.681  c-2.31-0.542-5.357-1.401-7.652-2.003c-2.314-0.606-5.337-1.636-7.596-2.426c-2.338-0.818-5.444-1.953-7.7-2.975  c-3.663-1.658-8.464-4.054-12.009-5.95c-0.248-0.138-6.13-3.425-11.5-7.966c-1.512-1.278-3.43-3.101-4.785-4.544  c-0.634-0.674-1.343-1.524-2.008-2.368c0.128-0.162,0.255-0.322,0.387-0.485C162.401,254.977,162.609,254.731,162.803,254.509z   M160.212,249.332L160.212,249.332c0.064-0.203,0.123-0.407,0.191-0.61C160.336,248.925,160.276,249.129,160.212,249.332z   M168.615,234.603c1.049-1.231,2.181-2.445,3.395-3.638C170.796,232.158,169.664,233.371,168.615,234.603z M387.641,147.799  c0.255,0.031,0.507,0.073,0.756,0.137C388.148,147.873,387.895,147.832,387.641,147.799z M386.673,147.751  c-0.129,0.004-0.261,0.029-0.392,0.042C386.411,147.78,386.543,147.755,386.673,147.751z M385.529,147.906  c-0.831,0.177-1.687,0.501-2.562,1.01C383.843,148.408,384.698,148.083,385.529,147.906z"/>
<g style="enable-background:new    ;">
	<g>
		<path style="fill:#CD2A01;" d="M353.36,259.981c0.013,0.588,0.025,1.142,0.158,1.74c-0.019-0.026-0.027-0.07-0.038-0.1    c-0.238-0.667-1.266-3.132-4.502-6.832c-1.47-1.681-3.857-4.17-7.9-7.295c-4.297-3.321-8.689-5.82-9.176-6.094    c-1.726-0.971-4.045-2.241-5.823-3.114c-2.069-1.015-4.849-2.337-6.995-3.177c-5.991-2.344-8.471-3.315-14.489-5.062    c-4.596-1.334-10.823-2.785-15.529-3.654c-14.908-2.752-27.163-2.994-33.513-3.013c-3.073-0.008-9.35,0.077-16.86,0.747    c-4.944,0.441-11.514,1.326-16.396,2.221c-5.312,0.975-10.537,2.2-15.53,3.642c-5.78,1.67-8.244,2.628-14.195,4.944    c-2.007,0.781-4.61,2.002-6.547,2.945c-1.769,0.861-4.085,2.095-5.801,3.059c-1.517,0.851-5.481,3.166-9.516,6.267    c-4.587,3.526-6.999,6.271-7.906,7.304c-0.828,0.943-1.871,2.261-2.559,3.311c-0.358,0.547-0.817,1.288-1.126,1.863    c-0.104,0.192-0.236,0.451-0.327,0.649c-0.212,0.466-0.259,0.596-0.338,0.811c-0.003,0.007-0.007,0.017-0.01,0.024    c0.07-0.322,0.163-0.854,0.169-1.747c0.041-14.34,9.465-28.658,28.295-39.601c37.905-22.028,99.554-22.026,137.707,0.002    C343.813,230.905,353.402,245.454,353.36,259.981z"/>
		<path style="fill:#CD2A01;" d="M331.903,241.4c-1.922-1.143-4.549-2.569-6.587-3.488c-1.977-0.891-4.594-2.127-6.598-2.954    c-2.049-0.845-4.817-1.887-6.91-2.618c-2.191-0.765-5.127-1.754-7.372-2.338c-2.297-0.599-5.346-1.455-7.658-1.996    c-2.366-0.554-5.532-1.265-7.931-1.652c-2.444-0.393-5.696-0.964-8.149-1.296c-2.479-0.336-5.796-0.706-8.288-0.929    c-5.043-0.45-11.798-0.636-16.86-0.748c-2.537-0.055-5.921,0.074-8.455,0.187c-2.523,0.112-5.88,0.392-8.4,0.56    c-2.507,0.167-5.827,0.65-8.324,0.935c-2.453,0.279-5.699,0.849-8.127,1.297c-2.42,0.445-5.618,1.173-8.025,1.68    c-2.44,0.514-5.643,1.422-8.037,2.123c-4.272,1.25-9.841,3.325-13.991,4.932c-2.14,0.828-4.908,2.148-6.959,3.177    c-3.128,1.57-7.192,3.884-10.12,5.8c-2.466,1.615-5.578,4.032-7.818,5.947c-1.373,1.173-3.032,2.929-4.272,4.241    c-0.58,0.615-1.263,1.516-1.789,2.178c-0.455,0.573-1.02,1.372-1.391,2.001c-0.255,0.432-0.603,1.005-0.832,1.451    c-0.094,0.183-0.215,0.43-0.299,0.618c-0.068,0.154-0.151,0.363-0.213,0.519c-0.018,0.044-0.019,0.094-0.05,0.133    c0.137-0.598,0.152-1.153,0.168-1.741c-0.041,14.527,9.549,29.078,28.749,40.164c-0.046,16.372-6.541,33.397-14.501,38.024    c-46.173-26.669-46.423-69.851-0.549-96.522c45.893-26.659,120.445-26.657,166.636,0.002c46.169,26.666,46.418,69.85,0.544,96.52    c-45.893,26.659-120.443,26.656-166.631,0c7.961-4.626,14.455-21.652,14.501-38.024c38.149,22.025,99.797,22.028,137.702,0    c18.83-10.943,28.255-25.262,28.296-39.603c0.001,0.992,0.12,1.56,0.159,1.746c-0.115-0.28-0.213-0.567-0.344-0.841    c-0.179-0.376-0.433-0.872-0.642-1.233c-0.485-0.833-1.184-1.919-1.779-2.678c-1.024-1.305-2.495-2.962-3.626-4.175    c-0.678-0.726-1.675-1.599-2.398-2.278c-1.114-1.048-2.686-2.357-3.933-3.243C338.191,245.425,334.652,243.035,331.903,241.4z"/>
	</g>
	<path style="fill:#ACABB1;" d="M353.381,252.57l-0.021,7.411c0.041-14.527-9.548-29.076-28.745-40.16   c-38.153-22.028-99.802-22.03-137.707-0.002c-18.829,10.943-28.255,25.261-28.295,39.601l0.021-7.411   c0.041-14.34,9.465-28.658,28.295-39.601c37.905-22.028,99.554-22.026,137.707,0.002   C343.834,223.494,353.423,238.044,353.381,252.57z"/>
	<path style="fill:#FF3502;" d="M180.095,270.594c3.546,1.896,8.346,4.291,12.009,5.95c2.255,1.022,5.362,2.158,7.7,2.975   c2.258,0.789,5.282,1.819,7.596,2.426c2.295,0.602,5.342,1.461,7.652,2.003c2.401,0.564,5.611,1.289,8.045,1.681   c4.91,0.791,11.487,1.673,16.43,2.228c2.528,0.283,5.917,0.508,8.46,0.566c2.537,0.056,5.919,0.187,8.456,0.187   c2.535,0,5.915-0.074,8.448-0.186c5.921-0.262,5.921-0.262,16.673-1.488c2.47-0.281,5.75-0.797,8.183-1.304   c4.668-0.974,10.893-2.309,15.474-3.632c2.219-0.641,5.177-1.513,7.335-2.334c2.058-0.782,4.826-1.767,6.86-2.61   c1.99-0.824,4.622-1.978,6.547-2.945c5.297-2.657,7.434-3.942,11.068-6.293c2.396-1.55,5.388-3.918,7.569-5.758   c0.702-0.592,1.603-1.423,2.238-2.086c1.123-1.172,2.605-2.754,3.615-4.024c0.596-0.748,1.333-1.792,1.828-2.611   c0.251-0.416,0.918-1.521,1.258-2.502c0.001-0.003,0.004-0.007,0.005-0.01c-0.115,0.556-0.153,0.947-0.167,1.743   c0.041-14.527-9.548-29.076-28.745-40.16c-38.153-22.028-99.802-22.03-137.707-0.002c-18.829,10.943-28.255,25.261-28.295,39.601   c-0.015-0.673-0.024-1.08-0.156-1.736c0.001,0.001,0.003,0.001,0.004,0.002c0.002,0.003,0.003,0.008,0.004,0.013   c0.55,1.633,2.068,3.775,2.084,3.796c0.896,1.258,2.182,2.873,3.239,4c1.355,1.443,3.273,3.266,4.785,4.544   C173.966,267.17,179.848,270.457,180.095,270.594c-2.079-1.2-4.483-1.177-7.046,0.313c-46.173-26.669-46.423-69.851-0.549-96.522   c45.893-26.659,120.445-26.657,166.636,0.002c46.169,26.666,46.418,69.85,0.544,96.52c-45.893,26.659-120.443,26.656-166.631,0   C175.613,269.418,178.017,269.395,180.095,270.594z"/>
	<path style="fill:#CD2A01;" d="M456.458,259.702c-0.055,2.876-0.091,6.719-0.39,9.58c-0.291,2.776-0.761,6.47-1.173,9.231   c-0.208,1.395-0.597,3.236-0.89,4.617c-0.585,2.75-1.488,6.397-2.367,9.067c-1.941,5.9-2.24,6.806-4.765,12.608   c-0.947,2.176-2.343,5.023-3.514,7.087c-0.741,1.306-1.697,3.067-2.484,4.346c-1.151,1.868-2.699,4.354-3.976,6.138   c-2.22,3.106-3.973,5.558-7.403,9.564c-3.921,4.58-7.871,8.372-8.308,8.789c-4.406,4.203-10.151,9.349-19.341,15.654   c-3.436,2.357-7.16,4.704-11.069,6.979c-6.24,3.63-11.584,6.22-11.809,6.328c-3.6,1.741-8.444,3.979-12.133,5.522   c-7.1,2.971-12.865,4.942-12.92,4.96c-5.441,1.835-9.371,3.161-13.149,4.207c-2.003,0.554-4.663,1.344-6.681,1.846   c-2.044,0.508-4.764,1.212-6.816,1.695c-2.047,0.482-4.785,1.09-6.844,1.52c-14.992,3.137-27.525,4.425-28.051,4.479   c-8.729,0.884-10.545,1.068-14.28,1.275c-2.154,0.119-5.023,0.326-7.18,0.398c-4.318,0.143-10.075,0.367-14.395,0.319   c-2.161-0.024-5.042-0.032-7.204-0.079c-2.159-0.048-5.037-0.167-7.195-0.238c-2.156-0.071-5.026-0.278-7.181-0.398   c-0.059-0.003-6.637-0.412-14.286-1.275c-2.129-0.241-4.965-0.589-7.089-0.876c-2.119-0.286-4.936-0.726-7.05-1.037   c-2.105-0.31-4.893-0.838-6.989-1.197c-4.301-0.738-9.793-1.976-13.803-2.88c-2.054-0.463-4.774-1.155-6.81-1.688   c-2.017-0.527-4.69-1.29-6.699-1.844c-2.011-0.554-4.657-1.414-6.652-2.021c-3.734-1.136-6.631-2.201-12.979-4.533   c-0.054-0.02-5.845-2.183-12.553-5.218c-1.87-0.846-4.346-2.011-6.188-2.914c-1.781-0.874-4.128-2.094-5.888-3.009   c-0.052-0.027-5.333-2.776-11.502-6.631c-3.814-2.383-7.181-4.663-10.597-7.175c-6.791-4.996-12.975-10.37-18.379-15.972   c-2.884-2.991-5.366-5.817-7.812-8.896c-0.978-1.231-2.255-2.891-3.17-4.169c-1.155-1.612-2.635-3.804-3.728-5.459   c-0.833-1.261-1.878-2.986-2.624-4.302c-1.041-1.837-2.357-4.329-3.331-6.203c-1.082-2.078-2.322-4.95-3.219-7.115   c-1.09-2.633-2.411-6.206-3.208-8.941c-0.711-2.441-1.585-5.718-2.189-8.188c-0.335-1.371-0.664-3.225-0.936-4.609   c-0.533-2.709-1.005-6.369-1.254-9.119c-0.342-3.779-0.471-6.453-0.494-10.217c0.168,29.718,19.91,59.435,59.183,82.109   c39.271,22.673,90.639,34.01,141.943,34.011c51.304,0,102.546-11.336,141.564-34.011   C437.22,319.138,456.625,289.42,456.458,259.702z"/>
	<path style="fill:#C6C5CB;" d="M456.479,252.292l-0.021,7.411c0.167,29.718-19.237,59.435-58.253,82.109   c-39.019,22.675-90.259,34.012-141.564,34.011c-51.304,0-102.672-11.338-141.943-34.011   c-39.273-22.674-59.015-52.392-59.183-82.109l0.021-7.411c0.168,29.718,19.91,59.435,59.183,82.109   c39.271,22.673,90.639,34.01,141.943,34.011c51.304,0,102.546-11.336,141.564-34.011   C437.241,311.727,456.646,282.01,456.479,252.292z"/>
	<path style="fill:#FF3502;" d="M390.014,148.604c3.279,1.969,7.608,4.668,10.814,6.754c1.634,1.063,3.741,2.589,5.313,3.742   c1.578,1.159,3.671,2.721,5.177,3.971c2.663,2.213,6.158,5.231,8.714,7.567c1.396,1.277,3.175,3.07,4.486,4.434   c1.361,1.415,3.163,3.32,4.423,4.827c2.026,2.424,4.662,5.713,6.558,8.24c1.191,1.586,2.658,3.789,3.728,5.459   c1.166,1.818,2.664,4.281,3.688,6.183c1.386,2.577,3.099,6.084,4.335,8.734c1.147,2.46,3.346,8.203,4.358,11.644   c0.717,2.44,1.638,5.706,2.188,8.188c0.602,2.716,1.237,6.374,1.654,9.125c0.418,2.757,0.684,6.473,0.877,9.254   c0.116,1.666,0.141,3.894,0.152,5.563c0.167,29.718-19.237,59.435-58.253,82.109c-39.019,22.675-90.259,34.012-141.564,34.011   c-51.304,0-102.672-11.338-141.943-34.011c-39.273-22.674-59.015-52.392-59.183-82.109c0.055-2.877,0.152-6.714,0.39-9.581   c0.231-2.781,0.703-6.478,1.172-9.228c0.471-2.755,1.251-6.404,1.957-9.108c0.72-2.757,1.799-6.409,2.795-9.078   c0.917-2.456,2.146-5.736,3.269-8.106c1.017-2.145,2.412-4.987,3.516-7.089c0.697-1.33,1.725-3.05,2.484-4.346   c1.109-1.893,2.688-4.362,3.976-6.139c0.915-1.263,2.106-2.969,3.061-4.201c1.267-1.636,2.968-3.815,4.344-5.362   c3.598-4.048,4.685-5.27,8.309-8.789c2.466-2.395,5.951-5.38,8.572-7.603c1.552-1.315,3.692-2.987,5.344-4.174   c1.625-1.167,3.776-2.744,5.425-3.876c1.55-1.063,3.633-2.458,5.235-3.442c1.744-1.072,4.067-2.506,5.835-3.536   c1.695-0.987,3.981-2.26,5.709-3.188c5.572-2.996,9.819-4.94,12.1-5.984c12.449-5.701,24.233-9.407,25.536-9.81   c6.213-1.926,7.882-2.444,13.343-3.878c6.552-1.721,11.533-2.768,13.659-3.214c14.692-3.088,27.512-4.423,28.051-4.479   c8.448-0.868,8.954-0.92,14.28-1.275c7.94-0.53,14.314-0.636,14.373-0.637c2.16-0.024,5.042-0.104,7.203-0.079   c2.161,0.024,5.042,0.032,7.203,0.079c2.159,0.048,5.037,0.167,7.195,0.238c4.308,0.143,10.041,0.594,14.338,0.955   c0.265,0.022,6.565,0.556,14.225,1.595c5.977,0.809,10.939,1.663,14.047,2.237c1.768,0.326,7.149,1.319,13.816,2.884   c7.189,1.689,12.53,3.244,13.528,3.539C347.547,129.893,368.061,135.951,390.014,148.604c-2.08-1.2-4.483-1.177-7.047,0.312   c-35.284-20.367-81.371-30.54-127.465-30.542c-46.094,0.002-92.065,10.173-127.118,30.54   c-35.048,20.372-52.459,47.034-52.31,73.732c0.155,26.699,17.867,53.36,53.145,73.732c35.282,20.366,81.367,30.538,127.459,30.541   c46.092-0.001,92.064-10.173,127.119-30.541c35.046-20.37,52.456-47.032,52.309-73.731c-0.154-26.699-17.863-53.361-53.138-73.731   C385.531,147.426,387.935,147.404,390.014,148.604z"/>
	<path style="fill:#FF5023;" d="M382.968,148.916c35.275,20.369,52.986,47.032,53.138,73.731   c0.147,26.699-17.263,53.361-52.309,73.731c-35.055,20.368-81.026,30.54-127.119,30.541   c-46.092-0.002-92.177-10.174-127.459-30.541c-35.278-20.372-52.99-47.033-53.145-73.732c-0.148-26.699,17.261-53.36,52.31-73.732   c35.052-20.366,81.024-30.538,127.118-30.54C301.596,118.376,347.684,128.549,382.968,148.916z M173.05,270.907   c46.188,26.656,120.738,26.659,166.631,0c45.874-26.67,45.626-69.853-0.544-96.52c-46.192-26.658-120.743-26.661-166.636-0.002   C126.627,201.056,126.877,244.238,173.05,270.907"/>
</g>
<g>
	<path style="fill:#E0E0E2;" d="M219.618,118.078c1.252-0.129,2.326-0.238,3.27-0.336c20.177-5.747,44.027-5.781,64.311-0.104   c2.61,0.259,6.676,0.697,11.235,1.314c5.977,0.809,10.939,1.663,14.047,2.237c0.178,0.032,0.402,0.074,0.65,0.12   c-32.365-18.167-83.984-18.12-116.039,0.145C209.337,119.148,219.148,118.126,219.618,118.078z"/>
	<path style="fill:#E0E0E2;" d="M487.509,221.964l-47.791-27.592c1.073,1.703,2.313,3.765,3.198,5.41   c0.988,1.837,2.142,4.146,3.17,6.282l34.504,19.921c28.66,16.548,28.812,43.47,0.338,60.018L308.536,386.187   c-28.474,16.548-74.955,16.548-103.615,0L31.407,286.007c-28.66-16.548-28.812-43.47-0.338-60.018l34.706-20.17   c0.913-1.891,1.977-4.038,2.859-5.718c0.697-1.33,1.725-3.05,2.484-4.346c0.313-0.533,0.665-1.115,1.035-1.712l-48.049,27.923   c-32.289,18.764-32.117,49.296,0.383,68.059l173.515,100.178c32.5,18.764,85.214,18.766,117.503,0.002l172.392-100.184   C520.187,271.261,520.01,240.728,487.509,221.964z"/>
</g>
<g>
	<path style="fill:#FF5023;" d="M388.396,147.937c-0.248-0.064-0.501-0.106-0.756-0.137   C387.895,147.832,388.148,147.873,388.396,147.937z"/>
	<path style="fill:#FF5023;" d="M387.547,147.782c-0.234-0.025-0.473-0.027-0.712-0.025   C387.073,147.754,387.313,147.757,387.547,147.782z"/>
	<path style="fill:#FF5023;" d="M386.673,147.751c-0.129,0.004-0.261,0.029-0.392,0.042   C386.411,147.78,386.543,147.755,386.673,147.751z"/>
</g>
<g>
</g>
<g>
</g>
<g>
</g>
<g>
</g>
<g>
</g>
<g>
</g>
<g>
</g>
<g>
</g>
<g>
</g>
<g>
</g>
<g>
</g>
<g>
</g>
<g>
</g>
<g>
</g>
<g>
</g>
</svg>
