<?xml version="1.0" encoding="iso-8859-1"?>
<!-- Generator: Adobe Illustrator 19.0.0, SVG Export Plug-In . SVG Version: 6.00 Build 0)  -->
<svg xmlns="http://www.w3.org/2000/svg" xmlns:xlink="http://www.w3.org/1999/xlink" version="1.1" id="Layer_1" x="0px" y="0px" viewBox="0 0 512 512" style="enable-background:new 0 0 512 512;" xml:space="preserve">
<path style="fill:#F18700;" d="M495.179,167.997l0.259-91.258c-0.001,0.301-0.026,0.602-0.038,0.902  c0.419-10.952-6.2-21.991-19.877-30.525c-0.679-0.423-1.372-0.839-2.072-1.243c-29.331-16.937-76.728-16.94-105.868-0.006  c-12.894,7.493-20.037,17.055-21.458,26.846c-0.496,3.375-7.501,4.897-11.655,2.499L245.7,23.96l-78.546,45.646  c-1.406,0.817-2.012,1.83-1.985,2.82c-0.001-0.023-0.012-0.046-0.012-0.07l-0.257,90.525c-18.967-0.082-37.914-4.3-52.434-12.683  c-12.995-7.503-20.247-17.075-21.778-26.875c-0.156-1.018-0.904-1.866-1.984-2.491c-2.505-1.446-6.799-1.684-9.682-0.008  L0.475,166.469L0,334.292l16.826,9.714l-0.259,91.259c-0.03,10.654,6.613,21.322,19.918,29.623c0.679,0.423,1.371,0.839,2.071,1.243  c29.325,16.93,76.72,16.936,105.86,0.001c12.894-7.493,20.037-17.055,21.458-26.846c0.496-3.375,7.501-4.897,11.656-2.499  l88.769,51.251l78.459-45.595c1.374-0.798,1.997-1.782,1.999-2.749l0.256-90.462c18.103,0.052,36.201,3.844,50.364,11.385  c0.771,0.411,1.523,0.828,2.258,1.252c12.952,7.477,20.211,17.005,21.771,26.772c0.158,1.011,0.902,1.855,1.976,2.475  c2.505,1.446,6.805,1.68,9.681,0.008l78.459-45.595L512,177.708L495.179,167.997z"/>
<g style="enable-background:new    ;">
	<path style="fill:#F18700;" d="M239.967,119.749l-0.476,167.823c0.03-10.648-6.607-21.311-19.897-29.608   c-0.688-0.429-1.386-0.847-2.094-1.257c-12.997-7.504-29.552-11.675-46.477-12.524c-1.749-0.088-3.211-0.517-4.289-1.14   c-1.312-0.758-2.054-1.801-2.052-2.864l0.475-167.823c-0.003,1.063,0.74,2.107,2.052,2.864c1.078,0.623,2.54,1.051,4.289,1.14   c16.926,0.85,33.48,5.02,46.477,12.524c0.709,0.41,1.406,0.829,2.094,1.257C233.36,98.439,239.997,109.102,239.967,119.749z"/>
	<path style="fill:#D07400;" d="M495.437,76.738l-0.475,167.823c-0.029,10.499-6.541,20.983-19.549,29.167   c-13.195,8.298-30.551,12.891-48.39,13.797c-3.852,0.194-6.291,2.044-6.297,3.965l0.475-167.823   c0.005-1.923,2.445-3.771,6.297-3.965c17.84-0.906,35.195-5.499,48.39-13.797C488.896,97.722,495.408,87.237,495.437,76.738z"/>
	<polygon style="fill:#F18700;" points="89.246,217.72 88.769,385.543 0,334.292 0.475,166.469  "/>
	<path style="fill:#FFA834;" d="M91.276,220.512l-0.475,167.823c0.003-0.982-0.629-1.983-2.03-2.792l0.475-167.823   C90.647,218.529,91.278,219.53,91.276,220.512z"/>
	<polygon style="fill:#D07400;" points="512,177.708 511.525,345.531 433.065,391.127 433.541,223.304  "/>
	<path style="fill:#F18700;" d="M272.044,392.314l0.475-167.823c0.032-11.558,7.995-23.099,23.9-31.65   c28.345-15.234,72.883-15.249,101.434-0.046c0.771,0.411,1.523,0.828,2.258,1.252c12.951,7.477,20.211,17.005,21.771,26.772   c0.158,1.011,0.902,1.855,1.976,2.475c2.505,1.446,6.805,1.68,9.681,0.008l-0.475,167.823c-2.876,1.671-7.177,1.437-9.681-0.008   c-1.074-0.621-1.818-1.464-1.976-2.475c-1.559-9.768-8.82-19.294-21.771-26.772c-0.735-0.424-1.487-0.841-2.258-1.252   c-28.552-15.203-73.089-15.188-101.435,0.046C280.039,369.216,272.078,380.757,272.044,392.314z"/>
	<g>
		<path style="fill:#D07400;" d="M347.234,271.872l-0.475,167.823c-0.003,0.968-0.625,1.951-1.999,2.749l0.475-167.823    C346.609,273.823,347.231,272.84,347.234,271.872z"/>
		<path style="fill:#D07400;" d="M16.568,435.266l0.475-167.823c-0.03,10.654,6.613,21.322,19.918,29.623    c0.679,0.423,1.371,0.839,2.071,1.243c29.325,16.931,76.72,16.936,105.86,0.001c12.894-7.493,20.037-17.055,21.458-26.845    c0.496-3.375,7.501-4.897,11.655-2.499l-0.475,167.823c-4.153-2.398-11.158-0.876-11.655,2.499    c-1.421,9.79-8.565,19.353-21.458,26.846c-29.14,16.935-76.535,16.929-105.86-0.001c-0.7-0.404-1.393-0.819-2.071-1.243    C23.181,456.588,16.538,445.92,16.568,435.266z"/>
		<polygon style="fill:#D07400;" points="345.235,274.621 344.759,442.444 266.3,488.04 266.776,320.217   "/>
	</g>
	<polygon style="fill:#F18700;" points="266.776,320.217 266.3,488.04 177.53,436.789 178.006,268.966  "/>
	<path style="fill:#FFA834;" d="M473.451,45.872c0.7,0.404,1.393,0.82,2.072,1.243c26.41,16.478,26.573,42.302,0.366,58.79   c-13.195,8.298-30.551,12.891-48.39,13.797c-5.816,0.294-8.412,4.361-4.268,6.754L512,177.708l-78.459,45.595   c-2.876,1.671-7.177,1.437-9.681-0.008c-1.074-0.621-1.818-1.464-1.976-2.475c-1.559-9.768-8.82-19.294-21.771-26.772   c-0.735-0.424-1.487-0.841-2.258-1.252c-28.552-15.203-73.089-15.188-101.434,0.046c-31.271,16.812-31.836,45.18-1.806,62.518   c12.943,7.473,29.422,11.641,46.285,12.512c1.749,0.091,3.21,0.521,4.286,1.143c2.506,1.447,2.929,3.933,0.049,5.607   l-78.459,45.595l-88.769-51.251c-4.153-2.398-11.158-0.876-11.655,2.499c-1.421,9.79-8.565,19.353-21.458,26.845   c-29.14,16.935-76.535,16.929-105.86-0.001c-0.7-0.404-1.393-0.819-2.071-1.243c-26.419-16.483-26.573-42.302-0.366-58.801   c13.187-8.292,30.542-12.887,48.382-13.792c5.824-0.288,8.412-4.361,4.268-6.754l-88.771-51.25l78.546-45.646   c2.883-1.675,7.177-1.438,9.682,0.008c1.08,0.624,1.829,1.473,1.984,2.491c1.531,9.8,8.782,19.372,21.778,26.876   c30.031,17.338,79.004,16.918,107.909-1.25c26.242-16.488,26.106-42.316-0.305-58.805c-0.688-0.429-1.386-0.847-2.094-1.257   c-12.997-7.504-29.552-11.675-46.477-12.524c-1.749-0.088-3.211-0.517-4.289-1.14c-2.508-1.448-2.935-3.941-0.054-5.614   L245.7,23.962l88.769,51.251c4.153,2.398,11.158,0.876,11.655-2.499c1.421-9.79,8.564-19.353,21.458-26.846   C396.723,28.932,444.119,28.936,473.451,45.872z"/>
</g>
<g>
</g>
<g>
</g>
<g>
</g>
<g>
</g>
<g>
</g>
<g>
</g>
<g>
</g>
<g>
</g>
<g>
</g>
<g>
</g>
<g>
</g>
<g>
</g>
<g>
</g>
<g>
</g>
<g>
</g>
</svg>
