<?xml version="1.0" encoding="iso-8859-1"?>
<!-- Generator: Adobe Illustrator 19.0.0, SVG Export Plug-In . SVG Version: 6.00 Build 0)  -->
<svg xmlns="http://www.w3.org/2000/svg" xmlns:xlink="http://www.w3.org/1999/xlink" version="1.1" id="Layer_1" x="0px" y="0px" viewBox="0 0 512 512" style="enable-background:new 0 0 512 512;" xml:space="preserve">
<path style="fill:#2E2E30;" d="M509.413,286.004c-1.859-3.939-4.63-6.778-8.074-8.395c0.411,0.192,0.813,0.4,1.204,0.628  l-11.208-6.513c-1.498-0.871-3.144-1.489-4.914-1.843c-5.173-1.031-11.459,0.243-18.145,4.102l-143.741,82.989  c-4.319,2.493-7.798,8.529-7.785,13.483c0.007,2.462,0.876,4.195,2.278,5.01l11.208,6.513c-0.091-0.052-0.172-0.119-0.258-0.18  c1.434,1.004,3.505,0.969,5.816-0.366l143.74-82.989c1.728-0.998,3.379-1.652,4.933-1.999c0.45,1.476,0.7,3.172,0.705,5.094  c0.007,2.461,0.877,4.193,2.279,5.008l11.208,6.513c-0.089-0.052-0.17-0.118-0.255-0.178c1.436,1.002,3.506,0.965,5.812-0.366  c4.319-2.493,7.799-8.53,7.784-13.483C511.985,293.912,511.066,289.517,509.413,286.004z"/>
<g style="enable-background:new    ;">
	<path style="fill:#1D1D1F;" d="M498.659,313.062l-11.208-6.513c-1.402-0.815-2.272-2.547-2.279-5.008   c-0.011-4.029-1.068-7.096-2.889-9.137c-0.591-0.659-1.263-1.207-2.002-1.636l11.208,6.513c0.739,0.429,1.411,0.977,2.002,1.636   c1.82,2.041,2.878,5.107,2.889,9.137C496.387,310.515,497.256,312.247,498.659,313.062z"/>
	<path style="fill:#77767E;" d="M491.335,271.725l11.208,6.513c-1.498-0.871-3.144-1.489-4.914-1.843   c-5.173-1.031-11.459,0.242-18.145,4.102l-11.208-6.513c6.685-3.86,12.971-5.134,18.145-4.102   C488.19,270.235,489.836,270.853,491.335,271.725z"/>
	<polygon style="fill:#57565C;" points="335.742,363.485 324.535,356.973 468.275,273.984 479.483,280.497  "/>
	<path style="fill:#3E3D43;" d="M330.236,381.98l-11.208-6.513c-1.402-0.815-2.271-2.548-2.278-5.01   c-0.014-4.954,3.466-10.989,7.785-13.483l11.208,6.513c-4.319,2.493-7.798,8.53-7.785,13.483   C327.965,379.431,328.834,381.165,330.236,381.98z"/>
	<path style="fill:#2E2E30;" d="M479.483,280.497c6.685-3.86,12.971-5.134,18.145-4.102c5.182,1.035,9.298,4.339,11.784,9.61   c1.653,3.513,2.573,7.908,2.587,13.032c0.014,4.954-3.466,10.989-7.785,13.483c-4.311,2.489-7.821,0.489-7.836-4.465   c-0.012-4.029-1.068-7.096-2.889-9.137c-1.829-2.036-4.413-3.007-7.424-2.725c-2.002,0.177-4.198,0.905-6.534,2.253l-143.74,82.989   c-4.319,2.493-7.821,0.489-7.836-4.465c-0.014-4.954,3.466-10.989,7.785-13.483L479.483,280.497z"/>
</g>
<path style="fill:#2E2E30;" d="M204.757,110.154c-1.859-3.939-4.63-6.778-8.074-8.395c0.411,0.192,0.813,0.4,1.204,0.628  l-11.208-6.513c-1.498-0.871-3.144-1.489-4.914-1.843c-5.173-1.031-11.459,0.243-18.145,4.102L19.88,181.123  c-4.319,2.493-7.798,8.529-7.784,13.483c0.007,2.462,0.876,4.195,2.278,5.01l11.208,6.513c-0.092-0.053-0.176-0.122-0.263-0.183  c1.435,1.007,3.507,0.973,5.82-0.363l143.74-82.989c1.728-0.998,3.379-1.652,4.933-1.998c0.45,1.476,0.7,3.172,0.705,5.094  c0.007,2.461,0.877,4.193,2.279,5.008l11.208,6.513c-0.089-0.051-0.168-0.117-0.253-0.177c1.436,1.001,3.505,0.964,5.81-0.367  c4.319-2.493,7.798-8.53,7.784-13.483C207.331,118.062,206.41,113.667,204.757,110.154z"/>
<g style="enable-background:new    ;">
	<path style="fill:#1D1D1F;" d="M194.004,137.212l-11.208-6.513c-1.402-0.815-2.272-2.547-2.279-5.008   c-0.011-4.029-1.068-7.096-2.889-9.137c-0.591-0.659-1.263-1.207-2.002-1.636l11.208,6.513c0.739,0.429,1.411,0.977,2.002,1.636   c1.82,2.041,2.878,5.107,2.889,9.137C191.732,134.665,192.602,136.397,194.004,137.212z"/>
	<path style="fill:#77767E;" d="M186.679,95.874l11.208,6.513c-1.498-0.871-3.144-1.489-4.914-1.843   c-5.173-1.031-11.459,0.242-18.145,4.102l-11.208-6.513c6.685-3.86,12.971-5.134,18.145-4.102   C183.535,94.385,185.181,95.003,186.679,95.874z"/>
	<polygon style="fill:#57565C;" points="31.088,187.635 19.88,181.123 163.621,98.134 174.828,104.646  "/>
	<path style="fill:#3E3D43;" d="M25.581,206.129l-11.208-6.513c-1.402-0.815-2.271-2.548-2.278-5.01   c-0.014-4.954,3.466-10.989,7.784-13.483l11.208,6.513c-4.319,2.493-7.798,8.529-7.784,13.483   C23.31,203.581,24.179,205.314,25.581,206.129z"/>
	<path style="fill:#2E2E30;" d="M174.828,104.646c6.685-3.86,12.971-5.134,18.145-4.102c5.182,1.035,9.298,4.339,11.784,9.61   c1.653,3.513,2.573,7.908,2.587,13.032c0.014,4.954-3.466,10.99-7.784,13.483c-4.311,2.489-7.821,0.489-7.836-4.465   c-0.012-4.029-1.068-7.096-2.889-9.137c-1.829-2.037-4.413-3.007-7.424-2.725c-2.002,0.177-4.198,0.905-6.534,2.253L31.138,205.584   c-4.319,2.493-7.821,0.489-7.836-4.465c-0.014-4.954,3.466-10.989,7.784-13.483L174.828,104.646z"/>
</g>
<g style="enable-background:new    ;">
	<path style="fill:#C3DFF7;" d="M121.474,225.591c18.879,32.699,18.779,67.985-0.224,78.814c-9.501,5.415-21.928,3.69-34.341-3.476   c-12.412-7.166-24.809-19.774-34.248-36.123c-18.878-32.699-18.778-67.985,0.224-78.814c9.501-5.415,21.928-3.69,34.341,3.476   C99.638,196.634,112.035,209.242,121.474,225.591z"/>
	<path style="fill:#D2E7F8;" d="M82.219,204.571c4.793,8.302,4.768,17.26-0.056,20.009c-2.412,1.375-5.567,0.936-8.719-0.883   c-3.151-1.819-6.299-5.02-8.695-9.171c-4.793-8.302-4.768-17.26,0.056-20.009c2.412-1.375,5.567-0.936,8.719,0.883   S79.823,200.421,82.219,204.571z"/>
	<path style="fill:#C3DFF7;" d="M276.909,314.275c18.879,32.699,18.779,67.985-0.224,78.814c-9.501,5.415-21.928,3.69-34.341-3.476   c-12.412-7.166-24.809-19.774-34.248-36.123c-18.878-32.699-18.779-67.984,0.224-78.814c9.501-5.415,21.928-3.69,34.341,3.476   C255.074,285.319,267.47,297.925,276.909,314.275z"/>
	<path style="fill:#D2E7F8;" d="M234.774,293.985c4.793,8.302,4.768,17.26-0.056,20.009c-2.412,1.374-5.567,0.936-8.719-0.883   c-3.151-1.819-6.299-5.02-8.695-9.171c-4.793-8.302-4.768-17.26,0.056-20.009c2.412-1.374,5.567-0.936,8.719,0.883   C229.231,286.634,232.378,289.835,234.774,293.985z"/>
</g>
<path style="fill:#3E3D43;" d="M317.601,353.011L317.601,353.011L317.601,353.011c-3.755-37.818-30.166-80.743-62.168-99.219  c-17.436-10.067-33.262-10.987-44.696-4.343l-19.829,11.523c0.133-0.077,0.273-0.139,0.406-0.214  c-4.926,2.763-9.052,6.909-12.171,12.314l-16.421-9.48c-3.755-37.818-30.166-80.743-62.168-99.219  c-17.434-10.065-33.256-10.986-44.688-4.343l-19.828,11.524c0.132-0.076,0.272-0.139,0.404-0.213  c-4.926,2.763-9.052,6.911-12.171,12.316l-4.393-2.536L0.051,192.646L0,210.594l18.149,10.478  c3.755,37.825,30.167,80.752,62.168,99.229c17.751,10.248,33.821,11.002,45.297,3.957c-0.206,0.126-0.404,0.263-0.612,0.385  l19.829-11.523c4.754-2.763,8.749-6.837,11.784-12.103l16.404,9.471c3.756,37.825,30.175,80.757,62.176,99.233  c17.751,10.248,33.82,11.002,45.296,3.958c-0.205,0.125-0.403,0.263-0.611,0.385l19.829-11.523  c4.754-2.763,8.749-6.837,11.784-12.103l4.37,2.522l0.038-13.381l0,0l-0.038,13.381l19.829-11.523l0.051-17.948L317.601,353.011z   M208.01,298.728c0.025-8.999,1.977-16.374,5.388-21.895c6.618-0.233,14.159,1.814,22.156,6.431  c26.03,15.029,47.142,51.595,47.057,81.506c-0.025,9.003-1.978,16.379-5.39,21.902c-6.616,0.233-14.153-1.811-22.146-6.425  C229.036,365.215,207.925,328.648,208.01,298.728z M53.14,209.314c0.025-9,1.977-16.375,5.387-21.896  c6.617-0.233,14.155,1.813,22.148,6.428c26.031,15.029,47.142,51.595,47.057,81.506c-0.025,9.003-1.978,16.379-5.39,21.902  c-6.616,0.233-14.153-1.811-22.146-6.425C74.167,275.8,53.055,239.234,53.14,209.314z"/>
<g style="enable-background:new    ;">
	<polygon style="fill:#3E3D43;" points="18.149,221.072 37.978,209.549 45.305,213.779 25.476,225.302  "/>
	<polygon style="fill:#57565C;" points="0.051,192.646 19.88,181.123 38.029,191.601 18.2,203.124  "/>
	<g>
		<polygon style="fill:#3E3D43;" points="18.2,203.124 38.029,191.601 45.356,195.831 25.527,207.354   "/>
		<polygon style="fill:#3E3D43;" points="25.527,207.354 45.356,195.831 45.305,213.779 25.476,225.302   "/>
	</g>
	<path style="fill:#57565C;" d="M133.772,294.09l-19.829,11.523c-8.59,4.991-20.477,4.301-33.576-3.261l19.829-11.523   C113.295,298.39,125.182,299.082,133.772,294.09z"/>
	<path style="fill:#2E2E30;" d="M47.099,190.584l19.829-11.523c-8.48,4.928-13.746,15.393-13.787,30.253   c-0.085,29.92,21.026,66.486,47.057,81.515l-19.829,11.523c-26.03-15.029-47.142-51.595-47.057-81.515   C33.353,205.979,38.618,195.512,47.099,190.584z"/>
	<polygon style="fill:#3E3D43;" points="135.517,288.835 155.346,277.312 162.673,281.541 142.844,293.065  "/>
	<path style="fill:#2E2E30;" d="M144.831,313.119l-19.829,11.523c9.552-5.552,16.04-16.385,17.842-31.578l19.829-11.523   C160.871,296.734,154.384,307.568,144.831,313.119z"/>
	<g>
		<polygon style="fill:#3E3D43;" points="135.568,270.887 155.396,259.363 155.346,277.312 135.517,288.835   "/>
		<polygon style="fill:#3E3D43;" points="135.568,270.887 155.397,259.363 162.723,263.593 142.895,275.116   "/>
		<polygon style="fill:#3E3D43;" points="173.018,310.486 192.847,298.963 200.174,303.193 180.345,314.717   "/>
	</g>
	<path style="fill:#77767E;" d="M36.039,171.554l19.829-11.523c11.431-6.643,27.253-5.723,44.688,4.343   c32.001,18.476,58.413,61.401,62.168,99.219l-19.829,11.523c-3.755-37.818-30.166-80.743-62.168-99.219   C63.292,165.832,47.47,164.911,36.039,171.554z"/>
	<polygon style="fill:#57565C;" points="142.895,275.116 162.723,263.593 192.899,281.015 173.07,292.538  "/>
	<g>
		<polygon style="fill:#3E3D43;" points="180.396,296.769 200.225,285.245 200.174,303.193 180.345,314.717   "/>
		<polygon style="fill:#3E3D43;" points="173.07,292.538 192.899,281.015 200.225,285.245 180.396,296.769   "/>
	</g>
	<path style="fill:#2E2E30;" d="M201.967,280l19.829-11.523c-8.479,4.928-13.745,15.393-13.786,30.251   c-0.085,29.92,21.026,66.486,47.064,81.52l-19.829,11.523c-26.038-15.033-47.15-51.599-47.064-81.52   C188.223,295.394,193.488,284.928,201.967,280z"/>
	<path style="fill:#57565C;" d="M288.65,383.509l-19.829,11.523c-8.59,4.991-20.477,4.301-33.575-3.261l19.829-11.523   C268.172,387.81,280.06,388.5,288.65,383.509z"/>
	<polygon style="fill:#3E3D43;" points="290.395,378.253 310.224,366.73 317.551,370.961 297.722,382.484  "/>
	<path style="fill:#2E2E30;" d="M299.709,402.537l-19.829,11.523c9.552-5.552,16.04-16.385,17.842-31.578l19.829-11.523   C315.749,386.152,309.262,396.986,299.709,402.537z"/>
	<g>
		<polygon style="fill:#3E3D43;" points="290.445,360.305 310.274,348.782 310.224,366.73 290.395,378.253   "/>
		<polygon style="fill:#3E3D43;" points="290.445,360.305 310.274,348.782 317.601,353.011 297.772,364.536   "/>
	</g>
	<polygon style="fill:#57565C;" points="297.772,364.536 317.601,353.011 335.742,363.485 315.913,375.009  "/>
	<polygon style="fill:#2E2E30;" points="315.913,375.009 335.742,363.485 335.691,381.434 315.862,392.958  "/>
	<path style="fill:#77767E;" d="M190.909,260.974l19.829-11.523c11.433-6.645,27.259-5.724,44.696,4.343   c32.001,18.476,58.413,61.401,62.168,99.219l-19.829,11.523c-3.755-37.818-30.166-80.743-62.168-99.219   C218.167,255.249,202.342,254.329,190.909,260.974z"/>
	<path style="fill:#3E3D43;" d="M297.772,364.536L297.772,364.536c-3.755-37.818-30.166-80.743-62.168-99.219   c-32.001-18.476-58.576-6.143-62.534,27.223l-30.176-17.422c-3.755-37.818-30.166-80.743-62.168-99.219   c-32.001-18.476-58.57-6.139-62.527,27.227l0,0L0.051,192.646L0,210.594l18.149,10.478c3.755,37.825,30.167,80.752,62.168,99.229   c32.001,18.476,58.57,6.137,62.527-27.235l0,0l30.175,17.422c3.756,37.825,30.175,80.757,62.176,99.233s58.57,6.137,62.527-27.235   l0,0l18.142,10.474l0.051-17.948L297.772,364.536z M80.368,302.352c-26.03-15.029-47.142-51.595-47.057-81.515   c0.085-29.911,21.334-42.021,47.364-26.992s47.142,51.595,47.057,81.506C127.648,305.271,106.398,317.38,80.368,302.352z    M235.245,391.771c-26.038-15.033-47.15-51.599-47.064-81.519c0.085-29.911,21.335-42.021,47.373-26.988   c26.03,15.029,47.142,51.595,47.057,81.506C282.526,394.69,261.276,406.8,235.245,391.771z"/>
</g>
<g>
</g>
<g>
</g>
<g>
</g>
<g>
</g>
<g>
</g>
<g>
</g>
<g>
</g>
<g>
</g>
<g>
</g>
<g>
</g>
<g>
</g>
<g>
</g>
<g>
</g>
<g>
</g>
<g>
</g>
</svg>
