<?xml version="1.0" encoding="iso-8859-1"?>
<!-- Generator: Adobe Illustrator 19.0.0, SVG Export Plug-In . SVG Version: 6.00 Build 0)  -->
<svg xmlns="http://www.w3.org/2000/svg" xmlns:xlink="http://www.w3.org/1999/xlink" version="1.1" id="Layer_1" x="0px" y="0px" viewBox="0 0 512 512" style="enable-background:new 0 0 512 512;" xml:space="preserve">
<g>
	<path style="fill:#ACABB1;" d="M511.991,295.38L511.991,295.38l-0.005-1.859l0,0l-0.022-7.83l-0.002-0.578l0,0l-0.006-2.346l0,0   l-0.002-0.621l-0.013-4.48l-10.848-6.305l10.813-6.243l-0.009-3.307l0,0l-0.005-1.859l0,0l-0.006-2.347l0,0l-0.005-1.859l0,0   l-0.006-2.347l0,0l-0.002-0.677l-0.024-8.63L239.186,85.641L23.679,210.065C10.579,217.628-0.043,236.024,0,251.076   c0.021,7.477,2.671,12.744,6.937,15.223l272.66,158.452c-0.016-0.009-0.03-0.02-0.047-0.029c4.326,2.542,10.327,2.208,16.942-1.612   L512,298.688L511.991,295.38z"/>
	<polygon style="fill:#ACABB1;" points="296.434,402.089 23.774,243.636 239.281,119.213 511.941,277.665  "/>
	<path style="fill:#ACABB1;" d="M292.552,402.466L19.892,244.013c0.993,0.577,2.367,0.497,3.882-0.377l272.66,158.452   C294.918,402.963,293.544,403.044,292.552,402.466z"/>
</g>
<polygon style="fill:#E0E0E2;" points="296.338,368.517 23.679,210.065 239.186,85.641 511.845,244.094 "/>
<g>
	<polyline style="fill:#3E3D43;" points="405.6,285.997 164.708,146.918 162.382,148.269 403.274,287.348 405.6,285.997  "/>
	<polyline style="fill:#3E3D43;" points="375.622,288.075 259.855,221.11 255.508,223.637 371.275,290.601 375.622,288.075  "/>
	<polyline style="fill:#3E3D43;" points="360.683,296.757 229.627,220.966 225.28,223.491 356.335,299.283 360.683,296.757  "/>
	<polyline style="fill:#3E3D43;" points="345.741,305.44 214.686,229.649 210.338,232.176 341.393,307.966 345.741,305.44  "/>
	<polyline style="fill:#3E3D43;" points="330.801,314.122 199.746,238.331 195.398,240.858 326.453,316.648 330.801,314.122  "/>
	<polyline style="fill:#3E3D43;" points="315.859,322.805 184.804,247.014 180.457,249.541 311.512,325.331 315.859,322.805  "/>
	<polyline style="fill:#3E3D43;" points="286.776,323.321 169.864,255.696 165.517,258.223 282.429,325.848 286.776,323.321  "/>
</g>
<polyline style="fill:#898890;" points="235.244,206.902 161.22,164.29 82.17,210.229 156.195,252.841 235.244,206.902 "/>
<path style="fill:#D8D8DA;" d="M279.597,424.752L6.937,266.3c-4.266-2.48-6.916-7.747-6.937-15.224  c-0.043-15.052,10.579-33.449,23.677-41.011l272.66,158.452c-13.099,7.563-23.72,25.959-23.677,41.011  C272.682,417.007,275.331,422.273,279.597,424.752z"/>
<path style="fill:#C6C5CB;" d="M511.845,244.094l0.06,21.024L296.398,389.541c-3.011,1.739-5.451,5.966-5.441,9.424  c0.009,3.461,2.465,4.862,5.476,3.123l215.507-124.423l0.06,21.022L296.493,423.11c-13.099,7.563-23.79,1.47-23.833-13.582  s10.579-33.449,23.677-41.011L511.845,244.094z"/>
<g>
	<path style="fill:#ACABB1;" d="M295.983,384.639c-5.251,3.031-9.509,10.407-9.491,16.441c0.008,3.086,1.103,5.412,3.083,6.55   c0.836,0.482,1.776,0.72,2.786,0.72c1.395,0,2.922-0.457,4.488-1.36l215.107-124.224l-0.005-1.859L296.044,405.593   c-2.181,1.259-4.192,1.486-5.663,0.639c-1.46-0.84-2.268-2.672-2.275-5.159c-0.016-5.52,3.881-12.267,8.685-15.041l215.105-124.222   l-0.005-1.859L295.983,384.639z"/>
	<path style="fill:#ACABB1;" d="M296.884,419.604L511.991,295.38l-0.005-1.859L296.078,418.208   c-5.119,2.955-9.896,3.455-13.453,1.409c-3.53-2.031-5.484-6.366-5.5-12.203c-0.036-12.475,8.77-27.725,19.627-33.994   l215.107-124.224l-0.005-1.859L295.947,372.023c-11.304,6.526-20.471,22.404-20.433,35.394c0.018,6.438,2.258,11.266,6.308,13.596   c1.691,0.973,3.601,1.457,5.659,1.457C290.385,422.47,293.585,421.508,296.884,419.604z"/>
	<path style="fill:#ACABB1;" d="M295.959,376.228c-9.286,5.361-16.817,18.405-16.786,29.076c0.015,5.32,1.874,9.314,5.233,11.247   c1.405,0.809,2.993,1.211,4.702,1.211c2.401,0,5.044-0.793,7.765-2.364l215.107-124.224l-0.005-1.859L296.067,414.003   c-4.139,2.39-7.995,2.799-10.857,1.153c-2.84-1.634-4.412-5.134-4.425-9.854c-0.028-10.157,7.14-22.573,15.981-27.676   l215.107-124.224l-0.005-1.859L295.959,376.228z"/>
	<path style="fill:#ACABB1;" d="M295.971,380.434c-7.268,4.196-13.163,14.406-13.139,22.759c0.011,4.203,1.488,7.363,4.158,8.899   c1.121,0.645,2.384,0.965,3.744,0.965c1.898,0,3.983-0.625,6.126-1.862l215.107-124.225l-0.005-1.859L296.054,409.799   c-3.16,1.824-6.093,2.143-8.26,0.895c-2.15-1.237-3.34-3.904-3.35-7.507c-0.022-7.839,5.51-17.419,12.333-21.359l215.107-124.224   l-0.005-1.859L295.971,380.434z"/>
</g>
<path style="fill:#3E3D43;" d="M263.796,128.812l-5.817,30.206l28.911-16.801l8.636,4.986l-44.083,25.618l-7.009-4.047l5.447-29.627  l-28.289,16.439l-8.636-4.986l44.145-25.654L263.796,128.812 M335.138,170.001l-30.287-17.486l-44.145,25.654l30.852,17.812  l7.524-4.373l-22.216-12.826l11.501-6.684l18.711,10.802l6.964-4.047l-18.712-10.802l10.632-6.178l21.651,12.5L335.138,170.001   M403.789,209.637l-9.389-5.421L347.502,216.9l8.481-11.454l27.654-7.301l-8.009-4.625l-19.618,5.601l9.606-11.382l-7.947-4.588  l-12.638,15.97l-19.619,5.024l21.68-27.244l-9.262-5.348l-26.185,36.023l7.259,4.191l26.228-6.324l-10.832,15.213l7.259,4.191  L403.789,209.637 M422.371,220.006c-2.253-1.301-4.66-2.342-7.223-3.125c-2.56-0.783-5.162-1.264-7.802-1.444  c-2.644-0.182-5.25-0.007-7.826,0.522c-2.575,0.529-4.982,1.444-7.22,2.745c-1.702,0.99-2.902,1.987-3.601,3  c-0.702,1.011-0.996,2.089-0.887,3.235c0.109,1.142,0.608,2.367,1.488,3.667c0.88,1.301,2.093,2.733,3.641,4.299  c1.253,1.301,2.38,2.482,3.389,3.541c1.003,1.06,1.756,2.022,2.261,2.89c0.502,0.867,0.693,1.651,0.573,2.349  c-0.12,0.698-0.657,1.324-1.61,1.878c-3.027,1.759-6.915,1.264-11.672-1.482c-1.711-0.987-3.175-2.07-4.386-3.251  c-1.212-1.18-2.185-2.332-2.918-3.45c-0.736-1.12-1.293-2.138-1.668-3.053c-0.38-0.915-0.571-1.59-0.576-2.024l-11.214,2.095  c0.76,2.554,2.274,5.059,4.533,7.515c2.259,2.459,5.056,4.648,8.396,6.576c2.168,1.252,4.482,2.313,6.94,3.18  c2.459,0.866,4.969,1.44,7.528,1.717c2.555,0.277,5.126,0.186,7.701-0.271c2.575-0.46,5.045-1.374,7.406-2.746  c2.03-1.18,3.407-2.367,4.129-3.559c0.718-1.192,0.961-2.434,0.727-3.723c-0.237-1.288-0.909-2.637-2.02-4.046  c-1.113-1.41-2.462-2.909-4.048-4.499c-1.258-1.204-2.331-2.282-3.233-3.233c-0.897-0.952-1.537-1.801-1.916-2.547  s-0.484-1.421-0.322-2.024c0.164-0.601,0.701-1.167,1.614-1.698c1.573-0.914,3.38-1.289,5.419-1.12  c2.039,0.169,4.248,0.939,6.627,2.313c1.333,0.77,2.482,1.626,3.443,2.565c0.961,0.939,1.755,1.868,2.388,2.783  c0.629,0.915,1.079,1.74,1.354,2.475c0.272,0.734,0.413,1.271,0.414,1.609l10.78-1.843c-0.635-1.905-1.778-3.896-3.432-5.981  C427.892,223.759,425.501,221.813,422.371,220.006"/>
<g>
</g>
<g>
</g>
<g>
</g>
<g>
</g>
<g>
</g>
<g>
</g>
<g>
</g>
<g>
</g>
<g>
</g>
<g>
</g>
<g>
</g>
<g>
</g>
<g>
</g>
<g>
</g>
<g>
</g>
</svg>
