<?xml version="1.0" encoding="iso-8859-1"?>
<!-- Generator: Adobe Illustrator 19.0.0, SVG Export Plug-In . SVG Version: 6.00 Build 0)  -->
<svg xmlns="http://www.w3.org/2000/svg" xmlns:xlink="http://www.w3.org/1999/xlink" version="1.1" id="Layer_1" x="0px" y="0px" viewBox="0 0 512 512" style="enable-background:new 0 0 512 512;" xml:space="preserve">
<g style="enable-background:new    ;">
	<g>
		<path style="fill:#7BCC92;" d="M511.977,264.783c0.51-26.313-16.632-52.746-51.41-72.826L271.271,82.666    C203.024,43.263,92.734,43.259,24.922,82.668L2.531,95.68c-1.69,0.982-2.532,2.268-2.53,3.556C0.001,99.231,0,99.227,0,99.223    v109.741c-0.004,1.3,0.542,2.602,2.26,3.593l75.949,43.849c5.071,2.928,13.27,2.933,18.309,0.005l41.289-23.994    c7.532-4.377,20.086-4.382,27.667-0.005l181.307,104.821l-0.202,70.985c-0.005,1.93,1.27,3.864,3.821,5.337l75.948,43.849    c3.421,1.975,9.249,1.975,12.64,0.005l22.391-13.012c33.686-19.576,50.237-45.192,50.31-70.847L512,263.809    C511.999,264.134,511.983,264.458,511.977,264.783z"/>
		<path style="fill:#7BCC92;" d="M0,208.965V99.223c-0.004,1.3,0.854,2.602,2.571,3.593L2.26,212.558    C0.543,211.566-0.003,210.265,0,208.965z"/>
	</g>
	<path style="fill:#378B4F;" d="M138.118,122.676L96.83,146.67l-0.312,109.742l41.289-23.994c7.532-4.377,20.086-4.382,27.667-0.005   V122.67C157.892,118.293,145.649,118.299,138.118,122.676z"/>
	<polygon style="fill:#4DBA69;" points="78.52,146.665 78.209,256.407 2.26,212.558 2.572,102.816  "/>
	<path style="fill:#7BCC92;" d="M96.829,146.67l-0.311,109.742c-5.038,2.928-13.238,2.923-18.309-0.005l0.311-109.741   C83.592,149.593,91.79,149.598,96.829,146.67z"/>
	<polygon style="fill:#4DBA69;" points="391.85,253.369 391.539,363.112 165.473,232.413 165.473,122.67  "/>
	<path style="fill:#40A559;" d="M397.563,261.35l-0.311,109.742c0.008-2.887-1.898-5.778-5.712-7.981l0.311-109.743   C395.665,255.572,397.571,258.463,397.563,261.35z"/>
	<path style="fill:#7BCC92;" d="M346.579,408.219l0.311-109.741c-0.005,1.93,1.27,3.864,3.821,5.337L350.4,413.556   C347.848,412.083,346.573,410.15,346.579,408.219z"/>
	<path style="fill:#378B4F;" d="M461.379,334.656l-22.391,13.012v109.743l22.391-13.012c33.686-19.576,50.237-45.192,50.31-70.847   L512,263.809C511.927,289.464,495.065,315.08,461.379,334.656z"/>
	<polygon style="fill:#4DBA69;" points="426.66,347.664 426.349,457.406 350.399,413.556 350.711,303.815  "/>
	<path style="fill:#65C27C;" d="M460.567,191.958c68.256,39.407,68.625,103.291,0.812,142.7l-22.391,13.012   c-3.391,1.971-8.908,1.971-12.329-0.005l-75.949-43.849c-5.071-2.928-5.098-7.672-0.06-10.6l41.289-23.994   c7.532-4.377,7.492-11.474-0.089-15.851L165.473,122.67c-7.581-4.377-19.824-4.372-27.355,0.005L96.829,146.67   c-5.038,2.928-13.238,2.923-18.309-0.005L2.572,102.816c-3.413-1.97-3.43-5.166-0.04-7.137l22.391-13.012   c67.811-39.408,178.101-39.403,246.348-0.001L460.567,191.958z"/>
	<path style="fill:#7BCC92;" d="M438.989,347.668V457.41c-3.391,1.971-9.219,1.971-12.64-0.005l0.311-109.741   C430.081,349.639,435.598,349.639,438.989,347.668z"/>
	<g>
		<path style="fill:#378B4F;" d="M47.572,156.236c-1.963-1.134-3.559-0.225-3.565,2.031c-0.006,2.256,1.579,5.001,3.542,6.135    c1.959,1.131,3.559,0.225,3.565-2.031C51.121,160.115,49.53,157.367,47.572,156.236 M33.395,148.051    c-1.963-1.134-3.559-0.225-3.565,2.031c-0.006,2.256,1.579,5.001,3.542,6.135c1.963,1.134,3.559,0.225,3.565-2.031    C36.943,151.93,35.358,149.185,33.395,148.051 M19.217,139.865c-1.963-1.134-3.559-0.225-3.565,2.031    c-0.006,2.256,1.579,5.001,3.542,6.135c1.963,1.134,3.559,0.225,3.565-2.031C22.765,143.744,21.181,140.999,19.217,139.865     M61.692,183.067c-1.963-1.134-3.559-0.225-3.565,2.031c-0.006,2.256,1.579,5.001,3.542,6.135    c1.963,1.134,3.559,0.225,3.565-2.031C65.24,186.945,63.655,184.2,61.692,183.067 M47.519,174.884    c-1.963-1.134-3.559-0.225-3.565,2.031c-0.006,2.256,1.579,5.001,3.542,6.135c1.959,1.131,3.559,0.225,3.565-2.031    S49.478,176.015,47.519,174.884 M33.342,166.698c-1.963-1.134-3.559-0.225-3.565,2.031c-0.006,2.256,1.579,5.001,3.542,6.135    c1.963,1.134,3.559,0.225,3.565-2.031C36.89,170.577,35.305,167.832,33.342,166.698 M19.164,158.514    c-1.963-1.134-3.559-0.225-3.565,2.031c-0.006,2.256,1.579,5.001,3.542,6.135c1.963,1.134,3.559,0.225,3.565-2.031    C22.713,162.392,21.128,159.647,19.164,158.514 M61.639,201.714c-1.963-1.134-3.559-0.225-3.565,2.031    c-0.006,2.256,1.579,5.001,3.542,6.135c1.963,1.134,3.559,0.225,3.565-2.031C65.187,205.592,63.602,202.847,61.639,201.714     M47.467,193.531c-1.963-1.134-3.559-0.225-3.565,2.031s1.579,5.001,3.542,6.135c1.959,1.131,3.559,0.225,3.565-2.031    S49.425,194.663,47.467,193.531 M33.288,185.346c-1.963-1.134-3.559-0.225-3.565,2.031c-0.006,2.256,1.579,5.001,3.542,6.135    s3.559,0.225,3.565-2.031C36.837,189.225,35.253,186.479,33.288,185.346 M19.111,177.161c-1.963-1.134-3.559-0.225-3.565,2.031    c-0.006,2.256,1.579,5.001,3.542,6.135s3.559,0.225,3.565-2.031C22.66,181.039,21.075,178.294,19.111,177.161 M61.586,220.362    c-1.963-1.134-3.559-0.219-3.565,2.031c-0.006,2.256,1.579,5.007,3.542,6.14c1.963,1.134,3.559,0.219,3.565-2.037    C65.135,224.246,63.55,221.496,61.586,220.362 M47.413,212.179c-1.963-1.134-3.559-0.219-3.565,2.031    c-0.006,2.256,1.579,5.007,3.542,6.14c1.959,1.131,3.559,0.219,3.565-2.036C50.962,216.063,49.372,213.31,47.413,212.179     M33.236,203.994c-1.963-1.134-3.559-0.219-3.565,2.031c-0.006,2.256,1.579,5.007,3.542,6.14c1.963,1.134,3.559,0.219,3.565-2.036    C36.785,207.878,35.2,205.127,33.236,203.994 M19.059,195.808c-1.963-1.134-3.559-0.219-3.565,2.031    c-0.006,2.256,1.579,5.007,3.542,6.14c1.963,1.134,3.559,0.219,3.565-2.036C22.607,199.693,21.022,196.942,19.059,195.808     M61.745,164.418c-1.963-1.134-3.559-0.225-3.565,2.031c-0.006,2.256,1.579,5.001,3.542,6.135    c1.963,1.134,3.559,0.225,3.565-2.031C65.293,168.298,63.708,165.552,61.745,164.418"/>
		<path style="fill:#378B4F;" d="M395.711,355.614c-1.963-1.134-3.559-0.225-3.565,2.031c-0.006,2.256,1.579,5.001,3.542,6.135    c1.959,1.131,3.559,0.225,3.565-2.031S397.67,356.744,395.711,355.614 M381.534,347.428c-1.963-1.134-3.559-0.225-3.565,2.031    s1.579,5.001,3.542,6.135c1.963,1.134,3.559,0.225,3.565-2.031C385.083,351.307,383.497,348.562,381.534,347.428 M367.357,339.242    c-1.963-1.134-3.559-0.225-3.565,2.031c-0.006,2.256,1.579,5.001,3.542,6.135s3.559,0.225,3.565-2.031    C370.905,343.122,369.32,340.376,367.357,339.242 M409.832,382.444c-1.963-1.134-3.559-0.225-3.565,2.031    c-0.006,2.256,1.579,5.001,3.542,6.135c1.963,1.134,3.559,0.225,3.565-2.031C413.379,386.322,411.795,383.577,409.832,382.444     M395.659,374.261c-1.963-1.134-3.559-0.225-3.565,2.031c-0.006,2.256,1.579,5.001,3.542,6.135    c1.959,1.131,3.559,0.225,3.565-2.031C399.207,378.14,397.617,375.391,395.659,374.261 M381.482,366.075    c-1.963-1.134-3.559-0.225-3.565,2.031c-0.006,2.256,1.579,5.001,3.542,6.135c1.963,1.134,3.559,0.225,3.565-2.031    C385.03,369.955,383.445,367.209,381.482,366.075 M367.304,357.89c-1.963-1.134-3.559-0.225-3.565,2.031    c-0.006,2.256,1.579,5.001,3.542,6.135c1.963,1.134,3.559,0.225,3.565-2.031C370.852,361.769,369.267,359.024,367.304,357.89     M409.779,401.091c-1.963-1.134-3.559-0.225-3.565,2.031c-0.006,2.256,1.579,5.001,3.542,6.135    c1.963,1.134,3.559,0.225,3.565-2.031C413.327,404.97,411.742,402.224,409.779,401.091 M395.606,392.908    c-1.963-1.134-3.559-0.225-3.565,2.031c-0.006,2.256,1.579,5.001,3.542,6.135c1.959,1.131,3.559,0.225,3.565-2.031    C399.154,396.787,397.565,394.04,395.606,392.908 M381.429,384.723c-1.963-1.134-3.559-0.225-3.565,2.031    c-0.006,2.256,1.579,5.001,3.542,6.135c1.963,1.134,3.559,0.225,3.565-2.031C384.977,388.602,383.392,385.857,381.429,384.723     M367.251,376.538c-1.963-1.134-3.559-0.225-3.565,2.031c-0.006,2.256,1.579,5.001,3.542,6.135    c1.963,1.134,3.559,0.225,3.565-2.031C370.8,380.416,369.215,377.671,367.251,376.538 M409.725,419.739    c-1.963-1.134-3.559-0.219-3.565,2.031c-0.006,2.256,1.579,5.007,3.542,6.14c1.963,1.134,3.559,0.219,3.565-2.037    C413.274,423.623,411.689,420.873,409.725,419.739 M395.553,411.556c-1.963-1.134-3.559-0.219-3.565,2.031    c-0.006,2.256,1.579,5.007,3.542,6.14c1.959,1.131,3.559,0.219,3.565-2.037C399.101,415.44,397.512,412.687,395.553,411.556     M381.375,403.371c-1.963-1.134-3.559-0.219-3.565,2.031c-0.006,2.256,1.579,5.007,3.542,6.14    c1.963,1.134,3.559,0.219,3.565-2.036C384.924,407.255,383.339,404.504,381.375,403.371 M367.198,395.186    c-1.963-1.134-3.559-0.219-3.565,2.031c-0.006,2.256,1.579,5.007,3.542,6.14c1.963,1.134,3.559,0.219,3.565-2.036    C370.747,399.07,369.161,396.319,367.198,395.186 M409.884,363.796c-1.963-1.134-3.559-0.225-3.565,2.031    c-0.006,2.256,1.579,5.001,3.542,6.135c1.963,1.134,3.559,0.225,3.565-2.031C413.433,367.675,411.848,364.93,409.884,363.796"/>
	</g>
</g>
<g>
</g>
<g>
</g>
<g>
</g>
<g>
</g>
<g>
</g>
<g>
</g>
<g>
</g>
<g>
</g>
<g>
</g>
<g>
</g>
<g>
</g>
<g>
</g>
<g>
</g>
<g>
</g>
<g>
</g>
</svg>
