<?xml version="1.0" encoding="iso-8859-1"?>
<!-- Generator: Adobe Illustrator 19.0.0, SVG Export Plug-In . SVG Version: 6.00 Build 0)  -->
<svg xmlns="http://www.w3.org/2000/svg" xmlns:xlink="http://www.w3.org/1999/xlink" version="1.1" id="Layer_1" x="0px" y="0px" viewBox="0 0 512 512" style="enable-background:new 0 0 512 512;" xml:space="preserve">
<polygon style="fill:#ACABB1;" points="503.835,110.921 437.743,72.763 329.596,135.611 297.48,117.069 280.92,202.186   280.73,269.193 427.618,259.32 427.723,222.049 503.645,177.928 "/>
<polygon style="fill:#898890;" points="503.835,110.921 503.645,177.928 395.498,240.776 395.689,173.769 "/>
<polygon style="fill:#ACABB1;" points="427.807,192.314 427.618,259.32 280.73,269.193 280.92,202.186 "/>
<polygon style="fill:#C6C5CB;" points="503.835,110.921 395.689,173.769 427.807,192.314 280.92,202.186 297.48,117.069   329.596,135.611 437.743,72.763 "/>
<polygon style="fill:#ACABB1;" points="435.354,252.957 288.926,243.124 288.737,309.87 306.186,394.657 337.973,376.185   446.402,438.786 511.811,400.776 512,334.029 435.249,289.717 "/>
<g>
	<polygon style="fill:#898890;" points="435.354,252.957 435.165,319.704 403.382,338.174 403.571,271.427  "/>
	<polygon style="fill:#898890;" points="338.163,309.438 337.973,376.185 306.186,394.657 306.376,327.911  "/>
</g>
<g>
	<polygon style="fill:#ACABB1;" points="306.376,327.911 306.186,394.657 288.737,309.87 288.926,243.124  "/>
	<polygon style="fill:#ACABB1;" points="446.592,372.04 446.402,438.786 337.973,376.185 338.163,309.438  "/>
</g>
<polygon style="fill:#898890;" points="512,334.029 511.811,400.776 446.402,438.786 446.592,372.04 "/>
<polygon style="fill:#C6C5CB;" points="435.354,252.957 403.571,271.427 512,334.029 446.592,372.04 338.163,309.438   306.376,327.911 288.926,243.124 "/>
<g>
	<polygon style="fill:#ACABB1;" points="179.75,135.78 71.418,73.234 6.07,111.209 5.882,178.214 82.56,222.485 82.456,258.899    228.759,268.722 228.948,202.034 211.509,117.324  "/>
	<polygon style="fill:#ACABB1;" points="114.404,173.756 114.215,240.76 5.882,178.214 6.07,111.209  "/>
</g>
<polygon style="fill:#898890;" points="228.948,202.034 228.758,268.722 82.456,258.899 82.645,192.211 "/>
<polygon style="fill:#C6C5CB;" points="211.509,117.324 228.948,202.034 82.645,192.211 114.404,173.756 6.07,111.209   71.418,73.234 179.75,135.78 "/>
<g>
	<polygon style="fill:#ACABB1;" points="76.165,289.848 0.19,333.999 0,401.052 66.138,439.237 174.36,376.346 206.498,394.9    223.073,309.726 223.263,242.673 76.271,252.551  "/>
	<polygon style="fill:#ACABB1;" points="108.412,271.108 108.222,338.161 76.081,319.604 76.271,252.551  "/>
	<polygon style="fill:#ACABB1;" points="206.688,327.847 206.498,394.9 174.36,376.346 174.55,309.292  "/>
</g>
<polygon style="fill:#898890;" points="223.263,242.673 223.073,309.726 206.498,394.9 206.688,327.847 "/>
<polygon style="fill:#ACABB1;" points="66.328,372.184 66.138,439.237 0,401.052 0.19,333.999 "/>
<polygon style="fill:#898890;" points="174.55,309.292 174.36,376.346 66.138,439.237 66.328,372.184 "/>
<polygon style="fill:#C6C5CB;" points="223.263,242.673 206.688,327.847 174.55,309.292 66.328,372.184 0.19,333.999   108.412,271.108 76.271,252.551 "/>
<g>
</g>
<g>
</g>
<g>
</g>
<g>
</g>
<g>
</g>
<g>
</g>
<g>
</g>
<g>
</g>
<g>
</g>
<g>
</g>
<g>
</g>
<g>
</g>
<g>
</g>
<g>
</g>
<g>
</g>
</svg>
