<?xml version="1.0" encoding="iso-8859-1"?>
<!-- Generator: Adobe Illustrator 19.0.0, SVG Export Plug-In . SVG Version: 6.00 Build 0)  -->
<svg xmlns="http://www.w3.org/2000/svg" xmlns:xlink="http://www.w3.org/1999/xlink" version="1.1" id="Layer_1" x="0px" y="0px" viewBox="0 0 511.999 511.999" style="enable-background:new 0 0 511.999 511.999;" xml:space="preserve">
<path style="fill:#FECE00;" d="M472.497,200.548L282.747,90.277l-0.211-45.289L205.158,0l-20.834,12.029l0.101,21.795  l-20.244,11.687l0,0l0.482,169.986L56.451,152.609l-17.778,22.697l127.864,167.587c0.434,0.565,0.941,1.012,1.508,1.342  L455.527,511.3c-0.166-0.096-0.316-0.225-0.471-0.342c1.996,1.497,4.879,1.352,7.886-0.385c0.937-0.541,1.875-1.227,2.801-2.06  c4.496-4.034,7.597-10.549,7.582-15.923L472.497,200.548z"/>
<g style="enable-background:new    ;">
	<path style="fill:#FECE00;" d="M455.528,511.301L168.046,344.235c-0.566-0.329-1.074-0.776-1.508-1.342l287.481,167.065   C454.453,510.525,454.96,510.971,455.528,511.301z"/>
	<polygon style="fill:#FEDA44;" points="451.663,212.576 164.182,45.511 185.016,33.482 472.498,200.548  "/>
	<polygon style="fill:#EEBF00;" points="451.664,212.576 261.913,102.306 261.702,57.016 184.323,12.029 184.534,57.338    164.182,45.511 164.888,294.725 452.37,461.79  "/>
	<polygon style="fill:#FEDA44;" points="326.154,342.373 38.674,175.307 56.451,152.609 343.932,319.676  "/>
	<polygon style="fill:#FECE00;" points="454.019,509.959 166.538,342.894 38.674,175.307 326.154,342.373  "/>
	<path style="fill:#DDB201;" d="M472.498,200.548l0.828,292.043c0.016,5.375-3.086,11.889-7.582,15.923   c-0.927,0.835-1.863,1.519-2.801,2.061c-3.572,2.063-6.985,1.911-8.923-0.615L326.154,342.373l17.778-22.697l108.437,142.116   l-0.706-249.214L472.498,200.548z"/>
</g>
<g style="enable-background:new    ;">
	<polygon style="fill:#FEDA44;" points="261.702,57.016 184.323,12.029 205.158,0 282.537,44.987  "/>
	<polygon style="fill:#FECE00;" points="282.537,44.987 282.748,90.314 261.913,102.343 261.702,57.016  "/>
</g>
<g>
</g>
<g>
</g>
<g>
</g>
<g>
</g>
<g>
</g>
<g>
</g>
<g>
</g>
<g>
</g>
<g>
</g>
<g>
</g>
<g>
</g>
<g>
</g>
<g>
</g>
<g>
</g>
<g>
</g>
</svg>
