<?xml version="1.0" encoding="iso-8859-1"?>
<!-- Generator: Adobe Illustrator 19.0.0, SVG Export Plug-In . SVG Version: 6.00 Build 0)  -->
<svg xmlns="http://www.w3.org/2000/svg" xmlns:xlink="http://www.w3.org/1999/xlink" version="1.1" id="Layer_1" x="0px" y="0px" viewBox="0 0 512 512" style="enable-background:new 0 0 512 512;" xml:space="preserve">
<g>
	<path style="fill:#016EF1;" d="M511.967,201.394c0.752-38.641-24.417-77.461-75.488-106.947   c-97.916-56.531-259.891-59.2-361.763,0.002C25.087,123.29,0.329,161.061,0.381,198.86c0-0.121-0.007-0.241-0.006-0.363L0,312.058   c-0.109,38.163,25.08,76.384,75.513,105.501c100.228,57.866,262.203,57.865,361.779-0.002   c49.467-28.746,74.226-66.365,74.334-104.04L512,199.957C511.998,200.437,511.976,200.915,511.967,201.394z"/>
	<path style="fill:#016EF1;" d="M512,199.957l-0.374,113.56c-0.107,37.676-24.868,75.294-74.334,104.04   c-99.576,57.867-261.552,57.867-361.779,0.002C25.08,388.441-0.107,350.221,0,312.058l0.374-113.559   C0.267,236.66,25.454,274.882,75.888,304c100.228,57.866,262.202,57.865,361.779-0.002   C487.133,275.252,511.893,237.633,512,199.957z"/>
</g>
<path style="fill:#2487FF;" d="M436.292,94.447c100.228,57.866,100.764,151.684,1.187,209.551  C337.904,361.865,175.928,361.865,75.7,304S-25.047,152.315,74.529,94.449C176.401,35.247,338.376,37.915,436.292,94.447z"/>
<path style="fill:#FFFFFF;" d="M413.731,104.866c0.305-7.501-4.492-15.068-14.409-20.793c-19.153-11.058-50.114-11.058-69.149,0.004  c-9.488,5.514-14.219,12.734-14.21,19.959c0-0.023-0.003-0.045-0.003-0.068l-0.103,36.406l-60.804-35.105l-34.189,19.869  l-0.094,33.06l-92.415,53.706L100.4,195.763l-34.189,19.869l-0.103,36.485l105.674,61.011l34.189-19.869l0.092-32.446l92.946-54.014  l34.189-19.869l0.07-24.739c19.267,9.451,48.097,8.931,66.175-1.576c9.456-5.495,14.191-12.687,14.211-19.89l0.103-36.485  C413.757,104.451,413.739,104.658,413.731,104.866z"/>
<g style="enable-background:new    ;">
	<path style="fill:#D8D8DA;" d="M413.758,104.242l-0.103,36.485c-0.021,7.202-4.754,14.393-14.211,19.89   c-19.036,11.062-49.996,11.062-69.157,0c-9.637-5.564-14.451-12.869-14.43-20.163l0.103-36.485   c-0.021,7.294,4.793,14.599,14.43,20.163c19.16,11.062,50.121,11.062,69.157,0C409.004,118.636,413.737,111.444,413.758,104.242z"/>
	<path style="fill:#FFFFFF;" d="M399.322,84.073c19.16,11.062,19.261,28.996,0.226,40.058s-49.996,11.062-69.157,0   c-19.153-11.058-19.254-28.992-0.218-40.054C349.208,73.015,380.169,73.015,399.322,84.073z"/>
</g>
<g style="enable-background:new    ;">
	<polygon style="fill:#E0E0E2;" points="249.355,141.587 249.251,178.072 220.761,161.623 220.865,125.138  "/>
	<polygon style="fill:#D8D8DA;" points="299.112,170.315 178.114,240.632 178.01,277.116 299.009,206.799 333.197,186.931    333.301,150.447  "/>
	<polygon style="fill:#E0E0E2;" points="171.886,276.643 171.783,313.128 66.109,252.118 66.212,215.633  "/>
	<polygon style="fill:#D8D8DA;" points="206.075,256.776 205.972,293.259 171.783,313.128 171.886,276.643  "/>
	<polygon style="fill:#FFFFFF;" points="333.301,150.447 299.113,170.315 178.114,240.632 206.075,256.776 171.886,276.643    66.212,215.633 100.401,195.764 128.356,211.904 249.355,141.587 220.865,125.138 255.054,105.27  "/>
</g>
<g>
</g>
<g>
</g>
<g>
</g>
<g>
</g>
<g>
</g>
<g>
</g>
<g>
</g>
<g>
</g>
<g>
</g>
<g>
</g>
<g>
</g>
<g>
</g>
<g>
</g>
<g>
</g>
<g>
</g>
</svg>
