<?xml version="1.0" encoding="iso-8859-1"?>
<!-- Generator: Adobe Illustrator 19.0.0, SVG Export Plug-In . SVG Version: 6.00 Build 0)  -->
<svg xmlns="http://www.w3.org/2000/svg" xmlns:xlink="http://www.w3.org/1999/xlink" version="1.1" id="Layer_1" x="0px" y="0px" viewBox="0 0 512 512" style="enable-background:new 0 0 512 512;" xml:space="preserve">
<path style="fill:#FECE00;" d="M475.96,436.315L313.204,30.946c-5.046-12.564-13.652-22.358-22.27-27.334  c-6.711-3.875-13.431-4.829-18.482-1.892l-67.935,39.479c0.118-0.069,0.241-0.124,0.36-0.188c-1.577,0.847-3.004,2.049-4.225,3.655  L36.131,261.081c-10.572,13.897,1.871,46.616,22.18,58.342l327.277,188.954c7.524,4.345,13.984,4.563,18.608,1.802  c-0.042,0.025-0.078,0.057-0.121,0.082l67.935-39.479C479.964,466.158,482.575,452.792,475.96,436.315z"/>
<path style="fill:#EEBF00;" d="M472.009,470.781l-67.935,39.48c7.955-4.623,10.565-17.989,3.951-34.465l67.935-39.48  C482.575,452.79,479.965,466.158,472.009,470.781z"/>
<g>
	<path style="fill:#FECE00;" d="M204.515,41.198l67.935-39.48c5.052-2.936,11.771-1.982,18.482,1.892l-67.935,39.48   C216.286,39.216,209.567,38.262,204.515,41.198z"/>
	<polygon style="fill:#FECE00;" points="245.269,70.424 313.204,30.946 475.96,436.315 408.025,475.794  "/>
</g>
<path style="fill:#FFE577;" d="M222.997,43.091l67.935-39.48c8.618,4.976,17.224,14.77,22.27,27.334l-67.935,39.48  C240.223,57.86,231.617,48.066,222.997,43.091z"/>
<path style="fill:#FFDE56;" d="M222.997,43.091c8.618,4.976,17.224,14.77,22.27,27.334l162.758,405.37  c10.451,26.035-2.13,44.306-22.437,32.581L58.311,319.422c-20.309-11.725-32.753-44.444-22.18-58.342l164.52-216.415  C205.748,37.957,214.379,38.115,222.997,43.091z"/>
<polygon points="207.707,108.896 182.896,123.315 182.896,277.738 222.474,300.842 247.724,286.423 247.724,131.999 "/>
<polygon points="182.345,317.539 182.198,369.358 222.361,392.461 247.026,378.043 247.173,326.223 207.156,303.12 "/>
<polygon style="fill:#3E3D43;" points="182.896,123.315 207.707,108.896 247.724,131.999 222.912,146.419 "/>
<polygon style="fill:#1D1D1F;" points="222.912,146.419 247.724,131.999 247.724,286.423 222.474,300.842 "/>
<polygon style="fill:#2E2E30;" points="182.896,123.315 222.912,146.419 222.474,300.842 182.896,277.738 "/>
<polygon style="fill:#3E3D43;" points="182.345,317.539 207.156,303.12 247.173,326.223 222.361,340.643 "/>
<polygon style="fill:#1D1D1F;" points="222.361,340.643 247.173,326.223 247.026,378.043 222.361,392.461 "/>
<polygon style="fill:#2E2E30;" points="182.198,369.358 182.345,317.539 222.361,340.643 222.361,392.461 "/>
<g>
</g>
<g>
</g>
<g>
</g>
<g>
</g>
<g>
</g>
<g>
</g>
<g>
</g>
<g>
</g>
<g>
</g>
<g>
</g>
<g>
</g>
<g>
</g>
<g>
</g>
<g>
</g>
<g>
</g>
</svg>
