<?xml version="1.0" encoding="iso-8859-1"?>
<!-- Generator: Adobe Illustrator 19.0.0, SVG Export Plug-In . SVG Version: 6.00 Build 0)  -->
<svg xmlns="http://www.w3.org/2000/svg" xmlns:xlink="http://www.w3.org/1999/xlink" version="1.1" id="Layer_1" x="0px" y="0px" viewBox="0 0 512 512" style="enable-background:new 0 0 512 512;" xml:space="preserve">
<path style="fill:#8FCC05;" d="M506.376,111.748c-22.687-13.098-262.252,5.951-370.522,68.87S62.587,303.985,119.269,336.71  c56.688,32.728,161.158,52.806,269.428-10.114S525.779,122.949,506.376,111.748"/>
<g>
	<polyline style="fill:#CCFB5D;" points="364.211,144.55 352.344,200.764 366.671,192.439 364.211,144.55  "/>
	<polyline style="fill:#CCFB5D;" points="276.233,174.525 282.631,241.277 296.959,232.952 276.233,174.525  "/>
	<polyline style="fill:#CCFB5D;" points="182.208,201.001 212.919,281.79 227.239,273.467 182.208,201.001  "/>
</g>
<g>
	<polyline style="fill:#9CDD03;" points="449.353,193.707 366.671,192.439 352.344,200.764 449.353,193.707  "/>
	<polyline style="fill:#9CDD03;" points="397.893,244.765 296.959,232.952 282.631,241.277 397.893,244.765  "/>
	<polyline style="fill:#9CDD03;" points="352.493,299.314 227.239,273.467 212.919,281.79 352.493,299.314  "/>
	<path style="fill:#9CDD03;" d="M4.309,368.494c-0.045,0.024-0.093,0.043-0.137,0.068c-0.007,0.003-0.028,0.015-0.028,0.015   c0.008-0.004,0.018-0.007,0.025-0.013c-2.564,1.476-4.157,4.631-4.169,9.124c-0.026,9.017,6.312,19.994,14.159,24.525   c4.195,2.422,7.96,2.49,10.57,0.669c-0.154,0.108-0.3,0.228-0.462,0.322c0,0,415.003-244.15,412.528-245.966   C432.889,154.981,13.323,364.004,4.309,368.494z"/>
</g>
<path style="fill:#CCFB5D;" d="M4.144,368.576c0,0,428.702-213.62,432.65-211.34L14.251,369.567  C10.303,367.287,6.727,367.076,4.144,368.576z"/>
<path style="fill:#9CDD03;" d="M24.267,403.202c2.55-1.482,4.13-4.632,4.143-9.112c0.025-9.013-6.315-19.995-14.158-24.524  l422.543-212.331C439.27,159.052,24.267,403.202,24.267,403.202z"/>
<path style="fill:#B3FA08;" d="M14.251,369.567c7.844,4.529,14.184,15.51,14.158,24.524c-0.025,9.017-6.407,12.651-14.251,8.122  C6.312,397.682-0.025,386.705,0,377.688C0.026,368.674,6.404,365.036,14.251,369.567z"/>
<g>
</g>
<g>
</g>
<g>
</g>
<g>
</g>
<g>
</g>
<g>
</g>
<g>
</g>
<g>
</g>
<g>
</g>
<g>
</g>
<g>
</g>
<g>
</g>
<g>
</g>
<g>
</g>
<g>
</g>
</svg>
