<?xml version="1.0" encoding="iso-8859-1"?>
<!-- Generator: Adobe Illustrator 19.0.0, SVG Export Plug-In . SVG Version: 6.00 Build 0)  -->
<svg xmlns="http://www.w3.org/2000/svg" xmlns:xlink="http://www.w3.org/1999/xlink" version="1.1" id="Layer_1" x="0px" y="0px" viewBox="0 0 512 512" style="enable-background:new 0 0 512 512;" xml:space="preserve">
<g>
	<path style="fill:#424EDE;" d="M381.625,130.57c-86.52-49.952-199.691-74.928-312.717-74.932l0.406,71.947L69.022,230.9   c81.238-0.001,162.584,17.953,224.771,53.857s93.439,82.959,93.703,130.015h124.211L512,311.458   C511.624,245.989,468.145,180.523,381.625,130.57z"/>
	<polygon style="fill:#424EDE;" points="69.314,127.586 69.022,230.9 68.615,158.953 68.908,55.639  "/>
</g>
<path style="fill:#3340DC;" d="M387.789,311.458l-0.293,103.314c-0.264-47.056-31.517-94.111-93.703-130.015  S150.26,230.9,69.022,230.9l0.293-103.314c81.238,0,162.584,17.953,224.771,53.857C356.272,217.346,387.525,264.402,387.789,311.458  z"/>
<polygon style="fill:#424EDE;" points="69.901,231.733 69.608,335.047 69.25,271.397 69.542,168.082 "/>
<polygon style="fill:#2732D9;" points="512,311.458 511.708,414.772 387.496,414.772 387.789,311.458 "/>
<path style="fill:#515BE1;" d="M381.625,130.57C468.145,180.523,511.624,245.989,512,311.458H387.789  c-0.265-47.056-31.517-94.111-93.704-130.015c-62.186-35.904-143.533-53.857-224.771-53.857l-0.406-71.947  C181.934,55.643,295.105,80.618,381.625,130.57z"/>
<path style="fill:#424EDE;" d="M244.81,210.078c-48.495-27.998-111.921-41.996-175.268-41.996l0.066,166.964  c35.222,0.004,70.497,7.788,97.459,23.355c26.961,15.566,40.515,35.973,40.63,56.371l109.893,0.003l0.293-103.314  C317.677,274.769,293.298,238.073,244.81,210.078z"/>
<path style="fill:#3340DC;" d="M207.99,311.459l-0.293,103.314c-0.115-20.397-13.668-40.804-40.63-56.371  s-62.236-23.35-97.459-23.355l0.293-103.314c35.222,0.004,70.497,7.789,97.46,23.355  C194.322,270.655,207.875,291.061,207.99,311.459z"/>
<polygon style="fill:#2732D9;" points="317.883,311.462 317.591,414.776 207.697,414.773 207.99,311.459 "/>
<path style="fill:#515BE1;" d="M69.542,168.082c63.348,0,126.774,13.997,175.268,41.995c48.486,27.994,72.867,64.692,73.073,101.384  l-109.893-0.003c-0.115-20.397-13.668-40.804-40.63-56.371c-26.961-15.567-62.236-23.35-97.46-23.355L69.542,168.082z"/>
<path style="fill:#424EDE;" d="M142.1,313.083c0.447-10.884-6.511-21.862-20.897-30.168c-27.787-16.042-72.689-16.038-100.296,0.005  c-13.76,7.997-20.624,18.47-20.611,28.95c0-0.033-0.004-0.066-0.004-0.099L0,415.083c-0.03,10.579,6.952,21.174,20.932,29.246  c27.788,16.043,72.698,16.043,100.306-0.001c13.714-7.969,20.579-18.401,20.61-28.846l0.293-103.314  C142.14,312.472,142.112,312.778,142.1,313.083z"/>
<path style="fill:#2732D9;" d="M142.141,312.167l-0.293,103.314c-0.029,10.447-6.895,20.877-20.61,28.846  c-27.607,16.044-72.518,16.044-100.306,0.001C6.952,436.257-0.03,425.662,0,415.083l0.293-103.314  c-0.03,10.579,6.952,21.174,20.932,29.246c27.788,16.043,72.698,16.043,100.306-0.001  C135.245,333.044,142.11,322.613,142.141,312.167z"/>
<path style="fill:#515BE1;" d="M121.203,282.913c27.788,16.043,27.934,42.057,0.328,58.1  c-27.607,16.043-72.517,16.044-100.306,0.001c-27.787-16.043-27.926-42.052-0.318-58.095  C48.514,266.875,93.416,266.871,121.203,282.913z"/>
<g>
</g>
<g>
</g>
<g>
</g>
<g>
</g>
<g>
</g>
<g>
</g>
<g>
</g>
<g>
</g>
<g>
</g>
<g>
</g>
<g>
</g>
<g>
</g>
<g>
</g>
<g>
</g>
<g>
</g>
</svg>
