<?xml version="1.0" encoding="iso-8859-1"?>
<!-- Generator: Adobe Illustrator 19.0.0, SVG Export Plug-In . SVG Version: 6.00 Build 0)  -->
<svg xmlns="http://www.w3.org/2000/svg" xmlns:xlink="http://www.w3.org/1999/xlink" version="1.1" id="Layer_1" x="0px" y="0px" viewBox="0 0 512 512" style="enable-background:new 0 0 512 512;" xml:space="preserve">
<polygon style="fill:#3E3D43;" points="446.861,166.714 313.339,244.31 313.399,222.822 230.264,41.663 0.375,175.26 0,307.676   216.857,340.627 216.596,432.729 282.111,470.337 512,336.74 512,204.324 "/>
<polygon style="fill:#2E2E30;" points="313.399,222.822 313.024,355.24 0,307.676 0.375,175.26 "/>
<polygon style="fill:#3E3D43;" points="230.264,41.663 313.399,222.822 0.375,175.26 "/>
<polygon style="fill:#2E2E30;" points="45.215,166.737 223.449,63.16 287.904,203.613 "/>
<polygon style="fill:#1D1D1F;" points="512,204.324 512,336.74 282.111,470.337 282.111,337.92 "/>
<polygon style="fill:#2E2E30;" points="282.111,337.92 282.111,470.337 216.596,432.729 216.972,300.312 "/>
<polygon style="fill:#3E3D43;" points="512,204.324 282.111,337.92 216.972,300.312 446.861,166.714 "/>
<polygon style="fill:#2E2E30;" points="247.22,300.269 446.886,184.236 481.751,204.366 282.087,320.399 "/>
<g>
</g>
<g>
</g>
<g>
</g>
<g>
</g>
<g>
</g>
<g>
</g>
<g>
</g>
<g>
</g>
<g>
</g>
<g>
</g>
<g>
</g>
<g>
</g>
<g>
</g>
<g>
</g>
<g>
</g>
</svg>
