<?xml version="1.0" encoding="iso-8859-1"?>
<!-- Generator: Adobe Illustrator 19.0.0, SVG Export Plug-In . SVG Version: 6.00 Build 0)  -->
<svg xmlns="http://www.w3.org/2000/svg" xmlns:xlink="http://www.w3.org/1999/xlink" version="1.1" id="Layer_1" x="0px" y="0px" viewBox="0 0 512 512" style="enable-background:new 0 0 512 512;" xml:space="preserve">
<g>
	<polygon style="fill:#8FCC05;" points="452.358,105.561 239.782,227.587 159.75,88.957 99.72,123.167 0,181.118 139.674,423.043    412.28,266.806 512,208.856  "/>
	<polygon style="fill:#8FCC05;" points="0,181.118 99.72,123.167 159.75,88.957 60.031,146.908  "/>
</g>
<polygon style="fill:#B3FA08;" points="60.031,146.908 159.75,88.957 239.782,227.587 140.063,285.537 "/>
<polygon style="fill:#C3FB3A;" points="352.639,163.512 452.358,105.561 512,208.856 412.28,266.806 "/>
<polygon style="fill:#B3FA08;" points="140.063,285.537 239.782,227.587 452.358,105.561 352.639,163.512 "/>
<polygon style="fill:#8FCC05;" points="352.639,163.512 412.28,266.806 139.674,423.043 0,181.118 60.031,146.908 140.063,285.537   "/>
<g>
</g>
<g>
</g>
<g>
</g>
<g>
</g>
<g>
</g>
<g>
</g>
<g>
</g>
<g>
</g>
<g>
</g>
<g>
</g>
<g>
</g>
<g>
</g>
<g>
</g>
<g>
</g>
<g>
</g>
</svg>
