<?xml version="1.0" encoding="iso-8859-1"?>
<!-- Generator: Adobe Illustrator 19.0.0, SVG Export Plug-In . SVG Version: 6.00 Build 0)  -->
<svg xmlns="http://www.w3.org/2000/svg" xmlns:xlink="http://www.w3.org/1999/xlink" version="1.1" id="Layer_1" x="0px" y="0px" viewBox="0 0 512 512" style="enable-background:new 0 0 512 512;" xml:space="preserve">
<polygon style="fill:#AD2201;" points="464.446,214.018 397.17,97.484 312.468,145.744 228.323,0 160.601,38.593 48.105,103.968   131.841,248.996 47.554,297.978 114.837,414.516 199.532,366.251 283.685,512 351.399,473.402 463.895,408.027 380.163,262.998 "/>
<polygon style="fill:#C60024;" points="47.554,297.978 160.051,232.603 244.753,184.342 132.257,249.717 "/>
<polygon style="fill:#891D00;" points="267.255,327.658 379.75,262.283 463.895,408.027 351.399,473.402 "/>
<polygon style="fill:#C60024;" points="48.105,103.968 160.601,38.593 228.323,0 115.827,65.375 "/>
<polygon style="fill:#CD2A01;" points="115.827,65.375 228.323,0 312.467,145.744 199.972,211.12 "/>
<polygon style="fill:#FF5023;" points="284.674,162.859 397.17,97.484 464.446,214.018 351.949,279.393 "/>
<polygon style="fill:#FF3502;" points="199.972,211.12 312.467,145.744 397.17,97.484 284.674,162.859 "/>
<polygon style="fill:#AD2201;" points="284.674,162.859 351.949,279.393 267.255,327.658 351.399,473.402 283.685,512   199.532,366.251 114.837,414.516 47.554,297.978 132.257,249.717 48.105,103.968 115.827,65.375 199.972,211.12 "/>
<g>
</g>
<g>
</g>
<g>
</g>
<g>
</g>
<g>
</g>
<g>
</g>
<g>
</g>
<g>
</g>
<g>
</g>
<g>
</g>
<g>
</g>
<g>
</g>
<g>
</g>
<g>
</g>
<g>
</g>
</svg>
