<?xml version="1.0" encoding="iso-8859-1"?>
<!-- Generator: Adobe Illustrator 19.0.0, SVG Export Plug-In . SVG Version: 6.00 Build 0)  -->
<svg xmlns="http://www.w3.org/2000/svg" xmlns:xlink="http://www.w3.org/1999/xlink" version="1.1" id="Layer_1" x="0px" y="0px" viewBox="0 0 512.001 512.001" style="enable-background:new 0 0 512.001 512.001;" xml:space="preserve">
<polygon style="fill:#2E2E30;" points="190.241,108.595 99.662,161.234 99.662,383.772 321.76,512.001 411.708,459.363   412.338,236.824 "/>
<polygon style="fill:#1D1D1F;" points="321.76,289.462 412.338,236.824 411.708,459.363 321.76,512.001 "/>
<polygon style="fill:#3E3D43;" points="99.662,161.233 190.241,108.595 412.338,236.824 321.76,289.462 "/>
<g>
	<path style="fill:#1D1D1F;" d="M339.372,217.156c-12.053-6.959-31.533-6.959-43.509,0c-11.977,6.96-11.913,18.244,0.14,25.203   c12.055,6.96,31.535,6.96,43.512,0C351.491,235.4,351.428,224.116,339.372,217.156"/>
	<path style="fill:#1D1D1F;" d="M215.996,146.359c-12.053-6.959-31.534-6.959-43.509,0c-11.977,6.96-11.913,18.244,0.14,25.203   c12.055,6.96,31.535,6.96,43.512,0C228.113,164.603,228.051,153.319,215.996,146.359"/>
</g>
<polygon style="fill:#2E2E30;" points="321.76,289.462 321.76,512.001 99.662,383.772 99.662,161.233 "/>
<path style="fill:#1D1D1F;" d="M210.876,282.596c-15.429-8.908-27.982-1.759-28.032,15.971  c-0.032,11.536,5.236,24.706,13.169,34.957v56.342l29.389,16.967v-56.342c7.965-1.071,13.288-8.126,13.32-19.663  C238.773,313.099,226.306,291.504,210.876,282.596z"/>
<path style="fill:#D8D8DA;" d="M322.342,64.563c-13.774-23.859-32.123-43.209-51.67-54.499  c-19.547-11.284-37.948-13.147-51.811-5.248l-28.906,16.799c-13.868,7.903-21.537,24.622-21.602,47.082l-0.196,89.459v0.341  c0.032,2.112,0.829,4.218,2.388,6.175c1.264,1.592,3.033,3.09,5.309,4.401c2.27,1.311,4.855,2.332,7.608,3.057  c2.547,0.68,5.235,1.1,7.964,1.273c1.891,0.126,3.797,0.126,5.684,0.009h0.005c5.717-0.351,11.265-1.803,15.633-4.34  c4.368-2.538,6.85-5.759,7.439-9.074c0.079-0.435,0.126-0.876,0.136-1.311v-0.431l0.211-92.924  c0.019-7.055,1.157-13.179,3.216-18.25h0.005c5.572,0.74,11.621,2.875,17.936,6.522c27.511,15.886,49.825,54.53,49.737,86.143  l-0.201,89.038v0.791c0.098,2.163,0.988,4.316,2.669,6.307c0.005,0.004,0.005,0.004,0.009,0.009c1.255,1.47,2.931,2.852,5.047,4.069  c2.112,1.222,4.49,2.191,7.027,2.899c0.009,0.005,0.015,0.009,0.024,0.009c2.701,0.768,5.571,1.245,8.493,1.428  c0.032,0.005,0.066,0.009,0.098,0.009c1.967,0.132,3.951,0.132,5.913-0.005c0.051,0,0.098-0.005,0.15-0.009h0.009  c5.614-0.388,11.035-1.831,15.329-4.331c4.284-2.491,6.756-5.627,7.426-8.877v-0.004c0-0.005,0.004-0.015,0.004-0.019  c0.108-0.515,0.168-1.04,0.178-1.559v-93.116C343.669,113.934,336.121,88.427,322.342,64.563z"/>
<path style="fill:#C6C5CB;" d="M220.533,65.335l-0.211,92.924v0.431c-0.009,0.435-0.056,0.876-0.136,1.311  c-0.59,3.315-3.071,6.536-7.439,9.074c-4.368,2.538-9.916,3.99-15.633,4.34h-0.005c-1.887,0.117-3.792,0.117-5.684-0.009  l0.085-30.044l0.117-61.227L220.533,65.335z"/>
<path style="fill:#ACABB1;" d="M235.108,33.363c-4.935,2.871-8.839,7.509-11.354,13.723h-0.004  c-2.061,5.071-3.198,11.194-3.216,18.25l-28.907,16.798c0-0.375,0.005-0.744,0.015-1.11c0-0.07,0.005-0.141,0.005-0.211  c0-0.102,0.005-0.201,0.005-0.304c0.009-0.309,0.023-0.623,0.038-0.927c0-0.028,0.005-0.056,0.005-0.085  c0-0.075,0.005-0.145,0.009-0.215c0-0.079,0.005-0.159,0.009-0.234c0.019-0.407,0.042-0.81,0.075-1.208  c0.019-0.281,0.042-0.557,0.07-0.833c0-0.038,0.005-0.079,0.009-0.117c0-0.038,0.005-0.079,0.009-0.117v-0.019  c0.009-0.154,0.028-0.309,0.042-0.463c0-0.004,0-0.004,0-0.009c0.028-0.243,0.047-0.482,0.079-0.72c0-0.015,0.005-0.033,0.005-0.047  c0-0.015,0.005-0.033,0.005-0.047c0-0.015,0.005-0.028,0.005-0.042c0.019-0.197,0.042-0.394,0.07-0.586  c0.038-0.309,0.079-0.614,0.122-0.918c0.005-0.043,0.014-0.079,0.019-0.122c0.061-0.435,0.132-0.866,0.206-1.292  c0-0.009,0.004-0.019,0.004-0.028c0.061-0.351,0.126-0.697,0.192-1.04c0.004-0.014,0.004-0.032,0.009-0.047  c0-0.004,0-0.009,0.005-0.014c0.023-0.145,0.056-0.29,0.089-0.435c0.056-0.281,0.117-0.557,0.178-0.833  c0.015-0.047,0.024-0.098,0.033-0.145c0.089-0.384,0.183-0.763,0.281-1.138c0.005-0.019,0.009-0.038,0.015-0.056  c0.089-0.351,0.187-0.697,0.286-1.04c0.005-0.019,0.015-0.042,0.019-0.061c0.005-0.033,0.015-0.066,0.028-0.098  c0.103-0.365,0.215-0.725,0.332-1.081c0.098-0.318,0.206-0.627,0.314-0.936c0.004-0.014,0.009-0.028,0.014-0.042  c0.038-0.113,0.079-0.224,0.122-0.332c0.009-0.028,0.019-0.056,0.032-0.085c0.066-0.192,0.136-0.384,0.211-0.571  c0.015-0.042,0.032-0.079,0.047-0.117c0.038-0.094,0.07-0.187,0.107-0.281c0.108-0.271,0.215-0.539,0.328-0.801  c0.028-0.07,0.061-0.136,0.089-0.206c0.117-0.271,0.234-0.539,0.36-0.801c0.032-0.079,0.07-0.154,0.108-0.23  c0.014-0.032,0.032-0.066,0.047-0.098c0.122-0.262,0.248-0.52,0.379-0.772c0.145-0.281,0.29-0.562,0.44-0.833  c0.061-0.113,0.122-0.224,0.187-0.332c0.094-0.173,0.187-0.337,0.29-0.506c0.07-0.122,0.141-0.243,0.211-0.365  c0.314-0.51,0.633-1.002,0.964-1.479c0-0.005,0.005-0.005,0.005-0.009c0.079-0.113,0.159-0.23,0.243-0.341  c0.061-0.089,0.122-0.178,0.188-0.262c0.028-0.038,0.056-0.075,0.085-0.113c0-0.004,0.005-0.004,0.009-0.009  c0.079-0.113,0.164-0.224,0.248-0.333c0.122-0.159,0.243-0.318,0.37-0.473c0.005-0.005,0.009-0.009,0.015-0.015  c0.108-0.136,0.215-0.271,0.328-0.403c0.014-0.019,0.032-0.038,0.047-0.056c0.136-0.168,0.277-0.333,0.422-0.496  c0.019-0.023,0.042-0.047,0.056-0.066c0.211-0.234,0.422-0.469,0.637-0.693c0.177-0.183,0.356-0.365,0.539-0.539  c0.061-0.061,0.117-0.122,0.183-0.183c0.061-0.061,0.122-0.122,0.188-0.177c0.019-0.024,0.042-0.043,0.066-0.066  c0.047-0.047,0.094-0.089,0.145-0.132c0.16-0.154,0.323-0.305,0.492-0.445c0.028-0.032,0.061-0.056,0.094-0.085  c0.056-0.051,0.117-0.103,0.179-0.149c0.009-0.005,0.014-0.015,0.023-0.019c0.061-0.056,0.126-0.108,0.192-0.164  c0.066-0.051,0.132-0.103,0.192-0.159l0.005-0.005c0.177-0.145,0.36-0.29,0.543-0.426c0.032-0.028,0.066-0.051,0.098-0.075  c0.098-0.079,0.196-0.154,0.3-0.224c0.108-0.085,0.22-0.169,0.333-0.243h0.004c0.051-0.038,0.107-0.079,0.16-0.117  c0.056-0.043,0.108-0.079,0.164-0.113c0.024-0.019,0.042-0.032,0.066-0.047c0.164-0.113,0.328-0.22,0.496-0.328  c0.056-0.038,0.117-0.075,0.177-0.112c0.215-0.136,0.431-0.271,0.656-0.403c0.061-0.038,0.126-0.07,0.188-0.108L235.108,33.363z"/>
<path style="fill:#C6C5CB;" d="M343.603,136.389v93.115c-0.009,0.52-0.07,1.044-0.177,1.559c0,0.004-0.004,0.014-0.004,0.019v0.004  c-0.669,3.249-3.142,6.386-7.426,8.877c-4.293,2.5-9.715,3.943-15.329,4.331h-0.009c-0.051,0.005-0.098,0.009-0.149,0.009  c-1.962,0.136-3.947,0.136-5.913,0.005c-0.032,0-0.066-0.005-0.098-0.009v-0.023l0.085-30.039v-0.089l0.117-60.96L343.603,136.389z"/>
<g>
	<path style="fill:#E0E0E2;" d="M270.673,10.066l-28.906,16.798c-19.547-11.284-37.947-13.147-51.811-5.248l28.907-16.798   C232.725-3.081,251.125-1.218,270.673,10.066z"/>
	<path style="fill:#E0E0E2;" d="M343.603,136.389l-28.906,16.798c0.066-22.459-7.482-47.962-21.261-71.826   c-13.774-23.859-32.123-43.215-51.67-54.497l28.906-16.798c19.547,11.288,37.895,30.639,51.67,54.497   C336.121,88.427,343.669,113.934,343.603,136.389z"/>
</g>
<g>
	<path style="fill:#D8D8DA;" d="M314.696,153.188l-0.117,60.96v0.089l-0.085,30.039v0.023c-2.922-0.183-5.791-0.66-8.493-1.428   c-0.009,0-0.015-0.004-0.024-0.009c-2.538-0.707-4.916-1.676-7.027-2.898c-2.116-1.217-3.792-2.598-5.047-4.069   c-0.004-0.005-0.004-0.005-0.009-0.009c-1.681-1.99-2.57-4.144-2.669-6.307v-0.791l0.201-89.038   c0.089-31.612-22.225-70.257-49.737-86.143c-6.316-3.647-12.365-5.782-17.936-6.522c2.515-6.213,6.419-10.853,11.354-13.723   l-28.832,16.757c-0.061,0.038-0.126,0.07-0.188,0.108c-0.224,0.132-0.441,0.267-0.656,0.403c-0.061,0.038-0.122,0.075-0.177,0.112   c-0.168,0.108-0.332,0.215-0.496,0.328c-0.024,0.015-0.042,0.028-0.066,0.047c-0.056,0.032-0.108,0.07-0.164,0.113   c-0.051,0.038-0.108,0.079-0.16,0.117h-0.004c-0.113,0.075-0.224,0.159-0.333,0.243c-0.103,0.066-0.201,0.141-0.3,0.224   c-0.032,0.023-0.066,0.047-0.098,0.075c-0.183,0.136-0.365,0.281-0.543,0.426l-0.005,0.005c-0.066,0.047-0.126,0.102-0.192,0.159   c-0.066,0.056-0.132,0.108-0.192,0.164c-0.009,0.004-0.014,0.014-0.023,0.019c-0.061,0.047-0.122,0.098-0.178,0.149   c-0.032,0.028-0.066,0.051-0.094,0.085c-0.168,0.141-0.332,0.29-0.492,0.445c-0.051,0.042-0.098,0.085-0.145,0.132   c-0.023,0.023-0.047,0.042-0.066,0.066c-0.066,0.056-0.126,0.117-0.188,0.177c-0.066,0.061-0.122,0.122-0.183,0.183   c-0.183,0.173-0.36,0.356-0.539,0.539c-0.215,0.224-0.426,0.459-0.637,0.693c-0.014,0.019-0.038,0.042-0.056,0.066   c-0.145,0.164-0.286,0.328-0.422,0.496c-0.014,0.019-0.032,0.038-0.047,0.056c-0.117,0.132-0.224,0.267-0.328,0.403   c-0.005,0.005-0.009,0.009-0.015,0.015c-0.126,0.154-0.248,0.313-0.37,0.473c-0.089,0.108-0.168,0.22-0.248,0.333   c-0.005,0.005-0.009,0.005-0.009,0.009c-0.028,0.038-0.056,0.075-0.085,0.113c-0.066,0.085-0.126,0.173-0.188,0.262   c-0.085,0.113-0.164,0.23-0.243,0.341c0,0.004-0.005,0.004-0.005,0.009c-0.332,0.477-0.65,0.969-0.964,1.479   c-0.07,0.122-0.141,0.243-0.211,0.365c-0.103,0.168-0.196,0.332-0.29,0.506c-0.066,0.108-0.126,0.22-0.187,0.332   c-0.15,0.271-0.295,0.552-0.441,0.833c-0.132,0.253-0.258,0.51-0.379,0.772c-0.014,0.033-0.032,0.066-0.047,0.098   c-0.038,0.075-0.075,0.15-0.108,0.23c-0.126,0.262-0.243,0.529-0.36,0.801c-0.028,0.07-0.061,0.136-0.089,0.206   c-0.113,0.262-0.22,0.529-0.328,0.801c-0.038,0.094-0.07,0.187-0.108,0.281c-0.015,0.038-0.032,0.075-0.047,0.117   c-0.075,0.187-0.145,0.379-0.211,0.571c-0.015,0.028-0.023,0.056-0.032,0.085c-0.042,0.108-0.085,0.22-0.122,0.332   c-0.005,0.015-0.009,0.028-0.014,0.042c-0.108,0.309-0.215,0.618-0.314,0.936c-0.117,0.356-0.23,0.716-0.332,1.081   c-0.014,0.033-0.023,0.066-0.028,0.098c-0.004,0.019-0.014,0.042-0.019,0.061c-0.098,0.341-0.196,0.688-0.286,1.04   c-0.005,0.019-0.009,0.038-0.015,0.056c-0.098,0.375-0.192,0.754-0.281,1.138c-0.009,0.047-0.019,0.098-0.033,0.145   c-0.061,0.276-0.122,0.552-0.178,0.833c-0.032,0.145-0.066,0.29-0.089,0.435c-0.005,0.004-0.005,0.009-0.005,0.014   c-0.004,0.015-0.004,0.033-0.009,0.047c-0.066,0.341-0.132,0.689-0.192,1.04c0,0.009-0.004,0.019-0.004,0.028   c-0.075,0.426-0.145,0.857-0.206,1.292c-0.005,0.042-0.014,0.079-0.019,0.122c-0.042,0.304-0.085,0.609-0.122,0.918   c-0.028,0.192-0.051,0.388-0.07,0.586c0,0.014-0.005,0.028-0.005,0.042c0,0.014-0.005,0.032-0.005,0.047   c0,0.014-0.005,0.032-0.005,0.047c-0.032,0.239-0.051,0.477-0.079,0.72c0,0.005,0,0.005,0,0.009   c-0.014,0.154-0.032,0.309-0.042,0.463v0.019c-0.005,0.038-0.009,0.079-0.009,0.117c-0.005,0.038-0.009,0.079-0.009,0.117   c-0.028,0.277-0.051,0.552-0.07,0.833c-0.032,0.398-0.056,0.801-0.075,1.208c-0.004,0.075-0.009,0.154-0.009,0.234   c-0.005,0.07-0.009,0.141-0.009,0.215c0,0.028-0.005,0.056-0.005,0.085c-0.015,0.304-0.028,0.618-0.038,0.927   c0,0.103-0.005,0.201-0.005,0.304c0,0.07-0.005,0.141-0.005,0.211c-0.009,0.365-0.015,0.735-0.015,1.11l-0.117,61.227   l-0.085,30.044c-2.73-0.173-5.417-0.594-7.964-1.273c-2.753-0.725-5.337-1.746-7.609-3.057c-2.276-1.311-4.045-2.809-5.309-4.401   c-1.559-1.957-2.355-4.064-2.388-6.175v-0.341l0.196-89.459c0.066-22.459,7.735-39.179,21.602-47.082   c13.863-7.899,32.264-6.035,51.811,5.248s37.895,30.639,51.67,54.497C307.215,105.227,314.762,130.728,314.696,153.188z"/>
	<path style="fill:#D8D8DA;" d="M235.108,33.363c-4.935,2.871-8.839,7.509-11.354,13.723h-0.004   c-6.611-0.88-12.552,0.196-17.473,3.034L235.108,33.363z"/>
</g>
<g>
</g>
<g>
</g>
<g>
</g>
<g>
</g>
<g>
</g>
<g>
</g>
<g>
</g>
<g>
</g>
<g>
</g>
<g>
</g>
<g>
</g>
<g>
</g>
<g>
</g>
<g>
</g>
<g>
</g>
</svg>
