<?xml version="1.0" encoding="iso-8859-1"?>
<!-- Generator: Adobe Illustrator 19.0.0, SVG Export Plug-In . SVG Version: 6.00 Build 0)  -->
<svg xmlns="http://www.w3.org/2000/svg" xmlns:xlink="http://www.w3.org/1999/xlink" version="1.1" id="Layer_1" x="0px" y="0px" viewBox="0 0 512 512" style="enable-background:new 0 0 512 512;" xml:space="preserve">
<g>
	<path style="fill:#C6C5CB;" d="M470.962,145.912l0.161-56.721l-69.064-39.873l-58.055,33.738   c-12.684-4.123-26.027-7.289-39.733-9.506l-0.274-47.726l-97.349,0.001l-0.136,47.792c-13.538,2.213-26.716,5.358-39.217,9.441   l-58.439-33.74L40.243,89.191l-0.161,56.722L0,145.915v56.388v107.393v56.388l40.881,0.002l-0.161,56.722l69.542,39.874   l57.58-33.741c12.673,4.124,26.022,7.293,39.728,9.511l0.269,47.722l97.355,0.003l0.135-47.798   c13.539-2.213,26.71-5.354,39.222-9.439l58.434,33.737l68.614-39.874l0.161-56.719l40.239,0.001v-163.78v-56.392H470.962z"/>
	<polygon style="fill:#C6C5CB;" points="206.917,73.547 206.437,242.552 206.17,194.829 206.649,25.824  "/>
</g>
<g>
	<polygon style="fill:#ACABB1;" points="471.123,89.191 470.644,258.197 412.589,291.934 413.069,122.929  "/>
	<polygon style="fill:#ACABB1;" points="98.682,122.931 98.204,291.936 39.765,258.196 40.243,89.191  "/>
</g>
<path style="fill:#C6C5CB;" d="M346.302,174.366l-0.479,169.005c0.038-13.449-8.838-26.919-26.608-37.178  c-35.32-20.392-92.392-20.388-127.477,0.001c-17.433,10.13-26.159,23.387-26.197,36.663l0.48-169.005  c0.038-13.276,8.765-26.533,26.197-36.663c35.085-20.389,92.157-20.392,127.477-0.001  C337.465,147.448,346.341,160.917,346.302,174.366z"/>
<path style="fill:#ACABB1;" d="M319.694,137.188c17.772,10.26,26.647,23.73,26.608,37.179l-0.479,169.005  c0.038-13.449-8.838-26.919-26.608-37.179L319.694,137.188z"/>
<g>
	<polygon style="fill:#C6C5CB;" points="512,202.304 512,366.085 429.449,366.083 429.928,202.302  "/>
	<polygon style="fill:#C6C5CB;" points="0,202.303 0,366.085 0,309.696 0,145.915  "/>
	<polygon style="fill:#C6C5CB;" points="82.71,202.306 82.231,366.088 0,366.085 0,202.303  "/>
	<path style="fill:#C6C5CB;" d="M429.928,202.302l-0.479,163.78c-3.781,7.931-9.21,15.654-16.284,22.984l0.479-163.78   C420.718,217.956,426.147,210.233,429.928,202.302z"/>
	<path style="fill:#C6C5CB;" d="M99.258,225.287l-0.48,163.78c-7.166-7.33-12.676-15.049-16.547-22.98l0.48-163.781   C86.582,210.238,92.091,217.957,99.258,225.287z"/>
</g>
<path style="fill:#ACABB1;" d="M345.03,265.16l-0.479,163.78c-12.637,4.124-25.946,7.291-39.626,9.508l0.479-163.78  C319.085,272.45,332.394,269.284,345.03,265.16z"/>
<path style="fill:#D8D8DA;" d="M208.049,274.671l-0.48,163.78c-13.706-2.216-27.056-5.386-39.728-9.511l0.479-163.78  C180.993,269.284,194.344,272.454,208.049,274.671z"/>
<polygon style="fill:#C6C5CB;" points="403.464,298.897 402.985,462.677 344.551,428.941 345.03,265.16 "/>
<polygon style="fill:#ACABB1;" points="472.079,259.022 471.6,422.803 402.985,462.677 403.464,298.897 "/>
<polygon style="fill:#D8D8DA;" points="110.262,298.901 110.262,462.682 40.72,422.808 41.198,259.028 "/>
<g>
	<polygon style="fill:#C6C5CB;" points="168.321,265.161 167.842,428.942 110.262,462.682 110.262,298.901  "/>
	<polygon style="fill:#C6C5CB;" points="305.673,322.395 305.194,486.177 207.839,486.174 208.317,322.393  "/>
	<polygon style="fill:#C6C5CB;" points="208.317,322.393 207.839,486.174 207.57,438.452 208.049,274.671  "/>
</g>
<path style="fill:#E0E0E2;" d="M403.464,298.897L345.03,265.16c-12.637,4.125-25.946,7.291-39.626,9.508l0.269,47.728l-97.355-0.002  l-0.269-47.723c-13.706-2.216-27.056-5.386-39.728-9.511l-58.059,33.741l-69.064-39.873l58.059-33.74  c-7.166-7.33-12.676-15.049-16.547-22.98L0,202.303v-56.388l82.393-0.003c3.783-7.932,9.206-15.65,16.29-22.98l-58.439-33.74  l68.614-39.874l58.439,33.74c12.626-4.124,25.941-7.294,39.619-9.51l-0.268-47.723l97.349-0.001l0.274,47.727  c13.706,2.216,27.049,5.383,39.733,9.506L402.06,49.32l69.064,39.873l-58.055,33.738c7.154,7.33,12.67,15.053,16.542,22.985  L512,145.912v56.392l-82.071-0.002c-3.78,7.931-9.21,15.654-16.284,22.984l58.434,33.737L403.464,298.897z M192.631,211.028  c35.314,20.389,92.389,20.391,127.48-0.001c35.085-20.389,34.897-53.451-0.417-73.84c-35.32-20.392-92.392-20.389-127.477,0.001  C157.127,157.581,157.311,190.637,192.631,211.028"/>
<path style="fill:#D8D8DA;" d="M163.464,226.192c-51.394-29.672-51.658-77.783-0.597-107.456  c51.053-29.669,134.112-29.673,185.506-0.001s51.658,77.783,0.605,107.452C297.917,255.859,214.857,255.865,163.464,226.192   M360.74,111.548c-58.267-33.64-152.433-33.639-210.321,0.001c-57.895,33.645-57.589,88.19,0.678,121.83  c58.274,33.645,152.441,33.644,210.337-0.001C419.321,199.737,419.013,145.192,360.74,111.548"/>
<g>
</g>
<g>
</g>
<g>
</g>
<g>
</g>
<g>
</g>
<g>
</g>
<g>
</g>
<g>
</g>
<g>
</g>
<g>
</g>
<g>
</g>
<g>
</g>
<g>
</g>
<g>
</g>
<g>
</g>
</svg>
