<?xml version="1.0" encoding="iso-8859-1"?>
<!-- Generator: Adobe Illustrator 19.0.0, SVG Export Plug-In . SVG Version: 6.00 Build 0)  -->
<svg xmlns="http://www.w3.org/2000/svg" xmlns:xlink="http://www.w3.org/1999/xlink" version="1.1" id="Layer_1" x="0px" y="0px" viewBox="0 0 512.001 512.001" style="enable-background:new 0 0 512.001 512.001;" xml:space="preserve">
<path style="fill:#C6C5CB;" d="M499.064,198.074c0.082-0.093,0.163-0.185,0.245-0.278c0.606-0.701,1.192-1.43,1.76-2.185  c0.074-0.098,0.148-0.195,0.222-0.294c0.564-0.765,1.108-1.557,1.632-2.375c0.066-0.102,0.132-0.203,0.197-0.306  c0.521-0.829,1.021-1.684,1.5-2.566c0.057-0.106,0.115-0.208,0.172-0.314c0.478-0.893,0.931-1.814,1.365-2.76  c0.048-0.106,0.098-0.209,0.145-0.315c0.432-0.958,0.838-1.946,1.224-2.956c0.04-0.104,0.082-0.207,0.12-0.312  c0.383-1.025,0.742-2.078,1.077-3.156c0.031-0.101,0.065-0.2,0.095-0.301c0.334-1.093,0.642-2.214,0.925-3.36  c0.024-0.095,0.049-0.189,0.072-0.284c0.282-1.164,0.537-2.356,0.766-3.574c0.016-0.085,0.034-0.168,0.05-0.254  c0.229-1.237,0.428-2.504,0.601-3.795c0.009-0.071,0.021-0.141,0.03-0.212c0.172-1.314,0.313-2.657,0.426-4.026  c0.004-0.053,0.01-0.106,0.015-0.16c0.112-1.396,0.192-2.819,0.241-4.271c0.001-0.03,0.003-0.059,0.004-0.089  c0.048-1.482,0.064-2.992,0.045-4.531c-0.597-48.694-35.137-107.147-77.147-130.558c-0.651-0.363-1.301-0.715-1.948-1.057  c-0.208-0.11-0.415-0.212-0.623-0.32c-0.438-0.228-0.877-0.457-1.312-0.674c-0.258-0.129-0.513-0.249-0.77-0.374  c-0.383-0.187-0.767-0.377-1.149-0.556c-0.278-0.131-0.555-0.253-0.832-0.38c-0.359-0.164-0.719-0.332-1.076-0.49  c-0.283-0.124-0.563-0.24-0.844-0.362c-0.35-0.149-0.7-0.303-1.048-0.446c-0.285-0.117-0.567-0.227-0.852-0.34  c-0.343-0.137-0.685-0.276-1.027-0.406c-0.288-0.111-0.574-0.212-0.861-0.318c-0.333-0.123-0.668-0.249-1-0.366  c-0.288-0.102-0.575-0.196-0.862-0.294c-0.329-0.112-0.658-0.226-0.985-0.331c-0.285-0.092-0.568-0.177-0.854-0.264  c-0.326-0.1-0.652-0.204-0.976-0.299c-0.284-0.084-0.567-0.16-0.851-0.238c-0.321-0.09-0.643-0.181-0.961-0.264  c-0.283-0.074-0.565-0.142-0.847-0.211c-0.316-0.078-0.632-0.159-0.947-0.232c-0.284-0.066-0.565-0.124-0.847-0.186  c-0.309-0.067-0.62-0.136-0.927-0.197c-0.283-0.056-0.564-0.108-0.846-0.16c-0.303-0.056-0.607-0.114-0.909-0.165  c-0.281-0.047-0.56-0.089-0.839-0.132c-0.3-0.046-0.601-0.094-0.899-0.135c-0.277-0.038-0.553-0.07-0.829-0.103  c-0.297-0.036-0.594-0.073-0.888-0.104c-0.275-0.029-0.547-0.052-0.82-0.076c-0.293-0.026-0.585-0.053-0.877-0.074  c-0.273-0.02-0.543-0.033-0.814-0.048c-0.286-0.016-0.573-0.032-0.858-0.044c-0.271-0.01-0.539-0.016-0.808-0.021  c-0.283-0.006-0.565-0.013-0.846-0.014c-0.266-0.001-0.531,0.003-0.794,0.006c-0.279,0.003-0.558,0.007-0.835,0.016  c-0.262,0.008-0.523,0.022-0.784,0.034c-0.275,0.014-0.551,0.026-0.823,0.045c-0.259,0.018-0.516,0.04-0.773,0.062  c-0.271,0.023-0.54,0.046-0.809,0.074c-0.256,0.026-0.51,0.057-0.764,0.089c-0.265,0.032-0.532,0.066-0.795,0.102  c-0.252,0.036-0.502,0.075-0.751,0.115c-0.262,0.042-0.523,0.085-0.784,0.132c-0.248,0.044-0.493,0.093-0.739,0.142  c-0.257,0.051-0.514,0.103-0.769,0.16c-0.243,0.053-0.486,0.111-0.727,0.169c-0.253,0.061-0.506,0.122-0.757,0.188  c-0.239,0.063-0.478,0.129-0.715,0.195c-0.248,0.07-0.495,0.141-0.741,0.215c-0.235,0.071-0.469,0.146-0.702,0.222  c-0.243,0.079-0.487,0.16-0.728,0.243c-0.231,0.08-0.461,0.163-0.69,0.249c-0.238,0.088-0.475,0.178-0.712,0.271  c-0.227,0.089-0.452,0.181-0.677,0.275c-0.234,0.097-0.466,0.196-0.697,0.298c-0.222,0.097-0.442,0.197-0.66,0.3  c-0.23,0.107-0.458,0.216-0.684,0.327c-0.216,0.106-0.432,0.214-0.645,0.324c-0.225,0.116-0.448,0.234-0.67,0.354  c-0.212,0.115-0.422,0.231-0.632,0.35c-0.104,0.06-0.211,0.114-0.315,0.174l-74.398,43.249  c-13.966,8.119-22.486,25.58-22.183,50.322c0.597,48.689,35.133,107.134,77.139,130.543c20.656,11.511,39.27,12.406,52.787,4.554  c24.804-14.409,49.607-28.818,74.411-43.228c0.054-0.031,0.104-0.07,0.159-0.101c0.764-0.449,1.511-0.926,2.241-1.43  c0.1-0.07,0.201-0.14,0.301-0.21c0.726-0.513,1.435-1.053,2.125-1.621c0.095-0.078,0.19-0.156,0.284-0.235  c0.687-0.576,1.355-1.179,2.006-1.809c0.089-0.086,0.178-0.171,0.265-0.258C497.827,199.432,498.454,198.765,499.064,198.074z   M437.55,201.477c-0.182-0.1-0.364-0.194-0.545-0.297C437.187,201.282,437.368,201.376,437.55,201.477L437.55,201.477z"/>
<path style="fill:#E0E0E2;" d="M511.992,155.401c0.597,48.694-32.977,69.19-74.987,45.779  c-42.011-23.411-76.551-81.864-77.147-130.558c-0.597-48.694,32.977-69.19,74.987-45.779S511.396,106.707,511.992,155.401z"/>
<path style="fill:#D8D8DA;" d="M415.386,248.963c-13.517,7.852-32.132,6.957-52.787-4.554  c-42.006-23.408-76.542-81.854-77.139-130.543c-0.303-24.742,8.217-42.203,22.183-50.322l74.398-43.25  c-13.968,8.12-22.488,25.583-22.185,50.329c0.597,48.694,35.137,107.147,77.147,130.558c20.658,11.512,39.275,12.407,52.793,4.554  C464.993,220.144,440.191,234.553,415.386,248.963z"/>
<path style="fill:#C6C5CB;" d="M489.798,205.735c-24.804,14.409-49.607,28.818-74.41,43.228  c13.971-8.117,22.496-25.58,22.192-50.327l74.413-43.235C512.295,180.151,503.77,197.617,489.798,205.735z"/>
<path style="fill:#E0E0E2;" d="M307.644,63.544l74.398-43.25c13.519-7.859,32.14-6.965,52.802,4.548  c42.011,23.411,76.551,81.865,77.147,130.558l-74.411,43.236c-0.597-48.689-35.133-107.134-77.139-130.543  C339.781,56.58,321.162,55.686,307.644,63.544z"/>
<path style="fill:#C6C5CB;" d="M437.579,198.636L437.579,198.636L437.579,198.636c-0.597-48.689-35.133-107.134-77.139-130.543  c-7.454-4.155-14.643-6.926-21.423-8.402c-68.439-14.908-136.874-29.814-205.313-44.722c-0.635-0.138-1.265-0.259-1.898-0.389  c-0.439-0.09-0.88-0.185-1.317-0.27c-1.343-0.262-2.68-0.508-4.009-0.729c-0.019-0.003-0.039-0.007-0.057-0.01  c-1.349-0.224-2.69-0.421-4.025-0.603c-0.423-0.057-0.842-0.106-1.263-0.159c-0.918-0.116-1.834-0.226-2.745-0.322  c-0.483-0.051-0.962-0.097-1.443-0.143c-0.867-0.083-1.73-0.155-2.59-0.218c-0.465-0.034-0.931-0.07-1.394-0.099  c-0.952-0.06-1.899-0.106-2.842-0.143c-0.349-0.015-0.7-0.034-1.047-0.046c-1.281-0.041-2.556-0.063-3.821-0.062  c-0.257,0-0.51,0.008-0.767,0.01c-1.01,0.007-2.017,0.024-3.017,0.056c-0.432,0.015-0.859,0.037-1.288,0.055  c-0.831,0.037-1.658,0.08-2.481,0.136c-0.453,0.03-0.906,0.064-1.357,0.099c-0.823,0.065-1.643,0.141-2.459,0.225  c-0.413,0.042-0.827,0.082-1.237,0.127c-0.999,0.114-1.991,0.243-2.978,0.385c-0.21,0.03-0.423,0.054-0.633,0.086  c-1.191,0.178-2.373,0.377-3.545,0.595c-0.331,0.062-0.658,0.133-0.988,0.196c-0.844,0.165-1.686,0.338-2.521,0.523  c-0.414,0.092-0.824,0.19-1.236,0.287c-0.759,0.18-1.513,0.367-2.264,0.563c-0.412,0.108-0.823,0.216-1.232,0.328  c-0.788,0.217-1.569,0.447-2.348,0.683c-0.346,0.104-0.694,0.205-1.038,0.313c-1.109,0.35-2.21,0.716-3.299,1.106  c-0.076,0.027-0.152,0.057-0.228,0.086c-1.014,0.365-2.017,0.748-3.012,1.146c-0.347,0.139-0.691,0.286-1.035,0.429  c-0.726,0.301-1.45,0.608-2.167,0.927c-0.383,0.17-0.766,0.345-1.146,0.521c-0.69,0.319-1.374,0.646-2.054,0.98  c-0.363,0.179-0.725,0.355-1.085,0.538c-0.765,0.39-1.521,0.792-2.275,1.203c-0.255,0.139-0.514,0.272-0.767,0.414  c-0.998,0.556-1.984,1.131-2.96,1.724c-0.223,0.135-0.44,0.279-0.66,0.416c-0.753,0.467-1.502,0.942-2.241,1.433  c-0.331,0.219-0.659,0.446-0.988,0.67c-0.63,0.429-1.257,0.865-1.877,1.311c-0.341,0.245-0.68,0.491-1.017,0.741  c-0.625,0.462-1.242,0.934-1.857,1.413c-0.303,0.236-0.608,0.468-0.908,0.708c-0.779,0.624-1.551,1.262-2.312,1.913  c-0.118,0.1-0.239,0.196-0.356,0.298c-0.876,0.755-1.737,1.532-2.588,2.324c-0.253,0.235-0.501,0.479-0.751,0.717  c-0.599,0.569-1.193,1.144-1.781,1.731c-0.299,0.299-0.595,0.604-0.89,0.908c-0.54,0.555-1.074,1.118-1.604,1.688  c-0.289,0.312-0.579,0.624-0.865,0.94c-0.563,0.623-1.117,1.257-1.668,1.898c-0.23,0.267-0.463,0.53-0.69,0.799  c-0.768,0.914-1.526,1.842-2.268,2.791c-0.093,0.119-0.183,0.243-0.275,0.363c-0.647,0.835-1.284,1.681-1.912,2.542  c-0.238,0.327-0.47,0.66-0.705,0.992c-0.48,0.674-0.954,1.354-1.422,2.044c-0.253,0.373-0.503,0.748-0.751,1.126  c-0.452,0.685-0.898,1.38-1.337,2.081c-0.231,0.368-0.464,0.734-0.691,1.106c-0.504,0.823-0.998,1.659-1.486,2.504  c-0.145,0.252-0.296,0.497-0.44,0.751c-0.625,1.099-1.236,2.216-1.833,3.349c-0.149,0.284-0.293,0.576-0.441,0.862  c-0.445,0.861-0.884,1.728-1.313,2.608c-0.2,0.41-0.395,0.825-0.591,1.239c-0.372,0.784-0.738,1.574-1.097,2.371  c-0.197,0.439-0.394,0.878-0.586,1.321c-0.363,0.829-0.716,1.668-1.064,2.512c-0.166,0.404-0.336,0.804-0.499,1.211  c-0.461,1.148-0.911,2.31-1.347,3.487c-0.038,0.102-0.078,0.202-0.116,0.304c-0.471,1.279-0.925,2.579-1.366,3.89  c-0.136,0.403-0.264,0.815-0.398,1.221c-0.303,0.926-0.6,1.856-0.888,2.797c-0.149,0.487-0.295,0.979-0.439,1.471  c-0.264,0.895-0.521,1.798-0.772,2.707c-0.137,0.495-0.274,0.99-0.406,1.488c-0.266,1.002-0.521,2.015-0.771,3.032  c-0.098,0.402-0.202,0.799-0.298,1.204c-0.338,1.421-0.661,2.856-0.968,4.308c-0.052,0.25-0.099,0.505-0.152,0.755  c-0.25,1.211-0.49,2.431-0.719,3.663c-0.093,0.503-0.18,1.011-0.269,1.518c-0.178,1.004-0.349,2.014-0.511,3.032  c-0.089,0.558-0.176,1.117-0.26,1.679c-0.154,1.02-0.299,2.049-0.438,3.082c-0.072,0.533-0.145,1.064-0.213,1.601  c-0.157,1.243-0.301,2.497-0.438,3.761c-0.036,0.325-0.075,0.646-0.11,0.972c-0.164,1.588-0.309,3.193-0.44,4.813  c-0.034,0.434-0.062,0.874-0.094,1.309c-0.089,1.199-0.172,2.402-0.243,3.617c-0.034,0.586-0.063,1.178-0.093,1.767  c-0.055,1.098-0.104,2.204-0.145,3.315c-0.022,0.612-0.044,1.226-0.062,1.842c-0.033,1.166-0.056,2.342-0.074,3.523  c-0.008,0.544-0.02,1.086-0.024,1.633c-0.014,1.722-0.015,3.455,0.007,5.207c1.485,121.536,87.693,267.428,192.546,325.859  c1.503,0.837,2.999,1.646,4.492,2.438c0.469,0.249,0.937,0.489,1.405,0.734c1.038,0.541,2.073,1.075,3.106,1.596  c0.526,0.264,1.051,0.527,1.576,0.786c1.016,0.502,2.029,0.992,3.04,1.472c0.483,0.23,0.967,0.463,1.448,0.688  c1.285,0.6,2.567,1.183,3.845,1.749c0.185,0.083,0.372,0.17,0.557,0.252c1.459,0.642,2.911,1.257,4.36,1.855  c0.428,0.177,0.854,0.344,1.28,0.516c1.032,0.418,2.062,0.826,3.088,1.223c0.507,0.195,1.012,0.387,1.518,0.576  c0.977,0.367,1.95,0.723,2.922,1.069c0.481,0.171,0.961,0.346,1.441,0.512c1.149,0.399,2.294,0.783,3.436,1.155  c0.276,0.09,0.554,0.186,0.83,0.275c1.41,0.451,2.813,0.88,4.211,1.288c0.378,0.111,0.753,0.212,1.131,0.319  c1.027,0.293,2.052,0.577,3.073,0.846c0.484,0.127,0.967,0.251,1.449,0.373c0.935,0.238,1.867,0.466,2.796,0.684  c0.474,0.112,0.95,0.225,1.423,0.331c1.037,0.233,2.069,0.451,3.099,0.661c0.335,0.068,0.674,0.143,1.008,0.209  c1.353,0.265,2.699,0.51,4.037,0.735c0.315,0.052,0.625,0.096,0.938,0.146c1.03,0.165,2.057,0.321,3.08,0.461  c0.457,0.063,0.911,0.119,1.366,0.178c0.894,0.114,1.787,0.218,2.675,0.313c0.46,0.049,0.919,0.098,1.378,0.142  c0.953,0.092,1.902,0.169,2.846,0.239c0.359,0.026,0.722,0.06,1.08,0.083c1.29,0.085,2.575,0.15,3.849,0.194  c0.232,0.008,0.46,0.008,0.691,0.015c1.046,0.03,2.087,0.048,3.121,0.051c0.424,0.001,0.846-0.005,1.268-0.008  c0.855-0.007,1.705-0.023,2.552-0.048c0.44-0.014,0.88-0.028,1.319-0.046c0.877-0.037,1.747-0.087,2.615-0.143  c0.37-0.024,0.742-0.044,1.11-0.071c1.22-0.092,2.435-0.201,3.637-0.332c0.122-0.014,0.242-0.031,0.365-0.045  c1.083-0.122,2.158-0.262,3.226-0.417c0.386-0.055,0.767-0.119,1.15-0.179c0.814-0.127,1.625-0.262,2.43-0.408  c0.415-0.075,0.828-0.153,1.239-0.232c0.806-0.157,1.607-0.324,2.404-0.499c0.367-0.08,0.735-0.157,1.099-0.241  c1.098-0.254,2.189-0.523,3.27-0.813c0.046-0.013,0.092-0.023,0.138-0.034c1.125-0.304,2.238-0.631,3.345-0.974  c0.343-0.107,0.682-0.22,1.024-0.33c0.77-0.248,1.536-0.503,2.297-0.769c0.386-0.135,0.77-0.274,1.153-0.414  c0.739-0.27,1.471-0.55,2.201-0.838c0.352-0.139,0.706-0.275,1.056-0.419c0.906-0.37,1.804-0.755,2.694-1.154  c0.153-0.068,0.308-0.131,0.461-0.2c1.038-0.47,2.064-0.962,3.08-1.47c0.296-0.147,0.586-0.303,0.88-0.453  c0.726-0.372,1.448-0.752,2.163-1.144c0.352-0.193,0.702-0.39,1.051-0.587c0.671-0.378,1.335-0.767,1.996-1.163  c0.332-0.199,0.665-0.396,0.995-0.6c0.765-0.471,1.52-0.957,2.272-1.451c0.203-0.133,0.409-0.261,0.61-0.396  c0.944-0.632,1.875-1.284,2.795-1.953c0.243-0.177,0.482-0.362,0.723-0.54c0.68-0.505,1.356-1.016,2.023-1.54  c0.313-0.247,0.624-0.497,0.935-0.748c0.604-0.487,1.202-0.981,1.794-1.485c0.303-0.258,0.607-0.514,0.908-0.776  c0.651-0.567,1.293-1.146,1.93-1.733c0.217-0.201,0.439-0.395,0.655-0.598c0.842-0.79,1.674-1.598,2.492-2.424  c0.184-0.185,0.362-0.378,0.544-0.564c0.635-0.651,1.264-1.311,1.885-1.983c0.272-0.296,0.54-0.596,0.81-0.894  c0.534-0.594,1.063-1.194,1.585-1.805c0.271-0.316,0.54-0.631,0.807-0.95c0.551-0.659,1.094-1.33,1.632-2.007  c0.211-0.265,0.424-0.526,0.633-0.794c0.736-0.945,1.46-1.905,2.169-2.884c0.117-0.161,0.229-0.328,0.345-0.491  c0.591-0.825,1.174-1.662,1.747-2.512c0.228-0.339,0.451-0.683,0.677-1.025c0.46-0.699,0.915-1.404,1.363-2.12  c0.233-0.372,0.466-0.746,0.695-1.122c0.456-0.747,0.904-1.504,1.346-2.267c0.192-0.331,0.388-0.659,0.577-0.994  c0.621-1.095,1.23-2.203,1.823-3.332c0.042-0.08,0.083-0.164,0.124-0.245c0.55-1.051,1.085-2.117,1.61-3.197  c0.182-0.375,0.359-0.757,0.539-1.135c0.383-0.808,0.762-1.622,1.132-2.446c0.191-0.425,0.38-0.854,0.568-1.283  c0.364-0.833,0.719-1.674,1.068-2.522c0.163-0.397,0.33-0.79,0.49-1.19c0.461-1.149,0.911-2.311,1.348-3.488  c0.036-0.094,0.072-0.185,0.107-0.28c0.468-1.272,0.918-2.564,1.358-3.868c0.134-0.398,0.262-0.804,0.393-1.204  c0.201-0.613,0.406-1.22,0.601-1.841c20.927-66.836,41.854-133.67,62.783-200.504C436.533,216.403,437.694,208.046,437.579,198.636  L437.579,198.636L437.579,198.636z"/>
<path style="fill:#ACABB1;" d="M371.499,424.097c-23.458,74.917-94.341,99.099-178.929,51.962  C87.716,417.629,1.507,271.737,0.02,150.202C-1.205,50.234,55.271-2.116,133.705,14.969  c68.439,14.908,136.874,29.814,205.313,44.722c-31.422-6.844-54.047,14.128-53.556,54.176  c0.597,48.688,35.133,107.134,77.139,130.543c33.887,18.884,62.284,9.196,71.682-20.816  C413.354,290.429,392.427,357.263,371.499,424.097z"/>
<path style="fill:#77767E;" d="M355.25,380.942c-18.417,58.82-74.071,77.806-140.483,40.797  c-82.325-45.876-150.01-160.421-151.179-255.842C62.627,87.409,106.967,46.306,168.549,59.721  c53.734,11.704,107.465,23.409,161.198,35.113c-24.671-5.374-42.434,11.093-42.049,42.536  c0.468,38.228,27.583,84.115,60.564,102.494c26.606,14.826,48.901,7.22,56.28-16.343  C388.111,275.994,371.681,328.467,355.25,380.942z"/>
<path style="fill:#57565C;" d="M278.893,129.381c-39.163-22.611-71.012-4.461-71.14,40.541s31.515,99.808,70.678,122.419  c39.154,22.605,71.012,4.461,71.14-40.541C349.699,206.798,318.048,151.987,278.893,129.381z"/>
<g>
	<path style="fill:#D8D8DA;" d="M345.1,415.82c5.136-16.4,7.783-35.46,7.52-56.923l59.495-167.799   c0.086,6.983-0.776,13.185-2.447,18.521C388.147,278.353,366.623,347.085,345.1,415.82z"/>
	<path style="fill:#D8D8DA;" d="M338.978,87.994c5.031,1.096,10.365,3.152,15.897,6.235c31.17,17.37,56.798,60.74,57.241,96.869   L352.62,358.897c-1.36-111.044-80.127-244.343-175.929-297.73c-17.003-9.475-33.398-15.796-48.86-19.163   C198.215,57.333,268.595,72.664,338.978,87.994z"/>
	<path style="fill:#D8D8DA;" d="M360.44,68.092c-7.454-4.155-14.643-6.926-21.423-8.402   c-68.439-14.908-136.874-29.814-205.313-44.722c0.345,0.075,0.693,0.16,1.039,0.237C55.771-2.568-1.21,49.794,0.02,150.202   c1.488,121.535,87.696,267.427,192.55,325.858c84.959,47.344,156.084,22.736,179.228-52.953c-0.1,0.329-0.195,0.665-0.298,0.993   c20.927-66.836,41.854-133.67,62.783-200.504c2.252-7.19,3.413-15.547,3.297-24.957C436.982,149.947,402.446,91.5,360.44,68.092z    M181.617,463.295C85.813,409.907,7.046,276.609,5.686,165.565C4.327,54.519,80.887,7.78,176.691,61.167   c95.804,53.388,174.57,186.686,175.929,297.731C353.981,469.942,277.419,516.682,181.617,463.295z"/>
	<path style="fill:#D8D8DA;" d="M360.44,68.092c-7.454-4.155-14.643-6.926-21.423-8.402   c-68.439-14.908-136.874-29.814-205.313-44.722c16.922,3.686,34.866,10.604,53.474,20.973   C292.033,94.373,378.24,240.264,379.729,361.8l0,0c0.287,23.489-2.61,44.35-8.231,62.299   c20.927-66.836,41.854-133.67,62.783-200.504c2.252-7.19,3.413-15.547,3.297-24.957C436.982,149.947,402.446,91.5,360.44,68.092z"/>
</g>
<path style="fill:#C6C5CB;" d="M379.729,361.8L379.729,361.8C378.24,240.264,292.033,94.373,187.179,35.942  S-1.469,28.666,0.02,150.202c1.488,121.535,87.696,267.427,192.55,325.858C297.424,534.49,381.218,483.335,379.729,361.8z   M181.617,463.295C85.813,409.907,7.046,276.609,5.686,165.565C4.327,54.519,80.887,7.78,176.691,61.167  c95.804,53.388,174.57,186.686,175.929,297.731C353.981,469.942,277.419,516.682,181.617,463.295z"/>
<g>
</g>
<g>
</g>
<g>
</g>
<g>
</g>
<g>
</g>
<g>
</g>
<g>
</g>
<g>
</g>
<g>
</g>
<g>
</g>
<g>
</g>
<g>
</g>
<g>
</g>
<g>
</g>
<g>
</g>
</svg>
