<?xml version="1.0" encoding="iso-8859-1"?>
<!-- Generator: Adobe Illustrator 19.0.0, SVG Export Plug-In . SVG Version: 6.00 Build 0)  -->
<svg xmlns="http://www.w3.org/2000/svg" xmlns:xlink="http://www.w3.org/1999/xlink" version="1.1" id="Layer_1" x="0px" y="0px" viewBox="0 0 512 512" style="enable-background:new 0 0 512 512;" xml:space="preserve">
<g style="enable-background:new    ;">
	<polygon style="fill:#C6C5CB;" points="351.379,27.755 231.81,57.681 36.291,171.304 36.291,368.914 125.227,420.585    185.169,385.749 185.169,454.984 274.866,506.655 469.824,393.032 470.384,195.423  "/>
	<polygon style="fill:#ACABB1;" points="125.587,293.487 321.105,179.865 320.745,306.962 125.227,420.585  "/>
	<polygon style="fill:#D8D8DA;" points="36.291,171.304 231.81,57.681 351.379,27.755 155.861,141.378  "/>
	<polygon style="fill:#C6C5CB;" points="274.866,309.045 470.384,195.422 469.824,393.032 274.866,506.655  "/>
	<g>
		<polygon style="fill:#D8D8DA;" points="155.861,141.378 351.379,27.755 470.384,195.422 274.866,309.045   "/>
		<polygon style="fill:#D8D8DA;" points="155.861,141.378 274.866,309.045 274.866,506.655 185.169,454.984 185.169,327.887     125.587,293.487 125.227,420.585 36.291,368.914 36.291,171.304   "/>
	</g>
	<polygon style="fill:#013F8A;" points="358.699,5.345 210.558,42.478 0,164.841 7.053,180.222 148.092,144.859 294.325,351.898    504.883,229.534 512,222.334  "/>
	<polygon style="fill:#004FAE;" points="0,164.841 210.557,42.478 358.699,5.345 148.14,127.707  "/>
	<polygon style="fill:#003169;" points="301.443,344.697 512,222.334 504.883,229.535 294.325,351.898  "/>
	<polygon style="fill:#013F8A;" points="148.14,127.707 358.699,5.345 512,222.334 301.443,344.697  "/>
	<polygon style="fill:#00479B;" points="148.14,127.707 301.443,344.697 294.325,351.898 148.092,144.859 7.053,180.222 0,164.841     "/>
</g>
<g>
</g>
<g>
</g>
<g>
</g>
<g>
</g>
<g>
</g>
<g>
</g>
<g>
</g>
<g>
</g>
<g>
</g>
<g>
</g>
<g>
</g>
<g>
</g>
<g>
</g>
<g>
</g>
<g>
</g>
</svg>
