<svg width="1631" height="1636" xmlns="http://www.w3.org/2000/svg" xmlns:xlink="http://www.w3.org/1999/xlink" xml:space="preserve" overflow="hidden"><defs><filter id="fx0" x="-10%" y="-10%" width="120%" height="120%" filterUnits="userSpaceOnUse" primitiveUnits="userSpaceOnUse"><feComponentTransfer color-interpolation-filters="sRGB"><feFuncR type="discrete" tableValues="0.949020 0.949020"/><feFuncG type="discrete" tableValues="0.949020 0.949020"/><feFuncB type="discrete" tableValues="0.949020 0.949020"/><feFuncA type="linear" slope="1.000000" intercept="0.000000"/></feComponentTransfer><feGaussianBlur stdDeviation="6.111111 6.111111"/></filter><clipPath id="clip1"><rect x="449" y="394" width="1631" height="1636"/></clipPath><clipPath id="clip2"><rect x="-18.3333" y="-18.3333" width="1666.67" height="1665.67"/></clipPath><clipPath id="clip3"><rect x="0" y="0" width="1630" height="1629"/></clipPath></defs><g clip-path="url(#clip1)" transform="translate(-449 -394)"><g clip-path="url(#clip2)" filter="url(#fx0)" transform="translate(450 400)"><g clip-path="url(#clip3)"><path d="M22.5002 814.352C22.5002 376.667 377.314 21.8522 815 21.8522 1252.69 21.8522 1607.5 376.667 1607.5 814.352 1607.5 1252.04 1252.69 1606.85 815 1606.85 377.314 1606.85 22.5002 1252.04 22.5002 814.352Z" stroke="#FFFFFF" stroke-width="5" stroke-linecap="butt" stroke-linejoin="miter" stroke-miterlimit="8" stroke-opacity="1" fill="#F2F2F2" fill-rule="evenodd" fill-opacity="0.329412"/></g></g><path d="M472.5 1192C472.5 754.314 827.314 399.5 1265 399.5 1702.69 399.5 2057.5 754.314 2057.5 1192 2057.5 1629.69 1702.69 1984.5 1265 1984.5 827.314 1984.5 472.5 1629.69 472.5 1192Z" stroke="#FFFFFF" stroke-width="4.58333" stroke-linecap="butt" stroke-linejoin="miter" stroke-miterlimit="8" stroke-opacity="1" fill="#F2F2F2" fill-rule="evenodd" fill-opacity="0.329412"/></g></svg>