<svg width="395" height="394" xmlns="http://www.w3.org/2000/svg" xmlns:xlink="http://www.w3.org/1999/xlink" xml:space="preserve" overflow="hidden"><defs><filter id="fx0" x="-10%" y="-10%" width="120%" height="120%" filterUnits="userSpaceOnUse" primitiveUnits="userSpaceOnUse"><feComponentTransfer color-interpolation-filters="sRGB"><feFuncR type="discrete" tableValues="0.749020 0.749020"/><feFuncG type="discrete" tableValues="0.749020 0.749020"/><feFuncB type="discrete" tableValues="0.749020 0.749020"/><feFuncA type="linear" slope="0.400000" intercept="0.000000"/></feComponentTransfer><feGaussianBlur stdDeviation="6.111111 6.111111"/></filter><filter id="fx1" x="-10%" y="-10%" width="120%" height="120%" filterUnits="userSpaceOnUse" primitiveUnits="userSpaceOnUse"><feComponentTransfer color-interpolation-filters="sRGB"><feFuncR type="discrete" tableValues="0.000000 0.000000"/><feFuncG type="discrete" tableValues="0.000000 0.000000"/><feFuncB type="discrete" tableValues="0.000000 0.000000"/><feFuncA type="linear" slope="0.400000" intercept="0.000000"/></feComponentTransfer><feGaussianBlur stdDeviation="6.111111 6.111111"/></filter><filter id="fx2" x="-10%" y="-10%" width="120%" height="120%" filterUnits="userSpaceOnUse" primitiveUnits="userSpaceOnUse"><feComponentTransfer color-interpolation-filters="sRGB"><feFuncR type="discrete" tableValues="1.000000 1.000000"/><feFuncG type="discrete" tableValues="1.000000 1.000000"/><feFuncB type="discrete" tableValues="1.000000 1.000000"/><feFuncA type="linear" slope="0.729412" intercept="0.000000"/></feComponentTransfer><feGaussianBlur stdDeviation="14.749187 14.749187"/></filter><clipPath id="clip3"><rect x="100" y="774" width="395" height="394"/></clipPath><clipPath id="clip4"><rect x="21.6234" y="5.82501" width="129.004" height="154.683"/></clipPath><clipPath id="clip5"><rect x="0" y="0" width="164" height="164"/></clipPath><clipPath id="clip6"><rect x="20" y="19" width="124" height="125"/></clipPath><clipPath id="clip7"><rect x="20" y="19" width="124" height="125"/></clipPath><clipPath id="clip8"><rect x="20" y="19" width="124" height="125"/></clipPath><clipPath id="clip9"><rect x="20" y="19" width="124" height="125"/></clipPath><clipPath id="clip10"><rect x="20" y="19" width="124" height="125"/></clipPath><clipPath id="clip11"><rect x="20" y="19" width="124" height="125"/></clipPath><clipPath id="clip12"><rect x="21.6234" y="5.82501" width="129.004" height="154.683"/></clipPath><clipPath id="clip13"><rect x="0" y="0" width="164" height="164"/></clipPath><clipPath id="clip14"><rect x="20" y="19" width="124" height="125"/></clipPath><clipPath id="clip15"><rect x="20" y="19" width="124" height="125"/></clipPath><clipPath id="clip16"><rect x="20" y="19" width="124" height="125"/></clipPath><clipPath id="clip17"><rect x="236" y="895" width="124" height="124"/></clipPath><clipPath id="clip18"><rect x="236" y="895" width="124" height="124"/></clipPath><clipPath id="clip19"><rect x="236" y="895" width="124" height="124"/></clipPath><clipPath id="clip20"><rect x="7.20225" y="1.9227" width="119.353" height="127.934"/></clipPath><clipPath id="clip21"><rect x="0" y="0" width="131" height="131"/></clipPath><clipPath id="clip22"><rect x="44" y="44" width="43" height="43"/></clipPath><clipPath id="clip23"><rect x="44" y="44" width="43" height="43"/></clipPath><clipPath id="clip24"><rect x="44" y="44" width="43" height="43"/></clipPath><clipPath id="clip25"><rect x="236" y="895" width="124" height="124"/></clipPath><clipPath id="clip26"><rect x="236" y="895" width="124" height="124"/></clipPath><clipPath id="clip27"><rect x="236" y="895" width="124" height="124"/></clipPath></defs><g clip-path="url(#clip3)" transform="translate(-100 -774)"><g clip-path="url(#clip4)" filter="url(#fx0)" transform="translate(216 889)"><g clip-path="url(#clip5)"><g clip-path="url(#clip6)"><g clip-path="url(#clip7)"><g clip-path="url(#clip8)"><path d="M71.5717 81.2701 73.9252 80.2831C74.557 80.0181 75.284 80.3153 75.549 80.9471 75.8139 81.5789 75.5167 82.3059 74.8849 82.5709L72.5314 83.5579C72.3924 83.6131 72.2445 83.6425 72.0949 83.6447L81.0304 89.3685 76.2055 73.3763 39.9567 48.4102 70.3788 82.4047 70.2969 82.494 70.9058 82.8846C70.6469 82.2549 70.9441 81.5342 71.5717 81.2701ZM68.5981 84.3515 40.4998 115.075C40.8842 115.158 41.2314 115.401 41.3926 115.794 41.6521 116.427 41.3503 117.15 40.718 117.411L40.47 117.513 75.8435 141.791 81.8612 92.848 68.5981 84.354ZM49.8903 113.635 46.4506 115.05C45.821 115.313 45.0978 115.015 44.8353 114.386 44.8338 114.382 44.8325 114.379 44.8311 114.376 44.5708 113.742 44.8734 113.018 45.5069 112.757 45.5069 112.757 45.5069 112.757 45.5069 112.757L48.9467 111.341C49.5802 111.081 50.305 111.383 50.5655 112.016 50.826 112.65 50.5238 113.375 49.8903 113.635ZM59.0638 109.858 55.6241 111.276C54.9918 111.537 54.2674 111.236 54.006 110.604 54.0055 110.603 54.0051 110.602 54.0046 110.601 53.7436 109.968 54.0452 109.243 54.6783 108.982 54.6786 108.982 54.6789 108.982 54.6792 108.982L58.1189 107.565C58.7524 107.305 59.4775 107.607 59.7384 108.24 59.9993 108.874 59.6973 109.599 59.0638 109.859ZM68.2373 106.082 64.7963 107.499C64.1638 107.759 63.4396 107.458 63.1789 106.826 63.1786 106.825 63.1784 106.825 63.1781 106.824 62.9177 106.191 63.2197 105.466 63.8527 105.206L67.2924 103.788C67.9259 103.528 68.651 103.83 68.9119 104.463 69.1728 105.097 68.8708 105.822 68.2373 106.082ZM77.4096 102.307 73.9698 103.723C73.3373 103.984 72.6131 103.682 72.3524 103.05 72.3521 103.049 72.3519 103.049 72.3516 103.048 72.0906 102.415 72.3922 101.69 73.0253 101.429 73.0256 101.429 73.0259 101.429 73.0262 101.429L76.4659 100.013C77.0994 99.7522 77.8242 100.054 78.0847 100.688 78.3453 101.321 78.0431 102.046 77.4096 102.307ZM80.0991 77.6952 83.0751 76.4478C83.7126 76.1977 84.4322 76.5117 84.6823 77.1492 84.9243 77.7661 84.6386 78.4641 84.0336 78.7343L80.8196 80.0822 83.9791 90.5527 99.7184 84.0514 96.73 82.0017C96.165 81.6141 96.0212 80.8418 96.4088 80.2769 96.7964 79.7119 97.5687 79.5681 98.1336 79.9557L101.2 82.0612C101.576 82.3234 101.774 82.7727 101.715 83.2268L102.28 82.9937 132.164 51.0105 78.7773 73.3155 80.0991 77.6952ZM92.5388 85.372C91.8911 85.5903 91.1892 85.2421 90.9709 84.5943 90.9703 84.5923 90.9696 84.5903 90.9689 84.5883L89.7934 81.0581C89.6054 80.3989 89.9874 79.7121 90.6465 79.5239 91.2659 79.3473 91.9175 79.6737 92.1469 80.2756L93.3237 83.8047C93.5395 84.4544 93.1873 85.1563 92.5388 85.372ZM88.3067 71.4245C88.4013 70.7463 89.0277 70.2731 89.706 70.3677 90.3631 70.4593 90.8315 71.0518 90.7693 71.7122L90.4246 74.6634 93.0224 76.4478C93.5873 76.835 93.7314 77.607 93.3442 78.172 92.9569 78.7369 92.1849 78.881 91.6199 78.4938L88.5522 76.387C88.5373 76.3771 88.5299 76.3597 88.515 76.3498 88.0693 76.1094 87.8153 75.6214 87.8739 75.1185L88.3067 71.4233ZM95.2854 89.686 96.4609 93.215C96.4832 93.2832 96.4758 93.3514 96.4857 93.4208 96.4981 93.5014 96.5192 93.5808 96.5154 93.6614 96.5117 93.742 96.4869 93.8164 96.4683 93.8933 96.4485 93.9714 96.4373 94.0483 96.4051 94.1202 96.3716 94.1921 96.3208 94.2504 96.2761 94.3136 96.229 94.3794 96.1893 94.4476 96.1298 94.5034 96.0703 94.5592 95.9971 94.5951 95.9264 94.6398 95.8682 94.677 95.8223 94.7266 95.7566 94.7538L92.3156 96.1699C91.6925 96.4559 90.9557 96.1824 90.6698 95.5593 90.3839 94.9364 90.6572 94.1994 91.2803 93.9136 91.3103 93.8999 91.3409 93.8872 91.3719 93.8759L93.7416 92.9 92.9306 90.4697C92.8252 90.1504 92.8547 89.8019 93.0125 89.5049L84.33 93.0922 83.8526 96.971 85.6382 96.2369C86.2808 95.9981 86.9952 96.3253 87.2341 96.9679 87.4612 97.5791 87.1769 98.2617 86.5831 98.5309L83.5054 99.7969 78.2949 142.175 131.451 119.892 130.31 119.11C129.763 118.697 129.655 117.918 130.068 117.371 130.454 116.86 131.166 116.727 131.712 117.064L132.294 117.462 103.853 85.0273 94.4533 88.9097C94.8417 89.015 95.1528 89.3057 95.2841 89.686ZM121.804 111.779C122.191 111.214 122.963 111.07 123.528 111.457L126.597 113.56C127.146 113.969 127.259 114.747 126.85 115.297 126.463 115.816 125.742 115.95 125.194 115.606L122.125 113.503C121.561 113.115 121.417 112.344 121.803 111.779ZM113.62 106.172C114.007 105.607 114.779 105.462 115.344 105.849L118.413 107.952C118.96 108.366 119.068 109.144 118.655 109.691 118.269 110.202 117.556 110.336 117.011 109.998L113.942 107.895C113.378 107.508 113.234 106.737 113.62 106.172ZM105.436 100.564C105.823 99.9993 106.594 99.8546 107.16 100.241 107.16 100.241 107.16 100.242 107.161 100.242L110.231 102.345C110.781 102.755 110.894 103.533 110.484 104.082 110.097 104.601 109.377 104.736 108.829 104.391L105.758 102.288C105.194 101.901 105.05 101.13 105.436 100.564ZM97.2545 94.9584C97.6419 94.3941 98.4129 94.2499 98.9781 94.636L102.047 96.7378C102.594 97.151 102.703 97.9294 102.289 98.4764 101.903 98.9879 101.191 99.1211 100.646 98.7838L97.5769 96.682C97.0126 96.2947 96.8683 95.5236 97.2545 94.9584ZM89.3297 66.219C89.0969 65.9596 88.9859 65.6132 89.0246 65.2667L89.4561 61.5715C89.5295 60.8961 90.1367 60.4081 90.812 60.4817 90.8189 60.4824 90.8257 60.4832 90.8325 60.484 91.5119 60.5636 91.9985 61.1784 91.92 61.858L91.5183 65.3051 131.769 48.4871 96.3245 24.1583 96.0926 26.1423C95.998 26.8206 95.3716 27.2938 94.6933 27.1992 94.0362 27.1076 93.5677 26.5151 93.63 25.8546L93.8209 24.2166 41.2227 46.2699 77.412 71.1989 89.3284 66.219ZM92.9095 32.0125C92.9837 31.3365 93.5919 30.8487 94.2678 30.9229 94.2739 30.9235 94.2799 30.9242 94.2859 30.925 94.9653 31.0052 95.4514 31.6206 95.3722 32.3001L94.9419 35.9953C94.8624 36.6757 94.2465 37.1629 93.5661 37.0834 92.8857 37.0039 92.3985 36.388 92.478 35.7076L92.9095 32.0125ZM91.7588 41.8655C91.8232 41.1837 92.4279 40.6831 93.1098 40.7474 93.7915 40.8117 94.2921 41.4166 94.2279 42.0983 94.2262 42.1167 94.2239 42.1349 94.2215 42.1532L93.7899 45.8483C93.7102 46.5287 93.0939 47.0156 92.4135 46.9358 91.7331 46.8561 91.2463 46.2398 91.3261 45.5594L91.7601 41.8655ZM90.6069 51.7185C90.6712 51.0367 91.276 50.5362 91.9578 50.6004 92.6396 50.6647 93.1402 51.2696 93.0759 51.9514 93.0742 51.9697 93.0721 51.9879 93.0695 52.0062L92.638 55.7014C92.5714 56.383 91.9649 56.8816 91.2834 56.815 90.6018 56.7484 90.1032 56.1419 90.1698 55.4604 90.1712 55.4443 90.1731 55.4284 90.1753 55.4124L90.6069 51.7173Z" fill="#BFBFBF" fill-rule="nonzero" fill-opacity="1"/></g></g></g><g clip-path="url(#clip9)"><g clip-path="url(#clip10)"><g clip-path="url(#clip11)"><path d="M71.5717 81.2701 73.9252 80.2831C74.557 80.0181 75.284 80.3153 75.549 80.9471 75.8139 81.5789 75.5167 82.3059 74.8849 82.5709L72.5314 83.5579C72.3924 83.6131 72.2445 83.6425 72.0949 83.6447L81.0304 89.3685 76.2055 73.3763 39.9567 48.4102 70.3788 82.4047 70.2969 82.494 70.9058 82.8846C70.6469 82.2549 70.9441 81.5342 71.5717 81.2701ZM68.5981 84.3515 40.4998 115.075C40.8842 115.158 41.2314 115.401 41.3926 115.794 41.6521 116.427 41.3503 117.15 40.718 117.411L40.47 117.513 75.8435 141.791 81.8612 92.848 68.5981 84.354ZM49.8903 113.635 46.4506 115.05C45.821 115.313 45.0978 115.015 44.8353 114.386 44.8338 114.382 44.8325 114.379 44.8311 114.376 44.5708 113.742 44.8734 113.018 45.5069 112.757 45.5069 112.757 45.5069 112.757 45.5069 112.757L48.9467 111.341C49.5802 111.081 50.305 111.383 50.5655 112.016 50.826 112.65 50.5238 113.375 49.8903 113.635ZM59.0638 109.858 55.6241 111.276C54.9918 111.537 54.2674 111.236 54.006 110.604 54.0055 110.603 54.0051 110.602 54.0046 110.601 53.7436 109.968 54.0452 109.243 54.6783 108.982 54.6786 108.982 54.6789 108.982 54.6792 108.982L58.1189 107.565C58.7524 107.305 59.4775 107.607 59.7384 108.24 59.9993 108.874 59.6973 109.599 59.0638 109.859ZM68.2373 106.082 64.7963 107.499C64.1638 107.759 63.4396 107.458 63.1789 106.826 63.1786 106.825 63.1784 106.825 63.1781 106.824 62.9177 106.191 63.2197 105.466 63.8527 105.206L67.2924 103.788C67.9259 103.528 68.651 103.83 68.9119 104.463 69.1728 105.097 68.8708 105.822 68.2373 106.082ZM77.4096 102.307 73.9698 103.723C73.3373 103.984 72.6131 103.682 72.3524 103.05 72.3521 103.049 72.3519 103.049 72.3516 103.048 72.0906 102.415 72.3922 101.69 73.0253 101.429 73.0256 101.429 73.0259 101.429 73.0262 101.429L76.4659 100.013C77.0994 99.7522 77.8242 100.054 78.0847 100.688 78.3453 101.321 78.0431 102.046 77.4096 102.307ZM80.0991 77.6952 83.0751 76.4478C83.7126 76.1977 84.4322 76.5117 84.6823 77.1492 84.9243 77.7661 84.6386 78.4641 84.0336 78.7343L80.8196 80.0822 83.9791 90.5527 99.7184 84.0514 96.73 82.0017C96.165 81.6141 96.0212 80.8418 96.4088 80.2769 96.7964 79.7119 97.5687 79.5681 98.1336 79.9557L101.2 82.0612C101.576 82.3234 101.774 82.7727 101.715 83.2268L102.28 82.9937 132.164 51.0105 78.7773 73.3155 80.0991 77.6952ZM92.5388 85.372C91.8911 85.5903 91.1892 85.2421 90.9709 84.5943 90.9703 84.5923 90.9696 84.5903 90.9689 84.5883L89.7934 81.0581C89.6054 80.3989 89.9874 79.7121 90.6465 79.5239 91.2659 79.3473 91.9175 79.6737 92.1469 80.2756L93.3237 83.8047C93.5395 84.4544 93.1873 85.1563 92.5388 85.372ZM88.3067 71.4245C88.4013 70.7463 89.0277 70.2731 89.706 70.3677 90.3631 70.4593 90.8315 71.0518 90.7693 71.7122L90.4246 74.6634 93.0224 76.4478C93.5873 76.835 93.7314 77.607 93.3442 78.172 92.9569 78.7369 92.1849 78.881 91.6199 78.4938L88.5522 76.387C88.5373 76.3771 88.5299 76.3597 88.515 76.3498 88.0693 76.1094 87.8153 75.6214 87.8739 75.1185L88.3067 71.4233ZM95.2854 89.686 96.4609 93.215C96.4832 93.2832 96.4758 93.3514 96.4857 93.4208 96.4981 93.5014 96.5192 93.5808 96.5154 93.6614 96.5117 93.742 96.4869 93.8164 96.4683 93.8933 96.4485 93.9714 96.4373 94.0483 96.4051 94.1202 96.3716 94.1921 96.3208 94.2504 96.2761 94.3136 96.229 94.3794 96.1893 94.4476 96.1298 94.5034 96.0703 94.5592 95.9971 94.5951 95.9264 94.6398 95.8682 94.677 95.8223 94.7266 95.7566 94.7538L92.3156 96.1699C91.6925 96.4559 90.9557 96.1824 90.6698 95.5593 90.3839 94.9364 90.6572 94.1994 91.2803 93.9136 91.3103 93.8999 91.3409 93.8872 91.3719 93.8759L93.7416 92.9 92.9306 90.4697C92.8252 90.1504 92.8547 89.8019 93.0125 89.5049L84.33 93.0922 83.8526 96.971 85.6382 96.2369C86.2808 95.9981 86.9952 96.3253 87.2341 96.9679 87.4612 97.5791 87.1769 98.2617 86.5831 98.5309L83.5054 99.7969 78.2949 142.175 131.451 119.892 130.31 119.11C129.763 118.697 129.655 117.918 130.068 117.371 130.454 116.86 131.166 116.727 131.712 117.064L132.294 117.462 103.853 85.0273 94.4533 88.9097C94.8417 89.015 95.1528 89.3057 95.2841 89.686ZM121.804 111.779C122.191 111.214 122.963 111.07 123.528 111.457L126.597 113.56C127.146 113.969 127.259 114.747 126.85 115.297 126.463 115.816 125.742 115.95 125.194 115.606L122.125 113.503C121.561 113.115 121.417 112.344 121.803 111.779ZM113.62 106.172C114.007 105.607 114.779 105.462 115.344 105.849L118.413 107.952C118.96 108.366 119.068 109.144 118.655 109.691 118.269 110.202 117.556 110.336 117.011 109.998L113.942 107.895C113.378 107.508 113.234 106.737 113.62 106.172ZM105.436 100.564C105.823 99.9993 106.594 99.8546 107.16 100.241 107.16 100.241 107.16 100.242 107.161 100.242L110.231 102.345C110.781 102.755 110.894 103.533 110.484 104.082 110.097 104.601 109.377 104.736 108.829 104.391L105.758 102.288C105.194 101.901 105.05 101.13 105.436 100.564ZM97.2545 94.9584C97.6419 94.3941 98.4129 94.2499 98.9781 94.636L102.047 96.7378C102.594 97.151 102.703 97.9294 102.289 98.4764 101.903 98.9879 101.191 99.1211 100.646 98.7838L97.5769 96.682C97.0126 96.2947 96.8683 95.5236 97.2545 94.9584ZM89.3297 66.219C89.0969 65.9596 88.9859 65.6132 89.0246 65.2667L89.4561 61.5715C89.5295 60.8961 90.1367 60.4081 90.812 60.4817 90.8189 60.4824 90.8257 60.4832 90.8325 60.484 91.5119 60.5636 91.9985 61.1784 91.92 61.858L91.5183 65.3051 131.769 48.4871 96.3245 24.1583 96.0926 26.1423C95.998 26.8206 95.3716 27.2938 94.6933 27.1992 94.0362 27.1076 93.5677 26.5151 93.63 25.8546L93.8209 24.2166 41.2227 46.2699 77.412 71.1989 89.3284 66.219ZM92.9095 32.0125C92.9837 31.3365 93.5919 30.8487 94.2678 30.9229 94.2739 30.9235 94.2799 30.9242 94.2859 30.925 94.9653 31.0052 95.4514 31.6206 95.3722 32.3001L94.9419 35.9953C94.8624 36.6757 94.2465 37.1629 93.5661 37.0834 92.8857 37.0039 92.3985 36.388 92.478 35.7076L92.9095 32.0125ZM91.7588 41.8655C91.8232 41.1837 92.4279 40.6831 93.1098 40.7474 93.7915 40.8117 94.2921 41.4166 94.2279 42.0983 94.2262 42.1167 94.2239 42.1349 94.2215 42.1532L93.7899 45.8483C93.7102 46.5287 93.0939 47.0156 92.4135 46.9358 91.7331 46.8561 91.2463 46.2398 91.3261 45.5594L91.7601 41.8655ZM90.6069 51.7185C90.6712 51.0367 91.276 50.5362 91.9578 50.6004 92.6396 50.6647 93.1402 51.2696 93.0759 51.9514 93.0742 51.9697 93.0721 51.9879 93.0695 52.0062L92.638 55.7014C92.5714 56.383 91.9649 56.8816 91.2834 56.815 90.6018 56.7484 90.1032 56.1419 90.1698 55.4604 90.1712 55.4443 90.1731 55.4284 90.1753 55.4124L90.6069 51.7173Z" fill="#FFFFFF" fill-rule="nonzero" fill-opacity="1"/></g></g></g></g></g><g clip-path="url(#clip12)" filter="url(#fx1)" transform="translate(216 889)"><g clip-path="url(#clip13)"><g clip-path="url(#clip14)"><g clip-path="url(#clip15)"><g clip-path="url(#clip16)"><path d="M71.5717 81.2701 73.9252 80.2831C74.557 80.0181 75.284 80.3153 75.549 80.9471 75.8139 81.5789 75.5167 82.3059 74.8849 82.5709L72.5314 83.5579C72.3924 83.6131 72.2445 83.6425 72.0949 83.6447L81.0304 89.3685 76.2055 73.3763 39.9567 48.4102 70.3788 82.4047 70.2969 82.494 70.9058 82.8846C70.6469 82.2549 70.9441 81.5342 71.5717 81.2701ZM68.5981 84.3515 40.4998 115.075C40.8842 115.158 41.2314 115.401 41.3926 115.794 41.6521 116.427 41.3503 117.15 40.718 117.411L40.47 117.513 75.8435 141.791 81.8612 92.848 68.5981 84.354ZM49.8903 113.635 46.4506 115.05C45.821 115.313 45.0978 115.015 44.8353 114.386 44.8338 114.382 44.8325 114.379 44.8311 114.376 44.5708 113.742 44.8734 113.018 45.5069 112.757 45.5069 112.757 45.5069 112.757 45.5069 112.757L48.9467 111.341C49.5802 111.081 50.305 111.383 50.5655 112.016 50.826 112.65 50.5238 113.375 49.8903 113.635ZM59.0638 109.858 55.6241 111.276C54.9918 111.537 54.2674 111.236 54.006 110.604 54.0055 110.603 54.0051 110.602 54.0046 110.601 53.7436 109.968 54.0452 109.243 54.6783 108.982 54.6786 108.982 54.6789 108.982 54.6792 108.982L58.1189 107.565C58.7524 107.305 59.4775 107.607 59.7384 108.24 59.9993 108.874 59.6973 109.599 59.0638 109.859ZM68.2373 106.082 64.7963 107.499C64.1638 107.759 63.4396 107.458 63.1789 106.826 63.1786 106.825 63.1784 106.825 63.1781 106.824 62.9177 106.191 63.2197 105.466 63.8527 105.206L67.2924 103.788C67.9259 103.528 68.651 103.83 68.9119 104.463 69.1728 105.097 68.8708 105.822 68.2373 106.082ZM77.4096 102.307 73.9698 103.723C73.3373 103.984 72.6131 103.682 72.3524 103.05 72.3521 103.049 72.3519 103.049 72.3516 103.048 72.0906 102.415 72.3922 101.69 73.0253 101.429 73.0256 101.429 73.0259 101.429 73.0262 101.429L76.4659 100.013C77.0994 99.7522 77.8242 100.054 78.0847 100.688 78.3453 101.321 78.0431 102.046 77.4096 102.307ZM80.0991 77.6952 83.0751 76.4478C83.7126 76.1977 84.4322 76.5117 84.6823 77.1492 84.9243 77.7661 84.6386 78.4641 84.0336 78.7343L80.8196 80.0822 83.9791 90.5527 99.7184 84.0514 96.73 82.0017C96.165 81.6141 96.0212 80.8418 96.4088 80.2769 96.7964 79.7119 97.5687 79.5681 98.1336 79.9557L101.2 82.0612C101.576 82.3234 101.774 82.7727 101.715 83.2268L102.28 82.9937 132.164 51.0105 78.7773 73.3155 80.0991 77.6952ZM92.5388 85.372C91.8911 85.5903 91.1892 85.2421 90.9709 84.5943 90.9703 84.5923 90.9696 84.5903 90.9689 84.5883L89.7934 81.0581C89.6054 80.3989 89.9874 79.7121 90.6465 79.5239 91.2659 79.3473 91.9175 79.6737 92.1469 80.2756L93.3237 83.8047C93.5395 84.4544 93.1873 85.1563 92.5388 85.372ZM88.3067 71.4245C88.4013 70.7463 89.0277 70.2731 89.706 70.3677 90.3631 70.4593 90.8315 71.0518 90.7693 71.7122L90.4246 74.6634 93.0224 76.4478C93.5873 76.835 93.7314 77.607 93.3442 78.172 92.9569 78.7369 92.1849 78.881 91.6199 78.4938L88.5522 76.387C88.5373 76.3771 88.5299 76.3597 88.515 76.3498 88.0693 76.1094 87.8153 75.6214 87.8739 75.1185L88.3067 71.4233ZM95.2854 89.686 96.4609 93.215C96.4832 93.2832 96.4758 93.3514 96.4857 93.4208 96.4981 93.5014 96.5192 93.5808 96.5154 93.6614 96.5117 93.742 96.4869 93.8164 96.4683 93.8933 96.4485 93.9714 96.4373 94.0483 96.4051 94.1202 96.3716 94.1921 96.3208 94.2504 96.2761 94.3136 96.229 94.3794 96.1893 94.4476 96.1298 94.5034 96.0703 94.5592 95.9971 94.5951 95.9264 94.6398 95.8682 94.677 95.8223 94.7266 95.7566 94.7538L92.3156 96.1699C91.6925 96.4559 90.9557 96.1824 90.6698 95.5593 90.3839 94.9364 90.6572 94.1994 91.2803 93.9136 91.3103 93.8999 91.3409 93.8872 91.3719 93.8759L93.7416 92.9 92.9306 90.4697C92.8252 90.1504 92.8547 89.8019 93.0125 89.5049L84.33 93.0922 83.8526 96.971 85.6382 96.2369C86.2808 95.9981 86.9952 96.3253 87.2341 96.9679 87.4612 97.5791 87.1769 98.2617 86.5831 98.5309L83.5054 99.7969 78.2949 142.175 131.451 119.892 130.31 119.11C129.763 118.697 129.655 117.918 130.068 117.371 130.454 116.86 131.166 116.727 131.712 117.064L132.294 117.462 103.853 85.0273 94.4533 88.9097C94.8417 89.015 95.1528 89.3057 95.2841 89.686ZM121.804 111.779C122.191 111.214 122.963 111.07 123.528 111.457L126.597 113.56C127.146 113.969 127.259 114.747 126.85 115.297 126.463 115.816 125.742 115.95 125.194 115.606L122.125 113.503C121.561 113.115 121.417 112.344 121.803 111.779ZM113.62 106.172C114.007 105.607 114.779 105.462 115.344 105.849L118.413 107.952C118.96 108.366 119.068 109.144 118.655 109.691 118.269 110.202 117.556 110.336 117.011 109.998L113.942 107.895C113.378 107.508 113.234 106.737 113.62 106.172ZM105.436 100.564C105.823 99.9993 106.594 99.8546 107.16 100.241 107.16 100.241 107.16 100.242 107.161 100.242L110.231 102.345C110.781 102.755 110.894 103.533 110.484 104.082 110.097 104.601 109.377 104.736 108.829 104.391L105.758 102.288C105.194 101.901 105.05 101.13 105.436 100.564ZM97.2545 94.9584C97.6419 94.3941 98.4129 94.2499 98.9781 94.636L102.047 96.7378C102.594 97.151 102.703 97.9294 102.289 98.4764 101.903 98.9879 101.191 99.1211 100.646 98.7838L97.5769 96.682C97.0126 96.2947 96.8683 95.5236 97.2545 94.9584ZM89.3297 66.219C89.0969 65.9596 88.9859 65.6132 89.0246 65.2667L89.4561 61.5715C89.5295 60.8961 90.1367 60.4081 90.812 60.4817 90.8189 60.4824 90.8257 60.4832 90.8325 60.484 91.5119 60.5636 91.9985 61.1784 91.92 61.858L91.5183 65.3051 131.769 48.4871 96.3245 24.1583 96.0926 26.1423C95.998 26.8206 95.3716 27.2938 94.6933 27.1992 94.0362 27.1076 93.5677 26.5151 93.63 25.8546L93.8209 24.2166 41.2227 46.2699 77.412 71.1989 89.3284 66.219ZM92.9095 32.0125C92.9837 31.3365 93.5919 30.8487 94.2678 30.9229 94.2739 30.9235 94.2799 30.9242 94.2859 30.925 94.9653 31.0052 95.4514 31.6206 95.3722 32.3001L94.9419 35.9953C94.8624 36.6757 94.2465 37.1629 93.5661 37.0834 92.8857 37.0039 92.3985 36.388 92.478 35.7076L92.9095 32.0125ZM91.7588 41.8655C91.8232 41.1837 92.4279 40.6831 93.1098 40.7474 93.7915 40.8117 94.2921 41.4166 94.2279 42.0983 94.2262 42.1167 94.2239 42.1349 94.2215 42.1532L93.7899 45.8483C93.7102 46.5287 93.0939 47.0156 92.4135 46.9358 91.7331 46.8561 91.2463 46.2398 91.3261 45.5594L91.7601 41.8655ZM90.6069 51.7185C90.6712 51.0367 91.276 50.5362 91.9578 50.6004 92.6396 50.6647 93.1402 51.2696 93.0759 51.9514 93.0742 51.9697 93.0721 51.9879 93.0695 52.0062L92.638 55.7014C92.5714 56.383 91.9649 56.8816 91.2834 56.815 90.6018 56.7484 90.1032 56.1419 90.1698 55.4604 90.1712 55.4443 90.1731 55.4284 90.1753 55.4124L90.6069 51.7173Z" fill="#BFBFBF" fill-rule="nonzero" fill-opacity="1"/></g></g></g></g></g><g clip-path="url(#clip17)"><g clip-path="url(#clip18)"><g clip-path="url(#clip19)"><path d="M287.572 956.52 289.925 955.533C290.557 955.268 291.284 955.565 291.549 956.197 291.814 956.829 291.517 957.556 290.885 957.821L288.531 958.808C288.392 958.863 288.244 958.892 288.095 958.895L297.03 964.619 292.206 948.626 255.957 923.66 286.379 957.655 286.297 957.744 286.906 958.135C286.647 957.505 286.944 956.784 287.572 956.52ZM284.598 959.602 256.5 990.325C256.884 990.408 257.231 990.651 257.393 991.044 257.652 991.677 257.35 992.4 256.718 992.661L256.47 992.763 291.843 1017.04 297.861 968.098 284.598 959.604ZM265.89 988.885 262.451 990.3C261.821 990.563 261.098 990.265 260.835 989.636 260.834 989.632 260.832 989.629 260.831 989.626 260.571 988.992 260.873 988.268 261.507 988.007 261.507 988.007 261.507 988.007 261.507 988.007L264.947 986.591C265.58 986.331 266.305 986.633 266.565 987.266 266.826 987.9 266.524 988.625 265.89 988.885ZM275.064 985.108 271.624 986.526C270.992 986.787 270.267 986.486 270.006 985.854 270.005 985.853 270.005 985.852 270.005 985.851 269.744 985.218 270.045 984.493 270.678 984.232 270.679 984.232 270.679 984.232 270.679 984.232L274.119 982.815C274.752 982.555 275.477 982.857 275.738 983.49 275.999 984.124 275.697 984.849 275.064 985.109ZM284.237 981.332 280.796 982.749C280.164 983.009 279.44 982.708 279.179 982.076 279.179 982.075 279.178 982.075 279.178 982.074 278.918 981.441 279.22 980.716 279.853 980.456L283.292 979.038C283.926 978.778 284.651 979.08 284.912 979.713 285.173 980.347 284.871 981.072 284.237 981.332ZM293.41 977.557 289.97 978.973C289.337 979.234 288.613 978.932 288.352 978.3 288.352 978.299 288.352 978.299 288.352 978.298 288.091 977.665 288.392 976.94 289.025 976.679 289.026 976.679 289.026 976.679 289.026 976.679L292.466 975.263C293.099 975.002 293.824 975.304 294.085 975.938 294.345 976.571 294.043 977.296 293.41 977.557ZM296.099 952.945 299.075 951.698C299.713 951.448 300.432 951.762 300.682 952.399 300.924 953.016 300.639 953.714 300.034 953.984L296.82 955.332 299.979 965.803 315.718 959.301 312.73 957.252C312.165 956.864 312.021 956.092 312.409 955.527 312.796 954.962 313.569 954.818 314.134 955.206L317.2 957.311C317.576 957.573 317.774 958.023 317.715 958.477L318.28 958.244 348.164 926.26 294.777 948.566 296.099 952.945ZM308.539 960.622C307.891 960.84 307.189 960.492 306.971 959.844 306.97 959.842 306.97 959.84 306.969 959.838L305.793 956.308C305.605 955.649 305.987 954.962 306.647 954.774 307.266 954.597 307.918 954.924 308.147 955.526L309.324 959.055C309.539 959.704 309.187 960.406 308.539 960.622ZM304.307 946.675C304.401 945.996 305.028 945.523 305.706 945.618 306.363 945.709 306.832 946.302 306.769 946.962L306.425 949.913 309.022 951.698C309.587 952.085 309.731 952.857 309.344 953.422 308.957 953.987 308.185 954.131 307.62 953.744L304.552 951.637C304.537 951.627 304.53 951.61 304.515 951.6 304.069 951.359 303.815 950.871 303.874 950.368L304.307 946.673ZM311.285 964.936 312.461 968.465C312.483 968.533 312.476 968.601 312.486 968.671 312.498 968.751 312.519 968.831 312.515 968.911 312.512 968.992 312.487 969.066 312.468 969.143 312.448 969.221 312.437 969.298 312.405 969.37 312.372 969.442 312.321 969.5 312.276 969.564 312.229 969.629 312.189 969.698 312.13 969.753 312.07 969.809 311.997 969.845 311.926 969.89 311.868 969.927 311.822 969.977 311.757 970.004L308.316 971.42C307.692 971.706 306.956 971.432 306.67 970.809 306.384 970.186 306.657 969.449 307.28 969.164 307.31 969.15 307.341 969.137 307.372 969.126L309.742 968.15 308.931 965.72C308.825 965.4 308.855 965.052 309.012 964.755L300.33 968.342 299.853 972.221 301.638 971.487C302.281 971.248 302.995 971.575 303.234 972.218 303.461 972.829 303.177 973.512 302.583 973.781L299.505 975.047 294.295 1017.43 347.451 995.142 346.31 994.36C345.763 993.947 345.655 993.168 346.068 992.621 346.454 992.11 347.166 991.977 347.712 992.314L348.294 992.712 319.853 960.277 310.453 964.16C310.842 964.265 311.153 964.556 311.284 964.936ZM337.804 987.029C338.191 986.464 338.963 986.32 339.528 986.707L342.597 988.81C343.146 989.219 343.259 989.997 342.85 990.547 342.463 991.066 341.742 991.2 341.194 990.856L338.125 988.753C337.561 988.365 337.417 987.594 337.803 987.029ZM329.62 981.422C330.007 980.857 330.779 980.712 331.344 981.099L334.413 983.202C334.96 983.616 335.068 984.394 334.655 984.941 334.269 985.452 333.556 985.586 333.011 985.248L329.942 983.145C329.378 982.758 329.234 981.987 329.62 981.422ZM321.436 975.814C321.823 975.249 322.594 975.105 323.16 975.491 323.16 975.491 323.16 975.492 323.161 975.492L326.231 977.595C326.781 978.005 326.894 978.783 326.484 979.332 326.097 979.851 325.377 979.986 324.829 979.641L321.758 977.538C321.194 977.151 321.05 976.38 321.436 975.814ZM313.254 970.208C313.642 969.644 314.413 969.5 314.978 969.886L318.047 971.988C318.594 972.401 318.703 973.179 318.289 973.726 317.903 974.238 317.191 974.371 316.646 974.034L313.577 971.932C313.013 971.545 312.868 970.774 313.254 970.208ZM305.33 941.469C305.097 941.21 304.986 940.863 305.025 940.517L305.456 936.822C305.53 936.146 306.137 935.658 306.812 935.732 306.819 935.732 306.826 935.733 306.833 935.734 307.512 935.814 307.999 936.428 307.92 937.108L307.518 940.555 347.769 923.737 312.324 899.408 312.093 901.392C311.998 902.071 311.372 902.544 310.693 902.449 310.036 902.358 309.568 901.765 309.63 901.105L309.821 899.467 257.223 921.52 293.412 946.449 305.328 941.469ZM308.91 907.262C308.984 906.586 309.592 906.099 310.268 906.173 310.274 906.174 310.28 906.174 310.286 906.175 310.965 906.255 311.451 906.871 311.372 907.55L310.942 911.245C310.862 911.926 310.246 912.413 309.566 912.333 308.886 912.254 308.399 911.638 308.478 910.958L308.91 907.262ZM307.759 917.115C307.823 916.434 308.428 915.933 309.11 915.997 309.792 916.062 310.292 916.667 310.228 917.348 310.226 917.367 310.224 917.385 310.221 917.403L309.79 921.098C309.71 921.779 309.094 922.266 308.414 922.186 307.733 922.106 307.246 921.49 307.326 920.809L307.76 917.115ZM306.607 926.969C306.671 926.287 307.276 925.786 307.958 925.85 308.64 925.915 309.14 926.52 309.076 927.201 309.074 927.22 309.072 927.238 309.069 927.256L308.638 930.951C308.571 931.633 307.965 932.132 307.283 932.065 306.602 931.998 306.103 931.392 306.17 930.71 306.171 930.694 306.173 930.678 306.175 930.662L306.607 926.967Z" fill="#BFBFBF" fill-rule="nonzero" fill-opacity="1"/></g></g></g><g clip-path="url(#clip20)" filter="url(#fx2)" transform="matrix(2.99237 0 0 2.99237 102 775)"><g clip-path="url(#clip21)"><g clip-path="url(#clip22)" transform="matrix(1 0 0 1 -1.90735e-06 -8.58307e-06)"><g clip-path="url(#clip23)" transform="matrix(1 0 0 1 -1.90735e-06 -8.58307e-06)"><g clip-path="url(#clip24)" transform="matrix(1 0 0 1 -1.90735e-06 -8.58307e-06)"><path d="M62.015 65.2561 62.8015 64.9262C63.0126 64.8377 63.2556 64.937 63.3442 65.1481 63.4327 65.3593 63.3334 65.6022 63.1223 65.6908L62.3357 66.0206C62.2893 66.0391 62.2399 66.0489 62.1899 66.0496L65.176 67.9624 63.5636 62.6181 51.4498 54.2748 61.6164 65.6352 61.589 65.6651 61.7925 65.7956C61.706 65.5852 61.8053 65.3443 62.015 65.2561ZM61.0213 66.2858 51.6313 76.5531C51.7598 76.5809 51.8758 76.6621 51.9297 76.7934 52.0164 77.0049 51.9155 77.2467 51.7042 77.3338L51.6214 77.3678 63.4426 85.4811 65.4536 69.1252 61.0213 66.2867ZM54.7695 76.072 53.6199 76.5448C53.4096 76.6325 53.1679 76.5331 53.0802 76.3227 53.0797 76.3216 53.0792 76.3205 53.0788 76.3194 52.9918 76.1077 53.0929 75.8656 53.3046 75.7786 53.3046 75.7786 53.3046 75.7786 53.3046 75.7786L54.4541 75.3054C54.6658 75.2183 54.908 75.3193 54.9951 75.531 55.0822 75.7427 54.9812 75.9849 54.7695 76.072ZM57.8351 74.8098 56.6856 75.2834C56.4743 75.3708 56.2322 75.2703 56.1449 75.0591 56.1447 75.0587 56.1446 75.0584 56.1444 75.058 56.0572 74.8464 56.1579 74.6041 56.3695 74.5169 56.3696 74.5169 56.3697 74.5168 56.3698 74.5168L57.5193 74.0436C57.731 73.9564 57.9733 74.0573 58.0605 74.269 58.1477 74.4807 58.0468 74.723 57.8351 74.8102ZM60.9007 73.548 59.7508 74.0212C59.5394 74.1084 59.2974 74.0077 59.2103 73.7963 59.2102 73.7961 59.2101 73.796 59.21 73.7958 59.123 73.5842 59.2239 73.3421 59.4355 73.255L60.585 72.7813C60.7967 72.6942 61.039 72.7951 61.1262 73.0068 61.2133 73.2185 61.1124 73.4608 60.9007 73.548ZM63.9659 72.2861 62.8164 72.7594C62.6051 72.8466 62.3631 72.7459 62.2759 72.5345 62.2758 72.5343 62.2757 72.5342 62.2757 72.534 62.1884 72.3224 62.2892 72.0801 62.5008 71.9929 62.5009 71.9929 62.501 71.9928 62.5011 71.9928L63.6506 71.5195C63.8623 71.4325 64.1045 71.5335 64.1916 71.7452 64.2786 71.9569 64.1777 72.1991 63.9659 72.2861ZM64.8648 64.0614 65.8593 63.6445C66.0723 63.5609 66.3128 63.6659 66.3964 63.8789 66.4773 64.0851 66.3818 64.3184 66.1796 64.4087L65.1055 64.8591 66.1614 68.3582 71.4212 66.1855 70.4225 65.5006C70.2337 65.371 70.1856 65.1129 70.3152 64.9242 70.4447 64.7354 70.7028 64.6873 70.8916 64.8168L71.9164 65.5205C72.0418 65.6081 72.1082 65.7582 72.0883 65.91L72.2773 65.8321 82.264 55.1438 64.423 62.5978 64.8648 64.0614ZM69.0219 66.6269C68.8054 66.6998 68.5709 66.5834 68.4979 66.367 68.4977 66.3663 68.4975 66.3656 68.4973 66.365L68.1044 65.1852C68.0416 64.9649 68.1692 64.7354 68.3895 64.6725 68.5965 64.6135 68.8143 64.7226 68.8909 64.9237L69.2842 66.1031C69.3563 66.3202 69.2386 66.5548 69.0219 66.6269ZM67.6076 61.9658C67.6392 61.7392 67.8485 61.581 68.0752 61.6127 68.2948 61.6433 68.4514 61.8413 68.4305 62.062L68.3154 63.0482 69.1835 63.6445C69.3723 63.7739 69.4204 64.0319 69.291 64.2207 69.1616 64.4095 68.9036 64.4577 68.7148 64.3283L67.6896 63.6242C67.6847 63.6209 67.6822 63.6151 67.6772 63.6118 67.5283 63.5314 67.4434 63.3684 67.463 63.2003L67.6076 61.9654ZM69.9398 68.0685 70.3326 69.2479C70.34 69.2707 70.3376 69.2934 70.3409 69.3167 70.345 69.3436 70.3521 69.3701 70.3508 69.397 70.3496 69.424 70.3413 69.4488 70.3351 69.4745 70.3284 69.5006 70.3247 69.5263 70.3139 69.5504 70.3027 69.5744 70.2858 69.5939 70.2708 69.615 70.2551 69.637 70.2418 69.6598 70.2219 69.6784 70.2021 69.6971 70.1776 69.7091 70.154 69.724 70.1345 69.7364 70.1192 69.753 70.0972 69.7621L68.9473 70.2354C68.7391 70.3309 68.4928 70.2395 68.3973 70.0313 68.3018 69.8231 68.3931 69.5769 68.6013 69.4813 68.6114 69.4767 68.6216 69.4725 68.6319 69.4687L69.4238 69.1426 69.1528 68.3304C69.1176 68.2237 69.1275 68.1073 69.1802 68.008L66.2786 69.2068 66.1191 70.503 66.7158 70.2577C66.9305 70.1779 67.1693 70.2873 67.2491 70.502 67.3251 70.7063 67.23 70.9344 67.0316 71.0243L66.0031 71.4474 64.2618 85.6095 82.0258 78.163 81.6445 77.9015C81.4617 77.7634 81.4254 77.5033 81.5635 77.3205 81.6926 77.1496 81.9306 77.1051 82.1128 77.2178L82.3075 77.3508 72.8027 66.5117 69.6617 67.8091C69.7915 67.8443 69.8954 67.9414 69.9393 68.0685ZM78.8018 75.4517C78.9312 75.2629 79.189 75.2146 79.3778 75.3439L80.4034 76.0467C80.5871 76.1837 80.625 76.4435 80.488 76.6272 80.3587 76.8006 80.1179 76.8456 79.9348 76.7305L78.9091 76.0276C78.7206 75.8982 78.6724 75.6405 78.8014 75.4517ZM76.0669 73.5778C76.1962 73.389 76.4541 73.3408 76.6429 73.4701L77.6685 74.1729C77.8513 74.3109 77.8876 74.571 77.7495 74.7539 77.6204 74.9248 77.3824 74.9693 77.2002 74.8566L76.1746 74.1538C75.986 74.0243 75.9378 73.7667 76.0669 73.5778ZM73.3319 71.7039C73.4611 71.5151 73.719 71.4667 73.9079 71.5959 73.908 71.596 73.9082 71.5961 73.9083 71.5962L74.9343 72.299C75.118 72.436 75.1559 72.6958 75.0189 72.8795 74.8896 73.0529 74.6488 73.0978 74.4657 72.9827L73.4397 72.2799C73.2511 72.1505 73.2029 71.8928 73.3319 71.7039ZM70.5978 69.8305C70.7272 69.6419 70.9849 69.5937 71.1738 69.7228L72.1994 70.4251C72.3822 70.5632 72.4185 70.8233 72.2804 71.0061 72.1513 71.1771 71.9133 71.2216 71.7311 71.1089L70.7055 70.4065C70.5169 70.277 70.4688 70.0194 70.5978 69.8305ZM67.9494 60.2262C67.8717 60.1396 67.8346 60.0238 67.8475 59.908L67.9917 58.6731C68.0162 58.4474 68.2191 58.2844 68.4448 58.3089 68.4471 58.3092 68.4494 58.3094 68.4517 58.3097 68.6787 58.3363 68.8413 58.5418 68.8151 58.7689L68.6808 59.9208 82.1318 54.3005 70.287 46.1702 70.2095 46.8333C70.1779 47.0599 69.9685 47.2181 69.7419 47.1865 69.5223 47.1558 69.3657 46.9578 69.3865 46.7371L69.4504 46.1897 51.8729 53.5596 63.9668 61.8904 67.949 60.2262ZM69.1458 48.795C69.1706 48.5691 69.3738 48.4061 69.5997 48.4308 69.6017 48.4311 69.6037 48.4313 69.6058 48.4316 69.8328 48.4584 69.9952 48.664 69.9688 48.8911L69.825 50.126C69.7984 50.3534 69.5926 50.5162 69.3652 50.4896 69.1378 50.463 68.975 50.2572 69.0016 50.0298L69.1458 48.795ZM68.7612 52.0877C68.7827 51.8599 68.9848 51.6926 69.2127 51.714 69.4405 51.7355 69.6078 51.9377 69.5864 52.1655 69.5858 52.1716 69.585 52.1777 69.5842 52.1838L69.44 53.4187C69.4134 53.6461 69.2074 53.8088 68.98 53.7821 68.7527 53.7555 68.59 53.5495 68.6166 53.3222L68.7616 52.0877ZM68.3763 55.3804C68.3978 55.1526 68.5999 54.9853 68.8277 55.0068 69.0556 55.0283 69.2229 55.2304 69.2014 55.4582 69.2008 55.4644 69.2001 55.4705 69.1992 55.4765L69.055 56.7114C69.0328 56.9392 68.8301 57.1058 68.6024 57.0836 68.3746 57.0613 68.2079 56.8587 68.2302 56.6309 68.2307 56.6255 68.2313 56.6202 68.2321 56.6149L68.3763 55.38Z" fill="#FFFFFF" fill-rule="nonzero" fill-opacity="1"/></g></g></g></g></g><g clip-path="url(#clip25)"><g clip-path="url(#clip26)"><g clip-path="url(#clip27)"><path d="M287.572 956.52 289.925 955.533C290.557 955.268 291.284 955.565 291.549 956.197 291.814 956.829 291.517 957.556 290.885 957.821L288.531 958.808C288.392 958.863 288.244 958.892 288.095 958.895L297.03 964.619 292.206 948.626 255.957 923.66 286.379 957.655 286.297 957.744 286.906 958.135C286.647 957.505 286.944 956.784 287.572 956.52ZM284.598 959.602 256.5 990.325C256.884 990.408 257.231 990.651 257.393 991.044 257.652 991.677 257.35 992.4 256.718 992.661L256.47 992.763 291.843 1017.04 297.861 968.098 284.598 959.604ZM265.89 988.885 262.451 990.3C261.821 990.563 261.098 990.265 260.835 989.636 260.834 989.632 260.832 989.629 260.831 989.626 260.571 988.992 260.873 988.268 261.507 988.007 261.507 988.007 261.507 988.007 261.507 988.007L264.947 986.591C265.58 986.331 266.305 986.633 266.565 987.266 266.826 987.9 266.524 988.625 265.89 988.885ZM275.064 985.108 271.624 986.526C270.992 986.787 270.267 986.486 270.006 985.854 270.005 985.853 270.005 985.852 270.005 985.851 269.744 985.218 270.045 984.493 270.678 984.232 270.679 984.232 270.679 984.232 270.679 984.232L274.119 982.815C274.752 982.555 275.477 982.857 275.738 983.49 275.999 984.124 275.697 984.849 275.064 985.109ZM284.237 981.332 280.796 982.749C280.164 983.009 279.44 982.708 279.179 982.076 279.179 982.075 279.178 982.075 279.178 982.074 278.918 981.441 279.22 980.716 279.853 980.456L283.292 979.038C283.926 978.778 284.651 979.08 284.912 979.713 285.173 980.347 284.871 981.072 284.237 981.332ZM293.41 977.557 289.97 978.973C289.337 979.234 288.613 978.932 288.352 978.3 288.352 978.299 288.352 978.299 288.352 978.298 288.091 977.665 288.392 976.94 289.025 976.679 289.026 976.679 289.026 976.679 289.026 976.679L292.466 975.263C293.099 975.002 293.824 975.304 294.085 975.938 294.345 976.571 294.043 977.296 293.41 977.557ZM296.099 952.945 299.075 951.698C299.713 951.448 300.432 951.762 300.682 952.399 300.924 953.016 300.639 953.714 300.034 953.984L296.82 955.332 299.979 965.803 315.718 959.301 312.73 957.252C312.165 956.864 312.021 956.092 312.409 955.527 312.796 954.962 313.569 954.818 314.134 955.206L317.2 957.311C317.576 957.573 317.774 958.023 317.715 958.477L318.28 958.244 348.164 926.26 294.777 948.566 296.099 952.945ZM308.539 960.622C307.891 960.84 307.189 960.492 306.971 959.844 306.97 959.842 306.97 959.84 306.969 959.838L305.793 956.308C305.605 955.649 305.987 954.962 306.647 954.774 307.266 954.597 307.918 954.924 308.147 955.526L309.324 959.055C309.539 959.704 309.187 960.406 308.539 960.622ZM304.307 946.675C304.401 945.996 305.028 945.523 305.706 945.618 306.363 945.709 306.832 946.302 306.769 946.962L306.425 949.913 309.022 951.698C309.587 952.085 309.731 952.857 309.344 953.422 308.957 953.987 308.185 954.131 307.62 953.744L304.552 951.637C304.537 951.627 304.53 951.61 304.515 951.6 304.069 951.359 303.815 950.871 303.874 950.368L304.307 946.673ZM311.285 964.936 312.461 968.465C312.483 968.533 312.476 968.601 312.486 968.671 312.498 968.751 312.519 968.831 312.515 968.911 312.512 968.992 312.487 969.066 312.468 969.143 312.448 969.221 312.437 969.298 312.405 969.37 312.372 969.442 312.321 969.5 312.276 969.564 312.229 969.629 312.189 969.698 312.13 969.753 312.07 969.809 311.997 969.845 311.926 969.89 311.868 969.927 311.822 969.977 311.757 970.004L308.316 971.42C307.692 971.706 306.956 971.432 306.67 970.809 306.384 970.186 306.657 969.449 307.28 969.164 307.31 969.15 307.341 969.137 307.372 969.126L309.742 968.15 308.931 965.72C308.825 965.4 308.855 965.052 309.012 964.755L300.33 968.342 299.853 972.221 301.638 971.487C302.281 971.248 302.995 971.575 303.234 972.218 303.461 972.829 303.177 973.512 302.583 973.781L299.505 975.047 294.295 1017.43 347.451 995.142 346.31 994.36C345.763 993.947 345.655 993.168 346.068 992.621 346.454 992.11 347.166 991.977 347.712 992.314L348.294 992.712 319.853 960.277 310.453 964.16C310.842 964.265 311.153 964.556 311.284 964.936ZM337.804 987.029C338.191 986.464 338.963 986.32 339.528 986.707L342.597 988.81C343.146 989.219 343.259 989.997 342.85 990.547 342.463 991.066 341.742 991.2 341.194 990.856L338.125 988.753C337.561 988.365 337.417 987.594 337.803 987.029ZM329.62 981.422C330.007 980.857 330.779 980.712 331.344 981.099L334.413 983.202C334.96 983.616 335.068 984.394 334.655 984.941 334.269 985.452 333.556 985.586 333.011 985.248L329.942 983.145C329.378 982.758 329.234 981.987 329.62 981.422ZM321.436 975.814C321.823 975.249 322.594 975.105 323.16 975.491 323.16 975.491 323.16 975.492 323.161 975.492L326.231 977.595C326.781 978.005 326.894 978.783 326.484 979.332 326.097 979.851 325.377 979.986 324.829 979.641L321.758 977.538C321.194 977.151 321.05 976.38 321.436 975.814ZM313.254 970.208C313.642 969.644 314.413 969.5 314.978 969.886L318.047 971.988C318.594 972.401 318.703 973.179 318.289 973.726 317.903 974.238 317.191 974.371 316.646 974.034L313.577 971.932C313.013 971.545 312.868 970.774 313.254 970.208ZM305.33 941.469C305.097 941.21 304.986 940.863 305.025 940.517L305.456 936.822C305.53 936.146 306.137 935.658 306.812 935.732 306.819 935.732 306.826 935.733 306.833 935.734 307.512 935.814 307.999 936.428 307.92 937.108L307.518 940.555 347.769 923.737 312.324 899.408 312.093 901.392C311.998 902.071 311.372 902.544 310.693 902.449 310.036 902.358 309.568 901.765 309.63 901.105L309.821 899.467 257.223 921.52 293.412 946.449 305.328 941.469ZM308.91 907.262C308.984 906.586 309.592 906.099 310.268 906.173 310.274 906.174 310.28 906.174 310.286 906.175 310.965 906.255 311.451 906.871 311.372 907.55L310.942 911.245C310.862 911.926 310.246 912.413 309.566 912.333 308.886 912.254 308.399 911.638 308.478 910.958L308.91 907.262ZM307.759 917.115C307.823 916.434 308.428 915.933 309.11 915.997 309.792 916.062 310.292 916.667 310.228 917.348 310.226 917.367 310.224 917.385 310.221 917.403L309.79 921.098C309.71 921.779 309.094 922.266 308.414 922.186 307.733 922.106 307.246 921.49 307.326 920.809L307.76 917.115ZM306.607 926.969C306.671 926.287 307.276 925.786 307.958 925.85 308.64 925.915 309.14 926.52 309.076 927.201 309.074 927.22 309.072 927.238 309.069 927.256L308.638 930.951C308.571 931.633 307.965 932.132 307.283 932.065 306.602 931.998 306.103 931.392 306.17 930.71 306.171 930.694 306.173 930.678 306.175 930.662L306.607 926.967Z" fill="#FFFFFF" fill-rule="nonzero" fill-opacity="1"/></g></g></g></g></svg>