<svg xmlns="http://www.w3.org/2000/svg" viewBox="0 0 48 48"><circle cx="24" cy="24" r="22" fill="#e1fefc" class="colore1f5fe svgShape"></circle><circle cx="24" cy="24" r="15.5" fill="#b3fcf6" class="colorb3e5fc svgShape"></circle><path fill="#b3fff9" d="M29.5 18.065c0 4.089-2.5 7.403-5 7.403s-5-3.314-5-7.403c0-4.09 2.239-6.347 5-6.347s5 2.258 5 6.347z" class="colorffecb3 svgShape"></path><path fill="#b3fff9" d="M21.5 23.89v2.075c0 .831-.629 1.583-1.39 1.916l-4.604 2.015A4.18 4.18 0 0 0 13 33.727v1.189a15.518 15.518 0 0 0 3.392 2.579l15.251-.021A15.56 15.56 0 0 0 36 33.806v-.08a4.181 4.181 0 0 0-2.506-3.831L28.89 27.88c-.762-.333-1.39-1.085-1.39-1.916v-1.91l-6-.164z" class="colorffecb3 svgShape"></path><path fill="#ffffff" d="M15.906 31.312a.5.5 0 0 1-.2-.958l4.605-2.015c1.01-.443 1.689-1.397 1.689-2.374a.5.5 0 0 1 1 0c0 1.369-.919 2.691-2.288 3.29l-4.605 2.015a.51.51 0 0 1-.201.042z" class="colorffffff svgShape"></path><path fill="none" stroke="#ffffff" stroke-linecap="round" stroke-miterlimit="10" d="M21.502 23.89H21.5h0z" class="colorStrokeffffff svgStroke"></path><path fill="#02bdae" d="M34.539 31.051a.501.501 0 0 1-.325-.12 3.654 3.654 0 0 0-.919-.577l-4.605-2.015c-1.011-.442-1.69-1.396-1.69-2.374v-1.91a.5.5 0 0 1 1 0v1.91c0 .578.448 1.178 1.09 1.458l4.604 2.015c.424.185.817.432 1.17.733a.5.5 0 0 1-.325.88zm-19.033-.655a.498.498 0 0 1-.2-.958l4.604-2.015c.642-.281 1.09-.881 1.09-1.458V23.89a.5.5 0 0 1 1 0v2.075c0 .978-.679 1.932-1.689 2.374l-4.604 2.015a.514.514 0 0 1-.201.042z" class="color0277bd svgShape"></path><path fill="#02bdae" d="M36.285 33.953a.5.5 0 0 1-.397-.805A14.856 14.856 0 0 0 39 24c0-8.271-6.729-15-15-15-3.345 0-6.51 1.077-9.15 3.113a.499.499 0 1 1-.611-.791A15.84 15.84 0 0 1 24 8c8.822 0 16 7.178 16 16 0 3.565-1.147 6.94-3.318 9.758a.5.5 0 0 1-.397.195z" class="color0277bd svgShape"></path><path fill="#e1fefc" d="M35.631 33.16a.499.499 0 0 1-.401-.799A13.882 13.882 0 0 0 38 24c0-7.72-6.28-14-14-14-3.13 0-6.09 1.01-8.56 2.921a.5.5 0 0 1-.611-.791A14.854 14.854 0 0 1 24 9c8.271 0 15 6.729 15 15a14.87 14.87 0 0 1-2.969 8.959.495.495 0 0 1-.4.201z" class="colore1f5fe svgShape"></path><path fill="#ffffff" d="M20.5 18.565a.5.5 0 0 1-.5-.5c0-3.552 1.767-5.847 4.5-5.847a.5.5 0 0 1 0 1c-2.126 0-3.5 1.902-3.5 4.847a.5.5 0 0 1-.5.5z" class="colorffffff svgShape"></path><path fill="#02bdae" d="M24.5 25.969c-.196 0-.392-.018-.587-.052a.5.5 0 0 1 .174-.984c2.25.401 4.913-2.66 4.913-6.867 0-3.497-1.809-5.847-4.5-5.847s-4.5 2.35-4.5 5.847c0 2.079.708 4.131 1.895 5.488a.5.5 0 0 1-.754.658C19.78 22.655 19 20.415 19 18.065c0-4.729 2.763-6.847 5.5-6.847s5.5 2.117 5.5 6.847c0 4.21-2.57 7.904-5.5 7.904z" class="color0277bd svgShape"></path><path fill="#41e1d4" d="m19.222 36.586-7.808-7.809c-2.095-2.092-1.65-5.719.739-7.421l2.193-1.562a1.58 1.58 0 0 0 .501-1.978l-4.189-8.693c-.718-1.486-2.684-1.83-3.84-.67L4.984 10.29c-1.647 1.652-2.542 3.961-2.261 6.291 1.806 14.966 13.729 26.89 28.695 28.694 2.33.281 4.638-.613 6.29-2.26l1.839-1.834c1.159-1.155.815-3.123-.672-3.84l-8.695-4.189a1.579 1.579 0 0 0-1.976.501l-1.563 2.193c-1.7 2.39-5.328 2.834-7.419.74z" class="color8c9eff svgShape"></path><path fill="#02bdae" d="M32.271 45.826c-.303 0-.607-.018-.912-.055a33.289 33.289 0 0 1-29.131-29.13c-.29-2.397.608-4.904 2.402-6.704L6.465 8.1a2.835 2.835 0 0 1 2.021-.84 2.89 2.89 0 0 1 2.622 1.646l4.189 8.694a2.077 2.077 0 0 1-.661 2.602l-2.193 1.562c-1.066.76-1.742 1.97-1.854 3.32-.105 1.27.324 2.486 1.179 3.34l7.808 7.809c.77.771 1.82 1.194 2.96 1.194 1.483 0 2.866-.699 3.7-1.87l1.563-2.193c.571-.803 1.706-1.093 2.601-.661l8.694 4.189a2.913 2.913 0 0 1 1.607 2.137 2.834 2.834 0 0 1-.8 2.508l-1.838 1.834c-1.568 1.56-3.678 2.455-5.792 2.455zM8.486 8.26a1.84 1.84 0 0 0-1.313.546l-1.835 1.838c-1.579 1.584-2.371 3.781-2.118 5.878A32.295 32.295 0 0 0 31.479 44.78c2.139.253 4.301-.547 5.878-2.118l1.838-1.834a1.843 1.843 0 0 0 .52-1.633 1.888 1.888 0 0 0-1.055-1.402l-8.695-4.189a1.103 1.103 0 0 0-1.352.341l-1.563 2.193c-1.021 1.434-2.708 2.29-4.515 2.29-1.406 0-2.709-.528-3.667-1.487l-7.808-7.809c-1.063-1.062-1.599-2.566-1.469-4.13.137-1.645.965-3.121 2.271-4.052l2.193-1.562a1.08 1.08 0 0 0 .341-1.354l-4.189-8.693A1.895 1.895 0 0 0 8.486 8.26z" class="color0277bd svgShape"></path><path fill="#e8f6f5" d="M13.002 35.886a.5.5 0 0 1-.351-.144C7.448 30.627 4.098 23.801 3.22 16.52c-.254-2.095.538-4.293 2.117-5.877l1.836-1.839a1.844 1.844 0 0 1 1.312-.545.5.5 0 0 1 0 1 .85.85 0 0 0-.604.252L6.046 11.35c-1.364 1.369-2.05 3.258-1.833 5.052.852 7.056 4.098 13.671 9.14 18.628a.5.5 0 0 1-.351.856z" class="colore8eaf6 svgShape"></path><path fill="#02bdae" d="M12.052 21.115a.498.498 0 0 1-.45-.283l-4.19-8.694a.5.5 0 1 1 .9-.434l4.19 8.694a.5.5 0 0 1-.45.717zm24.027 19.522a.495.495 0 0 1-.217-.05l-8.693-4.188a.5.5 0 0 1 .434-.9l8.693 4.188a.5.5 0 0 1-.217.95z" class="color0277bd svgShape"></path></svg>