<svg xmlns="http://www.w3.org/2000/svg" enable-background="new 0 0 100 100" viewBox="0 0 100 100"><path fill="#51cbc1" d="M39.753,81.913l1.047-3.829c0.438-2.933,4.546-5.103,7.499-5.103l13.94-4.433l13.94,4.433c2.953,0,7.061,2.17,7.499,5.103l1.047,3.829H39.753z" class="color8ecb51 svgShape"></path><path d="M83.935,83.295l-1.37-5.045c-0.333-2.231-3.79-4.143-6.387-4.143l-0.34-0.053l-13.6-4.325l-13.94,4.377c-2.597,0-6.054,1.912-6.387,4.143l-0.028,0.131l-1.342,4.914l-2.17-0.593l1.327-4.854c0.598-3.644,5.224-5.905,8.418-5.988l14.122-4.491l14.123,4.491c3.194,0.084,7.819,2.344,8.418,5.988l1.326,4.854L83.935,83.295z" fill="#000000" class="color000000 svgShape"></path><path fill="#ffffff" d="M78.143,81.913v-1.136V81.913z" class="colorffffff svgShape"></path><rect width="2.249" height="3.385" x="77.019" y="79.653" fill="#000000" class="color000000 svgShape"></rect><path fill="#ffffff" d="M46.334,81.913v-1.136V81.913z" class="colorffffff svgShape"></path><rect width="2.248" height="3.385" x="45.21" y="79.653" fill="#000000" class="color000000 svgShape"></rect><path fill="#ffffff" d="M65.046,72.206c-1.698,1.084-3.917,1.084-5.615,0c-0.832-0.531-1.525-1.288-1.525-2.334v-2.56h8.666v2.56C66.571,70.918,65.878,71.675,65.046,72.206z" class="colorffffff svgShape"></path><path d="M62.238,74.145c-1.219,0-2.399-0.343-3.412-0.991c-1.69-1.079-2.044-2.38-2.044-3.282v-3.683h10.913v3.683c0,0.902-0.354,2.203-2.044,3.282l0,0C64.635,73.802,63.455,74.145,62.238,74.145z M65.046,72.206h0.01H65.046z M59.03,68.437v1.435c0,0.185,0,0.745,1.006,1.387c1.304,0.832,3.098,0.832,4.405,0c1.005-0.642,1.005-1.202,1.005-1.387v-1.435H59.03z" fill="#000000" class="color000000 svgShape"></path><ellipse cx="62.238" cy="58.41" fill="#ffffff" rx="8.852" ry="10.224" class="colorffffff svgShape"></ellipse><path d="M62.238,69.758c-5.502,0-9.976-5.091-9.976-11.348c0-6.258,4.475-11.349,9.976-11.349c5.502,0,9.977,5.091,9.977,11.349C72.215,64.667,67.74,69.758,62.238,69.758z M62.238,49.31c-4.261,0-7.728,4.082-7.728,9.101c0,5.017,3.467,9.099,7.728,9.099c4.261,0,7.729-4.082,7.729-9.099C69.967,53.392,66.5,49.31,62.238,49.31z" fill="#000000" class="color000000 svgShape"></path><path fill="#41e1d4" d="M45.374,65.049h-3.373v3.373l-5.621-3.373h-3.373c-1.863,0-3.373-1.51-3.373-3.373V49.31c0-1.863,1.51-3.373,3.373-3.373h12.367c1.863,0,3.373,1.51,3.373,3.373v12.367C48.747,63.539,47.237,65.049,45.374,65.049z" class="color2edbf7 svgShape"></path><path d="M43.126,70.408l-7.058-4.234h-3.061c-2.48,0-4.497-2.017-4.497-4.497V49.31c0-2.48,2.017-4.497,4.497-4.497h12.367c2.48,0,4.497,2.017,4.497,4.497v12.367c0,2.48-2.017,4.497-4.497,4.497h-2.248V70.408z M33.007,47.061c-1.24,0-2.248,1.009-2.248,2.248v12.367c0,1.239,1.009,2.248,2.248,2.248h3.684l4.186,2.511v-2.511h4.497c1.24,0,2.249-1.009,2.249-2.248V49.31c0-1.24-1.009-2.248-2.249-2.248H33.007z" fill="#000000" class="color000000 svgShape"></path><rect width="10.118" height="2.248" x="34.132" y="50.434" fill="#000000" class="color000000 svgShape"></rect><rect width="10.118" height="2.248" x="34.132" y="54.931" fill="#000000" class="color000000 svgShape"></rect><rect width="7.87" height="2.249" x="34.132" y="59.428" fill="#000000" class="color000000 svgShape"></rect><g fill="#000000" class="color000000 svgShape"><path fill="#55f9ec" d="M18.392,41.439h3.373v3.373l5.621-3.373h19.113c1.863,0,3.373-1.51,3.373-3.373V21.203c0-1.863-1.51-3.373-3.373-3.373H18.392c-1.863,0-3.373,1.51-3.373,3.373v16.864C15.019,39.93,16.529,41.439,18.392,41.439z" class="colorf95555 svgShape"></path><path d="M20.641,46.799v-4.235h-2.249c-2.48,0-4.497-2.017-4.497-4.497V21.203c0-2.48,2.017-4.497,4.497-4.497h28.107c2.48,0,4.497,2.017,4.497,4.497v16.864c0,2.48-2.017,4.497-4.497,4.497H27.698L20.641,46.799z M18.392,18.954c-1.239,0-2.248,1.009-2.248,2.248v16.864c0,1.24,1.009,2.248,2.248,2.248h4.497v2.511l4.185-2.511h19.424c1.24,0,2.249-1.009,2.249-2.248V21.203c0-1.24-1.009-2.248-2.249-2.248H18.392z" fill="#000000" class="color000000 svgShape"></path><path d="M26.262 31.883h-2.248v-1.538c0-1.253.715-2.357 1.82-2.816.799-.331 1.251-1.166 1.1-2.03-.125-.718-.738-1.33-1.456-1.456-.559-.101-1.093.044-1.514.397-.415.349-.653.858-.653 1.4v1.124h-2.248V25.84c0-1.207.53-2.345 1.456-3.121.922-.778 2.139-1.1 3.349-.891 1.643.29 2.993 1.639 3.282 3.282.335 1.911-.675 3.76-2.455 4.496-.255.106-.433.409-.433.738V31.883zM24.013 36.381v-2.249h2.248v2.249C24.013 36.381 26.262 36.381 24.013 36.381z" fill="#000000" class="color000000 svgShape"></path></g><g fill="#000000" class="color000000 svgShape"><path fill="#41e1d4" d="M58.866,42.564h13.491v3.373l5.622-3.373h3.373c1.863,0,3.373-1.51,3.373-3.373V25.7c0-1.862-1.51-3.373-3.373-3.373H58.866c-1.863,0-3.373,1.51-3.373,3.373v13.492C55.493,41.054,57.003,42.564,58.866,42.564z" class="color2edbf7 svgShape"></path><path d="M71.232,47.923v-4.235H58.866c-2.48,0-4.497-2.016-4.497-4.497V25.7c0-2.48,2.017-4.497,4.497-4.497h22.485c2.48,0,4.497,2.017,4.497,4.497v13.492c0,2.48-2.017,4.497-4.497,4.497H78.29L71.232,47.923z M58.866,23.451c-1.24,0-2.248,1.009-2.248,2.248v13.492c0,1.24,1.009,2.248,2.248,2.248h14.615v2.511l4.185-2.511h3.684c1.24,0,2.249-1.009,2.249-2.248V25.7c0-1.239-1.009-2.248-2.249-2.248H58.866z" fill="#000000" class="color000000 svgShape"></path><path d="M73.481,33.57v-2.248h2.249v2.248C73.481,33.57,75.73,33.57,73.481,33.57z M68.984,33.57v-2.248h2.248v2.248C68.984,33.57,71.232,33.57,68.984,33.57z M64.487,33.57v-2.248h2.249v2.248C64.487,33.57,66.736,33.57,64.487,33.57z" fill="#000000" class="color000000 svgShape"></path></g><g fill="#000000" class="color000000 svgShape"><rect width="13.491" height="2.249" x="31.883" y="24.575" fill="#000000" class="color000000 svgShape"></rect></g><g fill="#000000" class="color000000 svgShape"><path d="M45.374,31.321h-6.745v-2.248h6.745V31.321z M36.38,31.321h-4.497v-2.248h4.497V31.321z" fill="#000000" class="color000000 svgShape"></path></g><g fill="#000000" class="color000000 svgShape"><rect width="7.87" height="2.249" x="31.883" y="33.57" fill="#000000" class="color000000 svgShape"></rect></g></svg>