<svg xmlns="http://www.w3.org/2000/svg" enable-background="new 0 0 64 64" viewBox="0 0 64 64"><path fill="#d7fffc" d="M63 9H1V7c0-1.11.89-2 2-2h58c1.11 0 2 .89 2 2V9zM43 27h16v23H43V27zM55 44.5c0-.83-.67-1.5-1.5-1.5h-5c-.83 0-1.5.67-1.5 1.5 0 .82.67 1.5 1.5 1.5h5C54.33 46 55 45.32 55 44.5z" class="colord7e9ff svgShape"></path><path fill="#41e1d4" d="M53.5,43c0.83,0,1.5,0.67,1.5,1.5c0,0.82-0.67,1.5-1.5,1.5h-5c-0.83,0-1.5-0.68-1.5-1.5
			c0-0.83,0.67-1.5,1.5-1.5H53.5z" class="color94c1ff svgShape"></path><path fill="#d7fffc" d="M24,22h16v33H24V22z M36,49.5c0-0.83-0.67-1.5-1.5-1.5h-5c-0.83,0-1.5,0.67-1.5,1.5s0.67,1.5,1.5,1.5h5
			C35.33,51,36,50.33,36,49.5z" class="colord7e9ff svgShape"></path><path fill="#41e1d4" d="M34.5 51h-5c-.83 0-1.5-.67-1.5-1.5s.67-1.5 1.5-1.5h5c.83 0 1.5.67 1.5 1.5S35.33 51 34.5 51zM15.5 43c.83 0 1.5.67 1.5 1.5 0 .82-.67 1.5-1.5 1.5h-5C9.67 46 9 45.32 9 44.5c0-.83.67-1.5 1.5-1.5H15.5z" class="color94c1ff svgShape"></path><path fill="#d7fffc" d="M5,27h16v23H5V27z M17,44.5c0-0.83-0.67-1.5-1.5-1.5h-5C9.67,43,9,43.67,9,44.5c0,0.82,0.67,1.5,1.5,1.5h5
			C16.33,46,17,45.32,17,44.5z" class="colord7e9ff svgShape"></path><path fill="#ffffff" d="M43,27v23h16V27H43z M21,27H5v23h16V27z M24,22v33h16V22H24z M63,9v50H1V9H63z" class="colorffffff svgShape"></path><path fill="#11ffec" d="M1 7.998c-.553 0-1-.448-1-1 0-1.654 1.346-3 3-3 .553 0 1 .448 1 1s-.447 1-1 1c-.552 0-1 .449-1 1C2 7.55 1.553 7.998 1 7.998zM63 7.998c-.553 0-1-.448-1-1 0-.551-.448-1-1-1-.553 0-1-.448-1-1s.447-1 1-1c1.654 0 3 1.346 3 3C64 7.55 63.553 7.998 63 7.998z" class="color116fff svgShape"></path><path fill="#11ffec" d="M61 5.998H3c-.553 0-1-.448-1-1s.447-1 1-1h58c.553 0 1 .448 1 1S61.553 5.998 61 5.998zM4.03 7.998c-.553 0-1.005-.448-1.005-1s.442-1 .994-1H4.03c.552 0 1 .448 1 1S4.582 7.998 4.03 7.998zM7.029 7.998c-.553 0-1.005-.448-1.005-1s.442-1 .994-1h.011c.552 0 1 .448 1 1S7.581 7.998 7.029 7.998zM10.032 7.998c-.553 0-1.005-.448-1.005-1s.442-1 .994-1h.011c.552 0 1 .448 1 1S10.584 7.998 10.032 7.998zM1 60.002c-.553 0-1-.447-1-1V6.998c0-.552.447-1 1-1s1 .448 1 1v52.004C2 59.555 1.553 60.002 1 60.002zM63 60.002c-.553 0-1-.447-1-1V6.998c0-.552.447-1 1-1s1 .448 1 1v52.004C64 59.555 63.553 60.002 63 60.002z" class="color116fff svgShape"></path><path fill="#11ffec" d="M63 9.998H1c-.553 0-1-.448-1-1s.447-1 1-1h62c.553 0 1 .448 1 1S63.553 9.998 63 9.998zM63 60.002H1c-.553 0-1-.447-1-1s.447-1 1-1h62c.553 0 1 .447 1 1S63.553 60.002 63 60.002zM21.001 51.002h-16c-.553 0-1-.447-1-1v-23c0-.552.447-1 1-1h16c.553 0 1 .448 1 1v23C22.001 50.555 21.554 51.002 21.001 51.002zM6.001 49.002h14v-21h-14V49.002zM58.999 51.002h-16c-.553 0-1-.447-1-1v-23c0-.552.447-1 1-1h16c.553 0 1 .448 1 1v23C59.999 50.555 59.552 51.002 58.999 51.002zM43.999 49.002h14v-21h-14V49.002zM39.999 56.007h-16c-.553 0-1-.447-1-1V21.999c0-.552.447-1 1-1h16c.553 0 1 .448 1 1v33.008C40.999 55.56 40.552 56.007 39.999 56.007zM24.999 54.007h14V22.999h-14V54.007zM51.002 15.002h-38c-.553 0-1-.448-1-1s.447-1 1-1h38c.553 0 1 .448 1 1S51.555 15.002 51.002 15.002zM44.002 18.001h-24c-.553 0-1-.448-1-1s.447-1 1-1h24c.553 0 1 .448 1 1S44.555 18.001 44.002 18.001z" class="color116fff svgShape"></path><path fill="#11ffec" d="M12.999 31.998h-4c-.553 0-1-.448-1-1s.447-1 1-1h4c.553 0 1 .448 1 1S13.552 31.998 12.999 31.998zM17 30.998h-1c-.553 0-1-.448-1-1s.447-1 1-1h1c.553 0 1 .448 1 1S17.553 30.998 17 30.998z" class="color116fff svgShape"></path><path fill="#11ffec" d="M17.001,32.998c-0.367,0-0.72-0.202-0.896-0.553l-1-2c-0.247-0.494-0.047-1.095,0.447-1.342
			c0.493-0.248,1.095-0.046,1.342,0.447l1,2c0.247,0.494,0.047,1.095-0.447,1.342C17.304,32.964,17.151,32.998,17.001,32.998z" class="color116fff svgShape"></path><path fill="#11ffec" d="M17 32.998h-1c-.553 0-1-.448-1-1s.447-1 1-1h1c.553 0 1 .448 1 1S17.553 32.998 17 32.998zM9.031 39.997c-.553 0-1.005-.447-1.005-1s.442-1 .994-1h.011c.552 0 1 .447 1 1S9.583 39.997 9.031 39.997zM16.995 39.997h-4.994c-.553 0-1-.447-1-1s.447-1 1-1h4.994c.553 0 1 .447 1 1S17.548 39.997 16.995 39.997zM9.031 36.996c-.553 0-1.005-.447-1.005-1s.442-1 .994-1h.011c.552 0 1 .447 1 1S9.583 36.996 9.031 36.996zM16.995 36.996h-4.994c-.553 0-1-.447-1-1s.447-1 1-1h4.994c.553 0 1 .447 1 1S17.548 36.996 16.995 36.996zM15.501 46.998h-5.002c-.553 0-1-.447-1-1s.447-1 1-1h5.002c.553 0 1 .447 1 1S16.054 46.998 15.501 46.998zM15.501 43.998h-5.002c-.553 0-1-.447-1-1s.447-1 1-1h5.002c.553 0 1 .447 1 1S16.054 43.998 15.501 43.998z" class="color116fff svgShape"></path><path fill="#11ffec" d="M10.499 46.998c-1.379 0-2.5-1.121-2.5-2.5s1.121-2.5 2.5-2.5c.553 0 1 .447 1 1s-.447 1-1 1c-.275 0-.5.225-.5.5s.225.5.5.5c.553 0 1 .447 1 1S11.052 46.998 10.499 46.998zM15.501 46.998c-.553 0-1-.447-1-1s.447-1 1-1c.275 0 .5-.225.5-.5s-.225-.5-.5-.5c-.553 0-1-.447-1-1s.447-1 1-1c1.379 0 2.5 1.121 2.5 2.5S16.88 46.998 15.501 46.998zM50.998 31.998h-4c-.553 0-1-.448-1-1s.447-1 1-1h4c.553 0 1 .448 1 1S51.551 31.998 50.998 31.998zM54.999 30.998h-1c-.553 0-1-.448-1-1s.447-1 1-1h1c.553 0 1 .448 1 1S55.552 30.998 54.999 30.998z" class="color116fff svgShape"></path><path fill="#11ffec" d="M55,32.998c-0.367,0-0.72-0.202-0.896-0.553l-1-2c-0.247-0.494-0.047-1.095,0.447-1.342
			c0.494-0.248,1.094-0.046,1.342,0.447l1,2c0.247,0.494,0.047,1.095-0.447,1.342C55.303,32.964,55.15,32.998,55,32.998z" class="color116fff svgShape"></path><path fill="#11ffec" d="M54.999 32.998h-1c-.553 0-1-.448-1-1s.447-1 1-1h1c.553 0 1 .448 1 1S55.552 32.998 54.999 32.998zM47.03 39.997c-.553 0-1.005-.447-1.005-1s.442-1 .994-1h.011c.552 0 1 .447 1 1S47.582 39.997 47.03 39.997zM54.994 39.997H50c-.553 0-1-.447-1-1s.447-1 1-1h4.994c.553 0 1 .447 1 1S55.547 39.997 54.994 39.997zM47.03 36.996c-.553 0-1.005-.447-1.005-1s.442-1 .994-1h.011c.552 0 1 .447 1 1S47.582 36.996 47.03 36.996zM54.994 36.996H50c-.553 0-1-.447-1-1s.447-1 1-1h4.994c.553 0 1 .447 1 1S55.547 36.996 54.994 36.996zM53.5 46.998h-5.002c-.553 0-1-.447-1-1s.447-1 1-1H53.5c.553 0 1 .447 1 1S54.053 46.998 53.5 46.998zM53.5 43.998h-5.002c-.553 0-1-.447-1-1s.447-1 1-1H53.5c.553 0 1 .447 1 1S54.053 43.998 53.5 43.998z" class="color116fff svgShape"></path><path fill="#11ffec" d="M48.498 46.998c-1.379 0-2.5-1.121-2.5-2.5s1.121-2.5 2.5-2.5c.553 0 1 .447 1 1s-.447 1-1 1c-.275 0-.5.225-.5.5s.225.5.5.5c.553 0 1 .447 1 1S49.051 46.998 48.498 46.998zM53.5 46.998c-.553 0-1-.447-1-1s.447-1 1-1c.275 0 .5-.225.5-.5s-.225-.5-.5-.5c-.553 0-1-.447-1-1s.447-1 1-1c1.379 0 2.5 1.121 2.5 2.5S54.879 46.998 53.5 46.998zM31.998 26.996h-4c-.553 0-1-.448-1-1s.447-1 1-1h4c.553 0 1 .448 1 1S32.551 26.996 31.998 26.996zM35.999 25.996h-1c-.553 0-1-.448-1-1s.447-1 1-1h1c.553 0 1 .448 1 1S36.552 25.996 35.999 25.996z" class="color116fff svgShape"></path><path fill="#11ffec" d="M36,27.996c-0.367,0-0.72-0.202-0.896-0.553l-1-2c-0.247-0.494-0.047-1.095,0.447-1.342
			c0.494-0.247,1.095-0.047,1.342,0.447l1,2c0.247,0.494,0.047,1.095-0.447,1.342C36.303,27.962,36.15,27.996,36,27.996z" class="color116fff svgShape"></path><path fill="#11ffec" d="M35.999 27.996h-1c-.553 0-1-.448-1-1s.447-1 1-1h1c.553 0 1 .448 1 1S36.552 27.996 35.999 27.996zM28.03 34.992c-.553 0-1.005-.447-1.005-1s.442-1 .994-1h.011c.552 0 1 .447 1 1S28.582 34.992 28.03 34.992zM35.994 34.992H31c-.553 0-1-.447-1-1s.447-1 1-1h4.994c.553 0 1 .447 1 1S36.547 34.992 35.994 34.992zM28.03 37.992c-.553 0-1.005-.447-1.005-1s.442-1 .994-1h.011c.552 0 1 .447 1 1S28.582 37.992 28.03 37.992zM35.994 37.992H31c-.553 0-1-.447-1-1s.447-1 1-1h4.994c.553 0 1 .447 1 1S36.547 37.992 35.994 37.992zM28.03 40.992c-.553 0-1.005-.447-1.005-1s.442-1 .994-1h.011c.552 0 1 .447 1 1S28.582 40.992 28.03 40.992zM35.994 40.992H31c-.553 0-1-.447-1-1s.447-1 1-1h4.994c.553 0 1 .447 1 1S36.547 40.992 35.994 40.992zM28.03 43.992c-.553 0-1.005-.447-1.005-1s.442-1 .994-1h.011c.552 0 1 .447 1 1S28.582 43.992 28.03 43.992zM35.994 43.992H31c-.553 0-1-.447-1-1s.447-1 1-1h4.994c.553 0 1 .447 1 1S36.547 43.992 35.994 43.992zM28.03 31.992c-.553 0-1.005-.448-1.005-1s.442-1 .994-1h.011c.552 0 1 .448 1 1S28.582 31.992 28.03 31.992zM35.994 31.992H31c-.553 0-1-.448-1-1s.447-1 1-1h4.994c.553 0 1 .448 1 1S36.547 31.992 35.994 31.992zM34.5 52.003h-5.002c-.553 0-1-.447-1-1s.447-1 1-1H34.5c.553 0 1 .447 1 1S35.053 52.003 34.5 52.003zM34.5 49.003h-5.002c-.553 0-1-.447-1-1s.447-1 1-1H34.5c.553 0 1 .447 1 1S35.053 49.003 34.5 49.003z" class="color116fff svgShape"></path><path fill="#11ffec" d="M29.498 52.003c-1.379 0-2.5-1.121-2.5-2.5s1.121-2.5 2.5-2.5c.553 0 1 .447 1 1s-.447 1-1 1c-.275 0-.5.225-.5.5s.225.5.5.5c.553 0 1 .447 1 1S30.051 52.003 29.498 52.003zM34.5 52.003c-.553 0-1-.447-1-1s.447-1 1-1c.275 0 .5-.225.5-.5s-.225-.5-.5-.5c-.553 0-1-.447-1-1s.447-1 1-1c1.379 0 2.5 1.121 2.5 2.5S35.879 52.003 34.5 52.003z" class="color116fff svgShape"></path></svg>