<svg xmlns="http://www.w3.org/2000/svg" enable-background="new 0 0 64 64" viewBox="0 0 64 64"><path fill="#e6edec" d="M1,58c0,0.55,0.45,1,1,1h60c0.55,0,1-0.45,1-1V9H1V58z" class="colore6e9ed svgShape"></path><path fill="#ccd9d8" d="M63,7v2H1V7c0-1.109,0.89-2,2-2h58C62.11,5,63,5.891,63,7z" class="colorccd1d9 svgShape"></path><path fill="#e6edec" d="M4.006 5.998h-.01c-.553 0-.995.447-.995 1 0 .552.452 1 1.005 1s1-.448 1-1C5.006 6.445 4.559 5.998 4.006 5.998zM7.005 5.998h-.01C6.443 5.998 6 6.445 6 6.998c0 .552.453 1 1.005 1 .553 0 1-.448 1-1C8.005 6.445 7.558 5.998 7.005 5.998zM10.008 5.998h-.01c-.553 0-.995.447-.995 1 0 .552.452 1 1.005 1s1-.448 1-1C11.008 6.445 10.561 5.998 10.008 5.998z" class="colore6e9ed svgShape"></path><path fill="#ccd9d8" d="M44 28c-.55 0-1 .451-1 1v21.001c0 .55.45 1 1 1h14c.55 0 1-.45 1-1V29c0-.549-.45-1-1-1H44zM25 23c-.55 0-1 .451-1 1v31.001c0 .55.45 1 1 1h14c.55 0 1-.45 1-1V24c0-.549-.45-1-1-1H25zM6 28c-.55 0-1 .451-1 1v21.001c0 .55.45 1 1 1h14c.55 0 1-.45 1-1V29c0-.549-.45-1-1-1H6z" class="colorccd1d9 svgShape"></path><path fill="#ffffff" d="M44 27c-.55 0-1 .45-1 1v21c0 .55.45 1 1 1h14c.55 0 1-.45 1-1V28c0-.55-.45-1-1-1H44zM25 22c-.55 0-1 .45-1 1v31c0 .55.45 1 1 1h14c.55 0 1-.45 1-1V23c0-.55-.45-1-1-1H25zM6 27c-.55 0-1 .45-1 1v21c0 .55.45 1 1 1h14c.55 0 1-.45 1-1V28c0-.55-.45-1-1-1H6z" class="colorffffff svgShape"></path><path fill="#4adcd0" d="M53.5 44.001c.83 0 1.5.67 1.5 1.5 0 .82-.67 1.5-1.5 1.5h-5c-.83 0-1.5-.68-1.5-1.5 0-.83.67-1.5 1.5-1.5H53.5zM34.5 52.001h-5c-.83 0-1.5-.67-1.5-1.5s.67-1.5 1.5-1.5h5c.83 0 1.5.67 1.5 1.5S35.33 52.001 34.5 52.001zM15.5 44.001c.83 0 1.5.67 1.5 1.5 0 .82-.67 1.5-1.5 1.5h-5c-.83 0-1.5-.68-1.5-1.5 0-.83.67-1.5 1.5-1.5H15.5z" class="color4a89dc svgShape"></path><path fill="#ccd9d8" d="M51.002 15.002h-38c-.553 0-1-.447-1-1s.447-1 1-1h38c.553 0 1 .447 1 1S51.555 15.002 51.002 15.002zM44.002 18.001h-24c-.553 0-1-.448-1-1s.447-1 1-1h24c.553 0 1 .448 1 1S44.555 18.001 44.002 18.001z" class="colorccd1d9 svgShape"></path><path fill="#657876" d="M12.999,31.998h-4c-0.553,0-1-0.447-1-1s0.447-1,1-1h4c0.553,0,1,0.447,1,1S13.552,31.998,12.999,31.998z" class="color656d78 svgShape"></path><path fill="#68d4cb" d="M17,30.998h-1c-0.553,0-1-0.447-1-1s0.447-1,1-1h1c0.553,0,1,0.447,1,1S17.553,30.998,17,30.998z" class="colora0d468 svgShape"></path><path fill="#68d4cb" d="M17.001,32.998c-0.367,0-0.72-0.202-0.896-0.553l-1-2c-0.247-0.494-0.047-1.095,0.447-1.342
			c0.493-0.248,1.095-0.047,1.342,0.447l1,2c0.247,0.494,0.047,1.095-0.447,1.342C17.304,32.965,17.151,32.998,17.001,32.998z" class="colora0d468 svgShape"></path><path fill="#68d4cb" d="M17,32.998h-1c-0.553,0-1-0.447-1-1s0.447-1,1-1h1c0.553,0,1,0.447,1,1S17.553,32.998,17,32.998z" class="colora0d468 svgShape"></path><path fill="#ccd9d8" d="M9.031 39.997c-.553 0-1.005-.447-1.005-1s.442-1 .994-1h.011c.552 0 1 .447 1 1S9.583 39.997 9.031 39.997zM16.995 39.997h-4.994c-.553 0-1-.447-1-1s.447-1 1-1h4.994c.553 0 1 .447 1 1S17.548 39.997 16.995 39.997zM9.031 36.996c-.553 0-1.005-.447-1.005-1s.442-1 .994-1h.011c.552 0 1 .447 1 1S9.583 36.996 9.031 36.996zM16.995 36.996h-4.994c-.553 0-1-.447-1-1s.447-1 1-1h4.994c.553 0 1 .447 1 1S17.548 36.996 16.995 36.996z" class="colorccd1d9 svgShape"></path><path fill="#657876" d="M50.998,31.998h-4c-0.553,0-1-0.447-1-1s0.447-1,1-1h4c0.553,0,1,0.447,1,1S51.551,31.998,50.998,31.998z" class="color656d78 svgShape"></path><path fill="#68d4cb" d="M54.999,30.998h-1c-0.553,0-1-0.447-1-1s0.447-1,1-1h1c0.553,0,1,0.447,1,1S55.552,30.998,54.999,30.998z" class="colora0d468 svgShape"></path><path fill="#68d4cb" d="M55,32.998c-0.367,0-0.72-0.202-0.896-0.553l-1-2c-0.247-0.494-0.047-1.095,0.447-1.342
			c0.494-0.248,1.094-0.047,1.342,0.447l1,2c0.247,0.494,0.047,1.095-0.447,1.342C55.303,32.965,55.15,32.998,55,32.998z" class="colora0d468 svgShape"></path><path fill="#68d4cb" d="M54.999,32.998h-1c-0.553,0-1-0.447-1-1s0.447-1,1-1h1c0.553,0,1,0.447,1,1S55.552,32.998,54.999,32.998z" class="colora0d468 svgShape"></path><path fill="#ccd9d8" d="M47.03 39.997c-.553 0-1.005-.447-1.005-1s.442-1 .994-1h.011c.552 0 1 .447 1 1S47.582 39.997 47.03 39.997zM54.994 39.997H50c-.553 0-1-.447-1-1s.447-1 1-1h4.994c.553 0 1 .447 1 1S55.547 39.997 54.994 39.997zM47.03 36.996c-.553 0-1.005-.447-1.005-1s.442-1 .994-1h.011c.552 0 1 .447 1 1S47.582 36.996 47.03 36.996zM54.994 36.996H50c-.553 0-1-.447-1-1s.447-1 1-1h4.994c.553 0 1 .447 1 1S55.547 36.996 54.994 36.996z" class="colorccd1d9 svgShape"></path><path fill="#657876" d="M31.998,26.996h-4c-0.553,0-1-0.447-1-1s0.447-1,1-1h4c0.553,0,1,0.447,1,1S32.551,26.996,31.998,26.996z" class="color656d78 svgShape"></path><path fill="#68d4cb" d="M35.999,25.996h-1c-0.553,0-1-0.447-1-1s0.447-1,1-1h1c0.553,0,1,0.447,1,1S36.552,25.996,35.999,25.996z" class="colora0d468 svgShape"></path><path fill="#68d4cb" d="M36,27.996c-0.367,0-0.72-0.202-0.896-0.553l-1-2c-0.247-0.494-0.047-1.095,0.447-1.342
			c0.494-0.246,1.095-0.047,1.342,0.447l1,2c0.247,0.494,0.047,1.095-0.447,1.342C36.303,27.963,36.15,27.996,36,27.996z" class="colora0d468 svgShape"></path><path fill="#68d4cb" d="M35.999,27.996h-1c-0.553,0-1-0.447-1-1s0.447-1,1-1h1c0.553,0,1,0.447,1,1S36.552,27.996,35.999,27.996z" class="colora0d468 svgShape"></path><path fill="#ccd9d8" d="M28.03 34.992c-.553 0-1.005-.447-1.005-1s.442-1 .994-1h.011c.552 0 1 .447 1 1S28.582 34.992 28.03 34.992zM35.994 34.992H31c-.553 0-1-.447-1-1s.447-1 1-1h4.994c.553 0 1 .447 1 1S36.547 34.992 35.994 34.992zM28.03 37.992c-.553 0-1.005-.447-1.005-1s.442-1 .994-1h.011c.552 0 1 .447 1 1S28.582 37.992 28.03 37.992zM35.994 37.992H31c-.553 0-1-.447-1-1s.447-1 1-1h4.994c.553 0 1 .447 1 1S36.547 37.992 35.994 37.992zM28.03 40.992c-.553 0-1.005-.447-1.005-1s.442-1 .994-1h.011c.552 0 1 .447 1 1S28.582 40.992 28.03 40.992zM35.994 40.992H31c-.553 0-1-.447-1-1s.447-1 1-1h4.994c.553 0 1 .447 1 1S36.547 40.992 35.994 40.992zM28.03 43.992c-.553 0-1.005-.447-1.005-1s.442-1 .994-1h.011c.552 0 1 .447 1 1S28.582 43.992 28.03 43.992zM35.994 43.992H31c-.553 0-1-.447-1-1s.447-1 1-1h4.994c.553 0 1 .447 1 1S36.547 43.992 35.994 43.992zM28.03 31.992c-.553 0-1.005-.447-1.005-1s.442-1 .994-1h.011c.552 0 1 .447 1 1S28.582 31.992 28.03 31.992zM35.994 31.992H31c-.553 0-1-.447-1-1s.447-1 1-1h4.994c.553 0 1 .447 1 1S36.547 31.992 35.994 31.992z" class="colorccd1d9 svgShape"></path><rect width="8" height="1.001" x="9" y="44.5" fill="#4adcd0" class="color4a89dc svgShape"></rect><rect width="8" height="1.001" x="28" y="49.499" fill="#4adcd0" class="color4a89dc svgShape"></rect><rect width="8" height="1.001" x="47" y="44.5" fill="#4adcd0" class="color4a89dc svgShape"></rect><path fill="#41e1d4" d="M53.5 43c.83 0 1.5.67 1.5 1.5 0 .82-.67 1.5-1.5 1.5h-5c-.83 0-1.5-.68-1.5-1.5 0-.83.67-1.5 1.5-1.5H53.5zM34.5 51h-5c-.83 0-1.5-.67-1.5-1.5s.67-1.5 1.5-1.5h5c.83 0 1.5.67 1.5 1.5S35.33 51 34.5 51zM15.5 43c.83 0 1.5.67 1.5 1.5 0 .82-.67 1.5-1.5 1.5h-5C9.67 46 9 45.32 9 44.5c0-.83.67-1.5 1.5-1.5H15.5z" class="color5d9cec svgShape"></path></svg>