<svg width="495" height="495" xmlns="http://www.w3.org/2000/svg" xmlns:xlink="http://www.w3.org/1999/xlink" xml:space="preserve" overflow="hidden"><defs><filter id="fx0" x="-10%" y="-10%" width="120%" height="120%" filterUnits="userSpaceOnUse" primitiveUnits="userSpaceOnUse"><feComponentTransfer color-interpolation-filters="sRGB"><feFuncR type="discrete" tableValues="0.000000 0.000000"/><feFuncG type="discrete" tableValues="0.000000 0.000000"/><feFuncB type="discrete" tableValues="0.000000 0.000000"/><feFuncA type="linear" slope="0.400000" intercept="0.000000"/></feComponentTransfer><feGaussianBlur stdDeviation="6.111111 6.111111"/></filter><filter id="fx1" x="-10%" y="-10%" width="120%" height="120%" filterUnits="userSpaceOnUse" primitiveUnits="userSpaceOnUse"><feComponentTransfer color-interpolation-filters="sRGB"><feFuncR type="discrete" tableValues="1.000000 1.000000"/><feFuncG type="discrete" tableValues="1.000000 1.000000"/><feFuncB type="discrete" tableValues="1.000000 1.000000"/><feFuncA type="linear" slope="0.819608" intercept="0.000000"/></feComponentTransfer><feGaussianBlur stdDeviation="15.754810 15.722789"/></filter><clipPath id="clip2"><rect x="215" y="559" width="495" height="495"/></clipPath><clipPath id="clip3"><rect x="1.94025" y="0.666687" width="147.233" height="148.667"/></clipPath><clipPath id="clip4"><rect x="0" y="0" width="151" height="151"/></clipPath><clipPath id="clip5"><rect x="20" y="19" width="112" height="112"/></clipPath><clipPath id="clip6"><rect x="20" y="19" width="112" height="112"/></clipPath><clipPath id="clip7"><rect x="20" y="19" width="112" height="112"/></clipPath><clipPath id="clip8"><rect x="407" y="737" width="112" height="112"/></clipPath><clipPath id="clip9"><rect x="407" y="737" width="112" height="112"/></clipPath><clipPath id="clip10"><rect x="407" y="737" width="112" height="112"/></clipPath><clipPath id="clip11"><rect x="0.400852" y="-0.0464172" width="122.227" height="122.968"/></clipPath><clipPath id="clip12"><rect x="0" y="0" width="123" height="123"/></clipPath><clipPath id="clip13"><rect x="47" y="47" width="29" height="29"/></clipPath><clipPath id="clip14"><rect x="47" y="47" width="29" height="29"/></clipPath><clipPath id="clip15"><rect x="47" y="47" width="29" height="29"/></clipPath><clipPath id="clip16"><rect x="408" y="737" width="112" height="113"/></clipPath><clipPath id="clip17"><rect x="408" y="737" width="112" height="113"/></clipPath><clipPath id="clip18"><rect x="408" y="737" width="112" height="113"/></clipPath></defs><g clip-path="url(#clip2)" transform="translate(-215 -559)"><g clip-path="url(#clip3)" filter="url(#fx0)" transform="translate(387 731)"><g clip-path="url(#clip4)"><g clip-path="url(#clip5)"><g clip-path="url(#clip6)"><g clip-path="url(#clip7)"><path d="M116.109 79.3158 109.933 77.2753C109.252 77.0477 108.515 77.4156 108.287 78.097 108.06 78.7784 108.428 79.5153 109.109 79.7429 109.112 79.7438 109.114 79.7447 109.117 79.7455L115.292 81.786C115.974 82.0115 116.71 81.6412 116.936 80.9592 117.161 80.2771 116.791 79.5413 116.109 79.3158ZM103.758 75.2346 97.5823 73.1941C96.9009 72.9665 96.164 73.3344 95.9364 74.0158 95.7087 74.6972 96.0766 75.4341 96.758 75.6617 96.7606 75.6626 96.7635 75.6635 96.7661 75.6643L102.941 77.7048C103.623 77.9303 104.359 77.56 104.585 76.8779 104.81 76.1959 104.44 75.4601 103.758 75.2346Z" fill="#BFBFBF" fill-rule="nonzero" fill-opacity="1"/><path d="M127.546 76.076C119.419 63.3977 95.0551 25.352 95.0551 25.352 91.7728 19.9625 83.9573 18.4991 78.9384 22.3342L26.2914 60.8027C21.5292 64.3037 20.2736 70.8855 23.4124 75.8939 31.5097 88.7326 46.2888 112.188 54.2713 125.022 57.4495 130.377 65.0677 132.001 70.1625 128.38 70.1625 128.38 110.844 100.682 124.403 91.4491 129.372 88.1993 130.84 81.0081 127.546 76.076ZM81.6451 25.3776 84.5606 22.1864C85.0579 21.6679 85.8813 21.6508 86.3997 22.1481 86.9183 22.6454 86.9354 23.4688 86.4381 23.9873L83.5226 27.1785C83.0253 27.697 82.2019 27.7141 81.6835 27.2168 81.1649 26.7195 81.1478 25.8961 81.6451 25.3776ZM91.4064 71.1526C92.0889 71.3776 92.4596 72.1134 92.2346 72.7959 92.0095 73.4783 91.2737 73.8491 90.5912 73.624L84.4147 71.584C83.7322 71.3583 83.3619 70.622 83.5876 69.9396 83.8133 69.2571 84.5496 68.8868 85.232 69.1125ZM72.6405 34.7654 77.1433 30.0717C77.6409 29.5533 78.4645 29.5363 78.9829 30.0338 79.5012 30.5312 79.5183 31.3548 79.0208 31.8733L74.5179 36.5669C74.0204 37.0854 73.1968 37.1024 72.6784 36.6049 72.16 36.1074 72.1429 35.2838 72.6405 34.7654ZM71.2378 65.8584C71.4637 65.1765 72.1993 64.8069 72.8811 65.0324L79.0555 67.0724C79.7442 67.2771 80.1367 68.0012 79.932 68.6897 79.7273 69.3785 79.0032 69.7709 78.3147 69.5663 78.2895 69.5589 78.2648 69.5506 78.2403 69.5417L72.0638 67.5017C71.3822 67.2767 71.0121 66.5419 71.2371 65.8603 71.2374 65.8597 71.2376 65.859 71.2378 65.8584ZM63.6369 44.1527 68.1398 39.459C68.6373 38.9406 69.4609 38.9236 69.9793 39.4211 70.4976 39.9186 70.5148 40.7421 70.0172 41.2606L65.5144 45.9542C65.0168 46.4726 64.1932 46.4897 63.6748 45.9922 63.1565 45.4946 63.1393 44.671 63.6369 44.1527ZM67.5327 64.6356C67.3055 65.3162 66.5712 65.6854 65.8894 65.4616L59.7129 63.4216C59.0304 63.1959 58.6601 62.4596 58.8858 61.7772 59.1115 61.0947 59.8477 60.7244 60.5302 60.9501L66.7046 62.9923C67.3868 63.2171 67.7578 63.9525 67.5329 64.6348 67.5329 64.635 67.5327 64.6354 67.5327 64.6356ZM54.6333 53.5421 59.1362 48.8485C59.6476 48.344 60.4712 48.3498 60.9757 48.8613 61.4602 49.3525 61.4767 50.1365 61.0136 50.6479L56.5108 55.3416C56.0284 55.874 55.2059 55.9148 54.6734 55.4324 54.141 54.9502 54.1002 54.1275 54.5826 53.595 54.5991 53.577 54.616 53.5593 54.6333 53.5421ZM47.3641 59.0423 50.2518 58.084C50.7863 57.908 51.3634 57.9089 51.8973 58.0862L54.3536 58.91C55.0287 59.1557 55.3769 59.9021 55.1313 60.5772 54.8961 61.2237 54.198 61.5753 53.5385 61.3793L52.6626 61.091 53.4236 65.3316C53.553 65.9924 53.1686 66.6458 52.5282 66.8535 51.839 67.0603 51.1125 66.6692 50.9057 65.98 50.8918 65.9336 50.8806 65.8866 50.8719 65.8389L49.9874 60.9132 48.1836 61.5116C47.5018 61.7379 46.7655 61.3685 46.5392 60.6867 46.3129 60.0049 46.6823 59.2686 47.3641 59.0423ZM35.0175 63.1354 41.1919 61.0888C41.8737 60.8625 42.61 61.2319 42.8363 61.9138 43.0626 62.5956 42.6932 63.3318 42.0114 63.5582L35.837 65.6047C35.1551 65.8311 34.4189 65.4616 34.1926 64.7798 33.9663 64.098 34.3356 63.3617 35.0175 63.1354ZM55.4701 91.4447 54.3211 85.0427C54.1841 84.3375 54.6446 83.6548 55.3498 83.5178 56.0551 83.3808 56.738 83.8412 56.875 84.5465 56.8774 84.5586 56.8795 84.5708 56.8815 84.5831L58.0305 90.9851C58.1474 91.6941 57.6674 92.3633 56.9585 92.4802 56.2641 92.5946 55.6043 92.1357 55.4701 91.4447ZM57.7704 104.247 56.6213 97.8446C56.5045 97.1357 56.9845 96.4664 57.6934 96.3496 58.3878 96.2351 59.0475 96.694 59.1817 97.385L60.3307 103.787C60.4678 104.492 60.0073 105.175 59.302 105.312 58.5968 105.449 57.9139 104.988 57.7769 104.283 57.7745 104.271 57.7723 104.259 57.7704 104.247ZM60.0706 117.051 58.9216 110.649C58.7845 109.943 59.245 109.261 59.9503 109.124 60.6555 108.987 61.3384 109.447 61.4754 110.152 61.4778 110.165 61.48 110.177 61.4819 110.189L62.631 116.591C62.7478 117.3 62.2678 117.969 61.5589 118.086 60.8645 118.201 60.2048 117.742 60.0706 117.051ZM63.6 128.907C62.8933 129.034 62.2175 128.564 62.089 127.858L61.2196 123.45C61.1027 122.742 61.5827 122.072 62.2917 121.955 62.9861 121.841 63.6458 122.3 63.78 122.991L64.6493 127.398C64.777 128.104 64.309 128.779 63.6037 128.907 63.6024 128.907 63.6013 128.907 63.6 128.907ZM126.712 82.8184 122.335 81.3737C121.689 81.1493 120.979 81.448 120.687 82.0661 120.397 82.7232 120.694 83.4913 121.351 83.7816 121.389 83.7985 121.428 83.8135 121.468 83.8265L124.811 84.9322 100.147 90.3304C99.6148 90.4503 99.2124 90.8869 99.1363 91.427 98.7482 94.0105 97.6356 96.4311 95.9277 98.4078L76.0509 122.208C75.5948 122.763 74.775 122.843 74.22 122.387 73.665 121.931 73.5848 121.111 74.041 120.556 74.0453 120.551 74.0496 120.546 74.0542 120.541L93.9451 96.7242C94.3568 96.2481 94.728 95.7388 95.0551 95.2012 95.4241 94.5861 95.2249 93.7885 94.6098 93.4195 94.5259 93.369 94.4366 93.3285 94.3436 93.2981 82.3881 89.3748 32.2462 73.0252 25.1945 70.5802 23.2671 69.9125 23.4232 67.3348 24.8996 66.7754 25.8947 66.3982 28.8453 65.182 28.8453 65.182 29.5316 64.9695 30.2601 65.3539 30.4725 66.04 30.679 66.7076 30.3215 67.4189 29.6626 67.6513L27.3949 68.5683C32.0799 70.1206 42.0461 73.4311 52.8816 77.0278L52.0209 72.2409C51.8934 71.5339 52.3632 70.8573 53.0702 70.7298 53.7772 70.6023 54.4538 71.0721 54.5813 71.7791L55.6913 77.96C70.0723 82.7347 88.3812 88.6264 94.9831 90.7727 95.666 90.9955 96.4003 90.6224 96.6232 89.9395 96.6633 89.8164 96.685 89.688 96.6871 89.5586 96.6936 89.1187 96.6763 88.6791 96.6353 88.2411L90.2552 24.1358C91.3041 24.8103 92.1945 25.7037 92.8654 26.7547L125.355 77.4787C126.378 79.0624 126.855 80.9381 126.712 82.8184Z" fill="#BFBFBF" fill-rule="nonzero" fill-opacity="1"/></g></g></g></g></g><g clip-path="url(#clip8)"><g clip-path="url(#clip9)"><g clip-path="url(#clip10)"><path d="M503.109 796.566 496.933 794.525C496.252 794.298 495.515 794.666 495.287 795.347 495.06 796.028 495.428 796.765 496.109 796.993 496.112 796.994 496.114 796.995 496.117 796.996L502.292 799.036C502.974 799.261 503.71 798.891 503.936 798.209 504.161 797.527 503.791 796.791 503.109 796.566ZM490.758 792.485 484.582 790.444C483.901 790.216 483.164 790.584 482.936 791.266 482.709 791.947 483.077 792.684 483.758 792.912 483.761 792.913 483.763 792.913 483.766 792.914L489.941 794.955C490.623 795.18 491.359 794.81 491.585 794.128 491.81 793.446 491.44 792.71 490.758 792.485Z" fill="#BFBFBF" fill-rule="nonzero" fill-opacity="1"/><path d="M514.546 793.326C506.419 780.648 482.055 742.602 482.055 742.602 478.773 737.212 470.957 735.749 465.938 739.584L413.291 778.053C408.529 781.554 407.274 788.135 410.412 793.144 418.51 805.983 433.289 829.438 441.271 842.272 444.449 847.627 452.068 849.251 457.162 845.63 457.162 845.63 497.844 817.932 511.403 808.699 516.372 805.449 517.84 798.258 514.546 793.326ZM468.645 742.628 471.561 739.436C472.058 738.918 472.881 738.901 473.4 739.398 473.918 739.895 473.935 740.719 473.438 741.237L470.523 744.429C470.025 744.947 469.202 744.964 468.684 744.467 468.165 743.969 468.148 743.146 468.645 742.628ZM478.406 788.403C479.089 788.628 479.46 789.363 479.235 790.046 479.01 790.728 478.274 791.099 477.591 790.874L471.415 788.834C470.732 788.608 470.362 787.872 470.588 787.19 470.813 786.507 471.55 786.137 472.232 786.362ZM459.64 752.015 464.143 747.322C464.641 746.803 465.465 746.786 465.983 747.284 466.501 747.781 466.518 748.605 466.021 749.123L461.518 753.817C461.02 754.335 460.197 754.352 459.678 753.855 459.16 753.357 459.143 752.534 459.64 752.015ZM458.238 783.108C458.464 782.427 459.199 782.057 459.881 782.282L466.055 784.322C466.744 784.527 467.137 785.251 466.932 785.94 466.727 786.628 466.003 787.021 465.315 786.816 465.29 786.809 465.265 786.801 465.24 786.792L459.064 784.752C458.382 784.527 458.012 783.792 458.237 783.11 458.237 783.11 458.238 783.109 458.238 783.108ZM450.637 761.403 455.14 756.709C455.637 756.191 456.461 756.174 456.979 756.671 457.498 757.169 457.515 757.992 457.017 758.511L452.514 763.204C452.017 763.723 451.193 763.74 450.675 763.242 450.156 762.745 450.139 761.921 450.637 761.403ZM454.533 781.886C454.306 782.566 453.571 782.935 452.889 782.712L446.713 780.672C446.03 780.446 445.66 779.71 445.886 779.027 446.111 778.345 446.848 777.974 447.53 778.2L453.705 780.242C454.387 780.467 454.758 781.203 454.533 781.885 454.533 781.885 454.533 781.885 454.533 781.886ZM441.633 770.792 446.136 766.099C446.648 765.594 447.471 765.6 447.976 766.111 448.46 766.603 448.477 767.386 448.014 767.898L443.511 772.592C443.028 773.124 442.206 773.165 441.673 772.682 441.141 772.2 441.1 771.378 441.583 770.845 441.599 770.827 441.616 770.809 441.633 770.792ZM434.364 776.292 437.252 775.334C437.786 775.158 438.363 775.159 438.897 775.336L441.354 776.16C442.029 776.406 442.377 777.152 442.131 777.827 441.896 778.474 441.198 778.825 440.538 778.629L439.663 778.341 440.424 782.582C440.553 783.242 440.169 783.896 439.528 784.103 438.839 784.31 438.113 783.919 437.906 783.23 437.892 783.184 437.881 783.137 437.872 783.089L436.987 778.163 435.184 778.762C434.502 778.988 433.766 778.619 433.539 777.937 433.313 777.255 433.682 776.519 434.364 776.292ZM422.018 780.385 428.192 778.339C428.874 778.112 429.61 778.482 429.836 779.164 430.063 779.846 429.693 780.582 429.011 780.808L422.837 782.855C422.155 783.081 421.419 782.712 421.193 782.03 420.966 781.348 421.336 780.612 422.018 780.385ZM442.47 808.695 441.321 802.293C441.184 801.587 441.645 800.905 442.35 800.768 443.055 800.631 443.738 801.091 443.875 801.797 443.877 801.809 443.88 801.821 443.882 801.833L445.031 808.235C445.147 808.944 444.667 809.613 443.958 809.73 443.264 809.845 442.604 809.386 442.47 808.695ZM444.77 821.497 443.621 815.095C443.504 814.386 443.984 813.716 444.693 813.6 445.388 813.485 446.048 813.944 446.182 814.635L447.331 821.037C447.468 821.742 447.007 822.425 446.302 822.562 445.597 822.699 444.914 822.238 444.777 821.533 444.774 821.521 444.772 821.509 444.77 821.497ZM447.071 834.301 445.922 827.899C445.785 827.193 446.245 826.511 446.95 826.374 447.655 826.237 448.338 826.697 448.475 827.402 448.478 827.414 448.48 827.427 448.482 827.439L449.631 833.841C449.748 834.55 449.268 835.219 448.559 835.336 447.865 835.451 447.205 834.992 447.071 834.301ZM450.6 846.157C449.893 846.284 449.218 845.814 449.089 845.108L448.22 840.701C448.103 839.992 448.583 839.322 449.292 839.205 449.986 839.091 450.646 839.55 450.78 840.241L451.649 844.648C451.777 845.354 451.309 846.029 450.604 846.157 450.602 846.157 450.601 846.157 450.6 846.157ZM513.712 800.068 509.335 798.624C508.689 798.399 507.979 798.698 507.687 799.316 507.397 799.973 507.694 800.741 508.351 801.032 508.389 801.049 508.428 801.063 508.468 801.076L511.811 802.182 487.147 807.58C486.615 807.7 486.212 808.137 486.136 808.677 485.748 811.261 484.636 813.681 482.928 815.658L463.051 839.458C462.595 840.013 461.775 840.093 461.22 839.637 460.665 839.181 460.585 838.361 461.041 837.806 461.045 837.801 461.05 837.796 461.054 837.791L480.945 813.974C481.357 813.498 481.728 812.989 482.055 812.451 482.424 811.836 482.225 811.039 481.61 810.67 481.526 810.619 481.437 810.578 481.344 810.548 469.388 806.625 419.246 790.275 412.194 787.83 410.267 787.162 410.423 784.585 411.9 784.025 412.895 783.648 415.845 782.432 415.845 782.432 416.532 782.219 417.26 782.604 417.472 783.29 417.679 783.958 417.321 784.669 416.663 784.901L414.395 785.818C419.08 787.371 429.046 790.681 439.882 794.278L439.021 789.491C438.893 788.784 439.363 788.107 440.07 787.98 440.777 787.852 441.454 788.322 441.581 789.029L442.691 795.21C457.072 799.985 475.381 805.876 481.983 808.023 482.666 808.246 483.4 807.872 483.623 807.19 483.663 807.066 483.685 806.938 483.687 806.809 483.694 806.369 483.676 805.929 483.635 805.491L477.255 741.386C478.304 742.06 479.194 742.954 479.865 744.005L512.355 794.729C513.378 796.312 513.855 798.188 513.712 800.068Z" fill="#BFBFBF" fill-rule="nonzero" fill-opacity="1"/></g></g></g><g clip-path="url(#clip11)" filter="url(#fx1)" transform="matrix(3.99187 0 0 4 218 561)"><g clip-path="url(#clip12)"><g clip-path="url(#clip13)" transform="matrix(1 0 0 1 3.39746e-06 0)"><g clip-path="url(#clip14)" transform="matrix(1 0 0 1 3.39746e-06 0)"><g clip-path="url(#clip15)" transform="matrix(1 0 0 1 3.39746e-06 0)"><path d="M24.0762 14.9218 22.5291 14.4106C22.3584 14.3536 22.1738 14.4458 22.1168 14.6165 22.0598 14.7872 22.1519 14.9718 22.3226 15.0288 22.3233 15.029 22.324 15.0292 22.3246 15.0294L23.8716 15.5406C24.0425 15.5971 24.2268 15.5043 24.2833 15.3335 24.3398 15.1626 24.247 14.9783 24.0762 14.9218ZM20.9821 13.8994 19.4351 13.3882C19.2644 13.3312 19.0798 13.4234 19.0228 13.5941 18.9657 13.7648 19.0579 13.9494 19.2286 14.0064 19.2292 14.0066 19.23 14.0068 19.2306 14.0071L20.7776 14.5182C20.9484 14.5747 21.1327 14.4819 21.1892 14.3111 21.2457 14.1402 21.1529 13.9559 20.9821 13.8994Z" fill="#FFFFFF" fill-rule="nonzero" fill-opacity="1" transform="matrix(1 0 0 1.00696 47.5968 47.4375)"/><path d="M26.9414 14.1102C24.9053 10.9342 18.802 1.40336 18.802 1.40336 17.9797 0.0532234 16.0219-0.313367 14.7646 0.647371L1.57607 10.2841C0.383082 11.1611 0.0685355 12.8099 0.854833 14.0646 2.8833 17.2808 6.58559 23.1565 8.58527 26.3717 9.38144 27.7131 11.2899 28.1199 12.5662 27.2129 12.5662 27.2129 22.7574 20.2743 26.1539 17.9613 27.3987 17.1472 27.7663 15.3457 26.9414 14.1102ZM15.4427 1.40977 16.173 0.610332C16.2976 0.480456 16.5039 0.476164 16.6337 0.600746 16.7636 0.725327 16.7679 0.931606 16.6433 1.06148L15.913 1.86092C15.7884 1.9908 15.5821 1.99509 15.4523 1.87051 15.3224 1.74592 15.3181 1.53965 15.4427 1.40977ZM17.888 12.8768C18.0589 12.9332 18.1518 13.1175 18.0954 13.2885 18.0391 13.4594 17.8547 13.5523 17.6838 13.4959L16.1365 12.9849C15.9655 12.9284 15.8727 12.7439 15.9293 12.573 15.9858 12.402 16.1703 12.3092 16.3412 12.3658ZM13.1869 3.76148 14.3149 2.58568C14.4396 2.45581 14.6459 2.45155 14.7757 2.57618 14.9056 2.7008 14.9099 2.90712 14.7853 3.03699L13.6572 4.2128C13.5326 4.34267 13.3263 4.34693 13.1964 4.2223 13.0666 4.09768 13.0623 3.89136 13.1869 3.76148ZM12.8355 11.5506C12.8921 11.3798 13.0764 11.2872 13.2472 11.3437L14.7939 11.8547C14.9665 11.906 15.0648 12.0874 15.0135 12.2599 14.9622 12.4324 14.7809 12.5307 14.6084 12.4794 14.6021 12.4776 14.5959 12.4755 14.5897 12.4733L13.0425 11.9622C12.8717 11.9059 12.779 11.7218 12.8354 11.5511 12.8354 11.5509 12.8355 11.5507 12.8355 11.5506ZM10.9314 6.11309 12.0595 4.93729C12.1841 4.80741 12.3904 4.80316 12.5203 4.92778 12.6501 5.05241 12.6544 5.25872 12.5298 5.3886L11.4018 6.5644C11.2771 6.69426 11.0708 6.69855 10.9409 6.57391 10.8111 6.44927 10.8068 6.24295 10.9314 6.11309ZM11.9074 11.2443C11.8505 11.4147 11.6665 11.5072 11.4957 11.4512L9.94844 10.9401C9.77747 10.8836 9.68471 10.6992 9.74125 10.5282 9.79778 10.3572 9.98222 10.2645 10.1532 10.321L11.6999 10.8326C11.8708 10.8889 11.9638 11.0731 11.9074 11.244 11.9074 11.2441 11.9074 11.2442 11.9074 11.2443ZM8.67596 8.46524 9.80397 7.28944C9.93209 7.16306 10.1384 7.16453 10.2648 7.29264 10.3862 7.41571 10.3903 7.61209 10.2743 7.74021L9.14628 8.91601C9.02544 9.0494 8.8194 9.05961 8.68601 8.93877 8.55263 8.81798 8.54242 8.61188 8.66325 8.47849 8.66738 8.47399 8.67162 8.46953 8.67596 8.46524ZM6.85496 9.84308 7.57836 9.60303C7.71224 9.55893 7.85681 9.55914 7.99058 9.60357L8.6059 9.80995C8.77502 9.87148 8.86224 10.0585 8.80071 10.2276 8.74179 10.3895 8.56691 10.4776 8.4017 10.4285L8.18229 10.3563 8.37292 11.4186C8.40534 11.5841 8.30905 11.7478 8.14862 11.7999 7.97597 11.8517 7.79397 11.7537 7.74216 11.581 7.73869 11.5694 7.73586 11.5576 7.73369 11.5457L7.51211 10.3118 7.06025 10.4617C6.88945 10.5184 6.70501 10.4258 6.64831 10.255 6.59161 10.0842 6.68416 9.89978 6.85496 9.84308ZM3.76203 10.8684 5.30877 10.3558C5.47957 10.2991 5.66401 10.3916 5.7207 10.5624 5.7774 10.7332 5.68486 10.9176 5.51406 10.9743L3.96732 11.487C3.7965 11.5437 3.61207 11.4512 3.55538 11.2804 3.49869 11.1096 3.59121 10.9251 3.76203 10.8684ZM8.8856 17.9602 8.59776 16.3564C8.56343 16.1798 8.67879 16.0087 8.85546 15.9744 9.03213 15.9401 9.2032 16.0554 9.23752 16.2321 9.23812 16.2352 9.23866 16.2382 9.23915 16.2413L9.52699 17.8451C9.55627 18.0226 9.43603 18.1903 9.25843 18.2196 9.08448 18.2483 8.91922 18.1333 8.8856 17.9602ZM9.46182 21.1672 9.17398 19.5634C9.14471 19.3858 9.26495 19.2182 9.44254 19.1889 9.6165 19.1602 9.78176 19.2752 9.81538 19.4483L10.1032 21.052C10.1375 21.2287 10.0222 21.3997 9.84552 21.4341 9.66885 21.4684 9.49778 21.353 9.46345 21.1764 9.46285 21.1733 9.46231 21.1703 9.46182 21.1672ZM10.038 24.3747 9.75021 22.7709C9.71588 22.5943 9.83124 22.4232 10.0079 22.3889 10.1846 22.3546 10.3556 22.47 10.39 22.6466 10.3906 22.6497 10.3911 22.6527 10.3916 22.6558L10.6794 24.2596C10.7087 24.4372 10.5885 24.6048 10.4109 24.6341 10.2369 24.6628 10.0717 24.5478 10.038 24.3747ZM10.9222 27.3449C10.7452 27.3766 10.5759 27.259 10.5437 27.082L10.3259 25.9779C10.2966 25.8003 10.4169 25.6327 10.5944 25.6034 10.7684 25.5747 10.9337 25.6897 10.9673 25.8628L11.1851 26.9669C11.2171 27.1436 11.0998 27.3127 10.9231 27.3447 10.9228 27.3448 10.9225 27.3448 10.9222 27.3449ZM26.7323 15.7992 25.6358 15.4373C25.4741 15.3811 25.2961 15.4559 25.2231 15.6108 25.1504 15.7754 25.2248 15.9678 25.3894 16.0405 25.399 16.0447 25.4087 16.0485 25.4186 16.0518L26.256 16.3287 20.0775 17.681C19.9442 17.7111 19.8434 17.8205 19.8244 17.9557 19.7272 18.6029 19.4484 19.2093 19.0206 19.7045L14.0413 25.6667C13.927 25.8058 13.7217 25.8259 13.5826 25.7116 13.4436 25.5973 13.4235 25.392 13.5378 25.2529 13.5388 25.2516 13.5399 25.2503 13.5411 25.249L18.5239 19.2827C18.6271 19.1635 18.72 19.0359 18.802 18.9012 18.8944 18.7471 18.8445 18.5473 18.6904 18.4549 18.6694 18.4422 18.647 18.4321 18.6237 18.4245 15.6288 17.4416 3.06779 13.3459 1.30126 12.7334 0.818446 12.5662 0.857549 11.9204 1.2274 11.7803 1.47668 11.6858 2.21583 11.3811 2.21583 11.3811 2.38776 11.3279 2.57026 11.4242 2.62345 11.5961 2.67519 11.7633 2.58562 11.9415 2.42058 11.9997L1.8525 12.2294C3.02613 12.6183 5.52275 13.4476 8.23714 14.3486L8.02153 13.1494C7.9896 12.9723 8.10729 12.8028 8.28439 12.7709 8.46149 12.739 8.63099 12.8567 8.66293 13.0338L8.94099 14.5821C12.5436 15.7782 17.1301 17.2542 18.784 17.7918 18.955 17.8477 19.139 17.7542 19.1948 17.5831 19.2049 17.5523 19.2103 17.5201 19.2108 17.4877 19.2125 17.3775 19.2081 17.2674 19.1979 17.1577L17.5996 1.09868C17.8623 1.26764 18.0854 1.49145 18.2535 1.75474L26.3923 14.4616C26.6488 14.8583 26.7682 15.3282 26.7323 15.7992Z" fill="#FFFFFF" fill-rule="nonzero" fill-opacity="1" transform="matrix(1 0 0 1.00696 47.5968 47.4375)"/></g></g></g></g></g><g clip-path="url(#clip16)"><g clip-path="url(#clip17)"><g clip-path="url(#clip18)"><path d="M96.1089 59.5658 89.9332 57.5253C89.2518 57.2977 88.5149 57.6656 88.2873 58.347 88.0597 59.0284 88.4276 59.7653 89.109 59.9929 89.1116 59.9938 89.1144 59.9946 89.117 59.9955L95.2924 62.036C95.9745 62.2615 96.7103 61.8912 96.9358 61.2091 97.1612 60.5271 96.7909 59.7913 96.1089 59.5658ZM83.7578 55.4846 77.5823 53.4441C76.9009 53.2165 76.164 53.5844 75.9364 54.2658 75.7087 54.9472 76.0766 55.6841 76.758 55.9117 76.7606 55.9126 76.7635 55.9134 76.7661 55.9143L82.9413 57.9548C83.6233 58.1803 84.3592 57.81 84.5846 57.1279 84.8101 56.4459 84.4398 55.7101 83.7578 55.4846Z" fill="#FFFFFF" fill-rule="nonzero" fill-opacity="1" transform="matrix(1 0 0 1.00901 408 737)"/><path d="M107.546 56.326C99.4187 43.6477 75.0551 5.60203 75.0551 5.60203 71.7728 0.212461 63.9573-1.25092 58.9384 2.58422L6.29145 41.0527C1.52921 44.5537 0.273585 51.1355 3.41238 56.1439 11.5097 68.9826 26.2888 92.4379 34.2713 105.272 37.4495 110.627 45.0677 112.251 50.1625 108.63 50.1625 108.63 90.8444 80.9325 104.403 71.6991 109.372 68.4493 110.84 61.2581 107.546 56.326ZM61.6451 5.62761 64.5606 2.43636C65.0579 1.91792 65.8813 1.90078 66.3997 2.3981 66.9183 2.89541 66.9354 3.71885 66.4381 4.2373L63.5226 7.42855C63.0253 7.94699 62.2019 7.96412 61.6835 7.46681 61.1649 6.9695 61.1478 6.14606 61.6451 5.62761ZM71.4064 51.4026C72.0889 51.6276 72.4596 52.3634 72.2346 53.0459 72.0095 53.7284 71.2737 54.0991 70.5912 53.874L64.4147 51.834C63.7322 51.6083 63.3619 50.8721 63.5876 50.1896 63.8133 49.5071 64.5496 49.1368 65.232 49.3625ZM52.6405 15.0154 57.1433 10.3217C57.6409 9.80325 58.4645 9.78628 58.9829 10.2838 59.5012 10.7812 59.5183 11.6048 59.0208 12.1233L54.5179 16.8169C54.0204 17.3354 53.1968 17.3524 52.6784 16.8549 52.16 16.3574 52.1429 15.5338 52.6405 15.0154ZM51.2378 46.1084C51.4637 45.4265 52.1993 45.0569 52.8811 45.2824L59.0555 47.3224C59.7442 47.5271 60.1367 48.2512 59.932 48.9397 59.7273 49.6285 59.0032 50.0209 58.3147 49.8162 58.2895 49.8089 58.2648 49.8006 58.2403 49.7918L52.0638 47.7517C51.3822 47.5267 51.0121 46.7919 51.2371 46.1103 51.2374 46.1097 51.2376 46.109 51.2378 46.1084ZM43.6369 24.4027 48.1398 19.709C48.6373 19.1906 49.4609 19.1736 49.9793 19.6711 50.4976 20.1686 50.5148 20.9921 50.0172 21.5106L45.5143 26.2042C45.0168 26.7226 44.1932 26.7397 43.6748 26.2422 43.1565 25.7446 43.1393 24.921 43.6369 24.4027ZM47.5327 44.8856C47.3055 45.5662 46.5712 45.9354 45.8894 45.7116L39.7129 43.6716C39.0304 43.4459 38.6601 42.7096 38.8858 42.0272 39.1115 41.3447 39.8477 40.9744 40.5302 41.2001L46.7046 43.2423C47.3868 43.4671 47.7578 44.2025 47.5329 44.8848 47.5329 44.885 47.5327 44.8854 47.5327 44.8856ZM34.6333 33.7921 39.1362 29.0985C39.6476 28.594 40.4712 28.5999 40.9757 29.1113 41.4602 29.6025 41.4767 30.3865 41.0136 30.8979L36.5108 35.5916C36.0284 36.124 35.2059 36.1648 34.6734 35.6824 34.141 35.2002 34.1002 34.3775 34.5826 33.845 34.5991 33.827 34.616 33.8093 34.6333 33.7921ZM27.3641 39.2923 30.2518 38.334C30.7862 38.158 31.3634 38.1589 31.8973 38.3362L34.3536 39.16C35.0287 39.4057 35.3769 40.1521 35.1313 40.8272 34.8961 41.4737 34.198 41.8253 33.5385 41.6293L32.6626 41.341 33.4236 45.5816C33.553 46.2424 33.1686 46.8958 32.5282 47.1035 31.839 47.3103 31.1125 46.9192 30.9057 46.23 30.8918 46.1836 30.8806 46.1366 30.8719 46.0889L29.9874 41.1632 28.1836 41.7616C27.5018 41.9879 26.7655 41.6185 26.5392 40.9367 26.3129 40.2549 26.6823 39.5186 27.3641 39.2923ZM15.0175 43.3854 21.1919 41.3388C21.8737 41.1125 22.61 41.4819 22.8363 42.1638 23.0626 42.8456 22.6932 43.5818 22.0114 43.8082L15.837 45.8547C15.1551 46.0811 14.4189 45.7116 14.1926 45.0298 13.9663 44.348 14.3356 43.6117 15.0175 43.3854ZM35.4701 71.6947 34.3211 65.2927C34.1841 64.5875 34.6446 63.9048 35.3498 63.7678 36.0551 63.6308 36.738 64.0912 36.875 64.7965 36.8774 64.8086 36.8795 64.8208 36.8815 64.8331L38.0305 71.2351C38.1474 71.9441 37.6674 72.6133 36.9585 72.7302 36.2641 72.8446 35.6043 72.3857 35.4701 71.6947ZM37.7704 84.4966 36.6213 78.0946C36.5045 77.3857 36.9845 76.7164 37.6934 76.5996 38.3878 76.4851 39.0475 76.944 39.1817 77.635L40.3307 84.037C40.4678 84.7422 40.0073 85.4249 39.302 85.5619 38.5968 85.699 37.9139 85.2385 37.7769 84.5332 37.7745 84.5211 37.7723 84.509 37.7704 84.4966ZM40.0706 97.3006 38.9216 90.8986C38.7845 90.1934 39.245 89.5107 39.9503 89.3737 40.6555 89.2367 41.3384 89.6971 41.4754 90.4024 41.4778 90.4145 41.48 90.4267 41.4819 90.439L42.631 96.841C42.7478 97.5499 42.2678 98.2192 41.5589 98.3361 40.8645 98.4505 40.2048 97.9916 40.0706 97.3006ZM43.6 109.157C42.8933 109.284 42.2175 108.814 42.089 108.108L41.2196 103.7C41.1027 102.992 41.5827 102.322 42.2917 102.205 42.9861 102.091 43.6458 102.55 43.78 103.241L44.6493 107.648C44.777 108.354 44.309 109.029 43.6037 109.157 43.6024 109.157 43.6013 109.157 43.6 109.157ZM106.712 63.0684 102.335 61.6237C101.689 61.3993 100.979 61.698 100.687 62.3161 100.397 62.9732 100.694 63.7413 101.351 64.0316 101.389 64.0485 101.428 64.0635 101.468 64.0765L104.811 65.1822 80.1468 70.5804C79.6148 70.7003 79.2124 71.1369 79.1363 71.677 78.7482 74.2605 77.6356 76.6811 75.9277 78.6578L56.0509 102.458C55.5948 103.013 54.775 103.093 54.22 102.637 53.665 102.181 53.5848 101.361 54.041 100.806 54.0453 100.801 54.0496 100.796 54.0542 100.791L73.9451 76.9742C74.3568 76.4981 74.728 75.9888 75.0551 75.4512 75.4241 74.8361 75.2249 74.0385 74.6098 73.6695 74.5259 73.619 74.4366 73.5785 74.3436 73.5481 62.3881 69.6248 12.2462 53.2752 5.19445 50.8302 3.26713 50.1625 3.42322 47.5848 4.89961 47.0254 5.89471 46.6482 8.84531 45.432 8.84531 45.432 9.53161 45.2195 10.2601 45.6039 10.4725 46.2901 10.679 46.9576 10.3215 47.6689 9.66264 47.9013L7.39494 48.8183C12.0799 50.3706 22.0461 53.6811 32.8816 57.2778L32.0209 52.4909C31.8934 51.7839 32.3632 51.1073 33.0702 50.9798 33.7772 50.8523 34.4538 51.3221 34.5813 52.0291L35.6913 58.21C50.0723 62.9847 68.3812 68.8764 74.9831 71.0227 75.666 71.2455 76.4003 70.8724 76.6232 70.1895 76.6633 70.0664 76.685 69.938 76.6871 69.8086 76.6936 69.3687 76.6763 68.9291 76.6353 68.4911L70.2552 4.3858C71.3041 5.06026 72.1945 5.95368 72.8654 7.00471L105.355 57.7287C106.378 59.3124 106.855 61.1881 106.712 63.0684Z" fill="#FFFFFF" fill-rule="nonzero" fill-opacity="1" transform="matrix(1 0 0 1.00901 408 737)"/></g></g></g></g></svg>