<?xml version="1.0" encoding="UTF-8"?><svg id="Layer_2" xmlns="http://www.w3.org/2000/svg" viewBox="0 0 219.31 220.19"><defs><style>.cls-1{opacity:.1;}.cls-2{fill:#fff;}</style></defs><g id="_ÎÓÈ_1"><g><g><polygon class="cls-2" points="90.61 15.64 43.86 15.64 42.04 13.82 22.15 13.82 19.89 16.08 19.89 18.02 29.02 27.15 33.08 27.15 40.06 20.17 50.04 20.17 52.54 17.67 89.03 17.67 90.18 18.82 97.05 18.82 98.8 17.07 98.8 15.64 90.61 15.64"/><path class="cls-2" d="M17.33,15.81h-1.17c-.17,0-.31-.14-.31-.31s.14-.31,.31-.31h1.04l3.8-3.8V6.21c0-.17,.14-.31,.31-.31s.31,.14,.31,.31v5.31c0,.08-.03,.16-.09,.22l-3.98,3.98c-.06,.06-.14,.09-.22,.09Z"/><path class="cls-2" d="M17.87,13.35h-1.28s-.08-.02-.11-.05L6.77,3.6c-.06-.06-.06-.16,0-.22s.16-.06,.22,0l9.66,9.66h1.15l1.74-1.74c.06-.06,.16-.06,.22,0,.06,.06,.06,.16,0,.22l-1.79,1.79s-.07,.05-.11,.05Z"/><path class="cls-2" d="M5.66,2.44c-.08,0-.16-.03-.22-.09L3.62,.53c-.12-.12-.12-.32,0-.44,.12-.12,.32-.12,.44,0l1.82,1.82c.12,.12,.12,.32,0,.44-.06,.06-.14,.09-.22,.09Z"/><path class="cls-2" d="M72.15,65.71h-3.96c-.08,0-.16-.03-.22-.09L33.97,31.63c-.06-.06-.09-.14-.09-.22v-2.93c0-.08,.03-.16,.09-.22l5.78-5.78c.06-.06,.14-.09,.22-.09h1.58c.17,0,.31,.14,.31,.31s-.14,.31-.31,.31h-1.46l-5.6,5.6v2.68l33.81,33.81h3.71l3.12-3.12c.06-.06,.14-.09,.22-.09h2.18c.17,0,.31,.14,.31,.31s-.14,.31-.31,.31h-2.05l-3.12,3.12c-.06,.06-.14,.09-.22,.09Z"/><path class="cls-2" d="M101.6,96.36s-.08-.02-.11-.05c-.06-.06-.06-.16,0-.22l2.02-2.02v-21.32l-10.26-10.26h-11.45c-.09,0-.15-.07-.15-.15s.07-.15,.15-.15h11.52s.08,.02,.11,.05l10.35,10.35s.05,.07,.05,.11v21.45s-.02,.08-.05,.11l-2.06,2.06s-.07,.05-.11,.05Z"/><path class="cls-2" d="M102.89,35.25s-.08-.01-.11-.05c-.06-.06-.06-.16,0-.22l.91-.91v-7.52l-6.13-6.13h-6.91c-.09,0-.15-.07-.15-.15s.07-.15,.15-.15h6.97s.08,.02,.11,.05l6.22,6.22s.05,.07,.05,.11v7.65s-.02,.08-.05,.11l-.95,.95s-.07,.05-.11,.05Z"/><path class="cls-2" d="M89.22,20.59h-2.02c-.17,0-.31-.14-.31-.31s.14-.31,.31-.31h2.02c.17,0,.31,.14,.31,.31s-.14,.31-.31,.31Z"/><path class="cls-2" d="M100.95,27.76h-2.15s-.08-.03-.08-.08,.03-.08,.08-.08h2.07v-1.04l-1.18-1.18h-26.67s-.08-.03-.08-.08,.03-.08,.08-.08h26.7s.04,0,.05,.02l1.23,1.23s.02,.03,.02,.05v1.15s-.03,.08-.08,.08Z"/><path class="cls-2" d="M97.25,27.84h-1.64c-.09,0-.15-.07-.15-.15s.07-.15,.15-.15h1.64c.09,0,.15,.07,.15,.15s-.07,.15-.15,.15Z"/><path class="cls-2" d="M100.95,32.68h-2.15s-.08-.03-.08-.08,.03-.08,.08-.08h2.07v-1.04l-1.18-1.18h-26.67s-.08-.03-.08-.08,.03-.08,.08-.08h26.7s.04,0,.05,.02l1.23,1.23s.02,.03,.02,.05v1.15s-.03,.08-.08,.08Z"/><path class="cls-2" d="M97.25,32.75h-1.64c-.09,0-.15-.07-.15-.15s.07-.15,.15-.15h1.64c.09,0,.15,.07,.15,.15s-.07,.15-.15,.15Z"/><path class="cls-2" d="M100.95,37.59h-2.15s-.08-.03-.08-.08,.03-.08,.08-.08h2.07v-1.04l-1.18-1.18h-26.67s-.08-.03-.08-.08,.03-.08,.08-.08h26.7s.04,0,.05,.02l1.23,1.23s.02,.03,.02,.05v1.15s-.03,.08-.08,.08Z"/><path class="cls-2" d="M97.25,37.67h-1.64c-.09,0-.15-.07-.15-.15s.07-.15,.15-.15h1.64c.09,0,.15,.07,.15,.15s-.07,.15-.15,.15Z"/><path class="cls-2" d="M100.95,42.5h-2.15s-.08-.03-.08-.08,.03-.08,.08-.08h2.07v-1.04l-1.18-1.18h-26.67s-.08-.03-.08-.08,.03-.08,.08-.08h26.7s.04,0,.05,.02l1.23,1.23s.02,.03,.02,.05v1.15s-.03,.08-.08,.08Z"/><path class="cls-2" d="M97.25,42.58h-1.64c-.09,0-.15-.07-.15-.15s.07-.15,.15-.15h1.64c.09,0,.15,.07,.15,.15s-.07,.15-.15,.15Z"/><path class="cls-2" d="M100.95,47.42h-2.15s-.08-.03-.08-.08,.03-.08,.08-.08h2.07v-1.04l-1.18-1.18h-26.67s-.08-.03-.08-.08,.03-.08,.08-.08h26.7s.04,0,.05,.02l1.23,1.23s.02,.03,.02,.05v1.15s-.03,.08-.08,.08Z"/><path class="cls-2" d="M97.25,47.49h-1.64c-.09,0-.15-.07-.15-.15s.07-.15,.15-.15h1.64c.09,0,.15,.07,.15,.15s-.07,.15-.15,.15Z"/><rect class="cls-2" x="70.94" y="25.05" width=".52" height=".52"/><rect class="cls-2" x="70.94" y="29.96" width=".52" height=".52"/><rect class="cls-2" x="70.94" y="34.88" width=".52" height=".51"/><rect class="cls-2" x="70.94" y="39.79" width=".52" height=".52"/><rect class="cls-2" x="70.94" y="44.7" width=".52" height=".52"/><path class="cls-2" d="M69.29,61.2h-1.98s-.08-.02-.11-.05l-27.34-27.34c-.06-.06-.06-.16,0-.22s.16-.06,.22,0l27.29,27.29h1.85l1.66-1.66v-1.75c0-.08,.07-.15,.15-.15s.15,.07,.15,.15v1.81s-.02,.08-.05,.11l-1.75,1.75s-.07,.05-.11,.05Z"/><path class="cls-2" d="M84.22,77.53h-5.18s-.04,0-.05-.02l-3.8-3.8s-.03-.08,0-.11,.08-.03,.11,0l3.78,3.78h5.11l20.56-20.56v-11.6s.03-.08,.08-.08,.08,.03,.08,.08v11.63s0,.04-.02,.05l-20.6,20.6s-.03,.02-.05,.02Z"/><polygon class="cls-2" points="104.82 55.84 96.82 63.84 96.82 64.69 104.82 56.85 104.82 55.84"/><polygon class="cls-2" points="49.77 23.99 58.33 32.55 60.08 32.55 59.13 33.49 57.33 33.49 49.82 25.98 49.77 23.99"/><polygon class="cls-2" points="49.77 27.37 58.33 35.93 60.08 35.93 59.13 36.87 57.33 36.87 49.82 29.36 49.77 27.37"/><polygon class="cls-2" points="49.77 30.75 58.33 39.31 60.08 39.31 59.13 40.25 57.33 40.25 49.82 32.74 49.77 30.75"/><polygon class="cls-2" points="49.77 34.13 58.33 42.69 60.08 42.69 59.13 43.64 57.33 43.64 49.82 36.12 49.77 34.13"/><polygon class="cls-2" points="92.58 59.22 96.41 55.39 96.41 54.61 96.83 55.04 96.83 55.84 93.47 59.2 92.58 59.22"/><polygon class="cls-2" points="94.09 59.22 97.92 55.39 97.92 54.61 98.34 55.04 98.34 55.84 94.98 59.2 94.09 59.22"/><polygon class="cls-2" points="95.6 59.22 99.43 55.39 99.43 54.61 99.86 55.04 99.86 55.84 96.5 59.2 95.6 59.22"/><polygon class="cls-2" points="97.12 59.22 100.95 55.39 100.95 54.61 101.37 55.04 101.37 55.84 98.01 59.2 97.12 59.22"/><rect class="cls-2" x="47.07" y="24.77" width="1.19" height=".28"/><rect class="cls-2" x="47.07" y="28.22" width="1.19" height=".28"/><rect class="cls-2" x="47.07" y="31.67" width="1.19" height=".28"/><rect class="cls-2" x="47.07" y="35.11" width="1.19" height=".28"/><path class="cls-2" d="M108.12,25.26h-1.3s-.04,0-.05-.02l-3.68-3.68s-.02-.03-.02-.05v-7.53l-2.14-2.14h-21.85l-2.67,2.67s-.03,.02-.05,.02h-21.42s-.04,0-.05-.02l-1.21-1.21s-.03-.08,0-.11,.08-.03,.11,0l1.19,1.19h21.36l2.67-2.67s.03-.02,.05-.02h21.91s.04,0,.05,.02l2.19,2.19s.02,.03,.02,.05v7.53l3.63,3.63h1.27s.08,.03,.08,.08-.03,.08-.08,.08Z"/><polygon class="cls-2" points="101.16 11.97 85.67 11.97 85.5 11.8 100.95 11.76 101.16 11.97"/><path class="cls-2" d="M101.92,19.39h-.5s-.08-.03-.08-.08,.03-.08,.08-.08h.47l.55-.55v-4.24l-1.93-1.92s-.03-.08,0-.11,.08-.03,.11,0l1.95,1.95s.02,.03,.02,.05v4.3s0,.04-.02,.05l-.59,.59s-.03,.02-.05,.02Z"/><path class="cls-2" d="M53.18,13c-.08,0-.16-.03-.22-.09l-.56-.56c-.12-.12-.12-.32,0-.44s.32-.12,.44,0l.56,.56c.12,.12,.12,.32,0,.44-.06,.06-.14,.09-.22,.09Z"/><path class="cls-2" d="M57.1,14.53s-.08-.03-.08-.08v-.23s0-.04,.02-.05l.26-.26s.03-.02,.05-.02h19.48s.08,.03,.08,.08-.03,.08-.08,.08h-19.45l-.21,.21v.2s-.03,.08-.08,.08Z"/><path class="cls-2" d="M91.51,14.53h-13.7s-.08-.03-.08-.08v-.51s0-.04,.02-.05l1.66-1.66s.03-.02,.05-.02h2.43s.08,.03,.08,.08-.03,.08-.08,.08h-2.4l-1.61,1.61v.4h13.62s.08,.03,.08,.08-.03,.08-.08,.08Z"/><path class="cls-2" d="M44.57,14.97s-.04,0-.05-.02c-.03-.03-.03-.08,0-.11l.24-.24-1.92-1.92H26.83s-.04,0-.05-.02l-2.67-2.67s-.03-.08,0-.11c.03-.03,.08-.03,.11,0l2.65,2.65h16s.04,0,.05,.02l1.99,1.99s.02,.03,.02,.05,0,.04-.02,.05l-.29,.29s-.03,.02-.05,.02Z"/><path class="cls-2" d="M46.51,14.67h-1.65s-.08-.03-.08-.08,.03-.08,.08-.08h1.65s.08,.03,.08,.08-.03,.08-.08,.08Z"/><path class="cls-2" d="M44.15,22.77h-1.14s-.08-.03-.08-.08,.03-.08,.08-.08h1.14s.08,.03,.08,.08-.03,.08-.08,.08Z"/><path class="cls-2" d="M63.39,22.18h-1.11s-.08-.03-.08-.08,.03-.08,.08-.08h1.11s.08,.03,.08,.08-.03,.08-.08,.08Z"/><path class="cls-2" d="M65.99,28.08h-.98s-.08-.03-.08-.08v-.98s.03-.08,.08-.08h.98s.08,.03,.08,.08v.98s-.03,.08-.08,.08Zm-.9-.15h.82v-.82h-.82v.82Z"/><path class="cls-2" d="M65.99,32.37h-.98s-.08-.03-.08-.08v-.98s.03-.08,.08-.08h.98s.08,.03,.08,.08v.98s-.03,.08-.08,.08Zm-.9-.15h.82v-.82h-.82v.82Z"/><path class="cls-2" d="M65.99,36.66h-.98s-.08-.03-.08-.08v-.98s.03-.08,.08-.08h.98s.08,.03,.08,.08v.98s-.03,.08-.08,.08Zm-.9-.15h.82v-.82h-.82v.82Z"/><path class="cls-2" d="M65.99,40.96h-.98s-.08-.03-.08-.08v-.98s.03-.08,.08-.08h.98s.08,.03,.08,.08v.98s-.03,.08-.08,.08Zm-.9-.15h.82v-.82h-.82v.82Z"/><path class="cls-2" d="M65.99,45.25h-.98s-.08-.03-.08-.08v-.98s.03-.08,.08-.08h.98s.08,.03,.08,.08v.98s-.03,.08-.08,.08Zm-.9-.15h.82v-.82h-.82v.82Z"/><rect class="cls-2" x="66.97" y="52.17" width="2.72" height=".32"/><rect class="cls-2" x="74.07" y="52.17" width="2.72" height=".32"/><rect class="cls-2" x="81.18" y="52.17" width="2.72" height=".32"/><rect class="cls-2" x="88.28" y="52.17" width="2.72" height=".32"/><rect class="cls-2" x="100.48" y="73.37" width="1.82" height=".44"/><rect class="cls-2" x="100.48" y="76.42" width="1.82" height=".44"/><rect class="cls-2" x="100.48" y="79.47" width="1.82" height=".44"/><rect class="cls-2" x="100.48" y="82.52" width="1.82" height=".44"/><rect class="cls-2" x="100.48" y="85.57" width="1.82" height=".44"/><rect class="cls-2" x="100.48" y="88.62" width="1.82" height=".44"/><rect class="cls-2" x="100.48" y="91.67" width="1.82" height=".44"/><polygon class="cls-2" points="15.64 91.19 15.64 44.44 13.82 42.62 13.82 22.73 16.08 20.47 18.02 20.47 27.15 29.6 27.15 33.66 20.17 40.64 20.17 50.62 17.67 53.12 17.67 89.61 18.82 90.76 18.82 97.64 17.07 99.38 15.64 99.38 15.64 91.19"/><path class="cls-2" d="M11.52,22.2H6.21c-.17,0-.31-.14-.31-.31s.14-.31,.31-.31h5.18l3.8-3.8v-1.04c0-.17,.14-.31,.31-.31s.31,.14,.31,.31v1.17c0,.08-.03,.16-.09,.22l-3.98,3.98c-.06,.06-.14,.09-.22,.09Z"/><path class="cls-2" d="M11.41,20.39s-.08-.02-.11-.05c-.06-.06-.06-.16,0-.22l1.74-1.74v-1.15L3.38,7.57c-.06-.06-.06-.16,0-.22s.16-.06,.22,0l9.71,9.71s.05,.07,.05,.11v1.28s-.02,.08-.05,.11l-1.79,1.79s-.07,.05-.11,.05Z"/><path class="cls-2" d="M2.13,6.55c-.08,0-.16-.03-.22-.09L.09,4.64c-.12-.12-.12-.32,0-.44,.12-.12,.32-.12,.44,0l1.82,1.82c.12,.12,.12,.32,0,.44-.06,.06-.14,.09-.22,.09Z"/><path class="cls-2" d="M62.2,78.42c-.17,0-.31-.14-.31-.31v-2.18c0-.08,.03-.16,.09-.22l3.12-3.12v-3.71L31.28,35.08h-2.68l-5.6,5.6v1.46c0,.17-.14,.31-.31,.31s-.31-.14-.31-.31v-1.58c0-.08,.03-.16,.09-.22l5.78-5.78c.06-.06,.14-.09,.22-.09h2.93c.08,0,.16,.03,.22,.09l33.99,33.99c.06,.06,.09,.14,.09,.22v3.96c0,.08-.03,.16-.09,.22l-3.12,3.12v2.05c0,.17-.14,.31-.31,.31Z"/><path class="cls-2" d="M94.14,104.39h-21.45s-.08-.02-.11-.05l-10.35-10.35s-.05-.07-.05-.11v-11.52c0-.08,.07-.15,.15-.15s.15,.07,.15,.15v11.45l10.26,10.26h21.32l2.02-2.02c.06-.06,.16-.06,.22,0s.06,.16,0,.22l-2.06,2.06s-.07,.05-.11,.05Z"/><path class="cls-2" d="M34.14,104.58h-7.65s-.08-.02-.11-.05l-6.22-6.22s-.05-.07-.05-.11v-6.97c0-.08,.07-.15,.15-.15s.15,.07,.15,.15v6.91l6.13,6.13h7.52l.91-.91c.06-.06,.16-.06,.22,0s.06,.16,0,.22l-.95,.95s-.07,.05-.11,.05Z"/><path class="cls-2" d="M20.28,90.11c-.17,0-.31-.14-.31-.31v-2.02c0-.17,.14-.31,.31-.31s.31,.14,.31,.31v2.02c0,.17-.14,.31-.31,.31Z"/><path class="cls-2" d="M27.69,101.61h-1.15s-.04,0-.05-.02l-1.23-1.23s-.02-.03-.02-.05v-26.7s.03-.08,.08-.08,.08,.03,.08,.08v26.67l1.18,1.18h1.04v-2.07s.03-.08,.08-.08,.08,.03,.08,.08v2.15s-.03,.08-.08,.08Z"/><path class="cls-2" d="M27.69,97.98c-.09,0-.15-.07-.15-.15v-1.64c0-.08,.07-.15,.15-.15s.15,.07,.15,.15v1.64c0,.08-.07,.15-.15,.15Z"/><path class="cls-2" d="M32.6,101.61h-1.15s-.04,0-.05-.02l-1.23-1.23s-.02-.03-.02-.05v-26.7s.03-.08,.08-.08,.08,.03,.08,.08v26.67l1.18,1.18h1.04v-2.07s.03-.08,.08-.08,.08,.03,.08,.08v2.15s-.03,.08-.08,.08Z"/><path class="cls-2" d="M32.6,97.98c-.09,0-.15-.07-.15-.15v-1.64c0-.08,.07-.15,.15-.15s.15,.07,.15,.15v1.64c0,.08-.07,.15-.15,.15Z"/><path class="cls-2" d="M37.51,101.61h-1.15s-.04,0-.05-.02l-1.23-1.23s-.02-.03-.02-.05v-26.7s.03-.08,.08-.08,.08,.03,.08,.08v26.67l1.18,1.18h1.04v-2.07s.03-.08,.08-.08,.08,.03,.08,.08v2.15s-.03,.08-.08,.08Z"/><path class="cls-2" d="M37.51,97.98c-.09,0-.15-.07-.15-.15v-1.64c0-.08,.07-.15,.15-.15s.15,.07,.15,.15v1.64c0,.08-.07,.15-.15,.15Z"/><path class="cls-2" d="M42.42,101.61h-1.15s-.04,0-.05-.02l-1.23-1.23s-.02-.03-.02-.05v-26.7s.03-.08,.08-.08,.08,.03,.08,.08v26.67l1.18,1.18h1.04v-2.07s.03-.08,.08-.08,.08,.03,.08,.08v2.15s-.03,.08-.08,.08Z"/><path class="cls-2" d="M42.42,97.98c-.09,0-.15-.07-.15-.15v-1.64c0-.08,.07-.15,.15-.15s.15,.07,.15,.15v1.64c0,.08-.07,.15-.15,.15Z"/><path class="cls-2" d="M47.34,101.61h-1.15s-.04,0-.05-.02l-1.23-1.23s-.02-.03-.02-.05v-26.7s.03-.08,.08-.08,.08,.03,.08,.08v26.67l1.18,1.18h1.04v-2.07s.03-.08,.08-.08,.08,.03,.08,.08v2.15s-.03,.08-.08,.08Z"/><path class="cls-2" d="M47.34,97.98c-.09,0-.15-.07-.15-.15v-1.64c0-.08,.07-.15,.15-.15s.15,.07,.15,.15v1.64c0,.08-.07,.15-.15,.15Z"/><rect class="cls-2" x="25.05" y="71.52" width=".51" height=".52" transform="translate(97.09 46.47) rotate(90)"/><rect class="cls-2" x="29.96" y="71.52" width=".51" height=".51" transform="translate(102 41.56) rotate(90)"/><rect class="cls-2" x="34.88" y="71.52" width=".51" height=".52" transform="translate(106.91 36.64) rotate(90)"/><rect class="cls-2" x="39.79" y="71.52" width=".51" height=".52" transform="translate(111.82 31.73) rotate(90)"/><rect class="cls-2" x="44.7" y="71.52" width=".51" height=".52" transform="translate(116.74 26.82) rotate(90)"/><path class="cls-2" d="M59.29,71.78h-1.81c-.09,0-.15-.07-.15-.15s.07-.15,.15-.15h1.75l1.66-1.66v-1.85l-27.29-27.29c-.06-.06-.06-.16,0-.22s.16-.06,.22,0l27.34,27.34s.05,.07,.05,.11v1.98s-.02,.08-.05,.11l-1.75,1.75s-.07,.05-.11,.05Z"/><path class="cls-2" d="M56.85,105.48h-11.63s-.08-.03-.08-.08,.03-.08,.08-.08h11.6l20.56-20.56v-5.11l-3.78-3.78s-.03-.08,0-.11c.03-.03,.08-.03,.11,0l3.8,3.8s.02,.03,.02,.05v5.18s0,.04-.02,.05l-20.6,20.6s-.03,.02-.05,.02Z"/><polygon class="cls-2" points="55.84 105.4 63.84 97.4 64.69 97.4 56.85 105.4 55.84 105.4"/><polygon class="cls-2" points="23.99 50.36 32.55 58.91 32.55 60.66 33.49 59.71 33.49 57.91 25.98 50.4 23.99 50.36"/><polygon class="cls-2" points="27.37 50.36 35.93 58.91 35.93 60.66 36.87 59.71 36.87 57.91 29.36 50.4 27.37 50.36"/><polygon class="cls-2" points="30.75 50.36 39.31 58.91 39.31 60.66 40.25 59.71 40.25 57.91 32.74 50.4 30.75 50.36"/><polygon class="cls-2" points="34.13 50.36 42.69 58.91 42.69 60.66 43.64 59.71 43.64 57.91 36.12 50.4 34.13 50.36"/><polygon class="cls-2" points="59.22 93.16 55.39 96.99 54.61 96.99 55.04 97.41 55.84 97.41 59.2 94.05 59.22 93.16"/><polygon class="cls-2" points="59.22 94.67 55.39 98.5 54.61 98.5 55.04 98.92 55.84 98.92 59.2 95.56 59.22 94.67"/><polygon class="cls-2" points="59.22 96.19 55.39 100.01 54.61 100.01 55.04 100.44 55.84 100.44 59.2 97.08 59.22 96.19"/><polygon class="cls-2" points="59.22 97.7 55.39 101.53 54.61 101.53 55.04 101.95 55.84 101.95 59.2 98.59 59.22 97.7"/><rect class="cls-2" x="24.32" y="48.1" width="1.19" height=".28" transform="translate(73.16 23.33) rotate(90)"/><rect class="cls-2" x="27.77" y="48.1" width="1.19" height=".28" transform="translate(76.6 19.88) rotate(90)"/><rect class="cls-2" x="31.21" y="48.1" width="1.19" height=".28" transform="translate(80.05 16.44) rotate(90)"/><rect class="cls-2" x="34.66" y="48.1" width="1.19" height=".28" transform="translate(83.5 12.99) rotate(90)"/><path class="cls-2" d="M25.19,108.78s-.08-.03-.08-.08v-1.27l-3.63-3.63h-7.53s-.04,0-.05-.02l-2.19-2.19s-.02-.03-.02-.05v-21.91s0-.04,.02-.05l2.67-2.67v-21.36l-1.19-1.18s-.03-.08,0-.11c.03-.03,.08-.03,.11,0l1.21,1.21s.02,.03,.02,.05v21.42s0,.04-.02,.05l-2.67,2.67v21.85l2.14,2.14h7.53s.04,0,.05,.02l3.68,3.68s.02,.03,.02,.05v1.3s-.03,.08-.08,.08Z"/><polygon class="cls-2" points="11.97 101.74 11.97 86.25 11.8 86.08 11.76 101.53 11.97 101.74"/><path class="cls-2" d="M18.72,103.17h-4.3s-.04,0-.05-.02l-1.95-1.95s-.03-.08,0-.11,.08-.03,.11,0l1.93,1.93h4.24l.55-.55v-.47s.03-.08,.08-.08,.08,.03,.08,.08v.5s0,.04-.02,.05l-.59,.59s-.03,.02-.05,.02Z"/><path class="cls-2" d="M12.7,54.07c-.08,0-.16-.03-.22-.09l-.56-.56c-.12-.12-.12-.32,0-.44s.32-.12,.44,0l.56,.56c.12,.12,.12,.32,0,.44-.06,.06-.14,.09-.22,.09Z"/><path class="cls-2" d="M13.96,77.49s-.08-.03-.08-.08v-19.48s0-.04,.02-.05l.26-.26s.03-.02,.05-.02h.23s.08,.03,.08,.08-.03,.08-.08,.08h-.2l-.21,.21v19.45s-.03,.08-.08,.08Z"/><path class="cls-2" d="M14.45,92.17s-.08-.03-.08-.08v-13.63h-.4l-1.61,1.61v2.4s-.03,.08-.08,.08-.08-.03-.08-.08v-2.43s0-.04,.02-.05l1.66-1.66s.03-.02,.05-.02h.51s.08,.03,.08,.08v13.7s-.03,.08-.08,.08Z"/><path class="cls-2" d="M14.6,45.52s-.04,0-.05-.02l-1.99-1.99s-.02-.03-.02-.05V27.45l-2.65-2.64s-.03-.08,0-.11c.03-.03,.08-.03,.11,0l2.67,2.67s.02,.03,.02,.05v16l1.92,1.92,.24-.24s.08-.03,.11,0c.03,.03,.03,.08,0,.11l-.29,.29s-.03,.02-.05,.02Z"/><path class="cls-2" d="M14.6,47.17s-.08-.03-.08-.08v-1.65s.03-.08,.08-.08,.08,.03,.08,.08v1.65s-.03,.08-.08,.08Z"/><path class="cls-2" d="M22.69,44.81s-.08-.03-.08-.08v-1.14s.03-.08,.08-.08,.08,.03,.08,.08v1.14s-.03,.08-.08,.08Z"/><path class="cls-2" d="M22.1,64.05s-.08-.03-.08-.08v-1.11s.03-.08,.08-.08,.08,.03,.08,.08v1.11s-.03,.08-.08,.08Z"/><path class="cls-2" d="M28,66.65h-.98s-.08-.03-.08-.08v-.98s.03-.08,.08-.08h.98s.08,.03,.08,.08v.98s-.03,.08-.08,.08Zm-.9-.15h.82v-.82h-.82v.82Z"/><path class="cls-2" d="M32.3,66.65h-.98s-.08-.03-.08-.08v-.98s.03-.08,.08-.08h.98s.08,.03,.08,.08v.98s-.03,.08-.08,.08Zm-.9-.15h.82v-.82h-.82v.82Z"/><path class="cls-2" d="M36.59,66.65h-.98s-.08-.03-.08-.08v-.98s.03-.08,.08-.08h.98s.08,.03,.08,.08v.98s-.03,.08-.08,.08Zm-.9-.15h.82v-.82h-.82v.82Z"/><path class="cls-2" d="M40.88,66.65h-.98s-.08-.03-.08-.08v-.98s.03-.08,.08-.08h.98s.08,.03,.08,.08v.98s-.03,.08-.08,.08Zm-.9-.15h.82v-.82h-.82v.82Z"/><path class="cls-2" d="M45.17,66.65h-.98s-.08-.03-.08-.08v-.98s.03-.08,.08-.08h.98s.08,.03,.08,.08v.98s-.03,.08-.08,.08Zm-.9-.15h.82v-.82h-.82v.82Z"/><rect class="cls-2" x="50.97" y="68.75" width="2.72" height=".32" transform="translate(121.24 16.58) rotate(90)"/><rect class="cls-2" x="50.97" y="75.86" width="2.72" height=".32" transform="translate(128.34 23.68) rotate(90)"/><rect class="cls-2" x="50.97" y="82.96" width="2.72" height=".32" transform="translate(135.45 30.79) rotate(90)"/><rect class="cls-2" x="50.97" y="90.07" width="2.72" height=".32" transform="translate(142.56 37.9) rotate(90)"/><rect class="cls-2" x="72.68" y="101.75" width="1.82" height=".44" transform="translate(175.55 28.38) rotate(90)"/><rect class="cls-2" x="75.73" y="101.75" width="1.82" height=".44" transform="translate(178.6 25.33) rotate(90)"/><rect class="cls-2" x="78.78" y="101.75" width="1.82" height=".44" transform="translate(181.66 22.28) rotate(90)"/><rect class="cls-2" x="81.83" y="101.75" width="1.82" height=".44" transform="translate(184.71 19.23) rotate(90)"/><rect class="cls-2" x="84.88" y="101.75" width="1.82" height=".44" transform="translate(187.76 16.18) rotate(90)"/><rect class="cls-2" x="87.93" y="101.75" width="1.82" height=".44" transform="translate(190.81 13.13) rotate(90)"/><rect class="cls-2" x="90.98" y="101.75" width="1.82" height=".44" transform="translate(193.86 10.08) rotate(90)"/><polygon class="cls-2" points="128.7 15.64 175.46 15.64 177.28 13.82 197.17 13.82 199.43 16.08 199.43 18.02 190.29 27.15 186.23 27.15 179.25 20.17 169.27 20.17 166.77 17.67 130.29 17.67 129.14 18.82 122.26 18.82 120.51 17.07 120.51 15.64 128.7 15.64"/><path class="cls-2" d="M203.15,15.81h-1.17c-.08,0-.16-.03-.22-.09l-3.98-3.98c-.06-.06-.09-.14-.09-.22V6.21c0-.17,.14-.31,.31-.31s.31,.14,.31,.31v5.18l3.8,3.8h1.04c.17,0,.31,.14,.31,.31s-.14,.31-.31,.31Z"/><path class="cls-2" d="M202.73,13.35h-1.28s-.08-.02-.11-.05l-1.79-1.79c-.06-.06-.06-.16,0-.22,.06-.06,.16-.06,.22,0l1.74,1.74h1.15l9.66-9.66c.06-.06,.16-.06,.22,0s.06,.16,0,.22l-9.71,9.71s-.07,.05-.11,.05Z"/><path class="cls-2" d="M213.65,2.44c-.08,0-.16-.03-.22-.09-.12-.12-.12-.32,0-.44l1.82-1.82c.12-.12,.32-.12,.44,0,.12,.12,.12,.32,0,.44l-1.82,1.82c-.06,.06-.14,.09-.22,.09Z"/><path class="cls-2" d="M151.13,65.71h-3.96c-.08,0-.16-.03-.22-.09l-3.12-3.12h-2.05c-.17,0-.31-.14-.31-.31s.14-.31,.31-.31h2.18c.08,0,.16,.03,.22,.09l3.12,3.12h3.71l33.81-33.81v-2.68l-5.6-5.6h-1.46c-.17,0-.31-.14-.31-.31s.14-.31,.31-.31h1.59c.08,0,.16,.03,.22,.09l5.78,5.78c.06,.06,.09,.14,.09,.22v2.93c0,.08-.03,.16-.09,.22l-33.99,33.99c-.06,.06-.14,.09-.22,.09Z"/><path class="cls-2" d="M117.72,96.36s-.08-.02-.11-.05l-2.06-2.06s-.05-.07-.05-.11v-21.45s.02-.08,.05-.11l10.35-10.35s.07-.05,.11-.05h11.52c.09,0,.15,.07,.15,.15s-.07,.15-.15,.15h-11.45l-10.26,10.26v21.32l2.02,2.02c.06,.06,.06,.16,0,.22-.03,.03-.07,.05-.11,.05Z"/><path class="cls-2" d="M116.42,35.25s-.08-.01-.11-.05l-.95-.95s-.05-.07-.05-.11v-7.65s.02-.08,.05-.11l6.22-6.22s.07-.05,.11-.05h6.97c.09,0,.15,.07,.15,.15s-.07,.15-.15,.15h-6.91l-6.13,6.13v7.52l.91,.91c.06,.06,.06,.16,0,.22-.03,.03-.07,.05-.11,.05Z"/><path class="cls-2" d="M132.11,20.59h-2.02c-.17,0-.31-.14-.31-.31s.14-.31,.31-.31h2.02c.17,0,.31,.14,.31,.31s-.14,.31-.31,.31Z"/><path class="cls-2" d="M120.51,27.76h-2.15s-.08-.03-.08-.08v-1.15s0-.04,.02-.05l1.23-1.23s.03-.02,.05-.02h26.7s.08,.03,.08,.08-.03,.08-.08,.08h-26.67l-1.18,1.18v1.04h2.07s.08,.03,.08,.08-.03,.08-.08,.08Z"/><path class="cls-2" d="M123.71,27.84h-1.64c-.09,0-.15-.07-.15-.15s.07-.15,.15-.15h1.64c.09,0,.15,.07,.15,.15s-.07,.15-.15,.15Z"/><path class="cls-2" d="M120.51,32.68h-2.15s-.08-.03-.08-.08v-1.15s0-.04,.02-.05l1.23-1.23s.03-.02,.05-.02h26.7s.08,.03,.08,.08-.03,.08-.08,.08h-26.67l-1.18,1.18v1.04h2.07s.08,.03,.08,.08-.03,.08-.08,.08Z"/><path class="cls-2" d="M123.71,32.75h-1.64c-.09,0-.15-.07-.15-.15s.07-.15,.15-.15h1.64c.09,0,.15,.07,.15,.15s-.07,.15-.15,.15Z"/><path class="cls-2" d="M120.51,37.59h-2.15s-.08-.03-.08-.08v-1.15s0-.04,.02-.05l1.23-1.23s.03-.02,.05-.02h26.7s.08,.03,.08,.08-.03,.08-.08,.08h-26.67l-1.18,1.18v1.04h2.07s.08,.03,.08,.08-.03,.08-.08,.08Z"/><path class="cls-2" d="M123.71,37.67h-1.64c-.09,0-.15-.07-.15-.15s.07-.15,.15-.15h1.64c.09,0,.15,.07,.15,.15s-.07,.15-.15,.15Z"/><path class="cls-2" d="M120.51,42.5h-2.15s-.08-.03-.08-.08v-1.15s0-.04,.02-.05l1.23-1.23s.03-.02,.05-.02h26.7s.08,.03,.08,.08-.03,.08-.08,.08h-26.67l-1.18,1.18v1.04h2.07s.08,.03,.08,.08-.03,.08-.08,.08Z"/><path class="cls-2" d="M123.71,42.58h-1.64c-.09,0-.15-.07-.15-.15s.07-.15,.15-.15h1.64c.09,0,.15,.07,.15,.15s-.07,.15-.15,.15Z"/><path class="cls-2" d="M120.51,47.42h-2.15s-.08-.03-.08-.08v-1.15s0-.04,.02-.05l1.23-1.23s.03-.02,.05-.02h26.7s.08,.03,.08,.08-.03,.08-.08,.08h-26.67l-1.18,1.18v1.04h2.07s.08,.03,.08,.08-.03,.08-.08,.08Z"/><path class="cls-2" d="M123.71,47.49h-1.64c-.09,0-.15-.07-.15-.15s.07-.15,.15-.15h1.64c.09,0,.15,.07,.15,.15s-.07,.15-.15,.15Z"/><rect class="cls-2" x="147.86" y="25.05" width=".52" height=".52" transform="translate(296.23 50.62) rotate(180)"/><rect class="cls-2" x="147.86" y="29.96" width=".52" height=".52" transform="translate(296.23 60.44) rotate(180)"/><rect class="cls-2" x="147.86" y="34.88" width=".52" height=".51" transform="translate(296.23 70.27) rotate(180)"/><rect class="cls-2" x="147.86" y="39.79" width=".52" height=".52" transform="translate(296.23 80.1) rotate(180)"/><rect class="cls-2" x="147.86" y="44.7" width=".52" height=".52" transform="translate(296.23 89.92) rotate(180)"/><path class="cls-2" d="M152,61.2h-1.98s-.08-.02-.11-.05l-1.75-1.75s-.05-.07-.05-.11v-1.81c0-.08,.07-.15,.15-.15s.15,.07,.15,.15v1.75l1.66,1.66h1.85l27.29-27.29c.06-.06,.16-.06,.22,0s.06,.16,0,.22l-27.34,27.34s-.07,.05-.11,.05Z"/><path class="cls-2" d="M140.27,77.53h-5.18s-.04,0-.05-.02l-20.6-20.6s-.02-.03-.02-.05v-11.63s.03-.08,.08-.08,.08,.03,.08,.08v11.6l20.56,20.56h5.11l3.78-3.78s.08-.03,.11,0,.03,.08,0,.11l-3.8,3.8s-.03,.02-.05,.02Z"/><polygon class="cls-2" points="114.49 55.84 122.49 63.84 122.49 64.69 114.49 56.85 114.49 55.84"/><polygon class="cls-2" points="169.54 23.99 160.98 32.55 159.24 32.55 160.18 33.49 161.98 33.49 169.5 25.98 169.54 23.99"/><polygon class="cls-2" points="169.54 27.37 160.98 35.93 159.24 35.93 160.18 36.87 161.98 36.87 169.5 29.36 169.54 27.37"/><polygon class="cls-2" points="169.54 30.75 160.98 39.31 159.24 39.31 160.18 40.25 161.98 40.25 169.5 32.74 169.54 30.75"/><polygon class="cls-2" points="169.54 34.13 160.98 42.69 159.24 42.69 160.18 43.64 161.98 43.64 169.5 36.12 169.54 34.13"/><polygon class="cls-2" points="126.73 59.22 122.9 55.39 122.9 54.61 122.48 55.04 122.48 55.84 125.84 59.2 126.73 59.22"/><polygon class="cls-2" points="125.22 59.22 121.39 55.39 121.39 54.61 120.97 55.04 120.97 55.84 124.33 59.2 125.22 59.22"/><polygon class="cls-2" points="123.71 59.22 119.88 55.39 119.88 54.61 119.46 55.04 119.46 55.84 122.82 59.2 123.71 59.22"/><polygon class="cls-2" points="122.2 59.22 118.37 55.39 118.37 54.61 117.94 55.04 117.94 55.84 121.31 59.2 122.2 59.22"/><rect class="cls-2" x="171.06" y="24.77" width="1.19" height=".28" transform="translate(343.3 49.83) rotate(180)"/><rect class="cls-2" x="171.06" y="28.22" width="1.19" height=".28" transform="translate(343.3 56.72) rotate(180)"/><rect class="cls-2" x="171.06" y="31.67" width="1.19" height=".28" transform="translate(343.3 63.61) rotate(180)"/><rect class="cls-2" x="171.06" y="35.11" width="1.19" height=".28" transform="translate(343.3 70.51) rotate(180)"/><path class="cls-2" d="M112.49,25.26h-1.3s-.08-.03-.08-.08,.03-.08,.08-.08h1.27l3.63-3.63v-7.53s0-.04,.02-.05l2.19-2.19s.03-.02,.05-.02h21.91s.04,0,.05,.02l2.67,2.67h21.36l1.19-1.19s.08-.03,.11,0,.03,.08,0,.11l-1.21,1.21s-.03,.02-.05,.02h-21.42s-.04,0-.05-.02l-2.67-2.67h-21.85l-2.14,2.14v7.53s0,.04-.02,.05l-3.68,3.68s-.03,.02-.05,.02Z"/><polygon class="cls-2" points="118.15 11.97 133.64 11.97 133.81 11.8 118.36 11.76 118.15 11.97"/><path class="cls-2" d="M117.89,19.39h-.5s-.04,0-.05-.02l-.59-.59s-.02-.03-.02-.05v-4.3s0-.04,.02-.05l1.95-1.95s.08-.03,.11,0,.03,.08,0,.11l-1.93,1.92v4.24l.55,.55h.47s.08,.03,.08,.08-.03,.08-.08,.08Z"/><path class="cls-2" d="M166.13,13c-.08,0-.16-.03-.22-.09-.12-.12-.12-.32,0-.44l.56-.56c.12-.12,.32-.12,.44,0s.12,.32,0,.44l-.56,.56c-.06,.06-.14,.09-.22,.09Z"/><path class="cls-2" d="M162.22,14.53s-.08-.03-.08-.08v-.2l-.21-.21h-19.45s-.08-.03-.08-.08,.03-.08,.08-.08h19.48s.04,0,.05,.02l.26,.26s.02,.03,.02,.05v.23s-.03,.08-.08,.08Z"/><path class="cls-2" d="M141.51,14.53h-13.7s-.08-.03-.08-.08,.03-.08,.08-.08h13.63v-.4l-1.61-1.61h-2.4s-.08-.03-.08-.08,.03-.08,.08-.08h2.43s.04,0,.05,.02l1.66,1.66s.02,.03,.02,.05v.51s-.03,.08-.08,.08Z"/><path class="cls-2" d="M174.74,14.97s-.04,0-.05-.02l-.29-.29s-.03-.08,0-.11l1.99-1.99s.03-.02,.05-.02h16l2.65-2.65s.08-.03,.11,0c.03,.03,.03,.08,0,.11l-2.67,2.67s-.03,.02-.05,.02h-16l-1.92,1.92,.24,.24s.03,.08,0,.11c-.01,.01-.03,.02-.05,.02Z"/><path class="cls-2" d="M174.45,14.67h-1.65s-.08-.03-.08-.08,.03-.08,.08-.08h1.65s.08,.03,.08,.08-.03,.08-.08,.08Z"/><path class="cls-2" d="M176.3,22.77h-1.14s-.08-.03-.08-.08,.03-.08,.08-.08h1.14s.08,.03,.08,.08-.03,.08-.08,.08Z"/><path class="cls-2" d="M157.03,22.18h-1.11s-.08-.03-.08-.08,.03-.08,.08-.08h1.11s.08,.03,.08,.08-.03,.08-.08,.08Z"/><path class="cls-2" d="M154.3,28.08h-.98s-.08-.03-.08-.08v-.98s.03-.08,.08-.08h.98s.08,.03,.08,.08v.98s-.03,.08-.08,.08Zm-.9-.15h.82v-.82h-.82v.82Z"/><path class="cls-2" d="M154.3,32.37h-.98s-.08-.03-.08-.08v-.98s.03-.08,.08-.08h.98s.08,.03,.08,.08v.98s-.03,.08-.08,.08Zm-.9-.15h.82v-.82h-.82v.82Z"/><path class="cls-2" d="M154.3,36.66h-.98s-.08-.03-.08-.08v-.98s.03-.08,.08-.08h.98s.08,.03,.08,.08v.98s-.03,.08-.08,.08Zm-.9-.15h.82v-.82h-.82v.82Z"/><path class="cls-2" d="M154.3,40.96h-.98s-.08-.03-.08-.08v-.98s.03-.08,.08-.08h.98s.08,.03,.08,.08v.98s-.03,.08-.08,.08Zm-.9-.15h.82v-.82h-.82v.82Z"/><path class="cls-2" d="M154.3,45.25h-.98s-.08-.03-.08-.08v-.98s.03-.08,.08-.08h.98s.08,.03,.08,.08v.98s-.03,.08-.08,.08Zm-.9-.15h.82v-.82h-.82v.82Z"/><rect class="cls-2" x="149.62" y="52.17" width="2.72" height=".32" transform="translate(301.97 104.66) rotate(180)"/><rect class="cls-2" x="142.52" y="52.17" width="2.72" height=".32" transform="translate(287.76 104.66) rotate(180)"/><rect class="cls-2" x="135.41" y="52.17" width="2.72" height=".32" transform="translate(273.55 104.66) rotate(180)"/><rect class="cls-2" x="128.31" y="52.17" width="2.72" height=".32" transform="translate(259.34 104.66) rotate(180)"/><rect class="cls-2" x="117.02" y="73.37" width="1.82" height=".44" transform="translate(235.85 147.17) rotate(180)"/><rect class="cls-2" x="117.02" y="76.42" width="1.82" height=".44" transform="translate(235.85 153.27) rotate(180)"/><rect class="cls-2" x="117.02" y="79.47" width="1.82" height=".44" transform="translate(235.85 159.38) rotate(180)"/><rect class="cls-2" x="117.02" y="82.52" width="1.82" height=".44" transform="translate(235.85 165.48) rotate(180)"/><rect class="cls-2" x="117.02" y="85.57" width="1.82" height=".44" transform="translate(235.85 171.58) rotate(180)"/><rect class="cls-2" x="117.02" y="88.62" width="1.82" height=".44" transform="translate(235.85 177.68) rotate(180)"/><rect class="cls-2" x="117.02" y="91.67" width="1.82" height=".44" transform="translate(235.85 183.78) rotate(180)"/><polygon class="cls-2" points="203.67 91.19 203.67 44.44 205.49 42.62 205.49 22.73 203.24 20.47 201.29 20.47 192.16 29.6 192.16 33.66 199.14 40.64 199.14 50.62 201.64 53.12 201.64 89.61 200.49 90.76 200.49 97.64 202.24 99.38 203.67 99.38 203.67 91.19"/><path class="cls-2" d="M213.1,22.2h-5.31c-.08,0-.16-.03-.22-.09l-3.98-3.98c-.06-.06-.09-.14-.09-.22v-1.17c0-.17,.14-.31,.31-.31s.31,.14,.31,.31v1.04l3.8,3.8h5.18c.17,0,.31,.14,.31,.31s-.14,.31-.31,.31Z"/><path class="cls-2" d="M207.9,20.39s-.08-.02-.11-.05l-1.79-1.79s-.05-.07-.05-.11v-1.28s.02-.08,.05-.11l9.71-9.71c.06-.06,.16-.06,.22,0s.06,.16,0,.22l-9.66,9.66v1.15l1.74,1.74c.06,.06,.06,.16,0,.22-.03,.03-.07,.05-.11,.05Z"/><path class="cls-2" d="M217.18,6.55c-.08,0-.16-.03-.22-.09-.12-.12-.12-.32,0-.44l1.82-1.82c.12-.12,.32-.12,.44,0,.12,.12,.12,.32,0,.44l-1.82,1.82c-.06,.06-.14,.09-.22,.09Z"/><path class="cls-2" d="M157.12,78.42c-.17,0-.31-.14-.31-.31v-2.05l-3.12-3.12c-.06-.06-.09-.14-.09-.22v-3.96c0-.08,.03-.16,.09-.22l33.99-33.99c.06-.06,.14-.09,.22-.09h2.93c.08,0,.16,.03,.22,.09l5.78,5.78c.06,.06,.09,.14,.09,.22v1.58c0,.17-.14,.31-.31,.31s-.31-.14-.31-.31v-1.46l-5.6-5.6h-2.68l-33.81,33.81v3.71l3.12,3.12c.06,.06,.09,.14,.09,.22v2.18c0,.17-.14,.31-.31,.31Z"/><path class="cls-2" d="M146.62,104.39h-21.45s-.08-.02-.11-.05l-2.06-2.06c-.06-.06-.06-.16,0-.22s.16-.06,.22,0l2.02,2.02h21.32l10.26-10.26v-11.45c0-.08,.07-.15,.15-.15s.15,.07,.15,.15v11.52s-.02,.08-.05,.11l-10.35,10.35s-.07,.05-.11,.05Z"/><path class="cls-2" d="M192.82,104.58h-7.65s-.08-.02-.11-.05l-.95-.95c-.06-.06-.06-.16,0-.22s.16-.06,.22,0l.91,.91h7.52l6.13-6.13v-6.91c0-.08,.07-.15,.15-.15s.15,.07,.15,.15v6.97s-.02,.08-.05,.11l-6.22,6.22s-.07,.05-.11,.05Z"/><path class="cls-2" d="M199.04,90.11c-.17,0-.31-.14-.31-.31v-2.02c0-.17,.14-.31,.31-.31s.31,.14,.31,.31v2.02c0,.17-.14,.31-.31,.31Z"/><path class="cls-2" d="M192.78,101.61h-1.15s-.08-.03-.08-.08v-2.15s.03-.08,.08-.08,.08,.03,.08,.08v2.07h1.04l1.18-1.18v-26.67s.03-.08,.08-.08,.08,.03,.08,.08v26.7s0,.04-.02,.05l-1.23,1.23s-.03,.02-.05,.02Z"/><path class="cls-2" d="M191.63,97.98c-.09,0-.15-.07-.15-.15v-1.64c0-.08,.07-.15,.15-.15s.15,.07,.15,.15v1.64c0,.08-.07,.15-.15,.15Z"/><path class="cls-2" d="M187.86,101.61h-1.15s-.08-.03-.08-.08v-2.15s.03-.08,.08-.08,.08,.03,.08,.08v2.07h1.04l1.18-1.18v-26.67s.03-.08,.08-.08,.08,.03,.08,.08v26.7s0,.04-.02,.05l-1.23,1.23s-.03,.02-.05,.02Z"/><path class="cls-2" d="M186.71,97.98c-.09,0-.15-.07-.15-.15v-1.64c0-.08,.07-.15,.15-.15s.15,.07,.15,.15v1.64c0,.08-.07,.15-.15,.15Z"/><path class="cls-2" d="M182.95,101.61h-1.15s-.08-.03-.08-.08v-2.15s.03-.08,.08-.08,.08,.03,.08,.08v2.07h1.04l1.18-1.18v-26.67s.03-.08,.08-.08,.08,.03,.08,.08v26.7s0,.04-.02,.05l-1.23,1.23s-.03,.02-.05,.02Z"/><path class="cls-2" d="M181.8,97.98c-.09,0-.15-.07-.15-.15v-1.64c0-.08,.07-.15,.15-.15s.15,.07,.15,.15v1.64c0,.08-.07,.15-.15,.15Z"/><path class="cls-2" d="M178.04,101.61h-1.15s-.08-.03-.08-.08v-2.15s.03-.08,.08-.08,.08,.03,.08,.08v2.07h1.04l1.18-1.18v-26.67s.03-.08,.08-.08,.08,.03,.08,.08v26.7s0,.04-.02,.05l-1.23,1.23s-.03,.02-.05,.02Z"/><path class="cls-2" d="M176.89,97.98c-.09,0-.15-.07-.15-.15v-1.64c0-.08,.07-.15,.15-.15s.15,.07,.15,.15v1.64c0,.08-.07,.15-.15,.15Z"/><path class="cls-2" d="M173.12,101.61h-1.15s-.08-.03-.08-.08v-2.15s.03-.08,.08-.08,.08,.03,.08,.08v2.07h1.04l1.18-1.18v-26.67s.03-.08,.08-.08,.08,.03,.08,.08v26.7s0,.04-.02,.05l-1.23,1.23s-.03,.02-.05,.02Z"/><path class="cls-2" d="M171.98,97.98c-.09,0-.15-.07-.15-.15v-1.64c0-.08,.07-.15,.15-.15s.15,.07,.15,.15v1.64c0,.08-.07,.15-.15,.15Z"/><rect class="cls-2" x="193.75" y="71.52" width=".51" height=".52" transform="translate(265.78 -122.23) rotate(90)"/><rect class="cls-2" x="188.83" y="71.52" width=".51" height=".52" transform="translate(260.87 -117.31) rotate(90)"/><rect class="cls-2" x="183.92" y="71.52" width=".51" height=".52" transform="translate(255.96 -112.4) rotate(90)"/><rect class="cls-2" x="179.01" y="71.52" width=".51" height=".52" transform="translate(251.04 -107.49) rotate(90)"/><rect class="cls-2" x="174.1" y="71.52" width=".51" height=".52" transform="translate(246.13 -102.58) rotate(90)"/><path class="cls-2" d="M161.83,71.78h-1.81s-.08-.02-.11-.05l-1.75-1.75s-.05-.07-.05-.11v-1.98s.02-.08,.05-.11l27.34-27.34c.06-.06,.16-.06,.22,0s.06,.16,0,.22l-27.29,27.29v1.85l1.66,1.66h1.75c.09,0,.15,.07,.15,.15s-.07,.15-.15,.15Z"/><path class="cls-2" d="M174.1,105.48h-11.63s-.04,0-.05-.02l-20.6-20.6s-.02-.03-.02-.05v-5.18s0-.04,.02-.05l3.8-3.8s.08-.03,.11,0c.03,.03,.03,.08,0,.11l-3.78,3.78v5.11l20.56,20.56h11.6s.08,.03,.08,.08-.03,.08-.08,.08Z"/><polygon class="cls-2" points="163.47 105.4 155.47 97.4 154.62 97.4 162.47 105.4 163.47 105.4"/><polygon class="cls-2" points="195.33 50.36 186.77 58.91 186.77 60.66 185.82 59.71 185.82 57.91 193.33 50.4 195.33 50.36"/><polygon class="cls-2" points="191.94 50.36 183.39 58.91 183.39 60.66 182.44 59.71 182.44 57.91 189.95 50.4 191.94 50.36"/><polygon class="cls-2" points="188.56 50.36 180.01 58.91 180.01 60.66 179.06 59.71 179.06 57.91 186.57 50.4 188.56 50.36"/><polygon class="cls-2" points="185.18 50.36 176.62 58.91 176.62 60.66 175.68 59.71 175.68 57.91 183.19 50.4 185.18 50.36"/><polygon class="cls-2" points="160.09 93.16 163.92 96.99 164.7 96.99 164.28 97.41 163.47 97.41 160.11 94.05 160.09 93.16"/><polygon class="cls-2" points="160.09 94.67 163.92 98.5 164.7 98.5 164.28 98.92 163.47 98.92 160.11 95.56 160.09 94.67"/><polygon class="cls-2" points="160.09 96.19 163.92 100.01 164.7 100.01 164.28 100.44 163.47 100.44 160.11 97.08 160.09 96.19"/><polygon class="cls-2" points="160.09 97.7 163.92 101.53 164.7 101.53 164.28 101.95 163.47 101.95 160.11 98.59 160.09 97.7"/><rect class="cls-2" x="193.81" y="48.1" width="1.19" height=".28" transform="translate(242.64 -146.16) rotate(90)"/><rect class="cls-2" x="190.36" y="48.1" width="1.19" height=".28" transform="translate(239.2 -142.71) rotate(90)"/><rect class="cls-2" x="186.91" y="48.1" width="1.19" height=".28" transform="translate(235.75 -139.26) rotate(90)"/><rect class="cls-2" x="183.47" y="48.1" width="1.19" height=".28" transform="translate(232.3 -135.82) rotate(90)"/><path class="cls-2" d="M194.13,108.78s-.08-.03-.08-.08v-1.3s0-.04,.02-.05l3.68-3.68s.03-.02,.05-.02h7.53l2.14-2.14v-21.85l-2.67-2.67s-.02-.03-.02-.05v-21.42s0-.04,.02-.05l1.21-1.21s.08-.03,.11,0c.03,.03,.03,.08,0,.11l-1.19,1.18v21.36l2.67,2.67s.02,.03,.02,.05v21.91s0,.04-.02,.05l-2.19,2.19s-.03,.02-.05,.02h-7.53l-3.63,3.63v1.27s-.03,.08-.08,.08Z"/><polygon class="cls-2" points="207.34 101.74 207.34 86.25 207.52 86.08 207.55 101.53 207.34 101.74"/><path class="cls-2" d="M204.89,103.17h-4.3s-.04,0-.05-.02l-.59-.59s-.02-.03-.02-.05v-.5s.03-.08,.08-.08,.08,.03,.08,.08v.47l.55,.55h4.23l1.93-1.93s.08-.03,.11,0c.03,.03,.03,.08,0,.11l-1.95,1.95s-.03,.02-.05,.02Z"/><path class="cls-2" d="M206.62,54.07c-.08,0-.16-.03-.22-.09-.12-.12-.12-.32,0-.44l.56-.56c.12-.12,.32-.12,.44,0s.12,.32,0,.44l-.56,.56c-.06,.06-.14,.09-.22,.09Z"/><path class="cls-2" d="M205.35,77.49s-.08-.03-.08-.08v-19.45l-.21-.21h-.2s-.08-.03-.08-.08,.03-.08,.08-.08h.23s.04,0,.05,.02l.26,.26s.02,.03,.02,.05v19.48s-.03,.08-.08,.08Z"/><path class="cls-2" d="M204.86,92.17s-.08-.03-.08-.08v-13.7s.03-.08,.08-.08h.51s.04,0,.05,.02l1.66,1.66s.02,.03,.02,.05v2.43s-.03,.08-.08,.08-.08-.03-.08-.08v-2.4l-1.61-1.61h-.4v13.63s-.03,.08-.08,.08Z"/><path class="cls-2" d="M204.72,45.52s-.04,0-.05-.02l-.29-.29s-.03-.08,0-.11c.03-.03,.08-.03,.11,0l.24,.24,1.92-1.92V27.42s0-.04,.02-.05l2.67-2.67s.08-.03,.11,0c.03,.03,.03,.08,0,.11l-2.65,2.64v16s0,.04-.02,.05l-1.99,1.99s-.03,.02-.05,.02Z"/><path class="cls-2" d="M204.72,47.17s-.08-.03-.08-.08v-1.65s.03-.08,.08-.08,.08,.03,.08,.08v1.65s-.03,.08-.08,.08Z"/><path class="cls-2" d="M196.62,44.81s-.08-.03-.08-.08v-1.14s.03-.08,.08-.08,.08,.03,.08,.08v1.14s-.03,.08-.08,.08Z"/><path class="cls-2" d="M197.21,64.05s-.08-.03-.08-.08v-1.11s.03-.08,.08-.08,.08,.03,.08,.08v1.11s-.03,.08-.08,.08Z"/><path class="cls-2" d="M192.29,66.65h-.98s-.08-.03-.08-.08v-.98s.03-.08,.08-.08h.98s.08,.03,.08,.08v.98s-.03,.08-.08,.08Zm-.9-.15h.82v-.82h-.82v.82Z"/><path class="cls-2" d="M188,66.65h-.98s-.08-.03-.08-.08v-.98s.03-.08,.08-.08h.98s.08,.03,.08,.08v.98s-.03,.08-.08,.08Zm-.9-.15h.82v-.82h-.82v.82Z"/><path class="cls-2" d="M183.7,66.65h-.98s-.08-.03-.08-.08v-.98s.03-.08,.08-.08h.98s.08,.03,.08,.08v.98s-.03,.08-.08,.08Zm-.9-.15h.82v-.82h-.82v.82Z"/><path class="cls-2" d="M179.41,66.65h-.98s-.08-.03-.08-.08v-.98s.03-.08,.08-.08h.98s.08,.03,.08,.08v.98s-.03,.08-.08,.08Zm-.9-.15h.82v-.82h-.82v.82Z"/><path class="cls-2" d="M175.12,66.65h-.98s-.08-.03-.08-.08v-.98s.03-.08,.08-.08h.98s.08,.03,.08,.08v.98s-.03,.08-.08,.08Zm-.9-.15h.82v-.82h-.82v.82Z"/><rect class="cls-2" x="165.62" y="68.75" width="2.72" height=".32" transform="translate(235.89 -98.07) rotate(90)"/><rect class="cls-2" x="165.62" y="75.86" width="2.72" height=".32" transform="translate(243 -90.97) rotate(90)"/><rect class="cls-2" x="165.62" y="82.96" width="2.72" height=".32" transform="translate(250.1 -83.86) rotate(90)"/><rect class="cls-2" x="165.62" y="90.07" width="2.72" height=".32" transform="translate(257.21 -76.76) rotate(90)"/><rect class="cls-2" x="144.82" y="101.75" width="1.82" height=".44" transform="translate(247.69 -43.76) rotate(90)"/><rect class="cls-2" x="141.76" y="101.75" width="1.82" height=".44" transform="translate(244.64 -40.71) rotate(90)"/><rect class="cls-2" x="138.71" y="101.75" width="1.82" height=".44" transform="translate(241.59 -37.66) rotate(90)"/><rect class="cls-2" x="135.66" y="101.75" width="1.82" height=".44" transform="translate(238.54 -34.61) rotate(90)"/><rect class="cls-2" x="132.61" y="101.75" width="1.82" height=".44" transform="translate(235.49 -31.56) rotate(90)"/><rect class="cls-2" x="129.56" y="101.75" width="1.82" height=".44" transform="translate(232.44 -28.51) rotate(90)"/><rect class="cls-2" x="126.51" y="101.75" width="1.82" height=".44" transform="translate(229.39 -25.45) rotate(90)"/><polygon class="cls-2" points="128.7 204.55 175.46 204.55 177.28 206.37 197.17 206.37 199.43 204.12 199.43 202.17 190.29 193.04 186.23 193.04 179.25 200.02 169.27 200.02 166.77 202.52 130.29 202.52 129.14 201.37 122.26 201.37 120.51 203.12 120.51 204.55 128.7 204.55"/><path class="cls-2" d="M198,214.29c-.17,0-.31-.14-.31-.31v-5.31c0-.08,.03-.16,.09-.22l3.98-3.98c.06-.06,.14-.09,.22-.09h1.17c.17,0,.31,.14,.31,.31s-.14,.31-.31,.31h-1.04l-3.8,3.8v5.18c0,.17-.14,.31-.31,.31Z"/><path class="cls-2" d="M212.43,216.86s-.08-.02-.11-.05l-9.66-9.66h-1.15l-1.74,1.74c-.06,.06-.16,.06-.22,0s-.06-.16,0-.22l1.79-1.79s.07-.05,.11-.05h1.28s.08,.02,.11,.05l9.71,9.71c.06,.06,.06,.16,0,.22-.03,.03-.07,.05-.11,.05Z"/><path class="cls-2" d="M215.47,220.19c-.08,0-.16-.03-.22-.09l-1.82-1.82c-.12-.12-.12-.32,0-.44s.32-.12,.44,0l1.82,1.82c.12,.12,.12,.32,0,.44-.06,.06-.14,.09-.22,.09Z"/><path class="cls-2" d="M179.34,197.81h-1.59c-.17,0-.31-.14-.31-.31s.14-.31,.31-.31h1.46l5.6-5.6v-2.68l-33.81-33.81h-3.71l-3.12,3.12c-.06,.06-.14,.09-.22,.09h-2.18c-.17,0-.31-.14-.31-.31s.14-.31,.31-.31h2.05l3.12-3.12c.06-.06,.14-.09,.22-.09h3.96c.08,0,.16,.03,.22,.09l33.99,33.99c.06,.06,.09,.14,.09,.22v2.93c0,.08-.03,.16-.09,.22l-5.78,5.78c-.06,.06-.14,.09-.22,.09Z"/><path class="cls-2" d="M137.53,158.01h-11.52s-.08-.02-.11-.05l-10.35-10.35s-.05-.07-.05-.11v-21.45s.02-.08,.05-.11l2.06-2.06c.06-.06,.16-.06,.22,0s.06,.16,0,.22l-2.02,2.02v21.32l10.26,10.26h11.45c.09,0,.15,.07,.15,.15s-.07,.15-.15,.15Z"/><path class="cls-2" d="M128.66,200.07h-6.97s-.08-.02-.11-.05l-6.22-6.22s-.05-.07-.05-.11v-7.65s.02-.08,.05-.11l.95-.95c.06-.06,.16-.06,.22,0s.06,.16,0,.22l-.91,.91v7.52l6.13,6.13h6.91c.09,0,.15,.07,.15,.15s-.07,.15-.15,.15Z"/><path class="cls-2" d="M132.11,200.22h-2.02c-.17,0-.31-.14-.31-.31s.14-.31,.31-.31h2.02c.17,0,.31,.14,.31,.31s-.14,.31-.31,.31Z"/><path class="cls-2" d="M146.29,194.96h-26.7s-.04,0-.05-.02l-1.23-1.23s-.02-.03-.02-.05v-1.15s.03-.08,.08-.08h2.15s.08,.03,.08,.08-.03,.08-.08,.08h-2.07v1.04l1.18,1.18h26.67s.08,.03,.08,.08-.03,.08-.08,.08Z"/><path class="cls-2" d="M123.71,192.66h-1.64c-.09,0-.15-.07-.15-.15s.07-.15,.15-.15h1.64c.09,0,.15,.07,.15,.15s-.07,.15-.15,.15Z"/><path class="cls-2" d="M146.29,190.05h-26.7s-.04,0-.05-.02l-1.23-1.23s-.02-.03-.02-.05v-1.15s.03-.08,.08-.08h2.15s.08,.03,.08,.08-.03,.08-.08,.08h-2.07v1.04l1.18,1.18h26.67s.08,.03,.08,.08-.03,.08-.08,.08Z"/><path class="cls-2" d="M123.71,187.75h-1.64c-.09,0-.15-.07-.15-.15s.07-.15,.15-.15h1.64c.09,0,.15,.07,.15,.15s-.07,.15-.15,.15Z"/><path class="cls-2" d="M146.29,185.14h-26.7s-.04,0-.05-.02l-1.23-1.23s-.02-.03-.02-.05v-1.15s.03-.08,.08-.08h2.15s.08,.03,.08,.08-.03,.08-.08,.08h-2.07v1.04l1.18,1.18h26.67s.08,.03,.08,.08-.03,.08-.08,.08Z"/><path class="cls-2" d="M123.71,182.84h-1.64c-.09,0-.15-.07-.15-.15s.07-.15,.15-.15h1.64c.09,0,.15,.07,.15,.15s-.07,.15-.15,.15Z"/><path class="cls-2" d="M146.29,180.22h-26.7s-.04,0-.05-.02l-1.23-1.23s-.02-.03-.02-.05v-1.15s.03-.08,.08-.08h2.15s.08,.03,.08,.08-.03,.08-.08,.08h-2.07v1.04l1.18,1.18h26.67s.08,.03,.08,.08-.03,.08-.08,.08Z"/><path class="cls-2" d="M123.71,177.92h-1.64c-.09,0-.15-.07-.15-.15s.07-.15,.15-.15h1.64c.09,0,.15,.07,.15,.15s-.07,.15-.15,.15Z"/><path class="cls-2" d="M146.29,175.31h-26.7s-.04,0-.05-.02l-1.23-1.23s-.02-.03-.02-.05v-1.15s.03-.08,.08-.08h2.15s.08,.03,.08,.08-.03,.08-.08,.08h-2.07v1.04l1.18,1.18h26.67s.08,.03,.08,.08-.03,.08-.08,.08Z"/><path class="cls-2" d="M123.71,173.01h-1.64c-.09,0-.15-.07-.15-.15s.07-.15,.15-.15h1.64c.09,0,.15,.07,.15,.15s-.07,.15-.15,.15Z"/><rect class="cls-2" x="147.86" y="194.63" width=".52" height=".52" transform="translate(296.23 389.77) rotate(180)"/><rect class="cls-2" x="147.86" y="189.71" width=".52" height=".52" transform="translate(296.23 379.94) rotate(180)"/><rect class="cls-2" x="147.86" y="184.8" width=".52" height=".52" transform="translate(296.23 370.12) rotate(180)"/><rect class="cls-2" x="147.86" y="179.89" width=".52" height=".52" transform="translate(296.23 360.29) rotate(180)"/><rect class="cls-2" x="147.86" y="174.98" width=".52" height=".52" transform="translate(296.23 350.47) rotate(180)"/><path class="cls-2" d="M179.34,186.64s-.08-.01-.11-.05l-27.29-27.29h-1.85l-1.66,1.66v1.75c0,.08-.07,.15-.15,.15s-.15-.07-.15-.15v-1.81s.02-.08,.05-.11l1.75-1.75s.07-.05,.11-.05h1.98s.08,.02,.11,.05l27.34,27.34c.06,.06,.06,.16,0,.22-.03,.03-.07,.05-.11,.05Z"/><path class="cls-2" d="M114.49,175.05s-.08-.03-.08-.08v-11.63s0-.04,.02-.05l20.6-20.6s.03-.02,.05-.02h5.18s.04,0,.05,.02l3.8,3.8s.03,.08,0,.11-.08,.03-.11,0l-3.78-3.78h-5.11l-20.56,20.56v11.6s-.03,.08-.08,.08Z"/><polygon class="cls-2" points="114.49 164.35 122.49 156.35 122.49 155.5 114.49 163.35 114.49 164.35"/><polygon class="cls-2" points="169.54 196.21 160.98 187.65 159.24 187.65 160.18 186.7 161.98 186.7 169.5 194.21 169.54 196.21"/><polygon class="cls-2" points="169.54 192.82 160.98 184.27 159.24 184.27 160.18 183.32 161.98 183.32 169.5 190.83 169.54 192.82"/><polygon class="cls-2" points="169.54 189.44 160.98 180.89 159.24 180.89 160.18 179.94 161.98 179.94 169.5 187.45 169.54 189.44"/><polygon class="cls-2" points="169.54 186.06 160.98 177.5 159.24 177.5 160.18 176.56 161.98 176.56 169.5 184.07 169.54 186.06"/><polygon class="cls-2" points="126.73 160.97 122.9 164.8 122.9 165.58 122.48 165.16 122.48 164.35 125.84 160.99 126.73 160.97"/><polygon class="cls-2" points="125.22 160.97 121.39 164.8 121.39 165.58 120.97 165.16 120.97 164.35 124.33 160.99 125.22 160.97"/><polygon class="cls-2" points="123.71 160.97 119.88 164.8 119.88 165.58 119.46 165.16 119.46 164.35 122.82 160.99 123.71 160.97"/><polygon class="cls-2" points="122.2 160.97 118.37 164.8 118.37 165.58 117.94 165.16 117.94 164.35 121.31 160.99 122.2 160.97"/><rect class="cls-2" x="171.06" y="195.14" width="1.19" height=".28" transform="translate(343.3 390.56) rotate(180)"/><rect class="cls-2" x="171.06" y="191.69" width="1.19" height=".28" transform="translate(343.3 383.67) rotate(180)"/><rect class="cls-2" x="171.06" y="188.25" width="1.19" height=".28" transform="translate(343.3 376.77) rotate(180)"/><rect class="cls-2" x="171.06" y="184.8" width="1.19" height=".28" transform="translate(343.3 369.88) rotate(180)"/><path class="cls-2" d="M140.27,208.51h-21.91s-.04,0-.05-.02l-2.19-2.19s-.02-.03-.02-.05v-7.53l-3.63-3.63h-1.27s-.08-.03-.08-.08,.03-.08,.08-.08h1.3s.04,0,.05,.02l3.68,3.68s.02,.03,.02,.05v7.53l2.14,2.14h21.85l2.67-2.67s.03-.02,.05-.02h21.42s.04,0,.05,.02l1.21,1.21s.03,.08,0,.11-.08,.03-.11,0l-1.19-1.19h-21.36l-2.67,2.67s-.03,.02-.05,.02Z"/><polygon class="cls-2" points="118.15 208.22 133.64 208.22 133.81 208.4 118.36 208.43 118.15 208.22"/><path class="cls-2" d="M118.75,207.8s-.04,0-.05-.02l-1.95-1.95s-.02-.03-.02-.05v-4.3s0-.04,.02-.05l.59-.59s.03-.02,.05-.02h.5s.08,.03,.08,.08-.03,.08-.08,.08h-.47l-.55,.55v4.23l1.93,1.93s.03,.08,0,.11c-.02,.02-.03,.02-.05,.02Z"/><path class="cls-2" d="M166.69,208.37c-.08,0-.16-.03-.22-.09l-.56-.56c-.12-.12-.12-.32,0-.44,.12-.12,.32-.12,.44,0l.56,.56c.12,.12,.12,.32,0,.44-.06,.06-.14,.09-.22,.09Z"/><path class="cls-2" d="M161.96,206.31h-19.48s-.08-.03-.08-.08,.03-.08,.08-.08h19.45l.21-.21v-.2s.03-.08,.08-.08,.08,.03,.08,.08v.23s0,.04-.02,.05l-.26,.26s-.03,.02-.05,.02Z"/><path class="cls-2" d="M139.85,207.98h-2.43s-.08-.03-.08-.08,.03-.08,.08-.08h2.4l1.61-1.61v-.4h-13.63s-.08-.03-.08-.08,.03-.08,.08-.08h13.7s.08,.03,.08,.08v.51s0,.04-.02,.05l-1.66,1.66s-.03,.02-.05,.02Z"/><path class="cls-2" d="M195.15,210.33s-.04,0-.05-.02l-2.65-2.65h-16s-.04,0-.05-.02l-1.99-1.99s-.03-.08,0-.11l.29-.29s.08-.03,.11,0c.03,.03,.03,.08,0,.11l-.24,.24,1.92,1.92h16s.04,0,.05,.02l2.67,2.67s.03,.08,0,.11c-.02,.01-.03,.02-.05,.02Z"/><path class="cls-2" d="M174.45,205.67h-1.65s-.08-.03-.08-.08,.03-.08,.08-.08h1.65s.08,.03,.08,.08-.03,.08-.08,.08Z"/><path class="cls-2" d="M176.3,197.58h-1.14s-.08-.03-.08-.08,.03-.08,.08-.08h1.14s.08,.03,.08,.08-.03,.08-.08,.08Z"/><path class="cls-2" d="M157.03,198.17h-1.11s-.08-.03-.08-.08,.03-.08,.08-.08h1.11s.08,.03,.08,.08-.03,.08-.08,.08Z"/><path class="cls-2" d="M154.3,193.24h-.98s-.08-.03-.08-.08v-.98s.03-.08,.08-.08h.98s.08,.03,.08,.08v.98s-.03,.08-.08,.08Zm-.9-.15h.82v-.82h-.82v.82Z"/><path class="cls-2" d="M154.3,188.95h-.98s-.08-.03-.08-.08v-.98s.03-.08,.08-.08h.98s.08,.03,.08,.08v.98s-.03,.08-.08,.08Zm-.9-.15h.82v-.82h-.82v.82Z"/><path class="cls-2" d="M154.3,184.66h-.98s-.08-.03-.08-.08v-.98s.03-.08,.08-.08h.98s.08,.03,.08,.08v.98s-.03,.08-.08,.08Zm-.9-.15h.82v-.82h-.82v.82Z"/><path class="cls-2" d="M154.3,180.37h-.98s-.08-.03-.08-.08v-.98s.03-.08,.08-.08h.98s.08,.03,.08,.08v.98s-.03,.08-.08,.08Zm-.9-.15h.82v-.82h-.82v.82Z"/><path class="cls-2" d="M154.3,176.08h-.98s-.08-.03-.08-.08v-.98s.03-.08,.08-.08h.98s.08,.03,.08,.08v.98s-.03,.08-.08,.08Zm-.9-.15h.82v-.82h-.82v.82Z"/><rect class="cls-2" x="149.62" y="167.7" width="2.72" height=".32" transform="translate(301.97 335.73) rotate(180)"/><rect class="cls-2" x="142.52" y="167.7" width="2.72" height=".32" transform="translate(287.76 335.73) rotate(180)"/><rect class="cls-2" x="135.41" y="167.7" width="2.72" height=".32" transform="translate(273.55 335.73) rotate(180)"/><rect class="cls-2" x="128.31" y="167.7" width="2.72" height=".32" transform="translate(259.34 335.73) rotate(180)"/><rect class="cls-2" x="117.02" y="146.39" width="1.82" height=".44" transform="translate(235.85 293.21) rotate(180)"/><rect class="cls-2" x="117.02" y="143.34" width="1.82" height=".44" transform="translate(235.85 287.11) rotate(180)"/><rect class="cls-2" x="117.02" y="140.29" width="1.82" height=".44" transform="translate(235.85 281.01) rotate(180)"/><rect class="cls-2" x="117.02" y="137.24" width="1.82" height=".44" transform="translate(235.85 274.91) rotate(180)"/><rect class="cls-2" x="117.02" y="134.19" width="1.82" height=".44" transform="translate(235.85 268.81) rotate(180)"/><rect class="cls-2" x="117.02" y="131.14" width="1.82" height=".44" transform="translate(235.85 262.71) rotate(180)"/><rect class="cls-2" x="117.02" y="128.08" width="1.82" height=".44" transform="translate(235.85 256.6) rotate(180)"/><polygon class="cls-2" points="203.67 129 203.67 175.75 205.49 177.58 205.49 197.47 203.24 199.72 201.29 199.72 192.16 190.59 192.16 186.53 199.14 179.55 199.14 169.57 201.64 167.07 201.64 130.59 200.49 129.44 200.49 122.56 202.24 120.81 203.67 120.81 203.67 129"/><path class="cls-2" d="M203.81,203.76c-.17,0-.31-.14-.31-.31v-1.17c0-.08,.03-.16,.09-.22l3.98-3.98c.06-.06,.14-.09,.22-.09h5.31c.17,0,.31,.14,.31,.31s-.14,.31-.31,.31h-5.18l-3.8,3.8v1.04c0,.17-.14,.31-.31,.31Z"/><path class="cls-2" d="M215.82,212.89s-.08-.02-.11-.05l-9.71-9.71s-.05-.07-.05-.11v-1.28s.02-.08,.05-.11l1.79-1.79c.06-.06,.16-.06,.22,0s.06,.16,0,.22l-1.74,1.74v1.15l9.66,9.66c.06,.06,.06,.16,0,.22-.03,.03-.07,.05-.11,.05Z"/><path class="cls-2" d="M219,216.08c-.08,0-.16-.03-.22-.09l-1.82-1.82c-.12-.12-.12-.32,0-.44s.32-.12,.44,0l1.82,1.82c.12,.12,.12,.32,0,.44-.06,.06-.14,.09-.22,.09Z"/><path class="cls-2" d="M190.83,185.73h-2.93c-.08,0-.16-.03-.22-.09l-33.99-33.99c-.06-.06-.09-.14-.09-.22v-3.96c0-.08,.03-.16,.09-.22l3.12-3.12v-2.05c0-.17,.14-.31,.31-.31s.31,.14,.31,.31v2.18c0,.08-.03,.16-.09,.22l-3.12,3.12v3.71l33.81,33.81h2.68l5.6-5.6v-1.46c0-.17,.14-.31,.31-.31s.31,.14,.31,.31v1.58c0,.08-.03,.16-.09,.22l-5.78,5.78c-.06,.06-.14,.09-.22,.09Z"/><path class="cls-2" d="M156.97,137.98c-.09,0-.15-.07-.15-.15v-11.45l-10.26-10.26h-21.32l-2.02,2.01c-.06,.06-.16,.06-.22,0-.06-.06-.06-.16,0-.22l2.06-2.06s.07-.05,.11-.05h21.45s.08,.02,.11,.05l10.35,10.35s.05,.07,.05,.11v11.52c0,.08-.07,.15-.15,.15Z"/><path class="cls-2" d="M199.04,129.12c-.09,0-.15-.07-.15-.15v-6.91l-6.13-6.13h-7.52l-.91,.91c-.06,.06-.16,.06-.22,0s-.06-.16,0-.22l.95-.95s.07-.05,.11-.05h7.65s.08,.02,.11,.05l6.22,6.22s.05,.07,.05,.11v6.97c0,.08-.07,.15-.15,.15Z"/><path class="cls-2" d="M199.04,132.72c-.17,0-.31-.14-.31-.31v-2.02c0-.17,.14-.31,.31-.31s.31,.14,.31,.31v2.02c0,.17-.14,.31-.31,.31Z"/><path class="cls-2" d="M194,146.67s-.08-.03-.08-.08v-26.67l-1.18-1.18h-1.04v2.07s-.03,.08-.08,.08-.08-.03-.08-.08v-2.15s.03-.08,.08-.08h1.15s.04,0,.05,.02l1.23,1.23s.02,.03,.02,.05v26.7s-.03,.08-.08,.08Z"/><path class="cls-2" d="M191.63,124.16c-.09,0-.15-.07-.15-.15v-1.64c0-.08,.07-.15,.15-.15s.15,.07,.15,.15v1.64c0,.08-.07,.15-.15,.15Z"/><path class="cls-2" d="M189.09,146.67s-.08-.03-.08-.08v-26.67l-1.18-1.18h-1.04v2.07s-.03,.08-.08,.08-.08-.03-.08-.08v-2.15s.03-.08,.08-.08h1.15s.04,0,.05,.02l1.23,1.23s.02,.03,.02,.05v26.7s-.03,.08-.08,.08Z"/><path class="cls-2" d="M186.71,124.16c-.09,0-.15-.07-.15-.15v-1.64c0-.08,.07-.15,.15-.15s.15,.07,.15,.15v1.64c0,.08-.07,.15-.15,.15Z"/><path class="cls-2" d="M184.18,146.67s-.08-.03-.08-.08v-26.67l-1.18-1.18h-1.04v2.07s-.03,.08-.08,.08-.08-.03-.08-.08v-2.15s.03-.08,.08-.08h1.15s.04,0,.05,.02l1.23,1.23s.02,.03,.02,.05v26.7s-.03,.08-.08,.08Z"/><path class="cls-2" d="M181.8,124.16c-.09,0-.15-.07-.15-.15v-1.64c0-.08,.07-.15,.15-.15s.15,.07,.15,.15v1.64c0,.08-.07,.15-.15,.15Z"/><path class="cls-2" d="M179.27,146.67s-.08-.03-.08-.08v-26.67l-1.18-1.18h-1.04v2.07s-.03,.08-.08,.08-.08-.03-.08-.08v-2.15s.03-.08,.08-.08h1.15s.04,0,.05,.02l1.23,1.23s.02,.03,.02,.05v26.7s-.03,.08-.08,.08Z"/><path class="cls-2" d="M176.89,124.16c-.09,0-.15-.07-.15-.15v-1.64c0-.08,.07-.15,.15-.15s.15,.07,.15,.15v1.64c0,.08-.07,.15-.15,.15Z"/><path class="cls-2" d="M174.35,146.67s-.08-.03-.08-.08v-26.67l-1.18-1.18h-1.04v2.07s-.03,.08-.08,.08-.08-.03-.08-.08v-2.15s.03-.08,.08-.08h1.15s.04,0,.05,.02l1.23,1.23s.02,.03,.02,.05v26.7s-.03,.08-.08,.08Z"/><path class="cls-2" d="M171.98,124.16c-.09,0-.15-.07-.15-.15v-1.64c0-.08,.07-.15,.15-.15s.15,.07,.15,.15v1.64c0,.08-.07,.15-.15,.15Z"/><rect class="cls-2" x="193.75" y="148.16" width=".51" height=".52" transform="translate(45.59 342.42) rotate(-90)"/><rect class="cls-2" x="188.83" y="148.16" width=".51" height=".52" transform="translate(40.68 337.51) rotate(-90)"/><rect class="cls-2" x="183.92" y="148.16" width=".51" height=".52" transform="translate(35.76 332.59) rotate(-90)"/><rect class="cls-2" x="179.01" y="148.16" width=".51" height=".52" transform="translate(30.85 327.68) rotate(-90)"/><rect class="cls-2" x="174.1" y="148.16" width=".51" height=".52" transform="translate(25.94 322.77) rotate(-90)"/><path class="cls-2" d="M185.6,179.79s-.08-.02-.11-.05l-27.34-27.34s-.05-.07-.05-.11v-1.98s.02-.08,.05-.11l1.75-1.75s.07-.05,.11-.05h1.81c.09,0,.15,.07,.15,.15s-.07,.15-.15,.15h-1.75l-1.66,1.66v1.85l27.29,27.29c.06,.06,.06,.16,0,.22-.03,.03-.07,.05-.11,.05Z"/><path class="cls-2" d="M145.67,144.45s-.04,0-.05-.02l-3.8-3.8s-.02-.03-.02-.05v-5.18s0-.04,.02-.05l20.6-20.6s.03-.02,.05-.02h11.63s.08,.03,.08,.08-.03,.08-.08,.08h-11.6l-20.56,20.56v5.11l3.78,3.78s.03,.08,0,.11c-.02,.02-.03,.02-.05,.02Z"/><polygon class="cls-2" points="163.47 114.79 155.47 122.79 154.62 122.79 162.47 114.79 163.47 114.79"/><polygon class="cls-2" points="195.33 169.84 186.77 161.28 186.77 159.54 185.82 160.48 185.82 162.28 193.33 169.8 195.33 169.84"/><polygon class="cls-2" points="191.94 169.84 183.39 161.28 183.39 159.54 182.44 160.48 182.44 162.28 189.95 169.8 191.94 169.84"/><polygon class="cls-2" points="188.56 169.84 180.01 161.28 180.01 159.54 179.06 160.48 179.06 162.28 186.57 169.8 188.56 169.84"/><polygon class="cls-2" points="185.18 169.84 176.62 161.28 176.62 159.54 175.68 160.48 175.68 162.28 183.19 169.8 185.18 169.84"/><polygon class="cls-2" points="160.09 127.03 163.92 123.2 164.7 123.2 164.28 122.78 163.47 122.78 160.11 126.14 160.09 127.03"/><polygon class="cls-2" points="160.09 125.52 163.92 121.69 164.7 121.69 164.28 121.27 163.47 121.27 160.11 124.63 160.09 125.52"/><polygon class="cls-2" points="160.09 124.01 163.92 120.18 164.7 120.18 164.28 119.76 163.47 119.76 160.11 123.12 160.09 124.01"/><polygon class="cls-2" points="160.09 122.49 163.92 118.67 164.7 118.67 164.28 118.24 163.47 118.24 160.11 121.6 160.09 122.49"/><rect class="cls-2" x="193.81" y="171.81" width="1.19" height=".28" transform="translate(22.45 366.35) rotate(-90)"/><rect class="cls-2" x="190.36" y="171.81" width="1.19" height=".28" transform="translate(19 362.9) rotate(-90)"/><rect class="cls-2" x="186.91" y="171.81" width="1.19" height=".28" transform="translate(15.56 359.46) rotate(-90)"/><rect class="cls-2" x="183.47" y="171.81" width="1.19" height=".28" transform="translate(12.11 356.01) rotate(-90)"/><path class="cls-2" d="M206.07,165.97s-.04,0-.05-.02l-1.21-1.21s-.02-.03-.02-.05v-21.42s0-.04,.02-.05l2.67-2.67v-21.85l-2.14-2.14h-7.53s-.04,0-.05-.02l-3.68-3.68s-.02-.03-.02-.05v-1.3s.03-.08,.08-.08,.08,.03,.08,.08v1.27l3.63,3.63h7.53s.04,0,.05,.02l2.19,2.19s.02,.03,.02,.05v21.91s0,.04-.02,.05l-2.67,2.67v21.36l1.19,1.19s.03,.08,0,.11c-.02,.02-.03,.02-.05,.02Z"/><polygon class="cls-2" points="207.34 118.45 207.34 133.94 207.52 134.11 207.55 118.66 207.34 118.45"/><path class="cls-2" d="M206.84,119.12s-.04,0-.05-.02l-1.93-1.93h-4.23l-.55,.55v.47s-.03,.08-.08,.08-.08-.03-.08-.08v-.5s0-.04,.02-.05l.59-.59s.03-.02,.05-.02h4.3s.04,0,.05,.02l1.95,1.95s.03,.08,0,.11c-.02,.01-.03,.02-.05,.02Z"/><path class="cls-2" d="M207.18,167.3c-.08,0-.16-.03-.22-.09l-.56-.56c-.12-.12-.12-.32,0-.44s.32-.12,.44,0l.56,.56c.12,.12,.12,.32,0,.44-.06,.06-.14,.09-.22,.09Z"/><path class="cls-2" d="M205.09,162.59h-.23s-.08-.03-.08-.08,.03-.08,.08-.08h.2l.21-.21v-19.45s.03-.08,.08-.08,.08,.03,.08,.08v19.48s0,.04-.02,.05l-.26,.26s-.03,.02-.05,.02Z"/><path class="cls-2" d="M205.37,141.88h-.51s-.08-.03-.08-.08v-13.7s.03-.08,.08-.08,.08,.03,.08,.08v13.63h.4l1.61-1.61v-2.4s.03-.08,.08-.08,.08,.03,.08,.08v2.43s0,.04-.02,.05l-1.66,1.66s-.03,.02-.05,.02Z"/><path class="cls-2" d="M209.38,195.52s-.04,0-.05-.02l-2.67-2.67s-.02-.03-.02-.05v-16l-1.92-1.92-.24,.24s-.08,.03-.11,0-.03-.08,0-.11l.29-.29s.08-.03,.11,0l1.99,1.99s.02,.03,.02,.05v16l2.65,2.65s.03,.08,0,.11c-.02,.01-.03,.02-.05,.02Z"/><path class="cls-2" d="M204.72,174.83s-.08-.03-.08-.08v-1.65s.03-.08,.08-.08,.08,.03,.08,.08v1.65s-.03,.08-.08,.08Z"/><path class="cls-2" d="M196.62,176.68s-.08-.03-.08-.08v-1.14s.03-.08,.08-.08,.08,.03,.08,.08v1.14s-.03,.08-.08,.08Z"/><path class="cls-2" d="M197.21,157.41s-.08-.03-.08-.08v-1.11s.03-.08,.08-.08,.08,.03,.08,.08v1.11s-.03,.08-.08,.08Z"/><path class="cls-2" d="M192.29,154.67h-.98s-.08-.03-.08-.08v-.98s.03-.08,.08-.08h.98s.08,.03,.08,.08v.98s-.03,.08-.08,.08Zm-.9-.15h.82v-.82h-.82v.82Z"/><path class="cls-2" d="M188,154.67h-.98s-.08-.03-.08-.08v-.98s.03-.08,.08-.08h.98s.08,.03,.08,.08v.98s-.03,.08-.08,.08Zm-.9-.15h.82v-.82h-.82v.82Z"/><path class="cls-2" d="M183.7,154.67h-.98s-.08-.03-.08-.08v-.98s.03-.08,.08-.08h.98s.08,.03,.08,.08v.98s-.03,.08-.08,.08Zm-.9-.15h.82v-.82h-.82v.82Z"/><path class="cls-2" d="M179.41,154.67h-.98s-.08-.03-.08-.08v-.98s.03-.08,.08-.08h.98s.08,.03,.08,.08v.98s-.03,.08-.08,.08Zm-.9-.15h.82v-.82h-.82v.82Z"/><path class="cls-2" d="M175.12,154.67h-.98s-.08-.03-.08-.08v-.98s.03-.08,.08-.08h.98s.08,.03,.08,.08v.98s-.03,.08-.08,.08Zm-.9-.15h.82v-.82h-.82v.82Z"/><rect class="cls-2" x="165.62" y="151.13" width="2.72" height=".32" transform="translate(15.7 318.27) rotate(-90)"/><rect class="cls-2" x="165.62" y="144.02" width="2.72" height=".32" transform="translate(22.8 311.16) rotate(-90)"/><rect class="cls-2" x="165.62" y="136.91" width="2.72" height=".32" transform="translate(29.91 304.06) rotate(-90)"/><rect class="cls-2" x="165.62" y="129.81" width="2.72" height=".32" transform="translate(37.02 296.95) rotate(-90)"/><rect class="cls-2" x="144.82" y="118.01" width="1.82" height=".44" transform="translate(27.5 263.95) rotate(-90)"/><rect class="cls-2" x="141.76" y="118.01" width="1.82" height=".44" transform="translate(24.45 260.9) rotate(-90)"/><rect class="cls-2" x="138.71" y="118.01" width="1.82" height=".44" transform="translate(21.4 257.85) rotate(-90)"/><rect class="cls-2" x="135.66" y="118.01" width="1.82" height=".44" transform="translate(18.35 254.8) rotate(-90)"/><rect class="cls-2" x="132.61" y="118.01" width="1.82" height=".44" transform="translate(15.3 251.75) rotate(-90)"/><rect class="cls-2" x="129.56" y="118.01" width="1.82" height=".44" transform="translate(12.25 248.7) rotate(-90)"/><rect class="cls-2" x="126.51" y="118.01" width="1.82" height=".44" transform="translate(9.2 245.65) rotate(-90)"/><polygon class="cls-2" points="90.61 204.55 43.86 204.55 42.04 206.37 22.15 206.37 19.89 204.12 19.89 202.17 29.02 193.04 33.08 193.04 40.06 200.02 50.04 200.02 52.54 202.52 89.03 202.52 90.18 201.37 97.05 201.37 98.8 203.12 98.8 204.55 90.61 204.55"/><path class="cls-2" d="M21.31,214.29c-.17,0-.31-.14-.31-.31v-5.18l-3.8-3.8h-1.04c-.17,0-.31-.14-.31-.31s.14-.31,.31-.31h1.17c.08,0,.16,.03,.22,.09l3.98,3.98c.06,.06,.09,.14,.09,.22v5.31c0,.17-.14,.31-.31,.31Z"/><path class="cls-2" d="M6.88,216.86s-.08-.02-.11-.05c-.06-.06-.06-.16,0-.22l9.71-9.71s.07-.05,.11-.05h1.28s.08,.02,.11,.05l1.79,1.79c.06,.06,.06,.16,0,.22s-.16,.06-.22,0l-1.74-1.74h-1.15l-9.66,9.66s-.07,.05-.11,.05Z"/><path class="cls-2" d="M3.84,220.19c-.08,0-.16-.03-.22-.09-.12-.12-.12-.32,0-.44l1.82-1.82c.12-.12,.32-.12,.44,0s.12,.32,0,.44l-1.82,1.82c-.06,.06-.14,.09-.22,.09Z"/><path class="cls-2" d="M41.56,197.81h-1.58c-.08,0-.16-.03-.22-.09l-5.78-5.78c-.06-.06-.09-.14-.09-.22v-2.93c0-.08,.03-.16,.09-.22l33.99-33.99c.06-.06,.14-.09,.22-.09h3.96c.08,0,.16,.03,.22,.09l3.12,3.12h2.05c.17,0,.31,.14,.31,.31s-.14,.31-.31,.31h-2.18c-.08,0-.16-.03-.22-.09l-3.12-3.12h-3.71l-33.81,33.81v2.68l5.6,5.6h1.46c.17,0,.31,.14,.31,.31s-.14,.31-.31,.31Z"/><path class="cls-2" d="M93.3,158.01h-11.52c-.09,0-.15-.07-.15-.15s.07-.15,.15-.15h11.45l10.26-10.26v-21.32l-2.02-2.02c-.06-.06-.06-.16,0-.22s.16-.06,.22,0l2.06,2.06s.05,.07,.05,.11v21.45s-.02,.08-.05,.11l-10.35,10.35s-.07,.05-.11,.05Z"/><path class="cls-2" d="M97.62,200.07h-6.97c-.09,0-.15-.07-.15-.15s.07-.15,.15-.15h6.91l6.13-6.13v-7.52l-.91-.91c-.06-.06-.06-.16,0-.22s.16-.06,.22,0l.95,.95s.05,.07,.05,.11v7.65s-.02,.08-.05,.11l-6.22,6.22s-.07,.05-.11,.05Z"/><path class="cls-2" d="M89.22,200.22h-2.02c-.17,0-.31-.14-.31-.31s.14-.31,.31-.31h2.02c.17,0,.31,.14,.31,.31s-.14,.31-.31,.31Z"/><path class="cls-2" d="M99.72,194.96h-26.7s-.08-.03-.08-.08,.03-.08,.08-.08h26.67l1.18-1.18v-1.04h-2.07s-.08-.03-.08-.08,.03-.08,.08-.08h2.15s.08,.03,.08,.08v1.15s0,.04-.02,.05l-1.23,1.23s-.03,.02-.05,.02Z"/><path class="cls-2" d="M97.25,192.66h-1.64c-.09,0-.15-.07-.15-.15s.07-.15,.15-.15h1.64c.09,0,.15,.07,.15,.15s-.07,.15-.15,.15Z"/><path class="cls-2" d="M99.72,190.05h-26.7s-.08-.03-.08-.08,.03-.08,.08-.08h26.67l1.18-1.18v-1.04h-2.07s-.08-.03-.08-.08,.03-.08,.08-.08h2.15s.08,.03,.08,.08v1.15s0,.04-.02,.05l-1.23,1.23s-.03,.02-.05,.02Z"/><path class="cls-2" d="M97.25,187.75h-1.64c-.09,0-.15-.07-.15-.15s.07-.15,.15-.15h1.64c.09,0,.15,.07,.15,.15s-.07,.15-.15,.15Z"/><path class="cls-2" d="M99.72,185.14h-26.7s-.08-.03-.08-.08,.03-.08,.08-.08h26.67l1.18-1.18v-1.04h-2.07s-.08-.03-.08-.08,.03-.08,.08-.08h2.15s.08,.03,.08,.08v1.15s0,.04-.02,.05l-1.23,1.23s-.03,.02-.05,.02Z"/><path class="cls-2" d="M97.25,182.84h-1.64c-.09,0-.15-.07-.15-.15s.07-.15,.15-.15h1.64c.09,0,.15,.07,.15,.15s-.07,.15-.15,.15Z"/><path class="cls-2" d="M99.72,180.22h-26.7s-.08-.03-.08-.08,.03-.08,.08-.08h26.67l1.18-1.18v-1.04h-2.07s-.08-.03-.08-.08,.03-.08,.08-.08h2.15s.08,.03,.08,.08v1.15s0,.04-.02,.05l-1.23,1.23s-.03,.02-.05,.02Z"/><path class="cls-2" d="M97.25,177.92h-1.64c-.09,0-.15-.07-.15-.15s.07-.15,.15-.15h1.64c.09,0,.15,.07,.15,.15s-.07,.15-.15,.15Z"/><path class="cls-2" d="M99.72,175.31h-26.7s-.08-.03-.08-.08,.03-.08,.08-.08h26.67l1.18-1.18v-1.04h-2.07s-.08-.03-.08-.08,.03-.08,.08-.08h2.15s.08,.03,.08,.08v1.15s0,.04-.02,.05l-1.23,1.23s-.03,.02-.05,.02Z"/><path class="cls-2" d="M97.25,173.01h-1.64c-.09,0-.15-.07-.15-.15s.07-.15,.15-.15h1.64c.09,0,.15,.07,.15,.15s-.07,.15-.15,.15Z"/><rect class="cls-2" x="70.94" y="194.63" width=".52" height=".52"/><rect class="cls-2" x="70.94" y="189.71" width=".52" height=".52"/><rect class="cls-2" x="70.94" y="184.8" width=".52" height=".52"/><rect class="cls-2" x="70.94" y="179.89" width=".52" height=".52"/><rect class="cls-2" x="70.94" y="174.98" width=".52" height=".52"/><path class="cls-2" d="M39.97,186.64s-.08-.01-.11-.05c-.06-.06-.06-.16,0-.22l27.34-27.34s.07-.05,.11-.05h1.98s.08,.02,.11,.05l1.75,1.75s.05,.07,.05,.11v1.81c0,.08-.07,.15-.15,.15s-.15-.07-.15-.15v-1.75l-1.66-1.66h-1.85l-27.29,27.29s-.07,.05-.11,.05Z"/><path class="cls-2" d="M104.82,175.05s-.08-.03-.08-.08v-11.6l-20.56-20.56h-5.11l-3.78,3.78s-.08,.03-.11,0-.03-.08,0-.11l3.8-3.8s.03-.02,.05-.02h5.18s.04,0,.05,.02l20.6,20.6s.02,.03,.02,.05v11.63s-.03,.08-.08,.08Z"/><polygon class="cls-2" points="104.82 164.35 96.82 156.35 96.82 155.5 104.82 163.35 104.82 164.35"/><polygon class="cls-2" points="49.77 196.21 58.33 187.65 60.08 187.65 59.13 186.7 57.33 186.7 49.82 194.21 49.77 196.21"/><polygon class="cls-2" points="49.77 192.82 58.33 184.27 60.08 184.27 59.13 183.32 57.33 183.32 49.82 190.83 49.77 192.82"/><polygon class="cls-2" points="49.77 189.44 58.33 180.89 60.08 180.89 59.13 179.94 57.33 179.94 49.82 187.45 49.77 189.44"/><polygon class="cls-2" points="49.77 186.06 58.33 177.5 60.08 177.5 59.13 176.56 57.33 176.56 49.82 184.07 49.77 186.06"/><polygon class="cls-2" points="92.58 160.97 96.41 164.8 96.41 165.58 96.83 165.16 96.83 164.35 93.47 160.99 92.58 160.97"/><polygon class="cls-2" points="94.09 160.97 97.92 164.8 97.92 165.58 98.34 165.16 98.34 164.35 94.98 160.99 94.09 160.97"/><polygon class="cls-2" points="95.6 160.97 99.43 164.8 99.43 165.58 99.86 165.16 99.86 164.35 96.5 160.99 95.6 160.97"/><polygon class="cls-2" points="97.12 160.97 100.95 164.8 100.95 165.58 101.37 165.16 101.37 164.35 98.01 160.99 97.12 160.97"/><rect class="cls-2" x="47.07" y="195.14" width="1.19" height=".28"/><rect class="cls-2" x="47.07" y="191.69" width="1.19" height=".28"/><rect class="cls-2" x="47.07" y="188.25" width="1.19" height=".28"/><rect class="cls-2" x="47.07" y="184.8" width="1.19" height=".28"/><path class="cls-2" d="M100.95,208.51h-21.91s-.04,0-.05-.02l-2.67-2.67h-21.36l-1.19,1.19s-.08,.03-.11,0-.03-.08,0-.11l1.21-1.21s.03-.02,.05-.02h21.42s.04,0,.05,.02l2.67,2.67h21.85l2.14-2.14v-7.53s0-.04,.02-.05l3.68-3.68s.03-.02,.05-.02h1.3s.08,.03,.08,.08-.03,.08-.08,.08h-1.27l-3.63,3.63v7.53s0,.04-.02,.05l-2.19,2.19s-.03,.02-.05,.02Z"/><polygon class="cls-2" points="101.16 208.22 85.67 208.22 85.5 208.4 100.95 208.43 101.16 208.22"/><path class="cls-2" d="M100.57,207.8s-.04,0-.05-.02c-.03-.03-.03-.08,0-.11l1.93-1.93v-4.23l-.55-.55h-.47s-.08-.03-.08-.08,.03-.08,.08-.08h.5s.04,0,.05,.02l.59,.59s.02,.03,.02,.05v4.3s0,.04-.02,.05l-1.95,1.95s-.03,.02-.05,.02Z"/><path class="cls-2" d="M52.62,208.37c-.08,0-.16-.03-.22-.09-.12-.12-.12-.32,0-.44l.56-.56c.12-.12,.32-.12,.44,0,.12,.12,.12,.32,0,.44l-.56,.56c-.06,.06-.14,.09-.22,.09Z"/><path class="cls-2" d="M76.84,206.31h-19.48s-.04,0-.05-.02l-.26-.26s-.02-.03-.02-.05v-.23s.03-.08,.08-.08,.08,.03,.08,.08v.2l.21,.21h19.45s.08,.03,.08,.08-.03,.08-.08,.08Z"/><path class="cls-2" d="M81.89,207.98h-2.43s-.04,0-.05-.02l-1.66-1.66s-.02-.03-.02-.05v-.51s.03-.08,.08-.08h13.7s.08,.03,.08,.08-.03,.08-.08,.08h-13.62v.4l1.61,1.61h2.4s.08,.03,.08,.08-.03,.08-.08,.08Z"/><path class="cls-2" d="M24.17,210.33s-.04,0-.05-.02c-.03-.03-.03-.08,0-.11l2.67-2.67s.03-.02,.05-.02h16l1.92-1.92-.24-.24s-.03-.08,0-.11c.03-.03,.08-.03,.11,0l.29,.29s.02,.03,.02,.05,0,.04-.02,.05l-1.99,1.99s-.03,.02-.05,.02H26.87l-2.65,2.65s-.03,.02-.05,.02Z"/><path class="cls-2" d="M46.51,205.67h-1.65s-.08-.03-.08-.08,.03-.08,.08-.08h1.65s.08,.03,.08,.08-.03,.08-.08,.08Z"/><path class="cls-2" d="M44.15,197.58h-1.14s-.08-.03-.08-.08,.03-.08,.08-.08h1.14s.08,.03,.08,.08-.03,.08-.08,.08Z"/><path class="cls-2" d="M63.39,198.17h-1.11s-.08-.03-.08-.08,.03-.08,.08-.08h1.11s.08,.03,.08,.08-.03,.08-.08,.08Z"/><path class="cls-2" d="M65.99,193.24h-.98s-.08-.03-.08-.08v-.98s.03-.08,.08-.08h.98s.08,.03,.08,.08v.98s-.03,.08-.08,.08Zm-.9-.15h.82v-.82h-.82v.82Z"/><path class="cls-2" d="M65.99,188.95h-.98s-.08-.03-.08-.08v-.98s.03-.08,.08-.08h.98s.08,.03,.08,.08v.98s-.03,.08-.08,.08Zm-.9-.15h.82v-.82h-.82v.82Z"/><path class="cls-2" d="M65.99,184.66h-.98s-.08-.03-.08-.08v-.98s.03-.08,.08-.08h.98s.08,.03,.08,.08v.98s-.03,.08-.08,.08Zm-.9-.15h.82v-.82h-.82v.82Z"/><path class="cls-2" d="M65.99,180.37h-.98s-.08-.03-.08-.08v-.98s.03-.08,.08-.08h.98s.08,.03,.08,.08v.98s-.03,.08-.08,.08Zm-.9-.15h.82v-.82h-.82v.82Z"/><path class="cls-2" d="M65.99,176.08h-.98s-.08-.03-.08-.08v-.98s.03-.08,.08-.08h.98s.08,.03,.08,.08v.98s-.03,.08-.08,.08Zm-.9-.15h.82v-.82h-.82v.82Z"/><rect class="cls-2" x="66.97" y="167.7" width="2.72" height=".32"/><rect class="cls-2" x="74.07" y="167.7" width="2.72" height=".32"/><rect class="cls-2" x="81.18" y="167.7" width="2.72" height=".32"/><rect class="cls-2" x="88.28" y="167.7" width="2.72" height=".32"/><rect class="cls-2" x="100.48" y="146.39" width="1.82" height=".44"/><rect class="cls-2" x="100.48" y="143.34" width="1.82" height=".44"/><rect class="cls-2" x="100.48" y="140.29" width="1.82" height=".44"/><rect class="cls-2" x="100.48" y="137.24" width="1.82" height=".44"/><rect class="cls-2" x="100.48" y="134.19" width="1.82" height=".44"/><rect class="cls-2" x="100.48" y="131.14" width="1.82" height=".44"/><rect class="cls-2" x="100.48" y="128.08" width="1.82" height=".44"/><polygon class="cls-2" points="15.64 129 15.64 175.75 13.82 177.58 13.82 197.47 16.08 199.72 18.02 199.72 27.15 190.59 27.15 186.53 20.17 179.55 20.17 169.57 17.67 167.07 17.67 130.59 18.82 129.44 18.82 122.56 17.07 120.81 15.64 120.81 15.64 129"/><path class="cls-2" d="M15.5,203.76c-.17,0-.31-.14-.31-.31v-1.04l-3.8-3.8H6.21c-.17,0-.31-.14-.31-.31s.14-.31,.31-.31h5.31c.08,0,.16,.03,.22,.09l3.98,3.98c.06,.06,.09,.14,.09,.22v1.17c0,.17-.14,.31-.31,.31Z"/><path class="cls-2" d="M3.49,212.89s-.08-.02-.11-.05c-.06-.06-.06-.16,0-.22l9.66-9.66v-1.15l-1.74-1.74c-.06-.06-.06-.16,0-.22s.16-.06,.22,0l1.79,1.79s.05,.07,.05,.11v1.28s-.02,.08-.05,.11l-9.71,9.71s-.07,.05-.11,.05Z"/><path class="cls-2" d="M.31,216.08c-.08,0-.16-.03-.22-.09-.12-.12-.12-.32,0-.44l1.82-1.82c.12-.12,.32-.12,.44,0s.12,.32,0,.44l-1.82,1.82c-.06,.06-.14,.09-.22,.09Z"/><path class="cls-2" d="M31.41,185.73h-2.93c-.08,0-.16-.03-.22-.09l-5.78-5.78c-.06-.06-.09-.14-.09-.22v-1.58c0-.17,.14-.31,.31-.31s.31,.14,.31,.31v1.46l5.6,5.6h2.68l33.81-33.81v-3.71l-3.12-3.12c-.06-.06-.09-.14-.09-.22v-2.18c0-.17,.14-.31,.31-.31s.31,.14,.31,.31v2.05l3.12,3.12c.06,.06,.09,.14,.09,.22v3.96c0,.08-.03,.16-.09,.22l-33.99,33.99c-.06,.06-.14,.09-.22,.09Z"/><path class="cls-2" d="M62.34,137.98c-.09,0-.15-.07-.15-.15v-11.52s.02-.08,.05-.11l10.35-10.35s.07-.05,.11-.05h21.45s.08,.02,.11,.05l2.06,2.06c.06,.06,.06,.16,0,.22-.06,.06-.16,.06-.22,0l-2.02-2.01h-21.32l-10.26,10.26v11.45c0,.08-.07,.15-.15,.15Z"/><path class="cls-2" d="M20.28,129.12c-.09,0-.15-.07-.15-.15v-6.97s.02-.08,.05-.11l6.22-6.22s.07-.05,.11-.05h7.65s.08,.02,.11,.05l.95,.95c.06,.06,.06,.16,0,.22s-.16,.06-.22,0l-.91-.91h-7.52l-6.13,6.13v6.91c0,.08-.07,.15-.15,.15Z"/><path class="cls-2" d="M20.28,132.72c-.17,0-.31-.14-.31-.31v-2.02c0-.17,.14-.31,.31-.31s.31,.14,.31,.31v2.02c0,.17-.14,.31-.31,.31Z"/><path class="cls-2" d="M25.31,146.67s-.08-.03-.08-.08v-26.7s0-.04,.02-.05l1.23-1.23s.03-.02,.05-.02h1.15s.08,.03,.08,.08v2.15s-.03,.08-.08,.08-.08-.03-.08-.08v-2.07h-1.04l-1.18,1.18v26.67s-.03,.08-.08,.08Z"/><path class="cls-2" d="M27.69,124.16c-.09,0-.15-.07-.15-.15v-1.64c0-.08,.07-.15,.15-.15s.15,.07,.15,.15v1.64c0,.08-.07,.15-.15,.15Z"/><path class="cls-2" d="M30.22,146.67s-.08-.03-.08-.08v-26.7s0-.04,.02-.05l1.23-1.23s.03-.02,.05-.02h1.15s.08,.03,.08,.08v2.15s-.03,.08-.08,.08-.08-.03-.08-.08v-2.07h-1.04l-1.18,1.18v26.67s-.03,.08-.08,.08Z"/><path class="cls-2" d="M32.6,124.16c-.09,0-.15-.07-.15-.15v-1.64c0-.08,.07-.15,.15-.15s.15,.07,.15,.15v1.64c0,.08-.07,.15-.15,.15Z"/><path class="cls-2" d="M35.13,146.67s-.08-.03-.08-.08v-26.7s0-.04,.02-.05l1.23-1.23s.03-.02,.05-.02h1.15s.08,.03,.08,.08v2.15s-.03,.08-.08,.08-.08-.03-.08-.08v-2.07h-1.04l-1.18,1.18v26.67s-.03,.08-.08,.08Z"/><path class="cls-2" d="M37.51,124.16c-.09,0-.15-.07-.15-.15v-1.64c0-.08,.07-.15,.15-.15s.15,.07,.15,.15v1.64c0,.08-.07,.15-.15,.15Z"/><path class="cls-2" d="M40.05,146.67s-.08-.03-.08-.08v-26.7s0-.04,.02-.05l1.23-1.23s.03-.02,.05-.02h1.15s.08,.03,.08,.08v2.15s-.03,.08-.08,.08-.08-.03-.08-.08v-2.07h-1.04l-1.18,1.18v26.67s-.03,.08-.08,.08Z"/><path class="cls-2" d="M42.42,124.16c-.09,0-.15-.07-.15-.15v-1.64c0-.08,.07-.15,.15-.15s.15,.07,.15,.15v1.64c0,.08-.07,.15-.15,.15Z"/><path class="cls-2" d="M44.96,146.67s-.08-.03-.08-.08v-26.7s0-.04,.02-.05l1.23-1.23s.03-.02,.05-.02h1.15s.08,.03,.08,.08v2.15s-.03,.08-.08,.08-.08-.03-.08-.08v-2.07h-1.04l-1.18,1.18v26.67s-.03,.08-.08,.08Z"/><path class="cls-2" d="M47.34,124.16c-.09,0-.15-.07-.15-.15v-1.64c0-.08,.07-.15,.15-.15s.15,.07,.15,.15v1.64c0,.08-.07,.15-.15,.15Z"/><rect class="cls-2" x="25.05" y="148.16" width=".51" height=".52" transform="translate(-123.11 173.72) rotate(-90)"/><rect class="cls-2" x="29.96" y="148.16" width=".51" height=".51" transform="translate(-118.19 178.64) rotate(-90)"/><rect class="cls-2" x="34.88" y="148.16" width=".51" height=".52" transform="translate(-113.28 183.55) rotate(-90)"/><rect class="cls-2" x="39.79" y="148.16" width=".51" height=".52" transform="translate(-108.37 188.46) rotate(-90)"/><rect class="cls-2" x="44.7" y="148.16" width=".51" height=".52" transform="translate(-103.46 193.38) rotate(-90)"/><path class="cls-2" d="M33.71,179.79s-.08-.02-.11-.05c-.06-.06-.06-.16,0-.22l27.29-27.29v-1.85l-1.66-1.66h-1.75c-.09,0-.15-.07-.15-.15s.07-.15,.15-.15h1.81s.08,.02,.11,.05l1.75,1.75s.05,.07,.05,.11v1.98s-.02,.08-.05,.11l-27.34,27.34s-.07,.05-.11,.05Z"/><path class="cls-2" d="M73.65,144.45s-.04,0-.05-.02c-.03-.03-.03-.08,0-.11l3.78-3.78v-5.11l-20.56-20.56h-11.6s-.08-.03-.08-.08,.03-.08,.08-.08h11.63s.04,0,.05,.02l20.6,20.6s.02,.03,.02,.05v5.18s0,.04-.02,.05l-3.8,3.8s-.03,.02-.05,.02Z"/><polygon class="cls-2" points="55.84 114.79 63.84 122.79 64.69 122.79 56.85 114.79 55.84 114.79"/><polygon class="cls-2" points="23.99 169.84 32.55 161.28 32.55 159.54 33.49 160.48 33.49 162.28 25.98 169.8 23.99 169.84"/><polygon class="cls-2" points="27.37 169.84 35.93 161.28 35.93 159.54 36.87 160.48 36.87 162.28 29.36 169.8 27.37 169.84"/><polygon class="cls-2" points="30.75 169.84 39.31 161.28 39.31 159.54 40.25 160.48 40.25 162.28 32.74 169.8 30.75 169.84"/><polygon class="cls-2" points="34.13 169.84 42.69 161.28 42.69 159.54 43.64 160.48 43.64 162.28 36.12 169.8 34.13 169.84"/><polygon class="cls-2" points="59.22 127.03 55.39 123.2 54.61 123.2 55.04 122.78 55.84 122.78 59.2 126.14 59.22 127.03"/><polygon class="cls-2" points="59.22 125.52 55.39 121.69 54.61 121.69 55.04 121.27 55.84 121.27 59.2 124.63 59.22 125.52"/><polygon class="cls-2" points="59.22 124.01 55.39 120.18 54.61 120.18 55.04 119.76 55.84 119.76 59.2 123.12 59.22 124.01"/><polygon class="cls-2" points="59.22 122.49 55.39 118.67 54.61 118.67 55.04 118.24 55.84 118.24 59.2 121.6 59.22 122.49"/><rect class="cls-2" x="24.32" y="171.81" width="1.19" height=".28" transform="translate(-147.04 196.86) rotate(-90)"/><rect class="cls-2" x="27.77" y="171.81" width="1.19" height=".28" transform="translate(-143.59 200.31) rotate(-90)"/><rect class="cls-2" x="31.21" y="171.81" width="1.19" height=".28" transform="translate(-140.14 203.76) rotate(-90)"/><rect class="cls-2" x="34.66" y="171.81" width="1.19" height=".28" transform="translate(-136.7 207.2) rotate(-90)"/><path class="cls-2" d="M13.24,165.97s-.04,0-.05-.02c-.03-.03-.03-.08,0-.11l1.19-1.19v-21.36l-2.67-2.67s-.02-.03-.02-.05v-21.91s0-.04,.02-.05l2.19-2.19s.03-.02,.05-.02h7.53l3.63-3.63v-1.27s.03-.08,.08-.08,.08,.03,.08,.08v1.3s0,.04-.02,.05l-3.68,3.68s-.03,.02-.05,.02h-7.53l-2.14,2.14v21.85l2.67,2.67s.02,.03,.02,.05v21.42s0,.04-.02,.05l-1.21,1.21s-.03,.02-.05,.02Z"/><polygon class="cls-2" points="11.97 118.45 11.97 133.94 11.8 134.11 11.76 118.66 11.97 118.45"/><path class="cls-2" d="M12.47,119.12s-.04,0-.05-.02c-.03-.03-.03-.08,0-.11l1.95-1.95s.03-.02,.05-.02h4.3s.04,0,.05,.02l.59,.59s.02,.03,.02,.05v.5s-.03,.08-.08,.08-.08-.03-.08-.08v-.47l-.55-.55h-4.24l-1.93,1.93s-.03,.02-.05,.02Z"/><path class="cls-2" d="M12.14,167.3c-.08,0-.16-.03-.22-.09-.12-.12-.12-.32,0-.44l.56-.56c.12-.12,.32-.12,.44,0s.12,.32,0,.44l-.56,.56c-.06,.06-.14,.09-.22,.09Z"/><path class="cls-2" d="M14.45,162.59h-.23s-.04,0-.05-.02l-.26-.26s-.02-.03-.02-.05v-19.48s.03-.08,.08-.08,.08,.03,.08,.08v19.45l.21,.21h.2s.08,.03,.08,.08-.03,.08-.08,.08Z"/><path class="cls-2" d="M14.45,141.88h-.51s-.04,0-.05-.02l-1.66-1.66s-.02-.03-.02-.05v-2.43s.03-.08,.08-.08,.08,.03,.08,.08v2.4l1.61,1.61h.4v-13.63s.03-.08,.08-.08,.08,.03,.08,.08v13.7s-.03,.08-.08,.08Z"/><path class="cls-2" d="M9.94,195.52s-.04,0-.05-.02c-.03-.03-.03-.08,0-.11l2.65-2.65v-16s0-.04,.02-.05l1.99-1.99s.03-.02,.05-.02h0s.04,0,.05,.02l.29,.29s.03,.08,0,.11c-.03,.03-.08,.03-.11,0l-.24-.24-1.92,1.92v16s0,.04-.02,.05l-2.67,2.67s-.03,.02-.05,.02Z"/><path class="cls-2" d="M14.6,174.83s-.08-.03-.08-.08v-1.65s.03-.08,.08-.08,.08,.03,.08,.08v1.65s-.03,.08-.08,.08Z"/><path class="cls-2" d="M22.69,176.68s-.08-.03-.08-.08v-1.14s.03-.08,.08-.08,.08,.03,.08,.08v1.14s-.03,.08-.08,.08Z"/><path class="cls-2" d="M22.1,157.41s-.08-.03-.08-.08v-1.11s.03-.08,.08-.08,.08,.03,.08,.08v1.11s-.03,.08-.08,.08Z"/><path class="cls-2" d="M28,154.67h-.98s-.08-.03-.08-.08v-.98s.03-.08,.08-.08h.98s.08,.03,.08,.08v.98s-.03,.08-.08,.08Zm-.9-.15h.82v-.82h-.82v.82Z"/><path class="cls-2" d="M32.3,154.67h-.98s-.08-.03-.08-.08v-.98s.03-.08,.08-.08h.98s.08,.03,.08,.08v.98s-.03,.08-.08,.08Zm-.9-.15h.82v-.82h-.82v.82Z"/><path class="cls-2" d="M36.59,154.67h-.98s-.08-.03-.08-.08v-.98s.03-.08,.08-.08h.98s.08,.03,.08,.08v.98s-.03,.08-.08,.08Zm-.9-.15h.82v-.82h-.82v.82Z"/><path class="cls-2" d="M40.88,154.67h-.98s-.08-.03-.08-.08v-.98s.03-.08,.08-.08h.98s.08,.03,.08,.08v.98s-.03,.08-.08,.08Zm-.9-.15h.82v-.82h-.82v.82Z"/><path class="cls-2" d="M45.17,154.67h-.98s-.08-.03-.08-.08v-.98s.03-.08,.08-.08h.98s.08,.03,.08,.08v.98s-.03,.08-.08,.08Zm-.9-.15h.82v-.82h-.82v.82Z"/><rect class="cls-2" x="50.97" y="151.13" width="2.72" height=".32" transform="translate(-98.95 203.61) rotate(-90)"/><rect class="cls-2" x="50.97" y="144.02" width="2.72" height=".32" transform="translate(-91.85 196.51) rotate(-90)"/><rect class="cls-2" x="50.97" y="136.91" width="2.72" height=".32" transform="translate(-84.74 189.4) rotate(-90)"/><rect class="cls-2" x="50.97" y="129.81" width="2.72" height=".32" transform="translate(-77.64 182.3) rotate(-90)"/><rect class="cls-2" x="72.68" y="118.01" width="1.82" height=".44" transform="translate(-44.64 191.81) rotate(-90)"/><rect class="cls-2" x="75.73" y="118.01" width="1.82" height=".44" transform="translate(-41.59 194.86) rotate(-90)"/><rect class="cls-2" x="78.78" y="118.01" width="1.82" height=".44" transform="translate(-38.54 197.91) rotate(-90)"/><rect class="cls-2" x="81.83" y="118.01" width="1.82" height=".44" transform="translate(-35.49 200.96) rotate(-90)"/><rect class="cls-2" x="84.88" y="118.01" width="1.82" height=".44" transform="translate(-32.44 204.01) rotate(-90)"/><rect class="cls-2" x="87.93" y="118.01" width="1.82" height=".44" transform="translate(-29.39 207.07) rotate(-90)"/><rect class="cls-2" x="90.98" y="118.01" width="1.82" height=".44" transform="translate(-26.33 210.12) rotate(-90)"/></g><g class="cls-1"><rect class="cls-2" x="21.18" y="21.1" width="175.96" height="9.41"/><rect class="cls-2" x="21.18" y="36.37" width="175.96" height="9.41"/><rect class="cls-2" x="21.18" y="51.63" width="175.96" height="9.41"/><rect class="cls-2" x="21.18" y="66.89" width="175.96" height="9.41"/><rect class="cls-2" x="21.18" y="82.15" width="175.96" height="9.41"/><rect class="cls-2" x="21.18" y="97.41" width="175.96" height="9.41"/><rect class="cls-2" x="21.18" y="112.67" width="175.96" height="9.41"/><rect class="cls-2" x="21.18" y="127.93" width="175.96" height="9.41"/><rect class="cls-2" x="21.18" y="143.19" width="175.96" height="9.41"/><rect class="cls-2" x="21.18" y="158.45" width="175.96" height="9.41"/><rect class="cls-2" x="21.18" y="173.71" width="175.96" height="9.41"/><rect class="cls-2" x="21.18" y="188.97" width="175.96" height="9.41"/></g></g></g></svg>