<svg width="362" height="362" xmlns="http://www.w3.org/2000/svg" xmlns:xlink="http://www.w3.org/1999/xlink" xml:space="preserve" overflow="hidden"><defs><filter id="fx0" x="-10%" y="-10%" width="120%" height="120%" filterUnits="userSpaceOnUse" primitiveUnits="userSpaceOnUse"><feComponentTransfer color-interpolation-filters="sRGB"><feFuncR type="discrete" tableValues="0.000000 0.000000"/><feFuncG type="discrete" tableValues="0.000000 0.000000"/><feFuncB type="discrete" tableValues="0.000000 0.000000"/><feFuncA type="linear" slope="0.400000" intercept="0.000000"/></feComponentTransfer><feGaussianBlur stdDeviation="6.111111 6.111111"/></filter><filter id="fx1" x="-10%" y="-10%" width="120%" height="120%" filterUnits="userSpaceOnUse" primitiveUnits="userSpaceOnUse"><feComponentTransfer color-interpolation-filters="sRGB"><feFuncR type="discrete" tableValues="1.000000 1.000000"/><feFuncG type="discrete" tableValues="1.000000 1.000000"/><feFuncB type="discrete" tableValues="1.000000 1.000000"/><feFuncA type="linear" slope="0.890196" intercept="0.000000"/></feComponentTransfer><feGaussianBlur stdDeviation="13.397334 13.397334"/></filter><clipPath id="clip2"><rect x="114" y="1269" width="362" height="362"/></clipPath><clipPath id="clip3"><rect x="0.666672" y="1.21619" width="151.869" height="151.117"/></clipPath><clipPath id="clip4"><rect x="0" y="0" width="154" height="154"/></clipPath><clipPath id="clip5"><rect x="19" y="19" width="116" height="115"/></clipPath><clipPath id="clip6"><rect x="19" y="19" width="116" height="115"/></clipPath><clipPath id="clip7"><rect x="19" y="19" width="116" height="115"/></clipPath><clipPath id="clip8"><rect x="239" y="1381" width="116" height="115"/></clipPath><clipPath id="clip9"><rect x="239" y="1381" width="116" height="115"/></clipPath><clipPath id="clip10"><rect x="239" y="1381" width="116" height="115"/></clipPath><clipPath id="clip11"><rect x="-0.143707" y="0.211304" width="118.85" height="118.707"/></clipPath><clipPath id="clip12"><rect x="0" y="0" width="119" height="119"/></clipPath><clipPath id="clip13"><rect x="40" y="40" width="39" height="39"/></clipPath><clipPath id="clip14"><rect x="40" y="40" width="39" height="39"/></clipPath><clipPath id="clip15"><rect x="40" y="40" width="39" height="39"/></clipPath><clipPath id="clip16"><rect x="239" y="1381" width="116" height="115"/></clipPath><clipPath id="clip17"><rect x="239" y="1381" width="116" height="115"/></clipPath><clipPath id="clip18"><rect x="239" y="1381" width="116" height="115"/></clipPath></defs><g clip-path="url(#clip2)" transform="translate(-114 -1269)"><g clip-path="url(#clip3)" filter="url(#fx0)" transform="translate(220 1376)"><g clip-path="url(#clip4)"><g clip-path="url(#clip5)"><g clip-path="url(#clip6)"><g clip-path="url(#clip7)"><path d="M95.9013 28.8966C89.5868 27.1354 84.2764 27.9993 80.9477 31.328 77.619 34.6567 76.7551 39.9671 78.5163 46.2816 80.2018 52.329 84.1206 58.6502 89.5534 64.0808 94.9862 69.5114 101.305 73.4324 107.353 75.1179 112.498 76.6408 118.708 76.4115 122.304 72.6865 125.633 69.3577 126.497 64.0474 124.735 57.7328 123.05 51.6855 119.131 45.3643 113.7 39.9337 108.27 34.5031 101.946 30.5821 95.9013 28.8966Z" fill="#BFBFBF" fill-rule="nonzero" fill-opacity="1"/><path d="M94.1958 21.7716C85.9686 19.5495 79.0395 20.7207 74.6888 25.0714 72.7876 27.0017 71.4583 29.4208 70.848 32.0606 65.1747 46.3106 59.5838 56.2655 56.382 59.2714 53.9551 61.5492 50.0808 64.4237 32.3863 70.5 26.4191 72.5484 22.4959 76.4627 21.2579 81.8777 18.4814 94.0125 27.2808 107.706 36.383 117.325 48.2016 128.21 60.6258 134.841 71.7965 132.586 77.1603 131.285 81.1214 127.4 83.2544 121.348 89.8183 102.721 92.4234 99.2716 94.3516 97.5015 94.3962 97.4592 94.4385 97.4147 94.4785 97.3679 97.2729 93.9791 107.444 88.573 121.701 82.8975 124.337 82.2874 126.753 80.9595 128.681 79.0611 133.032 74.7104 134.203 67.7836 131.978 59.5542 129.825 51.5853 124.718 43.2735 117.597 36.153 110.476 29.0324 102.165 23.9247 94.1958 21.7716ZM40.8023 71.4812C40.7354 72.216 40.0855 72.7575 39.3507 72.6905 39.3506 72.6905 39.3505 72.6905 39.3503 72.6905 37.1109 72.487 35.5207 72.8955 33.6635 73.342 32.9474 73.5196 32.2228 73.0832 32.0451 72.3672 31.8674 71.6509 32.3039 70.9264 33.02 70.7487 33.0262 70.7471 33.0324 70.7458 33.0387 70.7442 35.1793 70.2292 37.0612 69.799 39.593 70.0297 40.3278 70.0967 40.8692 70.7465 40.8023 71.4812ZM53.3824 75.8103C53.0546 76.4712 52.2533 76.7413 51.5922 76.4137 49.6605 75.4512 47.6572 74.6389 45.6005 73.9846 44.8983 73.7581 44.5126 73.0053 44.7391 72.303 44.9628 71.6088 45.7021 71.2225 46.3999 71.4351 48.5895 72.1298 50.7214 72.9942 52.7768 74.0202 53.4383 74.3468 53.7099 75.1479 53.3833 75.8094 53.3831 75.8097 53.3831 75.8101 53.3828 75.8103ZM64.3264 83.4296C63.851 83.9943 63.0078 84.0671 62.4427 83.5922 60.7757 82.1914 59.0327 80.884 57.2214 79.6757 56.6071 79.2668 56.4408 78.4375 56.8496 77.8232 57.2584 77.2088 58.0878 77.0425 58.7021 77.4513 60.5965 78.7138 62.4191 80.0809 64.1616 81.546 64.727 82.0207 64.8009 82.8639 64.3264 83.4296ZM73.3907 93.2154C72.8101 93.6692 71.9713 93.5663 71.5173 92.9856 71.5169 92.9849 71.5164 92.9845 71.516 92.9838 70.1725 91.2672 68.7403 89.6217 67.2254 88.0542 66.6961 87.5401 66.6837 86.6945 67.1976 86.1652 67.7117 85.6357 68.5575 85.6235 69.0868 86.1374 69.1066 86.1567 69.126 86.1768 69.1447 86.1973 70.7267 87.8318 72.2214 89.5487 73.6223 91.3406 74.0759 91.9222 73.9723 92.7616 73.3907 93.2154ZM78.2424 104.099C77.3676 102.115 76.3612 100.193 75.2299 98.3432 74.8462 97.7131 75.0462 96.891 75.6763 96.5074 76.3064 96.1237 77.1285 96.3237 77.5121 96.9538 78.7058 98.9052 79.7672 100.934 80.6894 103.028 80.9689 103.711 80.6418 104.491 79.9589 104.77 79.2994 105.04 78.5439 104.745 78.2424 104.099ZM82.4927 117.809C81.7584 117.813 81.1603 117.221 81.1568 116.486 81.1568 116.485 81.1568 116.483 81.1568 116.481 81.1385 114.36 80.8642 112.249 80.3399 110.193 80.1566 109.478 80.5874 108.75 81.3022 108.567 82.0167 108.384 82.7448 108.814 82.928 109.529 82.93 109.537 82.932 109.545 82.9338 109.553 83.5091 111.813 83.81 114.134 83.8295 116.466 83.8302 117.206 83.2324 117.806 82.4927 117.809ZM126.79 77.1708C123.146 80.8179 117.136 81.7441 109.871 79.7803 102.345 77.7474 94.4585 72.8846 87.6608 66.0891 80.8631 59.2937 76.0025 51.405 73.9697 43.8814 72.0058 36.6139 72.9343 30.6044 76.5792 26.9595 80.5825 22.8181 87.7031 22.6889 93.4989 24.3522 101.025 26.385 108.911 31.2479 115.707 38.0433 122.502 44.8388 127.365 52.7253 129.4 60.2511 131.362 67.5164 130.435 73.5259 126.79 77.1708Z" fill="#BFBFBF" fill-rule="nonzero" fill-opacity="1"/></g></g></g></g></g><g clip-path="url(#clip8)"><g clip-path="url(#clip9)"><g clip-path="url(#clip10)"><path d="M315.901 1391.15C309.587 1389.39 304.276 1390.25 300.948 1393.58 297.619 1396.91 296.755 1402.22 298.516 1408.53 300.202 1414.58 304.121 1420.9 309.553 1426.33 314.986 1431.76 321.305 1435.68 327.353 1437.37 332.498 1438.89 338.708 1438.66 342.304 1434.94 345.633 1431.61 346.497 1426.3 344.735 1419.98 343.05 1413.94 339.131 1407.61 333.7 1402.18 328.27 1396.75 321.946 1392.83 315.901 1391.15Z" fill="#BFBFBF" fill-rule="nonzero" fill-opacity="1"/><path d="M314.196 1384.02C305.969 1381.8 299.04 1382.97 294.689 1387.32 292.788 1389.25 291.458 1391.67 290.848 1394.31 285.175 1408.56 279.584 1418.52 276.382 1421.52 273.955 1423.8 270.081 1426.67 252.386 1432.75 246.419 1434.8 242.496 1438.71 241.258 1444.13 238.481 1456.26 247.281 1469.96 256.383 1479.57 268.202 1490.46 280.626 1497.09 291.797 1494.84 297.16 1493.54 301.121 1489.65 303.254 1483.6 309.818 1464.97 312.423 1461.52 314.352 1459.75 314.396 1459.71 314.438 1459.66 314.479 1459.62 317.273 1456.23 327.444 1450.82 341.701 1445.15 344.337 1444.54 346.753 1443.21 348.681 1441.31 353.032 1436.96 354.203 1430.03 351.978 1421.8 349.825 1413.84 344.718 1405.52 337.597 1398.4 330.476 1391.28 322.165 1386.17 314.196 1384.02ZM260.802 1433.73C260.735 1434.47 260.085 1435.01 259.351 1434.94 259.351 1434.94 259.35 1434.94 259.35 1434.94 257.111 1434.74 255.521 1435.15 253.663 1435.59 252.947 1435.77 252.223 1435.33 252.045 1434.62 251.867 1433.9 252.304 1433.18 253.02 1433 253.026 1433 253.032 1433 253.039 1432.99 255.179 1432.48 257.061 1432.05 259.593 1432.28 260.328 1432.35 260.869 1433 260.802 1433.73ZM273.382 1438.06C273.055 1438.72 272.253 1438.99 271.592 1438.66 269.66 1437.7 267.657 1436.89 265.601 1436.23 264.898 1436.01 264.513 1435.26 264.739 1434.55 264.963 1433.86 265.702 1433.47 266.4 1433.69 268.589 1434.38 270.721 1435.24 272.777 1436.27 273.438 1436.6 273.71 1437.4 273.383 1438.06 273.383 1438.06 273.383 1438.06 273.383 1438.06ZM284.326 1445.68C283.851 1446.24 283.008 1446.32 282.443 1445.84 280.776 1444.44 279.033 1443.13 277.221 1441.93 276.607 1441.52 276.441 1440.69 276.85 1440.07 277.258 1439.46 278.088 1439.29 278.702 1439.7 280.596 1440.96 282.419 1442.33 284.162 1443.8 284.727 1444.27 284.801 1445.11 284.326 1445.68ZM293.391 1455.47C292.81 1455.92 291.971 1455.82 291.517 1455.24 291.517 1455.23 291.516 1455.23 291.516 1455.23 290.172 1453.52 288.74 1451.87 287.225 1450.3 286.696 1449.79 286.684 1448.94 287.198 1448.42 287.712 1447.89 288.558 1447.87 289.087 1448.39 289.107 1448.41 289.126 1448.43 289.145 1448.45 290.727 1450.08 292.221 1451.8 293.622 1453.59 294.076 1454.17 293.972 1455.01 293.391 1455.47ZM298.242 1466.35C297.368 1464.37 296.361 1462.44 295.23 1460.59 294.846 1459.96 295.046 1459.14 295.676 1458.76 296.306 1458.37 297.128 1458.57 297.512 1459.2 298.706 1461.16 299.767 1463.18 300.689 1465.28 300.969 1465.96 300.642 1466.74 299.959 1467.02 299.299 1467.29 298.544 1466.99 298.242 1466.35ZM302.493 1480.06C301.758 1480.06 301.16 1479.47 301.157 1478.74 301.157 1478.73 301.157 1478.73 301.157 1478.73 301.139 1476.61 300.864 1474.5 300.34 1472.44 300.157 1471.73 300.587 1471 301.302 1470.82 302.017 1470.63 302.745 1471.06 302.928 1471.78 302.93 1471.79 302.932 1471.8 302.934 1471.8 303.509 1474.06 303.81 1476.38 303.83 1478.72 303.83 1479.46 303.232 1480.06 302.493 1480.06ZM346.79 1439.42C343.146 1443.07 337.136 1443.99 329.871 1442.03 322.345 1440 314.458 1435.13 307.661 1428.34 300.863 1421.54 296.003 1413.65 293.97 1406.13 292.006 1398.86 292.934 1392.85 296.579 1389.21 300.583 1385.07 307.703 1384.94 313.499 1386.6 321.025 1388.64 328.911 1393.5 335.707 1400.29 342.502 1407.09 347.365 1414.98 349.4 1422.5 351.362 1429.77 350.435 1435.78 346.79 1439.42Z" fill="#BFBFBF" fill-rule="nonzero" fill-opacity="1"/></g></g></g><g clip-path="url(#clip11)" filter="url(#fx1)" transform="matrix(3.0084 0 0 3.0084 118 1274)"><g clip-path="url(#clip12)"><g clip-path="url(#clip13)" transform="matrix(1 0 0 1 -1.90735e-06 -2.86102e-05)"><g clip-path="url(#clip14)" transform="matrix(1 0 0 1 -1.90735e-06 -2.86102e-05)"><g clip-path="url(#clip15)" transform="matrix(1 0 0 1 -1.90735e-06 -2.86102e-05)"><path d="M65.7828 43.5103C63.6839 42.9249 61.9187 43.212 60.8122 44.3185 59.7058 45.425 59.4186 47.1901 60.004 49.2891 60.5643 51.2993 61.8669 53.4005 63.6728 55.2056 65.4787 57.0107 67.5791 58.3141 69.5892 58.8743 71.2997 59.3806 73.3638 59.3044 74.5591 58.0661 75.6656 56.9597 75.9528 55.1945 75.3673 53.0955 74.8071 51.0854 73.5045 48.9842 71.6993 47.179 69.8942 45.3739 67.7923 44.0706 65.7828 43.5103Z" fill="#FFFFFF" fill-rule="nonzero" fill-opacity="1"/><path d="M65.2159 41.1419C62.4812 40.4033 60.1779 40.7926 58.7318 42.2388 58.0998 42.8804 57.6579 43.6845 57.4551 44.562 55.5692 49.2987 53.7108 52.6078 52.6465 53.6069 51.8398 54.3641 50.552 55.3196 44.6703 57.3393 42.6868 58.0203 41.3827 59.3214 40.9712 61.1213 40.0483 65.155 42.9732 69.7067 45.9988 72.904 49.9273 76.5224 54.0572 78.7265 57.7704 77.9767 59.5533 77.5445 60.87 76.253 61.579 74.2414 63.7608 68.0496 64.6268 66.9031 65.2677 66.3147 65.2825 66.3007 65.2966 66.2859 65.3099 66.2703 66.2387 65.1439 69.6196 63.3469 74.3586 61.4603 75.2348 61.2575 76.0379 60.8161 76.6788 60.1851 78.125 58.7389 78.5143 56.4364 77.7749 53.7009 77.0592 51.0521 75.3614 48.2892 72.9945 45.9223 70.6276 43.5554 67.8648 41.8576 65.2159 41.1419ZM47.4678 57.6655C47.4456 57.9098 47.2295 58.0898 46.9853 58.0675 46.9853 58.0675 46.9852 58.0675 46.9852 58.0675 46.2408 57.9998 45.7122 58.1356 45.0948 58.284 44.8568 58.3431 44.616 58.198 44.5569 57.96 44.4978 57.7219 44.6429 57.4811 44.8809 57.422 44.883 57.4215 44.8851 57.4211 44.8872 57.4205 45.5987 57.2494 46.2243 57.1064 47.0658 57.183 47.3101 57.2053 47.49 57.4213 47.4678 57.6655ZM51.6494 59.1045C51.5405 59.3242 51.2741 59.414 51.0544 59.3051 50.4123 58.9851 49.7464 58.7151 49.0627 58.4976 48.8293 58.4224 48.7011 58.1721 48.7764 57.9387 48.8508 57.7079 49.0965 57.5795 49.3284 57.6502 50.0563 57.8811 50.7649 58.1684 51.4481 58.5095 51.668 58.618 51.7583 58.8843 51.6497 59.1042 51.6497 59.1043 51.6497 59.1045 51.6496 59.1045ZM55.2873 61.6372C55.1292 61.8249 54.849 61.8491 54.6611 61.6912 54.107 61.2256 53.5276 60.791 52.9256 60.3894 52.7214 60.2535 52.6661 59.9778 52.802 59.7736 52.9378 59.5694 53.2135 59.5141 53.4177 59.65 54.0474 60.0696 54.6533 60.5241 55.2325 61.0111 55.4204 61.1688 55.445 61.4491 55.2873 61.6372ZM58.3003 64.89C58.1073 65.0408 57.8284 65.0066 57.6775 64.8136 57.6774 64.8134 57.6772 64.8133 57.6771 64.813 57.2305 64.2424 56.7545 63.6955 56.2509 63.1744 56.075 63.0035 56.0708 62.7224 56.2416 62.5465 56.4125 62.3705 56.6937 62.3664 56.8696 62.5373 56.8762 62.5437 56.8827 62.5504 56.8889 62.5572 57.4147 63.1005 57.9116 63.6712 58.3772 64.2668 58.528 64.4601 58.4936 64.7392 58.3003 64.89ZM59.913 68.5077C59.6222 67.8484 59.2877 67.2092 58.9116 66.5945 58.7841 66.385 58.8505 66.1118 59.06 65.9843 59.2695 65.8567 59.5427 65.9232 59.6702 66.1327 60.067 66.7813 60.4198 67.4558 60.7264 68.1517 60.8193 68.3787 60.7105 68.6379 60.4835 68.7308 60.2643 68.8206 60.0132 68.7224 59.913 68.5077ZM61.3258 73.0651C61.0817 73.0663 60.8829 72.8694 60.8817 72.6253 60.8817 72.6247 60.8817 72.6241 60.8817 72.6235 60.8757 71.9184 60.7845 71.2167 60.6102 70.5334 60.5493 70.2958 60.6925 70.0539 60.93 69.993 61.1676 69.932 61.4096 70.0752 61.4705 70.3128 61.4711 70.3153 61.4718 70.318 61.4724 70.3206 61.6637 71.0718 61.7636 71.8434 61.7702 72.6185 61.7704 72.8644 61.5717 73.0641 61.3258 73.0651ZM76.0505 59.5567C74.8389 60.769 72.8413 61.0769 70.4263 60.4241 67.9247 59.7484 65.3032 58.132 63.0437 55.8732 60.7841 53.6143 59.1684 50.9921 58.4927 48.4913 57.8399 46.0755 58.1486 44.078 59.3601 42.8664 60.6908 41.4898 63.0577 41.4469 64.9843 41.9997 67.4858 42.6754 70.1073 44.2919 72.3662 46.5507 74.625 48.8095 76.2414 51.431 76.9179 53.9326 77.5699 56.3476 77.262 58.3452 76.0505 59.5567Z" fill="#FFFFFF" fill-rule="nonzero" fill-opacity="1"/></g></g></g></g></g><g clip-path="url(#clip16)"><g clip-path="url(#clip17)"><g clip-path="url(#clip18)"><path d="M315.901 1391.15C309.587 1389.39 304.276 1390.25 300.948 1393.58 297.619 1396.91 296.755 1402.22 298.516 1408.53 300.202 1414.58 304.121 1420.9 309.553 1426.33 314.986 1431.76 321.305 1435.68 327.353 1437.37 332.498 1438.89 338.708 1438.66 342.304 1434.94 345.633 1431.61 346.497 1426.3 344.735 1419.98 343.05 1413.94 339.131 1407.61 333.7 1402.18 328.27 1396.75 321.946 1392.83 315.901 1391.15Z" fill="#FFFFFF" fill-rule="nonzero" fill-opacity="1"/><path d="M314.196 1384.02C305.969 1381.8 299.04 1382.97 294.689 1387.32 292.788 1389.25 291.458 1391.67 290.848 1394.31 285.175 1408.56 279.584 1418.52 276.382 1421.52 273.955 1423.8 270.081 1426.67 252.386 1432.75 246.419 1434.8 242.496 1438.71 241.258 1444.13 238.481 1456.26 247.281 1469.96 256.383 1479.57 268.202 1490.46 280.626 1497.09 291.797 1494.84 297.16 1493.54 301.121 1489.65 303.254 1483.6 309.818 1464.97 312.423 1461.52 314.352 1459.75 314.396 1459.71 314.438 1459.66 314.479 1459.62 317.273 1456.23 327.444 1450.82 341.701 1445.15 344.337 1444.54 346.753 1443.21 348.681 1441.31 353.032 1436.96 354.203 1430.03 351.978 1421.8 349.825 1413.84 344.718 1405.52 337.597 1398.4 330.476 1391.28 322.165 1386.17 314.196 1384.02ZM260.802 1433.73C260.735 1434.47 260.085 1435.01 259.351 1434.94 259.351 1434.94 259.35 1434.94 259.35 1434.94 257.111 1434.74 255.521 1435.15 253.663 1435.59 252.947 1435.77 252.223 1435.33 252.045 1434.62 251.867 1433.9 252.304 1433.18 253.02 1433 253.026 1433 253.032 1433 253.039 1432.99 255.179 1432.48 257.061 1432.05 259.593 1432.28 260.328 1432.35 260.869 1433 260.802 1433.73ZM273.382 1438.06C273.055 1438.72 272.253 1438.99 271.592 1438.66 269.66 1437.7 267.657 1436.89 265.601 1436.23 264.898 1436.01 264.513 1435.26 264.739 1434.55 264.963 1433.86 265.702 1433.47 266.4 1433.69 268.589 1434.38 270.721 1435.24 272.777 1436.27 273.438 1436.6 273.71 1437.4 273.383 1438.06 273.383 1438.06 273.383 1438.06 273.383 1438.06ZM284.326 1445.68C283.851 1446.24 283.008 1446.32 282.443 1445.84 280.776 1444.44 279.033 1443.13 277.221 1441.93 276.607 1441.52 276.441 1440.69 276.85 1440.07 277.258 1439.46 278.088 1439.29 278.702 1439.7 280.596 1440.96 282.419 1442.33 284.162 1443.8 284.727 1444.27 284.801 1445.11 284.326 1445.68ZM293.391 1455.47C292.81 1455.92 291.971 1455.82 291.517 1455.24 291.517 1455.23 291.516 1455.23 291.516 1455.23 290.172 1453.52 288.74 1451.87 287.225 1450.3 286.696 1449.79 286.684 1448.94 287.198 1448.42 287.712 1447.89 288.558 1447.87 289.087 1448.39 289.107 1448.41 289.126 1448.43 289.145 1448.45 290.727 1450.08 292.221 1451.8 293.622 1453.59 294.076 1454.17 293.972 1455.01 293.391 1455.47ZM298.242 1466.35C297.368 1464.37 296.361 1462.44 295.23 1460.59 294.846 1459.96 295.046 1459.14 295.676 1458.76 296.306 1458.37 297.128 1458.57 297.512 1459.2 298.706 1461.16 299.767 1463.18 300.689 1465.28 300.969 1465.96 300.642 1466.74 299.959 1467.02 299.299 1467.29 298.544 1466.99 298.242 1466.35ZM302.493 1480.06C301.758 1480.06 301.16 1479.47 301.157 1478.74 301.157 1478.73 301.157 1478.73 301.157 1478.73 301.139 1476.61 300.864 1474.5 300.34 1472.44 300.157 1471.73 300.587 1471 301.302 1470.82 302.017 1470.63 302.745 1471.06 302.928 1471.78 302.93 1471.79 302.932 1471.8 302.934 1471.8 303.509 1474.06 303.81 1476.38 303.83 1478.72 303.83 1479.46 303.232 1480.06 302.493 1480.06ZM346.79 1439.42C343.146 1443.07 337.136 1443.99 329.871 1442.03 322.345 1440 314.458 1435.13 307.661 1428.34 300.863 1421.54 296.003 1413.65 293.97 1406.13 292.006 1398.86 292.934 1392.85 296.579 1389.21 300.583 1385.07 307.703 1384.94 313.499 1386.6 321.025 1388.64 328.911 1393.5 335.707 1400.29 342.502 1407.09 347.365 1414.98 349.4 1422.5 351.362 1429.77 350.435 1435.78 346.79 1439.42Z" fill="#FFFFFF" fill-rule="nonzero" fill-opacity="1"/></g></g></g></g></svg>