<svg width="477" height="477" xmlns="http://www.w3.org/2000/svg" xmlns:xlink="http://www.w3.org/1999/xlink" xml:space="preserve" overflow="hidden"><defs><filter id="fx0" x="-10%" y="-10%" width="120%" height="120%" filterUnits="userSpaceOnUse" primitiveUnits="userSpaceOnUse"><feComponentTransfer color-interpolation-filters="sRGB"><feFuncR type="discrete" tableValues="0.749020 0.749020"/><feFuncG type="discrete" tableValues="0.749020 0.749020"/><feFuncB type="discrete" tableValues="0.749020 0.749020"/><feFuncA type="linear" slope="0.400000" intercept="0.000000"/></feComponentTransfer><feGaussianBlur stdDeviation="6.111111 6.111111"/></filter><filter id="fx1" x="-10%" y="-10%" width="120%" height="120%" filterUnits="userSpaceOnUse" primitiveUnits="userSpaceOnUse"><feComponentTransfer color-interpolation-filters="sRGB"><feFuncR type="discrete" tableValues="0.000000 0.000000"/><feFuncG type="discrete" tableValues="0.000000 0.000000"/><feFuncB type="discrete" tableValues="0.000000 0.000000"/><feFuncA type="linear" slope="0.400000" intercept="0.000000"/></feComponentTransfer><feGaussianBlur stdDeviation="6.111111 6.111111"/></filter><filter id="fx2" x="-10%" y="-10%" width="120%" height="120%" filterUnits="userSpaceOnUse" primitiveUnits="userSpaceOnUse"><feComponentTransfer color-interpolation-filters="sRGB"><feFuncR type="discrete" tableValues="1.000000 1.000000"/><feFuncG type="discrete" tableValues="1.000000 1.000000"/><feFuncB type="discrete" tableValues="1.000000 1.000000"/><feFuncA type="linear" slope="0.803922" intercept="0.000000"/></feComponentTransfer><feGaussianBlur stdDeviation="14.937573 14.906127"/></filter><clipPath id="clip3"><rect x="224" y="1223" width="477" height="477"/></clipPath><clipPath id="clip4"><rect x="0.666656" y="0.666626" width="154.667" height="152.547"/></clipPath><clipPath id="clip5"><rect x="0" y="0" width="156" height="156"/></clipPath><clipPath id="clip6"><rect x="20" y="20" width="117" height="116"/></clipPath><clipPath id="clip7"><rect x="20" y="20" width="117" height="116"/></clipPath><clipPath id="clip8"><rect x="20" y="20" width="117" height="116"/></clipPath><clipPath id="clip9"><rect x="19" y="19" width="116" height="116"/></clipPath><clipPath id="clip10"><rect x="19" y="19" width="116" height="116"/></clipPath><clipPath id="clip11"><rect x="19" y="19" width="116" height="116"/></clipPath><clipPath id="clip12"><rect x="0.666656" y="0.666626" width="153.667" height="151.547"/></clipPath><clipPath id="clip13"><rect x="0" y="0" width="155" height="155"/></clipPath><clipPath id="clip14"><rect x="19" y="19" width="117" height="116"/></clipPath><clipPath id="clip15"><rect x="19" y="19" width="117" height="116"/></clipPath><clipPath id="clip16"><rect x="19" y="19" width="117" height="116"/></clipPath><clipPath id="clip17"><rect x="404" y="1391" width="117" height="116"/></clipPath><clipPath id="clip18"><rect x="404" y="1391" width="117" height="116"/></clipPath><clipPath id="clip19"><rect x="404" y="1391" width="117" height="116"/></clipPath><clipPath id="clip20"><rect x="0.187279" y="0.281616" width="118.625" height="118.062"/></clipPath><clipPath id="clip21"><rect x="0" y="0" width="119" height="119"/></clipPath><clipPath id="clip22"><rect x="45" y="45" width="29" height="29"/></clipPath><clipPath id="clip23"><rect x="45" y="45" width="29" height="29"/></clipPath><clipPath id="clip24"><rect x="45" y="45" width="29" height="29"/></clipPath><clipPath id="clip25"><rect x="403" y="1391" width="116" height="115"/></clipPath><clipPath id="clip26"><rect x="403" y="1391" width="116" height="115"/></clipPath><clipPath id="clip27"><rect x="403" y="1391" width="116" height="115"/></clipPath></defs><g clip-path="url(#clip3)" transform="translate(-224 -1223)"><g clip-path="url(#clip4)" filter="url(#fx0)" transform="translate(384 1385)"><g clip-path="url(#clip5)"><g clip-path="url(#clip6)"><g clip-path="url(#clip7)"><g clip-path="url(#clip8)"><path d="M124.866 59.9577C129.958 54.2437 123.222 43.9745 117.98 38.7703 112.784 33.5347 102.502 26.7896 96.7922 31.8838 94.7483 33.9277 94.4406 37.3463 95.9252 41.5061 97.2909 45.3312 100.045 49.4393 103.679 53.0712 108.501 58.0508 119.26 65.1417 124.866 59.9577Z" fill="#BFBFBF" fill-rule="nonzero" fill-opacity="1"/><path d="M59.8978 134.879C62.9391 134.879 65.5333 133.994 67.3931 132.134L132.384 67.143C135.452 64.0748 135.964 58.9335 133.828 52.6624 131.802 46.7125 127.602 40.3516 122 34.7498 110.006 22.7579 95.777 18.1938 89.607 24.3661L24.6162 89.3569C16.8784 98.0875 26.9993 113.785 34.9999 121.75 43.398 130.108 52.8473 134.881 59.8978 134.879ZM91.5139 26.2708C97.9288 20.2602 112.043 28.5528 120.093 36.6567 126.888 43.2221 137.186 58.5292 130.479 65.2361 124.354 71.3634 109.294 62.0983 101.9 54.8524 91.2309 44.399 86.4243 31.0392 91.5139 26.2708ZM65.2188 114.738C65.8965 114.432 66.6934 114.734 66.9989 115.412 66.9993 115.412 66.9996 115.413 67 115.414 67.8142 117.198 68.4544 119.057 68.9114 120.964 69.0929 121.686 68.6549 122.418 67.933 122.6 67.2114 122.781 66.4789 122.343 66.2974 121.621 66.2932 121.604 66.2893 121.588 66.2857 121.57 65.8684 119.834 65.2847 118.143 64.5428 116.519 64.2373 115.841 64.539 115.044 65.2166 114.739 65.2173 114.738 65.2182 114.738 65.2188 114.738ZM59.0466 105.378C59.6303 104.918 60.4767 105.018 60.9378 105.601 62.1302 107.108 63.2394 108.68 64.2598 110.309 64.6542 110.94 64.4621 111.772 63.8308 112.166 63.1994 112.56 62.3677 112.368 61.9732 111.737 61.0054 110.192 59.9533 108.701 58.822 107.272 58.3617 106.687 58.4624 105.839 59.0466 105.378ZM51.0887 97.4721C51.5718 96.9072 52.4215 96.8409 52.9866 97.324 52.9873 97.3247 52.9882 97.3254 52.9889 97.3261 54.4219 98.5569 55.8369 99.8978 57.1599 101.272 57.676 101.809 57.6594 102.662 57.1228 103.178 56.5862 103.694 55.7331 103.678 55.217 103.141 53.9547 101.827 52.6003 100.547 51.2324 99.3723 50.6682 98.8871 50.6037 98.0365 51.0887 97.4721ZM41.682 91.3717C42.0279 90.7129 42.842 90.4586 43.5013 90.8034 45.207 91.7023 46.8557 92.7052 48.4383 93.8064 49.0627 94.2116 49.2403 95.0461 48.8351 95.6705 48.4302 96.2949 47.5955 96.4725 46.9711 96.0676 46.9484 96.0527 46.926 96.0372 46.9042 96.0211 45.4125 94.9829 43.8582 94.0378 42.2503 93.191 41.591 92.8456 41.3365 92.0311 41.6819 91.3719 41.6819 91.3719 41.682 91.3717 41.682 91.3717ZM30.8895 88.5955C30.9335 87.8543 31.5675 87.2876 32.309 87.3264 34.2973 87.4617 36.2592 87.8574 38.1444 88.5034 38.8579 88.7154 39.2644 89.4656 39.0525 90.179 38.8405 90.8926 38.0903 91.2991 37.3769 91.0871 37.3509 91.0794 37.3253 91.0709 37.2999 91.0617 35.6397 90.4912 33.912 90.1401 32.1608 90.0173 31.4172 89.9757 30.848 89.3392 30.8895 88.5955Z" fill="#BFBFBF" fill-rule="nonzero" fill-opacity="1"/></g></g></g><g clip-path="url(#clip9)"><g clip-path="url(#clip10)"><g clip-path="url(#clip11)"><path d="M102.963 38.8669C108.011 33.2025 101.333 23.0227 96.1364 17.8637 90.9864 12.6736 80.7931 5.98723 75.1332 11.0371 73.107 13.0633 72.802 16.4521 74.2738 20.5757 75.6275 24.3675 78.3573 28.4399 81.9599 32.0403 86.7403 36.9766 97.4055 44.0058 102.963 38.8669Z" fill="#FFFFFF" fill-rule="nonzero" fill-opacity="1" transform="matrix(1 0 0 1.00877 19.9999 19.7501)"/><path d="M38.5597 113.136C41.5744 113.136 44.1461 112.259 45.9897 110.415L110.415 45.9897C113.457 42.9482 113.965 37.8516 111.847 31.635 109.839 25.7369 105.675 19.4312 100.122 13.8782 88.2321 1.99055 74.1268-2.53383 68.0104 3.58477L3.58477 68.0104C-4.08575 76.6651 5.94715 92.2265 13.8782 100.122 22.2033 108.407 31.5705 113.138 38.5597 113.136ZM69.9008 5.4729C76.2598-0.485391 90.2516 7.73509 98.2316 15.7685 104.967 22.2768 115.176 37.4508 108.527 44.0993 102.455 50.1734 87.5263 40.9888 80.1964 33.8059 69.6202 23.4435 64.8554 10.1999 69.9008 5.4729ZM43.8344 93.1706C44.5061 92.8678 45.2961 93.1668 45.5989 93.8386 45.5994 93.8392 45.5996 93.8401 45.6001 93.8408 46.4072 95.6096 47.0418 97.4521 47.4949 99.3427 47.6748 100.058 47.2406 100.784 46.525 100.964 45.8096 101.144 45.0835 100.71 44.9036 99.9941 44.8994 99.9774 44.8956 99.9607 44.892 99.9438 44.4783 98.2229 43.8996 96.5461 43.1642 94.9363 42.8614 94.2645 43.1604 93.4745 43.8322 93.1717 43.8328 93.1713 43.8337 93.1711 43.8344 93.1706ZM37.7158 83.8925C38.2945 83.4363 39.1334 83.5349 39.5906 84.1129 40.7726 85.6072 41.8721 87.1651 42.8836 88.7798 43.2746 89.4057 43.0843 90.2302 42.4584 90.6212 41.8325 91.0122 41.008 90.8218 40.617 90.1959 39.6576 88.6645 38.6147 87.1867 37.4931 85.7695 37.0369 85.1895 37.1367 84.3496 37.7158 83.8925ZM29.8271 76.055C30.306 75.495 31.1483 75.4293 31.7085 75.9083 31.7092 75.909 31.7101 75.9096 31.7107 75.9103 33.1313 77.1304 34.534 78.4597 35.8455 79.8224 36.3571 80.3543 36.3407 81.2001 35.8087 81.7116 35.2768 82.2233 34.4312 82.2068 33.9195 81.6749 32.6682 80.3723 31.3255 79.1032 29.9696 77.9387 29.4103 77.4577 29.3463 76.6145 29.8271 76.055ZM20.5022 70.0077C20.8451 69.3546 21.6521 69.1026 22.3057 69.4443 23.9966 70.3354 25.6309 71.3296 27.1997 72.4213 27.8187 72.8229 27.9948 73.6501 27.5932 74.2691 27.1917 74.8881 26.3643 75.0642 25.7453 74.6627 25.7228 74.648 25.7006 74.6327 25.679 74.6166 24.2003 73.5875 22.6595 72.6506 21.0655 71.8112 20.412 71.4687 20.1597 70.6614 20.5021 70.0079 20.5021 70.0079 20.5022 70.0077 20.5022 70.0077ZM9.80357 67.2556C9.84723 66.5209 10.4757 65.9591 11.2108 65.9976 13.1817 66.1317 15.1265 66.524 16.9954 67.1643 17.7026 67.3745 18.1057 68.1182 17.8956 68.8253 17.6854 69.5327 16.9418 69.9357 16.2345 69.7256 16.2088 69.718 16.1834 69.7095 16.1582 69.7004 14.5124 69.1348 12.7998 68.7868 11.0638 68.665 10.3266 68.6238 9.76246 67.9928 9.80357 67.2556Z" fill="#FFFFFF" fill-rule="nonzero" fill-opacity="1" transform="matrix(1 0 0 1.00877 19.9999 19.7501)"/></g></g></g></g></g><g clip-path="url(#clip12)" filter="url(#fx1)" transform="translate(385 1386)"><g clip-path="url(#clip13)"><g clip-path="url(#clip14)"><g clip-path="url(#clip15)"><g clip-path="url(#clip16)"><path d="M123.866 58.9577C128.958 53.2437 122.222 42.9745 116.98 37.7703 111.784 32.5347 101.502 25.7896 95.7922 30.8838 93.7483 32.9277 93.4406 36.3463 94.9252 40.5061 96.2909 44.3312 99.0446 48.4393 102.679 52.0712 107.501 57.0508 118.26 64.1417 123.866 58.9577Z" fill="#BFBFBF" fill-rule="nonzero" fill-opacity="1"/><path d="M58.8978 133.879C61.9391 133.879 64.5333 132.994 66.3931 131.134L131.384 66.143C134.452 63.0748 134.964 57.9335 132.828 51.6624 130.802 45.7125 126.602 39.3516 121 33.7498 109.006 21.7579 94.777 17.1938 88.607 23.3661L23.6162 88.3569C15.8784 97.0875 25.9993 112.785 33.9999 120.75 42.398 129.108 51.8473 133.881 58.8978 133.879ZM90.5139 25.2708C96.9288 19.2602 111.043 27.5528 119.093 35.6567 125.888 42.2221 136.186 57.5292 129.479 64.2361 123.354 70.3634 108.294 61.0983 100.9 53.8524 90.2309 43.399 85.4243 30.0392 90.5139 25.2708ZM64.2188 113.738C64.8965 113.432 65.6934 113.734 65.9989 114.412 65.9993 114.412 65.9996 114.413 66 114.414 66.8142 116.198 67.4544 118.057 67.9114 119.964 68.0929 120.686 67.6549 121.418 66.933 121.6 66.2114 121.781 65.4789 121.343 65.2974 120.621 65.2932 120.604 65.2893 120.588 65.2857 120.57 64.8684 118.834 64.2847 117.143 63.5428 115.519 63.2373 114.841 63.539 114.044 64.2166 113.739 64.2173 113.738 64.2182 113.738 64.2188 113.738ZM58.0466 104.378C58.6303 103.918 59.4767 104.018 59.9378 104.601 61.1302 106.108 62.2394 107.68 63.2598 109.309 63.6542 109.94 63.4621 110.772 62.8308 111.166 62.1994 111.56 61.3677 111.368 60.9732 110.737 60.0054 109.192 58.9533 107.701 57.822 106.272 57.3617 105.687 57.4624 104.839 58.0466 104.378ZM50.0887 96.4721C50.5718 95.9072 51.4215 95.8409 51.9866 96.324 51.9873 96.3247 51.9882 96.3254 51.9889 96.3261 53.4219 97.5569 54.8369 98.8978 56.1599 100.272 56.676 100.809 56.6594 101.662 56.1228 102.178 55.5862 102.694 54.7331 102.678 54.217 102.141 52.9547 100.827 51.6003 99.547 50.2324 98.3723 49.6682 97.8871 49.6037 97.0365 50.0887 96.4721ZM40.682 90.3717C41.0279 89.7129 41.842 89.4586 42.5013 89.8034 44.207 90.7023 45.8557 91.7052 47.4383 92.8064 48.0627 93.2116 48.2403 94.0461 47.8351 94.6705 47.4302 95.2949 46.5955 95.4725 45.9711 95.0676 45.9484 95.0527 45.926 95.0372 45.9042 95.0211 44.4125 93.9829 42.8582 93.0378 41.2503 92.191 40.591 91.8456 40.3365 91.0311 40.6819 90.3719 40.6819 90.3719 40.682 90.3717 40.682 90.3717ZM29.8895 87.5955C29.9335 86.8543 30.5675 86.2876 31.309 86.3264 33.2973 86.4617 35.2592 86.8574 37.1444 87.5034 37.8579 87.7154 38.2644 88.4656 38.0525 89.179 37.8405 89.8926 37.0903 90.2991 36.3769 90.0871 36.3509 90.0794 36.3253 90.0709 36.2999 90.0617 34.6397 89.4912 32.912 89.1401 31.1608 89.0173 30.4172 88.9757 29.848 88.3392 29.8895 87.5955Z" fill="#BFBFBF" fill-rule="nonzero" fill-opacity="1"/></g></g></g></g></g><g clip-path="url(#clip17)"><g clip-path="url(#clip18)"><g clip-path="url(#clip19)"><path d="M508.866 1431.21C513.958 1425.49 507.222 1415.22 501.98 1410.02 496.784 1404.78 486.502 1398.04 480.792 1403.13 478.748 1405.18 478.441 1408.6 479.925 1412.76 481.291 1416.58 484.045 1420.69 487.679 1424.32 492.501 1429.3 503.26 1436.39 508.866 1431.21Z" fill="#BFBFBF" fill-rule="nonzero" fill-opacity="1"/><path d="M443.898 1506.13C446.939 1506.13 449.533 1505.24 451.393 1503.38L516.384 1438.39C519.452 1435.32 519.964 1430.18 517.828 1423.91 515.802 1417.96 511.602 1411.6 506 1406 494.006 1394.01 479.777 1389.44 473.607 1395.62L408.616 1460.61C400.878 1469.34 410.999 1485.04 419 1493 427.398 1501.36 436.847 1506.13 443.898 1506.13ZM475.514 1397.52C481.929 1391.51 496.043 1399.8 504.093 1407.91 510.888 1414.47 521.186 1429.78 514.479 1436.49 508.354 1442.61 493.294 1433.35 485.9 1426.1 475.231 1415.65 470.424 1402.29 475.514 1397.52ZM449.219 1485.99C449.896 1485.68 450.693 1485.98 450.999 1486.66 450.999 1486.66 451 1486.66 451 1486.66 451.814 1488.45 452.454 1490.31 452.911 1492.21 453.093 1492.94 452.655 1493.67 451.933 1493.85 451.211 1494.03 450.479 1493.59 450.297 1492.87 450.293 1492.85 450.289 1492.84 450.286 1492.82 449.868 1491.08 449.285 1489.39 448.543 1487.77 448.237 1487.09 448.539 1486.29 449.217 1485.99 449.217 1485.99 449.218 1485.99 449.219 1485.99ZM443.047 1476.63C443.63 1476.17 444.477 1476.27 444.938 1476.85 446.13 1478.36 447.239 1479.93 448.26 1481.56 448.654 1482.19 448.462 1483.02 447.831 1483.42 447.199 1483.81 446.368 1483.62 445.973 1482.99 445.005 1481.44 443.953 1479.95 442.822 1478.52 442.362 1477.94 442.462 1477.09 443.047 1476.63ZM435.089 1468.72C435.572 1468.16 436.421 1468.09 436.987 1468.57 436.987 1468.57 436.988 1468.58 436.989 1468.58 438.422 1469.81 439.837 1471.15 441.16 1472.52 441.676 1473.06 441.659 1473.91 441.123 1474.43 440.586 1474.94 439.733 1474.93 439.217 1474.39 437.955 1473.08 436.6 1471.8 435.232 1470.62 434.668 1470.14 434.604 1469.29 435.089 1468.72ZM425.682 1462.62C426.028 1461.96 426.842 1461.71 427.501 1462.05 429.207 1462.95 430.856 1463.96 432.438 1465.06 433.063 1465.46 433.24 1466.3 432.835 1466.92 432.43 1467.54 431.596 1467.72 430.971 1467.32 430.948 1467.3 430.926 1467.29 430.904 1467.27 429.413 1466.23 427.858 1465.29 426.25 1464.44 425.591 1464.1 425.337 1463.28 425.682 1462.62 425.682 1462.62 425.682 1462.62 425.682 1462.62ZM414.889 1459.85C414.934 1459.1 415.568 1458.54 416.309 1458.58 418.297 1458.71 420.259 1459.11 422.144 1459.75 422.858 1459.97 423.264 1460.72 423.052 1461.43 422.841 1462.14 422.09 1462.55 421.377 1462.34 421.351 1462.33 421.325 1462.32 421.3 1462.31 419.64 1461.74 417.912 1461.39 416.161 1461.27 415.417 1461.23 414.848 1460.59 414.889 1459.85Z" fill="#BFBFBF" fill-rule="nonzero" fill-opacity="1"/></g></g></g><g clip-path="url(#clip20)" filter="url(#fx2)" transform="matrix(3.98319 0 0 3.9916 224 1225)"><g clip-path="url(#clip21)" transform="translate(7.10543e-15 0)"><g clip-path="url(#clip22)" transform="matrix(1 0 0 1 -2.86102e-06 -1.63317e-05)"><g clip-path="url(#clip23)" transform="matrix(1 0 0 1 -2.86102e-06 -1.63317e-05)"><g clip-path="url(#clip24)" transform="matrix(1 0 0 1 -2.86102e-06 -1.63317e-05)"><path d="M25.8494 9.75773C27.1166 8.33566 25.4402 5.77996 24.1355 4.48478 22.8426 3.18177 20.2835 1.50312 18.8626 2.77091 18.3539 3.27959 18.2773 4.13038 18.6468 5.16563 18.9867 6.11759 19.672 7.13998 20.5764 8.04387 21.7766 9.28315 24.4541 11.0479 25.8494 9.75773Z" fill="#FFFFFF" fill-rule="nonzero" fill-opacity="1" transform="matrix(1 0 0 1.00665 45.1898 45.0321)"/><path d="M9.68059 28.4034C10.4375 28.4034 11.0831 28.1832 11.5459 27.7203L27.7203 11.5459C28.4839 10.7824 28.6113 9.50283 28.0797 7.94213 27.5755 6.46136 26.5302 4.8783 25.1361 3.48418 22.1511 0.499737 18.6099-0.636131 17.0743 0.899974L0.899974 17.0743C-1.02575 19.2471 1.49306 23.1539 3.48418 25.1361 5.57425 27.2161 7.92592 28.404 9.68059 28.4034ZM17.5489 1.374C19.1454-0.12186 22.6581 1.94193 24.6615 3.95877 26.3525 5.59269 28.9154 9.40221 27.2463 11.0714 25.7219 12.5963 21.9739 10.2904 20.1337 8.48714 17.4785 5.88561 16.2823 2.56073 17.5489 1.374ZM11.0048 23.3909C11.1735 23.3149 11.3718 23.39 11.4478 23.5586 11.4479 23.5588 11.448 23.559 11.4481 23.5592 11.6507 24.0033 11.8101 24.4658 11.9238 24.9405 11.969 25.1201 11.86 25.3023 11.6803 25.3475 11.5007 25.3927 11.3184 25.2837 11.2733 25.104 11.2722 25.0998 11.2712 25.0956 11.2704 25.0914 11.1665 24.6593 11.0212 24.2384 10.8366 23.8342 10.7606 23.6656 10.8356 23.4672 11.0043 23.3912 11.0044 23.3911 11.0047 23.391 11.0048 23.3909ZM9.46873 21.0616C9.61401 20.9471 9.82464 20.9718 9.9394 21.117 10.2362 21.4921 10.5122 21.8832 10.7661 22.2886 10.8643 22.4457 10.8165 22.6527 10.6594 22.7509 10.5022 22.8491 10.2953 22.8013 10.1971 22.6441 9.95623 22.2597 9.6944 21.8886 9.41283 21.5329 9.2983 21.3872 9.32334 21.1764 9.46873 21.0616ZM7.48823 19.094C7.60847 18.9534 7.81993 18.9369 7.96058 19.0571 7.96074 19.0573 7.96097 19.0575 7.96113 19.0576 8.31777 19.364 8.66993 19.6977 8.99918 20.0398 9.12764 20.1733 9.1235 20.3857 8.98996 20.5141 8.85641 20.6425 8.64411 20.6384 8.51565 20.5049 8.2015 20.1779 7.86443 19.8592 7.524 19.5669 7.38359 19.4461 7.36754 19.2345 7.48823 19.094ZM5.14718 17.5758C5.23326 17.4118 5.43586 17.3485 5.59996 17.4343 6.02446 17.658 6.43476 17.9076 6.82862 18.1817 6.98402 18.2825 7.02824 18.4902 6.92739 18.6456 6.82661 18.801 6.61889 18.8452 6.46349 18.7444 6.45784 18.7408 6.45225 18.7369 6.44683 18.7329 6.07561 18.4745 5.68878 18.2393 5.2886 18.0285 5.12452 17.9426 5.0612 17.7399 5.14716 17.5758 5.14716 17.5758 5.14717 17.5758 5.14718 17.5758ZM2.46123 16.8848C2.47219 16.7004 2.62997 16.5594 2.81451 16.569 3.30933 16.6027 3.79759 16.7012 4.26677 16.8619 4.44433 16.9147 4.54552 17.1014 4.49277 17.2789 4.44002 17.4565 4.25332 17.5577 4.07575 17.5049 4.0693 17.503 4.06291 17.5009 4.05659 17.4986 3.64341 17.3566 3.21345 17.2693 2.77762 17.2387 2.59255 17.2283 2.45091 17.0699 2.46123 16.8848Z" fill="#FFFFFF" fill-rule="nonzero" fill-opacity="1" transform="matrix(1 0 0 1.00665 45.1898 45.0321)"/></g></g></g></g></g><g clip-path="url(#clip25)"><g clip-path="url(#clip26)"><g clip-path="url(#clip27)"><path d="M102.963 38.8669C108.011 33.2025 101.333 23.0227 96.1364 17.8637 90.9864 12.6736 80.7931 5.98723 75.1332 11.0371 73.107 13.0633 72.802 16.4521 74.2738 20.5757 75.6275 24.3675 78.3573 28.4399 81.9599 32.0403 86.7403 36.9766 97.4055 44.0058 102.963 38.8669Z" fill="#FFFFFF" fill-rule="nonzero" fill-opacity="1" transform="matrix(1 0 0 1.00877 404 1391)"/><path d="M38.5597 113.136C41.5744 113.136 44.1461 112.259 45.9897 110.415L110.415 45.9897C113.457 42.9482 113.965 37.8516 111.847 31.635 109.839 25.7369 105.675 19.4312 100.122 13.8782 88.2321 1.99055 74.1268-2.53383 68.0104 3.58477L3.58477 68.0104C-4.08575 76.6651 5.94715 92.2265 13.8782 100.122 22.2033 108.407 31.5705 113.138 38.5597 113.136ZM69.9008 5.4729C76.2598-0.485391 90.2516 7.73509 98.2316 15.7685 104.967 22.2768 115.176 37.4508 108.527 44.0993 102.455 50.1734 87.5263 40.9888 80.1964 33.8059 69.6202 23.4435 64.8554 10.1999 69.9008 5.4729ZM43.8344 93.1706C44.5061 92.8678 45.2961 93.1668 45.5989 93.8386 45.5994 93.8392 45.5996 93.8401 45.6001 93.8408 46.4072 95.6096 47.0418 97.4521 47.4949 99.3427 47.6748 100.058 47.2406 100.784 46.525 100.964 45.8096 101.144 45.0835 100.71 44.9036 99.9941 44.8994 99.9774 44.8956 99.9607 44.892 99.9438 44.4783 98.2229 43.8996 96.5461 43.1642 94.9363 42.8614 94.2645 43.1604 93.4745 43.8322 93.1717 43.8328 93.1713 43.8337 93.1711 43.8344 93.1706ZM37.7158 83.8925C38.2945 83.4363 39.1334 83.5349 39.5906 84.1129 40.7726 85.6072 41.8721 87.1651 42.8836 88.7798 43.2746 89.4057 43.0843 90.2302 42.4584 90.6212 41.8325 91.0122 41.008 90.8218 40.617 90.1959 39.6576 88.6645 38.6147 87.1867 37.4931 85.7695 37.0369 85.1895 37.1367 84.3496 37.7158 83.8925ZM29.8271 76.055C30.306 75.495 31.1483 75.4293 31.7085 75.9083 31.7092 75.909 31.7101 75.9096 31.7107 75.9103 33.1313 77.1304 34.534 78.4597 35.8455 79.8224 36.3571 80.3543 36.3407 81.2001 35.8087 81.7116 35.2768 82.2233 34.4312 82.2068 33.9195 81.6749 32.6682 80.3723 31.3255 79.1032 29.9696 77.9387 29.4103 77.4577 29.3463 76.6145 29.8271 76.055ZM20.5022 70.0077C20.8451 69.3546 21.6521 69.1026 22.3057 69.4443 23.9966 70.3354 25.6309 71.3296 27.1997 72.4213 27.8187 72.8229 27.9948 73.6501 27.5932 74.2691 27.1917 74.8881 26.3643 75.0642 25.7453 74.6627 25.7228 74.648 25.7006 74.6327 25.679 74.6166 24.2003 73.5875 22.6595 72.6506 21.0655 71.8112 20.412 71.4687 20.1597 70.6614 20.5021 70.0079 20.5021 70.0079 20.5022 70.0077 20.5022 70.0077ZM9.80357 67.2556C9.84723 66.5209 10.4757 65.9591 11.2108 65.9976 13.1817 66.1317 15.1265 66.524 16.9954 67.1643 17.7026 67.3745 18.1057 68.1182 17.8956 68.8253 17.6854 69.5327 16.9418 69.9357 16.2345 69.7256 16.2088 69.718 16.1834 69.7095 16.1582 69.7004 14.5124 69.1348 12.7998 68.7868 11.0638 68.665 10.3266 68.6238 9.76246 67.9928 9.80357 67.2556Z" fill="#FFFFFF" fill-rule="nonzero" fill-opacity="1" transform="matrix(1 0 0 1.00877 404 1391)"/></g></g></g></g></svg>