<svg id="animal-lover" enable-background="new 0 0 300 300" height="512" viewBox="0 0 300 300" width="512" xmlns="http://www.w3.org/2000/svg"><g><path d="m164.789 54.761c2.362 0 4.277-1.915 4.277-4.276s-1.915-4.276-4.277-4.276c-2.361 0-4.276 1.915-4.276 4.276s1.915 4.276 4.276 4.276z"/><path d="m184.309 108.483c.781.781 1.805 1.172 2.828 1.172s2.047-.391 2.828-1.172l3.535-3.535 3.535 3.535c.781.781 1.805 1.172 2.828 1.172s2.047-.391 2.828-1.172c1.562-1.562 1.562-4.094 0-5.656l-3.535-3.535 3.535-3.535c1.562-1.562 1.562-4.094 0-5.656s-4.094-1.562-5.656 0l-3.535 3.535-3.535-3.535c-1.562-1.562-4.094-1.562-5.656 0s-1.562 4.094 0 5.656l3.535 3.535-3.535 3.535c-1.563 1.562-1.563 4.094 0 5.656z"/><circle cx="68" cy="143.792" r="6"/><path d="m262 181.792h-28c-2.211 0-4 1.791-4 4v3.431c-6.383-.958-10.35-2.512-14.805-4.279-5.699-2.26-12.16-4.822-24.633-6.59-.617-.087-1.188-.118-1.787-.184-.498-2.219-1.107-4.394-1.894-6.485 6.681-3.333 11.118-10.244 11.118-17.893 0-11.027-8.973-20-20-20-7.163 0-13.621 3.843-17.17 9.832-7.604-3.714-16.222-5.832-25.349-5.832h-2.252c-1.173-4.35-3.664-8.258-7.229-11.146v-52.854c0-2.209-1.789-4-4-4h-14c-7.812 0-14.409 5.031-16.895 12h-7.104c-9.926 0-18 8.074-18 18v22.236c-17.974 1.998-32 17.268-32 35.764v3.891c0 15.5 12.609 28.109 28.109 28.109h.288c.197 1.351.494 2.681.837 4h-17.234c-6.617 0-12 5.383-12 12v4c0 5.412 3.624 9.945 8.557 11.436-.33 1.016-.557 2.075-.557 3.187 0 5.16 3.719 9.486 8.977 10.307l90.539 11.041c.16.02.324.029.484.029.262 0 .52-.025.777-.076l59.082-11.713 28.141 7.606v8.182c0 2.209 1.789 4 4 4h28c2.211 0 4-1.791 4-4v-64c0-2.208-1.789-3.999-4-3.999zm-84-40c6.617 0 12 5.383 12 12 0 4.549-2.618 8.655-6.563 10.675-3.858-6.691-9.23-12.428-15.695-16.847 2.139-3.552 5.989-5.828 10.258-5.828zm-94-52h6v32h-16v-22c0-5.514 4.484-10 10-10zm-42 71.89v-3.891c0-15.439 12.562-28 28-28h24c2.211 0 4-1.791 4-4v-38c0-5.514 4.484-10 10-10h10v50.881c0 1.35.68 2.609 1.812 3.348 3.875 2.535 6.188 6.791 6.188 11.385v10.387c0 15.439-12.562 28-28 28h-35.891c-11.089 0-20.109-9.022-20.109-20.11zm56 28.11c19.852 0 36-16.15 36-36v-8h1.48c21.471 0 39.79 13.288 45.034 32.103-17.488.902-25.911 11.368-28.897 16.282h-34.23c-10.691 0-19.387 8.637-19.387 19.252v.363h-27.949c-.024 0-.043-.014-.067-.014-1.066-.002-2.07-.42-2.824-1.178s-1.168-1.762-1.164-2.832l.008-3.998c.004-2.179 1.766-3.94 3.933-3.979l20.079.031h.008c2.203 0 3.996-1.785 4-3.99.004-2.209-1.781-4.004-3.992-4.01l-18.39-.041c-.443-1.308-.81-2.634-1.064-3.99h27.422zm-56 16c0-2.205 1.793-4 4-4h12.738c-.442 1.246-.731 2.565-.734 3.961l-.008 3.998c-.003 1.404.273 2.757.73 4.041h-6.222-6.504c-2.207 0-4-1.795-4-4zm161.043 20.244c-.59-.158-1.211-.178-1.82-.062l-59.375 11.77-89.77-10.943c-1.203-.191-2.078-1.193-2.078-2.386 0-1.373 1.195-2.623 2.504-2.623h105.496c.508 0 1.012-.098 1.484-.285l20-8c2.051-.822 3.051-3.148 2.23-5.201-.82-2.051-3.168-3.041-5.199-2.229l-19.285 7.715h-51.23v-.363c0-6.205 5.109-11.252 11.387-11.252h36.613c1.633 0 3.098-.99 3.711-2.504.066-.168 7.137-16.883 31.727-13.396 11.531 1.633 17.266 3.906 22.809 6.105 4.998 1.98 9.769 3.856 17.754 4.922v36.019zm54.957 19.756h-20v-56h20z"/><circle cx="250" cy="197.792" r="4"/></g></svg>