<svg id="bag" enable-background="new 0 0 300 300" height="512" viewBox="0 0 300 300" width="512" xmlns="http://www.w3.org/2000/svg"><g><path d="m257.029 113.999 3.172-3.172c1.562-1.562 1.562-4.094 0-5.656s-4.094-1.562-5.656 0l-3.172 3.172-3.172-3.172c-1.562-1.562-4.094-1.562-5.656 0s-1.562 4.094 0 5.656l3.172 3.172-3.172 3.172c-1.562 1.562-1.562 4.094 0 5.656.781.781 1.805 1.172 2.828 1.172s2.047-.391 2.828-1.172l3.172-3.172 3.172 3.172c.781.781 1.805 1.172 2.828 1.172s2.047-.391 2.828-1.172c1.562-1.562 1.562-4.094 0-5.656z"/><path d="m42.904 185.233c-2.362 0-4.277 1.915-4.277 4.277s1.915 4.276 4.277 4.276 4.276-1.915 4.276-4.276-1.914-4.277-4.276-4.277z"/><path d="m166.904 113.233c-2.362 0-4.277 1.915-4.277 4.277s1.915 4.276 4.277 4.276 4.276-1.915 4.276-4.276-1.914-4.277-4.276-4.277z"/><path d="m122.904 117.233c-2.362 0-4.277 1.915-4.277 4.277s1.915 4.276 4.277 4.276 4.276-1.915 4.276-4.276-1.914-4.277-4.276-4.277z"/><path d="m150.904 117.233c-2.362 0-4.277 1.915-4.277 4.277s1.915 4.276 4.277 4.276 4.276-1.915 4.276-4.276-1.914-4.277-4.276-4.277z"/><path d="m233.372 63.999h-9.008c-15.052 0-27.618 10.788-30.405 25.035-1.698-.532-3.458-.882-5.256-.992 1.974-8.003.909-13.634-3.226-16.021-.816-.471-1.82-.85-3.023-.969 1.258-3.162 2.184-6.219 2.715-9.014 1.676-8.857-1.086-12.512-3.695-14.02-1.949-1.121-5.711-2.045-11.352 1.789-3.219-11.408-8.445-17.809-14.75-17.809s-11.531 6.4-14.75 17.809c-5.635-3.83-9.402-2.914-11.348-1.789-2.611 1.506-5.373 5.162-3.697 14.02.525 2.783 1.447 5.828 2.721 9.014-1.207.117-2.211.496-3.023.967-2.611 1.506-5.373 5.162-3.697 14.02.813 4.297 2.584 9.215 5.05 14.188-1.78.111-3.536.311-5.255.63v-5.867c0-17.088-13.902-30.99-30.99-30.99h-9.01c-2.209 0-4 1.791-4 4v9.01c0 9.39 4.214 17.801 10.831 23.489-12.976 2.435-22.831 13.83-22.831 27.502 0 1.345.107 2.68.296 4h-.296c-2.209 0-4 1.791-4 4v128c0 2.209 1.791 4 4 4h140c.789 0 1.562-.234 2.219-.672l9.781-6.521 9.781 6.521c1.227.822 2.809.895 4.105.199 1.301-.697 2.113-2.053 2.113-3.527v-128c0-1.475-.812-2.83-2.113-3.527-1.297-.695-2.879-.617-4.105.199l-1.788 1.192c-.062-10.066-6.923-18.529-16.208-21.066.064-.508.147-1.013.176-1.524.067-1.147.015-2.287-.094-3.418 15.753-1.449 28.133-14.722 28.133-30.845v-9.01c-.001-2.212-1.79-4.003-4.001-4.003zm-32.023 46.813c-.026.45-.164.882-.233 1.327-1.798.186-3.563.591-5.257 1.205-.276-.449-.539-.906-.833-1.342l4.003-4.003h2.132c.133.924.241 1.857.188 2.813zm-105.611 21.187c5.224-14.281 18.415-23.893 33.635-23.893 4.896 0 9.652 1.002 14.137 2.975 1.402.617 3.023.387 4.188-.598 5.047-4.242 11.156-6.484 17.676-6.484 15.158 0 27.514 12.487 27.958 28zm92.443-35.976c1.813.106 3.573.57 5.191 1.337v4.983l-3.543 3.543c-3.13-2.977-6.756-5.407-10.764-7.102 2.611-1.914 5.839-2.935 9.116-2.761zm-58.867-16.981c.639.109 2.213.717 4.605 2.75 1.479 1.256 3.594 1.176 5.094-.072 1.492-1.246 1.816-3.484.844-5.17-6.6-11.432-7.336-19.621-6.543-21.51.865.139 3.232 1.158 6.848 4.873 1.043 1.072 2.605 1.467 4.023 1.039 1.43-.432 2.5-1.623 2.773-3.092 2.516-13.363 6.832-17.861 8.414-17.861s5.898 4.498 8.414 17.861c.273 1.469 1.344 2.66 2.773 3.092 1.422.428 2.98.033 4.023-1.039 3.617-3.715 5.984-4.734 6.848-4.873.793 1.893.051 10.088-6.645 21.678-.988 1.682-.617 3.834.875 5.09 1.5 1.256 3.68 1.248 5.164-.016 2.387-2.025 3.957-2.637 4.602-2.748.417 1.068.492 4.55-1.406 10.271-3.843 1.372-7.27 3.804-9.854 7.05-1.573-.216-3.165-.366-4.795-.366-7.488 0-14.82 2.416-20.891 6.844-2.784-1.046-5.653-1.758-8.573-2.205l-.052-.088c-6.596-11.428-7.334-19.617-6.541-21.508zm-43.942-2.033v-5.01h5.01c12.448 0 22.591 9.948 22.956 22.309l-9.137-9.137c-1.562-1.562-4.094-1.562-5.656 0s-1.562 4.094 0 5.656l9.137 9.137c-12.361-.364-22.31-10.507-22.31-22.955zm-12 50.99c0-11.027 8.973-20 20-20 2.943 0 5.808.72 8.443 1.951-6.749 5.535-11.87 13.133-14.507 22.049h-13.484c-.267-1.312-.452-2.643-.452-4zm152 128.526-4-2.666v-61.859c0-2.209-1.789-4-4-4s-4 1.791-4 4v61.859l-9.211 6.141h-134.789v-120h132v108c0 2.209 1.789 4 4 4s4-1.791 4-4v-104.527l5.781 3.854c1.046.696 2.332.834 3.487.446 1.249-.052 2.456-.671 3.193-1.8.047-.072.077-.151.123-.223l3.416-2.277zm-8-122.526c0 1.601-.301 3.161-.823 4.645l-8.958-5.973c-.656-.438-1.43-.672-2.219-.672h-4.042c-.09-3.966-.798-7.769-2.023-11.333 1.309-.399 2.655-.667 4.065-.667 7.719 0 14 6.282 14 14zm12-56.99c0 12.447-9.947 22.59-22.309 22.956l9.137-9.137c1.562-1.562 1.562-4.094 0-5.656s-4.094-1.562-5.656 0l-9.137 9.137c.365-12.361 10.508-22.309 22.958-22.309h5.008v5.009z"/></g></svg>