<svg id="balls" enable-background="new 0 0 300 300" height="512" viewBox="0 0 300 300" width="512" xmlns="http://www.w3.org/2000/svg"><g><path d="m247.932 79.667c2.209 0 4-1.791 4-4s-1.791-4-4-4-4 1.791-4 4 1.791 4 4 4z"/><path d="m219.36 50.947c.781.781 1.805 1.172 2.828 1.172s2.047-.391 2.828-1.172l3.067-3.068 3.067 3.068c.781.781 1.805 1.172 2.828 1.172s2.047-.391 2.828-1.172c1.562-1.561 1.562-4.094 0-5.656l-3.068-3.068 3.068-3.068c1.562-1.562 1.562-4.096 0-5.656-1.562-1.562-4.094-1.562-5.656 0l-3.067 3.068-3.067-3.068c-1.562-1.562-4.094-1.562-5.656 0-1.562 1.561-1.562 4.094 0 5.656l3.068 3.068-3.068 3.068c-1.562 1.563-1.562 4.096 0 5.656z"/><path d="m82.007 179.674c6.617 0 12-5.383 12-12 0-2.209-1.791-4-4-4s-4 1.791-4 4c0 2.205-1.795 4-4 4s-4-1.795-4-4 1.795-4 4-4c2.209 0 4-1.791 4-4s-1.791-4-4-4c-6.617 0-12 5.383-12 12s5.383 12 12 12z"/><path d="m88.007 146.203c2.501 0 4.53-2.028 4.53-4.529 0-2.502-2.028-4.53-4.53-4.53s-4.53 2.028-4.53 4.53c0 2.501 2.028 4.529 4.53 4.529z"/><path d="m120.007 157.144c-2.501 0-4.53 2.028-4.53 4.53 0 2.501 2.028 4.529 4.53 4.529s4.53-2.028 4.53-4.529c-.001-2.502-2.029-4.53-4.53-4.53z"/><path d="m144.007 178.203c2.501 0 4.53-2.028 4.53-4.529 0-2.502-2.028-4.53-4.53-4.53s-4.53 2.028-4.53 4.53c0 2.501 2.028 4.529 4.53 4.529z"/><path d="m150.007 151.674c-2.209 0-4 1.791-4 4s1.791 4 4 4c6.617 0 12-5.383 12-12s-5.383-12-12-12c-2.209 0-4 1.791-4 4s1.791 4 4 4c2.205 0 4 1.795 4 4s-1.795 4-4 4z"/><path d="m114.007 99.674c-6.617 0-12 5.383-12 12 0 2.209 1.791 4 4 4s4-1.791 4-4c0-2.205 1.795-4 4-4 1.031 0 2.01.391 2.754 1.098 1.6 1.523 4.137 1.463 5.654-.143 1.523-1.6 1.459-4.133-.143-5.654-2.238-2.129-5.173-3.301-8.265-3.301z"/><path d="m261.993 143.338c-.176-2.072-1.908-3.664-3.986-3.664h-1.166c-7.847-54.93-54.967-96-110.834-96-61.758 0-112 50.242-112 112s50.242 112 112 112c30.115 0 58.529-11.983 79.495-33.151l-.675 25.043c-.061 2.207 1.682 4.047 3.891 4.105.037.002.072.002.109.002 2.158 0 3.938-1.721 3.996-3.893l1.104-40.887c.035-1.289-.553-2.516-1.58-3.295l-9.801-7.432c-5.348-4.059-8.539-10.488-8.553-16.861l3.689-43.633h.744l3.605 32.441c.215 1.945 1.805 3.447 3.758 3.553 1.992.117 3.697-1.217 4.121-3.127l6.096-27.428 6.096 27.428c.424 1.91 2.158 3.244 4.121 3.127 1.953-.105 3.543-1.607 3.758-3.553l3.605-32.441h.744l3.676 43.508c0 6.697-3.029 12.902-8.311 17.021l-10.062 7.85c-1 .781-1.572 1.992-1.537 3.262l1.092 40.467c.061 2.211 1.977 4.023 4.105 3.891 2.209-.059 3.951-1.898 3.891-4.105l-1.037-38.447 8.471-6.607c7.238-5.646 11.389-14.15 11.375-23.666zm-34.67 11.969-1.342-12.074c-.225-2.025-1.936-3.559-3.975-3.559h-8c-2.078 0-3.811 1.592-3.986 3.662l-4.014 47.633c0 6.2 2.025 12.197 5.564 17.168-16.05 20.051-39.823 31.537-65.564 31.537-2.389 0-4.778-.125-7.156-.325 1.989-2.971 3.156-6.536 3.156-10.372v-13.303c0-2.209-1.791-4-4-4h-5.303c-5.991 0-11.273 2.882-14.697 7.278-3.424-4.396-8.706-7.278-14.697-7.278h-5.303c-2.209 0-4 1.791-4 4v5.958c-9.706-7.675-17.593-17.469-23.114-28.486.315.059.613.165.933.209 2 .275 3.906 1.064 5.512 2.281 3.521 2.666 7.742 3.998 11.963 3.998 4.219 0 8.439-1.332 11.959-3.998 1.607-1.215 3.514-2.006 5.516-2.281 3.105-.432 6.01-1.586 8.551-3.348 2.49 1.722 5.372 2.915 8.5 3.348 2 .275 3.906 1.064 5.512 2.281 3.521 2.666 7.742 3.998 11.963 3.998 4.219 0 8.439-1.332 11.959-3.998 1.607-1.215 3.514-2.006 5.514-2.281 8.748-1.211 15.705-8.168 16.916-16.916.275-2 1.066-3.906 2.281-5.514 5.332-7.041 5.332-16.879 0-23.922-1.217-1.605-2.006-3.512-2.281-5.512-1.066-7.704-6.593-14.008-13.871-16.232.383-3.301-.061-6.638-1.298-9.708 9.738-.637 17.487-8.679 17.487-18.575v-13.302c0-2.209-1.791-4-4-4h-5.303c-5.991 0-11.273 2.882-14.697 7.278-3.424-4.396-8.706-7.278-14.697-7.278h-5.303c-2.209 0-4 1.791-4 4v.664c-6.612-3.225-14.655-2.596-20.67 1.955-1.607 1.217-3.514 2.008-5.512 2.283-8.748 1.211-15.705 8.168-16.916 16.916-.275 1.998-1.066 3.904-2.283 5.514-2.057 2.719-3.311 5.881-3.775 9.221-1.22.573-2.41 1.23-3.514 2.066-1.607 1.217-3.514 2.008-5.512 2.283-1.51.209-2.938.645-4.321 1.176 12.201-32.031 43.236-54.078 78.502-54.078 42.708 0 78.493 31.868 83.417 74.183zm-105.316 75.064c0-5.898 4.799-10.697 10.697-10.697h1.303v9.303c0 5.898-4.799 10.697-10.697 10.697h-1.303zm-8 9.303h-1.303c-5.898 0-10.697-4.799-10.697-10.697v-9.303h1.303c5.898 0 10.697 4.799 10.697 10.697zm-55.002-87.842c2.041-2.695 3.365-5.891 3.83-9.242.721-5.219 4.869-9.367 10.088-10.088 3.352-.465 6.547-1.789 9.242-3.83 4.203-3.176 10.07-3.172 14.266 0 2.699 2.041 5.895 3.365 9.246 3.83 1.437.199 2.792.683 4.044 1.369-1.414 2.288-2.428 4.847-2.812 7.621-.275 1.998-1.066 3.904-2.283 5.512-5.33 7.043-5.328 16.881 0 23.922 1.217 1.609 2.008 3.516 2.283 5.514.384 2.774 1.398 5.333 2.812 7.621-1.251.686-2.607 1.17-4.046 1.37-3.352.465-6.547 1.789-9.244 3.828-4.197 3.18-10.064 3.18-14.266 0-2.693-2.039-5.889-3.363-9.242-3.828-5.219-.721-9.367-4.869-10.088-10.088-.465-3.35-1.789-6.545-3.83-9.244-3.178-4.201-3.178-10.068 0-14.267zm89.699-36.158h2.779c.038.052.07.107.108.158 1.507 1.991 2.247 4.392 2.312 6.83-.207-.137-.446-.219-.645-.369-7.045-5.33-16.881-5.326-23.922 0-1.607 1.217-3.514 2.008-5.512 2.283-3.131.433-6.016 1.628-8.506 3.352-2.544-1.763-5.448-2.922-8.546-3.352-1.998-.275-3.904-1.066-5.514-2.283-3.439-2.602-7.544-3.911-11.664-3.972.375-.873.825-1.717 1.41-2.489 2.041-2.695 3.365-5.891 3.83-9.242.721-5.219 4.869-9.367 10.088-10.088 3.352-.465 6.547-1.789 9.242-3.83 4.197-3.178 10.068-3.18 14.262-.002.491.372 1.055.635 1.58.96v3.347c.001 10.31 8.388 18.697 18.698 18.697zm-33.869 59.668c-.465-3.35-1.789-6.545-3.83-9.244-3.178-4.199-3.178-10.066 0-14.266 2.041-2.695 3.365-5.891 3.83-9.242.721-5.219 4.869-9.367 10.088-10.088 3.352-.465 6.547-1.789 9.242-3.83 2.1-1.588 4.617-2.383 7.133-2.383 2.518 0 5.033.795 7.133 2.383 2.699 2.041 5.895 3.365 9.244 3.83 5.219.721 9.367 4.869 10.088 10.088.465 3.354 1.789 6.549 3.828 9.242 3.18 4.201 3.18 10.066 0 14.266-2.039 2.697-3.363 5.893-3.828 9.244-.721 5.219-4.869 9.367-10.088 10.088-3.352.465-6.547 1.789-9.244 3.828-4.197 3.18-10.064 3.18-14.266 0-2.693-2.039-5.889-3.363-9.242-3.828-5.219-.721-9.367-4.869-10.088-10.088zm43.172-67.668v-9.303c0-5.898 4.799-10.697 10.697-10.697h1.303v9.303c0 5.898-4.799 10.697-10.697 10.697zm-8 0h-1.303c-5.898 0-10.697-4.799-10.697-10.697v-9.303h1.303c5.898 0 10.697 4.799 10.697 10.697zm96.025 35.558-1.342 12.074-2.779-12.5c-.406-1.83-2.029-3.133-3.904-3.133h-1.477c-7.643-43.694-45.542-76-90.523-76-43.965 0-81.947 31.277-90.311 74.373-.005.027.005.052 0 .08-.353 1.086-.627 2.207-.788 3.366-.275 1.998-1.066 3.904-2.283 5.512-5.33 7.043-5.328 16.881 0 23.922 1.217 1.609 2.008 3.516 2.283 5.514.507 3.66 2.062 6.97 4.291 9.713 6.472 18.425 18.892 34.52 35.083 45.559 1.337 9.008 9.047 15.962 18.421 15.962h10.605c2.471 0 4.821-.507 6.982-1.382 5.164.89 10.438 1.382 15.715 1.382 27.814 0 53.529-12.243 71.091-33.657.21.169.397.361.612.524l8.164 6.191-.042 1.575c-19.844 23.75-48.873 37.366-79.825 37.366-57.346 0-104-46.654-104-104s46.654-104 104-104c51.57 0 95.118 37.68 102.791 88.226-1.464.471-2.586 1.73-2.764 3.333z"/></g></svg>