<svg id="broccoli" enable-background="new 0 0 300 300" height="512" viewBox="0 0 300 300" width="512" xmlns="http://www.w3.org/2000/svg"><g><path d="m134.788 52.392c.781.781 1.805 1.172 2.828 1.172s2.047-.391 2.828-1.172l2.828-2.829 2.828 2.829c.781.781 1.805 1.172 2.828 1.172s2.047-.391 2.828-1.172c1.562-1.561 1.562-4.094 0-5.656l-2.829-2.829 2.829-2.829c1.562-1.562 1.562-4.096 0-5.656-1.562-1.562-4.094-1.562-5.656 0l-2.828 2.829-2.828-2.829c-1.562-1.562-4.094-1.562-5.656 0-1.562 1.561-1.562 4.094 0 5.656l2.829 2.829-2.829 2.829c-1.563 1.562-1.563 4.095 0 5.656z"/><path d="m241.885 93.751c6.617 0 12-5.383 12-12s-5.383-12-12-12-12 5.383-12 12 5.383 12 12 12zm0-16c2.207 0 4 1.795 4 4s-1.793 4-4 4-4-1.795-4-4 1.793-4 4-4z"/><path d="m268.721 139.509c-3.473-3.387-8.258-5.154-13.07-4.816l-33.473 2.23c-2.199.145-4.246-.596-5.832-2.082-1.586-1.484-2.461-3.5-2.461-5.674v-38.457c0-9.024-7.101-16.355-16-16.862v-28.097c0-2.209-1.789-4-4-4-18.498 0-33.766 14.028-35.764 32h-91.279c-9.352 0-16.957 7.607-16.957 16.959v11.636c-2.333 2.781-3.77 6.339-3.77 10.245 0 .168.004.336.008.504-6.898 1.777-12.008 8.051-12.008 15.496 0 1.461.264 2.882.652 4.274-.389 1.18-.652 2.417-.652 3.726 0 .227.008.453.019.678-4.664 1.646-8.019 6.1-8.019 11.322 0 6.844 5.844 12.367 12.68 11.98 1.62 4.596 5.969 7.903 11.09 8.001v44.219c0 9.352 7.605 16.959 16.957 16.959h103.043v22c0 7.719 6.281 14 14 14s14-6.281 14-14v-22.097c8.899-.508 16-7.838 16-16.862v-38.457c0-2.174.875-4.189 2.461-5.674 1.586-1.486 3.633-2.227 5.832-2.082l32.711 2.18c4.871.35 9.77-1.355 13.398-4.615 3.418-3.07 5.402-7.219 5.582-11.678.2-4.853-1.675-9.575-5.148-12.956zm-102.836-61.758c0-14.082 10.449-25.768 24-27.715v139.715h-24zm-119.769 78.84c0-.162.035-.318.078-.613.215-1.531-.469-3.049-1.758-3.9-1.293-.848-2.957-.879-4.277-.08-2.676 1.623-6.043-.494-6.043-3.406 0-2.205 1.793-4 4-4 .188 0 .363.041.578.074 1.523.232 3.062-.443 3.926-1.734.859-1.291.898-2.965.094-4.291-.398-.656-.598-1.346-.598-2.049 0-2.205 1.793-4 4-4 .801 0 1.578.236 2.242.686 1.836 1.238 4.32.754 5.555-1.076s.754-4.316-1.078-5.553c-1.992-1.346-4.316-2.057-6.719-2.057-1.096 0-2.137.195-3.147.472 1.302-2.637 3.972-4.47 7.03-4.47h.004c.102.014.523.061.625.066 1.332.098 2.637-.516 3.449-1.594.805-1.078 1.016-2.49.559-3.756-.348-.971-.519-1.859-.519-2.719 0-4.412 3.59-8 7.848-8.002.109.016.531.062.641.068 1.844.068 3.418-.994 4.004-2.678 1.121-3.223 4.141-5.389 7.508-5.389 2.684 0 5.176 1.344 6.668 3.594 1.477 2.234 5.188 2.234 6.664 0 1.492-2.25 3.984-3.594 6.668-3.594 3.312 0 6.312 2.109 7.469 5.25.48 1.305 1.605 2.266 2.969 2.539 1.363.279 2.773-.182 3.715-1.199 1.551-1.67 3.629-2.59 5.848-2.59 3.085 0 5.75 1.764 7.085 4.328-1.007-.198-2.033-.328-3.085-.328-2.211 0-4 1.791-4 4s1.789 4 4 4c2.223 0 4.297.918 5.844 2.588.945 1.02 2.352 1.475 3.719 1.201 1.363-.271 2.488-1.234 2.969-2.539 1.156-3.141 4.156-5.25 7.469-5.25 4.41 0 8 3.588 8 8 0 3.578-2.438 6.734-5.922 7.678-1.105.299-2.027 1.055-2.535 2.076-.512 1.023-.559 2.215-.133 3.275.391.977.59 1.977.59 2.971 0 4.412-3.59 8-8 8s-8-3.588-8-8c0-2.209-1.789-4-4-4-4.41 0-8-3.588-8-8 0-2.209-1.789-4-4-4s-4 1.791-4 4c0 2.786.727 5.401 1.984 7.685-3.169.747-6.781-.455-8.652-3.276-1.477-2.234-5.188-2.234-6.664 0-1.973 2.973-5.434 4.502-9.379 3.074-1.281-.465-2.684-.252-3.758.557-1.078.807-1.68 2.102-1.598 3.447.004.098.055.416.066.514 0 4.1-3.111 7.448-7.087 7.908 1.914-2.146 3.087-4.914 3.087-7.908 0-2.209-1.789-4-4-4s-4 1.791-4 4c0 1.678-1.082 3.182-2.691 3.746-1.172.41-2.086 1.342-2.477 2.52-.391 1.18-.211 2.473.484 3.5.449.658.684 1.432.684 2.234 0 1.678-1.082 3.182-2.691 3.746-1.172.41-2.086 1.342-2.477 2.52-.391 1.18-.211 2.473.484 3.5.449.658.684 1.432.684 2.234 0 2.205-1.793 4-4 4s-4.003-1.795-4.003-4zm76.457 35.365-17.727 9.066c-.566-4.061-1.637-9.521-3.625-14.309-5.164-12.413-19.38-24.362-31.074-32.582l17.625 7.596c.508.219 1.047.326 1.582.326.984 0 1.957-.363 2.707-1.057 1.164-1.068 1.586-2.721 1.086-4.217l-6.975-20.768c1.502-.396 2.926-.994 4.244-1.8l5.684 17.146c.48 1.455 1.754 2.506 3.27 2.707.176.023.352.035.527.035 1.332 0 2.59-.664 3.336-1.795l10.768-16.289c.177.047.341.126.521.168.284 1.231.756 2.381 1.306 3.486-1.512 2.5-3.229 5.154-4.649 7.344-1.145 1.766-2.098 3.24-2.621 4.121-10.305 17.445 5.195 33.572 14.015 40.822zm-43.059-50.635 3.196 9.514-9.336-4.024c2.49-1.276 4.617-3.161 6.14-5.49zm20.012-5.056c1.539.242 3.111.282 4.663.093l-3.084 4.666zm-32.684 85.486c-4.938 0-8.957-4.02-8.957-8.959v-47.132c2.176-1.866 3.659-4.472 4.066-7.446 10.363 6.95 26.835 19.44 31.879 31.571 3.113 7.488 3.625 17.553 3.629 17.654.066 1.357.812 2.59 1.988 3.271.621.359 1.316.541 2.012.541.621 0 1.246-.146 1.816-.439l28.66-14.66c1.273-.65 2.102-1.932 2.172-3.357.074-1.428-.621-2.785-1.82-3.562-.266-.172-26.602-17.502-16.84-34.027.484-.822 1.375-2.193 2.441-3.836 1.064-1.642 2.29-3.541 3.483-5.447 2.521 1.66 5.506 2.67 8.743 2.67 8.824 0 16-7.178 16-16 0-.707-.047-1.412-.145-2.111 4.938-2.785 8.145-8.057 8.145-13.889 0-8.822-7.176-16-16-16-3.263 0-6.328 1.085-8.923 2.86-2.154-6.294-8.062-10.86-15.077-10.86-2.707 0-5.301.672-7.613 1.939-2.98-3.678-7.516-5.939-12.387-5.939-3.691 0-7.199 1.266-10 3.516-2.801-2.25-6.309-3.516-10-3.516-5.789 0-11.059 3.164-13.863 8.107-.814.095-1.595.289-2.367.502v-6.49c0-4.939 4.02-8.959 8.957-8.959h91.043v112c0 2.209 1.789 4 4 4h8v24h-103.042zm123.043 30c0 3.309-2.691 6-6 6s-6-2.691-6-6v-54h12zm73.055-93.561c-2.035 1.83-4.762 2.758-7.52 2.588l-32.711-2.18c-4.324-.293-8.648 1.248-11.828 4.219-3.176 2.971-4.996 7.17-4.996 11.518v38.457c0 4.612-3.517 8.377-8 8.862v-27.903-111.903c4.483.485 8 4.25 8 8.862v38.457c0 4.348 1.82 8.547 4.996 11.518 3.176 2.973 7.488 4.51 11.828 4.219l33.473-2.23c2.609-.15 5.109.764 6.957 2.564 1.871 1.826 2.844 4.277 2.738 6.902-.093 2.285-1.136 4.435-2.937 6.05z"/><path d="m119.615 247.32c-2.501 0-4.529 2.028-4.529 4.53s2.028 4.53 4.529 4.53c2.502 0 4.53-2.028 4.53-4.53s-2.028-4.53-4.53-4.53z"/><path d="m255.417 146.985c-2.362 0-4.277 1.915-4.277 4.277s1.915 4.276 4.277 4.276 4.276-1.915 4.276-4.276-1.914-4.277-4.276-4.277z"/></g></svg>