<svg id="burger" enable-background="new 0 0 300 300" height="512" viewBox="0 0 300 300" width="512" xmlns="http://www.w3.org/2000/svg"><g><path d="m252 102.003c7.719 0 14-6.281 14-14s-6.281-14-14-14-14 6.281-14 14 6.281 14 14 14zm0-20c3.309 0 6 2.691 6 6s-2.691 6-6 6-6-2.691-6-6 2.691-6 6-6z"/><path d="m91.926 53.997c2.209 0 4-1.791 4-4s-1.791-4-4-4-4 1.791-4 4c0 2.208 1.79 4 4 4z"/><path d="m195.926 69.997c2.209 0 4-1.791 4-4s-1.791-4-4-4-4 1.791-4 4c0 2.208 1.79 4 4 4z"/><path d="m115.354 89.277c.781.781 1.805 1.172 2.828 1.172s2.047-.391 2.828-1.172l3.067-3.068 3.067 3.068c.781.781 1.805 1.172 2.828 1.172s2.047-.391 2.828-1.172c1.562-1.561 1.562-4.094 0-5.656l-3.068-3.068 3.068-3.068c1.562-1.562 1.562-4.096 0-5.656-1.562-1.562-4.094-1.562-5.656 0l-3.067 3.068-3.067-3.068c-1.562-1.562-4.094-1.562-5.656 0-1.562 1.561-1.562 4.094 0 5.656l3.068 3.068-3.068 3.068c-1.563 1.562-1.563 4.095 0 5.656z"/><path d="m266 246.003h-33.293c2.16-2.559 3.814-5.589 4.67-9.012l4.504-18.018c.299-1.195.029-2.461-.729-3.432s-1.92-1.539-3.152-1.539h-6.45l2.245-6.734c.406-1.221.201-2.561-.551-3.604-.752-1.045-1.959-1.662-3.244-1.662h-5.492c3.402-4.251 5.492-9.85 5.492-16 0-2.209-1.791-4-4-4h-4v-16h16c1.168 0 2.279-.512 3.039-1.398.76-.889 1.094-2.064.912-3.221-5.295-33.852-37.396-59.381-74.67-59.381h-42.562c-37.273 0-69.375 25.529-74.67 59.381-.182 1.156.152 2.332.912 3.221.76.887 1.871 1.398 3.039 1.398h16v16h-4c-2.209 0-4 1.791-4 4 0 6.15 2.09 11.749 5.492 16h-5.492c-1.285 0-2.494.617-3.244 1.662-.752 1.043-.957 2.383-.551 3.604l2.245 6.734h-6.45c-1.232 0-2.395.568-3.152 1.539s-1.027 2.236-.729 3.432l4.504 18.018c.856 3.423 2.51 6.453 4.67 9.012h-25.293c-2.209 0-4 1.791-4 4s1.791 4 4 4h232c2.209 0 4-1.791 4-4s-1.791-4-4-4zm-64.737-36h23.188l-1.334 4h-24.238c1.042-1.155 1.851-2.505 2.384-4zm.737-8v-12h5.426 10.574 3.576c-1.49 6.893-6.738 12-12.967 12zm-77.281-92h42.562c31.635 0 59.076 20.328 65.842 48h-174.246c6.766-27.671 34.207-48 65.842-48zm89.281 56v4h-136v-4zm-136 12h136v4h-6.574-9.426c-2.209 0-4 1.791-4 4v20c0 2.205-1.795 4-4 4h-4c-2.209 0-4 1.791-4 4v4c0 2.205-1.795 4-4 4s-4-1.795-4-4v-32c0-2.209-1.791-4-4-4h-79.535-12.465zm-7.576 12h3.576 16.465 75.535v12h-82.609c-6.229 0-11.477-5.107-12.967-12zm-2.875 20h98.451v4h-97.117zm64.67 12-6.219 8.977-6.219-8.977zm-24 0-6.219 8.977-6.219-8.977zm-31.807 24c-6.646 0-12.416-4.504-14.027-10.953l-3.262-13.047h6.877 20.051l12.662 18.277c.746 1.08 1.975 1.723 3.287 1.723s2.541-.643 3.287-1.723l8.713-12.576 8.713 12.577c.746 1.08 1.975 1.723 3.287 1.723s2.541-.643 3.287-1.723l12.662-18.277h24.788c1.656 4.646 6.055 8 11.263 8s9.606-3.354 11.263-8h36.737 6.877l-3.262 13.047c-1.611 6.449-7.381 10.953-14.027 10.953h-139.176z"/><path d="m107.926 129.997c2.209 0 4-1.791 4-4s-1.791-4-4-4-4 1.791-4 4c0 2.208 1.79 4 4 4z"/><path d="m107.926 141.996c0 2.209 1.791 4 4 4s4-1.791 4-4-1.791-4-4-4-4 1.791-4 4z"/><path d="m127.926 133.997c2.209 0 4-1.791 4-4s-1.791-4-4-4-4 1.791-4 4c0 2.208 1.79 4 4 4z"/><path d="m91.926 149.997c2.209 0 4-1.791 4-4s-1.791-4-4-4-4 1.791-4 4c0 2.208 1.79 4 4 4z"/><path d="m127.926 145.996c0 2.209 1.791 4 4 4s4-1.791 4-4-1.791-4-4-4-4 1.791-4 4z"/></g></svg>