<svg id="honey" enable-background="new 0 0 300 300" height="512" viewBox="0 0 300 300" width="512" xmlns="http://www.w3.org/2000/svg"><g><path d="m79.172 54.828c.781.781 1.805 1.172 2.828 1.172s2.047-.391 2.828-1.172l3.172-3.172 3.172 3.172c.781.781 1.805 1.172 2.828 1.172s2.047-.391 2.828-1.172c1.562-1.562 1.562-4.094 0-5.656l-3.172-3.172 3.172-3.172c1.562-1.562 1.562-4.094 0-5.656s-4.094-1.562-5.656 0l-3.172 3.172-3.172-3.172c-1.562-1.562-4.094-1.562-5.656 0s-1.562 4.094 0 5.656l3.172 3.172-3.172 3.172c-1.563 1.562-1.563 4.094 0 5.656z"/><path d="m51.532 61.787c2.362 0 4.276-1.915 4.276-4.276s-1.915-4.277-4.276-4.277-4.277 1.915-4.277 4.277 1.915 4.276 4.277 4.276z"/><path d="m150 56c-57.346 0-104 46.654-104 104s46.654 104 104 104 104-46.654 104-104-46.654-104-104-104zm0 200c-52.934 0-96-43.066-96-96s43.066-96 96-96 96 43.066 96 96-43.066 96-96 96z"/><path d="m217.838 104.008c-.717-.869-1.768-1.393-2.893-1.447-1.152-.039-2.223.373-3.018 1.168l-34.509 34.509c.24-3.037-.67-6.114-2.727-8.585l31.58-31.58c.797-.797 1.221-1.893 1.168-3.018-.055-1.125-.58-2.176-1.447-2.893-15.728-13.002-35.613-20.162-55.992-20.162-48.523 0-88 39.477-88 88 0 20.385 7.16 40.27 20.162 55.992.717.869 1.768 1.393 2.893 1.447.064.002.127.004.189.004 1.059 0 2.076-.42 2.828-1.172l25.016-25.016v7.289c0 1.196.246 2.327.632 3.391l-19.992 19.992c-.797.797-1.221 1.893-1.168 3.018.055 1.125.58 2.176 1.447 2.895 6.368 5.264 13.418 9.562 20.945 12.842 1.829 4.297 6.091 7.318 11.048 7.318 2.308 0 4.446-.686 6.278-1.82 5.805 1.192 11.757 1.82 17.722 1.82 48.523 0 88-39.477 88-88 0-20.381-7.16-40.268-20.162-55.992zm-49.494 36.109-25.457 25.457c-1.559 1.559-4.098 1.559-5.656 0-1.559-1.561-1.559-4.098 0-5.658l25.455-25.455c.779-.779 1.805-1.17 2.828-1.17 1.025 0 2.051.391 2.83 1.17 1.558 1.559 1.558 4.098 0 5.656zm-11.315-11.312-25.455 25.455c-1.562 1.557-4.104 1.557-5.658 0-.754-.756-1.17-1.76-1.17-2.828s.416-2.072 1.17-2.828l25.457-25.457c.756-.754 1.76-1.17 2.828-1.17s2.072.416 2.828 1.17c1.559 1.56 1.559 4.097 0 5.658zm-33.941 11.314-4.117-4.119c-.848-.85-.848-2.229 0-3.078l16.721-16.721c.848-.848 2.23-.848 3.078 0l4.119 4.118zm-2 58.426v-37.953c2.049 1.712 4.513 2.644 7.036 2.774.148 2.862 1.269 5.684 3.45 7.864 2.34 2.34 5.412 3.51 8.484 3.51.345 0 .686-.069 1.029-.099v7.903c0 1.104-.896 2-2 2h-4c-.186 0-.402-.045-.666-.139-1.221-.432-2.584-.244-3.643.506-1.061.748-1.691 1.967-1.691 3.266v10.367c0 1.104-.896 2-2 2h-4c-1.103.001-1.999-.896-1.999-1.999zm50.083-49.943 4.118 4.119c.848.85.848 2.229 0 3.078l-16.721 16.721c-.848.848-2.23.848-3.078 0l-4.119-4.118zm-85.56 58.816c-10.095-13.689-15.611-30.361-15.611-47.418 0-44.111 35.889-80 80-80 17.053 0 33.725 5.516 47.418 15.611l-29.874 29.876c-.466-.08-.937-.11-1.408-.135-.148-2.862-1.269-5.683-3.45-7.863-3.683-3.683-9.164-4.422-13.62-2.307l-4.64-4.638c-3.969-3.969-10.422-3.969-14.391 0l-16.721 16.721c-3.882 3.881-3.94 10.129-.227 14.113v38.564zm36.389 28.582v-8c0-2.205 1.795-4 4-4s4 1.795 4 4v8c0 2.205-1.795 4-4 4s-4-1.795-4-4zm28 4c-4.171 0-8.333-.336-12.433-.978.255-.971.433-1.972.433-3.022v-8c0-6.617-5.383-12-12-12s-12 5.383-12 12v3.409c-3.986-2.018-7.811-4.354-11.42-7.02l16.628-16.628c1.194.504 2.504.784 3.88.784h4c5.514 0 10-4.486 10-10v-6h2c5.514 0 10-4.486 10-10v-5.115l.746.746c1.984 1.984 4.59 2.977 7.195 2.977s5.211-.992 7.195-2.977l1.29-1.29 25.438 25.44c.781.781 1.805 1.172 2.828 1.172s2.047-.391 2.828-1.172c1.562-1.562 1.562-4.094 0-5.656l-25.438-25.44 2.828-2.828 25.44 25.438c.781.781 1.805 1.172 2.828 1.172s2.047-.391 2.828-1.172c1.562-1.562 1.562-4.094 0-5.656l-25.44-25.438 1.29-1.29c3.969-3.967 3.969-10.424 0-14.391l-.52-.521 33.964-33.962c10.096 13.691 15.612 30.363 15.612 47.418 0 44.111-35.889 80-80 80z"/><path d="m154 196c-6.617 0-12 5.383-12 12v8c0 6.617 5.383 12 12 12s12-5.383 12-12v-8c0-6.617-5.383-12-12-12zm4 20c0 2.205-1.795 4-4 4s-4-1.795-4-4v-8c0-2.205 1.795-4 4-4s4 1.795 4 4z"/></g></svg>