<svg id="no-cheesse" enable-background="new 0 0 300 300" height="512" viewBox="0 0 300 300" width="512" xmlns="http://www.w3.org/2000/svg"><g><path d="m54 91.383c1.023 0 2.047-.391 2.828-1.172 1.562-1.562 1.562-4.094 0-5.656l-3.172-3.172 3.172-3.172c1.562-1.562 1.562-4.094 0-5.656s-4.094-1.562-5.656 0l-3.172 3.172-3.172-3.172c-1.562-1.562-4.094-1.562-5.656 0s-1.562 4.094 0 5.656l3.172 3.172-3.172 3.172c-1.562 1.562-1.562 4.094 0 5.656.781.781 1.805 1.172 2.828 1.172s2.047-.391 2.828-1.172l3.172-3.172 3.172 3.172c.781.782 1.805 1.172 2.828 1.172z"/><path d="m75.532 53.17c2.362 0 4.276-1.915 4.276-4.276s-1.915-4.277-4.276-4.277-4.277 1.915-4.277 4.277 1.915 4.276 4.277 4.276z"/><path d="m158 47.383c-57.348 0-104 46.654-104 104s46.652 104 104 104 104-46.654 104-104-46.652-104-104-104zm0 200c-52.934 0-96-43.066-96-96s43.066-96 96-96 96 43.066 96 96-43.066 96-96 96z"/><path d="m225.84 95.391c-.715-.867-1.766-1.393-2.895-1.447-1.133-.021-2.223.371-3.016 1.168l-20.273 20.271h-11.311l25.925-25.928c.797-.797 1.219-1.893 1.168-3.018-.055-1.125-.578-2.176-1.449-2.893-15.723-13.001-35.61-20.161-55.989-20.161-48.523 0-88 39.477-88 88 0 20.381 7.16 40.266 20.16 55.992.715.867 1.766 1.393 2.895 1.447.062.002.125.004.188.004 1.059 0 2.078-.42 2.828-1.172l20.271-20.271h11.314l-25.929 25.928c-.797.797-1.219 1.893-1.168 3.018.055 1.125.578 2.176 1.449 2.893 15.727 13.002 35.609 20.162 55.992 20.162 48.523 0 88-39.477 88-88 0-20.38-7.16-40.264-20.16-55.993zm-100.727 83.992c1.388-2.38 3.94-4 6.887-4s5.499 1.62 6.887 4zm22.319 0c-1.789-6.881-7.997-12-15.432-12s-13.643 5.119-15.432 12h-10.568v-21.352c4.781-2.277 8-7.17 8-12.648s-3.219-10.371-8-12.648v-9.352h60.483c1.829 8 8.97 14 17.517 14s15.688-6 17.517-14h8.483v56h-12.684c-1.652-4.656-6.102-8-11.316-8s-9.664 3.344-11.316 8zm45.721-56c-1.547 3.525-5.061 6-9.153 6s-7.605-2.475-9.153-6zm-99.544 75.418c-10.093-13.693-15.609-30.365-15.609-47.418 0-44.111 35.887-80 80-80 17.055 0 33.723 5.516 47.418 15.611l-28.385 28.389h-75.033c-2.211 0-4 1.791-4 4v16.201c0 1.902 1.34 3.541 3.203 3.92 2.781.564 4.797 3.037 4.797 5.879s-2.016 5.314-4.797 5.879c-1.863.379-3.203 2.018-3.203 3.92v28.201c0 2.209 1.789 4 4 4h3.029zm64.391 32.582c-17.055 0-33.727-5.516-47.422-15.611l28.391-28.389h39.031c2.211 0 4-1.791 4-4 0-2.205 1.793-4 4-4s4 1.795 4 4c0 2.209 1.789 4 4 4h20c2.211 0 4-1.791 4-4v-64c0-2.209-1.789-4-4-4h-3.03l11.42-11.418c10.094 13.696 15.61 30.367 15.61 47.418 0 44.112-35.887 80-80 80z"/><path d="m150 135.383c-6.617 0-12 5.383-12 12s5.383 12 12 12 12-5.383 12-12-5.383-12-12-12zm0 16c-2.207 0-4-1.795-4-4s1.793-4 4-4 4 1.795 4 4-1.793 4-4 4z"/><path d="m130.657 125.933c-2.362 0-4.276 1.915-4.276 4.276 0 2.362 1.914 4.277 4.276 4.277s4.276-1.915 4.276-4.277c0-2.361-1.914-4.276-4.276-4.276z"/><path d="m178.657 162.487c2.362 0 4.276-1.915 4.276-4.277s-1.915-4.276-4.276-4.276c-2.362 0-4.276 1.915-4.276 4.276-.001 2.362 1.914 4.277 4.276 4.277z"/></g></svg>