<svg id="no-meat" enable-background="new 0 0 300 300" height="512" viewBox="0 0 300 300" width="512" xmlns="http://www.w3.org/2000/svg"><g><path d="m79.172 54.828c.781.781 1.805 1.172 2.828 1.172s2.047-.391 2.828-1.172l3.172-3.172 3.172 3.172c.781.781 1.805 1.172 2.828 1.172s2.047-.391 2.828-1.172c1.562-1.562 1.562-4.094 0-5.656l-3.172-3.172 3.172-3.172c1.562-1.562 1.562-4.094 0-5.656s-4.094-1.562-5.656 0l-3.172 3.172-3.172-3.172c-1.562-1.562-4.094-1.562-5.656 0s-1.562 4.094 0 5.656l3.172 3.172-3.172 3.172c-1.563 1.562-1.563 4.094 0 5.656z"/><path d="m51.532 61.787c2.362 0 4.276-1.915 4.276-4.276s-1.915-4.277-4.276-4.277-4.277 1.915-4.277 4.277 1.915 4.276 4.277 4.276z"/><path d="m150 56c-57.348 0-104 46.654-104 104s46.652 104 104 104 104-46.654 104-104-46.652-104-104-104zm0 200c-52.934 0-96-43.066-96-96s43.066-96 96-96 96 43.066 96 96-43.066 96-96 96z"/><path d="m217.84 104.008c-.715-.867-1.766-1.393-2.895-1.447-1.117-.027-2.223.371-3.016 1.168l-41.041 41.041c-.912-2.76-1.969-5.494-3.133-8.184l38.513-38.513c.797-.797 1.219-1.893 1.168-3.018-.055-1.125-.578-2.176-1.449-2.893-15.721-13.002-35.608-20.162-55.987-20.162-48.523 0-88 39.477-88 88 0 20.381 7.16 40.266 20.16 55.992.715.867 1.766 1.393 2.895 1.447.062.002.125.004.188.004 1.059 0 2.078-.42 2.828-1.172l38.5-38.498c2.683 1.161 5.424 2.223 8.177 3.134l-41.021 41.021c-.797.797-1.219 1.893-1.168 3.018.055 1.125.578 2.176 1.449 2.893 15.726 13.001 35.609 20.161 55.992 20.161 48.523 0 88-39.477 88-88 0-20.379-7.16-40.264-20.16-55.992zm-41.899 87.59-10.295-10.295c1.151-.692 2.218-1.51 3.182-2.474s1.784-2.03 2.477-3.181l10.293 10.294c.75.75 1.766 1.172 2.828 1.172s2.078-.422 2.828-1.172c3.027-3.027 8.297-3.02 11.316 0 3.117 3.119 3.117 8.195 0 11.312-1.371 1.371-3.23 2.184-5.238 2.289-2.047.105-3.68 1.74-3.789 3.787-.07 1.418-.531 3.479-2.289 5.238-3.023 3.023-8.289 3.023-11.312 0-1.512-1.512-2.344-3.52-2.344-5.656s.832-4.146 2.344-5.658c1.562-1.563 1.562-4.094-.001-5.656zm-69.742-35.799c-10.918-10.918-10.918-28.68 0-39.598 5.461-5.457 12.629-8.188 19.801-8.188s14.34 2.73 19.801 8.188c18.062 18.064 24.293 50.047 17.371 56.971-6.926 6.918-38.906.693-56.973-17.373zm-20.59 51.619c-10.093-13.693-15.609-30.365-15.609-47.418 0-44.111 35.887-80 80-80 17.055 0 33.723 5.516 47.418 15.611l-33.303 33.303c-4.105-7.806-8.774-14.487-12.657-18.37-14.039-14.035-36.875-14.035-50.914 0-14.035 14.035-14.035 36.875 0 50.91 3.883 3.883 10.575 8.548 18.381 12.652zm64.391 32.582c-17.055 0-33.727-5.516-47.422-15.611l41.114-41.114c3.246.644 6.424 1.035 9.422 1.035 1.365 0 2.676-.111 3.96-.268l10.739 10.737c-1.445 2.438-2.215 5.227-2.215 8.133 0 4.273 1.664 8.291 4.688 11.312 3.023 3.023 7.039 4.688 11.312 4.688 4.277 0 8.293-1.664 11.312-4.688 1.996-1.994 3.406-4.48 4.117-7.199 2.719-.711 5.203-2.119 7.199-4.113 6.234-6.24 6.234-16.391 0-22.627-5.27-5.266-13.316-6.084-19.441-2.471l-10.752-10.752c.502-4.113.207-8.659-.735-13.391l41.092-41.09c10.094 13.696 15.61 30.368 15.61 47.419 0 44.111-35.887 80-80 80z"/><path d="m126 112c-13.234 0-24 10.766-24 24s10.766 24 24 24 24-10.766 24-24-10.766-24-24-24zm0 40c-8.824 0-16-7.178-16-16s7.176-16 16-16 16 7.178 16 16-7.176 16-16 16z"/><path d="m126 124c-6.617 0-12 5.383-12 12s5.383 12 12 12 12-5.383 12-12-5.383-12-12-12zm0 16c-2.207 0-4-1.795-4-4s1.793-4 4-4 4 1.795 4 4-1.793 4-4 4z"/></g></svg>