<svg id="no-pork" enable-background="new 0 0 300 300" height="512" viewBox="0 0 300 300" width="512" xmlns="http://www.w3.org/2000/svg"><g><path d="m79.172 54.828c.781.781 1.805 1.172 2.828 1.172s2.047-.391 2.828-1.172l3.172-3.172 3.172 3.172c.781.781 1.805 1.172 2.828 1.172s2.047-.391 2.828-1.172c1.562-1.562 1.562-4.094 0-5.656l-3.172-3.172 3.172-3.172c1.562-1.562 1.562-4.094 0-5.656s-4.094-1.562-5.656 0l-3.172 3.172-3.172-3.172c-1.562-1.562-4.094-1.562-5.656 0s-1.562 4.094 0 5.656l3.172 3.172-3.172 3.172c-1.563 1.562-1.563 4.094 0 5.656z"/><path d="m51.532 61.787c2.362 0 4.276-1.915 4.276-4.276s-1.915-4.277-4.276-4.277-4.277 1.915-4.277 4.277 1.915 4.276 4.277 4.276z"/><path d="m150 56c-57.346 0-104 46.654-104 104s46.654 104 104 104c57.348 0 104-46.654 104-104s-46.652-104-104-104zm0 200c-52.934 0-96-43.066-96-96s43.066-96 96-96 96 43.066 96 96-43.066 96-96 96z"/><path d="m217.84 104.008c-.715-.867-1.766-1.393-2.895-1.447-1.137-.027-2.219.371-3.016 1.168l-26.122 26.12c-2.327-1.571-4.818-2.893-7.435-3.876l27.897-27.9c.797-.797 1.219-1.893 1.168-3.018-.055-1.125-.578-2.176-1.449-2.893-15.722-13.002-35.609-20.162-55.988-20.162-48.523 0-88 39.477-88 88 0 20.385 7.16 40.27 20.162 55.992.717.869 1.768 1.393 2.893 1.447.064.002.127.004.189.004 1.059 0 2.076-.42 2.828-1.172l25.928-25.927v9.656c0 .489.118.945.278 1.378l-20.55 20.55c-.797.797-1.221 1.893-1.168 3.018.055 1.125.578 2.176 1.447 2.893 15.723 13.001 35.608 20.161 55.993 20.161 48.523 0 88-39.477 88-88 0-20.379-7.16-40.264-20.16-55.992zm-23.84 51.992c0 15.539-4.906 33.324-6.934 40h-1.066v-4c0-1.299-.305-3.383-2.57-8.958-.003-.008-.001-.015-.004-.023-2.395-5.893-5.707-12.529-5.848-12.809-.992-1.975-3.387-2.779-5.367-1.789-1.977.988-2.777 3.391-1.789 5.367.029.055 2.263 4.542 4.322 9.253-2.192.589-4.439.959-6.744.959h-24c-1.884 0-3.731-.276-5.552-.678.863-1.771 1.805-3.489 2.881-5.103 1.227-1.84.727-4.322-1.109-5.547-1.848-1.23-4.324-.729-5.547 1.109-2.238 3.357-4.098 7.02-5.527 10.885-.01.027-.003.054-.013.081-1.653 4.5-2.437 8.487-2.804 11.253h-4.329v-12.865c0-1.912-1.354-3.559-3.23-3.926l-1.539-.301c-4.604-.994-9.641-5.148-14.086-8.814-1.615-1.33-3.186-2.623-4.701-3.76-.422-.316-.902-.545-1.414-.676l-3.03-.769v-8.889h8c1.26 0 2.445-.592 3.199-1.6l8.576-11.434c3.394 3.551 6.676 4.734 6.959 4.829.418.139.84.205 1.256.205 1.645 0 3.17-1.039 3.75-2.684.725-2.059-.367-4.33-2.414-5.09-.361-.135-8.463-3.314-9.264-17.863 1.201-.268 3.207-.256 6.148 1.215 5.309 2.654 9.016 10.785 9.996 13.693.705 2.092 2.967 3.215 5.062 2.518 2.094-.701 3.223-2.961 2.523-5.055-.038-.114-.269-.783-.677-1.782 2.23-.612 4.528-.952 6.884-.952h24c14.104 0 26.002 14.742 26.002 24zm-108.389 51.418c-10.095-13.689-15.611-30.361-15.611-47.418 0-44.111 35.889-80 80-80 17.055 0 33.723 5.516 47.418 15.611l-28.444 28.448c-.326-.011-.647-.059-.974-.059h-24c-3.689 0-7.281.6-10.636 1.712-2.274-3.533-5.445-7.225-9.574-9.29-8.352-4.176-14.377-1.492-16.617.75-.75.75-1.172 1.768-1.172 2.828 0 6.779 1.281 11.946 3.074 15.902l-9.075 12.098h-10c-2.209 0-4 1.791-4 4v16c0 1.83 1.242 3.426 3.016 3.877l5.256 1.334c1.227.947 2.49 1.988 3.783 3.057 3.326 2.741 6.945 5.702 10.859 7.85zm64.389 32.582c-17.057 0-33.729-5.516-47.418-15.611l20.387-20.389h7.031c2.195 0 3.98-1.781 4-3.977 0-.047.055-3.83 1.531-9.098 2.758.713 5.594 1.074 8.469 1.074h24c3.301 0 6.547-.469 9.672-1.396.293.979.324 1.346.328 1.396v8c0 2.209 1.789 4 4 4h8c1.715 0 3.238-1.092 3.789-2.717.336-.987 8.211-24.466 8.211-45.282 0-2.615-.555-5.361-1.567-8.099 2.238-2.552 6.134-6.031 9.473-3.913 2.246 1.418 3.234 4.699 2.438 6.289-.219.43-.398.697-.527.859-.477-.266-1.207-.912-1.652-1.49-1.332-1.752-3.816-2.107-5.59-.789-1.766 1.324-2.129 3.83-.805 5.6.621.828 3.816 4.791 8.227 4.791.215 0 .434-.01.656-.029 1.984-.178 4.781-1.25 6.84-5.355 2.742-5.467.309-13.086-5.312-16.639-2.166-1.371-9.271-4.694-17.678 3.231-1.315-1.918-2.819-3.764-4.508-5.479l22.398-22.394c10.091 13.694 15.607 30.366 15.607 47.417 0 44.111-35.887 80-80 80z"/><circle cx="114" cy="156" r="4"/></g></svg>