<svg id="pizza" enable-background="new 0 0 300 300" height="512" viewBox="0 0 300 300" width="512" xmlns="http://www.w3.org/2000/svg"><g><path d="m75.139 92.487c7.719 0 14-6.281 14-14s-6.281-14-14-14-14 6.281-14 14 6.282 14 14 14zm0-20c3.309 0 6 2.691 6 6s-2.691 6-6 6-6-2.691-6-6 2.692-6 6-6z"/><path d="m219.282 59.155c2.362 0 4.276-1.915 4.276-4.276s-1.915-4.277-4.276-4.277-4.277 1.915-4.277 4.277 1.915 4.276 4.277 4.276z"/><path d="m201.139 125.79v-5.303c0-2.209-1.791-4-4-4h-13.303c-10.311 0-18.697 8.387-18.697 18.697v5.303c0 2.209 1.791 4 4 4h13.303c10.311 0 18.697-8.386 18.697-18.697zm-8 0c0 5.898-4.799 10.697-10.697 10.697h-9.303v-1.303c0-5.898 4.799-10.697 10.697-10.697h9.303z"/><path d="m233.139 192.487h-13.303c-10.311 0-18.697 8.387-18.697 18.697v5.303c0 2.209 1.791 4 4 4h13.303c10.311 0 18.697-8.387 18.697-18.697v-5.303c0-2.209-1.791-4-4-4zm-4 9.303c0 5.898-4.799 10.697-10.697 10.697h-9.303v-1.303c0-5.898 4.799-10.697 10.697-10.697h9.303z"/><path d="m81.139 153.79v-10.605c0-10.311-8.387-18.697-18.697-18.697h-13.303c-2.209 0-4 1.791-4 4v5.303c0 5.991 2.882 11.273 7.278 14.697-4.396 3.424-7.278 8.706-7.278 14.697v5.303c0 2.209 1.791 4 4 4h13.303c10.311-.001 18.697-8.387 18.697-18.698zm-28-20v-1.303h9.303c5.898 0 10.697 4.799 10.697 10.697v1.303h-9.303c-5.898 0-10.697-4.799-10.697-10.697zm0 29.394c0-5.898 4.799-10.697 10.697-10.697h9.303v1.303c0 5.898-4.799 10.697-10.697 10.697h-9.303z"/><path d="m134.442 152.487h-13.303c-2.209 0-4 1.791-4 4v5.303c0 10.311 8.387 18.697 18.697 18.697h13.303c2.209 0 4-1.791 4-4v-5.303c0-10.31-8.386-18.697-18.697-18.697zm10.697 20h-9.303c-5.898 0-10.697-4.799-10.697-10.697v-1.303h9.303c5.898 0 10.697 4.799 10.697 10.697z"/><path d="m254.266 146.872c-6.352-20.867-20.736-43.244-40.504-63.008-19.764-19.766-42.143-34.152-63.006-40.504-3.463-1.061-7.127-.699-10.318 1.004-3.193 1.703-5.533 4.549-6.584 8.008-1.059 3.471-.699 7.143 1.012 10.34 1.128 2.111 2.789 3.796 4.759 5.03l-14.024 28.531c-3.124-2.345-6.961-3.785-11.159-3.785h-5.303c-2.209 0-4 1.791-4 4v13.303c0 5.765 2.677 10.863 6.791 14.295l-54.381 110.638c-.756 1.535-.449 3.381.762 4.592 1.211 1.209 3.059 1.516 4.592.762l26.236-12.895v15.305c0 7.719 6.281 14 14 14s14-6.281 14-14v-6-5.352c1.82.865 3.854 1.352 6 1.352 7.719 0 14-6.281 14-14v-10-4.9l32-15.727v4.627c0 6.617 5.383 12 12 12s12-5.383 12-12v-16-.426l36.747-18.061c1.238 1.978 2.927 3.642 5.04 4.77 1.988 1.061 4.162 1.6 6.354 1.6 1.33 0 2.666-.197 3.973-.596 3.461-1.053 6.307-3.393 8.01-6.586 1.701-3.194 2.058-6.858 1.003-10.317zm-121.127-35.688c0-5.898 4.799-10.697 10.697-10.697h1.303v9.303c0 5.898-4.799 10.697-10.697 10.697h-1.303zm-20-10.697h1.303c5.898 0 10.697 4.799 10.697 10.697v9.303h-1.303c-5.898 0-10.697-4.799-10.697-10.697zm-12 72c0 5.891-4.273 10.778-9.879 11.786l8.491-17.274c.888 1.677 1.388 3.541 1.388 5.488zm88-24c-2.209 0-4 1.791-4 4v21.084 2.916 16c0 2.205-1.795 4-4 4s-4-1.795-4-4v-11.051c0-1.381-.713-2.666-1.885-3.395-1.174-.73-2.643-.805-3.879-.195l-34.236 16.827v-2.187c0-2.209-1.791-4-4-4s-4 1.791-4 4v8.609 7.391 10c0 3.309-2.691 6-6 6s-6-2.691-6-6v-26c0-2.209-1.791-4-4-4s-4 1.791-4 4v26 18 6c0 3.309-2.691 6-6 6s-6-2.691-6-6v-21.729c0-1.381-.713-2.666-1.885-3.395-1.174-.732-2.643-.803-3.879-.195l-21.471 10.553 17.384-35.369c.622.067 1.242.134 1.85.134 11.027 0 20-8.973 20-20 0-5.105-1.959-9.885-5.418-13.565l15.306-31.141c1.544.414 3.136.706 4.81.706h1.303v8c0 2.209 1.791 4 4 4s4-1.791 4-4v-8h1.303c10.311 0 18.697-8.387 18.697-18.697v-13.301c0-2.209-1.791-4-4-4h-5.303c-3.083 0-5.95.822-8.517 2.148l11.738-23.881c5.848 2.158 11.921 5.162 18.052 8.887-4.826 3.218-7.97 8.634-7.97 14.846 0 9.926 8.074 18 18 18 7.788 0 14.371-4.999 16.874-11.934.862.827 1.743 1.617 2.593 2.467 15.066 15.064 26.581 32.14 32.266 47.548l-33.733 16.58v-14.661c0-2.209-1.791-4-4-4zm-4.022-54.202c.003.069.022.133.022.203 0 5.514-4.486 10-10 10s-10-4.486-10-10c0-4.755 3.314-8.685 7.875-9.665 4.08 2.875 8.125 6.04 12.103 9.462zm61.085 59.14c-.697 1.307-1.859 2.264-3.281 2.695-1.422.434-2.922.289-4.229-.408-1.303-.695-2.256-1.859-2.688-3.283-5.379-17.66-18.406-37.732-35.742-55.064-17.332-17.336-37.404-30.363-55.076-35.746-1.41-.426-2.57-1.377-3.266-2.678-.701-1.311-.848-2.814-.414-4.238.432-1.418 1.389-2.58 2.695-3.277.814-.434 1.703-.654 2.602-.654.543 0 1.088.08 1.623.242 19.631 5.979 40.826 19.652 59.68 38.508 18.855 18.854 32.529 40.049 38.508 59.682.432 1.414.285 2.914-.412 4.221z"/><path d="m151.282 134.602c-2.362 0-4.277 1.915-4.277 4.277s1.915 4.276 4.277 4.276 4.276-1.915 4.276-4.276-1.915-4.277-4.276-4.277z"/><path d="m167.282 150.602c-2.362 0-4.277 1.915-4.277 4.277s1.915 4.276 4.277 4.276 4.276-1.915 4.276-4.276-1.915-4.277-4.276-4.277z"/><path d="m207.282 151.155c2.362 0 4.276-1.915 4.276-4.276s-1.915-4.277-4.276-4.277-4.277 1.915-4.277 4.277 1.915 4.276 4.277 4.276z"/><path d="m185.967 238.409c-1.562-1.562-4.094-1.562-5.656 0l-3.172 3.172-3.172-3.172c-1.562-1.562-4.094-1.562-5.656 0s-1.562 4.094 0 5.656l3.172 3.172-3.172 3.172c-1.562 1.562-1.562 4.094 0 5.656.781.781 1.805 1.172 2.828 1.172s2.047-.391 2.828-1.172l3.172-3.172 3.172 3.172c.781.781 1.805 1.172 2.828 1.172s2.047-.391 2.828-1.172c1.562-1.562 1.562-4.094 0-5.656l-3.172-3.172 3.172-3.172c1.563-1.562 1.563-4.093 0-5.656z"/></g></svg>