<svg id="pot" enable-background="new 0 0 300 300" height="512" viewBox="0 0 300 300" width="512" xmlns="http://www.w3.org/2000/svg"><g><path d="m144.697 88h1.303v8c0 2.209 1.791 4 4 4s4-1.791 4-4v-8h1.303c10.31 0 18.697-8.387 18.697-18.697v-13.303c0-2.209-1.791-4-4-4h-5.303c-5.991 0-11.273 2.882-14.697 7.278-3.424-4.396-8.706-7.278-14.697-7.278h-5.303c-2.209 0-4 1.791-4 4v13.303c0 10.31 8.387 18.697 18.697 18.697zm20-28h1.303v9.303c0 5.898-4.799 10.697-10.697 10.697h-1.303v-9.303c0-5.898 4.799-10.697 10.697-10.697zm-30.697 0h1.303c5.898 0 10.697 4.799 10.697 10.697v9.303h-1.303c-5.898 0-10.697-4.799-10.697-10.697z"/><path d="m231.172 78.828c.781.781 1.805 1.172 2.828 1.172s2.047-.391 2.828-1.172l3.172-3.172 3.172 3.172c.781.781 1.805 1.172 2.828 1.172s2.047-.391 2.828-1.172c1.562-1.562 1.562-4.094 0-5.656l-3.172-3.172 3.172-3.172c1.562-1.562 1.562-4.094 0-5.656s-4.094-1.562-5.656 0l-3.172 3.172-3.172-3.172c-1.562-1.562-4.094-1.562-5.656 0s-1.562 4.094 0 5.656l3.172 3.172-3.172 3.172c-1.563 1.562-1.563 4.094 0 5.656z"/><path d="m70 116c6.617 0 12-5.383 12-12s-5.383-12-12-12-12 5.383-12 12 5.383 12 12 12zm0-16c2.205 0 4 1.795 4 4s-1.795 4-4 4-4-1.795-4-4 1.795-4 4-4z"/><path d="m203.532 85.787c2.362 0 4.276-1.915 4.276-4.276s-1.915-4.277-4.276-4.277-4.277 1.915-4.277 4.277 1.915 4.276 4.277 4.276z"/><path d="m103.532 213.234c-2.362 0-4.277 1.915-4.277 4.277s1.915 4.276 4.277 4.276 4.276-1.915 4.276-4.276-1.914-4.277-4.276-4.277z"/><path d="m159.532 201.234c-2.362 0-4.277 1.915-4.277 4.277s1.915 4.276 4.277 4.276 4.276-1.915 4.276-4.276-1.914-4.277-4.276-4.277z"/><path d="m203.532 209.234c-2.362 0-4.277 1.915-4.277 4.277s1.915 4.276 4.277 4.276 4.276-1.915 4.276-4.276-1.914-4.277-4.276-4.277z"/><path d="m230 210.133v-26.133h25.867c5.588 0 10.133-4.486 10.133-10s-4.545-10-10.133-10h-25.867v-30.691c0-7.338-5.971-13.309-13.309-13.309h-46.691v-8c0-2.209-1.791-4-4-4h-32c-2.209 0-4 1.791-4 4v8h-46.691c-7.338 0-13.309 5.971-13.309 13.309v30.691h-25.857c-5.592 0-10.143 4.486-10.143 10s4.551 10 10.143 10h25.857v26.133c0 12.139 5.763 22.933 14.673 29.867h-38.673c-2.209 0-4 1.791-4 4s1.791 4 4 4h208c2.209 0 4-1.791 4-4s-1.791-4-4-4h-38.673c8.91-6.934 14.673-17.729 14.673-29.867zm-64-34.133c-5.83 0-11.102 3.209-13.887 8.145-4.67-.637-9.359.871-12.762 3.938-7.107-4.797-16.783-5.363-24.422-1.354-2.618-1.776-5.699-2.729-8.929-2.729-6.127 0-11.561 3.482-14.234 8.723-4.575-1.161-9.357-.859-13.766.732v-45.455h144v44.571c-2.464.64-4.753 1.803-6.648 3.511-3.932-2.652-8.551-4.082-13.352-4.082-5.834 0-11.389 2.123-15.703 5.861-1.238-1.5-2.744-2.771-4.441-3.738.095-.703.144-1.412.144-2.123 0-8.822-7.178-16-16-16zm89.867-4c1.176 0 2.133.896 2.133 2s-.957 2-2.133 2h-25.867v-4zm-117.867-56h24v4h-24zm-54.691 12h133.383c2.928 0 5.309 2.381 5.309 5.309v6.691h-144.001v-6.691c0-2.928 2.381-5.309 5.309-5.309zm-39.166 48c-1.182 0-2.143-.896-2.143-2s.961-2 2.143-2h25.857v4zm63.724 64c-16.469 0-29.867-13.398-29.867-29.867v-7.896c4.428-2.607 9.766-2.965 14.57-.783 1.117.504 2.406.469 3.502-.1 1.09-.568 1.857-1.607 2.082-2.816.701-3.787 4-6.537 7.846-6.537 2.16 0 4.189.857 5.713 2.416 1.371 1.402 3.551 1.607 5.152.48 6.139-4.295 14.83-3.59 20.223 1.611.865.834 2.061 1.238 3.258 1.092 1.195-.145 2.262-.82 2.904-1.838 2.023-3.207 6.047-4.645 9.725-3.17 1.062.426 2.252.379 3.273-.133 1.021-.51 1.777-1.434 2.076-2.535.943-3.488 4.1-5.924 7.676-5.924 4.412 0 8 3.588 8 8 0 .994-.199 1.996-.592 2.975-.426 1.059-.377 2.25.133 3.273.51 1.021 1.434 1.777 2.535 2.076 2.674.723 4.807 2.83 5.566 5.498.426 1.492 1.674 2.604 3.205 2.852.215.035.43.053.643.053 1.307 0 2.549-.641 3.301-1.74 2.994-4.376 7.932-6.987 13.209-6.987 4.137 0 8.074 1.602 11.088 4.508.867.834 2.068 1.23 3.258 1.092 1.195-.145 2.262-.82 2.904-1.838.707-1.122 1.661-2.01 2.75-2.651v9.022c0 16.469-13.398 29.867-29.867 29.867z"/></g></svg>