<svg id="smoothie" enable-background="new 0 0 300 300" height="512" viewBox="0 0 300 300" width="512" xmlns="http://www.w3.org/2000/svg"><g><path d="m47.641 158.651c-2.362 0-4.276 1.915-4.276 4.277s1.915 4.276 4.276 4.276 4.277-1.915 4.277-4.276-1.915-4.277-4.277-4.277z"/><path d="m251.641 59.204c2.362 0 4.277-1.915 4.277-4.276s-1.915-4.277-4.277-4.277-4.276 1.915-4.276 4.277 1.914 4.276 4.276 4.276z"/><path d="m252.292 208.75 3.172-3.172c1.562-1.562 1.562-4.094 0-5.656s-4.094-1.562-5.656 0l-3.172 3.172-3.172-3.172c-1.562-1.562-4.094-1.562-5.656 0s-1.562 4.094 0 5.656l3.172 3.172-3.172 3.172c-1.562 1.562-1.562 4.094 0 5.656.781.781 1.805 1.172 2.828 1.172s2.047-.391 2.828-1.172l3.172-3.172 3.172 3.172c.781.781 1.805 1.172 2.828 1.172s2.047-.391 2.828-1.172c1.562-1.562 1.562-4.094 0-5.656z"/><path d="m146.635 98h16c2.209 0 4-1.791 4-4s-1.791-4-4-4h-16c-2.209 0-4 1.791-4 4s1.792 4 4 4z"/><path d="m146.635 86h16c2.209 0 4-1.791 4-4s-1.791-4-4-4h-16c-2.209 0-4 1.791-4 4s1.792 4 4 4z"/><path d="m204.28 188.666c-.615-4.103-2.625-7.641-5.484-10.226 6.107-3.526 10.717-9.403 12.51-16.44h29.33c5.514 0 10-4.486 10-10v-64c0-5.514-4.486-10-10-10h-23.314l.724-10.941c.221-3.369-.975-6.717-3.281-9.182-2.307-2.463-5.566-3.877-8.941-3.877h-19.188v-1.979c0-7.732-6.289-14.021-14.021-14.021h-35.957c-7.732 0-14.021 6.289-14.021 14.021v1.979h-19.188c-3.375 0-6.635 1.414-8.941 3.877-2.307 2.465-3.502 5.812-3.281 9.182l5.975 90.258c.626 9.076 5.851 16.839 13.275 21.124-2.859 2.585-4.869 6.122-5.484 10.225l-8.033 53.559c-.746 4.963.705 9.988 3.98 13.791s8.029 5.984 13.047 5.984h81.297c5.018 0 9.773-2.182 13.049-5.984s4.727-8.828 3.98-13.791zm11.718-90.666h14.638v44h-17.55zm-9.909 28.564c-5.219 1.094-10.003 1.026-14.198-.361-3.898-1.291-6.539-3.328-9.334-5.486-3.906-3.016-8.332-6.434-15.771-6.715-8.406-.303-13.857 3.518-18.631 6.902-4.359 3.088-7.803 5.518-13.209 5.107-4.381-.34-6.857-2.346-9.99-4.883-3.352-2.715-7.148-5.789-13.545-7.053-2.896-.573-5.938-.617-9.069-.222l-2.638-39.853h109.863zm34.546-40.564c1.104 0 2 .896 2 2v64c0 1.104-.896 2-2 2h-28.344l.265-4h22.079c2.209 0 4-1.791 4-4v-52c0-2.209-1.791-4-4-4h-18.108l.265-4zm-110-33.979c0-3.32 2.701-6.021 6.021-6.021h35.957c3.32 0 6.021 2.701 6.021 6.021v1.979h-48v-1.979zm-27.187 9.979h102.375c1.188 0 2.289.479 3.102 1.344.687.734 1.006 1.672 1.064 2.656h-110.707c.058-.984.378-1.922 1.064-2.656.813-.865 1.914-1.344 3.102-1.344zm1.734 94.777-2.312-34.943c2.454-.356 4.8-.341 6.99.089 4.453.881 7.051 2.984 10.061 5.42 3.535 2.865 7.543 6.111 14.404 6.645 8.295.65 13.693-3.184 18.457-6.557 4.277-3.031 7.973-5.672 13.703-5.434 4.879.184 7.523 2.225 11.184 5.051 3.055 2.357 6.516 5.029 11.711 6.748 3.164 1.047 6.523 1.57 10.049 1.57 1.983 0 4.028-.196 6.113-.526l-1.451 21.925c-.668 9.665-8.778 17.235-18.463 17.235h-61.984c-9.686 0-17.796-7.57-18.462-17.223zm97.088 94.018c-1.754 2.037-4.299 3.205-6.986 3.205h-81.297c-2.688 0-5.232-1.168-6.986-3.205-1.754-2.035-2.531-4.727-2.133-7.383l8.033-53.559c.684-4.551 4.52-7.854 9.121-7.854h65.227c4.602 0 8.438 3.303 9.121 7.854l8.033 53.559c.399 2.656-.379 5.348-2.133 7.383z"/><path d="m154.635 194c-13.234 0-24 10.766-24 24s10.766 24 24 24 24-10.766 24-24-10.765-24-24-24zm0 40c-8.822 0-16-7.178-16-16s7.178-16 16-16c2.958 0 5.697.862 8.076 2.267l-6.905 6.905c-1.562 1.562-1.562 4.094 0 5.656.781.781 1.805 1.172 2.828 1.172s2.047-.391 2.828-1.172l6.905-6.905c1.406 2.38 2.267 5.118 2.267 8.076.001 8.823-7.176 16.001-15.999 16.001z"/><path d="m130.635 166c6.617 0 12-5.383 12-12 0-2.209-1.791-4-4-4s-4 1.791-4 4c0 2.205-1.795 4-4 4s-4-1.795-4-4 1.795-4 4-4c2.209 0 4-1.791 4-4s-1.791-4-4-4c-6.617 0-12 5.383-12 12s5.383 12 12 12z"/><path d="m163.641 147.204c2.362 0 4.277-1.915 4.277-4.276s-1.915-4.277-4.277-4.277-4.276 1.915-4.276 4.277 1.914 4.276 4.276 4.276z"/><path d="m187.641 159.204c2.362 0 4.277-1.915 4.277-4.276s-1.915-4.277-4.277-4.277-4.276 1.915-4.276 4.277 1.914 4.276 4.276 4.276z"/><path d="m163.641 163.204c2.362 0 4.277-1.915 4.277-4.276s-1.915-4.277-4.277-4.277-4.276 1.915-4.276 4.277 1.914 4.276 4.276 4.276z"/></g></svg>