<svg id="soy-milk" enable-background="new 0 0 300 300" height="512" viewBox="0 0 300 300" width="512" xmlns="http://www.w3.org/2000/svg"><g><path d="m74.988 46.865c-1.562-1.562-4.094-1.562-5.656 0l-3.172 3.172-3.172-3.172c-1.562-1.562-4.094-1.562-5.656 0s-1.562 4.094 0 5.656l3.172 3.172-3.172 3.172c-1.562 1.562-1.562 4.094 0 5.656.781.781 1.805 1.172 2.828 1.172s2.047-.391 2.828-1.172l3.172-3.172 3.172 3.172c.781.781 1.805 1.172 2.828 1.172s2.047-.391 2.828-1.172c1.562-1.562 1.562-4.094 0-5.656l-3.172-3.172 3.172-3.172c1.563-1.563 1.563-4.094 0-5.656z"/><path d="m241.974 84.943c-7.719 0-14 6.281-14 14s6.281 14 14 14 14-6.281 14-14-6.281-14-14-14zm0 20c-3.309 0-6-2.691-6-6s2.691-6 6-6 6 2.691 6 6-2.691 6-6 6z"/><path d="m180.302 39.61c2.362 0 4.276-1.915 4.276-4.276s-1.915-4.277-4.276-4.277-4.277 1.915-4.277 4.277 1.915 4.276 4.277 4.276z"/><path d="m48.302 107.057c-2.362 0-4.277 1.915-4.277 4.277s1.915 4.276 4.277 4.276 4.276-1.915 4.276-4.276-1.914-4.277-4.276-4.277z"/><path d="m194.16 79.88v-18.937c0-2.209-1.791-4-4-4h-88c-2.209 0-4 1.791-4 4v18.937l-15.473 27.078c-.346.604-.527 1.289-.527 1.984v156c0 2.209 1.791 4 4 4h120c2.209 0 4-1.791 4-4v-156c0-.695-.182-1.381-.527-1.984zm5.107 25.063h-18.214l9.107-15.938zm-13.107-40v12h-80v-12zm-81.679 20h78.786l-11.428 20h-78.786zm-14.321 64v-36h80v36zm80 8v40h-80v-40zm-80 104v-56h80v56zm88 0v-148h24v148z"/><path d="m102.16 224.943h40c2.209 0 4-1.791 4-4s-1.791-4-4-4h-40c-2.209 0-4 1.791-4 4s1.791 4 4 4z"/><path d="m118.16 228.943h-16c-2.209 0-4 1.791-4 4s1.791 4 4 4h16c2.209 0 4-1.791 4-4s-1.791-4-4-4z"/><path d="m158.16 228.943h-28c-2.209 0-4 1.791-4 4s1.791 4 4 4h28c2.209 0 4-1.791 4-4s-1.791-4-4-4z"/><path d="m98.16 180.943h8v4h-8c-2.209 0-4 1.791-4 4s1.791 4 4 4h12c2.209 0 4-1.791 4-4v-12c0-2.209-1.791-4-4-4h-8v-4h8c2.209 0 4-1.791 4-4s-1.791-4-4-4h-12c-2.209 0-4 1.791-4 4v12c0 2.209 1.791 4 4 4z"/><path d="m122.16 192.943h12c2.209 0 4-1.791 4-4v-24c0-2.209-1.791-4-4-4h-12c-2.209 0-4 1.791-4 4v24c0 2.209 1.791 4 4 4zm4-24h4v16h-4z"/><path d="m150.16 178.154v10.789c0 2.209 1.791 4 4 4s4-1.791 4-4v-10.789l7.328-10.992c1.225-1.838.729-4.322-1.109-5.547-1.84-1.232-4.32-.73-5.547 1.109l-4.672 7.008-4.672-7.008c-1.229-1.84-3.709-2.342-5.547-1.109-1.838 1.225-2.334 3.709-1.109 5.547z"/></g></svg>