<svg id="transport" enable-background="new 0 0 300 300" height="512" viewBox="0 0 300 300" width="512" xmlns="http://www.w3.org/2000/svg"><g><path d="m98 91.138c7.719 0 14-6.281 14-14s-6.281-14-14-14-14 6.281-14 14 6.281 14 14 14zm0-20c3.309 0 6 2.691 6 6s-2.691 6-6 6-6-2.691-6-6 2.691-6 6-6z"/><path d="m166 93.415c2.362 0 4.276-1.915 4.276-4.276s-1.915-4.277-4.276-4.277-4.276 1.915-4.276 4.277 1.914 4.276 4.276 4.276z"/><path d="m210 41.415c2.362 0 4.276-1.915 4.276-4.276s-1.915-4.277-4.276-4.277-4.276 1.915-4.276 4.277 1.914 4.276 4.276 4.276z"/><path d="m62 69.415c2.362 0 4.276-1.915 4.276-4.276s-1.914-4.277-4.276-4.277-4.276 1.915-4.276 4.277 1.914 4.276 4.276 4.276z"/><path d="m269.783 197.496-26.809-13.344-17.496-34.811c-.68-1.35-2.062-2.203-3.574-2.203h-37.904v-24c0-2.209-1.791-4-4-4h-140c-2.209 0-4 1.791-4 4v100.686c-4.656 1.65-8 6.1-8 11.314 0 6.617 5.383 12 12 12h25.064c1.015 11.196 10.443 20 21.899 20s20.884-8.804 21.899-20h95.24c1.015 11.196 10.443 20 21.899 20s20.884-8.804 21.899-20h20.1c2.209 0 4-1.791 4-4v-42.062c0-1.518-.859-2.904-2.217-3.58zm-5.783 6.056v19.586h-80v-32h55.06zm-160.08 27.586h105.123c-1.915 2.315-3.347 5.035-4.19 8h-96.743c-.843-2.965-2.275-5.685-4.19-8zm115.518-76 14.074 28h-49.512v-28zm-43.438-28v96h-132v-96zm-140 108c0-2.205 1.795-4 4-4h30.006c-1.915 2.315-3.347 5.035-4.19 8h-25.816c-2.205 0-4-1.795-4-4zm50.963 24c-7.719 0-14-6.281-14-14s6.281-14 14-14 14 6.281 14 14-6.281 14-14 14zm139.037 0c-7.719 0-14-6.281-14-14s6.281-14 14-14 14 6.281 14 14-6.281 14-14 14zm21.147-20c-.843-2.965-2.275-5.685-4.19-8h21.043v8z"/><path d="m204 199.138h-8c-2.209 0-4 1.791-4 4s1.791 4 4 4h8c2.209 0 4-1.791 4-4s-1.791-4-4-4z"/><path d="m223.172 118.716c.781.781 1.805 1.172 2.828 1.172s2.047-.391 2.828-1.172l3.172-3.172 3.172 3.172c.781.781 1.805 1.172 2.828 1.172s2.047-.391 2.828-1.172c1.562-1.562 1.562-4.094 0-5.656l-3.172-3.172 3.172-3.172c1.562-1.562 1.562-4.094 0-5.656s-4.094-1.562-5.656 0l-3.172 3.172-3.172-3.172c-1.562-1.562-4.094-1.562-5.656 0s-1.562 4.094 0 5.656l3.172 3.172-3.172 3.172c-1.563 1.563-1.563 4.094 0 5.656z"/><path d="m112 183.138c1.023 0 2.047-.391 2.828-1.172l2.828-2.828h7.354c17.088 0 30.99-13.902 30.99-30.99v-9.01c0-2.209-1.791-4-4-4h-9.01c-17.088 0-30.99 13.902-30.99 30.99v7.354l-2.828 2.828c-1.562 1.562-1.562 4.094 0 5.656.781.782 1.805 1.172 2.828 1.172zm30.99-40h5.01v5.01c0 12.448-9.948 22.591-22.309 22.956l9.137-9.137c1.562-1.562 1.562-4.094 0-5.656s-4.094-1.562-5.656 0l-9.137 9.137c.364-12.361 10.507-22.31 22.955-22.31z"/><path d="m90.99 207.138h7.354l2.828 2.828c.781.781 1.805 1.172 2.828 1.172s2.047-.391 2.828-1.172c1.562-1.562 1.562-4.094 0-5.656l-2.828-2.828v-7.354c0-17.088-13.902-30.99-30.99-30.99h-9.01c-2.209 0-4 1.791-4 4v9.01c0 17.088 13.902 30.99 30.99 30.99zm-22.99-36h5.01c12.448 0 22.591 9.948 22.956 22.309l-9.137-9.137c-1.562-1.562-4.094-1.562-5.656 0s-1.562 4.094 0 5.656l9.137 9.137c-12.362-.364-22.31-10.507-22.31-22.955z"/><path d="m132 187.138c-6.617 0-12 5.383-12 12s5.383 12 12 12 12-5.383 12-12-5.383-12-12-12zm0 16c-2.205 0-4-1.795-4-4s1.795-4 4-4 4 1.795 4 4-1.795 4-4 4z"/><path d="m88 159.138c6.617 0 12-5.383 12-12s-5.383-12-12-12-12 5.383-12 12 5.383 12 12 12zm0-16c2.205 0 4 1.795 4 4s-1.795 4-4 4-4-1.795-4-4 1.795-4 4-4z"/></g></svg>