<svg id="vegan-emblem" enable-background="new 0 0 300 300" height="512" viewBox="0 0 300 300" width="512" xmlns="http://www.w3.org/2000/svg"><g><path d="m49.838 63.824c6.617 0 12-5.383 12-12s-5.383-12-12-12-12 5.383-12 12 5.383 12 12 12zm0-16c2.207 0 4 1.795 4 4s-1.793 4-4 4-4-1.795-4-4 1.793-4 4-4z"/><path d="m237.354 76.309c.781.781 1.805 1.172 2.828 1.172s2.047-.391 2.828-1.172l2.828-2.828 2.828 2.828c.781.781 1.805 1.172 2.828 1.172s2.047-.391 2.828-1.172c1.562-1.562 1.562-4.094 0-5.656l-2.828-2.828 2.828-2.828c1.562-1.562 1.562-4.094 0-5.656s-4.094-1.562-5.656 0l-2.828 2.828-2.828-2.828c-1.562-1.562-4.094-1.562-5.656 0s-1.562 4.094 0 5.656l2.828 2.828-2.828 2.828c-1.563 1.562-1.563 4.093 0 5.656z"/><circle cx="57.838" cy="79.824" r="4"/><path d="m270.791 202.184c-.361-.627-7.577-12.894-19.785-19.112 15.037-8.535 19.741-28.177 19.938-29.021.449-1.957-.621-3.945-2.5-4.646-.654-.245-13.058-4.741-25.902-2.427.404-.791.775-1.609 1.097-2.462 4.863-12.893-2.621-27.188-2.941-27.791-.949-1.771-3.062-2.57-4.938-1.861-.194.073-1.72.663-3.874 1.795.38-1.535.638-3.129.717-4.779.66-13.764-10.863-25.062-11.355-25.537-1.445-1.396-3.695-1.506-5.27-.252-.531.424-13.086 10.566-13.746 24.33-.003.059.003.116.001.175-6.345-6.756-14.002-12.372-22.743-16.333-2.027-.908-4.383-.018-5.297 1.994-.91 2.012-.02 4.383 1.992 5.293 22.875 10.361 37.652 33.236 37.652 58.275 0 35.289-28.711 64-64 64s-64-28.711-64-64c0-25.039 14.777-47.914 37.652-58.275 2.012-.91 2.902-3.281 1.992-5.293-.914-2.012-3.266-2.902-5.297-1.994-8.599 3.896-16.15 9.393-22.434 16.001-.749-13.682-13.201-23.751-13.73-24.173-1.574-1.254-3.824-1.145-5.273.252-.487.473-12.007 11.772-11.347 25.536.08 1.651.339 3.246.719 4.782-2.156-1.134-3.685-1.725-3.879-1.798-1.875-.709-3.988.09-4.938 1.861-.32.604-7.809 14.898-2.941 27.791.322.854.694 1.671 1.098 2.463-12.846-2.312-25.252 2.184-25.903 2.426-1.879.701-2.949 2.689-2.5 4.646.197.844 4.901 20.486 19.938 29.021-12.208 6.218-19.424 18.485-19.785 19.112-1.004 1.74-.562 3.953 1.031 5.174.613.469 13.477 10.17 28.312 10.17 2.043 0 4.125-.184 6.219-.602.503-.1.98-.252 1.471-.377-.257.533-.535 1.05-.764 1.605-6.711 16.281 2.352 34.936 2.738 35.721.691 1.396 2.102 2.227 3.586 2.227.43 0 .867-.068 1.293-.215.647-.22 12.615-4.438 21.067-13.952 2.953 10.018 11.395 17.002 11.82 17.346.734.598 1.629.895 2.52.895.992 0 1.984-.369 2.754-1.098.469-.445 11.504-11.07 11.004-24.158 0-.002 0-.002 0-.002-.136-3.535-1.111-6.812-2.452-9.741 9.155 4.225 19.304 6.647 30.031 6.647 10.893 0 21.188-2.502 30.453-6.851-1.391 2.98-2.408 6.329-2.547 9.947-.504 13.088 10.535 23.713 11.004 24.158.77.729 1.762 1.098 2.754 1.098.891 0 1.785-.297 2.52-.895.425-.344 8.864-7.328 11.818-17.344 8.452 9.512 20.417 13.729 21.064 13.95.426.146.863.215 1.293.215 1.484 0 2.895-.83 3.586-2.225.387-.787 9.453-19.441 2.738-35.723-.229-.555-.507-1.073-.765-1.606.493.125.971.277 1.476.378 2.094.418 4.172.602 6.215.602 14.832 0 27.699-9.701 28.312-10.17 1.594-1.22 2.035-3.433 1.031-5.173zm-188.984-107.211c3.074 3.234 7.648 9.129 7.969 15.83.324 6.697-3.656 12.998-6.406 16.512-3.074-3.248-7.656-9.166-7.977-15.818-.321-6.706 3.664-13.013 6.414-16.524zm-16.942 29.023c3.922 2.133 10.086 6.332 12.457 12.611 2.367 6.273.52 13.492-1.016 17.684-3.926-2.146-10.109-6.367-12.461-12.6-2.37-6.279-.515-13.505 1.02-17.695zm-26.91 31.846c5.633-1.408 16.789-3.207 25.629 1.543 8.832 4.756 13.48 15.059 15.406 20.539-5.633 1.408-16.789 3.209-25.629-1.545-8.832-4.754-13.48-15.057-15.406-20.537zm25.246 53.24c-9.832 1.949-19.996-3.023-24.969-6.018 3.426-4.672 10.852-13.158 20.746-15.135 9.832-1.961 19.984 3.018 24.961 6.012-3.445 4.678-10.902 13.176-20.738 15.141zm29.613 20.34c-3.82 9.275-13.594 14.951-18.848 17.43-1.98-5.461-4.914-16.375-1.09-25.65 3.82-9.275 13.594-14.951 18.848-17.432 1.98 5.461 4.918 16.377 1.09 25.65zm15.473 20.969c-2.844-3.104-6.91-8.572-7.145-14.658-.234-6.121 3.383-11.863 5.977-15.164 2.844 3.104 6.914 8.572 7.148 14.658.235 6.121-3.386 11.863-5.98 15.164zm153.758-94.547c-1.926 5.479-6.574 15.781-15.406 20.537-8.844 4.754-20.004 2.951-25.637 1.539 1.91-5.471 6.535-15.756 15.414-20.533 8.84-4.75 19.996-2.955 25.629-1.543zm-25.891-14.153c-2.367 6.273-8.523 10.473-12.445 12.605-1.527-4.205-3.379-11.457-1.031-17.689 2.371-6.279 8.535-10.48 12.453-12.611 1.539 4.192 3.39 11.416 1.023 17.695zm-17.961-46.718c2.754 3.514 6.742 9.82 6.418 16.523-.32 6.697-4.887 12.586-7.961 15.82-2.75-3.529-6.746-9.859-6.426-16.514.321-6.702 4.895-12.597 7.969-15.829zm-26.461 155.418c-2.598-3.312-6.23-9.078-5.996-15.164 0 0 0 0 0-.002.234-6.121 4.289-11.566 7.129-14.656 2.594 3.312 6.23 9.078 5.996 15.164-.238 6.121-4.289 11.568-7.129 14.658zm34.301-3.537c-5.254-2.48-15.027-8.156-18.848-17.432-3.824-9.275-.891-20.189 1.09-25.65 5.254 2.479 15.027 8.156 18.848 17.432 3.828 9.273.891 20.189-1.09 25.65zm10.77-37.772c-9.848-1.967-17.301-10.473-20.742-15.148 4.961-2.996 15.09-7.965 24.961-6.004 9.848 1.967 17.301 10.473 20.742 15.148-4.957 2.998-15.078 7.99-24.961 6.004z"/><path d="m146.955 109.332c-.82.543-20.098 13.494-20.098 30.391v.062c-11.113-1.535-21.484.701-21.996.812-1.531.338-2.727 1.543-3.051 3.082-.246 1.158-5.828 28.564 7.871 42.645 10.094 10.377 27.215 10.042 36.156 9.005v12.495c0 2.209 1.789 4 4 4s4-1.791 4-4v-12.355c2.051.201 4.416.351 6.992.351 9.008 0 20.336-1.811 27.812-9.496 13.699-14.08 8.113-41.486 7.867-42.646-.324-1.537-1.52-2.742-3.051-3.08-.512-.111-10.906-2.342-21.992-.812 0-.021 0-.041 0-.062 0-16.896-19.277-29.848-20.098-30.391-1.334-.888-3.076-.888-4.412-.001zm16.512 30.391c0 1.275-.188 2.604-.574 4.057-.367 1.381.031 2.854 1.047 3.863 1.02 1.006 2.492 1.398 3.871 1.021 8.035-2.186 16.984-1.338 21.309-.705.934 6.598 2.402 23.934-6.211 32.787-7.576 7.792-21.752 7.459-29.07 6.672v-16.26l11.906-11.906c1.562-1.562 1.562-4.094 0-5.656s-4.094-1.562-5.656 0l-6.25 6.25v-24.021c0-2.209-1.789-4-4-4s-4 1.791-4 4v36.091l-8.691-8.693c-1.562-1.562-4.094-1.562-5.656 0-1.562 1.561-1.562 4.094 0 5.656l14.254 14.256c.028.028.065.036.094.062v4.063c-6.765.871-22.339 1.799-30.422-6.514-8.613-8.854-7.148-26.188-6.211-32.787 4.324-.633 13.266-1.477 21.309.705 1.379.377 2.855-.016 3.875-1.025 1.012-1.01 1.41-2.486 1.039-3.869-.383-1.434-.57-2.758-.57-4.047 0-9.746 9.805-18.555 14.305-22.086 4.497 3.531 14.302 12.34 14.302 22.086z"/><path d="m165.182 83.77c2.184.369 4.242-1.111 4.602-3.287l.776-4.658h6.558l.776 4.658c.324 1.955 2.02 3.342 3.941 3.342.219 0 .438-.018.66-.055 2.18-.363 3.652-2.424 3.289-4.604l-4-24c-.32-1.928-1.988-3.342-3.945-3.342h-8c-1.957 0-3.625 1.414-3.945 3.342l-4 24c-.365 2.18 1.108 4.24 3.288 4.604zm9.269-23.946 1.333 8h-3.892l1.333-8z"/><path d="m193.838 83.824c2.211 0 4-1.791 4-4v-10.789l8.672 13.008c.754 1.133 2.016 1.781 3.328 1.781.387 0 .777-.055 1.16-.172 1.688-.51 2.84-2.066 2.84-3.828v-24c0-2.209-1.789-4-4-4s-4 1.791-4 4v10.789l-8.672-13.008c-.977-1.465-2.805-2.125-4.488-1.609-1.688.51-2.84 2.066-2.84 3.828v24c0 2.209 1.789 4 4 4z"/><path d="m137.838 83.824h16c2.211 0 4-1.791 4-4v-12c0-2.209-1.789-4-4-4h-4c-2.211 0-4 1.791-4 4s1.789 4 4 4v4h-8v-16h8c2.211 0 4-1.791 4-4s-1.789-4-4-4h-12c-2.211 0-4 1.791-4 4v24c0 2.209 1.789 4 4 4z"/><path d="m113.838 83.824h12c2.211 0 4-1.791 4-4s-1.789-4-4-4h-8v-4h8c2.211 0 4-1.791 4-4s-1.789-4-4-4h-8v-4h8c2.211 0 4-1.791 4-4s-1.789-4-4-4h-12c-2.211 0-4 1.791-4 4v24c0 2.209 1.789 4 4 4z"/><path d="m90.045 81.09c.543 1.633 2.07 2.734 3.793 2.734s3.25-1.102 3.793-2.734l8-24c.699-2.096-.434-4.361-2.527-5.061-2.113-.703-4.359.436-5.059 2.529l-4.207 12.617-4.207-12.617c-.699-2.094-2.941-3.232-5.059-2.529-2.094.699-3.227 2.965-2.527 5.061z"/></g></svg>