<svg id="water" enable-background="new 0 0 300 300" height="512" viewBox="0 0 300 300" width="512" xmlns="http://www.w3.org/2000/svg"><g><path d="m211.096 30h-51.246c-4.672 0-8.738 3.381-9.637 7.908l-6.562 28.092h-18.555c-5.516 0-10 4.486-10 10 0 3.254 1.586 6.123 4 7.95v22.369c0 12.262-2.898 24.535-8.379 35.496l-2.398 4.793c-6.035 12.066-9.223 25.578-9.223 39.074v71.807c0 6.898 5.613 12.512 12.512 12.512h74.977c6.898 0 12.512-5.613 12.512-12.512v-71.807c0-13.496-3.188-27.008-9.223-39.074l-2.398-4.793c-5.48-10.961-8.379-23.234-8.379-35.496v-22.369c2.414-1.827 4-4.696 4-7.95 0-5.514-4.484-10-10-10h-9.038l3.741-15.932h43.297c2.211 0 4-1.791 4-4v-12.068c-.001-2.209-1.79-4-4.001-4zm-84 160c2.211 0 4-1.791 4-4 0-9.926 8.074-18 18-18s18 8.074 18 18c0 2.209 1.789 4 4 4h20v48h-84v-48zm59.488 72h-74.977c-2.488 0-4.512-2.023-4.512-4.512v-11.488h84v11.488c.001 2.489-2.022 4.512-4.511 4.512zm-6.265-116.607 2.398 4.793c4.932 9.864 7.751 20.79 8.271 31.814h-16.2c-1.93-12.445-12.715-22-25.691-22s-23.762 9.555-25.691 22h-16.2c.52-11.024 3.339-21.951 8.271-31.814l2.398-4.793c6.035-12.066 9.223-25.578 9.223-39.074v-20.319h44v20.318c-.002 13.496 3.185 27.008 9.221 39.075zm-5.223-69.393c0 1.104-.898 2-2 2h-48c-1.102 0-2-.896-2-2s.898-2 2-2h48c1.102 0 2 .896 2 2zm32-33.932h-42.465c-1.855 0-3.469 1.277-3.895 3.086l-4.896 20.846h-3.975l6.165-26.4c.188-.928.949-1.6 1.82-1.6h47.246z"/><path d="m237.924 103.172-3.172-3.172 3.172-3.172c1.562-1.562 1.562-4.094 0-5.656s-4.094-1.562-5.656 0l-3.172 3.172-3.172-3.172c-1.562-1.562-4.094-1.562-5.656 0s-1.562 4.094 0 5.656l3.172 3.172-3.172 3.172c-1.562 1.562-1.562 4.094 0 5.656.781.781 1.805 1.172 2.828 1.172s2.047-.391 2.828-1.172l3.172-3.172 3.172 3.172c.781.781 1.805 1.172 2.828 1.172s2.047-.391 2.828-1.172c1.563-1.562 1.563-4.094 0-5.656z"/><path d="m240.628 131.234c-2.362 0-4.277 1.915-4.277 4.277s1.915 4.276 4.277 4.276 4.276-1.915 4.276-4.276-1.914-4.277-4.276-4.277z"/><path d="m64.628 91.787c2.362 0 4.276-1.915 4.276-4.276s-1.915-4.277-4.276-4.277-4.277 1.915-4.277 4.277 1.915 4.276 4.277 4.276z"/><path d="m67.096 114c-6.617 0-12 5.383-12 12s5.383 12 12 12 12-5.383 12-12-5.383-12-12-12zm0 16c-2.207 0-4-1.795-4-4s1.793-4 4-4 4 1.795 4 4-1.793 4-4 4z"/><path d="m149.096 210c7.719 0 14-6.504 14-14.5 0-6.75-8.387-17.09-10.961-20.1-1.516-1.777-4.562-1.777-6.078 0-2.574 3.01-10.961 13.35-10.961 20.1 0 7.996 6.281 14.5 14 14.5zm0-25.568c3.25 4.387 6 9.086 6 11.068 0 3.584-2.691 6.5-6 6.5s-6-2.916-6-6.5c0-1.977 2.75-6.678 6-11.068z"/><path d="m131.096 222h36c2.211 0 4-1.791 4-4s-1.789-4-4-4h-36c-2.211 0-4 1.791-4 4s1.789 4 4 4z"/><path d="m159.096 226h-20c-2.211 0-4 1.791-4 4s1.789 4 4 4h20c2.211 0 4-1.791 4-4s-1.789-4-4-4z"/></g></svg>