<svg xmlns="http://www.w3.org/2000/svg" viewBox="0 0 5000 5000"><path fill="#fff" d="M3205.202 4026.012c0-121.116 98.537-219.653 219.653-219.653h404.624V1286.127H1170.52v2994.219c0 82.867 67.422 150.289 150.289 150.289h1884.393v-404.623zM1897.76 3546.265c-158.282 0-282.266-192.964-282.266-439.306 0-67.964 25.086-179.958 40.033-240.652 10.703-43.601-4.967-88.376-39.04-111.385-9.438-6.39-40.756-14.632-64.103-18.334-16.844-2.665-29.24-17.183-29.24-34.253 0-17.048 12.396-31.589 29.24-34.253 23.325-3.703 54.665-11.967 64.103-18.357 34.073-23.009 49.765-67.761 39.017-111.362-14.925-60.761-40.011-172.823-40.011-240.652 0-246.342 123.984-439.306 282.266-439.306 19.147 0 34.682 15.535 34.682 34.682 0 19.147-15.535 34.682-34.682 34.682-115.404 0-212.902 169.414-212.902 369.942 0 62.793 26.576 177.61 38.024 224.079 16.912 68.822-7.406 140.241-60.739 180.545 53.333 40.282 77.651 111.723 60.739 180.545-11.448 46.424-38.024 161.172-38.024 224.079 0 200.528 97.498 369.942 212.902 369.942 19.147 0 34.682 15.535 34.682 34.682s-15.534 34.682-34.681 34.682zm139.767-687.883c-86.05 0-156.069-69.997-156.069-156.047 0-86.051 70.019-156.069 156.069-156.069 86.05 0 156.069 70.019 156.069 156.069 0 86.05-70.019 156.047-156.069 156.047zm462.473 0c-86.05 0-156.069-69.997-156.069-156.047 0-86.051 70.019-156.069 156.069-156.069s156.069 70.019 156.069 156.069c0 86.05-70.019 156.047-156.069 156.047zm306.404-156.047c0-86.051 70.019-156.069 156.069-156.069s156.069 70.019 156.069 156.069c0 86.05-70.019 156.047-156.069 156.047s-156.069-69.997-156.069-156.047zm261.154 809.248c0-19.147 15.535-34.682 34.682-34.682 115.404 0 212.902-169.414 212.902-369.942 0-62.906-26.576-177.655-38.001-224.079-16.935-68.822 7.406-140.264 60.716-180.545-53.333-40.304-77.651-111.723-60.739-180.545 11.448-46.469 38.024-161.285 38.024-224.079 0-200.528-97.498-369.942-212.902-369.942-19.147 0-34.682-15.535-34.682-34.682 0-19.147 15.535-34.682 34.682-34.682 158.282 0 282.266 192.964 282.266 439.306 0 67.829-25.086 179.891-40.011 240.652-10.748 43.601 4.945 88.354 39.017 111.362 9.438 6.39 40.779 14.654 64.103 18.357 16.844 2.665 29.24 17.206 29.24 34.253 0 17.07-12.396 31.589-29.24 34.253-23.347 3.703-54.665 11.944-64.103 18.334-34.073 23.009-49.742 67.783-39.017 111.385 14.925 60.694 40.011 172.688 40.011 240.652 0 246.342-123.984 439.306-282.266 439.306-19.147 0-34.682-15.534-34.682-34.682z"/><path fill="#d3f990" d="M1170.52 650.289v566.474h2658.96V650.289c0-44.617-36.308-80.925-80.925-80.925h-2497.11c-44.617 0-80.925 36.308-80.925 80.925zm1643.453 57.804c34.078 0 70.25 3.613 103.318 15.504l-7.75 57.858c-21.174-8.782-52.187-17.563-79.056-17.563-44.939 0-54.247 23.255-54.247 38.236 0 28.928 25.317 41.848 48.049 51.66 60.462 25.841 109.539 46.512 109.539 118.846 0 57.353-44.431 105.401-137.944 105.401-35.145 0-66.66-7.752-94.032-18.089l7.75-63.026c28.907 13.425 65.085 21.702 89.375 21.702 39.266 0 57.877-23.255 57.877-43.403 0-37.732-39.791-48.048-72.858-64.581-54.247-26.87-83.719-49.602-83.719-100.757-.001-36.178 19.66-101.788 113.698-101.788zm-295.633 0c34.118 0 70.273 3.613 103.341 15.504l-7.75 57.858c-21.174-8.782-52.187-17.563-79.034-17.563-44.978 0-54.27 23.255-54.27 38.236 0 28.928 25.317 41.848 48.049 51.66 60.445 25.841 109.539 46.512 109.539 118.846 0 57.353-44.431 105.401-137.961 105.401-35.128 0-66.643-7.752-94.038-18.089l7.756-63.026c28.947 13.425 65.102 21.702 89.392 21.702 39.266 0 57.854-23.255 57.854-43.403 0-37.732-39.768-48.048-72.836-64.581-54.264-26.87-83.702-49.602-83.702-100.757.001-36.178 19.622-101.788 113.66-101.788zm-250.649 0c28.422 0 52.689 3.613 80.084 12.395l-3.088 61.998c-21.202-8.257-44.459-13.425-71.831-13.425-81.111 0-129.16 51.155-129.16 125.042 0 87.314 58.887 122.965 123.995 122.965 32.018 0 57.329-7.752 75.421-16.009l4.663 61.471c-32.04 10.862-64.583 15.505-93.53 15.505-89.9 0-188.07-51.157-188.07-182.902 0-124.519 87.834-187.04 201.516-187.04zm1157.164 3167.629c-82.867 0-150.289 67.423-150.289 150.289v355.582l505.871-505.871h-355.582zM2037.527 2615.629c-47.801 0-86.705 38.905-86.705 86.705s38.904 86.683 86.705 86.683 86.705-38.882 86.705-86.683-38.904-86.705-86.705-86.705zm462.473 0c-47.801 0-86.705 38.905-86.705 86.705s38.904 86.683 86.705 86.683 86.705-38.882 86.705-86.683-38.904-86.705-86.705-86.705zm549.178 86.706c0-47.801-38.904-86.705-86.705-86.705s-86.705 38.905-86.705 86.705 38.905 86.683 86.705 86.683 86.705-38.883 86.705-86.683z"/><path fill="#333" d="M1897.76 3476.901c-115.404 0-212.902-169.414-212.902-369.942 0-62.906 26.576-177.655 38.024-224.079 16.912-68.822-7.406-140.264-60.739-180.545 53.333-40.304 77.651-111.723 60.739-180.545-11.448-46.469-38.024-161.285-38.024-224.079 0-200.528 97.498-369.942 212.902-369.942 19.147 0 34.682-15.535 34.682-34.682 0-19.147-15.535-34.682-34.682-34.682-158.282 0-282.266 192.964-282.266 439.306 0 67.829 25.086 179.891 40.011 240.652 10.748 43.601-4.945 88.354-39.017 111.362-9.438 6.39-40.779 14.654-64.103 18.357-16.844 2.665-29.24 17.206-29.24 34.253 0 17.07 12.396 31.589 29.24 34.253 23.347 3.703 54.665 11.944 64.103 18.334 34.073 23.009 49.743 67.783 39.04 111.385-14.948 60.694-40.033 172.688-40.033 240.652 0 246.342 123.984 439.306 282.266 439.306 19.147 0 34.682-15.535 34.682-34.682s-15.536-34.682-34.683-34.682zm1486.746-369.942c0-67.964-25.086-179.958-40.011-240.652-10.725-43.601 4.945-88.376 39.017-111.385 9.438-6.39 40.756-14.632 64.103-18.334 16.844-2.665 29.24-17.183 29.24-34.253 0-17.048-12.396-31.589-29.24-34.253-23.324-3.703-54.665-11.967-64.103-18.357-34.073-23.009-49.765-67.761-39.017-111.362 14.925-60.761 40.011-172.823 40.011-240.652 0-246.342-123.984-439.306-282.266-439.306-19.147 0-34.682 15.535-34.682 34.682 0 19.147 15.535 34.682 34.682 34.682 115.404 0 212.902 169.414 212.902 369.942 0 62.793-26.576 177.61-38.024 224.079-16.912 68.822 7.406 140.241 60.739 180.545-53.31 40.282-77.651 111.723-60.716 180.545 11.426 46.424 38.001 161.172 38.001 224.079 0 200.528-97.498 369.942-212.902 369.942-19.147 0-34.682 15.535-34.682 34.682s15.535 34.682 34.682 34.682c158.282 0 282.266-192.964 282.266-439.306zM2500 2546.265c-86.05 0-156.069 70.019-156.069 156.069 0 86.05 70.019 156.047 156.069 156.047s156.069-69.997 156.069-156.047-70.019-156.069-156.069-156.069zm0 242.752c-47.801 0-86.705-38.882-86.705-86.683s38.904-86.705 86.705-86.705 86.705 38.905 86.705 86.705-38.904 86.683-86.705 86.683z"/><path fill="#333" d="M3118.542 2702.335c0-86.051-70.019-156.069-156.069-156.069s-156.069 70.019-156.069 156.069c0 86.05 70.019 156.047 156.069 156.047s156.069-69.997 156.069-156.047zm-242.774 0c0-47.801 38.905-86.705 86.705-86.705s86.705 38.905 86.705 86.705-38.904 86.683-86.705 86.683-86.705-38.883-86.705-86.683zm-838.241-156.07c-86.05 0-156.069 70.019-156.069 156.069 0 86.05 70.019 156.047 156.069 156.047 86.05 0 156.069-69.997 156.069-156.047s-70.019-156.069-156.069-156.069zm0 242.752c-47.801 0-86.705-38.882-86.705-86.683s38.904-86.705 86.705-86.705 86.705 38.905 86.705 86.705-38.904 86.683-86.705 86.683zm216.718-1710.982c28.947 0 61.49-4.643 93.53-15.505l-4.663-61.471c-18.092 8.257-43.403 16.009-75.421 16.009-65.108 0-123.995-35.652-123.995-122.965 0-73.887 48.049-125.042 129.16-125.042 27.372 0 50.629 5.168 71.831 13.425l3.088-61.998c-27.395-8.782-51.662-12.395-80.084-12.395-113.682 0-201.516 62.521-201.516 187.04 0 131.745 98.17 182.902 188.07 182.902zm234.138-167.399c33.068 16.534 72.836 26.85 72.836 64.581 0 20.148-18.588 43.403-57.854 43.403-24.29 0-60.445-8.277-89.392-21.702l-7.756 63.026c27.395 10.337 58.91 18.089 94.038 18.089 93.53 0 137.961-48.048 137.961-105.401 0-72.333-49.094-93.005-109.539-118.846-22.732-9.812-48.049-22.732-48.049-51.66 0-14.98 9.292-38.236 54.27-38.236 26.847 0 57.86 8.781 79.034 17.563l7.75-57.858c-33.068-11.891-69.223-15.504-103.341-15.504-94.038 0-113.659 65.61-113.659 101.787-.001 51.157 29.437 73.888 83.701 100.758zm295.61 0c33.068 16.534 72.858 26.85 72.858 64.581 0 20.148-18.611 43.403-57.877 43.403-24.29 0-60.468-8.277-89.375-21.702l-7.75 63.026c27.372 10.337 58.887 18.089 94.032 18.089 93.513 0 137.944-48.048 137.944-105.401 0-72.333-49.076-93.005-109.539-118.846-22.732-9.812-48.049-22.732-48.049-51.66 0-14.98 9.308-38.236 54.247-38.236 26.869 0 57.883 8.781 79.056 17.563l7.75-57.858c-33.068-11.891-69.24-15.504-103.318-15.504-94.038 0-113.699 65.61-113.699 101.787.001 51.157 29.473 73.888 83.72 100.758z"/><path fill="#333" d="M3748.555 500h-2497.11c-82.867 0-150.289 67.422-150.289 150.289v3630.058c0 121.117 98.537 219.653 219.653 219.653h1919.075c2.292 0 4.572-.237 6.808-.688 1.27-.251 2.45-.711 3.664-1.101.937-.296 1.896-.491 2.805-.869 1.372-.57 2.63-1.335 3.906-2.069.683-.393 1.411-.683 2.066-1.124a34.544 34.544 0 0 0 5.272-4.31l624.277-624.278c2.168-2.166 3.917-4.698 5.453-7.372.35-.61.683-1.204.994-1.833 1.332-2.678 2.427-5.485 3.026-8.5.022-.103.011-.209.034-.312.401-2.111.655-4.276.655-6.504V650.289c0-82.867-67.422-150.289-150.289-150.289zM1170.52 4280.347v-2994.22h2658.96v2520.231h-404.624c-121.116 0-219.653 98.537-219.653 219.653v404.624H1320.809c-82.866.001-150.289-67.422-150.289-150.288zM3829.48 650.289v566.474H1170.52V650.289c0-44.617 36.308-80.925 80.925-80.925h2497.11c44.617 0 80.925 36.308 80.925 80.925zm-554.914 3375.723c0-82.867 67.422-150.289 150.289-150.289h355.582l-505.871 505.871v-355.582z"/></svg>