<svg xmlns="http://www.w3.org/2000/svg" enable-background="new 0 0 5000 5000" viewBox="0 0 5000 5000"><path fill="#fff" d="M3205.202,4026.012c0-121.116,98.537-219.653,219.653-219.653h404.624V1286.127H1170.52v2994.219
		c0,82.867,67.422,150.289,150.289,150.289h1884.393V4026.012z M3442.197,3141.63h-849.688c-19.147,0-34.682-15.523-34.682-34.682
		s15.535-34.682,34.682-34.682h849.688c19.147,0,34.682,15.523,34.682,34.682S3461.344,3141.63,3442.197,3141.63z M3476.879,3309.26
		c0,19.159-15.535,34.682-34.682,34.682h-529.873c-19.147,0-34.682-15.523-34.682-34.682c0-19.158,15.535-34.682,34.682-34.682
		h529.873C3461.344,3274.578,3476.879,3290.101,3476.879,3309.26z M2430.636,3072.266c19.147,0,34.682,15.523,34.682,34.682
		s-15.535,34.682-34.682,34.682h-853.572c-19.147,0-34.682-15.523-34.682-34.682s15.535-34.682,34.682-34.682H2430.636z
		 M2211.005,2904.635c0-19.159,15.535-34.682,34.682-34.682h566.451c19.147,0,34.682,15.523,34.682,34.682
		s-15.535,34.682-34.682,34.682h-566.451C2226.54,2939.318,2211.005,2923.794,2211.005,2904.635z M2245.687,3274.578h504.787
		c19.147,0,34.682,15.523,34.682,34.682c0,19.159-15.535,34.682-34.682,34.682h-504.787c-19.147,0-34.682-15.523-34.682-34.682
		C2211.005,3290.101,2226.54,3274.578,2245.687,3274.578z M3442.197,2939.318h-468.208c-19.147,0-34.682-15.523-34.682-34.682
		s15.535-34.682,34.682-34.682h468.208c19.147,0,34.682,15.523,34.682,34.682S3461.344,2939.318,3442.197,2939.318z
		 M3442.197,2737.006h-872.832c-19.147,0-34.682-15.523-34.682-34.682s15.535-34.682,34.682-34.682h872.832
		c19.147,0,34.682,15.523,34.682,34.682S3461.344,2737.006,3442.197,2737.006z M2339.595,2534.693
		c-19.147,0-34.682-15.523-34.682-34.682s15.535-34.682,34.682-34.682h514.925c19.147,0,34.682,15.523,34.682,34.682
		s-15.535,34.682-34.682,34.682H2339.595z M3442.197,2534.693H3016.37c-19.147,0-34.682-15.523-34.682-34.682
		s15.535-34.682,34.682-34.682h425.826c19.147,0,34.682,15.523,34.682,34.682S3461.344,2534.693,3442.197,2534.693z
		 M3442.197,2332.381H2808.3c-19.147,0-34.682-15.523-34.682-34.682s15.535-34.682,34.682-34.682h633.896
		c19.147,0,34.682,15.523,34.682,34.682S3461.344,2332.381,3442.197,2332.381z M3442.197,2130.069h-398.844
		c-19.147,0-34.682-15.523-34.682-34.682s15.535-34.682,34.682-34.682h398.844c19.147,0,34.682,15.523,34.682,34.682
		S3461.344,2130.069,3442.197,2130.069z M2808.3,1858.393h633.896c19.147,0,34.682,15.523,34.682,34.682
		s-15.535,34.682-34.682,34.682H2808.3c-19.147,0-34.682-15.523-34.682-34.682S2789.153,1858.393,2808.3,1858.393z
		 M2270.208,1858.393h376.219c19.147,0,34.682,15.523,34.682,34.682s-15.535,34.682-34.682,34.682h-376.219
		c-19.147,0-34.682-15.523-34.682-34.682S2251.061,1858.393,2270.208,1858.393z M2270.208,2060.705h611.272
		c19.147,0,34.682,15.523,34.682,34.682s-15.535,34.682-34.682,34.682h-611.272c-19.147,0-34.682-15.523-34.682-34.682
		S2251.061,2060.705,2270.208,2060.705z M2270.208,2263.017h376.219c19.147,0,34.682,15.523,34.682,34.682
		s-15.535,34.682-34.682,34.682h-376.219c-19.147,0-34.682-15.523-34.682-34.682S2251.061,2263.017,2270.208,2263.017z
		 M1636.549,1893.075l54.958,220.906l15.856,83.506h1.056l14.795-83.506l49.681-220.906h101.472l52.328,220.906l15.32,83.506h1.05
		l15.332-83.506l53.908-220.906h75.574l-99.892,369.942h-95.116l-56.55-240.46l-12.69-70.818h-1.05l-11.628,70.818l-54.439,240.46
		h-96.714l-101.997-369.942H1636.549z M1577.064,2465.329h600.659c19.147,0,34.682,15.523,34.682,34.682
		s-15.535,34.682-34.682,34.682h-600.659c-19.147,0-34.682-15.523-34.682-34.682S1557.916,2465.329,1577.064,2465.329z
		 M1557.803,2667.641h849.711c19.147,0,34.682,15.523,34.682,34.682s-15.535,34.682-34.682,34.682h-849.711
		c-19.147,0-34.682-15.523-34.682-34.682S1538.656,2667.641,1557.803,2667.641z M1557.803,2869.954h526.011
		c19.147,0,34.682,15.523,34.682,34.682s-15.535,34.682-34.682,34.682h-526.011c-19.147,0-34.682-15.523-34.682-34.682
		S1538.656,2869.954,1557.803,2869.954z M1557.803,3274.578h526.011c19.147,0,34.682,15.523,34.682,34.682
		c0,19.159-15.535,34.682-34.682,34.682h-526.011c-19.147,0-34.682-15.523-34.682-34.682
		C1523.121,3290.101,1538.656,3274.578,1557.803,3274.578z M2407.514,3546.254h-849.711c-19.147,0-34.682-15.523-34.682-34.682
		s15.535-34.682,34.682-34.682h849.711c19.147,0,34.682,15.523,34.682,34.682S2426.662,3546.254,2407.514,3546.254z
		 M2534.682,3511.572c0-19.159,15.535-34.682,34.682-34.682h872.832c19.147,0,34.682,15.523,34.682,34.682
		s-15.535,34.682-34.682,34.682h-872.832C2550.217,3546.254,2534.682,3530.731,2534.682,3511.572z"/><path fill="#85dae5" d="M2514.722 759.761c-27.383 0-99.717 10.851-99.717 133.297 0 122.457 72.333 133.306 99.717 133.306 27.383 0 99.717-10.849 99.717-133.306C2614.438 770.612 2542.105 759.761 2514.722 759.761zM2084.763 773.196h-41.851v239.735h41.851c22.218 0 118.316-4.139 118.316-119.873S2106.982 773.196 2084.763 773.196z"/><path fill="#85dae5" d="M3829.48 650.289c0-44.617-36.308-80.925-80.925-80.925h-2497.11c-44.617 0-80.925 36.308-80.925 80.925v566.474H3829.48V650.289zM2083.736 1073.896H1969.54V712.23h114.196c64.058 0 196.842 13.95 196.842 180.828C2280.578 972.112 2250.096 1073.896 2083.736 1073.896zM2514.722 1078.035c-89.392 0-177.226-53.739-177.226-184.977 0-131.228 87.834-184.965 177.226-184.965 89.381 0 177.215 53.738 177.215 184.965C2691.937 1024.296 2604.103 1078.035 2514.722 1078.035zM2950.37 1017.059c32.029 0 57.346-7.742 75.432-16.009l4.657 61.481c-32.04 10.849-64.594 15.504-93.524 15.504-89.9 0-188.07-51.155-188.07-182.908 0-124.515 87.834-187.034 201.505-187.034 28.416 0 52.7 3.623 80.089 12.405l-3.11 61.995c-21.179-8.266-44.431-13.435-71.82-13.435-81.111 0-129.155 51.155-129.155 125.041C2826.375 981.407 2885.268 1017.059 2950.37 1017.059zM3424.855 3875.722c-82.867 0-150.289 67.423-150.289 150.289v355.582l505.871-505.871H3424.855z"/><path fill="#333" d="M2808.3 1927.757h633.896c19.147 0 34.682-15.523 34.682-34.682s-15.535-34.682-34.682-34.682H2808.3c-19.147 0-34.682 15.523-34.682 34.682S2789.153 1927.757 2808.3 1927.757zM2270.208 2332.381h376.219c19.147 0 34.682-15.523 34.682-34.682s-15.535-34.682-34.682-34.682h-376.219c-19.147 0-34.682 15.523-34.682 34.682S2251.061 2332.381 2270.208 2332.381zM3442.197 2869.954h-468.208c-19.147 0-34.682 15.523-34.682 34.682s15.535 34.682 34.682 34.682h468.208c19.147 0 34.682-15.523 34.682-34.682S3461.344 2869.954 3442.197 2869.954zM1557.803 2737.006h849.711c19.147 0 34.682-15.523 34.682-34.682s-15.535-34.682-34.682-34.682h-849.711c-19.147 0-34.682 15.523-34.682 34.682S1538.656 2737.006 1557.803 2737.006zM1542.382 3106.948c0 19.159 15.535 34.682 34.682 34.682h853.572c19.147 0 34.682-15.523 34.682-34.682s-15.535-34.682-34.682-34.682h-853.572C1557.916 3072.266 1542.382 3087.789 1542.382 3106.948zM2270.208 1927.757h376.219c19.147 0 34.682-15.523 34.682-34.682s-15.535-34.682-34.682-34.682h-376.219c-19.147 0-34.682 15.523-34.682 34.682S2251.061 1927.757 2270.208 1927.757zM3442.197 2667.641h-872.832c-19.147 0-34.682 15.523-34.682 34.682s15.535 34.682 34.682 34.682h872.832c19.147 0 34.682-15.523 34.682-34.682S3461.344 2667.641 3442.197 2667.641zM3442.197 2465.329H3016.37c-19.147 0-34.682 15.523-34.682 34.682s15.535 34.682 34.682 34.682h425.826c19.147 0 34.682-15.523 34.682-34.682S3461.344 2465.329 3442.197 2465.329zM2889.202 2500.011c0-19.159-15.535-34.682-34.682-34.682h-514.925c-19.147 0-34.682 15.523-34.682 34.682s15.535 34.682 34.682 34.682h514.925C2873.668 2534.693 2889.202 2519.17 2889.202 2500.011zM1577.064 2534.693h600.659c19.147 0 34.682-15.523 34.682-34.682s-15.535-34.682-34.682-34.682h-600.659c-19.147 0-34.682 15.523-34.682 34.682S1557.916 2534.693 1577.064 2534.693zM3442.197 2263.017H2808.3c-19.147 0-34.682 15.523-34.682 34.682s15.535 34.682 34.682 34.682h633.896c19.147 0 34.682-15.523 34.682-34.682S3461.344 2263.017 3442.197 2263.017zM3442.197 2060.705h-398.844c-19.147 0-34.682 15.523-34.682 34.682s15.535 34.682 34.682 34.682h398.844c19.147 0 34.682-15.523 34.682-34.682S3461.344 2060.705 3442.197 2060.705zM2270.208 2130.069h611.272c19.147 0 34.682-15.523 34.682-34.682s-15.535-34.682-34.682-34.682h-611.272c-19.147 0-34.682 15.523-34.682 34.682S2251.061 2130.069 2270.208 2130.069zM3442.197 3546.254c19.147 0 34.682-15.523 34.682-34.682s-15.535-34.682-34.682-34.682h-872.832c-19.147 0-34.682 15.523-34.682 34.682s15.535 34.682 34.682 34.682H3442.197zM2407.514 3476.89h-849.711c-19.147 0-34.682 15.523-34.682 34.682s15.535 34.682 34.682 34.682h849.711c19.147 0 34.682-15.523 34.682-34.682S2426.662 3476.89 2407.514 3476.89zM3442.197 3274.578h-529.873c-19.147 0-34.682 15.523-34.682 34.682 0 19.159 15.535 34.682 34.682 34.682h529.873c19.147 0 34.682-15.523 34.682-34.682C3476.879 3290.101 3461.344 3274.578 3442.197 3274.578zM2245.687 3343.942h504.787c19.147 0 34.682-15.523 34.682-34.682 0-19.158-15.535-34.682-34.682-34.682h-504.787c-19.147 0-34.682 15.523-34.682 34.682C2211.005 3328.418 2226.54 3343.942 2245.687 3343.942zM1557.803 3343.942h526.011c19.147 0 34.682-15.523 34.682-34.682 0-19.158-15.535-34.682-34.682-34.682h-526.011c-19.147 0-34.682 15.523-34.682 34.682C1523.121 3328.418 1538.656 3343.942 1557.803 3343.942zM3442.197 3072.266h-849.688c-19.147 0-34.682 15.523-34.682 34.682s15.535 34.682 34.682 34.682h849.688c19.147 0 34.682-15.523 34.682-34.682S3461.344 3072.266 3442.197 3072.266zM2812.139 2939.318c19.147 0 34.682-15.523 34.682-34.682s-15.535-34.682-34.682-34.682h-566.451c-19.147 0-34.682 15.523-34.682 34.682s15.535 34.682 34.682 34.682H2812.139zM1557.803 2939.318h526.011c19.147 0 34.682-15.523 34.682-34.682s-15.535-34.682-34.682-34.682h-526.011c-19.147 0-34.682 15.523-34.682 34.682S1538.656 2939.318 1557.803 2939.318z"/><polygon fill="#333" points="1756.514 2263.017 1810.953 2022.557 1822.582 1951.739 1823.632 1951.739 1836.321 2022.557 1892.872 2263.017 1987.988 2263.017 2087.879 1893.075 2012.306 1893.075 1958.397 2113.981 1943.066 2197.487 1942.016 2197.487 1926.696 2113.981 1874.368 1893.075 1772.896 1893.075 1723.215 2113.981 1708.42 2197.487 1707.364 2197.487 1691.508 2113.981 1636.549 1893.075 1557.803 1893.075 1659.801 2263.017"/><path fill="#333" d="M2083.736 712.23H1969.54v361.665h114.196c166.36 0 196.842-101.784 196.842-180.838C2280.578 726.18 2147.794 712.23 2083.736 712.23zM2084.763 1012.931h-41.851V773.196h41.851c22.218 0 118.316 4.128 118.316 119.862S2106.982 1012.931 2084.763 1012.931zM2514.722 708.093c-89.392 0-177.226 53.738-177.226 184.965 0 131.238 87.834 184.977 177.226 184.977 89.381 0 177.215-53.739 177.215-184.977C2691.937 761.83 2604.103 708.093 2514.722 708.093zM2514.722 1026.364c-27.383 0-99.717-10.849-99.717-133.306 0-122.446 72.333-133.297 99.717-133.297 27.383 0 99.717 10.851 99.717 133.297C2614.438 1015.515 2542.105 1026.364 2514.722 1026.364zM2955.53 769.057c27.389 0 50.64 5.169 71.82 13.435l3.11-61.995c-27.389-8.782-51.673-12.405-80.089-12.405-113.671 0-201.505 62.52-201.505 187.034 0 131.753 98.17 182.908 188.07 182.908 28.93 0 61.484-4.654 93.524-15.504l-4.657-61.481c-18.086 8.267-43.403 16.009-75.432 16.009-65.102 0-123.995-35.652-123.995-122.961C2826.375 820.212 2874.419 769.057 2955.53 769.057z"/><path fill="#333" d="M3748.555,500h-2497.11c-82.867,0-150.289,67.422-150.289,150.289v601.156v3028.902
		c0,121.117,98.537,219.653,219.653,219.653h1919.075c2.286,0,4.561-0.238,6.802-0.686c1.315-0.262,2.546-0.735,3.81-1.143
		c0.881-0.286,1.795-0.468,2.659-0.825c1.462-0.607,2.805-1.413,4.16-2.206c0.593-0.347,1.23-0.594,1.806-0.978
		c1.908-1.275,3.686-2.724,5.306-4.342l624.232-624.234c2.179-2.176,3.946-4.72,5.487-7.41c0.339-0.601,0.672-1.187,0.977-1.805
		c1.332-2.683,2.433-5.494,3.031-8.515c0.022-0.1,0.011-0.202,0.034-0.302c0.401-2.114,0.655-4.282,0.655-6.513V1251.445V650.289
		C3898.844,567.422,3831.422,500,3748.555,500z M1170.52,4280.347V1286.127H3829.48v2520.231h-404.624
		c-121.116,0-219.653,98.537-219.653,219.653v404.624H1320.809C1237.943,4430.636,1170.52,4363.213,1170.52,4280.347z
		 M1170.52,650.289c0-44.617,36.308-80.925,80.925-80.925h2497.11c44.617,0,80.925,36.308,80.925,80.925v566.474H1170.52V650.289z
		 M3274.566,4026.012c0-82.867,67.422-150.289,150.289-150.289h355.582l-505.871,505.871V4026.012z"/></svg>