<svg xmlns="http://www.w3.org/2000/svg" viewBox="0 0 5000 5000"><path fill="#fff" d="M3205.202 4026.012c0-121.116 98.537-219.653 219.653-219.653h404.624V1286.127H1170.52v2994.219c0 82.867 67.422 150.289 150.289 150.289h1884.393v-404.623zm-1682.081-630.036V2008.693c0-82.867 67.422-150.289 150.289-150.289h1653.18c82.867 0 150.289 67.422 150.289 150.289v1387.283c0 82.867-67.422 150.289-150.289 150.289H1673.41c-82.866 0-150.289-67.422-150.289-150.289z"/><path fill="#85dae5" d="M1170.52 650.289v566.474h2658.96V650.289c0-44.617-36.308-80.925-80.925-80.925h-2497.11c-44.617 0-80.925 36.308-80.925 80.925zm1828.797 57.804h75.054v307.579h146.925v62.363h-221.979V708.093zm-520.705 0h126.84l73.987 215.088 16.387 65.544h1.592l16.387-65.544 73.987-215.088h126.84v369.942h-75.049V818.011l1.061-57.075h-1.592l-16.912 52.843-89.844 264.256h-71.345l-89.849-264.256-16.912-52.843h-1.592l1.067 57.075v260.024h-75.054V708.093zm-344.129 0h288.56v65.521h-106.761v304.421h-75.043V773.614h-106.756v-65.521zm-355.779 0h75.054v149.03h150.091v-149.03h75.054v369.942h-75.054v-160.14h-150.091v160.139h-75.054V708.093zm1646.151 3167.629c-82.867 0-150.289 67.423-150.289 150.289v355.582l505.871-505.871h-355.582zM1673.41 3476.901h1653.18c44.617 0 80.925-36.308 80.925-80.925V2008.693c0-44.617-36.308-80.925-80.925-80.925H1673.41c-44.617 0-80.925 36.308-80.925 80.925v1387.283c0 44.618 36.308 80.925 80.925 80.925zM2500 1997.132c388.841 0 705.202 316.361 705.202 705.202S2888.841 3407.537 2500 3407.537s-705.202-316.361-705.202-705.202 316.361-705.203 705.202-705.203z"/><path fill="#fff" d="M2761.832 2667.653h73.327c-9.229-307.384-140.077-564.708-300.476-597.572v597.572h73.88c19.147 0 34.682 15.535 34.682 34.682s-15.535 34.682-34.682 34.682h-73.88v597.572c160.399-32.863 291.247-290.187 300.476-597.572h-73.327c-19.147 0-34.682-15.535-34.682-34.682s15.534-34.682 34.682-34.682zm-846.144 0c19.147 0 34.682 15.535 34.682 34.682s-15.535 34.682-34.682 34.682h-50.544c13.994 258.948 183.616 477.217 416.778 562.617-107.992-118.102-180.139-322.871-186.512-562.617h-64.769c-19.147 0-34.682-15.535-34.682-34.682s15.535-34.682 34.682-34.682h64.769c6.373-239.746 78.52-444.515 186.512-562.617-233.161 85.4-402.784 303.669-416.778 562.617h50.544z"/><path fill="#fff" d="M2972.566 2667.653c19.147 0 34.682 15.535 34.682 34.682s-15.535 34.682-34.682 34.682h-67.976c-6.373 239.746-78.52 444.515-186.512 562.617 233.161-85.4 402.784-303.668 416.778-562.617h-47.338c-19.147 0-34.682-15.535-34.682-34.682s15.535-34.682 34.682-34.682h47.338c-13.994-258.948-183.616-477.217-416.778-562.617 107.992 118.102 180.139 322.871 186.512 562.617h67.976zm-734.398 69.364h-73.327c9.229 307.384 140.077 564.708 300.476 597.572v-597.572h-73.88c-19.147 0-34.682-15.535-34.682-34.682s15.535-34.682 34.682-34.682h73.88v-597.572c-160.399 32.863-291.247 290.187-300.476 597.572h73.327c19.147 0 34.682 15.535 34.682 34.682s-15.534 34.682-34.682 34.682z"/><path fill="#333" d="M3326.59 3546.265c82.867 0 150.289-67.422 150.289-150.289V2008.693c0-82.867-67.422-150.289-150.289-150.289H1673.41c-82.867 0-150.289 67.422-150.289 150.289v1387.283c0 82.867 67.422 150.289 150.289 150.289h1653.18zM1592.485 2008.693c0-44.617 36.308-80.925 80.925-80.925h1653.18c44.617 0 80.925 36.308 80.925 80.925v1387.283c0 44.617-36.308 80.925-80.925 80.925H1673.41c-44.617 0-80.925-36.308-80.925-80.925V2008.693z"/><path fill="#333" d="M2500 3407.537c388.841 0 705.202-316.361 705.202-705.202S2888.841 1997.132 2500 1997.132s-705.202 316.361-705.202 705.202 316.361 705.203 705.202 705.203zm634.856-739.884h-47.338c-19.147 0-34.682 15.535-34.682 34.682s15.535 34.682 34.682 34.682h47.338c-13.994 258.948-183.616 477.217-416.778 562.617 107.992-118.102 180.139-322.871 186.512-562.617h67.976c19.147 0 34.682-15.535 34.682-34.682s-15.535-34.682-34.682-34.682h-67.976c-6.373-239.746-78.52-444.515-186.512-562.617 233.162 85.399 402.784 303.668 416.778 562.617zm-896.688 0h-73.327c9.229-307.384 140.077-564.708 300.476-597.572v597.572h-73.88c-19.147 0-34.682 15.535-34.682 34.682s15.535 34.682 34.682 34.682h73.88v597.572c-160.399-32.863-291.247-290.187-300.476-597.572h73.327c19.147 0 34.682-15.535 34.682-34.682s-15.534-34.682-34.682-34.682zm523.664 69.364h73.327c-9.229 307.384-140.077 564.708-300.476 597.572v-597.572h73.88c19.147 0 34.682-15.535 34.682-34.682s-15.535-34.682-34.682-34.682h-73.88v-597.572c160.399 32.863 291.247 290.187 300.476 597.572h-73.327c-19.147 0-34.682 15.535-34.682 34.682s15.534 34.682 34.682 34.682zm-479.91-631.982c-107.992 118.102-180.139 322.871-186.512 562.617h-64.769c-19.147 0-34.682 15.535-34.682 34.682s15.535 34.682 34.682 34.682h64.769c6.373 239.746 78.52 444.515 186.512 562.617-233.161-85.4-402.784-303.668-416.778-562.617h50.544c19.147 0 34.682-15.535 34.682-34.682s-15.535-34.682-34.682-34.682h-50.544c13.994-258.948 183.616-477.217 416.778-562.617zM1853.758 917.895h150.092v160.14h75.054V708.093h-75.054v149.03h-150.092v-149.03h-75.054v369.942h75.054zM2241.239 1078.035h75.043V773.614h106.761v-65.521h-288.56v65.521h106.756zM2553.666 818.011l-1.067-57.076h1.592l16.912 52.844 89.849 264.256h71.346l89.843-264.256 16.912-52.844h1.592l-1.061 57.076v260.024h75.049V708.093h-126.841l-73.987 215.087-16.387 65.544h-1.592l-16.387-65.544-73.987-215.087h-126.84v369.942h75.054zM3221.296 1015.672h-146.925V708.093h-75.054v369.942h221.979z"/><path fill="#333" d="M3748.555 500h-2497.11c-82.867 0-150.289 67.422-150.289 150.289v3630.058c0 121.117 98.537 219.653 219.653 219.653h1919.075c2.292 0 4.572-.238 6.808-.688 1.27-.252 2.45-.714 3.664-1.101.937-.298 1.896-.492 2.805-.869 1.372-.57 2.63-1.336 3.906-2.07.683-.393 1.411-.683 2.066-1.124a34.544 34.544 0 0 0 5.272-4.31l624.277-624.278c2.168-2.166 3.917-4.698 5.453-7.372.35-.61.683-1.204.994-1.833 1.332-2.678 2.427-5.485 3.026-8.5.022-.103.011-.209.034-.312.401-2.111.655-4.276.655-6.504V650.289c0-82.867-67.422-150.289-150.289-150.289zM1170.52 4280.347v-2994.22h2658.96v2520.231h-404.624c-121.116 0-219.653 98.537-219.653 219.653v404.624H1320.809c-82.866.001-150.289-67.422-150.289-150.288zM3829.48 650.289v566.474H1170.52V650.289c0-44.617 36.308-80.925 80.925-80.925h2497.11c44.617 0 80.925 36.308 80.925 80.925zm-554.914 3375.723c0-82.867 67.422-150.289 150.289-150.289h355.582l-505.871 505.871v-355.582z"/></svg>