<svg xmlns="http://www.w3.org/2000/svg" enable-background="new 0 0 5000 5000" viewBox="0 0 5000 5000"><path fill="#fff" d="M3205.202,4026.012c0-121.116,98.537-219.653,219.653-219.653h404.624V1286.127H1170.52v2994.219
		c0,82.867,67.422,150.289,150.289,150.289h1884.393V4026.012z M2936.394,3271.688c-127.484,0-231.214-103.719-231.214-231.214
		c0-127.495,103.73-231.214,231.214-231.214h78.035c62.986,0,120.106,25.382,161.85,66.375v-618.398H2063.584v1018.786
		c0,127.495-103.73,231.214-231.214,231.214h-78.035c-127.484,0-231.214-103.719-231.214-231.214
		c0-127.495,103.73-231.214,231.214-231.214h78.035c62.985,0,120.106,25.382,161.85,66.375v-888.629v-213.873
		c0-82.867,67.422-150.289,150.289-150.289h950.844c82.867,0,150.289,67.422,150.289,150.289v213.873v817.919
		c0,127.495-103.73,231.214-231.214,231.214H2936.394z"/><path fill="#fff" d="M2458.07,2023.133c19.147,0,34.682,15.523,34.682,34.682h184.994
		c0-19.159,15.535-34.682,34.682-34.682h463.85v-14.451c0-44.617-36.308-80.925-80.925-80.925h-950.844
		c-44.617,0-80.925,36.308-80.925,80.925v14.451H2458.07z"/><path fill="#85dae5" d="M2652.18,823.311c0-29.969-19.114-54.254-61.478-54.254h-33.582v112.121h33.582
		C2635.133,881.178,2652.18,850.695,2652.18,823.311z"/><path fill="#85dae5" d="M1170.52 650.289v566.474H3829.48V650.289c0-44.617-36.308-80.925-80.925-80.925h-2497.11C1206.828 569.364 1170.52 605.672 1170.52 650.289zM2790.214 1002.08c25.312 10.851 57.865 19.116 85.762 19.116 58.898 0 71.82-34.106 71.82-54.253 0-47.531-49.601-52.184-79.056-52.184h-37.194v-56.827h33.581c27.903 0 80.084-4.139 80.084-52.184 0-22.742-18.086-40.819-63.55-40.819-25.831 0-56.838 6.198-82.663 16.019l-4.144-58.907c28.428-7.742 64.589-13.948 98.176-13.948 107.975 0 129.679 55.283 129.679 90.418 0 37.205-19.119 76.985-67.163 83.696v1.555c43.392 7.752 69.748 43.402 69.748 85.25 0 53.729-42.89 109.022-149.832 109.022-26.356 0-56.838-5.168-88.873-14.99L2790.214 1002.08zM2483.748 712.23h106.954c131.238 0 138.977 90.419 138.977 113.15 0 47.531-33.068 112.635-125.542 112.635h-47.016v135.881h-73.372V712.23zM1974.705 712.23h124.001l72.333 210.281 16.02 64.065h1.552l16.014-64.065 72.333-210.281h124.001v361.665h-73.372V819.697l1.044-55.797h-1.558l-16.534 51.659-87.834 258.336h-69.748l-87.834-258.336-16.534-51.659h-1.552l1.039 55.797v254.198h-73.372V712.23zM3424.855 3875.722c-82.867 0-150.289 67.423-150.289 150.289v355.582l505.871-505.871H3424.855zM1832.37 3114.173h-14.699c30.313 23.553 49.381 57.044 49.381 94.33 0 71.251-69.229 129.011-154.624 129.011-47.976 0-90.837-18.234-119.197-46.843 7.434 82.397 76.815 147.201 161.105 147.201h78.035c89.234 0 161.85-72.604 161.85-161.85S1921.604 3114.173 1832.37 3114.173zM3014.428 2878.624h-14.694c30.313 23.553 49.387 57.044 49.387 94.33 0 71.251-69.229 129.01-154.624 129.01-47.981 0-90.849-18.237-119.214-46.851 7.434 82.401 76.815 147.21 161.11 147.21h78.035c89.234 0 161.85-72.604 161.85-161.85S3103.662 2878.624 3014.428 2878.624zM2458.07 2092.497h-394.486v95.376h1112.694v-95.376h-463.85c-19.147 0-34.682-15.523-34.682-34.682h-184.994C2492.752 2076.973 2477.217 2092.497 2458.07 2092.497z"/><path fill="#fff" d="M1867.052 3208.503c0-37.286-19.068-70.777-49.381-94.33h-63.335c-89.234 0-161.85 72.604-161.85 161.85 0 4.945.305 9.816.745 14.648 28.36 28.608 71.221 46.843 119.197 46.843C1797.823 3337.514 1867.052 3279.754 1867.052 3208.503zM3049.122 2972.954c0-37.286-19.074-70.777-49.387-94.33h-63.341c-89.234 0-161.85 72.604-161.85 161.85 0 4.942.305 9.81.74 14.64 28.365 28.614 71.233 46.851 119.214 46.851C2979.893 3101.965 3049.122 3044.205 3049.122 2972.954z"/><path fill="#333" d="M3245.642,3040.474v-817.919v-213.873c0-82.867-67.422-150.289-150.289-150.289h-950.844
		c-82.867,0-150.289,67.422-150.289,150.289v213.873v888.629c-41.744-40.993-98.864-66.375-161.85-66.375h-78.035
		c-127.484,0-231.214,103.719-231.214,231.214c0,127.495,103.73,231.214,231.214,231.214h78.035
		c127.484,0,231.214-103.719,231.214-231.214V2257.237h1112.694v618.398c-41.744-40.993-98.864-66.375-161.85-66.375h-78.035
		c-127.484,0-231.214,103.719-231.214,231.214c0,127.495,103.73,231.214,231.214,231.214h78.035
		C3141.912,3271.688,3245.642,3167.969,3245.642,3040.474z M3014.428,3202.323h-78.035c-84.295,0-153.676-64.809-161.11-147.21
		c-0.435-4.831-0.74-9.698-0.74-14.64c0-89.245,72.615-161.85,161.85-161.85h63.341h14.694c89.234,0,161.85,72.604,161.85,161.85
		S3103.662,3202.323,3014.428,3202.323z M2144.509,1927.757h950.844c44.617,0,80.925,36.308,80.925,80.925v14.451h-463.85
		c-19.147,0-34.682,15.523-34.682,34.682c0,19.159,15.535,34.682,34.682,34.682h463.85v95.376H2063.584v-95.376h394.486
		c19.147,0,34.682-15.523,34.682-34.682c0-19.159-15.535-34.682-34.682-34.682h-394.486v-14.451
		C2063.584,1964.065,2099.892,1927.757,2144.509,1927.757z M1832.37,3437.873h-78.035c-84.289,0-153.67-64.804-161.105-147.201
		c-0.44-4.832-0.745-9.704-0.745-14.648c0-89.245,72.616-161.85,161.85-161.85h63.335h14.699c89.234,0,161.85,72.604,161.85,161.85
		S1921.604,3437.873,1832.37,3437.873z"/><polygon fill="#333" points="2048.077 819.697 2047.039 763.901 2048.591 763.901 2065.125 815.56 2152.959 1073.896 2222.707 1073.896 2310.541 815.56 2327.075 763.901 2328.633 763.901 2327.589 819.697 2327.589 1073.896 2400.961 1073.896 2400.961 712.23 2276.96 712.23 2204.626 922.511 2188.612 986.576 2187.06 986.576 2171.04 922.511 2098.706 712.23 1974.705 712.23 1974.705 1073.896 2048.077 1073.896"/><path fill="#333" d="M2557.12 938.015h47.016c92.474 0 125.542-65.104 125.542-112.635 0-22.73-7.739-113.15-138.977-113.15h-106.954v361.665h73.372V938.015zM2557.12 769.057h33.582c42.365 0 61.478 24.286 61.478 54.254 0 27.383-17.047 57.867-61.478 57.867h-33.582V769.057zM3025.295 969.013c0-41.848-26.356-77.498-69.748-85.25v-1.555c48.043-6.712 67.163-46.491 67.163-83.696 0-35.135-21.704-90.418-129.679-90.418-33.587 0-69.748 6.206-98.176 13.948l4.144 58.907c25.825-9.821 56.833-16.019 82.663-16.019 45.464 0 63.55 18.078 63.55 40.819 0 48.045-52.181 52.184-80.084 52.184h-33.581v56.827h37.194c29.455 0 79.056 4.653 79.056 52.184 0 20.147-12.921 54.253-71.82 54.253-27.897 0-60.451-8.265-85.762-19.116l-3.624 60.965c32.035 9.822 62.517 14.99 88.873 14.99C2982.405 1078.035 3025.295 1022.742 3025.295 969.013z"/><path fill="#333" d="M3748.555,500h-2497.11c-82.867,0-150.289,67.422-150.289,150.289v601.156v3028.902
		c0,121.117,98.537,219.653,219.653,219.653h1919.075c2.286,0,4.561-0.238,6.802-0.686c1.315-0.262,2.546-0.735,3.81-1.143
		c0.881-0.286,1.795-0.468,2.659-0.825c1.462-0.607,2.805-1.413,4.16-2.206c0.593-0.347,1.23-0.594,1.806-0.978
		c1.908-1.275,3.686-2.724,5.306-4.342l624.232-624.234c2.179-2.176,3.946-4.72,5.487-7.41c0.339-0.601,0.672-1.187,0.977-1.805
		c1.332-2.683,2.433-5.494,3.031-8.515c0.022-0.1,0.011-0.202,0.034-0.302c0.401-2.114,0.655-4.282,0.655-6.513V1251.445V650.289
		C3898.844,567.422,3831.422,500,3748.555,500z M1170.52,4280.347V1286.127H3829.48v2520.231h-404.624
		c-121.116,0-219.653,98.537-219.653,219.653v404.624H1320.809C1237.943,4430.636,1170.52,4363.213,1170.52,4280.347z
		 M3829.48,650.289v566.474H1170.52V650.289c0-44.617,36.308-80.925,80.925-80.925h2497.11
		C3793.172,569.364,3829.48,605.672,3829.48,650.289z M3274.566,4026.012c0-82.867,67.422-150.289,150.289-150.289h355.582
		l-505.871,505.871V4026.012z"/></svg>