<svg xmlns="http://www.w3.org/2000/svg" enable-background="new 0 0 5000 5000" viewBox="0 0 5000 5000"><path fill="#fff" d="M3205.202,4026.012c0-121.116,98.537-219.653,219.653-219.653h404.624V1286.127H1170.52v2994.219
		c0,82.867,67.422,150.289,150.289,150.289h1884.393V4026.012z M1523.121,3465.329v-46.243c0-44.617,36.308-80.925,80.925-80.925
		h40.463c6.367,0,11.561-5.182,11.561-11.561V3141.63c0-6.379-5.193-11.561-11.561-11.561h-40.463
		c-44.617,0-80.925-36.308-80.925-80.925v-693.642c0-44.617,36.308-80.925,80.925-80.925h40.463c6.367,0,11.561-5.182,11.561-11.561
		v-184.971c0-6.379-5.193-11.561-11.561-11.561h-40.463c-44.617,0-80.925-36.308-80.925-80.925v-46.243
		c0-44.617,36.308-80.925,80.925-80.925h1791.908c44.617,0,80.925,36.308,80.925,80.925v46.243
		c0,44.617-36.308,80.925-80.925,80.925h-40.463c-6.367,0-11.561,5.182-11.561,11.561v184.971c0,6.379,5.193,11.561,11.561,11.561
		h40.463c44.617,0,80.925,36.308,80.925,80.925v693.642c0,44.617-36.308,80.925-80.925,80.925h-40.463
		c-6.367,0-11.561,5.182-11.561,11.561v184.971c0,6.379,5.193,11.561,11.561,11.561h40.463c44.617,0,80.925,36.308,80.925,80.925
		v46.243c0,44.617-36.308,80.925-80.925,80.925H1604.046C1559.429,3546.254,1523.121,3509.946,1523.121,3465.329z"/><polygon fill="#d3f990" points="2932.149 823.304 2933.198 782.605 2932.149 782.605 2855.497 920.543 2839.663 945.909 2840.177 946.974 2866.606 946.436 2932.149 946.436"/><path fill="#d3f990" d="M2638.762,821.715c0-30.654-19.576-55.495-62.895-55.495h-34.361v114.685h34.361
		C2621.314,880.906,2638.762,849.725,2638.762,821.715z"/><path fill="#d3f990" d="M1170.52 650.289v566.474H3829.48V650.289c0-44.617-36.308-80.925-80.925-80.925h-2497.11C1206.828 569.364 1170.52 605.672 1170.52 650.289zM2770.959 941.151l139.507-233.058h96.719v238.343h47.039v58.139h-47.039v73.459h-75.037v-73.459h-161.189V941.151zM2466.464 708.093h109.403c134.24 0 142.149 92.488 142.149 115.738 0 48.619-33.824 115.213-128.398 115.213h-48.111v138.991h-75.043V708.093zM1945.775 708.093h126.829l74.004 215.093 16.376 65.53h1.586l16.398-65.53 73.965-215.093h126.852v369.942h-75.065V818.019l1.078-57.075h-1.592l-16.912 52.842-89.844 264.249h-71.345l-89.844-264.249-16.912-52.842h-1.592l1.056 57.075v260.015h-75.037V708.093zM3424.855 3875.722c-82.867 0-150.289 67.423-150.289 150.289v355.582l505.871-505.871H3424.855z"/><path fill="#fff" d="M1604.046,3476.89h1791.908c6.367,0,11.561-5.182,11.561-11.561v-46.243
		c0-6.379-5.193-11.561-11.561-11.561h-40.463c-44.617,0-80.925-36.308-80.925-80.925V3141.63c0-44.617,36.308-80.925,80.925-80.925
		h40.463c6.367,0,11.561-5.182,11.561-11.561v-693.642c0-6.379-5.193-11.561-11.561-11.561h-40.463
		c-44.617,0-80.925-36.308-80.925-80.925v-184.971c0-44.617,36.308-80.925,80.925-80.925h40.463c6.367,0,11.561-5.182,11.561-11.561
		v-46.243c0-6.379-5.193-11.561-11.561-11.561H1604.046c-6.367,0-11.561,5.182-11.561,11.561v46.243
		c0,6.379,5.193,11.561,11.561,11.561h40.463c44.617,0,80.925,36.308,80.925,80.925v184.971c0,44.617-36.308,80.925-80.925,80.925
		h-40.463c-6.367,0-11.561,5.182-11.561,11.561v693.642c0,6.379,5.193,11.561,11.561,11.561h40.463
		c44.617,0,80.925,36.308,80.925,80.925v184.971c0,44.617-36.308,80.925-80.925,80.925h-40.463c-6.367,0-11.561,5.182-11.561,11.561
		v46.243C1592.485,3471.708,1597.679,3476.89,1604.046,3476.89z M2650.289,3326.601c0,44.617-36.308,80.925-80.925,80.925h-138.729
		c-44.617,0-80.925-36.308-80.925-80.925V3141.63c0-44.617,36.308-80.925,80.925-80.925h138.729
		c44.617,0,80.925,36.308,80.925,80.925V3326.601z M2812.139,2078.046c0-44.617,36.308-80.925,80.925-80.925h138.728
		c44.617,0,80.925,36.308,80.925,80.925v184.971c0,44.617-36.308,80.925-80.925,80.925h-138.728
		c-44.617,0-80.925-36.308-80.925-80.925V2078.046z M2812.139,3141.63c0-44.617,36.308-80.925,80.925-80.925h138.728
		c44.617,0,80.925,36.308,80.925,80.925v184.971c0,44.617-36.308,80.925-80.925,80.925h-138.728
		c-44.617,0-80.925-36.308-80.925-80.925V3141.63z M2349.711,2078.046c0-44.617,36.308-80.925,80.925-80.925h138.729
		c44.617,0,80.925,36.308,80.925,80.925v184.971c0,44.617-36.308,80.925-80.925,80.925h-138.729
		c-44.617,0-80.925-36.308-80.925-80.925V2078.046z M2255.125,2549.314c0-28.902,14.857-54.947,39.74-69.658
		c24.86-14.711,54.868-15.151,80.18-1.242l278.179,152.999c25.876,14.225,41.93,41.399,41.93,70.911
		c0,29.511-16.054,56.686-41.93,70.911l-278.179,153.01c-12.283,6.751-25.65,10.115-39.017,10.115
		c-14.18,0-28.36-3.793-41.162-11.369c-24.883-14.722-39.74-40.756-39.74-69.658V2549.314z M1887.283,2078.046
		c0-44.617,36.308-80.925,80.925-80.925h138.728c44.617,0,80.925,36.308,80.925,80.925v184.971
		c0,44.617-36.308,80.925-80.925,80.925h-138.728c-44.617,0-80.925-36.308-80.925-80.925V2078.046z M1887.283,3141.63
		c0-44.617,36.308-80.925,80.925-80.925h138.728c44.617,0,80.925,36.308,80.925,80.925v184.971
		c0,44.617-36.308,80.925-80.925,80.925h-138.728c-44.617,0-80.925-36.308-80.925-80.925V3141.63z"/><path fill="#d3f990" d="M1968.208 2274.578h138.728c6.367 0 11.561-5.182 11.561-11.561v-184.971c0-6.379-5.193-11.561-11.561-11.561h-138.728c-6.367 0-11.561 5.182-11.561 11.561v184.971C1956.647 2269.396 1961.841 2274.578 1968.208 2274.578zM2430.636 2274.578h138.729c6.367 0 11.561-5.182 11.561-11.561v-184.971c0-6.379-5.193-11.561-11.561-11.561h-138.729c-6.367 0-11.561 5.182-11.561 11.561v184.971C2419.075 2269.396 2424.268 2274.578 2430.636 2274.578zM2893.064 2274.578h138.728c6.367 0 11.561-5.182 11.561-11.561v-184.971c0-6.379-5.193-11.561-11.561-11.561h-138.728c-6.367 0-11.561 5.182-11.561 11.561v184.971C2881.503 2269.396 2886.696 2274.578 2893.064 2274.578zM1968.208 3338.162h138.728c6.367 0 11.561-5.182 11.561-11.561V3141.63c0-6.379-5.193-11.561-11.561-11.561h-138.728c-6.367 0-11.561 5.182-11.561 11.561v184.971C1956.647 3332.979 1961.841 3338.162 1968.208 3338.162zM2569.364 3130.069h-138.729c-6.367 0-11.561 5.182-11.561 11.561v184.971c0 6.379 5.193 11.561 11.561 11.561h138.729c6.367 0 11.561-5.182 11.561-11.561V3141.63C2580.925 3135.251 2575.732 3130.069 2569.364 3130.069zM2893.064 3338.162h138.728c6.367 0 11.561-5.182 11.561-11.561V3141.63c0-6.379-5.193-11.561-11.561-11.561h-138.728c-6.367 0-11.561 5.182-11.561 11.561v184.971C2881.503 3332.979 2886.696 3338.162 2893.064 3338.162zM2324.49 2549.314v306.02c0 5.735 3.545 8.693 5.667 9.946 2.145 1.253 6.435 2.935 11.47.181l278.179-153.01c5.216-2.867 5.984-7.575 5.984-10.127s-.768-7.259-5.984-10.127l-278.179-152.999c-2.01-1.106-3.884-1.502-5.554-1.502-2.552 0-4.629.915-5.916 1.671C2328.035 2540.621 2324.49 2543.578 2324.49 2549.314z"/><path fill="#333" d="M2430.636 2343.942h138.729c44.617 0 80.925-36.308 80.925-80.925v-184.971c0-44.617-36.308-80.925-80.925-80.925h-138.729c-44.617 0-80.925 36.308-80.925 80.925v184.971C2349.711 2307.634 2386.019 2343.942 2430.636 2343.942zM2419.075 2078.046c0-6.379 5.193-11.561 11.561-11.561h138.729c6.367 0 11.561 5.182 11.561 11.561v184.971c0 6.379-5.193 11.561-11.561 11.561h-138.729c-6.367 0-11.561-5.182-11.561-11.561V2078.046zM2893.064 2343.942h138.728c44.617 0 80.925-36.308 80.925-80.925v-184.971c0-44.617-36.308-80.925-80.925-80.925h-138.728c-44.617 0-80.925 36.308-80.925 80.925v184.971C2812.139 2307.634 2848.447 2343.942 2893.064 2343.942zM2881.503 2078.046c0-6.379 5.193-11.561 11.561-11.561h138.728c6.367 0 11.561 5.182 11.561 11.561v184.971c0 6.379-5.193 11.561-11.561 11.561h-138.728c-6.367 0-11.561-5.182-11.561-11.561V2078.046zM2569.364 3060.705h-138.729c-44.617 0-80.925 36.308-80.925 80.925v184.971c0 44.617 36.308 80.925 80.925 80.925h138.729c44.617 0 80.925-36.308 80.925-80.925V3141.63C2650.289 3097.013 2613.981 3060.705 2569.364 3060.705zM2580.925 3326.601c0 6.379-5.193 11.561-11.561 11.561h-138.729c-6.367 0-11.561-5.182-11.561-11.561V3141.63c0-6.379 5.193-11.561 11.561-11.561h138.729c6.367 0 11.561 5.182 11.561 11.561V3326.601zM2893.064 3407.526h138.728c44.617 0 80.925-36.308 80.925-80.925V3141.63c0-44.617-36.308-80.925-80.925-80.925h-138.728c-44.617 0-80.925 36.308-80.925 80.925v184.971C2812.139 3371.218 2848.447 3407.526 2893.064 3407.526zM2881.503 3141.63c0-6.379 5.193-11.561 11.561-11.561h138.728c6.367 0 11.561 5.182 11.561 11.561v184.971c0 6.379-5.193 11.561-11.561 11.561h-138.728c-6.367 0-11.561-5.182-11.561-11.561V3141.63zM1968.208 2343.942h138.728c44.617 0 80.925-36.308 80.925-80.925v-184.971c0-44.617-36.308-80.925-80.925-80.925h-138.728c-44.617 0-80.925 36.308-80.925 80.925v184.971C1887.283 2307.634 1923.591 2343.942 1968.208 2343.942zM1956.647 2078.046c0-6.379 5.193-11.561 11.561-11.561h138.728c6.367 0 11.561 5.182 11.561 11.561v184.971c0 6.379-5.193 11.561-11.561 11.561h-138.728c-6.367 0-11.561-5.182-11.561-11.561V2078.046zM1968.208 3407.526h138.728c44.617 0 80.925-36.308 80.925-80.925V3141.63c0-44.617-36.308-80.925-80.925-80.925h-138.728c-44.617 0-80.925 36.308-80.925 80.925v184.971C1887.283 3371.218 1923.591 3407.526 1968.208 3407.526zM1956.647 3141.63c0-6.379 5.193-11.561 11.561-11.561h138.728c6.367 0 11.561 5.182 11.561 11.561v184.971c0 6.379-5.193 11.561-11.561 11.561h-138.728c-6.367 0-11.561-5.182-11.561-11.561V3141.63z"/><path fill="#333" d="M3395.954,3546.254c44.617,0,80.925-36.308,80.925-80.925v-46.243
		c0-44.617-36.308-80.925-80.925-80.925h-40.463c-6.367,0-11.561-5.182-11.561-11.561V3141.63c0-6.379,5.193-11.561,11.561-11.561
		h40.463c44.617,0,80.925-36.308,80.925-80.925v-693.642c0-44.617-36.308-80.925-80.925-80.925h-40.463
		c-6.367,0-11.561-5.182-11.561-11.561v-184.971c0-6.379,5.193-11.561,11.561-11.561h40.463c44.617,0,80.925-36.308,80.925-80.925
		v-46.243c0-44.617-36.308-80.925-80.925-80.925H1604.046c-44.617,0-80.925,36.308-80.925,80.925v46.243
		c0,44.617,36.308,80.925,80.925,80.925h40.463c6.367,0,11.561,5.182,11.561,11.561v184.971c0,6.379-5.193,11.561-11.561,11.561
		h-40.463c-44.617,0-80.925,36.308-80.925,80.925v693.642c0,44.617,36.308,80.925,80.925,80.925h40.463
		c6.367,0,11.561,5.182,11.561,11.561v184.971c0,6.379-5.193,11.561-11.561,11.561h-40.463c-44.617,0-80.925,36.308-80.925,80.925
		v46.243c0,44.617,36.308,80.925,80.925,80.925H3395.954z M1592.485,3419.086c0-6.379,5.193-11.561,11.561-11.561h40.463
		c44.617,0,80.925-36.308,80.925-80.925V3141.63c0-44.617-36.308-80.925-80.925-80.925h-40.463c-6.367,0-11.561-5.182-11.561-11.561
		v-693.642c0-6.379,5.193-11.561,11.561-11.561h40.463c44.617,0,80.925-36.308,80.925-80.925v-184.971
		c0-44.617-36.308-80.925-80.925-80.925h-40.463c-6.367,0-11.561-5.182-11.561-11.561v-46.243c0-6.379,5.193-11.561,11.561-11.561
		h1791.908c6.367,0,11.561,5.182,11.561,11.561v46.243c0,6.379-5.193,11.561-11.561,11.561h-40.463
		c-44.617,0-80.925,36.308-80.925,80.925v184.971c0,44.617,36.308,80.925,80.925,80.925h40.463c6.367,0,11.561,5.182,11.561,11.561
		v693.642c0,6.379-5.193,11.561-11.561,11.561h-40.463c-44.617,0-80.925,36.308-80.925,80.925v184.971
		c0,44.617,36.308,80.925,80.925,80.925h40.463c6.367,0,11.561,5.182,11.561,11.561v46.243c0,6.379-5.193,11.561-11.561,11.561
		H1604.046c-6.367,0-11.561-5.182-11.561-11.561V3419.086z"/><path fill="#333" d="M2294.865,2924.991c12.802,7.575,26.982,11.369,41.162,11.369c13.367,0,26.734-3.364,39.017-10.115
		l278.179-153.01c25.876-14.225,41.93-41.4,41.93-70.911c0-29.511-16.054-56.686-41.93-70.911l-278.179-152.999
		c-25.312-13.909-55.32-13.469-80.18,1.242c-24.883,14.71-39.74,40.756-39.74,69.658v306.02
		C2255.125,2884.235,2269.983,2910.269,2294.865,2924.991z M2341.627,2539.198l278.179,152.999
		c5.216,2.868,5.984,7.575,5.984,10.127s-0.768,7.259-5.984,10.127l-278.179,153.01c-5.035,2.755-9.325,1.073-11.47-0.181
		c-2.123-1.253-5.667-4.211-5.667-9.946v-306.02c0-5.735,3.545-8.693,5.667-9.947c1.287-0.756,3.364-1.671,5.916-1.671
		C2337.744,2537.696,2339.618,2538.092,2341.627,2539.198z"/><polygon fill="#333" points="2020.813 818.019 2019.757 760.944 2021.349 760.944 2038.261 813.786 2128.105 1078.035 2199.45 1078.035 2289.294 813.786 2306.206 760.944 2307.798 760.944 2306.72 818.019 2306.72 1078.035 2381.785 1078.035 2381.785 708.093 2254.934 708.093 2180.969 923.186 2164.571 988.716 2162.984 988.716 2146.609 923.186 2072.604 708.093 1945.775 708.093 1945.775 1078.035 2020.813 1078.035"/><path fill="#333" d="M2541.507 939.044h48.111c94.574 0 128.398-66.594 128.398-115.213 0-23.25-7.908-115.738-142.149-115.738h-109.403v369.942h75.043V939.044zM2541.507 766.221h34.361c43.319 0 62.895 24.84 62.895 55.495 0 28.01-17.448 59.191-62.895 59.191h-34.361V766.221zM2932.149 1078.035h75.037v-73.459h47.039v-58.139h-47.039V708.093h-96.719l-139.507 233.058v63.424h161.189V1078.035zM2866.606 946.436l-26.429.538-.514-1.064 15.834-25.367 76.652-137.938h1.05l-1.05 40.7v123.131H2866.606z"/><path fill="#333" d="M3748.555,500h-2497.11c-82.867,0-150.289,67.422-150.289,150.289v601.156v3028.902
		c0,121.117,98.537,219.653,219.653,219.653h1919.075c2.286,0,4.561-0.238,6.802-0.686c1.315-0.262,2.546-0.735,3.81-1.143
		c0.881-0.286,1.795-0.468,2.659-0.825c1.462-0.607,2.805-1.413,4.16-2.206c0.593-0.347,1.23-0.594,1.806-0.978
		c1.908-1.275,3.686-2.724,5.306-4.342l624.232-624.234c2.179-2.176,3.946-4.72,5.487-7.41c0.339-0.601,0.672-1.187,0.977-1.805
		c1.332-2.683,2.433-5.494,3.031-8.515c0.022-0.1,0.011-0.202,0.034-0.302c0.401-2.114,0.655-4.282,0.655-6.513V1251.445V650.289
		C3898.844,567.422,3831.422,500,3748.555,500z M1170.52,4280.347V1286.127H3829.48v2520.231h-404.624
		c-121.116,0-219.653,98.537-219.653,219.653v404.624H1320.809C1237.943,4430.636,1170.52,4363.213,1170.52,4280.347z
		 M3829.48,650.289v566.474H1170.52V650.289c0-44.617,36.308-80.925,80.925-80.925h2497.11
		C3793.172,569.364,3829.48,605.672,3829.48,650.289z M3274.566,4026.012c0-82.867,67.422-150.289,150.289-150.289h355.582
		l-505.871,505.871V4026.012z"/></svg>