<svg xmlns="http://www.w3.org/2000/svg" viewBox="0 0 5000 5000"><path fill="#fff" d="M3205.202 4026.012c0-121.116 98.537-219.653 219.653-219.653h404.624V1286.127H1170.52v2994.219c0 82.867 67.422 150.289 150.289 150.289h1884.393v-404.623zm-1682.081-951.884v-743.587c0-82.867 67.422-150.289 150.289-150.289h2.969c-12.317-27.114-19.317-56.669-20.22-87.518-1.851-63.313 21.789-122.855 66.587-167.653s105.514-68.213 167.653-66.587c63.335 1.874 121.387 28.969 163.475 76.296l218.186 245.461h1054.53c82.867 0 150.289 67.422 150.289 150.289v743.587c0 82.867-67.422 150.289-150.289 150.289h-60.919c33.993 113.055 35.636 236.663 35.698 244.287a34.731 34.731 0 0 1-10.161 24.815 34.695 34.695 0 0 1-24.521 10.161h-.294c-11.335-.09-279.06-3.568-387.283-111.813-49.901-49.901-81.975-109.3-94.924-167.449H1673.41c-82.866 0-150.289-67.422-150.289-150.289z"/><path fill="#85dae5" d="M2208.527 823.304c0-29.959-19.136-54.244-61.49-54.244h-33.593v112.123h33.593c44.431-.001 61.49-30.484 61.49-57.879z"/><path fill="#85dae5" d="M1170.52 650.289v566.474h2658.96V650.289c0-44.617-36.308-80.925-80.925-80.925h-2497.11c-44.617 0-80.925 36.308-80.925 80.925zm1478.346 61.941h114.201c64.058 0 196.854 13.95 196.854 180.823 0 79.055-30.482 180.842-196.854 180.842h-114.201V712.23zm-192.269-4.137c34.117 0 70.273 3.613 103.341 15.504l-7.75 57.858c-21.179-8.782-52.187-17.563-79.034-17.563-44.978 0-54.27 23.255-54.27 38.236 0 28.928 25.317 41.848 48.049 51.66 60.445 25.841 109.539 46.512 109.539 118.846 0 57.353-44.431 105.401-137.966 105.401-35.123 0-66.638-7.752-94.032-18.089l7.75-63.026c28.953 13.425 65.108 21.702 89.392 21.702 39.266 0 57.86-23.255 57.86-43.403 0-37.732-39.768-48.048-72.836-64.581-54.27-26.87-83.702-49.602-83.702-100.757-.001-36.178 19.621-101.788 113.659-101.788zm-416.518 4.137h106.959c131.238 0 138.971 90.422 138.971 113.153 0 47.523-33.068 112.628-125.525 112.628h-47.039v135.885h-73.366V712.23z"/><path fill="#85dae5" d="M2882.417 893.054c0-115.737-96.115-119.856-118.322-119.856h-41.845v239.731h41.845c22.207-.001 118.322-4.138 118.322-119.875zm542.438 2982.668c-82.867 0-150.289 67.423-150.289 150.289v355.582l505.871-505.871h-355.582zM1778.563 2204.344l935.016 831.128c33.485 29.737 84.492 28.247 116.149-3.409 31.656-31.656 33.169-82.686 3.432-116.172l-831.128-935.016c-29.263-32.898-69.635-51.752-113.665-53.039a171.367 171.367 0 0 0-4.809-.068c-42.224 0-81.76 16.348-111.768 46.356-31.137 31.16-47.575 72.548-46.288 116.578 1.286 44.007 20.14 84.379 53.061 113.642z"/><path fill="#d3f990" d="M3326.59 2249.616h-992.876l551.289 620.213c28.659 32.262 41.208 73.474 38.261 113.665 25.368-4.925 52.751-5.466 81.591-.835 65.865 10.454 131.458 45.543 184.678 98.785 19.977 19.97 36.364 45.392 49.844 73.609h87.213c44.617 0 80.925-36.308 80.925-80.925v-743.587c-.001-44.617-36.308-80.925-80.925-80.925zm-556.788 876.558c-36.511 0-73.067-12.893-102.308-38.859l-935.016-831.128c-2.354-2.094-4.431-4.399-6.683-6.571h-52.384c-44.617 0-80.925 36.308-80.925 80.925v743.587c0 44.617 36.308 80.925 80.925 80.925h1104.583c.519-10.043 1.852-19.836 3.686-29.447-3.952.304-7.915.568-11.878.568z"/><path fill="#fefc93" d="M2928.152 3342.824c62.816 62.816 216.334 84.741 302.452 90.092-5.351-86.118-27.276-239.591-90.115-302.43-42.969-42.969-94.992-71.148-146.518-79.322-9.958-1.581-19.622-2.371-28.924-2.371-35.066 0-65.052 11.087-86.276 32.311-25.097 25.104-35.252 61.061-32.029 100.675.604 2.564 1.005 5.206 1.005 7.955 0 .145-.04.28-.045.423 6.446 50.611 34.038 106.254 80.45 152.667z"/><path fill="#333" d="M2879.11 3391.867c108.223 108.246 375.948 111.723 387.283 111.813h.294c9.19 0 18.018-3.658 24.521-10.161a34.731 34.731 0 0 0 10.161-24.815c-.062-7.625-1.705-131.232-35.698-244.287h60.919c82.867 0 150.289-67.422 150.289-150.289v-743.587c0-82.867-67.422-150.289-150.289-150.289H2272.06l-218.186-245.461c-42.088-47.327-100.14-74.422-163.475-76.296-62.139-1.626-122.855 21.789-167.653 66.587s-68.438 104.34-66.587 167.653c.903 30.849 7.903 60.404 20.22 87.518h-2.969c-82.867 0-150.289 67.422-150.289 150.289v743.587c0 82.867 67.422 150.289 150.289 150.289h1110.775c12.95 58.149 45.024 117.548 94.925 167.449zm-1205.7-236.814c-44.617 0-80.925-36.308-80.925-80.925v-743.587c0-44.617 36.308-80.925 80.925-80.925h52.384c2.252 2.172 4.33 4.476 6.683 6.571l935.016 831.128c29.24 25.967 65.797 38.859 102.308 38.859 3.963 0 7.925-.264 11.877-.567-1.834 9.611-3.167 19.403-3.686 29.447H1673.41zm98.379-1180.929c30.008-30.008 69.545-46.356 111.768-46.356 1.603 0 3.206.023 4.809.068 44.03 1.287 84.402 20.141 113.665 53.039l831.128 935.016c29.737 33.485 28.224 84.515-3.432 116.172-31.656 31.656-82.663 33.146-116.149 3.409l-935.016-831.128c-32.921-29.263-51.775-69.635-53.062-113.642-1.286-44.03 15.152-85.418 46.289-116.578zm1635.725 1100.004c0 44.617-36.308 80.925-80.925 80.925h-87.213c-13.48-28.217-29.867-53.639-49.844-73.609-53.22-53.242-118.813-88.331-184.678-98.785-28.84-4.63-56.223-4.09-81.591.835 2.947-40.191-9.602-81.403-38.261-113.665l-551.289-620.213h992.876c44.617 0 80.925 36.308 80.925 80.925v743.587zm-560.772 107.652c-3.223-39.614 6.932-75.571 32.029-100.675 21.225-21.225 51.21-32.311 86.276-32.311 9.302 0 18.967.79 28.924 2.371 51.527 8.174 103.55 36.353 146.518 79.322 62.839 62.839 84.763 216.311 90.115 302.43-86.118-5.352-239.636-27.276-302.452-90.092-46.412-46.414-74.004-102.056-80.451-152.666.006-.144.045-.278.045-.423.001-2.75-.4-5.392-1.004-7.956zM2113.445 938.011h47.039c92.457 0 125.525-65.105 125.525-112.628 0-22.73-7.733-113.153-138.971-113.153h-106.959v361.665h73.366V938.011zm0-168.951h33.593c42.354 0 61.49 24.286 61.49 54.244 0 27.394-17.059 57.878-61.49 57.878h-33.593V769.06zm313.194 141.576c33.067 16.534 72.836 26.85 72.836 64.581 0 20.148-18.594 43.403-57.86 43.403-24.284 0-60.439-8.277-89.392-21.702l-7.75 63.026c27.395 10.337 58.91 18.089 94.032 18.089 93.535 0 137.966-48.048 137.966-105.401 0-72.333-49.094-93.005-109.539-118.846-22.732-9.812-48.049-22.732-48.049-51.66 0-14.98 9.292-38.236 54.27-38.236 26.847 0 57.854 8.781 79.034 17.563l7.75-57.858c-33.068-11.891-69.223-15.504-103.341-15.504-94.038 0-113.66 65.61-113.66 101.787.001 51.157 29.433 73.888 83.703 100.758zm533.282-17.582c0-166.874-132.795-180.823-196.854-180.823h-114.201v361.665h114.201c166.372 0 196.854-101.787 196.854-180.842zM2722.25 773.198h41.845c22.207 0 118.322 4.119 118.322 119.856s-96.115 119.875-118.322 119.875h-41.845V773.198z"/><path fill="#333" d="M3748.555 500h-2497.11c-82.867 0-150.289 67.422-150.289 150.289v3630.058c0 121.117 98.537 219.653 219.653 219.653h1919.075c2.292 0 4.572-.237 6.808-.688 1.27-.251 2.45-.711 3.664-1.101.937-.296 1.896-.491 2.805-.869 1.372-.57 2.63-1.335 3.906-2.069.683-.393 1.411-.683 2.066-1.124a34.544 34.544 0 0 0 5.272-4.31l624.277-624.278c2.168-2.166 3.917-4.698 5.453-7.372.35-.61.683-1.204.994-1.833 1.332-2.678 2.427-5.485 3.026-8.5.022-.103.011-.209.034-.312.401-2.111.655-4.276.655-6.504V650.289c0-82.867-67.422-150.289-150.289-150.289zM1170.52 4280.347v-2994.22h2658.96v2520.231h-404.624c-121.116 0-219.653 98.537-219.653 219.653v404.624H1320.809c-82.866.001-150.289-67.422-150.289-150.288zM3829.48 650.289v566.474H1170.52V650.289c0-44.617 36.308-80.925 80.925-80.925h2497.11c44.617 0 80.925 36.308 80.925 80.925zm-554.914 3375.723c0-82.867 67.422-150.289 150.289-150.289h355.582l-505.871 505.871v-355.582z"/></svg>