<svg xmlns="http://www.w3.org/2000/svg" viewBox="0 0 5000 5000"><path fill="#fff" d="M3205.202 4026.012c0-121.116 98.537-219.653 219.653-219.653h404.624V1286.127H1170.52v2994.219c0 82.867 67.422 150.289 150.289 150.289h1884.393v-404.623zm236.995-884.371h-849.688c-19.147 0-34.682-15.535-34.682-34.682s15.535-34.682 34.682-34.682h849.688c19.147 0 34.682 15.535 34.682 34.682s-15.535 34.682-34.682 34.682zm34.682 167.63c0 19.147-15.535 34.682-34.682 34.682h-529.873c-19.147 0-34.682-15.535-34.682-34.682 0-19.147 15.535-34.682 34.682-34.682h529.873c19.147 0 34.682 15.535 34.682 34.682zm-1046.243-236.994c19.147 0 34.682 15.535 34.682 34.682s-15.535 34.682-34.682 34.682h-853.572c-19.147 0-34.682-15.535-34.682-34.682s15.535-34.682 34.682-34.682h853.572zm-219.631-167.63c0-19.147 15.535-34.682 34.682-34.682h566.451c19.147 0 34.682 15.535 34.682 34.682 0 19.147-15.535 34.682-34.682 34.682h-566.451c-19.147 0-34.682-15.535-34.682-34.682zm34.682 369.942h504.787c19.147 0 34.682 15.535 34.682 34.682 0 19.147-15.535 34.682-34.682 34.682h-504.787c-19.147 0-34.682-15.535-34.682-34.682 0-19.147 15.535-34.682 34.682-34.682zm1196.51-335.26h-468.208c-19.147 0-34.682-15.535-34.682-34.682 0-19.147 15.535-34.682 34.682-34.682h468.208c19.147 0 34.682 15.535 34.682 34.682 0 19.147-15.535 34.682-34.682 34.682zm0-202.312h-872.832c-19.147 0-34.682-15.535-34.682-34.682s15.535-34.682 34.682-34.682h872.832c19.147 0 34.682 15.535 34.682 34.682s-15.535 34.682-34.682 34.682zm-1102.602-202.312c-19.147 0-34.682-15.535-34.682-34.682 0-19.147 15.535-34.682 34.682-34.682h514.925c19.147 0 34.682 15.535 34.682 34.682 0 19.147-15.535 34.682-34.682 34.682h-514.925zm1102.602 0H3016.37c-19.147 0-34.682-15.535-34.682-34.682 0-19.147 15.535-34.682 34.682-34.682h425.826c19.147 0 34.682 15.535 34.682 34.682.001 19.147-15.534 34.682-34.681 34.682zm0-202.312h-872.832c-19.147 0-34.682-15.535-34.682-34.682s15.535-34.682 34.682-34.682h872.832c19.147 0 34.682 15.535 34.682 34.682s-15.535 34.682-34.682 34.682zm-1196.51-202.313c-19.147 0-34.682-15.535-34.682-34.682 0-19.147 15.535-34.682 34.682-34.682h566.451c19.147 0 34.682 15.535 34.682 34.682 0 19.147-15.535 34.682-34.682 34.682h-566.451zm1196.51 0h-468.208c-19.147 0-34.682-15.535-34.682-34.682 0-19.147 15.535-34.682 34.682-34.682h468.208c19.147 0 34.682 15.535 34.682 34.682 0 19.148-15.535 34.682-34.682 34.682zm-849.689-271.676h849.688c19.147 0 34.682 15.535 34.682 34.682 0 19.147-15.535 34.682-34.682 34.682h-849.688c-19.147 0-34.682-15.535-34.682-34.682 0-19.147 15.535-34.682 34.682-34.682zm-1015.444 0h853.572c19.147 0 34.682 15.535 34.682 34.682 0 19.147-15.535 34.682-34.682 34.682h-853.572c-19.147 0-34.682-15.535-34.682-34.682 0-19.147 15.534-34.682 34.682-34.682zm-19.261 202.312h526.011c19.147 0 34.682 15.535 34.682 34.682 0 19.147-15.535 34.682-34.682 34.682h-526.011c-19.147 0-34.682-15.535-34.682-34.682 0-19.147 15.535-34.682 34.682-34.682zm0 202.312h849.711c19.147 0 34.682 15.535 34.682 34.682s-15.535 34.682-34.682 34.682h-849.711c-19.147 0-34.682-15.535-34.682-34.682s15.535-34.682 34.682-34.682zm654.602 236.995c0 19.147-15.535 34.682-34.682 34.682h-600.659c-19.147 0-34.682-15.535-34.682-34.682 0-19.147 15.535-34.682 34.682-34.682h600.659c19.148 0 34.682 15.534 34.682 34.682zm-654.602 167.63h849.711c19.147 0 34.682 15.535 34.682 34.682s-15.535 34.682-34.682 34.682h-849.711c-19.147 0-34.682-15.535-34.682-34.682s15.535-34.682 34.682-34.682zm0 202.312h526.011c19.147 0 34.682 15.535 34.682 34.682 0 19.147-15.535 34.682-34.682 34.682h-526.011c-19.147 0-34.682-15.535-34.682-34.682 0-19.147 15.535-34.682 34.682-34.682zm0 404.624h526.011c19.147 0 34.682 15.535 34.682 34.682 0 19.147-15.535 34.682-34.682 34.682h-526.011c-19.147 0-34.682-15.535-34.682-34.682 0-19.147 15.535-34.682 34.682-34.682zm849.711 271.676h-849.711c-19.147 0-34.682-15.535-34.682-34.682s15.535-34.682 34.682-34.682h849.711c19.147 0 34.682 15.535 34.682 34.682s-15.534 34.682-34.682 34.682zm127.168-34.682c0-19.147 15.535-34.682 34.682-34.682h872.832c19.147 0 34.682 15.535 34.682 34.682s-15.535 34.682-34.682 34.682h-872.832c-19.147 0-34.682-15.534-34.682-34.682z"/><path fill="#d3f990" d="M1170.52 650.289v566.474h2658.96V650.289c0-44.617-36.308-80.925-80.925-80.925h-2497.11c-44.617 0-80.925 36.308-80.925 80.925zm1532.774 57.804h288.566v65.521h-106.761v304.421h-75.043V773.614h-106.762v-65.521zm-366.324 0h88.771l59.203 103.043 16.895 31.181h1.609l16.889-31.181 60.795-103.043h81.896l-112.564 176.515 123.674 193.427h-88.794l-70.809-117.333-15.856-28.538h-1.592l-15.856 28.538-73.451 117.333h-81.918l123.674-193.427-112.566-176.515zm-328.83 0h288.566v65.521h-106.762v304.421h-75.043V773.614H2008.14v-65.521zm1416.715 3167.629c-82.867 0-150.289 67.423-150.289 150.289v355.582l505.871-505.871h-355.582z"/><path fill="#333" d="M3442.197 2869.965h-468.208c-19.147 0-34.682 15.535-34.682 34.682 0 19.147 15.535 34.682 34.682 34.682h468.208c19.147 0 34.682-15.535 34.682-34.682 0-19.147-15.535-34.682-34.682-34.682zm-1884.394-132.948h849.711c19.147 0 34.682-15.535 34.682-34.682s-15.535-34.682-34.682-34.682h-849.711c-19.147 0-34.682 15.535-34.682 34.682s15.535 34.682 34.682 34.682zm-15.421 369.942c0 19.147 15.535 34.682 34.682 34.682h853.572c19.147 0 34.682-15.535 34.682-34.682s-15.535-34.682-34.682-34.682h-853.572c-19.148 0-34.682 15.535-34.682 34.682zm1899.815-439.306h-872.832c-19.147 0-34.682 15.535-34.682 34.682s15.535 34.682 34.682 34.682h872.832c19.147 0 34.682-15.535 34.682-34.682s-15.535-34.682-34.682-34.682zm-1884.394-335.26h849.711c19.147 0 34.682-15.535 34.682-34.682s-15.535-34.682-34.682-34.682h-849.711c-19.147 0-34.682 15.535-34.682 34.682s15.535 34.682 34.682 34.682zm1884.394-69.365h-872.832c-19.147 0-34.682 15.535-34.682 34.682s15.535 34.682 34.682 34.682h872.832c19.147 0 34.682-15.535 34.682-34.682s-15.535-34.682-34.682-34.682zm0 202.313H3016.37c-19.147 0-34.682 15.535-34.682 34.682 0 19.147 15.535 34.682 34.682 34.682h425.826c19.147 0 34.682-15.535 34.682-34.682.001-19.148-15.534-34.682-34.681-34.682zm-552.995 34.682c0-19.147-15.535-34.682-34.682-34.682h-514.925c-19.147 0-34.682 15.535-34.682 34.682 0 19.147 15.535 34.682 34.682 34.682h514.925c19.148 0 34.682-15.535 34.682-34.682zm-1312.138-34.682c-19.147 0-34.682 15.535-34.682 34.682 0 19.147 15.535 34.682 34.682 34.682h600.659c19.147 0 34.682-15.535 34.682-34.682 0-19.147-15.535-34.682-34.682-34.682h-600.659zm1865.133 1080.924c19.147 0 34.682-15.535 34.682-34.682s-15.535-34.682-34.682-34.682h-872.832c-19.147 0-34.682 15.535-34.682 34.682s15.535 34.682 34.682 34.682h872.832zm-1034.683-69.364h-849.711c-19.147 0-34.682 15.535-34.682 34.682s15.535 34.682 34.682 34.682h849.711c19.147 0 34.682-15.535 34.682-34.682s-15.534-34.682-34.682-34.682zm1034.683-202.312h-529.873c-19.147 0-34.682 15.535-34.682 34.682 0 19.147 15.535 34.682 34.682 34.682h529.873c19.147 0 34.682-15.535 34.682-34.682 0-19.147-15.535-34.682-34.682-34.682zm-1196.51 69.364h504.787c19.147 0 34.682-15.535 34.682-34.682 0-19.147-15.535-34.682-34.682-34.682h-504.787c-19.147 0-34.682 15.535-34.682 34.682 0 19.147 15.535 34.682 34.682 34.682zm-687.884 0h526.011c19.147 0 34.682-15.535 34.682-34.682 0-19.147-15.535-34.682-34.682-34.682h-526.011c-19.147 0-34.682 15.535-34.682 34.682 0 19.147 15.535 34.682 34.682 34.682zm1884.394-271.676h-849.688c-19.147 0-34.682 15.535-34.682 34.682s15.535 34.682 34.682 34.682h849.688c19.147 0 34.682-15.535 34.682-34.682s-15.535-34.682-34.682-34.682zM1577.064 1927.768h853.572c19.147 0 34.682-15.535 34.682-34.682 0-19.147-15.535-34.682-34.682-34.682h-853.572c-19.147 0-34.682 15.535-34.682 34.682 0 19.148 15.534 34.682 34.682 34.682zm1015.444 0h849.688c19.147 0 34.682-15.535 34.682-34.682 0-19.147-15.535-34.682-34.682-34.682h-849.688c-19.147 0-34.682 15.535-34.682 34.682 0 19.148 15.535 34.682 34.682 34.682zm219.631 1011.561c19.147 0 34.682-15.535 34.682-34.682 0-19.147-15.535-34.682-34.682-34.682h-566.451c-19.147 0-34.682 15.535-34.682 34.682 0 19.147 15.535 34.682 34.682 34.682h566.451zm-1254.336 0h526.011c19.147 0 34.682-15.535 34.682-34.682 0-19.147-15.535-34.682-34.682-34.682h-526.011c-19.147 0-34.682 15.535-34.682 34.682 0 19.147 15.535 34.682 34.682 34.682zm1884.394-878.613h-468.208c-19.147 0-34.682 15.535-34.682 34.682 0 19.147 15.535 34.682 34.682 34.682h468.208c19.147 0 34.682-15.535 34.682-34.682 0-19.147-15.535-34.682-34.682-34.682zm-595.376 34.682c0-19.147-15.535-34.682-34.682-34.682h-566.451c-19.147 0-34.682 15.535-34.682 34.682 0 19.147 15.535 34.682 34.682 34.682h566.451c19.147 0 34.682-15.534 34.682-34.682zm-1289.018 34.682h526.011c19.147 0 34.682-15.535 34.682-34.682 0-19.147-15.535-34.682-34.682-34.682h-526.011c-19.147 0-34.682 15.535-34.682 34.682 0 19.148 15.535 34.682 34.682 34.682zM2114.901 1078.035h75.043V773.614h106.762v-65.521H2008.14v65.521h106.761zM2407.78 1078.035l73.451-117.333 15.856-28.538h1.592l15.856 28.538 70.81 117.333h88.794l-123.674-193.427 112.565-176.515h-81.896l-60.796 103.042-16.889 31.181h-1.609l-16.895-31.181-59.203-103.042h-88.772l112.565 176.515-123.674 193.427zM2810.056 1078.035h75.043V773.614h106.761v-65.521h-288.566v65.521h106.762z"/><path fill="#333" d="M3748.555 500h-2497.11c-82.867 0-150.289 67.422-150.289 150.289v3630.058c0 121.117 98.537 219.653 219.653 219.653h1919.075c2.292 0 4.572-.238 6.808-.688 1.27-.252 2.45-.714 3.664-1.101.937-.298 1.896-.492 2.805-.869 1.372-.57 2.63-1.336 3.906-2.07.683-.393 1.411-.683 2.066-1.124a34.544 34.544 0 0 0 5.272-4.31l624.277-624.278c2.168-2.166 3.917-4.698 5.453-7.372.35-.61.683-1.204.994-1.833 1.332-2.678 2.427-5.485 3.026-8.5.022-.103.011-.209.034-.312.401-2.111.655-4.276.655-6.504V650.289c0-82.867-67.422-150.289-150.289-150.289zM1170.52 4280.347v-2994.22h2658.96v2520.231h-404.624c-121.116 0-219.653 98.537-219.653 219.653v404.624H1320.809c-82.866.001-150.289-67.422-150.289-150.288zM3829.48 650.289v566.474H1170.52V650.289c0-44.617 36.308-80.925 80.925-80.925h2497.11c44.617 0 80.925 36.308 80.925 80.925zm-554.914 3375.723c0-82.867 67.422-150.289 150.289-150.289h355.582l-505.871 505.871v-355.582z"/></svg>