<svg xmlns="http://www.w3.org/2000/svg" enable-background="new 0 0 5000 5000" viewBox="0 0 5000 5000"><rect width="307.51" height="254.335" x="1592.485" y="2251.456" fill="#fff"/><rect width="307.51" height="254.335" x="1592.485" y="2575.156" fill="#fff"/><rect width="307.51" height="254.335" x="1969.36" y="2575.156" fill="#fff"/><rect width="307.51" height="254.335" x="3100.004" y="2898.855" fill="#fff"/><rect width="307.533" height="254.335" x="2346.234" y="2898.855" fill="#fff"/><rect width="307.51" height="254.335" x="2723.13" y="2898.855" fill="#fff"/><rect width="307.51" height="254.335" x="1592.485" y="2898.855" fill="#fff"/><rect width="307.51" height="254.335" x="1969.36" y="2251.456" fill="#fff"/><rect width="307.51" height="254.335" x="2723.13" y="2251.456" fill="#fff"/><rect width="307.533" height="254.335" x="2346.234" y="2251.456" fill="#fff"/><rect width="307.51" height="254.335" x="3100.004" y="2575.156" fill="#fff"/><rect width="307.51" height="254.335" x="2723.13" y="2575.156" fill="#fff"/><rect width="307.51" height="254.335" x="3100.004" y="2251.456" fill="#fff"/><rect width="307.533" height="254.335" x="2346.234" y="2575.156" fill="#fff"/><path fill="#fff" d="M3100.004 3222.555v254.335h226.585c44.617 0 80.925-36.308 80.925-80.925v-173.41H3100.004zM1899.995 3222.555h-307.51v173.41c0 44.617 36.308 80.925 80.925 80.925h226.585V3222.555z"/><path fill="#fff" d="M3205.202,4026.012c0-121.116,98.537-219.653,219.653-219.653h404.624V1286.127H1170.52v2994.219
		c0,82.867,67.422,150.289,150.289,150.289h1884.393V4026.012z M1673.41,3546.254c-82.867,0-150.289-67.422-150.289-150.289
		V2008.682c0-82.867,67.422-150.289,150.289-150.289H3326.59c82.867,0,150.289,67.422,150.289,150.289v1387.283
		c0,82.867-67.422,150.289-150.289,150.289H1673.41z"/><rect width="307.51" height="254.335" x="1969.36" y="2898.855" fill="#fff"/><rect width="307.51" height="254.335" x="2723.13" y="3222.555" fill="#fff"/><rect width="307.51" height="254.335" x="1969.36" y="3222.555" fill="#fff"/><rect width="307.533" height="254.335" x="2346.234" y="3222.555" fill="#fff"/><path fill="#d3f990" d="M3829.48 650.289c0-44.617-36.308-80.925-80.925-80.925h-2497.11c-44.617 0-80.925 36.308-80.925 80.925v566.474H3829.48V650.289zM2112.909 1073.896l-69.223-114.704-15.506-27.898h-1.569l-15.484 27.898-71.808 114.704h-80.101l120.919-189.105L1870.078 712.23h86.807l57.854 100.745 16.534 30.482h1.552l16.534-30.482 59.412-100.745h80.084l-110.041 172.561 120.879 189.105H2112.909zM2473.638 1073.896h-217.017V712.23h73.361v300.701h143.656V1073.896zM2615.776 1078.035c-35.145 0-66.644-7.752-94.032-18.088l7.75-63.035c28.93 13.435 65.102 21.7 89.37 21.7 39.283 0 57.877-23.245 57.877-43.402 0-37.72-39.791-48.046-72.858-64.579-54.241-26.87-83.697-49.601-83.697-100.755 0-36.165 19.622-101.784 113.676-101.784 34.095 0 70.273 3.623 103.335 15.504l-7.75 57.867c-21.197-8.782-52.204-17.563-79.051-17.563-44.961 0-54.264 23.246-54.264 38.224 0 28.938 25.312 41.858 48.043 51.669 60.462 25.839 109.539 46.501 109.539 118.833C2753.714 1029.979 2709.301 1078.035 2615.776 1078.035zM3053.976 1073.896l-69.24-114.704-15.501-27.898h-1.535l-15.507 27.898-71.825 114.704h-80.061l120.879-189.105L2811.145 712.23h86.784l57.883 100.745 16.528 30.482h1.558l16.534-30.482 59.412-100.745h80.078l-110.058 172.561 120.919 189.105H3053.976zM3424.855 3875.722c-82.867 0-150.289 67.423-150.289 150.289v355.582l505.871-505.871H3424.855zM3407.514 2182.092v-173.411c0-44.617-36.308-80.925-80.925-80.925H1673.41c-44.617 0-80.925 36.308-80.925 80.925v173.411H3407.514z"/><path fill="#333" d="M3326.59,3546.254c82.867,0,150.289-67.422,150.289-150.289V2008.682
		c0-82.867-67.422-150.289-150.289-150.289H1673.41c-82.867,0-150.289,67.422-150.289,150.289v1387.283
		c0,82.867,67.422,150.289,150.289,150.289H3326.59z M1673.41,1927.757H3326.59c44.617,0,80.925,36.308,80.925,80.925v173.411
		H1592.485v-173.411C1592.485,1964.065,1628.793,1927.757,1673.41,1927.757z M2346.234,2251.456h307.533v254.335h-307.533V2251.456z
		 M2276.87,2505.792h-307.51v-254.335h307.51V2505.792z M2723.13,2251.456h307.51v254.335h-307.51V2251.456z M3030.64,2575.156
		v254.335h-307.51v-254.335H3030.64z M3100.004,2575.156h307.51v254.335h-307.51V2575.156z M3100.004,2505.792v-254.335h307.51
		v254.335H3100.004z M1899.995,2251.456v254.335h-307.51v-254.335H1899.995z M1899.995,2575.156v254.335h-307.51v-254.335H1899.995z
		 M1969.36,2575.156h307.51v254.335h-307.51V2575.156z M2346.234,2575.156h307.533v254.335h-307.533V2575.156z M2653.766,2898.855
		v254.335h-307.533v-254.335H2653.766z M2723.13,2898.855h307.51v254.335h-307.51V2898.855z M3100.004,2898.855h307.51v254.335
		h-307.51V2898.855z M1592.485,2898.855h307.51v254.335h-307.51V2898.855z M1969.36,2898.855h307.51v254.335h-307.51V2898.855z
		 M2276.87,3222.555v254.335h-307.51v-254.335H2276.87z M2346.234,3222.555h307.533v254.335h-307.533V3222.555z M2723.13,3222.555
		h307.51v254.335h-307.51V3222.555z M3326.59,3476.89h-226.585v-254.335h307.51v173.41
		C3407.514,3440.582,3371.207,3476.89,3326.59,3476.89z M1592.485,3395.965v-173.41h307.51v254.335H1673.41
		C1628.793,3476.89,1592.485,3440.582,1592.485,3395.965z"/><polygon fill="#333" points="2188.855 712.23 2108.771 712.23 2049.359 812.976 2032.825 843.458 2031.273 843.458 2014.739 812.976 1956.885 712.23 1870.078 712.23 1980.136 884.791 1859.217 1073.896 1939.318 1073.896 2011.126 959.192 2026.61 931.294 2028.179 931.294 2043.686 959.192 2112.909 1073.896 2199.693 1073.896 2078.814 884.791"/><polygon fill="#333" points="2329.982 712.23 2256.621 712.23 2256.621 1073.896 2473.638 1073.896 2473.638 1012.931 2329.982 1012.931"/><path fill="#333" d="M2644.176,853.794c-22.732-9.811-48.043-22.73-48.043-51.669c0-14.979,9.303-38.224,54.264-38.224
		c26.847,0,57.854,8.781,79.051,17.563l7.75-57.867c-33.062-11.881-69.24-15.504-103.335-15.504
		c-94.055,0-113.676,65.619-113.676,101.784c0,51.154,29.455,73.886,83.697,100.755c33.068,16.532,72.858,26.858,72.858,64.579
		c0,20.156-18.594,43.402-57.877,43.402c-24.267,0-60.44-8.266-89.37-21.7l-7.75,63.035c27.389,10.336,58.887,18.088,94.032,18.088
		c93.524,0,137.938-48.056,137.938-105.408C2753.714,900.295,2704.638,879.633,2644.176,853.794z"/><polygon fill="#333" points="3129.922 712.23 3049.844 712.23 2990.432 812.976 2973.898 843.458 2972.34 843.458 2955.812 812.976 2897.929 712.23 2811.145 712.23 2921.186 884.791 2800.307 1073.896 2880.368 1073.896 2952.194 959.192 2967.7 931.294 2969.236 931.294 2984.736 959.192 3053.976 1073.896 3140.783 1073.896 3019.864 884.791"/><path fill="#333" d="M3748.555,500h-2497.11c-82.867,0-150.289,67.422-150.289,150.289v601.156v3028.902
		c0,121.117,98.537,219.653,219.653,219.653h1919.075c2.286,0,4.561-0.238,6.802-0.686c1.315-0.262,2.546-0.735,3.81-1.143
		c0.881-0.286,1.795-0.468,2.659-0.825c1.462-0.607,2.805-1.413,4.16-2.206c0.593-0.347,1.23-0.594,1.806-0.978
		c1.908-1.275,3.686-2.724,5.306-4.342l624.232-624.234c2.179-2.176,3.946-4.72,5.487-7.41c0.339-0.601,0.672-1.187,0.977-1.805
		c1.332-2.683,2.433-5.494,3.031-8.515c0.022-0.1,0.011-0.202,0.034-0.302c0.401-2.114,0.655-4.282,0.655-6.513V1251.445V650.289
		C3898.844,567.422,3831.422,500,3748.555,500z M1170.52,4280.347V1286.127H3829.48v2520.231h-404.624
		c-121.116,0-219.653,98.537-219.653,219.653v404.624H1320.809C1237.943,4430.636,1170.52,4363.213,1170.52,4280.347z
		 M1170.52,650.289c0-44.617,36.308-80.925,80.925-80.925h2497.11c44.617,0,80.925,36.308,80.925,80.925v566.474H1170.52V650.289z
		 M3274.566,4026.012c0-82.867,67.422-150.289,150.289-150.289h355.582l-505.871,505.871V4026.012z"/></svg>