<svg id="fence13" enable-background="new 0 0 300 300" height="512" viewBox="0 0 300 300" width="512" xmlns="http://www.w3.org/2000/svg"><g><path d="m88.364 51.032c2.362 0 4.277-1.915 4.277-4.276s-1.915-4.277-4.277-4.277-4.276 1.915-4.276 4.277 1.914 4.276 4.276 4.276z"/><path d="m270 249.521h-16v-184c0-2.209-1.791-4-4-4h-196c-2.209 0-4 1.791-4 4v184h-20c-2.209 0-4 1.791-4 4s1.791 4 4 4h240c2.209 0 4-1.791 4-4s-1.791-4-4-4zm-212-108h8v32c0 2.209 1.791 4 4 4s4-1.791 4-4v-12h8c2.209 0 4-1.791 4-4s-1.791-4-4-4h-8v-16c0-2.209-1.791-4-4-4h-12v-36h32c2.209 0 4-1.791 4-4v-12c0-2.209-1.791-4-4-4s-4 1.791-4 4v8h-28v-20h88v12c0 2.209 1.791 4 4 4s4-1.791 4-4v-12h92v88h-16c-2.209 0-4 1.791-4 4s1.791 4 4 4h16v12h-4c-2.209 0-4 1.791-4 4s1.791 4 4 4h4v64h-36v-40.154c0-35.912-15.094-70.377-40.377-92.193l-17.01-14.68c-1.5-1.297-3.727-1.297-5.227 0l-17.01 14.678c-25.282 21.818-40.376 56.283-40.376 92.195v4.154h-16c-2.209 0-4 1.791-4 4v8c0 2.209 1.791 4 4 4s4-1.791 4-4v-4h12v28h-32zm88 28v24h-20v-24zm8 24v-24h20v24zm28 0v-24h13.209c2.695 7.699 4.619 15.749 5.709 24zm4.021-44h-4.021v-6.357c1.405 2.068 2.753 4.182 4.021 6.357zm-12.021 0h-20v-35.265l10.396 8.972c3.414 2.946 6.603 6.168 9.604 9.582zm-28 0h-20v-16.711c3.001-3.414 6.189-6.636 9.604-9.582l10.396-8.972zm-28 0h-4.021c1.268-2.175 2.616-4.289 4.021-6.357zm-8.255 8h80.509c.636 1.324 1.272 2.647 1.859 4h-84.227c.588-1.353 1.223-2.676 1.859-4zm-4.954 12h13.209v24h-18.918c1.09-8.251 3.015-16.301 5.709-24zm-6.506 32h103.429c.086 1.33.143 2.663.185 4h-103.799c.043-1.337.099-2.67.185-4zm-.285 12h20v10.344l-1.172-1.172c-1.562-1.562-4.094-1.562-5.656 0s-1.562 4.094 0 5.656l8 8c.781.781 1.805 1.172 2.828 1.172s2.047-.391 2.828-1.172l8-8c1.562-1.562 1.562-4.094 0-5.656s-4.094-1.562-5.656 0l-1.172 1.172v-10.344h20v10.344l-1.172-1.172c-1.562-1.562-4.094-1.562-5.656 0s-1.562 4.094 0 5.656l8 8c.781.781 1.805 1.172 2.828 1.172s2.047-.391 2.828-1.172l8-8c1.562-1.562 1.562-4.094 0-5.656s-4.094-1.562-5.656 0l-1.172 1.172v-10.344h20v10.344l-1.172-1.172c-1.562-1.562-4.094-1.562-5.656 0s-1.562 4.094 0 5.656l8 8c.781.781 1.805 1.172 2.828 1.172s2.047-.391 2.828-1.172l8-8c1.562-1.562 1.562-4.094 0-5.656s-4.094-1.562-5.656 0l-1.172 1.172v-10.344h20v36h-104z"/><path d="m110 97.521h16v8c0 2.209 1.791 4 4 4s4-1.791 4-4v-12c0-2.209-1.791-4-4-4h-20c-2.209 0-4 1.791-4 4s1.791 4 4 4z"/><path d="m90 125.521c2.209 0 4-1.791 4-4v-12c0-2.209-1.791-4-4-4s-4 1.791-4 4v12c0 2.209 1.791 4 4 4z"/><path d="m198 121.521h16v16c0 2.209 1.791 4 4 4s4-1.791 4-4v-16h12c2.209 0 4-1.791 4-4s-1.791-4-4-4h-32v-12h24c2.209 0 4-1.791 4-4s-1.791-4-4-4h-28c-2.209 0-4 1.791-4 4v20c0 2.209 1.791 4 4 4z"/><path d="m222 213.521c0 2.209 1.791 4 4 4h8c2.209 0 4-1.791 4-4s-1.791-4-4-4h-8c-2.209 0-4 1.791-4 4z"/></g></svg>