<svg id="fence17" enable-background="new 0 0 300 300" height="512" viewBox="0 0 300 300" width="512" xmlns="http://www.w3.org/2000/svg"><g><path d="m74.016 66.756c.781.781 1.805 1.172 2.828 1.172s2.047-.391 2.828-1.172l3.172-3.172 3.172 3.172c.781.781 1.805 1.172 2.828 1.172s2.047-.391 2.828-1.172c1.562-1.562 1.562-4.094 0-5.656l-3.172-3.172 3.172-3.172c1.562-1.562 1.562-4.094 0-5.656s-4.094-1.562-5.656 0l-3.172 3.172-3.172-3.172c-1.562-1.562-4.094-1.562-5.656 0s-1.562 4.094 0 5.656l3.172 3.172-3.172 3.172c-1.563 1.562-1.563 4.093 0 5.656z"/><path d="m182 88.072c7.719 0 14-6.281 14-14s-6.281-14-14-14-14 6.281-14 14 6.281 14 14 14zm0-20c3.309 0 6 2.691 6 6s-2.691 6-6 6-6-2.691-6-6 2.691-6 6-6z"/><path d="m130.364 69.583c2.362 0 4.277-1.915 4.277-4.276s-1.915-4.277-4.277-4.277-4.276 1.915-4.276 4.277 1.914 4.276 4.276 4.276z"/><path d="m272 244.072h-12v-132c0-2.209-1.789-4-4-4h-212c-2.211 0-4 1.791-4 4v132h-12c-2.211 0-4 1.791-4 4s1.789 4 4 4h244c2.211 0 4-1.791 4-4s-1.789-4-4-4zm-224-128h204v128h-204z"/><path d="m247.75 220.357.145-4.25c.039-1.107-.383-2.182-1.168-2.965l-7.118-7.119 6.993-6.994c.734-.736 1.156-1.729 1.172-2.77l.062-4.291c.016-1.082-.406-2.123-1.172-2.887l-7.057-7.057 6.971-6.972c.715-.715 1.133-1.674 1.168-2.686l.152-4.25c.043-1.109-.383-2.186-1.168-2.971l-7.123-7.123 6.948-6.947c.727-.725 1.145-1.699 1.172-2.723l.113-4.334c.027-1.098-.395-2.158-1.172-2.934l-19.84-19.842c-.75-.75-1.766-1.172-2.828-1.172h-4.098c-1.062 0-2.078.422-2.828 1.172l-7.123 7.123-7.123-7.123c-.75-.75-1.766-1.172-2.828-1.172h-4.098c-1.062 0-2.078.422-2.828 1.172l-7.123 7.124-7.123-7.124c-.75-.75-1.766-1.172-2.828-1.172h-4.098c-1.062 0-2.078.422-2.828 1.172l-7.122 7.123-7.124-7.123c-.75-.75-1.766-1.172-2.828-1.172h-4.098c-1.062 0-2.078.422-2.828 1.172l-7.123 7.123-7.123-7.123c-.75-.75-1.766-1.172-2.828-1.172h-4.098c-1.062 0-2.078.422-2.828 1.172l-7.123 7.123-7.124-7.123c-.75-.75-1.766-1.172-2.828-1.172h-4.098c-1.062 0-2.078.422-2.828 1.172l-7.123 7.123-7.123-7.123c-.75-.75-1.766-1.172-2.828-1.172h-4.098c-1.062 0-2.078.422-2.828 1.172l-19.84 19.842c-.777.775-1.199 1.836-1.172 2.934l.113 4.334c.027 1.023.445 1.998 1.172 2.723l6.948 6.947-7.123 7.123c-.785.785-1.211 1.861-1.168 2.971l.152 4.25c.035 1.012.453 1.971 1.168 2.686l6.972 6.972-7.058 7.058c-.766.764-1.188 1.805-1.172 2.887l.062 4.291c.016 1.041.438 2.033 1.172 2.77l6.995 6.994-7.12 7.119c-.785.783-1.207 1.857-1.168 2.965l.145 4.25c.031 1.012.449 1.975 1.168 2.691l15.656 15.658c.734.734 1.727 1.154 2.766 1.172l12.098.193c1.066-.025 2.129-.408 2.891-1.172l3.221-3.221 3.174 3.174c.746.746 1.758 1.168 2.812 1.172l11.949.047h.016c1.062 0 2.078-.422 2.828-1.172l3.22-3.221 3.108 3.108c.742.74 1.742 1.162 2.789 1.172l12.016.113h.039c1.059 0 2.078-.422 2.828-1.172l3.22-3.221 3.127 3.127c.75.75 1.766 1.172 2.828 1.172h12.09c1.062 0 2.078-.422 2.828-1.172l3.127-3.127 3.221 3.221c.75.75 1.77 1.172 2.828 1.172h.039l12.016-.113c1.047-.01 2.047-.432 2.789-1.172l3.107-3.107 3.221 3.22c.75.75 1.766 1.172 2.828 1.172h.016l11.949-.047c1.055-.004 2.066-.426 2.812-1.172l3.174-3.174 3.22 3.22c.004.004.009.005.013.009.369.366.807.659 1.294.859s1.003.304 1.521.304h.062l12.098-.193c1.039-.018 2.031-.438 2.766-1.172l15.656-15.658c.721-.716 1.139-1.679 1.17-2.691zm-7.938-26.814-.016.977-5.846 5.846-6.342-6.343 6.341-6.342zm-137.859-17.863 6.342 6.344-6.342 6.344-6.344-6.344zm-12 .687-6.344-6.344 6.344-6.344 6.344 6.344zm17.656-6.344 6.342-6.343 6.341 6.343-6.341 6.342zm6.343 17.658 6.341 6.342-6.342 6.343-6.341-6.343zm5.659-5.658 6.343-6.342 6.341 6.342-6.341 6.342zm11.998-12 6.342-6.342 6.342 6.343-6.342 6.342zm6.342 17.658 6.342 6.343-6.342 6.342-6.342-6.342zm5.658-5.658 6.342-6.343 6.344 6.344-6.341 6.343zm11.999-12 6.343-6.343 6.343 6.344-6.341 6.343zm6.343 17.659 6.342 6.342-6.342 6.342-6.342-6.342zm5.658-5.659 6.344-6.344 6.344 6.344-6.344 6.344zm12-12 6.341-6.343 6.344 6.344-6.341 6.342zm6.344 17.657 6.344 6.344-6.344 6.344-6.344-6.344zm5.657-5.657 6.341-6.341 6.343 6.343-6.341 6.341zm11.998-11.999 6.343-6.343 6.342 6.342-6.343 6.344zm6.343 17.657 6.342 6.342-6.341 6.342-6.342-6.342zm5.656-5.657 6.342-6.343 6.344 6.343-6.344 6.343zm0-24 6.344-6.344 6.343 6.343-6.345 6.344zm-5.655-5.657-6.343-6.344 6.343-6.343 6.343 6.343zm-5.658 5.658-6.343 6.343-6.344-6.345 6.342-6.343zm-18.343-5.659-6.342-6.343 6.342-6.343 6.342 6.343zm-5.657 5.658-6.341 6.341-6.345-6.344 6.341-6.342zm-18.342-5.659-6.342-6.342 6.342-6.343 6.342 6.343zm-5.658 5.657-6.343 6.344-6.342-6.342 6.344-6.344zm-18.343-5.656-6.343-6.343 6.343-6.343 6.342 6.343zm-5.656 5.658-6.342 6.343-6.344-6.344 6.342-6.343zm-18.343-5.658-6.343-6.343 6.342-6.343 6.343 6.343zm-5.657 5.657-6.342 6.342-6.343-6.343 6.343-6.343zm-18.343-5.658-6.344-6.343 6.342-6.342 6.343 6.343zm-5.656 5.658-6.343 6.344-6.345-6.344 6.344-6.344zm0 24.001-6.344 6.344-6.343-6.343 6.344-6.344zm5.657 5.656 6.344 6.344-6.345 6.345-6.344-6.344zm-5.657 18.344-6.343 6.343-6.344-6.344 6.343-6.343zm5.656 5.657 6.342 6.342-6.343 6.343-6.343-6.343zm5.657-5.656 6.344-6.344 6.341 6.342-6.343 6.344zm18.342 5.656 6.342 6.343-6.342 6.344-6.343-6.343zm5.657-5.656 6.345-6.345 6.342 6.342-6.345 6.345zm18.344 5.654 6.343 6.343-6.344 6.344-6.342-6.343zm5.656-5.657 6.341-6.343 6.344 6.344-6.342 6.343zm18.341 5.658 6.344 6.344-6.342 6.343-6.344-6.344zm5.659-5.658 6.342-6.342 6.346 6.345-6.342 6.342zm18.343 5.659 6.343 6.342-6.343 6.343-6.342-6.344zm5.658-5.657 6.344-6.344 6.342 6.342-6.344 6.344zm18.342 5.654 6.345 6.345-6.345 6.344-6.344-6.344zm5.657-5.657 6.341-6.341 6.344 6.344-6.341 6.341zm24.236-36.449-.035.938-5.859 5.858-6.344-6.344 6.345-6.344zm-.074-23.023-5.819 5.818-6.343-6.343 6.343-6.343 5.846 5.847zm-18.211-18.477h.785l5.951 5.952-6.343 6.344-6.344-6.344zm-24 0h.785l5.95 5.95-6.345 6.344-6.342-6.343zm-24 0h.785l5.951 5.952-6.342 6.343-6.345-6.344zm-24 0h.785l5.951 5.952-6.342 6.343-6.345-6.344zm-24 0h.785l5.951 5.951-6.343 6.343-6.344-6.343zm-24 0h.785l5.952 5.952-6.342 6.343-6.345-6.344zm-24 0h.785l5.951 5.951-6.342 6.342-6.344-6.343zm-17.426 18.477-.027-1.021 5.847-5.848 6.343 6.343-6.344 6.344zm-.039 23.961-.035-.938 5.893-5.893 6.345 6.344-6.345 6.345zm.011 24.01-.016-.977 5.863-5.862 6.343 6.343-6.343 6.343zm-.043 23.05 5.89-5.89 6.344 6.344-6.344 6.344-5.859-5.86zm22.211 14.475-8.785-.139-1.88-1.881 6.345-6.344 6.342 6.342zm23.981.021-8.637-.035-2.009-2.009 6.343-6.343 6.344 6.344zm24.008-.009-8.703-.082-1.952-1.952 6.342-6.343 6.345 6.344zm24.078-.078h-8.777l-1.955-1.955 6.344-6.344 6.344 6.344zm24.004-.004-8.703.082-2.034-2.034 6.342-6.343 6.345 6.344zm23.941.056-8.637.035-2.042-2.042 6.344-6.344 6.344 6.343zm24.129-.125-8.785.139-2.021-2.021 6.345-6.344 6.344 6.344zm13.395-13.398-5.857 5.858-6.343-6.343 6.342-6.342 5.889 5.889z"/><circle cx="56" cy="124.072" r="4"/><circle cx="244" cy="124.072" r="4"/><circle cx="56" cy="236.072" r="4"/><circle cx="244" cy="236.072" r="4"/></g></svg>