<svg id="fence18" enable-background="new 0 0 300 300" height="512" viewBox="0 0 300 300" width="512" xmlns="http://www.w3.org/2000/svg"><g><path d="m76.016 68.756c.781.781 1.805 1.172 2.828 1.172s2.047-.391 2.828-1.172l3.172-3.172 3.172 3.172c.781.781 1.805 1.172 2.828 1.172s2.047-.391 2.828-1.172c1.562-1.562 1.562-4.094 0-5.656l-3.172-3.172 3.172-3.172c1.562-1.562 1.562-4.094 0-5.656s-4.094-1.562-5.656 0l-3.172 3.172-3.172-3.172c-1.562-1.562-4.094-1.562-5.656 0s-1.562 4.094 0 5.656l3.172 3.172-3.172 3.172c-1.563 1.562-1.563 4.093 0 5.656z"/><path d="m184 90.072c7.719 0 14-6.281 14-14s-6.281-14-14-14-14 6.281-14 14 6.281 14 14 14zm0-20c3.309 0 6 2.691 6 6s-2.691 6-6 6-6-2.691-6-6 2.691-6 6-6z"/><path d="m132.364 71.583c2.362 0 4.277-1.915 4.277-4.276s-1.915-4.277-4.277-4.277-4.276 1.915-4.276 4.277 1.914 4.276 4.276 4.276z"/><path d="m270 242.072h-4v-64-16-36c0-.865-.281-1.707-.801-2.4l-12-16c-1.508-2.016-4.891-2.016-6.398 0l-12 16c-.52.693-.801 1.535-.801 2.4v32h-8v-32c0-.865-.281-1.707-.801-2.4l-12-16c-1.508-2.016-4.891-2.016-6.398 0l-12 16c-.52.693-.801 1.535-.801 2.4v32h-8v-32c0-.865-.281-1.707-.801-2.4l-12-16c-1.508-2.016-4.891-2.016-6.398 0l-12 16c-.52.693-.801 1.535-.801 2.4v32h-8v-32c0-.865-.281-1.707-.801-2.4l-12-16c-1.508-2.012-4.891-2.012-6.398 0l-12 16c-.52.693-.801 1.535-.801 2.4v32h-8v-32c0-.865-.281-1.707-.801-2.4l-12-16c-1.508-2.016-4.891-2.016-6.398 0l-12 16c-.52.693-.801 1.535-.801 2.4v32h-8v-32c0-.865-.281-1.707-.801-2.4l-12-16c-1.508-2.016-4.891-2.016-6.398 0l-12 16c-.52.693-.801 1.535-.801 2.4v80 16 20h-4c-2.211 0-4 1.791-4 4s1.789 4 4 4h240c2.211 0 4-1.791 4-4s-1.789-4-4-4zm-76-60v20h-8v-20zm40 20h-8v-20h8zm0 8v8h-48v-8zm-48 16h8v16h-8zm16 0h16v16h-16zm24 0h8v16h-8zm16-44h16v60h-16zm0-54.666 8-10.668 8 10.668v30.666h-16zm16 38.666v8h-32v-8zm-48-49.334 8 10.668v74.666h-16v-74.666zm-48 10.668 8-10.668 8 10.668v30.666h-16zm32 38.666v8h-48v-8zm-152 44h32v8h-32zm32-8h-8v-20h8zm0 24v16h-8v-16zm8-44h16v60h-16zm72 28v8h-48v-8zm-40-8h-8v-20h8zm-8 24h8v16h-8zm16 0h16v16h-16zm24 0h8v16h-8zm8-24h-8v-20h8zm-24-85.334 8 10.668v74.666h-16v-74.666zm-48 10.668 8-10.668 8 10.668v30.666h-16zm32 38.666v8h-48v-8zm-64-49.334 8 10.668v74.666h-16v-74.666zm-8 109.334h16v16h-16zm120 16v-60h16v60z"/><circle cx="50" cy="146.072" r="4"/><circle cx="90" cy="146.072" r="4"/><circle cx="130" cy="146.072" r="4"/><circle cx="170" cy="146.072" r="4"/><circle cx="210" cy="146.072" r="4"/><circle cx="250" cy="146.072" r="4"/></g></svg>