<svg id="fence2" enable-background="new 0 0 300 300" height="512" viewBox="0 0 300 300" width="512" xmlns="http://www.w3.org/2000/svg"><g><path d="m76.016 74.756c.781.781 1.805 1.172 2.828 1.172s2.047-.391 2.828-1.172l3.172-3.172 3.172 3.172c.781.781 1.805 1.172 2.828 1.172s2.047-.391 2.828-1.172c1.562-1.562 1.562-4.094 0-5.656l-3.172-3.172 3.172-3.172c1.562-1.562 1.562-4.094 0-5.656s-4.094-1.562-5.656 0l-3.172 3.172-3.172-3.172c-1.562-1.562-4.094-1.562-5.656 0s-1.562 4.094 0 5.656l3.172 3.172-3.172 3.172c-1.563 1.562-1.563 4.093 0 5.656z"/><path d="m184 96.072c7.719 0 14-6.281 14-14s-6.281-14-14-14-14 6.281-14 14 6.281 14 14 14zm0-20c3.309 0 6 2.691 6 6s-2.691 6-6 6-6-2.691-6-6 2.691-6 6-6z"/><path d="m132.364 77.583c2.362 0 4.277-1.915 4.277-4.276s-1.915-4.277-4.277-4.277-4.276 1.915-4.276 4.277 1.914 4.276 4.276 4.276z"/><path d="m270 236.072h-8v-88h8c2.209 0 4-1.791 4-4s-1.791-4-4-4h-8v-24.233c2.467-2.525 4-5.967 4-9.767 0-7.719-6.281-14-14-14s-14 6.281-14 14c0 3.8 1.533 7.242 4 9.767v24.233h-8v-4c0-2.209-1.791-4-4-4s-4 1.791-4 4v4h-8v-4c0-2.209-1.791-4-4-4s-4 1.791-4 4v4h-8v-4c0-2.209-1.791-4-4-4s-4 1.791-4 4v4h-8v-4c0-2.209-1.791-4-4-4s-4 1.791-4 4v4h-8v-4c0-2.209-1.791-4-4-4s-4 1.791-4 4v4h-8v-4c0-2.209-1.791-4-4-4s-4 1.791-4 4v4h-8v-4c0-2.209-1.791-4-4-4s-4 1.791-4 4v4h-8v-4c0-2.209-1.791-4-4-4s-4 1.791-4 4v4h-8v-4c0-2.209-1.791-4-4-4s-4 1.791-4 4v4h-8v-4c0-2.209-1.791-4-4-4s-4 1.791-4 4v4h-8v-4c0-2.209-1.791-4-4-4s-4 1.791-4 4v4h-8v-24.233c2.467-2.525 4-5.967 4-9.767 0-7.719-6.281-14-14-14s-14 6.281-14 14c0 3.8 1.533 7.242 4 9.767v24.233h-8c-2.209 0-4 1.791-4 4s1.791 4 4 4h8v88h-8c-2.209 0-4 1.791-4 4s1.791 4 4 4h216 12 12c2.209 0 4-1.791 4-4s-1.791-4-4-4zm-18-136c3.309 0 6 2.691 6 6s-2.691 6-6 6-6-2.691-6-6 2.691-6 6-6zm-204 0c3.309 0 6 2.691 6 6s-2.691 6-6 6-6-2.691-6-6 2.691-6 6-6zm-2 136v-116.202c.659.095 1.315.202 2 .202s1.341-.107 2-.202v116.202zm12 0v-88h8v88zm16 0v-88h8v88zm16 0v-88h8v88zm16 0v-88h8v88zm16 0v-88h8v88zm16 0v-88h8v88zm16 0v-88h8v88zm16 0v-88h8v88zm16 0v-88h8v88zm16 0v-88h8v88zm16 0v-88h8v88zm16-88h8v88h-8zm16 88v-116.202c.659.095 1.315.202 2 .202s1.341-.107 2-.202v116.202z"/></g></svg>