<svg id="fence25" enable-background="new 0 0 300 300" height="512" viewBox="0 0 300 300" width="512" xmlns="http://www.w3.org/2000/svg"><g><path d="m80.016 78.684c.781.781 1.805 1.172 2.828 1.172s2.047-.391 2.828-1.172l3.172-3.172 3.172 3.172c.781.781 1.805 1.172 2.828 1.172s2.047-.391 2.828-1.172c1.562-1.562 1.562-4.094 0-5.656l-3.172-3.173 3.172-3.172c1.562-1.562 1.562-4.094 0-5.656s-4.094-1.562-5.656 0l-3.172 3.172-3.172-3.172c-1.562-1.562-4.094-1.562-5.656 0s-1.562 4.094 0 5.656l3.172 3.172-3.172 3.172c-1.563 1.563-1.563 4.094 0 5.657z"/><path d="m216 80c7.719 0 14-6.281 14-14s-6.281-14-14-14-14 6.281-14 14 6.281 14 14 14zm0-20c3.309 0 6 2.691 6 6s-2.691 6-6 6-6-2.691-6-6 2.691-6 6-6z"/><path d="m136.364 81.511c2.362 0 4.277-1.915 4.277-4.276s-1.915-4.277-4.277-4.277-4.276 1.915-4.276 4.277 1.914 4.276 4.276 4.276z"/><path d="m274 240h-8v-128c0-2.209-1.789-4-4-4h-12c-2.211 0-4 1.791-4 4v12h-12v-20c0-2.209-1.789-4-4-4s-4 1.791-4 4v20h-16v-20c0-2.209-1.789-4-4-4s-4 1.791-4 4v20h-16v-20c0-2.209-1.789-4-4-4s-4 1.791-4 4v20h-16v-20c0-2.209-1.789-4-4-4s-4 1.791-4 4v20h-16v-20c0-2.209-1.791-4-4-4s-4 1.791-4 4v20h-16v-20c0-2.209-1.791-4-4-4s-4 1.791-4 4v20h-16v-20c0-2.209-1.791-4-4-4s-4 1.791-4 4v20h-16v-20c0-2.209-1.791-4-4-4s-4 1.791-4 4v20h-4v-12c0-2.209-1.791-4-4-4h-12c-2.209 0-4 1.791-4 4v128h-8c-2.209 0-4 1.791-4 4s1.791 4 4 4h248c2.211 0 4-1.791 4-4s-1.789-4-4-4zm-16-124v124h-4v-124zm-12 96h-12v-8h12zm-20 0h-16v-8h16zm-24 0h-16v-8h16zm-24 0h-16v-8h16zm-24 0h-16v-8h16zm-24 0h-16v-8h16zm-24 0h-16v-8h16zm-24 0h-16v-8h16zm-24 0h-4v-8h4zm188 8v4h-192v-4zm0 12v8h-192v-8zm0-100v64h-12v-6.344l6.828-6.828c1.562-1.562 1.562-4.094 0-5.656l-6.828-6.828v-12.688l6.828-6.828c1.562-1.562 1.562-4.094 0-5.656l-6.828-6.828v-6.344zm-20 0v8c0 1.061.422 2.078 1.172 2.828l5.172 5.172-5.172 5.172c-.75.75-1.172 1.768-1.172 2.828v16c0 1.061.422 2.078 1.172 2.828l5.172 5.172-5.172 5.172c-.75.75-1.172 1.768-1.172 2.828v8h-16v-6.344l6.828-6.828c1.562-1.562 1.562-4.094 0-5.656l-6.828-6.828v-12.688l6.828-6.828c1.562-1.562 1.562-4.094 0-5.656l-6.828-6.828v-6.344zm-24 0v8c0 1.061.422 2.078 1.172 2.828l5.172 5.172-5.172 5.172c-.75.75-1.172 1.768-1.172 2.828v16c0 1.061.422 2.078 1.172 2.828l5.172 5.172-5.172 5.172c-.75.75-1.172 1.768-1.172 2.828v8h-16v-6.344l6.828-6.828c1.562-1.562 1.562-4.094 0-5.656l-6.828-6.828v-12.688l6.828-6.828c1.562-1.562 1.562-4.094 0-5.656l-6.828-6.828v-6.344zm-24 0v8c0 1.061.422 2.078 1.172 2.828l5.172 5.172-5.172 5.172c-.75.75-1.172 1.768-1.172 2.828v16c0 1.061.422 2.078 1.172 2.828l5.172 5.172-5.172 5.172c-.75.75-1.172 1.768-1.172 2.828v8h-16v-6.344l6.828-6.828c1.562-1.562 1.562-4.094 0-5.656l-6.828-6.828v-12.688l6.828-6.828c1.562-1.562 1.562-4.094 0-5.656l-6.828-6.828v-6.344zm-24 0v8c0 1.061.422 2.078 1.172 2.828l5.172 5.172-5.172 5.172c-.75.75-1.172 1.768-1.172 2.828v16c0 1.061.422 2.078 1.172 2.828l5.172 5.172-5.172 5.172c-.75.75-1.172 1.768-1.172 2.828v8h-16v-6.344l6.828-6.828c1.562-1.562 1.562-4.094 0-5.656l-6.828-6.828v-12.688l6.828-6.828c1.562-1.562 1.562-4.094 0-5.656l-6.828-6.828v-6.344zm-24 0v8c0 1.061.422 2.078 1.172 2.828l5.172 5.172-5.172 5.172c-.75.75-1.172 1.768-1.172 2.828v16c0 1.061.422 2.078 1.172 2.828l5.172 5.172-5.172 5.172c-.75.75-1.172 1.768-1.172 2.828v8h-16v-6.344l6.828-6.828c1.562-1.562 1.562-4.094 0-5.656l-6.828-6.828v-12.688l6.828-6.828c1.562-1.562 1.562-4.094 0-5.656l-6.828-6.828v-6.344zm-24 0v8c0 1.061.422 2.078 1.172 2.828l5.172 5.172-5.172 5.172c-.75.75-1.172 1.768-1.172 2.828v16c0 1.061.422 2.078 1.172 2.828l5.172 5.172-5.172 5.172c-.75.75-1.172 1.768-1.172 2.828v8h-16v-6.344l6.828-6.828c1.562-1.562 1.562-4.094 0-5.656l-6.828-6.828v-12.688l6.828-6.828c1.562-1.562 1.562-4.094 0-5.656l-6.828-6.828v-6.344zm-24 0v8c0 1.061.422 2.078 1.172 2.828l5.172 5.172-5.172 5.172c-.75.75-1.172 1.767-1.172 2.828v16c0 1.061.422 2.078 1.172 2.828l5.172 5.172-5.172 5.172c-.75.75-1.172 1.767-1.172 2.828v8h-16v-6.344l6.828-6.828c1.562-1.562 1.562-4.094 0-5.656l-6.828-6.828v-12.688l6.828-6.828c1.562-1.562 1.562-4.094 0-5.656l-6.828-6.828v-6.344zm-24 0v8c0 1.061.422 2.078 1.172 2.828l5.172 5.172-5.172 5.172c-.75.75-1.172 1.767-1.172 2.828v16c0 1.061.422 2.078 1.172 2.828l5.172 5.172-5.172 5.172c-.75.75-1.172 1.767-1.172 2.828v8h-4v-64zm-16-16h4v124h-4z"/></g></svg>