<svg id="fence26" enable-background="new 0 0 300 300" height="512" viewBox="0 0 300 300" width="512" xmlns="http://www.w3.org/2000/svg"><g><path d="m270 244h-20v-152c0-.066-.035-.122-.038-.188 2.491-2.528 4.038-5.991 4.038-9.812 0-7.719-6.281-14-14-14s-14 6.281-14 14c0 3.821 1.547 7.284 4.038 9.812-.003.066-.038.122-.038.188v36h-12v-28c0-2.209-1.789-4-4-4h-128c-2.211 0-4 1.791-4 4v28h-12v-36c0-.066-.035-.122-.038-.188 2.491-2.528 4.038-5.991 4.038-9.812 0-7.719-6.281-14-14-14s-14 6.281-14 14c0 3.821 1.547 7.284 4.038 9.812-.003.066-.038.122-.038.188v152h-20c-2.211 0-4 1.791-4 4s1.789 4 4 4h240c2.211 0 4-1.791 4-4s-1.789-4-4-4zm-200-40h12v24c0 2.209 1.789 4 4 4h128c2.211 0 4-1.791 4-4v-24h12v40h-160zm132-68h8v60h-8zm-96 12h8v8c0 2.209 1.789 4 4 4h8v8h-8c-2.211 0-4 1.791-4 4v8h-8zm40 8v-8h8v8c0 2.209 1.789 4 4 4h8v8h-8c-2.211 0-4 1.791-4 4v8h-8v-8c0-2.209-1.789-4-4-4h-8v-8h8c2.211 0 4-1.791 4-4zm40 0v-8h8v32h-8v-8c0-2.209-1.789-4-4-4h-8v-8h8c2.211 0 4-1.791 4-4zm-24 36v-16h16v16zm16-40h-16v-16h4 8 4zm-56 40v-16h16v16zm16-40h-16v-16h4 8 4zm-32 36h8v8c0 2.209 1.789 4 4 4h8v8h-20zm28 12h8c2.211 0 4-1.791 4-4v-8h8v8c0 2.209 1.789 4 4 4h8v8h-32zm40 0h8c2.211 0 4-1.791 4-4v-8h8v20h-20zm20-60h-8v-8c0-2.209-1.789-4-4-4h-8v-8h20zm-28-12h-8c-2.211 0-4 1.791-4 4v8h-8v-8c0-2.209-1.789-4-4-4h-8v-8h32zm-40 0h-8c-2.211 0-4 1.791-4 4v8h-8v-20h20zm-28 68h-8v-60h8zm0 8v8c0 2.209 1.789 4 4 4h96c2.211 0 4-1.791 4-4v-8h8v20h-120v-20zm142-108c.685 0 1.341-.107 2-.202v148.202h-4v-148.202c.659.095 1.315.202 2 .202zm0-20c3.309 0 6 2.691 6 6s-2.691 6-6 6-6-2.691-6-6 2.691-6 6-6zm-10 60v60h-12v-60zm-140-32h120v24h-8v-12c0-2.209-1.789-4-4-4h-96c-2.211 0-4 1.791-4 4v12h-8zm-8 32v60h-12v-60zm-22-60c3.309 0 6 2.691 6 6s-2.691 6-6 6-6-2.691-6-6 2.691-6 6-6zm-2 19.798c.659.095 1.315.202 2 .202s1.341-.107 2-.202v148.202h-4z"/><path d="m88.016 82.684c.781.781 1.805 1.172 2.828 1.172s2.047-.391 2.828-1.172l3.172-3.172 3.172 3.172c.781.781 1.805 1.172 2.828 1.172s2.047-.391 2.828-1.172c1.562-1.562 1.562-4.094 0-5.656l-3.172-3.172 3.172-3.172c1.562-1.562 1.562-4.094 0-5.656s-4.094-1.562-5.656 0l-3.172 3.172-3.172-3.172c-1.562-1.562-4.094-1.562-5.656 0s-1.562 4.094 0 5.656l3.172 3.172-3.172 3.172c-1.563 1.562-1.563 4.093 0 5.656z"/><path d="m196 76c7.719 0 14-6.281 14-14s-6.281-14-14-14-14 6.281-14 14 6.281 14 14 14zm0-20c3.309 0 6 2.691 6 6s-2.691 6-6 6-6-2.691-6-6 2.691-6 6-6z"/><path d="m144.364 85.511c2.362 0 4.277-1.915 4.277-4.276s-1.915-4.277-4.277-4.277-4.276 1.915-4.276 4.277 1.914 4.276 4.276 4.276z"/></g></svg>