<svg id="fence29" enable-background="new 0 0 300 300" height="512" viewBox="0 0 300 300" width="512" xmlns="http://www.w3.org/2000/svg"><g><path d="m204 86c7.719 0 14-6.281 14-14s-6.281-14-14-14-14 6.281-14 14 6.281 14 14 14zm0-20c3.309 0 6 2.691 6 6s-2.691 6-6 6-6-2.691-6-6 2.691-6 6-6z"/><path d="m124.364 87.511c2.361 0 4.276-1.915 4.276-4.276s-1.915-4.277-4.276-4.277c-2.362 0-4.276 1.915-4.276 4.277s1.914 4.276 4.276 4.276z"/><path d="m270 234h-8.066c-.34-6.445-5.488-11.594-11.934-11.933v-89.489c0-12.449-10.129-22.578-22.578-22.578h-154.844c-12.449 0-22.578 10.129-22.578 22.578v89.489c-6.445.34-11.594 5.488-11.934 11.933h-8.066c-2.211 0-4 1.791-4 4s1.789 4 4 4h240c2.211 0 4-1.791 4-4s-1.789-4-4-4zm-16.134 0h-15.732c.333-2.245 2.19-4 4.526-4h6.68c2.336 0 4.193 1.755 4.526 4zm-183.932 0c-.34-6.445-5.488-11.594-11.934-11.933v-8.067h184v8.067c-6.445.34-11.594 5.488-11.934 11.933zm4.066-116h8v88h-8zm152 88h-8v-88h8zm-16 0h-8v-88h8zm-16 0h-8v-88h8zm-16 0h-8v-88h8zm-16 0h-8v-88h8zm-16 0h-8v-88h8zm-16 0h-8v-88h8zm-16 0h-8v-88h8zm-16 0h-8v-88h8zm144-73.422v73.422h-8v-86.359c4.725 2.414 8 7.277 8 12.937zm-176-12.937v86.359h-8v-73.422c0-5.66 3.275-10.523 8-12.937zm-15.34 110.359h6.68c2.336 0 4.193 1.755 4.526 4h-15.732c.333-2.245 2.19-4 4.526-4z"/><path d="m68.016 84.684c.781.781 1.805 1.172 2.828 1.172s2.047-.391 2.828-1.172l3.172-3.172 3.172 3.172c.781.781 1.805 1.172 2.828 1.172s2.047-.391 2.828-1.172c1.562-1.562 1.562-4.094 0-5.656l-3.172-3.173 3.172-3.172c1.562-1.562 1.562-4.094 0-5.656s-4.094-1.562-5.656 0l-3.172 3.172-3.172-3.172c-1.562-1.562-4.094-1.562-5.656 0s-1.562 4.094 0 5.656l3.172 3.172-3.172 3.172c-1.563 1.563-1.563 4.094 0 5.657z"/></g></svg>