<svg id="fence5" enable-background="new 0 0 300 300" height="512" viewBox="0 0 300 300" width="512" xmlns="http://www.w3.org/2000/svg"><g><path d="m84.016 62.756c.781.781 1.805 1.172 2.828 1.172s2.047-.391 2.828-1.172l3.172-3.172 3.172 3.172c.781.781 1.805 1.172 2.828 1.172s2.047-.391 2.828-1.172c1.562-1.562 1.562-4.094 0-5.656l-3.172-3.172 3.172-3.172c1.562-1.562 1.562-4.094 0-5.656s-4.094-1.562-5.656 0l-3.172 3.172-3.172-3.172c-1.562-1.562-4.094-1.562-5.656 0s-1.562 4.094 0 5.656l3.172 3.172-3.172 3.172c-1.563 1.562-1.563 4.093 0 5.656z"/><path d="m192 84.072c7.719 0 14-6.281 14-14s-6.281-14-14-14-14 6.281-14 14 6.281 14 14 14zm0-20c3.309 0 6 2.691 6 6s-2.691 6-6 6-6-2.691-6-6 2.691-6 6-6z"/><path d="m140.364 65.583c2.362 0 4.277-1.915 4.277-4.276s-1.915-4.277-4.277-4.277-4.276 1.915-4.276 4.277 1.914 4.276 4.276 4.276z"/><path d="m98 180.072c0 11.027 8.973 20 20 20s20-8.973 20-20c0-6.745-3.341-12.901-8.931-16.623-1.814-4.327-6.09-7.377-11.069-7.377-4.987 0-9.267 3.06-11.076 7.399-5.518 3.692-8.924 9.918-8.924 16.601zm20-16c2.205 0 4 1.795 4 4s-1.795 4-4 4-4-1.795-4-4 1.795-4 4-4zm-10.354 9.959c2.076 3.592 5.915 6.042 10.354 6.042 4.436 0 8.273-2.447 10.35-6.034 1.052 1.802 1.65 3.861 1.65 6.034 0 6.617-5.383 12-12 12s-12-5.383-12-12c0-2.156.591-4.234 1.646-6.042z"/><path d="m270 244.072h-24v-128c0-2.209-1.789-4-4-4h-16c-2.211 0-4 1.791-4 4v8h-4v-28c0-2.209-1.789-4-4-4h-128c-2.209 0-4 1.791-4 4v28h-4v-8c0-2.209-1.791-4-4-4h-16c-2.209 0-4 1.791-4 4v128h-24c-2.209 0-4 1.791-4 4s1.791 4 4 4h24c0 2.209 1.791 4 4 4h16c2.209 0 4-1.791 4-4h4c0 2.209 1.791 4 4 4h128c2.211 0 4-1.791 4-4h4c0 2.209 1.789 4 4 4h16c2.211 0 4-1.791 4-4h24c2.211 0 4-1.791 4-4s-1.789-4-4-4zm-48-48h-4v-52h4zm-52-68h8v88h-8zm-8 88h-8v-88h8zm8-96v-4h8v4zm16 8h8v88h-8zm16 0h8v88h-8zm8-8h-8v-4h8zm-16 0h-8v-4h8zm-8-12v-8h8v8zm-8 0h-8v-8h8zm-16 0h-8v-8h8zm0 8v4h-8v-4zm-16 4h-56v-4h56zm0 8v88h-56v-88zm-64 68h-4v-52h4zm0 8v4h-4v-4zm8 20h56v4h-56zm64 0h8v4h-8zm16 0h8v4h-8zm16 0h8v4h-8zm16 0h8v4h-8zm16-20h4v4h-4zm4-72v4h-4v-4zm-12-24h-8v-8h8zm-64-8v8h-56v-8zm-64 32v4h-4v-4zm-12 116h-8v-128h8zm8-4v-28h4v28zm12 4v-12h56v12zm64 0v-12h8v12zm16 0v-12h8v12zm16 0v-12h8v12zm16 0v-12h8v12zm16-4v-28h4v28zm20 4h-8v-128h8z"/></g></svg>