<svg id="fence8" enable-background="new 0 0 300 300" height="512" viewBox="0 0 300 300" width="512" xmlns="http://www.w3.org/2000/svg"><g><path d="m76.016 70.756c.781.781 1.805 1.172 2.828 1.172s2.047-.391 2.828-1.172l3.172-3.172 3.172 3.172c.781.781 1.805 1.172 2.828 1.172s2.047-.391 2.828-1.172c1.562-1.562 1.562-4.094 0-5.656l-3.172-3.172 3.172-3.172c1.562-1.562 1.562-4.094 0-5.656s-4.094-1.562-5.656 0l-3.172 3.172-3.172-3.172c-1.562-1.562-4.094-1.562-5.656 0s-1.562 4.094 0 5.656l3.172 3.172-3.172 3.172c-1.563 1.562-1.563 4.093 0 5.656z"/><path d="m184 92.072c7.719 0 14-6.281 14-14s-6.281-14-14-14-14 6.281-14 14 6.281 14 14 14zm0-20c3.309 0 6 2.691 6 6s-2.691 6-6 6-6-2.691-6-6 2.691-6 6-6z"/><path d="m132.364 73.583c2.362 0 4.277-1.915 4.277-4.276s-1.915-4.277-4.277-4.277-4.276 1.915-4.276 4.277 1.914 4.276 4.276 4.276z"/><path d="m270 240.072h-4v-128c0-2.209-1.789-4-4-4h-16c-2.211 0-4 1.791-4 4v8h-184v-8c0-2.209-1.789-4-4-4h-16c-2.211 0-4 1.791-4 4v128h-4c-2.211 0-4 1.791-4 4s1.789 4 4 4h240c2.211 0 4-1.791 4-4s-1.789-4-4-4zm-12-124v124h-8v-124zm-16 108h-88v-4h88zm-184-4h88v4h-88zm40-34.343v26.344h-16v-42.344zm24 26.343h-16v-18.344l16 16zm80 0v-26.344l16-16v42.344zm-8 0h-16v-2.344l16-16zm48 0h-16v-50.344l16-16zm-77.656 0h-4.688l72-72h4.688zm53.656-69.656-16 16v-18.344h16zm-24 24-16 16v-42.344h16zm-24 24-16 16v-66.344h16zm-24 16-16-16v-50.344h16zm-24-24-16-16v-26.344h16zm-24-24-16-16v-2.344h16zm-29.656-18.344 72 72h-4.688l-72-72zm5.656 21.657v50.344h-16v-66.344zm-16 70.343h184v8h-184zm184-100h-88v-4h88zm-96-4v4h-88v-4zm-104-12h8v124h-8z"/></g></svg>