<svg id="fence9" enable-background="new 0 0 300 300" height="512" viewBox="0 0 300 300" width="512" xmlns="http://www.w3.org/2000/svg"><g><path d="m84.016 74.756c.781.781 1.805 1.172 2.828 1.172s2.047-.391 2.828-1.172l3.172-3.172 3.172 3.172c.781.781 1.805 1.172 2.828 1.172s2.047-.391 2.828-1.172c1.562-1.562 1.562-4.094 0-5.656l-3.172-3.172 3.172-3.172c1.562-1.562 1.562-4.094 0-5.656s-4.094-1.562-5.656 0l-3.172 3.172-3.172-3.172c-1.562-1.562-4.094-1.562-5.656 0s-1.562 4.094 0 5.656l3.172 3.172-3.172 3.172c-1.563 1.562-1.563 4.093 0 5.656z"/><path d="m192 96.072c7.719 0 14-6.281 14-14s-6.281-14-14-14-14 6.281-14 14 6.281 14 14 14zm0-20c3.309 0 6 2.691 6 6s-2.691 6-6 6-6-2.691-6-6 2.691-6 6-6z"/><path d="m140.364 77.583c2.361 0 4.276-1.915 4.276-4.276s-1.915-4.277-4.276-4.277c-2.362 0-4.276 1.915-4.276 4.277s1.914 4.276 4.276 4.276z"/><path d="m270 236.072h-4v-132c0-2.209-1.789-4-4-4h-16c-2.211 0-4 1.791-4 4v24h-8v-20c0-2.209-1.789-4-4-4h-72c-2.211 0-4 1.791-4 4v48h-8v-48c0-2.209-1.789-4-4-4h-72c-2.211 0-4 1.791-4 4v20h-8v-24c0-2.209-1.789-4-4-4h-16c-2.211 0-4 1.791-4 4v132h-4c-2.211 0-4 1.791-4 4s1.789 4 4 4h240c2.211 0 4-1.791 4-4s-1.789-4-4-4zm-12-128v128h-8v-128zm-16 28v64h-8v-64zm-80-24h64v112h-64v-44c6.617 0 12-5.383 12-12s-5.383-12-12-12zm-24 60c-2.207 0-4-1.795-4-4s1.793-4 4-4h24c2.207 0 4 1.795 4 4s-1.793 4-4 4zm-64-60h64v44c-6.617 0-12 5.383-12 12s5.383 12 12 12v44h-64zm68 120c2.211 0 4-1.791 4-4v-48h8v48c0 2.209 1.789 4 4 4h72c2.211 0 4-1.791 4-4v-20h8v28h-184v-28h8v20c0 2.209 1.789 4 4 4zm-76-96v64h-8v-64zm-24-28h8v128h-8z"/><circle cx="82" cy="120.072" r="4"/><circle cx="130" cy="120.072" r="4"/><circle cx="82" cy="216.072" r="4"/><circle cx="130" cy="216.072" r="4"/><circle cx="170" cy="120.072" r="4"/><circle cx="218" cy="120.072" r="4"/><circle cx="170" cy="216.072" r="4"/><circle cx="218" cy="216.072" r="4"/></g></svg>