<?xml version="1.0" encoding="UTF-8"?><svg id="Layer_2" xmlns="http://www.w3.org/2000/svg" xmlns:xlink="http://www.w3.org/1999/xlink" viewBox="0 0 623 235"><defs><style>.cls-1{fill:#fff;filter:url(#drop-shadow-1);stroke:#fff;stroke-miterlimit:10;}</style><filter id="drop-shadow-1" x="0" y="0" width="623" height="235" filterUnits="userSpaceOnUse"><feOffset dx="7" dy="7"/><feGaussianBlur result="blur" stdDeviation="5"/><feFlood flood-color="#fff" flood-opacity=".75"/><feComposite in2="blur" operator="in"/><feComposite in="SourceGraphic"/></filter></defs><g id="_ÎÓÈ_1"><path class="cls-1" d="M425,8.43l175.36,204.03M558.13,212.45L409.84,8.78M515.9,212.45L394.6,8.83M473.68,212.45L379.28,8.72M431.45,212.45L364.02,8.72M348.76,8.72l40.46,203.73M346.99,212.45l-13.48-203.62M304.76,212.45l13.48-203.73M262.54,212.45L302.97,8.83M220.31,212.45L287.73,8.72M178.08,212.45L272.48,8.72M135.85,212.45L257.16,8.82M93.63,212.45L241.88,8.83M51.4,212.45L226.7,8.72M211.34,8.83L9.17,212.45M571.46,178.87H42.51M69.51,151.68h478.14M528.15,129.23H91.84M111.04,108.33h401.05M126.42,94.29h371.28M486.77,80.44H140.24M476.27,68.38H152.22M467.52,57.78H162.74M459.54,48.39H171.85M451.98,40.01H180.38M445.51,32.5H187.84M439.67,25.71h-245.09M200.69,19.56h233.71M429.56,13.96h-223.31M211.34,8.83h214.07"/></g></svg>