<?xml version="1.0" encoding="UTF-8"?><svg id="Layer_2" xmlns="http://www.w3.org/2000/svg" viewBox="0 0 80.13 80.13"><defs><style>.cls-1{fill:#f2c500;}.cls-1,.cls-2,.cls-3{fill-rule:evenodd;}.cls-2{fill:#e94b35;}</style></defs><g id="Layer_1-2"><g><path class="cls-2" d="M80.13,40.07C80.13,17.94,62.19,0,40.07,0S0,17.94,0,40.07H80.13Z"/><path class="cls-3" d="M80.13,40.07c0,22.13-17.94,40.07-40.07,40.07S0,62.19,0,40.07H80.13Z"/><path class="cls-1" d="M48.4,54.93l.43-.51c-5.19-3.71-17.48-12.24-17.63-15.35-2.43,4.74,.65,7.57,2.63,8.69,5.04,2.87,8.39,4.76,13.65,8.25l.79-.93c-.9-.64-7.01-4.94-10.1-7.28-1.22-.92-3.5-2.98-3.5-2.98l.12-.16s2.31,1.99,3.54,2.92c3.1,2.33,9.21,6.72,10.07,7.34Zm-1.01-2.47c.43-.42,.84-.86,1.23-1.33l-.94-.77c.6-.74,1.14-1.53,1.59-2.37l1.07,.57c.49-.91,.88-1.87,1.18-2.85l-1.16-.35c.28-.91,.46-1.85,.55-2.8l1.21,.12c.1-1.03,.1-2.06,0-3.09l-1.21,.12c-.09-.95-.28-1.88-.56-2.8l1.16-.35c-.3-.99-.7-1.94-1.18-2.85l-1.08,.58c-.45-.84-.99-1.63-1.6-2.36l.96-.79c-.65-.8-1.39-1.53-2.18-2.18l-.8,.98c-.74-.6-1.53-1.12-2.37-1.57l.6-1.13c-.91-.49-1.87-.88-2.85-1.18l-.37,1.23c-.88-.26-1.78-.44-2.69-.54,0,0,7.31,.77,0,0l-.29,2.7c5.94,.62,10.59,5.59,10.59,11.7,0,3.61-1.62,6.85-4.18,9.02l3.32,2.3h0Zm-4.94,3.24c-.47,.19-.95,.37-1.44,.51l-.35-1.15c-.91,.28-1.85,.46-2.8,.56l.12,1.2c-1.03,.1-2.06,.1-3.09,0l.12-1.2c-.95-.1-1.88-.29-2.79-.57l-.36,1.17c-.99-.3-1.94-.7-2.85-1.18l.59-1.11c-.83-.45-1.62-.99-2.35-1.59l1.73-2.11c2.04,1.68,4.61,2.73,7.46,2.73,1.31,0,2.61-.22,3.85-.64l1.53,.9,.64,2.48Zm-11.2-21.71h3.96l1.22-3.77,1.22,3.77h3.96l-3.21,2.33,1.22,3.77-3.21-2.33-3.21,2.33,1.22-3.77-3.21-2.33Zm16.42,22.27l1.47-1.73c.78,.75,1.82,1.49,2.58,2.16,.76,.67,1.34,1.23,1.81,1.99,.69,1.12-.08,2.39-1.16,1.64-.58-.4-.94-1.49-1.83-2.39-.66-.56-1.18-1.15-2.83-1.43-.08-.01-.1-.18-.04-.25,0,0-.06,.07,0,0,0,0-.06,.07,0,0h0Zm3.58,.96c-.09,.06-.22,.03-.28-.06s-.03-.22,.06-.28h.02c.1-.06,.22-.02,.27,.08,.05,.09,.02,.21-.07,.27,0,0,.06-.04,0,0Zm-1.4-1.48c0,.11-.08,.21-.19,.21-.11,0-.21-.08-.21-.19,0,0,0-.01,0-.02,0-.11,.09-.2,.2-.2,.11,0,.2,.09,.2,.2h0s0-.07,0,0h0Zm2.82,2.64c0,.11-.09,.2-.2,.2-.11,0-.2-.09-.2-.2h0c0-.11,.09-.2,.2-.2s.2,.09,.2,.2c0,0,0-.07,0,0h0Z"/></g></g></svg>