<?xml version="1.0" encoding="UTF-8"?><svg id="Layer_2" xmlns="http://www.w3.org/2000/svg" viewBox="0 0 80.13 80.13"><defs><style>.cls-1{fill:#227fbb;}.cls-2{fill:#fff;}.cls-2,.cls-3{fill-rule:evenodd;}.cls-3{fill:#e94b35;}</style></defs><g id="Layer_1-2"><g><circle class="cls-1" cx="40.07" cy="40.07" r="40.07"/><path class="cls-2" d="M56.54,12.91l.88,2.81,2.69-1.04-1.59,2.46,2.47,1.5-2.87,.26,.39,2.92-1.98-2.14-1.98,2.14,.39-2.92-2.87-.26,2.47-1.51-1.59-2.46,2.69,1.04,.88-2.81Zm11.57,18.7l.88,2.81,2.69-1.04-1.59,2.46,2.47,1.5-2.87,.26,.39,2.92-1.98-2.14-1.98,2.14,.39-2.92-2.87-.26,2.47-1.51-1.59-2.46,2.69,1.04,.88-2.81Zm-20.92-4.9l.88,2.81,2.69-1.04-1.59,2.46,2.47,1.5-2.87,.26,.39,2.92-1.98-2.14-1.98,2.14,.39-2.92-2.87-.26,2.47-1.51-1.59-2.46,2.69,1.04,.88-2.81Zm9.35,29.38l.88,2.81,2.69-1.04-1.59,2.46,2.47,1.51-2.87,.26,.39,2.92-1.98-2.14-1.98,2.14,.39-2.92-2.87-.26,2.47-1.51-1.59-2.46,2.69,1.04,.88-2.81Zm-32.94-9.79l1.85,5.9,5.65-2.19-3.34,5.16,5.19,3.16-6.02,.54,.83,6.14-4.16-4.49-4.16,4.49,.83-6.14-6.02-.54,5.19-3.16-3.34-5.16,5.65,2.19,1.85-5.9Zm35.84-2.67l.55,1.72h1.9l-1.5,1.05,.55,1.68-1.5-1.05-1.5,1.01,.55-1.63-1.5-1.05h1.85l.6-1.72ZM26.12,2.49l-7.69,3.84C7.34,13.47,0,25.91,0,40.07H8.01v-11.55l23.09,11.55h8.96v-4.48l-19.09-9.54h19.09V14.02H20.98L40.07,4.48V0c-4.91,0-9.61,.88-13.95,2.49Z"/><path class="cls-3" d="M8.01,16.03H40.07v8.01H5.34v16.03H0c0-9.02,2.98-17.34,8.01-24.04ZM33.79,.49L11.07,12.42c-.5,.52-.98,1.06-1.45,1.6h3.74L40.07,0h0c-2.13,0-4.23,.17-6.27,.49ZM12.46,26.04h5.34l22.26,11.35v2.67L12.46,26.04Z"/></g></g></svg>