<?xml version="1.0" encoding="UTF-8"?><svg id="Layer_2" xmlns="http://www.w3.org/2000/svg" viewBox="0 0 80 80"><defs><style>.cls-1{fill:#1aaf5d;}.cls-2{fill:#227fbb;}.cls-2,.cls-3,.cls-4,.cls-5{fill-rule:evenodd;}.cls-3{fill:#009b3a;}.cls-4{fill:#f2c500;}.cls-5{fill:#fff;}</style></defs><g id="Layer_1-2"><g><circle class="cls-1" cx="40" cy="40" r="40"/><path class="cls-4" d="M40,13.33L2.22,40l37.78,26.67,37.78-26.67L40,13.33Z"/><path class="cls-2" d="M40,55.56c8.59,0,15.56-6.96,15.56-15.56s-6.96-15.56-15.56-15.56-15.56,6.96-15.56,15.56,6.96,15.56,15.56,15.56Z"/><path class="cls-5" d="M51.7,46.38l-.05-.28,.32-.31-.44-.06-.2-.4-.2,.4-.44,.06,.32,.31-.08,.44,.39-.21,.31,.16-.06,.12-.44,.06,.32,.31-.08,.44,.39-.21,.39,.21-.08-.44,.32-.31-.44-.06-.2-.4-.08,.16Zm-6.59-11.16l-.39,.21,.08-.44-.32-.31,.44-.06,.2-.4,.2,.4,.44,.06-.32,.31,.08,.44-.39-.21Zm-.89,4.44l-.39,.21,.08-.44-.32-.31,.44-.06,.2-.4,.2,.4,.44,.06-.32,.31,.08,.44-.39-.21Zm-4,3.11l-.39,.21,.08-.44-.32-.31,.44-.06,.2-.4,.2,.4,.44,.06-.32,.31,.08,.44-.39-.21Zm1.33,1.33l-.39,.21,.08-.44-.32-.31,.44-.06,.2-.4,.2,.4,.44,.06-.32,.31,.08,.44-.39-.21Zm-1.78,3.56l-.39,.21,.08-.44-.32-.31,.44-.06,.2-.4,.2,.4,.44,.06-.32,.31,.08,.44-.39-.21Zm13.11-2.11l-.26,.14,.05-.29-.21-.21,.29-.04,.13-.26,.13,.26,.29,.04-.21,.21,.05,.29-.26-.14Zm-3.56,3.56l-.26,.14,.05-.29-.21-.21,.29-.04,.13-.26,.13,.26,.29,.04-.21,.21,.05,.29-.26-.14Zm-1.56-.11l-.39,.21,.08-.44-.32-.31,.44-.06,.2-.4,.2,.4,.44,.06-.32,.31,.08,.44-.39-.21Zm3.11-.44l.39,.21-.08-.44,.32-.31-.44-.06-.2-.4-.2,.4-.44,.06,.32,.31-.08,.44,.39-.21Zm-3.11,4l.39,.21-.08-.44,.32-.31-.44-.06-.2-.4-.2,.4-.44,.06,.32,.31-.08,.44,.39-.21Zm0-1.78l.39,.21-.08-.44,.32-.31-.44-.06-.2-.4-.2,.4-.44,.06,.32,.31-.08,.44,.39-.21Zm-20.89-13.33l-.39,.21,.08-.44-.32-.31,.44-.06,.2-.4,.2,.4,.44,.06-.32,.31,.08,.44-.39-.21Zm4.22,4.11l-.26,.14,.05-.29-.21-.21,.29-.04,.13-.26,.13,.26,.29,.04-.21,.21,.05,.29-.26-.14Zm-2.44,2.56l-.39,.21,.08-.44-.32-.31,.44-.06,.2-.4,.2,.4,.44,.06-.32,.31,.08,.44-.39-.21Zm2.67,3.11l-.39,.21,.08-.44-.32-.31,.44-.06,.2-.4,.2,.4,.44,.06-.32,.31,.08,.44-.39-.21Zm-4.89-1.78l-.39,.21,.08-.44-.32-.31,.44-.06,.2-.4,.2,.4,.44,.06-.32,.31,.08,.44-.39-.21Zm8-5.78l-.39,.21,.08-.44-.32-.31,.44-.06,.2-.4,.2,.4,.44,.06-.32,.31,.08,.44-.39-.21Zm-1.11,8.56l-.26,.14,.05-.29-.21-.21,.29-.04,.13-.26,.13,.26,.29,.04-.21,.21,.05,.29-.26-.14Zm4.44-4.44l-.26,.14,.05-.29-.21-.21,.29-.04,.13-.26,.13,.26,.29,.04-.21,.21,.05,.29-.26-.14Zm1.78,1.33l-.26,.14,.05-.29-.21-.21,.29-.04,.13-.26,.13,.26,.29,.04-.21,.21,.05,.29-.26-.14Zm3.56,3.56l-.26,.14,.05-.29-.21-.21,.29-.04,.13-.26,.13,.26,.29,.04-.21,.21,.05,.29-.26-.14Zm2.22,.89l-.26,.14,.05-.29-.21-.21,.29-.04,.13-.26,.13,.26,.29,.04-.21,.21,.05,.29-.26-.14Zm-1.33,1.78l-.26,.14,.05-.29-.21-.21,.29-.04,.13-.26,.13,.26,.29,.04-.21,.21,.05,.29-.26-.14Z"/><path class="cls-5" d="M55.35,42.51c-6.62-5.72-15.25-9.18-24.69-9.18-1.65,0-3.27,.11-4.87,.31-.34,.76-.62,1.56-.84,2.37,1.89-.3,3.8-.46,5.71-.46,9.29,0,17.75,3.56,24.08,9.4,.27-.8,.47-1.61,.6-2.44Z"/><path class="cls-3" d="M26.76,35.57c.37-.04,.61-.47,.56-.95-.06-.48-.4-.83-.77-.79-.37,.04-.61,.47-.56,.95,.06,.48,.4,.83,.77,.79m-.04-.32c.21-.03,.36-.29,.32-.59s-.24-.52-.46-.5c-.21,.03-.36,.29-.32,.59s.24,.52,.46,.5m1.9-.48l-.45,.03,.04,.58-.27,.02-.09-1.55,.84-.06c.26-.02,.48,.19,.5,.46,.02,.2-.09,.38-.26,.47,.12,.16,.18,.43,.21,.59l-.26,.05c-.03-.16-.08-.43-.25-.58Zm-.47-.26l.57-.04c.11-.01,.19-.11,.18-.21,0-.11-.1-.19-.2-.19l-.57,.04,.03,.4Zm1.66,.69h.7c.35-.02,.63-.31,.62-.66h0v-.21c0-.35-.3-.63-.65-.62h-.7l.03,1.49h0Zm.27-.28h.4c.22-.01,.4-.19,.4-.42v-.13c0-.22-.19-.4-.41-.4h-.4l.02,.94Zm1.61,.26l1.33,.05v-.27l-1.07-.04v-.38l.86,.03v-.25l-.84-.03v-.3l1.03,.04v-.28l-1.26-.04-.05,1.48Zm1.88,.08l.25,.02,.09-1.01,.21,1.04,.23,.02,.38-.99-.09,1.01,.25,.02,.13-1.48-.37-.03-.38,.99-.21-1.04-.37-.03-.13,1.48h0Zm3.07,.35l1.1,.19,.04-.25-.84-.15,.06-.33,.69,.12,.04-.25-.69-.12,.04-.23,.82,.14,.04-.25-1.07-.18-.23,1.31h0Zm3.08,.78l.14-.53,.57,.15c.25,.07,.51-.07,.58-.32s-.07-.51-.32-.58h-.03l-.82-.22-.39,1.43,.27,.07h0Zm.21-.8l.55,.14c.1,.03,.21-.03,.24-.13s-.03-.21-.13-.24h-.01l-.55-.15-.1,.37Zm2.17,.89l-.56-.18-.17,.52-.26-.08,.47-1.41,.81,.25c.25,.08,.38,.34,.3,.58-.05,.15-.18,.27-.33,.31,.1,.17,0,.48-.04,.63l-.24-.08c.04-.14,.12-.38,.03-.57Zm-.48-.44l.54,.17c.1,.03,.21-.03,.24-.13,.03-.1-.03-.2-.12-.23l-.54-.17-.11,.36Zm1.9,1.58c.34,.13,.75-.11,.91-.53,.16-.42,0-.87-.34-1-.34-.13-.75,.11-.91,.53-.16,.42,0,.87,.34,1m.11-.28c.2,.08,.45-.08,.55-.34,.1-.27,.02-.54-.19-.62-.2-.08-.45,.08-.55,.34-.1,.26-.01,.54,.19,.62m2.37,.14c0-.16-.06-.31-.18-.37-.19-.1-.45,.02-.58,.27-.13,.25-.08,.54,.11,.64,.13,.07,.29,.03,.42-.07l-.28-.15,.12-.23,.57,.3h0c-.21,.41-.64,.59-.97,.42s-.42-.63-.22-1.03c.21-.4,.64-.58,.97-.41,.26,.13,.37,.45,.31,.78l-.26-.14h0Zm1.57,1.3l-.53-.26-.25,.49-.25-.12,.68-1.32,.76,.38c.23,.11,.32,.39,.21,.62-.07,.15-.22,.24-.38,.26,.08,.19-.07,.47-.14,.62l-.23-.11c.06-.13,.18-.36,.12-.55Zm-.41-.51l.51,.26c.1,.04,.21,0,.25-.1,.04-.09,0-.2-.08-.25l-.51-.26-.17,.34Zm1.06,1.47l1.16,.66,.14-.24-.94-.53,.19-.33,.74,.42,.12-.22-.74-.42,.15-.26,.88,.5,.14-.24-1.11-.62-.73,1.29Zm2.16,.77c-.08,.12,0,.26,.18,.38,.18,.11,.3,.11,.35,.03,.16-.25-.77-.63-.49-1.07,.25-.38,.68-.08,.84,.02,.16,.1,.42,.37,.22,.67l-.27-.17c.09-.13,0-.26-.15-.35-.14-.09-.25-.13-.33,0-.14,.21,.78,.6,.5,1.04-.21,.33-.57,.18-.81,.03-.21-.13-.51-.44-.31-.75,0,0-.2,.31,0,0l.28,.18m1.67,1.38c.17,.12,.29,.13,.35,.05,.18-.25-.74-.67-.43-1.09,.27-.37,.68-.05,.83,.06,.16,.11,.4,.39,.18,.68l-.26-.19c.09-.13,0-.26-.13-.36-.13-.1-.24-.14-.33-.02-.15,.2,.75,.64,.44,1.06-.22,.31-.58,.15-.81-.01-.2-.14-.49-.47-.27-.77l.27,.19c-.09,.12-.01,.26,.16,.39h0Zm1.18,1.24c.29,.23,.73,.16,.98-.16s.23-.77-.06-.99c-.29-.23-.73-.16-.98,.16s-.23,.77,.06,.99m.17-.22c.17,.13,.44,.08,.6-.12,.16-.2,.15-.47-.02-.61-.17-.13-.44-.08-.6,.12-.16,.2-.15,.47,.02,.61"/></g></g></svg>