<?xml version="1.0" encoding="UTF-8"?><svg id="Layer_2" xmlns="http://www.w3.org/2000/svg" viewBox="0 0 59.88 59.87"><defs><style>.cls-1{fill:#e94b35;}.cls-2{fill:#f2c500;fill-rule:evenodd;}</style></defs><g id="Layer_1-2"><g><ellipse class="cls-1" cx="29.94" cy="29.93" rx="29.94" ry="29.93"/><path class="cls-2" d="M19.97,22.99l-6.17,3.12,1.18-6.6-4.99-4.67,6.89-.96,3.08-6.01,3.08,6.01,6.89,.96-4.99,4.67,1.18,6.6-6.17-3.12h0Zm10.23-13.86l-1.3,.66,.25-1.39-1.05-.98,1.45-.2,.65-1.26,.65,1.26,1.45,.2-1.05,.98,.25,1.39-1.3-.66Zm5.54,4.46l-1.3,.66,.25-1.39-1.05-.98,1.45-.2,.65-1.26,.65,1.26,1.45,.2-1.05,.98,.25,1.39-1.3-.66h0Zm.64,6.69l-1.3,.66,.25-1.39-1.05-.98,1.45-.2,.65-1.26,.65,1.26,1.45,.2-1.05,.98,.25,1.39-1.3-.66Zm-5.17,5.82l-1.3,.66,.25-1.39-1.05-.98,1.45-.2,.65-1.26,.65,1.26,1.45,.2-1.05,.98,.25,1.39-1.3-.66Z"/></g></g></svg>