<?xml version="1.0" encoding="UTF-8"?><svg id="Layer_2" xmlns="http://www.w3.org/2000/svg" viewBox="0 0 80.14 80.14"><defs><style>.cls-1,.cls-2{fill:#fff;}.cls-3{fill:#c09300;}.cls-3,.cls-2,.cls-4,.cls-5{fill-rule:evenodd;}.cls-4{fill:#e94b35;}</style></defs><g id="Layer_1-2"><g><path class="cls-5" d="M77.86,53.43H2.28c5.5,15.56,20.34,26.71,37.79,26.71s32.29-11.15,37.79-26.71Z"/><path class="cls-2" d="M2.28,53.43H77.86c1.48-4.18,2.28-8.67,2.28-13.36s-.8-9.18-2.28-13.36H2.28c-1.48,4.18-2.28,8.67-2.28,13.36s.8,9.18,2.28,13.36Z"/><path class="cls-4" d="M2.28,26.71H77.86C72.36,11.15,57.52,0,40.07,0S7.78,11.15,2.28,26.71Z"/><path class="cls-2" d="M40.18,40.3l9.15,8.49-.65-15.42c-.1-2.34-2.13-1.8-3.6-.96-1.49,.96-3.2,.96-5,.33-1.8,.63-3.51,.63-5-.33-1.48-.84-3.51-1.38-3.6,.96l-.65,15.42,9.36-8.49h0Z"/><path class="cls-3" d="M40.12,40.37l9.15,8.49,.15,.14v-.21l-.66-15.42c-.05-1.12-.53-1.69-1.36-1.75-.66-.05-1.5,.23-2.37,.72-1.4,.9-3.05,.98-4.93,.32h-.06c-1.88,.66-3.53,.58-4.93-.32-.87-.5-1.71-.78-2.37-.73-.83,.06-1.32,.63-1.36,1.75l-.65,15.42v.2l.14-.14,9.36-8.49,.16-.15h-.44l.16,.15h0Zm.12-.12l-.06,.06v0l-.06-.06-9.36,8.49,.14,.07,.65-15.42c.04-1.04,.47-1.54,1.21-1.59,.62-.05,1.43,.22,2.27,.7,1.45,.93,3.14,1.01,5.07,.33h-.06c1.93,.68,3.63,.59,5.08-.33,.83-.48,1.65-.75,2.27-.7,.74,.06,1.16,.55,1.21,1.59l.65,15.42,.14-.07-9.15-8.49Z"/><path class="cls-3" d="M32.52,32.84l-.63,15-1.07,.96,.65-15.42c.31-.21,.84-.54,1.05-.54Zm1.28,1.07l-.54,12.55-1.07,1.1,.65-14.49c.21,.21,.84,.73,.96,.84h0Zm1.17,.96l-.42,10.47-.86,.84,.54-11.94c.21,.21,.63,.52,.75,.63Zm1.26,.54l-.42,8.92-.84,.68,.42-9.93c.21,.1,.63,.33,.84,.33Zm1.17,0l-.31,7.43-.86,.84,.33-8.18c.21,0,.75,0,.84-.1Zm10.21-2.57l.63,15,1.07,.96-.65-15.42c-.31-.21-.84-.54-1.05-.54Zm-1.28,1.07l.54,12.55,1.07,1.1-.65-14.49c-.21,.21-.84,.73-.96,.84h0Zm-1.17,.96l.42,10.47,.86,.84-.54-11.94c-.21,.21-.63,.52-.75,.63Zm-1.26,.54l.42,8.92,.84,.68-.42-9.93c-.21,.1-.63,.33-.84,.33Zm-1.17,0l.31,7.43,.86,.84-.33-8.18c-.21,0-.75,0-.84-.1Zm-3.15,6.57l-1.29,5.88,.49,.49,.52-.38,.48-3.43-.2,3.41,.5,.63,.49-.63-.2-3.43,.48,3.45,.51,.38,.49-.49-1.29-5.88h-.98Z"/><path class="cls-2" d="M34.65,48.47l3.51,.54,1.49-6.8-2.45-2.78-2.55,9.04Z"/><path class="cls-3" d="M39.61,42.04l.12,.14-1.52,6.91-3.67-.56,2.57-9.11,.14-.05,.03,.03-.05,.18-2.48,8.81,3.34,.52,1.47-6.68,.05-.19h0Z"/><path class="cls-3" d="M36.63,43.41l1.75-1.67-.12-.12-1.57,1.49-.26-.63-.16,.06,.35,.86Z"/><path class="cls-3" d="M37.79,44.11l1.18-1.55-.13-.1-.92,1.21-.32-3.04-.17,.02,.37,3.46Z"/><path class="cls-3" d="M38.4,43.07l.58,1.99,.16-.05-.58-1.99-.16,.05Z"/><path class="cls-3" d="M38.05,46.03l.14,.09,1.16-1.77-.14-.09-1.16,1.77Zm.14,.03l-.36-1.98-.79,1.08-.34-1.2-1.23,1.26,.62,2.27,.77-1.27,.42,1.28,.88-1.37-.14-.09-.69,1.07-.42-1.29-.76,1.24-.49-1.79,.96-.98,.35,1.24,.77-1.03,.29,1.6,.04,.2,.33,1.57,.17-.04-.37-1.76h0Z"/><path class="cls-3" d="M36.08,47.47l.46,1.54,.64-1.07,.36,1.1,.16-.05-.48-1.46-.63,1.07-.46-1.51-.81,1.14,.14,.1,.61-.84Z"/><path class="cls-2" d="M42.95,39.43l2.55,9.04-3.51,.54-1.49-6.8,2.45-2.78Z"/><path class="cls-3" d="M40.53,42.05l-.12,.14,1.52,6.91,3.67-.56-2.57-9.11-.14-.05-.04,.04,.06,.17,2.48,8.81-3.34,.52-1.47-6.68-.05-.19Z"/><path class="cls-3" d="M43.51,43.41l-1.75-1.67,.12-.12,1.57,1.49,.26-.63,.16,.06-.35,.86Z"/><path class="cls-3" d="M42.36,44.11l-1.18-1.55,.13-.1,.92,1.21,.32-3.04,.17,.02-.37,3.46Z"/><path class="cls-3" d="M41.74,43.07l-.58,1.99-.16-.05,.58-1.99,.16,.05Z"/><path class="cls-3" d="M42.1,46.03l-.14,.09-1.16-1.77,.14-.09,1.16,1.77Zm-.14,.03l.36-1.98,.79,1.08,.34-1.2,1.23,1.26-.62,2.27-.77-1.27-.42,1.28-.88-1.37,.14-.09,.69,1.07,.42-1.29,.76,1.24,.49-1.79-.96-.98-.35,1.24-.77-1.03-.29,1.6-.04,.2-.33,1.57-.17-.04,.37-1.76h0Z"/><path class="cls-3" d="M44.07,47.47l-.46,1.54-.64-1.07-.36,1.1-.16-.05,.48-1.46,.63,1.07,.46-1.51,.81,1.14-.14,.1-.61-.84Z"/><path class="cls-2" d="M46.78,51.88c.63-.11,.63-.44,.63-.86,.63-.21,.31-.96,.75-.96-.44,.11-.54-.75-1.07-.63,0-.75-.75-.84-1.38-.63-1.26,.42-3.51,.52-5.63,.52-2.13-.1-4.35-.1-5.63-.52-.63-.21-1.38-.11-1.38,.63-.54-.12-.63,.75-1.07,.63,.44,0,.11,.75,.75,.96,0,.42,0,.75,.65,.86,1.48,.42,4.02,.63,6.69,.63s5.21-.21,6.71-.63Z"/><path class="cls-3" d="M47.56,51.13c.22-.1,.34-.27,.42-.52,0-.03,.04-.16,.05-.18,.04-.18,.23-.4,.23-.4,0,0-.28-.14-.42-.31l-.05-.07c-.25-.32-.37-.39-.55-.39-.1-.67-.8-.87-1.58-.61-1.09,.36-2.97,.51-5.58,.51-.2,0-.39-.02-.59-.02l-.59-.02c-2.53-.09-3.55-.18-4.41-.46-.84-.28-1.51,.36-1.56,.61-.21,0-.37,.14-.56,.39l-.05,.07c-.14,.17-.44,.37-.44,.37,0,0,.2,.16,.25,.35,0,.02,.04,.15,.05,.18,.08,.28,.25,.52,.41,.52,.02,.57,.17,.8,.78,.91,1.42,.41,3.92,.63,6.72,.63s5.29-.23,6.75-.64c.61-.11,.79-.65,.74-.9h0Zm-7.49,1.22c-2.77,0-5.24-.23-6.64-.63-.48-.08-.54-.19-.54-.71v-.11l-.11-.04c-.17-.06-.26-.16-.32-.35-.02-.06-.03-.11-.04-.17-.08-.31-.07-.23-.07-.23,0,0,.13-.12,.2-.22l.05-.07c.18-.23,.27-.29,.41-.26l.19,.04v-.2c0-.53,.51-.7,1.17-.48,.9,.29,1.93,.38,4.49,.48l.59,.02c.22,0,.41,.02,.59,.02,2.66,0,4.56-.15,5.69-.53,.66-.22,1.17-.05,1.17,.48v.2l.19-.04c.15-.03,.24,.03,.41,.26l.05,.07c.21,.26,.2,.22,.2,.22,0,0-.05,.13-.07,.22,0,.02-.04,.14-.04,.17-.06,.19-.14,.29-.31,.35l-.11,.04v.11c0,.52-.06,.63-.5,.71-1.44,.4-3.91,.63-6.68,.63Z"/><path class="cls-2" d="M39.02,48.58c.07,0,.43,.21,.43,.21,0,0,.33,.11,.39,.28,.12,.31-.16,1-.16,1,0,0-.42-.7-.78-.65-.75,.1-1.92,0-2.55-.11-.54-.1-1.71-.31-2.45-.52-.24-.1-.82,.34-.84,.2-.02-.11-.09-.47,.08-.67,.25-.3,.8-.43,.97-.39,.65,.21,1.49,.42,2.34,.54,.86,.11,1.82,.21,2.57,.11Z"/><path class="cls-3" d="M35.94,49.32c-.88-.16-1.54-.3-2.07-.45-.38-.16-.51-.44-.37-.7,.11-.23,.39-.37,.65-.32,.72,.23,1.55,.43,2.32,.53,1.12,.15,1.91,.2,2.55,.11h.01c.25,0,.47,.21,.5,.45,.03,.28-.18,.5-.61,.56-.55,.07-1.4,.04-2.11-.05-.04,.07-.1,.13-.19,.21-.14,.12-.27,.33-.27,.33,0,0-.12-.22-.23-.36-.01-.02-.02-.03-.03-.04-.08-.1-.13-.19-.15-.28Zm.92-.02c.69,.08,1.51,.11,2.04,.04,.34-.05,.48-.19,.46-.37-.02-.16-.1-.3-.33-.3-.43,.04-1.45,.04-2.58-.12-.8-.11-1.58-.29-2.35-.54-.16-.04-.37,.07-.45,.23-.09,.17,0,.34,.28,.47,.51,.14,1.15,.28,2.01,.44,0-.02,0-.04,.01-.07v.02c0-.26,.25-.51,.5-.51s.41,.32,.41,.62c0,.03,0,.06,0,.08Z"/><path class="cls-2" d="M36.25,49.54l-.03-.04c-.12-.15-.15-.23-.11-.38v-.02c0-.16,.17-.34,.34-.34,.12,0,.24,.23,.24,.45,0,.15-.04,.21-.18,.33-.06,.06-.15,.15-.15,.15,0,0,.02,.01-.11-.16Z"/><path class="cls-3" d="M33.82,47.97c-.67-.12-1.11,.64-.84,1.17l.08,.16,.07-.16c.03-.06,.09-.1,.27-.17,.22-.09,.31-.14,.36-.25,.05-.14,.05-.22,.03-.34v-.04c-.02-.08,0-.13,.07-.24l.07-.11-.13-.02h0Z"/><path class="cls-2" d="M33.63,48.36v.04c.02,.08,.02,.17-.02,.25-.02,.05-.09,.09-.27,.16-.22,.09-.26,.13-.26,.13-.09-.37,.18-.8,.58-.82-.04,.07-.05,.16-.04,.24Z"/><path class="cls-3" d="M39.57,50.32l.15-.21c.17-.23,.26-.57,.24-.85-.03-.33-.23-.55-.57-.55h-.16l.09,.13c.06,.09,.05,.12-.03,.19l-.06,.05c-.13,.11-.19,.2-.19,.35,0,.1,.06,.17,.17,.26,.02,.01,.04,.03,.07,.05l.07,.05c.17,.12,.23,.19,.23,.28v.26h0Z"/><path class="cls-2" d="M39.43,49.64l-.07-.05s-.04-.03-.06-.04c-.07-.06-.1-.09-.1-.12,0-.08,.04-.14,.13-.22l.06-.05c.15-.12,.13-.2,.13-.26,.16,.05,.24,.18,.26,.38,.02,.18-.03,.4-.11,.58-.02-.05-.03-.07-.24-.22Z"/><path class="cls-3" d="M34,48.32l.63,.21,.2,.07-.13-.16c-.1-.13-.44-.23-.68-.23l-.02,.12Zm1.06,.33l.75,.21,.04-.11c-.19-.11-.62-.22-.78-.22l-.02,.12Z"/><path class="cls-2" d="M41.12,48.58c-.07,0-.43,.21-.43,.21,0,0-.33,.11-.39,.28-.12,.31,.16,1,.16,1,0,0,.42-.7,.78-.65,.75,.1,1.92,0,2.55-.11,.54-.1,1.71-.31,2.45-.52,.24-.1,.82,.34,.84,.2,.02-.11,.09-.47-.08-.67-.25-.3-.8-.43-.97-.39-.76,.25-1.54,.42-2.34,.54-.86,.11-1.82,.21-2.57,.11h0Z"/><path class="cls-3" d="M44.21,49.32c.88-.16,1.54-.3,2.07-.45,.38-.16,.51-.44,.37-.7-.11-.23-.39-.37-.65-.32-.72,.23-1.55,.43-2.32,.53-1.12,.15-1.91,.2-2.55,.11h-.01c-.25,0-.47,.21-.5,.45-.03,.28,.18,.5,.61,.56,.55,.07,1.4,.04,2.11-.05,.04,.07,.1,.13,.19,.21,.14,.12,.27,.33,.27,.33,0,0,.12-.22,.23-.36,.01-.02,.02-.03,.03-.04,.08-.1,.13-.19,.15-.28Zm-.92-.02c-.69,.08-1.51,.11-2.04,.04-.34-.05-.48-.19-.46-.37,.02-.16,.1-.3,.33-.3,.43,.04,1.45,.04,2.58-.12,.8-.11,1.58-.29,2.35-.54,.16-.04,.37,.07,.45,.23,.09,.17,0,.34-.28,.47-.51,.14-1.15,.28-2.01,.44,0-.02,0-.04-.01-.07v.02c0-.26-.25-.51-.5-.51s-.41,.32-.41,.62c0,.03,0,.06,0,.08Z"/><path class="cls-2" d="M43.89,49.54l.03-.04c.12-.15,.15-.23,.11-.38v-.02c0-.16-.17-.34-.34-.34-.12,0-.24,.23-.24,.45,0,.15,.04,.21,.18,.33,.06,.06,.15,.15,.15,.15,0,0-.02,.01,.11-.16Z"/><path class="cls-3" d="M46.32,47.97c.67-.12,1.11,.64,.84,1.17l-.08,.16-.07-.16c-.03-.06-.09-.1-.27-.17-.22-.09-.31-.14-.36-.25-.05-.14-.05-.22-.03-.34v-.04c.02-.08,0-.13-.07-.24l-.07-.11,.13-.02h0Z"/><path class="cls-2" d="M46.52,48.36v.04c-.02,.08-.02,.17,.02,.25,.02,.05,.09,.09,.27,.16,.22,.09,.26,.13,.26,.13,.09-.37-.18-.8-.58-.82,.02,.04,.06,.12,.04,.24Z"/><path class="cls-3" d="M40.58,50.32l-.15-.21c-.17-.23-.26-.57-.24-.85,.03-.33,.23-.55,.57-.55h.16l-.09,.13c-.06,.09-.05,.12,.03,.19l.06,.05c.13,.11,.19,.2,.19,.35,0,.1-.06,.17-.17,.26-.02,.02-.04,.03-.07,.05l-.07,.05c-.17,.12-.23,.19-.23,.28v.26h0Z"/><path class="cls-2" d="M40.71,49.64l.07-.05s.04-.03,.06-.04c.07-.06,.1-.09,.1-.12,0-.08-.04-.14-.13-.22l-.06-.05c-.15-.12-.13-.2-.13-.26-.16,.05-.24,.18-.26,.38-.02,.18,.03,.4,.11,.58,.02-.05,.03-.07,.24-.22Z"/><path class="cls-3" d="M46.15,48.32l-.63,.21-.2,.07,.13-.16c.1-.13,.44-.23,.68-.23l.02,.12Zm-1.06,.33l-.75,.21-.04-.11c.19-.11,.62-.22,.78-.22l.02,.12Z"/><g><path class="cls-3" d="M33.84,49.94c-.07-.01-.11-.07-.09-.14,.02-.08,.09-.13,.15-.11,.04,.01,.11,.09,.11,.11,0,.03-.04,.1-.05,.1,0,0-.02,0-.02,.01-.01,.02-.06,.02-.09,.02Zm7.34,.52s-.07-.07-.07-.1c0-.05,.08-.14,.12-.14,.02,0,.09,.03,.11,.06,.04,.05,.03,.12-.02,.16-.03,.02-.11,.03-.15,.01Zm.05,.33c-.06-.02-.08-.05-.08-.11,0-.07,0-.07,.07-.11l.05-.03,.05,.02c.06,.03,.09,.06,.09,.1,0,.05-.03,.09-.09,.12-.05,.02-.05,.02-.09,0Z"/><path class="cls-3" d="M34.43,49.34s-.11,.04-.15,.06c-.09,.02-.19,.07-.27,.02-.08-.03-.19,0-.2,.1,.02,.09,.14,.14,.22,.08,.05-.07,.2-.11,.22,0-.06,.09-.05,.21-.1,.31,0,.06-.03,.12-.07,.17-.06,0-.13,0-.18,.04-.09,0-.17,.05-.22,.12-.05,.08-.11,.16-.12,.25,.01,.1,.12,.12,.21,.13,.09,.02,.18,.06,.27,.08,.15,.03,.28,.08,.43,.12,.21,.06,.43,.09,.65,.15,.02,0,.04,.01,.07,.02,.09,.02,.13-.08,.14-.15,.04-.15,.08-.31,.12-.47,.03-.06,.07-.2-.05-.17-.07,.04-.13,.1-.21,.11-.12,0-.05,.13,0,.18,0,.08-.01,.17-.07,.23-.07,.04-.16,0-.23-.02-.08,0-.23-.04-.16-.14,.03-.08,.03-.16,.06-.24,.04-.08,.04-.17,.06-.26-.05-.1-.13,.03-.2,.05-.05,.03-.21,.04-.13,.13,.08,.06,.02,.16,0,.23,0,.1-.11,.13-.2,.1-.08,0-.2-.07-.13-.16,.02-.08,.04-.15,.06-.23,.03-.09,.06-.18,.09-.28,.01-.08,.04-.16,.08-.23,0-.09,.06-.17,.06-.26,0-.05-.03-.06-.05-.06h0Zm-.48,.97s.02,0,.03,0c.03,.01,.03,.04,0,.07-.01,.01-.03,.03-.04,.02-.06,0-.08-.01-.08-.04,0-.02,0-.03,.05-.05,.01,0,.03-.01,.05-.02Zm-.14,.67c-.07-.06-.06-.11,.04-.18,.04-.03,.07-.03,.12,.02,.07,.07,.08,.11,.01,.17-.03,.03-.05,.03-.08,.03-.04,0-.05,0-.09-.04Zm12.31,.13s-.04-.04-.04-.07c0-.06,.03-.1,.1-.13,.09-.04,.13-.04,.16,.02,.05,.08,.04,.11-.01,.17-.03,.03-.04,.03-.1,.03-.07,0-.08,0-.11-.03Zm-11.36,.15s-.07-.05-.07-.11c0-.04,0-.05,.03-.08,.02-.02,.05-.03,.08-.03,.04,0,.05,0,.08,.02,.07,.05,.09,.1,.05,.15-.05,.05-.09,.07-.16,.05Zm2.93,.13s-.03-.02-.04-.04c0-.07,0-.15,.03-.22,.01-.07,0-.14,.03-.21,.02-.12,.02-.25,.05-.37,0-.06,0-.13,.03-.19,.02-.1,0-.2,.03-.29,0-.04,.04-.13,.07-.07,.05,.08,.12,.14,.19,.2,.06,.03,0,.08-.04,.1-.06,.02-.07,.08-.07,.14,0,.06-.03,.11-.03,.16-.01,.08,0,.17-.02,.25-.02,.08-.02,.17-.02,.25,0,.05-.02,.1-.02,.15,0,.05,0,.12-.05,.16-.04,.02-.11,.02-.14-.02Zm3.97-1.31c-.06,.05-.12,.11-.18,.16-.08,.06,.07,.09,.08,.15,.02,.08,.02,.16,.03,.24,.02,.07,.03,.15,.03,.23,0,.08-.12,.07-.16,.11-.07,.03-.09,.09-.14,.14-.03,.06-.04,.14-.05,.22,0,.06-.04,.13,0,.18l.02,.03s.05,0,.07,0c.07,0,.14,0,.2-.02,.16-.03,.33-.03,.49-.04,.1,0,.2-.03,.3-.03,.08,.02,.11-.07,.11-.13-.04-.09,0-.19-.04-.28-.03-.09-.02-.19-.03-.28,0-.07-.09-.1-.14-.05-.05,.05-.12,.06-.15,.11-.04,.08,.08,.08,.1,.14,.02,.06,.02,.13,.02,.2,.02,.08-.07,.08-.13,.09-.07,.03-.17,.04-.21-.04-.03-.06-.02-.13-.03-.2,0-.12-.03-.24-.04-.35,0-.15-.03-.29-.04-.44,0-.06,0-.16-.1-.14Zm-.08,1.1h.04v.1l-.05,.02s-.04,0-.05,.01l-.02-.02s-.02-.05,.02-.09c.02-.02,.03-.03,.07-.02Zm-4-1.24c-.05,.02-.12,.09-.17,.09-.12,0-.1,.12-.02,.16,.01,.03,0,.08,0,.12,.02,.11-.05,.19-.04,.3,0,.12-.04,.23-.05,.35-.03,.12-.03,.24-.05,.37-.01,.11-.09,.07-.16,.04,0-.05,0-.09,0-.14,.03-.11-.06-.14-.15-.15-.09,0-.14-.07-.12-.15,.04-.05,.14-.03,.2-.04,.13,.03,.13-.15,.06-.21-.05-.08-.16-.12-.19-.21,.01-.12-.06-.23-.16-.29-.15-.01-.26,.12-.31,.24-.06,.02-.12,.04-.18,.06-.09,.02-.23,.19-.1,.25,.07,.02,.29,.07,.2,.17-.05,.09-.16,.1-.25,.07-.1,0-.2-.05-.2-.16-.02-.1-.02-.21-.06-.3-.02-.11-.15-.09-.15,.02-.1,.07-.08,.19-.02,.27,.04,.1,0,.21-.04,.3-.03,.12-.15,.12-.25,.16-.05,.02-.22-.01-.15,.09,.1,.04,.22,.07,.33,.04,.11-.01,.21-.09,.26-.18,.07-.07,.2-.04,.3-.04,.1,0,.21,.07,.31,.02,.03-.08,.16-.2,.2-.07,0,.12,.09,.18,.2,.16,.12,0,.07,.08,.07,.15,0,.12,.09,.19,.19,.24,.04,0,.07,0,.11,0,.1-.03,.21-.08,.24-.19,.04-.09,.04-.19,.07-.29,.02-.15,.05-.3,.06-.46,.04-.14,.03-.28,.05-.43,.02-.1,.03-.21,.04-.31-.01-.06-.04-.07-.07-.05h0Zm-.91,.56s.03,.03,.03,.07c0,.05,.03,.09,.06,.1,.02,0,.02,.03,0,.05-.02,.01-.04,.02-.09,.02-.08,0-.12-.02-.17-.06l-.02-.03,.04-.02s.05-.04,.08-.07c.04-.04,.06-.06,.08-.05h0Zm8.82-1.05c-.07,0-.15,.01-.22,.03-.14,0-.21,.14-.08,.21,.08,.2,.21-.04,.33-.03,.19,.04,.21,.24,.24,.4,.01,.15,.06,.3,.1,.45,.13,.14-.1,.23-.19,.12-.08-.09-.26-.2-.35-.08-.12,.05-.13,.21-.23,.26-.16,.05-.18-.15-.27-.23-.08-.11-.23-.12-.35-.16-.06-.12-.03-.31-.15-.39-.1,.04-.28,.23-.13,.31,.15,.13-.07,.19-.13,.28-.1,.11-.11,.26-.13,.4-.17,.09-.2-.11-.22-.23-.01-.15-.14-.11-.23-.05-.13,.05-.19,.17-.28,.27-.01,.09,0,.18,0,.27,.03,.11,.16,.06,.24,.05,.13-.05,.18,.08,.08,.16-.07,.09-.3,.04-.28,.19,.07,0,.15,0,.22,0,.15-.04,.3-.14,.32-.3,.02-.14,.22-.12,.33-.15,.14-.04,.31-.05,.34,.13,.09,.1,.3,.21,.4,.08,.1-.06,.16-.18,.15-.3-.02-.1,.17-.11,.22-.05,.07,.11,.29,.08,.39,.02,.11-.08,.14-.23,.3-.23,.24-.07,.49-.11,.72-.2,.19-.04-.03-.16-.08-.23-.14-.07-.27,.22-.43,.08-.12-.1-.12-.28-.16-.42-.03-.18-.02-.39-.15-.53-.09-.1-.21-.12-.34-.11Zm-.91,1.26s.04,0,.07,.03c.06,.03,.1,.09,.1,.13,0,.03,0,.03-.05,.05-.02,.01-.04,.02-.07,.02-.02,0-.08-.05-.08-.07,0-.02,0-.04-.02-.06-.02-.04-.01-.04,0-.07,.01-.02,.02-.03,.04-.03h0Zm.87,.05s.08,.01,.1,.05c.02,.04,0,.08-.05,.1-.02,0-.04,.02-.06,.02,0,0-.03-.01-.05-.03-.04-.02-.04-.04-.04-.06,0-.04,.05-.08,.1-.08Zm-1.19,.01s.03,0,.05,.02c.02,.02,.03,.04,.04,.08,0,.03,0,.06,0,.08,0,.03,0,.03-.08,.03-.09,0-.09,0-.09-.09,0-.05,0-.06,.03-.09,.02-.02,.04-.03,.05-.03Zm-.73,.19s.05,.03,.06,.06c0,.04,0,.06-.03,.08-.03,.02-.1,.02-.12,0-.01,0-.02-.02-.02-.03,0-.02,0-.02,0-.03,0,0,.02-.02,.02-.02,0,0,0-.02,.02-.04,.02-.02,.05-.04,.07-.03Zm1.24,.16s.04,0,.06,.02c.02,.02,.02,.05,0,.08-.02,.01-.12,.01-.15,0-.02,0-.02-.01-.02-.03,0-.02,0-.03,.04-.05,.02-.01,.05-.02,.08-.02Zm-2.29,.64s-.03-.02-.01-.03c.02-.04,.07-.05,.11-.07,.07-.03,.14-.08,.18-.15,0-.04,.06-.07,.06-.11,0-.06,0-.13-.01-.19-.02-.06-.06-.1-.11-.13-.03-.03-.09-.03-.1-.08,0-.05,.03-.08,.05-.12,.03-.06,.05-.12,.09-.17,.03-.04,.09,0,.11,.04,.03,.04,.05,.08,.06,.12,.04,.04,.08,.1,.09,.16,.02,.04,.05,.08,.05,.13,0,.06,.03,.11,.03,.16,0,.07,0,.15-.03,.22-.02,.04-.06,.06-.08,.1-.04,.04-.09,.07-.14,.1-.04,.01-.06,.06-.11,.05-.07,0-.14,.01-.21,0,0,0-.02-.01-.02,0Zm-.91,.06s-.04-.05-.04-.08c0-.03,0-.05,.04-.08,.06-.06,.09-.06,.19,0,.1,.05,.13,.05,.14,.02,0-.03,.06-.06,.12-.06,.03,0,.05,0,.08,.03,.03,.03,.04,.03,.04,.09,0,.06,0,.06-.04,.1-.04,.03-.04,.03-.09,.03-.06,0-.09-.03-.1-.08,0-.03-.02-.04-.03-.02,0,0-.02,.02-.03,.02-.04,.01-.08,.04-.11,.07-.01,.01-.03,.02-.07,.02-.05,0-.05,0-.09-.04Zm-2.65-1.19c-.09,0-.18,.08-.2,.16,.02,.1,.1,.2,.05,.3,.04,.14-.1,.19-.2,.11-.06-.13-.09-.27-.17-.39-.11-.03-.15,.14-.23,.2,.04,.1,.15,.19,.16,.32,.03,.12-.05,.26-.15,.32-.09,.09-.22,.06-.33,.08-.14,.08,.1,.11,.16,.11,.14,.01,.28,0,.39-.11,.1-.05,.09-.23,.22-.25,.21,0,.42,.03,.63,.04,.11,.03,.29-.01,.37,.07,0,.15,.13,.24,.25,.3,.07,.02,.14-.06,.2-.08,.13-.04,.09-.2,.17-.26,.22-.01,.44,0,.66-.01,.04,0,.05-.06,.08-.08,0-.09,0-.17-.02-.25-.04-.11,0-.25-.07-.34-.11-.03-.2,.07-.32,.08-.12,.06-.23,.17-.23,.31-.07,.12-.19-.02-.15-.12,0-.04,0-.09,0-.13-.07-.08-.19-.05-.28-.07-.14,0-.27-.02-.41-.02-.12,0-.24,.01-.36-.02-.14,0-.12-.14-.14-.23-.02-.02-.05-.03-.08-.02h0Zm.27,.49s.09,0,.13,.01c.06,0,.12-.02,.18,0,.13,.02,.26,.02,.39,.03,.03,0,.06,.02,.08,.05v.28s0,.08-.02,.1c0,0-.02,.01-.03,.02-.04,0-.07-.03-.09-.07,0-.05,0-.09,0-.14,0-.01,0-.03,0-.04-.03-.02-.06-.03-.1-.03-.11,0-.22-.01-.34-.02-.09,0-.19,0-.28-.02-.04-.01-.08,0-.1-.05-.03-.04,.01-.08,.05-.1,.04-.02,.09-.03,.13-.02Zm1.51,.03s.03,0,.04,.05c0,.03,.01,.06,.02,.07,0,.02,0,.02-.02,.03-.07,.02-.13,.02-.15,0-.01-.01,0-.06,.02-.08,.04-.03,.08-.06,.1-.06h0Z"/></g><path class="cls-2" d="M40.07,43.62c4.36-3.35,3.99-8.27,3.99-8.27-.11,.02-.23,.03-.34,.03-.91,0-3.1-.52-3.61-1.19-.54,.6-2.77,1.19-3.68,1.19-.11,0-.23-.01-.34-.03,0,0-.38,4.91,3.98,8.27Z"/><path class="cls-3" d="M42.53,41.06c.7-1.1,1.18-2.32,1.42-3.6,.16-.81,.2-1.51,.18-2.03,0-.06,0-.11-.01-.17,0,0-.3,.05-.41,.05-1.1,0-3.11-.6-3.54-1.16l-.06-.07-.06,.07c-.48,.53-2.6,1.16-3.63,1.16-.11,0-.41-.05-.41-.05,0,0,0,.13-.01,.17-.02,.52,.02,1.22,.18,2.03,.24,1.28,.72,2.5,1.42,3.6,.62,.98,1.42,1.86,2.42,2.62h.09c.99-.76,1.79-1.65,2.42-2.62Zm-2.46,2.49c-.92-.75-1.81-1.74-2.33-2.57-.69-1.08-1.16-2.29-1.4-3.54-.15-.8-.2-1.49-.18-1.99,.08,.03,.15,.03,.27,.03,1.07,0,3.15-.57,3.67-1.16,.55,.59,2.51,1.16,3.62,1.16,.12,0,.27-.03,.27-.03,.02,.5-.02,1.19-.18,1.99-.24,1.26-.72,2.47-1.4,3.55-.61,.96-1.4,1.82-2.33,2.57Zm3.53-7.89c-1,0-2.82-.5-3.46-1.05l-.04-.03-.04,.03c-.69,.52-2.58,1.05-3.51,1.05-.03,0-.06,0-.1-.01h-.07v.06c0,.19,0,.37,.02,.56,.04,.65,.16,1.31,.33,1.96,.55,2,1.68,3.7,3.3,4.99l.04,.03,.04-.03c1.63-1.29,2.75-3,3.31-5,.18-.65,.29-1.31,.34-1.96,.01-.21,.02-.38,.02-.55v-.07s-.14,.01-.17,.01h0Z"/><path class="cls-2" d="M38.65,41.69c.42,.51,.89,.98,1.42,1.4,.49-.39,.93-.83,1.34-1.3v-6.42c-.54-.18-1.02-.4-1.31-.63-.31,.25-.85,.48-1.44,.66v6.3h0Z"/><g transform="translate(83.4 61)"><path class="cls-2" d="M42.11,33.54c.2,.04,.4,.07,.6,.08l.46,.03-.42-.19c-.5-.22-1.02-1.98-.96-3.36,.05-1.23-.13-1.94-.44-2.26-.27-.27-1.11-.52-1.74-.56-.18,0-.29,.06-.34,.17-.02,.05-.02,.05-.02,.05-.64-.15-1.16-.17-1.41,0-.14,.09-.23,.34-.26,.61-.01,.12,0,.22,.01,.29,.03,.11,.13,.17,.22,.09,.34-.27,.66-.12,.98,.34,.23,.33,.19,1.3-.13,2.36-.12,.41-.33,.84-.59,1.29-.22,.36-.46,.71-.72,1.05l-.11,.13h.17c.12,0,.25-.02,.4-.06,.16-.05,.32-.11,.47-.18,.11-.05,.28-.14,.28-.14l-.13,.55-.04,.17,.15-.07c.14-.07,.28-.15,.42-.23,.16-.1,.3-.21,.44-.32,.05-.04,.11-.09,.11-.09l.47,.5,.07,.07,.06-.08s.18-.21,.21-.24c.07-.07,.14-.14,.22-.21,.04-.04,.04-.04,.04-.04l.04,.03c.08,.07,.17,.13,.27,.19,.24,.15,.52,.25,.81,.28,.11,0,.12-.07,.11-.17-.01-.06-.03-.12-.05-.18,0-.02,.08,.03,.35,.08h0Z"/><path class="cls-3" d="M38.63,33.07c-.07,.04-.32,.18-.41,.22-.14,.07-.29,.13-.45,.17-.13,.04-.18,.04-.18,.04l.12-.15c.18-.25,.35-.5,.51-.77,.27-.46,.48-.91,.61-1.33,.27-.89,.35-1.71,.23-2.2,.01-.02,.03-.03,.05-.05,.09-.08,.46,0,.46,0-.5-.86-1.07-1.06-1.33-1.05-.23,.01-.38,.26-.44,.39-.02,.02-.04,.04-.06,.06,0,0-.01-.17,0-.27,.01-.13,.05-.26,.1-.38,.08-.05,.2-.1,.36-.11,.39-.03,.5,.03,.8,.27,.3,.24,.53,.35,.68,.33,.05,0,.07,.08,.12,.14,.04,.04,.03,.08,.17,.08,.09,0,.14-.17,.19-.22,.07-.06,.21-.08,.3-.1,.19-.05,.28-.04,.42-.06,.07,0,.3-.02,.47,.06,.2,.34,.31,.98,.27,1.97-.06,1.44,.4,2.96,.82,3.33-.1-.01-.21-.03-.31-.05-.23-.05-.4-.11-.48-.18h0c-.17-.25-.31-.68-.42-1.23-.07-.34-.12-.69-.15-1.04-.02-.16-.03-.31-.04-.47h-.17v.14c.02,.1,.03,.22,.04,.35,.04,.36,.09,.72,.15,1.05,.11,.57,.26,1.02,.44,1.29h0l.13,.34c-.24-.03-.47-.12-.67-.24-.09-.05-.17-.11-.25-.18-.02-.02-.05-.04-.07-.07-.05-.17-.09-.66-.11-1.35-.02-.48-.02-.97-.02-1.45h-.17c0,.15,0,.3,0,.45,0,.34,.01,.68,.02,1,.02,.68,.06,1.15,.11,1.37-.13,.12-.25,.24-.36,.37-.05,.06-.08,.09-.08,.09l-.43-.45c.13-.28,.24-.74,.33-1.33,.05-.35,.09-.72,.12-1.09,.01-.16,.03-.33,.03-.49h-.17v.13c-.04,.48-.09,.96-.16,1.43-.09,.61-.2,1.07-.33,1.32-.05,.04-.1,.09-.15,.13-.13,.1-.27,.21-.42,.3-.13,.09-.24,.14-.24,.14l.13-.53c.22-.25,.41-.72,.57-1.35,.13-.49,.23-1,.3-1.5l-.17-.02s0,.07-.02,.13c-.07,.46-.16,.91-.28,1.35-.16,.61-.34,1.07-.54,1.29Zm3.48,.47c.2,.04,.4,.07,.6,.08l.46,.03-.42-.19c-.5-.22-1.02-1.98-.96-3.36,.05-1.23-.13-1.94-.44-2.26-.27-.27-1.11-.52-1.74-.56-.18,0-.29,.06-.34,.17-.02,.05-.02,.05-.02,.05-.64-.15-1.16-.17-1.41,0-.14,.09-.23,.34-.26,.61-.01,.12,0,.22,.01,.29,.03,.11,.13,.17,.22,.09,.34-.27,.66-.12,.98,.34,.23,.33,.19,1.3-.13,2.36-.12,.41-.33,.84-.59,1.29-.22,.36-.46,.71-.72,1.05l-.11,.13h.17c.12,0,.25-.02,.4-.06,.16-.05,.32-.11,.47-.18,.11-.05,.28-.14,.28-.14l-.13,.55-.04,.17,.15-.07c.14-.07,.28-.15,.42-.23,.16-.1,.3-.21,.44-.32,.05-.04,.11-.09,.11-.09l.47,.5,.07,.07,.06-.08s.18-.21,.21-.24c.07-.07,.14-.14,.22-.21,.04-.04,.04-.04,.04-.04l.04,.03c.08,.07,.17,.13,.27,.19,.24,.15,.52,.25,.81,.28,.11,0,.12-.07,.11-.17-.01-.06-.03-.12-.05-.18,0-.02,.08,.03,.35,.08h0Z"/><circle class="cls-1" cx="39.91" cy="28.05" r=".16"/></g></g></g></svg>