<?xml version="1.0" encoding="UTF-8"?><svg id="Layer_2" xmlns="http://www.w3.org/2000/svg" viewBox="0 0 80 80"><defs><style>.cls-1,.cls-2{fill:#fff;}.cls-3{fill:#227fbb;}.cls-3,.cls-2{fill-rule:evenodd;}</style></defs><g id="Layer_1-2"><g><circle class="cls-1" cx="40" cy="40" r="40"/><path class="cls-3" d="M.24,44.44H79.76c.16-1.46,.24-2.94,.24-4.44s-.08-2.99-.24-4.44H40V0c-4.68,0-9.16,.8-13.33,2.28v15.5h13.33v8.89h-13.33v13.33h-8.89v-13.33H2.28c-1.47,4.17-2.28,8.66-2.28,13.33,0,1.48,.08,2.97,.24,4.44ZM40,17.78h33.26c1.85,2.77,3.35,5.75,4.46,8.89H40v-8.89Zm0-17.78c9.53,0,18.27,3.33,25.14,8.89h-25.14V0Zm33.26,62.22c1.85-2.77,3.35-5.75,4.46-8.89H2.28c1.11,3.14,2.61,6.12,4.46,8.89H73.26Zm-8.12,8.89c-6.87,5.56-15.62,8.89-25.14,8.89s-18.27-3.33-25.14-8.89h50.29ZM6.74,17.78c2.92-4.37,6.68-8.12,11.04-11.04v11.04H6.74Z"/><path class="cls-2" d="M17.78,26.67H2.28c1.11-3.14,2.61-6.12,4.46-8.89h11.04V6.74c2.77-1.85,5.75-3.35,8.89-4.46v15.5h13.33v8.89h-13.33v17.78h-8.89V26.67Z"/></g></g></svg>