<?xml version="1.0" encoding="UTF-8"?><svg id="Layer_2" xmlns="http://www.w3.org/2000/svg" viewBox="0 0 80 80"><defs><style>.cls-1{fill:#e94b35;}.cls-2{fill:#1fce6d;fill-rule:evenodd;}</style></defs><g id="Layer_1-2"><g><circle class="cls-1" cx="40" cy="40" r="40"/><path class="cls-2" d="M39.85,20l-4.78,15.44h-15.51l12.54,9.55-4.78,15.45c3.23-2.48,9.08-6.92,12.54-9.54l12.55,9.53-4.8-15.44,12.54-9.55h-15.5l-4.81-15.45Zm0,10.57l1.53,4.87h-3.04l1.51-4.87Zm-5.8,8.13l-.93,3.03-3.96-3.02h4.9Zm3.28-.01h5.06l1.57,5.04-4.1,3.12-4.1-3.12,1.57-5.04Zm8.34,0h4.89l-3.95,3.03-.94-3.03Zm-10.92,8.31l2.46,1.86-3.96,3.02,1.5-4.87h0Zm10.23,0l1.5,4.87-3.96-3.01h0l2.46-1.87Z"/></g></g></svg>