<?xml version="1.0" encoding="UTF-8"?><svg id="Layer_2" xmlns="http://www.w3.org/2000/svg" viewBox="0 0 80 80"><defs><style>.cls-1,.cls-2{fill:#346da6;}.cls-2,.cls-3,.cls-4,.cls-5,.cls-6,.cls-7,.cls-8,.cls-9,.cls-10,.cls-11,.cls-12{fill-rule:evenodd;}.cls-3{fill:#9c56b8;}.cls-4{fill:#058e6e;}.cls-5{fill:#227fbb;}.cls-6,.cls-12{fill:#ca4638;}.cls-7{fill:#c8a200;}.cls-8{fill:#f2c500;}.cls-9{fill:#fff;}.cls-10{fill:#f6cb7e;}.cls-11{fill:#e94b35;}.cls-12{stroke:#262626;stroke-width:.1px;}</style></defs><g id="Layer_1-2"><g><path class="cls-8" d="M74.65,60c3.4-5.88,5.35-12.71,5.35-20s-1.95-14.12-5.35-20H5.35C1.95,25.88,0,32.71,0,40s1.95,14.12,5.35,20H74.65Z"/><path class="cls-11" d="M74.65,60c-6.92,11.96-19.84,20-34.65,20S12.27,71.96,5.35,60H74.65Zm0-40C67.73,8.04,54.81,0,40,0S12.27,8.04,5.35,20H74.65Z"/><path class="cls-9" d="M17.31,56.03c-1.59-.78-2.65-2.36-2.65-4.16v-17.65h19.88v17.65c0,1.8-1.05,3.38-2.65,4.16-2.16,1.05-4.68,1.68-7.27,1.68s-5.16-.63-7.31-1.68Z"/><path class="cls-3" d="M30.72,37.12c.01,.13-.04,.25-.02,.32,.02,.07,.03,.13,.06,.18,.03,.05,.04,.19,.04,.19,0,0-.08-.05-.15-.11-.04-.03-.08-.06-.12-.09l.02,.21c0,.06,.04,.18,.1,.25,.06,.07,.17,.18,.21,.27,.04,.09,.03,.29,.03,.29,0,0-.09-.15-.17-.18-.08-.03-.25-.12-.25-.12,0,0,.16,.16,.16,.31s-.06,.32-.06,.32c0,0-.07-.14-.16-.23-.09-.09-.22-.18-.22-.18,0,0,.1,.23,.1,.39s-.03,.49-.03,.49c0,0-.08-.13-.16-.19-.08-.06-.17-.12-.2-.16-.03-.04,.09,.13,.11,.23,.01,.1,.06,.47,.38,.94,.18,.27,.47,.75,1.08,.59,.61-.16,.39-.99,.26-1.38-.13-.39-.19-.82-.19-.97,0-.15,.11-.59,.1-.68-.01-.08-.05-.4,.03-.65,.08-.27,.14-.37,.19-.48,.04-.11,.08-.17,.09-.27,.01-.1,.01-.27,.01-.27,0,0,.11,.21,.14,.29,.03,.08,.03,.3,.03,.3,0,0,.02-.22,.19-.33,.17-.11,.37-.23,.42-.29,.03-.03,.05-.07,.06-.1,0,0-.01,.38-.12,.53-.07,.1-.35,.42-.35,.42,0,0,.14-.06,.24-.06,.1,0,.17,0,.17,0,0,0-.12,.1-.28,.33s-.09,.25-.21,.44c-.12,.19-.21,.2-.35,.31-.21,.17-.1,.87-.07,.97,.03,.1,.4,.95,.41,1.16,0,.21,.04,.66-.31,.96-.23,.19-.61,.19-.69,.25-.09,.05-.26,.22-.26,.58s.13,.41,.23,.5c.1,.09,.23,.04,.26,.11,.03,.07,.04,.11,.09,.15,.04,.04,.07,.09,.06,.16-.01,.08-.18,.25-.24,.37-.06,.12-.17,.44-.17,.49s-.01,.2,.04,.27c0,0,.18,.21,.06,.25-.08,.03-.16-.05-.19-.04-.11,.03-.16,.1-.19,.09-.07-.01-.07-.05-.08-.15,0-.1,0-.14-.04-.14-.04,0-.06,.04-.07,.09,0,.05,0,.18-.06,.18s-.12-.09-.16-.11c-.04-.02-.16-.04-.17-.1,0-.05,.07-.17,.15-.19,.08-.02,.15-.06,.1-.1-.05-.04-.1-.04-.15,0-.05,.04-.16,0-.15-.06,0-.06,.02-.14,.01-.17,0-.03-.09-.1,.02-.16,.11-.06,.16,.06,.28,.03,.12-.02,.17-.06,.21-.13,.04-.07,.04-.21-.04-.3-.08-.09-.16-.1-.19-.16s-.07-.18-.07-.18c0,0,.02,.24,0,.27-.01,.03,0,.18,0,.18,0,0-.08-.09-.14-.16-.06-.07-.13-.27-.13-.27,0,0,0,.19,0,.27s.09,.14,.06,.17c-.03,.03-.16-.14-.2-.17-.04-.03-.15-.12-.2-.21-.05-.1-.09-.23-.1-.28-.01-.05-.04-.26-.01-.31,.04-.08,.09-.23,.09-.23h-.28c-.15,0-.26-.05-.31,.05-.06,.1-.03,.31,.04,.58,.07,.27,.11,.4,.09,.44-.02,.05-.11,.16-.15,.18-.04,.02-.14,.01-.18,0-.08-.04-.16-.06-.25-.06-.14,0-.22,0-.27,0-.05-.01-.17-.08-.23-.06-.06,.01-.16,.07-.13,.14,.04,.12-.04,.15-.1,.14-.06,0-.11-.03-.18-.05-.07-.02-.18,0-.16-.08,.01-.08,.04-.09,.08-.15,.04-.06,.05-.1,0-.11-.05,0-.1-.01-.14,.02-.04,.03-.1,.1-.15,.08-.05-.03-.09-.09-.09-.21s-.13-.24-.01-.23c.12,0,.28,.1,.31,.03,.03-.07,.01-.1-.06-.16-.07-.05-.15-.09-.06-.15,.09-.07,.11-.07,.15-.11,.03-.04,.08-.16,.14-.13,.12,.06,0,.14,.13,.28,.12,.14,.2,.19,.41,.17,.21-.02,.26-.05,.26-.11s-.02-.17-.02-.21c0-.04,.03-.2,.03-.2,0,0-.1,.06-.12,.12-.03,.06-.08,.16-.08,.16,0,0-.02-.12-.02-.22,0-.06,.02-.16,.02-.18,0-.05-.04-.19-.04-.19,0,0-.03,.14-.06,.19-.02,.04-.03,.21-.03,.21,0,0-.13-.12-.09-.31,.03-.15-.02-.35,.02-.41,.04-.06,.15-.33,.41-.34,.26,0,.46,.01,.55,0,.09,0,.41-.06,.41-.06,0,0-.59-.3-.72-.4-.13-.09-.34-.33-.41-.43-.07-.11-.13-.31-.13-.31,0,0-.11,0-.2,.06-.09,.05-.17,.12-.24,.2-.06,.06-.15,.21-.15,.21,0,0,.02-.19,.02-.25s-.01-.17-.01-.17c0,0-.07,.26-.2,.35-.13,.1-.29,.23-.29,.23,0,0,.02-.14,.02-.18s.03-.2,.03-.2c0,0-.09,.14-.24,.17-.14,.03-.36,.02-.37,.11-.02,.09,.04,.21,0,.28-.03,.06-.11,.11-.11,.11,0,0-.08-.07-.16-.07-.07,0-.14,.03-.14,.03,0,0-.06-.08-.04-.13,.02-.05,.13-.13,.11-.17-.03-.03-.12,.01-.17,.04-.06,.03-.17,.05-.16-.04,.01-.09,.04-.14,.01-.21-.03-.06-.01-.11,.03-.12,.04-.02,.22,0,.24-.04,.02-.04-.04-.1-.16-.12-.12-.03-.17-.1-.11-.16,.06-.06,.08-.07,.11-.13,.03-.05,.04-.15,.14-.1,.11,.05,.08,.16,.2,.2,.11,.04,.37-.02,.43-.05,.06-.03,.23-.17,.3-.2,.06-.03,.32-.22,.32-.22,0,0-.15-.11-.21-.16-.06-.05-.16-.18-.2-.21-.05-.03-.3-.12-.38-.13-.08,0-.34-.1-.34-.1,0,0,.12-.04,.16-.07s.13-.11,.17-.11c.04,0,.05,0,.05,0,0,0-.24-.01-.29-.03-.05-.02-.2-.11-.25-.11s-.17,.02-.17,.02c0,0,.15-.1,.27-.12,.12-.02,.22-.02,.22-.02,0,0-.19-.05-.23-.12-.04-.06-.09-.16-.12-.2-.03-.04-.06-.11-.12-.12-.06,0-.17,.08-.23,.07-.06,0-.11-.04-.11-.13,0-.09,0-.06-.02-.11-.02-.05-.11-.16-.03-.19,.08-.03,.26,.02,.28-.02,.02-.03-.09-.13-.17-.17-.07-.04-.19-.1-.13-.15,.06-.05,.12-.07,.16-.12,.03-.05,.07-.18,.15-.14,.07,.04,.17,.25,.23,.24,.06-.02,.06-.17,.05-.23-.01-.06,0-.18,.05-.17,.06,.01,.1,.08,.19,.09,.09,0,.22-.02,.21,.04-.01,.06-.06,.14-.12,.21-.06,.07-.09,.21-.05,.3,.04,.09,.14,.24,.23,.29,.09,.06,.26,.1,.36,.17,.11,.07,.35,.27,.44,.29,.08,.02,.17,.06,.17,.06,0,0,.09-.04,.22-.04s.42,.02,.54-.03c.11-.05,.26-.13,.21-.23-.04-.1-.29-.19-.27-.27,.02-.08,.11-.09,.26-.09,.15,0,.36,.03,.4-.19,.04-.21,.05-.34-.16-.38-.21-.05-.37-.05-.41-.21-.04-.15-.08-.19-.03-.24,.05-.04,.12-.06,.28-.07,.16-.01,.33-.01,.39-.05,.05-.04,.06-.14,.12-.18,.06-.04,.3-.08,.3-.08,0,0,.29,.14,.55,.34,.24,.18,.45,.45,.45,.45,0,0,0,.14,.02,.28h0Z"/><path class="cls-8" d="M30.32,35.97h-.06s-.03,.05-.06,.07c-.05,.04-.13,.05-.18,.01-.02-.02-.03-.04-.03-.07-.03,.02-.07,.01-.11,0-.05-.03-.07-.09-.03-.14,0-.01,.01-.02,.02-.03v-.06h-.08l-.02,.05s-.11,.06-.15,.03c-.01-.01-.02-.03-.03-.05-.01,0-.02,.02-.04,.02-.11,.02-.16-.19-.16-.24l-.04,.04s.03,.13,.02,.23c-.02,.11-.06,.21-.06,.21,.16,.03,.39,.14,.63,.29,.23,.15,.42,.32,.49,.43,0,0,.12-.06,.25-.09,.13-.03,.29-.04,.29-.04l.05-.04c-.07,0-.33,.02-.33-.08,0-.01,.01-.03,.02-.03-.02,0-.04,0-.06-.01-.04-.02-.04-.08,0-.12l.04-.02v-.06h-.07s-.02,.02-.03,.03c-.06,.04-.14,.04-.18,0-.03-.02-.04-.05-.02-.08-.03,0-.07,0-.09,0-.05-.03-.06-.09-.02-.14,.02-.02,.04-.04,.06-.06v-.05h-.02Z"/><path class="cls-4" d="M24.7,56.94s-.85-.42-1.04-.45c-.47-.09-.99-.02-1.22-.03,0,0,.27,.18,.39,.28,.12,.11,.51,.32,.73,.37,.47,.11,1.15,0,1.15,0l-.08,.56,.24-.11v-.56c.4-.26,1.27,.29,2.46-.46-1.75-.31-2.25,.36-2.49,.4v-.25h-.17l.04,.25Z"/><path class="cls-10" d="M25.23,55.12c.43,.12,.64,.42,.64,.77,0,.46-.47,.8-1.08,.8s-1.1-.35-1.1-.8c0-.35,.2-.73,.63-.76,0,0-.01-.04-.05-.1-.04-.04-.13-.13-.13-.13,0,0,.16-.03,.26,0,.09,.03,.16,.09,.16,.09,0,0,.04-.08,.11-.15,.06-.06,.14-.1,.14-.1,0,0,.09,.07,.12,.12,.03,.05,.05,.11,.05,.11,0,0,.09-.07,.16-.09,.07-.03,.17-.05,.17-.05,0,0-.03,.09-.05,.13-.02,.04-.03,.14-.03,.14"/><path class="cls-12" d="M14.67,45.38h9.94v-11.16H14.67v11.16Z"/><path class="cls-11" d="M19.65,56.73c-2.75,0-4.98-2.13-4.98-4.75v-17.76h9.94v11.02h9.95v6.74s0,4.75-4.93,4.75-5.02-4.75-5.02-4.75c0,2.62-2.21,4.75-4.96,4.75Z"/><path class="cls-8" d="M17.27,37.9v2.92h-.83v1.57h5.82v-1.57h-.8v-2.92h.52v-1.44h-.7l-.18,.15v.66h-.5l-.02-.68-.17-.14h-.55l-.14,.15v.69h-.57v-.7l-.19-.14h-.55l-.16,.11v.72h-.53v-.7l-.2-.13h-.64v1.45h.38Zm.51,1.09v-.81c0-.22,.13-.4,.36-.4s.36,.18,.36,.4v.81h-.73Zm2.46,0v-.81c0-.22,.13-.4,.36-.4s.36,.18,.36,.4v.81h-.73Zm-.02,2.71v-.96c0-.18-.08-.73-.87-.73-.74,0-.83,.55-.83,.73v.96h1.7Zm6.29,8.46s.03,.07,.03,.11c0,.13-.11,.23-.25,.23s-.25-.1-.25-.23c0-.04,0-.07,.03-.11h-.34s-.01,.07-.01,.11c0,.24,.17,.45,.4,.52v.85h.36v-.85c.17-.05,.3-.18,.36-.34h.97v-.29h-1.3Zm4.77,0v.29h-.87s-.04,.08-.06,.11l1.02,1.15-.27,.22-1.01-1.15s-.03,.01-.05,.02v1.91h-.36v-1.92s-.03-.01-.04-.02l-1.05,1.16-.27-.22,1.05-1.17s-.03-.06-.04-.1h-.9v-.29h2.87Zm.58,0v.29h.97c.06,.16,.19,.29,.36,.34v.85h.36v-.85c.23-.07,.4-.28,.4-.52,0-.04,0-.07-.01-.11h-.34s.03,.07,.03,.11c0,.13-.11,.23-.25,.23s-.25-.1-.25-.23c0-.04,0-.07,.03-.11h-1.3Zm-1.47,4.86c.28-.04,.55-.12,.8-.23l.18,.3c-.3,.13-.62,.22-.95,.27-.06,.25-.29,.43-.56,.43s-.51-.18-.56-.43c-.34-.05-.68-.14-1-.27l.18-.3c.27,.11,.56,.19,.86,.23,.06-.14,.18-.24,.33-.29v-1.48h.36v1.47c.16,.05,.3,.16,.36,.3h0Zm-2.43-.5l-.18,.3c-.3-.19-.57-.42-.8-.68-.19,.06-.39,.02-.55-.11-.23-.18-.27-.51-.09-.74,0-.01,.02-.02,.03-.03l.03-.03c-.15-.33-.24-.69-.28-1.06h.36c.03,.32,.11,.62,.23,.9,.1-.01,.21,0,.31,.03l.9-1,.27,.22-.9,1c.12,.18,.12,.42-.02,.6,.2,.22,.43,.42,.68,.58h0Zm-1.34-1.05c.09-.1,.24-.11,.35-.03,.1,.08,.12,.22,.04,.32h-.01c-.09,.11-.24,.12-.35,.04-.1-.08-.12-.22-.04-.32h.01Zm-.46-1l-.37-.08-.05-.94,.37-.12v.54c0,.21,.02,.41,.06,.61Zm.31-1.17l.37,.09s.02,.6,.01,.47c0-.16,.04,.47,.04,.47l-.37,.12c-.04-.19-.05-.39-.05-.59v-.56h0Zm1.22,3.01c.31,.24,.67,.44,1.06,.56l.08-.36c-.32-.1-.61-.25-.88-.44l-.27,.23Zm-.18,.31c.32,.24,.68,.43,1.06,.56l-.28,.26c-.31-.11-.6-.26-.87-.45l.08-.37Zm.48-2.07l.35,.15,.65-.72-.21-.3-.79,.87Zm-.27-.22l-.21-.31,.65-.72,.35,.15-.79,.87h0Zm3.98,2.18l.18,.3c.3-.19,.57-.42,.8-.68,.18,.05,.39,.02,.55-.11,.23-.18,.27-.51,.09-.74l-.03-.03-.03-.03c.15-.33,.25-.68,.28-1.06h-.36c-.03,.31-.11,.62-.23,.9-.1-.01-.21,0-.31,.03l-.9-1-.27,.22,.9,1c-.12,.18-.12,.42,.02,.6-.2,.22-.43,.42-.68,.58Zm1.34-1.05c-.09-.1-.24-.11-.35-.03-.1,.08-.12,.22-.04,.32h.01c.09,.11,.24,.12,.35,.04,.1-.08,.11-.22,.04-.32h-.01Zm.46-1l.37-.08,.05-.94-.37-.12v.54c0,.21-.02,.41-.06,.61Zm-.31-1.17l-.37,.09s-.02,.6-.01,.47c.01-.16-.04,.47-.04,.47l.37,.12c.04-.19,.05-.39,.05-.59v-.56h0Zm-1.22,3.01c-.32,.25-.68,.44-1.06,.56l-.08-.36c.32-.1,.61-.25,.88-.44l.27,.23Zm.18,.31c-.32,.24-.68,.43-1.06,.56l.28,.26c.31-.11,.6-.26,.87-.45l-.08-.37Zm-.48-2.07l-.35,.15-.65-.72,.21-.3,.79,.87Zm.27-.22l.21-.31-.65-.72-.35,.15,.79,.87Zm-4.42-1.9l.11,.35h1l.11-.35h-1.21Zm4.65,0l-.11,.35h-.99l-.11-.35h1.21Zm-2.56,4.8c0-.13,.11-.23,.25-.23,.13,0,.24,.1,.25,.23h0c0,.13-.11,.23-.25,.23s-.25-.1-.25-.23Zm.42-1.7l.37-.1v-.94l-.37-.1v1.15Zm-.36,0l-.37-.1v-.94l.37-.1v1.15Z"/><path class="cls-8" d="M25.71,50.17c.04-.2,.2-.36,.39-.42v-1.16h.36v1.17c.18,.06,.31,.19,.37,.35h.97v.05h-1.3c-.07-.12-.23-.16-.35-.09-.04,.02-.07,.05-.09,.09h-.34Zm2.68,0v-.05h.9s.02-.06,.04-.08l-1.11-1.23,.27-.22,1.09,1.21s.04-.02,.06-.02v-1.62h.36v1.61s.04,0,.06,.01l1.07-1.22,.27,.22-1.07,1.21s.05,.09,.06,.13h.87v.05h-2.87Zm4.75,0c.05-.08,.13-.13,.22-.12,.1,0,.18,.05,.22,.13h.34c-.05-.2-.2-.36-.39-.42v-1.16h-.36v1.17c-.17,.05-.31,.18-.37,.35h-.97v.05h1.3Zm-6.63-3.28l1.33,1.49,.27-.22-1.34-1.49s.05-.08,.06-.13h.97v-.34h-.97c-.07-.22-.29-.38-.55-.38-.32,0-.58,.25-.58,.55,0,.24,.16,.44,.39,.52v1.15h.36v-1.14s.04,0,.06-.01h0Zm7.02,0v1.15h-.36v-1.15s-.05-.02-.08-.03l-1.32,1.49-.27-.22,1.35-1.52s-.02-.04-.03-.07h-.98v-.34h.98c.08-.22,.29-.38,.55-.38,.32,0,.58,.25,.58,.55,0,.25-.17,.45-.4,.52h0Zm-3.53,0v.71h-.36v-.7c-.17-.05-.32-.18-.38-.35h-.87v-.34h.87c.08-.22,.29-.38,.55-.38s.47,.16,.55,.38h.89v.34h-.89c-.06,.17-.19,.29-.36,.35Zm-3.9,.86l-.37,.1v.94l.37,.1v-1.15Zm.36,0l.37,.1v.94l-.37,.1v-1.15Zm6.71,0l-.37,.1v.94l.37,.1v-1.15h0Zm.36,0l.37,.1v.94l-.37,.1v-1.15Zm-5.62,.19l.35-.15,.65,.72-.21,.31-.79-.87h0Zm-.27,.22l-.21,.31,.65,.72,.35-.15-.79-.87h0Zm4.06-.25l-.35-.15-.64,.72,.21,.3,.78-.88Zm.28,.22l.21,.3-.64,.72-.35-.15,.78-.88h0Zm-4.47,1.99l.11-.35h1l.11,.35h-1.21Zm-1.46-3.74c0-.13,.11-.23,.25-.23s.25,.11,.25,.23c0,.13-.11,.24-.25,.23-.14,0-.25-.1-.25-.23h0Zm2.66,.17l-.11,.35h-.99l-.11-.35h1.21Zm0-.34l-.11-.35h-.99l-.11,.35h1.21Zm3.45,3.91l-.11-.35h-.99l-.11,.35h1.21Zm.97-3.74c0-.13,.11-.23,.25-.23s.25,.11,.25,.23c0,.13-.11,.24-.25,.23h0c-.14,0-.25-.1-.25-.23h0Zm-3.55,0c0-.13,.11-.23,.25-.23s.25,.11,.25,.23c0,.13-.11,.24-.25,.23h0c-.14,0-.25-.1-.25-.23h0Zm1.38,.17l.11,.35h.99l.11-.35h-1.21Zm0-.34l.11-.35h.99l.11,.35h-1.21Zm-1.3,1.1l-.37,.1v.94l.37,.1v-1.15Zm.36,0l.37,.1v.94l-.37,.1v-1.15Z"/><path class="cls-4" d="M29.27,50.28c0-.3,.26-.55,.58-.55s.58,.24,.58,.55-.26,.55-.58,.55-.58-.24-.58-.55"/><path class="cls-7" d="M16.76,55.86c.32,.16,.75,.43,1.21,.54l-.03-11.16h-1.18v10.62Zm3.43,.84v-11.46h-1.21v11.46c.47,.05,.83,.04,1.21,0Zm1.01-.3c.46-.09,.98-.37,1.21-.52v-10.64h-1.18l-.03,11.16Zm2.25-1.46c.5-.43,.98-1.4,1.15-2.52l.03-7.19h-1.21l.03,9.7Zm-7.62,0c-.5-.43-.98-1.4-1.15-2.52l-.03-7.19h1.21l-.03,9.7Z"/><path class="cls-11" d="M24.48,41.78c1.74,0,3.15,1.63,3.15,3.64s-1.41,3.64-3.15,3.64-3.15-1.63-3.15-3.64,1.41-3.64,3.15-3.64Z"/><path class="cls-2" d="M24.53,42.67c1.27,0,2.3,1.19,2.3,2.67s-1.03,2.67-2.3,2.67-2.3-1.2-2.3-2.67,1.03-2.67,2.3-2.67Z"/><path class="cls-8" d="M23.52,43.56s-.27,.31-.27,.61,.11,.54,.11,.54c-.04-.12-.15-.2-.28-.2-.16,0-.29,.13-.29,.3,0,.05,.03,.12,.05,.16l.1,.21c.03-.08,.11-.12,.19-.12,.12,0,.21,.1,.21,.21,0,.02,0,.04,0,.05h-.24v.22h.21l-.16,.34,.21-.09,.16,.19,.16-.19,.21,.09-.16-.34h.21v-.22h-.24s0-.04,0-.05c0-.12,.09-.21,.21-.21,.09,0,.16,.04,.19,.12l.1-.21s.05-.12,.05-.16c0-.16-.13-.3-.29-.3h0c-.13,0-.24,.08-.28,.2,0,0,.11-.24,.11-.54s-.27-.61-.27-.61h0Zm2.22,0s-.27,.31-.27,.61,.11,.54,.11,.54c-.04-.12-.15-.2-.28-.2-.16,0-.29,.13-.29,.3,0,.05,.03,.12,.05,.16l.09,.21c.03-.08,.11-.12,.19-.12,.12,0,.21,.1,.21,.21,0,.02,0,.04,0,.05h-.24v.22h.21l-.16,.34,.21-.09,.16,.19,.16-.19,.21,.09-.16-.34h.21v-.22h-.24s0-.04,0-.05c0-.12,.09-.21,.21-.21,.09,0,.16,.04,.19,.12l.1-.21s.05-.12,.05-.16c0-.16-.13-.3-.29-.3h0c-.13,0-.24,.08-.28,.2,0,0,.11-.24,.11-.54s-.27-.61-.27-.61h0Zm-1.33,1.78s-.27,.31-.27,.61,.11,.54,.11,.54c-.04-.12-.15-.2-.28-.2-.16,0-.29,.13-.29,.3,0,.05,.03,.12,.05,.16l.1,.21c.03-.08,.11-.12,.19-.12,.12,0,.21,.1,.21,.21,0,.02,0,.04,0,.05h-.24v.22h.21l-.16,.34,.21-.09,.16,.19,.16-.19,.21,.09-.16-.34h.21v-.22h-.24s0-.04,0-.05c0-.12,.09-.22,.21-.22,.09,0,.16,.04,.19,.12l.1-.21s.05-.12,.05-.16c0-.16-.13-.3-.29-.3h0c-.13,0-.24,.08-.28,.2,0,0,.11-.24,.11-.54s-.27-.61-.27-.61h0Z"/><path class="cls-7" d="M36.54,35.44s.16,.26,.16,.5-.16,.47-.16,.47h3.45s-.3-.2-.3-.47,.3-.5,.3-.5h.37v-1.21h-4.36v1.21h.54Zm0,20.24s.16-.26,.16-.5-.16-.47-.16-.47h3.45s-.3,.2-.3,.47,.3,.5,.3,.5h.37v1.21h-4.36v-1.21h.54Z"/><path class="cls-9" d="M36.44,36.44h3.56v18.22h-3.56v-18.22Z"/><path class="cls-5" d="M40.41,56.59c-.2-.09-.46-.15-.75-.15s-.56,.06-.76,.15c-.2,.09-.47,.15-.76,.15s-.57-.06-.76-.16c-.19-.09-.45-.14-.74-.14s-.56,.05-.75,.14c-.2,.1-.47,.16-.77,.16v2.21c.3,0,.57-.06,.77-.16,.2-.09,.46-.14,.75-.14s.54,.05,.74,.14c.2,.1,.46,.16,.76,.16s.57-.06,.76-.15c.2-.09,.47-.15,.76-.15s.56,.06,.75,.15c.2,.1,.46,.15,.76,.15v-2.21c-.3,0-.56-.06-.76-.15h0Z"/><path class="cls-9" d="M41.17,58.08c-.3,0-.57-.06-.76-.15-.2-.09-.46-.15-.75-.15s-.56,.06-.76,.15c-.2,.09-.47,.15-.76,.15s-.57-.06-.76-.16c-.19-.09-.45-.14-.74-.14s-.56,.05-.75,.14c-.2,.09-.47,.16-.77,.16v.43c.3,0,.57-.06,.77-.16,.2-.09,.46-.14,.75-.14s.54,.05,.74,.14c.2,.1,.46,.16,.76,.16s.57-.06,.76-.15c.2-.09,.47-.15,.76-.15s.56,.06,.75,.15c.2,.1,.46,.15,.76,.15v-.43"/><path class="cls-11" d="M37.9,42.67c.47,0,.99,.05,1.53,.13,.7,.11,1.34,.29,1.86,.49l-1.32,.4,.09,1.5s.88-.01,1.57-.21c.61-.18,1.08-.47,1.07-.42,0,.01,.68-1.61,.69-1.67,.13-.68-1.48-1.51-3.6-1.85-.62-.1-1.25-.15-1.87-.15-1.35,0-2.63,.13-3.34,.39v1.89c.69-.28,1.97-.45,3.33-.49h0Zm3.1,4.35c-.55-.2-1.01-.4-1.57-.65-1.68-.74-2.97-1.9-2.97-1.9v1.56c-.15,.28,.98,1.12,2.52,1.86,.49,.24,1.54,.62,2.03,.79,.4,.14,1.23,.54,1.23,.54,0,0-1.11,.61-.08,1.79,.08-.7,.85-.99,.82-.92v-1.88c.08-.25-.77-.75-1.98-1.19Z"/><path class="cls-9" d="M41.17,57.19c-.3,0-.57-.06-.76-.15-.2-.09-.46-.15-.75-.15s-.56,.06-.76,.15c-.2,.09-.47,.15-.76,.15s-.57-.06-.76-.16c-.19-.09-.45-.14-.74-.14s-.56,.05-.75,.14c-.2,.09-.47,.16-.77,.16v.43c.3,0,.57-.06,.77-.16,.2-.09,.46-.14,.75-.14s.54,.05,.74,.14c.2,.1,.46,.16,.76,.16s.57-.06,.76-.15c.2-.09,.47-.15,.76-.15s.56,.06,.75,.15c.2,.1,.46,.15,.76,.15v-.43"/><path class="cls-6" d="M36.89,33.32c-.05-.04-.2-.21-.2-.21l-.12-.11-.11-.19s-.13-.26-.07-.46c.06-.2,.16-.27,.25-.33,.09-.06,.28-.13,.28-.13,0,0,.15-.08,.2-.09,.05-.01,.23-.07,.23-.07,0,0,.05-.03,.1-.06,.05-.02,.12-.02,.16-.04,.04-.01,.14-.05,.2-.06,.09,0,.24,.02,.29,.02s.22,.01,.29,.01,.32-.02,.39-.02,.12-.01,.2,0c.08,.01,.22,.07,.26,.09,.04,.02,.28,.13,.37,.16,.09,.03,.31,.08,.42,.14,.1,.06,.16,.16,.21,.24,.05,.08,.06,.17,.08,.23,.02,.06,.02,.19,0,.24-.02,.06-.09,.18-.09,.18l-.11,.22-.14,.14s-.1,.12-.18,.11c-.08-.01-.18,.26-1.42,.26s-1.43-.26-1.43-.26c0,0-.04,0-.09-.04h0Z"/><path class="cls-7" d="M37.32,32.54l-.05-.3c-.27-.34-.52-.56-.6-.52,.02-.06,.04-.11,.1-.14,.24-.14,.73,.19,1.1,.73,.03,.05,.07,.1,.09,.15h.27s-.21-.5-.1-.74c.04-.08,.17-.07,.17-.07v-.27h-.16v-.09h.16v-.17h.11v.17h.15v.09h-.15s0,.23,0,.27c.02,0,.15,0,.18,.07,.09,.15-.09,.74-.09,.74h.26s.06-.1,.09-.15c.37-.54,.86-.87,1.1-.73,.05,.03,.08,.08,.1,.14-.08-.05-.33,.18-.6,.52l-.04,.22,.04,.07s-.02,.05-.02,.07c0,.09,.1,.16,.21,.16,.07,0,.13-.02,.18-.07l.04-.05v.06c0,.06,.03,.11,.1,.12,0,0,.08,0,.18-.06,.1-.06,.16-.12,.16-.12v.07s-.1,.13-.19,.18c-.05,.02-.19,.46-.25,.45,0,0-.7-.17-1.49-.17-.75,0-1.46,.2-1.49,.21-.06,0-.2-.46-.25-.48-.09-.04-.2-.18-.2-.18v-.07s.07,.05,.18,.12c.1,.07,.18,.06,.18,.06,.07,0,.1-.06,.1-.12v-.06l.04,.05s.11,.07,.18,.07c.11,0,.2-.06,.21-.14l-.02-.09Zm-27.88,2.89s.16,.26,.16,.5-.16,.47-.16,.47h3.45s-.3-.2-.3-.47,.3-.5,.3-.5h.37v-1.21h-4.36v1.21h.54Zm0,20.24s.16-.26,.16-.5-.16-.47-.16-.47h3.45s-.3,.2-.3,.47,.3,.5,.3,.5h.37v1.21h-4.36v-1.21h.54Z"/><path class="cls-9" d="M9.33,36.44h3.56v18.22h-3.56v-18.22Z"/><path class="cls-5" d="M13.3,56.59c-.2-.09-.46-.15-.75-.15s-.56,.06-.76,.15c-.2,.09-.47,.15-.76,.15s-.57-.06-.76-.16c-.19-.09-.45-.14-.74-.14s-.56,.05-.75,.14c-.2,.1-.47,.16-.77,.16v2.21c.3,0,.57-.06,.77-.16,.2-.09,.46-.14,.75-.14s.54,.05,.74,.14c.2,.1,.46,.16,.76,.16s.57-.06,.76-.15c.2-.09,.47-.15,.76-.15s.56,.06,.75,.15c.2,.1,.46,.15,.76,.15v-2.21c-.3,0-.56-.06-.76-.15h0Z"/><path class="cls-9" d="M14.06,58.08c-.3,0-.57-.06-.76-.15-.2-.09-.46-.15-.75-.15s-.56,.06-.76,.15c-.2,.09-.47,.15-.76,.15s-.57-.06-.76-.16c-.19-.09-.45-.14-.74-.14s-.56,.05-.75,.14c-.2,.09-.47,.16-.77,.16v.43c.3,0,.57-.06,.77-.16,.2-.09,.46-.14,.75-.14s.54,.05,.74,.14c.2,.1,.46,.16,.76,.16s.57-.06,.76-.15c.2-.09,.47-.15,.76-.15s.56,.06,.75,.15c.2,.1,.46,.15,.76,.15v-.43"/><path class="cls-11" d="M11.43,42.67c-.51,0-1.02,.05-1.53,.13-.7,.11-1.34,.29-1.86,.49l1.32,.4-.09,1.5s-.88-.01-1.57-.21c-.61-.18-1.08-.47-1.07-.42,0,.01-.68-1.61-.7-1.67-.13-.68,1.48-1.51,3.6-1.85,.62-.1,1.25-.15,1.87-.15,1.35,0,2.63,.13,3.34,.39v1.89c-.69-.28-1.97-.45-3.33-.49h0Zm-3.1,4.35c.55-.2,1.01-.4,1.57-.65,1.68-.74,2.97-1.9,2.97-1.9v1.56c.15,.28-.98,1.12-2.52,1.86-.49,.24-1.54,.62-2.03,.79-.4,.14-1.23,.54-1.23,.54,0,0,1.11,.61,.08,1.79-.08-.7-.85-.99-.82-.92v-1.88c-.08-.25,.77-.75,1.98-1.19Z"/><path class="cls-9" d="M14.06,57.19c-.3,0-.57-.06-.76-.15-.2-.09-.46-.15-.75-.15s-.56,.06-.76,.15c-.2,.09-.47,.15-.76,.15s-.57-.06-.76-.16c-.19-.09-.45-.14-.74-.14s-.56,.05-.75,.14c-.2,.09-.47,.16-.77,.16v.43c.3,0,.57-.06,.77-.16,.2-.09,.46-.14,.75-.14s.54,.05,.74,.14c.2,.1,.46,.16,.76,.16s.57-.06,.76-.15c.2-.09,.47-.15,.76-.15s.56,.06,.75,.15c.2,.1,.46,.15,.76,.15v-.43"/><path class="cls-6" d="M9.56,33.32c-.05-.04-.2-.21-.2-.21l-.12-.11-.11-.19s-.13-.26-.07-.46c.06-.2,.16-.27,.25-.33,.09-.06,.28-.13,.28-.13,0,0,.15-.08,.2-.09,.05-.01,.23-.07,.23-.07,0,0,.05-.03,.1-.06,.05-.02,.12-.02,.16-.04,.04-.01,.14-.05,.2-.06,.09,0,.24,.02,.29,.02s.22,.01,.29,.01,.32-.02,.39-.02,.12-.01,.2,0c.08,.01,.22,.07,.26,.09,.04,.02,.28,.13,.37,.16,.09,.03,.31,.08,.42,.14,.1,.06,.16,.16,.21,.24,.05,.08,.06,.17,.08,.23,.02,.06,.02,.19,0,.24-.03,.06-.06,.12-.09,.18l-.11,.22-.14,.14s-.1,.12-.18,.11c-.08-.01-.18,.26-1.42,.26s-1.43-.26-1.43-.26c0,0-.04,0-.09-.04Z"/><path class="cls-7" d="M9.98,32.54l-.05-.3c-.27-.34-.52-.56-.6-.52,.02-.06,.04-.11,.1-.14,.24-.14,.73,.19,1.1,.73,.03,.05,.07,.1,.09,.15h.27s-.21-.5-.1-.74c.04-.08,.17-.07,.17-.07v-.27h-.16v-.09h.16v-.17h.11v.17h.15v.09h-.15s0,.23,0,.27c.02,0,.15,0,.18,.07,.09,.15-.09,.74-.09,.74h.26s.06-.1,.09-.15c.37-.54,.86-.87,1.1-.73,.05,.03,.08,.08,.1,.14-.08-.05-.33,.18-.6,.52l-.04,.22,.04,.07s-.02,.05-.02,.07c0,.09,.1,.16,.21,.16,.07,0,.13-.02,.18-.07l.04-.05v.06c0,.06,.03,.11,.1,.12,0,0,.08,0,.18-.06,.1-.06,.16-.12,.16-.12v.07s-.1,.13-.19,.18c-.05,.02-.19,.46-.25,.45,0,0-.7-.17-1.49-.17-.75,0-1.46,.2-1.49,.21-.06,0-.2-.46-.25-.48-.09-.04-.2-.18-.2-.18v-.07s.07,.05,.18,.12c.1,.07,.18,.06,.18,.06,.07,0,.1-.06,.1-.12v-.06l.04,.05s.11,.07,.18,.07c.11,0,.2-.06,.21-.14l-.02-.09Z"/><g transform="translate(34 46)"><path class="cls-11" d="M28.12,25.83c.43,.19,1.02,.34,1.65,.42,.49,.06,.95,.08,1.35,.05,.54-.01,1.31,.15,2.09,.49,.64,.28,1.18,.63,1.53,.96l-.31,.27-.09,.78-.85,.96-.42,.36-1,.8-.51,.04-.16,.44s1.8,2.31-6.28,2.17c-8.08-.14-6.68-2.17-6.68-2.17l-.16-.44-.51-.04-1-.8-.42-.36-.85-.96-.09-.78-.31-.27c.36-.33,.89-.68,1.53-.96,.78-.34,1.55-.5,2.09-.49,.4,.03,.86,.02,1.35-.05,.64-.08,1.22-.23,1.65-.42,.76-.3,1.86-.49,3.16-.49s2.47,.19,3.23,.49h0Z"/><circle class="cls-1" cx="24.67" cy="22" r="1.11"/><path class="cls-7" d="M20,27.39c-.04,.13-.05,.27-.04,.41,0,0-.04-.04-.18-.07-.14-.03-.23,.01-.23,.01,0,0,.1,.18,.14,.25,.04,.06,.12,.27,.23,.44,.03,.04,.05,.08,.08,.11-.04-.01-.08-.03-.12-.04-.15-.04-.42-.04-.5-.04h-.24s.01,.03,.06,.11c.06,.09,.1,.15,.1,.15-.27,.06-.5,.23-.64,.43,.21,.14,.49,.23,.76,.2,0,0-.02,.07-.04,.18-.01,.09-.01,.13-.01,.13l.23-.08c.08-.03,.33-.11,.45-.2,.06-.04,.12-.07,.18-.1,.06,.12,.09,.25,.09,.39,0,.47-.42,.85-.93,.85-.32,0-.61-.15-.78-.38l-.2-.24v.3c0,.3-.13,.56-.43,.61,0,0-.34,.02-.8-.33-.14-.11-.26-.21-.37-.3,.03,0,.06,0,.07,.02,.08,.02,.22,.04,.34,.04,.16,.01,.44-.03,.52-.04l.25-.04s-.02-.03-.09-.1c-.08-.08-.16-.15-.16-.15,.24-.09,.41-.26,.51-.45-.24-.09-.49-.12-.74-.09,0,0,0-.06,0-.16,0-.04,0-.08-.01-.12,0,0-.14,.09-.27,.15-.13,.06-.38,.2-.48,.32-.1,.13-.16,.31-.16,.31,0,0,.13-.44,.01-.74-.12-.3-.38-.35-.38-.35l-.04,.21c-.07-.09-.17-.15-.27-.18l.54-.98c-.34-.29-.54-.72-.54-1.17,0-.23,.05-.45,.14-.65,.34-.77,1.52-1.34,2.92-1.34,.27,0,.53,.02,.78,.06-.11,.2-.18,.42-.19,.65,0,.06,0,.12,0,.18,0,.56,.25,1.06,.65,1.41l-.02,.03h-.01c-.06,.07-.1,.16-.14,.25l-.05,.08,.02,.02h0Zm.45-.1c.09,.12,.16,.25,.2,.39,0,0,.03-.06,.14-.13,.12-.07,.22-.07,.22-.07,0,0-.03,.21-.05,.28-.02,.07-.02,.3-.06,.5-.01,.04-.02,.09-.04,.13,.14-.08,.34-.14,.41-.17,.08-.03,.23-.08,.23-.08,0,0,0,.04-.01,.13-.02,.11-.04,.18-.04,.18,.27-.03,.55,.06,.76,.21-.14,.2-.37,.37-.64,.43,.04,.1,.1,.19,.16,.27h-.24c-.08,0-.35,0-.5-.05-.09-.03-.19-.06-.28-.1h0s0,.08,0,.11c0,.49,.44,.89,.98,.89,.48,0,.91-.3,.97-.76,.01,0,.01-.34,.04-.34,.04,0,.12,.33,.13,.32,.13,.36,.5,.62,.93,.62,.54,0,.98-.4,.98-.89,0-.11,0-.22-.05-.31h.03l-.06-.21c-.16,.04-.32,.08-.29,.12,0,0-.17,.12-.36,.2-.14,.06-.41,.11-.49,.12l-.24,.04s0-.04,.04-.12c.04-.1,.07-.17,.07-.17-.27-.02-.52-.13-.72-.32,.18-.17,.44-.3,.72-.32,0,0-.04-.07-.07-.17-.02-.04-.03-.08-.04-.12l.24,.04c.08,.01,.35,.06,.49,.12,.19,.08,.36,.2,.36,.2-.03,.03,.08,.06,.21,.1-.03-.08-.05-.12-.07-.1,0,0-.13-.15-.22-.34-.09-.19-.14-.41-.17-.49-.03-.07-.12-.27-.12-.27,0,0,.12-.02,.26,.03,.15,.05,.19,.1,.19,.1,0-.03,0-.06,.01-.09l-.91-.84c.15-.37,.25-.99,.26-1.68,0-.04,0-.08,0-.12,0-.03,0-.07,0-.1,0-.12,0-.23,.01-.34-.41-.21-.92-.33-1.48-.33-1.34,0-2.39,.72-2.43,1.6,0,.06-.01,.12-.01,.18,0,.55,.31,1.04,.76,1.32l-.23,.37Zm3.42-3.5c0-.07,.02-.15,.03-.22,.07-.31,.39-.54,.75-.54s.66,.23,.74,.54c.02,.1,.03,.2,.04,.31,.47-.25,1.06-.4,1.7-.4,1.03,0,1.91,.4,2.4,.98,.31-.06,.64-.09,.99-.09,1.54,0,2.83,.64,3.24,1.53,.12,.25,.18,.52,.18,.8,0,.45-.16,.89-.46,1.23l.52,.99h.03c.33,0,.58,.25,.58,.56,0,0-.43-.03-.68,.1-.25,.13-.47,.54-.47,.54,0,0-.03,0-.06,.03v.07s-.37,.57-.78,.8c-.22,.13-.57,.26-.84,.22-.29-.04-.49-.27-.6-.53-.22,.12-.46,.19-.71,.18-.56,0-1.06-.3-1.26-.74-.27,.28-.64,.44-1.03,.43-.45,0-.85-.19-1.11-.49-.27,.23-.61,.36-.97,.36-.49,0-.93-.23-1.18-.59-.25,.35-.69,.59-1.18,.59-.36,0-.7-.12-.97-.36-.25,.3-.66,.49-1.11,.49-.42,0-.78-.16-1.03-.43-.2,.44-.7,.74-1.26,.74-.25,0-.49-.06-.71-.18-.11,.26-.31,.48-.6,.53-.27,.04-.61-.09-.84-.22-.41-.23-.79-.8-.79-.8v-.02c-.09-.09-.18-.18-.19-.17,0,0-.21-.41-.47-.54-.25-.14-.68-.1-.68-.1,0-.25,.16-.46,.4-.53l.51-.91c-.3-.34-.46-.78-.46-1.23,0-.28,.06-.56,.18-.8,.41-.88,1.7-1.53,3.24-1.53,.34,0,.68,.03,.99,.09,.48-.58,1.37-.98,2.4-.98,.56,0,1.08,.11,1.51,.31Zm1.26,3.16c.06,.12,.1,.24,.11,.37,0,0,.04-.05,.19-.1,.15-.05,.26-.03,.26-.03,0,0-.08,.2-.11,.27s-.08,.29-.17,.49c-.09,.19-.22,.34-.22,.34-.02-.02-.03,.02-.04,.08,.12-.03,.2-.06,.18-.08,0,0,.17-.12,.36-.2,.14-.06,.41-.11,.49-.12l.24-.04s0,.04-.04,.12c-.04,.1-.07,.17-.07,.17,.28,.02,.54,.15,.72,.32-.2,.18-.45,.3-.72,.32,0,0,.04,.06,.07,.17,.03,.08,.04,.12,.04,.12l-.24-.04c-.08-.02-.35-.06-.49-.12-.13-.06-.25-.12-.36-.2,.02-.03-.08-.06-.21-.09v.16h.06c-.04,.11-.05,.21-.05,.33,0,.49,.44,.89,.98,.89,.43,0,.8-.26,.93-.62,.01,0,.09-.32,.13-.32,.03,0,.03,.35,.04,.34,.06,.45,.49,.76,.97,.76,.54,0,.98-.4,.98-.89,0-.04,0-.07,0-.11l.15-.14v-.12c-.1-.02-.16-.04-.14-.01,0,0-.19,.09-.39,.14-.15,.04-.42,.04-.5,.04h-.24s.01-.03,.06-.11c.06-.1,.1-.15,.1-.15-.26-.06-.48-.22-.64-.43,.21-.14,.49-.23,.76-.21,0,0-.02-.07-.04-.18-.01-.09-.01-.13-.01-.13,0,0,.15,.06,.22,.08,.08,.03,.33,.11,.46,.2,.14,.09,.26,.21,.3,.25-.05-.11-.09-.22-.12-.34-.05-.2-.05-.42-.06-.5-.02-.07-.05-.28-.05-.28,0,0,.03,0,.07,0l-.26-.43c.45-.28,.76-.76,.76-1.32,0-.06,0-.12-.01-.18-.04-.88-1.1-1.6-2.43-1.6-.65,0-1.24,.17-1.67,.44,0,.08,0,.15,0,.23,0,.03,0,.07,0,.1,0,.04,0,.08,0,.12,.01,.69,.11,1.31,.26,1.68l-.6,.56Zm4.33,.35c.09-.17,.23-.32,.38-.42,.15,.21,.24,.5,.21,.77,0,0,.04-.04,.18-.07,.14-.03,.23,.01,.23,.01,0,0-.1,.18-.15,.25-.04,.06-.12,.27-.23,.44-.11,.17-.24,.3-.24,.3,0-.01-.02,0-.03,.01,.04,0,.07-.01,.06-.03,0,0,.19-.09,.39-.14,.15-.04,.42-.04,.5-.04h.24s-.01,.03-.06,.11c-.06,.1-.1,.15-.1,.15,.27,.06,.5,.23,.64,.44-.22,.15-.49,.22-.76,.2,0,0,.02,.07,.04,.18,.01,.09,.01,.13,.01,.13l-.22-.08c-.08-.03-.33-.11-.46-.2-.17-.11-.31-.26-.31-.26,.03-.02-.06,.01-.16,.02l-.04,.11,.05,.12c-.07,.12-.09,.25-.09,.39,0,.47,.42,.85,.93,.85,.32,0,.61-.15,.78-.38l.2-.24v.3c0,.3,.13,.56,.43,.61,0,0,.34,.02,.8-.33,.09-.07,.17-.13,.24-.19-.04,0-.07,0-.08,.02-.08,.02-.22,.04-.34,.04-.16,.01-.44-.03-.52-.04l-.25-.04s.02-.03,.08-.1c.08-.08,.16-.15,.16-.15-.22-.08-.4-.24-.51-.45,.24-.09,.49-.12,.74-.09,0,0,0-.06,0-.16,0-.04,0-.08,.01-.12,0,0,.14,.09,.27,.15,.13,.06,.39,.2,.48,.32,.06,.07,.12,.26,.16,.41h.01c-.05-.25-.1-.64-.02-.84,.12-.3,.39-.35,.39-.35l.04,.21s.07-.07,.11-.1l-.61-1.16c.34-.29,.54-.72,.54-1.17,0-.23-.05-.45-.14-.65-.34-.77-1.52-1.34-2.92-1.34-.27,0-.53,.02-.78,.06,.11,.2,.18,.42,.19,.65,0,.06,0,.12,0,.18,0,.56-.25,1.06-.65,1.41l.17,.29h0Zm-.08,.18s0,.03-.01,.05c0,0,0,0-.02-.03l.03-.03Zm-.11,1.02s-.01-.04-.03-.03h0s0,.01,.03,.03h0Zm-10.52,4.03c.06-.03-.23-.23-.37-.48-.16-.29-.17-.63-.17-.63,1.72-.51,4.11-.82,6.78-.83,2.67,0,5.08,.32,6.8,.83,0,0-.08,.33-.24,.63-.12,.23-.36,.45-.3,.48-1.56-.48-3.81-.79-6.27-.79-2.46,0-4.67,.31-6.23,.79h0Zm5.64-11.72h-.46v.37h.46v1.05h-.58s-.04,.06-.04,.1c0,.09,.02,.18,.07,.26h1.56c.04-.08,.07-.17,.07-.26,0-.04-.04-.06-.04-.1h-.57v-1.05h.46v-.37h-.46v-.36h-.46v.36h0Z"/></g></g></g></svg>