<?xml version="1.0" encoding="UTF-8"?><svg id="Layer_2" xmlns="http://www.w3.org/2000/svg" viewBox="0 0 80.32 80.32"><defs><style>.cls-1,.cls-2{fill:#f2c500;}.cls-3{fill:#1fce6d;}.cls-3,.cls-4,.cls-2,.cls-5{fill-rule:evenodd;}.cls-4{fill:#a03529;}.cls-5{fill:#e87e04;}</style></defs><g id="Layer_1-2"><g><circle class="cls-1" cx="40.16" cy="40.16" r="40.16"/><path class="cls-4" d="M40.16,4.46c19.71,0,35.7,15.98,35.7,35.7s-15.98,35.7-35.7,35.7c-4.73,0-9.25-.92-13.39-2.59V7.06c4.13-1.67,8.65-2.59,13.39-2.59Z"/><path class="cls-5" d="M22.31,9.24c-3.35,1.94-6.36,4.41-8.92,7.31V63.77c2.56,2.9,5.57,5.37,8.92,7.31V9.24Z"/><path class="cls-3" d="M13.39,16.55c-5.55,6.29-8.92,14.56-8.92,23.61s3.37,17.32,8.92,23.61V16.55Z"/><path class="cls-2" d="M61.58,58.01s.48,.95,1.02,1.34c.79,.57,2.41,.53,3.1,1.2,.82,.79-.06,1.83-.06,1.93l.05,.55s-.56,0-.79,.04c-.35,.05-.49,.33-1.14,.29-1.65-.1-1.58-1.54-1.67-2.77-.08-.47-.27-1.08-.38-1.54-.09-.4-.11-1.04-.11-1.04ZM33.34,19.63c-.79-.57-2.41-.53-3.1-1.2-.82-.79,.06-1.83,.06-1.93l-.05-.55s.56,0,.79-.04c.35-.05,.49-.33,1.14-.29,1.65,.1,1.58,1.54,1.67,2.77,.08,.47,.27,1.08,.38,1.54,.09,.4,.11,1.04,.11,1.04,0,0-.48-.95-1.02-1.34Zm28.23,1.34s.48-.95,1.02-1.34c.79-.57,2.41-.53,3.1-1.2,.82-.79-.06-1.83-.06-1.93l.05-.55s-.56,0-.79-.04c-.35-.05-.49-.33-1.14-.29-1.65,.1-1.58,1.54-1.67,2.77-.08,.47-.27,1.08-.38,1.54-.09,.4-.11,1.04-.11,1.04Zm-27.22,37.04s-.48,.95-1.02,1.34c-.79,.57-2.41,.53-3.1,1.2-.82,.79,.06,1.83,.06,1.93l-.05,.55s.56,0,.79,.04c.35,.05,.49,.33,1.14,.29,1.65-.1,1.58-1.54,1.67-2.77,.08-.47,.27-1.08,.38-1.54,.09-.4,.11-1.04,.11-1.04Zm2.69-18.54c.14-.2,.37-.25,.71-.15,.87,.24,.79,1.16-.13,1.53-.75,.3,0,0,0,0-.75,.3-2.33,.28-3.05-.04-.88-.38-.9-1.29-.04-1.49,.33-.08,.57-.03,.68,.13-.08-.28-.09-.89-.09-2.94,0-4.46,.29-6.54,1.11-8.1,.44-.82,.93-1.4,1.57-1.84,.5-.34,.53-.34,.33,.02-.49,.9-.86,4.65-.95,9.64-.04,2.3-.06,2.96-.15,3.22Zm-.05,.12c-.04,.17,.03,.38,.15,.38,.05,0,.09,.06,.09,.12,0,.08-.09,.15-.25,.21-.01-.02-.03-.03-.05-.04-.19-.15-.18-.37,.03-.63,0-.01,.02-.02,.03-.04Zm-1.7,.72s-.03-.01-.05-.02c-.2-.09-.29-.33-.12-.33,.11,0,.19-.19,.17-.35h0c.14,.23,.14,.31,.05,.56-.02,.05-.03,.09-.05,.14Zm16.39-7.4c.01-1.04-.07-1.35-.38-1.75l-.18-.24,.29-.31c.38-.41,.55-.74,.63-1.18l.06-.36-.33,.31c-.27,.25-.39,.31-.71,.31s-.43-.05-.63-.27c-.25-.27-.69-.52-1.11-.64-.16-.05-.21-.03-.21,.08,0,.08-.09,.3-.19,.5l-.19,.36-.4-.4c-.25-.24-.54-.43-.76-.49-.56-.15-.59-.13-.59,.28,0,.63-.27,.75-.75,.33-.37-.32-.67-.39-1.37-.31l-.54,.06,.1,.24c.08,.2,.06,.29-.11,.52-.28,.37-.65,.54-1.21,.54-.26,0-.58,.05-.72,.12-.14,.07-.48,.14-.76,.17-.28,.03-.58,.07-.66,.11-.13,.05-.15,0-.1-.29,.07-.46-.26-.8-.76-.8-.65,0-.95,.58-.7,1.35,.05,.15,.11,.38,.14,.52,.03,.14,.32,.52,.68,.88,.35,.35,.67,.71,.73,.8,.05,.09,.23,.25,.39,.34l.3,.17-.04-.32c-.04-.35,.03-.4,.22-.16,.07,.09,.24,.23,.37,.32,.22,.14,.25,.14,.25,.02,0-.07,.04-.25,.1-.38l.1-.25,.17,.34c.1,.18,.4,.6,.69,.93,.55,.64,.88,1.35,.71,1.51-.07,.07-.26,.06-.65-.02-.3-.06-.68-.09-.84-.07-.32,.04-.34,0-.15-.24,.21-.26,.17-.3-.23-.3-.47,0-1.63-.23-2.08-.4-.43-.17-.54-.13-.66,.28l-.23,.75-.13,.41,.47-.05c.26-.02,.59-.08,.74-.13s.28-.07,.3-.05c.02,.02-.05,.18-.15,.36l-.18,.33,.29-.06c.19-.04,.37-.1,.54-.18,.24-.11,.25-.11,.44,.19,.23,.37,.41,.35,.45-.04,.04-.4,.17-.34,.42,.19,.24,.51,.49,.69,.54,.39,.02-.1,.15-.27,.29-.37,.29-.2,.5-.14,.63,.18,.13,.33-.16,.67-.99,1.17-1.66,1.01-2.63,2.4-2.91,4.16-.25,1.59,.53,3.24,2.09,4.42,.75,.56,1.93,1.16,1.86,.93-.32-.97-.31-2.81,.02-3.12,.05-.05,.03,.15-.04,.43-.26,1.05-.15,1.89,.52,3.85,.6,1.77,.52,2.53-.33,3.03-.27,.16-.45,.19-1.19,.18-.8,0-.89,0-1.14,.21-.25,.2-.57,.85-.57,1.16,0,.17,.18,.14,.54-.06,0,0-.36,.21,0,0l.31-.18,.13,.18c.18,.24,.67,.24,.99,0l.25-.19,.21,.19c.27,.24,.79,.24,1.11,0,.23-.17,.26-.17,.41-.04,.09,.08,.35,.17,.59,.2,.42,.05,.43,.05,.67-.32,.21-.31,.24-.44,.19-.73-.04-.24-.06-.47-.08-.71-.02-.35-.02-.35,.49-.53,.28-.1,.6-.23,.72-.29,.2-.11,.76-.77,.76-.9,0-.03-.22-.09-.48-.12-1.06-.12-1.24-.69-.55-1.75,1.12-1.73,1.8-3.41,1.8-4.48,0-.48,.03-.64,.09-.54,.25,.43-.2,2.21-.88,3.49l-.27,.52,.26-.06c.14-.03,.99-.39,1.88-.79,2.43-1.11,3.27-1.32,4.85-1.26,1.32,.06,1.88,.31,2.81,1.29,.49,.52,.97,.89,1.84,1.44,1.85,1.16,1.93,1.26,2.02,2.63,.09,1.39,.04,1.46-1,1.69-.89,.2-1.45,.62-1.6,1.2-.08,.31,.09,.32,.54,.03l.33-.21,.15,.21c.19,.28,.6,.28,.94,0l.26-.21,.26,.21c.41,.33,.95,.25,1.11-.16,.03-.08,.11-.05,.27,.09,.3,.26,1.06,.37,1.15,.17,.03-.08-.03-.27-.13-.43-.45-.67-.58-.99-.59-1.35,0-.51,.14-.75,.72-1.16,.7-.5,.91-1.15,.38-1.15-.33,0-.66-.29-.87-.76-.43-.96-.34-2.04,.3-3.84,.65-1.82,.73-2.16,.73-3.38,0-.99-.02-1.16-.25-1.7-.14-.33-.41-.82-.62-1.09l-.37-.49,.47-.39c1.44-1.2,1.15-3.16-.59-3.92-.53-.23-.66-.25-1.6-.25-.56,0-1.41,.08-1.89,.16-.49,.09-1.33,.16-1.9,.16-.91,0-1.06-.02-1.41-.21-.37-.19-.43-.29-.5-.74-.01-.09-.08-.18-.14-.21-.12-.04-.7,.46-.78,.68-.04,.11-.08,.1-.2-.04-.08-.1-.19-.32-.25-.49-.14-.44,.03-.77,.55-1.01l.4-.19-.24-.15c-.49-.3-1.31-.1-1.61,.4-.08,.14-.18,.26-.21,.26s-.19-.13-.36-.3c-.63-.61-.41-1.52,.43-1.8,.45-.15,.84-.04,.93,.26,.13,.46,.52-.14,.45-.69-.05-.36-.04-.37,.21-.37,.35,0,1.08,.46,1.31,.81,.26,.41,.25,1.06-.05,1.54l-.23,.38,.3-.06c.44-.09,.86-.36,1.08-.69,.23-.35,.25-1.03,.05-1.4-.2-.36-.17-.41,.12-.29,.49,.2,.76,.43,.95,.82,.18,.35,.19,.44,.09,.8-.06,.22-.19,.52-.29,.65-.16,.21-.16,.25-.04,.25,.24,0,.73-.22,.9-.41,.09-.09,.22-.33,.29-.52l.13-.34,.14,.26c.2,.37,.6,.71,1.09,.91,.52,.22,.74,.24,.46,.03-.18-.14-.52-1.14-.42-1.23,.06-.06,.77,.49,1.57,1.21,.76,.69,1.24,.91,1.94,.91,.9,0,1.42-.78,1.01-1.52-.23-.43-.76-.49-1.06-.12-.14,.17-.18,.3-.14,.48,.05,.22,.03,.25-.17,.25-.26,0-.77-.33-1.68-1.1-1.39-1.16-3.08-2.15-4.3-2.51-.78-.23-2.45-.32-3.25-.18-.86,.16-1.88,.65-2.43,1.18-.98,.94-1,2.18-.04,3.32l.27,.33-.19,.29c-.27,.42-.25,.99,.06,1.4,.13,.18,.27,.33,.3,.33s.07-.12,.08-.26c.03-.36,.18-.61,.45-.71,.24-.09,.4-.05,1.5,.4,1.16,.47,3.07,.5,5.11,.09,1-.2,2.17-.19,2.69,.03,.95,.4,1.17,1.43,.47,2.22-.3,.34-.59,.48-1.57,.75-.74,.2-.92,.22-2.61,.2-1.44-.01-1.96,.01-2.55,.14-.64,.13-1.03,.15-2.91,.1l-2.17-.05,.24,.2c.13,.11,.32,.25,.42,.3,.16,.09,.16,.11-.08,.2-.14,.05-.46,.1-.71,.1h-.45l-.06,.38c-.03,.21-.03,.45,0,.54,.05,.13,.03,.15-.1,.1-.09-.03-.35-.1-.58-.15-.23-.05-.53-.15-.67-.22-.24-.12-.27-.12-.36,.04-.08,.14-.84,.71-.95,.71-.02,0-.04-.11-.05-.24-.01-.13-.12-.48-.24-.77-.1-.23-.19-.47-.29-.7-.05-.15-.07-.15-.14-.04-.04,.07-.1,.27-.13,.44-.03,.17-.15,.44-.25,.61l-.19,.3-.12-.26c-.13-.28-.35-.57-.43-.57-.03,0-.07,.09-.1,.2-.06,.23-.58,.86-.71,.86-.05,0-.09-.18-.09-.39s-.04-.39-.09-.39-.09,.06-.09,.12c0,.17-.45,.66-.6,.66-.07,0-.17,.06-.23,.13-.17,.19-.3,.16-.23-.05,.03-.1,.01-.32-.05-.5l-.14-.43c-.02-.07-.18-.05-.52,.06-.55,.18-.73,.15-.45-.08,.1-.08,.26-.36,.35-.62,.09-.26,.22-.49,.29-.52,.1-.03,.09,0-.02,.17-.08,.11-.15,.27-.15,.34,0,.07-.06,.25-.14,.39-.08,.14-.12,.27-.11,.29,.02,.02,.23-.06,.46-.18l.43-.21v.19c0,.1,.05,.37,.12,.6l.11,.41,.29-.14c.3-.14,.58-.63,.58-1.01,0-.19,.11-.16,.15,.04,.01,.06,.08,.28,.15,.49l.13,.38,.2-.24c.11-.13,.25-.4,.31-.58,.1-.32,.26-.46,.26-.23,0,.17,.46,.78,.55,.72,.04-.03,.13-.25,.19-.51,.13-.53,.33-.89,.47-.81,.05,.03,.07,.08,.04,.12s.08,.38,.24,.76c.16,.38,.31,.76,.35,.85,.06,.14,.11,.12,.44-.18,.21-.18,.4-.39,.42-.46,.03-.1,.08-.1,.27,.02,.27,.17,1.19,.44,1.26,.37,.03-.02,.05-.27,.06-.53v-.49l.27,.05c.14,.03,.45,.03,.68,0l.41-.06-.37-.25c-.2-.14-.41-.32-.45-.4-.05-.09-.23-.16-.43-.18-.47-.04-1.25-.45-1.47-.73-.05-.03-.1-.07-.16-.11l-.36-.15v.41c0,.23-.03,.5-.06,.61-.06,.21-.21,.26-.21,.08,0-.12-.36-.46-.73-.68-.29-.17-.34-.18-.34-.04,0,.21-.19,.75-.26,.75-.04,0-.1-.1-.14-.23-.03-.13-.17-.38-.31-.56l-.25-.33-.2,.3c-.18,.28-.5,.56-.64,.56-.03,0-.04-.15-.01-.33,.03-.2,0-.35-.05-.39-.05-.03-.1-.02-.1,.02,0,.11-.44,.61-.53,.61-.04,0-.09-.14-.12-.32-.03-.21-.07-.41-.1-.62-.03-.16,.03-.05,.14,.25l.19,.54,.21-.33c.12-.18,.21-.38,.21-.44,0-.06,.04-.09,.09-.06,.05,.03,.11,.25,.15,.49l.06,.44,.23-.26c.13-.14,.28-.33,.33-.42,.1-.16,.1-.16,.3,0,.11,.09,.28,.32,.37,.5,.1,.18,.19,.31,.2,.3,.02-.02,.05-.2,.08-.41,.03-.21,.05-.39,.05-.4,.01-.05,.7,.4,.95,.62,.16,.15,.32,.25,.34,.22,.03-.02,.05-.24,.05-.48,0-.37-.04-.47-.26-.67-.26-.23-.27-.23-.36-.06-.12,.22-.27,.22-.27,0,0-.16-.49-.77-.61-.77-.03,0-.14,.13-.23,.3-.09,.16-.19,.3-.22,.3-.12,0-.81-.77-.81-.91,0-.11,.05-.08,.17,.1,.09,.14,.27,.35,.41,.47,.27,.23,.36,.18,.47-.27,.03-.13,.08-.23,.11-.23,.11,0,.71,.64,.8,.85l.08,.21,.06-.23c.08-.29,.16-.3,.29-.04,.05,.11,.31,.34,.57,.5l.36,.16s.05,.01,.09,.04l.06,.03,.06-.22c.05-.17,.12-.27,.16-.22,.04,.07-.02,.4-.1,.56l.02,.02c.37,.34,.88,.55,1.32,.55h.33l-.21-.27c-.12-.16-.22-.46-.25-.7-.04-.39-.08-.45-.49-.74-.25-.17-.55-.43-.68-.57l-.23-.26-.12,.31c-.06,.17-.14,.31-.17,.31s-.16-.1-.27-.22c-.12-.12-.24-.22-.27-.22-.03,0-.14,.16-.24,.36l-.18,.36-.14-.21c-.08-.11-.26-.32-.41-.45-.15-.13-.22-.24-.17-.24s.23,.14,.4,.31l.31,.31,.12-.22c.07-.13,.1-.34,.07-.5-.05-.24-.04-.26,.05-.1,.06,.1,.24,.28,.4,.41l.29,.24,.2-.37c.2-.37,.2-.37,.29-.15,.12,.29,1,1.01,1.74,1.43,.12,.06,.07-.16-.15-.67-.06-.14-.1-.38-.1-.54,0-.24-.07-.35-.38-.59-.45-.34-.59-.58-.68-1.13-.03-.22-.11-.47-.17-.55-.09-.12-.11-.05-.08,.36,.02,.28-.02,.62-.08,.77l-.11,.26-.09-.22c-.05-.12-.25-.33-.46-.47-.21-.14-.35-.27-.32-.3,.03-.03,.24,.1,.47,.27,.35,.27,.43,.3,.48,.18,.06-.14,0-.76-.11-1.19-.05-.21-.05-.21,.21,.05,.19,.19,.3,.43,.39,.83,.11,.52,.16,.6,.63,1.02,.29,.25,.53,.44,.55,.43,.02-.02,.05-.67,.08-1.45,0-.17,0-.33,.01-.47-.08-.05-.23-.17-.44-.36,0,0,.59,.53,0,0-.25-.22-.41-.43-.38-.47,.04-.04,.08-.05,.1-.02,.01,.02,.22,.23,.45,.47,.13,.13,.22,.23,.28,.3h0Zm-6.62,.92v-.26l.05,.25c.02,.15,.18,.37,.37,.53l.33,.28,.2-.25c.11-.14,.21-.3,.21-.37,0-.16,.03-.15,.42,.21,.35,.32,.35,.32,.4,.11,.03-.12,.02-.33-.02-.49-.11-.41-.09-.48,.08-.23,.09,.12,.22,.3,.31,.39,.14,.16,.15,.16,.21-.05,.03-.12,.06-.33,.06-.47v-.26l.31,.38c.29,.35,.32,.37,.41,.2,.05-.1,.1-.34,.1-.53,0-.25,.03-.31,.08-.22,.1,.16,.03,.59-.15,.96l-.13,.26-.17-.29c-.22-.37-.29-.36-.44,.03-.13,.37-.22,.4-.35,.11-.08-.19-.1-.16-.16,.23l-.07,.43-.4-.33-.4-.33-.18,.22c-.1,.12-.18,.27-.18,.33,0,.14-.1,.14-.25,.01-.58-.51-.66-.63-.65-.88h0Zm-.72-2.31c.16-.24,.23-.27,.51-.22,.18,.03,.57,.22,.86,.43,.34,.24,.69,.4,.96,.44,.23,.03,.43,.05,.43,.03s-.1-.21-.22-.43c-.28-.52-.27-.57,.05-.26,.33,.32,.72,.41,1.59,.38l.43-.02-.25-.3c-.35-.42-.24-.46,.14-.05,.36,.38,.34,.41-.42,.5-.32,.04-.64,.01-.95-.08-.43-.13-.45-.13-.37,.04,.05,.1,.12,.18,.17,.18s.08,.05,.08,.11c0,.19-.93,.02-1.37-.25-1.01-.63-1.14-.68-1.38-.59-.13,.05-.27,.2-.31,.36-.15,.51,.43,.9,.67,.45,.07-.13,.05-.22-.07-.38-.17-.22-.15-.25,.07-.15,.16,.07,.18,.55,.03,.72-.17,.2-.57,.14-.71-.1-.18-.3-.17-.5,.05-.83Zm4.45-.5c.73-.01,1.17-.14,1.69-.5,.42-.28,.53-.23,.13,.07-.36,.27-.92,.47-1.47,.54-.26,.03-.56,.07-.67,.09-.1,.02-.21,.01-.25-.02-.13-.13-.03-.17,.56-.18Zm-12.46,18.77c.08-.1,.15-.26,.15-.36,0-.15,.07-.19,.44-.23l.44-.06-.29-.21c-.35-.25-.38-.44-.07-.44,.31,0,.82-.28,.9-.49,.04-.1,.01-.23-.05-.29-.17-.17-.49-.15-.55,.04-.06,.21-.17,.21-.42,0-.37-.31-.38-.95-.02-1.32,.17-.18,.17-.19-.05-.37-.23-.19-.4-.58-.29-.67,.03-.03,.22,0,.41,.05,.27,.08,.38,.08,.49,0,.34-.23-.03-.53-.57-.47-.22,.03-.31,0-.34-.1-.02-.08-.21-.17-.43-.22-.38-.09-.38-.08-.38,.15,0,.26-.16,.3-.48,.14-.25-.13-.5-.03-.5,.21,0,.22,.25,.33,.71,.31,.35-.02,.36,.21,.03,.54l-.24,.24,.19,.24c.28,.36,.26,.95-.05,1.24l-.24,.23-.16-.18c-.22-.26-.52-.24-.6,.03-.05,.18,0,.26,.24,.45,.17,.13,.42,.23,.55,.23,.33,0,.32,.23-.03,.46l-.27,.18,.42,.06c.23,.03,.42,.09,.42,.13,0,.16,.29,.64,.38,.64,.05,0,.17-.08,.25-.18,0,0-.08,.1,0,0h0Zm5.67-2.86c0-.05-.21-.29-.46-.53-.53-.5-1.11-1.35-1.26-1.85-.08-.26-.52-.54-1.58-1.62l-.72-1.67-1.13-.16s-.51,.07-.62,.07c-.19,0-.19,.01,.07,.22l.27,.22,.54,.33s.7-.61,.88-.38c.18,.23-.6,.82-.6,.82,0,0,.46-.36,.6-.17s-.45,.7-.45,.7c0,0,.37-.15,.5,0,.13,.15-.33,.72-.33,.72,0,0,.44-.12,.28,.3-.16,.42-.81,.73-.81,.73,0,0,0-.03,.17,.11,.25,.2,.26,.22,.26,1.1,0,.73,.03,.92,.16,1.05,.14,.14,.16,.14,.16,0,0-.15,.25-.33,.46-.33,.06,0,.44,.34,.84,.75,.4,.41,.83,.77,.95,.79l.29,.05s.22-.05,.4-.13c.35-.14,1.16-.97,1.16-1.13h0Zm-4.97-2.54c0-.27-.56-.56-1.23-.63-.54-.06-.55-.06-.55,.21,0,.22,.09,.31,.46,.47,.6,.26,1.33,.23,1.33-.05,0,0,0,.28,0,0Zm.53-.06c.32-.28,.47-.6,.28-.6-.22,0-.81,.5-.81,.69,0,.29,.11,.28,.53-.09,0,0-.42,.36,0,0Zm-.86-1.1c-.54-.26-1.18-.38-1.34-.25-.29,.24-.1,.57,.37,.62,.19,.02,.44,.08,.56,.14,.35,.15,.69,.08,.72-.15,.02-.15-.06-.24-.31-.36Zm-.74-.96c-.66-.25-.96-.13-.74,.29,.07,.15,.2,.22,.48,.26,.21,.03,.49,.1,.63,.14,.37,.12,.58,.08,.61-.12,.03-.18-.08-.24-.97-.57Zm2.01-.63c0-.27-.76,.21-.86,.53-.12,.39,.07,.37,.51-.04,.19-.19,.35-.4,.35-.49h0Zm-.04,.66c0-.27-.76,.21-.86,.53-.12,.39,.07,.38,.51-.04,.19-.19,.35-.4,.35-.49h0Zm.05,.71c0-.29-.76,.22-.86,.57-.12,.42,.07,.4,.51-.05,.19-.2,.35-.44,.35-.52Zm-.95-.83c.03-.24-.33-.46-1.05-.62-.53-.12-.76-.05-.72,.21,.02,.15,.2,.25,.7,.42,.8,.27,1.04,.27,1.08-.01,0,0-.04,.28,0,0Zm6.44-7.45c-.75,0-1.41-.36-2.65-.92-.71-.32-.96-.4-1.05-.31-.22,.21-.06,.75,.5,1.01,.5,.23,1.89,.52,2.53,.52,.37,0,.38,.02,.17,.32l-.15,.23h.53c.24,0,.7,.14,.74,.08,.03-.04-.04-.27-.14-.5-.17-.36-.23-.42-.47-.42h0Z"/></g></g></svg>