<?xml version="1.0" encoding="UTF-8"?><svg id="Layer_2" xmlns="http://www.w3.org/2000/svg" viewBox="0 0 80.5 80.5"><defs><style>.cls-1,.cls-2{fill:#fff;}.cls-3{fill:#227fbb;}.cls-3,.cls-2,.cls-4{fill-rule:evenodd;}.cls-4{fill:#e94b35;}</style></defs><g id="Layer_1-2"><g><circle class="cls-1" cx="40.25" cy="40.25" r="40.25"/><path class="cls-4" d="M40.25,18.78h34.05c-1.42-2.24-3.05-4.34-4.88-6.26h-29.18v6.26Zm0-18.78c7.94,0,15.33,2.3,21.57,6.26h-21.57V0Zm0,31.31h39.25c-.49-2.14-1.15-4.23-1.97-6.26H40.25v6.26ZM0,40.25c0,1.21,.05,2.4,.16,3.58H80.34c.18-2.08,.21-4.18,.07-6.26H40.25v2.68H0Zm79.29,9.84c-.54,2.14-1.25,4.24-2.14,6.26H3.35c-.88-2.02-1.6-4.12-2.14-6.26H79.29Zm-5.57,12.52c-1.51,2.26-3.24,4.35-5.17,6.26H11.95c-1.93-1.91-3.66-4.01-5.17-6.26H73.72Zm-13.38,12.52c-5.91,3.41-12.78,5.37-20.09,5.37s-14.18-1.95-20.09-5.37H60.34Z"/><path class="cls-3" d="M40.25,0C18.02,0,0,18.02,0,40.25H40.25V0Z"/><path class="cls-2" d="M15.39,15.41l-1.22,.69,.23-1.46-.99-1.03,1.36-.21,.61-1.33,.61,1.33,1.36,.21-.99,1.03,.23,1.46-1.22-.69Zm0,7.16l-1.22,.69,.23-1.46-.99-1.03,1.36-.21,.61-1.33,.61,1.33,1.36,.21-.99,1.03,.23,1.46-1.22-.69Zm-4.92-2.68l-1.22,.69,.23-1.46-.99-1.03,1.36-.21,.61-1.33,.61,1.33,1.36,.21-.99,1.03,.23,1.46-1.22-.69Zm-.45,6.71l-1.22,.69,.23-1.46-.99-1.03,1.36-.21,.61-1.33,.61,1.33,1.36,.21-.99,1.03,.23,1.46-1.22-.69Zm4.47,4.47l-1.22,.69,.23-1.46-.99-1.03,1.36-.21,.61-1.33,.61,1.33,1.36,.21-.99,1.03,.23,1.46-1.22-.69Zm-4.47,2.68l-1.22,.69,.23-1.46-.99-1.03,1.36-.21,.61-1.33,.61,1.33,1.36,.21-.99,1.03,.23,1.46-1.22-.69Zm-4.92-3.58l-1.22,.69,.23-1.46-.99-1.03,1.36-.21,.61-1.33,.61,1.33,1.36,.21-.99,1.03,.23,1.46-1.22-.69Zm0,7.16l-1.22,.69,.23-1.46-.99-1.03,1.36-.21,.61-1.33,.61,1.33,1.36,.21-.99,1.03,.23,1.46-1.22-.69Zm10.29,0l-1.22,.69,.23-1.46-.99-1.03,1.36-.21,.61-1.33,.61,1.33,1.36,.21-.99,1.03,.23,1.46-1.22-.69ZM35.96,7.36l-1.22,.69,.23-1.46-.99-1.03,1.36-.21,.61-1.33,.61,1.33,1.36,.21-.99,1.03,.23,1.46-1.22-.69Zm0,7.16l-1.22,.69,.23-1.46-.99-1.03,1.36-.21,.61-1.33,.61,1.33,1.36,.21-.99,1.03,.23,1.46-1.22-.69Zm0,7.16l-1.22,.69,.23-1.46-.99-1.03,1.36-.21,.61-1.33,.61,1.33,1.36,.21-.99,1.03,.23,1.46-1.22-.69Zm0,7.16l-1.22,.69,.23-1.46-.99-1.03,1.36-.21,.61-1.33,.61,1.33,1.36,.21-.99,1.03,.23,1.46-1.22-.69Zm-5.37-17.44l-1.22,.69,.23-1.46-.99-1.03,1.36-.21,.61-1.33,.61,1.33,1.36,.21-.99,1.03,.23,1.46-1.22-.69Zm0,7.16l-1.22,.69,.23-1.46-.99-1.03,1.36-.21,.61-1.33,.61,1.33,1.36,.21-.99,1.03,.23,1.46-1.22-.69Zm0,7.16l-1.22,.69,.23-1.46-.99-1.03,1.36-.21,.61-1.33,.61,1.33,1.36,.21-.99,1.03,.23,1.46-1.22-.69Zm0,7.16l-1.22,.69,.23-1.46-.99-1.03,1.36-.21,.61-1.33,.61,1.33,1.36,.21-.99,1.03,.23,1.46-1.22-.69Zm5.37,3.58l-1.22,.69,.23-1.46-.99-1.03,1.36-.21,.61-1.33,.61,1.33,1.36,.21-.99,1.03,.23,1.46-1.22-.69ZM26.12,8.26l-1.22,.69,.23-1.46-.99-1.03,1.36-.21,.61-1.33,.61,1.33,1.36,.21-.99,1.03,.23,1.46-1.22-.69Zm0,7.16l-1.22,.69,.23-1.46-.99-1.03,1.36-.21,.61-1.33,.61,1.33,1.36,.21-.99,1.03,.23,1.46-1.22-.69Zm0,7.16l-1.22,.69,.23-1.46-.99-1.03,1.36-.21,.61-1.33,.61,1.33,1.36,.21-.99,1.03,.23,1.46-1.22-.69Zm0,7.16l-1.22,.69,.23-1.46-.99-1.03,1.36-.21,.61-1.33,.61,1.33,1.36,.21-.99,1.03,.23,1.46-1.22-.69Zm-5.37-17.44l-1.22,.69,.23-1.46-.99-1.03,1.36-.21,.61-1.33,.61,1.33,1.36,.21-.99,1.03,.23,1.46-1.22-.69Zm0,7.16l-1.22,.69,.23-1.46-.99-1.03,1.36-.21,.61-1.33,.61,1.33,1.36,.21-.99,1.03,.23,1.46-1.22-.69Zm0,7.16l-1.22,.69,.23-1.46-.99-1.03,1.36-.21,.61-1.33,.61,1.33,1.36,.21-.99,1.03,.23,1.46-1.22-.69Zm0,7.16l-1.22,.69,.23-1.46-.99-1.03,1.36-.21,.61-1.33,.61,1.33,1.36,.21-.99,1.03,.23,1.46-1.22-.69Zm5.37,3.58l-1.22,.69,.23-1.46-.99-1.03,1.36-.21,.61-1.33,.61,1.33,1.36,.21-.99,1.03,.23,1.46-1.22-.69Z"/></g></g></svg>