<svg width="170" height="114" xmlns="http://www.w3.org/2000/svg" xmlns:xlink="http://www.w3.org/1999/xlink" xml:space="preserve" overflow="hidden"><defs><filter id="fx0" x="-10%" y="-10%" width="120%" height="120%" filterUnits="userSpaceOnUse" primitiveUnits="userSpaceOnUse"><feComponentTransfer color-interpolation-filters="sRGB"><feFuncR type="discrete" tableValues="1.000000 1.000000"/><feFuncG type="discrete" tableValues="1.000000 1.000000"/><feFuncB type="discrete" tableValues="1.000000 1.000000"/><feFuncA type="linear" slope="1.000000" intercept="0.000000"/></feComponentTransfer><feGaussianBlur stdDeviation="3.762488 3.762488"/></filter><filter id="fx1" x="-10%" y="-10%" width="120%" height="120%" filterUnits="userSpaceOnUse" primitiveUnits="userSpaceOnUse"><feComponentTransfer color-interpolation-filters="sRGB"><feFuncR type="discrete" tableValues="1.000000 1.000000"/><feFuncG type="discrete" tableValues="1.000000 1.000000"/><feFuncB type="discrete" tableValues="1.000000 1.000000"/><feFuncA type="linear" slope="1.000000" intercept="0.000000"/></feComponentTransfer><feGaussianBlur stdDeviation="3.762488 3.762488"/></filter><filter id="fx2" x="-10%" y="-10%" width="120%" height="120%" filterUnits="userSpaceOnUse" primitiveUnits="userSpaceOnUse"><feComponentTransfer color-interpolation-filters="sRGB"><feFuncR type="discrete" tableValues="1.000000 1.000000"/><feFuncG type="discrete" tableValues="1.000000 1.000000"/><feFuncB type="discrete" tableValues="1.000000 1.000000"/><feFuncA type="linear" slope="1.000000" intercept="0.000000"/></feComponentTransfer><feGaussianBlur stdDeviation="3.762488 3.762488"/></filter><filter id="fx3" x="-10%" y="-10%" width="120%" height="120%" filterUnits="userSpaceOnUse" primitiveUnits="userSpaceOnUse"><feComponentTransfer color-interpolation-filters="sRGB"><feFuncR type="discrete" tableValues="1.000000 1.000000"/><feFuncG type="discrete" tableValues="1.000000 1.000000"/><feFuncB type="discrete" tableValues="1.000000 1.000000"/><feFuncA type="linear" slope="1.000000" intercept="0.000000"/></feComponentTransfer><feGaussianBlur stdDeviation="3.762488 3.762488"/></filter><clipPath id="clip4"><rect x="2525" y="-9" width="170" height="114"/></clipPath><clipPath id="clip5"><rect x="-11.2874" y="-11.2875" width="190.575" height="136.575"/></clipPath><clipPath id="clip6"><rect x="0" y="0" width="168" height="114"/></clipPath><clipPath id="clip7"><rect x="1.7998" y="1.31403" width="114.575" height="23.5749"/></clipPath><clipPath id="clip8"><rect x="0" y="0" width="118" height="27"/></clipPath><clipPath id="clip9"><rect x="-11.2874" y="-11.2875" width="190.575" height="136.575"/></clipPath><clipPath id="clip10"><rect x="0" y="0" width="168" height="114"/></clipPath><clipPath id="clip11"><rect x="2.00586" y="1.61931" width="114.575" height="23.5749"/></clipPath><clipPath id="clip12"><rect x="0" y="0" width="118" height="27"/></clipPath></defs><g clip-path="url(#clip4)" transform="translate(-2525 9)"><g clip-path="url(#clip5)" filter="url(#fx0)" transform="translate(2526 -7)"><g clip-path="url(#clip6)"><path d="M16.441 0 19.024 0 19.024-25.42 16.441-25.42 16.441-13.899 6.109-13.899 6.109-25.42 3.526-25.42 3.526 0 6.109 0 6.109-11.89 16.441-11.89ZM41.3667 0.451 41.6947-1.722C31.5267-2.009 28.5337-4.182 28.2877-9.307L42.3917-9.635C43.1297-15.949 40.3827-20.336 35.0527-20.336 29.9277-20.336 25.8277-15.703 25.8277-9.676 25.8277-3.239 29.2307 0.246 41.3667 0.451ZM34.5607-18.245C38.3327-18.245 40.1777-15.416 40.0957-11.275L28.2877-10.947C28.5337-15.539 30.9117-18.245 34.5607-18.245ZM64.9393 0 65.1853-1.927 58.4613-1.927 58.4613-28.577 49.9333-28.577 49.6873-26.814 55.9603-26.527 55.9603-1.927 49.2773-1.927 49.2773 0ZM79.205-1.681C77.975-1.681 76.704-1.886 75.351-2.378 75.31-8.651 75.228-12.587 75.146-16.236 76.622-17.425 78.467-18.204 80.394-18.204 83.797-18.204 86.38-15.334 86.38-10.168 86.38-4.715 83.141-1.681 79.205-1.681ZM75.351 6.765 75.351 0.205C76.335 0.41 77.319 0.492 78.221 0.492 83.879 0.492 88.84-3.731 88.84-10.783 88.84-16.605 85.601-20.295 81.296-20.295 78.713-20.295 76.663-19.147 75.064-17.835L74.9-19.926 72.604-19.762C72.768-15.416 72.85-9.102 72.85 0.041L72.85 6.97Z" fill="#FFFFFF" fill-rule="nonzero" fill-opacity="1" transform="matrix(1 0 0 1 38.0872 66)"/></g></g><text fill="#FFFFFF" fill-opacity="1" font-family="Operator Mono Light,Operator Mono Light_MSFontService,sans-serif" font-style="normal" font-variant="normal" font-weight="300" font-stretch="normal" font-size="41" text-anchor="start" direction="ltr" writing-mode="lr-tb" unicode-bidi="normal" text-decoration="none" transform="matrix(1 0 0 1 2564.09 55)">Help</text><g clip-path="url(#clip7)" filter="url(#fx1)" transform="translate(2551 48)"><g clip-path="url(#clip8)"><path d="M13.0872 12.6015 36.0872 12.6015 59.0872 12.6015 82.0872 12.6015 105.087 12.6015 105.087 13.6015 82.0872 13.6015 59.0872 13.6015 36.0872 13.6015 13.0872 13.6015Z" fill="#FFFFFF" fill-rule="evenodd" fill-opacity="1"/></g></g><path d="M2564.09 57.1806 2587.09 57.1806 2610.09 57.1806 2633.09 57.1806 2656.09 57.1806 2656.09 58.1806 2633.09 58.1806 2610.09 58.1806 2587.09 58.1806 2564.09 58.1806Z" fill="#FFFFFF" fill-rule="evenodd" fill-opacity="1"/><g clip-path="url(#clip9)" filter="url(#fx2)" transform="translate(2527 -8)"><g clip-path="url(#clip10)"><path d="M16.441 0 19.024 0 19.024-25.42 16.441-25.42 16.441-13.899 6.109-13.899 6.109-25.42 3.526-25.42 3.526 0 6.109 0 6.109-11.89 16.441-11.89ZM41.3667 0.451 41.6947-1.722C31.5267-2.009 28.5337-4.182 28.2877-9.307L42.3917-9.635C43.1297-15.949 40.3827-20.336 35.0527-20.336 29.9277-20.336 25.8277-15.703 25.8277-9.676 25.8277-3.239 29.2307 0.246 41.3667 0.451ZM34.5607-18.245C38.3327-18.245 40.1777-15.416 40.0957-11.275L28.2877-10.947C28.5337-15.539 30.9117-18.245 34.5607-18.245ZM64.9393 0 65.1853-1.927 58.4613-1.927 58.4613-28.577 49.9333-28.577 49.6873-26.814 55.9603-26.527 55.9603-1.927 49.2773-1.927 49.2773 0ZM79.205-1.681C77.975-1.681 76.704-1.886 75.351-2.378 75.31-8.651 75.228-12.587 75.146-16.236 76.622-17.425 78.467-18.204 80.394-18.204 83.797-18.204 86.38-15.334 86.38-10.168 86.38-4.715 83.141-1.681 79.205-1.681ZM75.351 6.765 75.351 0.205C76.335 0.41 77.319 0.492 78.221 0.492 83.879 0.492 88.84-3.731 88.84-10.783 88.84-16.605 85.601-20.295 81.296-20.295 78.713-20.295 76.663-19.147 75.064-17.835L74.9-19.926 72.604-19.762C72.768-15.416 72.85-9.102 72.85 0.041L72.85 6.97Z" fill="#7F7F7F" fill-rule="nonzero" fill-opacity="1" transform="matrix(1 0 0 1 38.2932 66)"/></g></g><text fill="#7F7F7F" fill-opacity="1" font-family="Operator Mono Light,Operator Mono Light_MSFontService,sans-serif" font-style="normal" font-variant="normal" font-weight="300" font-stretch="normal" font-size="41" text-anchor="start" direction="ltr" writing-mode="lr-tb" unicode-bidi="normal" text-decoration="none" transform="matrix(1 0 0 1 2565.29 54)">Help</text><g clip-path="url(#clip11)" filter="url(#fx3)" transform="translate(2552 47)"><g clip-path="url(#clip12)"><path d="M13.2932 12.9068 36.2932 12.9068 59.2932 12.9068 82.2932 12.9068 105.293 12.9068 105.293 13.9068 82.2932 13.9068 59.2932 13.9068 36.2932 13.9068 13.2932 13.9068Z" fill="#7F7F7F" fill-rule="evenodd" fill-opacity="1"/></g></g><path d="M2565.29 56.4859 2588.29 56.4859 2611.29 56.4859 2634.29 56.4859 2657.29 56.4859 2657.29 57.4859 2634.29 57.4859 2611.29 57.4859 2588.29 57.4859 2565.29 57.4859Z" fill="#7F7F7F" fill-rule="evenodd" fill-opacity="1"/></g></svg>