<?xml version="1.0" encoding="iso-8859-1"?>
<!-- Generator: Adobe Illustrator 19.0.0, SVG Export Plug-In . SVG Version: 6.00 Build 0)  -->
<svg version="1.1" id="Capa_1" xmlns="http://www.w3.org/2000/svg" xmlns:xlink="http://www.w3.org/1999/xlink" x="0px" y="0px"
	 viewBox="0 0 218.454 218.454" style="enable-background:new 0 0 218.454 218.454;" xml:space="preserve">
<g>
	<g>
		<path d="M217.702,59.206c-0.647-0.807-1.628-1.277-2.662-1.277H47.787c-1.884,0-3.413,1.529-3.413,3.413s1.529,3.413,3.413,3.413
			h162.999l-15.906,71.68H54.755c-1.884,0-3.413,1.529-3.413,3.413c0,1.884,1.529,3.413,3.413,3.413h142.863
			c1.601,0,2.985-1.111,3.333-2.673l17.422-78.507C218.597,61.072,218.351,60.015,217.702,59.206z"/>
	</g>
</g>
<g>
	<g>
		<path d="M200.632,59.203c-0.648-0.806-1.626-1.271-2.659-1.271H34.133c-0.956,0-1.869,0.401-2.516,1.106
			c-0.647,0.705-0.968,1.649-0.886,2.601l6.827,78.507c0.154,1.765,1.63,3.118,3.401,3.118h139.947c1.604,0,2.995-1.12,3.335-2.686
			l17.067-78.507C201.528,61.061,201.279,60.007,200.632,59.203z M178.156,136.436H44.09l-6.233-71.68h155.882L178.156,136.436z"/>
	</g>
</g>
<g>
	<g>
		<path d="M37.526,60.966l-3.413-30.72c-0.193-1.727-1.654-3.036-3.393-3.036H3.413C1.529,27.21,0,28.739,0,30.623
			s1.529,3.413,3.413,3.413h24.253l3.075,27.684c0.193,1.746,1.671,3.036,3.388,3.036c0.125,0,0.253-0.007,0.381-0.022
			C36.384,64.528,37.734,62.84,37.526,60.966z"/>
	</g>
</g>
<g>
	<g>
		<path d="M64.833,170.194l-3.413-30.72c-0.208-1.876-1.908-3.244-3.768-3.016c-1.874,0.206-3.224,1.894-3.016,3.768l3.413,30.72
			c0.193,1.746,1.671,3.036,3.388,3.036c0.125,0,0.253-0.007,0.381-0.021C63.691,173.756,65.041,172.068,64.833,170.194z"/>
	</g>
</g>
<g>
	<g>
		<path d="M64.853,167.158c-3.444,0-6.762,1.021-9.6,2.953c-1.558,1.062-1.961,3.185-0.899,4.743
			c1.063,1.56,3.185,1.959,4.743,0.899c1.7-1.159,3.69-1.77,5.757-1.77c5.647,0,10.24,4.593,10.24,10.24
			c0,5.647-4.593,10.24-10.24,10.24c-2.063,0-4.052-0.609-5.748-1.763c-1.56-1.058-3.681-0.655-4.743,0.901
			c-1.06,1.558-0.655,3.681,0.903,4.741c2.835,1.929,6.149,2.947,9.588,2.947c9.411,0,17.067-7.654,17.067-17.065
			C81.92,174.814,74.264,167.158,64.853,167.158z"/>
	</g>
</g>
<g>
	<g>
		<path d="M197.931,183.109c-0.35-4.545-2.449-8.682-5.91-11.648c-3.459-2.966-7.864-4.408-12.414-4.058
			c-3.487,0.268-6.757,1.572-9.457,3.772c-1.461,1.19-1.681,3.34-0.492,4.801c1.19,1.459,3.34,1.679,4.801,0.492
			c1.616-1.316,3.577-2.096,5.67-2.258c2.72-0.208,5.371,0.655,7.45,2.435c2.077,1.78,3.335,4.263,3.545,6.989
			c0.21,2.726-0.655,5.373-2.435,7.45c-1.78,2.077-4.262,3.335-6.989,3.545c-2.374,0.186-4.647-0.432-6.598-1.778
			c-1.551-1.07-3.674-0.678-4.748,0.872c-1.07,1.551-0.679,3.676,0.872,4.748c2.847,1.966,6.248,3.016,9.697,3.016
			c0.433,0,0.869-0.017,1.302-0.051c4.545-0.35,8.682-2.449,11.648-5.91C196.838,192.063,198.281,187.653,197.931,183.109z"/>
	</g>
</g>
<g>
	<g>
		<path d="M150.187,180.81h-71.68c-1.884,0-3.413,1.529-3.413,3.413s1.529,3.413,3.413,3.413h71.68c1.886,0,3.413-1.529,3.413-3.413
			S152.071,180.81,150.187,180.81z"/>
	</g>
</g>
<g>
	<g>
		<path d="M47.766,170.194l-3.413-30.72c-0.208-1.876-1.899-3.244-3.768-3.016c-1.874,0.206-3.224,1.894-3.016,3.768l3.413,30.72
			c0.193,1.746,1.671,3.036,3.388,3.036c0.125,0,0.253-0.007,0.381-0.021C46.624,173.756,47.974,172.068,47.766,170.194z"/>
	</g>
</g>
<g>
	<g>
		<path d="M47.787,167.156c-9.411,0-17.067,7.656-17.067,17.067s7.656,17.067,17.067,17.067c9.411,0,17.067-7.656,17.067-17.067
			S57.197,167.156,47.787,167.156z M47.787,194.463c-5.647,0-10.24-4.593-10.24-10.24c0-5.647,4.593-10.24,10.24-10.24
			s10.24,4.593,10.24,10.24C58.027,189.87,53.434,194.463,47.787,194.463z"/>
	</g>
</g>
<g>
	<g>
		<path d="M163.84,167.156c-9.411,0-17.067,7.656-17.067,17.067s7.656,17.067,17.067,17.067s17.067-7.656,17.067-17.067
			S173.251,167.156,163.84,167.156z M163.84,194.463c-5.647,0-10.24-4.593-10.24-10.24c0-5.647,4.593-10.24,10.24-10.24
			c5.647,0,10.24,4.593,10.24,10.24C174.08,189.87,169.487,194.463,163.84,194.463z"/>
	</g>
</g>
<g>
	<g>
		<path d="M150.187,180.81H61.44c-1.884,0-3.413,1.529-3.413,3.413s1.529,3.413,3.413,3.413h88.747c1.886,0,3.413-1.529,3.413-3.413
			S152.071,180.81,150.187,180.81z"/>
	</g>
</g>
<g>
	<g>
		<path d="M178.104,57.986c-1.865-0.333-3.63,0.894-3.968,2.748l-13.653,75.093c-0.338,1.853,0.893,3.632,2.748,3.968
			c0.206,0.036,0.411,0.055,0.613,0.055c1.618,0,3.055-1.154,3.355-2.802l13.653-75.093C181.19,60.101,179.96,58.322,178.104,57.986
			z"/>
	</g>
</g>
<g>
	<g>
		<path d="M154.04,57.957c-1.85-0.247-3.581,1.072-3.826,2.944l-10.24,78.507c-0.242,1.871,1.075,3.582,2.944,3.826
			c0.15,0.021,0.299,0.029,0.447,0.029c1.688,0,3.156-1.251,3.379-2.973l10.24-78.507C157.227,59.913,155.909,58.201,154.04,57.957z
			"/>
	</g>
</g>
<g>
	<g>
		<path d="M64.826,139.409l-10.24-78.507c-0.244-1.869-1.94-3.191-3.826-2.944c-1.871,0.242-3.188,1.956-2.944,3.826l10.24,78.507
			c0.225,1.72,1.691,2.971,3.381,2.971c0.147,0,0.295-0.009,0.445-0.027C63.753,142.993,65.07,141.28,64.826,139.409z"/>
	</g>
</g>
<g>
	<g>
		<path d="M130.002,57.943c-1.888-0.188-3.533,1.225-3.695,3.104l-6.827,78.507c-0.164,1.877,1.225,3.531,3.104,3.695
			c0.101,0.01,0.2,0.014,0.299,0.014c1.751,0,3.243-1.34,3.396-3.118l6.827-78.507C133.27,59.761,131.881,58.107,130.002,57.943z"/>
	</g>
</g>
<g>
	<g>
		<path d="M78.495,61.048c-0.164-1.877-1.818-3.301-3.697-3.104c-1.877,0.164-3.268,1.818-3.104,3.695l6.827,78.507
			c0.155,1.778,1.645,3.118,3.396,3.118c0.099,0,0.198-0.003,0.3-0.014c1.877-0.164,3.268-1.818,3.104-3.695L78.495,61.048z"/>
	</g>
</g>
<g>
	<g>
		<path d="M102.4,57.93c-1.884,0-3.413,1.529-3.413,3.413v78.507c0,1.884,1.529,3.413,3.413,3.413c1.886,0,3.413-1.527,3.413-3.413
			V61.343C105.813,59.459,104.284,57.93,102.4,57.93z"/>
	</g>
</g>
<g>
	<g>
		<path d="M191.147,78.41h-153.6c-1.884,0-3.413,1.529-3.413,3.413c0,1.884,1.529,3.413,3.413,3.413h153.6
			c1.886,0,3.413-1.529,3.413-3.413C194.56,79.939,193.031,78.41,191.147,78.41z"/>
	</g>
</g>
<g>
	<g>
		<path d="M187.733,98.89H37.547c-1.884,0-3.413,1.529-3.413,3.413s1.529,3.413,3.413,3.413h150.187
			c1.886,0,3.413-1.529,3.413-3.413S189.618,98.89,187.733,98.89z"/>
	</g>
</g>
<g>
	<g>
		<path d="M184.32,119.37H40.96c-1.884,0-3.413,1.529-3.413,3.413s1.529,3.413,3.413,3.413h143.36c1.886,0,3.413-1.529,3.413-3.413
			S186.204,119.37,184.32,119.37z"/>
	</g>
</g>
<g>
	<g>
		<path d="M122.88,16.97c-1.884,0-3.413,1.529-3.413,3.413V37.45c0,1.884,1.529,3.413,3.413,3.413c1.886,0,3.413-1.527,3.413-3.413
			V20.383C126.293,18.499,124.764,16.97,122.88,16.97z"/>
	</g>
</g>
<g>
	<g>
		<path d="M169.667,24.796c-1.333-1.333-3.494-1.333-4.826,0L151.187,38.45c-1.333,1.333-1.333,3.494,0,4.826
			c0.667,0.667,1.539,1,2.413,1c0.874,0,1.746-0.333,2.413-1l13.653-13.653C171,28.29,171,26.129,169.667,24.796z"/>
	</g>
</g>
<g>
	<g>
		<path d="M94.573,38.45L80.92,24.796c-1.331-1.333-3.495-1.333-4.826,0c-1.333,1.333-1.333,3.494,0,4.826l13.653,13.653
			c0.666,0.667,1.539,1,2.413,1c0.874,0,1.748-0.333,2.413-1C95.906,41.943,95.906,39.783,94.573,38.45z"/>
	</g>
</g>
<g>
</g>
<g>
</g>
<g>
</g>
<g>
</g>
<g>
</g>
<g>
</g>
<g>
</g>
<g>
</g>
<g>
</g>
<g>
</g>
<g>
</g>
<g>
</g>
<g>
</g>
<g>
</g>
<g>
</g>
</svg>
