<?xml version="1.0" encoding="iso-8859-1"?>
<!-- Generator: Adobe Illustrator 19.0.0, SVG Export Plug-In . SVG Version: 6.00 Build 0)  -->
<svg version="1.1" id="Capa_1" xmlns="http://www.w3.org/2000/svg" xmlns:xlink="http://www.w3.org/1999/xlink" x="0px" y="0px"
	 viewBox="0 0 187.855 187.855" style="enable-background:new 0 0 187.855 187.855;" xml:space="preserve">
<g>
	<g>
		<path d="M171.47,1.767H3.474c-1.295,0-2.482,0.732-3.058,1.893C-0.161,4.821-0.032,6.208,0.75,7.241l22.291,29.457L0.808,64.489
			c-0.819,1.022-0.98,2.429-0.411,3.61c0.568,1.184,1.765,1.935,3.077,1.935h180.907c1.884,0,3.413-1.529,3.413-3.413V18.092
			C187.794,9.091,180.471,1.767,171.47,1.767z M180.967,63.207H10.575l19.458-24.32c0.976-1.219,1-2.946,0.056-4.192L10.338,8.594
			H171.47c5.236,0,9.498,4.262,9.498,9.498V63.207z"/>
	</g>
</g>
<g>
	<g>
		<path d="M75.975,38.13c-1.166-1.374-2.987-2.294-5.463-2.76v-0.241c1.993-0.353,3.524-1.217,4.584-2.584
			c1.062-1.364,1.594-3.077,1.594-5.137c0-3.053-1.082-5.287-3.246-6.704c-2.161-1.413-5.67-2.123-10.527-2.123H52.45h-0.002v35.26
			h12.733c3.939,0,7.016-0.896,9.226-2.69c2.21-1.789,3.316-4.27,3.316-7.439C77.724,41.365,77.142,39.507,75.975,38.13z
			 M58.217,23.406h4.99c2.608,0,4.507,0.369,5.704,1.109c1.2,0.739,1.797,1.935,1.797,3.593c0,1.833-0.553,3.133-1.664,3.896
			c-1.111,0.763-2.871,1.143-5.28,1.143h-5.547V23.406z M69.804,47.608c-1.231,0.923-3.05,1.386-5.463,1.386h-6.123V37.829h5.832
			c2.557,0,4.463,0.442,5.717,1.326c1.254,0.884,1.881,2.244,1.881,4.077C71.647,45.226,71.034,46.682,69.804,47.608z"/>
	</g>
</g>
<g>
	<g>
		<polygon points="105.004,23.454 105.004,18.581 85.056,18.581 85.056,53.841 105.004,53.841 105.004,48.943 90.823,48.943 
			90.823,37.873 104.109,37.873 104.109,33.05 90.823,33.05 90.823,23.454 		"/>
	</g>
</g>
<g>
	<g>
		<path d="M132.111,40.121c-0.563-1.174-1.447-2.227-2.654-3.161c-1.203-0.93-3.103-1.937-5.69-3.014
			c-2.301-0.947-3.89-1.714-4.777-2.29c-0.882-0.58-1.516-1.193-1.903-1.847c-0.387-0.65-0.58-1.434-0.58-2.35
			c0-1.335,0.485-2.406,1.447-3.22c0.966-0.811,2.379-1.217,4.246-1.217c2.459,0,5.257,0.657,8.39,1.976l1.833-4.704
			c-3.343-1.48-6.702-2.22-10.08-2.22c-3.521,0-6.327,0.846-8.417,2.533c-2.091,1.69-3.137,4.002-3.137,6.946
			c0,2.347,0.66,4.357,1.98,6.03c1.316,1.669,3.582,3.156,6.799,4.459c3.12,1.253,5.176,2.34,6.173,3.256
			c0.997,0.916,1.497,2.034,1.497,3.35c0,1.464-0.543,2.63-1.63,3.5c-1.084,0.867-2.767,1.301-5.05,1.301
			c-1.56,0-3.243-0.217-5.053-0.65s-3.517-1.031-5.123-1.787v5.453c2.539,1.237,5.803,1.857,9.789,1.857s7.113-0.893,9.38-2.676
			c2.266-1.787,3.4-4.246,3.4-7.38C132.95,42.674,132.674,41.295,132.111,40.121z"/>
	</g>
</g>
<g>
	<g>
		<polygon points="135.824,18.581 135.824,23.527 146.194,23.527 146.194,53.841 151.957,53.841 151.957,23.527 162.327,23.527 
			162.327,18.581 		"/>
	</g>
</g>
<g>
	<g>
		<path d="M187.045,180.542l-22.233-27.791l22.291-29.457c0.782-1.034,0.911-2.422,0.335-3.581
			c-0.577-1.159-1.761-1.893-3.057-1.893H3.474c-1.884,0-3.413,1.529-3.413,3.413v48.529c0,9.001,7.323,16.324,16.324,16.324
			h167.996c1.312,0,2.509-0.751,3.075-1.935C188.024,182.971,187.864,181.566,187.045,180.542z M16.385,179.261
			c-5.236,0-9.498-4.262-9.498-9.498v-45.116h170.631l-19.753,26.102c-0.944,1.246-0.92,2.973,0.056,4.192l19.456,24.32H16.385z"/>
	</g>
</g>
<g>
	<g>
		<path d="M47.968,141.17c-2.464-2.726-5.953-4.089-10.467-4.089c-4.582,0-8.11,1.343-10.583,4.029
			c-2.47,2.688-3.707,6.533-3.707,11.547c0,5.014,1.231,8.88,3.686,11.6c2.456,2.72,5.975,4.084,10.563,4.084
			c4.526,0,8.026-1.374,10.496-4.113c2.473-2.744,3.71-6.584,3.71-11.527C51.667,147.74,50.435,143.9,47.968,141.17z
			 M44.137,161.237c-1.504,1.91-3.729,2.864-6.677,2.864c-2.964,0-5.2-0.963-6.711-2.896c-1.51-1.929-2.263-4.767-2.263-8.503
			c0-3.727,0.758-6.55,2.273-8.479c1.516-1.923,3.763-2.886,6.74-2.886c2.949,0,5.166,0.963,6.656,2.886
			c1.49,1.927,2.234,4.75,2.234,8.477C46.39,156.48,45.641,159.323,44.137,161.237z"/>
	</g>
</g>
<g>
	<g>
		<polygon points="75.325,141.753 75.325,137.556 58.19,137.556 58.19,167.923 63.11,167.923 63.112,167.923 63.112,155.461 
			74.558,155.461 74.558,151.244 63.112,151.244 63.112,141.753 		"/>
	</g>
</g>
<g>
	<g>
		<polygon points="97.964,141.753 97.964,137.556 80.83,137.556 80.83,167.923 85.751,167.923 85.751,155.461 97.197,155.461 
			97.197,151.244 85.751,151.244 85.751,141.753 		"/>
	</g>
</g>
<g>
	<g>
		<polygon points="108.431,163.708 108.431,154.174 119.874,154.174 119.874,150.02 108.431,150.02 108.431,141.753 
			120.643,141.753 120.643,137.556 103.468,137.556 103.468,167.923 120.643,167.923 120.643,163.708 		"/>
	</g>
</g>
<g>
	<g>
		<path d="M141.417,154.483c3.93-1.603,5.896-4.296,5.896-8.076c0-2.964-0.939-5.181-2.823-6.647
			c-1.884-1.469-4.784-2.203-8.704-2.203h-8.576v30.367h4.963v-12.129h4.898l7.27,12.129h5.651L141.417,154.483z M135.621,151.681
			h-3.447v-9.926h3.28c2.258,0,3.948,0.372,5.07,1.12c1.12,0.749,1.683,1.98,1.683,3.697c0,1.69-0.521,2.963-1.56,3.823
			C139.611,151.254,137.934,151.681,135.621,151.681z"/>
	</g>
</g>
<g>
	<g>
		<path d="M187.738,65.728c-0.404-1.522-1.782-2.582-3.357-2.582H99.047c-0.606,0-1.198,0.157-1.724,0.457L1.75,118.217
			c-1.369,0.782-2.038,2.386-1.633,3.908s1.782,2.582,3.357,2.582h85.333c0.604,0,1.198-0.157,1.724-0.457l95.573-54.613
			C187.473,68.855,188.142,67.25,187.738,65.728z M87.886,117.761H16.554l83.415-47.667h71.332L87.886,117.761z"/>
	</g>
</g>
<g>
</g>
<g>
</g>
<g>
</g>
<g>
</g>
<g>
</g>
<g>
</g>
<g>
</g>
<g>
</g>
<g>
</g>
<g>
</g>
<g>
</g>
<g>
</g>
<g>
</g>
<g>
</g>
<g>
</g>
</svg>
