<?xml version="1.0" encoding="iso-8859-1"?>
<!-- Generator: Adobe Illustrator 19.0.0, SVG Export Plug-In . SVG Version: 6.00 Build 0)  -->
<svg version="1.1" id="Capa_1" xmlns="http://www.w3.org/2000/svg" xmlns:xlink="http://www.w3.org/1999/xlink" x="0px" y="0px"
	 viewBox="0 0 218.453 218.453" style="enable-background:new 0 0 218.453 218.453;" xml:space="preserve">
<g>
	<g>
		<path d="M80.172,69.973c1.884,0,3.413-1.529,3.413-3.413s-1.529-3.413-3.413-3.413H16.988c-1.884,0-3.413,1.529-3.413,3.413
			v85.333c0,1.884,1.529,3.413,3.413,3.413h61.44c1.884,0,3.413-1.529,3.413-3.413s-1.529-3.413-3.413-3.413H20.401V69.973H80.172z"
			/>
	</g>
</g>
<g>
	<g>
		<path d="M71.68,63.147H13.653v-8.8c0-4.559,3.709-8.267,8.267-8.267h47.285c1.884,0,3.413-1.529,3.413-3.413
			s-1.529-3.413-3.413-3.413H21.92c-8.323,0-15.094,6.772-15.094,15.094V66.56c0,1.884,1.529,3.413,3.413,3.413h61.44
			c1.884,0,3.413-1.529,3.413-3.413S73.564,63.147,71.68,63.147z"/>
	</g>
</g>
<g>
	<g>
		<path d="M197.973,63.147H78.428c-1.884,0-3.413,1.529-3.413,3.413v85.333c0,1.884,1.529,3.413,3.413,3.413h119.545
			c1.884,0,3.413-1.529,3.413-3.413V66.56C201.387,64.676,199.858,63.147,197.973,63.147z M194.56,148.48H81.842V69.973H194.56
			V148.48z"/>
	</g>
</g>
<g>
	<g>
		<path d="M189.706,29.013H83.36c-8.323,0-15.094,6.772-15.094,15.094V66.56c0,1.884,1.529,3.413,3.413,3.413h129.707
			c1.884,0,3.413-1.529,3.413-3.413V44.107C204.8,35.785,198.028,29.013,189.706,29.013z M197.973,63.147H75.093v-19.04
			c0-4.559,3.709-8.267,8.267-8.267h106.346c4.558,0,8.267,3.709,8.267,8.267V63.147z"/>
	</g>
</g>
<g>
	<g>
		<path d="M184.32,63.147h-34.133c-1.884,0-3.413,1.529-3.413,3.413v40.96c0,1.229,0.662,2.365,1.732,2.97
			c1.068,0.609,2.382,0.592,3.437-0.043l15.31-9.187l15.31,9.187c0.541,0.324,1.149,0.486,1.756,0.486
			c0.579,0,1.161-0.147,1.681-0.444c1.07-0.604,1.732-1.739,1.732-2.97V66.56C187.733,64.676,186.204,63.147,184.32,63.147z
			 M180.907,101.492l-11.897-7.139c-0.541-0.324-1.149-0.486-1.756-0.486s-1.215,0.162-1.756,0.486l-11.897,7.139V69.973h27.307
			V101.492z"/>
	</g>
</g>
<g>
	<g>
		<path d="M61.44,63.147H34.133c-1.884,0-3.413,1.529-3.413,3.413v34.133c0,1.241,0.672,2.383,1.758,2.985
			c1.087,0.604,2.413,0.568,3.465-0.09l11.844-7.404l11.844,7.404c0.553,0.345,1.179,0.519,1.809,0.519
			c0.568,0,1.138-0.142,1.656-0.428c1.084-0.602,1.758-1.744,1.758-2.985V66.56C64.853,64.676,63.324,63.147,61.44,63.147z
			 M58.027,94.536l-8.431-5.27c-0.553-0.345-1.181-0.519-1.809-0.519s-1.256,0.174-1.809,0.519l-8.431,5.27V69.973h20.48V94.536z"/>
	</g>
</g>
<g>
	<g>
		<path d="M215.04,148.48H3.413c-1.884,0-3.413,1.529-3.413,3.413v10.24c0,1.884,1.529,3.413,3.413,3.413H215.04
			c1.884,0,3.413-1.529,3.413-3.413v-10.24C218.453,150.009,216.924,148.48,215.04,148.48z M211.627,158.72H6.827v-3.413h204.8
			V158.72z"/>
	</g>
</g>
<g>
	<g>
		<path d="M37.547,158.72H3.413c-1.884,0-3.413,1.529-3.413,3.413v23.893c0,1.884,1.529,3.413,3.413,3.413h34.133
			c1.884,0,3.413-1.529,3.413-3.413v-23.893C40.96,160.249,39.431,158.72,37.547,158.72z M34.133,182.613H6.827v-17.067h27.307
			V182.613z"/>
	</g>
</g>
<g>
	<g>
		<path d="M215.04,158.72h-34.133c-1.884,0-3.413,1.529-3.413,3.413v23.893c0,1.884,1.529,3.413,3.413,3.413h34.133
			c1.884,0,3.413-1.529,3.413-3.413v-23.893C218.453,160.249,216.924,158.72,215.04,158.72z M211.627,182.613H184.32v-17.067h27.307
			V182.613z"/>
	</g>
</g>
<g>
</g>
<g>
</g>
<g>
</g>
<g>
</g>
<g>
</g>
<g>
</g>
<g>
</g>
<g>
</g>
<g>
</g>
<g>
</g>
<g>
</g>
<g>
</g>
<g>
</g>
<g>
</g>
<g>
</g>
</svg>
