<?xml version="1.0" encoding="iso-8859-1"?>
<!-- Generator: Adobe Illustrator 19.0.0, SVG Export Plug-In . SVG Version: 6.00 Build 0)  -->
<svg version="1.1" id="Capa_1" xmlns="http://www.w3.org/2000/svg" xmlns:xlink="http://www.w3.org/1999/xlink" x="0px" y="0px"
	 viewBox="0 0 191.147 191.147" style="enable-background:new 0 0 191.147 191.147;" xml:space="preserve">
<g>
	<g>
		<path d="M37.608,80.841H3.413C1.529,80.841,0,82.371,0,84.255V102.4c0,37.642,30.624,68.267,68.267,68.267h10.24
			c1.884,0,3.413-1.529,3.413-3.413v-42.1C81.92,100.719,62.041,80.841,37.608,80.841z M75.093,163.84h-6.827
			c-33.879,0-61.44-27.561-61.44-61.44V87.668h30.781c20.669,0,37.485,16.816,37.485,37.485V163.84z"/>
	</g>
</g>
<g>
	<g>
		<path d="M187.733,80.841h-34.195c-24.434,0-44.312,19.879-44.312,44.312v42.1c0,1.884,1.529,3.413,3.413,3.413h10.24
			c37.642,0,68.267-30.624,68.267-68.267V84.255C191.147,82.371,189.618,80.841,187.733,80.841z M184.32,102.4
			c0,33.879-27.561,61.44-61.44,61.44h-6.827v-38.687c0-20.669,16.816-37.485,37.485-37.485h30.781V102.4z"/>
	</g>
</g>
<g>
	<g>
		<path d="M115.695,143.541c-0.843-1.686-2.891-2.374-4.581-1.527L76.981,159.08c-1.688,0.845-2.371,2.895-1.527,4.581
			c0.599,1.196,1.804,1.886,3.057,1.886c0.512,0,1.033-0.114,1.524-0.358l34.133-17.067
			C115.855,147.277,116.538,145.227,115.695,143.541z"/>
	</g>
</g>
<g>
	<g>
		<path d="M114.166,159.078l-34.133-17.067c-1.691-0.847-3.739-0.157-4.581,1.527c-0.843,1.688-0.159,3.738,1.527,4.581
			l34.133,17.067c0.492,0.246,1.012,0.36,1.524,0.36c1.253,0,2.458-0.69,3.057-1.888
			C116.536,161.971,115.852,159.921,114.166,159.078z"/>
	</g>
</g>
<g>
	<g>
		<path d="M10.24,20.48c-1.884,0-3.413,1.529-3.413,3.413V81.92c0,1.884,1.529,3.413,3.413,3.413s3.413-1.529,3.413-3.413V23.893
			C13.653,22.009,12.124,20.48,10.24,20.48z"/>
	</g>
</g>
<g>
	<g>
		<path d="M180.907,20.48c-1.884,0-3.413,1.529-3.413,3.413V81.92c0,1.884,1.529,3.413,3.413,3.413c1.884,0,3.413-1.529,3.413-3.413
			V23.893C184.32,22.009,182.791,20.48,180.907,20.48z"/>
	</g>
</g>
<g>
</g>
<g>
</g>
<g>
</g>
<g>
</g>
<g>
</g>
<g>
</g>
<g>
</g>
<g>
</g>
<g>
</g>
<g>
</g>
<g>
</g>
<g>
</g>
<g>
</g>
<g>
</g>
<g>
</g>
</svg>
