<?xml version="1.0" encoding="iso-8859-1"?>
<!-- Generator: Adobe Illustrator 19.0.0, SVG Export Plug-In . SVG Version: 6.00 Build 0)  -->
<svg version="1.1" id="Capa_1" xmlns="http://www.w3.org/2000/svg" xmlns:xlink="http://www.w3.org/1999/xlink" x="0px" y="0px"
	 viewBox="0 0 215.04 215.04" style="enable-background:new 0 0 215.04 215.04;" xml:space="preserve">
<g>
	<g>
		<path d="M85.886,150.187H27.213c-8.417,0-15.266-6.847-15.266-15.266V47.787c0-1.884-1.529-3.413-3.413-3.413
			c-1.884,0-3.413,1.529-3.413,3.413v87.134c0,12.182,9.911,22.093,22.095,22.093h58.673c1.884,0,3.412-1.529,3.412-3.413
			S87.771,150.187,85.886,150.187z"/>
	</g>
</g>
<g>
	<g>
		<path d="M206.507,44.373c-1.884,0-3.413,1.529-3.413,3.413v87.132c0,4.564-2.019,8.852-5.538,11.767
			c-1.452,1.203-1.655,3.354-0.452,4.806c0.674,0.816,1.649,1.237,2.63,1.237c0.766,0,1.539-0.258,2.176-0.783
			c5.091-4.217,8.011-10.423,8.011-17.026V47.787C209.92,45.903,208.391,44.373,206.507,44.373z"/>
	</g>
</g>
<g>
	<g>
		<path d="M206.507,20.48H8.533c-1.884,0-3.413,1.529-3.413,3.413v21.325c0,14.59,11.872,26.462,26.462,26.462h22.711
			c1.884,0,3.413-1.529,3.413-3.413c0-1.884-1.529-3.413-3.413-3.413H31.582c-10.827,0-19.635-8.808-19.635-19.635V27.307h191.147
			v17.911c0,10.827-8.808,19.635-19.635,19.635h-20.021c-1.884,0-3.413,1.529-3.413,3.413c0,1.884,1.529,3.413,3.413,3.413h20.021
			c14.592,0,26.462-11.872,26.462-26.462V23.893C209.92,22.009,208.391,20.48,206.507,20.48z"/>
	</g>
</g>
<g>
	<g>
		<path d="M139.501,64.853H77.909c-1.884,0-3.413,1.529-3.413,3.413c0,1.884,1.529,3.413,3.413,3.413h61.592
			c1.886,0,3.413-1.529,3.413-3.413C142.915,66.382,141.385,64.853,139.501,64.853z"/>
	</g>
</g>
<g>
	<g>
		<path d="M125.804,0H89.237c-8.74,0-15.85,7.11-15.85,15.85v8.044c0,1.884,1.529,3.413,3.413,3.413h61.44
			c1.884,0,3.413-1.529,3.413-3.413V15.85C141.653,7.11,134.543,0,125.804,0z M134.827,20.48H80.213v-4.63
			c0-4.975,4.048-9.023,9.023-9.023h36.567c4.975,0,9.023,4.048,9.023,9.023V20.48z"/>
	</g>
</g>
<g>
	<g>
		<path d="M76.8,51.2H56.32c-1.884,0-3.413,1.529-3.413,3.413v23.893c0,7.528,6.125,13.653,13.653,13.653
			c7.528,0,13.653-6.125,13.653-13.653V54.613C80.213,52.729,78.684,51.2,76.8,51.2z M73.387,78.507
			c0,3.765-3.062,6.827-6.827,6.827c-3.765,0-6.827-3.062-6.827-6.827v-20.48h13.653V78.507z"/>
	</g>
</g>
<g>
	<g>
		<path d="M143.36,95.573c-32.937,0-59.733,26.796-59.733,59.733s26.796,59.733,59.733,59.733s59.733-26.796,59.733-59.733
			S176.297,95.573,143.36,95.573z M143.36,208.213c-29.174,0-52.907-23.733-52.907-52.907c0-29.172,23.733-52.907,52.907-52.907
			c29.174,0,52.907,23.735,52.907,52.907C196.267,184.48,172.534,208.213,143.36,208.213z"/>
	</g>
</g>
<g>
	<g>
		<path d="M162.133,51.2h-20.48c-1.884,0-3.413,1.529-3.413,3.413v23.893c0,7.528,6.125,13.653,13.653,13.653
			c7.528,0,13.653-6.125,13.653-13.653V54.613C165.547,52.729,164.018,51.2,162.133,51.2z M158.72,78.507
			c0,3.765-3.062,6.827-6.827,6.827s-6.827-3.062-6.827-6.827v-20.48h13.653V78.507z"/>
	</g>
</g>
<g>
	<g>
		<path d="M188.667,137.784c-0.649-0.79-1.616-1.249-2.64-1.249h-70.721l-1.06-4.241c-0.459-1.831-2.313-2.937-4.14-2.485
			c-1.828,0.457-2.941,2.311-2.483,4.139l10.24,40.96c0.379,1.519,1.744,2.586,3.311,2.586H179.2c1.626,0,3.028-1.149,3.347-2.743
			l6.827-34.133C189.575,139.616,189.315,138.574,188.667,137.784z M176.403,170.667h-52.564l-6.827-27.307h64.852L176.403,170.667z
			"/>
	</g>
</g>
<g>
	<g>
		<g>
			<circle cx="134.827" cy="184.32" r="6.827"/>
			<circle cx="165.547" cy="184.32" r="6.827"/>
		</g>
	</g>
</g>
<g>
	<g>
		<path d="M182.613,153.6H117.76c-1.884,0-3.413,1.529-3.413,3.413s1.529,3.413,3.413,3.413h64.853c1.884,0,3.413-1.529,3.413-3.413
			S184.497,153.6,182.613,153.6z"/>
	</g>
</g>
<g>
	<g>
		<path d="M110.933,129.707h-10.24c-1.884,0-3.413,1.529-3.413,3.413c0,1.884,1.529,3.413,3.413,3.413h10.24
			c1.884,0,3.413-1.529,3.413-3.413C114.347,131.236,112.818,129.707,110.933,129.707z"/>
	</g>
</g>
<g>
</g>
<g>
</g>
<g>
</g>
<g>
</g>
<g>
</g>
<g>
</g>
<g>
</g>
<g>
</g>
<g>
</g>
<g>
</g>
<g>
</g>
<g>
</g>
<g>
</g>
<g>
</g>
<g>
</g>
</svg>
