<?xml version="1.0" encoding="iso-8859-1"?>
<!-- Generator: Adobe Illustrator 19.0.0, SVG Export Plug-In . SVG Version: 6.00 Build 0)  -->
<svg version="1.1" id="Capa_1" xmlns="http://www.w3.org/2000/svg" xmlns:xlink="http://www.w3.org/1999/xlink" x="0px" y="0px"
	 viewBox="0 0 198.093 198.093" style="enable-background:new 0 0 198.093 198.093;" xml:space="preserve">
<g>
	<g>
		<path d="M99.046,0C44.431,0,0,44.431,0,99.046s44.431,99.046,99.046,99.046s99.046-44.431,99.046-99.046S153.661,0,99.046,0z
			 M99.046,191.147c-50.784,0-92.1-41.317-92.1-92.1s41.317-92.1,92.1-92.1s92.1,41.317,92.1,92.1S149.83,191.147,99.046,191.147z"
			/>
	</g>
</g>
<g>
	<g>
		<path d="M99.046,10.24c-48.968,0-88.806,39.839-88.806,88.806c0,1.918,1.555,3.473,3.473,3.473c1.918,0,3.473-1.555,3.473-3.473
			c0-45.138,36.722-81.86,81.86-81.86c1.918,0,3.473-1.555,3.473-3.473C102.519,11.795,100.965,10.24,99.046,10.24z"/>
	</g>
</g>
<g>
	<g>
		<path d="M99.046,37.606c-33.879,0-61.44,27.561-61.44,61.44s27.561,61.44,61.44,61.44s61.44-27.561,61.44-61.44
			S132.925,37.606,99.046,37.606z M99.046,153.66c-30.114,0-54.613-24.499-54.613-54.613s24.499-54.613,54.613-54.613
			s54.613,24.499,54.613,54.613S129.161,153.66,99.046,153.66z"/>
	</g>
</g>
<g>
	<g>
		<path d="M78.566,109.286c-5.647,0-10.24,4.593-10.24,10.24c0,5.647,4.593,10.24,10.24,10.24c5.647,0,10.24-4.593,10.24-10.24
			C88.806,113.879,84.214,109.286,78.566,109.286z M78.566,122.94c-1.882,0-3.413-1.531-3.413-3.413s1.531-3.413,3.413-3.413
			s3.413,1.531,3.413,3.413S80.449,122.94,78.566,122.94z"/>
	</g>
</g>
<g>
	<g>
		<path d="M119.526,109.286c-5.647,0-10.24,4.593-10.24,10.24c0,5.647,4.593,10.24,10.24,10.24c5.647,0,10.24-4.593,10.24-10.24
			C129.766,113.879,125.174,109.286,119.526,109.286z M119.526,122.94c-1.882,0-3.413-1.531-3.413-3.413s1.531-3.413,3.413-3.413
			s3.413,1.531,3.413,3.413S121.409,122.94,119.526,122.94z"/>
	</g>
</g>
<g>
	<g>
		<path d="M78.566,68.326c-5.647,0-10.24,4.593-10.24,10.24c0,5.647,4.593,10.24,10.24,10.24c5.647,0,10.24-4.593,10.24-10.24
			C88.806,72.919,84.214,68.326,78.566,68.326z M78.566,81.98c-1.882,0-3.413-1.531-3.413-3.413s1.531-3.413,3.413-3.413
			s3.413,1.531,3.413,3.413S80.449,81.98,78.566,81.98z"/>
	</g>
</g>
<g>
	<g>
		<path d="M119.526,68.326c-5.647,0-10.24,4.593-10.24,10.24c0,5.647,4.593,10.24,10.24,10.24c5.647,0,10.24-4.593,10.24-10.24
			C129.766,72.919,125.174,68.326,119.526,68.326z M119.526,81.98c-1.882,0-3.413-1.531-3.413-3.413s1.531-3.413,3.413-3.413
			s3.413,1.531,3.413,3.413S121.409,81.98,119.526,81.98z"/>
	</g>
</g>
<g>
	<g>
		<path d="M194.62,191.147h-6.827c-5.613,0-10.18-4.567-10.18-10.18V92.22c0-9.443-7.683-17.126-17.126-17.126h-40.96
			c-1.918,0-3.473,1.555-3.473,3.473c0,1.918,1.555,3.473,3.473,3.473h40.96c5.613,0,10.18,4.567,10.18,10.18v88.747
			c0,9.443,7.683,17.126,17.126,17.126h6.827c1.918,0,3.473-1.555,3.473-3.473C198.093,192.701,196.538,191.147,194.62,191.147z"/>
	</g>
</g>
<g>
</g>
<g>
</g>
<g>
</g>
<g>
</g>
<g>
</g>
<g>
</g>
<g>
</g>
<g>
</g>
<g>
</g>
<g>
</g>
<g>
</g>
<g>
</g>
<g>
</g>
<g>
</g>
<g>
</g>
</svg>
