<?xml version="1.0" encoding="iso-8859-1"?>
<!-- Generator: Adobe Illustrator 19.0.0, SVG Export Plug-In . SVG Version: 6.00 Build 0)  -->
<svg version="1.1" id="Capa_1" xmlns="http://www.w3.org/2000/svg" xmlns:xlink="http://www.w3.org/1999/xlink" x="0px" y="0px"
	 viewBox="0 0 218.453 218.453" style="enable-background:new 0 0 218.453 218.453;" xml:space="preserve">
<g>
	<g>
		<path d="M186.027,13.653h-153.6C14.546,13.653,0,28.199,0,46.08s14.546,32.427,32.427,32.427H36.2
			c1.884,0,3.413-1.529,3.413-3.413c0-1.884-1.529-3.413-3.413-3.413h-3.773c-14.116,0-25.6-11.484-25.6-25.6s11.484-25.6,25.6-25.6
			h153.6c14.116,0,25.6,11.484,25.6,25.6s-11.484,25.6-25.6,25.6H56.94c-1.884,0-3.413,1.529-3.413,3.413
			c0,1.884,1.529,3.413,3.413,3.413h129.087c17.881,0,32.427-14.546,32.427-32.427S203.907,13.653,186.027,13.653z"/>
	</g>
</g>
<g>
	<g>
		<path d="M92.981,50.016c-1.166-1.374-2.987-2.294-5.463-2.76v-0.241c1.993-0.353,3.524-1.217,4.584-2.584
			c1.062-1.364,1.594-3.077,1.594-5.137c0-3.053-1.082-5.287-3.246-6.704c-2.161-1.413-5.67-2.123-10.527-2.123H69.456h-0.002v35.26
			h12.733c3.939,0,7.016-0.896,9.226-2.69c2.21-1.789,3.316-4.27,3.316-7.439C94.73,53.251,94.148,51.393,92.981,50.016z
			 M75.223,35.292h4.99c2.608,0,4.507,0.369,5.704,1.109c1.2,0.739,1.797,1.935,1.797,3.593c0,1.833-0.553,3.133-1.664,3.896
			c-1.111,0.763-2.871,1.143-5.28,1.143h-5.547V35.292z M86.81,59.494c-1.231,0.923-3.05,1.386-5.463,1.386h-6.123V49.715h5.832
			c2.557,0,4.463,0.442,5.717,1.326c1.254,0.884,1.881,2.244,1.881,4.077C88.653,57.112,88.04,58.568,86.81,59.494z"/>
	</g>
</g>
<g>
	<g>
		<path d="M123.94,30.467v22.26c0,5.711-2.719,8.564-8.153,8.564c-2.795,0-4.869-0.693-6.222-2.074
			c-1.35-1.382-2.024-3.529-2.024-6.439v-22.31h-5.791v22.719c0,4.05,1.213,7.235,3.644,9.55c2.427,2.313,5.828,3.473,10.201,3.473
			c2.942,0,5.47-0.527,7.586-1.58c2.113-1.055,3.731-2.557,4.847-4.511c1.116-1.954,1.676-4.234,1.676-6.837V30.467H123.94z"/>
	</g>
</g>
<g>
	<g>
		<polygon points="157.027,30.466 148.68,46.553 140.336,30.466 134.065,30.466 145.763,52.246 145.763,65.725 151.55,65.725 
			151.55,52.052 163.297,30.466 		"/>
	</g>
</g>
<g>
	<g>
		<path d="M82.024,92.16l-23.997-3.012V59.733c0-6.588-5.361-11.947-11.947-11.947c-6.586,0-11.947,5.359-11.947,11.947v80.676
			c0,6.832,4.094,12.793,10.24,15.319v45.659c0,1.884,1.529,3.413,3.413,3.413H92.16c1.884,0,3.413-1.529,3.413-3.413v-45.66
			c6.146-2.526,10.24-8.487,10.24-15.319v-24.236C105.813,103.004,95.162,92.279,82.024,92.16z M98.987,140.409
			c0,4.57-3.122,8.48-7.59,9.506c-1.551,0.355-2.65,1.736-2.65,3.326v44.732H51.2v-44.732c0-1.591-1.099-2.971-2.65-3.326
			c-4.468-1.026-7.59-4.934-7.59-9.506V59.733c0-2.823,2.297-5.12,5.12-5.12s5.12,2.297,5.12,5.12V92.16
			c0,1.72,1.28,3.173,2.988,3.386l27.189,3.413c0.142,0.019,0.283,0.027,0.425,0.027c9.475,0,17.184,7.709,17.184,17.186V140.409z"
			/>
	</g>
</g>
<g>
	<g>
		<path d="M54.613,88.747c-1.884,0-3.413,1.529-3.413,3.413v17.067c0,1.884,1.529,3.413,3.413,3.413s3.413-1.529,3.413-3.413V92.16
			C58.027,90.276,56.497,88.747,54.613,88.747z"/>
	</g>
</g>
<g>
	<g>
		<path d="M68.267,92.16c-1.884,0-3.413,1.529-3.413,3.413v10.24c0,1.884,1.529,3.413,3.413,3.413s3.413-1.529,3.413-3.413v-10.24
			C71.68,93.689,70.151,92.16,68.267,92.16z"/>
	</g>
</g>
<g>
	<g>
		<path d="M81.92,92.16c-1.884,0-3.413,1.529-3.413,3.413v10.24c0,1.884,1.529,3.413,3.413,3.413c1.884,0,3.413-1.529,3.413-3.413
			v-10.24C85.333,93.689,83.804,92.16,81.92,92.16z"/>
	</g>
</g>
<g>
	<g>
		<path d="M188.146,101.4l-9.653-9.655c-1.333-1.333-3.494-1.331-4.826,0c-1.333,1.335-1.333,3.495,0,4.828l9.653,9.655
			c0.667,0.667,1.539,1,2.413,1s1.748-0.334,2.413-1C189.479,104.893,189.479,102.733,188.146,101.4z"/>
	</g>
</g>
<g>
	<g>
		<path d="M188.146,91.747c-1.333-1.333-3.494-1.333-4.826,0l-9.653,9.655c-1.333,1.335-1.333,3.495,0,4.828
			c0.667,0.666,1.539,0.998,2.413,0.998c0.874,0,1.746-0.334,2.413-0.998l9.653-9.655C189.479,95.241,189.479,93.08,188.146,91.747z
			"/>
	</g>
</g>
<g>
	<g>
		<path d="M136.946,118.467l-9.653-9.655c-1.333-1.333-3.494-1.331-4.826,0c-1.333,1.335-1.333,3.495,0,4.828l9.653,9.655
			c0.667,0.667,1.539,1,2.413,1s1.748-0.335,2.413-1C138.279,121.96,138.279,119.799,136.946,118.467z"/>
	</g>
</g>
<g>
	<g>
		<path d="M136.946,108.814c-1.333-1.333-3.494-1.333-4.826,0l-9.653,9.655c-1.333,1.335-1.333,3.495,0,4.828
			c0.667,0.666,1.539,0.998,2.413,0.998s1.746-0.335,2.413-0.998l9.653-9.655C138.279,112.307,138.279,110.147,136.946,108.814z"/>
	</g>
</g>
<g>
</g>
<g>
</g>
<g>
</g>
<g>
</g>
<g>
</g>
<g>
</g>
<g>
</g>
<g>
</g>
<g>
</g>
<g>
</g>
<g>
</g>
<g>
</g>
<g>
</g>
<g>
</g>
<g>
</g>
</svg>
