<?xml version="1.0" encoding="iso-8859-1"?>
<!-- Generator: Adobe Illustrator 19.0.0, SVG Export Plug-In . SVG Version: 6.00 Build 0)  -->
<svg version="1.1" id="Capa_1" xmlns="http://www.w3.org/2000/svg" xmlns:xlink="http://www.w3.org/1999/xlink" x="0px" y="0px"
	 viewBox="0 0 201.387 201.387" style="enable-background:new 0 0 201.387 201.387;" xml:space="preserve">
<g>
	<g>
		<path d="M184.829,15.36H16.558C7.429,15.36,0,22.787,0,31.918v92.669C0,126.471,1.529,128,3.413,128H120.32
			c1.884,0,3.413-1.529,3.413-3.413c0-1.884-1.529-3.413-3.413-3.413H6.827V31.918c0-5.366,4.364-9.731,9.731-9.731h168.271
			c5.366,0,9.731,4.364,9.731,9.731v89.255h-27.308c-1.884,0-3.413,1.529-3.413,3.413c0,1.884,1.529,3.413,3.413,3.413h30.722
			c1.884,0,3.413-1.529,3.413-3.413V31.918C201.387,22.789,193.959,15.36,184.829,15.36z"/>
	</g>
</g>
<g>
	<g>
		<path d="M134.825,151.893H16.558c-5.366,0-9.731-4.364-9.731-9.731V128H120.32c1.884,0,3.413-1.529,3.413-3.413
			c0-1.884-1.529-3.413-3.413-3.413H3.413c-1.884,0-3.413,1.529-3.413,3.413v17.575c0,9.129,7.427,16.558,16.558,16.558h118.267
			c1.886,0,3.413-1.529,3.413-3.413S136.709,151.893,134.825,151.893z"/>
	</g>
</g>
<g>
	<g>
		<path d="M197.973,121.173h-30.722c-1.884,0-3.413,1.529-3.413,3.413c0,1.884,1.529,3.413,3.413,3.413h27.308v14.162
			c0,5.366-4.364,9.731-9.731,9.731h-33.362c-1.884,0-3.413,1.529-3.413,3.413s1.529,3.413,3.413,3.413h33.362
			c9.129,0,16.558-7.429,16.558-16.558v-17.575C201.387,122.703,199.858,121.173,197.973,121.173z"/>
	</g>
</g>
<g>
	<g>
		<path d="M100.693,131.413c-4.705,0-8.533,3.828-8.533,8.533c0,4.705,3.828,8.533,8.533,8.533c4.705,0,8.533-3.828,8.533-8.533
			C109.227,135.241,105.399,131.413,100.693,131.413z M100.693,141.653c-0.942,0-1.707-0.765-1.707-1.707s0.765-1.707,1.707-1.707
			s1.707,0.765,1.707,1.707S101.635,141.653,100.693,141.653z"/>
	</g>
</g>
<g>
	<g>
		<path d="M132.61,180.821l-16.867-27.307c-0.621-1.007-1.72-1.62-2.903-1.62H88.547c-1.183,0-2.282,0.613-2.903,1.62
			l-16.867,27.307c-0.652,1.053-0.681,2.374-0.079,3.456c0.602,1.079,1.742,1.749,2.982,1.749h58.027
			c1.239,0,2.379-0.671,2.982-1.749C133.289,183.197,133.262,181.874,132.61,180.821z M77.8,179.2l12.65-20.48h20.487l12.65,20.48
			H77.8z"/>
	</g>
</g>
<g>
	<g>
		<path d="M183.32,81.213c-1.333-1.333-3.494-1.333-4.826,0l-29.013,29.013c-1.333,1.333-1.333,3.494,0,4.826
			c0.667,0.667,1.539,1,2.413,1s1.746-0.333,2.413-1L183.32,86.04C184.653,84.707,184.653,82.546,183.32,81.213z"/>
	</g>
</g>
<g>
	<g>
		<path d="M186.733,98.28c-1.333-1.333-3.494-1.333-4.826,0l-10.24,10.24c-1.333,1.333-1.333,3.494,0,4.826
			c0.667,0.667,1.539,1,2.413,1c0.874,0,1.746-0.333,2.413-1l10.24-10.24C188.066,101.774,188.066,99.613,186.733,98.28z"/>
	</g>
</g>
<g>
	<g>
		<path d="M150.187,179.2h-102.4c-1.884,0-3.413,1.529-3.413,3.413c0,1.884,1.529,3.413,3.413,3.413h102.4
			c1.884,0,3.413-1.529,3.413-3.413C153.6,180.729,152.071,179.2,150.187,179.2z"/>
	</g>
</g>
<g>
	<g>
		<path d="M184.457,129.336l-74.407-35.791c-1.313-0.628-2.869-0.362-3.893,0.664c-1.026,1.024-1.292,2.586-0.664,3.893
			l35.79,74.407c0.57,1.184,1.766,1.934,3.077,1.934c0.012,0,0.026,0,0.036,0c1.326-0.015,2.522-0.795,3.07-2l11.54-25.383
			l25.383-11.54c1.205-0.548,1.985-1.746,2-3.07C186.404,131.125,185.65,129.911,184.457,129.336z M155.017,141.377
			c-0.749,0.34-1.353,0.944-1.693,1.693l-9.049,19.905l-28.406-59.052l59.052,28.406L155.017,141.377z"/>
	</g>
</g>
<g>
	<g>
		<path d="M187.39,170.617l-26.134-26.134c-1.333-1.333-3.494-1.333-4.826,0c-1.333,1.333-1.333,3.494,0,4.826l26.134,26.134
			c0.667,0.667,1.539,1,2.413,1c0.872,0,1.746-0.335,2.413-1C188.723,174.111,188.723,171.95,187.39,170.617z"/>
	</g>
</g>
<g>
	<g>
		<path d="M79.328,68.789c-1.166-1.374-2.987-2.294-5.463-2.76v-0.241c1.993-0.353,3.524-1.217,4.584-2.584
			c1.062-1.364,1.594-3.077,1.594-5.137c0-3.053-1.082-5.287-3.246-6.704c-2.161-1.413-5.67-2.123-10.527-2.123H55.803h-0.002v35.26
			h12.733c3.939,0,7.016-0.896,9.226-2.69c2.21-1.789,3.316-4.27,3.316-7.439C81.077,72.025,80.495,70.166,79.328,68.789z
			 M61.57,54.065h4.99c2.608,0,4.507,0.369,5.704,1.109c1.2,0.739,1.797,1.935,1.797,3.593c0,1.833-0.553,3.133-1.664,3.896
			c-1.111,0.763-2.871,1.143-5.28,1.143H61.57V54.065z M73.156,78.268c-1.231,0.923-3.05,1.386-5.463,1.386H61.57V68.489h5.832
			c2.557,0,4.463,0.442,5.717,1.326C74.373,70.699,75,72.059,75,73.892C75,75.885,74.387,77.341,73.156,78.268z"/>
	</g>
</g>
<g>
	<g>
		<path d="M110.287,49.241v22.26c0,5.711-2.719,8.564-8.153,8.564c-2.795,0-4.869-0.693-6.222-2.074
			c-1.35-1.382-2.024-3.529-2.024-6.439v-22.31h-5.791v22.719c0,4.05,1.213,7.235,3.644,9.55c2.427,2.313,5.828,3.473,10.201,3.473
			c2.942,0,5.47-0.527,7.586-1.58c2.113-1.055,3.731-2.557,4.847-4.511s1.676-4.234,1.676-6.837V49.241H110.287z"/>
	</g>
</g>
<g>
	<g>
		<polygon points="143.374,49.239 135.026,65.326 126.682,49.239 120.412,49.239 132.11,71.02 132.11,84.499 137.897,84.499 
			137.897,70.825 149.644,49.239 		"/>
	</g>
</g>
<g>
</g>
<g>
</g>
<g>
</g>
<g>
</g>
<g>
</g>
<g>
</g>
<g>
</g>
<g>
</g>
<g>
</g>
<g>
</g>
<g>
</g>
<g>
</g>
<g>
</g>
<g>
</g>
<g>
</g>
</svg>
