<?xml version="1.0" encoding="iso-8859-1"?>
<!-- Generator: Adobe Illustrator 19.0.0, SVG Export Plug-In . SVG Version: 6.00 Build 0)  -->
<svg version="1.1" id="Capa_1" xmlns="http://www.w3.org/2000/svg" xmlns:xlink="http://www.w3.org/1999/xlink" x="0px" y="0px"
	 viewBox="0 0 201.387 201.387" style="enable-background:new 0 0 201.387 201.387;" xml:space="preserve">
<g>
	<g>
		<path d="M184.829,15.36H16.558C7.429,15.36,0,22.787,0,31.918v92.669C0,126.471,1.529,128,3.413,128h117.76
			c1.884,0,3.413-1.529,3.413-3.413c0-1.884-1.529-3.413-3.413-3.413H6.827V31.918c0-5.366,4.364-9.731,9.731-9.731h168.271
			c5.366,0,9.731,4.364,9.731,9.731v89.255h-26.025c-1.884,0-3.413,1.529-3.413,3.413c0,1.884,1.529,3.413,3.413,3.413h29.438
			c1.884,0,3.413-1.529,3.413-3.413V31.918C201.387,22.789,193.959,15.36,184.829,15.36z"/>
	</g>
</g>
<g>
	<g>
		<path d="M135.68,151.893H16.558c-5.366,0-9.731-4.364-9.731-9.731V128h114.347c1.884,0,3.413-1.529,3.413-3.413
			c0-1.884-1.529-3.413-3.413-3.413H3.413c-1.884,0-3.413,1.529-3.413,3.413v17.575c0,9.129,7.427,16.558,16.558,16.558H135.68
			c1.884,0,3.413-1.529,3.413-3.413S137.564,151.893,135.68,151.893z"/>
	</g>
</g>
<g>
	<g>
		<path d="M197.973,121.173h-30.295c-1.884,0-3.413,1.529-3.413,3.413c0,1.884,1.529,3.413,3.413,3.413h26.882v14.162
			c0,5.366-4.364,9.731-9.731,9.731H152.32c-1.884,0-3.413,1.529-3.413,3.413s1.529,3.413,3.413,3.413h32.509
			c9.129,0,16.558-7.429,16.558-16.558v-17.575C201.387,122.703,199.858,121.173,197.973,121.173z"/>
	</g>
</g>
<g>
	<g>
		<path d="M100.693,131.413c-4.705,0-8.533,3.828-8.533,8.533c0,4.705,3.828,8.533,8.533,8.533c4.705,0,8.533-3.828,8.533-8.533
			C109.227,135.241,105.399,131.413,100.693,131.413z M100.693,141.653c-0.942,0-1.707-0.765-1.707-1.707s0.765-1.707,1.707-1.707
			s1.707,0.765,1.707,1.707S101.635,141.653,100.693,141.653z"/>
	</g>
</g>
<g>
	<g>
		<path d="M132.61,180.821l-16.867-27.307c-0.621-1.007-1.72-1.62-2.903-1.62H88.547c-1.183,0-2.282,0.613-2.903,1.62
			l-16.867,27.307c-0.652,1.053-0.681,2.374-0.079,3.456c0.602,1.079,1.742,1.749,2.982,1.749h58.027
			c1.239,0,2.379-0.671,2.982-1.749C133.289,183.197,133.262,181.874,132.61,180.821z M77.8,179.2l12.65-20.48h20.487l12.65,20.48
			H77.8z"/>
	</g>
</g>
<g>
	<g>
		<path d="M183.32,81.213c-1.333-1.333-3.494-1.333-4.826,0l-29.013,29.013c-1.333,1.333-1.333,3.494,0,4.826
			c0.667,0.667,1.539,1,2.413,1s1.746-0.333,2.413-1L183.32,86.04C184.653,84.707,184.653,82.546,183.32,81.213z"/>
	</g>
</g>
<g>
	<g>
		<path d="M186.733,98.28c-1.333-1.333-3.494-1.333-4.826,0l-10.24,10.24c-1.333,1.333-1.333,3.494,0,4.826
			c0.667,0.667,1.539,1,2.413,1c0.874,0,1.746-0.333,2.413-1l10.24-10.24C188.066,101.774,188.066,99.613,186.733,98.28z"/>
	</g>
</g>
<g>
	<g>
		<path d="M150.187,179.2h-102.4c-1.884,0-3.413,1.529-3.413,3.413c0,1.884,1.529,3.413,3.413,3.413h102.4
			c1.884,0,3.413-1.529,3.413-3.413C153.6,180.729,152.071,179.2,150.187,179.2z"/>
	</g>
</g>
<g>
	<g>
		<path d="M184.457,129.336l-74.407-35.791c-1.313-0.628-2.867-0.36-3.893,0.664c-1.026,1.024-1.292,2.586-0.664,3.893l35.79,74.407
			c0.57,1.184,1.766,1.934,3.077,1.934c0.012,0,0.026,0,0.036,0c1.326-0.015,2.522-0.795,3.07-2l11.54-25.383l25.383-11.54
			c1.205-0.548,1.985-1.746,2-3.07C186.404,131.125,185.65,129.911,184.457,129.336z M155.017,141.377
			c-0.749,0.34-1.353,0.944-1.693,1.693l-9.049,19.905l-28.406-59.052l59.052,28.406L155.017,141.377z"/>
	</g>
</g>
<g>
	<g>
		<path d="M187.39,170.617l-26.134-26.134c-1.333-1.333-3.494-1.333-4.826,0c-1.333,1.333-1.333,3.494,0,4.826l26.134,26.134
			c0.667,0.667,1.539,1,2.413,1c0.872,0,1.746-0.335,2.413-1C188.723,174.111,188.723,171.95,187.39,170.617z"/>
	</g>
</g>
<g>
	<g>
		<path d="M92.16,35.78H78.092c-1.621,0-3.026,1.121-3.386,2.703c-1.237,5.441-5.994,9.243-11.561,9.243
			c-5.567,0-10.322-3.802-11.563-9.245c-0.36-1.58-1.765-2.702-3.386-2.702H34.133c-1.918,0-3.473,1.555-3.473,3.473v68.267
			c0,1.918,1.555,3.473,3.473,3.473H92.16c1.918,0,3.473-1.555,3.473-3.473V39.253C95.633,37.335,94.078,35.78,92.16,35.78z
			 M88.687,104.047H37.606v-61.32h8.03c2.784,7.154,9.634,11.947,17.51,11.947c7.878,0,14.727-4.792,17.509-11.947h8.032V104.047z"
			/>
	</g>
</g>
<g>
	<g>
		<path d="M34.133,35.78H17.067c-1.918,0-3.473,1.555-3.473,3.473v20.48c0,1.657,1.169,3.082,2.792,3.407l17.067,3.413
			c0.225,0.044,0.454,0.067,0.681,0.067c0.797,0,1.577-0.273,2.202-0.787c0.806-0.659,1.271-1.647,1.271-2.686V39.253
			C37.606,37.335,36.052,35.78,34.133,35.78z M30.66,58.911l-10.12-2.026V42.728h10.12V58.911z"/>
	</g>
</g>
<g>
	<g>
		<path d="M109.227,35.78H92.16c-1.918,0-3.473,1.555-3.473,3.473v23.893c0,1.039,0.466,2.026,1.271,2.686
			c0.625,0.514,1.405,0.787,2.202,0.787c0.227,0,0.456-0.022,0.681-0.067l17.067-3.413c1.623-0.324,2.792-1.749,2.792-3.407v-20.48
			C112.7,37.335,111.145,35.78,109.227,35.78z M105.754,56.883l-10.12,2.026V42.726v-0.002h10.12V56.883z"/>
	</g>
</g>
<g>
</g>
<g>
</g>
<g>
</g>
<g>
</g>
<g>
</g>
<g>
</g>
<g>
</g>
<g>
</g>
<g>
</g>
<g>
</g>
<g>
</g>
<g>
</g>
<g>
</g>
<g>
</g>
<g>
</g>
</svg>
