<?xml version="1.0" encoding="iso-8859-1"?>
<!-- Generator: Adobe Illustrator 19.0.0, SVG Export Plug-In . SVG Version: 6.00 Build 0)  -->
<svg version="1.1" id="Capa_1" xmlns="http://www.w3.org/2000/svg" xmlns:xlink="http://www.w3.org/1999/xlink" x="0px" y="0px"
	 viewBox="0 0 208.215 208.215" style="enable-background:new 0 0 208.215 208.215;" xml:space="preserve">
<g>
	<g>
		<path d="M194.958,39.253h-181.7C5.946,39.253,0,45.201,0,52.511v103.194c0,7.311,5.948,13.257,13.257,13.257h181.699
			c7.311,0,13.257-5.946,13.259-13.257V52.511C208.215,45.199,202.267,39.253,194.958,39.253z M201.388,155.706
			c0,3.546-2.886,6.431-6.431,6.431h-181.7c-3.546,0-6.431-2.884-6.431-6.431V52.512c0-3.546,2.884-6.431,6.431-6.431h181.7
			c3.546,0,6.431,2.884,6.431,6.431V155.706z"/>
	</g>
</g>
<g>
	<g>
		<path d="M44.373,104.108H17.067c-1.884,0-3.413,1.529-3.413,3.413s1.529,3.413,3.413,3.413h27.307
			c1.884,0,3.413-1.529,3.413-3.413S46.257,104.108,44.373,104.108z"/>
	</g>
</g>
<g>
	<g>
		<path d="M71.68,121.175H17.067c-1.884,0-3.413,1.529-3.413,3.413c0,1.884,1.529,3.413,3.413,3.413H71.68
			c1.884,0,3.413-1.529,3.413-3.413C75.093,122.704,73.564,121.175,71.68,121.175z"/>
	</g>
</g>
<g>
	<g>
		<path d="M109.227,121.175h-20.48c-1.884,0-3.413,1.529-3.413,3.413c0,1.884,1.529,3.413,3.413,3.413h20.48
			c1.884,0,3.413-1.529,3.413-3.413C112.64,122.704,111.111,121.175,109.227,121.175z"/>
	</g>
</g>
<g>
	<g>
		<path d="M27.307,138.242h-10.24c-1.884,0-3.413,1.529-3.413,3.413s1.529,3.413,3.413,3.413h10.24c1.884,0,3.413-1.529,3.413-3.413
			S29.191,138.242,27.307,138.242z"/>
	</g>
</g>
<g>
	<g>
		<path d="M68.267,138.242H51.2c-1.884,0-3.413,1.529-3.413,3.413s1.529,3.413,3.413,3.413h17.067c1.884,0,3.413-1.529,3.413-3.413
			S70.151,138.242,68.267,138.242z"/>
	</g>
</g>
<g>
	<g>
		<path d="M85.333,104.108H58.027c-1.884,0-3.413,1.529-3.413,3.413s1.529,3.413,3.413,3.413h27.307
			c1.884,0,3.413-1.529,3.413-3.413S87.218,104.108,85.333,104.108z"/>
	</g>
</g>
<g>
	<g>
		<path d="M126.293,104.108H98.987c-1.884,0-3.413,1.529-3.413,3.413s1.529,3.413,3.413,3.413h27.307
			c1.884,0,3.413-1.529,3.413-3.413S128.178,104.108,126.293,104.108z"/>
	</g>
</g>
<g>
	<g>
		<path d="M42.853,135.402c-1.567-1.044-3.686-0.621-4.733,0.947l-6.827,10.24c-1.044,1.568-0.621,3.686,0.947,4.733
			c0.58,0.389,1.239,0.573,1.889,0.573c1.104,0,2.186-0.532,2.843-1.521l6.827-10.24C44.844,138.566,44.421,136.448,42.853,135.402z
			"/>
	</g>
</g>
<g>
	<g>
		<path d="M49.514,56.323H22.168c-4.693,0-8.513,3.82-8.513,8.513v17.106c0,4.693,3.82,8.513,8.513,8.513h27.346
			c4.693,0,8.513-3.82,8.513-8.513V64.836C58.027,60.143,54.207,56.323,49.514,56.323z M51.198,81.94
			c0,0.93-0.756,1.686-1.686,1.686H22.166c-0.93,0-1.686-0.756-1.686-1.686V64.835c0-0.93,0.756-1.686,1.686-1.686h27.346
			c0.93,0,1.686,0.756,1.686,1.686V81.94z"/>
	</g>
</g>
<g>
	<g>
		<path d="M40.96,59.735c-1.884,0-3.413,1.529-3.413,3.413v20.48c0,1.884,1.529,3.413,3.413,3.413s3.413-1.529,3.413-3.413v-20.48
			C44.373,61.264,42.844,59.735,40.96,59.735z"/>
	</g>
</g>
<g>
	<g>
		<path d="M37.547,69.975H20.48c-1.884,0-3.413,1.529-3.413,3.413c0,1.884,1.529,3.413,3.413,3.413h17.067
			c1.884,0,3.413-1.529,3.413-3.413C40.96,71.504,39.431,69.975,37.547,69.975z"/>
	</g>
</g>
<g>
</g>
<g>
</g>
<g>
</g>
<g>
</g>
<g>
</g>
<g>
</g>
<g>
</g>
<g>
</g>
<g>
</g>
<g>
</g>
<g>
</g>
<g>
</g>
<g>
</g>
<g>
</g>
<g>
</g>
</svg>
