<?xml version="1.0" encoding="iso-8859-1"?>
<!-- Generator: Adobe Illustrator 19.0.0, SVG Export Plug-In . SVG Version: 6.00 Build 0)  -->
<svg version="1.1" id="Capa_1" xmlns="http://www.w3.org/2000/svg" xmlns:xlink="http://www.w3.org/1999/xlink" x="0px" y="0px"
	 viewBox="0 0 201.387 201.387" style="enable-background:new 0 0 201.387 201.387;" xml:space="preserve">
<g>
	<g>
		<path d="M200.631,49.161c-0.647-0.804-1.625-1.271-2.657-1.271h-73.45c-1.884,0-3.413,1.529-3.413,3.413s1.529,3.413,3.413,3.413
			h69.216l-15.582,71.68H44.09l-6.233-71.68h67.101c1.884,0,3.413-1.529,3.413-3.413s-1.529-3.413-3.413-3.413H34.133
			c-0.956,0-1.869,0.401-2.516,1.106c-0.647,0.705-0.968,1.649-0.886,2.603l6.827,78.507c0.154,1.765,1.63,3.118,3.401,3.118
			h139.947c1.606,0,2.994-1.12,3.335-2.688l17.067-78.507C201.528,51.018,201.279,49.965,200.631,49.161z"/>
	</g>
</g>
<g>
	<g>
		<path d="M37.526,50.926l-3.413-30.72c-0.193-1.729-1.654-3.036-3.393-3.036H3.413C1.529,17.17,0,18.699,0,20.583
			s1.529,3.413,3.413,3.413h24.252l3.075,27.684c0.193,1.746,1.671,3.036,3.388,3.036c0.126,0,0.254-0.007,0.382-0.022
			C36.384,54.486,37.734,52.8,37.526,50.926z"/>
	</g>
</g>
<g>
	<g>
		<path d="M47.765,160.154l-3.413-30.72c-0.208-1.874-1.898-3.227-3.768-3.016c-1.874,0.208-3.224,1.894-3.016,3.768l3.413,30.72
			c0.193,1.746,1.671,3.036,3.388,3.036c0.126,0,0.254-0.007,0.381-0.021C46.623,163.715,47.973,162.028,47.765,160.154z"/>
	</g>
</g>
<g>
	<g>
		<path d="M47.787,157.117c-9.411,0-17.067,7.656-17.067,17.067s7.656,17.067,17.067,17.067c9.411,0,17.067-7.656,17.067-17.067
			S57.197,157.117,47.787,157.117z M47.787,184.423c-5.647,0-10.24-4.593-10.24-10.24c0-5.647,4.593-10.24,10.24-10.24
			c5.646,0,10.24,4.593,10.24,10.24C58.027,179.831,53.434,184.423,47.787,184.423z"/>
	</g>
</g>
<g>
	<g>
		<path d="M163.84,157.117c-9.411,0-17.067,7.656-17.067,17.067s7.656,17.067,17.067,17.067s17.067-7.656,17.067-17.067
			S173.251,157.117,163.84,157.117z M163.84,184.423c-5.647,0-10.24-4.593-10.24-10.24c0-5.647,4.593-10.24,10.24-10.24
			c5.647,0,10.24,4.593,10.24,10.24C174.08,179.831,169.487,184.423,163.84,184.423z"/>
	</g>
</g>
<g>
	<g>
		<path d="M150.187,170.77H61.44c-1.884,0-3.413,1.529-3.413,3.413s1.529,3.413,3.413,3.413h88.747c1.884,0,3.413-1.529,3.413-3.413
			S152.071,170.77,150.187,170.77z"/>
	</g>
</g>
<g>
	<g>
		<path d="M136.38,83.863c-0.604-1.253-1.87-2.046-3.26-2.046h-6.622v-68.06c0-1.998-1.621-3.62-3.62-3.62h-17.067
			c-1.998,0-3.62,1.621-3.62,3.62v68.06h-6.62c-1.389,0-2.656,0.795-3.26,2.046c-0.604,1.251-0.439,2.738,0.425,3.825l18.773,23.648
			c0.688,0.865,1.732,1.369,2.836,1.369c1.104,0,2.149-0.503,2.835-1.369l18.773-23.648
			C136.818,86.601,136.984,85.114,136.38,83.863z M114.345,103.263l-11.276-14.206h2.744c1.999,0,3.62-1.621,3.62-3.62v-68.06h9.827
			v68.06c0,1.998,1.621,3.62,3.62,3.62h2.741L114.345,103.263z"/>
	</g>
</g>
<g>
</g>
<g>
</g>
<g>
</g>
<g>
</g>
<g>
</g>
<g>
</g>
<g>
</g>
<g>
</g>
<g>
</g>
<g>
</g>
<g>
</g>
<g>
</g>
<g>
</g>
<g>
</g>
<g>
</g>
</svg>
