<?xml version="1.0" encoding="iso-8859-1"?>
<!-- Generator: Adobe Illustrator 19.0.0, SVG Export Plug-In . SVG Version: 6.00 Build 0)  -->
<svg version="1.1" id="Capa_1" xmlns="http://www.w3.org/2000/svg" xmlns:xlink="http://www.w3.org/1999/xlink" x="0px" y="0px"
	 viewBox="0 0 194.56 194.56" style="enable-background:new 0 0 194.56 194.56;" xml:space="preserve">
<g>
	<g>
		<path d="M177.889,44.313H6.827c-1.918,0-3.473,1.555-3.473,3.473v122.88c0,1.918,1.555,3.473,3.473,3.473h171.063
			c7.344,0,13.317-5.973,13.317-13.315V57.63C191.206,50.287,185.233,44.313,177.889,44.313z M184.258,160.824
			c0,3.511-2.857,6.369-6.369,6.369H10.3V51.261h167.59c3.512,0,6.369,2.857,6.369,6.369V160.824z"/>
	</g>
</g>
<g>
	<g>
		<path d="M187.733,64.853H6.827c-1.884,0-3.413,1.529-3.413,3.413v30.72c0,1.884,1.529,3.413,3.413,3.413h180.907
			c1.884,0,3.413-1.527,3.413-3.413v-30.72C191.147,66.382,189.617,64.853,187.733,64.853z M184.32,95.573H10.24V71.68h174.08
			V95.573z"/>
	</g>
</g>
<g>
	<g>
		<path d="M122.88,119.466c-11.293,0-20.48,9.187-20.48,20.48s9.187,20.48,20.48,20.48c11.293,0,20.48-9.187,20.48-20.48
			S134.173,119.466,122.88,119.466z M122.88,153.6c-7.528,0-13.653-6.125-13.653-13.653c0-7.528,6.125-13.653,13.653-13.653
			c7.528,0,13.653,6.125,13.653,13.653C136.533,147.475,130.408,153.6,122.88,153.6z"/>
	</g>
</g>
<g>
	<g>
		<path d="M146.773,119.466c-11.293,0-20.48,9.187-20.48,20.48s9.187,20.48,20.48,20.48s20.48-9.187,20.48-20.48
			S158.066,119.466,146.773,119.466z M146.773,153.6c-7.528,0-13.653-6.125-13.653-13.653c0-7.528,6.125-13.653,13.653-13.653
			s13.653,6.125,13.653,13.653C160.427,147.475,154.301,153.6,146.773,153.6z"/>
	</g>
</g>
<g>
	<g>
		<path d="M6.827,20.48c-1.884,0-3.413,1.529-3.413,3.413v167.253c0,1.884,1.529,3.413,3.413,3.413s3.413-1.527,3.413-3.413V23.893
			C10.24,22.009,8.711,20.48,6.827,20.48z"/>
	</g>
</g>
<g>
	<g>
		<path d="M122.88,13.653H54.613c-1.884,0-3.413,1.529-3.413,3.413s1.529,3.413,3.413,3.413h68.267c1.884,0,3.413-1.529,3.413-3.413
			S124.764,13.653,122.88,13.653z"/>
	</g>
</g>
<g>
	<g>
		<path d="M60.756,28.673l-8.704-11.605l8.704-11.605c1.13-1.509,0.824-3.649-0.683-4.779c-1.507-1.133-3.647-0.826-4.779,0.681
			l-10.24,13.653c-0.91,1.213-0.91,2.883,0,4.096l10.24,13.653c0.672,0.894,1.696,1.365,2.734,1.365
			c0.713,0,1.432-0.222,2.045-0.681C61.58,32.322,61.887,30.182,60.756,28.673z"/>
	</g>
</g>
<g>
</g>
<g>
</g>
<g>
</g>
<g>
</g>
<g>
</g>
<g>
</g>
<g>
</g>
<g>
</g>
<g>
</g>
<g>
</g>
<g>
</g>
<g>
</g>
<g>
</g>
<g>
</g>
<g>
</g>
</svg>
