<?xml version="1.0" encoding="iso-8859-1"?>
<!-- Generator: Adobe Illustrator 19.0.0, SVG Export Plug-In . SVG Version: 6.00 Build 0)  -->
<svg version="1.1" id="Capa_1" xmlns="http://www.w3.org/2000/svg" xmlns:xlink="http://www.w3.org/1999/xlink" x="0px" y="0px"
	 viewBox="0 0 208.213 208.213" style="enable-background:new 0 0 208.213 208.213;" xml:space="preserve">
<g>
	<g>
		<path d="M194.956,63.175H179.2c-1.884,0-3.413,1.529-3.413,3.413c0,1.884,1.529,3.413,3.413,3.413h15.758
			c3.546,0,6.431,2.886,6.431,6.431v103.194c0,3.546-2.886,6.431-6.431,6.431h-181.7c-3.546,0-6.431-2.886-6.431-6.431V76.432
			c0-3.546,2.886-6.431,6.431-6.431h102.796c1.884,0,3.413-1.529,3.413-3.413c0-1.884-1.529-3.413-3.413-3.413H13.257
			C5.946,63.175,0,69.123,0,76.432v103.194c0,7.311,5.948,13.257,13.257,13.257h181.699c7.311,0,13.257-5.946,13.257-13.257V76.432
			C208.213,69.121,202.266,63.175,194.956,63.175z"/>
	</g>
</g>
<g>
	<g>
		<path d="M44.373,128.03H17.067c-1.884,0-3.413,1.529-3.413,3.413s1.529,3.413,3.413,3.413h27.307c1.884,0,3.413-1.529,3.413-3.413
			S46.258,128.03,44.373,128.03z"/>
	</g>
</g>
<g>
	<g>
		<path d="M71.68,145.097H17.067c-1.884,0-3.413,1.529-3.413,3.413s1.529,3.413,3.413,3.413H71.68c1.884,0,3.413-1.529,3.413-3.413
			S73.564,145.097,71.68,145.097z"/>
	</g>
</g>
<g>
	<g>
		<path d="M109.227,145.097h-20.48c-1.884,0-3.413,1.529-3.413,3.413s1.529,3.413,3.413,3.413h20.48
			c1.884,0,3.413-1.529,3.413-3.413S111.111,145.097,109.227,145.097z"/>
	</g>
</g>
<g>
	<g>
		<path d="M27.307,162.163h-10.24c-1.884,0-3.413,1.529-3.413,3.413c0,1.884,1.529,3.413,3.413,3.413h10.24
			c1.884,0,3.413-1.529,3.413-3.413C30.72,163.692,29.191,162.163,27.307,162.163z"/>
	</g>
</g>
<g>
	<g>
		<path d="M68.267,162.163H51.2c-1.884,0-3.413,1.529-3.413,3.413c0,1.884,1.529,3.413,3.413,3.413h17.067
			c1.884,0,3.413-1.529,3.413-3.413C71.68,163.692,70.151,162.163,68.267,162.163z"/>
	</g>
</g>
<g>
	<g>
		<path d="M85.333,128.03H58.027c-1.884,0-3.413,1.529-3.413,3.413s1.529,3.413,3.413,3.413h27.307c1.884,0,3.413-1.529,3.413-3.413
			S87.218,128.03,85.333,128.03z"/>
	</g>
</g>
<g>
	<g>
		<path d="M126.293,128.03H98.987c-1.884,0-3.413,1.529-3.413,3.413s1.529,3.413,3.413,3.413h27.307
			c1.884,0,3.413-1.529,3.413-3.413S128.178,128.03,126.293,128.03z"/>
	</g>
</g>
<g>
	<g>
		<path d="M42.853,159.323c-1.568-1.048-3.688-0.621-4.733,0.947l-6.827,10.24c-1.044,1.568-0.621,3.688,0.947,4.733
			c0.58,0.389,1.239,0.573,1.889,0.573c1.104,0,2.185-0.532,2.843-1.521l6.827-10.24C44.844,162.488,44.421,160.368,42.853,159.323z
			"/>
	</g>
</g>
<g>
	<g>
		<path d="M49.514,80.245H22.168c-4.695,0-8.513,3.818-8.513,8.513v17.106c0,4.695,3.818,8.513,8.513,8.513h27.346
			c4.695,0,8.513-3.818,8.513-8.513V88.758C58.027,84.063,54.209,80.245,49.514,80.245z M51.198,105.862
			c0,0.93-0.756,1.686-1.686,1.686H22.166c-0.93,0-1.686-0.756-1.686-1.686V88.756c0-0.93,0.756-1.686,1.686-1.686h27.346
			c0.93,0,1.686,0.756,1.686,1.686V105.862z"/>
	</g>
</g>
<g>
	<g>
		<path d="M40.96,83.657c-1.884,0-3.413,1.529-3.413,3.413v20.48c0,1.884,1.529,3.413,3.413,3.413s3.413-1.528,3.413-3.413V87.07
			C44.373,85.186,42.844,83.657,40.96,83.657z"/>
	</g>
</g>
<g>
	<g>
		<path d="M37.547,93.897H20.48c-1.884,0-3.413,1.529-3.413,3.413s1.529,3.413,3.413,3.413h17.067c1.884,0,3.413-1.529,3.413-3.413
			S39.431,93.897,37.547,93.897z"/>
	</g>
</g>
<g>
	<g>
		<path d="M168.504,39.224h-43.464c-6.871,0-12.46,5.591-12.46,12.46v43.464c0,6.871,5.591,12.46,12.46,12.46h43.464
			c6.871,0,12.46-5.589,12.46-12.46V51.684C180.965,44.813,175.374,39.224,168.504,39.224z M174.022,95.148
			c0,3.041-2.475,5.516-5.516,5.516h-43.464c-3.041,0-5.516-2.475-5.516-5.516V51.684c0-3.041,2.475-5.516,5.516-5.516h43.464
			c3.041,0,5.516,2.475,5.516,5.516V95.148z"/>
	</g>
</g>
<g>
	<g>
		<path d="M146.773,56.35c-5.656,0-10.24,4.586-10.24,10.24c0,4.451,2.859,8.202,6.827,9.614v14.28h6.827v-14.28
			c3.968-1.411,6.827-5.163,6.827-9.614C157.013,60.936,152.429,56.35,146.773,56.35z"/>
	</g>
</g>
<g>
	<g>
		<path d="M148.229,15.33h-2.91c-10.523,0-19.084,8.561-19.084,19.084v8.282c0,1.917,1.555,3.471,3.471,3.471h34.133
			c1.917,0,3.471-1.555,3.473-3.471v-8.282C167.313,23.891,158.753,15.33,148.229,15.33z M160.369,39.225H133.18v-4.809
			c0-6.694,5.446-12.14,12.14-12.14h2.91c6.694,0,12.14,5.446,12.14,12.14V39.225z"/>
	</g>
</g>
<g>
</g>
<g>
</g>
<g>
</g>
<g>
</g>
<g>
</g>
<g>
</g>
<g>
</g>
<g>
</g>
<g>
</g>
<g>
</g>
<g>
</g>
<g>
</g>
<g>
</g>
<g>
</g>
<g>
</g>
</svg>
