<?xml version="1.0" encoding="iso-8859-1"?>
<!-- Generator: Adobe Illustrator 19.0.0, SVG Export Plug-In . SVG Version: 6.00 Build 0)  -->
<svg version="1.1" id="Capa_1" xmlns="http://www.w3.org/2000/svg" xmlns:xlink="http://www.w3.org/1999/xlink" x="0px" y="0px"
	 viewBox="0 0 194.561 194.561" style="enable-background:new 0 0 194.561 194.561;" xml:space="preserve">
<g>
	<g>
		<path d="M177.89,44.314H6.827c-1.918,0-3.473,1.555-3.473,3.473v122.88c0,1.918,1.555,3.473,3.473,3.473H177.89
			c7.344,0,13.317-5.973,13.317-13.315V57.631C191.207,50.288,185.233,44.314,177.89,44.314z M184.259,160.825
			c0,3.511-2.857,6.369-6.369,6.369H10.3V51.262h167.59c3.511,0,6.369,2.857,6.369,6.369V160.825z"/>
	</g>
</g>
<g>
	<g>
		<path d="M187.734,64.854H6.827c-1.884,0-3.413,1.529-3.413,3.413v30.72c0,1.884,1.529,3.413,3.413,3.413h180.907
			c1.884,0,3.413-1.527,3.413-3.413v-30.72C191.147,66.383,189.618,64.854,187.734,64.854z M184.32,95.574H10.24V71.681h174.08
			V95.574z"/>
	</g>
</g>
<g>
	<g>
		<path d="M122.88,119.467c-11.293,0-20.48,9.187-20.48,20.48s9.187,20.48,20.48,20.48c11.293,0,20.48-9.187,20.48-20.48
			S134.173,119.467,122.88,119.467z M122.88,153.601c-7.528,0-13.653-6.125-13.653-13.653c0-7.528,6.125-13.653,13.653-13.653
			c7.528,0,13.653,6.125,13.653,13.653C136.534,147.475,130.408,153.601,122.88,153.601z"/>
	</g>
</g>
<g>
	<g>
		<path d="M146.774,119.467c-11.293,0-20.48,9.187-20.48,20.48s9.187,20.48,20.48,20.48s20.48-9.187,20.48-20.48
			S158.067,119.467,146.774,119.467z M146.774,153.601c-7.528,0-13.653-6.125-13.653-13.653c0-7.528,6.125-13.653,13.653-13.653
			s13.653,6.125,13.653,13.653C160.427,147.475,154.302,153.601,146.774,153.601z"/>
	</g>
</g>
<g>
	<g>
		<path d="M6.827,20.481c-1.884,0-3.413,1.529-3.413,3.413v167.253c0,1.884,1.529,3.413,3.413,3.413s3.413-1.527,3.413-3.413V23.894
			C10.24,22.01,8.711,20.481,6.827,20.481z"/>
	</g>
</g>
<g>
	<g>
		<path d="M116.054,13.654H47.787c-1.884,0-3.413,1.529-3.413,3.413s1.529,3.413,3.413,3.413h68.267
			c1.884,0,3.413-1.529,3.413-3.413S117.938,13.654,116.054,13.654z"/>
	</g>
</g>
<g>
	<g>
		<path d="M125.611,15.018l-10.24-13.653c-1.13-1.502-3.265-1.816-4.779-0.681c-1.507,1.13-1.813,3.27-0.681,4.779l8.704,11.605
			l-8.704,11.605c-1.132,1.509-0.828,3.649,0.681,4.779c0.614,0.461,1.333,0.683,2.045,0.683c1.038,0,2.063-0.471,2.734-1.367
			l10.24-13.653C126.522,17.9,126.522,16.231,125.611,15.018z"/>
	</g>
</g>
<g>
</g>
<g>
</g>
<g>
</g>
<g>
</g>
<g>
</g>
<g>
</g>
<g>
</g>
<g>
</g>
<g>
</g>
<g>
</g>
<g>
</g>
<g>
</g>
<g>
</g>
<g>
</g>
<g>
</g>
</svg>
