<?xml version="1.0" encoding="iso-8859-1"?>
<!-- Generator: Adobe Illustrator 19.0.0, SVG Export Plug-In . SVG Version: 6.00 Build 0)  -->
<svg version="1.1" id="Capa_1" xmlns="http://www.w3.org/2000/svg" xmlns:xlink="http://www.w3.org/1999/xlink" x="0px" y="0px"
	 viewBox="0 0 208.333 208.333" style="enable-background:new 0 0 208.333 208.333;" xml:space="preserve">
<g>
	<g>
		<path d="M198.467,63.147H95.2c-5.301,0-9.639,4.202-9.858,9.452L71.76,134.576c-0.053,0.244-0.08,0.495-0.08,0.744
			c0,5.439,4.425,9.866,9.866,9.866h103.267c5.301,0,9.639-4.202,9.858-9.452l13.582-61.978c0.053-0.244,0.08-0.495,0.08-0.744
			C208.333,67.574,203.907,63.147,198.467,63.147z M187.814,134.576c-0.053,0.244-0.08,0.495-0.08,0.744
			c0,1.609-1.311,2.92-2.92,2.92H81.546c-1.507,0-2.751-1.149-2.903-2.615l13.556-61.868c0.053-0.244,0.08-0.495,0.08-0.744
			c0-1.609,1.311-2.92,2.92-2.92h103.267c1.507,0,2.751,1.149,2.903,2.615L187.814,134.576z"/>
	</g>
</g>
<g>
	<g>
		<path d="M205.228,81.507c-0.66-0.819-1.655-1.295-2.707-1.295H86.468c-1.632,0-3.043,1.135-3.393,2.731l-4.489,20.48
			c-0.225,1.027,0.026,2.103,0.686,2.922c0.66,0.819,1.655,1.295,2.707,1.295h116.053c1.632,0,3.043-1.135,3.393-2.731l4.489-20.48
			C206.14,83.401,205.889,82.326,205.228,81.507z M195.238,100.693H86.296l2.966-13.534h108.942L195.238,100.693z"/>
	</g>
</g>
<g>
	<g>
		<path d="M75.153,66.56H47.846c-1.918,0-3.473,1.555-3.473,3.473c0,1.918,1.555,3.473,3.473,3.473h27.307
			c1.918,0,3.473-1.555,3.473-3.473C78.626,68.115,77.071,66.56,75.153,66.56z"/>
	</g>
</g>
<g>
	<g>
		<path d="M112.7,49.493H64.913c-1.918,0-3.473,1.555-3.473,3.473c0,1.918,1.555,3.473,3.473,3.473H112.7
			c1.918,0,3.473-1.555,3.473-3.473C116.173,51.048,114.618,49.493,112.7,49.493z"/>
	</g>
</g>
<g>
	<g>
		<path d="M167.313,151.893h-47.787c-1.918,0-3.473,1.555-3.473,3.473c0,1.918,1.555,3.473,3.473,3.473h47.787
			c1.918,0,3.473-1.555,3.473-3.473C170.786,153.448,169.231,151.893,167.313,151.893z"/>
	</g>
</g>
<g>
	<g>
		<path d="M105.873,151.893H20.54c-1.918,0-3.473,1.555-3.473,3.473c0,1.918,1.555,3.473,3.473,3.473h85.333
			c1.918,0,3.473-1.555,3.473-3.473C109.346,153.448,107.791,151.893,105.873,151.893z"/>
	</g>
</g>
<g>
	<g>
		<path d="M47.846,49.493H34.193c-1.918,0-3.473,1.555-3.473,3.473c0,1.918,1.555,3.473,3.473,3.473h13.653
			c1.918,0,3.473-1.555,3.473-3.473C51.319,51.048,49.765,49.493,47.846,49.493z"/>
	</g>
</g>
<g>
	<g>
		<path d="M71.74,87.04H54.673c-1.918,0-3.473,1.555-3.473,3.473c0,1.918,1.555,3.473,3.473,3.473H71.74
			c1.918,0,3.473-1.555,3.473-3.473C75.213,88.595,73.658,87.04,71.74,87.04z"/>
	</g>
</g>
<g>
	<g>
		<path d="M34.193,66.56H3.473C1.555,66.56,0,68.115,0,70.033c0,1.918,1.555,3.473,3.473,3.473h30.72
			c1.918,0,3.473-1.555,3.473-3.473C37.666,68.115,36.111,66.56,34.193,66.56z"/>
	</g>
</g>
<g>
</g>
<g>
</g>
<g>
</g>
<g>
</g>
<g>
</g>
<g>
</g>
<g>
</g>
<g>
</g>
<g>
</g>
<g>
</g>
<g>
</g>
<g>
</g>
<g>
</g>
<g>
</g>
<g>
</g>
</svg>
