<?xml version="1.0" encoding="iso-8859-1"?>
<!-- Generator: Adobe Illustrator 19.0.0, SVG Export Plug-In . SVG Version: 6.00 Build 0)  -->
<svg version="1.1" id="Capa_1" xmlns="http://www.w3.org/2000/svg" xmlns:xlink="http://www.w3.org/1999/xlink" x="0px" y="0px"
	 viewBox="0 0 201.388 201.388" style="enable-background:new 0 0 201.388 201.388;" xml:space="preserve">
<g>
	<g>
		<path d="M200.634,45.646c-0.649-0.804-1.626-1.271-2.659-1.271H34.135c-0.957,0-1.87,0.401-2.517,1.106
			c-0.645,0.705-0.968,1.649-0.884,2.603l6.827,78.507c0.154,1.765,1.63,3.118,3.4,3.118h139.947c1.604,0,2.995-1.12,3.337-2.688
			l17.067-78.507C201.53,47.503,201.281,46.449,200.634,45.646z M178.156,122.881H44.09l-6.233-71.68h155.882L178.156,122.881z"/>
	</g>
</g>
<g>
	<g>
		<path d="M37.525,47.41l-3.413-30.72c-0.191-1.729-1.65-3.036-3.391-3.036H3.413C1.529,13.654,0,15.183,0,17.068
			s1.529,3.413,3.413,3.413h24.252l3.077,27.684c0.193,1.746,1.671,3.036,3.386,3.036c0.126,0,0.254-0.007,0.381-0.022
			C36.383,50.97,37.733,49.284,37.525,47.41z"/>
	</g>
</g>
<g>
	<g>
		<path d="M47.766,156.639l-3.413-30.72c-0.207-1.876-1.894-3.226-3.768-3.016c-1.874,0.208-3.224,1.894-3.016,3.768l3.413,30.72
			c0.193,1.746,1.671,3.036,3.386,3.036c0.126,0,0.254-0.007,0.382-0.021C46.624,160.199,47.974,158.513,47.766,156.639z"/>
	</g>
</g>
<g>
	<g>
		<path d="M47.787,153.601c-9.411,0-17.067,7.656-17.067,17.067s7.656,17.067,17.067,17.067c9.411,0,17.067-7.656,17.067-17.067
			S57.197,153.601,47.787,153.601z M47.787,180.907c-5.647,0-10.24-4.593-10.24-10.24c0-5.647,4.593-10.24,10.24-10.24
			c5.647,0,10.24,4.593,10.24,10.24C58.027,176.315,53.434,180.907,47.787,180.907z"/>
	</g>
</g>
<g>
	<g>
		<path d="M163.84,153.601c-9.411,0-17.067,7.656-17.067,17.067s7.656,17.067,17.067,17.067s17.067-7.656,17.067-17.067
			S173.251,153.601,163.84,153.601z M163.84,180.907c-5.647,0-10.24-4.593-10.24-10.24c0-5.647,4.593-10.24,10.24-10.24
			c5.647,0,10.24,4.593,10.24,10.24C174.08,176.315,169.487,180.907,163.84,180.907z"/>
	</g>
</g>
<g>
	<g>
		<path d="M150.187,167.254H61.44c-1.884,0-3.413,1.529-3.413,3.413s1.529,3.413,3.413,3.413h88.747
			c1.886,0,3.413-1.529,3.413-3.413S152.071,167.254,150.187,167.254z"/>
	</g>
</g>
<g>
	<g>
		<path d="M178.104,44.427c-1.86-0.338-3.632,0.894-3.968,2.748l-13.653,75.093c-0.338,1.855,0.893,3.632,2.748,3.97
			c0.206,0.038,0.411,0.056,0.613,0.056c1.618,0,3.055-1.154,3.355-2.804l13.653-75.093C181.19,46.542,179.96,44.765,178.104,44.427
			z"/>
	</g>
</g>
<g>
	<g>
		<path d="M154.04,44.401c-1.86-0.23-3.581,1.073-3.826,2.944l-10.24,78.507c-0.242,1.869,1.075,3.582,2.944,3.826
			c0.15,0.021,0.299,0.029,0.447,0.029c1.688,0,3.156-1.253,3.379-2.973l10.24-78.507C157.227,46.359,155.909,44.646,154.04,44.401z
			"/>
	</g>
</g>
<g>
	<g>
		<path d="M64.826,125.854l-10.24-78.507c-0.244-1.87-1.958-3.178-3.826-2.944c-1.869,0.244-3.188,1.958-2.944,3.826l10.24,78.507
			c0.224,1.719,1.691,2.971,3.379,2.971c0.148,0,0.297-0.009,0.447-0.027C63.751,129.436,65.07,127.723,64.826,125.854z"/>
	</g>
</g>
<g>
	<g>
		<path d="M130.002,44.388c-1.874-0.157-3.533,1.227-3.695,3.104l-6.827,78.507c-0.164,1.879,1.225,3.533,3.104,3.697
			c0.101,0.009,0.2,0.012,0.299,0.012c1.751,0,3.243-1.34,3.396-3.116l6.827-78.507C133.27,46.205,131.881,44.552,130.002,44.388z"
			/>
	</g>
</g>
<g>
	<g>
		<path d="M78.493,47.491c-0.162-1.877-1.819-3.26-3.695-3.104c-1.877,0.164-3.268,1.818-3.104,3.697l6.827,78.507
			c0.154,1.778,1.645,3.118,3.396,3.118c0.099,0,0.198-0.003,0.299-0.014c1.877-0.164,3.268-1.818,3.104-3.697L78.493,47.491z"/>
	</g>
</g>
<g>
	<g>
		<path d="M102.4,44.374c-1.884,0-3.413,1.529-3.413,3.413v78.507c0,1.884,1.529,3.413,3.413,3.413c1.886,0,3.413-1.529,3.413-3.413
			V47.787C105.813,45.903,104.284,44.374,102.4,44.374z"/>
	</g>
</g>
<g>
	<g>
		<path d="M191.147,64.854h-153.6c-1.884,0-3.413,1.529-3.413,3.413c0,1.884,1.529,3.413,3.413,3.413h153.6
			c1.886,0,3.413-1.529,3.413-3.413C194.56,66.383,193.031,64.854,191.147,64.854z"/>
	</g>
</g>
<g>
	<g>
		<path d="M187.733,85.334H37.547c-1.884,0-3.413,1.529-3.413,3.413s1.529,3.413,3.413,3.413h150.187
			c1.886,0,3.413-1.529,3.413-3.413S189.618,85.334,187.733,85.334z"/>
	</g>
</g>
<g>
	<g>
		<path d="M184.32,105.814H40.96c-1.884,0-3.413,1.529-3.413,3.413s1.529,3.413,3.413,3.413h143.36c1.886,0,3.413-1.529,3.413-3.413
			S186.204,105.814,184.32,105.814z"/>
	</g>
</g>
<g>
</g>
<g>
</g>
<g>
</g>
<g>
</g>
<g>
</g>
<g>
</g>
<g>
</g>
<g>
</g>
<g>
</g>
<g>
</g>
<g>
</g>
<g>
</g>
<g>
</g>
<g>
</g>
<g>
</g>
</svg>
