<?xml version="1.0" encoding="iso-8859-1"?>
<!-- Generator: Adobe Illustrator 19.0.0, SVG Export Plug-In . SVG Version: 6.00 Build 0)  -->
<svg version="1.1" id="Capa_1" xmlns="http://www.w3.org/2000/svg" xmlns:xlink="http://www.w3.org/1999/xlink" x="0px" y="0px"
	 viewBox="0 0 201.388 201.388" style="enable-background:new 0 0 201.388 201.388;" xml:space="preserve">
<g>
	<g>
		<path d="M200.634,45.646c-0.649-0.804-1.626-1.271-2.659-1.271H34.135c-0.957,0-1.87,0.401-2.517,1.106
			c-0.645,0.705-0.968,1.649-0.884,2.603l6.827,78.507c0.154,1.765,1.63,3.118,3.4,3.118h139.947c1.604,0,2.995-1.12,3.337-2.688
			l17.067-78.507C201.53,47.503,201.281,46.449,200.634,45.646z M178.156,122.881H44.09l-6.233-71.68h155.882L178.156,122.881z"/>
	</g>
</g>
<g>
	<g>
		<path d="M37.525,47.41l-3.413-30.72c-0.191-1.729-1.65-3.036-3.391-3.036H3.413C1.529,13.654,0,15.183,0,17.068
			s1.529,3.413,3.413,3.413h24.252l3.077,27.684c0.193,1.746,1.671,3.036,3.386,3.036c0.126,0,0.254-0.007,0.381-0.022
			C36.383,50.97,37.733,49.284,37.525,47.41z"/>
	</g>
</g>
<g>
	<g>
		<path d="M47.766,156.639l-3.413-30.72c-0.208-1.876-1.903-3.226-3.768-3.016c-1.874,0.208-3.224,1.894-3.016,3.768l3.413,30.72
			c0.193,1.746,1.671,3.036,3.386,3.036c0.126,0,0.254-0.007,0.382-0.021C46.624,160.199,47.974,158.513,47.766,156.639z"/>
	</g>
</g>
<g>
	<g>
		<path d="M47.787,153.601c-9.411,0-17.067,7.656-17.067,17.067s7.656,17.067,17.067,17.067c9.411,0,17.067-7.656,17.067-17.067
			S57.197,153.601,47.787,153.601z M47.787,180.907c-5.647,0-10.24-4.593-10.24-10.24c0-5.647,4.593-10.24,10.24-10.24
			c5.647,0,10.24,4.593,10.24,10.24C58.027,176.315,53.434,180.907,47.787,180.907z"/>
	</g>
</g>
<g>
	<g>
		<path d="M163.84,153.601c-9.411,0-17.067,7.656-17.067,17.067s7.656,17.067,17.067,17.067s17.067-7.656,17.067-17.067
			S173.251,153.601,163.84,153.601z M163.84,180.907c-5.647,0-10.24-4.593-10.24-10.24c0-5.647,4.593-10.24,10.24-10.24
			c5.647,0,10.24,4.593,10.24,10.24C174.08,176.315,169.487,180.907,163.84,180.907z"/>
	</g>
</g>
<g>
	<g>
		<path d="M150.187,167.254H61.44c-1.884,0-3.413,1.529-3.413,3.413s1.529,3.413,3.413,3.413h88.747
			c1.886,0,3.413-1.529,3.413-3.413S152.071,167.254,150.187,167.254z"/>
	</g>
</g>
<g>
</g>
<g>
</g>
<g>
</g>
<g>
</g>
<g>
</g>
<g>
</g>
<g>
</g>
<g>
</g>
<g>
</g>
<g>
</g>
<g>
</g>
<g>
</g>
<g>
</g>
<g>
</g>
<g>
</g>
</svg>
