<?xml version="1.0" encoding="iso-8859-1"?>
<!-- Generator: Adobe Illustrator 19.0.0, SVG Export Plug-In . SVG Version: 6.00 Build 0)  -->
<svg version="1.1" id="Capa_1" xmlns="http://www.w3.org/2000/svg" xmlns:xlink="http://www.w3.org/1999/xlink" x="0px" y="0px"
	 viewBox="0 0 201.387 201.387" style="enable-background:new 0 0 201.387 201.387;" xml:space="preserve">
<g>
	<g>
		<path d="M200.632,45.646c-0.648-0.806-1.626-1.271-2.659-1.271h-77.679c-1.884,0-3.413,1.529-3.413,3.413s1.529,3.413,3.413,3.413
			h73.445l-15.584,71.68H44.09l-6.233-71.68h62.886c1.884,0,3.413-1.529,3.413-3.413s-1.529-3.413-3.413-3.413H34.135
			c-0.957,0-1.87,0.401-2.517,1.106c-0.645,0.705-0.968,1.649-0.884,2.601l6.827,78.507c0.154,1.765,1.63,3.118,3.4,3.118h139.947
			c1.604,0,2.995-1.12,3.335-2.686l17.067-78.507C201.528,47.505,201.279,46.45,200.632,45.646z"/>
	</g>
</g>
<g>
	<g>
		<path d="M37.525,47.409l-3.413-30.72c-0.191-1.727-1.65-3.036-3.391-3.036H3.413C1.529,13.653,0,15.182,0,17.067
			s1.529,3.413,3.413,3.413h24.252l3.077,27.684c0.193,1.746,1.671,3.036,3.386,3.036c0.126,0,0.254-0.007,0.381-0.022
			C36.383,50.971,37.733,49.283,37.525,47.409z"/>
	</g>
</g>
<g>
	<g>
		<path d="M47.766,156.638l-3.413-30.72c-0.208-1.877-1.908-3.232-3.768-3.016c-1.874,0.206-3.224,1.894-3.016,3.768l3.413,30.72
			c0.193,1.746,1.671,3.036,3.386,3.036c0.126,0,0.254-0.007,0.382-0.021C46.624,160.2,47.974,158.512,47.766,156.638z"/>
	</g>
</g>
<g>
	<g>
		<path d="M47.787,153.6c-9.411,0-17.067,7.656-17.067,17.067s7.656,17.067,17.067,17.067c9.411,0,17.067-7.656,17.067-17.067
			S57.197,153.6,47.787,153.6z M47.787,180.907c-5.647,0-10.24-4.593-10.24-10.24c0-5.647,4.593-10.24,10.24-10.24
			c5.647,0,10.24,4.593,10.24,10.24C58.027,176.314,53.434,180.907,47.787,180.907z"/>
	</g>
</g>
<g>
	<g>
		<path d="M163.84,153.6c-9.411,0-17.067,7.656-17.067,17.067s7.656,17.067,17.067,17.067s17.067-7.656,17.067-17.067
			S173.251,153.6,163.84,153.6z M163.84,180.907c-5.647,0-10.24-4.593-10.24-10.24c0-5.647,4.593-10.24,10.24-10.24
			c5.647,0,10.24,4.593,10.24,10.24C174.08,176.314,169.487,180.907,163.84,180.907z"/>
	</g>
</g>
<g>
	<g>
		<path d="M150.187,167.253H61.44c-1.884,0-3.413,1.529-3.413,3.413s1.529,3.413,3.413,3.413h88.747
			c1.886,0,3.413-1.529,3.413-3.413S152.071,167.253,150.187,167.253z"/>
	</g>
</g>
<g>
	<g>
		<path d="M166.149,14.759h-17.067c-28.006,0-51.224,21.11-54.223,48.63h-2.598c-3.601,0-6.796,1.877-8.544,5.026
			c-1.749,3.147-1.657,6.852,0.244,9.909L96.41,98.343c1.794,2.888,4.896,4.613,8.3,4.615c3.401-0.002,6.504-1.725,8.301-4.615
			l12.447-20.017c1.903-3.058,1.992-6.762,0.244-9.909c-1.749-3.147-4.944-5.028-8.545-5.028h-1.638
			c2.855-16.051,16.947-28.15,33.565-28.15h17.067c5.647,0,10.24-4.593,10.24-10.24S171.797,14.759,166.149,14.759z M166.149,28.413
			h-17.067c-21.431,0-39.363,16.759-40.822,38.156l-0.249,3.647h9.144c1.567,0,2.326,1.06,2.579,1.517
			c0.253,0.457,0.753,1.659-0.073,2.988l-12.447,20.018c-0.782,1.256-2.012,1.393-2.505,1.393c-0.493-0.002-1.722-0.137-2.504-1.391
			L89.759,74.72c-0.826-1.328-0.326-2.531-0.073-2.987c0.254-0.457,1.012-1.517,2.577-1.517h8.996l0.162-3.243
			c1.273-25.45,22.209-45.387,47.662-45.387h17.067c1.882,0,3.413,1.531,3.413,3.413S168.032,28.413,166.149,28.413z"/>
	</g>
</g>
<g>
</g>
<g>
</g>
<g>
</g>
<g>
</g>
<g>
</g>
<g>
</g>
<g>
</g>
<g>
</g>
<g>
</g>
<g>
</g>
<g>
</g>
<g>
</g>
<g>
</g>
<g>
</g>
<g>
</g>
</svg>
