<?xml version="1.0" encoding="iso-8859-1"?>
<!-- Generator: Adobe Illustrator 19.0.0, SVG Export Plug-In . SVG Version: 6.00 Build 0)  -->
<svg version="1.1" id="Capa_1" xmlns="http://www.w3.org/2000/svg" xmlns:xlink="http://www.w3.org/1999/xlink" x="0px" y="0px"
	 viewBox="0 0 201.387 201.387" style="enable-background:new 0 0 201.387 201.387;" xml:space="preserve">
<g>
	<g>
		<path d="M200.632,49.06c-0.648-0.806-1.626-1.271-2.659-1.271h-19.374c-1.884,0-3.413,1.529-3.413,3.413s1.529,3.413,3.413,3.413
			h15.142l-15.584,71.68H44.092l-6.233-71.68h63.773c1.884,0,3.413-1.529,3.413-3.413s-1.529-3.413-3.413-3.413H34.135
			c-0.957,0-1.87,0.401-2.517,1.106c-0.645,0.705-0.968,1.649-0.884,2.601l6.827,78.507c0.154,1.765,1.63,3.118,3.4,3.118h139.947
			c1.604,0,2.995-1.12,3.335-2.686l17.067-78.507C201.528,50.918,201.279,49.864,200.632,49.06z"/>
	</g>
</g>
<g>
	<g>
		<path d="M37.525,50.823l-3.413-30.72c-0.191-1.727-1.65-3.036-3.391-3.036H3.413C1.529,17.067,0,18.596,0,20.48
			s1.529,3.413,3.413,3.413h24.252l3.077,27.684c0.193,1.746,1.671,3.036,3.386,3.036c0.126,0,0.254-0.007,0.381-0.022
			C36.383,54.385,37.733,52.697,37.525,50.823z"/>
	</g>
</g>
<g>
	<g>
		<path d="M47.766,160.051l-3.413-30.72c-0.208-1.876-1.915-3.241-3.768-3.016c-1.874,0.206-3.224,1.894-3.016,3.768l3.413,30.72
			c0.193,1.746,1.671,3.036,3.386,3.036c0.126,0,0.254-0.007,0.382-0.021C46.624,163.613,47.974,161.925,47.766,160.051z"/>
	</g>
</g>
<g>
	<g>
		<path d="M47.787,157.013c-9.411,0-17.067,7.656-17.067,17.067s7.656,17.067,17.067,17.067c9.411,0,17.067-7.656,17.067-17.067
			S57.197,157.013,47.787,157.013z M47.787,184.32c-5.647,0-10.24-4.593-10.24-10.24c0-5.647,4.593-10.24,10.24-10.24
			c5.647,0,10.24,4.593,10.24,10.24C58.027,179.727,53.434,184.32,47.787,184.32z"/>
	</g>
</g>
<g>
	<g>
		<path d="M163.84,157.013c-9.411,0-17.067,7.656-17.067,17.067s7.656,17.067,17.067,17.067s17.067-7.656,17.067-17.067
			S173.251,157.013,163.84,157.013z M163.84,184.32c-5.647,0-10.24-4.593-10.24-10.24c0-5.647,4.593-10.24,10.24-10.24
			c5.647,0,10.24,4.593,10.24,10.24C174.08,179.727,169.487,184.32,163.84,184.32z"/>
	</g>
</g>
<g>
	<g>
		<path d="M150.187,170.667H61.44c-1.884,0-3.413,1.529-3.413,3.413s1.529,3.413,3.413,3.413h88.747
			c1.886,0,3.413-1.529,3.413-3.413S152.071,170.667,150.187,170.667z"/>
	</g>
</g>
<g>
	<g>
		<path d="M139.947,10.24c-22.584,0-40.96,18.376-40.96,40.96c0,22.584,18.376,40.96,40.96,40.96c22.584,0,40.96-18.376,40.96-40.96
			C180.907,28.616,162.531,10.24,139.947,10.24z M139.947,85.333c-18.821,0-34.133-15.312-34.133-34.133
			c0-18.821,15.312-34.133,34.133-34.133c18.821,0,34.133,15.312,34.133,34.133C174.08,70.021,158.768,85.333,139.947,85.333z"/>
	</g>
</g>
<g>
	<g>
		<path d="M167.543,42.738c-1.026-3.154-3.831-5.19-7.146-5.19h-9.414c-0.299,0-0.56-0.189-0.652-0.473l-2.908-8.953
			c-1.026-3.154-3.828-5.192-7.146-5.192c-3.318,0-6.12,2.038-7.146,5.192l-2.908,8.953c-0.092,0.283-0.353,0.473-0.652,0.473
			h-9.414c-3.316,0-6.12,2.036-7.146,5.19c-1.022,3.154,0.048,6.449,2.729,8.4l7.619,5.533c0.241,0.174,0.34,0.481,0.247,0.765
			l-2.908,8.953c-1.022,3.154,0.048,6.448,2.729,8.398c2.681,1.946,6.146,1.947,8.832,0l7.613-5.533
			c0.242-0.176,0.565-0.177,0.807,0l7.617,5.533c1.341,0.973,2.879,1.461,4.415,1.461s3.074-0.488,4.415-1.461
			c2.683-1.951,3.753-5.245,2.729-8.398l-2.908-8.953c-0.09-0.283,0.007-0.589,0.249-0.765l7.617-5.535
			C167.497,49.188,168.567,45.892,167.543,42.738z M160.806,45.612l-7.615,5.533c-2.642,1.918-3.739,5.292-2.731,8.398l2.908,8.953
			c0.041,0.128,0.152,0.471-0.249,0.765c-0.406,0.297-0.695,0.082-0.806,0l-7.617-5.531c-2.638-1.92-6.187-1.918-8.832-0.002
			l-7.615,5.533c-0.109,0.082-0.399,0.297-0.806,0c-0.403-0.294-0.29-0.637-0.249-0.765l2.908-8.953
			c1.007-3.106-0.089-6.48-2.729-8.398l-7.617-5.531c-0.111-0.082-0.404-0.294-0.249-0.768c0.154-0.473,0.515-0.473,0.652-0.473
			h9.417c3.267,0,6.137-2.087,7.146-5.19l2.908-8.953c0.043-0.13,0.154-0.474,0.652-0.474c0.498,0,0.611,0.345,0.652,0.474
			l2.908,8.953c1.009,3.103,3.881,5.19,7.146,5.19h9.414c0.137,0,0.498,0,0.652,0.473C161.208,45.32,160.915,45.532,160.806,45.612z
			"/>
	</g>
</g>
<g>
</g>
<g>
</g>
<g>
</g>
<g>
</g>
<g>
</g>
<g>
</g>
<g>
</g>
<g>
</g>
<g>
</g>
<g>
</g>
<g>
</g>
<g>
</g>
<g>
</g>
<g>
</g>
<g>
</g>
</svg>
