<?xml version="1.0" encoding="iso-8859-1"?>
<!-- Generator: Adobe Illustrator 19.0.0, SVG Export Plug-In . SVG Version: 6.00 Build 0)  -->
<svg version="1.1" id="Capa_1" xmlns="http://www.w3.org/2000/svg" xmlns:xlink="http://www.w3.org/1999/xlink" x="0px" y="0px"
	 viewBox="0 0 204.8 204.8" style="enable-background:new 0 0 204.8 204.8;" xml:space="preserve">
<g>
	<g>
		<path d="M51.999,132.234l-25.887-18.309c-7.105-5.026-10.38-12.979-8.579-20.63l18.864-68.192c0.502-1.818-0.565-3.698-2.381-4.2
			c-1.818-0.503-3.698,0.565-4.2,2.381L10.919,91.602c-2.485,10.542,1.826,21.231,11.25,27.896l25.887,18.309
			c0.599,0.423,1.287,0.626,1.968,0.626c1.07,0,2.125-0.502,2.79-1.44C53.903,135.453,53.538,133.323,51.999,132.234z"/>
	</g>
</g>
<g>
	<g>
		<path d="M139.244,91.513l-19.41-73.494c-0.481-1.824-2.347-2.915-4.171-2.429c-1.823,0.48-2.91,2.348-2.429,4.171l19.388,73.405
			c1.835,7.779-1.442,15.732-8.547,20.758L96.44,133.468c-1.539,1.089-1.905,3.219-0.816,4.758c0.666,0.94,1.72,1.442,2.79,1.442
			c0.681,0,1.369-0.203,1.966-0.628l27.634-19.543C137.44,112.833,141.751,102.144,139.244,91.513z"/>
	</g>
</g>
<g>
	<g>
		<path d="M92.16,109.227H58.027c-1.884,0-3.413,1.529-3.413,3.413v23.852c0,1.396,0.85,2.65,2.147,3.169
			c5.741,2.292,12.037,3.437,18.333,3.437c6.296,0,12.592-1.145,18.333-3.437c1.295-0.517,2.147-1.773,2.147-3.169V112.64
			C95.573,110.756,94.044,109.227,92.16,109.227z M88.747,134.108c-8.699,2.903-18.608,2.903-27.307,0v-18.055h27.307V134.108z"/>
	</g>
</g>
<g>
	<g>
		<path d="M116.055,25.295c-1.884,0-3.413,1.529-3.413,3.413v55.885c0,13.583-11.052,24.634-24.634,24.634H62.181
			c-13.583,0-24.634-11.052-24.634-24.634V28.708c0-1.884-1.529-3.413-3.413-3.413s-3.413,1.529-3.413,3.413v55.885
			c0,17.348,14.112,31.461,31.459,31.461h25.827c17.348,0,31.461-14.112,31.462-31.461V28.708
			C119.468,26.824,117.939,25.295,116.055,25.295z"/>
	</g>
</g>
<g>
	<g>
		<path d="M116.053,0H48.357C38.632,0,30.72,7.912,30.72,17.637v30.15c0,1.884,1.529,3.413,3.413,3.413H92.72
			c14.749,0,26.747-11.998,26.747-26.747V3.413C119.467,1.529,117.938,0,116.053,0z M112.64,24.453
			c0,10.984-8.936,19.92-19.92,19.92H37.547V17.637c0-5.961,4.849-10.81,10.81-10.81h64.283V24.453z"/>
	</g>
</g>
<g>
	<g>
		<path d="M173.288,141.174c-0.65-0.778-1.609-1.227-2.621-1.227h-61.44c-1.014,0-1.973,0.449-2.621,1.227
			c-0.649,0.777-0.918,1.802-0.737,2.797l6.827,37.547c0.295,1.623,1.708,2.802,3.359,2.802h47.787c1.65,0,3.063-1.179,3.359-2.802
			l6.827-37.547C174.206,142.976,173.937,141.95,173.288,141.174z M160.992,177.493h-42.09l-5.586-30.72h53.26L160.992,177.493z"/>
	</g>
</g>
<g>
	<g>
		<path d="M201.387,139.947H184.32c-1.609,0-3,1.125-3.338,2.698l-9.661,45.088h-62.094c-1.884,0-3.413,1.529-3.413,3.413
			c0,1.884,1.529,3.413,3.413,3.413h64.853c1.609,0,3-1.125,3.338-2.698l9.661-45.088h14.307c1.884,0,3.413-1.529,3.413-3.413
			S203.271,139.947,201.387,139.947z"/>
	</g>
</g>
<g>
	<g>
		<path d="M133.067,180.294l-6.827-37.547c-0.338-1.855-2.115-3.084-3.97-2.748c-1.855,0.338-3.086,2.115-2.748,3.97l6.827,37.547
			c0.299,1.649,1.736,2.804,3.354,2.804c0.201,0,0.408-0.017,0.616-0.056C132.175,183.926,133.405,182.149,133.067,180.294z"/>
	</g>
</g>
<g>
	<g>
		<path d="M139.947,139.947c-1.884,0-3.413,1.529-3.413,3.413v37.547c0,1.884,1.529,3.413,3.413,3.413s3.413-1.529,3.413-3.413
			V143.36C143.36,141.476,141.831,139.947,139.947,139.947z"/>
	</g>
</g>
<g>
	<g>
		<path d="M157.624,140c-1.848-0.34-3.632,0.893-3.97,2.748l-6.827,37.547c-0.338,1.855,0.894,3.632,2.748,3.97
			c0.207,0.038,0.411,0.056,0.614,0.056c1.618,0,3.055-1.154,3.355-2.804l6.827-37.547C160.71,142.114,159.478,140.337,157.624,140z
			"/>
	</g>
</g>
<g>
	<g>
		<circle cx="119.467" cy="197.973" r="6.827"/>
	</g>
</g>
<g>
	<g>
		<circle cx="163.84" cy="197.973" r="6.827"/>
	</g>
</g>
<g>
	<g>
		<path d="M102.898,192.94c-4.792-8.893-7.325-18.956-7.325-29.1c0-9.044,1.988-17.843,5.907-26.151
			c0.806-1.705,0.075-3.739-1.63-4.543c-1.708-0.807-3.739-0.075-4.543,1.63c-4.355,9.226-6.562,19.005-6.562,29.065
			c0,9.397,1.958,18.734,5.695,27.307H6.825v-20.698c0-14.667,11.056-26.6,24.644-26.6c0.232,0,0.464-0.024,0.691-0.072l25.69-5.313
			c1.847-0.381,3.034-2.186,2.652-4.033c-0.381-1.848-2.193-3.041-4.033-2.652l-25.359,5.245C13.923,137.228,0,152.142,0,170.448
			v24.112c0,1.884,1.529,3.413,3.413,3.413h96.481c1.201,0,2.316-0.633,2.93-1.664C103.439,195.278,103.468,193.999,102.898,192.94z
			"/>
	</g>
</g>
<g>
</g>
<g>
</g>
<g>
</g>
<g>
</g>
<g>
</g>
<g>
</g>
<g>
</g>
<g>
</g>
<g>
</g>
<g>
</g>
<g>
</g>
<g>
</g>
<g>
</g>
<g>
</g>
<g>
</g>
</svg>
