<?xml version="1.0" encoding="iso-8859-1"?>
<!-- Generator: Adobe Illustrator 19.0.0, SVG Export Plug-In . SVG Version: 6.00 Build 0)  -->
<svg version="1.1" id="Capa_1" xmlns="http://www.w3.org/2000/svg" xmlns:xlink="http://www.w3.org/1999/xlink" x="0px" y="0px"
	 viewBox="0 0 215.04 215.04" style="enable-background:new 0 0 215.04 215.04;" xml:space="preserve">
<g>
	<g>
		<path d="M183.528,146.294c-0.65-0.778-1.609-1.227-2.621-1.227h-61.44c-1.014,0-1.973,0.449-2.621,1.227
			c-0.649,0.777-0.918,1.802-0.737,2.797l6.827,37.547c0.295,1.623,1.708,2.802,3.359,2.802h47.787c1.65,0,3.063-1.179,3.359-2.802
			l6.827-37.547C184.446,148.096,184.177,147.07,183.528,146.294z M171.232,182.613h-42.09l-5.586-30.72h53.26L171.232,182.613z"/>
	</g>
</g>
<g>
	<g>
		<path d="M211.627,145.067H194.56c-1.609,0-3,1.125-3.338,2.698l-9.661,45.088h-62.094c-1.884,0-3.413,1.529-3.413,3.413
			c0,1.884,1.529,3.413,3.413,3.413h64.853c1.609,0,3-1.125,3.338-2.698l9.661-45.088h14.307c1.884,0,3.413-1.529,3.413-3.413
			S213.511,145.067,211.627,145.067z"/>
	</g>
</g>
<g>
	<g>
		<path d="M143.307,185.414l-6.827-37.547c-0.338-1.855-2.113-3.084-3.97-2.748c-1.855,0.338-3.086,2.115-2.748,3.97l6.827,37.547
			c0.299,1.649,1.736,2.804,3.354,2.804c0.201,0,0.408-0.017,0.616-0.056C142.415,189.046,143.645,187.269,143.307,185.414z"/>
	</g>
</g>
<g>
	<g>
		<path d="M150.187,145.067c-1.884,0-3.413,1.529-3.413,3.413v37.547c0,1.884,1.529,3.413,3.413,3.413s3.413-1.529,3.413-3.413
			V148.48C153.6,146.596,152.071,145.067,150.187,145.067z"/>
	</g>
</g>
<g>
	<g>
		<path d="M167.864,145.12c-1.852-0.34-3.632,0.893-3.97,2.748l-6.827,37.547c-0.338,1.855,0.894,3.632,2.748,3.97
			c0.207,0.038,0.411,0.056,0.614,0.056c1.618,0,3.055-1.154,3.355-2.804l6.827-37.547
			C170.95,147.234,169.718,145.457,167.864,145.12z"/>
	</g>
</g>
<g>
	<g>
		<circle cx="129.707" cy="203.093" r="6.827"/>
	</g>
</g>
<g>
	<g>
		<circle cx="174.08" cy="203.093" r="6.827"/>
	</g>
</g>
<g>
	<g>
		<path d="M114.302,136.05c-1.519-1.115-3.656-0.787-4.77,0.734c-6.898,9.407-10.545,20.535-10.545,32.176
			c0,8.301,1.903,16.456,5.543,23.893H6.827v-27.525c0-14.667,13.452-26.6,30.131-26.602l23.339-0.986
			c1.884-0.08,3.347-1.671,3.267-3.555c-0.08-1.882-1.659-3.362-3.555-3.267l-23.194,0.983C16.515,131.901,0,146.896,0,165.328
			v30.938c0,1.884,1.529,3.413,3.413,3.413h106.93c1.244,0,2.389-0.678,2.99-1.766c0.601-1.089,0.56-2.42-0.106-3.471
			c-4.85-7.666-7.414-16.478-7.414-25.482c0-10.18,3.19-19.91,9.223-28.14C116.151,139.302,115.823,137.165,114.302,136.05z"/>
	</g>
</g>
<g>
	<g>
		<path d="M116.053,117.76H61.44c-1.884,0-3.413,1.529-3.413,3.413v16.213c0,1.493,0.969,2.813,2.394,3.258
			c8.87,2.772,18.598,4.157,28.326,4.157c9.728,0,19.456-1.386,28.326-4.157c1.425-0.445,2.394-1.765,2.394-3.258v-16.213
			C119.467,119.289,117.938,117.76,116.053,117.76z M112.64,134.835c-15.142,4.202-32.645,4.202-47.787,0v-10.249h47.787V134.835z"
			/>
	</g>
</g>
<g>
	<g>
		<path d="M136.533,45.664c-1.884,0-3.413,1.529-3.413,3.413v49.761c0,10.433-8.487,18.922-18.922,18.922H63.297
			c-10.433,0-18.922-8.487-18.922-18.922V49.877c0-1.884-1.529-3.413-3.413-3.413s-3.413,1.529-3.413,3.413v48.961
			c0,14.198,11.551,25.748,25.748,25.748h50.901c14.198,0,25.749-11.551,25.749-25.748V49.077
			C139.947,47.193,138.418,45.664,136.533,45.664z"/>
	</g>
</g>
<g>
	<g>
		<path d="M146.773,5.12h-91.59c-9.725,0-17.637,7.912-17.637,17.637v30.15c0,1.884,1.529,3.413,3.413,3.413h82.48
			c14.749,0,26.747-11.998,26.747-26.747V8.533C150.187,6.649,148.658,5.12,146.773,5.12z M143.36,29.573
			c0,10.984-8.936,19.92-19.92,19.92H44.373V22.757c0-5.961,4.849-10.81,10.81-10.81h88.177V29.573z"/>
	</g>
</g>
<g>
</g>
<g>
</g>
<g>
</g>
<g>
</g>
<g>
</g>
<g>
</g>
<g>
</g>
<g>
</g>
<g>
</g>
<g>
</g>
<g>
</g>
<g>
</g>
<g>
</g>
<g>
</g>
<g>
</g>
</svg>
