<?xml version="1.0" encoding="iso-8859-1"?>
<!-- Generator: Adobe Illustrator 19.0.0, SVG Export Plug-In . SVG Version: 6.00 Build 0)  -->
<svg version="1.1" id="Capa_1" xmlns="http://www.w3.org/2000/svg" xmlns:xlink="http://www.w3.org/1999/xlink" x="0px" y="0px"
	 viewBox="0 0 201.387 201.387" style="enable-background:new 0 0 201.387 201.387;" xml:space="preserve">
<g>
	<g>
		<path d="M200.632,49.06c-0.648-0.806-1.626-1.271-2.659-1.271h-19.782c-1.884,0-3.413,1.529-3.413,3.413s1.529,3.413,3.413,3.413
			h15.548l-15.584,71.68H44.09l-6.233-71.68h63.099c1.884,0,3.413-1.529,3.413-3.413s-1.529-3.413-3.413-3.413H34.135
			c-0.957,0-1.87,0.401-2.517,1.106c-0.645,0.705-0.968,1.649-0.884,2.601l6.827,78.507c0.154,1.765,1.63,3.118,3.4,3.118h139.947
			c1.604,0,2.995-1.12,3.335-2.686l17.067-78.507C201.528,50.918,201.279,49.864,200.632,49.06z"/>
	</g>
</g>
<g>
	<g>
		<path d="M37.525,50.823l-3.413-30.72c-0.191-1.727-1.65-3.036-3.391-3.036H3.413C1.529,17.067,0,18.596,0,20.48
			s1.529,3.413,3.413,3.413h24.252l3.077,27.684c0.193,1.746,1.671,3.036,3.386,3.036c0.126,0,0.254-0.007,0.381-0.022
			C36.383,54.385,37.733,52.697,37.525,50.823z"/>
	</g>
</g>
<g>
	<g>
		<path d="M47.766,160.051l-3.413-30.72c-0.208-1.876-1.91-3.241-3.768-3.016c-1.874,0.206-3.224,1.894-3.016,3.768l3.413,30.72
			c0.193,1.746,1.671,3.036,3.386,3.036c0.126,0,0.254-0.007,0.382-0.021C46.624,163.613,47.974,161.925,47.766,160.051z"/>
	</g>
</g>
<g>
	<g>
		<path d="M47.787,157.013c-9.411,0-17.067,7.656-17.067,17.067s7.656,17.067,17.067,17.067c9.411,0,17.067-7.656,17.067-17.067
			S57.197,157.013,47.787,157.013z M47.787,184.32c-5.647,0-10.24-4.593-10.24-10.24c0-5.647,4.593-10.24,10.24-10.24
			c5.647,0,10.24,4.593,10.24,10.24C58.027,179.727,53.434,184.32,47.787,184.32z"/>
	</g>
</g>
<g>
	<g>
		<path d="M163.84,157.013c-9.411,0-17.067,7.656-17.067,17.067s7.656,17.067,17.067,17.067s17.067-7.656,17.067-17.067
			S173.251,157.013,163.84,157.013z M163.84,184.32c-5.647,0-10.24-4.593-10.24-10.24c0-5.647,4.593-10.24,10.24-10.24
			c5.647,0,10.24,4.593,10.24,10.24C174.08,179.727,169.487,184.32,163.84,184.32z"/>
	</g>
</g>
<g>
	<g>
		<path d="M150.187,170.667H61.44c-1.884,0-3.413,1.529-3.413,3.413s1.529,3.413,3.413,3.413h88.747
			c1.886,0,3.413-1.529,3.413-3.413S152.071,170.667,150.187,170.667z"/>
	</g>
</g>
<g>
	<g>
		<path d="M139.947,10.24c-22.584,0-40.96,18.376-40.96,40.96c0,22.584,18.376,40.96,40.96,40.96c22.584,0,40.96-18.376,40.96-40.96
			C180.907,28.616,162.531,10.24,139.947,10.24z M139.947,85.333c-18.821,0-34.133-15.312-34.133-34.133
			c0-18.821,15.312-34.133,34.133-34.133c18.821,0,34.133,15.312,34.133,34.133C174.08,70.021,158.768,85.333,139.947,85.333z"/>
	</g>
</g>
<g>
	<g>
		<path d="M159.254,65.681l-33.79-33.79c-1.333-1.333-3.494-1.333-4.826,0c-1.333,1.333-1.333,3.494,0,4.826l33.79,33.79
			c0.667,0.667,1.539,1,2.413,1s1.748-0.333,2.413-1C160.587,69.175,160.587,67.014,159.254,65.681z"/>
	</g>
</g>
<g>
	<g>
		<path d="M159.256,31.891c-1.333-1.333-3.494-1.333-4.826,0l-33.79,33.79c-1.333,1.333-1.333,3.494,0,4.826
			c0.667,0.667,1.539,1,2.413,1c0.872,0,1.746-0.333,2.413-1l33.79-33.79C160.589,35.384,160.589,33.224,159.256,31.891z"/>
	</g>
</g>
<g>
</g>
<g>
</g>
<g>
</g>
<g>
</g>
<g>
</g>
<g>
</g>
<g>
</g>
<g>
</g>
<g>
</g>
<g>
</g>
<g>
</g>
<g>
</g>
<g>
</g>
<g>
</g>
<g>
</g>
</svg>
