<?xml version="1.0" encoding="iso-8859-1"?>
<!-- Generator: Adobe Illustrator 19.0.0, SVG Export Plug-In . SVG Version: 6.00 Build 0)  -->
<svg version="1.1" id="Capa_1" xmlns="http://www.w3.org/2000/svg" xmlns:xlink="http://www.w3.org/1999/xlink" x="0px" y="0px"
	 viewBox="0 0 201.387 201.387" style="enable-background:new 0 0 201.387 201.387;" xml:space="preserve">
<g>
	<g>
		<path d="M200.632,55.06c-0.648-0.806-1.626-1.271-2.659-1.271h-91.645c-1.884,0-3.413,1.529-3.413,3.413s1.529,3.413,3.413,3.413
			h87.41l-15.584,71.68H44.09l-6.233-71.68h50.7c1.884,0,3.413-1.529,3.413-3.413s-1.529-3.413-3.413-3.413H34.133
			c-0.956,0-1.869,0.401-2.516,1.106c-0.647,0.705-0.968,1.649-0.886,2.601l6.827,78.507c0.154,1.765,1.63,3.118,3.401,3.118
			h139.947c1.604,0,2.995-1.12,3.335-2.686l17.067-78.507C201.528,56.919,201.279,55.864,200.632,55.06z"/>
	</g>
</g>
<g>
	<g>
		<path d="M37.526,56.823l-3.413-30.72c-0.193-1.727-1.654-3.036-3.393-3.036H3.413C1.529,23.067,0,24.596,0,26.48
			s1.529,3.413,3.413,3.413h24.253l3.075,27.684c0.193,1.746,1.671,3.036,3.388,3.036c0.125,0,0.253-0.007,0.381-0.022
			C36.384,60.385,37.734,58.697,37.526,56.823z"/>
	</g>
</g>
<g>
	<g>
		<path d="M47.766,166.052l-3.413-30.72c-0.208-1.876-1.908-3.234-3.768-3.016c-1.874,0.206-3.224,1.894-3.016,3.768l3.413,30.72
			c0.193,1.746,1.671,3.036,3.388,3.036c0.125,0,0.253-0.007,0.381-0.021C46.624,169.614,47.974,167.926,47.766,166.052z"/>
	</g>
</g>
<g>
	<g>
		<path d="M47.787,163.014c-9.411,0-17.067,7.656-17.067,17.067s7.656,17.067,17.067,17.067c9.411,0,17.067-7.656,17.067-17.067
			S57.197,163.014,47.787,163.014z M47.787,190.32c-5.647,0-10.24-4.593-10.24-10.24c0-5.647,4.593-10.24,10.24-10.24
			c5.647,0,10.24,4.593,10.24,10.24C58.027,185.728,53.434,190.32,47.787,190.32z"/>
	</g>
</g>
<g>
	<g>
		<path d="M163.84,163.014c-9.411,0-17.067,7.656-17.067,17.067s7.656,17.067,17.067,17.067s17.067-7.656,17.067-17.067
			S173.251,163.014,163.84,163.014z M163.84,190.32c-5.647,0-10.24-4.593-10.24-10.24c0-5.647,4.593-10.24,10.24-10.24
			c5.647,0,10.24,4.593,10.24,10.24C174.08,185.728,169.487,190.32,163.84,190.32z"/>
	</g>
</g>
<g>
	<g>
		<path d="M150.187,176.667H61.44c-1.884,0-3.413,1.529-3.413,3.413s1.529,3.413,3.413,3.413h88.747
			c1.886,0,3.413-1.529,3.413-3.413S152.071,176.667,150.187,176.667z"/>
	</g>
</g>
<g>
	<g>
		<path d="M168.917,18.181L148.9,5.731c-3.058-1.901-6.762-1.988-9.912-0.241c-3.145,1.751-5.024,4.944-5.024,8.544v2.598
			c-27.52,2.999-48.63,26.218-48.63,54.222V87.92c0,5.647,4.593,10.24,10.24,10.24c5.647,0,10.24-4.594,10.24-10.24V70.854
			c0-16.618,12.099-30.711,28.15-33.565v1.638c0,3.603,1.879,6.796,5.026,8.545c3.149,1.751,6.856,1.659,9.911-0.244l20.019-12.447
			c2.888-1.797,4.613-4.9,4.613-8.303C173.531,23.079,171.805,19.976,168.917,18.181z M165.315,28.984l-20.018,12.447
			c-1.324,0.823-2.531,0.326-2.99,0.073c-0.457-0.254-1.517-1.014-1.517-2.579v-9.143l-3.645,0.249
			c-21.396,1.459-38.158,19.389-38.158,40.822V87.92c0,1.882-1.531,3.413-3.413,3.413s-3.413-1.531-3.413-3.413V70.854
			c0-25.453,19.937-46.389,45.385-47.66l3.243-0.162v-8.996c0-1.565,1.06-2.324,1.516-2.577c0.27-0.148,0.797-0.384,1.456-0.384
			c0.463,0,0.99,0.114,1.538,0.452l20.018,12.448c1.254,0.782,1.389,2.01,1.391,2.504C166.706,26.972,166.569,28.202,165.315,28.984
			z"/>
	</g>
</g>
<g>
</g>
<g>
</g>
<g>
</g>
<g>
</g>
<g>
</g>
<g>
</g>
<g>
</g>
<g>
</g>
<g>
</g>
<g>
</g>
<g>
</g>
<g>
</g>
<g>
</g>
<g>
</g>
<g>
</g>
</svg>
