<?xml version="1.0" encoding="iso-8859-1"?>
<!-- Generator: Adobe Illustrator 19.0.0, SVG Export Plug-In . SVG Version: 6.00 Build 0)  -->
<svg version="1.1" id="Capa_1" xmlns="http://www.w3.org/2000/svg" xmlns:xlink="http://www.w3.org/1999/xlink" x="0px" y="0px"
	 viewBox="0 0 204.86 204.86" style="enable-background:new 0 0 204.86 204.86;" xml:space="preserve">
<g>
	<g>
		<path d="M142.457,61.306c-5.89-34.533-35.63-59.599-70.717-59.599C32.181,1.707,0,33.888,0,73.447
			c0,18,6.647,35.069,18.772,48.331l-8.233,18.524c-0.604,1.36-0.276,2.954,0.819,3.963c0.657,0.606,1.504,0.92,2.357,0.92
			c0.567,0,1.14-0.138,1.659-0.418l18.775-10.242c8.818,5.431,18.811,8.933,29.03,10.156c1.882,0.239,3.635-1.13,3.862-3.034
			c0.229-1.906-1.13-3.635-3.034-3.862c-9.851-1.181-19.466-4.705-27.812-10.194c-1.072-0.707-2.446-0.763-3.572-0.148
			l-11.571,6.313l5.007-11.267c0.577-1.299,0.306-2.816-0.688-3.835C13.49,106.47,6.946,90.413,6.946,73.449
			c0-35.727,29.066-64.794,64.794-64.794c31.689,0,58.551,22.635,63.867,53.818c0.324,1.891,2.121,3.164,4.009,2.842
			C141.507,64.991,142.778,63.195,142.457,61.306z"/>
	</g>
</g>
<g>
	<g>
		<path d="M44.433,63.206c-5.647,0-10.24,4.593-10.24,10.24c0,5.647,4.593,10.24,10.24,10.24c5.646,0,10.24-4.593,10.24-10.24
			C54.673,67.798,50.08,63.206,44.433,63.206z M44.433,76.859c-1.882,0-3.413-1.531-3.413-3.413s1.531-3.413,3.413-3.413
			c1.881,0,3.413,1.531,3.413,3.413S46.315,76.859,44.433,76.859z"/>
	</g>
</g>
<g>
	<g>
		<path d="M71.74,63.206c-5.647,0-10.24,4.593-10.24,10.24c0,5.647,4.593,10.24,10.24,10.24c5.646,0,10.24-4.593,10.24-10.24
			C81.98,67.798,77.387,63.206,71.74,63.206z M71.74,76.859c-1.882,0-3.413-1.531-3.413-3.413s1.531-3.413,3.413-3.413
			c1.881,0,3.413,1.531,3.413,3.413S73.622,76.859,71.74,76.859z"/>
	</g>
</g>
<g>
	<g>
		<path d="M105.888,65.825c-1.881-1.69-4.311-2.621-6.842-2.621c-5.647,0-10.24,4.593-10.24,10.24c0,1.068,0.166,2.121,0.49,3.135
			c0.466,1.447,1.806,2.371,3.25,2.371c0.345,0,0.698-0.053,1.046-0.167c1.795-0.579,2.782-2.5,2.205-4.296
			c-0.109-0.336-0.164-0.688-0.164-1.044c0-1.882,1.531-3.413,3.413-3.413c0.843,0,1.654,0.311,2.278,0.872
			c1.401,1.261,3.558,1.145,4.82-0.256S107.29,67.087,105.888,65.825z"/>
	</g>
</g>
<g>
	<g>
		<path d="M186.076,179.793c12.131-13.256,18.784-30.324,18.784-48.321c0-39.525-32.155-71.68-71.68-71.68
			c-39.525,0-71.68,32.155-71.68,71.68c0,39.525,32.155,71.68,71.68,71.68c13.321,0,26.271-3.685,37.584-10.675l18.807,10.259
			c0.514,0.28,1.077,0.416,1.635,0.416c0.838,0,1.667-0.309,2.313-0.905c1.077-0.992,1.401-2.56,0.806-3.896L186.076,179.793z
			 M172.266,185.519c-1.109-0.602-2.456-0.546-3.512,0.145c-10.6,6.975-22.902,10.662-35.574,10.662
			c-35.76,0-64.853-29.094-64.853-64.853S97.42,66.619,133.18,66.619s64.853,29.092,64.855,64.853
			c0,16.981-6.55,33.051-18.442,45.247c-0.976,1-1.244,2.493-0.676,3.77l5.079,11.428L172.266,185.519z"/>
	</g>
</g>
<g>
	<g>
		<path d="M105.271,133.312c-0.864-1.043-1.92-1.823-3.157-2.34c-1.239-0.51-2.869-1.033-4.893-1.56
			c-1.563-0.394-2.801-0.758-3.707-1.097c-0.906-0.336-1.659-0.806-2.249-1.393c-0.597-0.594-0.884-1.353-0.864-2.28
			c0.026-1.391,0.683-2.456,1.973-3.203c1.287-0.746,2.947-1.099,4.98-1.063c2.137,0.044,4.203,0.43,6.197,1.167
			c0.256,0.104,0.459,0.16,0.613,0.164c0.463,0.01,0.84-0.15,1.126-0.48c0.29-0.329,0.44-0.7,0.451-1.113
			c0.014-0.766-0.34-1.29-1.05-1.56c-2.273-0.893-4.826-1.367-7.656-1.423c-2.113-0.039-3.925,0.278-5.446,0.957
			c-1.517,0.681-2.676,1.604-3.473,2.787c-0.79,1.183-1.2,2.507-1.23,3.973c-0.032,1.673,0.408,3.023,1.311,4.043
			c0.906,1.019,2,1.795,3.277,2.319c1.277,0.531,2.953,1.084,5.026,1.664c1.56,0.444,2.763,0.819,3.606,1.133
			c0.847,0.312,1.55,0.729,2.12,1.256c0.567,0.527,0.846,1.174,0.829,1.947c-0.056,2.956-2.34,4.393-6.844,4.306
			c-2.702-0.055-5.228-0.628-7.574-1.731c-0.23-0.108-0.474-0.164-0.73-0.167c-0.464-0.008-0.843,0.143-1.143,0.457
			c-0.302,0.316-0.459,0.693-0.466,1.13c-0.007,0.335,0.087,0.654,0.287,0.954c0.203,0.3,0.452,0.517,0.759,0.654
			c2.833,1.29,5.883,1.966,9.154,2.028c1.954,0.039,3.686-0.251,5.193-0.867c1.498-0.613,2.676-1.483,3.519-2.616
			c0.848-1.126,1.283-2.41,1.314-3.85C106.557,135.759,106.138,134.358,105.271,133.312z"/>
	</g>
</g>
<g>
	<g>
		<path d="M134.758,142.886l-9.393-23.427c-0.196-0.468-0.48-0.853-0.846-1.157c-0.37-0.302-0.824-0.459-1.364-0.469l-0.384-0.007
			c-0.541-0.01-1,0.126-1.377,0.416c-0.379,0.29-0.676,0.662-0.893,1.123l-10.293,23.043c-0.137,0.307-0.206,0.563-0.21,0.77
			c-0.009,0.488,0.143,0.901,0.461,1.241c0.314,0.343,0.73,0.519,1.246,0.529c0.36,0.007,0.693-0.084,0.993-0.273
			c0.295-0.186,0.526-0.447,0.686-0.777l2.627-5.973l13.123,0.253l2.393,6.074c0.147,0.338,0.37,0.604,0.664,0.804
			c0.29,0.201,0.616,0.3,0.976,0.311c0.514,0.01,0.937-0.15,1.263-0.48c0.329-0.328,0.497-0.737,0.507-1.224
			C134.938,143.456,134.881,143.197,134.758,142.886z M117.426,134.751l5.453-12.45l4.966,12.65L117.426,134.751z"/>
	</g>
</g>
<g>
	<g>
		<path d="M158.031,142.658c-0.338-0.353-0.754-0.536-1.241-0.543l-12.626-0.247l0.423-21.844c0.01-0.49-0.155-0.913-0.497-1.266
			c-0.341-0.353-0.758-0.532-1.244-0.543c-0.49-0.01-0.904,0.157-1.246,0.497c-0.341,0.34-0.517,0.756-0.527,1.246l-0.447,22.924
			c-0.014,0.671,0.217,1.248,0.683,1.734c0.471,0.486,1.034,0.732,1.707,0.746l13.706,0.266c0.486,0.007,0.91-0.15,1.26-0.48
			c0.353-0.328,0.536-0.734,0.546-1.224C158.537,143.434,158.37,143.014,158.031,142.658z"/>
	</g>
</g>
<g>
	<g>
		<path d="M180.094,142.798l-13.703-0.263l0.167-8.569l12.314,0.237c0.463,0.01,0.86-0.137,1.186-0.44
			c0.329-0.3,0.497-0.684,0.507-1.147c0.007-0.463-0.142-0.86-0.462-1.186c-0.314-0.329-0.705-0.497-1.167-0.507l-12.314-0.237
			l0.167-8.533l13.703,0.263c0.463,0.01,0.86-0.137,1.186-0.44c0.326-0.3,0.497-0.681,0.503-1.143
			c0.008-0.463-0.143-0.86-0.461-1.186c-0.314-0.329-0.705-0.497-1.167-0.507l-15.476-0.3c-0.49-0.01-0.904,0.157-1.246,0.497
			c-0.341,0.34-0.517,0.756-0.527,1.246l-0.457,23.427c-0.01,0.492,0.154,0.905,0.48,1.244c0.326,0.343,0.736,0.517,1.225,0.526
			l15.479,0.3c0.463,0.01,0.86-0.137,1.186-0.44c0.329-0.304,0.497-0.684,0.507-1.147c0.007-0.463-0.142-0.86-0.463-1.19
			C180.948,142.975,180.557,142.808,180.094,142.798z"/>
	</g>
</g>
<g>
</g>
<g>
</g>
<g>
</g>
<g>
</g>
<g>
</g>
<g>
</g>
<g>
</g>
<g>
</g>
<g>
</g>
<g>
</g>
<g>
</g>
<g>
</g>
<g>
</g>
<g>
</g>
<g>
</g>
</svg>
