<?xml version="1.0" encoding="iso-8859-1"?>
<!-- Generator: Adobe Illustrator 19.0.0, SVG Export Plug-In . SVG Version: 6.00 Build 0)  -->
<svg version="1.1" id="Capa_1" xmlns="http://www.w3.org/2000/svg" xmlns:xlink="http://www.w3.org/1999/xlink" x="0px" y="0px"
	 viewBox="0 0 187.733 187.733" style="enable-background:new 0 0 187.733 187.733;" xml:space="preserve">
<g>
	<g>
		<path d="M177.493,30.72H41.409c-19.069,0-34.582,15.514-34.582,34.582V184.32c0,1.478,0.952,2.789,2.359,3.246
			c0.346,0.113,0.703,0.167,1.055,0.167c1.072,0,2.106-0.505,2.76-1.405L36.801,153.6h109.524c19.069,0,34.582-15.514,34.582-34.582
			V34.133C180.907,32.249,179.378,30.72,177.493,30.72z M174.08,119.02c0,15.304-12.452,27.756-27.755,27.756H35.063
			c-1.091,0-2.118,0.522-2.76,1.405l-18.65,25.644V65.302c0-15.304,12.452-27.756,27.755-27.756H174.08V119.02z"/>
	</g>
</g>
<g>
	<g>
		<path d="M117.81,55.1c-1.618-0.971-3.714-0.447-4.683,1.171l-40.96,68.267c-0.969,1.616-0.445,3.714,1.171,4.683
			c0.55,0.329,1.154,0.486,1.753,0.486c1.161,0,2.29-0.591,2.93-1.657l40.96-68.267C119.95,58.167,119.426,56.069,117.81,55.1z"/>
	</g>
</g>
<g>
	<g>
		<path d="M76.8,51.2c-6.586,0-11.947,5.361-11.947,11.947c0,6.586,5.361,11.947,11.947,11.947s11.947-5.361,11.947-11.947
			C88.747,56.561,83.386,51.2,76.8,51.2z M76.8,68.267c-2.823,0-5.12-2.297-5.12-5.12c0-2.823,2.297-5.12,5.12-5.12
			c2.823,0,5.12,2.297,5.12,5.12C81.92,65.97,79.623,68.267,76.8,68.267z"/>
	</g>
</g>
<g>
	<g>
		<path d="M117.76,102.4c-6.586,0-11.947,5.361-11.947,11.947c0,6.586,5.361,11.947,11.947,11.947
			c6.586,0,11.947-5.361,11.947-11.947C129.707,107.761,124.346,102.4,117.76,102.4z M117.76,119.467c-2.823,0-5.12-2.297-5.12-5.12
			c0-2.823,2.297-5.12,5.12-5.12c2.823,0,5.12,2.297,5.12,5.12C122.88,117.17,120.583,119.467,117.76,119.467z"/>
	</g>
</g>
<g>
	<g>
		<path d="M58.027,146.773H23.893c-1.884,0-3.413,1.529-3.413,3.413s1.529,3.413,3.413,3.413h34.133
			c1.884,0,3.413-1.529,3.413-3.413S59.911,146.773,58.027,146.773z"/>
	</g>
</g>
<g>
	<g>
		<path d="M97.28,0c-6.586,0-11.947,5.361-11.947,11.947c0,6.586,5.361,11.947,11.947,11.947s11.947-5.361,11.947-11.947
			C109.227,5.361,103.866,0,97.28,0z M97.28,17.067c-2.823,0-5.12-2.297-5.12-5.12s2.297-5.12,5.12-5.12
			c2.823,0,5.12,2.297,5.12,5.12S100.103,17.067,97.28,17.067z"/>
	</g>
</g>
<g>
	<g>
		<path d="M131.413,0c-6.586,0-11.947,5.361-11.947,11.947c0,6.586,5.361,11.947,11.947,11.947c6.586,0,11.947-5.361,11.947-11.947
			C143.36,5.361,137.999,0,131.413,0z M131.413,17.067c-2.823,0-5.12-2.297-5.12-5.12s2.297-5.12,5.12-5.12
			c2.823,0,5.12,2.297,5.12,5.12S134.236,17.067,131.413,17.067z"/>
	</g>
</g>
<g>
	<g>
		<path d="M165.547,0C158.961,0,153.6,5.361,153.6,11.947c0,6.586,5.361,11.947,11.947,11.947c6.586,0,11.947-5.361,11.947-11.947
			C177.493,5.361,172.133,0,165.547,0z M165.547,17.067c-2.823,0-5.12-2.297-5.12-5.12s2.297-5.12,5.12-5.12
			c2.823,0,5.12,2.297,5.12,5.12S168.37,17.067,165.547,17.067z"/>
	</g>
</g>
<g>
</g>
<g>
</g>
<g>
</g>
<g>
</g>
<g>
</g>
<g>
</g>
<g>
</g>
<g>
</g>
<g>
</g>
<g>
</g>
<g>
</g>
<g>
</g>
<g>
</g>
<g>
</g>
<g>
</g>
</svg>
