<?xml version="1.0" encoding="iso-8859-1"?>
<!-- Generator: Adobe Illustrator 19.0.0, SVG Export Plug-In . SVG Version: 6.00 Build 0)  -->
<svg version="1.1" id="Capa_1" xmlns="http://www.w3.org/2000/svg" xmlns:xlink="http://www.w3.org/1999/xlink" x="0px" y="0px"
	 viewBox="0 0 204.86 204.86" style="enable-background:new 0 0 204.86 204.86;" xml:space="preserve">
<g>
	<g>
		<path d="M142.519,61.673C136.777,26.925,107.011,1.707,71.74,1.707C32.181,1.707,0,33.888,0,73.447
			c0,18,6.647,35.069,18.772,48.331l-8.233,18.524c-0.604,1.36-0.276,2.954,0.819,3.963c0.657,0.606,1.504,0.92,2.357,0.92
			c0.567,0,1.14-0.138,1.661-0.42l18.775-10.242c9.09,5.601,19.403,9.139,29.961,10.264c1.896,0.205,3.62-1.179,3.823-3.087
			c0.201-1.908-1.181-3.62-3.087-3.823c-10.155-1.079-20.064-4.637-28.652-10.286c-1.072-0.707-2.447-0.763-3.572-0.148
			l-11.571,6.313l5.007-11.267c0.577-1.299,0.306-2.816-0.688-3.835C13.49,106.47,6.946,90.413,6.946,73.449
			c0-35.727,29.066-64.794,64.794-64.794c31.857,0,58.74,22.772,63.925,54.151c0.312,1.891,2.103,3.164,3.994,2.86
			C141.551,65.354,142.833,63.566,142.519,61.673z"/>
	</g>
</g>
<g>
	<g>
		<path d="M44.433,63.206c-5.647,0-10.24,4.593-10.24,10.24c0,5.647,4.593,10.24,10.24,10.24c5.646,0,10.24-4.593,10.24-10.24
			C54.673,67.798,50.08,63.206,44.433,63.206z M44.433,76.859c-1.882,0-3.413-1.531-3.413-3.413s1.531-3.413,3.413-3.413
			c1.881,0,3.413,1.531,3.413,3.413S46.315,76.859,44.433,76.859z"/>
	</g>
</g>
<g>
	<g>
		<path d="M71.74,63.206c-5.647,0-10.24,4.593-10.24,10.24c0,5.647,4.593,10.24,10.24,10.24c5.646,0,10.24-4.593,10.24-10.24
			C81.98,67.798,77.387,63.206,71.74,63.206z M71.74,76.859c-1.882,0-3.413-1.531-3.413-3.413s1.531-3.413,3.413-3.413
			c1.881,0,3.413,1.531,3.413,3.413S73.622,76.859,71.74,76.859z"/>
	</g>
</g>
<g>
	<g>
		<path d="M107.063,67.076c-1.954-2.459-4.878-3.869-8.016-3.869c-5.647,0-10.24,4.593-10.24,10.24c0,1.208,0.21,2.393,0.623,3.521
			c0.507,1.381,1.814,2.239,3.205,2.239c0.389,0,0.789-0.068,1.176-0.207c1.77-0.648,2.678-2.609,2.029-4.379
			c-0.137-0.374-0.206-0.77-0.206-1.172c0-1.882,1.531-3.413,3.413-3.413c1.046,0,2.021,0.471,2.673,1.292
			c1.178,1.475,3.323,1.72,4.797,0.546C107.991,70.7,108.237,68.551,107.063,67.076z"/>
	</g>
</g>
<g>
	<g>
		<path d="M186.076,179.793c12.131-13.256,18.784-30.324,18.784-48.321c0-39.525-32.155-71.68-71.68-71.68
			c-39.525,0-71.68,32.155-71.68,71.68c0,39.525,32.155,71.68,71.68,71.68c13.321,0,26.271-3.685,37.584-10.675l18.807,10.259
			c0.514,0.28,1.077,0.416,1.635,0.416c0.838,0,1.667-0.309,2.313-0.905c1.077-0.992,1.401-2.56,0.806-3.896L186.076,179.793z
			 M172.266,185.519c-1.108-0.602-2.456-0.546-3.512,0.145c-10.6,6.975-22.902,10.662-35.574,10.662
			c-35.76,0-64.853-29.094-64.853-64.853S97.42,66.619,133.18,66.619s64.853,29.092,64.855,64.853
			c0,16.981-6.55,33.051-18.442,45.247c-0.976,1-1.244,2.493-0.676,3.77l5.079,11.428L172.266,185.519z"/>
	</g>
</g>
<g>
	<g>
		<path d="M155.416,97.825c-1.618-0.971-3.714-0.447-4.683,1.171l-40.96,68.267c-0.969,1.616-0.445,3.714,1.171,4.683
			c0.55,0.329,1.154,0.486,1.753,0.486c1.159,0,2.289-0.591,2.93-1.657l40.96-68.267C157.556,100.892,157.032,98.795,155.416,97.825
			z"/>
	</g>
</g>
<g>
	<g>
		<path d="M114.406,93.926c-6.586,0-11.947,5.361-11.947,11.947c0,6.586,5.361,11.947,11.947,11.947
			c6.586,0,11.947-5.361,11.947-11.947C126.353,99.286,120.992,93.926,114.406,93.926z M114.406,110.992
			c-2.823,0-5.12-2.297-5.12-5.12c0-2.823,2.297-5.12,5.12-5.12c2.823,0,5.12,2.297,5.12,5.12
			C119.526,108.695,117.229,110.992,114.406,110.992z"/>
	</g>
</g>
<g>
	<g>
		<path d="M155.366,145.126c-6.586,0-11.947,5.361-11.947,11.947c0,6.586,5.361,11.947,11.947,11.947
			c6.586,0,11.947-5.361,11.947-11.947C167.313,150.486,161.952,145.126,155.366,145.126z M155.366,162.192
			c-2.823,0-5.12-2.297-5.12-5.12c0-2.823,2.297-5.12,5.12-5.12s5.12,2.297,5.12,5.12
			C160.486,159.895,158.189,162.192,155.366,162.192z"/>
	</g>
</g>
<g>
</g>
<g>
</g>
<g>
</g>
<g>
</g>
<g>
</g>
<g>
</g>
<g>
</g>
<g>
</g>
<g>
</g>
<g>
</g>
<g>
</g>
<g>
</g>
<g>
</g>
<g>
</g>
<g>
</g>
</svg>
