<?xml version="1.0" encoding="iso-8859-1"?>
<!-- Generator: Adobe Illustrator 19.0.0, SVG Export Plug-In . SVG Version: 6.00 Build 0)  -->
<svg version="1.1" id="Capa_1" xmlns="http://www.w3.org/2000/svg" xmlns:xlink="http://www.w3.org/1999/xlink" x="0px" y="0px"
	 viewBox="0 0 197.973 197.973" style="enable-background:new 0 0 197.973 197.973;" xml:space="preserve">
<g>
	<g>
		<path d="M194.56,17.067h-68.504c-0.978,0-1.91,0.42-2.558,1.154c-0.649,0.734-0.949,1.712-0.828,2.683
			c0.143,1.15,0.21,2.101,0.21,2.99c0,13.175-10.718,23.893-23.893,23.893S75.093,37.069,75.093,23.893
			c0-0.899,0.067-1.85,0.208-2.99c0.123-0.971-0.179-1.947-0.828-2.683c-0.648-0.734-1.58-1.154-2.558-1.154H3.413
			C1.529,17.067,0,18.596,0,20.48v37.547c0,1.539,1.031,2.888,2.516,3.292l31.618,8.624v107.551c0,1.884,1.529,3.413,3.413,3.413
			h122.88c1.884,0,3.413-1.529,3.413-3.413V69.943l31.618-8.622c1.485-0.406,2.516-1.754,2.516-3.294V20.48
			C197.973,18.596,196.444,17.067,194.56,17.067z M191.147,55.421l-31.618,8.622c-1.485,0.406-2.516,1.754-2.516,3.294V174.08H40.96
			V67.338c0-1.541-1.031-2.889-2.516-3.294L6.827,55.421V23.893h61.44c0,16.939,13.781,30.72,30.72,30.72s30.72-13.781,30.72-30.72
			h61.44V55.421z"/>
	</g>
</g>
<g>
	<g>
		<path d="M160.427,47.787c-1.884,0-3.413,1.529-3.413,3.413v27.307c0,1.884,1.529,3.413,3.413,3.413s3.413-1.529,3.413-3.413V51.2
			C163.84,49.316,162.311,47.787,160.427,47.787z"/>
	</g>
</g>
<g>
	<g>
		<path d="M37.547,47.787c-1.884,0-3.413,1.529-3.413,3.413v37.547c0,1.884,1.529,3.413,3.413,3.413s3.413-1.529,3.413-3.413V51.2
			C40.96,49.316,39.431,47.787,37.547,47.787z"/>
	</g>
</g>
<g>
	<g>
		<path d="M135.429,62.546h-17.067c-28.327,0-52.052,22.183-54.381,50.096h-2.439c-3.601,0-6.796,1.877-8.544,5.026
			c-1.749,3.147-1.657,6.852,0.244,9.911l12.447,20.017c1.794,2.888,4.896,4.613,8.299,4.613c3.401,0,6.504-1.724,8.301-4.613
			l12.447-20.017c1.903-3.058,1.992-6.762,0.244-9.911c-1.751-3.145-4.944-5.026-8.545-5.026h-1.864
			c2.246-16.623,16.72-29.616,33.79-29.616h17.067c5.647,0,10.24-4.593,10.24-10.24C145.669,67.139,141.077,62.546,135.429,62.546z
			 M135.431,76.196h-17.067c-22.282,0-40.248,17.463-40.902,39.755l-0.104,3.514h9.078c1.565,0,2.326,1.06,2.579,1.517
			c0.253,0.456,0.753,1.661-0.073,2.99L76.495,143.99c-0.782,1.256-2.012,1.391-2.505,1.391s-1.722-0.135-2.504-1.389
			l-12.447-20.018c-0.826-1.331-0.326-2.534-0.073-2.992c0.254-0.456,1.012-1.516,2.577-1.516h9.018l0.073-3.342
			c0.553-25.783,21.965-46.756,47.73-46.756h17.067c1.882,0,3.413,1.531,3.413,3.413S137.313,76.196,135.431,76.196z"/>
	</g>
</g>
<g>
</g>
<g>
</g>
<g>
</g>
<g>
</g>
<g>
</g>
<g>
</g>
<g>
</g>
<g>
</g>
<g>
</g>
<g>
</g>
<g>
</g>
<g>
</g>
<g>
</g>
<g>
</g>
<g>
</g>
</svg>
