<?xml version="1.0" encoding="iso-8859-1"?>
<!-- Generator: Adobe Illustrator 19.0.0, SVG Export Plug-In . SVG Version: 6.00 Build 0)  -->
<svg version="1.1" id="Capa_1" xmlns="http://www.w3.org/2000/svg" xmlns:xlink="http://www.w3.org/1999/xlink" x="0px" y="0px"
	 viewBox="0 0 208.213 208.213" style="enable-background:new 0 0 208.213 208.213;" xml:space="preserve">
<g>
	<g>
		<path d="M98.053,181.589l-6.816,0.353l0.833,16.031H10.513l7.25-139.401c6.779-3.104,13.049-6.238,13.049-17.613
			c0-8.648-3.734-23.243-10.54-29.37l0.422-4.763h8.608c5.074,4.296,13.158,6.827,21.99,6.827s16.915-2.531,21.99-6.827h8.607
			l0.423,4.762c-6.806,6.127-10.54,20.722-10.54,29.37c0,11.648,6.576,14.655,13.539,17.836l1.377,0.631l0.768-1.659l4.147-0.217
			l-0.181-3.454l-3.273-1.51c-6.755-3.087-9.551-4.364-9.551-11.628c0-8.617,4.202-21.816,9.109-24.936l1.751-1.113L88.139,0H70.562
			l-0.997,0.983C65.91,4.588,58.907,6.827,51.29,6.827c-7.617,0-14.618-2.239-18.273-5.844L32.021,0H14.442l-1.318,14.911
			l1.751,1.113c4.907,3.12,9.11,16.319,9.11,24.936c0,7.262-2.797,8.538-9.552,11.628l-3.273,1.51L3.323,204.8H99.26L98.053,181.589
			z"/>
	</g>
</g>
<g>
	<g>
		<rect x="37.632" y="40.96" width="37.547" height="6.827"/>
	</g>
</g>
<g>
	<g>
		<path d="M187.822,54.555h-50.198c-0.997,0-1.944,0.427-2.604,1.174c-0.659,0.747-0.966,1.742-0.841,2.731
			c0.108,0.858,0.157,1.57,0.157,2.239c0,9.868-8.028,17.896-17.896,17.896s-17.896-8.028-17.896-17.896
			c0-0.666,0.051-1.379,0.159-2.241c0.121-0.99-0.184-1.983-0.845-2.731c-0.659-0.748-1.608-1.174-2.603-1.174H41.05
			c-1.918,0-3.473,1.555-3.473,3.473v29.385c0,1.574,1.056,2.951,2.577,3.357l24.73,6.596v83.541c0,1.918,1.555,3.473,3.473,3.473
			h60.303c1.918,0,3.473-1.555,3.473-3.473c0-1.918-1.555-3.473-3.473-3.473H71.83V94.696c0-1.574-1.056-2.951-2.577-3.357
			l-24.73-6.596V61.5h47.085c0.425,13.331,11.399,24.042,24.83,24.042c13.431,0,24.407-10.711,24.832-24.042h43.078v23.34
			l-21.434,6.533c-1.461,0.445-2.459,1.794-2.459,3.323V128c0,1.918,1.555,3.473,3.473,3.473c1.918,0,3.473-1.555,3.473-3.473V97.27
			l21.434-6.533c1.461-0.445,2.459-1.794,2.459-3.323V58.028C191.295,56.11,189.74,54.555,187.822,54.555z"/>
	</g>
</g>
<g>
	<g>
		<path d="M68.357,78.655c-1.884,0-3.413,1.529-3.413,3.413v29.385c0,1.884,1.529,3.413,3.413,3.413
			c1.886,0,3.413-1.529,3.413-3.413V82.068C71.77,80.184,70.241,78.655,68.357,78.655z"/>
	</g>
</g>
<g>
	<g>
		<path d="M163.93,78.655c-1.884,0-3.413,1.529-3.413,3.413v29.385c0,1.884,1.529,3.413,3.413,3.413
			c1.886,0,3.413-1.529,3.413-3.413V82.068C167.344,80.184,165.815,78.655,163.93,78.655z"/>
	</g>
</g>
<g>
	<g>
		<path d="M163.93,126.293c-22.586,0-40.96,18.376-40.96,40.96c0,22.584,18.374,40.96,40.96,40.96
			c22.586,0,40.96-18.376,40.96-40.96C204.891,144.669,186.516,126.293,163.93,126.293z M163.93,201.387
			c-18.821,0-34.133-15.312-34.133-34.133s15.312-34.133,34.133-34.133s34.133,15.312,34.133,34.133S182.752,201.387,163.93,201.387
			z"/>
	</g>
</g>
<g>
	<g>
		<path d="M184.41,163.84h-40.96c-1.884,0-3.413,1.529-3.413,3.413s1.529,3.413,3.413,3.413h40.96c1.886,0,3.413-1.529,3.413-3.413
			S186.295,163.84,184.41,163.84z"/>
	</g>
</g>
<g>
</g>
<g>
</g>
<g>
</g>
<g>
</g>
<g>
</g>
<g>
</g>
<g>
</g>
<g>
</g>
<g>
</g>
<g>
</g>
<g>
</g>
<g>
</g>
<g>
</g>
<g>
</g>
<g>
</g>
</svg>
