<?xml version="1.0" encoding="iso-8859-1"?>
<!-- Generator: Adobe Illustrator 19.0.0, SVG Export Plug-In . SVG Version: 6.00 Build 0)  -->
<svg version="1.1" id="Capa_1" xmlns="http://www.w3.org/2000/svg" xmlns:xlink="http://www.w3.org/1999/xlink" x="0px" y="0px"
	 viewBox="0 0 208.213 208.213" style="enable-background:new 0 0 208.213 208.213;" xml:space="preserve">
<g>
	<g>
		<path d="M96.316,181.038l-6.816,0.353l0.862,16.582H8.806l7.25-139.401c6.779-3.104,13.049-6.238,13.049-17.613
			c0-8.648-3.734-23.243-10.54-29.37l0.422-4.763h8.608c5.074,4.296,13.158,6.827,21.99,6.827s16.915-2.531,21.99-6.827h8.607
			l0.422,4.762c-6.806,6.127-10.54,20.722-10.54,29.37c0,11.648,6.576,14.655,13.539,17.836l1.377,0.631l0.763-1.645l4.154-0.218
			l-0.181-3.466l-3.273-1.51c-6.755-3.087-9.551-4.364-9.551-11.628c0-8.617,4.202-21.816,9.109-24.936l1.751-1.113L86.432,0H68.855
			l-0.997,0.983c-3.656,3.604-10.658,5.844-18.275,5.844c-7.617,0-14.618-2.239-18.273-5.844L30.314,0H12.735l-1.318,14.911
			l1.751,1.113c4.907,3.12,9.11,16.319,9.11,24.936c0,7.262-2.797,8.538-9.552,11.628l-3.273,1.51L1.616,204.8h95.937
			L96.316,181.038z"/>
	</g>
</g>
<g>
	<g>
		<rect x="35.925" y="40.96" width="37.547" height="6.827"/>
	</g>
</g>
<g>
	<g>
		<path d="M186.117,54.555h-50.198c-0.997,0-1.944,0.427-2.604,1.174c-0.659,0.747-0.966,1.742-0.841,2.731
			c0.107,0.858,0.157,1.57,0.157,2.239c0,9.868-8.028,17.896-17.896,17.896c-9.868,0-17.896-8.028-17.896-17.896
			c0-0.666,0.051-1.379,0.159-2.241c0.121-0.99-0.184-1.983-0.845-2.731c-0.659-0.748-1.608-1.174-2.603-1.174H39.346
			c-1.918,0-3.473,1.555-3.473,3.473v29.385c0,1.574,1.056,2.951,2.577,3.357l24.73,6.596v83.541c0,1.918,1.555,3.473,3.473,3.473
			h63.715c1.918,0,3.473-1.553,3.473-3.471c0-1.918-1.555-3.473-3.473-3.473H70.125V94.698c0-1.573-1.056-2.951-2.577-3.357
			l-24.73-6.596V61.501h47.085c0.425,13.331,11.399,24.042,24.83,24.042c13.432,0,24.407-10.711,24.832-24.042h43.078v23.34
			l-21.434,6.533c-1.461,0.445-2.459,1.794-2.459,3.323v33.586c0,1.918,1.555,3.473,3.473,3.473c1.918,0,3.473-1.555,3.473-3.473
			V97.27l21.434-6.533c1.461-0.445,2.459-1.794,2.459-3.323V58.028C189.59,56.11,188.035,54.555,186.117,54.555z"/>
	</g>
</g>
<g>
	<g>
		<path d="M66.65,78.655c-1.884,0-3.413,1.529-3.413,3.413v29.385c0,1.884,1.529,3.413,3.413,3.413c1.886,0,3.413-1.529,3.413-3.413
			V82.068C70.064,80.184,68.535,78.655,66.65,78.655z"/>
	</g>
</g>
<g>
	<g>
		<path d="M162.224,78.655c-1.884,0-3.413,1.529-3.413,3.413v29.385c0,1.884,1.529,3.413,3.413,3.413
			c1.886,0,3.413-1.529,3.413-3.413V82.068C165.637,80.184,164.108,78.655,162.224,78.655z"/>
	</g>
</g>
<g>
	<g>
		<path d="M165.637,126.293c-22.586,0-40.96,18.376-40.96,40.96c0,22.584,18.374,40.96,40.96,40.96
			c22.586,0,40.96-18.376,40.96-40.96C206.597,144.669,188.223,126.293,165.637,126.293z M165.637,201.387
			c-18.821,0-34.133-15.312-34.133-34.133s15.312-34.133,34.133-34.133s34.133,15.312,34.133,34.133
			S184.458,201.387,165.637,201.387z"/>
	</g>
</g>
<g>
	<g>
		<path d="M184.946,181.734l-33.79-33.79c-1.331-1.333-3.495-1.333-4.826,0c-1.333,1.333-1.333,3.494,0,4.826l33.79,33.79
			c0.666,0.667,1.539,1,2.413,1c0.874,0,1.748-0.333,2.413-1C186.279,185.228,186.279,183.067,184.946,181.734z"/>
	</g>
</g>
<g>
	<g>
		<path d="M184.946,147.944c-1.331-1.333-3.495-1.333-4.826,0l-33.79,33.79c-1.333,1.333-1.333,3.494,0,4.826
			c0.666,0.667,1.539,1,2.413,1c0.874,0,1.748-0.333,2.413-1l33.79-33.79C186.279,151.438,186.279,149.277,184.946,147.944z"/>
	</g>
</g>
<g>
</g>
<g>
</g>
<g>
</g>
<g>
</g>
<g>
</g>
<g>
</g>
<g>
</g>
<g>
</g>
<g>
</g>
<g>
</g>
<g>
</g>
<g>
</g>
<g>
</g>
<g>
</g>
<g>
</g>
</svg>
