<?xml version="1.0" encoding="iso-8859-1"?>
<!-- Generator: Adobe Illustrator 19.0.0, SVG Export Plug-In . SVG Version: 6.00 Build 0)  -->
<svg version="1.1" id="Capa_1" xmlns="http://www.w3.org/2000/svg" xmlns:xlink="http://www.w3.org/1999/xlink" x="0px" y="0px"
	 viewBox="0 0 197.973 197.973" style="enable-background:new 0 0 197.973 197.973;" xml:space="preserve">
<g>
	<g>
		<path d="M194.56,17.067h-68.504c-0.978,0-1.91,0.42-2.558,1.154c-0.649,0.734-0.949,1.712-0.828,2.683
			c0.143,1.15,0.21,2.101,0.21,2.99c0,13.175-10.718,23.893-23.893,23.893S75.093,37.069,75.093,23.893
			c0-0.899,0.067-1.85,0.208-2.99c0.123-0.971-0.179-1.947-0.828-2.683c-0.648-0.734-1.58-1.154-2.558-1.154H3.413
			C1.529,17.067,0,18.596,0,20.48v37.547c0,1.539,1.031,2.888,2.516,3.292l31.618,8.624v107.551c0,1.884,1.529,3.413,3.413,3.413
			h122.88c1.884,0,3.413-1.529,3.413-3.413V69.943l31.618-8.622c1.485-0.406,2.516-1.754,2.516-3.294V20.48
			C197.973,18.596,196.444,17.067,194.56,17.067z M191.147,55.421l-31.618,8.622c-1.485,0.406-2.516,1.754-2.516,3.294V174.08H40.96
			V67.338c0-1.541-1.031-2.889-2.516-3.294L6.827,55.421V23.893h61.44c0,16.939,13.781,30.72,30.72,30.72s30.72-13.781,30.72-30.72
			h61.44V55.421z"/>
	</g>
</g>
<g>
	<g>
		<path d="M160.427,47.787c-1.884,0-3.413,1.529-3.413,3.413v27.307c0,1.884,1.529,3.413,3.413,3.413s3.413-1.529,3.413-3.413V51.2
			C163.84,49.316,162.311,47.787,160.427,47.787z"/>
	</g>
</g>
<g>
	<g>
		<path d="M37.547,47.787c-1.884,0-3.413,1.529-3.413,3.413v37.547c0,1.884,1.529,3.413,3.413,3.413s3.413-1.529,3.413-3.413V51.2
			C40.96,49.316,39.431,47.787,37.547,47.787z"/>
	</g>
</g>
<g>
	<g>
		<path d="M137.356,74.353h-0.002l-20.018-12.447c-3.06-1.903-6.764-1.993-9.911-0.244c-3.145,1.749-5.026,4.944-5.026,8.544v2.611
			c-27.459,3.052-48.521,26.267-48.521,54.211v17.067c0,5.647,4.593,10.24,10.24,10.24s10.24-4.594,10.24-10.24v-17.067
			c0-16.563,12.051-30.645,28.041-33.546v1.62c0,3.601,1.877,6.796,5.026,8.544c3.147,1.749,6.852,1.659,9.909-0.244l20.019-12.447
			c2.888-1.794,4.613-4.896,4.615-8.298C141.969,79.252,140.244,76.15,137.356,74.353z M133.75,85.158l-20.021,12.447
			c-1.321,0.821-2.531,0.328-2.987,0.073c-0.457-0.254-1.517-1.012-1.517-2.577v-5.485c0-0.947-0.394-1.852-1.087-2.499
			c-0.695-0.645-1.635-0.957-2.569-0.906c-21.33,1.519-38.038,19.447-38.038,40.817v17.067c0,1.882-1.531,3.413-3.413,3.413
			s-3.413-1.531-3.413-3.413v-17.067c0-25.399,19.891-46.333,45.285-47.657c1.814-0.096,3.236-1.592,3.236-3.408v-5.757
			c0-1.565,1.06-2.324,1.517-2.577c0.27-0.148,0.794-0.382,1.452-0.382c0.463,0,0.988,0.116,1.536,0.456l20.018,12.447
			c1.256,0.782,1.393,2.012,1.393,2.505C135.139,83.147,135.004,84.376,133.75,85.158z"/>
	</g>
</g>
<g>
</g>
<g>
</g>
<g>
</g>
<g>
</g>
<g>
</g>
<g>
</g>
<g>
</g>
<g>
</g>
<g>
</g>
<g>
</g>
<g>
</g>
<g>
</g>
<g>
</g>
<g>
</g>
<g>
</g>
</svg>
