<?xml version="1.0" encoding="iso-8859-1"?>
<!-- Generator: Adobe Illustrator 19.0.0, SVG Export Plug-In . SVG Version: 6.00 Build 0)  -->
<svg version="1.1" id="Capa_1" xmlns="http://www.w3.org/2000/svg" xmlns:xlink="http://www.w3.org/1999/xlink" x="0px" y="0px"
	 viewBox="0 0 204.8 204.8" style="enable-background:new 0 0 204.8 204.8;" xml:space="preserve">
<g>
	<g>
		<path d="M186.535,34.133H179.2c-1.884,0-3.413,1.529-3.413,3.413s1.529,3.413,3.413,3.413h7.335c5.366,0,9.731,4.364,9.731,9.731
			v89.255H8.533V50.691c0-5.366,4.364-9.731,9.731-9.731H108.8c1.884,0,3.413-1.529,3.413-3.413s-1.529-3.413-3.413-3.413H18.265
			c-9.129,0-16.558,7.427-16.558,16.558v92.669c0,1.884,1.529,3.413,3.413,3.413h194.56c1.884,0,3.413-1.529,3.413-3.413V50.691
			C203.093,41.562,195.666,34.133,186.535,34.133z"/>
	</g>
</g>
<g>
	<g>
		<path d="M199.68,139.947H5.12c-1.884,0-3.413,1.529-3.413,3.413v17.575c0,9.129,7.427,16.558,16.558,16.558h168.271
			c9.129,0,16.558-7.429,16.558-16.558V143.36C203.093,141.476,201.564,139.947,199.68,139.947z M196.267,160.935
			c0,5.366-4.364,9.731-9.731,9.731H18.265c-5.366,0-9.731-4.364-9.731-9.731v-14.162h187.733V160.935z"/>
	</g>
</g>
<g>
	<g>
		<path d="M102.4,150.187c-4.705,0-8.533,3.828-8.533,8.533s3.828,8.533,8.533,8.533c4.705,0,8.533-3.828,8.533-8.533
			S107.105,150.187,102.4,150.187z M102.4,160.427c-0.942,0-1.707-0.765-1.707-1.707s0.765-1.707,1.707-1.707
			s1.707,0.765,1.707,1.707S103.342,160.427,102.4,160.427z"/>
	</g>
</g>
<g>
	<g>
		<path d="M134.316,199.595l-16.867-27.307c-0.621-1.007-1.72-1.62-2.903-1.62H90.254c-1.183,0-2.282,0.613-2.903,1.62
			l-16.867,27.307c-0.652,1.053-0.681,2.374-0.079,3.456c0.602,1.079,1.742,1.749,2.982,1.749h58.027
			c1.239,0,2.379-0.671,2.982-1.749C134.996,201.97,134.968,200.648,134.316,199.595z M79.507,197.973l12.65-20.48h20.487
			l12.65,20.48H79.507z"/>
	</g>
</g>
<g>
	<g>
		<path d="M69.973,54.613c-20.704,0-37.547,16.843-37.547,37.547s16.843,37.547,37.547,37.547c20.704,0,37.547-16.843,37.547-37.547
			S90.677,54.613,69.973,54.613z M69.973,122.88c-16.939,0-30.72-13.781-30.72-30.72s13.781-30.72,30.72-30.72
			c16.939,0,30.72,13.781,30.72,30.72S86.912,122.88,69.973,122.88z"/>
	</g>
</g>
<g>
	<g>
		<path d="M71.54,90.235c-4.454-1.843-6.349-3.176-6.349-5.837c0-2.05,1.485-4.403,5.427-4.403c3.277,0,5.376,1.128,6.451,1.741
			l1.28-3.379c-1.485-0.87-3.584-1.69-6.656-1.79V71.6h-3.173v5.169c-4.709,0.77-7.731,3.994-7.731,8.243
			c0,4.453,3.224,6.81,8.448,8.856c3.789,1.536,5.786,3.277,5.786,6.093c0,2.917-2.458,5.016-6.093,5.016
			c-2.865,0-5.528-0.973-7.371-2.2l-1.229,3.43c1.792,1.28,4.864,2.2,7.834,2.253v5.169v0.002h3.222v-5.323
			c5.274-0.874,8.09-4.661,8.09-8.707C79.476,95.044,76.814,92.385,71.54,90.235z"/>
	</g>
</g>
<g>
	<g>
		<path d="M145.067,0c-20.704,0-37.547,16.843-37.547,37.547s16.843,37.547,37.547,37.547s37.547-16.843,37.547-37.547
			S165.77,0,145.067,0z M145.067,68.267c-16.939,0-30.72-13.781-30.72-30.72s13.781-30.72,30.72-30.72s30.72,13.781,30.72,30.72
			S162.005,68.267,145.067,68.267z"/>
	</g>
</g>
<g>
	<g>
		<path d="M146.633,35.622c-4.454-1.843-6.349-3.176-6.349-5.837c0-2.05,1.485-4.403,5.427-4.403c3.277,0,5.376,1.128,6.451,1.741
			l1.28-3.379c-1.485-0.87-3.584-1.69-6.656-1.79v-4.966h-3.173v5.169c-4.709,0.77-7.731,3.994-7.731,8.243
			c0,4.453,3.224,6.81,8.448,8.856c3.789,1.536,5.786,3.277,5.786,6.093c0,2.917-2.458,5.016-6.093,5.016
			c-2.865,0-5.528-0.973-7.371-2.2l-1.229,3.43c1.792,1.28,4.864,2.2,7.834,2.253v5.169v0.002h3.222v-5.323
			c5.274-0.874,8.09-4.661,8.09-8.707C154.569,40.431,151.907,37.772,146.633,35.622z"/>
	</g>
</g>
<g>
	<g>
		<path d="M185.027,99.987c-1.333-1.333-3.494-1.333-4.826,0L151.187,129c-1.333,1.333-1.333,3.494,0,4.826
			c0.667,0.667,1.539,1,2.413,1s1.746-0.333,2.413-1l29.013-29.013C186.359,103.48,186.359,101.32,185.027,99.987z"/>
	</g>
</g>
<g>
	<g>
		<path d="M188.44,117.053c-1.333-1.333-3.494-1.333-4.826,0l-10.24,10.24c-1.333,1.333-1.333,3.494,0,4.826
			c0.667,0.667,1.539,1,2.413,1c0.874,0,1.746-0.333,2.413-1l10.24-10.24C189.773,120.547,189.773,118.386,188.44,117.053z"/>
	</g>
</g>
<g>
	<g>
		<path d="M151.893,197.973h-102.4c-1.884,0-3.413,1.529-3.413,3.413s1.529,3.413,3.413,3.413h102.4
			c1.884,0,3.413-1.529,3.413-3.413S153.778,197.973,151.893,197.973z"/>
	</g>
</g>
<g>
</g>
<g>
</g>
<g>
</g>
<g>
</g>
<g>
</g>
<g>
</g>
<g>
</g>
<g>
</g>
<g>
</g>
<g>
</g>
<g>
</g>
<g>
</g>
<g>
</g>
<g>
</g>
<g>
</g>
</svg>
