<?xml version="1.0" encoding="iso-8859-1"?>
<!-- Generator: Adobe Illustrator 19.0.0, SVG Export Plug-In . SVG Version: 6.00 Build 0)  -->
<svg version="1.1" id="Capa_1" xmlns="http://www.w3.org/2000/svg" xmlns:xlink="http://www.w3.org/1999/xlink" x="0px" y="0px"
	 viewBox="0 0 184.32 184.32" style="enable-background:new 0 0 184.32 184.32;" xml:space="preserve">
<g>
	<g>
		<path d="M180.907,163.212c-1.884,0-3.413,1.529-3.413,3.413v3.413h-3.413c-1.884,0-3.413,1.529-3.413,3.413
			c0,1.884,1.529,3.413,3.413,3.413h6.827c1.884,0,3.413-1.529,3.413-3.413v-6.827C184.32,164.741,182.791,163.212,180.907,163.212z
			"/>
	</g>
</g>
<g>
	<g>
		<g>
			<path d="M109.606,170.038H96.71c-1.884,0-3.413,1.529-3.413,3.413c0,1.884,1.529,3.413,3.413,3.413h12.896
				c1.886,0,3.413-1.529,3.413-3.413C113.019,171.567,111.49,170.038,109.606,170.038z"/>
			<path d="M83.816,170.038H70.922c-1.884,0-3.413,1.529-3.413,3.413c0,1.884,1.529,3.413,3.413,3.413h12.894
				c1.884,0,3.413-1.529,3.413-3.413C87.229,171.567,85.7,170.038,83.816,170.038z"/>
			<path d="M135.395,170.038h-12.894c-1.884,0-3.413,1.529-3.413,3.413c0,1.884,1.529,3.413,3.413,3.413h12.894
				c1.886,0,3.413-1.529,3.413-3.413C138.808,171.567,137.279,170.038,135.395,170.038z"/>
			<path d="M161.184,170.038h-12.896c-1.884,0-3.413,1.529-3.413,3.413c0,1.884,1.529,3.413,3.413,3.413h12.896
				c1.886,0,3.413-1.529,3.413-3.413C164.598,171.567,163.069,170.038,161.184,170.038z"/>
		</g>
	</g>
</g>
<g>
	<g>
		<path d="M58.027,170.038h-3.413v-3.413c0-1.884-1.529-3.413-3.413-3.413s-3.413,1.529-3.413,3.413v6.827
			c0,1.884,1.529,3.413,3.413,3.413h6.827c1.884,0,3.413-1.529,3.413-3.413C61.44,171.567,59.911,170.038,58.027,170.038z"/>
	</g>
</g>
<g>
	<g>
		<g>
			<path d="M51.2,136.879c-1.884,0-3.413,1.529-3.413,3.413v13.165c0,1.884,1.529,3.413,3.413,3.413s3.413-1.529,3.413-3.413
				v-13.165C54.613,138.409,53.084,136.879,51.2,136.879z"/>
			<path d="M51.2,110.547c-1.884,0-3.413,1.529-3.413,3.413v13.165c0,1.884,1.529,3.413,3.413,3.413s3.413-1.527,3.413-3.413
				v-13.165C54.613,112.076,53.084,110.547,51.2,110.547z"/>
			<path d="M51.2,84.217c-1.884,0-3.413,1.529-3.413,3.413v13.165c0,1.884,1.529,3.413,3.413,3.413s3.413-1.529,3.413-3.413V87.63
				C54.613,85.746,53.084,84.217,51.2,84.217z"/>
		</g>
	</g>
</g>
<g>
	<g>
		<path d="M58.027,64.225H51.2c-1.884,0-3.413,1.529-3.413,3.413v6.827c0,1.884,1.529,3.413,3.413,3.413s3.413-1.529,3.413-3.413
			v-3.413h3.413c1.884,0,3.413-1.529,3.413-3.413S59.911,64.225,58.027,64.225z"/>
	</g>
</g>
<g>
	<g>
		<g>
			<path d="M83.816,64.225H70.92c-1.884,0-3.413,1.529-3.413,3.413s1.529,3.413,3.413,3.413h12.896c1.886,0,3.413-1.529,3.413-3.413
				S85.7,64.225,83.816,64.225z"/>
			<path d="M109.606,64.225H96.712c-1.884,0-3.413,1.529-3.413,3.413s1.529,3.413,3.413,3.413h12.894
				c1.886,0,3.413-1.529,3.413-3.413S111.49,64.225,109.606,64.225z"/>
			<path d="M161.184,64.225h-12.894c-1.884,0-3.413,1.529-3.413,3.413s1.529,3.413,3.413,3.413h12.894
				c1.886,0,3.413-1.529,3.413-3.413S163.069,64.225,161.184,64.225z"/>
			<path d="M135.395,64.225h-12.896c-1.884,0-3.413,1.529-3.413,3.413s1.529,3.413,3.413,3.413h12.896
				c1.886,0,3.413-1.529,3.413-3.413S137.279,64.225,135.395,64.225z"/>
		</g>
	</g>
</g>
<g>
	<g>
		<path d="M180.907,64.225h-6.827c-1.884,0-3.413,1.529-3.413,3.413s1.529,3.413,3.413,3.413h3.413v3.413
			c0,1.884,1.529,3.413,3.413,3.413c1.884,0,3.413-1.529,3.413-3.413v-6.827C184.32,65.754,182.791,64.225,180.907,64.225z"/>
	</g>
</g>
<g>
	<g>
		<g>
			<path d="M180.907,110.549c-1.884,0-3.413,1.529-3.413,3.413v13.165c0,1.884,1.529,3.413,3.413,3.413
				c1.884,0,3.413-1.527,3.413-3.413v-13.165C184.32,112.078,182.791,110.549,180.907,110.549z"/>
			<path d="M180.907,136.881c-1.884,0-3.413,1.529-3.413,3.413v13.165c0,1.884,1.529,3.413,3.413,3.413
				c1.884,0,3.413-1.529,3.413-3.413v-13.165C184.32,138.41,182.791,136.881,180.907,136.881z"/>
			<path d="M180.907,84.219c-1.884,0-3.413,1.529-3.413,3.413v13.165c0,1.884,1.529,3.413,3.413,3.413
				c1.884,0,3.413-1.529,3.413-3.413V87.632C184.32,85.748,182.791,84.219,180.907,84.219z"/>
		</g>
	</g>
</g>
<g>
	<g>
		<path d="M51.2,163.212c-1.884,0-3.413,1.529-3.413,3.413v3.413h-3.413c-1.884,0-3.413,1.529-3.413,3.413
			c0,1.884,1.529,3.413,3.413,3.413H51.2c1.884,0,3.413-1.529,3.413-3.413v-6.827C54.613,164.741,53.084,163.212,51.2,163.212z"/>
	</g>
</g>
<g>
	<g>
		<path d="M32.995,170.038H21.617c-1.884,0-3.413,1.529-3.413,3.413c0,1.884,1.529,3.413,3.413,3.413h11.378
			c1.886,0,3.413-1.529,3.413-3.413C36.408,171.567,34.879,170.038,32.995,170.038z"/>
	</g>
</g>
<g>
	<g>
		<path d="M10.24,170.038H6.827v-3.413c0-1.884-1.529-3.413-3.413-3.413S0,164.741,0,166.625v6.827c0,1.884,1.529,3.413,3.413,3.413
			h6.827c1.884,0,3.413-1.529,3.413-3.413C13.653,171.567,12.124,170.038,10.24,170.038z"/>
	</g>
</g>
<g>
	<g>
		<g>
			<path d="M3.413,136.879c-1.884,0-3.413,1.529-3.413,3.413v13.165c0,1.884,1.529,3.413,3.413,3.413s3.413-1.529,3.413-3.413
				v-13.165C6.827,138.409,5.298,136.879,3.413,136.879z"/>
			<path d="M3.413,84.217C1.529,84.217,0,85.746,0,87.63v13.165c0,1.884,1.529,3.413,3.413,3.413s3.413-1.529,3.413-3.413V87.63
				C6.827,85.746,5.298,84.217,3.413,84.217z"/>
			<path d="M3.413,110.547c-1.884,0-3.413,1.529-3.413,3.413v13.165c0,1.884,1.529,3.413,3.413,3.413s3.413-1.527,3.413-3.413
				v-13.165C6.827,112.076,5.298,110.547,3.413,110.547z"/>
		</g>
	</g>
</g>
<g>
	<g>
		<path d="M10.24,64.225H3.413C1.529,64.225,0,65.754,0,67.638v6.827c0,1.884,1.529,3.413,3.413,3.413s3.413-1.529,3.413-3.413
			v-3.413h3.413c1.884,0,3.413-1.529,3.413-3.413S12.124,64.225,10.24,64.225z"/>
	</g>
</g>
<g>
	<g>
		<path d="M32.995,64.225H21.617c-1.884,0-3.413,1.529-3.413,3.413s1.529,3.413,3.413,3.413h11.378c1.886,0,3.413-1.529,3.413-3.413
			S34.879,64.225,32.995,64.225z"/>
	</g>
</g>
<g>
	<g>
		<path d="M51.2,64.225h-6.827c-1.884,0-3.413,1.529-3.413,3.413s1.529,3.413,3.413,3.413h3.413v3.413
			c0,1.884,1.529,3.413,3.413,3.413s3.413-1.529,3.413-3.413v-6.827C54.613,65.754,53.084,64.225,51.2,64.225z"/>
	</g>
</g>
<g>
	<g>
		<g>
			<path d="M51.2,136.881c-1.884,0-3.413,1.529-3.413,3.413v13.165c0,1.884,1.529,3.413,3.413,3.413s3.413-1.529,3.413-3.413
				v-13.165C54.613,138.41,53.084,136.881,51.2,136.881z"/>
			<path d="M51.2,110.549c-1.884,0-3.413,1.529-3.413,3.413v13.165c0,1.884,1.529,3.413,3.413,3.413s3.413-1.527,3.413-3.413
				v-13.165C54.613,112.078,53.084,110.549,51.2,110.549z"/>
			<path d="M51.2,84.219c-1.884,0-3.413,1.529-3.413,3.413v13.165c0,1.884,1.529,3.413,3.413,3.413s3.413-1.529,3.413-3.413V87.632
				C54.613,85.748,53.084,84.219,51.2,84.219z"/>
		</g>
	</g>
</g>
<g>
	<g>
		<path d="M49.232,22.139c-2.859-5.429-7.006-9.82-11.675-12.358c-5.118-2.785-10.289-3.077-14.558-0.829
			c-4.268,2.249-6.95,6.678-7.55,12.474c-0.548,5.287,0.725,11.189,3.586,16.618c2.859,5.429,7.006,9.82,11.675,12.358
			c2.845,1.548,5.705,2.326,8.419,2.326c2.167,0,4.243-0.498,6.139-1.497c4.268-2.249,6.95-6.678,7.55-12.474
			C53.366,33.469,52.093,27.567,49.232,22.139z M46.027,38.053c-0.208,2-0.995,5.588-3.942,7.139
			c-2.947,1.551-6.349,0.174-8.115-0.787c-3.499-1.901-6.658-5.292-8.897-9.542c-2.237-4.25-3.244-8.774-2.835-12.733
			c0.208-2,0.995-5.588,3.942-7.139c0.959-0.505,1.966-0.7,2.949-0.7c2.039,0,3.975,0.838,5.166,1.487
			c3.499,1.901,6.658,5.292,8.897,9.542C45.43,29.569,46.437,34.094,46.027,38.053z"/>
	</g>
</g>
<g>
	<g>
		<path d="M86.951,21.425c-0.599-5.796-3.282-10.226-7.55-12.474s-9.438-1.956-14.558,0.829c-4.669,2.538-8.815,6.927-11.675,12.358
			c-2.86,5.427-4.134,11.329-3.586,16.618c0.599,5.796,3.282,10.226,7.55,12.474c1.896,0.998,3.97,1.497,6.139,1.497
			c2.714,0,5.574-0.778,8.419-2.326c4.669-2.538,8.815-6.927,11.675-12.358C86.226,32.616,87.499,26.714,86.951,21.425z
			 M77.326,34.863c-2.239,4.25-5.398,7.641-8.897,9.542c-1.766,0.963-5.166,2.338-8.115,0.787c-2.947-1.553-3.734-5.139-3.942-7.139
			c-0.41-3.959,0.596-8.484,2.835-12.733c2.239-4.25,5.398-7.641,8.897-9.542c1.191-0.649,3.128-1.487,5.168-1.487
			c0.983,0,1.99,0.195,2.947,0.7c2.947,1.553,3.734,5.139,3.942,7.139C80.57,26.089,79.565,30.614,77.326,34.863z"/>
	</g>
</g>
<g>
	<g>
		<rect x="10.178" y="65.928" transform="matrix(0.333 -0.9429 0.9429 0.333 -38.0709 84.8615)" width="61.541" height="6.827"/>
	</g>
</g>
<g>
	<g>
		<rect x="58.022" y="38.578" transform="matrix(0.943 -0.3328 0.3328 0.943 -19.5773 24.3987)" width="6.827" height="61.543"/>
	</g>
</g>
<g>
</g>
<g>
</g>
<g>
</g>
<g>
</g>
<g>
</g>
<g>
</g>
<g>
</g>
<g>
</g>
<g>
</g>
<g>
</g>
<g>
</g>
<g>
</g>
<g>
</g>
<g>
</g>
<g>
</g>
</svg>
