<?xml version="1.0" encoding="iso-8859-1"?>
<!-- Generator: Adobe Illustrator 19.0.0, SVG Export Plug-In . SVG Version: 6.00 Build 0)  -->
<svg version="1.1" id="Capa_1" xmlns="http://www.w3.org/2000/svg" xmlns:xlink="http://www.w3.org/1999/xlink" x="0px" y="0px"
	 viewBox="0 0 167.253 167.253" style="enable-background:new 0 0 167.253 167.253;" xml:space="preserve">
<g>
	<g>
		<path d="M157.013,40.96H10.24c-1.884,0-3.413,1.529-3.413,3.413v112.64c0,1.884,1.529,3.413,3.413,3.413h146.773
			c1.884,0,3.413-1.529,3.413-3.413V44.373C160.427,42.489,158.897,40.96,157.013,40.96z M153.6,153.6H13.653V47.787H153.6V153.6z"
			/>
	</g>
</g>
<g>
	<g>
		<path d="M88.747,102.4h-61.44c-1.884,0-3.413,1.529-3.413,3.413v37.547c0,1.884,1.529,3.413,3.413,3.413h61.44
			c1.884,0,3.413-1.529,3.413-3.413v-37.547C92.16,103.929,90.631,102.4,88.747,102.4z M85.333,139.947H30.72v-30.72h54.613V139.947
			z"/>
	</g>
</g>
<g>
	<g>
		<path d="M152.16,6.827H15.094C6.77,6.827,0,13.597,0,21.92v22.453c0,1.884,1.529,3.413,3.413,3.413H163.84
			c1.884,0,3.413-1.529,3.413-3.413V21.92C167.253,13.597,160.481,6.827,152.16,6.827z M160.427,40.96H6.827V21.92
			c0-4.559,3.709-8.267,8.267-8.267H152.16c4.559,0,8.267,3.709,8.267,8.267V40.96z"/>
	</g>
</g>
<g>
	<g>
		<path d="M136.533,40.96H102.4c-1.884,0-3.413,1.529-3.413,3.413v40.96c0,1.229,0.662,2.365,1.732,2.97
			c1.068,0.608,2.383,0.592,3.437-0.043l15.31-9.187l15.31,9.187c0.541,0.324,1.149,0.486,1.756,0.486
			c0.579,0,1.161-0.147,1.681-0.444c1.07-0.604,1.732-1.739,1.732-2.97v-40.96C139.947,42.489,138.418,40.96,136.533,40.96z
			 M133.12,79.305l-11.897-7.139c-0.541-0.324-1.149-0.486-1.756-0.486c-0.608,0-1.215,0.162-1.756,0.486l-11.897,7.139V47.787
			h27.307V79.305z"/>
	</g>
</g>
<g>
	<g>
		<path d="M75.093,116.053H37.547c-1.884,0-3.413,1.529-3.413,3.413c0,1.884,1.529,3.413,3.413,3.413h37.547
			c1.884,0,3.413-1.529,3.413-3.413C78.507,117.582,76.977,116.053,75.093,116.053z"/>
	</g>
</g>
<g>
	<g>
		<path d="M54.613,126.293H37.547c-1.884,0-3.413,1.529-3.413,3.413c0,1.884,1.529,3.413,3.413,3.413h17.067
			c1.884,0,3.413-1.529,3.413-3.413C58.027,127.823,56.498,126.293,54.613,126.293z"/>
	</g>
</g>
<g>
</g>
<g>
</g>
<g>
</g>
<g>
</g>
<g>
</g>
<g>
</g>
<g>
</g>
<g>
</g>
<g>
</g>
<g>
</g>
<g>
</g>
<g>
</g>
<g>
</g>
<g>
</g>
<g>
</g>
</svg>
