<?xml version="1.0" encoding="iso-8859-1"?>
<!-- Generator: Adobe Illustrator 19.0.0, SVG Export Plug-In . SVG Version: 6.00 Build 0)  -->
<svg version="1.1" id="Capa_1" xmlns="http://www.w3.org/2000/svg" xmlns:xlink="http://www.w3.org/1999/xlink" x="0px" y="0px"
	 viewBox="0 0 215.04 215.04" style="enable-background:new 0 0 215.04 215.04;" xml:space="preserve">
<g>
	<g>
		<path d="M159.602,147.265c-0.002,0-0.005,0-0.007,0l-22.849-0.966c-1.874-0.08-3.476,1.381-3.555,3.265
			c-0.079,1.884,1.382,3.475,3.267,3.555l22.994,0.969c16.536,0,29.988,11.933,29.988,26.6v27.525H25.6v-27.525
			c0-14.667,13.454-26.6,30.133-26.604l23.658-1c1.884-0.08,3.347-1.671,3.267-3.553s-1.667-3.36-3.555-3.267l-23.514,0.997
			c-20.299,0-36.815,14.995-36.815,33.427v30.938c0,1.884,1.529,3.413,3.413,3.413h170.667c1.884,0,3.413-1.529,3.413-3.413v-30.938
			C196.267,162.258,179.756,147.265,159.602,147.265z"/>
	</g>
</g>
<g>
	<g>
		<path d="M134.827,133.12H80.213c-1.884,0-3.413,1.529-3.413,3.413v16.213c0,1.493,0.969,2.813,2.394,3.258
			c8.87,2.772,18.598,4.157,28.326,4.157c9.728,0,19.456-1.388,28.326-4.157c1.425-0.445,2.394-1.765,2.394-3.258v-16.213
			C138.24,134.649,136.711,133.12,134.827,133.12z M131.413,150.195c-15.141,4.2-32.645,4.2-47.787,0v-10.249h47.787V150.195z"/>
	</g>
</g>
<g>
	<g>
		<path d="M155.307,49.188c-1.884,0-3.413,1.529-3.413,3.413v61.595c0,10.435-8.487,18.924-18.922,18.924H82.07
			c-10.433,0-18.922-8.489-18.922-18.924V52.601c0-1.884-1.529-3.413-3.413-3.413s-3.413,1.529-3.413,3.413v61.595
			c0,14.198,11.551,25.75,25.748,25.75h50.901c14.198,0,25.748-11.552,25.748-25.75V52.601
			C158.72,50.717,157.191,49.188,155.307,49.188z"/>
	</g>
</g>
<g>
	<g>
		<path d="M172.373,177.493h-30.72c-1.884,0-3.413,1.529-3.413,3.413v30.72c0,1.884,1.529,3.413,3.413,3.413h30.72
			c1.884,0,3.413-1.529,3.413-3.413v-30.72C175.787,179.022,174.258,177.493,172.373,177.493z M168.96,208.213h-23.893V184.32
			h23.893V208.213z"/>
	</g>
</g>
<g>
	<g>
		<path d="M121.061,1.93C116.664,0.65,112.109,0,107.52,0c-28.232,0-51.2,24.499-51.2,54.613c0,1.884,1.529,3.413,3.413,3.413
			h95.573c1.884,0,3.413-1.529,3.413-3.413C158.72,30.063,143.234,8.398,121.061,1.93z M63.258,51.2
			C64.889,26.438,84.118,6.827,107.52,6.827c3.944,0,7.857,0.558,11.628,1.657c18.255,5.325,31.295,22.615,32.631,42.716H63.258z"/>
	</g>
</g>
<g>
	<g>
		<path d="M155.307,51.2H59.733c-1.884,0-3.413,1.529-3.413,3.413c0,20.704,22.968,37.547,51.2,37.547s51.2-16.843,51.2-37.547
			C158.72,52.729,157.191,51.2,155.307,51.2z M107.52,85.333c-22.801,0-41.641-11.969-44.1-27.307h88.201
			C149.161,73.364,130.321,85.333,107.52,85.333z"/>
	</g>
</g>
<g>
	<g>
		<path d="M120.117,4.849c-1.092-1.534-3.224-1.896-4.76-0.804c-1.536,1.092-1.896,3.224-0.804,4.76
			c15.102,21.246,4.951,40.325,4.49,41.165c-0.915,1.645-0.324,3.719,1.319,4.637c0.526,0.295,1.097,0.434,1.661,0.434
			c1.196,0,2.359-0.63,2.985-1.748C125.539,52.34,137.803,29.73,120.117,4.849z"/>
	</g>
</g>
<g>
	<g>
		<path d="M97.435,4.045c-1.536-1.089-3.668-0.729-4.76,0.804C74.989,29.73,87.253,52.34,87.784,53.292
			c0.625,1.118,1.787,1.748,2.983,1.748c0.563,0,1.135-0.138,1.661-0.434c1.645-0.918,2.236-2.999,1.316-4.646
			c-0.109-0.195-10.718-19.755,4.495-41.156C99.331,7.269,98.971,5.137,97.435,4.045z"/>
	</g>
</g>
<g>
	<g>
		<path d="M124.484,118.637c-0.459-1.828-2.311-2.942-4.14-2.483l-8.972,2.243c-2.519,0.63-5.183,0.631-7.706,0l-8.972-2.243
			c-1.83-0.461-3.683,0.655-4.14,2.483c-0.457,1.83,0.655,3.681,2.483,4.14l8.974,2.243c1.802,0.451,3.656,0.676,5.509,0.676
			s3.707-0.224,5.509-0.676l8.972-2.243C123.829,122.319,124.942,120.467,124.484,118.637z"/>
	</g>
</g>
<g>
</g>
<g>
</g>
<g>
</g>
<g>
</g>
<g>
</g>
<g>
</g>
<g>
</g>
<g>
</g>
<g>
</g>
<g>
</g>
<g>
</g>
<g>
</g>
<g>
</g>
<g>
</g>
<g>
</g>
</svg>
