<?xml version="1.0" encoding="iso-8859-1"?>
<!-- Generator: Adobe Illustrator 19.0.0, SVG Export Plug-In . SVG Version: 6.00 Build 0)  -->
<svg version="1.1" id="Capa_1" xmlns="http://www.w3.org/2000/svg" xmlns:xlink="http://www.w3.org/1999/xlink" x="0px" y="0px"
	 viewBox="0 0 215.04 215.04" style="enable-background:new 0 0 215.04 215.04;" xml:space="preserve">
<g>
	<g>
		<path d="M61.44,47.787H17.067c-1.884,0-3.413,1.529-3.413,3.413s1.529,3.413,3.413,3.413H61.44c1.884,0,3.413-1.529,3.413-3.413
			S63.324,47.787,61.44,47.787z"/>
	</g>
</g>
<g>
	<g>
		<path d="M61.44,64.853H51.2c-1.884,0-3.413,1.529-3.413,3.413c0,1.884,1.529,3.413,3.413,3.413h10.24
			c1.884,0,3.413-1.529,3.413-3.413C64.853,66.383,63.324,64.853,61.44,64.853z"/>
	</g>
</g>
<g>
	<g>
		<path d="M40.96,64.853H6.827c-1.884,0-3.413,1.529-3.413,3.413c0,1.884,1.529,3.413,3.413,3.413H40.96
			c1.884,0,3.413-1.529,3.413-3.413C44.373,66.383,42.844,64.853,40.96,64.853z"/>
	</g>
</g>
<g>
	<g>
		<path d="M61.44,81.92H47.787c-1.884,0-3.413,1.529-3.413,3.413s1.529,3.413,3.413,3.413H61.44c1.884,0,3.413-1.529,3.413-3.413
			S63.324,81.92,61.44,81.92z"/>
	</g>
</g>
<g>
	<g>
		<path d="M211.627,122.88H51.2c-1.884,0-3.413,1.529-3.413,3.413v23.893c0,1.884,1.529,3.413,3.413,3.413h12.44
			c1.884,0,3.413-1.529,3.413-3.413s-1.529-3.413-3.413-3.413h-9.027v-17.067h153.6v8.271c0,4.85-3.946,8.796-8.796,8.796
			c-1.884,0-3.413,1.529-3.413,3.413s1.529,3.413,3.413,3.413c8.615,0,15.623-7.008,15.623-15.623v-11.684
			C215.04,124.409,213.511,122.88,211.627,122.88z"/>
	</g>
</g>
<g>
	<g>
		<path d="M169.17,146.773H92.942c-1.884,0-3.413,1.529-3.413,3.413s1.529,3.413,3.413,3.413h76.228
			c1.884,0,3.413-1.529,3.413-3.413S171.054,146.773,169.17,146.773z"/>
	</g>
</g>
<g>
	<g>
		<path d="M177.831,68.267H153.6c-1.884,0-3.413,1.529-3.413,3.413v54.613c0,1.884,1.529,3.413,3.413,3.413h58.027
			c1.884,0,3.413-1.529,3.413-3.413v-20.818C215.04,84.958,198.349,68.267,177.831,68.267z M208.213,122.88h-51.2V75.093h20.818
			c16.753,0,30.382,13.631,30.382,30.382V122.88z"/>
	</g>
</g>
<g>
	<g>
		<path d="M180.907,81.92H163.84c-1.884,0-3.413,1.529-3.413,3.413v20.48c0,1.884,1.529,3.413,3.413,3.413h37.547
			c1.884,0,3.413-1.529,3.413-3.413C204.8,92.638,194.082,81.92,180.907,81.92z M167.253,102.4V88.747h13.653
			c8.242,0,15.136,5.873,16.724,13.653H167.253z"/>
	</g>
</g>
<g>
	<g>
		<path d="M78.507,133.12c-9.411,0-17.067,7.656-17.067,17.067s7.656,17.067,17.067,17.067c9.411,0,17.067-7.656,17.067-17.067
			S87.917,133.12,78.507,133.12z M78.507,160.427c-5.647,0-10.24-4.593-10.24-10.24c0-5.647,4.593-10.24,10.24-10.24
			c5.647,0,10.24,4.593,10.24,10.24C88.747,155.834,84.154,160.427,78.507,160.427z"/>
	</g>
</g>
<g>
	<g>
		<path d="M184.32,133.12c-9.411,0-17.067,7.656-17.067,17.067s7.656,17.067,17.067,17.067c9.411,0,17.067-7.656,17.067-17.067
			S193.731,133.12,184.32,133.12z M184.32,160.427c-5.647,0-10.24-4.593-10.24-10.24c0-5.647,4.593-10.24,10.24-10.24
			c5.647,0,10.24,4.593,10.24,10.24C194.56,155.834,189.967,160.427,184.32,160.427z"/>
	</g>
</g>
<g>
	<g>
		<path d="M211.627,160.427H3.413c-1.884,0-3.413,1.529-3.413,3.413s1.529,3.413,3.413,3.413h208.213
			c1.884,0,3.413-1.529,3.413-3.413S213.511,160.427,211.627,160.427z"/>
	</g>
</g>
<g>
	<g>
		<path d="M139.947,54.613H112.64c-1.884,0-3.413,1.529-3.413,3.413v12.071c0,1.884,1.529,3.413,3.413,3.413
			s3.413-1.529,3.413-3.413V61.44h20.48v64.853c0,1.884,1.529,3.413,3.413,3.413c1.884,0,3.413-1.529,3.413-3.413V58.027
			C143.36,56.143,141.831,54.613,139.947,54.613z"/>
	</g>
</g>
<g>
	<g>
		<path d="M95.573,85.333H71.68c-1.884,0-3.413,1.529-3.413,3.413v37.547c0,1.884,1.529,3.413,3.413,3.413h23.893
			c1.884,0,3.413-1.529,3.413-3.413V88.747C98.987,86.863,97.458,85.333,95.573,85.333z M92.16,122.88H75.093V92.16H92.16V122.88z"
			/>
	</g>
</g>
<g>
	<g>
		<path d="M122.88,68.267H95.573c-1.884,0-3.413,1.529-3.413,3.413v54.613c0,1.884,1.529,3.413,3.413,3.413h27.307
			c1.884,0,3.413-1.529,3.413-3.413V71.68C126.293,69.796,124.764,68.267,122.88,68.267z M119.467,122.88h-20.48V75.093h20.48
			V122.88z"/>
	</g>
</g>
<g>
</g>
<g>
</g>
<g>
</g>
<g>
</g>
<g>
</g>
<g>
</g>
<g>
</g>
<g>
</g>
<g>
</g>
<g>
</g>
<g>
</g>
<g>
</g>
<g>
</g>
<g>
</g>
<g>
</g>
</svg>
