<?xml version="1.0" encoding="iso-8859-1"?>
<!-- Generator: Adobe Illustrator 19.0.0, SVG Export Plug-In . SVG Version: 6.00 Build 0)  -->
<svg version="1.1" id="Capa_1" xmlns="http://www.w3.org/2000/svg" xmlns:xlink="http://www.w3.org/1999/xlink" x="0px" y="0px"
	 viewBox="0 0 215.04 215.04" style="enable-background:new 0 0 215.04 215.04;" xml:space="preserve">
<g>
	<g>
		<path d="M84.685,149.485l-26.148-18.493c-7.105-5.024-10.38-12.979-8.583-20.618l12.788-45.595
			c0.509-1.816-0.551-3.698-2.365-4.209c-1.821-0.514-3.702,0.551-4.209,2.365l-12.824,45.734
			c-2.485,10.542,1.826,21.233,11.25,27.897l26.148,18.493c0.599,0.423,1.287,0.626,1.968,0.626c1.072,0,2.125-0.502,2.79-1.442
			C86.589,152.704,86.224,150.574,84.685,149.485z"/>
	</g>
</g>
<g>
	<g>
		<path d="M171.657,108.53l-13.143-46.858c-0.51-1.816-2.393-2.876-4.209-2.365c-1.816,0.51-2.874,2.394-2.365,4.209l13.107,46.72
			c1.835,7.777-1.442,15.732-8.547,20.756l-26.619,18.825c-1.539,1.089-1.905,3.219-0.816,4.758c0.666,0.94,1.72,1.442,2.79,1.442
			c0.681,0,1.369-0.203,1.968-0.626l26.619-18.825C169.866,129.9,174.177,119.211,171.657,108.53z"/>
	</g>
</g>
<g>
	<g>
		<path d="M151.504,154.09l-26.078-5.393c-1.85-0.381-3.652,0.807-4.035,2.652c-0.382,1.847,0.804,3.651,2.65,4.035l26.409,5.461
			c0.227,0.046,0.459,0.07,0.691,0.07c13.588,0,24.644,11.933,24.644,26.6v20.698H39.253v-20.698c0-14.667,11.056-26.6,24.644-26.6
			c0.232,0,0.464-0.024,0.691-0.07l26.409-5.461c1.845-0.382,3.033-2.188,2.65-4.035c-0.382-1.847-2.19-3.022-4.035-2.652
			l-26.078,5.393c-17.188,0.205-31.111,15.119-31.111,33.425v24.112c0,1.884,1.529,3.413,3.413,3.413h143.36
			c1.884,0,3.413-1.529,3.417-3.413v-24.112C182.615,169.209,168.692,154.295,151.504,154.09z"/>
	</g>
</g>
<g>
	<g>
		<path d="M124.585,126.293H90.452c-1.884,0-3.413,1.529-3.413,3.413v23.04c0,1.294,0.73,2.475,1.886,3.053
			c5.823,2.91,12.208,4.366,18.594,4.366s12.771-1.456,18.594-4.366c1.155-0.579,1.886-1.76,1.886-3.053v-23.04
			C127.998,127.822,126.469,126.293,124.585,126.293z M121.172,150.567c-8.683,3.7-18.623,3.7-27.307,0V133.12h27.307V150.567z"/>
	</g>
</g>
<g>
	<g>
		<path d="M148.48,70.728c-1.884,0-3.413,1.529-3.413,3.413v27.518c0,13.583-11.052,24.634-24.634,24.634H94.606
			c-13.583,0-24.634-11.051-24.634-24.634V73.696c0-1.884-1.529-3.413-3.413-3.413s-3.413,1.529-3.413,3.413v27.964
			c0,17.347,14.112,31.461,31.459,31.461h25.827c17.348,0,31.461-14.114,31.462-31.461V74.141
			C151.893,72.257,150.364,70.728,148.48,70.728z"/>
	</g>
</g>
<g>
	<g>
		<path d="M155.305,177.493h-30.72c-1.884,0-3.413,1.529-3.413,3.413v30.72c0,1.884,1.529,3.413,3.413,3.413h30.72
			c1.884,0,3.413-1.529,3.413-3.413v-30.72C158.718,179.022,157.189,177.493,155.305,177.493z M151.892,208.213h-23.893V184.32
			h23.893V208.213z"/>
	</g>
</g>
<g>
	<g>
		<path d="M121.059,1.93C116.663,0.65,112.108,0,107.518,0c-28.232,0-51.2,24.499-51.2,54.613c0,1.884,1.529,3.413,3.413,3.413
			h95.573c1.884,0,3.413-1.529,3.413-3.413C158.718,30.063,143.232,8.398,121.059,1.93z M63.256,51.2
			c1.632-24.762,20.861-44.373,44.262-44.373c3.944,0,7.857,0.558,11.628,1.657c18.255,5.325,31.295,22.615,32.631,42.716H63.256z"
			/>
	</g>
</g>
<g>
	<g>
		<path d="M155.305,51.2H59.732c-1.884,0-3.413,1.529-3.413,3.413c0,20.704,22.968,37.547,51.2,37.547s51.2-16.843,51.2-37.547
			C158.718,52.729,157.189,51.2,155.305,51.2z M107.518,85.333c-22.801,0-41.641-11.969-44.1-27.307h88.201
			C149.159,73.364,130.319,85.333,107.518,85.333z"/>
	</g>
</g>
<g>
	<g>
		<path d="M120.115,4.849c-1.092-1.534-3.224-1.896-4.76-0.804c-1.536,1.092-1.896,3.224-0.804,4.76
			c15.102,21.246,4.951,40.325,4.49,41.165c-0.915,1.645-0.324,3.719,1.319,4.637c0.526,0.295,1.097,0.434,1.661,0.434
			c1.196,0,2.359-0.63,2.985-1.748C125.537,52.34,137.801,29.73,120.115,4.849z"/>
	</g>
</g>
<g>
	<g>
		<path d="M97.434,4.045c-1.536-1.089-3.668-0.729-4.76,0.804C74.988,29.73,87.252,52.34,87.782,53.292
			c0.625,1.118,1.787,1.748,2.983,1.748c0.563,0,1.135-0.138,1.661-0.434c1.645-0.918,2.236-2.999,1.316-4.646
			c-0.109-0.195-10.718-19.755,4.495-41.156C99.33,7.269,98.97,5.137,97.434,4.045z"/>
	</g>
</g>
<g>
	<g>
		<path d="M120.922,114.775c-0.705-1.749-2.697-2.596-4.442-1.888l-5.328,2.15c-2.384,0.56-4.886,0.56-7.269,0l-5.328-2.15
			c-1.748-0.708-3.738,0.138-4.442,1.888c-0.707,1.749,0.14,3.738,1.888,4.442l5.559,2.243c0.147,0.06,0.297,0.109,0.451,0.147
			c1.802,0.451,3.656,0.676,5.509,0.676s3.707-0.224,5.507-0.676c0.154-0.039,0.304-0.087,0.451-0.147l5.559-2.243
			C120.782,118.511,121.629,116.523,120.922,114.775z"/>
	</g>
</g>
<g>
</g>
<g>
</g>
<g>
</g>
<g>
</g>
<g>
</g>
<g>
</g>
<g>
</g>
<g>
</g>
<g>
</g>
<g>
</g>
<g>
</g>
<g>
</g>
<g>
</g>
<g>
</g>
<g>
</g>
</svg>
