<?xml version="1.0" encoding="iso-8859-1"?>
<!-- Generator: Adobe Illustrator 19.0.0, SVG Export Plug-In . SVG Version: 6.00 Build 0)  -->
<svg version="1.1" id="Capa_1" xmlns="http://www.w3.org/2000/svg" xmlns:xlink="http://www.w3.org/1999/xlink" x="0px" y="0px"
	 viewBox="0 0 218.4 218.4" style="enable-background:new 0 0 218.4 218.4;" xml:space="preserve">
<g>
	<g>
		<path d="M186,13.65H32.4C14.5,13.65,0,28.15,0,46.05c0,17.9,14.5,32.4,32.4,32.4h3.8c1.9,0,3.4-1.5,3.4-3.4c0-1.9-1.5-3.4-3.4-3.4
			h-3.8c-14.1,0-25.6-11.5-25.6-25.6c0-14.1,11.5-25.6,25.6-25.6H186c14.1,0,25.6,11.5,25.6,25.6c0,14.1-11.5,25.6-25.6,25.6H56.1
			c-1.9,0-3.4,1.5-3.4,3.4c0,1.9,1.5,3.4,3.4,3.4H186c17.9,0,32.4-14.5,32.4-32.4C218.4,28.15,203.9,13.65,186,13.65z"/>
	</g>
</g>
<g>
	<g>
		<path d="M37.8,39.85c-1.9-1.9-4.6-2.8-8-2.8h-6.7v21.6h6.1c3.8,0,6.6-0.9,8.6-2.8c2-1.9,3-4.6,3-8.2
			C40.8,44.35,39.7,41.75,37.8,39.85z M29.2,55.75h-2.5v-15.7h3.1c4.9,0,7.3,2.6,7.3,7.8C37.1,53.05,34.5,55.75,29.2,55.75z"/>
	</g>
</g>
<g>
	<g>
		<path d="M91.4,37.15l-3.1,12.6c-0.6,2.2-0.9,4-1.1,5.4c-0.4-2.4-0.8-4.1-1.1-5.3l-3.6-12.7H79l-3.5,12.6c-0.2,0.6-0.4,1.5-0.6,2.5
			s-0.4,2-0.5,2.8c-0.2-1.6-0.5-3.4-1-5.4l-3.1-12.6h-3.6l2.8,10.8l2.8,10.8h3.8l3.6-12.8c0.2-0.4,0.4-1.2,0.6-2.2
			c0.2-1,0.4-1.9,0.5-2.5c0,0.4,0.2,1.2,0.4,2.2s0.4,1.8,0.6,2.4l3.7,12.9h3.8l5.7-21.5H91.4z"/>
	</g>
</g>
<g>
	<g>
		<path d="M112.9,37.05v11.3c0,0.8,0,1.9,0.1,3.3c0,1.4,0.1,2.3,0.1,2.5H113l-10.6-17.1h-4.3v21.6h3.2v-11.2c0-1.5-0.1-3.2-0.2-5
			l-0.1-1h0.1l10.6,17.2h4.3l0.1-21.6H112.9z"/>
	</g>
</g>
<g>
	<g>
		<polygon points="125.2,55.65 125.2,37.05 121.7,37.05 121.7,58.65 134.4,58.65 134.4,55.65 		"/>
	</g>
</g>
<g>
	<g>
		<path d="M154.7,39.55c-1.8-1.9-4.3-2.9-7.5-2.9s-5.8,1-7.5,2.9c-1.7,1.9-2.6,4.6-2.6,8.2c0,3.6,0.9,6.4,2.6,8.3
			c1.7,1.9,4.2,2.9,7.5,2.9c3.2,0,5.7-0.9,7.5-2.9c1.7-1.9,2.6-4.7,2.6-8.2S156.4,41.55,154.7,39.55z M152,54.05
			c-1.1,1.3-2.7,2-4.8,2c-2.1,0-3.7-0.7-4.8-2.1c-1.1-1.4-1.6-3.4-1.6-6.1c0-2.6,0.5-4.7,1.7-5.9c1.1-1.4,2.7-2.1,4.8-2.1
			c2.1,0,3.6,0.7,4.7,2.1c1.1,1.3,1.6,3.3,1.6,6S153.1,52.65,152,54.05z"/>
	</g>
</g>
<g>
	<g>
		<path d="M171,36.95h-3.8l-8.1,21.7h3.7l2.1-6h8.3l2.2,6h3.7L171,36.95z M168,43.95c0.5-1.5,0.9-2.8,1.2-4c0.1,0.4,0.2,1.1,0.5,1.9
			c0.2,0.9,0.4,1.5,0.6,1.9l1.966,5.8H166L168,43.95z"/>
	</g>
</g>
<g>
	<g>
		<path d="M196.6,39.85c-1.9-1.9-4.6-2.8-8-2.8h-6.7v21.6h6.1c3.8,0,6.6-0.9,8.6-2.8c2-1.9,3-4.6,3-8.2
			C199.6,44.35,198.5,41.75,196.6,39.85z M187.9,55.75h-2.5v-15.7h3.1c4.9,0,7.3,2.6,7.3,7.8C195.8,53.05,193.2,55.75,187.9,55.75z"
			/>
	</g>
</g>
<g>
	<g>
		<path d="M81.9,92.05l-24-3v-29.4c0-6.5-5.4-11.9-11.9-11.9s-11.9,5.3-11.9,11.9v80.7c0,6.8,4.1,12.8,10.2,15.3v45.7
			c0,1.9,1.5,3.4,3.4,3.4h44.4c1.9,0,3.4-1.6,3.4-3.5v-45.7c6.1-2.5,10.2-8.5,10.2-15.3v-24.2C105.7,102.85,95,92.15,81.9,92.05z
			 M99,140.35c0,4.6-3.1,8.5-7.6,9.5c-1.6,0.3-2.7,1.7-2.7,3.3v44.7H51.3v-44.6c0-1.6-1.1-2.9-2.7-3.3c-4.5-1-7.6-4.9-7.6-9.5v-80.7
			c0-2.8,2.3-5.1,5.1-5.1s5.1,2.3,5.1,5.1v32.4c0,1.7,1.3,3.2,3,3.4l27.2,3.4c0.1,0,0.3,0,0.4,0c9.5,0,17.2,7.7,17.2,17.2V140.35z"
			/>
	</g>
</g>
<g>
	<g>
		<path d="M54.6,88.65c-1.9,0-3.4,1.5-3.4,3.4v17.1c0,1.9,1.5,3.4,3.4,3.4c1.9,0,3.4-1.5,3.4-3.4v-17.1
			C58,90.15,56.5,88.65,54.6,88.65z"/>
	</g>
</g>
<g>
	<g>
		<path d="M68.2,92.15c-1.9,0-3.4,1.5-3.4,3.4v10.2c0,1.9,1.5,3.4,3.4,3.4c1.9,0,3.5-1.5,3.4-3.4v-10.2
			C71.6,93.65,70.1,92.15,68.2,92.15z"/>
	</g>
</g>
<g>
	<g>
		<path d="M81.9,92.15c-1.9,0-3.4,1.5-3.4,3.4v10.2c0,1.9,1.5,3.4,3.4,3.4s3.4-1.5,3.4-3.4v-10.2C85.3,93.65,83.8,92.15,81.9,92.15z
			"/>
	</g>
</g>
<g>
	<g>
		<path d="M136.9,101.35l-9.7-9.7c-1.3-1.3-3.5-1.3-4.8,0s-1.3,3.5,0,4.8l9.7,9.7c0.7,0.7,1.5,1,2.4,1c0.9,0,1.8-0.3,2.4-1
			C138.2,104.85,138.2,102.65,136.9,101.35z"/>
	</g>
</g>
<g>
	<g>
		<path d="M137,91.65c-1.3-1.3-3.5-1.3-4.8,0l-9.7,9.7c-1.3,1.3-1.3,3.5,0,4.8c0.7,0.7,1.5,1,2.4,1c0.8,0,1.7-0.3,2.4-1l9.7-9.7
			C138.3,95.15,138.3,92.95,137,91.65z"/>
	</g>
</g>
<g>
	<g>
		<path d="M201.8,138.85l-9.7-9.7c-1.3-1.3-3.5-1.3-4.8,0s-1.3,3.5,0,4.8l9.7,9.7c0.7,0.7,1.5,1,2.4,1c0.8,0,1.7-0.3,2.4-1
			C203.1,142.35,203.1,140.15,201.8,138.85z"/>
	</g>
</g>
<g>
	<g>
		<path d="M201.8,129.15c-1.3-1.3-3.5-1.3-4.8,0l-9.7,9.7c-1.3,1.3-1.3,3.5,0,4.8c0.7,0.7,1.5,1,2.4,1c0.9,0,1.8-0.3,2.4-1l9.7-9.7
			C203.1,132.65,203.1,130.45,201.8,129.15z"/>
	</g>
</g>
<g>
	<g>
		<path d="M61.7,39.65c-1.8-1.9-4.2-2.9-7.5-2.9s-5.8,1-7.5,2.9c-1.8,1.9-2.6,4.7-2.6,8.2c0,1.2,0.1,2.3,0.3,3.3h3.8
			c-0.2-1-0.4-2-0.4-3.3c0-2.7,0.5-4.7,1.6-6c1.1-1.4,2.7-2.1,4.8-2.1c2.1,0,3.7,0.7,4.7,2.1c1.1,1.4,1.6,3.4,1.6,6
			c0,2.7-0.5,4.7-1.6,6.1c-1.1,1.4-2.6,2-4.7,2v3c3.2,0,5.7-1,7.5-2.9c1.8-2,2.6-4.7,2.6-8.2S63.4,41.65,61.7,39.65z"/>
	</g>
</g>
<g>
</g>
<g>
</g>
<g>
</g>
<g>
</g>
<g>
</g>
<g>
</g>
<g>
</g>
<g>
</g>
<g>
</g>
<g>
</g>
<g>
</g>
<g>
</g>
<g>
</g>
<g>
</g>
<g>
</g>
</svg>
