<?xml version="1.0" encoding="iso-8859-1"?>
<!-- Generator: Adobe Illustrator 19.0.0, SVG Export Plug-In . SVG Version: 6.00 Build 0)  -->
<svg version="1.1" id="Capa_1" xmlns="http://www.w3.org/2000/svg" xmlns:xlink="http://www.w3.org/1999/xlink" x="0px" y="0px"
	 viewBox="0 0 211.627 211.627" style="enable-background:new 0 0 211.627 211.627;" xml:space="preserve">
<g>
	<g>
		<path d="M153.039,197.337l-7.088-143.235l-3.28-1.514c-6.755-3.087-9.55-4.364-9.55-11.628c0-8.619,4.203-21.816,9.108-24.938
			l1.751-1.113L142.661,0h-17.577l-0.995,0.983c-3.656,3.604-10.656,5.844-18.275,5.844S91.195,4.587,87.539,0.983L86.543,0H68.964
			l-1.319,14.913l1.751,1.113c4.907,3.12,9.11,16.319,9.11,24.936c0,7.262-2.797,8.538-9.552,11.628l-3.28,1.514L58.587,197.33
			c-0.195,3.76,1.125,7.332,3.717,10.064c2.592,2.729,6.093,4.233,9.858,4.233h67.302c3.765,0,7.265-1.504,9.858-4.232
			C151.915,204.662,153.234,201.088,153.039,197.337z M144.373,202.691c-1.29,1.36-3.033,2.108-4.907,2.108H72.164
			c-1.874,0-3.616-0.748-4.907-2.106c-1.29-1.359-1.947-3.139-1.85-5.019L72.29,58.569c6.775-3.103,13.044-6.238,13.044-17.609
			c0-8.648-3.734-23.243-10.539-29.37l0.422-4.763h8.608c5.074,4.296,13.158,6.827,21.99,6.827s16.915-2.531,21.99-6.827h8.607
			l0.422,4.763c-6.806,6.127-10.54,20.722-10.54,29.37c0,11.372,6.267,14.507,13.044,17.608l6.885,139.112
			C146.32,199.552,145.663,201.332,144.373,202.691z"/>
	</g>
</g>
<g>
	<g>
		<rect x="47.61" y="170.674" transform="matrix(0.0996 -0.995 0.995 0.0996 -99.4666 238.2533)" width="68.606" height="6.826"/>
	</g>
</g>
<g>
	<g>
		<rect x="80.116" y="187.742" transform="matrix(0.0996 -0.995 0.995 0.0996 -102.6253 268.8994)" width="34.303" height="6.826"/>
	</g>
</g>
<g>
	<g>
		<rect x="126.292" y="102.289" transform="matrix(0.9978 -0.0665 0.0665 0.9978 -9.9273 8.9654)" width="6.827" height="102.623"/>
	</g>
</g>
<g>
	<g>
		<rect x="92.161" y="40.96" width="37.547" height="6.827"/>
	</g>
</g>
<g>
</g>
<g>
</g>
<g>
</g>
<g>
</g>
<g>
</g>
<g>
</g>
<g>
</g>
<g>
</g>
<g>
</g>
<g>
</g>
<g>
</g>
<g>
</g>
<g>
</g>
<g>
</g>
<g>
</g>
</svg>
