<?xml version="1.0" encoding="iso-8859-1"?>
<!-- Generator: Adobe Illustrator 19.0.0, SVG Export Plug-In . SVG Version: 6.00 Build 0)  -->
<svg version="1.1" id="Capa_1" xmlns="http://www.w3.org/2000/svg" xmlns:xlink="http://www.w3.org/1999/xlink" x="0px" y="0px"
	 viewBox="0 0 204.8 204.8" style="enable-background:new 0 0 204.8 204.8;" xml:space="preserve">
<g>
	<g>
		<path d="M112.64,151.893H92.16c-1.884,0-3.413,1.529-3.413,3.413V179.2c0,1.884,1.529,3.413,3.413,3.413h20.48
			c1.884,0,3.413-1.529,3.413-3.413v-23.893C116.053,153.423,114.524,151.893,112.64,151.893z M109.227,175.787H95.573V158.72
			h13.653V175.787z"/>
	</g>
</g>
<g>
	<g>
		<path d="M191.543,29.013h-15.978c-1.884,0-3.413,1.529-3.413,3.413c0,1.884,1.529,3.413,3.413,3.413h15.978
			c3.546,0,6.431,2.884,6.431,6.431v103.192c0,3.546-2.884,6.431-6.431,6.431H13.257c-3.546,0-6.431-2.884-6.431-6.431V42.271
			c0-3.546,2.884-6.431,6.431-6.431h16.464c1.884,0,3.413-1.529,3.413-3.413c0-1.884-1.529-3.413-3.413-3.413H13.257
			C5.948,29.013,0,34.961,0,42.271v103.192c0,7.31,5.948,13.257,13.257,13.257h178.285c7.31,0,13.257-5.948,13.257-13.257V42.271
			C204.8,34.961,198.852,29.013,191.543,29.013z"/>
	</g>
</g>
<g>
	<g>
		<path d="M129.707,175.787H75.093c-1.884,0-3.413,1.529-3.413,3.413v10.24c0,1.884,1.529,3.413,3.413,3.413h54.613
			c1.884,0,3.413-1.529,3.413-3.413V179.2C133.12,177.316,131.591,175.787,129.707,175.787z M126.293,186.027H78.507v-3.413h47.787
			V186.027z"/>
	</g>
</g>
<g>
	<g>
		<path d="M174.08,11.947H30.72c-1.884,0-3.413,1.529-3.413,3.413v58.027c0,1.884,1.529,3.413,3.413,3.413h143.36
			c1.884,0,3.413-1.529,3.413-3.413V15.36C177.493,13.476,175.964,11.947,174.08,11.947z M170.667,69.973H34.133v-51.2h136.533
			V69.973z"/>
	</g>
</g>
<g>
	<g>
		<path d="M174.08,69.973H30.72c-1.884,0-3.413,1.529-3.413,3.413v81.92c0,1.884,1.529,3.413,3.413,3.413h143.36
			c1.884,0,3.413-1.529,3.413-3.413v-81.92C177.493,71.502,175.964,69.973,174.08,69.973z M170.667,151.893H34.133V76.8h136.533
			V151.893z"/>
	</g>
</g>
<g>
	<g>
		<path d="M95.573,25.6c-7.528,0-13.653,6.125-13.653,13.653c0,7.528,6.125,13.653,13.653,13.653s13.653-6.125,13.653-13.653
			C109.227,31.725,103.101,25.6,95.573,25.6z M95.573,46.08c-3.765,0-6.827-3.062-6.827-6.827s3.062-6.827,6.827-6.827
			s6.827,3.062,6.827,6.827S99.338,46.08,95.573,46.08z"/>
	</g>
</g>
<g>
	<g>
		<path d="M115.053,53.907l-8.533-8.533c-1.331-1.333-3.495-1.333-4.826,0c-1.333,1.333-1.333,3.494,0,4.826l8.533,8.533
			c0.666,0.667,1.539,1,2.413,1c0.874,0,1.748-0.333,2.413-1C116.386,57.4,116.386,55.24,115.053,53.907z"/>
	</g>
</g>
<g>
	<g>
		<path d="M146,88.291c-0.648-0.79-1.618-1.249-2.64-1.249H72.639l-1.06-4.241c-0.457-1.831-2.316-2.937-4.139-2.485
			c-1.83,0.457-2.942,2.311-2.485,4.139l10.24,40.96c0.379,1.519,1.744,2.586,3.311,2.586h58.027c1.626,0,3.028-1.149,3.347-2.743
			l6.827-34.133C146.908,90.122,146.649,89.081,146,88.291z M133.736,121.173H81.172l-6.827-27.307h64.852L133.736,121.173z"/>
	</g>
</g>
<g>
	<g>
		<g>
			<circle cx="92.16" cy="134.827" r="6.827"/>
			<circle cx="122.88" cy="134.827" r="6.827"/>
		</g>
	</g>
</g>
<g>
	<g>
		<path d="M139.947,104.107H75.093c-1.884,0-3.413,1.529-3.413,3.413s1.529,3.413,3.413,3.413h64.853
			c1.884,0,3.413-1.529,3.413-3.413S141.831,104.107,139.947,104.107z"/>
	</g>
</g>
<g>
	<g>
		<path d="M68.267,80.213h-10.24c-1.884,0-3.413,1.529-3.413,3.413s1.529,3.413,3.413,3.413h10.24c1.884,0,3.413-1.529,3.413-3.413
			S70.151,80.213,68.267,80.213z"/>
	</g>
</g>
<g>
</g>
<g>
</g>
<g>
</g>
<g>
</g>
<g>
</g>
<g>
</g>
<g>
</g>
<g>
</g>
<g>
</g>
<g>
</g>
<g>
</g>
<g>
</g>
<g>
</g>
<g>
</g>
<g>
</g>
</svg>
