<?xml version="1.0" encoding="iso-8859-1"?>
<!-- Generator: Adobe Illustrator 19.0.0, SVG Export Plug-In . SVG Version: 6.00 Build 0)  -->
<svg version="1.1" id="Capa_1" xmlns="http://www.w3.org/2000/svg" xmlns:xlink="http://www.w3.org/1999/xlink" x="0px" y="0px"
	 viewBox="0 0 218.453 218.453" style="enable-background:new 0 0 218.453 218.453;" xml:space="preserve">
<g>
	<g>
		<path d="M140.474,47.787H71.151c-11.001,0-19.951,8.95-19.951,19.951v61.969c0,1.884,1.529,3.413,3.413,3.413h102.255
			c1.961,0,3.558-1.597,3.557-3.558V67.738C160.425,56.736,151.475,47.787,140.474,47.787z M153.6,126.293H58.027V67.738
			c0-7.236,5.886-13.124,13.124-13.124h69.325c7.236,0,13.124,5.888,13.124,13.124V126.293z"/>
	</g>
</g>
<g>
	<g>
		<path d="M40.96,51.2H13.653c-1.884,0-3.413,1.529-3.413,3.413s1.529,3.413,3.413,3.413H40.96c1.884,0,3.413-1.529,3.413-3.413
			S42.844,51.2,40.96,51.2z"/>
	</g>
</g>
<g>
	<g>
		<path d="M40.96,68.267H30.72c-1.884,0-3.413,1.529-3.413,3.413c0,1.884,1.529,3.413,3.413,3.413h10.24
			c1.884,0,3.413-1.529,3.413-3.413C44.373,69.796,42.844,68.267,40.96,68.267z"/>
	</g>
</g>
<g>
	<g>
		<path d="M20.48,68.267H3.413C1.529,68.267,0,69.796,0,71.68c0,1.884,1.529,3.413,3.413,3.413H20.48
			c1.884,0,3.413-1.529,3.413-3.413C23.893,69.796,22.364,68.267,20.48,68.267z"/>
	</g>
</g>
<g>
	<g>
		<path d="M40.96,85.333H27.307c-1.884,0-3.413,1.529-3.413,3.413s1.529,3.413,3.413,3.413H40.96c1.884,0,3.413-1.529,3.413-3.413
			S42.844,85.333,40.96,85.333z"/>
	</g>
</g>
<g>
	<g>
		<path d="M172.974,150.187H96.283c-1.884,0-3.413,1.529-3.413,3.413s1.529,3.413,3.413,3.413h76.691
			c1.884,0,3.413-1.529,3.413-3.413S174.858,150.187,172.974,150.187z"/>
	</g>
</g>
<g>
	<g>
		<path d="M215.04,126.293H54.613c-1.884,0-3.413,1.529-3.413,3.413V153.6c0,1.884,1.529,3.413,3.413,3.413h12.023
			c1.884,0,3.413-1.529,3.413-3.413s-1.529-3.413-3.413-3.413h-8.61V133.12h153.6v8.271c0,4.85-3.946,8.796-8.796,8.796h-1.574
			c-1.884,0-3.413,1.529-3.413,3.413s1.529,3.413,3.413,3.413h1.574c8.615,0,15.623-7.008,15.623-15.623v-11.684
			C218.453,127.823,216.924,126.293,215.04,126.293z"/>
	</g>
</g>
<g>
	<g>
		<path d="M181.245,71.68h-24.231c-1.884,0-3.413,1.529-3.413,3.413v54.613c0,1.884,1.529,3.413,3.413,3.413h58.027
			c1.884,0,3.413-1.529,3.413-3.413v-20.818C218.453,88.371,201.762,71.68,181.245,71.68z M211.627,126.293h-51.2V78.507h20.818
			c16.753,0,30.382,13.631,30.382,30.382V126.293z"/>
	</g>
</g>
<g>
	<g>
		<path d="M184.32,85.333h-17.067c-1.884,0-3.413,1.529-3.413,3.413v20.48c0,1.884,1.529,3.413,3.413,3.413H204.8
			c1.884,0,3.413-1.529,3.413-3.413C208.213,96.051,197.495,85.333,184.32,85.333z M170.667,105.813V92.16h13.653
			c8.242,0,15.136,5.873,16.724,13.653H170.667z"/>
	</g>
</g>
<g>
	<g>
		<path d="M81.92,136.533c-9.411,0-17.067,7.656-17.067,17.067s7.656,17.067,17.067,17.067c9.411,0,17.067-7.656,17.067-17.067
			S91.331,136.533,81.92,136.533z M81.92,163.84c-5.647,0-10.24-4.593-10.24-10.24c0-5.647,4.593-10.24,10.24-10.24
			c5.647,0,10.24,4.593,10.24,10.24C92.16,159.247,87.567,163.84,81.92,163.84z"/>
	</g>
</g>
<g>
	<g>
		<path d="M187.733,136.533c-9.411,0-17.067,7.656-17.067,17.067s7.656,17.067,17.067,17.067c9.411,0,17.067-7.656,17.067-17.067
			S197.144,136.533,187.733,136.533z M187.733,163.84c-5.647,0-10.24-4.593-10.24-10.24c0-5.647,4.593-10.24,10.24-10.24
			c5.647,0,10.24,4.593,10.24,10.24C197.973,159.247,193.381,163.84,187.733,163.84z"/>
	</g>
</g>
<g>
	<g>
		<path d="M215.04,163.84H6.827c-1.884,0-3.413,1.529-3.413,3.413s1.529,3.413,3.413,3.413H215.04c1.884,0,3.413-1.529,3.413-3.413
			S216.924,163.84,215.04,163.84z"/>
	</g>
</g>
<g>
</g>
<g>
</g>
<g>
</g>
<g>
</g>
<g>
</g>
<g>
</g>
<g>
</g>
<g>
</g>
<g>
</g>
<g>
</g>
<g>
</g>
<g>
</g>
<g>
</g>
<g>
</g>
<g>
</g>
</svg>
