<?xml version="1.0" encoding="iso-8859-1"?>
<!-- Generator: Adobe Illustrator 19.0.0, SVG Export Plug-In . SVG Version: 6.00 Build 0)  -->
<svg version="1.1" id="Capa_1" xmlns="http://www.w3.org/2000/svg" xmlns:xlink="http://www.w3.org/1999/xlink" x="0px" y="0px"
	 viewBox="0 0 218.453 218.453" style="enable-background:new 0 0 218.453 218.453;" xml:space="preserve">
<g>
	<g>
		<path d="M140.887,0H40.02c-9.832,0-17.833,8.001-17.833,17.833v148.654c0,9.832,8.001,17.833,17.835,17.833h96.249
			c1.884,0,3.412-1.529,3.412-3.413s-1.529-3.413-3.413-3.413H40.02c-6.067,0-11.006-4.937-11.006-11.006V17.833
			c0-6.069,4.937-11.006,11.006-11.006h100.867c6.067,0,11.006,4.937,11.006,11.006v88.622c0,1.884,1.529,3.413,3.413,3.413
			s3.413-1.529,3.413-3.413V17.833C158.72,8.001,150.719,0,140.887,0z"/>
	</g>
</g>
<g>
	<g>
		<path d="M145.067,10.24H35.84c-1.884,0-3.413,1.529-3.413,3.413v133.12c0,1.884,1.529,3.413,3.413,3.413h90.825
			c1.884,0,3.413-1.529,3.413-3.413s-1.529-3.413-3.413-3.413H39.253V17.067h102.4v62.708c0,1.884,1.529,3.413,3.413,3.413
			c1.884,0,3.413-1.529,3.413-3.413V13.653C148.48,11.769,146.951,10.24,145.067,10.24z"/>
	</g>
</g>
<g>
	<g>
		<path d="M90.453,153.6c-5.647,0-10.24,4.593-10.24,10.24c0,5.647,4.593,10.24,10.24,10.24c5.647,0,10.24-4.593,10.24-10.24
			C100.693,158.193,96.101,153.6,90.453,153.6z M90.453,167.253c-1.882,0-3.413-1.531-3.413-3.413s1.531-3.413,3.413-3.413
			s3.413,1.531,3.413,3.413S92.336,167.253,90.453,167.253z"/>
	</g>
</g>
<g>
	<g>
		<path d="M172.477,105.813l-23.997-3.012V73.387c0-6.588-5.361-11.947-11.947-11.947c-6.586,0-11.947,5.359-11.947,11.947v80.676
			c0,6.832,4.094,12.793,10.24,15.319v45.658c0,1.884,1.529,3.413,3.413,3.413h44.373c1.884,0,3.413-1.529,3.413-3.413v-45.66
			c6.146-2.526,10.24-8.487,10.24-15.319v-24.236C196.267,116.658,185.615,105.933,172.477,105.813z M189.44,154.063
			c0,4.57-3.121,8.48-7.59,9.506c-1.551,0.355-2.65,1.736-2.65,3.326v44.732h-37.547v-44.732c0-1.591-1.099-2.971-2.65-3.326
			c-4.468-1.026-7.59-4.934-7.59-9.506V73.387c0-2.823,2.297-5.12,5.12-5.12c2.823,0,5.12,2.297,5.12,5.12v32.427
			c0,1.72,1.28,3.173,2.988,3.386l27.189,3.413c0.142,0.019,0.283,0.027,0.425,0.027c9.475,0,17.184,7.709,17.184,17.186V154.063z"
			/>
	</g>
</g>
<g>
	<g>
		<path d="M145.067,102.4c-1.884,0-3.413,1.529-3.413,3.413v17.067c0,1.884,1.529,3.413,3.413,3.413
			c1.884,0,3.413-1.529,3.413-3.413v-17.067C148.48,103.929,146.951,102.4,145.067,102.4z"/>
	</g>
</g>
<g>
	<g>
		<path d="M158.72,105.813c-1.884,0-3.413,1.529-3.413,3.413v10.24c0,1.884,1.529,3.413,3.413,3.413s3.413-1.529,3.413-3.413v-10.24
			C162.133,107.343,160.604,105.813,158.72,105.813z"/>
	</g>
</g>
<g>
	<g>
		<path d="M172.373,105.813c-1.884,0-3.413,1.529-3.413,3.413v10.24c0,1.884,1.529,3.413,3.413,3.413s3.413-1.529,3.413-3.413
			v-10.24C175.787,107.343,174.258,105.813,172.373,105.813z"/>
	</g>
</g>
<g>
	<g>
		<path d="M114.347,37.547h-20.48c-1.884,0-3.413,1.529-3.413,3.413s1.529,3.413,3.413,3.413h20.48c1.884,0,3.413-1.529,3.413-3.413
			S116.231,37.547,114.347,37.547z"/>
	</g>
</g>
<g>
	<g>
		<path d="M84.972,24.168c-1.737-0.742-3.741,0.06-4.482,1.794l-8.626,20.122l-6.825-4.55c-1.57-1.048-3.688-0.621-4.733,0.947
			c-1.044,1.568-0.621,3.686,0.947,4.733l10.24,6.827c0.567,0.379,1.225,0.573,1.893,0.573c0.326,0,0.654-0.046,0.973-0.143
			c0.973-0.288,1.766-0.995,2.164-1.927l10.24-23.893C87.506,26.918,86.704,24.911,84.972,24.168z"/>
	</g>
</g>
<g>
	<g>
		<path d="M114.347,78.507h-20.48c-1.884,0-3.413,1.529-3.413,3.413c0,1.884,1.529,3.413,3.413,3.413h20.48
			c1.884,0,3.413-1.529,3.413-3.413C117.76,80.036,116.231,78.507,114.347,78.507z"/>
	</g>
</g>
<g>
	<g>
		<path d="M84.972,65.128c-1.737-0.744-3.741,0.06-4.482,1.794l-8.626,20.122l-6.825-4.55c-1.57-1.048-3.688-0.62-4.733,0.947
			c-1.044,1.568-0.621,3.686,0.947,4.733L71.494,95c0.567,0.379,1.225,0.573,1.893,0.573c0.326,0,0.654-0.046,0.973-0.143
			c0.973-0.288,1.766-0.995,2.164-1.927l10.24-23.893C87.506,67.878,86.704,65.871,84.972,65.128z"/>
	</g>
</g>
<g>
	<g>
		<path d="M114.347,119.467h-20.48c-1.884,0-3.413,1.529-3.413,3.413c0,1.884,1.529,3.413,3.413,3.413h20.48
			c1.884,0,3.413-1.529,3.413-3.413C117.76,120.996,116.231,119.467,114.347,119.467z"/>
	</g>
</g>
<g>
	<g>
		<path d="M84.972,106.088c-1.737-0.742-3.741,0.06-4.482,1.794l-8.626,20.122l-6.825-4.55c-1.57-1.046-3.688-0.621-4.733,0.947
			c-1.044,1.568-0.621,3.686,0.947,4.733l10.24,6.827c0.567,0.379,1.225,0.573,1.893,0.573c0.326,0,0.654-0.046,0.973-0.143
			c0.973-0.288,1.766-0.995,2.164-1.927l10.24-23.893C87.506,108.838,86.704,106.831,84.972,106.088z"/>
	</g>
</g>
<g>
</g>
<g>
</g>
<g>
</g>
<g>
</g>
<g>
</g>
<g>
</g>
<g>
</g>
<g>
</g>
<g>
</g>
<g>
</g>
<g>
</g>
<g>
</g>
<g>
</g>
<g>
</g>
<g>
</g>
</svg>
