<?xml version="1.0" encoding="iso-8859-1"?>
<!-- Generator: Adobe Illustrator 19.0.0, SVG Export Plug-In . SVG Version: 6.00 Build 0)  -->
<svg version="1.1" id="Capa_1" xmlns="http://www.w3.org/2000/svg" xmlns:xlink="http://www.w3.org/1999/xlink" x="0px" y="0px"
	 viewBox="0 0 201.387 201.387" style="enable-background:new 0 0 201.387 201.387;" xml:space="preserve">
<g>
	<g>
		<path d="M156.786,47.787h-12.921c-1.884,0-3.413,1.529-3.413,3.413s1.529,3.413,3.413,3.413h12.921
			c1.067,0,1.934,0.869,1.934,1.935v136.076c0,1.067-0.867,1.935-1.934,1.935H44.601c-1.067,0-1.934-0.869-1.934-1.935V56.549
			c0-1.067,0.867-1.935,1.934-1.935h14.543c1.884,0,3.413-1.529,3.413-3.413s-1.529-3.413-3.413-3.413H44.601
			c-4.83,0-8.76,3.93-8.76,8.762v136.076c0,4.832,3.929,8.762,8.76,8.762h112.184c4.83,0,8.76-3.93,8.76-8.762V56.549
			C165.546,51.717,161.617,47.787,156.786,47.787z"/>
	</g>
</g>
<g>
	<g>
		<path d="M141.653,0h-61.44c-0.905,0-1.773,0.36-2.413,1l-20.48,20.482c-0.642,0.64-1,1.509-1,2.413v44.372
			c0,1.884,1.529,3.413,3.413,3.413h81.92c1.884,0,3.413-1.529,3.413-3.413V3.413C145.066,1.529,143.537,0,141.653,0z
			 M138.239,64.853H63.146V25.308L81.627,6.827h56.612V64.853z"/>
	</g>
</g>
<g>
	<g>
		<path d="M80.213,0c-1.884,0-3.413,1.529-3.413,3.413V20.48H59.732c-1.884,0-3.413,1.529-3.413,3.413s1.529,3.413,3.413,3.413
			h20.48c1.884,0,3.413-1.529,3.413-3.413V3.413C83.626,1.529,82.097,0,80.213,0z"/>
	</g>
</g>
<g>
	<g>
		<path d="M66.559,64.853H52.906c-1.884,0-3.413,1.529-3.413,3.413c0,1.884,1.529,3.413,3.413,3.413h13.653
			c1.884,0,3.413-1.529,3.413-3.413C69.973,66.383,68.443,64.853,66.559,64.853z"/>
	</g>
</g>
<g>
	<g>
		<path d="M148.479,64.853h-13.653c-1.884,0-3.413,1.529-3.413,3.413c0,1.884,1.529,3.413,3.413,3.413h13.653
			c1.884,0,3.413-1.529,3.413-3.413C151.893,66.383,150.363,64.853,148.479,64.853z"/>
	</g>
</g>
<g>
	<g>
		<path d="M138.239,81.92H59.732c-1.884,0-3.413,1.529-3.413,3.413v20.48c0,1.884,1.529,3.413,3.413,3.413h78.507
			c1.884,0,3.413-1.529,3.413-3.413v-20.48C141.653,83.449,140.123,81.92,138.239,81.92z M134.826,102.4h-71.68V88.747h71.68V102.4z
			"/>
	</g>
</g>
<g>
	<g>
		<path d="M76.799,119.467h-20.48c-1.884,0-3.413,1.529-3.413,3.413v13.653c0,1.884,1.529,3.413,3.413,3.413h20.48
			c1.884,0,3.413-1.529,3.413-3.413V122.88C80.213,120.996,78.683,119.467,76.799,119.467z M73.386,133.12H59.732v-6.827h13.653
			V133.12z"/>
	</g>
</g>
<g>
	<g>
		<path d="M141.653,119.467h-20.48c-1.884,0-3.413,1.529-3.413,3.413v13.653c0,1.884,1.529,3.413,3.413,3.413h20.48
			c1.884,0,3.413-1.529,3.413-3.413V122.88C145.066,120.996,143.537,119.467,141.653,119.467z M138.239,133.12h-13.653v-6.827
			h13.653V133.12z"/>
	</g>
</g>
<g>
	<g>
		<path d="M107.519,119.467H90.453c-1.884,0-3.413,1.529-3.413,3.413v13.653c0,1.884,1.529,3.413,3.413,3.413h17.067
			c1.884,0,3.413-1.529,3.413-3.413V122.88C110.932,120.996,109.403,119.467,107.519,119.467z M104.106,133.12h-10.24v-6.827h10.24
			V133.12z"/>
	</g>
</g>
<g>
	<g>
		<path d="M76.799,146.773h-20.48c-1.884,0-3.413,1.529-3.413,3.413v13.653c0,1.884,1.529,3.413,3.413,3.413h20.48
			c1.884,0,3.413-1.529,3.413-3.413v-13.653C80.213,148.303,78.683,146.773,76.799,146.773z M73.386,160.427H59.732V153.6h13.653
			V160.427z"/>
	</g>
</g>
<g>
	<g>
		<path d="M141.653,146.773h-51.2c-1.884,0-3.413,1.529-3.413,3.413v13.653c0,1.884,1.529,3.413,3.413,3.413h51.2
			c1.884,0,3.413-1.529,3.413-3.413v-13.653C145.066,148.303,143.537,146.773,141.653,146.773z M138.239,160.427H93.866V153.6
			h44.373V160.427z"/>
	</g>
</g>
<g>
	<g>
		<path d="M141.653,174.08H56.319c-1.884,0-3.413,1.529-3.413,3.413c0,1.884,1.529,3.413,3.413,3.413h85.333
			c1.884,0,3.413-1.529,3.413-3.413C145.066,175.609,143.537,174.08,141.653,174.08z"/>
	</g>
</g>
<g>
</g>
<g>
</g>
<g>
</g>
<g>
</g>
<g>
</g>
<g>
</g>
<g>
</g>
<g>
</g>
<g>
</g>
<g>
</g>
<g>
</g>
<g>
</g>
<g>
</g>
<g>
</g>
<g>
</g>
</svg>
