<?xml version="1.0" encoding="iso-8859-1"?>
<!-- Generator: Adobe Illustrator 19.0.0, SVG Export Plug-In . SVG Version: 6.00 Build 0)  -->
<svg version="1.1" id="Capa_1" xmlns="http://www.w3.org/2000/svg" xmlns:xlink="http://www.w3.org/1999/xlink" x="0px" y="0px"
	 viewBox="0 0 187.733 187.733" style="enable-background:new 0 0 187.733 187.733;" xml:space="preserve">
<g>
	<g>
		<path d="M184.32,8.533H3.413C1.529,8.533,0,10.063,0,11.947V87.04c0,1.884,1.529,3.413,3.413,3.413h108.186
			c1.884,0,3.413-1.529,3.413-3.413s-1.529-3.413-3.413-3.413H6.827V15.36h174.08v68.267h-2.212c-1.884,0-3.413,1.529-3.413,3.413
			s1.529,3.413,3.413,3.413h5.625c1.884,0,3.413-1.529,3.413-3.413V11.947C187.733,10.063,186.204,8.533,184.32,8.533z"/>
	</g>
</g>
<g>
	<g>
		<path d="M95.573,73.387c-13.175,0-23.893-10.718-23.893-23.893c0-13.175,10.718-23.893,23.893-23.893
			c5.915,0,11.593,2.178,15.986,6.135l4.567-5.074c-5.649-5.086-12.948-7.888-20.553-7.888c-16.939,0-30.72,13.781-30.72,30.72
			c0,16.939,13.781,30.72,30.72,30.72c6.154,0,12.095-1.814,17.176-5.25l-3.82-5.656C104.98,71.977,100.362,73.387,95.573,73.387z"
			/>
	</g>
</g>
<g>
	<g>
		<path d="M97.14,47.568c-4.454-1.843-6.351-3.176-6.351-5.837c0-2.05,1.487-4.403,5.427-4.403c3.28,0,5.379,1.128,6.453,1.741
			l1.28-3.379c-1.486-0.87-3.586-1.69-6.656-1.79v-4.966h-3.173v5.169c-4.709,0.77-7.73,3.994-7.73,8.243
			c0,4.453,3.222,6.81,8.446,8.856c3.787,1.536,5.787,3.277,5.787,6.093c0,2.917-2.459,5.016-6.093,5.016
			c-2.865,0-5.53-0.973-7.373-2.2l-1.227,3.43c1.79,1.28,4.861,2.2,7.834,2.253v5.169v0.002h3.22v-5.323
			c5.274-0.874,8.09-4.661,8.09-8.707C105.076,52.378,102.414,49.719,97.14,47.568z"/>
	</g>
</g>
<g>
	<g>
		<path d="M157.117,66.562l-23.997-3.014V34.133c0-6.586-5.361-11.947-11.947-11.947c-6.586,0-11.947,5.361-11.947,11.947v80.674
			c0,6.832,4.094,12.795,10.24,15.319v45.66c0,1.884,1.529,3.413,3.413,3.413h44.373c1.884,0,3.413-1.529,3.413-3.413v-45.66
			c6.146-2.526,10.24-8.487,10.24-15.319V90.573C180.907,77.406,170.255,66.679,157.117,66.562z M174.08,114.809
			c0,4.57-3.121,8.479-7.59,9.506c-1.551,0.355-2.65,1.734-2.65,3.326v44.732h-37.547v-44.732c0-1.591-1.099-2.971-2.65-3.326
			c-4.468-1.026-7.59-4.934-7.59-9.506V34.133c0-2.823,2.297-5.12,5.12-5.12c2.823,0,5.12,2.297,5.12,5.12V66.56
			c0,1.72,1.28,3.171,2.988,3.388l27.189,3.413c0.142,0.019,0.283,0.027,0.425,0.027c9.475,0,17.184,7.709,17.184,17.186V114.809z"
			/>
	</g>
</g>
<g>
	<g>
		<path d="M129.707,63.147c-1.884,0-3.413,1.529-3.413,3.413v17.067c0,1.884,1.529,3.413,3.413,3.413
			c1.884,0,3.413-1.529,3.413-3.413V66.56C133.12,64.676,131.591,63.147,129.707,63.147z"/>
	</g>
</g>
<g>
	<g>
		<path d="M143.36,66.56c-1.884,0-3.413,1.529-3.413,3.413v10.24c0,1.884,1.529,3.413,3.413,3.413s3.413-1.529,3.413-3.413v-10.24
			C146.773,68.089,145.244,66.56,143.36,66.56z"/>
	</g>
</g>
<g>
	<g>
		<path d="M157.013,66.56c-1.884,0-3.413,1.529-3.413,3.413v10.24c0,1.884,1.529,3.413,3.413,3.413s3.413-1.529,3.413-3.413v-10.24
			C160.427,68.089,158.897,66.56,157.013,66.56z"/>
	</g>
</g>
<g>
</g>
<g>
</g>
<g>
</g>
<g>
</g>
<g>
</g>
<g>
</g>
<g>
</g>
<g>
</g>
<g>
</g>
<g>
</g>
<g>
</g>
<g>
</g>
<g>
</g>
<g>
</g>
<g>
</g>
</svg>
