<?xml version="1.0" encoding="iso-8859-1"?>
<!-- Generator: Adobe Illustrator 19.0.0, SVG Export Plug-In . SVG Version: 6.00 Build 0)  -->
<svg version="1.1" id="Capa_1" xmlns="http://www.w3.org/2000/svg" xmlns:xlink="http://www.w3.org/1999/xlink" x="0px" y="0px"
	 viewBox="0 0 215.1 215.1" style="enable-background:new 0 0 215.1 215.1;" xml:space="preserve">
<g>
	<g>
		<path d="M205.233,47.787H101.966c-5.439,0-9.866,4.425-9.866,9.866v40.76c0,1.918,1.555,3.475,3.473,3.475
			c1.918,0,3.473-1.557,3.473-3.475v-40.76c0-1.609,1.311-2.92,2.92-2.92h103.267c1.609,0,2.92,1.311,2.92,2.92v62.307
			c0,1.609-1.311,2.92-2.92,2.92h-76.198c-1.918,0-3.473,1.555-3.473,3.473c0,1.918,1.555,3.473,3.473,3.473h76.198
			c5.441,0,9.868-4.427,9.866-9.866V57.653C215.1,52.212,210.674,47.787,205.233,47.787z"/>
	</g>
</g>
<g>
	<g>
		<path d="M211.627,64.853H95.573c-1.918,0-3.473,1.555-3.473,3.473v20.48c0,1.918,1.555,3.473,3.473,3.473h116.053
			c1.918,0,3.475-1.555,3.473-3.473v-20.48C215.1,66.408,213.545,64.853,211.627,64.853z M208.155,85.332H99.048V71.798h109.107
			V85.332z"/>
	</g>
</g>
<g>
	<g>
		<path d="M162.135,95.633H81.459c-6.832,0-12.795,4.094-15.319,10.24H30.72c-1.884,0-3.413,1.529-3.413,3.413v44.373
			c0,1.884,1.529,3.413,3.413,3.413h35.42c2.526,6.146,8.487,10.24,15.319,10.24h24.235c13.167,0,23.893-10.653,24.013-23.791
			l3.014-23.996h29.414c6.586,0,11.947-5.359,11.947-11.947C174.082,100.992,168.721,95.633,162.135,95.633z M162.132,112.7h-32.427
			c-1.719,0-3.171,1.282-3.386,2.988l-3.413,27.187c-0.019,0.14-0.027,0.283-0.027,0.425c0,9.477-7.709,17.186-17.186,17.186H81.458
			c-4.57,0-8.479-3.121-9.506-7.59c-0.355-1.551-1.734-2.65-3.326-2.65H34.133h-0.002V112.7h34.492c1.591,0,2.971-1.099,3.326-2.65
			c1.026-4.468,4.934-7.59,9.506-7.59h80.676c2.823,0,5.12,2.297,5.12,5.12C167.252,110.403,164.955,112.7,162.132,112.7z"/>
	</g>
</g>
<g>
	<g>
		<path d="M129.707,112.7H112.64c-1.884,0-3.413,1.529-3.413,3.413s1.529,3.413,3.413,3.413h17.067c1.886,0,3.413-1.529,3.413-3.413
			S131.591,112.7,129.707,112.7z"/>
	</g>
</g>
<g>
	<g>
		<path d="M126.293,126.353h-10.24c-1.884,0-3.413,1.529-3.413,3.413s1.529,3.413,3.413,3.413h10.24
			c1.886,0,3.413-1.529,3.413-3.413S128.177,126.353,126.293,126.353z"/>
	</g>
</g>
<g>
	<g>
		<path d="M126.293,140.006h-10.24c-1.884,0-3.413,1.529-3.413,3.413s1.529,3.413,3.413,3.413h10.24
			c1.886,0,3.413-1.529,3.413-3.413S128.177,140.006,126.293,140.006z"/>
	</g>
</g>
<g>
	<g>
		<path d="M30.72,95.633H3.413C1.529,95.633,0,97.162,0,99.046V163.9c0,1.884,1.529,3.413,3.413,3.413H30.72
			c1.886,0,3.413-1.529,3.413-3.413V99.046C34.133,97.162,32.604,95.633,30.72,95.633z M27.307,160.486H6.827V102.46h20.48V160.486z
			"/>
	</g>
</g>
<g>
	<g>
		<path d="M17.067,143.42c-3.765,0-6.827,3.062-6.827,6.827s3.062,6.827,6.827,6.827c3.765,0,6.827-3.062,6.827-6.827
			S20.832,143.42,17.067,143.42z"/>
	</g>
</g>
<g>
</g>
<g>
</g>
<g>
</g>
<g>
</g>
<g>
</g>
<g>
</g>
<g>
</g>
<g>
</g>
<g>
</g>
<g>
</g>
<g>
</g>
<g>
</g>
<g>
</g>
<g>
</g>
<g>
</g>
</svg>
