<?xml version="1.0" encoding="iso-8859-1"?>
<!-- Generator: Adobe Illustrator 19.0.0, SVG Export Plug-In . SVG Version: 6.00 Build 0)  -->
<svg version="1.1" id="Capa_1" xmlns="http://www.w3.org/2000/svg" xmlns:xlink="http://www.w3.org/1999/xlink" x="0px" y="0px"
	 viewBox="0 0 191.145 191.145" style="enable-background:new 0 0 191.145 191.145;" xml:space="preserve">
<g>
	<g>
		<path d="M54.514,130.83c-3.553-5.912-11.257-7.825-17.166-4.277c-5.912,3.552-7.834,11.252-4.28,17.164l5.173,8.608l5.85-3.516
			l-5.171-8.607c-1.613-2.685-0.741-6.182,1.946-7.796c2.683-1.611,6.185-0.742,7.798,1.942l10.233,17.031l5.85-3.517L54.514,130.83
			z"/>
	</g>
</g>
<g>
	<g>
		<path d="M92.327,131.299c12.79,5.473,24.893,12.14,25.015,12.206l0.766,0.425l38.951,0.087l0.017-6.827l-37.21-0.084
			c-2.91-1.579-13.44-7.195-24.813-12.064c-25.32-10.841-31.86-8.144-34.729-4.589c-1.778,2.205-2.394,4.811-1.78,7.542
			c1.517,6.757,10.762,13.109,17.044,16.725l-4.84,3.048l-33.14,0.601l-14.558-7.683c-5.85-3.086-13.087-1.073-16.526,4.463
			L6.5,145.137l-0.382,0.713l-0.002,0.002l0.024,0.012c-2.697,5.938-0.34,13.07,5.501,16.213l22.19,11.938l39.354,5.202
			c2.278,1.142,9.185,3.7,25.295,3.7c12.739,0,31.232-1.601,57.742-6.765l-1.307-6.7c-62.884,12.252-78.713,3.642-78.792,3.601
			l-0.647-0.42l-39.509-5.222l-21.088-11.346c-2.652-1.428-3.734-4.654-2.533-7.345c1.574-2.499,4.855-3.403,7.52-1.999
			l16.111,8.503l36.799-0.667l16.654-10.484l-5.552-2.678c-7.136-3.444-17.647-10.342-18.673-14.899
			c-0.155-0.688-0.032-1.179,0.433-1.758C65.669,124.701,69.198,121.402,92.327,131.299z"/>
	</g>
</g>
<g>
	<g>
		<path d="M186.123,126.23h-30.701c-1.884,0-3.413,1.529-3.413,3.413v58.088c0,1.884,1.529,3.413,3.413,3.413h30.701
			c1.886,0,3.413-1.529,3.413-3.413v-58.088C189.537,127.759,188.008,126.23,186.123,126.23z M182.71,184.318h-23.875v-51.261
			h23.875V184.318z"/>
	</g>
</g>
<g>
	<g>
		<path d="M111.144,22.202c-0.606-1.065-1.737-1.724-2.964-1.724H5.02c-1.225,0-2.359,0.659-2.964,1.724
			c-0.608,1.067-0.596,2.376,0.029,3.43l51.581,87.04c0.616,1.036,1.732,1.672,2.937,1.672s2.321-0.637,2.932-1.672l51.581-87.04
			C111.742,24.578,111.752,23.269,111.144,22.202z M56.603,104.236l-45.59-76.931h91.179L56.603,104.236z"/>
	</g>
</g>
<g>
	<g>
		<path d="M110.453,22.325L99.86,1.845C99.274,0.712,98.105,0,96.829,0H15.615c-1.277,0-2.444,0.712-3.031,1.845L1.991,22.325
			c-0.548,1.058-0.503,2.324,0.116,3.342c0.618,1.017,1.724,1.638,2.915,1.638h102.4c1.191,0,2.297-0.621,2.915-1.638
			C110.957,24.649,110.999,23.383,110.453,22.325z M10.63,20.478l7.062-13.653h77.059l7.062,13.653H10.63z"/>
	</g>
</g>
<g>
	<g>
		<path d="M56.222,54.612c-1.884,0-3.413,1.529-3.413,3.413v47.787c0,1.884,1.529,3.413,3.413,3.413s3.413-1.529,3.413-3.413V58.025
			C59.635,56.141,58.106,54.612,56.222,54.612z"/>
	</g>
</g>
<g>
</g>
<g>
</g>
<g>
</g>
<g>
</g>
<g>
</g>
<g>
</g>
<g>
</g>
<g>
</g>
<g>
</g>
<g>
</g>
<g>
</g>
<g>
</g>
<g>
</g>
<g>
</g>
<g>
</g>
</svg>
