<?xml version="1.0" encoding="iso-8859-1"?>
<!-- Generator: Adobe Illustrator 19.0.0, SVG Export Plug-In . SVG Version: 6.00 Build 0)  -->
<svg version="1.1" id="Capa_1" xmlns="http://www.w3.org/2000/svg" xmlns:xlink="http://www.w3.org/1999/xlink" x="0px" y="0px"
	 viewBox="0 0 211.627 211.627" style="enable-background:new 0 0 211.627 211.627;" xml:space="preserve">
<g>
	<g>
		<path d="M200.568,62.633c-0.649-0.756-1.597-1.193-2.594-1.193H13.653c-0.997,0-1.946,0.437-2.594,1.195
			c-0.648,0.758-0.934,1.761-0.778,2.746l17.067,109.227c0.259,1.661,1.691,2.886,3.372,2.886h108.663
			c1.884,0,3.413-1.531,3.413-3.415s-1.529-3.413-3.413-3.413H33.642l-16-102.4h176.343l-10.846,69.427
			c-0.292,1.862,0.981,3.608,2.845,3.898c1.84,0.292,3.61-0.98,3.898-2.845l11.464-73.366
			C201.501,64.394,201.216,63.391,200.568,62.633z"/>
	</g>
</g>
<g>
	<g>
		<path d="M170.667,78.507H153.6c-1.884,0-3.413,1.529-3.413,3.413v61.44c0,1.884,1.529,3.413,3.413,3.413s3.413-1.529,3.413-3.413
			V85.333h10.24v51.2c0,1.884,1.529,3.413,3.413,3.413s3.413-1.529,3.413-3.413V81.92C174.08,80.036,172.551,78.507,170.667,78.507z
			"/>
	</g>
</g>
<g>
	<g>
		<path d="M133.12,78.507h-17.067c-1.884,0-3.413,1.529-3.413,3.413v71.68c0,1.884,1.529,3.413,3.413,3.413s3.413-1.529,3.413-3.413
			V85.333h10.24V153.6c0,1.884,1.529,3.413,3.413,3.413c1.884,0,3.413-1.529,3.413-3.413V81.92
			C136.533,80.036,135.004,78.507,133.12,78.507z"/>
	</g>
</g>
<g>
	<g>
		<path d="M95.573,78.507H78.507c-1.884,0-3.413,1.529-3.413,3.413v71.68c0,1.884,1.529,3.413,3.413,3.413
			c1.884,0,3.413-1.529,3.413-3.413V85.333h10.24V153.6c0,1.884,1.529,3.413,3.413,3.413s3.413-1.529,3.413-3.413V81.92
			C98.987,80.036,97.458,78.507,95.573,78.507z"/>
	</g>
</g>
<g>
	<g>
		<path d="M58.027,78.507H40.96c-1.884,0-3.413,1.529-3.413,3.413v71.68c0,1.884,1.529,3.413,3.413,3.413s3.413-1.529,3.413-3.413
			V85.333h10.24V153.6c0,1.884,1.529,3.413,3.413,3.413s3.413-1.529,3.413-3.413V81.92C61.44,80.036,59.911,78.507,58.027,78.507z"
			/>
	</g>
</g>
<g>
	<g>
		<path d="M208.213,44.373h-91.491c-1.884,0-3.413,1.529-3.413,3.413s1.529,3.413,3.413,3.413H204.8v10.24H6.827V51.2h87.678
			c1.884,0,3.413-1.529,3.413-3.413s-1.529-3.413-3.413-3.413H3.413C1.529,44.373,0,45.903,0,47.787v17.067
			c0,1.884,1.529,3.413,3.413,3.413h204.8c1.884,0,3.413-1.529,3.413-3.413V47.787C211.627,45.903,210.098,44.373,208.213,44.373z"
			/>
	</g>
</g>
<g>
	<g>
		<path d="M116.053,3.413h-20.48c-1.884,0-3.413,1.529-3.413,3.413v58.027c0,1.884,1.529,3.413,3.413,3.413h20.48
			c1.884,0,3.413-1.529,3.413-3.413V6.827C119.467,4.943,117.938,3.413,116.053,3.413z M112.64,61.44H98.987v-51.2h13.653V61.44z"/>
	</g>
</g>
<g>
	<g>
		<path d="M174.08,133.12c-20.704,0-37.547,16.843-37.547,37.547s16.843,37.547,37.547,37.547s37.547-16.843,37.547-37.547
			S194.784,133.12,174.08,133.12z M174.08,201.387c-16.939,0-30.72-13.781-30.72-30.72s13.781-30.72,30.72-30.72
			s30.72,13.781,30.72,30.72S191.019,201.387,174.08,201.387z"/>
	</g>
</g>
<g>
	<g>
		<rect x="153.6" y="167.253" width="40.96" height="6.827"/>
	</g>
</g>
<g>
</g>
<g>
</g>
<g>
</g>
<g>
</g>
<g>
</g>
<g>
</g>
<g>
</g>
<g>
</g>
<g>
</g>
<g>
</g>
<g>
</g>
<g>
</g>
<g>
</g>
<g>
</g>
<g>
</g>
</svg>
