<?xml version="1.0" encoding="iso-8859-1"?>
<!-- Generator: Adobe Illustrator 19.0.0, SVG Export Plug-In . SVG Version: 6.00 Build 0)  -->
<svg version="1.1" id="Capa_1" xmlns="http://www.w3.org/2000/svg" xmlns:xlink="http://www.w3.org/1999/xlink" x="0px" y="0px"
	 viewBox="0 0 212.609 212.609" style="enable-background:new 0 0 212.609 212.609;" xml:space="preserve">
<g>
	<g>
		<g>
			<path d="M189.589,151.112l-83.284-49.725L23.023,151.11c-1.707,1.019-2.497,2.987-1.969,4.902c0.527,1.913,2.215,3.2,4.202,3.2
				h162.099c1.985,0,3.674-1.287,4.202-3.2C192.084,154.096,191.294,152.129,189.589,151.112z M34.205,152.385l72.1-43.049
				l72.1,43.049H34.205z"/>
			<path d="M205.155,144.503l-88.61-52.905v-6.374c8.257-3.922,13.653-12.314,13.653-21.586c0-13.175-10.718-23.893-23.893-23.893
				S82.412,50.463,82.412,63.638c0,5.647,4.593,10.24,10.24,10.24c1.58,0,3.077-0.36,4.413-1.002c-0.64,1.338-1,2.835-1,4.415V91.6
				l-88.61,52.905c-5.968,3.564-8.736,10.458-6.888,17.157c1.848,6.7,7.76,11.203,14.711,11.203h182.054
				c6.951,0,12.863-4.502,14.71-11.203C213.892,154.962,211.124,148.067,205.155,144.503z M205.463,159.848
				c-1.021,3.702-4.287,6.19-8.129,6.19H15.28c-3.842,0-7.108-2.488-8.131-6.192c-1.022-3.702,0.507-7.513,3.806-9.482
				l91.936-54.888V77.291c0-1.882,1.531-3.413,3.413-3.413c5.647,0,10.24-4.593,10.24-10.24c0-5.647-4.593-10.24-10.24-10.24
				c-5.646,0-10.24,4.593-10.24,10.238c0,1.882-1.531,3.413-3.413,3.413s-3.413-1.531-3.413-3.413
				c0-9.411,7.656-17.067,17.067-17.067s17.067,7.656,17.067,17.067c0,7.214-4.574,13.681-11.38,16.094l-2.273,0.806v14.94
				l91.938,54.888C204.956,152.335,206.485,156.145,205.463,159.848z M101.892,68.053c0.64-1.338,1-2.835,1-4.415
				c0-1.882,1.531-3.413,3.413-3.413s3.413,1.531,3.413,3.413c0,1.882-1.531,3.413-3.413,3.413
				C104.726,67.051,103.228,67.411,101.892,68.053z"/>
		</g>
	</g>
</g>
<g>
</g>
<g>
</g>
<g>
</g>
<g>
</g>
<g>
</g>
<g>
</g>
<g>
</g>
<g>
</g>
<g>
</g>
<g>
</g>
<g>
</g>
<g>
</g>
<g>
</g>
<g>
</g>
<g>
</g>
</svg>
