<?xml version="1.0" encoding="iso-8859-1"?>
<!-- Generator: Adobe Illustrator 19.0.0, SVG Export Plug-In . SVG Version: 6.00 Build 0)  -->
<svg version="1.1" id="Capa_1" xmlns="http://www.w3.org/2000/svg" xmlns:xlink="http://www.w3.org/1999/xlink" x="0px" y="0px"
	 viewBox="0 0 197.973 197.973" style="enable-background:new 0 0 197.973 197.973;" xml:space="preserve">
<g>
	<g>
		<path d="M98.987,0C44.406,0,0,44.406,0,98.987s44.406,98.987,98.987,98.987s98.987-44.406,98.987-98.987S153.568,0,98.987,0z
			 M98.987,191.147c-50.818,0-92.16-41.344-92.16-92.16s41.342-92.16,92.16-92.16s92.16,41.344,92.16,92.16
			S149.804,191.147,98.987,191.147z"/>
	</g>
</g>
<g>
	<g>
		<path d="M98.987,17.067c-45.17,0-81.92,36.748-81.92,81.92c0,1.884,1.529,3.413,3.413,3.413s3.413-1.529,3.413-3.413
			c0-41.407,33.686-75.093,75.093-75.093c1.884,0,3.413-1.529,3.413-3.413S100.871,17.067,98.987,17.067z"/>
	</g>
</g>
<g>
	<g>
		<g>
			<path d="M99.946,76.484c-1.514-0.031-2.797,0.483-3.854,1.539c-1.055,1.056-1.597,2.34-1.628,3.854l-0.993,51.246
				c-0.031,1.514,0.463,2.801,1.478,3.854c1.015,1.056,2.278,1.596,3.792,1.627s2.818-0.459,3.913-1.476
				c1.096-1.014,1.657-2.28,1.688-3.794l0.993-51.246c0.032-1.592-0.461-2.917-1.476-3.973
				C102.842,77.061,101.54,76.515,99.946,76.484z"/>
			<path d="M105.166,53.885c-1.172-1.22-2.594-1.843-4.267-1.877l-0.717-0.014c-1.672-0.032-3.116,0.536-4.335,1.71
				c-1.219,1.167-1.841,2.587-1.876,4.26l-0.009,0.476c-0.034,1.674,0.536,3.12,1.708,4.34c1.171,1.217,2.591,1.843,4.265,1.877
				l0.717,0.014c1.673,0.032,3.118-0.539,4.337-1.71c1.219-1.174,1.84-2.598,1.874-4.27l0.009-0.476
				C106.907,56.542,106.339,55.098,105.166,53.885z"/>
		</g>
	</g>
</g>
<g>
	<g>
		<path d="M153.6,191.147h-47.787c-1.884,0-3.413,1.529-3.413,3.413c0,1.884,1.529,3.413,3.413,3.413H153.6
			c1.884,0,3.413-1.529,3.413-3.413C157.013,192.676,155.484,191.147,153.6,191.147z"/>
	</g>
</g>
<g>
</g>
<g>
</g>
<g>
</g>
<g>
</g>
<g>
</g>
<g>
</g>
<g>
</g>
<g>
</g>
<g>
</g>
<g>
</g>
<g>
</g>
<g>
</g>
<g>
</g>
<g>
</g>
<g>
</g>
</svg>
