<?xml version="1.0" encoding="iso-8859-1"?>
<!-- Generator: Adobe Illustrator 19.0.0, SVG Export Plug-In . SVG Version: 6.00 Build 0)  -->
<svg version="1.1" id="Capa_1" xmlns="http://www.w3.org/2000/svg" xmlns:xlink="http://www.w3.org/1999/xlink" x="0px" y="0px"
	 viewBox="0 0 211.354 211.354" style="enable-background:new 0 0 211.354 211.354;" xml:space="preserve">
<g>
	<g>
		<path d="M184.32,15.36H3.413C1.529,15.36,0,16.889,0,18.773v75.093c0,1.884,1.529,3.413,3.413,3.413h75.663
			c1.884,0,3.413-1.529,3.413-3.413s-1.529-3.413-3.413-3.413H6.827V22.187h174.08v68.267h-8.25c-1.884,0-3.413,1.529-3.413,3.413
			s1.529,3.413,3.413,3.413h11.663c1.884,0,3.413-1.529,3.413-3.413V18.773C187.733,16.889,186.204,15.36,184.32,15.36z"/>
	</g>
</g>
<g>
	<g>
		<path d="M95.573,25.598c-16.939,0-30.72,13.781-30.72,30.72c0,13.099,8.315,24.771,20.688,29.046l2.231-6.455
			C78.147,75.587,71.68,66.507,71.68,56.318c0-13.175,10.718-23.893,23.893-23.893c13.175,0,23.893,10.718,23.893,23.893
			c0,1.862-0.215,3.715-0.637,5.504l6.644,1.57c0.544-2.304,0.819-4.685,0.819-7.074C126.293,39.38,112.512,25.598,95.573,25.598z"
			/>
	</g>
</g>
<g>
	<g>
		<path d="M208.353,178.512l-40.986-40.984c-1.333-1.333-3.494-1.333-4.826,0c-1.333,1.333-1.333,3.494,0,4.826l40.986,40.984
			c0.645,0.645,1,1.504,1,2.415c0,0.911-0.355,1.768-1.002,2.413c-1.287,1.29-3.536,1.29-4.826,0l-41.109-41.109
			c-1.333-1.333-3.494-1.333-4.826,0c-1.333,1.333-1.333,3.494,0,4.826l41.109,41.108c1.934,1.935,4.506,3,7.241,3
			s5.308-1.065,7.24-2.999c1.935-1.935,3-4.507,3-7.241S210.289,180.446,208.353,178.512z"/>
	</g>
</g>
<g>
	<g>
		<path d="M174.08,107.522c-1.884,0-3.413,1.529-3.413,3.413c0,11.854-4.615,22.997-12.996,31.377
			c-17.301,17.3-45.454,17.3-62.754,0c-8.503-8.503-13.117-19.809-12.993-31.834c0.02-1.886-1.493-3.429-3.378-3.449
			c-1.966-0.049-3.429,1.492-3.449,3.378c-0.143,13.873,5.181,26.919,14.993,36.731c9.982,9.982,23.089,14.973,36.203,14.971
			c13.109,0,26.223-4.992,36.204-14.969c9.67-9.668,14.997-22.526,14.997-36.203C177.493,109.051,175.964,107.522,174.08,107.522z"
			/>
	</g>
</g>
<g>
	<g>
		<path d="M162.497,74.73c-19.961-19.963-52.444-19.961-72.407,0c-9.53,9.528-14.855,22.199-14.993,35.674
			c-0.009,0.908,0.343,1.783,0.981,2.43c0.637,0.647,1.505,1.014,2.413,1.019l95.57,0.493c0.007,0,0.012,0,0.019,0
			c0.901,0,1.768-0.357,2.406-0.993c0.645-0.64,1.007-1.512,1.007-2.42C177.493,97.256,172.167,84.398,162.497,74.73z
			 M82.087,107.044c0.899-10.387,5.383-20.043,12.827-27.488c17.3-17.3,45.454-17.3,62.754,0
			c7.567,7.567,12.064,17.384,12.867,27.945L82.087,107.044z"/>
	</g>
</g>
<g>
	<g>
		<path d="M136.271,62.106c-1.847-0.415-3.668,0.734-4.086,2.572c-3.905,17.186-18.961,29.189-36.613,29.189
			c-4.065,0-8.059-0.645-11.873-1.915c-1.787-0.599-3.721,0.372-4.316,2.161c-0.596,1.789,0.372,3.719,2.161,4.316
			c4.511,1.504,9.231,2.265,14.031,2.265c20.861,0,38.654-14.189,43.269-34.502C139.261,64.352,138.109,62.524,136.271,62.106z"/>
	</g>
</g>
<g>
</g>
<g>
</g>
<g>
</g>
<g>
</g>
<g>
</g>
<g>
</g>
<g>
</g>
<g>
</g>
<g>
</g>
<g>
</g>
<g>
</g>
<g>
</g>
<g>
</g>
<g>
</g>
<g>
</g>
</svg>
