<?xml version="1.0" encoding="iso-8859-1"?>
<!-- Generator: Adobe Illustrator 19.0.0, SVG Export Plug-In . SVG Version: 6.00 Build 0)  -->
<svg version="1.1" id="Capa_1" xmlns="http://www.w3.org/2000/svg" xmlns:xlink="http://www.w3.org/1999/xlink" x="0px" y="0px"
	 viewBox="0 0 197.975 197.975" style="enable-background:new 0 0 197.975 197.975;" xml:space="preserve">
<g>
	<g>
		<path d="M160.428,0H57.836c-0.911,0-1.785,0.364-2.425,1.01L35.122,21.49c-0.633,0.64-0.988,1.504-0.988,2.403V194.56
			c0,1.097,0.527,2.126,1.417,2.77c0.889,0.642,2.036,0.818,3.075,0.469l19.127-6.376l12.17,6.182
			c0.947,0.48,2.062,0.493,3.017,0.036l12.774-6.101l11.94,6.065c0.957,0.485,2.089,0.492,3.053,0.019l12.324-6.067l11.698,6.038
			c0.963,0.497,2.103,0.509,3.074,0.029l12.604-6.205l18.93,6.378c0.357,0.118,0.725,0.177,1.091,0.177
			c0.705,0,1.403-0.22,1.992-0.64c0.893-0.642,1.422-1.674,1.422-2.773V3.413C163.841,1.529,162.312,0,160.428,0z M157.016,189.809
			l-15.761-5.309c-0.855-0.288-1.787-0.225-2.598,0.172l-12.324,6.067l-11.699-6.038c-0.959-0.495-2.099-0.507-3.072-0.029
			l-12.336,6.072l-11.918-6.054c-0.945-0.48-2.062-0.493-3.017-0.036l-12.776,6.101l-11.943-6.065
			c-0.485-0.246-1.014-0.37-1.546-0.37c-0.363,0-0.729,0.058-1.079,0.172l-15.986,5.33V25.296l18.301-18.47h97.754V189.809z"/>
	</g>
</g>
<g>
	<g>
		<path d="M136.534,27.307H61.441c-1.884,0-3.413,1.529-3.413,3.413s1.529,3.413,3.413,3.413h75.093
			c1.884,0,3.413-1.529,3.413-3.413S138.418,27.307,136.534,27.307z"/>
	</g>
</g>
<g>
	<g>
		<path d="M136.534,61.44H61.441c-1.884,0-3.413,1.529-3.413,3.413c0,1.884,1.529,3.413,3.413,3.413h75.093
			c1.884,0,3.413-1.529,3.413-3.413C139.948,62.969,138.418,61.44,136.534,61.44z"/>
	</g>
</g>
<g>
	<g>
		<path d="M92.161,44.373h-30.72c-1.884,0-3.413,1.529-3.413,3.413s1.529,3.413,3.413,3.413h30.72c1.884,0,3.413-1.529,3.413-3.413
			S94.045,44.373,92.161,44.373z"/>
	</g>
</g>
<g>
	<g>
		<path d="M64.854,92.16H51.201c-1.884,0-3.413,1.529-3.413,3.413s1.529,3.413,3.413,3.413h13.653c1.884,0,3.413-1.529,3.413-3.413
			S66.738,92.16,64.854,92.16z"/>
	</g>
</g>
<g>
	<g>
		<path d="M95.574,92.16H81.921c-1.884,0-3.413,1.529-3.413,3.413s1.529,3.413,3.413,3.413h13.653c1.884,0,3.413-1.529,3.413-3.413
			S97.458,92.16,95.574,92.16z"/>
	</g>
</g>
<g>
	<g>
		<path d="M126.294,92.16h-13.653c-1.884,0-3.413,1.529-3.413,3.413s1.529,3.413,3.413,3.413h13.653
			c1.884,0,3.413-1.529,3.413-3.413S128.178,92.16,126.294,92.16z"/>
	</g>
</g>
<g>
	<g>
		<path d="M157.014,92.16h-13.653c-1.884,0-3.413,1.529-3.413,3.413s1.529,3.413,3.413,3.413h13.653
			c1.884,0,3.413-1.529,3.413-3.413S158.898,92.16,157.014,92.16z"/>
	</g>
</g>
<g>
	<g>
		<path d="M136.534,44.373h-30.72c-1.884,0-3.413,1.529-3.413,3.413s1.529,3.413,3.413,3.413h30.72c1.884,0,3.413-1.529,3.413-3.413
			S138.418,44.373,136.534,44.373z"/>
	</g>
</g>
<g>
</g>
<g>
</g>
<g>
</g>
<g>
</g>
<g>
</g>
<g>
</g>
<g>
</g>
<g>
</g>
<g>
</g>
<g>
</g>
<g>
</g>
<g>
</g>
<g>
</g>
<g>
</g>
<g>
</g>
</svg>
