<?xml version="1.0" encoding="iso-8859-1"?>
<!-- Generator: Adobe Illustrator 19.0.0, SVG Export Plug-In . SVG Version: 6.00 Build 0)  -->
<svg version="1.1" id="Capa_1" xmlns="http://www.w3.org/2000/svg" xmlns:xlink="http://www.w3.org/1999/xlink" x="0px" y="0px"
	 viewBox="0 0 184.32 184.32" style="enable-background:new 0 0 184.32 184.32;" xml:space="preserve">
<g>
	<g>
		<path d="M136.504,46.164c1.884,0,3.413-1.529,3.413-3.413V17.833C139.917,8.001,131.918,0,122.084,0H21.216
			C11.384,0,3.383,7.999,3.383,17.833v148.654c0,9.832,7.999,17.833,17.833,17.833h100.867c9.834,0,17.833-8.001,17.833-17.833
			v-46.176c0-1.884-1.529-3.413-3.413-3.413s-3.413,1.529-3.413,3.413v46.176c0,6.069-4.937,11.006-11.006,11.006H21.216
			c-6.067,0-11.006-4.937-11.006-11.006V17.833c0-6.069,4.937-11.006,11.006-11.006h100.867c6.067,0,11.006,4.937,11.006,11.006
			V42.75C133.09,44.634,134.619,46.164,136.504,46.164z"/>
	</g>
</g>
<g>
	<g>
		<path d="M126.263,46.522c1.884,0,3.413-1.529,3.413-3.413V13.653c0-1.884-1.529-3.413-3.413-3.413H17.037
			c-1.884,0-3.413,1.529-3.413,3.413v133.12c0,1.884,1.529,3.413,3.413,3.413h109.227c1.886,0,3.413-1.529,3.413-3.413v-26.819
			c0-1.884-1.529-3.413-3.413-3.413s-3.413,1.529-3.413,3.413v23.405H20.45V17.067h102.4v26.042
			C122.85,44.993,124.379,46.522,126.263,46.522z"/>
	</g>
</g>
<g>
	<g>
		<path d="M71.65,153.6c-5.647,0-10.24,4.593-10.24,10.24c0,5.647,4.593,10.24,10.24,10.24c5.647,0,10.24-4.593,10.24-10.24
			C81.89,158.193,77.298,153.6,71.65,153.6z M71.65,167.253c-1.882,0-3.413-1.531-3.413-3.413s1.531-3.413,3.413-3.413
			c1.883,0,3.413,1.531,3.413,3.413S73.533,167.253,71.65,167.253z"/>
	</g>
</g>
<g>
	<g>
		<path d="M168.37,40.9H63.677c-6.929,0-12.566,5.637-12.566,12.566v56.907c0,6.929,5.635,12.566,12.566,12.566H168.37
			c6.931,0,12.568-5.637,12.566-12.566V53.466C180.937,46.537,175.301,40.9,168.37,40.9z M173.992,110.374
			c0,3.098-2.522,5.62-5.62,5.62H63.678c-3.098,0-5.62-2.522-5.62-5.62V53.466c0-3.098,2.522-5.62,5.62-5.62h104.694
			c3.098,0,5.62,2.522,5.62,5.62V110.374z"/>
	</g>
</g>
<g>
	<g>
		<path d="M177.463,57.967H54.583c-1.918,0-3.473,1.555-3.473,3.473v20.48c0,1.918,1.555,3.473,3.473,3.473h122.88
			c1.918,0,3.475-1.555,3.473-3.473V61.44C180.937,59.522,179.382,57.967,177.463,57.967z M173.992,78.447H58.058V64.913h115.934
			V78.447z"/>
	</g>
</g>
<g>
	<g>
		<path d="M88.717,92.1h-20.48c-1.918,0-3.473,1.555-3.473,3.473c0,1.918,1.555,3.473,3.473,3.473h20.48
			c1.918,0,3.473-1.555,3.473-3.473C92.19,93.655,90.635,92.1,88.717,92.1z"/>
	</g>
</g>
<g>
	<g>
		<path d="M133.09,92.1h-30.72c-1.918,0-3.473,1.555-3.473,3.473c0,1.918,1.555,3.473,3.473,3.473h30.72
			c1.918,0,3.473-1.555,3.473-3.473C136.563,93.655,135.008,92.1,133.09,92.1z"/>
	</g>
</g>
<g>
</g>
<g>
</g>
<g>
</g>
<g>
</g>
<g>
</g>
<g>
</g>
<g>
</g>
<g>
</g>
<g>
</g>
<g>
</g>
<g>
</g>
<g>
</g>
<g>
</g>
<g>
</g>
<g>
</g>
</svg>
