<?xml version="1.0" encoding="iso-8859-1"?>
<!-- Generator: Adobe Illustrator 19.0.0, SVG Export Plug-In . SVG Version: 6.00 Build 0)  -->
<svg version="1.1" id="Capa_1" xmlns="http://www.w3.org/2000/svg" xmlns:xlink="http://www.w3.org/1999/xlink" x="0px" y="0px"
	 viewBox="0 0 184.32 184.32" style="enable-background:new 0 0 184.32 184.32;" xml:space="preserve">
<g>
	<g>
		<path d="M142.594,0H41.726c-9.832,0-17.833,8.001-17.833,17.833v148.654c0,9.832,7.999,17.833,17.833,17.833h100.867
			c9.832,0,17.833-8.001,17.833-17.833V17.833C160.427,8.001,152.428,0,142.594,0z M153.6,166.487
			c0,6.069-4.937,11.006-11.006,11.006H41.726c-6.067,0-11.006-4.937-11.006-11.006V17.833c0-6.069,4.937-11.006,11.006-11.006
			h100.867c6.067,0,11.006,4.937,11.006,11.006V166.487z"/>
	</g>
</g>
<g>
	<g>
		<path d="M146.773,10.24H37.547c-1.884,0-3.413,1.529-3.413,3.413v133.12c0,1.884,1.529,3.413,3.413,3.413h109.227
			c1.884,0,3.413-1.529,3.413-3.413V13.653C150.187,11.769,148.658,10.24,146.773,10.24z M143.36,143.36H40.96V17.067h102.4V143.36z
			"/>
	</g>
</g>
<g>
	<g>
		<path d="M92.16,153.6c-5.647,0-10.24,4.593-10.24,10.24c0,5.647,4.593,10.24,10.24,10.24c5.647,0,10.24-4.593,10.24-10.24
			C102.4,158.193,97.807,153.6,92.16,153.6z M92.16,167.253c-1.882,0-3.413-1.531-3.413-3.413s1.531-3.413,3.413-3.413
			s3.413,1.531,3.413,3.413S94.042,167.253,92.16,167.253z"/>
	</g>
</g>
<g>
	<g>
		<path d="M116.053,37.547h-20.48c-1.884,0-3.413,1.529-3.413,3.413s1.529,3.413,3.413,3.413h20.48c1.884,0,3.413-1.529,3.413-3.413
			S117.938,37.547,116.053,37.547z"/>
	</g>
</g>
<g>
	<g>
		<path d="M86.678,24.168c-1.736-0.742-3.741,0.06-4.482,1.794l-8.625,20.122l-6.825-4.55c-1.568-1.048-3.686-0.62-4.733,0.947
			c-1.044,1.568-0.621,3.686,0.947,4.733l10.24,6.827c0.567,0.379,1.225,0.573,1.893,0.573c0.326,0,0.654-0.046,0.973-0.143
			c0.973-0.288,1.766-0.995,2.164-1.927L88.47,28.65C89.213,26.918,88.411,24.91,86.678,24.168z"/>
	</g>
</g>
<g>
	<g>
		<path d="M116.053,78.507h-20.48c-1.884,0-3.413,1.529-3.413,3.413s1.529,3.413,3.413,3.413h20.48c1.884,0,3.413-1.529,3.413-3.413
			S117.938,78.507,116.053,78.507z"/>
	</g>
</g>
<g>
	<g>
		<path d="M86.678,65.128c-1.736-0.744-3.741,0.06-4.482,1.794l-8.625,20.122l-6.825-4.55c-1.568-1.048-3.686-0.621-4.733,0.947
			c-1.044,1.568-0.621,3.686,0.947,4.733L73.201,95c0.567,0.379,1.225,0.573,1.893,0.573c0.326,0,0.654-0.046,0.973-0.143
			c0.973-0.288,1.766-0.995,2.164-1.927L88.47,69.61C89.213,67.878,88.411,65.871,86.678,65.128z"/>
	</g>
</g>
<g>
	<g>
		<path d="M116.053,119.467h-20.48c-1.884,0-3.413,1.529-3.413,3.413c0,1.884,1.529,3.413,3.413,3.413h20.48
			c1.884,0,3.413-1.529,3.413-3.413C119.467,120.996,117.938,119.467,116.053,119.467z"/>
	</g>
</g>
<g>
	<g>
		<path d="M86.678,106.088c-1.736-0.742-3.741,0.06-4.482,1.794l-8.625,20.122l-6.825-4.55c-1.568-1.046-3.686-0.621-4.733,0.947
			c-1.044,1.568-0.621,3.686,0.947,4.733l10.24,6.827c0.567,0.379,1.225,0.573,1.893,0.573c0.326,0,0.654-0.046,0.973-0.143
			c0.973-0.288,1.766-0.995,2.164-1.927l10.24-23.893C89.213,108.838,88.411,106.831,86.678,106.088z"/>
	</g>
</g>
<g>
</g>
<g>
</g>
<g>
</g>
<g>
</g>
<g>
</g>
<g>
</g>
<g>
</g>
<g>
</g>
<g>
</g>
<g>
</g>
<g>
</g>
<g>
</g>
<g>
</g>
<g>
</g>
<g>
</g>
</svg>
