<?xml version="1.0" encoding="iso-8859-1"?>
<!-- Generator: Adobe Illustrator 19.0.0, SVG Export Plug-In . SVG Version: 6.00 Build 0)  -->
<svg version="1.1" id="Capa_1" xmlns="http://www.w3.org/2000/svg" xmlns:xlink="http://www.w3.org/1999/xlink" x="0px" y="0px"
	 viewBox="0 0 215.04 215.04" style="enable-background:new 0 0 215.04 215.04;" xml:space="preserve">
<g>
	<g>
		<path d="M211.627,151.893H3.413c-1.884,0-3.413,1.529-3.413,3.413C0,168.482,10.718,179.2,23.893,179.2h167.253
			c13.175,0,23.893-10.718,23.893-23.893C215.04,153.423,213.511,151.893,211.627,151.893z M191.147,172.373H23.893
			c-8.242,0-15.138-5.873-16.724-13.653H207.87C206.285,166.501,199.388,172.373,191.147,172.373z"/>
	</g>
</g>
<g>
	<g>
		<path d="M194.56,35.84H20.48c-1.884,0-3.413,1.529-3.413,3.413v116.053c0,1.884,1.529,3.413,3.413,3.413h174.08
			c1.884,0,3.413-1.529,3.413-3.413V39.253C197.973,37.369,196.444,35.84,194.56,35.84z M191.147,151.893H23.893V42.667h167.253
			V151.893z"/>
	</g>
</g>
<g>
	<g>
		<path d="M146,78.051c-0.648-0.79-1.616-1.249-2.64-1.249H72.639l-1.06-4.241c-0.459-1.831-2.314-2.939-4.14-2.485
			c-1.828,0.457-2.941,2.311-2.483,4.139l10.24,40.96c0.379,1.519,1.744,2.586,3.311,2.586h58.027c1.626,0,3.028-1.149,3.347-2.743
			l6.827-34.133C146.908,79.882,146.649,78.841,146,78.051z M133.736,110.933H81.172l-6.827-27.307h64.852L133.736,110.933z"/>
	</g>
</g>
<g>
	<g>
		<g>
			<circle cx="92.16" cy="124.587" r="6.827"/>
			<circle cx="122.88" cy="124.587" r="6.827"/>
		</g>
	</g>
</g>
<g>
	<g>
		<path d="M139.947,93.867H75.093c-1.884,0-3.413,1.529-3.413,3.413s1.529,3.413,3.413,3.413h64.853
			c1.884,0,3.413-1.529,3.413-3.413S141.831,93.867,139.947,93.867z"/>
	</g>
</g>
<g>
	<g>
		<path d="M68.267,69.973h-10.24c-1.884,0-3.413,1.529-3.413,3.413c0,1.884,1.529,3.413,3.413,3.413h10.24
			c1.884,0,3.413-1.529,3.413-3.413C71.68,71.503,70.151,69.973,68.267,69.973z"/>
	</g>
</g>
<g>
	<g>
		<path d="M46.787,50.493c-1.333-1.333-3.494-1.333-4.826,0L28.307,64.147c-1.333,1.333-1.333,3.494,0,4.826
			c0.667,0.667,1.539,1,2.413,1c0.874,0,1.746-0.333,2.413-1L46.787,55.32C48.119,53.987,48.119,51.826,46.787,50.493z"/>
	</g>
</g>
<g>
	<g>
		<path d="M179.907,111.933c-1.333-1.333-3.494-1.333-4.826,0l-25.6,25.6c-1.333,1.333-1.333,3.494,0,4.826
			c0.667,0.667,1.539,1,2.413,1c0.874,0,1.746-0.333,2.413-1l25.6-25.6C181.239,115.427,181.239,113.266,179.907,111.933z"/>
	</g>
</g>
<g>
	<g>
		<path d="M179.907,129c-1.333-1.333-3.494-1.333-4.826,0l-8.533,8.533c-1.333,1.333-1.333,3.494,0,4.826
			c0.667,0.667,1.539,1,2.413,1s1.746-0.333,2.413-1l8.533-8.533C181.239,132.494,181.239,130.333,179.907,129z"/>
	</g>
</g>
<g>
</g>
<g>
</g>
<g>
</g>
<g>
</g>
<g>
</g>
<g>
</g>
<g>
</g>
<g>
</g>
<g>
</g>
<g>
</g>
<g>
</g>
<g>
</g>
<g>
</g>
<g>
</g>
<g>
</g>
</svg>
