<?xml version="1.0" encoding="iso-8859-1"?>
<!-- Generator: Adobe Illustrator 19.0.0, SVG Export Plug-In . SVG Version: 6.00 Build 0)  -->
<svg version="1.1" id="Capa_1" xmlns="http://www.w3.org/2000/svg" xmlns:xlink="http://www.w3.org/1999/xlink" x="0px" y="0px"
	 viewBox="0 0 215.043 215.043" style="enable-background:new 0 0 215.043 215.043;" xml:space="preserve">
<g>
	<g>
		<path d="M212.774,51.602c-1.954-2.425-4.861-3.814-7.974-3.814H68.437c-5.647,0-10.24,4.593-10.24,10.24
			c0,5.647,4.593,10.24,10.24,10.24h123.658l-12.617,58.027H57.177l-6.025-69.246c-0.002-0.014-0.003-0.031-0.007-0.046
			c-0.002-0.036-0.005-0.07-0.01-0.104l-3.412-30.72c-0.577-5.193-4.951-9.11-10.177-9.11H10.24C4.593,17.068,0,21.661,0,27.308
			s4.593,10.24,10.24,10.24h18.142l2.384,21.422l6.813,78.346c0.005,0.073,0.012,0.152,0.022,0.232
			c0.003,0.039,0.007,0.08,0.012,0.116l3.413,30.722c0.075,0.681,0.218,1.353,0.425,2c0.463,1.451,1.806,2.376,3.251,2.376
			c0.343,0,0.693-0.053,1.039-0.166c1.795-0.573,2.785-2.495,2.212-4.291c-0.07-0.217-0.118-0.445-0.145-0.676l-3.398-30.578
			c0-0.01,0-0.019,0-0.029c-0.002-0.039-0.005-0.08-0.01-0.121c-0.003-0.048-0.009-0.096-0.015-0.14
			c-0.003-0.02-0.007-0.039-0.009-0.06l-6.82-78.406l-2.729-24.538c-0.191-1.729-1.65-3.036-3.391-3.036H10.24
			c-1.882,0-3.413-1.531-3.413-3.413s1.531-3.413,3.413-3.413h27.307c1.741,0,3.198,1.304,3.391,3.036l3.395,30.56
			c0.003,0.082,0.01,0.164,0.019,0.237c0.005,0.051,0.012,0.106,0.022,0.162l6.274,72.114c0.154,1.765,1.63,3.118,3.4,3.118h128.183
			c1.604,0,2.995-1.12,3.335-2.688l14.1-64.853c0.22-1.01-0.029-2.063-0.676-2.867c-0.648-0.804-1.626-1.271-2.659-1.271H68.436
			c-1.882,0-3.413-1.531-3.413-3.413s1.531-3.413,3.413-3.413h136.363c1.039,0,2.007,0.462,2.659,1.27
			c0.648,0.809,0.896,1.855,0.676,2.869l-17.068,78.508c-0.336,1.556-1.737,2.686-3.333,2.686H55.41
			c-0.971,0-1.896,0.413-2.543,1.137c-0.648,0.724-0.956,1.69-0.848,2.654l2.572,23.141c0.206,1.874,1.899,3.215,3.768,3.016
			c1.874-0.208,3.224-1.894,3.016-3.768l-2.15-19.35h128.509c4.784,0,8.992-3.393,10.005-8.066l17.067-78.505
			C215.468,57.164,214.729,54.029,212.774,51.602z"/>
	</g>
</g>
<g>
	<g>
		<path d="M157.012,184.32H68.265c-0.207,0-0.41-0.017-0.608-0.053c-1.864-0.338-3.63,0.904-3.959,2.76
			c-0.333,1.857,0.903,3.63,2.76,3.961c0.594,0.106,1.203,0.16,1.809,0.16h88.747c1.886,0,3.412-1.531,3.412-3.415
			C160.425,185.849,158.896,184.32,157.012,184.32z"/>
	</g>
</g>
<g>
	<g>
		<path d="M157.013,170.668H68.267c-1.884,0-3.413,1.529-3.413,3.413s1.529,3.413,3.413,3.413h88.747
			c1.886,0,3.413-1.529,3.413-3.413S158.898,170.668,157.013,170.668z"/>
	</g>
</g>
<g>
	<g>
		<path d="M54.613,163.841c-9.411,0-17.067,7.656-17.067,17.067s7.656,17.067,17.067,17.067c9.411,0,17.067-7.656,17.067-17.067
			S64.024,163.841,54.613,163.841z M54.613,191.148c-5.647,0-10.24-4.593-10.24-10.24c0-5.647,4.593-10.24,10.24-10.24
			c5.647,0,10.24,4.593,10.24,10.24C64.853,186.555,60.261,191.148,54.613,191.148z"/>
	</g>
</g>
<g>
	<g>
		<path d="M170.667,163.841c-9.411,0-17.067,7.656-17.067,17.067s7.656,17.067,17.067,17.067s17.067-7.656,17.067-17.067
			S180.077,163.841,170.667,163.841z M170.667,191.148c-5.647,0-10.24-4.593-10.24-10.24c0-5.647,4.593-10.24,10.24-10.24
			c5.647,0,10.24,4.593,10.24,10.24C180.907,186.555,176.314,191.148,170.667,191.148z"/>
	</g>
</g>
<g>
</g>
<g>
</g>
<g>
</g>
<g>
</g>
<g>
</g>
<g>
</g>
<g>
</g>
<g>
</g>
<g>
</g>
<g>
</g>
<g>
</g>
<g>
</g>
<g>
</g>
<g>
</g>
<g>
</g>
</svg>
