<?xml version="1.0" encoding="iso-8859-1"?>
<!-- Generator: Adobe Illustrator 19.0.0, SVG Export Plug-In . SVG Version: 6.00 Build 0)  -->
<svg version="1.1" id="Capa_1" xmlns="http://www.w3.org/2000/svg" xmlns:xlink="http://www.w3.org/1999/xlink" x="0px" y="0px"
	 viewBox="0 0 204.8 204.8" style="enable-background:new 0 0 204.8 204.8;" xml:space="preserve">
<g>
	<g>
		<path d="M112.64,0C96.336,0,82.862,12.742,81.966,29.007c-0.104,1.882,1.338,3.492,3.22,3.596c1.894,0.096,3.492-1.338,3.596-3.22
			C89.481,16.734,99.96,6.827,112.64,6.827c12.988,0,23.479,10.163,23.881,23.136c0.058,1.848,1.574,3.307,3.41,3.307
			c0.036,0,0.072-0.002,0.108-0.002c1.884-0.058,3.364-1.633,3.306-3.517C142.826,13.068,129.34,0,112.64,0z"/>
	</g>
</g>
<g>
	<g>
		<path d="M174.063,30.38c-0.174-1.744-1.644-3.074-3.396-3.074h-32.521c-1.884,0-3.413,1.529-3.413,3.413s1.529,3.413,3.413,3.413
			h29.433l16.384,163.84h-27.307c-1.884,0-3.413,1.529-3.413,3.413s1.529,3.413,3.413,3.413h31.077c0.964,0,1.884-0.408,2.531-1.123
			c0.647-0.715,0.961-1.671,0.865-2.63L174.063,30.38z"/>
	</g>
</g>
<g>
	<g>
		<path d="M156.996,30.38c-0.174-1.744-1.644-3.074-3.396-3.074H34.133c-1.753,0-3.221,1.329-3.396,3.074L13.67,201.047
			c-0.096,0.959,0.218,1.915,0.865,2.63c0.647,0.715,1.567,1.123,2.531,1.123h153.6c0.964,0,1.884-0.408,2.531-1.123
			c0.647-0.715,0.961-1.671,0.865-2.63L156.996,30.38z M20.838,197.973l16.384-163.84h113.289l16.384,163.84H20.838z"/>
	</g>
</g>
<g>
	<g>
		<path d="M95.573,0c-16.939,0-30.72,13.781-30.72,30.72v27.307c0,1.884,1.529,3.413,3.413,3.413c1.884,0,3.413-1.529,3.413-3.413
			V30.72c0-13.175,10.718-23.893,23.893-23.893s23.893,10.718,23.893,23.893v27.307c0,1.884,1.529,3.413,3.413,3.413
			c1.884,0,3.413-1.529,3.413-3.413V30.72C126.293,13.781,112.512,0,95.573,0z"/>
	</g>
</g>
<g>
	<g>
		<path d="M131.065,102.968c-3.536-8.061-10.771-13.336-19.359-14.111c-0.818-0.073-1.644-0.111-2.48-0.111
			c-5.489,0-10.848,1.667-15.36,4.739c-4.512-3.072-9.871-4.739-15.36-4.739c-0.836,0-1.662,0.038-2.481,0.111
			c-8.585,0.775-15.821,6.05-19.357,14.111c-3.678,8.387-2.536,18.067,2.982,25.264l31.508,41.098
			c0.647,0.843,1.647,1.336,2.708,1.336s2.062-0.493,2.708-1.336l31.509-41.098C133.601,121.035,134.745,111.355,131.065,102.968z
			 M122.667,124.078l-28.8,37.565l-28.8-37.565c-4.004-5.222-4.826-12.261-2.147-18.369c2.521-5.748,7.649-9.504,13.716-10.052
			c0.616-0.055,1.239-0.084,1.87-0.084c4.804,0,9.481,1.707,13.164,4.803c1.27,1.068,3.123,1.068,4.393,0
			c3.683-3.096,8.359-4.803,13.164-4.803c0.631,0,1.254,0.029,1.869,0.082c6.069,0.55,11.197,4.306,13.718,10.054
			C127.493,111.817,126.671,118.856,122.667,124.078z"/>
	</g>
</g>
<g>
</g>
<g>
</g>
<g>
</g>
<g>
</g>
<g>
</g>
<g>
</g>
<g>
</g>
<g>
</g>
<g>
</g>
<g>
</g>
<g>
</g>
<g>
</g>
<g>
</g>
<g>
</g>
<g>
</g>
</svg>
