<?xml version="1.0" encoding="iso-8859-1"?>
<!-- Generator: Adobe Illustrator 19.0.0, SVG Export Plug-In . SVG Version: 6.00 Build 0)  -->
<svg version="1.1" id="Capa_1" xmlns="http://www.w3.org/2000/svg" xmlns:xlink="http://www.w3.org/1999/xlink" x="0px" y="0px"
	 viewBox="0 0 184.318 184.318" style="enable-background:new 0 0 184.318 184.318;" xml:space="preserve">
<g>
	<g>
		<path d="M102.368,49.579c1.884,0,3.413-1.529,3.413-3.413V10.209C105.782,4.581,101.203,0,95.572,0h-81.98
			C7.964,0,3.383,4.579,3.383,10.209v163.9c0,5.629,4.579,10.209,10.209,10.209h81.98c5.63,0,10.209-4.581,10.209-10.209v-50.033
			c0-1.884-1.529-3.413-3.413-3.413s-3.413,1.529-3.413,3.413v50.033c0,1.865-1.517,3.383-3.383,3.383h-81.98
			c-1.864,0-3.383-1.517-3.383-3.383v-163.9c0-1.865,1.517-3.383,3.383-3.383h81.98c1.864,0,3.383,1.517,3.383,3.383v35.956
			C98.955,48.049,100.484,49.579,102.368,49.579z"/>
	</g>
</g>
<g>
	<g>
		<path d="M92.128,50.292c1.884,0,3.413-1.529,3.413-3.413V13.652c0-1.884-1.529-3.413-3.413-3.413H17.035
			c-1.884,0-3.413,1.529-3.413,3.413v133.12c0,1.884,1.529,3.413,3.413,3.413h75.093c1.886,0,3.413-1.529,3.413-3.413v-23.05
			c0-1.884-1.529-3.413-3.413-3.413c-1.884,0-3.413,1.529-3.413,3.413v19.637H20.448V17.065h68.267v29.814
			C88.715,48.763,90.244,50.292,92.128,50.292z"/>
	</g>
</g>
<g>
	<g>
		<path d="M54.582,153.598c-5.647,0-10.24,4.593-10.24,10.24c0,5.647,4.593,10.24,10.24,10.24c5.647,0,10.24-4.593,10.24-10.24
			C64.822,158.191,60.229,153.598,54.582,153.598z M54.582,167.252c-1.882,0-3.413-1.531-3.413-3.413s1.531-3.413,3.413-3.413
			s3.413,1.531,3.413,3.413S56.464,167.252,54.582,167.252z"/>
	</g>
</g>
<g>
	<g>
		<path d="M168.369,44.312H63.675c-6.929,0-12.566,5.637-12.566,12.566v56.907c0,6.929,5.635,12.566,12.566,12.566h104.694
			c6.931,0,12.568-5.637,12.566-12.566V56.878C180.935,49.949,175.299,44.312,168.369,44.312z M173.99,113.785
			c0,3.098-2.522,5.62-5.62,5.62H63.677c-3.098,0-5.62-2.522-5.62-5.62V56.878c0-3.098,2.522-5.62,5.62-5.62H168.37
			c3.098,0,5.62,2.522,5.62,5.62V113.785z"/>
	</g>
</g>
<g>
	<g>
		<path d="M177.462,61.379H54.582c-1.918,0-3.473,1.555-3.473,3.473v20.48c0,1.918,1.555,3.473,3.473,3.473h122.88
			c1.918,0,3.475-1.555,3.473-3.473v-20.48C180.935,62.933,179.38,61.379,177.462,61.379z M173.99,81.859H58.057V68.325H173.99
			V81.859z"/>
	</g>
</g>
<g>
	<g>
		<path d="M88.715,95.512h-20.48c-1.918,0-3.473,1.555-3.473,3.473c0,1.918,1.555,3.473,3.473,3.473h20.48
			c1.918,0,3.473-1.555,3.473-3.473C92.188,97.067,90.633,95.512,88.715,95.512z"/>
	</g>
</g>
<g>
	<g>
		<path d="M133.088,95.512h-30.72c-1.918,0-3.473,1.555-3.473,3.473c0,1.918,1.555,3.473,3.473,3.473h30.72
			c1.918,0,3.473-1.555,3.473-3.473C136.561,97.067,135.007,95.512,133.088,95.512z"/>
	</g>
</g>
<g>
</g>
<g>
</g>
<g>
</g>
<g>
</g>
<g>
</g>
<g>
</g>
<g>
</g>
<g>
</g>
<g>
</g>
<g>
</g>
<g>
</g>
<g>
</g>
<g>
</g>
<g>
</g>
<g>
</g>
</svg>
