<?xml version="1.0" encoding="iso-8859-1"?>
<!-- Generator: Adobe Illustrator 19.0.0, SVG Export Plug-In . SVG Version: 6.00 Build 0)  -->
<svg version="1.1" id="Capa_1" xmlns="http://www.w3.org/2000/svg" xmlns:xlink="http://www.w3.org/1999/xlink" x="0px" y="0px"
	 viewBox="0 0 194.56 194.56" style="enable-background:new 0 0 194.56 194.56;" xml:space="preserve">
<g>
	<g>
		<path d="M94.292,167.253H6.827V88.747h87.04c1.884,0,3.413-1.529,3.413-3.413s-1.529-3.413-3.413-3.413H3.413
			C1.529,81.92,0,83.449,0,85.333v85.333c0,1.884,1.529,3.413,3.413,3.413h90.878c1.886,0,3.413-1.529,3.413-3.413
			S96.176,167.253,94.292,167.253z"/>
	</g>
</g>
<g>
	<g>
		<path d="M94.292,180.907H6.827v-6.827h87.465c1.884,0,3.413-1.529,3.413-3.413s-1.529-3.413-3.413-3.413H3.413
			c-1.884,0-3.413,1.529-3.413,3.413v13.653c0,1.884,1.529,3.413,3.413,3.413h90.878c1.886,0,3.413-1.529,3.413-3.413
			C97.705,182.436,96.176,180.907,94.292,180.907z"/>
	</g>
</g>
<g>
	<g>
		<path d="M92.16,174.08v20.48h102.4v-20.48H92.16z M187.733,187.733H98.987v-6.827h88.747V187.733z"/>
	</g>
</g>
<g>
	<g>
		<path d="M92.16,23.893v157.013h102.4V23.893H92.16z M187.733,174.08H98.987V30.72h88.747V174.08z"/>
	</g>
</g>
<g>
	<g>
		<path d="M85.333,98.987c-1.884,0-3.413,1.529-3.413,3.413v23.852c0,5.67-4.611,10.281-10.281,10.281h-6.743
			c-5.669,0-10.281-4.611-10.281-10.281V102.4c0-1.884-1.529-3.413-3.413-3.413s-3.413,1.529-3.413,3.413v23.852
			c0,9.433,7.675,17.108,17.108,17.108h6.743c9.433,0,17.108-7.675,17.108-17.108V102.4C88.747,100.516,87.217,98.987,85.333,98.987
			z"/>
	</g>
</g>
<g>
	<g>
		<path d="M146.731,0h-6.743c-9.433,0-17.108,7.675-17.106,17.108V40.96c0,1.884,1.529,3.413,3.413,3.413s3.413-1.529,3.413-3.413
			V17.108c0-5.67,4.611-10.281,10.281-10.281h6.743c5.67,0,10.281,4.611,10.281,10.281V40.96c0,1.884,1.529,3.413,3.413,3.413
			s3.413-1.529,3.413-3.413V17.108C163.84,7.675,156.165,0,146.731,0z"/>
	</g>
</g>
<g>
</g>
<g>
</g>
<g>
</g>
<g>
</g>
<g>
</g>
<g>
</g>
<g>
</g>
<g>
</g>
<g>
</g>
<g>
</g>
<g>
</g>
<g>
</g>
<g>
</g>
<g>
</g>
<g>
</g>
</svg>
