<?xml version="1.0" encoding="iso-8859-1"?>
<!-- Generator: Adobe Illustrator 19.0.0, SVG Export Plug-In . SVG Version: 6.00 Build 0)  -->
<svg version="1.1" id="Capa_1" xmlns="http://www.w3.org/2000/svg" xmlns:xlink="http://www.w3.org/1999/xlink" x="0px" y="0px"
	 viewBox="0 0 211.627 211.627" style="enable-background:new 0 0 211.627 211.627;" xml:space="preserve">
<g>
	<g>
		<path d="M129.707,81.92H81.92c-1.884,0-3.413,1.529-3.413,3.413v30.72c0,1.884,1.529,3.413,3.413,3.413h47.787
			c1.884,0,3.413-1.529,3.413-3.413v-30.72C133.12,83.449,131.591,81.92,129.707,81.92z M126.293,112.64h-40.96V88.747h40.96V112.64
			z"/>
	</g>
</g>
<g>
	<g>
		<rect x="102.4" y="112.64" width="6.827" height="17.067"/>
	</g>
</g>
<g>
	<g>
		<rect x="95.573" y="122.88" width="20.48" height="6.827"/>
	</g>
</g>
<g>
	<g>
		<path d="M208.213,81.92h-47.787c-1.884,0-3.413,1.529-3.413,3.413v30.72c0,1.884,1.529,3.413,3.413,3.413h47.787
			c1.884,0,3.413-1.529,3.413-3.413v-30.72C211.627,83.449,210.098,81.92,208.213,81.92z M204.8,112.64h-40.96V88.747h40.96V112.64z
			"/>
	</g>
</g>
<g>
	<g>
		<rect x="180.907" y="112.64" width="6.827" height="17.067"/>
	</g>
</g>
<g>
	<g>
		<rect x="174.08" y="122.88" width="20.48" height="6.827"/>
	</g>
</g>
<g>
	<g>
		<path d="M51.2,81.92H3.413C1.529,81.92,0,83.449,0,85.333v30.72c0,1.884,1.529,3.413,3.413,3.413H51.2
			c1.884,0,3.413-1.529,3.413-3.413v-30.72C54.613,83.449,53.084,81.92,51.2,81.92z M47.787,112.64H6.827V88.747h40.96V112.64z"/>
	</g>
</g>
<g>
	<g>
		<rect x="23.893" y="112.64" width="6.827" height="17.067"/>
	</g>
</g>
<g>
	<g>
		<rect x="17.067" y="122.88" width="20.48" height="6.827"/>
	</g>
</g>
<g>
	<g>
		<path d="M129.707,6.827H81.92c-1.884,0-3.413,1.529-3.413,3.413v30.72c0,1.884,1.529,3.413,3.413,3.413h47.787
			c1.884,0,3.413-1.529,3.413-3.413V10.24C133.12,8.356,131.591,6.827,129.707,6.827z M126.293,37.547h-40.96V13.653h40.96V37.547z"
			/>
	</g>
</g>
<g>
	<g>
		<rect x="102.4" y="37.547" width="6.827" height="17.067"/>
	</g>
</g>
<g>
	<g>
		<rect x="95.573" y="47.787" width="20.48" height="6.827"/>
	</g>
</g>
<g>
	<g>
		<path d="M129.707,157.013H81.92c-1.884,0-3.413,1.529-3.413,3.413v30.72c0,1.884,1.529,3.413,3.413,3.413h47.787
			c1.884,0,3.413-1.529,3.413-3.413v-30.72C133.12,158.543,131.591,157.013,129.707,157.013z M126.293,187.733h-40.96V163.84h40.96
			V187.733z"/>
	</g>
</g>
<g>
	<g>
		<path d="M105.813,187.733c-1.884,0-3.413,1.529-3.413,3.413v10.24c0,1.884,1.529,3.413,3.413,3.413s3.413-1.529,3.413-3.413
			v-10.24C109.227,189.263,107.697,187.733,105.813,187.733z"/>
	</g>
</g>
<g>
	<g>
		<path d="M112.64,197.973H98.987c-1.884,0-3.413,1.529-3.413,3.413c0,1.884,1.529,3.413,3.413,3.413h13.653
			c1.884,0,3.413-1.529,3.413-3.413C116.053,199.503,114.524,197.973,112.64,197.973z"/>
	</g>
</g>
<g>
	<g>
		<rect x="102.4" y="58.027" width="6.827" height="20.48"/>
	</g>
</g>
<g>
	<g>
		<rect x="102.4" y="133.12" width="6.827" height="20.48"/>
	</g>
</g>
<g>
	<g>
		<rect x="136.533" y="98.987" width="17.067" height="6.827"/>
	</g>
</g>
<g>
	<g>
		<rect x="58.027" y="98.987" width="17.067" height="6.827"/>
	</g>
</g>
<g>
</g>
<g>
</g>
<g>
</g>
<g>
</g>
<g>
</g>
<g>
</g>
<g>
</g>
<g>
</g>
<g>
</g>
<g>
</g>
<g>
</g>
<g>
</g>
<g>
</g>
<g>
</g>
<g>
</g>
</svg>
