<?xml version="1.0" encoding="iso-8859-1"?>
<!-- Generator: Adobe Illustrator 19.0.0, SVG Export Plug-In . SVG Version: 6.00 Build 0)  -->
<svg version="1.1" id="Capa_1" xmlns="http://www.w3.org/2000/svg" xmlns:xlink="http://www.w3.org/1999/xlink" x="0px" y="0px"
	 viewBox="0 0 211.877 211.877" style="enable-background:new 0 0 211.877 211.877;" xml:space="preserve">
<g>
	<g>
		<path d="M190.89,109.791l13.14-4.144c5.228-1.649,8.354-6.417,7.781-11.868c-0.572-5.449-4.623-9.463-10.078-9.989l-13.715-1.321
			c-1.792-0.172-3.195-1.299-3.751-3.012s-0.084-3.449,1.266-4.642l10.318-9.131c4.105-3.632,5.021-9.26,2.282-14.007
			c-2.741-4.746-8.074-6.77-13.271-5.028l-13.065,4.372c-1.705,0.573-3.449,0.114-4.654-1.225s-1.48-3.118-0.732-4.756l5.714-12.537
			c2.272-4.987,0.823-10.503-3.611-13.723c-4.436-3.222-10.131-2.898-14.17,0.804l-10.158,9.308
			c-1.326,1.219-3.103,1.505-4.748,0.775c-1.643-0.732-2.618-2.246-2.601-4.047l0.12-13.778c0.046-5.48-3.523-9.928-8.883-11.066
			c-5.362-1.14-10.431,1.471-12.616,6.497l-5.495,12.636c-0.717,1.65-2.222,2.637-4.023,2.637s-3.304-0.985-4.023-2.637
			L96.421,7.273c-2.186-5.026-7.25-7.636-12.616-6.497c-5.361,1.14-8.929,5.588-8.883,11.068l0.12,13.778
			c0.017,1.801-0.956,3.314-2.601,4.047c-1.645,0.729-3.42,0.444-4.748-0.775l-10.16-9.308c-4.038-3.702-9.731-4.026-14.169-0.804
			c-4.432,3.22-5.883,8.736-3.611,13.722l5.714,12.537c0.746,1.64,0.473,3.418-0.732,4.756c-1.208,1.34-2.951,1.794-4.654,1.225
			l-13.065-4.372c-5.198-1.744-10.532,0.282-13.271,5.028s-1.823,10.375,2.282,14.007l10.319,9.131
			c1.35,1.193,1.823,2.929,1.266,4.642c-0.556,1.714-1.959,2.84-3.751,3.012L10.145,83.79c-5.455,0.526-9.506,4.54-10.078,9.989
			c-0.573,5.451,2.555,10.22,7.781,11.868l13.14,4.144c1.719,0.543,2.857,1.935,3.045,3.727c0.188,1.79-0.635,3.388-2.202,4.275
			l-11.994,6.786c-4.768,2.7-6.835,8.015-5.142,13.227c1.695,5.212,6.482,8.289,11.935,7.677l13.689-1.56
			c1.783-0.203,3.396,0.604,4.297,2.166c0.901,1.558,0.799,3.354-0.273,4.803l-8.195,11.076c-3.261,4.403-2.987,10.098,0.679,14.172
			c3.664,4.072,9.305,4.943,14.025,2.162l11.872-6.994c1.551-0.915,3.349-0.829,4.806,0.23c1.456,1.058,2.096,2.741,1.705,4.5
			l-2.983,13.452c-1.186,5.35,1.381,10.443,6.388,12.672c5.006,2.229,10.506,0.729,13.689-3.734l8.001-11.216
			c1.046-1.466,2.72-2.116,4.485-1.742c1.761,0.375,3.028,1.652,3.386,3.417l2.746,13.503c1.092,5.369,5.509,8.977,10.989,8.977
			s9.897-3.608,10.996-8.977l2.746-13.501c0.358-1.765,1.625-3.041,3.386-3.417c1.766-0.374,3.439,0.276,4.485,1.742l8.001,11.216
			c3.181,4.465,8.682,5.965,13.689,3.734c5.006-2.229,7.573-7.322,6.386-12.672l-2.982-13.452c-0.391-1.761,0.247-3.442,1.705-4.5
			c1.457-1.06,3.255-1.145,4.806-0.23l11.872,6.994c4.724,2.78,10.361,1.91,14.025-2.162c3.666-4.074,3.939-9.769,0.679-14.172
			l-8.195-11.078c-1.072-1.447-1.174-3.243-0.273-4.803c0.901-1.56,2.499-2.369,4.297-2.166l13.689,1.56
			c5.434,0.616,10.24-2.463,11.935-7.677c1.693-5.212-0.374-10.527-5.144-13.227l-11.993-6.786
			c-1.567-0.886-2.389-2.485-2.202-4.275C188.033,111.726,189.171,110.334,190.89,109.791z M186.684,123.738l11.991,6.786
			c2.301,1.3,2.548,3.526,2.012,5.175c-0.534,1.647-2.058,3.296-4.668,3.002l-13.689-1.56c-4.499-0.51-8.713,1.608-10.982,5.536
			c-2.266,3.927-2,8.631,0.698,12.276l8.195,11.076c1.572,2.123,0.894,4.256-0.266,5.545c-1.161,1.287-3.212,2.186-5.489,0.845
			l-11.872-6.994c-3.907-2.301-8.615-2.075-12.283,0.591c-3.669,2.666-5.338,7.072-4.355,11.5l2.982,13.452
			c0.572,2.58-0.916,4.253-2.5,4.958c-1.58,0.705-3.821,0.693-5.357-1.459l-8.001-11.216c-2.632-3.69-7.021-5.4-11.46-4.458
			c-4.436,0.944-7.753,4.291-8.658,8.735l-2.746,13.5c-0.527,2.591-2.567,3.514-4.301,3.514c-1.734,0-3.773-0.923-4.301-3.512
			l-2.746-13.501c-0.905-4.444-4.221-7.791-8.658-8.735c-0.806-0.171-1.613-0.254-2.406-0.254c-3.569,0-6.9,1.693-9.054,4.714
			l-8.001,11.216c-1.536,2.15-3.775,2.164-5.357,1.459c-1.584-0.705-3.072-2.376-2.5-4.958l2.982-13.452
			c0.983-4.425-0.688-8.834-4.355-11.5c-3.669-2.666-8.376-2.893-12.283-0.591l-11.872,6.994c-2.275,1.341-4.33,0.442-5.489-0.845
			c-1.159-1.289-1.838-3.422-0.266-5.545l8.195-11.076c2.698-3.645,2.965-8.351,0.698-12.278c-2.27-3.929-6.467-6.052-10.982-5.536
			l-13.689,1.56c-2.635,0.306-4.134-1.353-4.668-3.002c-0.536-1.649-0.288-3.872,2.01-5.175l11.993-6.786
			c3.948-2.232,6.105-6.42,5.63-10.931c-0.474-4.511-3.456-8.161-7.781-9.525l-13.14-4.144c-2.521-0.795-3.227-2.92-3.045-4.644
			c0.183-1.724,1.314-3.656,3.944-3.908l13.715-1.321c4.514-0.433,8.189-3.383,9.59-7.697c1.401-4.314,0.16-8.859-3.236-11.865
			l-10.318-9.131c-1.98-1.749-1.758-3.978-0.893-5.478c0.87-1.502,2.691-2.802,5.193-1.968l13.065,4.372
			c4.306,1.44,8.861,0.239,11.892-3.13c3.036-3.371,3.755-8.026,1.874-12.155l-5.714-12.537c-1.097-2.406,0.01-4.35,1.411-5.369
			c1.401-1.019,3.594-1.473,5.543,0.314l10.158,9.308c3.347,3.063,7.997,3.821,12.138,1.976c4.142-1.845,6.69-5.808,6.651-10.342
			l-0.12-13.776c-0.024-2.645,1.78-3.971,3.477-4.331c1.695-0.358,3.881,0.118,4.936,2.541l5.495,12.636
			c1.807,4.159,5.748,6.743,10.283,6.743s8.474-2.584,10.283-6.743l5.495-12.636c1.056-2.425,3.243-2.9,4.936-2.541
			c1.696,0.36,3.5,1.686,3.477,4.33l-0.12,13.778c-0.041,4.535,2.509,8.497,6.651,10.342s8.791,1.087,12.138-1.976l10.156-9.308
			c1.952-1.787,4.144-1.333,5.545-0.314c1.401,1.019,2.509,2.963,1.411,5.369l-5.714,12.537c-1.879,4.128-1.162,8.786,1.872,12.155
			c3.034,3.369,7.586,4.569,11.894,3.13l13.065-4.372c2.507-0.835,4.328,0.468,5.193,1.968c0.865,1.5,1.087,3.727-0.893,5.478
			l-10.318,9.131c-3.398,3.005-4.637,7.552-3.236,11.865c1.401,4.313,5.074,7.264,9.59,7.697l13.715,1.321
			c2.63,0.253,3.762,2.185,3.944,3.908c0.183,1.724-0.522,3.849-3.045,4.644l-13.14,4.144c-4.326,1.365-7.308,5.014-7.781,9.525
			C180.58,117.317,182.739,121.505,186.684,123.738z"/>
	</g>
</g>
<g>
	<g>
		<g>
			<path d="M104.229,34.656c-39.525,0-71.68,32.155-71.68,71.68c0,39.525,32.155,71.68,71.68,71.68
				c39.525,0,71.68-32.155,71.68-71.68C175.909,66.812,143.753,34.656,104.229,34.656z M104.229,171.19
				c-35.76,0-64.853-29.094-64.853-64.853s29.094-64.853,64.853-64.853c35.76,0,64.853,29.094,64.853,64.853
				C169.082,142.096,139.988,171.19,104.229,171.19z"/>
			<path d="M104.229,44.896c-33.879,0-61.44,27.561-61.44,61.44s27.561,61.44,61.44,61.44s61.44-27.561,61.44-61.44
				S138.108,44.896,104.229,44.896z M104.229,160.95c-30.114,0-54.613-24.499-54.613-54.613s24.499-54.613,54.613-54.613
				s54.613,24.499,54.613,54.613S134.343,160.95,104.229,160.95z"/>
		</g>
	</g>
</g>
<g>
	<g>
		<path d="M79.965,91.847v15.66c0,1.103,0.039,2.64,0.123,4.61c0.08,1.969,0.137,3.113,0.164,3.427h-0.123l-14.66-23.697h-5.927
			v29.891h4.437V106.2c0-2.099-0.097-4.417-0.287-6.953l-0.104-1.326h0.164l14.7,23.817h5.99h0V91.847H79.965z"/>
	</g>
</g>
<g>
	<g>
		<polygon points="109.243,95.977 109.243,91.847 92.337,91.847 92.337,121.737 109.243,121.737 109.243,117.587 97.223,117.587 
			97.223,108.204 108.487,108.204 108.487,104.114 97.223,104.114 97.223,95.977 		"/>
	</g>
</g>
<g>
	<g>
		<path d="M146.122,91.847l-4.253,17.377c-0.776,3.012-1.266,5.492-1.469,7.443c-0.534-3.231-1.038-5.658-1.514-7.281l-4.99-17.539
			h-4.844l-4.867,17.459c-0.244,0.886-0.517,2.043-0.818,3.476c-0.299,1.428-0.526,2.722-0.676,3.883
			c-0.283-2.14-0.763-4.606-1.43-7.4l-4.273-17.42h-4.987l3.924,14.923l3.864,14.967h5.316l4.946-17.746
			c0.206-0.679,0.459-1.717,0.766-3.106c0.307-1.389,0.531-2.519,0.667-3.393c0.067,0.573,0.265,1.591,0.594,3.057
			c0.328,1.464,0.597,2.587,0.818,3.364l5.07,17.826h5.316l7.789-29.891H146.122z"/>
	</g>
</g>
<g>
</g>
<g>
</g>
<g>
</g>
<g>
</g>
<g>
</g>
<g>
</g>
<g>
</g>
<g>
</g>
<g>
</g>
<g>
</g>
<g>
</g>
<g>
</g>
<g>
</g>
<g>
</g>
<g>
</g>
</svg>
