<?xml version="1.0" encoding="iso-8859-1"?>
<!-- Generator: Adobe Illustrator 19.0.0, SVG Export Plug-In . SVG Version: 6.00 Build 0)  -->
<svg version="1.1" id="Capa_1" xmlns="http://www.w3.org/2000/svg" xmlns:xlink="http://www.w3.org/1999/xlink" x="0px" y="0px"
	 viewBox="0 0 204.8 204.8" style="enable-background:new 0 0 204.8 204.8;" xml:space="preserve">
<g>
	<g>
		<path d="M51.67,27.208c-1.94-0.237-3.697,1.164-3.922,3.104L30.681,177.085c-0.116,1.004,0.201,2.007,0.872,2.761
			c0.671,0.753,1.633,1.184,2.642,1.184h15.517c1.954,0,3.536-1.582,3.536-3.536c0-1.954-1.584-3.538-3.538-3.538H38.167
			L54.774,31.13C55.001,29.189,53.611,27.433,51.67,27.208z"/>
	</g>
</g>
<g>
	<g>
		<path d="M170.73,174.635h-0.867c-1.577,0-2.855,1.278-2.855,2.855c0,0.806,0.333,1.531,0.867,2.05v18.988H52.733l-12.988-18.181
			h9.967c1.577,0,2.855-1.278,2.855-2.855s-1.278-2.855-2.855-2.855H34.195c-1.07,0-2.05,0.597-2.54,1.55
			c-0.49,0.951-0.406,2.096,0.215,2.966l17.067,23.893c0.538,0.751,1.401,1.196,2.324,1.196h119.467
			c1.577,0,2.855-1.278,2.857-2.859V177.49C173.586,175.913,172.307,174.635,170.73,174.635z"/>
	</g>
</g>
<g>
	<g>
		<path d="M170.729,27.307H51.262c-1.884,0-3.413,1.529-3.413,3.413v170.667c0,1.884,1.529,3.413,3.413,3.413h119.467
			c1.886,0,3.413-1.529,3.413-3.413V30.72C174.142,28.836,172.613,27.307,170.729,27.307z M167.315,197.973H54.675V34.133h112.64
			V197.973z"/>
	</g>
</g>
<g>
	<g>
		<path d="M112.702,0c-16.939,0-30.72,13.781-30.72,30.72v27.307c0,1.884,1.529,3.413,3.413,3.413c1.884,0,3.413-1.529,3.413-3.413
			V30.72c0-13.175,10.718-23.893,23.893-23.893s23.893,10.718,23.893,23.893v27.307c0,1.884,1.529,3.413,3.413,3.413
			c1.886,0,3.413-1.529,3.413-3.413V30.72C143.422,13.781,129.641,0,112.702,0z"/>
	</g>
</g>
<g>
</g>
<g>
</g>
<g>
</g>
<g>
</g>
<g>
</g>
<g>
</g>
<g>
</g>
<g>
</g>
<g>
</g>
<g>
</g>
<g>
</g>
<g>
</g>
<g>
</g>
<g>
</g>
<g>
</g>
</svg>
