<?xml version="1.0" encoding="iso-8859-1"?>
<!-- Generator: Adobe Illustrator 19.0.0, SVG Export Plug-In . SVG Version: 6.00 Build 0)  -->
<svg version="1.1" id="Capa_1" xmlns="http://www.w3.org/2000/svg" xmlns:xlink="http://www.w3.org/1999/xlink" x="0px" y="0px"
	 viewBox="0 0 211.686 211.686" style="enable-background:new 0 0 211.686 211.686;" xml:space="preserve">
<g>
	<g>
		<path d="M113.133,39.223H9.866C4.427,39.223,0,43.649,0,49.09v62.307c0,5.439,4.425,9.866,9.866,9.866h49.72
			c1.918,0,3.475-1.555,3.475-3.473c0-1.918-1.555-3.473-3.473-3.473H9.866c-1.609,0-2.92-1.311-2.92-2.92V49.09
			c0-1.609,1.311-2.92,2.92-2.92h103.267c1.609,0,2.92,1.311,2.92,2.92v47.693c0,1.918,1.555,3.473,3.473,3.473
			c1.918,0,3.473-1.555,3.473-3.473V49.09C123,43.651,118.574,39.223,113.133,39.223z"/>
	</g>
</g>
<g>
	<g>
		<path d="M119.526,56.29H3.473C1.555,56.29,0,57.845,0,59.763v20.48c0,1.918,1.555,3.473,3.473,3.473h116.053
			c1.918,0,3.473-1.555,3.473-3.473v-20.48C123,57.845,121.445,56.29,119.526,56.29z M116.053,76.77H6.946V63.236h109.107V76.77z"/>
	</g>
</g>
<g>
	<g>
		<path d="M174.14,15.39c-20.704,0-37.547,16.843-37.547,37.547c0,20.704,16.843,37.547,37.547,37.547
			c20.702,0,37.547-16.843,37.547-37.547C211.686,32.233,194.843,15.39,174.14,15.39z M174.14,83.657
			c-16.939,0-30.72-13.781-30.72-30.72s13.781-30.72,30.72-30.72c16.937,0,30.72,13.781,30.72,30.72S191.078,83.657,174.14,83.657z"
			/>
	</g>
</g>
<g>
	<g>
		<path d="M199.74,83.657h-51.2c-6.586,0-11.947,5.361-11.947,11.947h6.827c0-2.823,2.297-5.12,5.12-5.12h51.2
			c2.823,0,5.12,2.297,5.12,5.12s-2.297,5.12-5.12,5.12h-29.003v6.827h29.003c6.586,0,11.947-5.361,11.947-11.947
			S206.326,83.657,199.74,83.657z"/>
	</g>
</g>
<g>
	<g>
		<path d="M199.74,117.79h-27.45v6.827h27.45c2.823,0,5.12,2.297,5.12,5.12c0,2.823-2.297,5.12-5.12,5.12h-28.614v6.827h28.614
			c6.586,0,11.947-5.361,11.947-11.947C211.686,123.151,206.326,117.79,199.74,117.79z"/>
	</g>
</g>
<g>
	<g>
		<path d="M199.74,100.723h-28.225v6.827h28.225c2.823,0,5.12,2.297,5.12,5.12c0,2.823-2.297,5.12-5.12,5.12h-28.225v6.827h28.225
			c6.586,0,11.947-5.361,11.947-11.947S206.326,100.723,199.74,100.723z"/>
	</g>
</g>
<g>
	<g>
		<path d="M175.706,51.011c-4.454-1.843-6.349-3.176-6.349-5.837c0-2.05,1.485-4.403,5.427-4.403c3.277,0,5.376,1.128,6.451,1.741
			l1.28-3.379c-1.485-0.87-3.584-1.69-6.656-1.79v-4.966h-3.173v5.169c-4.709,0.77-7.731,3.994-7.731,8.243
			c0,4.453,3.224,6.81,8.448,8.856c3.789,1.536,5.786,3.277,5.786,6.093c0,2.917-2.458,5.016-6.093,5.016
			c-2.866,0-5.528-0.973-7.371-2.2l-1.229,3.43c1.792,1.28,4.864,2.2,7.834,2.253v5.17v0.002h3.222v-5.323
			c5.274-0.874,8.09-4.661,8.09-8.707C183.642,55.821,180.98,53.162,175.706,51.011z"/>
	</g>
</g>
<g>
	<g>
		<path d="M170.726,93.897H61.5c-1.884,0-3.413,1.529-3.413,3.413v81.92c0,1.884,1.529,3.413,3.413,3.413h109.227
			c1.884,0,3.413-1.529,3.413-3.413V97.31C174.14,95.426,172.611,93.897,170.726,93.897z M167.313,175.817h-102.4v-75.093h102.4
			V175.817z"/>
	</g>
</g>
<g>
	<g>
		<path d="M61.5,107.55h-3.413v61.44H61.5c16.937,0,30.72-13.781,30.72-30.72C92.22,121.331,78.438,107.55,61.5,107.55z
			 M64.913,161.921v-47.3c11.563,1.661,20.48,11.634,20.48,23.651C85.393,150.288,76.476,160.259,64.913,161.921z"/>
	</g>
</g>
<g>
	<g>
		<path d="M170.726,114.377c-9.411,0-17.067-7.656-17.067-17.067c0-1.884-1.529-3.413-3.413-3.413s-3.413,1.529-3.413,3.413
			c0,13.175,10.718,23.893,23.893,23.893c1.884,0,3.413-1.529,3.413-3.413S172.611,114.377,170.726,114.377z"/>
	</g>
</g>
<g>
	<g>
		<path d="M170.726,155.337c-13.175,0-23.893,10.718-23.893,23.893c0,1.884,1.529,3.413,3.413,3.413s3.413-1.529,3.413-3.413
			c0-9.411,7.656-17.067,17.067-17.067c1.884,0,3.413-1.529,3.413-3.413S172.611,155.337,170.726,155.337z"/>
	</g>
</g>
<g>
	<g>
		<path d="M163.9,175.817H61.5c-1.797,0-3.287,1.393-3.406,3.186c-0.12,1.794,1.172,3.372,2.954,3.61l102.4,13.653
			c0.152,0.021,0.302,0.031,0.452,0.031c0.821,0,1.621-0.297,2.248-0.845c0.741-0.649,1.166-1.586,1.166-2.569V179.23
			C167.313,177.346,165.784,175.817,163.9,175.817z M160.485,188.985l-47.56-6.342h47.56V188.985z"/>
	</g>
</g>
<g>
</g>
<g>
</g>
<g>
</g>
<g>
</g>
<g>
</g>
<g>
</g>
<g>
</g>
<g>
</g>
<g>
</g>
<g>
</g>
<g>
</g>
<g>
</g>
<g>
</g>
<g>
</g>
<g>
</g>
</svg>
