<?xml version="1.0" encoding="iso-8859-1"?>
<!-- Generator: Adobe Illustrator 19.0.0, SVG Export Plug-In . SVG Version: 6.00 Build 0)  -->
<svg version="1.1" id="Capa_1" xmlns="http://www.w3.org/2000/svg" xmlns:xlink="http://www.w3.org/1999/xlink" x="0px" y="0px"
	 viewBox="0 0 212.528 212.528" style="enable-background:new 0 0 212.528 212.528;" xml:space="preserve">
<g>
	<g>
		<path d="M201.018,59.221c-0.649-0.756-1.597-1.193-2.594-1.193H14.104c-0.997,0-1.946,0.437-2.594,1.193
			c-0.648,0.758-0.934,1.761-0.778,2.746l17.067,109.227c0.259,1.661,1.691,2.886,3.372,2.886h58.353
			c1.884,0,3.413-1.529,3.413-3.413s-1.529-3.413-3.413-3.413H34.092l-16-102.4h176.343l-16,102.4h-52.478
			c-1.884,0-3.413,1.529-3.413,3.413s1.529,3.413,3.413,3.413h55.4c1.681,0,3.113-1.224,3.372-2.886l17.067-109.227
			C201.952,60.983,201.667,59.979,201.018,59.221z"/>
	</g>
</g>
<g>
	<g>
		<path d="M171.117,75.093h-17.067c-1.884,0-3.413,1.529-3.413,3.413v71.68c0,1.884,1.529,3.413,3.413,3.413
			s3.413-1.529,3.413-3.413V81.92h10.24v68.267c0,1.884,1.529,3.413,3.413,3.413s3.413-1.527,3.413-3.413v-71.68
			C174.531,76.622,173.001,75.093,171.117,75.093z"/>
	</g>
</g>
<g>
	<g>
		<path d="M133.571,75.093h-17.067c-1.884,0-3.413,1.529-3.413,3.413v71.68c0,1.884,1.529,3.413,3.413,3.413
			s3.413-1.529,3.413-3.413V81.92h10.24v68.267c0,1.884,1.529,3.413,3.413,3.413c1.884,0,3.413-1.527,3.413-3.413v-71.68
			C136.984,76.622,135.455,75.093,133.571,75.093z"/>
	</g>
</g>
<g>
	<g>
		<path d="M96.024,75.093H78.957c-1.884,0-3.413,1.529-3.413,3.413v44.373c0,1.884,1.529,3.413,3.413,3.413
			c1.884,0,3.413-1.529,3.413-3.413V81.92h10.24v58.027c0,1.884,1.529,3.413,3.413,3.413s3.413-1.527,3.413-3.413v-61.44
			C99.437,76.622,97.908,75.093,96.024,75.093z"/>
	</g>
</g>
<g>
	<g>
		<path d="M58.477,75.093H41.411c-1.884,0-3.413,1.529-3.413,3.413v17.067c0,1.884,1.529,3.413,3.413,3.413s3.413-1.529,3.413-3.413
			V81.92h10.24v20.48c0,1.884,1.529,3.413,3.413,3.413s3.413-1.527,3.413-3.413V78.507C61.891,76.622,60.361,75.093,58.477,75.093z"
			/>
	</g>
</g>
<g>
	<g>
		<path d="M142.169,181.757L57.262,96.85c-3.024-3.024-7.045-4.69-11.322-4.69s-8.298,1.666-11.32,4.69
			c-6.243,6.245-6.243,16.401,0,22.644l84.907,84.907c0.64,0.64,1.509,1,2.413,1s1.773-0.36,2.415-1.002l17.814-17.816
			C143.502,185.25,143.502,183.09,142.169,181.757z M121.938,197.159l-82.493-82.493c-3.582-3.581-3.582-9.407,0-12.989
			c1.736-1.734,4.04-2.69,6.494-2.69c2.454,0,4.76,0.956,6.494,2.69l82.493,82.493L121.938,197.159z"/>
	</g>
</g>
<g>
	<g>
		<path d="M150.161,208.178l-7.127-24.943c-0.331-1.162-1.254-2.063-2.425-2.367c-1.172-0.304-2.415,0.036-3.27,0.891
			l-17.814,17.816c-0.855,0.855-1.195,2.098-0.891,3.27c0.305,1.171,1.205,2.094,2.367,2.425l24.941,7.127
			c0.311,0.089,0.625,0.131,0.939,0.131c0.891,0,1.765-0.35,2.412-0.998C150.17,210.652,150.502,209.37,150.161,208.178z
			 M128.454,200.3l9.612-9.614l3.845,13.459L128.454,200.3z"/>
	</g>
</g>
<g>
	<g>
		<path d="M124.353,185.32l-76-75.998c-1.333-1.333-3.494-1.333-4.826,0c-1.333,1.333-1.333,3.494,0,4.826l76,75.998
			c0.667,0.667,1.539,1,2.413,1c0.872,0,1.746-0.333,2.413-1C125.686,188.814,125.686,186.653,124.353,185.32z"/>
	</g>
</g>
<g>
	<g>
		<path d="M208.664,40.96h-91.146c-1.884,0-3.413,1.529-3.413,3.413s1.529,3.413,3.413,3.413h87.733v10.24H7.277v-10.24H95.3
			c1.884,0,3.413-1.529,3.413-3.413S97.184,40.96,95.3,40.96H3.864c-1.884,0-3.413,1.529-3.413,3.413V61.44
			c0,1.884,1.529,3.413,3.413,3.413h204.8c1.884,0,3.413-1.527,3.413-3.413V44.373C212.077,42.489,210.548,40.96,208.664,40.96z"/>
	</g>
</g>
<g>
	<g>
		<path d="M116.504,0h-20.48c-1.884,0-3.413,1.529-3.413,3.413V61.44c0,1.884,1.529,3.413,3.413,3.413h20.48
			c1.884,0,3.413-1.527,3.413-3.413V3.413C119.917,1.529,118.388,0,116.504,0z M113.091,58.027H99.437v-51.2h13.653V58.027z"/>
	</g>
</g>
<g>
</g>
<g>
</g>
<g>
</g>
<g>
</g>
<g>
</g>
<g>
</g>
<g>
</g>
<g>
</g>
<g>
</g>
<g>
</g>
<g>
</g>
<g>
</g>
<g>
</g>
<g>
</g>
<g>
</g>
</svg>
