<?xml version="1.0" encoding="iso-8859-1"?>
<!-- Generator: Adobe Illustrator 19.0.0, SVG Export Plug-In . SVG Version: 6.00 Build 0)  -->
<svg version="1.1" id="Capa_1" xmlns="http://www.w3.org/2000/svg" xmlns:xlink="http://www.w3.org/1999/xlink" x="0px" y="0px"
	 viewBox="0 0 198.093 198.093" style="enable-background:new 0 0 198.093 198.093;" xml:space="preserve">
<g>
	<g>
		<path d="M99.046,0C44.431,0,0,44.431,0,99.046s44.431,99.046,99.046,99.046s99.046-44.431,99.046-99.046S153.661,0,99.046,0z
			 M99.046,191.147c-50.785,0-92.1-41.317-92.1-92.1s41.317-92.1,92.1-92.1s92.1,41.317,92.1,92.1S149.832,191.147,99.046,191.147z"
			/>
	</g>
</g>
<g>
	<g>
		<g>
			<path d="M97.027,126.689c-1.787-0.036-3.347,0.587-4.675,1.867c-1.33,1.277-2.01,2.806-2.045,4.593
				c-0.036,1.864,0.585,3.461,1.862,4.791c1.278,1.329,2.814,2.01,4.601,2.046c1.862,0.032,3.458-0.584,4.787-1.867
				c1.33-1.277,2.014-2.847,2.05-4.71c0.032-1.787-0.591-3.343-1.867-4.673C100.461,127.41,98.889,126.723,97.027,126.689z"/>
			<path d="M117.366,66.488c-4.506-3.889-10.561-5.91-18.161-6.057c-3.797-0.073-7.27,0.275-10.417,1.027
				c-3.142,0.763-6.262,2.079-9.354,3.956c-1.886,1.08-2.842,2.48-2.876,4.193c-0.024,1.195,0.403,2.248,1.28,3.157
				c0.875,0.913,1.91,1.379,3.101,1.403c0.968,0.02,1.906-0.259,2.811-0.843c1.961-1.149,4.195-2.019,6.704-2.606
				c2.509-0.584,5.065-0.853,7.673-0.8c10.655,0.206,15.904,4.372,15.746,12.489c-0.039,2.087-0.748,3.937-2.12,5.55
				c-1.372,1.613-3.495,3.511-6.369,5.687c-2.724,2.111-4.905,3.983-6.538,5.63c-1.637,1.647-3.072,3.727-4.313,6.236
				c-1.241,2.509-1.893,5.439-1.959,8.789c-0.022,1.193,0.423,2.225,1.338,3.099c0.915,0.877,2.08,1.329,3.494,1.359
				c1.34,0.026,2.504-0.384,3.49-1.22c0.983-0.836,1.49-1.85,1.514-3.043c0.056-2.978,0.905-5.477,2.548-7.494
				c1.638-2.019,4.087-4.267,7.34-6.74c2.497-1.888,4.502-3.584,6.025-5.081c1.521-1.493,2.819-3.333,3.908-5.513
				c1.085-2.178,1.655-4.721,1.712-7.627C124.066,75.561,121.876,70.378,117.366,66.488z"/>
		</g>
	</g>
</g>
<g>
	<g>
		<path d="M99.046,17.126c-45.17,0-81.92,36.748-81.92,81.92c0,1.884,1.529,3.413,3.413,3.413s3.413-1.529,3.413-3.413
			c0-41.407,33.686-75.093,75.093-75.093c1.884,0,3.413-1.529,3.413-3.413S100.931,17.126,99.046,17.126z"/>
	</g>
</g>
<g>
	<g>
		<path d="M153.66,191.206h-47.787c-1.884,0-3.413,1.529-3.413,3.413c0,1.884,1.529,3.413,3.413,3.413h47.787
			c1.884,0,3.413-1.529,3.413-3.413C157.073,192.736,155.544,191.206,153.66,191.206z"/>
	</g>
</g>
<g>
</g>
<g>
</g>
<g>
</g>
<g>
</g>
<g>
</g>
<g>
</g>
<g>
</g>
<g>
</g>
<g>
</g>
<g>
</g>
<g>
</g>
<g>
</g>
<g>
</g>
<g>
</g>
<g>
</g>
</svg>
