<?xml version="1.0" encoding="iso-8859-1"?>
<!-- Generator: Adobe Illustrator 19.0.0, SVG Export Plug-In . SVG Version: 6.00 Build 0)  -->
<svg version="1.1" id="Capa_1" xmlns="http://www.w3.org/2000/svg" xmlns:xlink="http://www.w3.org/1999/xlink" x="0px" y="0px"
	 viewBox="0 0 211.627 211.627" style="enable-background:new 0 0 211.627 211.627;" xml:space="preserve">
<g>
	<g>
		<path d="M208.213,110.933H3.413c-1.884,0-3.413,1.529-3.413,3.413v81.92c0,1.884,1.529,3.413,3.413,3.413h204.8
			c1.884,0,3.413-1.529,3.413-3.413v-81.92C211.627,112.462,210.098,110.933,208.213,110.933z M204.8,192.853H6.827V117.76H204.8
			V192.853z"/>
	</g>
</g>
<g>
	<g>
		<path d="M105.813,124.587v6.827c13.175,0,23.893,10.718,23.893,23.893S118.989,179.2,105.813,179.2v6.827
			c16.939,0,30.72-13.781,30.72-30.72S122.752,124.587,105.813,124.587z"/>
	</g>
</g>
<g>
	<g>
		<path d="M208.213,131.413c-9.411,0-17.067-7.656-17.067-17.067c0-1.884-1.529-3.413-3.413-3.413c-1.884,0-3.413,1.529-3.413,3.413
			c0,13.175,10.718,23.893,23.893,23.893c1.884,0,3.413-1.529,3.413-3.413C211.627,132.942,210.098,131.413,208.213,131.413z"/>
	</g>
</g>
<g>
	<g>
		<path d="M208.213,172.373c-13.175,0-23.893,10.718-23.893,23.893c0,1.884,1.529,3.413,3.413,3.413
			c1.884,0,3.413-1.529,3.413-3.413c0-9.411,7.656-17.067,17.067-17.067c1.884,0,3.413-1.529,3.413-3.413
			S210.098,172.373,208.213,172.373z"/>
	</g>
</g>
<g>
	<g>
		<path d="M23.893,110.933c-1.884,0-3.413,1.529-3.413,3.413c0,9.411-7.656,17.067-17.067,17.067c-1.884,0-3.413,1.529-3.413,3.413
			c0,1.884,1.529,3.413,3.413,3.413c13.175,0,23.893-10.718,23.893-23.893C27.307,112.462,25.778,110.933,23.893,110.933z"/>
	</g>
</g>
<g>
	<g>
		<path d="M3.413,172.373c-1.884,0-3.413,1.529-3.413,3.413s1.529,3.413,3.413,3.413c9.411,0,17.067,7.656,17.067,17.067
			c0,1.884,1.529,3.413,3.413,3.413s3.413-1.529,3.413-3.413C27.307,183.091,16.589,172.373,3.413,172.373z"/>
	</g>
</g>
<g>
	<g>
		<path d="M105.813,124.587c-16.939,0-30.72,13.781-30.72,30.72s13.781,30.72,30.72,30.72s30.72-13.781,30.72-30.72
			S122.752,124.587,105.813,124.587z M105.813,179.2c-13.175,0-23.893-10.718-23.893-23.893s10.718-23.893,23.893-23.893
			s23.893,10.718,23.893,23.893S118.989,179.2,105.813,179.2z"/>
	</g>
</g>
<g>
	<g>
		<rect x="180.907" y="11.947" width="6.827" height="47.787"/>
	</g>
</g>
<g>
	<g>
		<polygon points="199.255,46.828 184.32,58.774 169.385,46.828 165.122,52.159 184.32,67.519 203.518,52.159 		"/>
	</g>
</g>
<g>
	<g>
		<rect x="133.12" y="25.6" width="6.827" height="61.44"/>
	</g>
</g>
<g>
	<g>
		<polygon points="151.468,74.134 136.533,86.081 121.598,74.134 117.335,79.466 136.533,94.826 155.732,79.466 		"/>
	</g>
</g>
<g>
</g>
<g>
</g>
<g>
</g>
<g>
</g>
<g>
</g>
<g>
</g>
<g>
</g>
<g>
</g>
<g>
</g>
<g>
</g>
<g>
</g>
<g>
</g>
<g>
</g>
<g>
</g>
<g>
</g>
</svg>
