<?xml version="1.0" encoding="iso-8859-1"?>
<!-- Generator: Adobe Illustrator 19.0.0, SVG Export Plug-In . SVG Version: 6.00 Build 0)  -->
<svg version="1.1" id="Capa_1" xmlns="http://www.w3.org/2000/svg" xmlns:xlink="http://www.w3.org/1999/xlink" x="0px" y="0px"
	 viewBox="0 0 201.506 201.506" style="enable-background:new 0 0 201.506 201.506;" xml:space="preserve">
<g>
	<g>
		<path d="M100.753,0C45.198,0,0,45.198,0,100.753s45.198,100.753,100.753,100.753s100.753-45.198,100.753-100.753
			S156.308,0,100.753,0z M100.753,194.56c-51.726,0-93.807-42.081-93.807-93.807S49.027,6.946,100.753,6.946
			s93.807,42.081,93.807,93.807S152.479,194.56,100.753,194.56z"/>
	</g>
</g>
<g>
	<g>
		<path d="M188.447,51.287c-0.606-1.072-1.741-1.734-2.971-1.734H74.324c-14.601,0-26.477,11.878-26.477,26.479v17.894
			c0,1.884,1.529,3.413,3.413,3.413h146.509c0.945,0,1.847-0.393,2.493-1.084c0.647-0.691,0.976-1.62,0.91-2.565
			C200.127,78.643,195.845,64.377,188.447,51.287z M54.673,90.513V76.032c0-10.837,8.815-19.652,19.651-19.652h109.138
			c5.731,10.646,9.281,22.105,10.578,34.133H54.673z"/>
	</g>
</g>
<g>
	<g>
		<path d="M73.446,63.206c-6.588,0-11.947,5.361-11.947,11.947c0,6.586,5.359,11.947,11.947,11.947
			c6.588,0,11.947-5.361,11.947-11.947C85.393,68.567,80.034,63.206,73.446,63.206z M73.446,80.273c-2.823,0-5.12-2.297-5.12-5.12
			c0-2.823,2.297-5.12,5.12-5.12c2.823,0,5.12,2.297,5.12,5.12C78.566,77.976,76.269,80.273,73.446,80.273z"/>
	</g>
</g>
<g>
	<g>
		<path d="M100.753,63.206c-6.588,0-11.947,5.361-11.947,11.947c0,6.586,5.359,11.947,11.947,11.947
			c6.588,0,11.947-5.361,11.947-11.947C112.7,68.567,107.341,63.206,100.753,63.206z M100.753,80.273c-2.823,0-5.12-2.297-5.12-5.12
			c0-2.823,2.297-5.12,5.12-5.12s5.12,2.297,5.12,5.12C105.873,77.976,103.576,80.273,100.753,80.273z"/>
	</g>
</g>
<g>
	<g>
		<path d="M128.06,63.148c-6.62,0-12.005,5.385-12.005,12.005c0,6.62,5.385,12.005,12.005,12.005c6.62,0,12.005-5.385,12.005-12.005
			C140.064,68.533,134.68,63.148,128.06,63.148z M128.06,80.215c-2.79,0-5.062-2.27-5.062-5.062s2.272-5.062,5.062-5.062
			c2.79,0,5.062,2.27,5.062,5.062S130.85,80.215,128.06,80.215z"/>
	</g>
</g>
<g>
	<g>
		<path d="M201.173,93.689l-0.22-3.176H47.846v95.928l1.674,0.992c15.478,9.168,33.193,14.013,51.232,14.013
			c55.523,0,100.693-45.172,100.693-100.693C201.446,98.621,201.359,96.375,201.173,93.689z M100.753,194.62
			c-16.169,0-32.058-4.175-46.08-12.092V97.34h139.872c0.049,1.21,0.075,2.33,0.075,3.413
			C194.62,152.511,152.511,194.62,100.753,194.62z"/>
	</g>
</g>
<g>
	<g>
		<path d="M159.713,119.067c-0.648-0.79-1.618-1.249-2.64-1.249H86.352l-1.06-4.241c-0.457-1.828-2.311-2.942-4.139-2.483
			c-1.83,0.457-2.942,2.311-2.485,4.14l10.24,40.96c0.379,1.519,1.744,2.586,3.311,2.586h58.027c1.626,0,3.028-1.149,3.347-2.746
			l6.827-34.133C160.621,120.897,160.362,119.857,159.713,119.067z M147.449,151.953H94.886l-6.827-27.307h64.852L147.449,151.953z"
			/>
	</g>
</g>
<g>
	<g>
		<g>
			<circle cx="105.873" cy="165.606" r="6.827"/>
			<circle cx="136.593" cy="165.606" r="6.827"/>
		</g>
	</g>
</g>
<g>
	<g>
		<path d="M153.66,134.886H88.806c-1.884,0-3.413,1.529-3.413,3.413s1.529,3.413,3.413,3.413h64.853
			c1.884,0,3.413-1.529,3.413-3.413S155.544,134.886,153.66,134.886z"/>
	</g>
</g>
<g>
	<g>
		<path d="M81.98,110.993H71.74c-1.884,0-3.413,1.529-3.413,3.413c0,1.884,1.529,3.413,3.413,3.413h10.24
			c1.884,0,3.413-1.529,3.413-3.413C85.393,112.522,83.864,110.993,81.98,110.993z"/>
	</g>
</g>
<g>
</g>
<g>
</g>
<g>
</g>
<g>
</g>
<g>
</g>
<g>
</g>
<g>
</g>
<g>
</g>
<g>
</g>
<g>
</g>
<g>
</g>
<g>
</g>
<g>
</g>
<g>
</g>
<g>
</g>
</svg>
