<?xml version="1.0" encoding="iso-8859-1"?>
<!-- Generator: Adobe Illustrator 19.0.0, SVG Export Plug-In . SVG Version: 6.00 Build 0)  -->
<svg version="1.1" id="Capa_1" xmlns="http://www.w3.org/2000/svg" xmlns:xlink="http://www.w3.org/1999/xlink" x="0px" y="0px"
	 viewBox="0 0 203.24 203.24" style="enable-background:new 0 0 203.24 203.24;" xml:space="preserve">
<g>
	<g>
		<path d="M194.473,111.708c5.163-0.727,8.767-4.874,8.767-10.088c0-5.214-3.606-9.361-8.767-10.088
			c-2.319-0.328-2.775-2.265-2.859-2.852c-0.084-0.585-0.193-2.574,1.94-3.54c4.75-2.152,7.038-7.146,5.571-12.15
			c-1.468-5.002-6.093-7.977-11.254-7.209c-2.328,0.334-3.301-1.394-3.546-1.93c-0.246-0.541-0.911-2.415,0.864-3.944
			c3.949-3.403,4.738-8.842,1.92-13.227c-2.818-4.384-8.093-5.924-12.829-3.748c-2.13,0.98-3.558-0.403-3.946-0.852
			c-0.387-0.445-1.555-2.06-0.282-4.028c2.83-4.378,2.055-9.818-1.884-13.232c-3.941-3.413-9.438-3.405-13.367,0.019
			c-1.766,1.539-3.528,0.614-4.026,0.295c-0.498-0.321-2.072-1.541-1.405-3.785c1.481-4.997-0.795-9.999-5.536-12.165
			c-4.741-2.169-10.011-0.609-12.819,3.784c-1.258,1.973-3.21,1.584-3.78,1.417c-0.568-0.169-2.422-0.894-2.415-3.236
			c0.015-5.214-3.579-9.371-8.738-10.115c-5.168-0.732-9.779,2.236-11.233,7.243c-0.655,2.248-2.637,2.424-3.229,2.424
			s-2.575-0.176-3.229-2.424C96.937,3.271,92.324,0.3,87.158,1.034c-5.159,0.744-8.753,4.902-8.738,10.115
			c0.005,2.343-1.847,3.067-2.415,3.236c-0.568,0.164-2.521,0.556-3.78-1.417c-2.807-4.395-8.076-5.951-12.819-3.784
			c-4.743,2.166-7.02,7.168-5.536,12.167c0.667,2.244-0.906,3.463-1.405,3.784c-0.498,0.317-2.261,1.242-4.026-0.295
			c-3.93-3.424-9.426-3.432-13.367-0.019s-4.714,8.856-1.884,13.232c1.273,1.968,0.106,3.581-0.282,4.028
			c-0.387,0.449-1.816,1.828-3.946,0.853c-4.731-2.183-10.01-0.638-12.829,3.746c-2.819,4.384-2.029,9.824,1.92,13.227
			c1.775,1.529,1.109,3.405,0.864,3.944c-0.246,0.539-1.232,2.272-3.545,1.93c-5.164-0.768-9.788,2.207-11.255,7.209
			c-1.468,5.002,0.823,9.998,5.571,12.15c2.133,0.966,2.024,2.954,1.94,3.54c-0.085,0.587-0.541,2.526-2.859,2.852
			C3.604,92.259,0,96.406,0,101.62c0,5.214,3.606,9.361,8.767,10.088c2.319,0.328,2.775,2.265,2.859,2.852
			c0.084,0.585,0.193,2.574-1.94,3.54c-4.75,2.152-7.038,7.146-5.571,12.15c1.468,5,6.091,7.974,11.254,7.209
			c2.316-0.346,3.299,1.393,3.546,1.93c0.246,0.541,0.911,2.415-0.864,3.944c-3.949,3.403-4.738,8.842-1.92,13.227
			c2.818,4.386,8.095,5.926,12.829,3.748c2.128-0.98,3.558,0.403,3.946,0.852c0.387,0.445,1.555,2.06,0.282,4.028
			c-2.83,4.378-2.055,9.818,1.884,13.232c3.942,3.413,9.438,3.405,13.367-0.019c1.768-1.538,3.528-0.614,4.026-0.295
			c0.498,0.321,2.072,1.541,1.405,3.785c-1.481,4.997,0.795,9.999,5.536,12.165c4.745,2.169,10.013,0.611,12.819-3.784
			c1.259-1.971,3.214-1.579,3.78-1.417c0.568,0.169,2.422,0.894,2.415,3.236c-0.015,5.214,3.579,9.371,8.738,10.115
			c0.529,0.075,1.05,0.111,1.562,0.111c4.509,0,8.366-2.86,9.672-7.354c0.655-2.248,2.637-2.423,3.229-2.423
			c0.592,0,2.575,0.176,3.229,2.423c1.454,5.004,6.072,7.98,11.233,7.243c5.159-0.744,8.753-4.902,8.738-10.115
			c-0.005-2.343,1.847-3.067,2.415-3.236c0.568-0.166,2.521-0.556,3.78,1.417c2.806,4.395,8.078,5.948,12.819,3.784
			c4.743-2.166,7.02-7.168,5.536-12.167c-0.667-2.244,0.906-3.465,1.405-3.784c0.498-0.319,2.261-1.242,4.026,0.295
			c3.93,3.424,9.426,3.432,13.367,0.019c3.941-3.413,4.714-8.856,1.884-13.232c-1.273-1.968-0.106-3.581,0.282-4.028
			c0.387-0.447,1.814-1.828,3.946-0.853c4.734,2.185,10.01,0.64,12.829-3.746c2.819-4.384,2.029-9.824-1.92-13.227
			c-1.775-1.529-1.109-3.405-0.864-3.944c0.246-0.538,1.232-2.27,3.545-1.93c5.163,0.765,9.788-2.208,11.255-7.209
			c1.468-5.002-0.823-9.998-5.571-12.15c-2.133-0.966-2.024-2.954-1.94-3.54C191.7,113.973,192.155,112.034,194.473,111.708z
			 M190.729,124.31c2.533,1.149,1.976,3.543,1.838,4.011c-0.137,0.468-0.964,2.778-3.714,2.379
			c-4.598-0.678-8.815,1.621-10.745,5.849c-1.93,4.227-0.903,8.919,2.618,11.952c2.106,1.814,0.896,3.954,0.633,4.364
			c-0.263,0.411-1.705,2.406-4.233,1.236c-4.222-1.94-8.916-0.927-11.959,2.584c-3.043,3.512-3.379,8.303-0.855,12.206
			c1.51,2.336-0.253,4.047-0.621,4.366c-0.369,0.319-2.313,1.819-4.41-0.005c-3.502-3.055-8.291-3.401-12.201-0.891
			c-3.91,2.514-5.581,7.016-4.26,11.469c0.792,2.668-1.382,3.814-1.826,4.018c-0.442,0.201-2.734,1.096-4.229-1.248
			c-2.502-3.915-6.997-5.598-11.457-4.294c-4.46,1.309-7.332,5.158-7.318,9.805c0.009,2.78-2.4,3.268-2.883,3.336
			c-0.483,0.073-2.93,0.278-3.707-2.388c-1.295-4.465-5.137-7.347-9.783-7.347c-4.646,0-8.486,2.884-9.783,7.347
			c-0.776,2.666-3.224,2.459-3.707,2.388c-0.481-0.068-2.891-0.556-2.883-3.336c0.014-4.647-2.859-8.494-7.318-9.805
			c-1.003-0.294-2.009-0.437-2.993-0.437c-3.388,0-6.525,1.695-8.463,4.731c-1.495,2.343-3.787,1.447-4.229,1.248
			c-0.444-0.205-2.616-1.35-1.826-4.016c1.323-4.456-0.35-8.957-4.26-11.47c-3.908-2.509-8.699-2.162-12.201,0.891
			c-2.097,1.824-4.043,0.326-4.41,0.005c-0.369-0.319-2.132-2.031-0.621-4.366c2.524-3.903,2.188-8.692-0.855-12.206
			c-3.043-3.512-7.738-4.531-11.959-2.582c-2.529,1.159-3.968-0.828-4.233-1.237c-0.263-0.411-1.473-2.552,0.633-4.364
			c3.521-3.033,4.548-7.724,2.618-11.952c-1.93-4.227-6.149-6.525-10.747-5.849c-2.756,0.394-3.576-1.913-3.712-2.379
			c-0.136-0.469-0.695-2.862,1.838-4.011c4.233-1.918,6.54-6.13,5.878-10.728c-0.66-4.599-4.062-7.991-8.663-8.639
			c-2.753-0.387-2.893-2.84-2.893-3.328s0.138-2.939,2.893-3.328c4.601-0.647,8.003-4.04,8.663-8.639
			c0.662-4.598-1.645-8.81-5.878-10.728c-2.533-1.149-1.976-3.543-1.838-4.011c0.137-0.469,0.954-2.784,3.714-2.379
			c4.596,0.679,8.815-1.621,10.745-5.849s0.903-8.919-2.618-11.952c-2.106-1.814-0.896-3.954-0.633-4.364
			c0.263-0.411,1.708-2.403,4.233-1.236c4.221,1.942,8.916,0.928,11.959-2.584s3.379-8.303,0.855-12.206
			c-1.51-2.336,0.253-4.047,0.621-4.366c0.367-0.319,2.311-1.823,4.41,0.005c3.499,3.052,8.291,3.4,12.201,0.891
			c3.91-2.514,5.581-7.016,4.26-11.469c-0.792-2.668,1.382-3.814,1.826-4.018c0.442-0.203,2.734-1.094,4.229,1.248
			c2.502,3.917,7.002,5.601,11.457,4.294c4.46-1.309,7.332-5.158,7.318-9.805c-0.009-2.78,2.4-3.268,2.883-3.337
			c0.483-0.072,2.93-0.28,3.707,2.388c1.295,4.465,5.137,7.347,9.783,7.347c4.646,0,8.486-2.884,9.783-7.347
			c0.776-2.667,3.222-2.461,3.707-2.388c0.481,0.068,2.891,0.556,2.883,3.337c-0.014,4.647,2.859,8.494,7.318,9.805
			c4.456,1.3,8.955-0.377,11.457-4.294c1.495-2.342,3.787-1.449,4.229-1.248c0.444,0.205,2.616,1.35,1.826,4.016
			c-1.323,4.456,0.35,8.957,4.26,11.471c3.907,2.509,8.699,2.162,12.201-0.891c2.096-1.824,4.041-0.326,4.41-0.005
			c0.369,0.319,2.132,2.031,0.621,4.366c-2.524,3.903-2.188,8.692,0.855,12.206c3.043,3.511,7.74,4.529,11.959,2.582
			c2.529-1.161,3.968,0.828,4.233,1.237c0.263,0.411,1.473,2.551-0.633,4.364c-3.521,3.033-4.548,7.724-2.618,11.952
			c1.93,4.226,6.142,6.523,10.747,5.849c2.751-0.401,3.574,1.913,3.712,2.379c0.137,0.469,0.695,2.862-1.838,4.011
			c-4.233,1.918-6.54,6.13-5.878,10.728c0.66,4.599,4.062,7.991,8.663,8.639c2.753,0.387,2.893,2.84,2.893,3.328
			s-0.138,2.939-2.893,3.328c-4.601,0.647-8.003,4.04-8.663,8.639C184.189,118.179,186.496,122.392,190.729,124.31z"/>
	</g>
</g>
<g>
	<g>
		<path d="M164.705,109.547c4.055-0.572,6.888-3.83,6.888-7.927s-2.833-7.356-6.881-7.927c-0.724-0.102-0.944-0.599-1.002-1
			s0.014-0.939,0.679-1.242c3.731-1.69,5.53-5.617,4.376-9.545c-1.154-3.929-4.782-6.258-8.842-5.664
			c-0.73,0.106-1.077-0.309-1.244-0.676c-0.167-0.367-0.251-0.906,0.304-1.384c3.104-2.674,3.724-6.946,1.509-10.394
			c-2.214-3.444-6.357-4.654-10.08-2.944c-0.666,0.307-1.12,0.007-1.386-0.299c-0.263-0.305-0.495-0.799-0.097-1.411
			c2.224-3.441,1.615-7.716-1.481-10.399c-3.094-2.683-7.414-2.673-10.501,0.017c-0.553,0.481-1.07,0.323-1.411,0.104
			s-0.701-0.626-0.493-1.328c1.166-3.927-0.623-7.857-4.349-9.559c-3.724-1.702-7.868-0.478-10.073,2.973
			c-0.393,0.616-0.937,0.611-1.324,0.497c-0.387-0.114-0.848-0.403-0.846-1.135c0.012-4.096-2.813-7.363-6.866-7.946
			c-4.062-0.591-7.685,1.756-8.827,5.69c-0.205,0.703-0.729,0.85-1.132,0.85s-0.927-0.147-1.132-0.85
			c-1.143-3.934-4.78-6.286-8.827-5.69c-4.055,0.584-6.878,3.85-6.866,7.946c0.003,0.732-0.459,1.021-0.847,1.135
			c-0.384,0.111-0.93,0.121-1.324-0.498c-2.207-3.449-6.347-4.671-10.073-2.971c-3.726,1.703-5.514,5.632-4.349,9.561
			c0.208,0.7-0.154,1.108-0.493,1.326c-0.34,0.217-0.858,0.375-1.411-0.104c-3.089-2.691-7.407-2.697-10.501-0.017
			c-3.096,2.683-3.705,6.958-1.48,10.399c0.396,0.613,0.164,1.106-0.099,1.411c-0.266,0.305-0.725,0.602-1.384,0.3
			c-3.721-1.715-7.866-0.503-10.081,2.942c-2.215,3.447-1.596,7.721,1.509,10.395c0.553,0.478,0.469,1.015,0.302,1.382
			c-0.167,0.365-0.517,0.782-1.244,0.676c-4.045-0.591-7.687,1.734-8.842,5.664c-1.154,3.929,0.645,7.856,4.376,9.545
			c0.666,0.304,0.737,0.843,0.679,1.242c-0.058,0.399-0.278,0.898-1.002,1c-4.057,0.572-6.89,3.831-6.89,7.927
			s2.833,7.354,6.886,7.924c0.724,0.102,0.944,0.599,1.002,1s-0.014,0.939-0.679,1.242c-3.731,1.69-5.53,5.617-4.376,9.545
			c1.154,3.929,4.792,6.26,8.842,5.664c0.727-0.109,1.077,0.309,1.244,0.676c0.167,0.367,0.251,0.906-0.304,1.384
			c-3.104,2.674-3.724,6.946-1.509,10.394c2.217,3.446,6.361,4.656,10.08,2.944c0.664-0.311,1.12-0.007,1.386,0.299
			c0.263,0.305,0.495,0.799,0.097,1.411c-2.224,3.441-1.615,7.716,1.481,10.399c3.094,2.681,7.414,2.674,10.501-0.017
			c0.555-0.48,1.073-0.321,1.411-0.104c0.341,0.219,0.701,0.626,0.493,1.328c-1.166,3.927,0.623,7.857,4.349,9.559
			c3.726,1.7,7.868,0.478,10.073-2.973c0.393-0.616,0.935-0.611,1.324-0.497c0.387,0.114,0.848,0.403,0.846,1.135
			c-0.012,4.096,2.813,7.363,6.866,7.946c4.058,0.592,7.685-1.756,8.827-5.69c0.205-0.703,0.729-0.85,1.132-0.85
			c0.403,0,0.927,0.147,1.131,0.85c1.026,3.533,4.058,5.779,7.602,5.779c0.403,0,0.812-0.027,1.222-0.085
			c4.055-0.584,6.878-3.85,6.866-7.946c-0.003-0.732,0.459-1.021,0.847-1.135c0.387-0.106,0.93-0.121,1.324,0.498
			c2.205,3.451,6.345,4.671,10.073,2.971c3.726-1.703,5.514-5.632,4.349-9.561c-0.208-0.7,0.154-1.108,0.493-1.326
			c0.341-0.217,0.86-0.374,1.411,0.104c3.087,2.69,7.405,2.695,10.501,0.017c3.096-2.683,3.705-6.958,1.48-10.399
			c-0.396-0.613-0.164-1.106,0.099-1.411c0.266-0.305,0.722-0.604,1.384-0.3c3.721,1.715,7.866,0.503,10.081-2.942
			c2.215-3.447,1.596-7.721-1.509-10.395c-0.553-0.478-0.469-1.015-0.302-1.382c0.167-0.365,0.515-0.782,1.244-0.676
			c4.048,0.592,7.689-1.732,8.842-5.664c1.154-3.929-0.645-7.856-4.376-9.545c-0.666-0.304-0.737-0.843-0.679-1.242
			C163.762,110.148,163.982,109.65,164.705,109.547z M161.565,118.009c0.618,0.282,0.835,0.753,0.643,1.405
			c-0.193,0.654-0.635,0.92-1.302,0.835c-3.557-0.532-6.95,1.324-8.443,4.594c-1.493,3.27-0.667,7.043,2.057,9.388
			c0.514,0.444,0.589,0.959,0.222,1.531c-0.367,0.572-0.864,0.72-1.485,0.432c-3.267-1.5-7.042-0.684-9.397,2.033
			c-2.352,2.717-2.623,6.567-0.671,9.586c0.37,0.572,0.297,1.085-0.217,1.531c-0.514,0.444-1.034,0.444-1.546-0.003
			c-2.71-2.362-6.562-2.642-9.588-0.698c-3.024,1.942-4.367,5.564-3.345,9.01c0.193,0.654-0.022,1.126-0.64,1.408
			c-0.618,0.283-1.116,0.135-1.483-0.437c-1.934-3.029-5.552-4.388-9.001-3.374c-3.451,1.014-5.762,4.111-5.751,7.706
			c0.002,0.679-0.338,1.073-1.01,1.171c-0.674,0.09-1.111-0.186-1.3-0.84c-1.002-3.453-4.093-5.77-7.687-5.77
			s-6.685,2.318-7.687,5.767c-0.191,0.654-0.625,0.935-1.3,0.84c-0.672-0.097-1.012-0.493-1.01-1.171
			c0.009-3.596-2.302-6.692-5.751-7.706c-3.451-1.012-7.067,0.346-9.001,3.372c-0.365,0.573-0.869,0.722-1.483,0.439
			c-0.618-0.282-0.833-0.754-0.64-1.406c1.024-3.446-0.321-7.067-3.345-9.011c-3.026-1.944-6.88-1.664-9.588,0.698
			c-0.514,0.447-1.033,0.447-1.546,0.003c-0.514-0.444-0.587-0.959-0.218-1.531c1.952-3.017,1.681-6.869-0.671-9.586
			c-2.355-2.715-6.127-3.533-9.399-2.031c-0.618,0.283-1.116,0.137-1.483-0.434c-0.367-0.57-0.292-1.085,0.222-1.529
			c2.726-2.347,3.552-6.12,2.058-9.39c-1.493-3.27-4.888-5.127-8.443-4.594c-0.671,0.085-1.111-0.181-1.302-0.835
			c-0.193-0.652,0.024-1.123,0.643-1.405c3.275-1.485,5.132-4.871,4.62-8.429c-0.512-3.558-3.248-6.287-6.808-6.789
			c-0.672-0.096-1.014-0.486-1.014-1.167s0.341-1.072,1.016-1.167c3.558-0.502,6.296-3.231,6.806-6.789
			c0.51-3.558-1.347-6.944-4.62-8.429c-0.618-0.282-0.835-0.753-0.643-1.405c0.191-0.654,0.631-0.925,1.302-0.835
			c3.557,0.531,6.95-1.324,8.443-4.594c1.493-3.27,0.667-7.043-2.057-9.388c-0.514-0.444-0.589-0.959-0.222-1.531
			c0.367-0.57,0.867-0.717,1.485-0.432c3.267,1.505,7.043,0.686,9.397-2.033c2.352-2.717,2.623-6.567,0.671-9.586
			c-0.37-0.572-0.297-1.085,0.217-1.531s1.034-0.442,1.546,0.003c2.712,2.362,6.562,2.644,9.588,0.698
			c3.024-1.942,4.367-5.564,3.345-9.01c-0.193-0.654,0.022-1.126,0.64-1.408c0.614-0.283,1.116-0.137,1.483,0.437
			c1.934,3.029,5.55,4.384,9.001,3.374c3.451-1.014,5.762-4.111,5.751-7.706c-0.002-0.679,0.338-1.073,1.01-1.171
			c0.669-0.09,1.111,0.186,1.3,0.84c1.002,3.453,4.091,5.77,7.687,5.77s6.685-2.319,7.687-5.77c0.191-0.654,0.631-0.925,1.3-0.84
			c0.672,0.097,1.012,0.493,1.01,1.171c-0.009,3.596,2.302,6.692,5.751,7.706c3.449,1.009,7.067-0.346,9.001-3.372
			c0.363-0.575,0.865-0.722,1.483-0.439c0.618,0.282,0.833,0.754,0.64,1.406c-1.024,3.446,0.321,7.067,3.345,9.011
			c3.028,1.946,6.88,1.664,9.588-0.698c0.514-0.445,1.033-0.449,1.546-0.003c0.514,0.444,0.587,0.959,0.219,1.531
			c-1.952,3.017-1.681,6.869,0.671,9.586c2.355,2.717,6.13,3.534,9.399,2.031c0.618-0.283,1.116-0.137,1.483,0.433
			s0.292,1.085-0.222,1.529c-2.726,2.347-3.552,6.12-2.058,9.39c1.492,3.27,4.884,5.123,8.443,4.594
			c0.667-0.091,1.111,0.181,1.302,0.835c0.193,0.652-0.024,1.123-0.643,1.405c-3.275,1.485-5.132,4.871-4.62,8.429
			c0.512,3.558,3.248,6.287,6.808,6.789c0.672,0.096,1.014,0.488,1.014,1.167s-0.341,1.072-1.015,1.171
			c-3.558,0.502-6.296,3.231-6.806,6.789C156.435,113.138,158.292,116.524,161.565,118.009z"/>
	</g>
</g>
<g>
	<g>
		<path d="M122.15,66.266c-1.615-0.969-3.714-0.445-4.683,1.171l-40.96,68.267c-0.969,1.616-0.445,3.714,1.171,4.683
			c0.55,0.329,1.155,0.486,1.753,0.486c1.161,0,2.29-0.591,2.93-1.657l40.96-68.267C124.29,69.333,123.766,67.235,122.15,66.266z"/>
	</g>
</g>
<g>
	<g>
		<path d="M81.14,62.366c-6.588,0-11.947,5.361-11.947,11.947c0,6.586,5.359,11.947,11.947,11.947
			c6.588,0,11.947-5.361,11.947-11.947C93.087,67.727,87.728,62.366,81.14,62.366z M81.14,79.433c-2.823,0-5.12-2.297-5.12-5.12
			c0-2.823,2.297-5.12,5.12-5.12c2.823,0,5.12,2.297,5.12,5.12C86.26,77.136,83.963,79.433,81.14,79.433z"/>
	</g>
</g>
<g>
	<g>
		<path d="M122.1,113.566c-6.588,0-11.947,5.361-11.947,11.947c0,6.586,5.359,11.947,11.947,11.947
			c6.588,0,11.947-5.361,11.947-11.947C134.047,118.927,128.688,113.566,122.1,113.566z M122.1,130.633
			c-2.823,0-5.12-2.297-5.12-5.12c0-2.823,2.297-5.12,5.12-5.12c2.823,0,5.12,2.297,5.12,5.12
			C127.22,128.336,124.923,130.633,122.1,130.633z"/>
	</g>
</g>
<g>
</g>
<g>
</g>
<g>
</g>
<g>
</g>
<g>
</g>
<g>
</g>
<g>
</g>
<g>
</g>
<g>
</g>
<g>
</g>
<g>
</g>
<g>
</g>
<g>
</g>
<g>
</g>
<g>
</g>
</svg>
