<?xml version="1.0" encoding="iso-8859-1"?>
<!-- Generator: Adobe Illustrator 19.0.0, SVG Export Plug-In . SVG Version: 6.00 Build 0)  -->
<svg version="1.1" id="Capa_1" xmlns="http://www.w3.org/2000/svg" xmlns:xlink="http://www.w3.org/1999/xlink" x="0px" y="0px"
	 viewBox="0 0 201.387 201.387" style="enable-background:new 0 0 201.387 201.387;" xml:space="preserve">
<g>
	<g>
		<path d="M184.829,15.36H16.558C7.429,15.36,0,22.787,0,31.918V128h201.387V31.918C201.387,22.789,193.959,15.36,184.829,15.36z
			 M194.56,121.173H6.827V31.918c0-5.366,4.364-9.731,9.731-9.731h168.271c5.366,0,9.731,4.364,9.731,9.731V121.173z"/>
	</g>
</g>
<g>
	<g>
		<path d="M197.973,121.173H3.413c-1.884,0-3.413,1.529-3.413,3.413v17.575c0,9.129,7.427,16.558,16.558,16.558h168.271
			c9.129,0,16.558-7.429,16.558-16.558v-17.575C201.387,122.703,199.858,121.173,197.973,121.173z M194.56,142.162
			c0,5.366-4.364,9.731-9.731,9.731H16.558c-5.366,0-9.731-4.364-9.731-9.731V128H194.56V142.162z"/>
	</g>
</g>
<g>
	<g>
		<path d="M100.693,131.413c-4.705,0-8.533,3.828-8.533,8.533c0,4.705,3.828,8.533,8.533,8.533c4.705,0,8.533-3.828,8.533-8.533
			C109.227,135.241,105.399,131.413,100.693,131.413z M100.693,141.653c-0.942,0-1.707-0.765-1.707-1.707s0.765-1.707,1.707-1.707
			s1.707,0.765,1.707,1.707S101.635,141.653,100.693,141.653z"/>
	</g>
</g>
<g>
	<g>
		<path d="M132.61,180.821l-16.867-27.307c-0.621-1.007-1.72-1.62-2.903-1.62H88.547c-1.183,0-2.282,0.613-2.903,1.62
			l-16.867,27.307c-0.652,1.053-0.681,2.374-0.079,3.456c0.602,1.079,1.742,1.749,2.982,1.749h58.027
			c1.239,0,2.379-0.671,2.982-1.749C133.289,183.197,133.262,181.874,132.61,180.821z M77.8,179.2l12.65-20.48h20.487l12.65,20.48
			H77.8z"/>
	</g>
</g>
<g>
	<g>
		<path d="M75.344,87.895c-0.329-1.533-0.923-2.836-1.78-3.9c-0.853-1.063-1.877-1.959-3.063-2.697
			c-1.19-0.732-2.487-1.34-3.9-1.823c-1.411-0.483-2.84-0.913-4.294-1.287c-1.452-0.377-2.869-0.741-4.253-1.094
			c-1.381-0.352-2.64-0.765-3.773-1.244c-1.133-0.474-2.087-1.055-2.854-1.731c-0.773-0.676-1.27-1.526-1.49-2.55
			c-0.13-0.604-0.094-1.251,0.099-1.942c0.201-0.695,0.591-1.364,1.174-2.017c0.579-0.654,1.353-1.251,2.316-1.787
			c0.963-0.539,2.144-0.963,3.536-1.263c1.26-0.27,2.441-0.42,3.543-0.447c1.101-0.029,2.07,0.077,2.913,0.317
			c0.838,0.242,1.536,0.613,2.094,1.116s0.917,1.154,1.091,1.944c0.109,0.51,0.126,1.084,0.053,1.724
			c-0.077,0.64-0.251,1.35-0.527,2.12c-0.3,0.807-0.486,1.51-0.553,2.097c-0.073,0.591-0.06,1.091,0.027,1.49
			c0.116,0.546,0.35,0.92,0.703,1.126c0.353,0.206,0.761,0.261,1.227,0.16c0.62-0.133,1.263-0.521,1.93-1.161
			c0.667-0.637,1.217-1.517,1.661-2.633c0.445-1.15,0.725-2.224,0.826-3.22c0.101-1,0.056-1.932-0.133-2.819
			c-0.319-1.487-0.98-2.77-1.983-3.833c-1.004-1.067-2.203-1.906-3.599-2.533c-1.405-0.625-2.924-1.01-4.574-1.157
			c-1.647-0.147-3.277-0.046-4.89,0.3c-2.536,0.548-4.687,1.336-6.439,2.364c-1.756,1.029-3.157,2.179-4.2,3.453
			c-1.05,1.278-1.749,2.615-2.103,4.018c-0.353,1.396-0.389,2.749-0.109,4.057c0.304,1.393,0.87,2.574,1.7,3.54
			c0.831,0.964,1.833,1.78,3.007,2.454c1.171,0.671,2.461,1.244,3.874,1.71c1.413,0.463,2.843,0.889,4.287,1.273
			c1.447,0.387,2.867,0.77,4.267,1.15c1.393,0.381,2.666,0.829,3.806,1.353c1.147,0.526,2.106,1.159,2.893,1.9
			c0.783,0.736,1.295,1.655,1.533,2.756c0.256,1.193,0.148,2.323-0.317,3.389c-0.469,1.067-1.169,2.033-2.103,2.893
			c-0.934,0.867-2.036,1.615-3.316,2.227c-1.28,0.616-2.594,1.07-3.944,1.364c-1.143,0.246-2.277,0.36-3.4,0.336
			c-1.12-0.017-2.144-0.191-3.074-0.527c-0.934-0.338-1.729-0.845-2.393-1.527c-0.667-0.688-1.116-1.57-1.353-2.657
			c-0.106-0.493-0.172-0.959-0.203-1.389c-0.029-0.433-0.053-0.833-0.056-1.193c-0.01-0.367-0.017-0.7-0.021-1.007
			c-0.003-0.307-0.034-0.594-0.09-0.857c-0.123-0.573-0.382-0.961-0.773-1.161c-0.393-0.196-0.84-0.242-1.333-0.137
			c-0.483,0.104-0.973,0.341-1.476,0.717s-0.937,0.869-1.3,1.473c-0.367,0.608-0.626,1.321-0.78,2.14
			c-0.16,0.824-0.126,1.731,0.087,2.72c0.415,1.923,1.207,3.511,2.377,4.756c1.171,1.249,2.57,2.2,4.203,2.847
			c1.633,0.643,3.413,1.007,5.347,1.087c1.932,0.077,3.866-0.094,5.806-0.51c1.379-0.295,2.726-0.713,4.04-1.249
			c1.312-0.532,2.54-1.166,3.68-1.896c1.14-0.734,2.168-1.574,3.084-2.517c0.916-0.944,1.666-1.963,2.249-3.063
			c0.58-1.103,0.974-2.284,1.171-3.55C75.694,90.622,75.645,89.291,75.344,87.895z"/>
	</g>
</g>
<g>
	<g>
		<path d="M103.509,80.556c-0.55,1.208-1.116,2.314-1.696,3.308c-0.251,0.427-0.524,0.84-0.814,1.249
			c-0.294,0.413-0.596,0.783-0.903,1.126c-0.307,0.336-0.623,0.63-0.944,0.867c-0.323,0.237-0.65,0.391-0.973,0.461
			c-0.434,0.094-0.76-0.043-0.976-0.416c-0.22-0.374-0.406-0.913-0.56-1.623c-0.176-0.835-0.273-1.884-0.276-3.151
			c-0.007-1.273-0.01-2.4-0.014-3.389s-0.031-1.959-0.067-2.896c-0.041-0.937-0.14-1.777-0.3-2.517
			c-0.104-0.483-0.23-0.86-0.377-1.126c-0.147-0.259-0.311-0.451-0.5-0.577c-0.189-0.123-0.393-0.189-0.606-0.186
			c-0.21-0.007-0.437,0.017-0.671,0.067c-0.171,0.036-0.345,0.077-0.524,0.126c-0.181,0.046-0.353,0.087-0.524,0.123
			c-0.203,0.044-0.403,0.077-0.606,0.094c-0.198,0.019-0.401,0.012-0.604-0.031c-0.206-0.036-0.386-0.126-0.55-0.273
			c-0.164-0.147-0.329-0.294-0.5-0.444c-0.172-0.157-0.372-0.28-0.606-0.377c-0.232-0.094-0.529-0.108-0.889-0.031
			c-1.077,0.234-2.084,0.691-3.021,1.37c-0.94,0.679-1.797,1.504-2.567,2.48c-0.766,0.976-1.437,2.063-2,3.27
			c-0.567,1.203-1.039,2.596-1.417,4.163c-0.381,1.567-0.604,3-0.667,4.291c-0.067,1.29,0.031,2.516,0.28,3.676
			c0.224,1.033,0.584,1.918,1.087,2.673c0.503,0.754,1.082,1.353,1.753,1.811c0.664,0.452,1.384,0.756,2.157,0.91
			c0.77,0.154,1.526,0.147,2.273-0.014c0.7-0.15,1.379-0.416,2.033-0.797c0.654-0.382,1.266-0.823,1.84-1.323
			c0.57-0.5,1.079-1.034,1.529-1.597c0.452-0.563,0.819-1.103,1.102-1.609c0.766,1.133,1.567,1.952,2.396,2.456
			c0.828,0.507,1.756,0.65,2.787,0.427c0.853-0.183,1.661-0.58,2.423-1.186c0.759-0.608,1.447-1.297,2.06-2.07
			c0.614-0.77,1.143-1.563,1.597-2.364c0.449-0.804,0.8-1.493,1.05-2.074L103.509,80.556z M90.458,85.181
			c-0.049,0.794-0.171,1.577-0.36,2.357c-0.189,0.777-0.466,1.463-0.823,2.06c-0.36,0.604-0.826,0.968-1.399,1.091
			c-0.357,0.08-0.674,0.046-0.944-0.084c-0.273-0.138-0.514-0.333-0.717-0.601c-0.203-0.268-0.37-0.584-0.51-0.944
			c-0.133-0.37-0.246-0.751-0.333-1.147c-0.143-0.681-0.21-1.423-0.198-2.222c0.01-0.811,0.126-1.768,0.34-2.877
			c0.217-1.106,0.476-2.057,0.777-2.843c0.3-0.79,0.66-1.51,1.08-2.161c0.416-0.66,0.894-1.21,1.434-1.654
			c0.536-0.444,1.12-0.734,1.76-0.87l-0.106,7.933C90.504,83.731,90.504,84.388,90.458,85.181z"/>
	</g>
</g>
<g>
	<g>
		<path d="M117.798,78.474c-0.911,1.096-1.797,2.082-2.654,2.953c-0.367,0.372-0.754,0.746-1.157,1.12
			c-0.399,0.377-0.795,0.717-1.186,1.017c-0.393,0.307-0.766,0.567-1.13,0.773c-0.364,0.207-0.693,0.35-0.997,0.413
			c-0.125,0.027-0.276-0.036-0.454-0.183c-0.179-0.15-0.367-0.367-0.553-0.64c-0.193-0.28-0.372-0.606-0.539-0.966
			c-0.167-0.367-0.297-0.754-0.384-1.161l-0.07-0.329c-0.02-0.321-0.027-0.657-0.02-1c0.007-0.343,0.02-0.669,0.034-0.976
			c0.014-0.307,0.036-0.594,0.07-0.86c0.029-0.271,0.07-0.493,0.113-0.667c0.41-1.56,0.882-3.166,1.41-4.823
			c0.531-1.657,1.05-3.337,1.563-5.036c0.507-1.703,0.983-3.406,1.427-5.12c0.442-1.71,0.79-3.398,1.046-5.06
			c0.256-1.662,0.393-3.292,0.416-4.886c0.015-1.596-0.133-3.127-0.447-4.593c-0.126-0.591-0.305-1.157-0.539-1.703
			c-0.229-0.546-0.526-1.017-0.893-1.41c-0.364-0.389-0.809-0.672-1.333-0.843c-0.527-0.174-1.154-0.184-1.87-0.027
			c-0.988,0.21-1.898,0.703-2.731,1.473c-0.833,0.773-1.582,1.744-2.246,2.927c-0.662,1.179-1.253,2.519-1.763,4.023
			c-0.51,1.504-0.944,3.098-1.294,4.777c-0.35,1.676-0.594,3.86-0.724,6.547c-0.13,2.683-0.193,4.026-0.193,4.026
			s0.049,1.316,0.15,3.953c0.101,2.64,0.314,4.716,0.643,6.236c0.379,1.773,0.893,3.434,1.543,4.977
			c0.649,1.546,1.369,2.874,2.169,3.977c0.794,1.111,1.63,1.947,2.507,2.517c0.874,0.57,1.727,0.766,2.563,0.587
			c0.544-0.118,1.111-0.311,1.705-0.587c0.594-0.273,1.19-0.602,1.794-0.98c0.604-0.377,1.196-0.787,1.78-1.227
			c0.578-0.442,1.14-0.879,1.679-1.323c1.232-1.034,2.456-2.181,3.673-3.43L117.798,78.474z M107.639,67.337
			c-0.445,1.731-0.886,3.297-1.319,4.704c-0.259-1.606-0.41-3.507-0.449-5.697c-0.032-2.193-0.053-3.29-0.053-3.29
			s0.101-1.21,0.294-3.62c0.196-2.413,0.433-4.174,0.707-5.287c0.273-1.111,0.592-2.017,0.959-2.714
			c0.367-0.693,0.759-1.085,1.186-1.179c0.121-0.026,0.224,0.12,0.317,0.44c0.09,0.314,0.183,0.696,0.28,1.15
			c0.171,1.456,0.174,3.063,0.017,4.823c-0.159,1.761-0.41,3.543-0.753,5.354C108.486,63.829,108.09,65.603,107.639,67.337z"/>
	</g>
</g>
<g>
	<g>
		<path d="M134.42,74.042c-0.483,0.707-1.085,1.478-1.816,2.307c-0.73,0.829-1.524,1.626-2.381,2.383
			c-0.86,0.758-1.766,1.43-2.72,2.014c-0.952,0.585-1.893,0.98-2.823,1.179c-0.297,0.063-0.58,0.097-0.85,0.09
			c-0.271-0.01-0.541-0.06-0.807-0.164c-0.266-0.099-0.539-0.259-0.823-0.483c-0.287-0.227-0.589-0.521-0.91-0.881
			c1.273-0.654,2.42-1.43,3.437-2.333c1.017-0.901,1.857-1.86,2.514-2.874c0.661-1.017,1.176-2.179,1.557-3.48
			c0.375-1.304,0.466-2.427,0.263-3.367c-0.189-0.881-0.517-1.647-0.983-2.29c-0.463-0.647-1.026-1.162-1.683-1.546
			c-0.664-0.382-1.393-0.637-2.2-0.753c-0.804-0.119-1.643-0.085-2.51,0.104c-1.067,0.227-1.993,0.626-2.787,1.186
			c-0.788,0.568-1.466,1.241-2.029,2.027c-0.567,0.783-1.024,1.649-1.367,2.599c-0.345,0.947-0.591,1.917-0.741,2.906
			c-0.148,0.997-0.256,2.123-0.326,3.379c-0.07,1.256-0.005,2.309,0.177,3.169c0.283,1.311,0.734,2.521,1.353,3.637
			c0.618,1.108,1.388,2.043,2.307,2.797c0.92,0.754,1.98,1.277,3.18,1.58c1.207,0.304,2.529,0.3,3.977-0.014
			c0.934-0.201,1.826-0.51,2.688-0.915c0.86-0.413,1.674-0.894,2.444-1.43c0.768-0.543,1.483-1.126,2.154-1.756
			c0.667-0.632,1.283-1.254,1.847-1.877c1.292-1.447,2.466-3.052,3.519-4.794L134.42,74.042z M119.723,75.587
			c-0.07-0.48-0.058-1.102,0.043-1.889c0.101-0.78,0.193-1.444,0.283-1.98c0.09-0.529,0.249-1.026,0.483-1.487
			c0.241-0.449,0.567-0.853,0.99-1.196c0.423-0.346,0.969-0.591,1.637-0.737c0.374-0.078,0.737,0.073,1.091,0.457
			c0.35,0.387,0.602,0.922,0.749,1.601c0.104,0.488-0.039,1.161-0.423,2.017c-0.384,0.86-0.814,1.574-1.287,2.137
			c-0.473,0.563-1.009,1.056-1.609,1.48c-0.602,0.425-1.183,0.698-1.742,0.818C119.866,76.471,119.793,76.066,119.723,75.587z"/>
	</g>
</g>
<g>
	<g>
		<path d="M155.397,69.999c-0.626,0.727-1.26,1.367-1.913,1.92c-0.65,0.563-1.287,1.08-1.917,1.56
			c-0.625,0.483-1.231,0.939-1.807,1.386c-0.577,0.444-1.104,0.917-1.58,1.41c-0.217-1.004-0.391-2.007-0.517-3.011
			c-0.126-1.005-0.309-1.784-0.546-2.319c-0.239-0.539-0.466-1.014-0.686-1.413c-0.22-0.403-0.434-0.783-0.633-1.143
			c-0.2-0.36-0.379-0.729-0.539-1.113c-0.154-0.391-0.287-0.821-0.391-1.307c0.01-0.183,0.137-0.483,0.377-0.91
			c0.239-0.418,0.497-0.881,0.759-1.381c0.266-0.5,0.497-1.007,0.693-1.527c0.201-0.514,0.254-0.966,0.174-1.34
			c-0.039-0.191-0.099-0.411-0.189-0.66c-0.087-0.258-0.246-0.478-0.483-0.671c-0.241-0.2-0.577-0.333-1.014-0.41
			c-0.44-0.08-1.033-0.038-1.777,0.126c-0.449,0.097-0.843,0.247-1.179,0.461c-0.333,0.21-0.63,0.457-0.889,0.734
			c-0.254,0.276-0.478,0.575-0.671,0.896c-0.189,0.319-0.357,0.64-0.497,0.963c-0.722,1.466-1.302,2.693-1.742,3.663
			c-0.44,0.973-0.812,1.795-1.123,2.47c-0.307,0.672-0.577,1.253-0.804,1.746c-0.224,0.493-0.541,1.133-0.937,1.917
			c-0.399,0.78-0.816,1.48-1.249,2.099c-0.437,0.62-1.007,1.399-1.714,2.336c-0.099,0.138-0.256,0.328-0.459,0.577
			c-0.212,0.241-0.411,0.514-0.604,0.818c-0.193,0.307-0.353,0.637-0.466,0.997c-0.116,0.362-0.133,0.732-0.053,1.106
			c0.091,0.423,0.207,0.741,0.35,0.951c0.143,0.207,0.302,0.343,0.476,0.41c0.177,0.07,0.377,0.091,0.597,0.056
			c0.224-0.029,0.456-0.07,0.703-0.123c0.2-0.044,0.406-0.097,0.609-0.16c0.21-0.056,0.416-0.137,0.62-0.23
			c0.249,0.783,0.623,1.417,1.116,1.9c0.493,0.486,1.075,0.836,1.749,1.056c0.669,0.22,1.42,0.324,2.246,0.318
			c0.826-0.007,1.696-0.111,2.613-0.307c1.271-0.273,2.587-0.7,3.944-1.283c1.36-0.584,2.686-1.266,3.977-2.043
			c1.29-0.78,2.504-1.618,3.63-2.521c1.126-0.899,2.096-1.816,2.903-2.739L155.397,69.999z M142.589,78.669
			c-0.16,0.391-0.416,0.727-0.77,1.017c-0.346,0.287-0.828,0.5-1.434,0.63c-0.493,0.108-0.963,0.084-1.403-0.067
			c-0.437-0.15-0.833-0.336-1.19-0.556c-0.353-0.218-0.671-0.42-0.947-0.609c-0.273-0.186-0.507-0.259-0.693-0.22l4.985-8.161
			c0.131,0.234,0.287,0.517,0.461,0.85c0.181,0.326,0.304,0.826,0.374,1.49c0.073,0.667,0.179,1.213,0.326,1.644
			c0.15,0.427,0.27,0.85,0.363,1.273c0.104,0.486,0.157,0.964,0.16,1.43C142.826,77.851,142.746,78.285,142.589,78.669z"/>
	</g>
</g>
<g>
	<g>
		<path d="M44.206,38.199c-0.456-1.406-1.768-2.359-3.246-2.359h-6.748l-2.086-6.419c-0.456-1.406-1.768-2.359-3.246-2.359
			s-2.789,0.954-3.246,2.359L23.55,35.84h-6.748c-1.478,0-2.792,0.952-3.248,2.359c-0.456,1.406,0.044,2.946,1.241,3.816
			l5.458,3.965l-2.086,6.419c-0.456,1.406,0.043,2.946,1.241,3.816c1.198,0.87,2.818,0.87,4.014,0l5.458-3.966l5.46,3.966
			c0.599,0.435,1.304,0.652,2.007,0.652c0.703,0,1.408-0.217,2.005-0.652c1.198-0.869,1.698-2.41,1.241-3.816l-2.086-6.419
			l5.458-3.965C44.163,41.146,44.662,39.605,44.206,38.199z M30.085,44.838c-0.387-0.147-0.797-0.22-1.205-0.22
			s-0.818,0.073-1.203,0.218c0.038-0.828-0.227-1.644-0.744-2.29c0.799-0.219,1.492-0.724,1.947-1.413
			c0.457,0.69,1.15,1.195,1.949,1.413C30.312,43.194,30.048,44.01,30.085,44.838z"/>
	</g>
</g>
<g>
	<g>
		<path d="M183.32,81.213c-1.333-1.333-3.494-1.333-4.826,0l-29.013,29.013c-1.333,1.333-1.333,3.494,0,4.826
			c0.667,0.667,1.539,1,2.413,1s1.746-0.333,2.413-1L183.32,86.04C184.653,84.707,184.653,82.546,183.32,81.213z"/>
	</g>
</g>
<g>
	<g>
		<path d="M186.733,98.28c-1.333-1.333-3.494-1.333-4.826,0l-10.24,10.24c-1.333,1.333-1.333,3.494,0,4.826
			c0.667,0.667,1.539,1,2.413,1c0.874,0,1.746-0.333,2.413-1l10.24-10.24C188.066,101.774,188.066,99.613,186.733,98.28z"/>
	</g>
</g>
<g>
	<g>
		<path d="M153.6,179.2H51.2c-1.884,0-3.413,1.529-3.413,3.413c0,1.884,1.529,3.413,3.413,3.413h102.4
			c1.884,0,3.413-1.529,3.413-3.413C157.013,180.729,155.484,179.2,153.6,179.2z"/>
	</g>
</g>
<g>
</g>
<g>
</g>
<g>
</g>
<g>
</g>
<g>
</g>
<g>
</g>
<g>
</g>
<g>
</g>
<g>
</g>
<g>
</g>
<g>
</g>
<g>
</g>
<g>
</g>
<g>
</g>
<g>
</g>
</svg>
