<?xml version="1.0" encoding="iso-8859-1"?>
<!-- Generator: Adobe Illustrator 19.0.0, SVG Export Plug-In . SVG Version: 6.00 Build 0)  -->
<svg version="1.1" id="Capa_1" xmlns="http://www.w3.org/2000/svg" xmlns:xlink="http://www.w3.org/1999/xlink" x="0px" y="0px"
	 viewBox="0 0 191.147 191.147" style="enable-background:new 0 0 191.147 191.147;" xml:space="preserve">
<g>
	<g>
		<path d="M188.817,74.626l-0.242-1.075L107.348,1.348l-0.824-0.732l-1.096-0.111C102.158,0.171,98.843,0,95.573,0
			C42.873,0,0,42.873,0,95.573s42.873,95.573,95.573,95.573s95.573-42.873,95.573-95.573
			C191.147,88.586,190.363,81.538,188.817,74.626z M95.573,184.32c-48.935,0-88.747-39.811-88.747-88.747S46.638,6.827,95.573,6.827
			c2.676,0,5.386,0.121,8.071,0.365l78.742,69.99c1.283,6.083,1.934,12.264,1.934,18.391
			C184.32,144.509,144.509,184.32,95.573,184.32z"/>
	</g>
</g>
<g>
	<g>
		<path d="M64.445,78.152c-1.746-2.371-4.043-4.494-6.893-6.364c-2.123-1.398-4.183-2.237-6.163-2.521
			c-1.987-0.283-3.76-0.077-5.33,0.62c-1.567,0.693-2.836,1.78-3.809,3.253c-1.106,1.686-1.522,3.34-1.253,4.963
			s0.884,3.113,1.85,4.466c0.961,1.357,2.314,2.997,4.057,4.924c1.307,1.449,2.294,2.606,2.951,3.466
			c0.661,0.86,1.109,1.741,1.353,2.64c0.244,0.905,0.108,1.741-0.403,2.521c-1.959,2.976-5.204,2.976-9.737,0
			c-2.72-1.787-4.924-3.994-6.607-6.624c-0.171-0.256-0.384-0.469-0.643-0.643C33.36,88.55,32.87,88.46,32.36,88.59
			c-0.514,0.126-0.913,0.41-1.203,0.85c-0.224,0.338-0.324,0.727-0.314,1.161c0.01,0.433,0.13,0.817,0.357,1.15
			c2.057,3.13,4.734,5.779,8.018,7.946c1.971,1.294,3.917,2.108,5.85,2.447c1.923,0.341,3.683,0.207,5.27-0.403
			c1.586-0.608,2.855-1.637,3.809-3.087c1.157-1.765,1.63-3.458,1.413-5.081c-0.21-1.623-0.783-3.094-1.717-4.41
			c-0.934-1.319-2.263-2.896-3.987-4.733c-1.343-1.403-2.367-2.567-3.07-3.494c-0.71-0.93-1.176-1.884-1.399-2.867
			c-0.227-0.985-0.032-1.94,0.58-2.874c0.92-1.399,2.273-2.067,4.067-2c1.797,0.063,3.71,0.766,5.76,2.113
			c2.15,1.413,4.007,3.132,5.567,5.159c0.195,0.273,0.367,0.459,0.521,0.563c0.469,0.307,0.952,0.384,1.459,0.237
			c0.507-0.154,0.898-0.433,1.167-0.85C65.022,79.642,64.998,78.889,64.445,78.152z"/>
	</g>
</g>
<g>
	<g>
		<path d="M84.825,90.619c-0.177-0.546-0.541-0.997-1.087-1.353l-0.387-0.256c-0.543-0.357-1.102-0.51-1.673-0.457
			c-0.573,0.049-1.116,0.241-1.626,0.57L54.769,106.01c-0.333,0.227-0.567,0.444-0.703,0.65c-0.323,0.493-0.434,1.014-0.329,1.563
			c0.104,0.549,0.411,0.993,0.928,1.331c0.36,0.241,0.756,0.36,1.183,0.36c0.423,0.003,0.826-0.116,1.203-0.35l6.509-4.403
			l13.213,8.68l-1.457,7.723c-0.063,0.44-0.014,0.853,0.157,1.244s0.437,0.707,0.797,0.944c0.521,0.34,1.055,0.449,1.597,0.323
			c0.548-0.123,0.981-0.43,1.304-0.923c0.138-0.206,0.241-0.51,0.317-0.906l5.46-29.906C85.045,91.735,85.004,91.162,84.825,90.619z
			 M77.532,109.727l-10.493-6.893l13.546-9.187L77.532,109.727z"/>
	</g>
</g>
<g>
	<g>
		<path d="M104.48,103.641c-0.116-0.58-0.423-1.031-0.917-1.353c-0.493-0.328-1.024-0.42-1.587-0.294
			c-0.567,0.13-1.014,0.44-1.336,0.93L85.473,126.01c-0.44,0.676-0.58,1.41-0.42,2.203c0.167,0.794,0.587,1.413,1.258,1.855
			l13.8,9.066c0.492,0.319,1.021,0.43,1.594,0.326c0.573-0.106,1.017-0.41,1.34-0.903c0.324-0.49,0.427-1.026,0.307-1.606
			c-0.123-0.58-0.427-1.031-0.916-1.353l-12.71-8.351l14.45-21.997C104.501,104.757,104.603,104.221,104.48,103.641z"/>
	</g>
</g>
<g>
	<g>
		<path d="M142.275,128.686c-0.114-0.536-0.401-0.956-0.867-1.263l-15.587-10.237c-0.493-0.328-1.021-0.423-1.584-0.294
			c-0.57,0.126-1.017,0.44-1.34,0.93l-15.5,23.593c-0.324,0.49-0.423,1.017-0.307,1.577c0.113,0.556,0.416,0.997,0.913,1.316
			l15.587,10.24c0.466,0.307,0.961,0.411,1.493,0.314c0.526-0.101,0.939-0.384,1.246-0.85c0.307-0.464,0.406-0.968,0.297-1.504
			c-0.114-0.536-0.401-0.956-0.867-1.266l-13.797-9.061l5.666-8.627l12.397,8.141c0.466,0.307,0.963,0.411,1.493,0.314
			c0.529-0.099,0.945-0.379,1.253-0.846c0.307-0.468,0.403-0.968,0.29-1.504c-0.114-0.539-0.401-0.959-0.867-1.266l-12.397-8.142
			l5.644-8.586l13.797,9.061c0.466,0.307,0.963,0.411,1.493,0.314c0.526-0.099,0.942-0.379,1.249-0.846
			S142.384,129.222,142.275,128.686z"/>
	</g>
</g>
<g>
	<g>
		<path d="M148.661,82.278c-5.434,2.72-14.531,3.236-22.595-1.749c-6.125-3.785-13.425-11.945-13.425-29.331
			c0-34.159-3.372-48.039-3.516-48.614l-6.625,1.65c0.032,0.137,3.313,13.834,3.313,46.966c0,16.019,5.917,28.496,16.662,35.137
			c5.111,3.161,11.15,4.779,16.99,4.779c4.35,0,8.59-0.901,12.25-2.732c12.479-6.241,31.852-3.13,32.048-3.099l1.12-6.733
			C183.999,78.403,163.14,75.04,148.661,82.278z"/>
	</g>
</g>
<g>
</g>
<g>
</g>
<g>
</g>
<g>
</g>
<g>
</g>
<g>
</g>
<g>
</g>
<g>
</g>
<g>
</g>
<g>
</g>
<g>
</g>
<g>
</g>
<g>
</g>
<g>
</g>
<g>
</g>
</svg>
