<?xml version="1.0" encoding="iso-8859-1"?>
<!-- Generator: Adobe Illustrator 19.0.0, SVG Export Plug-In . SVG Version: 6.00 Build 0)  -->
<svg version="1.1" id="Capa_1" xmlns="http://www.w3.org/2000/svg" xmlns:xlink="http://www.w3.org/1999/xlink" x="0px" y="0px"
	 viewBox="0 0 197.973 197.973" style="enable-background:new 0 0 197.973 197.973;" xml:space="preserve">
<g>
	<g>
		<path d="M110.793,39.035c-4.454-1.843-6.349-3.176-6.349-5.837c0-2.05,1.485-4.403,5.427-4.403c3.277,0,5.376,1.128,6.451,1.741
			l1.28-3.379c-1.485-0.87-3.584-1.69-6.656-1.79V20.4h-3.173v5.169c-4.709,0.77-7.731,3.994-7.731,8.243
			c0,4.453,3.224,6.81,8.448,8.856c3.789,1.536,5.786,3.277,5.786,6.093c0,2.917-2.458,5.016-6.093,5.016
			c-2.866,0-5.528-0.973-7.371-2.2l-1.229,3.43c1.792,1.28,4.864,2.2,7.834,2.253v5.169v0.002h3.222v-5.323
			c5.274-0.874,8.09-4.661,8.09-8.707C118.729,43.844,116.067,41.185,110.793,39.035z"/>
	</g>
</g>
<g>
	<g>
		<path d="M134.226,124.034L44.923,34.731c-1.333-1.333-3.494-1.333-4.826,0C33.005,41.824,29.1,51.251,29.1,61.281
			s3.905,19.459,10.996,26.549l65.167,65.169c0.667,0.667,1.539,1,2.413,1c0.874,0,1.746-0.333,2.411-1.002
			c1.333-1.333,1.333-3.494,0-4.826L44.921,83.002c-5.801-5.803-8.996-13.517-8.996-21.722c0-7.055,2.364-13.751,6.716-19.178
			l86.758,86.758c1.333,1.333,3.494,1.333,4.826,0C135.559,127.527,135.559,125.367,134.226,124.034z"/>
	</g>
</g>
<g>
	<g>
		<path d="M58.027,41.815c-1.884,0-3.413,1.529-3.413,3.413v6.827c0,1.884,1.529,3.413,3.413,3.413s3.413-1.529,3.413-3.413v-6.827
			C61.44,43.344,59.911,41.815,58.027,41.815z"/>
	</g>
</g>
<g>
	<g>
		<path d="M58.027,18.488c-1.884,0-3.413,1.529-3.413,3.413v11.663c0,1.884,1.529,3.413,3.413,3.413s3.413-1.529,3.413-3.413V21.902
			C61.44,20.017,59.911,18.488,58.027,18.488z"/>
	</g>
</g>
<g>
	<g>
		<path d="M64.853,0h-6.827c-1.884,0-3.413,1.529-3.413,3.413v6.827c0,1.884,1.529,3.413,3.413,3.413s3.413-1.529,3.413-3.413V6.827
			h3.413c1.884,0,3.413-1.529,3.413-3.413S66.738,0,64.853,0z"/>
	</g>
</g>
<g>
	<g>
		<g>
			<path d="M89.883,0H77.368c-1.884,0-3.413,1.529-3.413,3.413s1.529,3.413,3.413,3.413h12.515c1.886,0,3.413-1.529,3.413-3.413
				S91.767,0,89.883,0z"/>
			<path d="M114.915,0H102.4c-1.884,0-3.413,1.529-3.413,3.413s1.529,3.413,3.413,3.413h12.515c1.886,0,3.413-1.529,3.413-3.413
				S116.799,0,114.915,0z"/>
			<path d="M139.947,0H127.43c-1.884,0-3.413,1.529-3.413,3.413s1.529,3.413,3.413,3.413h12.517c1.884,0,3.413-1.529,3.413-3.413
				S141.831,0,139.947,0z"/>
			<path d="M164.977,0h-12.515c-1.884,0-3.413,1.529-3.413,3.413s1.529,3.413,3.413,3.413h12.515c1.886,0,3.413-1.529,3.413-3.413
				S166.861,0,164.977,0z"/>
		</g>
	</g>
</g>
<g>
	<g>
		<path d="M184.32,0h-6.827c-1.884,0-3.413,1.529-3.413,3.413s1.529,3.413,3.413,3.413h3.413v3.413c0,1.884,1.529,3.413,3.413,3.413
			c1.884,0,3.413-1.529,3.413-3.413V3.413C187.733,1.529,186.204,0,184.32,0z"/>
	</g>
</g>
<g>
	<g>
		<g>
			<path d="M184.32,45.737c-1.884,0-3.413,1.529-3.413,3.413v12.971c0,1.884,1.529,3.413,3.413,3.413
				c1.884,0,3.413-1.527,3.413-3.413V49.15C187.733,47.266,186.204,45.737,184.32,45.737z"/>
			<path d="M184.32,19.796c-1.884,0-3.413,1.529-3.413,3.413V36.18c0,1.884,1.529,3.413,3.413,3.413
				c1.884,0,3.413-1.527,3.413-3.413V23.209C187.733,21.325,186.204,19.796,184.32,19.796z"/>
		</g>
	</g>
</g>
<g>
	<g>
		<path d="M184.32,71.68c-1.884,0-3.413,1.529-3.413,3.413v3.413h-3.413c-1.884,0-3.413,1.529-3.413,3.413s1.529,3.413,3.413,3.413
			h6.827c1.884,0,3.413-1.529,3.413-3.413v-6.827C187.733,73.209,186.204,71.68,184.32,71.68z"/>
	</g>
</g>
<g>
	<g>
		<path d="M158.72,78.507h-6.827c-1.884,0-3.413,1.529-3.413,3.413s1.529,3.413,3.413,3.413h6.827c1.884,0,3.413-1.529,3.413-3.413
			S160.604,78.507,158.72,78.507z"/>
	</g>
</g>
<g>
	<g>
		<path d="M151.535,34.732c-1.28-1.28-3.546-1.28-4.826,0L94.561,86.881c-1.333,1.333-1.333,3.494,0,4.826
			c1.333,1.333,3.494,1.333,4.826,0l49.601-49.603c4.352,5.425,6.716,12.121,6.716,19.178c0,8.206-3.195,15.922-8.996,21.722
			l-28.865,28.865c-1.333,1.333-1.333,3.494,0,4.826c0.667,0.667,1.539,1,2.413,1s1.746-0.333,2.413-1l28.865-28.865
			c7.091-7.091,10.996-16.519,10.996-26.549S158.626,41.824,151.535,34.732z"/>
	</g>
</g>
<g>
	<g>
		<path d="M97.07,137.47c-1.333-1.333-3.494-1.333-4.826,0l-10.703,10.703c-1.333,1.333-1.333,3.495,0,4.826
			c0.667,0.667,1.539,1,2.413,1c0.874,0,1.748-0.333,2.413-1l10.703-10.703C98.403,140.964,98.403,138.801,97.07,137.47z"/>
	</g>
</g>
<g>
	<g>
		<path d="M73.574,112.695c-1.333-1.333-3.494-1.333-4.826,0l-11.343,11.343c-1.333,1.331-1.333,3.494,0,4.826
			c0.667,0.667,1.539,1,2.413,1c0.874,0,1.746-0.335,2.413-1l11.343-11.342C74.907,116.19,74.907,114.028,73.574,112.695z"/>
	</g>
</g>
<g>
	<g>
		<path d="M93.867,105.813c-4.705,0-8.533,3.828-8.533,8.533c0,4.705,3.828,8.533,8.533,8.533s8.533-3.828,8.533-8.533
			C102.4,109.641,98.572,105.813,93.867,105.813z M93.867,116.053c-0.942,0-1.707-0.765-1.707-1.707s0.765-1.707,1.707-1.707
			s1.707,0.765,1.707,1.707S94.809,116.053,93.867,116.053z"/>
	</g>
</g>
<g>
	<g>
		<g>
			<path d="M47.787,136.533c-13.175,0-23.893,10.718-23.893,23.893s10.718,23.893,23.893,23.893s23.893-10.718,23.893-23.893
				S60.962,136.533,47.787,136.533z M47.787,177.493c-9.411,0-17.067-7.656-17.067-17.067s7.656-17.067,17.067-17.067
				c9.411,0,17.067,7.656,17.067,17.067S57.197,177.493,47.787,177.493z"/>
			<path d="M47.787,122.88c-20.704,0-37.547,16.843-37.547,37.547s16.843,37.547,37.547,37.547
				c20.704,0,37.547-16.843,37.547-37.547S68.49,122.88,47.787,122.88z M47.787,191.147c-16.939,0-30.72-13.781-30.72-30.72
				s13.781-30.72,30.72-30.72s30.72,13.781,30.72,30.72S64.725,191.147,47.787,191.147z"/>
		</g>
	</g>
</g>
<g>
	<g>
		<g>
			<path d="M143.36,136.533c-13.175,0-23.893,10.718-23.893,23.893s10.718,23.893,23.893,23.893s23.893-10.718,23.893-23.893
				S156.535,136.533,143.36,136.533z M143.36,177.493c-9.411,0-17.067-7.656-17.067-17.067s7.656-17.067,17.067-17.067
				s17.067,7.656,17.067,17.067S152.771,177.493,143.36,177.493z"/>
			<path d="M143.36,122.88c-20.704,0-37.547,16.843-37.547,37.547s16.843,37.547,37.547,37.547s37.547-16.843,37.547-37.547
				S164.064,122.88,143.36,122.88z M143.36,191.147c-16.939,0-30.72-13.781-30.72-30.72s13.781-30.72,30.72-30.72
				s30.72,13.781,30.72,30.72S160.299,191.147,143.36,191.147z"/>
		</g>
	</g>
</g>
<g>
	<g>
		<path d="M142.188,45.546c-0.942-2.891-3.437-4.859-7.497-6.513c-4.453-1.843-6.349-3.176-6.349-5.837
			c0-2.05,1.485-4.403,5.427-4.403c3.277,0,5.376,1.126,6.451,1.741l1.28-3.379c-1.485-0.87-3.586-1.69-6.656-1.79v-4.966h-3.173
			v5.169c-4.71,0.77-7.731,3.994-7.731,8.243c-0.002,4.453,3.224,6.81,8.446,8.856c3.789,1.536,5.786,3.277,5.786,6.093
			c0,0.311-0.041,0.606-0.096,0.898L142.188,45.546z"/>
	</g>
</g>
<g>
	<g>
		<path d="M132.079,53.777c-2.867,0-5.528-0.973-7.371-2.2l-1.229,3.43c1.637,1.169,4.343,2.004,7.062,2.186l3.717-3.719
			C133.593,53.661,132.869,53.777,132.079,53.777z"/>
	</g>
</g>
<g>
</g>
<g>
</g>
<g>
</g>
<g>
</g>
<g>
</g>
<g>
</g>
<g>
</g>
<g>
</g>
<g>
</g>
<g>
</g>
<g>
</g>
<g>
</g>
<g>
</g>
<g>
</g>
<g>
</g>
</svg>
