<?xml version="1.0" encoding="iso-8859-1"?>
<!-- Generator: Adobe Illustrator 19.0.0, SVG Export Plug-In . SVG Version: 6.00 Build 0)  -->
<svg version="1.1" id="Capa_1" xmlns="http://www.w3.org/2000/svg" xmlns:xlink="http://www.w3.org/1999/xlink" x="0px" y="0px"
	 viewBox="0 0 204.923 204.923" style="enable-background:new 0 0 204.923 204.923;" xml:space="preserve">
<g>
	<g>
		<path d="M112.638,0.002c-16.505,0-29.984,12.908-30.691,29.385c-0.08,1.882,1.381,3.475,3.265,3.555
			c1.869,0.092,3.475-1.381,3.555-3.265c0.55-12.814,11.035-22.851,23.871-22.851c12.979,0,23.468,10.153,23.881,23.115
			c0.06,1.848,1.575,3.306,3.41,3.306c0.038,0,0.073-0.002,0.109-0.002c1.884-0.06,3.364-1.635,3.304-3.519
			C142.812,13.058,129.324,0.002,112.638,0.002z"/>
	</g>
</g>
<g>
	<g>
		<path d="M174.186,30.368c-0.179-1.809-1.702-3.186-3.519-3.186h-26.472c-1.954,0-3.538,1.584-3.538,3.538
			c0,1.954,1.584,3.538,3.538,3.538h23.27l16.358,163.593h-33.246c-1.954,0-3.538,1.584-3.538,3.536s1.584,3.536,3.538,3.536h37.156
			c0.998,0,1.951-0.42,2.621-1.162c0.671-0.742,0.997-1.732,0.898-2.726L174.186,30.368z"/>
	</g>
</g>
<g>
	<g>
		<path d="M156.996,30.38c-0.174-1.744-1.644-3.074-3.396-3.074H34.133c-1.753,0-3.22,1.33-3.396,3.074L13.67,201.047
			c-0.096,0.959,0.218,1.915,0.865,2.63c0.647,0.715,1.567,1.123,2.531,1.123h153.6c0.964,0,1.882-0.408,2.531-1.123
			c0.647-0.715,0.961-1.671,0.865-2.63L156.996,30.38z M20.838,197.973l16.384-163.84h113.289l16.384,163.84H20.838z"/>
	</g>
</g>
<g>
	<g>
		<path d="M95.573,0c-16.939,0-30.72,13.781-30.72,30.72v27.307c0,1.884,1.529,3.413,3.413,3.413s3.413-1.529,3.413-3.413V30.72
			c0-13.175,10.718-23.893,23.893-23.893c13.175,0,23.893,10.718,23.893,23.893v27.307c0,1.884,1.529,3.413,3.413,3.413
			s3.413-1.529,3.413-3.413V30.72C126.293,13.781,112.512,0,95.573,0z"/>
	</g>
</g>
<g>
	<g>
		<path d="M81.92,81.92c-16.939,0-30.72,13.781-30.72,30.72s13.781,30.72,30.72,30.72s30.72-13.781,30.72-30.72
			S98.858,81.92,81.92,81.92z M81.92,136.533c-13.175,0-23.893-10.718-23.893-23.893S68.744,88.747,81.92,88.747
			c13.174,0,23.893,10.718,23.893,23.893S95.095,136.533,81.92,136.533z"/>
	</g>
</g>
<g>
	<g>
		<path d="M138.946,164.84l-32.427-32.427c-1.331-1.333-3.495-1.333-4.826,0c-1.333,1.333-1.333,3.494,0,4.826l32.427,32.427
			c0.666,0.667,1.539,1,2.413,1c0.872,0,1.748-0.333,2.413-1C140.279,168.334,140.279,166.173,138.946,164.84z"/>
	</g>
</g>
<g>
</g>
<g>
</g>
<g>
</g>
<g>
</g>
<g>
</g>
<g>
</g>
<g>
</g>
<g>
</g>
<g>
</g>
<g>
</g>
<g>
</g>
<g>
</g>
<g>
</g>
<g>
</g>
<g>
</g>
</svg>
