<?xml version="1.0" encoding="iso-8859-1"?>
<!-- Generator: Adobe Illustrator 19.0.0, SVG Export Plug-In . SVG Version: 6.00 Build 0)  -->
<svg version="1.1" id="Capa_1" xmlns="http://www.w3.org/2000/svg" xmlns:xlink="http://www.w3.org/1999/xlink" x="0px" y="0px"
	 viewBox="0 0 211.627 211.627" style="enable-background:new 0 0 211.627 211.627;" xml:space="preserve">
<g>
	<g>
		<path d="M208.213,109.706H3.413c-1.884,0-3.413,1.529-3.413,3.413v81.92c0,1.884,1.529,3.413,3.413,3.413h204.8
			c1.884,0,3.413-1.529,3.413-3.413v-81.92C211.627,111.235,210.098,109.706,208.213,109.706z M204.8,191.626H6.827v-75.093H204.8
			V191.626z"/>
	</g>
</g>
<g>
	<g>
		<path d="M105.813,123.36H102.4v4.255h3.413v2.572c13.175,0,23.893,10.718,23.893,23.893s-10.718,23.893-23.893,23.893v6.827
			c16.939,0,30.72-13.781,30.72-30.72C136.533,137.141,122.752,123.36,105.813,123.36z"/>
	</g>
</g>
<g>
	<g>
		<path d="M208.213,130.186c-9.411,0-17.067-7.656-17.067-17.067c0-1.884-1.529-3.413-3.413-3.413c-1.884,0-3.413,1.529-3.413,3.413
			c0,13.175,10.718,23.893,23.893,23.893c1.884,0,3.413-1.529,3.413-3.413S210.098,130.186,208.213,130.186z"/>
	</g>
</g>
<g>
	<g>
		<path d="M208.213,171.146c-13.175,0-23.893,10.718-23.893,23.893c0,1.884,1.529,3.413,3.413,3.413
			c1.884,0,3.413-1.529,3.413-3.413c0-9.411,7.656-17.067,17.067-17.067c1.884,0,3.413-1.529,3.413-3.413
			S210.098,171.146,208.213,171.146z"/>
	</g>
</g>
<g>
	<g>
		<path d="M23.893,109.706c-1.884,0-3.413,1.529-3.413,3.413c0,9.411-7.656,17.067-17.067,17.067C1.529,130.186,0,131.715,0,133.6
			s1.529,3.413,3.413,3.413c13.175,0,23.893-10.72,23.893-23.893C27.307,111.235,25.778,109.706,23.893,109.706z"/>
	</g>
</g>
<g>
	<g>
		<path d="M3.413,171.146c-1.884,0-3.413,1.529-3.413,3.413s1.529,3.413,3.413,3.413c9.411,0,17.067,7.656,17.067,17.067
			c0,1.884,1.529,3.413,3.413,3.413s3.413-1.529,3.413-3.413C27.307,181.864,16.589,171.146,3.413,171.146z"/>
	</g>
</g>
<g>
	<g>
		<path d="M105.813,123.36c-16.939,0-30.72,13.781-30.72,30.72c0,16.939,13.781,30.72,30.72,30.72s30.72-13.781,30.72-30.72
			C136.533,137.141,122.752,123.36,105.813,123.36z M105.813,177.973c-13.175,0-23.893-10.718-23.893-23.893
			s10.718-23.893,23.893-23.893s23.893,10.718,23.893,23.893S118.989,177.973,105.813,177.973z"/>
	</g>
</g>
<g>
	<g>
		<rect x="180.907" y="48.265" width="6.827" height="47.787"/>
	</g>
</g>
<g>
	<g>
		<polygon points="184.32,40.48 165.122,55.84 169.385,61.17 184.32,49.224 199.255,61.17 203.518,55.84 		"/>
	</g>
</g>
<g>
	<g>
		<rect x="133.12" y="20.958" width="6.827" height="61.44"/>
	</g>
</g>
<g>
	<g>
		<polygon points="136.533,13.174 117.335,28.534 121.598,33.864 136.533,21.917 151.468,33.864 155.732,28.534 		"/>
	</g>
</g>
<g>
</g>
<g>
</g>
<g>
</g>
<g>
</g>
<g>
</g>
<g>
</g>
<g>
</g>
<g>
</g>
<g>
</g>
<g>
</g>
<g>
</g>
<g>
</g>
<g>
</g>
<g>
</g>
<g>
</g>
</svg>
