<?xml version="1.0" encoding="iso-8859-1"?>
<!-- Generator: Adobe Illustrator 19.0.0, SVG Export Plug-In . SVG Version: 6.00 Build 0)  -->
<svg version="1.1" id="Capa_1" xmlns="http://www.w3.org/2000/svg" xmlns:xlink="http://www.w3.org/1999/xlink" x="0px" y="0px"
	 viewBox="0 0 197.973 197.973" style="enable-background:new 0 0 197.973 197.973;" xml:space="preserve">
<g>
	<g>
		<path d="M194.56,23.893H3.413C1.529,23.893,0,25.423,0,27.307v143.36c0,1.884,1.529,3.413,3.413,3.413H194.56
			c1.884,0,3.413-1.529,3.413-3.413V27.307C197.973,25.423,196.444,23.893,194.56,23.893z M191.147,167.253H6.827V30.72h184.32
			V167.253z"/>
	</g>
</g>
<g>
	<g>
		<path d="M27.307,75.093H13.653c-1.884,0-3.413,1.529-3.413,3.413v81.92c0,1.884,1.529,3.413,3.413,3.413h13.653
			c1.884,0,3.413-1.529,3.413-3.413v-81.92C30.72,76.623,29.191,75.093,27.307,75.093z M23.893,157.013h-6.827V81.92h6.827V157.013z
			"/>
	</g>
</g>
<g>
	<g>
		<path d="M105.813,75.093H92.16c-1.884,0-3.413,1.529-3.413,3.413v81.92c0,1.884,1.529,3.413,3.413,3.413h13.653
			c1.884,0,3.413-1.529,3.413-3.413v-81.92C109.227,76.623,107.697,75.093,105.813,75.093z M102.4,157.013h-6.827V81.92h6.827
			V157.013z"/>
	</g>
</g>
<g>
	<g>
		<path d="M160.427,75.093h-13.653c-1.884,0-3.413,1.529-3.413,3.413v81.92c0,1.884,1.529,3.413,3.413,3.413h13.653
			c1.884,0,3.413-1.529,3.413-3.413v-81.92C163.84,76.623,162.311,75.093,160.427,75.093z M157.013,157.013h-6.827V81.92h6.827
			V157.013z"/>
	</g>
</g>
<g>
	<g>
		<path d="M184.32,75.093h-13.653c-1.884,0-3.413,1.529-3.413,3.413v81.92c0,1.884,1.529,3.413,3.413,3.413h13.653
			c1.884,0,3.413-1.529,3.413-3.413v-81.92C187.733,76.623,186.204,75.093,184.32,75.093z M180.907,157.013h-6.827V81.92h6.827
			V157.013z"/>
	</g>
</g>
<g>
	<g>
		<path d="M71.68,75.093H58.027c-1.884,0-3.413,1.529-3.413,3.413v81.92c0,1.884,1.529,3.413,3.413,3.413H71.68
			c1.884,0,3.413-1.529,3.413-3.413v-81.92C75.093,76.623,73.564,75.093,71.68,75.093z M68.267,157.013H61.44V81.92h6.827V157.013z"
			/>
	</g>
</g>
<g>
	<g>
		<rect x="78.507" y="75.093" width="6.827" height="88.747"/>
	</g>
</g>
<g>
	<g>
		<rect x="34.133" y="75.093" width="6.827" height="88.747"/>
	</g>
</g>
<g>
	<g>
		<rect x="44.373" y="75.093" width="6.827" height="88.747"/>
	</g>
</g>
<g>
	<g>
		<rect x="112.64" y="75.093" width="6.827" height="88.747"/>
	</g>
</g>
<g>
	<g>
		<rect x="122.88" y="75.093" width="6.827" height="88.747"/>
	</g>
</g>
<g>
	<g>
		<rect x="133.12" y="75.093" width="6.827" height="88.747"/>
	</g>
</g>
<g>
	<g>
		<path d="M33.234,50.944c-1.867-1.12-4.2-1.633-6.533-1.633c-1.12,0-1.773,0.092-2.473,0.186l1.167-7.793h11.573v-3.456H22.455
			l-1.959,14.56c1.12-0.14,2.473-0.326,4.2-0.326c6.065,0,8.68,2.801,8.726,6.721c0,4.058-3.313,6.579-7.187,6.579
			c-2.753,0-5.228-0.932-6.487-1.679l-1.027,3.127c1.447,0.934,4.248,1.867,7.561,1.867c6.579,0,11.293-4.432,11.293-10.359
			C37.574,54.91,35.615,52.297,33.234,50.944z"/>
	</g>
</g>
<g>
	<g>
		<path d="M59.366,57.103V38.25h-4.434L41.399,57.617v2.707h14.094v8.26h3.874v-8.26h4.246v-3.221H59.366z M55.492,46.976v10.127
			h-9.941v-0.094l7.421-10.313c0.841-1.399,1.587-2.707,2.521-4.48h0.14C55.538,43.803,55.492,45.389,55.492,46.976z"/>
	</g>
</g>
<g>
	<g>
		<path d="M81.108,50.944c-1.867-1.12-4.2-1.633-6.533-1.633c-1.12,0-1.773,0.092-2.473,0.186l1.167-7.793h11.573v-3.456H70.328
			l-1.959,14.56c1.12-0.14,2.473-0.326,4.2-0.326c6.065,0,8.68,2.801,8.726,6.721c0,4.058-3.313,6.579-7.187,6.579
			c-2.753,0-5.228-0.932-6.487-1.679l-1.027,3.127c1.447,0.934,4.248,1.867,7.561,1.867c6.579,0,11.293-4.432,11.293-10.359
			C85.448,54.91,83.488,52.297,81.108,50.944z"/>
	</g>
</g>
<g>
	<g>
		<path d="M102.712,52.204V52.11c3.732-1.353,5.6-4.014,5.6-7.141c0-3.686-2.707-7.233-8.68-7.233c-3.267,0-6.345,1.166-7.933,2.333
			l1.073,2.987c1.307-0.934,3.64-2.007,6.067-2.007c3.78,0,5.32,2.147,5.32,4.574c0,3.594-3.78,5.134-6.767,5.134h-2.287v3.081
			h2.287c3.966,0,7.794,1.821,7.84,6.067c0.046,2.519-1.587,5.879-6.861,5.879c-2.847,0-5.554-1.166-6.721-1.913l-1.118,3.173
			c1.493,0.98,4.48,2.053,7.887,2.053c7.279,0,11.059-4.246,11.059-9.1C109.479,55.75,106.447,52.951,102.712,52.204z"/>
	</g>
</g>
<g>
	<g>
		<path d="M131.176,57.103V38.25h-4.434l-13.534,19.367v2.707h14.094v8.26h3.874v-8.26h4.246v-3.221H131.176z M127.302,46.976
			v10.127h-9.941v-0.094l7.421-10.313c0.841-1.399,1.587-2.707,2.521-4.48h0.14C127.348,43.803,127.302,45.389,127.302,46.976z"/>
	</g>
</g>
<g>
	<g>
		<path d="M152.917,50.944c-1.867-1.12-4.2-1.633-6.533-1.633c-1.12,0-1.773,0.092-2.473,0.186l1.167-7.793h11.573v-3.456h-14.513
			l-1.959,14.56c1.12-0.14,2.473-0.326,4.2-0.326c6.065,0,8.68,2.801,8.726,6.721c0,4.058-3.313,6.579-7.187,6.579
			c-2.753,0-5.228-0.932-6.487-1.679l-1.027,3.127c1.447,0.934,4.248,1.867,7.56,1.867c6.579,0,11.293-4.432,11.293-10.359
			C157.257,54.91,155.298,52.297,152.917,50.944z"/>
	</g>
</g>
<g>
	<g>
		<path d="M174.522,52.204V52.11c3.732-1.353,5.6-4.014,5.6-7.141c0-3.686-2.707-7.233-8.68-7.233c-3.267,0-6.345,1.166-7.933,2.333
			l1.073,2.987c1.307-0.934,3.64-2.007,6.067-2.007c3.78,0,5.32,2.147,5.32,4.574c0,3.594-3.78,5.134-6.767,5.134h-2.287v3.081
			h2.287c3.966,0,7.794,1.821,7.84,6.067c0.046,2.519-1.587,5.879-6.861,5.879c-2.847,0-5.553-1.166-6.721-1.913l-1.118,3.173
			c1.493,0.98,4.48,2.053,7.887,2.053c7.279,0,11.059-4.246,11.059-9.1C181.289,55.75,178.256,52.951,174.522,52.204z"/>
	</g>
</g>
<g>
</g>
<g>
</g>
<g>
</g>
<g>
</g>
<g>
</g>
<g>
</g>
<g>
</g>
<g>
</g>
<g>
</g>
<g>
</g>
<g>
</g>
<g>
</g>
<g>
</g>
<g>
</g>
<g>
</g>
</svg>
