<?xml version="1.0" encoding="iso-8859-1"?>
<!-- Generator: Adobe Illustrator 19.0.0, SVG Export Plug-In . SVG Version: 6.00 Build 0)  -->
<svg version="1.1" id="Capa_1" xmlns="http://www.w3.org/2000/svg" xmlns:xlink="http://www.w3.org/1999/xlink" x="0px" y="0px"
	 viewBox="0 0 194.621 194.621" style="enable-background:new 0 0 194.621 194.621;" xml:space="preserve">
<g>
	<g>
		<path d="M157.908,13.595h-8.789c-1.918,0-3.475,1.555-3.475,3.473c0,1.918,1.557,3.473,3.475,3.473h8.789
			c4.195,0,7.608,3.413,7.608,7.61v151.914c0,4.197-3.413,7.61-7.608,7.61H36.713c-4.195,0-7.608-3.413-7.608-7.61V28.151
			c0-4.197,3.413-7.61,7.608-7.61h8.704c1.918,0,3.473-1.555,3.473-3.473c0-1.918-1.555-3.473-3.473-3.473h-8.704
			c-8.026,0-14.556,6.53-14.556,14.556v151.914c0,8.026,6.53,14.556,14.556,14.556h121.196c8.026,0,14.556-6.531,14.556-14.556
			V28.151C172.465,20.125,165.935,13.595,157.908,13.595z"/>
	</g>
</g>
<g>
	<g>
		<path d="M106.688,30.601c-1.246-1.411-3.405-1.545-4.818-0.299l-4.973,4.396l-5.093-4.504c-1.411-1.249-3.569-1.116-4.818,0.297
			c-1.248,1.411-1.116,3.569,0.297,4.816l7.354,6.502c0.647,0.572,1.454,0.857,2.261,0.857s1.615-0.285,2.26-0.855l7.233-6.393
			C107.804,34.169,107.936,32.012,106.688,30.601z"/>
	</g>
</g>
<g>
	<g>
		<path d="M137.446,0H56.352c-1.884,0-3.413,1.529-3.413,3.413s1.529,3.413,3.413,3.413h81.094c1.886,0,3.413-1.529,3.413-3.413
			S139.33,0,137.446,0z"/>
	</g>
</g>
<g>
	<g>
		<path d="M97.312,34.133c-1.884,0-3.413,1.529-3.413,3.413v153.6c0,1.884,1.529,3.413,3.413,3.413s3.413-1.527,3.413-3.413v-153.6
			C100.725,35.663,99.196,34.133,97.312,34.133z"/>
	</g>
</g>
<g>
	<g>
		<path d="M97.312,61.44c-5.647,0-10.24,4.593-10.24,10.24c0,5.647,4.593,10.24,10.24,10.24c5.647,0,10.24-4.593,10.24-10.24
			C107.552,66.033,102.959,61.44,97.312,61.44z M97.312,75.093c-1.882,0-3.413-1.531-3.413-3.413s1.531-3.413,3.413-3.413
			s3.413,1.531,3.413,3.413S99.194,75.093,97.312,75.093z"/>
	</g>
</g>
<g>
	<g>
		<path d="M97.312,98.987c-5.647,0-10.24,4.593-10.24,10.24c0,5.647,4.593,10.24,10.24,10.24c5.647,0,10.24-4.593,10.24-10.24
			C107.552,103.579,102.959,98.987,97.312,98.987z M97.312,112.64c-1.882,0-3.413-1.531-3.413-3.413s1.531-3.413,3.413-3.413
			s3.413,1.531,3.413,3.413S99.194,112.64,97.312,112.64z"/>
	</g>
</g>
<g>
	<g>
		<path d="M97.312,136.533c-5.647,0-10.24,4.593-10.24,10.24c0,5.647,4.593,10.24,10.24,10.24c5.647,0,10.24-4.593,10.24-10.24
			C107.552,141.126,102.959,136.533,97.312,136.533z M97.312,150.187c-1.882,0-3.413-1.531-3.413-3.413s1.531-3.413,3.413-3.413
			s3.413,1.531,3.413,3.413S99.194,150.187,97.312,150.187z"/>
	</g>
</g>
<g>
	<g>
		<path d="M93.651,26.412L58.365,0.657c-0.739-0.538-1.659-0.756-2.56-0.613c-0.901,0.147-1.705,0.647-2.234,1.391l-14.92,20.966
			c-0.534,0.753-0.742,1.69-0.575,2.596c0.166,0.908,0.693,1.71,1.461,2.222l36.939,24.66c0.582,0.391,1.241,0.575,1.891,0.575
			c1.103,0,2.185-0.534,2.843-1.517l13.266-19.872C95.494,29.542,95.129,27.491,93.651,26.412z M77.429,44.307L46.253,23.494
			L57.132,8.206l29.851,21.789L77.429,44.307z"/>
	</g>
</g>
<g>
	<g>
		<path d="M155.859,22.4l-14.92-20.966c-0.527-0.742-1.333-1.244-2.234-1.391c-0.898-0.142-1.823,0.075-2.56,0.613L100.86,26.411
			c-1.476,1.079-1.841,3.13-0.826,4.652L113.3,50.935c0.659,0.986,1.741,1.519,2.843,1.519c0.65,0,1.309-0.186,1.891-0.577
			l36.939-24.66c0.766-0.512,1.294-1.314,1.461-2.222C156.603,24.088,156.393,23.151,155.859,22.4z M117.083,44.308l-9.554-14.312
			l29.851-21.787l10.878,15.287L117.083,44.308z"/>
	</g>
</g>
<g>
</g>
<g>
</g>
<g>
</g>
<g>
</g>
<g>
</g>
<g>
</g>
<g>
</g>
<g>
</g>
<g>
</g>
<g>
</g>
<g>
</g>
<g>
</g>
<g>
</g>
<g>
</g>
<g>
</g>
</svg>
