<?xml version="1.0" encoding="iso-8859-1"?>
<!-- Generator: Adobe Illustrator 19.0.0, SVG Export Plug-In . SVG Version: 6.00 Build 0)  -->
<svg version="1.1" id="Capa_1" xmlns="http://www.w3.org/2000/svg" xmlns:xlink="http://www.w3.org/1999/xlink" x="0px" y="0px"
	 viewBox="0 0 194.621 194.621" style="enable-background:new 0 0 194.621 194.621;" xml:space="preserve">
<g>
	<g>
		<path d="M157.908,13.595H147.8c-1.918,0-3.475,1.555-3.475,3.473c0,1.918,1.556,3.473,3.475,3.473h10.109
			c4.195,0,7.608,3.413,7.608,7.61v151.914c0,4.197-3.413,7.61-7.608,7.61H36.713c-4.195,0-7.608-3.413-7.608-7.61V28.151
			c0-4.197,3.413-7.61,7.608-7.61h8.59c1.918,0,3.473-1.555,3.473-3.473c0-1.918-1.555-3.473-3.473-3.473h-8.59
			c-8.026,0-14.556,6.53-14.556,14.556v151.914c0,8.026,6.53,14.556,14.556,14.556h121.196c8.026,0,14.556-6.531,14.556-14.556
			V28.151C172.465,20.125,165.935,13.595,157.908,13.595z"/>
	</g>
</g>
<g>
	<g>
		<path d="M137.446,0H56.352c-1.884,0-3.413,1.529-3.413,3.413s1.529,3.413,3.413,3.413h81.094c1.886,0,3.413-1.529,3.413-3.413
			S139.33,0,137.446,0z"/>
	</g>
</g>
<g>
	<g>
		<path d="M107.314,30.046c-1.249-1.411-3.405-1.548-4.818-0.297l-5.6,4.949l-4.825-4.265c-1.413-1.251-3.57-1.116-4.818,0.297
			c-1.248,1.411-1.116,3.569,0.297,4.816l7.086,6.263c0.647,0.572,1.454,0.857,2.261,0.857s1.615-0.285,2.26-0.857l7.859-6.948
			C108.431,33.615,108.562,31.457,107.314,30.046z"/>
	</g>
</g>
<g>
	<g>
		<path d="M97.312,34.133c-1.884,0-3.413,1.529-3.413,3.413v153.6c0,1.884,1.529,3.413,3.413,3.413s3.413-1.527,3.413-3.413v-153.6
			C100.725,35.663,99.196,34.133,97.312,34.133z"/>
	</g>
</g>
<g>
	<g>
		<path d="M93.651,26.412L58.365,0.657c-0.737-0.538-1.662-0.756-2.56-0.613c-0.901,0.147-1.705,0.647-2.234,1.391l-14.92,20.966
			c-0.534,0.753-0.742,1.69-0.575,2.596c0.166,0.908,0.693,1.71,1.461,2.222l36.939,24.66c0.582,0.391,1.241,0.575,1.891,0.575
			c1.103,0,2.185-0.534,2.843-1.517l13.266-19.872C95.494,29.542,95.129,27.491,93.651,26.412z M77.429,44.307L46.253,23.494
			L57.132,8.206l29.851,21.789L77.429,44.307z"/>
	</g>
</g>
<g>
	<g>
		<path d="M155.859,22.4l-14.92-20.966c-0.527-0.742-1.333-1.244-2.234-1.391c-0.901-0.142-1.823,0.075-2.56,0.613L100.86,26.411
			c-1.476,1.079-1.841,3.13-0.826,4.652L113.3,50.935c0.659,0.986,1.741,1.519,2.843,1.519c0.65,0,1.309-0.186,1.891-0.577
			l36.939-24.66c0.766-0.512,1.294-1.314,1.461-2.222C156.603,24.088,156.393,23.151,155.859,22.4z M117.083,44.308l-9.554-14.312
			l29.851-21.787l10.878,15.287L117.083,44.308z"/>
	</g>
</g>
<g>
	<g>
		<path d="M109.258,64.853c-2.823,0-5.12,2.297-5.12,5.12c0,2.823,2.297,5.12,5.12,5.12c2.823,0,5.12-2.297,5.12-5.12
			C114.378,67.151,112.081,64.853,109.258,64.853z M109.258,71.68c-0.94,0-1.707-0.765-1.707-1.707s0.766-1.707,1.707-1.707
			s1.707,0.765,1.707,1.707S110.199,71.68,109.258,71.68z"/>
	</g>
</g>
<g>
	<g>
		<path d="M109.258,88.747c-2.823,0-5.12,2.297-5.12,5.12c0,2.823,2.297,5.12,5.12,5.12c2.823,0,5.12-2.297,5.12-5.12
			C114.378,91.044,112.081,88.747,109.258,88.747z M109.258,95.573c-0.94,0-1.707-0.765-1.707-1.707
			c0-0.942,0.766-1.707,1.707-1.707s1.707,0.765,1.707,1.707C110.965,94.809,110.199,95.573,109.258,95.573z"/>
	</g>
</g>
<g>
	<g>
		<path d="M109.258,112.64c-2.823,0-5.12,2.297-5.12,5.12s2.297,5.12,5.12,5.12c2.823,0,5.12-2.297,5.12-5.12
			S112.081,112.64,109.258,112.64z M109.258,119.467c-0.94,0-1.707-0.765-1.707-1.707s0.766-1.707,1.707-1.707
			s1.707,0.765,1.707,1.707S110.199,119.467,109.258,119.467z"/>
	</g>
</g>
<g>
	<g>
		<path d="M109.258,136.533c-2.823,0-5.12,2.297-5.12,5.12c0,2.823,2.297,5.12,5.12,5.12c2.823,0,5.12-2.297,5.12-5.12
			C114.378,138.831,112.081,136.533,109.258,136.533z M109.258,143.36c-0.94,0-1.707-0.765-1.707-1.707s0.766-1.707,1.707-1.707
			s1.707,0.765,1.707,1.707S110.199,143.36,109.258,143.36z"/>
	</g>
</g>
<g>
	<g>
		<path d="M109.258,160.427c-2.823,0-5.12,2.297-5.12,5.12c0,2.823,2.297,5.12,5.12,5.12c2.823,0,5.12-2.297,5.12-5.12
			C114.378,162.724,112.081,160.427,109.258,160.427z M109.258,167.253c-0.94,0-1.707-0.765-1.707-1.707s0.766-1.707,1.707-1.707
			s1.707,0.765,1.707,1.707S110.199,167.253,109.258,167.253z"/>
	</g>
</g>
<g>
</g>
<g>
</g>
<g>
</g>
<g>
</g>
<g>
</g>
<g>
</g>
<g>
</g>
<g>
</g>
<g>
</g>
<g>
</g>
<g>
</g>
<g>
</g>
<g>
</g>
<g>
</g>
<g>
</g>
</svg>
