<?xml version="1.0" encoding="iso-8859-1"?>
<!-- Generator: Adobe Illustrator 19.0.0, SVG Export Plug-In . SVG Version: 6.00 Build 0)  -->
<svg version="1.1" id="Capa_1" xmlns="http://www.w3.org/2000/svg" xmlns:xlink="http://www.w3.org/1999/xlink" x="0px" y="0px"
	 viewBox="0 0 194.561 194.561" style="enable-background:new 0 0 194.561 194.561;" xml:space="preserve">
<g>
	<g>
		<path d="M157.878,13.655h-10.221v6.827h10.221c4.229,0,7.67,3.439,7.67,7.67v151.914c0,4.229-3.439,7.67-7.67,7.67H36.684
			c-4.229,0-7.67-3.439-7.67-7.67V28.151c0-4.229,3.441-7.67,7.67-7.67h8.172v-6.827h-8.172c-7.994,0-14.496,6.502-14.496,14.496
			v151.914c0,7.992,6.502,14.496,14.496,14.496h121.194c7.992,0,14.496-6.504,14.496-14.496V28.151
			C172.374,20.159,165.872,13.655,157.878,13.655z"/>
	</g>
</g>
<g>
	<g>
		<path d="M137.415,0.001H56.321c-1.884,0-3.413,1.529-3.413,3.413s1.529,3.413,3.413,3.413h81.094c1.884,0,3.413-1.529,3.413-3.413
			S139.299,0.001,137.415,0.001z"/>
	</g>
</g>
<g>
	<g>
		<path d="M97.281,180.908c-1.884,0-3.413,1.529-3.413,3.413v6.827c0,1.884,1.529,3.413,3.413,3.413s3.413-1.529,3.413-3.413v-6.827
			C100.694,182.437,99.165,180.908,97.281,180.908z"/>
	</g>
</g>
<g>
	<g>
		<path d="M107.575,30.554c-0.09-1.852-1.616-3.307-3.47-3.307H90.452c-1.853,0-3.381,1.456-3.47,3.307l-6.827,141.522
			c-0.051,1.05,0.379,2.068,1.166,2.767l13.623,12.078c0.659,0.582,1.483,0.874,2.306,0.874s1.642-0.29,2.295-0.869l13.684-12.078
			c0.792-0.698,1.222-1.719,1.172-2.772L107.575,30.554z M97.255,179.683l-10.078-8.934l6.588-136.554h7.033l6.586,136.549
			L97.255,179.683z"/>
	</g>
</g>
<g>
	<g>
		<path d="M93.62,26.412L58.334,0.657c-0.739-0.538-1.661-0.756-2.56-0.613c-0.901,0.147-1.705,0.647-2.234,1.391l-14.92,20.966
			c-0.534,0.753-0.742,1.69-0.575,2.596c0.166,0.908,0.693,1.71,1.461,2.222l36.939,24.66c0.582,0.391,1.241,0.575,1.891,0.575
			c1.103,0,2.185-0.533,2.843-1.517l13.266-19.872C95.461,29.542,95.098,27.491,93.62,26.412z M77.398,44.308L46.222,23.495
			L57.101,8.207l29.851,21.789L77.398,44.308z"/>
	</g>
</g>
<g>
	<g>
		<path d="M155.83,22.4L140.91,1.433c-0.531-0.742-1.336-1.244-2.236-1.391c-0.899-0.142-1.823,0.075-2.558,0.613L100.831,26.41
			c-1.478,1.079-1.843,3.13-0.826,4.652l13.266,19.872c0.657,0.986,1.739,1.519,2.842,1.519c0.652,0,1.311-0.184,1.893-0.577
			l36.939-24.66c0.768-0.512,1.294-1.314,1.461-2.222C156.572,24.088,156.364,23.151,155.83,22.4z M117.052,44.308l-9.554-14.312
			L137.35,8.209l10.878,15.287L117.052,44.308z"/>
	</g>
</g>
<g>
</g>
<g>
</g>
<g>
</g>
<g>
</g>
<g>
</g>
<g>
</g>
<g>
</g>
<g>
</g>
<g>
</g>
<g>
</g>
<g>
</g>
<g>
</g>
<g>
</g>
<g>
</g>
<g>
</g>
</svg>
