<?xml version="1.0" encoding="iso-8859-1"?>
<!-- Generator: Adobe Illustrator 19.0.0, SVG Export Plug-In . SVG Version: 6.00 Build 0)  -->
<svg version="1.1" id="Capa_1" xmlns="http://www.w3.org/2000/svg" xmlns:xlink="http://www.w3.org/1999/xlink" x="0px" y="0px"
	 viewBox="0 0 194.561 194.561" style="enable-background:new 0 0 194.561 194.561;" xml:space="preserve">
<g>
	<g>
		<path d="M157.878,13.655h-9.294c-1.884,0-3.413,1.529-3.413,3.413s1.529,3.413,3.413,3.413h9.294c4.229,0,7.67,3.439,7.67,7.67
			v151.914c0,4.229-3.439,7.67-7.67,7.67H36.684c-4.229,0-7.67-3.439-7.67-7.67V28.151c0-4.229,3.439-7.67,7.67-7.67h8.202
			c1.884,0,3.413-1.529,3.413-3.413s-1.529-3.413-3.413-3.413h-8.202c-7.992,0-14.496,6.502-14.496,14.496v151.914
			c0,7.992,6.502,14.496,14.496,14.496h121.194c7.992,0,14.496-6.504,14.496-14.496V28.151
			C172.374,20.159,165.872,13.655,157.878,13.655z"/>
	</g>
</g>
<g>
	<g>
		<path d="M137.415,0.001H56.321c-1.884,0-3.413,1.529-3.413,3.413s1.529,3.413,3.413,3.413h81.094c1.884,0,3.413-1.529,3.413-3.413
			S139.299,0.001,137.415,0.001z"/>
	</g>
</g>
<g>
	<g>
		<path d="M106.882,30.407c-1.248-1.413-3.407-1.546-4.818-0.299l-5.197,4.593l-5.511-4.871c-1.411-1.249-3.57-1.114-4.816,0.297
			c-1.249,1.411-1.116,3.569,0.297,4.816l7.77,6.868c0.645,0.572,1.451,0.857,2.26,0.857c0.806,0,1.615-0.285,2.26-0.853
			l7.456-6.589C107.997,33.978,108.13,31.819,106.882,30.407z"/>
	</g>
</g>
<g>
	<g>
		<path d="M97.281,34.135c-1.884,0-3.413,1.529-3.413,3.413v153.6c0,1.884,1.529,3.413,3.413,3.413s3.413-1.529,3.413-3.413v-153.6
			C100.694,35.664,99.165,34.135,97.281,34.135z"/>
	</g>
</g>
<g>
	<g>
		<path d="M110.934,37.548c-1.884,0-3.413,1.529-3.413,3.413v150.187c0,1.884,1.529,3.413,3.413,3.413
			c1.884,0,3.413-1.529,3.413-3.413V40.961C114.347,39.077,112.818,37.548,110.934,37.548z"/>
	</g>
</g>
<g>
	<g>
		<path d="M93.62,26.412L58.333,0.657c-0.736-0.538-1.662-0.756-2.558-0.613c-0.903,0.147-1.705,0.647-2.236,1.391L38.621,22.401
			c-0.536,0.753-0.742,1.69-0.575,2.596c0.166,0.908,0.693,1.71,1.461,2.222l36.939,24.66c0.58,0.391,1.239,0.575,1.891,0.575
			c1.103,0,2.186-0.533,2.843-1.517l13.266-19.872C95.463,29.542,95.098,27.491,93.62,26.412z M77.398,44.308L46.222,23.495
			L57.101,8.207l29.851,21.789L77.398,44.308z"/>
	</g>
</g>
<g>
	<g>
		<path d="M155.83,22.4L140.91,1.433c-0.531-0.742-1.336-1.244-2.236-1.391c-0.896-0.142-1.823,0.075-2.558,0.613L100.831,26.41
			c-1.478,1.079-1.843,3.13-0.826,4.652l13.266,19.872c0.657,0.986,1.739,1.519,2.842,1.519c0.652,0,1.311-0.184,1.893-0.577
			l36.939-24.66c0.768-0.512,1.294-1.314,1.461-2.222C156.572,24.088,156.364,23.151,155.83,22.4z M117.052,44.308l-9.554-14.312
			L137.35,8.209l10.878,15.287L117.052,44.308z"/>
	</g>
</g>
<g>
	<g>
		<path d="M80.214,81.921H42.667c-1.884,0-3.413,1.529-3.413,3.413v23.893c0,1.884,1.529,3.413,3.413,3.413h37.547
			c1.884,0,3.413-1.529,3.413-3.413V85.335C83.627,83.45,82.098,81.921,80.214,81.921z M76.801,105.815h-30.72V88.748h30.72V105.815
			z"/>
	</g>
</g>
<g>
	<g>
		<path d="M80.214,71.681H42.667c-1.884,0-3.413,1.529-3.413,3.413v10.24c0,1.884,1.529,3.413,3.413,3.413h37.547
			c1.884,0,3.413-1.529,3.413-3.413v-10.24C83.627,73.211,82.098,71.681,80.214,71.681z M76.801,81.921h-30.72v-3.413h30.72V81.921z
			"/>
	</g>
</g>
<g>
</g>
<g>
</g>
<g>
</g>
<g>
</g>
<g>
</g>
<g>
</g>
<g>
</g>
<g>
</g>
<g>
</g>
<g>
</g>
<g>
</g>
<g>
</g>
<g>
</g>
<g>
</g>
<g>
</g>
</svg>
