<?xml version="1.0" encoding="iso-8859-1"?>
<!-- Generator: Adobe Illustrator 19.0.0, SVG Export Plug-In . SVG Version: 6.00 Build 0)  -->
<svg version="1.1" id="Capa_1" xmlns="http://www.w3.org/2000/svg" xmlns:xlink="http://www.w3.org/1999/xlink" x="0px" y="0px"
	 viewBox="0 0 197.973 197.973" style="enable-background:new 0 0 197.973 197.973;" xml:space="preserve">
<g>
	<g>
		<path d="M177.493,115.504c-1.884,0-3.413,1.529-3.413,3.413v55.163H23.893v-54.455c0-1.884-1.529-3.413-3.413-3.413
			s-3.413,1.529-3.413,3.413v57.868c0,1.884,1.529,3.413,3.413,3.413h157.013c1.884,0,3.413-1.529,3.413-3.413v-58.576
			C180.907,117.033,179.378,115.504,177.493,115.504z"/>
	</g>
</g>
<g>
	<g>
		<path d="M88.747,111.589c-1.884,0-3.413,1.529-3.413,3.413v24.945H47.787V120.34c0-1.884-1.529-3.413-3.413-3.413
			s-3.413,1.529-3.413,3.413v23.02c0,1.884,1.529,3.413,3.413,3.413h44.373c1.884,0,3.413-1.529,3.413-3.413v-28.358
			C92.16,113.118,90.631,111.589,88.747,111.589z"/>
	</g>
</g>
<g>
	<g>
		<path d="M157.013,118.559c-1.884,0-3.413,1.529-3.413,3.413v52.108h-34.133V115c0-1.884-1.529-3.413-3.413-3.413
			c-1.884,0-3.413,1.529-3.413,3.413v62.493c0,1.884,1.529,3.413,3.413,3.413h40.96c1.884,0,3.413-1.529,3.413-3.413v-55.521
			C160.427,120.088,158.897,118.559,157.013,118.559z"/>
	</g>
</g>
<g>
	<g>
		<path d="M58.027,17.067H30.72c-1.884,0-3.413,1.529-3.413,3.413v85.333c0,9.411,7.656,17.067,17.067,17.067
			c9.411,0,17.067-7.656,17.067-17.067V20.48C61.44,18.596,59.911,17.067,58.027,17.067z M54.613,105.813
			c0,5.647-4.593,10.24-10.24,10.24c-5.647,0-10.24-4.593-10.24-10.24v-81.92h20.48V105.813z"/>
	</g>
</g>
<g>
	<g>
		<path d="M85.333,17.067H58.027c-1.884,0-3.413,1.529-3.413,3.413v85.333c0,9.411,7.656,17.067,17.067,17.067
			c9.411,0,17.067-7.656,17.067-17.067V20.48C88.747,18.596,87.217,17.067,85.333,17.067z M81.92,105.813
			c0,5.647-4.593,10.24-10.24,10.24c-5.647,0-10.24-4.593-10.24-10.24v-81.92h20.48V105.813z"/>
	</g>
</g>
<g>
	<g>
		<path d="M30.72,17.067H10.24c-1.78,0-3.26,1.367-3.401,3.14L0.012,105.54C0.003,105.632,0,105.723,0,105.813
			c0,9.411,7.656,17.067,17.067,17.067c9.411,0,17.067-7.656,17.067-17.067V20.48C34.133,18.596,32.604,17.067,30.72,17.067z
			 M27.307,105.813c0,5.647-4.593,10.24-10.24,10.24c-5.603,0-10.172-4.526-10.24-10.114l6.566-82.046h13.914V105.813z"/>
	</g>
</g>
<g>
	<g>
		<path d="M112.64,17.067H85.333c-1.884,0-3.413,1.529-3.413,3.413v85.333c0,9.411,7.656,17.067,17.067,17.067
			s17.067-7.656,17.067-17.067V20.48C116.053,18.596,114.524,17.067,112.64,17.067z M109.227,105.813
			c0,5.647-4.593,10.24-10.24,10.24c-5.647,0-10.24-4.593-10.24-10.24v-81.92h20.48V105.813z"/>
	</g>
</g>
<g>
	<g>
		<path d="M139.947,17.067H112.64c-1.884,0-3.413,1.529-3.413,3.413v85.333c0,9.411,7.656,17.067,17.067,17.067
			c9.411,0,17.067-7.656,17.067-17.067V20.48C143.36,18.596,141.831,17.067,139.947,17.067z M136.533,105.813
			c0,5.647-4.593,10.24-10.24,10.24c-5.647,0-10.24-4.593-10.24-10.24v-81.92h20.48V105.813z"/>
	</g>
</g>
<g>
	<g>
		<path d="M197.961,105.54l-6.827-85.333c-0.142-1.773-1.621-3.14-3.401-3.14h-20.48c-1.884,0-3.413,1.529-3.413,3.413v85.333
			c0,9.411,7.656,17.067,17.067,17.067c9.411,0,17.067-7.656,17.067-17.067C197.973,105.721,197.97,105.631,197.961,105.54z
			 M180.907,116.053c-5.647,0-10.24-4.593-10.24-10.24v-81.92h13.914l6.566,82.046C191.078,111.529,186.51,116.053,180.907,116.053z
			"/>
	</g>
</g>
<g>
	<g>
		<path d="M167.253,17.067h-27.307c-1.884,0-3.413,1.529-3.413,3.413v85.333c0,9.411,7.656,17.067,17.067,17.067
			s17.067-7.656,17.067-17.067V20.48C170.667,18.596,169.137,17.067,167.253,17.067z M163.84,105.813
			c0,5.647-4.593,10.24-10.24,10.24c-5.647,0-10.24-4.593-10.24-10.24v-81.92h20.48V105.813z"/>
	</g>
</g>
<g>
	<g>
		<path d="M146.773,136.533h-6.827c-1.884,0-3.413,1.529-3.413,3.413s1.529,3.413,3.413,3.413h6.827
			c1.884,0,3.413-1.529,3.413-3.413S148.658,136.533,146.773,136.533z"/>
	</g>
</g>
<g>
</g>
<g>
</g>
<g>
</g>
<g>
</g>
<g>
</g>
<g>
</g>
<g>
</g>
<g>
</g>
<g>
</g>
<g>
</g>
<g>
</g>
<g>
</g>
<g>
</g>
<g>
</g>
<g>
</g>
</svg>
