<?xml version="1.0" encoding="iso-8859-1"?>
<!-- Generator: Adobe Illustrator 19.0.0, SVG Export Plug-In . SVG Version: 6.00 Build 0)  -->
<svg version="1.1" id="Capa_1" xmlns="http://www.w3.org/2000/svg" xmlns:xlink="http://www.w3.org/1999/xlink" x="0px" y="0px"
	 viewBox="0 0 174.081 174.081" style="enable-background:new 0 0 174.081 174.081;" xml:space="preserve">
<g>
	<g>
		<path d="M163.839,5.12h-153.6c-1.884,0-3.413,1.529-3.413,3.413V25.6c0,1.884,1.529,3.413,3.413,3.413h153.6
			c1.884,0,3.413-1.529,3.413-3.413V8.533C167.252,6.649,165.723,5.12,163.839,5.12z M160.426,22.187H13.652v-10.24h146.773V22.187z
			"/>
	</g>
</g>
<g>
	<g>
		<path d="M167.251,25.434c-0.089-1.818-1.589-3.246-3.41-3.246h-153.6c-1.821,0-3.321,1.428-3.41,3.246L0.004,165.381
			c-0.046,0.934,0.294,1.845,0.937,2.521c0.643,0.676,1.538,1.06,2.471,1.06h73.576c1.678,0,3.108-1.22,3.371-2.878l6.68-41.967
			l6.68,41.965c0.263,1.657,1.693,2.877,3.371,2.877h73.576c0.934,0,1.828-0.384,2.475-1.058c0.643-0.676,0.983-1.587,0.937-2.521
			L167.251,25.434z M100.003,162.133l-9.593-60.269c-0.263-1.657-1.693-2.877-3.371-2.877s-3.108,1.22-3.371,2.877l-9.593,60.269
			H6.996l6.494-133.12h147.098l6.494,133.12H100.003z"/>
	</g>
</g>
<g>
	<g>
		<path d="M95.572,22.127c-1.918,0-3.473,1.555-3.473,3.473v37.547c0,1.918,1.555,3.473,3.473,3.473s3.473-1.555,3.473-3.473V25.6
			C99.045,23.682,97.491,22.127,95.572,22.127z"/>
	</g>
</g>
<g>
	<g>
		<path d="M78.506,22.127c-1.918,0-3.473,1.555-3.473,3.473v13.653c0,1.918,1.555,3.473,3.473,3.473s3.473-1.555,3.473-3.473V25.6
			C81.979,23.682,80.424,22.127,78.506,22.127z"/>
	</g>
</g>
<g>
	<g>
		<path d="M37.546,39.253H10.239c-1.884,0-3.413,1.529-3.413,3.413s1.529,3.413,3.413,3.413h23.893v13.653
			c0,13.175-10.718,23.893-23.893,23.893c-1.884,0-3.413,1.529-3.413,3.413s1.529,3.413,3.413,3.413
			c16.939,0,30.72-13.781,30.72-30.72V42.667C40.959,40.782,39.43,39.253,37.546,39.253z"/>
	</g>
</g>
<g>
	<g>
		<path d="M163.839,83.627c-13.175,0-23.893-10.718-23.893-23.893V46.08h23.893c1.884,0,3.413-1.529,3.413-3.413
			s-1.529-3.413-3.413-3.413h-27.307c-1.884,0-3.413,1.529-3.413,3.413v17.067c0,16.939,13.781,30.72,30.72,30.72
			c1.884,0,3.413-1.529,3.413-3.413S165.723,83.627,163.839,83.627z"/>
	</g>
</g>
<g>
</g>
<g>
</g>
<g>
</g>
<g>
</g>
<g>
</g>
<g>
</g>
<g>
</g>
<g>
</g>
<g>
</g>
<g>
</g>
<g>
</g>
<g>
</g>
<g>
</g>
<g>
</g>
<g>
</g>
</svg>
