<?xml version="1.0" encoding="iso-8859-1"?>
<!-- Generator: Adobe Illustrator 19.0.0, SVG Export Plug-In . SVG Version: 6.00 Build 0)  -->
<svg version="1.1" id="Capa_1" xmlns="http://www.w3.org/2000/svg" xmlns:xlink="http://www.w3.org/1999/xlink" x="0px" y="0px"
	 viewBox="0 0 201.387 201.387" style="enable-background:new 0 0 201.387 201.387;" xml:space="preserve">
<g>
	<g>
		<path d="M178.712,63.095l-10.24-17.067c-0.616-1.029-1.727-1.657-2.927-1.657H35.838c-1.2,0-2.311,0.628-2.927,1.657
			l-10.24,17.067c-0.633,1.056-0.648,2.369-0.043,3.439s1.739,1.732,2.97,1.732h150.187c1.231,0,2.364-0.662,2.97-1.732
			S179.345,64.15,178.712,63.095z M31.626,61.44l6.146-10.24h125.841l6.144,10.24H31.626z"/>
	</g>
</g>
<g>
	<g>
		<path d="M179.197,64.679c-0.094-1.814-1.592-3.238-3.41-3.238H25.6c-1.818,0-3.316,1.423-3.41,3.238l-6.827,133.12
			c-0.048,0.934,0.29,1.848,0.934,2.526c0.645,0.677,1.539,1.062,2.475,1.062h163.84c0.935,0,1.83-0.384,2.478-1.062
			c0.643-0.678,0.981-1.591,0.934-2.526L179.197,64.679z M22.364,194.56l6.477-126.293h143.701l6.477,126.293H22.364z"/>
	</g>
</g>
<g>
	<g>
		<path d="M126.292,75.093c-5.647,0-10.24,4.593-10.24,10.24c0,5.647,4.593,10.24,10.24,10.24c5.647,0,10.24-4.593,10.24-10.24
			C136.532,79.686,131.939,75.093,126.292,75.093z M126.292,88.747c-1.883,0-3.413-1.531-3.413-3.413s1.531-3.413,3.413-3.413
			c1.882,0,3.413,1.531,3.413,3.413S128.174,88.747,126.292,88.747z"/>
	</g>
</g>
<g>
	<g>
		<path d="M75.092,75.093c-5.647,0-10.24,4.593-10.24,10.24c0,5.647,4.593,10.24,10.24,10.24c5.647,0,10.24-4.593,10.24-10.24
			C85.332,79.686,80.739,75.093,75.092,75.093z M75.092,88.747c-1.882,0-3.413-1.531-3.413-3.413s1.531-3.413,3.413-3.413
			s3.413,1.531,3.413,3.413S76.974,88.747,75.092,88.747z"/>
	</g>
</g>
<g>
	<g>
		<path d="M100.692,0C84.693,0,71.678,13.015,71.678,29.013v18.773c0,1.884,1.529,3.413,3.413,3.413h51.2
			c1.884,0,3.413-1.529,3.413-3.413V29.013C129.705,13.015,116.69,0,100.692,0z M122.878,44.373H78.505v-15.36
			c0-12.233,9.953-22.187,22.187-22.187s22.187,9.953,22.187,22.187V44.373z"/>
	</g>
</g>
<g>
	<g>
		<path d="M126.292,85.333h-0.263c-1.884,0-3.413,1.529-3.413,3.413c0,0.466,0.092,0.911,0.263,1.316v17.457
			c0,12.233-9.953,22.187-22.187,22.187s-22.187-9.953-22.187-22.187V88.747c0-1.884-1.529-3.413-3.413-3.413
			s-3.413,1.529-3.413,3.413v18.773c0,15.998,13.015,29.013,29.013,29.013s29.013-13.015,29.013-29.013V88.747
			C129.705,86.863,128.176,85.333,126.292,85.333z"/>
	</g>
</g>
<g>
	<g>
		<path d="M64.15,113.884L50.497,96.817c-1.318-1.647-4.106-1.647-5.422,0l-13.653,17.067c-0.493,0.616-0.761,1.381-0.761,2.169
			v51.2c0,1.917,1.553,3.471,3.471,3.471h27.307c1.918,0,3.471-1.555,3.473-3.471v-51.2
			C64.911,115.265,64.643,114.499,64.15,113.884z M57.967,163.782H37.603v-46.51l10.182-12.728l10.182,12.728V163.782z"/>
	</g>
</g>
<g>
	<g>
		<path d="M47.785,64.853c-1.884,0-3.413,1.529-3.413,3.413V102.4c0,1.884,1.529,3.413,3.413,3.413s3.413-1.529,3.413-3.413V68.267
			C51.198,66.382,49.669,64.853,47.785,64.853z"/>
	</g>
</g>
<g>
	<g>
		<path d="M160.425,163.782h-40.96c-1.917,0-3.471,1.555-3.471,3.471c0,1.917,1.553,3.471,3.471,3.471h40.96
			c1.918,0,3.471-1.555,3.471-3.471C163.896,165.337,162.343,163.782,160.425,163.782z"/>
	</g>
</g>
<g>
	<g>
		<path d="M160.425,177.435h-13.653c-1.917,0-3.471,1.555-3.471,3.471c0,1.917,1.553,3.471,3.471,3.471h13.653
			c1.918,0,3.471-1.555,3.471-3.471C163.896,178.99,162.343,177.435,160.425,177.435z"/>
	</g>
</g>
<g>
</g>
<g>
</g>
<g>
</g>
<g>
</g>
<g>
</g>
<g>
</g>
<g>
</g>
<g>
</g>
<g>
</g>
<g>
</g>
<g>
</g>
<g>
</g>
<g>
</g>
<g>
</g>
<g>
</g>
</svg>
