<?xml version="1.0" encoding="iso-8859-1"?>
<!-- Generator: Adobe Illustrator 19.0.0, SVG Export Plug-In . SVG Version: 6.00 Build 0)  -->
<svg version="1.1" id="Capa_1" xmlns="http://www.w3.org/2000/svg" xmlns:xlink="http://www.w3.org/1999/xlink" x="0px" y="0px"
	 viewBox="0 0 198.089 198.089" style="enable-background:new 0 0 198.089 198.089;" xml:space="preserve">
<g>
	<g>
		<path d="M150.245,0h-27.307c-1.917,0-3.471,1.553-3.471,3.471c0,11.261-9.161,20.422-20.422,20.422S78.623,14.732,78.623,3.471
			C78.623,1.555,77.07,0,75.151,0H47.845c-1.917,0-3.471,1.553-3.471,3.471v191.147c0,1.917,1.553,3.471,3.471,3.471h27.307
			c1.917,0,3.471-1.553,3.471-3.471c0-11.261,9.161-20.422,20.422-20.422s20.422,9.161,20.422,20.422
			c0,1.917,1.553,3.471,3.471,3.471h27.307c1.918,0,3.471-1.553,3.471-3.471V3.471C153.716,1.555,152.163,0,150.245,0z
			 M146.773,191.147h-20.582c-1.712-13.455-13.232-23.893-27.146-23.893c-13.914,0-25.434,10.438-27.146,23.893H51.316V6.943h20.582
			C73.61,20.398,85.13,30.836,99.045,30.836c13.914,0,25.434-10.438,27.146-23.893h20.582V191.147z"/>
	</g>
</g>
<g>
	<g>
		<path d="M67.756,58.027H60.93c-1.917,0-3.471,1.555-3.471,3.471c0,1.917,1.553,3.471,3.471,3.471h6.827
			c1.917,0,3.471-1.555,3.471-3.471S69.675,58.027,67.756,58.027z"/>
	</g>
</g>
<g>
	<g>
		<path d="M85.391,58.027h-6.827c-1.917,0-3.471,1.555-3.471,3.471c0,1.917,1.553,3.471,3.471,3.471h6.827
			c1.918,0,3.471-1.555,3.471-3.471S87.31,58.027,85.391,58.027z"/>
	</g>
</g>
<g>
	<g>
		<path d="M103.026,58.027H96.2c-1.917,0-3.471,1.555-3.471,3.471c0,1.917,1.553,3.471,3.471,3.471h6.827
			c1.918,0,3.471-1.555,3.471-3.471S104.945,58.027,103.026,58.027z"/>
	</g>
</g>
<g>
	<g>
		<path d="M120.663,58.027h-6.827c-1.917,0-3.471,1.555-3.471,3.471c0,1.917,1.553,3.471,3.471,3.471h6.827
			c1.917,0,3.471-1.555,3.471-3.471S122.581,58.027,120.663,58.027z"/>
	</g>
</g>
<g>
	<g>
		<path d="M138.298,58.027h-6.827c-1.917,0-3.471,1.555-3.471,3.471c0,1.917,1.553,3.471,3.471,3.471h6.827
			c1.918,0,3.471-1.555,3.471-3.471S140.216,58.027,138.298,58.027z"/>
	</g>
</g>
<g>
	<g>
		<path d="M112.698,81.92h-51.2c-1.917,0-3.471,1.555-3.471,3.471c0,1.917,1.553,3.471,3.471,3.471h51.2
			c1.918,0,3.471-1.555,3.471-3.471C116.169,83.475,114.616,81.92,112.698,81.92z"/>
	</g>
</g>
<g>
	<g>
		<path d="M129.765,95.573H61.498c-1.917,0-3.471,1.555-3.471,3.471s1.553,3.471,3.471,3.471h68.267
			c1.918,0,3.471-1.555,3.471-3.471S131.683,95.573,129.765,95.573z"/>
	</g>
</g>
<g>
	<g>
		<path d="M112.698,109.227h-51.2c-1.917,0-3.471,1.555-3.471,3.471c0,1.917,1.553,3.471,3.471,3.471h51.2
			c1.918,0,3.471-1.555,3.471-3.471C116.169,110.781,114.616,109.227,112.698,109.227z"/>
	</g>
</g>
<g>
	<g>
		<path d="M95.631,122.88H61.498c-1.917,0-3.471,1.555-3.471,3.471c0,1.917,1.553,3.471,3.471,3.471h34.133
			c1.918,0,3.471-1.555,3.471-3.471C99.103,124.435,97.55,122.88,95.631,122.88z"/>
	</g>
</g>
<g>
</g>
<g>
</g>
<g>
</g>
<g>
</g>
<g>
</g>
<g>
</g>
<g>
</g>
<g>
</g>
<g>
</g>
<g>
</g>
<g>
</g>
<g>
</g>
<g>
</g>
<g>
</g>
<g>
</g>
</svg>
