<?xml version="1.0" encoding="iso-8859-1"?>
<!-- Generator: Adobe Illustrator 19.0.0, SVG Export Plug-In . SVG Version: 6.00 Build 0)  -->
<svg version="1.1" id="Capa_1" xmlns="http://www.w3.org/2000/svg" xmlns:xlink="http://www.w3.org/1999/xlink" x="0px" y="0px"
	 viewBox="0 0 187.791 187.791" style="enable-background:new 0 0 187.791 187.791;" xml:space="preserve">
<g>
	<g>
		<path d="M175.027,51.595c-1.862-0.435-3.738,0.712-4.18,2.581c-0.442,1.867,0.712,3.738,2.58,4.18
			c4.033,0.954,7.028,4.697,7.383,9.073l-50.7,87.88c-0.961,1.662-0.391,3.785,1.271,4.745c0.55,0.316,1.145,0.466,1.734,0.466
			c1.203,0,2.369-0.625,3.011-1.736l51.2-88.747c0.304-0.529,0.464-1.128,0.464-1.737C187.791,60.243,182.543,53.375,175.027,51.595
			z"/>
	</g>
</g>
<g>
	<g>
		<path d="M171.385,17.095H85.333c-11.755,0-22.985,5.615-30.037,15.019L8.308,111.366l5.873,3.48l46.684-78.78
			c5.775-7.607,14.909-12.143,24.467-12.143h86.052c4.99,0,9.098,4.152,9.491,9.412l-50.737,91.331l5.966,3.316l51.63-92.935v-0.886
			C187.733,24.751,180.4,17.095,171.385,17.095z"/>
	</g>
</g>
<g>
	<g>
		<path d="M119.467,109.257h-102.4C7.656,109.257,0,116.913,0,126.323c0,9.411,7.656,17.067,17.067,17.067H66.56v-6.827H17.067
			c-5.647,0-10.24-4.593-10.24-10.24c0-5.647,4.593-10.24,10.24-10.24h102.4c5.647,0,10.24,4.593,10.24,10.24
			c0,5.647-4.593,10.24-10.24,10.24H98.418v6.827h21.048c9.411,0,17.067-7.656,17.067-17.067
			C136.533,116.913,128.877,109.257,119.467,109.257z"/>
	</g>
</g>
<g>
	<g>
		<path d="M95.573,122.91H17.067c-1.884,0-3.413,1.529-3.413,3.413c0,1.884,1.529,3.413,3.413,3.413h78.507
			c1.886,0,3.413-1.529,3.413-3.413C98.987,124.439,97.458,122.91,95.573,122.91z"/>
	</g>
</g>
<g>
	<g>
		<path d="M119.467,136.563h-21.05c-1.884,0-3.413,1.529-3.413,3.413s1.529,3.413,3.413,3.413h21.05
			c5.647,0,10.24,4.593,10.24,10.24c0,5.647-4.593,10.24-10.24,10.24h-102.4c-5.647,0-10.24-4.593-10.24-10.24
			c0-5.647,4.593-10.24,10.24-10.24H66.56c1.884,0,3.413-1.529,3.413-3.413s-1.529-3.413-3.413-3.413H17.067
			C7.656,136.563,0,144.219,0,153.63s7.656,17.067,17.067,17.067h102.4c9.411,0,17.067-7.656,17.067-17.067
			S128.877,136.563,119.467,136.563z"/>
	</g>
</g>
<g>
	<g>
		<path d="M119.467,150.217H40.96c-1.884,0-3.413,1.529-3.413,3.413s1.529,3.413,3.413,3.413h78.507
			c1.886,0,3.413-1.529,3.413-3.413S121.351,150.217,119.467,150.217z"/>
	</g>
</g>
<g>
</g>
<g>
</g>
<g>
</g>
<g>
</g>
<g>
</g>
<g>
</g>
<g>
</g>
<g>
</g>
<g>
</g>
<g>
</g>
<g>
</g>
<g>
</g>
<g>
</g>
<g>
</g>
<g>
</g>
</svg>
