<?xml version="1.0" encoding="iso-8859-1"?>
<!-- Generator: Adobe Illustrator 19.0.0, SVG Export Plug-In . SVG Version: 6.00 Build 0)  -->
<svg version="1.1" id="Capa_1" xmlns="http://www.w3.org/2000/svg" xmlns:xlink="http://www.w3.org/1999/xlink" x="0px" y="0px"
	 viewBox="0 0 198.093 198.093" style="enable-background:new 0 0 198.093 198.093;" xml:space="preserve">
<g>
	<g>
		<path d="M194.62,17.066h-68.502c-0.997,0-1.944,0.427-2.604,1.174c-0.661,0.749-0.966,1.742-0.843,2.731
			c0.143,1.143,0.21,2.092,0.21,2.983c0,13.141-10.692,23.835-23.834,23.835c-13.141,0-23.834-10.692-23.834-23.834
			c0-0.891,0.068-1.84,0.21-2.983c0.123-0.988-0.184-1.983-0.843-2.731c-0.661-0.747-1.608-1.174-2.604-1.174H3.473
			C1.555,17.068,0,18.622,0,20.541v37.547c0,1.567,1.05,2.939,2.56,3.352l31.573,8.612v107.503c0,1.918,1.555,3.473,3.473,3.473
			h122.88c1.918,0,3.473-1.555,3.473-3.473V70.049l31.573-8.612c1.512-0.413,2.56-1.785,2.56-3.352V20.539
			C198.093,18.621,196.538,17.066,194.62,17.066z M191.147,55.433l-31.573,8.612c-1.512,0.413-2.56,1.785-2.56,3.352v106.684H41.079
			V67.397c0-1.567-1.05-2.939-2.56-3.352L6.946,55.433v-31.42h61.321c0.031,16.945,13.827,30.72,30.78,30.72
			s30.747-13.774,30.78-30.72h61.321V55.433z"/>
	</g>
</g>
<g>
	<g>
		<path d="M77.865,66.158L64.212,49.091c-1.318-1.647-4.106-1.647-5.422,0L45.136,66.158c-0.493,0.616-0.761,1.381-0.761,2.169
			v37.547c0,1.917,1.553,3.471,3.471,3.471h27.307c1.918,0,3.471-1.555,3.473-3.471V68.327
			C78.626,67.539,78.358,66.772,77.865,66.158z M71.682,102.403H51.318V69.546L61.5,56.818l10.182,12.728V102.403z"/>
	</g>
</g>
<g>
	<g>
		<path d="M61.5,17.127c-1.884,0-3.413,1.529-3.413,3.413v34.133c0,1.884,1.529,3.413,3.413,3.413s3.413-1.529,3.413-3.413V20.541
			C64.913,18.656,63.384,17.127,61.5,17.127z"/>
	</g>
</g>
<g>
	<g>
		<path d="M160.486,47.847c-1.884,0-3.413,1.529-3.413,3.413v27.307c0,1.884,1.529,3.413,3.413,3.413s3.413-1.529,3.413-3.413
			V51.261C163.9,49.376,162.371,47.847,160.486,47.847z"/>
	</g>
</g>
<g>
	<g>
		<path d="M37.606,47.847c-1.884,0-3.413,1.529-3.413,3.413v37.547c0,1.884,1.529,3.413,3.413,3.413s3.413-1.529,3.413-3.413V51.261
			C41.02,49.376,39.491,47.847,37.606,47.847z"/>
	</g>
</g>
<g>
	<g>
		<path d="M143.42,71.681H112.7c-1.918,0-3.473,1.555-3.473,3.473c0,1.918,1.555,3.473,3.473,3.473h30.72
			c1.918,0,3.473-1.555,3.473-3.473C146.893,73.236,145.338,71.681,143.42,71.681z"/>
	</g>
</g>
<g>
</g>
<g>
</g>
<g>
</g>
<g>
</g>
<g>
</g>
<g>
</g>
<g>
</g>
<g>
</g>
<g>
</g>
<g>
</g>
<g>
</g>
<g>
</g>
<g>
</g>
<g>
</g>
<g>
</g>
</svg>
