<?xml version="1.0" encoding="UTF-8"?><svg id="Layer_2" xmlns="http://www.w3.org/2000/svg" xmlns:xlink="http://www.w3.org/1999/xlink" viewBox="0 0 2326.51 2326.51"><defs><style>.cls-1{fill:#be9a00;}.cls-2{filter:url(#drop-shadow-5);opacity:.25;}.cls-3{fill:#745d00;}.cls-4{fill:url(#Degradado_sin_nombre_27-4);}.cls-5{fill:url(#Degradado_sin_nombre_27-2);}.cls-6{fill:url(#Degradado_sin_nombre_27-3);}.cls-7,.cls-8{stroke-linecap:round;stroke-linejoin:round;stroke-width:.25px;}.cls-7,.cls-8,.cls-9,.cls-10,.cls-11,.cls-12{fill:none;}.cls-7,.cls-9,.cls-10,.cls-11,.cls-12{stroke:#fff;}.cls-13{fill:#fff;}.cls-8{stroke:#e2d7da;stroke-dasharray:4 10.01;}.cls-14{opacity:.9;}.cls-9{filter:url(#drop-shadow-1);}.cls-9,.cls-10,.cls-11,.cls-12{stroke-miterlimit:10;stroke-width:.05px;}.cls-10{filter:url(#drop-shadow-3);}.cls-11{filter:url(#drop-shadow-2);}.cls-12{filter:url(#drop-shadow-4);}.cls-15{fill:url(#Degradado_sin_nombre_36);}.cls-16{fill:url(#Degradado_sin_nombre_27);}.cls-17{fill:url(#Degradado_sin_nombre_39);}</style><filter id="drop-shadow-1" x="431" y="458.57" width="1453.21" height="1453.21" filterUnits="userSpaceOnUse"><feOffset dx=".5" dy=".5"/><feGaussianBlur result="blur" stdDeviation="0"/><feFlood flood-color="#000" flood-opacity=".75"/><feComposite in2="blur" operator="in"/><feComposite in="SourceGraphic"/></filter><filter id="drop-shadow-2" x="623.41" y="650.93" width="1068.39" height="1068.39" filterUnits="userSpaceOnUse"><feOffset dx=".5" dy=".5"/><feGaussianBlur result="blur-2" stdDeviation="0"/><feFlood flood-color="#000" flood-opacity=".75"/><feComposite in2="blur-2" operator="in"/><feComposite in="SourceGraphic"/></filter><filter id="drop-shadow-3" x="220.5" y="248.01" width="1874.23" height="1874.23" filterUnits="userSpaceOnUse"><feOffset dx=".5" dy=".5"/><feGaussianBlur result="blur-3" stdDeviation="0"/><feFlood flood-color="#000" flood-opacity=".75"/><feComposite in2="blur-3" operator="in"/><feComposite in="SourceGraphic"/></filter><filter id="drop-shadow-4" x="0" y="0" width="2326.51" height="2326.51" filterUnits="userSpaceOnUse"><feOffset dx=".5" dy=".5"/><feGaussianBlur result="blur-4" stdDeviation="0"/><feFlood flood-color="#000" flood-opacity=".75"/><feComposite in2="blur-4" operator="in"/><feComposite in="SourceGraphic"/></filter><filter id="drop-shadow-5" x="403.54" y="417.64" width="1526.74" height="1526.74" filterUnits="userSpaceOnUse"><feOffset dx="1" dy="1"/><feGaussianBlur result="blur-5" stdDeviation="0"/><feFlood flood-color="#353535" flood-opacity=".75"/><feComposite in2="blur-5" operator="in"/><feComposite in="SourceGraphic"/></filter><linearGradient id="Degradado_sin_nombre_27" x1="-733.92" y1="651.02" x2="-712.85" y2="651.02" gradientTransform="translate(1891.74 529.06)" gradientUnits="userSpaceOnUse"><stop offset="0" stop-color="#be9a00"/><stop offset=".24" stop-color="#f4dd32"/><stop offset=".75" stop-color="#be9a00"/></linearGradient><linearGradient id="Degradado_sin_nombre_27-2" x1="-4342.09" y1="-3264.47" x2="-4321.02" y2="-3264.47" gradientTransform="translate(5499.79 4444.44)" xlink:href="#Degradado_sin_nombre_27"/><linearGradient id="Degradado_sin_nombre_27-3" x1="-4123.68" y1="-8585.23" x2="-4102.61" y2="-8585.23" gradientTransform="translate(5281.25 9765.67)" xlink:href="#Degradado_sin_nombre_27"/><linearGradient id="Degradado_sin_nombre_27-4" x1="-207.39" y1="-12192.65" x2="-186.32" y2="-12192.65" gradientTransform="translate(1365.25 13372.45)" xlink:href="#Degradado_sin_nombre_27"/><linearGradient id="Degradado_sin_nombre_36" x1="-1173.2" y1="649.3" x2="-269.15" y2="649.3" gradientTransform="translate(1684.28 354.88) rotate(-16)" gradientUnits="userSpaceOnUse"><stop offset=".03" stop-color="#be9a00"/><stop offset=".24" stop-color="#f4dd32"/><stop offset=".75" stop-color="#be9a00"/><stop offset="1" stop-color="#745d00"/></linearGradient><linearGradient id="Degradado_sin_nombre_39" x1="-789.3" y1="765.18" x2="-657.47" y2="536.85" gradientTransform="translate(1684.28 354.88) rotate(-16)" gradientUnits="userSpaceOnUse"><stop offset=".03" stop-color="#be9a00"/><stop offset=".39" stop-color="#f4dd32"/><stop offset="1" stop-color="#be9a00"/></linearGradient></defs><g id="Layer_3"><circle class="cls-9" cx="1157.36" cy="1184.93" r="726.33"/><circle class="cls-11" cx="1157.36" cy="1184.88" r="533.92"/><circle class="cls-10" cx="1157.36" cy="1184.88" r="936.84"/><circle class="cls-12" cx="1163" cy="1163" r="1162.98"/><g class="cls-2"><path class="cls-13" d="M1177.32,1592.38l-.16-4.71c3.1-.1,6.25-.24,9.36-.41l.26,4.7c-3.15.17-6.33.31-9.46.42ZM1130,1591.25c-3.11-.25-6.28-.54-9.43-.87l.48-4.69c3.12.32,6.25.61,9.33.86l-.38,4.7ZM1233.83,1586.65l-.8-4.64c3.05-.52,6.15-1.09,9.21-1.69l.9,4.62c-3.1.61-6.23,1.18-9.32,1.71ZM1073.83,1582.81c-3.07-.68-6.18-1.41-9.23-2.16l1.13-4.57c3.01.74,6.08,1.46,9.12,2.13l-1.02,4.6ZM1289.01,1573.2l-1.43-4.49c2.95-.94,5.94-1.93,8.89-2.95l1.53,4.45c-2.98,1.03-6.01,2.03-8.99,2.98ZM1019.34,1566.7c-2.97-1.11-5.95-2.26-8.87-3.42l1.75-4.37c2.88,1.15,5.83,2.29,8.77,3.38l-1.65,4.41ZM1341.81,1552.25l-2.04-4.25c2.79-1.34,5.61-2.73,8.37-4.13l2.13,4.2c-2.8,1.42-5.65,2.83-8.47,4.18ZM967.58,1543.19c-2.77-1.5-5.56-3.05-8.3-4.61l2.34-4.09c2.71,1.55,5.47,3.08,8.2,4.56l-2.24,4.14ZM1391.18,1524.24l-2.6-3.93c2.56-1.69,5.16-3.46,7.74-5.25l2.69,3.87c-2.6,1.81-5.24,3.6-7.83,5.31ZM919.56,1512.79c-2.54-1.86-5.09-3.78-7.58-5.7l2.87-3.73c2.46,1.9,4.98,3.79,7.49,5.63l-2.79,3.8ZM1436.26,1489.73l-3.11-3.54c2.35-2.07,4.69-4.18,6.96-6.27l3.19,3.46c-2.29,2.11-4.66,4.25-7.03,6.34ZM876.17,1476.11c-2.27-2.2-4.53-4.45-6.72-6.67l3.36-3.3c2.17,2.2,4.4,4.42,6.65,6.6l-3.28,3.38ZM1476.22,1449.37l-3.57-3.08c2.02-2.34,4.05-4.75,6.04-7.16l3.64,3c-2.02,2.45-4.07,4.88-6.11,7.25ZM838.21,1433.87c-1.94-2.48-3.87-5.01-5.74-7.52l3.78-2.82c1.85,2.48,3.76,4.98,5.68,7.44l-3.71,2.9ZM1510.31,1403.92l-3.95-2.56c1.7-2.62,3.38-5.29,5.01-7.93l4.01,2.47c-1.65,2.68-3.35,5.37-5.07,8.02ZM806.38,1386.85c-1.57-2.71-3.14-5.48-4.65-8.23l4.13-2.27c1.5,2.72,3.05,5.46,4.6,8.13l-4.07,2.37ZM1537.84,1354.2l-4.27-1.99c1.32-2.82,2.62-5.7,3.87-8.55l4.31,1.89c-1.27,2.89-2.59,5.8-3.92,8.65ZM781.33,1335.93c-1.2-2.93-2.37-5.89-3.48-8.81l4.4-1.68c1.1,2.89,2.26,5.82,3.44,8.71l-4.36,1.78ZM1558.26,1301.15l-4.5-1.38c.91-2.97,1.8-5.99,2.65-8.98l4.53,1.28c-.85,3.03-1.75,6.08-2.68,9.09ZM763.53,1281.99c-.77-3.04-1.52-6.14-2.23-9.21l4.59-1.06c.7,3.03,1.44,6.1,2.21,9.1l-4.57,1.16ZM1571.13,1245.83l-4.65-.75c.49-3.04.95-6.16,1.38-9.27l4.67.64c-.43,3.14-.9,6.29-1.4,9.37ZM753.35,1226.11c-.35-3.12-.67-6.29-.94-9.43l4.69-.42c.28,3.1.59,6.24.93,9.32l-4.68.52ZM1576.28,1189.27l-4.71-.11c.07-3.1.11-6.25.11-9.37h4.71c0,3.15-.04,6.34-.11,9.47ZM755.62,1169.48l-4.71-.12c.08-3.13.19-6.32.34-9.47l4.71.22c-.15,3.11-.26,6.26-.34,9.36ZM1570.85,1153.6c-.2-3.11-.43-6.25-.7-9.34l4.69-.4c.27,3.12.51,6.3.71,9.45l-4.7.3ZM760.83,1113.58l-4.65-.76c.51-3.11,1.06-6.25,1.63-9.33l4.63.87c-.57,3.05-1.11,6.15-1.61,9.23ZM1563.46,1097.94c-.62-3.05-1.29-6.13-1.98-9.16l4.59-1.05c.7,3.06,1.37,6.17,2,9.26l-4.62.94ZM773.69,1058.92l-4.5-1.39c.93-3,1.91-6.05,2.92-9.05l4.47,1.5c-.99,2.97-1.97,5.98-2.89,8.95ZM1548.48,1043.83c-1.04-2.95-2.13-5.91-3.22-8.79l4.41-1.67c1.11,2.92,2.2,5.91,3.26,8.9l-4.44,1.57ZM794,1006.51l-4.26-2c1.34-2.86,2.74-5.74,4.14-8.55l4.22,2.1c-1.38,2.78-2.76,5.62-4.09,8.45ZM1526.15,992.3c-1.44-2.77-2.91-5.54-4.39-8.25l4.13-2.26c1.5,2.73,2.99,5.54,4.45,8.34l-4.18,2.17ZM821.34,957.43l-3.95-2.57c1.72-2.64,3.49-5.29,5.27-7.89l3.89,2.66c-1.76,2.57-3.51,5.19-5.21,7.8ZM1496.97,944.38c-1.81-2.55-3.66-5.1-5.49-7.57l3.78-2.81c1.86,2.5,3.73,5.08,5.55,7.66l-3.84,2.72ZM855.14,912.57l-3.56-3.09c2.06-2.37,4.17-4.76,6.29-7.09l3.49,3.17c-2.09,2.31-4.19,4.66-6.22,7.01ZM1461.48,900.87c-2.12-2.27-4.3-4.54-6.48-6.76l3.36-3.3c2.2,2.24,4.41,4.55,6.55,6.84l-3.44,3.22ZM894.75,872.75l-3.11-3.54c2.36-2.06,4.77-4.14,7.19-6.16l3.02,3.61c-2.39,2-4.78,4.05-7.11,6.09ZM1420.38,862.61c-2.43-1.97-4.9-3.93-7.35-5.82l2.88-3.73c2.48,1.91,4.98,3.9,7.43,5.89l-2.97,3.66ZM939.41,838.73l-2.59-3.94c2.63-1.73,5.3-3.45,7.96-5.11l2.5,3.99c-2.62,1.64-5.27,3.34-7.87,5.05ZM1374.42,830.32c-2.67-1.61-5.39-3.22-8.09-4.76l2.34-4.09c2.73,1.56,5.48,3.18,8.18,4.82l-2.44,4.03ZM988.28,811.16l-2.03-4.25c2.82-1.34,5.71-2.68,8.57-3.96l1.93,4.3c-2.83,1.27-5.69,2.59-8.47,3.92ZM1324.46,804.63c-2.86-1.23-5.78-2.44-8.67-3.61l1.76-4.37c2.93,1.18,5.88,2.4,8.78,3.65l-1.86,4.33ZM1040.5,790.59l-1.42-4.49c3.01-.95,6.06-1.88,9.07-2.75l1.31,4.52c-2.97.86-5.99,1.78-8.96,2.72ZM1271.4,786.1c-2.98-.82-6.03-1.61-9.06-2.36l1.14-4.57c3.07.76,6.15,1.57,9.17,2.39l-1.24,4.54ZM1095.08,777.43l-.79-4.65c3.11-.53,6.26-1.02,9.36-1.47l.68,4.66c-3.07.45-6.18.93-9.25,1.45ZM1216.35,775.08c-3.09-.4-6.22-.77-9.3-1.09l.49-4.68c3.12.33,6.28.7,9.41,1.1l-.6,4.67ZM1150.94,771.89l-.14-4.71c3.15-.1,6.33-.16,9.47-.18l.04,4.71c-3.1.02-6.25.08-9.36.18Z"/><path class="cls-13" d="M1176.37,1427.44l-.09-2.83c1.88-.06,3.75-.14,5.62-.25l.16,2.82c-1.89.1-3.78.19-5.68.25ZM1147.97,1426.77c-1.89-.15-3.78-.33-5.66-.52l.29-2.81c1.86.19,3.73.36,5.6.51l-.23,2.82ZM1210.29,1424l-.48-2.79c1.85-.32,3.69-.65,5.53-1.01l.54,2.77c-1.86.36-3.72.71-5.59,1.03ZM1114.25,1421.7c-1.85-.41-3.7-.84-5.54-1.3l.68-2.75c1.82.45,3.64.87,5.47,1.28l-.61,2.76ZM1243.41,1415.93l-.86-2.7c1.79-.57,3.57-1.16,5.34-1.77l.92,2.68c-1.79.62-3.59,1.21-5.4,1.79ZM1081.55,1412.03c-1.78-.67-3.56-1.35-5.32-2.06l1.05-2.63c1.74.7,3.5,1.38,5.26,2.03l-.99,2.65ZM1275.1,1403.35l-1.22-2.55c1.69-.81,3.36-1.64,5.03-2.48l1.28,2.52c-1.68.86-3.38,1.69-5.08,2.51ZM1050.48,1397.92c-1.67-.9-3.33-1.83-4.98-2.77l1.4-2.46c1.63.93,3.27,1.84,4.92,2.73l-1.34,2.49ZM1304.74,1386.54l-1.56-2.36c1.56-1.03,3.11-2.08,4.64-3.15l1.61,2.32c-1.55,1.08-3.12,2.14-4.7,3.19ZM1021.66,1379.67c-1.53-1.12-3.05-2.26-4.55-3.42l1.72-2.24c1.49,1.14,2.99,2.27,4.5,3.38l-1.67,2.28ZM1331.79,1365.83l-1.87-2.12c1.41-1.24,2.8-2.49,4.18-3.76l1.92,2.08c-1.39,1.28-2.8,2.55-4.22,3.81ZM995.61,1357.65c-1.36-1.32-2.71-2.66-4.04-4.01l2.02-1.98c1.31,1.34,2.64,2.66,3.99,3.96l-1.97,2.03ZM1355.78,1341.6l-2.14-1.85c1.23-1.42,2.43-2.85,3.63-4.3l2.18,1.8c-1.21,1.46-2.43,2.91-3.67,4.35ZM972.82,1332.3c-1.17-1.49-2.32-3-3.45-4.52l2.27-1.69c1.12,1.5,2.26,2.99,3.41,4.46l-2.23,1.74ZM1376.24,1314.32l-2.37-1.54c1.02-1.57,2.02-3.16,3.01-4.76l2.41,1.48c-1,1.62-2.01,3.22-3.04,4.81ZM953.72,1304.08c-.95-1.63-1.88-3.28-2.79-4.94l2.48-1.36c.9,1.64,1.82,3.27,2.76,4.88l-2.45,1.42ZM1392.77,1284.48l-2.56-1.2c.79-1.7,1.57-3.41,2.32-5.14l2.59,1.14c-.76,1.74-1.55,3.47-2.35,5.19ZM938.68,1273.51c-.72-1.75-1.41-3.52-2.09-5.29l2.64-1.01c.67,1.75,1.36,3.5,2.07,5.23l-2.62,1.07ZM1405.02,1252.64l-2.7-.83c.55-1.79,1.08-3.59,1.59-5.39l2.72.77c-.52,1.83-1.05,3.65-1.61,5.46ZM928,1241.13c-.47-1.83-.91-3.68-1.34-5.53l2.76-.63c.42,1.83.86,3.65,1.32,5.46l-2.74.7ZM1412.75,1219.43l-2.79-.45c.3-1.85.57-3.7.83-5.56l2.8.39c-.26,1.88-.54,3.76-.84,5.62ZM921.89,1207.59c-.21-1.88-.4-3.77-.57-5.66l2.82-.25c.17,1.87.35,3.74.56,5.6l-2.81.31ZM1415.84,1185.48l-2.83-.06c.04-1.87.06-3.74.06-5.62h2.83c0,1.9-.02,3.8-.06,5.69ZM923.25,1173.61l-2.83-.07c.05-1.9.12-3.79.21-5.68l2.82.13c-.09,1.87-.16,3.74-.2,5.62ZM1412.58,1164.07c-.12-1.87-.26-3.74-.42-5.61l2.82-.24c.16,1.88.31,3.78.42,5.67l-2.82.18ZM926.38,1140.05l-2.79-.45c.31-1.87.63-3.74.98-5.6l2.78.52c-.34,1.84-.67,3.68-.97,5.54ZM1408.15,1130.66c-.37-1.84-.77-3.67-1.19-5.5l2.76-.63c.42,1.85.82,3.7,1.2,5.56l-2.77.56ZM934.1,1107.24l-2.7-.84c.56-1.82,1.15-3.63,1.75-5.43l2.68.9c-.6,1.78-1.17,3.57-1.73,5.37ZM1399.15,1098.18c-.63-1.77-1.27-3.53-1.93-5.28l2.64-1c.67,1.77,1.32,3.55,1.96,5.34l-2.67.94ZM946.29,1075.78l-2.56-1.2c.81-1.72,1.64-3.43,2.48-5.13l2.53,1.26c-.84,1.68-1.66,3.37-2.45,5.07ZM1385.75,1067.26c-.86-1.66-1.74-3.31-2.64-4.95l2.48-1.36c.91,1.66,1.8,3.33,2.67,5.01l-2.51,1.3ZM962.7,1046.32l-2.37-1.54c1.04-1.59,2.09-3.17,3.16-4.74l2.33,1.6c-1.06,1.55-2.1,3.11-3.13,4.68ZM1368.23,1038.49c-1.08-1.53-2.18-3.04-3.3-4.55l2.27-1.68c1.13,1.52,2.24,3.05,3.33,4.6l-2.31,1.63ZM982.99,1019.39l-2.14-1.85c1.24-1.43,2.5-2.85,3.77-4.25l2.09,1.9c-1.26,1.39-2.5,2.79-3.73,4.21ZM1346.94,1012.38c-1.28-1.37-2.58-2.72-3.89-4.06l2.02-1.98c1.33,1.35,2.64,2.72,3.93,4.1l-2.06,1.93ZM1006.76,995.5l-1.86-2.13c1.42-1.25,2.86-2.48,4.32-3.7l1.81,2.17c-1.44,1.2-2.86,2.42-4.27,3.65ZM1322.26,989.41c-1.46-1.18-2.93-2.35-4.41-3.49l1.73-2.24c1.5,1.16,2.99,2.34,4.46,3.53l-1.78,2.2ZM1033.57,975.08l-1.55-2.36c1.58-1.04,3.17-2.06,4.78-3.07l1.5,2.4c-1.59.99-3.16,2-4.72,3.03ZM1294.68,970.02c-1.61-.97-3.22-1.92-4.85-2.86l1.41-2.45c1.65.95,3.29,1.91,4.91,2.89l-1.46,2.42ZM1062.9,958.53l-1.22-2.55c1.7-.81,3.42-1.6,5.15-2.38l1.16,2.58c-1.71.76-3.4,1.55-5.09,2.35ZM1264.69,954.61c-1.73-.74-3.46-1.46-5.21-2.16l1.06-2.62c1.77.71,3.52,1.44,5.27,2.19l-1.12,2.6ZM1094.24,946.18l-.85-2.7c1.81-.57,3.62-1.12,5.44-1.65l.79,2.71c-1.8.52-3.6,1.07-5.38,1.63ZM1232.84,943.48c-1.8-.49-3.62-.97-5.44-1.42l.68-2.74c1.84.46,3.68.94,5.5,1.44l-.75,2.73ZM1127.01,938.28l-.47-2.79c1.87-.32,3.74-.61,5.62-.88l.41,2.8c-1.86.27-3.71.56-5.55.87ZM1199.8,936.87c-1.86-.24-3.72-.46-5.58-.66l.3-2.81c1.89.2,3.77.42,5.65.66l-.36,2.8ZM1160.53,934.96l-.09-2.83c1.89-.06,3.78-.09,5.68-.11l.02,2.83c-1.88.01-3.75.05-5.62.11Z"/><path class="cls-13" d="M1087.54,627.99h153.73l45.59,128.19c32.86,9.35,64.63,22.53,94.54,39.19l122.92-58.43,108.7,108.71-58.43,122.92c16.67,29.91,29.84,61.68,39.19,94.54l128.19,45.59v153.73l-128.19,45.59c-9.36,32.86-22.53,64.63-39.19,94.53l58.43,122.92-108.7,108.71-122.92-58.43c-29.92,16.67-61.69,29.84-94.54,39.19l-45.59,128.19h-153.73l-45.59-128.19c-32.86-9.35-64.63-22.53-94.54-39.19l-122.92,58.43-108.71-108.71,2.46-5.15,55.98-117.76c-16.66-29.89-29.83-61.66-39.19-94.53l-128.19-45.59v-153.73l128.19-45.59c9.36-32.88,22.53-64.65,39.19-94.54l-58.43-122.93,4.04-4.02,104.67-104.68,5.15,2.46,117.76,55.98c29.91-16.66,61.68-29.83,94.54-39.19l45.59-128.19ZM1232.16,640.9h-135.51l-44.78,125.92-3.24.89c-34.07,9.42-66.97,23.06-97.79,40.53l-2.92,1.66-120.74-57.39-95.82,95.83,57.39,120.74-1.66,2.92c-17.47,30.79-31.11,63.69-40.54,97.78l-.9,3.24-125.92,44.78v135.51l125.92,44.78.9,3.23c9.43,34.09,23.06,66.99,40.54,97.78l1.66,2.92-57.39,120.74,95.82,95.82,120.74-57.4,2.92,1.66c30.82,17.48,63.72,31.12,97.79,40.54l3.24.89,44.78,125.92h135.51l44.78-125.92,3.24-.89c34.06-9.42,66.96-23.05,97.79-40.54l2.92-1.66,120.74,57.4,95.82-95.83-57.39-120.74,1.66-2.92c17.48-30.82,31.12-63.72,40.54-97.78l.89-3.23,125.92-44.78v-135.51l-125.92-44.78-.89-3.24c-9.42-34.07-23.06-66.96-40.54-97.79l-1.66-2.92,57.39-120.74-95.82-95.83-120.74,57.4-2.92-1.66c-30.82-17.48-63.72-31.12-97.79-40.53l-3.23-.89-44.78-125.92ZM1164.4,798.63c103.36,0,200.52,40.25,273.6,113.33,73.08,73.08,113.33,170.25,113.33,273.61s-40.25,200.52-113.33,273.6c-73.08,73.08-170.25,113.33-273.6,113.33s-200.52-40.25-273.6-113.33c-73.08-73.08-113.33-170.24-113.33-273.6s40.25-200.52,113.33-273.61c73.08-73.08,170.25-113.33,273.6-113.33ZM1164.4,1559.59c99.91,0,193.84-38.91,264.48-109.55,70.65-70.64,109.55-164.56,109.55-264.47s-38.91-193.83-109.55-264.48c-70.64-70.64-164.57-109.55-264.48-109.55s-193.83,38.91-264.48,109.55h0c-70.65,70.65-109.55,164.58-109.55,264.48s38.91,193.83,109.55,264.47c70.65,70.65,164.57,109.55,264.48,109.55Z"/><rect class="cls-16" x="1157.79" y="819" width="21.05" height="722.14" transform="translate(-280.01 367.74) rotate(-16)"/><rect class="cls-5" x="1157.79" y="819" width="21.05" height="722.14" transform="translate(-430.21 1629.78) rotate(-61)"/><rect class="cls-6" x="1157.79" y="819" width="21.05" height="722.14" transform="translate(355.97 2628.39) rotate(-106)"/><rect class="cls-4" x="1157.79" y="819" width="21.05" height="722.14" transform="translate(1618.02 2778.59) rotate(-151)"/><path class="cls-15" d="M1495.18,1025.45c-24.24-51.36-59.91-94.93-102.68-128.69l34.73-91.47-78.18-43.29-59.17,78.05c-51.28-18.38-107.16-25.56-163.56-18.89l-40.15-89.58-85.86,24.62,13.43,97.24c-51.36,24.24-94.97,59.8-128.72,102.56l-91.49-34.78-43.29,78.15,78.05,59.16c-18.38,51.28-23.67,106.61-17.01,163.01l-87.69,39.6,24.62,85.86,95.35-12.89c24.24,51.36,58.85,95.24,101.62,128.99l-35.26,91.63,77.91,43.36,59.04-78.01c51.28,18.38,106.62,23.92,163.02,17.26l39.61,87.94,85.86-24.62-12.96-95.58c51.36-24.24,95.2-58.97,128.96-101.73l91.61,35.2,43.35-77.94-78.02-59.05c18.38-51.28,25.81-107.17,19.14-163.57l89.83-40.15-24.62-85.86-97.47,13.5ZM1254.49,1480.63c-166,47.6-339.15-48.39-386.74-214.39-47.6-166,48.39-339.15,214.39-386.74,166-47.6,339.15,48.39,386.74,214.39,47.6,166-48.39,339.15-214.39,386.74Z"/><path class="cls-17" d="M1131.98,1053.37c-69.98,20.06-110.44,93.06-90.37,163.03,20.06,69.98,93.06,110.44,163.03,90.37,69.98-20.06,110.44-93.06,90.37-163.03-20.06-69.98-93.06-110.44-163.03-90.38ZM1184.46,1236.4c-31.11,8.92-63.56-9.07-72.48-40.18-8.92-31.11,9.07-63.56,40.18-72.48,31.11-8.92,63.56,9.07,72.48,40.18,8.92,31.11-9.07,63.56-40.18,72.48Z"/><path class="cls-1" d="M1089.18,804.58c4.17,14.56-4.24,29.75-18.81,33.92-14.56,4.18-29.75-4.24-33.92-18.81-4.17-14.56,4.24-29.75,18.81-33.92,14.56-4.17,29.75,4.24,33.92,18.81Z"/><path class="cls-3" d="M1055.26,785.78c14.56-4.17,29.75,4.24,33.92,18.81,4.17,14.56-4.24,29.75-18.81,33.92"/><circle class="cls-1" cx="833.55" cy="994.5" r="27.43" transform="translate(-236.07 259.83) rotate(-15.55)"/><path class="cls-3" d="M809.56,981.2c7.34-13.25,24.04-18.03,37.29-10.69,13.25,7.34,18.03,24.04,10.69,37.29"/><path class="cls-1" d="M792.82,1259.2c14.56-4.17,29.75,4.24,33.92,18.81,4.18,14.56-4.24,29.75-18.81,33.92-14.56,4.17-29.75-4.24-33.92-18.81-4.17-14.56,4.24-29.75,18.81-33.92Z"/><path class="cls-3" d="M774.02,1293.12c-4.17-14.56,4.24-29.75,18.81-33.92,14.56-4.17,29.75,4.24,33.92,18.81"/><circle class="cls-1" cx="982.74" cy="1514.83" r="27.43" transform="translate(-395.68 348.45) rotate(-16.79)"/><path class="cls-3" d="M969.44,1538.82c-13.25-7.34-18.03-24.04-10.69-37.29,7.34-13.25,24.04-18.03,37.29-10.69"/><path class="cls-1" d="M1247.44,1555.56c-4.17-14.56,4.24-29.75,18.81-33.92,14.56-4.17,29.75,4.24,33.92,18.81,4.17,14.56-4.24,29.75-18.81,33.92-14.56,4.17-29.75-4.24-33.92-18.81Z"/><path class="cls-3" d="M1281.36,1574.36c-14.56,4.17-29.75-4.24-33.92-18.81-4.17-14.56,4.24-29.75,18.81-33.92"/><path class="cls-1" d="M1489.77,1389.63c-13.25-7.34-18.03-24.04-10.69-37.29,7.34-13.25,24.04-18.03,37.29-10.69,13.25,7.34,18.03,24.04,10.69,37.29-7.34,13.25-24.04,18.04-37.29,10.69Z"/><path class="cls-3" d="M1527.06,1378.94c-7.34,13.25-24.04,18.04-37.29,10.69-13.25-7.34-18.03-24.04-10.69-37.29"/><path class="cls-1" d="M1543.8,1100.94c-14.56,4.17-29.75-4.24-33.92-18.81-4.17-14.56,4.24-29.75,18.81-33.92,14.56-4.17,29.75,4.24,33.92,18.81,4.17,14.56-4.24,29.75-18.81,33.92Z"/><path class="cls-3" d="M1562.61,1067.02c4.17,14.56-4.24,29.75-18.81,33.92-14.56,4.17-29.75-4.24-33.92-18.81"/><path class="cls-1" d="M1377.87,858.61c-7.34,13.25-24.04,18.03-37.29,10.69-13.25-7.34-18.03-24.04-10.69-37.29,7.34-13.25,24.04-18.03,37.29-10.69,13.25,7.34,18.04,24.04,10.69,37.29Z"/><path class="cls-3" d="M1367.18,821.32c13.25,7.34,18.04,24.04,10.69,37.29-7.34,13.25-24.04,18.03-37.29,10.69"/><g class="cls-14"><rect class="cls-13" x="1152.95" y="833.59" width="20.17" height="691.83" transform="translate(-280.06 366.26) rotate(-16)"/><rect class="cls-13" x="1152.95" y="833.59" width="20.17" height="691.83" transform="translate(-432.44 1624.87) rotate(-61)"/><rect class="cls-13" x="1152.95" y="833.59" width="20.17" height="691.83" transform="translate(349.78 2622.59) rotate(-106)"/><rect class="cls-13" x="1152.95" y="833.59" width="20.17" height="691.83" transform="translate(1608.39 2774.98) rotate(-151)"/><path class="cls-13" d="M1476.18,1031.37c-23.22-49.21-57.4-90.95-98.37-123.29l33.27-87.63-74.9-41.47-56.69,74.77c-49.13-17.61-102.66-24.48-156.69-18.1l-38.46-85.82-82.25,23.58,12.87,93.15c-49.21,23.22-90.98,57.29-123.32,98.25l-87.65-33.32-41.48,74.87,74.77,56.67c-17.61,49.13-22.68,102.13-16.29,156.17l-84.01,37.94,23.58,82.25,91.35-12.35c23.22,49.21,56.38,91.24,97.35,123.58l-33.78,87.78,74.64,41.54,56.56-74.74c49.13,17.61,102.14,22.92,156.18,16.53l37.94,84.25,82.25-23.58-12.42-91.57c49.21-23.22,91.21-56.5,123.54-97.46l87.76,33.72,41.53-74.67-74.74-56.57c17.61-49.13,24.72-102.67,18.34-156.7l86.06-38.47-23.58-82.25-93.38,12.94ZM1245.59,1467.45c-159.03,45.6-324.91-46.36-370.51-205.39-45.6-159.03,46.36-324.91,205.39-370.51,159.03-45.6,324.91,46.36,370.51,205.39,45.6,159.03-46.36,324.91-205.39,370.51Z"/><path class="cls-13" d="M1128.23,1058.12c-67.04,19.22-105.8,89.15-86.58,156.19,19.22,67.04,89.15,105.8,156.19,86.58,67.04-19.22,105.8-89.15,86.58-156.19-19.22-67.04-89.15-105.8-156.19-86.58ZM1178.5,1233.47c-29.8,8.55-60.89-8.69-69.44-38.49-8.55-29.8,8.69-60.89,38.49-69.44,29.8-8.55,60.89,8.69,69.44,38.49,8.55,29.8-8.69,60.89-38.49,69.44Z"/><path class="cls-13" d="M1087.23,819.78c4,13.95-4.07,28.5-18.02,32.5-13.95,4-28.5-4.07-32.5-18.02-4-13.95,4.07-28.5,18.02-32.5,13.95-4,28.5,4.07,32.5,18.02Z"/><path class="cls-13" d="M1054.72,801.76c13.95-4,28.5,4.07,32.5,18.02,4,13.95-4.07,28.5-18.02,32.5"/><circle class="cls-13" cx="842.32" cy="1001.72" r="26.28" transform="translate(-237.7 262.45) rotate(-15.55)"/><path class="cls-13" d="M819.34,988.98c7.04-12.69,23.03-17.28,35.72-10.24,12.69,7.04,17.28,23.03,10.24,35.72"/><path class="cls-13" d="M803.3,1255.31c13.95-4,28.5,4.07,32.5,18.02,4,13.95-4.07,28.5-18.02,32.5-13.95,4-28.5-4.07-32.5-18.02-4-13.95,4.07-28.5,18.02-32.5Z"/><path class="cls-13" d="M785.29,1287.81c-4-13.95,4.07-28.5,18.02-32.5,13.95-4,28.5,4.07,32.5,18.02"/><circle class="cls-13" cx="985.25" cy="1500.21" r="26.28" transform="translate(-391.35 348.55) rotate(-16.79)"/><path class="cls-13" d="M972.51,1523.2c-12.69-7.04-17.28-23.03-10.24-35.72,7.04-12.69,23.03-17.28,35.72-10.24"/><path class="cls-13" d="M1238.84,1539.23c-4-13.95,4.07-28.5,18.02-32.5,13.95-4,28.5,4.07,32.5,18.02,4,13.95-4.07,28.5-18.02,32.5-13.95,4-28.5-4.07-32.5-18.02Z"/><path class="cls-13" d="M1271.34,1557.25c-13.95,4-28.5-4.07-32.5-18.02-4-13.95,4.07-28.5,18.02-32.5"/><path class="cls-13" d="M1471,1380.27c-12.69-7.04-17.28-23.03-10.24-35.72,7.04-12.69,23.03-17.28,35.72-10.24,12.69,7.04,17.28,23.03,10.24,35.72-7.04,12.69-23.03,17.28-35.72,10.24Z"/><path class="cls-13" d="M1506.72,1370.03c-7.04,12.69-23.03,17.28-35.72,10.24-12.69-7.04-17.28-23.03-10.24-35.72"/><path class="cls-13" d="M1522.76,1103.7c-13.95,4-28.5-4.07-32.5-18.02-4-13.95,4.07-28.5,18.02-32.5,13.95-4,28.5,4.07,32.5,18.02,4,13.95-4.07,28.5-18.02,32.5Z"/><path class="cls-13" d="M1540.78,1071.2c4,13.95-4.07,28.5-18.02,32.5-13.95,4-28.5-4.07-32.5-18.02"/><path class="cls-13" d="M1363.79,871.54c-7.04,12.69-23.03,17.28-35.72,10.24-12.69-7.04-17.28-23.03-10.24-35.72,7.04-12.69,23.03-17.28,35.72-10.24,12.69,7.04,17.28,23.03,10.24,35.72Z"/><path class="cls-13" d="M1353.55,835.81c12.69,7.04,17.28,23.03,10.24,35.72-7.04,12.69-23.03,17.28-35.72,10.24"/></g><line class="cls-7" x1="1828.87" y1="1173.72" x2="1762.66" y2="1173.55"/><line class="cls-7" x1="1780.24" y1="1191.24" x2="1762.38" y2="1190.7"/><line class="cls-7" x1="1779.44" y1="1208.88" x2="1761.59" y2="1207.83"/><line class="cls-7" x1="1778.14" y1="1226.48" x2="1760.33" y2="1224.92"/><line class="cls-7" x1="1776.35" y1="1244.03" x2="1758.59" y2="1241.97"/><line class="cls-7" x1="1789.14" y1="1263.71" x2="1756.38" y2="1258.96"/><line class="cls-7" x1="1771.29" y1="1278.95" x2="1753.69" y2="1275.89"/><line class="cls-7" x1="1768.03" y1="1296.29" x2="1750.52" y2="1292.72"/><line class="cls-7" x1="1764.29" y1="1313.53" x2="1746.88" y2="1309.47"/><line class="cls-7" x1="1760.02" y1="1330.65" x2="1742.74" y2="1326.09"/><line class="cls-7" x1="1801.3" y1="1362.36" x2="1737.82" y2="1343.53"/><line class="cls-7" x1="1749.69" y1="1365.45" x2="1732.71" y2="1359.88"/><line class="cls-7" x1="1743.96" y1="1382.14" x2="1727.14" y2="1376.08"/><line class="cls-7" x1="1737.76" y1="1398.66" x2="1721.12" y2="1392.12"/><line class="cls-7" x1="1731.1" y1="1414.99" x2="1714.66" y2="1407.99"/><line class="cls-7" x1="1737.77" y1="1437.48" x2="1707.7" y2="1423.64"/><line class="cls-7" x1="1716.31" y1="1447.03" x2="1700.3" y2="1439.1"/><line class="cls-7" x1="1708.25" y1="1462.73" x2="1692.47" y2="1454.34"/><line class="cls-7" x1="1699.76" y1="1478.19" x2="1684.22" y2="1469.36"/><line class="cls-7" x1="1690.84" y1="1493.42" x2="1675.56" y2="1484.15"/><line class="cls-7" x1="1721.48" y1="1535.53" x2="1665.93" y2="1499.52"/><line class="cls-7" x1="1671.1" y1="1523.9" x2="1656.39" y2="1513.75"/><line class="cls-7" x1="1660.87" y1="1538.28" x2="1646.45" y2="1527.72"/><line class="cls-7" x1="1650.26" y1="1552.37" x2="1636.14" y2="1541.42"/><line class="cls-7" x1="1639.25" y1="1566.17" x2="1625.45" y2="1554.82"/><line class="cls-7" x1="1639.35" y1="1589.66" x2="1614.39" y2="1567.92"/><line class="cls-7" x1="1616.07" y1="1592.78" x2="1602.93" y2="1580.67"/><line class="cls-7" x1="1603.92" y1="1605.58" x2="1591.12" y2="1593.1"/><line class="cls-7" x1="1591.42" y1="1618.04" x2="1578.98" y2="1605.2"/><line class="cls-7" x1="1578.58" y1="1630.14" x2="1566.51" y2="1616.96"/><line class="cls-7" x1="1596.2" y1="1679.18" x2="1552.97" y2="1629.03"/><line class="cls-7" x1="1551.1" y1="1653.89" x2="1539.81" y2="1640.03"/><line class="cls-7" x1="1537.24" y1="1664.82" x2="1526.36" y2="1650.65"/><line class="cls-7" x1="1523.1" y1="1675.37" x2="1512.62" y2="1660.89"/><line class="cls-7" x1="1508.66" y1="1685.52" x2="1498.6" y2="1670.75"/><line class="cls-7" x1="1502.17" y1="1708.09" x2="1484.31" y2="1680.22"/><line class="cls-7" x1="1478.96" y1="1704.58" x2="1469.75" y2="1689.26"/><line class="cls-7" x1="1463.7" y1="1713.44" x2="1454.93" y2="1697.87"/><line class="cls-7" x1="1448.21" y1="1721.87" x2="1439.88" y2="1706.05"/><line class="cls-7" x1="1432.48" y1="1729.86" x2="1424.61" y2="1713.82"/><line class="cls-7" x1="1435.57" y1="1781.86" x2="1408.22" y2="1721.57"/><line class="cls-7" x1="1399.44" y1="1744.93" x2="1392.53" y2="1728.45"/><line class="cls-7" x1="1383.07" y1="1751.5" x2="1376.63" y2="1734.83"/><line class="cls-7" x1="1366.52" y1="1757.6" x2="1360.56" y2="1740.75"/><line class="cls-7" x1="1349.8" y1="1763.24" x2="1344.33" y2="1746.23"/><line class="cls-7" x1="1337.18" y1="1783.03" x2="1327.95" y2="1751.24"/><line class="cls-7" x1="1315.93" y1="1773.1" x2="1311.43" y2="1755.8"/><line class="cls-7" x1="1298.79" y1="1777.31" x2="1294.79" y2="1759.89"/><line class="cls-7" x1="1281.54" y1="1781.01" x2="1278.04" y2="1763.49"/><line class="cls-7" x1="1264.19" y1="1784.2" x2="1261.19" y2="1766.58"/><line class="cls-7" x1="1252.41" y1="1834.91" x2="1243.27" y2="1769.34"/><line class="cls-7" x1="1228.22" y1="1789.22" x2="1226.26" y2="1771.46"/><line class="cls-7" x1="1210.66" y1="1790.92" x2="1209.19" y2="1773.11"/><line class="cls-7" x1="1193.05" y1="1792.12" x2="1192.08" y2="1774.28"/><line class="cls-7" x1="1175.41" y1="1792.84" x2="1174.94" y2="1774.97"/><line class="cls-7" x1="1157.73" y1="1808.3" x2="1157.79" y2="1775.2"/><line class="cls-7" x1="1140.11" y1="1792.81" x2="1140.64" y2="1774.94"/><line class="cls-7" x1="1122.47" y1="1792.01" x2="1123.51" y2="1774.17"/><line class="cls-7" x1="1104.87" y1="1790.73" x2="1106.41" y2="1772.92"/><line class="cls-7" x1="1087.32" y1="1788.95" x2="1089.36" y2="1771.19"/><line class="cls-7" x1="1061.84" y1="1834.36" x2="1071.38" y2="1768.85"/><line class="cls-7" x1="1051.38" y1="1783.75" x2="1054.46" y2="1766.15"/><line class="cls-7" x1="1034.05" y1="1780.48" x2="1037.63" y2="1762.97"/><line class="cls-7" x1="1016.81" y1="1776.72" x2="1020.89" y2="1759.32"/><line class="cls-7" x1="999.7" y1="1772.43" x2="1004.27" y2="1755.15"/><line class="cls-7" x1="978.39" y1="1782.25" x2="987.78" y2="1750.51"/><line class="cls-7" x1="965.87" y1="1762.4" x2="971.43" y2="1745.41"/><line class="cls-7" x1="949.18" y1="1756.67" x2="955.22" y2="1739.85"/><line class="cls-7" x1="932.66" y1="1750.48" x2="939.18" y2="1733.84"/><line class="cls-7" x1="916.32" y1="1743.83" x2="923.31" y2="1727.39"/><line class="cls-7" x1="879.02" y1="1780.15" x2="906.75" y2="1720.03"/><line class="cls-7" x1="883.35" y1="1728.63" x2="891.3" y2="1712.62"/><line class="cls-7" x1="867.66" y1="1720.55" x2="876.06" y2="1704.78"/><line class="cls-7" x1="852.2" y1="1712.05" x2="861.04" y2="1696.52"/><line class="cls-7" x1="836.98" y1="1703.12" x2="846.26" y2="1687.84"/><line class="cls-7" x1="813.75" y1="1706.54" x2="831.74" y2="1678.75"/><line class="cls-7" x1="807.36" y1="1683.94" x2="817.49" y2="1669.21"/><line class="cls-7" x1="792.97" y1="1673.72" x2="803.52" y2="1659.29"/><line class="cls-7" x1="778.87" y1="1663.11" x2="789.82" y2="1648.98"/><line class="cls-7" x1="765.07" y1="1652.12" x2="776.41" y2="1638.3"/><line class="cls-7" x1="719.03" y1="1676.49" x2="762.55" y2="1626.6"/><line class="cls-7" x1="737.68" y1="1628.26" x2="749.81" y2="1615.13"/><line class="cls-7" x1="724.89" y1="1616.1" x2="737.38" y2="1603.32"/><line class="cls-7" x1="712.45" y1="1603.59" x2="725.29" y2="1591.16"/><line class="cls-7" x1="700.35" y1="1590.74" x2="713.54" y2="1578.68"/><line class="cls-7" x1="677.08" y1="1587.52" x2="702.13" y2="1565.88"/><line class="cls-7" x1="677.27" y1="1564.04" x2="691.12" y2="1552.74"/><line class="cls-7" x1="666.33" y1="1550.19" x2="680.5" y2="1539.3"/><line class="cls-7" x1="655.77" y1="1536.05" x2="670.24" y2="1525.56"/><line class="cls-7" x1="645.61" y1="1521.63" x2="660.37" y2="1511.55"/><line class="cls-7" x1="594.58" y1="1532.11" x2="650.35" y2="1496.44"/><line class="cls-7" x1="626" y1="1491.07" x2="641.33" y2="1481.87"/><line class="cls-7" x1="617.15" y1="1475.8" x2="632.73" y2="1467.04"/><line class="cls-7" x1="608.73" y1="1460.29" x2="624.56" y2="1451.98"/><line class="cls-7" x1="600.75" y1="1444.56" x2="616.8" y2="1436.7"/><line class="cls-7" x1="579.34" y1="1434.91" x2="609.48" y2="1421.21"/><line class="cls-7" x1="586.12" y1="1412.45" x2="602.59" y2="1405.53"/><line class="cls-7" x1="579.52" y1="1396.09" x2="596.19" y2="1389.64"/><line class="cls-7" x1="573.4" y1="1379.54" x2="590.25" y2="1373.57"/><line class="cls-7" x1="567.75" y1="1362.83" x2="584.76" y2="1357.34"/><line class="cls-7" x1="515.86" y1="1358.43" x2="579.46" y2="1340.01"/><line class="cls-7" x1="557.61" y1="1327.97" x2="574.91" y2="1323.49"/><line class="cls-7" x1="553.41" y1="1310.84" x2="570.84" y2="1306.85"/><line class="cls-7" x1="549.73" y1="1293.58" x2="567.26" y2="1290.1"/><line class="cls-7" x1="546.56" y1="1276.22" x2="564.18" y2="1273.24"/><line class="cls-7" x1="528.79" y1="1260.9" x2="561.57" y2="1256.3"/><line class="cls-7" x1="541.67" y1="1241.27" x2="559.43" y2="1239.29"/><line class="cls-7" x1="539.96" y1="1223.71" x2="557.77" y2="1222.23"/><line class="cls-7" x1="538.75" y1="1206.1" x2="556.59" y2="1205.12"/><line class="cls-7" x1="538.02" y1="1188.46" x2="555.88" y2="1187.98"/><line class="cls-7" x1="489.43" y1="1169.66" x2="555.64" y2="1169.83"/><line class="cls-7" x1="538.06" y1="1152.14" x2="555.92" y2="1152.68"/><line class="cls-7" x1="538.86" y1="1134.51" x2="556.7" y2="1135.55"/><line class="cls-7" x1="540.16" y1="1116.91" x2="557.96" y2="1118.46"/><line class="cls-7" x1="541.95" y1="1099.35" x2="559.7" y2="1101.41"/><line class="cls-7" x1="529.16" y1="1079.67" x2="561.92" y2="1084.42"/><line class="cls-7" x1="547" y1="1064.43" x2="564.61" y2="1067.49"/><line class="cls-7" x1="550.26" y1="1047.09" x2="567.78" y2="1050.66"/><line class="cls-7" x1="554.01" y1="1029.85" x2="571.41" y2="1033.92"/><line class="cls-7" x1="558.28" y1="1012.73" x2="575.56" y2="1017.29"/><line class="cls-7" x1="517" y1="981.02" x2="580.47" y2="999.85"/><line class="cls-7" x1="568.6" y1="977.93" x2="585.59" y2="983.5"/><line class="cls-7" x1="574.34" y1="961.24" x2="591.15" y2="967.3"/><line class="cls-7" x1="580.54" y1="944.73" x2="597.17" y2="951.26"/><line class="cls-7" x1="587.2" y1="928.39" x2="603.64" y2="935.39"/><line class="cls-7" x1="580.53" y1="905.9" x2="610.6" y2="919.74"/><line class="cls-7" x1="601.98" y1="896.35" x2="618" y2="904.28"/><line class="cls-7" x1="610.04" y1="880.65" x2="625.83" y2="889.04"/><line class="cls-7" x1="618.54" y1="865.19" x2="634.08" y2="874.02"/><line class="cls-7" x1="627.46" y1="849.96" x2="642.74" y2="859.23"/><line class="cls-7" x1="596.81" y1="807.85" x2="652.37" y2="843.86"/><line class="cls-7" x1="647.2" y1="819.48" x2="661.91" y2="829.63"/><line class="cls-7" x1="657.42" y1="805.1" x2="671.85" y2="815.66"/><line class="cls-7" x1="668.04" y1="791.01" x2="682.16" y2="801.97"/><line class="cls-7" x1="679.05" y1="777.21" x2="692.85" y2="788.56"/><line class="cls-7" x1="678.94" y1="753.72" x2="703.91" y2="775.46"/><line class="cls-7" x1="702.23" y1="750.6" x2="715.37" y2="762.71"/><line class="cls-7" x1="714.38" y1="737.8" x2="727.17" y2="750.28"/><line class="cls-7" x1="726.88" y1="725.34" x2="739.32" y2="738.18"/><line class="cls-7" x1="739.72" y1="713.24" x2="751.79" y2="726.42"/><line class="cls-7" x1="722.1" y1="664.2" x2="765.33" y2="714.35"/><line class="cls-7" x1="767.2" y1="689.49" x2="778.48" y2="703.36"/><line class="cls-7" x1="781.05" y1="678.56" x2="791.94" y2="692.74"/><line class="cls-7" x1="795.2" y1="668.01" x2="805.68" y2="682.49"/><line class="cls-7" x1="809.64" y1="657.86" x2="819.7" y2="672.63"/><line class="cls-7" x1="816.13" y1="635.29" x2="833.99" y2="663.16"/><line class="cls-7" x1="839.33" y1="638.8" x2="848.54" y2="654.12"/><line class="cls-7" x1="854.59" y1="629.94" x2="863.36" y2="645.52"/><line class="cls-7" x1="870.09" y1="621.51" x2="878.42" y2="637.33"/><line class="cls-7" x1="885.82" y1="613.52" x2="893.69" y2="629.56"/><line class="cls-7" x1="882.73" y1="561.52" x2="910.08" y2="621.81"/><line class="cls-7" x1="918.85" y1="598.45" x2="925.77" y2="614.94"/><line class="cls-7" x1="935.23" y1="591.88" x2="941.67" y2="608.56"/><line class="cls-7" x1="951.78" y1="585.78" x2="957.74" y2="602.63"/><line class="cls-7" x1="968.5" y1="580.14" x2="973.97" y2="597.15"/><line class="cls-7" x1="981.12" y1="560.35" x2="990.35" y2="592.14"/><line class="cls-7" x1="1002.37" y1="570.29" x2="1006.87" y2="587.58"/><line class="cls-7" x1="1019.51" y1="566.08" x2="1023.5" y2="583.5"/><line class="cls-7" x1="1036.76" y1="562.37" x2="1040.25" y2="579.89"/><line class="cls-7" x1="1054.11" y1="559.18" x2="1057.11" y2="576.8"/><line class="cls-7" x1="1065.89" y1="508.47" x2="1075.03" y2="574.04"/><line class="cls-7" x1="1090.07" y1="554.16" x2="1092.04" y2="571.92"/><line class="cls-7" x1="1107.64" y1="552.46" x2="1109.11" y2="570.27"/><line class="cls-7" x1="1125.25" y1="551.26" x2="1126.21" y2="569.1"/><line class="cls-7" x1="1142.89" y1="550.54" x2="1143.35" y2="568.41"/><line class="cls-7" x1="1160.57" y1="535.08" x2="1160.51" y2="568.18"/><line class="cls-7" x1="1178.19" y1="550.58" x2="1177.66" y2="568.44"/><line class="cls-7" x1="1195.82" y1="551.37" x2="1194.79" y2="569.21"/><line class="cls-7" x1="1213.42" y1="552.65" x2="1211.89" y2="570.46"/><line class="cls-7" x1="1230.98" y1="554.43" x2="1228.94" y2="572.19"/><line class="cls-7" x1="1256.46" y1="509.02" x2="1246.91" y2="574.53"/><line class="cls-7" x1="1266.91" y1="559.63" x2="1263.83" y2="577.24"/><line class="cls-7" x1="1284.25" y1="562.9" x2="1280.67" y2="580.41"/><line class="cls-7" x1="1301.49" y1="566.66" x2="1297.41" y2="584.06"/><line class="cls-7" x1="1318.6" y1="570.96" x2="1314.02" y2="588.23"/><line class="cls-7" x1="1339.9" y1="561.13" x2="1330.51" y2="592.87"/><line class="cls-7" x1="1352.43" y1="580.99" x2="1346.87" y2="597.97"/><line class="cls-7" x1="1369.11" y1="586.71" x2="1363.07" y2="603.53"/><line class="cls-7" x1="1385.64" y1="592.9" x2="1379.12" y2="609.54"/><line class="cls-7" x1="1401.98" y1="599.55" x2="1394.99" y2="615.99"/><line class="cls-7" x1="1439.28" y1="563.23" x2="1411.55" y2="623.35"/><line class="cls-7" x1="1434.95" y1="614.76" x2="1427" y2="630.77"/><line class="cls-7" x1="1450.64" y1="622.83" x2="1442.24" y2="638.6"/><line class="cls-7" x1="1466.1" y1="631.33" x2="1457.25" y2="646.86"/><line class="cls-7" x1="1481.32" y1="640.26" x2="1472.04" y2="655.54"/><line class="cls-7" x1="1504.54" y1="636.84" x2="1486.56" y2="664.64"/><line class="cls-7" x1="1510.94" y1="659.44" x2="1500.8" y2="674.17"/><line class="cls-7" x1="1525.32" y1="669.66" x2="1514.78" y2="684.09"/><line class="cls-7" x1="1539.43" y1="680.27" x2="1528.48" y2="694.4"/><line class="cls-7" x1="1553.23" y1="691.27" x2="1541.89" y2="705.08"/><line class="cls-7" x1="1599.27" y1="666.89" x2="1555.75" y2="716.78"/><line class="cls-7" x1="1580.62" y1="715.12" x2="1568.49" y2="728.25"/><line class="cls-7" x1="1593.4" y1="727.28" x2="1580.91" y2="740.06"/><line class="cls-7" x1="1605.85" y1="739.79" x2="1593.01" y2="752.22"/><line class="cls-7" x1="1617.95" y1="752.64" x2="1604.76" y2="764.7"/><line class="cls-7" x1="1641.22" y1="755.86" x2="1616.16" y2="777.5"/><line class="cls-7" x1="1641.02" y1="779.34" x2="1627.17" y2="790.64"/><line class="cls-7" x1="1651.97" y1="793.19" x2="1637.8" y2="804.09"/><line class="cls-7" x1="1662.52" y1="807.33" x2="1648.06" y2="817.82"/><line class="cls-7" x1="1672.69" y1="821.76" x2="1657.93" y2="831.83"/><line class="cls-7" x1="1723.72" y1="811.27" x2="1667.95" y2="846.95"/><line class="cls-7" x1="1692.3" y1="852.32" x2="1676.97" y2="861.51"/><line class="cls-7" x1="1701.14" y1="867.58" x2="1685.57" y2="876.34"/><line class="cls-7" x1="1709.56" y1="883.09" x2="1693.74" y2="891.4"/><line class="cls-7" x1="1717.55" y1="898.82" x2="1701.49" y2="906.68"/><line class="cls-7" x1="1738.95" y1="908.47" x2="1708.82" y2="922.17"/><line class="cls-7" x1="1732.18" y1="930.93" x2="1715.71" y2="937.85"/><line class="cls-7" x1="1738.78" y1="947.29" x2="1722.11" y2="953.74"/><line class="cls-7" x1="1744.89" y1="963.84" x2="1728.05" y2="969.81"/><line class="cls-7" x1="1750.54" y1="980.55" x2="1733.53" y2="986.04"/><line class="cls-7" x1="1802.43" y1="984.95" x2="1738.84" y2="1003.37"/><line class="cls-7" x1="1760.69" y1="1015.41" x2="1743.38" y2="1019.89"/><line class="cls-7" x1="1764.88" y1="1032.55" x2="1747.46" y2="1036.53"/><line class="cls-7" x1="1768.57" y1="1049.8" x2="1751.04" y2="1053.28"/><line class="cls-7" x1="1771.74" y1="1067.16" x2="1754.12" y2="1070.14"/><line class="cls-7" x1="1789.51" y1="1082.48" x2="1756.73" y2="1087.08"/><line class="cls-7" x1="1776.63" y1="1102.11" x2="1758.86" y2="1104.09"/><line class="cls-7" x1="1778.33" y1="1119.67" x2="1760.52" y2="1121.15"/><line class="cls-7" x1="1779.55" y1="1137.28" x2="1761.71" y2="1138.26"/><line class="cls-7" x1="1780.28" y1="1154.92" x2="1762.42" y2="1155.4"/><path class="cls-8" d="M1929.16,1180.51c0-421.6-341.15-762.75-762.75-762.75s-762.75,341.15-762.75,762.75,341.15,762.75,762.75,762.75,762.75-341.15,762.75-762.75Z"/></g></g></svg>