<?xml version="1.0" encoding="iso-8859-1"?>
<!-- Generator: Adobe Illustrator 19.0.0, SVG Export Plug-In . SVG Version: 6.00 Build 0)  -->
<svg version="1.1" id="Capa_1" xmlns="http://www.w3.org/2000/svg" xmlns:xlink="http://www.w3.org/1999/xlink" x="0px" y="0px"
	 viewBox="0 0 511.999 511.999" style="enable-background:new 0 0 511.999 511.999;" xml:space="preserve">
<g>
	<g>
		<path d="M511.983,129.713c-0.013-0.38-0.022-0.75-0.084-1.126c-0.071-0.415-0.203-0.808-0.336-1.214
			c-0.119-0.375-0.23-0.751-0.402-1.108c-0.049-0.102-0.057-0.212-0.11-0.309c-0.159-0.3-0.393-0.539-0.583-0.817
			c-0.163-0.243-0.265-0.512-0.455-0.737l-88.296-105.84c-1.678-2.013-4.159-3.174-6.781-3.174H79.413
			c-2.949,0-5.704,1.475-7.346,3.929L1.431,125.157c-0.093,0.137-0.128,0.291-0.208,0.433c-0.079,0.132-0.194,0.234-0.265,0.371
			c-0.115,0.216-0.15,0.45-0.243,0.675c-0.163,0.384-0.313,0.764-0.419,1.166c-0.102,0.375-0.159,0.746-0.207,1.13
			c-0.053,0.397-0.093,0.79-0.088,1.192c0.004,0.393,0.044,0.773,0.097,1.157c0.053,0.393,0.124,0.777,0.23,1.161
			c0.106,0.384,0.252,0.75,0.415,1.117c0.097,0.221,0.132,0.455,0.247,0.671c0.079,0.15,0.207,0.26,0.296,0.406
			c0.088,0.146,0.128,0.309,0.225,0.45l247.228,357.712c0.057,0.084,0.137,0.141,0.194,0.221c0.309,0.415,0.649,0.799,1.024,1.152
			c0.124,0.119,0.243,0.238,0.375,0.349c0.468,0.393,0.967,0.751,1.51,1.042c0.088,0.044,0.181,0.075,0.265,0.119
			c0.481,0.238,0.984,0.424,1.505,0.574c0.163,0.044,0.322,0.088,0.486,0.128c0.614,0.137,1.241,0.23,1.89,0.23
			c0.004,0,0.004,0,0.009,0c0,0,0,0,0.004,0c0.658,0,1.289-0.097,1.907-0.234c0.155-0.035,0.3-0.075,0.45-0.115
			c0.552-0.155,1.082-0.349,1.585-0.6c0.062-0.031,0.128-0.053,0.194-0.084c0.561-0.3,1.077-0.662,1.558-1.073
			c0.106-0.088,0.203-0.185,0.305-0.278c0.415-0.388,0.799-0.812,1.135-1.276c0.035-0.053,0.088-0.088,0.128-0.141l0.124-0.181
			c0.004-0.004,0.009-0.013,0.013-0.018L510.49,135.099c0.15-0.216,0.221-0.468,0.353-0.698c0.115-0.203,0.283-0.366,0.38-0.583
			c0.075-0.159,0.084-0.313,0.141-0.459c0.168-0.415,0.283-0.839,0.388-1.271c0.088-0.366,0.177-0.724,0.216-1.095
			C512.014,130.565,512,130.141,511.983,129.713z M410.805,33.046l73.563,88.181H348.433l-73.568-88.181H410.805z M325.432,121.223
			H186.569L256,38L325.432,121.223z M237.136,33.046l-20.268,24.295l-14.582-24.295H237.136z M181.695,33.046l22.59,37.654
			c0.199,0.331,0.468,0.587,0.702,0.883l-18.939,22.701l-36.74-61.237H181.695z M128.718,33.046l45.357,75.59l-10.503,12.591
			h-16.171L91.285,33.046H128.718z M77.082,43.62l49.388,77.607H94.565L62.611,65.305L77.082,43.62z M51.653,81.719l22.573,39.503
			H25.288L51.653,81.719z M25.615,138.886h135.181L235.9,443.149L25.615,138.886z M256.014,450.923l-77.025-312.037h154.041
			L256.014,450.923z M276.123,443.131l11.461-46.435l10.737,14.317L276.123,443.131z M308.907,395.694l-15.858-21.142l10.07-40.801
			l23.862,35.791L308.907,395.694z M337.784,353.913l-28.93-43.393l8.706-35.274l37.217,52.099c0.23,0.322,0.516,0.569,0.781,0.852
			L337.784,353.913z M366.145,312.877l-41.146-57.604c-0.57-0.795-1.267-1.435-2.018-1.982l8.128-32.921l49.799,71.149
			L366.145,312.877z M391.618,276.023l-54.893-78.42l8.543-34.616l61.114,91.673L391.618,276.023z M417.184,239.031l-65.537-98.308
			c-0.203-0.305-0.45-0.556-0.68-0.826l0.252-1.011h34.541l53.286,68.513L417.184,239.031z M449.571,192.168l-41.442-53.282h30.727
			l25.504,31.884L449.571,192.168z M474.846,155.601l-13.372-16.714h24.926L474.846,155.601z"/>
	</g>
</g>
<g>
</g>
<g>
</g>
<g>
</g>
<g>
</g>
<g>
</g>
<g>
</g>
<g>
</g>
<g>
</g>
<g>
</g>
<g>
</g>
<g>
</g>
<g>
</g>
<g>
</g>
<g>
</g>
<g>
</g>
</svg>
