<?xml version="1.0" encoding="iso-8859-1"?>
<!-- Generator: Adobe Illustrator 19.0.0, SVG Export Plug-In . SVG Version: 6.00 Build 0)  -->
<svg version="1.1" id="Capa_1" xmlns="http://www.w3.org/2000/svg" xmlns:xlink="http://www.w3.org/1999/xlink" x="0px" y="0px"
	 viewBox="0 0 512 512" style="enable-background:new 0 0 512 512;" xml:space="preserve">
<g>
	<g>
		<path d="M205.572,338.581H16.516v-32.735c0-23.585,23.123-42.768,51.543-42.773c0.45,0,0.9-0.033,1.346-0.107l64.661-10.665
			c4.497-0.743,7.544-4.992,6.801-9.493c-0.743-4.497-4.984-7.569-9.493-6.801l-64.012,10.558C30.154,246.887,0,273.358,0,305.846
			v40.993c0,4.558,3.7,8.258,8.258,8.258h197.314c4.563,0,8.258-3.7,8.258-8.258C213.83,342.28,210.131,338.581,205.572,338.581z"/>
	</g>
</g>
<g>
	<g>
		<path d="M190.39,189.935h-66.519c-4.558,0-8.258,3.7-8.258,8.258v41.29c0,3.266,1.92,6.222,4.905,7.544
			c12.668,5.632,26.574,8.506,40.547,8.506c7.193,0,14.406-0.76,21.475-2.3c4.455-0.966,7.284-5.364,6.313-9.823
			c-0.966-4.455-5.347-7.284-9.823-6.313c-15.653,3.402-32.107,2.267-46.902-3.171v-27.475h58.261c4.558,0,8.258-3.7,8.258-8.258
			S194.948,189.935,190.39,189.935z"/>
	</g>
</g>
<g>
	<g>
		<path d="M165.165,8.258h-8.258c-45.535,0-82.581,37.046-82.581,82.581v73.224c0,23.374,19.014,42.389,42.389,42.389h74.69
			c4.558,0,8.258-3.7,8.258-8.258s-3.7-8.258-8.258-8.258h-74.69c-14.266,0-25.872-11.607-25.872-25.872V90.839
			c0-36.426,29.638-66.065,66.065-66.065h8.258c36.426,0,66.065,29.638,66.065,66.065v73.224c0,4.558,3.7,8.258,8.258,8.258
			c4.558,0,8.258-3.7,8.258-8.258V90.839C247.746,45.304,210.7,8.258,165.165,8.258z"/>
	</g>
</g>
<g>
	<g>
		<path d="M444.635,246.569l-62.712-10.343c-4.546-0.764-8.749,2.304-9.493,6.8c-0.743,4.505,2.304,8.749,6.805,9.493l63.364,10.451
			c0.442,0.07,0.892,0.107,1.342,0.107c28.42,0,51.543,19.183,51.543,42.768v32.735H304.45c-4.558,0-8.258,3.7-8.258,8.258
			c0,4.558,3.7,8.258,8.258,8.258h199.292c4.558,0,8.258-3.7,8.258-8.258v-40.993C512,273.358,481.846,246.887,444.635,246.569z"/>
	</g>
</g>
<g>
	<g>
		<path d="M388.129,189.935h-61.646c-4.558,0-8.258,3.7-8.258,8.258s3.7,8.258,8.258,8.258h53.388v27.475
			c-12.069,4.451-25.199,6.028-38.268,4.579c-4.501-0.479-8.613,2.766-9.121,7.3c-0.5,4.534,2.766,8.613,7.3,9.117
			c3.757,0.417,7.511,0.623,11.252,0.623c13.985-0.004,27.788-2.89,40.448-8.514c2.981-1.325,4.905-4.282,4.905-7.548v-41.29
			C396.387,193.635,392.687,189.935,388.129,189.935z"/>
	</g>
</g>
<g>
	<g>
		<path d="M355.101,8.258h-8.258c-45.535,0-82.581,37.046-82.581,82.581v73.224c0,4.558,3.7,8.258,8.258,8.258
			c4.558,0,8.258-3.7,8.258-8.258V90.839c0-36.426,29.638-66.065,66.065-66.065h8.258c36.426,0,66.065,29.638,66.065,66.065v73.224
			c0,14.266-11.607,25.872-25.872,25.872H329.01c-4.558,0-8.258,3.7-8.258,8.258s3.7,8.258,8.258,8.258h66.279
			c23.374,0,42.389-19.014,42.393-42.389V90.839C437.682,45.304,400.636,8.258,355.101,8.258z"/>
	</g>
</g>
<g>
	<g>
		<path d="M353.804,395.219l-57.839-9.546c-4.546-0.731-8.745,2.308-9.493,6.805c-0.743,4.501,2.304,8.749,6.805,9.493l58.488,9.65
			c0.442,0.07,0.892,0.107,1.342,0.107c28.42,0,51.543,19.183,51.543,42.768v32.731H115.617v-32.739
			c0-23.585,23.123-42.768,51.543-42.768c0.45,0,0.9-0.033,1.342-0.107l61.101-10.075c4.501-0.743,7.548-4.992,6.805-9.493
			c-0.739-4.497-5.008-7.523-9.488-6.805l-60.457,9.972c-37.207,0.322-67.361,26.793-67.361,59.281v40.993
			c0,4.558,3.7,8.258,8.258,8.258h305.548c4.558,0,8.258-3.7,8.262-8.258v-40.985C421.17,422.012,391.019,395.541,353.804,395.219z"
			/>
	</g>
</g>
<g>
	<g>
		<path d="M297.29,338.581h-74.323c-4.558,0-8.258,3.7-8.258,8.258v41.29c0,3.262,1.92,6.222,4.905,7.548
			c12.684,5.632,26.599,8.452,40.514,8.452s27.83-2.82,40.514-8.452c2.981-1.325,4.905-4.286,4.905-7.548v-41.29
			C305.548,342.28,301.849,338.581,297.29,338.581z M289.032,382.567c-18.436,6.759-39.37,6.759-57.806,0v-27.47h57.806V382.567z"/>
	</g>
</g>
<g>
	<g>
		<path d="M264.262,156.903h-8.258c-45.535,0-82.581,37.046-82.581,82.581v73.224c0,23.374,19.014,42.389,42.389,42.389h88.638
			c23.374,0,42.389-19.01,42.393-42.389v-73.224C346.843,193.949,309.797,156.903,264.262,156.903z M330.327,312.708
			c-0.004,14.266-11.611,25.872-25.877,25.872h-88.638c-14.266,0-25.873-11.607-25.873-25.872v-73.224
			c0-36.426,29.638-66.065,66.065-66.065h8.258c36.426,0,66.065,29.638,66.065,66.065V312.708z"/>
	</g>
</g>
<g>
</g>
<g>
</g>
<g>
</g>
<g>
</g>
<g>
</g>
<g>
</g>
<g>
</g>
<g>
</g>
<g>
</g>
<g>
</g>
<g>
</g>
<g>
</g>
<g>
</g>
<g>
</g>
<g>
</g>
</svg>
