<?xml version="1.0" encoding="iso-8859-1"?>
<!-- Generator: Adobe Illustrator 19.0.0, SVG Export Plug-In . SVG Version: 6.00 Build 0)  -->
<svg version="1.1" id="Capa_1" xmlns="http://www.w3.org/2000/svg" xmlns:xlink="http://www.w3.org/1999/xlink" x="0px" y="0px"
	 viewBox="0 0 511.992 511.992" style="enable-background:new 0 0 511.992 511.992;" xml:space="preserve">
<g>
	<g>
		<path d="M123.883,165.414l-42.781-7.055c-0.898-0.151-1.826-0.151-2.728,0l-42.781,7.055C15.901,165.758,0,180.073,0,197.619
			v19.133c0,4.633,3.76,8.393,8.393,8.393h142.689c4.633,0,8.393-3.756,8.393-8.389v-19.133
			C159.475,180.077,143.574,165.762,123.883,165.414z M142.689,208.359H16.787v-10.735c0-8.507,8.763-15.423,19.531-15.423
			c0.457,0,0.915-0.038,1.364-0.113l42.055-6.937l42.055,6.933c0.449,0.076,0.907,0.113,1.364,0.113
			c10.769,0,19.532,6.92,19.532,15.423V208.359z"/>
	</g>
</g>
<g>
	<g>
		<path d="M80.728,69.225h-2.312c-24.257,0-43.998,19.737-43.998,43.998v36.982c0,13.656,11.109,24.765,24.765,24.765h40.775
			c13.652,0,24.765-11.109,24.769-24.765v-36.982C124.727,88.962,104.989,69.225,80.728,69.225z M107.864,150.197
			c0,4.36-3.546,7.907-7.907,7.907H59.182c-4.356,0-7.902-3.546-7.902-7.902v-36.982c0-14.961,12.175-27.132,27.136-27.132h2.312
			c14.966,0,27.136,12.17,27.136,27.132V150.197z"/>
	</g>
</g>
<g>
	<g>
		<path d="M300.141,165.414l-42.777-7.055c-0.902-0.155-1.826-0.151-2.728,0l-42.781,7.055
			c-19.691,0.344-35.592,14.659-35.592,32.206v19.133c0,4.633,3.76,8.393,8.393,8.393h142.688c4.633,0,8.393-3.756,8.393-8.389
			v-19.133C335.738,180.077,319.836,165.762,300.141,165.414z M318.951,208.359H193.049v-10.739c0-8.503,8.763-15.423,19.532-15.423
			c0.457,0,0.915-0.038,1.364-0.113L256,175.15l42.055,6.933c0.449,0.076,0.906,0.113,1.364,0.113
			c10.769,0,19.532,6.92,19.532,15.423V208.359z"/>
	</g>
</g>
<g>
	<g>
		<path d="M256.99,69.225h-2.312c-24.257,0-43.998,19.737-43.998,43.998v36.982c0,13.656,11.109,24.765,24.765,24.765h40.775
			c13.652,0,24.765-11.109,24.765-24.765v-36.982C300.985,88.962,281.247,69.225,256.99,69.225z M284.126,150.197
			c-0.004,4.36-3.55,7.907-7.907,7.907h-40.775c-4.356,0-7.902-3.546-7.902-7.902v-36.982c0-14.961,12.175-27.132,27.136-27.132
			h2.312c14.966,0,27.136,12.17,27.136,27.132V150.197z"/>
	</g>
</g>
<g>
	<g>
		<path d="M207.817,383.039l-42.781-7.059c-0.898-0.147-1.826-0.147-2.728,0l-42.781,7.059
			c-19.691,0.34-35.592,14.655-35.592,32.201v19.133c0,4.633,3.76,8.393,8.393,8.393h142.689c4.633,0,8.393-3.756,8.393-8.389
			v-19.133C243.41,397.698,227.508,383.383,207.817,383.039z M226.623,425.98H100.721V415.24c0-8.507,8.763-15.423,19.532-15.423
			c0.457,0,0.915-0.034,1.364-0.109l42.055-6.933l42.055,6.933c0.449,0.071,0.906,0.109,1.364,0.109
			c10.769,0,19.531,6.92,19.531,15.423V425.98z"/>
	</g>
</g>
<g>
	<g>
		<path d="M164.663,286.846h-2.312c-24.257,0-43.998,19.737-43.998,43.994v36.986c0,13.656,11.109,24.761,24.765,24.761h40.775
			c13.652,0,24.765-11.105,24.769-24.761V330.84C208.661,306.583,188.924,286.846,164.663,286.846z M191.799,367.826
			c0,4.36-3.546,7.907-7.907,7.907h-40.775c-4.356,0-7.902-3.546-7.902-7.902v-36.986c0-14.966,12.175-27.136,27.136-27.136h2.312
			c14.966,0,27.136,12.175,27.136,27.136V367.826z"/>
	</g>
</g>
<g>
	<g>
		<path d="M392.465,383.039l-42.777-7.059c-0.898-0.147-1.826-0.147-2.728,0l-42.777,7.059
			c-19.691,0.34-35.592,14.655-35.592,32.201v19.133c0,4.633,3.76,8.393,8.393,8.393h142.689c4.633,0,8.393-3.756,8.385-8.393
			V415.24C428.057,397.694,412.156,383.379,392.465,383.039z M411.279,425.98H285.377V415.24c0-8.507,8.763-15.423,19.532-15.423
			c0.457,0,0.915-0.034,1.364-0.109l42.055-6.933l42.055,6.933c0.449,0.071,0.906,0.109,1.364,0.109
			c10.769,0,19.532,6.92,19.532,15.423V425.98z"/>
	</g>
</g>
<g>
	<g>
		<path d="M349.318,286.846h-2.317c-24.257,0-43.994,19.737-43.994,43.994v36.986c0,13.656,11.105,24.761,24.761,24.761h40.78
			c13.652,0,24.765-11.105,24.765-24.761V330.84C393.313,306.583,373.575,286.846,349.318,286.846z M376.458,367.826
			c-0.004,4.36-3.55,7.907-7.907,7.907h-40.78c-4.356,0-7.902-3.546-7.902-7.902v-36.986c0-14.966,12.175-27.136,27.136-27.136
			h2.317c14.966,0,27.136,12.175,27.136,27.136V367.826z"/>
	</g>
</g>
<g>
	<g>
		<path d="M476.399,165.414l-42.777-7.055c-0.898-0.151-1.826-0.151-2.728,0l-42.777,7.055
			c-19.691,0.344-35.592,14.659-35.592,32.206v19.133c0,4.633,3.76,8.393,8.393,8.393h142.689c4.633,0,8.393-3.756,8.385-8.393
			v-19.133C511.992,180.073,496.09,165.758,476.399,165.414z M495.213,208.359H369.312v-10.739c0-8.503,8.763-15.423,19.531-15.423
			c0.457,0,0.915-0.038,1.364-0.113l42.055-6.933l42.055,6.933c0.449,0.076,0.906,0.113,1.364,0.113
			c10.769,0,19.531,6.92,19.531,15.423V208.359z"/>
	</g>
</g>
<g>
	<g>
		<path d="M433.253,69.225h-2.317c-24.257,0-43.994,19.737-43.994,43.998v36.982c0,13.656,11.105,24.765,24.761,24.765h40.78
			c13.652,0,24.765-11.109,24.765-24.765v-36.982C477.247,88.962,457.51,69.225,433.253,69.225z M460.393,150.197
			c-0.004,4.36-3.55,7.907-7.907,7.907h-40.78c-4.356,0-7.902-3.546-7.902-7.902v-36.982c0-14.961,12.175-27.132,27.136-27.132
			h2.317c14.966,0,27.136,12.17,27.136,27.132V150.197z"/>
	</g>
</g>
<g>
</g>
<g>
</g>
<g>
</g>
<g>
</g>
<g>
</g>
<g>
</g>
<g>
</g>
<g>
</g>
<g>
</g>
<g>
</g>
<g>
</g>
<g>
</g>
<g>
</g>
<g>
</g>
<g>
</g>
</svg>
