<?xml version="1.0" encoding="iso-8859-1"?>
<!-- Generator: Adobe Illustrator 19.0.0, SVG Export Plug-In . SVG Version: 6.00 Build 0)  -->
<svg version="1.1" id="Capa_1" xmlns="http://www.w3.org/2000/svg" xmlns:xlink="http://www.w3.org/1999/xlink" x="0px" y="0px"
	 viewBox="0 0 512 512" style="enable-background:new 0 0 512 512;" xml:space="preserve">
<g>
	<g>
		<path d="M173.472,111.139l-41.075-6.802c-0.866-0.145-1.761-0.145-2.631,0l-41.075,6.802
			c-18.907,0.334-34.172,14.128-34.172,31.037v18.46c0,4.449,3.611,8.059,8.059,8.059h137.009c4.453,0,8.059-3.607,8.055-8.063
			v-18.456C207.644,125.267,192.379,111.473,173.472,111.139z M191.529,152.576H70.638H70.63v-10.401
			c0-8.229,8.414-14.922,18.754-14.922c0.443,0,0.883-0.036,1.318-0.109l40.378-6.685l40.377,6.689
			c0.435,0.073,0.878,0.109,1.318,0.109c10.34,0,18.754,6.693,18.754,14.922V152.576z"/>
	</g>
</g>
<g>
	<g>
		<path d="M131.95,18.339h-2.055c-23.34,0-42.328,18.988-42.328,42.328v35.8c0,13.133,10.683,23.82,23.815,23.82h39.08
			c13.133,0,23.82-10.687,23.815-23.82v-35.8C174.278,37.327,155.29,18.339,131.95,18.339z M158.087,96.467
			c0,4.203-3.421,7.624-7.624,7.624h-39.08c-4.203,0-7.624-3.421-7.624-7.624v-35.8c0-14.414,11.722-26.137,26.137-26.137h2.055
			c14.414,0,26.137,11.722,26.137,26.137V96.467z"/>
	</g>
</g>
<g>
	<g>
		<path d="M455.546,385.706l-41.071-6.802c-0.87-0.149-1.761-0.149-2.635,0l-41.071,6.802c-18.907,0.33-34.172,14.124-34.172,31.033
			v18.46c0,4.449,3.611,8.059,8.059,8.059h137.009c4.453,0,8.059-3.607,8.051-8.059v-18.46
			C489.718,399.83,474.453,386.036,455.546,385.706z M473.607,427.139H352.721v-10.401c0-8.229,8.414-14.922,18.754-14.922
			c0.439,0,0.883-0.032,1.318-0.109l40.369-6.685l40.373,6.685c0.435,0.073,0.878,0.109,1.318,0.109
			c10.34,0,18.754,6.693,18.754,14.922V427.139z"/>
	</g>
</g>
<g>
	<g>
		<path d="M414.032,292.898h-2.055c-23.34,0-42.328,18.988-42.328,42.328v35.8c0,13.133,10.683,23.815,23.815,23.815h39.076
			c13.133,0,23.815-10.683,23.819-23.815v-35.8C456.36,311.886,437.372,292.898,414.032,292.898z M440.169,371.025
			c0,4.203-3.425,7.628-7.628,7.628h-39.076c-4.203,0-7.628-3.425-7.628-7.628v-35.8c0-14.41,11.726-26.137,26.137-26.137h2.059
			c14.41,0,26.137,11.726,26.137,26.137V371.025z"/>
	</g>
</g>
<g>
	<g>
		<path d="M272.864,24.738l-1.765,16.022c106.259,11.694,186.389,101.419,186.389,208.706h16.119
			C473.607,133.951,387.307,37.335,272.864,24.738z"/>
	</g>
</g>
<g>
	<g>
		<path d="M38.401,249.47H22.282c0,124.666,101.234,226.09,225.662,226.09v-16.119C132.401,459.441,38.401,365.247,38.401,249.47z"
			/>
	</g>
</g>
<g>
	<g>
		<polygon points="316.03,14.41 308.813,0 252.305,28.309 289.591,84.349 303.01,75.42 275.822,34.555 		"/>
	</g>
</g>
<g>
	<g>
		<polygon points="215.699,426.156 207.08,439.772 245.076,463.833 213.958,501.777 226.422,512 269.096,459.965 		"/>
	</g>
</g>
<g>
</g>
<g>
</g>
<g>
</g>
<g>
</g>
<g>
</g>
<g>
</g>
<g>
</g>
<g>
</g>
<g>
</g>
<g>
</g>
<g>
</g>
<g>
</g>
<g>
</g>
<g>
</g>
<g>
</g>
</svg>
