<?xml version="1.0" encoding="iso-8859-1"?>
<!-- Generator: Adobe Illustrator 19.0.0, SVG Export Plug-In . SVG Version: 6.00 Build 0)  -->
<svg version="1.1" id="Capa_1" xmlns="http://www.w3.org/2000/svg" xmlns:xlink="http://www.w3.org/1999/xlink" x="0px" y="0px"
	 viewBox="0 0 512 512" style="enable-background:new 0 0 512 512;" xml:space="preserve">
<g>
	<g>
		<path d="M460.8,221.457c-4.71,0-8.533,3.823-8.533,8.533v167.044c0,21.043-17.118,38.165-38.165,38.165H97.903
			c-21.047,0-38.17-17.118-38.17-38.165V228.301c0-4.71-3.823-8.533-8.533-8.533s-8.533,3.823-8.533,8.533v168.734
			c0,30.451,24.781,55.232,55.236,55.232h316.198c30.451,0,55.232-24.781,55.232-55.232V229.99
			C469.333,225.28,465.51,221.457,460.8,221.457z"/>
	</g>
</g>
<g>
	<g>
		<path d="M338.837,221.867H179.281c-4.71,0-8.533,3.823-8.533,8.533s3.823,8.533,8.533,8.533h159.556
			c4.715,0,8.533-3.823,8.533-8.533S343.548,221.867,338.837,221.867z"/>
	</g>
</g>
<g>
	<g>
		<path d="M503.467,110.933H8.533c-4.71,0-8.533,3.823-8.533,8.533v53.312c0,36.476,29.679,66.155,66.155,66.155h56.478
			c4.71,0,8.533-3.823,8.533-8.533s-3.823-8.533-8.533-8.533H66.155c-27.068,0-49.088-22.02-49.088-49.088V128h477.867v44.779
			c0,27.068-22.02,49.088-49.088,49.088h-51.2c-4.71,0-8.533,3.823-8.533,8.533s3.823,8.533,8.533,8.533h51.2
			c36.48,0,66.155-29.679,66.155-66.155v-53.312C512,114.756,508.177,110.933,503.467,110.933z"/>
	</g>
</g>
<g>
	<g>
		<path d="M329.728,71.339c-7.484-7.484-17.434-11.605-28.019-11.605h-91.422c-21.85,0-39.625,17.775-39.625,39.625v20.109
			c0,4.71,3.823,8.533,8.533,8.533h153.6c4.715,0,8.533-3.823,8.533-8.533V99.358C341.333,88.772,337.212,78.822,329.728,71.339z
			 M324.262,110.933H187.729V99.358c0-12.437,10.116-22.558,22.558-22.558h91.422c6.025,0,11.691,2.347,15.949,6.605
			c4.262,4.262,6.605,9.924,6.605,15.953V110.933z"/>
	</g>
</g>
<g>
	<g>
		<path d="M179.2,187.733H128c-4.71,0-8.533,3.823-8.533,8.533V256c0,18.82,15.313,34.133,34.133,34.133
			c18.82,0,34.133-15.313,34.133-34.133v-59.733C187.733,191.556,183.91,187.733,179.2,187.733z M170.667,256
			c0,9.412-7.654,17.067-17.067,17.067c-9.412,0-17.067-7.654-17.067-17.067v-51.2h34.133V256z"/>
	</g>
</g>
<g>
	<g>
		<path d="M392.533,187.733h-51.2c-4.71,0-8.533,3.823-8.533,8.533V256c0,18.82,15.313,34.133,34.133,34.133
			c18.82,0,34.133-15.313,34.133-34.133v-59.733C401.067,191.556,397.244,187.733,392.533,187.733z M384,256
			c0,9.412-7.654,17.067-17.067,17.067s-17.067-7.654-17.067-17.067v-51.2H384V256z"/>
	</g>
</g>
<g>
</g>
<g>
</g>
<g>
</g>
<g>
</g>
<g>
</g>
<g>
</g>
<g>
</g>
<g>
</g>
<g>
</g>
<g>
</g>
<g>
</g>
<g>
</g>
<g>
</g>
<g>
</g>
<g>
</g>
</svg>
