<?xml version="1.0" encoding="iso-8859-1"?>
<!-- Generator: Adobe Illustrator 19.0.0, SVG Export Plug-In . SVG Version: 6.00 Build 0)  -->
<svg version="1.1" id="Capa_1" xmlns="http://www.w3.org/2000/svg" xmlns:xlink="http://www.w3.org/1999/xlink" x="0px" y="0px"
	 viewBox="0 0 512 512" style="enable-background:new 0 0 512 512;" xml:space="preserve">
<g>
	<g>
		<path d="M311.217,23.578C296.66,8.373,277.049,0,256,0s-40.66,8.373-55.217,23.578c-14.557,15.201-22.069,35.156-21.155,56.188
			l14.588,335.514c0.203,4.718,4.092,8.444,8.819,8.444h105.931c4.723,0,8.611-3.725,8.819-8.444l14.588-335.514
			C333.286,58.734,325.773,38.78,311.217,23.578z M314.734,78.998l-14.221,327.071h-89.026L197.266,78.998
			c-0.702-16.172,5.076-31.519,16.269-43.211C224.733,24.095,239.81,17.655,256,17.655s31.267,6.44,42.461,18.132
			C309.663,47.479,315.436,62.826,314.734,78.998z"/>
	</g>
</g>
<g>
	<g>
		<path d="M467.862,406.069H44.138c-4.873,0-8.828,3.955-8.828,8.828v25.163c0,4.873,3.955,8.828,8.828,8.828
			c4.873,0,8.828-3.955,8.828-8.828v-16.335h406.069v16.335c0,4.873,3.955,8.828,8.828,8.828s8.828-3.95,8.828-8.828v-25.163
			C476.69,410.024,472.735,406.069,467.862,406.069z"/>
	</g>
</g>
<g>
	<g>
		<path d="M468.763,460.023c-4.815-0.953-9.423,2.189-10.359,6.969c-3.099,15.85-17.095,27.352-33.28,27.352H86.881
			c-15.841,0-29.422-10.752-33.024-26.143c-1.112-4.745-5.875-7.698-10.606-6.581c-4.745,1.112-7.693,5.857-6.581,10.606
			C42.147,495.647,62.795,512,86.881,512h338.242c24.611,0,45.89-17.505,50.609-41.618
			C476.668,465.598,473.547,460.959,468.763,460.023z"/>
	</g>
</g>
<g>
	<g>
		<path d="M503.172,432.552H8.828c-4.873,0-8.828,3.955-8.828,8.828v26.483c0,4.873,3.955,8.828,8.828,8.828h494.345
			c4.873,0,8.828-3.955,8.828-8.828v-26.483C512,436.506,508.045,432.552,503.172,432.552z M494.345,459.034H17.655v-8.828h476.69
			V459.034z"/>
	</g>
</g>
<g>
</g>
<g>
</g>
<g>
</g>
<g>
</g>
<g>
</g>
<g>
</g>
<g>
</g>
<g>
</g>
<g>
</g>
<g>
</g>
<g>
</g>
<g>
</g>
<g>
</g>
<g>
</g>
<g>
</g>
</svg>
