<?xml version="1.0" encoding="iso-8859-1"?>
<!-- Generator: Adobe Illustrator 19.0.0, SVG Export Plug-In . SVG Version: 6.00 Build 0)  -->
<svg version="1.1" id="Capa_1" xmlns="http://www.w3.org/2000/svg" xmlns:xlink="http://www.w3.org/1999/xlink" x="0px" y="0px"
	 viewBox="0 0 512 512" style="enable-background:new 0 0 512 512;" xml:space="preserve">
<g>
	<g>
		<path d="M386.953,158.058c4.633,0,8.393-3.76,8.393-8.394V57.466c0-17.803-14.512-32.286-32.349-32.286H74.307
			c-17.836,0-32.349,14.483-32.349,32.286v422.248c0,17.803,14.512,32.286,32.349,32.286h288.691
			c17.836,0,32.349-14.483,32.349-32.286V285.212c0-4.633-3.76-8.394-8.393-8.394s-8.393,3.76-8.393,8.394v194.503
			c0,8.545-6.979,15.499-15.562,15.499H74.307c-8.578,0-15.562-6.954-15.562-15.499V57.466c0-8.545,6.983-15.499,15.562-15.499
			h288.691c8.582,0,15.562,6.954,15.562,15.499v92.198C378.56,154.298,382.32,158.058,386.953,158.058z"/>
	</g>
</g>
<g>
	<g>
		<path d="M353.291,58.755h-67.169c-4.633,0-8.394,3.76-8.394,8.393c0,4.633,3.76,8.394,8.394,8.394h58.776v126.444
			c0,4.633,3.76,8.394,8.394,8.394c4.637,0,8.393-3.76,8.393-8.394V67.148C361.685,62.515,357.924,58.755,353.291,58.755z"/>
	</g>
</g>
<g>
	<g>
		<path d="M353.295,320.565c-4.633,0-8.393,3.76-8.393,8.393v132.685H92.408V75.542h56.967c4.633,0,8.393-3.76,8.393-8.394
			c0-4.633-3.76-8.393-8.393-8.393h-65.36c-4.633,0-8.393,3.76-8.393,8.393v402.889c0,4.633,3.76,8.393,8.393,8.393h269.276
			c4.637,0,8.393-3.76,8.398-8.393V328.958C361.689,324.325,357.928,320.565,353.295,320.565z"/>
	</g>
</g>
<g>
	<g>
		<path d="M261.965,25.181h-10.731C247.491,10.714,234.305,0,218.659,0s-28.832,10.714-32.575,25.181h-10.731
			c-17.87,0-32.407,14.508-32.407,32.344v2.459c0,17.832,14.538,32.344,32.407,32.344h86.617c17.866,0,32.407-14.512,32.412-32.344
			v-2.468C294.364,39.689,279.823,25.181,261.965,25.181z M277.594,59.984c0,8.578-7.009,15.557-15.625,15.557h-86.617
			c-8.612,0-15.62-6.979-15.62-15.557v-2.459c0-8.578,7.009-15.557,15.62-15.557h18.063c4.633,0,8.393-3.76,8.393-8.393
			c0-9.258,7.558-16.787,16.85-16.787s16.85,7.529,16.85,16.787c0,4.633,3.76,8.393,8.394,8.393h18.063
			c8.608,0,15.616,6.983,15.629,15.557V59.984z"/>
	</g>
</g>
<g>
	<g>
		<path d="M285.975,117.509H126.091c-4.633,0-8.394,3.76-8.394,8.393c0,4.633,3.76,8.394,8.394,8.394h159.88
			c4.637,0,8.398-3.76,8.398-8.394C294.369,121.269,290.608,117.509,285.975,117.509z"/>
	</g>
</g>
<g>
	<g>
		<path d="M210.24,151.083h-84.149c-4.633,0-8.394,3.76-8.394,8.394c0,4.633,3.76,8.393,8.394,8.393h84.149
			c4.633,0,8.394-3.76,8.394-8.393C218.634,154.844,214.874,151.083,210.24,151.083z"/>
	</g>
</g>
<g>
	<g>
		<path d="M168.168,184.657h-42.077c-4.633,0-8.394,3.76-8.394,8.393c0,4.633,3.76,8.393,8.394,8.393h42.077
			c4.633,0,8.393-3.76,8.393-8.393C176.561,188.418,172.801,184.657,168.168,184.657z"/>
	</g>
</g>
<g>
	<g>
		<path d="M243.898,184.657h-42.077c-4.633,0-8.394,3.76-8.394,8.393c0,4.633,3.76,8.393,8.394,8.393h42.081
			c4.633,0,8.389-3.76,8.389-8.393C252.292,188.418,248.532,184.657,243.898,184.657z"/>
	</g>
</g>
<g>
	<g>
		<path d="M256.556,387.256l-51.293-30.049c-3.878-2.275-8.876-1.083-11.31,2.715l-6.622,10.349
			c-2.09-9.086-5.712-18.953-11.978-26.297c-6.22-7.29-12.51-6.904-15.717-6.022c-0.516,0.143-1.016,0.315-1.507,0.516V326.89
			c0-9.254-4.998-11.575-7.978-12.133c-6.74-1.263-12.548-2.338-40.293,69.192c-1.679,4.323,0.466,9.187,4.789,10.861
			c4.323,1.683,9.187-0.466,10.861-4.788c4.961-12.792,10.76-26.75,15.839-38.052v19.993c0,4.356,3.336,7.986,7.68,8.36
			c4.339,0.382,8.251-2.644,8.989-6.941c1.125-6.547,3.433-13.807,5.401-17.479c8.117,10.689,9.967,31.325,9.984,38.593
			c0,3.731,2.455,7.009,6.035,8.058c3.576,1.037,7.416-0.394,9.426-3.534l14.882-23.254l44.33,25.97
			c1.335,0.781,2.795,1.15,4.234,1.15c2.883,0,5.687-1.481,7.248-4.146C261.898,394.738,260.555,389.602,256.556,387.256z"/>
	</g>
</g>
<g>
	<g>
		<path d="M469.067,143.386c-2.291-10.064-8.372-18.634-17.131-24.131l-5.695-3.576c-18.059-11.331-41.976-5.892-53.332,12.112
			l-99.501,157.706c-1.188,1.884-1.582,4.167-1.087,6.341c0.495,2.178,1.834,4.063,3.722,5.25l56.967,35.765
			c1.389,0.869,2.934,1.284,4.457,1.284c2.787,0,5.515-1.385,7.109-3.916l99.505-157.71
			C469.583,163.783,471.354,153.442,469.067,143.386z M449.888,163.56l-95.04,150.626l-42.757-26.842l95.019-150.592
			c6.425-10.194,19.981-13.27,30.212-6.849l5.695,3.576c4.952,3.11,8.389,7.953,9.686,13.639
			C453.996,152.795,452.993,158.633,449.888,163.56z"/>
	</g>
</g>
<g>
	<g>
		<path d="M352.447,312.667l-37.981-23.846c-3.378-2.107-7.781-1.565-10.534,1.314l-39.026,40.843
			c-1.796,1.889-2.623,4.507-2.224,7.08l7.814,50.642c0.369,2.409,1.767,4.528,3.823,5.825c1.351,0.856,2.904,1.293,4.47,1.293
			c0.818,0,1.637-0.117,2.438-0.365l49.161-14.882c2.493-0.755,4.49-2.619,5.418-5.053l20.027-52.762
			C357.253,319.016,355.834,314.794,352.447,312.667z M321.568,365.705l-35.958,10.882l-5.708-36.999l31.434-32.903l26.356,16.544
			L321.568,365.705z"/>
	</g>
</g>
<g>
</g>
<g>
</g>
<g>
</g>
<g>
</g>
<g>
</g>
<g>
</g>
<g>
</g>
<g>
</g>
<g>
</g>
<g>
</g>
<g>
</g>
<g>
</g>
<g>
</g>
<g>
</g>
<g>
</g>
</svg>
