<?xml version="1.0" encoding="iso-8859-1"?>
<!-- Generator: Adobe Illustrator 19.0.0, SVG Export Plug-In . SVG Version: 6.00 Build 0)  -->
<svg version="1.1" id="Capa_1" xmlns="http://www.w3.org/2000/svg" xmlns:xlink="http://www.w3.org/1999/xlink" x="0px" y="0px"
	 viewBox="0 0 512.001 512.001" style="enable-background:new 0 0 512.001 512.001;" xml:space="preserve">
<g>
	<g>
		<g>
			<path d="M367.55,115.397c-13.802-6.041-29.132-6.342-43.154-0.856c-14.026,5.49-25.079,16.108-31.12,29.911
				c-6.036,13.802-6.342,29.128-0.852,43.158c8.7,22.235,30.04,35.852,52.589,35.852c6.819,0,13.751-1.248,20.471-3.881
				c14.026-5.49,25.079-16.108,31.12-29.911c6.036-13.798,6.342-29.123,0.852-43.154
				C391.971,132.486,381.348,121.438,367.55,115.397z M380.841,182.778c-4.191,9.586-11.87,16.969-21.62,20.781
				c-20.118,7.886-42.891-2.095-50.769-22.218c-3.808-9.745-3.601-20.394,0.598-29.984c4.191-9.59,11.87-16.973,21.62-20.785
				c4.629-1.811,9.461-2.715,14.284-2.715c5.339,0,10.666,1.106,15.704,3.313c9.586,4.195,16.965,11.87,20.781,21.62
				C385.246,162.539,385.04,173.188,380.841,182.778z"/>
			<path d="M496.744,194.291l-8.583-3.756c2.28-13.738,2.573-27.557,0.869-41.26l8.678-3.395
				c11.544-4.518,17.261-17.584,12.748-29.132l-9.784-25.01c-2.186-5.593-6.424-9.999-11.922-12.408
				c-5.499-2.414-11.612-2.534-17.206-0.344l-8.678,3.395c-8.05-11.221-17.644-21.181-28.637-29.726l3.752-8.583
				c4.974-11.358-0.224-24.644-11.582-29.609L401.794,3.693c-5.503-2.405-11.608-2.53-17.206-0.34
				c-5.593,2.186-9.999,6.424-12.404,11.926l-3.756,8.579c-13.733-2.28-27.553-2.573-41.265-0.869l-3.395-8.678
				c-2.186-5.597-6.424-9.999-11.922-12.408c-5.503-2.414-11.612-2.534-17.206-0.344l-25.01,9.784
				c-5.593,2.186-9.999,6.419-12.408,11.922c-2.409,5.503-2.53,11.612-0.344,17.201l3.395,8.678
				c-11.221,8.054-21.181,17.649-29.726,28.641l-8.583-3.756c-5.503-2.409-11.617-2.534-17.206-0.344
				c-5.593,2.19-9.999,6.424-12.404,11.926l-10.769,24.606c-2.409,5.503-2.53,11.612-0.344,17.206
				c2.19,5.593,6.424,9.999,11.926,12.404l8.583,3.756c-2.28,13.738-2.573,27.561-0.869,41.265l-8.678,3.395
				c-11.544,4.518-17.261,17.584-12.748,29.128l9.784,25.014c2.186,5.593,6.419,9.999,11.922,12.408
				c5.507,2.409,11.617,2.526,17.206,0.344l8.678-3.395c8.05,11.229,17.644,21.19,28.637,29.73l-3.76,8.583
				c-4.965,11.354,0.232,24.636,11.586,29.609l24.614,10.769c11.35,4.987,24.64-0.224,29.605-11.582l3.756-8.583
				c13.746,2.28,27.566,2.573,41.265,0.869l3.395,8.678c3.468,8.863,11.974,14.293,20.966,14.293c2.719,0,5.481-0.495,8.162-1.545
				l25.01-9.779c5.597-2.186,10.003-6.424,12.413-11.926c2.401-5.499,2.526-11.608,0.336-17.197c0-0.004,0-0.004,0-0.004
				l-3.39-8.678c11.216-8.05,21.181-17.649,29.726-28.641l8.583,3.76c5.503,2.405,11.608,2.526,17.201,0.336
				c5.593-2.186,9.999-6.424,12.404-11.922l10.773-24.61C513.3,212.546,508.103,199.265,496.744,194.291z M492.562,216.999
				l-10.773,24.61c-1.166,2.663-4.29,3.877-6.94,2.715l-14.869-6.505c-3.756-1.639-8.132-0.413-10.489,2.934
				c-9.521,13.527-21.31,24.877-35.035,33.74c-3.433,2.22-4.836,6.553-3.343,10.365l5.886,15.059
				c0.516,1.312,0.486,2.754-0.077,4.04s-1.596,2.28-2.908,2.792l-25.014,9.784c-2.706,1.058-5.774-0.284-6.832-2.99l-5.89-15.063
				c-1.304-3.339-4.513-5.468-8.007-5.468c-0.49,0-0.985,0.043-1.476,0.142c-16.087,2.81-32.449,2.465-48.622-1.015
				c-3.975-0.856-8.054,1.213-9.693,4.961l-6.51,14.869c-1.166,2.663-4.285,3.881-6.944,2.719l-24.606-10.769
				c-2.663-1.166-3.889-4.281-2.723-6.944l6.51-14.869c1.639-3.752,0.413-8.136-2.934-10.489
				c-13.523-9.513-24.877-21.301-33.744-35.035c-2.22-3.438-6.557-4.832-10.365-3.347l-15.063,5.894
				c-1.312,0.512-2.745,0.486-4.036-0.082c-1.286-0.564-2.28-1.596-2.797-2.908l-9.784-25.014c-1.058-2.711,0.284-5.774,2.986-6.832
				l15.063-5.89c3.812-1.493,6.049-5.46,5.344-9.491c-2.805-16.095-2.461-32.453,1.02-48.626c0.865-4.001-1.209-8.054-4.961-9.693
				l-14.869-6.51c-1.291-0.564-2.285-1.596-2.797-2.908c-0.512-1.312-0.482-2.745,0.082-4.036l10.769-24.61
				c0.564-1.291,1.601-2.285,2.908-2.797c1.308-0.512,2.736-0.486,4.036,0.082l14.869,6.505c3.752,1.639,8.132,0.413,10.485-2.934
				c9.517-13.527,21.301-24.881,35.031-33.744c3.438-2.216,4.836-6.548,3.347-10.36l-5.89-15.067
				c-0.512-1.312-0.482-2.741,0.082-4.031c0.568-1.291,1.6-2.285,2.913-2.797l25.01-9.784c1.304-0.512,2.736-0.482,4.036,0.082
				c1.282,0.564,2.28,1.596,2.792,2.908l5.89,15.063c1.493,3.816,5.477,6.041,9.491,5.344c16.091-2.81,32.445-2.47,48.626,1.02
				c3.997,0.869,8.054-1.209,9.693-4.965l6.505-14.869c0.568-1.286,1.596-2.28,2.913-2.792c1.317-0.512,2.754-0.486,4.036,0.077
				l24.606,10.769c1.286,0.564,2.28,1.596,2.797,2.908c0.512,1.312,0.482,2.745-0.082,4.036l-6.505,14.869
				c-1.639,3.747-0.413,8.132,2.934,10.485c13.527,9.513,24.877,21.301,33.74,35.031c2.22,3.438,6.535,4.836,10.365,3.347
				l15.063-5.89c1.312-0.512,2.754-0.482,4.036,0.082c1.286,0.564,2.285,1.596,2.797,2.908l9.784,25.01
				c1.058,2.711-0.284,5.774-2.99,6.832l-15.063,5.89c-3.812,1.493-6.045,5.46-5.344,9.495c2.809,16.087,2.47,32.449-1.015,48.622
				c-0.865,3.997,1.213,8.054,4.961,9.693l14.869,6.501C492.506,211.221,493.728,214.336,492.562,216.999z"/>
		</g>
	</g>
</g>
<g>
	<g>
		<g>
			<path d="M137.972,327.702c-25.548,0-46.333,20.789-46.333,46.337c0,25.548,20.785,46.333,46.333,46.333
				c25.548,0,46.333-20.785,46.333-46.333C184.305,348.487,163.52,327.702,137.972,327.702z M137.972,403.166
				c-16.057,0-29.123-13.062-29.123-29.123c0-16.061,13.067-29.128,29.123-29.128c16.061,0,29.123,13.067,29.123,29.128
				C167.095,390.104,154.028,403.166,137.972,403.166z"/>
			<path d="M256.371,343.87h-5.955c-2.62-9.788-6.514-19.154-11.634-27.992l4.238-4.238c7.628-7.628,7.628-20.045,0-27.669
				l-14.99-14.985c-3.696-3.7-8.609-5.735-13.837-5.735c-5.223,0-10.137,2.035-13.832,5.731l-4.242,4.238
				c-8.833-5.12-18.204-9.018-27.987-11.634v-5.955c0-10.786-8.777-19.563-19.563-19.563h-21.207
				c-10.786,0-19.563,8.777-19.563,19.563v5.955c-9.784,2.616-19.154,6.514-27.987,11.634l-4.242-4.238
				c-3.696-3.696-8.609-5.731-13.832-5.731s-10.137,2.035-13.828,5.731l-14.994,14.99c-7.628,7.628-7.628,20.045,0,27.669
				l4.242,4.238c-5.12,8.837-9.014,18.208-11.634,27.992h-5.959c-10.786,0-19.563,8.777-19.563,19.563v21.207
				c0,10.786,8.777,19.563,19.563,19.563h5.955c2.62,9.788,6.518,19.154,11.634,27.987l-4.238,4.242
				c-3.696,3.696-5.731,8.609-5.731,13.832s2.039,10.141,5.731,13.828l14.994,14.994c7.633,7.633,20.041,7.633,27.665,0l4.238-4.238
				c8.833,5.12,18.204,9.018,27.987,11.634v5.955c0,10.786,8.777,19.563,19.563,19.563h21.207c10.791,0,19.568-8.777,19.568-19.563
				v-5.955c9.784-2.62,19.155-6.518,27.987-11.634l4.242,4.242c7.624,7.615,20.036,7.615,27.665-0.004l14.994-14.994
				c3.696-3.696,5.731-8.609,5.731-13.832c0-5.227-2.039-10.141-5.731-13.828l-4.242-4.242c5.12-8.833,9.014-18.204,11.634-27.987
				h5.955c10.786,0,19.563-8.777,19.563-19.563v-21.207C275.934,352.647,267.157,343.87,256.371,343.87z M258.733,384.636
				c0,1.299-1.054,2.353-2.353,2.353h-12.77c-4.092,0-7.62,2.883-8.433,6.897c-2.521,12.408-7.387,24.124-14.469,34.815
				c-2.259,3.412-1.803,7.942,1.089,10.838l9.065,9.065c0.572,0.568,0.688,1.213,0.688,1.656c0,0.447-0.12,1.093-0.693,1.665
				l-14.99,14.99c-0.921,0.925-2.418,0.921-3.33,0.004l-9.061-9.061c-2.896-2.896-7.426-3.347-10.838-1.089
				c-10.696,7.082-22.411,11.948-34.815,14.465c-4.014,0.813-6.897,4.341-6.897,8.433v12.77c0,1.299-1.054,2.353-2.353,2.353
				h-21.207c-1.299,0-2.353-1.054-2.353-2.353v-12.77c0-4.092-2.887-7.624-6.897-8.433c-12.408-2.517-24.12-7.383-34.815-14.465
				c-1.45-0.964-3.106-1.433-4.75-1.433c-2.22,0-4.423,0.856-6.097,2.526l-9.057,9.061c-1.14,1.14-2.19,1.132-3.322,0
				l-14.998-14.998c-0.572-0.568-0.688-1.213-0.688-1.656c0-0.448,0.12-1.093,0.693-1.665l9.061-9.061
				c2.891-2.896,3.347-7.426,1.089-10.838c-7.082-10.696-11.948-22.407-14.465-34.815c-0.813-4.014-4.341-6.897-8.433-6.897h-12.77
				c-1.299,0-2.353-1.054-2.353-2.353v-21.211c0-1.299,1.054-2.353,2.353-2.353h12.765c4.092,0,7.62-2.883,8.433-6.897
				c2.517-12.408,7.387-24.124,14.469-34.824c2.259-3.412,1.798-7.942-1.093-10.834l-9.061-9.057c-0.916-0.916-0.916-2.409,0-3.33
				l14.998-14.994c1.136-1.136,2.177-1.14,3.321,0.004l9.061,9.057c2.896,2.891,7.422,3.343,10.834,1.093
				c10.7-7.082,22.416-11.948,34.82-14.465c4.014-0.813,6.897-4.341,6.897-8.433v-12.77c0-1.299,1.054-2.353,2.353-2.353h21.207
				c1.295,0,2.353,1.054,2.353,2.353v12.77c0,4.092,2.883,7.624,6.897,8.433c12.404,2.517,24.115,7.383,34.815,14.465
				c3.408,2.246,7.942,1.803,10.834-1.093l9.061-9.057c1.144-1.144,2.186-1.144,3.33,0l14.994,14.99c0.916,0.916,0.916,2.409,0,3.33
				l-9.061,9.057c-2.891,2.891-3.347,7.426-1.089,10.838c7.082,10.7,11.952,22.411,14.469,34.82
				c0.813,4.014,4.341,6.897,8.433,6.897h12.774c1.299,0,2.353,1.054,2.353,2.353V384.636z"/>
		</g>
	</g>
</g>
<g>
</g>
<g>
</g>
<g>
</g>
<g>
</g>
<g>
</g>
<g>
</g>
<g>
</g>
<g>
</g>
<g>
</g>
<g>
</g>
<g>
</g>
<g>
</g>
<g>
</g>
<g>
</g>
<g>
</g>
</svg>
