<?xml version="1.0" encoding="iso-8859-1"?>
<!-- Generator: Adobe Illustrator 19.0.0, SVG Export Plug-In . SVG Version: 6.00 Build 0)  -->
<svg version="1.1" id="Capa_1" xmlns="http://www.w3.org/2000/svg" xmlns:xlink="http://www.w3.org/1999/xlink" x="0px" y="0px"
	 viewBox="0 0 512 512" style="enable-background:new 0 0 512 512;" xml:space="preserve">
<g>
	<g>
		<path d="M504,204H8c-4.416,0-8,3.584-8,8v184c0,4.416,3.584,8,8,8h496c4.416,0,8-3.584,8-8V212C512,207.584,508.416,204,504,204z
			 M496,388H16V220h480V388z"/>
	</g>
</g>
<g>
	<g>
		<path d="M123.076,120.628C116.512,112.368,107.148,108,96,108c-13.984,0-21.34,6.736-25.052,12.388
			c-17.428,26.544,8.316,87.884,11.312,94.792c1.304,3.016,4.248,4.82,7.34,4.82c1.064,0,2.144-0.212,3.18-0.656
			c4.056-1.756,5.916-6.464,4.164-10.52c-9.972-23.044-22.212-65.048-12.616-79.656C85.784,126.948,88.58,124,96,124
			c6.356,0,10.976,2.088,14.544,6.576c13.856,17.424,7.156,63.38,3.4,79.624c-0.996,4.304,1.688,8.6,5.992,9.596
			c4.292,1,8.596-1.684,9.596-5.988C131.096,207.068,144.192,147.2,123.076,120.628z"/>
	</g>
</g>
<g>
	<g>
		<path d="M435.076,120.628C428.512,112.368,419.148,108,408,108c-13.98,0-21.34,6.736-25.052,12.388
			c-17.428,26.544,8.32,87.884,11.312,94.792c1.308,3.016,4.252,4.82,7.344,4.82c1.064,0,2.144-0.212,3.176-0.664
			c4.056-1.756,5.916-6.464,4.16-10.52c-9.976-23.024-22.224-65.008-12.616-79.648C397.78,126.952,400.58,124,408,124
			c6.356,0,10.976,2.088,14.544,6.58c13.86,17.424,7.156,63.38,3.404,79.62c-0.996,4.304,1.688,8.6,5.988,9.596
			c4.316,0.988,8.6-1.684,9.596-5.988C443.096,207.068,456.192,147.2,435.076,120.628z"/>
	</g>
</g>
<g>
	<g>
		<path d="M95.88,302.876c-11.164-4.32-16.08-8.036-16.08-15.6c0-5.524,4.196-12.116,15.236-12.116c7.32,0,12.72,2.4,15.36,3.836
			l2.884-8.516c-3.604-2.04-9.604-3.96-17.884-3.96c-15.72,0-26.156,9.36-26.156,21.96c0,11.4,8.164,18.236,21.36,22.916
			c10.924,4.204,15.244,8.524,15.244,16.08c0,8.164-6.24,13.804-16.92,13.804c-7.204,0-14.04-2.396-18.72-5.28l-2.644,8.748
			c4.32,2.884,12.844,5.164,20.64,5.164c19.076,0,28.32-10.804,28.32-23.28C116.52,314.752,109.56,308.156,95.88,302.876z"/>
	</g>
</g>
<g>
	<g>
		<path d="M179.16,267.84h-12.6l-27.476,80.876h10.796l8.4-25.436h28.68l8.64,25.436h11.16L179.16,267.84z M184.804,315.12h-24.36
			l7.92-23.4c1.556-4.912,2.876-9.836,4.08-14.64h0.244c1.196,4.68,2.4,9.484,4.196,14.764l7.92,23.272V315.12z"/>
	</g>
</g>
<g>
	<g>
		<polygon points="243.484,339.96 243.484,267.844 233.04,267.844 233.04,348.716 278.04,348.716 278.04,339.96 		"/>
	</g>
</g>
<g>
	<g>
		<polygon points="314.524,339.96 314.524,310.796 345.96,310.796 345.96,302.16 314.524,302.16 314.524,276.596 347.76,276.596 
			347.76,267.84 304.08,267.84 304.08,348.716 349.564,348.716 349.564,339.96 		"/>
	</g>
</g>
<g>
	<g>
		<path d="M401.756,302.876c-11.164-4.32-16.08-8.036-16.08-15.6c0-5.524,4.196-12.116,15.236-12.116c7.32,0,12.72,2.4,15.36,3.836
			l2.884-8.516c-3.604-2.04-9.604-3.96-17.884-3.96c-15.72,0-26.156,9.36-26.156,21.96c0,11.4,8.164,18.236,21.36,22.916
			c10.924,4.204,15.244,8.524,15.244,16.08c0,8.164-6.24,13.804-16.92,13.804c-7.204,0-14.04-2.396-18.72-5.28l-2.644,8.748
			c4.32,2.884,12.844,5.164,20.64,5.164c19.076,0,28.32-10.804,28.32-23.28C422.396,314.752,415.436,308.156,401.756,302.876z"/>
	</g>
</g>
<g>
</g>
<g>
</g>
<g>
</g>
<g>
</g>
<g>
</g>
<g>
</g>
<g>
</g>
<g>
</g>
<g>
</g>
<g>
</g>
<g>
</g>
<g>
</g>
<g>
</g>
<g>
</g>
<g>
</g>
</svg>
