<?xml version="1.0" encoding="iso-8859-1"?>
<!-- Generator: Adobe Illustrator 19.0.0, SVG Export Plug-In . SVG Version: 6.00 Build 0)  -->
<svg version="1.1" id="Capa_1" xmlns="http://www.w3.org/2000/svg" xmlns:xlink="http://www.w3.org/1999/xlink" x="0px" y="0px"
	 viewBox="0 0 512.002 512.002" style="enable-background:new 0 0 512.002 512.002;" xml:space="preserve">
<g>
	<g>
		<path d="M182.17,295.498h-63.484l43.936-68.08c2.396-3.716,1.328-8.664-2.384-11.06c-3.716-2.4-8.664-1.328-11.06,2.384
			l-51.9,80.416c-1.588,2.46-1.704,5.592-0.304,8.168c1.4,2.572,4.096,4.172,7.024,4.172h78.168c4.42,0,8.004-3.584,8.004-8
			C190.17,299.082,186.586,295.498,182.17,295.498z"/>
	</g>
</g>
<g>
	<g>
		<path d="M414.726,299.162l-52.524-81.38c-2.4-3.716-7.344-4.788-11.064-2.384c-3.712,2.396-4.78,7.348-2.384,11.06l44.56,69.04
			h-65.316c-4.416,0-8,3.584-8,8c0,4.416,3.584,8,8,8h80c2.932,0,5.624-1.6,7.028-4.168
			C416.43,304.754,416.31,301.622,414.726,299.162z"/>
	</g>
</g>
<g>
	<g>
		<path d="M260.446,1.35c-2.688-1.8-6.2-1.8-8.892,0C184.87,45.918,143.998,77.382,143.998,159.134
			c0,55.372,18.872,121.48,49.248,172.512c1.444,2.428,4.056,3.912,6.876,3.912h111.752c2.82,0,5.432-1.484,6.872-3.912
			c30.38-51.04,49.252-117.144,49.252-172.512C367.998,77.386,327.126,45.918,260.446,1.35z M307.282,319.558H204.714
			c-27.248-47.524-44.716-109.96-44.716-160.424c0-72.036,34.62-100.28,96-141.504c61.384,41.224,96,69.468,96,141.504
			C351.998,209.598,334.53,272.034,307.282,319.558z"/>
	</g>
</g>
<g>
	<g>
		<path d="M330.638,56.302c-17.976-19.464-41.416-35.72-70.192-54.952c-2.688-1.8-6.2-1.8-8.892,0
			c-28.776,19.232-52.216,35.488-70.188,54.948c-2.68,2.9-2.84,7.324-0.38,10.412c18.352,23.048,45.692,36.264,75.012,36.264
			c29.316,0,56.656-13.216,75.02-36.26C333.478,63.626,333.314,59.206,330.638,56.302z M255.998,86.974
			c-22.084,0-42.832-9.016-57.916-24.956c15.228-15.1,34.672-28.788,57.916-44.388c23.248,15.6,42.692,29.288,57.916,44.392
			C298.83,77.958,278.082,86.974,255.998,86.974z"/>
	</g>
</g>
<g>
	<g>
		<path d="M255.998,135.094c-17.644,0-32,14.384-32,32.06c0,17.676,14.356,32.06,32,32.06c17.644,0,32-14.384,32-32.06
			C287.998,149.478,273.642,135.094,255.998,135.094z M255.998,183.214c-8.824,0-16-7.204-16-16.06s7.176-16.06,16-16.06
			c8.824,0,16,7.204,16,16.06S264.822,183.214,255.998,183.214z"/>
	</g>
</g>
<g>
	<g>
		<path d="M311.998,319.558h-112c-4.416,0-8,3.584-8,8v56.14c0,4.416,3.584,8,8,8h112c4.42,0,8-3.58,8-8v-56.14
			C319.998,323.142,316.414,319.558,311.998,319.558z M303.998,375.698h-96v-40.14h96V375.698z"/>
	</g>
</g>
<g>
	<g>
		<path d="M318.746,379.398c-1.472-2.304-4.012-3.7-6.748-3.7h-112c-2.736,0-5.28,1.396-6.748,3.7
			c-1.468,2.304-1.66,5.2-0.504,7.676l56,120.304c1.312,2.82,4.14,4.624,7.252,4.624c3.112,0,5.944-1.804,7.256-4.624l56-120.304
			C320.406,384.598,320.218,381.702,318.746,379.398z M255.998,485.046l-43.452-93.348h86.904L255.998,485.046z"/>
	</g>
</g>
<g>
</g>
<g>
</g>
<g>
</g>
<g>
</g>
<g>
</g>
<g>
</g>
<g>
</g>
<g>
</g>
<g>
</g>
<g>
</g>
<g>
</g>
<g>
</g>
<g>
</g>
<g>
</g>
<g>
</g>
</svg>
