<?xml version="1.0" encoding="iso-8859-1"?>
<!-- Generator: Adobe Illustrator 19.0.0, SVG Export Plug-In . SVG Version: 6.00 Build 0)  -->
<svg version="1.1" id="Capa_1" xmlns="http://www.w3.org/2000/svg" xmlns:xlink="http://www.w3.org/1999/xlink" x="0px" y="0px"
	 viewBox="0 0 512 512" style="enable-background:new 0 0 512 512;" xml:space="preserve">
<g>
	<g>
		<path d="M285.31,397.955l-65.171-10.743c-4.742-0.759-9.194,2.421-9.971,7.151c-0.781,4.729,2.421,9.194,7.151,9.975
			l65.852,10.852c0.464,0.074,0.937,0.113,1.41,0.113c29.908,0,54.237,20.159,54.237,44.943v34.395H34.718v-34.399
			c0-24.784,24.328-44.943,54.237-44.943c0.473,0,0.946-0.035,1.41-0.113l65.522-10.795c4.725-0.781,7.927-5.246,7.151-9.975
			c-0.781-4.725-5.254-7.923-9.975-7.151l-64.841,10.687c-39.142,0.338-70.864,28.155-70.864,62.294v43.077
			c0,4.79,3.888,8.678,8.678,8.678h321.455c4.795,0,8.678-3.888,8.682-8.678v-43.073
			C356.173,426.111,324.451,398.294,285.31,397.955z"/>
	</g>
</g>
<g>
	<g>
		<g>
			<path d="M382.116,73.766c-21.486,0-38.968,17.521-38.968,39.051s17.482,39.05,38.968,39.05s38.964-17.521,38.964-39.05
				S403.602,73.766,382.116,73.766z M382.116,134.512c-11.919,0-21.612-9.732-21.612-21.695s9.693-21.695,21.612-21.695
				c11.915,0,21.608,9.732,21.608,21.695S394.031,134.512,382.116,134.512z"/>
			<path d="M477.169,86.783h-3.423c-2.018-7.133-4.86-13.984-8.5-20.493l2.465-2.473c6.799-6.821,6.799-17.911,0-24.732
				L455.67,27.014c-3.302-3.311-7.693-5.133-12.366-5.133s-9.06,1.827-12.357,5.133l-2.447,2.451
				c-6.482-3.645-13.303-6.487-20.406-8.504v-3.462c0-9.65-7.836-17.499-17.469-17.499h-17.03c-9.632,0-17.469,7.849-17.469,17.499
				v3.467c-7.103,2.018-13.924,4.86-20.406,8.504l-2.443-2.451c-3.302-3.311-7.693-5.133-12.362-5.133
				c-4.677,0-9.064,1.822-12.366,5.133L296.508,39.09c-6.799,6.821-6.799,17.911,0,24.732l2.469,2.473
				c-3.64,6.504-6.482,13.355-8.5,20.489h-3.423c-9.632,0-17.473,7.849-17.473,17.499v17.069c0,9.65,7.836,17.499,17.473,17.499
				h3.423c2.018,7.129,4.86,13.98,8.5,20.489l-2.469,2.473c-6.799,6.821-6.799,17.911,0,24.732l12.041,12.067
				c3.302,3.315,7.693,5.137,12.366,5.137c4.673,0,9.06-1.827,12.357-5.133l2.447-2.451c6.482,3.645,13.303,6.487,20.406,8.504
				v3.467c0,9.65,7.836,17.499,17.469,17.499h17.03c9.632,0,17.469-7.849,17.469-17.499v-3.463
				c7.103-2.018,13.924-4.86,20.406-8.504l2.443,2.447c3.302,3.315,7.693,5.137,12.362,5.137c4.677,0,9.064-1.822,12.366-5.133
				l12.041-12.071c6.799-6.821,6.799-17.916,0-24.732l-2.465-2.473c3.64-6.508,6.482-13.36,8.5-20.493h3.423
				c9.632,0,17.473-7.849,17.473-17.499v-17.069C494.642,94.632,486.806,86.783,477.169,86.783z M477.169,121.499h-10.244
				c-4.126,0-7.689,2.911-8.504,6.955c-1.983,9.771-5.806,18.996-11.364,27.418c-2.265,3.436-1.809,7.992,1.098,10.908l7.272,7.511
				l-12.197,12.067l-7.281-7.294c-2.907-2.924-7.493-3.384-10.938-1.098c-8.396,5.576-17.59,9.402-27.322,11.385
				c-4.044,0.824-6.951,4.378-6.951,8.504l-0.113,10.422l-17.143-0.143v-10.279c0-4.126-2.907-7.68-6.951-8.504
				c-9.732-1.983-18.926-5.81-27.322-11.385c-1.462-0.976-3.133-1.449-4.795-1.449c-2.243,0-4.469,0.868-6.144,2.551l-7.433,7.294
				l-12.041-12.288l7.276-7.294c2.907-2.92,3.367-7.476,1.098-10.912c-5.558-8.422-9.381-17.646-11.364-27.418
				c-0.82-4.048-4.378-6.955-8.504-6.955l-10.366-0.143l0.117-17.213h10.244c4.126,0,7.689-2.911,8.504-6.955
				c1.983-9.771,5.806-19,11.364-27.418c2.269-3.436,1.809-7.997-1.098-10.912l-7.276-7.511l12.197-12.067l7.281,7.294
				c2.907,2.924,7.489,3.38,10.938,1.098c8.396-5.576,17.59-9.403,27.322-11.385c4.044-0.824,6.951-4.378,6.951-8.504l0.113-10.422
				l17.148,0.143v10.279c0,4.126,2.907,7.68,6.951,8.504c9.732,1.983,18.926,5.81,27.322,11.385
				c3.441,2.291,8.023,1.827,10.938-1.098l7.433-7.294l12.041,12.288l-7.272,7.294c-2.907,2.916-3.363,7.472-1.098,10.908
				c5.558,8.418,9.381,17.646,11.364,27.418c0.82,4.048,4.378,6.955,8.504,6.955h10.244l0.117,0.143L477.169,121.499z"/>
		</g>
	</g>
</g>
<g>
	<g>
		<path d="M226.326,338.442h-77.893c-4.79,0-8.678,3.888-8.678,8.678v43.389c0,3.428,2.018,6.534,5.146,7.927
			c13.303,5.923,27.891,8.886,42.483,8.886c14.588,0,29.179-2.964,42.474-8.886c3.128-1.393,5.146-4.5,5.146-7.927V347.12
			C235.004,342.33,231.116,338.442,226.326,338.442z M217.648,384.669c-19.304,7.094-41.229,7.094-60.537,0v-28.871h60.537V384.669z
			"/>
	</g>
</g>
<g>
	<g>
		<path d="M191.61,147.529h-8.444c-47.793,0-86.675,38.881-86.675,86.675v77.099c0,24.532,19.959,44.496,44.496,44.496h92.793
			c24.537,0,44.496-19.963,44.505-44.496v-77.099C278.285,186.41,239.404,147.529,191.61,147.529z M260.925,311.302
			c-0.004,14.965-12.179,27.14-27.144,27.14h-92.797c-14.965,0-27.14-12.175-27.14-27.14v-77.099
			c0-38.222,31.097-69.319,69.319-69.319h8.444c38.222,0,69.319,31.097,69.319,69.319V311.302z"/>
	</g>
</g>
<g>
</g>
<g>
</g>
<g>
</g>
<g>
</g>
<g>
</g>
<g>
</g>
<g>
</g>
<g>
</g>
<g>
</g>
<g>
</g>
<g>
</g>
<g>
</g>
<g>
</g>
<g>
</g>
<g>
</g>
</svg>
