<?xml version="1.0" encoding="iso-8859-1"?>
<!-- Generator: Adobe Illustrator 19.0.0, SVG Export Plug-In . SVG Version: 6.00 Build 0)  -->
<svg version="1.1" id="Capa_1" xmlns="http://www.w3.org/2000/svg" xmlns:xlink="http://www.w3.org/1999/xlink" x="0px" y="0px"
	 viewBox="0 0 512 512" style="enable-background:new 0 0 512 512;" xml:space="preserve">
<g>
	<g>
		<path d="M503.467,375.33H8.533c-4.71,0-8.533,3.823-8.533,8.533c0,4.71,3.823,8.533,8.533,8.533h494.933
			c4.71,0,8.533-3.823,8.533-8.533C512,379.153,508.177,375.33,503.467,375.33z"/>
	</g>
</g>
<g>
	<g>
		<path d="M162.133,221.897H93.867c-4.71,0-8.533,3.823-8.533,8.533v119.339c0,4.71,3.823,8.533,8.533,8.533h68.267
			c4.71,0,8.533-3.819,8.533-8.533V230.43C170.667,225.719,166.844,221.897,162.133,221.897z M153.6,341.235h-51.2V238.963h51.2
			V341.235z"/>
	</g>
</g>
<g>
	<g>
		<path d="M401.067,119.603H332.8c-4.71,0-8.533,3.823-8.533,8.533v221.632c0,4.71,3.823,8.533,8.533,8.533h68.267
			c4.71,0,8.533-3.819,8.533-8.533V128.137C409.6,123.426,405.777,119.603,401.067,119.603z M392.533,341.235h-51.2V136.67h51.2
			V341.235z"/>
	</g>
</g>
<g>
	<g>
		<path d="M281.6,179.272h-68.267c-4.71,0-8.533,3.823-8.533,8.533v161.963c0,4.71,3.823,8.533,8.533,8.533H281.6
			c4.71,0,8.533-3.819,8.533-8.533V187.806C290.133,183.095,286.31,179.272,281.6,179.272z M273.067,341.235h-51.2V196.339h51.2
			V341.235z"/>
	</g>
</g>
<g>
</g>
<g>
</g>
<g>
</g>
<g>
</g>
<g>
</g>
<g>
</g>
<g>
</g>
<g>
</g>
<g>
</g>
<g>
</g>
<g>
</g>
<g>
</g>
<g>
</g>
<g>
</g>
<g>
</g>
</svg>
