<?xml version="1.0" encoding="iso-8859-1"?>
<!-- Generator: Adobe Illustrator 19.0.0, SVG Export Plug-In . SVG Version: 6.00 Build 0)  -->
<svg version="1.1" id="Capa_1" xmlns="http://www.w3.org/2000/svg" xmlns:xlink="http://www.w3.org/1999/xlink" x="0px" y="0px"
	 viewBox="0 0 512 512" style="enable-background:new 0 0 512 512;" xml:space="preserve">
<g>
	<g>
		<path d="M79.504,373.987c-38.051,0-69.006,30.955-69.006,69.006c0,38.051,30.955,69.006,69.006,69.006
			c38.047,0,69.006-30.955,69.006-69.006C148.51,404.943,117.555,373.987,79.504,373.987z M79.504,495.758
			c-29.095,0-52.765-23.67-52.765-52.765c0-29.095,23.67-52.765,52.765-52.765c29.095,0,52.765,23.666,52.765,52.765
			C132.268,472.093,108.599,495.758,79.504,495.758z"/>
	</g>
</g>
<g>
	<g>
		<path d="M108.536,460.151l-46.189-46.189c-3.275-3.279-8.6-3.279-11.875,0c-3.279,3.279-3.279,8.595,0,11.875l46.189,46.189
			c1.638,1.642,3.787,2.461,5.937,2.461c2.146,0,4.3-0.819,5.937-2.461C111.815,468.746,111.815,463.43,108.536,460.151z"/>
	</g>
</g>
<g>
	<g>
		<path d="M108.536,413.962c-3.275-3.279-8.6-3.279-11.875,0l-46.189,46.189c-3.279,3.279-3.279,8.595,0,11.875
			c1.638,1.642,3.787,2.461,5.937,2.461c2.146,0,4.3-0.819,5.937-2.461l46.189-46.189
			C111.815,422.557,111.815,417.241,108.536,413.962z"/>
	</g>
</g>
<g>
	<g>
		<path d="M299.464,335.919H31.215v-33.294c0-23.985,23.514-43.493,52.416-43.493c0.458,0,0.915-0.034,1.369-0.109l62.216-10.262
			c4.573-0.756,7.672-5.077,6.916-9.654c-0.756-4.573-5.064-7.701-9.654-6.916l-61.557,10.153
			c-37.837,0.328-68.502,27.247-68.502,60.285v41.688c0,4.636,3.762,8.398,8.398,8.398H299.46c4.64,0,8.402-3.762,8.402-8.398
			C307.862,339.682,304.099,335.919,299.464,335.919z"/>
	</g>
</g>
<g>
	<g>
		<path d="M257.869,239.783l-44.635-7.361c-4.552-0.764-8.898,2.339-9.649,6.92c-0.756,4.577,2.343,8.893,6.92,9.649l44.635,7.361
			c0.462,0.071,0.924,0.109,1.377,0.109c4.035,0,7.596-2.918,8.272-7.029C265.544,244.856,262.445,240.539,257.869,239.783z"/>
	</g>
</g>
<g>
	<g>
		<path d="M215.967,184.756h-75.582c-4.636,0-8.398,3.762-8.398,8.398v41.986c0,3.321,1.957,6.328,4.988,7.676
			c12.904,5.736,27.05,8.6,41.205,8.6c14.146,0,28.301-2.864,41.196-8.595c3.036-1.348,4.988-4.354,4.988-7.676v-41.99
			C224.365,188.518,220.602,184.756,215.967,184.756z M207.573,229.488c-18.753,6.878-40.042,6.874-58.786,0v-27.936h58.786V229.488
			z"/>
	</g>
</g>
<g>
	<g>
		<path d="M182.379,0h-8.398c-46.306,0-83.98,37.673-83.98,83.98v74.465c0,23.771,19.336,43.107,43.107,43.107h90.14
			c23.766,0,43.111-19.336,43.111-43.107V83.98C266.359,37.673,228.686,0,182.379,0z M249.567,158.441
			c-0.004,14.512-11.808,26.315-26.319,26.315h-90.136c-14.508,0-26.311-11.803-26.311-26.311V83.98
			c0-37.044,30.14-67.184,67.184-67.184h8.398c37.044,0,67.184,30.14,67.184,67.184V158.441z"/>
	</g>
</g>
<g>
	<g>
		<path d="M480.755,402.347c-12.836-10.959-29.767-17.056-47.743-17.216l-59.458-9.826c-4.619-0.739-8.902,2.343-9.658,6.916
			c-0.756,4.577,2.339,8.898,6.916,9.658l60.125,9.926c0.449,0.071,0.911,0.109,1.365,0.109
			c14.247,0.004,27.583,4.694,37.552,13.202c9.582,8.18,14.86,18.946,14.856,30.308l-0.008,33.29l-293.93-0.067l0.004-33.29
			c0-11.362,5.282-22.125,14.873-30.3c9.964-8.503,23.296-13.185,37.535-13.185c0.008,0,0.013,0,0.017,0
			c0.458,0,0.915-0.034,1.365-0.109l59.563-9.813c4.573-0.756,7.676-5.077,6.92-9.654c-0.76-4.568-5.043-7.655-9.654-6.92
			l-58.904,9.708c-17.976,0.151-34.906,6.244-47.747,17.195c-13.391,11.421-20.764,26.722-20.768,43.082l-0.008,41.688
			c0,4.636,3.762,8.398,8.398,8.398l310.73,0.067c2.225,0,4.363-0.882,5.937-2.456c1.575-1.575,2.461-3.708,2.461-5.937
			l0.008-41.683C501.507,429.074,494.142,413.777,480.755,402.347z"/>
	</g>
</g>
<g>
	<g>
		<path d="M375.528,327.521h-75.582c-4.636,0-8.398,3.762-8.398,8.398v41.99c0,3.317,1.957,6.328,4.988,7.676
			c12.904,5.727,27.054,8.595,41.205,8.595c14.151,0,28.301-2.868,41.196-8.595c3.032-1.348,4.988-4.359,4.988-7.676v-41.99
			C383.926,331.284,380.164,327.521,375.528,327.521z M367.135,372.253c-18.749,6.874-40.037,6.874-58.786,0v-27.936h58.786V372.253
			z"/>
	</g>
</g>
<g>
	<g>
		<path d="M341.937,142.766h-8.398c-46.306,0-83.98,37.673-83.98,83.98v74.465c0,23.77,19.341,43.107,43.107,43.107h90.14
			c23.771,0,43.115-19.336,43.111-43.107v-74.465C425.916,180.439,388.243,142.766,341.937,142.766z M409.129,301.211
			c0,14.508-11.808,26.311-26.319,26.311h-90.14c-14.508,0-26.311-11.803-26.311-26.311v-74.465
			c0-37.044,30.14-67.184,67.184-67.184h8.402c37.044,0,67.184,30.14,67.184,67.184V301.211z"/>
	</g>
</g>
<g>
</g>
<g>
</g>
<g>
</g>
<g>
</g>
<g>
</g>
<g>
</g>
<g>
</g>
<g>
</g>
<g>
</g>
<g>
</g>
<g>
</g>
<g>
</g>
<g>
</g>
<g>
</g>
<g>
</g>
</svg>
