<?xml version="1.0" encoding="iso-8859-1"?>
<!-- Generator: Adobe Illustrator 19.0.0, SVG Export Plug-In . SVG Version: 6.00 Build 0)  -->
<svg version="1.1" id="Capa_1" xmlns="http://www.w3.org/2000/svg" xmlns:xlink="http://www.w3.org/1999/xlink" x="0px" y="0px"
	 viewBox="0 0 512 512" style="enable-background:new 0 0 512 512;" xml:space="preserve">
<g>
	<g>
		<path d="M344.276,80.106c4.873,0,8.828-3.955,8.828-8.828V50.534c0-25.428-20.687-46.12-46.12-46.12H46.12
			C20.692,4.414,0,25.106,0,50.534v384.45c0,25.432,20.692,46.12,46.12,46.12h260.864c25.432,0,46.12-20.687,46.12-46.12
			c0-4.873-3.955-8.828-8.828-8.828s-8.828,3.955-8.828,8.828c0,15.691-12.769,28.465-28.465,28.465H46.12
			c-15.695,0-28.465-12.774-28.465-28.465V50.534c0-15.695,12.769-28.465,28.465-28.465h260.864
			c15.691,0,28.465,12.769,28.465,28.465v20.745C335.448,76.151,339.403,80.106,344.276,80.106z"/>
	</g>
</g>
<g>
	<g>
		<path d="M317.793,80.949c4.873,0,8.828-3.955,8.828-8.828V39.724c0-4.873-3.955-8.828-8.828-8.828H35.31
			c-4.873,0-8.828,3.955-8.828,8.828V384c0,4.873,3.955,8.828,8.828,8.828h282.483c4.873,0,8.828-3.955,8.828-8.828v-44.849
			c0-4.873-3.955-8.828-8.828-8.828s-8.828,3.955-8.828,8.828v36.021H44.138V48.552h264.828v23.57
			C308.966,76.994,312.92,80.949,317.793,80.949z"/>
	</g>
</g>
<g>
	<g>
		<path d="M176.552,401.655c-14.605,0-26.483,11.878-26.483,26.483s11.878,26.483,26.483,26.483
			c14.605,0,26.483-11.878,26.483-26.483S191.157,401.655,176.552,401.655z M176.552,436.966c-4.868,0-8.828-3.959-8.828-8.828
			s3.959-8.828,8.828-8.828c4.868,0,8.828,3.959,8.828,8.828S181.42,436.966,176.552,436.966z"/>
	</g>
</g>
<g>
	<g>
		<path d="M503.172,66.207H35.31c-4.873,0-8.828,3.955-8.828,8.828v194.207c0,4.873,3.955,8.828,8.828,8.828h278.294
			c4.873,0,8.828-3.955,8.828-8.828c0-4.873-3.955-8.828-8.828-8.828H44.138V83.862h450.207v176.552h-7.415
			c-4.873,0-8.828,3.955-8.828,8.828c0,4.873,3.955,8.828,8.828,8.828h16.243c4.873,0,8.828-3.955,8.828-8.828V75.034
			C512,70.162,508.045,66.207,503.172,66.207z"/>
	</g>
</g>
<g>
	<g>
		<path d="M273.655,233.931c-34.074,0-61.793-27.719-61.793-61.793s27.719-61.793,61.793-61.793
			c15.386,0,30.129,5.689,41.512,16.018l11.864-13.074c-14.641-13.286-33.593-20.599-53.376-20.599
			c-43.807,0-79.448,35.641-79.448,79.448s35.641,79.448,79.448,79.448c15.921,0,31.285-4.692,44.429-13.577l-9.887-14.627
			C297.988,230.281,286.04,233.931,273.655,233.931z"/>
	</g>
</g>
<g>
	<g>
		<path d="M432.817,216.276l-62.058-7.79v-76.072c0-17.037-13.864-30.897-30.897-30.897s-30.897,13.859-30.897,30.897v208.644
			c0,17.673,10.589,33.09,26.483,39.618v118.082c0,4.873,3.955,8.828,8.828,8.828h114.759c4.873,0,8.828-3.955,8.828-8.828V380.672
			c15.894-6.532,26.483-21.945,26.483-39.614v-62.68C494.345,244.321,466.798,216.585,432.817,216.276z M476.69,341.063
			c0,11.816-8.073,21.923-19.628,24.58c-4.012,0.922-6.855,4.484-6.855,8.602v115.685h-97.103V374.246
			c0-4.118-2.847-7.684-6.855-8.607c-11.555-2.648-19.628-12.756-19.628-24.58V132.414c0-7.3,5.941-13.241,13.241-13.241
			s13.241,5.941,13.241,13.241v83.862c0,4.449,3.31,8.205,7.729,8.757l70.312,8.828c0.362,0.049,0.733,0.071,1.099,0.071
			c24.505,0,44.447,19.942,44.447,44.447V341.063z"/>
	</g>
</g>
<g>
	<g>
		<path d="M361.931,207.448c-4.873,0-8.828,3.955-8.828,8.828v44.138c0,4.873,3.955,8.828,8.828,8.828s8.828-3.955,8.828-8.828
			v-44.138C370.759,211.403,366.804,207.448,361.931,207.448z"/>
	</g>
</g>
<g>
	<g>
		<path d="M397.241,216.276c-4.873,0-8.828,3.955-8.828,8.828v26.483c0,4.873,3.955,8.828,8.828,8.828s8.828-3.955,8.828-8.828
			v-26.483C406.069,220.231,402.114,216.276,397.241,216.276z"/>
	</g>
</g>
<g>
	<g>
		<path d="M432.552,216.276c-4.873,0-8.828,3.955-8.828,8.828v26.483c0,4.873,3.955,8.828,8.828,8.828
			c4.873,0,8.828-3.955,8.828-8.828v-26.483C441.379,220.231,437.425,216.276,432.552,216.276z"/>
	</g>
</g>
<g>
</g>
<g>
</g>
<g>
</g>
<g>
</g>
<g>
</g>
<g>
</g>
<g>
</g>
<g>
</g>
<g>
</g>
<g>
</g>
<g>
</g>
<g>
</g>
<g>
</g>
<g>
</g>
<g>
</g>
</svg>
