<?xml version="1.0" encoding="iso-8859-1"?>
<!-- Generator: Adobe Illustrator 19.0.0, SVG Export Plug-In . SVG Version: 6.00 Build 0)  -->
<svg version="1.1" id="Capa_1" xmlns="http://www.w3.org/2000/svg" xmlns:xlink="http://www.w3.org/1999/xlink" x="0px" y="0px"
	 viewBox="0 0 512 512" style="enable-background:new 0 0 512 512;" xml:space="preserve">
<g>
	<g>
		<path d="M388.741,84.006c5.234,0,9.482-4.248,9.482-9.481V49.536C398.222,22.225,376.002,0,348.686,0H68.499
			C41.188,0,18.963,22.225,18.963,49.536v412.928C18.963,489.78,41.188,512,68.499,512h280.187c27.316,0,49.536-22.22,49.536-49.536
			V331.733c0-5.234-4.248-9.482-9.482-9.482s-9.481,4.248-9.481,9.482v130.731c0,16.853-13.715,30.573-30.573,30.573H68.499
			c-16.858,0-30.573-13.715-30.573-30.573V49.536c0-16.858,13.715-30.573,30.573-30.573h280.187
			c16.853,0,30.573,13.715,30.573,30.573v24.988C379.259,79.758,383.507,84.006,388.741,84.006z"/>
	</g>
</g>
<g>
	<g>
		<path d="M360.296,82.204c5.234,0,9.481-4.248,9.481-9.482V37.926c0-5.234-4.248-9.481-9.481-9.481H56.889
			c-5.234,0-9.482,4.248-9.482,9.481v369.778c0,5.234,4.248,9.481,9.482,9.481h303.407c5.234,0,9.481-4.248,9.481-9.481v-79.578
			c0-5.234-4.248-9.481-9.481-9.481c-5.234,0-9.482,4.248-9.482,9.481v70.097H66.37V47.407h284.444v25.316
			C350.815,77.957,355.063,82.204,360.296,82.204z"/>
	</g>
</g>
<g>
	<g>
		<path d="M208.593,426.667c-15.687,0-28.444,12.757-28.444,28.444c0,15.687,12.757,28.444,28.444,28.444
			c15.687,0,28.444-12.757,28.444-28.444C237.037,439.424,224.28,426.667,208.593,426.667z M208.593,464.593
			c-5.229,0-9.482-4.252-9.482-9.482c0-5.229,4.252-9.481,9.482-9.481s9.482,4.252,9.482,9.481
			C218.074,460.34,213.822,464.593,208.593,464.593z"/>
	</g>
</g>
<g>
	<g>
		<path d="M483.556,66.37H180.148c-5.234,0-9.481,4.248-9.481,9.482v227.556c0,5.234,4.248,9.482,9.481,9.482h303.407
			c5.234,0,9.482-4.248,9.482-9.482V75.852C493.037,70.618,488.789,66.37,483.556,66.37z M474.074,293.926H189.63V85.333h284.444
			V293.926z"/>
	</g>
</g>
<g>
	<g>
		<path d="M180.148,104.296h-9.481v170.667h9.481c47.052,0,85.333-38.281,85.333-85.333
			C265.482,142.578,227.2,104.296,180.148,104.296z M189.63,255.327v-131.39c32.119,4.613,56.889,32.313,56.889,65.692
			S221.748,250.709,189.63,255.327z"/>
	</g>
</g>
<g>
	<g>
		<path d="M483.556,123.259c-26.14,0-47.407-21.267-47.407-47.407c0-5.234-4.248-9.482-9.481-9.482s-9.482,4.248-9.482,9.482
			c0,36.599,29.772,66.37,66.37,66.37c5.234,0,9.482-4.248,9.482-9.482C493.037,127.507,488.789,123.259,483.556,123.259z"/>
	</g>
</g>
<g>
	<g>
		<path d="M483.556,237.037c-36.599,0-66.37,29.772-66.37,66.37c0,5.234,4.248,9.482,9.482,9.482s9.481-4.248,9.481-9.482
			c0-26.14,21.267-47.407,47.407-47.407c5.234,0,9.482-4.248,9.482-9.482C493.037,241.285,488.789,237.037,483.556,237.037z"/>
	</g>
</g>
<g>
	<g>
		<path d="M464.593,293.926H180.148c-4.992,0-9.131,3.868-9.462,8.851c-0.332,4.982,3.257,9.368,8.206,10.027l284.444,37.926
			c0.422,0.057,0.839,0.085,1.256,0.085c2.28,0,4.504-0.825,6.244-2.347c2.057-1.801,3.238-4.404,3.238-7.135v-37.926
			C474.074,298.174,469.826,293.926,464.593,293.926z M455.111,330.505l-132.11-17.617h132.11V330.505z"/>
	</g>
</g>
<g>
</g>
<g>
</g>
<g>
</g>
<g>
</g>
<g>
</g>
<g>
</g>
<g>
</g>
<g>
</g>
<g>
</g>
<g>
</g>
<g>
</g>
<g>
</g>
<g>
</g>
<g>
</g>
<g>
</g>
</svg>
