<?xml version="1.0" encoding="iso-8859-1"?>
<!-- Generator: Adobe Illustrator 19.0.0, SVG Export Plug-In . SVG Version: 6.00 Build 0)  -->
<svg version="1.1" id="Capa_1" xmlns="http://www.w3.org/2000/svg" xmlns:xlink="http://www.w3.org/1999/xlink" x="0px" y="0px"
	 viewBox="0 0 512.004 512.004" style="enable-background:new 0 0 512.004 512.004;" xml:space="preserve">
<g>
	<g>
		<path d="M295.398,0.002H28.868C12.949,0.002,0,12.952,0,28.87v172.663c0,15.919,12.949,28.868,28.868,28.868h5.265v34.133
			c0,3.708,2.398,6.997,5.931,8.124c0.858,0.277,1.737,0.41,2.603,0.41c2.701,0,5.312-1.289,6.942-3.575l27.925-39.091h217.865
			c15.919,0,28.868-12.949,28.868-28.868V28.87C324.267,12.952,311.317,0.002,295.398,0.002z M307.2,201.534
			c0,6.507-5.291,11.802-11.802,11.802H73.143c-2.756,0-5.342,1.331-6.942,3.571L51.2,237.907v-16.038
			c0-4.71-3.823-8.533-8.533-8.533H28.868c-6.507,0-11.802-5.295-11.802-11.802V28.87c0-6.507,5.295-11.802,11.802-11.802h266.53
			c6.511,0,11.802,5.295,11.802,11.802V201.534z"/>
	</g>
</g>
<g>
	<g>
		<path d="M131.268,150.103c-2.94,1.664-8.828,4.224-15.612,4.224c-6.912,0-13.312-2.432-18.048-7.424
			c-3.452-3.844-6.016-9.344-7.036-16.768h36.22v-6.268H89.677c0-0.9,0-1.54,0-2.308c0-1.792,0.128-3.708,0.256-5.376h36.864v-6.4
			H91.089c1.28-6.784,3.84-12.544,7.68-16.26c4.352-4.608,9.984-7.031,16.896-7.031c5.756,0,11.132,1.66,14.332,3.584l2.56-8.448
			c-3.584-1.916-9.468-4.1-17.02-4.1c-10.496,0-18.816,3.84-25.34,10.624c-5.12,5.248-8.964,12.672-10.496,21.632h-8.448v6.4h7.556
			c-0.132,1.792-0.26,3.712-0.26,5.76c0,0.64,0,1.284,0,1.924h-7.296v6.268h7.936c1.148,9.216,4.348,16.64,9.216,22.016
			c6.396,7.424,15.612,11.392,25.98,11.392c8.452,0,15.104-2.692,19.072-5.376L131.268,150.103z"/>
	</g>
</g>
<g>
	<g>
		<path d="M196.932,150.103c-2.94,1.664-8.828,4.224-15.612,4.224c-6.912,0-13.312-2.432-18.048-7.424
			c-3.452-3.844-6.016-9.344-7.036-16.768h36.22v-6.268h-37.116c0-0.9,0-1.54,0-2.308c0-1.792,0.128-3.708,0.256-5.376h36.864v-6.4
			h-35.708c1.28-6.784,3.84-12.544,7.68-16.26c4.352-4.608,9.984-7.031,16.896-7.031c5.756,0,11.132,1.66,14.332,3.584l2.56-8.448
			c-3.584-1.916-9.468-4.1-17.02-4.1c-10.496,0-18.816,3.84-25.34,10.624c-5.12,5.248-8.964,12.672-10.496,21.632h-8.448v6.4h7.556
			c-0.132,1.792-0.26,3.712-0.26,5.76c0,0.64,0,1.284,0,1.924h-7.296v6.268h7.936c1.148,9.216,4.348,16.64,9.212,22.016
			c6.4,7.424,15.616,11.392,25.984,11.392c8.452,0,15.104-2.692,19.076-5.376L196.932,150.103z"/>
	</g>
</g>
<g>
	<g>
		<path d="M262.596,150.103c-2.94,1.664-8.828,4.224-15.612,4.224c-6.912,0-13.312-2.432-18.048-7.424
			c-3.452-3.844-6.016-9.344-7.036-16.768h36.22v-6.268h-37.116c0-0.9,0-1.54,0-2.308c0-1.792,0.128-3.708,0.256-5.376h36.864v-6.4
			h-35.708c1.28-6.784,3.84-12.544,7.68-16.26c4.352-4.608,9.984-7.031,16.896-7.031c5.756,0,11.132,1.66,14.332,3.584l2.56-8.448
			c-3.584-1.916-9.468-4.1-17.02-4.1c-10.496,0-18.816,3.84-25.34,10.624c-5.12,5.248-8.964,12.672-10.496,21.632h-8.448v6.4h7.556
			c-0.132,1.792-0.26,3.712-0.26,5.76c0,0.64,0,1.284,0,1.924h-7.296v6.268h7.936c1.148,9.216,4.348,16.64,9.216,22.016
			c6.396,7.424,15.612,11.392,25.98,11.392c8.452,0,15.104-2.692,19.072-5.376L262.596,150.103z"/>
	</g>
</g>
<g>
	<g>
		<path d="M384,341.336h-76.8c-4.71,0-8.533,3.823-8.533,8.533v42.667c0,4.71,3.823,8.533,8.533,8.533s8.533-3.823,8.533-8.533
			v-34.133h59.733v34.133c0,4.71,3.823,8.533,8.533,8.533s8.533-3.823,8.533-8.533v-42.667
			C392.533,345.158,388.71,341.336,384,341.336z"/>
	</g>
</g>
<g>
	<g>
		<path d="M442.394,399.861l-22.81-3.767c-4.651-0.755-9.037,2.381-9.809,7.031c-0.768,4.646,2.381,9.037,7.031,9.809l23.479,3.874
			c0.457,0.073,0.922,0.111,1.387,0.111c29.367,0,53.261,19.823,53.261,44.194v33.822H196.267v-33.826
			c0-24.371,23.893-44.194,53.261-44.198c0.465,0,0.93-0.034,1.391-0.111l20.553-3.392c4.646-0.768,7.799-5.158,7.031-9.809
			c-0.772-4.651-5.184-7.791-9.809-7.031l-19.887,3.285c-38.447,0.333-69.606,27.686-69.606,61.257v42.359
			c0,4.71,3.823,8.533,8.533,8.533h315.733c4.71,0,8.533-3.823,8.538-8.533v-42.351
			C512.004,427.548,480.849,400.194,442.394,399.861z"/>
	</g>
</g>
<g>
	<g>
		<path d="M349.867,153.602h-8.533c-8.896,0-17.66,1.361-26.048,4.053c-4.489,1.438-6.959,6.242-5.521,10.731
			c1.434,4.484,6.225,6.955,10.731,5.521c6.703-2.15,13.713-3.238,20.838-3.238h8.533c37.641,0,68.267,30.626,68.267,68.267v75.665
			c0,14.741-11.994,26.735-26.735,26.739h-91.597c-14.741,0-26.735-11.994-26.735-26.735V238.94c0-3.755,0.307-7.514,0.913-11.179
			c0.768-4.651-2.381-9.041-7.031-9.809c-4.698-0.798-9.041,2.381-9.805,7.027c-0.755,4.578-1.139,9.276-1.139,13.956v75.665
			c0,24.154,19.652,43.802,43.802,43.802h91.593c24.154,0,43.802-19.648,43.802-43.802v-75.665
			C435.2,191.883,396.919,153.602,349.867,153.602z"/>
	</g>
</g>
<g>
	<g>
		<path d="M358.131,390.394c-0.981-3.763-4.378-6.391-8.265-6.391h-76.8c-4.71,0-8.533,3.823-8.533,8.533v42.667
			c0,3.025,1.6,5.82,4.203,7.356c1.34,0.785,2.833,1.178,4.331,1.178c1.425,0,2.854-0.358,4.147-1.075l76.8-42.667
			C357.41,398.108,359.108,394.161,358.131,390.394z M281.6,420.7v-19.631h35.336L281.6,420.7z"/>
	</g>
</g>
<g>
	<g>
		<path d="M418.133,384.002h-76.8c-3.887,0-7.283,2.628-8.265,6.391c-0.973,3.768,0.721,7.714,4.117,9.6l76.8,42.667
			c1.293,0.717,2.722,1.075,4.147,1.075c1.498,0,2.991-0.393,4.331-1.178c2.603-1.536,4.203-4.331,4.203-7.356v-42.667
			C426.667,387.825,422.844,384.002,418.133,384.002z M409.6,420.7l-35.337-19.631H409.6V420.7z"/>
	</g>
</g>
<g>
</g>
<g>
</g>
<g>
</g>
<g>
</g>
<g>
</g>
<g>
</g>
<g>
</g>
<g>
</g>
<g>
</g>
<g>
</g>
<g>
</g>
<g>
</g>
<g>
</g>
<g>
</g>
<g>
</g>
</svg>
