<?xml version="1.0" encoding="iso-8859-1"?>
<!-- Generator: Adobe Illustrator 19.0.0, SVG Export Plug-In . SVG Version: 6.00 Build 0)  -->
<svg version="1.1" id="Capa_1" xmlns="http://www.w3.org/2000/svg" xmlns:xlink="http://www.w3.org/1999/xlink" x="0px" y="0px"
	 viewBox="0 0 512 512" style="enable-background:new 0 0 512 512;" xml:space="preserve">
<g>
	<g>
		<path d="M256.004,80.194c4.873,0,8.828-3.955,8.828-8.828V30.822c0-14.561-11.847-26.408-26.408-26.408H26.408
			C11.847,4.414,0,16.26,0,30.817v423.879c0,14.561,11.847,26.408,26.408,26.408H238.42c14.561,0,26.408-11.847,26.408-26.408
			V277.001c0-4.873-3.955-8.828-8.828-8.828s-8.828,3.955-8.828,8.828v177.695c0,4.824-3.928,8.753-8.753,8.753H26.408
			c-4.824,0-8.753-3.924-8.753-8.753V30.817c0-4.824,3.928-8.748,8.753-8.753h212.017c4.824,0,8.753,3.928,8.753,8.753v40.55
			C247.177,76.239,251.132,80.194,256.004,80.194z"/>
	</g>
</g>
<g>
	<g>
		<path d="M229.517,80.194c4.873,0,8.828-3.955,8.828-8.828V39.724c0-4.873-3.955-8.828-8.828-8.828H35.31
			c-4.873,0-8.828,3.955-8.828,8.828V384c0,4.873,3.955,8.828,8.828,8.828h194.207c4.873,0,8.828-3.95,8.828-8.828V271.673
			c0-4.873-3.955-8.828-8.828-8.828c-4.873,0-8.828,3.955-8.828,8.828v103.499H44.138V48.552H220.69v22.815
			C220.69,76.239,224.644,80.194,229.517,80.194z"/>
	</g>
</g>
<g>
	<g>
		<path d="M132.414,401.655c-14.605,0-26.483,11.878-26.483,26.483s11.878,26.483,26.483,26.483
			c14.605,0,26.483-11.878,26.483-26.483S147.019,401.655,132.414,401.655z M132.414,436.966c-4.868,0-8.828-3.959-8.828-8.828
			s3.959-8.828,8.828-8.828c4.868,0,8.828,3.959,8.828,8.828S137.282,436.966,132.414,436.966z"/>
	</g>
</g>
<g>
	<g>
		<path d="M317.793,260.414H44.138V83.862h180.1c4.873,0,8.828-3.955,8.828-8.828s-3.955-8.828-8.828-8.828H35.31
			c-4.873,0-8.828,3.955-8.828,8.828v194.207c0,4.873,3.955,8.828,8.828,8.828h282.483c4.873,0,8.828-3.955,8.828-8.828
			C326.621,264.369,322.666,260.414,317.793,260.414z"/>
	</g>
</g>
<g>
	<g>
		<path d="M503.172,66.207H224.238c-4.873,0-8.828,3.955-8.828,8.828s3.955,8.828,8.828,8.828h270.107v176.552h-6.828
			c-4.873,0-8.828,3.955-8.828,8.828c0,4.873,3.955,8.828,8.828,8.828h15.656c4.873,0,8.828-3.95,8.828-8.828V75.034
			C512,70.162,508.045,66.207,503.172,66.207z"/>
	</g>
</g>
<g>
	<g>
		<path d="M273.655,233.931c-34.074,0-61.793-27.719-61.793-61.793s27.719-61.793,61.793-61.793c14.72,0,28.981,5.266,40.157,14.826
			l11.476-13.418C310.916,99.46,292.582,92.69,273.655,92.69c-43.807,0-79.448,35.641-79.448,79.448s35.641,79.448,79.448,79.448
			c17.611,0,34.295-5.641,48.243-16.322l-10.734-14.018C300.323,229.544,287.356,233.931,273.655,233.931z"/>
	</g>
</g>
<g>
	<g>
		<path d="M432.817,216.276l-62.058-7.79v-76.072c0-17.037-13.864-30.897-30.897-30.897s-30.897,13.859-30.897,30.897v208.649
			c0,17.673,10.589,33.09,26.483,39.618v118.078c0,4.873,3.955,8.828,8.828,8.828h114.759c4.873,0,8.828-3.95,8.828-8.828V380.672
			c15.894-6.532,26.483-21.945,26.483-39.614v-62.68C494.345,244.321,466.798,216.585,432.817,216.276z M476.69,341.063
			c0,11.82-8.073,21.928-19.628,24.58c-4.012,0.922-6.855,4.484-6.855,8.602v115.685h-97.103V374.25
			c0-4.118-2.847-7.689-6.855-8.611c-11.555-2.648-19.628-12.756-19.628-24.58V132.414c0-7.3,5.941-13.241,13.241-13.241
			s13.241,5.941,13.241,13.241v83.862c0,4.453,3.31,8.205,7.729,8.757l70.312,8.828c0.362,0.049,0.733,0.071,1.099,0.071
			c24.505,0,44.447,19.942,44.447,44.451V341.063z"/>
	</g>
</g>
<g>
	<g>
		<path d="M361.931,207.448c-4.873,0-8.828,3.955-8.828,8.828v44.138c0,4.873,3.955,8.828,8.828,8.828s8.828-3.95,8.828-8.828
			v-44.138C370.759,211.403,366.804,207.448,361.931,207.448z"/>
	</g>
</g>
<g>
	<g>
		<path d="M397.241,216.276c-4.873,0-8.828,3.955-8.828,8.828v26.483c0,4.873,3.955,8.828,8.828,8.828s8.828-3.95,8.828-8.828
			v-26.483C406.069,220.231,402.114,216.276,397.241,216.276z"/>
	</g>
</g>
<g>
	<g>
		<path d="M432.552,216.276c-4.873,0-8.828,3.955-8.828,8.828v26.483c0,4.873,3.955,8.828,8.828,8.828
			c4.873,0,8.828-3.95,8.828-8.828v-26.483C441.379,220.231,437.425,216.276,432.552,216.276z"/>
	</g>
</g>
<g>
</g>
<g>
</g>
<g>
</g>
<g>
</g>
<g>
</g>
<g>
</g>
<g>
</g>
<g>
</g>
<g>
</g>
<g>
</g>
<g>
</g>
<g>
</g>
<g>
</g>
<g>
</g>
<g>
</g>
</svg>
