<?xml version="1.0" encoding="iso-8859-1"?>
<!-- Generator: Adobe Illustrator 19.0.0, SVG Export Plug-In . SVG Version: 6.00 Build 0)  -->
<svg version="1.1" id="Capa_1" xmlns="http://www.w3.org/2000/svg" xmlns:xlink="http://www.w3.org/1999/xlink" x="0px" y="0px"
	 viewBox="0 0 512 512" style="enable-background:new 0 0 512 512;" xml:space="preserve">
<g>
	<g>
		<path d="M485.053,4.491H26.947C12.086,4.491,0,16.577,0,31.439s12.086,26.947,26.947,26.947h458.105
			C499.914,58.386,512,46.3,512,31.439S499.914,4.491,485.053,4.491z M485.053,40.421H26.947c-4.954,0-8.982-4.029-8.982-8.982
			c0-4.954,4.029-8.982,8.982-8.982h458.105c4.954,0,8.982,4.029,8.982,8.982S490.006,40.421,485.053,40.421z"/>
	</g>
</g>
<g>
	<g>
		<path d="M485.053,336.842H26.947C12.086,336.842,0,348.928,0,363.789s12.086,26.947,26.947,26.947h458.105
			c14.862,0,26.947-12.086,26.947-26.947S499.914,336.842,485.053,336.842z M485.053,372.772H26.947
			c-4.954,0-8.982-4.029-8.982-8.982s4.029-8.982,8.982-8.982h458.105c4.954,0,8.982,4.029,8.982,8.982
			S490.006,372.772,485.053,372.772z"/>
	</g>
</g>
<g>
	<g>
		<path d="M322.362,453.61H189.638c-10.46,0-18.971,8.511-18.971,18.971v15.957c0,10.46,8.511,18.971,18.971,18.971h132.725
			c10.46,0,18.971-8.511,18.971-18.971V472.58C341.333,462.12,332.822,453.61,322.362,453.61z M323.368,488.542
			c0,0.552-0.454,1.006-1.006,1.006H189.638c-0.552,0-1.006-0.454-1.006-1.006v-15.957c0-0.552,0.449-1.006,1.006-1.006h132.725
			c0.552,0,1.006,0.454,1.006,1.006V488.542z"/>
	</g>
</g>
<g>
	<g>
		<path d="M476.07,40.421H35.93c-4.958,0-8.982,4.024-8.982,8.982v296.421c0,4.958,4.024,8.982,8.982,8.982h440.14
			c4.958,0,8.982-4.024,8.982-8.982V49.403C485.053,44.445,481.029,40.421,476.07,40.421z M467.088,336.842H44.912V58.386h422.175
			V336.842z"/>
	</g>
</g>
<g>
	<g>
		<path d="M269.474,372.772c-4.958,0-8.982,4.024-8.982,8.982v71.86h-8.982v-71.86c0-4.958-4.024-8.982-8.982-8.982
			s-8.982,4.024-8.982,8.982v80.842c0,4.958,4.024,8.982,8.982,8.982h26.947c4.958,0,8.982-4.024,8.982-8.982v-80.842
			C278.456,376.796,274.432,372.772,269.474,372.772z"/>
	</g>
</g>
<g>
	<g>
		<path d="M405.666,119.812c-3.508-3.508-9.194-3.508-12.701,0l-95.515,95.51c-3.508,3.508-3.508,9.194,0,12.701
			c1.756,1.756,4.051,2.632,6.351,2.632c2.295,0,4.595-0.876,6.351-2.632l95.515-95.51
			C409.173,129.006,409.173,123.32,405.666,119.812z"/>
	</g>
</g>
<g>
	<g>
		<path d="M276.857,221.876l-43.596-24.217c-4.343-2.407-9.804-0.849-12.216,3.49c-2.407,4.339-0.849,9.804,3.49,12.216
			l43.592,24.217c1.383,0.768,2.883,1.132,4.357,1.132c3.157,0,6.22-1.666,7.86-4.621
			C282.754,229.753,281.191,224.287,276.857,221.876z"/>
	</g>
</g>
<g>
	<g>
		<path d="M200.125,198.512c-3.18-3.813-8.843-4.325-12.652-1.15l-71.518,59.603c-3.809,3.175-4.325,8.834-1.15,12.647
			c1.779,2.133,4.334,3.234,6.908,3.234c2.03,0,4.065-0.683,5.744-2.084l71.518-59.599
			C202.783,207.984,203.3,202.325,200.125,198.512z"/>
	</g>
</g>
<g>
	<g>
		<path d="M417.684,80.842c-17.332,0-31.439,14.102-31.439,31.439s14.107,31.439,31.439,31.439s31.439-14.102,31.439-31.439
			S435.016,80.842,417.684,80.842z M417.684,125.754c-7.428,0-13.474-6.045-13.474-13.474s6.045-13.474,13.474-13.474
			c7.429,0,13.474,6.045,13.474,13.474S425.113,125.754,417.684,125.754z"/>
	</g>
</g>
<g>
	<g>
		<path d="M291.93,211.088c-17.332,0-31.439,14.102-31.439,31.439c0,17.332,14.107,31.439,31.439,31.439
			s31.439-14.107,31.439-31.439C323.368,225.19,309.261,211.088,291.93,211.088z M291.93,256c-7.428,0-13.474-6.045-13.474-13.474
			c0-7.428,6.045-13.474,13.474-13.474c7.429,0,13.474,6.045,13.474,13.474C305.404,249.955,299.358,256,291.93,256z"/>
	</g>
</g>
<g>
	<g>
		<path d="M211.088,157.193c-17.336,0-31.439,14.102-31.439,31.439c0,17.336,14.102,31.439,31.439,31.439
			c17.336,0,31.439-14.102,31.439-31.439C242.526,171.295,228.424,157.193,211.088,157.193z M211.088,202.105
			c-7.428,0-13.474-6.045-13.474-13.474c0-7.429,6.045-13.474,13.474-13.474c7.429,0,13.474,6.045,13.474,13.474
			C224.561,196.06,218.516,202.105,211.088,202.105z"/>
	</g>
</g>
<g>
	<g>
		<path d="M103.298,247.018c-17.336,0-31.439,14.107-31.439,31.439c0,17.332,14.102,31.439,31.439,31.439
			c17.336,0,31.439-14.107,31.439-31.439C134.737,261.124,120.634,247.018,103.298,247.018z M103.298,291.93
			c-7.428,0-13.474-6.045-13.474-13.474c0-7.428,6.045-13.474,13.474-13.474c7.429,0,13.474,6.045,13.474,13.474
			C116.772,285.885,110.727,291.93,103.298,291.93z"/>
	</g>
</g>
<g>
</g>
<g>
</g>
<g>
</g>
<g>
</g>
<g>
</g>
<g>
</g>
<g>
</g>
<g>
</g>
<g>
</g>
<g>
</g>
<g>
</g>
<g>
</g>
<g>
</g>
<g>
</g>
<g>
</g>
</svg>
