<?xml version="1.0" encoding="iso-8859-1"?>
<!-- Generator: Adobe Illustrator 19.0.0, SVG Export Plug-In . SVG Version: 6.00 Build 0)  -->
<svg version="1.1" id="Capa_1" xmlns="http://www.w3.org/2000/svg" xmlns:xlink="http://www.w3.org/1999/xlink" x="0px" y="0px"
	 viewBox="0 0 512.001 512.001" style="enable-background:new 0 0 512.001 512.001;" xml:space="preserve">
<g>
	<g>
		<path d="M503.323,65.085H8.679c-4.79,0-8.678,3.888-8.678,8.678v364.475c0,4.79,3.888,8.678,8.678,8.678h494.644
			c4.79,0,8.678-3.888,8.678-8.678V73.763C512.001,68.973,508.113,65.085,503.323,65.085z M494.645,429.56H17.357V82.441h477.288
			V429.56z"/>
	</g>
</g>
<g>
	<g>
		<path d="M60.746,65.085c-4.79,0-8.678,3.888-8.678,8.678v364.475c0,4.79,3.888,8.678,8.678,8.678c4.79,0,8.678-3.888,8.678-8.678
			V73.763C69.424,68.973,65.537,65.085,60.746,65.085z"/>
	</g>
</g>
<g>
	<g>
		<path d="M138.848,65.085c-4.79,0-8.678,3.888-8.678,8.678v364.475c0,4.79,3.888,8.678,8.678,8.678c4.79,0,8.678-3.888,8.678-8.678
			V73.763C147.526,68.973,143.638,65.085,138.848,65.085z"/>
	</g>
</g>
<g>
	<g>
		<path d="M216.95,65.085c-4.79,0-8.678,3.888-8.678,8.678v364.475c0,4.79,3.888,8.678,8.678,8.678s8.678-3.888,8.678-8.678V73.763
			C225.628,68.973,221.74,65.085,216.95,65.085z"/>
	</g>
</g>
<g>
	<g>
		<path d="M295.052,65.085c-4.79,0-8.678,3.888-8.678,8.678v364.475c0,4.79,3.888,8.678,8.678,8.678s8.678-3.888,8.678-8.678V73.763
			C303.729,68.973,299.842,65.085,295.052,65.085z"/>
	</g>
</g>
<g>
	<g>
		<path d="M373.153,65.085c-4.79,0-8.678,3.888-8.678,8.678v364.475c0,4.79,3.888,8.678,8.678,8.678s8.678-3.888,8.678-8.678V73.763
			C381.831,68.973,377.943,65.085,373.153,65.085z"/>
	</g>
</g>
<g>
	<g>
		<path d="M451.255,65.085c-4.79,0-8.678,3.888-8.678,8.678v364.475c0,4.79,3.888,8.678,8.678,8.678s8.678-3.888,8.678-8.678V73.763
			C459.933,68.973,456.045,65.085,451.255,65.085z"/>
	</g>
</g>
<g>
	<g>
		<path d="M503.323,134.509h-86.78c-2.668,0-5.189,1.228-6.834,3.332L256.877,333.126l-150.858-33.527
			c-2.751-0.616-5.636,0.152-7.719,2.052L2.843,388.43c-3.549,3.22-3.81,8.713-0.586,12.258c1.714,1.879,4.061,2.838,6.422,2.838
			c2.083,0,4.174-0.746,5.836-2.261l92.13-83.747l151.812,33.731c3.263,0.725,6.652-0.495,8.717-3.124l153.6-196.261h82.549
			c4.79,0,8.678-3.888,8.678-8.678C512.001,138.397,508.113,134.509,503.323,134.509z"/>
	</g>
</g>
<g>
</g>
<g>
</g>
<g>
</g>
<g>
</g>
<g>
</g>
<g>
</g>
<g>
</g>
<g>
</g>
<g>
</g>
<g>
</g>
<g>
</g>
<g>
</g>
<g>
</g>
<g>
</g>
<g>
</g>
</svg>
