<?xml version="1.0" encoding="iso-8859-1"?>
<!-- Generator: Adobe Illustrator 19.0.0, SVG Export Plug-In . SVG Version: 6.00 Build 0)  -->
<svg version="1.1" id="Capa_1" xmlns="http://www.w3.org/2000/svg" xmlns:xlink="http://www.w3.org/1999/xlink" x="0px" y="0px"
	 viewBox="0 0 512 512" style="enable-background:new 0 0 512 512;" xml:space="preserve">
<g>
	<g>
		<path d="M463.296,102.399H263.042l-44.689-32.503c-1.459-1.058-3.213-1.63-5.018-1.63H48.704C21.849,68.266,0,90.116,0,116.97
			V395.03c0,26.854,21.849,48.704,48.704,48.704h414.593c26.854,0,48.704-21.849,48.704-48.704V151.103
			C512,124.249,490.151,102.399,463.296,102.399z M494.933,395.03c0,17.446-14.191,31.637-31.637,31.637H48.704
			c-17.446,0-31.637-14.191-31.637-31.637V116.97c0-17.446,14.191-31.637,31.637-31.637h161.859l44.689,32.503
			c1.459,1.058,3.213,1.63,5.018,1.63h203.028c17.446,0,31.637,14.191,31.637,31.637V395.03z"/>
	</g>
</g>
<g>
	<g>
		<path d="M256.002,162.136c-4.71,0-8.533,3.823-8.533,8.533v127.999c0,4.71,3.823,8.533,8.533,8.533
			c4.71,0,8.533-3.823,8.533-8.533V170.67C264.535,165.959,260.712,162.136,256.002,162.136z"/>
	</g>
</g>
<g>
	<g>
		<path d="M298.668,264.535h-85.333c-4.71,0-8.533,3.823-8.533,8.533v85.333c0,4.71,3.823,8.533,8.533,8.533h85.333
			c4.71,0,8.533-3.823,8.533-8.533v-85.333C307.202,268.358,303.379,264.535,298.668,264.535z M290.135,349.868h-68.266v-68.266
			h68.266V349.868z"/>
	</g>
</g>
<g>
	<g>
		<path d="M128.003,264.535H42.671c-4.71,0-8.533,3.823-8.533,8.533v85.333c0,4.71,3.823,8.533,8.533,8.533h85.333
			c4.71,0,8.533-3.823,8.533-8.533v-85.333C136.536,268.358,132.714,264.535,128.003,264.535z M119.47,349.868H51.204v-68.266
			h68.266V349.868z"/>
	</g>
</g>
<g>
	<g>
		<path d="M469.334,264.535h-85.333c-4.71,0-8.533,3.823-8.533,8.533v85.333c0,4.71,3.823,8.533,8.533,8.533h85.333
			c4.71,0,8.533-3.823,8.533-8.533v-85.333C477.867,268.358,474.044,264.535,469.334,264.535z M460.8,349.868h-68.266v-68.266H460.8
			V349.868z"/>
	</g>
</g>
<g>
	<g>
		<path d="M349.868,204.803H162.136c-23.338,0-85.333,0-85.333,59.733c0,4.71,3.823,8.533,8.533,8.533
			c4.71,0,8.533-3.823,8.533-8.533c0-30.306,19.78-42.666,68.266-42.666h187.732c48.486,0,68.266,12.36,68.266,42.666
			c0,4.71,3.823,8.533,8.533,8.533c4.71,0,8.533-3.823,8.533-8.533C435.201,204.803,373.206,204.803,349.868,204.803z"/>
	</g>
</g>
<g>
</g>
<g>
</g>
<g>
</g>
<g>
</g>
<g>
</g>
<g>
</g>
<g>
</g>
<g>
</g>
<g>
</g>
<g>
</g>
<g>
</g>
<g>
</g>
<g>
</g>
<g>
</g>
<g>
</g>
</svg>
