<?xml version="1.0" encoding="iso-8859-1"?>
<!-- Generator: Adobe Illustrator 19.0.0, SVG Export Plug-In . SVG Version: 6.00 Build 0)  -->
<svg version="1.1" id="Capa_1" xmlns="http://www.w3.org/2000/svg" xmlns:xlink="http://www.w3.org/1999/xlink" x="0px" y="0px"
	 viewBox="0 0 512 512" style="enable-background:new 0 0 512 512;" xml:space="preserve">
<g>
	<g>
		<path d="M503.467,187.733c-4.71,0-8.533,3.823-8.533,8.533V435.2H17.067V196.267c0-4.71-3.823-8.533-8.533-8.533
			S0,191.556,0,196.267v247.467c0,4.71,3.823,8.533,8.533,8.533h494.933c4.71,0,8.533-3.823,8.533-8.533V196.267
			C512,191.556,508.177,187.733,503.467,187.733z"/>
	</g>
</g>
<g>
	<g>
		<path d="M503.467,110.933H8.533c-4.71,0-8.533,3.823-8.533,8.533v93.867c0,4.71,3.823,8.533,8.533,8.533h187.733
			c4.71,0,8.533-3.823,8.533-8.533c0-4.71-3.823-8.533-8.533-8.533h-179.2V128h477.867v76.8H318.622
			c-4.71,0-8.533,3.823-8.533,8.533c0,4.71,3.823,8.533,8.533,8.533h184.845c4.71,0,8.533-3.823,8.533-8.533v-93.867
			C512,114.756,508.177,110.933,503.467,110.933z"/>
	</g>
</g>
<g>
	<g>
		<path d="M329.728,71.339c-7.484-7.484-17.434-11.605-28.019-11.605h-91.422c-21.85,0-39.625,17.775-39.625,39.625v20.109
			c0,4.71,3.823,8.533,8.533,8.533h153.6c4.715,0,8.533-3.823,8.533-8.533V99.358C341.333,88.772,337.212,78.822,329.728,71.339z
			 M324.262,110.933H187.729V99.358c0-12.437,10.116-22.558,22.558-22.558h91.422c6.025,0,11.691,2.347,15.949,6.605
			c4.262,4.262,6.605,9.924,6.605,15.953V110.933z"/>
	</g>
</g>
<g>
	<g>
		<path d="M93.867,281.6c-37.641,0-68.267,30.626-68.267,68.267c0,37.641,30.626,68.267,68.267,68.267
			c37.641,0,68.267-30.626,68.267-68.267C162.133,312.226,131.507,281.6,93.867,281.6z M93.867,401.067
			c-28.233,0-51.2-22.968-51.2-51.2c0-28.233,22.967-51.2,51.2-51.2c28.232,0,51.2,22.967,51.2,51.2
			C145.067,378.099,122.099,401.067,93.867,401.067z"/>
	</g>
</g>
<g>
	<g>
		<path d="M110.46,374.391c-2.359,1.327-7.066,3.375-12.484,3.375c-5.534,0-10.65-1.941-14.434-5.935
			c-2.765-3.076-4.817-7.475-5.632-13.41h28.966v-5.018H77.193c0-0.717,0-1.225,0-1.843c0-1.434,0.102-2.97,0.209-4.301h29.474
			v-5.116H78.327c1.02-5.427,3.068-10.035,6.135-13.001c3.482-3.682,7.983-5.623,13.517-5.623c4.604,0,8.9,1.327,11.46,2.867
			l2.044-6.758c-2.863-1.536-7.565-3.277-13.606-3.277c-8.393,0-15.04,3.072-20.258,8.491c-4.1,4.203-7.168,10.133-8.401,17.301
			h-6.75v5.116h6.033c-0.102,1.434-0.201,2.965-0.201,4.608c0,0.508,0,1.015,0,1.532h-5.833v5.018h6.34
			c0.926,7.369,3.486,13.299,7.377,17.6c5.116,5.935,12.484,9.109,20.766,9.109c6.758,0,12.083-2.15,15.249-4.301L110.46,374.391z"
			/>
	</g>
</g>
<g>
	<g>
		<path d="M315.733,162.133H196.267c-4.71,0-8.533,3.823-8.533,8.533V256c0,4.71,3.823,8.533,8.533,8.533h119.467
			c4.71,0,8.533-3.823,8.533-8.533v-85.333C324.267,165.956,320.444,162.133,315.733,162.133z M307.2,247.467H204.8V179.2h102.4
			V247.467z"/>
	</g>
</g>
<g>
	<g>
		<path d="M281.6,187.733h-51.2c-4.71,0-8.533,3.823-8.533,8.533V230.4c0,4.71,3.823,8.533,8.533,8.533h51.2
			c4.71,0,8.533-3.823,8.533-8.533v-34.133C290.133,191.556,286.31,187.733,281.6,187.733z M273.067,221.867h-34.133V204.8h34.133
			V221.867z"/>
	</g>
</g>
<g>
</g>
<g>
</g>
<g>
</g>
<g>
</g>
<g>
</g>
<g>
</g>
<g>
</g>
<g>
</g>
<g>
</g>
<g>
</g>
<g>
</g>
<g>
</g>
<g>
</g>
<g>
</g>
<g>
</g>
</svg>
