<?xml version="1.0" encoding="iso-8859-1"?>
<!-- Generator: Adobe Illustrator 19.0.0, SVG Export Plug-In . SVG Version: 6.00 Build 0)  -->
<svg version="1.1" id="Capa_1" xmlns="http://www.w3.org/2000/svg" xmlns:xlink="http://www.w3.org/1999/xlink" x="0px" y="0px"
	 viewBox="0 0 512 512" style="enable-background:new 0 0 512 512;" xml:space="preserve">
<g>
	<g>
		<path d="M503.524,234.519l-127.4-93.1c-4.152-3.035-9.97-2.122-13.009,2.025c-3.03,4.152-2.127,9.975,2.029,13.009l123.583,90.312
			v246.616H23.273V246.765l121.204-88.576c4.152-3.035,5.059-8.858,2.025-13.009c-3.035-4.152-8.862-5.055-13.009-2.025
			L8.471,234.519c-2.397,1.755-3.817,4.547-3.817,7.517v260.655c0,5.139,4.17,9.309,9.309,9.309h484.073
			c5.139,0,9.309-4.17,9.309-9.309V242.036C507.345,239.067,505.926,236.274,503.524,234.519z"/>
	</g>
</g>
<g>
	<g>
		<path d="M367.709,0H144.291c-5.139,0-9.309,4.17-9.309,9.309v307.195c0,5.139,4.17,9.309,9.309,9.309
			c5.139,0,9.309-4.17,9.309-9.309V18.618h204.8v297.886c0,5.139,4.17,9.309,9.309,9.309s9.309-4.166,9.309-9.309V9.309
			C377.018,4.17,372.848,0,367.709,0z"/>
	</g>
</g>
<g>
	<g>
		<path d="M502.691,233.979c-2.877-1.662-6.428-1.662-9.304,0L307.27,341.355c-4.454,2.565-5.981,8.262-3.412,12.712
			c2.56,4.454,8.257,5.981,12.712,3.412l172.158-99.323v235.227H23.273V258.155l172.172,99.323
			c4.454,2.565,10.142,1.043,12.716-3.412c2.569-4.45,1.043-10.142-3.412-12.712L18.618,233.975c-2.881-1.662-6.428-1.662-9.309,0
			c-2.881,1.662-4.655,4.738-4.655,8.062v260.655c0,5.139,4.17,9.309,9.309,9.309h484.073c5.139,0,9.309-4.17,9.309-9.305V242.041
			C507.345,238.718,505.572,235.641,502.691,233.979z"/>
	</g>
</g>
<g>
	<g>
		<path d="M503.887,495.448L261.851,299.958c-3.421-2.755-8.29-2.76-11.702,0L8.113,495.448c-3.067,2.481-4.24,6.623-2.928,10.342
			c1.317,3.724,4.831,6.209,8.778,6.209h484.073c3.947,0,7.466-2.486,8.778-6.209C508.127,502.072,506.954,497.925,503.887,495.448z
			 M40.304,493.382L256,319.167l215.696,174.215H40.304z"/>
	</g>
</g>
<g>
	<g>
		<path d="M256,93.091c-46.196,0-83.782,37.585-83.782,83.782s37.585,83.782,83.782,83.782c46.196,0,83.782-37.585,83.782-83.782
			S302.196,93.091,256,93.091z M256,242.036c-35.933,0-65.164-29.231-65.164-65.164s29.231-65.164,65.164-65.164
			s65.164,29.231,65.164,65.164S291.933,242.036,256,242.036z"/>
	</g>
</g>
<g>
	<g>
		<path d="M278.184,210.292c-3.207,1.815-9.63,4.608-17.031,4.608c-7.54,0-14.522-2.653-19.689-8.099
			c-3.766-4.194-6.563-10.193-7.675-18.292h39.512v-6.838h-40.49c0-0.982,0-1.68,0-2.518c0-1.955,0.14-4.045,0.279-5.865h40.215
			v-6.982h-38.954c1.396-7.401,4.189-13.684,8.378-17.738c4.748-5.027,10.892-7.671,18.432-7.671c6.279,0,12.144,1.811,15.635,3.91
			l2.793-9.216c-3.91-2.09-10.328-4.473-18.567-4.473c-11.45,0-20.527,4.189-27.643,11.59c-5.585,5.725-9.779,13.824-11.45,23.599
			h-9.216v6.982h8.243c-0.144,1.955-0.284,4.049-0.284,6.284c0,0.698,0,1.401,0,2.099h-7.959v6.838h8.657
			c1.252,10.054,4.743,18.153,10.054,24.017c6.977,8.099,17.031,12.428,28.341,12.428c9.221,0,16.477-2.937,20.806-5.865
			L278.184,210.292z"/>
	</g>
</g>
<g>
</g>
<g>
</g>
<g>
</g>
<g>
</g>
<g>
</g>
<g>
</g>
<g>
</g>
<g>
</g>
<g>
</g>
<g>
</g>
<g>
</g>
<g>
</g>
<g>
</g>
<g>
</g>
<g>
</g>
</svg>
