<?xml version="1.0" encoding="iso-8859-1"?>
<!-- Generator: Adobe Illustrator 19.0.0, SVG Export Plug-In . SVG Version: 6.00 Build 0)  -->
<svg version="1.1" id="Capa_1" xmlns="http://www.w3.org/2000/svg" xmlns:xlink="http://www.w3.org/1999/xlink" x="0px" y="0px"
	 viewBox="0 0 512 512" style="enable-background:new 0 0 512 512;" xml:space="preserve">
<g>
	<g>
		<path d="M165.165,82.581h-8.258c-45.535,0-82.581,37.046-82.581,82.581v73.224c0,23.374,19.014,42.389,42.389,42.389h88.638
			c23.37,0,42.389-19.014,42.393-42.389v-73.224C247.746,119.626,210.7,82.581,165.165,82.581z M231.23,238.381
			c-0.004,14.27-11.611,25.877-25.877,25.877h-88.638c-14.266,0-25.872-11.607-25.872-25.872v-73.224
			c0-36.426,29.638-66.065,66.065-66.065h8.258c36.426,0,66.065,29.638,66.065,66.065V238.381z"/>
	</g>
</g>
<g>
	<g>
		<path d="M198.194,264.258c-4.558,0-8.258,3.7-8.258,8.258v41.29c0,4.558,3.7,8.258,8.258,8.258s8.258-3.7,8.258-8.258v-41.29
			C206.452,267.958,202.752,264.258,198.194,264.258z"/>
	</g>
</g>
<g>
	<g>
		<path d="M123.871,264.258c-4.558,0-8.258,3.7-8.258,8.258v41.29c0,4.558,3.7,8.258,8.258,8.258s8.258-3.7,8.258-8.258v-41.29
			C132.129,267.958,128.429,264.258,123.871,264.258z"/>
	</g>
</g>
<g>
	<g>
		<path d="M254.703,320.896l-22.074-3.646c-4.505-0.714-8.749,2.3-9.493,6.805c-0.747,4.497,2.3,8.745,6.801,9.493l22.722,3.749
			c0.446,0.07,0.896,0.107,1.346,0.107c28.42,0,51.543,19.183,51.543,42.768v32.731H16.516v-32.735
			c0-23.585,23.123-42.768,51.543-42.773c0.45,0,0.9-0.033,1.346-0.107l19.894-3.283c4.497-0.743,7.544-4.992,6.8-9.493
			c-0.743-4.501-4.992-7.527-9.493-6.805l-19.245,3.179C30.154,321.21,0,347.681,0,380.168v40.993c0,4.558,3.7,8.258,8.258,8.258
			h305.548c4.558,0,8.258-3.7,8.258-8.258v-40.989C322.065,347.685,291.91,321.214,254.703,320.896z"/>
	</g>
</g>
<g>
	<g>
		<path d="M173.155,311.734c-0.941-3.642-4.232-6.185-7.994-6.185H90.839c-4.558,0-8.258,3.7-8.258,8.258v41.29
			c0,2.927,1.548,5.632,4.071,7.118c1.288,0.76,2.738,1.14,4.187,1.14c1.379,0,2.762-0.347,4.009-1.04l74.323-41.29
			C172.461,319.199,174.101,315.38,173.155,311.734z M99.097,341.062v-18.998h34.197L99.097,341.062z"/>
	</g>
</g>
<g>
	<g>
		<path d="M231.226,305.548h-74.323c-3.762,0-7.052,2.543-7.994,6.185c-0.941,3.646,0.694,7.465,3.984,9.29l74.323,41.29
			c1.247,0.694,2.63,1.04,4.009,1.04c1.449,0,2.899-0.38,4.187-1.14c2.523-1.486,4.071-4.191,4.071-7.118v-41.29
			C239.484,309.248,235.784,305.548,231.226,305.548z M222.968,341.062l-34.197-18.998h34.197V341.062z"/>
	</g>
</g>
<g>
	<g>
		<path d="M421.161,90.839c-50.089,0-90.839,40.749-90.839,90.839s40.749,90.839,90.839,90.839
			c50.089,0,90.839-40.749,90.839-90.839S471.251,90.839,421.161,90.839z M421.161,256c-40.981,0-74.323-33.342-74.323-74.323
			s33.342-74.323,74.323-74.323s74.323,33.342,74.323,74.323S462.142,256,421.161,256z"/>
	</g>
</g>
<g>
	<g>
		<path d="M483.097,289.032H359.226c-15.934,0-28.903,12.969-28.903,28.903c0,15.934,12.969,28.903,28.903,28.903h123.871
			c15.934,0,28.903-12.969,28.903-28.903C512,302.002,499.031,289.032,483.097,289.032z M483.097,330.323H359.226
			c-6.829,0-12.387-5.558-12.387-12.387s5.558-12.387,12.387-12.387h123.871c6.829,0,12.387,5.558,12.387,12.387
			S489.926,330.323,483.097,330.323z"/>
	</g>
</g>
<g>
	<g>
		<path d="M483.097,371.613H359.226c-15.934,0-28.903,12.969-28.903,28.903s12.969,28.903,28.903,28.903h123.871
			c15.934,0,28.903-12.969,28.903-28.903S499.031,371.613,483.097,371.613z M483.097,412.903H359.226
			c-6.829,0-12.387-5.558-12.387-12.387s5.558-12.387,12.387-12.387h123.871c6.829,0,12.387,5.558,12.387,12.387
			S489.926,412.903,483.097,412.903z"/>
	</g>
</g>
<g>
	<g>
		<path d="M483.097,330.323H359.226c-15.934,0-28.903,12.969-28.903,28.903c0,15.934,12.969,28.903,28.903,28.903h123.871
			c15.934,0,28.903-12.969,28.903-28.903C512,343.292,499.031,330.323,483.097,330.323z M483.097,371.613H359.226
			c-6.829,0-12.387-5.558-12.387-12.387c0-6.829,5.558-12.387,12.387-12.387h123.871c6.829,0,12.387,5.558,12.387,12.387
			C495.484,366.055,489.926,371.613,483.097,371.613z"/>
	</g>
</g>
<g>
	<g>
		<path d="M424.952,177.02c-10.777-4.459-15.36-7.684-15.36-14.121c0-4.959,3.592-10.653,13.13-10.653
			c7.928,0,13.006,2.729,15.608,4.212l3.097-8.175c-3.592-2.106-8.671-4.088-16.103-4.331v-12.016h-7.676v12.507
			c-11.392,1.862-18.705,9.662-18.705,19.943c0,10.773,7.8,16.475,20.439,21.426c9.166,3.716,13.997,7.928,13.997,14.741
			c0,7.057-5.946,12.135-14.741,12.135c-6.933,0-13.374-2.354-17.833-5.322l-2.973,8.299c4.335,3.097,11.768,5.322,18.952,5.45
			v12.507h0v0.004h7.796v-12.878c12.759-2.114,19.572-11.276,19.572-21.066C444.152,188.656,437.711,182.222,424.952,177.02z"/>
	</g>
</g>
<g>
</g>
<g>
</g>
<g>
</g>
<g>
</g>
<g>
</g>
<g>
</g>
<g>
</g>
<g>
</g>
<g>
</g>
<g>
</g>
<g>
</g>
<g>
</g>
<g>
</g>
<g>
</g>
<g>
</g>
</svg>
