<?xml version="1.0" encoding="iso-8859-1"?>
<!-- Generator: Adobe Illustrator 19.0.0, SVG Export Plug-In . SVG Version: 6.00 Build 0)  -->
<svg version="1.1" id="Capa_1" xmlns="http://www.w3.org/2000/svg" xmlns:xlink="http://www.w3.org/1999/xlink" x="0px" y="0px"
	 viewBox="0 0 512 512" style="enable-background:new 0 0 512 512;" xml:space="preserve">
<g>
	<g>
		<path d="M503.172,216.276H8.828c-4.873,0-8.828,3.955-8.828,8.828v61.793c0,4.873,3.955,8.828,8.828,8.828h494.345
			c4.873,0,8.828-3.955,8.828-8.828v-61.793C512,220.231,508.045,216.276,503.172,216.276z M494.345,278.069H17.655v-44.138h476.69
			V278.069z"/>
	</g>
</g>
<g>
	<g>
		<path d="M256,278.219c-4.873,0-8.828,3.955-8.828,8.828v123.436c0,4.873,3.955,8.828,8.828,8.828s8.828-3.955,8.828-8.828V287.047
			C264.828,282.174,260.873,278.219,256,278.219z"/>
	</g>
</g>
<g>
	<g>
		<path d="M256,92.69c-4.873,0-8.828,3.955-8.828,8.828v121.905c0,4.873,3.955,8.828,8.828,8.828s8.828-3.95,8.828-8.828V101.517
			C264.828,96.644,260.873,92.69,256,92.69z"/>
	</g>
</g>
<g>
	<g>
		<path d="M300.138,401.655h-88.276c-4.873,0-8.828,3.955-8.828,8.828v88.276c0,4.873,3.955,8.828,8.828,8.828h88.276
			c4.873,0,8.828-3.955,8.828-8.828v-88.276C308.966,405.61,305.011,401.655,300.138,401.655z M291.31,489.931H220.69V419.31h70.621
			V489.931z"/>
	</g>
</g>
<g>
	<g>
		<path d="M97.103,401.655H8.828c-4.873,0-8.828,3.955-8.828,8.828v88.276c0,4.873,3.955,8.828,8.828,8.828h88.276
			c4.873,0,8.828-3.955,8.828-8.828v-88.276C105.931,405.61,101.976,401.655,97.103,401.655z M88.276,489.931H17.655V419.31h70.621
			V489.931z"/>
	</g>
</g>
<g>
	<g>
		<path d="M503.172,401.655h-88.276c-4.873,0-8.828,3.955-8.828,8.828v88.276c0,4.873,3.955,8.828,8.828,8.828h88.276
			c4.873,0,8.828-3.955,8.828-8.828v-88.276C512,405.61,508.045,401.655,503.172,401.655z M494.345,489.931h-70.621V419.31h70.621
			V489.931z"/>
	</g>
</g>
<g>
	<g>
		<path d="M388.414,322.207h-256c-51.151,0-88.276,33.412-88.276,79.448c0,4.873,3.955,8.828,8.828,8.828s8.828-3.955,8.828-8.828
			c0-36.383,29.043-61.793,70.621-61.793h256c39.27,0,61.793,22.524,61.793,61.793c0,4.873,3.955,8.828,8.828,8.828
			s8.828-3.955,8.828-8.828C467.862,352.649,437.42,322.207,388.414,322.207z"/>
	</g>
</g>
<g>
	<g>
		<path d="M300.138,4.414h-88.276c-4.873,0-8.828,3.955-8.828,8.828v88.276c0,4.873,3.955,8.828,8.828,8.828h88.276
			c4.873,0,8.828-3.955,8.828-8.828V13.241C308.966,8.369,305.011,4.414,300.138,4.414z M291.31,92.69H220.69V22.069h70.621V92.69z"
			/>
	</g>
</g>
<g>
	<g>
		<path d="M97.103,4.414H8.828C3.955,4.414,0,8.369,0,13.241v88.276c0,4.873,3.955,8.828,8.828,8.828h88.276
			c4.873,0,8.828-3.955,8.828-8.828V13.241C105.931,8.369,101.976,4.414,97.103,4.414z M88.276,92.69H17.655V22.069h70.621V92.69z"
			/>
	</g>
</g>
<g>
	<g>
		<path d="M503.172,4.414h-88.276c-4.873,0-8.828,3.955-8.828,8.828v88.276c0,4.873,3.955,8.828,8.828,8.828h88.276
			c4.873,0,8.828-3.955,8.828-8.828V13.241C512,8.369,508.045,4.414,503.172,4.414z M494.345,92.69h-70.621V22.069h70.621V92.69z"/>
	</g>
</g>
<g>
	<g>
		<path d="M459.034,101.517c-4.873,0-8.828,3.955-8.828,8.828c0,39.269-22.524,61.793-61.793,61.793h-256
			c-41.578,0-70.621-25.41-70.621-61.793c0-4.873-3.955-8.828-8.828-8.828s-8.828,3.955-8.828,8.828
			c0,46.036,37.124,79.448,88.276,79.448h256c49.006,0,79.448-30.442,79.448-79.448
			C467.862,105.472,463.907,101.517,459.034,101.517z"/>
	</g>
</g>
<g>
</g>
<g>
</g>
<g>
</g>
<g>
</g>
<g>
</g>
<g>
</g>
<g>
</g>
<g>
</g>
<g>
</g>
<g>
</g>
<g>
</g>
<g>
</g>
<g>
</g>
<g>
</g>
<g>
</g>
</svg>
