<?xml version="1.0" encoding="iso-8859-1"?>
<!-- Generator: Adobe Illustrator 19.0.0, SVG Export Plug-In . SVG Version: 6.00 Build 0)  -->
<svg version="1.1" id="Capa_1" xmlns="http://www.w3.org/2000/svg" xmlns:xlink="http://www.w3.org/1999/xlink" x="0px" y="0px"
	 viewBox="0 0 512 512" style="enable-background:new 0 0 512 512;" xml:space="preserve">
<g>
	<g>
		<path d="M421.337,0H90.659c-4.415,0-7.99,3.575-7.99,7.994v446.414c0,4.414,3.575,7.994,7.99,7.994h63.709
			c4.415,0,7.994-3.58,7.994-7.994c0-4.415-3.58-7.994-7.994-7.994H98.649V15.98h314.697v430.434H207.302
			c-4.415,0-7.994,3.575-7.994,7.99s3.58,7.994,7.994,7.994h214.035c4.41,0,7.994-3.584,7.994-7.994V7.99
			C429.331,3.575,425.747,0,421.337,0z"/>
	</g>
</g>
<g>
	<g>
		<path d="M206.396,396.813c-4.415,0-7.99,3.58-7.99,7.99v84.273l-12.376-8.246c-2.687-1.794-6.184-1.794-8.866,0l-12.376,8.25
			v-84.273c0-4.415-3.58-7.994-7.994-7.994c-4.414,0-7.99,3.58-7.99,7.994v99.203c0,2.947,1.62,5.655,4.22,7.048
			c2.596,1.385,5.754,1.236,8.201-0.401l20.37-13.578l20.37,13.578c1.335,0.893,2.881,1.343,4.431,1.343
			c1.294,0,2.592-0.314,3.774-0.942c2.596-1.393,4.22-4.1,4.22-7.048v-99.203C214.39,400.392,210.811,396.813,206.396,396.813z"/>
	</g>
</g>
<g>
	<g>
		<path d="M181.596,322.41c-27.198,0-49.329,22.126-49.329,49.325c0,27.198,22.131,49.329,49.329,49.329
			c27.198,0,49.329-22.126,49.329-49.325S208.794,322.41,181.596,322.41z M181.596,405.08c-18.386,0-33.341-14.959-33.341-33.345
			c0-18.386,14.955-33.341,33.341-33.341c18.386,0,33.345,14.955,33.345,33.341C214.94,390.121,199.981,405.08,181.596,405.08z"/>
	</g>
</g>
<g>
</g>
<g>
</g>
<g>
</g>
<g>
</g>
<g>
</g>
<g>
</g>
<g>
</g>
<g>
</g>
<g>
</g>
<g>
</g>
<g>
</g>
<g>
</g>
<g>
</g>
<g>
</g>
<g>
</g>
</svg>
