<?xml version="1.0" encoding="iso-8859-1"?>
<!-- Generator: Adobe Illustrator 19.0.0, SVG Export Plug-In . SVG Version: 6.00 Build 0)  -->
<svg version="1.1" id="Capa_1" xmlns="http://www.w3.org/2000/svg" xmlns:xlink="http://www.w3.org/1999/xlink" x="0px" y="0px"
	 viewBox="0 0 512.004 512.004" style="enable-background:new 0 0 512.004 512.004;" xml:space="preserve">
<g>
	<g>
		<g>
			<path d="M498.164,302.805h-0.132c-1.065-3.353-2.415-6.606-4.042-9.749l0.116-0.116c5.393-5.397,5.393-14.183,0.004-19.58
				l-7.647-7.668c-5.223-5.236-14.344-5.232-19.58,0.008l-0.099,0.099c-3.126-1.623-6.363-2.969-9.699-4.042v-0.149
				c0-7.639-6.21-13.853-13.845-13.853h-10.802c-7.635,0-13.845,6.214-13.845,13.853v0.153c-3.336,1.069-6.573,2.42-9.695,4.038
				l-0.111-0.107c-5.223-5.236-14.336-5.24-19.58,0.008l-7.63,7.655c-5.393,5.388-5.401,14.175-0.008,19.584l0.12,0.12
				c-1.623,3.138-2.973,6.392-4.046,9.749h-0.128c-7.63,0-13.841,6.21-13.841,13.853v10.826c0,7.639,6.21,13.853,13.841,13.853
				h0.128c1.069,3.353,2.42,6.611,4.046,9.749l-0.116,0.116c-5.393,5.397-5.393,14.183-0.004,19.58l7.643,7.663
				c5.223,5.244,14.348,5.244,19.584-0.004l0.099-0.099c3.126,1.623,6.363,2.973,9.699,4.042v0.149
				c0,7.639,6.21,13.853,13.845,13.853h10.802c7.63,0,13.841-6.214,13.845-13.853v-0.153c3.336-1.069,6.573-2.42,9.695-4.042
				l0.099,0.099c2.614,2.622,6.09,4.067,9.79,4.067c0.004,0.004,0.004,0.004,0.008,0.004c3.695-0.004,7.176-1.441,9.794-4.067
				l7.63-7.655c5.393-5.388,5.401-14.175,0.008-19.584l-0.12-0.124c1.619-3.134,2.969-6.388,4.042-9.745h0.132
				c7.63,0,13.841-6.21,13.841-13.853v-10.826C512.004,309.019,505.794,302.805,498.164,302.805z M495.484,324.816h-3.828
				c-3.927,0-7.313,2.766-8.093,6.615c-1.189,5.855-3.481,11.38-6.813,16.425c-2.159,3.27-1.722,7.61,1.045,10.385l2.75,2.758
				l-3.873,3.877l-2.717-2.721c-2.771-2.783-7.123-3.229-10.409-1.053c-5.033,3.336-10.546,5.632-16.376,6.821
				c-3.844,0.784-6.606,4.17-6.606,8.093v3.857h-5.454v-3.852c0-3.927-2.762-7.308-6.611-8.093
				c-5.834-1.189-11.342-3.481-16.367-6.817c-3.283-2.18-7.639-1.738-10.413,1.049l-2.717,2.721l-3.873-3.877l2.75-2.758
				c2.771-2.775,3.204-7.118,1.04-10.393c-3.328-5.029-5.624-10.554-6.809-16.413c-0.78-3.852-4.166-6.619-8.093-6.619h-3.828
				v-5.504h3.828c3.927,0,7.317-2.766,8.093-6.619c1.185-5.855,3.477-11.375,6.809-16.417c2.164-3.27,1.73-7.614-1.04-10.389
				l-2.75-2.758l3.873-3.877l2.717,2.721c2.771,2.783,7.123,3.225,10.409,1.053c5.029-3.336,10.537-5.632,16.376-6.821
				c3.844-0.785,6.606-4.17,6.606-8.093v-3.857h5.454v3.852c0,3.927,2.762,7.313,6.611,8.093c5.83,1.185,11.338,3.477,16.372,6.817
				c3.27,2.18,7.63,1.734,10.409-1.049l2.717-2.721l3.873,3.877l-2.75,2.758c-2.771,2.775-3.204,7.118-1.04,10.389
				c3.324,5.033,5.62,10.558,6.809,16.421c0.78,3.848,4.166,6.615,8.093,6.615h3.828V324.816z"/>
			<path d="M437.834,294.538c-15.154,0-27.483,12.35-27.483,27.528s12.329,27.528,27.483,27.528
				c15.154,0,27.483-12.35,27.483-27.528S452.988,294.538,437.834,294.538z M437.834,333.079c-6.049,0-10.967-4.938-10.967-11.012
				s4.918-11.012,10.967-11.012c6.049,0,10.967,4.938,10.967,11.012S443.883,333.079,437.834,333.079z"/>
		</g>
	</g>
</g>
<g>
	<g>
		<path d="M198.92,264.26h-74.145c-4.558,0-8.258,3.7-8.258,8.258v41.29c0,4.558,3.7,8.258,8.258,8.258
			c4.558,0,8.258-3.7,8.258-8.258v-33.032h57.629v33.032c0,4.558,3.7,8.258,8.258,8.258c4.558,0,8.258-3.695,8.258-8.258v-41.29
			C207.178,267.96,203.479,264.26,198.92,264.26z"/>
	</g>
</g>
<g>
	<g>
		<path d="M255.059,320.894l-20.831-3.431c-4.505-0.731-8.749,2.304-9.488,6.805c-0.739,4.501,2.308,8.749,6.809,9.493l21.479,3.534
			c0.446,0.07,0.892,0.107,1.342,0.107c28.47,0,51.629,19.183,51.629,42.768v32.735H16.516v-32.731
			c0-23.585,23.16-42.773,51.625-42.777c0.45,0,0.9-0.033,1.342-0.107l19.464-3.2c4.501-0.743,7.548-4.992,6.809-9.489
			c-0.739-4.497-4.988-7.511-9.489-6.809l-18.816,3.097C30.196,321.212,0,347.683,0,380.17v40.993c0,4.558,3.7,8.258,8.258,8.258
			h305.998c4.563,0,8.258-3.695,8.254-8.258v-40.989C322.51,347.687,292.315,321.216,255.059,320.894z"/>
	</g>
</g>
<g>
	<g>
		<path d="M165.88,82.583h-8.064c-45.485,0-82.494,37.004-82.494,82.494v73.348c0,23.35,18.998,42.351,42.352,42.351h88.345
			c23.35,0,42.352-18.994,42.356-42.347v-73.352C248.374,119.587,211.369,82.583,165.88,82.583z M231.858,238.429
			c-0.004,14.245-11.594,25.835-25.839,25.835h-88.345c-14.245,0-25.835-11.59-25.835-25.835v-73.352
			c0-36.381,29.597-65.978,65.978-65.978h8.064c36.381,0,65.978,29.593,65.978,65.978V238.429z"/>
	</g>
</g>
<g>
	<g>
		<path d="M173.96,311.732c-0.946-3.642-4.232-6.181-7.994-6.181H91.821c-4.558,0-8.258,3.7-8.258,8.258v41.29
			c0,2.927,1.552,5.64,4.075,7.123c1.288,0.756,2.733,1.135,4.183,1.135c1.383,0,2.766-0.343,4.018-1.045l74.145-41.29
			C173.271,319.193,174.906,315.373,173.96,311.732z M100.079,341.048v-18.981h34.085L100.079,341.048z"/>
	</g>
</g>
<g>
	<g>
		<path d="M231.874,305.55h-74.145c-3.762,0-7.048,2.543-7.994,6.181c-0.941,3.642,0.69,7.461,3.976,9.29l74.145,41.29
			c1.251,0.698,2.634,1.045,4.018,1.045c1.449,0,2.894-0.376,4.183-1.135c2.527-1.486,4.075-4.195,4.075-7.123v-41.29
			C240.132,309.25,236.432,305.55,231.874,305.55z M223.616,341.048l-34.085-18.981h34.085V341.048z"/>
	</g>
</g>
<g>
	<g>
		<path d="M347.21,231.228h-65.908c-4.558,0-8.258,3.7-8.258,8.258c0,4.558,3.7,8.258,8.258,8.258h65.908
			c4.558,0,8.258-3.7,8.258-8.258C355.468,234.927,351.769,231.228,347.21,231.228z"/>
	</g>
</g>
<g>
	<g>
		<path d="M413.118,148.647h-57.666c-4.558,0-8.258,3.7-8.258,8.258c0,4.558,3.7,8.258,8.258,8.258h57.666
			c4.558,0,8.258-3.7,8.258-8.258C421.376,152.347,417.676,148.647,413.118,148.647z"/>
	</g>
</g>
<g>
	<g>
		<path d="M355.452,148.647c-4.558,0-8.258,3.7-8.258,8.258v165.161c0,4.558,3.7,8.258,8.258,8.258c4.558,0,8.258-3.695,8.258-8.258
			V156.905C363.71,152.347,360.01,148.647,355.452,148.647z"/>
	</g>
</g>
<g>
	<g>
		<path d="M440.225,123.989c-8.774-0.636-17.301,2.201-23.961,7.981c-6.656,5.776-10.669,13.799-11.301,22.594
			c-1.309,18.168,12.379,34.015,30.514,35.32c0.805,0.058,1.614,0.087,2.416,0.087c7.924,0,15.496-2.82,21.545-8.072
			c6.656-5.772,10.669-13.799,11.305-22.594C472.047,141.136,458.364,125.293,440.225,123.989z M454.268,158.119
			c-0.314,4.406-2.325,8.419-5.653,11.309c-3.324,2.878-7.548,4.286-11.953,3.98c-9.051-0.652-15.88-8.572-15.224-17.656
			c0-0.004,0-0.004,0-0.004c0.314-4.402,2.321-8.415,5.649-11.305c3.022-2.622,6.796-4.026,10.748-4.026
			c0.401,0,0.801,0.016,1.206,0.045C448.095,141.116,454.924,149.039,454.268,158.119z"/>
	</g>
</g>
<g>
</g>
<g>
</g>
<g>
</g>
<g>
</g>
<g>
</g>
<g>
</g>
<g>
</g>
<g>
</g>
<g>
</g>
<g>
</g>
<g>
</g>
<g>
</g>
<g>
</g>
<g>
</g>
<g>
</g>
</svg>
