<?xml version="1.0" encoding="iso-8859-1"?>
<!-- Generator: Adobe Illustrator 19.0.0, SVG Export Plug-In . SVG Version: 6.00 Build 0)  -->
<svg version="1.1" id="Capa_1" xmlns="http://www.w3.org/2000/svg" xmlns:xlink="http://www.w3.org/1999/xlink" x="0px" y="0px"
	 viewBox="0 0 512 512" style="enable-background:new 0 0 512 512;" xml:space="preserve">
<g>
	<g>
		<path d="M298.882,347.097H21.691v-34.395c0-24.78,24.298-44.939,54.164-44.943c0.473,0,0.946-0.035,1.414-0.113l64.291-10.604
			c4.725-0.781,7.927-5.25,7.146-9.975s-5.228-7.953-9.975-7.146l-63.609,10.492c-39.099,0.343-70.786,28.151-70.786,62.29v43.073
			c0,4.79,3.888,8.678,8.678,8.678h285.87c4.79,0,8.678-3.888,8.678-8.678S303.672,347.097,298.882,347.097z"/>
	</g>
</g>
<g>
	<g>
		<path d="M255.909,247.756l-46.123-7.606c-4.725-0.794-9.194,2.417-9.975,7.146c-0.785,4.729,2.417,9.194,7.146,9.975l46.123,7.611
			c0.477,0.074,0.955,0.113,1.423,0.113c4.17,0,7.854-3.016,8.552-7.268C263.836,253.002,260.638,248.537,255.909,247.756z"/>
	</g>
</g>
<g>
	<g>
		<path d="M212.606,190.902h-78.102c-4.79,0-8.678,3.888-8.678,8.678v43.385c0,3.432,2.018,6.539,5.155,7.932
			c13.329,5.923,27.952,8.886,42.574,8.886s29.245-2.964,42.574-8.886c3.137-1.393,5.155-4.5,5.155-7.932V199.58
			C221.284,194.79,217.396,190.902,212.606,190.902z M203.928,237.121c-19.374,7.103-41.372,7.103-60.746,0v-28.863h60.746V237.121z
			"/>
	</g>
</g>
<g>
	<g>
		<path d="M177.894,0h-8.682c-47.846,0-86.775,38.929-86.775,86.78v76.935c0,24.563,19.981,44.544,44.544,44.544h93.145
			c11.902,0,23.088-4.634,31.501-13.047c8.413-8.413,13.047-19.604,13.043-31.501V86.775C264.669,38.929,225.74,0,177.894,0z
			 M247.313,163.714c0,7.263-2.825,14.089-7.962,19.226c-5.133,5.133-11.963,7.962-19.226,7.962H126.98
			c-14.991,0-27.188-12.197-27.188-27.188V86.78c0-38.279,31.141-69.424,69.419-69.424h8.682c38.279,0,69.419,31.141,69.419,69.419
			V163.714z"/>
	</g>
</g>
<g>
	<g>
		<path d="M486.226,415.74c-13.264-11.325-30.759-17.625-49.334-17.79l-61.44-10.153c-4.764-0.768-9.199,2.421-9.98,7.146
			c-0.781,4.73,2.417,9.194,7.146,9.98l62.121,10.262c0.464,0.074,0.942,0.113,1.41,0.113c14.722,0.004,28.503,4.851,38.804,13.637
			c9.902,8.457,15.356,19.577,15.351,31.319l-0.009,34.395l-303.729-0.065l0.004-34.399c0.004-11.737,5.463-22.858,15.369-31.306
			c10.296-8.786,24.073-13.62,38.786-13.62c0.009,0,0.013,0,0.017,0c0.473,0,0.946-0.035,1.41-0.113l61.553-10.145
			c4.725-0.781,7.932-5.246,7.151-9.975c-0.785-4.721-5.224-7.923-9.975-7.151l-60.867,10.032
			c-18.575,0.156-36.07,6.452-49.339,17.764c-13.837,11.802-21.461,27.609-21.461,44.514l-0.009,43.073
			c0,4.79,3.888,8.678,8.678,8.678L498.97,512c2.3,0,4.508-0.916,6.135-2.543c1.627-1.627,2.543-3.831,2.543-6.135l0.017-43.06
			C507.67,443.357,500.059,427.546,486.226,415.74z"/>
	</g>
</g>
<g>
	<g>
		<path d="M377.479,338.419h-78.102c-4.79,0-8.678,3.888-8.678,8.678v43.385c0,3.428,2.022,6.539,5.155,7.932
			c13.334,5.918,27.956,8.882,42.578,8.882s29.245-2.959,42.57-8.882c3.133-1.393,5.155-4.504,5.155-7.932v-43.385
			C386.156,342.307,382.269,338.419,377.479,338.419z M368.805,384.638c-19.374,7.103-41.372,7.103-60.746,0v-28.863h60.746V384.638
			z"/>
	</g>
</g>
<g>
	<g>
		<path d="M342.775,147.525h-8.682c-47.846,0-86.775,38.929-86.775,86.775v76.93c0,24.563,19.981,44.544,44.544,44.544h93.145
			c24.563,0,44.544-19.981,44.544-44.544v-76.93C429.551,186.455,390.621,147.525,342.775,147.525z M412.199,311.227
			c0,14.991-12.197,27.192-27.188,27.192h-93.149c-14.991,0-27.188-12.201-27.188-27.192v-76.93
			c0-38.279,31.141-69.419,69.419-69.419h8.687c38.279,0,69.419,31.141,69.419,69.419V311.227z"/>
	</g>
</g>
<g>
	<g>
		<path d="M30.369,373.127c-4.79,0-8.678,3.888-8.678,8.678v13.017c0,4.79,3.888,8.678,8.678,8.678c4.79,0,8.678-3.883,8.678-8.678
			v-13.017C39.047,377.014,35.159,373.127,30.369,373.127z"/>
	</g>
</g>
<g>
	<g>
		<path d="M30.369,414.542c-4.79,0-8.678,3.888-8.678,8.678v21.3c0,4.79,3.888,8.678,8.678,8.678c4.79,0,8.678-3.883,8.678-8.678
			v-21.3C39.047,418.43,35.159,414.542,30.369,414.542z"/>
	</g>
</g>
<g>
	<g>
		<path d="M43.385,477.258h-4.339v-4.339c0-4.79-3.888-8.678-8.678-8.678c-4.79,0-8.678,3.888-8.678,8.678v13.017
			c0,4.79,3.888,8.678,8.678,8.678h13.017c4.79,0,8.678-3.888,8.678-8.678S48.176,477.258,43.385,477.258z"/>
	</g>
</g>
<g>
	<g>
		<path d="M98.612,477.258H74.943c-4.79,0-8.678,3.888-8.678,8.678s3.888,8.678,8.678,8.678h23.669c4.79,0,8.678-3.888,8.678-8.678
			S103.402,477.258,98.612,477.258z"/>
	</g>
</g>
<g>
	<g>
		<path d="M143.182,477.258h-13.017c-4.79,0-8.678,3.888-8.678,8.678s3.888,8.678,8.678,8.678h13.017
			c4.79,0,8.678-3.888,8.678-8.678S147.972,477.258,143.182,477.258z"/>
	</g>
</g>
<g>
</g>
<g>
</g>
<g>
</g>
<g>
</g>
<g>
</g>
<g>
</g>
<g>
</g>
<g>
</g>
<g>
</g>
<g>
</g>
<g>
</g>
<g>
</g>
<g>
</g>
<g>
</g>
<g>
</g>
</svg>
