<?xml version="1.0" encoding="iso-8859-1"?>
<!-- Generator: Adobe Illustrator 19.0.0, SVG Export Plug-In . SVG Version: 6.00 Build 0)  -->
<svg version="1.1" id="Capa_1" xmlns="http://www.w3.org/2000/svg" xmlns:xlink="http://www.w3.org/1999/xlink" x="0px" y="0px"
	 viewBox="0 0 512 512" style="enable-background:new 0 0 512 512;" xml:space="preserve">
<g>
	<g>
		<path d="M503.467,132.267H8.533C3.823,132.267,0,136.09,0,140.8v341.333c0,4.71,3.823,8.533,8.533,8.533h494.933
			c4.71,0,8.533-3.823,8.533-8.533V140.8C512,136.09,508.177,132.267,503.467,132.267z M494.933,473.6H17.067V149.333h477.867V473.6
			z"/>
	</g>
</g>
<g>
	<g>
		<path d="M256,209.067c-4.71,0-8.533,3.823-8.533,8.533v128c0,4.71,3.823,8.533,8.533,8.533s8.533-3.823,8.533-8.533v-128
			C264.533,212.89,260.71,209.067,256,209.067z"/>
	</g>
</g>
<g>
	<g>
		<path d="M298.667,311.467h-85.333c-4.71,0-8.533,3.823-8.533,8.533v85.333c0,4.71,3.823,8.533,8.533,8.533h85.333
			c4.71,0,8.533-3.823,8.533-8.533V320C307.2,315.29,303.377,311.467,298.667,311.467z M290.133,396.8h-68.267v-68.267h68.267V396.8
			z"/>
	</g>
</g>
<g>
	<g>
		<path d="M128,311.467H42.667c-4.71,0-8.533,3.823-8.533,8.533v85.333c0,4.71,3.823,8.533,8.533,8.533H128
			c4.71,0,8.533-3.823,8.533-8.533V320C136.533,315.29,132.71,311.467,128,311.467z M119.467,396.8H51.2v-68.267h68.267V396.8z"/>
	</g>
</g>
<g>
	<g>
		<path d="M469.333,311.467H384c-4.71,0-8.533,3.823-8.533,8.533v85.333c0,4.71,3.823,8.533,8.533,8.533h85.333
			c4.71,0,8.533-3.823,8.533-8.533V320C477.867,315.29,474.044,311.467,469.333,311.467z M460.8,396.8h-68.267v-68.267H460.8V396.8z
			"/>
	</g>
</g>
<g>
	<g>
		<path d="M349.867,251.733H162.133c-23.339,0-85.333,0-85.333,59.733c0,4.71,3.823,8.533,8.533,8.533
			c4.71,0,8.533-3.823,8.533-8.533c0-30.306,19.78-42.667,68.267-42.667h187.733c48.486,0,68.267,12.361,68.267,42.667
			c0,4.71,3.823,8.533,8.533,8.533s8.533-3.823,8.533-8.533C435.2,251.733,373.205,251.733,349.867,251.733z"/>
	</g>
</g>
<g>
	<g>
		<path d="M503.467,55.467H378.359c-4.71,0-8.533,3.823-8.533,8.533s3.823,8.533,8.533,8.533h116.574v59.733H17.067V72.533h117.726
			c4.71,0,8.533-3.823,8.533-8.533s-3.823-8.533-8.533-8.533H8.533C3.823,55.467,0,59.29,0,64v76.8c0,4.71,3.823,8.533,8.533,8.533
			h494.933c4.71,0,8.533-3.823,8.533-8.533V64C512,59.29,508.177,55.467,503.467,55.467z"/>
	</g>
</g>
<g>
	<g>
		<path d="M339.123,55.467H172.557c-4.71,0-8.533,3.823-8.533,8.533s3.823,8.533,8.533,8.533h166.562
			c4.715,0,8.538-3.823,8.538-8.533S343.834,55.467,339.123,55.467z"/>
	</g>
</g>
<g>
	<g>
		<path d="M153.6,21.333c-14.118,0-25.6,11.482-25.6,25.6v34.133c0,14.118,11.482,25.6,25.6,25.6c14.118,0,25.6-11.482,25.6-25.6
			V46.933C179.2,32.815,167.718,21.333,153.6,21.333z M162.133,81.067c0,4.706-3.827,8.533-8.533,8.533
			c-4.706,0-8.533-3.827-8.533-8.533V46.933c0-4.706,3.827-8.533,8.533-8.533c4.706,0,8.533,3.827,8.533,8.533V81.067z"/>
	</g>
</g>
<g>
	<g>
		<path d="M358.4,21.333c-14.118,0-25.6,11.482-25.6,25.6v34.133c0,14.118,11.482,25.6,25.6,25.6s25.6-11.482,25.6-25.6V46.933
			C384,32.815,372.518,21.333,358.4,21.333z M366.933,81.067c0,4.706-3.827,8.533-8.533,8.533s-8.533-3.827-8.533-8.533V46.933
			c0-4.706,3.827-8.533,8.533-8.533s8.533,3.827,8.533,8.533V81.067z"/>
	</g>
</g>
<g>
</g>
<g>
</g>
<g>
</g>
<g>
</g>
<g>
</g>
<g>
</g>
<g>
</g>
<g>
</g>
<g>
</g>
<g>
</g>
<g>
</g>
<g>
</g>
<g>
</g>
<g>
</g>
<g>
</g>
</svg>
