<?xml version="1.0" encoding="iso-8859-1"?>
<!-- Generator: Adobe Illustrator 19.0.0, SVG Export Plug-In . SVG Version: 6.00 Build 0)  -->
<svg version="1.1" id="Capa_1" xmlns="http://www.w3.org/2000/svg" xmlns:xlink="http://www.w3.org/1999/xlink" x="0px" y="0px"
	 viewBox="0 0 512 512" style="enable-background:new 0 0 512 512;" xml:space="preserve">
<g>
	<g>
		<path d="M428.431,0H83.564C66.195,0,52.068,14.132,52.068,31.501v448.998C52.068,497.868,66.2,512,83.569,512h344.862
			c17.365,0,31.501-14.132,31.501-31.501V31.501C459.932,14.132,445.8,0,428.431,0z M442.581,480.495
			c-0.004,7.802-6.348,14.149-14.149,14.149H83.569c-7.801,0-14.145-6.344-14.145-14.145V31.501c0-7.802,6.344-14.145,14.141-14.145
			h344.871c7.802,0,14.145,6.348,14.145,14.145V480.495z"/>
	</g>
</g>
<g>
	<g>
		<path d="M425.22,34.712H86.78c-4.79,0-8.678,3.888-8.678,8.678v156.203c0,4.79,3.888,8.678,8.678,8.678H425.22
			c4.79,0,8.678-3.888,8.678-8.678V43.39C433.898,38.6,430.011,34.712,425.22,34.712z M416.542,190.915H95.458V52.068h321.085
			V190.915z"/>
	</g>
</g>
<g>
	<g>
		<path d="M182.237,234.305H86.78c-4.79,0-8.678,3.888-8.678,8.678v95.458c0,4.79,3.888,8.678,8.678,8.678h95.458
			c4.79,0,8.678-3.888,8.678-8.678v-95.458C190.915,238.193,187.028,234.305,182.237,234.305z M173.559,329.763H95.458v-78.102
			h78.102V329.763z"/>
	</g>
</g>
<g>
	<g>
		<path d="M303.729,234.305h-95.458c-4.79,0-8.678,3.888-8.678,8.678v95.458c0,4.79,3.888,8.678,8.678,8.678h95.458
			c4.79,0,8.678-3.888,8.678-8.678v-95.458C312.407,238.193,308.519,234.305,303.729,234.305z M295.051,329.763h-78.102v-78.102
			h78.102V329.763z"/>
	</g>
</g>
<g>
	<g>
		<path d="M182.237,355.797H86.78c-4.79,0-8.678,3.888-8.678,8.678v95.458c0,4.79,3.888,8.678,8.678,8.678h95.458
			c4.79,0,8.678-3.888,8.678-8.678v-95.458C190.915,359.684,187.028,355.797,182.237,355.797z M173.559,451.254H95.458v-78.102
			h78.102V451.254z"/>
	</g>
</g>
<g>
	<g>
		<path d="M303.729,355.797h-95.458c-4.79,0-8.678,3.888-8.678,8.678v95.458c0,4.79,3.888,8.678,8.678,8.678h95.458
			c4.79,0,8.678-3.888,8.678-8.678v-95.458C312.407,359.684,308.519,355.797,303.729,355.797z M295.051,451.254h-78.102v-78.102
			h78.102V451.254z"/>
	</g>
</g>
<g>
	<g>
		<path d="M425.22,234.305h-95.458c-4.79,0-8.678,3.888-8.678,8.678v216.949c0,4.79,3.888,8.678,8.678,8.678h95.458
			c4.79,0,8.678-3.888,8.678-8.678V242.983C433.898,238.193,430.011,234.305,425.22,234.305z M416.542,451.254h-78.102V251.661
			h78.102V451.254z"/>
	</g>
</g>
<g>
	<g>
		<path d="M220.932,116.597c-11.325-4.686-16.145-8.075-16.145-14.839c0-5.211,3.779-11.195,13.798-11.195
			c8.34,0,13.676,2.868,16.406,4.426l3.254-8.591c-3.779-2.213-9.116-4.296-16.922-4.552V69.22h-8.066v13.143
			c-11.971,1.957-19.651,10.153-19.651,20.957c0,11.32,8.192,17.313,21.474,22.515c9.628,3.905,14.714,8.331,14.714,15.49
			c0,7.415-6.252,12.752-15.49,12.752c-7.285,0-14.058-2.473-18.744-5.593l-3.12,8.721c4.552,3.254,12.357,5.593,19.916,5.727
			v13.143l8.188,0.004v-13.533c13.407-2.222,20.567-11.85,20.567-22.137C241.109,128.824,234.34,122.064,220.932,116.597z"/>
	</g>
</g>
<g>
	<g>
		<path d="M287.705,116.597c-11.325-4.686-16.137-8.075-16.137-14.839c0-5.211,3.779-11.195,13.798-11.195
			c8.331,0,13.668,2.868,16.406,4.426l3.254-8.591c-3.779-2.213-9.116-4.296-16.931-4.552V69.22h-8.066v13.143
			c-11.967,1.957-19.651,10.153-19.651,20.957c0,11.32,8.196,17.313,21.482,22.515c9.628,3.905,14.705,8.331,14.705,15.49
			c0,7.415-6.244,12.752-15.49,12.752c-7.285,0-14.058-2.473-18.736-5.593l-3.128,8.721c4.552,3.254,12.366,5.593,19.916,5.727
			v13.143l8.188,0.004v-13.533c13.407-2.222,20.575-11.85,20.575-22.137C307.89,128.824,301.112,122.064,287.705,116.597z"/>
	</g>
</g>
<g>
	<g>
		<path d="M354.486,116.597c-11.325-4.686-16.137-8.075-16.137-14.839c0-5.211,3.771-11.195,13.798-11.195
			c8.322,0,13.659,2.868,16.397,4.426l3.254-8.591c-3.771-2.213-9.108-4.296-16.922-4.552V69.22h-8.066v13.143
			c-11.976,1.957-19.66,10.153-19.66,20.957c0,11.32,8.201,17.313,21.482,22.515c9.637,3.905,14.705,8.331,14.705,15.49
			c0,7.415-6.244,12.752-15.49,12.752c-7.285,0-14.05-2.473-18.736-5.593l-3.128,8.721c4.56,3.254,12.375,5.593,19.916,5.727v13.143
			l8.196,0.004v-13.533c13.407-2.222,20.567-11.85,20.567-22.137C374.663,128.824,367.894,122.064,354.486,116.597z"/>
	</g>
</g>
<g>
	<g>
		<path d="M398.883,149.912c-4.56,0-7.815,3.384-7.815,8.196c0,4.69,3.128,8.205,7.68,8.205c4.816,0,7.815-3.519,7.815-8.205
			C406.563,153.292,403.443,149.912,398.883,149.912z"/>
	</g>
</g>
<g>
</g>
<g>
</g>
<g>
</g>
<g>
</g>
<g>
</g>
<g>
</g>
<g>
</g>
<g>
</g>
<g>
</g>
<g>
</g>
<g>
</g>
<g>
</g>
<g>
</g>
<g>
</g>
<g>
</g>
</svg>
