<?xml version="1.0" encoding="iso-8859-1"?>
<!-- Generator: Adobe Illustrator 19.0.0, SVG Export Plug-In . SVG Version: 6.00 Build 0)  -->
<svg version="1.1" id="Capa_1" xmlns="http://www.w3.org/2000/svg" xmlns:xlink="http://www.w3.org/1999/xlink" x="0px" y="0px"
	 viewBox="0 0 512 512" style="enable-background:new 0 0 512 512;" xml:space="preserve">
<g>
	<g>
		<path d="M363.789,146.467c-4.25,0-7.699,3.449-7.699,7.699v103.601c0,23.537-19.148,42.685-42.685,42.685H198.591
			c-23.537,0-42.685-19.148-42.685-42.685V153.973c0-4.25-3.449-7.699-7.699-7.699c-4.25,0-7.699,3.449-7.699,7.699v103.794
			c0,32.025,26.058,58.083,58.083,58.083h114.815c32.025,0,58.083-26.058,58.083-58.083V154.166
			C371.489,149.916,368.039,146.467,363.789,146.467z"/>
	</g>
</g>
<g>
	<g>
		<path d="M433.11,152.622l-7.699-38.496c-0.735-3.688-3.969-6.336-7.726-6.336H94.316c-3.757,0-6.991,2.648-7.726,6.336
			l-7.699,38.496c-0.466,2.314,0.135,4.716,1.632,6.541s3.734,2.883,6.094,2.883h338.767c2.36,0,4.596-1.059,6.094-2.883
			S433.576,154.936,433.11,152.622z M96.229,146.286l4.546-22.736h310.449l4.546,22.736H96.229z"/>
	</g>
</g>
<g>
	<g>
		<path d="M338.825,0c-0.246,0-0.489,0.012-0.731,0.035L256,7.665l-82.097-7.63C173.664,0.012,173.418,0,173.175,0
			c-20.057,0-32.845,31.679-32.845,48.243v67.426c0,4.35,3.526,7.88,7.88,7.88h215.579c4.354,0,7.88-3.53,7.88-7.88V48.243
			C371.67,31.679,358.881,0,338.825,0z M355.909,107.789H156.091V48.247c0-12.588,10.113-31.979,16.827-32.475l82.351,7.653
			c0.489,0.046,0.97,0.046,1.459,0l82.355-7.657c6.714,0.497,16.827,19.887,16.827,32.475V107.789z"/>
	</g>
</g>
<g>
	<g>
		<path d="M379.188,342.617h-37.457c-4.25,0-7.699,3.449-7.699,7.699c0,4.25,3.449,7.699,7.699,7.699h29.758v138.586H140.511
			V358.015h29.742c4.25,0,7.699-3.449,7.699-7.699c0-4.25-3.449-7.699-7.699-7.699h-37.441c-4.25,0-7.699,3.449-7.699,7.699v153.985
			c0,4.25,3.449,7.699,7.699,7.699h246.376c4.25,0,7.699-3.449,7.699-7.699V350.316
			C386.887,346.066,383.438,342.617,379.188,342.617z"/>
	</g>
</g>
<g>
	<g>
		<path d="M373.14,342.617c-2.406,0-4.673,1.124-6.129,3.037L256,491.585L144.988,345.654c-1.455-1.913-3.723-3.037-6.129-3.037
			c-45.787,0-83.04,34.042-83.04,75.888v85.797c0,4.25,3.449,7.699,7.699,7.699h384.962c4.25,0,7.699-3.449,7.699-7.699v-85.797
			C456.18,376.659,418.932,342.617,373.14,342.617z M71.218,496.602v-78.097c0-32.229,28.333-58.653,63.896-60.397l105.357,138.494
			H71.218z M440.782,496.602H271.529l105.357-138.494c35.567,1.744,63.896,28.168,63.896,60.397V496.602z"/>
	</g>
</g>
<g>
	<g>
		<path d="M295.578,364.325c-3.261-2.722-8.123-2.291-10.844,0.978c-2.26,2.706-5.482,4.262-8.843,4.262h-39.247
			c-3.557,0-6.899-1.705-9.177-4.677c-2.591-3.38-7.422-4.011-10.794-1.436c-3.376,2.583-4.019,7.418-1.432,10.794
			c5.216,6.81,13.016,10.717,21.404,10.717h39.247c7.938,0,15.476-3.572,20.669-9.793
			C299.281,371.904,298.842,367.05,295.578,364.325z"/>
	</g>
</g>
<g>
	<g>
		<path d="M305.599,332.33c-1.093-3.068-3.996-5.112-7.253-5.112h-84.692c-4.25,0-7.699,3.449-7.699,7.699v69.293
			c0,2.976,1.717,5.682,4.404,6.956c1.047,0.5,2.175,0.743,3.295,0.743c1.744,0,3.472-0.593,4.878-1.74l84.692-69.293
			C305.741,338.817,306.692,335.395,305.599,332.33z M221.353,387.961v-45.345h55.423L221.353,387.961z"/>
	</g>
</g>
<g>
	<g>
		<path d="M298.346,327.218h-84.692c-3.257,0-6.159,2.044-7.253,5.112c-1.093,3.064-0.142,6.487,2.375,8.546l84.692,69.293
			c1.405,1.147,3.134,1.74,4.878,1.74c1.12,0,2.248-0.243,3.295-0.743c2.691-1.27,4.404-3.981,4.404-6.956v-69.293
			C306.045,330.667,302.596,327.218,298.346,327.218z M290.647,387.961l-55.423-45.345h55.423V387.961z"/>
	</g>
</g>
<g>
	<g>
		<path d="M284.861,474.955l-5.875-101.984c-0.235-4.073-3.607-7.257-7.688-7.257h-30.481c-4.081,0-7.453,3.184-7.688,7.257
			l-5.99,103.94c-0.242,4.246,2.999,7.888,7.245,8.13c0.15,0.008,0.3,0.012,0.45,0.012c4.05,0,7.445-3.161,7.68-7.257l5.567-96.683
			h15.949l5.455,94.732c0.242,4.246,3.954,7.514,8.13,7.241C281.862,482.839,285.103,479.201,284.861,474.955z"/>
	</g>
</g>
<g>
</g>
<g>
</g>
<g>
</g>
<g>
</g>
<g>
</g>
<g>
</g>
<g>
</g>
<g>
</g>
<g>
</g>
<g>
</g>
<g>
</g>
<g>
</g>
<g>
</g>
<g>
</g>
<g>
</g>
</svg>
