<?xml version="1.0" encoding="iso-8859-1"?>
<!-- Generator: Adobe Illustrator 19.0.0, SVG Export Plug-In . SVG Version: 6.00 Build 0)  -->
<svg version="1.1" id="Capa_1" xmlns="http://www.w3.org/2000/svg" xmlns:xlink="http://www.w3.org/1999/xlink" x="0px" y="0px"
	 viewBox="0 0 512 512" style="enable-background:new 0 0 512 512;" xml:space="preserve">
<g>
	<g>
		<path d="M282.365,0h-53.026c-4.719,0-8.542,3.822-8.542,8.542v494.912c0,4.719,3.822,8.546,8.542,8.546h53.026
			c4.715,0,8.546-3.831,8.546-8.546V8.542C290.911,3.822,287.08,0,282.365,0z M273.823,494.912h-35.939V17.088h35.939V494.912z"/>
	</g>
</g>
<g>
	<g>
		<path d="M308.878,494.912H202.825c-4.719,0-8.546,3.822-8.546,8.542s3.827,8.546,8.546,8.546h106.053
			c4.715,0,8.546-3.822,8.546-8.542C317.424,498.739,313.593,494.912,308.878,494.912z"/>
	</g>
</g>
<g>
	<g>
		<path d="M459.119,61.864H52.584c-4.719,0-8.546,3.822-8.546,8.542s3.827,8.546,8.546,8.546h406.535
			c4.715,0,8.546-3.822,8.546-8.542C467.665,65.691,463.834,61.864,459.119,61.864z"/>
	</g>
</g>
<g>
	<g>
		<path d="M167.475,185.592H43.746c-4.719,0-8.546,3.822-8.546,8.542c0,38.824,31.586,70.41,70.41,70.41s70.41-31.586,70.41-70.406
			C176.021,189.419,172.194,185.592,167.475,185.592z M105.611,247.456c-26.495,0-48.537-19.425-52.637-44.776h105.275
			C154.147,228.035,132.106,247.456,105.611,247.456z"/>
	</g>
</g>
<g>
	<g>
		<path d="M160.731,191.094L113.595,67.366c-1.264-3.314-4.441-5.501-7.985-5.501c-0.022,0-0.04,0-0.062,0
			c-3.566,0.022-6.739,2.262-7.963,5.612l-45.17,123.728c-1.617,4.432,0.663,9.337,5.095,10.954c0.968,0.354,1.958,0.521,2.93,0.521
			c3.482,0,6.761-2.152,8.025-5.616l37.317-102.213l38.983,102.328c1.679,4.406,6.606,6.624,11.025,4.94
			C160.197,200.439,162.411,195.504,160.731,191.094z"/>
	</g>
</g>
<g>
	<g>
		<path d="M474.934,162.19l-75.713-97.215c-1.692-2.174-4.348-3.376-7.066-3.407c-2.757,0.031-5.342,1.343-6.991,3.553
			l-72.566,97.215c-2.921,3.911-2.117,9.448,1.794,12.368c1.586,1.184,3.438,1.754,5.276,1.754c2.7,0,5.356-1.228,7.092-3.553
			l65.633-87.926l68.59,88.072c3.005,3.853,8.555,4.534,12.404,1.542C477.241,171.593,477.935,166.043,474.934,162.19z"/>
	</g>
</g>
<g>
	<g>
		<path d="M467.957,159.075H317.716c-4.719,0-8.546,3.827-8.546,8.546v35.351c0,4.719,3.831,8.546,8.546,8.546h150.241
			c4.715,0,8.546-3.827,8.546-8.546v-35.351C476.503,162.901,472.672,159.075,467.957,159.075z M459.415,194.43H326.262v-18.263
			h133.154V194.43z"/>
	</g>
</g>
<g>
	<g>
		<path d="M467.957,194.134H317.716c-4.878,0-8.838,3.959-8.838,8.838v70.702c0,4.878,3.959,8.838,8.838,8.838h150.241
			c4.883,0,8.838-3.955,8.838-8.838v-70.702C476.795,198.093,472.835,194.134,467.957,194.134z M459.119,264.836H326.553v-53.026
			h132.566V264.836z"/>
	</g>
</g>
<g>
	<g>
		<path d="M406.093,132.27H379.58c-4.878,0-8.838,3.959-8.838,8.838v17.675c0,4.878,3.959,8.838,8.838,8.838
			c4.878,0,8.838-3.959,8.838-8.838v-8.838h8.838v8.838c0,4.878,3.959,8.838,8.838,8.838c4.883,0,8.838-3.955,8.838-8.838v-17.675
			C414.931,136.229,410.971,132.27,406.093,132.27z"/>
	</g>
</g>
<g>
</g>
<g>
</g>
<g>
</g>
<g>
</g>
<g>
</g>
<g>
</g>
<g>
</g>
<g>
</g>
<g>
</g>
<g>
</g>
<g>
</g>
<g>
</g>
<g>
</g>
<g>
</g>
<g>
</g>
</svg>
