<?xml version="1.0" encoding="iso-8859-1"?>
<!-- Generator: Adobe Illustrator 19.0.0, SVG Export Plug-In . SVG Version: 6.00 Build 0)  -->
<svg version="1.1" id="Capa_1" xmlns="http://www.w3.org/2000/svg" xmlns:xlink="http://www.w3.org/1999/xlink" x="0px" y="0px"
	 viewBox="0 0 512 512" style="enable-background:new 0 0 512 512;" xml:space="preserve">
<g>
	<g>
		<path d="M503.467,187.733H8.533c-4.71,0-8.533,3.823-8.533,8.533v247.467c0,4.71,3.823,8.533,8.533,8.533h494.933
			c4.71,0,8.533-3.823,8.533-8.533V196.267C512,191.556,508.177,187.733,503.467,187.733z M494.933,435.2H17.067V204.8h477.867
			V435.2z"/>
	</g>
</g>
<g>
	<g>
		<path d="M503.467,110.933H8.533c-4.71,0-8.533,3.823-8.533,8.533V230.4c0,3.644,2.313,6.882,5.751,8.068l111.701,38.515
			c4.45,1.532,9.31-0.828,10.846-5.282c1.536-4.459-0.832-9.314-5.286-10.85L17.067,224.316V128h477.867v96.316L388.89,260.881
			c-4.454,1.536-6.818,6.391-5.282,10.85c1.22,3.533,4.527,5.756,8.068,5.756c0.922,0,1.86-0.154,2.782-0.469l111.791-38.549
			c3.443-1.186,5.751-4.424,5.751-8.068V119.467C512,114.756,508.177,110.933,503.467,110.933z"/>
	</g>
</g>
<g>
	<g>
		<path d="M329.728,71.339c-7.484-7.484-17.434-11.605-28.019-11.605h-91.422c-21.85,0-39.625,17.775-39.625,39.625v20.109
			c0,4.71,3.823,8.533,8.533,8.533h153.6c4.715,0,8.533-3.823,8.533-8.533V99.358C341.333,88.772,337.212,78.822,329.728,71.339z
			 M324.262,110.933H187.729V99.358c0-12.437,10.116-22.558,22.558-22.558h91.422c6.025,0,11.691,2.347,15.949,6.605
			c4.262,4.262,6.605,9.924,6.605,15.953V110.933z"/>
	</g>
</g>
<g>
	<g>
		<path d="M407.693,276.224c-31.479-38.793-89.604-62.891-151.693-62.891s-120.213,24.098-151.693,62.891
			c-2.543,3.136-2.543,7.62,0,10.752c31.479,38.797,89.604,62.891,151.693,62.891s120.213-24.094,151.693-62.891
			C410.24,283.84,410.24,279.356,407.693,276.224z M256,332.8c-54.08,0-104.546-19.464-133.786-51.2
			c29.239-31.731,79.706-51.2,133.786-51.2c54.08,0,104.55,19.469,133.786,51.2C360.55,313.331,310.08,332.8,256,332.8z"/>
	</g>
</g>
<g>
	<g>
		<path d="M256,221.867c-32.939,0-59.733,26.795-59.733,59.733c0,32.939,26.795,59.733,59.733,59.733s59.733-26.795,59.733-59.733
			C315.733,248.661,288.939,221.867,256,221.867z M256,324.267c-23.526,0-42.667-19.14-42.667-42.667
			c0-23.526,19.14-42.667,42.667-42.667c23.526,0,42.667,19.14,42.667,42.667C298.667,305.126,279.526,324.267,256,324.267z"/>
	</g>
</g>
<g>
	<g>
		<path d="M256,256c-14.118,0-25.6,11.482-25.6,25.6c0,14.118,11.482,25.6,25.6,25.6s25.6-11.482,25.6-25.6
			C281.6,267.482,270.118,256,256,256z M256,290.133c-4.706,0-8.533-3.827-8.533-8.533s3.827-8.533,8.533-8.533
			c4.706,0,8.533,3.827,8.533,8.533S260.706,290.133,256,290.133z"/>
	</g>
</g>
<g>
</g>
<g>
</g>
<g>
</g>
<g>
</g>
<g>
</g>
<g>
</g>
<g>
</g>
<g>
</g>
<g>
</g>
<g>
</g>
<g>
</g>
<g>
</g>
<g>
</g>
<g>
</g>
<g>
</g>
</svg>
