<svg xmlns="http://www.w3.org/2000/svg" viewBox="0 0 52 52"><path fill="#44ccc1" d="m47.719 20.133.006 3.122L50 21.941l-.006-3.121z" class="colorcc4444 svgShape"></path><path fill="#3fd8cc" d="m40.304 15.829.006 3.121 7.415 4.305-.006-3.122z" class="colord8463f svgShape"></path><path fill="#44ccc1" d="m15.807 29.972.006 2.11L40.31 18.95l-.006-3.121z" class="colorcc4444 svgShape"></path><path fill="#e0e2e2" d="m23.218 34.918.006 2.482 24.497-14.143-.006-2.483z" class="colore0e2e2 svgShape"></path><path fill="#ecf1f1" d="m47.717 20.77-.43.25-.21.12-1.52.88-.22.13-1.52.87-.22.13-1.52.88-.22.13-1.52.87-.22.13-1.52.88-.23.13-1.52.88-.21.12-1.53.88-.22.13-1.51.87-.22.13-1.53.88-.21.13-1.52.87-.22.13-1.53.88-.22.13-1.52.88-.21.12-1.53.88-.22.13-1.23.71-7.41-4.31 1.21-.7.21-.12 1.53-.88.21-.13 1.53-.87.22-.13 1.52-.88.22-.13 1.52-.88.22-.12 1.53-.88.21-.13 1.53-.88.21-.12 1.53-.88.21-.12 1.52-.88.22-.13 1.52-.88.22-.13 1.53-.87.22-.13 1.52-.88.22-.13 1.52-.88.22-.12 1.52-.88.22-.12.44-.26z" class="colorecf0f1 svgShape"></path><path fill="#b6baba" d="m15.807 29.972.006 3.122 7.411 4.306-.006-3.121z" class="colorb6b9ba svgShape"></path><path fill="#3fd8cc" d="m2 30.059.006 3.121 14.217 8.262-.006-3.121z" class="colord8463f svgShape"></path><path fill="#3ce7d9" d="m2 30.059 14.217 8.262 7.005-4.044-7.415-4.305 24.497-14.143 7.415 4.304 2.275-1.313-14.217-8.262z" class="colore74c3c svgShape"></path><path fill="#44ccc1" d="m16.217 38.321.006 3.121 7.005-4.044-.006-3.121zM9.123 26.598c-.163.094-.164.247-.002.341l1.585.921a.652.652 0 0 0 .59 0l25.961-14.984c.164-.094.164-.247.002-.342l-1.585-.92a.65.65 0 0 0-.59 0L9.124 26.597z" class="colorcc4444 svgShape"></path><path fill="#ecf1f1" d="M30.832 14.158c-.424.244-.426.64-.004.885.42.244 1.103.244 1.526 0 .423-.245.427-.641.007-.885-.421-.245-1.106-.244-1.53 0zm-3.371 1.946c-.423.245-.425.64-.004.885.42.244 1.103.244 1.526 0 .424-.244.428-.641.007-.885-.421-.245-1.106-.244-1.529 0zm-3.37 1.946c-.424.245-.426.64-.005.885.42.244 1.104.244 1.527 0 .423-.244.427-.641.007-.885-.422-.245-1.106-.244-1.53 0zm-3.37 1.946c-.424.244-.426.64-.004.884.42.245 1.103.245 1.526 0 .422-.243.427-.64.006-.884-.421-.245-1.106-.244-1.528 0zm-3.371 1.946c-.423.244-.426.64-.004.884.42.245 1.103.245 1.526 0 .424-.244.428-.64.007-.885s-1.106-.244-1.529 0zm-3.37 1.946c-.424.244-.426.64-.005.885.42.244 1.104.244 1.527 0 .423-.245.427-.641.007-.886-.422-.245-1.106-.244-1.53 0zm-3.371 1.946c-.423.244-.426.64-.004.885.42.244 1.104.243 1.526 0 .423-.245.428-.641.007-.886s-1.106-.244-1.53 0z" class="colorecf0f1 svgShape"></path><path fill="#0ff1df" d="M6.96 28.086c-.234.135-.235.356-.002.492l.735.427a.935.935 0 0 0 .849 0l.74-.428c.235-.136.236-.355.003-.49l-.736-.428a.935.935 0 0 0-.848 0l-.74.427z" class="colorf1c40f svgShape"></path><path fill="#84fff5" d="M4.629 29.432c-.235.136-.237.356-.003.492l.735.427a.935.935 0 0 0 .849 0l.74-.427c.235-.136.236-.356.002-.491l-.735-.428a.935.935 0 0 0-.848 0l-.74.427z" class="color84dbff svgShape"></path><path fill="#34dbcd" d="M9.1 29.33c-.234.135-.235.356-.002.491l.735.428a.935.935 0 0 0 .849 0l.74-.428c.235-.136.236-.355.003-.491l-.736-.427a.935.935 0 0 0-.848 0l-.74.426z" class="color3498db svgShape"></path><path fill="#2eccbf" d="M6.769 30.676c-.235.136-.237.356-.003.492l.735.427a.935.935 0 0 0 .849 0l.74-.428c.235-.135.236-.355.002-.49l-.735-.428a.935.935 0 0 0-.848 0l-.74.427z" class="color2ecc71 svgShape"></path><path fill="#5b716f" d="M36.522 14.098c-.295.17-.297.447-.004.617l.924.537c.293.17.77.17 1.066 0l.93-.537c.295-.17.296-.447.003-.617l-.924-.537c-.294-.17-.77-.17-1.065 0l-.93.537zm-3.37 1.946c-.296.17-.298.447-.004.617l.924.537c.293.17.77.17 1.065 0l.93-.537c.296-.17.296-.447.004-.617l-.924-.537c-.294-.17-.77-.17-1.066 0l-.93.537zM29.78 17.99c-.294.17-.296.446-.002.617l.924.537c.293.17.77.17 1.064 0l.931-.537c.295-.17.296-.447.003-.617l-.924-.537c-.294-.17-.77-.17-1.064 0l-.932.537zm-3.37 1.946c-.295.17-.296.446-.003.617l.924.537c.293.17.77.17 1.066 0l.93-.537c.294-.17.296-.447.003-.617l-.924-.537c-.294-.17-.77-.17-1.065 0l-.93.537zm-3.37 1.946c-.295.17-.297.446-.003.617l.924.537c.293.17.77.17 1.065 0l.93-.537c.295-.17.296-.447.004-.617l-.924-.537c-.294-.17-.771-.17-1.066 0l-.93.537zm-3.37 1.946c-.295.17-.298.446-.004.617l.924.537c.293.17.77.17 1.065 0l.93-.537c.296-.17.297-.447.004-.617l-.924-.537c-.294-.17-.77-.17-1.065 0l-.93.537zm-3.371 1.946c-.295.17-.296.446-.003.616l.924.537c.293.17.77.171 1.065.001l.93-.538c.295-.17.296-.446.003-.616l-.924-.537c-.294-.17-.77-.17-1.064 0l-.931.537z" class="color5b5e71 svgShape"></path><path fill="#d4d6d6" d="M34.2 13.507c.42.244 1.103.245 1.526 0 .213-.123.32-.284.319-.446l-.001-.41c0 .161-.106.323-.32.446-.422.244-1.105.244-1.526 0-.21-.122-.314-.28-.315-.44l.002.41c0 .16.105.318.314.44zm-3.371 1.946c.42.245 1.103.245 1.526 0 .214-.123.32-.285.32-.447l-.001-.41c0 .162-.106.324-.32.447-.423.244-1.106.244-1.526 0-.21-.122-.315-.28-.315-.44l.001.41c0 .16.105.318.315.44zm-3.37 1.946c.42.245 1.102.245 1.526 0 .213-.123.32-.285.32-.447l-.002-.41c0 .162-.106.324-.32.447-.423.244-1.106.244-1.526 0-.21-.122-.314-.28-.315-.44l.001.41c0 .16.106.318.315.44zm-3.372 1.946c.421.245 1.104.245 1.527 0 .213-.123.32-.285.32-.447l-.001-.41c0 .162-.107.324-.32.447-.423.244-1.106.244-1.527 0-.21-.122-.314-.28-.314-.44v.41c.001.16.106.319.315.44zm-3.37 1.946c.421.244 1.104.244 1.527 0 .213-.123.32-.285.32-.446l-.002-.41c0 .16-.106.323-.319.445-.423.245-1.106.245-1.526 0-.21-.121-.315-.28-.315-.44l.001.411c0 .16.105.318.315.44zm-3.37 1.946c.42.244 1.103.244 1.527 0 .213-.123.32-.285.32-.447l-.002-.41c0 .161-.106.323-.32.446-.423.245-1.106.245-1.526 0-.21-.121-.314-.28-.315-.44l.001.411c0 .16.106.318.315.44zm-3.37 1.946c.42.244 1.103.244 1.526 0 .213-.123.32-.285.32-.447l-.001-.41c0 .161-.107.323-.32.447-.423.244-1.106.244-1.527 0-.21-.122-.314-.281-.314-.44v.41c.001.16.106.318.315.44zm-1.846 1.536c-.422.243-1.106.244-1.526 0-.21-.122-.314-.281-.315-.44l.001.41c0 .16.105.318.315.44.42.244 1.104.244 1.526 0 .214-.123.32-.285.32-.447l-.001-.41c0 .161-.106.323-.32.447z" class="colord4d6d6 svgShape"></path><path fill="#1ac6b8" d="m6.96 28.988.734.427a.935.935 0 0 0 .849 0l.74-.428c.118-.068.177-.157.177-.247l-.001-.41c0 .09-.059.179-.177.247l-.74.427a.935.935 0 0 1-.849.001l-.735-.427c-.116-.068-.174-.156-.174-.245v.41c.001.09.06.178.175.245z" class="colorc6a51a svgShape"></path><path fill="#41e1d4" d="m7.128 30.087-.001-.41c0 .089-.06.178-.177.247l-.74.427a.935.935 0 0 1-.849 0l-.735-.427c-.116-.067-.174-.156-.174-.244v.41c.001.089.06.177.175.244l.735.428a.935.935 0 0 0 .849 0l.74-.428c.118-.068.177-.158.177-.247z" class="color6dbcc9 svgShape"></path><path fill="#30a59b" d="m11.422 29.82-.74.428a.935.935 0 0 1-.849 0l-.735-.427c-.116-.067-.174-.155-.174-.244l.001.41c0 .089.058.177.174.245l.736.427a.935.935 0 0 0 .848 0l.74-.428c.118-.068.177-.158.177-.247l-.001-.41c0 .089-.059.179-.177.247z" class="color3087a5 svgShape"></path><path fill="#32a59c" d="m9.09 31.167-.74.428a.935.935 0 0 1-.849 0l-.735-.427c-.116-.068-.174-.156-.174-.244v.41c.001.088.06.177.175.244l.735.427a.935.935 0 0 0 .849 0l.74-.427c.118-.069.177-.158.177-.248l-.001-.41c0 .09-.06.179-.177.247z" class="color32a560 svgShape"></path><path fill="#526664" d="M39.66 14.405c0 .112-.074.225-.222.31l-.93.537c-.295.17-.773.17-1.066 0l-.924-.537c-.145-.084-.218-.195-.219-.306l.002.41c0 .111.073.222.218.307l.925.537c.292.17.77.17 1.065 0l.93-.537c.148-.086.222-.199.222-.311l-.001-.41zm-3.593 2.256-.93.537c-.295.17-.772.17-1.065 0l-.924-.537c-.146-.084-.219-.195-.22-.306l.002.41c0 .111.073.222.219.307l.924.537c.293.17.77.17 1.065 0l.93-.537c.149-.086.223-.199.223-.311l-.001-.41c0 .112-.074.224-.223.31zm-3.37 1.946-.93.537c-.295.17-.772.17-1.065 0l-.924-.537c-.146-.085-.22-.196-.22-.307l.002.41c0 .111.073.222.22.307l.923.537c.293.17.77.17 1.065 0l.93-.537c.149-.085.222-.198.222-.31l-.001-.41c0 .112-.074.224-.222.31zm-3.37 1.946-.93.537c-.296.17-.773.17-1.066 0l-.924-.537c-.146-.085-.219-.196-.219-.307l.001.41c0 .112.074.222.22.307l.924.537c.292.17.77.17 1.065 0l.93-.537c.148-.085.222-.198.222-.31l-.001-.41c0 .112-.074.224-.222.31zm-3.37 1.946-.931.537c-.295.17-.772.17-1.065 0l-.924-.537c-.146-.085-.219-.196-.22-.306l.002.41c0 .11.073.221.219.306l.924.537c.293.17.77.17 1.065 0l.93-.537c.149-.085.223-.198.222-.31v-.41c0 .112-.075.224-.223.31zm-3.372 1.946-.93.537c-.294.17-.772.17-1.065 0l-.924-.537c-.146-.085-.219-.196-.219-.306l.001.41c0 .11.073.222.22.306l.923.537c.293.17.77.17 1.066 0l.93-.537c.148-.086.222-.198.222-.31l-.001-.41c0 .112-.074.224-.223.31zm-3.37 1.945-.93.538c-.295.17-.772.17-1.065 0l-.924-.538c-.146-.084-.219-.195-.22-.306l.002.41c0 .111.073.222.22.307l.923.537c.293.17.77.17 1.065 0l.93-.537c.149-.086.223-.198.223-.31l-.002-.41c0 .112-.073.224-.221.31zm-3.37 1.947-.93.537c-.296.17-.772.17-1.065 0l-.924-.537c-.146-.085-.22-.196-.22-.307l.002.41c0 .111.073.222.219.307l.924.537c.293.17.77.17 1.065 0l.93-.537c.149-.086.223-.198.222-.31v-.411c0 .112-.075.225-.223.31z" class="color525566 svgShape"></path><path fill="#5b716f" d="M12.93 27.72c-.297.17-.298.446-.004.617l.924.537c.293.17.77.17 1.065 0l.93-.537c.295-.17.296-.447.004-.618l-.924-.537c-.294-.17-.771-.17-1.066 0l-.93.537z" class="color5b5e71 svgShape"></path><path fill="#42c1b7" d="m13.994 32.343 3.465 2.014 1.734-1.002-3.465-2.014zM11.128 33.997l3.465 2.014 1.735-1.001-3.466-2.014z" class="colorc14242 svgShape"></path><path fill="#e0e2e2" d="m24.667 34.08-.22.13-7.43-4.3.21-.12zM26.407 33.08l-.21.12-7.44-4.29.21-.13zM28.147 32.07l-.22.13-7.43-4.29.22-.13zM29.897 31.06l-.22.13-7.44-4.29.22-.13zM31.627 30.06l-.21.13-7.44-4.3.22-.12zM33.377 29.05l-.22.13-7.43-4.29.21-.13zM35.107 28.05l-.22.13-7.42-4.3.21-.12zM36.847 27.05l-.21.12-7.43-4.29.21-.12zM38.597 26.04l-.23.13-7.43-4.29.22-.13zM40.337 25.03l-.22.13-7.44-4.29.22-.13zM42.077 24.03l-.22.13-7.43-4.29.22-.13zM43.817 23.02l-.22.13-7.43-4.29.22-.13zM45.557 22.02l-.22.13-7.43-4.3.22-.12zM47.287 21.02l-.21.12-7.43-4.29.22-.12z" class="colore0e2e2 svgShape"></path><path fill="#5b716f" d="M38.165 17.246c-.12.07-.12.181-.002.25l3.115 1.81c.12.07.312.07.432 0l.744-.43c.12-.069.12-.18.002-.25l-3.115-1.81a.476.476 0 0 0-.431 0l-.745.43z" class="color5b5e71 svgShape"></path><path fill="#475958" d="M42.545 18.75c0 .046-.03.092-.09.126l-.745.43a.475.475 0 0 1-.432 0l-3.115-1.81c-.058-.034-.088-.079-.088-.124v.288c.001.044.03.09.09.123l3.114 1.81c.119.07.312.07.431 0l.745-.43c.06-.034.09-.08.09-.125v-.288z" class="color474b59 svgShape"></path><path fill="#5b716f" d="M35.05 19.045c-.12.07-.12.181-.002.25l3.115 1.81c.119.07.312.07.431 0l.745-.43c.12-.069.12-.18.001-.25l-3.115-1.81a.476.476 0 0 0-.431 0l-.745.43z" class="color5b5e71 svgShape"></path><path fill="#475958" d="M39.43 20.55c0 .045-.03.09-.091.125l-.745.43a.475.475 0 0 1-.431 0l-3.115-1.81c-.059-.034-.088-.08-.089-.124l.001.287c0 .045.03.09.089.124l3.114 1.81c.12.07.312.07.432 0l.745-.43c.06-.034.09-.08.09-.125v-.288z" class="color474b59 svgShape"></path><path fill="#5b716f" d="M32.797 20.346c-.12.069-.12.18-.002.25l3.115 1.81c.119.069.312.069.431 0l.745-.43c.12-.07.12-.181.002-.25l-3.115-1.81a.476.476 0 0 0-.432 0l-.744.43z" class="color5b5e71 svgShape"></path><path fill="#475958" d="M37.176 21.85c0 .045-.03.09-.09.126l-.745.43a.475.475 0 0 1-.431 0l-3.115-1.81c-.059-.035-.088-.08-.088-.125v.288c0 .045.03.09.089.124l3.115 1.81c.119.07.312.07.431 0l.745-.43c.06-.035.09-.08.09-.126v-.287z" class="color474b59 svgShape"></path><path fill="#5b716f" d="M29.25 22.394c-.12.069-.12.18-.002.25l3.115 1.81c.119.069.312.069.431 0l.745-.43c.12-.07.12-.181.002-.25l-3.115-1.81a.476.476 0 0 0-.432 0l-.744.43z" class="color5b5e71 svgShape"></path><path fill="#475958" d="M33.63 23.898c0 .045-.03.09-.09.126l-.746.43a.475.475 0 0 1-.431 0l-3.115-1.81c-.059-.035-.088-.08-.088-.125v.288c0 .045.03.09.089.124l3.115 1.81c.119.069.312.069.431 0l.745-.43c.06-.035.09-.08.09-.126v-.287z" class="color474b59 svgShape"></path><path fill="#5b716f" d="M26.997 23.694c-.12.07-.12.181-.002.25l3.115 1.81c.12.07.312.07.432 0l.744-.43c.12-.069.12-.18.002-.25l-3.115-1.81a.476.476 0 0 0-.431 0l-.745.43z" class="color5b5e71 svgShape"></path><path fill="#475958" d="M31.377 25.198c0 .046-.03.091-.09.126l-.745.43a.475.475 0 0 1-.432 0l-3.115-1.81c-.058-.034-.088-.08-.088-.124l.001.287c0 .045.03.09.088.124l3.115 1.81c.12.07.312.07.431 0l.745-.43c.06-.034.09-.08.09-.125v-.288z" class="color474b59 svgShape"></path><path fill="#5b716f" d="M24.744 24.995c-.12.069-.12.18-.001.25l3.115 1.81c.119.069.312.069.431 0l.745-.43c.12-.07.12-.181.001-.25l-3.115-1.81a.476.476 0 0 0-.43 0l-.746.43z" class="color5b5e71 svgShape"></path><path fill="#475958" d="M29.124 26.499c0 .045-.03.09-.09.126l-.745.43a.475.475 0 0 1-.431 0l-3.115-1.81c-.059-.035-.088-.08-.089-.125l.001.288c0 .045.03.09.089.124l3.114 1.81c.12.07.312.07.432 0l.745-.43c.06-.035.09-.08.09-.126V26.5z" class="color474b59 svgShape"></path><path fill="#5b716f" d="M21.197 27.043c-.12.069-.12.18-.001.25l3.115 1.81c.119.069.312.069.431 0l.745-.43c.12-.07.12-.181.001-.25l-3.115-1.81a.476.476 0 0 0-.43 0l-.746.43z" class="color5b5e71 svgShape"></path><path fill="#475958" d="M25.577 28.547c0 .045-.03.09-.09.126l-.745.43a.475.475 0 0 1-.431 0l-3.115-1.81c-.059-.035-.088-.08-.089-.125l.001.288c0 .045.03.09.089.124l3.114 1.81c.12.069.312.069.432 0l.745-.43c.06-.035.09-.08.09-.126v-.287z" class="color474b59 svgShape"></path><path fill="#5b716f" d="M19.376 28.094c-.12.069-.12.181-.001.25l3.114 1.81c.12.069.312.069.432 0l.745-.43c.12-.07.12-.18.001-.25l-3.115-1.81a.476.476 0 0 0-.431 0l-.745.43z" class="color5b5e71 svgShape"></path><path fill="#475958" d="M23.756 29.598c0 .046-.03.091-.09.126l-.745.43a.475.475 0 0 1-.432 0l-3.114-1.81c-.06-.034-.089-.08-.089-.124l.001.287c0 .045.03.09.088.124l3.115 1.81c.12.07.312.07.432 0l.744-.43c.06-.034.09-.08.09-.125v-.288z" class="color474b59 svgShape"></path><path fill="#ecf1f1" d="M16.926 31.841c-.392-.226-.738-.27-.94-.152l-.886.514c.203-.118.549-.074.941.153.623.36 1.128 1.044 1.126 1.528l.886-.514c.001-.484-.504-1.169-1.127-1.529z" class="colorecf0f1 svgShape"></path><path fill="#d4d6d6" d="M16.041 32.356c.623.36 1.128 1.044 1.126 1.528L14.91 32.58c.001-.484.508-.585 1.132-.224z" class="colord4d6d6 svgShape"></path><path fill="#0ff1df" d="M14.04 33.547c-.393-.227-.739-.271-.942-.153l-.885.514c.203-.118.549-.073.941.153.623.36 1.128 1.045 1.126 1.528l.886-.514c0-.484-.504-1.169-1.127-1.528z" class="colorf1c40f svgShape"></path><path fill="#1ac6b8" d="M13.154 34.061c.623.36 1.128 1.045 1.126 1.528l-2.258-1.304c.001-.483.508-.584 1.132-.224z" class="colorc6a51a svgShape"></path><path fill="#5b716f" d="M16.919 29.5c-.12.069-.12.181-.002.25l3.115 1.81c.12.069.312.069.431 0l.745-.43c.12-.07.12-.18.002-.25l-3.115-1.81a.476.476 0 0 0-.431 0l-.745.43z" class="color5b5e71 svgShape"></path><path fill="#475958" d="M21.299 31.004c0 .046-.03.091-.09.126l-.746.43a.475.475 0 0 1-.43 0l-3.116-1.81c-.058-.034-.088-.08-.088-.124v.287c0 .045.03.09.09.124l3.114 1.81c.119.07.312.07.431 0l.745-.43c.06-.034.09-.08.09-.125v-.288z" class="color474b59 svgShape"></path></svg>