<svg xmlns="http://www.w3.org/2000/svg" enable-background="new 0 0 187.063 218.927" viewBox="0 0 187.063 218.927"><path d="M44.085,161.968c0.635,0.1,1.281,0.167,1.944,0.167v-0.002h45.284l4.259,45.458c0.607,6.479,6.054,11.336,12.434,11.337
		c0.39,0,0.782-0.019,1.178-0.055c6.875-0.645,11.927-6.739,11.282-13.612l-5.322-56.793c-0.602-6.421-5.996-11.333-12.445-11.333
		H59.306c0.021-9.08,1.431-18.468,3.03-27.01c-1.312-0.681-2.518-1.359-3.615-2.023c-10.845-6.526-14.954-13.491-15.386-14.263
		c-1.314-2.308-1.654-5.006-0.948-7.582c0.705-2.576,2.374-4.722,4.696-6.044c1.505-0.858,3.215-1.312,4.941-1.312
		c3.521,0,6.821,1.879,8.612,4.905c-0.002-0.002-0.002-0.004-0.002-0.004c0.002,0,0.043,0.063,0.106,0.146
		c0.178,0.248,0.569,0.761,1.221,1.458c0.88,0.941,2.251,2.228,4.191,3.645c0.055-8.016-3.696-15.664-10.371-17.328
		c-8.537-2.129-20.912,2.508-25.947,17.15c-6.805,20.174-8.268,33.305-5.682,55.52C26.902,158.541,35.759,161.531,44.085,161.968z" fill="#41e1d4" class="color000000 svgShape"></path><polygon points="171.896 217.672 171.896 133.67 187.063 133.67 187.063 123.67 71.99 123.67 71.99 133.67 161.396 133.67 161.396 217.672" fill="#41e1d4" class="color000000 svgShape"></polygon><path d="M.773 217.672h11.174c.805-4.656 1.502-9.324 2.133-14H55v14h11v-38.666h2.334v-11H17.199c1.146-28.777-.975-57.651-6.395-86.062C7.203 82.631 3.602 83.318 0 84.005 8.422 128.152 8.662 173.453.773 217.672zM16.59 179.006H55v18.666H14.84C15.578 191.461 16.16 185.238 16.59 179.006zM114.262 100.123l-7.272-11.535-3.807 2.4 5.782 9.171c.516.006 1.024.018 1.546.019C111.765 100.177 113.02 100.155 114.262 100.123zM162.053 116.881v-4.25h-36.669c-.424 1.606-1.236 3.061-2.338 4.25H162.053z" fill="#41e1d4" class="color000000 svgShape"></path><path d="M60.499 86.769c-.696-.746-1.143-1.321-1.381-1.652-.112-.154-.178-.253-.203-.293-2.219-3.749-7.044-5.04-10.844-2.875-3.84 2.187-5.18 7.072-2.991 10.911h-.002c.528.943 4.505 7.408 14.676 13.531 10.144 6.13 26.315 11.788 50.644 11.788.038 0 .074 0 .111 0 1.778 0 3.601-.03 5.468-.09 4.414-.144 7.878-3.839 7.735-8.256-.144-4.415-3.841-7.878-8.256-7.736-1.699.056-3.349.082-4.947.084-21.97-.017-35.003-4.993-42.494-9.492C64.268 90.428 61.89 88.258 60.499 86.769zM74.148 72.421c12.324 1.555 23.575-7.176 25.132-19.503 1.326-10.508-4.831-20.234-14.314-23.836l-6.259 13.129c3.645 2.817 4.969 7.879 2.906 12.207-2.376 4.985-8.344 7.101-13.33 4.724-4.985-2.376-7.1-8.345-4.724-13.33 2.062-4.328 6.83-6.487 11.312-5.43l5.93-12.441c-.338-.058-.679-.112-1.022-.155-12.325-1.555-23.579 7.176-25.135 19.5C53.091 59.614 61.822 70.868 74.148 72.421z" fill="#41e1d4" class="color000000 svgShape"></path><circle cx="72.586" cy="50.115" r="6.125" transform="rotate(-64.519 72.585 50.117)" fill="#41e1d4" class="color000000 svgShape"></circle><path d="M43.042,18.45c2.17-0.291,3.855-1.56,4.331-3.064l0.03,0.002l2.868-7.316c0.535-1.365,1.708-1.534,2.606-0.374l2.152,2.782
		c0.896,1.16,1.193,3.226,0.658,4.59l-2.231,5.689c-0.255-0.147-0.524-0.286-0.819-0.391c-0.865-0.309-1.883-0.418-2.947-0.275
		c-2.731,0.369-4.727,2.28-4.459,4.267c0.268,1.987,2.697,3.296,5.43,2.927c2.169-0.291,3.855-1.56,4.333-3.063l0.027,0.001
		l4.526-11.541c0.534-1.364,0.211-3.406-0.722-4.539l-0.001-0.001l-6.102-7.404c-0.932-1.131-2.132-0.94-2.668,0.425L45.839,11.92
		c-0.256-0.146-0.525-0.284-0.822-0.389c-0.865-0.309-1.883-0.42-2.947-0.277c-2.731,0.371-4.729,2.28-4.459,4.267
		C37.879,17.507,40.31,18.819,43.042,18.45z" fill="#41e1d4" class="color000000 svgShape"></path></svg>