<svg xmlns="http://www.w3.org/2000/svg" viewBox="0 0 64 64"><g data-name="Artboard 11" fill="#000000" class="color000000 svgShape"><path fill="#bdbebe" d="M14 6V2h48v58H14V6z" class="colorbdbdbe svgShape"></path><path fill="#e5e5e5" d="M12 28v34h46V16L48 6H12v22z" class="colore5e5e5 svgShape"></path><path fill="#f2f2f2" d="M15 6v49a4 4 0 0 0 4 4h39V16L48 6Z" class="colorf2f2f2 svgShape"></path><path fill="#d7d8d8" d="M13.5 29.5h30a2 2 0 0 0 2-2v-14a2 2 0 0 0-2-2H12v18Z" class="colord7d7d8 svgShape"></path><path fill="#9c9e9e" d="M48 6v8a2 2 0 0 0 2 2h8Z" class="color9c9d9e svgShape"></path><path fill="#41e1d4" d="M12 28H2V10h42v18H12" class="color5accf9 svgShape"></path><path fill="#7bfaf0" d="M6 21a4 4 0 0 0 4 4h34V10H6Z" class="color7bd6fa svgShape"></path><path fill="#ffffff" d="M18 25h-2v-8.586l-2.293 2.292a1 1 0 0 1-1.414 0L10 16.414V25H8V14a1 1 0 0 1 1.707-.707L13 16.585l3.293-3.292A1 1 0 0 1 18 14zm4 0h-2V14a1 1 0 0 1 1-1h3a4 4 0 0 1 0 8h-2zm0-6h2a2 2 0 0 0 0-4h-2zm11 6h-3v-2h3c1.626 0 3-.916 3-2s-1.374-2-3-2a1 1 0 0 1-.707-1.707L34.586 15H30v-2h7a1 1 0 0 1 .707 1.707l-2.647 2.648A4.073 4.073 0 0 1 38 21c0 2.206-2.243 4-5 4z" class="colorffffff svgShape"></path><path fill="#bdbebe" d="M31.094 56.213a11 11 0 1 1 5.887-14.844v12.783Z" class="colorbdbdbe svgShape"></path><path fill="#41e1d4" d="M39.98 51v-9l11.013-4v7.021a6.8 6.8 0 0 0-3.917 2.061c-2.1 2.1-2.713 4.881-1.376 6.218s4.122.721 6.218-1.376A6.48 6.48 0 0 0 54 47.565l-.007.435V32L36.98 38v11.021a6.812 6.812 0 0 0-3.9 2.06c-2.1 2.1-2.713 4.881-1.376 6.218s4.122.721 6.218-1.376A6.484 6.484 0 0 0 40 51.576Z" class="color5accf9 svgShape"></path><path fill="#7bfaf0" d="M54 47.565c0 .041-.006.085-.007.126V48Z" class="color7bd6fa svgShape"></path><path fill="#9cfbf3" d="M53.993 47.691V32L39 37.288v.812a1.348 1.348 0 0 0 1.8 1.272l9.243-3.248a1.326 1.326 0 0 1 1.757 1.249v8.066a7.615 7.615 0 0 0-2.381 1.62c-2.1 2.1-2.713 4.881-1.376 6.218a2.275 2.275 0 0 0 .818.516 7.3 7.3 0 0 0 3.052-1.87 6.557 6.557 0 0 0 2.08-4.232Z" class="color9ce0fb svgShape"></path><path fill="#d7d8d8" d="M27 57c.095 0 .188-.011.283-.014V46l-8.872 6.863A10.976 10.976 0 0 0 27 57zm-10.835-9.169a10.932 10.932 0 0 0 1.17 3.424L27.283 46zm14.976-12.019L27.283 46h9.7v-4.631a11.038 11.038 0 0 0-5.842-5.557z" class="colord7d7d8 svgShape"></path><circle cx="27" cy="46" r="3" fill="#f2f2f2" class="colorf2f2f2 svgShape"></circle></g></svg>