<svg xmlns="http://www.w3.org/2000/svg" enable-background="new 0 0 64 64" viewBox="0 0 64 64"><polygon fill="#47847f" points="56 1 56 63 53 60 53 4" class="color844747 svgShape"></polygon><polygon fill="#47847f" points="11 4 11 60 8 63 8 1" class="color844747 svgShape"></polygon><polygon fill="#539691" points="8 1 56 1 53 4 11 4" class="color965353 svgShape"></polygon><polygon fill="#539691" points="11 60 53 60 56 63 8 63" class="color965353 svgShape"></polygon><rect width="9" height="9" x="16" y="46" fill="#41e1d4" class="coloraab2bd svgShape"></rect><rect width="20" height="9" x="28" y="46" fill="#41e1d4" class="coloraab2bd svgShape"></rect><path fill="#657876" d="M53,4v56H11V4H53z M48,55v-9H28v9H48z M48,25c0-8.84-7.16-16-16-16s-16,7.16-16,16s7.16,16,16,16
				S48,33.84,48,25z M25,55v-9h-9v9H25z" class="color656d78 svgShape"></path><path fill="#54fff1" d="M32,9c8.84,0,16,7.16,16,16s-7.16,16-16,16s-16-7.16-16-16S23.16,9,32,9z M37,25c0-2.76-2.24-5-5-5
				s-5,2.24-5,5s2.24,5,5,5S37,27.76,37,25z" class="colorffce54 svgShape"></path><circle cx="32" cy="25" r="5" fill="#42f6e7" class="colorf6bb42 svgShape"></circle><path fill="#ccd9d8" d="M45.003 49.999H31.002c-.553 0-1-.447-1-1s.447-1 1-1h14.001c.553 0 1 .447 1 1S45.556 49.999 45.003 49.999zM45.003 52.999H31.002c-.553 0-1-.447-1-1s.447-1 1-1h14.001c.553 0 1 .447 1 1S45.556 52.999 45.003 52.999z" class="colorccd1d9 svgShape"></path><path fill="#657876" d="M32.03,26.001c-0.553,0-1.005-0.447-1.005-1s0.442-1,0.994-1h0.011c0.552,0,1,0.447,1,1
			S32.582,26.001,32.03,26.001z" class="color656d78 svgShape"></path></svg>