<svg xmlns="http://www.w3.org/2000/svg" viewBox="0 0 60 60"><path fill="#29746e" d="m7 1 1 1v42l-1 1H3a2.006 2.006 0 0 1-2-2V3a2.006 2.006 0 0 1 2-2Z" class="color295474 svgShape"></path><path fill="#34928a" d="M35 3v42H7V1h26a2.006 2.006 0 0 1 2 2Z" class="color346d92 svgShape"></path><circle cx="44" cy="44" r="15" fill="#798f8d" class="color79808f svgShape"></circle><circle cx="44" cy="44" r="3" fill="#ccdad9" class="colorccd0da svgShape"></circle><path fill="#d6e3e2" d="m27.74 23.67-8.61 9.57a.723.723 0 0 1-.22.17 2 2 0 0 0-1.38-1.34.657.657 0 0 1 .12-.17l8.61-9.57a1 1 0 1 1 1.48 1.34Z" class="colord6dbe3 svgShape"></path><path fill="#89a09e" d="M33 45a1 1 0 0 1-1-1 12.013 12.013 0 0 1 12-12 1 1 0 0 1 0 2 10.011 10.011 0 0 0-10 10 1 1 0 0 1-1 1zm11 11a1 1 0 0 1 0-2 10.011 10.011 0 0 0 10-10 1 1 0 0 1 2 0 12.013 12.013 0 0 1-12 12z" class="color8991a0 svgShape"></path><path fill="#89a09e" d="M37 45a1 1 0 0 1-1-1 8.009 8.009 0 0 1 8-8 1 1 0 0 1 0 2 6.006 6.006 0 0 0-6 6 1 1 0 0 1-1 1zm7 7a1 1 0 0 1 0-2 6.006 6.006 0 0 0 6-6 1 1 0 0 1 2 0 8.009 8.009 0 0 1-8 8z" class="color8991a0 svgShape"></path><path fill="#41e1d4" d="M11 17a1 1 0 0 1-1-1v-2a1 1 0 0 1 2 0v2a1 1 0 0 1-1 1zm20 0a1 1 0 0 1-1-1v-2a1 1 0 0 1 2 0v2a1 1 0 0 1-1 1zm-16 2a1 1 0 0 1-1-1v-6a1 1 0 0 1 2 0v6a1 1 0 0 1-1 1zm12-1a1 1 0 0 1-1-1v-4a1 1 0 0 1 2 0v4a1 1 0 0 1-1 1zm-4 2a1 1 0 0 1-1-1v-8a1 1 0 0 1 2 0v8a1 1 0 0 1-1 1zm-4 2a1 1 0 0 1-1-1V9a1 1 0 0 1 2 0v12a1 1 0 0 1-1 1z" class="color37cba1 svgShape"></path><path fill="#f0f5f5" d="M24.47 32.07a2 2 0 0 0-1.38 1.34.723.723 0 0 1-.22-.17l-8.61-9.57a1 1 0 1 1 1.48-1.34l8.61 9.57a.657.657 0 0 1 .12.17Z" class="colorf0f2f5 svgShape"></path><path fill="#41e1d4" d="M25 37a3 3 0 0 1-3-3 2.907 2.907 0 0 1 .116-.817c0-.023.012-.045.018-.067a2.981 2.981 0 0 1 2.073-2.011A2.842 2.842 0 0 1 25 31a3 3 0 0 1 0 6zm-.94-3.339a.7.7 0 0 1-.021.073A.885.885 0 0 0 24 34a1 1 0 1 0 1-1 .912.912 0 0 0-.244.028 1.017 1.017 0 0 0-.696.633zM17 37a3 3 0 0 1 0-6 2.864 2.864 0 0 1 .816.112 2.968 2.968 0 0 1 2.05 2c.007.024.014.047.019.072A2.908 2.908 0 0 1 20 34a3 3 0 0 1-3 3zm0-4a1 1 0 1 0 1 1 .885.885 0 0 0-.039-.266.661.661 0 0 1-.022-.076 1 1 0 0 0-.671-.623A.923.923 0 0 0 17 33z" class="color37cba1 svgShape"></path></svg>