<svg xmlns="http://www.w3.org/2000/svg" xmlns:svgjs="http://svgjs.com/svgjs" xmlns:xlink="http://www.w3.org/1999/xlink" viewBox="0 0 288 288"><circle cx="144" cy="144" r="144" transform="translate(30.01 30.01) scale(.7916)" fill="#000000" class="color000000 svgShape"></circle><svg xmlns="http://www.w3.org/2000/svg" enable-background="new 0 0 64 64" transform="matrix(.58 0 0 .58 57.645 56.606)" viewBox="0 0 64 64"><text fill="#fff" display="none" font-family="Roboto-Bold" font-size="8" transform="translate(38.807 99.818)" svgjs:data="{&quot;leading&quot;:&quot;1.3&quot;}">Qtum</text><text fill="#fff" display="none" font-family="Roboto-Bold" font-size="5.346" transform="translate(29.021 81.747)" svgjs:data="{&quot;leading&quot;:&quot;1.3&quot;}">RChain</text><path fill="#41e1d4" d="M51.1,11.4H9.9c-1.4,0-2.6,1.2-2.6,2.6v31.8h46.3V14C53.6,12.6,52.5,11.4,51.1,11.4z" class="color00dbff svgShape"></path><path fill="#003f3a" d="M3,53.7v2.6c0,1.4,1.2,2.6,2.6,2.6h49.8c1.4,0,2.6-1.2,2.6-2.6v-2.6H3z" class="color00363f svgShape"></path><polygon fill="#00ffea" points="7.4 48.4 3 53.7 58 53.7 53.6 48.4" class="color004fff svgShape"></polygon><path fill="#00ffea" d="M58 11.2L50.8 4v4c0 0-12.5-.6-16.2 13 0 0 4.6-6.9 16.2-6.6v4L58 11.2zM31.2 8.2L24 1v4c0 0-12.5-.6-16.2 13 0 0 4.6-6.9 16.2-6.6v4L31.2 8.2z" class="colorred svgShape colorff0000"></path><path fill="#ffffff" d="M33.8,35.5l-3.3-5.3l-3.3,5.3C29.1,37.1,31.9,37.1,33.8,35.5z" class="colorfff svgShape colorffffff"></path><path fill="#009e91" d="M40.3,45.8l-6.5-10.3c-1.9,1.6-4.7,1.6-6.7,0l-6.5,10.3H40.3z" class="color00269e svgShape"></path><path fill="#ffffff" d="M37,40.7c0,1.4-1.2,2.5-2.8,2.5c-1.5,0-2.8-1.1-2.8-2.5c0-1.4,1.2-2.5,2.8-2.5C35.8,38.2,37,39.3,37,40.7z" class="colorfff svgShape colorffffff"></path><path fill="#009e91" d="M36.2 25.4v12.5c-.6-.3-1.2-.5-1.9-.5-2 0-3.6 1.5-3.6 3.4 0 1.9 1.6 3.4 3.6 3.4 2 0 3.6-1.5 3.6-3.4v-9.5l10.6-2.9v5.4c-.6-.3-1.2-.5-1.9-.5-2 0-3.6 1.5-3.6 3.4 0 1.9 1.6 3.4 3.6 3.4 2 0 3.6-1.5 3.6-3.4v-15L36.2 25.4zM34.2 42.4c-1.1 0-1.9-.7-1.9-1.6 0-.9.9-1.6 1.9-1.6 1.1 0 1.9.7 1.9 1.6C36.2 41.6 35.3 42.4 34.2 42.4zM46.5 38.2c-1.1 0-1.9-.7-1.9-1.6 0-.9.9-1.6 1.9-1.6 1.1 0 1.9.7 1.9 1.6C48.5 37.4 47.6 38.2 46.5 38.2zM37.9 29.4v-2.8l10.6-2.9v2.8L37.9 29.4zM23.3 19.6h-8c-.7 0-1.3-.6-1.3-1.3 0-.7.6-1.3 1.3-1.3h8c.7 0 1.3.6 1.3 1.3C24.5 19 24 19.6 23.3 19.6zM31 25.6h-8c-.7 0-1.3-.6-1.3-1.3 0-.7.6-1.3 1.3-1.3h8c.7 0 1.3.6 1.3 1.3C32.3 25 31.7 25.6 31 25.6z" class="color00269e svgShape"></path><path fill="#ffffff" d="M19.8,31.4l-3.3-5.2l-3.3,5.2C15.1,32.9,17.8,32.9,19.8,31.4z" class="colorfff svgShape colorffffff"></path><path fill="#009e91" d="M19.8,31.4c-1.9,1.5-4.6,1.5-6.6,0l-5.8,9.2v5.2h13.3l4.1-6.5L19.8,31.4z" class="color00269e svgShape"></path></svg></svg>