<svg xmlns="http://www.w3.org/2000/svg" viewBox="0 0 64 64"><g data-name="Artboard 02" fill="#000000" class="color000000 svgShape"><path fill="#bdbebe" d="M14 6V2h48v58H14V6z" class="colorbdbdbe svgShape"></path><path fill="#e5e5e5" d="M12 28v34h46V16L48 6H12v22z" class="colore5e5e5 svgShape"></path><path fill="#f2f2f2" d="M15 6v49a4 4 0 0 0 4 4h39V16L48 6Z" class="colorf2f2f2 svgShape"></path><path fill="#9c9e9e" d="M48 6v8a2 2 0 0 0 2 2h8Z" class="color9c9d9e svgShape"></path><path fill="#d7d8d8" d="M13.5 29.5h30a2 2 0 0 0 2-2v-14a2 2 0 0 0-2-2H12v18Z" class="colord7d7d8 svgShape"></path><path fill="#b2eae5" d="M15 32h40v27H15z" class="colorb2ccea svgShape"></path><path fill="#d1f2ef" d="M55 34H19.5a2 2 0 0 0-2 2v18.5a2 2 0 0 0 2 2H55Z" class="colord1e0f2 svgShape"></path><path fill="#28958c" d="M12 28H2V10h42v18H12" class="color953528 svgShape"></path><rect width="18" height="13" x="33" y="37" fill="#b2eae5" rx="1" class="colorb2ccea svgShape"></rect><rect width="13" height="2" x="17" y="37" fill="#b2eae5" rx="1" class="colorb2ccea svgShape"></rect><rect width="13" height="2" x="17" y="41" fill="#b2eae5" rx="1" class="colorb2ccea svgShape"></rect><rect width="13" height="2" x="17" y="45" fill="#b2eae5" rx="1" class="colorb2ccea svgShape"></rect><rect width="13" height="2" x="17" y="49" fill="#b2eae5" rx="1" class="colorb2ccea svgShape"></rect><rect width="34" height="2" x="17" y="53" fill="#b2eae5" rx="1" class="colorb2ccea svgShape"></rect><path fill="#35c6ba" d="M6 21a4 4 0 0 0 4 4h34V10H6Z" class="colorc64635 svgShape"></path><path fill="#41e1d4" d="M34 36h18v13H34z" class="color8ad9ff svgShape"></path><path fill="#00c5b5" d="m52 43-5-3-4 3-4-4-5 5v2h18v-3z" class="color00c564 svgShape"></path><path fill="#00a99b" d="m51.157 44.494-3.351-2.01a1.4 1.4 0 0 0-1.558.08L43.93 44.3a1.34 1.34 0 0 1-1.752-.125l-2.227-2.227a1.345 1.345 0 0 0-1.9 0L34 46v2h18v-2.017a1.737 1.737 0 0 0-.843-1.489Z" class="color00a963 svgShape"></path><path fill="#ffffff" d="M18 36h13v2H18zM18 40h13v2H18zM18 44h13v2H18zM18 48h13v2H18zM18 52h34v2H18zM13 13h-3a1 1 0 0 0-1 1v11h2v-4h2a4 4 0 0 0 0-8zm0 6h-2v-4h2a2 2 0 0 1 0 4zm24-4v-2h-7a1 1 0 0 0-1 1v11h2v-6h5v-2h-5v-2zm-15-2h-2a1 1 0 0 0-1 1v10a1 1 0 0 0 1 1h2a5.006 5.006 0 0 0 5-5v-2a5.006 5.006 0 0 0-5-5zm3 7a3 3 0 0 1-3 3h-1v-8h1a3 3 0 0 1 3 3z" class="colorffffff svgShape"></path><path fill="#009488" d="M34 46h18v3H34z" class="color009447 svgShape"></path><path fill="#a1fff7" d="M36 36.543A1.457 1.457 0 0 0 37.457 38H52v-2H36Z" class="colora1e1ff svgShape"></path></g></svg>