<svg xmlns="http://www.w3.org/2000/svg" viewBox="0 0 8.467 8.467"><g transform="translate(380.47 -684.573) scale(.26458)" fill="#000000" class="color000000 svgShape"><path fill="#41e1d4" d="m -1407.5001,2592.8623 h -29 v 21 h 29 z" class="colora7b4c3 svgShape"></path><path fill="none" stroke="#589792" stroke-linecap="round" stroke-linejoin="round" d="M-1411.5001 2603.8623v.5M-1415.5001 2603.8623v.5M-1419.5001 2603.8623v.5" class="colorStroke586597 svgStroke"></path><path fill="none" stroke="#589792" d="m -1419.5001,2604.3623 v 1.4999" class="colorStroke586597 svgStroke"></path><path fill="none" stroke="#589792" stroke-linecap="round" stroke-linejoin="round" d="m -1424.5001,2603.8623 v 0.5" class="colorStroke586597 svgStroke"></path><path fill="none" stroke="#589792" d="m -1424.5001,2604.3623 v 1.4999" class="colorStroke586597 svgStroke"></path><path fill="none" stroke="#589792" stroke-linecap="round" stroke-linejoin="round" d="m -1428.5001,2603.8623 v 0.5" class="colorStroke586597 svgStroke"></path><path fill="none" stroke="#589792" d="m -1428.5001,2604.3623 v 1.4999" class="colorStroke586597 svgStroke"></path><path fill="none" stroke="#589792" stroke-linecap="round" stroke-linejoin="round" d="m -1432.5001,2603.8623 v 0.5" class="colorStroke586597 svgStroke"></path><path fill="none" stroke="#589792" d="m -1432.5001,2604.3623 v 1.4999" class="colorStroke586597 svgStroke"></path><path fill="none" stroke="#589792" stroke-linecap="round" stroke-linejoin="round" d="m -1424.5001,2603.8623 v 0.5" class="colorStroke586597 svgStroke"></path><path fill="none" stroke="#589792" d="M-1424.5001 2604.3623v1.4999M-1428.5001 2609.3623v1" class="colorStroke586597 svgStroke"></path><path fill="none" stroke="#589792" stroke-linecap="round" stroke-linejoin="round" d="M-1411.5001 2611.3623v.5M-1415.5001 2610.3623v1.5" class="colorStroke586597 svgStroke"></path><path fill="none" stroke="#589792" d="M-1419.5001 2607.3623v4M-1424.5001 2607.3623v4" class="colorStroke586597 svgStroke"></path><path fill="#8dfff6" d="m -1426.5001,2596.8624 h -7 v 2 h 7 z" class="colorffad8d svgShape"></path><path fill="none" stroke="#589792" stroke-linejoin="round" d="m -1407.5001,2592.8623 h -29 v 21 h 29 z" class="colorStroke586597 svgStroke"></path><path fill="none" stroke="#589792" d="M-1418.0001 2605.8623h-3M-1414.0001 2607.8623h-3M-1410.0001 2608.8622h-3M-1434.0001 2608.8622h3M-1426.0001 2605.8623h3M-1430.0001 2607.8623h3" class="colorStroke586597 svgStroke"></path><rect width="7" height="2" x="1426.5" y="2596.862" fill="none" stroke="#589792" stroke-linecap="round" stroke-linejoin="round" transform="scale(-1 1)" class="colorStroke586597 svgStroke"></rect><path fill="#589792" d="M-1413.0001 2594.3623h-1v1h1zM-1415.0001 2594.3623h-1v1h1zM-1417.0001 2594.3623h-1v1h1zM-1413.0001 2596.3623h-1v1h1zM-1415.0001 2596.3623h-1v1h1zM-1417.0001 2596.3623h-1v1h1zM-1411.0001 2598.3623h-1v1h1zM-1413.0001 2598.3623h-1v1h1zM-1417.0001 2598.3623h-1v1h1zM-1411.0001 2600.3623h-1v1h1zM-1413.0001 2600.3623h-1v1h1zM-1415.0001 2600.3623h-1v1h1zM-1417.0001 2600.3623h-1v1h1zM-1419.0001 2594.3623h-1v1h1zM-1419.0001 2596.3623h-1v1h1zM-1419.0001 2598.3623h-1v1h1zM-1419.0001 2600.3623h-1v1h1zM-1422.5001 2596.3623c-.277 0-.5.223-.5.5 0 .277.223.5.5.5.277 0 .5-.223.5-.5 0-.277-.223-.5-.5-.5zM-1422.5001 2598.3623c-.277 0-.5.223-.5.5 0 .277.223.5.5.5.277 0 .5-.223.5-.5 0-.277-.223-.5-.5-.5zM-1424.5001 2596.3623c-.277 0-.5.223-.5.5 0 .277.223.5.5.5.277 0 .5-.223.5-.5 0-.277-.223-.5-.5-.5zM-1424.5001 2598.3623c-.277 0-.5.223-.5.5 0 .277.223.5.5.5.277 0 .5-.223.5-.5 0-.277-.223-.5-.5-.5zM-1427.0001 2600.3623c-.277 0-.5.223-.5.5 0 .277.223.5.5.5.277 0 .5-.223.5-.5 0-.277-.223-.5-.5-.5zM-1429.0001 2600.3623c-.277 0-.5.223-.5.5 0 .277.223.5.5.5.277 0 .5-.223.5-.5 0-.277-.223-.5-.5-.5zM-1431.0001 2600.3623c-.277 0-.5.223-.5.5 0 .277.223.5.5.5.277 0 .5-.223.5-.5 0-.277-.223-.5-.5-.5zM-1433.0001 2600.3623c-.277 0-.5.223-.5.5 0 .277.223.5.5.5.277 0 .5-.223.5-.5 0-.277-.223-.5-.5-.5z" class="color586597 svgShape"></path><path fill="none" stroke="#589792" d="M-1411.5001 2610.3623v1M-1415.5001 2609.1123v2.25M-1415.5001 2604.3623v3.5002M-1411.5001 2604.3623v4.5M-1428.5001 2604.3623v3.5002M-1432.5001 2604.3623v4.5" class="colorStroke586597 svgStroke"></path><path fill="none" stroke="#589792" stroke-linecap="round" stroke-linejoin="round" d="M-1419.5001 2610.3623v1.5M-1424.5001 2610.3623v1.5M-1428.5001 2610.3623v1.5" class="colorStroke586597 svgStroke"></path><path fill="none" stroke="#589792" d="m -1432.5001,2610.3623 v 1" class="colorStroke586597 svgStroke"></path><path fill="none" stroke="#589792" stroke-linecap="round" stroke-linejoin="round" d="m -1432.5001,2611.3623 v 0.5" class="colorStroke586597 svgStroke"></path></g></svg>