<svg xmlns="http://www.w3.org/2000/svg" viewBox="0 0 64 64"><g data-name="13-turntable" fill="#000000" class="color000000 svgShape"><path fill="#50f7e9" d="M53 1H11a4 4 0 0 0-4 4v54a4 4 0 0 0 4 4h42a4 4 0 0 0 4-4V5a4 4 0 0 0-4-4ZM38 5a2 2 0 1 1-2 2 2.006 2.006 0 0 1 2-2Zm-8 0a2 2 0 1 1-2 2 2.006 2.006 0 0 1 2-2Zm-8 0a2 2 0 1 1-2 2 2.006 2.006 0 0 1 2-2ZM12 7a2 2 0 1 1 2 2 2.006 2.006 0 0 1-2-2Zm6 53h-4v-4h4Zm0-7h-4v-4h4Zm-2-7a2 2 0 1 1 2-2 2.006 2.006 0 0 1-2 2Zm10 14h-4v-4h4Zm0-7h-4v-4h4Zm8 7h-4v-4h4Zm0-7h-4v-4h4Zm8 7h-4v-4h4Zm0-7h-4v-4h4Zm-10-7a17 17 0 1 1 12.02-4.98A17 17 0 0 1 32 46Zm18 14h-4v-4h4Zm0-7h-4v-4h4Zm-2-7a2.006 2.006 0 0 1-2-2 2.01 2.01 0 0 1 2-2 2 2 0 0 1 0 4Zm0-34a4 4 0 1 1 4-4 4 4 0 0 1-4 4Z" class="color5064f7 svgShape"></path><path fill="#48dbcf" d="M12 7a2 2 0 1 1 2 2h8a2 2 0 1 1 2-2 2.006 2.006 0 0 1-2 2h8a2 2 0 1 1 2-2 2.006 2.006 0 0 1-2 2h8a2 2 0 1 1 2-2 2.006 2.006 0 0 1-2 2h6.141a4 4 0 1 1 7.718 0H57V5a4 4 0 0 0-4-4H11a4 4 0 0 0-4 4v4h7a2.006 2.006 0 0 1-2-2Z" class="color7c48db svgShape"></path><path fill="#4bf0e3" d="M53 1H11a4 4 0 0 0-4 4v2a4 4 0 0 1 4-4h42a4 4 0 0 1 4 4V5a4 4 0 0 0-4-4Z" class="colorf04b59 svgShape"></path><path fill="#3da69d" d="M7 59a4 4 0 0 0 4 4h42a4 4 0 0 0 4-4v-3H7Zm39-3h4v4h-4Zm-8 0h4v4h-4Zm-8 0h4v4h-4Zm-8 0h4v4h-4Zm-8 0h4v4h-4Z" class="color4a3da6 svgShape"></path><circle cx="16" cy="44" r="2" fill="#4bf0e3" class="colorf04b59 svgShape"></circle><path fill="#4bf0e3" d="M48 42a2 2 0 1 1-2 2 2.01 2.01 0 0 1 2-2Z" class="colorf04b59 svgShape"></path><path fill="#00f6e2" d="M46 56h4v4h-4zM14 56h4v4h-4z" class="color00e3f6 svgShape"></path><path fill="#4bf0e3" d="M38 56h4v4h-4zM34 49v4h-4v-4h4zM50 49v4h-4v-4h4z" class="colorf04b59 svgShape"></path><path fill="#4efff1" d="M30 56h4v4h-4zM22 49h4v4h-4z" class="colorff9c4e svgShape"></path><path fill="#48dbcf" d="M38 49h4v4h-4zM22 56h4v4h-4zM14 49h4v4h-4z" class="color7c48db svgShape"></path><circle cx="32" cy="29" r="3" fill="#48d9cd" class="color7c48d9 svgShape"></circle><circle cx="48" cy="8" r="4" fill="#4bf0e3" class="colorf04b59 svgShape"></circle><path fill="#1c7a72" d="M32 12a17 17 0 1 1-17 17 17 17 0 0 1 17-17Zm14 17a14 14 0 1 0-14 14 14 14 0 0 0 14-14Z" class="color341c7a svgShape"></path><path fill="#113f3b" d="M44.02 38.02A16.991 16.991 0 0 1 15.076 27.5c-.044.5-.076.994-.076 1.5a17 17 0 0 0 34 0c0-.506-.032-1-.076-1.5a16.917 16.917 0 0 1-4.904 10.52Z" class="color28113f svgShape"></path><path fill="#1c7a72" d="M32 15a14 14 0 1 1-14 14 14 14 0 0 1 14-14Zm6 14a6 6 0 1 0-6 6 6 6 0 0 0 6-6Z" class="color341c7a svgShape"></path><circle cx="38" cy="7" r="2" fill="#1c7a72" class="color341c7a svgShape"></circle><path fill="#2cbfb3" d="M32 23a6 6 0 1 1-6 6 6 6 0 0 1 6-6Zm3 6a3 3 0 1 0-3 3 3 3 0 0 0 3-3Z" class="colorbf2c62 svgShape"></path><circle cx="30" cy="7" r="2" fill="#1c7a72" class="color341c7a svgShape"></circle><circle cx="22" cy="7" r="2" fill="#1c7a72" class="color341c7a svgShape"></circle><circle cx="14" cy="7" r="2" fill="#1c7a72" class="color341c7a svgShape"></circle><path fill="#48dbcf" d="M26 29a5.961 5.961 0 0 1 .8-2.974l-6.942-3.967a13.926 13.926 0 0 0 0 13.882l6.942-3.967A5.961 5.961 0 0 1 26 29zm18.147-6.941-6.942 3.967a5.96 5.96 0 0 1 0 5.948l6.942 3.967a13.926 13.926 0 0 0 0-13.882z" class="color7c48db svgShape"></path><path fill="#4bf0e3" d="M35 29a2.972 2.972 0 0 1-.405 1.483l2.61 1.491a5.96 5.96 0 0 0 0-5.948L34.6 27.517A2.972 2.972 0 0 1 35 29zm-6 0a2.972 2.972 0 0 1 .405-1.483L26.8 26.026a5.96 5.96 0 0 0 0 5.948l2.61-1.491A2.972 2.972 0 0 1 29 29z" class="colorf04b59 svgShape"></path><circle cx="48" cy="8" r="3" fill="#9ffff7" class="colora29fff svgShape"></circle><path fill="#cffffb" d="M50.5 6.337a3 3 0 0 0-4.99 0L48 8zm-4.995 3.326a3 3 0 0 0 4.99 0L48 8z" class="colorcfdcff svgShape"></path><path fill="#3da69d" d="M32 30a2.986 2.986 0 0 1-2.817-2 3 3 0 1 0 5.634 0A2.986 2.986 0 0 1 32 30Z" class="color4a3da6 svgShape"></path><path fill="#146962" d="M38 8a2 2 0 0 1-1.929-1.5A1.966 1.966 0 0 0 36 7a2 2 0 0 0 4 0 1.966 1.966 0 0 0-.071-.5A2 2 0 0 1 38 8zm-8 0a2 2 0 0 1-1.929-1.5A1.966 1.966 0 0 0 28 7a2 2 0 0 0 4 0 1.966 1.966 0 0 0-.071-.5A2 2 0 0 1 30 8zm-8 0a2 2 0 0 1-1.929-1.5A1.966 1.966 0 0 0 20 7a2 2 0 0 0 4 0 1.966 1.966 0 0 0-.071-.5A2 2 0 0 1 22 8zm-8 0a2 2 0 0 1-1.929-1.5A1.966 1.966 0 0 0 12 7a2 2 0 0 0 4 0 1.966 1.966 0 0 0-.071-.5A2 2 0 0 1 14 8z" class="color291469 svgShape"></path><path fill="#2fc7bb" d="M46 52h4v1h-4zM30 52h4v1h-4zM38 59h4v1h-4z" class="colorc72f46 svgShape"></path><path fill="#4bf0e3" d="M30 59h4v1h-4zM22 52h4v1h-4z" class="colorf04b59 svgShape"></path><path fill="#1c7a72" d="M38 52h4v1h-4zM14 52h4v1h-4zM22 59h4v1h-4z" class="color341c7a svgShape"></path><path fill="#41e1d4" d="M46 59h4v1h-4zM14 59h4v1h-4z" class="color00c3d4 svgShape"></path><path fill="#113f3b" d="M53 1H11a4 4 0 0 0-4 4v54a4 4 0 0 0 4 4h42a4 4 0 0 0 4-4V5a4 4 0 0 0-4-4Zm3 58a3 3 0 0 1-3 3H11a3 3 0 0 1-3-3V5a3 3 0 0 1 3-3h42a3 3 0 0 1 3 3Z" class="color28113f svgShape"></path><path fill="#b5f2ed" d="M32 11a18 18 0 1 0 18 18 18 18 0 0 0-18-18Zm12.02 30.02A17 17 0 1 1 49 29a16.927 16.927 0 0 1-4.98 12.02Z" class="colorb5c6f2 svgShape"></path><path fill="#4bf0e3" d="M32 42a13 13 0 1 1 13-13 13 13 0 0 1-13 13Zm0-27a14 14 0 1 0 14 14 14 14 0 0 0-14-14Z" class="colorf04b59 svgShape"></path><path fill="#113f3b" d="M32 22a7 7 0 1 0 7 7 7 7 0 0 0-7-7Zm0 13a6 6 0 1 1 6-6 6 6 0 0 1-6 6Z" class="color28113f svgShape"></path><path fill="#113f3b" d="M32 25a4 4 0 1 0 4 4 4 4 0 0 0-4-4zm0 7a3 3 0 1 1 3-3 3 3 0 0 1-3 3zM48 3a5 5 0 1 0 5 5 5 5 0 0 0-5-5zm0 9a4 4 0 1 1 4-4 4 4 0 0 1-4 4zM38 4a3 3 0 1 0 3 3 3 3 0 0 0-3-3zm0 5a2 2 0 1 1 2-2 2.006 2.006 0 0 1-2 2zm-8-5a3 3 0 1 0 3 3 3 3 0 0 0-3-3zm0 5a2 2 0 1 1 2-2 2.006 2.006 0 0 1-2 2zm-8-5a3 3 0 1 0 3 3 3 3 0 0 0-3-3zm0 5a2 2 0 1 1 2-2 2.006 2.006 0 0 1-2 2zm-8-5a3 3 0 1 0 3 3 3 3 0 0 0-3-3zm0 5a2 2 0 1 1 2-2 2.006 2.006 0 0 1-2 2z" class="color28113f svgShape"></path><path fill="#4bf0e3" d="M38 7.5a.5.5 0 0 0 .5-.5V5.072a1.772 1.772 0 0 0-1 0V7a.5.5 0 0 0 .5.5zm-8 0a.5.5 0 0 0 .5-.5V5.072a1.772 1.772 0 0 0-1 0V7a.5.5 0 0 0 .5.5zm-8 0a.5.5 0 0 0 .5-.5V5.072a1.772 1.772 0 0 0-1 0V7a.5.5 0 0 0 .5.5zm-8 0a.5.5 0 0 0 .5-.5V5.072a1.772 1.772 0 0 0-1 0V7a.5.5 0 0 0 .5.5z" class="colorf04b59 svgShape"></path><path fill="#113f3b" d="M48 41a3 3 0 1 0 3 3 3 3 0 0 0-3-3Zm0 5a2 2 0 1 1 2-2 2.006 2.006 0 0 1-2 2Z" class="color28113f svgShape"></path><path fill="#2fc7bb" d="M48 45a2 2 0 0 1-1.929-1.5A1.966 1.966 0 0 0 46 44a2 2 0 0 0 4 0 1.966 1.966 0 0 0-.071-.5A2 2 0 0 1 48 45Z" class="colorc72f46 svgShape"></path><path fill="#113f3b" d="M48 44.5a.5.5 0 0 0 .5-.5v-1.928a1.772 1.772 0 0 0-1 0V44a.5.5 0 0 0 .5.5zM16 41a3 3 0 1 0 3 3 3 3 0 0 0-3-3zm0 5a2 2 0 1 1 2-2 2.006 2.006 0 0 1-2 2z" class="color28113f svgShape"></path><path fill="#2fc7bb" d="M16 45a2 2 0 0 1-1.929-1.5A1.966 1.966 0 0 0 14 44a2 2 0 0 0 4 0 1.966 1.966 0 0 0-.071-.5A2 2 0 0 1 16 45Z" class="colorc72f46 svgShape"></path><path fill="#113f3b" d="M16 44.5a.5.5 0 0 0 .5-.5v-1.928a1.772 1.772 0 0 0-1 0V44a.5.5 0 0 0 .5.5zm34 4h-4a.5.5 0 0 0-.5.5v4a.5.5 0 0 0 .5.5h4a.5.5 0 0 0 .5-.5v-4a.5.5 0 0 0-.5-.5zm0 4.5h-4v-4h4zm0 2.5h-4a.5.5 0 0 0-.5.5v4a.5.5 0 0 0 .5.5h4a.5.5 0 0 0 .5-.5v-4a.5.5 0 0 0-.5-.5zm0 4.5h-4v-4h4zm-8-11.5h-4a.5.5 0 0 0-.5.5v4a.5.5 0 0 0 .5.5h4a.5.5 0 0 0 .5-.5v-4a.5.5 0 0 0-.5-.5zm0 4.5h-4v-4h4zm0 2.5h-4a.5.5 0 0 0-.5.5v4a.5.5 0 0 0 .5.5h4a.5.5 0 0 0 .5-.5v-4a.5.5 0 0 0-.5-.5zm0 4.5h-4v-4h4zm-8-11.5h-4a.5.5 0 0 0-.5.5v4a.5.5 0 0 0 .5.5h4a.5.5 0 0 0 .5-.5v-4a.5.5 0 0 0-.5-.5zm0 4.5h-4v-4h4zm0 2.5h-4a.5.5 0 0 0-.5.5v4a.5.5 0 0 0 .5.5h4a.5.5 0 0 0 .5-.5v-4a.5.5 0 0 0-.5-.5zm0 4.5h-4v-4h4zm-8-11.5h-4a.5.5 0 0 0-.5.5v4a.5.5 0 0 0 .5.5h4a.5.5 0 0 0 .5-.5v-4a.5.5 0 0 0-.5-.5zm0 4.5h-4v-4h4zm0 2.5h-4a.5.5 0 0 0-.5.5v4a.5.5 0 0 0 .5.5h4a.5.5 0 0 0 .5-.5v-4a.5.5 0 0 0-.5-.5zm0 4.5h-4v-4h4zm-8-11.5h-4a.5.5 0 0 0-.5.5v4a.5.5 0 0 0 .5.5h4a.5.5 0 0 0 .5-.5v-4a.5.5 0 0 0-.5-.5zm0 4.5h-4v-4h4zm0 2.5h-4a.5.5 0 0 0-.5.5v4a.5.5 0 0 0 .5.5h4a.5.5 0 0 0 .5-.5v-4a.5.5 0 0 0-.5-.5zm0 4.5h-4v-4h4z" class="color28113f svgShape"></path><rect width="1" height="4" x="52" y="24.5" fill="#4bf0e3" rx=".5" ry=".5" transform="rotate(-90 52.5 26.5)" class="colorf04b59 svgShape"></rect><rect width="1" height="4" x="52" y="22.5" fill="#4bf0e3" rx=".5" ry=".5" transform="rotate(-90 52.5 24.5)" class="colorf04b59 svgShape"></rect><rect width="1" height="4" x="52" y="20.5" fill="#4bf0e3" rx=".5" ry=".5" transform="rotate(-90 52.5 22.5)" class="colorf04b59 svgShape"></rect><rect width="1" height="4" x="52" y="18.5" fill="#4bf0e3" rx=".5" ry=".5" transform="rotate(-90 52.5 20.5)" class="colorf04b59 svgShape"></rect><rect width="1" height="4" x="52" y="16.5" fill="#4bf0e3" rx=".5" ry=".5" transform="rotate(-90 52.5 18.5)" class="colorf04b59 svgShape"></rect><rect width="1" height="4" x="52" y="14.5" fill="#4bf0e3" rx=".5" ry=".5" transform="rotate(-90 52.5 16.5)" class="colorf04b59 svgShape"></rect><path fill="#31bbb0" d="M54.5 26.5a.5.5 0 0 1-.5.5h1a.5.5 0 0 0 0-1h-1a.5.5 0 0 1 .5.5zm0-2a.5.5 0 0 1-.5.5h1a.5.5 0 0 0 0-1h-1a.5.5 0 0 1 .5.5zm0-2a.5.5 0 0 1-.5.5h1a.5.5 0 0 0 0-1h-1a.5.5 0 0 1 .5.5zm0-2a.5.5 0 0 1-.5.5h1a.5.5 0 0 0 0-1h-1a.5.5 0 0 1 .5.5zm0-2a.5.5 0 0 1-.5.5h1a.5.5 0 0 0 0-1h-1a.5.5 0 0 1 .5.5zm0-2a.5.5 0 0 1-.5.5h1a.5.5 0 0 0 0-1h-1a.5.5 0 0 1 .5.5z" class="colorbb3164 svgShape"></path><rect width="1" height="4" x="52" y="36.5" fill="#4bf0e3" rx=".5" ry=".5" transform="rotate(-90 52.5 38.5)" class="colorf04b59 svgShape"></rect><rect width="1" height="4" x="52" y="34.5" fill="#4bf0e3" rx=".5" ry=".5" transform="rotate(-90 52.5 36.5)" class="colorf04b59 svgShape"></rect><rect width="1" height="4" x="52" y="32.5" fill="#4bf0e3" rx=".5" ry=".5" transform="rotate(-90 52.5 34.5)" class="colorf04b59 svgShape"></rect><rect width="1" height="4" x="52" y="30.5" fill="#4bf0e3" rx=".5" ry=".5" transform="rotate(-90 52.5 32.5)" class="colorf04b59 svgShape"></rect><rect width="1" height="4" x="52" y="28.5" fill="#4bf0e3" rx=".5" ry=".5" transform="rotate(-90 52.5 30.5)" class="colorf04b59 svgShape"></rect><rect width="1" height="4" x="52" y="26.5" fill="#4bf0e3" rx=".5" ry=".5" transform="rotate(-90 52.5 28.5)" class="colorf04b59 svgShape"></rect><path fill="#31bbb0" d="M54.5 38.5a.5.5 0 0 1-.5.5h1a.5.5 0 0 0 0-1h-1a.5.5 0 0 1 .5.5zm0-2a.5.5 0 0 1-.5.5h1a.5.5 0 0 0 0-1h-1a.5.5 0 0 1 .5.5zm0-2a.5.5 0 0 1-.5.5h1a.5.5 0 0 0 0-1h-1a.5.5 0 0 1 .5.5zm0-2a.5.5 0 0 1-.5.5h1a.5.5 0 0 0 0-1h-1a.5.5 0 0 1 .5.5zm0-2a.5.5 0 0 1-.5.5h1a.5.5 0 0 0 0-1h-1a.5.5 0 0 1 .5.5zm0-2a.5.5 0 0 1-.5.5h1a.5.5 0 0 0 0-1h-1a.5.5 0 0 1 .5.5z" class="colorbb3164 svgShape"></path><rect width="1" height="4" x="11" y="24.5" fill="#4bf0e3" rx=".5" ry=".5" transform="rotate(-90 11.5 26.5)" class="colorf04b59 svgShape"></rect><rect width="1" height="4" x="11" y="22.5" fill="#4bf0e3" rx=".5" ry=".5" transform="rotate(-90 11.5 24.5)" class="colorf04b59 svgShape"></rect><rect width="1" height="4" x="11" y="20.5" fill="#4bf0e3" rx=".5" ry=".5" transform="rotate(-90 11.5 22.5)" class="colorf04b59 svgShape"></rect><rect width="1" height="4" x="11" y="18.5" fill="#4bf0e3" rx=".5" ry=".5" transform="rotate(-90 11.5 20.5)" class="colorf04b59 svgShape"></rect><rect width="1" height="4" x="11" y="16.5" fill="#4bf0e3" rx=".5" ry=".5" transform="rotate(-90 11.5 18.5)" class="colorf04b59 svgShape"></rect><rect width="1" height="4" x="11" y="14.5" fill="#4bf0e3" rx=".5" ry=".5" transform="rotate(-90 11.5 16.5)" class="colorf04b59 svgShape"></rect><path fill="#31bbb0" d="M9.5 26.5a.5.5 0 0 0 .5.5H9a.5.5 0 0 1 0-1h1a.5.5 0 0 0-.5.5zm0-2a.5.5 0 0 0 .5.5H9a.5.5 0 0 1 0-1h1a.5.5 0 0 0-.5.5zm0-2a.5.5 0 0 0 .5.5H9a.5.5 0 0 1 0-1h1a.5.5 0 0 0-.5.5zm0-2a.5.5 0 0 0 .5.5H9a.5.5 0 0 1 0-1h1a.5.5 0 0 0-.5.5zm0-2a.5.5 0 0 0 .5.5H9a.5.5 0 0 1 0-1h1a.5.5 0 0 0-.5.5zm0-2a.5.5 0 0 0 .5.5H9a.5.5 0 0 1 0-1h1a.5.5 0 0 0-.5.5z" class="colorbb3164 svgShape"></path><rect width="1" height="4" x="11" y="36.5" fill="#4bf0e3" rx=".5" ry=".5" transform="rotate(-90 11.5 38.5)" class="colorf04b59 svgShape"></rect><rect width="1" height="4" x="11" y="34.5" fill="#4bf0e3" rx=".5" ry=".5" transform="rotate(-90 11.5 36.5)" class="colorf04b59 svgShape"></rect><rect width="1" height="4" x="11" y="32.5" fill="#4bf0e3" rx=".5" ry=".5" transform="rotate(-90 11.5 34.5)" class="colorf04b59 svgShape"></rect><rect width="1" height="4" x="11" y="30.5" fill="#4bf0e3" rx=".5" ry=".5" transform="rotate(-90 11.5 32.5)" class="colorf04b59 svgShape"></rect><rect width="1" height="4" x="11" y="28.5" fill="#4bf0e3" rx=".5" ry=".5" transform="rotate(-90 11.5 30.5)" class="colorf04b59 svgShape"></rect><rect width="1" height="4" x="11" y="26.5" fill="#4bf0e3" rx=".5" ry=".5" transform="rotate(-90 11.5 28.5)" class="colorf04b59 svgShape"></rect><path fill="#31bbb0" d="M9.5 38.5a.5.5 0 0 0 .5.5H9a.5.5 0 0 1 0-1h1a.5.5 0 0 0-.5.5zm0-2a.5.5 0 0 0 .5.5H9a.5.5 0 0 1 0-1h1a.5.5 0 0 0-.5.5zm0-2a.5.5 0 0 0 .5.5H9a.5.5 0 0 1 0-1h1a.5.5 0 0 0-.5.5zm0-2a.5.5 0 0 0 .5.5H9a.5.5 0 0 1 0-1h1a.5.5 0 0 0-.5.5zm0-2a.5.5 0 0 0 .5.5H9a.5.5 0 0 1 0-1h1a.5.5 0 0 0-.5.5zm0-2a.5.5 0 0 0 .5.5H9a.5.5 0 0 1 0-1h1a.5.5 0 0 0-.5.5z" class="colorbb3164 svgShape"></path></g></svg>