<svg xmlns="http://www.w3.org/2000/svg" viewBox="0 0 256 256"><path fill="#47f7e9" d="M218 248H38c-16.569 0-30-13.431-30-30V38C8 21.431 21.431 8 38 8h180c16.569 0 30 13.431 30 30v180c0 16.569-13.431 30-30 30z" class="color478cf7 svgShape"></path><path fill="#41e1d4" d="M14 135.523a2 2 0 0 1-2-2v-73a2 2 0 0 1 4 0v73a2 2 0 0 1-2 2zm0-81a2 2 0 0 1-2-2v-.253a2 2 0 0 1 4 0v.254a2 2 0 0 1-2 1.999z" class="color5e9cf7 svgShape"></path><path fill="#37e2d4" d="M233.617 12.383A29.85 29.85 0 0 1 238 28v180c0 16.569-13.431 30-30 30H28a29.85 29.85 0 0 1-15.617-4.383C17.652 242.242 27.153 248 38 248h180c16.569 0 30-13.431 30-30V38c0-10.847-5.758-20.348-14.383-25.617z" class="color377de2 svgShape"></path><path fill="#22d3c5" d="M236.56 14.44A29.86 29.86 0 0 1 243 33v180c0 16.569-13.431 30-30 30H33a29.86 29.86 0 0 1-18.56-6.44C19.934 243.524 28.441 248 38 248h180c16.569 0 30-13.431 30-30V38c0-9.559-4.476-18.066-11.44-23.56z" class="color2266d3 svgShape"></path><path fill="#22d3c5" d="M108 57c-46.944 0-85 38.056-85 85s38.056 85 85 85 85-38.056 85-85-38.056-85-85-85z" class="color2266d3 svgShape"></path><path fill="#404242" d="M108 65.265c-42.38 0-76.735 34.355-76.735 76.735S65.62 218.735 108 218.735 184.735 184.38 184.735 142 150.38 65.265 108 65.265z" class="color414042 svgShape"></path><path fill="#585b5b" d="m108 142 20.175-74.036a76.721 76.721 0 0 0-41.011.188L108 142z" class="color58595b svgShape"></path><circle cx="108" cy="142" r="30.305" fill="#939898" transform="rotate(-45.001 107.999 142.002)" class="color939598 svgShape"></circle><circle cx="108" cy="142" r="24.582" fill="#1dffed" transform="rotate(-45.001 107.999 142.002)" class="colorffc91d svgShape"></circle><circle cx="108" cy="142" r="9.183" fill="#22d3c5" transform="rotate(-45.001 107.999 142.002)" class="color2266d3 svgShape"></circle><path fill="#d1d4d4" d="M196.126 51.257h3.5a2 2 0 0 0 2-2v-25a2 2 0 0 0-2-2h-3.5a2 2 0 0 0-2 2v25a2 2 0 0 0 2 2z" class="colord1d3d4 svgShape"></path><path fill="#404242" d="M193.126 36.257h9.5a2 2 0 0 0 2-2v-1.5a2 2 0 0 0-2-2h-9.5a2 2 0 0 0-2 2v1.5a2 2 0 0 0 2 2z" class="color414042 svgShape"></path><path fill="#d1d4d4" d="M180.126 51.257h3.5a2 2 0 0 0 2-2v-25a2 2 0 0 0-2-2h-3.5a2 2 0 0 0-2 2v25a2 2 0 0 0 2 2z" class="colord1d3d4 svgShape"></path><path fill="#404242" d="M177.126 45.257h9.5a2 2 0 0 0 2-2v-1.5a2 2 0 0 0-2-2h-9.5a2 2 0 0 0-2 2v1.5a2 2 0 0 0 2 2z" class="color414042 svgShape"></path><path fill="#d1d4d4" d="M212.126 51.257h3.5a2 2 0 0 0 2-2v-25a2 2 0 0 0-2-2h-3.5a2 2 0 0 0-2 2v25a2 2 0 0 0 2 2z" class="colord1d3d4 svgShape"></path><path fill="#404242" d="M209.126 45.257h9.5a2 2 0 0 0 2-2v-1.5a2 2 0 0 0-2-2h-9.5a2 2 0 0 0-2 2v1.5a2 2 0 0 0 2 2z" class="color414042 svgShape"></path><path fill="#d1d4d4" d="M164.126 51.257h3.5a2 2 0 0 0 2-2v-25a2 2 0 0 0-2-2h-3.5a2 2 0 0 0-2 2v25a2 2 0 0 0 2 2z" class="colord1d3d4 svgShape"></path><path fill="#404242" d="M161.126 34.257h9.5a2 2 0 0 0 2-2v-1.5a2 2 0 0 0-2-2h-9.5a2 2 0 0 0-2 2v1.5a2 2 0 0 0 2 2z" class="color414042 svgShape"></path><circle cx="136.376" cy="36.757" r="9" fill="#e6e8e8" class="colore6e7e8 svgShape"></circle><path fill="#585b5b" d="M145.376 36.757a8.97 8.97 0 0 1-.231 2h-7.269a2 2 0 0 1 0-4h7.269a8.97 8.97 0 0 1 .231 2z" class="color58595b svgShape"></path><circle cx="113.376" cy="36.757" r="9" fill="#e6e8e8" class="colore6e7e8 svgShape"></circle><path fill="#585b5b" d="M119.74 30.393a9.001 9.001 0 0 1 1.251 1.577l-5.14 5.14a2 2 0 1 1-2.828-2.828l5.14-5.14c.559.352 1.09.764 1.577 1.251z" class="color58595b svgShape"></path><circle cx="90.376" cy="36.757" r="9" fill="#e6e8e8" class="colore6e7e8 svgShape"></circle><path fill="#585b5b" d="M90.376 27.757a8.97 8.97 0 0 1 2 .231v7.269a2 2 0 0 1-4 0v-7.269a8.97 8.97 0 0 1 2-.231z" class="color58595b svgShape"></path><circle cx="67.376" cy="36.757" r="9" fill="#e6e8e8" class="colore6e7e8 svgShape"></circle><path fill="#585b5b" d="M62.876 44.551a9.01 9.01 0 0 1-1.617-1.2l3.635-6.295a2 2 0 1 1 3.464 2l-3.635 6.295a9.016 9.016 0 0 1-1.847-.8z" class="color58595b svgShape"></path><circle cx="44.376" cy="36.757" r="9" fill="#e6e8e8" class="colore6e7e8 svgShape"></circle><path fill="#585b5b" d="M47.454 28.3a8.962 8.962 0 0 1 1.8.901l-2.486 6.831a2 2 0 1 1-3.758-1.368l2.486-6.831a8.92 8.92 0 0 1 1.958.467z" class="color58595b svgShape"></path><circle cx="30.442" cy="215.411" r="13.224" fill="#585b5b" class="color58595b svgShape"></circle><path fill="#e6e8e8" d="M17.218 215.411c0 1.011.124 1.992.339 2.939h10.681a2.94 2.94 0 0 0 0-5.878H17.557a13.247 13.247 0 0 0-.339 2.939z" class="colore6e7e8 svgShape"></path><circle cx="215.185" cy="90.09" r="18.5" fill="#e6e8e8" class="colore6e7e8 svgShape"></circle><circle cx="215.185" cy="90.09" r="11" fill="#d1d4d4" class="colord1d3d4 svgShape"></circle><path fill="#404242" d="M219.185 89.403h-8l-5.724-7.28v-21.28a2 2 0 0 1 2-2h15.449a2 2 0 0 1 2 2v21.28l-5.725 7.28z" class="color414042 svgShape"></path><path fill="#585b5b" d="M219.185 89.403h-8l-5.725-7.28h19.449z" class="color58595b svgShape"></path><path fill="#939898" d="M211.185 89.403h8V184h-8z" class="color939598 svgShape"></path><path fill="#585b5b" d="M211.185 184h8v4h-8z" class="color58595b svgShape"></path><path fill="#d1d4d4" d="M220.185 188h-10a2 2 0 0 0-2 2v18.75h14V190a2 2 0 0 0-2-2z" class="colord1d3d4 svgShape"></path><path fill="#e6e8e8" d="M220.185 214.167h-10a2 2 0 0 1-2-2v-3.417h14v3.417a2 2 0 0 1-2 2z" class="colore6e7e8 svgShape"></path><circle cx="215.185" cy="193.375" r="1.833" fill="#939898" class="color939598 svgShape"></circle><circle cx="215.185" cy="198.375" r="1.833" fill="#939898" class="color939598 svgShape"></circle><circle cx="215.185" cy="203.375" r="1.833" fill="#939898" class="color939598 svgShape"></circle></svg>