<svg id="monster1" enable-background="new 0 0 300 300" height="512" viewBox="0 0 300 300" width="512" xmlns="http://www.w3.org/2000/svg"><g><path d="m260 146.828c0-61.758-50.242-112-112-112s-112 50.242-112 112 50.242 112 112 112c.245 0 .489-.01.734-.011 1.654 4.652 6.054 8.011 11.266 8.011 6.153 0 11.18-4.671 11.863-10.645 51.231-11.122 88.137-56.581 88.137-109.355zm-164 90.008v-110.008c0-21.254 12.742-40.162 32.465-48.172.844-.342 1.547-.965 1.99-1.762 3.801-6.838 12.055-14.461 29.961-14.461h.332c-.784 1.498-1.539 3.35-2.242 5.362-2.38-.42-4.792-.75-7.264-.881-2.197-.102-4.09 1.576-4.207 3.781s1.574 4.09 3.781 4.207c27.58 1.471 49.184 24.28 49.184 51.926v110.052c-9.212 5.327-19.357 9.265-30.188 11.577-2.267-3.788-5.667-7.213-7.06-8.532-1.543-1.465-3.961-1.465-5.504 0-1.679 1.59-6.263 6.23-8.266 10.888-.328.003-.653.015-.982.015-18.936 0-36.69-5.112-52-13.992zm64 21.992c-2.205 0-4-1.795-4-3.992.051-1.043 1.77-3.635 4-6.211 2.229 2.574 3.947 5.162 4 6.209-.004 2.203-1.797 3.994-4 3.994zm48-27.055v-104.945c0-26.66-17.44-49.361-41.738-57.11 1.977-5.303 4.558-8.053 4.572-8.066 1.09-1.096 1.453-2.719.932-4.172-.52-1.455-1.832-2.479-3.367-2.633-27.316-2.74-39.27 8.891-44.217 16.93-22.028 9.528-36.182 30.985-36.182 55.051v104.867c-26.594-18.857-44-49.858-44-84.867 0-57.346 46.654-104 104-104s104 46.654 104 104c0 34.66-17.146 65.935-44 84.945z"/><path d="m70 45.357c2.502 0 4.53-2.028 4.53-4.529 0-2.502-2.028-4.53-4.53-4.53-2.501 0-4.529 2.028-4.529 4.53s2.028 4.529 4.529 4.529z"/><path d="m239.516 51.312c.781.781 1.805 1.172 2.828 1.172s2.047-.391 2.828-1.172l2.828-2.828 2.828 2.828c.781.781 1.805 1.172 2.828 1.172s2.047-.391 2.828-1.172c1.562-1.562 1.562-4.094 0-5.656l-2.828-2.828 2.828-2.828c1.562-1.562 1.562-4.094 0-5.656s-4.094-1.562-5.656 0l-2.828 2.828-2.828-2.828c-1.562-1.562-4.094-1.562-5.656 0s-1.562 4.094 0 5.656l2.828 2.828-2.828 2.828c-1.563 1.563-1.563 4.094 0 5.656z"/><path d="m250 214.828c-7.719 0-14 6.281-14 14s6.281 14 14 14 14-6.281 14-14-6.281-14-14-14zm0 20c-3.309 0-6-2.691-6-6s2.691-6 6-6 6 2.691 6 6-2.691 6-6 6z"/><path d="m167.533 146.828h-39.066c-3.658 0-7.107 1.791-9.225 4.793-2.084 2.957-2.592 6.584-1.393 9.947 1.986 5.579 5.499 10.376 10.097 14.089-.002 3.801.031 8.681.053 11.372 0 10.918 8.973 19.799 20 19.799 5.414 0 10.484-2.107 14.275-5.934 3.738-3.771 5.771-8.758 5.725-13.975.022-2.677.055-7.498.053-11.264 4.596-3.712 8.109-8.505 10.097-14.085 1.199-3.365.691-6.992-1.393-9.949-2.115-3.002-5.565-4.793-9.223-4.793zm-7.533 40.094c.027 3.135-1.182 6.098-3.406 8.342-2.277 2.299-5.33 3.564-8.594 3.564-6.617 0-12-5.293-12-11.83-.045-5.496-.078-13.473-.029-15.449.85-2.342 3.236-4.721 5.895-4.721.812 0 1.525.166 2.135.399v11.601c0 2.209 1.791 4 4 4s4-1.791 4-4v-11.636c.585-.211 1.253-.364 2.018-.364 2.641 0 5.146 2.371 6.012 4.719.047 2.031.012 9.894-.031 15.375zm10.615-28.037c-.976 2.739-2.473 5.206-4.324 7.392-2.628-4.405-7.386-7.449-12.274-7.449-2.121 0-4.182.475-6.076 1.387-1.896-.912-3.957-1.387-6.076-1.387-5.433 0-9.779 3.374-12.17 7.434-1.845-2.184-3.338-4.646-4.31-7.38-.43-1.207.062-2.18.396-2.65.619-.879 1.623-1.404 2.686-1.404h39.066c1.062 0 2.066.525 2.686 1.404.334.471.826 1.444.396 2.653z"/><path d="m148 118.828c0-1.346-.113-2.682-.34-4h.678c-.225 1.318-.338 2.652-.338 4 0 13.234 10.766 24 24 24s24-10.766 24-24c0-3.301-.68-6.531-2.021-9.602-.637-1.457-2.076-2.398-3.666-2.398h-84.625c-1.59 0-3.029.941-3.666 2.398-1.342 3.07-2.021 6.301-2.021 9.602 0 13.234 10.766 24 24 24s23.999-10.766 23.999-24zm28 0c0 2.205-1.795 4-4 4s-4-1.795-4-4 1.795-4 4-4 4 1.795 4 4zm-19.482-4h4.219c-.448 1.257-.737 2.591-.737 4 0 6.617 5.383 12 12 12s12-5.383 12-12c0-1.409-.289-2.743-.737-4h4.219c.344 1.309.518 2.646.518 4 0 8.822-7.178 16-16 16s-16-7.178-16-16c0-1.353.174-2.691.518-4zm-28.518 4c0 2.205-1.795 4-4 4s-4-1.795-4-4 1.795-4 4-4 4 1.795 4 4zm-20 0c0-1.354.174-2.691.518-4h4.219c-.448 1.257-.737 2.591-.737 4 0 6.617 5.383 12 12 12s12-5.383 12-12c0-1.409-.289-2.743-.737-4h4.219c.344 1.309.518 2.648.518 4 0 8.822-7.178 16-16 16s-16-7.178-16-16z"/><path d="m130.752 207.926c-1.543-1.465-3.961-1.465-5.504 0-2.17 2.055-9.248 9.207-9.248 14.902 0 6.617 5.383 12 12 12s12-5.383 12-12c0-5.695-7.078-12.848-9.248-14.902zm-2.752 18.902c-2.205 0-4-1.795-4-3.992.051-1.043 1.77-3.635 4-6.211 2.229 2.574 3.947 5.162 4 6.209-.004 2.203-1.797 3.994-4 3.994z"/></g></svg>