<svg id="monster10" enable-background="new 0 0 300 300" height="512" viewBox="0 0 300 300" width="512" xmlns="http://www.w3.org/2000/svg"><g><path d="m255.031 117.855c2.257-8.522 3.07-17.131 2.231-25.277-.172-1.672-1.375-3.059-3.004-3.469-1.629-.412-3.344.244-4.285 1.633-1.314 1.937-2.72 3.783-4.174 5.57-19.808-35.577-56.755-57.484-97.799-57.484-39.911 0-76.33 21.002-96.458 55.138-.791-1.051-1.562-2.125-2.307-3.224-.941-1.391-2.656-2.047-4.285-1.633-1.633.412-2.832 1.797-3.004 3.471-.651 6.344-.31 12.969.936 19.615-4.545 12.364-6.882 25.349-6.882 38.633 0 61.758 50.242 112 112 112s112-50.242 112-112c0-11.25-1.695-22.331-4.969-32.973zm-3.031 32.973c0 22.336-7.102 43.033-19.133 60h-15.926c2.844-3.527 4.94-7.979 5.797-13.086.836-4.998 1.262-10.135 1.262-15.264 0-5.834-.554-11.528-1.592-17.028 8.002-5.801 15.017-13.009 20.783-21.585 2.667-3.967 4.988-8.111 6.942-12.357 1.192 6.343 1.867 12.794 1.867 19.32zm-157.172 59.51c-6.406-.072-12.637-6.93-13.891-15.289-.621-4.127-.938-8.355-.938-12.57 0-41.713 30.504-75.65 68-75.65s68 33.938 68 75.65c0 4.688-.387 9.379-1.152 13.941-1.402 8.371-7.016 14.41-13.375 14.408-.043 0-.082.004-.137 0zm-44.965-105.818c11.318 12.65 25.7 21.281 40.116 24.051-5.923 7.711-10.556 16.626-13.651 26.343-5.131-4.471-9.732-9.651-13.672-15.513-7.297-10.852-11.734-23.102-12.793-34.881zm126.137-17.692h8v3.242c0 4.569-3.531 8.29-8 8.681zm-8 12h-4v-12h4zm-12 0h-4v-12h4zm-12 0h-4v-12h4zm-12 0h-4v-12h4zm-12-.077c-4.469-.392-8-4.113-8-8.681v-3.242h8zm116.551 40.649c-4.521 6.726-10.074 12.683-16.192 17.574-3.013-10.332-7.792-19.798-13.964-27.953 15.453-2.078 30.814-10.818 42.945-24.466-1.063 11.769-5.496 24.004-12.789 34.845zm-88.551-92.572c39.022 0 74.059 21.327 92.104 55.774-11.806 11.699-26.477 18.78-40.208 18.936-6.055-6.251-13.018-11.423-20.674-15.24 7.317-1.798 12.778-8.366 12.778-16.228v-7.242c0-2.209-1.789-4-4-4h-80c-2.211 0-4 1.791-4 4v7.242c0 7.862 5.461 14.43 12.777 16.228-7.591 3.784-14.498 8.903-20.517 15.082-13.75-1.144-27.976-8.83-39.229-20.881 18.365-33.151 52.957-53.671 90.969-53.671zm-101.022 79.592c2.317 6.021 5.318 11.911 9.038 17.446 5.081 7.556 11.174 14.088 18.055 19.54-1.308 6.138-2.07 12.503-2.07 19.073 0 4.611.344 9.242 1.023 13.76.852 5.657 3.382 10.711 6.827 14.59h-16.718c-12.031-16.968-19.133-37.664-19.133-60.001 0-8.298 1.062-16.453 2.978-24.408zm101.022 128.408c-31.363 0-59.506-13.974-78.59-36h157.18c-19.084 22.026-47.227 36-78.59 36z"/><path d="m70 49.357c2.501 0 4.529-2.028 4.529-4.529 0-2.502-2.028-4.53-4.529-4.53s-4.529 2.028-4.529 4.53 2.028 4.529 4.529 4.529z"/><path d="m239.516 55.312c.781.781 1.805 1.172 2.828 1.172s2.047-.391 2.828-1.172l2.828-2.828 2.828 2.828c.781.781 1.805 1.172 2.828 1.172s2.047-.391 2.828-1.172c1.562-1.562 1.562-4.094 0-5.656l-2.828-2.828 2.828-2.828c1.562-1.562 1.562-4.094 0-5.656s-4.094-1.562-5.656 0l-2.828 2.828-2.828-2.828c-1.562-1.562-4.094-1.562-5.656 0s-1.562 4.094 0 5.656l2.828 2.828-2.828 2.828c-1.563 1.563-1.563 4.094 0 5.656z"/><path d="m250 218.828c-7.719 0-14 6.281-14 14s6.281 14 14 14 14-6.281 14-14-6.281-14-14-14zm0 20c-3.309 0-6-2.691-6-6s2.691-6 6-6 6 2.691 6 6-2.691 6-6 6z"/><path d="m196 138.828h-96c-2.211 0-4 1.791-4 4 0 11.027 8.973 20 20 20 9.664 0 17.75-6.814 19.602-16h24.801c1.859 9.166 9.988 16 19.598 16 11.027 0 20-8.973 20-20-.001-2.209-1.79-4-4.001-4zm-80 16c-5.215 0-9.664-3.344-11.316-8h22.641c-1.649 4.684-6.102 8-11.325 8zm64 0c-5.191 0-9.664-3.324-11.316-8h22.633c-1.653 4.656-6.102 8-11.317 8z"/><path d="m160 162.828c0-2.209-1.789-4-4-4s-4 1.791-4 4h-8c0-2.209-1.789-4-4-4s-4 1.791-4 4c-2.211 0-4 1.791-4 4s1.789 4 4 4h24c2.211 0 4-1.791 4-4s-1.789-4-4-4z"/><path d="m124 174.828c-2.211 0-4 1.791-4 4v14c0 3.309-2.691 6-6 6s-6-2.691-6-6v-14c0-2.209-1.789-4-4-4s-4 1.791-4 4v14c0 7.719 6.281 14 14 14s14-6.281 14-14v-14c0-2.209-1.789-4-4-4z"/><path d="m192 174.828c-2.211 0-4 1.791-4 4v14c0 3.309-2.691 6-6 6s-6-2.691-6-6v-14c0-2.209-1.789-4-4-4s-4 1.791-4 4v14c0 7.719 6.281 14 14 14s14-6.281 14-14v-14c0-2.209-1.789-4-4-4z"/></g></svg>