<svg id="monster15" enable-background="new 0 0 300 300" height="512" viewBox="0 0 300 300" width="512" xmlns="http://www.w3.org/2000/svg"><g><path d="m148 38.828c-61.758 0-112 50.242-112 112s50.242 112 112 112 112-50.242 112-112-50.242-112-112-112zm-4 215.899v-23.907h8v23.906c-1.329.051-2.659.101-4 .101s-2.671-.05-4-.1zm-64-95.899h-5.49c-3.59 0-6.51 2.92-6.51 6.51v13.49c0 2.205-1.795 4-4 4s-4-1.795-4-4v-13.49c0-8 6.51-14.51 14.51-14.51h5.49zm8-20.266c0-26.32 21.414-47.734 47.734-47.734h24.531c26.32 0 47.734 21.414 47.734 47.734v45.24c0 3.873-3.152 7.025-7.025 7.025h-105.949c-3.873 0-7.025-3.152-7.025-7.025zm133.49 20.266h-5.49v-8h5.49c8 0 14.51 6.51 14.51 14.51v13.49c0 2.205-1.795 4-4 4s-4-1.795-4-4v-13.49c0-3.59-2.92-6.51-6.51-6.51zm-105.49 40h64c2.205 0 4 1.795 4 4s-1.795 4-4 4h-7.923c-.026 0-.051-.008-.077-.008h-48c-.026 0-.051.008-.077.008h-7.923c-2.205 0-4-1.795-4-4s1.795-4 4-4zm7.961 16h48.077c2.186.022 3.961 1.801 3.961 3.992 0 2.205-1.795 4-4 4h-48c-2.205 0-4-1.795-4-4 .001-2.191 1.776-3.97 3.962-3.992zm36.039 39.286v-23.294h12c6.617 0 12-5.383 12-12 0-1.577-.323-3.075-.879-4.456 5.099-1.384 8.879-6.006 8.879-11.536 0-1.409-.289-2.743-.737-4h9.712c8.285 0 15.025-6.74 15.025-15.025v-16.975h4v12c0 6.617 5.383 12 12 12s12-5.383 12-12v-13.49c0-12.412-10.098-22.51-22.51-22.51h-5.49v-4.266c0-29.472-23.01-53.609-52-55.545v-4.189c0-2.209-1.791-4-4-4s-4 1.791-4 4v4h-4v-12c0-2.209-1.791-4-4-4s-4 1.791-4 4v12h-4v-4c0-2.209-1.791-4-4-4s-4 1.791-4 4v4.189c-28.99 1.936-52 26.073-52 55.545v4.266h-5.49c-12.412 0-22.51 10.098-22.51 22.51v13.49c0 6.617 5.383 12 12 12s12-5.383 12-12v-12h4v16.975c0 8.285 6.74 15.025 15.025 15.025h9.712c-.448 1.257-.737 2.591-.737 4 0 5.531 3.781 10.152 8.879 11.536-.555 1.381-.879 2.879-.879 4.456 0 6.617 5.383 12 12 12h12v23.294c-51.711-5.971-92-50.001-92-103.286 0-57.346 46.654-104 104-104s104 46.654 104 104c0 53.285-40.289 97.315-92 103.286z"/><path d="m70 49.357c2.501 0 4.53-2.028 4.53-4.529 0-2.502-2.028-4.53-4.53-4.53s-4.53 2.028-4.53 4.53 2.029 4.529 4.53 4.529z"/><path d="m239.516 55.312c.781.781 1.805 1.172 2.828 1.172s2.047-.391 2.828-1.172l2.828-2.828 2.828 2.828c.781.781 1.805 1.172 2.828 1.172s2.047-.391 2.828-1.172c1.562-1.562 1.562-4.094 0-5.656l-2.828-2.828 2.828-2.828c1.562-1.562 1.562-4.094 0-5.656s-4.094-1.562-5.656 0l-2.828 2.828-2.828-2.828c-1.562-1.562-4.094-1.562-5.656 0s-1.562 4.094 0 5.656l2.828 2.828-2.828 2.828c-1.563 1.563-1.563 4.094 0 5.656z"/><path d="m250 218.828c-7.719 0-14 6.281-14 14s6.281 14 14 14 14-6.281 14-14-6.281-14-14-14zm0 20c-3.309 0-6-2.691-6-6s2.691-6 6-6 6 2.691 6 6-2.691 6-6 6z"/><path d="m116 126.828c-2.209 0-4 1.791-4 4v4c0 2.209 1.791 4 4 4s4-1.791 4-4v-4c0-2.209-1.791-4-4-4z"/><path d="m148 138.828c2.209 0 4-1.791 4-4v-4c0-2.209-1.791-4-4-4s-4 1.791-4 4v4c0 2.209 1.791 4 4 4z"/><path d="m180 138.828c2.209 0 4-1.791 4-4v-4c0-2.209-1.791-4-4-4s-4 1.791-4 4v4c0 2.209 1.791 4 4 4z"/><path d="m180 170.828c2.209 0 4-1.791 4-4v-4c0-2.209-1.791-4-4-4s-4 1.791-4 4v4c0 2.209 1.791 4 4 4z"/><path d="m148 158.828c-2.209 0-4 1.791-4 4v4c0 2.209 1.791 4 4 4s4-1.791 4-4v-4c0-2.209-1.791-4-4-4z"/><path d="m96 162.828c0 11.027 8.973 20 20 20 6.565 0 12.351-3.223 16-8.124 3.649 4.901 9.435 8.124 16 8.124s12.351-3.223 16-8.124c3.649 4.901 9.435 8.124 16 8.124 11.027 0 20-8.973 20-20 0-6.565-3.223-12.351-8.124-16 4.901-3.649 8.124-9.435 8.124-16 0-11.027-8.973-20-20-20-6.565 0-12.351 3.223-16 8.124-3.649-4.901-9.435-8.124-16-8.124s-12.351 3.223-16 8.124c-3.649-4.901-9.435-8.124-16-8.124-11.027 0-20 8.973-20 20 0 6.565 3.223 12.351 8.124 16-4.901 3.649-8.124 9.435-8.124 16zm52 12c-6.617 0-12-5.383-12-12s5.383-12 12-12 12 5.383 12 12-5.383 12-12 12zm-20.124-28c1.57-1.169 2.955-2.554 4.124-4.124 1.169 1.57 2.554 2.955 4.124 4.124-1.57 1.169-2.955 2.554-4.124 4.124-1.169-1.57-2.554-2.955-4.124-4.124zm36.124-4.124c1.169 1.57 2.554 2.955 4.124 4.124-1.57 1.169-2.955 2.554-4.124 4.124-1.169-1.57-2.554-2.955-4.124-4.124 1.57-1.169 2.955-2.554 4.124-4.124zm28 20.124c0 6.617-5.383 12-12 12s-12-5.383-12-12 5.383-12 12-12 12 5.383 12 12zm-12-44c6.617 0 12 5.383 12 12s-5.383 12-12 12-12-5.383-12-12 5.383-12 12-12zm-32 0c6.617 0 12 5.383 12 12s-5.383 12-12 12-12-5.383-12-12 5.383-12 12-12zm-44 12c0-6.617 5.383-12 12-12s12 5.383 12 12-5.383 12-12 12-12-5.383-12-12zm12 20c6.617 0 12 5.383 12 12s-5.383 12-12 12-12-5.383-12-12 5.383-12 12-12z"/><path d="m116 170.828c2.209 0 4-1.791 4-4v-4c0-2.209-1.791-4-4-4s-4 1.791-4 4v4c0 2.209 1.791 4 4 4z"/></g></svg>