<svg id="monster16" enable-background="new 0 0 300 300" height="512" viewBox="0 0 300 300" width="512" xmlns="http://www.w3.org/2000/svg"><g><path d="m255.894 120.009c2.644-2.203 4.365-5.478 4.365-9.18 0-6.617-5.383-12-12-12-.286 0-.555.065-.836.084-2.192-4.18-4.665-8.217-7.377-12.101 2.594-2.542 4.213-6.074 4.213-9.984 0-7.719-6.281-14-14-14-3.366 0-6.418 1.244-8.836 3.231-20.338-17.572-46.173-27.231-73.164-27.231-58.598 0-104.643 45.873-111.975 111.557-2.906 26.033 5.922 52.045 24.859 73.246 21.881 24.496 54.443 39.148 87.107 39.197h.172c29.801 0 57.836-11.605 78.953-32.691 21.203-21.174 32.883-49.34 32.883-79.309.001-10.484-1.508-20.829-4.364-30.819zm-3.635-9.181c0 2.205-1.793 4-4 4s-4-1.795-4-4 1.793-4 4-4 4 1.795 4 4zm-22-40c3.309 0 6 2.691 6 6s-2.691 6-6 6-6-2.691-6-6 2.691-6 6-6zm-126 164c0-2.205 1.795-4 4-4s4 1.795 4 4-1.795 4-4 4-4-1.795-4-4zm117.465-10.351c-19.609 19.578-45.633 30.352-73.301 30.352-.051 0-.105 0-.156 0-13.767-.02-27.506-2.851-40.323-8.032.107.003.207.032.315.032 6.617 0 12-5.383 12-12s-5.383-12-12-12-12 5.383-12 12c0 3.158 1.25 6.012 3.251 8.157-12.196-6.14-23.294-14.489-32.399-24.683-17.402-19.482-25.527-43.289-22.877-67.031 6.865-61.495 49.642-104.444 104.025-104.444 25.391 0 49.679 9.207 68.674 25.932-.397 1.296-.674 2.644-.674 4.068 0 7.719 6.281 14 14 14 .914 0 1.804-.102 2.67-.27 2.635 3.694 5.008 7.561 7.132 11.554-2.327 2.19-3.802 5.275-3.802 8.716 0 6.617 5.383 12 12 12 .039 0 .074-.011.113-.011 2.537 9.088 3.887 18.486 3.887 28.011 0 27.83-10.844 53.986-30.535 73.649z"/><path d="m70.259 49.357c2.501 0 4.53-2.028 4.53-4.529 0-2.502-2.028-4.53-4.53-4.53s-4.53 2.028-4.53 4.53 2.028 4.529 4.53 4.529z"/><path d="m239.774 55.312c.781.781 1.805 1.172 2.828 1.172s2.047-.391 2.828-1.172l2.828-2.828 2.828 2.828c.781.781 1.805 1.172 2.828 1.172s2.047-.391 2.828-1.172c1.562-1.562 1.562-4.094 0-5.656l-2.828-2.828 2.829-2.828c1.562-1.562 1.562-4.094 0-5.656s-4.094-1.562-5.656 0l-2.828 2.828-2.828-2.828c-1.562-1.562-4.094-1.562-5.656 0s-1.562 4.094 0 5.656l2.828 2.828-2.828 2.828c-1.563 1.563-1.563 4.094-.001 5.656z"/><path d="m250.259 218.828c-7.719 0-14 6.281-14 14s6.281 14 14 14 14-6.281 14-14-6.281-14-14-14zm0 20c-3.309 0-6-2.691-6-6s2.691-6 6-6 6 2.691 6 6-2.692 6-6 6z"/><path d="m148.259 150.828c13.234 0 24-10.766 24-24s-10.766-24-24-24-24 10.766-24 24 10.765 24 24 24zm0-40c8.824 0 16 7.178 16 16s-7.176 16-16 16c-8.822 0-16-7.178-16-16s7.178-16 16-16z"/><path d="m148.259 138.828c6.617 0 12-5.383 12-12s-5.383-12-12-12-12 5.383-12 12 5.383 12 12 12zm0-16c2.207 0 4 1.795 4 4s-1.793 4-4 4-4-1.795-4-4 1.793-4 4-4z"/><path d="m218.755 165.371c.98-4.769 1.504-9.645 1.504-14.542 0-.146-.007-.29-.008-.436 4.851-4.018 8.008-10.385 8.008-17.564 0-12.131-8.973-22-20-22-.076 0-.15.011-.226.012-4.898-7.301-11.156-13.677-18.34-18.76 5.534-7.165 10.666-15.921 8.499-21.807-.68-1.838-2.66-5.008-8.316-5.582-11.44-1.17-18.393 8.362-22.288 16.855-2.284-.635-4.59-1.155-6.927-1.562 2.63-8.428 4.252-17.95.34-22.605-1.258-1.498-4.188-3.812-9.711-2.432-11.813 2.954-14.834 15.475-15.37 25.036-3.109.538-6.167 1.283-9.175 2.225-3.847-8.641-10.863-18.696-22.559-17.517-5.656.574-7.637 3.744-8.314 5.582-2.282 6.197 3.524 15.585 9.374 22.938-6.522 4.885-12.241 10.873-16.773 17.629-.072-.001-.142-.012-.215-.012-11.027 0-20 9.869-20 22 0 7.178 3.156 13.545 8.006 17.563-.001.146-.006.291-.006.437 0 4.889.523 9.753 1.495 14.507-8.815 6.176-13.934 13.763-15.947 20.507-2.746 9.195-.656 18.043 5.73 24.273 5.674 5.533 14.098 8.338 24.369 8.338 6.91 0 14.679-1.321 22.986-3.882 10.113 5.298 21.508 8.257 33.366 8.257 11.767 0 23.082-2.921 33.143-8.148 8.167 2.486 15.815 3.767 22.638 3.767 10.375 0 18.898-2.85 24.633-8.465 6.418-6.287 8.512-15.178 5.75-24.395-1.988-6.643-7.016-14.114-15.666-20.217zm-10.496-46.543c1.309 0 2.546.307 3.726.761-4.491 1.677-7.726 6.059-7.726 11.239 0 6.617 5.25 12 11.699 12 .258 0 .5-.061.754-.078-2.171 2.517-5.158 4.078-8.453 4.078-6.617 0-12-6.281-12-14s5.383-14 12-14zm11.398 12c0 2.205-1.66 4-3.699 4s-3.699-1.795-3.699-4 1.66-4 3.699-4 3.699 1.795 3.699 4zm-142.963 0c0-2.205 1.695-4 3.781-4s3.783 1.795 3.783 4-1.697 4-3.783 4-3.781-1.795-3.781-4zm3.122 11.932c.223.013.433.068.659.068 6.498 0 11.783-5.383 11.783-12 0-5.169-3.242-9.545-7.751-11.23 1.187-.46 2.433-.77 3.751-.77 6.617 0 12 6.281 12 14s-5.383 14-12 14c-3.29 0-6.272-1.557-8.442-4.068zm-6.69 61.629c-4.188-4.084-5.518-10.01-3.652-16.258 2.016-6.752 8.1-14.607 19.371-20.109-6.146 6.955-11.951 15.537-11.859 22.775.053 4.002 1.809 7.35 5.08 9.68 4.29 3.055 9.144 3.153 14.458.381 2.806 2.896 5.839 5.545 9.072 7.922-14.518 3.259-26.126 1.797-32.47-4.391zm12.728-17.713c1.584 2.753 3.324 5.387 5.232 7.877-2.146.697-3.385.117-4.38-.592-1.188-.846-1.703-1.824-1.721-3.268-.015-1.2.318-2.565.869-4.017zm4.73-8.16c4.779-6.494 11.567-13.099 16.079-16.49 1.488-1.121 2.008-3.121 1.25-4.824-.756-1.701-2.598-2.66-4.42-2.299-7.077 1.381-13.141 3.502-18.332 6.073-.346-2.17-.571-4.352-.693-6.555 1.229.26 2.494.408 3.79.408 11.027 0 20-9.869 20-22 0-8.781-4.713-16.355-11.492-19.881 3.842-5.203 8.48-9.821 13.686-13.653.758.829 1.476 1.598 2.099 2.249.787.82 1.836 1.232 2.889 1.232.994 0 1.992-.369 2.768-1.111 1.594-1.529 1.648-4.061.121-5.656-9.639-10.064-15.951-20.615-14.99-22.914.004-.002.369-.312 1.654-.441 12.396-1.244 17.77 22.629 17.82 22.869.451 2.16 2.564 3.547 4.73 3.1 2.16-.449 3.551-2.562 3.104-4.725-.056-.272-.419-1.894-1.111-4.188 2.118-.647 4.26-1.184 6.437-1.608.129 1.838.293 3.058.327 3.294.311 2.184 2.32 3.721 4.521 3.393 2.184-.311 3.707-2.334 3.398-4.521-.035-.244-3.102-24.529 9.008-27.557.652-.162 1.082-.195 1.344-.195.211.002.305.021.309.014 1.734 1.895-.629 13.949-6.277 26.678-.895 2.018.016 4.381 2.031 5.277.531.236 1.082.346 1.625.346 1.531 0 2.992-.885 3.656-2.375.589-1.326 1.292-2.984 2.023-4.825 2.288.348 4.547.824 6.782 1.418-.826 2.655-1.242 4.552-1.304 4.85-.445 2.164.945 4.279 3.109 4.729 2.152.43 4.277-.943 4.727-3.107.047-.242 5.395-24.145 17.82-22.865 1.18.119 1.582.389 1.613.389.988 2.371-5.32 12.91-14.949 22.967-1.527 1.596-1.477 4.127.121 5.656.773.742 1.77 1.111 2.766 1.111 1.051 0 2.102-.412 2.887-1.232.88-.918 1.93-2.047 3.055-3.307 5.823 4.034 10.968 9.02 15.175 14.718-6.773 3.528-11.48 11.098-11.48 19.875 0 12.131 8.973 22 20 22 1.296 0 2.56-.147 3.788-.408-.123 2.208-.346 4.396-.694 6.572-5.182-2.579-11.244-4.707-18.329-6.09-1.832-.365-3.664.598-4.422 2.299-.758 1.703-.238 3.703 1.254 4.824 4.38 3.293 11.238 10.098 15.948 16.752-10.684 21.949-33.042 36.051-57.546 36.051-24.62-.005-47.044-14.214-57.675-36.317zm120.401 12.033c-.02 1.516-.551 2.535-1.781 3.412-.914.652-2.033 1.213-3.892.743 1.841-2.388 3.525-4.91 5.068-7.543.4 1.217.619 2.359.605 3.388zm12.09 13.719c-6.349 6.216-17.892 7.746-32.288 4.604 3.206-2.347 6.221-4.955 9.011-7.811 5.151 2.563 9.868 2.397 14.046-.584 3.312-2.359 5.09-5.756 5.141-9.826.094-7.324-5.535-15.836-11.52-22.713 11.227 5.451 17.289 13.25 19.297 19.947 1.88 6.273.536 12.244-3.687 16.383z"/><path d="m178.935 156.285c-8.039-3.674-17.543-.148-21.219 7.867-3.375 7.363-7.562 10.676-9.457 10.676s-6.078-3.312-9.459-10.678c-3.68-8.006-13.193-11.537-21.219-7.863-8.016 3.682-11.543 13.199-7.863 21.219 9.035 19.674 24.631 21.322 38.541 21.322s29.508-1.648 38.543-21.322c3.679-8.02.152-17.537-7.867-21.221zm-10.676 7.637v8.906c0 1.104-.898 2-2 2s-2-.896-2-2v-3.901c.242-.484.499-.933.73-1.439.717-1.561 1.884-2.767 3.27-3.566zm-36.729 3.566c.231.504.487.952.729 1.434v3.906c0 1.104-.896 2-2 2s-2-.896-2-2v-8.882c1.383.799 2.555 1.986 3.271 3.542zm47.998 6.68c-7.07 15.406-18.344 16.66-31.27 16.66-12.924 0-24.195-1.254-31.271-16.66-1.731-3.774-.243-8.18 3.271-10.223v8.884c0 5.514 4.486 10 10 10 3.552 0 6.657-1.875 8.432-4.674 3.039 2.992 6.326 4.674 9.568 4.674 3.244 0 6.531-1.681 9.569-4.671 1.774 2.798 4.878 4.671 8.431 4.671 5.516 0 10-4.486 10-10v-8.883c3.518 2.044 5.005 6.449 3.27 10.222z"/></g></svg>