<svg id="monster24" enable-background="new 0 0 300 300" height="512" viewBox="0 0 300 300" width="512" xmlns="http://www.w3.org/2000/svg"><g><path d="m148 30.828c-61.758 0-112 50.242-112 112 0 29.544 11.366 57.289 32 78.342v45.658c0 2.209 1.791 4 4 4s4-1.791 4-4v-60.885c0-21.568 17.547-39.115 39.115-39.115h58.145c1.188 2.489 2.014 5.174 2.421 8h-57.569c-18.809 0-34.112 15.303-34.112 34.111v57.889c0 2.209 1.791 4 4 4s4-1.791 4-4v-57.889c0-14.398 11.713-26.111 26.111-26.111h57.569c-.407 2.826-1.233 5.511-2.421 8h-49.813c-12.93 0-23.447 10.518-23.447 23.447v52.553c0 2.209 1.791 4 4 4s4-1.791 4-4v-52.553c0-8.518 6.93-15.447 15.447-15.447h44.111c-5.051 4.941-11.951 8-19.559 8h-19.205c-7.055 0-12.795 5.74-12.795 12.795v47.205c0 2.209 1.791 4 4 4s4-1.791 4-4v-14.631c7.851 1.713 15.894 2.631 24 2.631 61.758 0 112-50.242 112-112s-50.24-112-111.998-112zm4 12c0 2.205-1.795 4-4 4s-4-1.795-4-4 1.795-4 4-4 4 1.795 4 4zm-84 163.115v3.341c-15.539-18.633-24-41.877-24-66.456 0-53.47 40.566-97.628 92.536-103.354-.315 1.072-.536 2.182-.536 3.354 0 5.259 3.422 9.689 8.14 11.306-.042.234-.14.448-.14.694v8h-4c-26.467 0-48 21.533-48 48v12h-8c-2.209 0-4 1.791-4 4h-20c-6.617 0-12 5.383-12 12s5.383 12 12 12h20c0 2.209 1.791 4 4 4h8v10.106c-14.306 8.097-24 23.432-24 41.009zm24-59.115h-4v-16h4zm-12-4h-20c-2.205 0-4-1.795-4-4s1.795-4 4-4h20zm48.423 16c5.166-5.087 12.109-8 19.577-8 7.608 0 14.507 3.059 19.559 8zm.372 56h19.205c19.85 0 36-16.15 36-36s-16.15-36-36-36c-12.116 0-23.124 5.981-29.843 16h-3.042c-5.292 0-10.363.917-15.115 2.533v-50.533c0-22.057 17.943-40 40-40h16c22.057 0 40 17.943 40 40v72c0 22.057-17.943 40-40 40h-16c-5.582 0-10.929-1.18-15.964-3.384.1-2.557 2.178-4.616 4.759-4.616zm-4.795 13.251c3.864 1.371 7.88 2.185 12 2.521v15.505c-4.047-.465-8.05-1.18-12-2.113zm20 18.621v-15.872h8v15.899c-1.329.051-2.659.101-4 .101-1.337 0-2.667-.078-4-.128zm16-.586v-15.489c24.598-2.044 44-22.681 44-47.797v-28h8c2.209 0 4-1.791 4-4h20c6.617 0 12-5.383 12-12s-5.383-12-12-12h-20c0-2.209-1.791-4-4-4h-8v-12c0-26.467-21.533-48-48-48h-4v-8c0-.246-.098-.46-.14-.694 4.718-1.617 8.14-6.047 8.14-11.306 0-1.172-.221-2.283-.536-3.354 51.969 5.726 92.536 49.884 92.536 103.354 0 53.285-40.289 97.315-92 103.286zm44-115.286h4v16h-4zm12 4h20c2.205 0 4 1.795 4 4s-1.795 4-4 4h-20z"/><path d="m70 41.357c2.501 0 4.53-2.028 4.53-4.529 0-2.502-2.028-4.53-4.53-4.53s-4.53 2.028-4.53 4.53 2.029 4.529 4.53 4.529z"/><path d="m239.516 47.312c.781.781 1.805 1.172 2.828 1.172s2.047-.391 2.828-1.172l2.828-2.828 2.828 2.828c.781.781 1.805 1.172 2.828 1.172s2.047-.391 2.828-1.172c1.562-1.562 1.562-4.094 0-5.656l-2.828-2.828 2.828-2.828c1.562-1.562 1.562-4.094 0-5.656s-4.094-1.562-5.656 0l-2.828 2.828-2.828-2.828c-1.562-1.562-4.094-1.562-5.656 0s-1.562 4.094 0 5.656l2.828 2.828-2.828 2.828c-1.563 1.563-1.563 4.094 0 5.656z"/><path d="m250 210.828c-7.719 0-14 6.281-14 14s6.281 14 14 14 14-6.281 14-14-6.281-14-14-14zm0 20c-3.309 0-6-2.691-6-6s2.691-6 6-6 6 2.691 6 6-2.691 6-6 6z"/><path d="m172 78.828c-2.209 0-4 1.791-4 4 0 4.412-4.188 8-9.334 8h-21.332c-5.146 0-9.334-3.588-9.334-8 0-2.209-1.791-4-4-4s-4 1.791-4 4c0 6.556 4.302 12.19 10.431 14.659-1.522 2.865-2.431 6.042-2.431 9.341 0 11.027 8.973 20 20 20s20-8.973 20-20c0-3.302-.908-6.478-2.43-9.341 6.128-2.469 10.43-8.103 10.43-14.659 0-2.209-1.791-4-4-4zm-28 34c0-1.104.896-2 2-2s2 .896 2 2-.896 2-2 2-2-.896-2-2zm11.364 3.404c.39-1.067.636-2.204.636-3.404 0-5.514-4.486-10-10-10-4.512 0-8.291 3.024-9.532 7.136-.274-1.006-.468-2.044-.468-3.136 0-2.975 1.166-5.807 3.143-8h17.711c1.979 2.195 3.146 5.023 3.146 8 0 3.829-1.835 7.206-4.636 9.404z"/><path d="m152 130.828h-8c-2.209 0-4 1.791-4 4s1.791 4 4 4h8c2.209 0 4-1.791 4-4s-1.791-4-4-4z"/></g></svg>