<svg id="monster30" enable-background="new 0 0 300 300" height="512" viewBox="0 0 300 300" width="512" xmlns="http://www.w3.org/2000/svg"><g><path d="m71.98 49.357c2.501 0 4.529-2.028 4.529-4.529 0-2.502-2.028-4.53-4.529-4.53s-4.529 2.028-4.529 4.53 2.028 4.529 4.529 4.529z"/><path d="m241.496 55.312c.781.781 1.805 1.172 2.828 1.172s2.047-.391 2.828-1.172l2.828-2.828 2.828 2.828c.781.781 1.805 1.172 2.828 1.172s2.047-.391 2.828-1.172c1.562-1.562 1.562-4.094 0-5.656l-2.828-2.828 2.829-2.828c1.562-1.562 1.562-4.094 0-5.656s-4.094-1.562-5.656 0l-2.828 2.828-2.828-2.828c-1.562-1.562-4.094-1.562-5.656 0s-1.562 4.094 0 5.656l2.828 2.828-2.828 2.828c-1.563 1.563-1.563 4.094-.001 5.656z"/><path d="m251.98 218.828c-7.719 0-14 6.281-14 14s6.281 14 14 14 14-6.281 14-14-6.281-14-14-14zm0 20c-3.309 0-6-2.691-6-6s2.691-6 6-6 6 2.691 6 6-2.691 6-6 6z"/><path d="m272.793 80.965c-.906-1.717-2.906-2.539-4.762-1.945l-25.854 8.291c-20.964-30.391-55.185-48.482-92.197-48.482-37 0-71.229 18.088-92.191 48.472l-25.82-8.281c-1.863-.594-3.859.229-4.762 1.945-.906 1.719-.445 3.838 1.09 5.027l20.85 16.136c-7.382 15.234-11.166 31.594-11.166 48.7 0 61.758 50.242 112 112 112s112-50.242 112-112c0-16.857-3.88-33.602-11.16-48.675l20.883-16.161c1.534-1.189 1.995-3.308 1.089-5.027zm-122.813-34.137c32.731 0 63.126 15.223 82.762 41.048l-30.434-15.272c-2.867-1.895-6.602-2.066-9.504-.463l-29.258 14.812c-2.332 1.287-4.094 3.383-4.953 5.9-.059.176-.109.355-.145.537l-1.814 9.438h-13.273l-1.814-9.438c-.035-.182-.086-.361-.145-.537-.859-2.516-2.617-4.609-5.078-5.967l-29.012-14.684c-3.02-1.658-6.762-1.498-9.621.402l-30.507 15.309c19.638-25.846 50.06-41.085 82.796-41.085zm-86.605 50.666c.996.324 2.078.236 3.016-.234l35.133-17.629c.191-.096.375-.205.547-.33.309-.221.855-.373 1.512-.023l29 14.678c.527.291.938.742 1.172 1.283l4.297 22.355c.418 2.168 2.516 3.578 4.684 3.172 2.172-.416 3.59-2.514 3.176-4.684l-1.01-5.254h10.196l-1.01 5.254c-.414 2.17 1.004 4.268 3.176 4.684 2.164.42 4.266-1.002 4.684-3.172l4.297-22.355c.234-.541.633-.984 1.047-1.215l29.246-14.809c.535-.295 1.082-.135 1.398.088.172.125.352.234.543.328l35.129 17.629c.938.471 2.02.559 3.016.234l12.207-3.914-15.59 12.064-34.375-17.594c-1.234-.629-2.703-.586-3.887.135l-15.445 9.303c-1.047.629-1.75 1.703-1.906 2.914l-3.363 26.025c-.281 2.189 1.266 4.195 3.457 4.479.172.023.348.033.516.033 1.98 0 3.703-1.471 3.965-3.488l1.963-15.2c3.509 1.876 5.818 5.405 5.818 9.38v28.947c0 2.209 1.789 4 4 4s4-1.791 4-4v-22.568c7.047 2.534 12 8.964 12 16.349v39.873c-6.977 4.168-33.074 18.596-60 18.596s-53.023-14.428-60-18.596v-39.873c0-7.382 4.953-13.815 12-16.35v22.569c0 2.209 1.789 4 4 4s4-1.791 4-4v-28.947c0-3.985 2.325-7.522 5.853-9.395l1.968 15.217c.262 2.016 1.984 3.486 3.965 3.486.168 0 .344-.01.516-.033 2.191-.283 3.738-2.289 3.457-4.48l-3.367-26.025c-.16-1.211-.859-2.283-1.906-2.912l-15.441-9.303c-1.188-.717-2.652-.76-3.887-.135l-34.375 17.594-15.591-12.063zm78.605 125.334v-12.404c2.645.237 5.308.404 8 .404s5.355-.167 8-.404v12.404zm-60-56h-1.625c-1.309 0-2.375-1.066-2.375-2.377v-19.246c0-1.311 1.066-2.377 2.375-2.377h1.699c-.032.509-.074 1.016-.074 1.531zm-36-16c0-15.317 3.264-29.986 9.634-43.695l7.03 5.441c1.777 1.547 4.344 1.887 6.535.82l33.621-17.209 11.883 7.158.083.641c-6.91 2.436-11.789 8.48-12.598 15.601-8.368 1.985-15.091 7.775-18.239 15.243h-3.574c-5.723 0-10.375 4.654-10.375 10.377v19.246c0 5.723 4.652 10.377 10.375 10.377h1.625v11.637c0 1.348.68 2.605 1.809 3.346 1.098.719 23.192 14.974 50.191 19.569v13.449h-25.441c-8.599 0-16.585 4.105-21.521 10.701-24.919-19.018-41.038-49.007-41.038-82.702zm47.577 87.295c3.453-4.498 8.995-7.295 14.982-7.295h82.883c5.987 0 11.529 2.797 14.982 7.295-16.266 10.55-35.633 16.705-56.423 16.705s-40.158-6.155-56.424-16.705zm160.423-87.295c0 33.695-16.118 63.684-41.037 82.701-4.937-6.596-12.922-10.701-21.521-10.701h-25.442v-13.449c26.999-4.595 49.094-18.85 50.191-19.569 1.129-.74 1.809-1.998 1.809-3.346v-11.637h1.625c5.723 0 10.375-4.654 10.375-10.377v-19.246c0-5.723-4.652-10.377-10.375-10.377h-3.572c-3.147-7.47-9.87-13.259-18.241-15.245-.807-7.116-5.668-13.152-12.563-15.594l.083-.646 11.883-7.158 33.695 17.246c2.133 1.035 4.691.686 6.461-.855l7.006-5.421c6.365 13.695 9.623 28.358 9.623 43.674zm-36.074-8h1.699c1.309 0 2.375 1.066 2.375 2.377v19.246c0 1.311-1.066 2.377-2.375 2.377h-1.625v-22.469c0-.515-.042-1.022-.074-1.531z"/><path d="m149.98 170.828c13.234 0 24-10.766 24-24s-10.766-24-24-24-24 10.766-24 24 10.766 24 24 24zm0-40c8.824 0 16 7.178 16 16s-7.176 16-16 16-16-7.178-16-16 7.176-16 16-16z"/><path d="m149.98 158.828c2.211 0 4-1.791 4-4v-16c0-2.209-1.789-4-4-4s-4 1.791-4 4v16c0 2.209 1.79 4 4 4z"/><path d="m157.98 174.828h-16c-2.211 0-4 1.791-4 4s1.789 4 4 4h16c2.211 0 4-1.791 4-4s-1.789-4-4-4z"/><path d="m157.98 186.828h-16c-2.211 0-4 1.791-4 4s1.789 4 4 4h16c2.211 0 4-1.791 4-4s-1.789-4-4-4z"/></g></svg>