<svg id="monster5" enable-background="new 0 0 300 300" height="512" viewBox="0 0 300 300" width="512" xmlns="http://www.w3.org/2000/svg"><g><path d="m148 38.828c-61.758 0-112 50.242-112 112s50.242 112 112 112 112-50.242 112-112-50.242-112-112-112zm-31.522 211.103c.606-3.918 1.941-7.671 3.925-11.103h55.194c1.984 3.431 3.319 7.185 3.925 11.103-9.948 3.172-20.536 4.897-31.522 4.897s-21.574-1.725-31.522-4.897zm6.118-123.103h-6.596c0-1.365-.141-2.696-.361-4h9.267zm-30.596 16c-8.822 0-16-7.178-16-16s7.178-16 16-16 16 7.178 16 16-7.178 16-16 16zm47.736-29.685c1.725-2.988 4.814-4.771 8.264-4.771s6.539 1.783 8.264 4.771l44.76 77.527c4.84 8.381 4.84 18.391 0 26.771-4.84 8.383-13.506 13.387-23.186 13.387h-59.676c-9.68 0-18.346-5.004-23.186-13.387-4.84-8.381-4.84-18.391 0-26.771zm40.264 13.685h-6.596l-2.31-4h9.267c-.22 1.304-.361 2.635-.361 4zm24-16c8.822 0 16 7.178 16 16s-7.178 16-16 16-16-7.178-16-16 7.178-16 16-16zm-16.794 136.303c-.606-3.097-1.625-6.091-2.937-8.956 9.902-1.822 18.496-7.75 23.684-16.733 6.285-10.887 6.285-23.885 0-34.771l-29.93-51.842h3.377c3.305 9.306 12.174 16 22.6 16 13.234 0 24-10.766 24-24s-10.766-24-24-24c-8.861 0-16.595 4.838-20.753 12h-16.771l-3.282-5.686c-1.922-3.329-4.775-5.827-8.128-7.293-4.153-6.085-3.479-14.349 1.8-19.629 4.516-4.516 11.867-4.516 16.383 0 3.301 3.301 3.301 8.674 0 11.975-2.328 2.328-6.119 2.328-8.447 0-1.553-1.551-1.553-4.076-.002-5.627 1.562-1.562 1.562-4.094 0-5.656s-4.094-1.562-5.656 0c-4.67 4.668-4.67 12.268 0 16.941 5.449 5.445 14.316 5.447 19.762-.002 6.42-6.42 6.42-16.867 0-23.287-7.637-7.637-20.059-7.637-27.695 0-1.246 1.246-2.269 2.628-3.179 4.066-.91-1.438-1.934-2.82-3.18-4.066-7.629-7.633-20.057-7.637-27.693 0-6.42 6.42-6.42 16.867 0 23.287 5.449 5.449 14.311 5.449 19.76 0 2.264-2.264 3.51-5.271 3.51-8.471s-1.246-6.207-3.51-8.471c-1.562-1.559-4.096-1.561-5.658.002-1.561 1.562-1.561 4.096.002 5.658.752.75 1.166 1.748 1.166 2.811s-.414 2.062-1.166 2.814c-2.258 2.252-6.188 2.256-8.447 0-3.301-3.301-3.301-8.674 0-11.975 4.518-4.518 11.867-4.514 16.381 0 5.269 5.267 5.95 13.505 1.83 19.585-3.393 1.46-6.277 3.978-8.217 7.336l-3.282 5.686h-16.771c-4.157-7.162-11.892-12-20.753-12-13.234 0-24 10.766-24 24s10.766 24 24 24c10.426 0 19.295-6.694 22.6-16h3.377l-29.93 51.842c-6.285 10.887-6.285 23.885 0 34.771 5.188 8.983 13.782 14.911 23.684 16.733-1.312 2.865-2.331 5.859-2.937 8.956-37.968-15.511-64.798-52.822-64.798-96.301 0-57.346 46.654-104 104-104s104 46.654 104 104c0 43.479-26.83 80.79-64.794 96.303z"/><path d="m70 49.357c2.501 0 4.53-2.028 4.53-4.529 0-2.502-2.028-4.53-4.53-4.53s-4.53 2.028-4.53 4.53 2.029 4.529 4.53 4.529z"/><path d="m239.516 55.312c.781.781 1.805 1.172 2.828 1.172s2.047-.391 2.828-1.172l2.828-2.828 2.828 2.828c.781.781 1.805 1.172 2.828 1.172s2.047-.391 2.828-1.172c1.562-1.562 1.562-4.094 0-5.656l-2.828-2.828 2.828-2.828c1.562-1.562 1.562-4.094 0-5.656s-4.094-1.562-5.656 0l-2.828 2.828-2.828-2.828c-1.562-1.562-4.094-1.562-5.656 0s-1.562 4.094 0 5.656l2.828 2.828-2.828 2.828c-1.563 1.563-1.563 4.094 0 5.656z"/><path d="m250 218.828c-7.719 0-14 6.281-14 14s6.281 14 14 14 14-6.281 14-14-6.281-14-14-14zm0 20c-3.309 0-6-2.691-6-6s2.691-6 6-6 6 2.691 6 6-2.691 6-6 6z"/><path d="m140 130.828c2.209 0 4-1.791 4-4v-4c0-2.209-1.791-4-4-4s-4 1.791-4 4v4c0 2.209 1.791 4 4 4z"/><path d="m156 130.828c2.209 0 4-1.791 4-4v-4c0-2.209-1.791-4-4-4s-4 1.791-4 4v4c0 2.209 1.791 4 4 4z"/><path d="m92 114.828c-6.617 0-12 5.383-12 12s5.383 12 12 12 12-5.383 12-12-5.383-12-12-12zm0 16c-2.205 0-4-1.795-4-4s1.795-4 4-4 4 1.795 4 4-1.795 4-4 4z"/><path d="m204 138.828c6.617 0 12-5.383 12-12s-5.383-12-12-12-12 5.383-12 12 5.383 12 12 12zm0-16c2.205 0 4 1.795 4 4s-1.795 4-4 4-4-1.795-4-4 1.795-4 4-4z"/><path d="m128 162.828v20c0 11.027 8.973 20 20 20s20-8.973 20-20v-20c2.209 0 4-1.791 4-4s-1.791-4-4-4h-40c-2.209 0-4 1.791-4 4s1.791 4 4 4zm20 32c-4.973 0-9.246-3.042-11.064-7.361.86-.374 1.884-.639 3.064-.639 2.484 0 4.266 1.135 5.324 2.086.76.686 1.719 1.027 2.676 1.027s1.916-.342 2.676-1.027c1.059-.951 2.84-2.086 5.324-2.086 1.18 0 2.204.265 3.064.639-1.818 4.319-6.091 7.361-11.064 7.361zm12-15.385c-4.028-1.033-8.401-.539-12 1.566-3.601-2.105-7.973-2.6-12-1.566v-16.615h8v4c0 2.209 1.791 4 4 4s4-1.791 4-4v-4h8z"/></g></svg>