<svg id="monster6" enable-background="new 0 0 300 300" height="512" viewBox="0 0 300 300" width="512" xmlns="http://www.w3.org/2000/svg"><g><path d="m260 146.828c0-61.758-50.242-112-112-112s-112 50.242-112 112c0 43.239 25.062 82.643 64 101.151v.849c0 5.514 4.486 10 10 10 3.306 0 6.219-1.632 8.041-4.112 7.213 1.997 14.626 3.266 22.128 3.786.802 4.716 4.889 8.326 9.831 8.326 5.057 0 9.203-3.785 9.865-8.662 6.128-.647 12.19-1.798 18.105-3.436 1.822 2.472 4.73 4.098 8.03 4.098 5.516 0 10-4.486 10-10v-.837c38.923-18.501 64-57.969 64-101.163zm-120 103.645c-6.783-.518-13.48-1.693-20-3.51v-17.479c6.515 4.365 13.29 7.272 20 8.555zm36-3.497c-5.23 1.458-10.585 2.507-16 3.13v-13.008c5.418-1.534 10.771-4.068 16-7.587zm12 1.852c0 1.104-.898 2-2 2s-2-.896-2-2v-58c0-2.209-1.789-4-4-4s-4 1.791-4 4v28.68c-5.25 4.234-10.607 7.301-16 9.158v-13.838c0-2.209-1.789-4-4-4s-4 1.791-4 4v42c0 1.104-.898 2-2 2s-2-.896-2-2v-42c0-2.209-1.789-4-4-4s-4 1.791-4 4v15.028c-6.686-1.566-13.503-5.076-20-10.305v-28.723c0-2.209-1.791-4-4-4s-4 1.791-4 4v58c0 1.104-.896 2-2 2s-2-.896-2-2v-62c0-2.209-1.791-4-4-4s-4 1.791-4 4v9.171c-9.985-16.405-16-35.852-16-53.171 0-3.203.278-6.264.681-9.247 2.31.803 4.766 1.247 7.319 1.247 13.234 0 24-11.664 24-26 0-5.209-1.436-10.056-3.881-14.128 3.979-2.017 8.318-3.677 12.969-4.932 1.691-.455 2.889-1.959 2.957-3.709.41-10.783 9.176-19.23 19.955-19.23 10.781 0 19.547 8.447 19.957 19.23.066 1.75 1.262 3.254 2.953 3.709 4.647 1.253 8.989 2.913 12.972 4.93-2.446 4.073-3.882 8.92-3.882 14.13 0 14.336 10.766 26 24 26 2.553 0 5.01-.443 7.32-1.247.403 2.982.68 6.043.68 9.247 0 17.327-6.015 36.767-16 53.17v-9.17c0-2.209-1.789-4-4-4s-4 1.791-4 4zm-80-140c0 9.926-7.178 18-16 18s-16-8.074-16-18 7.178-18 16-18 16 8.074 16 18zm96 18c-8.824 0-16-8.074-16-18s7.176-18 16-18 16 8.074 16 18-7.176 18-16 18zm-8 112.225v-28.833c14.805-19.277 24-44.96 24-67.392 0-4.714-.478-9.22-1.265-13.521 5.627-4.762 9.265-12.162 9.265-20.479 0-14.336-10.766-26-24-26-5.639 0-10.82 2.132-14.921 5.671-4.151-2.248-8.585-4.206-13.392-5.679-1.941-13.67-13.582-23.992-27.687-23.992s-25.748 10.322-27.688 23.992c-4.809 1.474-9.245 3.43-13.394 5.678-4.101-3.539-9.281-5.67-14.919-5.67-13.234 0-24 11.664-24 26 0 8.32 3.64 15.72 9.269 20.482-.787 4.303-1.268 8.805-1.268 13.518 0 22.422 9.193 48.123 24 67.396v28.839c-34.196-17.826-56-53.365-56-92.235 0-57.346 46.654-104 104-104 57.348 0 104 46.654 104 104 0 38.825-21.82 74.401-56 92.225z"/><path d="m70 45.357c2.501 0 4.53-2.028 4.53-4.529 0-2.502-2.028-4.53-4.53-4.53s-4.53 2.028-4.53 4.53 2.029 4.529 4.53 4.529z"/><path d="m239.516 51.312c.781.781 1.805 1.172 2.828 1.172s2.047-.391 2.828-1.172l2.828-2.828 2.828 2.828c.781.781 1.805 1.172 2.828 1.172s2.047-.391 2.828-1.172c1.562-1.562 1.562-4.094 0-5.656l-2.828-2.828 2.828-2.828c1.562-1.562 1.562-4.094 0-5.656s-4.094-1.562-5.656 0l-2.828 2.828-2.828-2.828c-1.562-1.562-4.094-1.562-5.656 0s-1.562 4.094 0 5.656l2.828 2.828-2.828 2.828c-1.563 1.563-1.563 4.094 0 5.656z"/><path d="m250 214.828c-7.719 0-14 6.281-14 14s6.281 14 14 14 14-6.281 14-14-6.281-14-14-14zm0 20c-3.309 0-6-2.691-6-6s2.691-6 6-6 6 2.691 6 6-2.691 6-6 6z"/><path d="m152 146.828h-8c-2.211 0-4 1.791-4 4s1.789 4 4 4h8c2.211 0 4-1.791 4-4s-1.789-4-4-4z"/><path d="m80 106.828c0 6.617 5.383 12 12 12s12-5.383 12-12-5.383-12-12-12-12 5.383-12 12zm16 0c0 2.205-1.795 4-4 4s-4-1.795-4-4 1.795-4 4-4 4 1.795 4 4z"/><path d="m204 94.828c-6.617 0-12 5.383-12 12s5.383 12 12 12 12-5.383 12-12-5.383-12-12-12zm0 16c-2.207 0-4-1.795-4-4s1.793-4 4-4 4 1.795 4 4-1.793 4-4 4z"/><path d="m140 86.828c2.211 0 4-1.791 4-4v-4c0-2.209-1.789-4-4-4-2.209 0-4 1.791-4 4v4c0 2.209 1.791 4 4 4z"/><path d="m156 86.828c2.211 0 4-1.791 4-4v-4c0-2.209-1.789-4-4-4s-4 1.791-4 4v4c0 2.209 1.789 4 4 4z"/><path d="m176.98 126.041c-5.871 6.754-16.977 10.951-28.98 10.951-12.006 0-23.111-4.197-28.98-10.951-1.445-1.666-3.977-1.848-5.643-.396-1.668 1.449-1.846 3.977-.396 5.643 7.457 8.582 20.549 13.705 35.02 13.705 14.473 0 27.562-5.123 35.02-13.705 1.449-1.666 1.273-4.193-.395-5.643-1.665-1.448-4.192-1.276-5.646.396z"/></g></svg>