<?xml version="1.0" encoding="UTF-8"?><svg id="Layer_2" xmlns="http://www.w3.org/2000/svg" viewBox="0 0 187.3 1286.88"><defs><style>.cls-1{fill:#fff;}</style></defs><g id="Layer_3"><polygon class="cls-1" points="71.69 1085.9 71.69 154.73 151.09 75.33 151.09 33.3 184.39 0 187.3 2.91 155.2 35 155.2 77.03 75.8 156.44 75.8 1084.2 113.17 1121.57 112.83 1286.88 108.72 1286.88 109.06 1123.27 71.69 1085.9"/><polygon class="cls-1" points="89.24 141.48 89.24 1101.22 73.41 1085.39 73.41 155.59 89.24 141.48"/><polygon class="cls-1" points="0 997.66 42.56 956.23 42.56 174.44 0 215.87 0 997.66"/><polygon class="cls-1" points="176.65 24.29 176.65 89.77 129.13 137.29 129.13 113.84 162.97 79.99 162.97 37.96 176.65 24.29"/></g></svg>