<?xml version="1.0" encoding="UTF-8"?><svg id="Layer_2" xmlns="http://www.w3.org/2000/svg" viewBox="0 0 439.95 498.54"><defs><style>.cls-1,.cls-2,.cls-3,.cls-4,.cls-5{fill:#fff;}.cls-1,.cls-6{opacity:.2;}.cls-2,.cls-7{opacity:.4;}.cls-3,.cls-8{opacity:.6;}.cls-4,.cls-9{opacity:.8;}</style></defs><g id="Layer_3"><path class="cls-5" d="M321.42,40.61c.18,0,.36-.09.45-.25l5.89-10.37c.14-.24.05-.55-.19-.69-.24-.14-.55-.05-.69.19l-5.93,10.34c-.14.24-.06.55.18.69,0,0,.03.02.04.02.08.05.17.07.26.07Z"/><path class="cls-5" d="M318.23,38.81s.1,0,.14-.02c.13-.04.25-.12.31-.24l5.7-10.46c.13-.25.04-.56-.2-.69-.25-.13-.56-.04-.69.2l-5.75,10.43c-.13.24-.05.55.19.69,0,0,.04.02.04.02.08.04.17.07.26.07Z"/><path class="cls-5" d="M324.6,42.48c.18,0,.35-.09.44-.25l6.07-10.27c.14-.24.06-.55-.18-.7-.24-.14-.55-.06-.7.18l-6.12,10.24c-.14.24-.07.55.17.7l.26-.44-.26.44s.05.03.06.03c.08.04.16.06.24.06Z"/><path class="cls-5" d="M327.74,44.37c.17,0,.35-.08.44-.23l6.25-10.16c.15-.24.07-.55-.17-.7-.24-.15-.55-.07-.7.16l-6.29,10.13c-.07.12-.09.26-.06.39.03.13.12.25.23.32l.26-.44-.24.45c.09.05.18.08.28.08Z"/><path class="cls-5" d="M330.85,46.32c.17,0,.34-.07.43-.22l6.43-10.05c.15-.24.08-.55-.15-.7-.24-.15-.55-.08-.7.15l-6.47,10.02c-.07.11-.1.25-.07.39.03.13.11.25.22.32,0,0,.01,0,.01,0,.09.06.19.08.3.08Z"/><path class="cls-5" d="M314.99,37.09c.18,0,.36-.1.45-.27l5.52-10.56c.13-.25.03-.56-.21-.69-.25-.13-.56-.04-.69.21l-5.57,10.54c-.13.25-.04.55.21.69l.24-.45-.23.45s.05.02.05.03c.07.03.15.05.22.05Z"/><path class="cls-5" d="M311.72,35.41c.19,0,.37-.1.46-.28l5.33-10.66c.13-.25.02-.56-.23-.68-.25-.13-.56-.03-.68.22l-5.38,10.63c-.06.12-.07.27-.03.4.04.13.14.24.26.29,0,0,.05.03.06.03.07.03.14.04.2.04Z"/><path class="cls-5" d="M301.74,30.69c.2,0,.41-.1.49-.29l4.77-10.92c.11-.26,0-.56-.26-.67-.26-.11-.56,0-.67.26l-4.82,10.89c-.06.12-.06.27,0,.39.05.13.15.23.28.28,0,0,0,0,0,0,.07.03.14.04.21.04Z"/><path class="cls-5" d="M305.11,32.21c.19,0,.38-.11.47-.3l4.96-10.82c.12-.26,0-.56-.25-.68-.26-.12-.56,0-.68.25l-5,10.8c-.06.12-.06.27-.01.4.05.13.15.23.27.29,0,0,.05.02.05.02.07.03.13.04.2.04Z"/><path class="cls-5" d="M308.43,33.77c.19,0,.37-.11.46-.29l5.14-10.74c.12-.25.01-.56-.24-.68-.25-.12-.56-.02-.68.24l-5.19,10.72c-.12.24-.03.53.21.66.03.02.06.03.09.05.07.03.14.04.2.04Z"/><path class="cls-5" d="M348.72,59.21c.15,0,.3-.06.39-.18l7.46-9.34c.18-.22.14-.54-.08-.72-.22-.18-.54-.14-.72.08l-7.5,9.31c-.09.11-.13.25-.11.38.02.14.09.26.2.34.1.08.23.12.35.12Z"/><path class="cls-5" d="M357.11,66.33s.02,0,.02,0c.14,0,.28-.06.37-.16l7.94-8.94c.19-.21.17-.53-.04-.72-.21-.19-.53-.17-.72.04l-7.98,8.91c-.09.11-.14.24-.13.38.01.14.08.26.18.35.09.08.23.14.35.14Z"/><path class="cls-5" d="M354.37,63.91c.14,0,.28-.05.38-.17l7.78-9.08c.18-.21.16-.53-.05-.72-.21-.18-.53-.16-.72.05l-7.82,9.05c-.09.1-.13.24-.12.37,0,.13.07.26.18.35,0,0,.02.01.02.01.1.09.23.13.36.13Z"/><path class="cls-5" d="M351.57,61.53c.15,0,.29-.06.39-.18l7.61-9.2c.18-.22.15-.54-.07-.72-.22-.18-.54-.15-.72.07l-7.65,9.17c-.09.11-.13.24-.12.38.01.14.08.26.19.35l.31-.4-.3.41c.1.08.22.12.34.12Z"/><path class="cls-5" d="M362.53,71.31c.13,0,.27-.05.37-.15l8.24-8.66c.19-.2.19-.53-.02-.72-.2-.19-.53-.19-.72.02l-8.28,8.62c-.1.1-.15.24-.14.38,0,.14.07.27.18.36l.33-.39-.32.39c.1.09.23.14.36.14Z"/><path class="cls-5" d="M359.83,68.79h.01c.14,0,.28-.05.37-.15l8.09-8.8c.19-.21.18-.53-.03-.72-.21-.19-.53-.18-.72.03l-8.13,8.77c-.09.1-.14.23-.14.37,0,.14.07.26.17.35.1.09.24.16.37.16Z"/><path class="cls-5" d="M342.91,54.71c.16,0,.31-.06.41-.19l7.12-9.59c.17-.23.12-.54-.1-.71-.23-.17-.54-.12-.71.1l-7.16,9.56c-.08.11-.12.24-.1.38.02.13.09.25.2.34,0,0,.02.01.02.02.09.07.21.1.33.1Z"/><path class="cls-5" d="M339.95,52.54s.05,0,.07,0c.14-.02.26-.09.34-.21l6.95-9.71c.16-.23.11-.55-.12-.71-.23-.16-.55-.11-.71.12l-6.99,9.68c-.16.23-.12.54.11.71l.3-.41-.27.43c.09.07.2.11.31.11Z"/><path class="cls-5" d="M336.95,50.43c.16,0,.32-.08.42-.22l6.78-9.83c.16-.23.1-.55-.13-.71-.23-.16-.55-.1-.71.13l-6.82,9.8c-.08.11-.11.25-.08.39.03.13.1.25.22.33,0,0,.04.03.04.03.09.06.18.09.28.09Z"/><path class="cls-5" d="M345.83,56.94s.04,0,.06,0c.14-.02.27-.08.35-.19l7.29-9.47c.17-.22.13-.54-.09-.71-.22-.17-.54-.13-.71.09l-7.33,9.44c-.08.11-.12.25-.1.38.02.14.09.26.2.34l.31-.41-.3.42c.09.07.21.12.33.12Z"/><path class="cls-5" d="M333.91,48.36s.06,0,.08,0c.14-.02.26-.1.34-.22l6.61-9.95c.16-.23.09-.55-.14-.71-.23-.16-.55-.09-.71.14l-6.65,9.92c-.08.12-.11.27-.07.41.03.13.12.24.23.31.09.06.19.1.3.1ZM333.63,48.27h0s0,0,0,0Z"/><path class="cls-5" d="M298.37,29.24c.21,0,.41-.11.49-.3l4.58-10.99c.11-.26-.01-.56-.27-.67-.26-.11-.56.01-.67.27l-4.62,10.97c-.11.26.01.56.27.67,0,0,.02,0,.02,0,.07.03.14.04.21.04Z"/><path class="cls-5" d="M284.64,24.04c.22,0,.43-.13.5-.34l3.79-11.28c.09-.27-.05-.56-.32-.65-.27-.09-.56.05-.65.32l-3.84,11.26c-.09.26.05.55.31.64,0,0,.05.01.05.02.05.02.1.02.15.02Z"/><path class="cls-5" d="M238.07,14c.12,0,.23-.04.32-.11.11-.09.18-.21.19-.35l1.17-11.89c.03-.28-.18-.53-.46-.56-.27-.03-.53.18-.56.46l-1.22,11.89c-.01.14.03.27.11.38.09.11.21.17.35.18h.03s.04,0,.06,0Z"/><path class="cls-5" d="M245.37,14.85c.11,0,.22-.04.31-.1.11-.08.18-.2.2-.34l1.58-11.83c.04-.28-.16-.53-.44-.57-.28-.04-.54.16-.57.44l-1.63,11.82c-.04.28.15.53.43.57h.06s.05.01.07.01Z"/><path class="cls-5" d="M219.75,12.98c.13,0,.25-.05.35-.14.1-.1.16-.23.16-.37l.12-11.96c0-.28-.22-.51-.5-.52h0c-.28,0-.51.22-.51.5l-.18,11.96c0,.14.05.27.15.36.1.1.23.15.36.15h.02s.02,0,.03,0Z"/><path class="cls-5" d="M252.63,15.96c.1,0,.21-.03.29-.09.11-.08.19-.2.21-.33l1.99-11.77c.05-.28-.14-.54-.42-.59-.28-.05-.54.14-.59.42l-2.04,11.76c-.02.13,0,.27.09.39s.2.19.34.21h.03s.06.01.09.01Z"/><path class="cls-5" d="M248.98,15.37c.25,0,.49-.18.53-.43l1.78-11.8c.04-.28-.15-.54-.43-.58-.28-.04-.54.15-.58.43l-1.83,11.79c-.02.13.01.27.09.38.08.11.2.18.33.2,0,0,.03,0,.04,0,.02,0,.05,0,.07,0Z"/><path class="cls-5" d="M427.47,222.37h0s11.96-.08,11.96-.08c.28,0,.51-.23.51-.51,0-.28-.23-.51-.51-.51h0s-11.96.03-11.96.03c-.28,0-.51.23-.51.51v.05c0,.14.05.27.15.36.1.09.22.15.36.15Z"/><path class="cls-5" d="M223.42,13.05c.13,0,.25-.05.35-.13.1-.09.16-.22.17-.36l.33-11.94c0-.28-.21-.52-.49-.52h-.01c-.27,0-.5.22-.51.49l-.38,11.94c0,.14.05.27.14.37.1.1.23.16.36.16h.02s.02,0,.03,0Z"/><path class="cls-5" d="M227.09,13.2c.27,0,.5-.21.51-.49l.54-11.95c.01-.28-.2-.52-.48-.53,0,0-.02,0-.02,0-.27,0-.5.21-.51.48l-.59,11.95c-.01.28.2.52.48.53h.07s.01,0,.02,0Z"/><path class="cls-5" d="M234.42,13.66c.27,0,.49-.2.51-.47l.96-11.9c.02-.28-.19-.53-.47-.55-.28-.02-.53.19-.55.46l-1.01,11.9c-.01.14.03.27.12.38.09.1.22.17.35.17.02,0,.07,0,.08,0Z"/><path class="cls-5" d="M230.73,13.4c.27,0,.52-.21.54-.48l.75-11.93c.02-.28-.2-.52-.48-.54-.29-.02-.52.19-.54.47l-.8,11.93c-.02.28.19.52.46.54.02,0,.06,0,.07,0Z"/><path class="cls-5" d="M281.14,22.89c.08,0,.17-.02.24-.05.12-.06.23-.16.27-.29l3.6-11.34c.09-.27-.06-.55-.33-.64-.27-.08-.55.06-.64.33l-3.65,11.33c-.04.13-.03.27.03.39.06.12.17.21.3.25.05.02.11.03.17.03Z"/><path class="cls-5" d="M365.16,73.87c.13,0,.26-.04.35-.14l8.4-8.52c.2-.2.2-.52,0-.72-.2-.2-.52-.2-.72,0l-8.44,8.48c-.2.2-.2.52,0,.72l.02.02c.11.1.25.16.39.16Z"/><path class="cls-5" d="M259.85,17.31c.24,0,.45-.17.5-.41l2.4-11.67c.06-.28-.12-.54-.4-.6-.27-.06-.54.12-.6.39l-2.45,11.66c-.06.28.12.55.39.6h.06s.06.02.09.02Z"/><path class="cls-5" d="M291.57,26.53c.21,0,.4-.13.48-.33l4.19-11.14c.1-.26-.03-.56-.3-.66-.26-.1-.56.03-.66.3l-4.24,11.12c-.1.26.02.54.28.65.03.01.06.02.09.03.05.02.11.03.16.03Z"/><path class="cls-5" d="M288.09,25.25c.22,0,.44-.12.51-.33l3.99-11.22c.09-.26-.04-.56-.31-.65-.27-.1-.56.04-.65.31l-4.04,11.2c-.05.13-.04.27.02.4.06.12.17.22.3.26.06.02.12.03.18.03Z"/><path class="cls-5" d="M277.64,21.81c.09,0,.17-.02.25-.06.12-.06.22-.17.26-.3l3.4-11.41c.08-.27-.07-.55-.34-.63-.27-.08-.55.07-.63.34l-3.45,11.4c-.04.13-.03.27.04.39.06.12.17.21.3.25l.15-.49-.12.5s.1.02.16.02Z"/><path class="cls-5" d="M294.99,27.85c.2,0,.4-.12.48-.32l4.38-11.06c.1-.26-.02-.56-.29-.66-.26-.1-.56.02-.66.28l-4.42,11.04c-.1.25.01.54.26.65.03.01.06.03.09.04.06.02.11.03.17.03Z"/><path class="cls-5" d="M267.02,18.93c.23,0,.44-.16.5-.39l2.8-11.58c.07-.27-.1-.55-.37-.62-.27-.07-.55.1-.62.37l-2.85,11.57c-.03.13-.01.28.06.39.07.12.19.2.32.23,0,0,.06.01.06.01.03,0,.06,0,.09,0Z"/><path class="cls-5" d="M263.44,18.09c.23,0,.45-.16.5-.4l2.6-11.63c.06-.27-.11-.55-.38-.61-.28-.06-.55.11-.61.38l-2.65,11.62c-.06.27.1.54.38.61l.08.02s.06,0,.1,0Z"/><path class="cls-5" d="M270.58,19.82c.23,0,.43-.15.49-.38l3-11.51c.07-.27-.09-.55-.36-.62-.27-.07-.55.09-.62.36l-3.05,11.5c-.07.27.08.54.35.62l.07.02s.08.01.12.01Z"/><path class="cls-5" d="M274.12,20.79c.09,0,.17-.02.25-.06.12-.07.21-.18.25-.31l3.2-11.47c.08-.27-.08-.55-.35-.63-.27-.07-.55.08-.63.35l-3.25,11.46c-.04.13-.02.28.05.4.07.12.18.21.32.24h.02s.1.03.15.03Z"/><path class="cls-5" d="M256.24,16.6c.1,0,.2-.03.28-.09.11-.08.19-.2.22-.33l2.19-11.72c.05-.28-.13-.54-.41-.59-.27-.05-.54.13-.6.4l-2.24,11.71c-.03.14,0,.28.08.39.08.11.2.19.34.21l.08-.5-.06.51s.07.01.11.01Z"/><path class="cls-5" d="M423.47,182.24s.07,0,.1-.01l11.68-2.36c.28-.06.45-.32.4-.6-.05-.28-.32-.46-.6-.4l-11.69,2.3c-.28.05-.45.32-.4.59,0,.02.02.08.02.1.06.22.27.37.49.37Z"/><path class="cls-5" d="M420.1,167.94s.09,0,.14-.02l11.48-3.16c.27-.07.43-.35.36-.63-.07-.27-.36-.43-.62-.36l-11.49,3.11c-.13.04-.24.12-.31.24-.07.12-.08.26-.05.39,0,0,.01.05.01.05.06.22.27.37.49.37Z"/><path class="cls-5" d="M421.05,171.48s.08,0,.12-.01l11.53-2.96c.27-.07.44-.35.37-.62-.07-.27-.35-.44-.62-.37l-11.54,2.91c-.14.03-.25.12-.32.24-.07.12-.09.26-.05.4l.49-.15-.48.16c.06.23.27.4.5.4Z"/><path class="cls-5" d="M422.72,178.64s.07,0,.1-.01l11.64-2.56c.27-.06.45-.33.39-.61-.06-.27-.33-.45-.61-.39l-11.65,2.51c-.27.06-.45.33-.39.6,0,0,0,.04,0,.04.06.24.27.42.51.42Z"/><path class="cls-5" d="M421.91,175.06s.07,0,.11-.01l11.59-2.76c.27-.07.44-.34.38-.61-.07-.27-.34-.44-.61-.38l-11.6,2.71c-.27.06-.44.33-.38.6,0,0,0,.04.01.05.06.24.27.41.51.41Z"/><path class="cls-5" d="M419.11,164.4s.09,0,.13-.02l11.43-3.36c.27-.08.42-.36.35-.63-.08-.27-.36-.43-.63-.35l-11.44,3.31c-.13.04-.24.13-.3.24-.07.12-.08.26-.04.39l.49-.14-.48.16c.03.13.12.26.24.33.08.05.17.07.27.07Z"/><path class="cls-5" d="M418.06,160.88s.09,0,.14-.02l11.35-3.56c.27-.08.42-.37.33-.64-.08-.27-.37-.42-.64-.34l-11.37,3.51c-.27.08-.42.36-.34.63,0,0,.01.04.02.05.07.21.28.36.5.36Z"/><path class="cls-5" d="M413.21,147.01c.06,0,.13-.01.19-.04l11.07-4.34c.26-.1.39-.4.29-.66-.1-.26-.4-.39-.66-.29l-11.09,4.29c-.25.1-.38.37-.3.63,0,.03.02.06.03.09.08.19.27.31.47.31Z"/><path class="cls-5" d="M414.5,150.45c.06,0,.12,0,.18-.03l11.16-4.15c.26-.1.4-.39.3-.65-.1-.26-.39-.4-.65-.3l-11.18,4.1c-.25.09-.39.37-.31.63,0,.01.02.07.03.08.08.2.27.32.48.32Z"/><path class="cls-5" d="M416.94,157.38s.1,0,.15-.02l11.29-3.76c.27-.09.41-.38.32-.64-.09-.27-.38-.41-.64-.32l-11.31,3.71c-.13.04-.24.14-.3.27-.06.13-.06.27-.01.4.07.22.29.37.51.37Z"/><path class="cls-5" d="M415.76,153.9c.05,0,.1,0,.15-.03l11.23-3.95c.27-.09.4-.38.31-.65-.09-.27-.38-.41-.65-.31l-11.25,3.91c-.13.05-.24.15-.3.27-.06.13-.06.27,0,.4.08.21.29.36.51.36Z"/><path class="cls-5" d="M427.32,215.03s.01,0,.02,0l11.95-.5c.28-.01.5-.25.49-.53-.01-.28-.27-.51-.53-.49l-11.95.45c-.27.01-.49.23-.49.51,0,0,0,.04,0,.05,0,.14.06.28.16.37.09.09.22.15.35.15Z"/><path class="cls-5" d="M426.92,207.7s.03,0,.04,0l11.91-.92c.28-.02.49-.27.47-.55-.02-.28-.26-.49-.55-.47l-11.91.86c-.14,0-.26.07-.35.18-.09.1-.13.24-.12.37,0,0,0,.03,0,.04.03.26.25.48.51.48Z"/><path class="cls-5" d="M427.14,211.36s.02,0,.03,0l11.93-.71c.28-.02.49-.26.48-.54-.02-.28-.25-.49-.54-.48l-11.94.66c-.14,0-.27.07-.36.17-.09.1-.14.24-.12.38,0,0,0,.01,0,.01.02.27.25.51.51.51Z"/><path class="cls-5" d="M411.86,143.6c.06,0,.11,0,.17-.03l11.01-4.54c.26-.11.38-.4.28-.66-.11-.26-.4-.38-.66-.28l-11.03,4.49c-.13.05-.23.15-.28.27-.05.12-.05.27,0,.39l.47-.19-.47.21c.05.13.16.24.28.3.07.03.15.05.23.05Z"/><path class="cls-5" d="M426.61,204.04s.03,0,.05,0l11.89-1.13c.28-.03.49-.27.46-.55-.03-.28-.27-.5-.55-.46l-11.9,1.07c-.26.02-.46.24-.46.51,0,.02,0,.07,0,.09.01.13.08.27.18.35.09.08.21.12.33.12Z"/><path class="cls-5" d="M427.44,218.7h.01s11.94-.29,11.94-.29c.28,0,.5-.24.5-.52,0-.28-.22-.5-.52-.5l-11.94.24c-.14,0-.28.07-.37.17-.09.1-.14.24-.12.38,0,.13.06.27.16.36.1.09.22.15.35.15Z"/><path class="cls-5" d="M424.15,185.84s.06,0,.09,0l11.73-2.15c.28-.05.46-.32.41-.59-.05-.28-.32-.46-.59-.41l-11.74,2.1c-.28.05-.46.31-.41.59,0,0,0,.05.01.05.05.24.27.42.51.42Z"/><path class="cls-5" d="M424.76,189.47s.06,0,.09,0l11.77-1.95c.28-.05.47-.31.42-.59-.05-.28-.3-.47-.58-.42l-11.78,1.9c-.14.02-.26.1-.34.21-.08.11-.11.25-.08.39,0,.01,0,.05,0,.05.05.24.26.41.5.41Z"/><path class="cls-5" d="M426.23,200.38s.04,0,.06,0l11.87-1.33c.28-.03.48-.28.45-.56-.03-.28-.28-.48-.56-.45l-11.88,1.28c-.14.01-.26.08-.34.19-.08.11-.12.24-.11.38v.04c.01.14.08.26.19.35.09.08.21.12.32.12Z"/><path class="cls-5" d="M425.32,193.09s.05,0,.08,0l11.8-1.74c.28-.04.47-.3.43-.58-.04-.28-.3-.48-.58-.43l-11.81,1.69c-.27.04-.46.28-.44.55,0,.03,0,.07.01.1.04.25.26.42.5.42Z"/><path class="cls-5" d="M425.81,196.73s.05,0,.07,0l11.83-1.54c.28-.04.48-.29.44-.57s-.3-.47-.57-.44l-11.84,1.49c-.14.02-.27.09-.35.21-.08.11-.11.25-.09.39,0,.01,0,.05,0,.06.05.24.26.41.5.41Z"/><path class="cls-5" d="M382.28,93.03c.11,0,.22-.03.31-.1l9.37-7.43c.22-.17.26-.49.08-.72-.17-.22-.49-.26-.72-.09l-9.4,7.39c-.11.09-.18.21-.19.35-.01.14.03.27.12.38l.39-.33-.38.34c.1.13.27.2.42.2Z"/><path class="cls-5" d="M367.73,76.49c.13,0,.26-.05.36-.15l8.54-8.37c.2-.2.2-.52,0-.72-.2-.2-.52-.21-.72,0l-8.58,8.33c-.2.19-.21.51-.01.72l.05.05c.1.09.23.14.35.14Z"/><path class="cls-5" d="M384.52,95.93c.11,0,.22-.03.31-.09l9.5-7.26c.22-.17.27-.49.1-.71s-.49-.27-.71-.1l-9.53,7.22c-.11.09-.19.21-.2.36-.01.14.03.28.12.38.08.11.21.19.34.2.03,0,.05,0,.08,0Z"/><path class="cls-5" d="M390.98,104.87c.1,0,.19-.03.27-.08l9.85-6.75c.23-.16.29-.48.13-.71-.16-.23-.47-.29-.71-.13l-9.88,6.7c-.11.08-.19.19-.21.33-.02.13,0,.27.08.38,0,0,.01.02.01.02.1.15.28.23.45.24Z"/><path class="cls-5" d="M386.72,98.88c.11,0,.21-.03.3-.09l9.62-7.09c.23-.17.27-.49.11-.71-.17-.23-.49-.28-.71-.11l-9.65,7.05c-.11.08-.18.2-.2.34-.02.13.02.27.1.38l.41-.31-.4.32c.08.11.2.19.34.22.03,0,.06,0,.09,0Z"/><path class="cls-5" d="M379.98,90.17c.11,0,.23-.04.32-.11l9.23-7.58c.22-.18.25-.5.07-.72-.18-.22-.5-.25-.72-.07l-9.26,7.54c-.21.17-.25.48-.09.7,0,0,.04.05.05.06.1.12.25.18.4.18Z"/><path class="cls-5" d="M410.41,140.22c.07,0,.14-.01.2-.04l10.93-4.73c.26-.11.38-.41.27-.67-.11-.26-.41-.38-.67-.27l-10.95,4.68c-.12.05-.22.15-.27.28-.05.13-.05.27,0,.39l.47-.2-.46.21s.03.06.03.06c.09.18.27.28.46.28Z"/><path class="cls-5" d="M377.62,87.35c.12,0,.23-.04.33-.12l9.11-7.75c.21-.18.24-.5.06-.72-.18-.21-.5-.24-.72-.06l-9.14,7.71c-.21.17-.24.48-.08.69,0,0,.04.05.05.06.1.12.25.18.4.18Z"/><path class="cls-5" d="M370.28,79.14c.13,0,.25-.05.35-.14l8.68-8.21c.2-.19.21-.51.02-.72-.19-.2-.51-.21-.72-.02l-8.72,8.18c-.2.19-.22.5-.03.71l.38-.34-.38.34s.05.05.05.06c.1.1.23.15.36.15Z"/><path class="cls-5" d="M372.78,81.83c.12,0,.24-.04.34-.13l8.83-8.06c.21-.19.22-.51.03-.72-.19-.21-.51-.22-.72-.04l-8.86,8.02c-.2.18-.22.5-.05.71,0,.01.04.04.05.05.1.1.25.16.39.16Z"/><path class="cls-5" d="M375.21,84.57c.12,0,.25-.04.34-.12l8.97-7.91c.21-.19.23-.51.05-.72-.19-.21-.51-.23-.72-.05l-9,7.87c-.1.09-.17.22-.17.35,0,.14.04.27.13.37l.38-.34-.37.35c.09.1.22.18.36.19.01,0,.03,0,.04,0Z"/><path class="cls-5" d="M388.89,101.85c.1,0,.19-.03.28-.09l9.73-6.92c.23-.16.28-.48.12-.71-.16-.23-.48-.29-.71-.12l-9.76,6.87c-.11.08-.19.2-.21.33-.02.13,0,.27.09.38l.41-.3-.41.31c.1.15.28.23.46.23Z"/><path class="cls-5" d="M402.41,123.69c.09,0,.18-.02.26-.07l10.48-5.66c.25-.13.34-.44.21-.69-.13-.25-.44-.34-.69-.21l-10.5,5.62c-.25.13-.34.44-.21.69,0,0,.02.03.02.03.06.13.16.22.3.27.05.02.1.02.15.02Z"/><path class="cls-5" d="M405.81,130.21c.07,0,.14-.01.2-.04l10.68-5.3c.25-.12.35-.43.23-.68-.12-.25-.43-.36-.68-.23l-10.7,5.25c-.25.12-.35.42-.24.67,0,0,0,.02,0,.02.06.12.17.23.3.28.06.02.13.03.2.03Z"/><path class="cls-5" d="M404.13,126.94c.08,0,.16-.02.24-.06l10.58-5.49c.25-.13.35-.44.22-.69-.13-.25-.43-.35-.69-.22l-10.6,5.44c-.25.13-.35.44-.22.69l.03.06c.09.17.26.26.44.26Z"/><path class="cls-5" d="M408.95,136.85c.07,0,.13-.01.19-.04l10.84-4.92c.26-.12.37-.42.25-.67-.12-.26-.42-.37-.67-.26l-10.86,4.87c-.12.06-.22.16-.27.29-.05.13-.04.27.01.39,0,0,0,.02,0,.02.09.19.29.32.49.32Z"/><path class="cls-5" d="M407.39,133.52c.07,0,.15-.02.22-.05l10.75-5.11c.25-.12.36-.42.24-.68-.12-.25-.42-.36-.68-.24l-10.78,5.06c-.25.12-.36.41-.25.66l.47-.2-.47.2s.04.08.04.09c.09.17.27.27.45.27Z"/><path class="cls-5" d="M400.67,120.47c.08,0,.16-.02.23-.06l10.39-5.85c.24-.14.33-.45.19-.69-.14-.24-.45-.33-.69-.2l-10.41,5.81c-.12.07-.21.19-.25.32-.03.14,0,.28.07.4.1.17.29.27.47.27Z"/><path class="cls-5" d="M395.02,111c.09,0,.18-.02.26-.07l10.07-6.39c.24-.15.31-.46.16-.7-.15-.24-.46-.31-.7-.16l-10.1,6.35c-.12.07-.2.19-.23.33-.03.14,0,.28.08.39l.42-.29-.41.31c.1.15.27.24.45.24Z"/><path class="cls-5" d="M396.95,114.13c.09,0,.18-.02.26-.07l10.18-6.22c.24-.15.32-.46.17-.7-.15-.24-.46-.32-.7-.17l-10.21,6.17c-.24.14-.32.46-.17.7,0,0,.03.05.04.06.1.15.27.23.44.23Z"/><path class="cls-5" d="M393.02,107.92c.09,0,.19-.03.27-.08l9.97-6.57c.23-.15.3-.47.15-.71-.15-.24-.47-.3-.7-.15l-10,6.53c-.12.08-.2.2-.22.33-.03.14,0,.28.09.39l.42-.29-.4.31c.1.15.27.23.44.23Z"/><path class="cls-5" d="M398.82,117.29c.09,0,.18-.02.26-.07l10.29-6.04c.24-.14.32-.45.18-.7-.14-.24-.45-.33-.7-.18l-10.31,5.99c-.24.14-.32.44-.19.68.02.03.03.06.05.08.1.15.26.23.42.23Z"/><path class="cls-5" d="M241.68,14.39c.26,0,.52-.19.56-.45l1.37-11.87c.03-.28-.17-.53-.45-.56-.28-.04-.53.17-.57.45l-1.42,11.86c-.02.14.02.27.11.38.09.11.21.17.35.19h0s.03,0,.05,0Z"/><path class="cls-5" d="M439.42,226.17c.28,0,.51-.22.51-.5,0-.28-.22-.51-.5-.52l-11.96-.18c-.13-.01-.27.05-.36.15-.1.1-.15.23-.15.36v.05c0,.28.22.51.5.51l11.96.12h0Z"/><path class="cls-5" d="M422.18,309.26c.2,0,.39-.12.47-.31.11-.26-.01-.56-.27-.67l-10.97-4.62c-.13-.05-.27-.05-.39,0-.13.05-.23.15-.28.28l-.02.05c-.05.12-.05.27,0,.39.05.13.15.22.28.28l10.99,4.58c.06.03.13.04.19.04Z"/><path class="cls-5" d="M420.65,312.83c.2,0,.38-.11.47-.3.11-.26,0-.56-.26-.67l-10.9-4.82c-.25-.11-.53,0-.66.23,0,.01-.03.06-.03.07-.11.26,0,.57.26.68l10.92,4.77c.07.03.13.04.2.04Z"/><path class="cls-5" d="M419.06,316.37c.19,0,.38-.11.47-.3.12-.26,0-.56-.25-.68l-10.8-5c-.26-.12-.56,0-.68.25l.46.22-.47-.19c-.06.12-.07.28-.02.4.05.13.14.24.26.3l10.83,4.96c.07.03.14.05.21.05Z"/><path class="cls-5" d="M417.4,319.88c.19,0,.37-.11.46-.29.12-.25.02-.56-.24-.68l-10.71-5.19c-.25-.12-.54-.02-.67.22-.02.03-.03.06-.04.09-.1.25,0,.54.25.66l10.74,5.14c.07.03.14.05.22.05Z"/><path class="cls-5" d="M438.33,245.54c.26,0,.48-.2.51-.46.03-.28-.18-.53-.46-.56l-11.88-1.22c-.14-.01-.27.03-.38.11-.1.09-.17.21-.18.35l.51.05-.51-.04s0,.07,0,.09c0,.26.2.48.46.51l11.89,1.17s.03,0,.05,0Z"/><path class="cls-5" d="M437.42,253.25c.25,0,.47-.18.51-.44.04-.28-.16-.54-.44-.57l-11.82-1.63c-.26-.03-.51.14-.57.4,0,0,0,.04,0,.05-.02.13.01.29.09.39.08.11.2.19.34.21l11.83,1.58s.04,0,.07,0Z"/><path class="cls-5" d="M437.91,249.4c.26,0,.48-.19.51-.45.03-.28-.17-.53-.45-.57l-11.86-1.42c-.14-.02-.27.02-.38.11-.11.09-.17.21-.19.35v.04c-.02.13.02.27.1.38.08.11.21.18.34.19l11.87,1.37s.04,0,.06,0Z"/><path class="cls-5" d="M436.25,260.92c.24,0,.46-.17.5-.42.05-.28-.14-.54-.42-.59l-11.76-2.04c-.27-.04-.53.13-.59.4,0,0,0,.04,0,.05-.04.28.14.56.41.6l11.77,1.99s.06,0,.08,0Z"/><path class="cls-5" d="M436.87,257.09c.25,0,.47-.18.51-.43.04-.28-.15-.54-.43-.58l-11.79-1.83c-.27-.04-.53.14-.58.41,0,.03-.01.06-.01.1-.02.27.17.51.43.55l11.8,1.78s.05,0,.07,0Z"/><path class="cls-5" d="M439.19,233.93c.27,0,.5-.21.51-.49.01-.28-.2-.52-.48-.53l-11.94-.59c-.14,0-.27.04-.38.14-.1.1-.16.23-.16.37,0,0,0,.05,0,.05,0,.27.21.5.49.51l11.94.54s.01,0,.02,0ZM426.74,232.82h0s0,0,0,0Z"/><path class="cls-5" d="M435.56,264.74c.24,0,.46-.17.5-.41.05-.28-.13-.54-.4-.6l-11.71-2.24c-.27-.05-.54.12-.59.39,0,0,0,.04,0,.04-.03.13,0,.28.08.39.08.11.19.2.33.22l11.72,2.19s.06,0,.09,0Z"/><path class="cls-5" d="M438.68,241.67c.26,0,.49-.2.51-.47.02-.28-.19-.53-.46-.55l-11.9-1.01c-.29-.02-.53.18-.55.46l.51.05-.51-.03c-.01.14.03.29.11.39.09.11.21.19.35.2l11.9.96s.03,0,.04,0Z"/><path class="cls-5" d="M439.34,230.05c.28,0,.5-.22.51-.49,0-.28-.21-.52-.49-.53l-11.94-.38c-.13,0-.27.05-.37.14-.1.1-.16.23-.16.36h.51s-.51.01-.51.01c0,.28.21.54.49.55l11.94.33h.01Z"/><path class="cls-5" d="M438.97,237.8c.27,0,.49-.21.51-.48.02-.28-.19-.52-.47-.54l-11.93-.8c-.14,0-.28.04-.38.14-.1.09-.16.22-.16.36,0,.13.03.28.12.38.09.1.22.18.35.19l11.93.75s.02,0,.03,0ZM426.53,236.49h0s0,0,0,0Z"/><path class="cls-5" d="M427.67,294.74c.21,0,.41-.13.48-.35.09-.27-.05-.56-.32-.65l-11.26-3.84c-.13-.04-.27-.03-.39.03-.12.06-.21.17-.26.3,0,0,0,0,0,0-.08.27.05.59.31.68l11.28,3.79c.05.02.11.03.16.03Z"/><path class="cls-5" d="M428.89,291.06c.22,0,.42-.14.49-.35.09-.27-.06-.55-.33-.64l-11.33-3.65c-.13-.04-.27-.03-.39.03-.12.06-.21.17-.25.3,0,0-.02.05-.02.06-.08.27.07.55.33.63l11.34,3.6c.05.02.1.02.15.02Z"/><path class="cls-5" d="M423.65,305.67c.2,0,.4-.12.48-.32.1-.26-.02-.56-.28-.66h0s-11.04-4.43-11.04-4.43c-.26-.1-.55.02-.66.28-.01.03-.02.06-.03.09-.08.26.05.53.3.63l11.06,4.38c.06.02.12.04.19.04Z"/><path class="cls-5" d="M426.4,298.41c.21,0,.41-.13.48-.34.1-.27-.04-.56-.31-.65l-11.2-4.04c-.26-.09-.55.04-.65.3,0,0,0,.02,0,.02-.05.13-.05.28,0,.41.06.12.16.23.28.28l11.22,3.99c.06.02.11.03.17.03Z"/><path class="cls-5" d="M425.06,302.05c.21,0,.4-.12.48-.33.1-.26-.03-.56-.3-.66l-11.13-4.24c-.26-.1-.55.03-.65.28l.47.19-.47-.19s-.03.07-.03.09c-.08.26.05.54.31.63l11.14,4.19c.06.02.12.03.18.03Z"/><path class="cls-5" d="M430.04,287.35c.22,0,.42-.14.49-.36.08-.27-.07-.55-.34-.63l-11.4-3.45c-.27-.08-.55.07-.64.34,0,0,0,.03,0,.03-.04.13-.03.28.04.4.06.12.17.22.3.26l11.41,3.4s.1.02.14.02Z"/><path class="cls-5" d="M434.8,268.54c.24,0,.45-.17.5-.41.06-.28-.12-.54-.39-.6l-11.66-2.44c-.25-.05-.51.1-.59.35,0,.02-.02.08-.02.1-.04.27.13.55.4.6l11.67,2.39s.07.01.1.01Z"/><path class="cls-5" d="M431.12,283.62c.22,0,.43-.15.49-.37.08-.27-.08-.55-.35-.63l-11.46-3.25c-.27-.08-.55.08-.63.35,0,0,0,.03-.01.04-.07.27.08.57.35.64l11.47,3.2s.09.02.14.02Z"/><path class="cls-5" d="M433.09,276.12c.23,0,.44-.16.5-.39.07-.27-.1-.55-.37-.62l-11.57-2.85c-.13-.03-.28-.01-.39.06-.12.07-.2.19-.23.33-.06.27.09.58.37.65l11.58,2.8s.08.01.12.01Z"/><path class="cls-5" d="M433.98,272.34c.23,0,.45-.16.5-.4.06-.27-.11-.55-.38-.61l-11.62-2.65c-.13-.03-.27,0-.39.07-.11.07-.19.19-.22.32-.03.13-.01.29.06.41.07.12.18.22.32.25l11.63,2.6s.07.01.11.01Z"/><path class="cls-5" d="M432.14,279.88c.23,0,.43-.15.49-.38.07-.27-.09-.55-.36-.62l-11.5-3.05c-.14-.04-.28-.01-.4.06-.12.07-.2.19-.23.32-.03.13-.02.28.05.4.07.12.18.22.31.25l11.52,3s.09.02.13.02Z"/><path class="cls-5" d="M44.19,166.36c0-1.82,1.49-3.29,3.31-3.29,1.82,0,3.29,1.49,3.29,3.31s-1.49,3.29-3.31,3.29c-1.82,0-3.29-1.49-3.29-3.31Z"/><g class="cls-8"><path class="cls-5" d="M28.84,330.01c.17,0,.34-.04.5-.13.49-.28.66-.9.39-1.39C11.47,296.18,1.9,259.36,2.04,222.03,2.49,105.76,97.4,9.69,213.6,7.85c.56,0,1.01-.47,1-1.04,0-.56-.47-1.01-1.04-1-57.07.9-110.63,23.77-150.82,64.39C22.51,110.88.22,164.79,0,222.02c-.15,37.69,9.52,74.85,27.95,107.47.19.33.53.52.88.52Z"/></g><path class="cls-5" d="M53.79,317.99c.09,0,.18-.02.26-.07.24-.14.33-.45.18-.7-16.7-28.76-25.46-61.65-25.33-95.1.4-103.76,85.14-187.85,188.91-187.45,103.76.4,187.85,85.14,187.45,188.91-.11,27.54-6.02,54.06-17.59,78.82-.12.26,0,.56.25.68.26.12.56,0,.68-.25,11.63-24.89,17.58-51.56,17.69-79.25.1-25.54-4.81-50.34-14.58-73.7-9.44-22.57-23.01-42.85-40.31-60.3-17.31-17.44-37.49-31.16-59.98-40.78-23.29-9.96-48.05-15.05-73.59-15.15-25.54-.1-50.34,4.81-73.7,14.58-22.57,9.44-42.85,23.01-60.3,40.31-17.44,17.31-31.16,37.49-40.78,59.98-9.96,23.29-15.05,48.05-15.15,73.59-.13,33.63,8.68,66.69,25.47,95.61.09.16.26.25.44.25Z"/><path class="cls-5" d="M205.17,34.12c0-1.82,1.49-3.29,3.31-3.29,1.82,0,3.29,1.49,3.29,3.31,0,1.82-1.49,3.29-3.31,3.29-1.82,0-3.29-1.49-3.29-3.31Z"/><g class="cls-8"><path class="cls-5" d="M66.17,318.62c.09,0,.19-.03.27-.08.24-.15.31-.47.16-.7-18.08-28.59-27.57-61.67-27.44-95.66.38-98.1,80.5-177.61,178.61-177.23,98.1.38,177.61,80.5,177.23,178.61-.1,26-5.68,51.04-16.58,74.42-.12.25,0,.56.25.68.26.12.56,0,.68-.25,10.96-23.51,16.57-48.69,16.68-74.84.09-24.16-4.55-47.61-13.79-69.7-8.93-21.34-21.76-40.53-38.13-57.03-16.37-16.5-35.46-29.47-56.73-38.57-22.02-9.42-45.44-14.24-69.6-14.33-24.16-.09-47.61,4.55-69.71,13.79-21.34,8.93-40.53,21.76-57.03,38.13-16.5,16.37-29.47,35.46-38.57,56.73-9.42,22.02-14.24,45.44-14.33,69.6-.13,34.19,9.41,67.46,27.6,96.21.1.15.26.24.43.24Z"/></g><g class="cls-8"><path class="cls-5" d="M216.38,401.8c.28,0,.51-.23.51-.51s-.23-.51-.51-.51c-37.55-.15-73.42-11.84-103.71-33.83-.23-.16-.55-.11-.71.11-.17.23-.11.55.11.71,30.47,22.11,66.53,33.88,104.3,34.02Z"/></g><path class="cls-5" d="M216.34,412.06c.28,0,.51-.23.51-.51s-.23-.51-.51-.51c-37.66-.15-73.95-11.37-104.97-32.46-.23-.16-.55-.1-.71.13-.16.23-.1.55.13.71,31.18,21.21,67.68,32.49,105.54,32.64Z"/><g class="cls-8"><path class="cls-5" d="M216.23,439.93c3.39.01,6.81-.05,10.17-.19.56-.02,1-.5.98-1.06-.02-.56-.51-.98-1.06-.98-3.33.14-6.72.21-10.08.19-42.06-.16-82.76-12.46-117.68-35.57-.47-.31-1.1-.18-1.41.29-.31.47-.18,1.1.29,1.41,35.26,23.33,76.34,35.75,118.8,35.91Z"/></g><path class="cls-5" d="M91.29,335.08c.73,0,1.32-.59,1.33-1.32,0-.73-.59-1.32-1.32-1.33-.73,0-1.32.59-1.33,1.32,0,.73.59,1.32,1.32,1.33ZM91.29,333.45c.17,0,.3.14.3.3s-.14.3-.3.3-.3-.14-.3-.3.14-.3.3-.3Z"/><path class="cls-5" d="M62.38,412.63c10.58.04,21.22-3.61,29.79-11.11,16.04-14.02,20.05-37.62,9.55-56.11-.14-.24-.45-.33-.69-.19-.24.14-.33.45-.19.69,10.27,18.08,6.34,41.14-9.33,54.84-8.38,7.32-18.78,10.9-29.12,10.86-12.21-.05-24.35-5.13-33-15.03-7.74-8.85-11.57-20.19-10.78-31.92.79-11.73,6.1-22.45,14.95-30.19,16.15-14.12,39.95-14.59,56.61-1.13.22.18.54.14.72-.08.18-.22.14-.54-.08-.72-17.04-13.78-41.4-13.29-57.92,1.15-9.06,7.92-14.49,18.89-15.29,30.89-.81,12,3.11,23.6,11.03,32.66,8.85,10.12,21.27,15.33,33.76,15.37Z"/><path class="cls-5" d="M100.63,346.01c.73,0,1.32-.59,1.33-1.32,0-.73-.59-1.33-1.32-1.33s-1.33.59-1.33,1.32c0,.73.59,1.32,1.32,1.33ZM100.63,344.39c.17,0,.3.14.3.3s-.14.3-.3.3-.3-.14-.3-.3.14-.3.3-.3Z"/><g class="cls-7"><path class="cls-5" d="M62.55,407.6c21.82.08,39.64-17.6,39.72-39.42.08-21.82-17.6-39.64-39.42-39.72-21.82-.08-39.64,17.6-39.72,39.42-.08,21.82,17.6,39.64,39.42,39.72ZM62.85,330.5c20.69.08,37.47,16.98,37.39,37.68-.08,20.7-16.98,37.47-37.68,37.39-20.69-.08-37.47-16.98-37.39-37.68.08-20.69,16.98-37.46,37.68-37.38Z"/></g><path class="cls-5" d="M61.46,398.86c7.33.03,14.71-2.47,20.7-7.62,11.34-9.74,14.3-26.28,7.04-39.32-.14-.25-.45-.33-.69-.2-.25.14-.33.45-.2.69,7.03,12.62,4.16,28.62-6.81,38.05-6.2,5.32-14.09,7.91-22.24,7.3-8.15-.62-15.56-4.37-20.89-10.56-10.99-12.79-9.52-32.14,3.26-43.13,11.3-9.71,27.84-9.9,39.33-.45.22.18.54.15.72-.07.18-.22.15-.54-.07-.72-11.87-9.77-28.97-9.57-40.65.46-13.21,11.36-14.73,31.35-3.37,44.56,6.21,7.23,15.01,10.96,23.87,10.99Z"/><polygon class="cls-5" points="85.4 350.59 86.94 346.2 82.37 347.06 85.4 350.59"/><path class="cls-5" d="M61.61,382.03c3.94.02,7.66-1.51,10.45-4.28,5.78-5.73,5.81-15.1.08-20.87-5.73-5.78-15.1-5.81-20.87-.08-2.8,2.78-4.35,6.48-4.36,10.42-.02,3.94,1.51,7.66,4.28,10.45h0c2.78,2.8,6.48,4.35,10.42,4.36ZM61.72,353.54c3.52.01,7.03,1.37,9.7,4.05,5.34,5.38,5.3,14.1-.08,19.43-2.61,2.59-6.06,4-9.73,3.99-3.67-.01-7.12-1.46-9.7-4.06h0c-2.59-2.61-4-6.06-3.99-9.73.01-3.67,1.46-7.12,4.06-9.7,2.69-2.67,6.21-3.99,9.73-3.98Z"/><path class="cls-5" d="M329.03,462.28c37.12.14,67.43-29.94,67.58-67.05.14-37.12-29.94-67.43-67.05-67.58-37.12-.14-67.43,29.94-67.57,67.05-.14,37.12,29.94,67.43,67.05,67.58ZM329.54,328.67c36.56.14,66.18,30,66.04,66.55-.14,36.56-30,66.18-66.55,66.04-36.56-.14-66.18-30-66.04-66.55.14-36.56,30-66.18,66.55-66.04Z"/><g class="cls-8"><path class="cls-5" d="M329.01,465.48c38.88.15,70.64-31.36,70.79-70.24.15-38.88-31.36-70.64-70.24-70.79-38.88-.15-70.64,31.36-70.79,70.24-.15,38.88,31.36,70.64,70.24,70.79ZM329.55,325.47c38.32.15,69.38,31.45,69.23,69.77-.15,38.32-31.44,69.37-69.76,69.23-38.32-.15-69.38-31.44-69.23-69.76.15-38.32,31.44-69.38,69.76-69.23Z"/></g><path class="cls-5" d="M380.94,344.21c.13,0,.26-.05.36-.15l20.73-20.57c.2-.2.2-.52,0-.72-.2-.2-.52-.2-.72,0l-20.73,20.57c-.2.2-.2.52,0,.72.1.1.23.15.36.15Z"/><path class="cls-5" d="M278.29,344.08c.13,0,.26-.05.36-.15.2-.2.2-.52,0-.72l-20.84-21c-.2-.2-.52-.2-.72,0-.2.2-.2.52,0,.72l20.84,21c.1.1.23.15.36.15Z"/><path class="cls-5" d="M256.89,467.31c.13,0,.26-.05.36-.15l20.76-20.6c.2-.2.2-.52,0-.72s-.52-.2-.72,0l-20.76,20.6c-.2.2-.2.52,0,.72.1.1.23.15.36.15Z"/><path class="cls-5" d="M401.12,467.87c.13,0,.26-.05.36-.15.2-.2.2-.52,0-.72l-20.84-21c-.2-.2-.52-.2-.72,0-.2.2-.2.52,0,.72l20.84,21c.1.1.23.15.36.15Z"/><path class="cls-5" d="M380.45,335.7c.14,0,.29-.06.39-.18.18-.21.16-.54-.06-.72-10.28-8.81-22.7-14.86-35.91-17.49-.28-.05-.54.12-.6.4-.06.28.12.54.4.6,13.04,2.6,25.29,8.57,35.44,17.27.1.08.21.12.33.12Z"/><path class="cls-5" d="M340.62,323.86l7.48-9.42-11.9-1.77,4.42,11.19ZM346.21,315.19l-5.28,6.65-3.12-7.9,8.4,1.25Z"/><path class="cls-5" d="M292.05,326.15c.08,0,.17-.02.24-.06,11.39-6.13,24.28-9.34,37.29-9.29,2.92.01,5.86.19,8.74.52.28.03.53-.17.57-.45.03-.28-.17-.53-.45-.57-2.92-.34-5.9-.51-8.86-.53-13.18-.05-26.25,3.2-37.78,9.41-.25.13-.34.44-.21.69.09.17.27.27.45.27Z"/><path class="cls-5" d="M258.29,364.18c1.93,0,3.51-1.56,3.52-3.49,0-1.93-1.56-3.51-3.49-3.52-1.93,0-3.51,1.56-3.52,3.49,0,1.93,1.56,3.51,3.49,3.52ZM258.31,358.19c1.37,0,2.48,1.12,2.47,2.49s-1.12,2.48-2.49,2.47-2.48-1.12-2.47-2.49c0-1.37,1.12-2.48,2.49-2.47Z"/><path class="cls-5" d="M265.55,441.62c.1,0,.21-.03.3-.1.23-.17.28-.48.11-.71-9.78-13.48-14.91-29.44-14.85-46.14.04-10.76,2.23-21.17,6.5-30.95.11-.26,0-.56-.26-.67-.26-.11-.56,0-.67.26-4.32,9.91-6.54,20.46-6.58,31.35-.07,16.93,5.14,33.09,15.04,46.75.1.14.25.21.41.21Z"/><path class="cls-5" d="M328.98,474.15c15.42.06,30.37-4.31,43.26-12.65.24-.15.3-.47.15-.7-.15-.24-.47-.3-.7-.15-12.72,8.23-27.48,12.54-42.7,12.49-9.51-.04-18.8-1.76-27.61-5.13-.26-.1-.56.03-.66.29s.03.56.29.66c8.92,3.41,18.33,5.16,27.97,5.2Z"/><path class="cls-5" d="M312.53,472.32c0-1.48,1.21-2.67,2.69-2.67,1.48,0,2.67,1.21,2.67,2.69,0,1.48-1.21,2.67-2.69,2.67-1.48,0-2.67-1.21-2.67-2.69Z"/><path class="cls-5" d="M374.95,462.46c1.93,0,3.51-1.56,3.52-3.49,0-1.93-1.56-3.51-3.49-3.52-1.93,0-3.51,1.56-3.52,3.49,0,1.93,1.56,3.51,3.49,3.52ZM374.97,456.47c1.37,0,2.48,1.12,2.47,2.49,0,1.37-1.12,2.48-2.49,2.47-1.37,0-2.48-1.12-2.47-2.49,0-1.37,1.12-2.48,2.49-2.47Z"/><path class="cls-5" d="M392.15,442.78c.16,0,.31-.07.41-.2,10.34-13.72,15.84-30.08,15.91-47.31.03-8.87-1.39-17.59-4.23-25.91-.09-.27-.38-.41-.65-.32-.27.09-.41.38-.32.65,2.8,8.21,4.21,16.82,4.18,25.58-.07,17.01-5.5,33.16-15.7,46.7-.17.22-.12.54.1.71.09.07.2.1.3.1Z"/><path class="cls-5" d="M405.31,388.85c0-1.48,1.21-2.67,2.69-2.67,1.48,0,2.67,1.21,2.67,2.69,0,1.48-1.21,2.67-2.69,2.67s-2.67-1.21-2.67-2.69Z"/><path class="cls-5" d="M250,436.93c.08,0,.16-.02.24-.06.25-.13.35-.44.21-.69-6.67-12.73-10.16-27.1-10.11-41.56.19-49.04,40.24-88.78,89.28-88.59,17.42.07,34.28,5.17,48.74,14.76.23.16.55.09.71-.14.16-.23.09-.55-.14-.71-14.63-9.7-31.67-14.86-49.3-14.93-49.6-.19-90.11,40.01-90.3,89.61-.06,14.63,3.48,29.16,10.22,42.04.09.17.27.27.45.27Z"/><g class="cls-8"><path class="cls-5" d="M328.94,484.92c49.6.19,90.11-40.01,90.3-89.61.06-15.76-4.01-31.28-11.78-44.89-.14-.24-.45-.33-.7-.19-.24.14-.33.45-.19.7,7.68,13.45,11.71,28.8,11.65,44.38-.19,49.04-40.24,88.78-89.28,88.59-16.48-.06-32.55-4.67-46.48-13.31-.24-.15-.55-.08-.7.16-.15.24-.07.55.16.7,14.09,8.74,30.35,13.4,47.02,13.46Z"/></g><g class="cls-8"><path class="cls-5" d="M236.2,439.1c.14,0,.29-.03.43-.09.51-.24.73-.84.5-1.35-6.28-13.54-9.44-28.03-9.38-43.07.22-55.99,45.94-101.36,101.93-101.14,19.55.08,38.5,5.72,54.82,16.31.47.31,1.1.17,1.41-.3.31-.47.17-1.1-.3-1.41-16.65-10.81-35.99-16.56-55.93-16.64-57.11-.22-103.76,46.06-103.98,103.18-.06,15.34,3.16,30.13,9.57,43.94.17.37.54.59.92.59Z"/></g><g class="cls-8"><path class="cls-5" d="M328.88,498.54c57.11.22,103.76-46.06,103.98-103.18.07-19.2-5.14-37.96-15.09-54.26-.29-.48-.92-.63-1.4-.34-.48.29-.63.92-.34,1.4,9.75,15.98,14.86,34.38,14.79,53.19-.22,55.99-45.94,101.36-101.93,101.14-18.59-.07-36.75-5.21-52.53-14.86-.48-.29-1.11-.14-1.4.34-.29.48-.14,1.11.34,1.4,16.09,9.85,34.62,15.09,53.58,15.16Z"/></g><path class="cls-5" d="M249.38,452.87c-.17-.25-.29-.43-.36-.54-.06-.11-.11-.22-.13-.33-.02-.11-.03-.27-.03-.48v-.58c0-.17.07-.32.19-.44.13-.12.29-.18.49-.18h.99s0-.62,0-.62h-.91c-.48,0-.84.11-1.1.34-.26.23-.39.58-.39,1.05v.35c0,.27.02.5.05.67.04.17.09.32.16.45.07.13.19.32.35.55l1.21,1.73h-1.96s0,.62,0,.62h2.72s0-.71,0-.71l-1.31-1.88Z"/><path class="cls-5" d="M244.28,450.31h1.99s0-.61,0-.61h-2.68s0,.79,0,.79l1.43,4.97h.73s-1.48-5.15-1.48-5.15Z"/><path class="cls-5" d="M239.54,455.13c.22.21.57.31,1.07.31h1.05s0-.61,0-.61h-1.13c-.21,0-.36-.05-.46-.15-.1-.1-.15-.25-.15-.46v-.85c0-.18.06-.33.17-.43.11-.11.26-.16.44-.16h.88s0-.61,0-.61h-.8c-.17,0-.31-.06-.43-.17-.12-.11-.17-.26-.17-.44v-.68c0-.21.05-.36.15-.45.1-.09.25-.14.46-.14h1.05s0-.61,0-.61h-.96c-.47,0-.82.1-1.06.3-.24.2-.36.53-.36.97v.52c0,.42.15.74.45.96-.36.2-.54.53-.54,1.01v.69c0,.46.1.79.32.99Z"/><path class="cls-5" d="M234.9,455.06c.25.24.56.36.93.37h.29c.37,0,.68-.12.93-.36.25-.24.37-.59.37-1.04v-2.96c.01-.47-.11-.82-.36-1.05-.25-.23-.61-.35-1.09-.35h-1.03s0,.62,0,.62h1.11c.2,0,.37.07.49.19.13.12.19.27.19.44v.9s-.81,0-.81,0c-.47,0-.82.1-1.05.31s-.34.54-.34,1v.91c0,.45.12.8.36,1.04ZM236.55,454.63c-.12.12-.27.18-.47.18h-.21c-.2,0-.35-.06-.47-.18-.12-.12-.17-.27-.17-.45v-1.22c0-.17.06-.3.16-.4.1-.1.25-.14.45-.14h.89s0,1.77,0,1.77c0,.18-.06.32-.17.44Z"/><path class="cls-5" d="M231.79,455.41v-.82s-.82,0-.82,0v.82s.5,1.15.5,1.15h.64s-.32-1.15-.32-1.15Z"/><path class="cls-5" d="M227.32,454.77l.02-4.5,1.16.43v-.67s-1.07-.42-1.07-.42h-.78s-.02,5.14-.02,5.14h-.9s0,.61,0,.61h2.68s0-.61,0-.61h-1.08Z"/><path class="cls-5" d="M223.74,449.98c-.25-.24-.56-.36-.93-.37h-.29c-.37,0-.68.12-.93.36-.25.24-.37.59-.37,1.04v2.96c-.01.47.11.82.36,1.05.25.23.61.35,1.09.35h.95s0-.62,0-.62h-1.03c-.2,0-.37-.07-.49-.19-.13-.12-.19-.27-.19-.44v-.9s.81,0,.81,0c.47,0,.82-.1,1.05-.31s.34-.54.34-1v-.91c0-.45-.12-.8-.36-1.04ZM222.09,450.41c.12-.12.27-.18.47-.18h.21c.2,0,.35.06.47.18.12.12.17.27.17.45v1.22c0,.17-.06.3-.16.4-.1.1-.25.14-.45.14h-.89s0-1.77,0-1.77c0-.18.06-.32.17-.44Z"/><path class="cls-5" d="M217.6,450.21h1.99s0-.61,0-.61h-2.68s0,.79,0,.79l1.43,4.97h.73s-1.48-5.15-1.48-5.15Z"/><rect class="cls-1" x="247.52" y="463.76" width="6.2" height="1.8" transform="translate(-215.01 713.48) rotate(-89.78)"/><rect class="cls-2" x="243.82" y="463.75" width="6.2" height="1.8" transform="translate(-218.68 709.78) rotate(-89.78)"/><rect class="cls-3" x="240.13" y="463.74" width="6.2" height="1.8" transform="translate(-222.35 706.07) rotate(-89.78)"/><rect class="cls-4" x="236.44" y="463.72" width="6.2" height="1.8" transform="translate(-226.01 702.36) rotate(-89.78)"/><rect class="cls-5" x="232.74" y="463.71" width="6.2" height="1.8" transform="translate(-229.68 698.65) rotate(-89.78)"/><path class="cls-5" d="M226.84,467.94l5.7.02c.28,0,.51-.23.51-.51l.02-5.7c0-.28-.23-.51-.51-.51l-5.7-.02c-.28,0-.51.23-.51.51l-.02,5.7c0,.28.23.51.51.51ZM232.03,466.94l-4.68-.02.02-4.68,4.68.02-.02,4.68Z"/><g class="cls-9"><path class="cls-5" d="M218.14,467.9l5.7.02c.28,0,.51-.23.51-.51l.02-5.7c0-.28-.23-.51-.51-.51l-5.7-.02c-.28,0-.51.23-.51.51l-.02,5.7c0,.28.23.51.51.51ZM223.33,466.9l-4.68-.02.02-4.68,4.68.02-.02,4.68Z"/></g><g class="cls-8"><path class="cls-5" d="M209.44,467.87l5.7.02c.28,0,.51-.23.51-.51l.02-5.7c0-.28-.23-.51-.51-.51l-5.7-.02c-.28,0-.51.23-.51.51l-.02,5.7c0,.28.23.51.51.51ZM214.64,466.87l-4.68-.02.02-4.68,4.68.02-.02,4.68Z"/></g><g class="cls-7"><path class="cls-5" d="M200.74,467.83l5.7.02c.28,0,.51-.23.51-.51l.02-5.7c0-.28-.23-.51-.51-.51l-5.7-.02c-.28,0-.51.23-.51.51l-.02,5.7c0,.28.23.51.51.51ZM205.94,466.83l-4.68-.02.02-4.68,4.68.02-.02,4.68Z"/></g><g class="cls-6"><path class="cls-5" d="M192.04,467.8l5.7.02c.28,0,.51-.23.51-.51l.02-5.7c0-.28-.23-.51-.51-.51l-5.7-.02c-.28,0-.51.23-.51.51l-.02,5.7c0,.28.23.51.51.51ZM197.24,466.8l-4.68-.02.02-4.68,4.68.02-.02,4.68Z"/></g><path class="cls-5" d="M154.66,402.08c0-1.82,1.49-3.29,3.31-3.29,1.82,0,3.29,1.49,3.29,3.31,0,1.82-1.49,3.29-3.31,3.29-1.82,0-3.29-1.49-3.29-3.31Z"/></g></svg>