<svg id="camera" enable-background="new 0 0 300 300" height="512" viewBox="0 0 300 300" width="512" xmlns="http://www.w3.org/2000/svg"><g><path d="m85.516 126.484c.781.781 1.805 1.172 2.828 1.172s2.047-.391 2.828-1.172l2.828-2.828 2.828 2.828c.781.781 1.805 1.172 2.828 1.172s2.047-.391 2.828-1.172c1.562-1.562 1.562-4.094 0-5.656l-2.828-2.828 2.828-2.828c1.562-1.562 1.562-4.094 0-5.656s-4.094-1.562-5.656 0l-2.828 2.828-2.828-2.828c-1.562-1.562-4.094-1.562-5.656 0s-1.562 4.094 0 5.656l2.828 2.828-2.828 2.828c-1.563 1.563-1.563 4.094 0 5.656z"/><circle cx="58" cy="98" r="4"/><path d="m240 76.529c2.501 0 4.529-2.028 4.529-4.529 0-2.502-2.028-4.53-4.529-4.53s-4.529 2.028-4.529 4.53c0 2.501 2.028 4.529 4.529 4.529z"/><path d="m218 122c6.617 0 12-5.383 12-12s-5.383-12-12-12-12 5.383-12 12 5.383 12 12 12zm0-16c2.207 0 4 1.795 4 4s-1.793 4-4 4-4-1.795-4-4 1.793-4 4-4z"/><path d="m154 162c-19.852 0-36 16.15-36 36s16.148 36 36 36 36-16.15 36-36-16.148-36-36-36zm0 64c-15.438 0-28-12.561-28-28s12.562-28 28-28 28 12.561 28 28-12.562 28-28 28z"/><path d="m154 178c-11.027 0-20 8.973-20 20s8.973 20 20 20 20-8.973 20-20-8.973-20-20-20zm0 32c-6.617 0-12-5.383-12-12s5.383-12 12-12 12 5.383 12 12-5.383 12-12 12z"/><path d="m242 174h-8v-3.688c0-6.789-5.523-12.312-12.312-12.312h-11.688c-2.211 0-4 1.791-4 4v6.194c-7.779-13.517-20.653-23.704-36-27.962v-46.232h8c2.211 0 4-1.791 4-4v-16h20c2.211 0 4-1.791 4-4v-24c0-2.209-1.789-4-4-4s-4 1.791-4 4v20h-88v-20c0-2.209-1.789-4-4-4s-4 1.791-4 4v24c0 2.209 1.789 4 4 4h20v16c0 2.209 1.789 4 4 4h8v46.232c-15.347 4.258-28.221 14.445-36 27.962v-6.194c0-2.209-1.789-4-4-4h-11.688c-6.789 0-12.312 5.523-12.312 12.312v3.688h-8c-2.211 0-4 1.791-4 4v40c0 2.209 1.789 4 4 4h8v3.688c0 6.789 5.523 12.312 12.312 12.312h11.688c2.211 0 4-1.791 4-4v-6.194c10.365 18.012 29.768 30.194 52 30.194s41.635-12.182 52-30.194v6.194c0 2.209 1.789 4 4 4h11.688c6.789 0 12.312-5.523 12.312-12.312v-3.688h8c2.211 0 4-1.791 4-4v-40c0-2.209-1.789-4-4-4zm-108-100h40v12h-40zm12 20h16v44.597c-2.624-.352-5.281-.597-8-.597s-5.376.245-8 .597zm-76 120v-32h4v32zm24 16h-7.688c-2.379 0-4.312-1.934-4.312-4.312v-55.375c0-2.379 1.934-4.312 4.312-4.312h7.688zm60 20c-27.322 0-49.742-21.194-51.797-48h7.797c2.211 0 4-1.791 4-4s-1.789-4-4-4h-7.797c2.055-26.806 24.476-48 51.797-48s49.742 21.194 51.797 48h-7.797c-2.211 0-4 1.791-4 4s1.789 4 4 4h7.797c-2.055 26.806-24.475 48-51.797 48zm72-24.312c0 2.379-1.934 4.312-4.312 4.312h-7.688v-64h7.688c2.379 0 4.312 1.934 4.312 4.312zm12-11.688h-4v-32h4z"/></g></svg>