<svg id="certificate-333" enable-background="new 0 0 300 300" height="512" viewBox="0 0 300 300" width="512" xmlns="http://www.w3.org/2000/svg"><g><path d="m60.828 96c-7.719 0-14 6.281-14 14s6.281 14 14 14 14-6.281 14-14-6.281-14-14-14zm0 20c-3.309 0-6-2.691-6-6s2.691-6 6-6 6 2.691 6 6-2.691 6-6 6z"/><path d="m68.828 189.47c-2.501 0-4.529 2.028-4.529 4.53 0 2.501 2.028 4.529 4.529 4.529s4.529-2.028 4.529-4.529c0-2.502-2.027-4.53-4.529-4.53z"/><path d="m59.312 147.516c-1.562-1.562-4.094-1.562-5.656 0l-2.828 2.828-2.828-2.828c-1.562-1.562-4.094-1.562-5.656 0s-1.562 4.094 0 5.656l2.828 2.828-2.828 2.828c-1.562 1.562-1.562 4.094 0 5.656.781.781 1.805 1.172 2.828 1.172s2.047-.391 2.828-1.172l2.828-2.828 2.828 2.828c.781.781 1.805 1.172 2.828 1.172s2.047-.391 2.828-1.172c1.562-1.562 1.562-4.094 0-5.656l-2.828-2.828 2.828-2.828c1.563-1.563 1.563-4.094 0-5.656z"/><path d="m254.828 232h-24v-168c0-2.209-1.789-4-4-4h-32.573l-.278-2.451c-.125-1.104-.703-2.105-1.594-2.766l-7.098-5.242-5.238-7.096c-.66-.895-1.664-1.473-2.77-1.598l-8.766-.99-8.086-3.523c-1.016-.445-2.18-.445-3.195 0l-8.086 3.523-8.766.99c-1.105.125-2.109.703-2.77 1.598l-5.238 7.096-7.098 5.242c-.891.66-1.469 1.662-1.594 2.766l-.277 2.451h-32.573c-2.211 0-4 1.791-4 4v175.314c0 13.611 11.074 24.686 24.688 24.686h122.492c13.688 0 24.82-11.135 24.82-24.82v-3.18c0-2.209-1.789-4-4-4zm-123.398-171.818 6.18-4.564c.32-.236.602-.52.84-.84l4.559-6.176 7.633-.863c.395-.045.785-.148 1.148-.309l7.039-3.066 7.039 3.066c.363.16.754.264 1.148.309l7.633.863 4.559 6.176c.238.32.52.604.84.84l6.18 4.564.867 7.631c.043.395.148.781.305 1.146l3.065 7.041-3.066 7.041c-.156.365-.262.752-.305 1.146l-.867 7.631-6.18 4.564c-.32.236-.602.52-.84.84l-4.559 6.176-7.633.863c-.395.045-.785.148-1.148.309l-7.039 3.066-7.039-3.066c-.363-.16-.754-.264-1.148-.309l-7.633-.863-4.559-6.176c-.238-.32-.52-.604-.84-.84l-6.18-4.564-.867-7.631c-.043-.395-.148-.781-.305-1.146l-3.066-7.041 3.066-7.041c.156-.365.262-.752.305-1.146zm27.398 67.818c-2.211 0-4 1.791-4 4v10.002l-8 5.998v-36.119l2.316.262 8.086 3.523c.508.223 1.055.334 1.598.334s1.09-.111 1.598-.334l8.086-3.523 2.316-.262v36.119l-8-5.998v-10.002c0-2.209-1.789-4-4-4zm-28 108v3.18c0 9.049-7.043 16.424-16.047 16.82h-3.266c-9.203 0-16.688-7.484-16.688-16.686v-171.314h27.121l-2.789 6.402c-.441 1.02-.441 2.176 0 3.195l3.523 8.088.996 8.766c.125 1.104.703 2.105 1.594 2.766l7.098 5.242 5.238 7.096c.33.448.747.816 1.219 1.088v45.357c0 1.516.855 2.9 2.211 3.578 1.359.682 2.98.533 4.188-.379l13.602-10.199 13.602 10.199c.703.529 1.551.801 2.398.801.609 0 1.223-.139 1.789-.422 1.355-.678 2.211-2.062 2.211-3.578v-45.358c.472-.272.889-.64 1.219-1.088l5.238-7.096 7.098-5.242c.891-.66 1.469-1.662 1.594-2.766l.996-8.766 3.523-8.088c.441-1.02.441-2.176 0-3.195l-2.789-6.401h27.121v164h-88c-2.211 0-4 1.791-4 4zm103.18 20h-101.692c3.883-4.236 6.301-9.834 6.5-16h111.992c-.429 8.895-7.8 16-16.8 16z"/><path d="m158.828 100c13.234 0 24-10.766 24-24s-10.766-24-24-24-24 10.766-24 24 10.766 24 24 24zm0-40c8.824 0 16 7.178 16 16s-7.176 16-16 16-16-7.178-16-16 7.176-16 16-16z"/><path d="m146.828 208v-24c0-2.209-1.789-4-4-4h-12c-2.211 0-4 1.791-4 4s1.789 4 4 4h8v4h-8c-2.211 0-4 1.791-4 4s1.789 4 4 4h8v4h-8c-2.211 0-4 1.791-4 4s1.789 4 4 4h12c2.211 0 4-1.791 4-4z"/><path d="m154.828 204c-2.211 0-4 1.791-4 4s1.789 4 4 4h12c2.211 0 4-1.791 4-4v-24c0-2.209-1.789-4-4-4h-12c-2.211 0-4 1.791-4 4s1.789 4 4 4h8v4h-8c-2.211 0-4 1.791-4 4s1.789 4 4 4h8v4z"/><path d="m178.828 204c-2.211 0-4 1.791-4 4s1.789 4 4 4h12c2.211 0 4-1.791 4-4v-24c0-2.209-1.789-4-4-4h-12c-2.211 0-4 1.791-4 4s1.789 4 4 4h8v4h-8c-2.211 0-4 1.791-4 4s1.789 4 4 4h8v4z"/></g></svg>