<svg id="d-box" enable-background="new 0 0 300 300" height="512" viewBox="0 0 300 300" width="512" xmlns="http://www.w3.org/2000/svg"><g><path d="m57.847 206.424c-6.617 0-12 5.383-12 12s5.383 12 12 12 12-5.383 12-12-5.383-12-12-12zm0 16c-2.207 0-4-1.795-4-4s1.793-4 4-4 4 1.795 4 4-1.793 4-4 4z"/><path d="m249.847 210.424h-4v-4c0-2.209-1.789-4-4-4s-4 1.791-4 4v4h-4c-2.211 0-4 1.791-4 4s1.789 4 4 4h4v4c0 2.209 1.789 4 4 4s4-1.791 4-4v-4h4c2.211 0 4-1.791 4-4s-1.789-4-4-4z"/><path d="m240.376 168.424c0-2.502-2.028-4.53-4.53-4.53s-4.53 2.028-4.53 4.53c0 2.501 2.028 4.529 4.53 4.529s4.53-2.028 4.53-4.529z"/><path d="m145.847 226.424h-20c-2.211 0-4 1.791-4 4s1.789 4 4 4h20c2.211 0 4-1.791 4-4s-1.789-4-4-4z"/><path d="m256.152 85.576h-14v-10.319l20.332-1.694c2.203-.184 3.836-2.117 3.652-4.318-.18-2.199-2.07-3.857-4.316-3.654l-19.668 1.639v-3.15l20.027-1.669c2.203-.184 3.836-2.117 3.652-4.318-.184-2.199-2.074-3.854-4.316-3.654l-19.363 1.614v-2.475c0-2.209-1.789-4-4-4s-4 1.791-4 4v3.142l-20.637 1.72c-2.203.184-3.836 2.117-3.652 4.318.172 2.088 1.922 3.668 3.98 3.668.109 0 .223-.004.336-.014l19.973-1.664v3.15l-20.332 1.692c-2.203.184-3.836 2.117-3.652 4.318.172 2.088 1.922 3.668 3.98 3.668.109 0 .223-.004.336-.014l19.668-1.639v9.653h-28.102c-3.655-4.828-9.39-8-15.898-8h-8.568c-1.789-6.881-7.997-12-15.432-12h-32c-7.435 0-13.643 5.119-15.432 12h-8.568c-6.508 0-12.243 3.172-15.898 8h-28.102v-10.319l20.332-1.694c2.203-.184 3.836-2.117 3.652-4.318-.18-2.199-2.062-3.857-4.316-3.654l-19.668 1.639v-3.15l20.027-1.669c2.203-.184 3.836-2.117 3.652-4.318-.18-2.199-2.066-3.854-4.316-3.654l-19.363 1.614v-2.475c0-2.209-1.789-4-4-4s-4 1.791-4 4v3.142l-20.637 1.72c-2.203.184-3.836 2.117-3.652 4.318.172 2.088 1.922 3.668 3.98 3.668.109 0 .223-.004.336-.014l19.973-1.664v3.15l-20.332 1.692c-2.203.184-3.836 2.117-3.652 4.318.172 2.088 1.922 3.668 3.98 3.668.109 0 .223-.004.336-.014l19.668-1.639v9.653h-14c-5.516 0-10 4.486-10 10s4.484 10 10 10h2v8c0 2.209 1.789 4 4 4h8v8c0 2.209 1.789 4 4 4s4-1.791 4-4v-8h8c2.211 0 4-1.791 4-4v-8h12v5.623c0 5.723 4.656 10.377 10.379 10.377h22.774l-18.778 8.346c-1.445.641-2.375 2.074-2.375 3.654v20c0 2.209 1.789 4 4 4s4-1.791 4-4v-17.4l32.847-14.6h2.848v40.848h-24.676c-8.449 0-15.324 6.875-15.324 15.324v57.352c0 8.449 6.875 15.324 15.324 15.324h57.352c8.449 0 15.324-6.875 15.324-15.324v-57.352c0-8.449-6.875-15.324-15.324-15.324h-24.676v-40.848h3.458l32.847 14.6v17.4c0 2.209 1.789 4 4 4s4-1.791 4-4v-20c0-1.58-.93-3.014-2.375-3.654l-18.778-8.346h22.774c5.723 0 10.379-4.654 10.379-10.377v-5.623h12v8c0 2.209 1.789 4 4 4h7.695v8.848c0 2.209 1.789 4 4 4 1.859 0 3.35-1.292 3.8-3.008.295-.558.505-1.165.505-1.84v-8h8c2.211 0 4-1.791 4-4v-8h2c5.516 0 10-4.486 10-10s-4.485-10-10-10zm-114.305 84.848h16v30.451l-6.734-2.246c-.82-.273-1.711-.273-2.531 0l-6.734 2.246v-30.451zm44 7.324v57.352c0 4.039-3.285 7.324-7.324 7.324h-57.352c-4.039 0-7.324-3.285-7.324-7.324v-57.352c0-4.039 3.285-7.324 7.324-7.324h12.676v36c0 1.285.617 2.492 1.66 3.244 1.047.752 2.379.953 3.605.551l10.734-3.578 10.734 3.578c.414.137.84.205 1.266.205.828 0 1.648-.258 2.34-.756 1.043-.752 1.66-1.959 1.66-3.244v-36h12.676c4.04 0 7.325 3.285 7.325 7.324zm-51.695-104.172h32c2.947 0 5.499 1.62 6.887 4h-45.774c1.388-2.379 3.94-4 6.887-4zm16 38c-6.617 0-12-5.383-12-12s5.383-12 12-12 12 5.383 12 12-5.383 12-12 12zm-80-2h-16v-4h16zm-26-12c-1.102 0-2-.896-2-2s.898-2 2-2h46.404c-.264 1.293-.404 2.63-.404 4zm54 13.623v-13.623c0-6.617 5.383-12 12-12h25.753c-3.549 3.611-5.753 8.549-5.753 14s2.204 10.389 5.753 14h-35.375c-1.312 0-2.378-1.066-2.378-2.377zm104 0c0 1.311-1.066 2.377-2.379 2.377h-35.374c3.549-3.611 5.753-8.549 5.753-14s-2.204-10.389-5.753-14h25.753c6.617 0 12 5.383 12 12zm44-1.623h-16v-4h16zm10-12h-46c0-1.37-.141-2.707-.404-4h46.404c1.102 0 2 .896 2 2s-.899 2-2 2z"/><circle cx="182.151" cy="101.577" r="4"/><circle cx="118.151" cy="101.577" r="4"/></g></svg>