<svg id="d-checks" enable-background="new 0 0 300 300" height="512" viewBox="0 0 300 300" width="512" xmlns="http://www.w3.org/2000/svg"><g><path d="m97.823 59.312c.781.781 1.805 1.172 2.828 1.172s2.047-.391 2.828-1.172l2.828-2.828 2.828 2.828c.781.781 1.805 1.172 2.828 1.172s2.047-.391 2.828-1.172c1.562-1.562 1.562-4.094 0-5.656l-2.828-2.828 2.829-2.828c1.562-1.562 1.562-4.094 0-5.656s-4.094-1.562-5.656 0l-2.828 2.828-2.828-2.828c-1.562-1.562-4.094-1.562-5.656 0s-1.562 4.094 0 5.656l2.828 2.828-2.828 2.828c-1.563 1.563-1.563 4.094-.001 5.656z"/><circle cx="246.308" cy="178.828" r="4"/><path d="m113.265 202.01c-4.59-3.055-10.812-1.809-13.863 2.775l-1.362 2.043h-35.732c-2.211 0-4 1.791-4 4v44c0 2.209 1.789 4 4 4h44c2.211 0 4-1.791 4-4v-30.346l5.734-8.601c1.48-2.225 2.012-4.891 1.484-7.51-.523-2.619-2.035-4.879-4.261-6.361zm-4.434 6.658c.602.4.793.969.852 1.271.062.303.105.9-.297 1.502l-19.328 28.994c-.332.498-.867.818-1.473.879l-.191.01c-.527 0-1.039-.213-1.414-.586l-12-12.002c-.512-.508-.586-1.104-.586-1.412s.074-.904.586-1.414 1.105-.586 1.414-.586.902.076 1.414.586l6.824 6.824c.848.848 2.012 1.289 3.223 1.152 1.191-.117 2.27-.764 2.934-1.762l15.269-22.902c.605-.911 1.847-1.173 2.773-.554zm-6.523 42.16h-36v-36h26.398l-5.866 8.799-3.375-3.373c-3.902-3.904-10.246-3.895-14.141-.002-1.891 1.889-2.93 4.4-2.93 7.072s1.039 5.184 2.93 7.07l11.996 11.998c1.859 1.863 4.438 2.932 7.074 2.932.328 0 .66-.016.984-.049 2.996-.297 5.672-1.904 7.336-4.404l5.594-8.39z"/><path d="m177.265 202.01c-4.586-3.055-10.812-1.809-13.863 2.775l-1.362 2.043h-35.732c-2.211 0-4 1.791-4 4v44c0 2.209 1.789 4 4 4h44c2.211 0 4-1.791 4-4v-30.346l5.734-8.601c1.48-2.225 2.012-4.891 1.484-7.51-.523-2.619-2.035-4.879-4.261-6.361zm-4.434 6.658c.602.4.793.969.852 1.271.062.303.105.9-.297 1.502l-19.328 28.994c-.332.498-.867.818-1.473.879l-.191.01c-.527 0-1.039-.213-1.414-.586l-12-12.002c-.512-.508-.586-1.104-.586-1.412s.074-.904.586-1.414 1.105-.586 1.414-.586.902.076 1.414.586l6.824 6.824c.848.848 2.016 1.289 3.223 1.152 1.191-.117 2.27-.764 2.934-1.762l15.269-22.902c.605-.911 1.851-1.173 2.773-.554zm-6.523 42.16h-36v-36h26.398l-5.866 8.799-3.375-3.373c-3.902-3.904-10.246-3.895-14.141-.002-1.891 1.889-2.93 4.4-2.93 7.072s1.039 5.184 2.93 7.07l11.996 11.998c1.859 1.863 4.438 2.932 7.074 2.932.328 0 .66-.016.984-.049 2.996-.297 5.672-1.904 7.336-4.404l5.594-8.39z"/><path d="m241.265 202.01c-4.59-3.055-10.812-1.809-13.863 2.775l-1.362 2.043h-35.732c-2.211 0-4 1.791-4 4v44c0 2.209 1.789 4 4 4h44c2.211 0 4-1.791 4-4v-30.346l5.734-8.601c1.48-2.225 2.012-4.891 1.484-7.51-.523-2.619-2.035-4.879-4.261-6.361zm-4.434 6.658c.602.4.793.969.852 1.271.062.303.105.9-.297 1.502l-19.328 28.994c-.332.498-.867.818-1.473.879l-.191.01c-.527 0-1.039-.213-1.414-.586l-12-12.002c-.512-.508-.586-1.104-.586-1.412s.074-.904.586-1.414 1.105-.586 1.414-.586.902.076 1.414.586l6.824 6.824c.848.848 2.02 1.289 3.223 1.152 1.191-.117 2.27-.764 2.934-1.762l15.269-22.902c.605-.911 1.847-1.173 2.773-.554zm-6.523 42.16h-36v-36h26.398l-5.866 8.799-3.375-3.373c-3.902-3.904-10.246-3.895-14.141-.002-1.891 1.889-2.93 4.4-2.93 7.072s1.039 5.184 2.93 7.07l11.996 11.998c1.859 1.863 4.438 2.932 7.074 2.932.328 0 .66-.016.984-.049 2.996-.297 5.672-1.904 7.336-4.404l5.594-8.39z"/><path d="m178.308 70.828c6.617 0 12-5.383 12-12s-5.383-12-12-12-12 5.383-12 12 5.383 12 12 12zm0-16c2.207 0 4 1.795 4 4s-1.793 4-4 4-4-1.795-4-4 1.793-4 4-4z"/><path d="m256.152 114.365h-14v-10.319l20.332-1.694c2.203-.184 3.836-2.117 3.652-4.318-.18-2.199-2.062-3.861-4.316-3.654l-19.668 1.639v-3.15l20.027-1.669c2.203-.184 3.836-2.117 3.652-4.318-.18-2.199-2.066-3.859-4.316-3.654l-19.363 1.614v-1.522c.483-.693.83-1.488.83-2.397 0-2.362-1.915-4.276-4.276-4.276s-4.277 1.915-4.277 4.276c0 .013.007.024.007.037-.167.441-.284.908-.284 1.407v3.142l-20.637 1.72c-2.203.184-3.836 2.117-3.652 4.318.172 2.088 1.922 3.668 3.98 3.668.109 0 .223-.004.336-.014l19.973-1.664v3.15l-20.332 1.694c-2.203.184-3.836 2.117-3.652 4.318.172 2.088 1.922 3.668 3.98 3.668.109 0 .223-.004.336-.014l19.668-1.639v9.653h-28.102c-3.655-4.828-9.39-8-15.898-8h-8.568c-1.789-6.881-7.997-12-15.432-12h-32c-7.435 0-13.643 5.119-15.432 12h-8.568c-6.508 0-12.243 3.172-15.898 8h-28.102v-10.319l20.332-1.694c2.203-.184 3.836-2.117 3.652-4.318-.18-2.199-2.094-3.861-4.316-3.654l-19.668 1.639v-3.15l20.027-1.669c2.203-.184 3.836-2.117 3.652-4.318-.18-2.199-2.062-3.859-4.316-3.654l-19.363 1.61v-2.475c0-2.209-1.789-4-4-4s-4 1.791-4 4v3.142l-20.637 1.72c-2.203.184-3.836 2.117-3.652 4.318.172 2.088 1.922 3.668 3.98 3.668.109 0 .223-.004.336-.014l19.973-1.664v3.15l-20.332 1.694c-2.203.184-3.836 2.117-3.652 4.318.172 2.088 1.922 3.668 3.98 3.668.109 0 .223-.004.336-.014l19.668-1.639v9.653h-14c-5.516 0-10 4.486-10 10s4.484 10 10 10h2v8c0 2.209 1.789 4 4 4h8v8c0 2.209 1.789 4 4 4s4-1.791 4-4v-8h8c2.211 0 4-1.791 4-4v-8h12v5.623c0 5.723 4.656 10.377 10.379 10.377h22.774l-18.778 8.346c-1.445.641-2.375 2.074-2.375 3.654v20c0 2.209 1.789 4 4 4s4-1.791 4-4v-17.4l32.847-14.6h14.306l32.847 14.6v17.4c0 2.209 1.789 4 4 4s4-1.791 4-4v-20c0-1.58-.93-3.014-2.375-3.654l-18.778-8.346h22.774c5.723 0 10.379-4.654 10.379-10.377v-5.623h12v8c0 2.209 1.789 4 4 4h8v8c0 2.209 1.789 4 4 4s4-1.791 4-4v-8h8c2.211 0 4-1.791 4-4v-8h2c5.516 0 10-4.486 10-10s-4.485-10-10-10zm-122-12h32c2.947 0 5.499 1.62 6.887 4h-45.774c1.388-2.379 3.94-4 6.887-4zm16 38c-6.617 0-12-5.383-12-12s5.383-12 12-12 12 5.383 12 12-5.383 12-12 12zm-80-2h-16v-4h16zm-26-12c-1.102 0-2-.896-2-2s.898-2 2-2h46.404c-.264 1.293-.404 2.63-.404 4zm54 13.623v-13.623c0-6.617 5.383-12 12-12h25.753c-3.549 3.611-5.753 8.549-5.753 14s2.204 10.389 5.753 14h-35.375c-1.312 0-2.378-1.066-2.378-2.377zm104 0c0 1.311-1.066 2.377-2.379 2.377h-35.374c3.549-3.611 5.753-8.549 5.753-14s-2.204-10.389-5.753-14h25.753c6.617 0 12 5.383 12 12zm44-1.623h-16v-4h16zm10-12h-46c0-1.37-.141-2.707-.404-4h46.404c1.102 0 2 .896 2 2s-.899 2-2 2z"/><circle cx="182.151" cy="130.365" r="4"/><circle cx="118.151" cy="130.365" r="4"/></g></svg>