<svg id="d-mix" enable-background="new 0 0 300 300" height="512" viewBox="0 0 300 300" width="512" xmlns="http://www.w3.org/2000/svg"><g><circle cx="252.828" cy="132" r="4"/><path d="m61.312 121.516c-1.562-1.562-4.094-1.562-5.656 0l-2.828 2.828-2.828-2.828c-1.562-1.562-4.094-1.562-5.656 0s-1.562 4.094 0 5.656l2.828 2.828-2.828 2.828c-1.562 1.562-1.562 4.094 0 5.656.781.781 1.805 1.172 2.828 1.172s2.047-.391 2.828-1.172l2.828-2.828 2.828 2.828c.781.781 1.805 1.172 2.828 1.172s2.047-.391 2.828-1.172c1.562-1.562 1.562-4.094 0-5.656l-2.828-2.828 2.828-2.828c1.563-1.563 1.563-4.094 0-5.656z"/><path d="m252.828 96c0-6.617-5.383-12-12-12s-12 5.383-12 12 5.383 12 12 12 12-5.383 12-12zm-12 4c-2.207 0-4-1.795-4-4s1.793-4 4-4 4 1.795 4 4-1.793 4-4 4z"/><path d="m195.867 144h-102.078c-7.148 0-12.961 5.814-12.961 12.961v86.078c0 7.146 5.812 12.961 12.961 12.961h102.078c7.148 0 12.961-5.814 12.961-12.961v-86.078c0-7.147-5.812-12.961-12.961-12.961zm4.961 99.039c0 2.736-2.227 4.961-4.961 4.961h-102.078c-2.734 0-4.961-2.225-4.961-4.961v-86.078c0-2.736 2.227-4.961 4.961-4.961h102.078c2.734 0 4.961 2.225 4.961 4.961z"/><path d="m124.828 192h-4v-28c0-2.209-1.789-4-4-4s-4 1.791-4 4v28h-4c-2.211 0-4 1.791-4 4v12c0 2.209 1.789 4 4 4h4v24c0 2.209 1.789 4 4 4s4-1.791 4-4v-24h4c2.211 0 4-1.791 4-4v-12c0-2.209-1.789-4-4-4zm-4 12h-8v-4h8z"/><path d="m180.828 172h-4v-8c0-2.209-1.789-4-4-4s-4 1.791-4 4v8h-4c-2.211 0-4 1.791-4 4v12c0 2.209 1.789 4 4 4h4v44c0 2.209 1.789 4 4 4s4-1.791 4-4v-44h4c2.211 0 4-1.791 4-4v-12c0-2.209-1.789-4-4-4zm-4 12h-8v-4h8z"/><path d="m152.828 208h-4v-44c0-2.209-1.789-4-4-4s-4 1.791-4 4v44h-4c-2.211 0-4 1.791-4 4v12c0 2.209 1.789 4 4 4h4v8c0 2.209 1.789 4 4 4s4-1.791 4-4v-8h4c2.211 0 4-1.791 4-4v-12c0-2.209-1.789-4-4-4zm-4 12h-8v-4h8z"/><circle cx="96.828" cy="160" r="4"/><circle cx="96.828" cy="240" r="4"/><circle cx="192.828" cy="240" r="4"/><circle cx="192.828" cy="160" r="4"/><path d="m220.332 48.031-11.504 1.438v-1.469c0-2.209-1.789-4-4-4s-4 1.791-4 4v2.469l-12.496 1.562c-2.191.273-3.746 2.273-3.473 4.465.254 2.023 1.977 3.504 3.965 3.504.164 0 .332-.01.5-.031l11.504-1.438v13.469h-8c-.031 0-.057.017-.088.018-3.653-4.839-9.396-8.018-15.912-8.018h-13.043c-4.039-4.883-10.141-8-16.957-8s-12.918 3.117-16.957 8h-13.043c-6.516 0-12.259 3.179-15.912 8.018-.031-.001-.057-.018-.088-.018h-4v-14.469l12.496-1.562c2.191-.273 3.746-2.273 3.473-4.465s-2.262-3.756-4.465-3.473l-11.504 1.438v-1.469c0-2.209-1.789-4-4-4s-4 1.791-4 4v2.469l-12.496 1.562c-2.191.273-3.746 2.273-3.473 4.465.254 2.024 1.977 3.504 3.965 3.504.164 0 .332-.01.5-.031l11.504-1.438v13.469h-8c-2.211 0-4 1.791-4 4v12c0 2.209 1.789 4 4 4h16.301c1.081 4.576 5.177 8 10.078 8h14.56l-14.923 8.527c-1.246.711-2.016 2.037-2.016 3.473v12c0 2.209 1.789 4 4 4s4-1.791 4-4v-9.68l25.062-14.32h17.877l25.062 14.32v9.68c0 2.209 1.789 4 4 4s4-1.791 4-4v-12c0-1.436-.77-2.762-2.016-3.473l-14.923-8.527h14.56c4.901 0 8.997-3.424 10.078-8h16.301c2.211 0 4-1.791 4-4v-12c0-2.209-1.789-4-4-4h-4v-14.469l12.496-1.562c2.191-.273 3.746-2.273 3.473-4.465s-2.263-3.756-4.466-3.473zm-73.504 15.969c7.719 0 14 6.281 14 14s-6.281 14-14 14-14-6.281-14-14 6.281-14 14-14zm-62 16h12.404c-.264 1.293-.404 2.63-.404 4h-12zm20 9.623v-5.623c0-6.617 5.383-12 12-12h8.853c-.543 1.91-.853 3.918-.853 6 0 5.314 1.895 10.194 5.043 14h-22.664c-1.312 0-2.379-1.066-2.379-2.377zm84 0c0 1.311-1.066 2.377-2.379 2.377h-22.664c3.148-3.806 5.043-8.686 5.043-14 0-2.082-.31-4.09-.853-6h8.853c6.617 0 12 5.383 12 12zm20-5.623h-12c0-1.37-.141-2.707-.404-4h12.404z"/></g></svg>