<svg id="d-security" enable-background="new 0 0 300 300" height="512" viewBox="0 0 300 300" width="512" xmlns="http://www.w3.org/2000/svg"><g><circle cx="232.771" cy="93.265" r="4"/><path d="m74.771 59.794c2.501 0 4.53-2.028 4.53-4.529 0-2.502-2.028-4.53-4.53-4.53s-4.53 2.028-4.53 4.53c.001 2.501 2.029 4.529 4.53 4.529z"/><path d="m40.287 89.749c.781.781 1.805 1.172 2.828 1.172s2.047-.391 2.828-1.172l2.828-2.828 2.828 2.828c.781.781 1.805 1.172 2.828 1.172s2.047-.391 2.828-1.172c1.562-1.562 1.562-4.094 0-5.656l-2.828-2.828 2.828-2.828c1.562-1.562 1.562-4.094 0-5.656s-4.094-1.562-5.656 0l-2.828 2.828-2.828-2.828c-1.562-1.562-4.094-1.562-5.656 0s-1.562 4.094 0 5.656l2.828 2.828-2.828 2.828c-1.562 1.562-1.562 4.094 0 5.656z"/><path d="m244.771 225.265c-6.617 0-12 5.383-12 12s5.383 12 12 12 12-5.383 12-12-5.382-12-12-12zm0 16c-2.205 0-4-1.795-4-4s1.795-4 4-4 4 1.795 4 4-1.794 4-4 4z"/><path d="m147.877 126.499c.295.068.594.102.895.102s.6-.033.895-.102c1.256-.287 30.826-7.596 37.367-54.82.152-1.111-.17-2.236-.885-3.1s-1.762-1.389-2.881-1.445c-.213-.01-21.377-1.217-31.373-13.705-.742-.926-1.857-1.477-3.043-1.5-1.199.006-2.322.482-3.102 1.379-10.936 12.602-31.279 13.816-31.482 13.828-1.119.059-2.164.584-2.877 1.447s-1.033 1.986-.881 3.096c6.541 47.224 36.111 54.533 37.367 54.82zm.807-64.765c9.377 8.955 22.869 11.953 29.779 12.934-6.059 34.059-25.236 42.299-29.689 43.77-4.494-1.488-23.648-9.748-29.697-43.791 6.751-1.001 19.853-4.019 29.607-12.913z"/><path d="m142.59 101.273c.762.904 1.883 1.426 3.062 1.426h.074c1.207-.023 2.34-.59 3.082-1.541l14.006-17.977c1.357-1.744 1.045-4.256-.697-5.615-1.738-1.352-4.254-1.043-5.615.697l-10.967 14.078-3.119-3.711c-1.42-1.688-3.941-1.906-5.637-.488-1.691 1.422-1.91 3.945-.488 5.637z"/><path d="m256 165.577h-14v-10.319l20.332-1.694c2.201-.184 3.838-2.117 3.654-4.318s-2.135-3.863-4.318-3.654l-19.668 1.638v-3.972l20.332-1.694c2.201-.184 3.838-2.117 3.654-4.318s-2.135-3.855-4.318-3.654l-19.668 1.638v-1.653c0-2.209-1.791-4-4-4s-4 1.791-4 4v2.319l-20.332 1.694c-2.201.184-3.838 2.117-3.654 4.318.174 2.088 1.924 3.668 3.982 3.668.111 0 .223-.004.336-.014l19.668-1.637v3.972l-20.332 1.694c-2.201.184-3.838 2.117-3.654 4.318.174 2.088 1.924 3.668 3.982 3.668.111 0 .223-.004.336-.014l19.668-1.638v9.653h-28.102c-3.655-4.828-9.39-8-15.898-8h-8.568c-1.789-6.881-7.999-12-15.432-12h-32c-7.433 0-13.643 5.119-15.432 12h-8.568c-6.508 0-12.243 3.172-15.898 8h-28.102v-10.319l20.332-1.694c2.201-.184 3.838-2.117 3.654-4.318s-2.127-3.863-4.318-3.654l-19.668 1.637v-3.972l20.332-1.694c2.201-.184 3.838-2.117 3.654-4.318s-2.127-3.855-4.318-3.654l-19.668 1.638v-1.653c0-2.209-1.791-4-4-4s-4 1.791-4 4v2.319l-20.332 1.694c-2.201.184-3.838 2.117-3.654 4.318.174 2.088 1.924 3.668 3.982 3.668.111 0 .223-.004.336-.014l19.668-1.637v3.972l-20.332 1.694c-2.201.184-3.838 2.117-3.654 4.318.174 2.088 1.924 3.668 3.982 3.668.111 0 .223-.004.336-.014l19.668-1.638v9.653h-14c-5.514 0-10 4.486-10 10s4.486 10 10 10h2v8c0 2.209 1.791 4 4 4h8v8c0 2.209 1.791 4 4 4s4-1.791 4-4v-8h8c2.209 0 4-1.791 4-4v-8h12v5.623c0 5.723 4.656 10.377 10.379 10.377h22.774l-18.778 8.346c-1.443.641-2.375 2.074-2.375 3.654v20c0 2.209 1.791 4 4 4s4-1.791 4-4v-17.4l32.847-14.6h14.306l32.847 14.6v17.4c0 2.209 1.791 4 4 4s4-1.791 4-4v-20c0-1.58-.932-3.014-2.375-3.654l-18.778-8.346h22.776c5.723 0 10.377-4.654 10.377-10.377v-5.623h12v8c0 2.209 1.791 4 4 4h8v8c0 2.209 1.791 4 4 4s4-1.791 4-4v-8h8c2.209 0 4-1.791 4-4v-8h2c5.514 0 10-4.486 10-10s-4.486-10.001-10-10.001zm-122-12h32c2.948 0 5.5 1.62 6.887 4h-45.775c1.388-2.379 3.94-4 6.888-4zm16 38c-6.617 0-12-5.383-12-12s5.383-12 12-12 12 5.383 12 12-5.383 12-12 12zm-80-2h-16v-4h16zm-26-12c-1.104 0-2-.896-2-2s.896-2 2-2h46.404c-.264 1.293-.404 2.63-.404 4zm54 13.623v-13.623c0-6.617 5.383-12 12-12h25.753c-3.549 3.611-5.753 8.549-5.753 14s2.204 10.389 5.753 14h-35.374c-1.313 0-2.379-1.066-2.379-2.377zm104 0c0 1.311-1.066 2.377-2.377 2.377h-35.376c3.549-3.611 5.753-8.549 5.753-14s-2.204-10.389-5.753-14h25.753c6.617 0 12 5.383 12 12zm44-1.623h-16v-4h16zm10-12h-46c0-1.37-.141-2.707-.404-4h46.404c1.104 0 2 .896 2 2s-.896 2-2 2z"/><circle cx="182.001" cy="181.578" r="4"/><circle cx="118.001" cy="181.578" r="4"/></g></svg>