<svg id="d-wifi" enable-background="new 0 0 300 300" height="512" viewBox="0 0 300 300" width="512" xmlns="http://www.w3.org/2000/svg"><g><circle cx="238" cy="97.809" r="4"/><path d="m246 229.809c-6.617 0-12 5.383-12 12s5.383 12 12 12 12-5.383 12-12-5.383-12-12-12zm0 16c-2.207 0-4-1.795-4-4s1.793-4 4-4 4 1.795 4 4-1.793 4-4 4z"/><path d="m80 64.338c2.501 0 4.529-2.028 4.529-4.529 0-2.502-2.028-4.53-4.529-4.53s-4.529 2.028-4.529 4.53c0 2.501 2.028 4.529 4.529 4.529z"/><path d="m45.516 94.293c.781.781 1.805 1.172 2.828 1.172s2.047-.391 2.828-1.172l2.828-2.828 2.828 2.828c.781.781 1.805 1.172 2.828 1.172s2.047-.391 2.828-1.172c1.562-1.562 1.562-4.094 0-5.656l-2.828-2.828 2.828-2.828c1.562-1.562 1.562-4.094 0-5.656s-4.094-1.562-5.656 0l-2.828 2.827-2.828-2.828c-1.562-1.562-4.094-1.562-5.656 0s-1.562 4.094 0 5.656l2.828 2.828-2.828 2.828c-1.563 1.563-1.563 4.094 0 5.657z"/><path d="m104.707 90.516c1.355.643 2.797.969 4.285.969 3.844 0 7.391-2.242 9.039-5.711 5.649-11.897 17.805-19.583 30.969-19.583 13.16 0 25.316 7.684 30.965 19.578 2.375 4.979 8.348 7.102 13.328 4.736 4.977-2.367 7.102-8.346 4.738-13.324-8.949-18.826-28.195-30.99-49.031-30.99-20.84 0-40.086 12.168-49.035 31-1.145 2.412-1.285 5.127-.391 7.643.899 2.518 2.719 4.535 5.133 5.682zm2.484-9.891c7.629-16.059 24.039-26.434 41.809-26.434 17.766 0 34.176 10.373 41.805 26.424.473.996.047 2.193-.949 2.666-.992.475-2.188.047-2.664-.947-6.969-14.666-21.958-24.143-38.192-24.143s-31.227 9.479-38.195 24.148c-.594 1.248-1.832 1.346-2.664.949-.652-.309-.922-.844-1.027-1.135-.106-.292-.231-.878.077-1.528z"/><path d="m170.227 107.537c5.195-1.842 7.922-7.568 6.082-12.768-4.09-11.535-15.066-19.285-27.309-19.285s-23.219 7.75-27.309 19.289c-1.84 5.195.887 10.922 6.078 12.764 1.094.389 2.227.582 3.355.582 1.469 0 2.926-.326 4.289-.977 2.414-1.148 4.234-3.17 5.125-5.686 1.266-3.572 4.668-5.973 8.461-5.973s7.195 2.4 8.461 5.971c1.41 3.984 5.195 6.66 9.422 6.66 1.141.001 2.27-.194 3.345-.577zm-5.227-8.756c-2.398-6.756-8.828-11.297-16-11.297s-13.602 4.541-16 11.301c-.242.678-.746 1.002-1.023 1.135-.281.131-.844.322-1.531.078-1.035-.369-1.582-1.516-1.215-2.553 2.961-8.352 10.906-13.961 19.77-13.961s16.809 5.609 19.77 13.957c.367 1.041-.18 2.188-1.219 2.559-.907.314-2.118.006-2.552-1.219z"/><path d="m149 107.809c-7.328 0-13.293 5.963-13.293 13.293s5.965 13.295 13.293 13.295 13.293-5.965 13.293-13.295-5.965-13.293-13.293-13.293zm0 18.587c-2.918 0-5.293-2.375-5.293-5.295 0-2.918 2.375-5.293 5.293-5.293s5.293 2.375 5.293 5.293c0 2.92-2.375 5.295-5.293 5.295z"/><path d="m256.168 169.809h-14.168v-10.319l20.332-1.694c2.203-.184 3.836-2.117 3.652-4.318-.184-2.199-2.082-3.842-4.316-3.654l-19.668 1.637v-3.972l20.332-1.694c2.203-.184 3.836-2.117 3.652-4.318-.184-2.199-2.082-3.844-4.316-3.654l-19.668 1.638v-1.653c0-2.209-1.789-4-4-4s-4 1.791-4 4v2.319l-20.332 1.694c-2.203.184-3.836 2.117-3.652 4.318.172 2.088 1.922 3.668 3.98 3.668.109 0 .223-.004.336-.014l19.668-1.637v3.972l-20.332 1.694c-2.203.184-3.836 2.117-3.652 4.318.172 2.088 1.922 3.668 3.98 3.668.109 0 .223-.004.336-.014l19.668-1.638v9.653h-28c-.031 0-.057.017-.088.018-3.653-4.838-9.396-8.018-15.912-8.018h-8.568c-1.788-6.881-7.997-12-15.432-12h-32c-7.435 0-13.644 5.119-15.432 12h-8.568c-6.516 0-12.259 3.179-15.912 8.018-.031-.001-.057-.018-.088-.018h-28v-10.319l20.332-1.694c2.203-.184 3.836-2.117 3.652-4.318-.184-2.199-2.074-3.842-4.316-3.654l-19.668 1.637v-3.972l20.332-1.694c2.203-.184 3.836-2.117 3.652-4.318-.184-2.199-2.074-3.844-4.316-3.654l-19.668 1.638v-1.653c0-2.209-1.789-4-4-4s-4 1.791-4 4v2.319l-20.332 1.694c-2.203.184-3.836 2.117-3.652 4.318.172 2.088 1.922 3.668 3.98 3.668.109 0 .223-.004.336-.014l19.668-1.637v3.972l-20.332 1.694c-2.203.184-3.836 2.117-3.652 4.318.172 2.088 1.922 3.668 3.98 3.668.109 0 .223-.004.336-.014l19.668-1.638v9.653h-14.176c-5.418 0-9.824 4.486-9.824 10s4.406 10 9.824 10h2.176v8c0 2.209 1.789 4 4 4h8v8c0 2.209 1.789 4 4 4s4-1.791 4-4v-8h8c2.211 0 4-1.791 4-4v-8h12v5.623c0 5.723 4.656 10.377 10.379 10.377h22.774l-18.778 8.346c-1.445.641-2.375 2.074-2.375 3.654v20c0 2.209 1.789 4 4 4s4-1.791 4-4v-17.4l32.847-14.6h14.306l32.847 14.6v17.4c0 2.209 1.789 4 4 4s4-1.791 4-4v-20c0-1.58-.93-3.014-2.375-3.654l-18.778-8.346h22.774c5.723 0 10.379-4.654 10.379-10.377v-5.623h12v8c0 2.209 1.789 4 4 4h8v8c0 2.209 1.789 4 4 4s4-1.791 4-4v-8h8c2.211 0 4-1.791 4-4v-8h2.168c5.422 0 9.832-4.486 9.832-10s-4.41-10-9.832-10zm-122.168-12h32c2.947 0 5.499 1.62 6.887 4h-45.774c1.388-2.38 3.94-4 6.887-4zm16 38c-6.617 0-12-5.383-12-12s5.383-12 12-12 12 5.383 12 12-5.383 12-12 12zm-80-2h-16v-4h16zm-26.176-12c-1.004 0-1.824-.896-1.824-2s.82-2 1.824-2h46.58c-.264 1.293-.404 2.63-.404 4zm54.176 13.623v-13.623c0-6.617 5.383-12 12-12h25.753c-3.549 3.611-5.753 8.549-5.753 14s2.204 10.389 5.753 14h-35.374c-1.313 0-2.379-1.067-2.379-2.377zm104 0c0 1.311-1.066 2.377-2.379 2.377h-35.374c3.549-3.611 5.753-8.549 5.753-14s-2.204-10.389-5.753-14h25.753c6.617 0 12 5.383 12 12zm44-1.623h-16v-4h16zm10.168-12h-46.168c0-1.37-.141-2.707-.404-4h46.572c1.012 0 1.832.896 1.832 2s-.82 2-1.832 2z"/><circle cx="182" cy="185.809" r="4"/><circle cx="118" cy="185.809" r="4"/></g></svg>