<svg id="delivery" enable-background="new 0 0 300 300" height="512" viewBox="0 0 300 300" width="512" xmlns="http://www.w3.org/2000/svg"><g><path d="m269.393 136.709-20-32c-.732-1.17-2.014-1.881-3.393-1.881h-192c-1.379 0-2.66.711-3.393 1.881l-20 32c-.77 1.232-.811 2.787-.105 4.059s2.043 2.061 3.498 2.061h16v112c0 2.209 1.791 4 4 4h188c2.209 0 4-1.791 4-4v-112h20c1.455 0 2.793-.789 3.498-2.061s.664-2.827-.105-4.059zm-213.176-25.881h157.783v1.253l-14.217 22.747h-158.566zm1.783 32h144c1.379 0 2.66-.711 3.393-1.881l8.607-13.772v123.653h-156zm180 108h-16v-130.053l12.607 20.172c.732 1.17 2.014 1.881 3.393 1.881zm2.217-116-15-24h18.566l15 24z"/><path d="m123.688 59.312c.781.781 1.805 1.172 2.828 1.172s2.047-.391 2.828-1.172l2.828-2.828 2.828 2.828c.781.781 1.805 1.172 2.828 1.172s2.047-.391 2.828-1.172c1.562-1.562 1.562-4.094 0-5.656l-2.828-2.828 2.828-2.828c1.562-1.562 1.562-4.094 0-5.656s-4.094-1.562-5.656 0l-2.828 2.828-2.828-2.828c-1.562-1.562-4.094-1.562-5.656 0s-1.562 4.094 0 5.656l2.828 2.828-2.828 2.828c-1.563 1.563-1.563 4.094 0 5.656z"/><path d="m158.172 85.357c2.501 0 4.529-2.028 4.529-4.529 0-2.502-2.028-4.53-4.529-4.53-2.502 0-4.53 2.028-4.53 4.53s2.028 4.529 4.53 4.529z"/><path d="m206.762 88.008c6.803 0 12.338-5.535 12.338-12.34 0-6.803-5.535-12.338-12.338-12.338-6.805 0-12.34 5.535-12.34 12.338 0 6.805 5.535 12.34 12.34 12.34zm0-16.678c2.393 0 4.338 1.945 4.338 4.338s-1.945 4.34-4.338 4.34-4.34-1.947-4.34-4.34 1.947-4.338 4.34-4.338z"/><path d="m205.504 158.859-11.504 1.438v-1.469c0-2.209-1.791-4-4-4s-4 1.791-4 4v2.469l-12.496 1.562c-2.191.273-3.746 2.273-3.473 4.465.252 2.023 1.977 3.504 3.963 3.504.166 0 .334-.01.502-.031l11.504-1.438v13.469h-4.102c-3.655-4.828-9.39-8-15.898-8h-13.043c-4.039-4.883-10.14-8-16.957-8s-12.919 3.117-16.957 8h-13.043c-6.508 0-12.243 3.172-15.898 8h-4.102v-14.469l12.496-1.562c2.191-.273 3.746-2.273 3.473-4.465-.273-2.193-2.283-3.773-4.465-3.473l-11.504 1.438v-1.469c0-2.209-1.791-4-4-4s-4 1.791-4 4v2.469l-12.496 1.562c-2.191.273-3.746 2.273-3.473 4.465.252 2.023 1.977 3.504 3.963 3.504.166 0 .334-.01.502-.031l11.504-1.438v13.469h-8c-2.209 0-4 1.791-4 4v12c0 2.209 1.791 4 4 4h16.301c1.081 4.576 5.175 8 10.076 8h14.562l-14.923 8.527c-1.246.711-2.016 2.038-2.016 3.473v12c0 2.209 1.791 4 4 4s4-1.791 4-4v-9.68l25.062-14.32h17.877l25.061 14.32v9.68c0 2.209 1.791 4 4 4s4-1.791 4-4v-12c0-1.436-.77-2.762-2.016-3.473l-14.923-8.527h14.562c4.901 0 8.995-3.424 10.076-8h16.301c2.209 0 4-1.791 4-4v-12c0-2.209-1.791-4-4-4h-8v-14.469l12.496-1.562c2.191-.273 3.746-2.273 3.473-4.465-.274-2.193-2.287-3.773-4.465-3.473zm-69.504 15.969c7.719 0 14 6.281 14 14s-6.281 14-14 14-14-6.281-14-14 6.281-14 14-14zm-62 16h12.404c-.264 1.293-.404 2.63-.404 4h-12zm20 9.623v-5.623c0-6.617 5.383-12 12-12h8.853c-.543 1.91-.853 3.918-.853 6 0 5.314 1.895 10.194 5.043 14h-22.666c-1.311 0-2.377-1.066-2.377-2.377zm84 0c0 1.311-1.066 2.377-2.377 2.377h-22.666c3.148-3.806 5.043-8.686 5.043-14 0-2.082-.31-4.09-.853-6h8.853c6.617 0 12 5.383 12 12zm20-5.623h-12c0-1.37-.141-2.707-.404-4h12.404z"/></g></svg>