<svg id="laptop" enable-background="new 0 0 300 300" height="512" viewBox="0 0 300 300" width="512" xmlns="http://www.w3.org/2000/svg"><g><path d="m236 81.277c6.617 0 12-5.383 12-12s-5.383-12-12-12-12 5.383-12 12 5.383 12 12 12zm0-16c2.207 0 4 1.795 4 4s-1.793 4-4 4-4-1.795-4-4 1.793-4 4-4z"/><path d="m90.172 79.781c2.502.005 4.533-2.02 4.538-4.521s-2.02-4.533-4.521-4.538-4.533 2.02-4.538 4.521c-.004 2.502 2.02 4.534 4.521 4.538z"/><path d="m210.172 51.781c2.502.005 4.533-2.02 4.538-4.521s-2.02-4.533-4.521-4.538-4.533 2.02-4.538 4.521c-.004 2.502 2.02 4.534 4.521 4.538z"/><path d="m115.516 65.762c.781.781 1.805 1.172 2.828 1.172s2.047-.391 2.828-1.172l2.828-2.828 2.828 2.828c.781.781 1.805 1.172 2.828 1.172s2.047-.391 2.828-1.172c1.562-1.562 1.562-4.094 0-5.656l-2.828-2.828 2.828-2.828c1.562-1.562 1.562-4.094 0-5.656s-4.094-1.562-5.656 0l-2.828 2.827-2.828-2.828c-1.562-1.562-4.094-1.562-5.656 0s-1.562 4.094 0 5.656l2.828 2.828-2.828 2.828c-1.563 1.563-1.563 4.094 0 5.657z"/><path d="m272 249.277h-10.162c3.817-4.251 6.162-9.85 6.162-16 0-2.209-1.789-4-4-4h-8v-113.4c0-8.051-6.977-14.6-15.551-14.6h-180.898c-8.574 0-15.551 6.549-15.551 14.6v113.4h-8c-2.211 0-4 1.791-4 4 0 6.15 2.345 11.749 6.162 16h-10.162c-2.211 0-4 1.791-4 4s1.789 4 4 4h244c2.211 0 4-1.791 4-4s-1.789-4-4-4zm-220-133.4c0-3.639 3.387-6.6 7.551-6.6h180.898c4.164 0 7.551 2.961 7.551 6.6v113.4h-76c-2.211 0-4 1.791-4 4 0 2.205-1.793 4-4 4h-24c-2.207 0-4-1.795-4-4 0-2.209-1.789-4-4-4h-80zm4 133.4c-7.441 0-13.715-5.107-15.492-12h88.176c1.652 4.656 6.102 8 11.316 8h24c5.215 0 9.664-3.344 11.316-8h84.176c-1.777 6.893-8.051 12-15.492 12z"/><path d="m158.938 185.277 25.062 14.321v9.68c0 2.209 1.789 4 4 4s4-1.791 4-4v-12c0-1.436-.77-2.762-2.016-3.473l-14.923-8.527h14.56c4.901 0 8.997-3.424 10.078-8h16.301c2.211 0 4-1.791 4-4v-12c0-2.209-1.789-4-4-4h-8v-14.469l12.496-1.562c2.191-.273 3.746-2.273 3.473-4.465s-2.254-3.762-4.465-3.473l-11.504 1.438v-1.469c0-2.209-1.789-4-4-4s-4 1.791-4 4v2.469l-12.496 1.562c-2.191.273-3.746 2.273-3.473 4.465.254 2.023 1.977 3.504 3.965 3.504.164 0 .332-.01.5-.031l11.504-1.439v13.469h-4.102c-3.655-4.828-9.39-8-15.898-8h-13.043c-4.039-4.883-10.141-8-16.957-8s-12.918 3.117-16.957 8h-13.043c-6.508 0-12.243 3.172-15.898 8h-4.102v-14.469l12.496-1.562c2.191-.273 3.746-2.273 3.473-4.465s-2.258-3.762-4.465-3.473l-11.504 1.439v-1.469c0-2.209-1.789-4-4-4s-4 1.791-4 4v2.469l-12.496 1.562c-2.191.273-3.746 2.273-3.473 4.465.254 2.023 1.977 3.504 3.965 3.504.164 0 .332-.01.5-.031l11.504-1.439v13.469h-8c-2.211 0-4 1.791-4 4v12c0 2.209 1.789 4 4 4h16.301c1.081 4.576 5.177 8 10.078 8h14.56l-14.923 8.527c-1.246.711-2.016 2.037-2.016 3.473v12c0 2.209 1.789 4 4 4s4-1.791 4-4v-9.68l25.062-14.32zm53.062-20v4h-12c0-1.37-.141-2.707-.404-4zm-32-8c6.617 0 12 5.383 12 12v5.623c0 1.311-1.066 2.377-2.379 2.377h-22.664c3.148-3.806 5.043-8.686 5.043-14 0-2.082-.31-4.09-.853-6zm-30-8c7.719 0 14 6.281 14 14s-6.281 14-14 14-14-6.281-14-14 6.281-14 14-14zm-62 16h12.404c-.264 1.293-.404 2.63-.404 4h-12zm20 9.624v-5.623c0-6.617 5.383-12 12-12h8.853c-.543 1.91-.853 3.918-.853 6 0 5.314 1.895 10.194 5.043 14h-22.664c-1.313-.001-2.379-1.067-2.379-2.377z"/></g></svg>