<svg id="layers" enable-background="new 0 0 300 300" height="512" viewBox="0 0 300 300" width="512" xmlns="http://www.w3.org/2000/svg"><g><path d="m264.51 187.681c-.029-1.727-1.16-3.24-2.809-3.754l-30.815-9.623 30.94-10.782c1.629-.568 2.711-2.117 2.684-3.842-.029-1.727-1.16-3.24-2.807-3.754l-62.984-19.669c.425-.787.769-1.62.98-2.512h16.301c2.209 0 4-1.791 4-4v-12c0-2.209-1.791-4-4-4h-8v-14.469l12.496-1.562c2.191-.273 3.746-2.273 3.473-4.465-.273-2.193-2.309-3.758-4.465-3.473l-11.504 1.438v-1.469c0-2.209-1.791-4-4-4s-4 1.791-4 4v2.469l-12.496 1.562c-2.191.273-3.746 2.273-3.473 4.465.252 2.023 1.977 3.504 3.963 3.504.166 0 .334-.01.502-.031l11.504-1.438v13.469h-4c-.031 0-.057.017-.088.018-3.654-4.838-9.396-8.018-15.912-8.018h-13.043c-4.039-4.883-10.14-8-16.957-8s-12.919 3.117-16.957 8h-13.043c-6.516 0-12.258 3.179-15.912 8.018-.031-.001-.057-.018-.088-.018h-4v-14.469l12.496-1.562c2.191-.273 3.746-2.273 3.473-4.465-.273-2.193-2.305-3.758-4.465-3.473l-11.504 1.438v-1.469c0-2.209-1.791-4-4-4s-4 1.791-4 4v2.469l-12.496 1.562c-2.191.273-3.746 2.273-3.473 4.465.252 2.023 1.977 3.504 3.963 3.504.166 0 .334-.01.502-.031l11.504-1.438v13.469h-8c-2.209 0-4 1.791-4 4v12c0 2.209 1.791 4 4 4h16.301c.211.893.555 1.726.98 2.514l-62.982 19.668c-1.648.514-2.779 2.027-2.809 3.754-.027 1.725 1.055 3.273 2.684 3.842l30.94 10.782-30.815 9.623c-1.648.514-2.779 2.027-2.809 3.754-.027 1.725 1.055 3.273 2.684 3.842l30.938 10.781-30.815 9.623c-1.646.514-2.777 2.027-2.807 3.754-.027 1.725 1.055 3.273 2.684 3.842l110.51 38.51c.426.148.871.223 1.316.223s.891-.074 1.316-.223l110.51-38.51c1.629-.568 2.711-2.117 2.684-3.842-.029-1.727-1.16-3.24-2.809-3.754l-30.815-9.622 30.94-10.782c1.629-.57 2.711-2.119 2.684-3.843zm-52.51-65.936v4h-12c0-1.37-.141-2.707-.404-4zm-32-8c6.617 0 12 5.383 12 12v5.623c0 1.311-1.066 2.377-2.377 2.377h-22.666c3.148-3.806 5.043-8.686 5.043-14 0-2.082-.31-4.09-.853-6zm-30-8c7.719 0 14 6.281 14 14s-6.281 14-14 14-14-6.281-14-14 6.281-14 14-14zm-30 8h8.853c-.543 1.91-.853 3.918-.853 6 0 5.314 1.895 10.194 5.043 14h-22.666c-1.311 0-2.377-1.066-2.377-2.377v-5.623c0-6.617 5.383-12 12-12zm-32 8h12.404c-.264 1.293-.404 2.63-.404 4h-12zm22.55 20h14.388l-14.923 8.527c-1.246.711-2.016 2.037-2.016 3.473v12c0 2.209 1.791 4 4 4s4-1.791 4-4v-9.68l25.062-14.32h17.877l25.062 14.32v9.68c0 2.209 1.791 4 4 4s4-1.791 4-4v-12c0-1.436-.77-2.762-2.016-3.473l-14.923-8.527h14.39l58.306 18.207-97.757 34.067-97.758-34.064zm137.206 74.209-97.756 34.065-97.758-34.066 29.555-9.228 66.887 23.308c.426.148.871.223 1.316.223s.891-.074 1.316-.223l66.885-23.308zm-97.756 6.065-97.758-34.064 29.555-9.23 66.886 23.308c.426.148.871.223 1.316.223s.891-.074 1.316-.223l66.886-23.308 29.555 9.23z"/><circle cx="244" cy="81.745" r="4"/><path d="m103.516 60.229c.781.781 1.805 1.172 2.828 1.172s2.047-.391 2.828-1.172l2.828-2.828 2.828 2.828c.781.781 1.805 1.172 2.828 1.172s2.047-.391 2.828-1.172c1.562-1.562 1.562-4.094 0-5.656l-2.828-2.828 2.828-2.828c1.562-1.562 1.562-4.094 0-5.656s-4.094-1.562-5.656 0l-2.828 2.828-2.828-2.828c-1.562-1.562-4.094-1.562-5.656 0s-1.562 4.094 0 5.656l2.828 2.828-2.828 2.828c-1.563 1.563-1.563 4.094 0 5.656z"/><path d="m224 65.745c6.617 0 12-5.383 12-12s-5.383-12-12-12-12 5.383-12 12 5.383 12 12 12zm0-16c2.205 0 4 1.795 4 4s-1.795 4-4 4-4-1.795-4-4 1.795-4 4-4z"/></g></svg>