<svg id="p-departure" enable-background="new 0 0 300 300" height="512" viewBox="0 0 300 300" width="512" xmlns="http://www.w3.org/2000/svg"><g><circle cx="162" cy="222" r="4"/><circle cx="50" cy="170" r="4"/><path d="m266 258h-27.814l2.956-65.027c1.484.66 3.129 1.027 4.857 1.027 6.617 0 12-5.383 12-12v-57.975c0-16.467-12.071-30.608-28-33.484v-1.227c4.656-1.65 8-6.1 8-11.314v-30.707c.001-7.33-5.962-13.293-13.292-13.293h-30.707c-2.209 0-4 1.791-4 4 0 6.516 3.179 12.258 8.018 15.912-.001.031-.018.057-.018.088v24c0 5.215 3.344 9.664 8 11.314v1.225c-15.102 2.735-26.871 15.682-27.895 31.301l-.105 8.16h-16c-6.617 0-12 5.383-12 12s5.383 12 12 12h32l.004 20.182 3.81 83.818h-163.814c-2.209 0-4 1.791-4 4s1.791 4 4 4h168 32 32c2.209 0 4-1.791 4-4s-1.791-4-4-4zm-20-72c-2.205 0-4-1.795-4-4v-4h8v4c0 2.205-1.795 4-4 4zm-21.293-144c2.918 0 5.293 2.375 5.293 5.293v2.707h-20c-5.215 0-9.664-3.344-11.314-8zm5.293 16v20c0 2.205-1.795 4-4 4-2.209 0-4 1.791-4 4v12c0 2.205-1.795 4-4 4s-4-1.795-4-4v-12c0-2.209-1.791-4-4-4-2.205 0-4-1.795-4-4v-20h4zm-72 84c0-2.205 1.795-4 4-4h4v8h-4c-2.205 0-4-1.795-4-4zm16 4v-8h8c2.209 0 4-1.791 4-4l-.006-9.773.098-1.924c.749-11.43 9.1-20.946 19.985-23.539.403 6.255 5.568 11.236 11.923 11.236 6.371 0 11.547-5.004 11.927-11.281 11.507 2.725 20.073 13.179 20.073 25.306v45.975h-8v-44c0-2.209-1.791-4-4-4s-4 1.791-4 4v44h-32v-44c0-2.209-1.791-4-4-4s-4 1.791-4 4v20zm48 112v-64c0-2.209-1.791-4-4-4s-4 1.791-4 4v64h-8.178l-3.64-80h31.632l-3.636 80z"/><path d="m106 242c2.209 0 4-1.791 4-4v-18.344l5.172 5.172c.781.781 1.805 1.172 2.828 1.172s2.047-.391 2.828-1.172c1.562-1.562 1.562-4.094 0-5.656l-12-12c-1.562-1.562-4.094-1.562-5.656 0l-12 12c-1.562 1.562-1.562 4.094 0 5.656s4.094 1.562 5.656 0l5.172-5.172v18.344c0 2.209 1.791 4 4 4z"/><path d="m120.828 175.172-12-12c-1.562-1.562-4.094-1.562-5.656 0l-12 12c-1.562 1.562-1.562 4.094 0 5.656s4.094 1.562 5.656 0l5.172-5.172v18.344c0 2.209 1.791 4 4 4s4-1.791 4-4v-18.344l5.172 5.172c.781.781 1.805 1.172 2.828 1.172s2.047-.391 2.828-1.172c1.563-1.562 1.563-4.094 0-5.656z"/><path d="m37.994 50c.166 0 .334-.01.502-.031l11.504-1.438v13.469h-8c-2.209 0-4 1.791-4 4v12c0 2.209 1.791 4 4 4h16.301c1.081 4.576 5.175 8 10.076 8h14.562l-14.923 8.527c-1.246.711-2.016 2.037-2.016 3.473v12c0 2.209 1.791 4 4 4s4-1.791 4-4v-9.68l25.062-14.32h17.877l25.061 14.32v9.68c0 2.209 1.791 4 4 4s4-1.791 4-4v-12c0-1.436-.77-2.762-2.016-3.473l-14.922-8.527h14.562c4.901 0 8.995-3.424 10.076-8h16.3c2.209 0 4-1.791 4-4v-12c0-2.209-1.791-4-4-4h-8v-14.469l12.496-1.562c2.191-.273 3.746-2.273 3.473-4.465-.273-2.193-2.309-3.752-4.465-3.473l-11.504 1.438v-1.469c0-2.209-1.791-4-4-4s-4 1.791-4 4v2.469l-12.496 1.562c-2.191.273-3.746 2.273-3.473 4.465.252 2.023 1.977 3.504 3.963 3.504.166 0 .334-.01.502-.031l11.504-1.438v13.469h-4.102c-3.655-4.828-9.39-8-15.898-8h-13.043c-4.039-4.883-10.14-8-16.957-8s-12.919 3.117-16.957 8h-13.043c-6.508 0-12.243 3.172-15.898 8h-4.102v-14.469l12.496-1.562c2.191-.273 3.746-2.273 3.473-4.465-.273-2.193-2.305-3.752-4.465-3.473l-11.504 1.438v-1.469c0-2.209-1.791-4-4-4s-4 1.791-4 4v2.469l-12.496 1.562c-2.191.273-3.746 2.273-3.473 4.465.252 2.024 1.977 3.504 3.963 3.504zm132.006 20v4h-12c0-1.37-.141-2.707-.404-4zm-32-8c6.617 0 12 5.383 12 12v5.623c0 1.311-1.066 2.377-2.377 2.377h-22.666c3.148-3.806 5.043-8.686 5.043-14 0-2.082-.31-4.09-.853-6zm-30-8c7.719 0 14 6.281 14 14s-6.281 14-14 14-14-6.281-14-14 6.281-14 14-14zm-30 8h8.853c-.543 1.91-.853 3.918-.853 6 0 5.314 1.895 10.194 5.043 14h-22.666c-1.311 0-2.377-1.066-2.377-2.377v-5.623c0-6.617 5.383-12 12-12zm-20 12h-12v-4h12.404c-.263 1.293-.404 2.63-.404 4z"/></g></svg>