<svg id="recharge" enable-background="new 0 0 300 300" height="512" viewBox="0 0 300 300" width="512" xmlns="http://www.w3.org/2000/svg"><g><path d="m247.195 50h-15.195v-8c0-2.209-1.789-4-4-4h-24c-2.211 0-4 1.791-4 4v8h-15.195c-9.266 0-16.805 7.539-16.805 16.807v138.387c0 7.062 5.746 12.807 12.805 12.807h31.128c-.711 19.965-17.133 36-37.268 36h-61.328c-20.587-.001-37.337-16.749-37.337-37.335v-90.666h8.973c3.875 0 7.027-3.152 7.027-7.027v-21.946c0-3.875-3.152-7.027-7.027-7.027h-.973v-16c0-2.209-1.789-4-4-4s-4 1.791-4 4v16h-8v-16c0-2.209-1.789-4-4-4s-4 1.791-4 4v16h-.973c-3.875 0-7.027 3.152-7.027 7.027v21.945c0 3.875 3.152 7.027 7.027 7.027h8.973v90.666c0 24.999 20.336 45.335 45.336 45.335h61.328c24.55 0 44.554-19.622 45.268-44h27.263c9.266 0 16.805-7.539 16.805-16.807v-134.386c0-9.268-7.539-16.807-16.805-16.807zm-187.195 48h24v20h-24zm148-52h16v4h-16zm48 155.193c0 4.855-3.949 8.807-8.805 8.807h-66.391c-2.648 0-4.805-2.156-4.805-4.807v-138.386c0-4.855 3.949-8.807 8.805-8.807h62.391c4.855 0 8.805 3.951 8.805 8.807z"/><path d="m236 86h-12v-16c0-1.762-1.152-3.318-2.84-3.828-1.68-.512-3.512.143-4.488 1.609l-24 36c-.816 1.227-.895 2.805-.199 4.105s2.05 2.114 3.527 2.114h12v20c0 1.799 1.199 3.375 2.934 3.855.352.098.711.145 1.066.145 1.379 0 2.695-.715 3.43-1.941l24-40c.742-1.236.762-2.775.051-4.029s-2.04-2.03-3.481-2.03zm-20 29.559v-9.559c0-2.209-1.789-4-4-4h-8.527l12.527-18.789v6.789c0 2.209 1.789 4 4 4h8.934z"/><path d="m131.516 130.484c.781.781 1.805 1.172 2.828 1.172s2.047-.391 2.828-1.172l2.828-2.828 2.828 2.828c.781.781 1.805 1.172 2.828 1.172s2.047-.391 2.828-1.172c1.562-1.562 1.562-4.094 0-5.656l-2.828-2.828 2.828-2.828c1.562-1.562 1.562-4.094 0-5.656s-4.094-1.562-5.656 0l-2.828 2.828-2.828-2.828c-1.562-1.562-4.094-1.562-5.656 0s-1.562 4.094 0 5.656l2.828 2.828-2.828 2.828c-1.563 1.563-1.563 4.094 0 5.656z"/><circle cx="40" cy="182" r="4"/><path d="m120 190c6.617 0 12-5.383 12-12s-5.383-12-12-12-12 5.383-12 12 5.383 12 12 12zm0-16c2.207 0 4 1.795 4 4s-1.793 4-4 4-4-1.795-4-4 1.793-4 4-4z"/><path d="m232 142h-32c-2.211 0-4 1.791-4 4s1.789 4 4 4h32c2.211 0 4-1.791 4-4s-1.789-4-4-4z"/><path d="m232 154h-32c-2.211 0-4 1.791-4 4s1.789 4 4 4h32c2.211 0 4-1.791 4-4s-1.789-4-4-4z"/><path d="m232 166h-32c-2.211 0-4 1.791-4 4s1.789 4 4 4h32c2.211 0 4-1.791 4-4s-1.789-4-4-4z"/><path d="m232 178h-32c-2.211 0-4 1.791-4 4s1.789 4 4 4h32c2.211 0 4-1.791 4-4s-1.789-4-4-4z"/><path d="m232 190h-32c-2.211 0-4 1.791-4 4s1.789 4 4 4h32c2.211 0 4-1.791 4-4s-1.789-4-4-4z"/></g></svg>