<svg id="rgb" enable-background="new 0 0 300 300" height="512" viewBox="0 0 300 300" width="512" xmlns="http://www.w3.org/2000/svg"><g><path d="m43.695 102.529c2.501 0 4.53-2.028 4.53-4.529 0-2.502-2.028-4.53-4.53-4.53s-4.53 2.028-4.53 4.53c.001 2.501 2.029 4.529 4.53 4.529z"/><path d="m245.695 228c-6.617 0-12 5.383-12 12s5.383 12 12 12 12-5.383 12-12-5.383-12-12-12zm0 16c-2.207 0-4-1.795-4-4s1.793-4 4-4 4 1.795 4 4-1.793 4-4 4z"/><path d="m105.695 73.141v-6.281c0-3.783-3.078-6.859-6.859-6.859h-13.141c-2.211 0-4 1.791-4 4v24c0 2.209 1.789 4 4 4s4-1.791 4-4v-6.344l9.172 9.172c.781.781 1.805 1.172 2.828 1.172s2.047-.391 2.828-1.172c1.562-1.562 1.562-4.094 0-5.656l-5.188-5.189c3.548-.257 6.36-3.228 6.36-6.843zm-8-1.141h-8v-4h8z"/><path d="m65.695 104h168c2.211 0 4-1.791 4-4v-48c0-2.209-1.789-4-4-4h-168c-2.211 0-4 1.791-4 4v48c0 2.209 1.789 4 4 4zm60-8v-40h48v40zm104 0h-48v-40h48zm-160-40h48v40h-48z"/><path d="m197.695 92c.291 0 .546-.107.819-.165.443.101.899.165 1.373.165h11.617c3.414 0 6.191-2.777 6.191-6.193v-7.613c0-.875-.187-1.706-.516-2.462.328-.801.516-1.673.516-2.591v-6.281c0-3.783-3.078-6.859-6.859-6.859h-13.141c-2.211 0-4 1.791-4 4v14.193 7.613 2.193c0 2.209 1.789 4 4 4zm12-8h-8v-4h8zm-8-16h8v4h-8z"/><path d="m157.695 72h-4c-2.211 0-4 1.791-4 4s1.789 4 4 4v4h-8v-16h8c2.211 0 4-1.791 4-4s-1.789-4-4-4h-12c-2.211 0-4 1.791-4 4v24c0 2.209 1.789 4 4 4h16c2.211 0 4-1.791 4-4v-12c0-2.209-1.789-4-4-4z"/><path d="m256 167.152h-14v-10.319l20.332-1.694c2.203-.184 3.836-2.117 3.652-4.318-.18-2.199-2.07-3.863-4.316-3.654l-19.668 1.638v-3.972l20.332-1.694c2.203-.184 3.836-2.117 3.652-4.318-.18-2.199-2.07-3.865-4.316-3.654l-19.668 1.638v-1.653c0-2.209-1.789-4-4-4s-4 1.791-4 4v2.319l-20.332 1.694c-2.203.184-3.836 2.117-3.652 4.318.172 2.088 1.922 3.668 3.98 3.668.109 0 .223-.004.336-.014l19.668-1.637v3.972l-20.332 1.694c-2.203.184-3.836 2.117-3.652 4.318.172 2.088 1.922 3.668 3.98 3.668.109 0 .223-.004.336-.014l19.668-1.638v9.653h-28.102c-3.655-4.828-9.39-8-15.898-8h-8.568c-1.789-6.881-7.997-12-15.432-12h-32c-7.435 0-13.643 5.119-15.432 12h-8.568c-6.508 0-12.243 3.172-15.898 8h-28.102v-10.319l20.332-1.694c2.203-.184 3.836-2.117 3.652-4.318-.18-2.199-2.062-3.863-4.316-3.654l-19.668 1.637v-3.972l20.332-1.694c2.203-.184 3.836-2.117 3.652-4.318-.18-2.199-2.062-3.865-4.316-3.654l-19.668 1.638v-1.653c0-2.209-1.789-4-4-4s-4 1.791-4 4v2.319l-20.332 1.694c-2.203.184-3.836 2.117-3.652 4.318.172 2.088 1.922 3.668 3.98 3.668.109 0 .223-.004.336-.014l19.668-1.637v3.972l-20.332 1.694c-2.203.184-3.836 2.117-3.652 4.318.172 2.088 1.922 3.668 3.98 3.668.109 0 .223-.004.336-.014l19.668-1.638v9.653h-14c-5.516 0-10 4.486-10 10s4.484 10 10 10h2v8c0 2.209 1.789 4 4 4h8v8c0 2.209 1.789 4 4 4s4-1.791 4-4v-8h8c2.211 0 4-1.791 4-4v-8h12v5.623c0 5.723 4.656 10.377 10.379 10.377h22.774l-18.778 8.346c-1.445.641-2.375 2.074-2.375 3.654v20c0 2.209 1.789 4 4 4s4-1.791 4-4v-17.4l32.847-14.6h14.306l32.847 14.6v17.4c0 2.209 1.789 4 4 4s4-1.791 4-4v-20c0-1.58-.93-3.014-2.375-3.654l-18.778-8.346h22.774c5.723 0 10.379-4.654 10.379-10.377v-5.623h12v8c0 2.209 1.789 4 4 4h8v8c0 2.209 1.789 4 4 4s4-1.791 4-4v-8h8c2.211 0 4-1.791 4-4v-8h2c5.516 0 10-4.486 10-10s-4.484-10.001-10-10.001zm-122-12h32c2.947 0 5.499 1.62 6.887 4h-45.774c1.388-2.379 3.94-4 6.887-4zm16 38c-6.617 0-12-5.383-12-12s5.383-12 12-12 12 5.383 12 12-5.383 12-12 12zm-80-2h-16v-4h16zm-26-12c-1.102 0-2-.896-2-2s.898-2 2-2h46.404c-.264 1.293-.404 2.63-.404 4zm54 13.623v-13.623c0-6.617 5.383-12 12-12h25.753c-3.549 3.611-5.753 8.549-5.753 14s2.204 10.389 5.753 14h-35.374c-1.313 0-2.379-1.066-2.379-2.377zm104 0c0 1.311-1.066 2.377-2.379 2.377h-35.374c3.549-3.611 5.753-8.549 5.753-14s-2.204-10.389-5.753-14h25.753c6.617 0 12 5.383 12 12zm44-1.623h-16v-4h16zm10-12h-46c0-1.37-.141-2.707-.404-4h46.404c1.102 0 2 .896 2 2s-.898 2-2 2z"/><circle cx="182" cy="183.153" r="4"/><circle cx="118" cy="183.153" r="4"/></g></svg>