<svg id="surveillance-car" enable-background="new 0 0 300 300" height="512" viewBox="0 0 300 300" width="512" xmlns="http://www.w3.org/2000/svg"><g><path d="m214 197.865v-19.338c0-7.755-5.388-14.233-12.605-16.006l-3.903-19.932c-1.426-7.295-8.199-12.59-16.109-12.59h-71.307c-7.906 0-14.68 5.295-16.109 12.588l-3.938 20.113c-6.919 1.975-12.029 8.284-12.029 15.827v19.336c-16.883 4.564-36 12.692-36 26.137 0 20.712 47.132 32.479 94.579 33.862l-5.382 5.284c-1.576 1.547-1.6 4.08-.051 5.656.784.798 1.819 1.198 2.854 1.198 1.012 0 2.023-.381 2.801-1.146l11.992-11.773c.82-.803 1.199-1.871 1.177-2.934.002-.052.03-.094.03-.146 0-1.4-.763-2.573-1.852-3.288l-11.292-11.513c-1.547-1.582-4.082-1.602-5.656-.055-1.578 1.547-1.602 4.08-.055 5.656l4.944 5.042c-53.585-1.567-86.089-15.604-86.089-25.843 0-4.699 7.617-12.095 28.702-18.026 1.927 6.752 7.993 11.738 15.298 11.973v8.053c0 6.617 5.383 12 12 12s12-5.383 12-12v-8h56v8c0 6.617 5.383 12 12 12s12-5.383 12-12v-8.053c7.306-.235 13.371-5.221 15.298-11.972 21.085 5.933 28.702 13.329 28.702 18.025 0 10.086-29.469 22.686-77.082 25.457-2.203.129-3.887 2.021-3.758 4.227.121 2.127 1.887 3.768 3.988 3.768.078 0 .156-.002.238-.006 42.118-2.454 84.614-13.745 84.614-33.446 0-13.452-19.146-21.58-36-26.135zm-103.924-59.865h71.307c4.09 0 7.562 2.576 8.258 6.127l3.5 17.873h-94.822l3.5-17.873c.695-3.551 4.167-6.127 8.257-6.127zm-.076 88c0 2.205-1.795 4-4 4s-4-1.795-4-4v-8h8zm76 4c-2.207 0-4-1.795-4-4v-8h8v8c0 2.205-1.793 4-4 4zm20-28.527c0 4.701-3.824 8.527-8.527 8.527h-102.946c-4.701 0-8.527-3.826-8.527-8.527v-22.945c0-4.701 3.826-8.527 8.527-8.527h102.945c4.703 0 8.527 3.826 8.527 8.527v22.945z"/><circle cx="254" cy="118" r="4"/><path d="m45.516 96.484c.781.781 1.805 1.172 2.828 1.172s2.047-.391 2.828-1.172l2.828-2.828 2.828 2.828c.781.781 1.805 1.172 2.828 1.172s2.047-.391 2.828-1.172c1.562-1.562 1.562-4.094 0-5.656l-2.828-2.828 2.828-2.828c1.562-1.562 1.562-4.094 0-5.656s-4.094-1.562-5.656 0l-2.828 2.828-2.828-2.828c-1.562-1.562-4.094-1.562-5.656 0s-1.562 4.094 0 5.656l2.828 2.828-2.828 2.828c-1.563 1.563-1.563 4.094 0 5.656z"/><path d="m242 94c6.617 0 12-5.383 12-12s-5.383-12-12-12-12 5.383-12 12 5.383 12 12 12zm0-16c2.207 0 4 1.795 4 4s-1.793 4-4 4-4-1.795-4-4 1.793-4 4-4z"/><path d="m182.273 177.332c-6.945 0-12.598 5.65-12.598 12.596 0 6.943 5.652 12.594 12.598 12.594s12.594-5.65 12.594-12.594c0-6.946-5.648-12.596-12.594-12.596zm0 17.189c-2.535 0-4.598-2.061-4.598-4.594s2.062-4.596 4.598-4.596c2.531 0 4.594 2.062 4.594 4.596s-2.062 4.594-4.594 4.594z"/><path d="m107.785 177.332c-6.945 0-12.596 5.65-12.596 12.596 0 6.943 5.65 12.594 12.596 12.594 6.943 0 12.594-5.65 12.594-12.594 0-6.946-5.65-12.596-12.594-12.596zm0 17.189c-2.533 0-4.596-2.061-4.596-4.594s2.062-4.596 4.596-4.596 4.594 2.062 4.594 4.596-2.061 4.594-4.594 4.594z"/><path d="m77.994 46c.166 0 .334-.01.502-.031l11.504-1.438v13.469h-8c-2.209 0-4 1.791-4 4v12c0 2.209 1.791 4 4 4h16.301c1.081 4.576 5.175 8 10.076 8h14.562l-14.923 8.527c-1.246.711-2.016 2.037-2.016 3.473v12c0 2.209 1.791 4 4 4s4-1.791 4-4v-9.68l25.062-14.32h17.877l25.061 14.32v9.68c0 2.209 1.789 4 4 4s4-1.791 4-4v-12c0-1.436-.77-2.762-2.016-3.473l-14.922-8.527h14.56c4.901 0 8.997-3.424 10.078-8h16.3c2.211 0 4-1.791 4-4v-12c0-2.209-1.789-4-4-4h-8v-14.469l12.496-1.562c2.191-.273 3.746-2.273 3.473-4.465-.273-2.189-2.258-3.748-4.465-3.473l-11.504 1.438v-1.469c0-2.209-1.789-4-4-4s-4 1.791-4 4v2.469l-12.496 1.562c-2.191.273-3.746 2.273-3.473 4.465.254 2.023 1.977 3.504 3.965 3.504.164 0 .332-.01.5-.031l11.504-1.438v13.469h-4.102c-3.655-4.828-9.39-8-15.898-8h-13.043c-4.039-4.883-10.141-8-16.957-8s-12.918 3.117-16.957 8h-13.043c-6.508 0-12.243 3.172-15.898 8h-4.102v-14.469l12.496-1.562c2.191-.273 3.746-2.273 3.473-4.465-.273-2.193-2.287-3.752-4.465-3.473l-11.504 1.438v-1.469c0-2.209-1.791-4-4-4s-4 1.791-4 4v2.469l-12.496 1.562c-2.191.273-3.746 2.273-3.473 4.465.252 2.024 1.977 3.504 3.963 3.504zm132.006 20v4h-12c0-1.37-.141-2.707-.404-4zm-32-8c6.617 0 12 5.383 12 12v5.623c0 1.311-1.066 2.377-2.379 2.377h-22.664c3.148-3.806 5.043-8.686 5.043-14 0-2.082-.31-4.09-.853-6zm-30-8c7.719 0 14 6.281 14 14s-6.281 14-14 14-14-6.281-14-14 6.281-14 14-14zm-30 8h8.853c-.543 1.91-.853 3.918-.853 6 0 5.314 1.895 10.194 5.043 14h-22.666c-1.311 0-2.377-1.066-2.377-2.377v-5.623c0-6.617 5.383-12 12-12zm-20 12h-12v-4h12.404c-.263 1.293-.404 2.63-.404 4z"/></g></svg>