<svg id="surveillance-earth" enable-background="new 0 0 300 300" height="512" viewBox="0 0 300 300" width="512" xmlns="http://www.w3.org/2000/svg"><g><circle cx="258" cy="128" r="4"/><circle cx="42" cy="192" r="4"/><path d="m66.484 117.516c-1.562-1.562-4.094-1.562-5.656 0l-2.828 2.828-2.828-2.828c-1.562-1.562-4.094-1.562-5.656 0s-1.562 4.094 0 5.656l2.828 2.828-2.828 2.828c-1.562 1.562-1.562 4.094 0 5.656.781.781 1.805 1.172 2.828 1.172s2.047-.391 2.828-1.172l2.828-2.828 2.828 2.828c.781.781 1.805 1.172 2.828 1.172s2.047-.391 2.828-1.172c1.562-1.562 1.562-4.094 0-5.656l-2.828-2.828 2.828-2.828c1.563-1.563 1.563-4.094 0-5.656z"/><path d="m258 92c0-6.617-5.383-12-12-12s-12 5.383-12 12 5.383 12 12 12 12-5.383 12-12zm-12 4c-2.207 0-4-1.795-4-4s1.793-4 4-4 4 1.795 4 4-1.793 4-4 4z"/><path d="m150 132c-35.289 0-64 28.711-64 64s28.711 64 64 64 64-28.711 64-64-28.711-64-64-64zm-20.227 11.839 5.458 12.274-5.625 5.625-10.996-1.691c-1.152-.18-2.328.156-3.215.918-.887.76-1.395 1.867-1.395 3.035v16c0 1.061.422 2.078 1.172 2.828l10 10c.559.559 1.27.939 2.043 1.094l5.559 1.111-1.657 4.967h-7.797l-6.848-11.984c-.574-1.004-1.555-1.711-2.688-1.938l-12.52-2.504-2.516-10.061c5.975-13.558 17.168-24.28 31.025-29.674zm20.227 108.161c-30.879 0-56-25.121-56-56 0-2.41.204-4.768.501-7.098.558 1.027 1.534 1.784 2.714 2.02l13.215 2.643 7.098 12.42c.71 1.245 2.038 2.015 3.472 2.015h13c1.723 0 3.25-1.102 3.793-2.734l4-12c.363-1.09.242-2.281-.332-3.273-.578-.992-1.551-1.689-2.676-1.914l-8.812-1.764-7.973-7.971v-9.682l8.391 1.291c1.262.195 2.539-.225 3.438-1.125l9-9c1.172-1.17 1.5-2.939.828-4.453l-6.183-13.912c4.033-.927 8.214-1.463 12.526-1.463 30.879 0 56 25.121 56 56s-25.121 56-56 56z"/><path d="m180.836 220.387c-2.582-3.002-5.59-6.604-6.695-8.057l-.25-2.215c-.172-1.623-1.152-2.621-2.191-3.68-.164-.166-.332-.332-.477-.486-.332-.688-.859-1.277-1.531-1.686-1.199-.723-2.691-.77-3.93-.117l-2.594 1.363c-.168-.676-.461-1.322-.879-1.898-1.031-1.436-2.703-2.293-4.473-2.293h-3.57c-2.098 0-3.984 1.164-4.934 3.047l-.363.727c-.16.006-.32.014-.48.021-2.418.115-4.324.207-5.617 2.021l-4.191 5.869c-1.246.674-4.137 2.168-6.707 3.475-2.711 1.355-3.816 4.668-2.539 7.236l6.023 13.51c1.016 2.279 4.082 2.891 6.27 1.711l3.961-1.637c1.766-.338 3.234-1.531 3.973-3.207h4.75c1.258.814 3.625 2.512 4.832 3.482l.379 2.246c.613 2.461 2.812 4.18 5.348 4.18.586 0 1.168-.129 1.699-.379 1.598-.75 3.633-1.652 4.324-1.896.406-.078.797-.221 1.16-.42 3.258-1.789 3.898-2.59 4.352-3.381.082-.146.156-.295.219-.449l4.957-11.895c.098-.236.176-.48.227-.73.27-1.307.055-2.666-.609-3.83-.128-.224-.276-.437-.444-.632zm-11.129 13.078c-.316.203-.676.412-.953.568-.453.141-1.055.365-1.906.723l-.012-.082c-.637-2.545-9.141-8.582-11.402-8.582h-7.77c-2.422 0-4.48 1.568-5.219 3.883l-1.254.518-3.539-7.938c6.312-3.221 6.391-3.332 7.02-4.207l3.73-5.225c.148-.006.297-.012.445-.02 2.656-.127 5.168-.246 6.379-2.678l.301-.602c.48 1.248 1.402 2.324 2.664 2.959.199.1.406.184.617.248 1.637.504 5.082 1.564 7.355-.037l.129 1.145c.137 1.297.188 1.777 7.273 10.064z"/><path d="m162 165.656v6.344c0 2.209 1.789 4 4 4s4-1.791 4-4v-8c0-1.061-.422-2.078-1.172-2.828l-8-8c-1.562-1.562-4.094-1.562-5.656 0s-1.562 4.094 0 5.656z"/><path d="m146 180c1.023 0 2.047-.391 2.828-1.172l4-4c1.562-1.562 1.562-4.094 0-5.656s-4.094-1.562-5.656 0l-4 4c-1.562 1.562-1.562 4.094 0 5.656.781.781 1.805 1.172 2.828 1.172z"/><path d="m158 188v4c0 2.209 1.789 4 4 4s4-1.791 4-4v-4c0-2.209-1.789-4-4-4s-4 1.791-4 4z"/><path d="m221.504 44.031-11.504 1.438v-1.469c0-2.209-1.789-4-4-4s-4 1.791-4 4v2.469l-12.496 1.562c-2.191.273-3.746 2.273-3.473 4.465.254 2.023 1.977 3.504 3.965 3.504.164 0 .332-.01.5-.031l11.504-1.438v13.469h-4.103c-3.654-4.828-9.39-8-15.897-8h-13.043c-4.039-4.883-10.142-8-16.957-8s-12.918 3.117-16.957 8h-13.043c-6.508 0-12.243 3.172-15.897 8h-4.103v-14.469l12.496-1.562c2.191-.273 3.746-2.273 3.473-4.465s-2.25-3.756-4.465-3.473l-11.504 1.438v-1.469c0-2.209-1.789-4-4-4s-4 1.791-4 4v2.469l-12.496 1.562c-2.191.273-3.746 2.273-3.473 4.465.254 2.024 1.977 3.504 3.965 3.504.164 0 .332-.01.5-.031l11.504-1.438v13.469h-8c-2.211 0-4 1.791-4 4v12c0 2.209 1.789 4 4 4h16.301c1.081 4.576 5.177 8 10.078 8h14.56l-14.923 8.527c-1.246.711-2.016 2.037-2.016 3.473v12c0 2.209 1.789 4 4 4s4-1.791 4-4v-9.68l25.062-14.32h17.877l25.061 14.32v9.68c0 2.209 1.789 4 4 4s4-1.791 4-4v-12c0-1.436-.77-2.762-2.016-3.473l-14.922-8.527h14.56c4.901 0 8.997-3.424 10.078-8h16.3c2.211 0 4-1.791 4-4v-12c0-2.209-1.789-4-4-4h-8v-14.469l12.496-1.562c2.191-.273 3.746-2.273 3.473-4.465s-2.25-3.756-4.465-3.473zm-69.504 15.969c7.719 0 14 6.281 14 14s-6.281 14-14 14-14-6.281-14-14 6.281-14 14-14zm-62 16h12.404c-.264 1.293-.404 2.63-.404 4h-12zm20 9.623v-5.623c0-6.617 5.383-12 12-12h8.853c-.543 1.91-.853 3.918-.853 6 0 5.314 1.895 10.194 5.043 14h-22.664c-1.313 0-2.379-1.066-2.379-2.377zm84 0c0 1.311-1.066 2.377-2.379 2.377h-22.664c3.148-3.806 5.043-8.686 5.043-14 0-2.082-.31-4.09-.853-6h8.853c6.617 0 12 5.383 12 12zm20-5.623h-12c0-1.37-.141-2.707-.404-4h12.404z"/></g></svg>