<svg id="surveillance-pyramids" enable-background="new 0 0 300 300" height="512" viewBox="0 0 300 300" width="512" xmlns="http://www.w3.org/2000/svg"><g><circle cx="254" cy="130" r="4"/><path d="m45.516 108.484c.781.781 1.805 1.172 2.828 1.172s2.047-.391 2.828-1.172l2.828-2.828 2.828 2.828c.781.781 1.805 1.172 2.828 1.172s2.047-.391 2.828-1.172c1.562-1.562 1.562-4.094 0-5.656l-2.828-2.828 2.828-2.828c1.562-1.562 1.562-4.094 0-5.656s-4.094-1.562-5.656 0l-2.828 2.828-2.828-2.828c-1.562-1.562-4.094-1.562-5.656 0s-1.562 4.094 0 5.656l2.828 2.828-2.828 2.828c-1.563 1.563-1.563 4.094 0 5.656z"/><path d="m242 106c6.617 0 12-5.383 12-12s-5.383-12-12-12-12 5.383-12 12 5.383 12 12 12zm0-16c2.205 0 4 1.795 4 4s-1.795 4-4 4-4-1.795-4-4 1.795-4 4-4z"/><path d="m270 194h-16.358l-40.626-46.627c-.756-.869-1.852-1.369-3.004-1.373-1.156.146-2.25.49-3.012 1.354l-32.95 37.361-33.054-37.365c-.764-.863-1.869-1.215-3.014-1.35-1.152.006-2.246.508-3.002 1.377l-13.989 16.105-27.976-32.109c-.756-.869-1.852-1.369-3.004-1.373-1 .014-2.25.49-3.012 1.354l-41.137 46.646h-15.862c-2.209 0-4 1.791-4 4s1.791 4 4 4h71.433l-56.785 65.377c-1.027 1.184-1.27 2.857-.619 4.283.648 1.426 2.072 2.34 3.639 2.34h182.332c1.574 0 3-.922 3.646-2.357.646-1.434.393-3.115-.65-4.293l-43.655-49.35h80.659c2.209 0 4-1.791 4-4s-1.791-4-4-4zm-160.061-17.792-8.563-23.064 14.32 16.436zm-53.41 1.792 32.048-36.339 13.493 36.339zm80.126-20.352 35.52 92.352h-115.734zm44.093 92.352-31.056-80.745 71.429 80.745zm1.516-56-2.872-3.246 29.186-33.093 13.492 36.339zm48.34 0-9.229-24.855 21.656 24.855z"/><path d="m77.994 58c.166 0 .334-.01.502-.031l11.504-1.438v13.469h-8c-2.209 0-4 1.791-4 4v12c0 2.209 1.791 4 4 4h16.301c1.081 4.576 5.175 8 10.076 8h14.562l-14.923 8.527c-1.246.711-2.016 2.037-2.016 3.473v12c0 2.209 1.791 4 4 4s4-1.791 4-4v-9.68l25.062-14.32h17.877l25.061 14.32v9.68c0 2.209 1.791 4 4 4s4-1.791 4-4v-12c0-1.436-.77-2.762-2.016-3.473l-14.922-8.527h14.562c4.901 0 8.995-3.424 10.076-8h16.3c2.209 0 4-1.791 4-4v-12c0-2.209-1.791-4-4-4h-8v-14.469l12.496-1.562c2.191-.273 3.746-2.273 3.473-4.465-.273-2.193-2.305-3.77-4.465-3.473l-11.504 1.438v-1.469c0-2.209-1.791-4-4-4s-4 1.791-4 4v2.469l-12.496 1.562c-2.191.273-3.746 2.273-3.473 4.465.252 2.023 1.977 3.504 3.963 3.504.166 0 .334-.01.502-.031l11.504-1.438v13.469h-4.102c-3.655-4.828-9.39-8-15.898-8h-13.043c-4.039-4.883-10.14-8-16.957-8s-12.919 3.117-16.957 8h-13.043c-6.508 0-12.243 3.172-15.898 8h-4.102v-14.469l12.496-1.562c2.191-.273 3.746-2.273 3.473-4.465-.273-2.193-2.301-3.77-4.465-3.473l-11.504 1.438v-1.469c0-2.209-1.791-4-4-4s-4 1.791-4 4v2.469l-12.496 1.562c-2.191.273-3.746 2.273-3.473 4.465.252 2.024 1.977 3.504 3.963 3.504zm132.006 20v4h-12c0-1.37-.141-2.707-.404-4zm-32-8c6.617 0 12 5.383 12 12v5.623c0 1.311-1.066 2.377-2.377 2.377h-22.666c3.148-3.806 5.043-8.686 5.043-14 0-2.082-.31-4.09-.853-6zm-30-8c7.719 0 14 6.281 14 14s-6.281 14-14 14-14-6.281-14-14 6.281-14 14-14zm-30 8h8.853c-.543 1.91-.853 3.918-.853 6 0 5.314 1.895 10.194 5.043 14h-22.666c-1.311 0-2.377-1.066-2.377-2.377v-5.623c0-6.617 5.383-12 12-12zm-20 12h-12v-4h12.404c-.263 1.293-.404 2.63-.404 4z"/></g></svg>