<svg id="surveillance-sea" enable-background="new 0 0 300 300" height="512" viewBox="0 0 300 300" width="512" xmlns="http://www.w3.org/2000/svg"><g><circle cx="259.875" cy="150.504" r="4"/><path d="m51.391 156.988c.781.781 1.805 1.172 2.828 1.172s2.047-.391 2.828-1.172l2.828-2.828 2.828 2.828c.781.781 1.805 1.172 2.828 1.172s2.047-.391 2.828-1.172c1.562-1.562 1.562-4.094 0-5.656l-2.828-2.828 2.828-2.828c1.562-1.562 1.562-4.094 0-5.656s-4.094-1.562-5.656 0l-2.828 2.828-2.828-2.828c-1.562-1.562-4.094-1.562-5.656 0s-1.562 4.094 0 5.656l2.828 2.828-2.828 2.828c-1.563 1.563-1.563 4.094 0 5.656z"/><path d="m247.875 126.504c6.617 0 12-5.383 12-12s-5.383-12-12-12-12 5.383-12 12 5.383 12 12 12zm0-16c2.207 0 4 1.795 4 4s-1.793 4-4 4-4-1.795-4-4 1.793-4 4-4z"/><path d="m49.984 213.496c7.16 0 13.895-3.164 18.477-8.68.504-.607 1.234-.672 1.523-.672s1.02.064 1.523.672c4.578 5.516 11.312 8.68 18.477 8.68 7.16 0 13.895-3.164 18.477-8.68.504-.607 1.234-.672 1.523-.672s1.02.064 1.523.672c4.578 5.516 11.312 8.68 18.477 8.68 7.16 0 13.895-3.164 18.477-8.68.504-.607 1.234-.672 1.523-.672s1.02.064 1.523.672c4.578 5.516 11.312 8.68 18.477 8.68 7.16 0 13.895-3.164 18.477-8.68.504-.607 1.234-.672 1.523-.672s1.02.064 1.523.672c4.578 5.516 11.312 8.68 18.477 8.68 7.16 0 13.895-3.164 18.477-8.68.504-.607 1.234-.672 1.523-.672s1.02.064 1.523.672c4.578 5.516 11.312 8.68 18.477 8.68 7.621 0 14.617-3.498 19.199-9.596 1.324-1.766.969-4.273-.797-5.602-1.766-1.322-4.277-.969-5.602.797-3.055 4.068-7.719 6.4-12.801 6.4-4.777 0-9.266-2.109-12.32-5.789-3.758-4.527-11.602-4.525-15.359-.002-3.055 3.68-7.547 5.791-12.32 5.791-4.777 0-9.266-2.109-12.32-5.789-3.758-4.527-11.602-4.525-15.359-.002-3.055 3.68-7.547 5.791-12.32 5.791-4.777 0-9.266-2.109-12.32-5.789-3.758-4.527-11.602-4.525-15.359-.002-3.055 3.68-7.547 5.791-12.32 5.791-4.777 0-9.266-2.109-12.32-5.789-3.758-4.527-11.602-4.525-15.359-.002-3.055 3.68-7.547 5.791-12.32 5.791-4.777 0-9.266-2.109-12.32-5.789-3.758-4.527-11.602-4.525-15.359-.002-3.055 3.68-7.547 5.791-12.32 5.791-5.066 0-9.723-2.32-12.777-6.365-1.332-1.764-3.84-2.113-5.602-.781-1.762 1.33-2.113 3.838-.781 5.602 4.574 6.067 11.559 9.545 19.156 9.545z"/><path d="m262.785 223.096c-3.055 4.068-7.719 6.4-12.801 6.4-4.777 0-9.266-2.109-12.32-5.789-3.758-4.527-11.602-4.525-15.359-.002-3.055 3.68-7.547 5.791-12.32 5.791-4.777 0-9.266-2.109-12.32-5.789-3.758-4.527-11.602-4.525-15.359-.002-3.055 3.68-7.547 5.791-12.32 5.791-4.777 0-9.266-2.109-12.32-5.789-3.758-4.527-11.602-4.525-15.359-.002-3.055 3.68-7.547 5.791-12.32 5.791-4.777 0-9.266-2.109-12.32-5.789-3.758-4.527-11.602-4.525-15.359-.002-3.055 3.68-7.547 5.791-12.32 5.791-4.777 0-9.266-2.109-12.32-5.789-3.758-4.527-11.602-4.525-15.359-.002-3.055 3.68-7.547 5.791-12.32 5.791-5.066 0-9.723-2.32-12.777-6.365-1.332-1.764-3.84-2.115-5.602-.781-1.762 1.33-2.113 3.838-.781 5.602 4.578 6.066 11.562 9.545 19.16 9.545 7.16 0 13.895-3.164 18.477-8.68.504-.607 1.234-.672 1.523-.672s1.02.064 1.523.672c4.578 5.516 11.312 8.68 18.477 8.68 7.16 0 13.895-3.164 18.477-8.68.504-.607 1.234-.672 1.523-.672s1.02.064 1.523.672c4.578 5.516 11.312 8.68 18.477 8.68 7.16 0 13.895-3.164 18.477-8.68.504-.607 1.234-.672 1.523-.672s1.02.064 1.523.672c4.578 5.516 11.312 8.68 18.477 8.68 7.16 0 13.895-3.164 18.477-8.68.504-.607 1.234-.672 1.523-.672s1.02.064 1.523.672c4.578 5.516 11.312 8.68 18.477 8.68 7.16 0 13.895-3.164 18.477-8.68.504-.607 1.234-.672 1.523-.672s1.02.064 1.523.672c4.578 5.516 11.312 8.68 18.477 8.68 7.621 0 14.617-3.498 19.199-9.596 1.324-1.766.969-4.273-.797-5.602-1.77-1.32-4.282-.971-5.606.797z"/><path d="m83.871 78.504c.164 0 .332-.01.5-.031l11.504-1.438v13.469h-8c-2.211 0-4 1.791-4 4v12c0 2.209 1.789 4 4 4h16.301c1.081 4.576 5.177 8 10.078 8h14.56l-14.923 8.527c-1.246.711-2.016 2.037-2.016 3.473v12c0 2.209 1.789 4 4 4s4-1.791 4-4v-9.68l25.062-14.32h17.877l25.062 14.32v9.68c0 2.209 1.789 4 4 4s4-1.791 4-4v-12c0-1.436-.77-2.762-2.016-3.473l-14.923-8.527h14.56c4.901 0 8.997-3.424 10.078-8h16.301c2.211 0 4-1.791 4-4v-12c0-2.209-1.789-4-4-4h-8v-14.469l12.496-1.562c2.191-.273 3.746-2.273 3.473-4.465s-2.254-3.762-4.465-3.473l-11.504 1.438v-1.469c0-2.209-1.789-4-4-4s-4 1.791-4 4v2.469l-12.496 1.562c-2.191.273-3.746 2.273-3.473 4.465.254 2.023 1.977 3.504 3.965 3.504.164 0 .332-.01.5-.031l11.504-1.438v13.469h-4.102c-3.655-4.828-9.39-8-15.898-8h-13.043c-4.039-4.883-10.141-8-16.957-8s-12.918 3.117-16.957 8h-13.043c-6.508 0-12.243 3.172-15.898 8h-4.102v-14.469l12.496-1.562c2.191-.273 3.746-2.273 3.473-4.465s-2.258-3.762-4.465-3.473l-11.504 1.438v-1.469c0-2.209-1.789-4-4-4s-4 1.791-4 4v2.469l-12.496 1.562c-2.191.273-3.746 2.273-3.473 4.465.253 2.023 1.976 3.504 3.964 3.504zm132.004 20v4h-12c0-1.37-.141-2.707-.404-4zm-32-8c6.617 0 12 5.383 12 12v5.623c0 1.311-1.066 2.377-2.379 2.377h-22.664c3.148-3.806 5.043-8.686 5.043-14 0-2.082-.31-4.09-.853-6zm-30-8c7.719 0 14 6.281 14 14s-6.281 14-14 14-14-6.281-14-14 6.281-14 14-14zm-30 8h8.853c-.543 1.91-.853 3.918-.853 6 0 5.314 1.895 10.194 5.043 14h-22.664c-1.312 0-2.379-1.066-2.379-2.377v-5.623c0-6.617 5.383-12 12-12zm-20 12h-12v-4h12.404c-.263 1.293-.404 2.63-.404 4z"/></g></svg>