<svg id="terrain-search" enable-background="new 0 0 300 300" height="512" viewBox="0 0 300 300" width="512" xmlns="http://www.w3.org/2000/svg"><g><path d="m212.484 173.516c-1.562-1.562-4.094-1.562-5.656 0l-2.828 2.828-2.828-2.828c-1.562-1.562-4.094-1.562-5.656 0s-1.562 4.094 0 5.656l2.828 2.828-2.828 2.828c-1.562 1.562-1.562 4.094 0 5.656.781.781 1.805 1.172 2.828 1.172s2.047-.391 2.828-1.172l2.828-2.828 2.828 2.828c.781.781 1.805 1.172 2.828 1.172s2.047-.391 2.828-1.172c1.562-1.562 1.562-4.094 0-5.656l-2.828-2.828 2.828-2.828c1.563-1.563 1.563-4.094 0-5.656z"/><path d="m256 198h-4v-4c0-2.209-1.789-4-4-4s-4 1.791-4 4v4h-4c-2.211 0-4 1.791-4 4s1.789 4 4 4h4v4c0 2.209 1.789 4 4 4s4-1.791 4-4v-4h4c2.211 0 4-1.791 4-4s-1.789-4-4-4z"/><circle cx="204.018" cy="226.45" r="4.276"/><circle cx="120" cy="222" r="4"/><circle cx="100" cy="202" r="4"/><path d="m239.391 150c6.953 0 12.609-5.656 12.609-12.609v-58.782c0-6.953-5.656-12.609-12.609-12.609h-70.781c-1.63 0-3.178.335-4.609.901v-8.606c-.001-11.191-9.106-20.295-20.298-20.295h-83.406c-11.192 0-20.297 9.104-20.297 20.295v183.41c0 11.191 9.105 20.295 20.297 20.295h83.406c11.191 0 20.297-9.104 20.297-20.295v-92.606c1.431.566 2.979.901 4.609.901zm-115.863-104c-.947 2.341-3.235 4-5.911 4h-27.234c-2.676 0-4.964-1.659-5.911-4zm32.472 195.705c0 6.779-5.516 12.295-12.297 12.295h-83.406c-6.781 0-12.297-5.516-12.297-12.295v-183.41c0-6.779 5.516-12.295 12.297-12.295h15.944c1.145 6.794 7.028 12 14.142 12h27.234c7.113 0 12.997-5.206 14.142-12h11.944c6.781 0 12.297 5.516 12.297 12.295v37.439l-12 7.2v-22.711c0-7.842-6.254-14.223-13.938-14.223h-17.082l-.004-.002c0 .001-.001.001-.001.002h-39.037c-7.684 0-13.938 6.381-13.938 14.223v151.555c0 7.841 6.254 14.222 13.938 14.222h56.125c7.684 0 13.938-6.381 13.938-14.223v-114.712l12 7.2v117.44zm-59.023-3.705-.098-.137c-10.766-14.908-24.168-33.463-12-59.049.117-.244.207-.5.27-.764.539-2.182 1.34-3.482 2.387-3.863 4.777-1.729 17.004 7.213 25.938 13.74 8.935 6.527 16.429 11.968 22.527 13.176v30.674c0 3.432-2.664 6.223-5.938 6.223zm39.023-45.135c-4.534-1.733-12.558-7.563-17.809-11.399-12.664-9.25-24.621-17.992-33.398-14.795-3.605 1.314-6.062 4.363-7.309 9.064-12.616 26.918-1.047 47.05 9.664 62.264h-13.21c-3.273 0-5.938-2.791-5.938-6.223v-65.916c4.125-4.817 10.446-7.456 18.863-7.82 16.582-.711 36.168 7.986 41.391 14.416 3.006 3.231 5.579 5.372 7.746 6.805zm-12.262-118.865c-2.349 11.859-11.228 31.464-26.336 44.412-9.173 7.856-19.068 11.82-29.402 11.855v-26.662c16.449-.263 39.985-15.568 49.541-29.606h6.197zm-55.738 21.648v-15.425c0-3.432 2.664-6.223 5.938-6.223h33.449c-9.687 10.644-27.699 21.509-39.387 21.648zm0 42.654c12.294-.026 23.924-4.659 34.605-13.815 17.199-14.738 26.877-36.812 29.199-50.181 2.42.786 4.195 3.125 4.195 5.917v26.914c-11.611 7.584-24.82 17.646-23.961 28.268.441 5.432 4.352 9.816 11.918 13.15 6.239 2.192 10.6 7.858 12.043 9.942v10.448c-.546-.531-1.102-1.081-1.707-1.73-7.109-8.77-29.035-17.949-47.777-17.166-7.273.315-13.51 2.146-18.516 5.346v-17.093zm68 8.285c-2.491-2.162-5.543-4.219-9.102-5.464-3.012-1.334-6.656-3.521-6.887-6.363-.241-3.002 2.509-8.502 15.988-17.956v29.783zm28-9.196v-15.391c0-1.404-.738-2.707-1.941-3.43l-14.286-8.57 14.285-8.57c1.204-.723 1.942-2.026 1.942-3.43v-19.391c0-2.541 2.066-4.609 4.609-4.609h70.781c2.543 0 4.609 2.068 4.609 4.609v58.781c0 2.541-2.066 4.609-4.609 4.609h-70.781c-2.543.001-4.609-2.067-4.609-4.608z"/><path d="m198 122c3.514 0 6.771-1.051 9.544-2.799l9.627 9.627c.781.781 1.805 1.172 2.828 1.172s2.047-.391 2.828-1.172c1.562-1.562 1.562-4.094 0-5.656l-9.627-9.627c1.748-2.774 2.799-6.03 2.799-9.544 0-9.926-8.074-18-18-18s-18 8.074-18 18 8.075 17.999 18.001 17.999zm0-28c5.516 0 10 4.486 10 10s-4.484 10-10 10-10-4.486-10-10 4.484-10 10-10z"/></g></svg>