<svg id="user-boy" enable-background="new 0 0 300 300" height="512" viewBox="0 0 300 300" width="512" xmlns="http://www.w3.org/2000/svg"><g><path d="m183.516 94.712c.781.781 1.805 1.172 2.828 1.172s2.047-.391 2.828-1.172l2.828-2.828 2.828 2.828c.781.781 1.805 1.172 2.828 1.172s2.047-.391 2.828-1.172c1.562-1.562 1.562-4.094 0-5.656l-2.828-2.828 2.828-2.828c1.562-1.562 1.562-4.094 0-5.656s-4.094-1.562-5.656 0l-2.828 2.827-2.828-2.828c-1.562-1.562-4.094-1.562-5.656 0s-1.562 4.094 0 5.656l2.828 2.828-2.828 2.828c-1.563 1.563-1.563 4.094 0 5.657z"/><path d="m102.266 146.837c1.82-1.252 2.393-3.812 1.143-5.633-1.252-1.82-3.631-2.35-5.451-1.1-.016.008-1.633.811-5.957.811-4.025 0-5.705-.695-5.93-.799-1.805-1.094-4.162-.6-5.367 1.158-1.25 1.82-.789 4.311 1.031 5.562.709.486 3.545 2.078 10.266 2.078s9.556-1.591 10.265-2.077z"/><path d="m272 238.227h-28v-4c0-1.436-.77-2.762-2.016-3.473l-14.923-8.527h14.562c4.901 0 8.995-3.424 10.076-8h16.301c2.209 0 4-1.791 4-4v-12c0-2.209-1.791-4-4-4h-8v-14.469l12.496-1.562c2.191-.273 3.746-2.273 3.473-4.465-.273-2.193-2.285-3.766-4.465-3.473l-11.504 1.439v-1.469c0-2.209-1.791-4-4-4s-4 1.791-4 4v2.469l-12.496 1.562c-2.191.273-3.746 2.273-3.473 4.465.252 2.023 1.977 3.504 3.963 3.504.166 0 .334-.01.502-.031l11.504-1.439v13.469h-4c-.031 0-.057.017-.088.018-3.654-4.838-9.396-8.018-15.912-8.018h-13.043c-4.039-4.883-10.14-8-16.957-8s-12.919 3.117-16.957 8h-13.043c-6.516 0-12.258 3.179-15.912 8.018-.031-.001-.057-.018-.088-.018h-4v-14.469l12.496-1.562c2.191-.273 3.746-2.273 3.473-4.465-.273-2.193-2.307-3.766-4.465-3.473l-11.504 1.439v-1.469c0-2.209-1.791-4-4-4s-4 1.791-4 4v2.469l-12.496 1.562c-2.191.273-3.746 2.273-3.473 4.465.252 2.023 1.977 3.504 3.963 3.504.166 0 .334-.01.502-.031l11.504-1.439v13.469h-6.141c-6.317-4.993-14.274-8-22.933-8-.488 0-.963-.053-1.422-.15-.027-.011-.054-.015-.081-.025-3.096-.69-5.422-3.45-5.422-6.751v-4.191c4.301-1.733 8.345-4.144 11.957-7.252 8.018-6.898 13.066-16.311 14.476-26.702 1.774.662 3.646 1.072 5.567 1.072 8.822 0 16-7.178 16-16 0-7.433-5.119-13.643-12-15.432v-26.096l5.789-2.895c.99-.496 1.732-1.381 2.047-2.443s.174-2.207-.389-3.162c-13.5-22.951-29.482-35.752-47.506-38.051-23.592-3.027-42.309 13.077-46.096 16.604-7.914 2.959-13.535 7.828-16.719 14.482-5.141 10.75-2.057 22.612-1.127 25.625v15.367c0 .19.082.352.108.535-6.937 1.75-12.108 7.993-12.108 15.465 0 8.822 7.178 16 16 16 1.959 0 3.841-.399 5.616-1.065 2.506 15.357 12.78 28.134 26.384 33.836v4.303c0 3.302-2.328 6.064-5.427 6.752-.024.009-.048.013-.071.022-.461.097-.938.151-1.428.151-20.443.001-37.074 16.632-37.074 37.076v14.926h-4c-2.209 0-4 1.791-4 4v16c0 2.209 1.791 4 4 4s4-1.791 4-4v-12h236v12c0 2.209 1.791 4 4 4s4-1.791 4-4v-16c0-2.21-1.791-4.001-4-4.001zm-36-1.679v1.68h-68v-1.68l25.062-14.32h17.877zm-83.699-22.321c1.081 4.576 5.175 8 10.076 8h14.562l-14.923 8.527c-1.246.711-2.016 2.037-2.016 3.473v4h-8v-14.926c0-3.135-.434-6.164-1.17-9.074zm111.699-12v4h-12c0-1.37-.141-2.707-.404-4zm-32-8c6.617 0 12 5.383 12 12v5.623c0 1.311-1.066 2.377-2.377 2.377h-22.666c3.148-3.806 5.043-8.686 5.043-14 0-2.082-.31-4.09-.853-6zm-30-8c7.719 0 14 6.281 14 14s-6.281 14-14 14-14-6.281-14-14 6.281-14 14-14zm-30 8h8.853c-.543 1.91-.853 3.918-.853 6 0 5.314 1.895 10.194 5.043 14h-22.666c-1.311 0-2.377-1.066-2.377-2.377v-5.623c0-6.617 5.383-12 12-12zm-20 12h-4.2c-.723-1.386-1.524-2.723-2.41-4h7.014c-.263 1.293-.404 2.631-.404 4zm-96-88c0-6.617 5.383-12 12-12h48c6.617 0 12 5.383 12 12s-5.383 12-12 12c-5.436 0-10.189-3.701-11.561-9.002-.457-1.766-2.051-2.998-3.873-2.998h-17.132c-1.822 0-3.416 1.232-3.873 2.998-1.371 5.301-6.125 9.002-11.561 9.002-6.617 0-12-5.382-12-12zm1.233-16.8c.801-5.91 1.777-10.703 2.289-12.877 7.422-5.465 24.154-10.963 33.979-9.713 2.055.26 4.77.941 6.047 2.715 1.25 1.74 1.803 3.127 2.336 4.469 2.705 6.811 5.914 8.129 23.16 8.205.603 2.098 1.264 4.663 1.857 7.273-3.141-2.053-6.876-3.271-10.9-3.271h-48.001c-3.97-.001-7.653 1.196-10.767 3.199zm90.767 24.8c0 4.412-3.588 8-8 8-1.761 0-3.412-.578-4.787-1.615l1.025-13.329c1.16-.63 2.412-1.056 3.762-1.056 4.412 0 8 3.588 8 8zm-86.678-64.224c.562-.197 1.078-.521 1.502-.943.182-.176 18.217-17.803 40.164-14.967 14.482 1.869 27.699 12.125 39.332 30.502l-4.109 2.055c-1.355.678-2.211 2.062-2.211 3.578v24.128c-1.088-6.733-3.237-14.475-4.203-17.388-.543-1.637-2.074-2.74-3.797-2.74-.004 0-.008 0-.01 0-17.463.137-17.746-.826-18.674-3.162-.611-1.539-1.449-3.646-3.277-6.186-2.373-3.299-6.254-5.311-11.533-5.98-12.859-1.617-32.658 5.246-41.082 12.268-2.084 1.754-4.311 15.263-5.099 27.717-.144-.041-.289-.079-.434-.115.026-.185.109-.349.109-.541v-16c0-.449-.08-.906-.229-1.33-.332-.953-7.9-23.388 13.551-30.896zm-25.322 64.224c0-4.412 3.588-8 8-8 1.422 0 2.811.386 4.026 1.094-.004 2.1.052 4.066.185 5.799l.576 7.488c-1.377 1.038-3.027 1.62-4.787 1.62-4.412-.001-8-3.588-8-8.001zm21.129 10.522-.143-1.855c3.163 2.097 6.944 3.333 11.014 3.333 8.014 0 15.139-4.803 18.273-12h11.453c3.135 7.197 10.26 12 18.273 12 4.07 0 7.852-1.236 11.014-3.333l-.241 3.132c-.713 9.264-4.986 17.705-12.033 23.768-7.084 6.094-16.152 9.055-25.516 8.326-16.932-1.312-30.731-15.658-32.094-33.371zm31.478 41.348c1.141.088 2.277.133 3.41.133 2.704 0 5.371-.266 7.982-.758v1.831c0 4.409 1.958 8.335 5.007 11.07-3.844 2.499-8.314 3.856-13.007 3.856s-9.164-1.357-13.007-3.856c3.049-2.735 5.007-6.661 5.007-11.07v-1.859c1.515.293 3.046.531 4.608.653zm-48.607 45.205c0-16.031 13.043-29.074 29.074-29.074.562 0 1.096-.105 1.643-.166 5.873 5.263 13.337 8.166 21.283 8.166s15.41-2.903 21.283-8.166c.547.061 1.08.166 1.643.166 6.383 0 12.273 2.092 17.074 5.593v10.407c0 2.209 1.791 4 4 4h6.53c.942 2.859 1.47 5.904 1.47 9.074v14.926h-104z"/><circle cx="92" cy="214.227" r="4"/><circle cx="236" cy="74.227" r="4"/><circle cx="92" cy="226.227" r="4"/><path d="m228 134.227c6.617 0 12-5.383 12-12s-5.383-12-12-12-12 5.383-12 12c0 6.618 5.383 12 12 12zm0-16c2.205 0 4 1.795 4 4s-1.795 4-4 4-4-1.795-4-4 1.795-4 4-4z"/></g></svg>