<svg id="user-girl" enable-background="new 0 0 300 300" height="512" viewBox="0 0 300 300" width="512" xmlns="http://www.w3.org/2000/svg"><g><path d="m183.516 92.484c.781.781 1.805 1.172 2.828 1.172s2.047-.391 2.828-1.172l2.828-2.828 2.828 2.828c.781.781 1.805 1.172 2.828 1.172s2.047-.391 2.828-1.172c1.562-1.562 1.562-4.094 0-5.656l-2.828-2.828 2.828-2.828c1.562-1.562 1.562-4.094 0-5.656s-4.094-1.562-5.656 0l-2.828 2.828-2.828-2.828c-1.562-1.562-4.094-1.562-5.656 0s-1.562 4.094 0 5.656l2.828 2.828-2.828 2.828c-1.563 1.563-1.563 4.094 0 5.656z"/><path d="m272 236h-28v-4c0-1.436-.77-2.762-2.016-3.473l-14.922-8.527h14.56c4.901 0 8.997-3.424 10.078-8h16.3c2.211 0 4-1.791 4-4v-12c0-2.209-1.789-4-4-4h-8v-14.469l12.496-1.562c2.191-.273 3.746-2.273 3.473-4.465s-2.266-3.762-4.465-3.473l-11.504 1.438v-1.469c0-2.209-1.789-4-4-4s-4 1.791-4 4v2.469l-12.496 1.562c-2.191.273-3.746 2.273-3.473 4.465.254 2.023 1.977 3.504 3.965 3.504.164 0 .332-.01.5-.031l11.504-1.438v13.469h-4c-.031 0-.057.017-.088.018-3.653-4.839-9.396-8.018-15.912-8.018h-13.043c-4.039-4.883-10.141-8-16.957-8s-12.918 3.117-16.957 8h-13.043c-6.516 0-12.259 3.179-15.912 8.018-.031-.001-.057-.018-.088-.018h-4v-14.469l12.496-1.562c2.191-.273 3.746-2.273 3.473-4.465-.277-2.191-2.27-3.762-4.465-3.473l-11.504 1.438v-1.469c0-2.209-1.789-4-4-4s-4 1.791-4 4v2.469l-12.496 1.562c-2.191.273-3.746 2.273-3.473 4.465.252 2.023 1.977 3.504 3.963 3.504.166 0 .334-.01.502-.031l11.504-1.438v13.469h-6.123c-6.517-5.149-14.61-8-22.951-8-3.818 0-6.926-3.107-6.926-6.926v-4.337c.566-.239 1.115-.512 1.669-.775 32.028-.536 46.331-9.781 46.331-62.112 0-32.973-27.371-69.85-64-69.85s-64 36.877-64 69.85c0 52.302 14.304 61.568 46.328 62.111.555.264 1.105.537 1.672.777v4.337c0 3.818-3.107 6.926-6.926 6.926-20.443-.001-37.074 16.63-37.074 37.073v14.926h-4c-2.209 0-4 1.791-4 4v16c0 2.209 1.791 4 4 4s4-1.791 4-4v-12h236v12c0 2.209 1.789 4 4 4s4-1.791 4-4v-16c0-2.209-1.789-4-4-4zm-36-1.68v1.68h-68v-1.68l25.062-14.32h17.877zm-83.699-22.32c1.081 4.576 5.177 8 10.078 8h14.56l-14.923 8.527c-1.246.711-2.016 2.037-2.016 3.473v4h-8v-14.926c0-3.094-.416-6.124-1.161-9.074zm111.699-12v4h-12c0-1.37-.141-2.707-.404-4zm-32-8c6.617 0 12 5.383 12 12v5.623c0 1.311-1.066 2.377-2.379 2.377h-22.664c3.148-3.806 5.043-8.686 5.043-14 0-2.082-.31-4.09-.853-6zm-30-8c7.719 0 14 6.281 14 14s-6.281 14-14 14-14-6.281-14-14 6.281-14 14-14zm-30 8h8.853c-.543 1.91-.853 3.918-.853 6 0 5.314 1.895 10.194 5.043 14h-22.664c-1.312 0-2.379-1.066-2.379-2.377v-5.623c0-6.617 5.383-12 12-12zm-32 8h12.404c-.264 1.293-.404 2.63-.404 4h-12zm-82.064-64.195-.214-2.83c2.968 1.892 6.462 3.025 10.278 3.025 8.014 0 15.139-4.803 18.273-12h11.453c3.135 7.197 10.26 12 18.273 12 3.824 0 7.327-1.157 10.284-3.103l-.219 2.908c-1.363 18.052-16.326 32.195-34.064 32.195s-32.701-14.143-34.064-32.195zm58.064-39.805h-48c-4.004 0-7.678 1.209-10.735 3.278.283-1.063.587-2.123.967-3.169 22.113-5.496 46.08-5.383 67.502-.098.407 1.111.739 2.236 1.036 3.367-3.048-2.139-6.745-3.378-10.77-3.378zm11.121 20c0 6.842-4.781 12-11.121 12-5.436 0-10.189-3.701-11.561-9.002-.457-1.766-2.051-2.998-3.873-2.998h-17.132c-1.822 0-3.416 1.232-3.873 2.998-1.372 5.301-6.125 9.002-11.561 9.002-6.482 0-11.371-5.158-11.371-12s4.889-12 11.371-12h48c6.34 0 11.121 5.158 11.121 12zm-91.121-6.15c0-28.602 24.463-61.85 56-61.85s56 33.248 56 61.85c0 41.873-8.932 51.214-26.177 53.424 6.866-7.013 11.428-16.388 12.219-26.867l1.83-24.234c.547-7.254-.625-14.352-3.486-21.094-.482-1.139-1.467-1.99-2.664-2.307-23.896-6.285-50.811-6.41-75.486.104-1.199.316-2.184 1.172-2.666 2.314-2.826 6.717-3.984 13.775-3.439 20.982l1.83 24.234c.791 10.477 5.351 19.852 12.215 26.864-17.245-2.217-26.176-11.578-26.176-53.42zm56 66.15c2.729 0 5.404-.271 8-.787v1.861c0 4.409 1.958 8.335 5.007 11.07-3.843 2.499-8.313 3.856-13.007 3.856s-9.164-1.357-13.007-3.856c3.049-2.735 5.007-6.661 5.007-11.07v-1.861c2.596.516 5.271.787 8 .787zm-52 45.074c0-16.031 13.043-29.074 29.074-29.074.562 0 1.096-.105 1.643-.166 5.873 5.263 13.337 8.166 21.283 8.166s15.41-2.903 21.283-8.166c.547.061 1.08.166 1.643.166 6.152 0 12.133 1.972 17.074 5.56v10.44c0 2.209 1.791 4 4 4h6.528c.958 2.916 1.472 5.954 1.472 9.074v14.926h-104z"/><circle cx="92" cy="212" r="4"/><circle cx="236" cy="72" r="4"/><circle cx="92" cy="224" r="4"/><path d="m228 132c6.617 0 12-5.383 12-12s-5.383-12-12-12-12 5.383-12 12 5.383 12 12 12zm0-16c2.207 0 4 1.795 4 4s-1.793 4-4 4-4-1.795-4-4 1.793-4 4-4z"/><path d="m68 80c2.209 0 4-1.791 4-4v-8c0-2.209-1.791-4-4-4s-4 1.791-4 4v8c0 2.209 1.791 4 4 4z"/><path d="m116 80c2.209 0 4-1.791 4-4v-8c0-2.209-1.791-4-4-4s-4 1.791-4 4v8c0 2.209 1.791 4 4 4z"/><path d="m92 80c2.209 0 4-1.791 4-4v-12c0-2.209-1.791-4-4-4s-4 1.791-4 4v12c0 2.209 1.791 4 4 4z"/><path d="m102.266 148.609c1.82-1.252 2.393-3.812 1.143-5.633-1.254-1.818-3.627-2.35-5.451-1.1-.016.008-1.633.811-5.957.811-4.025 0-5.705-.695-5.93-.799-1.811-1.094-4.162-.598-5.367 1.158-1.25 1.82-.789 4.311 1.031 5.562.709.486 3.545 2.078 10.266 2.078s9.556-1.59 10.265-2.077z"/></g></svg>