<svg width="224" height="224" xmlns="http://www.w3.org/2000/svg" xmlns:xlink="http://www.w3.org/1999/xlink" xml:space="preserve" overflow="hidden"><defs><filter id="fx0" x="-10%" y="-10%" width="120%" height="120%" filterUnits="userSpaceOnUse" primitiveUnits="userSpaceOnUse"><feComponentTransfer color-interpolation-filters="sRGB"><feFuncR type="discrete" tableValues="1.000000 1.000000"/><feFuncG type="discrete" tableValues="1.000000 1.000000"/><feFuncB type="discrete" tableValues="1.000000 1.000000"/><feFuncA type="linear" slope="0.768627" intercept="0.000000"/></feComponentTransfer><feGaussianBlur stdDeviation="11.919969 11.919969"/></filter><clipPath id="clip1"><rect x="22" y="-24" width="224" height="224"/></clipPath><clipPath id="clip2"><rect x="0.649914" y="0.764754" width="85.639" height="85.4096"/></clipPath><clipPath id="clip3"><rect x="0" y="0" width="87" height="87"/></clipPath><clipPath id="clip4"><rect x="36" y="36" width="15" height="15"/></clipPath><clipPath id="clip5"><rect x="36" y="36" width="15" height="15"/></clipPath><clipPath id="clip6"><rect x="36" y="36" width="15" height="15"/></clipPath><clipPath id="clip7"><rect x="116" y="70" width="37" height="37"/></clipPath><clipPath id="clip8"><rect x="116" y="70" width="37" height="37"/></clipPath><clipPath id="clip9"><rect x="116" y="70" width="37" height="37"/></clipPath></defs><g clip-path="url(#clip1)" transform="translate(-22 24)"><g clip-path="url(#clip2)" filter="url(#fx0)" transform="matrix(2.58621 0 0 2.58621 22 -24)"><g clip-path="url(#clip3)" transform="translate(-1.77636e-15 0)"><g clip-path="url(#clip4)" transform="matrix(1 0 0 1 -5.96046e-08 -7.15256e-07)"><g clip-path="url(#clip5)" transform="matrix(1 0 0 1 -5.96046e-08 -7.15256e-07)"><g clip-path="url(#clip6)" transform="matrix(1 0 0 1 -5.96046e-08 -7.15256e-07)"><path d="M37.1408 46.1289C37.5488 46.9532 38.1219 47.7073 38.8439 48.3707 40.2369 49.6505 42.0101 50.4144 43.5877 50.4144 45.4999 50.4144 47.2538 49.7474 48.5269 48.5367 49.8181 47.3086 50.529 45.5943 50.529 43.7101 50.529 42.759 50.3085 41.8226 49.8737 40.9268 48.7055 38.493 45.9545 36.5923 43.2432 36.5856 39.4019 36.5247 36.4098 39.5117 36.471 43.3382 36.471 44.2922 36.6962 45.2311 37.1408 46.1289ZM49.7455 45.5152C49.7022 45.7985 49.6412 46.0787 49.563 46.3544 49.5381 46.4435 49.4456 46.4957 49.3565 46.4708 49.2673 46.4458 49.2152 46.3534 49.2401 46.2642 49.2402 46.2636 49.2404 46.263 49.2406 46.2624 49.3151 46.0004 49.373 45.7339 49.4141 45.4647 49.4261 45.3728 49.5103 45.3082 49.6021 45.3202 49.6939 45.3322 49.7586 45.4164 49.7465 45.5082 49.7462 45.5106 49.7459 45.5129 49.7455 45.5152ZM49.7977 43.8021C49.8258 44.0876 49.8345 44.3746 49.824 44.6613 49.8231 44.7539 49.7473 44.8282 49.6547 44.8273 49.5621 44.8264 49.4878 44.7506 49.4887 44.658 49.4887 44.6554 49.4888 44.6528 49.489 44.6501 49.499 44.3784 49.4907 44.1063 49.4641 43.8356 49.4548 43.7435 49.522 43.6613 49.6142 43.652 49.7063 43.6428 49.7885 43.7099 49.7977 43.8021ZM49.1771 42.0389C49.2634 42.0053 49.3606 42.048 49.3942 42.1343 49.3942 42.1343 49.3942 42.1344 49.3942 42.1344 49.4982 42.4017 49.5845 42.6754 49.6524 42.954 49.6743 43.044 49.6192 43.1347 49.5292 43.1566 49.4392 43.1785 49.3485 43.1233 49.3266 43.0334 49.2621 42.769 49.1803 42.5093 49.0816 42.2557 49.0481 42.1695 49.0909 42.0724 49.1771 42.0389ZM48.3486 40.5856C48.4245 40.5325 48.529 40.5509 48.5822 40.6267 48.7467 40.8607 48.8974 41.1041 49.0335 41.3557 49.0775 41.4372 49.0471 41.5389 48.9656 41.5829 48.8841 41.6268 48.7824 41.5964 48.7384 41.515 48.6084 41.2749 48.4647 41.0426 48.3078 40.8192 48.2546 40.7434 48.2728 40.6389 48.3486 40.5856 48.3486 40.5856 48.3486 40.5856 48.3486 40.5856ZM47.2161 39.353C47.2787 39.2848 47.3848 39.2803 47.453 39.3429 47.453 39.3429 47.453 39.3429 47.4531 39.343 47.6632 39.5361 47.8631 39.7401 48.0519 39.9541 48.115 40.0218 48.1113 40.1279 48.0436 40.191 47.9759 40.2542 47.8698 40.2505 47.8066 40.1828 47.8045 40.1805 47.8024 40.1781 47.8004 40.1757 47.6194 39.9705 47.4277 39.775 47.2262 39.59 47.158 39.5274 47.1534 39.4213 47.216 39.3531 47.216 39.3531 47.2161 39.3531 47.2161 39.353ZM45.8525 38.382C45.8998 38.3025 46.0026 38.2764 46.0822 38.3236 46.3275 38.4692 46.5651 38.6275 46.7939 38.7978 46.8682 38.8531 46.8836 38.9581 46.8284 39.0324 46.7732 39.1067 46.6681 39.1221 46.5938 39.0669 46.3743 38.9036 46.1464 38.7517 45.9112 38.612 45.8315 38.5646 45.8053 38.4617 45.8525 38.382ZM44.6434 42.0584C44.1315 41.6382 43.45 41.4247 42.8104 41.482 42.8997 41.4435 42.9914 41.411 43.0851 41.3847 43.7353 41.202 44.3953 41.3353 44.8963 41.7505 45.4152 42.1803 45.6994 42.7763 45.6756 43.3854 45.67 43.5331 45.6461 43.6795 45.6047 43.8213 45.5672 43.1773 45.2059 42.5215 44.6434 42.0584ZM44.9757 44.7465C44.9367 44.7886 44.8939 44.8271 44.848 44.8614 44.3221 45.2582 43.2639 45.2587 42.5016 44.6328 41.6756 43.9546 41.3987 42.8626 41.962 42.2213 43.0043 41.0341 45.2 42.3979 45.2691 43.8197 45.2869 44.1871 45.1939 44.5071 44.9757 44.7465ZM44.3148 37.7223C44.3435 37.6343 44.438 37.5862 44.5261 37.6147 44.7979 37.7034 45.0644 37.8076 45.3244 37.9266 45.4086 37.965 45.4458 38.0644 45.4074 38.1487 45.369 38.233 45.2695 38.2701 45.1852 38.2317 44.9368 38.118 44.6821 38.0185 44.4224 37.9335 44.3344 37.905 44.2862 37.8105 44.3147 37.7226 44.3148 37.7225 44.3148 37.7224 44.3148 37.7223ZM42.6645 37.4532C42.6692 37.3607 42.7479 37.2895 42.8404 37.2942 42.8404 37.2942 42.8405 37.2942 42.8406 37.2942 43.1275 37.3097 43.413 37.3449 43.695 37.3996 43.7855 37.4192 43.843 37.5085 43.8233 37.599 43.8043 37.6865 43.7199 37.7436 43.6316 37.7287 43.3648 37.677 43.0947 37.6437 42.8232 37.6292 42.7308 37.6244 42.6598 37.5456 42.6645 37.4532ZM41.1327 37.4144C41.4138 37.3622 41.6976 37.326 41.9827 37.3059 42.0751 37.2995 42.1553 37.3691 42.1618 37.4616 42.1683 37.554 42.0986 37.6342 42.0062 37.6407 41.7338 37.6597 41.4626 37.6942 41.1942 37.7441 41.1031 37.7611 41.0156 37.701 40.9986 37.61 40.9816 37.5189 41.0417 37.4313 41.1327 37.4144ZM37.826 39.7261C37.4585 40.5772 37.2685 41.5236 37.2685 42.5332 37.2685 43.4743 37.4926 44.4009 37.9347 45.2864 38.3404 46.0995 38.9101 46.8436 39.628 47.498 41.0125 48.7599 42.7752 49.5136 44.343 49.5136 45.6572 49.5136 46.8906 49.2012 47.9449 48.6158 46.8067 49.5412 45.3026 50.0791 43.5877 50.0791 42.092 50.0791 40.4034 49.3481 39.0708 48.124 37.6105 46.7822 36.8063 45.0827 36.8063 43.3382 36.8063 41.9673 37.1746 40.7356 37.826 39.7261Z" fill="#FFFFFF" fill-rule="nonzero" fill-opacity="1"/></g></g></g></g></g><g clip-path="url(#clip7)"><g clip-path="url(#clip8)"><g clip-path="url(#clip9)"><path d="M118.054 95.2988C119.109 97.4306 120.591 99.381 122.458 101.097 126.061 104.406 130.647 106.382 134.727 106.382 139.672 106.382 144.208 104.657 147.501 101.526 150.84 98.3498 152.678 93.9163 152.678 89.0434 152.678 86.5835 152.108 84.1619 150.984 81.8451 147.962 75.5507 140.848 70.6352 133.836 70.6179 123.902 70.4603 116.163 78.1855 116.322 88.0816 116.322 90.5487 116.904 92.9769 118.054 95.2988ZM150.652 93.7118C150.54 94.4443 150.382 95.1691 150.18 95.8819 150.116 96.1126 149.877 96.2474 149.646 96.183 149.415 96.1185 149.281 95.8794 149.345 95.6487 149.345 95.6472 149.346 95.6457 149.346 95.6442 149.539 94.9665 149.689 94.2774 149.795 93.581 149.826 93.3435 150.044 93.1763 150.281 93.2075 150.519 93.2385 150.686 93.4563 150.655 93.6937 150.654 93.6997 150.653 93.7058 150.652 93.7118ZM150.787 89.2812C150.86 90.0195 150.882 90.762 150.855 91.5034 150.853 91.7428 150.657 91.935 150.417 91.9327 150.178 91.9304 149.986 91.7343 149.988 91.4949 149.988 91.488 149.988 91.4812 149.989 91.4745 150.015 90.7716 149.993 90.0679 149.924 89.3679 149.9 89.1297 150.074 88.917 150.312 88.8931 150.551 88.8692 150.763 89.0429 150.787 89.2812ZM149.182 84.7212C149.405 84.6344 149.657 84.7449 149.744 84.968 149.744 84.9681 149.744 84.9682 149.744 84.9684 150.013 85.6595 150.236 86.3675 150.411 87.0879 150.468 87.3206 150.325 87.5552 150.093 87.6119 149.86 87.6685 149.625 87.5259 149.569 87.2932 149.402 86.6095 149.19 85.9378 148.935 85.282 148.849 85.0589 148.959 84.808 149.182 84.7212ZM147.04 80.9627C147.236 80.8255 147.506 80.873 147.644 81.0689 148.069 81.6741 148.459 82.3037 148.811 82.9543 148.925 83.1651 148.846 83.4281 148.635 83.5419 148.424 83.6556 148.161 83.577 148.048 83.3662 147.711 82.7454 147.34 82.1446 146.934 81.5668 146.796 81.3709 146.843 81.1005 147.039 80.9628 147.039 80.9628 147.04 80.9627 147.04 80.9627ZM144.111 77.7751C144.273 77.5987 144.547 77.587 144.723 77.7489 144.723 77.7489 144.723 77.749 144.723 77.749 145.267 78.2485 145.784 78.776 146.272 79.3295 146.435 79.5046 146.426 79.779 146.251 79.9423 146.076 80.1056 145.801 80.0961 145.638 79.921 145.632 79.915 145.627 79.9088 145.622 79.9026 145.154 79.3718 144.658 78.8663 144.137 78.3879 143.96 78.2259 143.949 77.9517 144.11 77.7752 144.11 77.7752 144.111 77.7751 144.111 77.7751ZM140.584 75.2638C140.706 75.0582 140.972 74.9906 141.178 75.1128 141.812 75.4893 142.427 75.8986 143.019 76.3391 143.211 76.482 143.251 76.7536 143.108 76.9458 142.965 77.138 142.693 77.1779 142.501 77.0351 141.934 76.6126 141.344 76.2199 140.736 75.8586 140.53 75.7361 140.462 75.47 140.584 75.2638ZM137.457 84.7718C136.133 83.6849 134.371 83.1328 132.716 83.281 132.947 83.1815 133.185 83.0974 133.427 83.0295 135.108 82.5569 136.815 82.9016 138.111 83.9754 139.453 85.0869 140.188 86.6283 140.127 88.2037 140.112 88.5856 140.05 88.9642 139.943 89.3311 139.846 87.6653 138.912 85.9693 137.457 84.7718ZM138.316 91.7238C138.216 91.8326 138.105 91.932 137.986 92.0208 136.626 93.047 133.889 93.0484 131.918 91.4296 129.782 89.6758 129.066 86.8516 130.523 85.1931 133.218 82.1226 138.897 85.6498 139.075 89.3267 139.121 90.277 138.881 91.1045 138.316 91.7238ZM136.607 73.5576C136.682 73.3301 136.926 73.2057 137.154 73.2794 137.857 73.5089 138.546 73.7782 139.218 74.0859 139.436 74.1853 139.532 74.4425 139.433 74.6604 139.333 74.8783 139.076 74.9744 138.858 74.875 138.216 74.5811 137.557 74.3237 136.885 74.104 136.658 74.0302 136.533 73.7859 136.607 73.5583 136.607 73.5581 136.607 73.5579 136.607 73.5576ZM132.339 72.8617C132.351 72.6226 132.555 72.4385 132.794 72.4505 132.794 72.4505 132.794 72.4505 132.795 72.4505 133.537 72.4905 134.275 72.5816 135.004 72.723 135.238 72.7738 135.387 73.0047 135.336 73.2387 135.287 73.465 135.069 73.6127 134.84 73.5743 134.15 73.4404 133.452 73.3545 132.75 73.317 132.511 73.3045 132.327 73.1008 132.339 72.8617ZM128.378 72.7613C129.105 72.6264 129.839 72.5328 130.576 72.4809 130.815 72.4641 131.022 72.6443 131.039 72.8834 131.056 73.1225 130.876 73.3299 130.637 73.3466 129.932 73.3956 129.231 73.4849 128.537 73.614 128.301 73.6579 128.075 73.5026 128.031 73.2671 127.987 73.0317 128.142 72.8052 128.378 72.7613ZM119.826 78.7398C118.875 80.941 118.384 83.3886 118.384 85.9996 118.384 88.4335 118.964 90.8298 120.107 93.1199 121.156 95.2229 122.63 97.1473 124.486 98.8398 128.067 102.103 132.625 104.052 136.68 104.052 140.079 104.052 143.269 103.244 145.995 101.73 143.052 104.124 139.162 105.515 134.727 105.515 130.859 105.515 126.492 103.624 123.045 100.459 119.269 96.9883 117.189 92.5931 117.189 88.0816 117.189 84.5362 118.141 81.3508 119.826 78.7398Z" fill="#FFFFFF" fill-rule="nonzero" fill-opacity="1"/></g></g></g></g></svg>