<svg width="284" height="115" xmlns="http://www.w3.org/2000/svg" xmlns:xlink="http://www.w3.org/1999/xlink" xml:space="preserve" overflow="hidden"><defs><filter id="fx0" x="-10%" y="-10%" width="120%" height="120%" filterUnits="userSpaceOnUse" primitiveUnits="userSpaceOnUse"><feComponentTransfer color-interpolation-filters="sRGB"><feFuncR type="discrete" tableValues="1.000000 1.000000"/><feFuncG type="discrete" tableValues="1.000000 1.000000"/><feFuncB type="discrete" tableValues="1.000000 1.000000"/><feFuncA type="linear" slope="1.000000" intercept="0.000000"/></feComponentTransfer><feGaussianBlur stdDeviation="3.762488 3.762488"/></filter><filter id="fx1" x="-10%" y="-10%" width="120%" height="120%" filterUnits="userSpaceOnUse" primitiveUnits="userSpaceOnUse"><feComponentTransfer color-interpolation-filters="sRGB"><feFuncR type="discrete" tableValues="1.000000 1.000000"/><feFuncG type="discrete" tableValues="1.000000 1.000000"/><feFuncB type="discrete" tableValues="1.000000 1.000000"/><feFuncA type="linear" slope="1.000000" intercept="0.000000"/></feComponentTransfer><feGaussianBlur stdDeviation="3.762488 3.762488"/></filter><clipPath id="clip2"><rect x="2062" y="105" width="284" height="115"/></clipPath><clipPath id="clip3"><rect x="-11.2874" y="-11.2875" width="304.575" height="136.575"/></clipPath><clipPath id="clip4"><rect x="0" y="0" width="282" height="114"/></clipPath><clipPath id="clip5"><rect x="1.60449" y="1.69659" width="228.575" height="23.5749"/></clipPath><clipPath id="clip6"><rect x="0" y="0" width="232" height="27"/></clipPath></defs><g clip-path="url(#clip2)" transform="translate(-2062 -105)"><g clip-path="url(#clip3)" filter="url(#fx0)" transform="translate(2062 104)"><g clip-path="url(#clip4)"><path d="M6.888 0 6.888-8.61C15.006-9.02 20.336-11.726 20.336-17.712 20.336-23.821 14.842-27.019 4.346-25.338L4.346 0ZM17.794-17.261C17.794-12.382 13.858-10.578 6.888-10.988L6.888-23.329C14.268-24.395 17.794-21.853 17.794-17.261ZM33.8637 0.574C38.8247 0.574 43.0067-3.731 43.0067-10.25 43.0067-16.564 39.4807-20.377 34.5607-20.377 29.5997-20.377 25.3767-16.072 25.3767-9.635 25.3767-3.28 28.9847 0.574 33.8637 0.574ZM34.2327-1.517C30.5017-1.517 27.8777-4.633 27.8777-10.127 27.8777-15.334 30.5017-18.286 34.1507-18.286 37.9227-18.286 40.5467-15.211 40.5467-9.758 40.5467-4.51 37.9227-1.517 34.2327-1.517ZM63.5453 0 63.7913-1.927 56.6163-1.927C56.5753-6.847 56.4933-11.152 56.4523-14.883 58.6253-16.482 61.6183-17.589 66.0053-17.917L65.8823-20.541C61.5773-20.09 58.3793-18.45 56.3703-16.523 56.3293-17.466 56.2063-19.311 56.1653-19.844L48.8673-19.844 48.6623-18.081 53.9103-17.794C54.0333-13.53 54.0743-8.487 54.1973-1.927L48.5803-1.927 48.5803 0ZM87.569 0.369 87.774-1.804C80.763-1.927 78.795-2.911 78.795-6.601L78.795-17.876 87.364-17.876 87.364-19.844 78.795-19.844 78.795-25.707 76.335-25.461 76.335-19.844 72.481-19.844 72.153-17.876 76.335-17.876 76.335-6.191C76.335-1.435 79.205 0.41 87.569 0.369ZM111.019-1.886 103.311-1.886 103.311-17.712 111.429-17.712 111.429-19.639 103.311-19.639 103.311-19.967C103.311-24.641 104.582-25.994 112.7-26.404L112.495-28.823C103.557-28.372 100.892-24.969 100.851-19.639L95.1107-19.639 94.8647-17.712 100.851-17.712 100.851-1.886 95.1107-1.886 95.1107 0 110.814 0ZM125.53 0.574C130.491 0.574 134.673-3.731 134.673-10.25 134.673-16.564 131.147-20.377 126.227-20.377 121.266-20.377 117.043-16.072 117.043-9.635 117.043-3.28 120.651 0.574 125.53 0.574ZM125.899-1.517C122.168-1.517 119.544-4.633 119.544-10.127 119.544-15.334 122.168-18.286 125.817-18.286 129.589-18.286 132.213-15.211 132.213-9.758 132.213-4.51 129.589-1.517 125.899-1.517ZM156.606 0 156.852-1.927 150.128-1.927 150.128-28.577 141.6-28.577 141.354-26.814 147.627-26.527 147.627-1.927 140.944-1.927 140.944 0ZM173.537-23.247 173.865-28.659 171.241-28.659 171.036-23.247ZM181.368 0 181.573-1.927 173.742-1.927 173.742-19.844 163.738-19.844 163.533-18.122 171.241-17.794 171.241-1.927 163.451-1.927 163.451 0ZM194.28 0.574C199.241 0.574 203.423-3.731 203.423-10.25 203.423-16.564 199.897-20.377 194.977-20.377 190.016-20.377 185.793-16.072 185.793-9.635 185.793-3.28 189.401 0.574 194.28 0.574ZM194.649-1.517C190.918-1.517 188.294-4.633 188.294-10.127 188.294-15.334 190.918-18.286 194.567-18.286 198.339-18.286 200.963-15.211 200.963-9.758 200.963-4.51 198.339-1.517 194.649-1.517Z" fill="#FFFFFF" fill-rule="nonzero" fill-opacity="1" transform="matrix(1 0 0 1 37.8918 66)"/></g></g><text fill="#FFFFFF" fill-opacity="1" font-family="Operator Mono Light,Operator Mono Light_MSFontService,sans-serif" font-style="normal" font-variant="normal" font-weight="300" font-stretch="normal" font-size="41" text-anchor="start" direction="ltr" writing-mode="lr-tb" unicode-bidi="normal" text-decoration="none" transform="matrix(1 0 0 1 2099.89 167)">Portfolio</text><g clip-path="url(#clip5)" filter="url(#fx1)" transform="translate(2087 159)"><g clip-path="url(#clip6)"><path d="M12.8918 12.9841 64.3918 12.9841 115.892 12.9841 167.392 12.9841 218.892 12.9841 218.892 13.9841 167.392 13.9841 115.892 13.9841 64.3918 13.9841 12.8918 13.9841Z" fill="#FFFFFF" fill-rule="evenodd" fill-opacity="1"/></g></g><path d="M2099.89 168.563 2151.39 168.563 2202.89 168.563 2254.39 168.563 2305.89 168.563 2305.89 169.563 2254.39 169.563 2202.89 169.563 2151.39 169.563 2099.89 169.563Z" fill="#FFFFFF" fill-rule="evenodd" fill-opacity="1"/></g></svg>