<svg xmlns="http://www.w3.org/2000/svg" viewBox="0 0 128 128"><path fill="#69f2e7" d="M1 102.1h126v9.3H1z" class="colorf26f69 svgShape"/><path fill="#41e1d4" d="M1 66h29.1v9.3H1zM38 66h9.6v9.3H38zM97.9 66H127v9.3H97.9zM80.4 66H90v9.3h-9.6zM56.5 66H71v9.3H56.5z" class="color6eb2d5 svgShape"/><path fill="#62c0b8" d="M14.8 26.8v1h3.3v2.1h-3.3v10.3h-2.6V29.9h-1.6v-2.1h1.6v-1c0-1.3.4-2.3 1.2-3.1.8-.8 1.7-1.2 2.8-1.2 1.1 0 2.1.4 3 1.2l-1.1 1.8c-.5-.5-1-.8-1.6-.8s-1 .2-1.3.5c-.2.6-.4 1-.4 1.6zm15 .6c-.6 1.9-.9 3.8-.9 5.6 0 1.8.3 3.6.9 5.6.6 1.9 1.4 3.5 2.3 4.8h-2.8c-.8-1.1-1.5-2.6-2.1-4.5-.6-2-.9-3.9-.9-5.8s.3-3.9.9-5.8c.6-2 1.3-3.5 2.1-4.5H32c-.9 1.1-1.6 2.7-2.2 4.6zm6.9.4 2.7 4.1 2.7-4.1h3.1l-4.3 6 4.5 6.3h-3.2l-3-4.1-2.9 4.1h-3l4.4-6.3-4.2-6.1h3.2zm12.1 10.7c.6-1.9.9-3.8.9-5.6 0-1.8-.3-3.6-.9-5.6-.6-1.9-1.4-3.5-2.3-4.8h2.8c.8 1.1 1.5 2.6 2.1 4.5.6 2 .9 3.9.9 5.8s-.3 3.9-.9 5.8c-.6 2-1.3 3.5-2.1 4.5h-2.8c1-1 1.7-2.6 2.3-4.6zm12.5-10.6H73v2.2H61.3v-2.2zm0 4.4H73v2.2H61.3v-2.2zM125.8 44.3H77.7V16.6h48.2v27.7zM80 42h43.5V18.9H80V42z" class="color62c08f svgShape"/></svg>