<svg xmlns="http://www.w3.org/2000/svg" enable-background="new 0 0 130 130" viewBox="0 0 130 130"><path fill="#FFF" d="M127.08028,67.97845l-0.00995-0.01001c-0.01001,0-0.01001-0.00995-0.02002-0.00995l-1.87-1.09003
		c-0.19-0.10999-0.45001-0.09003-0.73999,0.08002l-20.64001,11.90997l-4.15997-7.21002
		c0.00995-0.04999,0.02997-0.09998,0.02997-0.14996l0.02002-3.04999l6.07001,3.45996l5.23999-3.01996v-0.66003l-1.13-0.64996
		l-5,2.88l-3.09003-1.75l4.47003-2.58002l-0.01001-0.66003l-1.12-0.65997l-5.01001,2.89001l-0.40997-0.23004l0.01996-2.44
		c0-0.16998-0.07996-0.34998-0.20996-0.50995l1.97998-1.15002v-0.65997l-1.13-0.66003l-2.46997,1.42999l-3.07001-1.76996
		l1.91998-1.10004l-0.01001-0.65997l-1.13-0.66003l-2.47998,1.44l-3.07001-1.76996l1.92999-1.11005v-0.65997l-1.13-0.66003
		l-2.5,1.45001l-3.07001-1.76996l1.94-1.12006v-0.65997l-1.13-0.65997l-2.51996,1.45996l-3.06-1.76996l1.95996-1.13v-0.66003
		l-1.13-0.65997l-0.85999,0.5c0.16998-0.23004,0.31-0.44,0.41003-0.60004c0.12-0.21997,0.18994-0.34998,0.18994-0.34998
		c3.08002-1.01001,4.53003-2.72003,5.07001-4.66998c0.42999-1.64001,0.17999-3.44-0.35999-5.15002l38.66003,22.32001
		c0.37994,0.21997,0.69,0.15002,0.87-0.09003c-0.04004,0.06-0.08002,0.13-0.14001,0.16003l1.89996-1.10999
		c0.19-0.11005,0.31006-0.33002,0.31006-0.65002l0.08997-33.73999c0.01001-0.66003-0.46002-1.46002-1.02997-1.79004l-42.78003-24.69
		c-0.28998-0.16998-0.53998-0.18994-0.72998-0.07996l-1.89001,1.09998h-0.01001c0,0,0,0.01001-0.01001,0.01001
		c-0.17999,0.10999-0.29999,0.33002-0.29999,0.65997l-0.08002,28.24005c-0.62-0.64001-1.29999-1.22003-1.75-1.58002
		c-0.33997-0.25-0.52997-0.41003-0.52997-0.41003c-0.17999-0.37-0.46002-0.72998-0.81-1.09998
		c-1.52002-1.56-4.35004-3-5.77002-3.66998c-0.52997-0.23004-0.84998-0.37-0.84998-0.37
		c-0.17004-0.08002-0.33002-0.17999-0.51001-0.26001c-9.71002-4.73999-15.78998-2.17999-18.54999-0.25
		c-1.14001,0.78998-1.71002,1.47998-1.71002,1.47998s-0.23999,0.02002-0.60999,0.13c-0.07001,0.03003-0.15002,0.06-0.23004,0.09003
		l-0.06-22.30005c0-0.32996-0.12-0.54999-0.29999-0.65997h-0.01001V2.16845h-0.00995l-1.89001-1.09998
		c-0.19-0.10999-0.44-0.09003-0.73999,0.07996l-42.78003,24.69c-0.56,0.33002-1.02997,1.13-1.02002,1.79004l0.09003,33.73999
		c0,0.32001,0.12,0.53998,0.31,0.65002l1.90002,1.10999c-0.06-0.03003-0.10004-0.10004-0.15002-0.16003
		c0.19,0.24005,0.5,0.31,0.88,0.09003l40.47998-23.37c1.12,1.38,2.44,2.27002,3.16003,2.70001l-0.07001,10.76996l-2.01001,1.16003
		l-0.96002-0.54999l-1.13,0.65997v0.65997l0.39001,0.22003l-3.04999,1.77997l-0.96002-0.56l-1.13,0.66003v0.65997l0.39001,0.22003
		l-3.06,1.77997l-0.95996-0.56l-1.13,0.66003v0.65997l0.38995,0.22003l-3.04999,1.77997l-0.95996-0.56l-1.13,0.66003v0.65997
		l0.38995,0.22998l-0.98999,0.57c-0.39001,0.22998-0.58002,0.53003-0.58997,0.82001v0.04999l-0.01001,1.17999l-2.42999-1.40997
		l-1.13,0.65997v0.66003l3.53998,2.03998l-0.01001,1.07001l-2.14996,1.22003l-5-2.88l-1.13,0.64996l-0.01001,0.66003
		l5.23999,3.01996l3.04999-1.72998l-0.01996,1.28998c0,0.24005,0.10999,0.47003,0.33997,0.67999
		c0.07001,0.07001,0.16998,0.13,0.27002,0.19l1.56,0.90002l-3.79999,6.59003l-22.32001-12.88
		c-0.29004-0.17004-0.54999-0.19-0.73999-0.08002l-1.86999,1.09003c-0.01001,0-0.01001,0.00995-0.02002,0.00995l-0.01001,0.01001
		c-0.19,0.10999-0.29999,0.34003-0.31,0.66003l-0.09003,33.73999c0,0.64996,0.46002,1.45001,1.03003,1.77997l42.77997,24.70002
		c0.38,0.22003,0.70001,0.16003,0.88-0.08997c-0.04999,0.06-0.07996,0.12994-0.13995,0.15997l1.89996-1.09998
		c0.19-0.11005,0.29999-0.34003,0.29999-0.66003l0.08002-28.34998l2.04999-1.19l5.63-9.76001l3.23004,1.85999l-5.47003,9.48004
		l-5.01001,2.89996v0.66003l1.13,0.64996l5.25-3.02997l5.64001-9.77002l1.46002,0.84003c0.78998,0.44995,2.10999,0.44995,2.89996,0
		l3.57001-2.07001h0.01001l6.34998,11l4.57001,2.63995l0.07001,24.14001c0,0.32001,0.10999,0.54999,0.29999,0.66003l1.90002,1.09998
		c-0.06-0.03003-0.10004-0.09998-0.14001-0.15997c0.17999,0.25,0.5,0.31,0.88,0.08997l42.78003-24.70002
		c0.56995-0.32996,1.02997-1.13,1.02997-1.77997l-0.09998-33.73999C127.38033,68.31847,127.27029,68.08843,127.08028,67.97845z
		 M29.42031,80.71844l3.79999-6.58997l3.23004,1.85999l-3.81,6.59003L29.42031,80.71844z M34.18032,83.46844l3.79999-6.58997
		l3.22998,1.85999l-3.79999,6.59003L34.18032,83.46844z M38.94033,86.21844l3.81-6.58997l3.21997,1.85999l-3.79999,6.59003
		L38.94033,86.21844z M46.93032,90.82848l-3.22998-1.86005l3.81-6.59998l3.21997,1.87L46.93032,90.82848z M50.04031,96.44848
		l-0.69,0.39996l0.01001-3.41998c0.01001-0.60999-0.39001-1.33002-0.90002-1.69l3.81-6.62l3.23004,1.85999L50.04031,96.44848z
		 M77.45034,99.20849l-6.18005-10.72003l3.22003-1.85999h0.01001l6.14996,10.65997l0.01001,3.77002L77.45034,99.20849z
		 M81.6603,91.63848c-0.57001,0.32996-1.02997,1.13-1.01996,1.78998v0.29999l-4.61005-8l3.21002-1.87l0.01001,0.01001l3.96997,6.87
		L81.6603,91.63848z M84.75033,89.85845l-3.97003-6.89001l3.22003-1.87l0.01001,0.01001l3.96997,6.88L84.75033,89.85845z
		 M89.52029,87.10845l-3.97998-6.89996l3.21002-1.87006l0.01996,0.01001l3.97003,6.90002L89.52029,87.10845z M94.2803,84.35845
		l-3.98999-6.90997l3.22003-1.87l0.00995,0.00995l3.99005,6.91003L94.2803,84.35845z M99.04031,81.60845l-3.98999-6.91998
		l3.21002-1.87l0.01996,0.01001l3.98999,6.91998L99.04031,81.60845z"/><path fill="#9AD898" d="M48.96846,2.1774c-0.18903-0.10975-0.45122-0.09758-0.73783,0.06707L5.44975,26.94593
					c-0.57318,0.32926-1.0305,1.12804-1.0305,1.7866l0.09755,33.73204c0,0.32926,0.11586,0.55487,0.29878,0.66462l-1.89965-1.1063
					c-0.18902-0.10975-0.30488-0.33536-0.30488-0.65855L2.51959,27.62623c-0.0061-0.65855,0.45732-1.45734,1.0244-1.78663
					L46.32487,1.14424c0.29268-0.17071,0.5488-0.18292,0.73783-0.07317L48.96846,2.1774z"/><path fill="#75CA75" d="M48.22915,2.24723c0.57229-0.33041,1.03708-0.06554,1.03894,0.59206l0.09564,33.73463
				c0.00185,0.65313-0.45992,1.45295-1.03221,1.78336L5.55001,63.0572c-0.5684,0.32817-1.03319,0.0633-1.03504-0.58984
				L4.41933,28.73274c-0.00186-0.6576,0.45991-1.45743,1.02831-1.78559L48.22915,2.24723z"/><path fill="#FFF" d="M7.20092,28.89833c0.00993-0.02978,0.08679-0.16308,0.13982-0.20789L46.44362,6.11718l0.08565,30.26019
				c-0.00993,0.02666-0.08792,0.15996-0.14096,0.20392L7.28657,59.15426L7.20092,28.89833z"/><path fill="#D4DAE8" d="M19.87778 48.35007c0 .29346-.20413.65079-.45935.8039l-6.78326 3.91634c-.25514.14034-.45935.02554-.45935-.28077L12.11203 40.7913c0-.29346.20413-.65079.45935-.79113l6.77049-3.91634c.26799-.15311.47212-.03832.47212.26799L19.87778 48.35007zM32.25724 41.04214c0 .29346-.20413.65079-.45935.8039l-6.78326 3.91634c-.25514.14034-.45935.02555-.45935-.28077l-.06379-11.99825c0-.29346.20413-.65079.45935-.79113l6.77048-3.91633c.26799-.15312.47212-.03832.47212.26799L32.25724 41.04214zM44.6367 33.7342c0 .29346-.20413.65079-.45935.80391l-6.78326 3.91633c-.25514.14035-.45935.02555-.45935-.28077l-.06379-11.99824c0-.29346.20413-.65079.45935-.79113l6.77048-3.91633c.26799-.15312.47213-.03832.47213.26799L44.6367 33.7342z"/><g enable-background="new"><path fill="#4C7891" d="M27.52906,24.11685c0.09183,0.08978,0.13152,0.25474,0.1322,0.49479
									c0.00068,0.24011-0.03795,0.45023-0.12897,0.64558c-0.091,0.19528-0.22139,0.33824-0.40417,0.44377
									c-0.17628,0.10178-0.3136,0.11338-0.39887,0.01986c-0.09183-0.08978-0.13804-0.25092-0.13872-0.49103
									c-0.00068-0.24005,0.04446-0.45399,0.13548-0.64934c0.08446-0.19151,0.22139-0.33819,0.39768-0.43997
									C27.30648,24.03498,27.43726,24.02711,27.52906,24.11685z M27.36864,25.19388
									c0.05194-0.13516,0.07767-0.28528,0.07718-0.45785c-0.00049-0.17251-0.02698-0.29252-0.07952-0.36738
									c-0.04598-0.07116-0.13101-0.07463-0.24198-0.01056c-0.11102,0.06409-0.18921,0.16181-0.24113,0.29699
									c-0.05196,0.1277-0.07767,0.28531-0.0772,0.45037c0.00049,0.17257,0.02698,0.29255,0.07949,0.3599
									c0.05251,0.07488,0.13101,0.08213,0.24203,0.01804C27.23848,25.4193,27.32322,25.3178,27.36864,25.19388"/><path fill="#4562EF" d="M26.82174,21.20931c-0.02938,0.09346-0.04588,0.18742-0.04563,0.27636
									c0.00035,0.12307,0.03264,0.21965,0.08709,0.28591c-1.2102,0.92589-2.16594,2.5816-2.35889,4.08683
									c-0.08437-0.01443-0.18441,0.00608-0.2922,0.06831c-0.07742,0.0447-0.15073,0.10629-0.21712,0.17871
									C24.20903,24.30173,25.36273,22.30347,26.82174,21.20931z"/></g><polygon fill="#4C7891" points="26.425 24.581 26.426 24.806 25.875 26.41 25.633 26.549 26.171 24.953 25.701 25.225 25.702 25.435 25.506 25.548 25.505 25.113"/><g enable-background="new"><path fill="#4C7891" d="M29.09165,23.9812c0.05241,0.03737,0.07877,0.10479,0.07903,0.19485
									c0.00028,0.09748-0.02562,0.19509-0.07764,0.2928c-0.05202,0.09766-0.12377,0.16916-0.20212,0.21439
									c-0.08488,0.04901-0.15024,0.05667-0.20267,0.01931c-0.05243-0.03741-0.08529-0.10109-0.08556-0.19857
									c-0.00026-0.09005,0.03213-0.1914,0.08418-0.28907c0.05205-0.0977,0.12375-0.17664,0.2021-0.22188
									C28.9673,23.9478,29.03924,23.94381,29.09165,23.9812z M28.96862,24.41293l0.03233-0.13139l-0.03294-0.08618
									l-0.07847,0.00021l-0.07822,0.09026l-0.02583,0.12011l0.03299,0.09368l0.07847-0.00021L28.96862,24.41293"/><polygon fill="#4C7891" points="28.867 23.172 29.109 23.032 28.147 25.098 27.905 25.237"/><path fill="#4C7891" d="M28.13763,24.24646c-0.07835,0.04523-0.14375,0.04539-0.20269,0.0118
									c-0.05243-0.03735-0.07875-0.09728-0.07903-0.19482c-0.00027-0.09754,0.0256-0.19513,0.08418-0.29657
									c0.05202-0.09766,0.11723-0.16538,0.20209-0.21438c0.07837-0.04525,0.14372-0.0529,0.20267-0.01931
									c0.05243,0.03735,0.07877,0.10479,0.07905,0.20233c0.00026,0.09-0.02562,0.18761-0.07767,0.28529
									C28.28767,24.12223,28.22251,24.19745,28.13763,24.24646z M28.058,23.84154l-0.02584,0.12014l0.03297,0.09364
									l0.07847-0.00021l0.0717-0.0865l0.0323-0.13132l-0.03292-0.08622l-0.07847,0.00026L28.058,23.84154"/><path fill="#576CFB" d="M27.32278,20.54639c2.01744-1.16477,3.66806-0.22415,3.67463,2.09404
									c0.00659,2.32572-1.63333,5.15864-3.65077,6.32341c-2.02397,1.16854-3.66806,0.23164-3.67465-2.09407
									c-0.00073-0.25612,0.13187-0.55583,0.323-0.76433c0.06639-0.07242,0.1397-0.13401,0.21712-0.17871
									c0.10779-0.06223,0.20783-0.08274,0.2922-0.06831c0.15073,0.02575,0.25086,0.16439,0.25149,0.38561
									c0.00464,1.63551,1.16401,2.29618,2.58731,1.47443c1.42331-0.82174,2.57515-2.81679,2.57051-4.4523
									c-0.00464-1.63546-1.16399-2.28865-2.58729-1.4669c-0.19327,0.11158-0.3648,0.09198-0.46313-0.02767
									c-0.05445-0.06626-0.08674-0.16283-0.08709-0.28591c-0.00025-0.08893,0.01624-0.1829,0.04563-0.27636
									C26.90639,20.94008,27.09987,20.67509,27.32278,20.54639z"/></g><path fill="#416E84" d="M14.87733,31.42073c0.09183,0.08973,0.13152,0.25471,0.1322,0.49474
								c0.00066,0.23262-0.03795,0.45026-0.12897,0.64558c-0.091,0.19534-0.22139,0.33825-0.40419,0.44379
								c-0.17626,0.10176-0.31358,0.11342-0.39884,0.01985c-0.09183-0.08976-0.13806-0.25841-0.13872-0.49103
								c-0.00068-0.24002,0.04446-0.45399,0.13548-0.64928c0.08446-0.19153,0.22137-0.3457,0.39763-0.44747
								C14.65473,31.33136,14.78553,31.33096,14.87733,31.42073z M14.71689,32.49025
								c0.05194-0.12769,0.07767-0.28534,0.0772-0.45039c-0.00049-0.17251-0.027-0.29245-0.07952-0.36739
								c-0.046-0.07861-0.13101-0.07463-0.242-0.01055c-0.10445,0.06031-0.18921,0.15434-0.24113,0.28949
								c-0.05197,0.13526-0.07767,0.28534-0.07718,0.45785c0.00047,0.16505,0.02693,0.28507,0.0795,0.35992
								c0.05251,0.07485,0.13755,0.07841,0.242,0.0181C14.58675,32.72321,14.67149,32.62163,14.71689,32.49025"/><path fill="#4C7891" d="M16.43992,31.28503c0.05239,0.02988,0.07875,0.09733,0.07903,0.19485
								c0.00028,0.09754-0.02564,0.18763-0.07767,0.28529c-0.05202,0.09771-0.12375,0.17667-0.2021,0.2219
								c-0.08488,0.04901-0.15024,0.05669-0.20269,0.01935c-0.05241-0.03739-0.08529-0.10106-0.08556-0.1986
								c-0.00026-0.09005,0.03216-0.19141,0.08418-0.28907c0.05207-0.09769,0.12377-0.17666,0.20212-0.22189
								C16.32209,31.24786,16.38751,31.24767,16.43992,31.28503z M16.31689,31.71675l0.03233-0.13139l-0.03294-0.08615
								l-0.07848,0.00021l-0.07822,0.09026l-0.02583,0.12009l0.03299,0.09368l0.07845-0.00019L16.31689,31.71675"/><polygon fill="#416E84" points="16.215 30.468 16.457 30.328 15.495 32.402 15.253 32.541"/><path fill="#416E84" d="M15.49239,31.53902c-0.08486,0.04899-0.15024,0.05672-0.20267,0.01937
								c-0.05895-0.03365-0.08531-0.10107-0.08557-0.1911c-0.00028-0.09751,0.02562-0.19514,0.08418-0.29657
								c0.05205-0.09767,0.11723-0.17286,0.2021-0.22185c0.07837-0.04525,0.14375-0.04544,0.20269-0.01185
								c0.05243,0.03735,0.07877,0.10482,0.07903,0.19482c0.00028,0.09754-0.0256,0.19513-0.07764,0.29285
								C15.63595,31.42612,15.57076,31.49377,15.49239,31.53902z M15.41277,31.13412l-0.03233,0.13139l0.03294,0.08618
								l0.07847-0.00021l0.0717-0.0865l0.03232-0.12386l-0.03294-0.09371l-0.07847,0.00021L15.41277,31.13412"/><path fill="#6EBA6E" d="M14.16279,28.51635c-0.02898,0.09353-0.04519,0.18764-0.04494,0.27698
								c0.00035,0.12348,0.03205,0.21994,0.08583,0.28562c-1.21233,0.92483-2.17035,2.58252-2.36398,4.08952
								c-0.0851-0.01324-0.18531,0.00782-0.29238,0.06963c-0.07742,0.0447-0.15073,0.10629-0.21712,0.17871
								C11.54452,31.6107,12.70098,29.60958,14.16279,28.51635z"/><path fill="#75CA75" d="M14.65799,27.85777c2.02394-1.16853,3.67457-0.2354,3.68116,2.09031
								c0.00657,2.31819-1.63336,5.15861-3.6573,6.32713c-2.01744,1.16477-3.66808,0.22416-3.67465-2.09402
								c-0.00073-0.25617,0.13187-0.55588,0.323-0.76439c0.06639-0.07242,0.1397-0.13401,0.21712-0.17871
								c0.10706-0.06181,0.20728-0.08287,0.29238-0.06963c0.15358,0.0239,0.2572,0.16115,0.25782,0.38323
								c0.00462,1.62798,1.1575,2.29993,2.5808,1.47819c1.4233-0.82174,2.57512-2.82432,2.57051-4.4523
								c-0.00464-1.63551-1.16401-2.29618-2.58731-1.47443c-0.19285,0.11134-0.36136,0.09366-0.45784-0.0242
								c-0.05378-0.06567-0.08548-0.16214-0.08583-0.28562c-0.00025-0.08934,0.01596-0.18345,0.04494-0.27698
								C14.24578,28.24864,14.43538,27.98629,14.65799,27.85777z"/><g><g enable-background="new"><path fill="#4C7891" d="M41.50896,15.87668c0.05243,0.03735,0.07877,0.10479,0.07903,0.19485
										c0.00028,0.09748-0.0256,0.19507-0.08416,0.29656c-0.05205,0.09767-0.11725,0.1654-0.20211,0.21439
										c-0.07837,0.04525-0.14373,0.0529-0.20267,0.01931c-0.05243-0.03741-0.07877-0.10485-0.07905-0.20233
										c-0.00026-0.09005,0.02562-0.18764,0.07767-0.28531c0.05856-0.10146,0.12372-0.17663,0.20861-0.22564
										C41.38462,15.84327,41.45002,15.84306,41.50896,15.87668z M41.38593,16.3084l0.02581-0.12763l-0.02643-0.08994
										l-0.07848,0.00021l-0.07822,0.09026l-0.03232,0.12386l0.03294,0.0937l0.07848-0.00021L41.38593,16.3084"/><polygon fill="#4C7891" points="41.278 15.071 41.519 14.931 40.564 16.993 40.322 17.133"/><path fill="#4C7891" d="M39.93988 16.01607c.09178.08981.13803.25098.13871.49103.00068.24011-.04451.45402-.13548.64934-.08448.19152-.22139.33824-.39767.44002-.18283.10555-.3136.11338-.40541.02364-.08527-.09357-.1315-.2547-.13218-.4948-.00068-.24005.04449-.454.12894-.64557.091-.19528.22139-.33819.40422-.44374C39.7173 15.93421 39.85459 15.92256 39.93988 16.01607zM39.78598 17.08934c.05192-.13515.07113-.28151.07064-.45408-.00049-.17251-.02047-.29628-.07298-.37116-.05254-.06737-.13103-.07462-.242-.01055-.11102.06409-.19571.16556-.24113.29699-.05196.1277-.07767.28531-.0772.45037.00049.17257.02698.29255.07949.3599.04602.07863.13101.08213.24203.01804C39.65579 17.31477 39.73399 17.21705 39.78598 17.08934M38.59634 17.29526c.13086.02215.18998.11576.19044.28082.00039.13503-.04502.26641-.12965.40547-.09116.13531-.20855.24818-.35872.33489-.14362.08292-.26128.10575-.35294.07599-.09163-.0373-.13765-.1159-.13803-.25092-.00047-.16505.06446-.33029.18823-.49945-.09166-.03723-.14415-.10462-.14449-.2247-.00032-.11254.04508-.23637.12975-.36043.08467-.12406.18902-.22186.31307-.29347.13058-.07539.23517-.09823.32022-.07215.07856.02982.12456.10088.12488.21342C38.73944 17.02479 38.694 17.14873 38.59634 17.29526zM38.4804 17.92576c.05865-.07141.09115-.1503.09092-.23284-.00021-.07497-.03308-.12365-.0854-.13104-.05888-.01105-.1177.00033-.18953.0418-.07181.04146-.13052.09793-.18915.17683-.05211.06769-.07805.15032-.07784.22529.00023.08254.02654.12748.0854.13104l.18299-.03803L38.4804 17.92576M38.13154 17.12024l-.07138.19904.0723.12358.1634-.02672.16956-.16552.06485-.20276-.06576-.11986-.16994.03049L38.13154 17.12024"/><path fill="#F9BB4A" d="M39.66828,12.48333c2.02396-1.16854,3.67461-0.22793,3.68118,2.09025
										c0.00659,2.32572-1.63335,5.15865-3.65732,6.32719c-2.01743,1.16477-3.66806,0.23164-3.67465-2.09407
										c-0.00098-0.34538,0.24021-0.76988,0.54012-0.94304c0.29565-0.17069,0.54924-0.03477,0.55022,0.31353
										c0.00463,1.63551,1.16401,2.29618,2.58078,1.4782c1.4233-0.82174,2.57515-2.81679,2.57051-4.4523
										c-0.00463-1.63546-1.16399-2.28865-2.58729-1.4669c-0.30167,0.17417-0.54272,0.024-0.54369-0.31735
										C39.12717,13.07867,39.36472,12.65859,39.66828,12.48333z"/><path fill="#EFAC41" d="M39.17308,13.14196c-0.02896,0.09347-0.04519,0.18759-0.04494,0.27688
										c0.00035,0.12272,0.03165,0.21956,0.08479,0.28647c-1.21193,0.9249-2.16935,2.58204-2.36295,4.08872
										c-0.08508-0.01326-0.18531,0.00782-0.29237,0.06963c-0.07474,0.04315-0.14576,0.10188-0.21031,0.17106
										C36.56195,16.2303,37.71339,14.23385,39.17308,13.14196z"/></g><path fill="#4C7891" d="M40.55494,16.14194c-0.07835,0.04523-0.15028,0.04917-0.20269,0.0118
									s-0.07875-0.09728-0.07903-0.19482c-0.00027-0.09754,0.02562-0.19514,0.07764-0.2928
									c0.05202-0.09766,0.12377-0.16916,0.20212-0.21439c0.08488-0.04901,0.15024-0.05667,0.20269-0.01933
									c0.05241,0.03737,0.08526,0.10104,0.08554,0.19858c0.00025,0.09-0.03214,0.19137-0.08416,0.28903
									C40.70499,16.0177,40.63329,16.0967,40.55494,16.14194z M40.47532,15.73701l-0.03235,0.1239l0.03297,0.09364
									l0.07847-0.00021l0.07822-0.09026l0.02581-0.12757l-0.02643-0.08997l-0.07847,0.00026L40.47532,15.73701"/></g><g><path fill="#416E84" d="M13.65593,31.94558l0.00066,0.23256l-0.55494,0.3204l0.00104,0.36759
								c0.05214-0.06017,0.11738-0.11282,0.18267-0.15052c0.12406-0.07162,0.22862-0.09443,0.32028-0.05721
								c0.09164,0.02975,0.13113,0.11968,0.13155,0.26971c0.0004,0.14256-0.04495,0.28896-0.13608,0.43927
								c-0.09113,0.15031-0.20852,0.26318-0.33909,0.33857c-0.17629,0.10178-0.32012,0.11719-0.42497,0.04243l0.117-0.25539
								l0.03929,0.02242l0.10464-0.00033l0.1764-0.06423l0.16957-0.15803c0.05212-0.07519,0.07805-0.15025,0.07782-0.23277
								c-0.00023-0.08252-0.02653-0.13497-0.08543-0.14606c-0.05235-0.01488-0.12423,0.0041-0.20258,0.04934
								c-0.08488,0.049-0.16316,0.11673-0.24138,0.20699l-0.09171-0.05978l-0.00206-0.7277L13.65593,31.94558z"/></g><g><path fill="#F9607F" d="M81.0307,2.1774c0.18903-0.10975,0.45122-0.09758,0.73783,0.06707l42.78088,24.70147
							c0.57318,0.32926,1.0305,1.12804,1.0305,1.7866l-0.09755,33.73204c0,0.32926-0.11585,0.55487-0.29877,0.66462l1.89965-1.1063
							c0.18903-0.10975,0.30489-0.33536,0.30489-0.65855l0.09144-33.73811c0.0061-0.65855-0.45732-1.45734-1.0244-1.78663
							L83.67429,1.14424c-0.29267-0.17071-0.5488-0.18292-0.73782-0.07317L81.0307,2.1774z"/><path fill="#F34858" d="M81.77001,2.24723c-0.57229-0.33041-1.03708-0.06554-1.03894,0.59206l-0.09564,33.73463
						c-0.00185,0.65313,0.45992,1.45295,1.03221,1.78336l42.78152,24.69992c0.5684,0.32817,1.03319,0.0633,1.03503-0.58984
						l0.09564-33.73463c0.00186-0.6576-0.45991-1.45743-1.02831-1.78559L81.77001,2.24723z"/><path fill="#FFF" d="M122.79824,28.89833c-0.00993-0.02978-0.08678-0.16308-0.13982-0.20789L83.55554,6.11718
						l-0.08565,30.26019c0.00993,0.02666,0.08792,0.15996,0.14095,0.20392l39.10174,22.57297L122.79824,28.89833z"/><path fill="#748BFD" d="M93.58502,17.38653c-0.003,1.05794-0.66869,1.55547-1.53847,1.24599l-0.0413,14.56642l-0.00032,0.11203
					l-0.71463-0.41259l0.00152-0.53706l0.04009-14.1414c-0.87511-0.69793-1.52936-1.95752-1.52636-3.01547
					c0.0034-1.19856,0.85605-1.68449,1.89268-1.08598C92.74128,14.72067,93.58842,16.18797,93.58502,17.38653z M91.68824,17.64754
					c0.65028,0.37544,1.17995,0.07356,1.18207-0.67365c0.00212-0.74725-0.52412-1.65875-1.17439-2.03419
					c-0.64388-0.37174-1.17355-0.06987-1.17567,0.67738C90.51813,16.36429,91.04436,17.2758,91.68824,17.64754"/><path fill="#E4E8F4" d="M102.53465,22.5536c-0.003,1.05794-0.66227,1.55917-1.53844,1.246l-0.04273,15.07339l-0.00703,2.48305
					l-0.71466-0.41261l0.00901-3.17894l0.04076-14.3775c-0.86868-0.69422-1.52936-1.95753-1.52636-3.01547
					c0.0034-1.19856,0.85605-1.68449,1.89911-1.08228C101.69091,19.88774,102.53805,21.35504,102.53465,22.5536z
					 M100.64429,22.81832c0.64385,0.37173,1.17353,0.06985,1.17564-0.67736c0.00212-0.74725-0.52412-1.65875-1.16797-2.03048
					c-0.6503-0.37545-1.17355-0.06987-1.17567,0.67738C99.47418,21.53508,99.994,22.44287,100.64429,22.81832"/><path fill="#F9607F" d="M111.49068,27.72437c-0.003,1.05794-0.66867,1.55548-1.53839,1.24603l-0.04816,16.98946
					l-0.00161,0.56697l-0.71468-0.41262l0.00691-2.43771l0.04285-15.11873c-0.86868-0.69422-1.52936-1.95753-1.52636-3.01547
					c0.0034-1.19856,0.84962-1.68819,1.89269-1.08598C110.64697,25.05852,111.49408,26.52581,111.49068,27.72437z
					 M109.59393,27.9854c0.65028,0.37544,1.17353,0.06985,1.17564-0.67736c0.00212-0.74725-0.51769-1.65504-1.16797-2.03048
					c-0.64388-0.37174-1.17355-0.06987-1.17567,0.67738C108.42381,26.70215,108.95005,27.61365,109.59393,27.9854"/><g><path fill="#9AD898" d="M120.44034,32.89146c-0.003,1.05794-0.66869,1.55547-1.53847,1.24598l-0.0478,16.86188l-0.00428,1.50841
					l-0.71463-0.41259l0.00216-0.76385l0.04992-17.60644c-0.86868-0.69422-1.52937-1.95752-1.52636-3.01546
					c0.0034-1.19856,0.85604-1.68449,1.89908-1.08229C119.5966,30.22559,120.44374,31.6929,120.44034,32.89146z M118.54996,33.15616
					c0.64388,0.37175,1.17355,0.06987,1.17567-0.67735c0.00212-0.74725-0.52411-1.65875-1.16799-2.03049
					c-0.65028-0.37544-1.17995-0.07356-1.18207,0.67369C117.37344,31.86922,117.89968,32.78073,118.54996,33.15616"/></g><g><path fill="#9AD898" d="M121.5154,56.43632L84.40996,35.01841c0.32041-0.89965,0.65317-4.92932,0.97351-5.82897
						c0.22189-0.61617,0.45596-1.26926,0.91199-1.62668c0.7147-0.55449,1.86076-0.24641,2.98222,0.40669
						c0.32042,0.18488,0.64084,0.39436,0.93658,0.61617c2.25511,1.66369,4.36243,4.23922,5.84123,7.07357
						c0.39436,0.80104,0.83797,1.70062,1.46648,2.13198c0.03693,0.0246,0.06161,0.03693,0.08627,0.0616
						c0.57916,0.33275,1.08446,0.09861,1.52808-0.13554c0.67777-0.39436,1.36787-0.76404,2.0333-1.18306
						c0.32042-0.18488,0.65317-0.35735,1.08446-0.28341c0.19721,0.0246,0.39436,0.09853,0.57923,0.20948
						c0.91192,0.52989,1.7869,1.86083,2.29212,3.09316c0.61617,1.50341,0.92425,3.03149,1.72529,4.46103
						c0.14787,0.30808,0.34502,0.59149,0.56683,0.72703c0.037,0.01234,0.06168,0.03701,0.09861,0.04934
						c0.28341,0.13554,0.46829-0.0616,0.61617-0.27115c0.46829-0.6285,0.92425-1.26926,1.39254-1.89776
						c0.22181-0.29575,0.48062-0.61617,0.83797-0.65317c0.23415-0.01226,0.48062,0.07394,0.7271,0.20955
						c0.38202,0.22181,0.76404,0.60383,1.08446,1.03512c0.54223,0.71477,0.89957,1.56508,1.26926,2.36613
						c0.55456,1.24459,1.08446,2.47692,1.66361,3.73392c0.23415,0.51756,0.52997,1.14606,0.99826,1.46648
						c0.51756,0.29575,0.88725-0.17254,1.03512-0.67776c0.11094-0.5299,0.13554-1.20766,0.50529-1.47881
						c0.24641-0.17254,0.59149-0.11094,0.96118,0.09861c0.35735,0.20948,0.7271,0.56683,1.01051,0.97351
						c0.5915,0.82564,0.91192,1.79923,1.15839,2.72348C120.98551,53.3555,121.14572,55.51207,121.5154,56.43632z"/></g></g><g><g enable-background="new"><polygon fill="#E4E8F4" points="111.001 68.23 109.871 67.574 104.868 70.463 105.997 71.119"/><polygon fill="#666970" points="105.997 71.119 104.868 70.463 98.472 66.818 99.602 67.474"/><polygon fill="#9CA0AB" points="96.87 69.052 95.74 68.395 95.742 69.054 96.871 69.71"/><polygon fill="#E4E8F4" points="99.602 67.474 98.472 66.818 95.74 68.395 96.87 69.052"/><polygon fill="#CAD0DD" points="96.87 69.052 96.871 69.71 99.368 68.269 105.764 71.913 111.003 68.888 111.001 68.23 105.997 71.119 99.602 67.474"/></g><g enable-background="new"><polygon fill="#E4E8F4" points="106.245 65.469 105.116 64.813 100.112 67.702 101.241 68.358"/><polygon fill="#666970" points="101.241 68.358 100.112 67.702 93.716 64.057 94.846 64.714"/><polygon fill="#9CA0AB" points="92.114 66.291 90.984 65.635 90.986 66.293 92.116 66.949"/><polygon fill="#E4E8F4" points="94.846 64.714 93.716 64.057 90.984 65.635 92.114 66.291"/><polygon fill="#CAD0DD" points="92.114 66.291 92.116 66.949 94.612 65.508 101.008 69.153 106.247 66.128 106.245 65.469 101.241 68.358 94.846 64.714"/></g><g enable-background="new"><polygon fill="#E4E8F4" points="101.489 62.709 100.36 62.052 95.356 64.941 96.486 65.598"/><polygon fill="#666970" points="96.486 65.598 95.356 64.941 88.96 61.296 90.09 61.953"/><polygon fill="#9CA0AB" points="87.358 63.53 86.228 62.874 86.23 63.532 87.36 64.189"/><polygon fill="#E4E8F4" points="90.09 61.953 88.96 61.296 86.228 62.874 87.358 63.53"/><polygon fill="#CAD0DD" points="87.358 63.53 87.36 64.189 89.857 62.747 96.252 66.392 101.491 63.367 101.489 62.709 96.486 65.598 90.09 61.953"/></g><g enable-background="new"><polygon fill="#E4E8F4" points="96.734 59.948 95.604 59.292 90.6 62.18 91.73 62.837"/><polygon fill="#666970" points="91.73 62.837 90.6 62.18 84.205 58.536 85.334 59.192"/><polygon fill="#9CA0AB" points="82.602 60.77 81.473 60.113 81.474 60.772 82.604 61.428"/><polygon fill="#E4E8F4" points="85.334 59.192 84.205 58.536 81.473 60.113 82.602 60.77"/><polygon fill="#CAD0DD" points="82.602 60.77 82.604 61.428 85.101 59.987 91.496 63.631 96.735 60.606 96.734 59.948 91.73 62.837 85.334 59.192"/></g><g enable-background="new"><polygon fill="#E4E8F4" points="91.978 57.187 90.848 56.531 85.844 59.42 86.974 60.076"/><polygon fill="#666970" points="86.974 60.076 85.844 59.42 79.449 55.775 80.578 56.431"/><polygon fill="#9CA0AB" points="77.846 58.009 76.717 57.352 76.719 58.011 77.848 58.667"/><polygon fill="#E4E8F4" points="80.578 56.431 79.449 55.775 76.717 57.352 77.846 58.009"/><polygon fill="#CAD0DD" points="77.846 58.009 77.848 58.667 80.345 57.226 86.741 60.87 91.98 57.846 91.978 57.187 86.974 60.076 80.578 56.431"/></g><g enable-background="new"><polygon fill="#E4E8F4" points="87.222 54.427 86.092 53.77 81.089 56.659 82.218 57.315"/><polygon fill="#666970" points="82.218 57.315 81.089 56.659 74.693 53.014 75.823 53.671"/><polygon fill="#9CA0AB" points="73.091 55.248 71.961 54.592 71.963 55.25 73.092 55.907"/><polygon fill="#E4E8F4" points="75.823 53.671 74.693 53.014 71.961 54.592 73.091 55.248"/><polygon fill="#CAD0DD" points="73.091 55.248 73.092 55.907 75.589 54.465 81.985 58.11 87.224 55.085 87.222 54.427 82.218 57.315 75.823 53.671"/></g><g enable-background="new"><polygon fill="#E4E8F4" points="82.466 51.666 81.337 51.009 76.333 53.898 77.462 54.555"/><polygon fill="#666970" points="77.462 54.555 76.333 53.898 69.937 50.254 71.067 50.91"/><polygon fill="#9CA0AB" points="68.335 52.487 67.205 51.831 67.207 52.49 68.337 53.146"/><polygon fill="#E4E8F4" points="71.067 50.91 69.937 50.254 67.205 51.831 68.335 52.487"/><polygon fill="#CAD0DD" points="68.335 52.487 68.337 53.146 70.833 51.704 77.229 55.349 82.468 52.324 82.466 51.666 77.462 54.555 71.067 50.91"/></g><path fill="#416E84" d="M99.71874,65.01907l-0.05273,6.47582c0,0.3161-0.18443,0.60583-0.57947,0.84299L66.15797,91.46281
					c-0.79041,0.44778-2.10756,0.44778-2.89781,0L30.12081,72.33788c-0.42141-0.23716-0.60583-0.55326-0.60583-0.86936
					l0.05274-6.47566c0,0.3161,0.18442,0.6322,0.60583,0.84299h68.96556C99.53432,65.62506,99.71874,65.30896,99.71874,65.01907z"/><polygon fill="#E4E8F4" points="67.249 87.292 68.378 86.636 71.11 88.213 69.981 88.869"/><polygon fill="#D4DAE8" points="69.981 88.869 71.11 88.213 77.454 99.213 76.324 99.869"/><polygon fill="#9CA0AB" points="81.338 102.764 82.468 102.108 82.466 102.766 81.337 103.422"/><polygon fill="#E4E8F4" points="76.324 99.869 77.454 99.213 82.468 102.108 81.338 102.764"/><polygon fill="#CAD0DD" points="69.981 88.869 76.324 99.869 81.338 102.764 81.337 103.422 76.087 100.392 69.743 89.392 67.247 87.95 67.249 87.292"/><g enable-background="new"><polygon fill="#E4E8F4" points="21.246 68.23 22.376 67.574 27.379 70.463 26.25 71.119"/><polygon fill="#666970" points="26.25 71.119 27.379 70.463 33.775 66.818 32.645 67.474"/><polygon fill="#9CA0AB" points="35.377 69.052 36.507 68.395 36.505 69.054 35.376 69.71"/><polygon fill="#E4E8F4" points="32.645 67.474 33.775 66.818 36.507 68.395 35.377 69.052"/><polygon fill="#CAD0DD" points="35.377 69.052 35.376 69.71 32.879 68.269 26.483 71.913 21.244 68.888 21.246 68.23 26.25 71.119 32.645 67.474"/></g><polygon fill="#E4E8F4" points="72.004 84.531 73.134 83.875 75.866 85.452 74.736 86.109"/><polygon fill="#D4DAE8" points="74.736 86.109 75.866 85.452 82.21 96.452 81.08 97.108"/><polygon fill="#9CA0AB" points="86.094 100.003 87.224 99.347 87.222 100.005 86.092 100.662"/><polygon fill="#E4E8F4" points="81.08 97.108 82.21 96.452 87.224 99.347 86.094 100.003"/><polygon fill="#CAD0DD" points="74.736 86.109 81.08 97.108 86.094 100.003 86.092 100.662 80.843 97.631 74.499 86.631 72.002 85.19 72.004 84.531"/><g enable-background="new"><polygon fill="#E4E8F4" points="26.002 65.469 27.131 64.813 32.135 67.702 31.006 68.358"/><polygon fill="#666970" points="31.006 68.358 32.135 67.702 38.531 64.057 37.401 64.714"/><polygon fill="#9CA0AB" points="40.133 66.291 41.263 65.635 41.261 66.293 40.131 66.949"/><polygon fill="#E4E8F4" points="37.401 64.714 38.531 64.057 41.263 65.635 40.133 66.291"/><polygon fill="#CAD0DD" points="40.133 66.291 40.131 66.949 37.635 65.508 31.239 69.153 26 66.128 26.002 65.469 31.006 68.358 37.401 64.714"/></g><polygon fill="#E4E8F4" points="76.76 81.771 77.89 81.114 80.622 82.692 79.492 83.348"/><polygon fill="#D4DAE8" points="79.492 83.348 80.622 82.692 86.966 93.691 85.836 94.348"/><polygon fill="#9CA0AB" points="90.85 97.243 91.98 96.586 91.978 97.245 90.848 97.901"/><polygon fill="#E4E8F4" points="85.836 94.348 86.966 93.691 91.98 96.586 90.85 97.243"/><polygon fill="#CAD0DD" points="79.492 83.348 85.836 94.348 90.85 97.243 90.848 97.901 85.599 94.87 79.255 83.871 76.758 82.429 76.76 81.771"/><g enable-background="new"><polygon fill="#E4E8F4" points="30.758 62.709 31.887 62.052 36.891 64.941 35.761 65.598"/><polygon fill="#666970" points="35.761 65.598 36.891 64.941 43.286 61.296 42.157 61.953"/><polygon fill="#9CA0AB" points="44.889 63.53 46.019 62.874 46.017 63.532 44.887 64.189"/><polygon fill="#E4E8F4" points="42.157 61.953 43.286 61.296 46.019 62.874 44.889 63.53"/><polygon fill="#CAD0DD" points="44.889 63.53 44.887 64.189 42.39 62.747 35.995 66.392 30.756 63.367 30.758 62.709 35.761 65.598 42.157 61.953"/></g><g><polygon fill="#E4E8F4" points="81.516 79.01 82.646 78.353 85.378 79.931 84.248 80.587"/><polygon fill="#D4DAE8" points="84.248 80.587 85.378 79.931 91.721 90.931 90.592 91.587"/><polygon fill="#9CA0AB" points="95.606 94.482 96.735 93.825 96.734 94.484 95.604 95.14"/><polygon fill="#E4E8F4" points="90.592 91.587 91.721 90.931 96.735 93.825 95.606 94.482"/><polygon fill="#CAD0DD" points="84.248 80.587 90.592 91.587 95.606 94.482 95.604 95.14 90.355 92.11 84.011 81.11 81.514 79.668 81.516 79.01"/><g enable-background="new"><polygon fill="#E4E8F4" points="35.513 59.948 36.643 59.292 41.647 62.18 40.517 62.837"/><polygon fill="#666970" points="40.517 62.837 41.647 62.18 48.042 58.536 46.913 59.192"/><polygon fill="#9CA0AB" points="49.645 60.77 50.774 60.113 50.773 60.772 49.643 61.428"/><polygon fill="#E4E8F4" points="46.913 59.192 48.042 58.536 50.774 60.113 49.645 60.77"/><polygon fill="#CAD0DD" points="49.645 60.77 49.643 61.428 47.146 59.987 40.751 63.631 35.512 60.606 35.513 59.948 40.517 62.837 46.913 59.192"/></g></g><g><polygon fill="#E4E8F4" points="86.272 76.249 87.401 75.593 90.133 77.17 89.004 77.827"/><polygon fill="#D4DAE8" points="89.004 77.827 90.133 77.17 96.477 88.17 95.348 88.826"/><polygon fill="#9CA0AB" points="100.362 91.721 101.491 91.065 101.489 91.723 100.36 92.38"/><polygon fill="#E4E8F4" points="95.348 88.826 96.477 88.17 101.491 91.065 100.362 91.721"/><polygon fill="#CAD0DD" points="89.004 77.827 95.348 88.826 100.362 91.721 100.36 92.38 95.111 89.349 88.767 78.349 86.27 76.908 86.272 76.249"/><g enable-background="new"><polygon fill="#E4E8F4" points="40.269 57.187 41.399 56.531 46.403 59.42 45.273 60.076"/><polygon fill="#666970" points="45.273 60.076 46.403 59.42 52.798 55.775 51.669 56.431"/><polygon fill="#9CA0AB" points="54.401 58.009 55.53 57.352 55.528 58.011 54.399 58.667"/><polygon fill="#E4E8F4" points="51.669 56.431 52.798 55.775 55.53 57.352 54.401 58.009"/><polygon fill="#CAD0DD" points="54.401 58.009 54.399 58.667 51.902 57.226 45.506 60.87 40.267 57.846 40.269 57.187 45.273 60.076 51.669 56.431"/></g></g><g><polygon fill="#E4E8F4" points="91.028 73.489 92.157 72.832 94.889 74.409 93.76 75.066"/><polygon fill="#D4DAE8" points="93.76 75.066 94.889 74.409 101.233 85.409 100.103 86.066"/><polygon fill="#9CA0AB" points="105.117 88.96 106.247 88.304 106.245 88.963 105.116 89.619"/><polygon fill="#E4E8F4" points="100.103 86.066 101.233 85.409 106.247 88.304 105.117 88.96"/><polygon fill="#CAD0DD" points="93.76 75.066 100.103 86.066 105.117 88.96 105.116 89.619 99.866 86.588 93.522 75.588 91.026 74.147 91.028 73.489"/><g enable-background="new"><polygon fill="#E4E8F4" points="45.025 54.427 46.155 53.77 51.158 56.659 50.029 57.315"/><polygon fill="#666970" points="50.029 57.315 51.158 56.659 57.554 53.014 56.424 53.671"/><polygon fill="#9CA0AB" points="59.156 55.248 60.286 54.592 60.284 55.25 59.155 55.907"/><polygon fill="#E4E8F4" points="56.424 53.671 57.554 53.014 60.286 54.592 59.156 55.248"/><polygon fill="#CAD0DD" points="59.156 55.248 59.155 55.907 56.658 54.465 50.262 58.11 45.023 55.085 45.025 54.427 50.029 57.315 56.424 53.671"/></g></g><g><polygon fill="#E4E8F4" points="95.783 70.728 96.913 70.071 99.645 71.649 98.516 72.305"/><polygon fill="#D4DAE8" points="98.516 72.305 99.645 71.649 105.989 82.649 104.859 83.305"/><polygon fill="#9CA0AB" points="109.873 86.2 111.003 85.543 111.001 86.202 109.871 86.858"/><polygon fill="#E4E8F4" points="104.859 83.305 105.989 82.649 111.003 85.543 109.873 86.2"/><polygon fill="#CAD0DD" points="98.516 72.305 104.859 83.305 109.873 86.2 109.871 86.858 104.622 83.828 98.278 72.828 95.782 71.386 95.783 70.728"/><g enable-background="new"><polygon fill="#E4E8F4" points="49.781 51.666 50.91 51.009 55.914 53.898 54.785 54.555"/><polygon fill="#666970" points="54.785 54.555 55.914 53.898 62.31 50.254 61.18 50.91"/><polygon fill="#9CA0AB" points="63.912 52.487 65.042 51.831 65.04 52.49 63.91 53.146"/><polygon fill="#E4E8F4" points="61.18 50.91 62.31 50.254 65.042 51.831 63.912 52.487"/><polygon fill="#CAD0DD" points="63.912 52.487 63.91 53.146 61.414 51.704 55.018 55.349 49.779 52.324 49.781 51.666 54.785 54.555 61.18 50.91"/></g></g><path fill="#4C7891" d="M99.11309,65.87479L66.20329,84.99001c-0.81268,0.44495-2.10892,0.44495-2.9021,0L30.1591,65.87479
				c-0.79331-0.48368-0.79331-1.23826,0-1.70258l32.92917-19.13459c0.79331-0.46432,2.07019-0.46432,2.88286,0.03873
				l33.12271,19.09586C99.92577,64.65589,99.92577,65.39111,99.11309,65.87479z"/><g><path fill="#416E84" d="M51.67823,78.2733L30.17351,65.83578c-0.42133-0.21078-0.60579-0.52679-0.60579-0.8429l-0.05279,6.47565
					c0,0.31612,0.18445,0.63212,0.60591,0.86935l21.55738,12.44083V78.2733z"/></g><g><polygon fill="#E4E8F4" points="64.998 87.292 63.869 86.636 61.137 88.213 62.266 88.869"/><polygon fill="#D4DAE8" points="62.266 88.869 61.137 88.213 54.793 99.213 55.923 99.869"/><polygon fill="#9CA0AB" points="50.909 102.764 49.779 102.108 49.781 102.766 50.91 103.422"/><polygon fill="#E4E8F4" points="55.923 99.869 54.793 99.213 49.779 102.108 50.909 102.764"/><polygon fill="#CAD0DD" points="62.266 88.869 55.923 99.869 50.909 102.764 50.91 103.422 56.16 100.392 62.504 89.392 65 87.95 64.998 87.292"/></g><g><polygon fill="#E4E8F4" points="60.243 84.531 59.113 83.875 56.381 85.452 57.511 86.109"/><polygon fill="#D4DAE8" points="57.511 86.109 56.381 85.452 50.037 96.452 51.167 97.108"/><polygon fill="#9CA0AB" points="46.153 100.003 45.023 99.347 45.025 100.005 46.155 100.662"/><polygon fill="#E4E8F4" points="51.167 97.108 50.037 96.452 45.023 99.347 46.153 100.003"/><polygon fill="#CAD0DD" points="57.511 86.109 51.167 97.108 46.153 100.003 46.155 100.662 51.404 97.631 57.748 86.631 60.244 85.19 60.243 84.531"/></g><g><polygon fill="#E4E8F4" points="55.487 81.771 54.357 81.114 51.625 82.692 52.755 83.348"/><polygon fill="#D4DAE8" points="52.755 83.348 51.625 82.692 45.281 93.691 46.411 94.348"/><polygon fill="#9CA0AB" points="41.397 97.243 40.267 96.586 40.269 97.245 41.399 97.901"/><polygon fill="#E4E8F4" points="46.411 94.348 45.281 93.691 40.267 96.586 41.397 97.243"/><polygon fill="#CAD0DD" points="52.755 83.348 46.411 94.348 41.397 97.243 41.399 97.901 46.648 94.87 52.992 83.871 55.489 82.429 55.487 81.771"/></g><g><polygon fill="#E4E8F4" points="50.731 79.01 49.601 78.353 46.869 79.931 47.999 80.587"/><polygon fill="#D4DAE8" points="47.999 80.587 46.869 79.931 40.526 90.931 41.655 91.587"/><polygon fill="#9CA0AB" points="36.641 94.482 35.512 93.825 35.513 94.484 36.643 95.14"/><polygon fill="#E4E8F4" points="41.655 91.587 40.526 90.931 35.512 93.825 36.641 94.482"/><polygon fill="#CAD0DD" points="47.999 80.587 41.655 91.587 36.641 94.482 36.643 95.14 41.892 92.11 48.236 81.11 50.733 79.668 50.731 79.01"/></g><g><polygon fill="#E4E8F4" points="45.975 76.249 44.846 75.593 42.114 77.17 43.243 77.827"/><polygon fill="#D4DAE8" points="43.243 77.827 42.114 77.17 35.77 88.17 36.899 88.826"/><polygon fill="#9CA0AB" points="31.885 91.721 30.756 91.065 30.758 91.723 31.887 92.38"/><polygon fill="#E4E8F4" points="36.899 88.826 35.77 88.17 30.756 91.065 31.885 91.721"/><polygon fill="#CAD0DD" points="43.243 77.827 36.899 88.826 31.885 91.721 31.887 92.38 37.136 89.349 43.48 78.349 45.977 76.908 45.975 76.249"/></g><g><polygon fill="#E4E8F4" points="41.219 73.489 40.09 72.832 37.358 74.409 38.487 75.066"/><polygon fill="#D4DAE8" points="38.487 75.066 37.358 74.409 31.014 85.409 32.143 86.066"/><polygon fill="#9CA0AB" points="27.13 88.96 26 88.304 26.002 88.963 27.131 89.619"/><polygon fill="#E4E8F4" points="32.143 86.066 31.014 85.409 26 88.304 27.13 88.96"/><polygon fill="#CAD0DD" points="38.487 75.066 32.143 86.066 27.13 88.96 27.131 89.619 32.381 86.588 38.724 75.588 41.221 74.147 41.219 73.489"/></g><g><polygon fill="#E4E8F4" points="36.464 70.728 35.334 70.071 32.602 71.649 33.731 72.305"/><polygon fill="#D4DAE8" points="33.731 72.305 32.602 71.649 26.258 82.649 27.388 83.305"/><polygon fill="#9CA0AB" points="22.374 86.2 21.244 85.543 21.246 86.202 22.376 86.858"/><polygon fill="#E4E8F4" points="27.388 83.305 26.258 82.649 21.244 85.543 22.374 86.2"/><polygon fill="#CAD0DD" points="33.731 72.305 27.388 83.305 22.374 86.2 22.376 86.858 27.625 83.828 33.969 72.828 36.465 71.386 36.464 70.728"/></g><g><path fill="#31323D" d="M75.63973,58.68346c-6.17049-3.57222-16.03122-3.5133-22.05412,0
					c-3.30662,1.9191-4.78279,4.48763-4.39897,6.99705c0.35427-1.94847,1.83044-3.86757,4.39897-5.3733
					c6.0229-3.5133,15.88364-3.57222,22.05412,0c2.62746,1.53528,4.10363,3.45438,4.45808,5.46195
					C80.48145,63.23019,79.00527,60.60256,75.63973,58.68346z"/><path fill="#464957" d="M75.63973,60.30721c-6.17049-3.57222-16.03122-3.5133-22.05412,0
					c-2.56853,1.50573-4.0447,3.42482-4.39897,5.3733c0,0,0,0,0,0.02955c0.0591,0.26579,0.11803,0.50185,0.17714,0.73809
					c0.50185,1.80089,1.97802,3.5133,4.42852,4.93037c6.05228,3.48392,15.79499,3.48392,21.81789,0
					c2.33229-1.35796,3.77891-3.07037,4.31031-4.84171c0.08865-0.23624,0.14776-0.50203,0.17731-0.76764
					C79.74336,63.76159,78.26719,61.84249,75.63973,60.30721z"/></g><g enable-background="new"><path fill="#D4DAE8" d="M75.73754,32.93249c6.05466,3.49566,5.97053,9.20953-0.04438,12.70502
						c-6.01511,3.4956-15.76351,3.49575-21.81816,0.0001c-6.17072-3.56267-6.20231-9.20931-0.1872-12.70491
						C59.70271,29.43722,69.56682,29.36982,75.73754,32.93249z"/></g><g opacity=".4"><path fill="#CAD0DD" d="M80.2483,39.2706l-0.16835,25.73085c-0.0186,2.30003-1.53327,4.61877-4.56262,6.37656
					c-6.00266,3.47823-15.76397,3.47823-21.80394,0c-3.12282-1.81382-4.67493-4.15129-4.67493-6.47003l0.16835-25.73085
					c0,2.31875,1.55199,4.65622,4.67493,6.45143c6.03998,3.49684,15.80118,3.49684,21.80383,0
					C78.7149,43.8895,80.22958,41.57063,80.2483,39.2706z"/></g><g><path fill="#FED57A" d="M49.7149,42.67664c2.02826,5.80928,11.93358,8.15268,11.93358,8.15268
					c2.91444,4.66709,9.11747,2.83571,9.11747,2.83571c3.22958,1.6345,5.69112,1.06347,7.40436,0
					c1.43762-0.90577,2.3434-2.1464,2.71755-2.75686c0.11816-0.21671,0.197-0.35457,0.197-0.35457
					c3.07201-1.00421,4.52923-2.71744,5.06096-4.66708c1.26022-4.7261-3.15086-10.87012-3.91888-11.89416
					c-0.07873-0.09844-0.11815-0.15757-0.11815-0.15757c0.03942-0.19687,0.01971-0.41346-0.03931-0.64976
					c-0.37416-1.31948-2.24496-2.95386-3.17056-3.68259c-0.33474-0.25589-0.53162-0.41346-0.53162-0.41346
					c-0.17728-0.37416-0.453-0.72861-0.80746-1.10277c-1.51623-1.55578-4.35194-2.99328-5.76985-3.66276
					c-0.53173-0.23642-0.84676-0.37416-0.84676-0.37416c-0.17728-0.07885-0.33474-0.17728-0.51202-0.25601
					c-9.70833-4.74593-15.79321-2.18595-18.5502-0.25601c-1.14219,0.78762-1.71323,1.47693-1.71323,1.47693
					s-0.2363,0.01971-0.61046,0.13786c-0.59075,0.19687-1.55578,0.68918-2.52069,1.83138
					c-0.94519,1.06334-1.89039,2.71756-2.59941,5.29726C42.48771,39.23048,49.7149,42.67664,49.7149,42.67664z"/><path fill="#F9BB4A" d="M55.99649,25.58366c2.18583-1.29964,5.65171,1.10277,6.85291,1.69364
					c1.22092,0.59075,4.50963,3.46576,5.12009,4.13535c0.59075,0.66959,0.39375,2.48126,0.19688,2.91443
					c-0.19688,0.4333-2.85542,1.20133-3.01299,1.51635c-0.17716,0.33474,0.21671,2.40241,0.98462,2.55999
					c0.74832,0.15757-0.45289-1.39808-0.45289-2.40241s2.40253-0.61046,3.19016-0.9059c0.76803-0.29543,0,0.4726,0.90589,0.76803
					c0.88618,0.29531,0.9452,0.49231,1.71323,0.43318c0.78774-0.07873-0.9452-0.76791-1.75265-1.67381
					c-0.78763-0.92561-0.05901-2.99328-0.05901-2.99328c1.71323,0.72861,6.67563,7.24678,6.91204,7.38464
					c0.17717,0.11815,0.29532,0.78775,0.31503,0.94532c0-0.15757-2.55998,0.49231-2.44183,1.14207
					c0.11815,0.63017,0.51202-0.43317,1.1815-0.25601c0.68931,0.17728,2.26467,0.07885,2.26467,0.07885
					c1.39809,1.02392,2.87502,6.14402,2.87502,6.14402s-1.06335-0.27572-1.31936-0.4726
					c-0.25601-0.21671-1.29964-2.36311-1.57537-1.98895c-0.256,0.35445,0.78775,2.40241,0.78775,2.40241
					s-1.06347,1.24063-1.1422,1.94953c-0.05914,0.70902,1.20121-1.16178,1.20121-1.16178
					c2.91444-1.53606,1.92982,2.95386,1.92982,2.95386l0.21671,0.15757c0.11815-0.21671,0.19688-0.35457,0.19688-0.35457
					c3.07201-1.00421,4.52922-2.71744,5.06096-4.66708l-0.39388,0.94532c0-0.70412-2.67527-5.63382-0.84676-1.06347
					c0.11815,0.29543-0.72861-0.15746-1.47693-0.17717c-0.72861-0.01971,0.59074,0.7089,0.59074,0.7089
					s1.35878-0.07872,1.04375,1.00433c-0.33485,1.10277-2.81599,2.1071-2.81599,2.1071s-1.91022-5.57298-1.91022-6.51818
					c0-0.9256,0.49231-1.81178,1.00433-2.28438c0.49231-0.49231,1.53594,0.80745,2.16611,0.39387
					c0.64988-0.41359-1.53595-1.02404-1.14207-1.43751c0.41346-0.41358-0.09856-2.04808-0.35445-2.44184
					c-0.25601-0.39387-0.53174-0.27572-0.45301-0.07885c0.09844,0.21659,0.57116,1.85109-0.0393,2.30398
					c-0.63017,0.45301-2.00867,2.08751-2.00867,2.08751l-3.44617-5.47454c0,0,0.03942-0.84676,0.27573-1.81166
					c0.21658-0.96491-0.57116-1.14219-0.53174-2.14652c0.05901-1.02404,1.71323,0.43329,1.85109-0.41346
					c0.13786-0.86647-1.91022-0.70902-1.91022-0.70902l-0.0393,0.17728c-0.10007-0.07535,0.41778-0.11931-1.89051-1.37849
					c1.99181,1.99181,0.70911,2.30784,1.49664,5.55327l-5.49413-5.41541c0.11815-0.21659-0.19699-1.12248-0.15757-1.8708
					c0.01971-0.74832,2.00866,0.61046,2.3827-0.45288c0.37416-1.06347-2.34328-0.27572-2.34328-0.39387
					c0-0.13786,0.63005-0.98462,0.80733-1.20121c0.17728-0.197,0.13786-0.2363,0.13786-0.2363
					c-1.65421-0.25601-1.83138,3.44617-1.83138,3.44617s-5.21853-3.05242-5.51385-3.32802
					c-0.31515-0.25601-0.29543-0.68931-0.23642-1.57537c0.07885-0.86647,1.81178-0.197,2.95386-0.55145
					c1.1619-0.37416-2.89472-0.78774-2.89472-0.78774c-0.11815-0.53161-1.1619-0.78762-1.1619-0.78762
					s-0.17717-0.31515-0.5119-0.09844c-0.35457,0.2363,0.80733,1.16178,0.80733,1.16178
					c-0.25601,0.57116-0.2363,2.02837-0.2363,2.02837c-4.23391-2.3041-10.04307-1.71323-10.04307-1.71323l-0.09856-0.01971
					c-1.14207,0.78762-1.71323,1.47693-1.71323,1.47693s-0.2363,0.01971-0.61046,0.13786l0.03942,0.07873
					c0,0,4.90339-0.66959,5.76986-0.7089C56.86516,24.35369,50.86601,28.61533,55.99649,25.58366z"/><path fill="#F9BB4A" d="M49.71462 42.67664c2.02825 5.80928 11.93358 8.15268 11.93358 8.15268 2.91444 4.66709 9.11758 2.83571 9.11758 2.83571 3.22958 1.6345 5.69113 1.06347 7.40436 0-1.67393-.11815-6.22286-.9649-6.95147-2.24496-.72861-1.29964-.64989-1.89039-.11815-3.95807.53173-2.04808 2.40253-.78774 3.84003-1.81179 1.43751-1.02392-1.47693-.49231-2.54028-.63017-1.04375-.15745-1.49664-1.35878-2.04808-2.3434-.55132-1.00421.61046-3.0523.61046-3.0523-3.40675-.17717-1.67381 5.53355-1.67381 5.53355-.68931 2.18595-3.40675-1.35878-3.40675-1.35878-1.08318.59087.78763 3.01299 2.30398 3.269 1.53594.25601 1.37849.51202.70889 1.67381-.66947 1.1619.80746 3.82033.80746 3.82033-7.66037.31515-8.21181-5.69113-8.1921-7.48308 0-1.77237.98462-1.59508 2.18583-2.24496 1.20133-.64988.31515-3.03259-.09843-3.52489-.39388-.51202-.4726.7089-.03942 1.41779.4333.70902.23642 1.20133-.64976 1.33907-.88618.15757-2.24496 1.69363-2.75698 1.69363-.49231 0-.4726-2.02837-.98462-2.5601-.53173-.55133 0-1.1815-.11815-1.87068-.09844-.70902-1.51635 1.39808-1.59508 2.12669-.09844.72861-2.87513.92561-2.99328 1.45734-.11815.55132 2.36311-.21671 3.54473-.74832 1.20121-.53173 2.69785 6.5969 2.69785 6.5969s-4.54893-2.30397-6.87275-2.87513c-2.34328-.57104-3.52489-3.66276-3.34761-5.61229.19687-1.96924 3.46588-.4726 3.46588-.82705 0-.37416-3.11143-1.10277-3.52501-1.35878-.41346-.2363.57116-1.92994 1.33907-2.55999.78775-.61058.57116-3.09172 1.18162-3.56444.59075-.45289 1.49664-.07873 2.06768-.76791.57104-.6893 2.40241-.86647 2.40241-.55144 0 .31515.57116 1.43763.57116 2.71756 0 1.28005.82705 2.55999 1.4178 2.65854.59075.07873.76803-.45301.03942-.92561-.72861-.45288-.72861-1.81166-.41358-2.50097.56625-1.16544-2.86666-2.1705.94532-1.81167 1.67381.15757 1.96924 1.51635 3.22946 1.1619 1.24063-.33486-4.39136-2.52068-6.3606-2.52068-1.96924 0-3.64305 1.37849-3.89906 1.55565-.25601.197-1.22092-1.87068-2.18595-2.40241-.96491-.53173-.15745-2.61912-1.06335-2.61912-.90589 0 .59075 3.15085 1.77237 4.60807 1.20121 1.47693-.70902 3.82033-1.08318 4.94281-.37404 1.12248-.80733.37416-1.49652.90577-.6893.51202.43317 4.60807-.25601 4.76564-.68931.15745-2.7767-4.70651-3.0523-7.34534-.27572-2.619 1.20121-2.16611 1.96924-3.36732.76791-1.18162-1.96924.2363-1.96924.2363l1.45722-3.82033c-.94532 1.06334-1.89051 2.71756-2.59941 5.29726C42.48755 39.23048 49.71462 42.67664 49.71462 42.67664zM79.5488 36.17818c.17116.14975.58838.17841.74832.09844.31894-.21198.15085-1.35209.25601-1.61467.10338-.27603.77608-.68459 1.14219-.70901.17717-.01971.35445.03942.53162.03942-.07873-.09844-.11815-.15757-.11815-.15757.03942-.19687.01971-.41346-.03931-.64976-.03942.01959-.07884.0393-.09856.05901-1.85942.82627-1.54651.06265-2.28426.9059-.13786.15745-.27573.33474-.35445.53161C79.23161 34.93326 79.17675 35.89207 79.5488 36.17818zM74.42883 27.65146c.03931-.01971.07873-.01971.11815-.03942.60389-.03181 3.13948 2.0639 4.35194 1.89039-.33474-.25589-.53162-.41346-.53162-.41346-.17728-.37416-.453-.72861-.80746-1.10277-1.05465-.24842-2.26196-2.08997-3.36732-.98462C73.75767 27.43555 74.27538 27.95743 74.42883 27.65146zM68.0288 24.52032c.13786.03942.25601-.09844.39387-.13786.11469-.04593.75691-.00091 1.00421.19687.19688.13125.16784.17728.47272.17728.85601 0 1.67118.00526 1.8904-.43317-1.59872-.71082-.96113-.45359-1.35878-.63017-.01971.0393-.03931.09844-.07873.13786-.49604-.06018-2.1273-.10938-2.40253.2756C67.8318 24.2446 67.87122 24.48089 68.0288 24.52032z"/></g></g><g><path fill="#748BFD" d="M2.91481,67.97935c0.18902-0.10976,0.45122-0.09759,0.73783,0.06706l42.78088,24.70146
						c0.57318,0.32926,1.0305,1.12805,1.0305,1.7866l-0.09755,33.73204c0,0.32925-0.11586,0.55487-0.29878,0.66463l1.89965-1.1063
						c0.18903-0.10975,0.30488-0.33536,0.30488-0.65855l0.09144-33.73811c0.0061-0.65855-0.45732-1.45734-1.0244-1.78664
						L5.55839,66.94618c-0.29267-0.17072-0.5488-0.18292-0.73783-0.07317L2.91481,67.97935z"/><path fill="#4562EF" d="M3.65412,68.04917c-0.57229-0.33041-1.03708-0.06554-1.03894,0.59206l-0.09564,33.73463
					c-0.00185,0.65313,0.45992,1.45296,1.03221,1.78336l42.78152,24.69992c0.5684,0.32817,1.03319,0.06329,1.03504-0.58983
					l0.09564-33.73463c0.00187-0.6576-0.45991-1.45743-1.02831-1.78559L3.65412,68.04917z"/><path fill="#FFF" d="M44.68235,94.70027c-0.00993-0.02978-0.08678-0.16308-0.13982-0.20789L5.43965,71.91912L5.354,102.17931
					c0.00993,0.02666,0.08792,0.15996,0.14096,0.20392l39.10174,22.57298L44.68235,94.70027z"/><g><polygon fill="#5B5E71" points="10.954 80.847 10.905 102.038 8.26 100.51 8.309 79.319"/><polygon fill="#3E60DD" points="17.097 89.48 17.062 105.593 14.416 104.065 14.451 87.953"/><polygon fill="#75CA75" points="23.268 87.956 23.219 109.147 20.573 107.62 20.622 86.428"/><polygon fill="#F9607F" points="29.396 101.663 29.376 112.702 26.73 111.174 26.75 100.135"/><polygon fill="#EFAC41" points="35.582 95.065 35.533 116.257 32.887 114.729 32.936 93.538"/><polygon fill="#AFB5BF" points="41.724 103.699 41.689 119.811 39.044 118.284 39.078 102.172"/></g></g><g><path fill="#5B5E71" d="M127.08435,67.97935c-0.18903-0.10976-0.45122-0.09759-0.73782,0.06706L83.56564,92.74787
					c-0.57317,0.32926-1.03049,1.12805-1.03049,1.7866l0.09754,33.73204c0,0.32925,0.11586,0.55487,0.29878,0.66463l-1.89966-1.1063
					c-0.18903-0.10975-0.30488-0.33536-0.30488-0.65855l-0.09145-33.73811c-0.0061-0.65855,0.45732-1.45734,1.0244-1.78664
					l42.78088-24.69536c0.29268-0.17072,0.54881-0.18292,0.73783-0.07317L127.08435,67.97935z"/><path fill="#474B59" d="M126.34504,68.04917c0.57229-0.33041,1.03708-0.06554,1.03895,0.59206l0.09563,33.73463
				c0.00185,0.65313-0.45992,1.45296-1.03221,1.78336L83.6659,128.85915c-0.5684,0.32817-1.03319,0.06329-1.03504-0.58983
				l-0.09564-33.73463c-0.00186-0.6576,0.45991-1.45743,1.02831-1.78559L126.34504,68.04917z"/><path fill="#FFF" d="M85.31681,94.70027c0.00993-0.02978,0.08679-0.16308,0.13982-0.20789l39.10287-22.57326l0.08566,30.26019
				c-0.00993,0.02666-0.08792,0.15996-0.14096,0.20392l-39.10174,22.57298L85.31681,94.70027z"/><path fill="#F9BB4A" d="M112.94079,82.71865c4.97953-2.87494,9.03175-0.5657,9.04797,5.15614l-9.01859,5.20689
						L112.94079,82.71865z"/><path fill="#6EBA6E" d="M111.38403,85.42478l0.02936,10.35339l9.01859-5.20689
						c0.01622,5.72188-4.00969,12.69502-8.98922,15.56996c-4.97954,2.87494-9.03175,0.5657-9.04797-5.15618
						C102.37856,95.26318,106.40449,88.29972,111.38403,85.42478z"/><path fill="#748BFD" d="M98.37907,113.08688c0,0.29346-0.20413,0.65079-0.45935,0.80391l-9.36608,5.41035
					c-0.25514,0.14034-0.45935,0.02554-0.45935-0.28077l-0.06379-21.98594c0-0.29346,0.20413-0.65079,0.45935-0.79114
					l9.35331-5.41035c0.268-0.15311,0.47213-0.03831,0.47213,0.268L98.37907,113.08688z"/><polygon fill="#FFF" points="96.906 108.348 96.908 108.821 89.527 113.083 89.525 112.61"/><polygon fill="#FFF" points="96.896 104.575 96.897 105.058 89.516 109.319 89.515 108.837"/><polygon fill="#FFF" points="96.88 98.921 96.881 99.404 89.5 103.665 89.499 103.183"/><polygon fill="#FFF" points="96.869 95.158 96.87 95.631 89.489 99.892 89.488 99.42"/><polygon fill="#FFF" points="96.864 93.267 96.865 93.749 89.484 98.011 89.483 97.528"/><polygon fill="#FFF" points="96.917 112.111 96.919 112.594 89.537 116.855 89.536 116.373"/><polygon fill="#FFF" points="96.912 110.23 96.913 110.712 89.532 114.974 89.531 114.491"/><polygon fill="#FFF" points="96.901 106.457 96.903 106.94 89.521 111.201 89.52 110.719"/><polygon fill="#FFF" points="96.89 102.694 96.892 103.176 89.511 107.438 89.509 106.955"/><polygon fill="#FFF" points="96.885 100.803 96.886 101.285 89.505 105.547 89.504 105.064"/><polygon fill="#FFF" points="96.874 97.04 96.876 97.522 89.495 101.784 89.493 101.301"/></g></svg>