<?xml version="1.0" encoding="UTF-8"?><svg id="Layer_2" xmlns="http://www.w3.org/2000/svg" xmlns:xlink="http://www.w3.org/1999/xlink" viewBox="0 0 8000 4000"><defs><style>.cls-1{fill:#07080d;}.cls-1,.cls-2,.cls-3{stroke-width:0px;}.cls-4{stroke-width:1.9px;}.cls-4,.cls-5,.cls-3,.cls-6{fill:#fff;}.cls-4,.cls-5,.cls-6{stroke:#fff;stroke-miterlimit:10;}.cls-7{clip-path:url(#clippath);}.cls-2{fill:none;}.cls-5{stroke-width:.63px;}</style><clipPath id="clippath"><rect class="cls-2" width="8000" height="4000"/></clipPath></defs><g id="Layer_1-2"><g class="cls-7"><rect class="cls-1" width="8000" height="4000"/><path class="cls-3" d="M4587.46,2704.48c51.35-42.97,98.21-91.37,139.04-144.46,20.45-26.51,39.47-54.11,56.95-82.66,17.48-28.55,33.27-58.12,47.49-88.41,14.2-30.3,26.76-61.37,37.58-93.03,10.83-31.66,19.77-63.96,27.02-96.62,14.46-65.35,21.73-132.28,21.77-199.3,15.6,7.95,31.21,16.31,46.79,25.06,15.38,8.75,30.77,17.9,46.09,27.45-3.34,64.94-12.93,129.61-28.67,192.76-15.73,63.15-37.63,124.77-65.27,183.69-27.63,58.92-60.98,115.14-99.38,167.63-38.4,52.5-81.86,101.29-129.57,145.5l-12.76-4.22-6.34-2.15-6.36-2.23c-8.46-2.99-16.85-6.04-25.16-9.17l-12.41-4.73c-4.11-1.59-8.27-3.27-12.37-4.93-8.22-3.33-16.37-6.73-24.43-10.19Z"/><path class="cls-3" d="M4437.27,2857.4c48.96-25.1,95.78-54.35,139.82-87.33,44-33.04,85.11-69.88,122.91-109.86l-32.7-30.85c-36.04,38.11-75.25,73.25-117.2,104.75-41.99,31.44-86.63,59.32-133.29,83.25l20.46,40.03Z"/><path class="cls-3" d="M4320.32,2859.78l15.45-5.87,15.31-6.24c2.54-1.06,5.12-2.04,7.64-3.17l7.57-3.32,7.57-3.31,3.79-1.66,3.74-1.75,19.61,42.84-3.94,1.84-3.98,1.75-7.97,3.48-7.96,3.48c-2.65,1.18-5.36,2.22-8.03,3.33l-16.1,6.56-16.25,6.18-16.45-44.15Z"/><path class="cls-3" d="M4000,2917.31c94.57.05,188.99-14.49,278.94-43.23l14.31,44.89c-5.88,1.98-11.85,3.7-17.8,5.47-5.95,1.76-11.88,3.59-17.89,5.15-6,1.61-11.97,3.28-17.98,4.83l-18.09,4.41c-24.19,5.6-48.56,10.41-73.09,14.23-24.55,3.71-49.23,6.55-73.98,8.53-24.77,1.79-49.59,2.72-74.42,2.83v-47.11Z"/><path class="cls-3" d="M4046.58,2931.67c64.97-3.14,129.56-13.16,192.39-29.78l14.68,55.55-4.95,4.08-5.02,3.96-10.13,7.92c-6.78,5.37-13.72,10.39-20.72,15.54l-7.58,1.65c-2.53.56-5.08,1-7.62,1.5l-15.25,2.92-3.81.72-3.83.64-7.66,1.27c-5.11.82-10.2,1.74-15.32,2.48l-15.37,2.15-7.69,1.07-7.71.88-15.42,1.76c-5.14.57-10.3.95-15.45,1.43l-10.32-4.4c-3.42-1.43-6.84-3.07-10.23-4.59-6.79-3.12-13.51-6.18-20.17-9.37l-2.82-57.39Z"/><path class="cls-3" d="M3295.52,2587.46c42.97,51.35,91.37,98.21,144.46,139.04,26.51,20.45,54.11,39.47,82.66,56.95,28.55,17.49,58.12,33.27,88.41,47.49,30.3,14.2,61.37,26.76,93.03,37.58,31.66,10.83,63.96,19.77,96.62,27.02,65.35,14.46,132.28,21.73,199.3,21.77-7.95,15.6-16.31,31.21-25.06,46.79-8.75,15.38-17.9,30.77-27.45,46.09-64.94-3.34-129.61-12.93-192.76-28.67-63.15-15.73-124.77-37.63-183.69-65.27-58.92-27.63-115.13-60.98-167.63-99.38-52.5-38.4-101.29-81.86-145.5-129.57l4.22-12.76,2.15-6.34,2.23-6.36c2.99-8.46,6.04-16.85,9.17-25.16l4.73-12.41c1.59-4.11,3.27-8.27,4.93-12.37,3.33-8.22,6.73-16.37,10.19-24.43Z"/><path class="cls-3" d="M3142.6,2437.27c25.1,48.96,54.35,95.78,87.33,139.82,33.04,44,69.88,85.11,109.86,122.91l30.85-32.7c-38.11-36.04-73.25-75.25-104.75-117.2-31.44-41.99-59.32-86.63-83.25-133.29l-40.03,20.46Z"/><path class="cls-3" d="M3140.22,2320.32l5.87,15.45,6.24,15.31c1.06,2.54,2.04,5.12,3.17,7.64l3.32,7.57,3.31,7.57,1.66,3.79,1.75,3.74-42.84,19.61-1.84-3.94-1.75-3.98-3.48-7.97-3.48-7.97c-1.18-2.65-2.22-5.36-3.33-8.03l-6.56-16.1-6.18-16.25,44.15-16.45Z"/><path class="cls-3" d="M3082.69,2000c-.05,94.57,14.49,188.99,43.23,278.94l-44.89,14.31c-1.98-5.88-3.7-11.85-5.47-17.8-1.76-5.95-3.59-11.88-5.15-17.89-1.61-6-3.28-11.97-4.83-17.98l-4.41-18.09c-5.6-24.19-10.41-48.56-14.23-73.09-3.71-24.55-6.55-49.23-8.53-73.98-1.79-24.77-2.72-49.59-2.83-74.42h47.11Z"/><path class="cls-3" d="M3068.33,2046.58c3.14,64.97,13.16,129.56,29.78,192.39l-55.55,14.68-4.08-4.95-3.96-5.02-7.92-10.13c-5.37-6.78-10.39-13.72-15.54-20.72l-1.65-7.58c-.56-2.53-1-5.08-1.5-7.62l-2.92-15.25-.72-3.81-.64-3.83-1.27-7.66c-.82-5.11-1.74-10.2-2.48-15.32l-2.15-15.37-1.07-7.69-.88-7.71-1.76-15.42c-.57-5.14-.95-10.3-1.43-15.45l4.4-10.32c1.43-3.42,3.07-6.84,4.59-10.23,3.12-6.79,6.18-13.51,9.37-20.17l57.39-2.82Z"/><path class="cls-3" d="M3412.54,1295.52c-51.35,42.97-98.21,91.37-139.04,144.46-20.45,26.51-39.47,54.11-56.95,82.66-17.49,28.55-33.27,58.12-47.49,88.41-14.2,30.3-26.76,61.37-37.58,93.03-10.83,31.66-19.77,63.96-27.02,96.62-14.46,65.35-21.73,132.28-21.77,199.3-15.6-7.95-31.21-16.31-46.79-25.06-15.38-8.75-30.77-17.9-46.09-27.45,3.34-64.94,12.93-129.61,28.67-192.76,15.73-63.15,37.63-124.77,65.27-183.69,27.63-58.92,60.98-115.14,99.38-167.63,38.4-52.5,81.86-101.29,129.57-145.5l12.76,4.22,6.34,2.15,6.36,2.23c8.46,2.99,16.85,6.04,25.16,9.17l12.41,4.73c4.11,1.59,8.27,3.27,12.37,4.93,8.22,3.33,16.37,6.73,24.43,10.19Z"/><path class="cls-3" d="M3562.73,1142.6c-48.96,25.1-95.78,54.35-139.82,87.33-44,33.04-85.11,69.88-122.91,109.86l32.7,30.85c36.04-38.11,75.25-73.25,117.2-104.75,41.99-31.44,86.63-59.32,133.29-83.25l-20.46-40.03Z"/><path class="cls-3" d="M3679.68,1140.22l-15.45,5.87-15.31,6.24c-2.54,1.06-5.12,2.04-7.64,3.17l-7.57,3.32-7.57,3.31-3.79,1.66-3.74,1.75-19.61-42.84,3.94-1.84,3.98-1.75,7.97-3.48,7.97-3.48c2.65-1.18,5.36-2.22,8.03-3.33l16.1-6.56,16.25-6.18,16.45,44.15Z"/><path class="cls-3" d="M4000,1082.69c-94.57-.05-188.99,14.49-278.94,43.23l-14.31-44.89c5.88-1.98,11.85-3.7,17.8-5.47,5.95-1.76,11.88-3.59,17.89-5.15,6-1.61,11.97-3.28,17.98-4.83l18.09-4.41c24.19-5.6,48.56-10.41,73.09-14.23,24.55-3.71,49.23-6.55,73.98-8.53,24.77-1.79,49.59-2.72,74.42-2.83v47.11Z"/><path class="cls-3" d="M3953.42,1068.33c-64.97,3.14-129.56,13.16-192.39,29.78l-14.68-55.55,4.95-4.08,5.02-3.96,10.13-7.92c6.78-5.37,13.72-10.39,20.72-15.54l7.58-1.65c2.53-.56,5.08-1,7.62-1.5l15.25-2.92,3.81-.72,3.83-.64,7.66-1.27c5.11-.82,10.2-1.74,15.32-2.48l15.37-2.15,7.69-1.07,7.71-.88,15.42-1.76c5.14-.57,10.3-.95,15.45-1.43l10.32,4.4c3.42,1.43,6.84,3.07,10.23,4.59,6.79,3.12,13.51,6.18,20.17,9.37l2.82,57.39Z"/><path class="cls-3" d="M4704.48,1412.54c-42.97-51.35-91.37-98.21-144.46-139.04-26.51-20.45-54.11-39.47-82.66-56.95-28.55-17.49-58.12-33.27-88.41-47.49-30.3-14.2-61.37-26.76-93.03-37.58-31.66-10.83-63.96-19.77-96.62-27.02-65.35-14.46-132.28-21.73-199.3-21.77,7.95-15.6,16.31-31.21,25.06-46.79,8.75-15.38,17.9-30.77,27.45-46.09,64.94,3.34,129.61,12.93,192.76,28.67,63.15,15.73,124.77,37.63,183.69,65.27,58.92,27.63,115.14,60.98,167.63,99.38,52.5,38.4,101.29,81.86,145.5,129.57l-4.22,12.76-2.15,6.34-2.23,6.36c-2.99,8.46-6.04,16.85-9.17,25.16l-4.73,12.41c-1.59,4.11-3.27,8.27-4.93,12.37-3.33,8.22-6.73,16.37-10.19,24.43Z"/><path class="cls-3" d="M4857.4,1562.73c-25.1-48.96-54.35-95.78-87.33-139.82-33.04-44-69.88-85.11-109.86-122.91l-30.85,32.7c38.11,36.04,73.25,75.25,104.75,117.2,31.44,41.99,59.32,86.63,83.25,133.29l40.04-20.46Z"/><path class="cls-3" d="M4859.78,1679.68l-5.87-15.45-6.24-15.31c-1.06-2.54-2.04-5.12-3.17-7.64l-3.32-7.57-3.31-7.57-1.66-3.79-1.75-3.74,42.84-19.61,1.84,3.94,1.75,3.98,3.48,7.97,3.48,7.97c1.18,2.65,2.22,5.36,3.33,8.03l6.56,16.1,6.18,16.25-44.15,16.45Z"/><path class="cls-3" d="M4917.31,2000c.05-94.57-14.49-188.99-43.23-278.94l44.89-14.31c1.98,5.88,3.7,11.85,5.47,17.8,1.76,5.95,3.59,11.88,5.15,17.89,1.61,6,3.28,11.97,4.83,17.98l4.41,18.09c5.6,24.19,10.41,48.56,14.23,73.09,3.71,24.55,6.55,49.23,8.53,73.98,1.79,24.77,2.72,49.59,2.83,74.42h-47.11Z"/><path class="cls-3" d="M4931.67,1953.42c-3.14-64.97-13.16-129.56-29.78-192.39l55.55-14.68,4.08,4.95,3.96,5.02,7.92,10.13c5.37,6.78,10.39,13.72,15.54,20.72l1.65,7.58c.56,2.53,1,5.08,1.5,7.62l2.92,15.25.72,3.81.64,3.83,1.27,7.66c.82,5.11,1.74,10.2,2.48,15.32l2.15,15.37,1.07,7.69.88,7.71,1.76,15.42c.57,5.14.95,10.3,1.43,15.45l-4.4,10.32c-1.43,3.42-3.07,6.84-4.59,10.23-3.12,6.79-6.18,13.51-9.37,20.17l-57.39,2.82Z"/><path class="cls-3" d="M4000,2532.13c-71.83,0-141.52-14.07-207.13-41.82-63.37-26.8-120.28-65.17-169.14-114.04-48.87-48.87-87.23-105.77-114.04-169.14-27.75-65.61-41.82-135.3-41.82-207.13s14.07-141.52,41.82-207.13c26.8-63.37,65.17-120.28,114.04-169.14,48.87-48.87,105.77-87.23,169.14-114.04,65.61-27.75,135.3-41.82,207.13-41.82s141.52,14.07,207.13,41.82c63.37,26.8,120.27,65.17,169.14,114.04,48.87,48.87,87.23,105.77,114.04,169.14,27.75,65.61,41.82,135.3,41.82,207.13s-14.07,141.52-41.82,207.13c-26.8,63.37-65.17,120.27-114.04,169.14-48.87,48.87-105.77,87.23-169.14,114.04-65.61,27.75-135.3,41.82-207.13,41.82ZM4000,1495.16c-278.37,0-504.84,226.47-504.84,504.84s226.47,504.84,504.84,504.84,504.84-226.47,504.84-504.84-226.47-504.84-504.84-504.84Z"/><path class="cls-6" d="M2634.11,2386.6c8.02,29.05,17.39,57.7,27.24,86.17l7.72,21.24,1.93,5.31.97,2.65,1.03,2.63,4.12,10.52c2.77,7.01,5.44,14.05,8.29,21.02l8.75,20.84c1.47,3.47,2.89,6.96,4.41,10.4l4.63,10.31,9.28,20.61,9.76,20.38,4.89,10.19,5.13,10.07,10.27,20.13c3.54,6.65,7.16,13.26,10.73,19.89l5.38,9.94c1.78,3.32,3.72,6.55,5.58,9.83l11.25,19.6c1.84,3.29,3.86,6.47,5.79,9.7l5.87,9.66,5.87,9.66c.99,1.6,1.94,3.23,2.96,4.81l3.05,4.75,12.22,19.01,3.06,4.75,3.16,4.68,6.34,9.35c16.73,25.07,34.72,49.25,52.95,73.23,37.02,47.54,76.92,92.8,119.39,135.48l33.4-33.39c-41.08-41.29-79.67-85.06-115.46-131.02-17.62-23.19-35.02-46.56-51.18-70.79l-6.13-9.04-3.06-4.52-2.95-4.59-11.81-18.38-2.95-4.59c-.99-1.53-1.9-3.1-2.86-4.65l-5.67-9.33-5.67-9.33c-1.87-3.12-3.83-6.2-5.6-9.37l-10.87-18.94c-1.79-3.17-3.67-6.29-5.39-9.5l-5.2-9.6c-3.46-6.41-6.96-12.79-10.38-19.22l-9.92-19.46-4.96-9.73-4.72-9.85-9.44-19.7-8.96-19.92-4.47-9.96c-1.47-3.33-2.84-6.71-4.26-10.06l-8.46-20.14c-2.75-6.74-5.33-13.55-8.01-20.32l-3.98-10.17-1-2.54-.93-2.57-1.86-5.13-7.46-20.53c-9.51-27.52-18.58-55.21-26.33-83.29l-45.45,12.82Z"/><path class="cls-6" d="M2616.06,1684.31l-2.54,11.01-2.29,11.06-4.56,22.13-4.04,22.23-2.01,11.12-1.77,11.16-3.49,22.32-2.98,22.39-1.48,11.2c-.46,3.74-.82,7.48-1.24,11.23l-2.42,22.46c-.69,7.5-1.28,15.01-1.92,22.51l-.94,11.26c-.3,3.75-.47,7.51-.71,11.27l-1.34,22.55c-.35,7.52-.57,15.05-.85,22.57l-.4,11.29c-.13,3.76-.12,7.53-.18,11.29l-.27,22.59c0,7.53.15,15.06.22,22.59l.14,11.29c.03,3.77.24,7.53.35,11.29l.81,22.58c.34,7.52.86,15.03,1.29,22.55l.68,11.27c.19,3.76.59,7.51.88,11.26l1.89,22.51c3.01,29.97,6.46,59.91,11.35,89.63,9.24,59.54,22.72,118.39,39.46,176.26l45.33-13.24c-16.18-55.95-29.22-112.84-38.14-170.4-4.74-28.74-8.06-57.69-10.98-86.66l-1.82-21.77c-.28-3.63-.67-7.25-.85-10.89l-.65-10.9c-.41-7.27-.92-14.53-1.25-21.81l-.78-21.83c-.11-3.64-.31-7.27-.34-10.92l-.13-10.92c-.07-7.28-.22-14.56-.21-21.84l.26-21.84c.06-3.64.04-7.28.17-10.92l.39-10.91c.28-7.28.48-14.55.82-21.83l1.3-21.8c.23-3.63.4-7.27.69-10.9l.91-10.88c.62-7.25,1.18-14.51,1.85-21.76l2.34-21.72c.4-3.62.75-7.24,1.2-10.86l1.43-10.83,2.88-21.65,3.38-21.58,1.71-10.79,1.95-10.75,3.9-21.49,4.41-21.39,2.21-10.7,2.46-10.64-46.05-10.46Z"/><path class="cls-6" d="M2660.75,2299.37c35.77,161.36,101.34,316,192.13,454.08-17.15,2.43-34.44,4.64-51.87,6.63-8.7.99-17.48,1.95-26.22,2.81-8.7.84-17.44,1.62-26.21,2.35-75.81-123.66-132.91-258.77-168.92-399.2,6.64-5.79,13.3-11.52,19.97-17.19l10.03-8.46,10.17-8.39c13.58-11.13,27.22-22.01,40.92-32.64Z"/><path class="cls-6" d="M2632.39,2111.11c-6.64-82.36-5.89-165.31,2.24-247.54,8.06-82.24,23.78-163.71,46.56-243.13,13.12,11.47,26.29,22.68,39.57,33.66,13.42,11.02,26.91,21.79,40.46,32.32-30.9,122.46-43.57,249.58-37.43,375.8-15.31,7.65-30.61,15.55-45.89,23.7-7.63,4.08-15.31,8.22-22.88,12.42-7.55,4.2-15.09,8.46-22.62,12.78Z"/><path class="cls-6" d="M2932.76,1064.31c-59.68,67.93-112.94,141.57-158.64,219.66-45.71,78.08-83.88,160.59-113.76,245.98l44.57,15.61c28.88-82.54,65.77-162.28,109.95-237.74,44.17-75.47,95.64-146.65,153.35-212.34l-35.48-31.17Z"/><path class="cls-6" d="M2801,1309.71c30.08-52.55,64.05-102.82,100.79-150.93l3.42-4.53,3.53-4.44,7.06-8.89,7.06-8.89,3.53-4.44c1.18-1.48,2.42-2.91,3.63-4.37,9.74-11.58,19.3-23.32,29.43-34.57l7.5-8.52,3.75-4.26c1.24-1.42,2.5-2.84,3.8-4.22l15.43-16.65c2.58-2.77,5.13-5.57,7.73-8.31l7.92-8.13,15.85-16.25c8.61,23.94,17.6,47.5,26.95,70.68-65.3,68.34-123.06,143.73-172.15,224.38-12.45-1.54-24.97-2.97-37.56-4.28-12.55-1.29-25.04-2.38-37.67-3.4Z"/><path class="cls-6" d="M5365.89,1613.4c-8.02-29.05-17.39-57.7-27.24-86.17l-7.72-21.24-1.93-5.31-.97-2.65-1.03-2.63-4.12-10.52c-2.77-7.01-5.44-14.05-8.29-21.02l-8.75-20.84c-1.47-3.47-2.89-6.96-4.41-10.4l-4.63-10.31-9.28-20.61-9.76-20.38-4.88-10.19-5.13-10.07-10.27-20.13c-3.54-6.65-7.16-13.26-10.73-19.89l-5.38-9.94c-1.78-3.32-3.72-6.55-5.58-9.83l-11.25-19.6c-1.84-3.29-3.86-6.47-5.79-9.7l-5.87-9.66-5.87-9.66c-.99-1.6-1.94-3.23-2.96-4.81l-3.05-4.75-12.22-19.01-3.06-4.75-3.16-4.68-6.34-9.35c-16.73-25.07-34.72-49.25-52.95-73.23-37.02-47.54-76.92-92.8-119.39-135.48l-33.4,33.39c41.08,41.29,79.67,85.06,115.46,131.02,17.62,23.19,35.02,46.56,51.18,70.79l6.13,9.04,3.06,4.52,2.95,4.59,11.81,18.38,2.95,4.59c.99,1.53,1.9,3.1,2.86,4.65l5.67,9.33,5.67,9.33c1.88,3.12,3.83,6.2,5.6,9.37l10.87,18.94c1.79,3.17,3.67,6.29,5.39,9.5l5.2,9.6c3.46,6.41,6.96,12.79,10.38,19.22l9.92,19.46,4.96,9.73,4.72,9.85,9.44,19.7,8.96,19.92,4.47,9.96c1.48,3.33,2.84,6.71,4.26,10.06l8.46,20.14c2.75,6.74,5.33,13.55,8.01,20.32l3.98,10.17.99,2.54.93,2.57,1.87,5.13,7.46,20.53c9.51,27.52,18.58,55.21,26.33,83.29l45.45-12.82Z"/><path class="cls-6" d="M5383.94,2315.69l2.54-11.01,2.29-11.06,4.56-22.13,4.04-22.23,2.01-11.12,1.77-11.16,3.49-22.32,2.98-22.39,1.48-11.2c.46-3.74.82-7.48,1.24-11.23l2.42-22.46c.69-7.5,1.28-15.01,1.92-22.51l.94-11.26c.3-3.75.47-7.52.71-11.27l1.34-22.55c.35-7.52.57-15.05.85-22.57l.4-11.29c.13-3.76.12-7.53.18-11.29l.27-22.59c0-7.53-.15-15.06-.22-22.59l-.14-11.29c-.03-3.77-.24-7.53-.35-11.29l-.81-22.58c-.34-7.52-.86-15.04-1.29-22.55l-.68-11.27c-.19-3.76-.59-7.51-.88-11.26l-1.89-22.51c-3.01-29.97-6.46-59.91-11.35-89.63-9.24-59.54-22.72-118.39-39.46-176.26l-45.33,13.24c16.18,55.95,29.22,112.84,38.14,170.4,4.74,28.74,8.06,57.69,10.98,86.66l1.82,21.77c.28,3.63.67,7.25.85,10.89l.65,10.9c.41,7.27.92,14.53,1.25,21.81l.78,21.83c.11,3.64.31,7.27.34,10.92l.13,10.92c.07,7.28.22,14.56.21,21.84l-.26,21.84c-.06,3.64-.04,7.28-.17,10.92l-.39,10.91c-.28,7.28-.48,14.55-.82,21.83l-1.3,21.8c-.23,3.63-.4,7.27-.69,10.9l-.91,10.88c-.62,7.25-1.18,14.51-1.85,21.76l-2.34,21.72c-.4,3.62-.75,7.24-1.2,10.86l-1.43,10.83-2.88,21.65-3.38,21.58-1.71,10.79-1.95,10.75-3.9,21.49-4.41,21.39-2.21,10.7-2.46,10.64,46.05,10.46Z"/><path class="cls-6" d="M5339.25,1700.63c-35.77-161.36-101.34-316-192.13-454.08,17.15-2.43,34.44-4.64,51.87-6.63,8.7-.99,17.48-1.95,26.22-2.81,8.7-.84,17.44-1.62,26.21-2.35,75.81,123.66,132.91,258.77,168.92,399.2-6.64,5.79-13.29,11.52-19.97,17.19l-10.03,8.46-10.17,8.39c-13.58,11.13-27.22,22.01-40.92,32.64Z"/><path class="cls-6" d="M5367.61,1888.89c6.64,82.36,5.89,165.31-2.24,247.54-8.06,82.24-23.78,163.71-46.56,243.13-13.12-11.47-26.29-22.68-39.57-33.66-13.42-11.02-26.91-21.79-40.46-32.32,30.9-122.46,43.56-249.58,37.43-375.8,15.31-7.65,30.6-15.55,45.89-23.7,7.63-4.08,15.31-8.22,22.88-12.42,7.55-4.2,15.09-8.46,22.62-12.78Z"/><path class="cls-6" d="M5067.24,2935.69c59.68-67.93,112.94-141.57,158.64-219.66,45.71-78.08,83.88-160.59,113.76-245.98l-44.57-15.61c-28.88,82.54-65.77,162.28-109.95,237.74-44.17,75.47-95.64,146.65-153.35,212.34l35.48,31.17Z"/><path class="cls-6" d="M5199,2690.29c-30.08,52.55-64.05,102.82-100.79,150.93l-3.42,4.53-3.53,4.44-7.06,8.89-7.06,8.89-3.53,4.44c-1.18,1.48-2.42,2.91-3.63,4.37-9.75,11.58-19.3,23.32-29.43,34.57l-7.5,8.52-3.75,4.26c-1.25,1.42-2.5,2.84-3.8,4.22l-15.43,16.65c-2.58,2.77-5.13,5.57-7.73,8.31l-7.92,8.13-15.85,16.25c-8.61-23.94-17.6-47.5-26.95-70.68,65.3-68.34,123.06-143.73,172.15-224.38,12.45,1.54,24.97,2.97,37.56,4.28,12.55,1.29,25.04,2.38,37.67,3.4Z"/><path class="cls-3" d="M4000.18,2842.5h-.18c-1.7,0-3.4,0-5.09-.02l.53-87c1.52,0,3.04.01,4.56.01h.18v87ZM4018.11,2842.31l-1.84-86.98c1.58-.03,3.16-.07,4.73-.11l2.35,86.97c-1.75.05-3.5.09-5.25.13ZM3976.99,2842.19c-1.76-.05-3.52-.1-5.28-.16l2.91-86.95c1.57.05,3.15.1,4.72.14l-2.34,86.97ZM4041.27,2841.51l-4.17-86.9c1.57-.08,3.14-.16,4.72-.24l4.74,86.87c-1.76.1-3.52.19-5.28.27ZM3953.82,2841.25c-1.76-.09-3.52-.2-5.28-.3l5.25-86.84c1.57.09,3.14.19,4.71.27l-4.68,86.87ZM4064.44,2840.07l-6.57-86.75c1.58-.12,3.16-.24,4.73-.37l7.08,86.71c-1.75.14-3.5.28-5.25.41ZM3930.66,2839.69c-1.76-.14-3.51-.29-5.27-.45l7.64-86.66c1.57.14,3.13.27,4.7.4l-7.08,86.71ZM4087.54,2838l-8.91-86.54c1.56-.16,3.13-.33,4.69-.5l9.48,86.48c-1.75.19-3.51.38-5.26.56ZM3907.55,2837.48c-1.75-.19-3.49-.39-5.23-.59l9.99-86.43c1.57.18,3.14.36,4.71.53l-9.47,86.48ZM4110.58,2835.3l-11.25-86.27c1.55-.2,3.1-.41,4.65-.62l11.88,86.19c-1.76.24-3.51.48-5.27.71ZM3884.52,2834.65c-1.76-.24-3.51-.49-5.27-.74l12.43-86.11c1.55.22,3.09.44,4.64.65l-11.81,86.2ZM4133.61,2831.96l-13.74-85.91c1.57-.25,3.14-.51,4.7-.76l14.22,85.83c-1.72.29-3.45.57-5.18.84ZM3861.56,2831.17c-1.73-.29-3.46-.58-5.2-.88l14.72-85.75c1.56.27,3.12.53,4.68.79l-14.2,85.83ZM4156.46,2827.99l-16.04-85.51c1.54-.29,3.09-.58,4.63-.89l16.61,85.4c-1.73.34-3.46.67-5.2.99ZM3838.72,2827.07c-1.73-.33-3.45-.67-5.17-1.02l17.07-85.31c1.55.31,3.1.62,4.65.92l-16.54,85.41ZM4179.23,2823.39l-18.42-85.03c1.54-.33,3.08-.67,4.62-1.02l18.96,84.91c-1.72.38-3.44.76-5.16,1.13ZM3815.97,2822.33c-1.71-.38-3.41-.77-5.12-1.16l19.41-84.81c1.55.35,3.09.7,4.64,1.05l-18.94,84.91ZM4201.88,2818.15l-20.82-84.47c1.54-.38,3.08-.76,4.62-1.15l21.29,84.35c-1.7.43-3.39.85-5.09,1.27ZM3793.37,2816.96c-1.71-.43-3.41-.87-5.11-1.31l21.8-84.22c1.53.4,3.06.79,4.59,1.17l-21.28,84.36ZM4224.32,2812.29l-23.11-83.88c1.52-.42,3.04-.84,4.55-1.27l23.64,83.72c-1.69.48-3.39.95-5.09,1.42ZM3770.93,2810.97c-1.69-.48-3.38-.96-5.06-1.44l24.11-83.59c1.52.44,3.04.87,4.57,1.3l-23.62,83.73ZM4246.61,2805.82l-25.4-83.21c1.5-.46,3-.92,4.49-1.39l25.98,83.03c-1.69.53-3.38,1.05-5.07,1.57ZM3748.68,2804.37c-1.69-.53-3.37-1.06-5.05-1.59l26.42-82.89c1.51.48,3.02.96,4.53,1.43l-25.9,83.05ZM4268.73,2798.72l-27.7-82.47c1.49-.5,2.97-1,4.45-1.51l28.28,82.28c-1.67.58-3.35,1.15-5.03,1.71ZM3726.51,2797.1c-1.67-.57-3.33-1.15-4.99-1.73l28.73-82.12c1.5.52,3,1.05,4.5,1.56l-28.24,82.29ZM4290.67,2791l-30.03-81.65c1.49-.55,2.97-1.1,4.45-1.65l30.52,81.47c-1.64.62-3.29,1.23-4.93,1.83ZM3704.56,2789.23c-1.66-.62-3.31-1.25-4.96-1.88l31.06-81.27c1.48.56,2.95,1.12,4.44,1.68l-30.53,81.47ZM4312.34,2782.69l-32.28-80.79c1.47-.59,2.94-1.18,4.4-1.77l32.76,80.6c-1.62.66-3.25,1.32-4.88,1.97ZM3682.86,2780.76c-1.63-.66-3.26-1.33-4.89-2.01l33.26-80.39c1.46.61,2.93,1.21,4.4,1.81l-32.77,80.59ZM4333.74,2773.8l-34.51-79.86c1.45-.62,2.89-1.25,4.33-1.89l34.99,79.65c-1.6.7-3.2,1.4-4.81,2.09ZM3661.42,2771.69c-1.62-.71-3.23-1.43-4.84-2.15l35.49-79.43c1.44.64,2.89,1.28,4.34,1.92l-34.98,79.66ZM4354.85,2764.34l-36.71-78.88c1.43-.66,2.85-1.33,4.28-2l37.18,78.66c-1.58.75-3.17,1.49-4.75,2.23ZM3640.24,2762.03c-1.6-.76-3.2-1.52-4.79-2.28l37.69-78.41c1.42.68,2.84,1.36,4.27,2.03l-37.17,78.66ZM4375.69,2754.29l-38.85-77.85c1.41-.7,2.82-1.41,4.22-2.12l39.32,77.61c-1.56.79-3.12,1.58-4.69,2.36ZM3619.32,2751.79c-1.57-.8-3.14-1.6-4.7-2.41l39.84-77.34c1.41.72,2.82,1.45,4.23,2.16l-39.36,77.59ZM4396.25,2743.68l-40.94-76.77c1.38-.74,2.76-1.48,4.14-2.23l41.44,76.5c-1.55.84-3.09,1.67-4.64,2.5ZM3598.72,2740.97c-1.55-.84-3.09-1.69-4.64-2.54l41.98-76.2c1.39.76,2.77,1.52,4.17,2.28l-41.51,76.46ZM4416.54,2732.48l-43.08-75.59c1.37-.78,2.73-1.56,4.1-2.35l43.54,75.32c-1.52.88-3.04,1.75-4.56,2.62ZM3578.43,2729.59c-1.53-.88-3.05-1.77-4.57-2.67l44.09-75c1.36.8,2.72,1.59,4.09,2.38l-43.6,75.29ZM4436.53,2720.73l-45.19-74.34c1.35-.82,2.71-1.65,4.05-2.48l45.6,74.09c-1.49.91-2.97,1.82-4.46,2.73ZM3558.47,2717.67c-1.5-.92-2.99-1.85-4.49-2.79l46.11-73.77c1.34.84,2.69,1.67,4.03,2.5l-45.66,74.06ZM4456.13,2708.46l-47.15-73.12c1.32-.85,2.63-1.7,3.94-2.56l47.63,72.8c-1.47.96-2.95,1.92-4.43,2.88ZM3538.84,2705.19c-1.47-.96-2.94-1.93-4.4-2.9l48.13-72.47c1.32.88,2.64,1.75,3.97,2.62l-47.69,72.76ZM4475.42,2695.64l-49.1-71.82c1.29-.88,2.57-1.77,3.86-2.66l49.62,71.46c-1.45,1.01-2.91,2.01-4.37,3.01ZM3519.59,2692.2c-1.45-1.01-2.89-2.02-4.34-3.04l50.11-71.12c1.29.91,2.58,1.81,3.87,2.71l-49.65,71.44ZM4494.37,2682.27l-51.08-70.42c1.27-.92,2.54-1.85,3.81-2.78l51.53,70.1c-1.42,1.04-2.84,2.08-4.26,3.11ZM3500.7,2678.67c-1.42-1.05-2.84-2.1-4.25-3.15l52.05-69.71c1.26.94,2.53,1.88,3.8,2.82l-51.6,70.05ZM4512.94,2668.41l-52.99-69c1.24-.96,2.49-1.92,3.72-2.88l53.45,68.65c-1.39,1.08-2.78,2.16-4.18,3.24ZM3482.18,2664.62c-1.38-1.08-2.76-2.16-4.14-3.25l53.92-68.28c1.24.98,2.49,1.96,3.74,2.94l-53.53,68.59ZM4531.15,2654.01l-54.9-67.49c1.23-1,2.45-2,3.67-3.01l55.29,67.17c-1.35,1.11-2.71,2.22-4.06,3.32ZM3464.07,2650.09c-1.35-1.11-2.7-2.23-4.04-3.35l55.76-66.78c1.22,1.02,2.44,2.03,3.67,3.04l-55.39,67.09ZM4548.94,2639.13l-56.73-65.96c1.2-1.03,2.4-2.07,3.59-3.11l57.11,65.63c-1.32,1.15-2.64,2.29-3.97,3.44ZM3446.37,2635.08c-1.33-1.16-2.66-2.32-3.98-3.49l57.62-65.18c1.18,1.04,2.36,2.08,3.54,3.11l-57.19,65.56ZM4566.3,2623.8l-58.46-64.43c1.16-1.05,2.31-2.11,3.46-3.17l58.92,64.01c-1.3,1.2-2.61,2.39-3.92,3.58ZM3429.08,2619.57c-1.3-1.19-2.59-2.39-3.87-3.59l59.38-63.58c1.15,1.07,2.31,2.15,3.46,3.21l-58.97,63.96ZM4583.26,2607.96l-60.23-62.78c1.14-1.09,2.27-2.19,3.4-3.29l60.62,62.4c-1.26,1.23-2.53,2.45-3.79,3.66ZM3412.23,2603.6c-1.25-1.22-2.51-2.45-3.75-3.68l61.07-61.96c1.13,1.11,2.26,2.22,3.39,3.33l-60.71,62.31ZM4599.82,2591.63l-62-61.03c1.12-1.14,2.24-2.28,3.35-3.42l62.3,60.72c-1.21,1.25-2.43,2.49-3.65,3.73ZM3395.84,2587.2c-1.23-1.26-2.45-2.53-3.67-3.8l62.77-60.24c1.09,1.14,2.18,2.27,3.28,3.4l-62.38,60.65ZM4615.85,2574.92l-63.57-59.39c1.07-1.15,2.14-2.3,3.21-3.46l63.96,58.97c-1.2,1.3-2.4,2.59-3.6,3.88ZM3379.9,2570.34c-1.19-1.29-2.38-2.59-3.56-3.89l64.38-58.52c1.06,1.17,2.12,2.33,3.19,3.49l-64.01,58.92ZM4631.47,2557.73l-65.2-57.61c1.05-1.19,2.09-2.38,3.14-3.57l65.53,57.23c-1.15,1.32-2.31,2.64-3.47,3.95ZM3364.42,2553.05c-1.16-1.33-2.31-2.66-3.46-4l65.99-56.69c1.02,1.19,2.05,2.38,3.08,3.56l-65.62,57.13ZM4646.62,2540.12l-66.77-55.78c1.02-1.22,2.03-2.43,3.04-3.66l67.09,55.38c-1.12,1.35-2.24,2.7-3.36,4.05ZM3349.44,2535.36c-1.11-1.35-2.22-2.71-3.33-4.06l67.47-54.93c1,1.23,2,2.45,3,3.67l-67.15,55.32ZM4661.27,2522.1l-68.28-53.92c.98-1.24,1.96-2.49,2.94-3.74l68.59,53.53c-1.08,1.38-2.16,2.76-3.25,4.14ZM3334.94,2517.26c-1.08-1.38-2.15-2.77-3.22-4.16l68.97-53.03c.96,1.25,1.93,2.5,2.9,3.74l-68.65,53.45ZM4675.41,2503.69l-69.71-52.05c.95-1.27,1.89-2.54,2.83-3.82l70.01,51.64c-1.04,1.41-2.09,2.82-3.14,4.23ZM3320.95,2498.79c-1.04-1.42-2.08-2.84-3.11-4.26l70.4-51.12c.92,1.27,1.85,2.54,2.78,3.81l-70.07,51.57ZM4689.05,2484.9l-71.1-50.13c.91-1.29,1.82-2.59,2.72-3.88l71.41,49.69c-1.01,1.44-2.01,2.89-3.03,4.32ZM3307.47,2479.93c-1-1.45-2.01-2.9-3-4.35l71.8-49.13c.89,1.29,1.77,2.58,2.67,3.87l-71.46,49.62ZM4702.17,2465.73l-72.44-48.18c.87-1.31,1.74-2.62,2.6-3.94l72.76,47.69c-.97,1.48-1.94,2.95-2.92,4.42ZM3294.52,2460.71c-.96-1.47-1.91-2.94-2.87-4.41l73.09-47.19c.85,1.32,1.71,2.65,2.58,3.96l-72.8,47.63ZM4714.79,2446.17l-73.77-46.12c.84-1.34,1.68-2.69,2.51-4.04l74.05,45.67c-.92,1.5-1.85,2.99-2.78,4.48ZM3282.1,2441.14c-.92-1.49-1.83-2.98-2.74-4.47l74.36-45.17c.82,1.35,1.64,2.7,2.47,4.04l-74.09,45.6ZM4726.84,2426.29l-75.02-44.06c.8-1.37,1.6-2.73,2.4-4.1l75.28,43.61c-.88,1.52-1.77,3.04-2.66,4.56ZM3270.23,2421.26c-.88-1.52-1.75-3.03-2.62-4.56l75.57-43.1c.78,1.37,1.56,2.73,2.35,4.1l-75.31,43.56ZM4738.34,2406.09l-76.19-42.01c.76-1.38,1.52-2.76,2.27-4.15l76.46,41.51c-.84,1.55-1.69,3.1-2.54,4.65ZM3258.91,2401.05c-.83-1.54-1.66-3.08-2.49-4.62l76.73-41c.74,1.39,1.49,2.78,2.24,4.16l-76.49,41.46ZM4749.29,2385.56l-77.32-39.88c.72-1.4,1.44-2.81,2.16-4.21l77.58,39.38c-.8,1.58-1.6,3.15-2.41,4.72ZM3248.15,2380.55c-.79-1.56-1.58-3.12-2.36-4.69l77.84-38.87c.7,1.41,1.41,2.82,2.12,4.22l-77.6,39.34ZM4759.68,2364.69l-78.43-37.66c.69-1.43,1.37-2.87,2.05-4.3l78.64,37.21c-.75,1.59-1.51,3.17-2.27,4.75ZM3237.97,2359.76c-.75-1.58-1.49-3.16-2.23-4.75l78.88-36.7c.66,1.43,1.33,2.85,2.01,4.28l-78.66,37.18ZM4769.48,2343.57l-79.45-35.46c.65-1.46,1.3-2.91,1.94-4.37l79.64,35.02c-.71,1.6-1.42,3.21-2.13,4.81ZM3228.36,2338.71c-.7-1.6-1.4-3.2-2.1-4.81l79.86-34.51c.62,1.45,1.25,2.89,1.89,4.33l-79.65,34.99ZM4778.68,2322.21l-80.37-33.31c.61-1.46,1.21-2.92,1.8-4.38l80.59,32.78c-.67,1.64-1.34,3.27-2.01,4.91ZM3219.35,2317.41c-.66-1.63-1.32-3.26-1.98-4.9l80.79-32.29c.59,1.46,1.17,2.93,1.77,4.39l-80.58,32.8ZM4787.29,2300.57l-81.27-31.06c.56-1.48,1.12-2.95,1.68-4.43l81.46,30.54c-.62,1.66-1.25,3.31-1.88,4.96ZM3210.89,2295.77c-.62-1.65-1.23-3.29-1.84-4.95l81.65-30.03c.54,1.48,1.09,2.96,1.65,4.44l-81.46,30.54ZM4795.31,2278.67l-82.11-28.77c.52-1.49,1.04-2.99,1.55-4.48l82.29,28.24c-.57,1.67-1.15,3.35-1.74,5.01ZM3203.04,2273.92c-.57-1.66-1.14-3.33-1.7-4.99l82.45-27.76c.5,1.5,1.01,2.99,1.52,4.48l-82.28,28.28ZM4802.71,2256.57l-82.87-26.47c.48-1.51.96-3.02,1.43-4.53l83.04,25.94c-.53,1.69-1.06,3.38-1.6,5.06ZM3195.8,2251.85c-.53-1.68-1.05-3.37-1.56-5.05l83.2-25.43c.46,1.5.93,3.01,1.4,4.51l-83.03,25.98ZM4809.47,2234.32l-83.58-24.16c.44-1.51.87-3.03,1.3-4.54l83.73,23.62c-.48,1.7-.96,3.39-1.45,5.08ZM3189.17,2229.59c-.48-1.69-.95-3.39-1.42-5.09l83.87-23.13c.42,1.52.84,3.04,1.27,4.55l-83.72,23.67ZM4815.61,2211.94l-84.21-21.86c.39-1.52.78-3.04,1.17-4.56l84.36,21.28c-.43,1.71-.87,3.43-1.31,5.14ZM3183.17,2207.16c-.43-1.71-.86-3.41-1.28-5.12l84.48-20.79c.38,1.53.76,3.06,1.14,4.59l-84.34,21.33ZM4821.13,2189.35l-84.79-19.47c.35-1.54.7-3.08,1.04-4.62l84.91,18.94c-.38,1.72-.77,3.43-1.16,5.15ZM3177.79,2184.57c-.38-1.72-.76-3.44-1.14-5.16l85.02-18.44c.33,1.54.67,3.08,1.02,4.62l-84.9,18.98ZM4826.02,2166.63l-85.31-17.07c.31-1.55.62-3.11.92-4.67l85.4,16.59c-.33,1.72-.67,3.44-1.02,5.15ZM3173.04,2161.83c-.34-1.72-.67-3.45-.99-5.17l85.5-16.09c.29,1.55.59,3.11.89,4.66l-85.4,16.61ZM4830.26,2143.84l-85.74-14.77c.27-1.55.53-3.1.79-4.65l85.83,14.2c-.29,1.74-.58,3.48-.88,5.22ZM3168.92,2138.98c-.29-1.73-.57-3.47-.85-5.2l85.91-13.72c.25,1.56.5,3.12.76,4.68l-85.83,14.24ZM4833.89,2120.89l-86.12-12.38c.23-1.56.45-3.13.66-4.7l86.19,11.86c-.24,1.74-.48,3.48-.73,5.22ZM3165.43,2116.03c-.24-1.74-.48-3.49-.7-5.24l86.26-11.32c.21,1.56.42,3.12.63,4.68l-86.19,11.88ZM4836.87,2097.89l-86.42-10.04c.18-1.56.36-3.12.53-4.69l86.48,9.47c-.19,1.76-.39,3.51-.59,5.26ZM3162.58,2092.99c-.19-1.74-.38-3.49-.56-5.24l86.54-8.98c.16,1.57.33,3.15.5,4.72l-86.48,9.5ZM4839.22,2074.81l-86.66-7.69c.14-1.56.27-3.12.4-4.68l86.71,7.07c-.14,1.77-.29,3.53-.45,5.3ZM3160.36,2069.89c-.14-1.75-.28-3.51-.42-5.26l86.75-6.59c.12,1.57.24,3.15.37,4.72l-86.71,7.14ZM4840.94,2051.63l-86.84-5.25c.1-1.58.19-3.16.27-4.74l86.87,4.73c-.1,1.75-.2,3.5-.3,5.25ZM3158.78,2046.74c-.1-1.75-.19-3.51-.27-5.27l86.9-4.22c.08,1.58.16,3.15.24,4.73l-86.87,4.76ZM4842.03,2028.5l-86.95-2.96c.05-1.56.1-3.13.14-4.69l86.97,2.34c-.05,1.77-.1,3.54-.16,5.31ZM3157.82,2023.56c-.05-1.75-.09-3.51-.13-5.26l86.98-1.86c.03,1.58.07,3.15.12,4.72l-86.97,2.4ZM4842.48,2005.28l-87-.56c0-1.57.01-3.15.01-4.72v-.7h87v.7c0,1.76,0,3.52-.02,5.28ZM3244.5,2000.35h-87v-.35c0-1.63,0-3.27.01-4.9l87,.49c0,1.47-.01,2.94-.01,4.41v.35ZM4755.32,1983.23c-.03-1.58-.07-3.16-.12-4.73l86.97-2.4c.05,1.75.09,3.5.13,5.25l-86.98,1.89ZM3244.77,1979.5l-86.97-2.32c.05-1.76.1-3.52.16-5.27l86.95,2.85c-.05,1.58-.1,3.15-.14,4.73ZM4754.58,1962.4c-.08-1.57-.16-3.15-.25-4.72l86.87-4.79c.1,1.76.19,3.52.28,5.28l-86.9,4.23ZM3245.61,1958.68l-86.87-4.68c.09-1.75.19-3.5.3-5.25l86.84,5.2c-.09,1.58-.18,3.16-.27,4.74ZM4753.28,1941.63c-.12-1.57-.24-3.14-.37-4.71l86.7-7.19c.15,1.76.28,3.51.42,5.27l-86.75,6.62ZM3247.01,1937.9l-86.71-7.05c.14-1.75.29-3.51.44-5.26l86.67,7.59c-.14,1.57-.27,3.14-.4,4.72ZM4751.41,1920.9c-.16-1.57-.33-3.15-.5-4.72l86.48-9.53c.19,1.74.38,3.49.56,5.24l-86.53,9.01ZM3248.99,1917.16l-86.49-9.42c.19-1.75.39-3.5.59-5.25l86.43,9.96c-.18,1.57-.36,3.13-.53,4.7ZM4748.97,1900.18c-.2-1.55-.41-3.1-.63-4.65l86.18-11.93c.24,1.76.48,3.51.71,5.27l-86.26,11.3ZM3251.52,1896.51l-86.2-11.81c.24-1.74.48-3.48.73-5.22l86.12,12.33c-.22,1.56-.44,3.13-.66,4.69ZM4745.97,1879.64c-.25-1.57-.51-3.14-.77-4.7l85.82-14.27c.29,1.72.57,3.45.84,5.17l-85.9,13.8ZM3254.63,1875.92l-85.84-14.18c.29-1.74.58-3.47.88-5.21l85.75,14.72c-.27,1.55-.53,3.11-.79,4.66ZM4742.4,1859.12c-.29-1.55-.59-3.1-.89-4.65l85.39-16.66c.34,1.72.67,3.45.99,5.18l-85.49,16.14ZM3258.31,1855.43l-85.41-16.54c.34-1.73.68-3.46,1.02-5.19l85.3,17.1c-.31,1.54-.61,3.09-.91,4.63ZM4738.26,1838.74c-.34-1.55-.68-3.1-1.03-4.65l84.9-19.01c.38,1.71.76,3.42,1.13,5.13l-85,18.53ZM3262.55,1835.06l-84.92-18.91c.38-1.72.77-3.43,1.16-5.15l84.8,19.44c-.35,1.54-.7,3.08-1.04,4.62ZM4733.56,1818.46c-.38-1.54-.76-3.08-1.15-4.61l84.34-21.35c.43,1.7.85,3.4,1.27,5.1l-84.46,20.87ZM3267.35,1814.81l-84.36-21.26c.43-1.71.86-3.41,1.31-5.11l84.23,21.78c-.39,1.53-.79,3.05-1.17,4.58ZM4728.29,1798.31c-.42-1.52-.84-3.04-1.27-4.56l83.71-23.69c.48,1.69.95,3.39,1.42,5.08l-83.86,23.17ZM3272.71,1794.71l-83.74-23.59c.48-1.69.96-3.38,1.44-5.07l83.59,24.1c-.44,1.52-.87,3.04-1.3,4.56ZM4722.46,1778.31c-.46-1.5-.92-3-1.39-4.49l83.01-26.03c.53,1.69,1.05,3.38,1.57,5.07l-83.19,25.46ZM3278.64,1774.75l-83.05-25.9c.53-1.69,1.06-3.38,1.6-5.07l82.88,26.44c-.48,1.51-.96,3.01-1.43,4.52ZM4716.09,1758.5c-.5-1.49-1-2.97-1.52-4.45l82.26-28.32c.58,1.67,1.15,3.35,1.71,5.02l-82.46,27.75ZM3285.13,1754.9l-82.3-28.22c.57-1.67,1.15-3.34,1.73-5l82.12,28.72c-.52,1.5-1.04,3-1.56,4.5ZM4709.18,1738.9c-.55-1.49-1.1-2.97-1.66-4.45l81.46-30.56c.62,1.64,1.23,3.28,1.83,4.93l-81.63,30.09ZM3292.18,1735.23l-81.48-30.48c.62-1.66,1.24-3.31,1.87-4.96l81.29,31c-.56,1.48-1.12,2.96-1.68,4.44ZM4701.72,1719.47c-.59-1.47-1.18-2.94-1.78-4.4l80.58-32.81c.66,1.62,1.32,3.25,1.97,4.88l-80.77,32.33ZM3299.77,1715.79l-80.6-32.75c.66-1.63,1.33-3.26,2-4.89l80.4,33.23c-.61,1.47-1.21,2.94-1.81,4.41ZM4693.75,1700.33c-.63-1.45-1.26-2.89-1.89-4.33l79.63-35.04c.7,1.6,1.4,3.2,2.1,4.8l-79.84,34.57ZM3307.9,1696.56l-79.66-34.97c.71-1.62,1.42-3.23,2.14-4.84l79.44,35.47c-.65,1.45-1.29,2.89-1.92,4.34ZM4685.25,1681.4c-.66-1.43-1.33-2.85-2-4.27l78.63-37.23c.75,1.58,1.49,3.17,2.23,4.75l-78.86,36.75ZM3316.55,1677.57l-78.66-37.17c.75-1.6,1.51-3.19,2.28-4.78l78.42,37.67c-.68,1.42-1.36,2.85-2.04,4.28ZM4676.23,1662.71c-.7-1.41-1.41-2.81-2.12-4.22l77.58-39.37c.79,1.56,1.58,3.12,2.36,4.69l-77.82,38.9ZM3325.73,1658.84l-77.6-39.34c.8-1.57,1.6-3.15,2.41-4.72l77.34,39.84c-.72,1.4-1.44,2.81-2.16,4.22ZM4666.68,1644.25c-.74-1.38-1.48-2.76-2.22-4.13l76.46-41.5c.84,1.55,1.68,3.1,2.51,4.65l-76.74,40.98ZM3335.41,1640.37l-76.47-41.49c.84-1.55,1.68-3.09,2.53-4.64l76.21,41.96c-.76,1.39-1.52,2.78-2.28,4.17ZM4656.66,1626.12c-.78-1.37-1.57-2.74-2.36-4.11l75.3-43.58c.87,1.51,1.74,3.02,2.61,4.54l-75.55,43.15ZM3345.61,1622.17l-75.3-43.58c.88-1.52,1.77-3.04,2.66-4.56l75.03,44.04c-.8,1.36-1.6,2.73-2.39,4.1ZM4646.12,1608.22c-.82-1.35-1.64-2.69-2.47-4.04l74.06-45.66c.92,1.49,1.83,2.98,2.74,4.48l-74.33,45.21ZM3356.31,1604.26l-74.07-45.63c.93-1.51,1.86-3.01,2.8-4.51l73.77,46.13c-.83,1.33-1.66,2.67-2.49,4.01ZM4635.07,1590.6c-.85-1.32-1.71-2.64-2.57-3.95l72.77-47.68c.96,1.47,1.92,2.94,2.88,4.42l-73.08,47.21ZM3367.48,1586.67l-72.77-47.68c.96-1.47,1.93-2.94,2.9-4.4l72.48,48.12c-.88,1.32-1.75,2.64-2.61,3.96ZM4623.56,1573.3c-.89-1.3-1.78-2.59-2.68-3.88l71.44-49.65c1,1.44,2,2.89,2.99,4.34l-71.75,49.2ZM3379.15,1569.39l-71.44-49.65c1.01-1.45,2.01-2.89,3.03-4.33l71.13,50.09c-.91,1.29-1.81,2.59-2.72,3.88ZM4611.56,1556.31c-.92-1.27-1.85-2.54-2.78-3.8l70.06-51.59c1.04,1.42,2.08,2.84,3.12,4.26l-70.39,51.13ZM3391.28,1552.43l-70.06-51.59c1.04-1.42,2.09-2.83,3.14-4.24l69.73,52.02c-.94,1.27-1.89,2.54-2.82,3.81ZM4599.12,1539.68c-.96-1.25-1.93-2.49-2.89-3.74l68.6-53.5c1.08,1.38,2.16,2.77,3.23,4.16l-68.93,53.08ZM3403.86,1535.83l-68.61-53.49c1.08-1.39,2.17-2.77,3.26-4.15l68.27,53.92c-.98,1.24-1.95,2.48-2.92,3.73ZM4586.21,1523.37c-1-1.23-2.01-2.46-3.01-3.68l67.14-55.33c1.11,1.35,2.22,2.7,3.32,4.06l-67.45,54.96ZM3416.9,1519.57l-67.12-55.36c1.12-1.36,2.25-2.71,3.38-4.07l66.76,55.79c-1.01,1.21-2.02,2.42-3.02,3.64ZM4572.85,1507.41c-1.03-1.2-2.07-2.4-3.11-3.59l65.59-57.15c1.15,1.32,2.3,2.64,3.44,3.97l-65.92,56.77ZM3430.37,1503.69l-65.56-57.19c1.15-1.32,2.31-2.64,3.47-3.96l65.22,57.58c-1.05,1.19-2.09,2.37-3.13,3.56ZM4559.05,1491.82c-1.06-1.17-2.13-2.33-3.2-3.5l64-58.93c1.19,1.29,2.37,2.58,3.55,3.88l-64.35,58.55ZM3444.28,1488.18l-63.98-58.96c1.19-1.29,2.38-2.58,3.58-3.86l63.62,59.34c-1.08,1.16-2.15,2.32-3.22,3.48ZM4544.84,1476.61c-1.09-1.14-2.19-2.27-3.28-3.39l62.34-60.68c1.23,1.26,2.45,2.53,3.67,3.8l-62.73,60.28ZM3458.6,1473.06l-62.33-60.7c1.22-1.26,2.45-2.51,3.68-3.76l61.96,61.07c-1.11,1.13-2.22,2.25-3.32,3.39ZM4530.21,1461.81c-1.13-1.11-2.26-2.22-3.39-3.32l60.67-62.35c1.26,1.22,2.51,2.45,3.76,3.68l-61.04,61.99ZM3473.33,1458.34l-60.66-62.37c1.26-1.23,2.53-2.45,3.8-3.67l60.26,62.75c-1.14,1.09-2.27,2.18-3.4,3.28ZM4515.17,1447.39c-1.16-1.08-2.32-2.15-3.48-3.22l58.96-63.98c1.29,1.19,2.58,2.38,3.86,3.58l-59.34,63.62ZM3488.45,1444.03l-58.92-64.01c1.29-1.19,2.58-2.37,3.88-3.55l58.54,64.35c-1.17,1.07-2.34,2.13-3.5,3.21ZM4499.74,1433.39c-1.18-1.04-2.36-2.08-3.55-3.12l57.16-65.59c1.33,1.16,2.65,2.32,3.97,3.49l-57.58,65.22ZM3503.95,1430.14l-57.15-65.59c1.33-1.16,2.66-2.31,3.99-3.46l56.73,65.96c-1.19,1.03-2.38,2.06-3.57,3.09ZM4483.95,1419.83c-1.21-1.01-2.43-2.02-3.65-3.03l55.34-67.13c1.35,1.12,2.71,2.24,4.05,3.36l-55.75,66.79ZM3519.83,1416.69l-55.33-67.14c1.36-1.12,2.71-2.23,4.08-3.34l54.91,67.48c-1.22.99-2.44,1.99-3.66,3ZM4467.77,1406.69c-1.24-.98-2.49-1.96-3.73-2.93l53.49-68.61c1.39,1.08,2.77,2.16,4.15,3.25l-53.91,68.28ZM3536.06,1403.68l-53.48-68.62c1.38-1.08,2.77-2.15,4.16-3.22l53.06,68.95c-1.25.96-2.5,1.93-3.74,2.9ZM4451.23,1394c-1.27-.94-2.54-1.88-3.81-2.82l51.59-70.06c1.42,1.04,2.83,2.09,4.24,3.14l-52.02,69.73ZM3552.65,1391.12l-51.59-70.06c1.42-1.04,2.84-2.08,4.26-3.11l51.13,70.39c-1.27.92-2.54,1.85-3.81,2.78ZM4434.35,1381.76c-1.29-.91-2.58-1.81-3.88-2.71l49.63-71.45c1.45,1.01,2.89,2.02,4.33,3.03l-50.09,71.13ZM3569.55,1379.03l-49.63-71.45c1.44-1,2.89-2,4.34-2.99l49.19,71.76c-1.3.89-2.59,1.78-3.89,2.68ZM4417.16,1370.01c-1.32-.88-2.65-1.75-3.98-2.62l47.66-72.79c1.47.96,2.93,1.93,4.39,2.9l-48.08,72.51ZM3586.78,1367.41l-47.65-72.79c1.47-.96,2.94-1.92,4.42-2.87l47.19,73.09c-1.32.85-2.64,1.71-3.96,2.57ZM4399.62,1358.72c-1.34-.84-2.69-1.67-4.04-2.5l45.63-74.07c1.5.92,2.99,1.85,4.48,2.78l-46.08,73.8ZM3604.32,1356.27l-45.63-74.07c1.49-.92,2.98-1.83,4.48-2.74l45.19,74.34c-1.35.82-2.69,1.64-4.04,2.47ZM4381.78,1347.91c-1.36-.8-2.72-1.59-4.08-2.38l43.55-75.31c1.53.88,3.06,1.77,4.58,2.67l-44.05,75.03ZM3622.15,1345.62l-43.58-75.3c1.52-.88,3.04-1.75,4.56-2.62l43.11,75.57c-1.37.78-2.73,1.56-4.09,2.35ZM4363.65,1337.61c-1.39-.76-2.77-1.52-4.16-2.27l41.47-76.48c1.55.84,3.1,1.69,4.64,2.54l-41.95,76.22ZM3640.27,1335.47l-41.49-76.47c1.54-.84,3.09-1.67,4.64-2.5l41,76.73c-1.38.74-2.77,1.48-4.14,2.23ZM4345.24,1327.81c-1.4-.72-2.81-1.44-4.21-2.15l39.31-77.61c1.58.8,3.15,1.6,4.72,2.41l-39.82,77.35ZM3658.65,1325.82l-39.37-77.58c1.56-.79,3.13-1.58,4.7-2.37l38.88,77.83c-1.41.7-2.81,1.41-4.21,2.12ZM4326.57,1318.52c-1.43-.69-2.86-1.37-4.3-2.05l37.17-78.66c1.59.75,3.18,1.51,4.77,2.27l-37.64,78.44ZM3677.28,1316.69l-37.21-78.64c1.59-.75,3.18-1.5,4.77-2.24l36.69,78.88c-1.42.66-2.84,1.33-4.25,2ZM4307.62,1309.75c-1.44-.64-2.88-1.28-4.33-1.92l34.96-79.67c1.62.71,3.24,1.43,4.85,2.15l-35.48,79.44ZM3696.14,1308.08l-35.02-79.64c1.6-.71,3.21-1.41,4.82-2.1l34.52,79.86c-1.44.62-2.88,1.25-4.32,1.88ZM4288.46,1301.51c-1.46-.6-2.93-1.21-4.4-1.8l32.72-80.61c1.63.66,3.27,1.33,4.9,2.01l-33.22,80.41ZM3715.23,1300l-32.81-80.58c1.63-.66,3.27-1.32,4.9-1.98l32.28,80.79c-1.46.58-2.92,1.17-4.38,1.77ZM4269.05,1293.8c-1.48-.56-2.96-1.12-4.45-1.68l30.48-81.49c1.65.62,3.3,1.24,4.95,1.87l-30.98,81.3ZM3734.61,1292.41l-30.56-81.45c1.64-.62,3.29-1.23,4.94-1.84l30.06,81.64c-1.48.55-2.96,1.1-4.44,1.65ZM4249.43,1286.63c-1.5-.52-2.99-1.04-4.49-1.55l28.2-82.3c1.67.57,3.34,1.15,5.01,1.73l-28.71,82.13ZM3754.2,1285.37l-28.31-82.27c1.67-.57,3.33-1.14,5-1.7l27.77,82.45c-1.49.5-2.98,1.01-4.47,1.52ZM4229.62,1280.02c-1.51-.48-3.02-.96-4.54-1.43l25.89-83.06c1.69.53,3.37,1.06,5.05,1.59l-26.41,82.9ZM3773.96,1278.88l-25.99-83.03c1.68-.53,3.36-1.05,5.05-1.56l25.46,83.19c-1.51.46-3.01.93-4.52,1.4ZM4209.69,1273.97c-1.52-.44-3.03-.87-4.55-1.3l23.57-83.75c1.69.48,3.39.96,5.08,1.45l-24.1,83.6ZM3793.92,1272.94l-23.69-83.71c1.7-.48,3.4-.96,5.1-1.43l23.13,83.87c-1.52.42-3.03.84-4.54,1.27ZM4189.61,1268.48c-1.53-.39-3.05-.78-4.58-1.17l21.23-84.37c1.71.43,3.41.86,5.12,1.31l-21.77,84.23ZM3814.01,1267.55l-21.35-84.34c1.7-.43,3.41-.86,5.12-1.28l20.83,84.47c-1.53.38-3.06.76-4.59,1.15ZM4169.39,1263.55c-1.54-.35-3.07-.7-4.61-1.04l18.89-84.92c1.72.38,3.44.77,5.15,1.16l-19.43,84.8ZM3834.26,1262.73l-19.01-84.9c1.72-.39,3.44-.77,5.17-1.14l18.45,85.02c-1.54.33-3.07.67-4.61,1.02ZM4149.05,1259.19c-1.54-.31-3.09-.61-4.64-.91l16.52-85.42c1.73.33,3.46.67,5.18,1.02l-17.06,85.31ZM3854.62,1258.47l-16.64-85.39c1.73-.34,3.46-.67,5.19-.99l16.09,85.5c-1.55.29-3.1.59-4.64.89ZM4128.58,1255.39c-1.55-.27-3.11-.53-4.66-.78l14.15-85.84c1.74.29,3.47.58,5.21.88l-14.7,85.75ZM3875.11,1254.77l-14.27-85.82c1.74-.29,3.47-.57,5.21-.85l13.72,85.91c-1.56.25-3.11.5-4.66.76ZM4108.01,1252.16c-1.56-.22-3.12-.44-4.68-.66l11.79-86.2c1.74.24,3.49.48,5.23.73l-12.33,86.12ZM3895.69,1251.64l-11.9-86.18c1.74-.24,3.49-.48,5.23-.71l11.35,86.26c-1.56.21-3.12.42-4.69.63ZM4087.38,1249.49c-1.57-.18-3.14-.36-4.71-.53l9.42-86.49c1.75.19,3.49.39,5.23.59l-9.94,86.43ZM3916.35,1249.07l-9.53-86.48c1.75-.19,3.5-.38,5.25-.56l8.98,86.53c-1.57.16-3.14.33-4.7.5ZM4066.66,1247.4c-1.57-.14-3.14-.27-4.72-.4l7.02-86.72c1.75.14,3.51.29,5.26.44l-7.57,86.67ZM3937.07,1247.08l-7.13-86.71c1.75-.14,3.5-.28,5.25-.42l6.62,86.75c-1.58.12-3.15.25-4.73.38ZM4045.89,1245.87c-1.58-.09-3.16-.18-4.74-.27l4.66-86.88c1.75.09,3.5.19,5.25.3l-5.17,86.85ZM3957.85,1245.65l-4.77-86.87c1.75-.1,3.5-.19,5.26-.27l4.25,86.9c-1.58.08-3.16.16-4.74.25ZM4025.07,1244.91c-1.58-.05-3.15-.1-4.73-.14l2.29-86.97c1.76.05,3.52.1,5.27.16l-2.83,86.95ZM3978.67,1244.8l-2.4-86.97c1.75-.05,3.5-.09,5.25-.13l1.89,86.98c-1.58.03-3.16.07-4.73.12ZM4004.23,1244.51c-1.41,0-2.82-.01-4.23-.01h-.53v-87h.53c1.57,0,3.15,0,4.72.01l-.48,87Z"/><path class="cls-4" d="M1773.26,2630.24l5.02,17.72,2.51,8.86c.82,2.96,1.79,5.87,2.67,8.81l10.88,35.19c3.51,11.77,7.58,23.36,11.46,35.01l5.87,17.46c1.98,5.81,3.84,11.66,6,17.41l12.58,34.63,3.15,8.66,1.58,4.33,1.68,4.29,6.71,17.16,6.71,17.15,3.36,8.58c1.12,2.86,2.23,5.72,3.44,8.54l14.26,33.97c2.4,5.65,4.7,11.35,7.19,16.96l7.54,16.81,15.13,33.6,15.91,33.23,7.96,16.61,8.36,16.42,16.74,32.82c5.76,10.84,11.67,21.62,17.5,32.43l8.78,16.2c1.44,2.71,2.98,5.37,4.51,8.03l4.58,7.99,18.35,31.95c3,5.36,6.29,10.55,9.45,15.81l9.57,15.74,9.57,15.74c1.61,2.61,3.16,5.27,4.82,7.85l4.98,7.75,19.91,31,4.98,7.75,5.15,7.63,10.34,15.25,10.34,15.24c3.46,5.07,6.84,10.2,10.47,15.16l21.44,29.96,5.36,7.49c1.79,2.49,3.55,5.01,5.43,7.44l11.09,14.71,22.2,29.4c60.34,77.5,125.4,151.29,194.63,220.86l63.6-63.57c-66.59-66.93-129.13-137.87-187.14-212.36l-21.33-28.26-10.66-14.13c-1.8-2.34-3.49-4.75-5.21-7.15l-5.15-7.2-20.61-28.79c-3.49-4.76-6.73-9.69-10.06-14.57l-9.94-14.65-9.94-14.65-4.95-7.33-4.78-7.45-19.14-29.79-4.78-7.45c-1.6-2.48-3.08-5.03-4.63-7.54l-9.19-15.13-9.19-15.13c-3.04-5.06-6.2-10.04-9.08-15.19l-17.63-30.7-4.41-7.68c-1.47-2.56-2.95-5.11-4.33-7.72l-8.43-15.57c-5.6-10.39-11.28-20.73-16.82-31.15l-16.08-31.54-8.03-15.77-7.65-15.96-15.3-31.93-14.53-32.28-7.25-16.15c-2.39-5.39-4.6-10.87-6.91-16.3l-13.71-32.64c-1.17-2.71-2.23-5.46-3.3-8.21l-3.23-8.24-6.45-16.48-6.45-16.48-1.61-4.12-1.51-4.16-3.02-8.32-12.09-33.27c-2.08-5.52-3.86-11.15-5.76-16.74l-5.64-16.78c-3.72-11.2-7.65-22.33-11.01-33.64l-10.46-33.82c-.85-2.82-1.79-5.62-2.57-8.47l-2.41-8.52-4.82-17.03-86.54,24.41Z"/><path class="cls-4" d="M1743.83,1485.36l-4.15,17.94-3.73,18.03-7.43,36.08-6.59,36.24-3.28,18.12c-1,6.06-1.92,12.13-2.88,18.19l-5.69,36.39c-1.68,12.16-3.24,24.34-4.86,36.51l-2.41,18.26c-.75,6.09-1.35,12.2-2.02,18.3l-3.94,36.62c-1.13,12.22-2.08,24.46-3.13,36.69l-1.53,18.35c-.48,6.12-.77,12.25-1.16,18.38l-2.19,36.76c-.21,3.06-.27,6.13-.4,9.2l-.33,9.2-.66,18.4-.65,18.4c-.14,3.07-.14,6.14-.18,9.2l-.11,9.21-.44,36.82c-.07,3.07,0,6.14.03,9.21l.11,9.21.22,18.41.22,18.41c0,3.07.13,6.14.24,9.2l.33,9.2,1.32,36.8c.08,3.07.26,6.13.46,9.19l.55,9.19,1.1,18.38,1.1,18.38.29,4.59.38,4.59.76,9.17,3.07,36.7.39,4.59.49,4.58.98,9.15,1.97,18.31,1.98,18.31.5,4.58.6,4.56,1.2,9.13,4.82,36.51.6,4.56c.21,1.52.47,3.03.7,4.55l1.42,9.1,2.85,18.19c15.07,97.06,37.03,193,64.33,287.35l86.31-25.21c-26.22-90.68-47.35-182.89-61.83-276.19l-2.74-17.49-1.37-8.74c-.22-1.46-.47-2.91-.67-4.37l-.58-4.39-4.64-35.1-1.16-8.77-.57-4.39-.47-4.4-1.9-17.6-1.9-17.6-.95-8.8-.47-4.4-.37-4.41-2.95-35.28-.74-8.82-.37-4.41-.27-4.42-1.05-17.67-1.05-17.67-.53-8.84c-.18-2.94-.36-5.89-.44-8.84l-1.27-35.38-.32-8.85c-.11-2.95-.23-5.9-.23-8.85l-.21-17.7-.21-17.7-.11-8.85c-.03-2.95-.09-5.9-.03-8.85l.42-35.4.11-8.85c.04-2.95.04-5.9.18-8.85l.63-17.69.63-17.69.32-8.85c.12-2.95.17-5.9.38-8.84l2.11-35.34c.38-5.89.65-11.78,1.11-17.67l1.48-17.64c1.01-11.76,1.92-23.52,3-35.28l3.79-35.2c.65-5.86,1.22-11.74,1.94-17.59l2.32-17.55c1.56-11.7,3.05-23.4,4.67-35.09l5.47-34.98c.92-5.83,1.8-11.66,2.76-17.48l3.16-17.42,6.33-34.83,7.15-34.67,3.58-17.34,3.99-17.25-87.68-19.92Z"/><path class="cls-4" d="M1829.32,2485.23c28.91,130.78,70.1,258.81,122.27,382.14,52.22,123.32,115.53,241.96,189.15,353.84-31.52,6.38-63.31,12.36-95.36,17.92-16.01,2.77-32.15,5.48-48.23,8.01-16.03,2.49-32.11,4.88-48.26,7.17l-11.57-19.05-5.78-9.53c-.96-1.59-1.94-3.17-2.88-4.77l-2.78-4.83-22.2-38.66c-1.82-3.24-3.75-6.42-5.49-9.7l-5.31-9.8-10.62-19.6-10.6-19.61-10.16-19.84-10.12-19.86c-3.34-6.63-6.82-13.2-9.97-19.94l-19.26-40.21c-3.27-6.67-6.24-13.49-9.3-20.25l-9.13-20.33-9.11-20.34-8.64-20.55-8.63-20.55-4.31-10.28c-1.45-3.42-2.74-6.9-4.12-10.35l-16.24-41.51-2.02-5.19-1.91-5.23-3.81-10.47-7.61-20.95-3.8-10.47c-1.25-3.5-2.58-6.97-3.73-10.5l-7.11-21.12-7.09-21.13-3.52-10.57-3.3-10.64-13.16-42.58c-4.13-14.27-8.12-28.58-12.18-42.87-4.18-14.26-7.72-28.68-11.45-43.06,12.9-10.01,25.84-19.9,38.8-29.68l19.48-14.58,19.73-14.45c26.33-19.15,52.78-37.82,79.33-56.03Z"/><path class="cls-4" d="M1783.35,2180.09c-10.76-133.49-9.55-267.94,3.63-401.22,13.07-133.3,38.54-265.35,75.47-394.07,25.55,19.81,51.2,39.15,77.05,58.04,26.08,18.95,52.29,37.43,78.6,55.44-49.43,195.92-69.7,399.32-59.89,601.27-29.27,12.47-58.52,25.41-87.75,38.84-14.59,6.71-29.27,13.55-43.77,20.5-14.46,6.95-28.9,14.01-43.34,21.2Z"/><path class="cls-4" d="M2260.14,474.58c-97.29,110.74-184.12,230.8-258.62,358.11-74.52,127.3-136.75,261.81-185.46,401.03l84.87,29.71c46.81-133.79,106.61-263.02,178.21-385.34,71.59-122.33,155.02-237.7,248.56-344.17l-67.56-59.34Z"/><path class="cls-4" d="M2053.9,879.59c48.82-85.3,103.96-166.89,163.59-244.97l5.55-7.35,5.73-7.21,11.46-14.42,11.46-14.42,5.73-7.21c1.92-2.4,3.93-4.72,5.88-7.09,15.82-18.79,31.32-37.86,47.76-56.11l12.18-13.82,6.09-6.91,3.04-3.46c1.02-1.15,2.08-2.26,3.12-3.39l25.04-27.02c4.19-4.49,8.32-9.04,12.55-13.48l12.86-13.19,25.72-26.38c18.53,43.4,37.77,86.08,57.7,128.04-52.54,54.95-102,112.77-148.23,173.04-46.23,60.27-89.2,123-128.67,187.86-22.91-4.24-45.96-8.26-69.14-12.06-5.81-.96-11.57-1.87-17.33-2.76l-17.32-2.64c-11.56-1.73-23.16-3.41-34.79-5.03Z"/><path class="cls-4" d="M6226.74,1369.76l-5.02-17.72-2.51-8.86c-.82-2.96-1.79-5.87-2.67-8.81l-10.88-35.19c-3.51-11.77-7.58-23.36-11.46-35.01l-5.87-17.46c-1.98-5.81-3.84-11.66-6-17.41l-12.58-34.63-3.15-8.66-1.58-4.33-1.68-4.29-6.71-17.16-6.71-17.15-3.36-8.58c-1.12-2.86-2.23-5.72-3.44-8.54l-14.26-33.97c-2.4-5.65-4.7-11.35-7.19-16.96l-7.54-16.81-15.13-33.6-15.91-33.23-7.96-16.61-8.36-16.42-16.74-32.82c-5.76-10.84-11.67-21.62-17.5-32.43l-8.78-16.2c-1.44-2.71-2.98-5.37-4.51-8.03l-4.58-7.99-18.35-31.95c-3-5.36-6.29-10.55-9.45-15.81l-9.57-15.74-9.57-15.74c-1.61-2.61-3.16-5.27-4.82-7.85l-4.98-7.75-19.91-31-4.98-7.75-5.15-7.63-10.34-15.25-10.34-15.24c-3.46-5.07-6.84-10.2-10.47-15.16l-21.44-29.96-5.36-7.49c-1.79-2.49-3.55-5.01-5.43-7.44l-11.09-14.71-22.2-29.4c-60.34-77.5-125.4-151.29-194.63-220.86l-63.6,63.57c66.59,66.93,129.13,137.87,187.14,212.36l21.33,28.26,10.66,14.13c1.8,2.34,3.49,4.75,5.21,7.15l5.15,7.2,20.61,28.79c3.49,4.76,6.73,9.69,10.06,14.57l9.94,14.65,9.94,14.65,4.96,7.33,4.78,7.45,19.14,29.79,4.78,7.45c1.6,2.48,3.08,5.03,4.63,7.54l9.19,15.13,9.19,15.13c3.04,5.06,6.2,10.04,9.08,15.19l17.63,30.7,4.41,7.68c1.47,2.56,2.95,5.11,4.33,7.72l8.43,15.57c5.6,10.39,11.28,20.73,16.82,31.15l16.08,31.54,8.03,15.77,7.65,15.96,15.3,31.93,14.53,32.28,7.25,16.15c2.39,5.39,4.6,10.87,6.91,16.3l13.71,32.64c1.17,2.71,2.23,5.46,3.3,8.21l3.23,8.24,6.45,16.48,6.45,16.48,1.61,4.12,1.51,4.16,3.02,8.32,12.09,33.27c2.08,5.52,3.86,11.15,5.76,16.74l5.64,16.78c3.72,11.2,7.65,22.33,11.01,33.64l10.46,33.82c.85,2.82,1.79,5.62,2.57,8.47l2.41,8.52,4.82,17.03,86.54-24.41Z"/><path class="cls-4" d="M6256.17,2514.64l4.15-17.94,3.73-18.03,7.43-36.08,6.59-36.24,3.28-18.12c1-6.06,1.92-12.13,2.88-18.19l5.69-36.39c1.68-12.16,3.24-24.34,4.86-36.51l2.41-18.26c.75-6.09,1.34-12.2,2.02-18.3l3.94-36.62c1.13-12.22,2.08-24.46,3.13-36.69l1.53-18.35c.48-6.12.77-12.25,1.16-18.38l2.19-36.76c.21-3.06.27-6.13.4-9.2l.33-9.2.66-18.4.65-18.4c.14-3.07.14-6.14.18-9.2l.11-9.21.44-36.82c.07-3.07,0-6.14-.03-9.21l-.11-9.21-.22-18.41-.22-18.41c0-3.07-.13-6.14-.24-9.2l-.33-9.2-1.32-36.8c-.08-3.07-.26-6.13-.46-9.19l-.55-9.19-1.1-18.38-1.1-18.38-.29-4.59-.38-4.59-.77-9.17-3.07-36.7-.39-4.59-.49-4.58-.98-9.15-1.97-18.31-1.98-18.31-.5-4.58-.6-4.56-1.2-9.13-4.82-36.51-.6-4.56c-.21-1.52-.47-3.03-.7-4.55l-1.42-9.1-2.85-18.19c-15.07-97.06-37.03-193-64.33-287.35l-86.31,25.21c26.22,90.68,47.35,182.89,61.83,276.19l2.74,17.49,1.37,8.74c.22,1.46.47,2.91.67,4.37l.58,4.39,4.64,35.1,1.16,8.77.58,4.39.47,4.4,1.9,17.6,1.9,17.6.95,8.8.47,4.4.37,4.41,2.95,35.28.74,8.82.37,4.41.27,4.42,1.05,17.67,1.05,17.67.53,8.84c.18,2.94.36,5.89.44,8.84l1.27,35.38.32,8.85c.11,2.95.23,5.9.23,8.85l.21,17.7.21,17.7.11,8.85c.03,2.95.09,5.9.03,8.85l-.42,35.4-.11,8.85c-.04,2.95-.04,5.9-.18,8.85l-.63,17.69-.63,17.69-.32,8.85c-.12,2.95-.17,5.9-.38,8.84l-2.11,35.34c-.38,5.89-.65,11.78-1.11,17.67l-1.48,17.64c-1.01,11.76-1.92,23.52-3,35.28l-3.79,35.2c-.65,5.86-1.22,11.74-1.94,17.59l-2.32,17.55c-1.56,11.7-3.05,23.4-4.67,35.09l-5.47,34.98c-.92,5.83-1.8,11.66-2.76,17.48l-3.16,17.42-6.33,34.83-7.15,34.67-3.58,17.34-3.99,17.25,87.68,19.92Z"/><path class="cls-4" d="M6170.69,1514.77c-28.91-130.78-70.1-258.81-122.27-382.14-52.22-123.32-115.53-241.96-189.15-353.84,31.52-6.38,63.31-12.36,95.36-17.92,16.01-2.77,32.15-5.48,48.23-8.01,16.03-2.49,32.11-4.88,48.26-7.17l11.57,19.05,5.78,9.53c.96,1.59,1.94,3.17,2.88,4.77l2.78,4.83,22.2,38.66c1.82,3.24,3.75,6.42,5.49,9.7l5.31,9.8,10.62,19.6,10.6,19.61,10.16,19.84,10.12,19.86c3.34,6.63,6.82,13.2,9.97,19.94l19.26,40.21c3.27,6.67,6.24,13.49,9.3,20.25l9.13,20.33,9.11,20.34,8.64,20.55,8.63,20.55,4.31,10.28c1.45,3.42,2.74,6.91,4.12,10.35l16.24,41.51,2.02,5.19,1.91,5.23,3.81,10.47,7.61,20.95,3.8,10.47c1.25,3.5,2.58,6.97,3.72,10.5l7.11,21.12,7.09,21.13,3.52,10.57,3.3,10.64,13.16,42.58c4.13,14.27,8.12,28.58,12.18,42.87,4.18,14.26,7.72,28.68,11.45,43.06-12.9,10.01-25.84,19.9-38.8,29.68l-19.48,14.58-19.73,14.45c-26.33,19.15-52.78,37.82-79.33,56.03Z"/><path class="cls-4" d="M6216.65,1819.91c10.76,133.49,9.55,267.94-3.63,401.22-13.07,133.3-38.54,265.35-75.47,394.07-25.55-19.81-51.2-39.15-77.05-58.04-26.08-18.95-52.29-37.43-78.6-55.44,49.43-195.92,69.7-399.32,59.89-601.27,29.27-12.47,58.52-25.41,87.75-38.84,14.59-6.71,29.27-13.55,43.77-20.5,14.46-6.95,28.9-14.01,43.34-21.2Z"/><path class="cls-4" d="M5739.86,3525.42c97.29-110.74,184.12-230.8,258.62-358.11,74.52-127.3,136.75-261.81,185.46-401.03l-84.87-29.71c-46.81,133.79-106.61,263.02-178.21,385.34-71.59,122.33-155.02,237.7-248.56,344.17l67.56,59.34Z"/><path class="cls-4" d="M5946.1,3120.41c-48.82,85.3-103.96,166.89-163.59,244.97l-5.55,7.35-5.73,7.21-11.46,14.42-11.46,14.42-5.73,7.21c-1.92,2.4-3.93,4.72-5.88,7.09-15.82,18.79-31.32,37.86-47.76,56.11l-12.18,13.82-6.09,6.91-3.04,3.46c-1.02,1.15-2.08,2.26-3.12,3.39l-25.04,27.02c-4.19,4.49-8.32,9.04-12.55,13.48l-12.86,13.19-25.72,26.38c-18.53-43.4-37.77-86.08-57.7-128.04,52.54-54.95,102-112.77,148.23-173.04,46.23-60.27,89.2-123,128.67-187.86,22.91,4.24,45.96,8.26,69.14,12.06,5.81.96,11.57,1.87,17.33,2.76l17.32,2.64c11.56,1.73,23.16,3.41,34.79,5.03Z"/><path class="cls-5" d="M3397.78,1663.47c-28.7,51.06-50.63,105.9-65.43,162.58-7.35,28.35-12.84,57.18-16.61,86.21-3.62,29.06-5.46,58.32-5.53,87.58h29.97c.07-28,1.83-56,5.29-83.8,3.61-27.77,8.86-55.34,15.89-82.45,14.16-54.19,35.12-106.63,62.58-155.47l-26.15-14.64Z"/><path class="cls-5" d="M3632.9,1415.95l-4.66,2.91-4.59,3.02-9.17,6.04-9.03,6.25-4.51,3.13-4.44,3.23-8.87,6.47-8.72,6.67-4.36,3.34-4.28,3.43-8.55,6.89-8.39,7.07-4.19,3.55c-1.39,1.19-2.74,2.42-4.12,3.63l-8.21,7.29c-2.71,2.46-5.37,4.98-8.05,7.46l-4.02,3.74c-1.34,1.25-2.63,2.55-3.94,3.82l-7.85,7.67c-2.59,2.58-5.12,5.23-7.69,7.84-2.56,2.61-5.12,5.23-7.59,7.93l-7.48,8.04c-2.47,2.7-4.87,5.46-7.31,8.19-4.92,5.42-9.55,11.09-14.3,16.66-9.26,11.33-18.37,22.8-26.9,34.7-17.28,23.64-32.88,48.49-47.01,74.13l26.29,14.4c13.52-24.52,28.43-48.3,44.97-70.91,8.16-11.38,16.88-22.35,25.74-33.2,4.54-5.33,8.97-10.75,13.68-15.94,2.33-2.61,4.63-5.26,6.99-7.84l7.16-7.69c2.36-2.59,4.81-5.08,7.27-7.58,2.45-2.5,4.88-5.03,7.35-7.5l7.51-7.34c1.26-1.22,2.49-2.46,3.77-3.65l3.84-3.58c2.57-2.38,5.11-4.79,7.7-7.14l7.86-6.97c1.31-1.16,2.61-2.34,3.94-3.47l4.01-3.39,8.03-6.77,8.18-6.59,4.1-3.28,4.17-3.2,8.34-6.38,8.49-6.19,4.25-3.09,4.32-2.99,8.64-5.98,8.77-5.77,4.39-2.89,4.45-2.78-15.97-25.36Z"/><path class="cls-5" d="M3442.84,1646.42c-42.71,67.03-72.99,141.9-89.07,219.73-9.03-5.5-18.02-11.15-26.98-16.96-4.47-2.91-8.96-5.86-13.4-8.84-4.42-2.98-8.82-5.99-13.22-9.05,16.61-69.23,43.68-135.94,79.92-197.17,21.09,3.45,42.12,7.61,62.75,12.29Z"/><path class="cls-5" d="M3497.21,1572.77c51.48-60.53,113.86-111.81,183.43-150.24,1.74,10.48,3.61,20.87,5.63,31.19,2.06,10.39,4.26,20.7,6.6,30.92-50.91,30.4-97.33,68.4-137.2,112.34-9.55-4.29-19.2-8.46-28.96-12.51-4.88-2.02-9.8-4.03-14.71-5.98-4.9-1.94-9.83-3.85-14.79-5.72Z"/><path class="cls-5" d="M3954.8,1311.71c-43.85,2.84-87.46,9.84-130,20.97-42.54,11.13-84.01,26.36-123.63,45.44l13,27.01c37.89-18.25,77.54-32.81,118.22-43.45,40.68-10.64,82.39-17.34,124.34-20.06l-1.94-29.91Z"/><path class="cls-5" d="M3826.58,1355.96c28.17-7.66,56.89-13.22,85.81-17.09l2.71-.38,2.72-.31,5.44-.62c3.63-.39,7.24-.89,10.88-1.18,7.27-.63,14.53-1.37,21.82-1.75,3.64-.22,7.28-.49,10.92-.66l10.94-.42,5.47-.19,5.47-.07,10.94-.14c-5.22,14.59-10.11,29.18-14.66,43.75-44.81,1.02-89.45,6.93-132.94,17.51-4.09-6.48-8.26-12.93-12.52-19.37-4.25-6.41-8.57-12.74-12.98-19.07Z"/><path class="cls-5" d="M4602.22,2336.53c28.7-51.06,50.63-105.9,65.43-162.58,7.35-28.35,12.84-57.18,16.61-86.21,3.62-29.06,5.46-58.32,5.53-87.58h-29.97c-.07,28-1.83,56-5.29,83.8-3.61,27.77-8.86,55.34-15.89,82.45-14.16,54.19-35.12,106.63-62.58,155.47l26.15,14.64Z"/><path class="cls-5" d="M4367.1,2584.05l4.66-2.91,4.59-3.02,9.17-6.04,9.03-6.25,4.51-3.13,4.44-3.23,8.87-6.47,8.72-6.67,4.36-3.34,4.28-3.43,8.55-6.89,8.39-7.07,4.19-3.55c1.39-1.19,2.74-2.42,4.12-3.63l8.21-7.29c2.71-2.46,5.37-4.98,8.05-7.46l4.02-3.74c1.34-1.25,2.63-2.55,3.94-3.82l7.85-7.67c2.59-2.58,5.12-5.23,7.69-7.84,2.56-2.61,5.12-5.23,7.59-7.93l7.48-8.04c2.47-2.7,4.87-5.46,7.31-8.19,4.92-5.42,9.55-11.09,14.3-16.66,9.26-11.33,18.37-22.8,26.9-34.7,17.28-23.64,32.88-48.49,47.01-74.13l-26.29-14.4c-13.52,24.52-28.43,48.3-44.97,70.91-8.16,11.38-16.88,22.35-25.73,33.2-4.54,5.33-8.97,10.75-13.68,15.94-2.33,2.61-4.63,5.26-6.99,7.84l-7.16,7.69c-2.36,2.59-4.82,5.08-7.27,7.58-2.45,2.5-4.88,5.03-7.35,7.5l-7.52,7.34c-1.26,1.22-2.49,2.46-3.77,3.65l-3.84,3.58c-2.57,2.38-5.11,4.79-7.7,7.14l-7.86,6.97c-1.31,1.16-2.61,2.34-3.94,3.47l-4.01,3.39-8.03,6.77-8.18,6.59-4.1,3.28-4.17,3.2-8.34,6.38-8.49,6.19-4.25,3.09-4.32,2.99-8.63,5.98-8.77,5.77-4.39,2.89-4.45,2.78,15.97,25.36Z"/><path class="cls-5" d="M4557.16,2353.58c42.71-67.03,72.99-141.9,89.07-219.73,9.03,5.5,18.02,11.15,26.98,16.96,4.47,2.91,8.96,5.86,13.4,8.84,4.42,2.98,8.82,5.99,13.22,9.05-16.61,69.23-43.69,135.94-79.92,197.17-21.09-3.45-42.12-7.61-62.75-12.29Z"/><path class="cls-5" d="M4502.79,2427.23c-51.48,60.53-113.86,111.81-183.43,150.24-1.74-10.48-3.61-20.87-5.63-31.19-2.06-10.39-4.26-20.7-6.6-30.92,50.91-30.4,97.33-68.4,137.2-112.34,9.54,4.29,19.2,8.46,28.96,12.51,4.88,2.02,9.8,4.03,14.71,5.98,4.9,1.94,9.83,3.85,14.79,5.72Z"/><path class="cls-5" d="M4045.2,2688.29c43.85-2.84,87.46-9.84,130-20.97,42.54-11.13,84.02-26.36,123.63-45.44l-13-27.01c-37.89,18.25-77.54,32.81-118.22,43.45-40.68,10.64-82.39,17.34-124.34,20.06l1.94,29.91Z"/><path class="cls-5" d="M4173.42,2644.04c-28.17,7.66-56.89,13.22-85.81,17.09l-2.71.38-2.72.31-5.44.62c-3.63.39-7.24.89-10.88,1.18-7.27.63-14.53,1.37-21.82,1.75-3.64.22-7.28.49-10.92.66l-10.94.42-5.47.19-5.47.07-10.94.14c5.22-14.59,10.11-29.18,14.66-43.75,44.81-1.02,89.45-6.93,132.94-17.51,4.09,6.48,8.26,12.93,12.52,19.37,4.25,6.41,8.57,12.74,12.98,19.07Z"/><polygon class="cls-3" points="5158.22 343.54 2321.53 343.54 2022.25 193.88 -717.99 193.88 -717.99 163.88 2029.34 163.88 2032.5 165.47 2328.61 313.54 5150.28 313.54 5412.86 163.88 8717.99 163.88 8717.99 193.88 5420.81 193.88 5158.22 343.54"/><polygon class="cls-3" points="4633.96 422.7 2760.54 422.7 2683.54 334.35 4710.96 334.35 4633.96 422.7"/><polygon class="cls-3" points="8717.99 3905 5412.86 3905 5150.28 3755.33 2328.61 3755.33 2029.34 3905 -717.99 3905 -717.99 3875 2022.25 3875 2321.53 3725.33 5158.22 3725.33 5420.81 3875 8717.99 3875 8717.99 3905"/><polygon class="cls-3" points="4633.96 3646.18 2760.54 3646.18 2683.54 3734.53 4710.96 3734.53 4633.96 3646.18"/><polygon class="cls-3" points="3999.96 939.37 4057.57 839.59 3942.34 839.59 3999.96 939.37"/><polygon class="cls-3" points="5060.62 2005.9 5160.08 2064.06 5160.72 1948.83 5060.62 2005.9"/><polygon class="cls-3" points="3988.26 3060.66 3929.56 3159.81 4044.77 3161.08 3988.26 3060.66"/><polygon class="cls-3" points="2939.43 1982.51 2840.61 1923.26 2838.7 2038.47 2939.43 1982.51"/></g></g></svg>