<svg id="Layer_1" enable-background="new 0 0 512 512" height="512" viewBox="0 0 512 512" width="512" xmlns="http://www.w3.org/2000/svg"><g><path d="m256 21.996c-135.311 0-245.002 109.691-245.002 245.002 0 116.118 80.782 213.364 189.212 238.616h111.581c108.429-25.252 189.212-122.498 189.212-238.616-.001-135.311-109.692-245.002-245.003-245.002z" fill="#fef156"/><path d="m304.383 404.381h-53.678c.697.99 1.344 1.728 1.878 2.259-2.406 2.647-7.619 9.331-7.293 17.25.208 5.059 2.631 9.66 7.207 13.699-2.675 2.608-8.398 9.11-7.978 16.667.276 4.981 3.146 9.417 8.534 13.197-1.29 5.298-5.664 28.682 12.498 44.34 15.843-.609 31.306-2.702 46.239-6.18 5.674-7.244 9.066-16.362 9.066-26.277v-79.464c-4.877 2.871-10.522 4.509-16.473 4.509z" fill="#3f57a0"/><path d="m254.775 466.81c-19.75-12.94 0-29.272 0-29.272-18-14.212 0-31.006 0-31.006s-.933-.561-2.206-2.151h-44.789c-6.022 0-11.725-1.678-16.637-4.611v79.567c0 9.915 3.392 19.033 9.066 26.277 17.923 4.174 36.598 6.386 55.791 6.386 3.944 0 7.86-.117 11.759-.301-21.594-17.128-12.984-44.889-12.984-44.889z" fill="#1d2e79"/><path d="m167.649 69.52c-.016 26.782 9.28 64.297 53.373 91.707-.351.473-.768 1.071-1.214 1.757h212.362c-7.032-91.619-83.936-163.677-177.518-162.979-27.428.205-53.491 6.912-76.737 18.614-2.466 5.82-10.251 26.157-10.266 50.901z" fill="#6ad9fb"/><path d="m180.01 17.585c-55.264 26.911-95.055 81.924-100.14 145.398h141.749c.945-1.373 1.628-2.151 1.628-2.151-86.611-52.501-43.237-143.247-43.237-143.247z" fill="#02c0fc"/><path d="m222.81 197.186c.902.853 1.869 1.686 2.917 2.494-1.643 2.595-4.927 8.835-3.561 15.496.965 4.704 4.035 8.636 9.13 11.698l1.577 67.258c-1.044 2.279-5.884 14.372 4.457 22.849.062.309.152.761.26 1.319h129.702c5.035-6.799 10.509-13.315 16.417-19.491 25.906-27.085 43.269-62.399 47.8-101.623z" fill="#ade9f7"/><path d="m129.252 299.805c5.684 5.851 10.952 12.031 15.789 18.494h94.079c-.268-1.381-.427-2.151-.427-2.151-11.167-8.685-4.311-21.695-4.311-21.695l-1.607-68.453c-12.375-12.375-5-26.664-5-26.664-.985-.709-1.89-1.427-2.73-2.151h-144.556c4.586 39.708 22.326 75.408 48.763 102.62z" fill="#6ad9fb"/><path d="m433.292 160.832h-212.881c.207.13.403.264.612.394-2.332 3.146-7.438 11.253-6.365 20.695.744 6.559 4.327 12.408 10.641 17.415h207.994c4.531 0 8.204-3.673 8.204-8.204v-22.097c-.001-4.53-3.674-8.203-8.205-8.203z" fill="#e8f8fc"/><path d="m78.708 160.832c-4.531 0-8.204 3.673-8.204 8.204v22.097c0 4.531 3.673 8.204 8.204 8.204h149.067c-23.5-16.914-4.528-38.504-4.528-38.504h-144.539z" fill="#ade9f7"/><path d="m236.377 316.149c.303.281.619.558.953.832.867 4.323 6.686 34.252 6.686 58.02 0 20.396 5.655 28.677 8.461 31.532h51.906c14.564 0 27.376-9.682 31.279-23.713 6.684-24.031 18.004-46.641 33.256-66.67h-132.541z" fill="#e8f8fc"/><path d="m176.449 382.63c3.865 14.117 16.695 23.902 31.331 23.902h46.995s-9.26-5.532-9.26-31.532-6.823-58.851-6.823-58.851h-95.314c15.305 19.85 26.494 42.458 33.071 66.481z" fill="#ade9f7"/><path d="m191.144 294.454c-6.124 0-11.134-5.01-11.134-11.134v-52.33c0-6.124 5.01-11.134 11.134-11.134 6.124 0 11.134 5.01 11.134 11.134v52.33c0 6.124-5.01 11.134-11.134 11.134z" fill="#2a428b"/><path d="m234.381 294.454c-6.124 0-11.134-5.01-11.134-11.134v-52.33c0-6.124 5.01-11.134 11.134-11.134 6.124 0 11.134 5.01 11.134 11.134v52.33c0 6.124-5.01 11.134-11.134 11.134z" fill="#3f57a0"/><g fill="#5071b7"><path d="m277.619 294.454c-6.124 0-11.134-5.01-11.134-11.134v-52.33c0-6.124 5.01-11.134 11.134-11.134 6.124 0 11.134 5.01 11.134 11.134v52.33c0 6.124-5.01 11.134-11.134 11.134z"/><path d="m320.856 294.454c-6.124 0-11.134-5.01-11.134-11.134v-52.33c0-6.124 5.01-11.134 11.134-11.134 6.124 0 11.134 5.01 11.134 11.134v52.33c0 6.124-5.01 11.134-11.134 11.134z"/><path d="m320.217 437.538h-67.775c.019.017.035.035.054.052-2.675 2.608-8.398 9.11-7.978 16.667.261 4.702 2.835 8.916 7.653 12.553h68.045c8.083 0 14.636-6.553 14.636-14.636.001-8.083-6.551-14.636-14.635-14.636z"/></g><path d="m254.775 437.538h-62.993c-8.083 0-14.636 6.553-14.636 14.636 0 8.083 6.553 14.636 14.636 14.636h62.993c-19.75-12.94 0-29.272 0-29.272z" fill="#3f57a0"/><ellipse cx="294.442" cy="60.844" fill="#ade9f7" rx="54.844" ry="54.844" transform="matrix(.919 -.394 .394 .919 -.137 121.023)"/></g></svg>