<svg id="Layer_1" enable-background="new 0 0 512 512" height="512" viewBox="0 0 512 512" width="512" xmlns="http://www.w3.org/2000/svg"><g><path d="m34.028 370.796 18.676 24.112h406.592l18.676-24.112c14.765-31.52 23.03-66.691 23.03-103.798 0-135.311-109.691-245.002-245.002-245.002s-245.002 109.691-245.002 245.002c0 37.107 8.265 72.278 23.03 103.798z" fill="#fef156"/><path d="m52.704 394.908 47.192 60.926c42.389 35.081 96.783 56.166 156.104 56.166s113.715-21.085 156.104-56.166l47.192-60.926z" fill="#94dc79"/><path d="m125.115 8.944c-.938-5.178-5.448-8.944-10.71-8.944h-7.617c-5.263 0-9.772 3.766-10.71 8.944l-6.292 34.733h41.62z" fill="#fe3d97"/><path d="m448.006 8.944c-.938-5.178-5.447-8.944-10.71-8.944h-7.617c-5.263 0-9.772 3.766-10.71 8.944l-6.292 34.733h41.62z" fill="#02c0fc"/><path d="m108.835 0h-34.131c-5.263 0-9.772 3.766-10.71 8.944l-6.292 34.733h34.131l6.292-34.733c.938-5.178 5.447-8.944 10.71-8.944z" fill="#ff0363"/><path d="m431.727 0h-34.131c-5.263 0-9.772 3.766-10.71 8.944l-6.292 34.733h34.131l6.292-34.733c.937-5.178 5.447-8.944 10.71-8.944z" fill="#27a6ff"/><path d="m343.144 47.344c-2.675-14.767-15.533-25.505-30.54-25.505h-50.959c-15.008 0-27.865 10.738-30.54 25.505l-3.53 19.487h119.1z" fill="#3f57a0"/><path d="m263.692 21.839h-64.296c-15.007 0-27.865 10.738-30.54 25.505l-3.53 19.487h64.295l3.53-19.487c2.676-14.767 15.534-25.505 30.541-25.505z" fill="#2a428b"/><path d="m148.469 66.831v-7.114c0-9.385-7.678-17.063-17.063-17.063h-73.703c-9.385 0-17.063 7.678-17.063 17.063v7.114z" fill="#edaecd"/><path d="m471.36 66.831v-7.114c0-9.385-7.678-17.063-17.063-17.063h-73.703c-9.385 0-17.063 7.678-17.063 17.063v7.114z" fill="#6ad9fb"/><path d="m477.972 370.796v-245.086h-261.237l1.643 2.047s-17.541 47.768 29.999 61.008c47.54 13.241-8.688 137.281-8.688 137.281s-40.763 22.046-21.311 66.814c.299.687.572 1.37.823 2.047h245.79c4.76-7.761 9.093-15.811 12.981-24.111z" fill="#3f57a0"/><path d="m250.424 188.766c-47.54-13.241-29.999-61.008-29.999-61.008l-1.643-2.047h-184.754v245.086c3.888 8.301 8.221 16.35 12.981 24.112h174.24c-.251-.678-.525-1.36-.823-2.047-19.452-44.768 21.311-66.814 21.311-66.814s56.227-124.042 8.687-137.282z" fill="#2a428b"/><path d="m427.577 441.867c-3.383-5.017-5.363-11.048-5.363-17.52 0-17.318 14.169-31.487 31.487-31.487h-235.323c-17.318 0-31.487 14.169-31.487 31.487 0 17.318 14.169 31.487 31.487 31.487h193.726c5.357-4.434 10.513-9.1 15.473-13.967z" fill="#5071b7"/><path d="m422.214 96.27c0-17.318 14.169-31.487 31.487-31.487h-235.323c-17.318 0-31.487 14.169-31.487 31.487 0 17.318 14.169 31.487 31.487 31.487h235.323c-17.318 0-31.487-14.169-31.487-31.487z" fill="#5071b7"/><path d="m451.653 392.86c-17.318 0-31.487 14.169-31.487 31.487 0 6.989 2.31 13.463 6.2 18.702 15.369-14.876 28.796-31.742 39.863-50.188h-14.576z" fill="#6289cd"/><path d="m502.208 115.466v-38.392c0-6.76-5.531-12.291-12.291-12.291h-38.264c-17.318 0-31.487 14.169-31.487 31.487 0 17.318 14.169 31.487 31.487 31.487h38.264c6.76 0 12.291-5.531 12.291-12.291z" fill="#6289cd"/><path d="m220.425 392.86h-174.655c14.372 23.953 32.712 45.252 54.126 62.974h120.529c-17.318 0-31.487-14.169-31.487-31.487.001-17.318 14.169-31.487 31.487-31.487z" fill="#3f57a0"/><path d="m188.938 96.27c0-17.318 14.169-31.487 31.487-31.487h-198.342c-6.76 0-12.291 5.531-12.291 12.291v38.392c0 6.76 5.531 12.291 12.291 12.291h198.342c-17.318 0-31.487-14.169-31.487-31.487z" fill="#3f57a0"/><g fill="#1d2e79"><path d="m91.834 160.806c-6.881 0-12.51 5.629-12.51 12.51v174.514c0 6.88 5.629 12.51 12.509 12.51 6.88 0 12.509-5.629 12.509-12.51v-174.515c.001-6.88-5.628-12.509-12.508-12.509z"/><path d="m145.216 160.806c-6.88 0-12.51 5.629-12.51 12.51v174.514c0 6.88 5.629 12.51 12.51 12.51 6.88 0 12.51-5.629 12.51-12.51v-174.515c-.001-6.88-5.63-12.509-12.51-12.509z"/><path d="m366.784 160.806c-6.88 0-12.51 5.629-12.51 12.51v174.514c0 6.88 5.629 12.51 12.509 12.51 6.88 0 12.51-5.629 12.51-12.51v-174.515c.001-6.88-5.629-12.509-12.509-12.509z"/><path d="m420.167 160.806c-6.88 0-12.51 5.629-12.51 12.51v174.514c0 6.88 5.629 12.51 12.51 12.51 6.88 0 12.51-5.629 12.51-12.51v-174.515c-.001-6.88-5.63-12.509-12.51-12.509z"/><path d="m313.402 160.806c-6.88 0-12.51 5.629-12.51 12.51v6.117c0 6.88 5.629 12.509 12.509 12.509 6.88 0 12.509-5.629 12.509-12.509v-6.117c.001-6.881-5.628-12.51-12.508-12.51z"/><path d="m313.402 329.203c-6.88 0-12.51 5.629-12.51 12.51v6.117c0 6.88 5.629 12.51 12.509 12.51 6.88 0 12.509-5.629 12.509-12.51v-6.117c.001-6.88-5.628-12.51-12.508-12.51z"/></g><g><path d="m245.005 196.427c-.775 5.454 1.586 11.057 7.018 16.66v48.117l24.4 25.685c.14 2.827 1.259 13.968 10.19 20.663 4.995 3.744 11.48 5.367 19.353 4.893 13.602-13.105 22.077-31.493 22.077-51.873 0-39.788-32.255-72.043-72.043-72.043-2.628 0-5.22.15-7.775.424-1.521 2.029-2.802 4.531-3.22 7.474z" fill="#02c0fc"/><path d="m256 332.616c20.286 0 38.601-8.397 51.694-21.89-29.66 2.944-29.708-24.49-29.708-24.49l-24.381-25.664v-48.132c-10.684-10.684-7.348-18.91-3.181-23.674-37.18 2.849-66.467 33.897-66.467 71.807 0 39.788 32.255 72.043 72.043 72.043z" fill="#27a6ff"/><path d="m277.448 254.078h-15.627c-1.379 0-2.562-.833-3.079-2.021l-.037.087c-1.732.567-5.806 2.254-7.863 6.067-1.353 2.508-1.578 5.413-.674 8.65l-.411.207h.422c1.856 0 3.36 1.504 3.36 3.36v40.678c0 4.944 6.561 6.675 9 2.374l24.421-43.073c4.134-7.29-1.132-16.329-9.512-16.329z" fill="#fef156"/><path d="m259.872 253.446c-.852-.61-1.411-1.601-1.411-2.729v-40.678c0-4.944-6.561-6.675-9-2.374l-24.421 43.073c-4.133 7.29 1.133 16.329 9.513 16.329h15.627c.709 0 1.365.222 1.907.597l.002-.001c-4.153-11.395 7.782-14.214 7.782-14.214z" fill="#ffc242"/></g><path d="m198.598 160.806c6.88 0 12.51 5.629 12.51 12.51v6.117c0 6.88-5.629 12.509-12.509 12.509-6.88 0-12.51-5.629-12.51-12.509v-6.117c0-6.881 5.629-12.51 12.509-12.51z" fill="#1d2e79"/><path d="m198.598 329.203c6.88 0 12.51 5.629 12.51 12.51v6.117c0 6.88-5.629 12.51-12.509 12.51-6.88 0-12.51-5.629-12.51-12.51v-6.117c0-6.88 5.629-12.51 12.509-12.51z" fill="#1d2e79"/></g></svg>