<svg id="Layer_1" enable-background="new 0 0 512 512" height="512" viewBox="0 0 512 512" width="512" xmlns="http://www.w3.org/2000/svg"><g><path d="m22.647 313.714 2.472 50.436c4.07 8.259 8.577 16.263 13.518 23.964h412.729c14.463-22.544 25.33-47.614 31.798-74.4z" fill="#1d2e79"/><path d="m245.002 10.998c-104.989 0-194.538 66.045-229.408 158.848l7.053 143.868h460.517c4.469-18.507 6.84-37.834 6.84-57.714 0-135.311-109.691-245.002-245.002-245.002z" fill="#fef156"/><path d="m319.667 362.15v7.411c0 10.706 8.679 19.384 19.384 19.384h88.123c10.706 0 19.384-8.679 19.384-19.384v-7.411c-28.534 0-74.749 0-126.891 0z" fill="#5071b7"/><path d="m73.815 362.15v7.411c0 10.706 8.679 19.384 19.384 19.384h88.123c10.705 0 19.384-8.679 19.384-19.384v-7.411c-45.687 0-90.244 0-126.891 0z" fill="#3f57a0"/><path d="m509.131 307.445h-67.202c-15.072 0-27.715-10.688-30.061-25.413-3.11-19.517-9.613-37.186-19.329-52.518-7.948-12.544-5.608-28.824 5.541-38.815-29.341-13.66-61.541-20.854-94.246-20.854h-126.16l.017.014c-3.887 3.644-14.946 15.319-14.807 30.108.096 10.198 5.525 19.669 16.137 28.148 8.987 7.181 13.99 15.819 14.869 25.676 1.768 19.811-13.665 38.516-14.974 40.063-.965.768-6.397 5.357-6.252 11.27.078 3.177 1.72 6.086 4.888 8.667-2.669 2.445-7.917 8.158-7.777 15.155.097 4.82 2.714 9.254 7.783 13.198-2.211 2.097-6.065 6.535-5.931 11.897.093 3.706 2.065 7.096 5.829 10.108h72.149v-123.981c0-6.464 5.259-11.723 11.723-11.723h62.117c6.464 0 11.723 5.259 11.723 11.723v123.982h123.003c10.613 0 19.59-1.695 27.11-4.283 21.478-7.39 32.261-31.384 23.85-52.422z" fill="#e8f8fc"/><path d="m179.957 169.846h-164.363c-6.805 18.112-11.525 37.244-13.876 57.101l.005-.002 1.368 67.83c1.027 6.432 2.282 12.788 3.797 19.044l8.559 27.878c2.866 7.67 6.084 15.169 9.673 22.453h154.837c-15.376-10.464 0-22.102 0-22.102-19.543-13.566 0-28.333 0-28.333-13.043-8.9 0-18.769 0-18.769s35.043-39.998 0-68c-35.043-28.003 0-57.1 0-57.1z" fill="#ade9f7"/><path d="m449.048 261.947c-9.212-17.429-3.882-28.658 3.301-35.408-16.755-15.059-35.584-27.314-55.743-36.521-11.152 10.404-13.541 27.349-5.335 40.299 7.518 11.863 15.462 29.033 19.115 51.952 2.458 15.422 15.926 26.677 31.543 26.677h28.575c-13.89-7.393-7.401-20.408-21.456-46.999z" fill="#3f57a0"/><path d="m497.833 320.945h-13.738c-7.792 0-14.167 6.375-14.167 14.167 0 7.792 6.375 14.167 14.167 14.167h13.738c7.792 0 14.167-6.375 14.167-14.167 0-7.792-6.375-14.167-14.167-14.167z" fill="#02c0fc"/><path d="m177.551 313.792c-2.669 2.445-7.917 8.158-7.777 15.155.096 4.781 2.674 9.18 7.662 13.1h35.86c7.792 0 14.167-6.375 14.167-14.167 0-7.792-6.375-14.167-14.167-14.167h-35.834c.031.027.057.054.089.079z" fill="#94dc79"/><path d="m15.554 342.048h164.403c-19.543-13.566 0-28.333 0-28.333h-173.102c2.338 9.681 5.249 19.138 8.699 28.333z" fill="#47cb8f"/><path d="m0 256c0 13.256 1.067 26.26 3.094 38.945h92.874v-68h-94.245c-1.127 9.53-1.723 19.222-1.723 29.055z" fill="#1d2e79"/><path d="m178.554 226.945v68h71.05v-54.777c0-6.464 5.259-11.723 11.723-11.723v-1.5z" fill="#3f57a0"/><path d="m323.444 226.945h-62.117c-7.273 0-13.223 5.95-13.223 13.223v123.982h18.253v-69.205h52.056v69.205h18.254v-123.982c0-7.272-5.95-13.223-13.223-13.223z" fill="#6289cd"/><path d="m265.103 291.612h54.564v72.538h-54.564z" fill="#e8f8fc"/><path d="m265.103 243.945h54.564v51h-54.564z" fill="#3f57a0"/><path d="m94.564 226.945h85.393v68h-85.393z" fill="#2a428b"/><path d="m184.785 387.945c-2.449 2.671-8.115 9.854-6.566 17.711 1.171 5.939 6.165 10.802 14.855 14.475-.089.115-.185.242-.281.369h233.771c9.173-10.118 17.513-21.005 24.909-32.555z" fill="#fef156"/><path d="m186.875 387.945h-148.345c7.396 11.55 15.736 22.436 24.909 32.555h131.261c.52-.655.831-1 .831-1-30.134-11.447-8.656-31.555-8.656-31.555z" fill="#ffc242"/><path d="m191.649 419.5c.465.214.937.425 1.425.631-3.853 4.99-14.22 20.726-9.426 40.348 3.488 14.276 14.133 27.231 31.774 38.733 9.699 1.168 19.566 1.79 29.58 1.79 72.477 0 137.593-31.48 182.45-81.502z" fill="#3f57a0"/><path d="m62.552 419.5c39.399 43.936 94.431 73.559 156.349 80.119-61.312-38.063-23.37-80.119-23.37-80.119z" fill="#2a428b"/><g><path d="m234.007 54.551c-.774 5.454 1.586 11.057 7.018 16.66v48.117l24.4 25.685c.14 2.827 1.259 13.968 10.19 20.663 4.995 3.744 11.48 5.367 19.353 4.893 13.602-13.105 22.077-31.493 22.077-51.873 0-39.788-32.255-72.043-72.043-72.043-2.628 0-5.22.15-7.775.424-1.521 2.029-2.802 4.531-3.22 7.474z" fill="#02c0fc"/><path d="m245.002 190.74c20.286 0 38.601-8.397 51.694-21.89-29.66 2.944-29.708-24.489-29.708-24.489l-24.381-25.664v-48.134c-10.684-10.684-7.348-18.91-3.181-23.674-37.18 2.849-66.467 33.897-66.467 71.807 0 39.789 32.255 72.044 72.043 72.044z" fill="#27a6ff"/><path d="m266.45 112.202h-15.627c-1.379 0-2.562-.833-3.079-2.021l-.037.087c-1.732.566-5.806 2.254-7.863 6.067-1.353 2.508-1.578 5.413-.674 8.65l-.411.207h.422c1.856 0 3.36 1.504 3.36 3.36v40.679c0 4.944 6.561 6.675 9 2.374l24.421-43.073c4.134-7.291-1.132-16.33-9.512-16.33z" fill="#fef156"/><path d="m248.874 111.57c-.852-.61-1.411-1.601-1.411-2.729v-40.678c0-4.944-6.561-6.675-9-2.374l-24.421 43.073c-4.133 7.29 1.133 16.329 9.513 16.329h15.627c.709 0 1.365.222 1.907.597l.002-.001c-4.153-11.395 7.782-14.214 7.782-14.214z" fill="#ffc242"/></g><path d="m508.972 307.029c-13.325-32.293-33.107-59.495-57.126-80.948-7.427 6.696-13.221 18.038-3.797 35.867 14.055 26.591 7.565 39.605 21.455 46.998h40.201c-.228-.642-.471-1.281-.733-1.917z" fill="#5071b7"/></g></svg>