<svg id="Layer_1" enable-background="new 0 0 512 512" height="512" viewBox="0 0 512 512" width="512" xmlns="http://www.w3.org/2000/svg"><g><path d="m245.002 10.998c-88.969 0-166.858 47.426-209.776 118.372v253.26c42.919 70.947 120.807 118.372 209.776 118.372 135.311 0 245.002-109.691 245.002-245.002s-109.691-245.002-245.002-245.002z" fill="#1d2e79"/><path d="m314.129 371.591h-49.857c.077.089.149.178.227.267-1.657.621-3.975 1.699-6.298 3.468-3.957 3.014-8.675 8.666-8.675 18.48 0 15.484 12.551 21.185 17.072 22.736-.07.233-.142.497-.215.775h62.482l13.759-47.598c-9.111 1.198-18.612 1.872-28.495 1.872z" fill="#02c0fc"/><path d="m251.025 393.805c0-17.809 16.167-21.214 16.167-21.214-.315-.335-.614-.667-.915-1h-117.318c-3.415 0-6.818-.132-10.211-.347v43.656c0 .815.042 1.62.109 2.417h129.083c.31-1.114.585-1.757.585-1.757s-17.5-3.946-17.5-21.755z" fill="#27a6ff"/><path d="m64.561 169.461-24.823-34.661c-1.381-1.929-2.899-3.732-4.512-5.43-13.838 22.874-24.028 48.197-29.793 75.162z" fill="#02c0fc"/><path d="m476.533 207.814c-.365-.116-.559-.174-.559-.174-13.747 30.807-13.747 65.912 0 96.719s.194-.057.559-.173c47.289-15.021 47.289-81.351 0-96.372z" fill="#ade9f7"/><path d="m35.226 382.63c1.613-1.698 3.131-3.501 4.512-5.43l24.823-34.661-59.128-35.07c5.765 26.963 15.955 52.286 29.793 75.161z" fill="#02c0fc"/><path d="m59.092 166.882-53.309 36.041c-2.773 12.553-4.582 25.467-5.353 38.659h.003v28.836h-.003c.771 13.193 2.58 26.106 5.353 38.659l53.309 36.041c24.243 16.39 52.557 25.776 81.785 27.245v-232.726c-29.227 1.469-57.541 10.855-81.785 27.245z" fill="#ade9f7"/><path d="m475.974 304.36v-48.36-48.36s-50.931-56.31-135.34-66.617v229.953c84.409-10.307 135.34-66.616 135.34-66.616z" fill="#e8f8fc"/><path d="m314.129 139.409h-87.858c-3.195 5.102-7.483 14.043-6.306 23.949 1.008 8.479 5.831 15.898 14.336 22.051 26.283 19.013 30.987 122.605 31.366 132.215-2.454 2.229-11.829 11.596-12.682 25.345-.608 9.794 3.264 19.504 11.513 28.891-.52.195-1.11.441-1.739.733h51.37c9.933 0 19.481-.68 28.635-1.89v-229.404c-9.154-1.21-18.702-1.89-28.635-1.89z" fill="#ade9f7"/><path d="m148.959 139.409c-3.415 0-6.818.132-10.211.347v232.487c3.393.216 6.796.347 10.211.347h118.233c-28.73-30.52 0-54.31 0-54.31s-3.667-113.583-32.012-134.088c-22.289-16.123-12.37-36.717-7.113-44.784h-79.108z" fill="#6ad9fb"/><path d="m58.108 241.582h-57.675c-.277 4.772-.433 9.577-.433 14.418s.156 9.646.433 14.418h57.674c7.93 0 14.418-6.488 14.418-14.418s-6.488-14.418-14.417-14.418z" fill="#02c0fc"/><g fill="#1d8df2"><path d="m191.81 393.805c0-5.118-4.187-9.305-9.305-9.305h-7.406c-5.118 0-9.305 4.187-9.305 9.305s4.187 9.305 9.305 9.305h7.406c5.118.001 9.305-4.187 9.305-9.305z"/><path d="m232.085 393.805c0-5.118-4.187-9.305-9.305-9.305h-7.406c-5.118 0-9.305 4.187-9.305 9.305s4.187 9.305 9.305 9.305h7.406c5.117.001 9.305-4.187 9.305-9.305z"/><path d="m272.359 393.805c0-5.118-4.187-9.305-9.305-9.305h-7.406c-5.118 0-9.305 4.187-9.305 9.305s4.187 9.305 9.305 9.305h7.406c5.118.001 9.305-4.187 9.305-9.305z"/><path d="m312.633 393.805c0-5.118-4.187-9.305-9.305-9.305h-7.406c-5.118 0-9.305 4.187-9.305 9.305s4.187 9.305 9.305 9.305h7.406c5.118.001 9.305-4.187 9.305-9.305z"/></g><path d="m264.125 415.559c.955.43 1.803.753 2.472.983-.895 2.996-2.238 9.836 1.156 17.053 1.756 3.732 4.518 6.997 8.239 9.791h23.919c12.686 0 23.843-8.389 27.366-20.576l2.096-7.251z" fill="#fef156"/><path d="m138.765 415.559c.352 15.427 12.958 27.827 28.469 27.827h111.362c-17.152-11.315-10.071-27.827-10.071-27.827z" fill="#ffc242"/><g><path d="m229.761 191.854c-.774 5.454 1.586 11.057 7.018 16.66v48.117l24.4 25.685c.14 2.827 1.259 13.968 10.19 20.663 4.995 3.744 11.48 5.367 19.353 4.893 13.602-13.105 22.077-31.493 22.077-51.873 0-39.788-32.255-72.043-72.043-72.043-2.628 0-5.22.15-7.775.424-1.521 2.03-2.802 4.531-3.22 7.474z" fill="#02c0fc"/><path d="m240.756 328.043c20.286 0 38.601-8.397 51.694-21.89-29.66 2.944-29.708-24.49-29.708-24.49l-24.381-25.663v-48.133c-10.684-10.684-7.348-18.91-3.181-23.674-37.18 2.849-66.467 33.897-66.467 71.807 0 39.788 32.255 72.043 72.043 72.043z" fill="#27a6ff"/><path d="m262.204 249.505h-15.627c-1.379 0-2.562-.833-3.079-2.021l-.037.087c-1.732.566-5.806 2.254-7.863 6.067-1.353 2.508-1.578 5.413-.674 8.65l-.411.207h.422c1.856 0 3.36 1.504 3.36 3.36v40.678c0 4.944 6.561 6.675 9 2.374l24.422-43.073c4.133-7.29-1.133-16.329-9.513-16.329z" fill="#fef156"/><path d="m244.628 248.873c-.852-.61-1.411-1.601-1.411-2.729v-40.678c0-4.944-6.561-6.675-9-2.374l-24.421 43.073c-4.133 7.29 1.133 16.329 9.513 16.329h15.627c.709 0 1.365.222 1.907.597l.002-.001c-4.153-11.395 7.782-14.214 7.782-14.214z" fill="#ffc242"/></g><path d="m159.099 114.496h-36.443c-9.749 0-17.725-7.976-17.725-17.725 0-9.748 7.976-17.725 17.725-17.725h36.443c9.748 0 17.725 7.976 17.725 17.725 0 9.748-7.976 17.725-17.725 17.725z" fill="#3f57a0"/><path d="m406.931 433.284h-36.443c-9.749 0-17.725-7.976-17.725-17.724 0-9.749 7.976-17.725 17.725-17.725h36.443c9.748 0 17.725 7.976 17.725 17.725-.001 9.748-7.977 17.724-17.725 17.724z" fill="#3f57a0"/><path d="m411.404 76.187c-2.622 1.801-5.794 2.86-9.215 2.86h-33.125c-9.002 0-16.3-7.298-16.3-16.3 0-9.002 7.298-16.3 16.3-16.3h2.94c-37.034-22.495-80.504-35.449-127.002-35.449-6.517 0-12.973.262-19.362.761-7.279 2.206-12.62 8.988-12.62 16.963 0 9.749 7.976 17.725 17.725 17.725h72.91c8.713 0 16.262 6.613 16.803 15.309.523 8.473-5.292 17.29-14.28 17.29h-14.572c-9.748 0-17.724 7.976-17.724 17.724 0 9.749 7.976 17.725 17.725 17.725h153.42c-9.861-13.914-21.14-26.751-33.623-38.308z" fill="#3f57a0"/></g></svg>