<svg id="Layer_1" enable-background="new 0 0 512 512" height="512" viewBox="0 0 512 512" width="512" xmlns="http://www.w3.org/2000/svg"><g><path d="m254.001 21.996c-135.311 0-245.002 109.691-245.002 245.002 0 99.036 58.766 184.339 143.325 222.963l21.363 8.556c25.163 8.727 52.181 13.483 80.314 13.483 26.07 0 51.181-4.087 74.747-11.629l21.412-7.972c87.51-37.382 148.843-124.225 148.843-225.402 0-135.31-109.691-245.001-245.002-245.001z" fill="#fef156"/><path d="m108.538 269.199h-40.112c-9.789 0-17.724 7.935-17.724 17.724 0 9.789 7.936 17.725 17.724 17.725h40.521c10.324 0 18.66-8.945 17.64-19.468-.888-9.147-8.859-15.981-18.049-15.981z" fill="#fcfbe8"/><path d="m20.649 192.184h93.505c9.749 0 17.725-7.976 17.725-17.725s-7.976-17.725-17.725-17.725h-31.345c-8.713 0-16.262-6.613-16.803-15.309-.523-8.473 5.292-17.29 14.28-17.29h64.854c9.748 0 17.724-7.976 17.724-17.724 0-9.748-7.976-17.725-17.725-17.725h-59.141c-29.801 28.089-52.555 63.562-65.349 103.498z" fill="#fcfbe8"/><path d="m489.657 334.22h-75.043c-9.749 0-17.725 7.976-17.725 17.725s7.976 17.725 17.725 17.725h15.324c8.713 0 16.263 6.613 16.803 15.31.523 8.473-5.292 17.29-14.28 17.29h-48.286c-9.748 0-17.724 7.976-17.724 17.724 0 9.749 7.976 17.725 17.725 17.725h45.546c27.819-28.628 48.697-64.033 59.935-103.499z" fill="#fcfbe8"/><g><path d="m314.13 203.245c-2.699 0-5.404-.987-7.527-2.98l-117.65-110.459c-4.429-4.158-4.648-11.12-.49-15.549 4.159-4.429 11.12-4.648 15.549-.49l117.65 110.458c4.429 4.158 4.648 11.12.49 15.549-2.166 2.306-5.091 3.471-8.022 3.471z" fill="#1d2e79"/></g><g><path d="m325.474 345.018c-2.874 0-5.744-1.119-7.902-3.347l-137.324-141.773c-4.227-4.364-4.116-11.328.248-15.555 4.364-4.226 11.327-4.116 15.555.248l137.323 141.773c4.227 4.364 4.115 11.328-.248 15.555-2.136 2.069-4.897 3.099-7.652 3.099z" fill="#1d2e79"/></g><path d="m184.464 326.119c-4.362-4.228-11.327-4.118-15.555.244-4.228 4.363-4.118 11.327.244 15.555l161.754 156.752c6.491-2.144 12.864-4.545 19.102-7.205.066-2.955-1.04-5.927-3.33-8.146z" fill="#1d2e79"/><path d="m189.835 57.505-47.087-53.752c-4.004-4.57-10.954-5.03-15.522-1.026-4.57 4.003-5.029 10.953-1.026 15.522l61.097 69.746z" fill="#1d2e79"/><path d="m375.056 2.726c-4.57-4.004-11.521-3.543-15.522 1.026l-58.722 67.034h-93.017l-1.832 22h99.836c3.17 0 6.186-1.367 8.274-3.752l62.009-70.786c4.003-4.569 3.544-11.519-1.026-15.522z" fill="#2a428b"/><g><path d="m320.775 274.031c-2.572 0-5.156-.898-7.243-2.726-4.57-4.003-5.029-10.953-1.026-15.522l62.009-70.786c4.002-4.569 10.952-5.03 15.523-1.026 4.57 4.003 5.029 10.953 1.026 15.523l-62.009 70.786c-2.175 2.481-5.219 3.751-8.28 3.751z" fill="#2a428b"/></g><g><path d="m181.505 274.031c-3.06 0-6.104-1.27-8.279-3.752l-62.008-70.786c-4.003-4.569-3.543-11.52 1.026-15.523 4.568-4.003 11.519-3.544 15.522 1.026l62.008 70.786c4.003 4.569 3.543 11.52-1.026 15.522-2.086 1.829-4.67 2.727-7.243 2.727z" fill="#1d2e79"/></g><g><path d="m325.468 345.018c-2.572 0-5.156-.898-7.243-2.726-4.57-4.003-5.029-10.953-1.026-15.522l62.008-70.785c4.002-4.569 10.952-5.03 15.522-1.026 4.57 4.003 5.029 10.953 1.026 15.523l-62.008 70.785c-2.175 2.482-5.219 3.751-8.279 3.751z" fill="#2a428b"/></g><g><path d="m176.813 345.018c-3.06 0-6.104-1.27-8.279-3.752l-62.008-70.785c-4.003-4.569-3.543-11.52 1.026-15.523s11.519-3.544 15.522 1.026l62.008 70.785c4.003 4.569 3.543 11.52-1.026 15.522-2.086 1.83-4.67 2.727-7.243 2.727z" fill="#1d2e79"/></g><path d="m162.921 380.758-47.116-53.786c-4.003-4.57-10.954-5.029-15.522-1.026-4.57 4.003-5.029 10.953-1.026 15.522l61.126 69.78z" fill="#1d2e79"/><path d="m401.999 325.946c-4.57-4.004-11.52-3.543-15.522 1.026l-58.722 67.034h-146.871l-1.832 22h153.69c3.17 0 6.186-1.367 8.274-3.752l62.009-70.786c4.003-4.569 3.544-11.519-1.026-15.522z" fill="#2a428b"/><g><path d="m188.151 203.245c-2.932 0-5.856-1.165-8.021-3.471-4.158-4.429-3.938-11.391.49-15.549l117.649-110.458c4.429-4.157 11.391-3.938 15.549.49 4.158 4.429 3.939 11.391-.49 15.549l-117.649 110.458c-2.123 1.993-4.829 2.981-7.528 2.981z" fill="#2a428b"/></g><g><path d="m176.808 345.018c-2.756 0-5.516-1.029-7.652-3.099-4.364-4.227-4.475-11.19-.248-15.555l137.322-141.773c4.227-4.364 11.19-4.475 15.555-.248 4.363 4.227 4.475 11.19.248 15.555l-137.323 141.774c-2.157 2.227-5.028 3.346-7.902 3.346z" fill="#2a428b"/></g><path d="m317.817 326.119-162.215 157.2c-1.658 1.607-2.698 3.609-3.123 5.714 6.64 3.027 13.443 5.757 20.385 8.193l160.264-155.309c4.362-4.228 4.472-11.191.244-15.555-4.228-4.361-11.19-4.471-15.555-.243z" fill="#2a428b"/><path d="m310.087 11.088c-.504-6.055-5.823-10.561-11.875-10.049-6.054.504-10.553 5.82-10.049 11.875l40.586 487.457c7.291-2.333 14.436-4.992 21.412-7.972z" fill="#3f57a0"/><path d="m173.687 498.516 40.431-485.602c.504-6.055-3.995-11.371-10.049-11.875-6.049-.512-11.371 3.995-11.874 10.049l-39.87 478.873c6.951 3.175 14.08 6.029 21.362 8.555z" fill="#2a428b"/><g><path d="m382.922 22.001h-263.563c-6.075 0-11-4.925-11-11s4.925-11 11-11h263.562c6.075 0 11 4.925 11 11s-4.924 11-10.999 11z" fill="#5071b7"/></g><g fill="#3f57a0"><path d="m209.38 11.001c0-6.075 4.925-11 11-11h-101.02c-6.075 0-11 4.925-11 11s4.925 11 11 11h101.02c-6.076 0-11-4.925-11-11z"/><path d="m189.706 263.233c0-6.075 4.925-11 11-11h-101.02c-6.075 0-11 4.925-11 11s4.925 11 11 11h101.02c-6.075 0-11-4.925-11-11z"/><path d="m183.436 334.22c0-6.075 4.925-11 11-11h-101.02c-6.075 0-11 4.925-11 11s4.925 11 11 11h101.02c-6.075 0-11-4.924-11-11z"/><path d="m193.398 192.245c0-6.075 4.925-11 11-11h-101.02c-6.075 0-11 4.925-11 11s4.925 11 11 11h101.02c-6.075 0-11-4.925-11-11z"/></g><path d="m327.132 11.001c0-6.075 4.925-11 11-11h-119.752c-6.075 0-11 4.925-11 11s4.925 11 11 11h119.752c-6.075 0-11-4.925-11-11z" fill="#5071b7"/><path d="m393.922 11.001c0-6.075-4.925-11-11-11h-46.79c-6.075 0-11 4.925-11 11s4.925 11 11 11h46.79c6.075 0 11-4.925 11-11z" fill="#6289cd"/><path d="m413.595 263.233c0-6.075-4.925-11-11-11h-203.889c-6.075 0-11 4.925-11 11s4.925 11 11 11h203.888c6.076 0 11.001-4.925 11.001-11z" fill="#5071b7"/><path d="m419.865 334.22c0-6.075-4.925-11-11-11h-216.429c-6.075 0-11 4.925-11 11s4.925 11 11 11h216.429c6.075 0 11-4.924 11-11z" fill="#5071b7"/><path d="m409.903 192.245c0-6.075-4.925-11-11-11h-196.505c-6.075 0-11 4.925-11 11s4.925 11 11 11h196.505c6.075 0 11-4.925 11-11z" fill="#5071b7"/><g><path d="m385.227 99.553c-1.099 7.736 2.25 15.682 9.954 23.629v68.246l34.607 36.429c.199 4.01 1.785 19.811 14.453 29.307 7.084 5.31 16.283 7.612 27.449 6.94 19.291-18.587 31.312-44.668 31.312-73.572 0-56.433-45.748-102.18-102.18-102.18-3.727 0-7.404.212-11.028.601-2.157 2.878-3.975 6.425-4.567 10.6z" fill="#02c0fc"/><path d="m400.821 292.713c28.772 0 54.749-11.91 73.319-31.047-42.067 4.176-42.136-34.734-42.136-34.734l-34.579-36.4v-68.269c-15.153-15.153-10.422-26.82-4.512-33.577-52.733 4.041-94.272 48.078-94.272 101.846 0 56.433 45.747 102.181 102.18 102.181z" fill="#27a6ff"/><path d="m431.241 181.32h-22.164c-1.956 0-3.633-1.181-4.367-2.867l-.052.124c-2.457.803-8.235 3.196-11.152 8.605-1.92 3.557-2.238 7.677-.955 12.269l-.583.294h.599c2.632 0 4.766 2.134 4.766 4.766v57.695c0 7.012 9.306 9.467 12.765 3.367l34.638-61.092c5.86-10.34-1.609-23.161-13.495-23.161z" fill="#fef156"/><path d="m406.313 180.424c-1.208-.865-2.002-2.271-2.002-3.87v-57.695c0-7.013-9.306-9.467-12.765-3.367l-34.638 61.092c-5.862 10.34 1.606 23.16 13.493 23.16h22.164c1.006 0 1.936.315 2.705.847l.002-.001c-5.891-16.162 11.038-20.16 11.038-20.16z" fill="#ffc242"/></g></g></svg>