<svg id="Layer_1" enable-background="new 0 0 512 512" height="512" viewBox="0 0 512 512" width="512" xmlns="http://www.w3.org/2000/svg"><g><path d="m491.905 200.653c-19.186-68.358-67.279-124.62-130.264-154.767l-148.489-20.15c-98.182 17.319-176.185 93.104-196.79 190.112l51.092 207.596c44.94 54.102 112.717 88.556 188.546 88.556 135.311 0 245.002-109.691 245.002-245.002 0-9.081-.51-18.041-1.472-26.866z" fill="#fe3d97"/><path d="m295.202 25.133 43.596 43.596 22.843-22.843c-20.703-9.909-43.017-16.986-66.439-20.753z" fill="#2a428b"/><g><path d="m408.046 305.979c-42.35 0-76.804-34.455-76.804-76.804 0-20.516 7.989-39.803 22.495-54.309 3.922-3.92 10.276-3.92 14.198 0 3.921 3.921 3.921 10.277 0 14.198-10.715 10.714-16.615 24.959-16.615 40.111 0 31.279 25.447 56.726 56.726 56.726 13.764 0 27.036-4.99 37.373-14.051 4.169-3.655 10.514-3.237 14.167.931 3.655 4.17 3.238 10.512-.931 14.167-14 12.272-31.973 19.031-50.609 19.031z" fill="#6ad9fb"/></g><path d="m389.967 339.603c2.378 2.931 6.407 4.237 11.972 3.923l61.594-61.594-.848-.97c-1.596 1.684-3.259 3.315-5.02 4.858-3.55 3.116-8.95 2.744-12.049-.793-3.112-3.549-2.756-8.938.793-12.049 1.771-1.553 3.43-3.206 4.982-4.942l-1.048-1.2-62.436 62.437c-.439 2.699-.585 7.068 2.06 10.33z" fill="#ade9f7"/><path d="m346.527 370.652c-3.905 3.905-3.905 10.237 0 14.142 3.907 3.905 10.236 3.905 14.143 0l42.895-42.896c-19.21 2.149-13.666-14.619-13.666-14.619z" fill="#6ad9fb"/><path d="m491.905 200.653c-1.316 9.597-4.219 18.812-8.585 27.336.006.396.03.788.03 1.186 0 19.858-7.866 38.826-21.718 52.871l.833.953 19.234-19.234c7.115-7.115 13.079-15.07 17.83-23.633-1.474-13.52-4.041-26.711-7.624-39.479z" fill="#6ad9fb"/><path d="m230.101 461.195c-3.979-3.979-3.979-10.43 0-14.409l13.617-13.617c3.979-3.979 10.43-3.979 14.409 0s3.979 10.43 0 14.409l-13.617 13.617c-3.979 3.979-10.43 3.979-14.409 0z" fill="#fef156"/><path d="m270.127 501.22c-3.979-3.979-3.979-10.43 0-14.409l13.617-13.617c3.979-3.979 10.43-3.979 14.409 0s3.979 10.43 0 14.409l-13.617 13.617c-3.979 3.979-10.43 3.979-14.409 0z" fill="#fef156"/><path d="m257.06 434.236c-3.979-3.979-10.43-3.979-14.409 0l23.037-23.037 14.409 14.409-23.037 23.037c3.979-3.979 3.979-10.43 0-14.409z" fill="#ffc242"/><path d="m297.086 474.262c-3.979-3.979-10.43-3.979-14.409 0l23.037-23.037 14.409 14.409-23.037 23.037c3.979-3.979 3.979-10.43 0-14.409z" fill="#ffc242"/><path d="m321.462 471.242-25.173-25.173c-3.647-6.982-11.037-11.037-11.037-11.037l-2.758-2.759c-2.889-2.889-2.889-7.573 0-10.463l18.73-18.73c5.948-5.948 14.247-8.92 22.619-8.099 8.372.82 16.671-2.151 22.619-8.099 5.834-5.834 14.849-6.545 21.461-2.137l.229-.079c5.312 6.681 4.882 16.428-1.298 22.607-5.948 5.948-8.92 14.247-8.099 22.619.82 8.372-2.151 16.671-8.099 22.619l-18.73 18.73c-2.891 2.891-7.575 2.891-10.464.001z" fill="#e8f8fc"/><path d="m347.529 387.95c-5.948 5.948-14.247 8.92-22.619 8.099-8.372-.82-16.671 2.151-22.619 8.099l-18.73 18.73c-2.889 2.889-2.889 7.574 0 10.463l-23.482-23.482c-2.889-2.889-2.889-7.574 0-10.463l18.73-18.73c5.948-5.948 14.247-8.92 22.619-8.099 8.372.82 16.671-2.151 22.619-8.099 6.646-6.646 17.422-6.646 24.068 0l18.739 18.739c.812.812 1.523 1.686 2.136 2.606-6.612-4.408-15.627-3.697-21.461 2.137z" fill="#ade9f7"/><path d="m308.964 433.394-12.676 12.676-11.037-11.037 12.676-12.676c3.035-3.035 8.002-3.035 11.037 0 3.036 3.035 3.036 8.002 0 11.037z" fill="#5071b7"/><path d="m428.232 176.173c-3.366-11.159 5.893-15.725 10.692-17.3-9.456-4.17-19.897-6.503-30.878-6.503-20.515 0-39.802 7.989-54.308 22.495-3.922 3.921-3.922 10.276-.001 14.197 3.922 3.921 10.277 3.921 14.197.001 10.716-10.714 24.96-16.615 40.112-16.615 7.109 0 13.91 1.327 20.186 3.725z" fill="#ade9f7"/><path d="m437.186 158.128c-5.049 1.823-13.505 6.641-9.723 17.745 21.745 7.946 37.309 28.839 37.309 53.301 0 16.34-7.054 31.894-19.352 42.675-4.169 3.655-4.586 9.997-.931 14.167 1.984 2.264 4.762 3.422 7.553 3.422 2.349 0 4.709-.82 6.614-2.49 16.647-14.593 26.195-35.651 26.195-57.773-.001-32.039-19.727-59.545-47.665-71.047z" fill="#e8f8fc"/><path d="m347.479 75.258-43.444-43.444c-5.682.243-26.176 2.115-38.573 16.378-7.881 9.066-10.843 21.321-8.809 36.434l-80.502 80.502c-3.3-.048-17.404.252-25.223 9.162-4.619 5.264-6.122 12.479-4.466 21.445 2.203 11.933-10.955 29.484-38.053 50.757-19.266 15.125-39.381 27.188-42.346 28.945-2.843-.069-17.435.035-25.441 9.157-4.619 5.264-6.121 12.478-4.465 21.445 1.632 8.838-3.73 16.551-11.972 23.006l23.999 67.741c5.835 9.323 12.27 18.232 19.269 26.657l280.026-280.026c18.744-18.743 18.744-49.415 0-68.159z" fill="#e8f8fc"/><path d="m218.12 14.058-201.765 201.764c-3.508 16.505-5.357 33.624-5.357 51.176 0 10.157.633 20.165 1.834 29.998l11.877 33.524c8.853-6.835 14.704-15.121 12.925-24.753-5.654-30.62 28.816-28.816 28.816-28.816s87.143-50.868 81.489-81.489c-5.654-30.62 28.816-28.816 28.816-28.816l81.489-81.489c-7.533-52.093 47.256-51.88 47.256-51.88l-19.219-19.219c-18.746-18.744-49.418-18.744-68.161 0z" fill="#ade9f7"/><path d="m194.544 166.396c3.553-2.295 7.771-2.691 12.54-1.177 20.858 6.623 29.214-9.848 30.123-11.808l7.838-7.838c17.118-10.104 13.149-25.918 11.996-29.449l18.43-13.738-17.229-17.229c-22.83-14.548-53.476-11.858-73.411 8.078-19.935 19.935-22.625 50.581-8.077 73.411l9.973 9.973c1.736-3.979 4.242-7.913 7.817-10.223z" fill="#5071b7"/><path d="m276.38 103.295-1.593-1.593-18.884 14.076s7.454 17.956-11.449 29.031l-8.048 8.048s-7.566 18.264-29.031 11.449c-11.497-3.651-17.906 3.839-21.379 11.581l8.896 8.896c22.83 14.548 53.476 11.858 73.411-8.077s22.625-50.581 8.077-73.411z" fill="#3f57a0"/><path d="m215.014 123.418c-4.445 4.445-11.652 4.445-16.097 0s-4.445-11.652 0-16.096c4.445-4.445 11.652-4.445 16.096 0 4.446 4.444 4.446 11.651.001 16.096z" fill="#1d2e79"/><path d="m254.216 162.62c-4.445 4.445-11.652 4.445-16.096 0-4.445-4.445-4.445-11.652 0-16.097s11.652-4.445 16.096 0c4.445 4.445 4.445 11.652 0 16.097z" fill="#1d2e79"/><circle cx="226.567" cy="134.97" fill="#fef156" r="5.691"/><path d="m268.302 93.235c-3.115-3.115-6.493-5.805-10.06-8.078l-12.483 12.483c-2.208 2.207-2.208 5.786 0 7.994l10.143 10.143c2.208 2.207 5.787 2.207 7.994 0l12.483-12.483c-2.272-3.566-4.962-6.944-8.077-10.059z" fill="#2a428b"/><path d="m189.237 154.163-12.483 12.483c2.273 3.567 4.963 6.945 8.078 10.06s6.493 5.805 10.06 8.078l12.483-12.483c2.207-2.208 2.207-5.787 0-7.994l-10.143-10.143c-2.209-2.208-5.788-2.208-7.995-.001z" fill="#2a428b"/><path d="m84.239 276.701c3.552-2.295 7.771-2.691 12.54-1.177 20.858 6.623 29.214-9.848 30.123-11.808l7.838-7.838c17.118-10.104 13.149-25.918 11.996-29.449l18.43-13.738-17.229-17.229c-22.83-14.548-53.476-11.858-73.411 8.078-19.935 19.935-22.625 50.581-8.077 73.411l9.973 9.973c1.736-3.98 4.242-7.913 7.817-10.223z" fill="#5071b7"/><path d="m166.075 213.599-1.593-1.593-18.884 14.077s7.454 17.956-11.449 29.031l-8.048 8.048s-7.566 18.264-29.031 11.449c-11.497-3.651-17.906 3.839-21.379 11.581l8.896 8.896c22.83 14.548 53.476 11.858 73.411-8.077s22.625-50.581 8.077-73.412z" fill="#3f57a0"/><path d="m104.71 233.723c-4.445 4.445-11.652 4.445-16.097 0s-4.445-11.652 0-16.097 11.652-4.445 16.096 0c4.446 4.445 4.446 11.652.001 16.097z" fill="#1d2e79"/><path d="m143.911 272.924c-4.445 4.445-11.652 4.445-16.097 0s-4.445-11.652 0-16.097 11.652-4.445 16.097 0c4.445 4.446 4.445 11.652 0 16.097z" fill="#1d2e79"/><path d="m120.286 249.299c-2.222 2.223-5.826 2.223-8.048 0s-2.222-5.826 0-8.048 5.826-2.222 8.048 0c2.223 2.222 2.223 5.826 0 8.048z" fill="#fef156"/><path d="m157.998 203.54c-3.115-3.115-6.493-5.805-10.06-8.078l-12.483 12.483c-2.208 2.207-2.208 5.786 0 7.994l10.143 10.143c2.208 2.207 5.787 2.207 7.994 0l12.483-12.483c-2.273-3.567-4.963-6.945-8.077-10.059z" fill="#2a428b"/><path d="m78.932 264.468-12.483 12.483c2.273 3.567 4.963 6.945 8.078 10.06s6.493 5.805 10.06 8.078l12.483-12.483c2.207-2.207 2.207-5.787 0-7.994l-10.143-10.143c-2.208-2.209-5.787-2.209-7.995-.001z" fill="#2a428b"/><path d="m37.633 305.767c-7.626-4.859-16.126-7.772-24.806-8.785 2.78 22.776 8.677 44.589 17.266 64.992 10.456-9.815 7.341-22.17 6.339-25.241l18.43-13.738z" fill="#5071b7"/><path d="m54.177 322.311-18.884 14.076s5.692 13.771-5.591 24.632c5.192 12.482 11.389 24.438 18.486 35.776 19.473-19.945 22.006-50.256 7.583-72.892z" fill="#3f57a0"/><path d="m47.693 313.844c-3.115-3.115-6.493-5.805-10.06-8.078l-12.483 12.484c-2.208 2.207-2.208 5.787 0 7.994l10.143 10.143c2.208 2.207 5.787 2.207 7.994 0l12.483-12.483c-2.272-3.567-4.962-6.945-8.077-10.06z" fill="#2a428b"/></g></svg>