<svg id="Layer_1" enable-background="new 0 0 512 512" height="512" viewBox="0 0 512 512" width="512" xmlns="http://www.w3.org/2000/svg"><g><path d="m470.676 403.162-5.304-279.95c-44.53-61.328-116.788-101.216-198.374-101.216-135.311 0-245.002 109.691-245.002 245.002 0 70.822 30.062 134.613 78.107 179.344h333.789c13.858-12.902 26.208-27.397 36.784-43.18z" fill="#27a6ff"/><path d="m190.852 251.144h-40.112c-9.789 0-17.725 7.936-17.725 17.725 0 9.789 7.936 17.724 17.725 17.724h40.521c10.324 0 18.66-8.945 17.64-19.468-.887-9.147-8.859-15.981-18.049-15.981z" fill="#02c0fc"/><path d="m390.518 131.36c-9.002 0-16.299-7.298-16.299-16.3 0-9.002 7.297-16.3 16.299-16.3h54.553c-12.582-13.312-26.634-25.218-41.905-35.449h-159.265c-9.748 0-17.725 7.976-17.725 17.725s7.976 17.725 17.725 17.725h71.628c8.713 0 16.262 6.613 16.803 15.31.523 8.473-5.292 17.29-14.28 17.29h-17.19c-9.748 0-17.724 7.976-17.724 17.724 0 9.749 7.976 17.725 17.725 17.725h165.335l-.672-35.449h-75.008z" fill="#02c0fc"/><path d="m249.497 444.341c-26.001 12.744-26.887 53.583-1.04 66.964 6.121.458 12.303.694 18.541.694 65.544 0 125.077-25.738 169.043-67.659h-186.544z" fill="#3f57a0"/><g><path d="m251.904 444.341h-153.949c40.399 38.52 93.946 63.358 153.219 67.138-28.487-11.823-27.619-55.799.73-67.138z" fill="#2a428b"/></g><g><path d="m255.5 311.504c-5.523 0-10-4.478-10-10 0-23.022 18.728-41.75 41.75-41.75h28.689c5.522 0 10 4.477 10 10 0 5.522-4.478 10-10 10h-28.689c-11.993 0-21.75 9.757-21.75 21.75 0 5.523-4.478 10-10 10z" fill="#2a428b"/></g><g><path d="m370.217 418.766v-17.695h-5.738c-1.651 0-3.225-.327-4.677-.902-5.029 1.14-10.332 1.229-15.579.119-12.266-2.595-22.872-6.736-31.285-10.824v29.303c0 14.844 12.145 26.988 26.988 26.988h55.709c.263 0 .523-.012.785-.02-14.483-.421-26.203-12.389-26.203-26.969z" fill="#1d2e79"/></g><path d="m422.624 418.766v-17.695h-2.866-12.366c-.019 0-.038 0-.058 0h-39.117v17.695c0 14.844 12.145 26.988 26.988 26.988h.43c14.844 0 26.989-12.145 26.989-26.988z" fill="#2a428b"/><g><path d="m337.674 245.307h-20.121c-12.381 0-22.511-10.13-22.511-22.511v-7.982c0-12.381 10.13-22.511 22.511-22.511h20.121c12.381 0 22.511 10.13 22.511 22.511v7.982c0 12.381-10.13 22.511-22.511 22.511z" fill="#e8f8fc"/></g><path d="m489.247 370.183h-77.979c-11.832 0-22.926 5.749-29.748 15.416-5.893 8.35-14.885 13.657-24.646 15.043 2.137 1.575 4.764 2.519 7.606 2.519h106.196c7.003-10.451 13.218-21.472 18.571-32.978z" fill="#3f57a0"/><path d="m426.843 163.581c-3.684 32.488 2.024 38.782 16.939 46.304 2.672 1.348 4.76 2.704 6.278 4.062h56.162c-7.351-33.296-21.472-64.045-40.852-90.735h-4.736c-9.388 3.598-30.865 14.567-33.791 40.369z" fill="#2a428b"/><path d="m465.371 123.212h-41.917c-21.104 0-39.832 13.524-46.47 33.556l-18.947 57.179h88.767c.786-2.318.223-4.22-2.347-5.402-14.042-6.454-19.791-12.462-16.125-44.796 3.668-32.332 37.039-40.537 37.039-40.537z" fill="#1d2e79"/><path d="m467.296 282.342c-34.63 0-39.455-16.535-53.421-40.476-.13-.222-.268-.433-.4-.652-.288.076-.575.152-.844.221-1.721-.021-11.892.134-17.008 7.286-3.753 5.249-3.761 12.814-.022 22.485 10.492 27.14-1.591 35.45-2.102 35.785l-.137.098c-.296.239-7.325 5.946-14.175 14.847-9.158 11.9-13.483 23.805-12.509 34.426.961 10.472 6.912 19.803 17.681 27.855 6.851-7.518 16.598-11.885 26.908-11.885h76.984c13.142-27.545 21.274-57.934 23.256-89.989-16.982-.001-33.193-.001-44.211-.001z" fill="#fef156"/><path d="m381.519 387.747c1.169-1.656 2.472-3.188 3.874-4.605-43.695-32.456 8.91-74.884 8.91-74.884s13.828-8.796 2.697-37.592 15.801-27.725 15.801-27.725.453-.277 1.246-.776c-.058-.1-.113-.197-.172-.297-12.631-21.653-36.936-27.133-48.435-28.52-2.46.195-4.927.395-7.402.602 0 0-51.542 16.345-51.542 45.218v5.734c0 6.75-1.819 13.409-5.453 19.097-4.111 6.434-9.043 17.758-9.043 35.056v40.192c0 13.375 7.526 25.628 19.489 31.608 8.623 4.311 19.767 8.782 32.735 11.526 14.236 3.009 28.905-2.745 37.295-14.634z" fill="#ffc242"/><path d="m504.497 206.629c-25.512.485-83.876 2.103-146.459 7.318 0 0 37.851 0 54.763 28.992 13.966 23.941 18.791 40.476 53.421 40.476h45.215c.359-5.428.563-10.899.563-16.418 0-20.833-2.609-41.056-7.503-60.368z" fill="#ffd402"/><g><path d="m347.566 336.645h-8.048c-14.618 0-26.579 11.961-26.579 26.579 0 14.619 11.961 26.579 26.579 26.579h8.048c14.618 0 26.579-11.961 26.579-26.579 0-14.619-11.961-26.579-26.579-26.579z" fill="#fea53d"/></g><ellipse cx="372.998" cy="287.944" fill="#02c0fc" rx="36.973" ry="36.973" transform="matrix(.23 -.973 .973 .23 7.06 584.808)"/><ellipse cx="384.665" cy="275.9" fill="#6ad9fb" rx="20.267" ry="20.267" transform="matrix(.707 -.707 .707 .707 -82.425 352.808)"/><path d="m443.225 270.665c-7.013 0-12.751 5.738-12.751 12.751s5.738 12.751 12.751 12.751h67.034c.995-8.378 1.565-16.885 1.692-25.502z" fill="#3f57a0"/><g><path d="m330.316 371.4c-10.627 0-19.323-8.695-19.323-19.322 0-10.627 8.695-19.323 19.322-19.323 10.627 0 19.322 8.695 19.322 19.323.002 10.627-8.693 19.322-19.321 19.322z" fill="#fc753f"/></g><path d="m121.983 66.047h-4.108c-8.114.237-36.875 3.357-36.875 35.707v114.286s-2.051 21.954 23.85 29.832l-21.35 131.882v25.465l-1.142 1.798h69.906v-308.689c0-16.654-13.626-30.281-30.281-30.281z" fill="#94dc79"/><path d="m106.85 245.872c-25.901-7.877-23.85-29.832-23.85-29.832s0-76.624 0-114.286c0-32.35 28.761-35.47 36.875-35.707h-70.858c-16.654 0-30.281 13.626-30.281 30.281v308.688h65.622l1.142-1.798c0-14.064 11.401-25.464 25.465-25.464h.285l-14.417-8.004z" fill="#47cb8f"/><path d="m86.5 33.526c0-18.223 14.738-33.162 32.882-33.51-.215-.004-.428-.016-.644-.016h-66.476c-18.44 0-33.526 15.087-33.526 33.526 0 18.439 15.087 33.526 33.526 33.526h66.477c.216 0 .429-.012.644-.016-18.145-.348-32.883-15.287-32.883-33.51z" fill="#ade9f7"/><path d="m118.882.004c-18.373.078-33.382 15.131-33.382 33.522 0 18.391 15.009 33.444 33.382 33.522 18.373-.079 33.382-15.131 33.382-33.522 0-18.391-15.008-33.444-33.382-33.522z" fill="#e8f8fc"/><path d="m112.833 245.872-4.982.001c-13.393 0-24.351 10.958-24.351 24.351v83.18c0 13.387 10.948 24.34 24.332 24.35h5.001c6.6 0 12-5.4 12-12v-107.882c0-6.6-5.4-12-12-12z" fill="#e8f8fc"/><path d="m85.5 353.403v-83.18c0-13.393 10.958-24.351 24.351-24.351h-51.684c-6.6 0-12 5.4-12 12v107.882c0 6.6 5.4 12 12 12h51.684c-13.393 0-24.351-10.958-24.351-24.351z" fill="#ade9f7"/><path d="m159 403.219h-77c-6.6 0-12 5.4-12 12v18.535c0 6.6 5.4 12 12 12h77c6.6 0 12-5.4 12-12v-18.535c0-6.6-5.4-12-12-12z" fill="#e8f8fc"/><path d="m72 433.754v-18.535c0-6.6 5.4-12 12-12h-72c-6.6 0-12 5.4-12 12v18.535c0 6.6 5.4 12 12 12h72c-6.6 0-12-5.4-12-12z" fill="#ade9f7"/><g><path d="m96.416 342.334h-21.832c-7.389 0-13.435-6.046-13.435-13.435v-34.172c0-7.389 6.046-13.434 13.435-13.434h21.832c7.389 0 13.435 6.046 13.435 13.434v34.172c-.001 7.389-6.046 13.435-13.435 13.435z" fill="#02c0fc"/></g><g><path d="m223.75 424.754c-23.021 0-41.75-18.729-41.75-41.75v-39.441c0-11.993-9.757-21.75-21.75-21.75h-12.986c-5.523 0-10-4.478-10-10s4.477-10 10-10h12.986c23.021 0 41.75 18.728 41.75 41.75v39.441c0 11.993 9.757 21.75 21.75 21.75 5.523 0 10 4.477 10 10s-4.477 10-10 10z" fill="#2a428b"/></g><g><path d="m223.75 424.754c-5.523 0-10-4.478-10-10 0-5.523 4.477-10 10-10 11.993 0 21.75-9.757 21.75-21.75v-81.5c0-5.523 4.477-10 10-10 5.522 0 10 4.477 10 10v81.5c0 23.022-18.729 41.75-41.75 41.75z" fill="#3f57a0"/></g><path d="m125.856 311.813c0-7.456 6.044-13.5 13.5-13.5h-51.513c-7.456 0-13.5 6.044-13.5 13.5s6.044 13.5 13.5 13.5h51.514c-7.457 0-13.501-6.044-13.501-13.5z" fill="#3f57a0"/><path d="m165.764 311.813c0-7.456-6.044-13.5-13.5-13.5h-14.907c-7.456 0-13.5 6.044-13.5 13.5s6.044 13.5 13.5 13.5h14.907c7.456 0 13.5-6.044 13.5-13.5z" fill="#5071b7"/><g><g><path d="m245.598 178.594h-19.561c-1.727 0-3.207-1.042-3.854-2.53l-.046.109c-2.169.709-7.268 2.821-9.842 7.594-1.694 3.14-1.975 6.776-.843 10.828l-.515.259h.529c2.323 0 4.206 1.883 4.206 4.206v50.92c0 6.189 8.213 8.355 11.266 2.971l30.57-53.918c5.172-9.124-1.42-20.439-11.91-20.439z" fill="#fef156"/></g><g><path d="m223.597 177.804c-1.066-.763-1.767-2.005-1.767-3.416v-50.92c0-6.189-8.213-8.355-11.266-2.972l-30.57 53.918c-5.174 9.126 1.418 20.441 11.908 20.441h19.562c.888 0 1.709.278 2.387.748l.002-.001c-5.199-14.264 9.741-17.793 9.741-17.793z" fill="#ffc242"/></g></g><path d="m110.55 101.754h-51.077c-7.318 0-13.306 5.988-13.306 13.306s5.988 13.306 13.306 13.306h51.078c7.318 0 13.306-5.988 13.306-13.306-.001-7.318-5.988-13.306-13.307-13.306z" fill="#26b26f"/></g></svg>