<svg id="Layer_1" enable-background="new 0 0 512 512" height="512" viewBox="0 0 512 512" width="512" xmlns="http://www.w3.org/2000/svg"><g><path d="m256 21.996c-60.033 0-115.013 21.604-157.618 57.446l107.528 427.425c16.171 3.36 32.923 5.133 50.09 5.133 135.311 0 245.002-109.691 245.002-245.002s-109.691-245.002-245.002-245.002z" fill="#fef156"/><path d="m419.834 250.463c3.596 6.129 11.1 14.179 23.92 7.891 10.722-33.084 16.382-68.024 16.382-103.686v-2.824c0-6.903-5.597-12.5-12.5-12.5s-12.5 5.597-12.5 12.5c-.154.619 2.295 43.57-15.302 98.619z" fill="#3f57a0"/><path d="m420.599 248.056c-9.431 30.31-24.919 64.472-50.326 97.344-5.905 23.528-15.585 45.557-28.37 65.399 48.205-41.093 83.49-94.701 102.418-154.231-12.841 6.034-20.262-2.41-23.722-8.512z" fill="#1d2e79"/><path d="m418.334 0c-5.627 0-10.189 4.562-10.189 10.189v19.257c0 5.627 4.561 10.189 10.189 10.189 5.627 0 10.189-4.562 10.189-10.189v-19.257c0-5.627-4.562-10.189-10.189-10.189z" fill="#fef156"/><path d="m474.939 0c-5.627 0-10.189 4.562-10.189 10.189v19.257c0 5.627 4.561 10.189 10.189 10.189 5.627 0 10.189-4.562 10.189-10.189v-19.257c0-5.627-4.562-10.189-10.189-10.189z" fill="#fef156"/><path d="m418.334 38.125c-5.627 0-10.189-4.562-10.189-10.189v32.579h20.378v-32.578c0 5.627-4.562 10.188-10.189 10.188z" fill="#ffc242"/><path d="m474.939 38.125c-5.627 0-10.189-4.562-10.189-10.189v32.579h20.378v-32.578c0 5.627-4.562 10.188-10.189 10.188z" fill="#ffc242"/><path d="m490.04 57.497h-35.6c-7.516 2.359-15.609 0-15.609 0h-3.901c-4.086 0-7.398 3.312-7.398 7.398v26.488c0 8.412 3.767 16.382 10.267 21.721 6.5 5.34 10.267 13.309 10.267 21.721 0 8.251 5.872 15.128 13.664 16.686l.106.218c8.48-.968 15.068-8.165 15.068-16.904 0-8.412 3.767-16.382 10.267-21.721 6.5-5.34 10.267-13.309 10.267-21.721v-26.488c.001-4.086-3.312-7.398-7.398-7.398z" fill="#02c0fc"/><path d="m449.576 134.826c0-8.412-3.767-16.382-10.267-21.721-6.5-5.34-10.267-13.309-10.267-21.721v-26.489c0-4.086 3.312-7.398 7.398-7.398h-33.208c-4.086 0-7.398 3.312-7.398 7.398v26.488c0 8.412 3.767 16.382 10.267 21.721 6.5 5.34 10.267 13.309 10.267 21.721 0 9.399 7.619 17.018 17.018 17.018h26.5c1.148 0 2.269-.115 3.354-.332-7.792-1.557-13.664-8.435-13.664-16.685z" fill="#27a6ff"/><path d="m454.441 75.423v-17.926h-15.609v17.926c0 4.292 3.512 7.804 7.804 7.804 4.293 0 7.805-3.512 7.805-7.804z" fill="#e8f8fc"/><path d="m353.952 390.922c-13.052 6.343-23.68 7.338-31.592 2.966-11.768-6.505-13.689-22.982-13.708-23.148l-.174-1.602-1.584.286c-6.903 1.247-12.42.398-16.405-2.521-5.192-3.808-6.032-9.971-6.039-10.029l-.028-.226-19.21-42.63-.185-.307c-17.48-22.4-.714-44.854.008-45.8l.593-.775-.467-.855c-.402-.738-40.393-74.024-49.763-96.066-2.367-5.566-2.508-10.696-.417-15.246 4.379-9.53 17.128-13.672 17.257-13.713l1.643-.521-.742-1.555c-4.076-8.538-4.532-16.236-1.354-22.882 6.749-14.114 27.722-19.241 27.933-19.291l.08-.02 1.372-.488c-30.669-16.178-65.606-25.35-102.691-25.35-.748 0-1.492.012-2.238.019-3.77 3.621-14.522 15.2-13.926 29.029.362 8.413 4.874 16.044 13.418 22.708-8.776 5.188-41.688 27.562-26.67 63.503 15.49 37.073 7.35 68.211 6.315 71.812-3.083 3.079-26.722 28.743-.092 66.503l8.454 47.256c-.311 1.477-1.418 7.704.158 15.198 1.623 7.717 6.509 18.226 20.536 24.711l14.045 26.877c-.483 1.772-1.508 6.837.857 11.697 1.616 3.323 4.46 5.848 8.465 7.521-1.952 4.515-6.862 18.246-1.379 31.841 2.434 6.035 6.589 11.198 12.409 15.456 2.347.561 4.705 1.097 7.078 1.59 65.688-14.407 120.398-58.107 149.759-116.711-.578.242-1.155.49-1.716.763z" fill="#02c0fc"/><path d="m259.367 95.546c-.233.056-43.734 10.447-27.582 44.279 0 0-27.276 8.611-17.768 30.975 9.508 22.365 49.828 96.198 49.828 96.198s-18.43 24.017 0 47.634l19.116 42.423s2.169 17.828 24.2 13.845c0 0 4.528 42.226 47.445 21.372 15.531-30.183 24.299-64.416 24.299-100.699 0-85.379-48.546-159.416-119.538-196.027z" fill="#6ad9fb"/><path d="m158.479 71.147c-20.834 0-40.992 2.893-60.096 8.295-34.76 29.242-61.269 67.97-75.556 112.192l.002-.002 63.771 252.345c31.805 30.449 71.798 52.411 116.349 62.247-29.164-17.841-13.109-49.077-13.109-49.077-14.519-4.936-9.747-18.538-9.747-18.538l-14.566-27.875c-26.75-12.016-20.256-38.725-20.256-38.725l-8.566-47.882c-28.155-39.623 0-65.107 0-65.107s10.567-32.928-6.257-73.192 28.032-62.745 28.032-62.745c-33.048-23.667-.001-51.936-.001-51.936z" fill="#27a6ff"/><path d="m306.895 369.424c-6.903 1.247-12.42.398-16.405-2.521-5.192-3.808-6.032-9.971-6.039-10.029l-.028-.226-19.21-42.63-.185-.307c-17.48-22.4-.714-44.854.008-45.8l.593-.775-.467-.855c-.402-.738-40.393-74.024-49.763-96.066-2.367-5.566-2.508-10.696-.417-15.246 4.379-9.53 17.128-13.672 17.257-13.713l1.476-.468c-22.647-11.322-48.194-17.702-75.235-17.702-1.046 0-2.086.028-3.127.047-9.302 5.586-41.099 27.833-26.289 63.276 15.49 37.073 7.35 68.211 6.315 71.812-3.083 3.079-26.722 28.743-.092 66.503l8.454 47.256c-.311 1.477-1.418 7.704.158 15.198 1.623 7.717 6.509 18.226 20.536 24.711l14.045 26.877c-.483 1.772-1.508 6.837.857 11.697 1.513 3.11 4.114 5.511 7.723 7.178 52.737-9.012 97.104-42.534 120.979-88.421z" fill="#ade9f7"/><path d="m231.782 139.826c-.058.018-27.263 8.634-17.765 30.974 9.508 22.365 49.828 96.198 49.828 96.198s-18.43 24.017 0 47.634l19.116 42.423s2.169 17.828 24.199 13.845c12.641-23.639 19.809-50.645 19.809-79.327 0-66.781-38.853-124.485-95.187-151.747z" fill="#e8f8fc"/><path d="m158.479 123.083c-55.637 0-104.968 26.973-135.651 68.549-7.67 23.745-11.83 49.068-11.83 75.366 0 69.589 29.016 132.398 75.606 176.999 21.802 10.299 46.163 16.067 71.875 16.067 10.712 0 21.187-1.011 31.344-2.923-14.498-4.941-9.731-18.532-9.731-18.532l-14.566-27.875c-26.75-12.016-20.256-38.725-20.256-38.725l-8.566-47.882c-28.155-39.623 0-65.107 0-65.107s10.567-32.928-6.257-73.192c-16.824-40.263 28.032-62.745 28.032-62.745z" fill="#6ad9fb"/><path d="m90.228 400.107c.854-3.967 3.447-7.099 7.71-9.307 18.646-9.659 13.14-26.504 12.427-28.452v-10.636c4.759-18.471-8.664-26.507-11.842-28.122l3.184-21.827h-23.38c-25.362 5.62-44.331 28.239-44.331 55.292s18.969 49.672 44.331 55.292h13.533c-1.521-3.878-2.49-8.248-1.632-12.24z" fill="#5071b7"/><path d="m102.94 301.763h-2.162l-3.262 22.365s17.242 7.126 11.93 27.467v10.922s7.259 17.527-11.93 27.467c-10.278 5.324-9.545 14.754-6.648 22.365h12.072c25.362-5.62 44.331-28.239 44.331-55.292s-18.969-49.674-44.331-55.294z" fill="#3f57a0"/><ellipse cx="64.034" cy="357.055" fill="#1d2e79" rx="10.922" ry="10.922" transform="matrix(.23 -.973 .973 .23 -298.181 337.342)"/><ellipse cx="117.233" cy="357.055" fill="#1d2e79" rx="10.922" ry="10.922" transform="matrix(.16 -.987 .987 .16 -253.99 415.58)"/><path d="m96.094 357.055c0 3.016-2.445 5.461-5.461 5.461s-5.461-2.445-5.461-5.461 2.445-5.461 5.461-5.461 5.461 2.445 5.461 5.461z" fill="#fef156"/><path d="m90.633 300.418c-4.227 0-8.344.467-12.307 1.345v16.94c0 2.996 2.428 5.424 5.424 5.424h13.765c2.996 0 5.424-2.428 5.424-5.424v-16.94c-3.961-.879-8.079-1.345-12.306-1.345z" fill="#2a428b"/><path d="m78.327 395.407v16.94c3.963.878 8.08 1.345 12.307 1.345s8.344-.467 12.307-1.345v-16.94c0-2.996-2.429-5.424-5.424-5.424h-13.766c-2.996 0-5.424 2.428-5.424 5.424z" fill="#2a428b"/><path d="m90.228 269.144c.854-3.968 3.447-7.099 7.71-9.307 18.646-9.659 13.14-26.505 12.427-28.452v-10.636c4.759-18.471-8.664-26.508-11.842-28.122l3.184-21.827h-23.38c-25.362 5.62-44.331 28.239-44.331 55.292s18.969 49.672 44.331 55.292h13.533c-1.521-3.878-2.49-8.247-1.632-12.24z" fill="#5071b7"/><path d="m102.94 170.8h-2.162l-3.262 22.365s17.242 7.126 11.93 27.467v10.922s7.259 17.527-11.93 27.467c-10.278 5.324-9.545 14.754-6.648 22.365h12.072c25.362-5.62 44.331-28.239 44.331-55.292s-18.969-49.674-44.331-55.294z" fill="#3f57a0"/><ellipse cx="64.034" cy="226.092" fill="#1d2e79" rx="10.922" ry="10.922" transform="matrix(.707 -.707 .707 .707 -141.116 111.5)"/><ellipse cx="117.233" cy="226.092" fill="#1d2e79" rx="10.922" ry="10.922" transform="matrix(.924 -.383 .383 .924 -77.598 62.073)"/><path d="m96.094 226.092c0 3.016-2.445 5.461-5.461 5.461s-5.461-2.445-5.461-5.461 2.445-5.461 5.461-5.461 5.461 2.445 5.461 5.461z" fill="#fef156"/><path d="m90.633 169.455c-4.227 0-8.344.467-12.307 1.345v16.94c0 2.996 2.428 5.424 5.424 5.424h13.765c2.996 0 5.424-2.429 5.424-5.424v-16.94c-3.961-.878-8.079-1.345-12.306-1.345z" fill="#2a428b"/><path d="m78.327 264.444v16.94c3.963.878 8.08 1.345 12.307 1.345s8.344-.467 12.307-1.345v-16.94c0-2.996-2.429-5.424-5.424-5.424h-13.766c-2.996 0-5.424 2.429-5.424 5.424z" fill="#2a428b"/><path d="m159.324 426.215c0-7.842 5.915-14.357 13.501-15.338-.65-.084-1.307-.142-1.979-.142h-24.733c-8.514 0-15.48 6.966-15.48 15.48s6.966 15.48 15.48 15.48h24.733c.672 0 1.329-.058 1.979-.142-7.587-.982-13.501-7.496-13.501-15.338z" fill="#ff0363"/><path d="m172.324 410.81c-7.827.751-14.001 7.39-14.001 15.405s6.174 14.653 14.001 15.405c7.827-.751 14.001-7.39 14.001-15.405.001-8.015-6.174-14.654-14.001-15.405z" fill="#fe3d97"/><path d="m225.919 400.107c.854-3.967 3.447-7.099 7.71-9.307 18.646-9.659 13.14-26.504 12.427-28.452v-10.636c4.759-18.471-8.664-26.507-11.842-28.122l3.184-21.827h-23.38c-25.362 5.62-44.331 28.239-44.331 55.292s18.969 49.672 44.331 55.292h13.534c-1.523-3.878-2.491-8.248-1.633-12.24z" fill="#5071b7"/><path d="m238.63 301.763h-2.162l-3.262 22.365s17.242 7.126 11.93 27.467v10.922s7.259 17.527-11.93 27.467c-10.278 5.324-9.545 14.754-6.648 22.365h12.072c25.362-5.62 44.331-28.239 44.331-55.292s-18.969-49.674-44.331-55.294z" fill="#3f57a0"/><ellipse cx="199.725" cy="357.055" fill="#1d2e79" rx="10.922" ry="10.922" transform="matrix(.23 -.973 .973 .23 -193.666 469.403)"/><path d="m158.479 275.455c-8.888 0-16.119 7.231-16.119 16.119 0 8.889 7.231 16.12 16.119 16.12s16.119-7.231 16.119-16.12c-.001-8.888-7.232-16.119-16.119-16.119z" fill="#02c0fc"/><ellipse cx="252.923" cy="357.055" fill="#1d2e79" rx="10.922" ry="10.922" transform="matrix(.707 -.707 .707 .707 -178.397 283.423)"/><path d="m231.785 357.055c0 3.016-2.445 5.461-5.461 5.461s-5.461-2.445-5.461-5.461 2.445-5.461 5.461-5.461 5.461 2.445 5.461 5.461z" fill="#fef156"/><path d="m226.324 300.418c-4.227 0-8.344.467-12.307 1.345v16.94c0 2.996 2.428 5.424 5.424 5.424h13.765c2.996 0 5.424-2.428 5.424-5.424v-16.94c-3.962-.879-8.079-1.345-12.306-1.345z" fill="#2a428b"/><path d="m214.017 395.407v16.94c3.962.878 8.08 1.345 12.307 1.345s8.344-.467 12.307-1.345v-16.94c0-2.996-2.428-5.424-5.424-5.424h-13.765c-2.996 0-5.425 2.428-5.425 5.424z" fill="#2a428b"/><path d="m225.919 269.144c.854-3.968 3.447-7.099 7.71-9.307 18.646-9.659 13.14-26.505 12.427-28.452v-10.636c4.759-18.471-8.664-26.508-11.842-28.122l3.184-21.827h-23.38c-25.362 5.62-44.331 28.239-44.331 55.292s18.969 49.672 44.331 55.292h13.534c-1.523-3.878-2.491-8.247-1.633-12.24z" fill="#5071b7"/><path d="m238.63 170.8h-2.162l-3.262 22.365s17.242 7.126 11.93 27.467v10.922s7.259 17.527-11.93 27.467c-10.278 5.324-9.545 14.754-6.648 22.365h12.072c25.362-5.62 44.331-28.239 44.331-55.292s-18.969-49.674-44.331-55.294z" fill="#3f57a0"/><ellipse cx="199.725" cy="226.092" fill="#1d2e79" rx="10.922" ry="10.922" transform="matrix(.707 -.707 .707 .707 -101.373 207.448)"/><ellipse cx="252.923" cy="226.092" fill="#1d2e79" rx="10.922" ry="10.922" transform="matrix(.23 -.973 .973 .23 -25.231 420.304)"/><path d="m231.785 226.092c0 3.016-2.445 5.461-5.461 5.461s-5.461-2.445-5.461-5.461 2.445-5.461 5.461-5.461 5.461 2.445 5.461 5.461z" fill="#fef156"/><g fill="#2a428b"><path d="m226.324 169.455c-4.227 0-8.344.467-12.307 1.345v16.94c0 2.996 2.428 5.424 5.424 5.424h13.765c2.996 0 5.424-2.429 5.424-5.424v-16.94c-3.962-.878-8.079-1.345-12.306-1.345z"/><path d="m214.017 264.444v16.94c3.962.878 8.08 1.345 12.307 1.345s8.344-.467 12.307-1.345v-16.94c0-2.996-2.428-5.424-5.424-5.424h-13.765c-2.996 0-5.425 2.429-5.425 5.424z"/></g></g></svg>