<svg id="Layer_1" enable-background="new 0 0 512 512" height="512" viewBox="0 0 512 512" width="512" xmlns="http://www.w3.org/2000/svg"><g><path d="m245.002 10.998c-92.49 0-172.998 51.257-214.698 126.907l-28.071 85c-1.462 10.825-2.233 21.869-2.233 33.095 0 128.754 99.32 234.304 225.523 244.232l55.856-1.922c26.311-3.917 51.253-12.016 74.135-23.601l43.3-28.016c55.612-44.913 91.19-113.642 91.19-190.692 0-135.312-109.691-245.003-245.002-245.003z" fill="#fef156"/><path d="m434.191 180.405c0-7.456 6.044-13.5 13.5-13.5h-75.5c1.709 2.928 3.329 5.537 4.794 7.789 3.785 5.816 6.187 12.384 7.087 19.211h63.618c-7.454 0-13.499-6.044-13.499-13.5z" fill="#fc753f"/><path d="m512 180.405c0-7.456-6.044-13.5-13.5-13.5h-52.809c-7.456 0-13.5 6.044-13.5 13.5s6.044 13.5 13.5 13.5h52.809c7.456 0 13.5-6.044 13.5-13.5z" fill="#fea53d"/><path d="m310.646 151.401c-13.326 5.287-20.603-2.251-24.045-8.105-5.802 13.605-11.978 24.253-16.628 31.398-4.9 7.529-7.494 16.316-7.494 25.299v35.604c0 10.101 3.292 19.926 9.377 27.988l3.074 4.074c8.495-19.054 28.434-32.412 50.549-32.806v-86.287c-5.861.437-11.018 1.321-14.833 2.835z" fill="#6ad9fb"/><path d="m317.162 59.828c-7.298 0-13.299 5.696-13.752 12.98-1.783 28.68-9.232 53.012-17.296 71.626 3.218 5.931 10.542 14.516 24.532 8.966 3.815-1.514 8.972-2.398 14.833-2.835v-83.42c0-4.041-4.276-7.317-8.317-7.317z" fill="#ade9f7"/><path d="m325.479 139.619c-.332-.024-.663-.051-1-.051-7.608 0-13.833 6.225-13.833 13.833v48.927c0 7.608 6.225 13.833 13.833 13.833.337 0 .668-.027 1-.051z" fill="#02c0fc"/><path d="m356.608 379.161h30.283c3.645 0 7.111.76 10.254 2.125v-34.3c0-17.143-7.888-33.332-21.388-43.897-4.641 16.595-16.816 30.033-32.612 36.4v43.464c3.92-2.403 8.529-3.792 13.463-3.792z" fill="#ade9f7"/><path d="m338.312 200.328-1.5-2.112v4.112c0 6.293-4.737 11.5-10.833 12.242h-1.5v20.283c22.115.394 41.054 13.752 49.549 32.806l3.075-4.074c6.085-8.062 9.376-17.888 9.376-27.988v-30.381c-29.53 24.171-48.167-4.888-48.167-4.888z" fill="#ade9f7"/><path d="m345.549 72.808c-.453-7.284-6.454-12.98-13.752-12.98-4.041 0-7.317 3.276-7.317 7.317v74.013h1.5c6.096.742 10.833 5.949 10.833 12.242v46.816l1.5 2.112s18.637 29.059 48.167 4.887v-7.222c0-8.983-2.593-17.77-7.494-25.299-10.963-16.843-30.404-53.079-33.437-101.886z" fill="#e8f8fc"/><path d="m262.067 379.161h30.283c4.934 0 9.544 1.388 13.462 3.793v-43.464c-15.797-6.367-27.971-19.805-32.612-36.4-13.5 10.565-21.388 26.754-21.388 43.897v34.3c3.144-1.365 6.61-2.126 10.255-2.126z" fill="#6ad9fb"/><path d="m324.479 233.828c-11.416 0-22.024 3.46-30.835 9.385-.709 3.443-1.78 11.713 2.594 17.531 2.973 3.955 7.82 5.96 14.409 5.96 10.336 0 15.861 12.892 18.677 23.707 2.823 10.848 3.543 21.852 3.668 24.155-1.031 1.799-4.652 8.884-2.424 16.181 1.434 4.696 4.974 8.459 10.52 11.208 22.444-7.054 38.725-28.021 38.725-52.793 0-30.56-24.774-55.334-55.334-55.334z" fill="#e8f8fc"/><path d="m334.512 314.944s-1.983-49.74-23.866-49.74c-21.814 0-15.227-23.012-15.185-23.156-15.788 9.745-26.315 27.197-26.315 47.113 0 30.56 24.774 55.333 55.333 55.333 6.549 0 12.828-1.145 18.659-3.234-19.83-8.674-8.626-26.316-8.626-26.316z" fill="#ade9f7"/><circle cx="324.479" cy="289.161" fill="#6ad9fb" r="27.667"/><path d="m338.313 202.328v-48.927c0-7.608-6.225-13.833-13.833-13.833v76.594c7.608-.001 13.833-6.226 13.833-13.834z" fill="#6ad9fb"/><path d="m391.566 435.797c-.054-.076-.108-.152-.162-.229-2.044-2.917-.491-6.903 2.92-7.929 10.557-3.173 18.264-12.931 18.349-24.501.105-14.288-12.058-25.977-26.346-25.977h-29.719c-14.239 0-25.782 11.543-25.782 25.782 0 17.709 4.948 43.531 18.834 62.899 1.838 2.563 3.807 5.51 5.854 8.866 15.447-7.821 29.949-17.234 43.3-28.017-2.492-4.026-4.926-7.657-7.248-10.894z" fill="#fe3d97"/><path d="m254.635 427.639c3.411 1.025 4.963 5.012 2.92 7.929-.054.077-.108.153-.162.229-.275.383-.556.792-.834 1.186.089 3.948 2.049 34.724 41.74 29.86.108-.013.208-.018.314-.03.229-.326.46-.655.686-.97 13.887-19.368 18.834-45.19 18.834-62.899 0-14.239-11.543-25.782-25.782-25.782h-29.719c-14.288 0-26.451 11.688-26.346 25.977.084 11.569 7.791 21.327 18.349 24.5z" fill="#fe3d97"/><g><path d="m225.816 50.977v35.035c0 4.971 4.029 9 9 9s9-4.029 9-9v-35.035c0-4.971-4.029-9-9-9s-9 4.03-9 9z" fill="#fcfbe8"/></g><g><path d="m276.362 189.405h47.285c4.971 0 9-4.029 9-9s-4.029-9-9-9h-47.285c-4.971 0-9 4.029-9 9s4.03 9 9 9z" fill="#fcfbe8"/></g><g><path d="m115.899 423.971v-35.035c0-4.971 4.029-9 9-9s9 4.029 9 9v35.035c0 4.971-4.029 9-9 9s-9-4.03-9-9z" fill="#fcfbe8"/></g><path d="m203.42 166.905c-3.906 5.12-8.519 9.668-13.689 13.511 5.16 3.838 9.76 8.38 13.662 13.489h68.943c4.019 0 7.277-3.258 7.277-7.277v-12.446c0-4.019-3.258-7.277-7.277-7.277z" fill="#fc753f"/><path d="m248.317 113.222c0 37.778-30.625 68.402-68.403 68.402h-4.198c.655-.802 1.374-1.613 2.198-2.438 0 0-14.969-9.594 0-24.562h2c22.866 0 41.402-18.536 41.402-41.402v-22.607c0-3.48 2.821-6.301 6.301-6.301h15.481c2.882 0 5.219 2.337 5.219 5.219z" fill="#fe3d97"/><path d="m179.914 154.624c-14.969 14.969 0 24.562 0 24.562-.824.824-1.544 1.636-2.198 2.438h-57.687v-27z" fill="#ff0363"/><path d="m178.876 179.187h-.962c-15.375 15.375 0 27 0 27h1.239c22.988 0 42.16 18.408 42.164 41.396.003 18.163-11.756 33.622-28.057 39.19-1.709 6.91-2.684 20.234 13.751 23.615 24.582-10.648 41.733-35.315 41.298-63.862-.574-37.533-31.896-67.339-69.433-67.339z" fill="#02c0fc"/><path d="m179.914 206.187h-59.885v-27h59.885c-15.375 15.375 0 27 0 27z" fill="#27a6ff"/><path d="m121.719 155.158v19.512c0 4.116-3.336 7.452-7.452 7.452h-30.472v-34.416h30.472c4.115 0 7.452 3.337 7.452 7.452z" fill="#6289cd"/><path d="m121.719 172.67v32.982c0 4.116-3.336 7.452-7.452 7.452h-30.472v-32.982h30.472c4.115 0 7.452-3.336 7.452-7.452z" fill="#5071b7"/><path d="m78.343 137.905h-48.039c-14.246 25.843-23.956 54.532-28.071 85h76.11c4.116 0 7.452-3.336 7.452-7.452v-70.095c0-4.116-3.336-7.453-7.452-7.453z" fill="#2a428b"/><path d="m281.379 498.31c6.195-14.444 12.607-25.058 17.919-32.467-42.397 5.195-41.744-30.275-41.744-30.275-.054.077-.108.153-.162.229-9.95 13.878-21.96 34.824-31.869 64.435 6.427.506 12.922.77 19.479.77 12.362 0 24.507-.925 36.377-2.692z" fill="#ff0363"/><path d="m388.91 376.161h-33.902c-14.08 0-25.493 12.414-25.493 26.493 0 14.079 11.414 25.493 25.493 25.493h33.902c14.08 0 25.493-11.414 25.493-25.493 0-14.079-11.413-26.493-25.493-26.493z" fill="#fd77a6"/><path d="m293.95 376.161h-33.902c-14.08 0-25.493 12.414-25.493 26.493 0 14.079 11.414 25.493 25.493 25.493h33.902c14.08 0 25.493-11.414 25.493-25.493.001-14.079-11.413-26.493-25.493-26.493z" fill="#fd77a6"/><path d="m195.191 286.058c-4.793 1.91-10.019 2.96-15.491 2.932-37.507-.191-68.188 31.632-68.188 69.139v26.863c0 3.008 2.438 5.446 5.446 5.446h16.108c3.008 0 5.446-2.438 5.446-5.446v-27.6c0-22.829 18.573-41.403 41.402-41.402 10.451 0 20.354-2.368 29.222-6.577-16.344-3.291-15.613-16.351-13.945-23.355z" fill="#27a6ff"/></g></svg>