<svg id="Layer_1" enable-background="new 0 0 512 512" height="512" viewBox="0 0 512 512" width="512" xmlns="http://www.w3.org/2000/svg"><g><path d="m84.273 441.72 44.763 34.856c33.084 20.085 71.305 32.541 112.226 34.97l50.265-2.12c10.985-1.596 21.737-3.912 32.199-6.916l108.771-65.604c42.415-44.049 68.504-103.929 68.504-169.909 0-135.311-109.691-245.002-245.002-245.002s-245.002 109.691-245.002 245.002c.001 68.418 28.056 130.274 73.276 174.723z" fill="#1d2e79"/><path d="m337.862 383.809c1.334-.313 2.717-.495 4.143-.495 9.13 0 16.73 6.79 18.053 15.566 1.323-8.776 8.923-15.566 18.053-15.566 9.13 0 16.73 6.79 18.053 15.566 1.323-8.776 8.923-15.566 18.053-15.566 1.16 0 2.292.121 3.393.33v-.33c-11.473-13.47-13.518-31.169-6.154-46.154-.908.177-1.842.276-2.799.276-7.238 0-13.285-5.298-14.491-12.205-1.974 7.016-8.431 12.204-16.056 12.204s-14.082-5.188-16.056-12.204c-1.206 6.906-7.253 12.204-14.491 12.204-1.262 0-2.481-.178-3.652-.48 7.484 15.028 5.474 32.827-6.051 46.358v.496z" fill="#fea53d"/><path d="m172.423 84.45c-12.29 4.876-19-2.076-22.175-7.475-5.351 12.547-11.046 22.366-15.335 28.956-4.519 6.943-6.911 15.047-6.911 23.331v32.834c0 9.315 3.036 18.376 8.647 25.811l2.835 3.757c7.835-17.572 26.223-29.891 46.617-30.254v-79.575c-5.405.404-10.16 1.219-13.678 2.615z" fill="#6ad9fb"/><path d="m178.432 0c-6.731 0-12.265 5.253-12.682 11.971-1.644 26.449-8.514 48.888-15.951 66.055 2.968 5.47 9.722 13.387 22.624 8.269 3.518-1.396 8.274-2.211 13.679-2.614v-76.933c0-3.727-3.943-6.748-7.67-6.748z" fill="#ade9f7"/><path d="m186.102 73.584c-.306-.022-.611-.047-.922-.047-7.017 0-12.757 5.741-12.757 12.757v45.121c0 7.016 5.741 12.757 12.757 12.757.311 0 .616-.025.922-.047z" fill="#02c0fc"/><path d="m214.81 294.494h27.928c3.362 0 6.558.701 9.457 1.96v-31.632c0-15.809-7.274-30.739-19.724-40.482-4.28 15.304-15.508 27.697-30.076 33.569v40.083c3.613-2.218 7.864-3.498 12.415-3.498z" fill="#ade9f7"/><path d="m197.937 129.571-1.383-1.947v3.792c0 5.803-4.369 10.605-9.99 11.29h-1.383v18.705c20.395.363 37.86 12.682 45.695 30.254l2.835-3.757c5.612-7.435 8.647-16.496 8.647-25.811v-28.018c-27.234 22.291-44.421-4.508-44.421-4.508z" fill="#ade9f7"/><path d="m204.61 11.971c-.417-6.718-5.951-11.971-12.682-11.971-3.727 0-6.748 3.021-6.748 6.748v68.256h1.383c5.622.684 9.99 5.486 9.99 11.29v43.174l1.383 1.947s17.187 26.799 44.42 4.507v-6.661c0-8.284-2.392-16.388-6.911-23.331-10.108-15.532-28.037-48.95-30.835-93.959z" fill="#e8f8fc"/><path d="m127.622 294.494h27.928c4.551 0 8.801 1.28 12.415 3.497v-40.083c-14.568-5.872-25.796-18.265-30.076-33.569-12.45 9.743-19.724 24.673-19.724 40.482v31.632c2.899-1.258 6.096-1.959 9.457-1.959z" fill="#6ad9fb"/><path d="m185.18 160.465c-10.528 0-20.311 3.191-28.437 8.655-.654 3.175-1.642 10.802 2.392 16.168 2.741 3.647 7.212 5.496 13.288 5.496 9.532 0 14.628 11.889 17.224 21.863 2.604 10.004 3.267 20.152 3.383 22.276-.951 1.659-4.29 8.193-2.235 14.922 1.323 4.331 4.587 7.801 9.702 10.336 20.698-6.505 35.713-25.841 35.713-48.687-.001-28.182-22.847-51.029-51.03-51.029z" fill="#e8f8fc"/><path d="m194.432 235.272s-1.829-45.871-22.009-45.871c-20.118 0-14.042-21.222-14.004-21.355-14.56 8.987-24.268 25.082-24.268 43.449 0 28.183 22.847 51.029 51.029 51.029 6.039 0 11.831-1.056 17.208-2.982-18.288-8.001-7.956-24.27-7.956-24.27z" fill="#ade9f7"/><ellipse cx="185.18" cy="211.494" fill="#6ad9fb" rx="25.515" ry="25.515" transform="matrix(.245 -.97 .97 .245 -65.253 339.185)"/><path d="m197.937 131.416v-45.122c0-7.016-5.741-12.757-12.757-12.757v70.636c7.016 0 12.757-5.741 12.757-12.757z" fill="#6ad9fb"/><path d="m120.768 339.2c3.146.946 4.577 4.622 2.693 7.312-.05.071-.1.141-.15.211-.253.353-.513.731-.769 1.094.082 3.641 1.889 32.023 38.494 27.537.1-.012.191-.017.29-.028.212-.301.424-.604.632-.895 12.806-17.861 17.369-41.675 17.369-58.007 0-13.131-10.645-23.777-23.777-23.777h-27.407c-13.177 0-24.394 10.779-24.297 23.956.079 10.673 7.186 19.671 16.922 22.597z" fill="#fe3d97"/><path d="m123.461 346.512c-.05.071-.1.141-.15.211-17.497 24.404-31.61 57.895-39.038 94.997 13.492 13.262 28.502 24.984 44.763 34.856 2.694-40.518 14.889-76.992 32.921-102.144-39.099 4.791-38.496-27.92-38.496-27.92z" fill="#ff0363"/><path d="m157.026 291.727h-31.265c-12.984 0-23.51 11.448-23.51 24.432 0 12.984 10.526 23.51 23.51 23.51h31.265c12.984 0 23.51-10.526 23.51-23.51 0-12.984-10.526-24.432-23.51-24.432z" fill="#fd77a6"/><path d="m208.416 374.452c14.914 20.811 25.835 49.369 30.689 81.551 12.001 9.586 32.543 20.518 49.857 2.28-5.834-41.656-20.563-81.169-42.062-111.771-1.884-2.69-.453-6.366 2.693-7.312 9.736-2.926 16.843-11.925 16.922-22.595.097-13.177-11.12-23.956-24.297-23.956h-27.408c-13.131 0-23.777 10.645-23.777 23.777 0 16.331 4.563 40.145 17.369 58.007.005.006.009.012.014.019z" fill="#fe3d97"/><path d="m213.334 291.727h31.265c12.984 0 23.51 11.448 23.51 24.432 0 12.984-10.526 23.51-23.51 23.51h-31.265c-12.984 0-23.51-10.526-23.51-23.51 0-12.984 10.526-24.432 23.51-24.432z" fill="#fd77a6"/><path d="m238.777 453.894c2.919 18.263 3.873 37.735 2.486 57.652 4.877.29 9.787.454 14.737.454 12.068 0 23.927-.888 35.527-2.573.711-17.642-.273-35.388-2.803-52.746-17.424 18.059-38.049 6.817-49.947-2.787z" fill="#ff0363"/><path d="m364.481 79.248v113.252c1.258 6.171 6.715 10.814 13.256 10.814 6.542 0 11.999-4.643 13.257-10.814v-113.252z" fill="#ade9f7"/><path d="m377.737 201.314c-6.542 0-11.999-4.643-13.257-10.814v82.814h26.513v-82.814c-1.257 6.171-6.714 10.814-13.256 10.814z" fill="#6ad9fb"/><path d="m355.322 287.065v-8.318c0-3.897 3.159-7.057 7.057-7.057h30.717c3.897 0 7.057 3.159 7.057 7.057v8.318z" fill="#fffbb3"/><path d="m408.66 339.437c-8.099 0-14.724-6.626-14.724-14.724v-39.398h17.446c6.629 0 12.003 5.374 12.003 12.003v27.395c-.001 8.098-6.627 14.724-14.725 14.724z" fill="#fef156"/><path d="m332.841 297.318v27.395c0 8.098 6.626 14.724 14.724 14.724 8.098 0 14.724-6.626 14.724-14.724v-39.398h-17.446c-6.628 0-12.002 5.373-12.002 12.003z" fill="#fea53d"/><path d="m361.422 285.315v37.432c0 9.179 7.51 16.69 16.69 16.69s16.69-7.51 16.69-16.69v-37.432z" fill="#ffc242"/><path d="m342.006 381.315c-10.054 0-18.279 8.226-18.279 18.279v102.918c12.636-3.627 24.848-8.251 36.558-13.768v-89.15c-.001-10.054-8.226-18.279-18.279-18.279z" fill="#fea53d"/><path d="m378.112 381.315c-10.054 0-18.279 8.226-18.279 18.279v89.361c12.832-6.013 25.057-13.103 36.558-21.159v-68.201c0-10.055-8.225-18.28-18.279-18.28z" fill="#ffc242"/><path d="m432.498 436.906v-37.313c0-10.053-8.225-18.279-18.279-18.279-10.053 0-18.279 8.226-18.279 18.279v68.514c13.191-9.196 25.437-19.651 36.558-31.201z" fill="#fef156"/><path d="m402.917 47.596-9.354-42.513c-.653-2.969-3.283-5.083-6.322-5.083-.173 0-19.111 0-19.008 0-3.039 0-5.669 2.114-6.322 5.082l-9.354 42.513c-.424 1.928-.226 3.94.567 5.748l11.357 25.905c7.836 5.95 18.677 5.95 26.513 0l11.357-25.905c.792-1.807.99-3.82.566-5.747z" fill="#e8f8fc"/></g></svg>