<svg id="Layer_1" enable-background="new 0 0 512 512" height="512" viewBox="0 0 512 512" width="512" xmlns="http://www.w3.org/2000/svg"><g><path d="m245.002 11.496c-135.311 0-245.002 109.691-245.002 245.002 0 66.571 26.563 126.928 69.653 171.086l26.793 23.735c41.213 31.474 92.696 50.182 148.556 50.182 135.311 0 245.002-109.691 245.002-245.002s-109.691-245.003-245.002-245.003z" fill="#1d2e79"/><path d="m499.381 70.437c7.148-13.232 5.139-30.1-6.039-41.279-11.179-11.179-28.047-13.187-41.279-6.039z" fill="#fe3d97"/><g fill="#fef156"><path d="m466.413 33.499-12.917-12.917c-13.442-13.442-35.438-13.442-48.88 0l-9.311 9.311 37.357 37.357z"/><path d="m501.918 69.004-12.917-12.917-33.751 33.75 37.357 37.357 9.311-9.311c13.442-13.441 13.443-35.437 0-48.879z"/></g><path d="m322.392 136.107c5.914 6.517 15.094 9.46 27.32 8.73-.49 3.895-.811 12.734 4.891 19.369 4.818 5.609 12.71 8.216 23.484 7.775-.778 4.82-1.867 17.409 5.82 26.26 5.914 6.81 15.625 9.751 28.859 8.794l72.369-72.369-97.303-97.303-72.489 72.489c-.52 4.889-.925 17.471 7.049 26.255z" fill="#fef156"/><path d="m248.154 283.328c4.55 7.01 1.59 15.244 1.56 15.324l-.041.128c-.148.54-3.546 13.353 4.28 23.619 5.892 7.728 16.44 11.763 31.342 12.026.526-.483 1.05-.968 1.557-1.475l127.548-127.547c-43.963 4.255-34.477-35.029-34.477-35.029-35.19 2.56-28.422-27.172-28.422-27.172-41.61 3.638-34.404-35.1-34.404-35.1l-125.588 125.586 1.049.439c-.688 4.055-2.122 16.991 5.291 26.956 5.26 7.07 13.798 11.039 25.376 11.795 12.573.82 20.96 4.336 24.929 10.45z" fill="#ffd402"/><path d="m251.12 299.177s9.493-25.363-27.797-27.797c-37.289-2.434-29.06-38.166-29.06-38.166l-1.607-.672-3.107 3.107c-10.315 10.315-15.638 24.605-14.584 39.155 1.528 21.103-12.993 40.005-33.778 43.966l-6.055 1.154c-5.592 1.065-10.735 3.788-14.76 7.813l-14.246 14.246c-6.315 6.316-6.315 16.554 0 22.869l14.021 14.021 29.449-29.449 23.481 23.481-29.449 29.449 14.021 14.021c6.315 6.315 16.554 6.315 22.869 0l14.246-14.246c4.025-4.025 6.748-9.168 7.814-14.76l1.154-6.055c3.961-20.784 22.863-35.306 43.966-33.778 14.55 1.053 28.84-4.269 39.155-14.584-45.012-.001-35.733-33.775-35.733-33.775z" fill="#ffc242"/><path d="m438.131 43.322h46.367v35.728h-46.367z" fill="#fea53d" transform="matrix(.707 -.707 .707 .707 91.851 344.119)"/><path d="m415.414 81.823-27.292 27.292c6.992-2.595 15.188-1.114 20.783 4.481s7.077 13.791 4.481 20.783l27.292-27.292z" fill="#fea53d"/><path d="m354.603 164.207c4.818 5.609 12.71 8.216 23.484 7.775-.013.081-.026.182-.04.267l32.842-32.842c7.644-7.644 7.644-20.153 0-27.797s-20.153-7.644-27.797 0l-33.4 33.4c-.477 3.974-.712 12.654 4.911 19.197z" fill="#02c0fc"/><path d="m244.476 250.227c7.644-7.644 20.153-7.644 27.797 0s7.644 20.153 0 27.797l107.649-107.649c-35.19 2.56-28.422-27.172-28.422-27.172z" fill="#27a6ff"/><path d="m225.308 297.192c-5.595-5.595-7.077-13.79-4.481-20.782l-73.116 73.116 25.264 25.264 73.116-73.116c-6.993 2.595-15.188 1.113-20.783-4.482z" fill="#fc753f"/><path d="m274.258 248.242c-7.644-7.644-20.152-7.644-27.797 0l-23.139 23.139c-7.644 7.644-7.644 20.153 0 27.797s20.152 7.644 27.797 0l23.139-23.139c7.645-7.645 7.644-20.153 0-27.797z" fill="#6ad9fb"/><path d="m69.653 427.583c8.337 8.543 17.291 16.478 26.793 23.735l49.585-49.585-25.264-25.264z" fill="#e8f8fc"/><path d="m125.787 358.025h41.648v35.728h-41.648z" fill="#fea53d" transform="matrix(.707 -.707 .707 .707 -222.852 213.765)"/><g><path d="m345.526 319.509c-5.482-5.482-5.482-14.371 0-19.853l127.366-127.366c5.482-5.482 14.371-5.482 19.853 0s5.482 14.371 0 19.853l-127.365 127.366c-5.482 5.482-14.372 5.482-19.854 0z" fill="#ade9f7"/></g><g><path d="m472.892 192.143c-5.482-5.482-5.482-14.372 0-19.853 8.274-8.274 8.275-21.736.001-30.01l-94.988-94.988c-5.482-5.482-5.482-14.371 0-19.853s14.371-5.482 19.853 0l94.988 94.988c19.22 19.22 19.22 50.495-.001 69.717-5.481 5.481-14.371 5.481-19.853-.001z" fill="#e8f8fc"/></g><path d="m109.64 78.923c-1.046 7.362 2.141 14.925 9.474 22.489v64.953l32.937 34.671c.189 3.816 1.699 18.855 13.756 27.893 6.742 5.053 15.497 7.245 26.124 6.605 18.361-17.69 29.801-42.513 29.801-70.022 0-53.71-43.54-97.25-97.25-97.25-3.547 0-7.047.202-10.496.572-2.052 2.74-3.782 6.116-4.346 10.089z" fill="#02c0fc"/><path d="m124.482 262.763c27.384 0 52.107-11.335 69.781-29.549-40.037 3.974-40.103-33.058-40.103-33.058l-32.911-34.644v-64.974c-14.422-14.422-9.919-25.526-4.294-31.957-50.188 3.846-89.723 45.758-89.723 96.932 0 53.709 43.54 97.25 97.25 97.25z" fill="#27a6ff"/><path d="m153.434 156.745h-21.095c-1.862 0-3.458-1.124-4.157-2.729l-.05.118c-2.339.765-7.837 3.042-10.614 8.19-1.827 3.385-2.13 7.307-.909 11.677l-.555.28h.57c2.505 0 4.536 2.031 4.536 4.536v54.911c0 6.674 8.857 9.01 12.149 3.204l32.966-58.144c5.58-9.841-1.529-22.043-12.841-22.043z" fill="#fef156"/><path d="m129.708 155.893c-1.15-.823-1.905-2.162-1.905-3.683v-54.912c0-6.674-8.857-9.01-12.149-3.204l-32.966 58.144c-5.58 9.841 1.529 22.043 12.841 22.043h21.095c.957 0 1.843.3 2.574.806l.002-.001c-5.607-15.383 10.505-19.187 10.505-19.187z" fill="#ffc242"/></g></svg>