<svg id="Layer_1" enable-background="new 0 0 512 512" height="512" viewBox="0 0 512 512" width="512" xmlns="http://www.w3.org/2000/svg"><g><path d="m99.294 455.325h313.411c53.951-44.942 88.297-112.62 88.297-188.327 0-135.311-109.691-245.002-245.002-245.002s-245.002 109.691-245.002 245.002c0 75.707 34.345 143.385 88.296 188.327z" fill="#fef156"/><g><path d="m99.294 313.771h.806v-288.096c-17.727 8.45-29.093 26.414-29.093 46.198v91.772c0 12.476 2.392 24.833 7.09 36.391 8.379 20.614 21.197 58.933 21.197 100.447z" fill="#1d2e79"/></g><g><path d="m412.706 313.771c0-4.837 0-9.295 0-13.288 0-41.514 12.818-79.833 21.197-100.447 4.698-11.558 7.09-23.915 7.09-36.391v-91.773c0-19.868-11.462-37.905-29.32-46.308v288.207z" fill="#2a428b"/></g><path d="m409.67 24.67c-.524-.219-1.048-.438-1.574-.657-38.604-16.042-80.084-24.013-121.889-24.013h-60.413c-8.591 0-17.165.356-25.706 1.03-1.839 3.743-3.38 8.625-2.736 13.829.686 5.539 3.717 10.396 9.016 14.459-2.02 1.796-5.187 5.328-5.35 9.927-.023.631.033 1.256.123 1.878h161.073c12.224 0 22.169 9.945 22.169 22.169v412.404c9.934-6.124 19.398-12.934 28.324-20.369 0-53.58 0-120.865 0-154.842 0-7.03.375-13.964 1.026-20.74v-253.15c-1.319-.695-2.671-1.342-4.063-1.925z" fill="#fd77a6"/><path d="m208.848 29.259c-13.798-9.376-10.701-21.324-6.989-28.378-33.633 2.469-66.734 10.158-97.955 23.131-.526.219-1.051.438-1.575.657-1.472.617-2.899 1.306-4.288 2.047v250.715c.796 7.505 1.253 15.221 1.253 23.051v154.842c8.926 7.436 18.391 14.246 28.324 20.37v-412.403c0-12.224 9.945-22.169 22.169-22.169h52.854c-1.189-6.913 6.207-11.863 6.207-11.863z" fill="#fe3d97"/><path d="m362.212 39.575h-161.184c-.016 3.78 1.992 7.403 6.013 10.784-.836 2.275-2.354 7.664-.292 12.613 1.287 3.09 3.716 5.441 7.23 7.006-.743 2.196-1.713 6.428.184 10.033 1.299 2.471 3.655 4.162 7.018 5.044-1.1 2.725-2.699 8.06-.768 12.64 1.137 2.695 3.287 4.692 6.402 5.951-2.585 5.221-9.915 22.228-4.546 37.866 3.152 9.183 10.143 16.208 20.784 20.892v20.016c-3.401 2.301-17.604 12.834-21.016 30.37-2.391 12.283 1.105 25.148 10.389 38.254-1.711 1.705-4.889 5.525-4.991 10.466-.078 3.759 1.62 7.33 5.051 10.631-1.558 2.648-4.975 9.584-3.27 17.066 1.227 5.387 4.837 9.888 10.733 13.388v29.135c-4.91 1.479-23.592 8.397-23.592 27.993v101.77c0 13.254 3.72 25.94 10.757 36.689 2.717 4.15 6.184 8.714 10.49 13.134 6.074.449 12.208.684 18.396.684 47.731 0 92.264-13.664 129.929-37.272v-411.436c0-13.045-10.673-23.717-23.717-23.717z" fill="#2a428b"/><path d="m228.37 497.359c-6.964-10.639-10.511-23.153-10.511-35.868v-101.77c0-21.509 23.591-26.853 23.591-26.853v-31.142c-20.075-11.253-7.027-29.848-7.027-29.848-12.353-10.75 0-20.632 0-20.632-31.103-42.483 10.131-68.017 10.131-68.017v-21.816c-39.305-16.482-15.604-58.62-15.604-58.62-13.576-3.936-5.63-18.825-5.63-18.825-13.456-2.136-7.401-14.831-7.401-14.831-13.774-4.926-7.07-19.248-7.07-19.248-4.775-3.713-6.344-7.25-6.329-10.316h-52.731c-13.044 0-23.717 10.672-23.717 23.717v411.437c33.382 20.924 72.162 34.027 113.779 36.738-4.648-4.579-8.442-9.463-11.481-14.106z" fill="#1d2e79"/><path d="m362.212 39.575h-161.184c-.016 3.78 1.992 7.403 6.013 10.784-.836 2.275-2.354 7.664-.292 12.613 1.287 3.09 3.716 5.441 7.23 7.006-.743 2.196-1.713 6.428.184 10.033 1.299 2.471 3.655 4.162 7.018 5.044-1.1 2.725-2.699 8.06-.768 12.64 1.137 2.695 3.287 4.692 6.402 5.951-2.585 5.221-9.915 22.228-4.546 37.866 3.152 9.183 10.143 16.208 20.784 20.892v20.016c-3.401 2.301-17.604 12.834-21.016 30.37-2.391 12.283 1.105 25.148 10.389 38.254-1.711 1.705-4.889 5.525-4.991 10.466 0 .019.002.037.002.055h134.774c13.044 0 23.717-10.672 23.717-23.717v-174.556c.001-13.045-10.672-23.717-23.716-23.717z" fill="#e8f8fc"/><path d="m126.071 63.292v174.556c0 13.044 10.673 23.717 23.717 23.717h79.15c.111-6.014 5.485-10.316 5.485-10.316-31.103-42.483 10.131-68.017 10.131-68.017v-21.816c-39.305-16.482-15.604-58.62-15.604-58.62-13.576-3.936-5.63-18.825-5.63-18.825-13.456-2.136-7.401-14.831-7.401-14.831-13.774-4.926-7.07-19.248-7.07-19.248-4.775-3.713-6.344-7.25-6.329-10.316h-52.731c-13.045-.001-23.718 10.671-23.718 23.716z" fill="#ade9f7"/><path d="m256 69.138c-55.212 0-99.97 44.758-99.97 99.97 0 .206.007.409.008.615h28.373c-.002-.206-.016-.408-.016-.615 0-39.547 32.059-71.605 71.605-71.605s71.605 32.059 71.605 71.605c0 .206-.014.409-.016.615h28.373c.001-.205.008-.409.008-.615 0-55.212-44.758-99.97-99.97-99.97z" fill="#fd77a6"/><path d="m362.212 29.259h-155.916c.025.019.046.04.07.059-2.02 1.796-5.187 5.328-5.35 9.927-.133 3.726 1.733 7.3 5.508 10.646h155.688c7.389 0 13.4 6.011 13.4 13.401v174.556c0 7.389-6.011 13.401-13.4 13.401h-129.986c-1.746 1.792-4.692 5.504-4.791 10.261-.076 3.661 1.546 7.142 4.8 10.371h129.977c18.765 0 34.032-15.267 34.032-34.032v-174.558c0-18.765-15.267-34.032-34.032-34.032z" fill="#fea2c8"/><path d="m208.848 29.259h-59.06c-18.765 0-34.032 15.267-34.032 34.032v174.556c0 18.765 15.267 34.032 34.032 34.032h84.635c-12.353-10.75 0-20.632 0-20.632h-84.635c-7.389 0-13.4-6.011-13.4-13.401v-174.555c0-7.389 6.011-13.401 13.4-13.401h59.06c-14.261-11.089 0-20.631 0-20.631z" fill="#fd77a6"/><path d="m333.569 317.298c0-8.035 6.168-14.699 14.004-15.491-.516-.052-1.038-.08-1.567-.08h-28.873c-8.564 0-15.571 7.007-15.571 15.571 0 8.564 7.007 15.571 15.571 15.571h28.873c.529 0 1.052-.028 1.567-.08-7.836-.792-14.004-7.456-14.004-15.491z" fill="#5071b7"/><path d="m346.573 301.756c-8.302.304-15.004 7.169-15.004 15.542 0 8.372 6.702 15.238 15.004 15.542 8.302-.304 15.004-7.169 15.004-15.542-.001-8.372-6.703-15.238-15.004-15.542z" fill="#6289cd"/><path d="m216.358 359.722h70.488v33.698h-70.488z" fill="#e8f8fc"/><path d="m154.556 376.571c0 9.267 7.582 16.849 16.849 16.849h46.453v-33.698h-46.453c-9.266 0-16.849 7.582-16.849 16.849z" fill="#ade9f7"/><path d="m344.727 359.722h-36.07v33.698h36.07c9.267 0 16.849-7.582 16.849-16.849s-7.582-16.849-16.849-16.849z" fill="#e8f8fc"/><path d="m216.358 427.118h28.68v33.698h-28.68z" fill="#e8f8fc"/><path d="m171.406 460.816h46.453v-33.698h-46.453c-9.267 0-16.849 7.582-16.849 16.849-.001 9.267 7.582 16.849 16.849 16.849z" fill="#ade9f7"/><path d="m344.727 427.118h-77.765v33.698h77.765c9.267 0 16.849-7.582 16.849-16.849 0-9.267-7.582-16.849-16.849-16.849z" fill="#e8f8fc"/><path d="m244.255 427.118h23.489v33.698h-23.489z" fill="#fd77a6"/><path d="m286.007 359.722h23.489v33.698h-23.489z" fill="#fd77a6"/><ellipse cx="256" cy="169.667" fill="#2a428b" rx="21.577" ry="21.577" transform="matrix(.161 -.987 .987 .161 47.269 394.955)"/><path d="m185.899 169.667c0-4.557-3.695-8.253-8.253-8.253h-21.616c-4.557 0-8.253 3.695-8.253 8.253 0 4.557 3.695 8.253 8.253 8.253h21.617c4.557 0 8.252-3.695 8.252-8.253z" fill="#2a428b"/><path d="m326.101 169.667c0-4.557 3.695-8.253 8.253-8.253h21.617c4.557 0 8.253 3.695 8.253 8.253 0 4.557-3.695 8.253-8.253 8.253h-21.617c-4.558 0-8.253-3.695-8.253-8.253z" fill="#2a428b"/><path d="m200.539 211.311c0-4.558-3.695-8.253-8.253-8.253h-21.616c-4.558 0-8.253 3.695-8.253 8.253 0 4.557 3.695 8.253 8.253 8.253h21.617c4.557 0 8.252-3.695 8.252-8.253z" fill="#6ad9fb"/><path d="m311.461 211.311c0-4.558 3.695-8.253 8.253-8.253h21.617c4.557 0 8.253 3.695 8.253 8.253 0 4.557-3.695 8.253-8.253 8.253h-21.617c-4.558 0-8.253-3.695-8.253-8.253z" fill="#ade9f7"/><g fill="#2a428b"><path d="m305.569 120.098c-3.223-3.223-3.223-8.448 0-11.671l15.285-15.285c3.223-3.223 8.448-3.223 11.671 0s3.223 8.448 0 11.671l-15.285 15.285c-3.223 3.223-8.448 3.223-11.671 0z"/><path d="m256 99.566c-4.557 0-8.253-3.695-8.253-8.253v-21.616c0-4.557 3.695-8.253 8.253-8.253s8.253 3.695 8.253 8.253v21.617c0 4.557-3.695 8.252-8.253 8.252z"/><path d="m206.431 120.098c-3.223 3.223-8.448 3.223-11.671 0l-15.285-15.285c-3.223-3.223-3.223-8.448 0-11.671s8.448-3.223 11.671 0l15.285 15.285c3.223 3.223 3.223 8.449 0 11.671z"/><path d="m260.685 232.405c-3.774 2.555-8.905 1.566-11.46-2.208l-12.118-17.901c-2.555-3.774-1.566-8.905 2.208-11.46s8.905-1.566 11.46 2.208l12.118 17.901c2.555 3.774 1.566 8.905-2.208 11.46z"/></g><g><path d="m355.97 177.92c-4.558 0-8.253-3.695-8.253-8.253 0-50.574-41.144-91.718-91.718-91.718s-91.718 41.144-91.718 91.718c0 4.557-3.695 8.253-8.253 8.253-4.557 0-8.253-3.695-8.253-8.253 0-59.674 48.549-108.223 108.223-108.223s108.223 48.549 108.223 108.223c.002 4.558-3.693 8.253-8.251 8.253z" fill="#3f57a0"/></g><path d="m257.886 317.298c0-8.035 6.168-14.699 14.004-15.491-.516-.052-1.038-.08-1.567-.08h-28.873c-8.564 0-15.571 7.007-15.571 15.571 0 8.564 7.007 15.571 15.571 15.571h28.873c.529 0 1.052-.028 1.567-.08-7.835-.792-14.004-7.456-14.004-15.491z" fill="#5071b7"/><path d="m270.89 301.756c-8.302.304-15.004 7.169-15.004 15.542 0 8.372 6.702 15.238 15.004 15.542 8.302-.304 15.004-7.169 15.004-15.542 0-8.372-6.702-15.238-15.004-15.542z" fill="#6289cd"/><path d="m182.431 317.298c0-8.035 6.168-14.699 14.004-15.491-.516-.052-1.038-.08-1.567-.08h-28.873c-8.564 0-15.571 7.007-15.571 15.571 0 8.564 7.007 15.571 15.571 15.571h28.873c.529 0 1.052-.028 1.567-.08-7.836-.792-14.004-7.456-14.004-15.491z" fill="#3f57a0"/><path d="m195.435 301.756c-8.302.304-15.004 7.169-15.004 15.542 0 8.372 6.702 15.238 15.004 15.542 8.302-.304 15.004-7.169 15.004-15.542-.001-8.372-6.703-15.238-15.004-15.542z" fill="#5071b7"/><g><path d="m250.165 175.503c-3.223-3.223-3.223-8.448 0-11.671l35.345-35.345c3.223-3.223 8.448-3.223 11.671 0s3.223 8.448 0 11.671l-35.345 35.345c-3.223 3.223-8.449 3.223-11.671 0z" fill="#ff0363"/></g><circle cx="256" cy="169.667" fill="#fd77a6" r="11.446"/><path d="m251.315 232.405c3.774 2.555 8.905 1.566 11.46-2.208l12.118-17.901c2.555-3.774 1.566-8.905-2.208-11.46s-8.905-1.566-11.46 2.208l-12.118 17.901c-2.555 3.774-1.566 8.905 2.208 11.46z" fill="#3f57a0"/></g></svg>