<svg id="Layer_1" enable-background="new 0 0 512 512" height="512" viewBox="0 0 512 512" width="512" xmlns="http://www.w3.org/2000/svg"><g><path d="m256 21.996c-135.311 0-245.002 109.691-245.002 245.002 0 108.711 70.81 200.868 168.818 232.907l25.801 6.899c12.187 2.548 24.704 4.197 37.483 4.859h25.801c12.779-.663 25.296-2.312 37.483-4.859l25.801-6.899c98.007-32.039 168.818-124.196 168.818-232.907-.001-135.311-109.692-245.002-245.003-245.002z" fill="#27a6ff"/><path d="m192.844 440.865h-.257c-7.054 0-12.772 5.718-12.772 12.772v46.268c8.41 2.749 17.018 5.062 25.801 6.899v-53.166c.001-7.055-5.718-12.773-12.772-12.773z" fill="#ffc242"/><path d="m192.588 442.865h.257c7.054 0 12.772 5.718 12.772 12.772v-62.466h-25.801v62.466c0-7.054 5.718-12.772 12.772-12.772z" fill="#fea53d"/><path d="m256.128 440.865h-.256c-7.054 0-12.772 5.718-12.772 12.772v58.026c4.272.221 8.572.337 12.9.337s8.628-.116 12.901-.337v-58.026c0-7.054-5.719-12.772-12.773-12.772z" fill="#fef156"/><path d="m255.872 442.865h.256c7.054 0 12.772 5.718 12.772 12.772v-62.466h-25.801v62.466c0-7.054 5.719-12.772 12.773-12.772z" fill="#ffc242"/><path d="m319.412 440.865h-.257c-7.054 0-12.772 5.718-12.772 12.772v53.166c8.784-1.836 17.391-4.149 25.801-6.899v-46.268c0-7.053-5.718-12.771-12.772-12.771z" fill="#fef156"/><path d="m306.383 393.171v62.466c0-7.054 5.718-12.772 12.772-12.772h.257c7.054 0 12.772 5.718 12.772 12.772v-62.466z" fill="#ffc242"/><path d="m382.465 0h-150.965s-13.883 11.982 2 27.865c0 0-32.468 41.663 14.683 67.59 47.15 25.927 5.817 150.072 5.817 150.072s-37 21.188-17.333 57.522v24.833s-16.167 26.8 8.333 42.15c0 0-19.156 12.61-3.901 27.865h141.365c17.788 0 32.343-14.554 32.343-32.342v-333.212c0-17.789-14.554-32.343-32.342-32.343z" fill="#e8f8fc"/><path d="m233.5 0h-103.964c-17.788 0-32.343 14.554-32.343 32.343v333.212c0 17.788 14.554 32.342 32.343 32.342h113.564c-15.256-15.255 3.9-27.865 3.9-27.865-24.5-15.35-8.333-42.15-8.333-42.15v-24.833c-19.667-36.334 17.333-57.522 17.333-57.522s41.333-124.145-5.817-150.072c-47.151-25.927-14.683-67.59-14.683-67.59-15.883-15.883-2-27.865-2-27.865z" fill="#ade9f7"/><path d="m371.206 131.452h15.736v-99.109c0-2.386-2.092-4.478-4.477-4.478h-148.965s-32.468 41.663 14.683 67.59c47.15 25.927 5.817 150.072 5.817 150.072s-37 21.188-17.333 57.522v24.833s-16.167 26.8 8.333 42.15h137.465c2.384 0 4.477-2.092 4.477-4.478v-99.109h-15.736c-6.105 0-11.07-4.966-11.07-11.069v-112.855c0-6.104 4.966-11.069 11.07-11.069z" fill="#3f57a0"/><path d="m238.667 327.882v-24.833c-19.667-36.334 17.333-57.522 17.333-57.522s41.333-124.145-5.817-150.072c-47.151-25.927-14.683-67.59-14.683-67.59h-105.964c-2.385 0-4.477 2.092-4.477 4.478v333.211c0 2.385 2.092 4.478 4.477 4.478h117.464c-24.5-15.35-8.333-42.15-8.333-42.15z" fill="#2a428b"/><path d="m125.058 162.909c-5.547 0-10.085-4.538-10.085-10.084v-67.899c0-5.546 4.538-10.084 10.084-10.084 5.546 0 10.084 4.538 10.084 10.084v67.899c.002 5.546-4.536 10.084-10.083 10.084z" fill="#5071b7"/><path d="m125.058 325.973c-5.547 0-10.085-4.538-10.085-10.085v-67.899c0-5.546 4.538-10.085 10.084-10.085 5.546 0 10.084 4.538 10.084 10.085v67.899c.002 5.547-4.536 10.085-10.083 10.085z" fill="#5071b7"/><g fill="#1d2e79"><path d="m192.645 298.247c-5.546 0-10.084 4.538-10.084 10.085v15.609c0 5.547 4.538 10.084 10.084 10.084s10.084-4.538 10.084-10.084v-15.609c0-5.547-4.538-10.085-10.084-10.085z"/><path d="m234.882 298.247c-5.546 0-10.084 4.538-10.084 10.085v15.609c0 5.547 4.538 10.084 10.084 10.084 5.547 0 10.085-4.538 10.085-10.084v-15.609c-.001-5.547-4.539-10.085-10.085-10.085z"/><path d="m277.118 298.247c-5.546 0-10.085 4.538-10.085 10.085v15.609c0 5.547 4.538 10.084 10.085 10.084 5.546 0 10.084-4.538 10.084-10.084v-15.609c.001-5.547-4.537-10.085-10.084-10.085z"/><path d="m319.355 298.247c-5.547 0-10.085 4.538-10.085 10.085v15.609c0 5.547 4.538 10.084 10.085 10.084 5.546 0 10.084-4.538 10.084-10.084v-15.609c.001-5.547-4.537-10.085-10.084-10.085z"/><path d="m386.942 129.387h-15.736c-7.224 0-13.134 5.91-13.134 13.134v112.854c0 7.224 5.91 13.134 13.134 13.134h15.736z"/></g><g><path d="m244.53 103.448c-.808 5.69 1.655 11.535 7.322 17.381v50.198l25.455 26.795c.146 2.949 1.313 14.572 10.631 21.557 5.211 3.905 11.977 5.599 20.19 5.105 14.19-13.672 23.031-32.856 23.031-54.116 0-41.509-33.65-75.159-75.159-75.159-2.742 0-5.446.156-8.112.442-1.586 2.117-2.922 4.727-3.358 7.797z" fill="#02c0fc"/><path d="m256 245.527c21.163 0 40.27-8.76 53.93-22.836-30.942 3.071-30.993-25.549-30.993-25.549l-25.435-26.774v-50.215c-11.146-11.146-7.666-19.728-3.318-24.698-38.788 2.972-69.342 35.364-69.342 74.913-.001 41.509 33.649 75.159 75.158 75.159z" fill="#27a6ff"/><path d="m278.375 163.592h-16.303c-1.439 0-2.673-.869-3.212-2.109l-.038.091c-1.807.591-6.057 2.351-8.203 6.329-1.412 2.617-1.646 5.647-.703 9.024l-.429.216h.441c1.936 0 3.505 1.569 3.505 3.505v42.438c0 5.158 6.845 6.964 9.389 2.477l25.478-44.936c4.312-7.605-1.182-17.035-9.925-17.035z" fill="#fef156"/><path d="m260.04 162.933c-.889-.636-1.473-1.671-1.473-2.846v-42.438c0-5.158-6.845-6.963-9.389-2.476l-25.478 44.935c-4.312 7.605 1.182 17.036 9.924 17.036h16.303c.74 0 1.424.232 1.99.623l.002-.001c-4.333-11.888 8.119-14.829 8.119-14.829z" fill="#ffc242"/></g></g></svg>