<svg id="Layer_1" enable-background="new 0 0 512 512" height="512" viewBox="0 0 512 512" width="512" xmlns="http://www.w3.org/2000/svg"><g><path d="m198.712 479.832 233.096-48.082c6.105-6.715 11.851-13.761 17.188-21.124l19.826-32.342c17.057-33.393 26.681-71.214 26.681-111.286 0-135.311-109.691-245.002-245.002-245.002-101.439 0-188.477 61.648-225.698 149.52l110.92 308.316z" fill="#27a6ff"/><path d="m24.803 171.516.36 1h108.247c9.749 0 17.725-7.976 17.725-17.725s-7.976-17.725-17.725-17.725h-17.368c-8.713 0-16.262-6.613-16.803-15.31-.523-8.473 5.292-17.29 14.28-17.29h49.89c9.748 0 17.724-7.976 17.724-17.724 0-9.749-7.976-17.725-17.725-17.725h-57.258c-35.604 26.006-63.93 61.381-81.347 102.499z" fill="#02c0fc"/><path d="m352.03 192.276h-40.112c-9.789 0-17.725 7.936-17.725 17.725 0 9.789 7.936 17.725 17.725 17.725h40.521c10.324 0 18.66-8.945 17.64-19.468-.887-9.148-8.858-15.982-18.049-15.982z" fill="#02c0fc"/><path d="m406.549 431.182c-5.973 1.69-12.113-.511-16.068-4.592-18.343-18.929-47.614-21.188-68.558-5.902-5.906 4.31-13.982 4.31-19.888 0-11.131-8.123-24.607-11.29-37.545-9.637v68.782h107.44c22.425-12.821 42.617-29.096 59.878-48.082-8.345-2.766-17.206-2.848-25.259-.569z" fill="#94dc79"/><path d="m449.924 382.312-90.318-96.743c-3.768-4.036-10.096-4.254-14.134-.485-4.037 3.769-4.254 10.097-.485 14.134l104.009 111.408c1.049-1.447 2.081-2.908 3.099-4.379z" fill="#0b1f6b"/><g><path d="m442.994 216.303c-2.688 0-5.368-1.077-7.339-3.205l-75.491-81.512c-3.753-4.052-3.51-10.379.542-14.132 4.051-3.751 10.379-3.51 14.132.542l75.491 81.512c3.753 4.052 3.51 10.379-.542 14.132-1.924 1.782-4.361 2.663-6.793 2.663z" fill="#0b1f6b"/></g><g><path d="m450.987 302.393c-2.472 0-4.948-.911-6.883-2.747l-90.695-86.091c-4.006-3.803-4.17-10.132-.368-14.138s10.132-4.17 14.138-.368l90.695 86.091c4.006 3.803 4.17 10.132.368 14.138-1.966 2.072-4.608 3.115-7.255 3.115z" fill="#0b1f6b"/></g><g><path d="m342.177 418.945c-2.444 0-4.895-.891-6.822-2.691-4.037-3.768-4.254-10.097-.485-14.134l108.81-116.552c3.769-4.037 10.098-4.253 14.134-.485 4.037 3.769 4.254 10.097.485 14.134l-108.811 116.553c-1.968 2.109-4.637 3.175-7.311 3.175z" fill="#1d2e79"/></g><g><path d="m360.292 216.303c-2.432 0-4.868-.881-6.793-2.663-4.052-3.753-4.295-10.08-.542-14.132l75.491-81.512c3.754-4.053 10.08-4.294 14.132-.542 4.052 3.753 4.295 10.08.542 14.132l-75.491 81.512c-1.971 2.128-4.651 3.205-7.339 3.205z" fill="#1d2e79"/></g><g><path d="m352.299 302.393c-2.647 0-5.289-1.044-7.255-3.115-3.802-4.006-3.638-10.335.368-14.138l90.695-86.091c4.007-3.802 10.337-3.637 14.138.368 3.802 4.006 3.638 10.335-.368 14.138l-90.695 86.091c-1.935 1.836-4.411 2.747-6.883 2.747z" fill="#1d2e79"/></g><g><path d="m266.491 160.732c-48.557 0-73.418-28.214-74.452-29.415-3.605-4.185-3.135-10.499 1.05-14.103 4.172-3.594 10.458-3.138 14.069 1.011.898 1.015 20.425 22.507 59.333 22.507 38.376 0 54.543-20.974 55.212-21.867 3.234-4.478 9.459-5.45 13.936-2.216 4.478 3.233 5.459 9.52 2.226 13.997-.887 1.229-22.295 30.086-71.374 30.086z" fill="#1d2e79"/></g><g><path d="m190.097 186.674c-5.522 0-10-4.477-10-10v-51.883c0-5.522 4.478-10 10-10s10 4.478 10 10v51.883c0 5.522-4.478 10-10 10z" fill="#2a428b"/></g><path d="m137.117 194.995.797 2.666s-12.021 14.079 2.358 26.025 0 54.189 0 54.189-13.487 9.049 0 22.536 0 54.19 0 54.19-14.42 11.707 0 22.535c14.421 10.829 0 54.19 0 54.19s-25.902 20.604 0 46.506c1.616 1.616 2.778 3.242 3.538 4.871h122.681v-287.708z" fill="#e8f8fc"/><path d="m69.026 431.581c18.612 20.509 40.647 37.855 65.211 51.123h11.573c-.76-1.629-1.922-3.255-3.538-4.871-25.902-25.902 0-46.506 0-46.506s14.421-43.361 0-54.19c-14.42-10.829 0-22.535 0-22.535s13.487-40.702 0-54.19c-13.487-13.487 0-22.536 0-22.536s14.379-42.244 0-54.189c-14.379-11.946-2.358-26.025-2.358-26.025l-.797-2.666h-70.09v236.585z" fill="#ade9f7"/><g><path d="m71.026 194.995h-54.766c-6.99 22.767-10.761 46.944-10.761 72.003 0 64.423 24.871 123.031 65.528 166.764v-238.767z" fill="#fef156"/></g><g><path d="m184.839 223.686h44.863v54.189h-44.863z" fill="#3f57a0"/></g><g><path d="m184.839 300.411h44.863v54.189h-44.863z" fill="#3f57a0"/></g><g><path d="m184.839 377.136h44.863v54.19h-44.863z" fill="#3f57a0"/></g><g><path d="m140.977 223.686h44.863v54.189h-44.863z" fill="#2a428b"/></g><g><path d="m140.977 300.411h44.863v54.189h-44.863z" fill="#2a428b"/></g><g><path d="m140.977 377.136h44.863v54.19h-44.863z" fill="#2a428b"/></g><g><path d="m142.273 377.136h-37.037c-2.89 0-5.233 2.343-5.233 5.233v43.723c0 2.89 2.343 5.233 5.233 5.233h37.037z" fill="#1d2e79"/></g><g><path d="m142.273 223.686h-37.037c-2.89 0-5.233 2.343-5.233 5.234v43.722c0 2.89 2.343 5.233 5.233 5.233h37.037z" fill="#1d2e79"/></g><g><path d="m142.273 300.411h-37.037c-2.89 0-5.233 2.343-5.233 5.233v43.723c0 2.89 2.343 5.233 5.233 5.233h37.037z" fill="#1d2e79"/></g><path d="m235.833 184.589c0-5.893 3.662-10.965 8.819-13.073h-110.038c-5.158 2.108-8.819 7.18-8.819 13.073s3.662 10.965 8.819 13.072h110.039c-5.158-2.108-8.82-7.18-8.82-13.072z" fill="#fe3d97"/><path d="m282.089 184.589c0-7.19-5.883-13.073-13.072-13.073h-26.364c-5.158 2.108-8.819 7.18-8.819 13.073s3.662 10.965 8.819 13.072h26.364c7.19 0 13.072-5.882 13.072-13.072z" fill="#fd77a6"/><path d="m126.842 184.589c0-7.19 5.882-13.073 13.072-13.073h-115.111c-3.592 8.479-6.704 17.209-9.336 26.145h124.447c-7.19 0-13.072-5.882-13.072-13.072z" fill="#ff0363"/><g><path d="m266.092 223.686h-38.334v54.189h38.334c2.89 0 5.233-2.343 5.233-5.233v-43.722c.001-2.891-2.343-5.234-5.233-5.234z" fill="#5071b7"/></g><g><path d="m266.092 300.411h-38.334v54.189h38.334c2.89 0 5.233-2.343 5.233-5.233v-43.723c.001-2.89-2.343-5.233-5.233-5.233z" fill="#5071b7"/></g><g><path d="m266.092 377.136h-38.334v54.19h38.334c2.89 0 5.233-2.343 5.233-5.233v-43.723c.001-2.891-2.343-5.234-5.233-5.234z" fill="#5071b7"/></g><path d="m445.744 123.888c-.498-5.501-5.365-9.556-10.862-9.056-5.5.499-9.555 5.362-9.056 10.862l25.545 281.596c6.455-9.225 12.294-18.913 17.451-29.007z" fill="#2a428b"/><path d="m345.334 479.832 32.126-354.138c.499-5.5-3.556-10.363-9.056-10.862-5.506-.5-10.363 3.555-10.862 9.056l-32.29 355.944z" fill="#2a428b"/><g><path d="m434.829 131.709c-4.44 0-8.495-2.98-9.669-7.477l-19.148-73.372c-1.395-5.344 1.807-10.807 7.15-12.201 5.346-1.391 10.807 1.808 12.201 7.15l19.148 73.372c1.395 5.344-1.807 10.807-7.15 12.201-.846.22-1.696.327-2.532.327z" fill="#2a428b"/></g><g><path d="m368.457 131.709c-.836 0-1.686-.106-2.532-.327-5.344-1.395-8.545-6.857-7.15-12.201l19.147-73.372c1.395-5.344 6.857-8.542 12.201-7.15 5.344 1.395 8.545 6.857 7.15 12.201l-19.147 73.372c-1.174 4.497-5.228 7.477-9.669 7.477z" fill="#2a428b"/></g><g><path d="m401.644 53.188c-5.523 0-10-4.478-10-10v-33.188c0-5.523 4.477-10 10-10 5.522 0 10 4.477 10 10v33.188c0 5.522-4.478 10-10 10z" fill="#ffc242"/></g><g><path d="m412.206 20h-21.123c-5.522 0-10-4.478-10-10 0-5.523 4.478-10 10-10h21.123c5.522 0 10 4.477 10 10 0 5.522-4.477 10-10 10z" fill="#fef156"/></g><g><path d="m286.604 55.819h-14.654c-1.293 0-2.402-.781-2.888-1.896l-.034.082c-1.625.531-5.445 2.113-7.373 5.689-1.269 2.352-1.48 5.076-.632 8.112l-.386.194h.396c1.74 0 3.151 1.411 3.151 3.151v38.147c0 4.637 6.153 6.259 8.44 2.226l22.902-40.393c3.875-6.835-1.063-15.312-8.922-15.312z" fill="#fef156"/></g><g><path d="m270.122 55.227c-.799-.572-1.324-1.502-1.324-2.559v-38.147c0-4.637-6.153-6.26-8.44-2.226l-22.902 40.393c-3.876 6.837 1.062 15.313 8.921 15.313h14.655c.665 0 1.28.208 1.789.56l.001-.001c-3.895-10.686 7.298-13.33 7.298-13.33z" fill="#ffc242"/></g><g><path d="m209.732 134.791h-39.263c-5.523 0-10-4.478-10-10s4.477-10 10-10h39.263c5.522 0 10 4.478 10 10s-4.478 10-10 10z" fill="#3f57a0"/></g><path d="m418.838 124.791c0-5.522 4.478-10 10-10h-106.857c-5.522 0-10 4.478-10 10s4.478 10 10 10h106.858c-5.523 0-10.001-4.478-10.001-10z" fill="#3f57a0"/><path d="m423.806 292.393c0-5.522 4.477-10 10-10h-127.021c-5.523 0-10 4.478-10 10s4.477 10 10 10h127.021c-5.522 0-10-4.477-10-10z" fill="#3f57a0"/><path d="m491.306 124.791c0-5.522-4.478-10-10-10h-54.467c-5.522 0-10 4.478-10 10s4.478 10 10 10h54.467c5.522 0 10-4.478 10-10z" fill="#5071b7"/><path d="m506.501 292.393c0-5.522-4.478-10-10-10h-64.695c-5.523 0-10 4.478-10 10s4.477 10 10 10h64.695c5.523 0 10-4.477 10-10z" fill="#5071b7"/><g><path d="m435.311 58.334h-67.335c-5.522 0-10-4.478-10-10s4.478-10 10-10h67.335c5.522 0 10 4.478 10 10s-4.478 10-10 10z" fill="#3f57a0"/></g><path d="m125.661 477.832c36.562 21.696 79.242 34.168 124.84 34.168s88.278-12.472 124.84-34.168z" fill="#3f57a0"/></g></svg>