<svg id="Layer_1" enable-background="new 0 0 512 512" height="512" viewBox="0 0 512 512" width="512" xmlns="http://www.w3.org/2000/svg"><g><path d="m256 21.996c-135.311 0-245.002 109.691-245.002 245.002 0 60.927 22.247 116.653 59.051 159.516l.004-.002 276.499 68.202c90.487-36.014 154.45-124.392 154.45-227.715 0-135.312-109.691-245.003-245.002-245.003z" fill="#1d2e79"/><g><path d="m396.308 396.382h-36.284c-6.075 0-11-4.925-11-11s4.925-11 11-11h36.284c22.507 0 40.817-18.311 40.817-40.817 0-6.075 4.925-11 11-11s11 4.925 11 11c0 34.637-28.18 62.817-62.817 62.817z" fill="#ade9f7"/></g><g><path d="m448.125 344.564c-6.075 0-11-4.925-11-11v-140.87c0-6.075 4.925-11 11-11s11 4.925 11 11v140.87c0 6.076-4.925 11-11 11z" fill="#e8f8fc"/></g><path d="m360.023 385.509c6.642 0 12.413-3.647 15.471-9.038v-37.137c0-11.523-9.428-20.952-20.952-20.952h-9.991v58.088c3.059 5.392 8.831 9.039 15.472 9.039z" fill="#ade9f7"/><path d="m360.023 384.635c-7.119 0-13.166-4.522-15.471-10.844v78.591h9.991c11.523 0 20.952-9.428 20.952-20.952v-57.64c-2.305 6.322-8.352 10.845-15.472 10.845z" fill="#6ad9fb"/><path d="m297.828 48.243v-23.01c0-13.586 10.884-24.747 24.362-25.211-.29-.01-.579-.022-.871-.022h-159.96c-1.818 2.241-3.914 5.724-4.172 10.096-.303 5.122 1.978 10.153 6.778 14.953 4.167 4.168 6.154 8.415 5.904 12.623-.374 6.317-5.715 10.594-5.767 10.634l-.161.146c-.252.264-6.146 6.525-5.183 13.958.51 3.931 2.814 7.379 6.856 10.271-.227.238-.468.506-.716.797h156.419c.292 0 .582-.012.871-.022-13.476-.466-24.36-11.627-24.36-25.213z" fill="#ade9f7"/><path d="m346.552 48.243v-23.01c0-13.878-11.355-25.233-25.233-25.233h-.257c-13.878 0-25.233 11.355-25.233 25.233v23.01c0 13.878 11.355 25.233 25.233 25.233h.257c13.878.001 25.233-11.355 25.233-25.233z" fill="#e8f8fc"/><path d="m168.025 72.477c-15.75-9.655-3-22.988-3-22.988s14.322-11.178 0-25.5c-11.105-11.106-4.99-20.381-1.682-23.989h-68.057c-13.878 0-25.233 11.355-25.233 25.233v23.01c0 13.878 11.355 25.233 25.233 25.233h71.65c.632-.637 1.089-.999 1.089-.999z" fill="#6ad9fb"/><path d="m321.603 72.477h-156.25c.091.067.17.137.262.203-1.672 1.754-4.138 5.021-3.994 8.928.124 3.409 2.165 6.475 6.064 9.111 2.783 1.883 4.324 4.14 4.578 6.709.545 5.503-4.751 10.94-4.803 10.992l-.228.229-.113.303c-.421 1.128-10.183 27.802.668 43.431 4.835 6.966 12.971 10.577 24.192 10.743 3.124 4.9 22.365 37.352 12.41 78.434-4.37 1.114-22.185 6.748-22.185 24.438v56.116c-2.479.734-8.563 2.829-14.708 7.186-10.449 7.412-15.973 17.846-15.973 30.173l.002 68.981c.015.302 1.702 30.501 21.137 60.247 2.676 4.097 5.569 7.99 8.657 11.691 23.549 7.529 48.637 11.608 74.681 11.608 31.987 0 62.539-6.137 90.552-17.287v-397.288c0-13.721-11.227-24.948-24.949-24.948z" fill="#94dc79"/><path d="m184.016 501.25c-6.052-6.971-10.928-14.2-14.855-21.277-10.769-19.41-16.136-41.355-16.136-63.553v-56.947c0-28.909 30.681-36.215 30.681-36.215s0-38.21 0-57.26c0-19.051 21.921-23.187 21.921-23.187 11.602-46.071-12.833-81.179-12.833-81.179-43.731 0-24.269-52.155-24.269-52.155s11.875-11.97 0-20-.5-17-.5-17h-73.023c-13.722 0-24.949 11.227-24.949 24.949v329.086c29.799 34.707 69.141 60.98 113.963 74.738z" fill="#47cb8f"/><path d="m167.461 108.42-.228.229-.113.303c-.421 1.128-10.183 27.802.668 43.431 4.835 6.966 12.971 10.577 24.192 10.743 3.124 4.9 22.365 37.352 12.41 78.434-4.37 1.114-22.185 6.748-22.185 24.438v1h137.345v-167.521h-147.334c-.649 4.728-4.71 8.897-4.755 8.943z" fill="#5071b7"/><path d="m183.706 265.998c0-19.051 21.921-23.187 21.921-23.187 11.602-46.071-12.833-81.179-12.833-81.179-43.731 0-24.269-52.155-24.269-52.155s4.553-4.595 5.198-10h-76.67v167.521h86.654c-.001-.334-.001-.677-.001-1z" fill="#3f57a0"/><path d="m182.206 265.998v47.26h137.346v-47.26z" fill="#3f57a0"/><path d="m183.706 265.998h-86.653v47.26h86.654c-.001-12.653-.001-34.35-.001-47.26z" fill="#2a428b"/><g><path d="m183.858 323.258h-82.387c-7.95 0-14.419-6.469-14.419-14.419v-204.943c0-7.951 6.469-14.42 14.419-14.42h67.054c5.522 0 10 4.478 10 10s-4.478 10-10 10h-61.473v193.781h76.806c5.523 0 10 4.477 10 10s-4.477 10.001-10 10.001z" fill="#94dc79"/></g><path d="m287.828 368.382c0-8.067 6.6-14.667 14.667-14.667h-38c-8.067 0-14.666 6.6-14.666 14.667 0 8.066 6.6 14.667 14.666 14.667h38c-8.067-.001-14.667-6.601-14.667-14.667z" fill="#ffc242"/><path d="m321.828 368.382c0-8.067-6.6-14.667-14.667-14.667h-6.667c-8.067 0-14.667 6.6-14.667 14.667 0 8.066 6.6 14.667 14.667 14.667h6.667c8.067-.001 14.667-6.601 14.667-14.667z" fill="#fef156"/><g><g><path d="m231.621 180.807h-16.99c-1.5 0-2.785-.905-3.348-2.198l-.04.095c-1.883.616-6.312 2.45-8.549 6.596-1.471 2.727-1.716 5.885-.732 9.405l-.447.225h.459c2.018 0 3.653 1.636 3.653 3.653v44.228c0 5.376 7.134 7.257 9.785 2.581l26.552-46.831c4.494-7.926-1.231-17.754-10.343-17.754z" fill="#fef156"/></g><g><path d="m212.512 180.12c-.926-.663-1.535-1.741-1.535-2.967v-44.228c0-5.376-7.134-7.257-9.785-2.581l-26.552 46.831c-4.494 7.926 1.231 17.754 10.343 17.754h16.991c.771 0 1.484.242 2.074.65l.002-.001c-4.516-12.39 8.461-15.454 8.461-15.454z" fill="#ffc242"/></g></g><g><path d="m267.52 49.488h-118.435c-7.012 0-12.75-5.737-12.75-12.75 0-7.013 5.738-12.75 12.75-12.75h118.435c7.012 0 12.75 5.737 12.75 12.75 0 7.013-5.738 12.75-12.75 12.75z" fill="#02c0fc"/></g><g><path d="m411.281 88.743v33.083h19.506v-33.083c0-5.386-4.366-9.753-9.753-9.753-5.387.001-9.753 4.367-9.753 9.753z" fill="#ffc242"/><path d="m465.463 88.743v33.083h19.505v-33.083c0-5.386-4.366-9.753-9.753-9.753-5.386.001-9.752 4.367-9.752 9.753z" fill="#fef156"/><path d="m489.671 118.936h-52.751c-3.911 0-7.082 3.17-7.082 7.082v25.354c0 8.052 3.606 15.68 9.827 20.791 6.222 5.111 9.827 12.74 9.827 20.791 0 7.898 5.621 14.481 13.079 15.972l.102.208c8.117-.927 14.423-7.815 14.423-16.18 0-8.052 3.606-15.681 9.828-20.791 6.222-5.111 9.827-12.74 9.827-20.791v-25.354c.001-3.911-3.169-7.082-7.08-7.082z" fill="#02c0fc"/><path d="m450.938 192.955c0-8.052-3.606-15.681-9.828-20.791-6.221-5.111-9.827-12.74-9.827-20.791v-25.355c0-3.911 3.171-7.081 7.082-7.081h-31.787c-3.911 0-7.081 3.171-7.081 7.081v25.355c0 8.052 3.606 15.68 9.827 20.791 6.222 5.111 9.827 12.74 9.827 20.791 0 8.997 7.293 16.29 16.29 16.29h25.366c1.099 0 2.172-.11 3.21-.318-7.458-1.491-13.079-8.074-13.079-15.972z" fill="#27a6ff"/></g><g><path d="m285.828 109.477h-117.303c-5.523 0-10-4.478-10-10s4.477-10 10-10h117.303c5.522 0 10 4.478 10 10s-4.477 10-10 10z" fill="#d2f09e"/></g><g><path d="m315.132 323.258h-131.274c-5.522 0-10-4.478-10-10 0-5.523 4.478-10 10-10h125.693v-75.97c0-5.523 4.478-10 10-10s10 4.477 10 10v81.551c.001 7.95-6.468 14.419-14.419 14.419z" fill="#d2f09e"/></g><g><path d="m319.552 237.288c-5.522 0-10-4.478-10-10v-117.811h-23.724c-5.522 0-10-4.478-10-10s4.478-10 10-10h29.304c7.951 0 14.42 6.469 14.42 14.42v123.392c0 5.522-4.478 9.999-10 9.999zm-4.42-127.811h.01z" fill="#effcd4"/></g></g></svg>