<svg id="Layer_1" enable-background="new 0 0 512 512" height="512" viewBox="0 0 512 512" width="512" xmlns="http://www.w3.org/2000/svg"><g><path d="m92.389 449.349 53.696 36.654c33.058 16.624 70.39 25.997 109.915 25.997 39.526 0 76.857-9.373 109.915-25.997l53.697-36.654c49.957-44.853 81.39-109.927 81.39-182.351 0-135.311-109.691-245.002-245.002-245.002s-245.002 109.691-245.002 245.002c0 72.423 31.433 137.498 81.391 182.351z" fill="#1d2e79"/><g><path d="m301.371 262.327h-33.058c-2.918 0-5.419-1.762-6.514-4.276l-.078.184c-3.665 1.198-12.282 4.767-16.633 12.834-2.863 5.306-3.338 11.451-1.425 18.299l-.87.439h.893c3.926 0 7.108 3.182 7.108 7.108v86.053c0 10.459 13.88 14.12 19.039 5.022l51.662-91.119c8.745-15.423-2.395-34.544-20.124-34.544z" fill="#fef156"/><path d="m264.191 260.99c-1.802-1.29-2.986-3.387-2.986-5.772v-86.053c0-10.459-13.88-14.12-19.039-5.022l-51.662 91.119c-8.744 15.422 2.396 34.544 20.124 34.544h33.058c1.5 0 2.887.47 4.034 1.264l.004-.002c-8.786-24.107 16.463-30.069 16.463-30.069z" fill="#ffc242"/></g><path d="m146.085 486.003c-.962-.916-1.914-1.846-2.857-2.789-30.256-30.256-46.918-70.306-46.918-112.772v-25.509c0-6.075-4.925-11-11-11s-11 4.925-11 11v25.509c0 27.744 6.254 54.571 18.078 78.905 16.115 14.47 34.158 26.831 53.697 36.656z" fill="#6ad9fb"/><path d="m419.612 449.349c11.824-24.334 18.078-51.161 18.078-78.905 0-6.075-4.925-11-11-11s-11 4.925-11 11c0 42.466-16.662 82.516-46.918 112.772-.943.943-1.895 1.872-2.857 2.789 19.539-9.827 37.582-22.188 53.697-36.656z" fill="#ade9f7"/><g><path d="m85.311 192.689c-6.075 0-11-4.925-11-11 0-26.759 5.753-52.578 17.1-76.74 2.582-5.5 9.133-7.864 14.633-5.281 5.499 2.583 7.863 9.134 5.281 14.633-9.963 21.214-15.014 43.887-15.014 67.389 0 6.075-4.925 10.999-11 10.999z" fill="#6ad9fb"/></g><g><path d="m101.359 120.628c-1.566 0-3.156-.336-4.668-1.046-5.499-2.583-7.863-9.134-5.281-14.633 14.485-30.845 37.289-57.006 65.947-75.654 29.453-19.165 63.563-29.295 98.643-29.295 6.075 0 11 4.925 11 11s-4.925 11-11 11c-61.557 0-118.346 36.23-144.676 92.301-1.873 3.987-5.833 6.327-9.965 6.327z" fill="#ade9f7"/></g><g><path d="m426.689 213.43c-6.075 0-11-4.925-11-11v-20.74c0-24.531-5.483-48.103-16.299-70.061-2.685-5.45-.442-12.044 5.008-14.729 5.448-2.683 12.044-.442 14.729 5.008 12.317 25.008 18.562 51.85 18.562 79.781v20.74c0 6.076-4.924 11.001-11 11.001z" fill="#ade9f7"/></g><path d="m56.618 207.201c-5.705 0-10.329 4.624-10.329 10.329v19.523c0 5.705 4.625 10.329 10.329 10.329s10.33-4.625 10.33-10.329v-19.523c-.001-5.704-4.625-10.329-10.33-10.329z" fill="#fef156"/><path d="m114.004 207.201c-5.705 0-10.329 4.624-10.329 10.329v19.523c0 5.705 4.624 10.329 10.329 10.329s10.33-4.625 10.33-10.329v-19.523c-.001-5.704-4.625-10.329-10.33-10.329z" fill="#fef156"/><path d="m56.618 245.853c-5.705 0-10.329-4.625-10.329-10.329v33.029h20.659v-33.029c-.001 5.704-4.625 10.329-10.33 10.329z" fill="#ffc242"/><path d="m114.004 245.853c-5.705 0-10.329-4.625-10.329-10.329v33.029h20.659v-33.029c-.001 5.704-4.625 10.329-10.33 10.329z" fill="#ffc242"/><path d="m129.314 265.492h-55.87c-4.142 0-7.5 3.358-7.5 7.5v26.854c0 8.528 3.819 16.608 10.409 22.021 6.589 5.413 10.409 13.493 10.409 22.021 0 8.365 5.953 15.337 13.853 16.916l.107.221c8.597-.981 15.276-8.277 15.276-17.137 0-8.528 3.819-16.608 10.409-22.021 6.59-5.413 10.409-13.493 10.409-22.021v-26.854c-.002-4.142-3.36-7.5-7.502-7.5z" fill="#fd77a6"/><path d="m88.291 343.888c0-8.528-3.819-16.608-10.409-22.021s-10.409-13.493-10.409-22.021v-26.854c0-4.142 3.358-7.5 7.5-7.5h-33.666c-4.142 0-7.5 3.358-7.5 7.5v26.854c0 8.528 3.819 16.608 10.409 22.021s10.409 13.493 10.409 22.021c0 9.529 7.725 17.253 17.253 17.253h26.866c1.164 0 2.301-.117 3.4-.337-7.9-1.579-13.853-8.551-13.853-16.916z" fill="#fe3d97"/><path d="m397.997 344.931c-5.705 0-10.329-4.624-10.329-10.329v-19.523c0-5.705 4.624-10.329 10.329-10.329s10.329 4.624 10.329 10.329v19.523c0 5.705-4.624 10.329-10.329 10.329z" fill="#fef156"/><path d="m455.383 344.931c-5.705 0-10.329-4.624-10.329-10.329v-19.523c0-5.705 4.624-10.329 10.329-10.329s10.329 4.624 10.329 10.329v19.523c0 5.705-4.624 10.329-10.329 10.329z" fill="#fef156"/><path d="m397.997 306.28c-5.705 0-10.329 4.625-10.329 10.33v-33.03h20.659v33.029c-.001-5.705-4.625-10.329-10.33-10.329z" fill="#ffc242"/><path d="m455.383 306.28c-5.705 0-10.329 4.625-10.329 10.33v-33.03h20.659v33.029c-.001-5.705-4.625-10.329-10.33-10.329z" fill="#ffc242"/><path d="m470.693 286.641h-55.87c-4.142 0-7.5-3.358-7.5-7.5v-26.854c0-8.528 3.819-16.608 10.409-22.021 6.589-5.413 10.408-13.493 10.408-22.021 0-8.365 5.953-15.337 13.853-16.916l.108-.221c8.597.981 15.276 8.277 15.276 17.137 0 8.528 3.819 16.608 10.409 22.021 6.59 5.413 10.409 13.493 10.409 22.021v26.854c-.002 4.142-3.36 7.5-7.502 7.5z" fill="#02c0fc"/><path d="m429.67 208.245c0 8.528-3.819 16.608-10.409 22.021s-10.409 13.493-10.409 22.021v26.854c0 4.142 3.358 7.5 7.5 7.5h-33.667c-4.142 0-7.5-3.358-7.5-7.5v-26.854c0-8.528 3.819-16.608 10.409-22.021s10.409-13.493 10.409-22.021c0-9.529 7.725-17.253 17.253-17.253h26.866c1.164 0 2.301.117 3.4.337-7.899 1.579-13.852 8.551-13.852 16.916z" fill="#27a6ff"/><g><path d="m409.267 117.771c-4.059 0-7.961-2.256-9.876-6.143-13.018-26.432-33.069-48.802-57.986-64.692-25.581-16.313-55.113-24.936-85.405-24.936-6.075 0-11-4.925-11-11s4.925-11 11-11c34.49 0 68.113 9.816 97.234 28.388 28.311 18.055 51.096 43.479 65.893 73.521 2.685 5.45.442 12.044-5.008 14.729-1.562.768-3.221 1.133-4.852 1.133z" fill="#e8f8fc"/></g></g></svg>