<svg id="Layer_1" enable-background="new 0 0 512 512" height="512" viewBox="0 0 512 512" width="512" xmlns="http://www.w3.org/2000/svg"><g><path d="m245.002 21.996c-115.978 0-213.125 80.588-238.521 188.82 0 0 17.463 169.105 50.371 213.097 1.252 1.5 2.522 2.984 3.809 4.454.001 0 .001.001.001.001h.001c1.127 1.286 2.271 2.557 3.424 3.819l9.132 9.478 12.112 11.152c42.884 36.884 98.671 59.183 159.671 59.183 28.76 0 56.356-4.972 81.994-14.076l46.707-22.429c69.794-43.174 116.301-120.399 116.301-208.497 0-135.311-109.691-245.002-245.002-245.002z" fill="#27a6ff"/><path d="m38.638 290.524 40.284-45.592h-39.243l-1.041 1.178z" fill="#6ad9fb"/><path d="m44.423 407.704c5.047 7.182 10.47 14.079 16.24 20.665l18.259-20.665z" fill="#6ad9fb"/><path d="m1.092 290.098-.01.05c2.829 30.151 11.13 58.71 23.888 84.684h15.154v-129.903h-39.121c-.652 7.27-1.003 14.628-1.003 22.069 0 2.251.041 4.491.101 6.727z" fill="#e8f8fc"/><path d="m126.621 211.305v-44.624c0-5.237-3.864-9.834-9.077-10.345-5.99-.588-11.084 4.155-11.084 10.031v44.939h20.161z" fill="#1d2e79"/><path d="m134.767 211.191h-36.453c-4.633 0-8.424-3.791-8.424-8.424v-.176c0-4.633 3.791-8.424 8.424-8.424h36.453c4.633 0 8.424 3.791 8.424 8.424v.176c0 4.633-3.791 8.424-8.424 8.424z" fill="#ffc242"/><path d="m134.854 194.516h-36.627c-4.586 0-8.337-3.752-8.337-8.337 0-4.586 3.752-8.338 8.337-8.338h36.627c4.586 0 8.337 3.752 8.337 8.338 0 4.585-3.751 8.337-8.337 8.337z" fill="#fef156"/><path d="m153.624 210.816h-74.659c-9.931 0-18.056 8.125-18.056 18.056s8.125 18.056 18.056 18.056h74.659c4.628 0 8.415-3.787 8.415-8.415v-19.283c0-4.627-3.787-8.414-8.415-8.414z" fill="#e8f8fc"/><path d="m126.621 374.077v-44.624c0-5.238-3.864-9.834-9.077-10.345-5.99-.588-11.084 4.155-11.084 10.031v44.939h20.161z" fill="#1d2e79"/><path d="m134.767 373.962h-36.453c-4.633 0-8.424-3.791-8.424-8.424v-.176c0-4.633 3.791-8.424 8.424-8.424h36.453c4.633 0 8.424 3.791 8.424 8.424v.176c0 4.633-3.791 8.424-8.424 8.424z" fill="#ffc242"/><path d="m134.854 357.287h-36.627c-4.586 0-8.337-3.752-8.337-8.337 0-4.586 3.752-8.337 8.337-8.337h36.627c4.586 0 8.337 3.752 8.337 8.337 0 4.585-3.751 8.337-8.337 8.337z" fill="#fef156"/><circle cx="116.541" cy="391.644" fill="#6ad9fb" r="8.611"/><path d="m191.344 258.192c-23.559-15.85-46.22-43.784-67.761-83.662-2.101-3.887-6.955-5.335-10.842-3.236-3.887 2.101-5.336 6.954-3.236 10.842 25.341 46.91 52.725 78.606 81.839 94.842z" fill="#2a428b"/><path d="m463.452 14.607c-4.112-1.614-8.756.409-10.371 4.521-.246.626-25.047 63.336-63.769 125.988-22.801 36.893-53.56 78.699-88.099 104.361h25.306c2.052-1.834 4.105-3.724 6.159-5.682 23.388-22.293 47.062-52.73 70.365-90.461 39.438-63.858 64.681-127.721 64.931-128.358 1.615-4.111-.41-8.753-4.522-10.369z" fill="#2a428b"/><path d="m412.959 265.728c-7.117 13.254-15.037 27.187-23.647 41.118-35.035 56.689-88.858 124.993-146.315 128.472-42.353 2.564-82.523-30.765-119.414-99.059-2.101-3.887-6.955-5.335-10.842-3.236-3.887 2.101-5.336 6.954-3.236 10.842 38.59 71.435 81.916 107.593 128.875 107.593 1.855 0 3.726-.057 5.593-.17 28.839-1.748 58.684-17.145 88.705-45.762 23.388-22.293 47.062-52.729 70.365-90.461 10.395-16.832 19.802-33.663 28.027-49.337z" fill="#2a428b"/><g fill="#6ad9fb"><path d="m372.019 152.274 45.697-51.718h-44.516l-1.181 1.336z"/><path d="m328.681 101.892-1.18-1.336h-44.516l45.696 51.718z"/><path d="m373.2 285.198-1.181 1.336v50.382l45.697-51.718z"/><path d="m282.985 285.198 45.696 51.718v-50.382l-1.18-1.336z"/></g><path d="m326.996 100.821v50.948c0-12.845 10.509-23.354 23.354-23.354s23.354 10.509 23.354 23.354v-50.948z" fill="#ade9f7"/><path d="m350.35 221.655c-12.845 0-23.354-10.51-23.354-23.354v153.266c0-12.845 10.509-23.354 23.354-23.354s23.354 10.509 23.354 23.354v-153.267c.001 12.845-10.509 23.355-23.354 23.355z" fill="#ade9f7"/><path d="m153.624 373.588h-74.659c-9.931 0-18.056 8.125-18.056 18.056v.001c0 9.931 8.125 18.056 18.056 18.056h74.659c4.628 0 8.415-3.787 8.415-8.415v-19.283c0-4.628-3.787-8.415-8.415-8.415z" fill="#e8f8fc"/><path d="m62.909 228.872c0-9.931 8.125-18.056 18.056-18.056h-74.484c-2.754 11.735-4.66 23.795-5.659 36.112h80.142c-9.93.001-18.055-8.124-18.055-18.056z" fill="#ade9f7"/><path d="m62.909 391.644c0-9.931 8.125-18.056 18.056-18.056h-56.62c6.14 12.687 13.346 24.76 21.494 36.112h35.126c-9.931 0-18.056-8.125-18.056-18.056z" fill="#ade9f7"/><path d="m232.391 22.315c-3.604 8.93-27.5 66.888-63.294 124.802-35.035 56.689-88.858 124.993-146.315 128.472-7.639.463-15.206-.261-22.697-2.129.145 5.596.492 11.141 1.006 16.638 5.636 1.081 11.327 1.631 17.073 1.631 1.857 0 3.726-.057 5.593-.17 28.839-1.748 58.684-17.145 88.705-45.762 23.388-22.293 47.062-52.73 70.365-90.461 39.438-63.858 64.681-127.721 64.931-128.358.644-1.64.701-3.36.286-4.943-1.014-.012-2.026-.038-3.043-.038-4.228-.001-8.433.106-12.61.318z" fill="#3f57a0"/><path d="m243.237 201.337c-4.117-1.614-8.756.41-10.371 4.521-.246.626-25.047 63.336-63.768 125.988-24.499 39.641-58.187 84.957-95.879 109.819 3.913 3.849 7.949 7.571 12.112 11.152 9.013-6.219 18.064-13.648 27.131-22.292 23.388-22.293 47.062-52.729 70.365-90.461 39.438-63.858 64.681-127.721 64.931-128.358 1.616-4.111-.408-8.754-4.521-10.369z" fill="#3f57a0"/><path d="m251.747 62.411v-50.62c0-5.941-4.383-11.155-10.297-11.735-6.795-.667-12.574 4.714-12.574 11.379v50.977h22.871z" fill="#5071b7"/><path d="m260.682 62.281h-40.74c-5.424 0-9.861-4.438-9.861-9.861v-.842c0-5.424 4.438-9.861 9.861-9.861h40.74c5.424 0 9.862 4.438 9.862 9.861v.842c0 5.424-4.438 9.861-9.862 9.861z" fill="#ffc242"/><path d="m260.784 42.139h-40.944c-5.368 0-9.76-4.392-9.76-9.76v-.623c0-5.368 4.392-9.76 9.76-9.76h40.944c5.368 0 9.76 4.392 9.76 9.76v.623c0 5.368-4.392 9.76-9.76 9.76z" fill="#fef156"/><path d="m471.824 62.411v-50.62c0-5.941-4.384-11.155-10.297-11.735-6.795-.667-12.574 4.714-12.574 11.379v50.977h22.871z" fill="#5071b7"/><path d="m480.759 62.281h-40.74c-5.424 0-9.862-4.438-9.862-9.861v-.842c0-5.424 4.438-9.861 9.862-9.861h40.74c5.424 0 9.861 4.438 9.861 9.861v.842c0 5.424-4.437 9.861-9.861 9.861z" fill="#ffc242"/><path d="m480.861 42.139h-40.944c-5.368 0-9.76-4.392-9.76-9.76v-.623c0-5.368 4.392-9.76 9.76-9.76h40.944c5.368 0 9.76 4.392 9.76 9.76v.623c-.001 5.368-4.393 9.76-9.76 9.76z" fill="#fef156"/><path d="m502.454 61.857h-209.952c-11.265 0-20.482 9.217-20.482 20.482 0 11.266 9.217 20.482 20.482 20.482h209.953c5.25 0 9.546-4.295 9.546-9.545v-21.874c-.001-5.25-4.296-9.545-9.547-9.545z" fill="#e8f8fc"/><path d="m274.02 82.339c0-11.265 9.217-20.482 20.482-20.482h-96.256c-5.25 0-9.546 4.295-9.546 9.545v21.874c0 5.25 4.295 9.545 9.546 9.545h96.256c-11.265 0-20.482-9.217-20.482-20.482z" fill="#ade9f7"/><circle cx="240.312" cy="82.339" fill="#6ad9fb" r="9.768"/><circle cx="460.389" cy="82.339" fill="#6ad9fb" r="9.768"/><path d="m251.747 247.053v-50.62c0-5.941-4.383-11.155-10.297-11.735-6.795-.667-12.574 4.714-12.574 11.379v50.977h22.871z" fill="#5071b7"/><path d="m260.57 246.923h-40.516c-5.486 0-9.974-4.488-9.974-9.974v-1.088c0-5.486 4.488-9.974 9.974-9.974h40.516c5.486 0 9.974 4.488 9.974 9.974v1.088c0 5.485-4.488 9.974-9.974 9.974z" fill="#ffc242"/><path d="m260.673 226.319h-40.722c-5.429 0-9.871-4.442-9.871-9.871v-.862c0-5.429 4.442-9.871 9.871-9.871h40.722c5.429 0 9.871 4.442 9.871 9.871v.862c0 5.429-4.442 9.871-9.871 9.871z" fill="#fef156"/><path d="m471.824 247.053v-50.62c0-5.941-4.384-11.155-10.297-11.735-6.795-.667-12.574 4.714-12.574 11.379v50.977h22.871z" fill="#5071b7"/><path d="m480.647 246.923h-40.516c-5.486 0-9.974-4.488-9.974-9.974v-1.088c0-5.486 4.488-9.974 9.974-9.974h40.516c5.486 0 9.974 4.488 9.974 9.974v1.088c-.001 5.485-4.489 9.974-9.974 9.974z" fill="#ffc242"/><path d="m480.749 226.319h-40.722c-5.429 0-9.871-4.442-9.871-9.871v-.862c0-5.429 4.442-9.871 9.871-9.871h40.722c5.429 0 9.871 4.442 9.871 9.871v.862c0 5.429-4.442 9.871-9.871 9.871z" fill="#fef156"/><path d="m502.454 246.498h-209.952c-11.265 0-20.482 9.217-20.482 20.482 0 11.264 9.214 20.479 20.477 20.482h209.958c5.25 0 9.546-4.296 9.546-9.546v-21.874c-.001-5.249-4.296-9.544-9.547-9.544z" fill="#e8f8fc"/><path d="m274.02 266.98c0-11.266 9.217-20.482 20.482-20.482h-96.256c-5.25 0-9.546 4.295-9.546 9.545v21.874c0 5.25 4.295 9.546 9.546 9.546h96.256c-11.265 0-20.482-9.217-20.482-20.483z" fill="#ade9f7"/><ellipse cx="240.312" cy="266.98" fill="#6ad9fb" rx="9.768" ry="9.768" transform="matrix(.231 -.973 .973 .231 -74.91 439.212)"/><ellipse cx="460.389" cy="266.98" fill="#6ad9fb" rx="9.768" ry="9.768" transform="matrix(.208 -.978 .978 .208 103.425 661.712)"/><path d="m350.35 223.655c-12.845 0-23.354-10.509-23.354-23.354v-50.531c0-12.845 10.509-23.354 23.354-23.354 12.845 0 23.354 10.509 23.354 23.354v50.53c.001 12.845-10.509 23.355-23.354 23.355z" fill="#e8f8fc"/><path d="m350.35 126.415c-12.845 0-23.354 10.509-23.354 23.354v50.531c0 12.845 10.509 23.354 23.354 23.354s23.354-10.51 23.354-23.354v-50.53c.001-12.845-10.509-23.355-23.354-23.355z" fill="#e8f8fc"/><path d="m350.35 326.212c-12.845 0-23.354 10.509-23.354 23.354v148.358c16.45-5.841 32.09-13.387 46.709-22.43v-125.928c0-12.845-10.51-23.354-23.355-23.354z" fill="#e8f8fc"/><path d="m31.45 146.863h97.219c9.749 0 17.725-7.976 17.725-17.725 0-9.748-7.976-17.725-17.725-17.725h-17.368c-8.713 0-16.262-6.613-16.803-15.31-.523-8.473 5.292-17.29 14.28-17.29h49.89c9.748 0 17.724-7.976 17.724-17.725s-7.976-17.725-17.725-17.725h-13.855c-47.947 21.518-87.712 57.998-113.362 103.5z" fill="#02c0fc"/><path d="m485.654 313.151h-54.584c-9.749 0-17.725 7.977-17.725 17.725 0 9.749 7.976 17.725 17.725 17.725h4.794c8.713 0 16.263 6.613 16.803 15.31.523 8.473-5.292 17.29-14.28 17.29h-26.688c-9.748 0-17.724 7.975-17.724 17.725 0 9.748 7.976 17.725 17.725 17.725h27.288c23.028-29.803 39.336-65.059 46.666-103.5z" fill="#02c0fc"/><path d="m268.094 333.842h-40.112c-9.789 0-17.724 7.936-17.724 17.725 0 9.789 7.936 17.724 17.724 17.724h40.521c10.324 0 18.66-8.945 17.64-19.468-.887-9.147-8.858-15.981-18.049-15.981z" fill="#02c0fc"/></g></svg>