<?xml version="1.0" encoding="UTF-8"?><svg id="Layer_2" xmlns="http://www.w3.org/2000/svg" xmlns:xlink="http://www.w3.org/1999/xlink" viewBox="0 0 623 235"><defs><style>.cls-1{fill:none;filter:url(#drop-shadow-1);stroke:#fff;stroke-miterlimit:10;}</style><filter id="drop-shadow-1" x="0" y="0" width="623" height="235" filterUnits="userSpaceOnUse"><feOffset dx="7" dy="7"/><feGaussianBlur result="blur" stdDeviation="5"/><feFlood flood-color="#000" flood-opacity=".75"/><feComposite in2="blur" operator="in"/><feComposite in="SourceGraphic"/></filter></defs><g id="_ÎÓÈ_1"><path class="cls-1" d="M424.99,8.6l175.36,204.03M558.13,212.63L409.83,8.95M515.9,212.63L394.6,9M473.67,212.63L379.28,8.9M431.44,212.63L364.02,8.9M348.76,8.9l40.46,203.73M346.99,212.63l-13.48-203.62M304.76,212.63l13.48-203.73M262.53,212.63L302.97,9M220.3,212.63L287.73,8.9M178.08,212.63L272.47,8.9M135.85,212.63L257.16,8.99M93.62,212.63L241.88,9M51.39,212.63L226.7,8.9M211.34,9L9.17,212.63M571.45,179.04H42.51M69.5,151.86h478.14M528.14,129.4H91.83M111.03,108.5h401.05M126.42,94.47h371.28M486.76,80.61H140.23M476.27,68.55H152.21M467.51,57.95H162.74M459.54,48.56H171.84M451.97,40.18H180.38M445.5,32.67H187.84M439.67,25.89h-245.09M200.68,19.73h233.71M429.55,14.13h-223.31M211.34,9h214.07"/></g></svg>