<?xml version="1.0" encoding="UTF-8"?><svg id="Layer_2" xmlns="http://www.w3.org/2000/svg" xmlns:xlink="http://www.w3.org/1999/xlink" viewBox="0 0 139.5 171"><defs><style>.cls-1{clip-path:url(#clippath);}.cls-2{fill:#fff;}.cls-3{fill:#91cde3;}</style><clipPath id="clippath"><rect class="cls-2" width="139.5" height="171"/></clipPath></defs><g id="Layer_1-2"><g><rect class="cls-2" width="139.5" height="171"/><g class="cls-1"><g><g><path class="cls-3" d="M168.37,228.75H-58.6V-57.87H168.37V228.75Zm-226.68-.3H168.07V-57.57H-58.3V228.45Z"/><rect class="cls-3" x="-58.45" y="142.56" width="226.68" height=".3"/><rect class="cls-3" x="-58.45" y="113.92" width="226.68" height=".3"/><rect class="cls-3" x="-58.45" y="85.29" width="226.68" height=".3"/><rect class="cls-3" x="-58.45" y="56.66" width="226.68" height=".3"/><rect class="cls-3" x="-58.45" y="28.03" width="226.68" height=".3"/><rect class="cls-3" x="111.4" y="-57.72" width=".3" height="286.32"/><rect class="cls-3" x="83.07" y="-57.72" width=".3" height="286.32"/><rect class="cls-3" x="54.73" y="-57.72" width=".3" height="286.32"/><rect class="cls-3" x="26.4" y="-57.72" width=".3" height="286.32"/></g><g><path class="cls-3" d="M168.3,228.68H-58.53V-57.79H168.3V228.68Zm-226.68-.15H168.15V-57.64H-58.38V228.53Z"/><rect class="cls-3" x="-58.45" y="164.11" width="226.68" height=".15"/><rect class="cls-3" x="-58.45" y="156.95" width="226.68" height=".15"/><rect class="cls-3" x="-58.45" y="149.79" width="226.68" height=".15"/><rect class="cls-3" x="-58.45" y="142.63" width="226.68" height=".15"/><rect class="cls-3" x="-58.45" y="135.47" width="226.68" height=".15"/><rect class="cls-3" x="-58.45" y="128.32" width="226.68" height=".15"/><rect class="cls-3" x="-58.45" y="121.16" width="226.68" height=".15"/><rect class="cls-3" x="-58.45" y="114" width="226.68" height=".15"/><rect class="cls-3" x="-58.45" y="106.84" width="226.68" height=".15"/><rect class="cls-3" x="-58.45" y="99.68" width="226.68" height=".15"/><rect class="cls-3" x="-58.45" y="92.53" width="226.68" height=".15"/><rect class="cls-3" x="-58.45" y="85.37" width="226.68" height=".15"/><rect class="cls-3" x="-58.45" y="78.21" width="226.68" height=".15"/><rect class="cls-3" x="-58.45" y="71.05" width="226.68" height=".15"/><rect class="cls-3" x="-58.45" y="63.89" width="226.68" height=".15"/><rect class="cls-3" x="-58.45" y="56.74" width="226.68" height=".15"/><rect class="cls-3" x="-58.45" y="49.58" width="226.68" height=".15"/><rect class="cls-3" x="-58.45" y="42.42" width="226.68" height=".15"/><rect class="cls-3" x="-58.45" y="35.26" width="226.68" height=".15"/><rect class="cls-3" x="-58.45" y="28.1" width="226.68" height=".15"/><rect class="cls-3" x="-58.45" y="20.95" width="226.68" height=".15"/><rect class="cls-3" x="-58.45" y="13.79" width="226.68" height=".15"/><rect class="cls-3" x="-58.45" y="6.63" width="226.68" height=".15"/><rect class="cls-3" x="132.73" y="-57.72" width=".15" height="286.32"/><rect class="cls-3" x="125.65" y="-57.72" width=".15" height="286.32"/><rect class="cls-3" x="118.56" y="-57.72" width=".15" height="286.32"/><rect class="cls-3" x="111.48" y="-57.72" width=".15" height="286.32"/><rect class="cls-3" x="104.4" y="-57.72" width=".15" height="286.32"/><rect class="cls-3" x="97.31" y="-57.72" width=".15" height="286.32"/><rect class="cls-3" x="90.23" y="-57.72" width=".15" height="286.32"/><rect class="cls-3" x="83.14" y="-57.72" width=".15" height="286.32"/><rect class="cls-3" x="76.06" y="-57.72" width=".15" height="286.32"/><rect class="cls-3" x="68.98" y="-57.72" width=".15" height="286.32"/><rect class="cls-3" x="61.89" y="-57.72" width=".15" height="286.32"/><rect class="cls-3" x="54.81" y="-57.72" width=".15" height="286.32"/><rect class="cls-3" x="47.73" y="-57.72" width=".15" height="286.32"/><rect class="cls-3" x="40.64" y="-57.72" width=".15" height="286.32"/><rect class="cls-3" x="33.56" y="-57.72" width=".15" height="286.32"/><rect class="cls-3" x="26.48" y="-57.72" width=".15" height="286.32"/><rect class="cls-3" x="19.39" y="-57.72" width=".15" height="286.32"/><rect class="cls-3" x="12.31" y="-57.72" width=".15" height="286.32"/><rect class="cls-3" x="5.22" y="-57.72" width=".15" height="286.32"/></g></g></g></g></g></svg>