<?xml version="1.0" encoding="UTF-8"?><svg xmlns="http://www.w3.org/2000/svg" xmlns:xlink="http://www.w3.org/1999/xlink" viewBox="0 0 140.99 172.49"><defs><style>.cls-1{clip-path:url(#clippath);}.cls-2{fill:#fff;}.cls-3{fill:#91cde3;}.cls-4{fill:#e6e6e6;mix-blend-mode:multiply;}.cls-5{isolation:isolate;}</style><clipPath id="clippath"><rect class="cls-2" x="1.49" width="139.5" height="171"/></clipPath></defs><g class="cls-5"><g id="Layer_2"><g id="Layer_1-2"><g><rect class="cls-4" y="1.49" width="139.5" height="171"/><g><rect class="cls-2" x="1.49" width="139.5" height="171"/><g class="cls-1"><g><g><path class="cls-3" d="M141.37,171.66H.76V-.77H141.37V171.66Zm-140.31-.3H141.07V-.47H1.06V171.36Z"/><rect class="cls-3" x=".91" y="154.14" width="140.31" height=".3"/><rect class="cls-3" x=".91" y="136.93" width="140.31" height=".3"/><rect class="cls-3" x=".91" y="119.72" width="140.31" height=".3"/><rect class="cls-3" x=".91" y="102.51" width="140.31" height=".3"/><rect class="cls-3" x=".91" y="85.29" width="140.31" height=".3"/><rect class="cls-3" x=".91" y="68.08" width="140.31" height=".3"/><rect class="cls-3" x=".91" y="50.87" width="140.31" height=".3"/><rect class="cls-3" x=".91" y="33.65" width="140.31" height=".3"/><rect class="cls-3" x=".91" y="16.44" width="140.31" height=".3"/><rect class="cls-3" x="123.53" y="-.62" width=".3" height="172.13"/><rect class="cls-3" x="105.99" y="-.62" width=".3" height="172.13"/><rect class="cls-3" x="88.45" y="-.62" width=".3" height="172.13"/><rect class="cls-3" x="70.92" y="-.62" width=".3" height="172.13"/><rect class="cls-3" x="53.38" y="-.62" width=".3" height="172.13"/><rect class="cls-3" x="35.84" y="-.62" width=".3" height="172.13"/><rect class="cls-3" x="18.3" y="-.62" width=".3" height="172.13"/></g><g><path class="cls-3" d="M141.3,171.58H.83V-.7H141.3V171.58Zm-140.31-.15H141.15V-.55H.98V171.43Z"/><rect class="cls-3" x=".91" y="167.13" width="140.31" height=".15"/><rect class="cls-3" x=".91" y="162.83" width="140.31" height=".15"/><rect class="cls-3" x=".91" y="158.52" width="140.31" height=".15"/><rect class="cls-3" x=".91" y="154.22" width="140.31" height=".15"/><rect class="cls-3" x=".91" y="149.92" width="140.31" height=".15"/><rect class="cls-3" x=".91" y="145.61" width="140.31" height=".15"/><rect class="cls-3" x=".91" y="141.31" width="140.31" height=".15"/><rect class="cls-3" x=".91" y="137.01" width="140.31" height=".15"/><rect class="cls-3" x=".91" y="132.7" width="140.31" height=".15"/><rect class="cls-3" x=".91" y="128.4" width="140.31" height=".15"/><rect class="cls-3" x=".91" y="124.1" width="140.31" height=".15"/><rect class="cls-3" x=".91" y="119.79" width="140.31" height=".15"/><rect class="cls-3" x=".91" y="115.49" width="140.31" height=".15"/><rect class="cls-3" x=".91" y="111.19" width="140.31" height=".15"/><rect class="cls-3" x=".91" y="106.88" width="140.31" height=".15"/><rect class="cls-3" x=".91" y="102.58" width="140.31" height=".15"/><rect class="cls-3" x=".91" y="98.28" width="140.31" height=".15"/><rect class="cls-3" x=".91" y="93.97" width="140.31" height=".15"/><rect class="cls-3" x=".91" y="89.67" width="140.31" height=".15"/><rect class="cls-3" x=".91" y="85.37" width="140.31" height=".15"/><rect class="cls-3" x=".91" y="81.06" width="140.31" height=".15"/><rect class="cls-3" x=".91" y="76.76" width="140.31" height=".15"/><rect class="cls-3" x=".91" y="72.46" width="140.31" height=".15"/><rect class="cls-3" x=".91" y="68.15" width="140.31" height=".15"/><rect class="cls-3" x=".91" y="63.85" width="140.31" height=".15"/><rect class="cls-3" x=".91" y="59.55" width="140.31" height=".15"/><rect class="cls-3" x=".91" y="55.25" width="140.31" height=".15"/><rect class="cls-3" x=".91" y="50.94" width="140.31" height=".15"/><rect class="cls-3" x=".91" y="46.64" width="140.31" height=".15"/><rect class="cls-3" x=".91" y="42.34" width="140.31" height=".15"/><rect class="cls-3" x=".91" y="38.03" width="140.31" height=".15"/><rect class="cls-3" x=".91" y="33.73" width="140.31" height=".15"/><rect class="cls-3" x=".91" y="29.43" width="140.31" height=".15"/><rect class="cls-3" x=".91" y="25.12" width="140.31" height=".15"/><rect class="cls-3" x=".91" y="20.82" width="140.31" height=".15"/><rect class="cls-3" x=".91" y="16.52" width="140.31" height=".15"/><rect class="cls-3" x=".91" y="12.21" width="140.31" height=".15"/><rect class="cls-3" x=".91" y="7.91" width="140.31" height=".15"/><rect class="cls-3" x=".91" y="3.61" width="140.31" height=".15"/><rect class="cls-3" x="136.76" y="-.62" width=".15" height="172.13"/><rect class="cls-3" x="132.38" y="-.62" width=".15" height="172.13"/><rect class="cls-3" x="127.99" y="-.62" width=".15" height="172.13"/><rect class="cls-3" x="123.61" y="-.62" width=".15" height="172.13"/><rect class="cls-3" x="119.22" y="-.62" width=".15" height="172.13"/><rect class="cls-3" x="114.84" y="-.62" width=".15" height="172.13"/><rect class="cls-3" x="110.45" y="-.62" width=".15" height="172.13"/><rect class="cls-3" x="106.07" y="-.62" width=".15" height="172.13"/><rect class="cls-3" x="101.68" y="-.62" width=".15" height="172.13"/><rect class="cls-3" x="97.3" y="-.62" width=".15" height="172.13"/><rect class="cls-3" x="92.91" y="-.62" width=".15" height="172.13"/><rect class="cls-3" x="88.53" y="-.62" width=".15" height="172.13"/><rect class="cls-3" x="84.15" y="-.62" width=".15" height="172.13"/><rect class="cls-3" x="79.76" y="-.62" width=".15" height="172.13"/><rect class="cls-3" x="75.38" y="-.62" width=".15" height="172.13"/><rect class="cls-3" x="70.99" y="-.62" width=".15" height="172.13"/><rect class="cls-3" x="66.61" y="-.62" width=".15" height="172.13"/><rect class="cls-3" x="62.22" y="-.62" width=".15" height="172.13"/><rect class="cls-3" x="57.84" y="-.62" width=".15" height="172.13"/><rect class="cls-3" x="53.45" y="-.62" width=".15" height="172.13"/><rect class="cls-3" x="49.07" y="-.62" width=".15" height="172.13"/><rect class="cls-3" x="44.68" y="-.62" width=".15" height="172.13"/><rect class="cls-3" x="40.3" y="-.62" width=".15" height="172.13"/><rect class="cls-3" x="35.91" y="-.62" width=".15" height="172.13"/><rect class="cls-3" x="31.53" y="-.62" width=".15" height="172.13"/><rect class="cls-3" x="27.14" y="-.62" width=".15" height="172.13"/><rect class="cls-3" x="22.76" y="-.62" width=".15" height="172.13"/><rect class="cls-3" x="18.37" y="-.62" width=".15" height="172.13"/><rect class="cls-3" x="13.99" y="-.62" width=".15" height="172.13"/><rect class="cls-3" x="9.6" y="-.62" width=".15" height="172.13"/><rect class="cls-3" x="5.22" y="-.62" width=".15" height="172.13"/></g></g></g></g></g></g></g></g></svg>