<svg width="330" height="114" xmlns="http://www.w3.org/2000/svg" xmlns:xlink="http://www.w3.org/1999/xlink" xml:space="preserve" overflow="hidden"><defs><filter id="fx0" x="-10%" y="-10%" width="120%" height="120%" filterUnits="userSpaceOnUse" primitiveUnits="userSpaceOnUse"><feComponentTransfer color-interpolation-filters="sRGB"><feFuncR type="discrete" tableValues="1.000000 1.000000"/><feFuncG type="discrete" tableValues="1.000000 1.000000"/><feFuncB type="discrete" tableValues="1.000000 1.000000"/><feFuncA type="linear" slope="1.000000" intercept="0.000000"/></feComponentTransfer><feGaussianBlur stdDeviation="3.762488 3.762488"/></filter><filter id="fx1" x="-10%" y="-10%" width="120%" height="120%" filterUnits="userSpaceOnUse" primitiveUnits="userSpaceOnUse"><feComponentTransfer color-interpolation-filters="sRGB"><feFuncR type="discrete" tableValues="1.000000 1.000000"/><feFuncG type="discrete" tableValues="1.000000 1.000000"/><feFuncB type="discrete" tableValues="1.000000 1.000000"/><feFuncA type="linear" slope="1.000000" intercept="0.000000"/></feComponentTransfer><feGaussianBlur stdDeviation="3.762488 3.762488"/></filter><clipPath id="clip2"><rect x="792" y="-4" width="330" height="114"/></clipPath><clipPath id="clip3"><rect x="-11.2875" y="-11.2875" width="351.575" height="135.575"/></clipPath><clipPath id="clip4"><rect x="0" y="0" width="329" height="113"/></clipPath><clipPath id="clip5"><rect x="2.20282" y="2.09543" width="274.575" height="23.5749"/></clipPath><clipPath id="clip6"><rect x="0" y="0" width="278" height="27"/></clipPath></defs><g clip-path="url(#clip2)" transform="translate(-792 4)"><g clip-path="url(#clip3)" filter="url(#fx0)" transform="translate(794 -4)"><g clip-path="url(#clip4)"><path d="M6.888 0 6.888-8.61C15.006-9.02 20.336-11.726 20.336-17.712 20.336-23.821 14.842-27.019 4.346-25.338L4.346 0ZM17.794-17.261C17.794-12.382 13.858-10.578 6.888-10.988L6.888-23.329C14.268-24.395 17.794-21.853 17.794-17.261ZM41.3667 0.451 41.6947-1.722C31.5267-2.009 28.5337-4.182 28.2877-9.307L42.3917-9.635C43.1297-15.949 40.3827-20.336 35.0527-20.336 29.9277-20.336 25.8277-15.703 25.8277-9.676 25.8277-3.239 29.2307 0.246 41.3667 0.451ZM34.5607-18.245C38.3327-18.245 40.1777-15.416 40.0957-11.275L28.2877-10.947C28.5337-15.539 30.9117-18.245 34.5607-18.245ZM63.5453 0 63.7913-1.927 56.6163-1.927C56.5753-6.847 56.4933-11.152 56.4523-14.883 58.6253-16.482 61.6183-17.589 66.0053-17.917L65.8823-20.541C61.5773-20.09 58.3793-18.45 56.3703-16.523 56.3293-17.466 56.2063-19.311 56.1653-19.844L48.8673-19.844 48.6623-18.081 53.9103-17.794C54.0333-13.53 54.0743-8.487 54.1973-1.927L48.5803-1.927 48.5803 0ZM86.503-19.967C76.54-20.787 73.301-17.548 73.301-14.637 73.301-9.635 84.781-9.184 84.781-5.166 84.781-3.239 82.28-1.394 73.096-2.132L72.973 0.123C83.879 0.82 87.323-2.378 87.323-5.453 87.323-10.578 75.843-11.316 75.843-15.047 75.843-16.769 77.934-18.532 86.626-17.712ZM102.122-1.681C100.892-1.681 99.6207-1.886 98.2677-2.378 98.2267-8.651 98.1447-12.587 98.0627-16.236 99.5387-17.425 101.384-18.204 103.311-18.204 106.714-18.204 109.297-15.334 109.297-10.168 109.297-4.715 106.058-1.681 102.122-1.681ZM98.2677 6.765 98.2677 0.205C99.2517 0.41 100.236 0.492 101.138 0.492 106.796 0.492 111.757-3.731 111.757-10.783 111.757-16.605 108.518-20.295 104.213-20.295 101.63-20.295 99.5797-19.147 97.9807-17.835L97.8167-19.926 95.5207-19.762C95.6847-15.416 95.7667-9.102 95.7667 0.041L95.7667 6.97ZM133.033 0.451 133.361-1.722C123.193-2.009 120.2-4.182 119.954-9.307L134.058-9.635C134.796-15.949 132.049-20.336 126.719-20.336 121.594-20.336 117.494-15.703 117.494-9.676 117.494-3.239 120.897 0.246 133.033 0.451ZM126.227-18.245C129.999-18.245 131.844-15.416 131.762-11.275L119.954-10.947C120.2-15.539 122.578-18.245 126.227-18.245ZM140.985-9.635C140.985-3.608 144.388 0.82 156.237 0.164L156.565-1.968C146.274-1.517 143.445-4.633 143.445-9.963 143.445-14.432 145.823-17.63 156.237-17.794L156.073-20.172C144.716-19.803 140.985-15.006 140.985-9.635ZM179.236 0.369 179.441-1.804C172.43-1.927 170.462-2.911 170.462-6.601L170.462-17.876 179.031-17.876 179.031-19.844 170.462-19.844 170.462-25.707 168.002-25.461 168.002-19.844 164.148-19.844 163.82-17.876 168.002-17.876 168.002-6.191C168.002-1.435 170.872 0.41 179.236 0.369ZM196.453-23.247 196.781-28.659 194.157-28.659 193.952-23.247ZM204.284 0 204.489-1.927 196.658-1.927 196.658-19.844 186.654-19.844 186.449-18.122 194.157-17.794 194.157-1.927 186.367-1.927 186.367 0ZM217.73-2.255 217.443-2.255C214.983-8.159 212.81-14.063 210.801-19.926L208.3-19.803C210.596-13.161 213.097-6.519 215.926 0.164L219.165 0.164C221.953-6.478 224.577-13.202 226.873-19.844L224.331-19.844C222.363-14.022 220.19-8.118 217.73-2.255ZM247.617 0.451 247.945-1.722C237.777-2.009 234.784-4.182 234.538-9.307L248.642-9.635C249.38-15.949 246.633-20.336 241.303-20.336 236.178-20.336 232.078-15.703 232.078-9.676 232.078-3.239 235.481 0.246 247.617 0.451ZM240.811-18.245C244.583-18.245 246.428-15.416 246.346-11.275L234.538-10.947C234.784-15.539 237.162-18.245 240.811-18.245Z" fill="#FFFFFF" fill-rule="nonzero" fill-opacity="1" transform="matrix(1 0 0 1 38.4903 65)"/></g></g><text fill="#FFFFFF" fill-opacity="1" font-family="Operator Mono Light,Operator Mono Light_MSFontService,sans-serif" font-style="normal" font-variant="normal" font-weight="300" font-stretch="normal" font-size="41" text-anchor="start" direction="ltr" writing-mode="lr-tb" unicode-bidi="normal" text-decoration="none" transform="matrix(1 0 0 1 832.49 58)">Perspective</text><g clip-path="url(#clip5)" filter="url(#fx1)" transform="translate(819 50)"><g clip-path="url(#clip6)"><path d="M13.4903 13.3829 76.4903 13.3829 139.49 13.3829 202.49 13.3829 265.49 13.3829 265.49 14.3829 202.49 14.3829 139.49 14.3829 76.4903 14.3829 13.4903 14.3829Z" fill="#FFFFFF" fill-rule="evenodd" fill-opacity="1"/></g></g><path d="M832.49 59.962 895.49 59.962 958.49 59.962 1021.49 59.962 1084.49 59.962 1084.49 60.962 1021.49 60.962 958.49 60.962 895.49 60.962 832.49 60.962Z" fill="#FFFFFF" fill-rule="evenodd" fill-opacity="1"/></g></svg>