<?xml version="1.0" encoding="UTF-8"?><svg id="Layer_2" xmlns="http://www.w3.org/2000/svg" viewBox="0 0 200.66 197.82"><defs><style>.cls-1{opacity:.15;}</style></defs><g id="_ÎÓÈ_1"><g><path d="M17.08,48.12h-2.75c-.08,0-.15-.03-.21-.09l-3.59-3.59c-.05-.05-.09-.13-.09-.21V21.53c0-.08,.03-.15,.09-.21l12.04-12.04c.05-.05,.13-.09,.21-.09h58.64c.08,0,.15,.03,.21,.09l4.96,4.96c.05,.05,.09,.13,.09,.21v2.36c0,.16-.13,.29-.29,.29s-.29-.13-.29-.29v-2.23l-4.79-4.79H22.89l-11.86,11.86v22.46l3.42,3.42h2.63c.16,0,.29,.13,.29,.29s-.13,.29-.29,.29Z"/><polygon points="25.06 9.5 14.29 20.26 13.34 20.26 12.67 19.6 22.77 9.5 25.06 9.5"/><polygon points="19.61 9.5 10.68 18.43 10.74 9.5 19.61 9.5"/><path d="M97.42,37.18h-3.66s-.08-.02-.1-.04l-7.39-7.4s-.04-.06-.04-.1v-9.38c0-.08,.07-.15,.15-.15s.15,.07,.15,.15v9.32l7.31,7.31h3.6c.08,0,.15,.07,.15,.15s-.07,.15-.15,.15Z"/><path d="M96.79,13.92h-3.93c-.08,0-.15-.03-.21-.09l-4.13-4.13c-.11-.11-.11-.3,0-.41s.3-.11,.41,0l4.05,4.05h3.81c.16,0,.29,.13,.29,.29s-.13,.29-.29,.29Z"/><path d="M93.57,14.88h-.97s-.08-.02-.1-.04l-.7-.71c-.06-.06-.06-.15,0-.21s.15-.06,.21,0l.66,.66h.91c.08,0,.15,.07,.15,.15s-.07,.15-.15,.15Z"/><path d="M96.79,20.41h-3.93c-.08,0-.15-.03-.21-.09l-4.13-4.14c-.11-.11-.11-.3,0-.41s.3-.11,.41,0l4.05,4.05h3.81c.16,0,.29,.13,.29,.29s-.13,.29-.29,.29Z"/><path d="M93.57,21.37h-.97s-.08-.02-.1-.04l-.7-.7c-.06-.06-.06-.15,0-.21s.15-.06,.21,0l.66,.66h.91c.08,0,.15,.07,.15,.15s-.07,.15-.15,.15Z"/><path d="M96.79,26.9h-3.93c-.08,0-.15-.03-.21-.09l-4.13-4.13c-.11-.11-.11-.3,0-.41s.3-.11,.41,0l4.05,4.05h3.81c.16,0,.29,.13,.29,.29s-.13,.29-.29,.29Z"/><path d="M93.57,27.86h-.97s-.08-.02-.1-.04l-.7-.7c-.06-.06-.06-.15,0-.21s.15-.06,.21,0l.66,.66h.91c.08,0,.15,.07,.15,.15s-.07,.15-.15,.15Z"/><polygon points="94.08 34.94 96.48 34.94 96.48 32.82 95.28 32.82 94.08 33.97 94.08 34.94"/><path d="M58.25,65.79h-3.13s-.08-.02-.1-.04l-17.78-17.78H20.15c-.08,0-.15-.07-.15-.15s.07-.15,.15-.15h17.16s.08,.02,.1,.04l17.78,17.78h3.07c.08,0,.15,.07,.15,.15s-.07,.15-.15,.15Z"/><path d="M37.73,93.01H9.13c-.08,0-.15-.07-.15-.15V56.52s.02-.08,.04-.1l5.53-5.53s.06-.04,.1-.04h2.43c.08,0,.15,.07,.15,.15s-.07,.15-.15,.15h-2.37l-5.44,5.44v36.14h28.4l5.1-5.1v-1.22c0-.08,.07-.15,.15-.15s.15,.07,.15,.15v1.28s-.02,.08-.04,.1l-5.19,5.19s-.06,.04-.1,.04Z"/><polygon points="9.13 92.08 28.15 92.08 28.9 92.83 9.13 92.87 9.13 92.08"/><path d="M9.34,75.63h-.21c-.08,0-.15-.07-.15-.15s.07-.15,.15-.15h.15l.39-.39v-19.12c0-.08,.07-.15,.15-.15s.15,.07,.15,.15v19.18s-.02,.08-.04,.1l-.48,.48s-.06,.04-.1,.04Z"/><path d="M61.04,65.94h-1.28c-.16,0-.29-.13-.29-.29s.13-.29,.29-.29h1.28c.16,0,.29,.13,.29,.29s-.13,.29-.29,.29Z"/><path d="M86.37,15.58s-.07-.01-.1-.04l-4.98-4.98h-17.32s-.08-.02-.1-.04l-.41-.41s-.04-.06-.04-.1v-.51c0-.08,.07-.15,.15-.15s.15,.07,.15,.15v.45l.32,.32h17.32s.08,.02,.1,.04l5.02,5.02c.06,.06,.06,.15,0,.21-.03,.03-.07,.04-.1,.04Z"/><path d="M81.86,7.94H43.32s-.08-.02-.1-.04l-1.15-1.15c-.06-.06-.06-.15,0-.21s.15-.06,.21,0l1.11,1.11h38.42l1.22-1.22v-1.34c0-.08,.07-.15,.15-.15s.15,.07,.15,.15v1.4s-.02,.08-.04,.1l-1.3,1.3s-.06,.04-.1,.04Z"/><path d="M7.62,93.01h-3.57c-.08,0-.15-.07-.15-.15s.07-.15,.15-.15h3.42v-13.51l-1.27-1.27c-.06-.06-.06-.15,0-.21s.15-.06,.21,0l1.32,1.32s.04,.06,.04,.1v13.72c0,.08-.07,.15-.15,.15Z"/><path d="M2.36,93.16H.29c-.16,0-.29-.13-.29-.29s.13-.29,.29-.29H2.36c.16,0,.29,.13,.29,.29s-.13,.29-.29,.29Z"/><path d="M83.75,47.26h-27.9s-.04,0-.05-.02l-17.28-17.28s-.02-.03-.02-.05V13.63s.03-.07,.07-.07h41.74s.04,0,.05,.02l3.45,3.45s.02,.03,.02,.05v30.11s-.03,.07-.07,.07Zm-27.87-.15h27.8V17.11l-3.4-3.4H38.64V29.87l17.24,17.24Z"/><path d="M31.34,88.5h-13.08s-.07-.03-.07-.07V54.6s.03-.07,.07-.07h18.64s.04,0,.05,.02l12.84,12.84s.02,.03,.02,.05v14.52s-.03,.07-.07,.07h-11.91l-6.44,6.44s-.03,.02-.05,.02Zm-13.01-.15h12.98l6.44-6.44s.03-.02,.05-.02h11.87v-14.42l-12.8-12.8H18.33v33.68Z"/><path d="M35.3,29.72H16.66s-.07-.03-.07-.07v-5.84s0-.04,.02-.05l10.17-10.17s.03-.02,.05-.02h8.47s.07,.03,.07,.07V29.64s-.03,.07-.07,.07Zm-18.57-.15h18.5V13.7h-8.37l-10.13,10.13v5.74Z"/><path d="M68.82,47.26s-.07-.03-.07-.07v-5.14l-16.61-16.61h-13.57s-.07-.03-.07-.07,.03-.07,.07-.07h13.6s.04,0,.05,.02l16.66,16.66s.02,.03,.02,.05v5.17s-.03,.07-.07,.07Z"/><path d="M25.87,29.72s-.07-.03-.07-.07v-3.61s0-.04,.02-.05l5.77-5.77s.03-.02,.05-.02h3.66s.07,.03,.07,.07-.03,.07-.07,.07h-3.63l-5.72,5.72v3.58s-.03,.07-.07,.07Z"/><path d="M49.67,76.23h-16.07s-.04,0-.05-.02l-5.5-5.5h-9.79s-.07-.03-.07-.07,.03-.07,.07-.07h9.82s.04,0,.05,.02l5.5,5.5h16.04s.07,.03,.07,.07-.03,.07-.07,.07Z"/><path d="M76.4,82.01h-24.16c-.08,0-.15-.07-.15-.15s.07-.15,.15-.15h24.1l7.3-7.3s.06-.04,.1-.04h1.63c.08,0,.15,.07,.15,.15s-.07,.15-.15,.15h-1.57l-7.3,7.3s-.06,.04-.1,.04Z"/><path d="M89.33,74.82h-1.75c-.16,0-.29-.13-.29-.29s.13-.29,.29-.29h1.75c.16,0,.29,.13,.29,.29s-.13,.29-.29,.29Z"/><path d="M6.59,18.5h-1.51s-.07-.03-.07-.07,.03-.07,.07-.07h1.51s.07,.03,.07,.07-.03,.07-.07,.07Z"/><path d="M6.59,23.19h-1.51s-.07-.03-.07-.07,.03-.07,.07-.07h1.51s.07,.03,.07,.07-.03,.07-.07,.07Z"/><path d="M6.59,27.88h-1.51s-.07-.03-.07-.07,.03-.07,.07-.07h1.51s.07,.03,.07,.07-.03,.07-.07,.07Z"/><path d="M6.59,32.57h-1.51s-.07-.03-.07-.07,.03-.07,.07-.07h1.51s.07,.03,.07,.07-.03,.07-.07,.07Z"/><path d="M6.59,37.26h-1.51s-.07-.03-.07-.07,.03-.07,.07-.07h1.51s.07,.03,.07,.07-.03,.07-.07,.07Z"/><path d="M6.59,41.95h-1.51s-.07-.03-.07-.07,.03-.07,.07-.07h1.51s.07,.03,.07,.07-.03,.07-.07,.07Z"/><path d="M6.59,46.64h-1.51s-.07-.03-.07-.07,.03-.07,.07-.07h1.51s.07,.03,.07,.07-.03,.07-.07,.07Z"/><path d="M6.59,51.33h-1.51s-.07-.03-.07-.07,.03-.07,.07-.07h1.51s.07,.03,.07,.07-.03,.07-.07,.07Z"/><path d="M6.59,56.02h-1.51s-.07-.03-.07-.07,.03-.07,.07-.07h1.51s.07,.03,.07,.07-.03,.07-.07,.07Z"/><path d="M6.59,60.71h-1.51s-.07-.03-.07-.07,.03-.07,.07-.07h1.51s.07,.03,.07,.07-.03,.07-.07,.07Z"/><path d="M6.59,65.39h-1.51s-.07-.03-.07-.07,.03-.07,.07-.07h1.51s.07,.03,.07,.07-.03,.07-.07,.07Z"/><path d="M6.59,70.08h-1.51s-.07-.03-.07-.07,.03-.07,.07-.07h1.51s.07,.03,.07,.07-.03,.07-.07,.07Z"/><path d="M6.59,74.77h-1.51s-.07-.03-.07-.07,.03-.07,.07-.07h1.51s.07,.03,.07,.07-.03,.07-.07,.07Z"/><path d="M24.57,5.36h-.53s-.07-.03-.07-.07v-.53s.03-.07,.07-.07h.53s.07,.03,.07,.07v.53s-.03,.07-.07,.07Zm-.45-.15h.38v-.38h-.38v.38Z"/><path d="M34.12,5.36h-.53s-.07-.03-.07-.07v-.53s.03-.07,.07-.07h.53s.07,.03,.07,.07v.53s-.03,.07-.07,.07Zm-.45-.15h.38v-.38h-.38v.38Z"/><path d="M43.67,5.36h-.53s-.07-.03-.07-.07v-.53s.03-.07,.07-.07h.53s.07,.03,.07,.07v.53s-.03,.07-.07,.07Zm-.45-.15h.38v-.38h-.38v.38Z"/><path d="M53.22,5.36h-.53s-.07-.03-.07-.07v-.53s.03-.07,.07-.07h.53s.07,.03,.07,.07v.53s-.03,.07-.07,.07Zm-.45-.15h.38v-.38h-.38v.38Z"/><path d="M62.76,5.36h-.53s-.07-.03-.07-.07v-.53s.03-.07,.07-.07h.53s.07,.03,.07,.07v.53s-.03,.07-.07,.07Zm-.45-.15h.38v-.38h-.38v.38Z"/><path d="M72.31,5.36h-.53s-.07-.03-.07-.07v-.53s.03-.07,.07-.07h.53s.07,.03,.07,.07v.53s-.03,.07-.07,.07Zm-.45-.15h.38v-.38h-.38v.38Z"/><rect x="13.86" y="31.48" width="1.88" height=".34"/><rect x="13.86" y="35.17" width="1.88" height=".34"/><rect x="13.86" y="38.85" width="1.88" height=".34"/><rect x="13.86" y="42.54" width="1.88" height=".34"/><rect x="95.28" y="40.05" width="1.88" height=".34"/><rect x="95.28" y="43.73" width="1.88" height=".34"/><rect x="95.28" y="47.42" width="1.88" height=".34"/><rect x="95.28" y="51.1" width="1.88" height=".34"/><path d="M55.76,95.68h-14.35s-.07-.03-.07-.07,.03-.07,.07-.07h14.32l10.21-10.21V40.1L25.99,.15h-4.47s-.07-.03-.07-.07,.03-.07,.07-.07h4.5s.04,0,.05,.02l40,40s.02,.03,.02,.05v45.27s0,.04-.02,.05l-10.26,10.26s-.03,.02-.05,.02Z"/><path d="M96.79,71.74h-14.66s-.04,0-.05-.02l-4.03-4.03s-.02-.03-.02-.05V33.88s.03-.07,.07-.07,.07,.03,.07,.07v33.72l3.99,3.99h14.63s.07,.03,.07,.07-.03,.07-.07,.07Z"/><path d="M186.33,48.12h-2.75c-.16,0-.29-.13-.29-.29s.13-.29,.29-.29h2.63l3.42-3.42V21.65l-11.86-11.86h-58.4l-4.79,4.79v2.23c0,.16-.13,.29-.29,.29s-.29-.13-.29-.29v-2.36c0-.08,.03-.15,.09-.21l4.96-4.96c.05-.05,.13-.09,.21-.09h58.64c.08,0,.15,.03,.21,.09l12.04,12.04c.05,.05,.09,.13,.09,.21v22.7c0,.08-.03,.15-.09,.21l-3.59,3.59c-.05,.05-.13,.09-.21,.09Z"/><polygon points="175.59 9.5 186.36 20.26 187.32 20.26 187.99 19.6 177.89 9.5 175.59 9.5"/><polygon points="181.04 9.5 189.98 18.43 189.91 9.5 181.04 9.5"/><path d="M106.89,37.18h-3.66c-.08,0-.15-.07-.15-.15s.07-.15,.15-.15h3.6l7.31-7.31v-9.32c0-.08,.07-.15,.15-.15s.15,.07,.15,.15v9.38s-.02,.08-.04,.1l-7.4,7.4s-.06,.04-.1,.04Z"/><path d="M107.8,13.92h-3.93c-.16,0-.29-.13-.29-.29s.13-.29,.29-.29h3.81l4.05-4.05c.11-.11,.3-.11,.41,0s.11,.3,0,.41l-4.13,4.13c-.05,.05-.13,.09-.21,.09Z"/><path d="M108.06,14.88h-.97c-.08,0-.15-.07-.15-.15s.07-.15,.15-.15h.91l.66-.66c.06-.06,.15-.06,.21,0s.06,.15,0,.21l-.7,.71s-.06,.04-.1,.04Z"/><path d="M107.8,20.41h-3.93c-.16,0-.29-.13-.29-.29s.13-.29,.29-.29h3.81l4.05-4.05c.11-.11,.3-.11,.41,0s.11,.3,0,.41l-4.13,4.14c-.05,.05-.13,.09-.21,.09Z"/><path d="M108.06,21.37h-.97c-.08,0-.15-.07-.15-.15s.07-.15,.15-.15h.91l.66-.66c.06-.06,.15-.06,.21,0s.06,.15,0,.21l-.7,.7s-.06,.04-.1,.04Z"/><path d="M107.8,26.9h-3.93c-.16,0-.29-.13-.29-.29s.13-.29,.29-.29h3.81l4.05-4.05c.11-.11,.3-.11,.41,0s.11,.3,0,.41l-4.13,4.13c-.05,.05-.13,.09-.21,.09Z"/><path d="M108.06,27.86h-.97c-.08,0-.15-.07-.15-.15s.07-.15,.15-.15h.91l.66-.66c.06-.06,.15-.06,.21,0s.06,.15,0,.21l-.7,.7s-.06,.04-.1,.04Z"/><polygon points="106.58 34.94 104.17 34.94 104.17 32.82 105.38 32.82 106.58 33.97 106.58 34.94"/><path d="M145.53,65.79h-3.13c-.08,0-.15-.07-.15-.15s.07-.15,.15-.15h3.07l17.78-17.78s.06-.04,.1-.04h17.16c.08,0,.15,.07,.15,.15s-.07,.15-.15,.15h-17.1l-17.78,17.78s-.06,.04-.1,.04Z"/><path d="M191.53,93.01h-28.6s-.08-.02-.1-.04l-5.19-5.19s-.04-.06-.04-.1v-1.28c0-.08,.07-.15,.15-.15s.15,.07,.15,.15v1.22l5.1,5.1h28.4V56.58l-5.44-5.44h-2.37c-.08,0-.15-.07-.15-.15s.07-.15,.15-.15h2.43s.08,.02,.1,.04l5.53,5.53s.04,.06,.04,.1v36.35c0,.08-.07,.15-.15,.15Z"/><polygon points="191.53 92.08 172.51 92.08 171.76 92.83 191.53 92.87 191.53 92.08"/><path d="M191.53,75.63h-.21s-.08-.02-.1-.04l-.48-.48s-.04-.06-.04-.1v-19.18c0-.08,.07-.15,.15-.15s.15,.07,.15,.15v19.12l.39,.39h.15c.08,0,.15,.07,.15,.15s-.07,.15-.15,.15Z"/><path d="M140.9,65.94h-1.28c-.16,0-.29-.13-.29-.29s.13-.29,.29-.29h1.28c.16,0,.29,.13,.29,.29s-.13,.29-.29,.29Z"/><path d="M114.29,15.58s-.07-.01-.1-.04c-.06-.06-.06-.15,0-.21l5.02-5.02s.06-.04,.1-.04h17.32l.32-.32v-.45c0-.08,.07-.15,.15-.15s.15,.07,.15,.15v.51s-.02,.08-.04,.1l-.41,.41s-.06,.04-.1,.04h-17.32l-4.98,4.98s-.07,.04-.1,.04Z"/><path d="M157.34,7.94h-38.54s-.08-.02-.1-.04l-1.3-1.3s-.04-.06-.04-.1v-1.4c0-.08,.07-.15,.15-.15s.15,.07,.15,.15v1.34l1.22,1.22h38.42l1.11-1.11c.06-.06,.15-.06,.21,0s.06,.15,0,.21l-1.15,1.15s-.06,.04-.1,.04Z"/><path d="M196.6,93.01h-3.57c-.08,0-.15-.07-.15-.15v-13.72s.02-.08,.04-.1l1.32-1.32c.06-.06,.15-.06,.21,0s.06,.15,0,.21l-1.27,1.27v13.51h3.42c.08,0,.15,.07,.15,.15s-.07,.15-.15,.15Z"/><path d="M200.36,93.16h-2.07c-.16,0-.29-.13-.29-.29s.13-.29,.29-.29h2.07c.16,0,.29,.13,.29,.29s-.13,.29-.29,.29Z"/><path d="M144.81,47.26h-27.9s-.07-.03-.07-.07V17.08s0-.04,.02-.05l3.45-3.45s.03-.02,.05-.02h41.74s.07,.03,.07,.07V29.9s0,.04-.02,.05l-17.28,17.28s-.03,.02-.05,.02Zm-27.83-.15h27.8l17.24-17.24V13.7h-41.63l-3.4,3.4v30.01Z"/><path d="M182.4,88.5h-13.08s-.04,0-.05-.02l-6.44-6.44h-11.91s-.07-.03-.07-.07v-14.52s0-.04,.02-.05l12.84-12.84s.03-.02,.05-.02h18.64s.07,.03,.07,.07v33.83s-.03,.07-.07,.07Zm-13.05-.15h12.98V54.67h-18.54l-12.8,12.8v14.42h11.87s.04,0,.05,.02l6.44,6.44Z"/><path d="M184,29.72h-18.64s-.07-.03-.07-.07V13.63s.03-.07,.07-.07h8.47s.04,0,.05,.02l10.17,10.17s.02,.03,.02,.05v5.84s-.03,.07-.07,.07Zm-18.57-.15h18.5v-5.74l-10.13-10.13h-8.37v15.87Z"/><path d="M131.83,47.26s-.07-.03-.07-.07v-5.17s0-.04,.02-.05l16.66-16.66s.03-.02,.05-.02h13.6s.07,.03,.07,.07-.03,.07-.07,.07h-13.57l-16.61,16.61v5.14s-.03,.07-.07,.07Z"/><path d="M174.78,29.72s-.07-.03-.07-.07v-3.58l-5.72-5.72h-3.63s-.07-.03-.07-.07,.03-.07,.07-.07h3.66s.04,0,.05,.02l5.77,5.77s.02,.03,.02,.05v3.61s-.03,.07-.07,.07Z"/><path d="M167.05,76.23h-16.07s-.07-.03-.07-.07,.03-.07,.07-.07h16.04l5.5-5.5s.03-.02,.05-.02h9.82s.07,.03,.07,.07-.03,.07-.07,.07h-9.79l-5.5,5.5s-.03,.02-.05,.02Z"/><path d="M148.42,82.01h-24.16s-.08-.02-.1-.04l-7.3-7.3h-1.57c-.08,0-.15-.07-.15-.15s.07-.15,.15-.15h1.63s.08,.02,.1,.04l7.3,7.3h24.1c.08,0,.15,.07,.15,.15s-.07,.15-.15,.15Z"/><path d="M113.08,74.82h-1.75c-.16,0-.29-.13-.29-.29s.13-.29,.29-.29h1.75c.16,0,.29,.13,.29,.29s-.13,.29-.29,.29Z"/><path d="M195.57,18.5h-1.51s-.07-.03-.07-.07,.03-.07,.07-.07h1.51s.07,.03,.07,.07-.03,.07-.07,.07Z"/><path d="M195.57,23.19h-1.51s-.07-.03-.07-.07,.03-.07,.07-.07h1.51s.07,.03,.07,.07-.03,.07-.07,.07Z"/><path d="M195.57,27.88h-1.51s-.07-.03-.07-.07,.03-.07,.07-.07h1.51s.07,.03,.07,.07-.03,.07-.07,.07Z"/><path d="M195.57,32.57h-1.51s-.07-.03-.07-.07,.03-.07,.07-.07h1.51s.07,.03,.07,.07-.03,.07-.07,.07Z"/><path d="M195.57,37.26h-1.51s-.07-.03-.07-.07,.03-.07,.07-.07h1.51s.07,.03,.07,.07-.03,.07-.07,.07Z"/><path d="M195.57,41.95h-1.51s-.07-.03-.07-.07,.03-.07,.07-.07h1.51s.07,.03,.07,.07-.03,.07-.07,.07Z"/><path d="M195.57,46.64h-1.51s-.07-.03-.07-.07,.03-.07,.07-.07h1.51s.07,.03,.07,.07-.03,.07-.07,.07Z"/><path d="M195.57,51.33h-1.51s-.07-.03-.07-.07,.03-.07,.07-.07h1.51s.07,.03,.07,.07-.03,.07-.07,.07Z"/><path d="M195.57,56.02h-1.51s-.07-.03-.07-.07,.03-.07,.07-.07h1.51s.07,.03,.07,.07-.03,.07-.07,.07Z"/><path d="M195.57,60.71h-1.51s-.07-.03-.07-.07,.03-.07,.07-.07h1.51s.07,.03,.07,.07-.03,.07-.07,.07Z"/><path d="M195.57,65.39h-1.51s-.07-.03-.07-.07,.03-.07,.07-.07h1.51s.07,.03,.07,.07-.03,.07-.07,.07Z"/><path d="M195.57,70.08h-1.51s-.07-.03-.07-.07,.03-.07,.07-.07h1.51s.07,.03,.07,.07-.03,.07-.07,.07Z"/><path d="M195.57,74.77h-1.51s-.07-.03-.07-.07,.03-.07,.07-.07h1.51s.07,.03,.07,.07-.03,.07-.07,.07Z"/><path d="M176.61,5.36h-.53s-.07-.03-.07-.07v-.53s.03-.07,.07-.07h.53s.07,.03,.07,.07v.53s-.03,.07-.07,.07Zm-.45-.15h.38v-.38h-.38v.38Z"/><path d="M167.06,5.36h-.53s-.07-.03-.07-.07v-.53s.03-.07,.07-.07h.53s.07,.03,.07,.07v.53s-.03,.07-.07,.07Zm-.45-.15h.38v-.38h-.38v.38Z"/><path d="M157.51,5.36h-.53s-.07-.03-.07-.07v-.53s.03-.07,.07-.07h.53s.07,.03,.07,.07v.53s-.03,.07-.07,.07Zm-.45-.15h.38v-.38h-.38v.38Z"/><path d="M147.96,5.36h-.53s-.07-.03-.07-.07v-.53s.03-.07,.07-.07h.53s.07,.03,.07,.07v.53s-.03,.07-.07,.07Zm-.45-.15h.38v-.38h-.38v.38Z"/><path d="M138.42,5.36h-.53s-.07-.03-.07-.07v-.53s.03-.07,.07-.07h.53s.07,.03,.07,.07v.53s-.03,.07-.07,.07Zm-.45-.15h.38v-.38h-.38v.38Z"/><path d="M128.87,5.36h-.53s-.07-.03-.07-.07v-.53s.03-.07,.07-.07h.53s.07,.03,.07,.07v.53s-.03,.07-.07,.07Zm-.45-.15h.38v-.38h-.38v.38Z"/><rect x="184.91" y="31.48" width="1.88" height=".34" transform="translate(371.71 63.31) rotate(180)"/><rect x="184.91" y="35.17" width="1.88" height=".34" transform="translate(371.71 70.67) rotate(180)"/><rect x="184.91" y="38.85" width="1.88" height=".34" transform="translate(371.71 78.04) rotate(180)"/><rect x="184.91" y="42.54" width="1.88" height=".34" transform="translate(371.71 85.41) rotate(180)"/><rect x="103.5" y="40.05" width="1.88" height=".34" transform="translate(208.87 80.43) rotate(180)"/><rect x="103.5" y="43.73" width="1.88" height=".34" transform="translate(208.87 87.8) rotate(180)"/><rect x="103.5" y="47.42" width="1.88" height=".34" transform="translate(208.87 95.17) rotate(180)"/><rect x="103.5" y="51.1" width="1.88" height=".34" transform="translate(208.87 102.54) rotate(180)"/><path d="M159.24,95.68h-14.35s-.04,0-.05-.02l-10.26-10.26s-.02-.03-.02-.05V40.07s0-.04,.02-.05L174.58,.02s.03-.02,.05-.02h4.5s.07,.03,.07,.07-.03,.07-.07,.07h-4.47l-39.96,39.96v45.21l10.21,10.21h14.32s.07,.03,.07,.07-.03,.07-.07,.07Z"/><path d="M118.52,71.74h-14.66s-.07-.03-.07-.07,.03-.07,.07-.07h14.63l3.99-3.99V33.88s.03-.07,.07-.07,.07,.03,.07,.07v33.75s0,.04-.02,.05l-4.03,4.03s-.03,.02-.05,.02Z"/><path d="M177.89,188.61h-58.64c-.08,0-.15-.03-.21-.09l-4.96-4.96c-.05-.05-.09-.13-.09-.21v-2.36c0-.16,.13-.29,.29-.29s.29,.13,.29,.29v2.23l4.79,4.79h58.4l11.86-11.86v-22.46l-3.42-3.42h-2.63c-.16,0-.29-.13-.29-.29s.13-.29,.29-.29h2.75c.08,0,.15,.03,.21,.09l3.59,3.59c.05,.05,.09,.13,.09,.21v22.7c0,.08-.03,.15-.09,.21l-12.04,12.04c-.05,.05-.13,.09-.21,.09Z"/><polygon points="175.59 188.32 186.36 177.55 187.32 177.55 187.99 178.22 177.89 188.32 175.59 188.32"/><polygon points="181.04 188.32 189.98 179.39 189.91 188.32 181.04 188.32"/><path d="M114.29,177.7c-.08,0-.15-.07-.15-.15v-9.32l-7.31-7.31h-3.6c-.08,0-.15-.07-.15-.15s.07-.15,.15-.15h3.66s.08,.02,.1,.04l7.4,7.4s.04,.06,.04,.1v9.38c0,.08-.07,.15-.15,.15Z"/><path d="M111.93,188.61c-.07,0-.15-.03-.21-.09l-4.05-4.05h-3.81c-.16,0-.29-.13-.29-.29s.13-.29,.29-.29h3.93c.08,0,.15,.03,.21,.09l4.13,4.13c.11,.11,.11,.3,0,.41-.06,.06-.13,.09-.21,.09Z"/><path d="M108.76,183.94s-.07-.01-.1-.04l-.66-.66h-.91c-.08,0-.15-.07-.15-.15s.07-.15,.15-.15h.97s.08,.02,.1,.04l.7,.7c.06,.06,.06,.15,0,.21-.03,.03-.07,.04-.1,.04Z"/><path d="M111.93,182.12c-.07,0-.15-.03-.21-.09l-4.05-4.05h-3.81c-.16,0-.29-.13-.29-.29s.13-.29,.29-.29h3.93c.08,0,.15,.03,.21,.09l4.13,4.13c.11,.11,.11,.3,0,.41-.06,.06-.13,.09-.21,.09Z"/><path d="M108.76,177.45s-.07-.01-.1-.04l-.66-.66h-.91c-.08,0-.15-.07-.15-.15s.07-.15,.15-.15h.97s.08,.02,.1,.04l.7,.7c.06,.06,.06,.15,0,.21-.03,.03-.07,.04-.1,.04Z"/><path d="M111.93,175.63c-.07,0-.15-.03-.21-.09l-4.05-4.05h-3.81c-.16,0-.29-.13-.29-.29s.13-.29,.29-.29h3.93c.08,0,.15,.03,.21,.09l4.13,4.13c.11,.11,.11,.3,0,.41-.06,.06-.13,.09-.21,.09Z"/><path d="M108.76,170.96s-.07-.01-.1-.04l-.66-.66h-.91c-.08,0-.15-.07-.15-.15s.07-.15,.15-.15h.97s.08,.02,.1,.04l.7,.71c.06,.06,.06,.15,0,.21-.03,.03-.07,.04-.1,.04Z"/><polygon points="106.58 162.87 104.17 162.87 104.17 165 105.38 165 106.58 163.85 106.58 162.87"/><path d="M180.51,150.14h-17.16s-.08-.02-.1-.04l-17.78-17.78h-3.07c-.08,0-.15-.07-.15-.15s.07-.15,.15-.15h3.13s.08,.02,.1,.04l17.78,17.78h17.1c.08,0,.15,.07,.15,.15s-.07,.15-.15,.15Z"/><path d="M186,146.97h-2.43c-.08,0-.15-.07-.15-.15s.07-.15,.15-.15h2.37l5.44-5.44v-36.14h-28.4l-5.1,5.1v1.22c0,.08-.07,.15-.15,.15s-.15-.07-.15-.15v-1.28s.02-.08,.04-.1l5.19-5.19s.06-.04,.1-.04h28.6c.08,0,.15,.07,.15,.15v36.35s-.02,.08-.04,.1l-5.53,5.53s-.06,.04-.1,.04Z"/><polygon points="191.53 105.74 172.51 105.74 171.76 104.99 191.53 104.95 191.53 105.74"/><path d="M190.84,142.13c-.08,0-.15-.07-.15-.15v-19.18s.02-.08,.04-.1l.48-.48s.06-.04,.1-.04h.21c.08,0,.15,.07,.15,.15s-.07,.15-.15,.15h-.15l-.39,.39v19.12c0,.08-.07,.15-.15,.15Z"/><path d="M140.9,132.46h-1.28c-.16,0-.29-.13-.29-.29s.13-.29,.29-.29h1.28c.16,0,.29,.13,.29,.29s-.13,.29-.29,.29Z"/><path d="M137.1,188.47c-.08,0-.15-.07-.15-.15v-.45l-.32-.32h-17.32s-.08-.02-.1-.04l-5.02-5.02c-.06-.06-.06-.15,0-.21s.15-.06,.21,0l4.98,4.98h17.32s.08,.02,.1,.04l.41,.41s.04,.06,.04,.1v.51c0,.08-.07,.15-.15,.15Z"/><path d="M117.49,192.88c-.08,0-.15-.07-.15-.15v-1.4s.02-.08,.04-.1l1.3-1.3s.06-.04,.1-.04h38.54s.08,.02,.1,.04l1.15,1.15c.06,.06,.06,.15,0,.21s-.15,.06-.21,0l-1.11-1.11h-38.42l-1.22,1.22v1.34c0,.08-.07,.15-.15,.15Z"/><path d="M194.35,120.13s-.07-.01-.1-.04l-1.32-1.32s-.04-.06-.04-.1v-13.72c0-.08,.07-.15,.15-.15h3.57c.08,0,.15,.07,.15,.15s-.07,.15-.15,.15h-3.42v13.51l1.27,1.27c.06,.06,.06,.15,0,.21-.03,.03-.07,.04-.1,.04Z"/><path d="M200.36,105.24h-2.07c-.16,0-.29-.13-.29-.29s.13-.29,.29-.29h2.07c.16,0,.29,.13,.29,.29s-.13,.29-.29,.29Z"/><path d="M162.09,184.26h-41.74s-.04,0-.05-.02l-3.45-3.45s-.02-.03-.02-.05v-30.11s.03-.07,.07-.07h27.9s.04,0,.05,.02l17.28,17.28s.02,.03,.02,.05v16.27s-.03,.07-.07,.07Zm-41.71-.15h41.63v-16.17l-17.24-17.24h-27.8v30l3.4,3.4Z"/><path d="M182.4,143.29h-18.64s-.04,0-.05-.02l-12.84-12.84s-.02-.03-.02-.05v-14.52s.03-.07,.07-.07h11.91l6.44-6.44s.03-.02,.05-.02h13.08s.07,.03,.07,.07v33.83s-.03,.07-.07,.07Zm-18.61-.15h18.54v-33.68h-12.98l-6.44,6.44s-.03,.02-.05,.02h-11.87v14.42l12.8,12.8Z"/><path d="M173.83,184.26h-8.47s-.07-.03-.07-.07v-16.01s.03-.07,.07-.07h18.64s.07,.03,.07,.07v5.84s0,.04-.02,.05l-10.17,10.17s-.03,.02-.05,.02Zm-8.4-.15h8.37l10.13-10.13v-5.74h-18.5v15.87Z"/><path d="M162.09,172.53h-13.6s-.04,0-.05-.02l-16.66-16.66s-.02-.03-.02-.05v-5.17s.03-.07,.07-.07,.07,.03,.07,.07v5.14l16.61,16.61h13.57s.07,.03,.07,.07-.03,.07-.07,.07Z"/><path d="M169.01,177.62h-3.66s-.07-.03-.07-.07,.03-.07,.07-.07h3.63l5.72-5.72v-3.58s.03-.07,.07-.07,.07,.03,.07,.07v3.61s0,.04-.02,.05l-5.77,5.77s-.03,.02-.05,.02Z"/><path d="M182.4,127.25h-9.82s-.04,0-.05-.02l-5.5-5.5h-16.04s-.07-.03-.07-.07,.03-.07,.07-.07h16.07s.04,0,.05,.02l5.5,5.5h9.79s.07,.03,.07,.07-.03,.07-.07,.07Z"/><path d="M116.92,123.44h-1.63c-.08,0-.15-.07-.15-.15s.07-.15,.15-.15h1.57l7.3-7.3s.06-.04,.1-.04h24.16c.08,0,.15,.07,.15,.15s-.07,.15-.15,.15h-24.1l-7.3,7.3s-.06,.04-.1,.04Z"/><path d="M113.08,123.58h-1.75c-.16,0-.29-.13-.29-.29s.13-.29,.29-.29h1.75c.16,0,.29,.13,.29,.29s-.13,.29-.29,.29Z"/><path d="M195.57,179.46h-1.51s-.07-.03-.07-.07,.03-.07,.07-.07h1.51s.07,.03,.07,.07-.03,.07-.07,.07Z"/><path d="M195.57,174.77h-1.51s-.07-.03-.07-.07,.03-.07,.07-.07h1.51s.07,.03,.07,.07-.03,.07-.07,.07Z"/><path d="M195.57,170.08h-1.51s-.07-.03-.07-.07,.03-.07,.07-.07h1.51s.07,.03,.07,.07-.03,.07-.07,.07Z"/><path d="M195.57,165.39h-1.51s-.07-.03-.07-.07,.03-.07,.07-.07h1.51s.07,.03,.07,.07-.03,.07-.07,.07Z"/><path d="M195.57,160.7h-1.51s-.07-.03-.07-.07,.03-.07,.07-.07h1.51s.07,.03,.07,.07-.03,.07-.07,.07Z"/><path d="M195.57,156.01h-1.51s-.07-.03-.07-.07,.03-.07,.07-.07h1.51s.07,.03,.07,.07-.03,.07-.07,.07Z"/><path d="M195.57,151.32h-1.51s-.07-.03-.07-.07,.03-.07,.07-.07h1.51s.07,.03,.07,.07-.03,.07-.07,.07Z"/><path d="M195.57,146.63h-1.51s-.07-.03-.07-.07,.03-.07,.07-.07h1.51s.07,.03,.07,.07-.03,.07-.07,.07Z"/><path d="M195.57,141.95h-1.51s-.07-.03-.07-.07,.03-.07,.07-.07h1.51s.07,.03,.07,.07-.03,.07-.07,.07Z"/><path d="M195.57,137.26h-1.51s-.07-.03-.07-.07,.03-.07,.07-.07h1.51s.07,.03,.07,.07-.03,.07-.07,.07Z"/><path d="M195.57,132.57h-1.51s-.07-.03-.07-.07,.03-.07,.07-.07h1.51s.07,.03,.07,.07-.03,.07-.07,.07Z"/><path d="M195.57,127.88h-1.51s-.07-.03-.07-.07,.03-.07,.07-.07h1.51s.07,.03,.07,.07-.03,.07-.07,.07Z"/><path d="M195.57,123.19h-1.51s-.07-.03-.07-.07,.03-.07,.07-.07h1.51s.07,.03,.07,.07-.03,.07-.07,.07Z"/><path d="M176.61,193.13h-.53s-.07-.03-.07-.07v-.53s.03-.07,.07-.07h.53s.07,.03,.07,.07v.53s-.03,.07-.07,.07Zm-.45-.15h.38v-.38h-.38v.38Z"/><path d="M167.06,193.13h-.53s-.07-.03-.07-.07v-.53s.03-.07,.07-.07h.53s.07,.03,.07,.07v.53s-.03,.07-.07,.07Zm-.45-.15h.38v-.38h-.38v.38Z"/><path d="M157.51,193.13h-.53s-.07-.03-.07-.07v-.53s.03-.07,.07-.07h.53s.07,.03,.07,.07v.53s-.03,.07-.07,.07Zm-.45-.15h.38v-.38h-.38v.38Z"/><path d="M147.96,193.13h-.53s-.07-.03-.07-.07v-.53s.03-.07,.07-.07h.53s.07,.03,.07,.07v.53s-.03,.07-.07,.07Zm-.45-.15h.38v-.38h-.38v.38Z"/><path d="M138.42,193.13h-.53s-.07-.03-.07-.07v-.53s.03-.07,.07-.07h.53s.07,.03,.07,.07v.53s-.03,.07-.07,.07Zm-.45-.15h.38v-.38h-.38v.38Z"/><path d="M128.87,193.13h-.53s-.07-.03-.07-.07v-.53s.03-.07,.07-.07h.53s.07,.03,.07,.07v.53s-.03,.07-.07,.07Zm-.45-.15h.38v-.38h-.38v.38Z"/><rect x="184.91" y="165.99" width="1.88" height=".34" transform="translate(371.71 332.32) rotate(180)"/><rect x="184.91" y="162.31" width="1.88" height=".34" transform="translate(371.71 324.96) rotate(180)"/><rect x="184.91" y="158.63" width="1.88" height=".34" transform="translate(371.71 317.59) rotate(180)"/><rect x="184.91" y="154.94" width="1.88" height=".34" transform="translate(371.71 310.22) rotate(180)"/><rect x="103.5" y="157.43" width="1.88" height=".34" transform="translate(208.87 315.2) rotate(180)"/><rect x="103.5" y="153.75" width="1.88" height=".34" transform="translate(208.87 307.83) rotate(180)"/><rect x="103.5" y="150.06" width="1.88" height=".34" transform="translate(208.87 300.46) rotate(180)"/><rect x="103.5" y="146.38" width="1.88" height=".34" transform="translate(208.87 293.09) rotate(180)"/><path d="M179.14,197.82h-4.5s-.04,0-.05-.02l-40-40s-.02-.03-.02-.05v-45.27s0-.04,.02-.05l10.26-10.26s.03-.02,.05-.02h14.35s.07,.03,.07,.07-.03,.07-.07,.07h-14.32l-10.21,10.21v45.21l39.96,39.96h4.47s.07,.03,.07,.07-.03,.07-.07,.07Z"/><path d="M122.56,164.01s-.07-.03-.07-.07v-33.72l-3.99-3.99h-14.63s-.07-.03-.07-.07,.03-.07,.07-.07h14.66s.04,0,.05,.02l4.03,4.03s.02,.03,.02,.05v33.75s-.03,.07-.07,.07Z"/><path d="M81.41,188.61H22.77c-.08,0-.15-.03-.21-.09l-12.04-12.04c-.05-.05-.09-.13-.09-.21v-22.7c0-.08,.03-.15,.09-.21l3.59-3.59c.05-.05,.13-.09,.21-.09h2.75c.16,0,.29,.13,.29,.29s-.13,.29-.29,.29h-2.63l-3.42,3.42v22.46l11.86,11.86h58.4l4.79-4.79v-2.23c0-.16,.13-.29,.29-.29s.29,.13,.29,.29v2.36c0,.08-.03,.15-.09,.21l-4.96,4.96c-.05,.05-.13,.09-.21,.09Z"/><polygon points="25.06 188.32 14.29 177.55 13.34 177.55 12.67 178.22 22.77 188.32 25.06 188.32"/><polygon points="19.61 188.32 10.68 179.39 10.74 188.32 19.61 188.32"/><path d="M86.37,177.7c-.08,0-.15-.07-.15-.15v-9.38s.02-.08,.04-.1l7.39-7.4s.06-.04,.1-.04h3.66c.08,0,.15,.07,.15,.15s-.07,.15-.15,.15h-3.6l-7.31,7.31v9.32c0,.08-.07,.15-.15,.15Z"/><path d="M88.73,188.61c-.07,0-.15-.03-.21-.09-.11-.11-.11-.3,0-.41l4.13-4.13c.05-.05,.13-.09,.21-.09h3.93c.16,0,.29,.13,.29,.29s-.13,.29-.29,.29h-3.81l-4.05,4.05c-.06,.06-.13,.09-.21,.09Z"/><path d="M91.9,183.94s-.07-.01-.1-.04c-.06-.06-.06-.15,0-.21l.7-.7s.06-.04,.1-.04h.97c.08,0,.15,.07,.15,.15s-.07,.15-.15,.15h-.91l-.66,.66s-.07,.04-.1,.04Z"/><path d="M88.73,182.12c-.07,0-.15-.03-.21-.09-.11-.11-.11-.3,0-.41l4.13-4.13c.05-.05,.13-.09,.21-.09h3.93c.16,0,.29,.13,.29,.29s-.13,.29-.29,.29h-3.81l-4.05,4.05c-.06,.06-.13,.09-.21,.09Z"/><path d="M91.9,177.45s-.07-.01-.1-.04c-.06-.06-.06-.15,0-.21l.7-.7s.06-.04,.1-.04h.97c.08,0,.15,.07,.15,.15s-.07,.15-.15,.15h-.91l-.66,.66s-.07,.04-.1,.04Z"/><path d="M88.73,175.63c-.07,0-.15-.03-.21-.09-.11-.11-.11-.3,0-.41l4.13-4.13c.05-.05,.13-.09,.21-.09h3.93c.16,0,.29,.13,.29,.29s-.13,.29-.29,.29h-3.81l-4.05,4.05c-.06,.06-.13,.09-.21,.09Z"/><path d="M91.9,170.96s-.07-.01-.1-.04c-.06-.06-.06-.15,0-.21l.7-.71s.06-.04,.1-.04h.97c.08,0,.15,.07,.15,.15s-.07,.15-.15,.15h-.91l-.66,.66s-.07,.04-.1,.04Z"/><polygon points="94.08 162.87 96.48 162.87 96.48 165 95.28 165 94.08 163.85 94.08 162.87"/><path d="M37.3,150.14H20.15c-.08,0-.15-.07-.15-.15s.07-.15,.15-.15h17.1l17.78-17.78s.06-.04,.1-.04h3.13c.08,0,.15,.07,.15,.15s-.07,.15-.15,.15h-3.07l-17.78,17.78s-.06,.04-.1,.04Z"/><path d="M17.08,146.97h-2.43s-.08-.02-.1-.04l-5.53-5.53s-.04-.06-.04-.1v-36.35c0-.08,.07-.15,.15-.15h28.6s.08,.02,.1,.04l5.19,5.19s.04,.06,.04,.1v1.28c0,.08-.07,.15-.15,.15s-.15-.07-.15-.15v-1.22l-5.1-5.1H9.27v36.14l5.44,5.44h2.37c.08,0,.15,.07,.15,.15s-.07,.15-.15,.15Z"/><polygon points="9.13 105.74 28.15 105.74 28.9 104.99 9.13 104.95 9.13 105.74"/><path d="M9.81,142.13c-.08,0-.15-.07-.15-.15v-19.12l-.39-.39h-.15c-.08,0-.15-.07-.15-.15s.07-.15,.15-.15h.21s.08,.02,.1,.04l.48,.48s.04,.06,.04,.1v19.18c0,.08-.07,.15-.15,.15Z"/><path d="M61.04,132.46h-1.28c-.16,0-.29-.13-.29-.29s.13-.29,.29-.29h1.28c.16,0,.29,.13,.29,.29s-.13,.29-.29,.29Z"/><path d="M63.56,188.47c-.08,0-.15-.07-.15-.15v-.51s.02-.08,.04-.1l.41-.41s.06-.04,.1-.04h17.32l4.98-4.98c.06-.06,.15-.06,.21,0s.06,.15,0,.21l-5.02,5.02s-.06,.04-.1,.04h-17.32l-.32,.32v.45c0,.08-.07,.15-.15,.15Z"/><path d="M83.16,192.88c-.08,0-.15-.07-.15-.15v-1.34l-1.22-1.22H43.38l-1.11,1.11c-.06,.06-.15,.06-.21,0s-.06-.15,0-.21l1.15-1.15s.06-.04,.1-.04h38.54s.08,.02,.1,.04l1.3,1.3s.04,.06,.04,.1v1.4c0,.08-.07,.15-.15,.15Z"/><path d="M6.31,120.13s-.07-.01-.1-.04c-.06-.06-.06-.15,0-.21l1.27-1.27v-13.51h-3.42c-.08,0-.15-.07-.15-.15s.07-.15,.15-.15h3.57c.08,0,.15,.07,.15,.15v13.72s-.02,.08-.04,.1l-1.32,1.32s-.07,.04-.1,.04Z"/><path d="M2.36,105.24H.29c-.16,0-.29-.13-.29-.29s.13-.29,.29-.29H2.36c.16,0,.29,.13,.29,.29s-.13,.29-.29,.29Z"/><path d="M80.31,184.26H38.57s-.07-.03-.07-.07v-16.27s0-.04,.02-.05l17.28-17.28s.03-.02,.05-.02h27.9s.07,.03,.07,.07v30.11s0,.04-.02,.05l-3.45,3.45s-.03,.02-.05,.02Zm-41.67-.15h41.63l3.4-3.4v-30h-27.8l-17.24,17.24v16.17Z"/><path d="M36.9,143.29H18.26s-.07-.03-.07-.07v-33.83s.03-.07,.07-.07h13.08s.04,0,.05,.02l6.44,6.44h11.91s.07,.03,.07,.07v14.52s0,.04-.02,.05l-12.84,12.84s-.03,.02-.05,.02Zm-18.57-.15h18.54l12.8-12.8v-14.42h-11.87s-.04,0-.05-.02l-6.44-6.44h-12.98v33.68Z"/><path d="M35.3,184.26h-8.47s-.04,0-.05-.02l-10.17-10.17s-.02-.03-.02-.05v-5.84s.03-.07,.07-.07h18.64s.07,.03,.07,.07v16.01s-.03,.07-.07,.07Zm-8.44-.15h8.37v-15.87H16.73v5.74l10.13,10.13Z"/><path d="M52.16,172.53h-13.6s-.07-.03-.07-.07,.03-.07,.07-.07h13.57l16.61-16.61v-5.14s.03-.07,.07-.07,.07,.03,.07,.07v5.17s0,.04-.02,.05l-16.66,16.66s-.03,.02-.05,.02Z"/><path d="M35.3,177.62h-3.66s-.04,0-.05-.02l-5.77-5.77s-.02-.03-.02-.05v-3.61s.03-.07,.07-.07,.07,.03,.07,.07v3.58l5.72,5.72h3.63s.07,.03,.07,.07-.03,.07-.07,.07Z"/><path d="M28.08,127.25h-9.82s-.07-.03-.07-.07,.03-.07,.07-.07h9.79l5.5-5.5s.03-.02,.05-.02h16.07s.07,.03,.07,.07-.03,.07-.07,.07h-16.04l-5.5,5.5s-.03,.02-.05,.02Z"/><path d="M85.37,123.44h-1.63s-.08-.02-.1-.04l-7.3-7.3h-24.1c-.08,0-.15-.07-.15-.15s.07-.15,.15-.15h24.16s.08,.02,.1,.04l7.3,7.3h1.57c.08,0,.15,.07,.15,.15s-.07,.15-.15,.15Z"/><path d="M89.33,123.58h-1.75c-.16,0-.29-.13-.29-.29s.13-.29,.29-.29h1.75c.16,0,.29,.13,.29,.29s-.13,.29-.29,.29Z"/><path d="M6.59,179.46h-1.51s-.07-.03-.07-.07,.03-.07,.07-.07h1.51s.07,.03,.07,.07-.03,.07-.07,.07Z"/><path d="M6.59,174.77h-1.51s-.07-.03-.07-.07,.03-.07,.07-.07h1.51s.07,.03,.07,.07-.03,.07-.07,.07Z"/><path d="M6.59,170.08h-1.51s-.07-.03-.07-.07,.03-.07,.07-.07h1.51s.07,.03,.07,.07-.03,.07-.07,.07Z"/><path d="M6.59,165.39h-1.51s-.07-.03-.07-.07,.03-.07,.07-.07h1.51s.07,.03,.07,.07-.03,.07-.07,.07Z"/><path d="M6.59,160.7h-1.51s-.07-.03-.07-.07,.03-.07,.07-.07h1.51s.07,.03,.07,.07-.03,.07-.07,.07Z"/><path d="M6.59,156.01h-1.51s-.07-.03-.07-.07,.03-.07,.07-.07h1.51s.07,.03,.07,.07-.03,.07-.07,.07Z"/><path d="M6.59,151.32h-1.51s-.07-.03-.07-.07,.03-.07,.07-.07h1.51s.07,.03,.07,.07-.03,.07-.07,.07Z"/><path d="M6.59,146.63h-1.51s-.07-.03-.07-.07,.03-.07,.07-.07h1.51s.07,.03,.07,.07-.03,.07-.07,.07Z"/><path d="M6.59,141.95h-1.51s-.07-.03-.07-.07,.03-.07,.07-.07h1.51s.07,.03,.07,.07-.03,.07-.07,.07Z"/><path d="M6.59,137.26h-1.51s-.07-.03-.07-.07,.03-.07,.07-.07h1.51s.07,.03,.07,.07-.03,.07-.07,.07Z"/><path d="M6.59,132.57h-1.51s-.07-.03-.07-.07,.03-.07,.07-.07h1.51s.07,.03,.07,.07-.03,.07-.07,.07Z"/><path d="M6.59,127.88h-1.51s-.07-.03-.07-.07,.03-.07,.07-.07h1.51s.07,.03,.07,.07-.03,.07-.07,.07Z"/><path d="M6.59,123.19h-1.51s-.07-.03-.07-.07,.03-.07,.07-.07h1.51s.07,.03,.07,.07-.03,.07-.07,.07Z"/><path d="M24.57,193.13h-.53s-.07-.03-.07-.07v-.53s.03-.07,.07-.07h.53s.07,.03,.07,.07v.53s-.03,.07-.07,.07Zm-.45-.15h.38v-.38h-.38v.38Z"/><path d="M34.12,193.13h-.53s-.07-.03-.07-.07v-.53s.03-.07,.07-.07h.53s.07,.03,.07,.07v.53s-.03,.07-.07,.07Zm-.45-.15h.38v-.38h-.38v.38Z"/><path d="M43.67,193.13h-.53s-.07-.03-.07-.07v-.53s.03-.07,.07-.07h.53s.07,.03,.07,.07v.53s-.03,.07-.07,.07Zm-.45-.15h.38v-.38h-.38v.38Z"/><path d="M53.22,193.13h-.53s-.07-.03-.07-.07v-.53s.03-.07,.07-.07h.53s.07,.03,.07,.07v.53s-.03,.07-.07,.07Zm-.45-.15h.38v-.38h-.38v.38Z"/><path d="M62.76,193.13h-.53s-.07-.03-.07-.07v-.53s.03-.07,.07-.07h.53s.07,.03,.07,.07v.53s-.03,.07-.07,.07Zm-.45-.15h.38v-.38h-.38v.38Z"/><path d="M72.31,193.13h-.53s-.07-.03-.07-.07v-.53s.03-.07,.07-.07h.53s.07,.03,.07,.07v.53s-.03,.07-.07,.07Zm-.45-.15h.38v-.38h-.38v.38Z"/><rect x="13.86" y="165.99" width="1.88" height=".34"/><rect x="13.86" y="162.31" width="1.88" height=".34"/><rect x="13.86" y="158.63" width="1.88" height=".34"/><rect x="13.86" y="154.94" width="1.88" height=".34"/><rect x="95.28" y="157.43" width="1.88" height=".34"/><rect x="95.28" y="153.75" width="1.88" height=".34"/><rect x="95.28" y="150.06" width="1.88" height=".34"/><rect x="95.28" y="146.38" width="1.88" height=".34"/><path d="M26.02,197.82h-4.5s-.07-.03-.07-.07,.03-.07,.07-.07h4.47l39.96-39.96v-45.21l-10.21-10.21h-14.32s-.07-.03-.07-.07,.03-.07,.07-.07h14.35s.04,0,.05,.02l10.26,10.26s.02,.03,.02,.05v45.27s0,.04-.02,.05l-40,40s-.03,.02-.05,.02Z"/><path d="M78.1,164.01s-.07-.03-.07-.07v-33.75s0-.04,.02-.05l4.03-4.03s.03-.02,.05-.02h14.66s.07,.03,.07,.07-.03,.07-.07,.07h-14.63l-3.99,3.99v33.72s-.03,.07-.07,.07Z"/><g class="cls-1"><polygon points="20.11 24.58 20.15 18.49 14.02 18.49 20.11 24.58"/><polygon points="20.11 44.23 20.15 38.14 14.02 38.14 20.11 44.23"/><polygon points="20.11 63.88 20.15 57.8 14.02 57.8 20.11 63.88"/><polygon points="20.11 83.54 20.15 77.45 14.02 77.45 20.11 83.54"/><polygon points="20.11 103.19 20.15 97.1 14.02 97.1 20.11 103.19"/><polygon points="20.11 122.84 20.15 116.75 14.02 116.75 20.11 122.84"/><polygon points="20.11 142.49 20.15 136.4 14.02 136.4 20.11 142.49"/><polygon points="20.11 162.14 20.15 156.05 14.02 156.05 20.11 162.14"/><polygon points="177.3 16.81 151.03 16.81 144.31 23.54 112.56 23.54 108.06 28.03 100.35 28.03 92.65 28.03 88.15 23.54 56.4 23.54 49.67 16.81 23.4 16.81 21.59 18.62 21.52 29.71 23.02 31.21 50.32 31.21 58.27 39.16 64.75 39.16 65.89 38.02 88.95 38.02 94.78 43.84 100.35 43.84 105.93 43.84 111.76 38.02 134.81 38.02 135.96 39.16 142.43 39.16 150.39 31.21 177.69 31.21 179.19 29.71 179.11 18.62 177.3 16.81"/><polygon points="186.69 18.49 180.56 18.49 180.6 24.58 186.69 18.49"/><polygon points="177.3 36.46 151.03 36.46 144.31 43.19 112.56 43.19 108.06 47.69 100.35 47.69 92.65 47.69 88.15 43.19 56.4 43.19 49.67 36.46 23.4 36.46 21.59 38.27 21.52 49.36 23.02 50.86 50.32 50.86 58.27 58.81 64.75 58.81 65.89 57.67 88.95 57.67 94.78 63.49 100.35 63.49 105.93 63.49 111.76 57.67 134.81 57.67 135.96 58.81 142.43 58.81 150.39 50.86 177.69 50.86 179.19 49.36 179.11 38.27 177.3 36.46"/><polygon points="180.6 44.23 186.69 38.14 180.56 38.14 180.6 44.23"/><polygon points="177.3 56.11 151.03 56.11 144.31 62.84 112.56 62.84 108.06 67.34 100.35 67.34 92.65 67.34 88.15 62.84 56.4 62.84 49.67 56.11 23.4 56.11 21.59 57.92 21.52 69.01 23.02 70.51 50.32 70.51 58.27 78.46 64.75 78.46 65.89 77.32 88.95 77.32 94.78 83.14 100.35 83.14 105.93 83.14 111.76 77.32 134.81 77.32 135.96 78.46 142.43 78.46 150.39 70.51 177.69 70.51 179.19 69.01 179.11 57.92 177.3 56.11"/><polygon points="180.6 63.88 186.69 57.8 180.56 57.8 180.6 63.88"/><polygon points="177.3 75.77 151.03 75.77 144.31 82.49 112.56 82.49 108.06 86.99 100.35 86.99 92.65 86.99 88.15 82.49 56.4 82.49 49.67 75.77 23.4 75.77 21.59 77.58 21.52 88.66 23.02 90.16 50.32 90.16 58.27 98.11 64.75 98.11 65.89 96.97 88.95 96.97 94.78 102.8 100.35 102.8 105.93 102.8 111.76 96.97 134.81 96.97 135.96 98.11 142.43 98.11 150.39 90.16 177.69 90.16 179.19 88.66 179.11 77.58 177.3 75.77"/><polygon points="180.6 83.54 186.69 77.45 180.56 77.45 180.6 83.54"/><polygon points="177.3 95.42 151.03 95.42 144.31 102.14 112.56 102.14 108.06 106.64 100.35 106.64 92.65 106.64 88.15 102.14 56.4 102.14 49.67 95.42 23.4 95.42 21.59 97.23 21.52 108.32 23.02 109.81 50.32 109.81 58.27 117.76 64.75 117.76 65.89 116.62 88.95 116.62 94.78 122.45 100.35 122.45 105.93 122.45 111.76 116.62 134.81 116.62 135.96 117.76 142.43 117.76 150.39 109.81 177.69 109.81 179.19 108.32 179.11 97.23 177.3 95.42"/><polygon points="180.6 103.19 186.69 97.1 180.56 97.1 180.6 103.19"/><polygon points="177.3 115.07 151.03 115.07 144.31 121.79 112.56 121.79 108.06 126.29 100.35 126.29 92.65 126.29 88.15 121.79 56.4 121.79 49.67 115.07 23.4 115.07 21.59 116.88 21.52 127.97 23.02 129.46 50.32 129.46 58.27 137.41 64.75 137.41 65.89 136.27 88.95 136.27 94.78 142.1 100.35 142.1 105.93 142.1 111.76 136.27 134.81 136.27 135.96 137.41 142.43 137.41 150.39 129.46 177.69 129.46 179.19 127.97 179.11 116.88 177.3 115.07"/><polygon points="180.6 122.84 186.69 116.75 180.56 116.75 180.6 122.84"/><polygon points="177.3 134.72 151.03 134.72 144.31 141.44 112.56 141.44 108.06 145.94 100.35 145.94 92.65 145.94 88.15 141.44 56.4 141.44 49.67 134.72 23.4 134.72 21.59 136.53 21.52 147.62 23.02 149.11 50.32 149.11 58.27 157.07 64.75 157.07 65.89 155.92 88.95 155.92 94.78 161.75 100.35 161.75 105.93 161.75 111.76 155.92 134.81 155.92 135.96 157.07 142.43 157.07 150.39 149.11 177.69 149.11 179.19 147.62 179.11 136.53 177.3 134.72"/><polygon points="180.6 142.49 186.69 136.4 180.56 136.4 180.6 142.49"/><polygon points="177.3 154.37 151.03 154.37 144.31 161.09 112.56 161.09 108.06 165.59 100.35 165.59 92.65 165.59 88.15 161.09 56.4 161.09 49.67 154.37 23.4 154.37 21.59 156.18 21.52 167.27 23.02 168.77 50.32 168.77 58.27 176.72 64.75 176.72 65.89 175.57 88.95 175.57 94.78 181.4 100.35 181.4 105.93 181.4 111.76 175.57 134.81 175.57 135.96 176.72 142.43 176.72 150.39 168.77 177.69 168.77 179.19 167.27 179.11 156.18 177.3 154.37"/><polygon points="180.6 162.14 186.69 156.05 180.56 156.05 180.6 162.14"/></g></g></g></svg>