<svg width="238" height="115" xmlns="http://www.w3.org/2000/svg" xmlns:xlink="http://www.w3.org/1999/xlink" xml:space="preserve" overflow="hidden"><defs><filter id="fx0" x="-10%" y="-10%" width="120%" height="120%" filterUnits="userSpaceOnUse" primitiveUnits="userSpaceOnUse"><feComponentTransfer color-interpolation-filters="sRGB"><feFuncR type="discrete" tableValues="1.000000 1.000000"/><feFuncG type="discrete" tableValues="1.000000 1.000000"/><feFuncB type="discrete" tableValues="1.000000 1.000000"/><feFuncA type="linear" slope="1.000000" intercept="0.000000"/></feComponentTransfer><feGaussianBlur stdDeviation="3.762488 3.762488"/></filter><filter id="fx1" x="-10%" y="-10%" width="120%" height="120%" filterUnits="userSpaceOnUse" primitiveUnits="userSpaceOnUse"><feComponentTransfer color-interpolation-filters="sRGB"><feFuncR type="discrete" tableValues="1.000000 1.000000"/><feFuncG type="discrete" tableValues="1.000000 1.000000"/><feFuncB type="discrete" tableValues="1.000000 1.000000"/><feFuncA type="linear" slope="1.000000" intercept="0.000000"/></feComponentTransfer><feGaussianBlur stdDeviation="3.762488 3.762488"/></filter><filter id="fx2" x="-10%" y="-10%" width="120%" height="120%" filterUnits="userSpaceOnUse" primitiveUnits="userSpaceOnUse"><feComponentTransfer color-interpolation-filters="sRGB"><feFuncR type="discrete" tableValues="1.000000 1.000000"/><feFuncG type="discrete" tableValues="1.000000 1.000000"/><feFuncB type="discrete" tableValues="1.000000 1.000000"/><feFuncA type="linear" slope="1.000000" intercept="0.000000"/></feComponentTransfer><feGaussianBlur stdDeviation="3.762488 3.762488"/></filter><filter id="fx3" x="-10%" y="-10%" width="120%" height="120%" filterUnits="userSpaceOnUse" primitiveUnits="userSpaceOnUse"><feComponentTransfer color-interpolation-filters="sRGB"><feFuncR type="discrete" tableValues="1.000000 1.000000"/><feFuncG type="discrete" tableValues="1.000000 1.000000"/><feFuncB type="discrete" tableValues="1.000000 1.000000"/><feFuncA type="linear" slope="1.000000" intercept="0.000000"/></feComponentTransfer><feGaussianBlur stdDeviation="3.762488 3.762488"/></filter><clipPath id="clip4"><rect x="-18" y="105" width="238" height="115"/></clipPath><clipPath id="clip5"><rect x="-11.2875" y="-11.2875" width="258.575" height="136.575"/></clipPath><clipPath id="clip6"><rect x="0" y="0" width="236" height="114"/></clipPath><clipPath id="clip7"><rect x="1.48954" y="1.28525" width="182.575" height="23.5749"/></clipPath><clipPath id="clip8"><rect x="0" y="0" width="186" height="27"/></clipPath><clipPath id="clip9"><rect x="-11.2875" y="-11.2875" width="258.575" height="135.575"/></clipPath><clipPath id="clip10"><rect x="0" y="0" width="236" height="113"/></clipPath><clipPath id="clip11"><rect x="1.45263" y="2.19106" width="182.575" height="23.5749"/></clipPath><clipPath id="clip12"><rect x="0" y="0" width="186" height="27"/></clipPath></defs><g clip-path="url(#clip4)" transform="translate(18 -105)"><g clip-path="url(#clip5)" filter="url(#fx0)" transform="translate(-15 106)"><g clip-path="url(#clip6)"><path d="M3.649-2.214 3.608 0.246C15.047 0.943 19.475-3.116 19.475-6.888 19.475-12.997 6.273-14.801 6.273-19.557 6.273-21.853 8.774-23.78 18.081-23.206L17.917-25.584C7.503-26.199 3.69-22.632 3.69-19.106 3.69-13.161 16.892-11.48 16.892-6.478 16.892-3.854 13.366-1.353 3.649-2.214ZM25.7867 7.298C32.1827 6.396 33.9867 4.51 36.4877-1.804 39.3987-8.815 41.5717-14.678 43.4167-19.844L41.0387-19.844C39.6037-15.949 36.7747-7.749 34.8887-3.239L34.6017-3.239C32.1007-8.733 29.6817-14.391 27.4677-19.926L24.9257-19.803C27.2217-14.268 30.7477-6.027 33.4127-0.328L33.4537-0.328C31.8957 3.198 30.7887 4.1 25.5407 4.92ZM63.5863-19.967C53.6233-20.787 50.3843-17.548 50.3843-14.637 50.3843-9.635 61.8643-9.184 61.8643-5.166 61.8643-3.239 59.3633-1.394 50.1793-2.132L50.0563 0.123C60.9623 0.82 64.4063-2.378 64.4063-5.453 64.4063-10.578 52.9263-11.316 52.9263-15.047 52.9263-16.769 55.0173-18.532 63.7093-17.712ZM87.569 0.369 87.774-1.804C80.763-1.927 78.795-2.911 78.795-6.601L78.795-17.876 87.364-17.876 87.364-19.844 78.795-19.844 78.795-25.707 76.335-25.461 76.335-19.844 72.481-19.844 72.153-17.876 76.335-17.876 76.335-6.191C76.335-1.435 79.205 0.41 87.569 0.369ZM110.117 0.451 110.445-1.722C100.277-2.009 97.2837-4.182 97.0377-9.307L111.142-9.635C111.88-15.949 109.133-20.336 103.803-20.336 98.6777-20.336 94.5777-15.703 94.5777-9.676 94.5777-3.239 97.9807 0.246 110.117 0.451ZM103.311-18.245C107.083-18.245 108.928-15.416 108.846-11.275L97.0377-10.947C97.2837-15.539 99.6617-18.245 103.311-18.245ZM122.824-18.163C124.423-18.163 124.956-17.261 124.956-15.006L124.956 0 127.129 0 127.129-15.949C127.129-16.236 127.129-16.523 127.088-16.769 128.113-17.671 129.261-18.163 130.245-18.163 131.885-18.163 132.418-17.261 132.418-14.924L132.418 0 134.837 0 134.837-15.908C134.837-18.901 133.484-20.295 131.311-20.295 129.589-20.295 127.99-19.311 126.842-18.204 126.309-19.598 125.243-20.295 123.726-20.295 122.045-20.295 120.446-19.27 119.298-17.999L119.134-19.926 116.92-19.762C117.084-15.129 117.166-8.487 117.166 0L119.585 0C119.585-7.339 119.503-12.792 119.38-16.359 120.528-17.548 121.799-18.163 122.824-18.163ZM155.253-19.967C145.29-20.787 142.051-17.548 142.051-14.637 142.051-9.635 153.531-9.184 153.531-5.166 153.531-3.239 151.03-1.394 141.846-2.132L141.723 0.123C152.629 0.82 156.073-2.378 156.073-5.453 156.073-10.578 144.593-11.316 144.593-15.047 144.593-16.769 146.684-18.532 155.376-17.712Z" fill="#FFFFFF" fill-rule="nonzero" fill-opacity="1" transform="matrix(1 0 0 1 37.777 66)"/></g></g><text fill="#FFFFFF" fill-opacity="1" font-family="Operator Mono Light,Operator Mono Light_MSFontService,sans-serif" font-style="normal" font-variant="normal" font-weight="300" font-stretch="normal" font-size="41" text-anchor="start" direction="ltr" writing-mode="lr-tb" unicode-bidi="normal" text-decoration="none" transform="matrix(1 0 0 1 22.777 168)">Systems</text><g clip-path="url(#clip7)" filter="url(#fx1)" transform="translate(10 161)"><g clip-path="url(#clip8)"><path d="M12.777 12.5727 52.777 12.5727 92.777 12.5727 132.777 12.5727 172.777 12.5727 172.777 13.5727 132.777 13.5727 92.777 13.5727 52.777 13.5727 12.777 13.5727Z" fill="#FFFFFF" fill-rule="evenodd" fill-opacity="1"/></g></g><path d="M22.777 170.152 62.777 170.152 102.777 170.152 142.777 170.152 182.777 170.152 182.777 171.152 142.777 171.152 102.777 171.152 62.777 171.152 22.777 171.152Z" fill="#FFFFFF" fill-rule="evenodd" fill-opacity="1"/><g clip-path="url(#clip9)" filter="url(#fx2)" transform="translate(-18 106)"><g clip-path="url(#clip10)"><path d="M3.649-2.214 3.608 0.246C15.047 0.943 19.475-3.116 19.475-6.888 19.475-12.997 6.273-14.801 6.273-19.557 6.273-21.853 8.774-23.78 18.081-23.206L17.917-25.584C7.503-26.199 3.69-22.632 3.69-19.106 3.69-13.161 16.892-11.48 16.892-6.478 16.892-3.854 13.366-1.353 3.649-2.214ZM25.7867 7.298C32.1827 6.396 33.9867 4.51 36.4877-1.804 39.3987-8.815 41.5717-14.678 43.4167-19.844L41.0387-19.844C39.6037-15.949 36.7747-7.749 34.8887-3.239L34.6017-3.239C32.1007-8.733 29.6817-14.391 27.4677-19.926L24.9257-19.803C27.2217-14.268 30.7477-6.027 33.4127-0.328L33.4537-0.328C31.8957 3.198 30.7887 4.1 25.5407 4.92ZM63.5863-19.967C53.6233-20.787 50.3843-17.548 50.3843-14.637 50.3843-9.635 61.8643-9.184 61.8643-5.166 61.8643-3.239 59.3633-1.394 50.1793-2.132L50.0563 0.123C60.9623 0.82 64.4063-2.378 64.4063-5.453 64.4063-10.578 52.9263-11.316 52.9263-15.047 52.9263-16.769 55.0173-18.532 63.7093-17.712ZM87.569 0.369 87.774-1.804C80.763-1.927 78.795-2.911 78.795-6.601L78.795-17.876 87.364-17.876 87.364-19.844 78.795-19.844 78.795-25.707 76.335-25.461 76.335-19.844 72.481-19.844 72.153-17.876 76.335-17.876 76.335-6.191C76.335-1.435 79.205 0.41 87.569 0.369ZM110.117 0.451 110.445-1.722C100.277-2.009 97.2837-4.182 97.0377-9.307L111.142-9.635C111.88-15.949 109.133-20.336 103.803-20.336 98.6777-20.336 94.5777-15.703 94.5777-9.676 94.5777-3.239 97.9807 0.246 110.117 0.451ZM103.311-18.245C107.083-18.245 108.928-15.416 108.846-11.275L97.0377-10.947C97.2837-15.539 99.6617-18.245 103.311-18.245ZM122.824-18.163C124.423-18.163 124.956-17.261 124.956-15.006L124.956 0 127.129 0 127.129-15.949C127.129-16.236 127.129-16.523 127.088-16.769 128.113-17.671 129.261-18.163 130.245-18.163 131.885-18.163 132.418-17.261 132.418-14.924L132.418 0 134.837 0 134.837-15.908C134.837-18.901 133.484-20.295 131.311-20.295 129.589-20.295 127.99-19.311 126.842-18.204 126.309-19.598 125.243-20.295 123.726-20.295 122.045-20.295 120.446-19.27 119.298-17.999L119.134-19.926 116.92-19.762C117.084-15.129 117.166-8.487 117.166 0L119.585 0C119.585-7.339 119.503-12.792 119.38-16.359 120.528-17.548 121.799-18.163 122.824-18.163ZM155.253-19.967C145.29-20.787 142.051-17.548 142.051-14.637 142.051-9.635 153.531-9.184 153.531-5.166 153.531-3.239 151.03-1.394 141.846-2.132L141.723 0.123C152.629 0.82 156.073-2.378 156.073-5.453 156.073-10.578 144.593-11.316 144.593-15.047 144.593-16.769 146.684-18.532 155.376-17.712Z" fill="#7F7F7F" fill-rule="nonzero" fill-opacity="1" transform="matrix(1 0 0 1 37.7401 65)"/></g></g><text fill="#7F7F7F" fill-opacity="1" font-family="Operator Mono Light,Operator Mono Light_MSFontService,sans-serif" font-style="normal" font-variant="normal" font-weight="300" font-stretch="normal" font-size="41" text-anchor="start" direction="ltr" writing-mode="lr-tb" unicode-bidi="normal" text-decoration="none" transform="matrix(1 0 0 1 19.7401 168)">Systems</text><g clip-path="url(#clip11)" filter="url(#fx3)" transform="translate(7 160)"><g clip-path="url(#clip12)"><path d="M12.7401 13.4785 52.7401 13.4785 92.7401 13.4785 132.74 13.4785 172.74 13.4785 172.74 14.4785 132.74 14.4785 92.7401 14.4785 52.7401 14.4785 12.7401 14.4785Z" fill="#7F7F7F" fill-rule="evenodd" fill-opacity="1"/></g></g><path d="M19.7401 170.058 59.7401 170.058 99.7401 170.058 139.74 170.058 179.74 170.058 179.74 171.058 139.74 171.058 99.7401 171.058 59.7401 171.058 19.7401 171.058Z" fill="#7F7F7F" fill-rule="evenodd" fill-opacity="1"/></g></svg>