<svg width="261" height="120" xmlns="http://www.w3.org/2000/svg" xmlns:xlink="http://www.w3.org/1999/xlink" xml:space="preserve" overflow="hidden"><defs><filter id="fx0" x="-10%" y="-10%" width="120%" height="120%" filterUnits="userSpaceOnUse" primitiveUnits="userSpaceOnUse"><feComponentTransfer color-interpolation-filters="sRGB"><feFuncR type="discrete" tableValues="1.000000 1.000000"/><feFuncG type="discrete" tableValues="1.000000 1.000000"/><feFuncB type="discrete" tableValues="1.000000 1.000000"/><feFuncA type="linear" slope="1.000000" intercept="0.000000"/></feComponentTransfer><feGaussianBlur stdDeviation="3.762488 3.762488"/></filter><filter id="fx1" x="-10%" y="-10%" width="120%" height="120%" filterUnits="userSpaceOnUse" primitiveUnits="userSpaceOnUse"><feComponentTransfer color-interpolation-filters="sRGB"><feFuncR type="discrete" tableValues="1.000000 1.000000"/><feFuncG type="discrete" tableValues="1.000000 1.000000"/><feFuncB type="discrete" tableValues="1.000000 1.000000"/><feFuncA type="linear" slope="1.000000" intercept="0.000000"/></feComponentTransfer><feGaussianBlur stdDeviation="3.762488 3.762488"/></filter><filter id="fx2" x="-10%" y="-10%" width="120%" height="120%" filterUnits="userSpaceOnUse" primitiveUnits="userSpaceOnUse"><feComponentTransfer color-interpolation-filters="sRGB"><feFuncR type="discrete" tableValues="1.000000 1.000000"/><feFuncG type="discrete" tableValues="1.000000 1.000000"/><feFuncB type="discrete" tableValues="1.000000 1.000000"/><feFuncA type="linear" slope="1.000000" intercept="0.000000"/></feComponentTransfer><feGaussianBlur stdDeviation="3.762488 3.762488"/></filter><filter id="fx3" x="-10%" y="-10%" width="120%" height="120%" filterUnits="userSpaceOnUse" primitiveUnits="userSpaceOnUse"><feComponentTransfer color-interpolation-filters="sRGB"><feFuncR type="discrete" tableValues="1.000000 1.000000"/><feFuncG type="discrete" tableValues="1.000000 1.000000"/><feFuncB type="discrete" tableValues="1.000000 1.000000"/><feFuncA type="linear" slope="1.000000" intercept="0.000000"/></feComponentTransfer><feGaussianBlur stdDeviation="3.762488 3.762488"/></filter><clipPath id="clip4"><rect x="4166" y="100" width="261" height="120"/></clipPath><clipPath id="clip5"><rect x="-11.2876" y="-11.2875" width="281.575" height="135.575"/></clipPath><clipPath id="clip6"><rect x="0" y="0" width="259" height="113"/></clipPath><clipPath id="clip7"><rect x="1.84863" y="1.93187" width="205.575" height="23.5749"/></clipPath><clipPath id="clip8"><rect x="0" y="0" width="209" height="27"/></clipPath><clipPath id="clip9"><rect x="-11.2876" y="-11.2875" width="282.575" height="136.575"/></clipPath><clipPath id="clip10"><rect x="0" y="0" width="260" height="114"/></clipPath><clipPath id="clip11"><rect x="2.01416" y="1.28525" width="205.575" height="23.5749"/></clipPath><clipPath id="clip12"><rect x="0" y="0" width="209" height="27"/></clipPath></defs><g clip-path="url(#clip4)" transform="translate(-4166 -100)"><g clip-path="url(#clip5)" filter="url(#fx0)" transform="translate(4168 104)"><g clip-path="url(#clip6)"><path d="M6.888 0 6.888-8.61C15.006-9.02 20.336-11.726 20.336-17.712 20.336-23.821 14.842-27.019 4.346-25.338L4.346 0ZM17.794-17.261C17.794-12.382 13.858-10.578 6.888-10.988L6.888-23.329C14.268-24.395 17.794-21.853 17.794-17.261ZM41.3667 0.451 41.6947-1.722C31.5267-2.009 28.5337-4.182 28.2877-9.307L42.3917-9.635C43.1297-15.949 40.3827-20.336 35.0527-20.336 29.9277-20.336 25.8277-15.703 25.8277-9.676 25.8277-3.239 29.2307 0.246 41.3667 0.451ZM34.5607-18.245C38.3327-18.245 40.1777-15.416 40.0957-11.275L28.2877-10.947C28.5337-15.539 30.9117-18.245 34.5607-18.245ZM63.5453 0 63.7913-1.927 56.6163-1.927C56.5753-6.847 56.4933-11.152 56.4523-14.883 58.6253-16.482 61.6183-17.589 66.0053-17.917L65.8823-20.541C61.5773-20.09 58.3793-18.45 56.3703-16.523 56.3293-17.466 56.2063-19.311 56.1653-19.844L48.8673-19.844 48.6623-18.081 53.9103-17.794C54.0333-13.53 54.0743-8.487 54.1973-1.927L48.5803-1.927 48.5803 0ZM72.235-9.635C72.235-3.608 75.638 0.82 87.487 0.164L87.815-1.968C77.524-1.517 74.695-4.633 74.695-9.963 74.695-14.432 77.073-17.63 87.487-17.794L87.323-20.172C75.966-19.803 72.235-15.006 72.235-9.635ZM110.117 0.451 110.445-1.722C100.277-2.009 97.2837-4.182 97.0377-9.307L111.142-9.635C111.88-15.949 109.133-20.336 103.803-20.336 98.6777-20.336 94.5777-15.703 94.5777-9.676 94.5777-3.239 97.9807 0.246 110.117 0.451ZM103.311-18.245C107.083-18.245 108.928-15.416 108.846-11.275L97.0377-10.947C97.2837-15.539 99.6617-18.245 103.311-18.245ZM127.703-23.247 128.031-28.659 125.407-28.659 125.202-23.247ZM135.534 0 135.739-1.927 127.908-1.927 127.908-19.844 117.904-19.844 117.699-18.122 125.407-17.794 125.407-1.927 117.617-1.927 117.617 0ZM148.98-2.255 148.693-2.255C146.233-8.159 144.06-14.063 142.051-19.926L139.55-19.803C141.846-13.161 144.347-6.519 147.176 0.164L150.415 0.164C153.203-6.478 155.827-13.202 158.123-19.844L155.581-19.844C153.613-14.022 151.44-8.118 148.98-2.255ZM178.867 0.451 179.195-1.722C169.027-2.009 166.034-4.182 165.788-9.307L179.892-9.635C180.63-15.949 177.883-20.336 172.553-20.336 167.428-20.336 163.328-15.703 163.328-9.676 163.328-3.239 166.731 0.246 178.867 0.451ZM172.061-18.245C175.833-18.245 177.678-15.416 177.596-11.275L165.788-10.947C166.034-15.539 168.412-18.245 172.061-18.245Z" fill="#FFFFFF" fill-rule="nonzero" fill-opacity="1" transform="matrix(1 0 0 1 38.1362 65)"/></g></g><text fill="#FFFFFF" fill-opacity="1" font-family="Operator Mono Light,Operator Mono Light_MSFontService,sans-serif" font-style="normal" font-variant="normal" font-weight="300" font-stretch="normal" font-size="41" text-anchor="start" direction="ltr" writing-mode="lr-tb" unicode-bidi="normal" text-decoration="none" transform="matrix(1 0 0 1 4206.14 166)">Perceive</text><g clip-path="url(#clip7)" filter="url(#fx1)" transform="translate(4193 158)"><g clip-path="url(#clip8)"><path d="M13.1362 13.2193 58.8862 13.2193 104.636 13.2193 150.386 13.2193 196.136 13.2193 196.136 14.2193 150.386 14.2193 104.636 14.2193 58.8862 14.2193 13.1362 14.2193Z" fill="#FFFFFF" fill-rule="evenodd" fill-opacity="1"/></g></g><path d="M4206.14 167.798 4251.89 167.798 4297.64 167.798 4343.39 167.798 4389.14 167.798 4389.14 168.798 4343.39 168.798 4297.64 168.798 4251.89 168.798 4206.14 168.798Z" fill="#FFFFFF" fill-rule="evenodd" fill-opacity="1"/><g clip-path="url(#clip9)" filter="url(#fx2)" transform="translate(4167 106)"><g clip-path="url(#clip10)"><path d="M6.888 0 6.888-8.61C15.006-9.02 20.336-11.726 20.336-17.712 20.336-23.821 14.842-27.019 4.346-25.338L4.346 0ZM17.794-17.261C17.794-12.382 13.858-10.578 6.888-10.988L6.888-23.329C14.268-24.395 17.794-21.853 17.794-17.261ZM41.3667 0.451 41.6947-1.722C31.5267-2.009 28.5337-4.182 28.2877-9.307L42.3917-9.635C43.1297-15.949 40.3827-20.336 35.0527-20.336 29.9277-20.336 25.8277-15.703 25.8277-9.676 25.8277-3.239 29.2307 0.246 41.3667 0.451ZM34.5607-18.245C38.3327-18.245 40.1777-15.416 40.0957-11.275L28.2877-10.947C28.5337-15.539 30.9117-18.245 34.5607-18.245ZM63.5453 0 63.7913-1.927 56.6163-1.927C56.5753-6.847 56.4933-11.152 56.4523-14.883 58.6253-16.482 61.6183-17.589 66.0053-17.917L65.8823-20.541C61.5773-20.09 58.3793-18.45 56.3703-16.523 56.3293-17.466 56.2063-19.311 56.1653-19.844L48.8673-19.844 48.6623-18.081 53.9103-17.794C54.0333-13.53 54.0743-8.487 54.1973-1.927L48.5803-1.927 48.5803 0ZM72.235-9.635C72.235-3.608 75.638 0.82 87.487 0.164L87.815-1.968C77.524-1.517 74.695-4.633 74.695-9.963 74.695-14.432 77.073-17.63 87.487-17.794L87.323-20.172C75.966-19.803 72.235-15.006 72.235-9.635ZM110.117 0.451 110.445-1.722C100.277-2.009 97.2837-4.182 97.0377-9.307L111.142-9.635C111.88-15.949 109.133-20.336 103.803-20.336 98.6777-20.336 94.5777-15.703 94.5777-9.676 94.5777-3.239 97.9807 0.246 110.117 0.451ZM103.311-18.245C107.083-18.245 108.928-15.416 108.846-11.275L97.0377-10.947C97.2837-15.539 99.6617-18.245 103.311-18.245ZM127.703-23.247 128.031-28.659 125.407-28.659 125.202-23.247ZM135.534 0 135.739-1.927 127.908-1.927 127.908-19.844 117.904-19.844 117.699-18.122 125.407-17.794 125.407-1.927 117.617-1.927 117.617 0ZM148.98-2.255 148.693-2.255C146.233-8.159 144.06-14.063 142.051-19.926L139.55-19.803C141.846-13.161 144.347-6.519 147.176 0.164L150.415 0.164C153.203-6.478 155.827-13.202 158.123-19.844L155.581-19.844C153.613-14.022 151.44-8.118 148.98-2.255ZM178.867 0.451 179.195-1.722C169.027-2.009 166.034-4.182 165.788-9.307L179.892-9.635C180.63-15.949 177.883-20.336 172.553-20.336 167.428-20.336 163.328-15.703 163.328-9.676 163.328-3.239 166.731 0.246 178.867 0.451ZM172.061-18.245C175.833-18.245 177.678-15.416 177.596-11.275L165.788-10.947C166.034-15.539 168.412-18.245 172.061-18.245Z" fill="#7F7F7F" fill-rule="nonzero" fill-opacity="1" transform="matrix(1 0 0 1 38.3018 66)"/></g></g><text fill="#7F7F7F" fill-opacity="1" font-family="Operator Mono Light,Operator Mono Light_MSFontService,sans-serif" font-style="normal" font-variant="normal" font-weight="300" font-stretch="normal" font-size="41" text-anchor="start" direction="ltr" writing-mode="lr-tb" unicode-bidi="normal" text-decoration="none" transform="matrix(1 0 0 1 4205.3 168)">Perceive</text><g clip-path="url(#clip11)" filter="url(#fx3)" transform="translate(4192 161)"><g clip-path="url(#clip12)"><path d="M13.3018 12.5727 59.0518 12.5727 104.802 12.5727 150.552 12.5727 196.302 12.5727 196.302 13.5727 150.552 13.5727 104.802 13.5727 59.0518 13.5727 13.3018 13.5727Z" fill="#7F7F7F" fill-rule="evenodd" fill-opacity="1"/></g></g><path d="M4205.3 170.152 4251.05 170.152 4296.8 170.152 4342.55 170.152 4388.3 170.152 4388.3 171.152 4342.55 171.152 4296.8 171.152 4251.05 171.152 4205.3 171.152Z" fill="#7F7F7F" fill-rule="evenodd" fill-opacity="1"/></g></svg>