<svg width="215" height="115" xmlns="http://www.w3.org/2000/svg" xmlns:xlink="http://www.w3.org/1999/xlink" xml:space="preserve" overflow="hidden"><defs><filter id="fx0" x="-10%" y="-10%" width="120%" height="120%" filterUnits="userSpaceOnUse" primitiveUnits="userSpaceOnUse"><feComponentTransfer color-interpolation-filters="sRGB"><feFuncR type="discrete" tableValues="1.000000 1.000000"/><feFuncG type="discrete" tableValues="1.000000 1.000000"/><feFuncB type="discrete" tableValues="1.000000 1.000000"/><feFuncA type="linear" slope="1.000000" intercept="0.000000"/></feComponentTransfer><feGaussianBlur stdDeviation="3.762488 3.762488"/></filter><filter id="fx1" x="-10%" y="-10%" width="120%" height="120%" filterUnits="userSpaceOnUse" primitiveUnits="userSpaceOnUse"><feComponentTransfer color-interpolation-filters="sRGB"><feFuncR type="discrete" tableValues="1.000000 1.000000"/><feFuncG type="discrete" tableValues="1.000000 1.000000"/><feFuncB type="discrete" tableValues="1.000000 1.000000"/><feFuncA type="linear" slope="1.000000" intercept="0.000000"/></feComponentTransfer><feGaussianBlur stdDeviation="3.762488 3.762488"/></filter><filter id="fx2" x="-10%" y="-10%" width="120%" height="120%" filterUnits="userSpaceOnUse" primitiveUnits="userSpaceOnUse"><feComponentTransfer color-interpolation-filters="sRGB"><feFuncR type="discrete" tableValues="1.000000 1.000000"/><feFuncG type="discrete" tableValues="1.000000 1.000000"/><feFuncB type="discrete" tableValues="1.000000 1.000000"/><feFuncA type="linear" slope="1.000000" intercept="0.000000"/></feComponentTransfer><feGaussianBlur stdDeviation="3.762488 3.762488"/></filter><filter id="fx3" x="-10%" y="-10%" width="120%" height="120%" filterUnits="userSpaceOnUse" primitiveUnits="userSpaceOnUse"><feComponentTransfer color-interpolation-filters="sRGB"><feFuncR type="discrete" tableValues="1.000000 1.000000"/><feFuncG type="discrete" tableValues="1.000000 1.000000"/><feFuncB type="discrete" tableValues="1.000000 1.000000"/><feFuncA type="linear" slope="1.000000" intercept="0.000000"/></feComponentTransfer><feGaussianBlur stdDeviation="3.762488 3.762488"/></filter><clipPath id="clip4"><rect x="4001" y="105" width="215" height="115"/></clipPath><clipPath id="clip5"><rect x="-11.2874" y="-11.2875" width="235.575" height="135.575"/></clipPath><clipPath id="clip6"><rect x="0" y="0" width="213" height="113"/></clipPath><clipPath id="clip7"><rect x="1.67749" y="2.06078" width="160.575" height="23.5749"/></clipPath><clipPath id="clip8"><rect x="0" y="0" width="164" height="27"/></clipPath><clipPath id="clip9"><rect x="-11.2874" y="-11.2875" width="235.575" height="135.575"/></clipPath><clipPath id="clip10"><rect x="0" y="0" width="213" height="113"/></clipPath><clipPath id="clip11"><rect x="1.69263" y="1.21783" width="160.575" height="23.5749"/></clipPath><clipPath id="clip12"><rect x="0" y="0" width="164" height="27"/></clipPath></defs><g clip-path="url(#clip4)" transform="translate(-4001 -105)"><g clip-path="url(#clip5)" filter="url(#fx0)" transform="translate(4004 106)"><g clip-path="url(#clip6)"><path d="M19.516-2.091C8.323-1.64 5.453-5.658 5.453-12.628 5.453-18.655 7.749-22.919 19.27-23.247L19.106-25.707C6.765-25.215 2.829-19.188 2.829-12.259 2.829-4.715 6.396 0.902 19.27 0.123ZM40.6287 0 40.8747-1.927 33.6997-1.927C33.6587-6.847 33.5767-11.152 33.5357-14.883 35.7087-16.482 38.7017-17.589 43.0887-17.917L42.9657-20.541C38.6607-20.09 35.4627-18.45 33.4537-16.523 33.4127-17.466 33.2897-19.311 33.2487-19.844L25.9507-19.844 25.7457-18.081 30.9937-17.794C31.1167-13.53 31.1577-8.487 31.2807-1.927L25.6637-1.927 25.6637 0ZM64.2833 0.451 64.6113-1.722C54.4433-2.009 51.4503-4.182 51.2043-9.307L65.3083-9.635C66.0463-15.949 63.2993-20.336 57.9693-20.336 52.8443-20.336 48.7443-15.703 48.7443-9.676 48.7443-3.239 52.1473 0.246 64.2833 0.451ZM57.4773-18.245C61.2493-18.245 63.0943-15.416 63.0123-11.275L51.2043-10.947C51.4503-15.539 53.8283-18.245 57.4773-18.245ZM78.754-1.558C76.007-1.558 74.162-2.87 74.162-5.207 74.162-8.323 77.073-10.086 85.068-9.266 85.068-7.052 85.109-5.453 85.15-4.059 83.469-2.665 81.091-1.558 78.754-1.558ZM85.519 0.082 87.774-0.041C87.651-2.952 87.528-5.535 87.528-9.881 87.528-17.425 84.371-19.803 73.219-20.213L72.932-17.999C82.034-17.63 84.781-16.277 85.027-11.193 75.966-11.849 71.702-8.856 71.702-4.633 71.702-1.435 74.244 0.492 77.852 0.492 81.091 0.492 83.633-1.025 85.273-2.542 85.355-1.681 85.478-0.492 85.519 0.082ZM110.486 0.369 110.691-1.804C103.68-1.927 101.712-2.911 101.712-6.601L101.712-17.876 110.281-17.876 110.281-19.844 101.712-19.844 101.712-25.707 99.2517-25.461 99.2517-19.844 95.3977-19.844 95.0697-17.876 99.2517-17.876 99.2517-6.191C99.2517-1.435 102.122 0.41 110.486 0.369ZM133.033 0.451 133.361-1.722C123.193-2.009 120.2-4.182 119.954-9.307L134.058-9.635C134.796-15.949 132.049-20.336 126.719-20.336 121.594-20.336 117.494-15.703 117.494-9.676 117.494-3.239 120.897 0.246 133.033 0.451ZM126.227-18.245C129.999-18.245 131.844-15.416 131.762-11.275L119.954-10.947C120.2-15.539 122.578-18.245 126.227-18.245Z" fill="#FFFFFF" fill-rule="nonzero" fill-opacity="1" transform="matrix(1 0 0 1 37.9648 65)"/></g></g><text fill="#FFFFFF" fill-opacity="1" font-family="Operator Mono Light,Operator Mono Light_MSFontService,sans-serif" font-style="normal" font-variant="normal" font-weight="300" font-stretch="normal" font-size="41" text-anchor="start" direction="ltr" writing-mode="lr-tb" unicode-bidi="normal" text-decoration="none" transform="matrix(1 0 0 1 4041.96 168)">Create</text><g clip-path="url(#clip7)" filter="url(#fx1)" transform="translate(4029 160)"><g clip-path="url(#clip8)"><path d="M12.9648 13.3482 47.4648 13.3482 81.9648 13.3482 116.465 13.3482 150.965 13.3482 150.965 14.3482 116.465 14.3482 81.9648 14.3482 47.4648 14.3482 12.9648 14.3482Z" fill="#FFFFFF" fill-rule="evenodd" fill-opacity="1"/></g></g><path d="M4041.96 169.927 4076.46 169.927 4110.96 169.927 4145.46 169.927 4179.96 169.927 4179.96 170.927 4145.46 170.927 4110.96 170.927 4076.46 170.927 4041.96 170.927Z" fill="#FFFFFF" fill-rule="evenodd" fill-opacity="1"/><g clip-path="url(#clip9)" filter="url(#fx2)" transform="translate(4001 108)"><g clip-path="url(#clip10)"><path d="M19.516-2.091C8.323-1.64 5.453-5.658 5.453-12.628 5.453-18.655 7.749-22.919 19.27-23.247L19.106-25.707C6.765-25.215 2.829-19.188 2.829-12.259 2.829-4.715 6.396 0.902 19.27 0.123ZM40.6287 0 40.8747-1.927 33.6997-1.927C33.6587-6.847 33.5767-11.152 33.5357-14.883 35.7087-16.482 38.7017-17.589 43.0887-17.917L42.9657-20.541C38.6607-20.09 35.4627-18.45 33.4537-16.523 33.4127-17.466 33.2897-19.311 33.2487-19.844L25.9507-19.844 25.7457-18.081 30.9937-17.794C31.1167-13.53 31.1577-8.487 31.2807-1.927L25.6637-1.927 25.6637 0ZM64.2833 0.451 64.6113-1.722C54.4433-2.009 51.4503-4.182 51.2043-9.307L65.3083-9.635C66.0463-15.949 63.2993-20.336 57.9693-20.336 52.8443-20.336 48.7443-15.703 48.7443-9.676 48.7443-3.239 52.1473 0.246 64.2833 0.451ZM57.4773-18.245C61.2493-18.245 63.0943-15.416 63.0123-11.275L51.2043-10.947C51.4503-15.539 53.8283-18.245 57.4773-18.245ZM78.754-1.558C76.007-1.558 74.162-2.87 74.162-5.207 74.162-8.323 77.073-10.086 85.068-9.266 85.068-7.052 85.109-5.453 85.15-4.059 83.469-2.665 81.091-1.558 78.754-1.558ZM85.519 0.082 87.774-0.041C87.651-2.952 87.528-5.535 87.528-9.881 87.528-17.425 84.371-19.803 73.219-20.213L72.932-17.999C82.034-17.63 84.781-16.277 85.027-11.193 75.966-11.849 71.702-8.856 71.702-4.633 71.702-1.435 74.244 0.492 77.852 0.492 81.091 0.492 83.633-1.025 85.273-2.542 85.355-1.681 85.478-0.492 85.519 0.082ZM110.486 0.369 110.691-1.804C103.68-1.927 101.712-2.911 101.712-6.601L101.712-17.876 110.281-17.876 110.281-19.844 101.712-19.844 101.712-25.707 99.2517-25.461 99.2517-19.844 95.3977-19.844 95.0697-17.876 99.2517-17.876 99.2517-6.191C99.2517-1.435 102.122 0.41 110.486 0.369ZM133.033 0.451 133.361-1.722C123.193-2.009 120.2-4.182 119.954-9.307L134.058-9.635C134.796-15.949 132.049-20.336 126.719-20.336 121.594-20.336 117.494-15.703 117.494-9.676 117.494-3.239 120.897 0.246 133.033 0.451ZM126.227-18.245C129.999-18.245 131.844-15.416 131.762-11.275L119.954-10.947C120.2-15.539 122.578-18.245 126.227-18.245Z" fill="#7F7F7F" fill-rule="nonzero" fill-opacity="1" transform="matrix(1 0 0 1 37.98 65)"/></g></g><text fill="#7F7F7F" fill-opacity="1" font-family="Operator Mono Light,Operator Mono Light_MSFontService,sans-serif" font-style="normal" font-variant="normal" font-weight="300" font-stretch="normal" font-size="41" text-anchor="start" direction="ltr" writing-mode="lr-tb" unicode-bidi="normal" text-decoration="none" transform="matrix(1 0 0 1 4038.98 170)">Create</text><g clip-path="url(#clip11)" filter="url(#fx3)" transform="translate(4026 163)"><g clip-path="url(#clip12)"><path d="M12.98 12.5053 47.48 12.5053 81.98 12.5053 116.48 12.5053 150.98 12.5053 150.98 13.5053 116.48 13.5053 81.98 13.5053 47.48 13.5053 12.98 13.5053Z" fill="#7F7F7F" fill-rule="evenodd" fill-opacity="1"/></g></g><path d="M4038.98 172.084 4073.48 172.084 4107.98 172.084 4142.48 172.084 4176.98 172.084 4176.98 173.084 4142.48 173.084 4107.98 173.084 4073.48 173.084 4038.98 173.084Z" fill="#7F7F7F" fill-rule="evenodd" fill-opacity="1"/></g></svg>