<svg width="197" height="115" xmlns="http://www.w3.org/2000/svg" xmlns:xlink="http://www.w3.org/1999/xlink" xml:space="preserve" overflow="hidden"><defs><filter id="fx0" x="-10%" y="-10%" width="120%" height="120%" filterUnits="userSpaceOnUse" primitiveUnits="userSpaceOnUse"><feComponentTransfer color-interpolation-filters="sRGB"><feFuncR type="discrete" tableValues="1.000000 1.000000"/><feFuncG type="discrete" tableValues="1.000000 1.000000"/><feFuncB type="discrete" tableValues="1.000000 1.000000"/><feFuncA type="linear" slope="1.000000" intercept="0.000000"/></feComponentTransfer><feGaussianBlur stdDeviation="3.762488 3.762488"/></filter><filter id="fx1" x="-10%" y="-10%" width="120%" height="120%" filterUnits="userSpaceOnUse" primitiveUnits="userSpaceOnUse"><feComponentTransfer color-interpolation-filters="sRGB"><feFuncR type="discrete" tableValues="1.000000 1.000000"/><feFuncG type="discrete" tableValues="1.000000 1.000000"/><feFuncB type="discrete" tableValues="1.000000 1.000000"/><feFuncA type="linear" slope="1.000000" intercept="0.000000"/></feComponentTransfer><feGaussianBlur stdDeviation="3.762488 3.762488"/></filter><filter id="fx2" x="-10%" y="-10%" width="120%" height="120%" filterUnits="userSpaceOnUse" primitiveUnits="userSpaceOnUse"><feComponentTransfer color-interpolation-filters="sRGB"><feFuncR type="discrete" tableValues="1.000000 1.000000"/><feFuncG type="discrete" tableValues="1.000000 1.000000"/><feFuncB type="discrete" tableValues="1.000000 1.000000"/><feFuncA type="linear" slope="1.000000" intercept="0.000000"/></feComponentTransfer><feGaussianBlur stdDeviation="3.762488 3.762488"/></filter><filter id="fx3" x="-10%" y="-10%" width="120%" height="120%" filterUnits="userSpaceOnUse" primitiveUnits="userSpaceOnUse"><feComponentTransfer color-interpolation-filters="sRGB"><feFuncR type="discrete" tableValues="1.000000 1.000000"/><feFuncG type="discrete" tableValues="1.000000 1.000000"/><feFuncB type="discrete" tableValues="1.000000 1.000000"/><feFuncA type="linear" slope="1.000000" intercept="0.000000"/></feComponentTransfer><feGaussianBlur stdDeviation="3.762488 3.762488"/></filter><clipPath id="clip4"><rect x="343" y="105" width="197" height="115"/></clipPath><clipPath id="clip5"><rect x="-11.2875" y="-11.2875" width="213.575" height="136.575"/></clipPath><clipPath id="clip6"><rect x="0" y="0" width="191" height="114"/></clipPath><clipPath id="clip7"><rect x="2.1795" y="1.62228" width="137.575" height="23.5749"/></clipPath><clipPath id="clip8"><rect x="0" y="0" width="141" height="27"/></clipPath><clipPath id="clip9"><rect x="-11.2875" y="-11.2875" width="213.575" height="136.575"/></clipPath><clipPath id="clip10"><rect x="0" y="0" width="191" height="114"/></clipPath><clipPath id="clip11"><rect x="2.14261" y="1.26357" width="137.575" height="23.5749"/></clipPath><clipPath id="clip12"><rect x="0" y="0" width="141" height="27"/></clipPath></defs><g clip-path="url(#clip4)" transform="translate(-343 -105)"><g clip-path="url(#clip5)" filter="url(#fx0)" transform="translate(347 105)"><g clip-path="url(#clip6)"><path d="M12.587-23.206 20.787-23.206 20.787-25.42 1.927-25.42 1.722-23.206 10.004-23.206 10.004 0 12.587 0ZM34.9707-18.163C37.7997-18.163 39.4807-16.687 39.4807-12.628L39.4807 0 41.9407 0 41.9407-13.407C41.9407-18.286 39.5627-20.295 35.8727-20.295 33.1667-20.295 30.9937-19.147 29.3127-17.876L29.3127-28.823 26.8527-28.618 26.8527 0 29.3127 0 29.3127-16.236C31.0347-17.384 32.8387-18.163 34.9707-18.163ZM58.9533-23.247 59.2813-28.659 56.6573-28.659 56.4523-23.247ZM66.7843 0 66.9893-1.927 59.1583-1.927 59.1583-19.844 49.1543-19.844 48.9493-18.122 56.6573-17.794 56.6573-1.927 48.8673-1.927 48.8673 0ZM80.804-18.163C83.633-18.163 85.314-16.687 85.314-12.628L85.314 0 87.774 0 87.774-13.407C87.774-18.286 85.396-20.295 81.706-20.295 78.836-20.295 76.622-19.024 74.9-17.671L74.695-19.926 72.399-19.762C72.604-15.129 72.686-8.487 72.686 0L75.187 0C75.187-7.38 75.105-12.628 74.982-16.154 76.745-17.343 78.631-18.163 80.804-18.163ZM109.83 0.205 112.495-0.205 104.254-10.25C107.001-13.243 109.584-16.441 112.044-19.762L109.502-19.967C107.165-16.81 104.787-13.858 102.122-11.07L98.6367-10.988 98.6367-28.823 96.1767-28.618 96.1767 0 98.6367 0 98.6367-9.102 102.04-9.184Z" fill="#FFFFFF" fill-rule="nonzero" fill-opacity="1" transform="matrix(1 0 0 1 38.467 66)"/></g></g><text fill="#FFFFFF" fill-opacity="1" font-family="Operator Mono Light,Operator Mono Light_MSFontService,sans-serif" font-style="normal" font-variant="normal" font-weight="300" font-stretch="normal" font-size="41" text-anchor="start" direction="ltr" writing-mode="lr-tb" unicode-bidi="normal" text-decoration="none" transform="matrix(1 0 0 1 385.467 167)">Think</text><g clip-path="url(#clip7)" filter="url(#fx1)" transform="translate(372 160)"><g clip-path="url(#clip8)"><path d="M13.467 12.9098 42.217 12.9098 70.967 12.9098 99.717 12.9098 128.467 12.9098 128.467 13.9098 99.717 13.9098 70.967 13.9098 42.217 13.9098 13.467 13.9098Z" fill="#FFFFFF" fill-rule="evenodd" fill-opacity="1"/></g></g><path d="M385.467 169.489 414.217 169.489 442.967 169.489 471.717 169.489 500.467 169.489 500.467 170.489 471.717 170.489 442.967 170.489 414.217 170.489 385.467 170.489Z" fill="#FFFFFF" fill-rule="evenodd" fill-opacity="1"/><g clip-path="url(#clip9)" filter="url(#fx2)" transform="translate(344 105)"><g clip-path="url(#clip10)"><path d="M12.587-23.206 20.787-23.206 20.787-25.42 1.927-25.42 1.722-23.206 10.004-23.206 10.004 0 12.587 0ZM34.9707-18.163C37.7997-18.163 39.4807-16.687 39.4807-12.628L39.4807 0 41.9407 0 41.9407-13.407C41.9407-18.286 39.5627-20.295 35.8727-20.295 33.1667-20.295 30.9937-19.147 29.3127-17.876L29.3127-28.823 26.8527-28.618 26.8527 0 29.3127 0 29.3127-16.236C31.0347-17.384 32.8387-18.163 34.9707-18.163ZM58.9533-23.247 59.2813-28.659 56.6573-28.659 56.4523-23.247ZM66.7843 0 66.9893-1.927 59.1583-1.927 59.1583-19.844 49.1543-19.844 48.9493-18.122 56.6573-17.794 56.6573-1.927 48.8673-1.927 48.8673 0ZM80.804-18.163C83.633-18.163 85.314-16.687 85.314-12.628L85.314 0 87.774 0 87.774-13.407C87.774-18.286 85.396-20.295 81.706-20.295 78.836-20.295 76.622-19.024 74.9-17.671L74.695-19.926 72.399-19.762C72.604-15.129 72.686-8.487 72.686 0L75.187 0C75.187-7.38 75.105-12.628 74.982-16.154 76.745-17.343 78.631-18.163 80.804-18.163ZM109.83 0.205 112.495-0.205 104.254-10.25C107.001-13.243 109.584-16.441 112.044-19.762L109.502-19.967C107.165-16.81 104.787-13.858 102.122-11.07L98.6367-10.988 98.6367-28.823 96.1767-28.618 96.1767 0 98.6367 0 98.6367-9.102 102.04-9.184Z" fill="#7F7F7F" fill-rule="nonzero" fill-opacity="1" transform="matrix(1 0 0 1 38.4301 66)"/></g></g><text fill="#7F7F7F" fill-opacity="1" font-family="Operator Mono Light,Operator Mono Light_MSFontService,sans-serif" font-style="normal" font-variant="normal" font-weight="300" font-stretch="normal" font-size="41" text-anchor="start" direction="ltr" writing-mode="lr-tb" unicode-bidi="normal" text-decoration="none" transform="matrix(1 0 0 1 382.43 167)">Think</text><g clip-path="url(#clip11)" filter="url(#fx3)" transform="translate(369 160)"><g clip-path="url(#clip12)"><path d="M13.4301 12.551 42.1801 12.551 70.9301 12.551 99.68 12.551 128.43 12.551 128.43 13.551 99.68 13.551 70.9301 13.551 42.1801 13.551 13.4301 13.551Z" fill="#7F7F7F" fill-rule="evenodd" fill-opacity="1"/></g></g><path d="M382.43 169.13 411.18 169.13 439.93 169.13 468.68 169.13 497.43 169.13 497.43 170.13 468.68 170.13 439.93 170.13 411.18 170.13 382.43 170.13Z" fill="#7F7F7F" fill-rule="evenodd" fill-opacity="1"/></g></svg>