<svg width="174" height="120" xmlns="http://www.w3.org/2000/svg" xmlns:xlink="http://www.w3.org/1999/xlink" xml:space="preserve" overflow="hidden"><defs><filter id="fx0" x="-10%" y="-10%" width="120%" height="120%" filterUnits="userSpaceOnUse" primitiveUnits="userSpaceOnUse"><feComponentTransfer color-interpolation-filters="sRGB"><feFuncR type="discrete" tableValues="1.000000 1.000000"/><feFuncG type="discrete" tableValues="1.000000 1.000000"/><feFuncB type="discrete" tableValues="1.000000 1.000000"/><feFuncA type="linear" slope="1.000000" intercept="0.000000"/></feComponentTransfer><feGaussianBlur stdDeviation="3.762488 3.762488"/></filter><filter id="fx1" x="-10%" y="-10%" width="120%" height="120%" filterUnits="userSpaceOnUse" primitiveUnits="userSpaceOnUse"><feComponentTransfer color-interpolation-filters="sRGB"><feFuncR type="discrete" tableValues="1.000000 1.000000"/><feFuncG type="discrete" tableValues="1.000000 1.000000"/><feFuncB type="discrete" tableValues="1.000000 1.000000"/><feFuncA type="linear" slope="1.000000" intercept="0.000000"/></feComponentTransfer><feGaussianBlur stdDeviation="3.762488 3.762488"/></filter><filter id="fx2" x="-10%" y="-10%" width="120%" height="120%" filterUnits="userSpaceOnUse" primitiveUnits="userSpaceOnUse"><feComponentTransfer color-interpolation-filters="sRGB"><feFuncR type="discrete" tableValues="1.000000 1.000000"/><feFuncG type="discrete" tableValues="1.000000 1.000000"/><feFuncB type="discrete" tableValues="1.000000 1.000000"/><feFuncA type="linear" slope="1.000000" intercept="0.000000"/></feComponentTransfer><feGaussianBlur stdDeviation="3.762488 3.762488"/></filter><filter id="fx3" x="-10%" y="-10%" width="120%" height="120%" filterUnits="userSpaceOnUse" primitiveUnits="userSpaceOnUse"><feComponentTransfer color-interpolation-filters="sRGB"><feFuncR type="discrete" tableValues="1.000000 1.000000"/><feFuncG type="discrete" tableValues="1.000000 1.000000"/><feFuncB type="discrete" tableValues="1.000000 1.000000"/><feFuncA type="linear" slope="1.000000" intercept="0.000000"/></feComponentTransfer><feGaussianBlur stdDeviation="3.762488 3.762488"/></filter><clipPath id="clip4"><rect x="201" y="100" width="174" height="120"/></clipPath><clipPath id="clip5"><rect x="-11.2875" y="-11.2875" width="190.575" height="136.575"/></clipPath><clipPath id="clip6"><rect x="0" y="0" width="168" height="114"/></clipPath><clipPath id="clip7"><rect x="1.85518" y="1.46776" width="114.575" height="23.5749"/></clipPath><clipPath id="clip8"><rect x="0" y="0" width="118" height="27"/></clipPath><clipPath id="clip9"><rect x="-11.2875" y="-11.2875" width="190.575" height="135.575"/></clipPath><clipPath id="clip10"><rect x="0" y="0" width="168" height="113"/></clipPath><clipPath id="clip11"><rect x="1.55661" y="2.16028" width="114.575" height="23.5749"/></clipPath><clipPath id="clip12"><rect x="0" y="0" width="118" height="27"/></clipPath></defs><g clip-path="url(#clip4)" transform="translate(-201 -100)"><g clip-path="url(#clip5)" filter="url(#fx0)" transform="translate(207 103)"><g clip-path="url(#clip6)"><path d="M11.07 0.615C16.154 0.615 19.188-2.501 19.188-8.077L19.188-25.42 16.605-25.42 16.605-7.749C16.605-3.485 14.883-1.64 11.357-1.64 7.995-1.64 5.904-3.731 5.904-8.323L5.904-25.42 3.362-25.42 3.362-8.036C3.362-2.419 6.273 0.615 11.07 0.615ZM40.6697-19.967C30.7067-20.787 27.4677-17.548 27.4677-14.637 27.4677-9.635 38.9477-9.184 38.9477-5.166 38.9477-3.239 36.4467-1.394 27.2627-2.132L27.1397 0.123C38.0457 0.82 41.4897-2.378 41.4897-5.453 41.4897-10.578 30.0097-11.316 30.0097-15.047 30.0097-16.769 32.1007-18.532 40.7927-17.712ZM64.2833 0.451 64.6113-1.722C54.4433-2.009 51.4503-4.182 51.2043-9.307L65.3083-9.635C66.0463-15.949 63.2993-20.336 57.9693-20.336 52.8443-20.336 48.7443-15.703 48.7443-9.676 48.7443-3.239 52.1473 0.246 64.2833 0.451ZM57.4773-18.245C61.2493-18.245 63.0943-15.416 63.0123-11.275L51.2043-10.947C51.4503-15.539 53.8283-18.245 57.4773-18.245ZM86.462 0 86.708-1.927 79.533-1.927C79.492-6.847 79.41-11.152 79.369-14.883 81.542-16.482 84.535-17.589 88.922-17.917L88.799-20.541C84.494-20.09 81.296-18.45 79.287-16.523 79.246-17.466 79.123-19.311 79.082-19.844L71.784-19.844 71.579-18.081 76.827-17.794C76.95-13.53 76.991-8.487 77.114-1.927L71.497-1.927 71.497 0Z" fill="#FFFFFF" fill-rule="nonzero" fill-opacity="1" transform="matrix(1 0 0 1 38.1426 66)"/></g></g><text fill="#FFFFFF" fill-opacity="1" font-family="Operator Mono Light,Operator Mono Light_MSFontService,sans-serif" font-style="normal" font-variant="normal" font-weight="300" font-stretch="normal" font-size="41" text-anchor="start" direction="ltr" writing-mode="lr-tb" unicode-bidi="normal" text-decoration="none" transform="matrix(1 0 0 1 245.143 165)">User</text><g clip-path="url(#clip7)" filter="url(#fx1)" transform="translate(232 158)"><g clip-path="url(#clip8)"><path d="M13.1426 12.7552 36.1426 12.7552 59.1426 12.7552 82.1426 12.7552 105.143 12.7552 105.143 13.7552 82.1426 13.7552 59.1426 13.7552 36.1426 13.7552 13.1426 13.7552Z" fill="#FFFFFF" fill-rule="evenodd" fill-opacity="1"/></g></g><path d="M245.143 167.334 268.143 167.334 291.143 167.334 314.143 167.334 337.143 167.334 337.143 168.334 314.143 168.334 291.143 168.334 268.143 168.334 245.143 168.334Z" fill="#FFFFFF" fill-rule="evenodd" fill-opacity="1"/><g clip-path="url(#clip9)" filter="url(#fx2)" transform="translate(204 103)"><g clip-path="url(#clip10)"><path d="M11.07 0.615C16.154 0.615 19.188-2.501 19.188-8.077L19.188-25.42 16.605-25.42 16.605-7.749C16.605-3.485 14.883-1.64 11.357-1.64 7.995-1.64 5.904-3.731 5.904-8.323L5.904-25.42 3.362-25.42 3.362-8.036C3.362-2.419 6.273 0.615 11.07 0.615ZM40.6697-19.967C30.7067-20.787 27.4677-17.548 27.4677-14.637 27.4677-9.635 38.9477-9.184 38.9477-5.166 38.9477-3.239 36.4467-1.394 27.2627-2.132L27.1397 0.123C38.0457 0.82 41.4897-2.378 41.4897-5.453 41.4897-10.578 30.0097-11.316 30.0097-15.047 30.0097-16.769 32.1007-18.532 40.7927-17.712ZM64.2833 0.451 64.6113-1.722C54.4433-2.009 51.4503-4.182 51.2043-9.307L65.3083-9.635C66.0463-15.949 63.2993-20.336 57.9693-20.336 52.8443-20.336 48.7443-15.703 48.7443-9.676 48.7443-3.239 52.1473 0.246 64.2833 0.451ZM57.4773-18.245C61.2493-18.245 63.0943-15.416 63.0123-11.275L51.2043-10.947C51.4503-15.539 53.8283-18.245 57.4773-18.245ZM86.462 0 86.708-1.927 79.533-1.927C79.492-6.847 79.41-11.152 79.369-14.883 81.542-16.482 84.535-17.589 88.922-17.917L88.799-20.541C84.494-20.09 81.296-18.45 79.287-16.523 79.246-17.466 79.123-19.311 79.082-19.844L71.784-19.844 71.579-18.081 76.827-17.794C76.95-13.53 76.991-8.487 77.114-1.927L71.497-1.927 71.497 0Z" fill="#7F7F7F" fill-rule="nonzero" fill-opacity="1" transform="matrix(1 0 0 1 37.8441 65)"/></g></g><text fill="#7F7F7F" fill-opacity="1" font-family="Operator Mono Light,Operator Mono Light_MSFontService,sans-serif" font-style="normal" font-variant="normal" font-weight="300" font-stretch="normal" font-size="41" text-anchor="start" direction="ltr" writing-mode="lr-tb" unicode-bidi="normal" text-decoration="none" transform="matrix(1 0 0 1 241.844 165)">User</text><g clip-path="url(#clip11)" filter="url(#fx3)" transform="translate(229 157)"><g clip-path="url(#clip12)"><path d="M12.8441 13.4478 35.8441 13.4478 58.8441 13.4478 81.8441 13.4478 104.844 13.4478 104.844 14.4478 81.8441 14.4478 58.8441 14.4478 35.8441 14.4478 12.8441 14.4478Z" fill="#7F7F7F" fill-rule="evenodd" fill-opacity="1"/></g></g><path d="M241.844 167.027 264.844 167.027 287.844 167.027 310.844 167.027 333.844 167.027 333.844 168.027 310.844 168.027 287.844 168.027 264.844 168.027 241.844 168.027Z" fill="#7F7F7F" fill-rule="evenodd" fill-opacity="1"/></g></svg>