<svg width="238" height="119" xmlns="http://www.w3.org/2000/svg" xmlns:xlink="http://www.w3.org/1999/xlink" xml:space="preserve" overflow="hidden"><defs><filter id="fx0" x="-10%" y="-10%" width="120%" height="120%" filterUnits="userSpaceOnUse" primitiveUnits="userSpaceOnUse"><feComponentTransfer color-interpolation-filters="sRGB"><feFuncR type="discrete" tableValues="1.000000 1.000000"/><feFuncG type="discrete" tableValues="1.000000 1.000000"/><feFuncB type="discrete" tableValues="1.000000 1.000000"/><feFuncA type="linear" slope="1.000000" intercept="0.000000"/></feComponentTransfer><feGaussianBlur stdDeviation="3.762488 3.762488"/></filter><filter id="fx1" x="-10%" y="-10%" width="120%" height="120%" filterUnits="userSpaceOnUse" primitiveUnits="userSpaceOnUse"><feComponentTransfer color-interpolation-filters="sRGB"><feFuncR type="discrete" tableValues="1.000000 1.000000"/><feFuncG type="discrete" tableValues="1.000000 1.000000"/><feFuncB type="discrete" tableValues="1.000000 1.000000"/><feFuncA type="linear" slope="1.000000" intercept="0.000000"/></feComponentTransfer><feGaussianBlur stdDeviation="3.762488 3.762488"/></filter><filter id="fx2" x="-10%" y="-10%" width="120%" height="120%" filterUnits="userSpaceOnUse" primitiveUnits="userSpaceOnUse"><feComponentTransfer color-interpolation-filters="sRGB"><feFuncR type="discrete" tableValues="1.000000 1.000000"/><feFuncG type="discrete" tableValues="1.000000 1.000000"/><feFuncB type="discrete" tableValues="1.000000 1.000000"/><feFuncA type="linear" slope="1.000000" intercept="0.000000"/></feComponentTransfer><feGaussianBlur stdDeviation="3.762488 3.762488"/></filter><filter id="fx3" x="-10%" y="-10%" width="120%" height="120%" filterUnits="userSpaceOnUse" primitiveUnits="userSpaceOnUse"><feComponentTransfer color-interpolation-filters="sRGB"><feFuncR type="discrete" tableValues="1.000000 1.000000"/><feFuncG type="discrete" tableValues="1.000000 1.000000"/><feFuncB type="discrete" tableValues="1.000000 1.000000"/><feFuncA type="linear" slope="1.000000" intercept="0.000000"/></feComponentTransfer><feGaussianBlur stdDeviation="3.762488 3.762488"/></filter><clipPath id="clip4"><rect x="3822" y="105" width="238" height="119"/></clipPath><clipPath id="clip5"><rect x="-11.2874" y="-11.2875" width="259.575" height="135.575"/></clipPath><clipPath id="clip6"><rect x="0" y="0" width="237" height="113"/></clipPath><clipPath id="clip7"><rect x="1.823" y="1.81573" width="182.575" height="23.5749"/></clipPath><clipPath id="clip8"><rect x="0" y="0" width="186" height="27"/></clipPath><clipPath id="clip9"><rect x="-11.2874" y="-11.2875" width="259.575" height="135.575"/></clipPath><clipPath id="clip10"><rect x="0" y="0" width="237" height="113"/></clipPath><clipPath id="clip11"><rect x="1.9541" y="1.92807" width="182.575" height="23.5749"/></clipPath><clipPath id="clip12"><rect x="0" y="0" width="186" height="27"/></clipPath></defs><g clip-path="url(#clip4)" transform="translate(-3822 -105)"><g clip-path="url(#clip5)" filter="url(#fx0)" transform="translate(3823 106)"><g clip-path="url(#clip6)"><path d="M12.505-23.37 19.065-23.37 19.065-25.42 3.403-25.42 3.403-23.37 9.963-23.37 9.963-2.05 3.403-2.05 3.403 0 19.065 0 19.27-2.05 12.505-2.05ZM31.1577-18.163C32.7567-18.163 33.2897-17.261 33.2897-15.006L33.2897 0 35.4627 0 35.4627-15.949C35.4627-16.236 35.4627-16.523 35.4217-16.769 36.4467-17.671 37.5947-18.163 38.5787-18.163 40.2187-18.163 40.7517-17.261 40.7517-14.924L40.7517 0 43.1707 0 43.1707-15.908C43.1707-18.901 41.8177-20.295 39.6447-20.295 37.9227-20.295 36.3237-19.311 35.1757-18.204 34.6427-19.598 33.5767-20.295 32.0597-20.295 30.3787-20.295 28.7797-19.27 27.6317-17.999L27.4677-19.926 25.2537-19.762C25.4177-15.129 25.4997-8.487 25.4997 0L27.9187 0C27.9187-7.339 27.8367-12.792 27.7137-16.359 28.8617-17.548 30.1327-18.163 31.1577-18.163ZM55.8373-1.558C53.0903-1.558 51.2453-2.87 51.2453-5.207 51.2453-8.323 54.1563-10.086 62.1513-9.266 62.1513-7.052 62.1923-5.453 62.2333-4.059 60.5523-2.665 58.1743-1.558 55.8373-1.558ZM62.6023 0.082 64.8573-0.041C64.7343-2.952 64.6113-5.535 64.6113-9.881 64.6113-17.425 61.4543-19.803 50.3023-20.213L50.0153-17.999C59.1173-17.63 61.8643-16.277 62.1103-11.193 53.0493-11.849 48.7853-8.856 48.7853-4.633 48.7853-1.435 51.3273 0.492 54.9353 0.492 58.1743 0.492 60.7163-1.025 62.3563-2.542 62.4383-1.681 62.5613-0.492 62.6023 0.082ZM73.998 7.011C84.699 6.478 87.487 2.501 87.487-4.1 87.487-5.74 87.446-18.245 87.405-19.352 85.478-19.967 83.674-20.295 81.788-20.295 76.253-20.295 71.292-16.359 71.292-9.881 71.292-4.551 74.572-1.394 78.918-1.394 81.419-1.394 83.51-2.337 84.986-3.485 84.986 2.419 83.633 3.977 73.752 4.715ZM79.82-3.444C76.335-3.444 73.793-5.822 73.793-10.496 73.793-15.416 76.95-18.163 80.927-18.163 82.28-18.163 83.633-17.917 84.986-17.466L84.986-5.207C83.551-4.223 81.665-3.444 79.82-3.444ZM104.787-23.247 105.115-28.659 102.491-28.659 102.286-23.247ZM112.618 0 112.823-1.927 104.992-1.927 104.992-19.844 94.9877-19.844 94.7827-18.122 102.491-17.794 102.491-1.927 94.7007-1.927 94.7007 0ZM126.637-18.163C129.466-18.163 131.147-16.687 131.147-12.628L131.147 0 133.607 0 133.607-13.407C133.607-18.286 131.229-20.295 127.539-20.295 124.669-20.295 122.455-19.024 120.733-17.671L120.528-19.926 118.232-19.762C118.437-15.129 118.519-8.487 118.519 0L121.02 0C121.02-7.38 120.938-12.628 120.815-16.154 122.578-17.343 124.464-18.163 126.637-18.163ZM155.95 0.451 156.278-1.722C146.11-2.009 143.117-4.182 142.871-9.307L156.975-9.635C157.713-15.949 154.966-20.336 149.636-20.336 144.511-20.336 140.411-15.703 140.411-9.676 140.411-3.239 143.814 0.246 155.95 0.451ZM149.144-18.245C152.916-18.245 154.761-15.416 154.679-11.275L142.871-10.947C143.117-15.539 145.495-18.245 149.144-18.245Z" fill="#FFFFFF" fill-rule="nonzero" fill-opacity="1" transform="matrix(1 0 0 1 38.1106 65)"/></g></g><text fill="#FFFFFF" fill-opacity="1" font-family="Operator Mono Light,Operator Mono Light_MSFontService,sans-serif" font-style="normal" font-variant="normal" font-weight="300" font-stretch="normal" font-size="41" text-anchor="start" direction="ltr" writing-mode="lr-tb" unicode-bidi="normal" text-decoration="none" transform="matrix(1 0 0 1 3861.11 168)">Imagine</text><g clip-path="url(#clip7)" filter="url(#fx1)" transform="translate(3848 160)"><g clip-path="url(#clip8)"><path d="M13.1106 13.1032 53.1106 13.1032 93.1106 13.1032 133.111 13.1032 173.111 13.1032 173.111 14.1032 133.111 14.1032 93.1106 14.1032 53.1106 14.1032 13.1106 14.1032Z" fill="#FFFFFF" fill-rule="evenodd" fill-opacity="1"/></g></g><path d="M3861.11 169.682 3901.11 169.682 3941.11 169.682 3981.11 169.682 4021.11 169.682 4021.11 170.682 3981.11 170.682 3941.11 170.682 3901.11 170.682 3861.11 170.682Z" fill="#FFFFFF" fill-rule="evenodd" fill-opacity="1"/><g clip-path="url(#clip9)" filter="url(#fx2)" transform="translate(3823 109)"><g clip-path="url(#clip10)"><path d="M12.505-23.37 19.065-23.37 19.065-25.42 3.403-25.42 3.403-23.37 9.963-23.37 9.963-2.05 3.403-2.05 3.403 0 19.065 0 19.27-2.05 12.505-2.05ZM31.1577-18.163C32.7567-18.163 33.2897-17.261 33.2897-15.006L33.2897 0 35.4627 0 35.4627-15.949C35.4627-16.236 35.4627-16.523 35.4217-16.769 36.4467-17.671 37.5947-18.163 38.5787-18.163 40.2187-18.163 40.7517-17.261 40.7517-14.924L40.7517 0 43.1707 0 43.1707-15.908C43.1707-18.901 41.8177-20.295 39.6447-20.295 37.9227-20.295 36.3237-19.311 35.1757-18.204 34.6427-19.598 33.5767-20.295 32.0597-20.295 30.3787-20.295 28.7797-19.27 27.6317-17.999L27.4677-19.926 25.2537-19.762C25.4177-15.129 25.4997-8.487 25.4997 0L27.9187 0C27.9187-7.339 27.8367-12.792 27.7137-16.359 28.8617-17.548 30.1327-18.163 31.1577-18.163ZM55.8373-1.558C53.0903-1.558 51.2453-2.87 51.2453-5.207 51.2453-8.323 54.1563-10.086 62.1513-9.266 62.1513-7.052 62.1923-5.453 62.2333-4.059 60.5523-2.665 58.1743-1.558 55.8373-1.558ZM62.6023 0.082 64.8573-0.041C64.7343-2.952 64.6113-5.535 64.6113-9.881 64.6113-17.425 61.4543-19.803 50.3023-20.213L50.0153-17.999C59.1173-17.63 61.8643-16.277 62.1103-11.193 53.0493-11.849 48.7853-8.856 48.7853-4.633 48.7853-1.435 51.3273 0.492 54.9353 0.492 58.1743 0.492 60.7163-1.025 62.3563-2.542 62.4383-1.681 62.5613-0.492 62.6023 0.082ZM73.998 7.011C84.699 6.478 87.487 2.501 87.487-4.1 87.487-5.74 87.446-18.245 87.405-19.352 85.478-19.967 83.674-20.295 81.788-20.295 76.253-20.295 71.292-16.359 71.292-9.881 71.292-4.551 74.572-1.394 78.918-1.394 81.419-1.394 83.51-2.337 84.986-3.485 84.986 2.419 83.633 3.977 73.752 4.715ZM79.82-3.444C76.335-3.444 73.793-5.822 73.793-10.496 73.793-15.416 76.95-18.163 80.927-18.163 82.28-18.163 83.633-17.917 84.986-17.466L84.986-5.207C83.551-4.223 81.665-3.444 79.82-3.444ZM104.787-23.247 105.115-28.659 102.491-28.659 102.286-23.247ZM112.618 0 112.823-1.927 104.992-1.927 104.992-19.844 94.9877-19.844 94.7827-18.122 102.491-17.794 102.491-1.927 94.7007-1.927 94.7007 0ZM126.637-18.163C129.466-18.163 131.147-16.687 131.147-12.628L131.147 0 133.607 0 133.607-13.407C133.607-18.286 131.229-20.295 127.539-20.295 124.669-20.295 122.455-19.024 120.733-17.671L120.528-19.926 118.232-19.762C118.437-15.129 118.519-8.487 118.519 0L121.02 0C121.02-7.38 120.938-12.628 120.815-16.154 122.578-17.343 124.464-18.163 126.637-18.163ZM155.95 0.451 156.278-1.722C146.11-2.009 143.117-4.182 142.871-9.307L156.975-9.635C157.713-15.949 154.966-20.336 149.636-20.336 144.511-20.336 140.411-15.703 140.411-9.676 140.411-3.239 143.814 0.246 155.95 0.451ZM149.144-18.245C152.916-18.245 154.761-15.416 154.679-11.275L142.871-10.947C143.117-15.539 145.495-18.245 149.144-18.245Z" fill="#7F7F7F" fill-rule="nonzero" fill-opacity="1" transform="matrix(1 0 0 1 38.2417 65)"/></g></g><text fill="#7F7F7F" fill-opacity="1" font-family="Operator Mono Light,Operator Mono Light_MSFontService,sans-serif" font-style="normal" font-variant="normal" font-weight="300" font-stretch="normal" font-size="41" text-anchor="start" direction="ltr" writing-mode="lr-tb" unicode-bidi="normal" text-decoration="none" transform="matrix(1 0 0 1 3861.24 171)">Imagine</text><g clip-path="url(#clip11)" filter="url(#fx3)" transform="translate(3848 163)"><g clip-path="url(#clip12)"><path d="M13.2417 13.2155 53.2417 13.2155 93.2417 13.2155 133.242 13.2155 173.242 13.2155 173.242 14.2155 133.242 14.2155 93.2417 14.2155 53.2417 14.2155 13.2417 14.2155Z" fill="#7F7F7F" fill-rule="evenodd" fill-opacity="1"/></g></g><path d="M3861.24 172.795 3901.24 172.795 3941.24 172.795 3981.24 172.795 4021.24 172.795 4021.24 173.795 3981.24 173.795 3941.24 173.795 3901.24 173.795 3861.24 173.795Z" fill="#7F7F7F" fill-rule="evenodd" fill-opacity="1"/></g></svg>