<svg xmlns="http://www.w3.org/2000/svg" viewBox="0 0 68 68"><path d="M45.6 2.1C38 6.5 46.8 1.4 42.3 4c-1.7 1-2.6 3-2.6 5.7 0 1.8.4 3.8 1.2 5.7-1.3-.1-1.2.6-2 .5-.8-.1-1.4.1-1.8.5-.2.2-.5.3-.7.3-.9 0-1.5.2-2 .7-.4.4-.7.3-.8.3-.6 0-1.1.3-1.5.8-1-1-2-1.9-3.1-2.5-2-1.1-4.4-1.7-6.4-.6-6.8 4 .5-.3-3.2 1.9-1.7 1-2.6 3-2.7 5.7 0 5.4 3.8 12 8.5 14.8 2 1.2 4.4 1.7 6.4.6l3.2-1.9c.5-.3 1-.7 1.4-1.3-.1 3-1 5.7-2.8 8-.4.6-1.3.7-1.9.2-3-2.5-6.3-3.6-10.3-3.5-6.4 0-9.5 6.7-9.5 13.2 0 6.3 3 13.2 9.5 13.2 3.9.5 8-.4 11.7-1.9.6-.3 1.3-.4 2-.3 6.9.8 11.4-.3 13.7-3.1.5-.7.9-1.5 1.1-2.3 1.3-6.5 1.4-15.8-.9-22-1.2-3.3-1.5-6.7-1-10.3.2-.7.2-1.4.3-2.1.1.1.2.2.4.2 2 1.2 4.4 1.7 6.5.5l3.2-1.8c2-1.1 2.7-3.5 2.7-5.8 0-5.4-3.8-12-8.5-14.8-2.4-1-4.9-1.6-6.8-.5zm-1.2 11.2c0-2 1.5-2.2 3.1-.9.8.7 1.5 1.8 1.9 2.8.8 2.3-.2 4-2.1 2.9-.2-.1-.3-.2-.5-.3L48 17c.4-.2.6-.7.6-1.2 0-1-.7-2.1-1.5-2.6-.4-.2-.9-.3-1.3-.1l-1.3.8c-.1-.2-.1-.4-.1-.6zm3.9-2.3c1.5.9 2.8 3.1 2.8 4.9l-.8.4c0-.3-.2-1-.3-1.4-.4-1.2-1.1-2.3-2-3.2-.2-.2-.5-.4-.8-.6.1-.1.8-.5.7-.4.2.2.3.3.4.3zm-2.2 2.8c.2-.1.4 0 .6.1.6.4 1.1 1.3 1.1 2 0 .2-.1.4-.2.5-.1.1-1.7 1-2.3 1.3-.9-.8-1.9-1.3-3-1.7.2-.1 3.9-2.3 3.8-2.2zm-9.8 17.1v.6c-.1.1-2.4 1.4-2.2 1.3 0-5.7-4.2-12.7-9.3-15.2.1-.1 2.3-1.3 2.2-1.3.4.2.9.4 1.3.6 4.3 2.6 8 8.7 8 14zM25.5 37c-4.4-2.6-8-8.8-8-13.9 0-2.3.8-4.1 2.2-4.9 1.6-1 3.8-.4 5.4.6 5 2.9 8.8 10.3 7.9 15.5-.7 3.5-3.6 5-7.5 2.7zm22.1.1c2.2 6 2.2 14.9.8 21.5-.1.7-.4 1.3-.9 1.9-.6.7-1.4 1.3-2.3 1.8-.6-2.1-2.7-9.9 1.6-14.2.1-.1.1-.4 0-.5-.1-.1-.4-.1-.5 0-4.7 4.7-2.4 12.9-1.7 15-2.4.9-5.6 1.1-9.8.7-.5-.1-1 0-1.4 0C31 63 21 61.5 20.3 57.4c0-.2-.2-.3-.4-.3s-.3.2-.3.4c.7 4 8.4 5.7 12.2 6.3-3.9 1.5-7.5 2-10.6 1.6-5.9 0-8.5-6.3-8.5-12.2 0-5.9 2.7-12.2 8.5-12.2.4.1 5.1-.5 9.6 3.3.3.3.7.5 1.2.5-1.1 1.8-3.3 6.3.6 9.8.2.1.4.1.5 0 .1-.2.1-.4 0-.5-3.9-3.6-.9-8.2-.1-9.3.5-.1.9-.4 1.3-.8 2.2-2.9 3.2-6.5 2.9-10.5.3-.8.3-1.7.3-2.6 0-3.8-1.9-8.3-4.7-11.5v-.1c.2-.3.5-.5.8-.5.1 0 .5.1 1.1-.3 1.4 1 2.4 1.7 3.4 2.7-.4-1.3-1.9-2.4-3.2-2.9.4-.3.6-.6 1.5-.6.3 0 .7-.1 1-.2 1.2.8 2.2 1.5 3 2.3-.2-1.1-1.6-2-2.8-2.4.3-.2.4-.5 1.3-.5.4 0 .8 0 1.1-.2 1.4 1 2.3 1.5 2.9 2.4-.1-1.1-1.5-2.1-2.7-2.5.2-.2.3-.3.9-.1h.1c3.6 1.3 6.7 3.3 5.4 9.7-.6 3.7-.3 7.3 1 10.9zm1.1-13.4c-.3-.2-.6-.3-.8-.5-.1-2.2-.8-3.8-1.9-4.9h.1c.2.2.5.4.8.6 1.6.9 2.4.2 2.5.2l1.5-.9c.8-.4 1-1.3 1-2.2 0-2-1.4-4.4-3.1-5.4-.8-.4-1.7-.7-2.5-.2-.2.1.6-.3-1.5.9-.7.4-1 1.2-1.1 2.2 0 .3 0 .7.1 1l-1.9 1.1c-.8-1.9-1.2-3.8-1.2-5.6 0-4.8 3.2-6.7 7.5-4.4 4.2 2.3 7.8 8.1 8.1 13.1.3 5.4-3.2 7.5-7.6 5zm10.8-6.2v.6l-2.2 1.3c0-5.6-3.9-12.1-8.5-14.8-.2-.1-.5-.3-.7-.4l2.2-1.3c.4.2.9.4 1.3.6 4.3 2.6 7.9 8.9 7.9 14z" fill="#41e1d4" class="color000000 svgShape"></path><path d="M25.5 23.5c-.8-.5-1.8-.7-2.7-.2-.1.1-1.7 1-1.6.9-.8.5-1.1 1.4-1.1 2.4 0 2.1 1.5 4.8 3.4 5.8.8.5 1.8.7 2.6.2l1.6-.9c.8-.5 1.1-1.4 1.1-2.4.1-2.1-1.4-4.7-3.3-5.8zm-1.6 8.3c-1.7-1-3-3.3-3-5.2 0-1.7 1.1-2.4 2.6-1.5 1.7 1 3 3.3 3 5.2 0 1.6-1 2.4-2.6 1.5zm4.3-2.3c-.1.1-1 .6-.9.5-.1-1.9-1.5-4.5-3.4-5.5l.8-.5c1.9.7 3.6 3.4 3.5 5.5zm25-1.1c-.2.1-.3.4-.2.7.1.2.4.3.7.2 4.1-2.4 7.4-.5 7.4 4.2 0 5-3.5 11-7.8 13.5-.2.1-.3.4-.2.7.1.2.4.3.7.2 4.6-2.7 8.3-9.1 8.3-14.4-.1-5.6-4.1-7.9-8.9-5.1z" fill="#41e1d4" class="color000000 svgShape"></path><path d="M52.3 32.3c.1.2.4.3.7.2 2.4-1.4 4.3-.4 4.3 2.5 0 3-2.1 6.8-4.8 8.3-.2.1-.3.4-.2.7.1.2.4.3.7.2 2.9-1.7 5.3-5.8 5.3-9.2 0-3.6-2.7-5.1-5.8-3.3-.2.1-.3.4-.2.6zM9.8 16.4c-.3 0-.5.2-.5.5s.2.5.5.5.5-.2.5-.5-.2-.5-.5-.5zm.5-4.1c0-.3-.2-.5-.5-.5s-.5.2-.5.5.2.5.5.5.5-.2.5-.5zm-.5 27.1c-.3 0-.5.2-.5.5s.2.5.5.5.5-.2.5-.5-.2-.5-.5-.5zm0-9.2c-.3 0-.5.2-.5.5s.2.5.5.5.5-.2.5-.5-.2-.5-.5-.5zm0 4.6c-.3 0-.5.2-.5.5s.2.5.5.5.5-.2.5-.5-.2-.5-.5-.5zm0-19.7c.3 0 .5-.2.5-.5s-.2-.5-.5-.5-.5.2-.5.5.2.5.5.5zm0 5.9c-.3 0-.5.2-.5.5s.2.5.5.5.5-.2.5-.5-.2-.5-.5-.5z" fill="#41e1d4" class="color000000 svgShape"></path><circle cx="9.8" cy="28.4" r=".5" fill="#41e1d4" class="color000000 svgShape"></circle><path d="M9.8 37.1c-.3 0-.5.2-.5.5s.2.5.5.5.5-.2.5-.5-.2-.5-.5-.5zm0-10.5c.3 0 .5-.2.5-.5s-.2-.5-.5-.5-.5.2-.5.5.3.5.5.5zm0-3.3c-.3 0-.5.2-.5.5s.2.5.5.5.5-.2.5-.5-.2-.5-.5-.5zm0 10.2c.3 0 .5-.2.5-.5s-.2-.5-.5-.5-.5.2-.5.5.3.5.5.5zm0-13.8c.3 0 .5-.2.5-.5s-.2-.5-.5-.5-.5.2-.5.5.2.5.5.5zM6.7 7.1l5.9-3.4c.2-.1.3-.4.2-.7-.1-.2-.4-.3-.7-.2L6.2 6.2c-.2.1-.3.5-.2.7.2.2.5.3.7.2zm0 4.1 5.9-3.4c.2-.1.3-.4.2-.7-.1-.2-.4-.3-.7-.2l-5.9 3.4c-.2.2-.3.5-.2.7.2.2.5.3.7.2z" fill="#41e1d4" class="color000000 svgShape"></path></svg>