<svg xmlns="http://www.w3.org/2000/svg" xmlns:xlink="http://www.w3.org/1999/xlink" viewBox="0 0 53 53"><path fill="#bf7d5a" d="m50.501 25.004-.02 5.88-23.91 13.89-24.07-13.89.01-5.88 23.92-13.9.14.09z"/><path fill="#bf7d5a" d="M26.57 11.189v33.588l23.912-13.896.017-5.878z"/><path fill="#aa6256" d="M26.427 11.107 2.515 25.002l-.016 5.877L26.57 44.777V11.189z"/><path fill="#162034" d="m38.259 15.054-.017 5.876-.813.473.017-5.877z"/><path fill="#c5c5c5" d="m38.668 15.289-.017 5.877-.813.473.017-5.877z"/><path fill="#dcdcdc" d="m38.668 15.289-.813.473-.409-.236.813-.473z"/><path fill="#898989" d="m37.855 15.762-.017 5.877-.409-.236.017-5.877z"/><path fill="#72d561" d="m16.416 14.042-.016 5.876-3.888 2.26.016-5.877z"/><path fill="#898989" d="m15.087 15.762-.016 5.877-.818-.472.017-5.877z"/><path fill="#dcdcdc" d="m15.494 15.526-.407.236-.817-.472.407-.236z"/><path fill="#c5c5c5" d="m15.494 15.526-.016 5.876-.407.237.016-5.877z"/><path fill="#101624" d="m15.087 15.762-.016 5.877-.818-.472.017-5.877z"/><path fill="#162034" d="m15.494 15.526-.016 5.876-.407.237.016-5.877z"/><path fill="#72d561" d="m36.506 14.042-.016 5.876-4.509 2.62.017-5.877z"/><path fill="#101624" d="m36.572 16.508-.017 5.877-.409-.236.017-5.877z"/><path fill="#5ec363" d="m20.955 16.662-.017 5.877-4.538-2.621.016-5.876z"/><defs><path id="a" d="m31.998 16.661-.017 5.877c-3.403-1.152-7.651-1.152-11.043 0l.017-5.876c3.391-1.153 7.64-1.153 11.043 0z"/></defs><clipPath id="b"><use overflow="visible" xlink:href="#a"/></clipPath><g clip-path="url(#b)"><path fill="#417d31" d="m31.998 16.661-.017 5.877a14.735 14.735 0 0 0-.685-.213l.016-5.877c.232.066.461.137.686.213"/><path fill="#438132" d="m31.312 16.448-.016 5.877a16.02 16.02 0 0 0-1.144-.28l.016-5.878c.389.08.77.174 1.144.28"/><path fill="#468634" d="m30.168 16.167-.016 5.877a17.342 17.342 0 0 0-1.081-.188l.016-5.876c.365.051.726.114 1.081.187"/><path fill="#488b36" d="m29.087 15.98-.016 5.876c-.352-.05-.707-.089-1.064-.118l.017-5.877c.357.03.712.069 1.063.119"/><path fill="#4a8f38" d="m28.024 15.86-.017 5.878c-.357-.03-.716-.05-1.076-.058l.017-5.877c.36.01.719.028 1.076.058"/><path fill="#4d943a" d="m26.948 15.803-.017 5.877a19.01 19.01 0 0 0-1.12.005l.016-5.877c.373-.013.747-.014 1.12-.005"/><path fill="#4f983b" d="m25.827 15.808-.017 5.877c-.406.014-.811.04-1.213.08l.017-5.876c.402-.04.807-.067 1.213-.08"/><path fill="#529d3d" d="m24.614 15.889-.017 5.877c-.472.047-.94.112-1.4.195l.016-5.877c.46-.083.928-.148 1.4-.195"/><path fill="#54a23f" d="m23.213 16.084-.017 5.877a15.84 15.84 0 0 0-2.041.506l.016-5.877c.655-.21 1.34-.38 2.042-.506"/><path fill="#56a641" d="m21.171 16.59-.016 5.877c-.073.023-.145.047-.217.072l.017-5.877.216-.072"/></g><path fill="#162034" d="m36.163 16.272-.017 5.877-1.284.746.017-5.877z"/><path fill="#c5c5c5" d="m36.572 16.508-.017 5.877-1.284.746.016-5.877z"/><path fill="#dcdcdc" d="m36.572 16.508-1.285.746-.408-.236 1.284-.746z"/><path fill="#898989" d="m35.287 17.254-.016 5.877-.409-.236.017-5.877zM17.671 17.254l-.016 5.877-1.292-.746.017-5.877z"/><path fill="#c5c5c5" d="m18.078 17.017-.016 5.877-.407.237.016-5.877z"/><path fill="#dcdcdc" d="m18.078 17.017-.407.237-1.291-.746.407-.236z"/><path fill="#162034" d="m18.078 17.018-.016 5.876-.407.237.016-5.877z"/><path fill="#101624" d="m17.671 17.254-.016 5.877-1.292-.746.017-5.877z"/><defs><path id="c" d="m29.414 17.527-.016 5.877a13.972 13.972 0 0 0-2.354-.29l.017-5.878c.8.032 1.592.13 2.353.291z"/></defs><clipPath id="d"><use overflow="visible" xlink:href="#c"/></clipPath><g clip-path="url(#d)"><path fill="#101726" d="m29.414 17.527-.016 5.877-.074-.016.016-5.876.074.015"/><path fill="#111827" d="m29.34 17.512-.016 5.876a13.492 13.492 0 0 0-.84-.145l.017-5.877c.283.04.563.088.84.146"/><path fill="#111928" d="m28.5 17.366-.016 5.877a14.113 14.113 0 0 0-.82-.092l.017-5.877c.275.023.549.053.82.092"/><path fill="#12192a" d="m27.68 17.274-.016 5.877c-.206-.017-.412-.03-.62-.038l.017-5.877c.207.009.414.021.62.038"/></g><path fill="#111928" d="m27.061 17.236-.017 5.877-.037.334.016-5.877z"/><path fill="#0f1522" d="m24.79 17.665-.017 5.877-.125-.327.017-5.876z"/><defs><path id="e" d="m29.216 17.84-.016 5.878a13.03 13.03 0 0 0-2.193-.271l.016-5.877c.745.029 1.484.12 2.193.27z"/></defs><clipPath id="f"><use overflow="visible" xlink:href="#e"/></clipPath><g clip-path="url(#f)"><path fill="#8f8f8f" d="m29.216 17.84-.016 5.878-.07-.015.017-5.877.07.015"/><path fill="#949494" d="m29.147 17.826-.016 5.877c-.258-.053-.52-.099-.784-.136l.017-5.877c.264.038.526.083.783.136"/><path fill="#999" d="m28.364 17.69-.017 5.877a13.161 13.161 0 0 0-.765-.086l.017-5.876c.257.02.512.05.765.085"/><path fill="#9e9e9e" d="m27.599 17.605-.017 5.876a13.424 13.424 0 0 0-.575-.034l.016-5.877c.193.007.385.019.576.035"/></g><path fill="#b2b2b2" d="m29.414 17.527-.016 5.877-.198.314.016-5.877z"/><defs><path id="g" d="m24.665 17.339-.017 5.876a12.62 12.62 0 0 0-2.249.49l.017-5.877a12.62 12.62 0 0 1 2.249-.49z"/></defs><clipPath id="h"><use overflow="visible" xlink:href="#g"/></clipPath><g clip-path="url(#h)"><path fill="#141c2e" d="m24.665 17.339-.017 5.876c-.235.03-.469.066-.7.107l.016-5.876c.232-.042.465-.078.7-.107"/><path fill="#141d2f" d="m23.964 17.446-.016 5.876c-.533.096-1.052.224-1.549.382l.017-5.876a12.222 12.222 0 0 1 1.548-.382"/></g><path fill="#101624" d="m34.004 18-.016 5.876-.409-.236.016-5.876z"/><path fill="gray" d="m22.696 18.12-.017 5.877-.28-.293.017-5.877z"/><defs><path id="i" d="m24.79 17.665-.017 5.877c-.725.092-1.431.244-2.094.455l.017-5.877a11.794 11.794 0 0 1 2.094-.455z"/></defs><clipPath id="j"><use overflow="visible" xlink:href="#i"/></clipPath><g clip-path="url(#j)"><path fill="#adadad" d="m24.79 17.665-.017 5.877c-.219.027-.435.06-.65.1l.017-5.878c.214-.038.431-.071.65-.1"/><path fill="#b3b3b3" d="m24.14 17.764-.017 5.877c-.497.09-.98.208-1.444.356l.017-5.877c.463-.147.947-.266 1.444-.356"/></g><path fill="#162034" d="m33.595 17.764-.016 5.876-.813.473.016-5.877z"/><path fill="#161f33" d="m31.531 18.192-.017 5.876-.344.268.017-5.877z"/><path fill="#dcdcdc" d="m34.004 18-.813.472-.409-.236.813-.472z"/><path fill="#c5c5c5" d="m34.004 18-.016 5.876-.814.473.017-5.877z"/><path fill="#898989" d="m33.191 18.472-.017 5.877-.408-.236.016-5.877zM19.781 18.472l-.016 5.877-.818-.472.017-5.877z"/><path fill="#c5c5c5" d="m20.188 18.236-.016 5.877-.407.236.016-5.877z"/><path fill="#162034" d="m20.188 18.236-.016 5.877-.407.236.016-5.877z"/><path fill="#101624" d="m19.781 18.472-.016 5.877-.818-.472.017-5.877z"/><defs><path id="k" d="m32.465 18.659-.017 5.877a8.955 8.955 0 0 0-.934-.468l.017-5.876c.325.14.637.296.934.467z"/></defs><clipPath id="l"><use overflow="visible" xlink:href="#k"/></clipPath><g clip-path="url(#l)"><path fill="#0f1523" d="m32.465 18.659-.017 5.877a8.955 8.955 0 0 0-.934-.468l.017-5.876c.325.14.637.296.934.467"/></g><defs><path id="m" d="M32.564 24.604a8.16 8.16 0 0 0-.116-.068l.017-5.877.116.068-.017 5.877z"/></defs><clipPath id="n"><use overflow="visible" xlink:href="#m"/></clipPath><g clip-path="url(#n)"><path fill="#0f1523" d="m33.24 19.173-.016 5.877a7.296 7.296 0 0 0-.776-.514l.017-5.877c.282.163.541.335.776.514"/></g><path fill="#162034" d="m40.421 16.301-.017 5.877-4.508 2.62.017-5.877z"/><path fill="#101624" d="m20.91 18.901-.017 5.877-.41-.235.017-5.877zM17.067 18.921l-.017 5.877-4.538-2.62.016-5.877z"/><defs><path id="o" d="m32.564 24.604.017-5.877c.238.143.458.291.66.446l-.017 5.877a7.167 7.167 0 0 0-.66-.446z"/></defs><clipPath id="p"><use overflow="visible" xlink:href="#o"/></clipPath><g clip-path="url(#p)"><path fill="#0f1523" d="m33.24 19.173-.016 5.877a7.296 7.296 0 0 0-.776-.514l.017-5.877c.282.163.541.335.776.514"/></g><defs><path id="q" d="m32.781 19.375-.016 5.876a6.668 6.668 0 0 0-.723-.48 8.35 8.35 0 0 0-.872-.435l.017-5.877c.304.131.595.276.871.436.264.152.505.312.723.48z"/></defs><clipPath id="r"><use overflow="visible" xlink:href="#q"/></clipPath><g clip-path="url(#r)"><path fill="#858585" d="m32.781 19.375-.016 5.876a6.669 6.669 0 0 0-.723-.48 8.35 8.35 0 0 0-.872-.435l.017-5.877c.304.131.595.276.871.436.264.152.505.312.723.48"/></g><path fill="#c5c5c5" d="m33.241 19.173-.017 5.876-.459.202.016-5.876z"/><defs><path id="s" d="M20.483 24.543a6.29 6.29 0 0 0-1.432 1.115l.015-5.19.001-.687a6.29 6.29 0 0 1 1.433-1.115l-.017 5.877z"/></defs><clipPath id="t"><use overflow="visible" xlink:href="#s"/></clipPath><g clip-path="url(#t)"><path fill="#151e30" d="m20.5 18.666-.017 5.877a7.877 7.877 0 0 0-.112.066l.016-5.876.113-.067"/><path fill="#141d2f" d="m20.387 18.733-.016 5.876a6.522 6.522 0 0 0-1.056.787l.016-5.877c.3-.278.652-.541 1.056-.786"/><path fill="#141c2e" d="m19.331 19.519-.016 5.877c-.093.086-.181.173-.264.262l.016-5.877c.083-.089.171-.176.264-.262"/></g><path fill="#dcdcdc" d="m20.5 18.666.41.235c-.54.316-.986.667-1.334 1.04l-.508-.16a6.29 6.29 0 0 1 1.432-1.115z"/><defs><path id="u" d="m20.91 18.901-.017 5.877c-.54.316-.985.666-1.334 1.04l.017-5.877a5.866 5.866 0 0 1 1.334-1.04z"/></defs><clipPath id="v"><use overflow="visible" xlink:href="#u"/></clipPath><g clip-path="url(#v)"><path fill="#b8b8b8" d="m20.91 18.901-.017 5.877-.097.058.017-5.877.097-.058"/><path fill="#b3b3b3" d="m20.813 18.959-.017 5.877c-.38.23-.709.476-.99.736l.017-5.877c.28-.26.61-.507.99-.736"/><path fill="#adadad" d="m19.823 19.695-.017 5.877c-.087.08-.17.162-.247.246l.017-5.877c.077-.083.16-.165.247-.246"/></g><path fill="#989898" d="m19.576 19.941-.017 5.877-.508-.16.017-5.877z"/><path fill="#161f32" d="m34.408 20.393-.017 5.877-.539.118.017-5.877z"/><path fill="#131b2c" d="m18.805 21.157-.017 5.877-.565-.07.017-5.877z"/><defs><path id="w" d="M34.915 27.63a3.264 3.264 0 0 0-.524-1.36l.017-5.877c.288.44.463.898.524 1.36l-.017 5.877z"/></defs><clipPath id="x"><use overflow="visible" xlink:href="#w"/></clipPath><g clip-path="url(#x)"><path fill="#0f1523" d="m34.932 21.753-.017 5.877a3.264 3.264 0 0 0-.524-1.36l.017-5.877c.288.44.463.898.524 1.36"/></g><path fill="#dcdcdc" d="M34.408 20.393c.288.44.463.898.524 1.36l-.574.025a3.041 3.041 0 0 0-.49-1.267l.54-.118z"/><path fill="#b5b5b5" d="m34.932 21.753-.017 5.877-.574.024.017-5.876z"/><defs><path id="y" d="m34.358 21.778-.017 5.876a3.041 3.041 0 0 0-.489-1.266l.017-5.877c.268.41.431.836.489 1.267z"/></defs><clipPath id="z"><use overflow="visible" xlink:href="#y"/></clipPath><g clip-path="url(#z)"><path fill="#858585" d="m34.358 21.778-.017 5.876a3.041 3.041 0 0 0-.489-1.266l.017-5.877c.268.41.431.836.489 1.267"/></g><defs><path id="A" d="m37.423 22.15-.017 5.877c.003-1.118-.5-2.236-1.51-3.229l.016-5.877c1.01.993 1.514 2.111 1.51 3.229z"/></defs><clipPath id="B"><use overflow="visible" xlink:href="#A"/></clipPath><g clip-path="url(#B)"><path fill="#3e782f" d="m37.423 22.15-.017 5.877c.003-1.118-.5-2.236-1.51-3.229l.017-5.877c1.01.993 1.513 2.111 1.51 3.229"/></g><defs><path id="C" d="M18.223 26.964c-.121.332-.182.67-.183 1.008l.016-5.877c.001-.338.062-.676.184-1.008-.005 1.763.294 4.142-.017 5.877z"/></defs><clipPath id="D"><use overflow="visible" xlink:href="#C"/></clipPath><g clip-path="url(#D)"><path fill="#12192a" d="m18.24 21.087-.017 5.877a3.045 3.045 0 0 0-.127.449l.017-5.877c.03-.15.072-.3.127-.449"/><path fill="#111928" d="m18.113 21.536-.017 5.877c-.032.16-.05.322-.055.483l.017-5.876c.004-.162.023-.323.055-.484"/><path fill="#111827" d="m18.058 22.02-.017 5.876-.001.076.016-5.877c0-.025 0-.05.002-.075"/></g><defs><path id="E" d="m31.909 22.135-.017 5.876c.002-.806-.529-1.614-1.592-2.227-2.114-1.221-5.542-1.221-7.642-.001-1.044.607-1.566 1.402-1.569 2.198l.017-5.877c.002-.796.525-1.591 1.568-2.198 2.1-1.22 5.528-1.22 7.643 0 1.063.615 1.594 1.422 1.592 2.229z"/></defs><clipPath id="F"><use overflow="visible" xlink:href="#E"/></clipPath><g clip-path="url(#F)"><path fill="#0f1523" d="m31.909 22.135-.017 5.876c.002-.806-.529-1.614-1.592-2.227a5.853 5.853 0 0 0-.777-.373l.017-5.877c.274.108.534.232.777.373 1.063.614 1.594 1.421 1.592 2.228"/><path fill="#101624" d="m29.54 19.534-.017 5.877a7.04 7.04 0 0 0-.655-.221l.016-5.877c.226.064.445.138.656.221"/><path fill="#101726" d="m28.884 19.313-.016 5.877a7.929 7.929 0 0 0-.564-.139l.016-5.876c.192.04.38.085.564.138"/><path fill="#111827" d="m28.32 19.175-.016 5.876a8.582 8.582 0 0 0-.537-.093l.017-5.877c.18.026.36.057.536.094"/><path fill="#111928" d="m27.784 19.081-.017 5.877a9.048 9.048 0 0 0-.526-.059l.016-5.877c.177.015.353.035.527.06"/><path fill="#12192a" d="m27.257 19.022-.016 5.877a9.325 9.325 0 0 0-.534-.028l.017-5.877c.178.004.356.014.533.028"/><path fill="#131a2b" d="m26.724 18.994-.017 5.877a9.407 9.407 0 0 0-.555.002l.017-5.876c.185-.007.37-.008.555-.003"/><path fill="#131b2c" d="m26.169 18.997-.017 5.876c-.201.007-.402.02-.6.04l.016-5.876c.199-.02.4-.034.6-.04"/><path fill="#141c2e" d="m25.568 19.037-.017 5.876a8.814 8.814 0 0 0-.69.096l.017-5.876c.227-.041.457-.073.69-.096"/><path fill="#141d2f" d="m24.878 19.133-.017 5.876a7.825 7.825 0 0 0-1.023.255l.017-5.877c.327-.106.67-.19 1.023-.254"/><path fill="#151e30" d="m23.855 19.387-.017 5.877a6.088 6.088 0 0 0-1.246.558l.017-5.877.065-.039a6.088 6.088 0 0 1 1.18-.519"/><path fill="#141d2f" d="m22.609 19.945-.017 5.877a4.175 4.175 0 0 0-.682.505l.016-5.877c.194-.178.421-.348.683-.505"/><path fill="#141c2e" d="m21.926 20.45-.016 5.877a3.111 3.111 0 0 0-.335.36l.017-5.877c.097-.123.208-.243.334-.36"/><path fill="#131b2c" d="m21.592 20.81-.017 5.877a2.548 2.548 0 0 0-.218.323l.017-5.877c.062-.11.134-.217.218-.323"/><path fill="#131a2b" d="m21.374 21.133-.017 5.877a2.191 2.191 0 0 0-.144.308l.017-5.877c.039-.104.087-.206.144-.308"/><path fill="#12192a" d="m21.23 21.441-.017 5.877c-.038.1-.067.203-.087.305l.016-5.877c.02-.102.05-.204.088-.305"/><path fill="#111928" d="m21.142 21.746-.016 5.877c-.021.103-.033.207-.036.31l.017-5.876c.003-.104.015-.208.035-.311"/><path fill="#111827" d="m21.107 22.057-.017 5.877v.047l.016-5.877v-.047"/></g><defs><path id="G" d="m15.576 27.966.016-5.877c.004-1.097.495-2.193 1.475-3.168l-.017 5.877c-.98.975-1.471 2.07-1.474 3.168z"/></defs><clipPath id="H"><use overflow="visible" xlink:href="#G"/></clipPath><g clip-path="url(#H)"><path fill="#529d3d" d="m17.067 18.921-.017 5.877a6.112 6.112 0 0 0-.496.556l.017-5.877c.148-.189.314-.374.496-.556"/><path fill="#4f983b" d="m16.57 19.477-.016 5.877c-.167.213-.313.43-.437.65l.016-5.877c.125-.22.27-.437.438-.65"/><path fill="#4d943a" d="m16.133 20.127-.016 5.877a4.43 4.43 0 0 0-.291.621l.017-5.877a4.43 4.43 0 0 1 .29-.62"/><path fill="#4a8f38" d="m15.843 20.748-.017 5.877a3.98 3.98 0 0 0-.177.616l.017-5.877c.041-.206.1-.412.177-.616"/><path fill="#488b36" d="m15.666 21.364-.017 5.877a3.745 3.745 0 0 0-.072.628l.017-5.877c.006-.21.03-.42.072-.628"/><path fill="#468634" d="m15.594 21.992-.017 5.877-.001.097.016-5.877.002-.097"/></g><defs><path id="I" d="m18.04 27.972.016-5.877c0 .127.008.254.025.38l-.017 5.877a2.881 2.881 0 0 1-.024-.38z"/></defs><clipPath id="J"><use overflow="visible" xlink:href="#I"/></clipPath><g clip-path="url(#J)"><path fill="#858585" d="m18.08 22.476-.016 5.876a2.88 2.88 0 0 1-.024-.38l.016-5.877c0 .127.008.254.025.38"/></g><path fill="#b5b5b5" d="m18.656 22.452-.017 5.876-.575.024.017-5.876z"/><path fill="#131b2c" d="m34.778 23.143-.016 5.876-.565-.069.017-5.877z"/><path fill="#161f32" d="m19.14 23.72-.016 5.877-.539.117.016-5.877z"/><defs><path id="K" d="M34.197 28.95a3.6 3.6 0 0 1-.767 1.217l.017-5.876a3.6 3.6 0 0 0 .767-1.218l-.015 5.19c0 .206.034.484-.002.687z"/></defs><clipPath id="L"><use overflow="visible" xlink:href="#K"/></clipPath><g clip-path="url(#L)"><path fill="#12192a" d="m34.214 23.073-.017 5.877a2.956 2.956 0 0 1-.013.035l.017-5.877.013-.035"/><path fill="#131a2b" d="m34.2 23.108-.016 5.877c-.056.15-.126.298-.208.444l.017-5.877c.082-.146.151-.294.208-.444"/><path fill="#131b2c" d="m33.993 23.552-.017 5.877c-.09.16-.195.316-.316.47l.017-5.878c.12-.153.226-.31.316-.469"/><path fill="#141c2e" d="m33.677 24.021-.017 5.877c-.071.091-.148.18-.23.27l.017-5.877c.082-.089.159-.179.23-.27"/></g><defs><path id="M" d="M31.892 28.011c-.002.797-.524 1.592-1.568 2.198l.017-5.876c1.043-.607 1.566-1.402 1.568-2.199l-.017 5.877z"/></defs><clipPath id="N"><use overflow="visible" xlink:href="#M"/></clipPath><g clip-path="url(#N)"><path fill="#468634" d="m31.909 22.135-.017 5.876v.048l.016-5.877v-.047"/><path fill="#488b36" d="m31.908 22.182-.017 5.877a1.853 1.853 0 0 1-.035.311l.017-5.877c.02-.103.032-.207.035-.31"/><path fill="#4a8f38" d="m31.873 22.493-.017 5.877c-.02.102-.05.204-.088.305l.017-5.877c.038-.1.067-.203.088-.305"/><path fill="#4d943a" d="m31.785 22.798-.017 5.877a2.192 2.192 0 0 1-.144.308l.017-5.877c.057-.101.105-.204.144-.308"/><path fill="#4f983b" d="m31.64 23.106-.016 5.877c-.062.11-.134.217-.217.323l.016-5.877c.084-.106.156-.214.218-.323"/><path fill="#529d3d" d="m31.423 23.429-.016 5.877a3.11 3.11 0 0 1-.335.36l.016-5.877a3.11 3.11 0 0 0 .335-.36"/><path fill="#54a23f" d="m31.088 23.789-.016 5.877c-.193.178-.42.347-.682.505l.017-5.877c.261-.157.488-.327.681-.505"/><path fill="#56a641" d="m30.407 24.294-.017 5.877a6.093 6.093 0 0 1-1.247.558l.017-5.877a6.093 6.093 0 0 0 1.247-.558"/></g><defs><path id="O" d="M22.683 30.21c-1.064-.614-1.596-1.422-1.594-2.229l.017-5.876c-.002.806.53 1.614 1.593 2.229l-.016 5.876z"/></defs><clipPath id="P"><use overflow="visible" xlink:href="#O"/></clipPath><g clip-path="url(#P)"><path fill="#3e782f" d="m23.475 24.706-.016 5.877a5.845 5.845 0 0 1-.776-.373c-1.064-.614-1.596-1.422-1.594-2.229l.017-5.877c-.002.807.53 1.615 1.593 2.23.243.14.503.264.776.372"/></g><path fill="#989898" d="m33.955 24.449-.016 5.877-.509-.159.017-5.876z"/><defs><path id="Q" d="m34.778 23.142-.016 5.877a3.877 3.877 0 0 1-.823 1.307l.016-5.877c.385-.414.66-.855.823-1.307z"/></defs><clipPath id="R"><use overflow="visible" xlink:href="#Q"/></clipPath><g clip-path="url(#R)"><path fill="#9e9e9e" d="m34.778 23.142-.016 5.877a3.182 3.182 0 0 1-.013.034l.017-5.877.012-.034"/><path fill="#a3a3a3" d="m34.766 23.176-.017 5.877c-.06.162-.136.323-.225.481l.016-5.877c.09-.158.165-.319.226-.481"/><path fill="#a8a8a8" d="m34.54 23.657-.016 5.877c-.097.171-.21.34-.34.504l.018-5.876c.13-.165.242-.334.338-.505"/><path fill="#adadad" d="m34.202 24.162-.017 5.876a4.596 4.596 0 0 1-.246.288l.016-5.877c.088-.094.17-.19.247-.287"/></g><defs><path id="S" d="M20.206 30.735a4.66 4.66 0 0 1-1.082-1.138l.016-5.877c.26.4.622.784 1.083 1.138l-.017 5.877z"/></defs><clipPath id="T"><use overflow="visible" xlink:href="#S"/></clipPath><g clip-path="url(#T)"><path fill="#0f1523" d="m20.223 24.858-.017 5.877a4.66 4.66 0 0 1-1.082-1.138l.016-5.877c.26.4.622.784 1.083 1.138"/></g><path fill="#dcdcdc" d="m18.601 23.837.54-.117c.26.4.621.784 1.082 1.138l-.46.2a4.983 4.983 0 0 1-1.162-1.221z"/><defs><path id="U" d="m19.763 25.059-.016 5.876a4.983 4.983 0 0 1-1.162-1.221l.016-5.877c.279.43.668.842 1.162 1.222z"/></defs><clipPath id="V"><use overflow="visible" xlink:href="#U"/></clipPath><g clip-path="url(#V)"><path fill="#858585" d="m19.763 25.059-.016 5.876a4.983 4.983 0 0 1-1.162-1.221l.016-5.877c.279.43.668.842 1.162 1.222"/></g><path fill="#c5c5c5" d="m20.223 24.858-.017 5.877-.459.2.016-5.876z"/><defs><path id="W" d="m37.423 22.15-.017 5.877c-.003 1.097-.495 2.193-1.475 3.168l.017-5.877c.98-.975 1.472-2.071 1.475-3.168z"/></defs><clipPath id="X"><use overflow="visible" xlink:href="#W"/></clipPath><g clip-path="url(#X)"><path fill="#111827" d="m37.423 22.15-.017 5.877-.001.096.016-5.877.002-.096"/><path fill="#111928" d="m37.421 22.246-.016 5.877c-.007.21-.03.42-.072.628l.016-5.877c.042-.208.066-.418.072-.628"/><path fill="#12192a" d="m37.35 22.874-.017 5.877c-.042.207-.1.412-.177.616l.017-5.877a3.98 3.98 0 0 0 .176-.616"/><path fill="#131a2b" d="m37.173 23.49-.017 5.877a4.43 4.43 0 0 1-.29.62l.016-5.876a4.43 4.43 0 0 0 .29-.62"/><path fill="#131b2c" d="m36.882 24.111-.017 5.877a5.15 5.15 0 0 1-.437.65l.016-5.876a5.15 5.15 0 0 0 .438-.65"/><path fill="#141c2e" d="m36.444 24.762-.016 5.876c-.149.19-.315.375-.497.557l.017-5.877c.182-.182.348-.367.496-.556"/></g><path fill="#162034" d="m32.115 25.331-.017 5.877-.022.013.017-5.877z"/><defs><path id="Y" d="m15.576 27.966.016-5.877c-.003 1.118.5 2.236 1.51 3.229l-.017 5.877c-1.01-.993-1.512-2.112-1.51-3.229z"/></defs><clipPath id="Z"><use overflow="visible" xlink:href="#Y"/></clipPath><g clip-path="url(#Z)"><path fill="#0f1523" d="m17.102 25.318-.017 5.877c-1.01-.993-1.512-2.112-1.51-3.229l.017-5.877c-.003 1.118.5 2.236 1.51 3.229"/></g><path fill="#101624" d="m32.526 25.567-.016 5.877-.412-.236.017-5.877z"/><defs><path id="aa" d="M30.324 30.21c-2.1 1.22-5.529 1.22-7.641 0l.016-5.876c2.113 1.22 5.541 1.22 7.642-.001l-.017 5.876z"/></defs><clipPath id="ab"><use overflow="visible" xlink:href="#aa"/></clipPath><g clip-path="url(#ab)"><path fill="#56a641" d="m30.407 24.294-.017 5.877a6.093 6.093 0 0 1-1.247.558l.017-5.877a6.093 6.093 0 0 0 1.247-.558"/><path fill="#54a23f" d="m29.16 24.852-.017 5.877a7.829 7.829 0 0 1-1.023.255l.016-5.877a7.829 7.829 0 0 0 1.024-.255"/><path fill="#529d3d" d="m28.136 25.107-.016 5.877c-.227.04-.458.072-.691.096l.017-5.877c.233-.023.463-.055.69-.096"/><path fill="#4f983b" d="m27.446 25.203-.017 5.877c-.2.02-.4.033-.6.04l.016-5.877a9.26 9.26 0 0 0 .6-.04"/><path fill="#4d943a" d="m26.845 25.243-.017 5.877c-.185.006-.37.007-.555.002l.017-5.877c.185.005.37.004.555-.002"/><path fill="#4a8f38" d="m26.29 25.245-.017 5.877a9.326 9.326 0 0 1-.534-.028l.017-5.877c.177.015.355.024.534.028"/><path fill="#488b36" d="m25.756 25.217-.017 5.877a9.044 9.044 0 0 1-.526-.06l.017-5.876c.174.025.35.044.526.059"/><path fill="#468634" d="m25.23 25.158-.017 5.877a8.577 8.577 0 0 1-.536-.093l.016-5.877c.177.036.356.067.537.093"/><path fill="#438132" d="m24.693 25.065-.016 5.877a7.921 7.921 0 0 1-.563-.138l.016-5.877c.184.052.372.098.563.138"/><path fill="#417d31" d="m24.13 24.927-.016 5.877a7.032 7.032 0 0 1-.655-.221l.016-5.877c.211.083.43.157.655.22"/><path fill="#3e782f" d="m23.475 24.706-.016 5.877a5.845 5.845 0 0 1-.776-.373c-1.064-.614-1.596-1.422-1.594-2.229l.017-5.877c-.002.807.53 1.615 1.593 2.23.243.14.503.264.776.372"/></g><path fill="#c5c5c5" d="m32.526 25.567-.016 5.877-.024.013.017-5.876z"/><path fill="#101624" d="m20.232 26.003-.017 5.877-.408-.236.016-5.877z"/><defs><path id="ac" d="M32.076 31.22a8.932 8.932 0 0 1-1.787.78l.014-5.19.002-.687a8.933 8.933 0 0 0 1.788-.779l-.017 5.877z"/></defs><clipPath id="ad"><use overflow="visible" xlink:href="#ac"/></clipPath><g clip-path="url(#ad)"><path fill="#151e30" d="m32.093 25.344-.017 5.877a8.91 8.91 0 0 1-1.756.768l.017-5.876a8.91 8.91 0 0 0 1.756-.769"/><path fill="#141d2f" d="m30.337 26.113-.017 5.876-.031.01.016-5.876.032-.01"/></g><path fill="#162034" d="m19.823 25.767-.016 5.877-.813.472.016-5.876z"/><defs><path id="ae" d="m32.503 25.58-.017 5.877a9.626 9.626 0 0 1-1.919.836l.017-5.877a9.626 9.626 0 0 0 1.919-.835z"/></defs><clipPath id="af"><use overflow="visible" xlink:href="#ae"/></clipPath><g clip-path="url(#af)"><path fill="#b8b8b8" d="m32.503 25.58-.017 5.877a9.605 9.605 0 0 1-1.893.828l.017-5.877a9.605 9.605 0 0 0 1.893-.827"/><path fill="#b3b3b3" d="m30.61 26.408-.017 5.877-.026.008.017-5.877.026-.008"/></g><path fill="gray" d="m30.584 26.416-.017 5.877-.278-.294.016-5.876z"/><path fill="#c5c5c5" d="m34.051 26.239-.017 5.877-.407.236.017-5.876z"/><path fill="#898989" d="m33.644 26.476-.017 5.876-.818-.472.016-5.877z"/><path fill="#101624" d="m33.644 26.476-.017 5.876-.818-.472.016-5.877z"/><path fill="#162034" d="m34.051 26.239-.017 5.877-.407.236.017-5.876z"/><path fill="#c5c5c5" d="m20.232 26.003-.017 5.877-.813.472.017-5.876z"/><path fill="#dcdcdc" d="m20.232 26.003-.813.473-.409-.236.813-.473z"/><path fill="#898989" d="m19.419 26.476-.017 5.876-.408-.236.016-5.876z"/><defs><path id="ag" d="m25.959 32.546.016-5.877c.748.03 1.5 0 2.234-.093l-.016 5.877c-.734.092-1.487.124-2.234.093z"/></defs><clipPath id="ah"><use overflow="visible" xlink:href="#ag"/></clipPath><g clip-path="url(#ah)"><path fill="#141c2e" d="m28.21 26.576-.017 5.877c-.115.014-.23.027-.347.039l.017-5.877c.116-.011.231-.024.346-.039"/><path fill="#131b2c" d="m27.863 26.615-.017 5.877c-.288.028-.578.048-.869.058l.017-5.877c.29-.01.581-.03.869-.058"/><path fill="#131a2b" d="m26.994 26.673-.017 5.877c-.266.009-.533.01-.8.003l.017-5.877c.266.007.533.006.8-.003"/><path fill="#12192a" d="m26.194 26.676-.017 5.877a13.469 13.469 0 0 1-.218-.007l.016-5.877c.073.003.146.006.219.007"/></g><path fill="#0f1522" d="m28.333 26.903-.017 5.877-.123-.327.016-5.877z"/><path fill="#111928" d="m25.975 26.669-.016 5.877-.04.333.017-5.877z"/><defs><path id="ai" d="m28.333 26.903-.017 5.877c-.787.1-1.594.132-2.397.1l.017-5.878c.802.033 1.61 0 2.397-.1z"/></defs><clipPath id="aj"><use overflow="visible" xlink:href="#ai"/></clipPath><g clip-path="url(#aj)"><path fill="#adadad" d="m28.333 26.903-.017 5.877c-.123.015-.246.03-.37.041l.017-5.876c.124-.013.247-.027.37-.042"/><path fill="#a8a8a8" d="m27.963 26.945-.017 5.876c-.308.031-.618.052-.93.062l.018-5.877c.31-.01.62-.03.929-.061"/><path fill="#a3a3a3" d="m27.034 27.006-.017 5.877c-.287.01-.575.011-.863.004l.017-5.877c.287.007.575.006.863-.004"/><path fill="#9e9e9e" d="m26.17 27.01-.016 5.877a14.623 14.623 0 0 1-.235-.008l.017-5.877c.078.004.156.006.235.008"/></g><path fill="#101624" d="m18.136 27.221-.017 5.877-.409-.236.017-5.877z"/><path fill="#72d561" d="m17.102 25.318-.017 5.877-4.508 2.62.017-5.877z"/><path fill="#162034" d="m17.727 26.985-.017 5.877-1.284.746.017-5.876z"/><path fill="#5ec363" d="m40.485 27.938-.016 5.877-4.538-2.62.017-5.877z"/><path fill="#c5c5c5" d="m36.635 27.731-.017 5.877-.407.236.017-5.877z"/><path fill="#898989" d="m36.228 27.967-.017 5.877-1.292-.745.017-5.877z"/><path fill="#162034" d="m36.635 27.731-.017 5.877-.407.236.017-5.876z"/><path fill="#101624" d="m36.228 27.968-.017 5.876-1.292-.745.017-5.877z"/><path fill="#c5c5c5" d="m18.136 27.221-.017 5.877-1.284.746.017-5.876z"/><path fill="#898989" d="m16.852 27.968-.017 5.876-.409-.236.017-5.876z"/><path fill="#dcdcdc" d="m18.136 27.221-1.284.747-.409-.236 1.284-.747z"/><path fill="#162034" d="m37.926 28.477-.016 5.877-.407.236.016-5.877z"/><path fill="#101624" d="m38.745 28.949-.017 5.877-.818-.472.016-5.877z"/><path fill="#898989" d="m38.338 29.186-.017 5.877-.818-.473.016-5.877z"/><path fill="#1d2943" d="m38.745 28.95-.819-.473-.407.236.819.473-1.74 1.011-4.538-2.62c-3.392 1.153-7.64 1.153-11.044.001l-4.508 2.62-1.753-1.012.814-.473-.41-.236-.812.473-1.753-1.012 4.508-2.62c-2-1.968-2.013-4.429-.035-6.397l-4.539-2.62 3.888-2.26 4.539 2.62c3.391-1.152 7.64-1.152 11.043 0l4.508-2.62 1.753 1.013-.813.472.409.236.813-.472L40.42 16.3l-4.508 2.62c2 1.967 2.014 4.429.035 6.397l4.537 2.62-1.74 1.011zm-16.046-4.616c2.113 1.22 5.541 1.22 7.642-.001 2.1-1.22 2.089-3.206-.024-4.426-2.115-1.221-5.543-1.221-7.643 0-2.1 1.22-2.09 3.206.025 4.427m-4.618-1.858.575-.024a2.707 2.707 0 0 1 .149-1.295l-.565-.07a2.91 2.91 0 0 0-.16 1.389m7.856 4.526c.802.033 1.61 0 2.397-.1l-.124-.326c-.733.093-1.486.124-2.234.093l-.039.333m3.478-9.475a13.972 13.972 0 0 0-2.353-.29l-.038.333c.745.029 1.484.12 2.193.27l.198-.313m4.994 2.866-.54.118c.27.41.432.836.49 1.267l.574-.025a3.264 3.264 0 0 0-.524-1.36m-.194 2.68a3.6 3.6 0 0 1-.767 1.218l.508.158c.385-.414.66-.855.823-1.306l-.564-.07m-9.55-5.734a12.62 12.62 0 0 0-2.248.489l.28.292a11.793 11.793 0 0 1 2.094-.455l-.125-.326m-3.195 8.703c.658.284 1.371.506 2.114.666l.2-.313a10.577 10.577 0 0 1-1.97-.62l-.344.267m-1.707-.983.46-.201a4.66 4.66 0 0 1-1.083-1.138l-.539.117c.279.43.668.842 1.162 1.222m12.74.522.023-.014-.411-.236-.022.013a8.932 8.932 0 0 1-1.788.779l.279.293a9.626 9.626 0 0 0 1.919-.835m-13.436-5.8.509.16a5.866 5.866 0 0 1 1.334-1.04l-.41-.235a6.29 6.29 0 0 0-1.433 1.115m13.398-1.122a8.954 8.954 0 0 0-.934-.467l-.344.267c.304.131.595.276.871.436.264.152.505.312.723.48l.46-.202a7.296 7.296 0 0 0-.776-.514m-15.613 9.309 1.284-.747-.409-.236-1.284.747.409.236m19.31-11.696-1.283.746.408.236 1.285-.746-.41-.236m-2.567 1.492-.813.472.41.236.812-.472-.409-.236M19.42 26.476l.813-.473-.409-.236-.813.473.409.236"/><path fill="#dcdcdc" d="m17.671 17.254-1.291-.746.407-.236 1.291.746zM29.216 17.84a13.03 13.03 0 0 0-2.193-.27l.038-.334c.8.032 1.592.13 2.353.291l-.198.314zm-4.426-.175c-.726.092-1.431.244-2.094.455l-.28-.293c.712-.227 1.47-.39 2.249-.489l.125.327zM20.188 18.236l-.407.236-.817-.472.407-.236zM32.465 18.659c.282.163.541.335.776.514l-.46.202a6.669 6.669 0 0 0-.723-.48 8.351 8.351 0 0 0-.871-.436l.344-.267c.325.14.637.296.934.467zm-13.66 2.498a2.707 2.707 0 0 0-.15 1.295l-.574.024a2.91 2.91 0 0 1 .159-1.389l.565.07zm15.973 1.985a3.877 3.877 0 0 1-.823 1.307l-.508-.158a3.6 3.6 0 0 0 .767-1.218l.564.07z"/><path fill="#78e75a" d="M22.674 19.906c2.1-1.22 5.528-1.22 7.643 0 2.113 1.22 2.124 3.206.024 4.427-2.1 1.22-5.529 1.22-7.642 0-2.114-1.22-2.125-3.206-.025-4.427z"/><path fill="#dcdcdc" d="m32.115 25.331.411.236-.023.014a9.626 9.626 0 0 1-1.919.835l-.279-.293a8.932 8.932 0 0 0 1.788-.779l.022-.013zM34.051 26.239l-.407.237-.819-.473.407-.236zM21.815 25.775a10.58 10.58 0 0 0 1.969.62l-.2.313a11.373 11.373 0 0 1-2.114-.666l.345-.267zm4.16.894c.748.03 1.5 0 2.234-.093l.124.327c-.788.1-1.595.132-2.397.1l.04-.334zM36.635 27.731l-.407.236-1.292-.745.407-.237z"/><path fill="#78e75a" d="M17.067 18.921c-1.978 1.968-1.965 4.43.035 6.397l-4.508 2.62c-4.051 3.787-7.118-.576-10.079-5.819L26.428 8.223l10.078 5.819-4.508 2.62c-3.403-1.153-7.652-1.153-11.043 0l-4.539-2.62-3.888 2.26 4.539 2.62z"/><defs><path id="ak" d="m32.06 27.577-.017 5.877c-3.391 1.153-7.64 1.153-11.043 0l.016-5.876c3.404 1.152 7.652 1.152 11.044 0z"/></defs><clipPath id="al"><use overflow="visible" xlink:href="#ak"/></clipPath><g clip-path="url(#al)"><path fill="#151e30" d="m32.06 27.577-.017 5.877a14.27 14.27 0 0 1-.216.072l.016-5.877c.073-.023.145-.047.217-.072"/><path fill="#141d2f" d="m31.843 27.649-.016 5.877c-.655.21-1.34.38-2.042.506l.016-5.876a15.84 15.84 0 0 0 2.042-.507"/><path fill="#141c2e" d="m29.801 28.156-.016 5.876c-.46.083-.929.148-1.401.195l.017-5.876c.472-.047.94-.112 1.4-.195"/><path fill="#131b2c" d="m28.4 28.35-.016 5.877c-.402.04-.807.067-1.213.081l.017-5.877c.406-.014.81-.04 1.213-.08"/><path fill="#131a2b" d="m27.188 28.431-.017 5.877c-.373.013-.747.014-1.12.005l.016-5.877c.373.01.748.008 1.12-.005"/><path fill="#12192a" d="m26.067 28.436-.017 5.877a18.84 18.84 0 0 1-1.076-.058l.017-5.876c.357.029.716.048 1.076.057"/><path fill="#111928" d="m24.99 28.379-.016 5.876c-.357-.029-.712-.069-1.063-.118l.016-5.877c.352.05.707.09 1.064.119"/><path fill="#111827" d="m23.927 28.26-.016 5.877a17.34 17.34 0 0 1-1.081-.188l.016-5.877c.356.073.717.136 1.081.188"/><path fill="#101726" d="m22.846 28.072-.016 5.877a16.02 16.02 0 0 1-1.145-.28l.017-5.878c.374.107.756.2 1.144.28"/><path fill="#101624" d="m21.702 27.791-.017 5.877a14.73 14.73 0 0 1-.685-.213l.016-5.877c.225.076.454.147.686.213"/></g><path fill="#162034" d="m40.485 27.938-.016 5.877-1.741 1.011.017-5.877z"/><path fill="#c5c5c5" d="m38.745 28.949-.017 5.877-.407.237.017-5.877z"/><path fill="#dcdcdc" d="m38.745 28.949-.407.237-.819-.473.407-.236zM15.569 28.713l-.814.473-.408-.236.813-.473z"/><path fill="#162034" d="m38.338 29.186-.017 5.877-1.74 1.011.016-5.877z"/><path fill="#101624" d="m36.597 30.197-.016 5.877-4.538-2.62.017-5.877z"/><path fill="#162034" d="M21.016 27.578 21 33.455l-4.508 2.62.016-5.877z"/><path fill="#5ec363" d="m50.5 22.124-.02 5.87-23.91 13.9-9.93-5.73-.15-.09-13.99-8.08.01-5.88 14 8.09v-.01l4.51-2.62c3.4 1.16 7.65 1.16 11.04 0l4.54 2.62 2.14-1.24 1.74-1.02-4.53-2.62c1.98-1.96 1.96-4.43-.04-6.39l4.51-2.62 10.08 5.82z"/><path fill="#72d561" d="m50.499 22.12-.016 5.877L26.57 41.894l.017-5.877z"/><path fill="#78e75a" d="m40.42 16.301 10.08 5.82-23.913 13.896-10.079-5.82 4.508-2.619c3.404 1.152 7.652 1.152 11.044 0l4.537 2.62 1.74-1.012.408-.237 1.74-1.011-4.537-2.62c1.979-1.968 1.966-4.43-.035-6.397l4.508-2.62z"/><path fill="#5ec363" d="m26.587 36.017-.017 5.877-10.079-5.82.018-5.877z"/><path fill="#5ec363" d="m16.656 30.284-.018 5.875-14.139-8.164.016-5.877z"/><path fill="#dcdcdc" d="m15.495 15.526-.408.237-.818-.473.408-.237z"/></svg>