<svg xmlns="http://www.w3.org/2000/svg" viewBox="0 0 53 53"><path fill="#dba660" d="m50.502 25.737-.02 5.06-23.91 13.9-24.07-13.9.01-5.06 24.07 13.9z"/><path fill="#dba660" d="m50.502 25.737-.02 5.06-23.91 13.9-24.07-13.9.01-5.06 24.07 13.9z"/><path fill="#dba660" d="m50.498 25.735-.015 5.062-23.915 13.898.014-5.062z"/><path fill="#bf7d5a" d="m26.582 39.633-.014 5.062-24.07-13.897.014-5.062z"/><path fill="#bd8f53" d="M50.498 25.735 26.582 39.633 2.512 25.736l23.915-13.898z"/><path fill="#50b069" d="m9.827 26.424-.014 5.062-7.315-4.223.014-5.062c4.903.165 7.795 1.344 7.315 4.223z"/><path fill="#898989" d="m34.558 12.999-.015 5.062-.818-.473.015-5.062z"/><path fill="#898989" d="m34.967 13.235-.014 5.062-.41-.236.015-5.062z"/><path fill="#78e75a" d="m19.906 12.093 6.521-3.79 6.565 3.79-6.522 3.79z"/><path fill="#50b069" d="m26.47 15.883-.014 5.062-6.565-3.79.015-5.062z"/><path fill="#5ec363" d="m32.992 12.093-.015 5.062-6.521 3.79.014-5.062z"/><path fill="#898989" d="m26.474 16.749-.015 5.062-7.314-4.223.015-5.062z"/><path fill="#dedffb" d="m33.74 12.526-.015 5.062-7.266 4.223.015-5.062z"/><path fill="#898989" d="m41.955 17.269-.015 5.062-6.987-4.034.014-5.062zM42.363 17.505l-.014 5.062-.409-.236.015-5.062z"/><path fill="#1d2943" d="m34.558 12.999-.015 5.062-8.08 4.695.015-5.062z"/><path fill="#29313f" d="m26.478 17.694-.015 5.062-8.132-4.695.015-5.062z"/><path fill="#4c5c75" d="m34.558 12.999-8.08 4.695-8.132-4.695.814-.473 7.314 4.223 7.266-4.223z"/><path fill="#898989" d="m43.183 17.978-.015 5.062-.819-.473.014-5.062z"/><path fill="#febc1f" d="m34.967 13.235-.014 5.062-8.486 4.932.014-5.062z"/><path fill="#89703a" d="m26.481 18.167-.014 5.062-8.541-4.932.014-5.062z"/><path fill="#ffd06c" d="m26.477 17.694 8.081-4.695.409.236-8.486 4.932-8.541-4.932.406-.236z"/><path fill="#5ec363" d="m9.78 17.977-.015 5.063-.746.433.015-5.062z"/><path fill="#1d2943" d="m41.955 17.269-.015 5.062-8.486 4.932.015-5.062z"/><path fill="#febc1f" d="m42.363 17.505-.014 5.062-8.08 4.696.014-5.062z"/><path fill="#1d2943" d="m43.183 17.978-.015 5.062-7.266 4.223.014-5.062z"/><path fill="#dedffb" d="m43.932 18.409-.014 5.062-6.522 3.79.014-5.062z"/><path fill="#29313f" d="m19.541 22.2-.014 5.062-8.542-4.931.014-5.062z"/><path fill="#89703a" d="m18.724 22.2-.014 5.062-8.132-4.695.014-5.062z"/><path fill="#29313f" d="m17.092 22.201-.014 5.062-7.314-4.223.014-5.062z"/><path fill="#898989" d="m15.598 22.201-.014 5.062-6.565-3.79.015-5.062z"/><path fill="#78e75a" d="m43.932 18.409 6.566 3.791-6.522 3.79-6.566-3.791z"/><path fill="#50b069" d="m43.976 25.99-.014 5.062-6.566-3.791.014-5.062z"/><path fill="#5ec363" d="m50.498 22.2-.015 5.062-6.521 3.79.014-5.062zM15.598 22.201l-.014 5.062-6.522 3.79.014-5.062z"/><path fill="#898989" d="m43.23 26.423-.014 5.062-7.314-4.222.014-5.062z"/><path fill="#dedffb" d="m43.976 25.99-.014 5.062-.746.433.014-5.062c-.301-.391.156-.442.746-.433z"/><path fill="#f3f1fc" d="m37.41 22.199 6.566 3.791-.746.433-7.314-4.222 7.267-4.223-.82-.473-.408-.236-6.988-4.034-.409-.236-.818-.473-7.266 4.223-7.314-4.223.746-.433 6.564 3.79 6.522-3.79 10.94 6.316zM9.78 17.977l7.312 4.224-7.265 4.222c-.356.258-.648.273-.75-.432l6.521-3.79-6.564-3.79.746-.434z"/><path fill="#dedffb" d="m17.092 22.201-.014 5.062-7.265 4.222.014-5.062z"/><path fill="#78e75a" d="m9.78 17.977-.746.434 6.564 3.79-6.522 3.79.751.433-7.315-4.223z"/><path fill="#29313f" d="m42.416 26.896-.014 5.063-8.133-4.696.014-5.062z"/><path fill="#4c5c75" d="m35.916 22.2 7.314 4.223c-.273.414-.546.728-.814.473l-8.133-4.695 8.08-4.696.82.473-7.267 4.223z"/><path fill="#1d2943" d="m43.23 26.423-.014 5.062-.814.474.014-5.063z"/><path fill="#4c5c75" d="m9.778 17.978.814-.473 8.132 4.695-8.079 4.695c-.303.15-.566-.093-.817-.471l7.264-4.223-7.314-4.223z"/><path fill="#1d2943" d="m18.724 22.2-.014 5.062-8.079 4.695.014-5.062z"/><path fill="#ffd06c" d="m34.283 22.2 8.133 4.696c-.114.264-.243.395-.406.236l-8.541-4.931 8.486-4.932.408.236-8.08 4.696z"/><path fill="#89703a" d="m42.01 27.132-.014 5.062-8.542-4.931.015-5.062z"/><path fill="#febc1f" d="m42.416 26.896-.014 5.063-.406.235.014-5.062zM19.541 22.2l-.014 5.062-8.486 4.932.014-5.062z"/><path fill="#ffd06c" d="M10.592 17.505 11 17.27l8.542 4.931-8.486 4.932c-.214.206-.34.088-.411-.236l8.08-4.696-8.132-4.695z"/><path fill="#29313f" d="m35.07 31.166-.015 5.062-8.541-4.932.014-5.062z"/><path fill="#1d2943" d="m42.01 27.132-.014 5.062-6.94 4.034.014-5.062c1.842-2.045 4.115-3.45 6.94-4.034z"/><path fill="#4c5c75" d="m41.955 17.27-8.486 4.93 8.541 4.932-6.94 4.034-8.542-4.932-8.486 4.932c-1.474.174-4.316-2.082-6.987-4.034L19.54 22.2l-8.542-4.931 6.941-4.034 8.541 4.932 8.486-4.932 6.988 4.034z"/><path fill="#1d2943" d="m26.528 26.234-.014 5.062-8.486 4.932.014-5.062z"/><path fill="#1d2943" d="m18.042 31.166-.014 5.062-6.988-4.034.015-5.062z"/><path fill="#89703a" d="m34.663 31.402-.015 5.062-8.133-4.695.015-5.062z"/><path fill="#febc1f" d="m35.07 31.166-.015 5.062-.407.236.015-5.062c-.19-.255.042-.282.407-.236zm-16.62.238-.014 5.062-.41-.235.015-5.062c.287-.05.448.008.41.235z"/><path fill="#ffd06c" d="m18.041 31.167 8.487-4.933 8.542 4.932-.407.236-8.133-4.695-8.079 4.695z"/><path fill="#febc1f" d="m26.53 26.707-.015 5.062-8.079 4.695.015-5.062z"/><path fill="#1d2943" d="m34.663 31.402-.015 5.062-.814.473.015-5.062c.052-.328.245-.546.814-.473z"/><path fill="#29313f" d="m33.849 31.875-.015 5.062-7.313-4.222.014-5.062z"/><path fill="#1d2943" d="m19.27 31.875-.014 5.062-.82-.473.015-5.063c.501-.063.783.085.819.474z"/><path fill="#1d2943" d="m26.535 27.653-.014 5.062-7.265 4.222.014-5.062z"/><path fill="#4c5c75" d="m18.451 31.402 8.079-4.695 8.133 4.695-.814.473-7.314-4.222-7.265 4.222z"/><path fill="#898989" d="m33.104 32.308-.014 5.062-6.566-3.791.014-5.062z"/><path fill="#dedffb" d="m33.849 31.875-.015 5.062-.744.433.014-5.062c-.163-.374.163-.475.745-.433z"/><path fill="#f3f1fc" d="m19.269 31.875 7.266-4.222 7.314 4.222-.745.433-6.566-3.79-6.521 3.79c-.254.054-.502-.15-.748-.433z"/><path fill="#dedffb" d="m20.017 32.307-.015 5.062-.748-.432.015-5.062zM26.538 28.517l-.014 5.062-6.522 3.79.015-5.062z"/><path fill="#5ec363" d="m33.102 32.307-.01 5.06-6.52 3.79-6.57-3.79.01-5.06 6.53-3.79z"/><path fill="#50b069" d="m26.582 36.098-.014 5.062-6.566-3.791.015-5.062z"/><path fill="#78e75a" d="m20.017 32.307 6.521-3.79 6.566 3.791-6.522 3.79z"/><path fill="#5ec363" d="m33.104 32.308-.014 5.062-6.522 3.79.014-5.062z"/><path fill="#f3f1fc" d="m37.705 16.299-2.142 1.245-1.048-.606 2.142-1.244zM33.862 18.532l-2.14 1.244-1.048-.605 2.14-1.244zM30.019 20.765l-2.14 1.244-1.048-.605 2.14-1.244zM26.178 22.997l-2.141 1.245-1.048-.605 2.141-1.245zM22.336 25.23l-2.14 1.244-1.048-.605 2.14-1.244zM18.495 27.462l-2.142 1.245-1.048-.605 2.142-1.245z"/><path fill="#f3f1fc" d="M37.705 16.299l-2.142 1.245-1.048-.606 2.142-1.244zM33.862 18.532l-2.14 1.244-1.048-.605 2.14-1.244zM30.019 20.765l-2.14 1.244-1.048-.605 2.14-1.244zM26.178 22.997l-2.141 1.245-1.048-.605 2.141-1.245zM22.336 25.23l-2.14 1.244-1.048-.605 2.14-1.244zM18.495 27.462l-2.142 1.245-1.048-.605 2.142-1.245zM15.305 16.299l2.142 1.245 1.048-.606-2.142-1.244zM19.148 18.532l2.14 1.244 1.048-.605-2.14-1.244zM22.99 20.765l2.14 1.244 1.048-.605-2.14-1.244zM26.831 22.997l2.142 1.245 1.048-.605-2.142-1.245zM30.674 25.23l2.14 1.244 1.048-.605-2.14-1.244zM34.515 27.462l2.142 1.245 1.048-.605-2.142-1.245z"/><path fill="#f8f9fe" d="M11.686 23.04c-1.238 0-2.241 1.057-2.241 2.36 0-1.303-1.004-2.36-2.242-2.36 1.238 0 2.241-1.056 2.241-2.359 0 1.303 1.004 2.359 2.242 2.359z"/><path fill="#dedffb" d="m9.827 26.423-.014 5.062-.751-.432.014-5.062z"/><path fill="#1d2943" d="m10.645 26.895-.014 5.062-.817-.471.014-5.062z"/><path fill="#febc1f" d="m11.055 27.132-.014 5.062-.411-.236.014-5.062z"/></svg>