<?xml version="1.0" encoding="UTF-8"?><svg id="Layer_2" xmlns="http://www.w3.org/2000/svg" xmlns:xlink="http://www.w3.org/1999/xlink" viewBox="0 0 48 39.16"><defs><style>.cls-1{fill:none;}.cls-2{clip-path:url(#clippath);}.cls-3{fill:#00df8a;}.cls-4{fill:#00bf76;}.cls-5{fill:#00b47a;}.cls-6{fill:#007c90;}.cls-7{fill:#ffd06c;}.cls-8{fill:#72d561;}.cls-9{fill:#6ac1ff;}.cls-10{fill:#999;}.cls-11{fill:#7e5af2;}.cls-12{fill:#989898;}.cls-13{fill:#986ff9;}.cls-14{fill:#b5b5b5;}.cls-15{fill:#b8b8b8;}.cls-16{fill:#9e9e9e;}.cls-17{fill:#b4a700;}.cls-18{fill:#b3b3b3;}.cls-19{fill:#8f8f8f;}.cls-20{fill:#858585;}.cls-21{fill:#aa6256;}.cls-22{fill:#b28afd;}.cls-23{fill:#aac1ff;}.cls-24{fill:#b2b2b2;}.cls-25{fill:#bf7d5a;}.cls-26{fill:#cc104a;}.cls-27{fill:#dcdcdc;}.cls-28{fill:#adadad;}.cls-29{fill:#c5c5c5;}.cls-30{fill:#dba660;}.cls-31{fill:#a8a8a8;}.cls-32{fill:#12192a;}.cls-33{fill:#111827;}.cls-34{fill:#111928;}.cls-35{fill:#101624;}.cls-36{fill:#101726;}.cls-37{fill:#162034;}.cls-38{fill:#161f33;}.cls-39{fill:#161f32;}.cls-40{fill:#131b2c;}.cls-41{fill:#131a2b;}.cls-42{fill:#417d31;}.cls-43{fill:#151e30;}.cls-44{fill:#141c2e;}.cls-45{fill:#141d2f;}.cls-46{fill:#0f1523;}.cls-47{fill:#0f1522;}.cls-48{fill:#1d2943;}.cls-49{fill:#438132;}.cls-50{fill:#3e782f;}.cls-51{fill:#0aff94;}.cls-52{fill:#1d0043;}.cls-53{fill:#a3a3a3;}.cls-54{fill:#949494;}.cls-55{fill:#468634;}.cls-56{fill:#898989;}.cls-57{fill:gray;}.cls-58{fill:#54a23f;}.cls-59{fill:#56a641;}.cls-60{fill:#4c5c75;}.cls-61{fill:#488b36;}.cls-62{fill:#5ec363;}.cls-63{fill:#529d3d;}.cls-64{fill:#78e75a;}.cls-65{fill:#4a8f38;}.cls-66{fill:#4f983b;}.cls-67{fill:#4d943a;}.cls-68{clip-path:url(#clippath-1);}.cls-69{clip-path:url(#clippath-4);}.cls-70{clip-path:url(#clippath-3);}.cls-71{clip-path:url(#clippath-2);}.cls-72{clip-path:url(#clippath-7);}.cls-73{clip-path:url(#clippath-8);}.cls-74{clip-path:url(#clippath-6);}.cls-75{clip-path:url(#clippath-5);}.cls-76{clip-path:url(#clippath-9);}.cls-77{clip-path:url(#clippath-20);}.cls-78{clip-path:url(#clippath-21);}.cls-79{clip-path:url(#clippath-24);}.cls-80{clip-path:url(#clippath-23);}.cls-81{clip-path:url(#clippath-22);}.cls-82{clip-path:url(#clippath-25);}.cls-83{clip-path:url(#clippath-27);}.cls-84{clip-path:url(#clippath-28);}.cls-85{clip-path:url(#clippath-26);}.cls-86{clip-path:url(#clippath-29);}.cls-87{clip-path:url(#clippath-30);}.cls-88{clip-path:url(#clippath-31);}.cls-89{clip-path:url(#clippath-14);}.cls-90{clip-path:url(#clippath-13);}.cls-91{clip-path:url(#clippath-12);}.cls-92{clip-path:url(#clippath-10);}.cls-93{clip-path:url(#clippath-15);}.cls-94{clip-path:url(#clippath-17);}.cls-95{clip-path:url(#clippath-16);}.cls-96{clip-path:url(#clippath-19);}.cls-97{clip-path:url(#clippath-11);}.cls-98{clip-path:url(#clippath-18);}</style><clipPath id="clippath"><path class="cls-1" d="M29.5,11.04l-.02,5.88c-3.4-1.15-7.65-1.15-11.04,0l.02-5.88c3.39-1.15,7.64-1.15,11.04,0h0Z"/></clipPath><clipPath id="clippath-1"><path class="cls-1" d="M26.91,11.91l-.02,5.88c-.78-.16-1.56-.26-2.35-.29l.02-5.88c.8,.03,1.59,.13,2.35,.29Z"/></clipPath><clipPath id="clippath-2"><path class="cls-1" d="M26.72,12.22l-.02,5.88c-.72-.15-1.46-.24-2.19-.27l.02-5.88c.75,.03,1.48,.12,2.19,.27Z"/></clipPath><clipPath id="clippath-3"><path class="cls-1" d="M22.17,11.72l-.02,5.88c-.76,.09-1.52,.26-2.25,.49l.02-5.88c.73-.23,1.49-.4,2.25-.49h0Z"/></clipPath><clipPath id="clippath-4"><path class="cls-1" d="M22.29,12.05l-.02,5.88c-.73,.09-1.43,.24-2.09,.45l.02-5.88c.68-.21,1.38-.37,2.09-.45Z"/></clipPath><clipPath id="clippath-5"><path class="cls-1" d="M29.97,13.04l-.02,5.88c-.3-.17-.61-.33-.93-.47l.02-5.88c.33,.14,.64,.3,.93,.47Z"/></clipPath><clipPath id="clippath-6"><path class="cls-1" d="M30.06,18.99s-.08-.05-.12-.07l.02-5.88,.12,.07-.02,5.88Z"/></clipPath><clipPath id="clippath-7"><path class="cls-1" d="M30.06,18.99l.02-5.88c.24,.14,.46,.29,.66,.45l-.02,5.88c-.21-.16-.43-.31-.66-.45Z"/></clipPath><clipPath id="clippath-8"><path class="cls-1" d="M30.28,13.76l-.02,5.88c-.23-.18-.47-.34-.72-.48-.28-.16-.57-.31-.87-.43l.02-5.88c.3,.13,.59,.28,.87,.44,.26,.15,.51,.31,.72,.48Z"/></clipPath><clipPath id="clippath-9"><path class="cls-1" d="M17.98,18.92c-.53,.3-1.01,.68-1.43,1.11v-5.19l.02-.69c.42-.44,.9-.81,1.43-1.11l-.02,5.88Z"/></clipPath><clipPath id="clippath-10"><path class="cls-1" d="M18.41,13.28l-.02,5.88c-.54,.32-.99,.67-1.33,1.04l.02-5.88c.39-.41,.84-.76,1.33-1.04Z"/></clipPath><clipPath id="clippath-11"><path class="cls-1" d="M32.42,22.01c-.07-.49-.25-.95-.52-1.36l.02-5.88c.29,.44,.46,.9,.52,1.36l-.02,5.88Z"/></clipPath><clipPath id="clippath-12"><path class="cls-1" d="M31.86,16.16l-.02,5.88c-.07-.45-.23-.89-.49-1.27l.02-5.88c.27,.41,.43,.84,.49,1.27Z"/></clipPath><clipPath id="clippath-13"><path class="cls-1" d="M34.92,16.53l-.02,5.88c0-1.12-.5-2.24-1.51-3.23l.02-5.88c1.01,.99,1.51,2.11,1.51,3.23h0Z"/></clipPath><clipPath id="clippath-14"><path class="cls-1" d="M15.72,21.35c-.12,.33-.18,.67-.18,1.01l.02-5.88c0-.34,.06-.68,.18-1.01,0,1.76,.29,4.14-.02,5.88Z"/></clipPath><clipPath id="clippath-15"><path class="cls-1" d="M29.41,16.52l-.02,5.88c0-.81-.53-1.61-1.59-2.23-2.11-1.22-5.54-1.22-7.64,0-1.04,.61-1.57,1.4-1.57,2.2l.02-5.88c0-.8,.52-1.59,1.57-2.2,2.1-1.22,5.53-1.22,7.64,0,1.06,.61,1.59,1.42,1.59,2.23Z"/></clipPath><clipPath id="clippath-16"><path class="cls-1" d="M13.08,22.35l.02-5.88c0-1.1,.49-2.19,1.47-3.17l-.02,5.88c-.98,.98-1.47,2.07-1.47,3.17Z"/></clipPath><clipPath id="clippath-17"><path class="cls-1" d="M15.54,22.35l.02-5.88c0,.13,0,.25,.02,.38l-.02,5.88c-.02-.13-.02-.25-.02-.38Z"/></clipPath><clipPath id="clippath-18"><path class="cls-1" d="M31.7,23.33c-.17,.45-.43,.87-.77,1.22l.02-5.88c.34-.35,.6-.76,.77-1.22v5.19c-.01,.21,.02,.48-.02,.69Z"/></clipPath><clipPath id="clippath-19"><path class="cls-1" d="M29.39,22.39c0,.8-.52,1.59-1.57,2.2l.02-5.88c1.04-.61,1.57-1.4,1.57-2.2l-.02,5.88Z"/></clipPath><clipPath id="clippath-20"><path class="cls-1" d="M20.18,24.59c-1.06-.61-1.6-1.42-1.59-2.23l.02-5.88c0,.81,.53,1.61,1.59,2.23l-.02,5.88Z"/></clipPath><clipPath id="clippath-21"><path class="cls-1" d="M32.28,17.52l-.02,5.88c-.18,.49-.46,.93-.82,1.31l.02-5.88c.38-.41,.66-.85,.82-1.31Z"/></clipPath><clipPath id="clippath-22"><path class="cls-1" d="M17.71,25.12c-.42-.32-.79-.7-1.08-1.14l.02-5.88c.26,.4,.62,.78,1.08,1.14l-.02,5.88Z"/></clipPath><clipPath id="clippath-23"><path class="cls-1" d="M17.26,19.44l-.02,5.88c-.45-.34-.85-.75-1.16-1.22l.02-5.88c.28,.43,.67,.84,1.16,1.22Z"/></clipPath><clipPath id="clippath-24"><path class="cls-1" d="M34.92,16.53l-.02,5.88c0,1.1-.49,2.19-1.47,3.17l.02-5.88c.98-.98,1.47-2.07,1.47-3.17Z"/></clipPath><clipPath id="clippath-25"><path class="cls-1" d="M13.08,22.35l.02-5.88c0,1.12,.5,2.24,1.51,3.23l-.02,5.88c-1.01-.99-1.51-2.11-1.51-3.23h0Z"/></clipPath><clipPath id="clippath-26"><path class="cls-1" d="M27.82,24.59c-2.1,1.22-5.53,1.22-7.64,0l.02-5.88c2.11,1.22,5.54,1.22,7.64,0l-.02,5.88h0Z"/></clipPath><clipPath id="clippath-27"><path class="cls-1" d="M29.58,25.6c-.57,.32-1.16,.59-1.79,.78v-5.19l.02-.69c.62-.19,1.22-.45,1.79-.78l-.02,5.88h0Z"/></clipPath><clipPath id="clippath-28"><path class="cls-1" d="M30,19.96l-.02,5.88c-.61,.35-1.25,.63-1.92,.84l.02-5.88c.67-.21,1.31-.49,1.92-.83h0Z"/></clipPath><clipPath id="clippath-29"><path class="cls-1" d="M23.46,26.93l.02-5.88c.75,.03,1.5,0,2.23-.09l-.02,5.88c-.73,.09-1.49,.12-2.23,.09Z"/></clipPath><clipPath id="clippath-30"><path class="cls-1" d="M25.83,21.28l-.02,5.88c-.79,.1-1.59,.13-2.4,.1l.02-5.88c.8,.03,1.61,0,2.4-.1h0Z"/></clipPath><clipPath id="clippath-31"><path class="cls-1" d="M29.56,21.96l-.02,5.88c-3.39,1.15-7.64,1.15-11.04,0l.02-5.88c3.4,1.15,7.65,1.15,11.04,0h0Z"/></clipPath></defs><g id="Layer_1-2"><path class="cls-25" d="M48,19.39l-.02,5.88-23.91,13.89L0,25.27v-5.88L23.93,5.49l.14,.09,23.93,13.81Z"/><path class="cls-3" d="M24.07,5.57V39.16l23.91-13.9,.02-5.88L24.07,5.57Z"/><path class="cls-3" d="M23.93,5.49L.02,19.38l-.02,5.88,24.07,13.9V5.57l-.14-.08Z"/><path class="cls-37" d="M35.76,9.44l-.02,5.88-.81,.47,.02-5.88,.81-.47Z"/><path class="cls-29" d="M36.17,9.67l-.02,5.88-.81,.47,.02-5.88,.81-.47Z"/><path class="cls-27" d="M36.17,9.67l-.81,.47-.41-.24,.81-.47,.41,.24Z"/><path class="cls-56" d="M35.36,10.14l-.02,5.88-.41-.24,.02-5.88,.41,.24Z"/><path class="cls-8" d="M13.92,8.42l-.02,5.88-3.89,2.26,.02-5.88,3.89-2.26Z"/><path class="cls-56" d="M12.59,10.14l-.02,5.88-.82-.47,.02-5.88,.82,.47Z"/><path class="cls-27" d="M13,9.91l-.41,.24-.82-.47,.41-.24,.82,.47Z"/><path class="cls-29" d="M13,9.91l-.02,5.88-.41,.24,.02-5.88,.41-.24Z"/><path class="cls-35" d="M12.59,10.14l-.02,5.88-.82-.47,.02-5.88,.82,.47Z"/><path class="cls-37" d="M13,9.91l-.02,5.88-.41,.24,.02-5.88,.41-.24Z"/><path class="cls-8" d="M34.01,8.42l-.02,5.88-4.51,2.62,.02-5.88,4.51-2.62Z"/><path class="cls-35" d="M34.07,10.89l-.02,5.88-.41-.24,.02-5.88,.41,.24Z"/><path class="cls-62" d="M18.46,11.04l-.02,5.88-4.54-2.62,.02-5.88,4.54,2.62Z"/><g class="cls-2"><g><path class="cls-42" d="M29.5,11.04l-.02,5.88c-.23-.08-.45-.15-.68-.21l.02-5.88c.23,.07,.46,.14,.69,.21"/><path class="cls-49" d="M28.81,10.83l-.02,5.88c-.38-.11-.76-.2-1.14-.28l.02-5.88c.39,.08,.77,.17,1.14,.28"/><path class="cls-55" d="M27.67,10.55l-.02,5.88c-.36-.07-.72-.14-1.08-.19l.02-5.88c.36,.05,.73,.11,1.08,.19"/><path class="cls-61" d="M26.59,10.36l-.02,5.88c-.35-.05-.71-.09-1.06-.12l.02-5.88c.36,.03,.71,.07,1.06,.12"/><path class="cls-65" d="M25.53,10.24l-.02,5.88c-.36-.03-.72-.05-1.08-.06l.02-5.88c.36,.01,.72,.03,1.08,.06"/><path class="cls-67" d="M24.45,10.18l-.02,5.88c-.37,0-.75,0-1.12,0l.02-5.88c.37-.01,.75-.01,1.12,0"/><path class="cls-66" d="M23.33,10.19l-.02,5.88c-.41,.01-.81,.04-1.21,.08l.02-5.88c.4-.04,.81-.07,1.21-.08"/><path class="cls-63" d="M22.12,10.27l-.02,5.88c-.47,.05-.94,.11-1.4,.19l.02-5.88c.46-.08,.93-.15,1.4-.19"/><path class="cls-58" d="M20.71,10.47l-.02,5.88c-.69,.12-1.37,.29-2.04,.51l.02-5.88c.66-.21,1.34-.38,2.04-.51"/><path class="cls-59" d="M18.67,10.97l-.02,5.88c-.07,.02-.15,.05-.22,.07l.02-5.88,.22-.07"/></g></g><path class="cls-37" d="M33.66,10.65l-.02,5.88-1.28,.75,.02-5.88,1.28-.75Z"/><path class="cls-29" d="M34.07,10.89l-.02,5.88-1.28,.75,.02-5.88,1.28-.75Z"/><path class="cls-27" d="M34.07,10.89l-1.28,.75-.41-.24,1.28-.75,.41,.24Z"/><path class="cls-56" d="M32.79,11.64l-.02,5.88-.41-.24,.02-5.88,.41,.24Zm-17.62,0l-.02,5.88-1.29-.75,.02-5.88,1.29,.75Z"/><path class="cls-29" d="M15.58,11.4l-.02,5.88-.41,.24,.02-5.88,.41-.24Z"/><path class="cls-27" d="M15.58,11.4l-.41,.24-1.29-.75,.41-.24,1.29,.75Z"/><path class="cls-37" d="M15.58,11.4l-.02,5.88-.41,.24,.02-5.88,.41-.24Z"/><path class="cls-35" d="M15.17,11.64l-.02,5.88-1.29-.75,.02-5.88,1.29,.75Z"/><g class="cls-68"><g><path class="cls-36" d="M26.91,11.91l-.02,5.88-.07-.02,.02-5.88h.07"/><path class="cls-33" d="M26.84,11.89l-.02,5.88c-.28-.06-.56-.11-.84-.15l.02-5.88c.28,.04,.56,.09,.84,.15"/><path class="cls-34" d="M26,11.75l-.02,5.88c-.27-.04-.55-.07-.82-.09l.02-5.88c.27,.02,.55,.05,.82,.09"/><path class="cls-32" d="M25.18,11.66l-.02,5.88c-.21-.02-.41-.03-.62-.04l.02-5.88c.21,0,.41,.02,.62,.04"/></g></g><path class="cls-34" d="M24.56,11.62l-.02,5.88-.04,.33,.02-5.88,.04-.33Z"/><path class="cls-47" d="M22.29,12.05l-.02,5.88-.12-.33,.02-5.88,.12,.33Z"/><g class="cls-71"><g><path class="cls-19" d="M26.72,12.22l-.02,5.88h-.07l.02-5.89h.07"/><path class="cls-54" d="M26.65,12.21l-.02,5.88c-.26-.05-.52-.1-.78-.14l.02-5.88c.26,.04,.53,.08,.78,.14"/><path class="cls-10" d="M25.87,12.07l-.02,5.88c-.25-.04-.51-.06-.76-.09l.02-5.88c.26,.02,.51,.05,.76,.08"/><path class="cls-16" d="M25.1,11.99l-.02,5.88c-.19-.02-.38-.03-.58-.03l.02-5.88c.19,0,.39,.02,.58,.03"/></g></g><path class="cls-24" d="M26.91,11.91l-.02,5.88-.2,.31,.02-5.88,.2-.31Z"/><g class="cls-70"><g><path class="cls-44" d="M22.17,11.72l-.02,5.88c-.24,.03-.47,.07-.7,.11l.02-5.88c.23-.04,.47-.08,.7-.11"/><path class="cls-45" d="M21.47,11.83l-.02,5.88c-.53,.1-1.05,.22-1.55,.38l.02-5.88c.51-.16,1.02-.29,1.55-.38"/></g></g><path class="cls-35" d="M31.51,12.38l-.02,5.88-.41-.24,.02-5.88,.41,.24Z"/><path class="cls-57" d="M20.2,12.5l-.02,5.88-.28-.29,.02-5.88,.28,.29Z"/><g class="cls-69"><g><path class="cls-28" d="M22.29,12.05l-.02,5.88c-.22,.03-.43,.06-.65,.1l.02-5.88c.21-.04,.43-.07,.65-.1"/><path class="cls-18" d="M21.64,12.15l-.02,5.88c-.5,.09-.98,.21-1.44,.36l.02-5.88c.46-.15,.95-.27,1.44-.36"/></g></g><path class="cls-37" d="M31.1,12.15l-.02,5.88-.81,.47,.02-5.88,.81-.47Z"/><path class="cls-38" d="M29.03,12.57l-.02,5.88-.34,.27,.02-5.88,.34-.27Z"/><path class="cls-27" d="M31.51,12.38l-.81,.47-.41-.24,.81-.47,.41,.24Z"/><path class="cls-29" d="M31.51,12.38l-.02,5.88-.81,.47,.02-5.88,.81-.47Z"/><path class="cls-56" d="M30.69,12.85l-.02,5.88-.41-.24,.02-5.88,.41,.24Zm-13.41,0l-.02,5.88-.82-.47,.02-5.88,.82,.47Z"/><path class="cls-29" d="M17.69,12.62l-.02,5.88-.41,.24,.02-5.88,.41-.24Z"/><path class="cls-37" d="M17.69,12.62l-.02,5.88-.41,.24,.02-5.88,.41-.24Z"/><path class="cls-35" d="M17.28,12.85l-.02,5.88-.82-.47,.02-5.88,.82,.47Z"/><g class="cls-75"><path class="cls-46" d="M29.97,13.04l-.02,5.88c-.3-.17-.61-.33-.93-.47l.02-5.88c.33,.14,.64,.3,.93,.47"/></g><g class="cls-74"><path class="cls-46" d="M30.74,13.55l-.02,5.88c-.25-.19-.51-.36-.78-.51l.02-5.88c.28,.16,.54,.33,.78,.51"/></g><path class="cls-37" d="M37.92,10.68l-.02,5.88-4.51,2.62,.02-5.88,4.51-2.62Z"/><path class="cls-35" d="M18.41,13.28l-.02,5.88-.41-.24,.02-5.88,.41,.23Zm-3.84,.02l-.02,5.88-4.54-2.62,.02-5.88,4.54,2.62Z"/><g class="cls-72"><path class="cls-46" d="M30.74,13.55l-.02,5.88c-.25-.19-.51-.36-.78-.51l.02-5.88c.28,.16,.54,.33,.78,.51"/></g><g class="cls-73"><path class="cls-20" d="M30.28,13.76l-.02,5.88c-.23-.18-.47-.34-.72-.48-.28-.16-.57-.31-.87-.43l.02-5.88c.3,.13,.59,.28,.87,.44,.26,.15,.51,.31,.72,.48"/></g><path class="cls-29" d="M30.74,13.55l-.02,5.88-.46,.2,.02-5.88,.46-.2Z"/><g class="cls-76"><g><path class="cls-43" d="M18,13.05l-.02,5.88s-.07,.04-.11,.07l.02-5.88,.11-.07"/><path class="cls-45" d="M17.89,13.11l-.02,5.88c-.38,.23-.73,.49-1.06,.79l.02-5.88c.3-.28,.65-.54,1.06-.79"/><path class="cls-44" d="M16.83,13.9l-.02,5.88c-.09,.09-.18,.17-.26,.26l.02-5.88c.08-.09,.17-.18,.26-.26"/></g></g><path class="cls-27" d="M18,13.05l.41,.24c-.54,.32-.99,.67-1.33,1.04l-.51-.16c.42-.44,.9-.81,1.43-1.12Z"/><g class="cls-92"><g><path class="cls-15" d="M18.41,13.28l-.02,5.88-.1,.06,.02-5.88,.1-.06"/><path class="cls-18" d="M18.31,13.34l-.02,5.88c-.38,.23-.71,.48-.99,.74l.02-5.88c.28-.26,.61-.51,.99-.74"/><path class="cls-28" d="M17.32,14.08l-.02,5.88c-.09,.08-.17,.16-.25,.25l.02-5.88c.08-.08,.16-.17,.25-.25"/></g></g><path class="cls-12" d="M17.08,14.32l-.02,5.88-.51-.16,.02-5.88,.51,.16Z"/><path class="cls-39" d="M31.91,14.77l-.02,5.88-.54,.12,.02-5.88,.54-.12Z"/><path class="cls-40" d="M16.31,15.54l-.02,5.88-.57-.07,.02-5.88,.57,.07Z"/><g class="cls-97"><path class="cls-46" d="M32.43,16.13l-.02,5.88c-.07-.49-.25-.95-.52-1.36l.02-5.88c.29,.44,.46,.9,.52,1.36"/></g><path class="cls-27" d="M31.91,14.77c.29,.44,.46,.9,.52,1.36l-.57,.02c-.07-.45-.23-.89-.49-1.27l.54-.12Z"/><path class="cls-14" d="M32.43,16.13l-.02,5.88-.57,.02,.02-5.88,.57-.03Z"/><g class="cls-91"><path class="cls-20" d="M31.86,16.16l-.02,5.88c-.07-.45-.23-.89-.49-1.27l.02-5.88c.27,.41,.43,.84,.49,1.27"/></g><g class="cls-90"><path class="cls-50" d="M34.92,16.53l-.02,5.88c0-1.12-.5-2.24-1.51-3.23l.02-5.88c1.01,.99,1.51,2.11,1.51,3.23"/></g><g class="cls-89"><g><path class="cls-32" d="M15.74,15.47l-.02,5.88c-.05,.15-.1,.3-.13,.45l.02-5.88c.03-.15,.07-.3,.13-.45"/><path class="cls-34" d="M15.61,15.92l-.02,5.88c-.03,.16-.05,.32-.06,.48l.02-5.88c0-.16,.02-.32,.06-.48"/><path class="cls-33" d="M15.56,16.4l-.02,5.88v.08l.02-5.88s0-.05,0-.08"/></g></g><g class="cls-93"><g><path class="cls-46" d="M29.41,16.52l-.02,5.88c0-.81-.53-1.61-1.59-2.23-.25-.14-.51-.27-.78-.37l.02-5.88c.27,.11,.53,.23,.78,.37,1.06,.61,1.59,1.42,1.59,2.23"/><path class="cls-35" d="M27.04,13.92l-.02,5.88c-.21-.08-.43-.16-.66-.22l.02-5.88c.23,.06,.44,.14,.66,.22"/><path class="cls-36" d="M26.39,13.69l-.02,5.88c-.19-.05-.37-.1-.56-.14l.02-5.88c.19,.04,.38,.08,.56,.14"/><path class="cls-33" d="M25.82,13.56l-.02,5.88c-.18-.04-.36-.07-.54-.09l.02-5.88c.18,.03,.36,.06,.54,.09"/><path class="cls-34" d="M25.29,13.46l-.02,5.88c-.17-.02-.35-.04-.53-.06l.02-5.88c.18,.01,.35,.03,.53,.06"/><path class="cls-32" d="M24.76,13.4l-.02,5.88c-.18-.01-.36-.02-.53-.03l.02-5.88c.18,0,.36,.01,.53,.03"/><path class="cls-41" d="M24.23,13.38l-.02,5.88c-.18,0-.37,0-.56,0l.02-5.88c.18,0,.37,0,.56,0"/><path class="cls-40" d="M23.67,13.38l-.02,5.88c-.2,0-.4,.02-.6,.04l.02-5.88c.2-.02,.4-.03,.6-.04"/><path class="cls-44" d="M23.07,13.42l-.02,5.88c-.23,.02-.46,.05-.69,.1l.02-5.88c.23-.04,.46-.07,.69-.1"/><path class="cls-45" d="M22.38,13.51l-.02,5.88c-.35,.06-.69,.15-1.02,.25l.02-5.88c.33-.11,.67-.19,1.02-.25"/><path class="cls-43" d="M21.36,13.77l-.02,5.88c-.43,.14-.85,.33-1.25,.56l.02-5.88,.07-.04c.37-.21,.77-.39,1.18-.52"/><path class="cls-45" d="M20.11,14.33l-.02,5.88c-.24,.14-.47,.31-.68,.5l.02-5.88c.19-.18,.42-.35,.68-.5"/><path class="cls-44" d="M19.43,14.83l-.02,5.88c-.12,.11-.23,.23-.33,.36l.02-5.88c.1-.12,.21-.24,.33-.36"/><path class="cls-40" d="M19.09,15.19l-.02,5.88c-.08,.1-.15,.21-.22,.32l.02-5.88c.06-.11,.13-.22,.22-.32"/><path class="cls-41" d="M18.88,15.51l-.02,5.88c-.06,.1-.1,.2-.14,.31l.02-5.88c.04-.1,.09-.21,.14-.31"/><path class="cls-32" d="M18.73,15.82l-.02,5.88c-.04,.1-.07,.2-.09,.31l.02-5.88c.02-.1,.05-.2,.09-.31"/><path class="cls-34" d="M18.64,16.13l-.02,5.88c-.02,.1-.03,.21-.04,.31l.02-5.88c0-.1,.01-.21,.03-.31"/><path class="cls-33" d="M18.61,16.44l-.02,5.88v.05l.02-5.88v-.05"/></g></g><g class="cls-95"><g><path class="cls-63" d="M14.57,13.3l-.02,5.88c-.18,.18-.34,.36-.5,.56l.02-5.88c.15-.19,.31-.37,.5-.56"/><path class="cls-66" d="M14.07,13.86l-.02,5.88c-.17,.21-.31,.43-.44,.65l.02-5.88c.12-.22,.27-.44,.44-.65"/><path class="cls-67" d="M13.63,14.51l-.02,5.88c-.11,.2-.21,.41-.29,.62l.02-5.88c.08-.21,.18-.42,.29-.62"/><path class="cls-65" d="M13.34,15.13l-.02,5.88c-.08,.2-.13,.41-.18,.62l.02-5.88c.04-.21,.1-.41,.18-.62"/><path class="cls-61" d="M13.17,15.75l-.02,5.88c-.04,.21-.07,.42-.07,.63l.02-5.88c0-.21,.03-.42,.07-.63"/><path class="cls-55" d="M13.09,16.37l-.02,5.88v-5.78l.02-.1"/></g></g><g class="cls-94"><path class="cls-20" d="M15.58,16.86l-.02,5.88c-.02-.13-.02-.25-.02-.38l.02-5.88c0,.13,0,.25,.02,.38"/></g><path class="cls-14" d="M16.16,16.83l-.02,5.88-.58,.02,.02-5.88,.58-.02Z"/><path class="cls-40" d="M32.28,17.52l-.02,5.88-.56-.07,.02-5.88,.56,.07Z"/><path class="cls-39" d="M16.64,18.1l-.02,5.88-.54,.12,.02-5.88,.54-.12Z"/><g class="cls-98"><g><path class="cls-32" d="M31.72,17.45l-.02,5.88v-5.84l.02-.03"/><path class="cls-41" d="M31.7,17.49l-.02,5.88c-.06,.15-.13,.3-.21,.44l.02-5.88c.08-.15,.15-.29,.21-.44"/><path class="cls-40" d="M31.49,17.93l-.02,5.88c-.09,.16-.19,.32-.32,.47l.02-5.88c.12-.15,.23-.31,.32-.47"/><path class="cls-44" d="M31.18,18.4l-.02,5.88c-.07,.09-.15,.18-.23,.27l.02-5.88c.08-.09,.16-.18,.23-.27"/></g></g><g class="cls-96"><g><path class="cls-55" d="M29.41,16.52l-.02,5.88v.05l.02-5.88v-.05"/><path class="cls-61" d="M29.41,16.56l-.02,5.88c0,.1-.01,.21-.03,.31l.02-5.88c.02-.1,.03-.21,.03-.31"/><path class="cls-65" d="M29.37,16.87l-.02,5.88c-.02,.1-.05,.2-.09,.31l.02-5.88c.04-.1,.07-.2,.09-.31"/><path class="cls-67" d="M29.29,17.18l-.02,5.88c-.04,.11-.09,.21-.14,.31l.02-5.88c.06-.1,.1-.2,.14-.31"/><path class="cls-66" d="M29.14,17.49l-.02,5.88c-.06,.11-.13,.22-.22,.32l.02-5.88c.08-.11,.16-.21,.22-.32"/><path class="cls-63" d="M28.92,17.81l-.02,5.88c-.1,.13-.21,.25-.33,.36l.02-5.88c.12-.11,.23-.23,.33-.36"/><path class="cls-58" d="M28.59,18.17l-.02,5.88c-.19,.18-.42,.35-.68,.5l.02-5.88c.26-.16,.49-.33,.68-.5"/><path class="cls-59" d="M27.91,18.68l-.02,5.88c-.39,.23-.81,.42-1.25,.56l.02-5.88c.44-.14,.85-.33,1.25-.56"/></g></g><g class="cls-77"><path class="cls-50" d="M20.98,19.09l-.02,5.88c-.27-.11-.53-.23-.78-.37-1.06-.61-1.6-1.42-1.59-2.23l.02-5.88c0,.81,.53,1.61,1.59,2.23,.24,.14,.5,.26,.78,.37"/></g><path class="cls-12" d="M31.46,18.83l-.02,5.88-.51-.16,.02-5.88,.51,.16Z"/><g class="cls-78"><g><path class="cls-16" d="M32.28,17.52l-.02,5.88v-5.84l.02-.03"/><path class="cls-53" d="M32.27,17.56l-.02,5.88c-.06,.16-.14,.32-.22,.48l.02-5.88c.09-.16,.17-.32,.23-.48"/><path class="cls-31" d="M32.04,18.04l-.02,5.88c-.1,.17-.21,.34-.34,.5l.02-5.88c.13-.17,.24-.33,.34-.5"/><path class="cls-28" d="M31.7,18.54l-.02,5.88c-.08,.1-.16,.2-.25,.29l.02-5.88c.09-.09,.17-.19,.25-.29"/></g></g><g class="cls-81"><path class="cls-46" d="M17.72,19.24l-.02,5.88c-.42-.32-.79-.7-1.08-1.14l.02-5.88c.26,.4,.62,.78,1.08,1.14"/></g><path class="cls-27" d="M16.1,18.22l.54-.12c.26,.4,.62,.78,1.08,1.14l-.46,.2c-.45-.34-.85-.75-1.16-1.22Z"/><g class="cls-80"><path class="cls-20" d="M17.26,19.44l-.02,5.88c-.45-.34-.85-.75-1.16-1.22l.02-5.88c.28,.43,.67,.84,1.16,1.22"/></g><path class="cls-29" d="M17.72,19.24l-.02,5.88-.46,.2,.02-5.88,.46-.2Z"/><g class="cls-79"><g><path class="cls-33" d="M34.92,16.53l-.02,5.88v-5.78l.02-.1"/><path class="cls-34" d="M34.92,16.63l-.02,5.88c0,.21-.03,.42-.07,.63l.02-5.88c.04-.21,.07-.42,.07-.63"/><path class="cls-32" d="M34.85,17.26l-.02,5.88c-.04,.21-.1,.41-.18,.62l.02-5.88c.08-.2,.13-.41,.18-.62"/><path class="cls-41" d="M34.67,17.87l-.02,5.88c-.08,.21-.18,.42-.29,.62l.02-5.88c.11-.2,.21-.41,.29-.62"/><path class="cls-40" d="M34.38,18.49l-.02,5.88c-.13,.23-.28,.44-.44,.65l.02-5.88c.16-.21,.31-.42,.44-.65"/><path class="cls-44" d="M33.95,19.14l-.02,5.88c-.15,.19-.31,.38-.5,.56l.02-5.88c.18-.18,.35-.37,.5-.56"/></g></g><path class="cls-37" d="M29.62,19.71l-.02,5.88h-.02l.02-5.86h.02Z"/><g class="cls-82"><path class="cls-46" d="M14.6,19.7l-.02,5.88c-1.01-.99-1.51-2.11-1.51-3.23l.02-5.88c0,1.12,.5,2.24,1.51,3.23"/></g><path class="cls-35" d="M30.03,19.95l-.02,5.88-.41-.24,.02-5.88,.41,.24Z"/><g class="cls-85"><g><path class="cls-59" d="M27.91,18.68l-.02,5.88c-.39,.23-.81,.42-1.25,.56l.02-5.88c.44-.14,.85-.33,1.25-.56"/><path class="cls-58" d="M26.66,19.23l-.02,5.88c-.33,.11-.68,.19-1.02,.25l.02-5.88c.35-.06,.69-.15,1.02-.25"/><path class="cls-63" d="M25.64,19.49l-.02,5.88c-.23,.04-.46,.07-.69,.1l.02-5.88c.23-.02,.46-.06,.69-.1"/><path class="cls-66" d="M24.95,19.58l-.02,5.88c-.2,.02-.4,.03-.6,.04l.02-5.88c.2,0,.4-.02,.6-.04"/><path class="cls-67" d="M24.35,19.62l-.02,5.88c-.18,0-.37,0-.56,0l.02-5.88c.18,0,.37,0,.56,0"/><path class="cls-65" d="M23.79,19.63l-.02,5.88c-.18,0-.36-.01-.53-.03l.02-5.88c.18,.01,.35,.02,.53,.03"/><path class="cls-61" d="M23.26,19.6l-.02,5.88c-.18-.01-.35-.03-.53-.06l.02-5.88c.17,.02,.35,.04,.53,.06"/><path class="cls-55" d="M22.73,19.54l-.02,5.88c-.18-.03-.36-.06-.54-.09l.02-5.88c.18,.04,.36,.07,.54,.09"/><path class="cls-49" d="M22.19,19.45l-.02,5.88c-.19-.04-.38-.09-.56-.14l.02-5.88c.18,.05,.37,.1,.56,.14"/><path class="cls-42" d="M21.63,19.31l-.02,5.88c-.22-.06-.44-.14-.66-.22l.02-5.88c.21,.08,.43,.16,.66,.22"/><path class="cls-50" d="M20.98,19.09l-.02,5.88c-.27-.11-.53-.23-.78-.37-1.06-.61-1.6-1.42-1.59-2.23l.02-5.88c0,.81,.53,1.61,1.59,2.23,.24,.14,.5,.26,.78,.37"/></g></g><path class="cls-29" d="M30.03,19.95l-.02,5.88h-.02l.02-5.86h.02Z"/><path class="cls-35" d="M17.73,20.38l-.02,5.88-.41-.24,.02-5.88,.41,.24Z"/><g class="cls-83"><g><path class="cls-43" d="M29.59,19.73l-.02,5.88c-.56,.32-1.14,.58-1.76,.77l.02-5.88c.61-.19,1.2-.45,1.76-.77"/><path class="cls-45" d="M27.84,20.49l-.02,5.88h-.03l.02-5.87h.03"/></g></g><path class="cls-37" d="M17.32,20.15l-.02,5.88-.81,.47,.02-5.88,.81-.47Z"/><g class="cls-84"><g><path class="cls-15" d="M30,19.96l-.02,5.88c-.6,.34-1.23,.62-1.89,.83l.02-5.88c.66-.21,1.29-.48,1.89-.83"/><path class="cls-18" d="M28.11,20.79l-.02,5.88h-.03l.02-5.87h.03"/></g></g><path class="cls-57" d="M28.08,20.8l-.02,5.88-.28-.29,.02-5.88,.28,.29Z"/><path class="cls-29" d="M31.55,20.62l-.02,5.88-.41,.24,.02-5.88,.41-.24Z"/><path class="cls-56" d="M31.15,20.86l-.02,5.88-.82-.47,.02-5.88,.82,.47Z"/><path class="cls-35" d="M31.15,20.86l-.02,5.88-.82-.47,.02-5.88,.82,.47Z"/><path class="cls-37" d="M31.55,20.62l-.02,5.88-.41,.24,.02-5.88,.41-.24Z"/><path class="cls-29" d="M17.73,20.38l-.02,5.88-.81,.47,.02-5.88,.81-.47Z"/><path class="cls-27" d="M17.73,20.38l-.81,.47-.41-.24,.81-.47,.41,.24Z"/><path class="cls-56" d="M16.92,20.86l-.02,5.88-.41-.24,.02-5.88,.41,.24Z"/><g class="cls-86"><g><path class="cls-44" d="M25.71,20.96l-.02,5.88c-.11,.01-.23,.03-.35,.04l.02-5.88c.12-.01,.23-.02,.35-.04"/><path class="cls-40" d="M25.36,21l-.02,5.88c-.29,.03-.58,.05-.87,.06l.02-5.88c.29-.01,.58-.03,.87-.06"/><path class="cls-41" d="M24.49,21.05l-.02,5.88c-.27,0-.53,0-.8,0l.02-5.88c.27,0,.53,0,.8,0"/><path class="cls-32" d="M23.7,21.06l-.02,5.88c-.07,0-.15,0-.22,0l.02-5.88c.07,0,.15,0,.22,0"/></g></g><path class="cls-47" d="M25.83,21.28l-.02,5.88-.12-.33,.02-5.88,.12,.33Z"/><path class="cls-34" d="M23.48,21.05l-.02,5.88-.04,.33,.02-5.88,.04-.33Z"/><g class="cls-87"><g><path class="cls-28" d="M25.83,21.28l-.02,5.88c-.12,.01-.25,.03-.37,.04l.02-5.88c.12-.01,.25-.03,.37-.04"/><path class="cls-31" d="M25.46,21.33l-.02,5.88c-.31,.03-.62,.05-.93,.06l.02-5.88c.31-.01,.62-.03,.93-.06"/><path class="cls-53" d="M24.54,21.39l-.02,5.88c-.29,0-.58,.01-.86,0l.02-5.88c.29,0,.58,0,.86,0"/><path class="cls-16" d="M23.67,21.39l-.02,5.88c-.08,0-.16,0-.24,0l.02-5.88c.08,0,.16,0,.24,0"/></g></g><path class="cls-35" d="M15.64,21.6l-.02,5.88-.41-.24,.02-5.88,.41,.24Z"/><path class="cls-8" d="M14.6,19.7l-.02,5.88-4.51,2.62,.02-5.88,4.51-2.62Z"/><path class="cls-37" d="M15.23,21.37l-.02,5.88-1.28,.75,.02-5.88,1.28-.75Z"/><path class="cls-62" d="M37.99,22.32l-.02,5.88-4.54-2.62,.02-5.88,4.54,2.62Z"/><path class="cls-29" d="M34.14,22.11l-.02,5.88-.41,.24,.02-5.88,.41-.24Z"/><path class="cls-56" d="M33.73,22.35l-.02,5.88-1.29-.74,.02-5.88,1.29,.74Z"/><path class="cls-37" d="M34.14,22.11l-.02,5.88-.41,.24,.02-5.88,.41-.24Z"/><path class="cls-35" d="M33.73,22.35l-.02,5.88-1.29-.74,.02-5.88,1.29,.75Z"/><path class="cls-29" d="M15.64,21.6l-.02,5.88-1.28,.75,.02-5.88,1.28-.75Z"/><path class="cls-56" d="M14.35,22.35l-.02,5.88-.41-.24,.02-5.88,.41,.24Z"/><path class="cls-27" d="M15.64,21.6l-1.28,.75-.41-.24,1.28-.75,.41,.24Z"/><path class="cls-37" d="M35.43,22.86l-.02,5.88-.41,.24,.02-5.88,.41-.24Z"/><path class="cls-35" d="M36.25,23.33l-.02,5.88-.82-.47,.02-5.88,.82,.47Z"/><path class="cls-56" d="M35.84,23.57l-.02,5.88-.82-.47,.02-5.88,.82,.47Z"/><path class="cls-48" d="M36.25,23.33l-.82-.47-.41,.24,.82,.47-1.74,1.01-4.54-2.62c-3.39,1.15-7.64,1.15-11.04,0l-4.51,2.62-1.75-1.01,.81-.47-.41-.24-.81,.47-1.75-1.01,4.51-2.62c-2-1.97-2.01-4.43-.03-6.4l-4.54-2.62,3.89-2.26,4.54,2.62c3.39-1.15,7.64-1.15,11.04,0l4.51-2.62,1.75,1.01-.81,.47,.41,.24,.81-.47,1.75,1.01-4.51,2.62c2,1.97,2.01,4.43,.03,6.4l4.54,2.62-1.74,1.01h0Zm-16.05-4.61c2.11,1.22,5.54,1.22,7.64,0,2.1-1.22,2.09-3.21-.02-4.43-2.11-1.22-5.54-1.22-7.64,0-2.1,1.22-2.09,3.21,.02,4.43m-4.62-1.86l.58-.02c-.06-.44,0-.88,.15-1.3l-.57-.07c-.17,.44-.22,.92-.16,1.39m7.86,4.53c.8,.03,1.61,0,2.4-.1l-.12-.33c-.73,.09-1.49,.12-2.23,.09l-.04,.33m3.48-9.48c-.77-.16-1.56-.26-2.35-.29l-.04,.33c.75,.03,1.48,.12,2.19,.27l.2-.31m4.99,2.87l-.54,.12c.27,.41,.43,.84,.49,1.27l.57-.02c-.07-.49-.25-.95-.52-1.36m-.19,2.68c-.17,.45-.43,.87-.77,1.22l.51,.16c.38-.41,.66-.85,.82-1.31l-.56-.07m-9.55-5.73c-.76,.09-1.52,.26-2.25,.49l.28,.29c.68-.21,1.38-.37,2.09-.45l-.12-.33m-3.19,8.7c.66,.28,1.37,.51,2.11,.67l.2-.31c-.68-.14-1.34-.35-1.97-.62l-.34,.27m-1.71-.98l.46-.2c-.42-.32-.79-.7-1.08-1.14l-.54,.12c.28,.43,.67,.84,1.16,1.22m12.74,.52h.02l-.41-.25h-.02c-.57,.34-1.17,.6-1.79,.79l.28,.29c.67-.21,1.31-.49,1.92-.83m-13.44-5.8l.51,.16c.39-.41,.84-.76,1.33-1.04l-.41-.24c-.53,.3-1.01,.68-1.43,1.11m13.4-1.12c-.3-.17-.61-.33-.93-.47l-.34,.27c.3,.13,.59,.28,.87,.44,.26,.15,.51,.31,.72,.48l.46-.2c-.25-.19-.51-.36-.78-.51m-15.61,9.31l1.28-.75-.41-.24-1.28,.75,.41,.24m19.31-11.7l-1.28,.75,.41,.24,1.28-.75-.41-.24m-2.57,1.49l-.81,.47,.41,.24,.81-.47-.41-.24m-14.18,8.71l.81-.47-.41-.24-.81,.47,.41,.24"/><path class="cls-27" d="M15.17,11.64l-1.29-.75,.41-.24,1.29,.75-.41,.24Zm11.55,.59c-.72-.15-1.46-.24-2.19-.27l.04-.33c.8,.03,1.59,.13,2.35,.29l-.2,.31h0Zm-4.43-.18c-.73,.09-1.43,.24-2.09,.45l-.28-.29c.71-.23,1.47-.39,2.25-.49l.12,.33Zm-4.6,.57l-.41,.24-.82-.47,.41-.24,.82,.47Zm12.28,.42c.28,.16,.54,.33,.78,.51l-.46,.2c-.23-.18-.47-.34-.72-.48-.28-.16-.57-.31-.87-.44l.34-.27c.33,.14,.64,.3,.93,.47Zm-13.66,2.5c-.15,.41-.21,.86-.15,1.3l-.57,.02c-.06-.47,0-.95,.16-1.39l.56,.07Zm15.97,1.99c-.18,.49-.46,.93-.82,1.31l-.51-.16c.34-.35,.6-.76,.77-1.22l.56,.07h0Z"/><path class="cls-3" d="M20.17,14.29c2.1-1.22,5.53-1.22,7.64,0,2.11,1.22,2.12,3.21,.02,4.43-2.1,1.22-5.53,1.22-7.64,0-2.11-1.22-2.12-3.21-.02-4.43Z"/><path class="cls-27" d="M29.62,19.71l.41,.24h-.02c-.61,.36-1.25,.64-1.92,.85l-.28-.29c.62-.19,1.22-.45,1.79-.78h.02Zm1.94,.9l-.41,.24-.82-.47,.41-.24,.82,.47Zm-12.24-.46c.63,.27,1.29,.48,1.97,.62l-.2,.31c-.72-.15-1.43-.38-2.11-.67l.35-.27Zm4.16,.89c.75,.03,1.5,0,2.23-.09l.12,.33c-.79,.1-1.59,.13-2.4,.1l.04-.33h0Zm10.66,1.06l-.41,.24-1.29-.75,.41-.24,1.29,.75Z"/><path class="cls-23" d="M14.57,13.3c-1.98,1.97-1.97,4.43,.03,6.4l-4.51,2.62C6.04,26.11,2.98,21.74,.02,16.5L23.93,2.6l10.08,5.82-4.51,2.62c-3.4-1.15-7.65-1.15-11.04,0l-4.54-2.62-3.89,2.26,4.54,2.62h0Z"/><g class="cls-88"><g><path class="cls-43" d="M29.56,21.96l-.02,5.88c-.07,.02-.14,.05-.22,.07l.02-5.88c.07-.02,.15-.05,.22-.07"/><path class="cls-45" d="M29.34,22.03l-.02,5.88c-.66,.21-1.34,.38-2.04,.51l.02-5.88c.69-.12,1.37-.29,2.04-.51"/><path class="cls-44" d="M27.3,22.54l-.02,5.88c-.46,.08-.93,.15-1.4,.19l.02-5.88c.47-.05,.94-.11,1.4-.19"/><path class="cls-40" d="M25.9,22.73l-.02,5.88c-.4,.04-.81,.07-1.21,.08l.02-5.88c.41-.01,.81-.04,1.21-.08"/><path class="cls-41" d="M24.69,22.81l-.02,5.88c-.37,.01-.75,.01-1.12,0l.02-5.88c.37,.01,.75,0,1.12,0"/><path class="cls-32" d="M23.57,22.82l-.02,5.88c-.36,0-.72-.03-1.08-.06l.02-5.88c.36,.03,.72,.05,1.08,.06"/><path class="cls-34" d="M22.49,22.76l-.02,5.88c-.36-.03-.71-.07-1.06-.12l.02-5.88c.35,.05,.71,.09,1.06,.12"/><path class="cls-33" d="M21.43,22.64l-.02,5.88c-.36-.05-.72-.11-1.08-.19l.02-5.88c.36,.07,.72,.14,1.08,.19"/><path class="cls-36" d="M20.35,22.45l-.02,5.88c-.38-.08-.77-.17-1.15-.28l.02-5.88c.37,.11,.76,.2,1.14,.28"/><path class="cls-35" d="M19.2,22.17l-.02,5.88c-.23-.07-.46-.14-.68-.21l.02-5.88c.23,.08,.45,.15,.69,.21"/></g></g><path class="cls-37" d="M37.99,22.32l-.02,5.88-1.74,1.01,.02-5.88,1.74-1.01Z"/><path class="cls-29" d="M36.25,23.33l-.02,5.88-.41,.24,.02-5.88,.41-.24Z"/><path class="cls-27" d="M36.25,23.33l-.41,.24-.82-.47,.41-.24,.82,.47Zm-23.18-.24l-.81,.47-.41-.24,.81-.47,.41,.24Z"/><path class="cls-37" d="M35.84,23.57l-.02,5.88-1.74,1.01,.02-5.88,1.74-1.01Z"/><path class="cls-35" d="M34.1,24.58l-.02,5.88-4.54-2.62,.02-5.88,4.54,2.62Z"/><path class="cls-37" d="M18.52,21.96l-.02,5.88-4.51,2.62,.02-5.88,4.51-2.62Z"/><path class="cls-62" d="M48,16.51l-.02,5.87-23.91,13.9-9.93-5.73-.15-.09L0,22.38v-5.88l14.01,8.09h0l4.51-2.63c3.4,1.16,7.65,1.16,11.04,0l4.54,2.62,2.14-1.24,1.74-1.02-4.53-2.62c1.98-1.96,1.96-4.43-.04-6.39l4.51-2.62,10.08,5.82Z"/><path class="cls-9" d="M48,16.5l-.02,5.88-23.91,13.9,.02-5.88,23.91-13.9Z"/><path class="cls-23" d="M37.92,10.68l10.08,5.82-23.91,13.9-10.08-5.82,4.51-2.62c3.4,1.15,7.65,1.15,11.04,0l4.54,2.62,1.74-1.01,.41-.24,1.74-1.01-4.54-2.62c1.98-1.97,1.97-4.43-.03-6.4l4.51-2.62h0Z"/><path class="cls-9" d="M24.09,30.4l-.02,5.88-10.08-5.82,.02-5.88,10.08,5.82Z"/><path class="cls-9" d="M14.16,24.67l-.02,5.88L0,22.38l.02-5.88,14.14,8.17Z"/><path class="cls-27" d="M13,9.91l-.41,.24-.82-.47,.41-.24,.82,.47Z"/><path class="cls-8" d="M29.56,.97l-.96,1.44-4.07,2.35v-1.71l-.59-.34L28.02,.35l.97,.28,.58,.34Z"/><path class="cls-62" d="M28.6,.69l-.58-.34,.97,.28,.58,.34-.97-.28Zm-4.07,4.06l-.58-.34v-1.71l.58,.34v1.71Z"/><path class="cls-64" d="M24.53,3.04l-.58-.34L28.02,.35l.58,.34-4.07,2.35Z"/><path class="cls-17" d="M28.6,.69l.97,.28-.96,1.44-4.07,2.35v-1.71L28.6,.69Z"/><path class="cls-21" d="M25.95,15.31v.99c0,.3-.23,.62-.62,.84-.78,.45-2.05,.45-2.84,0-.4-.23-.56-.55-.56-.85v-.99c0,.3,4.01,.31,4.01,.01Z"/><ellipse class="cls-30" cx="23.94" cy="15.31" rx="1.16" ry="2.01" transform="translate(8.57 39.21) rotate(-89.84)"/><path class="cls-48" d="M25.34,13.02l-.03,2.16c0,.21-.14,.41-.41,.57-.54,.32-1.43,.32-1.98,0-.28-.16-.41-.37-.41-.58l.03-2.16c0,.21,2.8,.21,2.8,0Z"/><ellipse class="cls-60" cx="23.94" cy="13.01" rx=".81" ry="1.4" transform="translate(10.86 36.92) rotate(-89.84)"/><path class="cls-52" d="M24.62,.54V12.9c-.01,.1-.08,.2-.21,.28-.27,.16-.71,.16-.98,0-.14-.08-.2-.18-.2-.28V.53c.01,.1,.08,.21,.22,.29,.27,.16,.71,.16,.98,0,.13-.08,.2-.18,.2-.28h0Z"/><path class="cls-60" d="M24.42,.25c.27,.16,.27,.41,0,.57-.27,.16-.71,.16-.98,0-.65-.37,.32-.94,.97-.57Z"/><path class="cls-26" d="M24.97,1.05c0,.55-.45,1.04-1.05,1.04s-1.04-.47-1.04-1.04c0-.61,.5-1.05,1.04-1.05,.58,0,1.05,.47,1.05,1.05Z"/><path class="cls-4" d="M24.97,1.05c0,.55-.45,1.04-1.05,1.04s-1.04-.47-1.04-1.04c0-.61,.5-1.05,1.04-1.05,.58,0,1.05,.47,1.05,1.05Z"/><path class="cls-13" d="M23.97,5.08l-4.07,2.35-.97-.32-.58-.34,.96-1.39,4.07-2.35,.58,.34v1.71Z"/><path class="cls-22" d="M19.89,5.72l-.58-.34,4.07-2.35,.58,.34-4.07,2.35Z"/><path class="cls-11" d="M18.93,7.11l-.58-.34,.96-1.39,.58,.34-.96,1.39Z"/><path class="cls-13" d="M23.96,3.37v1.71l-4.07,2.35-.97-.32,.96-1.39,4.07-2.35Z"/><path class="cls-7" d="M29.58,9.13l-.58,.34-.97,.32-4.07-2.35v-1.71l.59-.34,4.07,2.35,.96,1.39Z"/><path class="cls-6" d="M28.04,8.08l.58-.34-4.07-2.35-.58,.34,4.07,2.35Z"/><path class="cls-5" d="M29.01,9.47l.58-.34-.96-1.39-.58,.34,.96,1.39Z"/><path class="cls-51" d="M23.97,5.73v1.71l4.07,2.35,.97-.32-.96-1.39-4.07-2.35Z"/></g></svg>