<svg xmlns="http://www.w3.org/2000/svg" viewBox="0 0 52 52"><path fill="#dedffb" d="M21.109 2.469 6.735 10.822l-.141 27.791 14.453 8.344 14.373-8.353.141-27.791z"/><path fill="#dedffb" d="m35.561 10.813-.141 27.791-14.373 8.353.14-27.791z"/><path fill="#e9e7fc" d="m21.187 19.166-.14 27.791-14.453-8.344.141-27.791z"/><path fill="#f3f1fc" d="m35.561 10.813-14.374 8.353-14.452-8.344 14.374-8.353z"/><path fill="#dedffb" d="m8.844 13.447-.899-.519v25.06l.899-.518z"/><path fill="#fff" d="M19.969 43.883 8.844 37.47l-.899.518 12.024 6.932z"/><path fill="#4c5c75" d="M8.844 13.447V37.47l11.125 6.413V19.872z"/><path fill="#78e75a" d="m14.064 23.323 1.451.833v-.67l-1.451-.838zM16.261 22.395l-2.596-1.498v.676l2.596 1.497zM14.7 20.649l2.301 1.33v-.675l-2.295-1.324zM11.849 19.845l-.005.675 1.381.798v-.675zM13.335 22.226l-3.376-1.949v.67l3.376 1.954zM11.445 18.77l2.914 1.682v-.675l-2.914-1.682zM9.965 17.914l1.202.694v-.675l-1.202-.694zM9.959 19.433l1.457.839v-.675l-1.457-.839zM16.255 24.589l1.897 1.093v-.675l-1.891-1.093zM14.064 30.528l1.451.832v-.669l-1.451-.838zM16.261 29.6l-2.596-1.498v.675l2.596 1.498zM14.7 27.854l2.301 1.329v-.675l-2.295-1.324zM11.849 27.05l-.005.675 1.381.798v-.675zM13.335 29.431l-3.376-1.949v.669l3.376 1.955zM11.445 25.974l2.914 1.683v-.675l-2.914-1.683zM9.965 25.119l1.202.694v-.676l-1.202-.693zM9.959 26.638l1.457.838v-.675l-1.457-.838zM16.255 31.794l1.897 1.093v-.675l-1.891-1.093zM14.064 37.732l1.451.833v-.669l-1.451-.839zM16.261 36.804l-2.596-1.497v.675l2.596 1.497zM14.7 35.058l2.301 1.33v-.675l-2.295-1.324zM11.849 34.255l-.005.675 1.381.798v-.676zM13.335 36.635l-3.376-1.948v.669l3.376 1.954zM11.445 33.179l2.914 1.683v-.675l-2.914-1.683zM9.965 32.323l1.202.694v-.675l-1.202-.694zM9.959 33.843l1.457.838v-.675l-1.457-.838zM16.255 38.999l1.897 1.092v-.675l-1.891-1.092z"/><path fill="#b0b8cf" d="m21.436 2.911-9.439 5.485-.009 2.293 9.509 5.491 9.44-5.486.009-2.293z"/><path fill="#b0b8cf" d="m30.946 8.401-.009 2.293-9.44 5.486.01-2.293z"/><path fill="#9ea9c9" d="m21.507 13.887-.01 2.293-9.509-5.491.009-2.293z"/><path fill="#c9cee2" d="m30.946 8.401-9.439 5.486-9.51-5.491 9.439-5.485z"/><path fill="#497bfe" d="m22.417 32.859 11.612-6.702.038 11.546-11.612 6.707z"/><path fill="#5094ff" d="m23.456 33.457 9.542-5.506.03 9.154-9.542 5.511z"/><path fill="#21201f" d="m28.122 30.823-4.626 2.67.026 9.129 9.845-5.681-.009-3.095z"/><path fill="#e9e7fc" d="m45.248 40.715-9.845 5.72-11.887-6.869-.023-6.071 4.627-2.673 5.241 3.024z"/><path fill="#fff" d="m26.08 32.001-2.584 1.492.022 5.074 11.887 6.861 6.946-4.036z"/><path fill="#c9cee2" d="m43.519 40.714-16.267-9.39-1.172.677 16.271 9.391z"/><path fill="#df3260" d="m33.082 32.622-.445-.258-.867.506v-.39l-.445-.257-6.477 3.764-.014 5.698c-.002.557.392 1.238.876 1.518.466.269.899-.099.626.06l6.477-3.764c.158-.092.256-.286.257-.563l.012-6.314z"/><path fill="#ddb040" d="m32.497 38.956-6.477 3.765c-.079.046-.188.04-.308-.03a.954.954 0 0 1-.432-.749l6.477-3.764c0 .275.193.61.432.749.12.069.23.075.308.03z"/><path fill="#febc1f" d="m32.813 39.5-6.477 3.763c.157-.091.255-.286.256-.563l6.478-3.764c-.001.277-.1.471-.257.563z"/><path fill="#f45170" d="m24.848 35.987 6.477-3.764.446.257-6.478 3.764z"/><path fill="#df3260" d="m25.293 36.244 6.478-3.764-.014 5.698-6.477 3.764z"/><path fill="#dedffb" d="m26.225 42.832-.203-.118a1.04 1.04 0 0 1-.518-.896l-.013-5.433.72.418.014 6.029z"/><path fill="#e9e8e6" d="m26.225 42.832-.203-.118a1.04 1.04 0 0 1-.518-.896l-.006-2.053.712.416.015 2.65z"/><path fill="#f3f1fc" d="m26.21 36.803-.719-.418 6.084-3.512.719.417z"/><path fill="#c4c2c0" d="m32.294 33.29.015 6.029-6.084 3.513-.015-6.029z"/><path fill="#f45170" d="m26.161 36.745 4.378-2.545.446.257-4.379 2.545z"/><path fill="#e93565" d="m26.606 37.002-.014 5.698c-.001.557-.397.782-.882.503-.484-.28-.877-.961-.876-1.518l.014-5.698.445.257-.013 5.698c-.001.275.193.61.432.749.239.138.434.027.435-.248l.014-5.698.445.257zM30.99 34.462l-.451-.262.533-.923.444.258z"/><path fill="#f45170" d="m31.516 33.535-.444-.258 1.565-.913.445.258z"/><path fill="#df3260" d="m33.082 32.622.001.615-2.093 1.225.526-.927z"/><path fill="#df3260" d="m26.606 37.002 6.477-3.764-.013 5.698-6.478 3.764z"/><path fill="#5ec363" d="M35.761 40.488c0 .28-.1.48-.25.57l-6.48 3.76c.273-.163-.156.213-.63-.06-.48-.28-.87-.96-.87-1.52l.01-5.7 6.48-3.76.44.26v.39l.87-.51.45.26-.02 6.31z"/><path fill="#ddb040" d="m35.193 40.513-6.478 3.764c-.079.046-.188.04-.308-.03a.954.954 0 0 1-.432-.749l6.477-3.764c0 .275.193.61.432.749.12.069.23.075.309.03z"/><path fill="#5ec363" d="m35.508 41.055-6.477 3.764c.158-.091.256-.286.256-.563l6.478-3.764c-.001.277-.1.471-.257.563z"/><path fill="#78e75a" d="m27.543 37.543 6.477-3.764.446.257-6.477 3.764z"/><path fill="#5ec363" d="m27.989 37.8 6.477-3.764-.014 5.698-6.477 3.764z"/><path fill="#dedffb" d="m28.92 44.388-.203-.118a1.04 1.04 0 0 1-.517-.896l-.013-5.433.718.418.015 6.029z"/><path fill="#e9e8e6" d="m28.92 44.388-.203-.118a1.04 1.04 0 0 1-.517-.896l-.007-2.053.712.416.015 2.65z"/><path fill="#f3f1fc" d="m28.905 38.359-.718-.418 6.083-3.512.719.417z"/><path fill="#c4c2c0" d="m34.989 34.846.015 6.029-6.084 3.513-.015-6.029z"/><path fill="#78e75a" d="m28.856 38.301 4.378-2.545.446.257-4.379 2.545z"/><path fill="#72d561" d="m29.301 38.558-.014 5.698c-.001.557-.397.782-.882.503-.484-.28-.877-.961-.876-1.518l.014-5.698.446.257-.014 5.698c-.001.275.193.61.432.749.239.138.434.027.435-.248l.014-5.698.445.257zM33.686 36.018l-.452-.262.533-.923.445.258z"/><path fill="#78e75a" d="m34.212 35.091-.445-.258 1.565-.913.445.258z"/><path fill="#5ec363" d="m35.777 34.178.002.615-2.093 1.225.526-.927z"/><path fill="#5ec363" d="m29.301 38.558 6.478-3.764-.014 5.698-6.478 3.764z"/><path fill="#febc1f" d="M38.471 35.738v.61l-.01 5.7c0 .28-.1.47-.26.56l-6.48 3.77a.09.09 0 0 0 .06-.06c-.16.14-.41.15-.68 0-.49-.28-.88-.96-.88-1.52l.02-5.7 6.47-3.76.45.25v.39l.87-.5.44.26z"/><path fill="#ddb040" d="m37.888 42.069-6.478 3.764c-.079.046-.188.04-.308-.03a.954.954 0 0 1-.432-.749l6.477-3.764c0 .275.193.61.432.749.12.069.23.075.309.03z"/><path fill="#febc1f" d="m38.203 42.611-6.477 3.764c.158-.091.256-.286.257-.563l6.477-3.764c0 .277-.099.471-.257.563z"/><path fill="#ffdd95" d="m30.238 39.099 6.478-3.764.445.257-6.477 3.764z"/><path fill="#febc1f" d="m30.684 39.356 6.477-3.764-.014 5.698-6.477 3.764z"/><path fill="#dedffb" d="m31.615 45.944-.203-.118a1.04 1.04 0 0 1-.517-.896l-.013-5.433.718.418.015 6.029z"/><path fill="#e9e8e6" d="m31.615 45.944-.203-.118a1.04 1.04 0 0 1-.517-.896l-.007-2.053.712.416.015 2.65z"/><path fill="#f3f1fc" d="m31.6 39.915-.718-.418 6.083-3.512.719.417z"/><path fill="#c4c2c0" d="m37.684 36.402.015 6.029-6.084 3.513-.015-6.029z"/><path fill="#ffd651" d="m31.551 39.857 4.379-2.545.445.257-4.379 2.545z"/><path fill="#ffd651" d="m31.551 39.857 2.28-1.325.446.257-2.281 1.325z"/><path fill="#ffd06c" d="m31.996 40.114-.013 5.698c-.002.557-.398.783-.882.503-.485-.28-.878-.96-.877-1.518l.014-5.698.446.257-.014 5.698c-.001.275.193.61.432.749.239.138.434.027.435-.248l.014-5.698.445.257z"/><path fill="#ffd475" d="m36.381 37.574-.451-.262.532-.923.445.258z"/><path fill="#ffdd95" d="m36.907 36.647-.445-.258 1.565-.913.445.258z"/><path fill="#febc1f" d="m38.472 35.734.002.615-2.093 1.225.526-.927z"/><path fill="#febc1f" d="m31.996 40.114 6.478-3.764-.014 5.698-6.477 3.764z"/><path fill="#c9cee2" d="m34.986 45.187-11.47-6.62-.003 4.045 11.47 6.623.003-4.048z"/><path fill="#c9cee2" d="m34.989 46.191-.005 3.044-11.471-6.623.005-3.044z"/><path fill="#e9e7fc" d="m34.986 45.187-11.471-6.62v1.001l11.471 6.623z"/><path fill="#1d2943" d="m45.38 34.758-.572-.333-9.819 5.669.026 9.105.572.332 9.819-5.668z"/><path fill="#111d33" d="m45.38 34.758-.572-.333-9.819 5.669.026 9.105.572.332 9.819-5.668z"/><path fill="#111d33" d="m35.587 49.531-.572-.332-.026-9.105.572.332z"/><path fill="#4c5c75" d="m35.561 40.426-.572-.332 9.819-5.669.572.333z"/><path fill="#1d2943" d="m45.38 34.758.026 9.105-9.819 5.668-.026-9.105z"/><path fill="#9ea9c9" d="m42.805 40.976-4.603 2.661-.009-3.134 4.603-2.66z"/><path fill="#febc1f" d="M43.411 42.008c0 .33-.23.73-.52.9-.15.08-.27.09-.37.03l-.05-.03-.19-.1c-.09-.06-.15-.17-.15-.34 0-.33.23-.73.52-.9.15-.08.28-.09.37-.04l.23.14c.1.06.16.17.16.34z"/><path fill="#ffd06c" d="M43.024 41.531c-.095-.055-.225-.047-.37.036-.288.167-.521.57-.52.902 0 .165.058.28.152.335l.23.139c-.093-.054-.15-.17-.151-.335-.001-.331.232-.735.52-.901.145-.084.275-.091.37-.036l-.231-.14z"/><path fill="#febc1f" d="M42.885 41.707c.288-.166.521-.032.522.3.001.332-.23.733-.519.9-.288.166-.522.034-.523-.3-.001-.33.232-.734.52-.9zM38.577 44.43l-.23-.139c-.095-.055-.225-.047-.37.036-.288.167-.521.57-.52.901 0 .166.058.281.152.336l.23.139c-.03-.018-.05-.052-.073-.084.091.127.253.158.445.047.289-.166.52-.567.52-.9-.001-.165-.06-.281-.154-.336z"/><path fill="#ffd06c" d="M38.347 44.291c-.095-.055-.225-.047-.37.036-.288.167-.521.57-.52.901 0 .166.058.281.152.336l.23.139c-.093-.054-.15-.17-.151-.335-.001-.331.232-.735.52-.901.145-.084.275-.091.37-.036l-.231-.14z"/><path fill="#febc1f" d="M38.208 44.467c.288-.167.521-.032.522.3.001.332-.23.733-.519.9-.288.166-.522.034-.523-.3-.001-.33.232-.734.52-.9z"/><path fill="#dedffb" d="m44.21 42.632-1.08-.624-.053-.03c-.052-.018-.118-.01-.192.034a.682.682 0 0 0-.31.539c0 .091.03.161.082.196l.665.385a.202.202 0 0 1 0 .35l-3.19 1.853a.68.68 0 0 1-.57 0l-1.115-.642-.052-.03h-.009c-.052-.018-.114-.005-.184.034a.682.682 0 0 0-.31.539c0 .065.017.122.048.162v.004c.1.1 1.085.632 1.185.69.438.246 1.04.232 1.444 0l3.65-2.12c.571-.338.554-1.018-.009-1.34z"/><path fill="#1d2943" d="m33.718 14.426-.611-.355-10.479 6.051.027 9.718.611.354 10.479-6.05z"/><path fill="#111d33" d="m23.266 30.194-.611-.354-.027-9.718.61.355z"/><path fill="#4c5c75" d="m23.238 20.477-.61-.355 10.479-6.051.611.355z"/><path fill="#1d2943" d="m33.718 14.426.027 9.718-10.479 6.05-.028-9.717z"/><path fill="#9ea9c9" d="m30.969 21.063-4.912 2.84-.01-3.344 4.913-2.84z"/><path fill="#febc1f" d="M31.611 22.158c0 .36-.24.79-.55.97-.2.11-.37.09-.47-.03.02.03.04.05.07.06l-.25-.14c-.1-.06-.16-.19-.16-.36 0-.36.25-.79.56-.96.15-.09.29-.1.39-.04l.22.14c.12.04.19.17.19.36z"/><path fill="#ffd06c" d="M31.203 21.656c-.1-.059-.24-.05-.395.038-.307.178-.556.609-.555.962 0 .176.063.3.162.358l.247.149c-.1-.058-.162-.182-.162-.358-.001-.354.247-.784.555-.962.154-.089.294-.097.395-.039l-.247-.148z"/><path fill="#febc1f" d="M31.055 21.843c.308-.177.556-.034.557.32.001.355-.246.783-.553.96-.308.178-.558.037-.56-.318 0-.354.248-.784.556-.962z"/><path fill="#ffd06c" d="M26.621 25.108c0 .36-.25.78-.55.96-.33.189-.603-.095-.4.04l-.25-.15c-.1-.06-.16-.18-.16-.36 0-.35.25-.78.56-.96.15-.09.29-.1.39-.04l.25.15c.1.06.16.18.16.36z"/><path fill="#ffd06c" d="M26.211 24.601c-.1-.058-.24-.05-.394.04-.308.177-.557.607-.556.96.001.177.063.3.163.358l.246.15c-.1-.059-.161-.182-.162-.358-.001-.354.248-.784.555-.962.155-.09.294-.097.395-.039l-.247-.149z"/><path fill="#febc1f" d="M26.063 24.789c.308-.178.557-.034.558.32 0 .354-.247.782-.554.96-.308.178-.558.037-.559-.318-.001-.354.248-.784.555-.962z"/><path fill="#dedffb" d="m32.47 22.83-1.154-.665-.056-.033c-.056-.019-.126-.01-.205.037a.728.728 0 0 0-.332.575c0 .098.033.172.09.21l.709.41a.215.215 0 0 1 0 .373l-3.406 1.978a.726.726 0 0 1-.607 0l-1.19-.685-.056-.032h-.01c-.056-.019-.121-.005-.196.037a.728.728 0 0 0-.331.574c0 .07.018.131.051.173v.005c.014.014.023.019.037.028l1.228.708c.467.263 1.11.248 1.541 0l3.896-2.263c.61-.36.59-1.086-.01-1.43z"/></svg>