<svg xmlns="http://www.w3.org/2000/svg" viewBox="0 0 130 130"><path fill="#E4E8F4" d="M90.769 19.717c.02-.1.06-.21.06-.32l-.15 31.28c0 .77-.5 1.53-1.5 2.12-2.02 1.17-5.32 1.17-7.35 0-1.02-.59-1.53-1.36-1.53-2.14l.15-31.28c0-.77.5-1.54 1.51-2.12 2.01-1.18 5.31-1.18 7.34 0 1.16.67 1.64 1.59 1.47 2.46zm12.73 7.35c.02-.11.05-.22.05-.33l-.14 31.29c0 .76-.51 1.53-1.51 2.11-2.02 1.17-5.31 1.18-7.34.01-1.03-.59-1.54-1.37-1.54-2.15l.15-31.28c0-.77.5-1.53 1.51-2.12 2.02-1.17 5.31-1.17 7.35.01 1.16.67 1.64 1.58 1.47 2.46zm12.78 7.02-.15 31.28c0 .77-.5 1.53-1.51 2.12-2.02 1.17-5.31 1.18-7.34 0-1.02-.59-1.53-1.36-1.53-2.13l.14-31.29s.01 0 .01.01c0-.77.5-1.54 1.51-2.13 2.02-1.17 5.3-1.17 7.34 0 1.16.67 1.63 1.58 1.47 2.45.02-.11.06-.21.06-.31zm12.72 7.35-.14 31.28c0 .77-.51 1.53-1.51 2.12-2.02 1.17-5.32 1.17-7.35 0-1.02-.59-1.53-1.37-1.53-2.14l.15-31.28c0-.77.5-1.54 1.51-2.12 2.02-1.18 5.3-1.18 7.34 0 1.17.67 1.65 1.58 1.48 2.46.02-.1.05-.21.05-.32zm-15.006 49.27L86.368 74.8c-.215-1.478-1.15-3.242-2.778-5.172a28.321 28.321 0 0 0-2.153-2.266 28.309 28.309 0 0 0 2.153-2.267c2.573-3.051 3.43-5.692 2.413-7.435-1.294-2.221-5.383-2.4-10.59-.834-1.27-5.287-3.483-8.73-6.054-8.73-2.572 0-4.784 3.443-6.054 8.73-5.207-1.564-9.295-1.387-10.59.834-1.304 2.237.592 5.916 4.574 9.702-2.784 2.647-4.548 5.24-4.908 7.327L24.719 90.805c-.423.247-.635.568-.64.89l-.002-.04v.053l-.008 3.515c0 .322.214.652.652.908l43.222 24.95c.858.495 2.253.495 3.112 0l42.933-24.95c.43-.247.644-.578.644-.9l.008-3.62-.001.004c.002-.33-.214-.658-.646-.908zm-47.755-28.7a52.561 52.561 0 0 1 3.112-1.673 52.012 52.012 0 0 1 3.13 1.672 51.906 51.906 0 0 1 2.957 1.861c.075 1.12.12 2.281.12 3.494 0 .41-.013.802-.022 1.2l-4.796-2.76c-.864-.499-2.256-.494-3.114.006l-4.445 2.59c-.007-.345-.02-.683-.02-1.036 0-1.212.046-2.373.12-3.492a52.52 52.52 0 0 1 2.958-1.863zm-2.855.597c.15-1.62.37-3.132.654-4.505a41.155 41.155 0 0 1 4.19 1.686 53.24 53.24 0 0 0-2.493 1.357c-.816.476-1.593.966-2.35 1.462zm7.111-2.817a41.266 41.266 0 0 1 4.187-1.688c.284 1.373.503 2.885.654 4.505-.763-.499-1.542-.99-2.351-1.462a53.258 53.258 0 0 0-2.49-1.355zm6.03 9.345c.02-.584.033-1.172.033-1.77 0-.944-.032-1.86-.079-2.764 1.257.9 2.423 1.826 3.475 2.764-.83.74-1.73 1.474-2.692 2.194l-.736-.424zm-14.334-.159-.857.5a39.947 39.947 0 0 1-2.585-2.111 41.559 41.559 0 0 1 3.492-2.768c-.047.905-.08 1.823-.08 2.767 0 .545.014 1.08.03 1.612zm20.636 1.3c1.194 1.416 1.978 2.721 2.347 3.839l-6.974-4.016a40.987 40.987 0 0 0 2.496-2.059 27.483 27.483 0 0 1 2.13 2.235zm2.314-12.11c.776 1.331-.068 3.623-2.314 6.288a27.46 27.46 0 0 1-2.13 2.235 43.569 43.569 0 0 0-4.293-3.367 43.096 43.096 0 0 0-.772-5.52c4.939-1.497 8.545-1.288 9.51.365zM69.36 49.097c1.914 0 3.91 3.01 5.104 8.03a43.05 43.05 0 0 0-5.104 2.089 43.051 43.051 0 0 0-5.104-2.088c1.194-5.02 3.19-8.03 5.104-8.03zm-15.78 9.068c.527-.905 1.841-1.38 3.733-1.38 1.565 0 3.54.346 5.773 1.022a43.095 43.095 0 0 0-.77 5.508 43.284 43.284 0 0 0-4.297 3.37c-3.786-3.585-5.409-6.856-4.44-8.52zm4.44 9.876c.734.66 1.536 1.318 2.388 1.972l-6.818 3.973c.591-1.664 2.107-3.746 4.43-5.945zM24.191 92.094a.573.573 0 0 1-.111-.362.81.81 0 0 0 .11.362z"/><path fill="#E4E8F4" d="M60.289 46.437c.01 1.96-1.36 4.33-3.06 5.31l-17.07 9.86c2.82-.21 5.19.05 6.44.77.93.55 1.28 1.36 1.11 2.35.03-.16.05-.32.05-.47v2.33c.01 2.21-3.01 4.61-8.04 7.52-6.82 3.94-14.74 5.71-17.77 3.95-.96-.56-1.46-1.5-1.46-2.66v-1.41c0-.35.05-.72.13-1.1l-13.58 7.84c-.96.55-1.8.53-2.37.08.05.06.1.11.18.16l-.91-.53-1.93-1.09c-.57-.35-.9-1.04-.9-2l-.02-3.48-.09-36.61c0-1.94 1.39-4.32 3.06-5.31l50.26-29c.85-.48 1.62-.55 2.17-.22l2.85 1.66h.01l.01.01c.55.31.89.99.89 1.95l.03 36.6.01 3.49zm17.22 8.71c.927 0 1.693-.756 1.693-1.693 0-.51-.223-.968-.585-1.277a1.699 1.699 0 0 0-2.81 1.277c0 .213.042.415.117.596a1.692 1.692 0 0 0 1.586 1.097zM53.256 69.334c.927 0 1.693-.756 1.693-1.692 0-.511-.224-.969-.585-1.278a1.699 1.699 0 0 0-2.81 1.277c0 .214.042.416.116.597a1.692 1.692 0 0 0 1.587 1.096zM42.02 115.627l-.02-3.61-3.28-.22.01-.02.02-4.28-4.4-2.54-3.79 1.74a17.33 17.33 0 0 0-3.41-.78l-.62-2.83-6.2.01-.59 2.97c-1.05.18-2.03.44-2.97.79l-4.22-1.9-4.37 2.54-.01 4.28.01.01-3.18.22-.02 4.29.02 2.24 4.92.36-1.67 1.23-.01 2.94 4.4 2.54 4.88-2.22c.69.22 1.43.42 2.18.54l.77 3.54 6.2.01.67-3.38c.89-.11 1.74-.29 2.59-.53l4.51 2.04 4.36-2.54.02-2.94-1.68-1.24 4.87-.32.01-2.94zm-12.81 1.48c-3.13 1.82-8.24 1.82-11.39 0-.75-.43-1.32-.93-1.71-1.47.39-.52.94-1.01 1.68-1.44 3.13-1.82 8.22-1.83 11.37-.01.76.44 1.33.94 1.73 1.48-.39.53-.95 1.02-1.68 1.44z"/><path fill="#F9BB4A" d="M90.827 19.396 90.68 50.68c-.002.765-.504 1.529-1.506 2.111-2.019 1.173-5.318 1.177-7.35.005-1.02-.59-1.529-1.365-1.527-2.14l.146-31.285c-.002.775.506 1.55 1.527 2.14 2.031 1.173 5.33 1.168 7.35-.005 1.002-.582 1.504-1.346 1.506-2.111z"/><path fill="#FED57A" d="M89.296 17.255c2.032 1.173 2.042 3.08.024 4.252-2.018 1.173-5.318 1.178-7.35.005-2.03-1.173-2.034-3.084-.016-4.257 2.019-1.173 5.31-1.173 7.342 0z"/><path fill="#75CA75" d="m103.553 26.74-.145 31.284c-.003.765-.506 1.53-1.51 2.114-2.02 1.173-5.311 1.18-7.343.008-1.025-.592-1.535-1.37-1.533-2.145l.145-31.285c-.002.776.509 1.553 1.534 2.145 2.031 1.173 5.323 1.165 7.342-.008 1.004-.584 1.508-1.349 1.51-2.114z"/><path fill="#9AD898" d="M102.026 24.604c2.032 1.173 2.035 3.076.017 4.249-2.019 1.173-5.31 1.181-7.342.008-2.04-1.177-2.043-3.088-.024-4.261 2.018-1.173 5.31-1.173 7.349.004z"/><path fill="#576CFB" d="m116.275 34.084-.145 31.285c-.002.766-.506 1.53-1.51 2.114-2.019 1.173-5.311 1.181-7.342.008-1.024-.59-1.532-1.365-1.53-2.138l.145-31.285c-.002.773.507 1.548 1.53 2.138 2.031 1.173 5.324 1.165 7.342-.008 1.004-.584 1.508-1.348 1.51-2.114z"/><path fill="#748BFD" d="M114.748 31.95c2.032 1.172 2.035 3.075.017 4.248-2.018 1.173-5.31 1.181-7.342.008-2.039-1.177-2.035-3.084-.017-4.257 2.019-1.172 5.304-1.177 7.342 0z"/><path fill="#FA5168" d="m129.001 41.436-.145 31.285c-.002.765-.504 1.529-1.507 2.111-2.018 1.173-5.318 1.178-7.35.005-1.022-.591-1.531-1.366-1.529-2.14l.146-31.284c-.003.773.506 1.548 1.53 2.139 2.031 1.173 5.33 1.168 7.349-.005 1.002-.582 1.504-1.346 1.506-2.111z"/><path fill="#F9607F" d="M127.47 39.295c2.032 1.173 2.043 3.08.025 4.252-2.019 1.173-5.318 1.178-7.35.005-2.038-1.177-2.035-3.084-.016-4.257 2.018-1.173 5.303-1.177 7.342 0z"/><path fill="#D4DAE8" d="m114.64 91.612-.008 3.62c0 .321-.215.652-.644.9L71.055 121.08c-.859.495-2.254.495-3.112 0L24.721 96.13c-.438-.256-.652-.586-.652-.908l.008-3.567c0 .322.023.463.46.71l43.222 24.958c.859.495 2.253.495 3.112 0l42.933-24.95c.43-.247.836-.44.836-.762z"/><path fill="#E4E8F4" d="M113.992 90.707c.86.495.865 1.304.007 1.804L71.094 117.51c-.858.5-2.255.502-3.115.007L24.726 92.609c-.864-.498-.865-1.304-.007-1.804l42.906-24.998c.858-.5 2.25-.505 3.114-.007l43.253 24.907z"/><path fill="#474B59" d="M81.16 83.75c-6.621-3.832-17.202-3.769-23.665 0-3.548 2.06-5.132 4.816-4.72 7.509.38-2.09 1.964-4.15 4.72-5.766 6.463-3.77 17.044-3.833 23.665 0 2.82 1.648 4.403 3.707 4.784 5.861.411-2.724-1.173-5.544-4.784-7.603z"/><path fill="#5B5E71" d="M85.943 91.356a3.56 3.56 0 0 1-.193.826c-.568 1.9-2.124 3.734-4.625 5.193-6.46 3.735-16.91 3.735-23.413 0-2.629-1.523-4.206-3.358-4.743-5.29-.064-.257-.129-.504-.193-.794v-.032c.376-2.092 1.964-4.153 4.721-5.762 6.46-3.777 17.04-3.841 23.66 0 2.823 1.642 4.41 3.702 4.786 5.859z"/><path fill="#F9607F" d="M69.359 86.627c-4.036 0-7.198-8.462-7.198-19.266 0-10.802 3.162-19.265 7.198-19.265s7.198 8.463 7.198 19.265c0 10.804-3.162 19.266-7.198 19.266zm0-37.53c-2.993 0-6.198 7.339-6.198 18.264 0 10.927 3.205 18.266 6.198 18.266s6.198-7.34 6.198-18.266c0-10.925-3.205-18.265-6.198-18.265z"/><path fill="#748BFD" d="M81.4 78.93c-3.93 0-9.71-1.879-15.666-5.35-9.333-5.44-15.052-12.432-13.019-15.92 2.032-3.486 10.935-1.957 20.269 3.482 4.379 2.552 8.145 5.566 10.606 8.486 2.573 3.052 3.43 5.692 2.413 7.435-.735 1.262-2.372 1.867-4.602 1.867zM57.313 56.785c-1.892 0-3.206.474-3.733 1.379-1.507 2.586 3.22 9.051 12.659 14.552 9.442 5.503 17.395 6.43 18.902 3.843.776-1.33-.068-3.622-2.314-6.287-2.389-2.834-6.064-5.77-10.346-8.266-6.139-3.578-11.65-5.221-15.168-5.221z"/><path fill="#68AF68" d="M57.318 78.93c-2.232 0-3.867-.605-4.603-1.867-2.033-3.487 3.686-10.48 13.019-15.92 9.334-5.441 18.238-6.97 20.27-3.483 1.016 1.743.159 4.384-2.414 7.435-2.46 2.92-6.227 5.933-10.606 8.486-5.955 3.47-11.734 5.35-15.666 5.35zm8.92-16.924c-9.44 5.502-14.166 11.967-12.66 14.553 1.508 2.587 9.463 1.66 18.902-3.843 4.282-2.495 7.957-5.43 10.346-8.265 2.246-2.665 3.09-4.957 2.314-6.287-1.508-2.586-9.462-1.66-18.902 3.842z"/><path fill="#4E5161" d="m28.874 64.251-4.173-2.425 10.453-6.035 4.173 2.425z"/><path fill="#3F434F" d="m20.485 73.948.004 1.45c.003 1.156.5 2.101 1.462 2.661 3.025 1.758 10.95-.014 17.769-3.951 5.033-2.906 8.044-5.307 8.038-7.525l-.004-2.325c.006 2.218-3.005 5.494-8.038 8.4-6.82 3.938-14.744 5.71-17.769 3.952-.963-.56-1.459-1.506-1.462-2.662z"/><path fill="#525566" d="M27.302 65.444c-6.82 3.938-8.355 9.422-5.355 11.166 3.025 1.757 10.949-.014 17.769-3.952 6.795-3.923 9.904-8.521 6.88-10.279-3.001-1.744-12.498-.858-19.294 3.065z"/><path fill="#BAC1CE" d="m28.916 73.539-1.958-1.138-.042-12.541 1.958 1.138z"/><path fill="#CAD0DD" d="m39.327 54.963.042 12.541-10.453 6.035-.042-12.541z"/><path fill="#EAF0F6" d="m19.425 69.549 17.964-10.44 3.212 2.112-17.964 10.44z"/><path fill="#5B5E71" d="M59.363 4.396c-.528-.286-1.27.155-2.105.661L7.384 34.347c-1.694.968-1.932 2.628-1.932 4.565l-.734 36.503v3.499c.022.968-.423 1.741.127 2.05l-.902-.529-1.93-1.09c-.572-.353-.902-1.035-.902-2.003l-.022-3.477-.088-36.613c0-1.936 1.387-4.312 3.059-5.302l50.255-29c.858-.484 1.628-.55 2.178-.22l2.87 1.666z"/><path fill="#3F434F" d="M60.281 42.95 3.943 75.506l-.11-36.59c0-1.937 1.386-4.313 3.08-5.303l50.255-29c1.694-.99 3.08-.198 3.08 1.738l.033 36.6z"/><path fill="#FFF" d="M58.268 41.265 5.947 71.503 5.84 38.915c0-1.213 1.008-2.94 2.092-3.573L58.225 6.327l.043 34.938z"/><path fill="#E4E8F4" d="m60.281 42.95.01 3.49c.006 1.953-1.365 4.328-3.064 5.309L7.038 80.725c-1.708.986-3.088.2-3.094-1.752l-.01-3.49L60.281 42.95z"/><path fill="#BAC1CE" d="M33.333 61.836c0 .85-.595 1.85-1.318 2.274-.722.426-1.317.086-1.317-.743 0-.85.574-1.87 1.317-2.296.723-.403 1.318-.063 1.318.765z"/><path fill="#D83049" d="M79.202 53.454a1.692 1.692 0 0 1-3.279.596 1.566 1.566 0 0 1-.116-.596 1.699 1.699 0 0 1 3.395 0z"/><path fill="#F34858" d="M78.734 52.784c0 .936-.767 1.692-1.693 1.692-.425 0-.82-.16-1.117-.426a1.566 1.566 0 0 1-.117-.596 1.699 1.699 0 0 1 2.81-1.277c.074.191.117.394.117.607z"/><path fill="#EFAC41" d="M54.948 67.642c0 .936-.766 1.692-1.693 1.692a1.692 1.692 0 0 1-1.586-1.096 1.566 1.566 0 0 1-.117-.596 1.699 1.699 0 0 1 3.396 0z"/><path fill="#FED57A" d="M54.48 66.971c0 .937-.767 1.693-1.693 1.693-.426 0-.82-.16-1.118-.426a1.566 1.566 0 0 1-.117-.596 1.699 1.699 0 0 1 2.81-1.278c.075.192.118.394.118.607z"/><path fill="#72747A" d="M49.942 15.995zm.261-.006z"/><path fill="#B0B3BD" d="M53.599 16.897a6.017 6.017 0 0 0-2.564-.868c1.61.173 2.982.902 4 2.122a5.947 5.947 0 0 0-1.436-1.254z"/><path fill="#72747A" d="M55.066 18.188z"/><path fill="#FA5168" d="m44.894 31.528 7.935 5.938c-2.11 3.338-4.874 6.21-7.895 7.953-2.525 1.458-4.876 1.927-6.82 1.52l6.78-15.41z"/><path fill="#748BFD" d="M53.599 16.897a6.016 6.016 0 0 1 1.77 1.687l.032.048.035.05.043.065.026.04c.02.028.038.058.057.088a8.424 8.424 0 0 1 .986 2.282 10.39 10.39 0 0 1 .23 1.025l.006.038.02.117.007.04a12.132 12.132 0 0 1 .024.16l.015.11.007.05a10.436 10.436 0 0 1 .032.262l.007.063.01.096.007.068.009.1.005.064.008.103.005.064a12.939 12.939 0 0 1 .011.171l.005.092.004.076.005.104.002.068.004.107.002.066.002.13.001.044.002.177-12.084 6.976L53.6 16.897z"/><path fill="#72747A" d="M50.496 15.992zM51.025 16.028z"/><path fill="#F9BB4A" d="M56.978 24.552c.011 4.193-1.598 8.898-4.15 12.914l-7.934-5.938 12.084-6.976z"/><path fill="#9AD898" d="m44.855 17.644.159-.09.16-.09.048-.026.106-.057.082-.043.074-.04c.028-.013.056-.027.083-.042l.073-.037.09-.044.064-.032.092-.044.064-.03c.03-.016.061-.03.092-.044l.062-.029.088-.04.066-.03.09-.04.063-.026.093-.04.057-.024a12.8 12.8 0 0 1 .102-.041l.048-.02.105-.041.044-.017.11-.042.04-.015a12.729 12.729 0 0 1 .707-.236 11.809 11.809 0 0 1 .582-.155 11.405 11.405 0 0 1 .567-.117 11.242 11.242 0 0 1 .277-.043l.039-.005a8.63 8.63 0 0 1 .237-.03l.053-.005.083-.008.095-.008.039-.003c1.48-.11 2.807.198 3.91.887l-8.705 14.631 12.084-6.976-12.084 6.976-.039-13.884z"/><path fill="#E4E8F4" d="m44.855 17.644.04 13.884-6.781 15.411c-3.194-.656-5.3-3.659-5.314-8.428-.022-7.665 5.374-17.01 12.055-20.867z"/><path fill="#D4DAE8" d="M28.274 35.008c.391-.226.712-.043.713.413l.051 18.084c.002.456-.317 1.008-.708 1.234L8.766 66.034c-.391.226-.712.043-.713-.413L8 47.537c-.001-.456.318-1.008.709-1.234l19.564-11.295z"/><path fill="#E4E8F4" d="M28.252 27.496c.392-.226.713-.043.714.413l.013 4.719c.001.456-.317 1.008-.709 1.234L8.707 45.157c-.392.226-.712.043-.714-.413l-.013-4.72c-.001-.455.317-1.007.709-1.233l19.563-11.295z"/><path fill="#AFB5BF" d="m28.185 36.518.001.367L9.078 47.917l-.001-.368zM28.188 37.796l.001.362L9.081 49.19l-.001-.362zM28.195 40.345l.001.367L9.088 51.744l-.001-.367zM28.228 53.106l.001.361L9.121 64.499l-.001-.361zM28.225 51.83l.001.362L9.118 63.223l-.001-.361zM28.221 50.554l.001.362L9.115 61.948l-.001-.362zM28.218 49.278l.001.362L9.111 60.672l-.001-.362zM28.215 48l.001.367L9.108 59.399l-.001-.367zM28.211 46.727l.001.361L9.105 58.12l-.001-.361zM28.208 45.451l.001.362L9.101 56.844l-.001-.361zM28.205 44.172l.001.368L9.098 55.571l-.001-.367zM28.201 42.9l.001.361L9.095 54.293l-.001-.362zM28.198 41.624l.001.361L9.091 53.017l-.001-.361zM28.191 39.072l.001.362L9.085 50.465l-.001-.361z"/><path fill="#576CFB" d="m38.744 107.498-.012 4.283-2.964 2.208.012-4.283zM11.739 110.113l-.012 4.283-3.559-2.615.012-4.283z"/><path fill="#4562EF" d="m31.546 113.836-.01 3.674c.003-1.202-.79-2.406-2.375-3.321-3.15-1.82-8.241-1.81-11.372.008-1.558.906-2.34 2.092-2.344 3.279l.01-3.674c.004-1.187.786-2.373 2.345-3.278 3.13-1.82 8.22-1.828 11.372-.009 1.585.916 2.377 2.12 2.374 3.32z"/><path fill="#E4E8F4" d="m5.015 115.595-.012 2.941-.02-2.241.012-4.284z"/><path fill="#576CFB" d="m42.017 115.624-.012 2.941-5.132.339.013-2.941zM11.137 116.04l-.012 2.941-6.122-.445.012-2.941z"/><path fill="#4562EF" d="m12.08 117.3-.012 4.283c-.386-.398-.723-.824-.943-1.26l.012-4.283c.22.436.557.862.943 1.26zm24.806-1.337-.013 4.283c-.314.61-.779 1.172-1.361 1.724l.012-4.284c.582-.552 1.047-1.113 1.362-1.723zm-17.177 5.026-.012 2.941a15.27 15.27 0 0 1-2.177-.542l.012-2.941c.687.222 1.424.416 2.177.542zm10.23-.368-.012 2.941c-.851.242-1.703.426-2.588.533l.012-2.941a16.69 16.69 0 0 0 2.588-.533zM38.815 120.127l-.012 2.941-4.367 2.538.013-2.942z"/><path fill="#576CFB" d="m34.449 122.664-.013 2.942-4.509-2.044.012-2.941z"/><path fill="#4562EF" d="m12.646 122.665-.012 2.941-4.395-2.538.012-2.941z"/><path fill="#576CFB" d="m17.532 120.447-.012 2.941-4.886 2.218.012-2.941zM27.351 121.154l-.012 2.941-.667 3.38.012-2.941zM20.481 124.524l-.012 2.941-.772-3.535.012-2.941z"/><path fill="#748BFD" d="m34.449 122.664-4.51-2.043c-.851.242-1.703.426-2.588.533l-.667 3.38-6.203-.01-.772-3.535c-.753-.126-1.49-.32-2.177-.542l-4.886 2.218-4.395-2.538 3.83-2.828c-.387-.397-.724-.823-.944-1.259l-6.122-.445-.02-3.584 5.816-.407a4.948 4.948 0 0 1 .928-1.491l-3.56-2.615 4.367-2.537 4.224 1.898c.935-.349 1.92-.61 2.972-.794l.585-2.964 6.203-.01.618 2.828c1.188.146 2.36.417 3.415.775l3.786-1.733 4.395 2.537-2.964 2.208c.622.61 1.094 1.288 1.349 1.976l4.867.339.02 3.603-5.13.339c-.315.61-.78 1.171-1.362 1.723l3.291 2.441-4.366 2.537zm-16.626-5.553c3.15 1.819 8.256 1.819 11.386 0s3.113-4.777-.037-6.596c-3.151-1.819-8.242-1.81-11.372.009s-3.128 4.767.023 6.587"/><path fill="#4562EF" d="m26.684 124.534-.012 2.941-6.203-.01.012-2.941z"/><path fill="#CAD0DD" d="M97.116 92.028c.212.671.768 1.315 1.661 1.834 2.376 1.38 6.24 1.376 8.626-.002 2.392-1.38 2.404-3.614.029-4.994-.921-.536-2.06-.862-3.258-.978l.197 1.83c.344.083.663.208.942.37 1.208.703 1.201 1.847-.014 2.549-1.216.702-3.196.704-4.403.002a2.248 2.248 0 0 1-.562-.447l-3.218-.164z"/><path fill="#F9607F" d="M98.81 88.866c-1.49.859-2.056 2.05-1.694 3.162l3.218.164c-.6-.679-.403-1.536.58-2.103.935-.54 2.32-.665 3.457-.371l-.197-1.83c-1.887-.195-3.904.134-5.365.978z"/><path fill="#5B5E71" d="M84.373 102.95c.6.679.403 1.536-.584 2.106-.935.54-2.315.667-3.458.37l.198 1.83c1.89.192 3.904-.134 5.369-.98 1.488-.86 2.05-2.047 1.697-3.16l-3.222-.166z"/><path fill="#4C7891" d="M64.848 109.378c-.334 1.093.223 2.259 1.678 3.104 1.48.86 3.525 1.184 5.45.973l.298-1.867c-1.177.352-2.657.24-3.633-.327-.933-.542-1.144-1.343-.629-2.006l-3.164.123z"/><path fill="#F9607F" d="M75.149 112.482c-.902.526-2.018.848-3.176.977l.3-1.867c.279-.086.537-.194.773-.333 1.223-.698 1.212-1.846.01-2.543-1.212-.708-3.176-.708-4.4 0-.278.16-.493.343-.643.536l-3.165.13c.204-.698.772-1.353 1.706-1.89 2.393-1.384 6.245-1.384 8.616 0 2.372 1.374 2.36 3.617-.021 4.99z"/><path fill="#CAD0DD" d="M77.3 101.284c-2.388 1.379-2.397 3.614-.025 4.992.921.535 2.063.864 3.254.98l-.198-1.83a3.65 3.65 0 0 1-.937-.373c-1.208-.702-1.206-1.844.01-2.546 1.22-.704 3.2-.706 4.407-.004.231.134.423.287.562.447l3.222.167c-.212-.672-.772-1.314-1.67-1.835-2.371-1.378-6.234-1.378-8.626.002z"/><path fill="#FED57A" d="M96.652 100.067c-.901.526-2.017.848-3.176.977l.3-1.867c.28-.086.537-.193.773-.333 1.213-.697 1.223-1.846.01-2.543-1.212-.708-3.186-.708-4.399 0a2.196 2.196 0 0 0-.643.536l-3.166.13c.204-.698.783-1.364 1.706-1.89 2.382-1.384 6.245-1.384 8.617 0 2.371 1.374 2.36 3.617-.022 4.99z"/><path fill="#75CA75" d="M86.354 96.962c-.338 1.095.22 2.26 1.674 3.106 1.479.86 3.529 1.182 5.45.973l.298-1.867c-1.174.35-2.653.239-3.63-.329-.932-.542-1.148-1.341-.632-2.004l-3.16.12z"/></svg>