<svg xmlns="http://www.w3.org/2000/svg" viewBox="0 0 50 50"><path fill="#111d33" d="M37.185 40.308v2.13c0 .24-.16.49-.48.67l-10.13 5.8c-.63.38-1.66.38-2.3 0l-6.3-3.59c-.32-.18-.49-.43-.49-.68l-.02-2.09v-.05l.002.013c-.012-.248.134-.502.458-.693l10.18-5.91c.64-.37 1.67-.37 2.31 0l6.29 3.73c.32.19.48.43.48.67z"/><path fill="#111d33" d="M37.183 40.304v2.136c0 .243-.162.485-.475.667l-10.13 5.803c-.637.374-1.667.374-2.304 0l-6.3-3.593c-.323-.182-.484-.424-.484-.677l-.027-2.144c0 .242.162.485.475.657l6.293 3.728c.646.374 1.667.374 2.303 0l10.184-5.91c.314-.182.465-.424.465-.667z"/><path fill="#4c5c75" d="M36.707 39.635c.638.368.642.964.007 1.333l-10.177 5.914c-.634.369-1.663.369-2.302 0l-6.292-3.725c-.639-.37-.649-.969-.014-1.338l10.177-5.914c.634-.369 1.67-.365 2.308.004l6.293 3.726z"/><path fill="#b0b8cf" d="m31.545 31.988-.02 8.69-6.69 3.89-2.43-1.4.02-8.7 6.69-3.88z"/><path fill="#e3e7f0" d="m24.857 35.873 6.687-3.886-.02 8.695-6.687 3.886z"/><path fill="#e3e7f0" d="m22.426 34.473 6.687-3.886 2.431 1.4-6.687 3.886z"/><path fill="#b0b8cf" d="m24.857 35.873-.02 8.695-2.431-1.4.02-8.695z"/><path fill="#fefefe" d="m23.754 38.749-2.162-1.257 4.466-2.579 2.163 1.257z"/><path fill="#1d2943" d="M42.705 26.288c0 1.3-.92 2.89-2.05 3.55l-28.18 16.31c-.61.35-1.17.36-1.55.08l-2.98-1.72c-.37-.21-.6-.67-.6-1.31l-.05-22.25c0-1.3.92-2.89 2.05-3.55l28.18-16.31c.57-.33 1.09-.36 1.46-.14l2.99 1.74c.01.01.02.01.03.02.4.2.64.67.65 1.35l.05 22.23z"/><path fill="#9ea9c9" d="M7.299 20.952c-.008-1.305.913-2.893 2.044-3.553l28.18-16.306c.573-.334 1.088-.363 1.465-.145l3.067 1.784c-.377-.218-.892-.189-1.464.138L12.41 19.183c-1.132.652-2.052 2.247-2.045 3.553l.043 22.234c.008.653.232 1.102.602 1.32l-3.067-1.784c-.37-.21-.595-.667-.595-1.312L7.3 20.952z"/><path fill="#1d2943" d="M40.591 2.873c1.134-.655 2.059-.128 2.062 1.18l.049 22.236c.004 1.303-.915 2.894-2.049 3.548l-28.179 16.31c-1.134.655-2.058.129-2.062-1.175l-.049-22.235c-.003-1.309.915-2.9 2.05-3.554L40.59 2.873z"/><path fill="#fff" d="M12.384 22.733c-.002-.584.532-1.508 1.038-1.8l25.73-14.897a.989.989 0 0 1 1.484.854l.043 18.204c.002.662-.466 1.475-1.04 1.806L13.91 41.796a.989.989 0 0 1-1.483-.854l-.043-18.21z"/><path fill="#b0b8cf" d="M27.537 34.856c.418-.241.755-.049.757.431.001.48-.334 1.06-.752 1.302-.417.24-.755.048-.756-.431-.001-.48.334-1.06.751-1.302z"/><path fill="#b28afd" d="M22.955 20.909v1.906a.498.498 0 0 1-.249.411l-1.646.964c-.13.076-.238.022-.238-.14v-1.907c0-.151.097-.324.227-.4l1.657-.953c.141-.087.25-.033.25.119z"/><path fill="#fff" d="M22.305 21.612c.07-.04.131-.02.132.06l.002.984c0 .08-.061.171-.13.211l-.851.491c-.062.036-.125.017-.125-.063l-.003-.985a.27.27 0 0 1 .124-.207l.85-.491z"/><path fill="#f45170" d="M28.333 17.535c.594-.343 1.066-.067 1.068.609.002.675-.467 1.495-1.061 1.838-.451.26-.834.158-.988-.21a1.047 1.047 0 0 1-.074-.403c0-.157.025-.322.071-.486.152-.544.533-1.088.984-1.348z"/><path fill="#b28afd" d="M28.165 26.216a.532.532 0 0 1-.25.422l-1.657.953c-.13.076-.227.022-.227-.14l-.01-1.896c0-.163.108-.336.237-.412l.401-.227.77-.444.476-.282c.14-.075.249-.032.249.13l.01 1.896z"/><path fill="#fff" d="M27.509 25.014c.07-.04.132-.012.132.067l.003.977c0 .08-.062.18-.131.22l-.85.49c-.063.036-.126.008-.126-.071l-.003-.977c0-.08.062-.18.124-.215l.851-.491z"/><path fill="#e3e7f0" d="M24.7 21.303c1.47.14 2.51 1.275 2.73 3.167l-.773.447c-.287-2.106-1.778-3.074-3.699-2.47l-.003-1.028 4.394-2.536c-.046.164-.071.33-.07.486 0 .157.026.292.073.404l-2.652 1.53z"/><path fill="#f45170" d="M15.43 24.984c.451-.26.838-.16.994.206.048.111.074.246.074.403 0 .157-.025.322-.071.487-.154.545-.539 1.09-.99 1.351-.595.344-1.066.067-1.068-.608-.002-.676.466-1.496 1.061-1.839z"/><path fill="#b28afd" d="M17.811 30.298v1.896a.498.498 0 0 1-.249.411l-1.646.964c-.14.076-.238.022-.238-.14l-.011-1.896c0-.162.108-.336.238-.411l.466-.271.78-.444.411-.238c.13-.076.25-.033.25.13z"/><path fill="#fff" d="M17.165 30.986c.069-.04.124-.008.125.071l.002.977c0 .08-.055.175-.124.215l-.857.495c-.062.036-.118.005-.118-.075l-.003-.977a.27.27 0 0 1 .117-.21l.858-.496z"/><path fill="#e3e7f0" d="M16.498 25.593a1.03 1.03 0 0 0-.074-.403l4.395-2.537.003 1.027c-1.92 1.61-3.4 4.295-3.673 6.726l-.774.447c.209-2.14 1.24-4.47 2.704-6.304l-2.652 1.531c.046-.165.072-.33.071-.487z"/><path fill="#c9cee2" d="m36.241 12.059.01 3.227-2.417 1.395-.009-3.226z"/><path fill="#b0b8cf" d="m38.658 10.664.009 3.227-2.416 1.395-.01-3.227z"/><path fill="#df3260" d="m38.686 20.351.009 3.233-2.417 1.396-.009-3.234z"/><path fill="#497bfe" d="m38.676 17.124.01 3.227-2.417 1.395-.009-3.227z"/><path fill="#5ec363" d="m38.667 13.891.009 3.233-2.416 1.395-.009-3.233z"/><path fill="#e93565" d="m36.269 21.746.009 3.234-2.417 1.395-.009-3.233z"/><path fill="#5094ff" d="m36.26 18.519.009 3.227-2.417 1.396-.009-3.227z"/><path fill="#72d561" d="m36.251 15.286.009 3.233-2.417 1.396-.009-3.234z"/><path fill="#f45170" d="m33.852 23.142.009 3.233-2.416 1.395-.01-3.233z"/><path fill="#57b3fe" d="m33.843 19.915.009 3.227-2.417 1.395-.009-3.227z"/><path fill="#78e75a" d="m33.834 16.681.009 3.234-2.417 1.395-.009-3.233z"/><path fill="#e3e7f0" d="m33.825 13.455.009 3.226-2.417 1.396-.009-3.227z"/><path fill="#4c5c75" d="m20.66 26.212 3.038-1.232-.825 1.428 1.476.841-.925 1.602-1.476-.841-.83 1.432z"/><path fill="#fff" d="M13.49 20.127a2.29 2.29 0 0 0-2.292 2.292c0-.633-.257-1.207-.67-1.622a2.296 2.296 0 0 0-1.622-.67c.632 0 1.207-.257 1.622-.67.413-.415.67-.99.67-1.622 0 .632.257 1.207.67 1.622.415.413.99.67 1.622.67z"/></svg>