<svg xmlns="http://www.w3.org/2000/svg" viewBox="0 0 50 50"><g fill="#febc1f"><path d="m18.263 47.275-1.85 1.11-1.89-1.03-.61-40.21 1.89 1.03 1.85-1.11z"/><path d="m17.653 7.065-1.85 1.11-1.89-1.03 1.84-1.11z"/></g><g fill="#febc1f"><path d="m29.233 40.015-1.65 1.39-2.02-.74-6.98-37.65 2.03.74 1.65-1.4z"/><path d="m22.263 2.355-1.65 1.4-2.03-.74 1.65-1.4z"/></g><g fill="#febc1f"><path d="m14.153 34.715-3.34 10.02-2.08.71-.59-.67 3.45-10.33.59.66z"/><path d="m14.153 34.715-1.97.39-.59-.66 1.98-.4z"/></g><path fill="#febc1f" d="m17.649 7.067.611 40.211-1.843 1.105-.612-40.211z"/><path fill="#ffd06c" d="m15.805 8.172.612 40.211-1.892-1.029-.611-40.211z"/><path fill="#ffde9b" d="m17.649 7.067-1.844 1.105-1.891-1.029 1.843-1.105z"/><path fill="#ffd06c" d="m18.586 3.012 6.974 37.655 2.026.738L20.612 3.75z"/><path fill="#febc1f" d="m20.612 3.75 6.974 37.655 1.651-1.394-6.973-37.654z"/><path fill="#ffde9b" d="m18.586 3.012 2.026.738 1.652-1.393-2.027-.738z"/><path fill="#ffd06c" d="m8.729 45.443-.582-.665 3.449-10.334.582.665z"/><path fill="#adb1c2" d="m12.178 35.109-.582-.665 1.979-.398.582.664z"/><path fill="#febc1f" d="m14.157 34.71-3.346 10.025-2.082.708 3.449-10.334z"/><path fill="#dedffb" d="m32.823 31.565-18.69 10.79-1.8-.64-3.81-24.43 18.7-10.79 1.8.64 3.8 24.43z"/><path fill="#dedffb" d="m14.131 42.359-1.8-.642-3.804-24.431 1.8.642z"/><path fill="#bf7d5a" d="m14.131 42.359-1.8-.642-.443-2.843 1.8.642z"/><path fill="#e9e7fc" d="m10.327 17.928-1.8-.642L27.22 6.494l1.8.641z"/><path fill="#f3f1fc" d="m29.02 7.135 3.804 24.432-18.693 10.792-3.804-24.431z"/><path fill="#dba660" d="m32.381 28.724.443 2.843-18.693 10.792-.443-2.843z"/><path fill="#57b3fe" d="M25.559 12.053c.063-.036.125-.043.158 0 .05.074 0 .232-.06.362-.179.394-.435.748-.658 1.125-.094.16-.189.338-.205.498-.02.162.074.285.207.208.092-.056.167-.183.25-.284a.468.468 0 0 1 .12-.106c.055-.032.105-.037.125.01.032.081-.063.23-.153.305-.04.035-.087.064-.118.116-.063.1-.02.206.056.202a.223.223 0 0 0 .095-.034c.05-.029.102-.072.15-.113.298-.259.594-.533.885-.818.078-.076.161-.158.245-.206a.355.355 0 0 1 .07-.032c.105-.032.197.045.156.183-.04.129-.153.216-.255.275a1.262 1.262 0 0 1-.043.023l-.228.124a7.667 7.667 0 0 0-.072.04c-.37.214-.74.472-1.065.856a.542.542 0 0 0-.09.138c-.029.081-.004.148.037.177.134.099.37-.06.57-.164.122-.065.244-.11.36-.138.06-.013.124-.021.163.015.041.032.049.12.003.197a.318.318 0 0 1-.092.092.734.734 0 0 1-.43.122c-.136.003-.274.002-.425.086-.152.088-.313.284-.339.464a.262.262 0 0 0 .152.293c.095.042.206.053.287.121.014.014.029.031.032.057.003.06-.048.118-.104.15a.153.153 0 0 1-.098.025c-.1-.018-.163-.107-.243-.16a.221.221 0 0 0-.244-.008.332.332 0 0 0-.074.06.538.538 0 0 0-.135.34.604.604 0 0 0 .068.276c.106.246.22.482.345.709.054.103.112.208.113.356a.644.644 0 0 1-.196.456.346.346 0 0 1-.047.034c-.096.055-.187.04-.242-.023-.06-.07-.08-.194-.088-.318-.026-.395.039-.857-.077-1.179-.034-.089-.083-.167-.163-.187a.225.225 0 0 0-.151.033.375.375 0 0 0-.128.125c-.056.088-.092.21-.164.254-.044.025-.08.01-.122.031-.098.056-.15.222-.24.298a.188.188 0 0 1-.027.02c-.08.046-.149-.01-.184-.077-.042-.074-.08-.168-.168-.157a.174.174 0 0 0-.061.023.76.76 0 0 0-.218.244c-.298.47-.471.998-.654 1.506a.847.847 0 0 1-.124.25.273.273 0 0 1-.074.065c-.042.025-.084.028-.1-.006-.02-.036-.008-.096.007-.15.185-.718.82-1.43.922-2.123a.282.282 0 0 0 0-.12c-.022-.069-.1-.068-.174-.025a.308.308 0 0 0-.03.02c-.083.058-.158.152-.233.235a1.616 1.616 0 0 1-.374.306c-.057.033-.114.06-.17.08-.06.02-.133.027-.14-.039-.003-.06.045-.138.096-.179a.253.253 0 0 1 .031-.02c.04-.024.081-.032.12-.041a1.202 1.202 0 0 0 .393-.15.843.843 0 0 0 .322-.422c.05-.172-.023-.325-.154-.272-.024.014-.046.027-.068.042l-.04.024a.23.23 0 0 1-.038.018c-.048.023-.102.014-.1-.043.003-.057.059-.125.107-.153.045-.026.09-.036.138-.063.16-.101.245-.376.191-.51-.054-.133-.197-.154-.336-.144-.478.03-1.044.327-1.45.184-.111-.036-.223-.24-.004-.366.204-.118.382-.064.535-.022.307.089.635.134.975.139.083.002.17 0 .262-.051a.5.5 0 0 0 .223-.285c.029-.123-.022-.202-.037-.3-.011-.089.045-.244.117-.285a.075.075 0 0 1 .033-.01c.055-.005.068.071.092.119.035.065.115.081.196.035a.262.262 0 0 0 .028-.02c.09-.065.162-.213.145-.306-.02-.095-.115-.102-.195-.114-.08-.01-.165-.058-.139-.18a.287.287 0 0 1 .139-.181c.055-.032.115-.043.155-.021.085.045.114.17.17.258.047.076.136.119.228.065a.262.262 0 0 0 .057-.044.634.634 0 0 0 .126-.213 3.49 3.49 0 0 0 .228-.908c.014-.134.048-.312.16-.396a.181.181 0 0 1 .02-.014c.06-.035.118-.017.144.033.03.056.023.146.004.235-.05.214-.174.433-.244.652-.068.218-.06.467.094.463a.206.206 0 0 0 .1-.032.657.657 0 0 0 .198-.2c.085-.123.14-.264.193-.401l.37-.948c.052-.134.108-.275.2-.386a.447.447 0 0 1 .119-.105z"/><path fill="#f45170" d="M22.34 19.997c.114-.066.224-.078.283 0 .092.133 0 .415-.108.648-.32.707-.78 1.343-1.18 2.02-.17.288-.338.606-.368.894-.034.29.132.51.372.371.165-.1.3-.328.447-.509a.84.84 0 0 1 .217-.19c.098-.057.188-.066.223.017.057.147-.112.415-.273.548-.074.063-.156.116-.213.208-.113.18-.034.37.101.363a.4.4 0 0 0 .17-.06c.09-.052.184-.13.27-.204a35.544 35.544 0 0 0 1.588-1.468c.139-.135.29-.283.44-.37a.637.637 0 0 1 .125-.057c.188-.058.354.082.28.33-.072.23-.274.386-.458.492l-.077.042-.409.221-.129.074c-.663.382-1.328.845-1.911 1.535a.973.973 0 0 0-.161.248c-.052.146-.008.265.066.318.24.177.663-.107 1.024-.296a2.76 2.76 0 0 1 .645-.247c.109-.022.222-.038.292.027.074.057.088.215.005.353a.57.57 0 0 1-.165.165 1.206 1.206 0 0 1-.093.06c-.237.137-.466.157-.678.16-.244.006-.493.004-.763.155-.273.157-.561.508-.608.832a.47.47 0 0 0 .272.524c.17.077.37.097.515.219a.158.158 0 0 1 .057.102c.006.106-.085.212-.186.27a.275.275 0 0 1-.175.044c-.179-.032-.293-.192-.437-.289a.397.397 0 0 0-.437-.013.595.595 0 0 0-.134.107.965.965 0 0 0-.242.611c-.004.198.057.353.123.495.19.442.395.865.619 1.272.096.184.201.374.202.64.005.262-.129.63-.35.818a.621.621 0 0 1-.086.06c-.171.099-.336.07-.434-.04-.109-.128-.144-.348-.158-.57-.046-.71.07-1.54-.137-2.116-.061-.16-.15-.3-.293-.337a.404.404 0 0 0-.272.06.673.673 0 0 0-.229.224c-.1.158-.164.376-.295.456-.078.045-.144.018-.218.056-.175.1-.27.397-.43.534a.337.337 0 0 1-.05.035c-.144.083-.267-.016-.33-.137-.074-.132-.144-.302-.301-.282a.311.311 0 0 0-.11.041c-.14.08-.28.264-.39.438-.534.845-.846 1.791-1.175 2.703a1.52 1.52 0 0 1-.22.448.49.49 0 0 1-.134.117c-.076.044-.15.05-.18-.011-.035-.065-.014-.173.012-.268.332-1.289 1.47-2.568 1.655-3.811a.506.506 0 0 0 0-.215c-.04-.124-.179-.123-.313-.045a.553.553 0 0 0-.054.036c-.148.105-.283.273-.417.42a2.9 2.9 0 0 1-.672.55 1.918 1.918 0 0 1-.303.144c-.11.038-.24.048-.253-.07-.005-.107.082-.247.173-.32a.455.455 0 0 1 .056-.038c.073-.042.145-.057.214-.073.207-.047.417-.097.63-.22l.076-.047c.24-.163.487-.451.578-.76.09-.307-.041-.582-.276-.486a1.551 1.551 0 0 0-.122.075l-.072.042a.411.411 0 0 1-.068.033c-.087.04-.183.026-.179-.077.004-.102.104-.225.191-.275.082-.047.163-.064.248-.113.288-.181.44-.675.343-.914s-.354-.277-.603-.259c-.859.055-1.873.586-2.602.33-.2-.064-.4-.43-.008-.657.367-.212.686-.115.96-.038.55.158 1.14.239 1.75.247.148.005.305 0 .47-.091a.896.896 0 0 0 .4-.511c.052-.22-.04-.363-.066-.538-.02-.16.08-.437.21-.512a.135.135 0 0 1 .058-.02c.1-.007.123.13.167.216.063.116.206.146.35.062a.47.47 0 0 0 .05-.034c.162-.118.292-.383.261-.55-.035-.17-.205-.183-.35-.205-.143-.017-.296-.104-.249-.322a.515.515 0 0 1 .249-.326c.1-.058.207-.076.278-.038.153.082.206.307.306.465.084.135.243.212.41.116a.47.47 0 0 0 .1-.08c.1-.098.17-.243.226-.381.225-.551.346-1.102.41-1.63.025-.24.086-.56.286-.71a.326.326 0 0 1 .038-.027c.108-.062.211-.03.258.06.053.1.04.263.006.423-.09.383-.312.776-.437 1.17-.121.39-.107.838.168.83a.37.37 0 0 0 .18-.057c.127-.073.256-.21.355-.358.152-.223.252-.476.347-.721.22-.569.441-1.132.662-1.7.095-.24.195-.494.36-.694a.802.802 0 0 1 .214-.187z"/><path fill="#5ec363" d="M41.683 10.145c-1.18 2.08-3.92 5.25-6.1 7.22-.65.59-1.32 1.14-1.98 1.63h-.01c-.14.11-.28.21-.41.3-.742.516-1.545 1.083-2.65 1.59-.11.05-.23.1-.34.15-.22.1-.42.18-.62.24-.01 0-.01 0-.02-.01 0 .01.01.03.01.05.02.6 0 1.79-.71 2.12-1.08.51-3.65.51-4.86 1.41-.07.06-.18-.02-.16-.11.23-.98.97-3.94 1.88-4.76.57-.52 1.67-.5 2.22-.46.02 0 .03 0 .04.02v-.02c.06-.13.12-.27.2-.41.41-.82.978-1.588 1.51-2.26.19-.25.4-.49.61-.74.1-.12.22-.25.34-.38.55-.62 1.16-1.23 1.81-1.82 2.17-1.97 5.59-4.4 7.77-5.38.49-.22 1.03-.12 1.36.25.33.36.38.91.11 1.37z"/><path fill="#4c5c75" d="m28.004 19.55 1.534 1.696c.017.02.027.041.028.067.016.603-.006 1.793-.709 2.123-1.087.51-3.657.512-4.86 1.41-.078.058-.185-.018-.164-.113.227-.98.974-3.94 1.879-4.762.57-.518 1.671-.492 2.222-.457a.101.101 0 0 1 .07.035z"/><path fill="#78e75a" d="M27.973 19.517c.67-1.538 2.389-3.726 4.468-5.614 2.172-1.972 5.592-4.395 7.773-5.376.486-.218 1.028-.118 1.358.245.33.364.377.912.113 1.375-1.185 2.077-3.926 5.248-6.098 7.22-2.08 1.888-4.423 3.389-6.02 3.907l-1.594-1.757z"/><path fill="#5ec363" d="M27.972 19.516c.463-1.061 1.424-2.43 2.66-3.798.102 2.007 1.123 3.078 2.974 3.276-1.48 1.098-2.936 1.923-4.037 2.281-.88-.309-1.45-.866-1.597-1.76z"/></svg>