<svg xmlns="http://www.w3.org/2000/svg" enable-background="new 0 0 53 53" viewBox="0 0 53 53"><path fill="#41e1d4" d="M37.7,3l5.7,3.3c-0.2-0.1-0.5-0.1-0.9,0.1l-5.7-3.3C37.1,2.9,37.4,2.9,37.7,3z" class="color81d672 svgShape"></path><polygon fill="#d2d6d6" points="15 50.5 9.2 47.2 9.2 25.9 14.9 29.3" class="colord6d4d2 svgShape"></polygon><polygon fill="#e6e9e9" points="15 50.5 9.2 47.2 9.2 33 14.9 36.3" class="colore9e8e6 svgShape"></polygon><polygon fill="#c0c4c4" points="15 50.5 9.2 47.2 9.2 33 14.9 36.3" class="colorc4c2c0 svgShape"></polygon><polygon fill="#afb2b2" points="15 50.5 9.2 47.2 9.2 39.9 14.9 43.2" class="colorb2b0af svgShape"></polygon><polygon fill="#e6e9e9" points="14.9 29.3 43.8 12.6 43.8 33.8 15 50.5" class="colore9e8e6 svgShape"></polygon><polygon fill="#3db5ab" points="14.9 29.3 9.2 25.9 9.2 20.5 14.9 23.8" class="color3db542 svgShape"></polygon><polygon fill="#60cbc2" points="16.1 21.7 10.4 18.4 36.8 3.1 42.5 6.5" class="color6dcb60 svgShape"></polygon><polygon fill="#3db5ab" points="16.1 21.7 10.4 18.4 29.8 7.2 35.5 10.5" class="color3db542 svgShape"></polygon><polygon fill="#60cbc2" points="28.4 14.6 16.1 21.7 10.4 18.4 22.7 11.3" class="color6dcb60 svgShape"></polygon><path fill="#41e1d4" d="M14.9,23.8l-5.7-3.3c0-0.8,0.6-1.7,1.2-2.1l5.7,3.3C15.4,22.1,14.9,23,14.9,23.8z" class="color81d672 svgShape"></path><path fill="#2c9a91" d="M42.5,6.5c0.7-0.4,1.2-0.1,1.2,0.7l0,5.4L14.9,29.3l0-5.4c0-0.8,0.6-1.7,1.2-2.1L42.5,6.5z" class="color2c9a2c svgShape"></path><path fill="#1f2121" d="M21.9,22.1c0,1.2-0.8,2.6-1.9,3.2c-0.7,0.4-1.4,0.3-1.7-0.2c-0.1-0.2-0.2-0.5-0.2-0.8c0-0.3,0-0.6,0.1-0.8
					c0.2-0.9,0.8-1.8,1.5-2.3c0.1,0,0.1-0.1,0.2-0.1c0.6-0.3,1.1-0.3,1.5,0C21.7,21.2,21.9,21.6,21.9,22.1z" class="color21201f svgShape"></path><path fill="#ffffff" d="M21.1 20.9l.6.3c.3.2.5.6.5 1.1 0 1.1-.8 2.4-1.7 3L19.9 25c1-.6 1.7-1.9 1.7-3C21.6 21.5 21.4 21.1 21.1 20.9zM19.2 25.4l-.6-.3c.3.2.8.2 1.2-.1l.6.3C20 25.6 19.5 25.6 19.2 25.4zM21.4 20.3l.6.3c-.4-.2-1-.2-1.6.2l-.6-.3C20.5 20.1 21.1 20.1 21.4 20.3z" class="colorffffff svgShape"></path><path fill="#ffffff" d="M18.9,26l-0.6-0.3c-0.4-0.2-0.6-0.7-0.6-1.4c0-1.4,1-3.1,2.2-3.8l0.6,0.3c-1.2,0.7-2.2,2.4-2.2,3.8
							C18.3,25.3,18.5,25.8,18.9,26z" class="colorffffff svgShape"></path><path fill="#e6e9e9" d="M20.5,20.8c1.2-0.7,2.2-0.1,2.2,1.3c0,1.4-1,3.1-2.2,3.8c-1.2,0.7-2.2,0.1-2.2-1.3
							C18.3,23.2,19.2,21.5,20.5,20.8z M20.5,25.3c1-0.6,1.7-1.9,1.7-3c0-1.1-0.8-1.5-1.7-1c-1,0.6-1.7,1.9-1.7,3
							C18.7,25.4,19.5,25.9,20.5,25.3" class="colore9e8e6 svgShape"></path><g fill="#000000" class="color000000 svgShape"><path fill="#e6e9e9" d="M19.6 23.5l-.9.5c0 0 0 0 0 0 0-.1 0-.2 0-.2C19.1 23.8 19.4 23.7 19.6 23.5zM12.5 13.8l1.1-.7c.9-.5 2-.4 3.3.3l-1.1.7C14.5 13.4 13.3 13.3 12.5 13.8z" class="colore9e8e6 svgShape"></path><path fill="#cfd3d3" d="M20.2,24.6l-1.1,0.7c0.8-0.5,1.4-1.5,1.4-3c0-3-2.1-6.6-4.7-8.1l1.1-0.7c2.6,1.5,4.7,5.1,4.7,8.1
							C21.6,23,21.1,24.1,20.2,24.6z" class="colorcfd2d3 svgShape"></path><path fill="#c0c4c4" d="M19.2,17.9c0.8,1.4,1.2,3,1.2,4.4c0,1.5-0.5,2.5-1.4,3l1.1-0.7c0.8-0.5,1.4-1.5,1.4-3
							c0-1.4-0.5-3-1.2-4.4L19.2,17.9z" class="colorc4c2c0 svgShape"></path><path fill="#d2d6d6" d="M16.9,13.5l-1.1,0.7c1.4,0.8,2.6,2.2,3.4,3.7l1.1-0.7C19.5,15.6,18.3,14.3,16.9,13.5z" class="colord6d4d2 svgShape"></path></g><path fill="none" d="M12.4 15.5C12.4 15.4 12.4 15.4 12.4 15.5 12.4 15.4 12.4 15.4 12.4 15.5zM12.5 15.3C12.5 15.3 12.5 15.3 12.5 15.3 12.5 15.3 12.5 15.3 12.5 15.3zM12.6 15.2C12.6 15.2 12.6 15.2 12.6 15.2 12.6 15.2 12.6 15.2 12.6 15.2zM12 16.6C12 16.6 12 16.6 12 16.6 12 16.6 12 16.6 12 16.6zM12.2 15.8C12.3 15.7 12.3 15.7 12.2 15.8 12.3 15.7 12.3 15.7 12.2 15.8zM12.3 15.6C12.3 15.6 12.3 15.6 12.3 15.6 12.3 15.6 12.3 15.6 12.3 15.6zM12.2 15.9C12.2 15.9 12.2 15.9 12.2 15.9 12.2 15.9 12.2 15.9 12.2 15.9zM12.1 16.3C12.1 16.2 12.1 16.2 12.1 16.3 12.1 16.2 12.1 16.2 12.1 16.3zM12 16.9C12 16.8 12 16.8 12 16.9 12 16.8 12 16.8 12 16.9zM12 16.5C12 16.4 12 16.4 12 16.5 12 16.4 12 16.4 12 16.5zM12.1 16.1C12.1 16.1 12.1 16 12.1 16.1 12.1 16 12.1 16.1 12.1 16.1zM11.9 17.1C11.9 17 11.9 17 11.9 17.1 11.9 17 11.9 17 11.9 17.1zM12.7 15.1C12.7 15.1 12.7 15.1 12.7 15.1 12.7 15.1 12.7 15.1 12.7 15.1zM12.9 14.9C13 14.9 13 14.9 12.9 14.9 13 14.9 13 14.9 12.9 14.9zM12.8 15C12.8 15 12.9 15 12.8 15 12.9 15 12.8 15 12.8 15z"></path><path fill="#e6e9e9" d="M13,16.6c0-0.9,0.2-1.6,0.6-2c-0.2,0-0.5,0.1-0.7,0.3c-0.8,0.5-1.1,1.5-1.1,2.4c0,0.1,0,0.1,0,0.2l1.1-0.7
					C13,16.8,13,16.7,13,16.6z" class="colore9e8e6 svgShape"></path><path fill="#afb2b2" d="M20.5,22.2c0,1.5-0.6,2.6-1.4,3c-0.2-0.2-0.3-0.5-0.3-0.9c0-0.1,0-0.2,0-0.3c0.5-0.4,0.8-1.1,0.9-1.9
					c0-0.1,0-0.2,0-0.3c0-2.4-1.7-5.4-3.8-6.6c-0.8-0.4-1.5-0.6-2.1-0.5c0.1-0.2,0.3-0.3,0.5-0.4l-1.1,0.7c-0.8,0.5-1.1,1.5-1.1,2.5
					c0,0.1,0,0.1,0,0.2l-0.8,0.4c-0.1-0.4-0.1-0.7-0.1-1.1c0-3,2.1-4.2,4.7-2.7c2.3,1.4,4.3,4.5,4.6,7.2
					C20.5,21.7,20.5,21.9,20.5,22.2z" class="colorb2b0af svgShape"></path><path fill="#cfd3d3" d="M12 16.4c0 0 0-.1 0-.1C12.1 16.3 12 16.3 12 16.4zM11.9 17.3c0-.1 0-.2 0-.2C11.9 17.1 11.9 17.2 11.9 17.3zM11.9 17c0 0 0-.1 0-.1C12 16.9 12 17 11.9 17zM12 16.6c0 0 0-.1 0-.1C12 16.5 12 16.5 12 16.6zM12 16.8c0 0 0-.1 0-.1C12 16.7 12 16.7 12 16.8zM12.5 15.3C12.6 15.3 12.6 15.2 12.5 15.3 12.6 15.2 12.6 15.3 12.5 15.3zM12.7 15.2C12.7 15.1 12.7 15.1 12.7 15.2 12.7 15.1 12.7 15.1 12.7 15.2zM12.8 15C12.8 15 12.8 15 12.8 15 12.8 15 12.8 15 12.8 15z" class="colorcfd2d3 svgShape"></path><path fill="#afb2b2" d="M14.2,14.2l-1.1,0.7c0,0,0,0-0.1,0c0.2-0.1,0.4-0.2,0.7-0.3C13.8,14.4,14,14.3,14.2,14.2z" class="colorb2b0af svgShape"></path><path fill="#cfd3d3" d="M12.9 15C12.9 14.9 12.9 14.9 12.9 15 12.9 14.9 12.9 14.9 12.9 15zM12.5 15.4C12.5 15.4 12.5 15.4 12.5 15.4 12.5 15.4 12.5 15.4 12.5 15.4zM12.1 16C12.2 16 12.2 15.9 12.1 16 12.2 15.9 12.2 16 12.1 16zM12.2 15.8C12.2 15.8 12.2 15.8 12.2 15.8 12.2 15.8 12.2 15.8 12.2 15.8zM12.1 16.2C12.1 16.1 12.1 16.1 12.1 16.2 12.1 16.1 12.1 16.1 12.1 16.2zM12.4 15.5C12.4 15.5 12.4 15.5 12.4 15.5 12.4 15.5 12.4 15.5 12.4 15.5zM12.3 15.7C12.3 15.7 12.3 15.6 12.3 15.7 12.3 15.6 12.3 15.7 12.3 15.7z" class="colorcfd2d3 svgShape"></path><g fill="#000000" class="color000000 svgShape"><path fill="#1f2121" d="M39.7,11.8c0,1.2-0.8,2.6-1.9,3.2c-0.7,0.4-1.4,0.3-1.7-0.2c-0.1-0.2-0.2-0.5-0.2-0.8c0-0.3,0-0.6,0.1-0.8
					c0.2-0.9,0.8-1.8,1.5-2.3c0.1,0,0.1-0.1,0.2-0.1c0.6-0.3,1.1-0.3,1.5,0C39.5,10.9,39.7,11.2,39.7,11.8z" class="color21201f svgShape"></path></g><g fill="#000000" class="color000000 svgShape"><path fill="#ffffff" d="M38.9,10.6l0.6,0.3c0.3,0.2,0.5,0.6,0.5,1.1c0,1.1-0.8,2.4-1.7,3l-0.6-0.3c1-0.6,1.7-1.9,1.7-3
							C39.4,11.1,39.3,10.7,38.9,10.6z" class="colorffffff svgShape"></path><path fill="#ffffff" d="M37.1 15.1l-.6-.3c.3.2.8.2 1.2-.1l.6.3C37.8 15.3 37.4 15.3 37.1 15.1zM39.3 10l.6.3c-.4-.2-1-.2-1.6.2l-.6-.3C38.3 9.8 38.9 9.8 39.3 10z" class="colorffffff svgShape"></path><path fill="#ffffff" d="M36.7,15.7l-0.6-0.3c-0.4-0.2-0.6-0.7-0.6-1.4c0-1.4,1-3.1,2.2-3.8l0.6,0.3c-1.2,0.7-2.2,2.4-2.2,3.8
							C36.1,15,36.3,15.4,36.7,15.7z" class="colorffffff svgShape"></path><path fill="#e6e9e9" d="M38.3,10.5c1.2-0.7,2.2-0.1,2.2,1.3c0,1.4-1,3.1-2.2,3.8c-1.2,0.7-2.2,0.1-2.2-1.3
							C36.1,12.9,37.1,11.2,38.3,10.5z M38.3,15c1-0.6,1.7-1.9,1.7-3c0-1.1-0.8-1.5-1.7-1c-1,0.6-1.7,1.9-1.7,3
							C36.5,15.1,37.3,15.5,38.3,15" class="colore9e8e6 svgShape"></path></g><g fill="#000000" class="color000000 svgShape"><path fill="#e6e9e9" d="M37.4 13.2l-.9.5c0 0 0 0 0 0 0-.1 0-.2 0-.2C36.9 13.4 37.2 13.4 37.4 13.2zM30.3 3.5l1.1-.7c.9-.5 2-.4 3.3.3l-1.1.7C32.3 3 31.1 3 30.3 3.5z" class="colore9e8e6 svgShape"></path><path fill="#cfd3d3" d="M38,14.2l-1.1,0.7c0.8-0.5,1.4-1.5,1.4-3c0-3-2.1-6.6-4.7-8.1l1.1-0.7c2.6,1.5,4.7,5.1,4.7,8.1
							C39.4,12.7,38.9,13.7,38,14.2z" class="colorcfd2d3 svgShape"></path><path fill="#c0c4c4" d="M37.1,7.5c0.8,1.4,1.2,3,1.2,4.4c0,1.5-0.5,2.5-1.4,3l1.1-0.7c0.8-0.5,1.4-1.5,1.4-3
							c0-1.4-0.5-3-1.2-4.4L37.1,7.5z" class="colorc4c2c0 svgShape"></path><path fill="#d2d6d6" d="M34.7,3.1l-1.1,0.7C35,4.6,36.2,6,37.1,7.5l1.1-0.7C37.3,5.3,36.1,3.9,34.7,3.1z" class="colord6d4d2 svgShape"></path></g><g fill="#000000" class="color000000 svgShape"><path fill="none" d="M30.2 5.1C30.2 5.1 30.3 5.1 30.2 5.1 30.3 5.1 30.2 5.1 30.2 5.1zM30.3 5C30.3 5 30.3 5 30.3 5 30.3 5 30.3 5 30.3 5zM30.4 4.9C30.4 4.9 30.5 4.8 30.4 4.9 30.5 4.8 30.4 4.9 30.4 4.9zM29.8 6.3C29.8 6.3 29.8 6.3 29.8 6.3 29.8 6.3 29.8 6.3 29.8 6.3zM30.1 5.4C30.1 5.4 30.1 5.4 30.1 5.4 30.1 5.4 30.1 5.4 30.1 5.4zM30.1 5.3C30.2 5.2 30.2 5.2 30.1 5.3 30.2 5.2 30.2 5.2 30.1 5.3zM30 5.6C30 5.6 30 5.5 30 5.6 30 5.5 30 5.6 30 5.6zM29.9 5.9C29.9 5.9 29.9 5.9 29.9 5.9 29.9 5.9 29.9 5.9 29.9 5.9zM29.8 6.5C29.8 6.5 29.8 6.5 29.8 6.5 29.8 6.5 29.8 6.5 29.8 6.5zM29.8 6.1C29.8 6.1 29.9 6.1 29.8 6.1 29.9 6.1 29.8 6.1 29.8 6.1zM29.9 5.7C29.9 5.7 30 5.7 29.9 5.7 30 5.7 29.9 5.7 29.9 5.7zM29.8 6.7C29.8 6.7 29.8 6.7 29.8 6.7 29.8 6.7 29.8 6.7 29.8 6.7zM30.5 4.8C30.5 4.7 30.6 4.7 30.5 4.8 30.6 4.7 30.5 4.7 30.5 4.8zM30.8 4.6C30.8 4.6 30.8 4.5 30.8 4.6 30.8 4.5 30.8 4.6 30.8 4.6zM30.6 4.7C30.7 4.6 30.7 4.6 30.6 4.7 30.7 4.6 30.7 4.6 30.6 4.7z"></path><path fill="#e6e9e9" d="M31.5,4.3c-1.3,0.2-1.8,1.5-1.7,2.9l1.1-0.7C30.8,5.7,31,4.9,31.5,4.3z" class="colore9e8e6 svgShape"></path><path fill="#afb2b2" d="M38.3,11.9c0,1.5-0.6,2.6-1.4,3c-0.2-0.2-0.3-0.5-0.3-0.9c0-0.1,0-0.2,0-0.3c0.5-0.4,0.8-1.1,0.9-1.9
					c0.2-2.4-1.6-5.7-3.8-7c-0.8-0.4-1.5-0.6-2.1-0.5C31.6,4.1,31.8,4,32,3.8c-0.7,0.5-2.2,0.7-2.2,3.1c0,0.1,0,0.1,0,0.2L29,7.6
					c-0.1-0.4-0.1-0.7-0.1-1.1c0-3,2.1-4.2,4.7-2.7C36.2,5.3,38.3,8.9,38.3,11.9z" class="colorb2b0af svgShape"></path><path fill="#cfd3d3" d="M29.9 6c0 0 0-.1 0-.1C29.9 6 29.9 6 29.9 6zM29.8 7c0-.1 0-.2 0-.2C29.8 6.8 29.8 6.9 29.8 7zM29.8 6.7c0 0 0-.1 0-.1C29.8 6.6 29.8 6.6 29.8 6.7zM29.8 6.2c0 0 0-.1 0-.1C29.8 6.2 29.8 6.2 29.8 6.2zM29.8 6.4c0 0 0-.1 0-.1C29.8 6.4 29.8 6.4 29.8 6.4zM30.4 4.9C30.4 4.9 30.4 4.9 30.4 4.9 30.4 4.9 30.4 4.9 30.4 4.9zM30.5 4.8C30.5 4.8 30.5 4.8 30.5 4.8 30.5 4.8 30.5 4.8 30.5 4.8zM30.6 4.7C30.6 4.7 30.6 4.7 30.6 4.7 30.6 4.7 30.6 4.7 30.6 4.7z" class="colorcfd2d3 svgShape"></path><path fill="#afb2b2" d="M32,3.8l-1.1,0.7c0,0,0,0-0.1,0c0.2-0.1,0.4-0.2,0.7-0.3C31.6,4.1,31.8,3.9,32,3.8z" class="colorb2b0af svgShape"></path><path fill="#cfd3d3" d="M30.7 4.6C30.7 4.6 30.7 4.6 30.7 4.6 30.7 4.6 30.7 4.6 30.7 4.6zM30.3 5.1C30.3 5 30.3 5 30.3 5.1 30.3 5 30.3 5 30.3 5.1zM30 5.7C30 5.6 30 5.6 30 5.7 30 5.6 30 5.6 30 5.7zM30 5.5C30 5.5 30 5.4 30 5.5 30 5.4 30 5.5 30 5.5zM29.9 5.8C29.9 5.8 29.9 5.8 29.9 5.8 29.9 5.8 29.9 5.8 29.9 5.8zM30.2 5.2C30.2 5.2 30.2 5.2 30.2 5.2 30.2 5.2 30.2 5.2 30.2 5.2zM30.1 5.3C30.1 5.3 30.1 5.3 30.1 5.3 30.1 5.3 30.1 5.3 30.1 5.3z" class="colorcfd2d3 svgShape"></path></g><path fill="#ffffff" d="M16.2,22.4c-0.4,0.1-0.8,0.4-1.2,0.7c-0.3,0.3-0.6,0.7-0.7,1.1c0,0.2-0.2,0.2-0.3,0c-0.3-0.9-1-1.6-1.9-1.9
			c-0.1-0.1-0.1-0.3,0-0.3c0.4-0.1,0.8-0.4,1.2-0.7c0.3-0.3,0.6-0.7,0.7-1.2c0-0.1,0.2-0.1,0.3,0c0.2,0.5,0.4,0.8,0.7,1.2
			c0.3,0.3,0.7,0.6,1.2,0.7C16.4,22.2,16.4,22.4,16.2,22.4z" class="colorffffff svgShape"></path><g fill="#000000" class="color000000 svgShape"><polygon fill="#6d7a79" points="32.2 28.1 32.2 31.7 26.5 34.9 26.5 31.4" class="color6d797a svgShape"></polygon><path fill="#b6baba" d="M26.2,27.6c0.2-0.1,0.3,0.1,0.3,0.4l0,10.3c0,0.3-0.2,0.7-0.3,0.8l-1.6,0.9c-0.2,0.1-0.3-0.1-0.3-0.4
					l0-1.3l0-7.7l0-1.3c0-0.3,0.2-0.7,0.3-0.8L26.2,27.6z" class="colorb6b9ba svgShape"></path><path fill="#909393" d="M23.9,30.4c0.1-0.1,0.3,0,0.3,0.3l0,7.7c0,0.2-0.1,0.5-0.3,0.6l-1.5,0.9c-0.1,0.1-0.3-0.1-0.3-0.3l0-2.1
					l0-3.5l0-2.1c0-0.2,0.1-0.5,0.3-0.6L23.9,30.4z" class="color909293 svgShape"></path><path fill="#6d7a79" d="M22.2,33.9l0,3.5l-1.5,0.9c-0.1,0.1-0.2-0.1-0.2-0.3l0-2.6c0-0.2,0.1-0.5,0.2-0.6L22.2,33.9z" class="color6d797a svgShape"></path><path fill="#b6baba" d="M34.2,23c0.2-0.1,0.3,0.1,0.3,0.4l0,10.3c0,0.3-0.2,0.7-0.3,0.8l-1.6,0.9c-0.2,0.1-0.3-0.1-0.3-0.4l0-3.4
					l0-3.5l0-3.4c0-0.3,0.2-0.7,0.3-0.8L34.2,23z" class="colorb6b9ba svgShape"></path><path fill="#909393" d="M36.3,23.2c0.1-0.1,0.2,0.1,0.2,0.3l0,7.7c0,0.2-0.1,0.5-0.2,0.6l-1.5,0.9c-0.1,0.1-0.3-0.1-0.3-0.3l0-7.7
					c0-0.2,0.1-0.5,0.3-0.6L36.3,23.2z" class="color909293 svgShape"></path><path fill="#6d7a79" d="M38,24.8c0.1-0.1,0.2,0.1,0.2,0.3l0,2.6c0,0.2-0.1,0.5-0.2,0.6l-1.5,0.9l0-3.5L38,24.8z" class="color6d797a svgShape"></path></g></svg>