<svg xmlns="http://www.w3.org/2000/svg" enable-background="new 0 0 68 68" viewBox="0 0 68 68"><path fill="#e6e9e9" d="M53.4193115,43.9072723c-0.4209442,3.2430573-1.4739494,6.4525146-3.2142448,9.450901
					c-7.036602,12.1242638-22.5538902,16.2440605-34.6769104,9.2062416
					c-3.1399307-1.8218231-5.754529-4.2217178-7.7694497-6.9838371c-3.4768972-4.7818222-5.1764021-10.6298752-4.8274002-16.4911194
					c0.1151624-1.9453468,0.4605625-3.88591,1.0554373-5.784481c0.5529153-1.8494091,1.3336961-3.6676197,2.3459437-5.4114857
					c1.5891442-2.7381344,3.624445-5.0732746,5.95121-6.9646587c2.0496769-1.6611023,4.336853-2.9815922,6.7511387-3.9254837
					c6.9550838-2.7069349,15.0123062-2.3279352,21.9505844,1.6994915c1.4943886,0.8671303,2.8736458,1.8553963,4.1221924,2.970787
					c4.6882591,4.140173,7.5655365,9.8035355,8.3247375,15.8014927
					C53.7048035,39.6003876,53.7096062,41.7604256,53.4193115,43.9072723z" class="colore9e8e6 svgShape"/><path fill="#cdd4d3" d="M45.1886673,59.5279503c-7.9570618,7.1367683-19.9043217,8.6990166-29.6597443,3.0344887
					c-3.1357403-1.8207207-5.754528-4.2146454-7.7663627-6.9794083c-3.483942-4.7878494-5.1810503-10.6321716-4.8325739-16.4989243
					c0.112226-1.9444046,0.4607027-3.8774872,1.0564053-5.7768898c0.5507028-1.8544731,1.3373816-3.6751938,2.3487871-5.4172344
					c1.5848823-2.731081,3.6192164-5.0688248,5.9455037-6.9569778c1.798358-1.4498119,3.7539425-2.6411495,5.833004-3.5515099
					c-1.9553108,1.7420387-3.6751938,3.8100548-5.046051,6.1926613c-1.0116796,1.7421074-1.798358,3.56283-2.349061,5.405983
					c-0.5957031,1.8994026-0.9441795,3.8438053-1.0566797,5.7881413
					c-0.3482018,5.8668213,1.3489065,11.7110748,4.8328485,16.4876709c2.0118341,2.7648354,4.6193724,5.1700058,7.7663622,6.9907303
					C29.5327415,62.4725761,38.0295334,62.6748695,45.1886673,59.5279503z" class="colord4d0cd svgShape"/><path fill="#8ad1cb" d="M45.1137924,21.6652164c-1.254612-1.0988598-2.6291122-2.0917835-4.1174889-2.9556942
							c-1.1383133-0.6606464-2.3273392-1.2338428-3.5149078-1.7085533
							c-0.2080193,0.4257183-0.3346329,0.8788567-0.1416817,1.4201469c-0.413681,0.2087708-0.7981033,0.4341373-1.2519188,0.6780186
							c-0.1458282-0.0845871-0.3793488-0.2200794-0.6357269-0.3495922
							c-0.0571671,0.0644379-0.1201057,0.1059761-0.1602135,0.1413059c0.1994019,0.5643139,0.4154015,1.099369,0.6316452,1.6346149
							c-0.3875008,0.0288506-0.8149185,0.0927887-1.1039314,0.1201839
							c-0.0492554,0.1859226-0.0403481,0.4057713-0.1326027,0.4302788c-0.7596703,0.3003445-1.1589394,1.492691-2.2191429,1.0336113
							c-0.0201912,0.202776-0.0050507,0.4456615-0.0129852,0.6945667c-0.0401115,0.0353298-0.1030502,0.0768681-0.143158,0.1121979
							c-0.576643-1.0566177-1.4545307-0.9225063-2.3249149-0.6666145c-0.6856594,0.206852-1.3530769,0.4826889-1.9913998,0.7755852
							c-0.2181606,0.1073666-0.4045849,0.42836-0.4877148,0.6726761c-0.1436443,0.4824505-0.182539,0.9867115-0.3091526,1.4398499
							c-0.1265869,0.4533558-0.3867741,0.8680325-0.467207,1.3093529c-0.1391106,0.7774525,0.214056,1.1774502,1.0254097,1.2583981
							c0.2563725,1.709362-0.9926586,2.5841522-2.006958,3.6927204c0.193655,0.1709995,0.4041252,0.3127384,0.5576191,0.5186462
							c0.1765957,0.2001076,0.2897911,0.4415894,0.4264698,0.6767845c-0.23522,0.1364594-0.4643974,0.2962036-0.7183208,0.3635292
							c-0.9052811,0.2157288-1.042448,0.3507881-0.8266621,1.2565002c0.0979996,0.3687973,0.3805599,0.6890106,0.5706234,1.0335426
							c0.0891228,0.1491737,0.2546787,0.4014549,0.1809139,0.4951363c-0.4574089,0.7880211-0.2219486,1.8610077-1.0173817,2.4919281
							c-0.1597824,0.1412392-0.2662067,0.3916016-0.3324947,0.6068497c-0.40308,1.736515-0.200985,3.7070847,1.8625278,4.6900787
							c0.9261951,0.4206619,1.7437553,0.5244446,2.6391373-0.0094376c0.3784046-0.2484436,0.7921124-0.4569931,1.2471409-0.6025772
							c1.1224461-0.4214211,1.7586079-0.0718956,2.203104,1.0445328c0.1148415,0.3397255,0.3743286,0.6659584,0.6551857,0.8874931
							c0.7541618,0.515789,1.145546,1.1526527,1.0660553,2.0624962c-0.0811653,1.1820107,0.3726997,2.1478081,1.0634041,3.0751686
							c0.4603729,0.618618,0.9269485,1.2600708,1.3997345,1.9243546c0.6845245,0.9047356,1.4329109,1.0270157,2.2838364,0.2332077
							c1.0510597-0.9701881,1.5533829-2.2394066,1.7931404-3.6607399c0.1114464-0.6962395,0.2860489-1.4340477,0.6065369-2.0868301
							c0.3418579-0.7574844,0.4362717-1.4244118-0.0425606-2.1119919c-0.6028214-0.8766975-0.5466232-1.7804947-0.0385284-2.6561928
							c0.2541695-0.4377556,0.5727348-0.8185577,0.7224007-1.277935c0.2450447-0.6575737,0.4026184-1.3660545,0.514061-2.0622978
							c0.0912857-0.493248-0.2282524-0.5811806-0.6128922-0.3557892c-0.2813225,0.148922-0.5213165,0.3608322-0.7982941,0.4343834
							c-0.2597275,0.0442047-0.5393982-0.0792503-0.8236084-0.1270752
							c-0.0016441-0.0982437-0.0199432-0.1676636-0.0151405-0.2428856c1.4174767-0.4257393,2.3118591-1.4285889,2.8896446-2.6928215
							c0.1400795-0.3087006,0.1085587-0.8929901-0.0973244-1.1099091c-0.2116814-0.2400284-0.8449821-0.3930206-1.0741577-0.2332535
							c-0.905983,0.5860062-1.426136-0.1645393-2.0560913-0.4912338c-0.0583496-0.0336571-0.0379715-0.2366791-0.0533028-0.4793167
							c0.9600143,0.7324905,1.8962555,0.6320343,2.8940048,0.3917694c1.7588768-0.4421196,3.3757286-0.3037605,4.6435928,1.3101807
							c0.4603424,0.6184044,1.1899948,1.0419388,1.7934952,1.5481453c0.1849937-0.4192657,0.1576004-0.7082787,0.1825676-0.986496
							c0.1777611-0.9112701,0.3264275-1.8396034,0.5856476-2.7230186c0.0831299-0.2443161,0.6645012-0.4728127,0.9948616-0.4370232
							c0.4809952,0.0451584,0.9187469,0.2993279,1.3105659,0.565506
							C50.9780006,28.5025253,48.5321579,24.6833363,45.1137924,21.6652164z M32.4068184,23.0885544
							c-0.3161392,0.9480324-0.6342468,0.9583683-1.5433578,0.1381836
							C31.395359,23.1842041,31.8748951,23.1308727,32.4068184,23.0885544z M29.0945606,25.7700672
							c-0.1563797-0.4026546-0.0651226-0.8961182-0.0370255-1.3480167c0.0218372-0.1045341,0.292387-0.2008991,0.4646397-0.2960281
							c0.0427799,0.1614571,0.1319008,0.3106327,0.1453667,0.4550571c0.0137119,0.1446152-0.0939255,0.2966766-0.0802422,0.4410744
							c0.0564613,0.3058548,0.136219,0.6056614,0.2157574,0.9054966c0.2597256-0.04422,0.5134354-0.1114922,0.7671452-0.1787777
							l0.7611008-0.2020741c-0.1986771,0.274868-0.2202969,0.3793736-0.3063431,0.4267139
							c-0.6904392,0.2822895-0.9078484,0.8584232-1.0193214,1.5544472c-0.0835896,0.6147842-0.4835873,0.9679508-1.2720814,0.881012
							C29.3692341,27.5488758,29.4208698,26.7204895,29.0945606,25.7700672z M35.3568687,34.1062927
							c-0.6229095,0.1655579-1.2593422,0.1862564-1.8955269,0.2071457
							c-0.3704681-0.0004616-0.7361336-0.0761452-0.7920876,0.4572105c0.0012131,0.0983009-0.1064224,0.2503624-0.1295013,0.256382
							c-0.7546196-0.1453209-1.8643246-0.0480232-2.2066956-0.5003929
							c-0.4896278-0.6352081-0.8307858-0.6186485-1.3598213-0.3795586c-0.5982132,0.2575645-1.1488438,0.601368-1.7177715,0.8757477
							c-0.2185974,0.1074066-0.48456,0.1285782-0.8764038,0.2328033c0.6219959-1.0044823,1.1423435-1.8340569,1.6689262-2.6405792
							c0.391119-0.5727844,0.8204288-0.9089184,1.5282173-0.3810692c0.3918457,0.2663956,0.9143772,0.3744926,1.4672451,0.5981674
							c-0.2215366,0.2808571-0.3462067,0.4622307-0.5110092,0.6787224c0.7469559,0.0239983,1.0184002-0.8135109,0.4333878-1.2505379
							c-0.3332481-0.2325516-0.6835289-0.4358025-1.1212807-0.6899586c0.9850349,0.0840778,1.3999577,0.3444557,2.8955383,1.7001553
							c0.0511475-0.4581337,0.0684471-0.8576698,0.1306381-1.3679752c0.2102509,0.1417561,0.4084663,0.2373562,0.5497055,0.3971348
							c0.4127884,0.5323868,0.9062538,0.623642,1.504467,0.3660774c0.4197235-0.1854858,0.8456573-0.3481178,1.0573425,0.2625389
							C36.1934357,33.5385857,35.9164314,33.9825478,35.3568687,34.1062927z M36.7563667,34.8212166
							c1.382412,0.7437935,2.5296288,1.6242867,3.4058647,2.9718056
							C38.8574142,37.6208191,37.022377,36.0097351,36.7563667,34.8212166z" class="colorbbd18a svgShape"/><path fill="#55b5ad" d="M45.1169701 21.6654167c-1.2618942-1.1013412-2.62714-2.0879192-4.1184196-2.9598045-1.1357193-.6539154-2.3288574-1.2275162-3.5218544-1.709322-.2065582.4359417-.3327332.8833675-.1377983 1.4225197-.0917244.0458641-.1949348.1032791-.2868004.1491432.8604012.3785973 1.7093201.814539 2.5352745 1.2848625 1.4914207.8718853 2.8566666 1.8584633 4.1185608 2.9598045 2.9827003 2.6270695 5.2198334 5.8736763 6.6423531 9.4299793.2064209-.1032104.4817352-.172039.665329-.1491432.4818764.0459328.9291611.2982864 1.319313.5736008C50.9793053 28.5027046 48.535614 24.6825676 45.1169701 21.6654167zM35.8361359 18.9465504c-.1146927-.0574169-.2410088-.1262474-.3785286-.195076-.057415.0574169-.1263161.1032791-.1607666.1376591.1033516.2868004.2065582.5621891.3212509.8375053.1033516-.0573463.2065582-.1032791.3097687-.1606255C35.8476181 19.3480434 35.8246498 19.1415539 35.8361359 18.9465504zM36.0656586 18.1434937c-.1263161.263834-.2180405.5277386-.2295227.8030567.1032066.0573444.1835899.1146908.2523499.1491413.3440781-.1835918.6538429-.3671131.9636116-.5277386C36.7193642 18.4188099 36.3982544 18.2811527 36.0656586 18.1434937zM33.404068 21.7915916c-.0229645.1146927-.0344505.2409382-.057415.3212509.1835899-.0917969.3442154-.2179718.4933586-.3671131C33.6793861 21.7686253 33.5302429 21.7801094 33.404068 21.7915916zM32.1764832 23.1109047c-.3097687.2293835-.6538448.355629-1.124239.1491413 0 .03438-.0114822.0802422 0 .1146927.7686768.6653976 1.0669613.5965672 1.3537617-.2868023C32.3257637 23.0994205 32.2453804 23.0994205 32.1764832 23.1109047z" class="color97b555 svgShape"/><path fill="#55b5ad" d="M32.8419495,22.2045689c0.5161858,0.3671131,0.7685356,0.2179699,1.0094032-0.4703236
							C33.5645523,22.0095634,33.2664108,22.2505016,32.8419495,22.2045689z M34.8151054,20.6443882
							c0,0.0114841-0.0114822,0.0344505-0.0114822,0.0458622c0.0459328-0.0114117,0.0918655-0.0343781,0.1261749-0.0573444
							C34.8840065,20.632906,34.849556,20.6443882,34.8151054,20.6443882z M37.476696,16.9962902
							c-0.0803833,0.1720371-0.1492805,0.3441467-0.195076,0.5162544c0.1146927,0.0688305,0.2065582,0.1146927,0.2753181,0.1605549
							c0.2408676-0.1261749,0.4589119-0.2408676,0.665329-0.355629
							C37.9699173,17.2027779,37.7290497,17.0994987,37.476696,16.9962902z M38.1992989,50.4946442
							c-0.4702492-0.6653976-0.9406433-1.307827-1.3995514-1.9272919c-0.6882973-0.9292336-1.1472054-1.8929138-1.0668221-3.0745659
							c0.0802422-0.9062653-0.3097687-1.5486984-1.0669632-2.0649529c-0.2753143-0.2179718-0.5391502-0.5506363-0.6538429-0.8833008
							c-0.4360809-1.1128235-1.0784454-1.4684525-2.2026806-1.0439949c-0.4474258,0.137661-0.8718853,0.3556328-1.2389297,0.5965691
							c-0.9063358,0.5391541-1.7208042,0.4359436-2.6501064,0.0114861
							c-2.0535393-0.9866486-2.2599583-2.9483223-1.8584652-4.6920967c0.0687599-0.2064857,0.1721096-0.4589081,0.3325939-0.6079788
							c0.5622597-0.4474258,0.6080513-1.1128235,0.7573338-1.7437744c-0.1950741,0.0803146-0.4360828,0.1032104-0.7686768,0.1950073
							c0.3096275-0.5047722,0.5964279-0.9636116,0.8717461-1.3995552c-0.011343-0.0114822-0.011343-0.0229683-0.0228271-0.0344505
							c-0.1950741-0.3441467-0.4703922-0.6653976-0.5736008-1.0324402
							c-0.0114841-0.0459328-0.0229664-0.0917969-0.0229664-0.1377296
							c-0.2065582,0.1147614-0.4014931,0.2409401-0.6193943,0.2982864c-0.9063358,0.217968-1.044136,0.355629-0.8260937,1.2619629
							c0.0917263,0.367115,0.3785267,0.6882973,0.5736008,1.032444c0.0802441,0.1491394,0.2524929,0.4015617,0.1721096,0.4932861
							c-0.4474258,0.7915764-0.2179012,1.8585358-1.0095444,2.4894829
							c-0.1606255,0.1491432-0.2638359,0.3900108-0.3325939,0.6079826c-0.4016342,1.7437706-0.2066994,3.705513,1.8583241,4.6920929
							c0.9293022,0.4244576,1.7437706,0.527668,2.6386242-0.0114822c0.3786659-0.2409401,0.791502-0.4589119,1.250412-0.5965691
							c1.1243763-0.4244614,1.7552567-0.0803146,2.2026825,1.0439949c0.1146927,0.3326645,0.3785248,0.6653252,0.6539841,0.883297
							c0.7570534,0.5162582,1.1472015,1.1586876,1.0668182,2.0650253c-0.0803795,1.1815796,0.3671837,2.1452637,1.0668221,3.0744934
							c0.4589081,0.6194649,0.91782,1.261898,1.3995552,1.9272957c0.6769524,0.9062653,1.4340057,1.0210266,2.2829247,0.229454
							c0.3212509-0.2982826,0.5965691-0.6310196,0.8260918-0.9866486
							C39.2547798,51.4009132,38.7041435,51.1714554,38.1992989,50.4946442z" class="color97b555 svgShape"/><path fill="#55b5ad" d="M26.5782642,32.2999458c0,0.1032791,0.0229664,0.2179718,0.0572758,0.355629
							c0.0344486-0.0228958,0.068758-0.0343781,0.1032085-0.0573463
							C26.6813316,32.4950218,26.6240559,32.4032249,26.5782642,32.2999458z M31.1441116,23.2026291
							c-0.0114841,0.0688305-0.0344505,0.1491432-0.0459328,0.2179718c0.7342262,0.6195354,1.0210266,0.5392227,1.307827-0.3326645
							C31.9700642,23.1223164,31.5684299,23.1682491,31.1441116,23.2026291z M35.6984749,19.9560947
							c-0.2523499,0.2179718-0.4932175,0.5047722-0.7686768,0.6768112c0.2868004-0.0229683,0.6538429-0.0803127,0.9980621-0.1032104
							C35.8476181,20.3346214,35.7788582,20.1510983,35.6984749,19.9560947z M37.28162,17.5125446
							c-0.1032066-0.057415-0.2295227-0.1147614-0.3555603-0.1835918c-0.057415,0.0688305-0.1263123,0.1032791-0.1607628,0.1376591
							c0.1263161,0.3556309,0.2523499,0.6998482,0.4016342,1.0439949c0.0572739-0.0344505,0.1146889-0.0573463,0.1719666-0.0917969
							C37.224205,18.0861473,37.224205,17.7878628,37.28162,17.5125446z" class="color97b555 svgShape"/><path fill="#8ad1cb" d="M24.4153862,48.6889915c-0.1808662,0.7145424-0.1525021,1.4722939-0.3100739,2.1807861
							c-0.0910397,0.4934273-0.2270184,1.0972099-0.5638294,1.4090271c-0.6618595,0.669384-0.9760838,1.3454247-0.8818932,2.2583961
							c0.0915508,0.7164154-0.0845108,1.3557358-0.6949787,1.5671616c-0.0403767,0.4055672,0.023777,0.8329582-0.1191635,0.9451294
							c-1.0429058,0.7212563-0.5614033,1.6056213-0.3977909,2.5002975c0.0884438,0.5196686,0.2510872,0.9456024,0.4995289,1.3240089
							l0.023077-0.0060196c0.3082542,0.5105515,0.7536736,0.8860397,1.3776073,1.1896553
							c-0.0509319,0.0874672-0.0787868,0.1689339-0.1295013,0.2563705c-0.3072834-0.0417976-0.6993732,0.0622368-0.91605-0.1023216
							c-0.9122677-0.6467094-2.0320644-1.2379608-2.5659294-2.1331215c-0.4452038-0.746151-1.1544495-1.3724899-1.4271297-2.2133713
							c-0.2972412-0.9335709-0.5944271-1.866703-0.8685913-2.8062897c-0.4317837-1.440773-1.0807076-2.6756325-2.5724306-3.3658333
							c-0.7572908-0.3421059-1.4038143-1.0099564-2.0887718-1.544014c-0.6909752-0.5571365-0.805357-1.2673302-0.47575-2.0709381
							c0.1741428-0.3673401,0.2899332-0.7683334,0.3533621-1.1801224c0.0944138-0.6669312-0.1864719-0.8886833-0.7664137-0.5619164
							c-0.4537888,0.2441025-0.8194799,0.1682014-1.1080313-0.1748734
							c-0.6126509-0.7262306-1.4316425-0.9282799-2.3184357-1.0140076c-0.3303328-0.0355721-0.660912-0.0713463-0.9972615-0.1299858
							c-0.9915161-0.1073189-1.6471887-0.6245613-1.9566574-1.6040535
							c-0.2299008-0.6794243-0.5288138-1.3408127-0.8046236-2.0080109l-0.2537107,0.0672722l0.4898953,1.8448792
							c-0.063158,0.0415649-0.1491752,0.0891228-0.2123609,0.1304703c-0.3099275-0.6090088-0.6826062-1.1767235-0.8942351-1.7869492
							c-0.5117841-1.3701363-0.768646-2.709259-0.0308902-4.114975c0.0278838-0.0812302,0.0785694-0.1689072,0.1295028-0.2563705
							c0.5881212-0.9461136,0.3634317-2.0716629,0.0587697-3.1263618l-0.0672853-0.2537117
							c0.0201621-0.2029915,0.0403516-0.4057693,0.0605135-0.6087646c0.5462642-1.8485088,1.3244004-3.6597691,2.3406172-5.4109478
							c0.1357365-0.2333298,0.2541695-0.4377537,0.4019151-0.6251469c0.1614561-0.0427799,0.3690391-0.0978107,0.5475249-0.1699142
							c0.7534089-0.3235989,1.4986634-0.027647,2.1312575,0.4956036c0.099947,0.0970421,0.2580261,0.2277451,0.3795929,0.2202816
							c0.7500868-0.1496849,1.5894852-0.1504383,2.22616-0.5415783c0.40769-0.2316284,0.5467453-1.0095177,0.7180557-1.5731792
							c0.1772738-0.5410213,0.214982-1.143362,0.765152-1.1166935c-0.1342793,0.3318176-0.4175444,0.7525139-0.4285831,1.1753159
							c0.0117922,0.4165955,0.2787247,0.8641758,0.4180994,1.2963619c0.0924711-0.0245228,0.1676655-0.0199356,0.2661533-0.0213928
							c-0.0167875-0.3411293,0.0360346-0.7008018-0.0036135-1.0359402c-0.0901194-0.6181316-0.017107-1.180582,0.5748711-1.4611969
							c0.5919781-0.2806168,1.0700579-0.0618038,1.5104551,0.3889351c0.3118458,0.3370285,0.7604237,0.539053,1.025898,0.8881454
							c0.2885513,0.3430748,0.4279003,0.7750549,0.6962891,1.3211117c-0.0771389,0.2671871-0.2926025,0.571558-0.7671185,0.178997
							c-0.2757874,0.5422726,0.6210976,1.3165474-0.3259945,1.4689293
							c-0.4442043,0.0934391-0.9600677-0.3622952-1.4902658-0.5917263c0.2676373-0.2933159,0.5309296-0.5112629,0.6479321-0.8139572
							c0.123456-0.2796745,0.1698532-0.6621513,0.0564413-0.9036064c-0.0783262-0.2015381-0.4867678-0.4386768-0.6883326-0.3605671
							c-0.2075825,0.0550327-0.3000784,0.4499798-0.4648552,0.6666851
							c-0.3123322,0.4038544-0.6248817,0.8077354-0.9374313,1.2116165c0.1873932,0.1477451,0.4454193,0.3754902,0.7325411,0.6202946
							c-0.8673086,0.4523945-0.9718132,0.4307861-1.133996-0.3656158c-0.6140585,0.7555904-1.2235556,1.43577-1.699235,2.1546001
							c-0.4357605,0.6837444-0.2853708,1.0635509,0.4411507,1.2901382c0.7330017,0.2498245,1.3213882,0.513361,1.1849756,1.4878178
							c0.4806747-0.7942963,1.271328-1.3497925,1.1571646-2.4306355c-0.0533037-0.4793186,0.1532822-1.0033073,0.3490438-1.4751511
							c0.1910124-0.3961887,0.7825298-0.3063354,1.0958042,0.128952c0.1595383,0.2292023,0.2729235,0.4704533,0.4279013,0.7750664
							c0.1830482-0.147501,0.3092022-0.2301712,0.4122505-0.3070393c0.0968418-0.0997009,0.1708221-0.1934128,0.3755169-0.4452038
							c0.5242271,1.4160194,0.9884548,2.70014,1.5124931,4.1164036c-0.4103603,0.0348396-0.7053909,0.0391579-1.092701,0.0677643
							c0.1847763-0.419239,0.2957611-0.7450104,0.4300404-1.076828c-0.0353298-0.0401077-0.0708504-0.0799713-0.1061802-0.120079
							c-0.2508221,0.2640457-0.4831276,0.5974808-0.7875519,0.7522125c-0.281538,0.1489487-0.664259,0.102375-1.09165,0.1665306
							c0.2669315,0.4475784,0.5107861,0.901165,0.7962074,1.4179344c-0.1201077,0.1059647-0.3247757,0.3579597-0.5215607,0.3606415
							c-1.3648443,0.0663109-1.8640623,1.1616173-2.4814672,2.0909309c-0.4648829,0.6664658-0.923748,1.3560143-1.2718439,2.0904427
							c-0.2188387,0.4778633-0.2334709,1.0741882-0.341568,1.5967178c-0.0478277,0.2842064-0.0727949,0.5624237-0.1037807,0.8175621
							c-0.0694208,0.0182991-0.1446142,0.01371-0.1967592,0.0028877c-0.0828867-0.1261253-0.2011042-0.2923584-0.2147875-0.4367561
							c-0.0113325-0.7870636-0.5168047-0.9242592-1.0982046-0.6959763c-0.753624,0.3236389-1.4763165,0.7623329-2.1701317,1.2181053
							c-0.1893101,0.1242485-0.3401861,0.485321-0.342104,0.7573013c0.0363274,0.5090675,0.1710882,1.0162392,0.2535143,1.5128365
							c0.4197254-0.1854782,0.8228273-0.3419113,1.2365341-0.5504761c0.1950855-0.1013374,0.3553295-0.2424126,0.7274714-0.514122
							c-0.0775728,0.6378593-0.1179237,1.0436325-0.156847,1.5476646c0.3243437,0.0127258,0.6715183,0.0192299,0.9958334,0.0317268
							c0.0475836,0.086235,0.0891218,0.1491776,0.1074209,0.2185974c0.0980005,0.3687935,0.1542463,1.0453072,0.2818298,1.0609055
							c0.4348392,0.0571938,0.9835787-0.0144081,1.3389063-0.2568321c1.0645266-0.8257637,2.2114792-1.1549339,3.5193748-0.7862129
							c0.3195362,0.0879326,0.6052017,0.2342491,0.9309731,0.3452339c0.5638809,0.1712837,1.1155071,0.2964401,1.6625462,0.496788
							c0.354866,0.1280441,0.7620964,0.2668839,0.9631729,0.5590286c0.418993,0.5552063,0.921175,0.8665543,1.5991154,0.9085808
							c0.759182,0.0699043,1.5522652,0.0816498,2.3008671,0.2038918
							C24.4903145,47.4839172,24.6051846,47.8238754,24.4153862,48.6889915z" class="colorbbd18a svgShape"/><path fill="#55b5ad" d="M12.8805809 45.4239578c.2295246-.172039.4703922-.3097.722743-.4244614-.1376581.0803108-.2753172.1721077-.4016333.2753181C13.1101055 45.3322296 12.9952726 45.389576 12.8805809 45.4239578zM4.4486628 41.4775734l.4932189 1.8355675c-.068759.0458641-.1490016.0917969-.2179012.1376572-.3097672-.6080513-.6769509-1.1816521-.8833692-1.7896347C3.3244257 40.29599 3.0720747 38.9537811 3.8061616 37.542675c.0229664-.0803146.0803826-.1605568.1263156-.2523537.5850852-.952198.3670433-2.0764351.057276-3.1318436L3.920994 33.9060593c.0229664-.1950073.0457928-.4014931.0687592-.6079826.5391521-1.8470516 1.3193121-3.6595821 2.3401999-5.4033546.1377988-.2409363.2524915-.4474258.4016333-.6309471.1376591-.0344505.2982841-.0803127.4472861-.1376591-.1030688.1376591-.1949348.2753181-.2868009.4359436-1.0094047 1.7551842-1.7895646 3.5677853-2.3401999 5.4147663-.0114832.2064896-.0343094.4014931-.0572762.6080513l.0687594.2523499c.3097677 1.0554085.5278091 2.179718-.0572762 3.1318436-.057416.0803146-.1033487.1721115-.1263156.2524223-.7455699 1.4110374-.4817357 2.7418327.0229669 4.1184235.0114832.0459328.0344496.0917931.057416.1376572H4.4486628zM9.9093628 43.1869659C9.8174973 43.23283 9.725771 43.2786903 9.6340446 43.3131409c.1146927-.0803108.2523518-.1835899.4358034-.3212509 0 .0344505-.0114832.0803146-.0114832.1147614C10.0010881 43.1295509 9.9552956 43.1639977 9.9093628 43.1869659z" class="color97b555 svgShape"/><path fill="#55b5ad" d="M23.343071 62.0584068c-.0459328.0917969-.0688992.1721077-.1261749.2524223-.3097687-.0344505-.6997776.0688286-.9176788-.1032791-.9063358-.6424332-2.0305729-1.2389297-2.558382-2.1337814-.4474258-.7457123-1.1586876-1.3651772-1.4340038-2.2140961-.2982845-.9292297-.5964279-1.8584633-.8718872-2.7991791-.4244595-1.445488-1.0784435-2.6730042-2.5697241-3.3727798-.7571936-.3326645-1.3995543-1.0095444-2.0878487-1.5372849-.6884336-.5621185-.8029861-1.2733803-.4703922-2.0764351.1721077-.3670425.2868004-.7686081.3555603-1.1815834.0918655-.6653976-.1949358-.8833694-.7685375-.5621185-.458909.2523499-.8259525.172039-1.1127539-.1721077-.6080513-.722744-1.4340038-.9292336-2.3173733-1.0095444-.3327332-.0343819-.6654673-.0688324-.9982014-.1261749-.9864383-.1146927-1.6404223-.6309509-1.9501901-1.6061134-.0344496-.1146927-.0802426-.2293854-.1261754-.3441467.0459328-.0228996.0917258-.0573463.1261754-.0803146l-.4932189-1.846981.2523513-.0573463c.2753177.6653976.5736017 1.3192444.8029861 2.0076065.3097677.9750938.9637518 1.4913521 1.9616733 1.5946312.3327341.0688286.6654682.1032066.9982014.1376572.8144703.0688286 1.5830069.2523499 2.1680918.8489189.0229664.1032104.057416.172039.0918655.172039.0229664 0 .0459328.0114822.0803833.0114822.2868004.3212509.6423607.3900833 1.0897865.1491432.5736017-.3211784.8604031-.1032104.7570543.5621185-.0572767.4130478-.1719685.8145409-.3440771 1.1816521-.3325939.8030586-.2180414 1.5143166.4703922 2.0764351.6882944.5277405 1.3306551 1.2045517 2.0878487 1.5372849 1.4912815.6882935 2.1452656 1.9272957 2.569725 3.3727112.2754574.9407158.5736008 1.8699493.8718853 2.7991791.2753181.8489914.986578 1.4684563 1.4225216 2.2141647.5392914.894783 1.6635284 1.4913521 2.5698643 2.1337814.0915871.0688286.206419.0917969.3325939.0917969C23.2512054 62.0125427 23.2971382 62.035511 23.343071 62.0584068zM4.701014 41.4087448c.2293844.550705.4817357 1.1013412.6882939 1.6634598-.0343094.0229645-.0572762.0344467-.0917258.0573463-.2868009-.5621185-.6195345-1.0897903-.8374362-1.6519775L4.701014 41.4087448zM12.0086946 27.2637749c-.6308775.4014931-1.4683142.4014931-2.2256479.5506344-.1145515 0-.2753172-.1261749-.3785267-.229454-.6308775-.5162544-1.3765879-.8144703-2.1337814-.493288-.0229664.0114822-.0574164.0229664-.091866.0344486.0344496-.0688286.0803828-.1262455.1263156-.1835918.1604853-.0458622.3671837-.1032085.5391521-.172039.7571936-.321249 1.5029039-.0229664 2.1337814.4932899.1032095.1032085.2639751.2293854.3785267.2293854.5965691-.1261768 1.2390699-.1490726 1.7897053-.3441486C12.1119041 27.1949463 12.0659704 27.2408085 12.0086946 27.2637749z" class="color97b555 svgShape"/><path fill="#8ad1cb" d="M20.9285145,43.79422c-0.423151-0.7345009-0.8463039-1.4690018-1.269455-2.2035027
							c-0.0261955-0.0454712-0.0549812-0.0934448-0.102005-0.1167336c-0.1058311-0.0524216-0.2218132,0.046463-0.3383102,0.0658646
							c-0.2154598,0.035881-0.3696003-0.1947784-0.5588322-0.303875c-0.3076611-0.177372-0.6964474-0.0188103-0.9983826,0.1681404
							c-1.1066761,0.6852188-1.9663725,1.7449226-3.1421499,2.303318c-0.0389442-1.1790352-0.0333157-2.3575706-0.0001459-3.5366211
							c0.0249739-0.8877411,1.0902643-1.110157,1.5454254-1.7701416c0.2119884-0.3361702,0.2530613-0.7530861,0.4302387-1.1088333
							c0.162693-0.3266678,0.4419117-0.5937805,0.7754612-0.7418442c0.112608-0.049984,0.2324009-0.0875778,0.3326664-0.1591721
							c0.2996502-0.2139626,0.3343143-0.6526794,0.5789871-0.9278259c0.3054047-0.3434448,0.8336048-0.3396912,1.2921829-0.3091774
							c-0.0347958,0.3980331,0.2065887,0.8053284,0.5724506,0.9659081c0.0688877,0.0302353,0.1445217,0.0526314,0.2187977,0.0406876
							c0.1041641-0.0167465,0.1862507-0.0973206,0.2485752-0.1824417c0.33568-0.4584618,0.2811108-1.0844116,0.2115898-1.6483574
							c0.2410221,0.0287552,0.4269199,0.2181435,0.5917454,0.3963356c0.5240574,0.5665512,1.0481129,1.1331024,1.5721703,1.6996536
							c0.275631,0.2979813,0.5601482,0.6113777,0.6711388,1.0018234c0.167572,0.5894737-0.094656,1.206562-0.3511562,1.7631302
							c-0.6112099,1.3262444-1.2224197,2.6524887-1.8336315,3.9787292
							C21.2670879,43.4053421,21.1474724,43.6541672,20.9285145,43.79422z" class="colorbbd18a svgShape"/><path fill="#8ad1cb" d="M20.7733459,34.835289c0-0.1721077-0.0344486-0.3441467-0.0459328-0.5047722
							c0.0688992,0.0114861,0.1263161,0.0229683,0.1835918,0.0573463
							C20.8880386,34.5484886,20.8422451,34.6976318,20.7733459,34.835289z" class="colorbbd18a svgShape"/><path fill="#55b5ad" d="M20.9674416,42.4006996c0.0956039,0.1444244,0.3080292,0.135643,0.3827782-0.0205994
							c0.6126423-1.2805672,1.4482365-2.9205551,2.0043354-4.1375809c0.0918655-0.1835899,0.1834507-0.3785934,0.2523499-0.585083
							c0.0574169,0.5162544-0.1719685,1.0439224-0.4014931,1.5372124c-0.6080513,1.319313-1.2159634,2.6500397-1.8240147,3.9693489
							c-0.1148319,0.2409401-0.2293835,0.4932899-0.4474258,0.6309509c-0.4244595-0.73423-0.8490601-1.4683876-1.2733784-2.2026138
							c-0.0229664-0.0459328-0.0574169-0.0917969-0.1033497-0.1147614c-0.1032085-0.0573463-0.2179012,0.0459328-0.3440762,0.057415
							c-0.2065582,0.0458641-0.3670444-0.1950722-0.5507755-0.2982826c-0.3096275-0.1835938-0.6996384-0.0229683-0.9979229,0.172039
							c-1.1127529,0.6768799-1.973156,1.7437706-3.1433258,2.2944069c-0.0459328-1.1701012-0.0344496-2.3517532,0-3.5333366
							c0-0.1835938,0.0572767-0.3442192,0.1375189-0.4818764c-0.0168638,0.7497406-0.0213451,1.499485-0.0088959,2.2537727
							c0.0062418,0.3781548,0.4412775,0.6043167,0.7518959,0.388546c0.8284063-0.5754471,1.543231-1.3363838,2.411809-1.873642
							c0.2982845-0.1835938,0.6884346-0.3442154,0.9982014-0.1606255c0.1834526,0.1032104,0.3440781,0.3326645,0.5506363,0.2982826
							c0.1261749-0.0229645,0.2408676-0.1147614,0.3442173-0.0688286c0.0457935,0.0228958,0.0802422,0.0803146,0.1030693,0.1261749
							L20.9674416,42.4006996z" class="color97b555 svgShape"/><path fill="#8ad1cb" d="M25.2419281 19.3062534c-.7285233 1.212265-.8700619 2.0436687-.6086235 3.3162079.1528244.7435074-.0518208 1.362833-.649044 1.8491859-.5356312.435936-1.0672855.8771057-1.5904751 1.3275776-.6549358.5638714-1.1144295 1.2362785-1.3426418 2.0978813-.0834084.3152103-.4682121.7620316-.733078.7744312-.5842133.0268879-1.0030136-.3928165-1.0470963-1.0134773-.0322094-.4557266-.0289879-.9349308.0767612-1.3750477.2573757-1.0736866-.3119698-1.9283657-.7011032-2.8189316-.0849152-.1943111-.5062618-.2408428-.771986-.3570175-.2308769-.100729-.647604-.1909027-.6556149-.3079853-.0217743-.3195248.0482979-.7085381.2304115-.9643211.2757759-.3875027.6323586-.7609882 1.0371246-1.0017395.4585438-.2727375 1.0051689-.4010239 1.5192509-.5752926.3297367-.1118069.7558861-.0970116.9896431-.3058987.7948246-.710535 1.6876869-.9145336 2.7103958-.7718811C24.1852016 19.2469444 24.6720066 19.2613411 25.2419281 19.3062534zM15.2927675 21.994915c.2422028-.1649418.5823126-.3968258 1.0274897-.700098-.5125103.0091724-.8979321.0161266-1.2833805.0228653.874589-1.1901779 2.1369228-.9752789 3.4049416-.9173889-.2167206.1813545-.4339333.3623295-.6504097.5438728-.1372852.1149864-.2938023.2140903-.4068756.3494034-.4377098.5239525-.773325 1.1914597-1.3155308 1.5529423-.5169735.3446198-1.2433767.3747463-1.8687735.6947002.4288292.0828991.8579035.1659889 1.2867308.2488766-.0004168.0976353-.0010242.1955013-.0016603.2931519-.5602551-.0017681-1.135643.0685787-1.6731739-.0429134-.1995029-.0413551-.31075-.5093498-.4622211-.7828407.1967611-.0167942.4174376.0174599.585618-.0610504.3363905-.1568012.6439562-.3755074.9141941-.5387058-.3469896-.3495674-.5772915-.5814915-.80762-.813633.1306658-.1254044.3137846-.3819637.3830729-.354332C14.7293673 21.6116543 15.0009308 21.8156071 15.2927675 21.994915zM8.5709839 26.248476c.3688278-1.3957653.5270529-1.4674931 1.7248774-1.0146141.2914381.1100445.644208.0579929 1.0902719.088829-.1857424.5142822.544631 1.063549-.0754309 1.6117382-.49895.4414368-1.1142588.7678375-1.7428284.410284-.2757416-.1568451-.3484488-.6707878-.5759554-1.1555996C8.9988708 26.1882324 8.8065023 26.2152863 8.5709839 26.248476zM43.9015579 43.9988251c.5423088 1.3810539.5308075 2.5292816.0655174 3.6536293-.0837784.2026749-.4885979.4290733-.6877785.3850403-.21875-.0486374-.5275803-.4019318-.5211792-.6142159.0158234-.524292.1407356-1.0604362.3123512-1.5607834C43.2668343 45.2892532 43.5610428 44.7495117 43.9015579 43.9988251zM25.3881874 30.9860916c.011692-.584692.0200996-1.0056171.0285091-1.4265404-.0828762-.0164165-.1659698-.0328064-.2490902-.0494137-.0433998.1798954-.0622272.3707886-.1370258.536356-.0746384.1650944-.2052135.4286747-.3115807.4289246-.1959782.0003471-.4791641-.1142616-.5616684-.268692-.068388-.128418.0460625-.5051689.1716156-.5595074.5004768-.2171326.7867012-.4318066.4449673-1.025301-.0622368-.1077747.2059059-.4058056.3700447-.7041054.458931.7673645.9057255 1.343338 1.1657219 1.9937801C26.6104469 30.6641445 25.7953129 30.5951557 25.3881874 30.9860916zM27.9704456 20.8156719c-.1804523.1401215-.4123611.3200912-.7662163.5949993-.1546555-.0984917-.4174328-.2662411-.6802101-.4340019.1860695-.247221.3260822-.5634308.568861-.7255745.3497753-.2339935.7742329-.3560658 1.3017712-.5843449C28.2019138 20.1885414 28.0887489 20.4953842 27.9704456 20.8156719zM10.6549845 23.0499306c.1712599.3842373.280467.6290951.4245319.9520912.2528648-.1870441.4405193-.3260784.6393223-.4729309.2099648.7241173-.581646 1.3364525-1.2026968.9616108-.2961531-.1785374-.5589724-.4127369-.9011211-.6702061C9.9412861 23.5786667 10.2710247 23.334631 10.6549845 23.0499306zM34.1656189 17.8695183c-.2492218.5898819-.4410553 1.0561504-.6429482 1.5179558-.2420578.5540962-.0313721.9306698.5549278 1.1968975-.6662102.2383785-.9554405-.0456696-1.0961227-.5525341C32.7520103 19.2044582 33.2192078 18.2743473 34.1656189 17.8695183zM24.9953098 25.3802204c.3663082.0859756.632288.1484776.8982677.2109661-.252964.309803-.4536495.7184753-.7793655.8898163-.1773624.0931396-.566761-.2166119-.860487-.3446865C24.4943409 25.8910065 24.7347412 25.6457233 24.9953098 25.3802204zM26.3688259 35.2584839c.6383648-1.0094376 1.1403694-1.8444099 1.6851254-2.6503677.375803-.5560532.8104324-.8937473 1.5260162-.3810234.393858.2822647.91749.3833809 1.4558029.5949936-.2091866.2912102-.3440285.4793968-.4959927.6909447.750658.0288239 1.0026569-.8070984.4207935-1.2454109-.3229179-.243351-.6866169-.4323044-1.108902-.6932926.9677334.0834045 1.392828.3369713 2.8890457 1.6994343.0419807-.4642563.0772552-.8543739.1240807-1.3744278.2052917.1479034.4223633.2459564.5559273.4113579.417511.5174255.9075737.6183968 1.5028496.360321.4163666-.1806335.8535957-.3621483 1.0654106.2617226.2066307.6091042-.0640221 1.0491714-.6360588 1.1842117-.6129799.1446533-1.2596703.1715088-1.8933525.1947289-.3713379.0135574-.7388229-.0764656-.7874336.4608154-.0082283.090004-.1053314.2537537-.1376114.2481384-.7601395-.1331406-1.8463192-.0348549-2.1950588-.4939117-.4902172-.6450882-.8351402-.6234055-1.3730049-.3843002-.5844917.2595787-1.1339664.5968323-1.7119083.8732376C27.0364685 35.1201439 26.7822533 35.1486435 26.3688259 35.2584839zM31.319994 25.542923c-.179451.2715588-.2149429.3954849-.2893639.4265594-.700985.2931194-.9093914.8619289-1.0215015 1.5650978-.0954628.5995026-.4944.9679871-1.2700768.8637619.6210728-.855154.6872005-1.6911163.3471298-2.6212387-.1476631-.403553-.0684013-.9045582-.0223446-1.3540993.0113392-.1124611.2923965-.1973438.4495411-.2949829.0566616.1490879.146513.2953129.1599407.4481316.0127907.1460552-.0972519.3052654-.0769424.4479408.0439148.3078861.1368484.6088924.2098484.9128685.2520847-.0644302.5042801-.1279926.7562809-.1930733C30.7497292 25.6954136 30.936676 25.6447639 31.319994 25.542923z" class="colorbbd18a svgShape"/><path fill="#55b5ad" d="M40.1724014,37.7983551c-1.3150597-0.1728897-3.1591301-1.7925529-3.408577-2.968811
							C38.1309853,35.5662308,39.2938347,36.4533386,40.1724014,37.7983551z" class="color97b555 svgShape"/><path fill="#8ad1cb" d="M32.4168396,23.0875034c-0.3187103,0.9538784-0.6490517,0.9721661-1.5623779,0.1344166
							C31.4036255,23.1745453,31.8857632,23.1330261,32.4168396,23.0875034z" class="colorbbd18a svgShape"/><polygon fill="#3f5250" points="46.5 40.95 44.25 39.642 46.623 31.935 48.874 33.243" class="color3f5052 svgShape"/><path fill="#52706e" d="M61.7187309,4.0945911c-2.1194305-1.2339129-5.0519028-1.0597155-8.3037033,0.8129506
			c-6.4309502,3.7163577-11.6281624,12.716938-11.6136322,20.0916195c0.014534,3.687294,1.3067474,6.2713699,3.3971176,7.4907494
			l-2.2502136-1.3064785c-2.0903664-1.2194691-3.3825836-3.8034573-3.3971138-7.4908409
			c-0.0145302-7.3746796,5.182682-16.3751717,11.6136284-20.0915298c3.2518044-1.8727545,6.1842728-2.0469518,8.3037033-0.8129506
			L61.7187309,4.0945911z" class="color526a70 svgShape"/><path fill="#41e1d4" d="M53.4167786,4.9105177c6.4418297-3.7191925,11.6769333-0.7463951,11.6978531,6.6343088
			c0.021019,7.4126644-5.1801453,16.4108772-11.6219749,20.1300697c-0.1573944,0.0908718-0.3243408,0.1872578-0.4820175,0.267622
			l-6.5101967,9.0071964l2.373394-7.7069283c-4.1488228,0.3471107-7.054184-2.7226563-7.0698242-8.2395668
			C41.7830887,17.6225147,46.9845047,8.6241941,53.4167786,4.9105177z" class="color6c7f80 svgShape"/><path fill="#fff" d="M54.328949,10.9592724l0.0045776,1.614543l4.7559166-2.7458305l0.0052834,1.8638821l-1.8604088,1.0741091
				c-0.221859,2.166975-1.0916328,4.5196915-2.5169067,7.0293655c1.2163582,0.4727592,2.6418228,0.5545788,4.2303619,0.3702717
				l-1.1339149,2.2186279c-1.7491455,0.092783-3.1891899-0.1198063-4.3448601-0.5621071
				c-1.1671906,1.7670212-2.5800705,3.6022034-4.2101402,5.5013371l-1.057251-0.945364
				c1.5667953-1.5801182,2.9907646-3.2538338,4.1685143-5.0801792c-1.2027588-0.7221413-1.9788971-1.7520351-2.399086-2.9260216
				l1.7924232-1.190424c0.4941597,0.8774204,1.1017647,1.5419674,1.8121719,2.024353
				c0.836174-1.6577892,1.465374-3.4335299,1.8125572-5.3739948l-7.5589828,4.3641796l-0.0052834-1.8638821l4.7559166-2.7458305
				l-0.0045776-1.614543L54.328949,10.9592724z" class="colorffffff svgShape"/></svg>