<svg xmlns="http://www.w3.org/2000/svg" viewBox="0 0 262 262"><path fill="#fff" d="m92.303 41.8.21 8.544-5.294 1.297a28.886 28.886 0 0 1-4.286 11.086l3.066 4.521-5.878 6.188-4.667-2.852A28.992 28.992 0 0 1 64.592 75.4l-1.034 5.376-8.543.21-1.275-5.319a28.737 28.737 0 0 1-11.097-4.274l-4.509 3.078-3.573-3.401-1.594-1.505-1.033-.984 2.852-4.667a29.08 29.08 0 0 1-4.828-10.861l-5.364-1.035-.21-8.543 5.306-1.286a28.999 28.999 0 0 1 4.287-11.086l-3.079-4.52 5.903-6.19 4.655 2.853a28.948 28.948 0 0 1 10.873-4.828l1.011-5.363 8.543-.21 1.298 5.305a29.01 29.01 0 0 1 11.086 4.287l4.52-3.078 6.177 5.89-2.84 4.667a28.805 28.805 0 0 1 4.828 10.861l5.351 1.023z" class="colorffffff svgShape"/><path fill="#fff" d="M74.147 46.527c.213 8.668-6.644 15.862-15.302 16.076-8.668.213-15.872-6.634-16.086-15.302-.214-8.668 6.644-15.872 15.312-16.086 8.658-.213 15.862 6.644 16.076 15.312zm65.285-28.677 1.483 5.873-3.457 1.726a20.476 20.476 0 0 1-1.229 8.335l2.828 2.645-3.096 5.198-3.673-1.241a20.548 20.548 0 0 1-6.755 5.029l.126 3.878-5.874 1.482-1.713-3.477a20.37 20.37 0 0 1-8.34-1.219l-2.636 2.834-3.003-1.793-1.337-.79-.869-.52 1.242-3.672a20.613 20.613 0 0 1-5.037-6.753l-3.87.124-1.483-5.874 3.468-1.719c-.17-2.89.262-5.718 1.228-8.335L94.6 16.938l3.112-5.203 3.665 1.244a20.521 20.521 0 0 1 6.761-5.04l-.14-3.865 5.873-1.482 1.728 3.465c2.89-.17 5.718.263 8.335 1.228l2.643-2.835 5.192 3.106-1.233 3.67a20.42 20.42 0 0 1 5.037 6.754l3.86-.13z" class="colorffffff svgShape"/><path fill="#fff" d="M127.62 23.959c1.504 5.959-2.111 12.005-8.063 13.508-5.96 1.504-12.011-2.103-13.515-8.062s2.11-12.012 8.068-13.517c5.953-1.502 12.006 2.112 13.51 8.07zm90.41 36.917v141.93H31.06V67.196c0-3.48 2.99-6.32 6.65-6.32h180.32z" class="colorffffff svgShape"/><path fill="#f0f2f2" d="m82.22 143.126-21.77-4.96-29.39-24.17v-27.4l1.29 1.06c.7.58.95 1.43.56 1.91l-.03.04 40.27 33.12 9.07 20.4zm119.71-79.51-.01 27.85.01 52.19c0 1.33-1.06 2.4-2.39 2.39l-19.24.01c-1.33 0-2.4-1.07-2.4-2.4l-.01-52.19.01-27.85v-2.74h24.03v2.74zm54.55 3.58v135.61h-38.45V60.877h31.81c2.06 0 3.89.88 5.08 2.25a6.118 6.118 0 0 1 1.56 4.07z" class="colorf0f2f2 svgShape"/><path fill="#dddfdf" d="M224.384 84.608h7.576v7.57h-7.576zM240.55 84.608h7.576v7.57h-7.576zM224.384 100.442h7.576v7.57h-7.576zM240.55 100.442h7.576v7.57h-7.576zM224.384 116.275h7.576v7.57h-7.576zM240.55 116.275h7.576v7.57h-7.576zM224.384 132.108h7.576v7.57h-7.576zM240.55 132.108h7.576v7.57h-7.576z" class="colordddddf svgShape"/><path fill="#fff" d="M174.45 247.11c-.313-.03-.64-.044-.954-.044h-59.443c-.313 0-.64.015-.953.043l7.017-22.756h47.33l7.002 22.756z" class="colorffffff svgShape"/><path fill="#f0f2f2" d="M168.791 229.506h-50.033l1.352-5.153h47.329z" class="colorf0f2f2 svgShape"/><path fill="#fff" d="M185.82 259.408h-84.097c0-3.417 1.38-6.491 3.615-8.726a12.234 12.234 0 0 1 7.758-3.573c.313-.028.64-.042.954-.042h59.442c.314 0 .641.014.954.042 6.363.484 11.373 5.794 11.373 12.299z" class="colorffffff svgShape"/><path fill="#f0f2f2" d="M185.82 259.408h-1.125a12.319 12.319 0 0 0-10.25-7.146c-.312-.028-.64-.042-.953-.042H114.05c-.314 0-.641.014-.954.042a12.307 12.307 0 0 0-7.758 3.573 12.472 12.472 0 0 0-2.477 3.573h-1.138c0-3.417 1.38-6.491 3.615-8.726a12.234 12.234 0 0 1 7.758-3.573c.313-.028.64-.043.954-.043h59.442c.314 0 .64.015.954.043 6.363.484 11.373 5.794 11.373 12.299z" class="colorf0f2f2 svgShape"/><path fill="#fff" d="M256.484 202.809v15.258c0 3.477-2.969 6.284-6.63 6.284H37.716c-3.673 0-6.641-2.807-6.641-6.284V202.81h225.409z" class="colorffffff svgShape"/><path fill="#f0f2f2" d="M31.07 202.809h225.41v4.061H31.07z" class="colorf0f2f2 svgShape"/><path fill="#41e1d4" d="M95.523 146.92h57.857v15.49H95.523z" class="colorace5fb svgShape"/><path fill="#cdfffb" d="m132.578 103.176-31.501 66.511H78.563l31.5-66.511z" class="colorcdecff svgShape"/><path fill="#fff" d="m110.063 103.175 31.501 66.511h22.515l-31.501-66.511z" class="colorffffff svgShape"/><path fill="#cdfffb" d="m110.063 103.175 31.501 66.511h22.515l-31.501-66.511z" class="colorcdecff svgShape"/><path fill="#fff" d="M225.384 82.733h7.576v7.57h-7.576zM241.55 82.733h7.576v7.57h-7.576zM225.384 98.567h7.576v7.57h-7.576zM241.55 98.567h7.576v7.57h-7.576zM225.384 114.4h7.576v7.57h-7.576zM241.55 114.4h7.576v7.57h-7.576zM225.384 130.233h7.576v7.57h-7.576zM241.55 130.233h7.576v7.57h-7.576z" class="colorffffff svgShape"/><path fill="#52ecdf" d="M14.638 73.975c.51-.62 1.794-.404 2.869.48l6.503 5.35c.962.79 1.501 1.723 1.206 2.082L15.53 93.662c-.295.36-1.314.01-2.276-.782L6.75 87.531c-1.075-.884-1.534-2.103-1.025-2.722l8.912-10.834z" class="colorec5352 svgShape"/><path fill="#fff" d="m60.446 133.686 21.77 4.963-9.068-20.405zM60.447 133.682 20.184 100.56l12.703-15.443 40.264 33.121zM32.348 83.177l-5.575-4.585c-.696-.573-1.577-.654-1.966-.18L12.04 93.932c-.39.473-.142 1.321.555 1.895l5.575 4.585c.706.58 1.586.661 1.976.187l12.766-15.52c.39-.473.14-1.321-.565-1.902zM184.977 8.01h19.25a2.395 2.395 0 0 1 2.393 2.394v48.523l-.01 27.852.01 52.187a2.376 2.376 0 0 1-2.394 2.394l-19.24.01a2.4 2.4 0 0 1-2.403-2.404l-.01-52.187.01-27.852V10.404a2.401 2.401 0 0 1 2.394-2.393z" class="colorffffff svgShape"/><g fill="#547b78" class="color54607b svgShape"><path fill="#000" d="M29.13 53.906c.67 2.85 1.75 5.56 3.22 8.08-1.41 1.32-2.28 3.17-2.28 5.2v5.61c0 .55.45 1 1 1s1-.45 1-1c-.501-4.334-.34-8.63 2.98-10.29.79-.4 1.7-.63 2.67-.63h135.97c.56 0 1-.45 1-1s-.44-1-1-1H68.95c3.79-3.07 6.2-7.76 6.2-12.97v-.4c-.23-9.21-7.94-16.51-17.1-16.29-9.162.226-16.52 7.807-16.29 17.11a16.572 16.572 0 0 0 6.18 12.55H37.72c-1.36 0-2.63.34-3.74.94-3.493-6.125-2.36-8.486-3.83-8.75l-4.57-.88-.17-6.93c3.796-1.1 5.097-.774 5.27-1.9 1.422-8.787 5.105-10.396 4.12-11.81l-2.62-3.86 4.79-5.01c3.518 1.934 4.158 3.054 5.07 2.37 7.27-5.213 10.932-3.754 11.27-5.44l.87-4.57 6.92-.17c1.107 3.795.784 5.097 1.91 5.27 8.807 1.45 10.423 5.093 11.82 4.12l3.85-2.61 5.02 4.77c-1.98 3.595-3.049 4.146-2.39 5.09 5.221 7.238 3.768 10.948 5.45 11.25l4.57.88.17 6.93c-7.184 2.086-4.153-.416-6.27 6.03-.17.53.12 1.09.64 1.26a.993.993 0 0 0 1.26-.64c.4-1.23.72-2.49.96-3.76 3.69-1.126 5.459-.77 5.43-2.13l-.21-8.55c-.03-1.364-1.834-.929-5.53-1.86-.85-3.6-2.35-6.97-4.46-10.04 1.807-3.385 3.34-4.378 2.34-5.35-5.804-5.145-6.243-6.788-7.44-5.99l-3.97 2.7a30.027 30.027 0 0 0-10.26-3.96c-1.067-3.488-.763-5.519-2.13-5.43l-8.54.21c-.47.01-.87.35-.96.82l-.89 4.71c-3.6.85-6.98 2.35-10.05 4.46l-4.1-2.5c-.4-.24-.92-.18-1.25.16l-5.89 6.19c-.33.34-.37.86-.1 1.25l2.7 3.98c-1.95 3.16-3.28 6.6-3.96 10.25-3.669 1.12-5.46.744-5.43 2.13l.21 8.54c.03 1.385 1.855.935 5.53 1.86zm19.19 3.65c-2.84-2.7-4.46-6.36-4.56-10.28-.207-8.098 6.19-14.852 14.34-15.06.12 0 .24-.01.36-.01 7.968 0 14.49 6.391 14.69 14.35.14 5.74-3.04 10.79-7.79 13.32H51.53c-1.15-.62-2.23-1.39-3.21-2.32z" class="color000000 svgShape"/><path fill="#000" d="M93.26 35.756c.11.45.56.78 1 .75l3.22-.11a21.43 21.43 0 0 0 4.49 6.04l-1.03 3.05c-.15.44.03.93.43 1.18l5.21 3.1c.4.24.92.17 1.24-.17l2.2-2.36c2.41.81 4.91 1.17 7.44 1.09l1.43 2.89a1.003 1.003 0 0 0 1.14.52l5.87-1.48c.46-.12.77-.53.76-1l-.11-3.22c2.27-1.14 4.3-2.64 6.04-4.49l3.04 1.03c.45.15.94-.03 1.18-.44l3.11-5.2a.99.99 0 0 0-.18-1.24l-2.35-2.2c.8-2.42 1.17-4.91 1.09-7.45l2.88-1.43c.42-.21.64-.68.53-1.14l-1.48-5.87c-.12-.45-.53-.76-1.01-.75l-3.21.1a21.231 21.231 0 0 0-4.5-6.03l1.03-3.05c.15-.45-.03-.94-.43-1.18l-5.2-3.1c-.41-.24-.93-.17-1.25.18l-2.19 2.35c-2.42-.81-4.91-1.17-7.45-1.09l-1.43-2.89a.99.99 0 0 0-1.14-.52l-5.87 1.48c-.46.12-.77.53-.76 1l.11 3.22a21.333 21.333 0 0 0-6.03 4.49l-3.05-1.02c-.45-.15-.94.03-1.18.43l-3.1 5.2c-.24.4-.17.92.17 1.24l2.36 2.2c-.81 2.41-1.18 4.91-1.1 7.44l-2.88 1.44c-.42.21-.64.68-.53 1.14l1.49 5.87zm3.39-6.94c.36-.18.58-.56.56-.96-.17-2.71.22-5.37 1.16-7.93.14-.38.04-.8-.25-1.08l-2.24-2.09 2.28-3.81 2.9.98c.38.12.8.01 1.06-.29 1.82-2.04 3.98-3.65 6.43-4.78.37-.17.6-.54.58-.95l-.1-3.06 4.31-1.09 1.36 2.75c.18.36.55.58.96.55 2.7-.16 5.37.23 7.93 1.16.38.14.8.04 1.07-.25l2.09-2.24 3.82 2.28-.98 2.9c-.13.38-.02.8.29 1.07 2.04 1.8 3.65 3.97 4.79 6.42.16.37.55.61.94.58l3.05-.1 1.09 4.31-2.74 1.36c-.36.18-.58.56-.55.96.16 2.7-.23 5.37-1.17 7.93-.14.38-.04.8.26 1.07l2.24 2.1-2.28 3.81-2.9-.98c-.38-.12-.8-.01-1.07.29-1.8 2.03-3.96 3.64-6.43 4.78-.36.17-.59.54-.58.95l.1 3.06-4.3 1.09-1.36-2.75c-.17-.34-.52-.56-.9-.56-.02 0-.04.01-.06.01-2.71.17-5.38-.22-7.93-1.16-.38-.14-.8-.04-1.08.25l-2.09 2.24-3.82-2.27.99-2.91c.12-.38.01-.8-.29-1.07a19.514 19.514 0 0 1-4.79-6.43.995.995 0 0 0-.94-.58l-3.06.11-1.09-4.31 2.74-1.36z" class="color000000 svgShape"/><path fill="#000" d="M110.62 37.096c1.9 1.13 4.03 1.71 6.19 1.71 1 0 2-.12 2.99-.37 3.14-.79 5.78-2.76 7.44-5.54 1.66-2.78 2.14-6.04 1.35-9.18a12.05 12.05 0 0 0-5.54-7.45 12.066 12.066 0 0 0-9.18-1.35c-6.49 1.64-10.43 8.25-8.8 14.73.8 3.14 2.76 5.79 5.55 7.45zm3.74-20.24a10.05 10.05 0 0 1 7.66 1.13c2.32 1.39 3.97 3.59 4.63 6.22.66 2.62.26 5.34-1.12 7.67-1.39 2.32-3.6 3.96-6.22 4.62-2.62.66-5.35.27-7.67-1.12a10.061 10.061 0 0 1-4.63-6.22c-1.37-5.41 1.93-10.93 7.35-12.3z" class="color000000 svgShape"/><path fill="#000" d="M249.84 59.876h-42.22v-49.47c0-1.86-1.52-3.39-3.39-3.4h-19.25c-1.87 0-3.4 1.52-3.4 3.4v128.56c0 1.87 1.53 3.4 3.41 3.4l19.23-.01h.03a3.377 3.377 0 0 0 3.37-3.39v-77.09h9.41v139.93H32.07v-90.17c29.653 24.357 27.756 22.935 28.16 23.03l.05.01c23.095 5.262 21.796 4.98 21.94 4.98.691 0 1.218-.735.91-1.41l-9.06-20.41-.01-.01a.711.711 0 0 0-.21-.29c-.076-.1-7.22-5.953-39.77-32.73.01-.09.02-.18.02-.27 0-.74-.39-1.54-1.12-2.13l-5.57-4.59c-.49-.4-1.07-.65-1.64-.7-.71-.07-1.34.17-1.74.66l-.37.45-5.52-4.54c-.65-.54-1.4-.9-2.11-1.02-.9-.15-1.69.09-2.16.67l-8.92 10.84c-.47.58-.56 1.4-.24 2.25.25.67.75 1.34 1.41 1.88l5.52 4.54-.37.45c-.4.49-.52 1.15-.32 1.83.16.54.52 1.07 1.01 1.47l5.58 4.59c.58.48 1.25.72 1.87.72.25 0 .48-.04.7-.11l9.96 8.19v108.08c0 4.01 3.44 7.28 7.65 7.28h81.04l-6.43 20.84c-2.91.37-5.62 1.7-7.7 3.79a13.254 13.254 0 0 0-3.91 9.43c0 .55.45 1 1 1h84.1c.55 0 1-.45 1-1 0-6.7-5.05-12.39-11.61-13.22l-6.41-20.84h81.05c4.21 0 7.63-3.27 7.63-7.28V67.186c0-3.935-3.336-7.31-7.64-7.31zm-44.22 79.09c0 .788-.628 1.39-1.38 1.39h-.01l-19.24.01c-.79 0-1.41-.62-1.41-1.4v-7.83h11.03c.55 0 1-.44 1-1 0-.55-.45-1-1-1h-11.03v-8.66h5.02c.55 0 1-.45 1-1s-.45-1-1-1h-5.02v-8.66h11.03c.55 0 1-.45 1-1 0-.56-.45-1-1-1h-11.03v-8.67h5.02c.55 0 1-.45 1-1s-.45-1-1-1h-5.02v-8.66h11.03c.55 0 1-.45 1-1 0-.56-.45-1-1-1h-11.03v-8.67h5.02c.55 0 1-.44 1-1 0-.55-.45-1-1-1h-5.02v-8.66h11.03c.55 0 1-.45 1-1s-.45-1-1-1h-11.03v-9.22h5.02c.55 0 1-.44 1-1 0-.55-.45-1-1-1h-5.02v-8.11h11.03c.55 0 1-.45 1-1s-.45-1-1-1h-11.03v-8.66h5.02c.55 0 1-.45 1-1 0-.56-.45-1-1-1h-5.02v-8.67h11.03c.55 0 1-.45 1-1s-.45-1-1-1h-11.03v-12.09c0-.77.63-1.4 1.4-1.4h19.24c.77.01 1.4.63 1.4 1.4-.02 143.859 0 71.156 0 128.56zM78.25 132.2l-3.131 3.807h-.01l-12.86-2.93 10.64-12.95 5.36 12.07.002.003zM7.39 86.756c-.71-.58-.91-1.2-.89-1.31l8.89-10.81c.16-.06.8.03 1.48.59l5.52 4.54-9.48 11.53-5.52-4.54zm5.43 7.81h-.01c.063-.077 7.201-8.77 12.69-15.46.355-.118 6.541 4.954 6.59 5.39l-12.67 15.42h-.01c-.597 0-6.334-5.35-6.59-5.35zm8.77 5.86c15.882-19.294-3.655 4.447 11.43-13.9l38.72 31.86-11.43 13.89-38.72-31.85zm163.19 157.98h-82.01c.23-2.65 1.37-5.11 3.28-7.02 1.9-1.91 4.43-3.08 7.14-3.28.644-.069 60.624-.055 61.18 0 5.52.42 9.92 4.86 10.41 10.3zm-11.7-12.34h-58.61l6.39-20.71h45.85l6.37 20.71zm45.95-184.19h30.81c3.122 0 5.64 2.401 5.64 5.31v134.62h-36.45V61.876zm36.45 156.19c0 2.91-2.53 5.28-5.63 5.28H37.72c-3.11 0-5.65-2.37-5.65-5.28v-14.26h223.41v14.26z" class="color000000 svgShape"/><path fill="#000" d="M143.775 208.64a4.933 4.933 0 0 0-4.94 4.94c0 2.718 2.207 4.94 4.94 4.94s4.939-2.222 4.939-4.94a4.933 4.933 0 0 0-4.94-4.94zm-9.596-104.464h36.711a1 1 0 1 0 0-2h-36.73l11.55-24.38c.23-.5.02-1.1-.48-1.33a.992.992 0 0 0-1.33.47l-11.31 23.87c-3.39-7.18-6.77-14.37-10.16-21.54.95-2.02 1.9-4.03 2.85-6.04a1.002 1.002 0 0 0-1.81-.86c-.72 1.52-1.43 3.03-2.14 4.55-.74-1.57-1.49-3.15-2.23-4.72a.997.997 0 0 0-1.33-.48c-.5.23-.71.83-.48 1.33.98 2.07 1.95 4.14 2.93 6.21-3.39 7.18-6.77 14.37-10.16 21.55l-11.39-24.05a1.001 1.001 0 0 0-1.81.86l11.63 24.56H71.75a1 1 0 1 0 0 2h36.73c-6.646 14.082-8.127 17.163-19.77 41.74H70.33c-.55 0-1 .45-1 1 0 .56.45 1 1 1h17.44l-6.39 13.49H70.33c-.55 0-1 .45-1 1 0 .56.45 1 1 1h10.1a2612.432 2612.432 0 0 1-10.58 22.16c-.24.5-.03 1.1.47 1.34.585.251 1.113-.017 1.34-.47 2.52-5.23 5.03-10.48 7.55-15.75H99.5l-11.55 24.38c-.24.5-.02 1.1.48 1.33.424.229 1.076.068 1.33-.47l15.4-32.52h32.32l15.33 32.34c.555 1.178 2.374.366 1.81-.86l-11.46-24.2h20.29c2.49 5.21 4.97 10.4 7.46 15.57.565 1.196 2.384.333 1.8-.86-9.453-19.644-7.443-15.571-10.5-21.99h16.36c.56 0 1-.44 1-1 0-.55-.44-1-1-1h-17.31l-6.39-13.49h23.7c.56 0 1-.44 1-1 0-.55-.44-1-1-1h-24.64c-22.38-47.248-13.44-28.358-19.75-41.74zm-30.29 57.23H83.63c2.14-4.5 4.28-8.99 6.4-13.49h20.25l-6.39 13.49zm34.87 0-6.39-13.49h20.25c.878 1.876 4.784 10.1 6.4 13.49h-20.26zm12.91-15.49h-20.24l-8.99-18.98 10.14-21.42c13.978 29.632 18.152 38.422 19.09 40.4zm-40.01-41.74H131l-9.67 20.42-9.67-20.42zm28.05 59.23h20.27c.83 1.76 1.67 3.52 2.51 5.28h-20.28l-2.5-5.28zm-29.65-57.89 10.15 21.43-8.98 18.97H90.98c11.034-23.269 17.641-37.396 19.08-40.4zm11.26 23.77 7.88 16.63h-15.75l7.87-16.63zm.01-47.68c3.23 6.85 6.46 13.71 9.69 20.57h-19.39c3.23-6.86 6.46-13.72 9.7-20.57zm-20.89 87.08H80.16l2.52-5.28h20.26l-2.5 5.28zm5.67-7.28c8.577-18.105 5.837-12.32 6.39-13.49h17.65l6.38 13.49h-30.42zM12.86 230.521a1.26 1.26 0 0 0-1.26 1.26v5.374a1.26 1.26 0 1 0 2.52 0v-5.374a1.26 1.26 0 0 0-1.26-1.26zm0 12.625a1.26 1.26 0 0 0-1.26 1.26v10.457a1.26 1.26 0 1 0 2.52 0v-10.457a1.26 1.26 0 0 0-1.26-1.26zM156.526 14.644a1.26 1.26 0 0 0 1.26-1.26V8.011a1.26 1.26 0 1 0-2.52 0v5.373c0 .696.564 1.26 1.26 1.26zm0 17.708a1.26 1.26 0 0 0 1.26-1.26V20.636a1.26 1.26 0 1 0-2.52 0v10.458c0 .695.564 1.26 1.26 1.26zm68.858-17.711a1.26 1.26 0 0 0 1.26-1.26V8.008a1.26 1.26 0 1 0-2.52 0v5.373c0 .695.563 1.26 1.26 1.26zm0 17.709a1.26 1.26 0 0 0 1.26-1.26V20.632a1.26 1.26 0 1 0-2.52 0V31.09c0 .695.563 1.26 1.26 1.26zM11.856 26.301a1.26 1.26 0 0 0 1.26-1.26V19.67a1.26 1.26 0 1 0-2.52 0v5.373c0 .696.564 1.26 1.26 1.26zm0 17.71a1.26 1.26 0 0 0 1.26-1.26V32.292a1.26 1.26 0 1 0-2.52 0v10.458c0 .696.564 1.26 1.26 1.26zm237.27 10.004a1.26 1.26 0 0 0 1.26-1.26V42.3a1.26 1.26 0 1 0-2.52 0v10.457c.001.696.564 1.26 1.26 1.26zM17.05 127.53a1.26 1.26 0 0 0-1.26 1.26v10.457a1.26 1.26 0 1 0 2.52 0V128.79a1.26 1.26 0 0 0-1.26-1.26zm3.131 51.807a1.26 1.26 0 0 0-1.26 1.26v10.457a1.26 1.26 0 1 0 2.52 0v-10.457a1.26 1.26 0 0 0-1.26-1.26zm171.68 52.29a1.26 1.26 0 0 0-1.26 1.26v8.58a1.26 1.26 0 1 0 2.519 0v-8.58a1.26 1.26 0 0 0-1.26-1.26zm57.266 5.869a1.26 1.26 0 0 0-1.26 1.26v8.58a1.26 1.26 0 1 0 2.52 0v-8.58a1.26 1.26 0 0 0-1.26-1.26z" class="color000000 svgShape"/></g></svg>