<svg xmlns="http://www.w3.org/2000/svg" enable-background="new 0 0 53 53" viewBox="0 0 53 53"><path fill="#b0b8cf" d="M50.3672104,30.637125v1.9620304c0,0.4901009-0.3236465,0.9709969-0.9617386,1.3408699L22.7259464,49.4483986c-1.2946968,0.7490578-3.4031944,0.7490578-4.6978359,0L3.6109583,41.1254883c-0.6565487-0.3791313-0.9802513-0.87854-0.9802513-1.3686371v-1.9712334c0,0.4993515,0.3329592,0.9987068,0.9802513,1.3686371l14.4171524,8.3321648c1.3038979,0.7490616,3.4123955,0.7490616,4.6978359,0l26.6887836-15.5083714C50.0528221,31.60812,50.3672104,31.118021,50.3672104,30.637125z"/><path fill="#e3e7f0" d="M49.3846664,29.2624664c1.2989388,0.7499428,1.317524,1.9635105,0.0270271,2.7134666L22.7274742,47.4831047c-1.2904968,0.7499542-3.3973656,0.7499657-4.6963043,0.0000229L3.6128078,39.1586838c-1.2989588-0.7499542-1.3058276-1.9703331-0.0153313-2.7202873l26.6842175-15.5071735c1.2904968-0.7499542,3.3856525-0.7431564,4.6846104,0.0067978L49.3846664,29.2624664z"/><ellipse cx="12.715" cy="42.223" fill="#1d2943" rx=".646" ry="1.115" transform="rotate(-89.838 12.715 42.223)"/><path fill="#1d2943" d="M42.8979912 27.3364468c.2066536.1193104.2077255.3102188.0083046.4261112-.2053108.1193123-.5407829.122736-.7474365.0034237l-5.9279518-3.4225025c-.2007446-.1159019-.2018013-.3067989.0093956-.429533.1994247-.1158924.5289917-.1159058.7297363-.0000038L42.8979912 27.3364468zM44.2323647 28.1068478c.2125587.1227207.2136345.3136292.0083237.4329433-.2053108.1193123-.5348969.1193142-.7474556-.0034065-.2066536-.1193123-.2077065-.3102093-.0023956-.4295216C43.6961479 27.9875488 44.0257111 27.9875374 44.2323647 28.1068478z"/><polygon fill="#fff" points="5.792 36.34 22.922 46.23 47.222 32.1 30.092 22.21"/><path fill="#4c5c75" d="M49.018795,29.4772224c1.0923195,0.6306496,1.0980759,1.6532974,0.0128899,2.2839375L22.347456,47.2683411c-1.0793362,0.6272392-2.8507271,0.6306648-3.9430428,0.0000153L3.9801452,38.9405022c-1.086396-0.6272316-1.0921905-1.6567154-0.0128555-2.2839584l26.6842289-15.5071774c1.085186-0.63064,2.8566151-0.6272297,3.9430103,0L49.018795,29.4772224z M22.9183064,46.2184067l24.3026371-14.1231461l-17.1284657-9.8891258L5.7898407,36.3292847L22.9183064,46.2184067 M36.970047,23.9139576c-0.2007484-0.1159019-0.5303154-0.1159-0.7297401-0.0000057c-0.2112083,0.1227398-0.2101326,0.3136368-0.009388,0.4295387l5.9279442,3.4224987c0.2066498,0.1193104,0.5421333,0.1158905,0.7474442-0.0034218c0.1994247-0.1158924,0.1983337-0.3068008-0.008316-0.4261112L36.970047,23.9139576 M11.9284754,42.6800194c0.4369202,0.2522545,1.143136,0.2522545,1.5772171-0.0000076c0.4340801-0.2522583,0.4317617-0.6613159-0.0051584-0.9135742c-0.4369202-0.2522545-1.1431208-0.2522621-1.5772009,0C11.4892521,42.0186958,11.4915552,42.4277649,11.9284754,42.6800194 M44.2323685,28.1068611c-0.2066536-0.1193104-0.5362206-0.1193104-0.7415466,0.0000114c-0.205307,0.1193123-0.2042313,0.3102112,0.0024185,0.4295216c0.2125549,0.1227188,0.542141,0.1227264,0.747448,0.0034142C44.4460144,28.4204865,44.4449234,28.2295799,44.2323685,28.1068611"/><path fill="#1d2943" d="M48.888401 33.1469231c.0014648.0005493.0028076-.0015869.0043335-.0008545l-.2270508-.1296997c-.0648193-.0324707-.1513062-.0324707-.2485962.0215454l-2.1085815 1.2210083c-.1945801.1080933-.3459473.3783569-.3459473.5945435 0 .1081543.0432739.1837769.0973511.2270508l.2269897.1296997c-.0025635-.0015259.0022583-.0023193.0009155-.0037231.0626831.0391846.1502075.0360107.2497559-.0214844l2.1135864-1.2202759c.1932373-.1115723.3446045-.3737183.3439941-.5957642C48.9948463 33.2590446 48.9537086 33.1822014 48.888401 33.1469231zM45.4328957 34.8751335c-.0648804-.0324707-.140564-.0324707-.237793.0215454l-2.1193848 1.2318115c-.1838379.1080933-.3459473.3783569-.3459473.5945435 0 .1081543.0432129.1837769.097229.2162476l.2220459.1210327c.0641479.0467529.1549072.0493774.2568359-.0094604l2.1204834-1.2243042c.1863403-.1075439.3377075-.3696899.3370361-.5917969-.0003052-.1124878-.0439453-.189209-.1109619-.2237549L45.4328957 34.8751335z"/><path fill="#4c5c75" d="M48.8927193 33.1460838c-.0648575-.0324631-.116684.1412239-.2139397.1952629l-1.9747162 1.3443489c-.1945763.1188965-.2393608.1725388-.2393608.3779373 0 .1188965-.2318802.1141319-.177845.146595l-.2269707-.1297188c-.054039-.0432816-.0973206-.1188927-.0973206-.2270355 0-.216217.1513596-.4864731.345932-.5945473l2.1085701-1.2209854c.0973206-.0540352.183754-.0540352.2486153-.0215759L48.8927193 33.1460838zM45.4328766 34.8751144l.2270393.1405373c-.0648613-.0432816-.1166496.1171036-.2139702.1711426l-2.0648575 1.1637154c-.183754.1080742-.2440758.2724724-.2440758.4886894 0 .1081429-.1369972.1973801-.0721397.2297783l-.2378578-.1297188c-.054039-.0324631-.0972557-.1080742-.0972557-.216217 0-.216217.1621132-.4864731.3459358-.5945473l2.1193886-1.2318039C45.2923393 34.8426514 45.3680191 34.8426514 45.4328766 34.8751144z"/><path fill="#1d2943" d="M48.6488876 33.1716347c.193264-.1115837.345623-.0168114.3462296.1973076.0006294.2220764-.1507149.4842186-.3439827.5957985l-2.1135864 1.2202835c-.1932182.1115532-.3455544.0247421-.3461838-.1973343-.0006104-.2141151.1507149-.4842186.3439331-.5957718L48.6488876 33.1716347zM45.4241066 35.0334663c.1863365-.1075821.3386955-.0128136.3393021.2013054.0006294.2220764-.1507187.4842186-.3370552.5918007l-2.1204681 1.2242546c-.1863861.1076088-.3456039.0247688-.3462334-.1973076-.0006065-.2141151.1576004-.4881897.3439827-.5957985L45.4241066 35.0334663z"/><path fill="#4c5c75" d="M14.343749 46.3702507c0 .226326.1584148.4979019.3575811.6110649.1946621.1131592.3576088.0271835.3576088-.2036705 0-.2263222-.1629467-.5024872-.3576088-.6111183C14.5066948 46.0488358 14.34828 46.1393967 14.343749 46.3702507zM8.1651058 42.7988625c0 .2263222.1584435.50243.3530779.615593.1991653.1131592.3575811.0226517.3575811-.2036705s-.1584158-.50243-.3530502-.615593C8.3235493 42.482029 8.1651058 42.5725365 8.1651058 42.7988625zM6.6396875 41.9207535c0 .2263222.158443.4978981.3530779.6155357.1946349.1086884.3575811.0226555.3575811-.2036667.0045309-.230854-.1584153-.5069656-.3530502-.615593C6.7981305 41.5993347 6.6396875 41.6898994 6.6396875 41.9207535zM12.8228617 45.4875565c0 .226326.1584148.5024872.3530502.6156502.1946344.113163.3576088.0225983.3576088-.2037239 0-.226326-.1584435-.5024338-.3530779-.615593C12.9812765 45.1707268 12.8228617 45.2612343 12.8228617 45.4875565z"/><polygon fill="#1d2943" points="12.038 44.417 11.838 45.527 9.798 44.347 9.608 43.007 10.948 43.787"/><polygon fill="#1d2943" points="9.605 43.012 10.947 43.786 9.796 44.347"/><polygon fill="#4c5c75" points="10.947 43.786 12.039 44.416 11.836 45.524 9.796 44.347 9.796 44.347"/><g><path fill="#ddb040" d="M33.0700798,18.8859406c-0.8609428-0.4970627-1.6407776-0.5432529-2.2039051-0.2160091l-1.5254536,0.8865013c0.5631104-0.3272476,1.3429623-0.2810516,2.2038898,0.2160091c1.7106495,0.9876442,3.0923901,3.3814259,3.0868206,5.3475971c-0.0027618,0.9763355-0.347435,1.6633606-0.9033966,1.9864426l1.5254707-0.8865013c0.5559425-0.3230839,0.9006157-1.010107,0.9033928-1.9864445C36.162468,22.2673664,34.7807312,19.8735886,33.0700798,18.8859406z"/><path fill="#5b5e71" d="M31.5446129,19.7724419c1.7106514,0.9876461,3.0923958,3.3814259,3.0868187,5.3475952c-0.0055695,1.9651718-1.396347,2.7582397-3.1070004,1.7705936c-1.7110901-0.9878979-3.0928421-3.3816891-3.0872726-5.346859C28.4427338,19.5776024,29.8335228,18.784544,31.5446129,19.7724419z"/><path fill="#ffd06c" d="M33.3890953,21.5406895l-2.6948032-1.3930855l-0.0223675-5.5048637c-0.001791-0.6826744-0.0849953-1.3053989-0.244257-1.8538647l2.5291538,1.0952797c0.1592636,0.5484667,0.5276184,1.4703503,0.5294113,2.1530247L33.3890953,21.5406895z"/><path fill="#5b5e71" d="M31.5686932,19.7724419c-0.8609447-0.4970627-1.6407795-0.5432549-2.203907-0.2160091l-1.5254536,0.8865013c0.5631104-0.3272476,1.3429623-0.2810516,2.2038918,0.2160091c1.7106495,0.9876442,3.0923882,3.3814259,3.0868187,5.3475971c-0.0027618,0.9763355-0.347435,1.6633606-0.9033966,1.9864426l1.5254707-0.8865013c0.5559425-0.3230839,0.9006157-1.010107,0.9033928-1.9864445C34.6610832,23.1538677,33.2793427,20.760088,31.5686932,19.7724419z"/><path fill="#525566" d="M30.0432243,20.6589432c1.7106533,0.9876461,3.0923958,3.3814259,3.0868225,5.3475952c-0.0055733,1.9651718-1.396349,2.7582397-3.1070023,1.7705936c-1.7110901-0.9878979-3.092844-3.3816891-3.0872726-5.346859C26.9413452,20.4641037,28.3321342,19.6710434,30.0432243,20.6589432z"/><path fill="#3f434f" d="M30.8530102,25.7788219c-1.0853977-0.6266575-1.9619045-2.1451206-1.9583664-3.3916988c0.0007439-0.2633438,0.0410671-0.4930649,0.1138077-0.6864262c-0.5619984,0.073761-0.9378662,0.5702286-0.9401588,1.3832722c-0.00354,1.2465782,0.8729668,2.7650414,1.9583645,3.3916988c0.8560829,0.4942703,1.5854912,0.285017,1.8571644-0.4372826C31.5837517,26.077776,31.2307549,25.9969158,30.8530102,25.7788219z"/><path fill="#5b5e71" d="M30.0394573,21.9603558c-0.3778324-0.2181492-0.7309151-0.2990494-1.0310059-0.2596588c-0.0727406,0.1933613-0.1130638,0.4230824-0.1138077,0.6864262c-0.0035381,1.2465782,0.8729687,2.7650414,1.9583664,3.3916988c0.3777447,0.2180939,0.7307415,0.298954,1.0308113,0.2595634c0.0726738-0.1932297,0.1129532-0.4227657,0.1136971-0.6858692C32.0010567,24.1053104,31.1245728,22.586853,30.0394573,21.9603558z"/><polygon fill="#febc1f" points="32.824 14.182 30.428 12.789 31.216 12.334 33.612 13.727"/><path fill="#febc1f" d="M33.6122246,13.7266932c0.1417847,0.5624762,0.2156563,1.1884861,0.2175827,1.8685284l0.0217934,4.5556898l-0.7614784,0.43964l-0.0217934-4.5556889c-0.0019379-0.6826658-0.0849571-1.3047132-0.2444267-1.8530331L33.6122246,13.7266932z"/><polygon fill="#72d561" points="34.678 36.187 30.938 38.347 20.628 32.347 20.578 16.037 21.488 15.517 23.458 16.657 23.408 14.407 24.318 13.887 34.628 19.877"/><polygon fill="#72d561" points="23.408 14.409 23.744 30.551 32.865 36.186 32.818 19.877"/><polygon fill="#5ec363" points="34.678 36.187 30.938 38.347 20.628 32.347 20.578 16.037 30.898 22.037 34.628 19.877"/><polygon fill="#5ec363" points="30.894 22.033 30.94 38.342 34.675 36.186 34.629 19.877"/><polygon fill="#72d561" points="20.582 16.041 20.628 32.35 30.94 38.343 30.894 22.034"/><polygon fill="#78e75a" points="20.582 16.04 30.894 22.033 34.629 19.877 24.317 13.884 23.408 14.409 32.818 19.877 30.9 20.984 21.49 15.516"/><g><polygon fill="#e9e8e6" points="22.434 16.065 30.9 20.984 32.404 20.116 23.938 15.196"/></g><g><polygon fill="#e93565" points="29.908 38.937 26.178 41.097 15.858 35.097 15.818 18.797 16.728 18.267 18.688 19.407 18.648 17.157 19.548 16.637 29.868 22.627"/><polygon fill="#e93565" points="18.643 17.16 18.978 33.302 28.099 38.938 28.053 22.629"/><polygon fill="#df3260" points="29.908 38.937 26.178 41.097 15.858 35.097 15.818 18.797 26.128 24.787 29.868 22.627"/><polygon fill="#df3260" points="26.129 24.785 26.175 41.094 29.91 38.938 29.864 22.629"/><polygon fill="#e93565" points="15.817 18.792 15.863 35.101 26.175 41.094 26.129 24.785"/><polygon fill="#f45170" points="15.817 18.792 26.129 24.785 29.864 22.629 19.551 16.636 18.643 17.16 28.053 22.629 26.135 23.736 16.725 18.268"/><g><polygon fill="#e9e8e6" points="17.669 18.816 26.135 23.736 27.639 22.868 19.173 17.948"/></g></g><g><path fill="#4c5c75" d="M21.4638672,25.586792c-0.8609447-0.4970627-1.6407795-0.5432549-2.203907-0.216011l-1.5254536,0.8865032c0.5631123-0.3272476,1.3429642-0.2810535,2.2038918,0.2160091c1.7106495,0.9876442,3.0923882,3.3814259,3.0868168,5.3475971c-0.0027599,0.9763355-0.3474331,1.6633587-0.9033947,1.9864445l1.5254707-0.8865051c0.5559444-0.323082,0.9006176-1.0101051,0.9033947-1.9864426C24.5562553,28.9682178,23.1745167,26.5744381,21.4638672,25.586792z"/><path fill="#5b5e71" d="M19.9383984,26.4732933c1.7106533,0.9876461,3.0923958,3.3814259,3.0868206,5.3475952c-0.0055714,1.9651718-1.396347,2.7582397-3.1070004,1.7705917c-1.7110901-0.987896-3.092844-3.3816872-3.0872726-5.3468571C16.8365192,26.2784538,18.2273083,25.4853935,19.9383984,26.4732933z"/><path fill="#febc1f" d="M23.0480099,31.8171482c0,0.9799824-0.3499756,1.6699848-0.9000244,1.9899921l-1.5299683,0.8900146c0.0800171-0.0499878,0.1400146-0.1199951,0.210022-0.1799927c-0.5700073,0.4899902-1.4300537,0.5299683-2.4100342-0.039978c-1.710022-0.9900513-3.0899668-3.3800068-3.0899668-5.3500385c0-0.9799805,0.3499756-1.6599731,0.9099741-1.9899902c0,0.0100098,0,0.0100098,0,0.0100098l1.5200195-0.8900146c0.5599976-0.3300171,1.3399658-0.2799683,2.1999512,0.2200317C21.6780148,27.4571629,23.0580196,29.8571262,23.0480099,31.8171482z"/><path fill="#febc1f" d="M19.9624805,26.4732933c-0.8609447-0.4970627-1.6407814-0.5432549-2.2039089-0.216011l-1.5254536,0.8865032c0.5631123-0.3272495,1.3429642-0.2810535,2.2038918,0.2160091c1.7106495,0.9876423,3.0923882,3.3814259,3.0868187,5.3475952c-0.0027599,0.9763374-0.347435,1.6633606-0.9033966,1.9864426l1.5254707-0.8865013c0.5559444-0.323082,0.9006176-1.0101051,0.9033947-1.9864426C23.0548687,29.8547192,21.67313,27.4609394,19.9624805,26.4732933z"/><path fill="#ffd06c" d="M18.4370098,27.3597946c1.7106552,0.9876461,3.0923958,3.3814259,3.0868225,5.3475952c-0.0055714,1.9651718-1.396349,2.7582397-3.1070023,1.7705917c-1.7110901-0.987896-3.092844-3.3816872-3.0872726-5.3468571C15.3351316,27.1649532,16.7259197,26.3718948,18.4370098,27.3597946z"/><path fill="#1d2943" d="M20.3680172,31.867136c0,0.5599995-0.2000122,0.9600239-0.5300293,1.1500263l-0.5799561,0.3399658c0.0299683-0.0199585,0.0599976-0.039978,0.0899658-0.0699463c-0.3299561,0.2599487-0.8200073,0.25-1.3699951-0.0599976c-0.9899902-0.5700073-1.789978-1.9600239-1.789978-3.1000385c0-0.5800171,0.2099609-0.9799805,0.539978-1.1599731c0.0200195-0.0100098,0.0400391-0.0200195,0.0499878-0.0300293l0.5200195-0.2999878c0.3200073-0.1900024,0.7800293-0.1599731,1.2800293,0.1199951C19.5680294,29.3371677,20.3680172,30.7171726,20.3680172,31.867136z"/><path fill="#4c5c75" d="M18.5745068,28.7607574c-0.4993362-0.28829-0.9516296-0.3150806-1.2782364-0.1252823l-0.5844536,0.3396492c0.3265972-0.1898003,0.7789001-0.1630077,1.2782269,0.1252823c0.9921513,0.5728188,1.793541,1.9611797,1.7903099,3.101532c-0.0016003,0.5662613-0.2015057,0.9647255-0.5239563,1.1521072l0.5844631-0.3396492c0.3224411-0.1873817,0.5223465-0.5858459,0.5239563-1.1521091C20.3680477,30.7219372,19.5666599,29.3335781,18.5745068,28.7607574z"/><path fill="#1d2943" d="M17.9900436,29.1004066c0.9921551,0.5728207,1.7935448,1.9611797,1.7903118,3.101532c-0.003231,1.1397705-0.8098621,1.5997391-1.8020172,1.0269165c-0.9924068-0.5729675-1.7938061-1.9613304-1.790575-3.1011028C16.1909962,28.987402,16.9976349,28.5274391,17.9900436,29.1004066z"/><g><polygon fill="#febc1f" points="19.817 21.691 17.421 20.299 18.209 19.844 20.605 21.236"/><path fill="#efc348" d="M20.6048946,21.2365208l-0.7877808,0.4547729l-2.3963013-1.3925171c-0.1381226,0.7174683-0.2098999,1.4276123-0.2079468,2.1141968l0.0217896,4.5557251l2.3962402,1.3925171l0.7614746-0.4396362l-0.0217896-4.5556641C20.3686275,22.6760349,20.4507198,21.9592991,20.6048946,21.2365208z"/><polygon fill="#ffd06c" points="19.631 28.361 17.235 26.969 17.213 22.413 19.609 23.806"/><path fill="#ffd06c" d="M19.6090908,23.8055573l-2.3962688-1.392561c-0.0019474-0.6866055,0.0698605-1.3967247,0.2080002-2.1142406l2.3962708,1.392561C19.6789513,22.4088326,19.6071453,23.1189518,19.6090908,23.8055573z"/><path fill="#efc348" d="M20.6048546,21.2364998c-0.1541576,0.7228203-0.2362385,1.4395294-0.2342815,2.1294155l0.0217934,4.5556889l-0.7614822,0.439642l-0.0217934-4.5556889c-0.0019455-0.6866055,0.0698605-1.3967247,0.2080021-2.1142426L20.6048546,21.2364998z"/></g></g><path fill="#1d2943" d="M33.7779884,13.6371555l-1.1199951,0.6400146l-2.3999615-1.3900146c-0.1199951-0.4299927-0.3099976-0.7999878-0.5300293-1.1400146c-3.9315128-0.2563972-8.0027714,5.0634995-8.9599609,9.3900146l-1.1100464,0.6500244c0-0.0400391,0.0100098-0.0800171,0.0200195-0.1200562c-0.0100098,0.0400391-0.0200195,0.0800171-0.0300293,0.1200562l-2.3899536-1.3900146c0.3499756-1.8900146,1.1499634-3.8200073,2.2299805-5.5599976c2.0911579-3.3327713,6.5590477-7.3322377,9.960022-5.4100342l2.3899536,1.4000244c0,0,0,0,0.0100098,0C32.798008,11.3771458,33.4579811,12.3471775,33.7779884,13.6371555z"/><g><path fill="#4c5c75" d="M32.6582336,14.2774792l-2.3962708-1.3925591c-0.2899933-0.9706802-0.8247757-1.706008-1.5755539-2.133852l2.3962688,1.392561C31.833456,12.5714722,32.3682404,13.3067999,32.6582336,14.2774792z"/><path fill="#4c5c75" d="M31.8450813,10.8274984c-3.4151917-1.9373417-7.8696156,2.0732822-9.9529839,5.4033403c-1.0896988,1.7375145-1.8831329,3.6758766-2.2396526,5.5539818l-2.3953552-1.3909855c0.3515244-1.8831329,1.1499863-3.8164997,2.2346573-5.5539837c2.0810318-3.3215113,6.5465851-7.3477798,9.9529858-5.4083652L31.8450813,10.8274984z"/><path fill="#1d2943" d="M31.8433933,10.8260298c0.9576588,0.5464106,1.6155758,1.5176926,1.9310589,2.8070002l-1.1162186,0.6444492c-0.2899933-0.9706793-0.8247776-1.706007-1.5755558-2.1338511c-3.7775002-2.1506014-9.1976738,3.9162626-10.3110218,8.9965696l-1.1173668,0.6451111C20.9349651,14.9611626,27.7027302,8.470336,31.8433933,10.8260298z"/></g></g><g><path fill="#c9cee2" d="M49.837986,4.1071267v2.8300171c0.0100098,0.5900269-0.4499512,1.3699946-0.9499512,1.6600337l-11.1400146,6.4299927l-1.6699829,1.9599609l-0.7700195-0.4499512l0.7000122-2.7900391l-0.0100098-2.5499878c0-0.5800171,0.4599609-1.3599854,0.9599609-1.6500244l11.1400146-6.4400024c0.2600098-0.1399536,0.5-0.1499634,0.6799927-0.0499878l0.7700195,0.4500122C49.7179909,3.6071265,49.8280373,3.8171484,49.837986,4.1071267z"/><polygon fill="#b0b8cf" points="36.081 16.984 35.311 16.537 36.01 13.744 36.78 14.192"/><path fill="#c9cee2" d="M48.7753105,3.0593052c-0.1774521-0.1031044-0.4191666-0.0958529-0.6737175,0.051177L36.958744,9.5437908c-0.5056877,0.291976-0.9576111,1.0747185-0.9559441,1.6557531l0.0071678,2.5447674l0.769989,0.4475079l-0.0071678-2.5447674c-0.001667-0.5811186,0.4502563-1.3638611,0.9559441-1.6558371l11.142849-6.4333081c0.2545509-0.1469467,0.4962654-0.1542814,0.6737213-0.0510938L48.7753105,3.0593052z"/><path fill="#e3e7f0" d="M48.8715439,3.5579305c0.505703-0.2919674,0.9605827-0.0327451,0.9622307,0.5483122l0.0080376,2.8353033c0.0016479,0.5811253-0.4502754,1.3638244-0.9559784,1.6557918l-11.1428146,6.4333067l-1.6625061,1.9533854l0.6994514-2.7922249l-0.0072136-2.544775c-0.0016479-0.5810575,0.4502792-1.3638248,0.9559822-1.6557922L48.8715439,3.5579305z"/></g><g><path fill="#1d2943" d="M38.2177773 11.7818327c-.008564-.0204792-.0222359-.0321655-.0392838-.0379839-.0187416-.0048275-.0408592.0001297-.0663643.0148554l-.0153084.0088253c-.0255013.0147257-.0475731.0353022-.0645256.0607386-.0186577.0264282-.0305061.0528555-.0406342.0841112l-.4200974 1.3951321-.0100784.0469227c.0000839.0273542.0086479.0458832.0239906.0546436.015358.0106945.0357895.0086794.0612907-.0060463.0170021-.0098171.03228-.0245094.0475578-.0431032l.0321808-.0635996.1045914-.3519478.5525627-.3190193.1062317.2302275.0324402.0262976c.0153275.000927.0306358-.0020638.0476379-.0118647.0255013-.0147257.0458832-.0362778.0611305-.0646391.0152435-.0264282.0236778-.0547733.023613-.0821276l-.0086288-.0361156L38.2177773 11.7818327zM37.8968887 12.7263594l.2091789-.7039137.2107735.461463L37.8968887 12.7263594zM39.8100777 10.8777447v.7535992c.0026665.1145201-.0212898.2290249-.0692215.3328667-.0479317.10919-.1091919.2050514-.1837425.2876015-.071907.0798855-.1517906.1438093-.2316742.19174-.0799026.0452652-.1571236.071888-.2290268.0745535-.0772171.0026655-.1384621-.0213079-.1863937-.0745535-.0479469-.0505962-.0719032-.1358118-.0719032-.2503166l-.0026665-.7562809c0-.0266228.0106468-.0532618.0239754-.0798845.0186272-.0292892.0372696-.0505972.0612411-.0665741.0239563-.0106459.0425987-.0133114.0612411-.005331.0159798.0079966.0239754.026639.0239754.0559282l.0026665.7589302c0 .0745697.015976.1278315.0452652.1651001.0292892.0319538.0692368.0505972.1171684.0452824.0479317 0 .1011925-.0186434.1544571-.0479317.0559082-.03197.1065063-.0745697.1571007-.130497.0479317-.0532455.0852165-.1145048.1145058-.181078.0293045-.0692387.0452805-.1411276.0452805-.2156973l-.0026627-.7615957c0-.0266228.0079803-.0532618.0239563-.0798845.015976-.0292883.0372849-.0505972.0612564-.0665741.0239601-.0133114.0426025-.0159769.0585785-.005331C39.7994308 10.829813 39.8100777 10.8484392 39.8100777 10.8777447zM40.8497505 10.2857513c-.0903015-.0144005-.1992149.0152292-.3267212.0888405l-.3349495.1933813c-.0237961.0137339-.042469.0343103-.0594215.0636482-.0152473.0283775-.0236816.0567398-.0236015.0840778l.0032845 1.1585169c.0000801.0273542.0086479.0458832.0240059.0565939.0170517.0077696.0357895.0067291.0595856-.0070047l.3349304-.1933813c.1275253-.0736275.2362404-.169652.3261719-.2861557.0882225-.1174622.155983-.2407436.2016029-.3707857.0439034-.1290512.0656967-.2512264.0653725-.3645287-.0003242-.1133337-.0227394-.20996-.0672226-.2879915C41.0065956 10.3458719 40.9383316 10.2991924 40.8497505 10.2857513zM40.2781219 11.6900988l-.0027924-.9866056.2295265-.132513c.0884018-.0510349.1683693-.0776253.2347946-.0729446.0664291.0027466.1193008.0309296.1569099.0835743.0359192.0516691.0548706.1287909.05513.2245226.0002785.097682-.0181694.194438-.053669.2892761-.0371857.095829-.0897484.18293-.1559334.2641964-.0661812.0792999-.1460342.1469297-.234436.1979647L40.2781219 11.6900988zM41.4972992 9.8316679c-.0170517-.0077696-.0374832-.0057545-.0612907.0079803-.0237961.0137501-.0424728.0343103-.0594254.0636635-.0152435.0264282-.0236778.0547733-.023613.0821276l.0033455 1.1780539c.0000839.027338.0086479.045867.0239906.0546436.017067.0097027.0374985.0076876.0596008-.0050716.0237961-.0137501.044178-.035285.0611305-.0626888.0169334-.0293531.0253716-.0576982.0252876-.0850534L41.522995 9.88727C41.5229111 9.8599157 41.5143471 9.8413868 41.4972992 9.8316679zM42.6586761 9.2120113c-.0885811-.0075579-.1923752.0230312-.3096924.0907583-.1173134.0677271-.2226372.1578846-.3108902.2675285-.0882416.1116114-.1577072.2339172-.2050209.3669014-.0473137.1310177-.0724716.2668629-.0754967.4036503.003788.132822.0296478.2392321.0775452.3172474.0478973.0760498.1178551.1198196.2064171.1273937.0885811.0075417.1940804-.0220394.3113976-.0897675.1172981-.0677271.2209282-.1588917.309185-.2685204.0882378-.1096601.1577072-.2339163.2067108-.3678761.0473099-.1329842.0724716-.2668791.0754967-.4036503-.003788-.130887-.0296326-.2372818-.0775299-.3152971C42.8171921 9.2653055 42.7472572 9.2215357 42.6586761 9.2120113zM42.1260872 10.5742474c-.0630302-.0086145-.1125031-.0407152-.1467171-.0972767-.0342293-.0585117-.0514908-.1366081-.0517654-.2342901-.0002785-.097683.0164795-.1954136.0502701-.2912426s.0812187-.1858234.1456947-.2680492c.0627861-.0812664.139225-.1469297.2259369-.19699.0867119-.0500593.1632805-.0727491.2263107-.0641184.0630302.0085974.1125221.0426483.1467323.099226.0342293.0565615.0514755.1346416.0517502.2323408.0002785.097682-.0164642.1953964-.0502548.2931757-.0337906.09583-.0829239.184865-.1456947.2661152-.0627861.0812502-.1392403.1469135-.2259369.1969738C42.2639961 10.5611629 42.1891327 10.5828609 42.1260872 10.5742474zM44.3197098 8.8342037c.0407333-.048955.0729294-.1008186.1000252-.1594934.0321465-.0694494.0472641-.1427517.0470505-.2189474-.000309-.1094007-.0345535-.1757469-.1010437-.201931-.066494-.0261841-.1618042-.0044203-.2825165.0652733l-.391037.2257748c-.0238113.0137339-.044178.0352859-.0611267.0646229-.0152473.0283775-.0236816.0567398-.0236015.084094l.0032845 1.1585007c.0000801.0273705.0086441.0458994.0256958.0556192.015358.0087442.0357895.0067282.0595856-.0070057l.4012604-.231658c.1496086-.0863857.2600174-.1853523.3312416-.2930136.0695152-.1086206.1049461-.2249613.1046066-.3441305-.0002289-.084013-.0225449-.1415825-.0668983-.1727238C44.4269829 8.8329363 44.3775711 8.8242731 44.3197098 8.8342037zM44.2479362 8.7484522c-.0390091.0577316-.1069641.1165352-.2021751.171504L43.7788353 9.07407 43.777729 8.6813908l.295826-.1708059c.0714188-.0412178.1275711-.0560408.1684647-.0463705.0408936.009655.0614204.0427952.0615845.0994539C44.3037987 8.6281452 44.2852364 8.6897287 44.2479362 8.7484522zM43.7805252 9.6679811l-.0011864-.4161329.3026352-.1747227c.192131-.1109123.2858315-.0965281.2862206.0421772.0001945.0664272-.0200729.1290026-.0624771.1887007-.0440941.0626564-.1188431.1253777-.2242622.1862297L43.7805252 9.6679811zM45.5914955 7.5187454c-.0868721-.0085492-.1923561.0230145-.3096733.0907421-.1173134.0677438-.2209473.156909-.309185.2665696-.0899467.1125865-.1577225.2339015-.2067261.3678603-.0473137.1310339-.0724716.2668791-.0737877.4026747.002079.1338139.0279236.2402239.0758362.318223.0495911.0750742.117836.1198196.2081223.1264181.0885658.0075579.1923752-.0210638.3096924-.0887918.1173134-.0677271.2226372-.1598511.3091698-.2685204.088253-.1096601.1577225-.2339172.2067261-.3678598.0473099-.1330004.0741768-.2678699.0754929-.4036503-.002079-.1318626-.0296288-.2372813-.0775261-.3153133C45.7500305 7.5720401 45.6800919 7.5282698 45.5914955 7.5187454zM45.0589256 8.8809814c-.0630302-.0086308-.1125031-.0407152-.1467323-.0972929-.0325241-.0594864-.0497704-.1375837-.050045-.2352657-.0002785-.097682.0164642-.1954136.0485649-.2902508.0337753-.09583.0829086-.1868153.1456947-.2680655.0627708-.0812664.139225-.1469297.2259369-.1969895.0867119-.0500603.1632805-.0727334.2263107-.0641193.0647354.0076227.1125183.042665.1467323.0992265.0342293.056561.0514755.1346583.0517502.2323408.0002785.097682-.0164795.1954126-.0502548.2931919-.0337906.09583-.0812149.1838741-.14571.2661152-.0627708.0812502-.139225.1469135-.2259369.1969738C45.1985245 8.8669052 45.1219559 8.8895788 45.0589256 8.8809814zM46.9414597 6.7393522c-.0885773-.0075741-.1923714.0230145-.3096886.0907421-.1173172.0677438-.2226372.1578841-.3108902.2675452-.0882263.1116109-.1577072.2339005-.2050209.3668847-.0472984.1310339-.0724564.2668791-.0754814.4036503.003788.1328382.0296326.2392483.0775299.3172474.0478973.0760489.1178513.1198196.2064171.1273937.0885811.0075579.1940804-.0220394.3113937-.0897675.1173172-.0677271.220932-.1588755.3091888-.2685199.0882378-.1096611.1577034-.2339172.2050171-.3668852.0490036-.133976.0741653-.2678704.0754814-.4036503-.0020638-.1318626-.0279236-.2382727-.0775299-.3152971C47.0999794 6.7926307 47.0300407 6.7488766 46.9414597 6.7393522zM46.4071846 8.1025629c-.0630302-.0086145-.110817-.0417061-.1450272-.0982676-.0342293-.0585113-.0514755-.1365924-.0517693-.2342744-.0002747-.0976982.0164833-.1954131.0502739-.2912421.0337906-.0958295.0812149-.1858401.1439857-.2670903.0644951-.0822415.1392441-.1469131.2276421-.1979647.0867119-.0500603.1615753-.0717583.2263107-.0641193.0630493.0086141.1125221.042665.1467514.0992265.0325089.0575366.0497704.1356335.050045.2333317.0002747.0976825-.0164795.1953969-.0485649.2921853-.0337906.095829-.0829239.1848645-.1456947.2661309-.0627861.081234-.139225.1468973-.2259369.1969738C46.5467834 8.0884876 46.4702148 8.1111774 46.4071846 8.1025629zM48.3820686 7.109683c.0026665.0239735-.0053139.0505962-.0212898.079885-.015976.026639-.0372849.0479307-.0612602.0639076-.0292854.0159931-.0505943.0133276-.0665703-.0026493l-.4234009-.375483L47.6311378 7.189568v.3515096c0 .026639-.0079994.0559273-.0239754.0852156-.0186424.0266228-.0372849.0479312-.0612411.0612426-.0239754.0133276-.0426178.0159769-.0612602.005331-.0133095-.0079803-.0239563-.0266228-.0239563-.0532622l-.0026665-1.1796784c0-.0266232.0079803-.0559115.0239754-.0825505.015976-.0292883.0372696-.0505962.0585747-.0639081.0239754-.0133114.0452652-.0133114.061245-.0079966.0186424.0106621.026638.029305.026638.0559278l.0026665.5805182.5485611-.9639816c.0186272-.0292888.0372696-.0532622.0639114-.0692391.0212898-.0106459.0399323-.0133114.0559082-.0079803.0159798.0079803.0239754.0239573.0239754.0479307 0 .0292888-.0079956.0559278-.0213089.079885l-.3754654.6524229.4367256.3754668C48.3767548 7.0723982 48.3820686 7.0857258 48.3820686 7.109683z"/></g><g><path fill="#7e5af2" d="M13.5279894,18.9471531c0,0.6699829-0.4699707,1.4899902-1.0499878,1.8300171l-4.7499995,2.7399902c-0.3200073,0.1900024-0.6099854,0.1900024-0.7999878,0.0299683c0.0100098,0.0200195,0.0299683,0.0300293,0.0499878,0.0400391l-0.8999634-0.5200195c-0.1900024-0.1099854-0.3099976-0.3499756-0.3099976-0.6799927l-0.0100098-5.4400024c-0.0100098-0.6699829,0.4599609-1.4899902,1.039978-1.8300171l4.7499995-2.7399902c0.289978-0.1699829,0.5599976-0.1799927,0.75-0.0700073l0.8699951,0.5c0.0100098,0.0100098,0.0300293,0.0100098,0.039978,0.0200195c0.1900024,0.1199951,0.3000488,0.3499756,0.3100586,0.6799927L13.5279894,18.9471531z"/></g><g><path fill="#b28afd" d="M12.4518108,12.9041834c0.5837173-0.3370094,1.0598621-0.0656471,1.0617638,0.6050463l0.0154257,5.4410477c0.0019016,0.6707363-0.4711514,1.490118-1.0548687,1.8271275l-4.7460442,2.7401295c-0.5837173,0.3370094-1.0544057,0.0624962-1.0563068-0.6082382l-0.0154257-5.4410477c-0.0019011-0.6706944,0.4656944-1.4869251,1.0494118-1.8239346L12.4518108,12.9041834z"/><path fill="#7e5af2" d="M6.9807625,23.590744c-0.1902962-0.1105576-0.3079987-0.3466415-0.3089895-0.6814461l-0.0153847-5.4410343c-0.0019293-0.6707039,0.4656491-1.4869576,1.0493655-1.8239517l4.7460818-2.7401257c0.2937098-0.1695929,0.5601969-0.1851339,0.7527351-0.0732193l-0.9032927-0.5249434c-0.1925383-0.1119146-0.4590254-0.0963736-0.7527351,0.0732183l-4.7460818,2.7401257c-0.5837169,0.3369951-1.0512953,1.1532497-1.0493655,1.8239517l0.0153842,5.4410343c0.0009909,0.3348045,0.1186938,0.5708885,0.3089895,0.6814461L6.9807625,23.590744z"/><path fill="#fff" d="M12.2792521,14.3531876v4.1749554c0.0190821,0.3240509-0.2478371,0.819725-0.6481009,1.2199879c-0.304574,0.304575-0.8537769,0.6074467-0.9913492,0.228756c-0.095295-0.2858868,0.1715078-0.8768559,0.6291342-1.2963181c0.13941-0.1626682,0.4687519-0.4002628,0.6671839-0.4002628l-0.019083-2.6117182l-2.3638802,2.192256v2.5545864c0.0572472,0.3049679-0.2096729,0.8577728-0.6291342,1.2390709c-0.3173628,0.3173637-0.8702908,0.6330662-1.0103159,0.2478371c-0.095295-0.2858849,0.1905909-0.8768559,0.6291351-1.2963181c0.2343025-0.2345066,0.5130739-0.3848763,0.686265-0.4193439l-0.0190821-3.2599354L12.2792521,14.3531876z"/></g></svg>