<svg xmlns="http://www.w3.org/2000/svg" viewBox="0 0 53 53"><path fill="#1d2943" d="M9.97 35.176c.12-.07.296-.057.487.05.382.219.694.75.687 1.188 0 .22-.078.375-.198.446l2.893-1.695c.12-.07.198-.226.198-.439 0-.445-.304-.969-.686-1.188-.191-.113-.368-.127-.488-.05l-2.894 1.688z"/><path fill="#111d33" d="M10.458 35.228c-.38-.219-.688-.049-.69.393 0 .436.306.971.685 1.19.38.22.692.04.693-.395.002-.441-.31-.969-.688-1.188z"/><path fill="#1d2943" d="M25.633 26.133c.12-.071.297-.057.488.05.382.218.694.749.686 1.187 0 .22-.077.375-.198.446l2.894-1.695c.12-.07.198-.226.198-.438 0-.446-.304-.97-.686-1.189-.191-.113-.368-.127-.488-.049l-2.894 1.688z"/><path fill="#111d33" d="M26.121 26.185c-.379-.22-.687-.049-.688.392-.002.436.305.971.684 1.19.38.22.692.041.693-.395.001-.44-.31-.968-.689-1.187z"/><path fill="#e9e7fc" d="M48.56 36.368c0 .148-.093.286-.278.388L24.585 50.437c-.36.212-.951.212-1.302 0L8.2 41.677c-.176-.102-.268-.24-.268-.37l-.01-3.01c0 .13.093.268.268.37l15.085 8.76c.36.213.941.213 1.302 0l23.697-13.68c.185-.102.277-.25.277-.388l.01 3.01z"/><path fill="#f8f9fe" d="M8.198 37.912c-.36.208-.368.545-.005.756l15.08 8.763c.356.207.944.207 1.303 0l23.7-13.684c.366-.21.368-.55.01-.758l-15.078-8.763c-.363-.211-.945-.208-1.31.003l-23.7 13.683z"/><path fill="#4c5c75" d="M30.695 31.162c-.083.048-.084.128-.001.176l1.001.582c.083.048.22.048.303 0l1.077-.622c.09-.052.09-.132.008-.18l-1.001-.582a.34.34 0 0 0-.31.004l-1.077.622z"/><path fill="#e9e7fc" d="M25.372 39.597c-.083.048-.09.124-.001.176l4.55 2.683a.34.34 0 0 0 .31.004l8.916-5.148c.09-.052.09-.132.001-.183l-4.55-2.683a.328.328 0 0 0-.31.004l-8.916 5.147z"/><path fill="#4c5c75" d="M20.617 32.682c-.09.052-.083.128.006.18l.995.578c.09.051.213.051.303 0l1.077-.622c.09-.052.097-.128.008-.18l-.995-.578a.342.342 0 0 0-.316 0l-1.078.622zm-2.455 8.157c-.082.048-.09.124 0 .176l.994.578a.34.34 0 0 0 .31.004l1.084-.626c.083-.048.083-.128-.006-.18l-.995-.578a.325.325 0 0 0-.302 0l-1.085.626zM32.76 30.162c-.083.048-.083.128 0 .176l1.001.582c.082.048.22.048.303 0l1.084-.626c.083-.048.083-.128.001-.175l-1.002-.583a.337.337 0 0 0-.303 0l-1.084.626zm4.007-.063c-.083.047-.09.123-.001.175l.994.578a.34.34 0 0 0 .31.004l1.084-.626c.083-.048.084-.127-.006-.18l-.994-.577a.325.325 0 0 0-.303 0l-1.084.626zM34.7 31.29c-.083.048-.09.123-.001.175l.995.578a.34.34 0 0 0 .31.004l1.083-.626c.083-.048.084-.127-.005-.18l-.995-.577a.325.325 0 0 0-.303 0l-1.084.626zm-3.753-4.573c-.083.048-.083.127.006.18l.995.577c.089.052.22.048.302 0l1.084-.626c.083-.048.09-.123.001-.175l-.994-.578a.34.34 0 0 0-.31-.004l-1.084.626zm-2.065 1.192c-.083.048-.083.127.006.18l.995.577c.089.052.22.048.303 0l1.084-.626c.083-.047.09-.123 0-.175l-.994-.578a.34.34 0 0 0-.31-.004l-1.084.626z"/><path fill="#4c5c75" d="M30.825 29.038c-.083.048-.09.124-.001.176l1.001.582c.083.047.22.047.303 0l1.913-1.105 1.784 1.037c.082.048.22.048.303 0l1.084-.626c.083-.048.083-.128 0-.176l-2.936-1.706a.325.325 0 0 0-.302 0l-3.15 1.818zm-4.007.064c-.082.048-.083.127.006.18l.995.577c.09.052.22.048.303 0l1.077-.622c.09-.051.097-.127.008-.179l-.995-.578a.342.342 0 0 0-.316 0l-1.078.622zm1.942 1.128c-.083.048-.083.128-.001.176l1.002.582c.082.048.22.048.302 0l1.078-.622c.09-.052.09-.132.008-.18l-1.002-.582a.34.34 0 0 0-.31.004l-1.077.622zm-4.013.068c-.083.048-.083.127.006.18l.994.577c.09.052.22.048.303 0l1.084-.626c.083-.047.09-.123.001-.175l-.994-.578a.34.34 0 0 0-.31-.004l-1.084.626zm1.941 1.128c-.082.048-.083.128 0 .176l1.001.582c.082.048.22.048.303 0l1.084-.626c.083-.048.083-.128.001-.176l-1.002-.582a.337.337 0 0 0-.302 0l-1.085.626zm-4.006.064c-.083.048-.083.128.006.18l.995.577c.089.052.22.048.303 0l1.084-.625c.083-.048.09-.124 0-.176l-.994-.578a.34.34 0 0 0-.31-.004l-1.084.626zm5.941 1.06c-.083.048-.083.128-.001.176l1.002.582c.082.048.22.048.303 0l1.084-.626c.083-.048.083-.128 0-.175l-1.001-.582a.338.338 0 0 0-.303 0l-1.084.625zm-4 .068c-.082.048-.083.128 0 .176l1.001.582c.083.048.22.048.303 0l1.084-.626c.083-.048.084-.128.001-.176l-1.001-.582a.337.337 0 0 0-.303 0l-1.084.626zm1.935 1.125c-.083.047-.083.127 0 .175l1.001.582c.082.048.22.048.303 0l1.084-.626c.083-.048.083-.127 0-.175l-1-.582a.337.337 0 0 0-.304 0l-1.084.626zm-3.999.067c-.09.052-.083.128-.001.176l1.002.582a.325.325 0 0 0 .302 0l1.078-.622c.09-.052.09-.132.008-.18l-1.002-.582a.34.34 0 0 0-.31.004l-1.077.622zm1.935 1.125c-.09.051-.084.127-.001.175l1.001.582a.325.325 0 0 0 .303 0l1.077-.622c.09-.052.09-.131.008-.18l-1.001-.581a.34.34 0 0 0-.31.004l-1.077.622zm-4.007.071c-.083.048-.083.128 0 .176l1.001.582c.082.048.22.048.303 0l1.084-.626c.083-.048.083-.128.001-.175l-1.002-.583a.337.337 0 0 0-.302 0l-1.085.626zm1.935 1.125c-.083.048-.083.127-.001.175l1.002.582c.082.048.22.048.303 0l1.084-.626c.083-.048.083-.127 0-.175l-1.001-.582a.337.337 0 0 0-.303 0l-1.084.626zm-8.006.131c-.09.052-.09.132 0 .184l.994.578c.09.052.22.048.31-.004l1.077-.622c.09-.052.097-.128.008-.18l-.995-.578a.342.342 0 0 0-.316 0l-1.078.622zm-2.071 1.196c-.083.048-.084.128.006.18l.994.578c.09.052.22.048.303 0l1.084-.626c.083-.048.09-.124.001-.176l-.994-.578a.34.34 0 0 0-.31-.004l-1.084.626zm9.954.993c-.083.048-.09.124-.001.175l.995.579a.34.34 0 0 0 .31.004l11.414-6.59c.09-.053.09-.132 0-.184l-.994-.578a.328.328 0 0 0-.31.004L22.3 38.45zm-8.013.136c-.083.047-.083.127 0 .175l1.001.582c.082.048.22.048.303 0l3.149-1.818c.09-.052.09-.132.008-.18l-1.002-.581a.34.34 0 0 0-.31.004l-3.149 1.818zm1.935 1.124c-.083.048-.083.127-.001.175l1.002.582c.082.048.22.048.302 0l5.22-3.014c.084-.048.084-.127.002-.175l-1.002-.582a.337.337 0 0 0-.303 0l-5.22 3.014zm2.325-5.833c-.083.048-.083.128.006.18l.994.578c.09.051.22.047.303 0l1.084-.626c.083-.048.09-.124.001-.176l-.994-.578a.34.34 0 0 0-.31-.004l-1.084.626zm-.123 2.32c-.083.048-.084.128-.001.176l1.001.582c.083.048.22.048.303 0l1.084-.626c.083-.048.084-.128.001-.175l-1.001-.582a.337.337 0 0 0-.303 0l-1.084.625zM16.48 35.07c-.083.048-.083.128.006.18l.995.578c.089.051.22.047.303 0l1.084-.626c.083-.048.09-.124 0-.176l-.994-.578a.34.34 0 0 0-.31-.004l-1.084.626zm3.753 4.573c-.09.052-.097.128-.008.18l.995.578c.09.051.227.051.317 0l1.077-.622c.09-.052.09-.132 0-.184l-.994-.578a.328.328 0 0 0-.31.004l-1.077.622z"/><path fill="#1d2943" d="M32.101 21.83c0 .41-.29.92-.65 1.13l-23.7 13.68c-.18.11-.35.12-.47.04l-2.6-1.51c-.12-.06-.19-.21-.19-.41l-.05-17.45c0-.42.29-.93.65-1.14l23.7-13.68c.19-.1.35-.11.47-.05l2.52 1.48.05.03c.14.06.22.21.22.43l.05 17.45z"/><g fill="#111d33"><path d="M9.97 35.176c.12-.07.296-.057.487.05.382.219.694.75.687 1.188 0 .22-.078.375-.198.446l2.893-1.695c.12-.07.198-.226.198-.439 0-.445-.304-.969-.686-1.188-.191-.113-.368-.127-.488-.05l-2.894 1.688z"/><path d="M10.458 35.228c-.38-.219-.688-.049-.69.393 0 .436.306.971.685 1.19.38.22.692.04.693-.395.002-.441-.31-.969-.688-1.188z"/></g><g fill="#111d33"><path d="M25.633 26.133c.12-.071.297-.057.488.05.382.218.694.749.686 1.187 0 .22-.077.375-.198.446l2.894-1.695c.12-.07.198-.226.198-.438 0-.446-.304-.97-.686-1.189-.191-.113-.368-.127-.488-.049l-2.894 1.688z"/><path d="M26.121 26.185c-.379-.22-.687-.049-.688.392-.002.436.305.971.684 1.19.38.22.692.041.693-.395.001-.44-.31-.968-.689-1.187z"/></g><g fill="#111d33"><path d="M9.97 35.176c.12-.07.296-.057.487.05.382.219.694.75.687 1.188 0 .22-.078.375-.198.446l2.893-1.695c.12-.07.198-.226.198-.439 0-.445-.304-.969-.686-1.188-.191-.113-.368-.127-.488-.05l-2.894 1.688z"/><path d="M10.458 35.228c-.38-.219-.688-.049-.69.393 0 .436.306.971.685 1.19.38.22.692.04.693-.395.002-.441-.31-.969-.688-1.188z"/></g><g fill="#111d33"><path d="M25.633 26.133c.12-.071.297-.057.488.05.382.218.694.749.686 1.187 0 .22-.077.375-.198.446l2.894-1.695c.12-.07.198-.226.198-.438 0-.446-.304-.97-.686-1.189-.191-.113-.368-.127-.488-.049l-2.894 1.688z"/><path d="M26.121 26.185c-.379-.22-.687-.049-.688.392-.002.436.305.971.684 1.19.38.22.692.041.693-.395.001-.44-.31-.968-.689-1.187z"/></g><path fill="#111d33" d="M14.041 34.73c0 .21-.08.36-.2.43l-2.9 1.7c.04-.02.07-.05.09-.09-.085.154-.33.18-.58.04-.38-.22-.68-.75-.68-1.19 0-.22.08-.37.2-.44.01-.01.03-.01.04-.02 0-.01.01-.01.01-.01.01 0 .02 0 .03-.01l2.81-1.65c.12-.08.3-.07.49.05.38.22.69.74.69 1.19zm15.66-9.05c0 .21-.08.37-.2.44l-2.89 1.7c.04-.02.07-.05.09-.09-.12.16-.33.18-.58.04-.38-.22-.69-.76-.69-1.19 0-.23.09-.39.23-.46l2.87-1.68c.12-.07.29-.06.48.05.39.22.69.75.69 1.19z"/><path fill="#1d2943" d="M9.97 35.176c.12-.07.296-.057.487.05.382.219.694.75.687 1.188 0 .22-.078.375-.198.446l2.893-1.695c.12-.07.198-.226.198-.439 0-.445-.304-.969-.686-1.188-.191-.113-.368-.127-.488-.05l-2.894 1.688z"/><path fill="#111d33" d="M10.458 35.228c-.38-.219-.688-.049-.69.393 0 .436.306.971.685 1.19.38.22.692.04.693-.395.002-.441-.31-.969-.688-1.188z"/><path fill="#1d2943" d="M25.633 26.133c.12-.071.297-.057.488.05.382.218.694.749.686 1.187 0 .22-.077.375-.198.446l2.894-1.695c.12-.07.198-.226.198-.438 0-.446-.304-.97-.686-1.189-.191-.113-.368-.127-.488-.049l-2.894 1.688z"/><path fill="#111d33" d="M26.121 26.185c-.379-.22-.687-.049-.688.392-.002.436.305.971.684 1.19.38.22.692.041.693-.395.001-.44-.31-.968-.689-1.187z"/><path fill="#1d2943" d="M31.859 3.96c-.111-.066-.277-.056-.462.045L7.7 17.687c-.369.212-.664.72-.655 1.135L7.09 36.27c0 .203.074.35.194.415l-2.603-1.514c-.12-.064-.194-.212-.194-.415L4.44 17.308c0-.415.286-.923.655-1.135L28.794 2.49c.184-.101.35-.11.47-.046L31.86 3.96z"/><path fill="#4c5c75" d="M31.398 4.006c.36-.208.655-.04.656.374l.05 17.446c.001.414-.293.922-.652 1.13l-23.7 13.683c-.366.211-.661.043-.663-.37l-.05-17.447c0-.413.293-.922.659-1.133l23.7-13.683z"/><path fill="#f8f9fe" d="M7.963 18.82a.578.578 0 0 1 .196-.331L30.72 5.464a.277.277 0 0 1 .416.239l.046 16.126a.587.587 0 0 1-.19.328L8.423 35.185a.277.277 0 0 1-.415-.24L7.963 18.82z"/><path fill="#e9e7fc" d="M48.56 36.368c0 .148-.093.286-.278.388L24.585 50.437c-.36.212-.951.212-1.302 0L8.2 41.677c-.176-.102-.268-.24-.268-.37l-.01-3.01c0 .13.093.268.268.37l15.085 8.76c.36.213.941.213 1.302 0l23.697-13.68c.185-.102.277-.25.277-.388l.01 3.01z"/><path fill="#f8f9fe" d="M8.198 37.912c-.36.208-.368.545-.005.756l15.08 8.763c.356.207.944.207 1.303 0l23.7-13.684c.366-.21.368-.55.01-.758l-15.078-8.763c-.363-.211-.945-.208-1.31.003l-23.7 13.683z"/><path fill="#4c5c75" d="M30.695 31.162c-.083.048-.084.128-.001.176l1.001.582c.083.048.22.048.303 0l1.077-.622c.09-.052.09-.132.008-.18l-1.001-.582a.34.34 0 0 0-.31.004l-1.077.622z"/><path fill="#e9e7fc" d="M25.372 39.597c-.083.048-.09.124-.001.176l4.55 2.683a.34.34 0 0 0 .31.004l8.916-5.148c.09-.052.09-.132.001-.183l-4.55-2.683a.328.328 0 0 0-.31.004l-8.916 5.147z"/><g fill="#4c5c75"><path d="M20.617 32.682c-.09.052-.083.128.006.18l.995.578c.09.051.213.051.303 0l1.077-.622c.09-.052.097-.128.008-.18l-.995-.578a.342.342 0 0 0-.316 0l-1.078.622zm-2.455 8.157c-.082.048-.09.124 0 .176l.994.578a.34.34 0 0 0 .31.004l1.084-.626c.083-.048.083-.128-.006-.18l-.995-.578a.325.325 0 0 0-.302 0l-1.085.626zM32.76 30.162c-.083.048-.083.128 0 .176l1.001.582c.082.048.22.048.303 0l1.084-.626c.083-.048.083-.128.001-.175l-1.002-.583a.337.337 0 0 0-.303 0l-1.084.626zm4.007-.063c-.083.047-.09.123-.001.175l.994.578a.34.34 0 0 0 .31.004l1.084-.626c.083-.048.084-.127-.006-.18l-.994-.577a.325.325 0 0 0-.303 0l-1.084.626zM34.7 31.29c-.083.048-.09.123-.001.175l.995.578a.34.34 0 0 0 .31.004l1.083-.626c.083-.048.084-.127-.005-.18l-.995-.577a.325.325 0 0 0-.303 0l-1.084.626zm-3.753-4.573c-.083.048-.083.127.006.18l.995.577c.089.052.22.048.302 0l1.084-.626c.083-.048.09-.123.001-.175l-.994-.578a.34.34 0 0 0-.31-.004l-1.084.626zm-2.065 1.192c-.083.048-.083.127.006.18l.995.577c.089.052.22.048.303 0l1.084-.626c.083-.047.09-.123 0-.175l-.994-.578a.34.34 0 0 0-.31-.004l-1.084.626z"/><path d="M30.825 29.038c-.083.048-.09.124-.001.176l1.001.582c.083.047.22.047.303 0l1.913-1.105 1.784 1.037c.082.048.22.048.303 0l1.084-.626c.083-.048.083-.128 0-.176l-2.936-1.706a.325.325 0 0 0-.302 0l-3.15 1.818zm-4.007.064c-.082.048-.083.127.006.18l.995.577c.09.052.22.048.303 0l1.077-.622c.09-.051.097-.127.008-.179l-.995-.578a.342.342 0 0 0-.316 0l-1.078.622zm1.942 1.128c-.083.048-.083.128-.001.176l1.002.582c.082.048.22.048.302 0l1.078-.622c.09-.052.09-.132.008-.18l-1.002-.582a.34.34 0 0 0-.31.004l-1.077.622zm-4.013.068c-.083.048-.083.127.006.18l.994.577c.09.052.22.048.303 0l1.084-.626c.083-.047.09-.123.001-.175l-.994-.578a.34.34 0 0 0-.31-.004l-1.084.626zm1.941 1.128c-.082.048-.083.128 0 .176l1.001.582c.082.048.22.048.303 0l1.084-.626c.083-.048.083-.128.001-.176l-1.002-.582a.337.337 0 0 0-.302 0l-1.085.626zm-4.006.064c-.083.048-.083.128.006.18l.995.577c.089.052.22.048.303 0l1.084-.625c.083-.048.09-.124 0-.176l-.994-.578a.34.34 0 0 0-.31-.004l-1.084.626zm5.941 1.06c-.083.048-.083.128-.001.176l1.002.582c.082.048.22.048.303 0l1.084-.626c.083-.048.083-.128 0-.175l-1.001-.582a.338.338 0 0 0-.303 0l-1.084.625zm-4 .068c-.082.048-.083.128 0 .176l1.001.582c.083.048.22.048.303 0l1.084-.626c.083-.048.084-.128.001-.176l-1.001-.582a.337.337 0 0 0-.303 0l-1.084.626zm1.935 1.125c-.083.047-.083.127 0 .175l1.001.582c.082.048.22.048.303 0l1.084-.626c.083-.048.083-.127 0-.175l-1-.582a.337.337 0 0 0-.304 0l-1.084.626zm-3.999.067c-.09.052-.083.128-.001.176l1.002.582a.325.325 0 0 0 .302 0l1.078-.622c.09-.052.09-.132.008-.18l-1.002-.582a.34.34 0 0 0-.31.004l-1.077.622zm1.935 1.125c-.09.051-.084.127-.001.175l1.001.582a.325.325 0 0 0 .303 0l1.077-.622c.09-.052.09-.131.008-.18l-1.001-.581a.34.34 0 0 0-.31.004l-1.077.622zm-4.007.071c-.083.048-.083.128 0 .176l1.001.582c.082.048.22.048.303 0l1.084-.626c.083-.048.083-.128.001-.175l-1.002-.583a.337.337 0 0 0-.302 0l-1.085.626zm1.935 1.125c-.083.048-.083.127-.001.175l1.002.582c.082.048.22.048.303 0l1.084-.626c.083-.048.083-.127 0-.175l-1.001-.582a.337.337 0 0 0-.303 0l-1.084.626zm-8.006.131c-.09.052-.09.132 0 .184l.994.578c.09.052.22.048.31-.004l1.077-.622c.09-.052.097-.128.008-.18l-.995-.578a.342.342 0 0 0-.316 0l-1.078.622zm-2.071 1.196c-.083.048-.084.128.006.18l.994.578c.09.052.22.048.303 0l1.084-.626c.083-.048.09-.124.001-.176l-.994-.578a.34.34 0 0 0-.31-.004l-1.084.626zm9.954.993c-.083.048-.09.124-.001.175l.995.579a.34.34 0 0 0 .31.004l11.414-6.59c.09-.053.09-.132 0-.184l-.994-.578a.328.328 0 0 0-.31.004L22.3 38.45zm-8.013.136c-.083.047-.083.127 0 .175l1.001.582c.082.048.22.048.303 0l3.149-1.818c.09-.052.09-.132.008-.18l-1.002-.581a.34.34 0 0 0-.31.004l-3.149 1.818zm1.935 1.124c-.083.048-.083.127-.001.175l1.002.582c.082.048.22.048.302 0l5.22-3.014c.084-.048.084-.127.002-.175l-1.002-.582a.337.337 0 0 0-.303 0l-5.22 3.014zm2.325-5.833c-.083.048-.083.128.006.18l.994.578c.09.051.22.047.303 0l1.084-.626c.083-.048.09-.124.001-.176l-.994-.578a.34.34 0 0 0-.31-.004l-1.084.626zm-.123 2.32c-.083.048-.084.128-.001.176l1.001.582c.083.048.22.048.303 0l1.084-.626c.083-.048.084-.128.001-.175l-1.001-.582a.337.337 0 0 0-.303 0l-1.084.625zM16.48 35.07c-.083.048-.083.128.006.18l.995.578c.089.051.22.047.303 0l1.084-.626c.083-.048.09-.124 0-.176l-.994-.578a.34.34 0 0 0-.31-.004l-1.084.626zm3.753 4.573c-.09.052-.097.128-.008.18l.995.578c.09.051.227.051.317 0l1.077-.622c.09-.052.09-.132 0-.184l-.994-.578a.328.328 0 0 0-.31.004l-1.077.622z"/></g><path fill="#b28afd" d="m29.663 12.654.003 1.343-2.613 1.509-.004-1.343z"/><path fill="#78e75a" d="m29.656 10.438.004 1.343-2.614 1.509-.003-1.342z"/><path fill="#4c5c75" d="m29.65 8.223.004 1.342-2.614 1.509-.004-1.342z"/><path fill="#febc1f" d="m29.669 14.87.004 1.342-2.614 1.509-.004-1.342z"/><path fill="#4c5c75" d="m29.675 17.085.004 1.343-2.614 1.509-.004-1.343z"/><path fill="#78e75a" d="m29.675 19.476.004 1.342-2.614 1.51-.004-1.343z"/><path fill="#4c5c75" d="m9.507 32.426-.002-.719 16.837-9.798.002.719z"/><path fill="#febc1f" d="M15.193 27.708c.433-.25.794-.144.93.22.036.098.056.215.057.35 0 .133-.02.273-.056.414-.133.516-.493 1.041-.924 1.29-.426.246-.794.14-.934-.218a.969.969 0 0 1-.059-.348c0-.134.02-.274.056-.415.136-.52.503-1.047.93-1.293z"/><path fill="#f45170" d="m9.465 19.872 16.723-9.656.029 10.172-16.723 9.654z"/><path fill="#57b3fe" d="M10.266 20.333 25.392 11.6l.024 8.326-15.127 8.733z"/><path fill="#fff" d="M23.966 13.873l.003.928-.877.507-.003-.929zM23.973 16.258l.002.924-.876.507-.003-.925zM23.969 15.068l.003.924-.877.506-.002-.924zM23.983 19.834l.003.924-.877.506-.003-.924zM23.98 18.644l.002.924-.876.506-.003-.924zM23.976 17.453l.003.924-.877.506-.002-.924zM22.085 20.93l.002.924-.876.506-.003-.924zM22.081 19.74l.003.924-.877.506-.002-.924zM22.078 18.549l.003.924-.877.506-.003-.924zM22.075 17.354l.002.924-.877.507-.002-.925zM20.183 22.028l.002.924-.873.504-.002-.924zM20.179 20.838l.003.924-.873.504-.003-.924zM20.176 19.647l.003.924-.873.504-.003-.924zM20.173 18.452l.002.924-.873.505-.002-.925zM20.169 17.262l.003.924-.873.504-.003-.924zM20.166 16.067l.003.928-.874.504-.002-.928zM18.274 19.548l.003.924-.873.505-.003-.925zM18.285 23.124l.002.924-.873.504-.003-.924zM18.281 21.934l.003.924-.873.504-.003-.924zM18.278 20.743l.002.924-.873.504-.002-.924zM16.373 19.454l.002.924-.876.506-.003-.924zM16.369 18.259l.003.928-.877.507-.002-.929zM16.376 20.644l.003.924-.877.507-.003-.925zM16.383 23.03l.003.924-.877.506-.003-.924zM16.38 21.839l.002.924-.877.506-.002-.924zM16.386 24.22l.003.924-.877.506-.002-.924zM14.481 22.935l.003.924-.877.506-.002-.924zM14.478 21.74l.002.924-.876.507-.003-.925zM14.485 24.125l.002.925-.876.506-.003-.924zM14.488 25.316l.003.924-.877.506-.003-.924zM12.573 21.648l.002.924-.873.504-.002-.924zM12.569 20.453l.003.928-.873.504-.003-.928zM12.586 26.414l.003.924-.873.504-.003-.924zM12.583 25.224l.002.924-.873.504-.002-.924zM12.579 24.033l.003.924-.873.504-.003-.924zM12.576 22.838l.003.924-.873.504-.003-.924z"/></svg>