<svg xmlns="http://www.w3.org/2000/svg" viewBox="0 0 130 130"><path fill="#3A3D4C" d="M98.05 93.906v2.231c0 .203-.14.406-.406.562l-15.321 8.902c-.524.312-1.399.312-1.938 0L52.62 89.57c-.274-.156-.406-.367-.406-.57V86.77c0 .21.14.414.414.57l27.757 16.03c.547.312 1.414.312 1.945 0l15.322-8.902c.265-.156.398-.36.398-.562z"/><path fill="#5B5D70" d="M97.652 94.468 82.33 103.37c-.53.312-1.398.312-1.937 0L52.62 87.34c-.54-.313-.54-.82-.008-1.125l15.321-8.901c.532-.312 1.406-.312 1.945 0l27.766 16.03c.539.312.539.812.008 1.124zm21.082-46.456-.148 51.289c0 1.21-.437 2.075-1.12 2.47l-2.602 1.515c.683-.395 1.12-1.26 1.12-2.47l.14-51.289c.008-2.446-1.705-5.426-3.829-6.653L42.727 2.71c-1.079-.61-2.05-.675-2.742-.272L42.58.931c.7-.404 1.671-.354 2.75.263l69.56 40.173c2.124 1.219 3.853 4.2 3.845 6.645z"/><path fill="#3A3D4C" d="m116.124 49.527-.14 51.29c-.008 2.444-1.738 3.433-3.87 2.205L42.546 62.858c-2.125-1.227-3.845-4.208-3.837-6.653l.148-51.29c.008-2.453 1.737-3.433 3.862-2.206l69.568 40.165c2.124 1.227 3.845 4.208 3.837 6.653z"/><path fill="#FC849D" d="m46.706 10.975-.128 45.093-13.563 7.882.127-45.093z"/><path fill="#FC849D" d="m32.622 64.498.128-45.093c0-.198.131-.396.392-.548l-.127 45.093c-.262.152-.393.35-.393.548z"/><path fill="#FFF" d="m32.622 64.498.128-45.093c-.001.2.132.402.399.556l-.128 45.093c-.267-.154-.4-.355-.4-.556zM56.473 16.614l-.128 45.093-13.563 7.882.127-45.093zM41.004 24.496l-.128 45.093-7.855-4.535.128-45.093z"/><path fill="#FFF" d="m42.91 24.496-.128 45.093c-.527.306-1.376.306-1.906 0l.128-45.093c.53.305 1.38.305 1.905 0z"/><path fill="#FFF" d="m56.473 16.614-13.564 7.882c-.526.305-1.376.305-1.905 0l-7.855-4.535c-.53-.306-.533-.798-.007-1.104l13.564-7.882 9.767 5.639z"/><path fill="#96D696" d="m58.274 17.653-14.934 8.68c-.718.417-1.887.417-2.608 0l-10.755-6.21c-.72-.415-.725-1.092-.007-1.51l14.935-8.678 1.8 1.04-13.563 7.882c-.526.306-.523.798.007 1.104l7.855 4.535c.53.305 1.38.306 1.905 0l13.564-7.882 1.801 1.04z"/><path fill="#74CA74" d="M43.34 26.332c-.718.418-1.887.418-2.608.002l-10.755-6.21c-.363-.21-.544-.485-.543-.76l-.128 45.094c0 .275.18.55.543.76l10.756 6.21c.72.415 1.889.415 2.607-.002l14.934-8.679.128-45.094-14.934 8.68z"/><path fill="#56B256" d="M43.34 26.332c-.385.224-.899.324-1.404.308v45.097c.463-.003.924-.106 1.276-.311l14.934-8.679.128-45.094-14.934 8.68z"/><path fill="#FFF" d="m39.627 64.947-.004 1.417-8.773-5.065.004-1.417zM39.685 44.703l-.052 18.609-8.774-5.063.052-18.613z"/><path fill="#5B5D70" d="m39.043 60.412-.003 1.05-7.581-4.377.003-1.05zM39.05 57.987l-.003 1.051-7.581-4.376.003-1.052zM39.057 55.563l-.003 1.05-7.581-4.377.003-1.05zM39.063 53.137l-.003 1.052-7.58-4.377.003-1.052zM39.07 50.713l-.003 1.053-7.581-4.377.003-1.052zM39.077 48.29l-.003 1.05-7.581-4.377.003-1.05zM39.084 45.864l-.003 1.052-7.581-4.377.003-1.052z"/><path fill="#FFF" d="m39.698 39.745-.004 1.417-8.773-5.065.004-1.417zM39.706 37.005l-.004 1.418-8.773-5.065.004-1.418zM37.782 30.711c-.004 1.553-1.103 2.18-2.456 1.402-1.35-.782-2.446-2.674-2.442-4.23.008-1.553 1.107-2.18 2.46-1.398 1.35.782 2.445 2.674 2.438 4.226z"/><path fill="#454859" d="M35.34 27.499c.864.499 1.563 1.71 1.56 2.703-.003.993-.706 1.395-1.57.895-.865-.499-1.564-1.71-1.562-2.703.003-.993.707-1.394 1.572-.895z"/><path fill="#FFDD94" d="M38.859 50.95c-.065-.219-.338-.296-.515-.15-.721.59-2.453 1.931-4.5 2.989 0 0 .13-3.268-.024-3.552-.155-.285-.415-.626-.854-.26 0 0-.211 1.17-.471 1.845-.26.674-.594 1.576-.724 1.739-.13.154-.983 1.683-1.064 2.414-.082.723 2.26 2.178 2.26 2.178s.983-.47 1.714-.853c.698-.376 5.358-2.303 4.178-6.35z"/><path fill="#505366" d="M30.444 55.422s-4.04 5.663-8.369 6.275c-3.11.464-6.238 1.22-7.78 1.615a3.067 3.067 0 0 0-1.85 1.358c-.495.799-.935 1.94-.492 3.107.417 1.099 1.533 1.765 2.707 1.802 1.857.06 5.466-.206 9.796-2.47 4.69-2.417 9.163-8.982 9.163-8.982s-1.118-2.815-3.175-2.705z"/><path fill="#FC849D" d="m60.075 18.693-.128 45.094-21.465 12.475.127-45.094z"/><path fill="#FC849D" d="m38.089 76.81.128-45.094c0-.198.131-.396.392-.548l-.127 45.094c-.262.152-.393.35-.393.548z"/><path fill="#FFF" d="m38.089 76.81.128-45.094c-.001.2.132.402.399.556l-.128 45.093c-.267-.153-.4-.355-.4-.555zM69.842 24.332l-.128 45.094-21.465 12.475.127-45.094zM46.471 36.807l-.128 45.094-7.855-4.536.128-45.093z"/><path fill="#FFF" d="M48.376 36.807 48.25 81.9c-.527.305-1.376.305-1.906 0l.128-45.094c.53.306 1.38.306 1.905 0z"/><path fill="#FFF" d="M69.842 24.332 48.376 36.807c-.526.306-1.376.306-1.905 0l-7.855-4.535c-.53-.306-.533-.798-.007-1.104l21.466-12.475 9.767 5.64z"/><path fill="#FC849D" d="M71.643 25.372 48.807 38.644c-.718.417-1.887.417-2.608 0l-10.755-6.209c-.721-.416-.725-1.093-.007-1.51l22.837-13.272 1.801 1.04L38.61 31.168c-.526.306-.523.798.007 1.104l7.855 4.535c.53.306 1.38.306 1.905 0l21.466-12.475 1.801 1.04z"/><path fill="#FA5C7C" d="M48.807 38.644c-.718.417-1.887.417-2.608 0l-10.755-6.209c-.363-.21-.544-.484-.543-.76l-.128 45.094c0 .275.18.55.543.76l10.756 6.21c.72.415 1.889.415 2.607-.002l22.837-13.271.127-45.094-22.836 13.272z"/><path fill="#F54E5F" d="M48.807 38.644c-.385.223-.899.323-1.404.307V84.05c.463-.004.924-.107 1.276-.312l22.837-13.271.127-45.094-22.836 13.272z"/><path fill="#FFF" d="m45.094 77.258-.004 1.418-8.773-5.066.004-1.417zM45.152 57.014l-.052 18.61-8.774-5.064.052-18.613z"/><path fill="#5B5D70" d="m44.51 72.723-.003 1.051-7.581-4.377.003-1.05zM44.517 70.298l-.003 1.052-7.581-4.377.003-1.052zM44.524 67.874l-.003 1.05-7.581-4.377.003-1.05zM44.53 65.449l-.003 1.051-7.58-4.376.003-1.052zM44.537 63.025l-.003 1.052-7.581-4.377.003-1.052zM44.544 60.601l-.003 1.05-7.581-4.377.003-1.05zM44.551 58.175l-.003 1.052-7.581-4.376.003-1.052z"/><path fill="#FFF" d="m45.165 52.056-.004 1.418-8.773-5.066.004-1.417zM45.173 49.317l-.004 1.417-8.773-5.065.004-1.417zM43.249 43.023c-.004 1.552-1.103 2.18-2.456 1.4-1.35-.78-2.446-2.673-2.442-4.229.007-1.553 1.107-2.18 2.46-1.398 1.35.782 2.445 2.674 2.438 4.227z"/><path fill="#454859" d="M40.806 39.81c.865.5 1.564 1.71 1.561 2.703-.003.994-.706 1.395-1.57.896-.865-.5-1.564-1.71-1.562-2.704.003-.993.707-1.394 1.571-.895z"/><path fill="#FC849D" d="m73.445 26.412-.128 45.094-13.563 7.882.127-45.094z"/><path fill="#FC849D" d="m59.36 79.936.128-45.094c.001-.198.132-.396.393-.548l-.127 45.094c-.262.152-.393.35-.393.548z"/><path fill="#FFF" d="m59.36 79.936.128-45.094c0 .201.133.402.4.556l-.128 45.094c-.267-.154-.4-.355-.4-.556zM83.212 32.051l-.128 45.094-13.564 7.882.128-45.094z"/><path fill="#FFF" d="m67.743 39.933-.128 45.094-7.855-4.535.128-45.094z"/><path fill="#FFF" d="m69.648 39.933-.128 45.094c-.526.306-1.375.306-1.905 0l.128-45.094c.53.306 1.379.306 1.905 0z"/><path fill="#FFF" d="m83.212 32.051-13.564 7.882c-.526.306-1.376.306-1.905 0l-7.855-4.535c-.53-.306-.533-.798-.007-1.104l13.564-7.882 9.767 5.64z"/><path fill="#FFDD94" d="M85.013 33.091 70.079 41.77c-.718.417-1.887.417-2.608.001l-10.756-6.21c-.72-.416-.724-1.093-.006-1.51l14.934-8.679 1.802 1.04-13.564 7.882c-.526.306-.523.798.007 1.104l7.855 4.535c.53.306 1.379.306 1.905 0l13.564-7.882 1.8 1.04z"/><path fill="#FCC977" d="M70.079 41.77c-.718.417-1.887.417-2.608.001l-10.756-6.21c-.362-.209-.543-.484-.542-.759l-.128 45.094c0 .275.18.55.543.76l10.755 6.209c.721.416 1.89.416 2.608-.001l14.934-8.68.128-45.093-14.934 8.679z"/><path fill="#FCBE63" d="M70.079 41.77c-.385.224-.899.323-1.404.308v45.097c.463-.004.924-.107 1.276-.311l14.934-8.68.128-45.093-14.934 8.679z"/><path fill="#FFF" d="m66.366 80.385-.004 1.417-8.773-5.065.004-1.417zM66.424 60.141l-.052 18.609-8.774-5.063.052-18.613z"/><path fill="#5B5D70" d="m65.782 75.85-.003 1.05-7.581-4.377.003-1.05zM65.789 73.424l-.003 1.052-7.581-4.377.003-1.052zM65.795 71.001l-.002 1.05-7.581-4.377.003-1.05zM65.802 68.575l-.003 1.052-7.58-4.377.002-1.052zM65.809 66.151l-.003 1.052-7.581-4.377.003-1.052zM65.816 63.727l-.003 1.051-7.581-4.377.003-1.05zM65.823 61.302l-.003 1.052-7.581-4.377.003-1.052z"/><path fill="#FFF" d="m66.437 55.183-.004 1.417-8.773-5.065.004-1.417zM66.445 52.443l-.004 1.417-8.773-5.065.004-1.417zM64.52 46.149c-.003 1.553-1.102 2.18-2.456 1.401-1.35-.781-2.445-2.673-2.44-4.23.006-1.552 1.105-2.18 2.459-1.397 1.35.782 2.445 2.673 2.438 4.226z"/><path fill="#454859" d="M62.078 42.937c.865.499 1.564 1.71 1.561 2.703-.003.993-.706 1.394-1.57.895-.865-.499-1.564-1.71-1.562-2.703.003-.994.707-1.395 1.571-.895z"/><path fill="#FC849D" d="m86.814 34.131-.128 45.094-13.563 7.882.128-45.094z"/><path fill="#FC849D" d="m72.73 87.655.128-45.094c0-.198.131-.396.393-.548l-.128 45.094c-.261.152-.392.35-.393.548z"/><path fill="#FFF" d="m72.73 87.655.128-45.094c0 .201.133.402.4.556l-.129 45.094c-.266-.154-.4-.355-.399-.556zM96.581 39.77l-.128 45.094-13.563 7.882.128-45.094z"/><path fill="#FFF" d="m81.112 47.652-.128 45.094-7.855-4.535.128-45.094zM83.018 47.652l-.128 45.094c-.526.306-1.376.306-1.906 0l.128-45.094c.53.306 1.38.306 1.906 0z"/><path fill="#FFF" d="m96.581 39.77-13.563 7.882c-.527.306-1.376.306-1.906 0l-7.855-4.535c-.53-.306-.532-.798-.006-1.104l13.563-7.882 9.767 5.64z"/><path fill="#8EABFC" d="m98.382 40.81-14.934 8.679c-.718.417-1.887.417-2.607.001l-10.756-6.21c-.72-.416-.724-1.093-.006-1.51l14.934-8.679 1.801 1.04-13.563 7.882c-.526.306-.524.798.006 1.104l7.855 4.535c.53.306 1.38.306 1.906 0L96.58 39.77l1.801 1.04z"/><path fill="#6B9EF9" d="M83.448 49.489c-.718.417-1.887.417-2.607.001l-10.756-6.21c-.362-.209-.543-.484-.543-.76l-.128 45.095c0 .275.18.55.543.759l10.756 6.21c.72.416 1.89.416 2.607-.001l14.934-8.68.128-45.093-14.934 8.679z"/><path fill="#5598F9" d="M83.448 49.489c-.385.224-.898.323-1.403.307v45.098c.462-.004.923-.107 1.275-.311l14.934-8.68.128-45.093-14.934 8.679z"/><path fill="#FFF" d="m79.735 88.104-.004 1.417-8.773-5.065.004-1.417zM79.793 67.86l-.052 18.609-8.773-5.064.051-18.612z"/><path fill="#5B5D70" d="m79.151 83.569-.003 1.05-7.581-4.377.003-1.05zM79.158 81.143l-.003 1.052-7.581-4.377.003-1.052zM79.165 78.719l-.003 1.05-7.581-4.376.003-1.05zM79.172 76.294l-.003 1.052-7.581-4.377.003-1.052zM79.179 73.87l-.003 1.052-7.581-4.377.003-1.052zM79.186 71.446l-.003 1.05-7.581-4.376.003-1.05zM79.192 69.021l-.003 1.052-7.58-4.377.003-1.052z"/><path fill="#FFF" d="m79.807 62.902-.004 1.417-8.773-5.065.004-1.417zM79.815 60.162l-.004 1.417-8.773-5.065.004-1.417zM77.89 53.868c-.004 1.552-1.103 2.18-2.456 1.401-1.35-.781-2.445-2.674-2.442-4.23.008-1.552 1.107-2.18 2.46-1.397 1.35.781 2.445 2.673 2.438 4.226z"/><path fill="#454859" d="M75.448 50.655c.864.5 1.563 1.71 1.56 2.704-.002.993-.706 1.394-1.57.895-.865-.5-1.564-1.71-1.561-2.703.003-.994.706-1.395 1.57-.896z"/><path fill="#FC849D" d="m100.184 41.85-.128 45.094-13.564 7.882.128-45.094zM86.1 95.374l.127-45.094c0-.198.132-.396.393-.548l-.128 45.094c-.261.152-.392.35-.392.548z"/><path fill="#FFF" d="m86.1 95.374.127-45.094c0 .201.133.402.4.556l-.128 45.094c-.267-.154-.4-.355-.4-.556zM109.95 47.489l-.127 45.094-13.564 7.882.128-45.094zM94.482 55.371l-.128 45.094-7.855-4.535.128-45.094z"/><path fill="#FFF" d="m96.387 55.371-.128 45.094c-.526.306-1.376.306-1.905 0l.128-45.094c.53.306 1.379.306 1.905 0z"/><path fill="#FFF" d="M109.95 47.489 96.387 55.37c-.526.306-1.376.306-1.905 0l-7.855-4.535c-.53-.306-.533-.798-.007-1.104l13.564-7.882 9.766 5.639z"/><path fill="#E29883" d="m111.752 48.529-14.934 8.679c-.719.417-1.887.417-2.608.001l-10.756-6.21c-.72-.416-.724-1.093-.006-1.51l14.934-8.679 1.802 1.04-13.564 7.882c-.526.306-.523.798.007 1.104l7.855 4.535c.53.306 1.379.306 1.905 0l13.563-7.882 1.802 1.04z"/><path fill="#D8856F" d="M96.818 57.208c-.719.417-1.887.417-2.608.001l-10.756-6.21c-.362-.21-.543-.484-.542-.76l-.128 45.094c0 .275.18.55.543.76l10.755 6.21c.72.416 1.89.416 2.608-.002l14.934-8.678.128-45.094-14.934 8.679z"/><path fill="#CE7665" d="M96.818 57.208c-.385.223-.899.323-1.404.307v45.098c.463-.004.924-.107 1.276-.312l14.934-8.678.128-45.094-14.934 8.679z"/><path fill="#FFF" d="m93.105 95.823-.004 1.417-8.773-5.065.004-1.417zM93.162 75.579l-.051 18.609-8.774-5.064.052-18.612z"/><path fill="#5B5D70" d="m92.521 91.288-.003 1.05-7.581-4.377.003-1.05zM92.528 88.862l-.003 1.052-7.581-4.377.003-1.052zM92.534 86.438l-.003 1.05-7.58-4.377.003-1.05zM92.541 84.013l-.003 1.052-7.581-4.377.003-1.052zM92.548 81.589l-.003 1.052-7.581-4.377.003-1.052zM92.555 79.165l-.003 1.05-7.581-4.376.003-1.051zM92.562 76.74l-.003 1.052-7.581-4.377.003-1.052z"/><path fill="#FFF" d="m93.176 70.621-.004 1.417-8.773-5.065.004-1.418zM93.184 67.881l-.004 1.417-8.773-5.065.004-1.417zM91.26 61.587c-.004 1.552-1.103 2.18-2.457 1.401-1.35-.782-2.445-2.674-2.441-4.23.007-1.552 1.106-2.18 2.46-1.398 1.35.782 2.445 2.674 2.437 4.227z"/><path fill="#454859" d="M88.817 58.374c.865.5 1.564 1.71 1.561 2.704-.003.993-.706 1.394-1.57.895-.865-.5-1.565-1.71-1.562-2.704.003-.993.707-1.394 1.571-.895z"/><path fill="#3A3D4C" d="M24.796 119.225c-2.852-.167-4.116.533-6.017-1.718l-3.906 1.183s-1.394 3.662-.687 4.903c.649 1.144 3.62-.265 6.383-.219.547.01 1.091-.012 1.647-.148 1.18-.288 3.18-.916 4.198-2.036 0 0 1.185-1.749-1.618-1.965z"/><path fill="#454859" d="M15.445 114.666c-.48-3.962-.562-9.29-.569-14.584-.003-1.937-.528-3.842-1.328-5.64-1.84-4.14.888-8.141.888-8.141s6.214-7.416 9.157-1.135c2.943 6.281.01 14.317.01 14.317l-4.416 19.164c-2.483 1.181-4.314.043-4.314.043.8-1.35.572-4.024.572-4.024z"/><path fill="#3A3D4C" d="M30.314 124.513c-2.852-.167-4.115.533-6.017-1.719l-3.92 1.103s-1.379 3.743-.673 4.983c.65 1.144 3.62-.264 6.384-.218.547.01 1.091-.012 1.647-.148 1.18-.289 3.18-.917 4.198-2.037 0 0 1.184-1.748-1.619-1.964z"/><path fill="#505366" d="M20.38 105.29c-.002-1.937-.528-3.843-1.327-5.641-1.84-4.139.887-8.14.887-8.14s6.08-6.162 9.024.12l.073 6.642A65.19 65.19 0 0 1 27.924 111l-3.233 12.853c-2.483 1.182-4.314.043-4.314.043.8-1.348.572-4.023.572-4.023-.48-3.963-.562-9.291-.569-14.585z"/><path fill="#FFDD94" d="M26.768 53.056s-7.51.895-7.696 1.358c-.05.172-3.258 8.634-3.757 10.63-.838 3.245 8.021 4.475 7.54 1.944-.303-1.658-.847-2.933.188-3.449.676-.336.85.207 1.611-.064 3.605-1.315 2.114-10.42 2.114-10.42z"/><path fill="#5B5D70" d="M29.575 76.037c-.56 2.54-.54 16.02-.54 16.02-.47 9.928-15.836-2.86-15.836-2.86s1.053-9.227-1.38-17.898c-2.433-8.672 3.953-8.25 3.953-8.25.412 1.883 3.473 1.922 5.415 1.746.922-.079 1.845.235 2.433.951.844 1.01 1.903 1.904 2.924 2.669 3.62 2.737 3.521 5.415 3.03 7.622z"/><path fill="#3F528C" d="m16.615 61.474-.006-.084c-.058.009-.039.043.006.084z"/><path fill="#CE7665" d="M27.856 52.116c-1.142-1.474-2.941-1.72-3.981-1.82-8.862-.838-8.883 3.352-8.382 5.86.268 1.335.554 2.667.79 4.009.111.637.2 1.164.209 1.296.747.582 2.1.874 4.068.81 2.121-2.272 1.055-3.506 1.911-4.363.54-.54 1.082.602 1.41 1.521h1.028c.435-1.545-.624-3.923-.624-3.923 4.235-1.38 4.713-1.915 3.57-3.39z"/><path fill="#FFDD94" d="M51.47 57.64c-.064-.22-.337-.297-.514-.152-.722.59-2.453 1.932-4.5 2.99 0 0 .13-3.269-.025-3.553-.154-.284-.414-.626-.853-.26 0 0-.212 1.17-.472 1.845s-.593 1.577-.723 1.74c-.13.154-.984 1.682-1.065 2.414-.081.723 2.26 2.178 2.26 2.178s.983-.471 1.715-.854c.697-.376 5.358-2.303 4.177-6.349z"/><path fill="#5B5D70" d="M43.056 62.11s-4.04 5.663-8.37 6.276c-3.11.463-6.237 1.219-7.78 1.615a3.067 3.067 0 0 0-1.85 1.358c-.494.798-.935 1.94-.492 3.107.417 1.098 1.533 1.764 2.707 1.802 1.857.06 5.466-.206 9.796-2.47 4.69-2.418 9.163-8.982 9.163-8.982S45.112 62 43.056 62.11z"/><path fill="#3A3D4C" d="M21.919 64.41a3.31 3.31 0 0 0-.68-.042l-.596.004c-.396.008-.79.01-1.18-.007-.779-.012-1.552-.066-2.277-.228-.724-.165-.948-.447-1.366-1.202-.023.424-.232 1.474 1.088 1.995.817.375 1.686.478 2.53.514.423.001.844-.01 1.26-.05l.622-.082c.192-.025.355-.05.54-.06a3.501 3.501 0 0 1 2.159.631c-.342-.786-1.198-1.343-2.1-1.472z"/></svg>