<svg xmlns="http://www.w3.org/2000/svg" viewBox="0 0 512 512"><g class="color000000 svgShape" data-name="filled outline"><circle cx="312" cy="424" r="48" fill="#22fdeb" class="colorfd7422 svgShape"/><circle cx="432" cy="424" r="48" fill="#22fdeb" class="colorfd7422 svgShape"/><circle cx="192" cy="424" r="48" fill="#22fdeb" class="colorfd7422 svgShape"/><circle cx="72" cy="424" r="48" fill="#22fdeb" class="colorfd7422 svgShape"/><path fill="#41e1d4" d="M80,64,57.251,183.431a265.6,265.6,0,0,0-.406,97.214h0A102,102,0,0,0,96,344h72l40-16,112,16,16,16h64l16-16,33.39-5.565a29.089,29.089,0,0,0,21.234-15.683h0a29.088,29.088,0,0,0-5.449-33.577h0A67.091,67.091,0,0,0,423.81,269.8l-14.789-1.345a237.505,237.505,0,0,1-92.234-28.027l-6.8-3.711a127.726,127.726,0,0,1-55.554-60.254h0a127.739,127.739,0,0,1-10.022-67.715L248,80,224,40l-61.93-5.63a83.178,83.178,0,0,0-48.8,10.618Z" class="color0296e5 svgShape"/><path fill="#41e1d4" d="M473.69,309.74a29.1,29.1,0,0,1-24.3,28.7L416,344l-16,16H336l-16-16L208,328l-40,16H96a102.033,102.033,0,0,1-39.16-63.35q-.45-2.46-.84-4.92a265.726,265.726,0,0,1,1.25-92.3L80,64l33.27-19.01a83.168,83.168,0,0,1,48.8-10.62L224,40l24,40-3.59,28.75a127.734,127.734,0,0,0,65.57,127.97l6.81,3.71a237.551,237.551,0,0,0,92.23,28.03l14.79,1.34a67.122,67.122,0,0,1,41.37,19.38A29.052,29.052,0,0,1,473.69,309.74Z" class="color0296e5 svgShape"/><path fill="#02b4a6" d="M250.15,165.5,248,168H158.81a35.747,35.747,0,0,0-35.75,35.76,36.111,36.111,0,0,0,.69,7,46.435,46.435,0,0,1-9.28,38.15l-2.22,2.78A54.112,54.112,0,0,1,69.99,272H56l-.68-.68a265.734,265.734,0,0,1,1.93-87.89L70.86,112H244.05q-.63,6.3-.63,12.6A127.66,127.66,0,0,0,250.15,165.5Z" class="color0276b4 svgShape"/><path fill="#02b4a6" d="M250.15,165.5,248,168H158.81a35.747,35.747,0,0,0-35.75,35.76,36.111,36.111,0,0,0,.69,7,46.435,46.435,0,0,1-9.28,38.15l-2.22,2.78A54.112,54.112,0,0,1,69.99,272H56l-.68-.68a265.734,265.734,0,0,1,1.93-87.89L70.86,112H244.05q-.63,6.3-.63,12.6A127.66,127.66,0,0,0,250.15,165.5Z" class="color0276b4 svgShape"/><path fill="#01786e" d="M473.69,309.74a29.1,29.1,0,0,1-24.3,28.7L416,344l-16,16H336l-16-16L208,328l-40,16H96a102.033,102.033,0,0,1-39.16-63.35q-.45-2.46-.84-4.92V272H200l144,32a73.714,73.714,0,0,1,29.05-38.03L376,264l1.81-.49a237.128,237.128,0,0,0,31.21,4.95l14.79,1.34a67.122,67.122,0,0,1,41.37,19.38A29.052,29.052,0,0,1,473.69,309.74Z" class="color015078 svgShape"/><circle cx="72" cy="424" r="16" fill="#1edccd" class="colordc651e svgShape"/><circle cx="192" cy="424" r="16" fill="#1edccd" class="colordc651e svgShape"/><circle cx="312" cy="424" r="16" fill="#1edccd" class="colordc651e svgShape"/><circle cx="432" cy="424" r="16" fill="#1edccd" class="colordc651e svgShape"/><polygon fill="#41e1d4" points="96 344 80 360 96 384 64 408 88 424 136 400 176 424 208 424 240 416 272 416 296 424 328 424 352 408 384 408 416 424 448 424 400 360 336 360 272 384 184 384 168 344 96 344" class="color0296e5 svgShape"/><path fill="#2deadb" d="M208 208l-72 72 5.634 4.226a38 38 0 0049.67-3.53L232 240zM224 96L152 80l-.548 2.738a38 38 0 0029.81 44.714L224 136z" class="colorea9d2d svgShape"/><path fill="#40fbec" d="M230.729,239.817,288,208l-16-32-59.294,29.647a19.321,19.321,0,0,0-6.816,28.873h0A19.32,19.32,0,0,0,230.729,239.817Z" class="colorfbb540 svgShape"/><circle cx="72" cy="216" r="16" fill="#01786e" class="color015078 svgShape"/><path fill="#40fbec" d="M228,136h28V96H228a20,20,0,0,0-20,20h0A20,20,0,0,0,228,136Z" class="colorfbb540 svgShape"/><path d="M432,368a56.05,56.05,0,0,0-13.685,1.692l-7.529-9.164,9.058-9.058,30.861-5.144a37.087,37.087,0,0,0,20.128-62.806,75.222,75.222,0,0,0-46.3-21.686l-14.79-1.345a228.2,228.2,0,0,1-89.127-27.083l-6.805-3.712a119.521,119.521,0,0,1-21.466-14.988,7.994,7.994,0,0,0,2.808-10.284l-16-32a8,8,0,0,0-10.733-3.577l-7.041,3.52A119.478,119.478,0,0,1,253.026,144H256a8,8,0,0,0,8-8V96a8,8,0,0,0-8-8h-.938l.876-7.008a8,8,0,0,0-1.078-5.108l-24-40a8,8,0,0,0-6.136-3.851L162.795,26.4A90.739,90.739,0,0,0,109.3,38.042L76.031,57.054a8,8,0,0,0-3.89,5.449L49.393,181.934a272.557,272.557,0,0,0-.419,100.142A109.633,109.633,0,0,0,84.1,344.59l-9.753,9.753a8,8,0,0,0-1,10.095l2.469,3.7C74.545,368.055,73.273,368,72,368a55.99,55.99,0,1,0,55,45.445l8.825-4.412,1.932,1.063A56,56,0,1,0,248,424h8a56,56,0,1,0,111.42-8h9.155A56,56,0,1,0,432,368ZM306.151,243.741l6.806,3.712a245.209,245.209,0,0,0,46.062,19.365A82.367,82.367,0,0,0,339.013,294.7L215.791,267.314l22.051-22.3,39.772-22.1A135.571,135.571,0,0,0,306.151,243.741Zm-37.729-57.008,9,17.994-48.2,26.776-.078.043-2.3,1.278A11.321,11.321,0,1,1,216.284,212.8ZM131.6,209.192A27.75,27.75,0,0,1,158.808,176h86.746c.485,1.182.97,2.364,1.489,3.534l-37.915,18.957a27.352,27.352,0,0,0-6.721,4.752c-.07.064-.143.121-.211.188L140.823,264H111.6a62.742,62.742,0,0,0,6.89-7.312l2.223-2.778A54.36,54.36,0,0,0,131.6,209.192Zm64.1,23.134a27.145,27.145,0,0,0,16.182,16.189l-26.231,26.523a30.165,30.165,0,0,1-37.356,4.072ZM248,128H228a12,12,0,0,1,0-24h20ZM87.169,69.117l30.072-17.183a74.8,74.8,0,0,1,44.105-9.6L219.23,47.6l20.489,34.148L238.938,88H228c-.867,0-1.722.045-2.569.123l-71.7-15.933a8,8,0,0,0-9.58,6.242l-.547,2.737A45.74,45.74,0,0,0,144.825,104h-64.3Zm113.783,54.115-18.121-3.625a30.016,30.016,0,0,1-24.12-29.92l46.341,10.3a27.92,27.92,0,0,0-4.1,23.247ZM60.583,237.106a24,24,0,1,0,3.059-43.6c.446-2.862.925-5.722,1.468-8.576L77.477,120H152a8.057,8.057,0,0,0,1.556-.154A45.642,45.642,0,0,0,179.693,135.3l42.738,8.548a8.1,8.1,0,0,0,1.577.157l12.811,0a135.576,135.576,0,0,0,3.308,16H158.808a43.748,43.748,0,0,0-42.9,52.331,38.394,38.394,0,0,1-7.685,31.584L106,246.692A45.886,45.886,0,0,1,69.991,264H62.428A256.679,256.679,0,0,1,60.583,237.106ZM64,216a8,8,0,1,1,8,8A8.009,8.009,0,0,1,64,216Zm.877,64h63.134c0,.18,0,.36.007.541A8,8,0,0,0,131.2,286.4l5.634,4.226a46.231,46.231,0,0,0,60.158-4.3l5.509-5.57L342.265,311.81a8.1,8.1,0,0,0,1.74.191,8,8,0,0,0,7.584-5.471,66.047,66.047,0,0,1,25.9-33.906l1.109-.739a246.972,246.972,0,0,0,29.7,4.538l14.79,1.345a59.2,59.2,0,0,1,36.433,17.065,21.087,21.087,0,0,1-11.444,35.711l-33.39,5.564a8.007,8.007,0,0,0-4.342,2.235L396.686,352H339.313l-13.656-13.657a8,8,0,0,0-4.526-2.263l-112-16a8.027,8.027,0,0,0-4.1.492L166.459,336H98.727A93.691,93.691,0,0,1,64.877,280Zm256.681,76.872L270.549,376H189.416L178.4,348.457l30.587-12.235,107.243,15.32ZM72,464a40,40,0,1,1,9.823-78.789l-22.868,18.58c-.094.076-.175.164-.265.244-.037.024-.077.043-.114.069a24,24,0,1,0,36.842,25.131L111.886,421c.073,1,.114,2,.114,3A40.045,40.045,0,0,1,72,464Zm-6.867-44.078,13.8,8.051a7.989,7.989,0,1,1-13.8-8.051ZM192,464a40,40,0,0,1-39.572-45.834l15.744,8.659a23.994,23.994,0,0,0,47.165,2.759l16.614-3.634A40.049,40.049,0,0,1,192,464Zm-4.843-33.647,9.294.29a7.96,7.96,0,0,1-9.294-.29ZM312,464a40.043,40.043,0,0,1-39.994-39.752l16.4,4.1a24,24,0,0,0,47.444-1.661l15.638-9.122A40.03,40.03,0,0,1,312,464Zm-5.274-34h10.548a7.954,7.954,0,0,1-10.548,0ZM384,400H352a7.994,7.994,0,0,0-4.031,1.09L325.837,414H296.985l-23.045-5.761A7.977,7.977,0,0,0,272,408H240a7.98,7.98,0,0,0-1.709.185l-31.032,6.788-29.088-.909L139.855,392.99a8.007,8.007,0,0,0-7.433-.145L88.293,414.909,78.02,408.917l23.025-18.708a8,8,0,0,0,1.611-10.647l-1.566-2.348c-.062-.1-.126-.194-.192-.289l-10.6-15.905,9.02-9.02h63.27l13.988,34.971A8,8,0,0,0,184,392h88a8,8,0,0,0,2.809-.51L337.451,368h58.767l35.431,43.134-14.765,3.445L387.4,400.756A8,8,0,0,0,384,400Zm55.825,25.656a8.008,8.008,0,0,1-14.121,3.3ZM432,464a40.045,40.045,0,0,1-40-40c0-1.121.057-2.236.148-3.345l16.248,7.616a23.995,23.995,0,1,0,45.573-13.943c-.094-.213-.2-.417-.311-.618a7.989,7.989,0,0,0-1.476-2.788l-22.076-26.875c.63-.029,1.261-.047,1.894-.047a40,40,0,0,1,0,80Z" class="color000000 svgShape"/></g></svg>