<svg xmlns="http://www.w3.org/2000/svg" enable-background="new 0 0 132 132" viewBox="0 0 132 132"><path fill="#f45170" d="M101.7,117.3c0,0-0.4,6-0.6,7.4c-0.2,1-1,4.9-5.7,5.3c0,0-3.8,0.1-0.6-5.5c0,0,2-4.7,0.9-7.1l1.6-0.8
					c0,0,3.6-0.1,3.7-0.1C100.8,116.6,101.7,117.3,101.7,117.3z"/><path fill="#f4d6d4" d="M101,117.3c0.1,0.2,0.1,0.4,0.1,0.7c-0.2,1.4-1,7-2.4,7.8l-0.7,0.4c-2.2,1.3-3.3,0.3-2.5-2
					c0.7-2.1,1-4.4,0.9-6.9c0-0.7,0.5-1.3,1.2-1.3l1.4-0.2c1-0.1,1.7,0.4,1.9,1.1L101,117.3z"/><path fill="#f45170" d="M111,74.5c0,0,0.6-3.3,4.1-1.2c4.8,2.9,5.5,2.3,5.5,3.1l0,0c0,0.3-0.3,0.6-0.7,0.5l-2.6-0.8
					c-0.3-0.1-0.6,0.2-0.5,0.5c0.4,1.2,1.6,2.2,3.4,2.8c0.5,0.2,0.8,0.6,0.9,1.1c0.5,2.2,0.1,4.3-1.1,6.1c-0.4,0.7-1.4,0.8-2,0.3
					c-0.6-0.6-1-1.8-1-3.5c0,0-4.1-5-4.1-5.1C112.8,78.2,111,74.5,111,74.5z"/><path fill="#f4d6d4" d="M110.6,75.4l0.4-0.9c2.4-0.6,5.7,4.5,6,4.9c1.2,1.4,2.1,2.2,1.9,3.5c-0.1,0.8-1.1,0.9-1,0.8
					c-0.3,0-0.7-0.2-0.9-0.5c-1.3-1.9-3.1-2.6-5.6-2.2L110.6,75.4z"/><path fill="#4c5c75" d="M96.2,65.9c-2,4.8-3.7,9.2-4.2,12.7l18.6-3.2c1.2,2,1.7,3.6,0.9,5.7c0,0-24,11.2-28.3,4.7
					c-1.7-2.6-0.5-12.4,0.8-19.9H96.2z"/><path fill="#455368" d="M96.2,65.9c-2,4.8-3.7,9.2-4.2,12.7l18.6-3.2c0.8,1.4,1.4,2.6,1.3,4c-7,2.9-21.2,7.9-24.4,3
					c-1.5-2.2-0.8-9.7,0.3-16.5H96.2z"/><path fill="#455368" d="M92.9,85.7c-0.5-4.1,0.1-12.8,0.8-19.8h8.3v2.8h2.1c-1.2,6-2.5,14-2.2,17.7c0.2,2.2,2.1,6.4,2.3,8.6
					c0.4,5.1-2,19.4-2.5,22.1c0,0.3-0.2,0.5-0.4,0.6c-1.7,1-3.3,1-5.2,0.4c-0.4-0.1-0.7-0.5-0.6-0.9c0.3-3.3,1.3-16.8,0.5-21.7
					C95.6,92.9,93.2,88.2,92.9,85.7z"/><path fill="#4c5c75" d="M101.4,65.9c-1.4,6.9-3.5,17.5-3.1,21.7c0.2,2.2,2.1,6.4,2.3,8.6c0.4,5.2-2.2,20.1-2.5,22.2
					c-0.6,0-1.2-0.1-2-0.3c-0.4-0.1-0.7-0.5-0.6-0.9c0.3-3.3,1.3-16.8,0.5-21.7c-0.4-2.5-2.8-7.2-3.1-9.8
					c-0.5-4.1,0.1-12.8,0.8-19.8H101.4z"/><path fill="#455368" d="M92.8,84.5c-0.5,0.1-2.2,2.3,0.5,2.9L92.8,84.5z"/><path fill="#f4d6d4" d="M73.5,45l-0.6-0.6l0.4-0.4c-1.4,0.5-1.8,0.9-2.6,0.7c-0.9-0.3-2.7-0.7-3.2-0.1
									c-0.8,0.9,1.1,1.3,1.1,1.3s-4.7,0.5-4.7,1.8c0,1.3,3.2,0.4,3.2,0.4s-0.4,1.3,1,2.3c1.8,1.4,4.3-0.7,4.3-0.7l3.2-1.6L74,44.4
									L73.5,45z"/><path fill="#f3f1fc" d="M75.4,43.3l-2.7,0.7c-1.9,0.3-1.2,5.6,0.7,5.3l2.2-0.5L75.4,43.3z"/><path fill="#f9a83d" d="M92.4,31.4L86,46.2c-0.7,1.1-0.8,0.6-11.8,3.3c-2,0.3-2.8-5.4-0.8-5.6c8.1-2.9,8.7-2.7,8.9-3.4
						c2.4-6.9,3-11.8,7.8-12.5l0.1,0l0.1,0l0.2,0C90.7,28,92.5,31.6,92.4,31.4z"/><path fill="#febc1f" d="M91.2,29l-5.9,14.9c-0.6,1-0.5,0.5-12.7,4c-0.5-1.6-0.3-3.8,0.9-4c8.1-2.9,8.7-2.7,8.9-3.4
						c2.4-6.9,3-11.8,7.8-12.5l0.1,0l0.1,0l0.2,0L91.2,29z"/><path fill="#ffd651" d="M91.6,17.6c0.1-2.9-0.1-3.5,0.2-4.4l-1.6,0.9c-0.3,0.9-0.1,1.5-0.2,3.5H91.6z"/><path fill="#d6b218" d="M90.1,17.7c0-2-0.1-2.6,0.2-3.5l-0.5-0.3c-0.2,0.9-0.1,1.5-0.2,3.8H90.1z"/><path fill="#e9e7fc" d="M90.4,14.3l1.6-0.9c0.2-0.6,0.6-1.1,1.1-1.4C91.8,12.8,90.8,12.8,90.4,14.3z"/><path fill="#f3f1fc" d="M89.5 14.2l.9.1c1.2-3.9 6.8-.6 7.9 4.6l.7.4C97.9 13.1 90.9 8.6 89.5 14.2zM98.1 22c1.2-.7 1.7.1 2.3.3C99 21.5 96.8 24 96.8 26c0 .7.2 1.1.6 1.3l-.8-.5C95.3 26.1 96.3 23 98.1 22z"/><path fill="#5b5e71" d="M98.9,22.4c-1.1,0.7-2.1,2.3-2.1,3.6c0,1.3,0.9,1.8,2.1,1.2c1.1-0.7,2.1-2.3,2.1-3.6
										C101,22.3,100,21.8,98.9,22.4z"/><path fill="#ddb040" d="M100.3,22.3l1,0.6c-0.4-0.2-0.9-0.2-1.5,0.1c-1.8,1-2.8,4.1-1.5,4.9c-0.7-0.5-1.6-0.5-1.6-1.9
									C96.8,23.9,99,21.5,100.3,22.3z"/><path fill="#ffd651" d="M99.9,23c-1.1,0.7-2.1,2.3-2.1,3.6c0,1.3,0.9,1.8,2.1,1.2c1.1-0.7,2.1-2.3,2.1-3.6
										C102,22.9,101,22.4,99.9,23z"/><path fill="#4c5c75" d="M99.8,24c0.3-0.2,0.6-0.2,0.9-0.1l0.4,0.2c-1.1-0.7-2.8,2.3-1.7,2.9c-0.2-0.2-0.7-0.2-0.7-1
									C98.6,25.3,99.1,24.3,99.8,24z"/><path fill="#1d2943" d="M100.2,24.2c-0.7,0.4-1.2,1.3-1.2,2.1c0,0.8,0.5,1.1,1.2,0.7c0.7-0.4,1.2-1.3,1.2-2.1
										C101.4,24.1,100.9,23.8,100.2,24.2z"/><polygon fill="#ffd651" points="99.1 23.7 100.7 22.8 100.7 19.7 99.1 20.6"/><path fill="#ffd651" d="M99.1,20.6l1.6-0.9c0-0.5,0-0.9-0.1-1.4L99,19.2C99.1,19.7,99.1,20.2,99.1,20.6z"/><polygon fill="#d6b218" points="99 19.2 100.6 18.3 100 18 98.4 18.9"/><path fill="#efc348" d="M98.4,18.9c0.3,1.2,0.1,1.7,0.1,4.5l0.5,0.3c0-2.8,0.1-3.3-0.1-4.5L98.4,18.9z"/><path fill="#dedffb" d="M90.9,12c2.8-1.6,7.3,2.9,8.1,7.3l1.6-0.9c-0.5-2.7-2.4-5.6-4.7-7c0,0,0,0,0,0
									c-1.3-0.7-2.5-0.9-3.4-0.3L90.9,12z"/><path fill="#f3f1fc" d="M90.9,12c1.1-0.6,2.4-0.3,3.5,0.3c2.3,1.3,4.2,4.2,4.7,7l-0.7-0.4c-0.9-4.2-5.4-7.9-7.4-5.5V12z"/><g><path fill="#ffd06c" d="M103.2,52.8c-0.6,1.4-1.1,2.8-1,4.2c0,1.1,0.3,2.2,0.6,3.3c0.4,1.4,0.8,2.9,1.3,4.3
								c0.1,0.4,0.3,0.9,0.5,1.3c0.4,1.1,0.7,2.4,0.8,3.7c0,4.5-22.8,4.5-22.8,0c0.1-2.7,1-5.8,1.5-7.9c0.4-1.8,0.9-3.5,1.5-5.2
								c0.5-1.3,0.9-2.6,1.1-3.8c0.9-4.2-3.4-8.5-1.8-12.4l5.7-12.5c3.1,0.4,5.9,1.5,8.2,3c2.5,1.6,5.6,3.5,7.5,6.6l0.4,7.7
								c-0.3,0.9-0.8,1.6-1.2,2.4C104.6,49.2,103.9,51.3,103.2,52.8z"/><path fill="#f4d6d4" d="M90.1,41.6l1.9-1.5l4.7-4.7l2.3-1.9l-0.3-2.6c-1.4-0.9-2.8-1.6-4.4-2.1l-2.3,2.5l-0.9,2.6l-0.7,4.3
										L90.1,41.6z"/><path fill="#febc1f" d="M98.8 30.7c1.8 1.1 1.6 3.1-.3 5.8l-1.7-.9.3 1.2c-2 1.3-4.4 3-6.9 4.8C94.3 37.6 98.8 33.5 98.8 30.7zM91.7 32.5l-.6-.3 1.7-2.2.8 1.3c-2.2 2.1-2.9 7.4-3.5 10.4.2-3.4.4-6.7.7-8.6l.6.1L91.7 32.5z"/><path fill="#f5c9c6" d="M97.8,26.7l1,4c0.1,2.3-3.1,3.6-5.2,2.4c-0.9-0.5,0.3-1.1-1-4.4c-1.1-0.2-1.9-1-2.2-2H97.8z"/><path fill="#1d2943" d="M96.7,13.3c0,0,1.6-2.5,4.6-1c0,0,0.1,0,0.1,0.1c3.3,1.4,3.9,5.7,2.1,8.1l-8.7-5.2L96.7,13.3z"/><path fill="#f4d6d4" d="M102,25.5l-3.1,3.6c-1.5,1.7-3.4,2.7-5.7,2.8c-1,0-1.9-0.4-2.5-1.3c-1.7-2.6-1.6-7.1-1.6-7.1l-0.7-4
							l1.3-2.4l2.9-0.4c0,0,5.2,4.1,5.3,4.1c0.1,0,3.9,1.6,3.9,1.6L102,25.5z"/><path fill="#4c5c75" d="M89.1,23.5c-1.2-1.9-1.6-3.7-0.9-5.4c0.2-0.4,0.3-0.9,0.4-1.4c0.5-3.9,3.7-5,7.4-3.6
							c1.9,0.7,7,0.1,7.5,7.2c0.3,4.6-1.8,7.5-4.6,8.8c0-0.1-0.2-1.1,0.8-1.9c0.7-0.6,1.2-1.4,1.3-2.5c0-0.3-0.2-0.5-0.5-0.4
							c-0.7,0.3-1.5,0.4-2.3,0.4c-0.7,0-1.3-0.2-1.8-0.7c-1-1-1.8-2.2-2.5-3.6c-1.3-2.8-4.2-3-4.6-1.4C89,20.2,89,21.7,89.1,23.5z"/></g><g><path fill="#9ea9c9" d="M38.6,121.7c-1.1-1.1-1.6-2.5-1.6-3.9c0.2-2.9,2.8-4,5-4.9c1.1-0.7,9.1-3.2,10.5-9.9
					c0.8-3.6-0.7-7.1-2.5-11c-0.1-0.2,0-0.3,0.2-0.4c0.2-0.1,0.3,0,0.4,0.2c1.4,3.1,3.4,7.3,2.5,11.4c-0.9,4.2-4.5,7.7-10.8,10.3
					c-2.2,0.9-4.5,1.9-4.6,4.3c-0.1,1.2,0.4,2.5,1.4,3.4c3.3,3.3,8.3,4.6,15.4,3.9c3.6-0.3,7.3-1,10.8-2.1c6-1.8,3.7-4.6,3-6.1
					c-1.6-3.2,0.2-7.1,2.8-9c3.4-2.7,8.8-3.3,13.4-3.7c7.2-0.7,12.8-6.7,12.9-13.9c0-2.5,0.1-4.9,0.2-7.2c0.1-2.5,0.4-5.1,0.6-7.6
					c0.1-1,0.2-1.9,0.3-2.9c1.5-16.2,1.1-32.8,0.7-48.8c0-0.4,0.6-0.4,0.6,0c0.4,16,0.7,32.6-0.7,48.8c-0.1,1-0.2,1.9-0.3,2.9
					c-0.2,2.5-0.5,5-0.6,7.6c-0.1,2.3-0.1,4.7-0.2,7.2c-0.1,7.5-5.9,13.8-13.4,14.5c-4.4,0.4-9.8,1-13.1,3.6c-2.3,1.8-4,5.3-2.6,8.3
					c0.4,0.8,3.7,4.9-3.4,6.9c-3.5,1-7.2,1.7-10.9,2.1C48.7,126.3,42.6,125.7,38.6,121.7z"/></g><g><path fill="#f3f1fc" d="M92.3 11.7v.9c2.7-.3 5.4 3.4 6.1 6.3l.7.4C98.4 15.8 95.3 11.7 92.3 11.7zM98.1 22c1.2-.7 1.7.1 2.3.3C99 21.5 96.8 24 96.8 26c0 .7.2 1.1.6 1.3l-.8-.5C95.3 26.1 96.3 23 98.1 22z"/><path fill="#5b5e71" d="M98.9,22.4c-1.1,0.7-2.1,2.3-2.1,3.6c0,1.3,0.9,1.8,2.1,1.2c1.1-0.7,2.1-2.3,2.1-3.6
										C101,22.3,100,21.8,98.9,22.4z"/><path fill="#497bfe" d="M99.9,27.8c-1.3,0.7-1.7-0.1-2.5-0.5c-1.3-0.7-0.4-3.6,1.2-4.7c0-1.9,0.1-2.6-0.2-3.7l0.5,0.3l1.6-0.9
									c0.2,1.3,0.1,1.8,0.1,4.2l0.7,0.4c0,0-0.1,0-0.1,0C102.7,23.5,101.8,26.7,99.9,27.8z"/><path fill="#497bfe" d="M100.3,22.3l1,0.6c-0.4-0.2-0.9-0.2-1.5,0.1c-1.8,1-2.8,4.1-1.5,4.9c-0.7-0.5-1.6-0.5-1.6-1.9
									C96.8,23.9,99,21.5,100.3,22.3z"/><path fill="#57b3fe" d="M99.9,23c-1.1,0.7-2.1,2.3-2.1,3.6c0,1.3,0.9,1.8,2.1,1.2c1.1-0.7,2.1-2.3,2.1-3.6
										C102,22.9,101,22.4,99.9,23z"/><polygon fill="#57b3fe" points="99.1 23.7 100.7 22.8 100.7 19.7 99.1 20.6"/><path fill="#57b3fe" d="M99.1,20.6l1.6-0.9c0-0.5,0-0.9-0.1-1.4L99,19.2C99.1,19.7,99.1,20.2,99.1,20.6z"/><path fill="#497bfe" d="M98.4,18.9c0.3,1.2,0.1,1.7,0.1,4.5l0.5,0.3c0-2.8,0.1-3.3-0.1-4.5L98.4,18.9z"/><polygon fill="#d6b218" points="99 19.2 100.6 18.3 100 18 98.4 18.9"/><path fill="#dedffb" d="M96,11.4C96,11.4,96,11.4,96,11.4c-2.4-1.4-3.6-0.2-3.7-0.2v0.5c3.1,0.1,6.2,4.2,6.8,7.6l1.6-0.9
									C100.2,15.7,98.3,12.7,96,11.4z"/><path fill="#f3f1fc" d="M92.3,11.7v0.9c2.7-0.3,5.4,3.4,6.1,6.3l0.7,0.4C98.4,15.8,95.3,11.7,92.3,11.7z"/></g><g><path fill="#f4d6d4" d="M88.6,55.6c0.1,0-1.5-1.2-0.7-1.6c0.8-0.4,2.6,1.7,2.6,1.7c0.9,1.1,0.9,2.1,0.1,3.3
						C90.5,59.2,88.5,55.6,88.6,55.6z"/></g><g><path fill="#f4d6d4" d="M86.1,55c1.4,0.1,2.7,0.6,2.8,0.6c0.1,0,1.9,0.1,1.9,0.1c0.9,1.1,0.9,2.1,0.1,3.3c0,0.2-3,1.3-5.4,0.5
				C83.1,58.8,84.2,54.7,86.1,55z"/></g><g><path fill="#f3f1fc" d="M90,55.3c0.8-0.1,1.6-0.2,2.4-0.2l-0.9,4.1l-1.1,0C89.6,59.2,89.2,55.3,90,55.3z"/></g><g><path fill="#febc1f" d="M90.2,57.4c0.1,0.9,0.5,1.7,0.9,1.7l12.8,0.2c2.3-0.1,3.2-1.3,3.5-3.5c0.8-5.6,0.7-12.5-0.2-16.4
				c-0.3-1.5-1.5-2.5-2.9-2.8c-2.5-0.5-4.8,1.5-4.6,4.1c0.5,4.6,1,10.6,2.1,13.9c-3.7-0.1-7.5,0.1-11.2,0.5
				C90.1,55.1,90,56.3,90.2,57.4z"/></g><g><path fill="#f9a83d" d="M90.2,57.4c0.1,0.9,0.5,1.7,0.9,1.7l12.8,0.2c2.3-0.1,3.2-1.3,3.5-3.5c0.8-5.6,0.7-12.5-0.2-16.4
				c-0.4-1.6-1.7-2.7-3.2-2.9l0.8,18.5c0,0.8-0.6,1.5-1.4,1.5L90.2,57.4z"/></g><g><path fill="#4c5c75" d="M61.2,7.2c0-1.1-0.4-1.9-1.1-2.2c0,0,0.1,0,0.1,0.1l-4.7-2.8c-0.6-0.4-1.5-0.3-2.4,0.2L14,25
					c-1.9,1.1-3.3,3.6-3.3,5.7l0.2,77.9c0,1,0.4,1.8,1,2.2l4.5,2.7c0,0,0.1,0,0.1,0.1c0.6,0.4,1.5,0.4,2.5-0.2l39.1-22.6
					c1.8-1.1,3.3-3.6,3.3-5.8L61.2,7.2z M16.2,30.7c0.2-0.4,0.4-0.8,0.7-1.1C16.6,29.9,16.4,30.3,16.2,30.7z M18.7,27.8
					c-0.4,0.2-0.7,0.4-1,0.7C18.1,28.3,18.4,28,18.7,27.8L57.8,5.3L18.7,27.8z"/><path fill="#1d2943" d="M60.2,5c-0.6-0.3-1.4-0.3-2.4,0.2L18.7,27.8c-1.8,1.1-3.3,3.6-3.3,5.8l0.2,77.9c0,1,0.4,1.8,1,2.1
					l-4.7-2.8c-0.6-0.4-1-1.1-1-2.1l-0.2-77.9c0-2.1,1.5-4.7,3.3-5.7L53.1,2.5c0.9-0.5,1.8-0.6,2.4-0.2L60.2,5z"/><path fill="#4c5c75" d="M57.8,5.3c1.8-1.1,3.3-0.2,3.3,1.9l0.2,77.9c0,2.1-1.5,4.7-3.3,5.8L19,113.4c-1.8,1.1-3.3,0.2-3.3-1.9
					l-0.2-77.9c0-2.1,1.5-4.7,3.3-5.8L57.8,5.3z"/><path fill="#fff" d="M59.1,85.1c0,1.3-1,3.1-2.2,3.8L20.4,110c-1.1,0.7-2.5-0.2-2.5-1.5l-0.2-74.9c0-1.3,1-3.1,2.2-3.8
					l13.7-7.9c0.7-0.4,1.7-0.3,2.1,0.4c0.5,0.8,1.5,1,2.7,0.3c1.5-0.9,2.7-2.8,3-4.5c0.1-0.5,0.3-0.9,0.8-1.1l14.2-8.3
					c1.1-0.6,2.5,0.2,2.5,1.5L59.1,85.1z"/><path fill="#1d2943" d="M38.1,18.5c-0.8,0.4-1.4,1.5-1.4,2.4c0,0.9,0.6,1.3,1.4,0.8c0.8-0.4,1.4-1.5,1.4-2.4
					C39.6,18.5,38.9,18.1,38.1,18.5z"/><path fill="#9ea9c9" d="M13.1 49.1c0 0 .1 0 .1-.1C13.2 49.1 13.2 49.1 13.1 49.1L13.1 49.1C13.1 49.2 13.1 49.2 13.1 49.1zM14.1 34.7l0 5.2c0 .3-.1.5-.3.6L13.2 41c0 0 0 0-.1 0-.2.1-.4.1-.7-.1-.5-.3-1-1.1-1-1.7l0-5.2c0-.3.1-.5.3-.6 0 0 0 0 0 0l.7-.4c.2-.1.4-.1.7.1C13.7 33.4 14.1 34.1 14.1 34.7z"/><path fill="#9ea9c9" d="M14.1,45v3.1c0,0.3-0.1,0.5-0.3,0.6l-0.6,0.4c0,0,0,0,0.1-0.1c0,0-0.1,0.1-0.1,0.1c0,0,0,0,0,0
							c-0.2,0.1-0.4,0.1-0.7-0.1c-0.5-0.3-1-1.1-1-1.7l0-3.1c0-0.3,0.1-0.6,0.3-0.6c0,0,0,0,0,0l0.7-0.4c0.2-0.1,0.4-0.1,0.7,0.1
							C13.7,43.6,14.1,44.4,14.1,45z"/><path fill="#9ea9c9" d="M13.1 49.1c0 0 .1 0 .1-.1C13.2 49.1 13.2 49.1 13.1 49.1 13.2 49.1 13.1 49.1 13.1 49.1zM14.1 34.7l0 5.2c0 .3-.1.5-.3.6L13.1 41c.2-.1.3-.3.3-.6l0-5.2c0-.6-.4-1.4-1-1.7-.3-.2-.5-.2-.7-.1l.7-.4c.2-.1.4-.1.7.1C13.7 33.4 14.1 34.1 14.1 34.7z"/><path fill="#fff" d="M12.5,33.5c0.5,0.3,1,1.1,1,1.7l0,5.2c0,0.6-0.4,0.9-1,0.6c-0.5-0.3-1-1.1-1-1.7l0-5.2
						C11.5,33.4,11.9,33.2,12.5,33.5z"/><path fill="#9ea9c9" d="M13.1,43.3c0.5,0.3,1,1.1,1,1.7L13.1,43.3z"/><path fill="#fff" d="M12.4,43.7c0.5,0.3,1,1.1,1,1.7l0,3.1c0,0.6-0.4,0.9-1,0.6c-0.5-0.3-1-1.1-1-1.7l0-3.1
						C11.5,43.7,11.9,43.4,12.4,43.7z"/><line x1="14" x2="53.1" y1="25" y2="2.5" fill="#1d2943"/><polygon fill="#f45170" points="54.4 57.1 54.4 59.5 52.1 60.8 52.1 58.4"/><polygon fill="#f45170" points="54.4 63.3 54.4 65.7 52.1 67 52.1 64.6"/><polygon fill="#f45170" points="54.4 66.4 54.4 68.8 52.1 70.1 52.1 67.7"/><polygon fill="#f45170" points="54.4 69.5 54.4 71.9 52.1 73.2 52.1 70.8"/><polygon fill="#f45170" points="54.4 60.2 54.4 62.6 52.1 63.9 52.1 61.5"/><polygon fill="#57b3fe" points="49.5 69.3 49.5 71.7 47.2 73 47.2 70.6"/><polygon fill="#57b3fe" points="49.5 72.4 49.5 74.8 47.2 76.1 47.2 73.7"/><polygon fill="#57b3fe" points="49.5 66.1 49.5 68.5 47.2 69.9 47.2 67.5"/><polygon fill="#78e75a" points="44.5 72.1 44.5 74.5 42.2 75.8 42.2 73.4"/><polygon fill="#78e75a" points="44.5 75.2 44.5 77.6 42.2 79 42.2 76.5"/><polygon fill="#78e75a" points="44.5 69 44.5 71.4 42.2 72.7 42.2 70.3"/><polygon fill="#78e75a" points="44.5 65.9 44.5 68.3 42.2 69.6 42.2 67.2"/><polygon fill="#78e75a" points="44.5 62.8 44.5 65.2 42.2 66.5 42.2 64.1"/><polygon fill="#dba660" points="39.5 71.9 39.6 74.3 37.3 75.6 37.3 73.2"/><polygon fill="#dba660" points="39.6 75 39.6 77.4 37.3 78.7 37.3 76.3"/><polygon fill="#dba660" points="39.6 78.1 39.6 80.5 37.3 81.8 37.3 79.4"/><polygon fill="#b28afd" points="34.6 71.6 34.6 74 32.3 75.3 32.3 72.9"/><polygon fill="#b28afd" points="34.6 68.5 34.6 70.9 32.3 72.2 32.3 69.8"/><polygon fill="#b28afd" points="34.6 74.7 34.6 77.1 32.3 78.4 32.3 76"/><polygon fill="#b28afd" points="34.6 77.8 34.6 80.2 32.3 81.6 32.3 79.2"/><polygon fill="#b28afd" points="34.6 80.9 34.6 83.4 32.3 84.7 32.3 82.3"/><polygon fill="#ffd06c" points="29.7 80.7 29.7 83.1 27.4 84.4 27.4 82"/><polygon fill="#ffd06c" points="29.7 83.8 29.7 86.2 27.4 87.5 27.4 85.1"/><polygon fill="#ffd06c" points="29.6 77.6 29.6 80 27.4 81.3 27.4 78.9"/><polygon fill="#4c5c75" points="24.7 77.3 24.7 79.7 22.4 81.1 22.4 78.6"/><polygon fill="#4c5c75" points="24.7 74.2 24.7 76.6 22.4 78 22.4 75.5"/><polygon fill="#4c5c75" points="24.7 83.6 24.7 86 22.4 87.3 22.4 84.9"/><polygon fill="#4c5c75" points="24.7 86.7 24.7 89.1 22.4 90.4 22.4 88"/><polygon fill="#4c5c75" points="24.7 80.4 24.7 82.9 22.4 84.2 22.4 81.8"/><g><path fill="#e3e7f0" d="M51.5,28.6c0-0.1-0.1-0.2-0.1-0.3c-0.2-0.4-1.3-1.9-2.4-2.5c0,0-0.2-0.2-0.3-0.2
											c-4.9-2.8-11.6,1-15.5,5.1c0,0-0.1,0.1-0.1,0.1c-0.5,0.5-1,1-1.5,1.6c-4.7,5.5-7.9,13-7.9,19.5c0,10.1,7.9,13.2,16,7.6
											c1.6-1,3.6-2.7,5.4-5c4.7-5.5,7.9-13,7.9-19.5C53.1,32.4,52.5,30.2,51.5,28.6z M38.1,47.6c-0.8,0.4-1.8,0.7-2.4,0.1
											c-0.4-0.4-0.6-1-0.6-1.8c0-2.3,1.7-5.2,3.7-6.4c1.1-0.7,2.3-0.7,2.8,0.5c0.5,1.3,0,3.2-0.7,4.5
											C40.2,45.8,39.2,46.9,38.1,47.6z"/><path fill="#fff" d="M51.6,28.5c0.3-0.5-4.4,6.5-10.7,16c0,0,0,0,0-0.1c0.7-1.3,1.2-3.2,0.7-4.5
													c9.8-19.7,6.4-12.9,7.2-14.4v0c0.1,0,0.3,0.2,0.3,0.2c1.1,0.6,2.2,2.1,2.4,2.5C51.5,28.4,51.5,28.5,51.6,28.5z" opacity=".5"/><g opacity=".5"><path fill="#fff" d="M45.1 24.7C45 25.1 42 37.8 42 37.9c-.1-.1-.3-.2-.5-.3-2.4-1-5.4 1.9-6.7 4.4l-3.2-9.6C34.9 28.6 40.1 24.6 45.1 24.7zM37 48l-1.3 1.6v0c-14 17.2 2.6-3.2-8.9 10.9-.4-.4-1-.9-1.5-1.8 4.6-4.9 10.5-11.1 10.4-11C36 48 36.5 48.1 37 48z"/><path fill="#fff" d="M42,45.1l3.2,9.5c-3.3,3.9-8.4,7.9-13.4,7.8c0-0.1,3.1-13.3,3.1-13.2c0.9,0.6,2.2,0.6,3.6-0.2
													C39.8,48.2,41.1,46.7,42,45.1z"/></g><path fill="#4c5c75" d="M42,37.9C42,37.9,42,37.9,42,37.9c-0.1,0-0.1-0.1-0.2-0.1c-1.2-0.7-2.7-0.2-3.9,0.6
													c-1.8,1.3-2.6,2.9-3.1,3.6v0c-0.7,1.4-1.2,2.9-1.2,4.3c0,1.5,0.6,2.9,2,3.3c0,0,0,0,0.1,0c0.4,0.1,1,0.1,1.6-0.1
													c0,0,0,0,0,0c0.4-0.1,0.7-0.2,1.1-0.5c1.2-0.8,2.3-1.8,3-3c0.1-0.2,0.2-0.4,0.3-0.6c0.1-0.1,0.1-0.2,0.2-0.4
													c0,0,0,0,0,0C43.1,42.9,43.9,39.3,42,37.9z M38.1,47.6c-0.8,0.4-1.8,0.7-2.4,0.1c-0.4-0.4-0.6-1-0.6-1.8
													c0-2.3,1.7-5.2,3.7-6.4c1.1-0.7,2.3-0.7,2.8,0.5c0.5,1.3,0,3.2-0.7,4.5C40.2,45.8,39.2,46.9,38.1,47.6z"/><polygon fill="#dedffb" points="46.6 83.1 46.6 89.7 39.4 93.9 39.4 87.2"/><polygon fill="#dedffb" points="28 93.8 28 100.4 20.8 104.6 20.8 97.9"/><polygon fill="#dedffb" points="37.3 88.4 37.3 95.1 30.1 99.2 30.1 92.6"/><polygon fill="#dedffb" points="56 84.3 48.8 88.5 48.8 81.8 56 77.6"/><polygon fill="#4c5c75" points="26.2 96 26.2 100.3 25 100.1 25 101 22 100.6 25 96.7 25 97.6"/><polygon fill="#4c5c75" points="41.6 87.1 44.6 87.5 41.6 91.4"/><polygon fill="#4c5c75" points="51.6 81.3 54.6 81.8 51.6 85.7"/><path fill="#4c5c75" d="M50.6 81.8c.2-.1.4 0 .4.2l0 3.6c0 .3-.2.6-.4.7-.2.1-.4 0-.4-.2l0-3.6C50.2 82.2 50.4 81.9 50.6 81.8zM32.8 92.1c.2-.1.4 0 .4.2l0 3.6c0 .3-.2.6-.4.7-.2.1-.4 0-.4-.2l0-3.6C32.4 92.5 32.6 92.2 32.8 92.1zM34.6 91c.2-.1.4 0 .4.2l0 3.6c0 .3-.2.6-.4.7-.2.1-.4 0-.4-.2l0-3.6C34.2 91.5 34.4 91.2 34.6 91z"/></g></g><g><path fill="#1d2943" d="M100.2,26.9c-0.4,0.2-0.7,0.2-0.9,0c0,0,0,0,0,0.1L99,26.8c-0.8-0.4-0.2-2.3,0.9-2.8c0.7-0.4,1,0,1.2,0.1
						C101.2,24.2,101.3,26.3,100.2,26.9z"/></g><g><path fill="#4c5c75" d="M99.8,24c0.3-0.2,0.6-0.2,0.9-0.1l0.4,0.2c-1.1-0.7-2.8,2.3-1.7,2.9c-0.2-0.2-0.7-0.2-0.7-1
					C98.6,25.3,99.1,24.3,99.8,24z"/><path fill="#1d2943" d="M100.2,24.2c-0.7,0.4-1.2,1.3-1.2,2.1c0,0.8,0.5,1.1,1.2,0.7c0.7-0.4,1.2-1.3,1.2-2.1
						C101.4,24.1,100.9,23.8,100.2,24.2z"/></g></svg>