<svg xmlns="http://www.w3.org/2000/svg" enable-background="new 0 0 130 130" viewBox="0 0 130 130"><polygon fill="#A7AEB5" points="129 76.621 128.982 79.779 76.059 110.535 76.076 107.377"/><polygon fill="#C8CDD6" points="76.076 107.377 76.059 110.535 1 67.2 1.018 64.042"/><polygon fill="#E3E7F0" points="129 76.621 76.076 107.377 1.018 64.042 53.941 33.286"/><polygon fill="#3A3D4C" points="89.54 55.869 79.019 80.515 79.873 80.285 90.393 55.639"/><polygon fill="#3A3D4C" points="89.933 53.397 89.08 53.632 90.728 54.583 89.85 86.767 90.703 86.537 91.581 54.353"/><polygon fill="#5B5D70" points="90.728 54.583 89.849 86.768 88.715 86.113 89.54 55.87 79.02 80.516 77.883 79.86 89.08 53.632"/><polygon fill="#3A3D4C" points="95.289 82.43 95.872 81.985 92.342 57.758 91.759 58.203"/><polygon fill="#3F4252" points="91.759 58.203 92.342 57.758 90.825 56.882 90.242 57.327"/><polygon fill="#5B5D70" points="90.242 57.327 93.772 81.554 95.289 82.43 91.759 58.203"/><path fill="#E29883" d="M100.98172,51.78648l-4.81928,23.31016c-0.06035,0.28282-0.2225,0.47137-0.42235,0.52402
								L94.716,75.90054c0.19987-0.05653,0.36202-0.2412,0.42236-0.52402l4.81927-23.31402
								c0.09427-0.46382-0.12443-1.01436-0.494-1.22924l-15.57401-8.99006c-0.1433-0.08286-0.29035-0.10164-0.41857-0.06776
								l1.02407-0.276c0.12823-0.03775,0.2753-0.0151,0.41859,0.06776l15.57401,8.98988
								C100.85727,50.76826,101.076,51.31898,100.98172,51.78648z"/><path fill="#CE7665" d="M99.46338,50.83426c0.36837,0.21268,0.58858,0.76405,0.49271,1.22794L95.1376,75.37464
								c-0.09587,0.46388-0.47276,0.67052-0.84113,0.45785l-15.57249-8.99078c-0.36836-0.21268-0.59098-0.76544-0.49511-1.22932
								l4.81849-23.31245c0.09587-0.46389,0.47516-0.66914,0.84353-0.45646L99.46338,50.83426z"/><polygon fill="#FFF" points="99.068 51.697 94.305 74.747 79.116 65.979 83.878 42.925"/><polygon fill="#5B5D70" points="88.817 82.374 80.515 77.58 80.069 78.625 88.782 83.656" enable-background="new"/><polygon fill="#3A3D4C" points="88.837 82.146 80.999 77.58 80.515 77.58 88.817 82.374"/><path fill="#56B256" d="M89.24184,57.2266c-1.40858,3.0182-4.08861,7.42191-8.06388,8.43536l0.07961,0.34804
						c4.15496-1.05849,6.92007-5.71074,8.33013-8.78339H89.24184z"/><g><path fill="#FC849D" d="M88.13795,57.22814c0.11217,0.06461,0.1881,0.14594,0.21384,0.24662
									c0.16196,0.63103-1.69244,1.77068-2.33012,1.97708c-0.33338,0.10584-0.66948,0.06303-0.93733-0.09161
									c-0.24555-0.14177-0.43376-0.37744-0.51028-0.67873c-0.16064-0.62749,0.22601-1.30029,0.86563-1.50557
									C85.97457,57.00463,87.55098,56.88926,88.13795,57.22814z"/><path fill="#FC849D" d="M86.26109 54.68552c.84852.48989 2.11292 1.43055 2.04015 1.92375-.08891.61706-2.22734.30408-2.89241.04249-.0743-.02932-.14626-.06422-.21513-.10399-.54739-.31604-.90676-.9399-.82775-1.48814.08891-.61706.70036-.90405 1.36543-.64244C85.86402 54.46939 86.04967 54.56346 86.26109 54.68552zM88.65685 58.18671c.02397.01384.04504.03218.06308.05525.36806.47131-.70144 2.76384-1.14204 3.3771-.36186.505-.86751.67435-1.24069.45889-.08185-.04726-.15728-.11287-.22347-.1977-.36806-.47131-.31007-1.35099.13115-1.96666C86.66386 59.33045 88.19156 57.91838 88.65685 58.18671z"/><path fill="#FC849D" d="M86.50459 51.88708c.18559.10715.37247.27137.5424.48785.51244.65699 1.85252 3.05792 1.53656 3.49837-.09751.13599-.3413.06932-.64668-.10699-.68439-.39513-1.67874-1.34131-2.03305-1.79572-.515-.65569-.67489-1.54742-.35892-1.98787C85.75662 51.6875 86.12782 51.66955 86.50459 51.88708zM89.3292 58.70838c.45514.26247.45216 3.0189.32934 3.86732-.12461.86097-.61076 1.4081-1.08739 1.2212-.02769-.01089-.05477-.02406-.08114-.03928-.42739-.24675-.67465-1.04865-.55724-1.85976.12465-.8611.89894-3.38658 1.37554-3.19954C89.31537 58.70102 89.32238 58.70445 89.3292 58.70838z"/><path fill="#FC849D" d="M88.24156 50.3452c.32514.18772.63256.65411.78757 1.25397.22382.87741.55116 3.72038.09419 3.86613-.0421.0132-.08939.00334-.14066-.02627-.50737-.29293-1.40773-2.51514-1.61101-3.31202-.22448-.87486-.03637-1.70487.42257-1.84964C87.93829 50.23153 88.0918 50.25889 88.24156 50.3452zM90.09985 58.75546c.50643.29224 1.40553 2.51449 1.6093 3.30871.22382.87741.03633 1.70501-.42129 1.85332-.14397.0459-.29756.01849-.44736-.068-.32567-.18802-.63359-.65532-.78692-1.25621-.22449-.87486-.55182-3.71782-.09482-3.86372C90.00095 58.71595 90.0484 58.72576 90.09985 58.75546z"/><path fill="#FC849D" d="M90.59206 50.43723c.42719.24664.6727 1.04768.55532 1.85865-.12466.8611-.89832 3.38416-1.37493 3.19711-.00728-.00281-.01448-.00636-.02154-.01043-.45499-.26269-.45141-3.01908-.32869-3.86694.12465-.8611.61209-1.40456 1.08869-1.21752C90.53864 50.40886 90.5657 50.42202 90.59206 50.43723zM91.14579 58.42827c.68463.39528 1.67785 1.33894 2.03309 1.79359.51244.65699.67298 1.54616.35893 1.98787-.21169.29509-.58404.31376-.9608.09624-.18558-.10715-.37221-.27154-.5413-.48846-.51434-.65824-1.85513-3.05649-1.53912-3.49707C90.59435 58.18413 90.83916 58.25125 91.14579 58.42827z"/><path fill="#FC849D" d="M92.74691 52.11654c.08131.04694.15624.11197.22207.19566.36806.4713.3075 1.35228-.13114 1.96666-.4196.58556-1.94913 1.99688-2.41452 1.72819-.02399-.01385-.04506-.03219-.0631-.05526-.36806-.47131.70339-2.76272 1.1446-3.3784C91.86514 52.06874 92.3728 51.90055 92.74691 52.11654zM93.88586 57.64363c.54873.31665.90984.93982.82899 1.48793-.08895.6172-.70101.9066-1.36609.645-.13265-.0522-.31823-.14623-.52954-.26823-.84808-.48964-2.11153-1.42975-2.04036-1.92371.08894-.6172 2.22932-.3031 2.89501-.04392C93.74707 57.56983 93.81794 57.60442 93.88586 57.64363z"/><path fill="#FC849D" d="M93.99716,54.83399c0.24487,0.14137,0.43285,0.37614,0.50954,0.67584
									c0.16064,0.62749-0.22664,1.3027-0.86369,1.50668c-0.53651,0.17036-2.11317,0.28558-2.70019-0.05333
									c-0.11214-0.06474-0.1881-0.14595-0.21386-0.24662c-0.16064-0.62749,1.69245-1.77068,2.33144-1.97354
									C93.39325,54.63641,93.72925,54.67931,93.99716,54.83399z"/></g><path fill="#F54E5F" d="M90.08344,54.97879c0.91775,0.52986,1.4193,1.90884,1.11962,3.07847
							c-0.29967,1.16964-1.28754,1.6887-2.20528,1.15883c-0.91776-0.52987-1.4193-1.90884-1.11962-3.07847
							C88.17783,54.96799,89.16569,54.44893,90.08344,54.97879z"/><g><polygon fill="#3A3D4C" points="54.304 33.852 43.784 58.498 44.637 58.268 55.157 33.622"/><polygon fill="#3A3D4C" points="54.697 31.38 53.844 31.615 55.492 32.566 54.614 64.75 55.467 64.52 56.346 32.336"/><polygon fill="#5B5D70" points="55.493 32.566 54.613 64.751 53.479 64.097 54.304 33.853 43.785 58.499 42.648 57.843 53.844 31.615"/><polygon fill="#3A3D4C" points="60.054 60.413 60.636 59.968 57.106 35.741 56.524 36.186"/><polygon fill="#3F4252" points="56.524 36.186 57.106 35.741 55.589 34.865 55.007 35.31"/><polygon fill="#5B5D70" points="55.007 35.31 58.537 59.538 60.054 60.413 56.524 36.186"/><g><path fill="#E29883" d="M65.74603,29.76953l-4.81928,23.31015c-0.06035,0.28282-0.2225,0.47137-0.42234,0.52403
								l-1.0241,0.27987c0.19987-0.05653,0.36202-0.24121,0.42237-0.52403l4.81926-23.31402
								c0.09427-0.46382-0.12443-1.01436-0.494-1.22924l-15.57401-8.99006c-0.1433-0.08286-0.29035-0.10164-0.41857-0.06776
								l1.02407-0.276c0.12822-0.03775,0.2753-0.0151,0.41859,0.06776l15.574,8.98988
								C65.62159,28.7513,65.84031,29.30203,65.74603,29.76953z"/><path fill="#CE7665" d="M64.22769,28.8173c0.36837,0.21268,0.58858,0.76405,0.49271,1.22794l-4.81849,23.31245
								c-0.09588,0.46389-0.47276,0.67053-0.84113,0.45785L43.4883,44.82475c-0.36837-0.21268-0.59098-0.76544-0.49511-1.22932
								l4.81849-23.31245c0.09587-0.46389,0.47516-0.66914,0.84353-0.45646L64.22769,28.8173z"/><polygon fill="#FFF" points="63.832 29.68 59.069 52.73 43.88 43.962 48.643 20.909"/></g><g><polygon fill="#5B5D70" points="53.581 60.357 45.279 55.564 44.833 56.608 53.546 61.639" enable-background="new"/><polygon fill="#3A3D4C" points="53.601 60.129 45.763 55.564 45.279 55.564 53.581 60.357"/></g><g><path fill="#56B256" d="M54.00615,35.20965c-1.40858,3.01819-4.08861,7.42191-8.06388,8.43535l0.07962,0.34804
						c4.15496-1.0585,6.92007-5.71074,8.33013-8.78339H54.00615z"/><path fill="#8EABFC" d="M52.90226,35.21118c0.11217,0.06461,0.18809,0.14594,0.21385,0.24662
									c0.16196,0.63103-1.69244,1.77068-2.33012,1.97708c-0.33338,0.10584-0.66948,0.06303-0.93734-0.09161
									c-0.24554-0.14177-0.43375-0.37744-0.51028-0.67873c-0.16063-0.62749,0.22602-1.30029,0.86563-1.50557
									C50.73889,34.98767,52.31529,34.8723,52.90226,35.21118z"/><path fill="#8EABFC" d="M51.02541 32.66856c.84851.48989 2.11292 1.43055 2.04015 1.92375-.08891.61706-2.22734.30408-2.89242.04249-.0743-.02932-.14626-.06422-.21513-.10399-.54739-.31604-.90676-.9399-.82775-1.48814.08891-.61706.70036-.90404 1.36543-.64244C50.62834 32.45243 50.81399 32.5465 51.02541 32.66856zM53.42116 36.16975c.02398.01384.04504.03218.06308.05525.36806.47131-.70144 2.76384-1.14204 3.3771-.36187.505-.86751.67435-1.2407.45889-.08185-.04726-.15728-.11287-.22347-.1977-.36806-.47131-.31007-1.35098.13115-1.96666C51.42817 37.31349 52.95588 35.90143 53.42116 36.16975z"/><path fill="#8EABFC" d="M51.2689 29.87012c.18559.10715.37247.27138.5424.48785.51244.65699 1.85252 3.05792 1.53656 3.49837-.09751.13599-.3413.06932-.64668-.10699-.68439-.39513-1.67874-1.34131-2.03305-1.79572-.515-.65568-.67489-1.54742-.35892-1.98786C50.52094 29.67054 50.89214 29.6526 51.2689 29.87012zM54.09351 36.69143c.45514.26246.45216 3.0189.32934 3.86732-.12461.86097-.61076 1.4081-1.08739 1.2212-.02769-.01089-.05477-.02406-.08113-.03928-.42739-.24675-.67465-1.04865-.55724-1.85976.12465-.8611.89894-3.38658 1.37554-3.19954C54.07969 36.68406 54.08669 36.68749 54.09351 36.69143z"/><path fill="#8EABFC" d="M53.00588 28.32825c.32514.18772.63256.65411.78757 1.25397.22383.87741.55116 3.72038.09419 3.86613-.0421.0132-.08938.00334-.14066-.02627-.50737-.29293-1.40773-2.51514-1.61101-3.31202-.22448-.87486-.03637-1.70487.42257-1.84964C52.7026 28.21457 52.85611 28.24194 53.00588 28.32825zM54.86416 36.7385c.50643.29224 1.40553 2.51449 1.60929 3.30871.22383.87741.03633 1.70501-.42128 1.85332-.14397.0459-.29757.01849-.44737-.068-.32566-.18802-.63359-.65532-.78692-1.25621-.22449-.87486-.55182-3.71782-.09482-3.86372C54.76526 36.699 54.81271 36.7088 54.86416 36.7385z"/><path fill="#8EABFC" d="M55.35637 28.42027c.42719.24664.6727 1.04767.55532 1.85865-.12465.8611-.89833 3.38416-1.37493 3.19711-.00728-.00282-.01448-.00636-.02154-.01043-.45499-.26269-.45141-3.01908-.32869-3.86695.12465-.8611.61209-1.40456 1.08869-1.21752C55.30295 28.3919 55.33001 28.40506 55.35637 28.42027zM55.9101 36.41132c.68464.39528 1.67785 1.33894 2.03309 1.79359.51244.65699.67299 1.54617.35893 1.98787-.21169.29509-.58404.31376-.9608.09624-.18558-.10715-.37221-.27154-.5413-.48846-.51434-.65824-1.85512-3.05649-1.53912-3.49707C55.35866 36.16718 55.60348 36.23429 55.9101 36.41132z"/><path fill="#8EABFC" d="M57.51122 30.09958c.08131.04694.15625.11197.22207.19566.36805.4713.3075 1.35228-.13115 1.96666-.4196.58556-1.94913 1.99688-2.41452 1.72819-.02399-.01385-.04506-.03219-.0631-.05526-.36806-.47131.70339-2.76272 1.1446-3.3784C56.62946 30.05178 57.13711 29.88359 57.51122 30.09958zM58.65018 35.62668c.54873.31665.90984.93982.82899 1.48793-.08895.6172-.70101.9066-1.36609.645-.13265-.0522-.31823-.14623-.52954-.26823-.84807-.48964-2.11153-1.42975-2.04036-1.92371.08894-.6172 2.22932-.3031 2.89502-.04392C58.51139 35.55288 58.58225 35.58746 58.65018 35.62668z"/><path fill="#8EABFC" d="M58.76147,32.81704c0.24487,0.14137,0.43285,0.37614,0.50955,0.67584
									c0.16064,0.62749-0.22664,1.3027-0.86369,1.50668c-0.53651,0.17036-2.11317,0.28558-2.70019-0.05333
									c-0.11214-0.06475-0.1881-0.14595-0.21386-0.24663c-0.16063-0.62749,1.69245-1.77068,2.33144-1.97354
									C58.15756,32.61946,58.49356,32.66236,58.76147,32.81704z"/><path fill="#5598F9" d="M54.84776,32.96183c0.91775,0.52986,1.4193,1.90884,1.11962,3.07847s-1.28754,1.6887-2.20529,1.15883
							c-0.91776-0.52987-1.4193-1.90884-1.11962-3.07847C52.94215,32.95103,53.93,32.43197,54.84776,32.96183z"/></g></g><g><path fill="#3A3D4C" d="M42.43528,62.63504c0,0-0.18962,2.05461,0.33421,2.19365
						c0.5009,0.13264,1.32302,0.16144,2.08897-0.39719c0,0,0.32954-0.15184,1.00268-0.31328
						c0.64504-0.15433,1.89299-0.98428,1.76765-2.17516C47.50344,60.75253,44.14821,62.73958,42.43528,62.63504z"/><path fill="#5B5D70" d="M41.44847,52.37226c0,0,3.77551-2.4686,3.87231,1.06489c0.09681,3.53349-0.63471,8.78082-0.63471,8.78082
				s-1.26744,1.42971-2.28392,1.2361c0,0,0.25642-1.25581-0.08241-2.61111c-0.33883-1.35531-1.54892-4.8888-1.11329-6.29251
				S41.44847,52.37226,41.44847,52.37226z"/></g><g><path fill="#3A3D4C" d="M46.44248,64.66c0,0-0.18962,2.0546,0.33421,2.19364
										c0.5009,0.13264,1.32302,0.16144,2.08897-0.39719c0,0,0.32954-0.15184,1.00268-0.31328
										c0.64505-0.15433,1.89299-0.98428,1.76765-2.17516C51.51064,62.77749,48.15541,64.76453,46.44248,64.66z"/><path fill="#5B5D70" d="M45.45567,54.39722c0,0,3.77551-2.4686,3.87231,1.06488
								c0.09681,3.53349-0.63471,8.78082-0.63471,8.78082s-1.26744,1.42971-2.28392,1.2361c0,0,0.25641-1.25581-0.08241-2.61112
								c-0.33883-1.35531-1.54893-4.88879-1.11329-6.29251C45.64929,55.17168,45.45567,54.39722,45.45567,54.39722z"/><circle cx="39.768" cy="68.608" r=".92" fill="#5B5D70"/><circle cx="43.651" cy="71.092" r=".92" fill="#5B5D70"/><circle cx="42.134" cy="74.121" r=".92" fill="#5B5D70"/><circle cx="36.731" cy="74.905" r=".92" fill="#5B5D70"/><circle cx="32.842" cy="72.568" r=".92" fill="#5B5D70"/><circle cx="34.272" cy="69.378" r=".92" fill="#5B5D70"/><polygon fill="#C8CDD6" points="40.279 67.646 40.277 68.014 38.849 70.298 38.85 69.929"/><polygon fill="#C8CDD6" points="37.318 70.167 37.317 70.536 33.352 69.091 33.353 68.722"/><rect width="5.395" height=".369" x="39.089" y="70.445" fill="#A7AEB5"/><polygon fill="#C8CDD6" points="32.162 72.362 32.161 72.731 31.922 72.218 31.923 71.849"/><polygon fill="#A7AEB5" points="37.558 70.68 37.557 71.049 32.161 72.731 32.162 72.362"/><polygon fill="#C8CDD6" points="42.409 73.951 42.408 74.319 38.443 71.186 38.444 70.817"/><polygon fill="#A7AEB5" points="43.054 73.576 43.053 73.944 42.408 74.319 42.409 73.951"/><polygon fill="#A7AEB5" points="38.444 70.817 38.443 71.186 37.014 75.158 37.015 74.789"/><polygon fill="#C8CDD6" points="37.015 74.789 37.014 75.158 36.128 75.021 36.129 74.652"/><polygon fill="#FFF" points="44.42 69.936 44.484 70.449 39.089 70.442 43.054 73.576 42.409 73.951 38.444 70.817 37.015 74.789 36.129 74.652 37.558 70.68 32.162 72.362 31.923 71.849 37.318 70.167 33.353 68.722 33.999 68.347 37.963 69.792 39.392 67.509 40.279 67.646 38.85 69.929"/><path fill="#A7AEB5" d="M38.889,63.4213l-0.00056,6.81299c-0.00029,0.10104-0.06673,0.20193-0.19942,0.27904
											c-0.2667,0.15499-0.70076,0.15514-0.96946,0c-0.13518-0.07805-0.20265-0.18047-0.20236-0.28272l0.00056-6.81299
											c-0.00029,0.10225,0.06718,0.20467,0.20236,0.28272c0.2687,0.15513,0.70276,0.15499,0.96946,0
											C38.82226,63.62323,38.88871,63.52234,38.889,63.4213z"/><g><path fill="#5598F9" d="M47.88218,58.22134l-0.0058,2.36154c-0.0029,0.17105-0.113,0.34197-0.33612,0.47242
												l-8.76241,5.09108c-0.45203,0.26076-1.18513,0.26076-1.63717,0l-8.82037-5.09108
												c-0.22891-0.13342-0.34192-0.30434-0.34192-0.47822l0.0087-2.35574c0,0.17092,0.11589,0.34197,0.33902,0.47228
												l8.82037,5.09122c0.45203,0.26076,1.18802,0.26076,1.63715,0l8.76243-5.09122
												C47.76917,58.56331,47.88218,58.39225,47.88218,58.22134z"/><path fill="#3A3D4C" d="M47.88218,60.20634l-0.0058,0.37653c-0.0029,0.17105-0.113,0.34197-0.33612,0.47242
												l-8.76241,5.09108c-0.45203,0.26076-1.18513,0.26076-1.63717,0l-8.82037-5.09108
												c-0.22891-0.13342-0.34192-0.30434-0.34192-0.47822l0.0087-0.37073c0,0.17091,0.11589,0.34197,0.33902,0.47228
												l8.82037,5.09121c0.45203,0.26076,1.18802,0.26076,1.63715,0l8.76243-5.09121
												C47.76917,60.54831,47.88218,60.37726,47.88218,60.20634z"/><path fill="#8EABFC" d="M47.5406,57.74439c0.45326,0.26168,0.45565,0.6868,0.00532,0.94851l-8.76176,5.09178
												c-0.45033,0.2617-1.18425,0.2617-1.63751,0.00002l-8.81912-5.09172c-0.45325-0.26168-0.45565-0.6868-0.00532-0.94851
												l8.76176-5.09178c0.45033-0.2617,1.18425-0.26171,1.63751-0.00002L47.5406,57.74439z"/></g><path fill="#5B5D70" d="M33.44251,56.56972c0,0-0.91121,2.14598,1.50952,3.30205
						c2.42073,1.15607,3.89571,1.43512,5.25111,0.6777c1.35539-0.75742,7.37494-4.38509,8.13236-4.42496
						c0.24976-0.01315,0.88864-1.8796,0.26088-2.37103c-1.27594-0.99885-3.65913-1.95594-4.17856-2.11345
						C43.64282,51.40501,33.44251,56.56972,33.44251,56.56972z"/><g><path fill="#FFDD94" d="M40.58027,35.04139l-5.94939,3.50367c0.12532,1.00257,0.17542,2.65573,0.17542,2.65573
							s3.68286,2.03069,3.43233,0.25169c-0.25053-1.77854,0.6514-2.25498,0.6514-2.25498
							C40.94439,38.018,40.58027,35.04139,40.58027,35.04139z"/><path fill="#454859" d="M40.77286,33.90513c-1.141,0.39634-2.58179-2.90194-6.10608-0.68546
							c-1.52261,0.95761-0.38721,5.0631-0.15283,5.87809c0.02734,0.09508,0.0914,0.16445,0.1752,0.18968
							c0.58231,0.17464,2.91442,0.83778,3.02557,0.29107c0.12696-0.62482,1.61913-1.61736,1.42865-2.27905
							c-0.19049-0.66121,0.41272-1.02892,0.9207-1.24965c0.3793-0.16445,0.72435-1.36267,0.87477-1.95888
							C40.96853,33.97305,40.87431,33.86972,40.77286,33.90513z"/><path fill="#FFDD94" d="M33.79741,45.57326c0,0-0.06233-0.3364,0.07995-0.86018
														c-0.64293,0.03203-0.7718-0.53821-1.41134-0.77137c-0.18552-0.05992-0.29477-0.10654-0.37072-0.13547
														c-0.40075-0.02604-0.4959,0.19231-1.26533,1.37253c0.16168,0.99955,0.59171,1.34251,1.03738,2.68832
														c0.31113,0.91107,1.13846,1.54616,2.10266,1.59639l0.66086-1.81843
														C33.50094,47.46775,33.77489,45.69249,33.79741,45.57326z"/><path fill="#FA5C7C" d="M33.79675,45.57478c0.36959-1.01704,0.66375-2.39688,0.75874-2.89501
																c0.25511-1.3419-0.73935-2.63412-1.63609-2.47862c-0.89742,0.15298-1.75084,0.94011-2.00499,2.28069
																c-0.08377,0.43945-0.11401,1.73444-0.08401,2.69281C32.5168,44.26448,33.79078,45.56839,33.79675,45.57478z"/><path fill="#FC688B" d="M35.32378,40.11216c0,0-3.49233-0.87648-3.85361,2.07062s1.28454,12.97597,0.9634,14.66193
							c-0.32113,1.68596,4.85716,2.97049,6.58326,2.32822s2.85007-1.56553,2.76979-2.80993
							c-0.08028-1.2444-0.20802-7.22552-0.5255-7.90794s-0.04282-5.03045-0.76537-6.01724
							C39.77318,41.45103,35.32378,40.11216,35.32378,40.11216z"/></g><g><path fill="#5B5D70" d="M37.31429,66.46783l-9.15273-5.319c-0.04328-0.02514-0.0729-0.06841-0.08428-0.12991
								c-0.03189-0.15717-0.74261-3.87015-0.04556-7.26659c0.65377-3.18221-1.48748-6.78597-1.51027-6.82246
								c-0.08656-0.14348,0.00912-0.42366,0.21412-0.6241c0.05012-0.05016,0.10479-0.09109,0.15718-0.12068
								c0.11846-0.06841,0.23463-0.08431,0.30981-0.03882l9.15274,5.31677c-0.07746-0.04338-0.19363-0.02959-0.31208,0.04093
								c-0.0524,0.02959-0.10479,0.07063-0.15718,0.1208c-0.20502,0.20043-0.30069,0.48061-0.21413,0.6241
								c0.02277,0.03648,2.16404,3.64013,1.51254,6.82012c-0.69931,3.39866,0.0114,7.11176,0.04328,7.26669
								C37.23913,66.39709,37.27101,66.44048,37.31429,66.46783z"/><path fill="#3A3D4C" d="M36.0435,51.50328c0.15629-0.09023,0.30556-0.08823,0.37021,0.01984
								c0.09367,0.15343,2.26442,3.8098,1.55602,7.26033c-0.66386,3.23401,0.04442,6.93291,0.05181,6.96878
								c0.03695,0.18791-0.11084,0.47076-0.33035,0.63101c-0.0218,0.01759-0.04361,0.0319-0.06543,0.04449
								c-0.19343,0.11168-0.36543,0.07703-0.39796-0.09164c-0.03103-0.15618-0.74226-3.86845-0.04391-7.26632
								c0.65236-3.18051-1.48911-6.78512-1.51106-6.82094c-0.08635-0.1444,0.009-0.42368,0.21383-0.62403
								C35.93778,51.57431,35.99103,51.53358,36.0435,51.50328z"/></g></g><g><path fill="#3A3D4C" d="M66.55003,90.06714c0,0,0.46601-0.30635,2.51751-0.53718
								c1.06078-0.11935,1.59638-0.18648,2.02659,0.02597c0.31322,0.15372,0.36293,0.59936,0.09447,0.74963
								c-0.94078,0.52163-2.53709,1.46989-3.68441,1.79634C65.98652,92.53371,66.55003,90.06714,66.55003,90.06714z"/><path fill="#FFDD94" d="M66.63782,81.47791c0.05414,0.90953,0.05939,1.60498,0.02725,2.58937
									c-0.07212,2.20737-0.11528,5.98124-0.11528,5.98124c1.9058,0.74582,2.51776-0.51774,2.51776-0.51774
									s-0.12533-6.89916,0.04684-8.05287H66.63782z"/><path fill="#454859" d="M65.9301,82.62362c1.2466,0.66168,2.60793,0.57385,4.04381,0
									c0.42881-1.8028,0.39566-7.53927,0.39566-7.53927c-0.70258,0.57036-3.26937-0.58481-4.8234-1.25162
									C64.36461,76.81544,65.93888,82.15517,65.9301,82.62362z"/><path fill="#3A3D4C" d="M69.67826,90.83333c0,0,0.46601-0.30634,2.51751-0.53717
								c1.06078-0.11936,1.59638-0.18649,2.02659,0.02597c0.31322,0.15372,0.36292,0.59935,0.09447,0.74963
								c-0.94078,0.52163-2.53709,1.46989-3.68441,1.79633C69.11475,93.2999,69.67826,90.83333,69.67826,90.83333z"/><path fill="#FFDD94" d="M69.76605,82.2441c0.05414,0.90954,0.05939,1.60498,0.02725,2.58938
									c-0.07212,2.20737-0.11528,5.98124-0.11528,5.98124c1.90579,0.74581,2.51776-0.51774,2.51776-0.51774
									s-0.12533-6.89917,0.04684-8.05288H69.76605z"/><path fill="#5B5D70" d="M69.05833,83.38981c1.2466,0.66169,2.60793,0.57385,4.04381,0
									c0.42881-1.8028,0.39566-7.53926,0.39566-7.53926c-0.70258,0.57035-3.26937-0.58481-4.8234-1.25162
									C67.49284,77.58163,69.06712,82.92136,69.05833,83.38981z"/><path fill="#FFDD94" d="M71.46734 57.19531c0 0-4.2469 1.25955-4.2614 1.50143.00341.0869-.16869 4.47276-.09087 5.46755.11434 1.62141 4.37872.82319 3.76752-.26686-.39472-.71598-.84158-1.21858-.44489-1.61491.25922-.25899.42262-.03596.73158-.27751C72.6248 60.84517 71.46734 57.19531 71.46734 57.19531zM67.9373 67.46194c0 0-.12664-.31779-.08907-.85921-.62437.15663-.86182-.37755-1.53452-.48167-.19364-.02264-.30987-.04708-.38999-.06066-.39814.05251-.44896.28519-.97385 1.59258.35321.94884.84178 1.20144 1.54096 2.43457.48257.83295 1.41772 1.2947 2.37324 1.15618l.29414-1.91217C68.01539 69.37774 67.93843 67.58327 67.9373 67.46194z"/><path fill="#66BF66" d="M67.93696,67.46356c0.16448-1.06947,0.18433-2.48005,0.18052-2.98711
																									c-0.01105-1.36578-1.23809-2.43946-2.08737-2.1123c-0.85045,0.32482-1.53427,1.26302-1.52253,2.62732
																									c0.0034,0.44731,0.22589,1.72329,0.44192,2.65739C66.42638,66.42775,67.92986,67.45846,67.93696,67.46356z"/><path fill="#96D696" d="M72.16322,64.82598c-0.49219-0.37139-1.00721-0.80444-1.41491-1.29393
															c-0.28578-0.34391-0.73396-0.49915-1.17907-0.45904c-0.94221,0.08542-2.26304,0.06591-2.46266-0.84845
															c0,0-3.26521-0.2063-2.08381,4.0023c1.1813,4.2086,0.20071,6.37772,0.48093,8.01241
															c0,0,5.71636,4.60508,8.2112,1.56757c0,0-0.34857-6.04954-0.07783-7.28033
															C73.87338,67.45245,73.92213,66.15333,72.16322,64.82598z"/><g><path fill="#FFDD94" d="M83.31131,64.26175c-0.28852,1.04236-0.94662,0.95323-1.07529,1.41805
															c-0.12865,0.46478,0.05099,0.92014,0.40126,1.01707c0.35026,0.09692,0.73849-0.20132,0.86714-0.66609
															C83.63309,65.56596,83.31131,64.26175,83.31131,64.26175z"/><path fill="#454859" d="M82.36803,66.51746c-0.24294,0.37078-0.51149,0.90234-0.89343,1.79092
																c-0.78816,1.83365-1.19706,3.29359-0.9132,3.26083c0.28386-0.03274,1.15222-1.54572,1.94039-3.37937
																c0.31893-0.74206,0.39928-1.16538,0.49195-1.52138C82.74155,66.74565,82.56933,66.64731,82.36803,66.51746z"/><path fill="#FFDD94" d="M82.7321,67.58529c-0.34154,0.43034-0.81155,0.43457-0.81155,0.43457
														s-3.86559,1.25643-4.36092,1.65431c-0.89418,0.71323-2.01772-0.68854-2.09029-0.78519
														c0,0-0.28995-0.1813-0.57989-0.64056c-0.41076,0.49594-0.91825,0.20599-1.52231,0.51922
														c-0.16922,0.09736-0.27795,0.14532-0.35035,0.18201c-0.29003,0.27795-0.19338,0.49523,0.15705,1.86102
														c0.84576,0.5552,1.38941,0.47054,2.68217,1.05114c0.88201,0.38659,1.90899,0.20529,2.5977-0.47125
														c1.02689-1.00317,2.47679-2.00634,2.74258-2.13897c0.18121-0.07266,0.36252-0.13333,0.55573-0.15661
														c0.6283-0.04868,1.01093-0.21729,1.1962-0.48113C83.22354,68.22162,82.87434,67.4054,82.7321,67.58529z"/><path fill="#66BF66" d="M75.46999,68.89026c-0.49999-0.95971-1.31837-2.10892-1.62138-2.51555
																	c-0.8168-1.0948-2.4412-1.2347-2.93241-0.46844c-0.49355,0.76505-0.48991,1.92616,0.32657,3.01936
																	c0.26733,0.35869,1.20148,1.25599,1.92818,1.88143C73.63939,68.94865,75.46124,68.89034,75.46999,68.89026z"/></g><path fill="#454859" d="M69.82275,56.30954c-0.29001,0.01413-0.60899,0.05805-0.95698,0.10128
					c-3.01614,0.36242-2.74064,2.46531-2.76966,2.87096c-0.01451,0.40652,0.40604,1.58044,0.47855,2.3635
					c0.05796,0.78307,0.53651,0.84112,0.53651,0.84112c0.37291,0.09629,1.19975,0.12178,1.61224,0.1285
					c0.13567,0.00224,0.24686-0.10284,0.25349-0.2384c0.02892-0.59169,0.13578-2.08273,0.48335-2.26773
					c0.59458-0.30437,0.60901,0.44889,0.59458,0.76825l0.55102-0.20309c0.14497-0.65216,0.14497-0.84129,0.37694-1.08762
					c0.46403-0.47869,0.98611-0.39153,1.1456-0.15934v-0.9424C72.12838,57.22284,71.06979,56.20757,69.82275,56.30954z"/><g><path fill="#F54E5F" d="M82.94198,65.07243c0.00494,0.00282,0.0112,0.00141,0.01675,0
					c0.04409-0.0127,0.07954-0.04656,0.10335-0.08607c0.0239-0.03951,0.03757-0.08324,0.05106-0.12769
					c0.05917,0.13968-0.00811,0.30405,0.03033,0.45008c0.08413-0.04092,0.14013-0.12204,0.19233-0.19965
					c-0.00238,0.06208,0.0134,0.12487,0.0448,0.17919c0.038-0.03668,0.07204-0.0776,0.10476-0.11922
					c-0.0657-0.46208-0.17407-0.90723-0.17407-0.90723c-0.0963,0.34779-0.23457,0.56367-0.37981,0.72169
					c-0.00264,0.02611-0.006,0.05221,0.0023,0.0769C82.93536,65.06467,82.93757,65.0696,82.94198,65.07243z"/></g></g><g><path fill="#FFDD94" d="M50.66504,41.0327c-0.28852,1.04236-0.94663,0.95323-1.07528,1.41804
															c-0.12865,0.46478,0.05099,0.92015,0.40125,1.01707c0.35026,0.09692,0.7385-0.20131,0.86715-0.66609
															C50.98682,42.33691,50.66504,41.0327,50.66504,41.0327z"/><path fill="#454859" d="M49.72176,43.28841c-0.24294,0.37078-0.51149,0.90234-0.89343,1.79091
																c-0.78817,1.83365-1.19707,3.29359-0.9132,3.26084c0.28386-0.03274,1.15223-1.54572,1.94039-3.37937
																c0.31894-0.74206,0.39929-1.16539,0.49195-1.52138C50.09528,43.51661,49.92306,43.41826,49.72176,43.28841z"/><path fill="#FFDD94" d="M50.08583,44.35624c-0.34153,0.43033-0.81155,0.43457-0.81155,0.43457
														s-3.86559,1.25643-4.36091,1.65431c-0.89418,0.71323-2.01772-0.68853-2.09029-0.78518
														c0,0-0.28995-0.1813-0.5799-0.64056c-0.41076,0.49594-0.91825,0.206-1.5223,0.51922
														c-0.16922,0.09735-0.27795,0.14532-0.35035,0.18201c-0.29004,0.27795-0.19339,0.49524,0.15705,1.86102
														c0.84576,0.5552,1.38941,0.47054,2.68217,1.05114c0.88201,0.3866,1.90899,0.20529,2.59769-0.47125
														c1.02689-1.00317,2.4768-2.00634,2.74258-2.13897c0.18122-0.07266,0.36252-0.13333,0.55573-0.15661
														c0.6283-0.04868,1.01093-0.21728,1.1962-0.48112C50.57727,44.99257,50.22807,44.17635,50.08583,44.35624z"/><path fill="#FA5C7C" d="M42.82372,45.66121c-0.49999-0.95971-1.31837-2.10893-1.62138-2.51555
																	c-0.8168-1.0948-2.44119-1.23469-2.93241-0.46844c-0.49354,0.76505-0.48991,1.92616,0.32657,3.01936
																	c0.26733,0.35869,1.20148,1.25599,1.92818,1.88144C40.99312,45.7196,42.81497,45.6613,42.82372,45.66121z"/><path fill="#F54E5F" d="M50.29571,41.84338c0.00494,0.00282,0.0112,0.00141,0.01675,0
					c0.04409-0.0127,0.07954-0.04656,0.10335-0.08607c0.0239-0.03951,0.03756-0.08324,0.05106-0.12769
					c0.05917,0.13968-0.00811,0.30405,0.03033,0.45008c0.08413-0.04092,0.14013-0.12204,0.19233-0.19965
					c-0.00238,0.06208,0.0134,0.12487,0.0448,0.17919c0.03801-0.03668,0.07204-0.0776,0.10476-0.11922
					c-0.06569-0.46208-0.17407-0.90723-0.17407-0.90723c-0.09629,0.34779-0.23457,0.56366-0.3798,0.72169
					c-0.00265,0.0261-0.006,0.0522,0.00229,0.0769C50.28909,41.83562,50.2913,41.84056,50.29571,41.84338z"/></g></svg>