<svg xmlns="http://www.w3.org/2000/svg" viewBox="0 0 54 54"><path fill="#f3f1fc" d="M35.678 32.86c.005 1.655-1.158 3.66-2.59 4.487L10.06 50.642c-.75.432-1.424.46-1.9.154L4.95 48.899c-.47-.272-.751-.846-.761-1.67l-.063-22.911 3.258 1.924L35.61 9.947l.068 22.913z"/><path fill="#dedffb" d="M8.207 50.823 4.95 48.899c-.47-.272-.751-.846-.761-1.67l-.063-22.911 3.258 1.924.073 22.91c0 .825.292 1.4.751 1.67z"/><path fill="#f3f1fc" d="m35.61 9.948.068 22.913c.005 1.654-1.158 3.659-2.59 4.486L10.06 50.642c-1.44.83-2.603.168-2.607-1.486l-.071-22.915L35.61 9.948z"/><path fill="#fff" d="M33.642 6.359c.26-.15.48-.032.482.274l.08 26.978c.001.704-.503 1.578-1.116 1.932L10.06 48.838c-.62.358-1.121.064-1.123-.64L8.86 21.955c-.002-.712.496-1.575 1.116-1.932L33.642 6.359z"/><path fill="#b0b8cf" d="M35.61 9.948 7.383 26.242l-3.258-1.924-.01-2.902c0-1.648 1.147-3.652 2.588-4.487L30.37 3.269c.543-.314 1.044-.345 1.398-.136l3.208 1.894c.381.19.62.636.622 1.285l.01 3.636z"/><path fill="#9ea9c9" d="M35.027 5.057c-.354-.209-.845-.178-1.398.136L9.97 18.853c-1.44.835-2.599 2.839-2.599 4.487l.01 2.902-3.257-1.924-.01-2.902c0-1.648 1.147-3.652 2.588-4.487L30.37 3.269c.543-.314 1.044-.345 1.398-.136l3.258 1.924z"/><path fill="#b0b8cf" d="M33.634 5.192c1.08-.623 1.962-.128 1.965 1.12l.01 3.636L7.384 26.242l-.006-2.9c-.004-1.654 1.151-3.655 2.59-4.486L33.634 5.192z"/><path fill="#fff" d="M10.094 20.818c.59-.341 1.077-.064 1.08.615.001.673-.482 1.51-1.073 1.851-.597.345-1.072.06-1.074-.612-.002-.68.47-1.51 1.067-1.854zm3.429-1.98c.59-.34 1.077-.064 1.079.616.002.672-.481 1.51-1.072 1.85-.598.345-1.072.061-1.074-.611-.002-.68.47-1.51 1.067-1.854zm3.428-1.98c.592-.34 1.078-.063 1.08.616.002.673-.481 1.51-1.073 1.85-.597.345-1.071.062-1.073-.611-.002-.68.47-1.51 1.066-1.854zm16.484-9.052c.287-.166.524-.03.525.299 0 .336-.235.744-.522.91l-10.111 5.837c-.287.166-.524.031-.525-.305 0-.33.235-.737.521-.903l10.112-5.838z"/><path fill="#57b3fe" d="m21.135 37.388 1.067-.7c.112-.072.26.03.227.159-.209.829-.993 1.453-1.746 1.917a19.045 19.045 0 0 1-2.768 1.407c-1.906.781-2.793.083-2.717-1.679.081-1.902 1.017-3.645 1.82-5.371 1.082-2.324 1.961-4.753 3.307-6.934 1.576-2.554 3.763-4.705 6.246-6.388 1.13-.766 2.558-1.457 3.808-.91.382.166.757.449 1.168.382.342-.056.632-.35.976-.32.332.03.57.37.586.702.016.332-.138.649-.318.928a4.694 4.694 0 0 1-1.462 1.44c-.068.041-.14.084-.178.154-.075.138.019.316.15.4.133.085.294.11.442.162.536.19.868.76.916 1.327s-.142 1.126-.384 1.64a8.167 8.167 0 0 1-2.98 3.395l-.12-.494c-.156.034-.257.181-.377.287-.12.106-.33.164-.425.035-.068-.091-.033-.22.007-.328a15.423 15.423 0 0 1 1.731-3.384c-.848-.29-1.8-.082-2.593.337-.793.419-1.461 1.033-2.145 1.613-2.691 2.284-5.847 4.251-7.483 7.379-.47.9-.802 1.904-.726 2.916.019.243.095.528.326.606.13.043.27.007.4-.031.979-.286 1.799-.766 2.708-1.21a.149.149 0 0 1 .208.093l.106.385c.027.097.14.14.223.085z"/><path fill="#f45170" d="M15.656 25.896c1.236-.3 2.56-.363 3.767.038.399.133.813.318 1.224.225.124-.028.242-.08.369-.093.236-.023.46.098.667.214.489.275.996.566 1.305 1.034.123.188.214.402.383.55.228.199.561.242.789.441.365.319.327.884.291 1.368-.081 1.114.017 2.24.288 3.323a.336.336 0 0 1-.343.423l-.026-.001a.336.336 0 0 0-.357.328l-.02.918c-.006.3-.37.438-.58.223-.265-.27-.56-.5-.913-.63-.271-.1-.561-.134-.849-.16-.825-.071-4.347-.125-4.962-.69-.297-.271-.187-.77-.373-1.127-.238-.457-.868-.53-1.373-.426-.505.103-1.007.325-1.515.24-.477-.08-.652-.322-1.45-.305-.172.003-.45.09-.611.018-.38-.168.14-.63.338-.706.287-.109.623-.14.833-.363.057-.06.101-.152.056-.221-.035-.054-.108-.066-.172-.072a4.72 4.72 0 0 0-1.199.047c-.115.02-.273.02-.305-.093-.029-.098.072-.182.16-.236l1.526-.93c.265-.162.277-.327-.003-.527l-.661-.472c-.162-.116-.34-.26-.348-.459-.01-.258.265-.423.5-.529 1.164-.525 2.33-1.05 3.564-1.35z"/><path fill="#78e75a" d="M21.244 29.146c.299-.017.704.068.71.368.005.263-.312.388-.562.468-.251.08-.545.303-.435.542.06.13.215.183.354.222.416.119.843.256 1.162.547.32.292.498.782.306 1.169-.05.1-.124.2-.114.31.017.173.217.26.303.41.119.204-.02.484-.234.583-.214.098-.468.054-.686-.035l.596 1.576c.052.138.103.298.03.426-.083.147-.296.173-.45.103-.153-.07-.263-.207-.372-.336a5.996 5.996 0 0 0-1.585-1.311c-.193-.11-.502-.175-.587.031.308.138.565.383.717.683.02.037.037.078.031.119-.016.117-.18.129-.296.108-2.881-.507-3.122-.12-5.264 1.246-1.26.803-2.714 1.426-3.564 2.654-.055.08-.65 1.129-1.196.82-.219-.122-.15-.514-.123-.745.179-1.52 1.478-2.577 2.356-3.649.867-1.06 1.552-2.347 2.754-3.002.126-.068.271-.238.155-.322a.202.202 0 0 0-.1-.028 3.18 3.18 0 0 0-1.847.383c-.258.144-.518.33-.813.317-.046-.158.094-.303.222-.405a15.12 15.12 0 0 1 8.532-3.252z"/><path fill="#e3e7f0" d="M27.153 21.847a4.692 4.692 0 0 1-.804 1.657c-.134.177-.287.348-.485.447l.254-1.698c.017-.11-.014-.271-.123-.256-.042.006-.073.039-.099.072-.285.38-.16.98-.5 1.31a4.796 4.796 0 0 0-.203-.955c-.086.014-.124.113-.146.197-.582 2.27-.223 3.948-.046 5.044.006.039.012.08-.005.116-.039.082-.164.07-.237.017-.074-.053-.131-.133-.217-.161-.254-.083-.163.294-.148.402.034.238.07.475.112.712.082.464.187.925.347 1.368a5.8 5.8 0 0 0 2.131 2.77c.078.054.16.107.255.118s.201-.033.232-.122c.013-.04.01-.085.027-.125.054-.127.239-.097.372-.133.172-.047.276-.234.285-.413.01-.178-.055-.352-.114-.52-1.087-3.072-1.027-6.467-.28-9.64.153-.652.336-1.313.275-1.98-.661.33-.745 1.239-.883 1.773z"/><path fill="#4c5c75" d="M26.817 34.413c.295-.085.502.146.46.52-.041.37-.317.743-.612.827-.292.084-.498-.152-.456-.521.042-.374.316-.743.608-.826z"/><path fill="#ffd06c" d="M19.184 23.449c.296-.085.503.146.46.52-.041.37-.316.743-.612.827-.291.084-.498-.152-.456-.521.042-.374.317-.743.608-.826z"/><path fill="#dba660" d="M13.426 39.832c.295-.084.502.147.46.52-.042.37-.317.743-.612.828-.292.083-.498-.152-.457-.521.043-.374.317-.743.609-.827z"/><path fill="#4c5c75" d="M43.8 35.125s-.182-1.666 2.236-2.031c1.879-.284 3.161-.925 3.64-1.197a.14.14 0 0 1 .208.125c-.014.604-.15 2.17-1.126 3.277-1.232 1.4-3.909 1.46-3.909 1.46L43.8 35.125z"/><path fill="#1d2943" d="M49.885 32.024c-.016.6-.152 2.168-1.126 3.277-1.236 1.397-3.913 1.457-3.913 1.457l-.372-.576c.711-.06 2.642-.314 3.633-1.44.711-.804.982-1.845 1.076-2.59a7.75 7.75 0 0 0 .49-.255.144.144 0 0 1 .212.127z"/><path fill="#ffd06c" d="M20.065 48.836 36.501 38.63l7.167-3.422c.855-.441 1.913.994 1.182 1.551l-6.813 4.79-16.84 8.93-1.132-1.643z"/><path fill="#febc1f" d="M20.627 48.853c.4.225.723.769.721 1.216 0 .447-.326.628-.726.403-.399-.224-.722-.77-.721-1.216.001-.448.327-.627.726-.403z"/><path fill="#ef7b56" d="m44.85 36.759-6.69 4.703c.864-.732-.591-3.394-1.66-2.832l7.17-3.421c.853-.443 1.912.992 1.18 1.55z"/></svg>