<svg id="button" enable-background="new 0 0 300 300" height="512" viewBox="0 0 300 300" width="512" xmlns="http://www.w3.org/2000/svg"><g><path d="m246.254 30h-192.508c-6.476 0-11.746 5.27-11.746 11.748v64.504c0 6.478 5.27 11.748 11.746 11.748h100.25v61.004c-4.176-4.977-9.414-11.219-13.434-15.996-5.262-6.254-14.691-7.094-21.234-1.703-5.836 4.805-7.059 13.164-2.844 19.445l38.074 56.699c2.969 4.42 6.891 8.18 11.438 10.979v17.572c0 2.209 1.789 4 4 4s4-1.791 4-4v-19.893c0-1.482-.82-2.844-2.133-3.537-4.289-2.264-7.977-5.578-10.664-9.582l-38.074-56.697c-1.91-2.846-1.355-6.633 1.492-8.98 2.977-2.445 7.375-2.061 9.82.848 7.898 9.383 20.492 24.41 20.492 24.412 1.082 1.289 2.859 1.766 4.434 1.189 1.582-.576 2.633-2.078 2.633-3.76v-90c0-3.309 2.691-6 6-6s6 2.691 6 6v58c0 .007.004.012.004.019v15.981c0 2.209 1.789 4 4 4s4-1.791 4-4v-30.34c0-3.121 2.691-5.66 6-5.66s6 2.539 6 5.66v.34 30c0 2.209 1.789 4 4 4s4-1.791 4-4v-30c0-3.309 2.691-6 6-6s6 2.691 6 6v11.588 18.412 2.461c0 2.209 1.789 4 4 4s4-1.791 4-4v-2.461-18.412c0-3.082 2.691-5.588 6-5.588s6 2.506 6 5.588v75.234c0 4.9-2.312 9.377-6.34 12.283-1.043.752-1.66 1.959-1.66 3.244v19.651c0 2.209 1.789 4 4 4s4-1.791 4-4v-17.723c5.043-4.387 8-10.768 8-17.455v-75.234c0-7.492-6.281-13.588-14-13.588-2.18 0-4.22.529-6.061 1.395-.325-7.433-6.427-13.395-13.939-13.395-3.895 0-7.417 1.605-9.957 4.181-2.547-2.569-6.1-4.181-10.043-4.181-2.157 0-4.177.518-6.004 1.372v-13.372h64.258c6.477 0 11.746-5.27 11.746-11.748v-64.504c0-6.478-5.27-11.748-11.746-11.748zm-192.508 80c-2.066 0-3.746-1.682-3.746-3.748v-.921c1.183.402 2.429.669 3.746.669h100.25v4zm192.508 0h-64.258v-4h64.258c1.317 0 2.563-.267 3.746-.669v.921c0 2.066-1.68 3.748-3.746 3.748zm0-12h-64.46c-.981-6.767-6.764-12-13.798-12s-12.817 5.233-13.798 12h-100.452c-2.066 0-3.746-1.682-3.746-3.748v-52.504c0-2.066 1.68-3.748 3.746-3.748h192.508c2.066 0 3.746 1.682 3.746 3.748v52.504c0 2.066-1.68 3.748-3.746 3.748z"/><path d="m76 166c-7.719 0-14 6.281-14 14s6.281 14 14 14 14-6.281 14-14-6.281-14-14-14zm0 20c-3.309 0-6-2.691-6-6s2.691-6 6-6 6 2.691 6 6-2.691 6-6 6z"/><path d="m98 215.47c-2.502 0-4.53 2.028-4.53 4.53 0 2.501 2.028 4.53 4.53 4.53 2.501 0 4.53-2.028 4.53-4.53s-2.029-4.53-4.53-4.53z"/><path d="m110.484 129.516c-1.562-1.562-4.094-1.562-5.656 0l-2.828 2.828-2.828-2.828c-1.562-1.562-4.094-1.562-5.656 0s-1.562 4.094 0 5.656l2.828 2.828-2.828 2.828c-1.562 1.562-1.562 4.094 0 5.656.781.781 1.805 1.172 2.828 1.172s2.047-.391 2.828-1.172l2.828-2.828 2.828 2.828c.781.781 1.805 1.172 2.828 1.172s2.047-.391 2.828-1.172c1.562-1.562 1.562-4.094 0-5.656l-2.828-2.828 2.828-2.828c1.563-1.563 1.563-4.094 0-5.656z"/><path d="m127.109 50h-13.109c-2.211 0-4 1.791-4 4v12 12c0 2.209 1.789 4 4 4h13.109c3.801 0 6.891-3.092 6.891-6.893v-6.215c0-1.036-.246-2.01-.657-2.893.411-.883.657-1.856.657-2.893v-6.215c0-3.799-3.09-6.891-6.891-6.891zm-9.109 8h8v4h-8zm8 16h-8v-4h8z"/><path d="m158 50c-2.211 0-4 1.791-4 4v19.156c0 .465-.379.844-.844.844h-6.312c-.465 0-.844-.379-.844-.844v-19.156c0-2.209-1.789-4-4-4s-4 1.791-4 4v19.156c0 4.877 3.969 8.844 8.844 8.844h6.312c4.875 0 8.844-3.967 8.844-8.844v-19.156c0-2.209-1.789-4-4-4z"/><path d="m182.672 51.781-4.672 7.008-4.672-7.008c-1.227-1.838-3.707-2.338-5.547-1.109-1.84 1.225-2.336 3.709-1.109 5.547l7.328 10.992v10.789c0 2.209 1.789 4 4 4s4-1.791 4-4v-10.789l7.328-10.992c1.227-1.838.73-4.322-1.109-5.547-1.848-1.229-4.324-.729-5.547 1.109z"/><path d="m95.293 55.051-20 20c-1.562 1.562-1.562 4.094 0 5.656.781.781 1.805 1.172 2.828 1.172s2.047-.391 2.828-1.172l20-20c1.562-1.562 1.562-4.094 0-5.656s-4.094-1.563-5.656 0z"/><path d="m80.12 64.409c2.501 0 4.529-2.028 4.529-4.53 0-2.501-2.028-4.529-4.529-4.529s-4.53 2.028-4.53 4.529c.001 2.502 2.029 4.53 4.53 4.53z"/><path d="m96.12 71.35c-2.501 0-4.53 2.028-4.53 4.529 0 2.502 2.028 4.53 4.53 4.53s4.529-2.028 4.529-4.53c0-2.501-2.027-4.529-4.529-4.529z"/><path d="m215.293 55.051-20 20c-1.562 1.562-1.562 4.094 0 5.656.781.781 1.805 1.172 2.828 1.172s2.047-.391 2.828-1.172l20-20c1.562-1.562 1.562-4.094 0-5.656s-4.094-1.563-5.656 0z"/><path d="m200.12 64.409c2.501 0 4.529-2.028 4.529-4.53 0-2.501-2.028-4.529-4.529-4.529s-4.53 2.028-4.53 4.529c.001 2.502 2.029 4.53 4.53 4.53z"/><path d="m216.12 71.35c-2.501 0-4.53 2.028-4.53 4.529 0 2.502 2.028 4.53 4.53 4.53s4.529-2.028 4.529-4.53c0-2.501-2.027-4.529-4.529-4.529z"/></g></svg>