<svg id="calendar" enable-background="new 0 0 300 300" height="512" viewBox="0 0 300 300" width="512" xmlns="http://www.w3.org/2000/svg"><g><path d="m227.613 64h-31.613v-8c0-2.209-1.789-4-4-4s-4 1.791-4 4v8h-48v-8c0-2.209-1.789-4-4-4s-4 1.791-4 4v8h-31.613c-20.063 0-36.387 16.322-36.387 36.387v123.227c0 .353.043.696.053 1.046-2.602 1.527-5.496 2.615-8.619 3.063-1.973.281-3.434 2.287-3.434 4.277 0 2.209 1.789 4 4 4h10.218c5.084 13.974 18.461 24 34.169 24h127.227c20.062 0 36.386-16.322 36.386-36.387v-123.226c0-20.065-16.324-36.387-36.387-36.387zm28.387 159.613c0 15.653-12.734 28.387-28.387 28.387h-127.226c-11.208 0-20.89-6.545-25.502-16h152.045c13.824 0 25.07-11.246 25.07-25.068v-90.932c0-2.209-1.789-4-4-4h-168c-2.211 0-4 1.791-4 4v84c0 4.79-1.5 9.273-4 13.071v-116.684c0-15.653 12.734-28.387 28.387-28.387h31.613v13.11c-2.381 1.386-4 3.937-4 6.89 0 4.418 3.582 8 8 8s8-3.582 8-8c0-2.954-1.619-5.505-4-6.891v-13.109h48v13.11c-2.381 1.386-4 3.937-4 6.89 0 4.418 3.582 8 8 8s8-3.582 8-8c0-2.954-1.619-5.505-4-6.891v-13.109h31.613c15.653 0 28.387 12.734 28.387 28.387zm-182.926 4.387c6.719-5.916 10.926-14.568 10.926-24v-80h160v86.932c0 9.412-7.656 17.068-17.07 17.068z"/><circle cx="40" cy="80" r="4"/><path d="m61.172 58.828c.781.781 1.805 1.172 2.828 1.172s2.047-.391 2.828-1.172l3.172-3.172 3.172 3.172c.781.781 1.805 1.172 2.828 1.172s2.047-.391 2.828-1.172c1.562-1.562 1.562-4.094 0-5.656l-3.172-3.172 3.172-3.172c1.562-1.562 1.562-4.094 0-5.656s-4.094-1.562-5.656 0l-3.172 3.172-3.172-3.172c-1.562-1.562-4.094-1.562-5.656 0s-1.562 4.094 0 5.656l3.172 3.172-3.172 3.172c-1.563 1.562-1.563 4.094 0 5.656z"/><path d="m210.5 152.877c-1.73-1.381-4.238-1.096-5.625.625l-32 40c-1.379 1.725-1.098 4.242.625 5.621.738.59 1.621.877 2.496.877 1.176 0 2.336-.514 3.129-1.502l32-40c1.379-1.725 1.098-4.242-.625-5.621z"/><path d="m188 162c0-5.514-4.484-10-10-10s-10 4.486-10 10 4.484 10 10 10 10-4.486 10-10zm-12 0c0-1.104.898-2 2-2s2 .896 2 2-.898 2-2 2-2-.896-2-2z"/><path d="m206 180c-5.516 0-10 4.486-10 10s4.484 10 10 10 10-4.486 10-10-4.484-10-10-10zm0 12c-1.102 0-2-.896-2-2s.898-2 2-2 2 .896 2 2-.898 2-2 2z"/><path d="m156 168c2.211 0 4-1.791 4-4s-1.789-4-4-4h-12c-2.211 0-4 1.791-4 4v24c0 2.209 1.789 4 4 4s4-1.791 4-4v-8h8c2.211 0 4-1.791 4-4s-1.789-4-4-4h-8v-4z"/><path d="m123.16 160h-9.977c-2.859 0-5.184 2.326-5.184 5.184v12 9.633 1.183c0 2.209 1.789 4 4 4 .21 0 .391-.088.593-.12.203.024.381.12.591.12h9.398c5.191 0 9.418-4.225 9.418-9.416v-1.168c0-1.931-.588-3.726-1.59-5.222.997-1.431 1.59-3.163 1.59-5.035v-2.316c.001-4.876-3.964-8.843-8.839-8.843zm-7.16 8h7.16c.465 0 .84.377.84.842v2.316c0 .465-.375.842-.84.842h-.578-6.582zm8 14.584c0 .781-.637 1.416-1.418 1.416h-6.582v-4h6.582c.781 0 1.418.635 1.418 1.416z"/></g></svg>