<svg id="cart" enable-background="new 0 0 300 300" height="512" viewBox="0 0 300 300" width="512" xmlns="http://www.w3.org/2000/svg"><g><path d="m122.504 107.369 19.998 16c2.209 1.766 4.854 2.648 7.498 2.648s5.289-.883 7.496-2.648l20.002-16c2.861-2.289 4.502-5.707 4.502-9.375 0-2.666-.857-5.191-2.48-7.301-1.885-2.453-4.693-4.018-7.906-4.406-3.404-.414-6.885.566-9.527 2.678l-.087.068v-35.033c0-6.617-5.383-12-12-12s-12 5.383-12 12v35.033l-.164-.131c-4.734-3.789-11.549-3.725-15.844.156-2.641 2.387-4.094 5.773-3.988 9.293.105 3.526 1.744 6.813 4.5 9.018zm4.853-12.375c.666-.604 1.564-.9 2.506-.9 1.025 0 2.1.354 2.977 1.055l6.662 5.33c1.197.959 2.848 1.145 4.23.482 1.387-.666 2.268-2.068 2.268-3.605v-43.356c0-2.205 1.795-4 4-4s4 1.795 4 4v43.355c0 1.537.881 2.939 2.268 3.605 1.383.668 3.029.479 4.23-.482l6.584-5.268c.963-.768 2.307-1.113 3.57-.982.615.076 1.762.348 2.525 1.342.68.883.822 1.807.822 2.424 0 1.225-.547 2.365-1.5 3.129l-20 16s0 0-.002 0c-1.469 1.176-3.525 1.176-4.998 0l-19.998-16c-.92-.736-1.467-1.832-1.502-3.01-.034-1.189.446-2.297 1.358-3.119z"/><path d="m206 92.099c2.264 0 4.099-1.835 4.099-4.099s-1.835-4.099-4.099-4.099-4.099 1.835-4.099 4.099 1.835 4.099 4.099 4.099z"/><path d="m75.354 71.273c.781.781 1.805 1.172 2.828 1.172s2.047-.391 2.828-1.172l3.067-3.068 3.067 3.068c.781.781 1.805 1.172 2.828 1.172s2.047-.391 2.828-1.172c1.562-1.561 1.562-4.094 0-5.656l-3.068-3.068 3.068-3.068c1.562-1.562 1.562-4.096 0-5.656-1.562-1.562-4.094-1.562-5.656 0l-3.067 3.068-3.067-3.068c-1.562-1.562-4.094-1.562-5.656 0-1.562 1.561-1.562 4.094 0 5.656l3.068 3.068-3.068 3.068c-1.563 1.563-1.563 4.096 0 5.656z"/><path d="m230 64c6.617 0 12-5.383 12-12s-5.383-12-12-12-12 5.383-12 12 5.383 12 12 12zm0-16c2.205 0 4 1.795 4 4s-1.795 4-4 4-4-1.795-4-4 1.795-4 4-4z"/><path d="m244.893 148h-40.751l30.928-30.928c1.889-1.889 2.93-4.4 2.93-7.072s-1.041-5.184-2.93-7.07c-3.898-3.898-10.242-3.898-14.141 0l-45.071 45.07h-49.718l-45.07-45.07c-3.777-3.777-10.363-3.775-14.141-.002-1.889 1.889-2.93 4.4-2.93 7.072s1.041 5.184 2.93 7.07l30.93 30.93h-42.752c-5.021 0-9.107 4.086-9.107 9.107v5.785c0 5.021 4.086 9.107 9.107 9.107h11.237l7.204 79.703c.475 4.73 4.418 8.297 9.172 8.297h134.559c4.754 0 8.697-3.566 9.176-8.338l7.2-79.662h11.237c5.021 0 9.107-4.086 9.107-9.107v-5.785c.001-5.021-4.085-9.107-9.106-9.107zm-18.307-39.414c.51-.51 1.105-.586 1.414-.586s.904.076 1.414.588c.51.508.586 1.104.586 1.412s-.076.904-.586 1.414l-78 78c-.51.51-1.105.586-1.414.586s-.904-.076-1.414-.588c-.51-.508-.586-1.104-.586-1.412s.076-.904.586-1.414zm-154 2.826c-.51-.508-.586-1.103-.586-1.412s.076-.904.586-1.414 1.105-.586 1.414-.586.904.076 1.414.586l39.414 39.414h-5.656zm-18.586 51.481v-5.785c0-.611.496-1.107 1.107-1.107h112.751l-8 8h-104.751c-.611-.001-1.107-.497-1.107-1.108zm164.49 88.009c-.062.627-.584 1.098-1.211 1.098h-134.558c-.627 0-1.148-.471-1.207-1.057l-7.136-78.943h77.479l-8.928 8.928c-1.889 1.889-2.93 4.4-2.93 7.072s1.041 5.184 2.93 7.07c1.889 1.889 4.4 2.93 7.07 2.93s5.182-1.041 7.07-2.93l23.072-23.07h45.48zm27.51-88.009c0 .611-.496 1.107-1.107 1.107h-56.751l8-8h48.751c.611 0 1.107.496 1.107 1.107z"/><path d="m150 204c-6.617 0-12 5.383-12 12v16c0 6.617 5.383 12 12 12s12-5.383 12-12v-16c0-6.617-5.383-12-12-12zm4 28c0 2.205-1.795 4-4 4s-4-1.795-4-4v-16c0-2.205 1.795-4 4-4s4 1.795 4 4z"/><path d="m178 196v36c0 6.617 5.383 12 12 12s12-5.383 12-12v-36c0-6.617-5.383-12-12-12s-12 5.383-12 12zm8 0c0-2.205 1.795-4 4-4s4 1.795 4 4v36c0 2.205-1.795 4-4 4s-4-1.795-4-4z"/><path d="m110 184c-6.617 0-12 5.383-12 12v36c0 6.617 5.383 12 12 12s12-5.383 12-12v-36c0-6.617-5.383-12-12-12zm4 48c0 2.205-1.795 4-4 4s-4-1.795-4-4v-36c0-2.205 1.795-4 4-4s4 1.795 4 4z"/></g></svg>