<svg id="discount-user" enable-background="new 0 0 300 300" height="512" viewBox="0 0 300 300" width="512" xmlns="http://www.w3.org/2000/svg"><g><path d="m75.064 213.864c-2.362 0-4.276 1.915-4.276 4.277s1.915 4.276 4.276 4.276 4.276-1.915 4.276-4.276-1.915-4.277-4.276-4.277z"/><path d="m123.22 227.265c-1.562-1.562-4.094-1.562-5.656 0l-2.828 2.828-2.828-2.828c-1.562-1.562-4.094-1.562-5.656 0s-1.562 4.094 0 5.656l2.828 2.828-2.828 2.828c-1.562 1.562-1.562 4.094 0 5.656.781.781 1.805 1.172 2.828 1.172s2.047-.391 2.828-1.172l2.828-2.828 2.828 2.828c.781.781 1.805 1.172 2.828 1.172s2.047-.391 2.828-1.172c1.562-1.562 1.562-4.094 0-5.656l-2.828-2.828 2.828-2.828c1.562-1.563 1.562-4.094 0-5.656z"/><path d="m230.735 207.749c-2.209 0-4 1.791-4 4v44c0 2.209 1.791 4 4 4s4-1.791 4-4v-44c0-2.209-1.791-4-4-4z"/><path d="m241.325 64.929c6.803 0 12.338-5.535 12.338-12.34 0-6.803-5.535-12.338-12.338-12.338s-12.338 5.535-12.338 12.338c0 6.805 5.535 12.34 12.338 12.34zm0-16.678c2.393 0 4.338 1.945 4.338 4.338s-1.945 4.34-4.338 4.34-4.338-1.947-4.338-4.34 1.945-4.338 4.338-4.338z"/><circle cx="256.735" cy="133.749" r="4.53"/><path d="m203.882 142.161c.914-1.211 1.066-2.836.389-4.193-.676-1.359-2.062-2.219-3.58-2.219h-15.91c-1.518 0-2.904.859-3.58 2.219-.678 1.357-.525 2.982.389 4.193 2.686 3.551 6.748 5.588 11.146 5.588s8.46-2.037 11.146-5.588z"/><path d="m176.735 113.219c-2.501 0-4.53 2.028-4.53 4.53 0 2.501 2.028 4.529 4.53 4.529s4.53-2.028 4.53-4.529c0-2.502-2.028-4.53-4.53-4.53z"/><path d="m208.735 122.278c2.501 0 4.53-2.028 4.53-4.529 0-2.502-2.028-4.53-4.53-4.53s-4.53 2.028-4.53 4.53c.001 2.501 2.029 4.529 4.53 4.529z"/><path d="m224.167 167.749h-13.432v-6.421c14.038-5.001 24-17.257 24-31.579v-10c2.209 0 4-1.791 4-4v-24c0-7.443-5.107-13.715-12.002-15.494-.168-9.129-7.646-16.506-16.814-16.506h-42.367c-9.273 0-16.816 7.543-16.816 16.816v19.184c0 2.209 1.791 4 4 4h4v30c0 14.322 9.962 26.578 24 31.579v6.421h-112c-2.209 0-4 1.791-4 4v10.143c0 7.641 6.217 13.857 13.857 13.857h74.143v60c0 2.209 1.791 4 4 4s4-1.791 4-4v-64c0-2.209-1.791-4-4-4h-56v-12h72.101c1.015 11.196 10.443 20 21.899 20s20.884-8.804 21.899-20h5.533c12.443 0 22.568 10.125 22.568 22.568v57.432c0 2.209 1.791 4 4 4s4-1.791 4-4v-57.432c-.001-16.855-13.714-30.568-30.569-30.568zm-65.432-91.184c0-4.861 3.955-8.816 8.816-8.816h42.367c4.861 0 8.816 3.955 8.816 8.816v3.184c0 2.209 1.791 4 4 4 4.412 0 8 3.588 8 8v18.926c-2.389-1.385-4-3.971-4-6.926v-8c0-2.209-1.791-4-4-4h-64v-15.184zm8 53.184v-30h52v4c0 5.895 3.241 10.999 8 13.774v12.226c0 14.336-13.457 26-30 26s-30-11.664-30-26zm-72 58h-14.142c-3.23 0-5.857-2.627-5.857-5.857v-6.143h20v12zm102 0c-7.034 0-12.817-5.233-13.798-12h3.798c2.209 0 4-1.791 4-4v-8.466c1.959.28 3.954.466 6 .466s4.041-.186 6-.466v8.466c0 2.209 1.791 4 4 4h3.798c-.981 6.767-6.764 12-13.798 12z"/><path d="m136.237 150.872c.723.578 1.607.877 2.498.877.59 0 1.182-.131 1.732-.395 1.387-.666 2.268-2.068 2.268-3.605v-72c0-6.617-5.383-12-12-12h-80c-6.617 0-12 5.383-12 12v56c0 6.617 5.383 12 12 12h76.598zm-89.502-19.123v-56c0-2.205 1.795-4 4-4h80c2.205 0 4 1.795 4 4v63.678l-3.502-2.801c-.709-.568-1.59-.877-2.498-.877h-78c-2.205 0-4-1.795-4-4z"/><path d="m109.233 80.626c-1.723-1.375-4.24-1.102-5.621.625l-32 40c-1.381 1.725-1.102 4.242.625 5.621.736.59 1.619.877 2.496.877 1.172 0 2.336-.514 3.125-1.502l32-40c1.381-1.725 1.102-4.242-.625-5.621z"/><path d="m86.735 89.749c0-5.514-4.486-10-10-10s-10 4.486-10 10 4.486 10 10 10 10-4.486 10-10zm-12 0c0-1.104.896-2 2-2s2 .896 2 2-.896 2-2 2-2-.896-2-2z"/><path d="m104.735 107.749c-5.514 0-10 4.486-10 10s4.486 10 10 10 10-4.486 10-10-4.486-10-10-10zm0 12c-1.104 0-2-.896-2-2s.896-2 2-2 2 .896 2 2-.896 2-2 2z"/></g></svg>