<svg id="dress" enable-background="new 0 0 300 300" height="512" viewBox="0 0 300 300" width="512" xmlns="http://www.w3.org/2000/svg"><g><path d="m92.751 137.824c-1.562-1.562-4.094-1.562-5.656 0l-3.067 3.068-3.067-3.068c-1.562-1.562-4.094-1.562-5.656 0-1.562 1.561-1.562 4.094 0 5.656l3.068 3.068-3.068 3.068c-1.562 1.562-1.562 4.096 0 5.656.781.781 1.805 1.172 2.828 1.172s2.047-.391 2.828-1.172l3.067-3.068 3.067 3.068c.781.781 1.805 1.172 2.828 1.172s2.047-.391 2.828-1.172c1.562-1.561 1.562-4.094 0-5.656l-3.068-3.068 3.068-3.068c1.563-1.562 1.563-4.095 0-5.656z"/><path d="m245.95 131.901c-2.264 0-4.099 1.835-4.099 4.099s1.835 4.099 4.099 4.099 4.099-1.835 4.099-4.099-1.835-4.099-4.099-4.099z"/><path d="m61.95 88c-6.617 0-12 5.383-12 12s5.383 12 12 12 12-5.383 12-12-5.382-12-12-12zm0 16c-2.205 0-4-1.795-4-4s1.795-4 4-4 4 1.795 4 4-1.795 4-4 4z"/><path d="m235.519 42.131c-10.434-4.449-24.314-6.699-36.561-8.684-2.9-.471-5.697-.924-8.312-1.387-.229-.04-.463-.06-.696-.06h-44c-.232 0-.467.02-.695.061-2.615.463-5.412.916-8.312 1.387-12.246 1.984-26.127 4.234-36.561 8.684-1 .426-1.781 1.24-2.168 2.254-.389 1.014-.346 2.143.115 3.125l13.121 27.965v6.951c0 10.174 3.852 28.465 10.072 40.277 1.116 2.12 2.634 3.938 4.428 5.393v14.931c-1.109 2.141-2.25 4.289-3.395 6.447-9.219 17.387-18.754 35.363-15.951 54l10.4 61.195c.326 1.924 1.992 3.33 3.943 3.33h64.869c1.92 0 3.57-1.365 3.93-3.252l3.67-19.287 6.451 19.779c.537 1.646 2.072 2.76 3.803 2.76h11.281c1.951 0 3.617-1.406 3.943-3.33l10.412-61.271c2.791-18.561-6.744-36.537-15.963-53.924-1.145-2.158-2.285-4.307-3.395-6.447v-14.931c1.794-1.456 3.312-3.274 4.428-5.393 6.221-11.812 10.072-30.104 10.072-40.277v-6.951l13.121-27.965c.461-.982.504-2.111.115-3.125-.384-1.015-1.165-1.829-2.165-2.255zm-85.569-2.131h36v5.055c0 9.709-7.125 17.994-16.221 18.859-5.164.502-10.086-1.139-13.883-4.59-3.748-3.408-5.896-8.264-5.896-13.324zm71.459 162.135-9.834 57.865h-5.002l-10.375-31.811c-.566-1.738-2.268-2.906-4.057-2.752-1.822.117-3.334 1.451-3.676 3.244l-5.958 31.319h-58.182l-9.822-57.789c-2.396-15.955 6.508-32.748 15.121-48.988.927-1.749 1.835-3.485 2.744-5.223h71.165c.908 1.738 1.816 3.474 2.744 5.223 8.613 16.24 17.517 33.033 15.132 48.912zm-19.459-62.135h-68v-8.294c.996.174 2.007.294 3.043.294h16.054c4.396 2.53 9.477 4 14.903 4s10.507-1.47 14.903-4h16.054c1.035 0 2.047-.121 3.043-.294zm-34-12c-12.131 0-22-9.869-22-22s9.869-22 22-22 22 9.869 22 22-9.869 22-22 22zm48.879-55.117c-.25.531-.379 1.111-.379 1.699v7.844c0 9.26-3.678 26.156-9.15 36.551-1.631 3.098-4.848 5.023-8.393 5.023h-7.014c3.784-5.021 6.057-11.242 6.057-18 0-16.543-13.457-30-30-30s-30 13.457-30 30c0 6.758 2.273 12.979 6.057 18h-7.014c-3.545 0-6.762-1.926-8.393-5.023-5.473-10.395-9.15-27.291-9.15-36.551v-7.844c0-.588-.129-1.168-.379-1.699l-11.674-24.879c9.09-3.137 20.555-4.996 30.826-6.66 1.266-.205 2.505-.407 3.727-.608v5.264c0 7.311 3.104 14.324 8.516 19.242 4.793 4.359 11.074 6.754 17.539 6.754.826 0 1.656-.039 2.484-.117 13.156-1.254 23.461-13.037 23.461-26.824v-4.319c1.221.201 2.46.403 3.727.608 10.271 1.664 21.736 3.523 30.826 6.66z"/><path d="m175.243 93.051-20 20c-1.562 1.562-1.562 4.094 0 5.656.781.781 1.805 1.172 2.828 1.172s2.047-.391 2.828-1.172l20-20c1.562-1.562 1.562-4.094 0-5.656s-4.093-1.563-5.656 0z"/><path d="m160.07 102.409c2.501 0 4.529-2.028 4.529-4.53 0-2.501-2.028-4.529-4.529-4.529s-4.53 2.028-4.53 4.529c.001 2.502 2.029 4.53 4.53 4.53z"/><path d="m176.07 109.35c-2.501 0-4.53 2.028-4.53 4.529 0 2.502 2.028 4.53 4.53 4.53s4.529-2.028 4.529-4.53c.001-2.501-2.027-4.529-4.529-4.529z"/></g></svg>