<svg id="electronics" enable-background="new 0 0 300 300" height="512" viewBox="0 0 300 300" width="512" xmlns="http://www.w3.org/2000/svg"><g><path d="m244.12 120.093c0 2.362 1.915 4.276 4.277 4.276s4.276-1.915 4.276-4.276-1.915-4.276-4.276-4.276-4.277 1.914-4.277 4.276z"/><path d="m235.375 81.047c.781.781 1.805 1.172 2.828 1.172s2.047-.391 2.828-1.172l3.172-3.172 3.172 3.172c.781.781 1.805 1.172 2.828 1.172s2.047-.391 2.828-1.172c1.562-1.562 1.562-4.094 0-5.656l-3.172-3.172 3.172-3.172c1.562-1.562 1.562-4.094 0-5.656s-4.094-1.562-5.656 0l-3.172 3.172-3.172-3.172c-1.562-1.562-4.094-1.562-5.656 0s-1.562 4.094 0 5.656l3.172 3.172-3.172 3.172c-1.563 1.562-1.563 4.093 0 5.656z"/><path d="m88 186c-17.645 0-32 14.355-32 32s14.355 32 32 32 32-14.355 32-32-14.355-32-32-32zm0 56c-13.234 0-24-10.766-24-24s10.766-24 24-24 24 10.766 24 24-10.766 24-24 24z"/><path d="m88 198c-11.027 0-20 8.973-20 20 0 2.209 1.791 4 4 4s4-1.791 4-4c0-6.617 5.383-12 12-12 2.209 0 4-1.791 4-4s-1.791-4-4-4z"/><path d="m64.397 168.369c2.362 0 4.276-1.915 4.276-4.276s-1.915-4.276-4.276-4.276-4.277 1.915-4.277 4.276 1.915 4.276 4.277 4.276z"/><path d="m76.397 168.369c2.362 0 4.276-1.915 4.276-4.276s-1.915-4.276-4.276-4.276-4.277 1.915-4.277 4.276 1.915 4.276 4.277 4.276z"/><path d="m268 254c2.209 0 4-1.791 4-4v-52c0-2.209-1.791-4-4-4h-48v-86.031c0-5.496-4.473-9.969-9.969-9.969h-26.031v-60c0-2.209-1.791-4-4-4h-128c-2.209 0-4 1.791-4 4v64c0 2.209 1.791 4 4 4h92.199c-.128.637-.199 1.295-.199 1.969v148.062c0 .674.071 1.332.199 1.969h-12.199v-104c0-2.209-1.791-4-4-4h-80c-2.209 0-4 1.791-4 4v104h-12c-2.209 0-4 1.791-4 4s1.791 4 4 4h236c2.209 0 4-1.791 4-4s-1.791-4-4-4h-33.116l-1.333-4zm-4-8h-83.543v-44h83.543zm-208-204h120v59.678l-3.502-2.801c-.709-.568-1.59-.877-2.498-.877h-114zm112.598 64 8.904 7.123c.723.578 1.607.877 2.498.877.59 0 1.182-.131 1.732-.395 1.387-.666 2.268-2.068 2.268-3.605v-4h26.031c1.086 0 1.969.883 1.969 1.969v34.031h-60v-34.031c0-1.086.883-1.969 1.969-1.969zm-16.598 150.031v-106.031h60v44h-35.543c-2.209 0-4 1.791-4 4v52c0 2.209 1.791 4 4 4h33.615l-1.111 4h-54.992c-1.086 0-1.969-.883-1.969-1.969zm-28-98.031v12h-72v-12zm-72 100v-80h72v80zm174.45 0h-9.188l1.111-4h6.743z"/><path d="m160 154c-2.209 0-4 1.791-4 4v20c0 2.209 1.791 4 4 4s4-1.791 4-4v-20c0-2.209-1.791-4-4-4z"/><path d="m160 138c2.209 0 4-1.791 4-4v-12c0-2.209-1.791-4-4-4s-4 1.791-4 4v12c0 2.209 1.791 4 4 4z"/><path d="m135.777 78h-8v-20c0-2.209-1.791-4-4-4s-4 1.791-4 4v24c0 2.209 1.791 4 4 4h12c2.209 0 4-1.791 4-4s-1.791-4-4-4z"/><path d="m163.777 82c0-2.209-1.791-4-4-4h-8v-4h8c2.209 0 4-1.791 4-4s-1.791-4-4-4h-8v-4h8c2.209 0 4-1.791 4-4s-1.791-4-4-4h-12c-2.209 0-4 1.791-4 4v24c0 2.209 1.791 4 4 4h12c2.209 0 4-1.791 4-4z"/><path d="m107.777 54h-8c-1.955 0-3.625 1.414-3.945 3.342l-4 24c-.363 2.18 1.109 4.24 3.287 4.604 2.197.361 4.24-1.109 4.604-3.287l.776-4.659h6.557l.776 4.658c.326 1.955 2.02 3.342 3.941 3.342.217 0 .439-.018.662-.055 2.178-.363 3.65-2.424 3.287-4.604l-4-24c-.32-1.927-1.99-3.341-3.945-3.341zm-5.944 16 1.333-8h1.223l1.333 8z"/><path d="m83.777 62c2.209 0 4-1.791 4-4s-1.791-4-4-4h-12c-2.209 0-4 1.791-4 4v12c0 2.209 1.791 4 4 4h8v4h-8c-2.209 0-4 1.791-4 4s1.791 4 4 4h12c2.209 0 4-1.791 4-4v-12c0-2.209-1.791-4-4-4h-8v-4z"/></g></svg>