<svg id="gadgets" enable-background="new 0 0 300 300" height="512" viewBox="0 0 300 300" width="512" xmlns="http://www.w3.org/2000/svg"><g><path d="m232 142c-6.617 0-12 5.383-12 12s5.383 12 12 12 12-5.383 12-12-5.383-12-12-12zm0 16c-2.207 0-4-1.795-4-4s1.793-4 4-4 4 1.795 4 4-1.793 4-4 4z"/><path d="m102 64.529c2.501 0 4.529-2.028 4.529-4.529s-2.028-4.53-4.529-4.53c-2.502 0-4.529 2.028-4.529 4.53s2.027 4.529 4.529 4.529z"/><path d="m55.516 86.484c.781.781 1.805 1.172 2.828 1.172s2.047-.391 2.828-1.172l2.828-2.828 2.828 2.828c.781.781 1.805 1.172 2.828 1.172s2.047-.391 2.828-1.172c1.562-1.562 1.562-4.094 0-5.656l-2.828-2.828 2.828-2.828c1.562-1.562 1.562-4.094 0-5.656s-4.094-1.562-5.656 0l-2.828 2.828-2.828-2.828c-1.562-1.562-4.094-1.562-5.656 0s-1.562 4.094 0 5.656l2.828 2.828-2.828 2.828c-1.563 1.563-1.563 4.094 0 5.656z"/><path d="m150.34 231.66c0 14.15 11.512 25.662 25.66 25.662s25.66-11.512 25.66-25.662c0-14.148-11.512-25.66-25.66-25.66s-25.66 11.512-25.66 25.66zm25.66-17.66c9.738 0 17.66 7.922 17.66 17.66s-7.922 17.662-17.66 17.662-17.66-7.924-17.66-17.662 7.922-17.66 17.66-17.66z"/><path d="m176 226c3.121 0 5.66 2.539 5.66 5.66 0 2.209 1.789 4 4 4s4-1.791 4-4c0-7.533-6.129-13.66-13.66-13.66-2.211 0-4 1.791-4 4s1.789 4 4 4z"/><path d="m88 150h-24c-2.211 0-4 1.791-4 4s1.789 4 4 4h24c2.211 0 4-1.791 4-4s-1.789-4-4-4z"/><circle cx="76" cy="250" r="4"/><path d="m144 210h-8c-2.211 0-4 1.791-4 4s1.789 4 4 4h8c2.211 0 4-1.791 4-4s-1.789-4-4-4z"/><path d="m156 98h-12c-2.211 0-4 1.791-4 4s1.789 4 4 4h12c2.211 0 4-1.791 4-4s-1.789-4-4-4z"/><path d="m132 98h-4c-2.211 0-4 1.791-4 4s1.789 4 4 4h4c2.211 0 4-1.791 4-4s-1.789-4-4-4z"/><path d="m184 142c0 2.209 1.789 4 4 4s4-1.791 4-4v-16c0-2.209-1.789-4-4-4s-4 1.791-4 4z"/><path d="m100 182v-12c0-2.209-1.789-4-4-4s-4 1.791-4 4v12c0 2.209 1.789 4 4 4s4-1.791 4-4z"/><path d="m216 34c-24.262 0-44 19.738-44 44 0 2.735.284 5.402.765 8h-76.398c-6.82 0-12.367 5.547-12.367 12.365v39.635h-30.141c-7.64 0-13.859 6.217-13.859 13.859v100.281c0 7.643 6.219 13.86 13.859 13.86h174.141c2.211 0 4-1.791 4-4v-60c0-2.209-1.789-4-4-4h-24v-77.706c3.82 1.086 7.836 1.706 12 1.706 24.262 0 44-19.738 44-44s-19.738-44-44-44zm-162.141 224c-3.23 0-5.859-2.629-5.859-5.859v-100.282c0-3.23 2.629-5.859 5.859-5.859h44.281c3.23 0 5.859 2.629 5.859 5.859v100.281c0 3.23-2.629 5.859-5.859 5.859h-44.281zm170.141 0h-96v-52h48 48zm-66.001-60 2.052-8h31.898l2.052 8zm38.001-15.841c-.309-.076-.616-.159-.945-.159h-38.109c-1.828 0-3.422 1.238-3.875 3.006l-3.332 12.994h-25.739c-2.211 0-4 1.791-4 4v56h-9.347c.841-1.786 1.347-3.758 1.347-5.859v-100.282c0-7.643-6.219-13.859-13.859-13.859h-6.141v-39.635c0-2.406 1.961-4.365 4.367-4.365h78.688c3.934 10.03 11.431 18.261 20.944 23.143v65.016zm20-68.159c-19.852 0-36-16.15-36-36s16.148-36 36-36 36 16.15 36 36-16.148 36-36 36z"/><path d="m234.5 54.877c-1.73-1.379-4.242-1.096-5.625.625l-32 40c-1.379 1.725-1.098 4.242.625 5.621.738.59 1.621.877 2.496.877 1.176 0 2.336-.514 3.129-1.502l32-40c1.379-1.725 1.098-4.242-.625-5.621z"/><path d="m212 64c0-5.514-4.484-10-10-10s-10 4.486-10 10 4.484 10 10 10 10-4.486 10-10zm-12 0c0-1.104.898-2 2-2s2 .896 2 2-.898 2-2 2-2-.896-2-2z"/><path d="m230 82c-5.516 0-10 4.486-10 10s4.484 10 10 10 10-4.486 10-10-4.484-10-10-10zm0 12c-1.102 0-2-.896-2-2s.898-2 2-2 2 .896 2 2-.898 2-2 2z"/></g></svg>