<svg id="panel" enable-background="new 0 0 300 300" height="512" viewBox="0 0 300 300" width="512" xmlns="http://www.w3.org/2000/svg"><g><path d="m250 115.092h-58.202l-27.943-31.436c-.73-7.037-6.627-12.564-13.855-12.564s-13.124 5.527-13.855 12.565l-27.943 31.435h-58.202c-2.209 0-4 1.791-4 4v136c0 2.209 1.791 4 4 4h200c2.209 0 4-1.791 4-4v-136c0-2.209-1.791-4-4-4zm-13.656 12h-172.688l-4-4h180.688zm-2.344 8v104h-168v-104zm-176-2.344v108.688l-4 4v-116.688zm5.656 114.344h172.688l4 4h-180.688zm178.344-5.656v-108.688l4-4v116.688zm-92-162.344c3.309 0 6 2.691 6 6s-2.691 6-6 6-6-2.691-6-6 2.691-6 6-6zm-11.496 13.955c2.53 3.645 6.733 6.045 11.496 6.045s8.965-2.401 11.496-6.045l19.596 22.045h-62.183z"/><path d="m78 83.092c6.617 0 12-5.383 12-12s-5.383-12-12-12-12 5.383-12 12 5.383 12 12 12zm0-16c2.205 0 4 1.795 4 4s-1.795 4-4 4-4-1.795-4-4 1.795-4 4-4z"/><path d="m202.397 101.461c2.362 0 4.276-1.915 4.276-4.276s-1.915-4.276-4.276-4.276-4.277 1.915-4.277 4.276 1.915 4.276 4.277 4.276z"/><path d="m118.397 49.461c2.362 0 4.276-1.915 4.276-4.276s-1.915-4.276-4.276-4.276-4.277 1.915-4.277 4.276 1.915 4.276 4.277 4.276z"/><path d="m213.375 74.139c.781.781 1.805 1.172 2.828 1.172s2.047-.391 2.828-1.172l3.172-3.172 3.172 3.172c.781.781 1.805 1.172 2.828 1.172s2.047-.391 2.828-1.172c1.562-1.562 1.562-4.094 0-5.656l-3.172-3.172 3.172-3.172c1.562-1.562 1.562-4.094 0-5.656s-4.094-1.562-5.656 0l-3.172 3.172-3.172-3.172c-1.562-1.562-4.094-1.562-5.656 0s-1.562 4.094 0 5.656l3.172 3.172-3.172 3.172c-1.563 1.562-1.563 4.093 0 5.656z"/><path d="m118 183.092h12c2.209 0 4-1.791 4-4s-1.791-4-4-4h-8v-20c0-2.209-1.791-4-4-4s-4 1.791-4 4v24c0 2.209 1.791 4 4 4z"/><path d="m178.055 194.434-4 24c-.363 2.18 1.109 4.24 3.287 4.604 2.203.379 4.24-1.111 4.604-3.287l.776-4.658h6.557l.776 4.658c.326 1.955 2.02 3.342 3.941 3.342.217 0 .439-.018.662-.055 2.178-.363 3.65-2.424 3.287-4.604l-4-24c-.32-1.928-1.99-3.342-3.945-3.342h-8c-1.955 0-3.625 1.414-3.945 3.342zm8.556 4.658 1.333 8h-3.89l1.333-8z"/><path d="m141.342 183.037c2.207.379 4.24-1.111 4.604-3.287l.776-4.658h6.557l.776 4.658c.326 1.955 2.02 3.342 3.941 3.342.217 0 .439-.018.662-.055 2.178-.363 3.65-2.424 3.287-4.604l-4-24c-.32-1.928-1.99-3.342-3.945-3.342h-8c-1.955 0-3.625 1.414-3.945 3.342l-4 24c-.364 2.18 1.109 4.241 3.287 4.604zm9.269-23.945 1.333 8h-3.89l1.333-8z"/><path d="m134 219.092c0 2.209 1.791 4 4 4s4-1.791 4-4v-24c0-2.209-1.791-4-4-4s-4 1.791-4 4z"/><path d="m170 183.092h12c2.209 0 4-1.791 4-4s-1.791-4-4-4h-8v-16h8c2.209 0 4-1.791 4-4s-1.791-4-4-4h-12c-2.209 0-4 1.791-4 4v24c0 2.209 1.791 4 4 4z"/><path d="m86 223.092c2.209 0 4-1.791 4-4v-8h8c2.209 0 4-1.791 4-4s-1.791-4-4-4h-8v-4h8c2.209 0 4-1.791 4-4s-1.791-4-4-4h-12c-2.209 0-4 1.791-4 4v24c0 2.209 1.791 4 4 4z"/><path d="m159.318 191.092h-9.318c-2.209 0-4 1.791-4 4v24c0 2.209 1.791 4 4 4h9.318c5.891 0 10.682-4.791 10.682-10.682v-10.637c0-5.89-4.791-10.681-10.682-10.681zm2.682 21.318c0 1.479-1.203 2.682-2.682 2.682h-5.318v-16h5.318c1.479 0 2.682 1.203 2.682 2.682z"/><path d="m120.576 191.092h-10.576c-2.209 0-4 1.791-4 4v24c0 2.209 1.791 4 4 4s4-1.791 4-4v-6.344l9.172 9.172c.781.781 1.805 1.172 2.828 1.172s2.047-.391 2.828-1.172c1.562-1.562 1.562-4.094 0-5.656l-5.562-5.562c3.891-1.16 6.734-4.771 6.734-9.033v-1.152c0-5.199-4.227-9.425-9.424-9.425zm1.424 10.576c0 .785-.639 1.424-1.424 1.424h-6.576v-4h6.576c.785 0 1.424.639 1.424 1.424z"/><path d="m90 183.092c.21 0 .391-.088.593-.12.203.024.382.12.591.12h9.4c5.191 0 9.416-4.225 9.416-9.416v-1.168c0-1.932-.588-3.727-1.59-5.223.997-1.431 1.59-3.162 1.59-5.034v-2.316c0-4.875-3.967-8.842-8.842-8.842h-9.975c-2.857 0-5.184 2.326-5.184 5.184v12 9.633 1.184c.001 2.207 1.792 3.998 4.001 3.998zm12-9.416c0 .781-.635 1.416-1.416 1.416h-6.584v-4h6.584c.781 0 1.416.635 1.416 1.416zm-8-14.584h7.158c.465 0 .842.377.842.842v2.316c0 .465-.377.842-.842.842h-.574-6.584z"/><path d="m194 183.092c2.209 0 4-1.791 4-4v-3.825l9.639 7.054c.711.521 1.539.771 2.357.771 1.232 0 2.449-.566 3.232-1.639 1.305-1.781.916-4.285-.867-5.59l-11.693-8.559 11.77-9.041c1.752-1.346 2.08-3.857.734-5.609-1.344-1.752-3.859-2.078-5.609-.734l-9.563 7.346v-4.174c0-2.209-1.791-4-4-4s-4 1.791-4 4v24c0 2.209 1.791 4 4 4z"/><path d="m205.328 192.873c-1.227-1.836-3.709-2.338-5.547-1.109-1.838 1.225-2.334 3.709-1.109 5.547l7.328 10.992v10.789c0 2.209 1.791 4 4 4s4-1.791 4-4v-10.789l7.328-10.992c1.225-1.838.729-4.322-1.109-5.547-1.842-1.229-4.32-.727-5.547 1.109l-4.672 7.008z"/></g></svg>