<svg id="price-down" enable-background="new 0 0 300 300" height="512" viewBox="0 0 300 300" width="512" xmlns="http://www.w3.org/2000/svg"><g><path d="m227.172 184c-5.127 0-9.525 3.248-11.236 7.793l-20.764-20.762v-19.031c0-6.617-5.383-12-12-12h-104c-6.617 0-12 5.383-12 12s5.383 12 12 12h92v12c0 3.205 1.248 6.219 3.516 8.484l24.145 24.145c-4.441 1.736-7.619 6.053-7.66 11.09-.053 6.615 5.289 12.041 11.906 12.094l23.96.187c.066 0 .137-.002.209-.006 3.182-.02 6.162-1.262 8.408-3.51 2.365-2.365 3.516-5.586 3.516-9.844v-22.576c.018-3.205-1.215-6.225-3.469-8.504-2.256-2.279-5.262-3.542-8.531-3.56zm4 34.641c0 2.029-.383 3.398-1.172 4.188-.754.752-1.758 1.166-2.861 1.166-.076-.006-.15 0-.229.006l-23.77-.188c-1.068-.008-2.07-.432-2.82-1.193-.748-.762-1.156-1.77-1.148-2.838.018-2.188 1.812-3.969 4.031-3.969l4.473.035c1.564-.098 3.092-.959 3.721-2.455.627-1.498.287-3.225-.861-4.373l-30.191-30.191c-.744-.746-1.172-1.775-1.172-2.828v-16c0-2.209-1.791-4-4-4h-96c-2.205 0-4-1.795-4-4s1.795-4 4-4h104c2.205 0 4 1.795 4 4v20.688c0 1.061.422 2.078 1.172 2.828l27.973 27.973c1.141 1.141 2.859 1.49 4.348.871 1.492-.613 2.471-2.062 2.48-3.676l.027-4.705c.012-2.193 1.807-3.979 4.021-3.979 1.068.006 2.07.428 2.822 1.188s1.162 1.766 1.156 2.855z"/><path d="m235.172 240h-180v-180c0-2.209-1.791-4-4-4s-4 1.791-4 4v184c0 2.209 1.791 4 4 4h184c2.209 0 4-1.791 4-4s-1.791-4-4-4z"/><path d="m131.172 232c2.209 0 4-1.791 4-4s-1.791-4-4-4h-12c-2.209 0-4 1.791-4 4s1.791 4 4 4z"/><path d="m107.172 232c2.209 0 4-1.791 4-4s-1.791-4-4-4h-12c-2.209 0-4 1.791-4 4s1.791 4 4 4z"/><path d="m83.172 232c2.209 0 4-1.791 4-4s-1.791-4-4-4h-12c-2.209 0-4 1.791-4 4s1.791 4 4 4z"/><path d="m155.172 232c2.209 0 4-1.791 4-4s-1.791-4-4-4h-12c-2.209 0-4 1.791-4 4s1.791 4 4 4z"/><path d="m179.172 232c2.209 0 4-1.791 4-4s-1.791-4-4-4h-12c-2.209 0-4 1.791-4 4s1.791 4 4 4z"/><path d="m107.172 132c22.057 0 40-17.943 40-40s-17.943-40-40-40-40 17.943-40 40 17.943 40 40 40zm0-72c17.645 0 32 14.355 32 32s-14.355 32-32 32-32-14.355-32-32 14.355-32 32-32z"/><path d="m95.172 100c-2.209 0-4 1.791-4 4s1.791 4 4 4h8v4c0 2.209 1.791 4 4 4s4-1.791 4-4v-4h8c2.209 0 4-1.791 4-4v-12c0-2.209-1.791-4-4-4h-8v-4h8c2.209 0 4-1.791 4-4s-1.791-4-4-4h-8v-4c0-2.209-1.791-4-4-4s-4 1.791-4 4v4h-8c-2.209 0-4 1.791-4 4v12c0 2.209 1.791 4 4 4h8v4zm4-12v-4h4v4zm12 8h4v4h-4z"/><circle cx="227.5" cy="142.391" r="4.276"/><path d="m248.828 92 2.828-2.828c1.562-1.562 1.562-4.094 0-5.656s-4.094-1.562-5.656 0l-2.828 2.828-2.828-2.828c-1.562-1.562-4.094-1.562-5.656 0s-1.562 4.094 0 5.656l2.828 2.828-2.828 2.828c-1.562 1.562-1.562 4.094 0 5.656.781.781 1.805 1.172 2.828 1.172s2.047-.391 2.828-1.172l2.828-2.828 2.828 2.828c.781.781 1.805 1.172 2.828 1.172s2.047-.391 2.828-1.172c1.562-1.562 1.562-4.094 0-5.656z"/><path d="m193.762 81.18c6.803 0 12.338-5.535 12.338-12.34 0-6.803-5.535-12.338-12.338-12.338s-12.338 5.535-12.338 12.338c0 6.805 5.535 12.34 12.338 12.34zm0-16.678c2.393 0 4.338 1.945 4.338 4.338s-1.945 4.34-4.338 4.34-4.338-1.947-4.338-4.34 1.945-4.338 4.338-4.338z"/></g></svg>