<svg id="tags" enable-background="new 0 0 300 300" height="512" viewBox="0 0 300 300" width="512" xmlns="http://www.w3.org/2000/svg"><g><path d="m269.418 158.939-28-46.074c-.725-1.193-2.021-1.922-3.418-1.922h-172c-2.209 0-4 1.791-4 4v16h-12c-2.209 0-4 1.791-4 4v16h-12c-2.209 0-4 1.791-4 4v32c0 2.209 1.791 4 4 4 4.412 0 8 3.588 8 8s-3.588 8-8 8c-2.209 0-4 1.791-4 4v32c0 2.209 1.791 4 4 4h188c1.336 0 2.584-.668 3.326-1.779l28-41.926c.863-1.293.9-2.969.092-4.299l-1.229-2.021 9.137-13.68c.863-1.293.9-2.969.092-4.299l-1.229-2.021 9.137-13.68c.863-1.294.901-2.969.092-4.299zm-49.557 80.004h-181.861v-24.506c6.893-1.781 12-8.053 12-15.494s-5.107-13.713-12-15.494v-24.506h181.75l25.508 41.973zm27.746-49.567-22.189-36.512c-.725-1.193-2.021-1.922-3.418-1.922h-168v-12h173.75l25.508 41.973zm8-20-22.189-36.512c-.725-1.193-2.021-1.922-3.418-1.922h-160v-12h165.75l25.508 41.973z"/><path d="m210 200.943c0 5.514 4.486 10 10 10s10-4.486 10-10-4.486-10-10-10-10 4.486-10 10zm10-2c1.104 0 2 .896 2 2s-.896 2-2 2-2-.896-2-2 .896-2 2-2z"/><path d="m124.498 175.819c-1.719-1.379-4.242-1.102-5.621.625l-32 40c-1.381 1.725-1.102 4.242.625 5.621.736.59 1.619.877 2.496.877 1.172 0 2.336-.514 3.125-1.502l32-40c1.381-1.724 1.102-4.242-.625-5.621z"/><path d="m102 184.943c0-5.514-4.486-10-10-10s-10 4.486-10 10 4.486 10 10 10 10-4.487 10-10zm-12 0c0-1.104.896-2 2-2s2 .896 2 2-.896 2-2 2-2-.897-2-2z"/><path d="m120 202.943c-5.514 0-10 4.486-10 10s4.486 10 10 10 10-4.486 10-10-4.486-10-10-10zm0 12c-1.104 0-2-.896-2-2s.896-2 2-2 2 .896 2 2-.896 2-2 2z"/><path d="m170 162.943c-2.209 0-4 1.791-4 4v8c0 2.209 1.791 4 4 4s4-1.791 4-4v-8c0-2.209-1.791-4-4-4z"/><path d="m170 222.943c-2.209 0-4 1.791-4 4v4c0 2.209 1.791 4 4 4s4-1.791 4-4v-4c0-2.209-1.791-4-4-4z"/><path d="m170 182.943c-2.209 0-4 1.791-4 4v8c0 2.209 1.791 4 4 4s4-1.791 4-4v-8c0-2.209-1.791-4-4-4z"/><path d="m170 202.943c-2.209 0-4 1.791-4 4v8c0 2.209 1.791 4 4 4s4-1.791 4-4v-8c0-2.209-1.791-4-4-4z"/><circle cx="166.328" cy="57.334" r="4.276"/><path d="m197.516 83.427c.781.781 1.805 1.172 2.828 1.172s2.047-.391 2.828-1.172l2.828-2.828 2.828 2.828c.781.781 1.805 1.172 2.828 1.172s2.047-.391 2.828-1.172c1.562-1.562 1.562-4.094 0-5.656l-2.828-2.828 2.828-2.828c1.562-1.562 1.562-4.094 0-5.656s-4.094-1.562-5.656 0l-2.828 2.827-2.828-2.828c-1.562-1.562-4.094-1.562-5.656 0s-1.562 4.094 0 5.656l2.828 2.828-2.828 2.828c-1.563 1.563-1.563 4.094 0 5.657z"/><path d="m100.59 84.122c6.803 0 12.338-5.535 12.338-12.34 0-6.803-5.535-12.338-12.338-12.338s-12.338 5.536-12.338 12.338c0 6.805 5.535 12.34 12.338 12.34zm0-16.678c2.393 0 4.338 1.945 4.338 4.338s-1.945 4.34-4.338 4.34-4.338-1.947-4.338-4.34 1.945-4.338 4.338-4.338z"/></g></svg>