<svg id="web" enable-background="new 0 0 300 300" height="512" viewBox="0 0 300 300" width="512" xmlns="http://www.w3.org/2000/svg"><g><path d="m230 138c6.617 0 12-5.383 12-12s-5.383-12-12-12-12 5.383-12 12 5.383 12 12 12zm0-16c2.207 0 4 1.795 4 4s-1.793 4-4 4-4-1.795-4-4 1.793-4 4-4z"/><path d="m242.397 84.369c2.362 0 4.276-1.915 4.276-4.276 0-2.362-1.915-4.277-4.276-4.277s-4.277 1.915-4.277 4.277 1.915 4.276 4.277 4.276z"/><path d="m45.375 133.047c.781.781 1.805 1.172 2.828 1.172s2.047-.391 2.828-1.172l3.172-3.172 3.172 3.172c.781.781 1.805 1.172 2.828 1.172s2.047-.391 2.828-1.172c1.562-1.562 1.562-4.094 0-5.656l-3.172-3.172 3.172-3.172c1.562-1.562 1.562-4.094 0-5.656s-4.094-1.562-5.656 0l-3.172 3.172-3.172-3.172c-1.562-1.562-4.094-1.562-5.656 0s-1.562 4.094 0 5.656l3.172 3.172-3.172 3.172c-1.563 1.562-1.563 4.093 0 5.656z"/><path d="m258 174h-44.406c-7.297-19.307-23.106-34.205-42.399-40.578 18.419-8.142 30.805-26.382 30.805-47.422 0-28.674-23.328-52-52-52s-52 23.326-52 52c0 21.046 12.393 39.29 30.821 47.429-19.288 6.381-35.134 21.313-42.418 40.571h-44.403c-2.211 0-4 1.791-4 4v40c0 2.209 1.789 4 4 4h44.41c9.956 26.385 35.232 44 63.59 44 28.391 0 53.63-17.603 63.589-44h44.411c2.211 0 4-1.791 4-4v-40c0-2.209-1.789-4-4-4zm-53.015 0h-22.405c-.922-3.742-2.049-7.509-3.379-11.295 4.727-1.636 9.415-3.73 14.07-6.194 4.854 5.048 8.849 10.947 11.714 17.489zm-63.397-34.249 4.417 7.365.057 12.378c-4.478-.277-8.989-.97-13.532-2.031 2.505-5.867 5.546-11.78 9.058-17.712zm-16.814 15.556c-3.833-1.258-7.692-2.777-11.584-4.583 5.535-4.315 11.81-7.668 18.556-9.843-2.633 4.823-4.968 9.635-6.972 14.426zm29.231-8.208 4.979-8.3c3.76 6.259 7.001 12.5 9.643 18.689-4.829 1.16-9.681 1.85-14.564 2.062zm15.626-5.793c6.286 2.19 12.125 5.432 17.317 9.498-3.523 1.741-7.053 3.232-10.594 4.459-1.94-4.635-4.193-9.292-6.723-13.957zm-23.533 26.099.03 6.595h-19.325c.798-3.003 1.752-6.028 2.832-9.067 5.518 1.339 11.007 2.173 16.463 2.472zm8.031 6.595-.03-6.549c5.848-.228 11.656-1.058 17.415-2.497 1.077 3.032 2.031 6.05 2.828 9.046zm-48.129-88c0-24.262 19.738-44 44-44s44 19.738 44 44c0 21.723-15.574 39.971-37.035 43.393-1.168.186-2.191.877-2.801 1.891l-4.164 6.941-4.164-6.941c-.609-1.014-1.633-1.705-2.801-1.891-21.461-3.422-37.035-21.67-37.035-43.393zm.79 70.48c5.062 2.508 10.108 4.632 15.131 6.285-1.321 3.766-2.441 7.513-3.358 11.235h-23.541c2.871-6.548 6.888-12.459 11.768-17.52zm-11.801 65.52h22.928c.788 3.467 1.758 6.929 2.922 10.381-4.95 1.688-9.92 3.784-14.907 6.301-4.484-4.848-8.224-10.445-10.943-16.682zm64.081 35.3c-1.624.247-3.268.422-4.925.536v-22.63c5.247.233 10.458 1.011 15.641 2.338-2.828 6.642-6.412 13.24-10.716 19.756zm18.395-17.404c3.503 1.269 6.996 2.796 10.483 4.569-5.264 4.295-11.248 7.669-17.698 9.981 2.777-4.813 5.177-9.667 7.215-14.55zm-46.103-2.338c4.968-1.233 9.895-2.021 14.782-2.319v22.608c-1.336-.086-2.657-.228-3.972-.4-4.345-6.56-7.961-13.202-10.81-19.889zm-.154 17.417c-6.965-2.297-13.409-5.854-19.047-10.433 3.859-1.835 7.688-3.413 11.488-4.711 2.119 5.083 4.638 10.136 7.559 15.144zm22.937-27.673v-5.302h20.877c-.667 2.694-1.467 5.385-2.381 8.073-6.114-1.612-12.282-2.525-18.496-2.771zm-8 .032c-5.846.317-11.729 1.222-17.645 2.734-.913-2.687-1.715-5.376-2.381-8.068h20.026zm47.943 11.336c-4.568-2.468-9.17-4.554-13.808-6.223 1.173-3.474 2.151-6.957 2.945-10.447h21.776c-2.715 6.231-6.44 11.826-10.913 16.67zm59.912-24.67h-208v-32h208z"/><path d="m58.121 206.971c.383 1.535 1.637 2.701 3.195 2.971 1.586.271 3.133-.404 4.012-1.723l4.672-7.008 4.672 7.008c.75 1.125 2.004 1.781 3.328 1.781.227 0 .453-.02.684-.059 1.559-.27 2.812-1.436 3.195-2.971l4-16c.539-2.145-.766-4.316-2.91-4.852-2.148-.555-4.312.768-4.848 2.91l-1.809 7.229-2.984-4.477c-1.484-2.227-5.172-2.227-6.656 0l-2.984 4.477-1.809-7.229c-.535-2.143-2.715-3.461-4.848-2.91-2.145.535-3.449 2.707-2.91 4.852z"/><path d="m94.121 206.971c.383 1.535 1.637 2.701 3.195 2.971 1.574.271 3.133-.404 4.012-1.723l4.672-7.008 4.672 7.008c.75 1.125 2.004 1.781 3.328 1.781.227 0 .453-.02.684-.059 1.559-.27 2.812-1.436 3.195-2.971l4-16c.539-2.145-.766-4.316-2.91-4.852-2.145-.555-4.312.768-4.848 2.91l-1.809 7.229-2.984-4.477c-1.484-2.227-5.172-2.227-6.656 0l-2.984 4.477-1.809-7.229c-.535-2.143-2.711-3.461-4.848-2.91-2.145.535-3.449 2.707-2.91 4.852z"/><path d="m130.121 206.971c.383 1.535 1.637 2.701 3.195 2.971 1.578.271 3.133-.404 4.012-1.723l4.672-7.008 4.672 7.008c.75 1.125 2.004 1.781 3.328 1.781.227 0 .453-.02.684-.059 1.559-.27 2.812-1.436 3.195-2.971l4-16c.539-2.145-.766-4.316-2.91-4.852-2.141-.555-4.316.768-4.848 2.91l-1.809 7.229-2.984-4.477c-1.484-2.227-5.172-2.227-6.656 0l-2.984 4.477-1.809-7.229c-.535-2.143-2.711-3.461-4.848-2.91-2.145.535-3.449 2.707-2.91 4.852z"/><path d="m168.5 62.877c-1.727-1.379-4.238-1.098-5.625.625l-32 40c-1.379 1.725-1.098 4.242.625 5.621.738.59 1.621.877 2.496.877 1.176 0 2.336-.514 3.129-1.502l32-40c1.379-1.725 1.098-4.242-.625-5.621z"/><path d="m146 72c0-5.514-4.484-10-10-10s-10 4.486-10 10 4.484 10 10 10 10-4.486 10-10zm-12 0c0-1.104.898-2 2-2s2 .896 2 2-.898 2-2 2-2-.896-2-2z"/><path d="m154 100c0 5.514 4.484 10 10 10s10-4.486 10-10-4.484-10-10-10-10 4.486-10 10zm12 0c0 1.104-.898 2-2 2s-2-.896-2-2 .898-2 2-2 2 .896 2 2z"/><path d="m166 210h64c2.211 0 4-1.791 4-4s-1.789-4-4-4h-64c-2.211 0-4 1.791-4 4s1.789 4 4 4z"/></g></svg>