<?xml version="1.0" encoding="UTF-8"?><svg id="Layer_2" xmlns="http://www.w3.org/2000/svg" viewBox="0 0 381.5 376"><defs><style>.cls-1{fill:#75f3ff;opacity:.05;}.cls-2,.cls-3{fill:#fff;}.cls-3{opacity:.5;}</style></defs><g id="_"><g id="Grid"><path id="Frame" class="cls-1" d="M7,369V7H374.5V369H7Zm22.5-22H352V29H29.5V347Z"/><path id="Grid-2" class="cls-3" d="M.88,.88V375.12H380.62V.88H.88Zm310.75,.25h34.25V34.88h-34.25V1.12Zm34.25,67.75h-34.25V35.12h34.25v33.75Zm0,34h-34.25v-33.75h34.25v33.75Zm0,34h-34.25v-33.75h34.25v33.75Zm0,34h-34.25v-33.75h34.25v33.75Zm0,34h-34.25v-33.75h34.25v33.75Zm0,34h-34.25v-33.75h34.25v33.75Zm0,34h-34.25v-33.75h34.25v33.75Zm0,34h-34.25v-33.75h34.25v33.75Zm0,34h-34.25v-33.75h34.25v33.75ZM35.62,307.12h34.25v33.75H35.62v-33.75Zm0-34h34.25v33.75H35.62v-33.75Zm0-34h34.25v33.75H35.62v-33.75Zm0-34h34.25v33.75H35.62v-33.75Zm0-34h34.25v33.75H35.62v-33.75Zm0-34h34.25v33.75H35.62v-33.75Zm0-34h34.25v33.75H35.62v-33.75Zm0-34h34.25v33.75H35.62v-33.75Zm0-34h34.25v33.75H35.62V35.12Zm275.75,33.75h-34.25V35.12h34.25v33.75Zm0,34h-34.25v-33.75h34.25v33.75Zm0,34h-34.25v-33.75h34.25v33.75Zm0,34h-34.25v-33.75h34.25v33.75Zm0,34h-34.25v-33.75h34.25v33.75Zm0,34h-34.25v-33.75h34.25v33.75Zm0,34h-34.25v-33.75h34.25v33.75Zm0,34h-34.25v-33.75h34.25v33.75Zm-241.25-33.75h34.25v33.75h-34.25v-33.75Zm0-34h34.25v33.75h-34.25v-33.75Zm0-34h34.25v33.75h-34.25v-33.75Zm0-34h34.25v33.75h-34.25v-33.75Zm0-34h34.25v33.75h-34.25v-33.75Zm0-34h34.25v33.75h-34.25v-33.75Zm0-34h34.25v33.75h-34.25v-33.75Zm206.75,33.75h-34.25v-33.75h34.25v33.75Zm0,34h-34.25v-33.75h34.25v33.75Zm0,34h-34.25v-33.75h34.25v33.75Zm0,34h-34.25v-33.75h34.25v33.75Zm0,34h-34.25v-33.75h34.25v33.75Zm0,34h-34.25v-33.75h34.25v33.75Zm-172.25-33.75h34.25v33.75h-34.25v-33.75Zm0-34h34.25v33.75h-34.25v-33.75Zm0-34h34.25v33.75h-34.25v-33.75Zm0-34h34.25v33.75h-34.25v-33.75Zm0-34h34.25v33.75h-34.25v-33.75Zm137.75,33.75h-34.25v-33.75h34.25v33.75Zm0,34h-34.25v-33.75h34.25v33.75Zm0,34h-34.25v-33.75h34.25v33.75Zm0,34h-34.25v-33.75h34.25v33.75Zm-103.25-33.75h34.25v33.75h-34.25v-33.75Zm0-34h34.25v33.75h-34.25v-33.75Zm0-34h34.25v33.75h-34.25v-33.75Zm68.75,33.75h-34.25v-33.75h34.25v33.75Zm0,34h-34.25v-33.75h34.25v33.75Zm-34.25,.25h34.25v33.75h-34.25v-33.75Zm34.25-68.25h-34.25v-33.75h34.25v33.75Zm-34.5,0h-34.25v-33.75h34.25v33.75Zm-34.25,102.25h34.25v33.75h-34.25v-33.75Zm34.5,0h34.25v33.75h-34.25v-33.75Zm34.5,0h34.25v33.75h-34.25v-33.75Zm34.25-136.25h-34.25v-33.75h34.25v33.75Zm-34.5,0h-34.25v-33.75h34.25v33.75Zm-34.5,0h-34.25v-33.75h34.25v33.75Zm-34.5,0h-34.25v-33.75h34.25v33.75Zm-34.25,170.25h34.25v33.75h-34.25v-33.75Zm34.5,0h34.25v33.75h-34.25v-33.75Zm34.5,0h34.25v33.75h-34.25v-33.75Zm34.5,0h34.25v33.75h-34.25v-33.75Zm34.5,0h34.25v33.75h-34.25v-33.75Zm34.25-204.25h-34.25V35.12h34.25v33.75Zm-34.5,0h-34.25V35.12h34.25v33.75Zm-34.5,0h-34.25V35.12h34.25v33.75Zm-34.5,0h-34.25V35.12h34.25v33.75Zm-34.5,0h-34.25V35.12h34.25v33.75Zm-34.5,0h-34.25V35.12h34.25v33.75Zm-34.25,238.25h34.25v33.75h-34.25v-33.75Zm34.5,0h34.25v33.75h-34.25v-33.75Zm34.5,0h34.25v33.75h-34.25v-33.75Zm34.5,0h34.25v33.75h-34.25v-33.75Zm34.5,0h34.25v33.75h-34.25v-33.75Zm34.5,0h34.25v33.75h-34.25v-33.75Zm34.5,0h34.25v33.75h-34.25v-33.75Zm0-306h34.25V34.88h-34.25V1.12Zm-34.5,0h34.25V34.88h-34.25V1.12Zm-34.5,0h34.25V34.88h-34.25V1.12Zm-34.5,0h34.25V34.88h-34.25V1.12Zm-34.5,0h34.25V34.88h-34.25V1.12Zm-34.5,0h34.25V34.88h-34.25V1.12Zm-34.5,0h34.25V34.88h-34.25V1.12Zm-34.5,0h34.25V34.88H35.62V1.12ZM1.12,1.12H35.38V34.88H1.12V1.12Zm0,34H35.38v33.75H1.12V35.12Zm0,34H35.38v33.75H1.12v-33.75Zm0,34H35.38v33.75H1.12v-33.75Zm0,34H35.38v33.75H1.12v-33.75Zm0,34H35.38v33.75H1.12v-33.75Zm0,34H35.38v33.75H1.12v-33.75Zm0,34H35.38v33.75H1.12v-33.75Zm0,34H35.38v33.75H1.12v-33.75Zm0,34H35.38v33.75H1.12v-33.75Zm34.25,67.75H1.12v-33.75H35.38v33.75Zm34.5,0H35.62v-33.75h34.25v33.75Zm34.5,0h-34.25v-33.75h34.25v33.75Zm34.5,0h-34.25v-33.75h34.25v33.75Zm34.5,0h-34.25v-33.75h34.25v33.75Zm34.5,0h-34.25v-33.75h34.25v33.75Zm34.5,0h-34.25v-33.75h34.25v33.75Zm34.5,0h-34.25v-33.75h34.25v33.75Zm34.5,0h-34.25v-33.75h34.25v33.75Zm34.5,0h-34.25v-33.75h34.25v33.75Zm34.5,0h-34.25v-33.75h34.25v33.75Zm0-34h-34.25v-33.75h34.25v33.75Zm0-34h-34.25v-33.75h34.25v33.75Zm0-34h-34.25v-33.75h34.25v33.75Zm0-34h-34.25v-33.75h34.25v33.75Zm0-34h-34.25v-33.75h34.25v33.75Zm0-34h-34.25v-33.75h34.25v33.75Zm0-34h-34.25v-33.75h34.25v33.75Zm0-34h-34.25v-33.75h34.25v33.75Zm0-34h-34.25V35.12h34.25v33.75Zm-34.25-34V1.12h34.25V34.88h-34.25Z"/><path id="Centers" class="cls-3" d="M190.75,187.25l.75,.75-.75,.75-.75-.75,.75-.75Zm-.75,34.75l.75,.75,.75-.75-.75-.75-.75,.75Zm0,34l.75,.75,.75-.75-.75-.75-.75,.75Zm0,34l.75,.75,.75-.75-.75-.75-.75,.75Zm0,34l.75,.75,.75-.75-.75-.75-.75,.75Zm0,34l.75,.75,.75-.75-.75-.75-.75,.75Zm0-204l.75,.75,.75-.75-.75-.75-.75,.75Zm0-34l.75,.75,.75-.75-.75-.75-.75,.75Zm0-34l.75,.75,.75-.75-.75-.75-.75,.75Zm0-34l.75,.75,.75-.75-.75-.75-.75,.75Zm0-34l.75,.75,.75-.75-.75-.75-.75,.75Zm-34.5,170l.75,.75,.75-.75-.75-.75-.75,.75Zm0,34l.75,.75,.75-.75-.75-.75-.75,.75Zm0,34l.75,.75,.75-.75-.75-.75-.75,.75Zm0,34l.75,.75,.75-.75-.75-.75-.75,.75Zm0,34l.75,.75,.75-.75-.75-.75-.75,.75Zm0,34l.75,.75,.75-.75-.75-.75-.75,.75Zm0-204l.75,.75,.75-.75-.75-.75-.75,.75Zm0-34l.75,.75,.75-.75-.75-.75-.75,.75Zm0-34l.75,.75,.75-.75-.75-.75-.75,.75Zm0-34l.75,.75,.75-.75-.75-.75-.75,.75Zm0-34l.75,.75,.75-.75-.75-.75-.75,.75Zm-34.5,170l.75,.75,.75-.75-.75-.75-.75,.75Zm0,34l.75,.75,.75-.75-.75-.75-.75,.75Zm0,34l.75,.75,.75-.75-.75-.75-.75,.75Zm0,34l.75,.75,.75-.75-.75-.75-.75,.75Zm0,34l.75,.75,.75-.75-.75-.75-.75,.75Zm0,34l.75,.75,.75-.75-.75-.75-.75,.75Zm0-204l.75,.75,.75-.75-.75-.75-.75,.75Zm0-34l.75,.75,.75-.75-.75-.75-.75,.75Zm0-34l.75,.75,.75-.75-.75-.75-.75,.75Zm0-34l.75,.75,.75-.75-.75-.75-.75,.75Zm0-34l.75,.75,.75-.75-.75-.75-.75,.75Zm-34.5,170l.75,.75,.75-.75-.75-.75-.75,.75Zm0,34l.75,.75,.75-.75-.75-.75-.75,.75Zm0,34l.75,.75,.75-.75-.75-.75-.75,.75Zm0,34l.75,.75,.75-.75-.75-.75-.75,.75Zm0,34l.75,.75,.75-.75-.75-.75-.75,.75Zm0,34l.75,.75,.75-.75-.75-.75-.75,.75Zm0-204l.75,.75,.75-.75-.75-.75-.75,.75Zm0-34l.75,.75,.75-.75-.75-.75-.75,.75Zm0-34l.75,.75,.75-.75-.75-.75-.75,.75Zm0-34l.75,.75,.75-.75-.75-.75-.75,.75Zm0-34l.75,.75,.75-.75-.75-.75-.75,.75ZM52,188l.75,.75,.75-.75-.75-.75-.75,.75Zm0,34l.75,.75,.75-.75-.75-.75-.75,.75Zm0,34l.75,.75,.75-.75-.75-.75-.75,.75Zm0,34l.75,.75,.75-.75-.75-.75-.75,.75Zm0,34l.75,.75,.75-.75-.75-.75-.75,.75Zm0,34l.75,.75,.75-.75-.75-.75-.75,.75Zm0-204l.75,.75,.75-.75-.75-.75-.75,.75Zm0-34l.75,.75,.75-.75-.75-.75-.75,.75Zm0-34l.75,.75,.75-.75-.75-.75-.75,.75Zm0-34l.75,.75,.75-.75-.75-.75-.75,.75Zm0-34l.75,.75,.75-.75-.75-.75-.75,.75ZM17.5,188l.75,.75,.75-.75-.75-.75-.75,.75Zm0,34l.75,.75,.75-.75-.75-.75-.75,.75Zm0,34l.75,.75,.75-.75-.75-.75-.75,.75Zm0,34l.75,.75,.75-.75-.75-.75-.75,.75Zm0,34l.75,.75,.75-.75-.75-.75-.75,.75Zm0,34l.75,.75,.75-.75-.75-.75-.75,.75Zm0-204l.75,.75,.75-.75-.75-.75-.75,.75Zm0-34l.75,.75,.75-.75-.75-.75-.75,.75Zm0-34l.75,.75,.75-.75-.75-.75-.75,.75Zm0-34l.75,.75,.75-.75-.75-.75-.75,.75Zm0-34l.75,.75,.75-.75-.75-.75-.75,.75ZM224.5,188l.75,.75,.75-.75-.75-.75-.75,.75Zm0,34l.75,.75,.75-.75-.75-.75-.75,.75Zm0,34l.75,.75,.75-.75-.75-.75-.75,.75Zm0,34l.75,.75,.75-.75-.75-.75-.75,.75Zm0,34l.75,.75,.75-.75-.75-.75-.75,.75Zm0,34l.75,.75,.75-.75-.75-.75-.75,.75Zm0-204l.75,.75,.75-.75-.75-.75-.75,.75Zm0-34l.75,.75,.75-.75-.75-.75-.75,.75Zm0-34l.75,.75,.75-.75-.75-.75-.75,.75Zm0-34l.75,.75,.75-.75-.75-.75-.75,.75Zm0-34l.75,.75,.75-.75-.75-.75-.75,.75Zm34.5,170l.75,.75,.75-.75-.75-.75-.75,.75Zm0,34l.75,.75,.75-.75-.75-.75-.75,.75Zm0,34l.75,.75,.75-.75-.75-.75-.75,.75Zm0,34l.75,.75,.75-.75-.75-.75-.75,.75Zm0,34l.75,.75,.75-.75-.75-.75-.75,.75Zm0,34l.75,.75,.75-.75-.75-.75-.75,.75Zm0-204l.75,.75,.75-.75-.75-.75-.75,.75Zm0-34l.75,.75,.75-.75-.75-.75-.75,.75Zm0-34l.75,.75,.75-.75-.75-.75-.75,.75Zm0-34l.75,.75,.75-.75-.75-.75-.75,.75Zm0-34l.75,.75,.75-.75-.75-.75-.75,.75Zm34.5,170l.75,.75,.75-.75-.75-.75-.75,.75Zm0,34l.75,.75,.75-.75-.75-.75-.75,.75Zm0,34l.75,.75,.75-.75-.75-.75-.75,.75Zm0,34l.75,.75,.75-.75-.75-.75-.75,.75Zm0,34l.75,.75,.75-.75-.75-.75-.75,.75Zm0,34l.75,.75,.75-.75-.75-.75-.75,.75Zm0-204l.75,.75,.75-.75-.75-.75-.75,.75Zm0-34l.75,.75,.75-.75-.75-.75-.75,.75Zm0-34l.75,.75,.75-.75-.75-.75-.75,.75Zm0-34l.75,.75,.75-.75-.75-.75-.75,.75Zm0-34l.75,.75,.75-.75-.75-.75-.75,.75Zm34.5,170l.75,.75,.75-.75-.75-.75-.75,.75Zm0,34l.75,.75,.75-.75-.75-.75-.75,.75Zm0,34l.75,.75,.75-.75-.75-.75-.75,.75Zm0,34l.75,.75,.75-.75-.75-.75-.75,.75Zm0,34l.75,.75,.75-.75-.75-.75-.75,.75Zm0,34l.75,.75,.75-.75-.75-.75-.75,.75Zm0-204l.75,.75,.75-.75-.75-.75-.75,.75Zm0-34l.75,.75,.75-.75-.75-.75-.75,.75Zm0-34l.75,.75,.75-.75-.75-.75-.75,.75Zm0-34l.75,.75,.75-.75-.75-.75-.75,.75Zm0-34l.75,.75,.75-.75-.75-.75-.75,.75Zm34.5,170l.75,.75,.75-.75-.75-.75-.75,.75Zm0,34l.75,.75,.75-.75-.75-.75-.75,.75Zm0,34l.75,.75,.75-.75-.75-.75-.75,.75Zm0,34l.75,.75,.75-.75-.75-.75-.75,.75Zm0,34l.75,.75,.75-.75-.75-.75-.75,.75Zm0,34l.75,.75,.75-.75-.75-.75-.75,.75Zm0-204l.75,.75,.75-.75-.75-.75-.75,.75Zm0-34l.75,.75,.75-.75-.75-.75-.75,.75Zm0-34l.75,.75,.75-.75-.75-.75-.75,.75Zm0-34l.75,.75,.75-.75-.75-.75-.75,.75Zm0-34l.75,.75,.75-.75-.75-.75-.75,.75Z"/><path id="Dots" class="cls-2" d="M140,375l-1,1-1-1,1-1,1,1ZM104.5,0l-1,1,1,1,1-1-1-1Zm-34.5,0l-1,1,1,1,1-1-1-1Zm34.5,34l-1,1,1,1,1-1-1-1Zm0,34l-1,1,1,1,1-1-1-1Zm34.5,204l-1,1,1,1,1-1-1-1Zm0,34l-1,1,1,1,1-1-1-1Zm-34.5,34l-1,1,1,1,1-1-1-1Zm34.5-102l-1,1,1,1,1-1-1-1Zm-34.5,68l-1,1,1,1,1-1-1-1Zm0,68l-1,1,1,1,1-1-1-1Zm0-102l-1,1,1,1,1-1-1-1Zm0-136l-1,1,1,1,1-1-1-1Zm0,34l-1,1,1,1,1-1-1-1Zm0,34l-1,1,1,1,1-1-1-1Zm0,34l-1,1,1,1,1-1-1-1Zm0-136l-1,1,1,1,1-1-1-1Zm69,68l-1,1,1,1,1-1-1-1Zm0,34l-1,1,1,1,1-1-1-1Zm0,34l-1,1,1,1,1-1-1-1Zm0,68l-1,1,1,1,1-1-1-1Zm0-34l-1,1,1,1,1-1-1-1Zm0-204l-1,1,1,1,1-1-1-1Zm0,68l-1,1,1,1,1-1-1-1Zm0-34l-1,1,1,1,1-1-1-1Zm0,272l-1,1,1,1,1-1-1-1ZM139,102l-1,1,1,1,1-1-1-1Zm0-34l-1,1,1,1,1-1-1-1Zm0,68l-1,1,1,1,1-1-1-1Zm0,34l-1,1,1,1,1-1-1-1ZM139,0l-1,1,1,1,1-1-1-1Zm0,204l-1,1,1,1,1-1-1-1Zm34.5,136l-1,1,1,1,1-1-1-1ZM1,136l-1,1,1,1,1-1-1-1Zm34.5,238l-1,1,1,1,1-1-1-1ZM1,102l-1,1,1,1,1-1-1-1ZM1,34l-1,1,1,1,1-1-1-1Zm69,0l-1,1,1,1,1-1-1-1ZM1,0L0,1l1,1,1-1L1,0ZM35.5,272l-1,1,1,1,1-1-1-1Zm0,34l-1,1,1,1,1-1-1-1ZM380.5,2l1-1-1-1-1,1,1,1ZM1,374l-1,1,1,1,1-1-1-1Zm0-34l-1,1,1,1,1-1-1-1Zm0-68l-1,1,1,1,1-1-1-1Zm0-34l-1,1,1,1,1-1-1-1Zm0-68l-1,1,1,1,1-1-1-1Zm0,34l-1,1,1,1,1-1-1-1ZM173.5,34l-1,1,1,1,1-1-1-1ZM1,68l-1,1,1,1,1-1-1-1Zm69,238l-1,1,1,1,1-1-1-1Zm0-102l-1,1,1,1,1-1-1-1Zm0,34l-1,1,1,1,1-1-1-1Zm0,34l-1,1,1,1,1-1-1-1Zm0-102l-1,1,1,1,1-1-1-1Zm-34.5,34l-1,1,1,1,1-1-1-1Zm34.5-102l-1,1,1,1,1-1-1-1Zm0,34l-1,1,1,1,1-1-1-1Zm0-68l-1,1,1,1,1-1-1-1Zm-34.5,0l-1,1,1,1,1-1-1-1Zm34.5,272l-1,1,1,1,1-1-1-1ZM35.5,170l-1,1,1,1,1-1-1-1Zm0-68l-1,1,1,1,1-1-1-1Zm34.5,272l-1,1,1,1,1-1-1-1ZM35.5,0l-1,1,1,1,1-1-1-1ZM1,306l-1,1,1,1,1-1-1-1ZM311.5,34l-1,1,1,1,1-1-1-1Zm0,68l-1,1,1,1,1-1-1-1Zm34.5,272l-1,1,1,1,1-1-1-1Zm-34.5-306l-1,1,1,1,1-1-1-1Zm0-68l-1,1,1,1,1-1-1-1Zm34.5,204l-1,1,1,1,1-1-1-1ZM277,0l-1,1,1,1,1-1-1-1Zm69,272l-1,1,1,1,1-1-1-1Zm-34.5-136l-1,1,1,1,1-1-1-1Zm0,136l-1,1,1,1,1-1-1-1Zm0,34l-1,1,1,1,1-1-1-1Zm0,68l-1,1,1,1,1-1-1-1Zm0-34l-1,1,1,1,1-1-1-1Zm0-170l-1,1,1,1,1-1-1-1Zm0,34l-1,1,1,1,1-1-1-1Zm0,34l-1,1,1,1,1-1-1-1Zm34.5,68l-1,1,1,1,1-1-1-1Zm34.5-102l-1,1,1,1,1-1-1-1Zm0-34l-1,1,1,1,1-1-1-1Zm0,68l-1,1,1,1,1-1-1-1Zm0-102l-1,1,1,1,1-1-1-1Zm0-68l-1,1,1,1,1-1-1-1Zm0,34l-1,1,1,1,1-1-1-1Zm0-68l-1,1,1,1,1-1-1-1Zm0,238l-1,1,1,1,1-1-1-1Zm-34.5-102l-1,1,1,1,1-1-1-1Zm0-102l-1,1,1,1,1-1-1-1Zm0,34l-1,1,1,1,1-1-1-1Zm34.5,204l-1,1,1,1,1-1-1-1Zm0,34l-1,1,1,1,1-1-1-1Zm0,34l-1,1,1,1,1-1-1-1ZM346,0l-1,1,1,1,1-1-1-1ZM208,272l-1,1,1,1,1-1-1-1Zm0-170l-1,1,1,1,1-1-1-1Zm0-102l-1,1,1,1,1-1-1-1Zm0,68l-1,1,1,1,1-1-1-1Zm34.5,170l-1,1,1,1,1-1-1-1ZM208,34l-1,1,1,1,1-1-1-1Zm34.5,238l-1,1,1,1,1-1-1-1Zm0,34l-1,1,1,1,1-1-1-1Zm0,68l-1,1,1,1,1-1-1-1Zm-34.5-238l-1,1,1,1,1-1-1-1ZM173.5,0l-1,1,1,1,1-1-1-1Zm34.5,340l-1,1,1,1,1-1-1-1Zm0,34l-1,1,1,1,1-1-1-1Zm0-68l-1,1,1,1,1-1-1-1Zm0-68l-1,1,1,1,1-1-1-1Zm0-68l-1,1,1,1,1-1-1-1Zm0,34l-1,1,1,1,1-1-1-1Zm69,170l-1,1,1,1,1-1-1-1Zm0-204l-1,1,1,1,1-1-1-1Zm0,34l-1,1,1,1,1-1-1-1Zm0,34l-1,1,1,1,1-1-1-1Zm0,34l-1,1,1,1,1-1-1-1Zm0-204l-1,1,1,1,1-1-1-1Zm0,238l-1,1,1,1,1-1-1-1Zm0-204l-1,1,1,1,1-1-1-1Zm0,34l-1,1,1,1,1-1-1-1Zm-34.5,34l-1,1,1,1,1-1-1-1Zm0-68l-1,1,1,1,1-1-1-1Zm0-34l-1,1,1,1,1-1-1-1Zm0,68l-1,1,1,1,1-1-1-1Zm0,68l-1,1,1,1,1-1-1-1ZM242.5,0l-1,1,1,1,1-1-1-1Zm34.5,34l-1,1,1,1,1-1-1-1Zm0,306l-1,1,1,1,1-1-1-1Z"/><g id="Markers"><polygon class="cls-2" points="34.62 141.75 34.62 132.25 35.62 132.25 35.62 136.5 39.88 136.5 39.88 137.5 35.62 137.5 35.62 141.75 34.62 141.75"/><polygon class="cls-2" points="34.62 243.75 34.62 234.25 35.62 234.25 35.62 238.5 39.88 238.5 39.88 239.5 35.62 239.5 35.62 243.75 34.62 243.75"/><polygon class="cls-2" points="345.88 141.75 345.88 137.5 341.62 137.5 341.62 136.5 345.88 136.5 345.88 132.25 346.88 132.25 346.88 141.75 345.88 141.75"/><polygon class="cls-2" points="345.88 243.75 345.88 239.5 341.62 239.5 341.62 238.5 345.88 238.5 345.88 234.25 346.88 234.25 346.88 243.75 345.88 243.75"/><polygon class="cls-2" points="237.75 341.88 237.75 340.88 242 340.88 242 336.62 243 336.62 243 340.88 247.25 340.88 247.25 341.88 237.75 341.88"/><polygon class="cls-2" points="134.25 341.88 134.25 340.88 138.5 340.88 138.5 336.62 139.5 336.62 139.5 340.88 143.75 340.88 143.75 341.88 134.25 341.88"/><polygon class="cls-2" points="242 39.38 242 35.12 237.75 35.12 237.75 34.12 247.25 34.12 247.25 35.12 243 35.12 243 39.38 242 39.38"/><polygon class="cls-2" points="138.5 39.38 138.5 35.12 134.25 35.12 134.25 34.12 143.75 34.12 143.75 35.12 139.5 35.12 139.5 39.38 138.5 39.38"/><polygon class="cls-2" points="34.62 39.38 34.62 34.12 39.88 34.12 39.88 35.12 35.62 35.12 35.62 39.38 34.62 39.38"/><polygon class="cls-2" points="345.88 39.38 345.88 35.12 341.62 35.12 341.62 34.12 346.88 34.12 346.88 39.38 345.88 39.38"/><polygon class="cls-2" points="34.62 341.88 34.62 336.62 35.62 336.62 35.62 340.88 39.88 340.88 39.88 341.88 34.62 341.88"/><polygon class="cls-2" points="341.62 341.88 341.62 340.88 345.88 340.88 345.88 336.62 346.88 336.62 346.88 341.88 341.62 341.88"/><polygon class="cls-2" points="191.25 187.5 191.25 183.25 190.25 183.25 190.25 187.5 186 187.5 186 188.5 190.25 188.5 190.25 192.75 191.25 192.75 191.25 188.5 195.5 188.5 195.5 187.5 191.25 187.5"/></g></g></g></svg>