<?xml version="1.0" encoding="UTF-8"?><svg id="Layer_2" xmlns="http://www.w3.org/2000/svg" viewBox="0 0 936.15 519.14"><defs><style>.cls-1{opacity:.36;}</style></defs><g id="_ÎÓÈ_1"><g><g><path d="M935.56,17c-.33,0-.59-.13-.59-.29V7.32H1.18v9.39c0,.16-.26,.29-.59,.29s-.59-.13-.59-.29V7.04c0-.16,.26-.29,.59-.29H935.56c.33,0,.59,.13,.59,.29v9.68c0,.16-.26,.29-.59,.29Z"/><rect x=".59" width="46.37" height="3.67"/><rect class="cls-1" x="53.34" width="46.37" height="3.67"/><rect class="cls-1" x="139.7" width="10.08" height="3.67"/><rect class="cls-1" x="294.36" width="10.08" height="3.67"/><rect class="cls-1" x="811.65" width="10.08" height="3.67"/><rect x="925.47" width="10.08" height="3.67"/><rect class="cls-1" x="910.07" width="10.08" height="3.67"/><rect class="cls-1" x="870.79" width="32.13" height="3.67"/></g><g><path d="M.59,502.14c.33,0,.59,.13,.59,.29v9.39H934.96v-9.39c0-.16,.26-.29,.59-.29s.59,.13,.59,.29v9.68c0,.16-.26,.29-.59,.29H.59c-.33,0-.59-.13-.59-.29v-9.68c0-.16,.26-.29,.59-.29Z"/><rect x="889.19" y="515.47" width="46.37" height="3.67" transform="translate(1824.74 1034.61) rotate(180)"/><rect class="cls-1" x="836.43" y="515.47" width="46.37" height="3.67" transform="translate(1719.24 1034.61) rotate(180)"/><rect class="cls-1" x="786.37" y="515.47" width="10.08" height="3.67" transform="translate(1582.82 1034.61) rotate(180)"/><rect class="cls-1" x="631.71" y="515.47" width="10.08" height="3.67" transform="translate(1273.49 1034.61) rotate(180)"/><rect class="cls-1" x="114.41" y="515.47" width="10.08" height="3.67" transform="translate(238.9 1034.61) rotate(180)"/><rect x=".59" y="515.47" width="10.08" height="3.67" transform="translate(11.27 1034.61) rotate(180)"/><rect class="cls-1" x="16" y="515.47" width="10.08" height="3.67" transform="translate(42.08 1034.61) rotate(180)"/><rect class="cls-1" x="33.23" y="515.47" width="32.13" height="3.67" transform="translate(98.58 1034.61) rotate(180)"/></g></g></g></svg>