<svg width="569" height="573" xmlns="http://www.w3.org/2000/svg" xmlns:xlink="http://www.w3.org/1999/xlink" xml:space="preserve" overflow="hidden"><defs><filter id="fx0" x="-10%" y="-10%" width="120%" height="120%" filterUnits="userSpaceOnUse" primitiveUnits="userSpaceOnUse"><feComponentTransfer color-interpolation-filters="sRGB"><feFuncR type="discrete" tableValues="0.000000 0.000000"/><feFuncG type="discrete" tableValues="0.000000 0.000000"/><feFuncB type="discrete" tableValues="0.000000 0.000000"/><feFuncA type="linear" slope="0.400000" intercept="0.000000"/></feComponentTransfer><feGaussianBlur stdDeviation="6.111111 6.111111"/></filter><filter id="fx1" x="-10%" y="-10%" width="120%" height="120%" filterUnits="userSpaceOnUse" primitiveUnits="userSpaceOnUse"><feComponentTransfer color-interpolation-filters="sRGB"><feFuncR type="discrete" tableValues="1.000000 1.000000"/><feFuncG type="discrete" tableValues="1.000000 1.000000"/><feFuncB type="discrete" tableValues="1.000000 1.000000"/><feFuncA type="linear" slope="1.000000" intercept="0.000000"/></feComponentTransfer><feGaussianBlur stdDeviation="15.997178 15.968914"/></filter><clipPath id="clip2"><rect x="178" y="1324" width="569" height="573"/></clipPath><clipPath id="clip3"><rect x="1.66666" y="1.26624" width="168.444" height="168.966"/></clipPath><clipPath id="clip4"><rect x="0" y="0" width="171" height="172"/></clipPath><clipPath id="clip5"><rect x="20" y="19" width="132" height="133"/></clipPath><clipPath id="clip6"><rect x="20" y="19" width="132" height="133"/></clipPath><clipPath id="clip7"><rect x="20" y="19" width="132" height="133"/></clipPath><clipPath id="clip8"><rect x="399" y="1545" width="132" height="133"/></clipPath><clipPath id="clip9"><rect x="399" y="1545" width="132" height="133"/></clipPath><clipPath id="clip10"><rect x="399" y="1545" width="132" height="133"/></clipPath><clipPath id="clip11"><rect x="0.227886" y="0.367188" width="125.544" height="125.265"/></clipPath><clipPath id="clip12"><rect x="0" y="0" width="126" height="126"/></clipPath><clipPath id="clip13"><rect x="48" y="48" width="30" height="30"/></clipPath><clipPath id="clip14"><rect x="48" y="48" width="30" height="30"/></clipPath><clipPath id="clip15"><rect x="48" y="48" width="30" height="30"/></clipPath><clipPath id="clip16"><rect x="398" y="1545" width="132" height="133"/></clipPath><clipPath id="clip17"><rect x="398" y="1545" width="132" height="133"/></clipPath><clipPath id="clip18"><rect x="398" y="1545" width="132" height="133"/></clipPath></defs><g clip-path="url(#clip2)" transform="translate(-178 -1324)"><g clip-path="url(#clip3)" filter="url(#fx0)" transform="translate(379 1539)"><g clip-path="url(#clip4)"><g clip-path="url(#clip5)"><g clip-path="url(#clip6)"><g clip-path="url(#clip7)"><path d="M50.0461 127.051C66.1609 122.52 83.024 112.036 97.5297 97.5305 112.035 83.0248 122.519 66.1622 127.05 50.0471 131.777 33.2435 129.521 19.1291 120.695 10.3035 111.235 0.473596 94.5421-0.149422 80.9539 3.94944 64.8347 8.48097 47.9736 18.9648 33.4702 33.4695 18.9669 47.9741 8.47995 64.8383 3.94944 80.9539-0.778068 97.7564 1.47861 111.871 10.3035 120.696 19.7623 130.531 36.46 131.147 50.0461 127.051ZM33.5841 111.396C31.3689 112.936 29.2698 114.306 27.3445 115.468 26.6475 115.885 25.7443 115.658 25.3272 114.961 24.9122 114.268 25.1344 113.369 25.8249 112.949 27.6957 111.82 29.7416 110.485 31.9046 108.981 32.5714 108.517 33.4879 108.682 33.9518 109.348 34.4156 110.015 34.2509 110.932 33.5841 111.396ZM45.4048 102.466C43.4129 104.074 41.453 105.61 39.5791 107.031 38.9318 107.521 38.0094 107.394 37.5184 106.747 37.0277 106.1 37.1546 105.177 37.8019 104.687 39.6523 103.284 41.5887 101.767 43.557 100.177 44.1889 99.6672 45.1149 99.7657 45.6253 100.398 46.1355 101.03 46.0368 101.956 45.4048 102.466ZM56.6767 92.9094C54.8043 94.5679 52.9268 96.1964 51.0969 97.75 50.4777 98.2756 49.5495 98.1996 49.0239 97.5804 48.4984 96.9612 48.5744 96.033 49.1936 95.5074 51.0079 93.9674 52.8692 92.3527 54.7263 90.7078 55.3321 90.1669 56.2619 90.2196 56.8028 90.8257 57.3437 91.4316 57.291 92.3611 56.6849 92.902 56.6823 92.9046 56.6795 92.9069 56.6767 92.9094ZM93.1735 56.3783C92.6357 56.987 91.7061 57.0443 91.0977 56.5065 90.489 55.9685 90.4317 55.0392 90.9695 54.4305 92.6147 52.5691 94.2274 50.7057 95.7628 48.8922 96.2875 48.2722 97.2158 48.1952 97.8355 48.72 98.4554 49.245 98.5324 50.173 98.0077 50.7929 96.459 52.6221 94.8322 54.5014 93.1735 56.3783ZM94.7102 82.5402C93.9723 82.879 93.0998 82.5561 92.7597 81.8189 91.7471 79.6526 90.6021 77.5504 89.3312 75.5248 88.8991 74.8371 89.1066 73.9293 89.7943 73.4971 90.4821 73.0652 91.3899 73.2725 91.822 73.9602 91.8248 73.9646 91.8274 73.9692 91.8302 73.9735 93.1655 76.1031 94.3681 78.3127 95.4314 80.5901 95.7707 81.3277 95.4478 82.2007 94.7102 82.5402ZM107.272 39.2608C105.854 41.1376 104.321 43.1003 102.717 45.0944 102.214 45.7318 101.289 45.84 100.651 45.3365 100.014 44.833 99.9059 43.908 100.409 43.2709 100.415 43.264 100.42 43.2571 100.426 43.2502 102.012 41.2801 103.526 39.3409 104.925 37.4883 105.415 36.8402 106.337 36.7115 106.986 37.2009 107.634 37.6906 107.762 38.613 107.273 39.2611ZM115.676 26.9983C114.525 28.9264 113.162 31.0311 111.625 33.2545 111.163 33.9226 110.247 34.0899 109.579 33.6281 108.911 33.1663 108.744 32.25 109.205 31.582 110.706 29.4121 112.033 27.3626 113.151 25.4905 113.56 24.7889 114.461 24.552 115.162 24.9612 115.864 25.3705 116.101 26.2711 115.692 26.9727 115.687 26.9811 115.681 26.9898 115.676 26.9983ZM46.0606 35.3761C46.3522 34.6183 47.203 34.2401 47.9608 34.5318 47.9611 34.5318 47.9611 34.5318 47.9611 34.5318 50.3122 35.4588 52.5903 36.5605 54.7764 37.8283 55.4787 38.2364 55.7172 39.1365 55.3091 39.8388 54.9054 40.5335 54.0188 40.7755 53.318 40.3825 51.2612 39.1884 49.1176 38.1504 46.9054 37.2772 46.1473 36.986 45.7689 36.1353 46.06 35.3772 46.0603 35.3769 46.0603 35.3764 46.0606 35.3761ZM12.1098 110.118C13.7627 106.32 16.6797 101.485 20.7791 95.749 27.0819 86.929 35.6857 76.6618 45.6082 66.0749 41.7742 61.2796 38.6194 56.5163 36.3852 52.0996 32.26 43.9446 31.7309 37.9821 34.8555 34.8567 36.1547 33.5567 37.9792 32.8866 40.2781 32.8641 41.0908 32.8562 41.7557 33.5084 41.7637 34.321 41.7716 35.1336 41.1194 35.7986 40.3068 35.8065 38.8054 35.8213 37.6714 36.2018 36.9353 36.9376 34.8885 38.9845 35.6635 44.158 39.0098 50.7732 41.1066 54.9182 44.0574 59.3936 47.6461 63.917 50.2462 61.1808 52.9235 58.4347 55.6778 55.6783 58.4257 52.9304 61.1703 50.2546 63.9116 47.6507 62.3992 46.452 60.8853 45.3165 59.396 44.2685 58.7384 43.7916 58.592 42.872 59.069 42.2145 59.5362 41.5702 60.4314 41.4147 61.0887 41.8634 62.7329 43.0204 64.4044 44.2816 66.0708 45.6133 76.6595 35.6893 86.9279 27.0842 95.749 20.7806 101.486 16.681 106.32 13.7642 110.118 12.1111 114.624 10.1494 117.66 9.98363 119.31 11.6912 121.379 13.832 120.378 17.159 119.148 20.2753 118.839 21.0266 117.979 21.3852 117.228 21.0764 116.477 20.7676 116.118 19.9082 116.427 19.157 117.363 16.7995 117.993 14.6523 117.23 13.7711 116.347 12.751 110.917 13.5559 97.4591 23.1737 85.8973 31.4362 71.7964 43.7192 57.7574 57.7587 54.934 60.5821 52.1884 63.4007 49.5205 66.2146 51.7609 68.8873 54.2097 71.5603 56.8253 74.1759 59.5088 76.8594 62.1779 79.2931 64.7872 81.4784 65.03 81.2481 65.273 81.0179 65.5159 80.7876 66.0977 80.2208 67.0287 80.2329 67.5955 80.8147 68.1625 81.3965 68.1502 82.3276 67.5684 82.8943 67.5607 82.902 67.5525 82.9097 67.5446 82.9171 67.391 83.0627 67.2375 83.2078 67.084 83.3521 76.897 91.1269 85.62 95.1955 90.6182 95.1958 92.1334 95.1958 93.3047 94.8222 94.0631 94.0649 95.3191 92.9012 95.3611 90.3132 94.9819 88.4181 94.8337 87.6195 95.3608 86.852 96.1594 86.7036 96.9581 86.5554 97.7255 87.0827 97.8739 87.8813 97.8749 87.8874 97.8762 87.8938 97.8772 87.9 98.4641 90.7771 98.1192 94.309 96.1427 96.1448 94.802 97.4857 92.9383 98.1538 90.6036 98.154 82.1073 97.8201 72.6042 91.3853 64.923 85.3918 63.9976 86.2589 63.0752 87.1152 62.1559 87.9614 61.5582 88.5115 60.6277 88.4726 60.0778 87.8749 59.528 87.2772 59.5666 86.3466 60.1643 85.7968 60.9818 85.0448 61.8036 84.2824 62.6303 83.5089 59.9783 81.2732 57.3322 78.8428 54.7447 76.2553 52.1572 73.6678 49.7255 71.0204 47.4895 68.3679 37.7669 78.7599 29.3466 88.8187 23.1714 97.4591 13.5534 110.917 12.7482 116.349 13.7688 117.23 14.681 118.018 16.9415 117.339 19.5034 116.281 20.2505 115.962 21.1145 116.309 21.4333 117.056 21.7521 117.804 21.4049 118.668 20.6578 118.986 18.3103 119.988 16.4269 120.475 14.901 120.475 9.71191 120.075 9.59626 116.051 12.1098 110.118ZM87.6096 67.8027C88.1029 68.448 87.9798 69.3709 87.3345 69.8642 86.6892 70.3577 85.7661 70.2344 85.2728 69.5891 85.2654 69.5794 85.2579 69.5692 85.2505 69.5592 84.6406 68.7404 84.0027 67.9153 83.3485 67.0901 83.2958 67.1457 83.2433 67.2014 83.1904 67.257 82.6359 67.8506 81.7053 67.8826 81.1118 67.3281 80.5182 66.7739 80.4862 65.8431 81.0406 65.2495 81.0465 65.2431 81.0529 65.2365 81.059 65.2301 81.1977 65.0842 81.3361 64.9381 81.4743 64.7915 81.2236 64.4922 80.9744 64.1923 80.7193 63.8937 80.1914 63.2763 80.2641 62.3481 80.8815 61.82 81.4986 61.2921 82.4271 61.3648 82.955 61.9822 83.1407 62.1997 83.3214 62.4171 83.5051 62.6362 84.3681 61.7133 85.2211 60.7929 86.0637 59.8749 86.613 59.2767 87.5435 59.2371 88.1417 59.7864 88.7399 60.3357 88.7796 61.2663 88.2303 61.8645 87.2982 62.8795 86.3474 63.9032 85.3887 64.9266 86.157 65.8866 86.8972 66.8453 87.6096 67.8027ZM70.7814 75.686C72.5162 73.9779 74.2435 72.2493 75.9631 70.5 76.5326 69.9207 77.464 69.9125 78.0432 70.4821 78.6225 71.0516 78.6307 71.9829 78.0611 72.5622 76.3354 74.3174 74.5968 76.0573 72.846 77.7817 72.2672 78.3515 71.3359 78.3444 70.7661 77.7656 70.1963 77.1869 70.2034 76.2555 70.7822 75.6857ZM70.5609 51.3489C71.1125 50.7528 72.0433 50.7167 72.6395 51.2683 74.4382 52.9314 76.2397 54.6989 77.9506 56.4748 78.5209 57.0533 78.514 57.9844 77.9358 58.5547 77.3573 59.1247 76.4259 59.1181 75.8559 58.5396 75.8482 58.5317 75.8405 58.5237 75.8329 58.5158 74.1603 56.7798 72.3992 55.0535 70.6417 53.4273 70.0451 52.8759 70.0085 51.9453 70.5599 51.3487 70.5604 51.3484 70.5606 51.3479 70.5609 51.3476Z" fill="#BFBFBF" fill-rule="nonzero" fill-opacity="1" transform="matrix(1 0 0 1.00763 20.0001 19.7501)"/></g></g></g></g></g><g clip-path="url(#clip8)"><g clip-path="url(#clip9)"><g clip-path="url(#clip10)"><path d="M50.0461 127.051C66.1609 122.52 83.024 112.036 97.5297 97.5305 112.035 83.0248 122.519 66.1622 127.05 50.0471 131.777 33.2435 129.521 19.1291 120.695 10.3035 111.235 0.473596 94.5421-0.149422 80.9539 3.94944 64.8347 8.48097 47.9736 18.9648 33.4702 33.4695 18.9669 47.9741 8.47995 64.8383 3.94944 80.9539-0.778068 97.7564 1.47861 111.871 10.3035 120.696 19.7623 130.531 36.46 131.147 50.0461 127.051ZM33.5841 111.396C31.3689 112.936 29.2698 114.306 27.3445 115.468 26.6475 115.885 25.7443 115.658 25.3272 114.961 24.9122 114.268 25.1344 113.369 25.8249 112.949 27.6957 111.82 29.7416 110.485 31.9046 108.981 32.5714 108.517 33.4879 108.682 33.9518 109.348 34.4156 110.015 34.2509 110.932 33.5841 111.396ZM45.4048 102.466C43.4129 104.074 41.453 105.61 39.5791 107.031 38.9318 107.521 38.0094 107.394 37.5184 106.747 37.0277 106.1 37.1546 105.177 37.8019 104.687 39.6523 103.284 41.5887 101.767 43.557 100.177 44.1889 99.6672 45.1149 99.7657 45.6253 100.398 46.1355 101.03 46.0368 101.956 45.4048 102.466ZM56.6767 92.9094C54.8043 94.5679 52.9268 96.1964 51.0969 97.75 50.4777 98.2756 49.5495 98.1996 49.0239 97.5804 48.4984 96.9612 48.5744 96.033 49.1936 95.5074 51.0079 93.9674 52.8692 92.3527 54.7263 90.7078 55.3321 90.1669 56.2619 90.2196 56.8028 90.8257 57.3437 91.4316 57.291 92.3611 56.6849 92.902 56.6823 92.9046 56.6795 92.9069 56.6767 92.9094ZM93.1735 56.3783C92.6357 56.987 91.7061 57.0443 91.0977 56.5065 90.489 55.9685 90.4317 55.0392 90.9695 54.4305 92.6147 52.5691 94.2274 50.7057 95.7628 48.8922 96.2875 48.2722 97.2158 48.1952 97.8355 48.72 98.4554 49.245 98.5324 50.173 98.0077 50.7929 96.459 52.6221 94.8322 54.5014 93.1735 56.3783ZM94.7102 82.5402C93.9723 82.879 93.0998 82.5561 92.7597 81.8189 91.7471 79.6526 90.6021 77.5504 89.3312 75.5248 88.8991 74.8371 89.1066 73.9293 89.7943 73.4971 90.4821 73.0652 91.3899 73.2725 91.822 73.9602 91.8248 73.9646 91.8274 73.9692 91.8302 73.9735 93.1655 76.1031 94.3681 78.3127 95.4314 80.5901 95.7707 81.3277 95.4478 82.2007 94.7102 82.5402ZM107.272 39.2608C105.854 41.1376 104.321 43.1003 102.717 45.0944 102.214 45.7318 101.289 45.84 100.651 45.3365 100.014 44.833 99.9059 43.908 100.409 43.2709 100.415 43.264 100.42 43.2571 100.426 43.2502 102.012 41.2801 103.526 39.3409 104.925 37.4883 105.415 36.8402 106.337 36.7115 106.986 37.2009 107.634 37.6906 107.762 38.613 107.273 39.2611ZM115.676 26.9983C114.525 28.9264 113.162 31.0311 111.625 33.2545 111.163 33.9226 110.247 34.0899 109.579 33.6281 108.911 33.1663 108.744 32.25 109.205 31.582 110.706 29.4121 112.033 27.3626 113.151 25.4905 113.56 24.7889 114.461 24.552 115.162 24.9612 115.864 25.3705 116.101 26.2711 115.692 26.9727 115.687 26.9811 115.681 26.9898 115.676 26.9983ZM46.0606 35.3761C46.3522 34.6183 47.203 34.2401 47.9608 34.5318 47.9611 34.5318 47.9611 34.5318 47.9611 34.5318 50.3122 35.4588 52.5903 36.5605 54.7764 37.8283 55.4787 38.2364 55.7172 39.1365 55.3091 39.8388 54.9054 40.5335 54.0188 40.7755 53.318 40.3825 51.2612 39.1884 49.1176 38.1504 46.9054 37.2772 46.1473 36.986 45.7689 36.1353 46.06 35.3772 46.0603 35.3769 46.0603 35.3764 46.0606 35.3761ZM12.1098 110.118C13.7627 106.32 16.6797 101.485 20.7791 95.749 27.0819 86.929 35.6857 76.6618 45.6082 66.0749 41.7742 61.2796 38.6194 56.5163 36.3852 52.0996 32.26 43.9446 31.7309 37.9821 34.8555 34.8567 36.1547 33.5567 37.9792 32.8866 40.2781 32.8641 41.0908 32.8562 41.7557 33.5084 41.7637 34.321 41.7716 35.1336 41.1194 35.7986 40.3068 35.8065 38.8054 35.8213 37.6714 36.2018 36.9353 36.9376 34.8885 38.9845 35.6635 44.158 39.0098 50.7732 41.1066 54.9182 44.0574 59.3936 47.6461 63.917 50.2462 61.1808 52.9235 58.4347 55.6778 55.6783 58.4257 52.9304 61.1703 50.2546 63.9116 47.6507 62.3992 46.452 60.8853 45.3165 59.396 44.2685 58.7384 43.7916 58.592 42.872 59.069 42.2145 59.5362 41.5702 60.4314 41.4147 61.0887 41.8634 62.7329 43.0204 64.4044 44.2816 66.0708 45.6133 76.6595 35.6893 86.9279 27.0842 95.749 20.7806 101.486 16.681 106.32 13.7642 110.118 12.1111 114.624 10.1494 117.66 9.98363 119.31 11.6912 121.379 13.832 120.378 17.159 119.148 20.2753 118.839 21.0266 117.979 21.3852 117.228 21.0764 116.477 20.7676 116.118 19.9082 116.427 19.157 117.363 16.7995 117.993 14.6523 117.23 13.7711 116.347 12.751 110.917 13.5559 97.4591 23.1737 85.8973 31.4362 71.7964 43.7192 57.7574 57.7587 54.934 60.5821 52.1884 63.4007 49.5205 66.2146 51.7609 68.8873 54.2097 71.5603 56.8253 74.1759 59.5088 76.8594 62.1779 79.2931 64.7872 81.4784 65.03 81.2481 65.273 81.0179 65.5159 80.7876 66.0977 80.2208 67.0287 80.2329 67.5955 80.8147 68.1625 81.3965 68.1502 82.3276 67.5684 82.8943 67.5607 82.902 67.5525 82.9097 67.5446 82.9171 67.391 83.0627 67.2375 83.2078 67.084 83.3521 76.897 91.1269 85.62 95.1955 90.6182 95.1958 92.1334 95.1958 93.3047 94.8222 94.0631 94.0649 95.3191 92.9012 95.3611 90.3132 94.9819 88.4181 94.8337 87.6195 95.3608 86.852 96.1594 86.7036 96.9581 86.5554 97.7255 87.0827 97.8739 87.8813 97.8749 87.8874 97.8762 87.8938 97.8772 87.9 98.4641 90.7771 98.1192 94.309 96.1427 96.1448 94.802 97.4857 92.9383 98.1538 90.6036 98.154 82.1073 97.8201 72.6042 91.3853 64.923 85.3918 63.9976 86.2589 63.0752 87.1152 62.1559 87.9614 61.5582 88.5115 60.6277 88.4726 60.0778 87.8749 59.528 87.2772 59.5666 86.3466 60.1643 85.7968 60.9818 85.0448 61.8036 84.2824 62.6303 83.5089 59.9783 81.2732 57.3322 78.8428 54.7447 76.2553 52.1572 73.6678 49.7255 71.0204 47.4895 68.3679 37.7669 78.7599 29.3466 88.8187 23.1714 97.4591 13.5534 110.917 12.7482 116.349 13.7688 117.23 14.681 118.018 16.9415 117.339 19.5034 116.281 20.2505 115.962 21.1145 116.309 21.4333 117.056 21.7521 117.804 21.4049 118.668 20.6578 118.986 18.3103 119.988 16.4269 120.475 14.901 120.475 9.71191 120.075 9.59626 116.051 12.1098 110.118ZM87.6096 67.8027C88.1029 68.448 87.9798 69.3709 87.3345 69.8642 86.6892 70.3577 85.7661 70.2344 85.2728 69.5891 85.2654 69.5794 85.2579 69.5692 85.2505 69.5592 84.6406 68.7404 84.0027 67.9153 83.3485 67.0901 83.2958 67.1457 83.2433 67.2014 83.1904 67.257 82.6359 67.8506 81.7053 67.8826 81.1118 67.3281 80.5182 66.7739 80.4862 65.8431 81.0406 65.2495 81.0465 65.2431 81.0529 65.2365 81.059 65.2301 81.1977 65.0842 81.3361 64.9381 81.4743 64.7915 81.2236 64.4922 80.9744 64.1923 80.7193 63.8937 80.1914 63.2763 80.2641 62.3481 80.8815 61.82 81.4986 61.2921 82.4271 61.3648 82.955 61.9822 83.1407 62.1997 83.3214 62.4171 83.5051 62.6362 84.3681 61.7133 85.2211 60.7929 86.0637 59.8749 86.613 59.2767 87.5435 59.2371 88.1417 59.7864 88.7399 60.3357 88.7796 61.2663 88.2303 61.8645 87.2982 62.8795 86.3474 63.9032 85.3887 64.9266 86.157 65.8866 86.8972 66.8453 87.6096 67.8027ZM70.7814 75.686C72.5162 73.9779 74.2435 72.2493 75.9631 70.5 76.5326 69.9207 77.464 69.9125 78.0432 70.4821 78.6225 71.0516 78.6307 71.9829 78.0611 72.5622 76.3354 74.3174 74.5968 76.0573 72.846 77.7817 72.2672 78.3515 71.3359 78.3444 70.7661 77.7656 70.1963 77.1869 70.2034 76.2555 70.7822 75.6857ZM70.5609 51.3489C71.1125 50.7528 72.0433 50.7167 72.6395 51.2683 74.4382 52.9314 76.2397 54.6989 77.9506 56.4748 78.5209 57.0533 78.514 57.9844 77.9358 58.5547 77.3573 59.1247 76.4259 59.1181 75.8559 58.5396 75.8482 58.5317 75.8405 58.5237 75.8329 58.5158 74.1603 56.7798 72.3992 55.0535 70.6417 53.4273 70.0451 52.8759 70.0085 51.9453 70.5599 51.3487 70.5604 51.3484 70.5606 51.3479 70.5609 51.3476Z" fill="#BFBFBF" fill-rule="nonzero" fill-opacity="1" transform="matrix(1 0 0 1.00763 399 1545)"/></g></g></g><g clip-path="url(#clip11)" filter="url(#fx1)" transform="matrix(4.48413 0 0 4.49206 181 1328)"><g clip-path="url(#clip12)"><g clip-path="url(#clip13)" transform="matrix(1 0 0 1 2.95043e-06 -2.00272e-05)"><g clip-path="url(#clip14)" transform="matrix(1 0 0 1 2.95043e-06 -2.00272e-05)"><g clip-path="url(#clip15)" transform="matrix(1 0 0 1 2.95043e-06 -2.00272e-05)"><path d="M11.1607 28.3334C14.7545 27.323 18.5151 24.9851 21.75 21.7502 24.9849 18.5153 27.3229 14.7547 28.3332 11.1609 29.3875 7.4136 28.8842 4.26595 26.9161 2.29776 24.8063 0.105616 21.0837-0.0333224 18.0534 0.880761 14.4587 1.89133 10.6985 4.22932 7.46416 7.46399 4.22978 10.6987 1.8911 14.4595 0.880761 18.0534-0.173516 21.8005 0.329743 24.9482 2.29776 26.9163 4.40717 29.1096 8.13089 29.247 11.1607 28.3334ZM7.48955 24.8422C6.99553 25.1857 6.52742 25.4912 6.09805 25.7503 5.94263 25.8433 5.74121 25.7928 5.6482 25.6374 5.55563 25.4827 5.60519 25.2823 5.75918 25.1887 6.1764 24.9369 6.63264 24.6392 7.11502 24.3037 7.26371 24.2002 7.4681 24.237 7.57154 24.3857 7.67499 24.5344 7.63825 24.7387 7.48955 24.8422ZM10.1257 22.8508C9.68147 23.2094 9.2444 23.5519 8.8265 23.8688 8.68214 23.9782 8.47644 23.9499 8.36694 23.8055 8.25751 23.6612 8.28581 23.4555 8.43017 23.346 8.84282 23.0332 9.27464 22.6949 9.71359 22.3404 9.85453 22.2267 10.061 22.2486 10.1749 22.3896 10.2886 22.5306 10.2666 22.7371 10.1257 22.8508ZM12.6394 20.7196C12.2218 21.0895 11.8031 21.4527 11.3951 21.7991 11.257 21.9163 11.05 21.8994 10.9328 21.7613 10.8156 21.6232 10.8325 21.4162 10.9706 21.299 11.3752 20.9556 11.7903 20.5955 12.2044 20.2286 12.3396 20.108 12.5469 20.1198 12.6675 20.2549 12.7882 20.3901 12.7764 20.5973 12.6412 20.718 12.6407 20.7185 12.64 20.7191 12.6394 20.7196ZM20.7785 12.5729C20.6586 12.7086 20.4513 12.7214 20.3156 12.6015 20.1798 12.4815 20.1671 12.2742 20.287 12.1385 20.6539 11.7234 21.0135 11.3078 21.3559 10.9034 21.473 10.7651 21.68 10.748 21.8182 10.865 21.9564 10.9821 21.9736 11.189 21.8566 11.3273 21.5112 11.7352 21.1484 12.1543 20.7785 12.5729ZM21.1212 18.4072C20.9566 18.4827 20.7621 18.4107 20.6862 18.2463 20.4604 17.7632 20.2051 17.2944 19.9217 16.8427 19.8253 16.6893 19.8716 16.4869 20.0249 16.3905 20.1783 16.2942 20.3808 16.3404 20.4771 16.4938 20.4778 16.4948 20.4783 16.4958 20.4789 16.4968 20.7767 16.9717 21.0449 17.4644 21.2821 17.9723 21.3577 18.1368 21.2857 18.3315 21.1212 18.4072ZM23.9225 8.75552C23.6064 9.17404 23.2646 9.61174 22.9069 10.0565 22.7946 10.1986 22.5883 10.2227 22.4462 10.1104 22.3041 9.99814 22.2799 9.79188 22.3922 9.6498 22.3934 9.64826 22.3946 9.64672 22.3959 9.64518 22.7497 9.20582 23.0873 8.77337 23.3993 8.36021 23.5084 8.21568 23.7141 8.18698 23.8587 8.29613 24.0032 8.40534 24.0319 8.61104 23.9227 8.75557ZM25.7968 6.02085C25.5401 6.45085 25.2362 6.92022 24.8934 7.41606 24.7904 7.56504 24.586 7.60236 24.4371 7.49936 24.2881 7.39637 24.2508 7.19204 24.3538 7.04306 24.6884 6.55915 24.9844 6.10211 25.2337 5.68461 25.325 5.52814 25.5258 5.4753 25.6822 5.56657 25.8387 5.65784 25.8916 5.85869 25.8003 6.01515 25.7991 6.01703 25.798 6.01897 25.7968 6.02085ZM10.2719 7.88919C10.337 7.72018 10.5267 7.63585 10.6957 7.7009 10.6957 7.7009 10.6957 7.7009 10.6957 7.7009 11.2201 7.90762 11.7281 8.15332 12.2156 8.43604 12.3722 8.52705 12.4254 8.72779 12.3344 8.88441 12.2444 9.03933 12.0467 9.0933 11.8904 9.00566 11.4317 8.73937 10.9537 8.50788 10.4603 8.31314 10.2913 8.24821 10.2069 8.05848 10.2718 7.88942 10.2719 7.88936 10.2719 7.88925 10.2719 7.88919ZM2.7006 24.5572C3.0692 23.7103 3.71973 22.6321 4.63392 21.3529 6.03951 19.3859 7.95823 17.0963 10.171 14.7353 9.316 13.6659 8.61247 12.6036 8.11423 11.6187 7.19427 9.80004 7.07627 8.47034 7.77308 7.77336 8.06282 7.48344 8.46971 7.33401 8.98238 7.32899 9.1636 7.32722 9.3119 7.47266 9.31367 7.65388 9.31543 7.8351 9.16999 7.98339 8.98877 7.98516 8.65395 7.98847 8.40107 8.07332 8.23691 8.23742 7.78044 8.69389 7.95327 9.84762 8.69954 11.3229 9.16714 12.2472 9.8252 13.2453 10.6255 14.2541 11.2053 13.6439 11.8024 13.0315 12.4166 12.4168 13.0295 11.8039 13.6415 11.2072 14.2529 10.6265 13.9156 10.3592 13.578 10.106 13.2458 9.87227 13.0992 9.76591 13.0665 9.56084 13.1729 9.4142 13.2771 9.27053 13.4767 9.23584 13.6233 9.33592 13.99 9.59394 14.3628 9.87518 14.7344 10.1722 17.0958 7.95903 19.3857 6.04003 21.3529 4.63427 22.6322 3.72001 23.7103 3.06954 24.5572 2.70088 25.5622 2.26341 26.2392 2.22644 26.6072 2.60725 27.0686 3.08466 26.8453 3.8266 26.571 4.52157 26.5021 4.68911 26.3104 4.7691 26.1429 4.70023 25.9754 4.63136 25.8954 4.43971 25.9642 4.27217 26.1731 3.74643 26.3136 3.26759 26.1434 3.07108 25.9463 2.84359 24.7354 3.02309 21.7342 5.16794 19.1559 7.01054 16.0112 9.74977 12.8804 12.8807 12.2508 13.5103 11.6385 14.1389 11.0435 14.7664 11.5431 15.3625 12.0892 15.9586 12.6726 16.5419 13.271 17.1403 13.8662 17.6831 14.4481 18.1704 14.5023 18.119 14.5565 18.0677 14.6106 18.0163 14.7404 17.89 14.948 17.8926 15.0744 18.0224 15.2008 18.1521 15.1981 18.3598 15.0683 18.4862 15.0666 18.4879 15.0648 18.4896 15.063 18.4912 15.0288 18.5237 14.9946 18.5561 14.9603 18.5882 17.1487 20.3221 19.094 21.2294 20.2087 21.2295 20.5466 21.2295 20.8078 21.1462 20.9769 20.9773 21.257 20.7178 21.2664 20.1406 21.1818 19.718 21.1488 19.5399 21.2663 19.3688 21.4444 19.3357 21.6225 19.3026 21.7936 19.4202 21.8267 19.5983 21.827 19.5997 21.8273 19.6011 21.8275 19.6025 21.9584 20.2441 21.8815 21.0317 21.4407 21.4411 21.1417 21.7402 20.7261 21.8892 20.2054 21.8892 18.3107 21.8148 16.1914 20.3797 14.4784 19.0431 14.272 19.2365 14.0663 19.4275 13.8613 19.6162 13.728 19.7388 13.5205 19.7302 13.3979 19.5969 13.2753 19.4636 13.2839 19.2561 13.4172 19.1334 13.5995 18.9657 13.7827 18.7957 13.9671 18.6232 13.3757 18.1246 12.7856 17.5826 12.2085 17.0056 11.6315 16.4286 11.0892 15.8382 10.5906 15.2466 8.42235 17.5642 6.54454 19.8074 5.16742 21.7342 3.02252 24.7355 2.84296 25.9468 3.07057 26.1434 3.27398 26.319 3.7781 26.1677 4.34943 25.9317 4.51603 25.8606 4.70873 25.938 4.77982 26.1046 4.85092 26.2712 4.77348 26.4639 4.60688 26.535 4.08336 26.7584 3.66335 26.867 3.32305 26.867 2.16584 26.7777 2.14005 25.8804 2.7006 24.5572ZM19.5377 15.1206C19.6477 15.2645 19.6203 15.4703 19.4764 15.5803 19.3325 15.6904 19.1266 15.6629 19.0166 15.519 19.0149 15.5168 19.0133 15.5145 19.0116 15.5123 18.8756 15.3297 18.7333 15.1457 18.5874 14.9617 18.5757 14.9741 18.564 14.9865 18.5522 14.9989 18.4285 15.1313 18.221 15.1384 18.0886 15.0148 17.9563 14.8912 17.9491 14.6836 18.0728 14.5512 18.0741 14.5498 18.0755 14.5483 18.0769 14.5469 18.1078 14.5144 18.1387 14.4818 18.1695 14.4491 18.1136 14.3823 18.058 14.3154 18.0011 14.2489 17.8834 14.1112 17.8996 13.9042 18.0373 13.7864 18.1749 13.6687 18.382 13.6849 18.4997 13.8226 18.5411 13.8711 18.5814 13.9196 18.6224 13.9684 18.8148 13.7626 19.0051 13.5574 19.193 13.3526 19.3155 13.2192 19.523 13.2104 19.6564 13.3329 19.7898 13.4554 19.7986 13.6629 19.6761 13.7963 19.4683 14.0227 19.2562 14.251 19.0424 14.4792 19.2138 14.6933 19.3789 14.9071 19.5377 15.1206ZM15.7849 16.8786C16.1717 16.4977 16.5569 16.1122 16.9404 15.7221 17.0675 15.5929 17.2752 15.5911 17.4043 15.7181 17.5335 15.8451 17.5353 16.0528 17.4083 16.182 17.0235 16.5734 16.6357 16.9614 16.2453 17.346 16.1162 17.4731 15.9085 17.4715 15.7815 17.3424 15.6544 17.2134 15.656 17.0057 15.7851 16.8786ZM15.7357 11.4513C15.8587 11.3183 16.0663 11.3103 16.1992 11.4333 16.6004 11.8042 17.0021 12.1983 17.3837 12.5944 17.5109 12.7234 17.5093 12.931 17.3804 13.0582 17.2514 13.1853 17.0437 13.1839 16.9165 13.0548 16.9148 13.0531 16.9131 13.0513 16.9114 13.0495 16.5384 12.6624 16.1457 12.2774 15.7537 11.9148 15.6207 11.7918 15.6125 11.5843 15.7355 11.4512 15.7356 11.4511 15.7356 11.451 15.7357 11.451Z" fill="#FFFFFF" fill-rule="nonzero" fill-opacity="1" transform="matrix(1 0 0 1.00585 48.3929 48.3074)"/></g></g></g></g></g><g clip-path="url(#clip16)"><g clip-path="url(#clip17)"><g clip-path="url(#clip18)"><path d="M50.0461 127.051C66.1609 122.52 83.024 112.036 97.5297 97.5305 112.035 83.0248 122.519 66.1622 127.05 50.0471 131.777 33.2435 129.521 19.1291 120.695 10.3035 111.235 0.473596 94.5421-0.149422 80.9539 3.94944 64.8347 8.48097 47.9736 18.9648 33.4702 33.4695 18.9669 47.9741 8.47995 64.8383 3.94944 80.9539-0.778068 97.7564 1.47861 111.871 10.3035 120.696 19.7623 130.531 36.46 131.147 50.0461 127.051ZM33.5841 111.396C31.3689 112.936 29.2698 114.306 27.3445 115.468 26.6475 115.885 25.7443 115.658 25.3272 114.961 24.9122 114.268 25.1344 113.369 25.8249 112.949 27.6957 111.82 29.7416 110.485 31.9046 108.981 32.5714 108.517 33.4879 108.682 33.9518 109.348 34.4156 110.015 34.2509 110.932 33.5841 111.396ZM45.4048 102.466C43.4129 104.074 41.453 105.61 39.5791 107.031 38.9318 107.521 38.0094 107.394 37.5184 106.747 37.0277 106.1 37.1546 105.177 37.8019 104.687 39.6523 103.284 41.5887 101.767 43.557 100.177 44.1889 99.6672 45.1149 99.7657 45.6253 100.398 46.1355 101.03 46.0368 101.956 45.4048 102.466ZM56.6767 92.9094C54.8043 94.5679 52.9268 96.1964 51.0969 97.75 50.4777 98.2756 49.5495 98.1996 49.0239 97.5804 48.4984 96.9612 48.5744 96.033 49.1936 95.5074 51.0079 93.9674 52.8692 92.3527 54.7263 90.7078 55.3321 90.1669 56.2619 90.2196 56.8028 90.8257 57.3437 91.4316 57.291 92.3611 56.6849 92.902 56.6823 92.9046 56.6795 92.9069 56.6767 92.9094ZM93.1735 56.3783C92.6357 56.987 91.7061 57.0443 91.0977 56.5065 90.489 55.9685 90.4317 55.0392 90.9695 54.4305 92.6147 52.5691 94.2274 50.7057 95.7628 48.8922 96.2875 48.2722 97.2158 48.1952 97.8355 48.72 98.4554 49.245 98.5324 50.173 98.0077 50.7929 96.459 52.6221 94.8322 54.5014 93.1735 56.3783ZM94.7102 82.5402C93.9723 82.879 93.0998 82.5561 92.7597 81.8189 91.7471 79.6526 90.6021 77.5504 89.3312 75.5248 88.8991 74.8371 89.1066 73.9293 89.7943 73.4971 90.4821 73.0652 91.3899 73.2725 91.822 73.9602 91.8248 73.9646 91.8274 73.9692 91.8302 73.9735 93.1655 76.1031 94.3681 78.3127 95.4314 80.5901 95.7707 81.3277 95.4478 82.2007 94.7102 82.5402ZM107.272 39.2608C105.854 41.1376 104.321 43.1003 102.717 45.0944 102.214 45.7318 101.289 45.84 100.651 45.3365 100.014 44.833 99.9059 43.908 100.409 43.2709 100.415 43.264 100.42 43.2571 100.426 43.2502 102.012 41.2801 103.526 39.3409 104.925 37.4883 105.415 36.8402 106.337 36.7115 106.986 37.2009 107.634 37.6906 107.762 38.613 107.273 39.2611ZM115.676 26.9983C114.525 28.9264 113.162 31.0311 111.625 33.2545 111.163 33.9226 110.247 34.0899 109.579 33.6281 108.911 33.1663 108.744 32.25 109.205 31.582 110.706 29.4121 112.033 27.3626 113.151 25.4905 113.56 24.7889 114.461 24.552 115.162 24.9612 115.864 25.3705 116.101 26.2711 115.692 26.9727 115.687 26.9811 115.681 26.9898 115.676 26.9983ZM46.0606 35.3761C46.3522 34.6183 47.203 34.2401 47.9608 34.5318 47.9611 34.5318 47.9611 34.5318 47.9611 34.5318 50.3122 35.4588 52.5903 36.5605 54.7764 37.8283 55.4787 38.2364 55.7172 39.1365 55.3091 39.8388 54.9054 40.5335 54.0188 40.7755 53.318 40.3825 51.2612 39.1884 49.1176 38.1504 46.9054 37.2772 46.1473 36.986 45.7689 36.1353 46.06 35.3772 46.0603 35.3769 46.0603 35.3764 46.0606 35.3761ZM12.1098 110.118C13.7627 106.32 16.6797 101.485 20.7791 95.749 27.0819 86.929 35.6857 76.6618 45.6082 66.0749 41.7742 61.2796 38.6194 56.5163 36.3852 52.0996 32.26 43.9446 31.7309 37.9821 34.8555 34.8567 36.1547 33.5567 37.9792 32.8866 40.2781 32.8641 41.0908 32.8562 41.7557 33.5084 41.7637 34.321 41.7716 35.1336 41.1194 35.7986 40.3068 35.8065 38.8054 35.8213 37.6714 36.2018 36.9353 36.9376 34.8885 38.9845 35.6635 44.158 39.0098 50.7732 41.1066 54.9182 44.0574 59.3936 47.6461 63.917 50.2462 61.1808 52.9235 58.4347 55.6778 55.6783 58.4257 52.9304 61.1703 50.2546 63.9116 47.6507 62.3992 46.452 60.8853 45.3165 59.396 44.2685 58.7384 43.7916 58.592 42.872 59.069 42.2145 59.5362 41.5702 60.4314 41.4147 61.0887 41.8634 62.7329 43.0204 64.4044 44.2816 66.0708 45.6133 76.6595 35.6893 86.9279 27.0842 95.749 20.7806 101.486 16.681 106.32 13.7642 110.118 12.1111 114.624 10.1494 117.66 9.98363 119.31 11.6912 121.379 13.832 120.378 17.159 119.148 20.2753 118.839 21.0266 117.979 21.3852 117.228 21.0764 116.477 20.7676 116.118 19.9082 116.427 19.157 117.363 16.7995 117.993 14.6523 117.23 13.7711 116.347 12.751 110.917 13.5559 97.4591 23.1737 85.8973 31.4362 71.7964 43.7192 57.7574 57.7587 54.934 60.5821 52.1884 63.4007 49.5205 66.2146 51.7609 68.8873 54.2097 71.5603 56.8253 74.1759 59.5088 76.8594 62.1779 79.2931 64.7872 81.4784 65.03 81.2481 65.273 81.0179 65.5159 80.7876 66.0977 80.2208 67.0287 80.2329 67.5955 80.8147 68.1625 81.3965 68.1502 82.3276 67.5684 82.8943 67.5607 82.902 67.5525 82.9097 67.5446 82.9171 67.391 83.0627 67.2375 83.2078 67.084 83.3521 76.897 91.1269 85.62 95.1955 90.6182 95.1958 92.1334 95.1958 93.3047 94.8222 94.0631 94.0649 95.3191 92.9012 95.3611 90.3132 94.9819 88.4181 94.8337 87.6195 95.3608 86.852 96.1594 86.7036 96.9581 86.5554 97.7255 87.0827 97.8739 87.8813 97.8749 87.8874 97.8762 87.8938 97.8772 87.9 98.4641 90.7771 98.1192 94.309 96.1427 96.1448 94.802 97.4857 92.9383 98.1538 90.6036 98.154 82.1073 97.8201 72.6042 91.3853 64.923 85.3918 63.9976 86.2589 63.0752 87.1152 62.1559 87.9614 61.5582 88.5115 60.6277 88.4726 60.0778 87.8749 59.528 87.2772 59.5666 86.3466 60.1643 85.7968 60.9818 85.0448 61.8036 84.2824 62.6303 83.5089 59.9783 81.2732 57.3322 78.8428 54.7447 76.2553 52.1572 73.6678 49.7255 71.0204 47.4895 68.3679 37.7669 78.7599 29.3466 88.8187 23.1714 97.4591 13.5534 110.917 12.7482 116.349 13.7688 117.23 14.681 118.018 16.9415 117.339 19.5034 116.281 20.2505 115.962 21.1145 116.309 21.4333 117.056 21.7521 117.804 21.4049 118.668 20.6578 118.986 18.3103 119.988 16.4269 120.475 14.901 120.475 9.71191 120.075 9.59626 116.051 12.1098 110.118ZM87.6096 67.8027C88.1029 68.448 87.9798 69.3709 87.3345 69.8642 86.6892 70.3577 85.7661 70.2344 85.2728 69.5891 85.2654 69.5794 85.2579 69.5692 85.2505 69.5592 84.6406 68.7404 84.0027 67.9153 83.3485 67.0901 83.2958 67.1457 83.2433 67.2014 83.1904 67.257 82.6359 67.8506 81.7053 67.8826 81.1118 67.3281 80.5182 66.7739 80.4862 65.8431 81.0406 65.2495 81.0465 65.2431 81.0529 65.2365 81.059 65.2301 81.1977 65.0842 81.3361 64.9381 81.4743 64.7915 81.2236 64.4922 80.9744 64.1923 80.7193 63.8937 80.1914 63.2763 80.2641 62.3481 80.8815 61.82 81.4986 61.2921 82.4271 61.3648 82.955 61.9822 83.1407 62.1997 83.3214 62.4171 83.5051 62.6362 84.3681 61.7133 85.2211 60.7929 86.0637 59.8749 86.613 59.2767 87.5435 59.2371 88.1417 59.7864 88.7399 60.3357 88.7796 61.2663 88.2303 61.8645 87.2982 62.8795 86.3474 63.9032 85.3887 64.9266 86.157 65.8866 86.8972 66.8453 87.6096 67.8027ZM70.7814 75.686C72.5162 73.9779 74.2435 72.2493 75.9631 70.5 76.5326 69.9207 77.464 69.9125 78.0432 70.4821 78.6225 71.0516 78.6307 71.9829 78.0611 72.5622 76.3354 74.3174 74.5968 76.0573 72.846 77.7817 72.2672 78.3515 71.3359 78.3444 70.7661 77.7656 70.1963 77.1869 70.2034 76.2555 70.7822 75.6857ZM70.5609 51.3489C71.1125 50.7528 72.0433 50.7167 72.6395 51.2683 74.4382 52.9314 76.2397 54.6989 77.9506 56.4748 78.5209 57.0533 78.514 57.9844 77.9358 58.5547 77.3573 59.1247 76.4259 59.1181 75.8559 58.5396 75.8482 58.5317 75.8405 58.5237 75.8329 58.5158 74.1603 56.7798 72.3992 55.0535 70.6417 53.4273 70.0451 52.8759 70.0085 51.9453 70.5599 51.3487 70.5604 51.3484 70.5606 51.3479 70.5609 51.3476Z" fill="#FFFFFF" fill-rule="nonzero" fill-opacity="1" transform="matrix(1 0 0 1.00763 398 1545)"/></g></g></g></g></svg>