<svg width="468" height="463" xmlns="http://www.w3.org/2000/svg" xmlns:xlink="http://www.w3.org/1999/xlink" xml:space="preserve" overflow="hidden"><defs><filter id="fx0" x="-10%" y="-10%" width="120%" height="120%" filterUnits="userSpaceOnUse" primitiveUnits="userSpaceOnUse"><feComponentTransfer color-interpolation-filters="sRGB"><feFuncR type="discrete" tableValues="0.000000 0.000000"/><feFuncG type="discrete" tableValues="0.000000 0.000000"/><feFuncB type="discrete" tableValues="0.000000 0.000000"/><feFuncA type="linear" slope="0.400000" intercept="0.000000"/></feComponentTransfer><feGaussianBlur stdDeviation="6.111111 6.111111"/></filter><filter id="fx1" x="-10%" y="-10%" width="120%" height="120%" filterUnits="userSpaceOnUse" primitiveUnits="userSpaceOnUse"><feComponentTransfer color-interpolation-filters="sRGB"><feFuncR type="discrete" tableValues="0.000000 0.000000"/><feFuncG type="discrete" tableValues="0.000000 0.000000"/><feFuncB type="discrete" tableValues="0.000000 0.000000"/><feFuncA type="linear" slope="0.400000" intercept="0.000000"/></feComponentTransfer><feGaussianBlur stdDeviation="6.111111 6.111111"/></filter><filter id="fx2" x="-10%" y="-10%" width="120%" height="120%" filterUnits="userSpaceOnUse" primitiveUnits="userSpaceOnUse"><feComponentTransfer color-interpolation-filters="sRGB"><feFuncR type="discrete" tableValues="1.000000 1.000000"/><feFuncG type="discrete" tableValues="1.000000 1.000000"/><feFuncB type="discrete" tableValues="1.000000 1.000000"/><feFuncA type="linear" slope="1.000000" intercept="0.000000"/></feComponentTransfer><feGaussianBlur stdDeviation="15.782481 15.867772"/></filter><clipPath id="clip3"><rect x="224" y="1063" width="468" height="463"/></clipPath><clipPath id="clip4"><rect x="3.155" y="2.87134" width="162.178" height="163.462"/></clipPath><clipPath id="clip5"><rect x="0" y="0" width="167" height="168"/></clipPath><clipPath id="clip6"><rect x="20" y="19" width="127" height="129"/></clipPath><clipPath id="clip7"><rect x="20" y="19" width="127" height="129"/></clipPath><clipPath id="clip8"><rect x="20" y="19" width="127" height="129"/></clipPath><clipPath id="clip9"><rect x="20" y="19" width="127" height="129"/></clipPath><clipPath id="clip10"><rect x="20" y="19" width="127" height="129"/></clipPath><clipPath id="clip11"><rect x="20" y="19" width="127" height="129"/></clipPath><clipPath id="clip12"><rect x="3.155" y="2.87134" width="162.178" height="163.462"/></clipPath><clipPath id="clip13"><rect x="0" y="0" width="167" height="168"/></clipPath><clipPath id="clip14"><rect x="20" y="19" width="127" height="129"/></clipPath><clipPath id="clip15"><rect x="20" y="19" width="127" height="129"/></clipPath><clipPath id="clip16"><rect x="20" y="19" width="127" height="129"/></clipPath><clipPath id="clip17"><rect x="396" y="1217" width="127" height="130"/></clipPath><clipPath id="clip18"><rect x="396" y="1217" width="127" height="130"/></clipPath><clipPath id="clip19"><rect x="396" y="1217" width="127" height="130"/></clipPath><clipPath id="clip20"><rect x="0.973198" y="0.897186" width="131.374" height="131.706"/></clipPath><clipPath id="clip21"><rect x="0" y="0" width="132" height="133"/></clipPath><clipPath id="clip22"><rect x="47" y="48" width="38" height="37"/></clipPath><clipPath id="clip23"><rect x="47" y="48" width="38" height="37"/></clipPath><clipPath id="clip24"><rect x="47" y="48" width="38" height="37"/></clipPath><clipPath id="clip25"><rect x="396" y="1217" width="127" height="130"/></clipPath><clipPath id="clip26"><rect x="396" y="1217" width="127" height="130"/></clipPath><clipPath id="clip27"><rect x="396" y="1217" width="127" height="130"/></clipPath></defs><g clip-path="url(#clip3)" transform="translate(-224 -1063)"><g clip-path="url(#clip4)" filter="url(#fx0)" transform="translate(376 1212)"><g clip-path="url(#clip5)"><g clip-path="url(#clip6)"><g clip-path="url(#clip7)"><g clip-path="url(#clip8)"><path d="M63.4999 1.48828C29.2519 1.48833 1.48832 29.2519 1.48838 63.4999 1.4884 79.9464 8.02168 95.7192 19.651 107.349 43.8321 131.602 83.0956 131.66 107.349 107.479 131.602 83.2982 131.66 44.0347 107.479 19.7816 107.436 19.7381 107.392 19.6946 107.349 19.6512 95.745 7.98368 79.9553 1.44341 63.4999 1.48828ZM43.7142 24.0853C44.0727 23.3877 44.9287 23.1125 45.6264 23.4707 47.651 24.5102 49.7619 25.7073 51.9005 27.0284 52.5678 27.4406 52.7744 28.3158 52.3621 28.9828 51.9501 29.65 51.075 29.8569 50.4078 29.4446 48.3326 28.1627 46.2872 27.0028 44.3289 25.9968 43.6316 25.6383 43.3566 24.7829 43.7142 24.0853ZM30.2652 19.7229C30.3874 18.9486 31.1135 18.4194 31.8881 18.5397 34.319 18.9524 36.702 19.6098 39.0006 20.5018 39.7348 20.7779 40.1062 21.5969 39.8301 22.3311 39.554 23.0654 38.735 23.4367 38.0007 23.1606 35.8832 22.3371 33.6879 21.7293 31.4483 21.3464 30.6734 21.2248 30.1439 20.4983 30.2652 19.7234ZM42.7206 104.941C40.5115 105.968 38.2319 106.836 35.8993 107.54 35.147 107.761 34.3574 107.33 34.1362 106.578 33.9152 105.826 34.3458 105.036 35.0981 104.815 37.3 104.15 39.4518 103.329 41.5376 102.359 42.2478 102.027 43.0934 102.333 43.426 103.043 43.7589 103.753 43.453 104.598 42.7426 104.931 42.7352 104.935 42.7278 104.938 42.7201 104.942ZM55.2519 97.8152C53.1834 99.1965 51.1274 100.475 49.14 101.616 48.4596 102.006 47.5917 101.771 47.2013 101.091 46.8108 100.41 47.0457 99.5426 47.7261 99.1521 49.6577 98.0436 51.6592 96.7992 53.6745 95.4533 54.3229 95.0122 55.2062 95.1802 55.6475 95.8286 56.0885 96.477 55.9206 97.3603 55.2722 97.8015 55.2653 97.806 55.2586 97.8107 55.2516 97.8152ZM93.6601 65.8916C94.1347 66.5159 94.0134 67.4069 93.389 67.8814 92.7645 68.3562 91.8737 68.2346 91.399 67.6103 91.3957 67.6058 91.3923 67.6014 91.389 67.5969 90.0163 65.7691 88.5499 63.9117 87.0301 62.0769 86.5159 61.4848 86.5789 60.5878 87.171 60.0736 87.7631 59.5592 88.66 59.6225 89.1745 60.2145 89.1891 60.2314 89.2032 60.2485 89.2171 60.2661 89.4796 60.5829 89.738 60.9014 89.9975 61.2194 91.2849 59.5612 92.5236 57.8956 93.6807 56.2555 94.128 55.611 95.0127 55.4513 95.6569 55.8985 96.3013 56.3455 96.4611 57.2303 96.0141 57.8747 96.0099 57.8807 96.0057 57.8866 96.0015 57.8926 94.694 59.7455 93.2876 61.6314 91.8219 63.5007 92.4487 64.3006 93.0646 65.0993 93.6601 65.8926ZM70.2418 82.4197C71.963 80.8622 73.6872 79.236 75.3655 77.5872 75.931 77.0435 76.8299 77.0611 77.3737 77.6267 77.9092 78.1835 77.9012 79.0663 77.356 79.6135 75.65 81.2896 73.8975 82.9421 72.1471 84.5248 71.5654 85.0509 70.6675 85.0061 70.1414 84.4244 69.615 83.843 69.6599 82.9448 70.2416 82.4187ZM67.3198 41.997C66.7206 41.4912 66.6447 40.5953 67.1504 39.9958 67.6562 39.3965 68.5521 39.3206 69.1517 39.8266 69.1593 39.8331 69.1673 39.84 69.175 39.8467 70.9587 41.3846 72.7491 42.9969 74.4966 44.6387 75.0683 45.1755 75.0966 46.0744 74.5598 46.6461 74.023 47.2179 73.1241 47.2462 72.5524 46.7094 70.8329 45.0949 69.0725 43.5098 67.3198 41.997ZM77.589 51.6344C77.0452 51.0688 77.0629 50.1699 77.6284 49.6262 78.1853 49.0906 79.0681 49.0986 79.6152 49.6438 81.2913 51.3499 82.9438 53.1023 84.5266 54.8528 85.0527 55.4344 85.0078 56.3324 84.4264 56.8587 83.8447 57.3848 82.9465 57.3399 82.4204 56.7583 80.8632 55.0368 79.236 53.3126 77.5872 51.6344ZM80.2927 72.5516C81.9067 70.8329 83.4925 69.0725 85.0056 67.3178 85.5178 66.724 86.4145 66.6578 87.0085 67.1703 87.6024 67.6825 87.6683 68.5792 87.1561 69.173 85.6182 70.9567 84.0059 72.7471 82.3641 74.4946 81.8273 75.0663 80.9284 75.0946 80.3567 74.5578 79.7849 74.0211 79.7566 73.1221 80.2934 72.5504ZM95.8452 71.3556C96.4973 70.92 97.3789 71.0956 97.8144 71.7477 97.8144 71.7477 97.8147 71.748 97.8147 71.748 99.196 73.8164 100.475 75.8725 101.615 77.8598 102.006 78.54 101.771 79.4079 101.09 79.7983 100.41 80.1887 99.5423 79.9538 99.1519 79.2737 98.0431 77.3422 96.7987 75.3407 95.4528 73.3253 95.0172 72.6732 95.1926 71.7916 95.8447 71.356 95.8447 71.3558 95.8449 71.3558 95.8452 71.3556ZM99.9699 51.9005C99.5577 52.5678 98.6826 52.7744 98.0156 52.3621 97.3483 51.9501 97.1415 51.075 97.5537 50.4078 98.8356 48.3326 99.9955 46.2872 101.002 44.3289 101.354 43.6279 102.208 43.3454 102.908 43.6976 103.609 44.0498 103.892 44.9036 103.54 45.6044 103.536 45.6118 103.532 45.6192 103.528 45.6264 102.489 47.651 101.292 49.7619 99.9709 51.9005ZM103.058 83.5793C103.771 83.2526 104.613 83.5651 104.94 84.2778 104.94 84.2783 104.94 84.2788 104.94 84.2793 105.967 86.4884 106.836 88.7679 107.539 91.1006 107.761 91.8529 107.33 92.6424 106.577 92.8637 105.825 93.0847 105.036 92.6541 104.815 91.9017 104.149 89.6998 103.329 87.548 102.359 85.4622 102.032 84.7493 102.345 83.9065 103.058 83.5798 103.059 83.5795 103.059 83.5795 103.059 83.5793ZM106.497 39.0006C106.22 39.7348 105.401 40.1062 104.667 39.8301 103.933 39.5537 103.562 38.735 103.838 38.0007 104.662 35.8832 105.269 33.6879 105.652 31.4483 105.784 30.6749 106.517 30.1543 107.29 30.2855 108.05 30.4145 108.568 31.1254 108.459 31.8881 108.046 34.319 107.389 36.702 106.498 39.0006ZM107.166 25.9866C106.43 26.2567 105.615 25.8804 105.342 25.1455 105.056 24.3407 104.598 23.6079 104 22.9981 100.778 19.7755 93.3399 20.6992 83.5917 25.5339 73.2452 30.6648 61.4999 39.5381 50.5191 50.5182 46.3897 54.6382 42.4785 58.9713 38.8014 63.4999 42.478 68.0285 46.3889 72.3614 50.5182 76.4814 54.6372 80.6097 58.9693 84.5199 63.4967 88.1957 63.9727 87.811 64.4479 87.4225 64.922 87.0299 65.5141 86.5157 66.411 86.5787 66.9252 87.1707 67.4396 87.7628 67.3764 88.6598 66.7843 89.1742 66.7674 89.1889 66.7503 89.203 66.7327 89.2169 66.414 89.4811 66.0935 89.7413 65.7735 90.002 71.8943 94.758 77.9499 98.6689 83.5897 101.466 93.3379 106.3 100.777 107.224 104 104.001 105.236 102.766 105.872 100.905 105.889 98.4735 105.894 97.6931 106.528 97.0633 107.309 97.0633L107.319 97.0633C108.103 97.0691 108.734 97.709 108.729 98.4933 108.707 101.698 107.791 104.227 106.009 106.009 104.202 107.816 101.615 108.714 98.3743 108.715 94.0798 108.715 88.6365 107.139 82.3276 104.01 76.3594 101.05 69.9501 96.8895 63.4935 91.8248 62.6953 92.4504 61.898 93.0651 61.1063 93.6604 60.4819 94.1349 59.591 94.0136 59.1164 93.3893 58.6417 92.7649 58.7632 91.874 59.3876 91.3992 59.392 91.396 59.3965 91.3925 59.4009 91.3893 60.0027 90.9373 60.6082 90.4715 61.2144 90.0002 56.789 86.3787 52.5484 82.5367 48.5092 78.4889 44.4596 74.4479 40.6161 70.2056 36.9932 65.778 32.2389 71.8973 28.3291 77.9514 25.5334 83.59 20.6987 93.3382 19.7745 100.778 22.9979 104.001 24.2341 105.237 26.0945 105.873 28.5254 105.891 29.3097 105.897 29.941 106.537 29.9355 107.321 29.93 108.105 29.2898 108.737 28.5055 108.731 25.3007 108.709 22.7719 107.793 20.9897 106.011 16.7888 101.81 17.4987 93.4002 22.9887 82.3299 25.9477 76.3634 30.1076 69.9561 35.1698 63.5012 30.1069 57.0462 25.9477 50.639 22.9887 44.6724 17.4987 33.6021 16.7888 25.1921 20.9897 20.9912 21.8893 20.102 22.9719 19.4198 24.1622 18.9919 24.8949 18.7121 25.716 19.0793 25.9958 19.8121 26.2756 20.5449 25.9085 21.3658 25.1755 21.6457 25.1656 21.6495 25.1551 21.6533 25.145 21.6569 24.3402 21.9431 23.6074 22.4013 22.9979 22.9996 19.7733 26.2227 20.6987 33.6621 25.5334 43.4104 28.3296 49.049 32.2394 55.103 36.9932 61.2224 44.251 52.3718 52.3639 44.2584 61.2142 37.0004 59.5575 35.714 57.8928 34.4765 56.2532 33.3203 55.6215 32.8553 55.4865 31.9663 55.9514 31.3345 56.4033 30.7208 57.2588 30.573 57.8903 30.9996 59.7415 32.3058 61.6254 33.7108 63.493 35.175 69.9494 30.1106 76.3582 25.9501 82.3259 22.9904 93.3957 17.5002 101.806 16.7893 106.007 20.9914 106.896 21.891 107.579 22.9737 108.006 24.1639 108.277 24.8987 107.902 25.714 107.168 25.9866Z" fill="#BFBFBF" fill-rule="nonzero" fill-opacity="1" transform="matrix(1 0 0 1.00788 20 19.7499)"/></g></g></g><g clip-path="url(#clip9)"><g clip-path="url(#clip10)"><g clip-path="url(#clip11)"><path d="M63.4999 1.48828C29.2519 1.48833 1.48832 29.2519 1.48838 63.4999 1.4884 79.9464 8.02168 95.7192 19.651 107.349 43.8321 131.602 83.0956 131.66 107.349 107.479 131.602 83.2982 131.66 44.0347 107.479 19.7816 107.436 19.7381 107.392 19.6946 107.349 19.6512 95.745 7.98368 79.9553 1.44341 63.4999 1.48828ZM43.7142 24.0853C44.0727 23.3877 44.9287 23.1125 45.6264 23.4707 47.651 24.5102 49.7619 25.7073 51.9005 27.0284 52.5678 27.4406 52.7744 28.3158 52.3621 28.9828 51.9501 29.65 51.075 29.8569 50.4078 29.4446 48.3326 28.1627 46.2872 27.0028 44.3289 25.9968 43.6316 25.6383 43.3566 24.7829 43.7142 24.0853ZM30.2652 19.7229C30.3874 18.9486 31.1135 18.4194 31.8881 18.5397 34.319 18.9524 36.702 19.6098 39.0006 20.5018 39.7348 20.7779 40.1062 21.5969 39.8301 22.3311 39.554 23.0654 38.735 23.4367 38.0007 23.1606 35.8832 22.3371 33.6879 21.7293 31.4483 21.3464 30.6734 21.2248 30.1439 20.4983 30.2652 19.7234ZM42.7206 104.941C40.5115 105.968 38.2319 106.836 35.8993 107.54 35.147 107.761 34.3574 107.33 34.1362 106.578 33.9152 105.826 34.3458 105.036 35.0981 104.815 37.3 104.15 39.4518 103.329 41.5376 102.359 42.2478 102.027 43.0934 102.333 43.426 103.043 43.7589 103.753 43.453 104.598 42.7426 104.931 42.7352 104.935 42.7278 104.938 42.7201 104.942ZM55.2519 97.8152C53.1834 99.1965 51.1274 100.475 49.14 101.616 48.4596 102.006 47.5917 101.771 47.2013 101.091 46.8108 100.41 47.0457 99.5426 47.7261 99.1521 49.6577 98.0436 51.6592 96.7992 53.6745 95.4533 54.3229 95.0122 55.2062 95.1802 55.6475 95.8286 56.0885 96.477 55.9206 97.3603 55.2722 97.8015 55.2653 97.806 55.2586 97.8107 55.2516 97.8152ZM93.6601 65.8916C94.1347 66.5159 94.0134 67.4069 93.389 67.8814 92.7645 68.3562 91.8737 68.2346 91.399 67.6103 91.3957 67.6058 91.3923 67.6014 91.389 67.5969 90.0163 65.7691 88.5499 63.9117 87.0301 62.0769 86.5159 61.4848 86.5789 60.5878 87.171 60.0736 87.7631 59.5592 88.66 59.6225 89.1745 60.2145 89.1891 60.2314 89.2032 60.2485 89.2171 60.2661 89.4796 60.5829 89.738 60.9014 89.9975 61.2194 91.2849 59.5612 92.5236 57.8956 93.6807 56.2555 94.128 55.611 95.0127 55.4513 95.6569 55.8985 96.3013 56.3455 96.4611 57.2303 96.0141 57.8747 96.0099 57.8807 96.0057 57.8866 96.0015 57.8926 94.694 59.7455 93.2876 61.6314 91.8219 63.5007 92.4487 64.3006 93.0646 65.0993 93.6601 65.8926ZM70.2418 82.4197C71.963 80.8622 73.6872 79.236 75.3655 77.5872 75.931 77.0435 76.8299 77.0611 77.3737 77.6267 77.9092 78.1835 77.9012 79.0663 77.356 79.6135 75.65 81.2896 73.8975 82.9421 72.1471 84.5248 71.5654 85.0509 70.6675 85.0061 70.1414 84.4244 69.615 83.843 69.6599 82.9448 70.2416 82.4187ZM67.3198 41.997C66.7206 41.4912 66.6447 40.5953 67.1504 39.9958 67.6562 39.3965 68.5521 39.3206 69.1517 39.8266 69.1593 39.8331 69.1673 39.84 69.175 39.8467 70.9587 41.3846 72.7491 42.9969 74.4966 44.6387 75.0683 45.1755 75.0966 46.0744 74.5598 46.6461 74.023 47.2179 73.1241 47.2462 72.5524 46.7094 70.8329 45.0949 69.0725 43.5098 67.3198 41.997ZM77.589 51.6344C77.0452 51.0688 77.0629 50.1699 77.6284 49.6262 78.1853 49.0906 79.0681 49.0986 79.6152 49.6438 81.2913 51.3499 82.9438 53.1023 84.5266 54.8528 85.0527 55.4344 85.0078 56.3324 84.4264 56.8587 83.8447 57.3848 82.9465 57.3399 82.4204 56.7583 80.8632 55.0368 79.236 53.3126 77.5872 51.6344ZM80.2927 72.5516C81.9067 70.8329 83.4925 69.0725 85.0056 67.3178 85.5178 66.724 86.4145 66.6578 87.0085 67.1703 87.6024 67.6825 87.6683 68.5792 87.1561 69.173 85.6182 70.9567 84.0059 72.7471 82.3641 74.4946 81.8273 75.0663 80.9284 75.0946 80.3567 74.5578 79.7849 74.0211 79.7566 73.1221 80.2934 72.5504ZM95.8452 71.3556C96.4973 70.92 97.3789 71.0956 97.8144 71.7477 97.8144 71.7477 97.8147 71.748 97.8147 71.748 99.196 73.8164 100.475 75.8725 101.615 77.8598 102.006 78.54 101.771 79.4079 101.09 79.7983 100.41 80.1887 99.5423 79.9538 99.1519 79.2737 98.0431 77.3422 96.7987 75.3407 95.4528 73.3253 95.0172 72.6732 95.1926 71.7916 95.8447 71.356 95.8447 71.3558 95.8449 71.3558 95.8452 71.3556ZM99.9699 51.9005C99.5577 52.5678 98.6826 52.7744 98.0156 52.3621 97.3483 51.9501 97.1415 51.075 97.5537 50.4078 98.8356 48.3326 99.9955 46.2872 101.002 44.3289 101.354 43.6279 102.208 43.3454 102.908 43.6976 103.609 44.0498 103.892 44.9036 103.54 45.6044 103.536 45.6118 103.532 45.6192 103.528 45.6264 102.489 47.651 101.292 49.7619 99.9709 51.9005ZM103.058 83.5793C103.771 83.2526 104.613 83.5651 104.94 84.2778 104.94 84.2783 104.94 84.2788 104.94 84.2793 105.967 86.4884 106.836 88.7679 107.539 91.1006 107.761 91.8529 107.33 92.6424 106.577 92.8637 105.825 93.0847 105.036 92.6541 104.815 91.9017 104.149 89.6998 103.329 87.548 102.359 85.4622 102.032 84.7493 102.345 83.9065 103.058 83.5798 103.059 83.5795 103.059 83.5795 103.059 83.5793ZM106.497 39.0006C106.22 39.7348 105.401 40.1062 104.667 39.8301 103.933 39.5537 103.562 38.735 103.838 38.0007 104.662 35.8832 105.269 33.6879 105.652 31.4483 105.784 30.6749 106.517 30.1543 107.29 30.2855 108.05 30.4145 108.568 31.1254 108.459 31.8881 108.046 34.319 107.389 36.702 106.498 39.0006ZM107.166 25.9866C106.43 26.2567 105.615 25.8804 105.342 25.1455 105.056 24.3407 104.598 23.6079 104 22.9981 100.778 19.7755 93.3399 20.6992 83.5917 25.5339 73.2452 30.6648 61.4999 39.5381 50.5191 50.5182 46.3897 54.6382 42.4785 58.9713 38.8014 63.4999 42.478 68.0285 46.3889 72.3614 50.5182 76.4814 54.6372 80.6097 58.9693 84.5199 63.4967 88.1957 63.9727 87.811 64.4479 87.4225 64.922 87.0299 65.5141 86.5157 66.411 86.5787 66.9252 87.1707 67.4396 87.7628 67.3764 88.6598 66.7843 89.1742 66.7674 89.1889 66.7503 89.203 66.7327 89.2169 66.414 89.4811 66.0935 89.7413 65.7735 90.002 71.8943 94.758 77.9499 98.6689 83.5897 101.466 93.3379 106.3 100.777 107.224 104 104.001 105.236 102.766 105.872 100.905 105.889 98.4735 105.894 97.6931 106.528 97.0633 107.309 97.0633L107.319 97.0633C108.103 97.0691 108.734 97.709 108.729 98.4933 108.707 101.698 107.791 104.227 106.009 106.009 104.202 107.816 101.615 108.714 98.3743 108.715 94.0798 108.715 88.6365 107.139 82.3276 104.01 76.3594 101.05 69.9501 96.8895 63.4935 91.8248 62.6953 92.4504 61.898 93.0651 61.1063 93.6604 60.4819 94.1349 59.591 94.0136 59.1164 93.3893 58.6417 92.7649 58.7632 91.874 59.3876 91.3992 59.392 91.396 59.3965 91.3925 59.4009 91.3893 60.0027 90.9373 60.6082 90.4715 61.2144 90.0002 56.789 86.3787 52.5484 82.5367 48.5092 78.4889 44.4596 74.4479 40.6161 70.2056 36.9932 65.778 32.2389 71.8973 28.3291 77.9514 25.5334 83.59 20.6987 93.3382 19.7745 100.778 22.9979 104.001 24.2341 105.237 26.0945 105.873 28.5254 105.891 29.3097 105.897 29.941 106.537 29.9355 107.321 29.93 108.105 29.2898 108.737 28.5055 108.731 25.3007 108.709 22.7719 107.793 20.9897 106.011 16.7888 101.81 17.4987 93.4002 22.9887 82.3299 25.9477 76.3634 30.1076 69.9561 35.1698 63.5012 30.1069 57.0462 25.9477 50.639 22.9887 44.6724 17.4987 33.6021 16.7888 25.1921 20.9897 20.9912 21.8893 20.102 22.9719 19.4198 24.1622 18.9919 24.8949 18.7121 25.716 19.0793 25.9958 19.8121 26.2756 20.5449 25.9085 21.3658 25.1755 21.6457 25.1656 21.6495 25.1551 21.6533 25.145 21.6569 24.3402 21.9431 23.6074 22.4013 22.9979 22.9996 19.7733 26.2227 20.6987 33.6621 25.5334 43.4104 28.3296 49.049 32.2394 55.103 36.9932 61.2224 44.251 52.3718 52.3639 44.2584 61.2142 37.0004 59.5575 35.714 57.8928 34.4765 56.2532 33.3203 55.6215 32.8553 55.4865 31.9663 55.9514 31.3345 56.4033 30.7208 57.2588 30.573 57.8903 30.9996 59.7415 32.3058 61.6254 33.7108 63.493 35.175 69.9494 30.1106 76.3582 25.9501 82.3259 22.9904 93.3957 17.5002 101.806 16.7893 106.007 20.9914 106.896 21.891 107.579 22.9737 108.006 24.1639 108.277 24.8987 107.902 25.714 107.168 25.9866Z" fill="#FFFFFF" fill-rule="nonzero" fill-opacity="1" transform="matrix(1 0 0 1.00788 20 19.7499)"/></g></g></g></g></g><g clip-path="url(#clip12)" filter="url(#fx1)" transform="translate(376 1212)"><g clip-path="url(#clip13)"><g clip-path="url(#clip14)"><g clip-path="url(#clip15)"><g clip-path="url(#clip16)"><path d="M63.4999 1.48828C29.2519 1.48833 1.48832 29.2519 1.48838 63.4999 1.4884 79.9464 8.02168 95.7192 19.651 107.349 43.8321 131.602 83.0956 131.66 107.349 107.479 131.602 83.2982 131.66 44.0347 107.479 19.7816 107.436 19.7381 107.392 19.6946 107.349 19.6512 95.745 7.98368 79.9553 1.44341 63.4999 1.48828ZM43.7142 24.0853C44.0727 23.3877 44.9287 23.1125 45.6264 23.4707 47.651 24.5102 49.7619 25.7073 51.9005 27.0284 52.5678 27.4406 52.7744 28.3158 52.3621 28.9828 51.9501 29.65 51.075 29.8569 50.4078 29.4446 48.3326 28.1627 46.2872 27.0028 44.3289 25.9968 43.6316 25.6383 43.3566 24.7829 43.7142 24.0853ZM30.2652 19.7229C30.3874 18.9486 31.1135 18.4194 31.8881 18.5397 34.319 18.9524 36.702 19.6098 39.0006 20.5018 39.7348 20.7779 40.1062 21.5969 39.8301 22.3311 39.554 23.0654 38.735 23.4367 38.0007 23.1606 35.8832 22.3371 33.6879 21.7293 31.4483 21.3464 30.6734 21.2248 30.1439 20.4983 30.2652 19.7234ZM42.7206 104.941C40.5115 105.968 38.2319 106.836 35.8993 107.54 35.147 107.761 34.3574 107.33 34.1362 106.578 33.9152 105.826 34.3458 105.036 35.0981 104.815 37.3 104.15 39.4518 103.329 41.5376 102.359 42.2478 102.027 43.0934 102.333 43.426 103.043 43.7589 103.753 43.453 104.598 42.7426 104.931 42.7352 104.935 42.7278 104.938 42.7201 104.942ZM55.2519 97.8152C53.1834 99.1965 51.1274 100.475 49.14 101.616 48.4596 102.006 47.5917 101.771 47.2013 101.091 46.8108 100.41 47.0457 99.5426 47.7261 99.1521 49.6577 98.0436 51.6592 96.7992 53.6745 95.4533 54.3229 95.0122 55.2062 95.1802 55.6475 95.8286 56.0885 96.477 55.9206 97.3603 55.2722 97.8015 55.2653 97.806 55.2586 97.8107 55.2516 97.8152ZM93.6601 65.8916C94.1347 66.5159 94.0134 67.4069 93.389 67.8814 92.7645 68.3562 91.8737 68.2346 91.399 67.6103 91.3957 67.6058 91.3923 67.6014 91.389 67.5969 90.0163 65.7691 88.5499 63.9117 87.0301 62.0769 86.5159 61.4848 86.5789 60.5878 87.171 60.0736 87.7631 59.5592 88.66 59.6225 89.1745 60.2145 89.1891 60.2314 89.2032 60.2485 89.2171 60.2661 89.4796 60.5829 89.738 60.9014 89.9975 61.2194 91.2849 59.5612 92.5236 57.8956 93.6807 56.2555 94.128 55.611 95.0127 55.4513 95.6569 55.8985 96.3013 56.3455 96.4611 57.2303 96.0141 57.8747 96.0099 57.8807 96.0057 57.8866 96.0015 57.8926 94.694 59.7455 93.2876 61.6314 91.8219 63.5007 92.4487 64.3006 93.0646 65.0993 93.6601 65.8926ZM70.2418 82.4197C71.963 80.8622 73.6872 79.236 75.3655 77.5872 75.931 77.0435 76.8299 77.0611 77.3737 77.6267 77.9092 78.1835 77.9012 79.0663 77.356 79.6135 75.65 81.2896 73.8975 82.9421 72.1471 84.5248 71.5654 85.0509 70.6675 85.0061 70.1414 84.4244 69.615 83.843 69.6599 82.9448 70.2416 82.4187ZM67.3198 41.997C66.7206 41.4912 66.6447 40.5953 67.1504 39.9958 67.6562 39.3965 68.5521 39.3206 69.1517 39.8266 69.1593 39.8331 69.1673 39.84 69.175 39.8467 70.9587 41.3846 72.7491 42.9969 74.4966 44.6387 75.0683 45.1755 75.0966 46.0744 74.5598 46.6461 74.023 47.2179 73.1241 47.2462 72.5524 46.7094 70.8329 45.0949 69.0725 43.5098 67.3198 41.997ZM77.589 51.6344C77.0452 51.0688 77.0629 50.1699 77.6284 49.6262 78.1853 49.0906 79.0681 49.0986 79.6152 49.6438 81.2913 51.3499 82.9438 53.1023 84.5266 54.8528 85.0527 55.4344 85.0078 56.3324 84.4264 56.8587 83.8447 57.3848 82.9465 57.3399 82.4204 56.7583 80.8632 55.0368 79.236 53.3126 77.5872 51.6344ZM80.2927 72.5516C81.9067 70.8329 83.4925 69.0725 85.0056 67.3178 85.5178 66.724 86.4145 66.6578 87.0085 67.1703 87.6024 67.6825 87.6683 68.5792 87.1561 69.173 85.6182 70.9567 84.0059 72.7471 82.3641 74.4946 81.8273 75.0663 80.9284 75.0946 80.3567 74.5578 79.7849 74.0211 79.7566 73.1221 80.2934 72.5504ZM95.8452 71.3556C96.4973 70.92 97.3789 71.0956 97.8144 71.7477 97.8144 71.7477 97.8147 71.748 97.8147 71.748 99.196 73.8164 100.475 75.8725 101.615 77.8598 102.006 78.54 101.771 79.4079 101.09 79.7983 100.41 80.1887 99.5423 79.9538 99.1519 79.2737 98.0431 77.3422 96.7987 75.3407 95.4528 73.3253 95.0172 72.6732 95.1926 71.7916 95.8447 71.356 95.8447 71.3558 95.8449 71.3558 95.8452 71.3556ZM99.9699 51.9005C99.5577 52.5678 98.6826 52.7744 98.0156 52.3621 97.3483 51.9501 97.1415 51.075 97.5537 50.4078 98.8356 48.3326 99.9955 46.2872 101.002 44.3289 101.354 43.6279 102.208 43.3454 102.908 43.6976 103.609 44.0498 103.892 44.9036 103.54 45.6044 103.536 45.6118 103.532 45.6192 103.528 45.6264 102.489 47.651 101.292 49.7619 99.9709 51.9005ZM103.058 83.5793C103.771 83.2526 104.613 83.5651 104.94 84.2778 104.94 84.2783 104.94 84.2788 104.94 84.2793 105.967 86.4884 106.836 88.7679 107.539 91.1006 107.761 91.8529 107.33 92.6424 106.577 92.8637 105.825 93.0847 105.036 92.6541 104.815 91.9017 104.149 89.6998 103.329 87.548 102.359 85.4622 102.032 84.7493 102.345 83.9065 103.058 83.5798 103.059 83.5795 103.059 83.5795 103.059 83.5793ZM106.497 39.0006C106.22 39.7348 105.401 40.1062 104.667 39.8301 103.933 39.5537 103.562 38.735 103.838 38.0007 104.662 35.8832 105.269 33.6879 105.652 31.4483 105.784 30.6749 106.517 30.1543 107.29 30.2855 108.05 30.4145 108.568 31.1254 108.459 31.8881 108.046 34.319 107.389 36.702 106.498 39.0006ZM107.166 25.9866C106.43 26.2567 105.615 25.8804 105.342 25.1455 105.056 24.3407 104.598 23.6079 104 22.9981 100.778 19.7755 93.3399 20.6992 83.5917 25.5339 73.2452 30.6648 61.4999 39.5381 50.5191 50.5182 46.3897 54.6382 42.4785 58.9713 38.8014 63.4999 42.478 68.0285 46.3889 72.3614 50.5182 76.4814 54.6372 80.6097 58.9693 84.5199 63.4967 88.1957 63.9727 87.811 64.4479 87.4225 64.922 87.0299 65.5141 86.5157 66.411 86.5787 66.9252 87.1707 67.4396 87.7628 67.3764 88.6598 66.7843 89.1742 66.7674 89.1889 66.7503 89.203 66.7327 89.2169 66.414 89.4811 66.0935 89.7413 65.7735 90.002 71.8943 94.758 77.9499 98.6689 83.5897 101.466 93.3379 106.3 100.777 107.224 104 104.001 105.236 102.766 105.872 100.905 105.889 98.4735 105.894 97.6931 106.528 97.0633 107.309 97.0633L107.319 97.0633C108.103 97.0691 108.734 97.709 108.729 98.4933 108.707 101.698 107.791 104.227 106.009 106.009 104.202 107.816 101.615 108.714 98.3743 108.715 94.0798 108.715 88.6365 107.139 82.3276 104.01 76.3594 101.05 69.9501 96.8895 63.4935 91.8248 62.6953 92.4504 61.898 93.0651 61.1063 93.6604 60.4819 94.1349 59.591 94.0136 59.1164 93.3893 58.6417 92.7649 58.7632 91.874 59.3876 91.3992 59.392 91.396 59.3965 91.3925 59.4009 91.3893 60.0027 90.9373 60.6082 90.4715 61.2144 90.0002 56.789 86.3787 52.5484 82.5367 48.5092 78.4889 44.4596 74.4479 40.6161 70.2056 36.9932 65.778 32.2389 71.8973 28.3291 77.9514 25.5334 83.59 20.6987 93.3382 19.7745 100.778 22.9979 104.001 24.2341 105.237 26.0945 105.873 28.5254 105.891 29.3097 105.897 29.941 106.537 29.9355 107.321 29.93 108.105 29.2898 108.737 28.5055 108.731 25.3007 108.709 22.7719 107.793 20.9897 106.011 16.7888 101.81 17.4987 93.4002 22.9887 82.3299 25.9477 76.3634 30.1076 69.9561 35.1698 63.5012 30.1069 57.0462 25.9477 50.639 22.9887 44.6724 17.4987 33.6021 16.7888 25.1921 20.9897 20.9912 21.8893 20.102 22.9719 19.4198 24.1622 18.9919 24.8949 18.7121 25.716 19.0793 25.9958 19.8121 26.2756 20.5449 25.9085 21.3658 25.1755 21.6457 25.1656 21.6495 25.1551 21.6533 25.145 21.6569 24.3402 21.9431 23.6074 22.4013 22.9979 22.9996 19.7733 26.2227 20.6987 33.6621 25.5334 43.4104 28.3296 49.049 32.2394 55.103 36.9932 61.2224 44.251 52.3718 52.3639 44.2584 61.2142 37.0004 59.5575 35.714 57.8928 34.4765 56.2532 33.3203 55.6215 32.8553 55.4865 31.9663 55.9514 31.3345 56.4033 30.7208 57.2588 30.573 57.8903 30.9996 59.7415 32.3058 61.6254 33.7108 63.493 35.175 69.9494 30.1106 76.3582 25.9501 82.3259 22.9904 93.3957 17.5002 101.806 16.7893 106.007 20.9914 106.896 21.891 107.579 22.9737 108.006 24.1639 108.277 24.8987 107.902 25.714 107.168 25.9866Z" fill="#BFBFBF" fill-rule="nonzero" fill-opacity="1" transform="matrix(1 0 0 1.00788 20 19.7499)"/></g></g></g></g></g><g clip-path="url(#clip17)"><g clip-path="url(#clip18)"><g clip-path="url(#clip19)"><path d="M63.4999 1.48828C29.2519 1.48833 1.48832 29.2519 1.48838 63.4999 1.4884 79.9464 8.02168 95.7192 19.651 107.349 43.8321 131.602 83.0956 131.66 107.349 107.479 131.602 83.2982 131.66 44.0347 107.479 19.7816 107.436 19.7381 107.392 19.6946 107.349 19.6512 95.745 7.98368 79.9553 1.44341 63.4999 1.48828ZM43.7142 24.0853C44.0727 23.3877 44.9287 23.1125 45.6264 23.4707 47.651 24.5102 49.7619 25.7073 51.9005 27.0284 52.5678 27.4406 52.7744 28.3158 52.3621 28.9828 51.9501 29.65 51.075 29.8569 50.4078 29.4446 48.3326 28.1627 46.2872 27.0028 44.3289 25.9968 43.6316 25.6383 43.3566 24.7829 43.7142 24.0853ZM30.2652 19.7229C30.3874 18.9486 31.1135 18.4194 31.8881 18.5397 34.319 18.9524 36.702 19.6098 39.0006 20.5018 39.7348 20.7779 40.1062 21.5969 39.8301 22.3311 39.554 23.0654 38.735 23.4367 38.0007 23.1606 35.8832 22.3371 33.6879 21.7293 31.4483 21.3464 30.6734 21.2248 30.1439 20.4983 30.2652 19.7234ZM42.7206 104.941C40.5115 105.968 38.2319 106.836 35.8993 107.54 35.147 107.761 34.3574 107.33 34.1362 106.578 33.9152 105.826 34.3458 105.036 35.0981 104.815 37.3 104.15 39.4518 103.329 41.5376 102.359 42.2478 102.027 43.0934 102.333 43.426 103.043 43.7589 103.753 43.453 104.598 42.7426 104.931 42.7352 104.935 42.7278 104.938 42.7201 104.942ZM55.2519 97.8152C53.1834 99.1965 51.1274 100.475 49.14 101.616 48.4596 102.006 47.5917 101.771 47.2013 101.091 46.8108 100.41 47.0457 99.5426 47.7261 99.1521 49.6577 98.0436 51.6592 96.7992 53.6745 95.4533 54.3229 95.0122 55.2062 95.1802 55.6475 95.8286 56.0885 96.477 55.9206 97.3603 55.2722 97.8015 55.2653 97.806 55.2586 97.8107 55.2516 97.8152ZM93.6601 65.8916C94.1347 66.5159 94.0134 67.4069 93.389 67.8814 92.7645 68.3562 91.8737 68.2346 91.399 67.6103 91.3957 67.6058 91.3923 67.6014 91.389 67.5969 90.0163 65.7691 88.5499 63.9117 87.0301 62.0769 86.5159 61.4848 86.5789 60.5878 87.171 60.0736 87.7631 59.5592 88.66 59.6225 89.1745 60.2145 89.1891 60.2314 89.2032 60.2485 89.2171 60.2661 89.4796 60.5829 89.738 60.9014 89.9975 61.2194 91.2849 59.5612 92.5236 57.8956 93.6807 56.2555 94.128 55.611 95.0127 55.4513 95.6569 55.8985 96.3013 56.3455 96.4611 57.2303 96.0141 57.8747 96.0099 57.8807 96.0057 57.8866 96.0015 57.8926 94.694 59.7455 93.2876 61.6314 91.8219 63.5007 92.4487 64.3006 93.0646 65.0993 93.6601 65.8926ZM70.2418 82.4197C71.963 80.8622 73.6872 79.236 75.3655 77.5872 75.931 77.0435 76.8299 77.0611 77.3737 77.6267 77.9092 78.1835 77.9012 79.0663 77.356 79.6135 75.65 81.2896 73.8975 82.9421 72.1471 84.5248 71.5654 85.0509 70.6675 85.0061 70.1414 84.4244 69.615 83.843 69.6599 82.9448 70.2416 82.4187ZM67.3198 41.997C66.7206 41.4912 66.6447 40.5953 67.1504 39.9958 67.6562 39.3965 68.5521 39.3206 69.1517 39.8266 69.1593 39.8331 69.1673 39.84 69.175 39.8467 70.9587 41.3846 72.7491 42.9969 74.4966 44.6387 75.0683 45.1755 75.0966 46.0744 74.5598 46.6461 74.023 47.2179 73.1241 47.2462 72.5524 46.7094 70.8329 45.0949 69.0725 43.5098 67.3198 41.997ZM77.589 51.6344C77.0452 51.0688 77.0629 50.1699 77.6284 49.6262 78.1853 49.0906 79.0681 49.0986 79.6152 49.6438 81.2913 51.3499 82.9438 53.1023 84.5266 54.8528 85.0527 55.4344 85.0078 56.3324 84.4264 56.8587 83.8447 57.3848 82.9465 57.3399 82.4204 56.7583 80.8632 55.0368 79.236 53.3126 77.5872 51.6344ZM80.2927 72.5516C81.9067 70.8329 83.4925 69.0725 85.0056 67.3178 85.5178 66.724 86.4145 66.6578 87.0085 67.1703 87.6024 67.6825 87.6683 68.5792 87.1561 69.173 85.6182 70.9567 84.0059 72.7471 82.3641 74.4946 81.8273 75.0663 80.9284 75.0946 80.3567 74.5578 79.7849 74.0211 79.7566 73.1221 80.2934 72.5504ZM95.8452 71.3556C96.4973 70.92 97.3789 71.0956 97.8144 71.7477 97.8144 71.7477 97.8147 71.748 97.8147 71.748 99.196 73.8164 100.475 75.8725 101.615 77.8598 102.006 78.54 101.771 79.4079 101.09 79.7983 100.41 80.1887 99.5423 79.9538 99.1519 79.2737 98.0431 77.3422 96.7987 75.3407 95.4528 73.3253 95.0172 72.6732 95.1926 71.7916 95.8447 71.356 95.8447 71.3558 95.8449 71.3558 95.8452 71.3556ZM99.9699 51.9005C99.5577 52.5678 98.6826 52.7744 98.0156 52.3621 97.3483 51.9501 97.1415 51.075 97.5537 50.4078 98.8356 48.3326 99.9955 46.2872 101.002 44.3289 101.354 43.6279 102.208 43.3454 102.908 43.6976 103.609 44.0498 103.892 44.9036 103.54 45.6044 103.536 45.6118 103.532 45.6192 103.528 45.6264 102.489 47.651 101.292 49.7619 99.9709 51.9005ZM103.058 83.5793C103.771 83.2526 104.613 83.5651 104.94 84.2778 104.94 84.2783 104.94 84.2788 104.94 84.2793 105.967 86.4884 106.836 88.7679 107.539 91.1006 107.761 91.8529 107.33 92.6424 106.577 92.8637 105.825 93.0847 105.036 92.6541 104.815 91.9017 104.149 89.6998 103.329 87.548 102.359 85.4622 102.032 84.7493 102.345 83.9065 103.058 83.5798 103.059 83.5795 103.059 83.5795 103.059 83.5793ZM106.497 39.0006C106.22 39.7348 105.401 40.1062 104.667 39.8301 103.933 39.5537 103.562 38.735 103.838 38.0007 104.662 35.8832 105.269 33.6879 105.652 31.4483 105.784 30.6749 106.517 30.1543 107.29 30.2855 108.05 30.4145 108.568 31.1254 108.459 31.8881 108.046 34.319 107.389 36.702 106.498 39.0006ZM107.166 25.9866C106.43 26.2567 105.615 25.8804 105.342 25.1455 105.056 24.3407 104.598 23.6079 104 22.9981 100.778 19.7755 93.3399 20.6992 83.5917 25.5339 73.2452 30.6648 61.4999 39.5381 50.5191 50.5182 46.3897 54.6382 42.4785 58.9713 38.8014 63.4999 42.478 68.0285 46.3889 72.3614 50.5182 76.4814 54.6372 80.6097 58.9693 84.5199 63.4967 88.1957 63.9727 87.811 64.4479 87.4225 64.922 87.0299 65.5141 86.5157 66.411 86.5787 66.9252 87.1707 67.4396 87.7628 67.3764 88.6598 66.7843 89.1742 66.7674 89.1889 66.7503 89.203 66.7327 89.2169 66.414 89.4811 66.0935 89.7413 65.7735 90.002 71.8943 94.758 77.9499 98.6689 83.5897 101.466 93.3379 106.3 100.777 107.224 104 104.001 105.236 102.766 105.872 100.905 105.889 98.4735 105.894 97.6931 106.528 97.0633 107.309 97.0633L107.319 97.0633C108.103 97.0691 108.734 97.709 108.729 98.4933 108.707 101.698 107.791 104.227 106.009 106.009 104.202 107.816 101.615 108.714 98.3743 108.715 94.0798 108.715 88.6365 107.139 82.3276 104.01 76.3594 101.05 69.9501 96.8895 63.4935 91.8248 62.6953 92.4504 61.898 93.0651 61.1063 93.6604 60.4819 94.1349 59.591 94.0136 59.1164 93.3893 58.6417 92.7649 58.7632 91.874 59.3876 91.3992 59.392 91.396 59.3965 91.3925 59.4009 91.3893 60.0027 90.9373 60.6082 90.4715 61.2144 90.0002 56.789 86.3787 52.5484 82.5367 48.5092 78.4889 44.4596 74.4479 40.6161 70.2056 36.9932 65.778 32.2389 71.8973 28.3291 77.9514 25.5334 83.59 20.6987 93.3382 19.7745 100.778 22.9979 104.001 24.2341 105.237 26.0945 105.873 28.5254 105.891 29.3097 105.897 29.941 106.537 29.9355 107.321 29.93 108.105 29.2898 108.737 28.5055 108.731 25.3007 108.709 22.7719 107.793 20.9897 106.011 16.7888 101.81 17.4987 93.4002 22.9887 82.3299 25.9477 76.3634 30.1076 69.9561 35.1698 63.5012 30.1069 57.0462 25.9477 50.639 22.9887 44.6724 17.4987 33.6021 16.7888 25.1921 20.9897 20.9912 21.8893 20.102 22.9719 19.4198 24.1622 18.9919 24.8949 18.7121 25.716 19.0793 25.9958 19.8121 26.2756 20.5449 25.9085 21.3658 25.1755 21.6457 25.1656 21.6495 25.1551 21.6533 25.145 21.6569 24.3402 21.9431 23.6074 22.4013 22.9979 22.9996 19.7733 26.2227 20.6987 33.6621 25.5334 43.4104 28.3296 49.049 32.2394 55.103 36.9932 61.2224 44.251 52.3718 52.3639 44.2584 61.2142 37.0004 59.5575 35.714 57.8928 34.4765 56.2532 33.3203 55.6215 32.8553 55.4865 31.9663 55.9514 31.3345 56.4033 30.7208 57.2588 30.573 57.8903 30.9996 59.7415 32.3058 61.6254 33.7108 63.493 35.175 69.9494 30.1106 76.3582 25.9501 82.3259 22.9904 93.3957 17.5002 101.806 16.7893 106.007 20.9914 106.896 21.891 107.579 22.9737 108.006 24.1639 108.277 24.8987 107.902 25.714 107.168 25.9866Z" fill="#BFBFBF" fill-rule="nonzero" fill-opacity="1" transform="matrix(1 0 0 1.00788 396 1218)"/></g></g></g><g clip-path="url(#clip20)" filter="url(#fx2)" transform="matrix(3.50758 0 0 3.48872 228 1064)"><g clip-path="url(#clip21)" transform="translate(1.42109e-14 0)"><g clip-path="url(#clip22)" transform="matrix(1 0 0 1 -1.66893e-06 9.53674e-07)"><g clip-path="url(#clip23)" transform="matrix(1 0 0 1 -1.66893e-06 9.53674e-07)"><g clip-path="url(#clip24)" transform="matrix(1 0 0 1 -1.66893e-06 9.53674e-07)"><path d="M18.1036 0.424304C8.33963 0.42432 0.424316 8.33963 0.424332 18.1036 0.424339 22.7925 2.28696 27.2893 5.60244 30.6048 12.4964 37.5192 23.6903 37.5359 30.6048 30.6421 37.5192 23.7481 37.5359 12.5542 30.6421 5.63968 30.6297 5.62727 30.6172 5.61488 30.6049 5.60251 27.2966 2.27612 22.795 0.411513 18.1036 0.424305ZM12.4628 6.86666C12.565 6.66776 12.809 6.58932 13.008 6.69142 13.5852 6.9878 14.187 7.32908 14.7967 7.70572 14.9869 7.82325 15.0458 8.07274 14.9283 8.2629 14.8108 8.45313 14.5613 8.51211 14.3711 8.39458 13.7795 8.02911 13.1964 7.69844 12.638 7.41161 12.4393 7.30942 12.3608 7.06554 12.4628 6.86666ZM8.62851 5.62295C8.66337 5.40219 8.87036 5.25131 9.09121 5.28563 9.78424 5.40328 10.4636 5.59069 11.119 5.845 11.3283 5.92372 11.4342 6.15722 11.3554 6.36654 11.2767 6.57587 11.0432 6.68174 10.8339 6.60302 10.2302 6.36826 9.60434 6.19497 8.96583 6.0858 8.74491 6.05112 8.59393 5.844 8.62851 5.62309ZM12.1795 29.9183C11.5497 30.2112 10.8998 30.4588 10.2348 30.6593 10.0203 30.7224 9.79521 30.5996 9.73213 30.3851 9.66912 30.1706 9.79188 29.9456 10.0064 29.8825 10.6341 29.6928 11.2476 29.4589 11.8423 29.1824 12.0447 29.0875 12.2858 29.1747 12.3806 29.3772 12.4755 29.5797 12.3883 29.8207 12.1858 29.9156 12.1837 29.9166 12.1816 29.9176 12.1794 29.9185ZM15.7522 27.8868C15.1624 28.2807 14.5763 28.6452 14.0097 28.9704 13.8157 29.0817 13.5683 29.0147 13.457 28.8207 13.3456 28.6267 13.4126 28.3793 13.6066 28.268 14.1573 27.952 14.7279 27.5972 15.3025 27.2135 15.4873 27.0877 15.7391 27.1356 15.8649 27.3205 15.9907 27.5053 15.9428 27.7571 15.758 27.8829 15.756 27.8842 15.7541 27.8856 15.7521 27.8868ZM26.7022 18.7855C26.8375 18.9635 26.8029 19.2175 26.625 19.3528 26.4469 19.4882 26.1929 19.4535 26.0576 19.2755 26.0567 19.2742 26.0557 19.273 26.0548 19.2717 25.6634 18.7506 25.2453 18.221 24.812 17.6979 24.6654 17.5291 24.6834 17.2734 24.8522 17.1268 25.021 16.9802 25.2767 16.9982 25.4234 17.167 25.4276 17.1718 25.4316 17.1767 25.4356 17.1817 25.5104 17.272 25.5841 17.3628 25.658 17.4535 26.0251 16.9807 26.3782 16.5059 26.7081 16.0383 26.8356 15.8546 27.0879 15.809 27.2715 15.9365 27.4552 16.0639 27.5008 16.3162 27.3734 16.4999 27.3722 16.5016 27.3709 16.5033 27.3697 16.505 26.997 17.0333 26.596 17.5709 26.1782 18.1039 26.3569 18.3319 26.5325 18.5596 26.7022 18.7858ZM20.0257 23.4976C20.5165 23.0536 21.008 22.59 21.4865 22.1199 21.6477 21.9649 21.904 21.9699 22.059 22.1311 22.2117 22.2899 22.2094 22.5416 22.054 22.6976 21.5676 23.1754 21.068 23.6465 20.5689 24.0978 20.4031 24.2478 20.1471 24.235 19.9971 24.0692 19.847 23.9034 19.8598 23.6473 20.0257 23.4973ZM19.1927 11.9732C19.0218 11.829 19.0002 11.5736 19.1444 11.4027 19.2886 11.2318 19.544 11.2102 19.7149 11.3545 19.7171 11.3563 19.7194 11.3583 19.7216 11.3602 20.2301 11.7986 20.7406 12.2583 21.2388 12.7264 21.4018 12.8794 21.4098 13.1357 21.2568 13.2987 21.1038 13.4617 20.8475 13.4698 20.6845 13.3167 20.1943 12.8564 19.6924 12.4045 19.1927 11.9732ZM22.1204 14.7208C21.9654 14.5596 21.9704 14.3033 22.1316 14.1483 22.2904 13.9956 22.5421 13.9979 22.6981 14.1533 23.1759 14.6397 23.647 15.1393 24.0983 15.6384 24.2483 15.8042 24.2355 16.0602 24.0697 16.2103 23.9039 16.3603 23.6478 16.3475 23.4978 16.1816 23.0539 15.6908 22.59 15.1993 22.1199 14.7208ZM22.8912 20.6843C23.3514 20.1943 23.8035 19.6924 24.2348 19.1921 24.3809 19.0228 24.6365 19.004 24.8059 19.1501 24.9752 19.2961 24.994 19.5517 24.848 19.721 24.4095 20.2296 23.9499 20.74 23.4818 21.2382 23.3287 21.4012 23.0725 21.4093 22.9095 21.2562 22.7465 21.1032 22.7384 20.8469 22.8914 20.6839ZM27.3252 20.3433C27.5111 20.2191 27.7624 20.2692 27.8866 20.4551 27.8866 20.4551 27.8867 20.4551 27.8867 20.4551 28.2805 21.0449 28.6451 21.631 28.9702 22.1976 29.0815 22.3915 29.0146 22.639 28.8206 22.7503 28.6267 22.8616 28.3792 22.7946 28.2679 22.6007 27.9518 22.05 27.597 21.4794 27.2133 20.9048 27.0891 20.7189 27.1391 20.4676 27.3251 20.3434 27.3251 20.3433 27.3251 20.3433 27.3252 20.3433ZM28.5012 14.7967C28.3836 14.9869 28.1341 15.0458 27.944 14.9283 27.7537 14.8108 27.6948 14.5613 27.8123 14.3711 28.1778 13.7795 28.5084 13.1964 28.7953 12.638 28.8957 12.4382 29.1391 12.3576 29.3389 12.4581 29.5387 12.5585 29.6193 12.8019 29.5189 13.0017 29.5179 13.0038 29.5167 13.0059 29.5157 13.008 29.2194 13.5852 28.8781 14.187 28.5014 14.7967ZM29.3816 23.8282C29.5847 23.7351 29.8248 23.8242 29.918 24.0274 29.918 24.0275 29.9181 24.0276 29.9182 24.0278 30.211 24.6576 30.4586 25.3075 30.6592 25.9725 30.7222 26.187 30.5995 26.4121 30.3849 26.4752 30.1704 26.5382 29.9454 26.4154 29.8823 26.2009 29.6927 25.5732 29.4587 24.9597 29.1822 24.365 29.0891 24.1618 29.1783 23.9215 29.3817 23.8284 29.3817 23.8283 29.3818 23.8283 29.3819 23.8282ZM30.3619 11.119C30.2832 11.3283 30.0497 11.4342 29.8403 11.3554 29.6311 11.2767 29.5252 11.0432 29.6039 10.8339 29.8388 10.2302 30.012 9.60434 30.1212 8.96583 30.1586 8.74534 30.3677 8.5969 30.5882 8.63431 30.8048 8.67108 30.9525 8.87376 30.9212 9.09121 30.8037 9.78424 30.6164 10.4636 30.3622 11.119ZM30.5528 7.40871C30.343 7.48572 30.1105 7.37844 30.0328 7.1689 29.9512 6.93946 29.8206 6.73056 29.65 6.5567 28.7316 5.63794 26.6109 5.90129 23.8318 7.27965 20.882 8.74244 17.5335 11.2722 14.4029 14.4026 13.2256 15.5772 12.1105 16.8126 11.0622 18.1036 12.1104 19.3947 13.2254 20.63 14.4026 21.8046 15.5769 22.9816 16.812 24.0964 18.1027 25.1443 18.2384 25.0347 18.3739 24.9239 18.5091 24.812 18.6779 24.6654 18.9336 24.6833 19.0802 24.8521 19.2269 25.0209 19.2088 25.2767 19.04 25.4233 19.0352 25.4275 19.0303 25.4315 19.0253 25.4355 18.9344 25.5108 18.8431 25.585 18.7518 25.6593 20.4969 27.0152 22.2233 28.1302 23.8312 28.9276 26.6104 30.3059 28.7313 30.5694 29.6502 29.6505 30.0026 29.2983 30.1837 28.7678 30.1886 28.0745 30.1902 27.852 30.3709 27.6725 30.5934 27.6725L30.5963 27.6725C30.8199 27.6741 30.9999 27.8566 30.9983 28.0802 30.992 28.9938 30.7309 29.7148 30.2228 30.2229 29.7077 30.7381 28.9702 30.9942 28.0462 30.9942 26.8219 30.9942 25.27 30.545 23.4714 29.653 21.7698 28.8091 19.9426 27.6229 18.1018 26.179 17.8742 26.3574 17.647 26.5326 17.4212 26.7023 17.2432 26.8376 16.9892 26.803 16.8539 26.625 16.7186 26.447 16.7532 26.193 16.9312 26.0577 16.9325 26.0567 16.9338 26.0557 16.935 26.0548 17.1066 25.926 17.2792 25.7932 17.4521 25.6588 16.1904 24.6263 14.9814 23.531 13.8298 22.377 12.6753 21.2249 11.5795 20.0154 10.5466 18.7531 9.19121 20.4977 8.07656 22.2237 7.27951 23.8313 5.90115 26.6105 5.63766 28.7314 6.55663 29.6503 6.90909 30.0029 7.43947 30.184 8.1325 30.1892 8.35611 30.1908 8.53608 30.3733 8.53453 30.5969 8.53297 30.8205 8.35045 31.0005 8.12684 30.999 7.21317 30.9926 6.49221 30.7316 5.9841 30.2235 4.78644 29.0258 4.98883 26.6281 6.55402 23.472 7.3976 21.771 8.5836 19.9443 10.0268 18.104 8.58339 16.2637 7.3976 14.437 6.55402 12.736 4.98883 9.57987 4.78644 7.1822 5.9841 5.98453 6.24058 5.73104 6.54924 5.53653 6.88858 5.41455 7.09748 5.33476 7.33155 5.43945 7.41132 5.64837 7.49109 5.85729 7.38643 6.09133 7.17746 6.17112 7.17463 6.17222 7.17166 6.1733 7.16876 6.17433 6.93931 6.25591 6.73041 6.38654 6.55663 6.55713 5.63731 7.47603 5.90115 9.59698 7.27951 12.3762 8.0767 13.9837 9.19135 15.7097 10.5466 17.4543 12.6158 14.9311 14.9288 12.618 17.452 10.5487 16.9797 10.182 16.5051 9.82915 16.0376 9.49954 15.8575 9.36694 15.8191 9.11349 15.9516 8.93337 16.0804 8.75842 16.3243 8.71627 16.5044 8.8379 17.0321 9.2103 17.5692 9.61085 18.1017 10.0283 19.9424 8.58445 21.7695 7.39831 23.4709 6.55451 26.6269 4.98925 29.0245 4.78658 30.2223 5.9846 30.4759 6.24106 30.6703 6.54973 30.7923 6.88907 30.8695 7.09854 30.7626 7.33099 30.5533 7.40871Z" fill="#FFFFFF" fill-rule="nonzero" fill-opacity="1" transform="matrix(1 0 0 1.01332 47.8963 48.0835)"/></g></g></g></g></g><g clip-path="url(#clip25)"><g clip-path="url(#clip26)"><g clip-path="url(#clip27)"><path d="M63.4999 1.48828C29.2519 1.48833 1.48832 29.2519 1.48838 63.4999 1.4884 79.9464 8.02168 95.7192 19.651 107.349 43.8321 131.602 83.0956 131.66 107.349 107.479 131.602 83.2982 131.66 44.0347 107.479 19.7816 107.436 19.7381 107.392 19.6946 107.349 19.6512 95.745 7.98368 79.9553 1.44341 63.4999 1.48828ZM43.7142 24.0853C44.0727 23.3877 44.9287 23.1125 45.6264 23.4707 47.651 24.5102 49.7619 25.7073 51.9005 27.0284 52.5678 27.4406 52.7744 28.3158 52.3621 28.9828 51.9501 29.65 51.075 29.8569 50.4078 29.4446 48.3326 28.1627 46.2872 27.0028 44.3289 25.9968 43.6316 25.6383 43.3566 24.7829 43.7142 24.0853ZM30.2652 19.7229C30.3874 18.9486 31.1135 18.4194 31.8881 18.5397 34.319 18.9524 36.702 19.6098 39.0006 20.5018 39.7348 20.7779 40.1062 21.5969 39.8301 22.3311 39.554 23.0654 38.735 23.4367 38.0007 23.1606 35.8832 22.3371 33.6879 21.7293 31.4483 21.3464 30.6734 21.2248 30.1439 20.4983 30.2652 19.7234ZM42.7206 104.941C40.5115 105.968 38.2319 106.836 35.8993 107.54 35.147 107.761 34.3574 107.33 34.1362 106.578 33.9152 105.826 34.3458 105.036 35.0981 104.815 37.3 104.15 39.4518 103.329 41.5376 102.359 42.2478 102.027 43.0934 102.333 43.426 103.043 43.7589 103.753 43.453 104.598 42.7426 104.931 42.7352 104.935 42.7278 104.938 42.7201 104.942ZM55.2519 97.8152C53.1834 99.1965 51.1274 100.475 49.14 101.616 48.4596 102.006 47.5917 101.771 47.2013 101.091 46.8108 100.41 47.0457 99.5426 47.7261 99.1521 49.6577 98.0436 51.6592 96.7992 53.6745 95.4533 54.3229 95.0122 55.2062 95.1802 55.6475 95.8286 56.0885 96.477 55.9206 97.3603 55.2722 97.8015 55.2653 97.806 55.2586 97.8107 55.2516 97.8152ZM93.6601 65.8916C94.1347 66.5159 94.0134 67.4069 93.389 67.8814 92.7645 68.3562 91.8737 68.2346 91.399 67.6103 91.3957 67.6058 91.3923 67.6014 91.389 67.5969 90.0163 65.7691 88.5499 63.9117 87.0301 62.0769 86.5159 61.4848 86.5789 60.5878 87.171 60.0736 87.7631 59.5592 88.66 59.6225 89.1745 60.2145 89.1891 60.2314 89.2032 60.2485 89.2171 60.2661 89.4796 60.5829 89.738 60.9014 89.9975 61.2194 91.2849 59.5612 92.5236 57.8956 93.6807 56.2555 94.128 55.611 95.0127 55.4513 95.6569 55.8985 96.3013 56.3455 96.4611 57.2303 96.0141 57.8747 96.0099 57.8807 96.0057 57.8866 96.0015 57.8926 94.694 59.7455 93.2876 61.6314 91.8219 63.5007 92.4487 64.3006 93.0646 65.0993 93.6601 65.8926ZM70.2418 82.4197C71.963 80.8622 73.6872 79.236 75.3655 77.5872 75.931 77.0435 76.8299 77.0611 77.3737 77.6267 77.9092 78.1835 77.9012 79.0663 77.356 79.6135 75.65 81.2896 73.8975 82.9421 72.1471 84.5248 71.5654 85.0509 70.6675 85.0061 70.1414 84.4244 69.615 83.843 69.6599 82.9448 70.2416 82.4187ZM67.3198 41.997C66.7206 41.4912 66.6447 40.5953 67.1504 39.9958 67.6562 39.3965 68.5521 39.3206 69.1517 39.8266 69.1593 39.8331 69.1673 39.84 69.175 39.8467 70.9587 41.3846 72.7491 42.9969 74.4966 44.6387 75.0683 45.1755 75.0966 46.0744 74.5598 46.6461 74.023 47.2179 73.1241 47.2462 72.5524 46.7094 70.8329 45.0949 69.0725 43.5098 67.3198 41.997ZM77.589 51.6344C77.0452 51.0688 77.0629 50.1699 77.6284 49.6262 78.1853 49.0906 79.0681 49.0986 79.6152 49.6438 81.2913 51.3499 82.9438 53.1023 84.5266 54.8528 85.0527 55.4344 85.0078 56.3324 84.4264 56.8587 83.8447 57.3848 82.9465 57.3399 82.4204 56.7583 80.8632 55.0368 79.236 53.3126 77.5872 51.6344ZM80.2927 72.5516C81.9067 70.8329 83.4925 69.0725 85.0056 67.3178 85.5178 66.724 86.4145 66.6578 87.0085 67.1703 87.6024 67.6825 87.6683 68.5792 87.1561 69.173 85.6182 70.9567 84.0059 72.7471 82.3641 74.4946 81.8273 75.0663 80.9284 75.0946 80.3567 74.5578 79.7849 74.0211 79.7566 73.1221 80.2934 72.5504ZM95.8452 71.3556C96.4973 70.92 97.3789 71.0956 97.8144 71.7477 97.8144 71.7477 97.8147 71.748 97.8147 71.748 99.196 73.8164 100.475 75.8725 101.615 77.8598 102.006 78.54 101.771 79.4079 101.09 79.7983 100.41 80.1887 99.5423 79.9538 99.1519 79.2737 98.0431 77.3422 96.7987 75.3407 95.4528 73.3253 95.0172 72.6732 95.1926 71.7916 95.8447 71.356 95.8447 71.3558 95.8449 71.3558 95.8452 71.3556ZM99.9699 51.9005C99.5577 52.5678 98.6826 52.7744 98.0156 52.3621 97.3483 51.9501 97.1415 51.075 97.5537 50.4078 98.8356 48.3326 99.9955 46.2872 101.002 44.3289 101.354 43.6279 102.208 43.3454 102.908 43.6976 103.609 44.0498 103.892 44.9036 103.54 45.6044 103.536 45.6118 103.532 45.6192 103.528 45.6264 102.489 47.651 101.292 49.7619 99.9709 51.9005ZM103.058 83.5793C103.771 83.2526 104.613 83.5651 104.94 84.2778 104.94 84.2783 104.94 84.2788 104.94 84.2793 105.967 86.4884 106.836 88.7679 107.539 91.1006 107.761 91.8529 107.33 92.6424 106.577 92.8637 105.825 93.0847 105.036 92.6541 104.815 91.9017 104.149 89.6998 103.329 87.548 102.359 85.4622 102.032 84.7493 102.345 83.9065 103.058 83.5798 103.059 83.5795 103.059 83.5795 103.059 83.5793ZM106.497 39.0006C106.22 39.7348 105.401 40.1062 104.667 39.8301 103.933 39.5537 103.562 38.735 103.838 38.0007 104.662 35.8832 105.269 33.6879 105.652 31.4483 105.784 30.6749 106.517 30.1543 107.29 30.2855 108.05 30.4145 108.568 31.1254 108.459 31.8881 108.046 34.319 107.389 36.702 106.498 39.0006ZM107.166 25.9866C106.43 26.2567 105.615 25.8804 105.342 25.1455 105.056 24.3407 104.598 23.6079 104 22.9981 100.778 19.7755 93.3399 20.6992 83.5917 25.5339 73.2452 30.6648 61.4999 39.5381 50.5191 50.5182 46.3897 54.6382 42.4785 58.9713 38.8014 63.4999 42.478 68.0285 46.3889 72.3614 50.5182 76.4814 54.6372 80.6097 58.9693 84.5199 63.4967 88.1957 63.9727 87.811 64.4479 87.4225 64.922 87.0299 65.5141 86.5157 66.411 86.5787 66.9252 87.1707 67.4396 87.7628 67.3764 88.6598 66.7843 89.1742 66.7674 89.1889 66.7503 89.203 66.7327 89.2169 66.414 89.4811 66.0935 89.7413 65.7735 90.002 71.8943 94.758 77.9499 98.6689 83.5897 101.466 93.3379 106.3 100.777 107.224 104 104.001 105.236 102.766 105.872 100.905 105.889 98.4735 105.894 97.6931 106.528 97.0633 107.309 97.0633L107.319 97.0633C108.103 97.0691 108.734 97.709 108.729 98.4933 108.707 101.698 107.791 104.227 106.009 106.009 104.202 107.816 101.615 108.714 98.3743 108.715 94.0798 108.715 88.6365 107.139 82.3276 104.01 76.3594 101.05 69.9501 96.8895 63.4935 91.8248 62.6953 92.4504 61.898 93.0651 61.1063 93.6604 60.4819 94.1349 59.591 94.0136 59.1164 93.3893 58.6417 92.7649 58.7632 91.874 59.3876 91.3992 59.392 91.396 59.3965 91.3925 59.4009 91.3893 60.0027 90.9373 60.6082 90.4715 61.2144 90.0002 56.789 86.3787 52.5484 82.5367 48.5092 78.4889 44.4596 74.4479 40.6161 70.2056 36.9932 65.778 32.2389 71.8973 28.3291 77.9514 25.5334 83.59 20.6987 93.3382 19.7745 100.778 22.9979 104.001 24.2341 105.237 26.0945 105.873 28.5254 105.891 29.3097 105.897 29.941 106.537 29.9355 107.321 29.93 108.105 29.2898 108.737 28.5055 108.731 25.3007 108.709 22.7719 107.793 20.9897 106.011 16.7888 101.81 17.4987 93.4002 22.9887 82.3299 25.9477 76.3634 30.1076 69.9561 35.1698 63.5012 30.1069 57.0462 25.9477 50.639 22.9887 44.6724 17.4987 33.6021 16.7888 25.1921 20.9897 20.9912 21.8893 20.102 22.9719 19.4198 24.1622 18.9919 24.8949 18.7121 25.716 19.0793 25.9958 19.8121 26.2756 20.5449 25.9085 21.3658 25.1755 21.6457 25.1656 21.6495 25.1551 21.6533 25.145 21.6569 24.3402 21.9431 23.6074 22.4013 22.9979 22.9996 19.7733 26.2227 20.6987 33.6621 25.5334 43.4104 28.3296 49.049 32.2394 55.103 36.9932 61.2224 44.251 52.3718 52.3639 44.2584 61.2142 37.0004 59.5575 35.714 57.8928 34.4765 56.2532 33.3203 55.6215 32.8553 55.4865 31.9663 55.9514 31.3345 56.4033 30.7208 57.2588 30.573 57.8903 30.9996 59.7415 32.3058 61.6254 33.7108 63.493 35.175 69.9494 30.1106 76.3582 25.9501 82.3259 22.9904 93.3957 17.5002 101.806 16.7893 106.007 20.9914 106.896 21.891 107.579 22.9737 108.006 24.1639 108.277 24.8987 107.902 25.714 107.168 25.9866Z" fill="#FFFFFF" fill-rule="nonzero" fill-opacity="1" transform="matrix(1 0 0 1.00788 396 1218)"/></g></g></g></g></svg>