<svg xmlns="http://www.w3.org/2000/svg" viewBox="0 0 128 128"><circle cx="64" cy="64" r="64" fill="#41e1d4" class="color6ea4bb svgShape"/><path fill="#4aaca4" d="m67.7 15.7 28.9 28.9H65.8z" class="color4a93ac svgShape"/><path fill="#4aaca4" d="M128 63.2 94.2 29.4l-60.1 75.3L57 127.6c2.3.3 4.6.4 7 .4 35.3 0 64-28.7 64-64v-.8z" class="color4a93ac svgShape"/><path fill="#04ffeb" d="M90.2 27.7H37.8c-3.3 0-6 2.9-6 6.5v65.4c0 3.6 2.7 6.5 6 6.5h52.3c3.3 0 6-2.9 6-6.5V34.2c0-3.6-2.6-6.5-5.9-6.5z" class="colorffcc04 svgShape"/><path fill="#fff" d="M35.8 34.7v66.6h43.3v-13h13.1V34.7z" class="colorffffff svgShape"/><path fill="#e5eceb" d="m79.1 101.3 13.1-13H79.1z" class="colore5e8ec svgShape"/><path fill="#586a69" d="M79.2 26h-8v-4.1c0-4-3.2-7.2-7.2-7.2s-7.2 3.2-7.2 7.2V26h-8c-2.8 0-5 2.2-5 5v5.5h40.5V31c-.1-2.8-2.3-5-5.1-5z" class="color6a5868 svgShape"/><path fill="#4a5a59" d="M43.8 34h40.5v2.6H43.8z" class="color5a4a56 svgShape"/><circle cx="64" cy="21.9" r="3.7" fill="#41e1d4" class="color6ea4bb svgShape"/><path fill="#62a6a0" d="M48.2 55.2h-6.4c-.8 0-1.4-.6-1.4-1.4v-6.4c0-.8.6-1.4 1.4-1.4h6.4c.8 0 1.4.6 1.4 1.4v6.4c0 .8-.6 1.4-1.4 1.4z" class="color8562a6 svgShape"/><path fill="#45efe1" d="M48.2 68.9h-6.4c-.8 0-1.4-.6-1.4-1.4v-6.4c0-.8.6-1.4 1.4-1.4h6.4c.8 0 1.4.6 1.4 1.4v6.4c0 .8-.6 1.4-1.4 1.4z" class="coloref4c45 svgShape"/><path fill="#52bab2" d="M48.2 82.5h-6.4c-.8 0-1.4-.6-1.4-1.4v-6.4c0-.8.6-1.4 1.4-1.4h6.4c.8 0 1.4.6 1.4 1.4v6.4c0 .8-.6 1.4-1.4 1.4z" class="color52ba5a svgShape"/><path fill="#e5eceb" d="M86.1 49H55c-.8 0-1.5-.7-1.5-1.5S54.2 46 55 46h31.1c.8 0 1.5.7 1.5 1.5s-.7 1.5-1.5 1.5zM75.2 54.3H55c-.8 0-1.5-.7-1.5-1.5s.7-1.5 1.5-1.5h20.2c.8 0 1.5.7 1.5 1.5s-.7 1.5-1.5 1.5zM86.1 62.7H55c-.8 0-1.5-.7-1.5-1.5s.7-1.5 1.5-1.5h31.1c.8 0 1.5.7 1.5 1.5s-.7 1.5-1.5 1.5zM75.2 68H55c-.8 0-1.5-.7-1.5-1.5S54.2 65 55 65h20.2c.8 0 1.5.7 1.5 1.5S76 68 75.2 68zM86.1 76.4H55c-.8 0-1.5-.7-1.5-1.5s.7-1.5 1.5-1.5h31.1c.8 0 1.5.7 1.5 1.5 0 .9-.7 1.5-1.5 1.5zM75.2 81.7H55c-.8 0-1.5-.7-1.5-1.5s.7-1.5 1.5-1.5h20.2c.8 0 1.5.7 1.5 1.5 0 .9-.7 1.5-1.5 1.5z" class="colore5e8ec svgShape"/></svg>