<svg xmlns="http://www.w3.org/2000/svg" viewBox="0 0 128 128"><circle cx="64" cy="64" r="64" fill="#30d6c9" class="colorbed630 svgShape"/><path fill="#37c4b9" d="m93 34.1-62.8 68.5 25.3 24.9c2.8.4 5.6.6 8.5.6 33.7 0 61.3-26.1 63.8-59.2L93 34.1z" class="colorabc437 svgShape"/><path fill="#445b59" d="m67 90.5 2.4 3.1c1.1 1.4 2.8 2.3 4.6 2.3h19c3.3 0 5.9-2.6 5.9-5.9V46.6c0-2.2-1.8-4-4-4H33.2c-2.2 0-4 1.8-4 4v35.7c0 3.3 2.6 5.9 5.9 5.9h27.4c1.7.1 3.4.9 4.5 2.3z" class="color444d5b svgShape"/><path fill="#fff" d="M38.3 19.3h39.9v11.4c0 1.9 1.5 3.4 3.4 3.4H93v52.8c0 1.9-1.5 3.4-3.4 3.4H38.3c-1.9 0-3.4-1.5-3.4-3.4V22.6c.1-1.8 1.6-3.3 3.4-3.3z" class="colorffffff svgShape"/><path fill="#41e1d4" d="M78.2 19.3 93 34.1H81.6c-1.9 0-3.4-1.5-3.4-3.4V19.3z" class="color0bb6ea svgShape"/><path fill="#e5eceb" d="M93 46.9V34.1H81.6c-.9 0-1.7-.4-2.3-.9L93 46.9z" class="colore5e8ec svgShape"/><path fill="#45efe1" d="M48.3 47.4v-2c-2.5-.3-4.7-1.2-6.7-3l2-2.4c1.5 1.3 3.1 2.1 4.7 2.4v-5.3c-2.1-.5-3.6-1.1-4.5-1.9-1-.8-1.4-2-1.4-3.6s.5-2.9 1.6-3.8c1.1-1 2.5-1.5 4.3-1.6v-1.4H50v1.4c2 .1 3.9.8 5.7 2l-1.8 2.5c-1.2-.9-2.5-1.4-3.9-1.6v5.1h.1c2.1.5 3.6 1.2 4.6 2 1 .8 1.5 2 1.5 3.6s-.6 2.9-1.7 3.9-2.6 1.5-4.5 1.6v2h-1.7zm-1.9-17.5c-.5.4-.7.9-.7 1.5s.2 1.1.5 1.4 1.1.7 2.1 1v-4.7c-.8.1-1.4.4-1.9.8zm5.7 11.9c.5-.4.8-.9.8-1.6 0-.6-.2-1.1-.6-1.5-.4-.4-1.1-.7-2.2-1v4.9c.8-.1 1.5-.4 2-.8z" class="coloref4c45 svgShape"/><path fill="#52bab2" d="M76.7 38.3H61.5c-.9 0-1.6-.7-1.6-1.6 0-.9.7-1.6 1.6-1.6h15.1c.9 0 1.6.7 1.6 1.6 0 .9-.7 1.6-1.5 1.6z" class="color52ba5a svgShape"/><path fill="#e5eceb" d="M82.8 50H61.5c-.9 0-1.6-.7-1.6-1.6 0-.9.7-1.6 1.6-1.6h21.3c.9 0 1.6.7 1.6 1.6 0 .9-.7 1.6-1.6 1.6zM82.8 44.1H61.5c-.9 0-1.6-.7-1.6-1.6 0-.9.7-1.6 1.6-1.6h21.3c.9 0 1.6.7 1.6 1.6 0 .9-.7 1.6-1.6 1.6zM82.8 55.8H61.5c-.9 0-1.6-.7-1.6-1.6 0-.9.7-1.6 1.6-1.6h21.3c.9 0 1.6.7 1.6 1.6 0 .9-.7 1.6-1.6 1.6z" class="colore5e8ec svgShape"/><path fill="#536f6d" d="m61 55.9-2.4-3.1c-1.1-1.4-2.8-2.3-4.6-2.3H35c-3.3 0-5.9 2.6-5.9 5.9v43.4c0 2.2 1.8 4 4 4h61.7c2.2 0 4-1.8 4-4V64.1c0-3.3-2.6-5.9-5.9-5.9H65.6c-1.8 0-3.5-.9-4.6-2.3z" class="color535e6f svgShape"/></svg>