<svg xmlns="http://www.w3.org/2000/svg" enable-background="new 0 0 512 512" viewBox="0 0 512 512"><polygon points="426 476 86 476 86 36 259.245 36 426 91.585" class="color000000 svgShape"/><linearGradient id="a" x1="256" x2="256" y1="57.388" y2="468.755" gradientUnits="userSpaceOnUse"><stop class="stopColor37b34a svgShape" offset="0" stop-color="#37b3a9"/><stop class="stopColor009345 svgShape" offset="1" stop-color="#009387"/></linearGradient><polygon fill="url(#a)" points="406 456 106 456 106 56 256 56 406 106"/><linearGradient id="b" x1="321" x2="321" y1="164.56" y2="53.712" gradientUnits="userSpaceOnUse"><stop class="stopColor039545 svgShape" offset="0" stop-color="#039589" stop-opacity="0"/><stop class="stopColor117a3b svgShape" offset="1" stop-color="#117a71"/></linearGradient><polygon fill="url(#b)" points="256 56 366 146 406 106 406 126 366 166 236 56"/><linearGradient id="c" x1="386" x2="386" y1="162.866" y2="115.658" gradientUnits="userSpaceOnUse"><stop class="stopColor039545 svgShape" offset=".103" stop-color="#039589" stop-opacity="0"/><stop class="stopColor0d823e svgShape" offset=".621" stop-color="#0d8278" stop-opacity=".578"/><stop class="stopColor117a3b svgShape" offset="1" stop-color="#117a71"/></linearGradient><polygon fill="url(#c)" points="406 106 406 166 366 166 366 146"/><linearGradient id="d" x1="425.454" x2="89.563" y1="451" y2="451" gradientUnits="userSpaceOnUse"><stop class="stopColor039545 svgShape" offset="0" stop-color="#039589" stop-opacity="0"/><stop class="stopColor117a3b svgShape" offset="1" stop-color="#117a71"/></linearGradient><rect width="300" height="10" x="106" y="446" fill="url(#d)"/><linearGradient id="e" x1="314.593" x2="333.793" y1="125.395" y2="73.442" gradientUnits="userSpaceOnUse"><stop class="stopColorffffff svgShape" offset=".322" stop-color="#fff"/><stop class="stopColoreae8e9 svgShape" offset=".684" stop-color="#e8eaea"/><stop class="stopColorc6c7cb svgShape" offset=".808" stop-color="#c6cbcb"/><stop class="stopColor9d9fa6 svgShape" offset=".904" stop-color="#41e1d4"/><stop class="stopColorbababf svgShape" offset="1" stop-color="#babfbf"/></linearGradient><polygon fill="url(#e)" points="256 56 366 146 406 106"/><linearGradient id="f" x1="-10.253" x2="319.005" y1="191" y2="191" gradientUnits="userSpaceOnUse"><stop class="stopColor37b34a svgShape" offset="0" stop-color="#37b3a9"/><stop class="stopColor009345 svgShape" offset="1" stop-color="#009387"/></linearGradient><rect width="220" height="10" x="146" y="186" fill="url(#f)"/><linearGradient id="g" x1="-10.253" x2="319.005" y1="371" y2="371" gradientUnits="userSpaceOnUse"><stop class="stopColor37b34a svgShape" offset="0" stop-color="#37b3a9"/><stop class="stopColor009345 svgShape" offset="1" stop-color="#009387"/></linearGradient><rect width="220" height="10" x="146" y="366" fill="url(#g)"/><linearGradient id="h" x1="-10.253" x2="319.005" y1="251" y2="251" gradientUnits="userSpaceOnUse"><stop class="stopColor37b34a svgShape" offset="0" stop-color="#37b3a9"/><stop class="stopColor009345 svgShape" offset="1" stop-color="#009387"/></linearGradient><rect width="220" height="10" x="146" y="246" fill="url(#h)"/><linearGradient id="i" x1="-10.253" x2="319.005" y1="311" y2="311" gradientUnits="userSpaceOnUse"><stop class="stopColor37b34a svgShape" offset="0" stop-color="#37b3a9"/><stop class="stopColor009345 svgShape" offset="1" stop-color="#009387"/></linearGradient><rect width="220" height="10" x="146" y="306" fill="url(#i)"/><linearGradient id="j" x1="-10.253" x2="319.005" y1="281" y2="281" gradientUnits="userSpaceOnUse"><stop class="stopColor37b34a svgShape" offset="0" stop-color="#37b3a9"/><stop class="stopColor009345 svgShape" offset="1" stop-color="#009387"/></linearGradient><rect width="10" height="190" x="356" y="186" fill="url(#j)"/><linearGradient id="k" x1="-10.253" x2="319.005" y1="281" y2="281" gradientUnits="userSpaceOnUse"><stop class="stopColor37b34a svgShape" offset="0" stop-color="#37b3a9"/><stop class="stopColor009345 svgShape" offset="1" stop-color="#009387"/></linearGradient><rect width="10" height="190" x="146" y="186" fill="url(#k)"/><linearGradient id="l" x1="-10.253" x2="319.005" y1="281" y2="281" gradientUnits="userSpaceOnUse"><stop class="stopColor37b34a svgShape" offset="0" stop-color="#37b3a9"/><stop class="stopColor009345 svgShape" offset="1" stop-color="#009387"/></linearGradient><rect width="10" height="190" x="186" y="186" fill="url(#l)"/><linearGradient id="m" x1="-10.253" x2="319.005" y1="281" y2="281" gradientUnits="userSpaceOnUse"><stop class="stopColor37b34a svgShape" offset="0" stop-color="#37b3a9"/><stop class="stopColor009345 svgShape" offset="1" stop-color="#009387"/></linearGradient><rect width="10" height="190" x="276" y="186" fill="url(#m)"/><rect width="220" height="10" x="146" y="176" fill="#fff" class="colorffffff svgShape"/><rect width="220" height="10" x="146" y="356" fill="#fff" class="colorffffff svgShape"/><rect width="220" height="10" x="146" y="236" fill="#fff" class="colorffffff svgShape"/><rect width="220" height="10" x="146" y="296" fill="#fff" class="colorffffff svgShape"/><rect width="10" height="190" x="356" y="176" fill="#fff" class="colorffffff svgShape"/><rect width="10" height="190" x="146" y="176" fill="#fff" class="colorffffff svgShape"/><rect width="10" height="190" x="186" y="176" fill="#fff" class="colorffffff svgShape"/><rect width="10" height="190" x="276" y="176" fill="#fff" class="colorffffff svgShape"/></svg>