<svg xmlns="http://www.w3.org/2000/svg" enable-background="new 0 0 512 512" viewBox="0 0 512 512"><polygon points="426 476 86 476 86 36 259.245 36 426 91.585" class="color000000 svgShape"/><linearGradient id="a" x1="256" x2="256" y1="57.388" y2="468.755" gradientUnits="userSpaceOnUse"><stop class="stopColor29abe2 svgShape" offset="0" stop-color="#41e1d4"/><stop class="stopColor0071bc svgShape" offset="1" stop-color="#00bcad"/></linearGradient><polygon fill="url(#a)" points="406 456 106 456 106 56 256 56 406 106"/><linearGradient id="b" x1="299.622" x2="330.116" y1="154.344" y2="63.991" gradientUnits="userSpaceOnUse"><stop class="stopColor29abe2 svgShape" offset="0" stop-color="#41e1d4" stop-opacity="0"/><stop class="stopColor004c94 svgShape" offset="1" stop-color="#009488"/></linearGradient><polygon fill="url(#b)" points="256 56 366 146 406 106 406 126 366 166 236 56"/><linearGradient id="c" x1="373.396" x2="415.243" y1="172.042" y2="118.781" gradientUnits="userSpaceOnUse"><stop class="stopColor29abe2 svgShape" offset="0" stop-color="#41e1d4" stop-opacity="0"/><stop class="stopColor004c94 svgShape" offset="1" stop-color="#009488"/></linearGradient><polygon fill="url(#c)" points="406 106 406 166 366 166 366 146"/><linearGradient id="d" x1="425.454" x2="89.563" y1="451" y2="451" gradientUnits="userSpaceOnUse"><stop class="stopColor29abe2 svgShape" offset="0" stop-color="#41e1d4" stop-opacity="0"/><stop class="stopColor004c94 svgShape" offset="1" stop-color="#009488"/></linearGradient><rect width="300" height="10" x="106" y="446" fill="url(#d)"/><linearGradient id="e" x1="314.593" x2="333.793" y1="125.395" y2="73.442" gradientUnits="userSpaceOnUse"><stop class="stopColorffffff svgShape" offset=".322" stop-color="#fff"/><stop class="stopColoreae8e9 svgShape" offset=".684" stop-color="#e8eaea"/><stop class="stopColorc6c7cb svgShape" offset=".808" stop-color="#c6cbcb"/><stop class="stopColor9d9fa6 svgShape" offset=".904" stop-color="#9da6a5"/><stop class="stopColorbababf svgShape" offset="1" stop-color="#babfbf"/></linearGradient><polygon fill="url(#e)" points="256 56 366 146 406 106"/><rect width="80" height="10" x="166" y="366" fill="#fff" class="colorffffff svgShape"/><rect width="80" height="10" x="166" y="376" fill="#00bcad" class="color0071bc svgShape"/><rect width="180" height="10" x="166" y="166" fill="#fff" class="colorffffff svgShape"/><rect width="180" height="10" x="166" y="176" fill="#00bcad" class="color0071bc svgShape"/><rect width="180" height="10" x="166" y="216" fill="#fff" class="colorffffff svgShape"/><rect width="180" height="10" x="166" y="226" fill="#00bcad" class="color0071bc svgShape"/><rect width="180" height="10" x="166" y="266" fill="#fff" class="colorffffff svgShape"/><rect width="180" height="10" x="166" y="276" fill="#00bcad" class="color0071bc svgShape"/><rect width="180" height="10" x="166" y="316" fill="#fff" class="colorffffff svgShape"/><rect width="180" height="10" x="166" y="326" fill="#00bcad" class="color0071bc svgShape"/></svg>