<svg xmlns="http://www.w3.org/2000/svg" viewBox="0 0 512 512"><path fill="#1f2323" d="M448 296h-48c-22.056 0-40 17.944-40 40v48c0 22.056 17.944 40 40 40h48c22.056 0 40-17.944 40-40v-48c0-22.056-17.944-40-40-40z" class="color231f20 svgShape"/><path fill="#1f2323" d="M361.941 88H48v312h416V190.059z" class="color231f20 svgShape"/><path fill="#fff" d="M352 112H72v264h368V200z" class="colorffffff svgShape"/><path fill="#55fff1" d="M144 184h208v16H144z" class="colorff8555 svgShape"/><path fill="#41e1d4" d="M288 208h64v24h-64z" class="colorbbbbbc svgShape"/><path fill="#e6e8e8" d="M288 240h64v24h-64z" class="colore6e7e8 svgShape"/><path fill="#41e1d4" d="M288 272h64v24h-64z" class="colorbbbbbc svgShape"/><path fill="#e6e8e8" d="M288 304h64v24h-64z" class="colore6e7e8 svgShape"/><path fill="#41e1d4" d="M216 208h64v24h-64z" class="colorbbbbbc svgShape"/><path fill="#e6e8e8" d="M216 240h64v24h-64z" class="colore6e7e8 svgShape"/><path fill="#41e1d4" d="M216 272h64v24h-64z" class="colorbbbbbc svgShape"/><path fill="#e6e8e8" d="M216 304h64v24h-64z" class="colore6e7e8 svgShape"/><path fill="#41e1d4" d="M144 208h64v24h-64z" class="colorbbbbbc svgShape"/><path fill="#e6e8e8" d="M144 240h64v24h-64z" class="colore6e7e8 svgShape"/><path fill="#41e1d4" d="M144 272h64v24h-64z" class="colorbbbbbc svgShape"/><path fill="#e6e8e8" d="M144 304h64v24h-64z" class="colore6e7e8 svgShape"/><path fill="#6d7171" d="M352 112v88h88z" class="color6d6e71 svgShape"/><path fill="#e6e8e8" d="M440 200v88l-88-88zM440 376v-80h-40c-22.056 0-40 17.944-40 40v40h80z" class="colore6e7e8 svgShape"/><path fill="#25f2e1" d="M464 384c0 8.8-7.2 16-16 16h-48c-8.8 0-16-7.2-16-16v-48c0-8.8 7.2-16 16-16h48c8.8 0 16 7.2 16 16v48z" class="colorf25a25 svgShape"/><path fill="#1dddcd" d="M448 320h-48c-8.8 0-16 7.2-16 16v8c0-8.8 7.2-16 16-16h48c8.8 0 16 7.2 16 16v-8c0-8.8-7.2-16-16-16z" class="colordd461d svgShape"/><path fill="#fff" d="M437.172 360 428 369.171V344h-8v25.171L410.828 360l-5.656 5.656L424 384.485l18.828-18.829z" class="colorffffff svgShape"/></svg>