<svg xmlns="http://www.w3.org/2000/svg" enable-background="new 0 0 512 512" viewBox="0 0 512 512"><path fill="#edf9f8" d="M339.1980591 393.6742859H172.8019409l5.8148499-14.7735291c1.8526306-4.7069702 6.3961487-7.8014221 11.4545746-7.8014221h131.8572845c5.0584106 0 9.6019287 3.0944519 11.4545593 7.8014221L339.1980591 393.6742859zM322.7667542 444.9954224H189.2332306c-5.9452515 0-11.4785767-3.0369263-14.6712036-8.0522461l-6.8438873-10.7510376h176.5637207l-6.8438721 10.7510376C334.2453613 441.9584961 328.7120361 444.9954224 322.7667542 444.9954224z" class="coloredf8f9 svgShape"/><path fill="#00ffea" d="M442.1349182,51.0956573H69.8650665c-9.3888397,0-17,7.6111565-17,17v258.4664307h406.2698364V68.0956573
			C459.1349182,58.7068138,451.5237732,51.0956573,442.1349182,51.0956573z" class="color00b7ff svgShape"/><path fill="#41e1d4" d="M370.8935547,51.0957031H69.8649902c-9.3887939,0-17,7.611084-17,17v258.4663086h106.6843262
			C271.0180664,278.5830078,353.0219727,175.2060547,370.8935547,51.0957031z" class="color2bc8f9 svgShape"/><path fill="#79f7ed" d="M66.1123047,153.885498c79.3781738,0,149.1914062-40.9111328,189.5356445-102.7897949H69.8649902
			c-9.3887939,0-17,7.611084-17,17v85.3935547C57.2497559,153.7426758,61.6640625,153.885498,66.1123047,153.885498z" class="color79e0f7 svgShape"/><path fill="#04776e" d="M339.1982422,398.6743164H172.8017578c-2.7612305,0-5-2.2387695-5-5s2.2387695-5,5-5h166.3964844
			c2.7612305,0,5,2.2387695,5,5S341.9594727,398.6743164,339.1982422,398.6743164z" class="color046277 svgShape"/><path fill="#04776e" d="M506.9934082,426.1541748c-0.0048828-0.6572876-0.1330566-1.3161621-0.4006348-1.9378662
			l-36.8461914-85.6411133c-1.0913086-2.5371094-4.0336914-3.7094727-6.5688477-2.6166992
			c-2.5366211,1.0913086-3.7080078,4.0322266-2.6166992,6.5688477l33.8447266,78.6650391H17.5942383l33.8447266-78.6650391
			c1.0913086-2.5366211-0.0800781-5.4775391-2.6166992-6.5688477c-2.5366211-1.0922852-5.4780273,0.0800781-6.5688477,2.6166992
			L5.4072266,424.2163086c-0.2662354,0.6184692-0.3947144,1.2738037-0.401001,1.9277344
			C5.0057983,426.1616211,5,426.1743774,5,426.1923828c0,21.8974609,17.8149414,39.7119141,39.7124023,39.7119141h422.5751953
			C489.1850586,465.9042969,507,448.0898438,507,426.1923828C507,426.178894,506.9941406,426.1674194,506.9934082,426.1541748z
			 M467.2875977,455.9042969H44.7124023c-14.6796875,0-26.9072266-10.7016602-29.2915039-24.7119141h481.1582031
			C494.1948242,445.2026367,481.9672852,455.9042969,467.2875977,455.9042969z" class="color046277 svgShape"/><path fill="#fff" d="M399.0571289,97.4091797H112.9428711c-7.4404297,0-13.4941406,6.0532227-13.4941406,13.4941406v47.6967773
		v60.4575195v47.6967773c0,7.440918,6.0537109,13.4941406,13.4941406,13.4941406h286.1142578
		c7.4404297,0,13.4941406-6.0532227,13.4941406-13.4941406v-47.6967773v-60.4575195v-47.6967773
		C412.5512695,103.4624023,406.4975586,97.4091797,399.0571289,97.4091797z M402.5512695,110.9033203v42.6967773h-82.2485352
		v-46.190918h78.7543945C400.9838867,107.4091797,402.5512695,108.9765625,402.5512695,110.9033203z M402.5512695,214.0576172
		h-82.2485352v-50.4575195h82.2485352V214.0576172z M109.4487305,163.6000977h200.8540039v50.4575195H109.4487305V163.6000977z
		 M112.9428711,107.4091797h197.3598633v46.190918H109.4487305v-42.6967773
		C109.4487305,108.9765625,111.0161133,107.4091797,112.9428711,107.4091797z M109.4487305,266.7543945v-42.6967773h200.8540039
		v46.190918H112.9428711C111.0161133,270.2485352,109.4487305,268.6811523,109.4487305,266.7543945z M399.0571289,270.2485352
		h-78.7543945v-46.190918h82.2485352v42.6967773C402.5512695,268.6811523,400.9838867,270.2485352,399.0571289,270.2485352z" class="colorffffff svgShape"/></svg>