<svg xmlns="http://www.w3.org/2000/svg" viewBox="0 0 5000 5000"><path fill="#1d9389" d="M436.187 1092.241a25.828 25.828 0 0 1-15.523-5.174c-11.469-8.584-13.807-24.84-5.223-36.309 57.166-76.375 119.396-150.292 184.961-219.698 9.838-10.413 26.254-10.881 36.668-1.043 10.414 9.837 10.881 26.254 1.043 36.668-64.212 67.973-125.156 140.362-181.141 215.16-5.093 6.805-12.891 10.396-20.785 10.396zm389.748-412.553c-7.391 0-14.729-3.141-19.86-9.239-9.224-10.961-7.815-27.324 3.146-36.548 73.07-61.486 150.442-119.364 229.967-172.027 11.944-7.909 28.038-4.64 35.949 7.306 7.909 11.944 4.639 28.038-7.305 35.948-77.879 51.573-153.65 108.254-225.21 168.468a25.84 25.84 0 0 1-16.687 6.092zm473.19-313.287c-9.458 0-18.574-5.191-23.149-14.202-6.485-12.773-1.388-28.386 11.386-34.871 85.164-43.239 173.709-81.934 263.174-115.01 13.435-4.967 28.356 1.897 33.324 15.335 4.968 13.437-1.897 28.356-15.334 33.324-87.596 32.386-174.292 70.272-257.679 112.608a25.833 25.833 0 0 1-11.722 2.816zm532.199-196.754c-11.691 0-22.304-7.959-25.185-19.824-3.381-13.921 5.164-27.947 19.085-31.327 92.624-22.493 187.681-39.833 282.53-51.539 14.218-1.752 27.166 8.349 28.92 22.566 1.755 14.218-8.349 27.166-22.566 28.921-92.875 11.461-185.951 28.44-276.642 50.464-2.056.5-4.115.739-6.142.739zm847.14-56.077a25.96 25.96 0 0 1-2.744-.145c-85.374-8.977-172.461-13.528-258.841-13.528a2278.17 2278.17 0 0 0-22.134.097l-.234.001c-14.219 0-25.807-11.462-25.933-25.709-.127-14.325 11.383-26.041 25.708-26.167 7.487-.066 15.052-.1 22.484-.1h.111c88.183 0 177.095 4.647 264.264 13.813 14.248 1.498 24.583 14.262 23.085 28.509-1.402 13.325-12.66 23.227-25.766 23.229zM1659.106 4926.557c-2.632 0-5.308-.403-7.948-1.252-90.831-29.215-180.96-64.082-267.887-103.634-13.039-5.933-18.8-21.312-12.867-34.352 5.933-13.04 21.314-18.802 34.353-12.867 85.109 38.725 173.355 72.863 262.286 101.466 13.638 4.387 21.137 18.998 16.751 32.636-3.538 10.997-13.725 18.003-24.688 18.003zm-516.604-234.995a25.813 25.813 0 0 1-13.364-3.726c-81.689-49.229-161.454-103.773-237.076-162.118-11.342-8.751-13.443-25.039-4.692-36.382 8.75-11.342 25.039-13.442 36.381-4.692 74.057 57.137 152.168 110.551 232.164 158.759 12.27 7.395 16.222 23.335 8.828 35.605-4.869 8.081-13.448 12.554-22.241 12.554zm-449.341-346.648a25.853 25.853 0 0 1-18.083-7.344c-68.43-66.557-133.735-137.774-194.101-211.676-9.063-11.095-7.416-27.436 3.679-36.498 11.094-9.062 27.435-7.416 36.498 3.68 59.12 72.375 123.077 142.122 190.094 207.305 10.27 9.988 10.498 26.411.509 36.68-5.085 5.228-11.837 7.853-18.596 7.853zm3798.159-426.758a25.806 25.806 0 0 1-14.112-4.194c-12.012-7.808-15.419-23.873-7.611-35.884 50.987-78.435 97.913-160.604 139.475-244.226 6.375-12.829 21.943-18.058 34.772-11.684 12.828 6.377 18.06 21.944 11.683 34.773-42.443 85.398-90.365 169.312-142.435 249.41-4.969 7.646-13.285 11.805-21.772 11.805zm252.558-508.22c-2.917 0-5.883-.495-8.785-1.54-13.479-4.852-20.472-19.713-15.619-33.191 31.649-87.918 58.486-178.647 79.765-269.67 3.261-13.949 17.214-22.615 31.162-19.354 13.949 3.261 22.614 17.213 19.354 31.162-21.732 92.968-49.143 185.636-81.47 275.434-3.808 10.576-13.778 17.159-24.407 17.159zm129.26-552.606c-.987 0-1.983-.057-2.988-.172-14.232-1.633-24.445-14.495-22.812-28.727 10.623-92.569 16.031-187.062 16.074-280.851.007-14.321 11.619-25.927 25.939-25.927h.011c14.326.006 25.934 11.625 25.927 25.95-.044 95.75-5.565 192.224-16.412 286.741-1.519 13.229-12.737 22.986-25.739 22.986zm.204-567.573c-13.014 0-24.233-9.771-25.74-23.009-10.578-92.963-26.662-186.169-47.805-277.029-3.247-13.953 5.432-27.896 19.385-31.143 13.95-3.243 27.896 5.432 31.143 19.385 21.594 92.795 38.02 187.984 48.822 282.921 1.62 14.233-8.606 27.085-22.84 28.705-.995.115-1.987.17-2.965.17zm-128.595-552.531c-10.64 0-20.616-6.595-24.416-17.186-31.537-87.896-68.583-174.94-110.11-258.717-6.362-12.835-1.115-28.398 11.72-34.76 12.837-6.364 28.398-1.115 34.761 11.721 42.413 85.562 80.249 174.465 112.46 264.236 4.838 13.484-2.171 28.337-15.655 33.175a25.916 25.916 0 0 1-8.76 1.531zm-251.935-508.419c-8.496 0-16.819-4.168-21.787-11.828-50.822-78.364-106.775-154.67-166.306-226.801-9.118-11.048-7.554-27.398 3.495-36.516 11.05-9.119 27.397-7.554 36.517 3.495 60.787 73.654 117.923 151.573 169.819 231.594 7.795 12.019 4.371 28.082-7.648 35.876a25.814 25.814 0 0 1-14.09 4.18z" class="color231d93 svgShape"/><circle cx="2416.879" cy="2546.429" r="1815.326" fill="#d4fffc" class="colord4e1ff svgShape"/><path fill="#80fff5" d="M4053.512 363.264v1350.603l-1258.559 729.534H2520.41c-39.845 0-72.145-32.301-72.145-72.146V392.219c0-55.836 45.264-101.1 101.1-101.1h1432.002c39.844 0 72.145 32.3 72.145 72.145z" class="colorff9b80 svgShape"/><path fill="#1d9389" d="M2794.953 2469.341H2520.41c-54.084 0-98.084-44-98.084-98.084V392.219c0-70.05 56.989-127.04 127.039-127.04h1432.002c54.083 0 98.083 44 98.083 98.084v1350.603a25.938 25.938 0 0 1-12.931 22.441L2807.96 2465.842a25.923 25.923 0 0 1-13.007 3.499zM2549.365 317.057c-41.444 0-75.162 33.718-75.162 75.162v1979.037c0 25.479 20.729 46.207 46.207 46.207h267.568l1239.595-718.542V363.264c0-25.479-20.729-46.207-46.206-46.207H2549.365zm1504.147 1396.81h.01-.01z" class="color231d93 svgShape"/><path fill="#41e1d4" d="M4345.422 1604.463v5.843c0-2.054-.162-3.792-.315-5.685l.315-.158z" class="color9fabff svgShape"/><path fill="#1d9389" d="M4345.423 1636.245c-14.325 0-25.938-11.613-25.938-25.939 0-.746-.066-1.582-.183-2.995l-.048-.583a25.939 25.939 0 0 1 14.281-25.323l.316-.158a25.938 25.938 0 0 1 37.51 23.215v5.843c0 14.326-11.613 25.94-25.938 25.94z" class="color231d93 svgShape"/><path fill="#fff" d="M4345.422 1611.408v731.269c0 55.413-45.465 100.725-100.721 100.725H2794.953v-729.534h1449.749c55.093-.001 100.089-47.52 100.72-102.46z" class="colorffffff svgShape"/><path fill="#1d9389" d="M4244.701 2469.34H2794.953c-14.325 0-25.938-11.613-25.938-25.938v-729.535c0-14.326 11.613-25.938 25.938-25.938h1449.748c40.058 0 74.305-35.179 74.784-76.819.164-14.215 11.738-25.64 25.935-25.64h.152c14.267.083 25.789 11.671 25.789 25.938v731.269c0 69.843-56.819 126.663-126.66 126.663zm-1423.809-51.877h1423.81c41.235 0 74.783-33.549 74.783-74.786v-628.383c-21.696 16.562-47.657 25.512-74.783 25.512h-1423.81v677.657z" class="color231d93 svgShape"/><path fill="#41e1d4" d="M4345.422 1610.306v1.102c-.632 54.94-45.627 102.459-100.721 102.459h-191.19v-200.656h190.242c53.197 0 97.244 39.31 101.354 91.409.154 1.893.315 3.632.315 5.686z" class="color9fabff svgShape"/><path fill="#1d9389" d="M4244.701 1739.806h-191.189c-14.325 0-25.938-11.613-25.938-25.939v-200.655c0-14.326 11.613-25.939 25.938-25.939h190.242c32.194 0 62.888 11.655 86.427 32.817 23.792 21.39 38.276 50.686 40.784 82.492l.038.459c.16 1.935.358 4.344.358 7.265v1.103l-.001.299c-.386 33.444-13.622 65.267-37.271 89.608-24.116 24.82-55.861 38.49-89.388 38.49zm-165.251-51.878h165.251c40.014 0 74.229-35.102 74.783-76.682v-.94c0-.746-.066-1.582-.183-2.995l-.048-.583c-3.041-38.555-35.496-67.578-75.5-67.578H4079.45v148.778zm265.973-76.52h.01-.01z" class="color231d93 svgShape"/><path fill="#41e1d4" d="M4345.421 1610.304v-5.841" class="color9fabff svgShape"/><path fill="#1d9389" d="M4345.422 1636.243c-14.325 0-25.938-11.613-25.938-25.939v-5.841c0-14.326 11.613-25.939 25.938-25.939s25.938 11.613 25.938 25.939v5.841c0 14.326-11.613 25.939-25.938 25.939z" class="color231d93 svgShape"/><path fill="#78fff4" d="M2758.418 947.738h437.776v237.128h-437.776z" class="colorffce78 svgShape"/><path fill="#1d9389" d="M3196.193 1210.805h-437.775c-14.325 0-25.938-11.613-25.938-25.939V947.738c0-14.326 11.613-25.939 25.938-25.939h437.775c14.325 0 25.938 11.613 25.938 25.939v237.128c.001 14.326-11.612 25.939-25.938 25.939zm-411.837-51.878h385.898v-185.25h-385.898v185.25z" class="color231d93 svgShape"/><path fill="#78fff4" d="M3323.878 947.738h419.535v237.128h-419.535z" class="colorffce78 svgShape"/><path fill="#1d9389" d="M3743.413 1210.805h-419.535c-14.325 0-25.938-11.613-25.938-25.939V947.738c0-14.326 11.613-25.939 25.938-25.939h419.535c14.325 0 25.938 11.613 25.938 25.939v237.128c.001 14.326-11.613 25.939-25.938 25.939zm-393.597-51.878h367.658v-185.25h-367.658v185.25z" class="color231d93 svgShape"/><path fill="#78fff4" d="M2758.418 1312.551h437.776v237.128h-437.776z" class="colorffce78 svgShape"/><path fill="#1d9389" d="M3196.193 1575.618h-437.775c-14.325 0-25.938-11.613-25.938-25.939v-237.128c0-14.326 11.613-25.939 25.938-25.939h437.775c14.325 0 25.938 11.613 25.938 25.939v237.128c.001 14.326-11.612 25.939-25.938 25.939zm-411.837-51.878h385.898v-185.25h-385.898v185.25z" class="color231d93 svgShape"/><path fill="#78fff4" d="M3323.878 1312.551h419.535v237.128h-419.535z" class="colorffce78 svgShape"/><path fill="#1d9389" d="M3743.413 1575.618h-419.535c-14.325 0-25.938-11.613-25.938-25.939v-237.128c0-14.326 11.613-25.939 25.938-25.939h419.535c14.325 0 25.938 11.613 25.938 25.939v237.128c.001 14.326-11.613 25.939-25.938 25.939zm-393.597-51.878h367.658v-185.25h-367.658v185.25z" class="color231d93 svgShape"/><g fill="#1d9389" class="color231d93 svgShape"><path fill="#000" d="M3159.712 2086.356a25.938 25.938 0 0 1-18.342-7.598l-145.925-145.925a25.94 25.94 0 0 1-7.597-18.341v-72.962c0-14.326 11.613-25.939 25.938-25.939s25.938 11.613 25.938 25.939v62.218l119.986 119.986 119.987-119.986v-62.218c0-14.326 11.613-25.939 25.938-25.939s25.938 11.613 25.938 25.939v72.962a25.935 25.935 0 0 1-7.597 18.341l-145.926 145.925a25.926 25.926 0 0 1-18.338 7.598z" class="color000000 svgShape"/><path fill="#000" d="M3305.638 2323.484c-14.325 0-25.938-11.613-25.938-25.939v-80.459L3159.712 2097.1l-119.986 119.986v80.459c0 14.326-11.613 25.939-25.938 25.939s-25.938-11.613-25.938-25.939v-91.203a25.935 25.935 0 0 1 7.597-18.341l145.925-145.925a25.938 25.938 0 0 1 36.684 0l145.926 145.925a25.94 25.94 0 0 1 7.597 18.341v91.203c-.003 14.326-11.616 25.939-25.941 25.939zm419.534 0h-291.85c-14.325 0-25.938-11.613-25.938-25.939v-456.016c0-14.326 11.613-25.939 25.938-25.939s25.938 11.613 25.938 25.939v430.077h265.911c14.325 0 25.938 11.613 25.938 25.939s-11.612 25.939-25.937 25.939zm328.902 0h-183.547c-44.162 0-80.09-35.929-80.09-80.091 0-14.326 11.613-25.939 25.938-25.939s25.938 11.613 25.938 25.939c0 15.557 12.656 28.213 28.213 28.213h183.547c15.557 0 28.213-12.656 28.213-28.213V2132.81c0-15.557-12.656-28.213-28.213-28.213h-183.547c-44.162 0-80.09-35.928-80.09-80.09v-110.584c0-44.162 35.928-80.091 80.09-80.091h183.547c44.162 0 80.09 35.929 80.09 80.091 0 14.326-11.613 25.939-25.938 25.939s-25.938-11.613-25.938-25.939c0-15.557-12.656-28.213-28.213-28.213h-183.547c-15.557 0-28.213 12.656-28.213 28.213v110.584c0 15.557 12.656 28.213 28.213 28.213h183.547c44.162 0 80.09 35.928 80.09 80.09v110.584c0 44.162-35.928 80.09-80.09 80.09z" class="color000000 svgShape"/></g><path fill="#41e1d4" d="m4149.246 458.331-153.9 275.958h-307.8l-153.901-275.958 153.901-275.959h307.8z" class="color9fabff svgShape"/><path fill="#1d9389" d="M3995.346 760.228h-307.8a25.939 25.939 0 0 1-22.654-13.305l-153.9-275.958a25.943 25.943 0 0 1 0-25.268l153.9-275.959a25.939 25.939 0 0 1 22.654-13.305h307.8A25.939 25.939 0 0 1 4018 169.738l153.9 275.959a25.943 25.943 0 0 1 0 25.268L4018 746.923a25.939 25.939 0 0 1-22.654 13.305zm-292.566-51.877h277.331l139.435-250.02-139.435-250.02H3702.78l-139.435 250.02 139.435 250.02z" class="color231d93 svgShape"/><circle cx="3841.446" cy="458.33" r="148.593" fill="#fff" class="colorffffff svgShape" transform="rotate(-45.001 3841.459 458.377)"/><path fill="#1d9389" d="M3841.445 632.863c-96.237 0-174.531-78.295-174.531-174.532s78.294-174.532 174.531-174.532 174.532 78.295 174.532 174.532-78.294 174.532-174.532 174.532zm0-297.187c-67.632 0-122.654 55.022-122.654 122.654s55.022 122.654 122.654 122.654S3964.1 525.962 3964.1 458.33s-55.023-122.654-122.655-122.654z" class="color231d93 svgShape"/><path fill="#78fff4" d="M2758.418 582.753h437.776v237.128h-437.776z" class="colorffce78 svgShape"/><path fill="#1d9389" d="M3196.193 845.82h-437.775c-14.325 0-25.938-11.613-25.938-25.939V582.753c0-14.326 11.613-25.939 25.938-25.939h437.775c14.325 0 25.938 11.613 25.938 25.939v237.128c.001 14.326-11.612 25.939-25.938 25.939zm-411.837-51.878h385.898v-185.25h-385.898v185.25z" class="color231d93 svgShape"/><path fill="#fff" d="M2140.598 1785.758v1914.28c0 56.082-45.026 101.545-100.569 101.545H211.22c-55.543 0-100.569-45.463-100.569-101.545V1547.796c0-56.082 45.026-101.545 100.569-101.545h1577.395" class="colorffffff svgShape"/><path fill="#1d9389" d="M2040.029 3827.522H211.22c-69.757 0-126.508-57.188-126.508-127.483V1547.796c0-70.295 56.751-127.484 126.508-127.484h1577.395c14.326 0 25.939 11.613 25.939 25.939s-11.613 25.939-25.939 25.939H211.22c-41.151 0-74.631 33.917-74.631 75.606v2152.243c0 41.689 33.479 75.606 74.631 75.606h1828.809c41.151 0 74.63-33.917 74.63-75.606V1785.758c0-14.326 11.613-25.939 25.939-25.939s25.939 11.613 25.939 25.939v1914.281c0 70.295-56.751 127.483-126.508 127.483z" class="color231d93 svgShape"/><path fill="#41e1d4" d="M2139.262 1783.455h-225.035c-66.3 0-120.047-53.747-120.047-120.047l-2.111-215.503 347.193 335.55z" class="color9fabff svgShape"/><path fill="#1d9389" d="M2139.262 1809.394h-225.034c-80.453 0-145.914-65.413-145.986-145.85l-2.11-215.385a25.938 25.938 0 0 1 43.963-18.905l347.193 335.55a25.936 25.936 0 0 1 6.021 28.373 25.936 25.936 0 0 1-24.047 16.217zm-320.648-299.762 1.504 153.521.001.254c0 51.892 42.217 94.108 94.108 94.108h160.871l-256.484-247.883z" class="color231d93 svgShape"/><path fill="#78fff4" d="M1778.487 3589.392H493.98c-82.797 0-149.918-67.121-149.918-149.918V2062.992c0-82.797 67.121-149.918 149.918-149.918h1284.507c82.798 0 149.918 67.121 149.918 149.918v1376.482c.001 82.797-67.12 149.918-149.918 149.918z" class="colorffce78 svgShape"/><path fill="#1d9389" d="M1778.487 3615.33H493.98c-96.968 0-175.857-78.889-175.857-175.856V2062.992c0-96.968 78.889-175.857 175.857-175.857h1284.507c96.968 0 175.857 78.889 175.857 175.857v1376.481c0 96.968-78.889 175.857-175.857 175.857zM493.98 1939.012c-68.363 0-123.979 55.618-123.979 123.98v1376.481c0 68.362 55.617 123.979 123.979 123.979h1284.507c68.363 0 123.979-55.617 123.979-123.979V2062.992c0-68.362-55.617-123.98-123.979-123.98H493.98zm288.588-233.411H407.72c-14.326 0-25.939-11.613-25.939-25.939s11.613-25.939 25.939-25.939h374.848c14.326 0 25.939 11.613 25.939 25.939s-11.613 25.939-25.939 25.939z" class="color231d93 svgShape"/><g fill="#1d9389" class="color231d93 svgShape"><path fill="#000" d="M1907.187 2129.985H344.062c-14.326 0-25.939-11.613-25.939-25.938s11.613-25.938 25.939-25.938h1563.125c14.326 0 25.939 11.613 25.939 25.938s-11.614 25.938-25.939 25.938zm0 249.039H344.062c-14.326 0-25.939-11.613-25.939-25.938s11.613-25.938 25.939-25.938h1563.125c14.326 0 25.939 11.613 25.939 25.938s-11.614 25.938-25.939 25.938z" class="color000000 svgShape"/><path fill="#000" d="M1928.406 2596.808H888.664c-14.326 0-25.938-11.613-25.938-25.938v-466.823c0-14.326 11.613-25.939 25.938-25.939s25.938 11.613 25.938 25.939v440.884h1013.803c14.326 0 25.939 11.613 25.939 25.938s-11.613 25.939-25.938 25.939z" class="color000000 svgShape"/><path fill="#000" d="M1395.419 2596.808c-14.326 0-25.939-11.613-25.939-25.938v-466.823c0-14.326 11.613-25.939 25.939-25.939s25.939 11.613 25.939 25.939v466.823c0 14.324-11.613 25.938-25.939 25.938z" class="color000000 svgShape"/></g><g fill="#1d9389" class="color231d93 svgShape"><path fill="#000" d="M1907.187 2809H344.062c-14.326 0-25.939-11.613-25.939-25.938s11.613-25.938 25.939-25.938h1563.125c14.326 0 25.939 11.613 25.939 25.938S1921.512 2809 1907.187 2809zm0 233.411H344.062c-14.326 0-25.939-11.613-25.939-25.938s11.613-25.938 25.939-25.938h1563.125c14.326 0 25.939 11.613 25.939 25.938s-11.614 25.938-25.939 25.938z" class="color000000 svgShape"/><path fill="#000" d="M1928.406 3275.823H888.664c-14.326 0-25.938-11.613-25.938-25.938v-466.823c0-14.325 11.613-25.938 25.938-25.938s25.938 11.613 25.938 25.938v440.885h1013.803c14.326 0 25.939 11.613 25.939 25.938s-11.613 25.938-25.938 25.938z" class="color000000 svgShape"/><path fill="#000" d="M1408.535 3275.823c-14.326 0-25.939-11.613-25.939-25.938v-466.823c0-14.325 11.613-25.938 25.939-25.938s25.939 11.613 25.939 25.938v466.823c0 14.325-11.614 25.938-25.939 25.938z" class="color000000 svgShape"/></g><path fill="#1d9389" d="M1164.514 1705.601h-254.63c-14.326 0-25.939-11.613-25.939-25.939s11.613-25.938 25.939-25.938h254.63c14.326 0 25.939 11.613 25.939 25.938s-11.614 25.939-25.939 25.939z" class="color231d93 svgShape"/><path fill="#fff" d="M2017.372 4296.27h138.825v7.237c32.781-133.918 157.214-232.423 301.672-228.411h.001c28.628.795 127.687 6.824 151.497 9.669l787.549 94.113c108.118 12.919 194.077 111.622 191.021 219.339-.618 5.062-1.606 9.988-2.603 14.908l138.851-93.149 338.236-226.906c142.242-95.424 245.728 70.859 245.728 70.859s112.116 160.492-52.553 270.96l-669.702 449.271c-35.009 27.283-79.398 43.13-127.157 41.803h-1441.47" class="colorffffff svgShape"/><path fill="#1d9389" d="M3464.166 4951.979c-1.925 0-3.85-.025-5.777-.076H2017.267c-14.326 0-25.938-11.613-25.938-25.938s11.613-25.938 25.938-25.938h1441.471c.24 0 .48.003.721.01 39.743 1.118 79.01-11.798 110.492-36.334.484-.377.983-.738 1.493-1.081l669.702-449.271c42.926-28.796 68.483-63.654 75.962-103.605 12.8-68.371-29.79-130.341-30.222-130.959-.264-.376-.517-.76-.759-1.149-.419-.667-45.664-71.601-112.159-85.732-32.32-6.872-64.079.559-97.097 22.709l-477.087 320.056a25.938 25.938 0 0 1-39.872-26.692c.788-3.892 1.602-7.904 2.127-11.744 2-94.442-73.197-180.244-168.201-191.597l-787.55-94.112c-22.311-2.667-119.459-8.672-149.139-9.496-129.357-3.616-245.285 84.157-275.758 208.648-3.121 12.748-15.27 21.166-28.301 19.585a25.862 25.862 0 0 1-14.868-7.05h-120.851c-14.326 0-25.939-11.612-25.939-25.938s11.613-25.938 25.939-25.938h121.534c20.569-60.212 59.099-113.931 110.459-153.334 29.329-22.502 61.923-39.782 96.878-51.36 36.207-11.993 74.002-17.536 112.346-16.47 28.477.791 128.424 6.803 153.855 9.842l787.55 94.112c109.534 13.09 198.359 104.185 212.11 210.811l435.866-292.402c44.769-30.034 90.909-40.228 137.141-30.296 85.458 18.358 139.425 100.132 144.708 108.43 5.413 7.961 54.47 83.144 38.28 169.625-10.139 54.154-43.128 100.295-98.052 137.142l-668.96 448.772c-39.204 30.281-87.571 46.769-136.92 46.77z" class="color231d93 svgShape"/><path fill="#1d9389" d="M3388.987 4596.387a229.74 229.74 0 0 1-27.273-1.629l-511.591-61.136c-14.224-1.7-24.377-14.609-22.678-28.834 1.7-14.224 14.599-24.361 28.834-22.678l511.591 61.136c7.07.846 14.097 1.257 21.046 1.257 85.99.002 160.509-63.054 170.97-148.766 5.369-43.984-6.99-87.731-34.799-123.181-28.638-36.504-69.866-59.65-116.094-65.174-14.224-1.7-24.377-14.609-22.678-28.834 1.7-14.224 14.6-24.388 28.834-22.678 60.01 7.171 113.549 37.239 150.754 84.665 36.377 46.371 52.529 103.722 45.479 161.486-7.138 58.473-37.162 110.776-84.543 147.275-39.972 30.794-88.104 47.091-137.852 47.091zm-1237.616-130.45c-12.433.001-23.414-8.966-25.547-21.634-24.321-144.394 54.639-254.974 58.013-259.61 8.427-11.582 24.649-14.143 36.235-5.716 11.568 8.416 14.136 24.605 5.75 36.187-.287.4-17.884 25.124-32.564 64.763-19.391 52.354-24.867 104.76-16.276 155.76 2.379 14.127-7.144 27.508-21.271 29.887a26.298 26.298 0 0 1-4.34.363z" class="color231d93 svgShape"/><path fill="#1d9389" d="M3174.461 4569.596c-.249 0-.498-.004-.749-.011-14.32-.406-25.6-12.345-25.193-26.664l2.133-75.185c.021-.724.071-1.446.152-2.165 9.155-81.353 83.373-140.174 165.438-131.138l91.798 10.114c14.239 1.569 24.511 14.385 22.942 28.624-1.569 14.239-14.375 24.498-28.624 22.942l-91.798-10.115c-53.354-5.88-101.619 31.894-108.085 84.358l-2.1 74.034c-.398 14.071-11.93 25.205-25.914 25.206zm966.033-37.942a25.852 25.852 0 0 1-17.937-7.204l-50.093-47.969a25.895 25.895 0 0 1-1.488-1.549c-24.507-27.706-36.647-63.33-34.187-100.312 2.464-37.043 19.263-70.816 47.301-95.098l63.74-55.2c10.83-9.381 27.211-8.202 36.588 2.627 9.379 10.828 8.203 27.21-2.626 36.588l-63.74 55.2c-17.485 15.144-27.962 36.213-29.5 59.327-1.512 22.717 5.806 44.601 20.619 61.74l49.267 47.177c10.347 9.908 10.702 26.327.794 36.675-5.094 5.32-11.911 7.998-18.738 7.998z" class="color231d93 svgShape"/><circle cx="3325.055" cy="3287.555" r="631.809" fill="#fff" class="colorffffff svgShape"/><path fill="#1d9389" d="M3325.056 3945.303c-88.784 0-174.926-17.395-256.033-51.699-78.327-33.13-148.667-80.553-209.065-140.95-60.397-60.398-107.82-130.738-140.95-209.065-34.306-81.107-51.699-167.249-51.699-256.033s17.394-174.926 51.699-256.032c33.13-78.327 80.553-148.667 140.95-209.065 60.398-60.397 130.738-107.82 209.065-140.95 81.107-34.306 167.249-51.699 256.033-51.699s174.926 17.394 256.033 51.699c78.326 33.13 148.666 80.553 209.064 140.95 60.397 60.398 107.82 130.738 140.95 209.065 34.305 81.106 51.699 167.248 51.699 256.032s-17.395 174.926-51.699 256.033c-33.13 78.327-80.553 148.667-140.95 209.065-60.398 60.397-130.738 107.82-209.064 140.95-81.108 34.304-167.249 51.699-256.033 51.699zm0-1263.618c-334.078 0-605.871 271.792-605.871 605.87s271.793 605.871 605.871 605.871 605.87-271.793 605.87-605.871-271.792-605.87-605.87-605.87z" class="color231d93 svgShape"/><path fill="#78fff4" d="M3916.972 2840.664c-53.218-53.215-139.446-53.215-192.664 0l-424.815 424.818-157.794-157.769c-53.218-53.218-139.443-53.218-192.661 0-53.193 53.167-53.193 139.418 0 192.635l242.574 242.552c29.551 29.552 69.272 42.094 107.881 38.789 38.609 3.305 78.327-9.237 107.878-38.789l509.601-509.572c53.19-53.218 53.19-139.446 0-192.664z" class="colorffce78 svgShape"/><path fill="#1d9389" d="M3287.463 3608.144c-42.99 0-83.979-16.688-114.193-46.901l-242.572-242.552c-30.628-30.642-47.493-71.367-47.493-114.678 0-43.316 16.868-84.031 47.497-114.645 63.227-63.227 166.108-63.225 229.339.004l139.451 139.429 406.476-406.479c63.232-63.229 166.115-63.229 229.346 0l.006.005c63.194 63.229 63.194 166.109 0 229.338l-509.606 509.577c-33.02 33.021-78.914 49.887-126.219 46.466-4.025.291-8.036.436-12.032.436zm-242.095-514.405c-29.452 0-57.149 11.477-77.988 32.316-20.829 20.818-32.298 48.502-32.298 77.957 0 29.458 11.472 57.159 32.302 77.999l242.568 242.546c22.691 22.691 54.514 34.089 87.329 31.288a25.732 25.732 0 0 1 4.424 0c32.812 2.794 64.634-8.596 87.324-31.287l509.602-509.572c42.976-42.999 42.973-112.977-.004-155.983-42.995-42.995-112.973-43-155.978.003l-424.814 424.818c-10.129 10.129-26.553 10.13-36.682.001l-157.795-157.769c-20.84-20.84-48.538-32.317-77.99-32.317z" class="color231d93 svgShape"/></svg>