<svg xmlns="http://www.w3.org/2000/svg" data-name="Outer Lines" viewBox="0 0 60 60"><path fill="#2ab5aa" d="M6,49a5,5,0,0,1-5-5V4A3,3,0,0,1,4,1H16.34a4,4,0,0,1,2.83,1.17l2.66,2.66A4,4,0,0,0,24.66,6H46a3,3,0,0,1,3,3v4L9,49Z" class="color2aa1b5 svgShape"/><path fill="#41e1d4" d="M59,16V44a5,5,0,0,1-5,5H6a4.985,4.985,0,0,0,5-5V16a3,3,0,0,1,3-3H56A3,3,0,0,1,59,16Z" class="color4abdd8 svgShape"/><path fill="#1f877f" d="M54,22v5H16V22a3,3,0,0,1,3-3H51A3,3,0,0,1,54,22Z" class="color1f8765 svgShape"/><path fill="#d6e3e2" d="M54,27V56a3,3,0,0,1-3,3H19a3,3,0,0,1-3-3V27Z" class="colord6dbe3 svgShape"/><path fill="#38a89f" d="M23,27V59H17a1,1,0,0,1-1-1V27Z" class="color38a880 svgShape"/><polygon fill="#49b7ae" points="23 28.519 17.329 35 16 35 16 33.481 21.671 27 23 27 23 28.519" class="color49b78d svgShape"/><polygon fill="#49b7ae" points="23 36.519 17.329 43 16 43 16 41.481 21.671 35 23 35 23 36.519" class="color49b78d svgShape"/><polygon fill="#49b7ae" points="23 44.519 17.329 51 16 51 16 49.481 21.671 43 23 43 23 44.519" class="color49b78d svgShape"/><path fill="#49b7ae" d="M23,51v1.52L17.33,59H17a1,1,0,0,1-1-1v-.52L21.67,51Z" class="color49b78d svgShape"/><rect width="7" height="2" x="16" y="50" fill="#1f877f" class="color1f8765 svgShape"/><rect width="7" height="2" x="16" y="42" fill="#1f877f" class="color1f8765 svgShape"/><rect width="7" height="2" x="16" y="34" fill="#1f877f" class="color1f8765 svgShape"/><path fill="#b9ccca" d="M54,36V34H48V27H46v7H40V27H38v7H32V27H30v7H23v2h7v6H23v2h7v6H23v2h7v7h2V52h6v7h2V52h6v7h2V52h6V50H48V44h6V42H48V36ZM38,50H32V44h6Zm0-8H32V36h6Zm8,8H40V44h6Zm0-8H40V36h6Z" class="colorb9bfcc svgShape"/></svg>