<svg width="266" height="114" xmlns="http://www.w3.org/2000/svg" xmlns:xlink="http://www.w3.org/1999/xlink" xml:space="preserve" overflow="hidden"><defs><filter id="fx0" x="-10%" y="-10%" width="120%" height="120%" filterUnits="userSpaceOnUse" primitiveUnits="userSpaceOnUse"><feComponentTransfer color-interpolation-filters="sRGB"><feFuncR type="discrete" tableValues="1.000000 1.000000"/><feFuncG type="discrete" tableValues="1.000000 1.000000"/><feFuncB type="discrete" tableValues="1.000000 1.000000"/><feFuncA type="linear" slope="1.000000" intercept="0.000000"/></feComponentTransfer><feGaussianBlur stdDeviation="3.762488 3.762488"/></filter><filter id="fx1" x="-10%" y="-10%" width="120%" height="120%" filterUnits="userSpaceOnUse" primitiveUnits="userSpaceOnUse"><feComponentTransfer color-interpolation-filters="sRGB"><feFuncR type="discrete" tableValues="1.000000 1.000000"/><feFuncG type="discrete" tableValues="1.000000 1.000000"/><feFuncB type="discrete" tableValues="1.000000 1.000000"/><feFuncA type="linear" slope="1.000000" intercept="0.000000"/></feComponentTransfer><feGaussianBlur stdDeviation="3.762488 3.762488"/></filter><filter id="fx2" x="-10%" y="-10%" width="120%" height="120%" filterUnits="userSpaceOnUse" primitiveUnits="userSpaceOnUse"><feComponentTransfer color-interpolation-filters="sRGB"><feFuncR type="discrete" tableValues="1.000000 1.000000"/><feFuncG type="discrete" tableValues="1.000000 1.000000"/><feFuncB type="discrete" tableValues="1.000000 1.000000"/><feFuncA type="linear" slope="1.000000" intercept="0.000000"/></feComponentTransfer><feGaussianBlur stdDeviation="3.762488 3.762488"/></filter><filter id="fx3" x="-10%" y="-10%" width="120%" height="120%" filterUnits="userSpaceOnUse" primitiveUnits="userSpaceOnUse"><feComponentTransfer color-interpolation-filters="sRGB"><feFuncR type="discrete" tableValues="1.000000 1.000000"/><feFuncG type="discrete" tableValues="1.000000 1.000000"/><feFuncB type="discrete" tableValues="1.000000 1.000000"/><feFuncA type="linear" slope="1.000000" intercept="0.000000"/></feComponentTransfer><feGaussianBlur stdDeviation="3.762488 3.762488"/></filter><clipPath id="clip4"><rect x="2296" y="-9" width="266" height="114"/></clipPath><clipPath id="clip5"><rect x="-11.2874" y="-11.2875" width="281.575" height="136.575"/></clipPath><clipPath id="clip6"><rect x="0" y="0" width="259" height="114"/></clipPath><clipPath id="clip7"><rect x="1.68164" y="1.31403" width="205.575" height="23.5749"/></clipPath><clipPath id="clip8"><rect x="0" y="0" width="209" height="27"/></clipPath><clipPath id="clip9"><rect x="-11.2874" y="-11.2875" width="281.575" height="135.575"/></clipPath><clipPath id="clip10"><rect x="0" y="0" width="259" height="113"/></clipPath><clipPath id="clip11"><rect x="1.3999" y="2.039" width="205.575" height="23.5749"/></clipPath><clipPath id="clip12"><rect x="0" y="0" width="209" height="27"/></clipPath></defs><g clip-path="url(#clip4)" transform="translate(-2296 9)"><g clip-path="url(#clip5)" filter="url(#fx0)" transform="translate(2299 -7)"><g clip-path="url(#clip6)"><path d="M6.888 0 6.888-8.61C15.006-9.02 20.336-11.726 20.336-17.712 20.336-23.821 14.842-27.019 4.346-25.338L4.346 0ZM17.794-17.261C17.794-12.382 13.858-10.578 6.888-10.988L6.888-23.329C14.268-24.395 17.794-21.853 17.794-17.261ZM40.6287 0 40.8747-1.927 33.6997-1.927C33.6587-6.847 33.5767-11.152 33.5357-14.883 35.7087-16.482 38.7017-17.589 43.0887-17.917L42.9657-20.541C38.6607-20.09 35.4627-18.45 33.4537-16.523 33.4127-17.466 33.2897-19.311 33.2487-19.844L25.9507-19.844 25.7457-18.081 30.9937-17.794C31.1167-13.53 31.1577-8.487 31.2807-1.927L25.6637-1.927 25.6637 0ZM56.7803 0.574C61.7413 0.574 65.9233-3.731 65.9233-10.25 65.9233-16.564 62.3973-20.377 57.4773-20.377 52.5163-20.377 48.2933-16.072 48.2933-9.635 48.2933-3.28 51.9013 0.574 56.7803 0.574ZM57.1493-1.517C53.4183-1.517 50.7943-4.633 50.7943-10.127 50.7943-15.334 53.4183-18.286 57.0673-18.286 60.8393-18.286 63.4633-15.211 63.4633-9.758 63.4633-4.51 60.8393-1.517 57.1493-1.517ZM79.205-1.681C77.975-1.681 76.704-1.886 75.351-2.378 75.31-8.651 75.228-12.587 75.146-16.236 76.622-17.425 78.467-18.204 80.394-18.204 83.797-18.204 86.38-15.334 86.38-10.168 86.38-4.715 83.141-1.681 79.205-1.681ZM75.351 6.765 75.351 0.205C76.335 0.41 77.319 0.492 78.221 0.492 83.879 0.492 88.84-3.731 88.84-10.783 88.84-16.605 85.601-20.295 81.296-20.295 78.713-20.295 76.663-19.147 75.064-17.835L74.9-19.926 72.604-19.762C72.768-15.416 72.85-9.102 72.85 0.041L72.85 6.97ZM110.117 0.451 110.445-1.722C100.277-2.009 97.2837-4.182 97.0377-9.307L111.142-9.635C111.88-15.949 109.133-20.336 103.803-20.336 98.6777-20.336 94.5777-15.703 94.5777-9.676 94.5777-3.239 97.9807 0.246 110.117 0.451ZM103.311-18.245C107.083-18.245 108.928-15.416 108.846-11.275L97.0377-10.947C97.2837-15.539 99.6617-18.245 103.311-18.245ZM132.295 0 132.541-1.927 125.366-1.927C125.325-6.847 125.243-11.152 125.202-14.883 127.375-16.482 130.368-17.589 134.755-17.917L134.632-20.541C130.327-20.09 127.129-18.45 125.12-16.523 125.079-17.466 124.956-19.311 124.915-19.844L117.617-19.844 117.412-18.081 122.66-17.794C122.783-13.53 122.824-8.487 122.947-1.927L117.33-1.927 117.33 0ZM156.319 0.369 156.524-1.804C149.513-1.927 147.545-2.911 147.545-6.601L147.545-17.876 156.114-17.876 156.114-19.844 147.545-19.844 147.545-25.707 145.085-25.461 145.085-19.844 141.231-19.844 140.903-17.876 145.085-17.876 145.085-6.191C145.085-1.435 147.955 0.41 156.319 0.369ZM163.287 7.298C169.683 6.396 171.487 4.51 173.988-1.804 176.899-8.815 179.072-14.678 180.917-19.844L178.539-19.844C177.104-15.949 174.275-7.749 172.389-3.239L172.102-3.239C169.601-8.733 167.182-14.391 164.968-19.926L162.426-19.803C164.722-14.268 168.248-6.027 170.913-0.328L170.954-0.328C169.396 3.198 168.289 4.1 163.041 4.92Z" fill="#FFFFFF" fill-rule="nonzero" fill-opacity="1" transform="matrix(1 0 0 1 37.969 66)"/></g></g><text fill="#FFFFFF" fill-opacity="1" font-family="Operator Mono Light,Operator Mono Light_MSFontService,sans-serif" font-style="normal" font-variant="normal" font-weight="300" font-stretch="normal" font-size="41" text-anchor="start" direction="ltr" writing-mode="lr-tb" unicode-bidi="normal" text-decoration="none" transform="matrix(1 0 0 1 2336.97 55)">Property</text><g clip-path="url(#clip7)" filter="url(#fx1)" transform="translate(2324 48)"><g clip-path="url(#clip8)"><path d="M12.969 12.6015 58.719 12.6015 104.469 12.6015 150.219 12.6015 195.969 12.6015 195.969 13.6015 150.219 13.6015 104.469 13.6015 58.719 13.6015 12.969 13.6015Z" fill="#FFFFFF" fill-rule="evenodd" fill-opacity="1"/></g></g><path d="M2336.97 57.1806 2382.72 57.1806 2428.47 57.1806 2474.22 57.1806 2519.97 57.1806 2519.97 58.1806 2474.22 58.1806 2428.47 58.1806 2382.72 58.1806 2336.97 58.1806Z" fill="#FFFFFF" fill-rule="evenodd" fill-opacity="1"/><g clip-path="url(#clip9)" filter="url(#fx2)" transform="translate(2303 -8)"><g clip-path="url(#clip10)"><path d="M6.888 0 6.888-8.61C15.006-9.02 20.336-11.726 20.336-17.712 20.336-23.821 14.842-27.019 4.346-25.338L4.346 0ZM17.794-17.261C17.794-12.382 13.858-10.578 6.888-10.988L6.888-23.329C14.268-24.395 17.794-21.853 17.794-17.261ZM40.6287 0 40.8747-1.927 33.6997-1.927C33.6587-6.847 33.5767-11.152 33.5357-14.883 35.7087-16.482 38.7017-17.589 43.0887-17.917L42.9657-20.541C38.6607-20.09 35.4627-18.45 33.4537-16.523 33.4127-17.466 33.2897-19.311 33.2487-19.844L25.9507-19.844 25.7457-18.081 30.9937-17.794C31.1167-13.53 31.1577-8.487 31.2807-1.927L25.6637-1.927 25.6637 0ZM56.7803 0.574C61.7413 0.574 65.9233-3.731 65.9233-10.25 65.9233-16.564 62.3973-20.377 57.4773-20.377 52.5163-20.377 48.2933-16.072 48.2933-9.635 48.2933-3.28 51.9013 0.574 56.7803 0.574ZM57.1493-1.517C53.4183-1.517 50.7943-4.633 50.7943-10.127 50.7943-15.334 53.4183-18.286 57.0673-18.286 60.8393-18.286 63.4633-15.211 63.4633-9.758 63.4633-4.51 60.8393-1.517 57.1493-1.517ZM79.205-1.681C77.975-1.681 76.704-1.886 75.351-2.378 75.31-8.651 75.228-12.587 75.146-16.236 76.622-17.425 78.467-18.204 80.394-18.204 83.797-18.204 86.38-15.334 86.38-10.168 86.38-4.715 83.141-1.681 79.205-1.681ZM75.351 6.765 75.351 0.205C76.335 0.41 77.319 0.492 78.221 0.492 83.879 0.492 88.84-3.731 88.84-10.783 88.84-16.605 85.601-20.295 81.296-20.295 78.713-20.295 76.663-19.147 75.064-17.835L74.9-19.926 72.604-19.762C72.768-15.416 72.85-9.102 72.85 0.041L72.85 6.97ZM110.117 0.451 110.445-1.722C100.277-2.009 97.2837-4.182 97.0377-9.307L111.142-9.635C111.88-15.949 109.133-20.336 103.803-20.336 98.6777-20.336 94.5777-15.703 94.5777-9.676 94.5777-3.239 97.9807 0.246 110.117 0.451ZM103.311-18.245C107.083-18.245 108.928-15.416 108.846-11.275L97.0377-10.947C97.2837-15.539 99.6617-18.245 103.311-18.245ZM132.295 0 132.541-1.927 125.366-1.927C125.325-6.847 125.243-11.152 125.202-14.883 127.375-16.482 130.368-17.589 134.755-17.917L134.632-20.541C130.327-20.09 127.129-18.45 125.12-16.523 125.079-17.466 124.956-19.311 124.915-19.844L117.617-19.844 117.412-18.081 122.66-17.794C122.783-13.53 122.824-8.487 122.947-1.927L117.33-1.927 117.33 0ZM156.319 0.369 156.524-1.804C149.513-1.927 147.545-2.911 147.545-6.601L147.545-17.876 156.114-17.876 156.114-19.844 147.545-19.844 147.545-25.707 145.085-25.461 145.085-19.844 141.231-19.844 140.903-17.876 145.085-17.876 145.085-6.191C145.085-1.435 147.955 0.41 156.319 0.369ZM163.287 7.298C169.683 6.396 171.487 4.51 173.988-1.804 176.899-8.815 179.072-14.678 180.917-19.844L178.539-19.844C177.104-15.949 174.275-7.749 172.389-3.239L172.102-3.239C169.601-8.733 167.182-14.391 164.968-19.926L162.426-19.803C164.722-14.268 168.248-6.027 170.913-0.328L170.954-0.328C169.396 3.198 168.289 4.1 163.041 4.92Z" fill="#7F7F7F" fill-rule="nonzero" fill-opacity="1" transform="matrix(1 0 0 1 37.6873 65)"/></g></g><text fill="#7F7F7F" fill-opacity="1" font-family="Operator Mono Light,Operator Mono Light_MSFontService,sans-serif" font-style="normal" font-variant="normal" font-weight="300" font-stretch="normal" font-size="41" text-anchor="start" direction="ltr" writing-mode="lr-tb" unicode-bidi="normal" text-decoration="none" transform="matrix(1 0 0 1 2340.69 54)">Property</text><g clip-path="url(#clip11)" filter="url(#fx3)" transform="translate(2328 46)"><g clip-path="url(#clip12)"><path d="M12.6873 13.3265 58.4373 13.3265 104.187 13.3265 149.937 13.3265 195.687 13.3265 195.687 14.3265 149.937 14.3265 104.187 14.3265 58.4373 14.3265 12.6873 14.3265Z" fill="#7F7F7F" fill-rule="evenodd" fill-opacity="1"/></g></g><path d="M2340.69 55.9055 2386.44 55.9055 2432.19 55.9055 2477.94 55.9055 2523.69 55.9055 2523.69 56.9055 2477.94 56.9055 2432.19 56.9055 2386.44 56.9055 2340.69 56.9055Z" fill="#7F7F7F" fill-rule="evenodd" fill-opacity="1"/></g></svg>