<svg id="Capa_1" enable-background="new 0 0 512 512" height="512" viewBox="0 0 512 512" width="512" xmlns="http://www.w3.org/2000/svg"><g><path d="m512 256.001c0 141.384-114.615 255.999-256 255.999s-256-114.615-256-255.999 114.615-256 256-256 256 114.615 256 256z" fill="#ff94d4"/><path d="m452 206.001c0 108.248-87.752 196-196 196s-196-87.752-196-196 87.752-196 196-196 196 87.752 196 196z" fill="#ffafe2"/><path d="m216.674 260.414c16.521-12.927 32.188-24.767 46.864-34.958 3.756 3.028 7.649 6.126 11.688 9.287 41.085 32.155 57.729 40.01 77.412 36.547 19.434-3.42 41.787-19.155 44.935-41.579 2.669-19.005-9.088-40.788-27.347-50.667-26.972-14.596-62.171-1.235-105.86 27.747-11.282-9.282-21.149-17.764-30.235-25.575-3.439-2.957-6.726-5.782-9.881-8.47 5.745-4.906 11.563-10.045 17.444-15.24 11.465-10.126 23.082-20.388 34.505-29.248 22.051 16.129 43.708 28.494 62.43 25.887 11.668-1.624 25.566-8.834 30.315-21.281 5.168-13.546-1.386-28.011-9.661-35.718-11.644-10.841-27.925-9.669-33.335-9.278-16.206 1.168-32.914 9.749-49.695 21.67-5.243-4.014-10.456-8.132-15.539-12.147-2.123-1.677-4.239-3.349-6.343-5.003 3.921-3.734 7.099-7.548 9.237-11.225 16.201-27.846 15.6-51.111-2.011-77.792-2.282-3.458-6.935-4.411-10.392-2.128-3.457 2.281-4.409 6.934-2.128 10.391 14.579 22.089 15.003 38.889 1.565 61.987-1.775 3.051-4.642 6.3-8.242 9.503-22.19-16.793-42.878-29.68-60.185-27.127-9.174 1.35-16.903 5.567-21.765 11.874-7.309 9.483-8.311 23.578-2.438 34.277 5.712 10.407 16.815 16.224 33.002 17.29 15.895 1.037 35.887-6.885 51.324-17.42 3.024 2.365 6.055 4.759 9.075 7.145 4.124 3.258 8.267 6.531 12.413 9.746-10.736 8.518-21.463 17.992-32.065 27.357-6.391 5.645-12.832 11.335-19.194 16.717-22.324-18.167-38.201-27.298-57.557-24.02-17.328 2.934-25.41 11.218-29.14 17.65-6.647 11.465-5.564 27.504 2.575 38.136 5.569 7.274 14.07 11.834 25.266 13.553 1.747.269 3.512.398 5.296.398 16.482-.001 34.512-11.07 53.512-26.234 3.718 3.152 7.649 6.532 11.831 10.127 7.894 6.786 16.913 14.54 27.134 23.012-13.923 9.792-28.648 20.945-44.184 33.102-4.693 3.672-78.361 53.925-94.319 112.489-2.202 8.081-9.685 49.212 15.761 89.637 37.812 58.997 113.825 60.997 121.818 61.146.896.017 4.605.012 4.713.011 57.407-.786 127.767-27.795 141.044-95.199 7.376-37.448 2.723-111.886-90.553-138.099-26.938-5.751-59.137 3.727-79.615 16.057-7.18 4.323-48.045 35.234-41.407 78.383 4.837 31.443 26.826 57.745 69.884 60.921 57.702 4.255 64.889-44.47 65.094-46.197.296-1.541 5.617-35.915-26.351-37.769-13.839 0-25.058 11.219-25.058 25.058 0 3.414-.387 11.87 1.919 9.633-12.213 11.845-62.827-19.101-25.601-59.735 23.129-25.247 88.197-18.803 109.473 19.58 1.916 3.456 17.702 29.787 10.553 67.064-9.28 48.388-62.548 79.159-111.464 80.318-68.006 1.612-108.679-42.075-119.913-83.32-3.842-14.105-5.855-36.135 5.539-60.465 19.545-41.73 72.502-83.615 77.857-87.806zm146.414-68.178c12.606 6.821 21.413 22.697 19.632 35.39-2.058 14.655-18.565 26.408-32.681 28.892-12.783 2.25-25.289-2.062-65.568-33.586-2.708-2.12-5.34-4.202-7.902-6.248 36.713-23.87 66.377-35.346 86.519-24.448zm-36.001-89.413c4.521-.326 15.115-1.088 21.974 5.299 4.812 4.481 8.323 12.96 5.868 19.394-2.723 7.139-12.477 10.951-18.368 11.771-12.66 1.763-29.837-7.723-47.598-20.336 13.361-9.036 26.263-15.273 38.124-16.128zm-135.086 1.645c-10.74-.707-17.75-3.916-20.837-9.54-2.994-5.456-2.492-13.152 1.169-17.902 3.339-4.333 8.994-5.738 12.069-6.191.802-.118 1.63-.176 2.486-.176 11.017 0 26.397 9.519 42.834 21.708-12.147 7.384-26.781 12.82-37.721 12.101zm-36.012 89.004c-7.236-1.111-12.496-3.751-15.631-7.846-4.532-5.92-5.181-15.161-1.509-21.494 3.081-5.315 9.362-8.809 18.667-10.385 1.565-.265 3.125-.396 4.689-.396 11.386 0 22.975 6.927 38.492 19.326-16.994 13.292-32.777 22.627-44.708 20.795z" fill="#54469d"/><path d="m117.34 298.169c0 7.332-5.944 13.277-13.277 13.277-7.332 0-13.277-5.944-13.277-13.277 0-7.332 5.944-13.277 13.277-13.277s13.277 5.944 13.277 13.277zm309.31-26.195c7.332 0 13.277-5.944 13.277-13.277 0-7.332-5.944-13.277-13.277-13.277s-13.277 5.944-13.277 13.277 5.944 13.277 13.277 13.277z" fill="#54469d"/><path d="m159.01 208.697c-1.784 0-3.549-.129-5.296-.398-11.195-1.719-19.696-6.279-25.266-13.554-2.518-3.289-1.894-7.996 1.396-10.514 3.29-2.519 7.997-1.893 10.515 1.396 3.135 4.095 8.395 6.734 15.632 7.846 19.025 2.924 47.872-22.565 75.773-47.21 31.277-27.626 63.672-56.761 94.236-58.964 5.41-.392 22.122-1.714 33.766 9.128 8.275 7.707 15.125 22.645 9.957 36.191-4.749 12.447-19.427 19.901-31.095 21.526-4.094.573-7.892-2.291-8.463-6.394-.57-4.103 2.292-7.892 6.395-8.462 5.892-.82 15.312-4.828 18.035-11.967 2.455-6.434-1.06-14.157-5.872-18.638-6.86-6.389-17.055-5.56-21.574-5.234-25.571 1.843-56.044 28.08-85.455 54.057-29.747 26.273-57.957 51.189-82.684 51.191zm79.15 35.217c49.095-35.218 95.991-66.722 124.733-51.169 12.606 6.822 20.617 21.957 19.826 34.879-.253 4.135 2.282 7.894 6.384 8.47 4.095.578 7.895-2.282 8.47-6.384 2.669-19.005-8.57-41.256-26.829-51.135-34.163-18.489-82.596 7.915-141.602 53.352-3.282 2.527-3.975 7.192-1.484 10.502 1.474 1.96 3.723 2.992 5.999 2.992 1.57 0 3.13-.522 4.503-1.507zm16.469 190.134c-1.692-.156-3.357-.286-4.987-.481-22.873-9.792-38.898-32.504-38.898-58.96 0-35.405 28.702-64.106 64.107-64.106.713 0 1.422.012 2.129.035-13.209 1.572-24.933 6.409-32.347 14.502-32.573 35.555 2.107 63.692 19.467 62.236 2.48-.208 4.294-2.646 3.762-4.546-.623-2.229-.906-5.458-.906-7.301 0-13.839 12.587-26.298 26.426-26.298 31.968 1.854 28.339 37.013 28.043 38.553-.205 1.726-4.765 52.084-66.796 46.366zm8.979-352.886c16.201-27.846 15.6-51.111-2.011-77.792-2.282-3.458-6.935-4.41-10.392-2.128s-4.409 6.934-2.128 10.391c14.579 22.089 15.003 38.889 1.565 61.987-7.86 13.51-37.136 30.914-56.644 30.913-.678 0-1.346-.021-1.999-.064-4.113-.27-7.704 2.857-7.976 6.991-.272 4.133 2.857 7.705 6.991 7.977.947.062 1.905.093 2.88.093 25.415-.004 59.474-20.766 69.714-38.368zm-25.587-71.161c0 5.523-4.477 10-10 10s-10-4.477-10-10 4.477-10 10-10c5.522 0 10 4.477 10 10zm-140.808 329.311c0 5.523-4.477 10-10 10s-10-4.477-10-10 4.477-10 10-10 10 4.477 10 10zm49.261-69.447c0 5.523-4.477 10-10 10s-10-4.477-10-10 4.477-10 10-10 10 4.477 10 10zm273.452-50.623c0-5.523 4.477-10 10-10s10 4.477 10 10-4.477 10-10 10-10-4.478-10-10zm-32.41 69.446c0-5.523 4.477-10 10-10s10 4.477 10 10-4.477 10-10 10-10-4.477-10-10z" fill="#6354b2"/></g></svg>