<svg id="Capa_1" enable-background="new 0 0 512 512" height="512" viewBox="0 0 512 512" width="512" xmlns="http://www.w3.org/2000/svg"><g><path d="m512 256c0 16.543-1.569 32.72-4.567 48.389-.804 4.203-8.612 4.952-9.619 9.079-11.926 48.884-37.887 92.267-73.373 125.638-2.535 2.384 1.783 8.134-.848 10.414-24.34 21.097-52.699 37.679-83.777 48.443-3.33 1.153-3.568-7.488-6.959-6.469-23.349 7.011-48.102 10.778-73.735 10.778-26.024 0-51.142-3.883-74.804-11.102-3.029-.924-9.157 7.825-12.137 6.793-31.077-10.764-59.437-27.346-83.777-48.443-2.807-2.433.715-9.124-1.983-11.675-36.141-34.174-62.33-78.767-73.761-128.973-.655-2.876-7.536-1.571-8.093-4.483-2.998-15.669-4.567-31.846-4.567-48.389s1.569-32.72 4.567-48.389c.754-3.94 8.948-2.951 9.88-6.824 11.953-49.676 38.392-93.71 74.597-127.384 2.202-2.048-2.911-8.954-.638-10.924 24.34-21.097 52.699-37.679 83.777-48.443 4.34-1.503 9.403 8.619 13.846 7.346 22.438-6.428 46.138-9.871 70.642-9.871 24.017 0 47.261 3.307 69.303 9.491 4.899 1.375 9.07-8.621 13.846-6.967 31.077 10.764 59.437 27.346 83.776 48.443 3.546 3.073-1.169 10.792 2.202 14.053 34.061 32.948 59.001 75.268 70.664 122.803 1.039 4.235 10.148 3.961 10.973 8.276 2.996 15.67 4.565 31.847 4.565 48.39z" fill="#0093fa"/><path d="m507.433 207.611-241.607 72.812 241.607 23.966c-11.008 57.539-41.276 108.239-83.839 145.132l-162.681-160.589 78.904 209.031c-26.26 9.096-54.462 14.037-83.817 14.037s-57.557-4.941-83.818-14.037l78.904-209.031-162.68 160.589c-11.25-9.752-21.642-20.468-31.046-32.02-1.412-1.734 3.56-5.454 2.193-7.226-6.733-8.726-12.914-17.899-18.494-27.466-.756-1.296-7.861-.632-8.594-1.942-13.133-23.461-22.68-49.2-27.898-76.477l241.607-23.966-241.607-72.813c11.007-57.539 41.276-108.239 83.839-145.132l162.681 209.433-78.905-257.875c26.261-9.096 54.463-14.037 83.818-14.037s57.557 4.941 83.818 14.037l-78.904 257.876 162.68-209.434c42.563 36.893 72.832 87.593 83.839 145.132z" fill="#00a4fb"/><path d="m113.968 123.933c2.376 3.393 1.551 8.069-1.842 10.445-1.309.917-2.81 1.357-4.295 1.357-2.364 0-4.691-1.115-6.15-3.199l-18.808-26.86c-2.376-3.393-1.551-8.069 1.842-10.445 3.393-2.375 8.07-1.552 10.445 1.842zm-32.469 115.812-56.046 39.245c-3.393 2.376-4.218 7.053-1.842 10.445 1.459 2.084 3.786 3.199 6.15 3.199 1.486 0 2.986-.44 4.295-1.357l56.046-39.244c3.393-2.376 4.218-7.053 1.842-10.445-2.375-3.394-7.052-4.218-10.445-1.843zm-9.72-43.084-32.665 2.857c-4.126.361-7.179 3.999-6.818 8.125.342 3.904 3.616 6.847 7.463 6.847.219 0 .44-.009.663-.028l32.665-2.857c4.126-.361 7.179-3.999 6.818-8.125-.362-4.127-4.006-7.179-8.126-6.819zm78.134-153.839c-.361-4.127-4.005-7.183-8.125-6.818-4.126.361-7.179 3.999-6.818 8.125l5.963 68.16c.342 3.904 3.616 6.847 7.463 6.847.219 0 .44-.009.663-.028 4.126-.361 7.179-3.999 6.818-8.125zm-71.571 125.37c2.825 0 5.53-1.604 6.802-4.332 1.75-3.754.126-8.217-3.627-9.967l-62.009-28.916c-3.754-1.751-8.216-.127-9.967 3.627-1.75 3.754-.126 8.217 3.627 9.967l62.009 28.916c1.025.478 2.103.705 3.165.705zm291.87-132.189c-4.135-.367-7.764 2.691-8.125 6.818l-5.963 68.16c-.361 4.126 2.691 7.764 6.818 8.125.223.02.443.028.663.028 3.846 0 7.121-2.942 7.463-6.847l5.963-68.16c.36-4.125-2.692-7.762-6.819-8.124zm132.248 92.601c-1.751-3.754-6.214-5.38-9.967-3.627l-62.009 28.916c-3.754 1.75-5.378 6.213-3.627 9.967 1.272 2.729 3.978 4.332 6.802 4.332 1.061 0 2.14-.227 3.165-.705l62.009-28.916c3.753-1.75 5.377-6.213 3.627-9.967zm-30.881 85.858c.223.02.443.028.663.028 3.846 0 7.121-2.942 7.463-6.847.361-4.126-2.692-7.764-6.818-8.125l-32.665-2.857c-4.135-.363-7.764 2.691-8.125 6.818-.361 4.126 2.692 7.764 6.818 8.125zm14.968 64.528-56.046-39.244c-3.393-2.376-8.069-1.552-10.445 1.842-2.376 3.393-1.551 8.069 1.842 10.445l56.046 39.244c1.31.917 2.81 1.357 4.295 1.357 2.364 0 4.691-1.115 6.15-3.199 2.376-3.393 1.551-8.07-1.842-10.445zm-59.262-183.759c-3.393-2.375-8.069-1.552-10.445 1.842l-18.808 26.86c-2.376 3.393-1.551 8.069 1.842 10.445 1.31.917 2.81 1.357 4.295 1.357 2.364 0 4.691-1.115 6.15-3.199l18.808-26.86c2.375-3.393 1.551-8.069-1.842-10.445z" fill="#93d0fd"/><path d="m53.193 367.651 202.807-322.028 196.551 312.093s38.888 46.683 34.066 53.028h-430.729z" fill="#54469d"/><path d="m270.917 69.31-215.029 341.435h-1.803c-1.854-2.44-3.665-4.914-5.432-7.421-.193-.274-2.425-.549-2.617-.824-1.672-2.391-3.303-4.812-4.894-7.263-.301-.464.995-3.769.696-4.236-.597-.933-1.188-1.869-1.774-2.81l215.936-342.568z" fill="#463b85"/><path d="m167.77 283.958 84.695 84.695c1.953 1.953 5.118 1.953 7.071 0l84.695-84.695c1.953-1.953 1.953-5.118 0-7.071l-84.695-84.695c-1.953-1.953-5.118-1.953-7.071 0l-84.695 84.695c-1.953 1.952-1.953 5.118 0 7.071z" fill="#6e61b7"/><path d="m294.318 278.104c0 21.163-17.156 38.318-38.318 38.318s-38.318-17.156-38.318-38.318c0-21.163 17.156-38.318 38.318-38.318s38.318 17.155 38.318 38.318z" fill="#ff4fb8"/><path d="m268.106 278.104c0 15.764-4.869 29.527-12.106 36.891-7.237-7.364-12.106-21.127-12.106-36.891s4.869-29.527 12.106-36.891c7.237 7.364 12.106 21.127 12.106 36.891z" fill="#ff73c6"/><path d="m256 326.422c-26.191 0-47.5-21.309-47.5-47.5s21.309-47.5 47.5-47.5 47.5 21.309 47.5 47.5-21.309 47.5-47.5 47.5zm0-80c-17.92 0-32.5 14.579-32.5 32.5s14.58 32.5 32.5 32.5 32.5-14.579 32.5-32.5-14.58-32.5-32.5-32.5zm239.366 159.581-118.108-187.538c-3.982-7.954-8.723-15.464-14.129-22.434l-100.783-160.028c-1.373-2.18-3.77-3.503-6.346-3.503s-4.973 1.323-6.346 3.503l-100.783 160.028c-5.406 6.971-10.147 14.481-14.129 22.435l-102.277 162.4c2.738 4.892 5.633 9.684 8.676 14.371l79.74-126.615c-.257 3.4-.388 6.834-.388 10.299 0 54.924 32.846 102.32 79.926 123.578h-154.383c3.594 5.141 7.372 10.145 11.324 15h431.66c2.731 0 5.246-1.484 6.566-3.875 1.319-2.391 1.235-5.31-.22-7.621zm-131.197-180.172c5.585 11.333 9.44 23.664 11.219 36.647l-102.945-102.945c31.685 4.342 59.485 21.047 78.363 45.078zm7.95 54.591-116.119 116.119-116.119-116.119 116.119-116.118zm2.731 18.482c-8.458 50.47-48.397 90.41-98.867 98.868zm-118.85-244.83 67.699 107.495c-19.931-11.542-43.057-18.154-67.699-18.154s-47.768 6.612-67.699 18.154zm-94.806 150.537c18.877-24.031 46.678-40.736 78.363-45.078l-102.946 102.946c1.779-12.984 5.634-25.315 11.219-36.648zm-24.044 94.293 98.867 98.868c-50.47-8.458-90.409-48.397-98.867-98.868zm174.431 103.596c47.08-21.259 79.926-68.655 79.926-123.578 0-3.464-.131-6.899-.388-10.299l68.272 108.405 11.468 18.209 4.574 7.262h-163.852z" fill="#ffc143"/><path d="m440.483 318.858-63.536-100.886c-3.821-7.535-8.326-14.674-13.433-21.33l-55.91-88.777c-1.373-2.18-3.77-3.503-6.346-3.503-5.902 0-9.492 6.503-6.346 11.497l28.834 45.783c-18.858-10.96-40.587-17.503-63.774-18.17-10.47-.301-20.685.593-30.52 2.554-3.476.693-5.951 3.792-5.951 7.337v.013c0 4.709 4.294 8.276 8.913 7.356 2.357-.47 4.74-.87 7.144-1.199l-49.068 49.067c-2.929 2.929-2.929 7.678 0 10.607s7.678 2.929 10.607 0l54.903-54.903 116.119 116.118-54.903 54.903c-2.929 2.929-2.929 7.678 0 10.606 2.929 2.929 7.678 2.929 10.607 0l47.027-47.027c-1.128 6.731-2.816 13.276-5.014 19.583-1.71 4.907 1.855 10.045 7.051 10.045h.003c3.167 0 6.017-1.981 7.063-4.97 4.896-13.995 7.558-29.03 7.554-44.675-.001-3.453-.133-6.878-.391-10.269l36.675 58.234c1.373 2.18 3.77 3.503 6.346 3.503 5.902 0 9.492-6.503 6.346-11.497zm-65.095-56.38-102.946-102.946c31.8 4.366 59.731 21.26 78.627 45.497l12.931 20.533c5.675 11.413 9.591 23.839 11.388 36.916z" fill="#ffcd6b"/><path d="m303.462 277.007c.187 4.738-.324 9.332-1.439 13.688-.852 3.33-3.843 5.667-7.28 5.667-4.863 0-8.503-4.572-7.281-9.278.703-2.709 1.065-5.555 1.036-8.488-.178-17.999-15.371-32.635-33.365-32.162-4.2.11-8.203 1.022-11.864 2.586-4.988 2.132-10.538-1.426-10.538-6.851v-.003c0-2.951 1.713-5.667 4.419-6.842 6.405-2.78 13.537-4.189 21.025-3.852 24.456 1.097 44.321 21.075 45.287 45.535zm99.228 3.416c5.902 0 9.492-6.502 6.346-11.497l-81.674-129.687c-1.373-2.18-3.77-3.503-6.346-3.503-5.902 0-9.492 6.502-6.346 11.497l81.675 129.687c1.372 2.18 3.769 3.503 6.345 3.503z" fill="#fff587"/></g></svg>