<svg id="Capa_1" enable-background="new 0 0 512 512" height="512" viewBox="0 0 512 512" width="512" xmlns="http://www.w3.org/2000/svg"><g><path d="m512 256c0 141.385-114.615 256-256 256s-256-114.615-256-256 114.615-256 256-256 256 114.615 256 256z" fill="#54469d"/><path d="m449.245 242.818c0 114.006-92.421 206.427-206.427 206.427s-206.427-92.421-206.427-206.427 92.42-206.427 206.427-206.427 206.427 92.42 206.427 206.427z" fill="#6354b2"/><path d="m412.51 104.01-12.592 4.92c-.52.203-.932.615-1.135 1.135l-4.921 12.591c-.663 1.696-3.063 1.696-3.726 0l-4.921-12.591c-.203-.52-.615-.932-1.135-1.135l-12.592-4.92c-1.696-.663-1.696-3.063 0-3.726l12.592-4.921c.52-.203.932-.615 1.135-1.135l4.921-12.591c.663-1.696 3.063-1.696 3.726 0l4.921 12.591c.203.52.615.932 1.135 1.135l12.592 4.921c1.696.663 1.696 3.063 0 3.726z" fill="#ada7d7"/><path d="m427.899 294.139c-45.993-9.305-107.042-14.429-171.899-14.429-64.858 0-125.906 5.125-171.9 14.429-51.544 10.427-76.6 24.109-76.6 41.826s25.056 31.399 76.6 41.826c45.994 9.305 107.042 14.429 171.9 14.429 64.857 0 125.906-5.125 171.899-14.429 51.545-10.427 76.601-24.109 76.601-41.826s-25.056-31.399-76.601-41.826zm-2.973 68.95c-45.045 9.113-105.037 14.131-168.926 14.131s-123.881-5.019-168.926-14.131c-51.078-10.334-64.574-22.261-64.574-27.124s13.496-16.791 64.574-27.124c45.044-9.113 105.037-14.131 168.926-14.131s123.881 5.019 168.926 14.131c51.078 10.333 64.574 22.261 64.574 27.124s-13.496 16.79-64.574 27.124z" fill="#93d0fd"/><path d="m371.479 405.081c-24.04 38.545-66.842 64.181-115.628 64.128-74.619-.08-135.771-61.232-135.851-135.851-.052-48.744 25.539-91.514 64.029-115.566.761-.475 1.666.387 1.229 1.17-11.333 20.336-17.6 43.882-17.092 68.931 1.47 72.544 60.606 131.68 133.15 133.15 25.083.508 48.66-5.776 69.015-17.139.765-.427 1.612.433 1.148 1.177z" fill="#ff73c6"/><path d="m392 333.209c0 26.514-7.588 51.255-20.709 72.172-20.917 13.122-45.658 20.709-72.172 20.709-75.111 0-136-60.889-136-136 0-26.514 7.588-51.255 20.709-72.172 20.917-13.122 45.658-20.709 72.172-20.709 75.111 0 136 60.89 136 136z" fill="#ff94d4"/><path d="m330.337 243.616c0 10.999-30.191 19.915-67.434 19.915s-67.434-8.916-67.434-19.915 30.191-19.915 67.434-19.915 67.434 8.916 67.434 19.915zm-113.995 56.699c-38.953 0-70.53 8.916-70.53 19.915s31.577 19.915 70.53 19.915 70.53-8.916 70.53-19.915c0-10.998-31.577-19.915-70.53-19.915zm124.575 25.822c-22.043 0-39.913 7.744-39.913 17.296s17.869 17.296 39.913 17.296 39.912-7.744 39.912-17.296-17.869-17.296-39.912-17.296z" fill="#ff73c6"/><path d="m283.14 357.822c0 5.448-10.71 9.864-23.921 9.864s-23.921-4.416-23.921-9.864 10.71-9.864 23.921-9.864c13.211-.001 23.921 4.416 23.921 9.864zm8.702 55.335c-23.05 0-41.736 4.416-41.736 9.864s18.686 9.864 41.736 9.864 41.736-4.416 41.736-9.864-18.685-9.864-41.736-9.864zm-98.833-148.617c-8.955 0-16.215 4.416-16.215 9.864s7.26 9.864 16.215 9.864 16.215-4.416 16.215-9.864-7.26-9.864-16.215-9.864z" fill="#ffafe2"/><path d="m307.454 243.616c0 6.005-15.387 10.873-34.367 10.873s-34.367-4.868-34.367-10.873 15.387-10.873 34.367-10.873 34.367 4.868 34.367 10.873zm41.293 90.208c-12.572 0-22.763 4.416-22.763 9.864s10.191 9.864 22.763 9.864 22.763-4.416 22.763-9.864-10.191-9.864-22.763-9.864zm-10.513-53.237c-8.955 0-16.215 4.416-16.215 9.864s7.26 9.864 16.215 9.864 16.215-4.416 16.215-9.864c-.001-5.448-7.26-9.864-16.215-9.864zm-192.422 59.549c-8.955 0-16.215 4.416-16.215 9.864s7.26 9.864 16.215 9.864 16.215-4.416 16.215-9.864-7.26-9.864-16.215-9.864zm56.681 82.885c-8.955 0-16.215 4.416-16.215 9.864s7.26 9.864 16.215 9.864 16.215-4.416 16.215-9.864c0-5.447-7.26-9.864-16.215-9.864zm17.174-112.655c-23.446 0-42.453 4.416-42.453 9.864s19.007 9.864 42.453 9.864 42.453-4.416 42.453-9.864-19.007-9.864-42.453-9.864z" fill="#ff4fb8"/><path d="m187.822 162.211c-14.119 22.638-39.257 37.694-67.91 37.663-43.825-.047-79.74-35.962-79.787-79.787-.031-28.628 15-53.747 37.605-67.873.447-.279.978.227.722.687-6.656 11.944-10.337 25.772-10.039 40.484.863 42.606 35.595 77.338 78.201 78.201 14.732.298 28.578-3.393 40.533-10.066.45-.251.948.254.675.691z" fill="#0093fa"/><path d="m199.874 120c0 15.572-4.456 30.103-12.163 42.388-12.285 7.707-26.816 12.163-42.388 12.163-44.113 0-79.874-35.761-79.874-79.874 0-15.572 4.456-30.103 12.163-42.388 12.285-7.707 26.816-12.163 42.388-12.163 44.113 0 79.874 35.761 79.874 79.874z" fill="#49b6fc"/><path d="m169.714 133.748h-105.64c-4.142 0-7.5-3.358-7.5-7.5 0-4.142 3.358-7.5 7.5-7.5h105.639c4.142 0 7.5 3.358 7.5 7.5.001 4.143-3.357 7.5-7.499 7.5zm-51.523-36.103c0-4.142-3.358-7.5-7.5-7.5h-46.617c-4.142 0-7.5 3.358-7.5 7.5 0 4.142 3.358 7.5 7.5 7.5h46.617c4.143 0 7.5-3.357 7.5-7.5zm41.062 57.207c0-4.142-3.358-7.5-7.5-7.5h-19.402c-4.142 0-7.5 3.358-7.5 7.5 0 4.142 3.358 7.5 7.5 7.5h19.402c4.142 0 7.5-3.358 7.5-7.5z" fill="#0093fa"/><path d="m163.202 105.145h-19.402c-4.142 0-7.5-3.358-7.5-7.5 0-4.142 3.358-7.5 7.5-7.5h19.402c4.142 0 7.5 3.358 7.5 7.5 0 4.143-3.358 7.5-7.5 7.5zm-24.15-43.184c0-4.142-3.358-7.5-7.5-7.5h-19.402c-4.142 0-7.5 3.358-7.5 7.5 0 4.142 3.358 7.5 7.5 7.5h19.402c4.142 0 7.5-3.358 7.5-7.5zm31.65 10.904c0-4.142-3.358-7.5-7.5-7.5h-4.234c-4.142 0-7.5 3.358-7.5 7.5 0 4.142 3.358 7.5 7.5 7.5h4.234c4.142 0 7.5-3.358 7.5-7.5z" fill="#93d0fd"/><path d="m286.51 144.097-12.592 4.92c-.52.203-.932.615-1.135 1.135l-4.921 12.591c-.663 1.696-3.063 1.696-3.726 0l-4.921-12.591c-.203-.52-.615-.932-1.135-1.135l-12.592-4.92c-1.696-.663-1.696-3.063 0-3.726l12.592-4.921c.52-.203.932-.615 1.135-1.135l4.921-12.591c.663-1.696 3.063-1.696 3.726 0l4.921 12.591c.203.52.615.932 1.135 1.135l12.592 4.921c1.696.663 1.696 3.063 0 3.726z" fill="#49b6fc"/><path d="m504.5 335.965c0 17.717-25.056 31.398-76.601 41.826-45.993 9.305-107.042 14.429-171.899 14.429-64.858 0-125.906-5.125-171.9-14.429-51.544-10.428-76.6-24.109-76.6-41.826 0-4.142 3.358-7.5 7.5-7.5s7.5 3.358 7.5 7.5c0 4.863 13.496 16.791 64.574 27.124 45.045 9.113 105.037 14.131 168.926 14.131s123.881-5.019 168.926-14.131c51.078-10.333 64.574-22.261 64.574-27.124 0-4.142 3.357-7.5 7.5-7.5s7.5 3.358 7.5 7.5z" fill="#bde2fd"/><path d="m343.985 64.886c-7.504 12.032-20.864 20.034-36.092 20.017-23.292-.025-42.38-19.113-42.405-42.405-.016-15.215 7.972-28.566 19.986-36.073.237-.148.52.121.384.365-3.538 6.348-5.494 13.697-5.335 21.516.459 22.644 18.918 41.103 41.562 41.562 7.83.159 15.189-1.803 21.543-5.35.237-.133.502.136.357.368z" fill="#ffb509"/><path d="m350.39 42.452c0 8.276-2.368 15.999-6.464 22.528-6.529 4.096-14.252 6.464-22.528 6.464-23.445 0-42.452-19.006-42.452-42.452 0-8.276 2.368-15.999 6.464-22.528 6.53-4.096 14.253-6.464 22.529-6.464 23.445 0 42.451 19.006 42.451 42.452z" fill="#ffc143"/><path d="m426.177 229.967-12.592 4.92c-.52.203-.932.615-1.135 1.135l-4.921 12.591c-.663 1.696-3.063 1.696-3.726 0l-4.921-12.591c-.203-.52-.615-.932-1.135-1.135l-12.592-4.92c-1.696-.663-1.696-3.063 0-3.726l12.592-4.921c.52-.203.932-.615 1.135-1.135l4.921-12.591c.663-1.696 3.063-1.696 3.726 0l4.921 12.591c.203.52.615.932 1.135 1.135l12.592 4.921c1.696.663 1.696 3.063 0 3.726z" fill="#fff587"/><path d="m306.277 10.859c7.05 0 12.766 5.716 12.766 12.766s-5.716 12.766-12.766 12.766-12.766-5.716-12.766-12.766 5.715-12.766 12.766-12.766z" fill="#fff587"/><path d="m293.511 49.955c5.476 0 9.916 4.44 9.916 9.916s-4.44 9.916-9.916 9.916-9.916-4.44-9.916-9.916 4.439-9.916 9.916-9.916z" fill="#ffb509"/><path d="m328.489 44.338c5.476 0 9.916 4.44 9.916 9.916s-4.44 9.916-9.916 9.916-9.916-4.44-9.916-9.916 4.44-9.916 9.916-9.916z" fill="#ffcd6b"/></g></svg>