<svg id="Capa_1" enable-background="new 0 0 512 512" height="512" viewBox="0 0 512 512" width="512" xmlns="http://www.w3.org/2000/svg"><g><path d="m512 256c0 99.962-57.294 186.543-140.835 228.695-2.307 1.164-13.521-3.982-15.867-2.886-32.862 15.345-62.444 20.426-101.106 20.426-38.599 0-60.37-5.128-93.191-20.426-2.401-1.119-17.806 4.077-20.165 2.886-83.542-42.152-140.836-128.733-140.836-228.695 0-141.385 114.615-256 256-256s256 114.615 256 256z" fill="#fa0"/><path d="m467.709 234.412c0 116.924-94.785 211.709-211.709 211.709s-211.709-94.786-211.709-211.709 94.785-211.709 211.709-211.709 211.709 94.785 211.709 211.709z" fill="#ffc143"/><path d="m105.492 189.875c-1.574 3.832-5.956 5.662-9.787 4.088l-53.049-21.793c-3.831-1.574-5.662-5.956-4.088-9.787 1.574-3.832 5.956-5.662 9.787-4.087l53.049 21.792c3.832 1.574 5.662 5.955 4.088 9.787zm11.1-76.906c-.86-1.291-2.05-2.229-3.384-2.776-2.23-.916-4.86-.742-7.016.695-3.447 2.298-4.378 6.955-2.081 10.401l19.304 28.96c2.297 3.449 6.954 4.378 10.4 2.082 3.447-2.298 4.378-6.955 2.081-10.401zm-21.851 118.092c-1.334-.548-2.84-.718-4.358-.404l-34.088 7.027c-4.056.836-6.667 4.802-5.831 8.86.837 4.056 4.803 6.669 8.86 5.83l34.088-7.027c4.056-.836 6.667-4.802 5.831-8.86-.523-2.538-2.272-4.51-4.502-5.426zm378.69-68.678c-1.574-3.832-5.956-5.662-9.787-4.087l-53.049 21.792c-3.831 1.574-5.662 5.956-4.088 9.787 1.574 3.832 5.956 5.662 9.787 4.088l53.049-21.792c3.832-1.575 5.662-5.956 4.088-9.788zm-67.623-51.496c-2.156-1.437-4.786-1.611-7.016-.695-1.334.548-2.524 1.486-3.384 2.776l-19.304 28.96c-2.298 3.446-1.366 8.102 2.081 10.401 3.446 2.296 8.103 1.367 10.4-2.082l19.304-28.96c2.298-3.445 1.366-8.102-2.081-10.4zm49.897 126.797-34.088-7.027c-1.519-.313-3.025-.144-4.358.404-2.229.916-3.978 2.888-4.502 5.426-.836 4.057 1.775 8.024 5.831 8.86l34.088 7.027c4.057.839 8.023-1.774 8.86-5.83.836-4.058-1.775-8.024-5.831-8.86z" fill="#ffd98f"/><path d="m256 324.766c-23.708 0-44.336-10.239-58.537-26.054-7.005 10.064-18.64 16.892-32.329 16.892-26.951 0-45.94-26.462-37.31-51.994 0 0 28.581-49.886 37.31-110.389 2.218-15.375 12.68 17.037 21.963 50.644l68.903-203.865 40.867 220.778c17.259 51.064 13.035 103.988-40.867 103.988z" fill="#fff587"/><path d="m356.606 341.874c-25.307 0-43.593-23.332-38.585-47.317-14.197 18.154-36.295 30.209-62.02 30.209-53.903 0-.001-324.766-.001-324.766l74.62 220.778c1.412 4.177 2.454 8.366 3.148 12.538 9.489-34.696 20.549-69.685 22.837-53.825 8.729 60.503 37.31 110.389 37.31 110.389 8.63 25.532-10.359 51.994-37.309 51.994zm-15.971-201.649c12.834 0 21.876-9.972 17.767-19.594l-17.767-41.602s-12.833 61.196 0 61.196zm-169.997-112.459s-17.911 85.407 0 85.407c17.911 0 30.531-13.918 24.796-27.347z" fill="#fff9bf"/><path d="m256 192.668 30.352 89.801c7.02 20.77-8.427 42.297-30.352 42.297-21.924 0-37.372-21.527-30.352-42.297z" fill="#fff261"/><path d="m170.638 27.766 24.796 58.06c5.735 13.429-6.885 27.347-24.796 27.347-17.911 0-30.53-13.918-24.796-27.347z" fill="#fff587"/><path d="m340.635 79.029 17.767 41.602c4.109 9.622-4.933 19.595-17.767 19.595-12.834 0-21.876-9.973-17.767-19.595z" fill="#fff587"/><path d="m371.165 484.695c-34.618 17.467-73.742 27.305-115.165 27.305s-80.547-9.838-115.165-27.305c17.346-11.333 36.463-20.18 56.846-26.035-78.407-22.522-138.084-89.316-150.236-171.587h72.575c12.595 72.512 60.067 133.057 124.505 163.724 3.8-.204 7.626-.308 11.476-.308 42.497 0 82.058 12.575 115.164 34.206z" fill="#54469d"/><path d="m260.734 459.85c-80.528-21.276-142.181-89.002-154.556-172.778h358.378c-12.375 83.776-74.028 151.503-154.556 172.778-16.142 4.265-33.124 4.265-49.266 0z" fill="#6354b2"/><path d="m105.553 291.488h-63.408c-5.523 0-10-4.477-10-10 0-5.523 4.477-10 10-10h63.408c5.523 0 10 4.477 10 10 0 5.523-4.477 10-10 10z" fill="#8379c2"/><path d="m469.855 291.488h-370.855c-5.523 0-10-4.477-10-10 0-5.523 4.477-10 10-10h370.855c5.523 0 10 4.477 10 10 0 5.523-4.478 10-10 10z" fill="#988fcc"/><path d="m153.553 399.403h-62.213c-5.523 0-10-4.477-10-10 0-5.523 4.477-10 10-10h62.213c5.523 0 10 4.477 10 10 0 5.523-4.477 10-10 10zm66.511 56.718c0-5.523-4.477-10-10-10h-40.596c-5.523 0-10 4.477-10 10 0 5.523 4.477 10 10 10h40.596c5.523 0 10-4.477 10-10z" fill="#6e61b7"/><path d="m420.66 399.403h-272.639c-5.523 0-10-4.477-10-10 0-5.523 4.477-10 10-10h272.639c5.523 0 10 4.477 10 10 0 5.523-4.478 10-10 10zm-68.128 56.718c0-5.523-4.477-10-10-10h-141.737c-5.523 0-10 4.477-10 10 0 5.523 4.477 10 10 10h141.737c5.523 0 10-4.477 10-10zm-96.532-43.158c-5.523 0-10 4.477-10 10s4.477 10 10 10 10-4.477 10-10-4.477-10-10-10zm-40.086 0c-5.523 0-10 4.477-10 10s4.477 10 10 10 10-4.477 10-10-4.477-10-10-10zm-40.086 0c-5.523 0-10 4.477-10 10s4.477 10 10 10 10-4.477 10-10-4.477-10-10-10zm120.258 0c-5.523 0-10 4.477-10 10s4.477 10 10 10 10-4.477 10-10-4.477-10-10-10zm40.086 0c-5.523 0-10 4.477-10 10s4.477 10 10 10 10-4.477 10-10-4.477-10-10-10z" fill="#8379c2"/><path d="m190.133 360.446-25-25 25-25 15.649 25zm-65.866 0-25-25 25-25 15.649 25zm131.733 0-25-25 25-25 15.649 25zm65.867 0-25-25 25-25 15.649 25zm65.866 0-25-25 25-25 15.649 25z" fill="#ff73c6"/><path d="m190.133 360.446v-50l25 25zm-65.866 0v-50l25 25zm131.733 0v-50l25 25zm65.867 0v-50l25 25zm65.866 0v-50l25 25z" fill="#ff94d4"/></g></svg>