<svg id="Capa_1" enable-background="new 0 0 512 512" height="512" viewBox="0 0 512 512" width="512" xmlns="http://www.w3.org/2000/svg"><g><path d="m512 256c0 141.385-114.615 256-256 256s-256-114.615-256-256 114.615-256 256-256 256 114.615 256 256z" fill="#54469d"/><path d="m471.553 225.403c0 102.148-82.808 184.956-184.956 184.956s-184.956-82.808-184.956-184.956 82.807-184.956 184.956-184.956 184.956 82.808 184.956 184.956z" fill="#6354b2"/><path d="m235.717 180.395-14.081 6.505c-3.76 1.737-8.217.097-9.954-3.663-1.737-3.76-.097-8.217 3.663-9.954l14.081-6.505c3.76-1.737 8.217-.097 9.954 3.663 1.737 3.76.097 8.217-3.663 9.954zm42.738 153.03 14.081-6.505c3.76-1.737 8.217-.097 9.954 3.663 1.737 3.76.097 8.217-3.663 9.954l-14.081 6.505c-3.76 1.737-8.217.097-9.954-3.663-1.737-3.76-.097-8.217 3.663-9.954zm5.205-166.647 14.081 6.505c3.76 1.737 5.4 6.194 3.663 9.954-1.737 3.76-6.194 5.4-9.954 3.663l-14.081-6.505c-3.76-1.737-5.4-6.194-3.663-9.954 1.738-3.76 6.194-5.4 9.954-3.663zm-55.32 180.264-14.081-6.505c-3.76-1.737-5.4-6.194-3.663-9.954 1.737-3.76 6.194-5.4 9.954-3.663l14.081 6.505c3.76 1.737 5.4 6.194 3.663 9.954-1.738 3.76-6.194 5.4-9.954 3.663zm-48.855-69.306 6.505 14.081c1.737 3.76.097 8.217-3.663 9.954-3.76 1.737-8.217.097-9.954-3.663l-6.505-14.081c-1.737-3.76-.097-8.217 3.663-9.954 3.76-1.737 8.217-.097 9.954 3.663zm153.03-42.738-6.505-14.081c-1.737-3.76-.097-8.217 3.663-9.954 3.76-1.737 8.217-.097 9.954 3.663l6.505 14.081c1.737 3.76.097 8.217-3.663 9.954-3.76 1.737-8.217.097-9.954-3.663zm-166.647-5.206 6.505-14.081c1.737-3.76 6.194-5.4 9.954-3.663 3.76 1.737 5.4 6.194 3.663 9.954l-6.505 14.081c-1.737 3.76-6.194 5.4-9.954 3.663-3.76-1.737-5.4-6.193-3.663-9.954zm180.264 55.321-6.505 14.081c-1.737 3.76-6.194 5.4-9.954 3.663-3.76-1.737-5.4-6.194-3.663-9.954l6.505-14.081c1.737-3.76 6.194-5.4 9.954-3.663 3.76 1.738 5.4 6.194 3.663 9.954z" fill="#988fcc"/><path d="m127.65 413.134c-1.482 1.683-3.552 2.542-5.631 2.542-1.761 0-3.529-.617-4.955-1.872l-.773-.684c-3.097-2.751-3.376-7.492-.625-10.588s7.491-3.377 10.588-.625l.725.642c3.108 2.737 3.409 7.476.671 10.585zm77.537 31.439-.921-.25c-3.992-1.098-8.122 1.248-9.221 5.242s1.249 8.122 5.242 9.221l1.009.274c.651.175 1.306.259 1.95.259 3.31 0 6.339-2.208 7.238-5.557 1.076-4.001-1.296-8.115-5.297-9.189zm-85.66-331.013c1.802 0 3.611-.646 5.048-1.955l.712-.645c3.077-2.773 3.323-7.516.549-10.592-2.773-3.078-7.516-3.323-10.592-.549l-.769.697c-3.062 2.789-3.284 7.532-.495 10.595 1.48 1.624 3.51 2.449 5.547 2.449zm-13.979 266.891c-2.643-3.189-7.371-3.633-10.561-.99-3.189 2.643-3.633 7.371-.99 10.56l.659.792c1.483 1.775 3.614 2.691 5.759 2.691 1.696 0 3.402-.572 4.805-1.745 3.179-2.656 3.602-7.386.946-10.564zm71.517 54.185-.88-.393c-3.777-1.696-8.218-.007-9.914 3.771-1.696 3.779-.008 8.217 3.771 9.914l.953.425c.986.437 2.017.644 3.031.644 2.878 0 5.623-1.666 6.862-4.467 1.677-3.788-.035-8.218-3.823-9.894zm-26.271-14.127-.804-.518c-3.474-2.254-8.119-1.268-10.375 2.207-2.255 3.474-1.268 8.119 2.207 10.375l.88.567c1.253.802 2.654 1.186 4.039 1.186 2.471 0 4.891-1.22 6.323-3.455 2.234-3.489 1.218-8.128-2.27-10.362zm51.216-352.198.928-.264c3.987-1.123 6.309-5.265 5.187-9.252s-5.267-6.31-9.252-5.187l-.996.283c-3.981 1.141-6.285 5.294-5.144 9.276.943 3.292 3.945 5.436 7.206 5.436.685 0 1.381-.094 2.071-.292zm-108.449 66.105c1.389 1.125 3.057 1.671 4.715 1.671 2.185 0 4.351-.95 5.833-2.78l.612-.752c2.62-3.208 2.143-7.933-1.065-10.553-3.209-2.62-7.934-2.142-10.553 1.065l-.651.801c-2.607 3.218-2.111 7.941 1.109 10.548zm80.518-55.701.886-.408c3.765-1.727 5.417-6.179 3.69-9.944s-6.18-5.417-9.944-3.69l-.922.424c-3.76 1.737-5.401 6.193-3.664 9.954 1.267 2.742 3.979 4.357 6.813 4.357 1.053.001 2.123-.222 3.141-.693zm-30.143 15.801c1.426 0 2.869-.407 4.146-1.255l.794-.525c3.463-2.272 4.429-6.922 2.156-10.385-2.272-3.464-6.922-4.429-10.385-2.156l-.871.575c-3.449 2.293-4.386 6.949-2.093 10.398 1.445 2.172 3.826 3.348 6.253 3.348zm-67.016 66.046c1.187.691 2.485 1.02 3.766 1.02 2.583 0 5.096-1.335 6.489-3.729l.486-.83c2.103-3.569.914-8.167-2.655-10.269-3.569-2.101-8.165-.914-10.269 2.655l-.526.898c-2.084 3.58-.871 8.171 2.709 10.255zm-12.462 28.385c.899.353 1.824.519 2.734.519 2.996 0 5.826-1.808 6.985-4.766l.353-.892c1.534-3.848-.341-8.21-4.189-9.745-3.849-1.535-8.21.341-9.745 4.189l-.385.975c-1.51 3.857.391 8.209 4.247 9.72zm376.78 5.164.298.903c1.034 3.164 3.971 5.173 7.128 5.173.772 0 1.557-.12 2.33-.373 3.938-1.286 6.087-5.521 4.801-9.458l-.33-.995c-1.311-3.928-5.559-6.052-9.489-4.739-3.928 1.312-6.05 5.56-4.738 9.489zm-384.745 24.799c.552.124 1.102.183 1.645.183 3.434 0 6.531-2.373 7.312-5.864l.213-.941c.923-4.038-1.603-8.06-5.64-8.983-4.037-.92-8.06 1.602-8.983 5.64l-.228 1.009c-.905 4.042 1.639 8.052 5.681 8.956zm398.125-4.535c-4.084.692-6.834 4.563-6.142 8.647l.159.953c.605 3.674 3.786 6.282 7.392 6.282.405 0 .815-.033 1.228-.101 4.087-.673 6.854-4.532 6.182-8.619l-.171-1.02c-.692-4.084-4.558-6.832-8.648-6.142zm-388.419 87.621-.221-.926c-.946-4.032-4.982-6.535-9.015-5.589s-6.535 4.982-5.589 9.015l.243 1.019c.829 3.436 3.9 5.742 7.284 5.742.583 0 1.175-.068 1.766-.211 4.027-.972 6.503-5.024 5.532-9.05zm9.204 28.349-.362-.884c-1.555-3.839-5.927-5.692-9.767-4.135-3.839 1.555-5.69 5.928-4.135 9.767l.395.967c1.193 2.895 3.989 4.645 6.938 4.645.952 0 1.92-.183 2.854-.567 3.829-1.579 5.654-5.963 4.077-9.793zm12.934 25.77c-2.127-3.554-6.732-4.713-10.287-2.585-3.555 2.126-4.712 6.732-2.585 10.287l.533.885c1.41 2.331 3.886 3.62 6.424 3.62 1.322 0 2.661-.35 3.875-1.083 3.544-2.144 4.68-6.754 2.536-10.299zm-33.74-75.449c4.127-.346 7.193-3.973 6.847-8.1l-.078-.963c-.328-4.129-3.941-7.22-8.069-6.884-4.129.328-7.211 3.94-6.884 8.069l.084 1.03c.328 3.915 3.606 6.874 7.465 6.874.21 0 .422-.008.635-.026zm-1.39-30.95c.172.012.343.018.513.018 3.912 0 7.208-3.034 7.476-6.995l.067-.965c.297-4.131-2.811-7.722-6.942-8.019-4.125-.301-7.722 2.811-8.019 6.942l-.072 1.03c-.28 4.133 2.844 7.71 6.977 7.989zm267.226-178.084c.818.286 1.653.421 2.473.421 3.1 0 6-1.937 7.081-5.029 1.366-3.91-.697-8.188-4.607-9.554l-.981-.34c-3.917-1.349-8.185.735-9.532 4.651s.734 8.185 4.651 9.532zm105.905 294.636c-3.388-2.382-8.065-1.567-10.449 1.822l-.559.791c-2.397 3.378-1.603 8.06 1.775 10.457 1.318.935 2.833 1.384 4.334 1.384 2.348 0 4.66-1.1 6.123-3.16l.597-.845c2.383-3.389 1.568-8.068-1.821-10.449zm-11.766-224.208c1.466 2.036 3.763 3.119 6.094 3.119 1.517 0 3.049-.459 4.375-1.413 3.362-2.42 4.126-7.106 1.707-10.468l-.608-.841c-2.438-3.349-7.127-4.089-10.477-1.651-3.349 2.437-4.088 7.128-1.651 10.477zm-39.851 268.961-.767.585c-3.298 2.506-3.939 7.212-1.432 10.509 1.476 1.941 3.712 2.962 5.976 2.962 1.582 0 3.177-.499 4.533-1.53l.82-.625c3.287-2.521 3.907-7.229 1.386-10.516-2.521-3.286-7.229-3.906-10.516-1.385zm62.057-239.421c1.145 0 2.307-.263 3.396-.818 3.691-1.879 5.161-6.395 3.281-10.086l-.475-.926c-1.901-3.68-6.425-5.123-10.105-3.222s-5.123 6.425-3.222 10.105l.435.847c1.325 2.603 3.958 4.1 6.69 4.1zm-41.413-52.345c1.469 1.497 3.41 2.247 5.353 2.247 1.896 0 3.793-.715 5.253-2.147 2.957-2.901 3-7.65.099-10.606l-.724-.734c-2.914-2.944-7.663-2.969-10.606-.055-2.944 2.914-2.969 7.662-.055 10.606zm12.171 271.644c-2.992-2.866-7.74-2.762-10.604.231l-.667.692c-2.88 2.977-2.801 7.725.176 10.605 1.457 1.409 3.336 2.11 5.214 2.11 1.961 0 3.92-.765 5.392-2.285l.721-.749c2.863-2.991 2.76-7.739-.232-10.604zm50.008-111.443c-4.095-.627-7.92 2.188-8.545 6.283l-.148.952c-.645 4.092 2.15 7.931 6.242 8.576.396.062.788.092 1.176.092 3.627 0 6.817-2.638 7.399-6.334l.159-1.023c.625-4.095-2.188-7.921-6.283-8.546zm-16.384 59.589c-3.713-1.833-8.211-.307-10.044 3.407l-.427.858c-1.855 3.704-.356 8.209 3.348 10.064 1.078.54 2.224.795 3.353.795 2.75 0 5.397-1.518 6.712-4.143l.466-.937c1.832-3.714.307-8.211-3.408-10.044zm24.986-84.289c.063-.406.093-.823.088-1.248l-.015-1.032c-.067-4.142-3.484-7.43-7.62-7.378-4.142.067-7.445 3.479-7.378 7.62l.014.965c.005.394.04.78.103 1.156-.059.378-.089.765-.089 1.16l-.002.967c-.018 4.142 3.325 7.515 7.467 7.533h.034c4.126 0 7.481-3.336 7.5-7.467l.002-1.033c-.002-.423-.037-.838-.104-1.243zm-14.49 55.117c-3.95-1.244-8.163.95-9.407 4.9l-.291.915c-1.269 3.943.9 8.167 4.843 9.436.764.246 1.537.362 2.298.362 3.169 0 6.115-2.026 7.138-5.206l.318-1c1.246-3.952-.948-8.163-4.899-9.407zm-189.685-249.032c.075.002.149.003.224.003 4.04 0 7.374-3.215 7.493-7.28.122-4.14-3.136-7.595-7.277-7.716l-1.033-.028c-4.133-.129-7.581 3.171-7.684 7.311-.103 4.141 3.17 7.581 7.311 7.684zm2.329 390.234-.961.038c-4.14.152-7.372 3.631-7.22 7.771.149 4.046 3.475 7.225 7.49 7.225.093 0 .187-.001.28-.005l1.029-.041c4.139-.171 7.355-3.664 7.185-7.803-.172-4.14-3.68-7.36-7.803-7.185zm27.311-387.084c.461.085.92.126 1.373.126 3.545 0 6.698-2.525 7.366-6.137.754-4.073-1.937-7.986-6.01-8.739l-1.03-.188c-4.076-.728-7.974 1.987-8.702 6.065s1.987 7.974 6.065 8.702zm80.534 35.046.771.575c1.349 1.011 2.927 1.499 4.492 1.499 2.281 0 4.534-1.037 6.007-3.002 2.484-3.314 1.811-8.015-1.503-10.5l-.834-.622c-3.329-2.468-8.026-1.769-10.492 1.558-2.466 3.328-1.769 8.025 1.559 10.492zm-137.663 351.039-.951-.106c-4.118-.468-7.834 2.481-8.307 6.595-.473 4.115 2.48 7.834 6.595 8.307l1.038.116c.276.03.55.044.822.044 3.777 0 7.028-2.846 7.447-6.688.448-4.117-2.526-7.819-6.644-8.268zm-3.267-387.766.947-.118c4.112-.497 7.043-4.233 6.546-8.345s-4.235-7.051-8.345-6.546l-1.039.128c-4.109.522-7.017 4.276-6.495 8.386.481 3.788 3.71 6.556 7.431 6.556.315-.001.634-.021.955-.061zm62.689 385.263-.938.182c-4.069.776-6.738 4.704-5.962 8.772.686 3.594 3.83 6.096 7.359 6.096.466 0 .939-.044 1.414-.134l1.026-.199c4.064-.801 6.709-4.744 5.909-8.808s-4.743-6.711-8.808-5.909zm52.992-364.419.859.455c1.123.598 2.329.881 3.518.881 2.683 0 5.278-1.443 6.627-3.977 1.946-3.656.56-8.198-3.096-10.145l-.912-.483c-3.662-1.93-8.2-.527-10.132 3.136-1.933 3.665-.529 8.201 3.136 10.133zm2.862 344.153-.844.46c-3.641 1.976-4.991 6.528-3.016 10.169 1.359 2.504 3.937 3.925 6.599 3.925 1.208 0 2.434-.292 3.57-.909l.906-.495c3.632-1.992 4.96-6.551 2.968-10.183-1.993-3.631-6.552-4.96-10.183-2.967zm-27.134 12.281-.908.327c-3.9 1.395-5.931 5.688-4.536 9.588 1.097 3.066 3.983 4.976 7.062 4.976.838 0 1.691-.142 2.526-.44l.974-.351c3.894-1.414 5.905-5.715 4.492-9.609-1.415-3.893-5.715-5.901-9.61-4.491z" fill="#fa0"/><path d="m263.5 77.969v114.699c0 4.142-3.358 7.5-7.5 7.5s-7.5-3.358-7.5-7.5v-114.699c0-4.142 3.358-7.5 7.5-7.5s7.5 3.358 7.5 7.5zm-7.5 233.863c-4.142 0-7.5 3.358-7.5 7.5v114.699c0 4.142 3.358 7.5 7.5 7.5s7.5-3.358 7.5-7.5v-114.699c0-4.142-3.358-7.5-7.5-7.5zm-55.832-55.832c0-4.142-3.358-7.5-7.5-7.5h-114.699c-4.142 0-7.5 3.358-7.5 7.5s3.358 7.5 7.5 7.5h114.699c4.142 0 7.5-3.358 7.5-7.5zm233.863-7.5h-114.699c-4.142 0-7.5 3.358-7.5 7.5s3.358 7.5 7.5 7.5h114.699c4.142 0 7.5-3.358 7.5-7.5s-3.358-7.5-7.5-7.5zm-298.614-123.69c-2.929-2.929-7.678-2.929-10.606 0-2.929 2.929-2.929 7.678 0 10.606l81.104 81.104c1.464 1.464 3.384 2.197 5.303 2.197s3.839-.732 5.303-2.197c2.929-2.929 2.929-7.678 0-10.606zm170.669 170.669c-2.929-2.929-7.678-2.929-10.606 0-2.929 2.929-2.929 7.678 0 10.606l81.104 81.104c1.464 1.464 3.384 2.197 5.303 2.197s3.839-.732 5.303-2.197c2.929-2.929 2.929-7.678 0-10.606zm-100.172 0-81.104 81.104c-2.929 2.929-2.929 7.678 0 10.606 1.464 1.464 3.384 2.197 5.303 2.197s3.839-.732 5.303-2.197l81.104-81.104c2.929-2.929 2.929-7.678 0-10.606-2.928-2.929-7.677-2.929-10.606 0zm94.869-76.761c1.919 0 3.839-.732 5.303-2.197l81.104-81.104c2.929-2.929 2.929-7.678 0-10.606-2.929-2.929-7.678-2.929-10.606 0l-81.104 81.104c-2.929 2.929-2.929 7.678 0 10.606 1.464 1.464 3.383 2.197 5.303 2.197z" fill="#fff69a"/><path d="m376.682 248.5h-50.244c-1.471-13.917-6.989-26.644-15.351-36.98l37.109-37.109c2.929-2.929 2.929-7.678 0-10.606-2.929-2.929-7.678-2.929-10.606 0l-37.109 37.109c-10.336-8.362-23.064-13.88-36.98-15.351v-56.193c0-4.142-3.358-7.5-7.5-7.5s-7.5 3.358-7.5 7.5v56.193c-13.917 1.471-26.644 6.989-36.98 15.351l-36.88-36.88c-2.929-2.929-7.678-2.929-10.606 0-2.929 2.929-2.929 7.678 0 10.606l36.88 36.88c-8.362 10.336-13.88 23.063-15.351 36.98h-50.244c-4.142 0-7.5 3.358-7.5 7.5s3.358 7.5 7.5 7.5h50.244c1.471 13.917 6.989 26.644 15.351 36.98l-35.004 35.004c-2.929 2.929-2.929 7.678 0 10.606 1.464 1.464 3.384 2.197 5.303 2.197s3.839-.732 5.303-2.197l35.004-35.004c10.336 8.362 23.064 13.88 36.98 15.351v59.182c0 4.142 3.358 7.5 7.5 7.5s7.5-3.358 7.5-7.5v-59.182c13.917-1.471 26.644-6.989 36.98-15.351l35.552 35.552c1.464 1.464 3.384 2.197 5.303 2.197s3.839-.732 5.303-2.197c2.929-2.929 2.929-7.678 0-10.606l-35.552-35.552c8.362-10.336 13.88-23.063 15.351-36.98h50.244c4.142 0 7.5-3.358 7.5-7.5s-3.358-7.5-7.5-7.5zm-120.682 63.332c-30.786 0-55.832-25.046-55.832-55.832s25.046-55.832 55.832-55.832 55.832 25.046 55.832 55.832-25.046 55.832-55.832 55.832z" fill="#fff"/><path d="m289.83 224.362-15.945 30.892c-.242.468-.242 1.024 0 1.493l15.945 30.892c.727 1.408-.784 2.919-2.192 2.192l-30.892-15.945c-.468-.242-1.024-.242-1.493 0l-30.892 15.945c-1.408.727-2.919-.784-2.192-2.192l15.945-30.892c.242-.468.242-1.024 0-1.493l-15.945-30.892c-.727-1.408.784-2.919 2.192-2.192l30.892 15.945c.468.242 1.024.242 1.493 0l30.892-15.945c1.408-.727 2.919.784 2.192 2.192z" fill="#ffc143"/><path d="m302.293 257.55-33.118 10.569c-.502.16-.895.553-1.055 1.055l-10.569 33.118c-.482 1.51-2.618 1.51-3.1 0l-10.569-33.118c-.16-.502-.553-.895-1.055-1.055l-33.118-10.569c-1.51-.482-1.51-2.618 0-3.1l33.118-10.569c.502-.16.895-.553 1.055-1.055l10.569-33.118c.482-1.51 2.618-1.51 3.1 0l10.569 33.118c.16.502.553.895 1.055 1.055l33.118 10.569c1.51.482 1.51 2.618 0 3.1z" fill="#fff587"/><path d="m302.293 257.55-33.119 10.569c-.502.16-.895.554-1.055 1.055l-10.569 33.118c-.241.755-.896 1.133-1.55 1.133v-94.851c.654 0 1.309.378 1.55 1.132l10.569 33.119c.16.502.554.895 1.055 1.055l33.119 10.569c1.51.483 1.51 2.619 0 3.101z" fill="#fff9bf"/><path d="m256 492.69c-63.222 0-122.661-24.62-167.365-69.325-44.705-44.704-69.325-104.143-69.325-167.365s24.62-122.661 69.325-167.365c44.704-44.705 104.143-69.325 167.365-69.325s122.661 24.62 167.365 69.325c44.705 44.704 69.325 104.143 69.325 167.365s-24.62 122.661-69.325 167.365c-44.704 44.705-104.143 69.325-167.365 69.325zm0-458.38c-122.241 0-221.69 99.45-221.69 221.69s99.449 221.69 221.69 221.69 221.69-99.449 221.69-221.69-99.449-221.69-221.69-221.69zm0 407.221c-102.302 0-185.531-83.229-185.531-185.531s83.229-185.531 185.531-185.531 185.531 83.229 185.531 185.531-83.229 185.531-185.531 185.531zm0-356.062c-94.031 0-170.531 76.5-170.531 170.531s76.5 170.531 170.531 170.531 170.531-76.5 170.531-170.531-76.5-170.531-170.531-170.531z" fill="#ffd98f"/><path d="m411.136 211.343-17.45.348c-.721.014-1.403.329-1.881.869l-11.576 13.062c-.78.88-1.897 1.052-2.824.711l19.423-52.783c.928.341 1.667 1.197 1.69 2.372l.348 17.45c.014.721.329 1.403.869 1.881l13.062 11.576c1.76 1.559.689 4.467-1.661 4.514z" fill="#fa0"/><path d="m377.405 226.333c-.928-.341-1.666-1.196-1.69-2.372l-.348-17.45c-.014-.721-.329-1.403-.869-1.881l-13.062-11.576c-1.759-1.559-.689-4.467 1.661-4.514l17.45-.348c.721-.014 1.403-.329 1.881-.869l11.576-13.062c.78-.88 1.896-1.052 2.824-.711l-7.805 25.832zm-254.427-25.864-7.805-25.832c.928-.341 2.045-.169 2.824.711l11.576 13.062c.478.54 1.16.855 1.881.869l17.45.348c2.35.047 3.421 2.955 1.661 4.514l-13.062 11.576c-.54.478-.855 1.16-.869 1.881l-.348 17.45c-.023 1.175-.762 2.03-1.69 2.372z" fill="#ffc143"/><path d="m99.203 207.915 13.062-11.576c.54-.478.855-1.16.869-1.881l.348-17.45c.023-1.175.762-2.03 1.69-2.372l19.423 52.783c-.928.341-2.045.169-2.824-.711l-11.576-13.062c-.478-.54-1.16-.855-1.881-.869l-17.45-.348c-2.35-.047-3.421-2.955-1.661-4.514z" fill="#fa0"/><path d="m227.052 135.505c-.341.928-1.196 1.666-2.372 1.69l-17.45.348c-.721.014-1.403.329-1.881.869l-11.576 13.062c-1.559 1.759-4.467.689-4.514-1.661l-.348-17.45c-.014-.721-.329-1.403-.869-1.881l-13.062-11.576c-.88-.78-1.052-1.896-.711-2.824l25.832 7.805zm60.068 242.81c.341-.928 1.196-1.666 2.372-1.69l17.45-.348c.721-.014 1.403-.329 1.881-.869l11.576-13.062c1.559-1.759 4.467-.689 4.514 1.661l.348 17.45c.014.721.329 1.403.869 1.881l13.062 11.576c.88.78 1.052 1.896.711 2.824l-25.832-7.805zm25.864-254.427 25.832-7.805c.341.928.169 2.045-.711 2.824l-13.062 11.576c-.54.478-.855 1.16-.869 1.881l-.348 17.45c-.047 2.35-2.955 3.421-4.514 1.661l-11.576-13.062c-.478-.54-1.16-.855-1.881-.869l-17.45-.348c-1.175-.023-2.03-.762-2.372-1.69zm-113.968 266.044-25.832 7.805c-.341-.928-.169-2.044.711-2.824l13.062-11.576c.54-.478.855-1.16.869-1.881l.348-17.45c.047-2.35 2.955-3.421 4.514-1.661l11.576 13.062c.478.54 1.16.855 1.881.869l17.45.348c1.175.023 2.03.762 2.372 1.69zm-64.421-103.531c.928.341 1.666 1.196 1.69 2.372l.348 17.45c.014.721.329 1.403.869 1.881l13.062 11.576c1.759 1.559.689 4.467-1.661 4.514l-17.45.348c-.721.014-1.403.329-1.881.869l-11.576 13.062c-.78.88-1.896 1.052-2.824.711l7.805-25.832zm254.427 28.036 7.805 25.832c-.928.341-2.044.169-2.824-.711l-11.576-13.062c-.478-.54-1.16-.855-1.881-.869l-17.45-.348c-2.35-.047-3.421-2.955-1.661-4.514l13.062-11.576c.54-.478.855-1.16.869-1.881l.348-17.45c.023-1.175.762-2.03 1.69-2.372z" fill="#fa0"/><path d="m212.062 101.774.348 17.45c.014.721.329 1.403.869 1.881l13.062 11.576c.88.78 1.052 1.897.711 2.824l-52.783-19.423c.341-.928 1.197-1.667 2.372-1.69l17.45-.348c.721-.014 1.403-.329 1.881-.869l11.576-13.062c1.559-1.76 4.467-.69 4.514 1.661zm90.048 310.272-.348-17.45c-.014-.721-.329-1.403-.869-1.881l-13.062-11.576c-.88-.78-1.052-1.897-.711-2.824l52.783 19.423c-.341.928-1.197 1.667-2.372 1.69l-17.45.348c-.721.014-1.403.329-1.881.869l-11.576 13.062c-1.559 1.759-4.467.689-4.514-1.661zm3.428-311.933 11.576 13.062c.478.54 1.16.855 1.881.869l17.45.348c1.175.023 2.03.762 2.372 1.69l-52.783 19.423c-.341-.928-.169-2.045.711-2.824l13.062-11.576c.54-.478.855-1.16.869-1.881l.348-17.45c.047-2.351 2.955-3.421 4.514-1.661zm-99.076 313.594-11.576-13.062c-.478-.54-1.16-.855-1.881-.869l-17.45-.348c-1.175-.023-2.03-.762-2.372-1.69l52.783-19.423c.341.928.169 2.045-.711 2.824l-13.062 11.576c-.54.478-.855 1.16-.869 1.881l-.348 17.45c-.047 2.35-2.955 3.42-4.514 1.661zm-105.598-112.316 17.45-.348c.721-.014 1.403-.329 1.881-.869l11.576-13.062c.78-.88 1.897-1.052 2.824-.711l-19.423 52.783c-.928-.341-1.667-1.197-1.69-2.372l-.348-17.45c-.014-.721-.329-1.403-.869-1.881l-13.062-11.576c-1.76-1.559-.689-4.467 1.661-4.514zm311.933 5.6-13.062 11.576c-.54.478-.855 1.16-.869 1.881l-.348 17.45c-.023 1.175-.762 2.03-1.69 2.372l-19.423-52.783c.928-.341 2.045-.169 2.824.711l11.576 13.062c.478.54 1.16.855 1.881.869l17.45.348c2.35.047 3.421 2.955 1.661 4.514z" fill="#ffc143"/><path d="m232.252 159.126-26.688 12.33c-3.76 1.737-8.217.097-9.954-3.663-1.737-3.76-.097-8.217 3.663-9.954l26.688-12.33c3.76-1.737 8.217-.097 9.954 3.663 1.737 3.76.098 8.216-3.663 9.954zm49.668 195.568 26.688-12.33c3.76-1.737 8.217-.097 9.954 3.663 1.737 3.76.097 8.217-3.663 9.954l-26.688 12.33c-3.76 1.737-8.217.097-9.954-3.663-1.738-3.76-.098-8.217 3.663-9.954zm5.205-209.185 26.688 12.33c3.76 1.737 5.4 6.194 3.663 9.954-1.737 3.76-6.194 5.4-9.954 3.663l-26.688-12.33c-3.76-1.737-5.4-6.194-3.663-9.954 1.737-3.761 6.194-5.401 9.954-3.663zm-62.25 222.802-26.688-12.33c-3.76-1.737-5.4-6.194-3.663-9.954 1.737-3.76 6.194-5.4 9.954-3.663l26.688 12.33c3.76 1.737 5.4 6.194 3.663 9.954-1.737 3.76-6.194 5.4-9.954 3.663zm-66.659-87.11 12.33 26.688c1.737 3.76.097 8.217-3.663 9.954-3.76 1.737-8.217.097-9.954-3.663l-12.33-26.688c-1.737-3.76-.097-8.217 3.663-9.954 3.76-1.738 8.217-.098 9.954 3.663zm195.568-49.668-12.33-26.688c-1.737-3.76-.097-8.217 3.663-9.954 3.76-1.737 8.217-.097 9.954 3.663l12.33 26.688c1.737 3.76.097 8.217-3.663 9.954-3.76 1.738-8.217.098-9.954-3.663zm-209.185-5.205 12.33-26.688c1.737-3.76 6.194-5.4 9.954-3.663 3.76 1.737 5.4 6.194 3.663 9.954l-12.33 26.688c-1.737 3.76-6.194 5.4-9.954 3.663-3.76-1.737-5.4-6.194-3.663-9.954zm222.802 62.25-12.33 26.688c-1.737 3.76-6.194 5.4-9.954 3.663-3.76-1.737-5.4-6.194-3.663-9.954l12.33-26.688c1.737-3.76 6.194-5.4 9.954-3.663 3.76 1.737 5.4 6.193 3.663 9.954z" fill="#fa0"/></g></svg>