<svg id="Capa_1" enable-background="new 0 0 512 512" height="512" viewBox="0 0 512 512" width="512" xmlns="http://www.w3.org/2000/svg"><g><path d="m512 256c0 16.543-1.569 32.72-4.567 48.389-.804 4.203-8.612 4.952-9.619 9.079-11.926 48.884-37.887 92.267-73.373 125.638-2.535 2.384 1.783 8.134-.848 10.414-24.34 21.097-52.699 37.679-83.777 48.443-3.33 1.153-3.568-7.488-6.959-6.469-23.349 7.011-48.102 10.778-73.735 10.778-26.024 0-51.142-3.883-74.804-11.102-3.029-.924-9.157 7.825-12.137 6.793-31.077-10.764-59.437-27.346-83.777-48.443-2.807-2.433.715-9.124-1.983-11.675-36.141-34.174-62.33-78.767-73.761-128.973-.655-2.876-7.536-1.571-8.093-4.483-2.998-15.669-4.567-31.846-4.567-48.389s1.569-32.72 4.567-48.389c.754-3.94 8.948-2.951 9.88-6.824 11.953-49.676 38.392-93.71 74.597-127.384 2.202-2.048-2.911-8.954-.638-10.924 24.34-21.097 52.699-37.679 83.777-48.443 4.34-1.503 9.403 8.619 13.846 7.346 22.438-6.428 46.138-9.871 70.642-9.871 24.017 0 47.261 3.307 69.303 9.491 4.899 1.375 9.07-8.621 13.846-6.967 31.077 10.764 59.437 27.346 83.776 48.443 3.546 3.073-1.169 10.792 2.202 14.053 34.061 32.948 59.001 75.268 70.664 122.803 1.039 4.235 10.148 3.961 10.973 8.276 2.996 15.67 4.565 31.847 4.565 48.39z" fill="#fa0"/><path d="m507.433 207.611-241.607 48.389 241.607 48.389c-11.008 57.539-41.276 108.239-83.839 145.132l-162.681-185.011 78.904 233.453c-26.26 9.096-54.462 14.037-83.817 14.037s-57.557-4.941-83.818-14.037l78.904-233.453-162.68 185.011c-42.563-36.893-72.831-87.592-83.839-145.132l241.607-48.389-241.607-48.389c11.007-57.539 41.276-108.239 83.839-145.132l162.681 185.011-78.905-233.453c26.261-9.096 54.463-14.037 83.818-14.037s57.557 4.941 83.818 14.037l-78.905 233.453 162.681-185.011c42.563 36.893 72.832 87.593 83.839 145.132z" fill="#ffc143"/><path d="m199.178 91.685c0 16.569-13.431 30-30 30h-96.97c-16.569 0-30-13.432-30-30 0-15.431 11.65-28.14 26.635-29.813 0-.062-.001-.125-.001-.187 0-16.568 13.431-30 30-30h43.703c16.568 0 30 13.431 30 30 0 .062-.001.125-.001.187 14.983 1.672 26.634 14.382 26.634 29.813z" fill="#ffcd6b"/><path d="m226.048 91.685c0 16.569-13.431 30-30 30h-88.085c-16.568 0-30-13.432-30-30 0-14.91 10.877-27.279 25.129-29.606-.002-.131-.002-.262-.002-.394 0-16.568 13.431-30 30-30h37.832c16.569 0 30 13.431 30 30 0 .131-.001.263-.002.394 14.251 2.327 25.128 14.696 25.128 29.606z" fill="#ffd98f"/><path d="m342.158 309.623c-17.936 28.758-49.87 47.884-86.269 47.845-55.673-.06-101.298-45.685-101.357-101.357-.039-36.367 19.055-68.277 47.771-86.222.567-.354 1.243.289.917.873-8.456 15.172-13.131 32.74-12.752 51.428 1.096 54.124 45.218 98.245 99.342 99.342 18.714.379 36.304-4.31 51.491-12.787.571-.319 1.203.323.857.878z" fill="#fff587"/><path d="m357.468 256c0 19.782-5.661 38.241-15.451 53.847-15.606 9.79-34.065 15.451-53.847 15.451-56.039 0-101.468-45.429-101.468-101.468 0-19.782 5.661-38.241 15.451-53.847 15.606-9.79 34.065-15.451 53.847-15.451 56.039 0 101.468 45.429 101.468 101.468z" fill="#fff9bf"/><path d="m263.5 31v100c0 4.143-3.357 7.5-7.5 7.5-4.142 0-7.5-3.357-7.5-7.5v-100c0-4.143 3.358-7.5 7.5-7.5 4.143 0 7.5 3.357 7.5 7.5zm-7.5 342.5c-4.142 0-7.5 3.357-7.5 7.5v100c0 4.143 3.358 7.5 7.5 7.5 4.143 0 7.5-3.357 7.5-7.5v-100c0-4.143-3.357-7.5-7.5-7.5zm-104.503-186.495-86.603-50c-3.587-2.07-8.174-.843-10.245 2.745-2.071 3.587-.842 8.174 2.745 10.245l86.603 50c1.181.682 2.471 1.006 3.743 1.006 2.592 0 5.113-1.345 6.502-3.751 2.071-3.587.842-8.174-2.745-10.245zm303.108 175-86.603-50c-3.589-2.071-8.175-.843-10.245 2.745-2.071 3.587-.842 8.174 2.745 10.245l86.603 50c1.182.682 2.471 1.006 3.743 1.006 2.592 0 5.113-1.345 6.502-3.751 2.072-3.587.842-8.174-2.745-10.245zm-310.608-50-86.603 50c-3.587 2.071-4.816 6.658-2.745 10.245 1.389 2.406 3.91 3.751 6.502 3.751 1.272 0 2.562-.324 3.743-1.006l86.603-50c3.587-2.071 4.816-6.658 2.745-10.245s-6.659-4.815-10.245-2.745zm220.263-111.004c1.272 0 2.562-.324 3.743-1.006l86.603-50c3.587-2.071 4.816-6.658 2.745-10.245-2.07-3.588-6.66-4.814-10.245-2.745l-86.603 50c-3.587 2.071-4.816 6.658-2.745 10.245 1.388 2.406 3.91 3.751 6.502 3.751z" fill="#fff"/><path d="m164.344 112.246c-2.071-3.587-.842-8.174 2.745-10.245 3.586-2.069 8.174-.843 10.245 2.745l23.962 41.504c2.071 3.587.842 8.174-2.745 10.245-1.181.682-2.471 1.006-3.743 1.006-2.592 0-5.113-1.345-6.502-3.751zm158.195 244.004c-2.072-3.588-6.66-4.815-10.245-2.745-3.587 2.071-4.816 6.658-2.745 10.245l25.117 43.504c1.39 2.406 3.91 3.751 6.502 3.751 1.272 0 2.562-.324 3.743-1.006 3.587-2.071 4.816-6.658 2.745-10.245zm-192.539-107.75h-44.323c-4.142 0-7.5 3.357-7.5 7.5s3.358 7.5 7.5 7.5h44.323c4.142 0 7.5-3.357 7.5-7.5s-3.358-7.5-7.5-7.5zm296.322 0h-46.322c-4.143 0-7.5 3.357-7.5 7.5s3.357 7.5 7.5 7.5h46.322c4.143 0 7.5-3.357 7.5-7.5s-3.357-7.5-7.5-7.5zm-226.616 105.005c-3.588-2.071-8.174-.843-10.245 2.745l-25.117 43.504c-2.071 3.587-.842 8.174 2.745 10.245 1.181.682 2.471 1.006 3.743 1.006 2.592 0 5.113-1.345 6.502-3.751l25.117-43.504c2.071-3.587.842-8.174-2.745-10.245zm145.205-251.504c-3.589-2.07-8.175-.843-10.245 2.745l-23.962 41.504c-2.071 3.587-.842 8.174 2.745 10.245 1.182.682 2.471 1.006 3.743 1.006 2.592 0 5.113-1.345 6.502-3.751l23.962-41.504c2.072-3.587.842-8.174-2.745-10.245z" fill="#fff9bf"/><path d="m395.128 457.911h-35.903c-16.569 0-30-13.431-30-30 0-16.569 13.431-30 30-30h35.903c16.569 0 30 13.431 30 30 0 16.568-13.432 30-30 30zm28.409-356.911h-30.905c-11.046 0-20-8.954-20-20 0-11.046 8.954-20 20-20h30.905c11.046 0 20 8.954 20 20 0 11.046-8.954 20-20 20zm-65.631-52.491h-30.905c-11.046 0-20-8.954-20-20 0-11.046 8.954-20 20-20h30.905c11.046 0 20 8.954 20 20 0 11.046-8.954 20-20 20z" fill="#ffcd6b"/><path d="m424.789 457.911h-35.903c-16.569 0-30-13.431-30-30 0-16.569 13.431-30 30-30h35.903c16.569 0 30 13.431 30 30 0 16.568-13.431 30-30 30zm27.344-356.911h-32.765c-11.046 0-20-8.954-20-20 0-11.046 8.954-20 20-20h32.765c11.046 0 20 8.954 20 20 0 11.046-8.955 20-20 20zm-65.631-52.491h-32.765c-11.046 0-20-8.954-20-20 0-11.046 8.954-20 20-20h32.765c11.046 0 20 8.954 20 20 0 11.046-8.954 20-20 20z" fill="#ffd98f"/></g></svg>