<svg id="Capa_1" enable-background="new 0 0 512 512" height="512" viewBox="0 0 512 512" width="512" xmlns="http://www.w3.org/2000/svg"><g><path d="m511.99 253.656c.745 83.236-38.238 157.399-99.135 204.677-2.451 1.903-5.684 2.441-8.625 1.45-45.062-15.186-95.283-23.663-148.23-23.663-52.84 0-102.964 8.442-147.955 23.57-3.113 1.047-6.537.481-9.129-1.536-60.194-46.84-98.916-119.975-98.916-202.154 0-141.277 114.44-255.825 255.677-256 140.183-.173 255.058 113.478 256.313 253.656z" fill="#0093fa"/><path d="m440.925 287.954c-1.963 2.006-2.651 4.935-1.786 7.605l17.659 54.54c1.321 4.081-1.018 8.441-5.149 9.596l-55.209 15.44c-2.703.756-4.763 2.949-5.35 5.693l-11.977 56.062c-.896 4.195-5.102 6.801-9.257 5.736l-55.532-14.233c-2.719-.697-5.599.172-7.48 2.256l-38.403 42.563c-2.873 3.185-7.819 3.339-10.885.339l-40.976-40.092c-2.006-1.963-4.935-2.651-7.605-1.786l-54.54 17.659c-4.081 1.321-8.441-1.018-9.596-5.149l-15.44-55.209c-.756-2.703-2.949-4.763-5.693-5.35l-56.062-11.977c-4.195-.896-6.801-5.102-5.736-9.257l14.233-55.532c.697-2.719-.172-5.6-2.256-7.48l-42.563-38.403c-3.185-2.873-3.339-7.819-.339-10.885l40.092-40.976c1.963-2.006 2.651-4.935 1.786-7.605l-17.659-54.54c-1.321-4.081 1.018-8.441 5.149-9.596l55.209-15.44c2.703-.756 4.763-2.949 5.35-5.693l11.977-56.062c.896-4.195 5.102-6.801 9.257-5.736l55.532 14.233c2.719.697 5.599-.172 7.48-2.256l38.403-42.563c2.873-3.185 7.819-3.338 10.885-.339l40.976 40.092c2.006 1.963 4.935 2.651 7.605 1.786l54.54-17.659c4.081-1.321 8.441 1.018 9.596 5.149l15.44 55.209c.756 2.703 2.949 4.763 5.693 5.35l56.062 11.977c4.195.896 6.801 5.102 5.736 9.257l-14.233 55.532c-.697 2.719.172 5.599 2.256 7.48l42.563 38.403c3.185 2.873 3.339 7.819.339 10.885z" fill="#49b6fc"/><path d="m391.771 277.476c-1.441 1.473-1.946 3.624-1.311 5.584l12.965 40.043c.97 2.996-.748 6.197-3.78 7.045l-40.534 11.336c-1.984.555-3.497 2.165-3.928 4.18l-8.793 41.16c-.658 3.08-3.746 4.993-6.797 4.211l-40.771-10.45c-1.996-.512-4.111.126-5.492 1.656l-28.195 31.249c-2.11 2.338-5.741 2.451-7.992.249l-30.084-29.435c-1.473-1.441-3.623-1.946-5.584-1.312l-40.043 12.965c-2.996.97-6.197-.748-7.045-3.781l-11.336-40.534c-.555-1.984-2.165-3.497-4.18-3.928l-41.161-8.793c-3.08-.658-4.993-3.746-4.211-6.797l10.45-40.771c.512-1.996-.126-4.111-1.656-5.492l-31.249-28.195c-2.338-2.11-2.451-5.741-.249-7.992l29.436-30.084c1.441-1.473 1.946-3.623 1.311-5.584l-12.965-40.043c-.97-2.996.748-6.197 3.78-7.045l40.534-11.336c1.984-.555 3.497-2.165 3.928-4.18l8.793-41.16c.658-3.08 3.746-4.993 6.797-4.211l40.771 10.45c1.996.512 4.111-.126 5.492-1.656l28.195-31.249c2.11-2.338 5.741-2.451 7.992-.249l30.084 29.436c1.473 1.441 3.623 1.946 5.584 1.311l40.043-12.965c2.996-.97 6.197.748 7.045 3.78l11.336 40.534c.555 1.984 2.165 3.497 4.18 3.928l41.161 8.793c3.08.658 4.993 3.746 4.211 6.797l-10.45 40.771c-.512 1.996.126 4.111 1.656 5.491l31.249 28.195c2.338 2.11 2.451 5.741.249 7.992z" fill="#93d0fd"/><path d="m235.311 165.42c2.129 2.956 3.383 6.584 3.383 10.505 0 9.939-8.057 17.996-17.996 17.996s-17.996-8.057-17.996-17.996c0-3.921 1.254-7.549 3.383-10.505-2.129-2.956-3.383-6.584-3.383-10.505 0-9.939 8.057-17.996 17.996-17.996s17.996 8.057 17.996 17.996c.001 3.921-1.254 7.549-3.383 10.505z" fill="#883f2e"/><path d="m319.72 165.42c2.129 2.956 3.383 6.584 3.383 10.505 0 9.939-8.057 17.996-17.996 17.996s-17.996-8.057-17.996-17.996c0-3.921 1.254-7.549 3.383-10.505-2.129-2.956-3.383-6.584-3.383-10.505 0-9.939 8.057-17.996 17.996-17.996s17.996 8.057 17.996 17.996c0 3.921-1.254 7.549-3.383 10.505z" fill="#a44f3e"/><path d="m369 374.149c-2.315 1.294-6.032 1.494-8.508 1.494-5.258 0-10.36-2.77-13.108-7.686l-31.7-56.727-12.312 83.601h-58.096c-3.635-17.18-5.548-34.995-5.548-53.258 0-28.912 4.793-56.704 13.627-82.626h59.042c1.746 0 3.427.374 4.998 1.063 3.151 1.171 5.904 3.347 7.625 6.427l48.553 86.884c4.04 7.234 2.658 16.786-4.573 20.828z" fill="#54469d"/><path d="m243.306 340.17c0 18.744 1.963 37.029 5.694 54.662h-27.327l-12.017-81.596-30.58 54.722c-2.747 4.916-7.85 7.686-13.108 7.686-2.477 0-5.133.664-7.449-.63-7.231-4.042-9.672-14.459-5.631-21.69l46.605-85.086c.217-.426.445-.84.684-1.243.145-.251.297-.497.458-.736 2.912-4.476 7.224-7.31 12.035-7.31h43.431c-8.306 25.577-12.795 52.874-12.795 81.221z" fill="#463b85"/><path d="m263.894 431.041c52.273.834 53.225 79.029.975 80.808-2.944.1-5.901.151-8.87.151-59.373 0-114.026-20.212-157.452-54.132 47.39-17.207 100.864-26.89 157.452-26.89 2.639.001 5.271.022 7.895.063z" fill="#00b327"/><path d="m413.452 457.868c-43.426 33.92-98.079 54.132-157.452 54.132-2.969 0-5.926-.051-8.87-.151-52.25-1.779-51.298-79.974.975-80.808 2.624-.042 5.256-.063 7.894-.063 56.589.001 110.063 9.683 157.453 26.89z" fill="#00c53b"/><path d="m289.077 443.108h-27.45c-17.146 0-29.96-15.05-26.467-31.084l9.611-33.94h61.164l9.61 33.94c3.492 16.034-9.323 31.084-26.468 31.084z" fill="#ff3980"/><path d="m262.908 443.108h-26.94c-17.146 0-29.96-15.05-26.468-31.084l9.611-33.94h26.94l-9.611 33.94c-3.493 16.034 9.322 31.084 26.468 31.084z" fill="#ff0364"/><path d="m319.555 196.266v5.958c0 6.525-5.289 11.814-11.814 11.814h-.873c-5.423 13.243-15.684 23.993-28.585 30.05-.271.127-.543.25-.815.37.004.136.006.273.006.41v20.421c0 7.492-6.073 13.565-13.565 13.565h-2.771c-7.492 0-13.565-6.073-13.565-13.565v-20.421c0-.137.002-.274.006-.41-.273-.12-.545-.243-.815-.37-12.901-6.057-23.162-16.807-28.585-30.05h-.852c-6.525 0-11.814-5.289-11.814-11.814v-5.958c0-5.35 3.557-9.869 8.435-11.323v-8.79c0-2.147.119-4.266.35-6.351 6.277-56.642 90.175-56.642 96.452 0 .231 2.085.35 4.204.35 6.351v8.783c4.887 1.447 8.455 5.971 8.455 11.33z" fill="#ea9b58"/><path d="m311.098 176.153v16.292c0 22.838-13.426 42.539-32.816 51.643-.358.168-.719.329-1.08.485-.362-.156-.722-.317-1.08-.485-19.39-9.104-32.816-28.805-32.816-51.643v-16.292c0-2.146.119-4.266.35-6.351 2.448-22.087 16.698-35.561 33.546-40.423 16.848 4.862 31.099 18.336 33.546 40.423.231 2.085.35 4.204.35 6.351z" fill="#f6a96c"/><path d="m156.522 463.636c0-7.177 5.818-12.996 12.996-12.996h43.122c7.177 0 12.996 5.818 12.996 12.996 0 7.177-5.818 12.996-12.996 12.996h-43.122c-7.178-.001-12.996-5.819-12.996-12.996zm159.492-15.118 41.522 11.636c6.911 1.937 14.084-2.096 16.02-9.007 1.937-6.911-2.096-14.084-9.007-16.02l-41.522-11.636c-6.911-1.937-14.084 2.096-16.02 9.007-1.936 6.911 2.096 14.084 9.007 16.02z" fill="#ea9b58"/><path d="m321.522 460.64h-160c-13.807 0-25-11.193-25-25 0-13.807 11.193-25 25-25h160c13.807 0 25 11.193 25 25 0 13.807-11.193 25-25 25z" fill="#ff3980"/><path d="m343.828 433.743-123.776 54.75c-12.627 5.585-27.391-.123-32.976-12.75-5.585-12.627.123-27.391 12.75-32.976l123.776-54.75c12.627-5.585 27.391.123 32.976 12.75 5.586 12.627-.123 27.391-12.75 32.976z" fill="#ff5e95"/><path d="m263.5 7.5v100c0 4.142-3.358 7.5-7.5 7.5s-7.5-3.358-7.5-7.5v-100c0-4.142 3.358-7.5 7.5-7.5s7.5 3.358 7.5 7.5zm-112.003 156.005-86.603-50c-3.587-2.072-8.174-.842-10.245 2.745s-.842 8.174 2.745 10.245l86.603 50c1.181.682 2.471 1.006 3.743 1.006 2.592 0 5.113-1.346 6.502-3.751 2.071-3.587.842-8.174-2.745-10.245zm303.109 175-86.603-50c-3.588-2.072-8.174-.842-10.245 2.745s-.842 8.174 2.745 10.245l86.603 50c1.181.682 2.471 1.006 3.743 1.006 2.592 0 5.113-1.346 6.502-3.751 2.071-3.587.842-8.174-2.745-10.245zm-310.609-50-86.603 50c-3.587 2.071-4.816 6.658-2.745 10.245 1.389 2.406 3.91 3.751 6.502 3.751 1.272 0 2.562-.324 3.743-1.006l86.603-50c3.587-2.071 4.816-6.658 2.745-10.245s-6.659-4.816-10.245-2.745zm220.263-111.004c1.272 0 2.562-.324 3.743-1.006l86.603-50c3.587-2.071 4.816-6.658 2.745-10.245-2.071-3.588-6.658-4.816-10.245-2.745l-86.603 50c-3.587 2.071-4.816 6.658-2.745 10.245 1.389 2.406 3.91 3.751 6.502 3.751zm-186.926-96.255c-2.071-3.587-6.658-4.816-10.245-2.745s-4.816 6.658-2.745 10.245l23.962 41.504c1.389 2.406 3.91 3.751 6.502 3.751 1.272 0 2.562-.324 3.743-1.006 3.587-2.071 4.816-6.658 2.745-10.245zm-47.334 158.754c4.142 0 7.5-3.358 7.5-7.5s-3.358-7.5-7.5-7.5h-44.323c-4.142 0-7.5 3.358-7.5 7.5s3.358 7.5 7.5 7.5zm250-15c-4.142 0-7.5 3.358-7.5 7.5s3.358 7.5 7.5 7.5h46.323c4.142 0 7.5-3.358 7.5-7.5s-3.358-7.5-7.5-7.5zm-35.089-146.499c-3.588-2.072-8.174-.842-10.245 2.745l-23.962 41.504c-2.071 3.587-.842 8.174 2.745 10.245 1.181.682 2.471 1.006 3.743 1.006 2.592 0 5.113-1.346 6.502-3.751l23.962-41.504c2.072-3.587.843-8.174-2.745-10.245z" fill="#fff"/><path d="m321.258 313.487v.012c-5.267 2.073-18.182 19.851-33.801 24.914-4.774 15.768-22.22 27.154-24.787 33.935h-.012c-2.073-5.267-19.851-18.182-24.914-33.801-15.768-4.774-27.154-22.22-33.935-24.787v-.012c5.267-2.073 18.182-19.851 33.801-24.914 4.774-15.768 22.22-27.154 24.787-33.935h.012c2.073 5.267 19.851 18.182 24.914 33.801 15.767 4.774 27.153 22.219 33.935 24.787z" fill="#fff261"/><path d="m290.484 313.624c0 15.437-12.514 27.951-27.951 27.951s-27.951-12.514-27.951-27.951 12.514-27.951 27.951-27.951 27.951 12.514 27.951 27.951z" fill="#fff69a"/><path d="m275.869 313.624c0 7.365-5.97 13.335-13.335 13.335s-13.335-5.97-13.335-13.335 5.971-13.335 13.335-13.335c7.364-.001 13.335 5.97 13.335 13.335z" fill="#fff5f5"/><path d="m263.348 332.006-4.851 25.787c-.978 5.199-5.245 9.144-10.505 9.712l-82.448 8.9c-.438.047-.873.07-1.303.07-6.05 0-11.252-4.562-11.916-10.713-.711-6.589 4.054-12.507 10.643-13.219l68.315-7.374v-10.527c0-2.761 2.239-5 5-5 1.087 0 2.093.347 2.914.936l.566-3.01c1.225-6.513 7.5-10.798 14.012-9.574 6.512 1.225 10.799 7.499 9.573 14.012z" fill="#d88a55"/><path d="m374.135 365.762c-.664 6.151-5.867 10.713-11.916 10.713-.431 0-.865-.023-1.303-.07l-82.448-8.9c-5.26-.568-9.527-4.513-10.505-9.712l-4.851-25.787c-1.226-6.513 3.062-12.787 9.574-14.012 6.514-1.227 12.787 3.061 14.012 9.574l.392 2.082c2.623.154 4.703 2.329 4.703 4.991v10.162l71.7 7.74c6.589.712 11.354 6.63 10.642 13.219z" fill="#ea9b58"/><path d="m251.631 143.298c0 10.621-8.61 19.23-19.23 19.23s-19.23-8.61-19.23-19.23 8.61-19.23 19.23-19.23 19.23 8.609 19.23 19.23z" fill="#883f2e"/><path d="m311.896 143.298c0 10.621-8.61 19.23-19.23 19.23-4.807 0-9.201-1.763-12.572-4.679-4.183 5.042-10.497 8.254-17.56 8.254-12.595 0-22.806-10.21-22.806-22.806s10.21-22.806 22.806-22.806c7.064 0 13.377 3.212 17.56 8.254 3.371-2.915 7.766-4.679 12.572-4.679 10.62.002 19.23 8.611 19.23 19.232z" fill="#a44f3e"/></g></svg>