<svg id="Capa_1" enable-background="new 0 0 512 512" height="512" viewBox="0 0 512 512" width="512" xmlns="http://www.w3.org/2000/svg"><g><path d="m0 256c0-141.385 114.615-256 256-256s256 114.615 256 256c0 107.436-66.182 199.414-160 237.391-2.488 1.007-64.9-12.796-96-12.796s-93.565 13.782-96.079 12.764c-93.776-37.996-159.921-129.953-159.921-237.359z" fill="#0093fa"/><path d="m451.098 354.12-53.34 14.917c-2.611.73-4.602 2.849-5.169 5.501l-11.571 54.164c-.866 4.053-4.93 6.571-8.944 5.542l-53.652-13.751c-2.627-.673-5.41.166-7.226 2.179l-37.103 41.122c-2.776 3.077-7.555 3.225-10.517.327l-39.588-38.735c-1.938-1.896-4.768-2.561-7.348-1.726l-52.693 17.061c-3.943 1.276-8.155-.984-9.271-4.975l-14.917-53.34c-.73-2.611-2.849-4.602-5.501-5.169l-54.164-11.571c-4.053-.866-6.571-4.93-5.542-8.944l13.751-53.652c.673-2.627-.166-5.41-2.179-7.226l-41.122-37.103c-3.077-2.776-3.225-7.555-.327-10.517l38.735-39.588c1.896-1.938 2.561-4.768 1.726-7.348l-17.061-52.693c-1.277-3.942.984-8.155 4.975-9.271l53.34-14.917c2.611-.73 4.602-2.849 5.169-5.501l11.571-54.164c.866-4.053 4.93-6.571 8.944-5.542l53.652 13.751c2.627.673 5.41-.166 7.226-2.179l37.103-41.122c2.776-3.077 7.555-3.225 10.517-.327l39.588 38.735c1.938 1.896 4.768 2.561 7.348 1.726l52.693-17.061c3.943-1.277 8.155.984 9.271 4.975l14.917 53.34c.73 2.611 2.849 4.602 5.501 5.169l54.164 11.571c4.053.866 6.571 4.93 5.542 8.944l-13.751 53.652c-.673 2.627.166 5.41 2.179 7.226l41.122 37.103c3.077 2.776 3.225 7.555.327 10.517l-38.735 39.588c-1.896 1.938-2.561 4.768-1.726 7.348l17.061 52.693c1.276 3.942-.984 8.154-4.975 9.271z" fill="#49b6fc"/><path d="m212.489 339.078c-28.538 12.279-83.209-25.286-82.848-58.361.12-10.974 6.269-18.799 7.964-20.895 11.445-14.154 35.619-21.936 57.243-16.906-12.157 2.684-23.011 8.732-29.62 16.906-1.695 2.096-7.844 9.921-7.964 20.895-.262 24.027 28.519 50.425 55.225 58.361zm105.957-80.919c7.319-8.089 16.564-12.972 26.329-15.244-18.4-4.062-39.784-.414-53.951 15.244-23.02 25.443-13.659 67.87 5.79 79.444 8.21 4.886 19.178 4.845 30.521 1.475-.999-.43-1.966-.92-2.898-1.475-19.45-11.574-28.812-54.001-5.791-79.444zm-62.446 100.179c-8.572-.447-18.231 7.117-25.191 23.638-8.251 19.584-9.583 44.338-.054 48.353 2.619 1.103 5.786.525 9.173-1.3 4.332-2.335 9.008-3.666 13.733-3.997-3.905-9.242-1.685-27.731 4.771-43.056 3.317-7.873 7.247-13.712 11.38-17.619-4.54-4.292-9.325-6.253-13.812-6.019z" fill="#0093fa"/><path d="m108.898 172.742 26.695-27.283c1.307-1.336 1.765-3.286 1.189-5.064l-11.758-36.315c-.88-2.717.678-5.62 3.428-6.389l36.76-10.281c1.8-.503 3.172-1.963 3.562-3.791l7.975-37.329c.596-2.793 3.397-4.528 6.164-3.819l36.976 9.477c1.81.464 3.729-.115 4.98-1.502l25.57-28.34c1.913-2.12 5.207-2.223 7.248-.226l27.283 26.695c1.336 1.307 3.286 1.765 5.064 1.189l36.315-11.758c2.717-.88 5.62.678 6.389 3.428l10.281 36.76c.503 1.8 1.963 3.172 3.791 3.562l37.328 7.975c2.793.597 4.528 3.397 3.819 6.164l-9.477 36.976c-.464 1.81.115 3.728 1.502 4.98l28.34 25.57c2.12 1.913 2.223 5.207.226 7.248l-26.695 27.283c-1.307 1.336-1.765 3.286-1.189 5.064l7.795 24.074h-253.736l4.242-16.551c.464-1.81-.115-3.729-1.502-4.98l-28.34-25.571c-2.12-1.911-2.223-5.205-.225-7.246z" fill="#ffafe2"/><path d="m165.884 172.348 16.542-16.906c.81-.828 1.094-2.036.737-3.138l-7.286-22.502c-.545-1.684.42-3.483 2.125-3.959l22.778-6.37c1.115-.312 1.965-1.217 2.207-2.349l4.941-23.131c.37-1.73 2.105-2.806 3.82-2.366l22.912 5.872c1.122.288 2.31-.071 3.086-.931l15.845-17.561c1.186-1.314 3.226-1.377 4.491-.14l16.906 16.542c.828.81 2.036 1.094 3.138.737l22.502-7.286c1.684-.545 3.483.42 3.959 2.125l6.37 22.779c.312 1.115 1.217 1.965 2.349 2.207l23.13 4.941c1.731.37 2.806 2.105 2.367 3.819l-5.873 22.912c-.287 1.122.071 2.31.931 3.086l17.561 15.845c1.314 1.185 1.377 3.226.14 4.491l-16.542 16.906c-.81.828-1.094 2.036-.737 3.138l7.129 22.019h-161.345l4.449-17.358c.287-1.122-.071-2.311-.931-3.086l-17.561-15.845c-1.314-1.185-1.378-3.226-.14-4.491z" fill="#ff94d4"/><path d="m263.5 44.021v81.183c0 4.143-3.357 7.5-7.5 7.5s-7.5-3.357-7.5-7.5v-81.183c0-4.143 3.357-7.5 7.5-7.5s7.5 3.358 7.5 7.5zm-91.633 125.427-70.307-40.592c-3.59-2.07-8.176-.843-10.245 2.745-2.071 3.587-.842 8.174 2.745 10.245l70.307 40.592c1.182.682 2.471 1.006 3.743 1.006 2.592 0 5.113-1.345 6.502-3.751 2.072-3.587.842-8.173-2.745-10.245zm248.818-37.846c-2.072-3.588-6.659-4.814-10.245-2.745l-70.307 40.592c-3.587 2.071-4.816 6.658-2.745 10.245 1.39 2.406 3.91 3.751 6.502 3.751 1.272 0 2.562-.324 3.743-1.006l70.307-40.592c3.586-2.072 4.816-6.659 2.745-10.245zm-227.327-28.417c-2.071-3.588-6.66-4.814-10.245-2.745-3.587 2.071-4.816 6.658-2.745 10.245l19.453 33.694c1.389 2.406 3.91 3.751 6.502 3.751 1.272 0 2.562-.324 3.743-1.006 3.587-2.071 4.816-6.658 2.745-10.245zm135.529-2.746c-3.589-2.07-8.175-.843-10.245 2.745l-19.453 33.694c-2.071 3.587-.842 8.174 2.745 10.245 1.182.682 2.471 1.006 3.743 1.006 2.592 0 5.113-1.345 6.502-3.751l19.453-33.694c2.071-3.586.842-8.173-2.745-10.245z" fill="#fff"/><path d="m340.293 339.762-12.591 4.921c-.52.203-.932.615-1.135 1.135l-4.92 12.592c-.663 1.696-3.063 1.696-3.726 0l-4.921-12.593c-.203-.52-.615-.932-1.135-1.135l-12.592-4.921c-1.696-.663-1.696-3.063 0-3.726l12.592-4.921c.52-.203.931-.615 1.135-1.135l4.92-12.592c.663-1.696 3.063-1.696 3.726 0l4.92 12.592c.203.52.615.932 1.135 1.135l12.591 4.921c1.697.664 1.697 3.064.001 3.727zm-149.732-67.517-12.591 4.921c-.52.203-.932.615-1.135 1.135l-4.92 12.592c-.663 1.696-3.063 1.696-3.726 0l-4.92-12.592c-.203-.52-.615-.932-1.135-1.135l-12.592-4.921c-1.696-.663-1.696-3.063 0-3.726l12.592-4.921c.52-.203.931-.615 1.135-1.135l4.92-12.592c.663-1.696 3.063-1.696 3.726 0l4.92 12.592c.203.52.615.932 1.135 1.135l12.591 4.921c1.697.663 1.697 3.063 0 3.726zm283.645 138.723-12.591 4.921c-.52.203-.932.615-1.135 1.135l-4.92 12.592c-.663 1.696-3.063 1.696-3.726 0l-4.92-12.592c-.203-.52-.615-.932-1.135-1.135l-12.592-4.921c-1.696-.663-1.696-3.063 0-3.726l12.592-4.921c.52-.203.931-.615 1.135-1.135l4.92-12.592c.663-1.696 3.063-1.696 3.726 0l4.92 12.592c.203.52.615.932 1.135 1.135l12.591 4.921c1.697.664 1.697 3.064 0 3.726z" fill="#ff94d4"/><path d="m334.981 454.749c9.615.809 17.028 8.811 17.019 18.459v.005 20.179c-29.646 12-62.051 18.609-96 18.609-33.979 0-66.412-6.62-96.079-18.641-.053-11.767-.126-26.626-.2-36.876-.048-6.702-5.493-12.108-12.195-12.108-30.031 0-54.375-24.344-54.375-54.375 0-.618.01-1.235.031-1.848.497-14.877-1.816-29.708-7.434-43.493-11.258-27.626-17.407-57.492-17.407-88.66 0-17.522 1.944-34.633 5.646-51.165 1.017-4.542 5.092-7.744 9.746-7.744h140.7c1.619 0 2.556 1.844 1.589 3.142-9.298 12.475-16.82 26.353-22.189 41.258-.73 2.027-2.927 3.155-4.984 2.512-22.57-7.061-49.086.784-61.243 15.818-1.695 2.096-7.844 9.921-7.964 20.895-.253 23.183 26.529 48.571 52.4 57.456 12.03 4.132 21.831 13.1 27.114 24.671 4.834 10.587 5.679 19.476 12.695 28.667-4.704 16.989 1.045 39.793 8.903 43.103 2.619 1.103 5.786.525 9.173-1.3 6.457-3.48 13.678-4.733 20.685-3.76 21.409 15.506 46.81 22.876 74.369 25.196z" fill="#bde2fd"/><path d="m443.659 256c0-17.522-1.944-34.632-5.646-51.165-1.017-4.542-5.092-7.744-9.746-7.744h-204.304c-10.296 14.477-19.124 30.071-26.267 46.565 8.706 2.515 16.877 7.204 23.481 14.502 23.02 25.443 13.659 67.87-5.79 79.444-10.128 6.027-24.455 4.557-38.503-1.413-.106 3.023-.159 6.059-.159 9.108 0 41.116 9.694 79.969 26.92 114.397 2.268 4.534 9.11 2.913 9.11-2.156 0-4.107 3.164-7.688 7.269-7.811 4.247-.128 7.731 3.278 7.731 7.497v27.065c0 5.245 4.059 9.58 9.29 9.963.261.019.522.038.783.056 5.769.405 10.672-4.182 10.672-9.965v-26.804c0-4.107 3.164-7.688 7.269-7.811 4.247-.128 7.731 3.278 7.731 7.497v27.12c0 5.792 4.912 10.37 10.69 9.963l.172-.012c5.24-.369 9.301-4.727 9.301-9.98v-27.091c0-4.142 3.358-7.5 7.5-7.5 4.142 0 7.5 3.358 7.5 7.5v22.093c0 6.338 5.842 11.117 12.035 9.769.201-.044.402-.088.602-.132 4.551-1.002 7.767-5.075 7.767-9.735v-15.16c0-4.142 3.358-7.5 7.5-7.5 4.142 0 7.5 3.358 7.5 7.5v12.081c0 3.301 3.258 5.637 6.375 4.548 3.896-1.361 7.75-2.813 11.558-4.355v-19.749c0-6.652 5.329-12.079 11.979-12.201.316-.006.495-.009.495-.009 30.031 0 54.375-24.344 54.375-54.375 0-.618-.01-1.234-.031-1.848-.498-14.883 1.819-29.715 7.439-43.506 11.255-27.621 17.402-57.483 17.402-88.646zm-162.413 174.328c-2.619 1.103-5.786.525-9.173-1.3-10.092-5.439-22.052-5.439-32.145 0-3.387 1.825-6.554 2.404-9.173 1.3-9.529-4.015-8.196-28.769.054-48.353 6.96-16.521 16.619-24.085 25.191-23.638 8.572-.447 18.231 7.117 25.191 23.638 8.251 19.585 9.583 44.338.055 48.353zm15.367-92.725c-19.449-11.574-28.81-54.001-5.79-79.444 23.527-26.003 66.958-18.883 83.572 1.662 1.695 2.096 7.844 9.921 7.964 20.895.374 34.233-58.206 73.276-85.746 56.887z" fill="#fff5f5"/><path d="m337.501 287.006-13.172-13.172c-.781-.781-.781-2.047 0-2.828l13.172-13.172c.781-.781 2.047-.781 2.828 0l13.172 13.172c.781.781.781 2.047 0 2.828l-13.172 13.172c-.781.781-2.047.781-2.828 0zm-310.053 98.126-13.172-13.172c-.781-.781-.781-2.047 0-2.828l13.172-13.172c.781-.781 2.047-.781 2.828 0l13.172 13.172c.781.781.781 2.047 0 2.828l-13.172 13.172c-.781.781-2.047.781-2.828 0z" fill="#ff73c6"/></g></svg>