<svg id="Capa_1" enable-background="new 0 0 512 512" height="512" viewBox="0 0 512 512" width="512" xmlns="http://www.w3.org/2000/svg"><g><path d="m512 256c0 141.385-114.615 256-256 256-27.355 0-53.707-4.29-78.422-12.235-4.54-1.459-2.793-7.063-7.219-8.765-38.026-14.625-71.679-38.064-98.458-67.814-1.914-2.126-10.024-.264-11.867-2.454-37.463-44.521-60.034-101.991-60.034-164.732 0-141.385 114.615-256 256-256s256 114.615 256 256z" fill="#0093fa"/><path d="m474.489 256c0 120.668-97.821 218.489-218.489 218.489s-218.489-97.821-218.489-218.489 97.821-218.489 218.489-218.489 218.489 97.821 218.489 218.489z" fill="#49b6fc"/><g fill="#93d0fd"><path d="m347.858 162.254c-1.917 2.052-4.177 3.647-6.72 4.851-15.064 1.527-34.823-3.786-52.904-8.648-23.333-6.274-67.214-17.97-94.778-58.453-13.499-19.825-17.364-38.142-22.186-60.989-1.2-5.684-1.709-10.495-2.089-13.801 5.946 6.748 11.434 11.06 14.732 13.44 37.461 27.031 76.25 9.726 128.552 34.782 7.251 3.474 10.382 5.631 11.603 6.552 27.393 20.651 39.823 65.098 23.79 82.266z"/><path d="m275.652 360.937c11.279-5.619 39.142 14.535 48.403 39.073 8.859 23.473-3.732 39.227 6.998 68.231 3.198 8.645 7.479 20.216 18.012 30.813 4.748 4.777 8.77 7.348 8.231 8.369-1.294 2.451-28.094-5.456-45.488-17.605-47.814-33.398-54.463-119.761-36.156-128.881z"/><path d="m373.749 419.484c-11.685-2.074-25.411-9.547-24.954-11.028.191-.617 2.798-.043 6.565-.055 8.357-.025 14.627-2.909 19.311-5.063 15.716-7.228 16.967-18.439 29.755-24.219 13.368-6.042 32.36-2.993 34.598 3.69 3.635 10.849-33.153 42.377-65.275 36.675z"/></g><path d="m258.214 321.473c12.505-3.034 35.673 23.359 39.323 49.893 3.491 25.382-12.622 38.21-8.523 69.525 1.222 9.334 2.857 21.827 10.939 34.769 3.643 5.835 7.064 9.307 6.295 10.201-1.845 2.146-26.734-11.81-41.294-27.856-40.026-44.109-27.039-131.608-6.74-136.532z" fill="#bde2fd"/><path d="m325.251 246.54c-3.209 2.092-6.712 3.448-10.455 4.181-20.259-3.196-44.348-17.227-66.392-30.066-28.446-16.568-81.978-47.588-104.35-111.63-10.956-31.363-9.8-57.339-8.359-89.74.401-9.019 1.06-15.139 1.949-19.285 8.025 12.365 19.188 35.833 42.361 54.158 1.545 1.222 3.087 2.376 4.627 3.469.095-5.576.357-11.314.633-17.364.265-5.803.979-10.588 1.44-13.884 4.062 8.024 8.293 13.574 10.889 16.706 29.481 35.565 71.371 28.545 115.714 65.922 6.148 5.182 8.637 8.056 9.588 9.253 9.753 12.279 15.232 28.587 16.413 43.878 10.203 33.926 5.561 71.612-14.058 84.402z" fill="#bde2fd"/><path d="m118.629 143.674c-21.422-24.115-38.101-63.184-34.629-65.572 1.447-.995 6.039 4.623 14.093 10.948 17.865 14.03 36.094 18.447 49.714 21.748 45.695 11.073 67.257-10.727 104.267-1.502 38.69 9.644 74.05 48.153 67.561 66.178-10.533 29.258-142.117 34.494-201.006-31.8z" fill="#fff5f5"/><path d="m386.466 239.108c-4.421 35.323-150.078 74.201-232.495 14.937-29.98-21.558-58.416-61.01-55.138-64.548 1.366-1.475 7.906 3.648 18.489 8.691 3.278 1.562 6.516 2.913 9.706 4.081-7.309-6.874-13.984-14.376-19.838-22.533-23.455-32.677-39.095-83.29-34.481-85.803 1.923-1.047 6.894 6.515 16.065 15.4 20.346 19.709 42.385 27.542 58.852 33.396 55.246 19.636 84.805-4.617 129.518 11.605 19.014 6.898 36.728 19.651 50.355 33.801 33.363 10.939 61.029 34.501 58.967 50.973z" fill="#e5f2fd"/><path d="m393.994 214.423c2.384 31.667-118.091 91.431-200.637 54.196-30.027-13.545-61.87-43.007-59.63-46.681.934-1.531 7.558 1.791 17.704 4.328 22.505 5.627 41.34 2.141 55.413-.463 3.44-.637 6.688-1.383 9.768-2.221-14.761-4.648-28.741-11.39-40.997-20.668-25.718-19.468-49.705-54.528-46.767-57.548 1.225-1.259 6.826 3.355 15.959 7.986 20.26 10.271 39.001 11.044 53.004 11.621 46.977 1.936 63.867-23.654 101.966-21.834 39.828 1.903 82.028 32.766 79.184 51.71-.034.225-.074.45-.121.674 8.923 5.749 14.666 12.415 15.154 18.9z" fill="#fff5f5"/><path d="m413.38 164.362c-8.389 7.927-12.041 19.507-10.17 30.896 1.645 10.01.858 22.644-2.794 38.803-14.986 66.297-170.111 108.323-141.148 232.851-44.569-45.141-65.921-111.208-50.935-177.505 12.493-55.269 47.716-99.532 93.65-125.233 11.585-6.482 19.704-17.895 21.494-31.05 2.304-16.934 13.494-32.145 30.226-38.736 18.089-7.125 37.638-2.671 50.826 9.538 10.594 9.807 23.511 16.755 37.508 20.293l9.033 2.283s-19.752 20.909-37.69 37.86z" fill="#fff5f5"/><path d="m451.07 126.502s-19.752 20.909-37.69 37.86c-8.389 7.927-12.041 19.507-10.169 30.896 1.645 10.009.858 22.644-2.794 38.803-14.986 66.297-170.111 108.323-141.148 232.851-29.17-29.544-48.394-68.051-53.995-109.72 48.15-23.151 73.026-51.157 86.919-74.215 10.763-17.863 23.783-47.44 31.531-45.338 5.739 1.557 2.06 18.724 9.73 22.002 9.636 4.119 31.264-16.212 41.942-40.001 6.784-15.114 10.06-27.342 10.432-37.479.424-11.534 6.299-22.16 16.093-28.266 8.401-5.238 17.215-11.043 24.759-16.117 8.85-5.953 15.951-10.899 18.586-12.744z" fill="#e5f2fd"/><path d="m345.325 307.628c3.894.541 7.857-.244 11.251-2.229l55.289-32.335c12.45-7.281 27.31-9.236 41.219-5.422 6.118 1.678 8.243 9.27 3.884 13.879l-83.543 88.338c-13.168 13.924-31.564 21.7-50.726 21.443z" fill="#883f2e"/><path d="m349.044 299.649c4.053-.335 7.876-2.024 10.853-4.796l48.491-45.149c10.919-10.167 25.476-15.502 40.379-14.8 6.555.309 10.417 7.492 7.06 13.13l-64.337 108.072c-10.141 17.034-32.524 33.029-51.924 37.106z" fill="#a44f3e"/><path d="m438.103 229.573-75.41 144.412c-5.176 9.912-14.265 17.205-25.063 20.111-48.747 13.117-93.192 38.809-128.888 74.505l-31.164 31.164c-39.86-12.813-75.458-35.132-104.125-64.287-1.553-1.579 10.781-28.563 10.781-28.563 18.432-18.432 31.591-42.454 44.369-65.174 4.409-7.839 10.143-16.301 16.906-24.675 8.065-9.987 16.399-18.37 23.977-24.46 10.514-8.45 20.673-17.332 30.211-26.87l66.772-71.22c7.982-7.982 21.031-7.807 28.791.525 7.391 7.936 6.823 20.43-.845 28.098l-88.219 88.219 6.38 1.94 109.519-14.223c4.634-.645 8.916-2.83 12.157-6.204l51.005-56.381c11.885-12.372 24.846-18.612 42-18.766 7.554-.069 14.344 5.151 10.846 11.849z" fill="#bb5d4c"/><path d="m295.259 195.041c2.281 2.449 3.803 5.332 4.593 8.373-6.667-1.773-14.072-.045-19.302 5.184l-68.733 68.733c-9.538 9.538-19.698 18.42-30.211 26.87-7.577 6.09-15.911 14.473-23.977 24.46-6.763 8.374-12.497 16.836-16.906 24.675-12.777 22.721-28.667 43.538-47.099 61.97l-20.172 20.172c-4.659-4.739-9.136-9.658-13.418-14.746l19.508-19.508c18.432-18.432 34.321-39.25 47.099-61.97 4.409-7.839 10.143-16.302 16.906-24.675 8.065-9.987 16.399-18.37 23.977-24.46 10.514-8.45 20.673-17.332 30.211-26.87l68.903-69.099c7.982-7.983 20.862-7.441 28.621.891zm-100.131 127.215c0 6.779 5.991 11.995 12.706 11.061l122.705-16.708c4.784-.666 9.206-2.922 12.552-6.405l54.516-56.748c10.257-10.678 23.749-17.523 38.246-19.575l2.249-4.307c3.498-6.698-1.417-14.696-8.973-14.628-17.154.155-33.522 7.215-45.406 19.586l-52.801 54.963c-3.241 3.374-7.523 5.559-12.157 6.204l-114.008 15.498c-5.52.766-9.629 5.486-9.629 11.059z" fill="#a44f3e"/><path d="m269.45 221.889-1.685-1.685c-3.789-3.789-3.789-9.932 0-13.721l14.624-14.624c3.789-3.789 9.932-3.789 13.721 0l1.685 1.685c3.789 3.789 3.789 9.932 0 13.721l-14.624 14.624c-3.789 3.789-9.932 3.789-13.721 0z" fill="#c96e59"/><path d="m390.985 120.807c0 8.971-7.273 16.244-16.244 16.244s-16.244-7.273-16.244-16.244 7.273-16.244 16.244-16.244 16.244 7.273 16.244 16.244z" fill="#e5f2fd"/><path d="m382.241 116.627c0 4.142-3.358 7.5-7.5 7.5s-7.5-3.358-7.5-7.5 3.358-7.5 7.5-7.5 7.5 3.358 7.5 7.5z" fill="#6354b2"/><path d="m76.176 261.006-54.92 16.517c-3.967 1.193-8.149-1.055-9.342-5.022s1.056-8.149 5.022-9.342l54.921-16.517c3.966-1.193 8.149 1.055 9.342 5.022s-1.056 8.149-5.023 9.342zm29.549 30.785c-3.206-2.621-7.931-2.151-10.554 1.058l-22.034 26.941c-2.623 3.206-2.149 7.931 1.057 10.554 2.006 1.64 4.607 2.069 6.915 1.375 1.381-.415 2.657-1.233 3.638-2.433l22.035-26.941c2.623-3.206 2.15-7.931-1.057-10.554zm-68.829-92.505 33.24 10.317c1.481.46 2.996.438 4.377.023 2.308-.694 4.241-2.487 5.01-4.961 1.227-3.957-.984-8.159-4.94-9.386l-33.241-10.317c-3.956-1.23-8.158.984-9.386 4.939-1.227 3.956.984 8.158 4.94 9.385z" fill="#fff5f5"/></g></svg>