<svg id="Capa_1" enable-background="new 0 0 512 512" height="512" viewBox="0 0 512 512" width="512" xmlns="http://www.w3.org/2000/svg"><g><path d="m12.787 322.018c-.32-1.203-.632-2.41-.935-3.621-.152-.606-4.495-1.212-4.642-1.819-4.712-19.421-7.21-39.708-7.21-60.578 0-62.701 22.542-120.137 59.963-164.646 2.086-2.482 12.817 1.961 14.995-.439 46.835-51.616 107.588-79.66 182.776-79.66 55.271 0 93.67 13.982 135.511 43.766 3.496 2.488 17.975-2.659 21.337-.002 59.337 46.884 97.418 119.485 97.418 200.981 0 20.87-2.498 41.157-7.21 60.578-.186.765-2.185 1.529-2.378 2.291-.266 1.052-.538 2.102-.817 3.149z" fill="#0093fa"/><path d="m463.738 256c0 114.73-93.008 207.738-207.738 207.738s-207.738-93.008-207.738-207.738 93.008-207.738 207.738-207.738 207.738 93.008 207.738 207.738z" fill="#00a4fb"/><path d="m504.79 316.578c-27.211 112.147-128.275 195.422-248.79 195.422s-221.579-83.275-248.79-195.422h50.023l13.591 9.23h365.329l18.614-9.23z" fill="#00c53b"/><path d="m454.767 316.578c-25.927 85.18-105.109 147.16-198.767 147.16s-172.839-61.98-198.767-147.16z" fill="#4bcd5c"/><path d="m436.288 364.581c-.167 6.521-5.506 11.691-11.99 11.692-.104 0-.208-.001-.313-.004l-14.284-.366s-41.283 22.809-42.26 23.059c-2.287 1.271-4.785 1.882-7.259 1.882-4.877 0-9.659-2.375-12.542-6.754l-57.203-86.885c-4.556-6.919-2.64-16.221 4.28-20.776 6.917-4.556 16.22-2.641 20.776 4.28l53.073 80.612 41.964-23.505c2.391-1.381 5.449-.562 6.83 1.83.449.777.665 1.625.67 2.462l6.568.168c6.626.171 11.86 5.68 11.69 12.305z" fill="#bb5d4c"/><path d="m217.019 303.367-57.203 86.885c-2.882 4.378-7.666 6.754-12.542 6.754-2.831 0-5.693-.8-8.234-2.474-6.92-4.556-8.836-13.857-4.28-20.776l57.203-86.885c4.555-6.921 13.858-8.838 20.776-4.28 6.919 4.555 8.835 13.857 4.28 20.776z" fill="#bb5d4c"/><path d="m316.888 359.153-11.634-16.886-8.365 57.181-2.563 16.748h-6.468c-4.982-6.117-9.905-10.082-14.175-16.748-20.688-32.297-32.4-73.139-32.4-114.341 0-1.603.018-3.201.054-4.794h62.014c.073 0 .146 0 .218.002 6.997-.093 13.91 3.194 18.179 9.389l30.882 44.825z" fill="#ffafe2"/><path d="m292.955 416.195h-80.326l-2.562-16.748-8.682-59.347-13.127 19.053-35.743-24.625 30.882-44.825c4.481-6.504 11.878-9.803 19.227-9.35.331-.027.665-.042 1.001-.042h42.809c-.036 1.594-.054 3.192-.054 4.794 0 41.202 6.616 82.043 27.304 114.341 4.269 6.667 14.289 10.632 19.271 16.749z" fill="#ff94d4"/><path d="m232.743 217.34c0 16.569-13.431 30-30 30h-30c-16.568 0-30-13.431-30-30 0-16.568 13.432-30 30-30h30c16.569 0 30 13.432 30 30zm157.454-112.468h-158.106c-16.568 0-30 13.432-30 30 0 16.568 13.432 30 30 30h158.106c16.569 0 30-13.431 30-30 0-16.568-13.431-30-30-30z" fill="#49b6fc"/><path d="m286.883 463.64c-2.179.542-4.473.831-6.85.831h-53.109c-17.146 0-29.96-15.05-26.468-31.084l9.611-33.94h64.196c1.311 0 2.259 1.254 1.902 2.515l-8.898 31.425c-3.01 13.811 6.08 26.891 19.616 30.253z" fill="#463b85"/><path d="m264.073 433.387 9.611-33.94h23.206l9.61 33.94c3.125 14.347-6.806 27.905-21.213 30.6-14.408-2.695-24.339-16.253-21.214-30.6z" fill="#54469d"/><path d="m310.51 217.629v5.958c0 6.525-5.289 11.814-11.814 11.814h-.874c-5.423 13.243-15.684 23.992-28.585 30.05-.271.127-.542.25-.815.37.004.136.006.273.006.41v20.421c0 7.492-6.073 13.565-13.565 13.565h-2.771c-7.492 0-13.565-6.074-13.565-13.565v-20.421c0-.137.002-.274.006-.41-.273-.12-.545-.243-.815-.37-12.901-6.058-23.162-16.807-28.585-30.05h-.852c-6.525 0-11.814-5.29-11.814-11.814v-5.958c0-5.35 3.557-9.869 8.435-11.323v-8.79c0-2.147.119-4.266.35-6.351 6.277-56.642 90.175-56.642 96.452 0 .231 2.085.35 4.204.35 6.351v8.783c4.888 1.447 8.456 5.972 8.456 11.33z" fill="#bb5d4c"/><path d="m301.703 191.166c.231 2.085.35 4.204.35 6.351v16.292c0 22.838-13.426 42.539-32.816 51.643-.358.168-.719.329-1.08.485-.362-.156-.722-.317-1.08-.485-19.39-9.104-32.816-28.805-32.816-51.643v-16.292c0-2.146.119-4.266.35-6.351 2.448-22.087 16.698-35.561 33.546-40.423 16.849 4.862 31.099 18.336 33.546 40.423z" fill="#c96e59"/><path d="m321.446 470.112c2.958-6.539 10.658-9.442 17.197-6.484l39.288 17.774c6.539 2.958 9.442 10.658 6.484 17.197-2.958 6.539-10.658 9.442-17.197 6.484l-39.288-17.774c-6.539-2.958-9.442-10.658-6.484-17.197z" fill="#bb5d4c"/><path d="m331.544 500.124-164.922-25.198c-13.649-2.085-23.023-14.84-20.937-28.489 2.085-13.649 14.84-23.023 28.489-20.937l164.922 25.198c13.649 2.085 23.023 14.84 20.937 28.489-2.086 13.648-14.84 23.022-28.489 20.937z" fill="#54469d"/><path d="m174.818 170c0 16.568-13.431 30-30 30h-30c-16.569 0-30-13.432-30-30 0-16.568 13.431-30 30-30h30c16.568 0 30 13.432 30 30zm206.878-20h-30c-16.568 0-30 13.432-30 30 0 16.568 13.431 30 30 30h30c16.568 0 30-13.432 30-30 0-16.568-13.432-30-30-30zm-27.951 79.591h-25.666c-8.284 0-15 6.716-15 15 0 8.284 6.716 15 15 15h25.666c8.284 0 15-6.716 15-15 0-8.284-6.716-15-15-15zm-137.696-179.523c.568-2.739.866-5.576.866-8.483 0-22.967-18.618-41.585-41.585-41.585h-48.927c-22.967 0-41.585 18.618-41.585 41.585 0 2.898.297 5.727.861 8.458h-28.968c-16.568 0-30 13.432-30 30 0 16.569 13.432 30 30 30h158.106c16.569 0 30-13.431 30-30 .001-16.157-12.771-29.33-28.768-29.975z" fill="#bde2fd"/><path d="m187.743 170c0 16.568-13.431 30-30 30h-16.378c-16.568 0-30-13.432-30-30 0-16.568 13.431-30 30-30h16.378c16.569 0 30 13.432 30 30zm220.501-20h-30c-16.569 0-30 13.432-30 30 0 16.568 13.431 30 30 30h30c16.569 0 30-13.432 30-30 0-16.568-13.432-30-30-30zm-38.617 79.591h-15c-8.284 0-15 6.716-15 15 0 8.284 6.716 15 15 15h15c8.284 0 15-6.716 15-15 0-8.284-6.715-15-15-15zm13.687-146.421c22.967 0 41.585-18.619 41.585-41.585 0-22.967-18.618-41.585-41.585-41.585h-214.131c-22.967 0-41.585 18.618-41.585 41.585 0 2.898.297 5.727.861 8.458h-7.892c-16.568 0-30 13.432-30 30 0 16.569 13.432 30 30 30h75.13c4.13 11.629 15.231 19.958 28.277 19.958h82.234c16.568 0 30-13.432 30-30 0-6.238-1.904-12.031-5.162-16.83h52.268z" fill="#e5f2fd"/><path d="m248.526 60c0 5.523-4.477 10-10 10s-10-4.477-10-10 4.477-10 10-10 10 4.477 10 10zm-45-10c-5.523 0-10 4.477-10 10s4.477 10 10 10 10-4.477 10-10-4.477-10-10-10zm70 0c-5.523 0-10 4.477-10 10s4.477 10 10 10 10-4.477 10-10-4.477-10-10-10z" fill="#93d0fd"/><path d="m263.383 159.723c0 7.826-6.344 14.17-14.17 14.17h-18.33c-7.826 0-14.17-6.344-14.17-14.17 0-7.826 6.344-14.17 14.17-14.17h18.33c7.826 0 14.17 6.344 14.17 14.17z" fill="#883f2e"/><path d="m295.287 148.144v11.58c0 7.826-6.344 14.17-14.17 14.17h-30.372c-7.826 0-14.17-6.344-14.17-14.17 0-7.826 6.344-14.17 14.17-14.17h41.952c1.43-.001 2.59 1.159 2.59 2.59z" fill="#a44f3e"/><path d="m217.406 446.752c-1.231.711-2.639.838-3.904.469l.085 4.293c.131 6.626-5.135 12.104-11.762 12.234-.08.001-.161.002-.241.002-6.518 0-11.863-5.218-11.993-11.764l-.302-15.312-53.577-44.734c-5.087-4.247-5.768-11.814-1.52-16.902 4.246-5.086 11.813-5.771 16.902-1.52l57.775 48.239c2.272 1.896 3.748 4.553 4.178 7.446l6.188 10.718c1.382 2.392.562 5.45-1.829 6.831z" fill="#bb5d4c"/><path d="m147.477 488.063c0-7.177 5.818-12.996 12.996-12.996h43.122c7.177 0 12.996 5.818 12.996 12.996 0 7.177-5.818 12.996-12.996 12.996h-43.122c-7.177 0-12.996-5.819-12.996-12.996z" fill="#bb5d4c"/><path d="m345.608 450.319-134.601 59.538c-12.627 5.585-27.391-.123-32.976-12.75-5.585-12.627.123-27.391 12.75-32.976l134.601-59.538c12.627-5.585 27.391.123 32.976 12.75 5.586 12.626-.123 27.39-12.75 32.976z" fill="#6354b2"/></g></svg>