<svg id="Capa_1" enable-background="new 0 0 512 512" height="512" viewBox="0 0 512 512" width="512" xmlns="http://www.w3.org/2000/svg"><g><path d="m512 256c0 16.543-1.569 32.72-4.567 48.389-.804 4.203-8.612 4.952-9.619 9.079-11.926 48.884-37.887 92.267-73.373 125.638-2.535 2.384 1.783 8.134-.848 10.414-24.34 21.097-52.699 37.679-83.777 48.443-3.33 1.153-3.568-7.488-6.959-6.469-23.349 7.011-48.102 10.778-73.735 10.778-26.024 0-51.142-3.883-74.804-11.102-3.029-.924-9.157 7.825-12.137 6.793-31.077-10.764-59.437-27.346-83.777-48.443-2.807-2.433.715-9.124-1.983-11.675-36.141-34.174-62.33-78.767-73.761-128.973-.655-2.876-7.536-1.571-8.093-4.483-2.998-15.669-4.567-31.846-4.567-48.389s1.569-32.72 4.567-48.389c.754-3.94 8.948-2.951 9.88-6.824 11.953-49.676 38.392-93.71 74.597-127.384 2.202-2.048-2.911-8.954-.638-10.924 24.34-21.097 52.699-37.679 83.777-48.443 4.34-1.503 9.403 8.619 13.846 7.346 22.438-6.428 46.138-9.871 70.642-9.871 24.017 0 47.261 3.307 69.303 9.491 4.899 1.375 9.07-8.621 13.846-6.967 31.077 10.764 59.437 27.346 83.776 48.443 3.546 3.073-1.169 10.792 2.202 14.053 34.061 32.948 59.001 75.268 70.664 122.803 1.039 4.235 10.148 3.961 10.973 8.276 2.996 15.67 4.565 31.847 4.565 48.39z" fill="#00a4fb"/><path d="m507.433 207.611-241.607 48.389 241.607 48.389c-8.86 46.314-30.2 88.198-60.385 122.016-1.384 1.551-12.835-2.269-14.257-.752-6.089 6.498-12.514 12.679-19.245 18.514l-152.633-179.657 57.593 170.4-127.933 8.641 60.514-179.041-157.003 180.175c-7.089-6.144-13.836-12.672-20.211-19.55-1.092-1.178-7.852 2.469-8.922 1.27-30.185-33.818-51.525-75.701-60.385-122.016l241.608-48.389-241.607-48.389c11.007-57.539 41.276-108.239 83.839-145.132l162.681 185.011-78.905-233.453c26.261-9.096 54.463-14.037 83.818-14.037s57.557 4.941 83.818 14.037l-78.905 233.453 162.681-185.011c42.563 36.893 72.832 87.593 83.839 145.132z" fill="#49b6fc"/><path d="m397.104 223.614c-3.496 10.334-10.454 19.081-19.5 24.873-9.046-5.791-16.004-14.539-19.5-24.873-10.697 2.139-21.752.487-31.29-4.451 0-.001 0-.002 0-.003.493-10.729 4.589-21.127 11.79-29.321-7.202-8.195-11.298-18.594-11.79-29.324 9.538-4.938 20.593-6.591 31.29-4.451 3.496-10.334 10.454-19.081 19.5-24.873 9.046 5.791 16.004 14.539 19.5 24.873 10.697-2.139 21.752-.487 31.29 4.451-.492 10.73-4.589 21.129-11.79 29.324 7.201 8.194 11.297 18.592 11.79 29.321v.003c-9.538 4.938-20.592 6.591-31.29 4.451z" fill="#93d0fd"/><path d="m236.13 327.172c0 27.295-22.127 49.423-49.423 49.423-13.318 0-25.406-5.269-34.293-13.835-7.109 8.458-17.767 13.835-29.681 13.835-21.404 0-38.755-17.351-38.755-38.755s17.351-38.755 38.755-38.755c7.31 0 27.24 2.024 33.075 5.542 8.195-15.958 11.725-26.877 30.899-26.877 27.296 0 49.423 22.127 49.423 49.422zm153.136-28.087c-7.31 0-14.147 2.024-19.982 5.542-8.195-15.958-24.818-26.877-43.992-26.877-27.295 0-49.423 22.127-49.423 49.422s22.127 49.423 49.423 49.423c13.318 0 25.406-5.269 34.293-13.835 7.109 8.458 17.767 13.835 29.681 13.835 21.404 0 38.755-17.351 38.755-38.755s-17.351-38.755-38.755-38.755z" fill="#00b327"/><path d="m319.233 184.592c0 4.546-1.283 8.917-3.586 12.216-8.043 11.522-23.411 19.312-41.049 19.312h-42.219c-17.638 0-33.007-7.79-41.05-19.312-2.302-3.299-3.586-7.67-3.586-12.216 0-11.617 7.11-21.034 15.882-21.034h99.727c8.771.001 15.881 9.418 15.881 21.034z" fill="#ffbd86"/><path d="m310.51 100.875v5.958c0 6.525-5.289 11.814-11.814 11.814h-.873c-5.423 13.243-15.684 23.992-28.585 30.05-.271.127-.543.25-.815.37.004.136.006.273.006.41v20.421c0 7.492-6.073 13.565-13.565 13.565h-2.771c-7.492 0-13.565-6.074-13.565-13.565v-20.421c0-.137.002-.274.006-.41-.273-.12-.545-.243-.815-.37-12.901-6.058-23.162-16.807-28.585-30.05h-.852c-6.525 0-11.814-5.29-11.814-11.814v-5.958c0-5.35 3.557-9.869 8.435-11.323v-8.79c0-2.147.119-4.266.35-6.351 6.277-56.642 90.175-56.642 96.452 0 .231 2.085.35 4.204.35 6.351v8.783c4.887 1.448 8.455 5.972 8.455 11.33z" fill="#ffbd86"/><path d="m302.053 80.763v16.292c0 22.838-13.426 42.539-32.816 51.643-.358.168-.718.33-1.08.485-.362-.156-.722-.317-1.08-.485-19.39-9.104-32.816-28.805-32.816-51.643v-16.292c0-2.147.119-4.266.35-6.351 2.448-22.087 16.698-35.561 33.546-40.422 16.848 4.862 31.099 18.335 33.546 40.422.231 2.086.35 4.204.35 6.351z" fill="#fed2a4"/><path d="m336.109 281.254c-6.301 0-12.167-4.002-14.246-10.313l-28.602-86.884c-2.59-7.869 1.689-16.348 9.558-18.938 7.869-2.591 16.348 1.689 18.938 9.558l28.602 86.884c2.591 7.868-12.696 19.693-14.25 19.693z" fill="#ffbd86"/><path d="m306.499 316.634c3.493 16.035-9.322 31.084-26.467 31.084h-53.109c-17.146 0-29.96-15.05-26.467-31.084 6.397-22.37 7.953-45.846 4.563-68.864l-5.802-39.396c-1.795-12.186 7.65-23.124 19.968-23.124h68.586c12.318 0 21.763 10.938 19.968 23.124l-5.802 39.396c-3.39 23.018-1.835 46.494 4.562 68.864z" fill="#ff5e95"/><path d="m261.103 347.718h-34.18c-17.146 0-29.96-15.05-26.467-31.084 6.397-22.37 7.953-45.846 4.563-68.864l-5.802-39.396c-1.795-12.186 7.65-23.124 19.968-23.124h34.18c-12.318 0-21.763 10.938-19.968 23.124l5.802 39.396c3.39 23.018 1.834 46.494-4.563 68.864-3.493 16.034 9.322 31.084 26.467 31.084z" fill="#ff3980"/><path d="m136.809 362.565c0-7.177 5.818-12.996 12.996-12.996h43.122c7.177 0 12.996 5.818 12.996 12.996 0 7.177-5.818 12.996-12.996 12.996h-43.122c-7.178 0-12.996-5.819-12.996-12.996zm170.161-9.437 41.522 11.636c6.911 1.937 14.084-2.096 16.02-9.007 1.937-6.911-2.096-14.084-9.007-16.02l-41.522-11.636c-6.911-1.937-14.084 2.096-16.02 9.007-1.937 6.911 2.096 14.084 9.007 16.02z" fill="#ffbd86"/><path d="m338.809 346.962c-1.286 13.747-13.472 23.849-27.219 22.564l-159.305-14.897c-13.747-1.286-23.849-13.472-22.564-27.219 1.286-13.747 13.472-23.849 27.219-22.564l159.305 14.897c13.747 1.286 23.849 13.472 22.564 27.219z" fill="#ff73c6"/><path d="m340.93 340.084-123.776 54.75c-12.627 5.585-27.391-.123-32.976-12.75-5.585-12.627.123-27.391 12.75-32.977l123.776-54.75c12.627-5.585 27.391.123 32.976 12.75 5.585 12.628-.123 27.392-12.75 32.977z" fill="#ff94d4"/><path d="m235.658 70.012h-29.892c0-15.854 8.629-29.693 21.447-37.076v-.325c0-9.769 7.004-17.902 16.265-19.651v-2.96c0-5.523 4.477-10 10-10s10 4.477 10 10v2.96c1.739.328 3.398.882 4.946 1.629.387.187-9.041 10.546-9.041 18.022v.325c-11.716 6.748-19.933 18.891-21.259 33.036-.124 1.33-2.466 4.04-2.466 4.04z" fill="#ff3980"/><path d="m301.189 70.012h-65.531c0-15.854 8.629-29.693 21.447-37.076v-.325c0-7.935 4.621-14.791 11.318-18.022 6.698 3.232 11.318 10.088 11.318 18.022v.325c12.819 7.383 21.448 21.222 21.448 37.076z" fill="#ff5e95"/><path d="m432.792 395.08c0 21.997-17.832 39.83-39.83 39.83-10.612 0-20.254-4.15-27.392-10.916-7.139 6.766-16.781 10.916-27.392 10.916s-20.254-4.15-27.392-10.916c-7.139 6.766-16.781 10.916-27.392 10.916s-20.254-4.15-27.392-10.916c-7.139 6.765-16.781 10.916-27.392 10.916s-20.254-4.15-27.392-10.916c-7.139 6.766-16.781 10.916-27.392 10.916s-20.254-4.15-27.392-10.916c-7.139 6.766-16.781 10.916-27.392 10.916-21.997 0-39.83-17.833-39.83-39.83 0-21.998 17.832-39.83 39.83-39.83 10.612 0 20.254 4.15 27.392 10.916 7.139-6.765 16.781-10.916 27.392-10.916s20.254 4.15 27.392 10.916c7.139-6.765 16.781-10.916 27.392-10.916s20.254 4.15 27.392 10.916c7.139-6.765 16.781-10.916 27.392-10.916s20.254 4.15 27.392 10.916c7.139-6.765 16.781-10.916 27.392-10.916s20.254 4.15 27.392 10.916c7.139-6.765 16.781-10.916 27.392-10.916 21.998 0 39.83 17.833 39.83 39.83z" fill="#00c53b"/><path d="m64.951 426.405c7.108-11.105 19.552-18.466 33.715-18.466h314.668c14.163 0 26.607 7.361 33.715 18.466-16.009 17.936-34.507 33.604-54.951 46.46h-272.196c-20.444-12.857-38.941-28.524-54.951-46.46z" fill="#ffc143"/><path d="m117.53 471.355h276.94c-39.919 25.721-87.452 40.645-138.47 40.645s-98.551-14.924-138.47-40.645z" fill="#fa0"/><path d="m215.673 372.272c-2.212 8.366-8.471 15.504-17.022 19.986-8.551-4.481-14.81-11.62-17.022-19.986-8.366-2.212-15.504-8.471-19.986-17.022 4.481-8.551 11.62-14.81 19.986-17.022 2.212-8.366 8.471-15.504 17.022-19.986 8.552 4.481 14.81 11.62 17.022 19.986 8.366 2.212 15.504 8.471 19.986 17.022-4.482 8.552-11.621 14.81-19.986 17.022zm-58.153 27.964c-2.212-8.366-8.471-15.504-17.022-19.985-8.551 4.481-14.81 11.62-17.022 19.985-8.366 2.212-15.504 8.471-19.986 17.022 4.481 8.551 11.62 14.81 19.986 17.022 2.212 8.366 8.471 15.504 17.022 19.986 8.552-4.481 14.81-11.62 17.022-19.986 8.366-2.212 15.504-8.471 19.986-17.022-4.482-8.551-11.62-14.809-19.986-17.022zm192.838-44.986c-4.481-8.551-11.62-14.81-19.986-17.022-2.212-8.366-8.471-15.504-17.022-19.986-8.552 4.481-14.81 11.62-17.022 19.986-8.366 2.212-15.504 8.471-19.986 17.022 4.481 8.552 11.62 14.81 19.986 17.022 2.212 8.366 8.471 15.504 17.022 19.986 8.551-4.481 14.81-11.62 17.022-19.986 8.366-2.212 15.504-8.47 19.986-17.022zm-77.336 44.986c-2.212-8.366-8.471-15.504-17.022-19.985-8.552 4.481-14.81 11.62-17.022 19.985-8.366 2.212-15.504 8.471-19.986 17.022 4.481 8.551 11.62 14.81 19.986 17.022 2.212 8.366 8.471 15.504 17.022 19.986 8.552-4.481 14.81-11.62 17.022-19.986 8.366-2.212 15.504-8.471 19.986-17.022-4.481-8.551-11.62-14.809-19.986-17.022zm115.502 0c-2.212-8.366-8.471-15.504-17.022-19.985-8.552 4.481-14.81 11.62-17.022 19.985-8.366 2.212-15.504 8.471-19.986 17.022 4.481 8.551 11.62 14.81 19.986 17.022 2.212 8.366 8.471 15.504 17.022 19.986 8.551-4.481 14.81-11.62 17.022-19.986 8.366-2.212 15.504-8.471 19.986-17.022-4.481-8.551-11.62-14.809-19.986-17.022z" fill="#fff5f5"/><path d="m218.164 182.372-23.887 115.858c-1.454 7.102-7.704 11.995-14.68 11.995-.997 0-2.009-.1-3.023-.308-8.116-1.661-13.349-9.587-11.688-17.703l23.888-115.858c1.662-8.116 9.588-13.348 17.703-11.688 8.116 1.662 13.348 9.588 11.687 17.704z" fill="#ffbd86"/><path d="m384.002 417.468c0 6.903-5.596 12.5-12.5 12.5s-12.5-5.597-12.5-12.5c0-6.904 5.596-12.5 12.5-12.5s12.5 5.596 12.5 12.5z" fill="#ffafe2"/><path d="m256 64.061c-6.904 0-12.5 5.596-12.5 12.5s5.596 12.5 12.5 12.5 12.5-5.596 12.5-12.5c0-6.903-5.596-12.5-12.5-12.5z" fill="#ff0364"/><path d="m268.5 417.468c0 6.904-5.596 12.5-12.5 12.5s-12.5-5.596-12.5-12.5 5.596-12.5 12.5-12.5 12.5 5.597 12.5 12.5zm44.85-74.718c-6.904 0-12.5 5.596-12.5 12.5s5.596 12.5 12.5 12.5 12.5-5.596 12.5-12.5-5.597-12.5-12.5-12.5z" fill="#ff94d4"/><path d="m152.998 417.468c0 6.903-5.596 12.5-12.5 12.5s-12.5-5.597-12.5-12.5c0-6.904 5.596-12.5 12.5-12.5s12.5 5.596 12.5 12.5zm45.652-74.718c-6.904 0-12.5 5.597-12.5 12.5 0 6.904 5.596 12.5 12.5 12.5s12.5-5.596 12.5-12.5c0-6.903-5.596-12.5-12.5-12.5z" fill="#ff73c6"/><path d="m453.302 127.369-12.592 4.92c-.52.203-.932.615-1.135 1.135l-4.921 12.591c-.663 1.696-3.063 1.696-3.726 0l-4.921-12.591c-.203-.52-.615-.932-1.135-1.135l-12.592-4.92c-1.696-.663-1.696-3.063 0-3.726l12.592-4.921c.52-.203.932-.615 1.135-1.135l4.921-12.591c.663-1.696 3.063-1.696 3.726 0l4.921 12.591c.203.52.615.932 1.135 1.135l12.592 4.921c1.696.663 1.696 3.063 0 3.726z" fill="#ff3980"/><path d="m404.512 44.163-12.592 4.92c-.52.203-.932.615-1.135 1.135l-4.921 12.591c-.663 1.696-3.063 1.696-3.726 0l-4.921-12.591c-.203-.52-.615-.932-1.135-1.135l-12.592-4.92c-1.696-.663-1.696-3.063 0-3.726l12.592-4.921c.52-.203.932-.615 1.135-1.135l4.921-12.591c.663-1.696 3.063-1.696 3.726 0l4.921 12.591c.203.52.615.932 1.135 1.135l12.592 4.921c1.696.663 1.696 3.063 0 3.726z" fill="#ff73c6"/><path d="m289.651 277.75c-8.54 0-15.592-6.675-16.06-15.202l-5.434-98.989c13.563-3.575 27.866-3.984 41.409-.4 1.51.4 1.51 1.636 1.51 1.636l-5.366 97.753c-.468 8.527-7.519 15.202-16.059 15.202z" fill="#ff73c6"/><path d="m382.004 202.576-3.575 19.404c-.278 1.511-.844 2.953-1.666 4.25l-31.824 50.212c-2.285 3.605-6.173 5.578-10.147 5.578-2.197 0-4.42-.604-6.413-1.866-5.598-3.548-7.26-10.962-3.712-16.56l28.193-44.483c-.068-.181-.127-.367-.175-.559l-3.43-13.737c-.669-2.679.961-5.394 3.64-6.062 1.945-.486 3.909.241 5.095 1.701l.41-2.225c1.201-6.519 7.459-10.819 13.976-9.628 6.518 1.2 10.829 7.457 9.628 13.975zm-199.32 83.735-43.898-5.289c-.325-.2-.678-.367-1.056-.492l-13.44-4.455c-2.621-.869-5.45.551-6.319 3.172-.194.586-.274 1.183-.251 1.765l-6.523.565c-6.602.571-11.492 6.388-10.92 12.99.562 6.498 6.205 11.336 12.677 10.943.104-.006.208-.014.313-.023l16.263-1.407 50.283 6.058c.736.088 1.463.109 2.177.065 5.674-.345 10.468-4.7 11.172-10.544.793-6.579-3.898-12.555-10.478-13.348z" fill="#fed2a4"/><path d="m398.114 191.702-12.592 4.92c-.52.203-.932.615-1.135 1.135l-4.921 12.591c-.663 1.696-3.063 1.696-3.726 0l-4.921-12.591c-.203-.52-.615-.932-1.135-1.135l-12.592-4.92c-1.696-.663-1.696-3.063 0-3.726l12.592-4.921c.52-.203.932-.615 1.135-1.135l4.921-12.591c.663-1.696 3.063-1.696 3.726 0l4.921 12.591c.203.52.615.932 1.135 1.135l12.592 4.921c1.696.663 1.696 3.063 0 3.726z" fill="#fff5f5"/></g></svg>