<svg id="Capa_1" enable-background="new 0 0 512 512" height="512" viewBox="0 0 512 512" width="512" xmlns="http://www.w3.org/2000/svg"><g><path d="m512 256c0 141.385-114.615 256-256 256s-256-114.615-256-256 114.615-256 256-256 256 114.615 256 256z" fill="#54469d"/><path d="m440.428 263.255c0 99.752-82.571 180.617-184.428 180.617s-184.428-80.865-184.428-180.617 82.571-180.617 184.428-180.617 184.428 80.865 184.428 180.617z" fill="#6354b2"/><path d="m346.62 387.511c-2.764-3.085-2.502-7.827.584-10.59 24.088-21.571 37.354-50.183 37.354-80.565s-13.267-58.994-37.354-80.564c-50.291-45.033-132.118-45.033-182.408 0-24.088 21.57-37.354 50.182-37.354 80.564 0 30.383 13.266 58.994 37.354 80.565 41.675 37.318 106.205 44.607 156.924 17.726 3.666-1.938 8.2-.543 10.14 3.114 1.939 3.66.545 8.2-3.114 10.14-22.604 11.979-47.697 17.818-72.63 17.818-37.018 0-73.684-12.87-101.327-37.624-27.308-24.454-42.347-57.034-42.347-91.739s15.04-67.285 42.347-91.738c27.076-24.246 63.02-37.599 101.21-37.599 38.191 0 74.135 13.353 101.21 37.599 27.308 24.453 42.348 57.033 42.348 91.738s-15.039 67.285-42.348 91.739c-3.084 2.765-7.826 2.501-10.589-.584zm46.648-215.183c-36.706-32.87-85.456-50.972-137.268-50.972s-100.561 18.102-137.268 50.972c-30.563 27.368-49.762 62.11-55.522 100.469-5.584 37.189 2.409 75.651 22.506 108.301 3.982 6.47 8.476 12.779 13.357 18.754 2.621 3.208 7.347 3.685 10.553 1.063 3.208-2.621 3.684-7.346 1.063-10.554-4.46-5.46-8.565-11.223-12.199-17.127-38-61.733-25.562-139.755 30.249-189.732 70.171-62.837 184.349-62.836 254.523 0 33.719 30.195 52.289 70.274 52.289 112.854s-18.57 82.658-52.289 112.854c-68.195 61.066-180.69 62.528-250.775 3.262-3.164-2.676-7.896-2.278-10.569.884-2.675 3.163-2.279 7.895.884 10.569 36.233 30.642 83.425 47.433 133.157 47.432.887 0 1.779-.005 2.667-.016 50.815-.612 98.633-18.709 134.644-50.957 36.939-33.078 57.283-77.125 57.283-124.027s-20.346-90.951-57.285-124.029zm-46.506 124.028c0 22.076-9.548 42.784-26.884 58.308-17.611 15.771-40.744 23.656-63.878 23.656-23.133 0-46.267-7.886-63.878-23.656-17.336-15.523-26.883-36.231-26.883-58.308s9.547-42.785 26.883-58.31c35.222-31.542 92.534-31.542 127.756 0 17.337 15.525 26.884 36.233 26.884 58.31zm-15 0c0-17.754-7.775-34.494-21.89-47.136-14.853-13.3-34.362-19.95-53.872-19.95s-39.019 6.65-53.872 19.95c-14.116 12.642-21.89 29.381-21.89 47.136 0 17.754 7.774 34.493 21.89 47.134 29.705 26.6 78.039 26.6 107.744 0 14.115-12.64 21.89-29.38 21.89-47.134z" fill="#988fcc"/><path d="m75.841 86.907c58.818-12.902 122.669 3.437 168.291 49.059s61.961 109.473 49.059 168.291c-58.818 12.902-122.669-3.436-168.291-49.059s-61.961-109.472-49.059-168.291z" fill="#ff73c6"/><path d="m387.1 255.199c-45.623 45.623-109.473 61.961-168.291 49.059-12.902-58.818 3.437-122.669 49.059-168.291s109.473-61.961 168.291-49.059c12.902 58.818-3.437 122.668-49.059 168.291z" fill="#ff94d4"/><path d="m271.083 294.983c0 39.402-54.735 71.343-122.254 71.343s-122.255-31.942-122.255-71.343 54.735-71.343 122.254-71.343 122.255 31.941 122.255 71.343z" fill="#00c53b"/><path d="m485.426 294.983c0 39.402-54.735 71.343-122.254 71.343s-122.254-31.941-122.254-71.343 54.735-71.343 122.254-71.343 122.254 31.941 122.254 71.343z" fill="#4bcd5c"/><path d="m0 155.24c46.686-15.927 256.649 105.295 266.199 153.69-46.686 15.927-108.093 8.882-163.969-23.378s-92.68-81.917-102.23-130.312z" fill="#ff73c6"/><path d="m0 155.24c46.686-15.927 108.092-8.882 163.969 23.378s92.681 81.917 102.23 130.312c-46.686 15.927-256.649-105.295-266.199-153.69z" fill="#ff94d4"/><path d="m245.801 306.961c8.866-49.579 218.829-170.801 266.199-153.69-8.866 49.579-45.218 100.02-101.094 132.28s-117.735 38.522-165.105 21.41z" fill="#ff94d4"/><path d="m245.801 306.961c8.866-49.579 45.218-100.02 101.094-132.28s117.735-38.521 165.105-21.41c-8.866 49.579-218.829 170.802-266.199 153.69z" fill="#ffafe2"/><path d="m162.519 21.122c42.773 48.943 148.394 120.945 162.258 156.59.451 1.16.89 2.322 1.315 3.487 40.562 110.949-141.568 181.787-186.631 72.589-.473-1.146-.935-2.299-1.386-3.459-13.927-35.809 14.779-158.218 13.521-224.993-.049-2.616 1.531-4.977 3.97-5.925 2.45-.954 5.223-.269 6.953 1.711z" fill="#ffafe2"/><path d="m356.434 19.41c2.438.948 4.019 3.31 3.97 5.925-1.258 66.775 27.448 189.185 13.521 224.993-.451 1.16-.913 2.313-1.386 3.459-45.063 109.198-227.192 38.36-186.631-72.589.426-1.164.864-2.327 1.315-3.487 13.864-35.645 119.485-107.648 162.258-156.59 1.73-1.979 4.503-2.664 6.953-1.711z" fill="#ffc7e8"/><path d="m257.219 314.217c-52.004.489-104.411-30.314-105.68-92.41-.026-1.293-.04-2.589-.04-3.888 0-40.086 74.207-148.254 98.237-213.659.941-2.562 3.371-4.26 6.101-4.26 2.743 0 52.573 313.736 1.382 314.217z" fill="#ff73c6"/><path d="m261.95 4.294c23.081 63.766 98.551 173.722 98.551 213.625 0 1.299-.013 2.595-.04 3.888-1.26 61.611-52.861 92.416-104.461 92.416s-30.294-244.558-6.264-309.963c.941-2.562 3.371-4.26 6.101-4.26 2.743 0 5.18 1.715 6.113 4.294z" fill="#ff94d4"/><path d="m261.95 202.763c23.081 25.241 51.839 121.129 3.608 122.544-54.587 1.601-112.682-10.547-114.02-36.443-.026-.512-.04-1.025-.04-1.539 0-15.868 74.207-58.686 98.237-84.576.941-1.014 3.371-1.686 6.101-1.686 2.744.001 5.181.679 6.114 1.7z" fill="#ffafe2"/><path d="m261.95 202.763c23.081 25.241 98.551 68.767 98.551 84.562 0 .514-.013 1.027-.04 1.539-1.272 24.634-53.905 36.827-106.02 36.579-51.076-.243-28.736-96.803-4.706-122.693.941-1.014 3.371-1.686 6.101-1.686 2.744 0 5.181.678 6.114 1.699z" fill="#ffc7e8"/><path d="m256.253 403.349c0-17.285 15.932-29.492 17.995-36.319h.008c1.676 5.336 18.176 19.719 18.176 36.319 0 .228-.002.455-.007.682-.223 10.322-8.962 15.713-18.082 16.174-9.12-.461-17.859-5.852-18.082-16.174-.005-.227-.008-.455-.008-.682zm45.673-58.949c-6.904 0-12.5 5.596-12.5 12.5s5.596 12.5 12.5 12.5 12.5-5.596 12.5-12.5-5.597-12.5-12.5-12.5z" fill="#fff5f5"/></g></svg>