<svg id="Capa_1" enable-background="new 0 0 512 512" height="512" viewBox="0 0 512 512" width="512" xmlns="http://www.w3.org/2000/svg"><g><path d="m512 256c0 16.543-1.569 32.72-4.567 48.389-.804 4.203-8.612 4.952-9.619 9.079-11.926 48.884-37.887 92.267-73.373 125.638-2.535 2.384-88.192 51.369-91.584 52.388-23.349 7.011-48.102 10.778-73.735 10.778-26.024 0-51.142-3.883-74.804-11.102-3.029-.924-95.198-50.774-97.896-53.325-36.142-34.174-62.331-78.767-73.762-128.973-.655-2.876-7.536-1.571-8.093-4.483-2.998-15.669-4.567-31.846-4.567-48.389s1.569-32.72 4.567-48.389c.754-3.94 8.948-2.951 9.88-6.824 11.953-49.676 38.392-93.71 74.597-127.384 2.202-2.048-2.911-8.954-.638-10.924 24.34-21.097 52.699-37.679 83.777-48.443 4.34-1.503 9.403 8.619 13.846 7.346 22.438-6.428 46.138-9.871 70.642-9.871 24.017 0 47.261 3.307 69.303 9.491 4.899 1.375 9.07-8.621 13.846-6.967 31.077 10.764 59.437 27.346 83.776 48.443 3.546 3.073-1.169 10.792 2.202 14.053 34.061 32.948 59.001 75.268 70.664 122.803 1.039 4.235 10.148 3.961 10.973 8.276 2.996 15.67 4.565 31.847 4.565 48.39z" fill="#ff94d4"/><path d="m507.433 207.611-241.607 48.389 241.607 48.389c-5.123 26.777-14.416 52.073-27.18 75.185-1.116 2.021-8.374-2.062-9.542-.075-14.185 24.12-32.209 45.711-53.232 63.934l-156.566-178.923 76.853 226.32c-7.086 2.454-14.314 4.606-21.667 6.44-1.701.424-1.358 7.965-3.072 8.355-18.339 4.172-37.426 6.375-57.027 6.375-16.938 0-33.492-1.645-49.511-4.784-2.516-.493-2.159-10.199-4.649-10.765-9.128-2.076-18.07-4.64-26.798-7.663l76.044-224.277-159.788 181.24c-19.041-16.505-35.622-35.773-49.119-57.181-1.588-2.518-6.025-1.296-7.526-3.873-14.263-24.479-24.583-51.539-30.086-80.308l241.607-48.389-241.607-48.389c11.007-57.539 41.276-108.239 83.839-145.132l162.681 185.011-78.905-233.453c26.261-9.096 54.463-14.037 83.818-14.037s57.557 4.941 83.818 14.037l-78.905 233.453 162.681-185.011c42.563 36.893 72.832 87.593 83.839 145.132z" fill="#ffafe2"/><path d="m391.933 311.164-38.358 10.727c-1.878.525-3.309 2.049-3.717 3.956l-8.321 38.951c-.623 2.914-3.545 4.725-6.432 3.985l-38.583-9.889c-1.889-.484-3.89.12-5.197 1.567l-26.682 29.572c-1.996 2.213-5.433 2.32-7.563.235l-28.469-27.855c-1.394-1.364-3.429-1.842-5.284-1.241l-37.893 12.269c-2.835.918-5.865-.708-6.667-3.578l-10.727-38.358c-.525-1.878-2.049-3.309-3.956-3.717l-38.951-8.321c-2.914-.623-4.725-3.545-3.985-6.432l9.889-38.583c.484-1.889-.12-3.89-1.567-5.197l-29.572-26.682c-2.213-1.996-2.32-5.433-.235-7.563l27.855-28.469c1.364-1.394 1.842-3.429 1.241-5.284l-12.269-37.893c-.918-2.835.708-5.865 3.578-6.667l38.358-10.727c1.878-.525 3.309-2.049 3.717-3.956l8.321-38.951c.623-2.914 3.545-4.725 6.432-3.985l38.583 9.889c1.889.484 3.89-.12 5.197-1.567l26.682-29.572c1.996-2.213 5.433-2.32 7.563-.235l28.469 27.855c1.394 1.364 3.429 1.842 5.284 1.241l37.893-12.269c2.835-.918 5.865.708 6.667 3.578l10.727 38.358c.525 1.878 2.049 3.309 3.956 3.717l38.951 8.321c2.914.623 4.725 3.545 3.985 6.432l-9.889 38.583c-.484 1.889.12 3.89 1.567 5.197l29.572 26.682c2.213 1.996 2.32 5.433.235 7.563l-27.855 28.469c-1.364 1.394-1.842 3.429-1.241 5.284l12.269 37.893c.918 2.835-.708 5.865-3.578 6.667z" fill="#ffc7e8"/><path d="m259.853 393.422c-.535 5.242-3.278 24.964-20.303 38.719-3.264 2.637-6.555 4.652-9.637 6.197-10.126 5.074-19.618 11.314-28.295 18.594l-27.809 23.334-110.748-88.523 38.157-32.017c17.153-14.393 29.936-33.297 36.905-54.577l49.55-151.294c3.827-11.685 11.824-21.549 22.465-27.709l27.079-15.677c7.007-4.057 15.678 1.46 14.972 9.526l-19.631 224.39c2.098-.817 4.252-1.161 6.426-.971 13.155 1.149 23.102 28.136 20.869 50.008z" fill="#bb5d4c"/><path d="m252.228 118.936-13.911 8.053c-11.168 6.466-19.561 16.819-23.578 29.082l-52.004 158.787c-7.314 22.333-20.731 42.174-38.733 57.279l-46.871 39.329-14.071-19.723 38.157-32.017c17.153-14.393 29.936-33.297 36.905-54.577l49.55-151.294c3.827-11.685 11.824-21.549 22.465-27.709l27.079-15.677c6.696-3.877 14.911.989 15.012 8.467z" fill="#a44f3e"/><path d="m246.414 220.636c11.004.963 19.143 10.663 18.181 21.667l-12.028 137.475c-.963 11.004-10.663 19.143-21.667 18.181-11.004-.963-19.143-10.663-18.181-21.667l12.027-137.475c.964-11.004 10.665-19.144 21.668-18.181z" fill="#bb5d4c"/><path d="m223.678 371.486c-5.665 0-10.113-4.854-9.619-10.497l10.644-121.658c.948-10.835 10.19-19.34 21.05-18.743 3.136.172 6.054 1.053 8.614 2.473-5.615 3.116-9.632 8.876-10.234 15.755l-10.836 123.855c-.437 4.989-4.613 8.815-9.619 8.815z" fill="#a44f3e"/><path d="m244.828 225.1 2.374.208c5.338.467 9.287 5.173 8.82 10.511l-1.802 20.602c-.467 5.338-5.173 9.287-10.511 8.82l-2.374-.208c-5.338-.467-9.287-5.173-8.82-10.511l1.802-20.602c.467-5.339 5.173-9.287 10.511-8.82z" fill="#c96e59"/><path d="m339.952 481.743-46.799-39.269c-4.906-1.268-12.879-4.013-20.702-10.333-17.025-13.755-19.768-33.477-20.303-38.719-2.233-21.872 7.713-48.858 20.87-50.009 2.173-.19 4.328.154 6.426.971l-19.631-224.39c-.706-8.066 7.966-13.583 14.973-9.526l27.079 15.677c10.641 6.161 18.638 16.025 22.465 27.709l49.55 151.294c6.969 21.279 19.752 40.184 36.905 54.577l37.551 31.509z" fill="#bb5d4c"/><path d="m280.497 356.433-12.008-127.39-8.678-109.048c-.706-8.066 7.966-13.583 14.973-9.526l8.748 5.065c-.113.765-.139 1.564-.067 2.391l33.279 188.103c3.338 18.867.696 38.306-7.558 55.597-2.305 4.828-6.99 8.078-12.32 8.544-8.313.727-15.642-5.422-16.369-13.736z" fill="#a44f3e"/><path d="m281.1 397.958c-11.004.963-20.704-7.177-21.667-18.181l-12.027-137.475c-.963-11.004 7.177-20.704 18.181-21.667 11.004-.963 20.704 7.177 21.667 18.181l12.027 137.475c.962 11.004-7.178 20.705-18.181 21.667z" fill="#bb5d4c"/><path d="m338.191 480.266-27.27-22.882c-9.034-7.581-18.991-13.948-29.465-19.368-2.899-1.5-5.964-3.417-9.006-5.875-17.025-13.755-19.768-33.477-20.303-38.719-.463-4.533-.402-9.286.101-13.983 2.452-22.864 3.14-45.884 1.136-68.792l-5.938-67.873c-.826-9.444 4.829-18.455 13.874-21.292 2.13-.668 4.235-.948 6.281-.922-1.401 3.05-2.052 6.494-1.739 10.076l5.979 68.336c2.005 22.912 1.317 45.935-1.135 68.804-.504 4.695-.564 9.447-.101 13.979.535 5.242 3.278 24.964 20.303 38.719 3.477 2.809 6.984 4.912 10.238 6.493 8.855 4.302 17.234 9.521 24.776 15.849l7.51 7.499 19.669 15.306z" fill="#a44f3e"/><path d="m270.666 265.032-2.374.208c-5.338.467-10.044-3.482-10.511-8.82l-1.802-20.602c-.467-5.338 3.482-10.044 8.82-10.511l2.374-.208c5.338-.467 10.044 3.482 10.511 8.82l1.802 20.602c.467 5.338-3.482 10.044-8.82 10.511z" fill="#c96e59"/><path d="m201.171 303.198c-.338.043-.683.064-1.034.06-4.142-.039-7.467-3.43-7.427-7.572.245-25.397 18.113-101.892 23.297-126.654 3.463-16.541 8.067-33.027 13.683-48.999 1.374-3.908 5.657-5.961 9.563-4.587 3.908 1.374 5.962 5.655 4.587 9.563-5.398 15.354-9.822 31.199-13.151 47.097-4.983 23.8-22.744 99.311-22.98 123.726-.035 3.79-2.88 6.898-6.538 7.366zm137.437-8.5c3.977-1.161 6.258-5.326 5.097-9.302-10.41-35.644-18.137-66.835-22.963-92.708l-.106-.571c-1.42-7.634-4.063-21.843-12.1-39.098-6.079-13.051-14.091-25.285-23.813-36.363-2.732-3.113-7.471-3.422-10.584-.689s-3.422 7.471-.689 10.584c8.782 10.007 16.013 21.043 21.489 32.803 7.234 15.531 9.651 28.525 10.95 35.507l.107.578c4.918 26.362 12.761 58.044 23.311 94.163.956 3.274 3.948 5.399 7.196 5.399.695 0 1.403-.097 2.105-.303z" fill="#a44f3e"/><path d="m480.253 379.574c-28.072 50.836-72.928 91.108-127.095 113.345-3.722 1.528-8.031.202-10.242-3.159-6.085-9.252-10.731-19.534-13.62-30.528-.941-3.581.793-7.314 4.131-8.915 15.208-7.292 36.139-13.905 59.634-33.652 32-26.895 34.047-48.979 55.396-50.281 11.501-.701 22.909 4.974 31.796 13.19zm-423.805 36.799c37.071 46.068 89.766 79.032 150.041 90.843 5.302-9.768 7.028-22.514 3.591-33.706-8.577-27.929-41.782-22.366-82.808-56.846-11.425-9.603-19.032-18.592-25.063-26.241-.122-.155-.244-.31-.365-.464-1.459-1.857-3.971-2.53-6.159-1.64-15.208 6.185-28.62 15.869-39.237 28.054z" fill="#6354b2"/><path d="m57.084 417.16c-8.193-10.101-15.633-20.837-22.234-32.125 9.342-11.02 23.117-19.499 37.025-18.651 13.727.837 19.474 10.265 30.333 24.04.118.148-33.822 15.24-45.124 26.736zm290.018 67.97c-8.283-9.694-12.653-21.757-13.43-34.93-11.474 5.475-19.727 11.291-23.418 23.311-3.253 10.593-1.881 22.58 2.772 32.115 14.345-3.263 28.231-7.731 41.548-13.292-2.695-2.14-5.195-4.54-7.472-7.204z" fill="#463b85"/><path d="m101.533 176.581c-1.062 0-2.14-.227-3.165-.705l-73.577-34.309c-3.754-1.75-5.378-6.212-3.627-9.967 1.75-3.754 6.215-5.378 9.967-3.627l73.577 34.309c3.754 1.75 5.378 6.212 3.627 9.967-1.272 2.729-3.978 4.332-6.802 4.332zm-53.349 146.299 66.501-46.564c3.394-2.376 4.218-7.053 1.842-10.445-2.375-3.393-7.052-4.219-10.445-1.842l-66.502 46.564c-3.394 2.376-4.218 7.053-1.842 10.445 1.459 2.084 3.786 3.199 6.15 3.199 1.486 0 2.986-.44 4.296-1.357zm137.133-204.534c4.127-.361 7.179-3.999 6.818-8.125l-7.075-80.874c-.36-4.126-3.998-7.184-8.125-6.818-4.127.361-7.179 3.999-6.818 8.125l7.075 80.874c.342 3.904 3.616 6.847 7.463 6.847.219-.001.441-.01.662-.029zm-128.901 113.143 38.758-3.391c4.127-.361 7.179-3.999 6.818-8.125s-3.998-7.171-8.125-6.818l-38.758 3.391c-4.127.361-7.179 3.999-6.818 8.125.342 3.904 3.616 6.847 7.463 6.847.219 0 .44-.009.662-.029zm84.4-94.775c3.394-2.376 4.218-7.053 1.842-10.445l-22.315-31.87c-2.376-3.394-7.051-4.218-10.445-1.842s-4.218 7.053-1.842 10.445l22.315 31.87c1.459 2.084 3.786 3.199 6.15 3.199 1.486 0 2.986-.44 4.295-1.357zm272.816 39.162 73.577-34.309c3.754-1.75 5.378-6.212 3.627-9.967-1.75-3.754-6.212-5.379-9.967-3.627l-73.577 34.309c-3.754 1.75-5.378 6.212-3.627 9.967 1.272 2.729 3.977 4.332 6.802 4.332 1.061 0 2.139-.227 3.165-.705zm60.63 145.162c2.376-3.393 1.552-8.069-1.842-10.445l-66.501-46.564c-3.394-2.376-8.069-1.551-10.445 1.842s-1.552 8.069 1.842 10.445l66.501 46.564c1.31.917 2.81 1.357 4.295 1.357 2.364 0 4.691-1.115 6.15-3.199zm-139.454-209.511 7.075-80.874c.36-4.126-2.691-7.764-6.818-8.125-4.096-.364-7.764 2.691-8.125 6.818l-7.075 80.874c-.36 4.126 2.691 7.764 6.818 8.125.222.02.442.028.662.028 3.846.001 7.121-2.941 7.463-6.846zm128.901 113.144c.36-4.126-2.691-7.764-6.818-8.125l-38.758-3.391c-4.102-.357-7.764 2.691-8.125 6.818-.36 4.126 2.691 7.764 6.818 8.125l38.758 3.391c.222.02.442.028.662.028 3.847.001 7.121-2.942 7.463-6.846zm-82.08-89.799 22.315-31.87c2.376-3.393 1.552-8.069-1.842-10.445-3.394-2.375-8.069-1.552-10.445 1.842l-22.315 31.87c-2.376 3.393-1.552 8.069 1.842 10.445 1.31.917 2.81 1.357 4.295 1.357 2.364 0 4.691-1.115 6.15-3.199zm-118.129-52.233v-36.576c0-4.143-3.357-7.5-7.5-7.5s-7.5 3.357-7.5 7.5v36.575c0 4.143 3.357 7.5 7.5 7.5s7.5-3.357 7.5-7.499z" fill="#fff5f5"/></g></svg>