<svg id="Capa_1" enable-background="new 0 0 512 512" height="512" viewBox="0 0 512 512" width="512" xmlns="http://www.w3.org/2000/svg"><g><path d="m512 256c0 16.543-1.569 32.72-4.567 48.389-.804 4.203-8.612 4.952-9.619 9.079-11.926 48.883-37.887 92.267-73.373 125.638-2.535 2.384 1.783 8.134-.848 10.414-24.34 21.097-52.699 37.679-83.777 48.443-3.33 1.153-3.568-7.488-6.959-6.469-23.35 7.011-48.102 10.778-73.735 10.778-26.024 0-51.142-3.883-74.804-11.102-3.029-.924-9.157 7.825-12.137 6.793-31.077-10.764-59.437-27.346-83.777-48.443-2.807-2.433.715-9.124-1.983-11.675-36.141-34.174-62.33-78.767-73.761-128.973-.655-2.876-7.536-1.571-8.093-4.483-2.998-15.669-4.567-31.846-4.567-48.389s1.569-32.72 4.567-48.389c.754-3.939 8.948-2.951 9.88-6.824 11.953-49.676 38.392-93.71 74.597-127.384 2.202-2.048-2.911-8.954-.638-10.924 24.34-21.097 52.699-37.679 83.777-48.443 4.34-1.503 9.403 8.619 13.845 7.346 22.438-6.428 46.138-9.871 70.642-9.871 24.017 0 47.261 3.307 69.303 9.491 4.899 1.375 9.07-8.621 13.845-6.967 31.077 10.764 59.437 27.346 83.777 48.443 3.545 3.073-1.169 10.792 2.202 14.052 34.061 32.949 59 75.268 70.664 122.803 1.039 4.235 10.148 3.961 10.973 8.276 2.997 15.671 4.566 31.848 4.566 48.391z" fill="#54469d"/><path d="m265.826 256 241.607 48.389c-11.008 57.539-41.276 108.239-83.839 145.131l-162.681-185.01 78.905 233.454c-26.261 9.095-54.463 14.036-83.818 14.036s-57.557-4.941-83.818-14.037l78.905-233.454-162.681 185.012c-42.562-36.893-72.831-87.592-83.839-145.131l241.607-48.39-241.607-48.389c11.007-57.539 41.276-108.239 83.839-145.132l162.681 185.011-78.905-233.453c26.261-9.096 54.463-14.037 83.818-14.037s57.557 4.941 83.818 14.037l-78.905 233.453 162.681-185.011c42.562 36.893 72.831 87.592 83.839 145.131z" fill="#6354b2"/><path d="m217.019 304.413-57.203 86.885c-2.882 4.378-7.666 6.754-12.542 6.754-2.474 0-4.971-.611-7.258-1.881-.977-.25-42.261-23.06-42.261-23.06l-14.283.366c-6.637.168-12.134-5.062-12.304-11.688-.17-6.625 5.063-12.134 11.688-12.304l6.03-.154c-.051-.936.16-1.896.663-2.768 1.381-2.392 4.439-3.211 6.83-1.83l9.248 5.339c.015.009.03.018.044.026.301.136.596.285.886.446l32.332 17.985 53.073-80.612c4.554-6.919 13.857-8.837 20.777-4.28 6.919 4.555 8.835 13.857 4.28 20.776zm219.601 57.908c-.169 6.626-5.692 11.89-12.304 11.688l-14.283-.366s-41.284 22.809-42.26 23.059c-2.287 1.271-4.785 1.882-7.259 1.882-4.877 0-9.66-2.375-12.542-6.754l-57.203-86.885c-4.556-6.919-2.64-16.221 4.28-20.776 6.919-4.557 16.221-2.641 20.777 4.28l53.073 80.612 32.332-17.985c.669-.372 1.37-.678 2.091-.916l7.855-4.535c2.391-1.381 5.449-.562 6.83 1.83.438.758.654 1.583.669 2.4l6.256.161c6.624.171 11.858 5.68 11.688 12.305z" fill="#ffbd86"/><path d="m256.102 416.195h-43.473l-2.562-16.748-11.412-78.009c-2.847-2.35-5.315-4.997-7.325-7.877-2.302-3.299-3.586-7.67-3.586-12.216 0-11.617 7.11-21.034 15.882-21.034h40.492c-1.486 5.745-2.6 11.79-3.303 18.134-.548 4.942-.829 9.967-.829 15.056v38.625c-.002 23.183 5.834 45.002 16.116 64.069z" fill="#e5f2fd"/><path d="m319.233 301.346c0 4.546-1.283 8.917-3.586 12.216-2.016 2.888-4.492 5.542-7.35 7.897l-11.409 77.988-2.563 16.748h-41.924c-10.93-18.905-17.185-40.851-17.185-64.258v-36.736c0-4.84.267-9.619.788-14.32.806-7.271 2.179-14.127 4.054-20.57h63.291c8.774.001 15.884 9.418 15.884 21.035z" fill="#fff5f5"/><path d="m280.032 464.471h-26.045c-17.146 0-29.96-15.05-26.467-31.084l8.394-29.644c.72-2.542 3.04-4.296 5.681-4.296h55.295l9.61 33.94c3.492 16.035-9.322 31.084-26.468 31.084z" fill="#ffbd86"/><path d="m261.741 464.471h-34.818c-17.146 0-29.96-15.05-26.467-31.084l9.611-33.94h34.216l-9.008 33.94c-3.495 16.034 9.32 31.084 26.466 31.084z" fill="#f6a96c"/><path d="m310.51 217.629v5.958c0 6.525-5.289 11.814-11.814 11.814h-.873c-5.423 13.243-15.684 23.992-28.585 30.05-.271.127-.543.25-.815.37.004.136.006.273.006.41v20.421c0 7.492-6.073 13.565-13.565 13.565h-2.771c-7.492 0-13.565-6.074-13.565-13.565v-20.421c0-.137.002-.274.006-.41-.273-.12-.545-.243-.815-.37-12.901-6.058-23.162-16.807-28.585-30.05h-.852c-6.525 0-11.814-5.29-11.814-11.814v-5.958c0-5.35 3.557-9.869 8.435-11.323v-8.79c0-2.147.119-4.266.35-6.351 6.277-56.642 90.175-56.642 96.452 0 .231 2.085.35 4.204.35 6.351v8.783c4.887 1.447 8.455 5.972 8.455 11.33z" fill="#ffbd86"/><path d="m301.703 191.166c.231 2.085.35 4.204.35 6.351v16.292c0 22.838-13.426 42.539-32.816 51.643-.358.168-.719.329-1.08.485-.362-.156-.722-.317-1.08-.485-19.39-9.104-32.816-28.805-32.816-51.643v-16.292c0-2.146.119-4.266.35-6.351 2.448-22.087 16.698-35.561 33.546-40.423 16.849 4.862 31.099 18.336 33.546 40.423z" fill="#fed2a4"/><path d="m216.591 487.552c0 7.177-5.818 12.996-12.996 12.996h-43.122c-7.177 0-12.996-5.818-12.996-12.996 0-7.177 5.818-12.996 12.996-12.996h43.122c7.177.001 12.996 5.819 12.996 12.996z" fill="#f6a96c"/><path d="m364.512 472.512c-1.937 6.911-9.109 10.943-16.02 9.006l-41.522-11.636c-6.911-1.937-10.943-9.109-9.007-16.021 1.937-6.911 9.109-10.943 16.02-9.007l41.522 11.637c6.911 1.937 10.944 9.11 9.007 16.021z" fill="#ffbd86"/><path d="m312.477 482.004h-160c-13.807 0-25-11.193-25-25 0-13.807 11.193-25 25-25h160c13.807 0 25 11.193 25 25 0 13.807-11.192 25-25 25z" fill="#65befc"/><path d="m334.784 455.107-123.776 54.75c-12.627 5.585-27.391-.123-32.976-12.75-5.585-12.627.123-27.391 12.75-32.976l123.776-54.75c12.627-5.585 27.391.123 32.976 12.75 5.585 12.626-.124 27.39-12.75 32.976z" fill="#93d0fd"/><path d="m81.149 327.29c1.565 3.835-.274 8.213-4.109 9.778-.928.379-1.888.559-2.832.559-2.958 0-5.76-1.761-6.947-4.667l-.393-.973c-1.541-3.845.328-8.211 4.173-9.751 3.843-1.543 8.211.327 9.751 4.173zm3.588-167.544c-3.685-1.881-8.206-.426-10.092 3.263l-.468.92c-1.872 3.694-.394 8.207 3.301 10.079 1.086.551 2.243.812 3.383.812 2.737 0 5.375-1.504 6.696-4.113l.443-.868c1.886-3.688.425-8.206-3.263-10.093zm54.868-71.051-.856.599c-3.385 2.387-4.195 7.066-1.808 10.451 1.461 2.072 3.78 3.18 6.136 3.18 1.494 0 3.002-.445 4.315-1.371l.776-.544c3.401-2.364 4.241-7.038 1.876-10.438-2.364-3.402-7.037-4.244-10.439-1.877zm293.73 102.552.326.902c1.098 3.064 3.983 4.973 7.061 4.973.839 0 1.693-.142 2.529-.441 3.9-1.396 5.928-5.69 4.531-9.59l-.352-.975c-1.417-3.894-5.723-5.898-9.613-4.482-3.892 1.417-5.899 5.721-4.482 9.613zm-272.484-115.506-.907.482c-3.655 1.949-5.038 6.492-3.088 10.146 1.35 2.531 3.943 3.973 6.624 3.973 1.191 0 2.399-.285 3.523-.885l.854-.453c3.663-1.935 5.063-6.473 3.129-10.135-1.935-3.662-6.473-5.061-10.135-3.128zm284.66 128.622c-4.037.928-6.558 4.952-5.63 8.989l.215.942c.785 3.486 3.88 5.854 7.31 5.854.545 0 1.1-.061 1.655-.186 4.041-.91 6.579-4.924 5.669-8.964l-.229-1.007c-.929-4.034-4.954-6.557-8.99-5.628zm-382.525 15.322c.56.127 1.119.188 1.67.188 3.423 0 6.515-2.359 7.307-5.839l.215-.938c.939-4.034-1.57-8.066-5.604-9.005-4.037-.936-8.066 1.571-9.005 5.604l-.233 1.012c-.919 4.04 1.611 8.059 5.65 8.978zm5.858-23.277c.837.3 1.691.442 2.532.442 3.077 0 5.961-1.907 7.06-4.97l.325-.896c1.424-3.89-.575-8.197-4.465-9.621s-8.197.575-9.621 4.465l-.358.987c-1.399 3.9.628 8.195 4.527 9.593zm-.35 118.232c3.998-1.085 6.359-5.205 5.274-9.202l-.248-.923c-1.062-4.005-5.169-6.394-9.172-5.327-4.003 1.062-6.389 5.167-5.327 9.171l.27 1.007c.906 3.341 3.931 5.538 7.234 5.538.651-.001 1.312-.086 1.969-.264zm366.147-140.354c3.7-1.862 5.19-6.371 3.328-10.071l-.473-.934c-1.886-3.686-6.404-5.146-10.093-3.261-3.688 1.886-5.148 6.405-3.262 10.093l.429.846c1.318 2.618 3.961 4.13 6.705 4.13 1.133 0 2.284-.258 3.366-.803zm-61.105-84.789-.845-.596c-3.391-2.38-8.067-1.562-10.448 1.827-2.38 3.39-1.562 8.067 1.827 10.448l.795.561c1.316.933 2.83 1.381 4.329 1.381 2.35 0 4.665-1.102 6.126-3.165 2.395-3.381 1.596-8.061-1.784-10.456zm-189.998-24.008-.971.372c-3.864 1.492-5.787 5.834-4.294 9.698 1.149 2.976 3.989 4.8 6.999 4.8.898 0 1.812-.162 2.7-.506l.894-.343c3.872-1.471 5.818-5.802 4.348-9.674-1.473-3.873-5.804-5.816-9.676-4.347zm264.052 233.969c-4.002-1.067-8.112 1.312-9.179 5.314l-.25.926c-1.09 3.996 1.266 8.119 5.262 9.209.661.181 1.325.267 1.978.267 3.298 0 6.322-2.193 7.231-5.528l.271-1.008c1.069-4.003-1.311-8.113-5.313-9.18zm-6.725 23.041c-3.843-1.545-8.211.316-9.757 4.159l-.358.883c-1.571 3.832.263 8.213 4.096 9.783.931.382 1.894.562 2.841.562 2.954 0 5.753-1.756 6.943-4.658l.395-.973c1.545-3.842-.317-8.21-4.16-9.756zm-88.514-246.117-.906-.484c-3.655-1.949-8.198-.565-10.146 3.09s-.565 8.198 3.09 10.146l.863.461c1.129.607 2.345.895 3.543.895 2.672 0 5.259-1.432 6.613-3.951 1.96-3.649.592-8.197-3.057-10.157zm-145.036-18.288-1.011.251c-4.018 1.007-6.458 5.081-5.451 9.099.854 3.405 3.911 5.678 7.269 5.678.604 0 1.218-.073 1.83-.228l.928-.229c4.023-.984 6.487-5.045 5.502-9.068-.983-4.023-5.042-6.488-9.067-5.503zm98.654.318-1.013-.252c-4.026-.978-8.083 1.481-9.066 5.506-.983 4.023 1.481 8.083 5.505 9.066l.93.23c.612.153 1.224.227 1.828.227 3.359 0 6.417-2.273 7.27-5.681 1.006-4.017-1.436-8.09-5.454-9.096zm23.754 7.562-.996-.383c-3.874-1.467-8.203.483-9.67 4.357s.484 8.203 4.357 9.67l.874.336c.893.348 1.812.512 2.715.512 3.003 0 5.839-1.817 6.992-4.784 1.502-3.862-.412-8.208-4.272-9.708z" fill="#fff"/><path d="m298.456 92.589c-8.838 14.171-24.574 23.596-42.51 23.577-27.434-.029-49.916-22.512-49.945-49.945-.019-17.92 9.39-33.645 23.54-42.487.28-.175.612.142.452.43-4.167 7.477-6.471 16.133-6.284 25.342.54 26.67 22.282 48.412 48.952 48.952 9.222.187 17.89-2.124 25.373-6.301.281-.157.592.159.422.432z" fill="#fa0"/><path d="m306 66.166c0 9.748-2.79 18.844-7.614 26.534-7.69 4.824-16.786 7.614-26.534 7.614-27.614 0-50-22.386-50-50 0-9.748 2.79-18.844 7.614-26.534 7.69-4.824 16.786-7.614 26.534-7.614 27.614 0 50 22.386 50 50z" fill="#ffc143"/><path d="m286.162 66.166c0 16.658-13.504 30.162-30.162 30.162s-30.162-13.504-30.162-30.162 13.504-30.162 30.162-30.162 30.162 13.504 30.162 30.162z" fill="#fff261"/><path d="m269.5 66.166c0 7.456-6.044 13.5-13.5 13.5s-13.5-6.044-13.5-13.5 6.044-13.5 13.5-13.5 13.5 6.044 13.5 13.5z" fill="#fff9bf"/><path d="m140.219 157.144c-7.071 11.337-19.659 18.877-34.008 18.861-21.947-.023-39.933-18.009-39.956-39.956-.015-14.336 7.512-26.916 18.832-33.99.224-.14.49.114.362.344-3.333 5.981-5.176 12.906-5.027 20.274.432 21.336 17.825 38.73 39.162 39.162 7.377.149 14.312-1.699 20.298-5.041.224-.126.473.127.337.346z" fill="#49b6fc"/><path d="m146.254 136.005c0 7.798-2.232 15.075-6.091 21.227-6.152 3.859-13.429 6.091-21.227 6.091-22.091 0-40-17.909-40-40 0-7.798 2.232-15.075 6.091-21.227 6.152-3.859 13.429-6.091 21.227-6.091 22.092 0 40 17.909 40 40z" fill="#65befc"/><path d="m126.254 136.005c0 11.046-8.954 20-20 20s-20-8.954-20-20 8.954-20 20-20 20 8.954 20 20z" fill="#93d0fd"/><path d="m439.71 157.144c-7.071 11.337-19.659 18.877-34.008 18.861-21.947-.023-39.933-18.009-39.956-39.956-.015-14.336 7.512-26.916 18.832-33.99.224-.14.49.114.362.344-3.333 5.981-5.176 12.906-5.027 20.274.432 21.336 17.825 38.73 39.162 39.162 7.377.149 14.312-1.699 20.298-5.041.225-.126.474.127.337.346z" fill="#ff73c6"/><path d="m445.746 136.005c0 7.798-2.232 15.075-6.091 21.227-6.152 3.859-13.429 6.091-21.227 6.091-22.091 0-40-17.909-40-40 0-7.798 2.232-15.075 6.091-21.227 6.152-3.859 13.429-6.091 21.227-6.091 22.091 0 40 17.909 40 40z" fill="#ff94d4"/><path d="m425.746 136.005c0 11.046-8.954 20-20 20s-20-8.954-20-20 8.954-20 20-20 20 8.954 20 20z" fill="#ffafe2"/><path d="m478.363 277.061c-5.303 8.502-14.745 14.157-25.506 14.146-16.46-.018-29.95-13.507-29.967-29.967-.011-10.752 5.634-20.187 14.124-25.492.168-.105.367.085.271.258-2.5 4.486-3.882 9.68-3.77 15.206.324 16.002 13.369 29.047 29.371 29.371 5.533.112 10.734-1.274 15.224-3.781.168-.095.355.094.253.259z" fill="#ff3980"/><path d="m482.89 261.207c0 5.849-1.674 11.306-4.568 15.92-4.614 2.895-10.072 4.568-15.92 4.568-16.569 0-30-13.432-30-30 0-5.849 1.674-11.307 4.568-15.92 4.614-2.895 10.072-4.568 15.92-4.568 16.568 0 30 13.431 30 30z" fill="#ff5e95"/><path d="m467.89 261.207c0 8.284-6.716 15-15 15s-15-6.716-15-15 6.716-15 15-15 15 6.715 15 15z" fill="#ffa2c3"/><path d="m84.584 277.061c-5.303 8.503-14.745 14.157-25.506 14.146-16.46-.018-29.95-13.507-29.967-29.967-.012-10.752 5.634-20.187 14.124-25.492.168-.105.367.085.271.258-2.5 4.486-3.882 9.68-3.77 15.205.324 16.002 13.369 29.047 29.371 29.371 5.533.112 10.734-1.274 15.224-3.781.168-.094.355.096.253.26z" fill="#00c53b"/><path d="m89.11 261.207c0 5.849-1.674 11.306-4.568 15.92-4.614 2.895-10.072 4.568-15.92 4.568-16.569 0-30-13.431-30-30 0-5.849 1.674-11.306 4.568-15.92 4.614-2.894 10.072-4.568 15.92-4.568 16.569 0 30 13.431 30 30z" fill="#4bcd5c"/><path d="m74.11 261.207c0 8.284-6.716 15-15 15s-15-6.716-15-15 6.716-15 15-15 15 6.715 15 15z" fill="#74d579"/><path d="m301.273 187.936v.106h-66.312s-8.804-6.044-8.198-8.868c1.925-8.967 6.745-16.859 13.434-22.65-.361-1.503-.552-3.073-.552-4.687v-1.532c0-11.046 8.954-20 20-20h8.106c11.046 0 20 8.954 20 20v1.532c0 1.678-.207 3.308-.597 4.866 8.66 7.612 14.119 18.783 14.119 31.233z" fill="#c96e59"/><path d="m248.769 150.306v1.532c0 1.614.191 3.183.552 4.687-8.796 7.615-14.359 18.864-14.359 31.412v.106h-29.277v-.106c0-12.548 5.564-23.797 14.359-31.412-.361-1.503-.552-3.073-.552-4.687v-1.532c0-11.046 8.954-20 20-20h28.259c.17 0 .34.002.509.006-10.811.27-19.491 9.118-19.491 19.994z" fill="#bb5d4c"/></g></svg>