<svg id="Capa_1" enable-background="new 0 0 512 512" height="512" viewBox="0 0 512 512" width="512" xmlns="http://www.w3.org/2000/svg"><g><path d="m512 256c0 16.543-1.569 32.72-4.567 48.389-.804 4.203-8.612 4.952-9.619 9.079-11.926 48.883-37.887 92.267-73.373 125.638-2.535 2.384 1.783 8.134-.848 10.414-24.34 21.097-52.699 37.679-83.777 48.443-3.33 1.153-3.568-7.488-6.959-6.469-23.35 7.011-48.102 10.778-73.735 10.778-26.024 0-51.142-3.883-74.804-11.102-3.029-.924-9.157 7.825-12.137 6.793-31.077-10.764-59.437-27.346-83.777-48.443-2.807-2.433.715-9.124-1.983-11.675-36.141-34.174-62.33-78.767-73.761-128.973-.655-2.876-7.536-1.571-8.093-4.483-2.998-15.669-4.567-31.846-4.567-48.389s1.569-32.72 4.567-48.389c.754-3.939 8.948-2.951 9.88-6.824 11.953-49.676 38.392-93.71 74.597-127.384 2.202-2.048-2.911-8.954-.638-10.924 24.34-21.097 52.699-37.679 83.777-48.443 4.34-1.503 9.403 8.619 13.845 7.346 22.438-6.428 46.138-9.871 70.642-9.871 24.017 0 47.261 3.307 69.303 9.491 4.899 1.375 9.07-8.621 13.845-6.967 31.077 10.764 59.437 27.346 83.777 48.443 3.545 3.073-1.169 10.792 2.202 14.052 34.061 32.949 59 75.268 70.664 122.803 1.039 4.235 10.148 3.961 10.973 8.276 2.997 15.671 4.566 31.848 4.566 48.391z" fill="#54469d"/><path d="m265.826 256 241.607 48.389c-11.008 57.539-41.276 108.239-83.839 145.131l-162.681-185.01 78.905 233.454c-26.261 9.095-54.463 14.036-83.818 14.036s-57.557-4.941-83.818-14.037l78.905-233.454-162.681 185.012c-42.562-36.893-72.831-87.592-83.839-145.131l241.607-48.39-241.607-48.389c11.007-57.539 41.276-108.239 83.839-145.132l162.681 185.011-78.905-233.453c26.261-9.096 54.463-14.037 83.818-14.037s57.557 4.941 83.818 14.037l-78.905 233.453 162.681-185.011c42.562 36.893 72.831 87.592 83.839 145.131z" fill="#6354b2"/><path d="m380.043 384.341-9.892 46.305c-.831 3.889-4.731 6.306-8.583 5.318l-51.49-13.197c-2.521-.646-5.192.16-6.935 2.092l-35.608 39.464c-2.664 2.953-7.25 3.096-10.093.314l-37.993-37.174c-1.86-1.82-4.576-2.458-7.052-1.656l-50.569 16.374c-3.784 1.225-7.826-.944-8.898-4.774l-14.316-51.19c-.701-2.506-2.734-4.417-5.279-4.96l-51.981-11.105c-3.889-.831-6.306-4.731-5.318-8.583l13.197-51.49c.646-2.521-.159-5.192-2.092-6.935l-39.464-35.608c-2.953-2.664-3.095-7.25-.314-10.092l37.174-37.993c1.82-1.86 2.458-4.576 1.656-7.052l-16.373-50.571c-1.225-3.784.944-7.827 4.774-8.897l31.379-8.775z" fill="#65befc"/><path d="m511.653 209.729c-3.197-18.938-32.216-29.887-86.251-32.541-49.146-2.416-113.026 2.466-179.857 13.745-66.83 11.279-128.769 27.631-174.405 46.043-50.171 20.24-73.989 40.106-70.793 59.045 3.197 18.938 32.216 29.887 86.251 32.541 8.22.404 16.847.604 25.835.604 44.76 0 98.369-4.956 154.022-14.349 66.829-11.278 128.768-27.631 174.405-46.043 50.171-20.241 73.99-40.106 70.793-59.045zm-76.405 45.135c-44.663 18.02-105.495 34.059-171.289 45.162-65.796 11.104-128.528 15.911-176.625 13.555-54.772-2.691-71.152-13.873-72.196-20.056-1.044-6.184 10.759-22.122 61.614-42.639 44.663-18.02 105.495-34.059 171.289-45.162 54.852-9.257 107.566-14.143 151.458-14.143 8.757 0 17.167.195 25.167.588 54.772 2.69 71.152 13.873 72.196 20.056 1.042 6.184-10.761 22.123-61.614 42.639z" fill="#e5f2fd"/><path d="m464.637 254.558-37.174 37.993c-1.82 1.86-2.458 4.576-1.656 7.052l16.373 50.569c1.225 3.784-.944 7.827-4.774 8.897l-51.19 14.316c-2.506.701-4.417 2.734-4.96 5.279l-1.213 5.677c-16.012 3.612-32.67 5.519-49.773 5.519-78.372 0-148.584-39.123-183.824-102.95-19.577-35.459-41.082-136.007-40.474-142.755l19.811-5.541c2.506-.701 4.417-2.734 4.96-5.279l11.105-51.981c.831-3.889 4.731-6.306 8.583-5.318l51.49 13.197c2.521.646 5.192-.16 6.935-2.092l35.608-39.464c2.664-2.953 7.25-3.096 10.093-.314l37.993 37.174c1.86 1.82 4.576 2.458 7.052 1.656l50.569-16.373c3.784-1.225 7.826.944 8.898 4.774l14.316 51.19c.701 2.506 2.734 4.417 5.279 4.96l51.981 11.105c3.889.831 6.306 4.731 5.318 8.583l-13.197 51.49c-.646 2.521.159 5.192 2.092 6.935l39.464 35.607c2.953 2.665 3.096 7.251.315 10.094z" fill="#93d0fd"/><path d="m402.576 339.28-41.361 11.567c-2.025.566-3.569 2.209-4.008 4.265l-8.973 42.001c-.671 3.142-3.823 5.095-6.935 4.297l-41.604-10.663c-2.037-.522-4.195.129-5.604 1.69l-28.771 31.887c-2.153 2.386-5.858 2.501-8.155.254l-30.698-30.036c-1.503-1.47-3.697-1.986-5.698-1.338l-40.86 13.23c-3.057.99-6.324-.763-7.189-3.858l-11.567-41.361c-.566-2.025-2.209-3.569-4.265-4.008l-42.001-8.973c-3.142-.671-5.095-3.823-4.297-6.935l10.663-41.604c.522-2.037-.129-4.195-1.69-5.604l-31.887-28.771c-2.386-2.153-2.501-5.858-.254-8.155l30.036-30.698c1.47-1.503 1.986-3.697 1.338-5.698l-13.23-40.86c-.99-3.057.763-6.324 3.858-7.189l41.361-11.567c2.025-.566 3.569-2.209 4.008-4.265l8.973-42.001c.671-3.142 3.823-5.095 6.935-4.297l41.604 10.663c2.037.522 4.195-.129 5.604-1.69l28.771-31.887c2.153-2.386 5.858-2.501 8.155-.254l30.698 30.036c1.503 1.47 3.697 1.986 5.698 1.338l40.86-13.23c3.057-.99 6.324.763 7.189 3.858l11.567 41.361c.566 2.025 2.209 3.569 4.265 4.008l42.001 8.973c3.142.671 5.095 3.823 4.297 6.935l-10.663 41.604c-.522 2.037.129 4.195 1.69 5.604l31.887 28.771c2.386 2.153 2.501 5.858.254 8.155l-30.036 30.698c-1.47 1.503-1.986 3.697-1.338 5.698l13.23 40.86c.989 3.057-.764 6.323-3.858 7.189z" fill="#4bcd5c"/><path d="m380.037 326.474-35.001 9.789c-1.714.479-3.02 1.869-3.392 3.609l-7.593 35.542c-.568 2.659-3.235 4.312-5.869 3.636l-35.206-9.023c-1.724-.442-3.55.109-4.742 1.43l-24.347 26.984c-1.822 2.019-4.957 2.117-6.901.215l-25.978-25.418c-1.272-1.244-3.129-1.681-4.822-1.132l-34.577 11.195c-2.587.838-5.351-.646-6.084-3.264l-9.789-35.001c-.479-1.714-1.869-3.02-3.609-3.392l-35.542-7.593c-2.659-.568-4.312-3.235-3.636-5.869l9.023-35.206c.442-1.724-.109-3.55-1.43-4.742l-26.984-24.347c-2.019-1.822-2.117-4.957-.215-6.901l25.418-25.978c1.244-1.272 1.681-3.129 1.132-4.822l-11.195-34.577c-.838-2.587.646-5.351 3.264-6.084l35.001-9.789c1.714-.479 3.02-1.869 3.392-3.609l7.593-35.542c.568-2.659 3.235-4.312 5.869-3.636l35.206 9.023c1.724.442 3.55-.109 4.742-1.43l24.347-26.984c1.822-2.019 4.957-2.117 6.901-.215l25.978 25.418c1.272 1.244 3.129 1.681 4.822 1.132l34.577-11.195c2.587-.838 5.351.646 6.084 3.264l9.789 35.001c.479 1.714 1.869 3.02 3.609 3.392l35.542 7.593c2.659.568 4.312 3.235 3.636 5.869l-9.023 35.206c-.442 1.724.109 3.55 1.43 4.742l26.984 24.347c2.019 1.822 2.117 4.957.215 6.901l-25.418 25.978c-1.244 1.272-1.681 3.129-1.132 4.822l11.195 34.577c.838 2.587-.645 5.352-3.264 6.084z" fill="#00c53b"/><path d="m372.447 256c0 64.312-52.135 116.447-116.447 116.447s-116.447-52.135-116.447-116.447 52.135-116.447 116.447-116.447 116.447 52.135 116.447 116.447z" fill="#ff73c6"/><path d="m359.094 310.192c-19.499 37.017-58.349 62.254-103.094 62.254-64.312 0-116.447-52.135-116.447-116.447 0-44.745 25.237-83.596 62.254-103.094-8.526 16.187-13.352 34.626-13.352 54.192 0 64.312 52.135 116.447 116.447 116.447 19.566.001 38.005-4.825 54.192-13.352z" fill="#ff4fb8"/><path d="m310.922 339.145c2.143 3.853.756 8.711-3.096 10.854-.337.188-.675.373-1.016.558-1.383.748-2.89 1.044-4.351.941-2.633-.187-5.118-1.674-6.466-4.169-2.096-3.878-.651-8.72 3.227-10.816.284-.153.566-.308.846-.463 3.854-2.146 8.714-.757 10.856 3.095zm-39.292 6.964-.977.167c-4.349.714-7.296 4.821-6.58 9.171.611 3.72 3.702 6.413 7.306 6.668.61.043 1.235.017 1.865-.088l1.122-.189c4.343-.755 7.251-4.889 6.496-9.232-.756-4.344-4.889-7.247-9.232-6.497zm27.518-179.159c1.434-4.168-.784-8.71-4.953-10.143-.366-.126-.734-.251-1.103-.373-4.19-1.378-8.7.899-10.078 5.084-1.379 4.188.898 8.7 5.085 10.078.303.099.604.202.906.306 1.047.36 2.116.49 3.155.417 3.098-.219 5.915-2.247 6.988-5.369zm33.886 40.008c1.414 2.212 3.736 3.491 6.168 3.663 1.652.117 3.354-.277 4.856-1.237 3.713-2.375 4.8-7.31 2.426-11.024l-.614-.952c-2.406-3.691-7.351-4.737-11.045-2.329-3.693 2.406-4.736 7.351-2.329 11.045zm11.533 26.842c.077.311.153.621.227.933.825 3.481 3.813 5.884 7.202 6.125.787.056 1.596-.006 2.405-.197 4.29-1.017 6.943-5.317 5.928-9.606-.09-.379-.182-.758-.277-1.135-1.071-4.275-5.404-6.877-9.682-5.801-4.277 1.071-6.875 5.405-5.803 9.681zm5.904 53.788c-4.056-1.729-8.744.154-10.475 4.208l-.397.921c-1.763 4.04.082 8.745 4.121 10.509.859.375 1.746.586 2.631.649 3.276.231 6.489-1.588 7.878-4.77l.45-1.042c1.73-4.055-.153-8.745-4.208-10.475zm5.094-32.549c-4.397-.311-8.214 3.001-8.525 7.398l-.075.991c-.35 4.395 2.929 8.24 7.323 8.59.024.001.048.003.072.005 4.364.309 8.171-2.958 8.519-7.328l.085-1.132c.311-4.397-3.001-8.213-7.399-8.524zm-30.033-69.859c2.74-3.454 2.162-8.474-1.29-11.214l-.877-.692c-3.469-2.718-8.487-2.108-11.205 1.364-2.718 3.47-2.107 8.487 1.364 11.205l.794.628c1.309 1.039 2.843 1.601 4.392 1.71 2.538.179 5.12-.857 6.822-3.001zm9.465 131.489c-3.275-2.948-8.32-2.688-11.273.586l-.661.725c-2.985 3.243-2.775 8.293.468 11.278 1.383 1.273 3.096 1.965 4.836 2.088 2.339.166 4.729-.697 6.441-2.556.259-.282.517-.564.774-.849 2.952-3.273 2.689-8.32-.585-11.272zm-169.165-42.823-.187-.974c-.813-4.333-4.982-7.188-9.316-6.373-4.333.812-7.186 4.983-6.373 9.316l.214 1.116c.771 3.908 4.27 6.583 8.129 6.434.411-.016.828-.064 1.245-.146 4.324-.851 7.14-5.048 6.288-9.373zm-9.905-23.363c.469.063.932.084 1.389.067 3.802-.146 7.064-3.004 7.592-6.904l.137-.977c.635-4.362-2.388-8.414-6.749-9.048-4.363-.626-8.412 2.388-9.048 6.75-.054.376-.107.753-.158 1.131-.592 4.368 2.468 8.388 6.837 8.981zm7.205-32.145c1.253.633 2.593.905 3.903.854 2.803-.108 5.466-1.694 6.823-4.375.146-.29.294-.578.444-.867 2.035-3.911.515-8.73-3.395-10.766s-8.73-.515-10.766 3.395c-.179.344-.354.688-.529 1.033-1.989 3.935-.414 8.736 3.52 10.726zm50.27-44.241c4.012-1.826 5.784-6.559 3.957-10.572-1.826-4.011-6.557-5.783-10.572-3.957-.354.162-.705.326-1.055.491-3.988 1.878-5.698 6.634-3.818 10.622 1.407 2.987 4.427 4.695 7.531 4.576 1.041-.04 2.09-.285 3.091-.757.287-.136.575-.271.866-.403zm8.225 166.88c-.295-.118-.589-.237-.882-.359-4.073-1.69-8.743.237-10.433 4.31-1.69 4.072.239 8.742 4.31 10.433.362.15.728.298 1.094.444 1.07.427 2.177.606 3.259.564 3.056-.118 5.904-1.998 7.111-5.022 1.631-4.094-.364-8.737-4.459-10.37zm16.679-191.315c-.38.082-.759.167-1.136.253-4.298.977-6.99 5.255-6.011 9.553.732 3.22 3.315 5.538 6.372 6.087 1.025.184 2.102.17 3.182-.076.312-.07.622-.141.934-.207 4.311-.921 7.058-5.163 6.135-9.475-.923-4.309-5.162-7.056-9.476-6.135zm-51.833 43.058c1.904-.073 3.786-.824 5.258-2.257.231-.224.462-.447.697-.671 3.196-3.036 3.324-8.087.288-11.284s-8.09-3.325-11.284-.288c-.281.267-.559.535-.835.805-3.159 3.074-3.227 8.128-.151 11.286 1.64 1.688 3.847 2.493 6.027 2.409zm9.357 132.561-.739-.646c-3.308-2.912-8.352-2.593-11.265.715-2.914 3.309-2.593 8.352.715 11.265.286.252.574.503.864.753 1.592 1.374 3.571 2.007 5.518 1.932 2.135-.083 4.233-1.017 5.739-2.763 2.879-3.338 2.506-8.377-.832-11.256zm-19.796-24.044c-2.172-3.835-7.043-5.186-10.878-3.011-3.835 2.171-5.184 7.042-3.011 10.878.191.338.386.673.582 1.009 1.539 2.636 4.355 4.063 7.207 3.953 1.266-.049 2.539-.402 3.71-1.085 3.807-2.223 5.092-7.11 2.868-10.917-.161-.274-.321-.55-.478-.827z" fill="#ff94d4"/><path d="m440.86 268.774c-45.638 18.412-107.576 34.764-174.405 46.043-55.653 9.393-109.264 14.349-154.022 14.349-8.989 0-17.615-.199-25.835-.604-54.035-2.654-83.054-13.603-86.251-32.541-.689-4.084 2.062-7.954 6.147-8.644 4.087-.688 7.954 2.063 8.644 6.147 1.044 6.183 17.424 17.364 72.195 20.056 48.104 2.356 110.83-2.451 176.626-13.555 65.794-11.104 126.626-27.143 171.289-45.162 50.855-20.518 62.658-36.456 61.614-42.639-.689-4.084 2.063-7.954 6.147-8.644 4.087-.688 7.954 2.063 8.644 6.147 3.197 18.941-20.622 38.806-70.793 59.047z" fill="#fff"/><path d="m336.573 256c0 44.499-36.074 80.573-80.573 80.573s-80.573-36.074-80.573-80.573 36.074-80.573 80.573-80.573 80.573 36.074 80.573 80.573z" fill="#ffc143"/><path d="m311.739 256c0 30.784-24.955 55.739-55.739 55.739s-55.739-24.955-55.739-55.739 24.955-55.739 55.739-55.739 55.739 24.955 55.739 55.739z" fill="#ffcd6b"/><path d="m307.611 258.678-59.149 101.349c-2.572 4.407-9.318 2.583-9.318-2.52v-91.665c0-2.761-2.239-5-5-5h-25.436c-3.859 0-6.264-4.187-4.318-7.52l59.149-101.35c2.572-4.407 9.318-2.583 9.318 2.52v91.666c0 2.761 2.239 5 5 5h25.436c3.859 0 6.263 4.187 4.318 7.52z" fill="#ffe7bf"/><path d="m251.433 354.937 6.672-104.218c0-2.762-2.239-5-5-5h-13.646c-3.859 0-6.264-4.187-4.318-7.521l37.716-77.428v85.388c0 2.761 2.239 5 5 5h25.436c3.859 0 6.264 4.187 4.318 7.521z" fill="#fff5f5"/><path d="m341.464 468.496-12.592 4.92c-.52.203-.932.615-1.135 1.135l-4.921 12.591c-.663 1.696-3.063 1.696-3.726 0l-4.921-12.591c-.203-.52-.615-.932-1.135-1.135l-12.592-4.92c-1.696-.663-1.696-3.063 0-3.726l12.592-4.921c.52-.203.932-.615 1.135-1.135l4.921-12.591c.663-1.696 3.063-1.696 3.726 0l4.921 12.591c.203.52.615.932 1.135 1.135l12.592 4.921c1.696.663 1.696 3.064 0 3.726z" fill="#ff94d4"/><path d="m106.318 446.715-12.592 4.92c-.52.203-.932.615-1.135 1.135l-4.921 12.591c-.663 1.696-3.063 1.696-3.726 0l-4.921-12.591c-.203-.52-.615-.932-1.135-1.135l-12.592-4.92c-1.696-.663-1.696-3.063 0-3.726l12.592-4.921c.52-.203.932-.615 1.135-1.135l4.921-12.591c.663-1.696 3.063-1.696 3.726 0l4.921 12.591c.203.52.615.932 1.135 1.135l12.592 4.921c1.696.663 1.696 3.063 0 3.726zm338.715-383.953-12.592 4.92c-.52.203-.932.615-1.135 1.135l-4.921 12.591c-.663 1.696-3.063 1.696-3.726 0l-4.921-12.591c-.203-.52-.615-.932-1.135-1.135l-12.592-4.92c-1.696-.663-1.696-3.063 0-3.726l12.592-4.921c.52-.203.932-.615 1.135-1.135l4.921-12.591c.663-1.696 3.063-1.696 3.726 0l4.921 12.591c.203.52.615.932 1.135 1.135l12.592 4.921c1.696.663 1.696 3.063 0 3.726z" fill="#65befc"/><path d="m392.957 125.29-12.592 4.92c-.52.203-.932.615-1.135 1.135l-4.921 12.591c-.663 1.696-3.063 1.696-3.726 0l-4.921-12.591c-.203-.52-.615-.932-1.135-1.135l-12.592-4.92c-1.696-.663-1.696-3.063 0-3.726l12.592-4.921c.52-.203.932-.615 1.135-1.135l4.921-12.591c.663-1.696 3.063-1.696 3.726 0l4.921 12.591c.203.52.615.932 1.135 1.135l12.592 4.921c1.696.663 1.696 3.063 0 3.726zm-274.738-17.427-12.592 4.92c-.52.203-.932.615-1.135 1.135l-4.921 12.591c-.663 1.696-3.063 1.696-3.726 0l-4.921-12.591c-.203-.52-.615-.932-1.135-1.135l-12.592-4.92c-1.696-.663-1.696-3.063 0-3.726l12.592-4.921c.52-.203.932-.615 1.135-1.135l4.921-12.591c.663-1.696 3.063-1.696 3.726 0l4.921 12.591c.203.52.615.932 1.135 1.135l12.592 4.921c1.696.663 1.696 3.063 0 3.726z" fill="#fff5f5"/></g></svg>