<svg id="Capa_1" enable-background="new 0 0 512 512" height="512" viewBox="0 0 512 512" width="512" xmlns="http://www.w3.org/2000/svg"><g><path d="m3.863 220.18c-.725 0-1.287-.646-1.182-1.364 18.008-123.762 124.563-218.816 253.319-218.816 128.786 0 235.36 95.098 253.332 218.902.098.673-.428 1.278-1.108 1.278z" fill="#00a4fb"/><path d="m452.857 256c0 108.721-88.136 196.857-196.857 196.857s-196.857-88.136-196.857-196.857 88.136-196.857 196.857-196.857 196.857 88.136 196.857 196.857z" fill="#49b6fc"/><path d="m501.105 253.091c0 36.509-7.642 71.232-21.414 102.658-1.505 3.434 7.813 9.738 6.163 13.091-14.947 30.389-35.743 57.383-60.92 79.512-1.185 1.042-7.069.777-8.274 1.797-5.454 4.619-11.103 9.013-16.935 13.169-1.652 1.177 1.371 3.631-.31 4.77-40.914 27.72-90.273 43.912-143.415 43.912-141.385 0-256-114.615-256-256 0-12.672.921-25.128 2.699-37.307h59.974l18.242 8.4h344.018l24.394-8.4h59.974c1.024 7.014 1.764 14.12 2.207 21.307.326 5.291-10.403 7.717-10.403 13.091z" fill="#00c53b"/><path d="m452.857 256c0 108.721-88.136 196.857-196.857 196.857s-196.857-88.136-196.857-196.857c0-12.755 1.213-25.227 3.53-37.307h386.654c2.317 12.08 3.53 24.552 3.53 37.307z" fill="#4bcd5c"/><path d="m173.989 358.839v-108.839c0-5.523 4.477-10 10-10h327.518c.326 5.292.492 10.626.492 16 0 40.498-9.404 78.799-26.147 112.839h-301.863c-5.522 0-10-4.477-10-10z" fill="#ff94d4"/><path d="m194.573 368.839h-26.59c-5.523 0-10-4.477-10-10v-108.839c0-5.523 4.477-10 10-10h26.59c-5.523 0-10 4.477-10 10v108.839c0 5.523 4.477 10 10 10z" fill="#ff73c6"/><path d="m173.978 459.617c0 .769-.051 1.526-.149 2.268v14.08c0 3.262-2.645 5.907-5.907 5.907h-54.936c-4.567 0-8.27-3.703-8.27-8.27 0-9.787 7.934-17.721 17.721-17.721h19.542l.011-82.53c.001-9.148 7.165-16.564 16-16.564h.002c8.836.002 15.999 7.419 15.998 16.569zm177.692-84.53c-6.249-6.25-16.379-6.248-22.627 0-6.249 6.249-6.249 16.379 0 22.627l70.373 70.373c8.924-6.046 17.447-12.641 25.519-19.736z" fill="#bb5d4c"/><path d="m212.479 181.386c0 8.284-6.716 15-15 15h-67.836c-3.377 0-85.333-3-85.333-3-6.627 0-12-5.373-12-12s5.373-12 12-12h4.412c-.291-1.102-.208-2.308.319-3.418 1.185-2.494 4.168-3.556 6.662-2.371l11.172 5.308c.289.137.559.299.808.481 0 0 58.583-3 61.961-3h67.836c8.283 0 14.999 6.716 14.999 15zm267.211 0c0-6.627-5.373-12-12-12 0 0-81.956-3-85.333-3h-67.835c-8.284 0-15 6.716-15 15s6.716 15 15 15h67.835c3.377 0 66.993-3 66.993-3 .404.416.887.768 1.441 1.031l11.172 5.308c2.494 1.185 5.477.124 6.662-2.371.624-1.314.625-2.764.121-4.015 6.132-.534 10.944-5.681 10.944-11.953z" fill="#bb5d4c"/><path d="m344.516 204.06c-.907.922-2.168 1.493-3.564 1.493h-22.308c-.804 0-1.595.064-2.368.187 2.028-1.078 4.31-1.68 6.708-1.68zm-93.081 79.997c-5.706-19.565-9.277-40.566-9.277-62.122 0-20.92 2.895-41.122 8.282-60.18h-82.392c-2.761 0-5 2.239-5 5v33.798c0 2.761 2.239 5 5 5h22.305c7.418 0 13.722 5.422 14.831 12.757l9.533 62.581 2.466 16.748h38.343c-1.513-4.456-2.733-8.924-4.091-13.582z" fill="#ffef31"/><path d="m345.952 166.755v33.798c0 2.761-2.239 5-5 5h-22.308c-7.417 0-13.72 5.42-14.831 12.753l-9.552 62.584-2.466 16.748h-39.081c-2.288-5.525-3.833-10.982-5.619-16.748-5.706-18.425-9.277-38.203-9.277-58.504 0-21.156 3.338-41.533 9.515-60.632h93.62c2.761.001 4.999 2.24 4.999 5.001z" fill="#fff261"/><path d="m328.831 105.498c0 15.668-12.702 28.37-28.37 28.37s-28.37-12.702-28.37-28.37 12.702-28.37 28.37-28.37 28.37 12.701 28.37 28.37z" fill="#883f2e"/><path d="m299.386 85.54c-.157.702-.329 1.403-.517 2.104l-5.887 21.969c-3.693 13.783-12.777 24.824-24.728 31.83v26.653c0 7.492-6.073 13.565-13.565 13.565h-2.771c-7.492 0-13.565-6.073-13.565-13.565v-18.266c-.52.014-1.04.022-1.562.024-1.825.005-3.622-.476-5.2-1.393-16.626-9.661-27.696-25.834-29.885-43.361l-3.092-.509c-4.563-.751-6.742-6.039-4.034-9.787l9.502-13.151 4.852-18.108c.188-.701.389-1.394.605-2.08 15.909-50.728 101.432-27.813 89.847 24.075z" fill="#bb5d4c"/><path d="m303.376 99.072v5.958c0 6.525-5.289 11.814-11.814 11.814h-1.11c-4.79 10.963-13.229 19.723-23.713 25.457-6.102 3.337-13.656 2.318-18.745-2.422-15.092-14.062-22.268-34.545-16.958-54.364l5.887-21.969c.188-.701.389-1.394.605-2.08 4.563-14.547 14.85-23.038 26.931-26.526 22.058 5.779 40.747 24.533 34.928 50.601-.157.702-.329 1.403-.517 2.104l-.479 1.787c3.017 2.139 4.985 5.66 4.985 9.64z" fill="#c96e59"/><path d="m242.335 48.541c0 11.239-9.111 20.351-20.351 20.351s-20.351-9.111-20.351-20.351c0-11.239 9.111-20.351 20.351-20.351s20.351 9.112 20.351 20.351z" fill="#6d3326"/><path d="m311.772 68.892c0 12.397-10.05 22.447-22.447 22.447-10.727 0-19.697-7.525-21.919-17.585-4.135-1.128-7.794-3.409-10.611-6.475-3.546 2.344-7.795 3.71-12.364 3.71-12.397 0-22.447-10.05-22.447-22.447s10.05-22.447 22.447-22.447c6.543 0 12.431 2.799 16.534 7.265 3.546-2.344 7.795-3.71 12.364-3.71 10.727 0 19.697 7.525 21.919 17.585 9.524 2.598 16.524 11.31 16.524 21.657z" fill="#883f2e"/><path d="m346.721 350.519 13.379 13.25c.714.707 1.169 1.575 1.367 2.488zm-98.077-62.877c0-1.759.019-3.513.058-5.262.018-.819-.636-1.49-1.455-1.49h-32.53c-3.27 7.963-8.269 15.099-14.635 20.893l-58.423 53.172c-2.029 1.846-2.191 4.982-.364 7.028l33.302 37.295c1.852 2.074 5.039 2.239 7.095.368l53.276-48.488c3.708-3.374 8.541-5.245 13.554-5.245 2.501 0 4.953.465 7.243 1.348.217.084.433-.104.375-.329-4.884-18.862-7.496-38.747-7.496-59.29z" fill="#54469d"/><path d="m360.1 363.769c1.969 1.95 1.976 5.129.017 7.088l-35.356 35.355c-1.946 1.946-5.099 1.953-7.054.017l-55.015-54.485c-2.021-2.002-4.422-3.532-7.032-4.521-5.676-18.382-8.733-37.913-8.733-58.158 0-2.738.056-5.463.167-8.173h47.167l4.457 13.321c2.884 8.621 7.752 16.444 14.211 22.841z" fill="#6354b2"/></g></svg>