<?xml version="1.0" encoding="UTF-8"?><svg id="Layer_2" xmlns="http://www.w3.org/2000/svg" viewBox="0 0 284.31 281.56"><defs><style>.cls-1{fill:none;stroke:#fff;stroke-linecap:round;stroke-linejoin:round;}</style></defs><g id="Layer_3"><line class="cls-1" x1="283.81" y1="141.21" x2="269.8" y2="141.17"/><line class="cls-1" x1="273.52" y1="144.92" x2="269.74" y2="144.8"/><line class="cls-1" x1="273.35" y1="148.64" x2="269.58" y2="148.42"/><line class="cls-1" x1="273.08" y1="152.37" x2="269.31" y2="152.04"/><line class="cls-1" x1="272.7" y1="156.08" x2="268.94" y2="155.64"/><line class="cls-1" x1="275.41" y1="160.24" x2="268.48" y2="159.24"/><line class="cls-1" x1="271.63" y1="163.47" x2="267.91" y2="162.82"/><line class="cls-1" x1="270.94" y1="167.13" x2="267.24" y2="166.38"/><line class="cls-1" x1="270.15" y1="170.78" x2="266.47" y2="169.92"/><line class="cls-1" x1="269.25" y1="174.4" x2="265.59" y2="173.44"/><line class="cls-1" x1="277.98" y1="181.11" x2="264.55" y2="177.13"/><line class="cls-1" x1="267.06" y1="181.76" x2="263.47" y2="180.58"/><line class="cls-1" x1="265.85" y1="185.29" x2="262.29" y2="184.01"/><line class="cls-1" x1="264.54" y1="188.79" x2="261.02" y2="187.4"/><line class="cls-1" x1="263.13" y1="192.24" x2="259.65" y2="190.76"/><line class="cls-1" x1="264.54" y1="197" x2="258.18" y2="194.07"/><line class="cls-1" x1="260" y1="199.02" x2="256.61" y2="197.34"/><line class="cls-1" x1="258.3" y1="202.34" x2="254.96" y2="200.56"/><line class="cls-1" x1="256.5" y1="205.61" x2="253.21" y2="203.74"/><line class="cls-1" x1="254.61" y1="208.83" x2="251.38" y2="206.87"/><line class="cls-1" x1="261.1" y1="217.74" x2="249.34" y2="210.12"/><line class="cls-1" x1="250.44" y1="215.28" x2="247.33" y2="213.13"/><line class="cls-1" x1="248.28" y1="218.32" x2="245.22" y2="216.08"/><line class="cls-1" x1="246.03" y1="221.3" x2="243.04" y2="218.98"/><line class="cls-1" x1="243.7" y1="224.22" x2="240.78" y2="221.82"/><line class="cls-1" x1="243.72" y1="229.19" x2="238.44" y2="224.59"/><line class="cls-1" x1="238.8" y1="229.85" x2="236.02" y2="227.28"/><line class="cls-1" x1="236.23" y1="232.55" x2="233.52" y2="229.91"/><line class="cls-1" x1="233.58" y1="235.19" x2="230.95" y2="232.47"/><line class="cls-1" x1="230.87" y1="237.75" x2="228.32" y2="234.96"/><line class="cls-1" x1="234.6" y1="248.12" x2="225.45" y2="237.51"/><line class="cls-1" x1="225.06" y1="242.77" x2="222.67" y2="239.84"/><line class="cls-1" x1="222.13" y1="245.08" x2="219.82" y2="242.08"/><line class="cls-1" x1="219.13" y1="247.31" x2="216.92" y2="244.25"/><line class="cls-1" x1="216.08" y1="249.46" x2="213.95" y2="246.34"/><line class="cls-1" x1="214.71" y1="254.23" x2="210.93" y2="248.34"/><line class="cls-1" x1="209.8" y1="253.49" x2="207.85" y2="250.25"/><line class="cls-1" x1="206.57" y1="255.37" x2="204.72" y2="252.07"/><line class="cls-1" x1="203.29" y1="257.15" x2="201.53" y2="253.8"/><line class="cls-1" x1="199.97" y1="258.84" x2="198.3" y2="255.45"/><line class="cls-1" x1="200.62" y1="269.84" x2="194.84" y2="257.09"/><line class="cls-1" x1="192.98" y1="262.03" x2="191.52" y2="258.54"/><line class="cls-1" x1="189.52" y1="263.42" x2="188.15" y2="259.89"/><line class="cls-1" x1="186.02" y1="264.71" x2="184.75" y2="261.14"/><line class="cls-1" x1="182.48" y1="265.9" x2="181.32" y2="262.3"/><line class="cls-1" x1="179.81" y1="270.09" x2="177.86" y2="263.36"/><line class="cls-1" x1="175.31" y1="267.98" x2="174.36" y2="264.33"/><line class="cls-1" x1="171.69" y1="268.87" x2="170.84" y2="265.19"/><line class="cls-1" x1="168.04" y1="269.66" x2="167.3" y2="265.95"/><line class="cls-1" x1="164.37" y1="270.33" x2="163.74" y2="266.61"/><line class="cls-1" x1="161.88" y1="281.06" x2="159.95" y2="267.19"/><line class="cls-1" x1="156.76" y1="271.4" x2="156.35" y2="267.64"/><line class="cls-1" x1="153.05" y1="271.75" x2="152.74" y2="267.99"/><line class="cls-1" x1="149.32" y1="272.01" x2="149.12" y2="268.23"/><line class="cls-1" x1="145.59" y1="272.16" x2="145.49" y2="268.38"/><line class="cls-1" x1="141.85" y1="275.43" x2="141.87" y2="268.43"/><line class="cls-1" x1="138.13" y1="272.15" x2="138.24" y2="268.37"/><line class="cls-1" x1="134.4" y1="271.99" x2="134.62" y2="268.21"/><line class="cls-1" x1="130.67" y1="271.71" x2="131" y2="267.95"/><line class="cls-1" x1="126.96" y1="271.34" x2="127.39" y2="267.58"/><line class="cls-1" x1="121.57" y1="280.94" x2="123.59" y2="267.09"/><line class="cls-1" x1="119.36" y1="270.24" x2="120.01" y2="266.51"/><line class="cls-1" x1="115.69" y1="269.55" x2="116.45" y2="265.84"/><line class="cls-1" x1="112.05" y1="268.75" x2="112.91" y2="265.07"/><line class="cls-1" x1="108.43" y1="267.84" x2="109.4" y2="264.19"/><line class="cls-1" x1="103.92" y1="269.92" x2="105.91" y2="263.21"/><line class="cls-1" x1="101.27" y1="265.72" x2="102.45" y2="262.13"/><line class="cls-1" x1="97.74" y1="264.51" x2="99.02" y2="260.95"/><line class="cls-1" x1="94.25" y1="263.2" x2="95.63" y2="259.68"/><line class="cls-1" x1="90.79" y1="261.8" x2="92.27" y2="258.32"/><line class="cls-1" x1="82.9" y1="269.48" x2="88.77" y2="256.76"/><line class="cls-1" x1="83.82" y1="258.58" x2="85.5" y2="255.19"/><line class="cls-1" x1="80.5" y1="256.87" x2="82.28" y2="253.53"/><line class="cls-1" x1="77.23" y1="255.07" x2="79.1" y2="251.79"/><line class="cls-1" x1="74.01" y1="253.18" x2="75.97" y2="249.95"/><line class="cls-1" x1="69.1" y1="253.91" x2="72.9" y2="248.03"/><line class="cls-1" x1="67.75" y1="249.13" x2="69.89" y2="246.01"/><line class="cls-1" x1="64.7" y1="246.96" x2="66.93" y2="243.91"/><line class="cls-1" x1="61.72" y1="244.72" x2="64.04" y2="241.73"/><line class="cls-1" x1="58.8" y1="242.4" x2="61.2" y2="239.47"/><line class="cls-1" x1="49.06" y1="247.55" x2="58.27" y2="237"/><line class="cls-1" x1="53.01" y1="237.35" x2="55.57" y2="234.57"/><line class="cls-1" x1="50.3" y1="234.78" x2="52.95" y2="232.07"/><line class="cls-1" x1="47.67" y1="232.13" x2="50.39" y2="229.5"/><line class="cls-1" x1="45.11" y1="229.41" x2="47.9" y2="226.86"/><line class="cls-1" x1="40.19" y1="228.73" x2="45.49" y2="224.16"/><line class="cls-1" x1="40.23" y1="223.77" x2="43.16" y2="221.38"/><line class="cls-1" x1="37.92" y1="220.84" x2="40.91" y2="218.53"/><line class="cls-1" x1="35.68" y1="217.85" x2="38.74" y2="215.63"/><line class="cls-1" x1="33.53" y1="214.79" x2="36.66" y2="212.66"/><line class="cls-1" x1="22.74" y1="217.01" x2="34.54" y2="209.47"/><line class="cls-1" x1="29.39" y1="208.33" x2="32.63" y2="206.39"/><line class="cls-1" x1="27.52" y1="205.1" x2="30.81" y2="203.25"/><line class="cls-1" x1="25.73" y1="201.82" x2="29.08" y2="200.06"/><line class="cls-1" x1="24.05" y1="198.49" x2="27.44" y2="196.83"/><line class="cls-1" x1="19.52" y1="196.45" x2="25.89" y2="193.56"/><line class="cls-1" x1="20.95" y1="191.7" x2="24.44" y2="190.24"/><line class="cls-1" x1="19.56" y1="188.24" x2="23.08" y2="186.88"/><line class="cls-1" x1="18.26" y1="184.74" x2="21.82" y2="183.48"/><line class="cls-1" x1="17.07" y1="181.21" x2="20.66" y2="180.05"/><line class="cls-1" x1="6.09" y1="180.28" x2="19.54" y2="176.38"/><line class="cls-1" x1="14.92" y1="173.83" x2="18.58" y2="172.89"/><line class="cls-1" x1="14.03" y1="170.21" x2="17.72" y2="169.37"/><line class="cls-1" x1="13.25" y1="166.56" x2="16.96" y2="165.82"/><line class="cls-1" x1="12.58" y1="162.89" x2="16.31" y2="162.26"/><line class="cls-1" x1="8.82" y1="159.65" x2="15.76" y2="158.68"/><line class="cls-1" x1="11.55" y1="155.5" x2="15.31" y2="155.08"/><line class="cls-1" x1="11.19" y1="151.78" x2="14.96" y2="151.47"/><line class="cls-1" x1="10.93" y1="148.06" x2="14.71" y2="147.85"/><line class="cls-1" x1="10.78" y1="144.33" x2="14.56" y2="144.23"/><line class="cls-1" x1=".5" y1="140.35" x2="14.5" y2="140.39"/><line class="cls-1" x1="10.78" y1="136.64" x2="14.56" y2="136.76"/><line class="cls-1" x1="10.96" y1="132.91" x2="14.73" y2="133.14"/><line class="cls-1" x1="11.23" y1="129.19" x2="15" y2="129.52"/><line class="cls-1" x1="11.61" y1="125.48" x2="15.36" y2="125.91"/><line class="cls-1" x1="8.9" y1="121.32" x2="15.83" y2="122.32"/><line class="cls-1" x1="12.68" y1="118.09" x2="16.4" y2="118.74"/><line class="cls-1" x1="13.37" y1="114.42" x2="17.07" y2="115.18"/><line class="cls-1" x1="14.16" y1="110.78" x2="17.84" y2="111.64"/><line class="cls-1" x1="15.06" y1="107.16" x2="18.72" y2="108.12"/><line class="cls-1" x1="6.33" y1="100.45" x2="19.76" y2="104.43"/><line class="cls-1" x1="17.25" y1="99.8" x2="20.84" y2="100.97"/><line class="cls-1" x1="18.46" y1="96.27" x2="22.02" y2="97.55"/><line class="cls-1" x1="19.77" y1="92.77" x2="23.29" y2="94.16"/><line class="cls-1" x1="21.18" y1="89.32" x2="24.66" y2="90.8"/><line class="cls-1" x1="19.77" y1="84.56" x2="26.13" y2="87.49"/><line class="cls-1" x1="24.31" y1="82.54" x2="27.69" y2="84.22"/><line class="cls-1" x1="26.01" y1="79.22" x2="29.35" y2="80.99"/><line class="cls-1" x1="27.81" y1="75.95" x2="31.09" y2="77.82"/><line class="cls-1" x1="29.69" y1="72.73" x2="32.93" y2="74.69"/><line class="cls-1" x1="23.21" y1="63.82" x2="34.96" y2="71.44"/><line class="cls-1" x1="33.87" y1="66.28" x2="36.98" y2="68.43"/><line class="cls-1" x1="36.03" y1="63.24" x2="39.08" y2="65.47"/><line class="cls-1" x1="38.28" y1="60.26" x2="41.27" y2="62.58"/><line class="cls-1" x1="40.61" y1="57.34" x2="43.53" y2="59.74"/><line class="cls-1" x1="40.58" y1="52.37" x2="45.86" y2="56.97"/><line class="cls-1" x1="45.51" y1="51.71" x2="48.29" y2="54.27"/><line class="cls-1" x1="48.08" y1="49.01" x2="50.79" y2="51.65"/><line class="cls-1" x1="50.72" y1="46.37" x2="53.35" y2="49.09"/><line class="cls-1" x1="53.44" y1="43.81" x2="55.99" y2="46.6"/><line class="cls-1" x1="49.71" y1="33.44" x2="58.86" y2="44.05"/><line class="cls-1" x1="59.25" y1="38.79" x2="61.64" y2="41.72"/><line class="cls-1" x1="62.18" y1="36.48" x2="64.48" y2="39.47"/><line class="cls-1" x1="65.17" y1="34.25" x2="67.39" y2="37.31"/><line class="cls-1" x1="68.23" y1="32.1" x2="70.36" y2="35.22"/><line class="cls-1" x1="69.6" y1="27.32" x2="73.38" y2="33.22"/><line class="cls-1" x1="74.51" y1="28.07" x2="76.46" y2="31.31"/><line class="cls-1" x1="77.74" y1="26.19" x2="79.59" y2="29.49"/><line class="cls-1" x1="81.01" y1="24.41" x2="82.78" y2="27.75"/><line class="cls-1" x1="84.34" y1="22.72" x2="86.01" y2="26.11"/><line class="cls-1" x1="83.69" y1="11.72" x2="89.47" y2="24.47"/><line class="cls-1" x1="91.33" y1="19.53" x2="92.79" y2="23.02"/><line class="cls-1" x1="94.79" y1="18.14" x2="96.15" y2="21.67"/><line class="cls-1" x1="98.29" y1="16.85" x2="99.55" y2="20.42"/><line class="cls-1" x1="101.83" y1="15.66" x2="102.99" y2="19.26"/><line class="cls-1" x1="104.5" y1="11.47" x2="106.45" y2="18.2"/><line class="cls-1" x1="108.99" y1="13.57" x2="109.94" y2="17.23"/><line class="cls-1" x1="112.62" y1="12.68" x2="113.46" y2="16.37"/><line class="cls-1" x1="116.27" y1="11.9" x2="117.01" y2="15.61"/><line class="cls-1" x1="119.94" y1="11.23" x2="120.57" y2="14.95"/><line class="cls-1" x1="122.43" y1=".5" x2="124.36" y2="14.37"/><line class="cls-1" x1="127.54" y1="10.16" x2="127.96" y2="13.92"/><line class="cls-1" x1="131.26" y1="9.8" x2="131.57" y2="13.57"/><line class="cls-1" x1="134.98" y1="9.55" x2="135.19" y2="13.32"/><line class="cls-1" x1="138.71" y1="9.4" x2="138.81" y2="13.18"/><line class="cls-1" x1="142.45" y1="6.13" x2="142.44" y2="13.13"/><line class="cls-1" x1="146.18" y1="9.41" x2="146.07" y2="13.18"/><line class="cls-1" x1="149.91" y1="9.57" x2="149.69" y2="13.35"/><line class="cls-1" x1="153.63" y1="9.85" x2="153.31" y2="13.61"/><line class="cls-1" x1="157.35" y1="10.22" x2="156.92" y2="13.98"/><line class="cls-1" x1="162.74" y1=".62" x2="160.72" y2="14.47"/><line class="cls-1" x1="164.95" y1="11.32" x2="164.3" y2="15.04"/><line class="cls-1" x1="168.61" y1="12.01" x2="167.86" y2="15.72"/><line class="cls-1" x1="172.26" y1="12.81" x2="171.4" y2="16.49"/><line class="cls-1" x1="175.88" y1="13.72" x2="174.91" y2="17.37"/><line class="cls-1" x1="180.39" y1="11.64" x2="178.4" y2="18.35"/><line class="cls-1" x1="183.03" y1="15.84" x2="181.86" y2="19.43"/><line class="cls-1" x1="186.56" y1="17.05" x2="185.29" y2="20.61"/><line class="cls-1" x1="190.06" y1="18.36" x2="188.68" y2="21.88"/><line class="cls-1" x1="193.52" y1="19.76" x2="192.04" y2="23.24"/><line class="cls-1" x1="201.41" y1="12.08" x2="195.54" y2="24.8"/><line class="cls-1" x1="200.49" y1="22.98" x2="198.81" y2="26.37"/><line class="cls-1" x1="203.81" y1="24.69" x2="202.03" y2="28.02"/><line class="cls-1" x1="207.08" y1="26.49" x2="205.21" y2="29.77"/><line class="cls-1" x1="210.3" y1="28.38" x2="208.33" y2="31.61"/><line class="cls-1" x1="215.21" y1="27.65" x2="211.41" y2="33.53"/><line class="cls-1" x1="216.56" y1="32.43" x2="214.42" y2="35.55"/><line class="cls-1" x1="219.6" y1="34.59" x2="217.37" y2="37.65"/><line class="cls-1" x1="222.59" y1="36.84" x2="220.27" y2="39.83"/><line class="cls-1" x1="225.51" y1="39.16" x2="223.11" y2="42.09"/><line class="cls-1" x1="235.25" y1="34.01" x2="226.04" y2="44.56"/><line class="cls-1" x1="231.3" y1="44.21" x2="228.74" y2="46.99"/><line class="cls-1" x1="234" y1="46.78" x2="231.36" y2="49.48"/><line class="cls-1" x1="236.64" y1="49.43" x2="233.92" y2="52.06"/><line class="cls-1" x1="239.2" y1="52.14" x2="236.41" y2="54.7"/><line class="cls-1" x1="244.12" y1="52.83" x2="238.82" y2="57.4"/><line class="cls-1" x1="244.08" y1="57.79" x2="241.15" y2="60.18"/><line class="cls-1" x1="246.39" y1="60.72" x2="243.4" y2="63.03"/><line class="cls-1" x1="248.62" y1="63.71" x2="245.56" y2="65.93"/><line class="cls-1" x1="250.77" y1="66.76" x2="247.65" y2="68.9"/><line class="cls-1" x1="261.57" y1="64.55" x2="249.77" y2="72.09"/><line class="cls-1" x1="254.92" y1="73.23" x2="251.68" y2="75.17"/><line class="cls-1" x1="256.79" y1="76.46" x2="253.5" y2="78.31"/><line class="cls-1" x1="258.57" y1="79.74" x2="255.23" y2="81.49"/><line class="cls-1" x1="260.26" y1="83.06" x2="256.87" y2="84.73"/><line class="cls-1" x1="264.79" y1="85.1" x2="258.42" y2="88"/><line class="cls-1" x1="263.36" y1="89.85" x2="259.87" y2="91.32"/><line class="cls-1" x1="264.75" y1="93.32" x2="261.23" y2="94.68"/><line class="cls-1" x1="266.05" y1="96.82" x2="262.48" y2="98.08"/><line class="cls-1" x1="267.24" y1="100.35" x2="263.64" y2="101.51"/><line class="cls-1" x1="278.22" y1="101.28" x2="264.77" y2="105.18"/><line class="cls-1" x1="269.39" y1="107.72" x2="265.73" y2="108.67"/><line class="cls-1" x1="270.27" y1="111.35" x2="266.59" y2="112.19"/><line class="cls-1" x1="271.05" y1="115" x2="267.35" y2="115.73"/><line class="cls-1" x1="271.73" y1="118.67" x2="268" y2="119.3"/><line class="cls-1" x1="275.48" y1="121.91" x2="268.55" y2="122.88"/><line class="cls-1" x1="272.76" y1="126.06" x2="269" y2="126.48"/><line class="cls-1" x1="273.12" y1="129.78" x2="269.35" y2="130.09"/><line class="cls-1" x1="273.38" y1="133.5" x2="269.6" y2="133.71"/><line class="cls-1" x1="273.53" y1="137.23" x2="269.75" y2="137.33"/></g></svg>