<?xml version="1.0" encoding="UTF-8"?><svg id="Layer_2" xmlns="http://www.w3.org/2000/svg" xmlns:xlink="http://www.w3.org/1999/xlink" viewBox="0 0 323.66 323.66"><defs><style>.cls-1{fill:none;stroke:#e2d7da;stroke-dasharray:4 10.01;stroke-linecap:round;stroke-linejoin:round;}.cls-2{fill:#be9a00;}.cls-3{fill:#745d00;}.cls-4{fill:url(#Degradado_sin_nombre_27-4);}.cls-5{fill:url(#Degradado_sin_nombre_27-2);}.cls-6{fill:url(#Degradado_sin_nombre_27-3);}.cls-7{fill:#fff;}.cls-8{opacity:.9;}.cls-9{fill:url(#Degradado_sin_nombre_36);}.cls-10{fill:url(#Degradado_sin_nombre_27);}.cls-11{fill:url(#Degradado_sin_nombre_39);}</style><linearGradient id="Degradado_sin_nombre_27" x1="320.72" y1="2423.87" x2="325.18" y2="2423.87" gradientTransform="translate(-160.62 -2262.21)" gradientUnits="userSpaceOnUse"><stop offset="0" stop-color="#be9a00"/><stop offset=".24" stop-color="#f4dd32"/><stop offset=".75" stop-color="#be9a00"/></linearGradient><linearGradient id="Degradado_sin_nombre_27-2" x1="-5975.29" y1="5834.34" x2="-5970.83" y2="5834.34" gradientTransform="translate(6135.12 -5672.52)" xlink:href="#Degradado_sin_nombre_27"/><linearGradient id="Degradado_sin_nombre_27-3" x1="-12837.32" y1="3792.05" x2="-12832.86" y2="3792.05" gradientTransform="translate(12997.8 -3629.94)" xlink:href="#Degradado_sin_nombre_27"/><linearGradient id="Degradado_sin_nombre_27-4" x1="-16247" y1="-2503.21" x2="-16242.54" y2="-2503.21" gradientTransform="translate(16406.66 2664.79)" xlink:href="#Degradado_sin_nombre_27"/><linearGradient id="Degradado_sin_nombre_36" x1="227.81" y1="2423.5" x2="419.02" y2="2423.5" gradientTransform="translate(-816.24 -2079.32) rotate(-16)" gradientUnits="userSpaceOnUse"><stop offset=".03" stop-color="#be9a00"/><stop offset=".24" stop-color="#f4dd32"/><stop offset=".75" stop-color="#be9a00"/><stop offset="1" stop-color="#745d00"/></linearGradient><linearGradient id="Degradado_sin_nombre_39" x1="309.01" y1="2448.01" x2="336.89" y2="2399.72" gradientTransform="translate(-816.24 -2079.32) rotate(-16)" gradientUnits="userSpaceOnUse"><stop offset=".03" stop-color="#be9a00"/><stop offset=".39" stop-color="#f4dd32"/><stop offset="1" stop-color="#be9a00"/></linearGradient></defs><g id="Layer_3"><path class="cls-7" d="M164.14,248.94l-.03-1c.66-.02,1.32-.05,1.98-.09l.05,1c-.67.04-1.34.07-2,.09ZM154.13,248.71c-.66-.05-1.33-.11-2-.18l.1-.99c.66.07,1.32.13,1.97.18l-.08.99ZM176.09,247.73l-.17-.98c.65-.11,1.3-.23,1.95-.36l.19.98c-.65.13-1.32.25-1.97.36ZM142.25,246.92c-.65-.14-1.31-.3-1.95-.46l.24-.97c.64.16,1.29.31,1.93.45l-.22.97ZM187.76,244.89l-.3-.95c.62-.2,1.26-.41,1.88-.62l.32.94c-.63.22-1.27.43-1.9.63ZM130.72,243.51c-.63-.23-1.26-.48-1.88-.72l.37-.93c.61.24,1.23.48,1.85.72l-.35.93ZM198.93,240.46l-.43-.9c.59-.28,1.19-.58,1.77-.87l.45.89c-.59.3-1.19.6-1.79.88ZM119.77,238.54c-.59-.32-1.18-.64-1.76-.97l.49-.87c.57.33,1.16.65,1.73.96l-.47.88ZM209.37,234.53l-.55-.83c.54-.36,1.09-.73,1.64-1.11l.57.82c-.55.38-1.11.76-1.66,1.12ZM109.62,232.11c-.54-.39-1.08-.8-1.6-1.21l.61-.79c.52.4,1.05.8,1.58,1.19l-.59.8ZM218.91,227.23l-.66-.75c.5-.44.99-.88,1.47-1.33l.68.73c-.48.45-.99.9-1.49,1.34ZM100.44,224.35c-.48-.47-.96-.94-1.42-1.41l.71-.7c.46.47.93.94,1.41,1.4l-.69.72ZM227.36,218.7l-.75-.65c.43-.49.86-1,1.28-1.52l.77.63c-.43.52-.86,1.03-1.29,1.53ZM92.41,215.42c-.41-.52-.82-1.06-1.22-1.59l.8-.6c.39.53.8,1.05,1.2,1.57l-.78.61ZM234.57,209.08l-.84-.54c.36-.55.72-1.12,1.06-1.68l.85.52c-.35.57-.71,1.14-1.07,1.7ZM85.68,205.47c-.33-.57-.66-1.16-.98-1.74l.87-.48c.32.58.64,1.15.97,1.72l-.86.5ZM240.39,198.57l-.9-.42c.28-.6.55-1.21.82-1.81l.91.4c-.27.61-.55,1.23-.83,1.83ZM80.38,194.7c-.25-.62-.5-1.25-.74-1.86l.93-.36c.23.61.48,1.23.73,1.84l-.92.38ZM244.71,187.35l-.95-.29c.19-.63.38-1.27.56-1.9l.96.27c-.18.64-.37,1.29-.57,1.92ZM76.61,183.29c-.16-.64-.32-1.3-.47-1.95l.97-.22c.15.64.3,1.29.47,1.93l-.97.25ZM247.43,175.65l-.98-.16c.1-.64.2-1.3.29-1.96l.99.14c-.09.66-.19,1.33-.3,1.98ZM74.46,171.47c-.07-.66-.14-1.33-.2-1.99l.99-.09c.06.66.12,1.32.2,1.97l-.99.11ZM248.52,163.68l-1-.02c.01-.66.02-1.32.02-1.98h1c0,.67,0,1.34-.02,2ZM74.94,159.5l-1-.02c.02-.66.04-1.34.07-2l1,.05c-.03.66-.06,1.32-.07,1.98ZM247.37,156.14c-.04-.66-.09-1.32-.15-1.98l.99-.09c.06.66.11,1.33.15,2l-.99.06ZM76.05,147.67l-.98-.16c.11-.66.22-1.32.35-1.97l.98.18c-.12.64-.24,1.3-.34,1.95ZM245.81,144.36c-.13-.65-.27-1.3-.42-1.94l.97-.22c.15.65.29,1.31.42,1.96l-.98.2ZM78.76,136.11l-.95-.29c.2-.64.4-1.28.62-1.91l.94.32c-.21.63-.42,1.26-.61,1.89ZM242.64,132.92c-.22-.62-.45-1.25-.68-1.86l.93-.35c.23.62.47,1.25.69,1.88l-.94.33ZM83.06,125.03l-.9-.42c.28-.61.58-1.21.87-1.81l.89.44c-.29.59-.58,1.19-.86,1.79ZM237.92,122.02c-.3-.59-.62-1.17-.93-1.74l.87-.48c.32.58.63,1.17.94,1.76l-.88.46ZM88.84,114.64l-.84-.54c.36-.56.74-1.12,1.11-1.67l.82.56c-.37.54-.74,1.1-1.1,1.65ZM231.75,111.88c-.38-.54-.77-1.08-1.16-1.6l.8-.59c.39.53.79,1.07,1.17,1.62l-.81.58ZM95.99,105.16l-.75-.65c.43-.5.88-1.01,1.33-1.5l.74.67c-.44.49-.89.99-1.32,1.48ZM224.24,102.68c-.45-.48-.91-.96-1.37-1.43l.71-.7c.47.47.93.96,1.39,1.45l-.73.68ZM104.37,96.74l-.66-.75c.5-.44,1.01-.87,1.52-1.3l.64.76c-.51.42-1.01.86-1.5,1.29ZM215.55,94.59c-.51-.42-1.04-.83-1.55-1.23l.61-.79c.52.4,1.05.82,1.57,1.24l-.63.77ZM113.82,89.54l-.55-.83c.56-.37,1.12-.73,1.68-1.08l.53.84c-.56.35-1.11.71-1.66,1.07ZM205.83,87.76c-.56-.34-1.14-.68-1.71-1.01l.5-.86c.58.33,1.16.67,1.73,1.02l-.52.85ZM124.15,83.71l-.43-.9c.6-.28,1.21-.57,1.81-.84l.41.91c-.6.27-1.2.55-1.79.83ZM195.26,82.33c-.61-.26-1.22-.52-1.83-.76l.37-.92c.62.25,1.24.51,1.86.77l-.39.92ZM135.2,79.36l-.3-.95c.64-.2,1.28-.4,1.92-.58l.28.96c-.63.18-1.27.38-1.9.57ZM184.04,78.41c-.63-.17-1.28-.34-1.92-.5l.24-.97c.65.16,1.3.33,1.94.51l-.26.96ZM146.74,76.57l-.17-.98c.66-.11,1.32-.22,1.98-.31l.14.99c-.65.09-1.31.2-1.96.31ZM172.39,76.08c-.65-.08-1.32-.16-1.97-.23l.1-.99c.66.07,1.33.15,1.99.23l-.13.99ZM158.56,75.4l-.03-1c.67-.02,1.34-.03,2-.04v1c-.65,0-1.31.02-1.97.04Z"/><path class="cls-7" d="M163.94,214.06l-.02-.6c.4-.01.79-.03,1.19-.05l.03.6c-.4.02-.8.04-1.2.05ZM157.93,213.92c-.4-.03-.8-.07-1.2-.11l.06-.59c.39.04.79.08,1.18.11l-.05.6ZM171.11,213.33l-.1-.59c.39-.07.78-.14,1.17-.21l.11.59c-.39.08-.79.15-1.18.22ZM150.8,212.84c-.39-.09-.78-.18-1.17-.27l.14-.58c.38.09.77.18,1.16.27l-.13.58ZM178.12,211.62l-.18-.57c.38-.12.75-.25,1.13-.37l.19.57c-.38.13-.76.26-1.14.38ZM143.88,210.8c-.38-.14-.75-.29-1.13-.43l.22-.56c.37.15.74.29,1.11.43l-.21.56ZM184.82,208.96l-.26-.54c.36-.17.71-.35,1.06-.53l.27.53c-.36.18-.71.36-1.08.53ZM137.31,207.81c-.35-.19-.7-.39-1.05-.59l.3-.52c.34.2.69.39,1.04.58l-.28.53ZM191.09,205.41l-.33-.5c.33-.22.66-.44.98-.67l.34.49c-.33.23-.66.45-.99.67ZM131.21,203.95c-.32-.24-.64-.48-.96-.72l.36-.47c.31.24.63.48.95.72l-.35.48ZM196.81,201.03l-.4-.45c.3-.26.59-.53.88-.8l.41.44c-.29.27-.59.54-.89.81ZM125.7,199.3c-.29-.28-.57-.56-.85-.85l.43-.42c.28.28.56.56.84.84l-.42.43ZM201.88,195.9l-.45-.39c.26-.3.51-.6.77-.91l.46.38c-.26.31-.51.62-.78.92ZM120.88,193.93c-.25-.32-.49-.63-.73-.95l.48-.36c.24.32.48.63.72.94l-.47.37ZM206.21,190.13l-.5-.33c.22-.33.43-.67.64-1.01l.51.31c-.21.34-.43.68-.64,1.02ZM116.84,187.97c-.2-.35-.4-.69-.59-1.04l.52-.29c.19.35.39.69.58,1.03l-.52.3ZM209.71,183.82l-.54-.25c.17-.36.33-.72.49-1.09l.55.24c-.16.37-.33.73-.5,1.1ZM113.66,181.5c-.15-.37-.3-.74-.44-1.12l.56-.21c.14.37.29.74.44,1.11l-.55.23ZM212.3,177.09l-.57-.18c.12-.38.23-.76.34-1.14l.58.16c-.11.39-.22.77-.34,1.15ZM111.4,174.65c-.1-.39-.19-.78-.28-1.17l.58-.13c.09.39.18.77.28,1.16l-.58.15ZM213.93,170.06l-.59-.09c.06-.39.12-.78.18-1.18l.59.08c-.05.4-.11.79-.18,1.19ZM110.11,167.56c-.04-.4-.08-.8-.12-1.2l.6-.05c.04.4.07.79.12,1.18l-.59.07ZM214.59,162.88h-.6c0-.41.01-.81.01-1.2h.6c0,.4,0,.8-.01,1.2ZM110.4,160.37h-.6c0-.42.02-.82.04-1.22l.6.03c-.02.4-.03.79-.04,1.19ZM213.9,158.35c-.03-.4-.05-.79-.09-1.19l.6-.05c.03.4.06.8.09,1.2l-.6.04ZM111.06,153.27l-.59-.1c.06-.4.13-.79.21-1.19l.59.11c-.07.39-.14.78-.2,1.17ZM212.96,151.29c-.08-.39-.16-.78-.25-1.16l.58-.13c.09.39.17.78.25,1.18l-.59.12ZM112.69,146.33l-.57-.18c.12-.38.24-.77.37-1.15l.57.19c-.13.38-.25.76-.37,1.14ZM211.06,144.42c-.13-.37-.27-.75-.41-1.12l.56-.21c.14.37.28.75.41,1.13l-.56.2ZM115.27,139.68l-.54-.25c.17-.36.35-.73.53-1.09l.54.27c-.18.36-.35.71-.52,1.07ZM208.22,137.87c-.18-.35-.37-.7-.56-1.05l.52-.29c.19.35.38.7.56,1.06l-.53.28ZM118.74,133.45l-.5-.33c.22-.34.44-.67.67-1l.49.34c-.22.33-.44.66-.66.99ZM204.52,131.79c-.23-.32-.46-.64-.7-.96l.48-.36c.24.32.47.65.7.97l-.49.35ZM123.03,127.75l-.45-.39c.26-.3.53-.6.8-.9l.44.4c-.27.29-.53.59-.79.89ZM200.01,126.27c-.27-.29-.55-.58-.82-.86l.43-.42c.28.29.56.58.83.87l-.44.41ZM128.06,122.7l-.39-.45c.3-.26.61-.52.91-.78l.38.46c-.3.25-.6.51-.9.77ZM194.8,121.41c-.31-.25-.62-.5-.93-.74l.37-.47c.32.25.63.49.94.75l-.38.46ZM133.73,118.38l-.33-.5c.33-.22.67-.44,1.01-.65l.32.51c-.34.21-.67.42-1,.64ZM188.96,117.31c-.34-.21-.68-.41-1.03-.6l.3-.52c.35.2.69.4,1.04.61l-.31.51ZM139.94,114.88l-.26-.54c.36-.17.72-.34,1.09-.5l.24.55c-.36.16-.72.33-1.08.5ZM182.62,114.05c-.37-.16-.73-.31-1.1-.46l.22-.56c.37.15.74.3,1.11.46l-.24.55ZM146.57,112.27l-.18-.57c.38-.12.77-.24,1.15-.35l.17.57c-.38.11-.76.23-1.14.35ZM175.88,111.7c-.38-.1-.77-.2-1.15-.3l.14-.58c.39.1.78.2,1.16.3l-.16.58ZM153.5,110.59l-.1-.59c.39-.07.79-.13,1.19-.19l.09.59c-.39.06-.78.12-1.17.18ZM168.89,110.3c-.39-.05-.79-.1-1.18-.14l.06-.59c.4.04.8.09,1.19.14l-.08.59ZM160.59,109.89l-.02-.6c.4-.01.8-.02,1.2-.02v.6c-.39,0-.79.01-1.18.02Z"/><path class="cls-7" d="M145.15,44.97h32.52l9.64,27.11c6.95,1.98,13.67,4.76,20,8.29l26-12.36,22.99,22.99-12.36,26c3.53,6.33,6.31,13.05,8.29,20l27.11,9.64v32.52l-27.11,9.64c-1.98,6.95-4.77,13.67-8.29,20l12.36,26-22.99,22.99-26-12.36c-6.33,3.53-13.05,6.31-20,8.29l-9.64,27.11h-32.52l-9.64-27.11c-6.95-1.98-13.67-4.76-20-8.29l-26,12.36-22.99-22.99.52-1.09,11.84-24.91c-3.52-6.32-6.31-13.04-8.29-20l-27.11-9.64v-32.52l27.11-9.64c1.98-6.95,4.77-13.67,8.29-20l-12.36-26,.85-.85,22.14-22.14,1.09.52,24.91,11.84c6.33-3.52,13.05-6.31,20-8.29l9.64-27.11ZM175.74,47.7h-28.66l-9.47,26.63-.68.19c-7.21,1.99-14.16,4.88-20.68,8.57l-.62.35-25.54-12.14-20.27,20.27,12.14,25.54-.35.62c-3.7,6.51-6.58,13.47-8.57,20.68l-.19.68-26.63,9.47v28.66l26.63,9.47.19.68c1.99,7.21,4.88,14.17,8.57,20.68l.35.62-12.14,25.54,20.27,20.27,25.54-12.14.62.35c6.52,3.7,13.48,6.58,20.68,8.57l.68.19,9.47,26.63h28.66l9.47-26.63.68-.19c7.2-1.99,14.16-4.88,20.68-8.57l.62-.35,25.54,12.14,20.27-20.27-12.14-25.54.35-.62c3.7-6.52,6.58-13.48,8.57-20.68l.19-.68,26.63-9.47v-28.66l-26.63-9.47-.19-.68c-1.99-7.21-4.88-14.16-8.57-20.68l-.35-.62,12.14-25.54-20.27-20.27-25.54,12.14-.62-.35c-6.52-3.7-13.48-6.58-20.68-8.57l-.68-.19-9.47-26.63ZM161.41,81.06c21.86,0,42.41,8.51,57.87,23.97,15.46,15.46,23.97,36.01,23.97,57.87s-8.51,42.41-23.97,57.87c-15.46,15.46-36.01,23.97-57.87,23.97s-42.41-8.51-57.87-23.97c-15.46-15.46-23.97-36.01-23.97-57.87s8.51-42.41,23.97-57.87c15.46-15.46,36.01-23.97,57.87-23.97ZM161.41,242.01c21.13,0,41-8.23,55.94-23.17,14.94-14.94,23.17-34.81,23.17-55.94s-8.23-41-23.17-55.94c-14.94-14.94-34.81-23.17-55.94-23.17s-41,8.23-55.94,23.17h0c-14.94,14.94-23.17,34.81-23.17,55.94s8.23,41,23.17,55.94c14.94,14.94,34.81,23.17,55.94,23.17Z"/><rect class="cls-10" x="160.01" y="85.37" width="4.45" height="152.74" transform="translate(-38.3 50.98) rotate(-16)"/><rect class="cls-5" x="160.01" y="85.37" width="4.45" height="152.74" transform="translate(-57.88 225.21) rotate(-61)"/><rect class="cls-6" x="160.01" y="85.37" width="4.45" height="152.74" transform="translate(51.48 362.26) rotate(-106)"/><rect class="cls-4" x="160.01" y="85.37" width="4.45" height="152.74" transform="translate(225.71 381.85) rotate(-151)"/><path class="cls-9" d="M231.37,129.03c-5.13-10.86-12.67-20.08-21.72-27.22l7.34-19.35-16.54-9.16-12.52,16.51c-10.85-3.89-22.67-5.41-34.59-4l-8.49-18.95-18.16,5.21,2.84,20.57c-10.86,5.13-20.09,12.65-27.23,21.69l-19.35-7.36-9.16,16.53,16.51,12.51c-3.89,10.85-5.01,22.55-3.6,34.48l-18.55,8.38,5.21,18.16,20.17-2.73c5.13,10.86,12.45,20.14,21.49,27.28l-7.46,19.38,16.48,9.17,12.49-16.5c10.85,3.89,22.55,5.06,34.48,3.65l8.38,18.6,18.16-5.21-2.74-20.22c10.86-5.13,20.14-12.47,27.28-21.52l19.38,7.44,9.17-16.49-16.5-12.49c3.89-10.85,5.46-22.67,4.05-34.6l19-8.49-5.21-18.16-20.62,2.86ZM180.46,225.31c-35.11,10.07-71.73-10.23-81.8-45.35-10.07-35.11,10.23-71.73,45.35-81.8,35.11-10.07,71.73,10.23,81.8,45.35,10.07,35.11-10.23,71.73-45.35,81.8Z"/><path class="cls-11" d="M154.55,134.94c-14.8,4.24-23.36,19.68-19.12,34.48,4.24,14.8,19.68,23.36,34.48,19.12,14.8-4.24,23.36-19.68,19.12-34.48-4.24-14.8-19.68-23.36-34.48-19.12ZM165.65,173.65c-6.58,1.89-13.44-1.92-15.33-8.5-1.89-6.58,1.92-13.44,8.5-15.33,6.58-1.89,13.44,1.92,15.33,8.5,1.89,6.58-1.92,13.44-8.5,15.33Z"/><path class="cls-2" d="M145.5,82.32c.88,3.08-.9,6.29-3.98,7.18-3.08.88-6.29-.9-7.18-3.98-.88-3.08.9-6.29,3.98-7.18,3.08-.88,6.29.9,7.18,3.98Z"/><path class="cls-3" d="M138.32,78.34c3.08-.88,6.29.9,7.18,3.98.88,3.08-.9,6.29-3.98,7.18"/><circle class="cls-2" cx="91.43" cy="122.49" r="5.8"/><path class="cls-3" d="M86.35,119.67c1.55-2.8,5.08-3.81,7.89-2.26,2.8,1.55,3.81,5.08,2.26,7.89"/><path class="cls-2" d="M82.81,178.47c3.08-.88,6.29.9,7.18,3.98.88,3.08-.9,6.29-3.98,7.18-3.08.88-6.29-.9-7.18-3.98-.88-3.08.9-6.29,3.98-7.18Z"/><path class="cls-3" d="M78.83,185.65c-.88-3.08.9-6.29,3.98-7.18,3.08-.88,6.29.9,7.18,3.98"/><circle class="cls-2" cx="122.98" cy="232.54" r="5.8"/><path class="cls-3" d="M120.17,237.62c-2.8-1.55-3.81-5.08-2.26-7.89,1.55-2.8,5.08-3.81,7.89-2.26"/><path class="cls-2" d="M178.97,241.16c-.88-3.08.9-6.29,3.98-7.18,3.08-.88,6.29.9,7.18,3.98.88,3.08-.9,6.29-3.98,7.18-3.08.88-6.29-.9-7.18-3.98Z"/><path class="cls-3" d="M186.14,245.13c-3.08.88-6.29-.9-7.18-3.98-.88-3.08.9-6.29,3.98-7.18"/><path class="cls-2" d="M230.23,206.06c-2.8-1.55-3.81-5.08-2.26-7.89,1.55-2.8,5.08-3.81,7.89-2.26,2.8,1.55,3.81,5.08,2.26,7.89-1.55,2.8-5.08,3.81-7.89,2.26Z"/><path class="cls-3" d="M238.11,203.8c-1.55,2.8-5.08,3.81-7.89,2.26-2.8-1.55-3.81-5.08-2.26-7.89"/><path class="cls-2" d="M241.65,145c-3.08.88-6.29-.9-7.18-3.98-.88-3.08.9-6.29,3.98-7.18,3.08-.88,6.29.9,7.18,3.98.88,3.08-.9,6.29-3.98,7.18Z"/><path class="cls-3" d="M245.63,137.82c.88,3.08-.9,6.29-3.98,7.18-3.08.88-6.29-.9-7.18-3.98"/><path class="cls-2" d="M206.56,93.74c-1.55,2.8-5.08,3.81-7.89,2.26-2.8-1.55-3.81-5.08-2.26-7.89,1.55-2.8,5.08-3.81,7.89-2.26,2.8,1.55,3.81,5.08,2.26,7.89Z"/><path class="cls-3" d="M204.3,85.86c2.8,1.55,3.81,5.08,2.26,7.89-1.55,2.8-5.08,3.81-7.89,2.26"/><g class="cls-8"><rect class="cls-7" x="158.98" y="88.45" width="4.27" height="146.33" transform="translate(-38.31 50.67) rotate(-16)"/><rect class="cls-7" x="158.98" y="88.45" width="4.27" height="146.33" transform="translate(-58.35 224.18) rotate(-61)"/><rect class="cls-7" x="158.98" y="88.45" width="4.27" height="146.33" transform="translate(50.17 361.04) rotate(-106)"/><rect class="cls-7" x="158.98" y="88.45" width="4.27" height="146.33" transform="translate(223.67 381.08) rotate(-151)"/><path class="cls-7" d="M227.35,130.28c-4.91-10.41-12.14-19.24-20.81-26.08l7.04-18.54-15.84-8.77-11.99,15.82c-10.39-3.72-21.71-5.18-33.14-3.83l-8.13-18.15-17.4,4.99,2.72,19.7c-10.41,4.91-19.24,12.12-26.08,20.78l-18.54-7.05-8.77,15.84,15.81,11.99c-3.72,10.39-4.8,21.6-3.45,33.03l-17.77,8.02,4.99,17.4,19.32-2.61c4.91,10.41,11.93,19.3,20.59,26.14l-7.14,18.57,15.79,8.79,11.96-15.81c10.39,3.72,21.6,4.85,33.03,3.5l8.03,17.82,17.4-4.99-2.63-19.37c10.41-4.91,19.29-11.95,26.13-20.61l18.56,7.13,8.78-15.79-15.81-11.97c3.72-10.39,5.23-21.72,3.88-33.14l18.2-8.14-4.99-17.4-19.75,2.74ZM178.58,222.52c-33.64,9.64-68.72-9.81-78.37-43.44-9.64-33.64,9.81-68.72,43.44-78.37,33.64-9.64,68.72,9.81,78.37,43.44,9.64,33.64-9.81,68.72-43.44,78.37Z"/><path class="cls-7" d="M153.75,135.94c-14.18,4.07-22.38,18.86-18.31,33.04,4.07,14.18,18.86,22.38,33.04,18.31,14.18-4.07,22.38-18.86,18.31-33.04-4.07-14.18-18.86-22.38-33.04-18.31ZM164.39,173.03c-6.3,1.81-12.88-1.84-14.69-8.14-1.81-6.3,1.84-12.88,8.14-14.69,6.3-1.81,12.88,1.84,14.69,8.14,1.81,6.3-1.84,12.88-8.14,14.69Z"/><path class="cls-7" d="M145.08,85.53c.85,2.95-.86,6.03-3.81,6.87-2.95.85-6.03-.86-6.87-3.81-.85-2.95.86-6.03,3.81-6.87,2.95-.85,6.03.86,6.87,3.81Z"/><path class="cls-7" d="M138.21,81.72c2.95-.85,6.03.86,6.87,3.81.85,2.95-.86,6.03-3.81,6.87"/><circle class="cls-7" cx="93.28" cy="124.01" r="5.56"/><path class="cls-7" d="M88.42,121.32c1.49-2.68,4.87-3.65,7.56-2.17,2.68,1.49,3.65,4.87,2.17,7.56"/><path class="cls-7" d="M85.03,177.65c2.95-.85,6.03.86,6.87,3.81.85,2.95-.86,6.03-3.81,6.87-2.95.85-6.03-.86-6.87-3.81-.85-2.95.86-6.03,3.81-6.87Z"/><path class="cls-7" d="M81.22,184.53c-.85-2.95.86-6.03,3.81-6.87,2.95-.85,6.03.86,6.87,3.81"/><circle class="cls-7" cx="123.51" cy="229.45" r="5.56"/><path class="cls-7" d="M120.82,234.31c-2.68-1.49-3.65-4.87-2.17-7.56,1.49-2.68,4.87-3.65,7.56-2.17"/><path class="cls-7" d="M177.15,237.7c-.85-2.95.86-6.03,3.81-6.87,2.95-.85,6.03.86,6.87,3.81.85,2.95-.86,6.03-3.81,6.87-2.95.85-6.03-.86-6.87-3.81Z"/><path class="cls-7" d="M184.02,241.51c-2.95.85-6.03-.86-6.87-3.81-.85-2.95.86-6.03,3.81-6.87"/><path class="cls-7" d="M226.25,204.08c-2.68-1.49-3.65-4.87-2.17-7.56,1.49-2.68,4.87-3.65,7.56-2.17,2.68,1.49,3.65,4.87,2.17,7.56-1.49,2.68-4.87,3.65-7.56,2.17Z"/><path class="cls-7" d="M233.81,201.91c-1.49,2.68-4.87,3.65-7.56,2.17-2.68-1.49-3.65-4.87-2.17-7.56"/><path class="cls-7" d="M237.2,145.58c-2.95.85-6.03-.86-6.87-3.81-.85-2.95.86-6.03,3.81-6.87,2.95-.85,6.03.86,6.87,3.81.85,2.95-.86,6.03-3.81,6.87Z"/><path class="cls-7" d="M241.01,138.71c.85,2.95-.86,6.03-3.81,6.87-2.95.85-6.03-.86-6.87-3.81"/><path class="cls-7" d="M203.58,96.48c-1.49,2.68-4.87,3.65-7.56,2.17-2.68-1.49-3.65-4.87-2.17-7.56,1.49-2.68,4.87-3.65,7.56-2.17,2.68,1.49,3.65,4.87,2.17,7.56Z"/><path class="cls-7" d="M201.41,88.92c2.68,1.49,3.65,4.87,2.17,7.56-1.49,2.68-4.87,3.65-7.56,2.17"/></g><path class="cls-1" d="M323.16,161.83C323.16,72.66,251,.5,161.83.5S.5,72.66.5,161.83s72.16,161.33,161.33,161.33,161.33-72.16,161.33-161.33Z"/></g></svg>