<?xml version="1.0" encoding="UTF-8"?><svg xmlns="http://www.w3.org/2000/svg" viewBox="0 0 78.1 78.1"><defs><style>.cls-1{fill:#f2f2f2;}.cls-2{fill:#ccc;}.cls-3{mix-blend-mode:color-dodge;}.cls-4{isolation:isolate;}</style></defs><g class="cls-4"><g id="Layer_2"><g id="circle_technology"><g><g class="cls-3"><path class="cls-2" d="M39.06,69.06c-.25,0-.48,0-.72,0v-.58c.25,0,.48,0,.72,0,.24,0,.48,0,.71,0v.58c-.23,0-.47,0-.71,0Zm-2.17-.08c-.48-.03-.97-.08-1.44-.14l.07-.57c.47,.06,.94,.1,1.42,.13l-.04,.58Zm4.35,0l-.04-.58c.47-.03,.95-.08,1.42-.14l.07,.57c-.48,.06-.96,.1-1.44,.14Zm-7.23-.34c-.48-.08-.96-.17-1.42-.28l.12-.56c.46,.1,.93,.19,1.4,.27l-.1,.57Zm10.1,0l-.1-.57c.46-.08,.93-.17,1.4-.27l.12,.56c-.47,.1-.95,.2-1.42,.28Zm-12.94-.62c-.47-.13-.93-.27-1.39-.41l.18-.55c.45,.15,.91,.28,1.36,.41l-.15,.56Zm15.77,0l-.15-.56c.46-.12,.92-.26,1.36-.41l.18,.55c-.46,.15-.92,.29-1.39,.41Zm-18.53-.89c-.45-.17-.9-.35-1.35-.55l.23-.53c.43,.19,.88,.37,1.32,.54l-.2,.54Zm21.29-.01l-.21-.54c.44-.17,.88-.35,1.31-.54l.23,.53c-.44,.19-.89,.38-1.34,.55Zm-23.95-1.15c-.43-.21-.86-.44-1.29-.68l.28-.5c.41,.23,.84,.45,1.26,.66l-.26,.52Zm26.6,0l-.26-.52c.42-.21,.85-.43,1.26-.66l.28,.5c-.42,.23-.85,.46-1.28,.67Zm-29.14-1.4c-.41-.25-.82-.52-1.21-.8l.33-.48c.39,.27,.79,.53,1.19,.78l-.3,.49Zm31.67,0l-.3-.49c.4-.25,.8-.51,1.19-.78l.33,.47c-.39,.27-.8,.54-1.21,.8Zm-34.06-1.64c-.38-.29-.76-.6-1.13-.91l.37-.44c.36,.31,.74,.61,1.11,.89l-.35,.46Zm36.44,0l-.35-.46c.38-.29,.75-.59,1.11-.89l.37,.44c-.37,.31-.75,.62-1.13,.91Zm-38.66-1.87c-.35-.33-.7-.67-1.04-1.01l.41-.4c.33,.34,.67,.67,1.02,.99l-.39,.42Zm40.87,0l-.39-.42c.34-.32,.69-.66,1.02-.99l.41,.4c-.34,.34-.69,.69-1.04,1.01Zm-42.9-2.07c-.32-.36-.63-.73-.94-1.11l.45-.36c.3,.37,.6,.73,.92,1.09l-.43,.38Zm44.92,0l-.43-.38c.31-.35,.62-.72,.92-1.09l.45,.36c-.3,.38-.62,.75-.94,1.11Zm-46.74-2.25c-.28-.39-.56-.79-.82-1.19l.48-.32c.26,.39,.53,.79,.81,1.17l-.47,.34Zm48.56,0l-.47-.34c.28-.38,.55-.78,.81-1.17l.48,.32c-.26,.4-.54,.8-.83,1.19Zm-50.15-2.41c-.24-.41-.48-.84-.71-1.26l.51-.27c.22,.42,.45,.83,.69,1.24l-.5,.29Zm51.74-.01l-.5-.29c.24-.41,.47-.83,.69-1.24l.51,.27c-.22,.43-.46,.85-.71,1.27Zm-53.09-2.55c-.2-.44-.4-.88-.58-1.33l.53-.22c.18,.44,.37,.87,.57,1.3l-.52,.24Zm54.44-.02l-.52-.24c.2-.43,.39-.87,.57-1.31l.53,.22c-.18,.45-.38,.89-.58,1.33Zm-55.54-2.66c-.16-.45-.31-.92-.45-1.38l.55-.17c.14,.45,.28,.91,.44,1.35l-.54,.19Zm56.64-.03l-.54-.19c.16-.44,.3-.9,.44-1.35l.55,.16c-.14,.46-.29,.93-.45,1.38Zm-57.47-2.75c-.12-.47-.22-.94-.31-1.42l.57-.11c.09,.46,.19,.93,.31,1.39l-.56,.14Zm58.29-.03l-.56-.14c.11-.46,.22-.93,.31-1.39l.57,.11c-.09,.47-.2,.95-.31,1.42Zm-58.85-2.81c-.07-.47-.13-.96-.17-1.44l.57-.06c.05,.47,.1,.95,.17,1.41l-.57,.08Zm59.41-.03l-.57-.08c.07-.47,.12-.94,.17-1.41l.57,.05c-.05,.48-.1,.96-.17,1.44Zm-59.69-2.85c-.02-.48-.04-.97-.04-1.45h.58c0,.47,.01,.95,.04,1.42l-.58,.03Zm59.96-.03l-.58-.03c.02-.47,.03-.95,.03-1.42v-.06h.58v.06c0,.48-.01,.97-.03,1.45Zm-59.39-2.84l-.58-.03c.02-.48,.06-.97,.1-1.45l.57,.05c-.04,.47-.08,.95-.1,1.42Zm58.81-.1c-.02-.47-.06-.95-.1-1.42l.57-.06c.05,.48,.08,.96,.11,1.45l-.58,.03Zm-58.54-2.73l-.57-.08c.07-.48,.15-.96,.24-1.43l.57,.11c-.09,.46-.17,.94-.24,1.4Zm58.26-.1c-.07-.47-.15-.94-.24-1.4l.57-.11c.09,.47,.18,.95,.25,1.43l-.57,.08Zm-57.72-2.7l-.56-.14c.11-.47,.24-.94,.38-1.4l.55,.16c-.13,.45-.26,.91-.37,1.37Zm57.17-.09c-.11-.46-.24-.92-.38-1.37l.55-.17c.14,.46,.27,.93,.38,1.4l-.56,.14Zm-56.36-2.63l-.55-.19c.16-.46,.33-.91,.51-1.36l.53,.22c-.18,.44-.35,.89-.5,1.33Zm55.55-.09c-.16-.45-.33-.89-.51-1.33l.53-.22c.18,.44,.36,.9,.52,1.36l-.54,.19Zm-54.48-2.55l-.52-.24c.2-.44,.42-.88,.64-1.3l.51,.27c-.22,.42-.43,.85-.63,1.28Zm53.4-.08c-.2-.43-.41-.85-.63-1.27l.51-.27c.22,.43,.44,.86,.64,1.3l-.52,.24Zm-52.07-2.44l-.5-.29c.24-.42,.5-.83,.77-1.23l.48,.32c-.26,.4-.51,.8-.75,1.21Zm50.75-.07c-.24-.41-.49-.81-.75-1.21l.48-.32c.27,.4,.52,.82,.77,1.23l-.5,.29Zm-49.19-2.31l-.47-.34c.28-.39,.58-.78,.88-1.15l.45,.36c-.3,.37-.59,.75-.86,1.13Zm47.63-.06c-.28-.38-.57-.76-.87-1.13l.45-.36c.3,.37,.6,.76,.88,1.15l-.47,.34Zm-45.85-2.16l-.43-.38c.32-.36,.65-.72,.99-1.06l.41,.4c-.33,.34-.65,.69-.97,1.04Zm44.06-.05c-.31-.35-.64-.7-.97-1.04l.41-.4c.34,.34,.67,.7,.99,1.06l-.43,.38Zm-42.08-1.98l-.39-.42c.35-.33,.72-.65,1.08-.96l.37,.44c-.36,.3-.72,.62-1.06,.94Zm40.09-.05c-.35-.32-.71-.64-1.07-.94l.37-.44c.37,.31,.73,.63,1.09,.96l-.39,.42Zm-37.91-1.79l-.35-.46c.38-.29,.77-.58,1.17-.85l.33,.47c-.39,.27-.78,.55-1.15,.84Zm35.74-.04c-.37-.29-.76-.57-1.15-.84l.33-.48c.4,.27,.79,.56,1.17,.85l-.35,.46Zm-33.4-1.58l-.31-.49c.41-.25,.83-.5,1.25-.74l.28,.5c-.41,.23-.82,.47-1.22,.72Zm31.06-.04c-.4-.25-.81-.49-1.23-.72l.28-.5c.42,.23,.84,.48,1.25,.74l-.3,.49Zm-28.58-1.34l-.26-.52c.43-.21,.87-.42,1.31-.61l.23,.53c-.43,.19-.86,.39-1.29,.6Zm26.09-.04c-.42-.21-.86-.41-1.29-.6l.23-.53c.44,.19,.89,.4,1.32,.61l-.26,.52Zm-23.49-1.1l-.21-.54c.45-.17,.91-.33,1.37-.48l.18,.55c-.45,.15-.9,.31-1.34,.47Zm20.88-.03c-.44-.17-.9-.33-1.35-.47l.18-.55c.46,.15,.92,.31,1.37,.48l-.2,.54Zm-18.18-.85l-.15-.56c.46-.13,.94-.24,1.41-.35l.12,.56c-.46,.1-.93,.22-1.38,.34Zm15.47-.03c-.46-.12-.92-.24-1.38-.34l.12-.56c.47,.1,.94,.22,1.41,.34l-.15,.56Zm-12.69-.59l-.1-.57c.48-.08,.96-.15,1.44-.21l.07,.57c-.47,.06-.94,.13-1.41,.21Zm9.91-.02c-.46-.08-.94-.15-1.41-.2l.07-.57c.48,.06,.96,.13,1.44,.21l-.1,.57Zm-7.09-.33l-.04-.58c.48-.04,.97-.06,1.45-.07v.58c-.46,.01-.93,.04-1.41,.07Zm4.26,0c-.47-.03-.95-.05-1.42-.07v-.58c.5,.01,.98,.03,1.46,.07l-.04,.58Z"/></g><g><g class="cls-3"><rect class="cls-2" x="38.44" width="1.22" height="5.91"/></g><g class="cls-3"><rect class="cls-2" x="12.92" y="10.57" width="1.22" height="5.91" transform="translate(-5.6 13.52) rotate(-44.99)"/></g><g class="cls-3"><rect class="cls-2" x="2.34" y="36.09" width="1.22" height="5.91" transform="translate(-36.09 42) rotate(-90)"/></g><g class="cls-3"><rect class="cls-2" x="12.92" y="61.61" width="1.22" height="5.91" transform="translate(-22.56 119.79) rotate(-135.01)"/></g><g class="cls-3"><rect class="cls-2" x="38.44" y="72.18" width="1.22" height="5.91" transform="translate(78.1 150.28) rotate(180)"/></g><g class="cls-3"><rect class="cls-2" x="63.96" y="61.61" width="1.22" height="5.91" transform="translate(155.88 64.58) rotate(135.01)"/></g><g class="cls-3"><rect class="cls-2" x="74.53" y="36.09" width="1.22" height="5.91" transform="translate(114.19 -36.09) rotate(90)"/></g><g class="cls-3"><rect class="cls-2" x="63.96" y="10.57" width="1.22" height="5.91" transform="translate(28.47 -41.69) rotate(44.99)"/></g></g><g class="cls-3"><g><g><path class="cls-1" d="M39.69,66.44c-1.45,0-2.94-.13-4.43-.37v-.04c1.5,.24,2.98,.37,4.43,.37,1.49,0,2.98-.12,4.43-.35,1.38-.21,2.83-.57,4.31-1.06,1.45-.48,2.82-1.07,4.09-1.74,1.31-.69,2.57-1.49,3.75-2.38,1.12-.84,2.23-1.84,3.31-2.96,1.06-1.12,2-2.28,2.8-3.45,.83-1.22,1.57-2.52,2.2-3.86l.04,.02c-.63,1.34-1.37,2.64-2.2,3.87-.79,1.17-1.73,2.33-2.8,3.45-1.08,1.12-2.19,2.12-3.31,2.96-1.18,.89-2.45,1.69-3.75,2.39-1.27,.68-2.64,1.27-4.09,1.75-1.49,.49-2.94,.85-4.32,1.06-1.45,.23-2.94,.34-4.43,.35Z"/><polygon class="cls-1" points="35.57 65.73 35.37 66.06 35.45 66.44 34.73 65.95 35.57 65.73"/></g><g><path class="cls-1" d="M45.64,61.97v-.04c5.02-1.29,9.54-4.24,12.71-8.31,.83-1.06,1.55-2.15,2.13-3.22,.61-1.13,1.14-2.31,1.57-3.53,.42-1.17,.75-2.43,.97-3.74,.24-1.42,.35-2.67,.35-3.85h.04c0,1.18-.12,2.44-.36,3.86-.23,1.31-.55,2.57-.97,3.74-.43,1.21-.96,2.4-1.58,3.53-.59,1.08-1.31,2.16-2.14,3.23-3.18,4.08-7.7,7.04-12.74,8.33Z"/><polygon class="cls-1" points="63.73 39.04 63.09 39.04 63.08 39.55 63.72 39.57 63.73 39.04"/></g><g><path class="cls-1" d="M39.77,64.65c-4.41,0-8.76-1.12-12.54-3.28l.02-.04c4.81,2.74,10.54,3.81,16.15,3.02,5.52-.76,10.72-3.4,14.65-7.44l.03,.03c-3.93,4.04-9.14,6.68-14.67,7.45-1.21,.17-2.43,.26-3.64,.26Z"/><path class="cls-1" d="M27.43,61.04c-.15-.09-.35-.01-.45,.16-.1,.17-.06,.39,.1,.48,.15,.09,.36,.02,.45-.16,.1-.18,.05-.39-.1-.48Z"/></g></g><g><g><path class="cls-1" d="M17.34,54.77c-1.71-2.4-3-5.09-3.85-7.99-.84-2.88-1.21-5.84-1.09-8.8,.06-1.51,.24-3,.52-4.42,.3-1.45,.72-2.89,1.24-4.27,.51-1.35,1.15-2.7,1.92-4.01,.75-1.28,1.6-2.51,2.54-3.65l.03,.03c-.94,1.14-1.79,2.37-2.53,3.65-.77,1.31-1.41,2.66-1.92,4.01-.52,1.38-.94,2.81-1.24,4.27-.28,1.42-.46,2.9-.52,4.41-.24,6,1.51,11.95,4.93,16.76l-.04,.03Z"/><path class="cls-1" d="M18.77,22.06l-.19-.34-.37-.11c.26-.14,.53-.26,.79-.38-.08,.28-.17,.55-.23,.83Z"/></g><g><path class="cls-1" d="M27.73,59.42c-2.27-1.35-4.26-3.02-5.91-4.96-.84-.98-1.61-2.04-2.28-3.13-.66-1.1-1.25-2.27-1.73-3.46-.49-1.22-.88-2.46-1.14-3.7-.28-1.29-.46-2.58-.53-3.83-.06-1.3-.03-2.6,.11-3.87,.12-1.21,.37-2.46,.73-3.8h.04c-.37,1.35-.61,2.59-.73,3.8-.13,1.27-.17,2.57-.11,3.87,.07,1.25,.25,2.54,.53,3.83,.26,1.23,.65,2.47,1.14,3.69,.48,1.19,1.06,2.36,1.72,3.46,.67,1.09,1.43,2.14,2.28,3.12,1.65,1.93,3.63,3.6,5.9,4.95l-.02,.04Z"/><polygon class="cls-1" points="27.79 59.8 28.11 59.24 27.67 58.99 27.34 59.54 27.79 59.8"/></g><g><path class="cls-1" d="M15.11,45.95c-.4-1.45-.66-2.79-.79-4.11-.14-1.38-.18-2.78-.12-4.18,.17-2.9,.78-5.64,1.8-8.14,.52-1.3,1.15-2.56,1.86-3.75,.73-1.19,1.56-2.33,2.46-3.38,1.78-2.09,3.92-3.9,6.38-5.37l.02,.04c-2.45,1.47-4.6,3.27-6.37,5.36-.9,1.06-1.73,2.19-2.46,3.38-.71,1.19-1.34,2.44-1.86,3.74-1.02,2.5-1.63,5.24-1.8,8.13-.07,1.4-.03,2.8,.12,4.18,.14,1.31,.39,2.65,.79,4.1h-.04Z"/><path class="cls-1" d="M26.89,17.36c.15-.09,.19-.3,.09-.47-.1-.18-.31-.24-.46-.16-.16,.09-.19,.3-.09,.48,.1,.17,.31,.24,.46,.15Z"/></g></g><g><g><path class="cls-1" d="M65.39,29.46c-.48-1.32-1.1-2.63-1.89-4.02-.78-1.35-1.63-2.58-2.51-3.66-1.94-2.36-4.17-4.34-6.62-5.87-4.96-3.18-10.99-4.64-16.98-4.11v-.04c2.95-.26,5.93-.04,8.84,.66,2.94,.71,5.69,1.87,8.17,3.45,2.46,1.53,4.69,3.51,6.64,5.88,.89,1.08,1.74,2.31,2.52,3.67,.79,1.39,1.41,2.7,1.9,4.02h-.04Z"/><path class="cls-1" d="M64.98,29.34h.39l.28-.26c-.01,.29-.03,.58-.06,.87-.19-.21-.4-.42-.61-.61Z"/></g><g><path class="cls-1" d="M56.66,22.53c-3.63-3.73-8.45-6.17-13.55-6.87-5.2-.73-10.5,.26-14.93,2.8l-.02-.04c4.44-2.54,9.75-3.54,14.96-2.81,5.11,.7,9.93,3.15,13.57,6.88l-.03,.03Z"/><polygon class="cls-1" points="27.79 18.29 28.11 18.85 28.55 18.59 28.24 18.03 27.79 18.29"/></g><g><path class="cls-1" d="M65.33,38.74c0-1.29-.13-2.65-.39-4.16-.25-1.43-.61-2.79-1.06-4.04-.47-1.31-1.04-2.59-1.71-3.81-.63-1.15-1.41-2.33-2.31-3.48-3.43-4.4-8.32-7.59-13.76-8.98v-.04c5.46,1.39,10.36,4.59,13.79,9,.91,1.16,1.68,2.33,2.31,3.49,.67,1.22,1.24,2.51,1.71,3.82,.45,1.25,.81,2.62,1.06,4.05,.26,1.51,.39,2.87,.39,4.17h-.04Z"/><path class="cls-1" d="M64.98,38.73c0,.17,.17,.31,.37,.31,.2,0,.36-.14,.36-.32,0-.18-.17-.32-.37-.31-.2,0-.36,.15-.36,.32Z"/></g></g></g></g></g></g></g></svg>