<svg width="2411" height="1045" xmlns="http://www.w3.org/2000/svg" xmlns:xlink="http://www.w3.org/1999/xlink" xml:space="preserve" overflow="hidden"><defs><filter id="fx0" x="-10%" y="-10%" width="120%" height="120%" filterUnits="userSpaceOnUse" primitiveUnits="userSpaceOnUse"><feComponentTransfer color-interpolation-filters="sRGB"><feFuncR type="discrete" tableValues="1.000000 1.000000"/><feFuncG type="discrete" tableValues="1.000000 1.000000"/><feFuncB type="discrete" tableValues="1.000000 1.000000"/><feFuncA type="linear" slope="0.400000" intercept="0.000000"/></feComponentTransfer><feGaussianBlur stdDeviation="7.638889 7.638889"/></filter><clipPath id="clip1"><rect x="1246" y="1177" width="2411" height="1045"/></clipPath><clipPath id="clip2"><rect x="-22.9166" y="-22.9166" width="2454.83" height="1087.83"/></clipPath><clipPath id="clip3"><rect x="0" y="0" width="2409" height="1042"/></clipPath></defs><g clip-path="url(#clip1)" transform="translate(-1246 -1177)"><g clip-path="url(#clip2)" filter="url(#fx0)" transform="translate(1247 1180)"><g clip-path="url(#clip3)"><path d="M2217.87 26.8102C2308.85 26.8102 2382.6 100.564 2382.6 191.543L2382.6 850.457C2382.6 941.437 2308.85 1015.19 2217.87 1015.19L191.133 1015.19C100.153 1015.19 26.3998 941.437 26.3998 850.457L26.3998 191.543C26.3998 100.564 100.153 26.8102 191.133 26.8102Z" stroke="#FFFFFF" stroke-width="5" stroke-linecap="butt" stroke-linejoin="miter" stroke-miterlimit="8" stroke-opacity="1" fill="#00FFC7" fill-rule="evenodd" fill-opacity="0.329412"/></g></g><path d="M3445 1216.5C3534.19 1216.5 3606.5 1288.81 3606.5 1378L3606.5 2024C3606.5 2113.19 3534.19 2185.5 3445 2185.5L1458 2185.5C1368.81 2185.5 1296.5 2113.19 1296.5 2024L1296.5 1378C1296.5 1288.81 1368.81 1216.5 1458 1216.5Z" stroke="#FFFFFF" stroke-width="4.58333" stroke-linecap="butt" stroke-linejoin="miter" stroke-miterlimit="8" stroke-opacity="1" fill="#00FFC7" fill-rule="evenodd" fill-opacity="0.329412"/><text fill="#FFFFFF" fill-opacity="1" font-family="Fira Code,Fira Code_MSFontService,sans-serif" font-style="normal" font-variant="normal" font-weight="700" font-stretch="normal" font-size="128" text-anchor="start" direction="ltr" writing-mode="lr-tb" unicode-bidi="normal" text-decoration="none" transform="matrix(1 0 0 1 1531.54 1739)">Traveling to Front Brain</text></g></svg>