<?xml version="1.0" encoding="UTF-8"?><svg id="Layer_2" xmlns="http://www.w3.org/2000/svg" viewBox="0 0 283.03 234.28"><defs><style>.cls-1{fill:#0a92cf;}.cls-1,.cls-2,.cls-3,.cls-4,.cls-5,.cls-6,.cls-7,.cls-8,.cls-9{stroke-width:0px;}.cls-2{fill:#ccc;}.cls-3{fill:#c6c6c6;}.cls-4{fill:#b3b3b3;}.cls-5{fill:#666;}.cls-6{fill:#999;}.cls-7{fill:#fff;}.cls-8{fill:red;}.cls-9{fill:#e6e6e6;}</style></defs><g id="Layer_3"><rect class="cls-9" x="24.38" y="-24.38" width="234.28" height="283.03" rx="1.58" ry="1.58" transform="translate(258.66 -24.38) rotate(90)"/><rect class="cls-7" x=".62" y="12.73" width="281.79" height="214.59"/><path class="cls-7" d="M38.88,3.29h212.35c.33,0,.6.27.6.6v5.66c0,.33-.27.6-.6.6H38.88c-.33,0-.6-.27-.6-.6V3.89c0-.33.27-.6.6-.6Z"/><path class="cls-2" d="M251.23,10.29H38.88c-.41,0-.75-.33-.75-.75V3.89c0-.41.33-.75.75-.75h212.35c.41,0,.75.33.75.75v5.66c0,.41-.33.75-.75.75ZM38.88,3.44c-.25,0-.45.2-.45.45v5.66c0,.25.2.45.45.45h212.35c.25,0,.45-.2.45-.45V3.89c0-.25-.2-.45-.45-.45H38.88Z"/><rect class="cls-4" x="7.27" y="6.12" width="3.34" height=".93"/><rect class="cls-1" x="8.15" y="6.51" width="2.46" height=".15"/><rect class="cls-4" x="7.68" y="6.04" width="3.4" height="1.09"/><polygon class="cls-1" points="8.33 5.97 7.27 6.59 8.33 7.2 8.33 5.97"/><polygon class="cls-4" points="8.8 8.01 6.34 6.59 8.8 5.16 8.8 8.01"/><rect class="cls-4" x="14.8" y="6.12" width="3.34" height=".93"/><rect class="cls-1" x="14.8" y="6.51" width="2.46" height=".15"/><rect class="cls-4" x="14.33" y="6.04" width="3.4" height="1.09"/><polygon class="cls-1" points="17.08 5.97 18.14 6.59 17.08 7.2 17.08 5.97"/><polygon class="cls-4" points="16.61 8.01 16.61 5.16 19.07 6.59 16.61 8.01"/><rect class="cls-5" x=".62" y="12.73" width="281.79" height="68.44"/><rect class="cls-3" x="11.77" y="40.67" width="259.49" height="80.99"/><rect class="cls-5" x="11.77" y="133.28" width="77.24" height="30.44"/><rect class="cls-6" x="11.77" y="207.06" width="25.66" height="10.15"/><rect class="cls-9" x="11.77" y="170.78" width="77.24" height="2.51"/><rect class="cls-9" x="11.77" y="175.99" width="77.24" height="2.51"/><rect class="cls-9" x="11.77" y="181.2" width="77.24" height="2.51"/><rect class="cls-9" x="11.77" y="186.41" width="77.24" height="2.51"/><rect class="cls-9" x="11.77" y="191.62" width="77.24" height="2.51"/><rect class="cls-9" x="11.77" y="196.82" width="77.24" height="2.51"/><rect class="cls-5" x="102.9" y="133.28" width="77.24" height="30.44"/><rect class="cls-6" x="102.9" y="207.06" width="25.66" height="10.15"/><rect class="cls-9" x="102.9" y="170.78" width="77.24" height="2.51"/><rect class="cls-9" x="102.9" y="175.99" width="77.24" height="2.51"/><rect class="cls-9" x="102.9" y="181.2" width="77.24" height="2.51"/><rect class="cls-9" x="102.9" y="186.41" width="77.24" height="2.51"/><rect class="cls-9" x="102.9" y="191.62" width="77.24" height="2.51"/><rect class="cls-9" x="102.9" y="196.82" width="77.24" height="2.51"/><rect class="cls-5" x="194.02" y="133.28" width="77.24" height="30.44"/><rect class="cls-6" x="194.02" y="207.06" width="25.66" height="10.15"/><rect class="cls-9" x="194.02" y="170.78" width="77.24" height="2.51"/><rect class="cls-9" x="194.02" y="175.99" width="77.24" height="2.51"/><rect class="cls-9" x="194.02" y="181.2" width="77.24" height="2.51"/><rect class="cls-9" x="194.02" y="186.41" width="77.24" height="2.51"/><rect class="cls-9" x="194.02" y="191.62" width="77.24" height="2.51"/><rect class="cls-9" x="194.02" y="196.82" width="77.24" height="2.51"/><polygon class="cls-7" points="28.16 88.06 21.27 81.17 28.16 74.28 29.48 75.6 23.91 81.17 29.48 86.74 28.16 88.06"/><polygon class="cls-7" points="254.87 88.06 253.55 86.74 259.12 81.17 253.55 75.6 254.87 74.28 261.76 81.17 254.87 88.06"/><path class="cls-4" d="M138.17,110.59c0,1.03-.84,1.87-1.87,1.87s-1.87-.84-1.87-1.87.84-1.87,1.87-1.87,1.87.84,1.87,1.87Z"/><path class="cls-9" d="M143.39,110.59c0,1.03-.84,1.87-1.87,1.87s-1.87-.84-1.87-1.87.84-1.87,1.87-1.87,1.87.84,1.87,1.87Z"/><path class="cls-9" d="M148.6,110.59c0,1.03-.84,1.87-1.87,1.87s-1.87-.84-1.87-1.87.84-1.87,1.87-1.87,1.87.84,1.87,1.87Z"/><circle class="cls-8" cx="276.49" cy="6.72" r="1.56"/><path class="cls-4" d="M272.82,6.72c0,.86-.7,1.56-1.56,1.56s-1.56-.7-1.56-1.56.7-1.56,1.56-1.56,1.56.7,1.56,1.56Z"/><circle class="cls-4" cx="266.03" cy="6.72" r="1.56"/><path class="cls-4" d="M27.21,6.72l.31-2.08-.67.26c-.52-.59-1.25-.93-2.04-.93-1.52,0-2.75,1.23-2.75,2.75s1.23,2.75,2.75,2.75c.73,0,1.42-.3,1.94-.81l-.53-.51v.06c-.38.36-.88.56-1.41.56-1.13,0-2.05-.92-2.05-2.05s.92-2.05,2.05-2.05c.5,0,.96.19,1.33.51l-.58.23,1.65,1.31Z"/><path class="cls-4" d="M32.43,4.63l1.99,1.99h-.89v2.19h-2.19v-2.19h-.89l1.99-1.99h0ZM32.43,4.03c-.15,0-.31.06-.42.18l-1.99,1.99c-.17.17-.22.43-.13.65.09.22.31.37.55.37h.29v1.59c0,.33.27.6.6.6h2.19c.33,0,.6-.27.6-.6v-1.59h.29c.24,0,.46-.15.55-.37.09-.22.04-.48-.13-.65l-1.99-1.99c-.12-.12-.27-.18-.42-.18h0Z"/></g></svg>