<?xml version="1.0" encoding="UTF-8"?><svg id="Layer_2" xmlns="http://www.w3.org/2000/svg" viewBox="0 0 283.03 234.28"><defs><style>.cls-1{fill:#0a92cf;}.cls-1,.cls-2,.cls-3,.cls-4,.cls-5,.cls-6,.cls-7,.cls-8,.cls-9{stroke-width:0px;}.cls-2{fill:#ccc;}.cls-3{fill:#c6c6c6;}.cls-4{fill:#b3b3b3;}.cls-5{fill:#666;}.cls-6{fill:#999;}.cls-7{fill:#fff;}.cls-8{fill:red;}.cls-9{fill:#e6e6e6;}</style></defs><g id="Layer_3"><rect class="cls-9" x="24.38" y="-24.38" width="234.28" height="283.03" rx="1.58" ry="1.58" transform="translate(258.66 -24.38) rotate(90)"/><rect class="cls-7" x=".62" y="12.73" width="281.79" height="214.59"/><path class="cls-7" d="M38.88,3.29h212.35c.33,0,.6.27.6.6v5.66c0,.33-.27.6-.6.6H38.88c-.33,0-.6-.27-.6-.6V3.89c0-.33.27-.6.6-.6Z"/><path class="cls-2" d="M251.23,10.29H38.88c-.41,0-.75-.33-.75-.75V3.89c0-.41.33-.75.75-.75h212.35c.41,0,.75.33.75.75v5.66c0,.41-.33.75-.75.75ZM38.88,3.44c-.25,0-.45.2-.45.45v5.66c0,.25.2.45.45.45h212.35c.25,0,.45-.2.45-.45V3.89c0-.25-.2-.45-.45-.45H38.88Z"/><rect class="cls-4" x="7.27" y="6.12" width="3.34" height=".93"/><rect class="cls-1" x="8.15" y="6.51" width="2.46" height=".15"/><rect class="cls-4" x="7.68" y="6.04" width="3.4" height="1.09"/><polygon class="cls-1" points="8.33 5.97 7.27 6.59 8.33 7.2 8.33 5.97"/><polygon class="cls-4" points="8.8 8.01 6.34 6.59 8.8 5.16 8.8 8.01"/><rect class="cls-4" x="14.8" y="6.12" width="3.34" height=".93"/><rect class="cls-1" x="14.8" y="6.51" width="2.46" height=".15"/><rect class="cls-4" x="14.33" y="6.04" width="3.4" height="1.09"/><polygon class="cls-1" points="17.08 5.97 18.14 6.59 17.08 7.2 17.08 5.97"/><polygon class="cls-4" points="16.61 8.01 16.61 5.16 19.07 6.59 16.61 8.01"/><circle class="cls-8" cx="276.49" cy="6.72" r="1.56"/><circle class="cls-4" cx="271.26" cy="6.72" r="1.56"/><path class="cls-4" d="M267.59,6.72c0,.86-.7,1.56-1.56,1.56s-1.56-.7-1.56-1.56.7-1.56,1.56-1.56,1.56.7,1.56,1.56Z"/><path class="cls-4" d="M24.81,9.47c-1.52,0-2.75-1.23-2.75-2.75s1.23-2.75,2.75-2.75c.87,0,1.68.4,2.2,1.1l.08.1-.18,3.33-.09.09c-.52.55-1.25.87-2.01.87ZM24.81,4.67c-1.13,0-2.05.92-2.05,2.05s.92,2.05,2.05,2.05c.53,0,1.03-.2,1.41-.56l.15-2.81c-.39-.46-.95-.72-1.56-.72ZM26.56,8.36h0,0Z"/><polygon class="cls-4" points="25.56 5.41 27.21 6.72 27.52 4.64 25.56 5.41"/><path class="cls-4" d="M32.43,4.63l1.99,1.99h-.89v2.19h-2.19v-2.19h-.89l1.99-1.99h0ZM32.43,4.03c-.15,0-.31.06-.42.18l-1.99,1.99c-.17.17-.22.43-.13.65.09.22.31.37.55.37h.29v1.59c0,.33.27.6.6.6h2.19c.33,0,.6-.27.6-.6v-1.59h.29c.24,0,.46-.15.55-.37.09-.22.04-.48-.13-.65l-1.99-1.99c-.12-.12-.27-.18-.42-.18h0Z"/><rect class="cls-5" x="11.77" y="21.37" width="168.37" height="47.34"/><rect class="cls-6" x="190.75" y="36.65" width="78.95" height="139.44"/><rect class="cls-6" x="11.77" y="74.77" width="84.18" height="8.07"/><rect class="cls-6" x="170.68" y="74.77" width="9.45" height="8.07"/><rect class="cls-6" x="159.74" y="74.77" width="9.45" height="8.07"/><rect class="cls-7" x="43.9" y="204.69" width="23.64" height="8.07"/><path class="cls-2" d="M67.69,212.92h-23.95v-8.38h23.95v8.38ZM44.05,212.61h23.33v-7.76h-23.33v7.76Z"/><rect class="cls-7" x="70.86" y="204.69" width="23.64" height="8.07"/><path class="cls-2" d="M94.66,212.92h-23.95v-8.38h23.95v8.38ZM71.02,212.61h23.33v-7.76h-23.33v7.76Z"/><rect class="cls-7" x="43.9" y="122.08" width="23.64" height="8.07"/><path class="cls-2" d="M67.69,130.31h-23.95v-8.38h23.95v8.38ZM44.05,130h23.33v-7.76h-23.33v7.76Z"/><rect class="cls-7" x="70.86" y="122.08" width="23.64" height="8.07"/><path class="cls-2" d="M94.66,130.31h-23.95v-8.38h23.95v8.38ZM71.02,130h23.33v-7.76h-23.33v7.76Z"/><rect class="cls-7" x="218.94" y="21.37" width="50.76" height="7.64" rx="1.56" ry="1.56"/><path class="cls-2" d="M268.15,29.17h-47.65c-.94,0-1.71-.77-1.71-1.71v-4.52c0-.94.77-1.71,1.71-1.71h47.65c.94,0,1.71.77,1.71,1.71v4.52c0,.94-.77,1.71-1.71,1.71ZM220.5,21.53c-.77,0-1.4.63-1.4,1.4v4.52c0,.77.63,1.4,1.4,1.4h47.65c.77,0,1.4-.63,1.4-1.4v-4.52c0-.77-.63-1.4-1.4-1.4h-47.65Z"/><rect class="cls-3" x="191.12" y="21.37" width="24.18" height="7.64"/><rect class="cls-3" x="12.68" y="88.89" width="23.8" height="23.8"/><rect class="cls-3" x="156.5" y="137.85" width="23.8" height="23.8"/><rect class="cls-3" x="190.92" y="181.28" width="23.25" height="24.92"/><rect class="cls-3" x="218.77" y="181.28" width="23.25" height="24.92"/><rect class="cls-3" x="246.62" y="181.28" width="23.25" height="24.92"/><rect class="cls-9" x="43.9" y="88.97" width="136.24" height="3.2"/><rect class="cls-9" x="43.9" y="94.17" width="136.24" height="3.2"/><rect class="cls-9" x="43.9" y="99.38" width="136.24" height="3.2"/><rect class="cls-9" x="43.9" y="104.59" width="136.24" height="3.2"/><rect class="cls-9" x="43.9" y="109.8" width="136.24" height="3.2"/><rect class="cls-9" x="43.9" y="115" width="50.61" height="3.2"/><rect class="cls-9" x="12.68" y="115" width="23.8" height="3.2"/><rect class="cls-9" x="12.68" y="120.48" width="12.89" height="3.2"/><rect class="cls-9" x="12.68" y="208.42" width="23.8" height="3.2"/><rect class="cls-9" x="12.68" y="213.9" width="12.89" height="3.2"/><rect class="cls-9" x="156.5" y="163.9" width="23.8" height="3.2"/><rect class="cls-9" x="167.41" y="169.38" width="12.89" height="3.2"/><rect class="cls-3" x="12.68" y="181.84" width="23.8" height="23.8"/><rect class="cls-9" x="43.9" y="181.91" width="136.24" height="3.2"/><rect class="cls-9" x="43.9" y="187.12" width="136.24" height="3.2"/><rect class="cls-9" x="43.9" y="192.33" width="136.24" height="3.2"/><rect class="cls-9" x="43.9" y="197.54" width="136.24" height="3.2"/><polygon class="cls-5" points="152.6 137.44 149.07 137.44 136.99 137.44 43.9 137.44 43.9 175.92 149.07 175.92 149.07 143.24 152.6 137.44"/><rect class="cls-4" x="51.67" y="142.33" width="93.14" height="2.65"/><rect class="cls-4" x="51.67" y="147.54" width="93.14" height="2.65"/><rect class="cls-4" x="51.67" y="152.75" width="93.14" height="2.65"/><rect class="cls-4" x="51.67" y="157.96" width="93.14" height="2.65"/><rect class="cls-4" x="51.67" y="163.16" width="93.14" height="2.65"/><rect class="cls-4" x="51.67" y="168.37" width="34.6" height="2.65"/><path class="cls-6" d="M33.23,111.2v-2.83c0-1.23-.79-2.33-1.98-2.71l-4.59-1.48v-1.32c2.55-.85,4.37-3.24,4.37-6.07,0-3.55-2.89-6.42-6.45-6.42s-6.42,2.86-6.42,6.42c0,2.83,1.82,5.22,4.37,6.07v1.32l-4.59,1.48c-.66.19-1.2.63-1.54,1.16-.31.44-.47.98-.47,1.54v2.83h17.31Z"/><path class="cls-6" d="M33.23,204.15v-2.83c0-1.23-.79-2.33-1.98-2.71l-4.59-1.48v-1.32c2.55-.85,4.37-3.24,4.37-6.07,0-3.55-2.89-6.42-6.45-6.42s-6.42,2.86-6.42,6.42c0,2.83,1.82,5.22,4.37,6.07v1.32l-4.59,1.48c-.66.19-1.2.63-1.54,1.16-.31.44-.47.98-.47,1.54v2.83h17.31Z"/><path class="cls-5" d="M177.05,160.16v-2.83c0-1.23-.79-2.33-1.98-2.71l-4.59-1.48v-1.32c2.55-.85,4.37-3.24,4.37-6.07,0-3.55-2.89-6.42-6.45-6.42s-6.42,2.86-6.42,6.42c0,2.83,1.82,5.22,4.37,6.07v1.32l-4.59,1.48c-.66.19-1.2.63-1.54,1.16-.31.44-.47.98-.47,1.54v2.83h17.31Z"/></g></svg>