<?xml version="1.0" encoding="UTF-8"?><svg id="Layer_2" xmlns="http://www.w3.org/2000/svg" viewBox="0 0 283.03 234.28"><defs><style>.cls-1{fill:#4d4d4d;}.cls-1,.cls-2,.cls-3,.cls-4,.cls-5,.cls-6,.cls-7,.cls-8,.cls-9,.cls-10{stroke-width:0px;}.cls-2{fill:#0a92cf;}.cls-3{fill:#ccc;}.cls-4{fill:#c6c6c6;}.cls-5{fill:#b3b3b3;}.cls-6{fill:#666;}.cls-7{fill:#999;}.cls-8{fill:#fff;}.cls-9{fill:red;}.cls-10{fill:#e6e6e6;}</style></defs><g id="Layer_3"><rect class="cls-10" x="24.38" y="-24.38" width="234.28" height="283.03" rx="1.58" ry="1.58" transform="translate(258.66 -24.38) rotate(90)"/><rect class="cls-8" x=".62" y="12.73" width="281.79" height="214.59"/><path class="cls-8" d="M38.88,3.29h212.35c.33,0,.6.27.6.6v5.66c0,.33-.27.6-.6.6H38.88c-.33,0-.6-.27-.6-.6V3.89c0-.33.27-.6.6-.6Z"/><path class="cls-3" d="M251.23,10.29H38.88c-.41,0-.75-.33-.75-.75V3.89c0-.41.33-.75.75-.75h212.35c.41,0,.75.33.75.75v5.66c0,.41-.33.75-.75.75ZM38.88,3.44c-.25,0-.45.2-.45.45v5.66c0,.25.2.45.45.45h212.35c.25,0,.45-.2.45-.45V3.89c0-.25-.2-.45-.45-.45H38.88Z"/><rect class="cls-5" x="7.27" y="6.12" width="3.34" height=".93"/><rect class="cls-2" x="8.15" y="6.51" width="2.46" height=".15"/><rect class="cls-5" x="7.68" y="6.04" width="3.4" height="1.09"/><polygon class="cls-2" points="8.33 5.97 7.27 6.59 8.33 7.2 8.33 5.97"/><polygon class="cls-5" points="8.8 8.01 6.34 6.59 8.8 5.16 8.8 8.01"/><rect class="cls-5" x="14.8" y="6.12" width="3.34" height=".93"/><rect class="cls-2" x="14.8" y="6.51" width="2.46" height=".15"/><rect class="cls-5" x="14.33" y="6.04" width="3.4" height="1.09"/><polygon class="cls-2" points="17.08 5.97 18.14 6.59 17.08 7.2 17.08 5.97"/><polygon class="cls-5" points="16.61 8.01 16.61 5.16 19.07 6.59 16.61 8.01"/><path class="cls-9" d="M278.05,6.72c0,.86-.7,1.56-1.56,1.56s-1.56-.7-1.56-1.56.7-1.56,1.56-1.56,1.56.7,1.56,1.56Z"/><circle class="cls-5" cx="271.26" cy="6.72" r="1.56"/><circle class="cls-5" cx="266.03" cy="6.72" r="1.56"/><path class="cls-5" d="M32.43,4.63l1.99,1.99h-.89v2.19h-2.19v-2.19h-.89l1.99-1.99h0ZM32.43,4.03c-.15,0-.31.06-.42.18l-1.99,1.99c-.17.17-.22.43-.13.65.09.22.31.37.55.37h.29v1.59c0,.33.27.6.6.6h2.19c.33,0,.6-.27.6-.6v-1.59h.29c.24,0,.46-.15.55-.37.09-.22.04-.48-.13-.65l-1.99-1.99c-.12-.12-.27-.18-.42-.18h0Z"/><rect class="cls-6" x=".62" y="12.73" width="281.79" height="19.39"/><rect class="cls-6" x="11.77" y="40.67" width="168.37" height="80.99"/><rect class="cls-7" x="190.75" y="40.67" width="78.95" height="133.46"/><rect class="cls-4" x="11.77" y="126.79" width="52.23" height="17.19"/><rect class="cls-4" x="69.84" y="126.79" width="52.23" height="17.19"/><rect class="cls-4" x="127.91" y="126.79" width="52.23" height="17.19"/><rect class="cls-4" x="11.77" y="206.44" width="168.37" height="10.15"/><rect class="cls-10" x="11.77" y="148.3" width="168.37" height="2.51"/><rect class="cls-10" x="11.77" y="153.51" width="168.37" height="2.51"/><rect class="cls-10" x="11.77" y="158.72" width="168.37" height="2.51"/><rect class="cls-10" x="11.77" y="163.93" width="168.37" height="2.51"/><rect class="cls-10" x="11.77" y="169.13" width="168.37" height="2.51"/><rect class="cls-10" x="11.77" y="174.34" width="168.37" height="2.51"/><rect class="cls-10" x="11.77" y="179.35" width="168.37" height="2.51"/><rect class="cls-10" x="11.77" y="184.55" width="168.37" height="2.51"/><rect class="cls-10" x="11.77" y="189.76" width="168.37" height="2.51"/><rect class="cls-10" x="11.77" y="194.97" width="168.37" height="2.51"/><rect class="cls-10" x="11.77" y="200.18" width="168.37" height="2.51"/><rect class="cls-4" x="190.75" y="179.3" width="78.95" height="8.07"/><rect class="cls-7" x="222.06" y="208.95" width="19.03" height="7.64"/><rect class="cls-10" x="222.06" y="192.78" width="47.65" height="2.51"/><rect class="cls-10" x="222.06" y="197.99" width="47.65" height="2.51"/><rect class="cls-10" x="222.06" y="203.2" width="47.65" height="2.51"/><rect class="cls-4" x="191.12" y="192.79" width="23.8" height="23.8"/><circle class="cls-3" cx="97.64" cy="79.85" r="11.22"/><path class="cls-1" d="M97.64,91.54c-6.45,0-11.69-5.24-11.69-11.69s5.24-11.69,11.69-11.69,11.69,5.24,11.69,11.69-5.24,11.69-11.69,11.69ZM97.64,69.1c-5.93,0-10.76,4.83-10.76,10.76s4.83,10.76,10.76,10.76,10.76-4.83,10.76-10.76-4.83-10.76-10.76-10.76Z"/><polygon class="cls-6" points="94.16 85.59 94.16 74.11 103.93 79.85 94.16 85.59"/><path class="cls-5" d="M27.21,6.72l.31-2.08-.67.26c-.52-.59-1.25-.93-2.04-.93-1.52,0-2.75,1.23-2.75,2.75s1.23,2.75,2.75,2.75c.73,0,1.42-.3,1.94-.81l-.53-.51v.06c-.38.36-.88.56-1.41.56-1.13,0-2.05-.92-2.05-2.05s.92-2.05,2.05-2.05c.5,0,.96.19,1.33.51l-.58.23,1.65,1.31Z"/></g></svg>