<?xml version="1.0" encoding="UTF-8"?><svg id="Layer_2" xmlns="http://www.w3.org/2000/svg" viewBox="0 0 283.03 234.28"><defs><style>.cls-1{fill:#0a92cf;}.cls-1,.cls-2,.cls-3,.cls-4,.cls-5,.cls-6,.cls-7,.cls-8,.cls-9{stroke-width:0px;}.cls-2{fill:#ccc;}.cls-3{fill:#c6c6c6;}.cls-4{fill:#b3b3b3;}.cls-5{fill:#666;}.cls-6{fill:#999;}.cls-7{fill:#fff;}.cls-8{fill:red;}.cls-9{fill:#e6e6e6;}</style></defs><g id="Layer_3"><rect class="cls-9" x="24.38" y="-24.38" width="234.28" height="283.03" rx="1.58" ry="1.58" transform="translate(258.66 -24.38) rotate(90)"/><rect class="cls-7" x=".62" y="12.73" width="281.79" height="214.59"/><path class="cls-7" d="M38.88,3.29h212.35c.33,0,.6.27.6.6v5.66c0,.33-.27.6-.6.6H38.88c-.33,0-.6-.27-.6-.6V3.89c0-.33.27-.6.6-.6Z"/><path class="cls-2" d="M251.23,10.29H38.88c-.41,0-.75-.33-.75-.75V3.89c0-.41.33-.75.75-.75h212.35c.41,0,.75.33.75.75v5.66c0,.41-.33.75-.75.75ZM38.88,3.44c-.25,0-.45.2-.45.45v5.66c0,.25.2.45.45.45h212.35c.25,0,.45-.2.45-.45V3.89c0-.25-.2-.45-.45-.45H38.88Z"/><rect class="cls-4" x="7.27" y="6.12" width="3.34" height=".93"/><rect class="cls-1" x="8.15" y="6.51" width="2.46" height=".15"/><rect class="cls-4" x="7.68" y="6.04" width="3.4" height="1.09"/><polygon class="cls-1" points="8.33 5.97 7.27 6.59 8.33 7.2 8.33 5.97"/><polygon class="cls-4" points="8.8 8.01 6.34 6.59 8.8 5.16 8.8 8.01"/><rect class="cls-4" x="14.8" y="6.12" width="3.34" height=".93"/><rect class="cls-1" x="14.8" y="6.51" width="2.46" height=".15"/><rect class="cls-4" x="14.33" y="6.04" width="3.4" height="1.09"/><polygon class="cls-1" points="17.08 5.97 18.14 6.59 17.08 7.2 17.08 5.97"/><polygon class="cls-4" points="16.61 8.01 16.61 5.16 19.07 6.59 16.61 8.01"/><path class="cls-8" d="M278.05,6.72c0,.86-.7,1.56-1.56,1.56s-1.56-.7-1.56-1.56.7-1.56,1.56-1.56,1.56.7,1.56,1.56Z"/><circle class="cls-4" cx="271.26" cy="6.72" r="1.56"/><path class="cls-4" d="M267.59,6.72c0,.86-.7,1.56-1.56,1.56s-1.56-.7-1.56-1.56.7-1.56,1.56-1.56,1.56.7,1.56,1.56Z"/><path class="cls-4" d="M24.81,9.47c-1.52,0-2.75-1.23-2.75-2.75s1.23-2.75,2.75-2.75c.87,0,1.68.4,2.2,1.1l.08.1-.18,3.33-.09.09c-.52.55-1.25.87-2.01.87ZM24.81,4.67c-1.13,0-2.05.92-2.05,2.05s.92,2.05,2.05,2.05c.53,0,1.03-.2,1.41-.56l.15-2.81c-.39-.46-.95-.72-1.56-.72ZM26.56,8.36h0,0Z"/><polygon class="cls-4" points="25.56 5.41 27.21 6.72 27.52 4.64 25.56 5.41"/><path class="cls-4" d="M32.43,4.63l1.99,1.99h-.89v2.19h-2.19v-2.19h-.89l1.99-1.99h0ZM32.43,4.03c-.15,0-.31.06-.42.18l-1.99,1.99c-.17.17-.22.43-.13.65.09.22.31.37.55.37h.29v1.59c0,.33.27.6.6.6h2.19c.33,0,.6-.27.6-.6v-1.59h.29c.24,0,.46-.15.55-.37.09-.22.04-.48-.13-.65l-1.99-1.99c-.12-.12-.27-.18-.42-.18h0Z"/><rect class="cls-5" x=".62" y="12.73" width="281.79" height="19.39"/><rect class="cls-6" x="190.75" y="95.37" width="78.95" height="86.17"/><rect class="cls-9" x="190.92" y="191.52" width="78.95" height="2.62"/><rect class="cls-9" x="190.92" y="196.73" width="78.95" height="2.62"/><rect class="cls-3" x="208.33" y="204" width="6.23" height="6.23"/><rect class="cls-3" x="199.99" y="204" width="6.23" height="6.23"/><rect class="cls-3" x="190.92" y="204" width="6.23" height="6.23"/><rect class="cls-3" x="9.97" y="52.52" width="78.95" height="8.07"/><rect class="cls-3" x="9.97" y="65.61" width="125.15" height="8.07"/><rect class="cls-3" x="9.97" y="202.16" width="21.05" height="8.07"/><rect class="cls-9" x="36.1" y="202.16" width="21.05" height="8.07"/><rect class="cls-7" x="9.97" y="101.48" width="84.18" height="8.07"/><path class="cls-2" d="M94.31,109.71H9.82v-8.38h84.5v8.38ZM10.13,109.39h83.87v-7.76H10.13v7.76Z"/><rect class="cls-7" x="218.94" y="18.57" width="50.76" height="7.64" rx="1.56" ry="1.56"/><path class="cls-2" d="M268.15,26.37h-47.65c-.94,0-1.71-.77-1.71-1.71v-4.52c0-.94.77-1.71,1.71-1.71h47.65c.94,0,1.71.77,1.71,1.71v4.52c0,.94-.77,1.71-1.71,1.71ZM220.5,18.73c-.77,0-1.4.63-1.4,1.4v4.52c0,.77.63,1.4,1.4,1.4h47.65c.77,0,1.4-.63,1.4-1.4v-4.52c0-.77-.63-1.4-1.4-1.4h-47.65Z"/><rect class="cls-3" x="191.12" y="18.57" width="24.18" height="7.64"/><rect class="cls-3" x="9.97" y="18.57" width="9.1" height="7.64"/><rect class="cls-9" x="9.97" y="95.64" width="12.89" height="3.2"/><rect class="cls-7" x="9.97" y="121.53" width="52.26" height="8.07"/><path class="cls-2" d="M62.39,129.75H9.82v-8.38h52.57v8.38ZM10.13,129.44h51.95v-7.76H10.13v7.76Z"/><rect class="cls-9" x="9.97" y="115.69" width="12.89" height="3.2"/><rect class="cls-7" x="9.97" y="141.72" width="170.32" height="53.92"/><path class="cls-2" d="M180.45,195.8H9.82v-54.23h170.63v54.23ZM10.13,195.49h170.01v-53.61H10.13v53.61Z"/><rect class="cls-9" x="9.97" y="135.89" width="12.89" height="3.2"/><rect class="cls-7" x="68.28" y="121.53" width="52.26" height="8.07"/><path class="cls-2" d="M120.69,129.75h-52.57v-8.38h52.57v8.38ZM68.44,129.44h51.95v-7.76h-51.95v7.76Z"/><rect class="cls-9" x="68.28" y="115.69" width="32.7" height="3.2"/><rect class="cls-7" x="128.04" y="121.53" width="52.26" height="8.07"/><path class="cls-2" d="M180.45,129.75h-52.57v-8.38h52.57v8.38ZM128.19,129.44h51.95v-7.76h-51.95v7.76Z"/><rect class="cls-9" x="128.04" y="115.69" width="12.89" height="3.2"/><rect class="cls-3" x="190.92" y="52.52" width="23.8" height="23.8"/><rect class="cls-9" x="190.92" y="78.64" width="23.8" height="3.2"/><rect class="cls-9" x="190.92" y="84.11" width="12.89" height="3.2"/><path class="cls-6" d="M211.47,74.84v-2.83c0-1.23-.79-2.33-1.98-2.71l-4.59-1.48v-1.32c2.55-.85,4.37-3.24,4.37-6.07,0-3.55-2.89-6.42-6.45-6.42s-6.42,2.86-6.42,6.42c0,2.83,1.82,5.22,4.37,6.07v1.32l-4.59,1.48c-.66.19-1.2.63-1.54,1.16-.31.44-.47.98-.47,1.54v2.83h17.31Z"/><rect class="cls-9" x="17.3" y="148.73" width="153.58" height="3.2"/><rect class="cls-9" x="17.3" y="153.93" width="153.58" height="3.2"/><rect class="cls-9" x="17.3" y="159.14" width="153.58" height="3.2"/><rect class="cls-9" x="17.3" y="164.35" width="153.58" height="3.2"/><rect class="cls-9" x="17.3" y="169.56" width="153.58" height="3.2"/><rect class="cls-9" x="17.3" y="174.76" width="45.68" height="3.2"/><rect class="cls-9" x="221.77" y="52.4" width="51.05" height="3.2"/><rect class="cls-9" x="221.77" y="57.61" width="51.05" height="3.2"/><rect class="cls-9" x="221.77" y="62.82" width="51.05" height="3.2"/><rect class="cls-9" x="221.77" y="68.03" width="51.05" height="3.2"/><rect class="cls-9" x="221.77" y="73.23" width="51.05" height="3.2"/><rect class="cls-9" x="221.77" y="78.44" width="15.18" height="3.2"/><polygon class="cls-4" points="269.7 110.95 224.98 146.18 241.39 165.46 269.7 144.66 269.7 155.1 246.86 171.88 255.09 181.54 244.04 181.54 218.37 151.39 190.75 173.15 190.75 162.44 243.21 121.11 218.14 95.37 229.88 95.37 249.85 115.88 269.7 100.25 269.7 110.95"/><polygon class="cls-4" points="207.01 122.84 200.6 128.29 190.75 116.71 190.75 103.73 207.01 122.84"/><rect class="cls-2" x="235.05" y="139.23" width="21.03" height="12.79" transform="translate(-37.1 185.78) rotate(-38.75)"/><polygon class="cls-2" points="226.43 171.52 213.95 181.54 207.51 181.54 202.03 174.71 218.43 161.54 226.43 171.52"/><polygon class="cls-2" points="269.7 118.05 269.7 134.45 261.65 140.92 253.64 130.95 269.7 118.05"/><rect class="cls-2" x="205.57" y="104.26" width="17.32" height="12.79" transform="translate(-22.11 158.47) rotate(-38.75)"/><polygon class="cls-4" points="265.26 95.37 190.75 151.78 190.75 146.31 258.03 95.37 265.26 95.37"/></g></svg>