<?xml version="1.0" encoding="UTF-8"?><svg id="Layer_2" xmlns="http://www.w3.org/2000/svg" xmlns:xlink="http://www.w3.org/1999/xlink" viewBox="0 0 56 55"><defs><style>.cls-1{fill:url(#New_Gradient_Swatch_copy_4);filter:url(#drop-shadow-1);stroke:#fff;stroke-miterlimit:10;stroke-width:.5px;}</style><linearGradient id="New_Gradient_Swatch_copy_4" x1="8.87" y1="20.59" x2="33" y2="20.59" gradientUnits="userSpaceOnUse"><stop offset="0" stop-color="#e0e1e1"/><stop offset="1" stop-color="#b1b0b0"/></linearGradient><filter id="drop-shadow-1" x="0" y="0" width="56" height="55" filterUnits="userSpaceOnUse"><feOffset dx="7" dy="7"/><feGaussianBlur result="blur" stdDeviation="5"/><feFlood flood-color="#000" flood-opacity=".75"/><feComposite in2="blur" operator="in"/><feComposite in="SourceGraphic"/></filter></defs><g id="_ÎÓÈ_1"><path class="cls-1" d="M32.86,20.63s.01-.02.02-.03c.02-.04.04-.07.06-.11,0-.02.01-.04.02-.06.01-.03.02-.07.03-.1,0-.02,0-.04,0-.06,0-.04,0-.07,0-.11,0,0,0,0,0-.01,0-.02,0-.04,0-.06,0-.03,0-.07-.01-.1,0-.03-.02-.06-.02-.08,0-.02-.01-.05-.02-.07,0,0,0,0,0-.01-.01-.03-.03-.05-.04-.08-.01-.03-.03-.05-.04-.07-.01-.02-.03-.04-.05-.05-.02-.03-.04-.05-.07-.08,0,0,0,0,0,0l-11.27-10.55s0,0-.01-.01c-.02-.02-.05-.04-.07-.06-.02-.01-.04-.03-.06-.04-.03-.02-.05-.03-.08-.04-.02-.01-.04-.02-.07-.03-.03-.01-.06-.02-.09-.03-.02,0-.04-.01-.07-.02-.03,0-.06,0-.1,0-.02,0-.04,0-.06,0,0,0,0,0-.01,0-.03,0-.06,0-.08.01-.03,0-.06,0-.09.01,0,0,0,0-.01,0-.02,0-.04.02-.06.02-.03.01-.06.02-.08.03-.03.01-.05.03-.08.05-.02.01-.04.03-.06.04-.03.02-.05.04-.07.06-.02.01-.03.03-.05.04l-11.16,12.24s0,.01-.01.02c-.02.02-.04.05-.06.08-.01.02-.03.04-.04.06-.02.03-.03.06-.04.08-.01.02-.02.05-.03.07,0,.03-.01.05-.02.08,0,.03-.01.06-.02.09,0,0,0,.01,0,.02,0,.02,0,.04,0,.06,0,.02,0,.04,0,.06,0,0,0,.02,0,.02,0,.03,0,.06.01.09,0,.03,0,.05.02.08,0,.03.02.06.03.08,0,.02.02.05.03.07.01.03.03.05.05.08.01.02.03.04.04.06.02.02.04.05.06.07.01.01.02.03.04.04l10.94,9.72s.02.01.03.02c.02.02.04.03.06.05.03.02.05.03.08.05.01,0,.02.01.03.02.02,0,.03.01.05.02,0,0,.02,0,.03.01.04.02.08.03.13.03h.02s.09.02.14.02c.05,0,.1,0,.15-.01.01,0,.03,0,.04,0,.04,0,.07-.02.11-.03.01,0,.03,0,.04-.01.05-.02.09-.04.13-.07,0,0,.02-.01.02-.02.03-.02.07-.05.1-.08,0,0,.01,0,.02-.01l11.49-11.41s0,0,0,0c.04-.04.08-.08.11-.13h0ZM25.18,22.06l-.53-1.94,4.5.33-3.97,1.61ZM17.1,19.76l.24.95,1.08.08-.29-1.14,3.31.24-.26-1.04-3.02-.22,2.45-6.78,2.86,10.4-10.63-.98,4.26-1.52ZM23.32,23.95l-2.65,5.6-1.54-5.98,4.19.39h0ZM24.36,19.08l-1.86-6.79,7.7,7.21-5.84-.42ZM17.06,18.69l-4.89,1.74,7.06-7.74-2.17,6ZM18.05,23.47l1.54,6.01-7.37-6.55,5.82.54h0ZM25.25,23.88l3.29-1.34-5.01,4.98,1.73-3.64Z"/></g></svg>