<?xml version="1.0" encoding="iso-8859-1"?>
<!-- Generator: Adobe Illustrator 19.0.0, SVG Export Plug-In . SVG Version: 6.00 Build 0)  -->
<svg version="1.1" id="Capa_1" xmlns="http://www.w3.org/2000/svg" xmlns:xlink="http://www.w3.org/1999/xlink" x="0px" y="0px"
	 viewBox="0 0 211.255 211.255" style="enable-background:new 0 0 211.255 211.255;" xml:space="preserve">
<g>
	<g>
		<g>
			<path d="M112.454,17.067c-28.232,0-51.2,22.968-51.2,51.2s22.968,51.2,51.2,51.2c28.232,0,51.2-22.968,51.2-51.2
				S140.686,17.067,112.454,17.067z M112.454,112.64c-24.467,0-44.373-19.905-44.373-44.373c0-24.469,19.907-44.373,44.373-44.373
				c24.467,0,44.373,19.905,44.373,44.373C156.827,92.735,136.921,112.64,112.454,112.64z"/>
			<path d="M112.454,51.2c-9.411,0-17.067,7.656-17.067,17.067c0,9.411,7.656,17.067,17.067,17.067s17.067-7.656,17.067-17.067
				C129.521,58.856,121.865,51.2,112.454,51.2z M112.454,78.507c-5.647,0-10.24-4.593-10.24-10.24c0-5.647,4.593-10.24,10.24-10.24
				c5.647,0,10.24,4.593,10.24,10.24C122.694,73.914,118.101,78.507,112.454,78.507z"/>
		</g>
	</g>
</g>
<g>
	<g>
		<path d="M112.454,3.413c-1.884,0-3.413,1.529-3.413,3.413V20.48c0,1.884,1.529,3.413,3.413,3.413s3.413-1.527,3.413-3.413V6.827
			C115.867,4.943,114.338,3.413,112.454,3.413z"/>
	</g>
</g>
<g>
	<g>
		<path d="M126.107,0H98.801c-1.884,0-3.413,1.529-3.413,3.413s1.529,3.413,3.413,3.413h27.307c1.884,0,3.413-1.529,3.413-3.413
			S127.992,0,126.107,0z"/>
	</g>
</g>
<g>
	<g>
		<path d="M64.667,64.853c-1.884,0-3.413,1.529-3.413,3.413v64.853c0,1.884,1.529,3.413,3.413,3.413
			c1.884,0,3.413-1.527,3.413-3.413V68.267C68.081,66.383,66.551,64.853,64.667,64.853z"/>
	</g>
</g>
<g>
	<g>
		<path d="M78.321,129.707H51.014c-1.884,0-3.413,1.529-3.413,3.413v40.96c0,1.884,1.529,3.413,3.413,3.413h27.307
			c1.884,0,3.413-1.527,3.413-3.413v-40.96C81.734,131.236,80.205,129.707,78.321,129.707z M74.907,170.667h-20.48v-34.133h20.48
			V170.667z"/>
	</g>
</g>
<g>
	<g>
		<path d="M64.667,170.667c-1.884,0-3.413,1.529-3.413,3.413v17.067c0,1.884,1.529,3.413,3.413,3.413
			c1.884,0,3.413-1.527,3.413-3.413V174.08C68.081,172.196,66.551,170.667,64.667,170.667z"/>
	</g>
</g>
<g>
	<g>
		<path d="M77.942,191.666c-0.585-1.137-1.756-1.85-3.034-1.85H54.093c-1.278,0-2.449,0.713-3.034,1.85
			c-0.585,1.135-0.488,2.504,0.254,3.543l10.407,14.612c0.64,0.901,1.676,1.434,2.78,1.434c1.104,0,2.14-0.534,2.78-1.434
			l10.407-14.612C78.43,194.169,78.527,192.8,77.942,191.666z M64.5,201.957l-3.785-5.316h7.571L64.5,201.957z"/>
	</g>
</g>
<g>
	<g>
		<path d="M160.241,61.44c-1.884,0-3.413,1.529-3.413,3.413V204.8c0,1.884,1.529,3.413,3.413,3.413s3.413-1.527,3.413-3.413V64.853
			C163.654,62.969,162.125,61.44,160.241,61.44z"/>
	</g>
</g>
<g>
</g>
<g>
</g>
<g>
</g>
<g>
</g>
<g>
</g>
<g>
</g>
<g>
</g>
<g>
</g>
<g>
</g>
<g>
</g>
<g>
</g>
<g>
</g>
<g>
</g>
<g>
</g>
<g>
</g>
</svg>
