<?xml version="1.0" encoding="iso-8859-1"?>
<!-- Generator: Adobe Illustrator 19.0.0, SVG Export Plug-In . SVG Version: 6.00 Build 0)  -->
<svg version="1.1" id="Capa_1" xmlns="http://www.w3.org/2000/svg" xmlns:xlink="http://www.w3.org/1999/xlink" x="0px" y="0px"
	 viewBox="0 0 215.037 215.037" style="enable-background:new 0 0 215.037 215.037;" xml:space="preserve">
<g>
	<g>
		<path d="M214.238,57.674c-0.86-1.026-2.239-1.454-3.526-1.094l-59.529,16.534l-15.782-15.669
			c-1.091-1.082-2.773-1.302-4.104-0.538l-22.395,12.863L72.847,56.658c-1.125-0.408-2.386-0.198-3.318,0.558
			c-0.93,0.756-1.396,1.946-1.227,3.133l10.24,71.68c0.268,1.864,2.004,3.161,3.862,2.895c1.865-0.268,3.162-1.995,2.896-3.862
			l-9.435-66.043l32.196,11.708c0.945,0.341,1.995,0.251,2.867-0.249l21.513-12.356l15.341,15.232
			c0.869,0.864,2.138,1.198,3.318,0.867l54.226-15.061l-30.915,64.92c-0.811,1.702-0.087,3.738,1.615,4.548
			c0.473,0.225,0.973,0.331,1.464,0.331c1.275,0,2.499-0.719,3.081-1.942l34.133-71.68
			C215.281,60.128,215.098,58.698,214.238,57.674z"/>
	</g>
</g>
<g>
	<g>
		<path d="M81.719,148.608c-3.714-0.104-6.625-3.103-6.625-6.823c0-3.765,3.062-6.827,6.827-6.827c1.884,0,3.413-1.529,3.413-3.413
			s-1.529-3.413-3.413-3.413c-7.528,0-13.653,6.125-13.653,13.653c0,7.441,5.825,13.437,13.259,13.647
			c0.032,0.002,0.067,0.002,0.099,0.002c1.84,0,3.357-1.466,3.408-3.316C85.088,150.233,83.603,148.661,81.719,148.608z"/>
	</g>
</g>
<g>
	<g>
		<path d="M179.722,128.314c-1.86-0.294-3.615,0.954-3.922,2.814s0.954,3.616,2.814,3.922c3.306,0.543,5.705,3.374,5.705,6.734
			c0,3.765-3.062,6.827-6.827,6.827c-1.884,0-3.413,1.529-3.413,3.413s1.529,3.413,3.413,3.413c7.528,0,13.653-6.125,13.655-13.652
			C191.148,135.068,186.342,129.403,179.722,128.314z"/>
	</g>
</g>
<g>
	<g>
		<path d="M157.013,179.086c-1.884,0-3.413,1.529-3.413,3.413v17.319c-15.142,4.2-32.645,4.2-47.787,0v-17.62
			c0-1.884-1.529-3.413-3.413-3.413s-3.413,1.529-3.413,3.413v20.171c0,1.493,0.969,2.813,2.394,3.258
			c8.87,2.772,18.598,4.157,28.326,4.157c9.728,0,19.456-1.386,28.326-4.156c1.425-0.445,2.394-1.765,2.394-3.258v-19.872
			C160.427,180.615,158.898,179.086,157.013,179.086z"/>
	</g>
</g>
<g>
	<g>
		<path d="M160.869,97.412H97.162c-10.288,0-18.656,8.37-18.656,18.656v25.718c0,28.232,22.968,51.2,51.2,51.2
			c28.232,0,51.2-22.968,51.2-51.2V117.45C180.907,106.401,171.918,97.412,160.869,97.412z M174.08,141.785
			c0,24.469-19.907,44.373-44.373,44.373c-24.467,0-44.373-19.905-44.373-44.373v-25.718c0-6.523,5.306-11.829,11.829-11.829h63.706
			c7.284,0,13.211,5.926,13.211,13.211V141.785z"/>
	</g>
</g>
<g>
	<g>
		<path d="M109.227,111.065c-9.411,0-17.067,7.656-17.067,17.067c0,9.411,7.656,17.067,17.067,17.067s17.067-7.656,17.067-17.067
			C126.293,118.721,118.637,111.065,109.227,111.065z M109.227,138.372c-5.647,0-10.24-4.593-10.24-10.24
			c0-5.647,4.593-10.24,10.24-10.24c5.647,0,10.24,4.593,10.24,10.24C119.467,133.779,114.874,138.372,109.227,138.372z"/>
	</g>
</g>
<g>
	<g>
		<path d="M150.187,111.065c-9.411,0-17.067,7.656-17.067,17.067c0,9.411,7.656,17.067,17.067,17.067s17.067-7.656,17.067-17.067
			C167.253,118.721,159.597,111.065,150.187,111.065z M150.187,138.372c-5.647,0-10.24-4.593-10.24-10.24
			c0-5.647,4.593-10.24,10.24-10.24c5.647,0,10.24,4.593,10.24,10.24C160.427,133.779,155.834,138.372,150.187,138.372z"/>
	</g>
</g>
<g>
	<g>
		<path d="M146.773,111.065h-37.547c-1.884,0-3.413,1.529-3.413,3.413c0,1.884,1.529,3.413,3.413,3.413h37.547
			c1.886,0,3.413-1.529,3.413-3.413C150.187,112.594,148.658,111.065,146.773,111.065z"/>
	</g>
</g>
<g>
	<g>
		<path d="M61.44,15.492H23.893c-1.884,0-3.413,1.529-3.413,3.413v11.054c0,1.884,1.529,3.413,3.413,3.413h1.971
			c0.782,0,1.655,1.094,1.655,2.555v13.698c0,1.884,1.529,3.413,3.413,3.413H54.4c1.886,0,3.413-1.529,3.413-3.413V35.927
			c0-1.461,0.874-2.555,1.655-2.555h1.971c1.884,0,3.413-1.529,3.413-3.413V18.905C64.853,17.021,63.324,15.492,61.44,15.492z
			 M58.027,26.681c-3.992,0.759-7.04,4.617-7.04,9.247v10.284h-16.64V35.927c0-4.63-3.048-8.487-7.04-9.247v-4.362h30.72V26.681z"/>
	</g>
</g>
<g>
	<g>
		<path d="M54.4,46.212H30.933c-1.884,0-3.413,1.529-3.413,3.413v95.857c0,10.443,5.825,19.081,13.551,20.093
			c0.527,0.068,1.053,0.104,1.579,0.104c3.074,0,6.072-1.171,8.586-3.378c4.118-3.615,6.578-9.644,6.578-16.128V49.625
			C57.813,47.741,56.284,46.212,54.4,46.212z M50.987,146.175c0,4.48-1.63,8.694-4.255,10.998c-1.022,0.896-2.681,1.911-4.775,1.633
			c-4.197-0.55-7.61-6.526-7.61-13.324V53.04h16.64V146.175z"/>
	</g>
</g>
<g>
	<g>
		<path d="M46.788,108.652c-2.202-2.2-6.042-2.2-8.243,0c-2.27,2.272-2.27,5.968,0,8.24c1.101,1.101,2.565,1.707,4.122,1.707
			c1.557,0,3.021-0.608,4.122-1.707C49.058,114.62,49.058,110.923,46.788,108.652z M43.375,113.478c-0.374,0.37-1.043,0.37-1.417,0
			c-0.389-0.389-0.389-1.022,0-1.413c0.186-0.186,0.445-0.294,0.708-0.294s0.522,0.107,0.708,0.294
			C43.764,112.454,43.764,113.088,43.375,113.478z"/>
	</g>
</g>
<g>
	<g>
		<path d="M46.788,71.105c-2.202-2.2-6.042-2.2-8.243,0c-2.27,2.272-2.27,5.968,0,8.24c1.101,1.101,2.565,1.707,4.122,1.707
			c1.557,0,3.021-0.608,4.122-1.707C49.058,77.073,49.058,73.377,46.788,71.105z M43.375,75.932c-0.374,0.37-1.043,0.37-1.417,0
			c-0.389-0.389-0.389-1.022,0-1.413c0.186-0.186,0.445-0.294,0.708-0.294s0.522,0.107,0.708,0.294
			C43.764,74.908,43.764,75.541,43.375,75.932z"/>
	</g>
</g>
<g>
	<g>
		<path d="M105.813,5.252c-1.884,0-3.413,1.529-3.413,3.413v6.827c0,1.884,1.529,3.413,3.413,3.413c1.886,0,3.413-1.529,3.413-3.413
			V8.665C109.227,6.781,107.698,5.252,105.813,5.252z"/>
	</g>
</g>
<g>
	<g>
		<path d="M105.813,25.732c-1.884,0-3.413,1.529-3.413,3.413v6.827c0,1.884,1.529,3.413,3.413,3.413
			c1.886,0,3.413-1.529,3.413-3.413v-6.827C109.227,27.261,107.698,25.732,105.813,25.732z"/>
	</g>
</g>
<g>
	<g>
		<path d="M98.987,18.905H92.16c-1.884,0-3.413,1.529-3.413,3.413s1.529,3.413,3.413,3.413h6.827c1.886,0,3.413-1.529,3.413-3.413
			S100.871,18.905,98.987,18.905z"/>
	</g>
</g>
<g>
	<g>
		<path d="M119.467,18.905h-6.827c-1.884,0-3.413,1.529-3.413,3.413s1.529,3.413,3.413,3.413h6.827c1.886,0,3.413-1.529,3.413-3.413
			S121.351,18.905,119.467,18.905z"/>
	</g>
</g>
<g>
	<g>
		<path d="M17.067,162.265c-1.884,0-3.413,1.529-3.413,3.413v6.827c0,1.884,1.529,3.413,3.413,3.413
			c1.886,0,3.413-1.529,3.413-3.413v-6.827C20.48,163.794,18.951,162.265,17.067,162.265z"/>
	</g>
</g>
<g>
	<g>
		<path d="M17.067,182.745c-1.884,0-3.413,1.529-3.413,3.413v6.827c0,1.884,1.529,3.413,3.413,3.413
			c1.886,0,3.413-1.529,3.413-3.413v-6.827C20.48,184.274,18.951,182.745,17.067,182.745z"/>
	</g>
</g>
<g>
	<g>
		<path d="M10.24,175.918H3.413c-1.884,0-3.413,1.529-3.413,3.413c0,1.884,1.529,3.413,3.413,3.413h6.827
			c1.886,0,3.413-1.529,3.413-3.413C13.653,177.448,12.124,175.918,10.24,175.918z"/>
	</g>
</g>
<g>
	<g>
		<path d="M30.72,175.918h-6.827c-1.884,0-3.413,1.529-3.413,3.413c0,1.884,1.529,3.413,3.413,3.413h6.827
			c1.886,0,3.413-1.529,3.413-3.413C34.133,177.448,32.604,175.918,30.72,175.918z"/>
	</g>
</g>
<g>
	<g>
		<path d="M163.84,8.665c-7.528,0-13.653,6.125-13.653,13.653c0,7.528,6.125,13.653,13.653,13.653s13.653-6.125,13.653-13.653
			C177.493,14.79,171.368,8.665,163.84,8.665z M163.84,29.145c-3.765,0-6.827-3.062-6.827-6.827s3.062-6.827,6.827-6.827
			s6.827,3.062,6.827,6.827S167.605,29.145,163.84,29.145z"/>
	</g>
</g>
<g>
	<g>
		<path d="M58.027,175.918c-7.528,0-13.653,6.125-13.653,13.653c0,7.528,6.125,13.653,13.653,13.653
			c7.528,0,13.653-6.125,13.653-13.653C71.68,182.044,65.555,175.918,58.027,175.918z M58.027,196.398
			c-3.765,0-6.827-3.062-6.827-6.827c0-3.765,3.062-6.827,6.827-6.827c3.765,0,6.827,3.062,6.827,6.827
			C64.853,193.337,61.792,196.398,58.027,196.398z"/>
	</g>
</g>
<g>
</g>
<g>
</g>
<g>
</g>
<g>
</g>
<g>
</g>
<g>
</g>
<g>
</g>
<g>
</g>
<g>
</g>
<g>
</g>
<g>
</g>
<g>
</g>
<g>
</g>
<g>
</g>
<g>
</g>
</svg>
