<?xml version="1.0" encoding="iso-8859-1"?>
<!-- Generator: Adobe Illustrator 19.0.0, SVG Export Plug-In . SVG Version: 6.00 Build 0)  -->
<svg version="1.1" id="Capa_1" xmlns="http://www.w3.org/2000/svg" xmlns:xlink="http://www.w3.org/1999/xlink" x="0px" y="0px"
	 viewBox="0 0 204.8 204.8" style="enable-background:new 0 0 204.8 204.8;" xml:space="preserve">
<g>
	<g>
		<path d="M102.4,0C45.937,0,0,45.937,0,102.4s45.937,102.4,102.4,102.4s102.4-45.937,102.4-102.4S158.863,0,102.4,0z
			 M102.4,197.973c-52.698,0-95.573-42.873-95.573-95.573S49.702,6.827,102.4,6.827c52.698,0,95.573,42.873,95.573,95.573
			S155.098,197.973,102.4,197.973z"/>
	</g>
</g>
<g>
	<g>
		<path d="M80.261,65.606c-0.811-2.492-3.115-4.166-5.736-4.166H65l-2.944-9.059c-0.811-2.493-3.115-4.168-5.736-4.168
			c-0.002,0-0.002,0-0.002,0c-2.621,0-4.925,1.676-5.734,4.168l-2.946,9.059h-9.523c-2.62,0-4.925,1.674-5.736,4.166
			c-0.809,2.493,0.07,5.204,2.191,6.745l7.706,5.598l-2.944,9.059c-0.809,2.493,0.072,5.204,2.193,6.743
			c2.12,1.539,4.97,1.539,7.089,0l7.706-5.598l7.704,5.596c1.06,0.771,2.302,1.157,3.546,1.157c1.242,0,2.485-0.384,3.546-1.155
			c2.12-1.539,3.002-4.251,2.191-6.743l-2.944-9.059l7.707-5.6C80.191,70.81,81.072,68.098,80.261,65.606z M65.882,72.767
			c-2.121,1.541-3.002,4.251-2.191,6.743l2.365,7.281l-6.193-4.499c-2.12-1.539-4.97-1.539-7.089,0l-6.193,4.5l2.365-7.281
			c0.811-2.493-0.068-5.204-2.19-6.745l-6.193-4.5h7.654c2.623,0,4.929-1.676,5.736-4.168l2.367-7.281l2.364,7.281
			c0.809,2.493,3.115,4.168,5.736,4.168h7.656L65.882,72.767z"/>
	</g>
</g>
<g>
	<g>
		<path d="M117.808,127.046c-0.811-2.492-3.115-4.166-5.736-4.166h-9.525l-2.944-9.059c-0.811-2.493-3.115-4.168-5.736-4.168
			c-0.002,0-0.002,0-0.002,0c-2.621,0-4.925,1.676-5.734,4.168l-2.946,9.059h-9.523c-2.62,0-4.925,1.674-5.736,4.166
			c-0.809,2.493,0.07,5.204,2.191,6.745l7.706,5.598l-2.944,9.059c-0.809,2.493,0.072,5.204,2.193,6.743
			c2.12,1.539,4.97,1.539,7.089,0l7.706-5.598l7.704,5.596c1.06,0.771,2.302,1.157,3.547,1.157c1.242,0,2.485-0.384,3.546-1.155
			c2.12-1.539,3.002-4.251,2.191-6.743l-2.944-9.059l7.707-5.6C117.738,132.25,118.618,129.538,117.808,127.046z M103.429,134.207
			c-2.121,1.541-3.002,4.251-2.191,6.743l2.365,7.281l-6.193-4.499c-2.12-1.539-4.97-1.539-7.089,0l-6.193,4.5l2.365-7.281
			c0.811-2.493-0.068-5.204-2.19-6.745l-6.193-4.5h7.654c2.623,0,4.929-1.676,5.736-4.168l2.367-7.281l2.364,7.281
			c0.809,2.493,3.115,4.168,5.736,4.168h7.656L103.429,134.207z"/>
	</g>
</g>
<g>
	<g>
		<path d="M170.337,65.963c-0.893-2.748-3.337-4.523-6.226-4.523h-11.884l-3.671-11.302c-0.893-2.748-3.337-4.523-6.226-4.523
			s-5.333,1.777-6.224,4.523l-3.673,11.302H120.55c-2.889,0-5.333,1.775-6.226,4.523c-0.893,2.748,0.041,5.62,2.377,7.318
			l9.615,6.985l-3.673,11.302c-0.893,2.748,0.043,5.622,2.379,7.318c2.338,1.7,5.357,1.698,7.697,0.002l9.614-6.985l9.614,6.985
			c1.169,0.848,2.507,1.273,3.847,1.273c1.338,0,2.678-0.425,3.843-1.275c2.338-1.696,3.272-4.57,2.379-7.318l-3.673-11.302
			l9.614-6.985C170.296,71.583,171.23,68.71,170.337,65.963z M154.17,74.865c-2.302,1.672-3.256,4.615-2.377,7.318l3.47,10.675
			l-9.081-6.598c-1.15-0.836-2.5-1.254-3.849-1.254c-1.348,0-2.698,0.418-3.845,1.254l-9.081,6.598l3.47-10.677
			c0.877-2.705-0.078-5.646-2.379-7.318l-9.079-6.596h11.223c2.845,0,5.347-1.818,6.224-4.523l3.47-10.675l3.468,10.673
			c0.879,2.707,3.381,4.524,6.226,4.524h11.223L154.17,74.865z"/>
	</g>
</g>
<g>
	<g>
		<path d="M143.36,136.533c-1.884,0-3.413,1.529-3.413,3.413V153.6c0,1.884,1.529,3.413,3.413,3.413s3.413-1.529,3.413-3.413
			v-13.653C146.773,138.063,145.244,136.533,143.36,136.533z"/>
	</g>
</g>
<g>
	<g>
		<path d="M150.187,143.36h-13.653c-1.884,0-3.413,1.529-3.413,3.413s1.529,3.413,3.413,3.413h13.653
			c1.884,0,3.413-1.529,3.413-3.413S152.071,143.36,150.187,143.36z"/>
	</g>
</g>
<g>
	<g>
		<path d="M92.16,27.307c-1.884,0-3.413,1.529-3.413,3.413v13.653c0,1.884,1.529,3.413,3.413,3.413s3.413-1.529,3.413-3.413V30.72
			C95.573,28.836,94.044,27.307,92.16,27.307z"/>
	</g>
</g>
<g>
	<g>
		<path d="M98.987,34.133H85.333c-1.884,0-3.413,1.529-3.413,3.413s1.529,3.413,3.413,3.413h13.653c1.884,0,3.413-1.529,3.413-3.413
			S100.871,34.133,98.987,34.133z"/>
	</g>
</g>
<g>
	<g>
		<path d="M40.96,119.467c-1.884,0-3.413,1.529-3.413,3.413v13.653c0,1.884,1.529,3.413,3.413,3.413s3.413-1.529,3.413-3.413V122.88
			C44.373,120.996,42.844,119.467,40.96,119.467z"/>
	</g>
</g>
<g>
	<g>
		<path d="M47.787,126.293H34.133c-1.884,0-3.413,1.529-3.413,3.413c0,1.884,1.529,3.413,3.413,3.413h13.653
			c1.884,0,3.413-1.529,3.413-3.413C51.2,127.822,49.671,126.293,47.787,126.293z"/>
	</g>
</g>
<g>
	<g>
		<path d="M102.4,167.253c-1.884,0-3.413,1.529-3.413,3.413v13.653c0,1.884,1.529,3.413,3.413,3.413s3.413-1.529,3.413-3.413
			v-13.653C105.813,168.783,104.284,167.253,102.4,167.253z"/>
	</g>
</g>
<g>
	<g>
		<path d="M109.227,174.08H95.573c-1.884,0-3.413,1.529-3.413,3.413s1.529,3.413,3.413,3.413h13.653
			c1.884,0,3.413-1.529,3.413-3.413S111.111,174.08,109.227,174.08z"/>
	</g>
</g>
<g>
</g>
<g>
</g>
<g>
</g>
<g>
</g>
<g>
</g>
<g>
</g>
<g>
</g>
<g>
</g>
<g>
</g>
<g>
</g>
<g>
</g>
<g>
</g>
<g>
</g>
<g>
</g>
<g>
</g>
</svg>
