<?xml version="1.0" encoding="iso-8859-1"?>
<!-- Generator: Adobe Illustrator 19.0.0, SVG Export Plug-In . SVG Version: 6.00 Build 0)  -->
<svg version="1.1" id="Capa_1" xmlns="http://www.w3.org/2000/svg" xmlns:xlink="http://www.w3.org/1999/xlink" x="0px" y="0px"
	 viewBox="0 0 201.387 201.387" style="enable-background:new 0 0 201.387 201.387;" xml:space="preserve">
<g>
	<g>
		<path d="M69.973,105.813c-26.349,0-47.787,21.437-47.787,47.787s21.437,47.787,47.787,47.787
			c26.349,0,47.787-21.437,47.787-47.787S96.323,105.813,69.973,105.813z M69.973,194.56c-22.584,0-40.96-18.376-40.96-40.96
			s18.376-40.96,40.96-40.96c22.584,0,40.96,18.376,40.96,40.96S92.558,194.56,69.973,194.56z"/>
	</g>
</g>
<g>
	<g>
		<path d="M60.652,20.605c-1.824-0.507-3.698,0.556-4.207,2.371L24.045,139.052c-0.507,1.818,0.556,3.7,2.371,4.207
			c0.309,0.085,0.616,0.126,0.92,0.126c1.493,0,2.864-0.988,3.287-2.497L63.022,24.811C63.529,22.994,62.466,21.111,60.652,20.605z"
			/>
	</g>
</g>
<g>
	<g>
		<path d="M163.302,27.515c-1.775-0.643-3.731,0.265-4.376,2.036l-49.761,136.378c-0.647,1.771,0.265,3.729,2.036,4.376
			c0.387,0.14,0.782,0.208,1.171,0.208c1.393,0,2.702-0.86,3.205-2.244l49.761-136.378
			C165.985,30.119,165.074,28.162,163.302,27.515z"/>
	</g>
</g>
<g>
	<g>
		<path d="M98.343,61.611c-1.794-0.592-3.719,0.387-4.306,2.179l-14.872,45.339c-0.589,1.789,0.387,3.717,2.179,4.306
			c0.353,0.118,0.712,0.172,1.063,0.172c1.435,0,2.772-0.913,3.243-2.352l14.872-45.339
			C101.112,64.128,100.135,62.199,98.343,61.611z"/>
	</g>
</g>
<g>
	<g>
		<path d="M63.147,0c-7.528,0-13.653,6.125-13.653,13.653c0,7.528,6.125,13.653,13.653,13.653c7.528,0,13.653-6.125,13.653-13.653
			C76.8,6.125,70.675,0,63.147,0z M63.147,20.48c-3.765,0-6.827-3.062-6.827-6.827c0-3.765,3.062-6.827,6.827-6.827
			c3.765,0,6.827,3.062,6.827,6.827C69.973,17.418,66.912,20.48,63.147,20.48z"/>
	</g>
</g>
<g>
	<g>
		<path d="M63.147,122.88c-7.528,0-13.653,6.125-13.653,13.653c0,7.528,6.125,13.653,13.653,13.653
			c7.528,0,13.653-6.125,13.653-13.653C76.8,129.005,70.675,122.88,63.147,122.88z M63.147,143.36c-3.765,0-6.827-3.062-6.827-6.827
			s3.062-6.827,6.827-6.827c3.765,0,6.827,3.062,6.827,6.827S66.912,143.36,63.147,143.36z"/>
	</g>
</g>
<g>
	<g>
		<path d="M90.453,153.6c-7.528,0-13.653,6.125-13.653,13.653c0,7.528,6.125,13.653,13.653,13.653s13.653-6.125,13.653-13.653
			C104.107,159.725,97.981,153.6,90.453,153.6z M90.453,174.08c-3.765,0-6.827-3.062-6.827-6.827s3.062-6.827,6.827-6.827
			s6.827,3.062,6.827,6.827S94.218,174.08,90.453,174.08z"/>
	</g>
</g>
<g>
	<g>
		<path d="M52.907,157.013c-7.528,0-13.653,6.125-13.653,13.653c0,7.528,6.125,13.653,13.653,13.653
			c7.528,0,13.653-6.125,13.653-13.653C66.56,163.139,60.435,157.013,52.907,157.013z M52.907,177.493
			c-3.765,0-6.827-3.062-6.827-6.827s3.062-6.827,6.827-6.827c3.765,0,6.827,3.062,6.827,6.827S56.672,177.493,52.907,177.493z"/>
	</g>
</g>
<g>
	<g>
		<path d="M100.693,40.96c-7.528,0-13.653,6.125-13.653,13.653c0,7.528,6.125,13.653,13.653,13.653s13.653-6.125,13.653-13.653
			C114.347,47.085,108.221,40.96,100.693,40.96z M100.693,61.44c-3.765,0-6.827-3.062-6.827-6.827c0-3.765,3.062-6.827,6.827-6.827
			s6.827,3.062,6.827,6.827C107.52,58.378,104.458,61.44,100.693,61.44z"/>
	</g>
</g>
<g>
	<g>
		<path d="M165.547,6.827c-7.528,0-13.653,6.125-13.653,13.653c0,7.528,6.125,13.653,13.653,13.653
			c7.528,0,13.653-6.125,13.653-13.653C179.2,12.952,173.075,6.827,165.547,6.827z M165.547,27.307
			c-3.765,0-6.827-3.062-6.827-6.827s3.062-6.827,6.827-6.827s6.827,3.062,6.827,6.827S169.312,27.307,165.547,27.307z"/>
	</g>
</g>
<g>
</g>
<g>
</g>
<g>
</g>
<g>
</g>
<g>
</g>
<g>
</g>
<g>
</g>
<g>
</g>
<g>
</g>
<g>
</g>
<g>
</g>
<g>
</g>
<g>
</g>
<g>
</g>
<g>
</g>
</svg>
