<?xml version="1.0" encoding="iso-8859-1"?>
<!-- Generator: Adobe Illustrator 19.0.0, SVG Export Plug-In . SVG Version: 6.00 Build 0)  -->
<svg version="1.1" id="Capa_1" xmlns="http://www.w3.org/2000/svg" xmlns:xlink="http://www.w3.org/1999/xlink" x="0px" y="0px"
	 viewBox="0 0 215.04 215.04" style="enable-background:new 0 0 215.04 215.04;" xml:space="preserve">
<g>
	<g>
		<path d="M153.6,46.081c-20.704,0-37.547,16.843-37.547,37.547c0,20.704,16.843,37.547,37.547,37.547
			c1.884,0,3.413-1.527,3.413-3.413V49.494C157.013,47.61,155.484,46.081,153.6,46.081z M150.187,114.162
			c-15.338-1.703-27.307-14.747-27.307-30.532s11.969-28.829,27.307-30.532V114.162z"/>
	</g>
</g>
<g>
	<g>
		<path d="M191.147,80.214H153.6c-1.884,0-3.413,1.529-3.413,3.413s1.529,3.413,3.413,3.413h37.547c1.884,0,3.413-1.529,3.413-3.413
			S193.031,80.214,191.147,80.214z"/>
	</g>
</g>
<g>
	<g>
		<path d="M201.387,69.974c-7.528,0-13.653,6.125-13.653,13.653c0,7.528,6.125,13.653,13.653,13.653
			c7.528,0,13.653-6.125,13.653-13.653C215.04,76.1,208.915,69.974,201.387,69.974z M201.387,90.454
			c-3.765,0-6.827-3.062-6.827-6.827s3.062-6.827,6.827-6.827s6.827,3.062,6.827,6.827S205.152,90.454,201.387,90.454z"/>
	</g>
</g>
<g>
	<g>
		<path d="M66.191,105.284c-1.845-0.338-3.632,0.894-3.968,2.748l-10.458,57.516H21.734l19.169-60.235
			c0.572-1.797-0.422-3.715-2.219-4.287c-1.795-0.573-3.715,0.42-4.289,2.217l-20.582,64.684c-0.329,1.038-0.145,2.169,0.498,3.05
			c0.642,0.877,1.666,1.398,2.755,1.398h37.547c1.65,0,3.063-1.179,3.357-2.802l10.969-60.319
			C69.277,107.398,68.047,105.621,66.191,105.284z"/>
	</g>
</g>
<g>
	<g>
		<path d="M167.253,73.388c-1.884,0-3.413,1.529-3.413,3.413v13.653c0,1.884,1.529,3.413,3.413,3.413s3.413-1.527,3.413-3.413
			V76.801C170.667,74.917,169.138,73.388,167.253,73.388z"/>
	</g>
</g>
<g>
	<g>
		<path d="M49.57,56.574L18.434,42.953c-1.056-0.463-2.273-0.362-3.236,0.271c-0.963,0.631-1.544,1.705-1.544,2.857v25.882
			c0,1.884,1.529,3.413,3.413,3.413s3.413-1.527,3.413-3.413V51.3l26.353,11.529c1.725,0.753,3.741-0.032,4.495-1.76
			C52.086,59.342,51.297,57.33,49.57,56.574z"/>
	</g>
</g>
<g>
	<g>
		<path d="M129.198,104.108H63.592c-20.903,0-40.825-7.426-55.228-20.48c14.403-13.054,34.324-20.48,55.228-20.48h65.606
			c1.884,0,3.413-1.529,3.413-3.413s-1.529-3.413-3.413-3.413H63.592c-23.957,0-46.771,9.073-62.592,24.893
			c-0.64,0.64-1,1.507-1,2.413s0.36,1.773,1,2.413c15.821,15.821,38.635,24.893,62.592,24.893h65.606
			c1.886,0,3.413-1.529,3.413-3.413S131.082,104.108,129.198,104.108z"/>
	</g>
</g>
<g>
	<g>
		<path d="M82.033,104.881c-1.947-0.087-3.468,1.403-3.538,3.285c-0.142,3.852-1.546,16.422-13.641,16.422
			c-1.884,0-3.413,1.529-3.413,3.413c0,1.884,1.529,3.413,3.413,3.413c11.914,0,19.948-9.027,20.465-22.997
			C85.386,106.535,83.917,104.951,82.033,104.881z"/>
	</g>
</g>
<g>
	<g>
		<path d="M88.747,69.974c-1.884,0-3.413,1.529-3.413,3.413v20.48c0,1.884,1.529,3.413,3.413,3.413s3.413-1.527,3.413-3.413v-20.48
			C92.16,71.504,90.631,69.974,88.747,69.974z"/>
	</g>
</g>
<g>
	<g>
		<path d="M78.507,69.974c-1.884,0-3.413,1.529-3.413,3.413v20.48c0,1.884,1.529,3.413,3.413,3.413c1.884,0,3.413-1.527,3.413-3.413
			v-20.48C81.92,71.504,80.391,69.974,78.507,69.974z"/>
	</g>
</g>
<g>
	<g>
		<path d="M68.267,69.974c-1.884,0-3.413,1.529-3.413,3.413v20.48c0,1.884,1.529,3.413,3.413,3.413c1.884,0,3.413-1.527,3.413-3.413
			v-20.48C71.68,71.504,70.151,69.974,68.267,69.974z"/>
	</g>
</g>
<g>
</g>
<g>
</g>
<g>
</g>
<g>
</g>
<g>
</g>
<g>
</g>
<g>
</g>
<g>
</g>
<g>
</g>
<g>
</g>
<g>
</g>
<g>
</g>
<g>
</g>
<g>
</g>
<g>
</g>
</svg>
