<?xml version="1.0" encoding="iso-8859-1"?>
<!-- Generator: Adobe Illustrator 19.0.0, SVG Export Plug-In . SVG Version: 6.00 Build 0)  -->
<svg version="1.1" id="Capa_1" xmlns="http://www.w3.org/2000/svg" xmlns:xlink="http://www.w3.org/1999/xlink" x="0px" y="0px"
	 viewBox="0 0 204.8 204.8" style="enable-background:new 0 0 204.8 204.8;" xml:space="preserve">
<g>
	<g>
		<g>
			<path d="M11.223,131.072c-1.314-4.175-2.348-8.484-3.074-12.802c-0.312-1.86-2.074-3.113-3.93-2.802
				c-1.859,0.314-3.113,2.074-2.801,3.932c0.777,4.63,1.884,9.247,3.294,13.722c0.457,1.456,1.804,2.389,3.255,2.389
				c0.34,0,0.684-0.051,1.026-0.159C10.791,134.788,11.79,132.871,11.223,131.072z"/>
			<path d="M16.043,143.33c-0.809-1.7-2.842-2.425-4.548-1.616c-1.702,0.811-2.427,2.847-1.616,4.55
				c2.012,4.229,4.343,8.368,6.929,12.298c0.655,0.997,1.744,1.536,2.855,1.536c0.642,0,1.294-0.181,1.871-0.56
				c1.575-1.038,2.012-3.154,0.976-4.729C20.096,151.139,17.92,147.277,16.043,143.33z"/>
			<path d="M3.555,108.676c1.884-0.056,3.367-1.628,3.313-3.512c-0.027-0.94-0.041-1.884-0.041-2.833
				C6.828,98.878,7.014,95.401,7.38,92c0.201-1.874-1.155-3.557-3.029-3.758c-1.876-0.205-3.558,1.154-3.76,3.028
				C0.2,94.912,0,98.632,0,102.329c0,1.014,0.015,2.026,0.044,3.033c0.053,1.85,1.57,3.313,3.41,3.313
				C3.487,108.674,3.521,108.674,3.555,108.676z"/>
			<path d="M30.491,165.288c-1.242-1.42-3.398-1.562-4.816-0.317c-1.42,1.241-1.562,3.398-0.319,4.816
				c3.094,3.529,6.46,6.878,10.003,9.948c0.647,0.558,1.442,0.833,2.234,0.833c0.956,0,1.906-0.398,2.581-1.178
				c1.234-1.425,1.08-3.579-0.345-4.815C36.521,171.712,33.379,168.587,30.491,165.288z"/>
			<path d="M199.996,85.341c-1.867,0.256-3.173,1.978-2.917,3.847c0.594,4.323,0.894,8.745,0.894,13.141
				c0,1.884,1.529,3.413,3.413,3.413s3.413-1.529,3.413-3.413c0-4.705-0.323-9.44-0.959-14.071
				C203.585,86.39,201.861,85.074,199.996,85.341z"/>
			<path d="M70.752,8.447c-0.664-1.763-2.633-2.656-4.396-1.993c-4.395,1.652-8.714,3.63-12.839,5.874
				c-1.655,0.901-2.266,2.975-1.365,4.63c0.618,1.138,1.79,1.782,3,1.782c0.551,0,1.111-0.133,1.628-0.415
				c3.849-2.096,7.878-3.941,11.979-5.482C70.523,12.181,71.415,10.211,70.752,8.447z"/>
			<path d="M189.937,63.901c1.761,4.009,3.26,8.18,4.451,12.399c0.425,1.504,1.794,2.487,3.284,2.487c0.306,0,0.62-0.044,0.93-0.131
				c1.814-0.512,2.869-2.4,2.357-4.214c-1.277-4.521-2.883-8.992-4.774-13.292c-0.759-1.725-2.775-2.509-4.499-1.749
				C189.961,60.162,189.177,62.174,189.937,63.901z"/>
			<path d="M183.813,52.238c0.645,1.046,1.763,1.621,2.908,1.621c0.611,0,1.229-0.162,1.789-0.505
				c1.604-0.99,2.103-3.092,1.113-4.697c-2.459-3.988-5.224-7.849-8.214-11.474c-1.2-1.452-3.348-1.659-4.804-0.459
				c-1.456,1.2-1.661,3.349-0.461,4.804C178.937,44.911,181.516,48.514,183.813,52.238z"/>
			<path d="M5.545,81.518c0.278,0.068,0.556,0.102,0.831,0.102c1.529,0,2.92-1.034,3.309-2.586
				c1.063-4.246,2.435-8.458,4.076-12.517c0.708-1.748-0.137-3.738-1.884-4.444c-1.744-0.703-3.738,0.137-4.444,1.884
				c-1.76,4.352-3.231,8.866-4.369,13.419C2.604,79.207,3.717,81.059,5.545,81.518z"/>
			<path d="M33.253,34.909c0.86,0,1.72-0.324,2.383-0.969c3.142-3.067,6.519-5.938,10.035-8.535c1.517-1.12,1.838-3.256,0.719-4.774
				c-1.12-1.516-3.258-1.838-4.773-0.717c-3.767,2.779-7.383,5.854-10.747,9.138c-1.35,1.316-1.376,3.478-0.06,4.826
				C31.478,34.566,32.365,34.909,33.253,34.909z"/>
			<path d="M14.863,55.943c0.538,0.311,1.123,0.457,1.702,0.457c1.179,0,2.328-0.614,2.959-1.708
				c2.185-3.787,4.654-7.465,7.342-10.928c1.157-1.488,0.886-3.635-0.602-4.791c-1.488-1.155-3.633-0.886-4.789,0.604
				c-2.879,3.707-5.524,7.646-7.864,11.704C12.669,52.916,13.23,55.003,14.863,55.943z"/>
			<path d="M61.846,188.898c-3.956-1.857-7.825-4.011-11.498-6.402c-1.58-1.027-3.693-0.58-4.722,1
				c-1.029,1.58-0.582,3.695,0.998,4.724c3.936,2.56,8.083,4.869,12.322,6.859c0.468,0.218,0.961,0.323,1.447,0.323
				c1.282,0,2.51-0.725,3.092-1.964C64.287,191.731,63.553,189.7,61.846,188.898z"/>
			<path d="M161.381,177.542c-3.456,2.71-7.124,5.202-10.897,7.404c-1.628,0.949-2.179,3.04-1.229,4.668
				c0.633,1.087,1.777,1.693,2.951,1.693c0.584,0,1.176-0.148,1.719-0.464c4.043-2.357,7.97-5.026,11.67-7.929
				c1.483-1.164,1.742-3.309,0.579-4.792C165.011,176.637,162.865,176.379,161.381,177.542z"/>
			<path d="M171.703,26.944c-3.453-3.176-7.158-6.144-11.011-8.815c-1.55-1.075-3.676-0.689-4.75,0.86
				c-1.073,1.55-0.69,3.676,0.86,4.75c3.596,2.495,7.055,5.263,10.279,8.228c0.657,0.602,1.485,0.901,2.311,0.901
				c0.92,0,1.84-0.372,2.512-1.101C173.181,30.379,173.09,28.22,171.703,26.944z"/>
			<path d="M184.404,157.891c-1.519-1.109-3.657-0.78-4.768,0.744c-2.582,3.535-5.436,6.924-8.48,10.076
				c-1.309,1.357-1.27,3.517,0.085,4.826c0.662,0.64,1.517,0.959,2.371,0.959c0.894,0,1.785-0.348,2.456-1.043
				c3.258-3.376,6.315-7.008,9.079-10.793C186.259,161.139,185.926,159.004,184.404,157.891z"/>
			<path d="M196.446,133.491c-1.763-0.648-3.732,0.249-4.386,2.017c-1.519,4.101-3.34,8.134-5.41,11.991
				c-0.893,1.661-0.27,3.731,1.391,4.622c0.512,0.276,1.067,0.406,1.611,0.406c1.217,0,2.394-0.652,3.011-1.799
				c2.22-4.132,4.171-8.455,5.799-12.851C199.115,136.11,198.214,134.146,196.446,133.491z"/>
			<path d="M86.941,196.661c-4.323-0.705-8.636-1.717-12.817-3.011c-1.802-0.555-3.712,0.452-4.268,2.253
				c-0.556,1.802,0.452,3.714,2.253,4.27c4.482,1.386,9.103,2.471,13.737,3.224c0.186,0.031,0.37,0.044,0.553,0.044
				c1.642,0,3.092-1.19,3.364-2.864C90.064,198.718,88.801,196.963,86.941,196.661z"/>
			<path d="M201.347,106.706c-1.889-0.152-3.521,1.26-3.668,3.139c-0.338,4.374-0.985,8.757-1.92,13.027
				c-0.403,1.842,0.763,3.663,2.604,4.065c0.246,0.053,0.492,0.079,0.734,0.079c1.568,0,2.982-1.089,3.328-2.685
				c1.003-4.576,1.696-9.272,2.06-13.957C204.633,108.495,203.228,106.853,201.347,106.706z"/>
			<path d="M150.081,15.497c0.852-1.683,0.177-3.738-1.504-4.588c-4.19-2.121-8.566-3.966-13.003-5.487
				c-1.787-0.611-3.724,0.34-4.335,2.125c-0.611,1.784,0.34,3.724,2.123,4.335c4.14,1.417,8.221,3.139,12.131,5.117
				c0.495,0.251,1.021,0.369,1.539,0.369C148.279,17.367,149.48,16.683,150.081,15.497z"/>
			<path d="M113.215,197.298c-3.57,0.401-7.209,0.604-10.822,0.604c-0.785,0.002-1.56-0.01-2.335-0.027
				c-1.889-0.113-3.451,1.442-3.497,3.326c-0.046,1.886,1.444,3.451,3.328,3.497c0.777,0.02,1.555,0.031,2.33,0.031
				c3.934,0.019,7.876-0.212,11.759-0.647c1.874-0.21,3.222-1.9,3.011-3.773C116.779,198.435,115.099,197.083,113.215,197.298z"/>
			<path d="M97.519,3.402c-0.155-1.879-1.816-3.275-3.683-3.12c-4.685,0.387-9.378,1.104-13.947,2.13
				c-1.84,0.413-2.997,2.239-2.584,4.077c0.357,1.587,1.766,2.666,3.328,2.666c0.247,0,0.498-0.027,0.751-0.084
				c4.263-0.956,8.643-1.625,13.015-1.987C96.277,6.929,97.674,5.281,97.519,3.402z"/>
			<path d="M124.641,5.789c0.358-1.852-0.853-3.642-2.703-4c-4.596-0.889-9.308-1.466-14.003-1.715
				c-1.869-0.084-3.49,1.345-3.591,3.227c-0.099,1.884,1.345,3.49,3.227,3.591c4.384,0.232,8.781,0.771,13.071,1.601
				c0.218,0.041,0.437,0.061,0.65,0.061C122.897,8.554,124.326,7.421,124.641,5.789z"/>
			<path d="M138.672,190.778c-4.052,1.664-8.26,3.058-12.506,4.145c-1.824,0.468-2.927,2.328-2.459,4.154
				c0.394,1.541,1.782,2.567,3.304,2.567c0.28,0,0.565-0.032,0.848-0.108c4.552-1.166,9.062-2.661,13.404-4.442
				c1.744-0.717,2.577-2.708,1.862-4.454C142.409,190.894,140.416,190.067,138.672,190.778z"/>
		</g>
	</g>
</g>
<g>
	<g>
		<g>
			<path d="M90.356,173.003c-4.277-0.725-8.508-1.847-12.573-3.333c-1.77-0.64-3.731,0.265-4.378,2.034
				c-0.647,1.77,0.263,3.729,2.034,4.378c4.454,1.628,9.09,2.857,13.776,3.651c0.191,0.032,0.384,0.048,0.573,0.048
				c1.633,0,3.079-1.178,3.362-2.842C93.466,175.081,92.215,173.319,90.356,173.003z"/>
			<path d="M39.25,136.276c-0.893-1.657-2.959-2.277-4.623-1.386c-1.659,0.893-2.28,2.964-1.386,4.623
				c2.253,4.181,4.9,8.178,7.871,11.882c0.674,0.841,1.666,1.278,2.666,1.278c0.749,0,1.504-0.246,2.132-0.751
				c1.471-1.181,1.707-3.33,0.527-4.799C43.725,143.743,41.306,140.092,39.25,136.276z"/>
			<path d="M169.417,76.838c0.519,1.364,1.816,2.202,3.191,2.202c0.403,0,0.812-0.073,1.212-0.225
				c1.763-0.669,2.647-2.642,1.976-4.403c-1.688-4.437-3.796-8.745-6.265-12.807c-0.98-1.609-3.077-2.121-4.69-1.143
				c-1.611,0.98-2.123,3.079-1.143,4.69C165.953,68.858,167.876,72.79,169.417,76.838z"/>
			<path d="M87.374,28.659c-0.459-1.826-2.311-2.939-4.142-2.478c-4.605,1.157-9.132,2.746-13.454,4.722
				c-1.715,0.783-2.468,2.807-1.685,4.523c0.573,1.253,1.811,1.993,3.106,1.993c0.474,0,0.957-0.099,1.418-0.311
				c3.942-1.802,8.073-3.251,12.276-4.308C86.724,32.342,87.834,30.487,87.374,28.659z"/>
			<path d="M66.027,164.112c-3.729-2.203-7.284-4.762-10.563-7.603c-1.425-1.236-3.579-1.084-4.814,0.343
				c-1.236,1.423-1.08,3.579,0.343,4.814c3.589,3.11,7.479,5.912,11.563,8.322c0.544,0.323,1.142,0.474,1.732,0.474
				c1.169,0,2.306-0.601,2.942-1.678C68.19,167.162,67.651,165.071,66.027,164.112z"/>
			<path d="M34.152,124.309c-1.326-4.12-2.28-8.39-2.836-12.694c-0.242-1.869-1.952-3.198-3.823-2.947
				c-1.871,0.241-3.19,1.952-2.947,3.823c0.609,4.714,1.656,9.393,3.108,13.908c0.466,1.449,1.806,2.371,3.248,2.371
				c0.348,0,0.7-0.053,1.048-0.164C33.743,128.026,34.729,126.103,34.152,124.309z"/>
			<path d="M32.295,75.138c0.449,0.198,0.917,0.294,1.377,0.294c1.311,0,2.56-0.759,3.123-2.036
				c1.749-3.958,3.874-7.784,6.318-11.372c1.062-1.558,0.659-3.681-0.899-4.743c-1.558-1.06-3.681-0.659-4.743,0.899
				c-2.674,3.929-5.002,8.12-6.919,12.455C29.79,72.361,30.57,74.377,32.295,75.138z"/>
			<path d="M27.232,101.842c0.06,0.003,0.119,0.005,0.177,0.005c1.804,0,3.313-1.417,3.406-3.239
				c0.222-4.342,0.841-8.675,1.838-12.882c0.433-1.833-0.7-3.673-2.534-4.108c-1.838-0.427-3.674,0.7-4.11,2.534
				c-1.091,4.608-1.768,9.354-2.012,14.106C23.902,100.142,25.349,101.745,27.232,101.842z"/>
			<path d="M61.326,43.577c1.545-1.082,1.92-3.21,0.838-4.755c-1.082-1.543-3.21-1.92-4.755-0.838
				c-3.881,2.72-7.543,5.815-10.883,9.196c-1.324,1.341-1.311,3.502,0.031,4.826c0.664,0.657,1.531,0.985,2.398,0.985
				c0.881,0,1.76-0.34,2.427-1.016C54.432,48.884,57.779,46.06,61.326,43.577z"/>
			<path d="M175.435,120.208c-1.809-0.534-3.705,0.505-4.236,2.314c-1.219,4.157-2.828,8.226-4.784,12.095
				c-0.852,1.683-0.177,3.736,1.505,4.588c0.493,0.249,1.019,0.367,1.538,0.367c1.246,0,2.447-0.684,3.05-1.874
				c2.144-4.241,3.907-8.699,5.243-13.256C178.28,122.635,177.244,120.739,175.435,120.208z"/>
			<path d="M164.297,144.999c-1.5-1.142-3.644-0.85-4.784,0.652c-2.627,3.454-5.579,6.687-8.779,9.61
				c-1.391,1.271-1.488,3.43-0.217,4.821c0.672,0.737,1.596,1.111,2.521,1.111c0.823,0,1.647-0.295,2.302-0.893
				c3.502-3.2,6.734-6.738,9.609-10.52C166.089,148.281,165.798,146.139,164.297,144.999z"/>
			<path d="M110.761,31.13c0.133,0.017,0.266,0.024,0.398,0.024c1.708,0,3.185-1.282,3.384-3.019
				c0.218-1.872-1.125-3.567-2.997-3.784c-4.697-0.544-9.556-0.666-14.235-0.367c-1.881,0.121-3.307,1.742-3.188,3.625
				c0.121,1.881,1.761,3.318,3.625,3.188C102.021,30.522,106.467,30.632,110.761,31.13z"/>
			<path d="M155.959,54.689c0.674,0.756,1.609,1.143,2.55,1.143c0.809,0,1.62-0.285,2.27-0.865c1.408-1.253,1.534-3.412,0.28-4.82
				c-3.156-3.545-6.654-6.823-10.395-9.743c-1.485-1.162-3.63-0.894-4.791,0.591c-1.161,1.487-0.896,3.632,0.591,4.791
				C149.879,48.454,153.076,51.45,155.959,54.689z"/>
			<path d="M179.627,88.14c-0.34-1.855-2.125-3.074-3.971-2.744c-1.855,0.34-3.084,2.116-2.744,3.971
				c0.777,4.246,1.169,8.605,1.169,12.962c0.002,2.476-0.126,4.975-0.379,7.429c-0.193,1.874,1.171,3.552,3.046,3.744
				c0.118,0.014,0.237,0.019,0.353,0.019c1.727,0,3.21-1.306,3.389-3.065c0.276-2.688,0.416-5.424,0.416-8.131
				C180.907,97.562,180.477,92.788,179.627,88.14z"/>
			<path d="M116.275,172.667c-4.236,0.831-8.591,1.28-12.943,1.335c-1.886,0.022-3.395,1.572-3.371,3.456
				c0.026,1.87,1.548,3.371,3.413,3.371c0.015,0,0.029,0,0.043,0c4.762-0.06,9.53-0.551,14.17-1.461
				c1.85-0.364,3.057-2.157,2.693-4.007C119.917,173.51,118.125,172.304,116.275,172.667z"/>
			<path d="M137.1,39.129c1.23,0,2.42-0.666,3.029-1.833c0.872-1.671,0.224-3.732-1.447-4.606
				c-4.212-2.196-8.648-4.021-13.184-5.415c-1.806-0.555-3.712,0.454-4.267,2.258c-0.555,1.802,0.456,3.712,2.258,4.265
				c4.14,1.275,8.19,2.937,12.034,4.944C136.028,39.006,136.567,39.129,137.1,39.129z"/>
			<path d="M140.375,163.136c-3.685,2.304-7.593,4.279-11.612,5.869c-1.754,0.693-2.613,2.676-1.92,4.429
				c0.529,1.343,1.816,2.161,3.174,2.161c0.418,0,0.843-0.077,1.256-0.241c4.405-1.743,8.685-3.907,12.721-6.431
				c1.597-1,2.082-3.104,1.084-4.704C144.077,162.62,141.971,162.135,140.375,163.136z"/>
		</g>
	</g>
</g>
<g>
	<g>
		<g>
			<path d="M82.546,62.263c0.476,0,0.957-0.097,1.418-0.309c3.845-1.76,7.922-2.954,12.116-3.553
				c1.867-0.266,3.164-1.993,2.898-3.86c-0.265-1.865-1.988-3.157-3.86-2.896c-4.844,0.69-9.551,2.07-13.993,4.103
				c-1.715,0.783-2.468,2.809-1.684,4.523C80.014,61.524,81.251,62.263,82.546,62.263z"/>
			<path d="M58.027,102.329c0-4.255,0.601-8.462,1.785-12.501c0.529-1.807-0.507-3.703-2.316-4.234
				c-1.804-0.539-3.705,0.503-4.236,2.314c-1.367,4.663-2.06,9.516-2.06,14.421c0,1.884,1.529,3.413,3.413,3.413
				S58.027,104.213,58.027,102.329z"/>
			<path d="M60.343,79.366c0.572,0.367,1.212,0.543,1.845,0.543c1.123,0,2.222-0.551,2.872-1.565
				c2.292-3.558,5.077-6.772,8.279-9.55c1.423-1.234,1.577-3.391,0.341-4.815c-1.234-1.423-3.389-1.577-4.815-0.341
				c-3.692,3.203-6.903,6.907-9.545,11.01C58.3,76.232,58.757,78.345,60.343,79.366z"/>
			<path d="M139.735,78.34c0.654,1.014,1.753,1.565,2.874,1.565c0.633,0,1.273-0.174,1.843-0.543
				c1.586-1.021,2.043-3.133,1.022-4.719c-2.644-4.105-5.856-7.808-9.549-11.01c-1.425-1.236-3.581-1.082-4.815,0.341
				c-1.236,1.425-1.08,3.579,0.343,4.815C134.658,71.566,137.443,74.78,139.735,78.34z"/>
			<path d="M108.718,58.401c4.192,0.599,8.267,1.794,12.116,3.553c0.461,0.21,0.944,0.309,1.418,0.309
				c1.294,0,2.533-0.739,3.103-1.995c0.785-1.715,0.029-3.739-1.685-4.524c-4.442-2.029-9.151-3.41-13.99-4.099
				c-1.867-0.266-3.594,1.029-3.86,2.896C105.554,56.407,106.851,58.136,108.718,58.401z"/>
			<path d="M149.222,112.511c-1.811-0.526-3.703,0.507-4.234,2.318c-1.186,4.053-2.953,7.917-5.248,11.482
				c-1.021,1.586-0.563,3.698,1.022,4.719c0.572,0.367,1.212,0.543,1.845,0.543c1.121,0,2.22-0.551,2.871-1.565
				c2.65-4.118,4.69-8.579,6.06-13.263C152.069,114.938,151.031,113.042,149.222,112.511z"/>
			<path d="M131.461,135.86c-3.205,2.78-6.779,5.082-10.622,6.842c-1.715,0.785-2.468,2.809-1.683,4.523
				c0.573,1.254,1.811,1.993,3.106,1.993c0.474,0,0.957-0.097,1.418-0.311c4.434-2.029,8.557-4.685,12.254-7.892
				c1.423-1.234,1.575-3.391,0.341-4.815C135.042,134.778,132.886,134.626,131.461,135.86z"/>
			<path d="M151.54,87.904c-0.531-1.807-2.422-2.852-4.236-2.314c-1.809,0.529-2.847,2.423-2.316,4.234
				c1.184,4.043,1.785,8.25,1.785,12.505c0,1.884,1.529,3.413,3.413,3.413s3.413-1.529,3.415-3.413
				C153.602,97.424,152.907,92.572,151.54,87.904z"/>
			<path d="M59.814,114.835c-0.531-1.809-2.435-2.852-4.236-2.314c-1.809,0.529-2.847,2.425-2.316,4.234
				c1.374,4.685,3.413,9.144,6.064,13.261c0.654,1.014,1.753,1.565,2.874,1.565c0.631,0,1.273-0.174,1.843-0.543
				c1.586-1.022,2.043-3.133,1.022-4.719C62.768,122.754,61.001,118.89,59.814,114.835z"/>
			<path d="M83.968,142.707c-3.845-1.76-7.421-4.062-10.624-6.839c-1.423-1.236-3.581-1.082-4.815,0.341
				c-1.236,1.425-1.08,3.579,0.343,4.815c3.695,3.205,7.818,5.859,12.256,7.888c0.461,0.212,0.944,0.311,1.418,0.311
				c1.294,0,2.533-0.737,3.106-1.993C86.436,145.516,85.681,143.49,83.968,142.707z"/>
			<path d="M108.721,146.255c-4.151,0.592-8.487,0.591-12.64,0.002c-1.87-0.268-3.596,1.029-3.86,2.896
				c-0.266,1.867,1.031,3.596,2.898,3.86c2.393,0.341,4.842,0.515,7.281,0.515c2.441,0,4.893-0.174,7.284-0.514
				c1.867-0.268,3.164-1.995,2.898-3.862C112.316,147.286,110.592,146.007,108.721,146.255z"/>
		</g>
	</g>
</g>
<g>
	<g>
		<path d="M102.4,78.435c-13.175,0-23.893,10.718-23.893,23.893c0,13.175,10.718,23.893,23.893,23.893s23.893-10.718,23.893-23.893
			C126.293,89.153,115.575,78.435,102.4,78.435z M102.4,119.395c-9.411,0-17.067-7.656-17.067-17.067
			c0-9.411,7.656-17.067,17.067-17.067s17.067,7.656,17.067,17.067C119.467,111.739,111.811,119.395,102.4,119.395z"/>
	</g>
</g>
<g>
</g>
<g>
</g>
<g>
</g>
<g>
</g>
<g>
</g>
<g>
</g>
<g>
</g>
<g>
</g>
<g>
</g>
<g>
</g>
<g>
</g>
<g>
</g>
<g>
</g>
<g>
</g>
<g>
</g>
</svg>
