<?xml version="1.0" encoding="iso-8859-1"?>
<!-- Generator: Adobe Illustrator 19.0.0, SVG Export Plug-In . SVG Version: 6.00 Build 0)  -->
<svg version="1.1" id="Capa_1" xmlns="http://www.w3.org/2000/svg" xmlns:xlink="http://www.w3.org/1999/xlink" x="0px" y="0px"
	 viewBox="0 0 201.387 201.387" style="enable-background:new 0 0 201.387 201.387;" xml:space="preserve">
<g>
	<g>
		<path d="M100.693,78.507c-9.411,0-17.067,7.656-17.067,17.067s7.656,17.067,17.067,17.067s17.067-7.656,17.067-17.067
			S110.104,78.507,100.693,78.507z M100.693,105.813c-5.647,0-10.24-4.593-10.24-10.24c0-5.647,4.593-10.24,10.24-10.24
			c5.647,0,10.24,4.593,10.24,10.24C110.933,101.221,106.341,105.813,100.693,105.813z"/>
	</g>
</g>
<g>
	<g>
		<path d="M100.693,54.613c-22.586,0-40.96,18.376-40.96,40.96c0,7.948,2.302,15.676,6.656,22.345
			c1.029,1.579,3.145,2.022,4.724,0.993c1.579-1.031,2.024-3.145,0.993-4.724c-3.628-5.559-5.547-11.994-5.547-18.615
			c0-18.821,15.312-34.133,34.133-34.133s34.133,15.312,34.133,34.133c0,6.62-1.918,13.056-5.547,18.615
			c-1.029,1.579-0.585,3.693,0.993,4.724c0.575,0.375,1.222,0.555,1.862,0.555c1.114,0,2.207-0.544,2.862-1.548
			c4.354-6.67,6.656-14.397,6.656-22.345C141.653,72.989,123.279,54.613,100.693,54.613z"/>
	</g>
</g>
<g>
	<g>
		<path d="M100.693,27.307c-37.642,0-68.267,30.624-68.267,68.267c0,12.138,3.292,24.122,9.52,34.654
			c0.638,1.077,1.775,1.676,2.942,1.676c0.589,0,1.19-0.154,1.732-0.474c1.623-0.959,2.161-3.053,1.201-4.675
			c-5.606-9.482-8.569-20.265-8.569-31.181c0-33.879,27.561-61.44,61.44-61.44s61.44,27.561,61.44,61.44
			c0,10.592-2.784,21.077-8.05,30.326c-0.934,1.638-0.362,3.722,1.277,4.656c1.642,0.934,3.724,0.362,4.656-1.278
			c5.852-10.274,8.945-21.931,8.945-33.703C168.96,57.931,138.336,27.307,100.693,27.307z"/>
	</g>
</g>
<g>
	<g>
		<path d="M100.693,0C47.995,0,5.12,42.873,5.12,95.573c0,15.026,3.41,29.435,10.136,42.824c0.599,1.195,1.804,1.884,3.053,1.882
			c0.515,0,1.038-0.116,1.529-0.362c1.686-0.848,2.365-2.898,1.519-4.582c-6.245-12.431-9.411-25.81-9.411-39.762
			c0-48.935,39.811-88.747,88.747-88.747s88.747,39.811,88.747,88.747c0,13.619-3.012,26.699-8.953,38.869
			c-0.826,1.693-0.125,3.738,1.57,4.564c1.696,0.833,3.738,0.126,4.565-1.57c6.4-13.111,9.644-27.196,9.644-41.863
			C196.267,42.873,153.392,0,100.693,0z"/>
	</g>
</g>
<g>
	<g>
		<path d="M100.693,105.813c-1.884,0-3.413,1.529-3.413,3.413v88.747c0,1.884,1.529,3.413,3.413,3.413s3.413-1.529,3.413-3.413
			v-88.747C104.107,107.343,102.577,105.813,100.693,105.813z"/>
	</g>
</g>
<g>
</g>
<g>
</g>
<g>
</g>
<g>
</g>
<g>
</g>
<g>
</g>
<g>
</g>
<g>
</g>
<g>
</g>
<g>
</g>
<g>
</g>
<g>
</g>
<g>
</g>
<g>
</g>
<g>
</g>
</svg>
