<?xml version="1.0" encoding="iso-8859-1"?>
<!-- Generator: Adobe Illustrator 19.0.0, SVG Export Plug-In . SVG Version: 6.00 Build 0)  -->
<svg version="1.1" id="Capa_1" xmlns="http://www.w3.org/2000/svg" xmlns:xlink="http://www.w3.org/1999/xlink" x="0px" y="0px"
	 viewBox="0 0 213.903 213.903" style="enable-background:new 0 0 213.903 213.903;" xml:space="preserve">
<g>
	<g>
		<path d="M23.308,171.202c-1.297-1.507-3.878-1.507-5.175,0c-2.418,2.811-14.479,17.251-14.479,25.634
			c0,9.411,7.656,17.067,17.067,17.067c9.412,0,17.067-7.658,17.067-17.067C37.787,188.451,25.726,174.011,23.308,171.202z
			 M20.722,207.075c-5.647,0-10.24-4.593-10.24-10.24c0-3.652,5.364-11.844,10.24-18.031c4.876,6.183,10.238,14.372,10.24,18.031
			C30.962,202.482,26.37,207.075,20.722,207.075z"/>
	</g>
</g>
<g>
	<g>
		<path d="M187.812,57.627l-35.19-35.19c-1.333-1.333-3.495-1.333-4.826,0l-93.431,93.43c-11.032,11.032-11.032,28.984,0,40.016
			c5.516,5.516,12.762,8.274,20.009,8.274c7.245,0,14.493-2.756,20.009-8.272l93.43-93.431
			C189.145,61.12,189.145,58.96,187.812,57.627z M89.556,151.057c-4.055,4.055-9.446,6.289-15.182,6.289s-11.127-2.234-15.182-6.289
			c-8.37-8.371-8.37-21.992,0.002-30.363l91.018-91.017l30.362,30.362L89.556,151.057z"/>
	</g>
</g>
<g>
	<g>
		<path d="M184.697,54.512L155.735,25.55c-1.331-1.333-3.495-1.333-4.826,0c-1.333,1.333-1.333,3.494,0,4.826l28.962,28.962
			c0.666,0.667,1.539,1,2.413,1s1.748-0.333,2.413-1C186.03,58.006,186.03,55.845,184.697,54.512z"/>
	</g>
</g>
<g>
	<g>
		<path d="M206.834,13.068l-9.655-9.655c-1.331-1.333-3.495-1.333-4.826,0L170.216,25.55c-1.333,1.333-1.333,3.494,0,4.826
			l9.655,9.655c0.666,0.667,1.539,1,2.413,1s1.748-0.335,2.413-1l22.137-22.137C208.167,16.561,208.167,14.4,206.834,13.068z
			 M182.284,32.79l-4.826-4.826l17.309-17.309l4.826,4.826L182.284,32.79z"/>
	</g>
</g>
<g>
	<g>
		<path d="M209.249,15.481L194.768,1c-1.333-1.333-3.495-1.333-4.826,0c-1.333,1.333-1.333,3.494,0,4.826l14.481,14.481
			c0.667,0.667,1.539,1,2.413,1c0.872,0,1.748-0.333,2.413-1C210.582,18.974,210.582,16.814,209.249,15.481z"/>
	</g>
</g>
<g>
	<g>
		<path d="M170.218,59.34l-9.655-9.655c-1.333-1.333-3.495-1.333-4.826,0c-1.333,1.333-1.333,3.494,0,4.826l9.655,9.655
			c0.667,0.667,1.539,1,2.413,1c0.872,0,1.746-0.333,2.413-1C171.551,62.834,171.551,60.673,170.218,59.34z"/>
	</g>
</g>
<g>
	<g>
		<path d="M150.909,78.648l-9.655-9.655c-1.331-1.333-3.495-1.333-4.826,0c-1.333,1.333-1.333,3.494,0,4.826l9.655,9.655
			c0.666,0.667,1.539,1,2.413,1c0.872,0,1.746-0.333,2.413-1C152.241,82.141,152.241,79.981,150.909,78.648z"/>
	</g>
</g>
<g>
	<g>
		<path d="M131.599,97.957l-9.655-9.655c-1.333-1.333-3.495-1.333-4.826,0c-1.333,1.333-1.333,3.494,0,4.826l9.655,9.655
			c0.667,0.667,1.539,1,2.413,1c0.874,0,1.748-0.333,2.413-1C132.932,101.451,132.932,99.29,131.599,97.957z"/>
	</g>
</g>
<g>
	<g>
		<path d="M112.29,117.266l-9.655-9.655c-1.331-1.333-3.495-1.333-4.826,0c-1.333,1.333-1.333,3.494,0,4.826l9.655,9.655
			c0.666,0.667,1.539,1,2.413,1c0.874,0,1.748-0.335,2.413-1C113.623,120.76,113.623,118.599,112.29,117.266z"/>
	</g>
</g>
<g>
	<g>
		<path d="M90.568,138.989l-9.655-9.655c-1.331-1.333-3.495-1.333-4.826,0c-1.333,1.333-1.333,3.494,0,4.826l9.655,9.655
			c0.666,0.667,1.539,1,2.413,1c0.874,0,1.748-0.335,2.413-1C91.901,142.482,91.901,140.322,90.568,138.989z"/>
	</g>
</g>
<g>
	<g>
		<path d="M58.505,151.743c-1.331-1.333-3.495-1.333-4.826,0l-18.669,18.669c-1.333,1.333-1.333,3.494,0,4.826
			c0.666,0.667,1.539,1,2.413,1c0.874,0,1.748-0.333,2.413-1l18.669-18.669C59.837,155.236,59.837,153.076,58.505,151.743z"/>
	</g>
</g>
<g>
	<g>
		<path d="M202.245,52.845L156.387,6.987c-1.333-1.333-3.494-1.333-4.826,0l-9.655,9.655c-0.64,0.64-1,1.509-1,2.413
			c0,0.904,0.36,1.773,1,2.413l45.858,45.858c0.667,0.667,1.539,1,2.413,1c0.874,0,1.748-0.333,2.413-1l9.655-9.655
			c0.64-0.64,1-1.509,1-2.413S202.885,53.485,202.245,52.845z M190.179,60.086l-41.032-41.032l4.826-4.826l41.033,41.03
			L190.179,60.086z"/>
	</g>
</g>
<g>
</g>
<g>
</g>
<g>
</g>
<g>
</g>
<g>
</g>
<g>
</g>
<g>
</g>
<g>
</g>
<g>
</g>
<g>
</g>
<g>
</g>
<g>
</g>
<g>
</g>
<g>
</g>
<g>
</g>
</svg>
