<?xml version="1.0" encoding="iso-8859-1"?>
<!-- Generator: Adobe Illustrator 19.0.0, SVG Export Plug-In . SVG Version: 6.00 Build 0)  -->
<svg version="1.1" id="Capa_1" xmlns="http://www.w3.org/2000/svg" xmlns:xlink="http://www.w3.org/1999/xlink" x="0px" y="0px"
	 viewBox="0 0 206.233 206.233" style="enable-background:new 0 0 206.233 206.233;" xml:space="preserve">
<g>
	<g>
		<path d="M183.513,42.03L164.203,22.72c-1.331-1.333-3.495-1.333-4.826,0L48.351,133.746c-1.333,1.333-1.333,3.494,0,4.826
			l19.308,19.309c0.64,0.64,1.509,1,2.413,1c0.906,0,1.773-0.36,2.415-1L183.513,46.856c0.64-0.64,1-1.509,1-2.413
			S184.153,42.67,183.513,42.03z M70.074,150.64l-14.481-14.481L161.792,29.962l14.481,14.481L70.074,150.64z"/>
	</g>
</g>
<g>
	<g>
		<path d="M188.339,46.858l-28.964-28.962c-1.333-1.333-3.495-1.333-4.826,0c-1.333,1.333-1.333,3.494,0,4.826l28.964,28.962
			c0.667,0.667,1.539,1,2.413,1c0.872,0,1.748-0.334,2.413-1C189.672,50.351,189.672,48.191,188.339,46.858z"/>
	</g>
</g>
<g>
	<g>
		<path d="M202.82,13.068l-9.655-9.655c-1.331-1.333-3.495-1.333-4.826,0l-24.136,24.136c-1.333,1.333-1.333,3.494,0,4.826
			l9.655,9.655c0.666,0.667,1.539,1,2.413,1c0.874,0,1.748-0.333,2.413-1l24.136-24.136C204.153,16.561,204.153,14.4,202.82,13.068z
			 M176.271,34.788l-4.826-4.826l19.307-19.308l4.826,4.826L176.271,34.788z"/>
	</g>
</g>
<g>
	<g>
		<path d="M205.233,15.481L190.752,1c-1.331-1.333-3.495-1.333-4.826,0c-1.333,1.333-1.333,3.494,0,4.826l14.481,14.481
			c0.666,0.667,1.539,1,2.413,1c0.874,0,1.748-0.333,2.413-1C206.566,18.974,206.566,16.814,205.233,15.481z"/>
	</g>
</g>
<g>
	<g>
		<path d="M173.856,51.684l-9.655-9.655c-1.331-1.333-3.495-1.333-4.826,0c-1.333,1.333-1.333,3.494,0,4.826l9.655,9.655
			c0.666,0.667,1.539,1,2.413,1s1.748-0.333,2.413-1C175.189,55.178,175.189,53.017,173.856,51.684z"/>
	</g>
</g>
<g>
	<g>
		<path d="M164.205,61.339l-4.828-4.826c-1.335-1.333-3.495-1.333-4.828,0c-1.333,1.335-1.333,3.495,0,4.828l4.828,4.826
			c0.667,0.666,1.539,0.998,2.413,0.998c0.872,0,1.748-0.333,2.415-0.998C165.538,64.832,165.538,62.672,164.205,61.339z"/>
	</g>
</g>
<g>
	<g>
		<path d="M154.549,70.993l-9.655-9.655c-1.331-1.333-3.495-1.333-4.826,0c-1.333,1.333-1.333,3.494,0,4.826l9.655,9.655
			c0.666,0.667,1.539,1,2.413,1c0.874,0,1.748-0.334,2.413-1C155.882,74.487,155.882,72.326,154.549,70.993z"/>
	</g>
</g>
<g>
	<g>
		<path d="M144.894,80.648l-4.828-4.828c-1.331-1.333-3.495-1.333-4.826,0c-1.333,1.333-1.333,3.494,0,4.826l4.828,4.828
			c0.666,0.667,1.539,1,2.413,1c0.874,0,1.748-0.333,2.413-1C146.227,84.142,146.227,81.981,144.894,80.648z"/>
	</g>
</g>
<g>
	<g>
		<path d="M135.24,90.303l-9.655-9.655c-1.331-1.333-3.495-1.333-4.826,0c-1.333,1.333-1.333,3.494,0,4.826l9.655,9.655
			c0.666,0.667,1.539,1,2.413,1c0.874,0,1.748-0.335,2.413-1C136.572,93.796,136.572,91.636,135.24,90.303z"/>
	</g>
</g>
<g>
	<g>
		<path d="M125.585,99.954l-4.826-4.828c-1.335-1.333-3.495-1.331-4.828,0c-1.333,1.335-1.333,3.495,0,4.828l4.826,4.828
			c0.667,0.667,1.541,1,2.415,1s1.748-0.333,2.413-1C126.918,103.447,126.918,101.287,125.585,99.954z"/>
	</g>
</g>
<g>
	<g>
		<path d="M115.93,109.61l-9.655-9.655c-1.331-1.333-3.495-1.333-4.826,0c-1.333,1.333-1.333,3.494,0,4.826l9.655,9.655
			c0.666,0.667,1.539,1,2.413,1c0.874,0,1.748-0.333,2.413-1C117.263,113.104,117.263,110.943,115.93,109.61z"/>
	</g>
</g>
<g>
	<g>
		<path d="M106.277,119.265l-4.828-4.828c-1.331-1.333-3.495-1.333-4.826,0c-1.333,1.333-1.333,3.494,0,4.826l4.828,4.828
			c0.666,0.667,1.539,1,2.413,1c0.872,0,1.748-0.333,2.413-1C107.61,122.758,107.61,120.598,106.277,119.265z"/>
	</g>
</g>
<g>
	<g>
		<path d="M94.208,131.333l-9.655-9.655c-1.331-1.333-3.495-1.333-4.826,0c-1.333,1.333-1.333,3.494,0,4.826l9.655,9.655
			c0.666,0.667,1.539,1,2.413,1c0.874,0,1.748-0.333,2.413-1C95.541,134.826,95.541,132.666,94.208,131.333z"/>
	</g>
</g>
<g>
	<g>
		<path d="M84.557,140.987l-4.828-4.826c-1.335-1.333-3.495-1.333-4.828,0c-1.333,1.335-1.333,3.495,0,4.828l4.828,4.826
			c0.667,0.666,1.539,0.998,2.413,0.998c0.872,0,1.748-0.333,2.415-0.998C85.89,144.481,85.89,142.32,84.557,140.987z"/>
	</g>
</g>
<g>
	<g>
		<path d="M62.146,144.087c-1.331-1.333-3.495-1.333-4.826,0L1,200.407c-1.333,1.333-1.333,3.494,0,4.826
			c0.666,0.667,1.539,1,2.413,1c0.874,0,1.748-0.333,2.413-1l56.32-56.32C63.479,147.58,63.479,145.42,62.146,144.087z"/>
	</g>
</g>
<g>
</g>
<g>
</g>
<g>
</g>
<g>
</g>
<g>
</g>
<g>
</g>
<g>
</g>
<g>
</g>
<g>
</g>
<g>
</g>
<g>
</g>
<g>
</g>
<g>
</g>
<g>
</g>
<g>
</g>
</svg>
