<?xml version="1.0" encoding="iso-8859-1"?>
<!-- Generator: Adobe Illustrator 19.0.0, SVG Export Plug-In . SVG Version: 6.00 Build 0)  -->
<svg version="1.1" id="Capa_1" xmlns="http://www.w3.org/2000/svg" xmlns:xlink="http://www.w3.org/1999/xlink" x="0px" y="0px"
	 viewBox="0 0 204.8 204.8" style="enable-background:new 0 0 204.8 204.8;" xml:space="preserve">
<g>
	<g>
		<path d="M146.775,51.2h-3.401c-1.884,0-3.413,1.529-3.413,3.413s1.529,3.413,3.413,3.413h3.401c3.765,0,6.827,3.062,6.827,6.827
			c0,3.765-3.062,6.827-6.827,6.827h-2.978c-1.884,0-3.413,1.529-3.413,3.413c0,1.884,1.529,3.413,3.413,3.413h2.978
			c7.528,0,13.653-6.125,13.653-13.653C160.428,57.325,154.303,51.2,146.775,51.2z"/>
	</g>
</g>
<g>
	<g>
		<path d="M60.851,71.68h-2.823c-3.765,0-6.827-3.062-6.827-6.827c0-3.765,3.062-6.827,6.827-6.827h3.034
			c1.884,0,3.413-1.529,3.413-3.413S62.947,51.2,61.063,51.2h-3.034c-7.528,0-13.653,6.125-13.653,13.653
			c0,7.528,6.125,13.653,13.653,13.653h2.823c1.886,0,3.413-1.529,3.413-3.413C64.265,73.209,62.735,71.68,60.851,71.68z"/>
	</g>
</g>
<g>
	<g>
		<path d="M146.381,143.85l-25.214-5.214c-1.838-0.384-3.651,0.806-4.033,2.652c-0.381,1.845,0.806,3.651,2.652,4.033l25.545,5.282
			c0.227,0.048,0.459,0.072,0.691,0.072c13.589,0,24.644,11.933,24.644,26.6v20.698H34.133v-20.698
			c0-14.667,11.056-26.6,24.644-26.6c0.232,0,0.464-0.024,0.691-0.072l25.518-5.277c1.847-0.381,3.034-2.186,2.652-4.033
			c-0.381-1.847-2.198-3.036-4.033-2.652l-25.187,5.209c-17.188,0.205-31.111,15.119-31.111,33.425v24.112
			c0,1.884,1.529,3.413,3.413,3.413h143.36c1.884,0,3.413-1.529,3.41-3.413v-24.112C177.492,158.969,163.569,144.055,146.381,143.85
			z"/>
	</g>
</g>
<g>
	<g>
		<path d="M119.468,116.053H85.335c-1.884,0-3.413,1.529-3.413,3.413v23.04c0,1.292,0.73,2.475,1.886,3.053
			c5.823,2.912,12.208,4.366,18.594,4.366c6.385,0,12.773-1.456,18.594-4.366c1.155-0.579,1.886-1.76,1.886-3.053v-23.04
			C122.882,117.582,121.353,116.053,119.468,116.053z M116.055,140.327c-8.683,3.7-18.623,3.7-27.307,0V122.88h27.307V140.327z"/>
	</g>
</g>
<g>
	<g>
		<path d="M143.363,51.84c-1.884,0-3.413,1.529-3.413,3.413v36.166c0,13.583-11.052,24.634-24.634,24.634H89.489
			c-13.583,0-24.634-11.052-24.634-24.634V55.434c0-1.884-1.529-3.413-3.413-3.413s-3.413,1.529-3.413,3.413v35.985
			c0,17.348,14.112,31.461,31.459,31.461h25.827c17.348,0,31.461-14.112,31.462-31.461V55.253
			C146.777,53.369,145.248,51.84,143.363,51.84z"/>
	</g>
</g>
<g>
	<g>
		<path d="M157.015,6.827h-26.337c-1.884,0-3.413,1.529-3.413,3.413s1.529,3.413,3.413,3.413h22.924V31.28
			c0,10.984-8.936,19.92-19.92,19.92h-82.48V34.133c0-1.884-1.529-3.413-3.413-3.413s-3.413,1.529-3.413,3.413v20.48
			c0,1.884,1.529,3.413,3.413,3.413h85.893c14.749,0,26.747-11.998,26.747-26.747V10.24C160.428,8.356,158.899,6.827,157.015,6.827z
			"/>
	</g>
</g>
<g>
	<g>
		<path d="M129.708,0H62.012c-9.725,0-17.637,7.912-17.637,17.637v16.497c0,1.884,1.529,3.413,3.413,3.413h58.586
			c14.749,0,26.747-11.998,26.747-26.747V3.413C133.122,1.529,131.593,0,129.708,0z M126.295,10.8c0,10.984-8.936,19.92-19.92,19.92
			H51.202V17.637c0-5.961,4.849-10.81,10.81-10.81h64.283V10.8z"/>
	</g>
</g>
<g>
	<g>
		<path d="M81.922,51.2c-9.411,0-17.067,7.656-17.067,17.067c0,9.411,7.656,17.067,17.067,17.067s17.067-7.656,17.067-17.067
			C98.988,58.856,91.332,51.2,81.922,51.2z M81.922,78.507c-5.647,0-10.24-4.593-10.24-10.24c0-5.647,4.593-10.24,10.24-10.24
			c5.647,0,10.24,4.593,10.24,10.24C92.162,73.914,87.569,78.507,81.922,78.507z"/>
	</g>
</g>
<g>
	<g>
		<path d="M122.882,51.2c-9.411,0-17.067,7.656-17.067,17.067c0,9.411,7.656,17.067,17.067,17.067
			c9.411,0,17.067-7.656,17.067-17.067C139.948,58.856,132.292,51.2,122.882,51.2z M122.882,78.507
			c-5.647,0-10.24-4.593-10.24-10.24c0-5.647,4.593-10.24,10.24-10.24c5.647,0,10.24,4.593,10.24,10.24
			C133.122,73.914,128.529,78.507,122.882,78.507z"/>
	</g>
</g>
<g>
	<g>
		<path d="M119.866,139.971c-1.869-0.218-3.569,1.118-3.789,2.99l-6.472,55.013H95.196l-6.472-55.013
			c-0.22-1.872-1.917-3.21-3.789-2.99c-1.87,0.22-3.21,1.917-2.99,3.789l6.827,58.027c0.201,1.719,1.659,3.014,3.389,3.014h20.48
			c1.731,0,3.188-1.295,3.388-3.014l6.827-58.027C123.076,141.887,121.738,140.191,119.866,139.971z"/>
	</g>
</g>
<g>
	<g>
		<path d="M102.402,153.583c-1.884,0-3.43,1.545-3.43,3.43s1.546,3.43,3.43,3.43s3.43-1.544,3.43-3.43
			S104.286,153.583,102.402,153.583z"/>
	</g>
</g>
<g>
	<g>
		<path d="M102.402,167.236c-1.884,0-3.43,1.544-3.43,3.43s1.546,3.43,3.43,3.43s3.43-1.545,3.43-3.43
			S104.286,167.236,102.402,167.236z"/>
	</g>
</g>
<g>
	<g>
		<path d="M102.402,180.89c-1.884,0-3.43,1.544-3.43,3.43s1.546,3.43,3.43,3.43s3.43-1.545,3.43-3.43S104.286,180.89,102.402,180.89
			z"/>
	</g>
</g>
<g>
</g>
<g>
</g>
<g>
</g>
<g>
</g>
<g>
</g>
<g>
</g>
<g>
</g>
<g>
</g>
<g>
</g>
<g>
</g>
<g>
</g>
<g>
</g>
<g>
</g>
<g>
</g>
<g>
</g>
</svg>
