<?xml version="1.0" encoding="iso-8859-1"?>
<!-- Generator: Adobe Illustrator 19.0.0, SVG Export Plug-In . SVG Version: 6.00 Build 0)  -->
<svg version="1.1" id="Capa_1" xmlns="http://www.w3.org/2000/svg" xmlns:xlink="http://www.w3.org/1999/xlink" x="0px" y="0px"
	 viewBox="0 0 193.971 193.971" style="enable-background:new 0 0 193.971 193.971;" xml:space="preserve">
<g>
	<g>
		<path d="M172.017,13.435L50.404,0.083c-3.7-0.401-7.33,0.654-10.23,2.98c-2.9,2.328-4.721,5.644-5.127,9.339l-0.974,8.875
			c-0.207,1.876,1.147,3.56,3.021,3.767c1.874,0.208,3.558-1.147,3.765-3.021l0.976-8.876c0.205-1.882,1.133-3.574,2.611-4.758
			c1.478-1.188,3.335-1.737,5.214-1.519L171.273,20.22c1.882,0.207,3.574,1.133,4.76,2.613c1.186,1.48,1.725,3.33,1.517,5.214
			l-15.959,145.365c-0.312,2.84-2.284,5.205-5.021,6.025c-1.806,0.539-2.831,2.44-2.292,4.248c0.442,1.48,1.799,2.437,3.268,2.437
			c0.324,0,0.654-0.048,0.98-0.143c5.371-1.608,9.238-6.246,9.851-11.822l15.959-145.364
			C185.174,21.161,179.648,14.273,172.017,13.435z"/>
	</g>
</g>
<g>
	<g>
		<path d="M145.816,19.891H23.472c-7.677,0-13.921,6.245-13.921,13.921V180.05c0,7.677,6.245,13.921,13.921,13.921h122.344
			c7.677,0,13.921-6.245,13.921-13.921V33.812C159.738,26.136,153.493,19.891,145.816,19.891z M152.911,180.05
			c0,3.912-3.183,7.095-7.095,7.095H23.472c-3.912,0-7.095-3.183-7.095-7.095V33.812c0-3.912,3.183-7.095,7.095-7.095v0h122.344
			c3.912,0,7.095,3.183,7.095,7.095V180.05z"/>
	</g>
</g>
<g>
	<g>
		<path d="M37.272,61.262c-0.899-0.976-2.543-1.889-4.931-2.743c-1.423-0.505-2.48-0.973-3.169-1.393
			c-0.691-0.42-1.181-0.882-1.471-1.386c-0.292-0.503-0.437-1.15-0.437-1.94c0-1.07,0.394-1.903,1.183-2.507
			c0.79-0.602,1.886-0.903,3.287-0.903c1.777,0,3.604,0.393,5.485,1.183l0.824-2.307c-1.899-0.829-3.983-1.246-6.246-1.246
			c-2.171,0-3.915,0.521-5.234,1.56c-1.318,1.036-1.978,2.434-1.978,4.19c0,1.674,0.456,3.028,1.364,4.067
			c0.908,1.036,2.423,1.937,4.541,2.693c1.514,0.541,2.644,1.024,3.388,1.451c0.742,0.427,1.273,0.889,1.589,1.393
			s0.474,1.15,0.474,1.94c0,1.195-0.445,2.127-1.34,2.797c-0.894,0.671-2.222,1.003-3.987,1.003c-1.082,0-2.171-0.113-3.272-0.343
			c-1.101-0.227-2.118-0.541-3.053-0.934v2.553c1.452,0.696,3.529,1.043,6.229,1.043c2.493,0,4.466-0.56,5.92-1.679
			c1.454-1.123,2.181-2.686,2.181-4.69C38.621,63.508,38.172,62.238,37.272,61.262z"/>
	</g>
</g>
<g>
	<g>
		<path d="M47.028,66.645c-1.399-1.623-2.098-3.927-2.098-6.907c0-2.898,0.724-5.18,2.173-6.847c1.451-1.667,3.425-2.5,5.929-2.5
			c1.722,0,3.446,0.404,5.173,1.215l1.121-2.273c-1.787-0.874-3.874-1.311-6.263-1.311c-2.243,0-4.192,0.48-5.849,1.434
			c-1.657,0.957-2.923,2.318-3.802,4.084c-0.875,1.763-1.316,3.82-1.316,6.166c0,3.75,0.913,6.644,2.736,8.677
			c1.823,2.036,4.41,3.053,7.765,3.053c2.316,0,4.263-0.294,5.842-0.887v-2.319c-2.036,0.57-3.849,0.857-5.437,0.857
			C50.414,69.086,48.424,68.272,47.028,66.645z"/>
	</g>
</g>
<g>
	<g>
		<rect x="63.407" y="48.351" width="2.649" height="22.774"/>
	</g>
</g>
<g>
	<g>
		<polygon points="84.996,50.701 84.996,48.351 72.302,48.351 72.302,71.125 84.996,71.125 84.996,68.758 74.949,68.758 
			74.949,60.375 84.388,60.375 84.388,58.038 74.949,58.038 74.949,50.701 		"/>
	</g>
</g>
<g>
	<g>
		<path d="M105.358,48.351v13.066c-0.022,0.657,0.005,1.742,0.077,3.267c0.073,1.521,0.119,2.42,0.14,2.7h-0.123L93.036,48.351
			h-2.99v22.774h2.446V58.178c0-1.865-0.084-3.924-0.249-6.166h0.123l12.447,19.113h3.023V48.351H105.358z"/>
	</g>
</g>
<g>
	<g>
		<path d="M117.844,66.645c-1.399-1.623-2.097-3.927-2.097-6.907c0-2.898,0.724-5.18,2.173-6.847c1.451-1.667,3.425-2.5,5.929-2.5
			c1.722,0,3.446,0.404,5.173,1.215l1.121-2.273c-1.787-0.874-3.874-1.311-6.263-1.311c-2.243,0-4.192,0.48-5.849,1.434
			c-1.657,0.957-2.924,2.318-3.802,4.084c-0.876,1.763-1.316,3.82-1.316,6.166c0,3.75,0.913,6.644,2.736,8.677
			c1.823,2.036,4.41,3.053,7.765,3.053c2.316,0,4.263-0.294,5.842-0.887v-2.319c-2.036,0.57-3.849,0.857-5.437,0.857
			C121.23,69.086,119.24,68.272,117.844,66.645z"/>
	</g>
</g>
<g>
	<g>
		<polygon points="146.917,50.701 146.917,48.351 134.223,48.351 134.223,71.125 146.917,71.125 146.917,68.758 136.87,68.758 
			136.87,60.375 146.31,60.375 146.31,58.038 136.87,58.038 136.87,50.701 		"/>
	</g>
</g>
<g>
	<g>
		<path d="M142.671,81.331H26.618c-1.884,0-3.413,1.529-3.413,3.413c0,1.884,1.529,3.413,3.413,3.413h116.053
			c1.886,0,3.413-1.529,3.413-3.413C146.084,82.86,144.555,81.331,142.671,81.331z"/>
	</g>
</g>
<g>
	<g>
		<path d="M142.671,98.398H98.298c-1.884,0-3.413,1.529-3.413,3.413v51.2c0,1.884,1.529,3.413,3.413,3.413h44.373
			c1.886,0,3.413-1.527,3.413-3.413v-51.2C146.084,99.927,144.555,98.398,142.671,98.398z M139.258,149.598h-37.547v-44.373h37.547
			V149.598z"/>
	</g>
</g>
<g>
	<g>
		<path d="M88.058,98.398h-61.44c-1.884,0-3.413,1.529-3.413,3.413s1.529,3.413,3.413,3.413h61.44c1.886,0,3.413-1.529,3.413-3.413
			S89.942,98.398,88.058,98.398z"/>
	</g>
</g>
<g>
	<g>
		<path d="M88.058,115.464h-61.44c-1.884,0-3.413,1.529-3.413,3.413s1.529,3.413,3.413,3.413h61.44c1.886,0,3.413-1.529,3.413-3.413
			S89.942,115.464,88.058,115.464z"/>
	</g>
</g>
<g>
	<g>
		<path d="M88.058,132.531h-61.44c-1.884,0-3.413,1.529-3.413,3.413c0,1.884,1.529,3.413,3.413,3.413h61.44
			c1.886,0,3.413-1.529,3.413-3.413C91.471,134.06,89.942,132.531,88.058,132.531z"/>
	</g>
</g>
<g>
	<g>
		<path d="M88.058,149.598h-61.44c-1.884,0-3.413,1.529-3.413,3.413c0,1.884,1.529,3.413,3.413,3.413h61.44
			c1.886,0,3.413-1.529,3.413-3.413C91.471,151.127,89.942,149.598,88.058,149.598z"/>
	</g>
</g>
<g>
	<g>
		<path d="M142.671,166.664H26.618c-1.884,0-3.413,1.529-3.413,3.413s1.529,3.413,3.413,3.413h116.053
			c1.886,0,3.413-1.529,3.413-3.413S144.555,166.664,142.671,166.664z"/>
	</g>
</g>
<g>
</g>
<g>
</g>
<g>
</g>
<g>
</g>
<g>
</g>
<g>
</g>
<g>
</g>
<g>
</g>
<g>
</g>
<g>
</g>
<g>
</g>
<g>
</g>
<g>
</g>
<g>
</g>
<g>
</g>
</svg>
