<?xml version="1.0" encoding="iso-8859-1"?>
<!-- Generator: Adobe Illustrator 19.0.0, SVG Export Plug-In . SVG Version: 6.00 Build 0)  -->
<svg version="1.1" id="Capa_1" xmlns="http://www.w3.org/2000/svg" xmlns:xlink="http://www.w3.org/1999/xlink" x="0px" y="0px"
	 viewBox="0 0 218.509 218.509" style="enable-background:new 0 0 218.509 218.509;" xml:space="preserve">
<g>
	<g>
		<path d="M109.254,68.294c-22.586,0-40.96,18.374-40.96,40.96s18.374,40.96,40.96,40.96s40.96-18.374,40.96-40.96
			S131.84,68.294,109.254,68.294z M109.254,143.387c-18.821,0-34.133-15.312-34.133-34.133s15.312-34.133,34.133-34.133
			s34.133,15.312,34.133,34.133S128.075,143.387,109.254,143.387z"/>
	</g>
</g>
<g>
	<g>
		<path d="M155.177,4.057c-4.072-1.78-10.897-0.35-27.631,26.73c-11.252,18.208-24.035,43.331-36,70.738
			s-21.693,53.862-27.397,74.494c-8.48,30.679-4.891,36.656-0.816,38.434c0.705,0.307,1.49,0.519,2.396,0.519
			c4.333,0,11.394-4.85,25.233-27.249c11.252-18.208,24.038-43.331,36.002-70.738c11.965-27.407,21.693-53.862,27.397-74.494
			C162.842,11.812,159.253,5.835,155.177,4.057z M120.708,114.253c-27.353,62.66-48.807,91.692-54.559,93.749
			c-2.403-5.612,4.297-41.085,31.652-103.747c27.354-62.664,48.809-91.696,54.559-93.749
			C154.763,16.118,148.062,51.591,120.708,114.253z"/>
	</g>
</g>
<g>
	<g>
		<path d="M170.353,161.777c-10.936-18.4-27.291-41.358-46.053-64.647c-18.761-23.287-37.712-44.155-53.364-58.757
			c-23.27-21.712-30.234-21.297-33.695-18.505c-3.463,2.79-5.352,9.501,10.911,36.862c10.936,18.4,27.291,41.358,46.053,64.647
			c18.761,23.287,37.714,44.155,53.364,58.757c16.889,15.758,25.187,19.859,29.792,19.859c1.741,0,2.956-0.587,3.905-1.353
			C184.727,195.849,186.616,189.138,170.353,161.777z M176.85,193.161c-6.089-0.469-34.435-22.825-77.327-76.066
			C56.629,63.853,40.82,31.399,41.658,25.349c6.093,0.471,34.439,22.828,77.327,76.066
			C161.878,154.657,177.688,187.11,176.85,193.161z"/>
	</g>
</g>
<g>
	<g>
		<path d="M218.186,73.068c-1.401-4.221-7.026-8.335-38.349-2.676c-21.064,3.808-48.294,11.097-76.674,20.524
			c-28.38,9.428-54.559,19.881-73.714,29.433C0.965,134.555-1.078,141.22,0.323,145.441c0.91,2.741,3.604,5.441,13.978,5.441
			c5.589,0,13.406-0.783,24.373-2.765c21.064-3.808,48.294-11.097,76.674-20.524c28.38-9.428,54.559-19.881,73.714-29.433
			C217.546,83.953,219.589,77.286,218.186,73.068z M183.295,93.387c-18.601,9.042-43.496,18.889-70.1,27.727
			c-26.604,8.839-52.442,15.845-72.757,19.731c-24.627,4.71-31.677,3.053-33.364,2.353c0.93-1.572,5.591-7.117,28.138-18.077
			c18.603-9.042,43.498-18.889,70.101-27.727c26.605-8.839,52.442-15.845,72.757-19.731c24.625-4.709,31.679-3.053,33.364-2.353
			C210.502,76.88,205.845,82.427,183.295,93.387z"/>
	</g>
</g>
<g>
	<g>
		<path d="M126.321,23.921c-7.528,0-13.653,6.125-13.653,13.653s6.125,13.653,13.653,13.653c7.528,0,13.653-6.125,13.653-13.653
			S133.849,23.921,126.321,23.921z M126.321,44.401c-3.765,0-6.827-3.062-6.827-6.827s3.062-6.827,6.827-6.827
			s6.827,3.062,6.827,6.827S130.086,44.401,126.321,44.401z"/>
	</g>
</g>
<g>
	<g>
		<path d="M165.574,143.387c-8.469,0-15.36,6.891-15.36,15.36s6.891,15.36,15.36,15.36c8.47,0,15.36-6.891,15.36-15.36
			S174.043,143.387,165.574,143.387z M165.574,167.281c-4.705,0-8.533-3.828-8.533-8.533c0-4.705,3.828-8.533,8.533-8.533
			s8.533,3.828,8.533,8.533C174.108,163.453,170.28,167.281,165.574,167.281z"/>
	</g>
</g>
<g>
	<g>
		<path d="M47.814,126.321c-7.528,0-13.653,6.125-13.653,13.653c0,7.528,6.125,13.653,13.653,13.653
			c7.528,0,13.653-6.125,13.653-13.653C61.468,132.446,55.342,126.321,47.814,126.321z M47.814,146.801
			c-3.765,0-6.827-3.062-6.827-6.827s3.062-6.827,6.827-6.827s6.827,3.062,6.827,6.827S51.579,146.801,47.814,146.801z"/>
	</g>
</g>
<g>
</g>
<g>
</g>
<g>
</g>
<g>
</g>
<g>
</g>
<g>
</g>
<g>
</g>
<g>
</g>
<g>
</g>
<g>
</g>
<g>
</g>
<g>
</g>
<g>
</g>
<g>
</g>
<g>
</g>
</svg>
