<?xml version="1.0" encoding="iso-8859-1"?>
<!-- Generator: Adobe Illustrator 19.0.0, SVG Export Plug-In . SVG Version: 6.00 Build 0)  -->
<svg version="1.1" id="Capa_1" xmlns="http://www.w3.org/2000/svg" xmlns:xlink="http://www.w3.org/1999/xlink" x="0px" y="0px"
	 viewBox="0 0 211.627 211.627" style="enable-background:new 0 0 211.627 211.627;" xml:space="preserve">
<g>
	<g>
		<path d="M23.893,105.813H3.413c-1.884,0-3.413,1.529-3.413,3.413v20.48c0,1.884,1.529,3.413,3.413,3.413h20.48
			c1.884,0,3.413-1.529,3.413-3.413v-20.48C27.307,107.343,25.778,105.813,23.893,105.813z M20.48,126.293H6.827V112.64H20.48
			V126.293z"/>
	</g>
</g>
<g>
	<g>
		<path d="M23.893,126.293H3.413c-1.884,0-3.413,1.529-3.413,3.413v20.48c0,1.884,1.529,3.413,3.413,3.413h20.48
			c1.884,0,3.413-1.529,3.413-3.413v-20.48C27.307,127.823,25.778,126.293,23.893,126.293z M20.48,146.773H6.827V133.12H20.48
			V146.773z"/>
	</g>
</g>
<g>
	<g>
		<path d="M23.893,146.773H3.413c-1.884,0-3.413,1.529-3.413,3.413v20.48c0,1.884,1.529,3.413,3.413,3.413h20.48
			c1.884,0,3.413-1.529,3.413-3.413v-20.48C27.307,148.303,25.778,146.773,23.893,146.773z M20.48,167.253H6.827V153.6H20.48
			V167.253z"/>
	</g>
</g>
<g>
	<g>
		<path d="M44.373,105.813h-20.48c-1.884,0-3.413,1.529-3.413,3.413v20.48c0,1.884,1.529,3.413,3.413,3.413h20.48
			c1.884,0,3.413-1.529,3.413-3.413v-20.48C47.787,107.343,46.257,105.813,44.373,105.813z M40.96,126.293H27.307V112.64H40.96
			V126.293z"/>
	</g>
</g>
<g>
	<g>
		<path d="M44.373,126.293h-20.48c-1.884,0-3.413,1.529-3.413,3.413v20.48c0,1.884,1.529,3.413,3.413,3.413h20.48
			c1.884,0,3.413-1.529,3.413-3.413v-20.48C47.787,127.823,46.257,126.293,44.373,126.293z M40.96,146.773H27.307V133.12H40.96
			V146.773z"/>
	</g>
</g>
<g>
	<g>
		<path d="M44.373,146.773h-20.48c-1.884,0-3.413,1.529-3.413,3.413v20.48c0,1.884,1.529,3.413,3.413,3.413h20.48
			c1.884,0,3.413-1.529,3.413-3.413v-20.48C47.787,148.303,46.257,146.773,44.373,146.773z M40.96,167.253H27.307V153.6H40.96
			V167.253z"/>
	</g>
</g>
<g>
	<g>
		<path d="M187.733,105.813h-20.48c-1.884,0-3.413,1.529-3.413,3.413v20.48c0,1.884,1.529,3.413,3.413,3.413h20.48
			c1.884,0,3.413-1.529,3.413-3.413v-20.48C191.147,107.343,189.618,105.813,187.733,105.813z M184.32,126.293h-13.653V112.64
			h13.653V126.293z"/>
	</g>
</g>
<g>
	<g>
		<path d="M187.733,126.293h-20.48c-1.884,0-3.413,1.529-3.413,3.413v20.48c0,1.884,1.529,3.413,3.413,3.413h20.48
			c1.884,0,3.413-1.529,3.413-3.413v-20.48C191.147,127.823,189.618,126.293,187.733,126.293z M184.32,146.773h-13.653V133.12
			h13.653V146.773z"/>
	</g>
</g>
<g>
	<g>
		<path d="M187.733,146.773h-20.48c-1.884,0-3.413,1.529-3.413,3.413v20.48c0,1.884,1.529,3.413,3.413,3.413h20.48
			c1.884,0,3.413-1.529,3.413-3.413v-20.48C191.147,148.303,189.618,146.773,187.733,146.773z M184.32,167.253h-13.653V153.6h13.653
			V167.253z"/>
	</g>
</g>
<g>
	<g>
		<path d="M208.213,105.813h-20.48c-1.884,0-3.413,1.529-3.413,3.413v20.48c0,1.884,1.529,3.413,3.413,3.413h20.48
			c1.884,0,3.413-1.529,3.413-3.413v-20.48C211.627,107.343,210.098,105.813,208.213,105.813z M204.8,126.293h-13.653V112.64H204.8
			V126.293z"/>
	</g>
</g>
<g>
	<g>
		<path d="M208.213,126.293h-20.48c-1.884,0-3.413,1.529-3.413,3.413v20.48c0,1.884,1.529,3.413,3.413,3.413h20.48
			c1.884,0,3.413-1.529,3.413-3.413v-20.48C211.627,127.823,210.098,126.293,208.213,126.293z M204.8,146.773h-13.653V133.12H204.8
			V146.773z"/>
	</g>
</g>
<g>
	<g>
		<path d="M208.213,146.773h-20.48c-1.884,0-3.413,1.529-3.413,3.413v20.48c0,1.884,1.529,3.413,3.413,3.413h20.48
			c1.884,0,3.413-1.529,3.413-3.413v-20.48C211.627,148.303,210.098,146.773,208.213,146.773z M204.8,167.253h-13.653V153.6H204.8
			V167.253z"/>
	</g>
</g>
<g>
	<g>
		<path d="M126.959,81.92H84.668c-5.279,0-9.574,4.294-9.574,9.574v96.905c0,5.279,4.296,9.574,9.574,9.574h42.291
			c5.279,0,9.574-4.296,9.574-9.576V91.494C136.533,86.216,132.238,81.92,126.959,81.92z M129.707,188.397
			c0,1.514-1.232,2.748-2.748,2.748H84.668c-1.516,0-2.748-1.232-2.748-2.748V91.494c0-1.514,1.232-2.748,2.748-2.748h42.291
			c1.515,0,2.748,1.232,2.748,2.748V188.397z"/>
	</g>
</g>
<g>
	<g>
		<path d="M116.053,119.467h-20.48c-1.884,0-3.413,1.529-3.413,3.413v34.133c0,1.884,1.529,3.413,3.413,3.413h20.48
			c1.884,0,3.413-1.529,3.413-3.413V122.88C119.467,120.996,117.937,119.467,116.053,119.467z M112.64,153.6H98.987v-27.307h13.653
			V153.6z"/>
	</g>
</g>
<g>
	<g>
		<path d="M78.507,119.467H44.373c-1.884,0-3.413,1.529-3.413,3.413v34.133c0,1.884,1.529,3.413,3.413,3.413h34.133
			c1.884,0,3.413-1.529,3.413-3.413V122.88C81.92,120.996,80.391,119.467,78.507,119.467z M75.093,153.6H47.787v-27.307h27.307
			V153.6z"/>
	</g>
</g>
<g>
	<g>
		<path d="M167.253,119.467H133.12c-1.884,0-3.413,1.529-3.413,3.413v34.133c0,1.884,1.529,3.413,3.413,3.413h34.133
			c1.884,0,3.413-1.529,3.413-3.413V122.88C170.667,120.996,169.137,119.467,167.253,119.467z M163.84,153.6h-27.307v-27.307h27.307
			V153.6z"/>
	</g>
</g>
<g>
	<g>
		<path d="M150.187,13.653H61.44c-1.884,0-3.413,1.529-3.413,3.413c0,26.349,21.437,47.787,47.787,47.787S153.6,43.416,153.6,17.067
			C153.6,15.183,152.071,13.653,150.187,13.653z M105.813,58.027c-21.436,0-39.078-16.553-40.818-37.547h81.637
			C144.891,41.474,127.249,58.027,105.813,58.027z"/>
	</g>
</g>
<g>
	<g>
		<path d="M112.64,58.027H98.987c-1.884,0-3.413,1.529-3.413,3.413v23.893c0,1.884,1.529,3.413,3.413,3.413h13.653
			c1.884,0,3.413-1.529,3.413-3.413V61.44C116.053,59.556,114.524,58.027,112.64,58.027z M109.227,81.92H102.4V64.853h6.827V81.92z"
			/>
	</g>
</g>
<g>
</g>
<g>
</g>
<g>
</g>
<g>
</g>
<g>
</g>
<g>
</g>
<g>
</g>
<g>
</g>
<g>
</g>
<g>
</g>
<g>
</g>
<g>
</g>
<g>
</g>
<g>
</g>
<g>
</g>
</svg>
