<?xml version="1.0" encoding="iso-8859-1"?>
<!-- Generator: Adobe Illustrator 19.0.0, SVG Export Plug-In . SVG Version: 6.00 Build 0)  -->
<svg version="1.1" id="Capa_1" xmlns="http://www.w3.org/2000/svg" xmlns:xlink="http://www.w3.org/1999/xlink" x="0px" y="0px"
	 viewBox="0 0 204.8 204.8" style="enable-background:new 0 0 204.8 204.8;" xml:space="preserve">
<g>
	<g>
		<path d="M87.04,6.827H32.427c-1.884,0-3.413,1.529-3.413,3.413v13.653c0,1.884,1.529,3.413,3.413,3.413h2.869
			c2.183,0,3.958,1.777,3.958,3.959V81.92c0,1.884,1.529,3.413,3.413,3.413H76.8c1.884,0,3.413-1.529,3.413-3.413V31.266
			c0-2.183,1.777-3.959,3.959-3.959h2.867c1.884,0,3.413-1.529,3.413-3.413V10.24C90.453,8.356,88.924,6.827,87.04,6.827z
			 M83.627,20.494c-5.695,0.285-10.24,5.007-10.24,10.772v47.241H46.08V31.266c0-5.763-4.545-10.487-10.24-10.772v-6.84h47.787
			V20.494z"/>
	</g>
</g>
<g>
	<g>
		<path d="M76.8,120.682c-1.884,0-3.413,1.529-3.413,3.413v60.225c0,3.838-1.63,7.521-4.471,10.105
			c-2.883,2.62-6.644,3.86-10.532,3.483c-6.9-0.659-12.303-6.95-12.303-14.322v-59.491c0-1.884-1.529-3.413-3.413-3.413
			s-3.413,1.529-3.413,3.413v59.491c0,10.854,8.119,20.128,18.482,21.118c0.652,0.061,1.304,0.094,1.954,0.094
			c5.093-0.002,10.04-1.888,13.817-5.321c4.262-3.876,6.707-9.4,6.707-15.157v-60.225C80.213,122.211,78.684,120.682,76.8,120.682z"
			/>
	</g>
</g>
<g>
	<g>
		<path d="M76.8,78.507H42.667c-1.884,0-3.413,1.529-3.413,3.413v26.223c0,1.884,1.529,3.413,3.413,3.413s3.413-1.528,3.413-3.413
			v-22.81h27.307v22.521c0,1.884,1.529,3.413,3.413,3.413s3.413-1.529,3.413-3.413V81.92C80.213,80.036,78.684,78.507,76.8,78.507z"
			/>
	</g>
</g>
<g>
	<g>
		<path d="M52.907,51.2h-10.24c-1.884,0-3.413,1.529-3.413,3.413s1.529,3.413,3.413,3.413h10.24c1.884,0,3.413-1.529,3.413-3.413
			S54.791,51.2,52.907,51.2z"/>
	</g>
</g>
<g>
	<g>
		<path d="M52.907,64.853h-10.24c-1.884,0-3.413,1.529-3.413,3.413c0,1.884,1.529,3.413,3.413,3.413h10.24
			c1.884,0,3.413-1.529,3.413-3.413C56.32,66.383,54.791,64.853,52.907,64.853z"/>
	</g>
</g>
<g>
	<g>
		<path d="M52.907,92.16h-10.24c-1.884,0-3.413,1.529-3.413,3.413s1.529,3.413,3.413,3.413h10.24c1.884,0,3.413-1.529,3.413-3.413
			S54.791,92.16,52.907,92.16z"/>
	</g>
</g>
<g>
	<g>
		<path d="M52.907,105.813h-10.24c-1.884,0-3.413,1.529-3.413,3.413s1.529,3.413,3.413,3.413h10.24c1.884,0,3.413-1.529,3.413-3.413
			S54.791,105.813,52.907,105.813z"/>
	</g>
</g>
<g>
	<g>
		<path d="M52.907,119.467h-10.24c-1.884,0-3.413,1.529-3.413,3.413c0,1.884,1.529,3.413,3.413,3.413h10.24
			c1.884,0,3.413-1.529,3.413-3.413C56.32,120.996,54.791,119.467,52.907,119.467z"/>
	</g>
</g>
<g>
	<g>
		<path d="M52.907,133.12h-10.24c-1.884,0-3.413,1.529-3.413,3.413c0,1.884,1.529,3.413,3.413,3.413h10.24
			c1.884,0,3.413-1.529,3.413-3.413C56.32,134.649,54.791,133.12,52.907,133.12z"/>
	</g>
</g>
<g>
	<g>
		<path d="M182.613,197.973H22.187V3.413C22.187,1.529,20.658,0,18.773,0S15.36,1.529,15.36,3.413v197.973
			c0,1.884,1.529,3.413,3.413,3.413h163.84c1.884,0,3.413-1.529,3.413-3.413S184.498,197.973,182.613,197.973z"/>
	</g>
</g>
<g>
	<g>
		<path d="M121.173,105.813h-102.4c-1.884,0-3.413,1.529-3.413,3.413v13.653c0,1.884,1.529,3.413,3.413,3.413h102.4
			c1.884,0,3.413-1.529,3.413-3.413v-13.653C124.587,107.343,123.058,105.813,121.173,105.813z M117.76,119.467H22.187v-6.827
			h95.573V119.467z"/>
	</g>
</g>
<g>
	<g>
		<path d="M148.48,6.827c-22.584,0-40.96,18.376-40.96,40.96c0,22.584,18.376,40.96,40.96,40.96c22.584,0,40.96-18.376,40.96-40.96
			C189.44,25.202,171.064,6.827,148.48,6.827z M148.48,81.92c-18.821,0-34.133-15.312-34.133-34.133s15.312-34.133,34.133-34.133
			s34.133,15.312,34.133,34.133S167.301,81.92,148.48,81.92z"/>
	</g>
</g>
<g>
	<g>
		<path d="M168.96,44.373H128c-1.884,0-3.413,1.529-3.413,3.413S126.116,51.2,128,51.2h40.96c1.884,0,3.413-1.529,3.413-3.413
			S170.844,44.373,168.96,44.373z"/>
	</g>
</g>
<g>
</g>
<g>
</g>
<g>
</g>
<g>
</g>
<g>
</g>
<g>
</g>
<g>
</g>
<g>
</g>
<g>
</g>
<g>
</g>
<g>
</g>
<g>
</g>
<g>
</g>
<g>
</g>
<g>
</g>
</svg>
