<?xml version="1.0" encoding="iso-8859-1"?>
<!-- Generator: Adobe Illustrator 19.0.0, SVG Export Plug-In . SVG Version: 6.00 Build 0)  -->
<svg version="1.1" id="Capa_1" xmlns="http://www.w3.org/2000/svg" xmlns:xlink="http://www.w3.org/1999/xlink" x="0px" y="0px"
	 viewBox="0 0 191.147 191.147" style="enable-background:new 0 0 191.147 191.147;" xml:space="preserve">
<g>
	<g>
		<path d="M159.49,24.518c-1.399-1.261-3.558-1.149-4.82,0.253c-1.263,1.401-1.149,3.558,0.253,4.82
			c18.683,16.816,29.397,40.866,29.397,65.983c0,48.935-39.811,88.747-88.747,88.747S6.827,144.509,6.827,95.573
			S46.638,6.827,95.573,6.827c1.884,0,3.413-1.529,3.413-3.413S97.457,0,95.573,0C42.875,0,0,42.875,0,95.573
			s42.875,95.573,95.573,95.573c52.698,0,95.573-42.875,95.573-95.573C191.147,68.524,179.608,42.626,159.49,24.518z"/>
	</g>
</g>
<g>
	<g>
		<path d="M138.996,42.897c-1.452-1.198-3.604-0.992-4.804,0.461c-1.2,1.454-0.993,3.604,0.461,4.804
			c14.211,11.727,22.361,29.008,22.361,47.411c0,33.879-27.561,61.44-61.44,61.44s-61.44-27.561-61.44-61.44
			c0-33.516,27.259-61.076,60.762-61.437c1.886-0.021,3.398-1.565,3.378-3.449c-0.02-1.886-1.572-3.454-3.449-3.378
			c-37.229,0.401-67.517,31.024-67.517,68.263c0,37.642,30.624,68.267,68.267,68.267c37.642,0,68.267-30.624,68.267-68.267
			C163.84,75.126,154.786,55.926,138.996,42.897z"/>
	</g>
</g>
<g>
	<g>
		<path d="M118.731,61.785c-1.553-1.067-3.68-0.672-4.746,0.882c-1.067,1.555-0.672,3.68,0.882,4.746
			c9.293,6.378,14.839,16.906,14.839,28.16c0,18.821-15.312,34.133-34.133,34.133S61.44,114.394,61.44,95.573
			S76.752,61.44,95.573,61.44c1.884,0,3.413-1.529,3.413-3.413c0-1.884-1.529-3.413-3.413-3.413c-22.586,0-40.96,18.374-40.96,40.96
			s18.374,40.96,40.96,40.96s40.96-18.374,40.96-40.96C136.533,82.068,129.879,69.437,118.731,61.785z"/>
	</g>
</g>
<g>
	<g>
		<path d="M95.573,0c-1.884,0-3.413,1.529-3.413,3.413v81.92c0,1.884,1.529,3.413,3.413,3.413s3.413-1.529,3.413-3.413V3.413
			C98.987,1.529,97.457,0,95.573,0z"/>
	</g>
</g>
<g>
	<g>
		<path d="M95.573,81.92c-7.528,0-13.653,6.125-13.653,13.653s6.125,13.653,13.653,13.653s13.653-6.125,13.653-13.653
			S103.101,81.92,95.573,81.92z M95.573,102.4c-3.765,0-6.827-3.062-6.827-6.827s3.062-6.827,6.827-6.827s6.827,3.062,6.827,6.827
			S99.338,102.4,95.573,102.4z"/>
	</g>
</g>
<g>
</g>
<g>
</g>
<g>
</g>
<g>
</g>
<g>
</g>
<g>
</g>
<g>
</g>
<g>
</g>
<g>
</g>
<g>
</g>
<g>
</g>
<g>
</g>
<g>
</g>
<g>
</g>
<g>
</g>
</svg>
