<?xml version="1.0" encoding="iso-8859-1"?>
<!-- Generator: Adobe Illustrator 19.0.0, SVG Export Plug-In . SVG Version: 6.00 Build 0)  -->
<svg version="1.1" id="Capa_1" xmlns="http://www.w3.org/2000/svg" xmlns:xlink="http://www.w3.org/1999/xlink" x="0px" y="0px"
	 viewBox="0 0 174.08 174.08" style="enable-background:new 0 0 174.08 174.08;" xml:space="preserve">
<g>
	<g>
		<path d="M87.04,0C39.987,0,1.707,38.281,1.707,85.333v54.613c0,1.884,1.529,3.413,3.413,3.413h40.96
			c1.884,0,3.413-1.529,3.413-3.413V85.333c0-20.704,16.843-37.547,37.547-37.547s37.547,16.843,37.547,37.547v54.613
			c0,1.884,1.529,3.413,3.413,3.413h40.96c1.884,0,3.413-1.529,3.413-3.413V85.333C172.373,38.281,134.093,0,87.04,0z
			 M165.547,136.533h-34.133v-51.2c0-24.467-19.907-44.373-44.373-44.373c-24.467,0-44.373,19.907-44.373,44.373v51.2H8.533v-51.2
			c0-43.288,35.219-78.507,78.507-78.507s78.507,35.219,78.507,78.507V136.533z"/>
	</g>
</g>
<g>
	<g>
		<path d="M46.08,136.533H5.12c-1.884,0-3.413,1.529-3.413,3.413v27.307c0,1.884,1.529,3.413,3.413,3.413h40.96
			c1.884,0,3.413-1.529,3.413-3.413v-27.307C49.493,138.063,47.964,136.533,46.08,136.533z M42.667,163.84H8.533v-20.48h34.133
			V163.84z"/>
	</g>
</g>
<g>
	<g>
		<path d="M168.96,136.533H128c-1.884,0-3.413,1.529-3.413,3.413v27.307c0,1.884,1.529,3.413,3.413,3.413h40.96
			c1.884,0,3.413-1.529,3.413-3.413v-27.307C172.373,138.063,170.844,136.533,168.96,136.533z M165.547,163.84h-34.133v-20.48
			h34.133V163.84z"/>
	</g>
</g>
<g>
	<g>
		<path d="M109.046,164.2l-13.653-6.827c-1.058-0.529-2.316-0.473-3.321,0.15c-1.007,0.621-1.62,1.72-1.62,2.903v4.716l-8.713-4.357
			c-1.686-0.84-3.738-0.159-4.581,1.527C76.317,164,77,166.05,78.686,166.893l13.653,6.827c0.483,0.241,1.005,0.36,1.527,0.36
			c0.625,0,1.246-0.171,1.794-0.51c1.007-0.621,1.62-1.72,1.62-2.903v-4.717l8.713,4.359c1.686,0.841,3.738,0.159,4.581-1.527
			C111.415,167.093,110.732,165.043,109.046,164.2z"/>
	</g>
</g>
<g>
	<g>
		<path d="M95.392,140.307l-13.653-6.827c-1.058-0.529-2.318-0.473-3.321,0.15c-1.007,0.621-1.62,1.72-1.62,2.903v4.716
			l-8.713-4.357c-1.686-0.841-3.736-0.159-4.581,1.527c-0.841,1.688-0.159,3.738,1.527,4.581l13.653,6.827
			c0.483,0.241,1.005,0.36,1.527,0.36c0.625,0,1.246-0.171,1.794-0.51c1.007-0.621,1.62-1.72,1.62-2.903v-4.717l8.713,4.359
			c1.686,0.841,3.738,0.159,4.581-1.527C97.761,143.2,97.079,141.15,95.392,140.307z"/>
	</g>
</g>
<g>
</g>
<g>
</g>
<g>
</g>
<g>
</g>
<g>
</g>
<g>
</g>
<g>
</g>
<g>
</g>
<g>
</g>
<g>
</g>
<g>
</g>
<g>
</g>
<g>
</g>
<g>
</g>
<g>
</g>
</svg>
