<?xml version="1.0" encoding="iso-8859-1"?>
<!-- Generator: Adobe Illustrator 19.0.0, SVG Export Plug-In . SVG Version: 6.00 Build 0)  -->
<svg version="1.1" id="Capa_1" xmlns="http://www.w3.org/2000/svg" xmlns:xlink="http://www.w3.org/1999/xlink" x="0px" y="0px"
	 viewBox="0 0 193.002 193.002" style="enable-background:new 0 0 193.002 193.002;" xml:space="preserve">
<g>
	<g>
		<path d="M189.531,37.07c-5.144-7.53-15.394-10.989-29.633-10.006l0.469,6.81c8.151-0.563,18.852,0.203,23.526,7.047
			c9.777,14.312-11.295,47.848-49.019,78.008l4.263,5.332C181.013,90.784,201.734,54.93,189.531,37.07z"/>
	</g>
</g>
<g>
	<g>
		<path d="M94.031,146.16c-39.89,21.799-75.583,27.749-84.871,14.15c-4.755-6.96-1.415-17.427,2.226-24.98l-6.151-2.963
			c-6.34,13.16-6.934,24.153-1.712,31.795c4.657,6.816,13.454,10.146,25.163,10.146c17.647,0,41.917-7.566,68.618-22.158
			L94.031,146.16z"/>
	</g>
</g>
<g>
	<g>
		<path d="M112.378,40.763c-13.614,6.171-27.37,13.981-40.883,23.214C56.31,74.352,42.244,86.058,30.814,97.829l4.896,4.755
			c11.117-11.448,24.822-22.849,39.632-32.969c13.189-9.011,26.597-16.625,39.851-22.632L112.378,40.763z"/>
	</g>
</g>
<g>
	<g>
		<path d="M154.288,58.215c-4.04-5.909-13.872-6.562-28.438-1.886c-13.1,4.203-28.744,12.279-44.049,22.736
			c-15.307,10.457-28.515,22.096-37.193,32.771c-9.65,11.87-12.616,21.269-8.578,27.179c2.27,3.318,6.284,4.985,11.979,4.985
			c2.154,0,4.547-0.239,7.178-0.719l-1.22-6.717c-6.311,1.145-10.914,0.623-12.298-1.405c-1.522-2.227-0.276-8.545,8.24-19.023
			c8.272-10.179,20.968-21.344,35.744-31.44c14.778-10.097,29.795-17.864,42.284-21.873c12.856-4.127,19.191-2.988,20.716-0.761
			c1.522,2.229,0.278,8.545-8.238,19.023c-8.274,10.179-20.97,21.344-35.746,31.44c-4.982,3.405-10.056,6.584-15.085,9.451
			l3.383,5.931c5.188-2.958,10.419-6.236,15.551-9.743c15.307-10.457,28.515-22.096,37.193-32.771
			C155.36,73.524,158.326,64.126,154.288,58.215z"/>
	</g>
</g>
<g>
	<g>
		<path d="M137.486,18.694c-9.411,0-17.067,7.656-17.067,17.067c0,9.411,7.656,17.067,17.067,17.067
			c9.409,0,17.067-7.656,17.067-17.067C154.553,26.35,146.897,18.694,137.486,18.694z M137.486,46.001
			c-5.647,0-10.24-4.593-10.24-10.24c0-5.647,4.593-10.24,10.24-10.24c5.646,0,10.24,4.593,10.24,10.24
			C147.726,41.408,143.134,46.001,137.486,46.001z"/>
	</g>
</g>
<g>
	<g>
		<path d="M18.02,100.614c-7.528,0-13.653,6.125-13.653,13.653s6.125,13.653,13.653,13.653c7.528,0,13.653-6.125,13.653-13.653
			S25.548,100.614,18.02,100.614z M18.02,121.094c-3.765,0-6.827-3.062-6.827-6.827s3.062-6.827,6.827-6.827
			c3.765,0,6.827,3.062,6.827,6.827S21.785,121.094,18.02,121.094z"/>
	</g>
</g>
<g>
	<g>
		<path d="M72.633,117.681c-7.528,0-13.653,6.125-13.653,13.653c0,7.528,6.125,13.653,13.653,13.653
			c7.528,0,13.653-6.125,13.653-13.653C86.286,123.806,80.161,117.681,72.633,117.681z M72.633,138.161
			c-3.765,0-6.827-3.062-6.827-6.827c0-3.765,3.062-6.827,6.827-6.827s6.827,3.062,6.827,6.827
			C79.46,135.099,76.398,138.161,72.633,138.161z"/>
	</g>
</g>
<g>
	<g>
		<path d="M117.006,117.681c-9.411,0-17.067,7.656-17.067,17.067s7.656,17.067,17.067,17.067c9.409,0,17.067-7.656,17.067-17.067
			S126.417,117.681,117.006,117.681z M117.006,144.987c-5.647,0-10.24-4.593-10.24-10.24c0-5.647,4.593-10.24,10.24-10.24
			c5.646,0,10.24,4.593,10.24,10.24C127.246,140.395,122.654,144.987,117.006,144.987z"/>
	</g>
</g>
<g>
</g>
<g>
</g>
<g>
</g>
<g>
</g>
<g>
</g>
<g>
</g>
<g>
</g>
<g>
</g>
<g>
</g>
<g>
</g>
<g>
</g>
<g>
</g>
<g>
</g>
<g>
</g>
<g>
</g>
</svg>
