<?xml version="1.0" encoding="iso-8859-1"?>
<!-- Generator: Adobe Illustrator 19.0.0, SVG Export Plug-In . SVG Version: 6.00 Build 0)  -->
<svg version="1.1" id="Capa_1" xmlns="http://www.w3.org/2000/svg" xmlns:xlink="http://www.w3.org/1999/xlink" x="0px" y="0px"
	 viewBox="0 0 191.055 191.055" style="enable-background:new 0 0 191.055 191.055;" xml:space="preserve">
<g>
	<g>
		<g>
			<path d="M56.208,175.124c-3.917-1.934-7.721-4.174-11.31-6.663c-1.55-1.075-3.674-0.686-4.75,0.86
				c-1.075,1.55-0.688,3.676,0.86,4.75c3.864,2.679,7.96,5.093,12.177,7.175c0.486,0.241,1.002,0.353,1.509,0.353
				c1.26,0,2.471-0.698,3.062-1.903C58.591,178.005,57.898,175.959,56.208,175.124z"/>
			<path d="M25.799,150.533c-1.172-1.478-3.318-1.725-4.796-0.556c-1.476,1.171-1.727,3.318-0.555,4.796
				c2.92,3.686,6.139,7.187,9.569,10.407c0.66,0.618,1.498,0.925,2.336,0.925c0.91,0,1.818-0.36,2.49-1.075
				c1.29-1.376,1.222-3.535-0.152-4.825C31.504,157.211,28.513,153.958,25.799,150.533z"/>
			<path d="M12.741,127.819c-0.688-1.754-2.664-2.621-4.422-1.934c-1.758,0.686-2.621,2.666-1.935,4.422
				c1.712,4.376,3.773,8.668,6.125,12.757c0.631,1.097,1.78,1.712,2.961,1.712c0.577,0,1.162-0.147,1.7-0.456
				c1.635-0.94,2.196-3.026,1.256-4.661C16.243,135.864,14.332,131.881,12.741,127.819z"/>
			<path d="M58.219,7.416c-3.487,1.475-6.921,3.174-10.204,5.055c-1.637,0.935-2.203,3.023-1.266,4.658
				c0.63,1.101,1.78,1.719,2.964,1.719c0.575,0,1.159-0.145,1.691-0.452c3.048-1.744,6.236-3.323,9.474-4.692
				c1.734-0.734,2.548-2.736,1.812-4.473C61.956,7.494,59.951,6.682,58.219,7.416z"/>
			<path d="M81.153,183.088c-4.313-0.696-8.608-1.722-12.768-3.05c-1.799-0.575-3.717,0.418-4.291,2.214
				c-0.573,1.797,0.418,3.717,2.214,4.291c4.482,1.432,9.11,2.538,13.759,3.287c0.183,0.029,0.367,0.044,0.546,0.044
				c1.647,0,3.096-1.193,3.366-2.872C84.28,185.141,83.015,183.388,81.153,183.088z"/>
			<path d="M8.879,115.263c-0.968-4.25-1.625-8.619-1.956-12.984c-0.143-1.879-1.782-3.287-3.663-3.145s-3.289,1.782-3.145,3.661
				c0.357,4.7,1.065,9.404,2.104,13.983c0.36,1.584,1.766,2.657,3.325,2.657c0.251,0,0.505-0.027,0.763-0.085
				C8.145,118.931,9.297,117.101,8.879,115.263z"/>
			<path d="M8.159,65.533c0.406,0.155,0.821,0.229,1.229,0.229c1.37,0,2.662-0.831,3.186-2.185c1.57-4.076,3.461-8.069,5.622-11.87
				c0.93-1.64,0.357-3.724-1.282-4.654c-1.642-0.928-3.726-0.355-4.656,1.282c-2.325,4.094-4.364,8.397-6.055,12.785
				C5.524,62.879,6.401,64.855,8.159,65.533z"/>
			<path d="M173.758,53.757c0.616,1.152,1.795,1.807,3.016,1.807c0.541,0,1.091-0.13,1.604-0.403
				c1.662-0.887,2.292-2.954,1.405-4.618c-2.212-4.146-4.756-8.166-7.566-11.952c-1.121-1.514-3.258-1.831-4.775-0.708
				c-1.516,1.123-1.831,3.261-0.708,4.775C169.342,46.174,171.705,49.908,173.758,53.757z"/>
			<path d="M3.244,92.303c0.082,0.007,0.164,0.009,0.244,0.009c1.775,0,3.275-1.374,3.403-3.173
				c0.307-4.372,0.944-8.743,1.888-12.996c0.41-1.84-0.753-3.662-2.592-4.072c-1.848-0.41-3.664,0.751-4.072,2.592
				c-1.017,4.581-1.702,9.289-2.034,13.995C-0.055,90.539,1.361,92.17,3.244,92.303z"/>
			<path d="M179.068,65.773c1.461,4.118,2.627,8.383,3.459,12.675c0.317,1.63,1.746,2.763,3.347,2.763
				c0.215,0,0.435-0.021,0.655-0.063c1.852-0.36,3.06-2.152,2.7-4.002c-0.898-4.625-2.152-9.219-3.727-13.657
				c-0.631-1.777-2.584-2.712-4.359-2.075C179.367,62.046,178.438,63.997,179.068,65.773z"/>
			<path d="M175.902,140.529c-1.613-0.98-3.714-0.471-4.692,1.137c-2.27,3.719-4.842,7.308-7.649,10.668
				c-1.208,1.447-1.015,3.599,0.432,4.808c0.638,0.534,1.415,0.794,2.186,0.794c0.976,0,1.946-0.416,2.621-1.224
				c3.021-3.62,5.792-7.485,8.236-11.491C178.018,143.611,177.51,141.51,175.902,140.529z"/>
			<path d="M154.419,161.768c-3.263,2.91-6.769,5.598-10.424,7.992c-1.577,1.032-2.016,3.149-0.983,4.726
				c0.655,1,1.746,1.543,2.859,1.543c0.642,0,1.29-0.181,1.867-0.558c3.934-2.579,7.709-5.473,11.225-8.605
				c1.406-1.254,1.529-3.412,0.276-4.82C157.984,160.638,155.828,160.512,154.419,161.768z"/>
			<path d="M162.977,27.885c-3.328-3.328-6.929-6.432-10.708-9.233c-1.514-1.125-3.654-0.804-4.773,0.71
				c-1.123,1.516-0.806,3.652,0.71,4.775c3.509,2.601,6.852,5.485,9.945,8.576c0.667,0.666,1.539,0.998,2.413,0.998
				c0.872,0,1.746-0.334,2.413-0.998C164.31,31.379,164.31,29.218,162.977,27.885z"/>
			<path d="M185.548,115.089c-1.821-0.466-3.686,0.633-4.154,2.459c-1.085,4.234-2.495,8.421-4.193,12.442
				c-0.734,1.736,0.078,3.738,1.816,4.471c0.433,0.183,0.882,0.27,1.326,0.27c1.333,0,2.598-0.783,3.149-2.086
				c1.828-4.331,3.347-8.841,4.516-13.402C188.477,117.417,187.374,115.557,185.548,115.089z"/>
			<path d="M190.888,91.186c-0.085-1.882-1.679-3.352-3.563-3.256c-1.883,0.085-3.342,1.679-3.256,3.563
				c0.06,1.321,0.089,2.652,0.089,3.987c-0.002,3.055-0.157,6.13-0.464,9.143c-0.191,1.876,1.172,3.552,3.048,3.743
				c0.118,0.012,0.236,0.017,0.35,0.017c1.731,0,3.214-1.309,3.391-3.067c0.331-3.241,0.5-6.548,0.502-9.834
				C190.984,94.041,190.951,92.609,190.888,91.186z"/>
			<path d="M132.507,176.128c-3.973,1.83-8.114,3.376-12.309,4.593c-1.809,0.527-2.852,2.42-2.326,4.231
				c0.433,1.493,1.797,2.463,3.277,2.463c0.314,0,0.635-0.044,0.952-0.138c4.519-1.312,8.98-2.976,13.263-4.949
				c1.71-0.789,2.459-2.816,1.671-4.528C136.246,176.089,134.218,175.34,132.507,176.128z"/>
			<path d="M140.322,11.093c-4.159-2.217-8.513-4.139-12.942-5.709c-1.78-0.63-3.729,0.299-4.359,2.075
				c-0.63,1.777,0.299,3.729,2.075,4.359c4.111,1.459,8.153,3.241,12.011,5.299c0.51,0.273,1.062,0.403,1.603,0.403
				c1.22,0,2.401-0.657,3.016-1.809C142.614,14.048,141.986,11.981,140.322,11.093z"/>
			<path d="M107.35,183.433c-3.93,0.527-7.946,0.795-11.933,0.795l-1.181-0.009c-0.012,0-0.027,0-0.043,0
				c-1.865,0-3.388,1.5-3.412,3.371c-0.022,1.886,1.488,3.432,3.372,3.456l1.258,0.009c4.296,0,8.62-0.288,12.848-0.857
				c1.869-0.251,3.178-1.969,2.929-3.838C110.936,184.491,109.223,183.182,107.35,183.433z"/>
			<path d="M113.732,1.664c-4.606-0.894-9.329-1.452-14.041-1.661C99.641,0,99.588,0,99.537,0c-1.814,0-3.326,1.432-3.406,3.263
				c-0.084,1.882,1.376,3.476,3.26,3.56c4.378,0.193,8.764,0.712,13.041,1.541c0.22,0.043,0.439,0.063,0.654,0.063
				c1.603,0,3.033-1.133,3.347-2.763C116.792,3.814,115.583,2.022,113.732,1.664z"/>
			<path d="M85.555,0.41c-4.693,0.483-9.38,1.318-13.928,2.483C69.8,3.36,68.7,5.221,69.167,7.047
				c0.396,1.541,1.783,2.567,3.306,2.567c0.28,0,0.565-0.036,0.846-0.108c4.222-1.082,8.573-1.857,12.931-2.304
				c1.874-0.193,3.239-1.869,3.046-3.744C89.106,1.584,87.451,0.22,85.555,0.41z"/>
		</g>
	</g>
</g>
<g>
	<g>
		<path d="M95.412,68.175c-15.056,0-27.307,12.25-27.307,27.307c0,15.056,12.25,27.307,27.307,27.307s27.307-12.25,27.307-27.307
			C122.719,80.425,110.468,68.175,95.412,68.175z M95.412,115.961c-11.293,0-20.48-9.187-20.48-20.48s9.187-20.48,20.48-20.48
			c11.293,0,20.48,9.187,20.48,20.48S106.705,115.961,95.412,115.961z"/>
	</g>
</g>
<g>
	<g>
		<path d="M30.559,3.321c-15.056,0-27.307,12.25-27.307,27.307s12.25,27.307,27.307,27.307s27.307-12.25,27.307-27.307
			S45.615,3.321,30.559,3.321z M30.559,51.108c-11.293,0-20.48-9.187-20.48-20.48s9.187-20.48,20.48-20.48
			c11.293,0,20.48,9.187,20.48,20.48S41.852,51.108,30.559,51.108z"/>
	</g>
</g>
<g>
	<g>
		<path d="M95.412,78.415c-1.884,0-3.413,1.529-3.413,3.413v27.307c0,1.884,1.529,3.413,3.413,3.413s3.413-1.528,3.413-3.413V81.828
			C98.826,79.944,97.296,78.415,95.412,78.415z"/>
	</g>
</g>
<g>
	<g>
		<path d="M109.066,92.068H81.759c-1.884,0-3.413,1.529-3.413,3.413c0,1.884,1.529,3.413,3.413,3.413h27.307
			c1.884,0,3.413-1.529,3.413-3.413C112.479,93.597,110.95,92.068,109.066,92.068z"/>
	</g>
</g>
<g>
	<g>
		<path d="M44.212,27.215H16.906c-1.884,0-3.413,1.529-3.413,3.413c0,1.884,1.529,3.413,3.413,3.413h27.307
			c1.884,0,3.413-1.529,3.413-3.413C47.626,28.744,46.096,27.215,44.212,27.215z"/>
	</g>
</g>
<g>
</g>
<g>
</g>
<g>
</g>
<g>
</g>
<g>
</g>
<g>
</g>
<g>
</g>
<g>
</g>
<g>
</g>
<g>
</g>
<g>
</g>
<g>
</g>
<g>
</g>
<g>
</g>
<g>
</g>
</svg>
