<?xml version="1.0" encoding="iso-8859-1"?>
<!-- Generator: Adobe Illustrator 19.0.0, SVG Export Plug-In . SVG Version: 6.00 Build 0)  -->
<svg version="1.1" id="Capa_1" xmlns="http://www.w3.org/2000/svg" xmlns:xlink="http://www.w3.org/1999/xlink" x="0px" y="0px"
	 viewBox="0 0 218.453 218.453" style="enable-background:new 0 0 218.453 218.453;" xml:space="preserve">
<g>
	<g>
		<path d="M37.547,81.92c-15.056,0-27.307,12.25-27.307,27.307s12.25,27.307,27.307,27.307s27.307-12.25,27.307-27.307
			S52.603,81.92,37.547,81.92z M37.547,129.707c-11.293,0-20.48-9.187-20.48-20.48s9.187-20.48,20.48-20.48s20.48,9.187,20.48,20.48
			S48.84,129.707,37.547,129.707z"/>
	</g>
</g>
<g>
	<g>
		<path d="M180.907,81.92c-15.056,0-27.307,12.25-27.307,27.307s12.25,27.307,27.307,27.307s27.307-12.25,27.307-27.307
			S195.963,81.92,180.907,81.92z M180.907,129.707c-11.293,0-20.48-9.187-20.48-20.48s9.187-20.48,20.48-20.48
			s20.48,9.187,20.48,20.48S192.2,129.707,180.907,129.707z"/>
	</g>
</g>
<g>
	<g>
		<path d="M37.547,92.16c-1.884,0-3.413,1.529-3.413,3.413v27.307c0,1.884,1.529,3.413,3.413,3.413s3.413-1.529,3.413-3.413V95.573
			C40.96,93.689,39.431,92.16,37.547,92.16z"/>
	</g>
</g>
<g>
	<g>
		<path d="M51.2,105.813H23.893c-1.884,0-3.413,1.529-3.413,3.413s1.529,3.413,3.413,3.413H51.2c1.884,0,3.413-1.529,3.413-3.413
			S53.084,105.813,51.2,105.813z"/>
	</g>
</g>
<g>
	<g>
		<path d="M194.56,105.813h-27.307c-1.884,0-3.413,1.529-3.413,3.413s1.529,3.413,3.413,3.413h27.307
			c1.884,0,3.413-1.529,3.413-3.413S196.444,105.813,194.56,105.813z"/>
	</g>
</g>
<g>
	<g>
		<g>
			<path d="M44.373,139.947h-6.827c-2.057,0-4.11-0.205-6.105-0.604c-1.855-0.372-3.647,0.823-4.021,2.671
				c-0.372,1.847,0.824,3.647,2.671,4.019c2.44,0.492,4.946,0.741,7.455,0.741h6.827c1.884,0,3.413-1.529,3.413-3.413
				C47.787,141.476,46.257,139.947,44.373,139.947z"/>
			<path d="M98.987,139.947H85.333c-1.884,0-3.413,1.529-3.413,3.413c0,1.884,1.529,3.413,3.413,3.413h13.653
				c1.884,0,3.413-1.529,3.413-3.413C102.4,141.476,100.871,139.947,98.987,139.947z"/>
			<path d="M73.632,71.68H59.979c-1.884,0-3.413,1.529-3.413,3.413c0,1.884,1.529,3.413,3.413,3.413h13.653
				c1.884,0,3.413-1.529,3.413-3.413C77.046,73.209,75.517,71.68,73.632,71.68z"/>
			<path d="M46.324,71.68h-8.781c-1.789,0-3.586,0.128-5.338,0.377c-1.865,0.266-3.162,1.995-2.898,3.86
				c0.244,1.703,1.705,2.934,3.376,2.934c0.16,0,0.324-0.012,0.488-0.036c1.435-0.203,2.91-0.309,4.376-0.309h8.777
				c1.884,0,3.413-1.529,3.413-3.413S48.208,71.68,46.324,71.68z"/>
			<path d="M7.27,114.47c-0.295-1.724-0.445-3.487-0.444-5.243c0-2.348,0.266-4.692,0.79-6.965c0.425-1.836-0.719-3.669-2.555-4.094
				c-1.84-0.416-3.669,0.72-4.094,2.557C0.324,103.499,0,106.359,0,109.223c-0.002,2.142,0.179,4.296,0.543,6.402
				c0.285,1.662,1.729,2.836,3.36,2.836c0.191,0,0.386-0.017,0.582-0.049C6.344,118.093,7.591,116.328,7.27,114.47z"/>
			<path d="M18.156,77.068c-4.318,2.609-8.013,6.002-10.984,10.085c-1.109,1.524-0.775,3.659,0.751,4.768
				c0.608,0.44,1.309,0.654,2.005,0.654c1.056,0,2.096-0.486,2.763-1.406c2.434-3.343,5.461-6.122,8.994-8.259
				c1.615-0.975,2.132-3.074,1.157-4.687C21.868,76.609,19.765,76.093,18.156,77.068z"/>
			<path d="M169.206,78.507h11.701c0.592,0,1.178,0.017,1.761,0.049c0.065,0.003,0.13,0.005,0.193,0.005
				c1.797,0,3.302-1.406,3.405-3.224c0.104-1.882-1.336-3.492-3.219-3.598c-0.708-0.039-1.422-0.06-2.14-0.06h-11.701
				c-1.884,0-3.413,1.529-3.413,3.413C165.792,76.977,167.322,78.507,169.206,78.507z"/>
			<path d="M20.207,134.589c-3.412-2.336-6.274-5.282-8.509-8.755c-1.019-1.586-3.137-2.041-4.717-1.022
				c-1.587,1.019-2.045,3.132-1.024,4.717c2.731,4.241,6.228,7.839,10.394,10.692c0.591,0.404,1.26,0.597,1.925,0.597
				c1.089,0,2.159-0.519,2.821-1.485C22.161,137.779,21.763,135.654,20.207,134.589z"/>
			<path d="M71.68,139.947H58.027c-1.884,0-3.413,1.529-3.413,3.413c0,1.884,1.529,3.413,3.413,3.413H71.68
				c1.884,0,3.413-1.529,3.413-3.413C75.093,141.476,73.564,139.947,71.68,139.947z"/>
			<path d="M189.563,138.711c-2.796,0.819-5.707,1.236-8.656,1.236h-13.653c-1.884,0-3.413,1.529-3.413,3.413
				c0,1.884,1.529,3.413,3.413,3.413h13.653c3.598,0,7.156-0.509,10.576-1.51c1.809-0.531,2.845-2.427,2.314-4.236
				C193.266,139.216,191.365,138.182,189.563,138.711z"/>
			<path d="M212.695,122.143c-1.667-0.884-3.729-0.244-4.613,1.422c-1.927,3.649-4.528,6.827-7.731,9.448
				c-1.458,1.193-1.673,3.345-0.48,4.803c0.676,0.824,1.655,1.251,2.644,1.251c0.76,0,1.527-0.253,2.159-0.77
				c3.912-3.202,7.089-7.084,9.445-11.54C214.999,125.088,214.362,123.023,212.695,122.143z"/>
			<path d="M204.124,89.112c0.676,0.778,1.625,1.176,2.58,1.176c0.794,0,1.591-0.275,2.236-0.834
				c1.423-1.234,1.577-3.391,0.341-4.815c-3.313-3.82-7.286-6.885-11.805-9.112c-1.69-0.833-3.738-0.137-4.57,1.553
				c-0.833,1.691-0.138,3.738,1.553,4.57C198.158,83.473,201.411,85.984,204.124,89.112z"/>
			<path d="M216.625,97.625c-0.582-1.792-2.504-2.775-4.301-2.193c-1.794,0.582-2.775,2.507-2.193,4.301
				c0.992,3.055,1.495,6.25,1.495,9.494c0,0.877-0.036,1.763-0.111,2.633c-0.159,1.879,1.234,3.531,3.113,3.69
				c0.099,0.009,0.195,0.012,0.292,0.012c1.754,0,3.246-1.345,3.398-3.125c0.09-1.062,0.135-2.142,0.135-3.21
				C218.453,105.265,217.839,101.362,216.625,97.625z"/>
			<path d="M153.6,139.947h-13.653c-1.884,0-3.413,1.529-3.413,3.413c0,1.884,1.529,3.413,3.413,3.413H153.6
				c1.884,0,3.413-1.529,3.413-3.413C157.013,141.476,155.484,139.947,153.6,139.947z"/>
			<path d="M126.293,139.947H112.64c-1.884,0-3.413,1.529-3.413,3.413c0,1.884,1.529,3.413,3.413,3.413h13.653
				c1.884,0,3.413-1.529,3.413-3.413C129.707,141.476,128.178,139.947,126.293,139.947z"/>
			<path d="M128.246,71.68h-13.653c-1.884,0-3.413,1.529-3.413,3.413c0,1.884,1.529,3.413,3.413,3.413h13.653
				c1.884,0,3.413-1.529,3.413-3.413C131.659,73.209,130.13,71.68,128.246,71.68z"/>
			<path d="M100.939,71.68H87.286c-1.884,0-3.413,1.529-3.413,3.413c0,1.884,1.529,3.413,3.413,3.413h13.653
				c1.884,0,3.413-1.529,3.413-3.413C104.352,73.209,102.823,71.68,100.939,71.68z"/>
			<path d="M155.552,71.68h-13.653c-1.884,0-3.413,1.529-3.413,3.413c0,1.884,1.529,3.413,3.413,3.413h13.653
				c1.884,0,3.413-1.529,3.413-3.413C158.966,73.209,157.437,71.68,155.552,71.68z"/>
		</g>
	</g>
</g>
<g>
</g>
<g>
</g>
<g>
</g>
<g>
</g>
<g>
</g>
<g>
</g>
<g>
</g>
<g>
</g>
<g>
</g>
<g>
</g>
<g>
</g>
<g>
</g>
<g>
</g>
<g>
</g>
<g>
</g>
</svg>
