<?xml version="1.0" encoding="iso-8859-1"?>
<!-- Generator: Adobe Illustrator 19.0.0, SVG Export Plug-In . SVG Version: 6.00 Build 0)  -->
<svg version="1.1" id="Capa_1" xmlns="http://www.w3.org/2000/svg" xmlns:xlink="http://www.w3.org/1999/xlink" x="0px" y="0px"
	 viewBox="0 0 192.209 192.209" style="enable-background:new 0 0 192.209 192.209;" xml:space="preserve">
<g>
	<g>
		<path d="M44.955,15.811L13.717,8.353c-0.879-0.21-1.809-0.061-2.58,0.411C10.366,9.238,9.814,10,9.604,10.88l-9.511,39.84
			c-0.21,0.881-0.061,1.809,0.411,2.581c0.474,0.771,1.234,1.323,2.115,1.533l31.237,7.456c0.002,0,0.002,0,0.002,0
			c0.952,0.227,1.913,0.34,2.869,0.34c2.241,0,4.442-0.618,6.395-1.818c2.79-1.715,4.746-4.413,5.506-7.598l5.403-22.634
			C55.599,24.004,51.529,17.379,44.955,15.811z M47.392,28.996L41.988,51.63c-0.338,1.41-1.203,2.606-2.439,3.366
			c-1.236,0.759-2.698,0.993-4.106,0.655L7.527,48.988l7.926-33.201l27.918,6.665C46.282,23.146,48.086,26.083,47.392,28.996z"/>
	</g>
</g>
<g>
	<g>
		<path d="M153.097,55.849c-1.714-2.79-4.413-4.746-7.596-5.506L51.184,27.827c-1.826-0.43-3.673,0.693-4.113,2.528l-4.757,19.92
			c-0.21,0.881-0.061,1.809,0.411,2.581c0.474,0.771,1.234,1.323,2.115,1.533l36.815,8.788c1.833,0.439,3.676-0.691,4.113-2.528
			c0.439-1.835-0.693-3.676-2.526-4.113L49.747,48.54l3.169-13.281l90.998,21.724c1.411,0.336,2.608,1.203,3.367,2.439
			c0.761,1.236,0.992,2.693,0.655,4.106l-0.647,2.71c-0.695,2.913-3.639,4.716-6.545,4.023l-24.474-5.842
			c-1.828-0.434-3.676,0.693-4.113,2.528c-0.439,1.835,0.693,3.676,2.526,4.113l24.475,5.842c0.952,0.227,1.905,0.336,2.845,0.336
			c5.543-0.002,10.581-3.794,11.926-9.412l0.647-2.71C155.337,61.93,154.813,58.64,153.097,55.849z"/>
	</g>
</g>
<g>
	<g>
		<path d="M173.231,60.469l-19.92-4.756c-0.879-0.21-1.809-0.061-2.58,0.411c-0.771,0.474-1.323,1.236-1.533,2.116l-3.169,13.281
			c-0.439,1.835,0.693,3.676,2.526,4.113l19.92,4.755c0.266,0.063,0.534,0.094,0.797,0.094c1.543,0,2.942-1.055,3.316-2.621
			l3.169-13.28C176.195,62.748,175.064,60.906,173.231,60.469z M166.739,72.955l-13.278-3.169l1.586-6.642l13.278,3.171
			L166.739,72.955z"/>
	</g>
</g>
<g>
	<g>
		<path d="M172.289,49.715l-9.513,39.84l19.92,4.755l9.513-39.84L172.289,49.715z M177.643,86.086l-6.641-1.586l6.34-26.559
			l6.641,1.586L177.643,86.086z"/>
	</g>
</g>
<g>
	<g>
		<path d="M97.858,49.183c-11.293,0-20.48,9.187-20.48,20.48c0,11.293,9.187,20.48,20.48,20.48s20.48-9.187,20.48-20.48
			C118.338,58.37,109.151,49.183,97.858,49.183z M97.858,83.316c-7.528,0-13.653-6.125-13.653-13.653
			c0-7.528,6.125-13.653,13.653-13.653c7.528,0,13.653,6.125,13.653,13.653C111.511,77.191,105.386,83.316,97.858,83.316z"/>
	</g>
</g>
<g>
	<g>
		<rect x="3.799" y="129.4" transform="matrix(0.4832 -0.8755 0.8755 0.4832 -85.1037 121.4509)" width="113.049" height="6.827"/>
	</g>
</g>
<g>
	<g>
		
			<rect x="120.076" y="83.159" transform="matrix(0.9307 -0.3657 0.3657 0.9307 -40.6336 54.4735)" width="6.827" height="102.697"/>
	</g>
</g>
<g>
</g>
<g>
</g>
<g>
</g>
<g>
</g>
<g>
</g>
<g>
</g>
<g>
</g>
<g>
</g>
<g>
</g>
<g>
</g>
<g>
</g>
<g>
</g>
<g>
</g>
<g>
</g>
<g>
</g>
</svg>
