<?xml version="1.0" encoding="iso-8859-1"?>
<!-- Generator: Adobe Illustrator 19.0.0, SVG Export Plug-In . SVG Version: 6.00 Build 0)  -->
<svg version="1.1" id="Capa_1" xmlns="http://www.w3.org/2000/svg" xmlns:xlink="http://www.w3.org/1999/xlink" x="0px" y="0px"
	 viewBox="0 0 194.56 194.56" style="enable-background:new 0 0 194.56 194.56;" xml:space="preserve">
<g>
	<g>
		<path d="M117.76,73.387c-15.998,0-29.013,13.015-29.013,29.013s13.015,29.013,29.013,29.013c15.998,0,29.013-13.015,29.013-29.013
			S133.758,73.387,117.76,73.387z M117.76,124.587c-12.233,0-22.187-9.953-22.187-22.187s9.953-22.187,22.187-22.187
			c12.233,0,22.187,9.953,22.187,22.187S129.993,124.587,117.76,124.587z"/>
	</g>
</g>
<g>
	<g>
		<path d="M107.52,80.213c-8.468,0-15.36,6.891-15.36,15.36s6.892,15.36,15.36,15.36c8.469,0,15.36-6.891,15.36-15.36
			S115.988,80.213,107.52,80.213z M107.52,104.107c-4.705,0-8.533-3.828-8.533-8.533s3.828-8.533,8.533-8.533
			c4.705,0,8.533,3.828,8.533,8.533S112.225,104.107,107.52,104.107z"/>
	</g>
</g>
<g>
	<g>
		<path d="M63.147,5.12c-12.233,0-22.187,9.953-22.187,22.187s9.953,22.187,22.187,22.187c12.233,0,22.187-9.953,22.187-22.187
			S75.38,5.12,63.147,5.12z M63.147,42.667c-8.469,0-15.36-6.891-15.36-15.36s6.892-15.36,15.36-15.36
			c8.468,0,15.36,6.891,15.36,15.36S71.615,42.667,63.147,42.667z"/>
	</g>
</g>
<g>
	<g>
		<path d="M55.637,10.126c-6.712,0-12.174,5.461-12.174,12.175c0,6.712,5.461,12.174,12.174,12.174
			c6.712,0,12.174-5.461,12.174-12.174C67.811,15.587,62.35,10.126,55.637,10.126z M55.637,27.648c-2.947,0-5.347-2.398-5.347-5.347
			c0-2.949,2.398-5.349,5.347-5.349c2.949,0,5.347,2.4,5.347,5.349C60.984,25.248,58.585,27.648,55.637,27.648z"/>
	</g>
</g>
<g>
	<g>
		<path d="M165.547,18.773c-10.351,0-18.773,8.422-18.773,18.773s8.422,18.773,18.773,18.773s18.773-8.422,18.773-18.773
			S175.898,18.773,165.547,18.773z M165.547,49.493c-6.588,0-11.947-5.359-11.947-11.947c0-6.588,5.359-11.947,11.947-11.947
			c6.588,0,11.947,5.359,11.947,11.947C177.493,44.134,172.134,49.493,165.547,49.493z"/>
	</g>
</g>
<g>
	<g>
		<path d="M159.403,22.869c-5.835,0-10.581,4.746-10.581,10.581c0,5.835,4.746,10.581,10.581,10.581
			c5.835,0,10.581-4.746,10.581-10.581C169.984,27.616,165.238,22.869,159.403,22.869z M159.403,37.205
			c-2.07,0-3.755-1.685-3.755-3.755s1.685-3.755,3.755-3.755s3.755,1.684,3.755,3.755C163.157,35.521,161.473,37.205,159.403,37.205
			z"/>
	</g>
</g>
<g>
	<g>
		<path d="M18.773,69.973C8.422,69.973,0,78.396,0,88.747s8.422,18.773,18.773,18.773s18.773-8.422,18.773-18.773
			S29.124,69.973,18.773,69.973z M18.773,100.693c-6.588,0-11.947-5.359-11.947-11.947S12.186,76.8,18.773,76.8
			c6.588,0,11.947,5.359,11.947,11.947S25.361,100.693,18.773,100.693z"/>
	</g>
</g>
<g>
	<g>
		<path d="M12.629,74.069c-5.835,0-10.581,4.746-10.581,10.581s4.746,10.581,10.581,10.581c5.835,0,10.581-4.746,10.581-10.581
			S18.464,74.069,12.629,74.069z M12.629,88.405c-2.07,0-3.755-1.684-3.755-3.755s1.685-3.755,3.755-3.755
			c2.07,0,3.755,1.685,3.755,3.755S14.699,88.405,12.629,88.405z"/>
	</g>
</g>
<g>
	<g>
		<path d="M175.787,134.827c-10.351,0-18.773,8.422-18.773,18.773s8.422,18.773,18.773,18.773c10.351,0,18.773-8.422,18.773-18.773
			S186.138,134.827,175.787,134.827z M175.787,165.547c-6.588,0-11.947-5.359-11.947-11.947s5.359-11.947,11.947-11.947
			c6.588,0,11.947,5.359,11.947,11.947S182.374,165.547,175.787,165.547z"/>
	</g>
</g>
<g>
	<g>
		<path d="M169.643,138.923c-5.835,0-10.581,4.746-10.581,10.581s4.746,10.581,10.581,10.581s10.581-4.746,10.581-10.581
			C180.224,143.669,175.478,138.923,169.643,138.923z M169.643,153.259c-2.07,0-3.755-1.684-3.755-3.755s1.684-3.755,3.755-3.755
			s3.755,1.684,3.755,3.755C173.397,151.574,171.713,153.259,169.643,153.259z"/>
	</g>
</g>
<g>
	<g>
		<path d="M66.56,131.413c-15.998,0-29.013,13.015-29.013,29.013S50.562,189.44,66.56,189.44c15.998,0,29.013-13.015,29.013-29.013
			S82.558,131.413,66.56,131.413z M66.56,182.613c-12.233,0-22.187-9.953-22.187-22.187s9.953-22.187,22.187-22.187
			c12.233,0,22.187,9.953,22.187,22.187S78.793,182.613,66.56,182.613z"/>
	</g>
</g>
<g>
	<g>
		<path d="M56.32,138.24c-8.468,0-15.36,6.891-15.36,15.36s6.892,15.36,15.36,15.36c8.469,0,15.36-6.891,15.36-15.36
			S64.788,138.24,56.32,138.24z M56.32,162.133c-4.705,0-8.533-3.828-8.533-8.533s3.828-8.533,8.533-8.533
			c4.705,0,8.533,3.828,8.533,8.533S61.025,162.133,56.32,162.133z"/>
	</g>
</g>
<g>
	<g>
		<path d="M105.16,81.618L77.853,44.071c-1.108-1.524-3.244-1.859-4.768-0.753c-1.524,1.109-1.86,3.244-0.753,4.768l27.307,37.547
			c0.667,0.918,1.708,1.406,2.763,1.406c0.698,0,1.399-0.213,2.005-0.654C105.931,85.277,106.267,83.142,105.16,81.618z"/>
	</g>
</g>
<g>
	<g>
		<path d="M159.261,50.338c-1.417-1.241-3.574-1.099-4.816,0.321l-23.893,27.307c-1.242,1.418-1.099,3.574,0.321,4.816
			c0.647,0.567,1.449,0.845,2.246,0.845c0.951,0,1.896-0.394,2.57-1.166l23.893-27.307
			C160.824,53.736,160.681,51.581,159.261,50.338z"/>
	</g>
</g>
<g>
	<g>
		<path d="M162.84,142.653l-23.893-23.893c-1.331-1.333-3.495-1.333-4.826,0c-1.333,1.333-1.333,3.494,0,4.826l23.893,23.893
			c0.666,0.667,1.539,1,2.413,1s1.748-0.333,2.413-1C164.173,146.147,164.173,143.986,162.84,142.653z"/>
	</g>
</g>
<g>
	<g>
		<path d="M104.813,122.173c-1.331-1.333-3.495-1.333-4.826,0L82.92,139.24c-1.333,1.333-1.333,3.494,0,4.826
			c0.666,0.667,1.539,1,2.413,1s1.748-0.333,2.413-1L104.813,127C106.146,125.667,106.146,123.506,104.813,122.173z"/>
	</g>
</g>
<g>
	<g>
		<path d="M89.17,97.307l-54.613-6.827c-1.865-0.237-3.575,1.094-3.809,2.963c-0.235,1.871,1.092,3.576,2.963,3.809l54.613,6.827
			c0.142,0.019,0.285,0.027,0.427,0.027c1.698,0,3.168-1.263,3.383-2.99C92.368,99.246,91.04,97.541,89.17,97.307z"/>
	</g>
</g>
<g>
</g>
<g>
</g>
<g>
</g>
<g>
</g>
<g>
</g>
<g>
</g>
<g>
</g>
<g>
</g>
<g>
</g>
<g>
</g>
<g>
</g>
<g>
</g>
<g>
</g>
<g>
</g>
<g>
</g>
</svg>
