<?xml version="1.0" encoding="iso-8859-1"?>
<!-- Generator: Adobe Illustrator 19.0.0, SVG Export Plug-In . SVG Version: 6.00 Build 0)  -->
<svg version="1.1" id="Capa_1" xmlns="http://www.w3.org/2000/svg" xmlns:xlink="http://www.w3.org/1999/xlink" x="0px" y="0px"
	 viewBox="0 0 204.896 204.896" style="enable-background:new 0 0 204.896 204.896;" xml:space="preserve">
<g>
	<g>
		<path d="M181.858,8.581H24.844c-1.884,0-3.413,1.529-3.413,3.413v23.893c0,1.884,1.529,3.413,3.413,3.413h157.013
			c1.886,0,3.413-1.529,3.413-3.413V11.995C185.271,10.11,183.742,8.581,181.858,8.581z M178.444,32.475H28.258V15.408h150.187
			V32.475z"/>
	</g>
</g>
<g>
	<g>
		<path d="M103.351,35.888c-1.884,0-3.413,1.529-3.413,3.413v112.64c0,1.884,1.529,3.413,3.413,3.413
			c1.886,0,3.413-1.529,3.413-3.413V39.301C106.764,37.417,105.235,35.888,103.351,35.888z"/>
	</g>
</g>
<g>
	<g>
		<path d="M103.351,148.528c-13.175,0-23.893,10.718-23.893,23.893s10.718,23.893,23.893,23.893s23.893-10.718,23.893-23.893
			S116.526,148.528,103.351,148.528z M103.351,189.488c-9.411,0-17.067-7.656-17.067-17.067s7.656-17.067,17.067-17.067
			c9.412,0,17.067,7.656,17.067,17.067S112.762,189.488,103.351,189.488z"/>
	</g>
</g>
<g>
	<g>
		<g>
			<path d="M44.64,101.19c-1.789-0.606-3.722,0.357-4.325,2.142l-4.366,12.937c-0.602,1.787,0.357,3.724,2.144,4.326
				c0.362,0.121,0.729,0.179,1.091,0.179c1.425,0,2.753-0.899,3.234-2.321l4.366-12.937C47.386,103.73,46.427,101.793,44.64,101.19z
				"/>
			<path d="M35.91,127.063c-1.795-0.609-3.724,0.357-4.326,2.142l-4.366,12.938c-0.602,1.785,0.357,3.722,2.142,4.325
				c0.364,0.121,0.73,0.179,1.092,0.179c1.425,0,2.753-0.898,3.234-2.321l4.366-12.937C38.655,129.603,37.696,127.666,35.91,127.063
				z"/>
			<path d="M62.103,49.442c-1.792-0.606-3.724,0.357-4.326,2.142l-4.366,12.937c-0.602,1.787,0.357,3.724,2.142,4.326
				c0.363,0.121,0.73,0.179,1.092,0.179c1.425,0,2.753-0.898,3.234-2.321l4.366-12.937C64.847,51.982,63.888,50.045,62.103,49.442z"
				/>
			<path d="M53.371,75.317c-1.794-0.606-3.724,0.355-4.326,2.142l-4.366,12.938c-0.602,1.785,0.357,3.722,2.142,4.325
				c0.364,0.121,0.73,0.179,1.092,0.179c1.425,0,2.755-0.899,3.234-2.321l4.366-12.937C56.116,77.857,55.156,75.92,53.371,75.317z"
				/>
			<path d="M67.557,33.272c-1.789-0.606-3.722,0.357-4.325,2.144l-1.091,3.234c-0.602,1.785,0.357,3.722,2.144,4.325
				c0.362,0.121,0.729,0.179,1.091,0.179c1.425,0,2.753-0.898,3.234-2.323l1.091-3.234C70.303,35.811,69.344,33.874,67.557,33.272z"
				/>
		</g>
	</g>
</g>
<g>
	<g>
		<path d="M45.316,152.033c-2.833-5.719-7.724-9.993-13.771-12.034c-12.483-4.212-26.066,2.519-30.278,15
			c-2.041,6.048-1.604,12.527,1.229,18.246c2.831,5.719,7.723,9.992,13.769,12.032c2.524,0.852,5.093,1.256,7.62,1.256
			c9.972,0,19.297-6.298,22.659-16.254C48.586,164.231,48.149,157.752,45.316,152.033z M40.075,168.095
			c-1.458,4.321-4.509,7.813-8.595,9.837c-4.084,2.024-8.711,2.335-13.034,0.877c-4.32-1.457-7.811-4.509-9.836-8.595
			c-2.022-4.084-2.335-8.713-0.877-13.032c2.401-7.115,9.062-11.612,16.186-11.612c1.804,0,3.639,0.288,5.441,0.898
			c4.32,1.457,7.813,4.509,9.837,8.595C41.22,159.147,41.532,163.775,40.075,168.095z"/>
	</g>
</g>
<g>
	<g>
		<g>
			<path d="M151.493,64.882l-4.366-12.937c-0.604-1.787-2.534-2.743-4.326-2.142c-1.785,0.602-2.744,2.539-2.142,4.326l4.366,12.937
				c0.481,1.425,1.809,2.323,3.234,2.323c0.362,0,0.729-0.058,1.092-0.181C151.136,68.606,152.095,66.669,151.493,64.882z"/>
			<path d="M142.763,39.009l-1.092-3.234c-0.602-1.785-2.541-2.743-4.326-2.142c-1.785,0.604-2.744,2.541-2.142,4.326l1.092,3.234
				c0.481,1.425,1.809,2.323,3.234,2.323c0.362,0,0.729-0.058,1.092-0.181C142.406,42.732,143.366,40.795,142.763,39.009z"/>
			<path d="M168.954,116.629l-4.366-12.937c-0.602-1.785-2.541-2.743-4.325-2.142c-1.787,0.602-2.746,2.54-2.144,4.326l4.366,12.937
				c0.481,1.425,1.809,2.323,3.234,2.323c0.362,0,0.73-0.056,1.091-0.181C168.597,120.353,169.556,118.415,168.954,116.629z"/>
			<path d="M177.685,142.503l-4.366-12.938c-0.604-1.785-2.538-2.749-4.326-2.142c-1.785,0.602-2.744,2.54-2.142,4.326l4.366,12.937
				c0.481,1.425,1.809,2.323,3.234,2.323c0.362,0,0.729-0.058,1.092-0.181C177.328,146.226,178.287,144.289,177.685,142.503z"/>
			<path d="M160.224,90.757l-4.366-12.938c-0.602-1.785-2.538-2.746-4.326-2.142c-1.785,0.602-2.744,2.539-2.142,4.326l4.366,12.937
				c0.481,1.425,1.809,2.323,3.234,2.323c0.362,0,0.729-0.058,1.092-0.181C159.867,94.479,160.826,92.542,160.224,90.757z"/>
		</g>
	</g>
</g>
<g>
	<g>
		<path d="M203.64,155.361c-4.212-12.483-17.795-19.212-30.28-15c-12.483,4.214-19.212,17.797-15,30.28
			c3.36,9.958,12.686,16.254,22.659,16.254c2.526,0,5.096-0.404,7.62-1.254C201.122,181.427,207.852,167.844,203.64,155.361z
			 M186.457,179.171c-8.916,3.007-18.618-1.797-21.629-10.714c-3.009-8.916,1.797-18.618,10.714-21.627
			c8.917-3.009,18.618,1.797,21.627,10.714C200.18,166.46,195.373,176.162,186.457,179.171z"/>
	</g>
</g>
<g>
	<g>
		<path d="M169.911,18.821c-2.823,0-5.12,2.297-5.12,5.12s2.297,5.12,5.12,5.12c2.825,0,5.12-2.297,5.12-5.12
			S172.734,18.821,169.911,18.821z M169.911,25.648c-0.94,0-1.707-0.766-1.707-1.707s0.766-1.707,1.707-1.707
			c0.942,0,1.707,0.766,1.707,1.707S170.851,25.648,169.911,25.648z"/>
	</g>
</g>
<g>
	<g>
		<path d="M36.791,18.821c-2.823,0-5.12,2.297-5.12,5.12s2.297,5.12,5.12,5.12c2.825,0,5.12-2.297,5.12-5.12
			S39.614,18.821,36.791,18.821z M36.791,25.648c-0.94,0-1.707-0.766-1.707-1.707s0.766-1.707,1.707-1.707
			c0.942,0,1.707,0.766,1.707,1.707S37.731,25.648,36.791,25.648z"/>
	</g>
</g>
<g>
	<g>
		<g>
			<path d="M83.484,172.474l-10.68-1.942c-1.855-0.338-3.632,0.893-3.97,2.748c-0.338,1.855,0.894,3.632,2.748,3.97l10.68,1.942
				c0.207,0.038,0.411,0.056,0.614,0.056c1.618,0,3.053-1.155,3.355-2.804C86.569,174.589,85.337,172.812,83.484,172.474z"/>
			<path d="M59.37,168.091l-13.433-2.442c-1.855-0.336-3.632,0.893-3.97,2.748c-0.338,1.855,0.894,3.632,2.748,3.97l13.433,2.442
				c0.206,0.038,0.411,0.056,0.614,0.056c1.618,0,3.053-1.155,3.355-2.804C62.456,170.206,61.224,168.429,59.37,168.091z"/>
		</g>
	</g>
</g>
<g>
	<g>
		<g>
			<path d="M133.902,170.532l-10.68,1.942c-1.855,0.338-3.086,2.115-2.748,3.97c0.299,1.649,1.736,2.804,3.354,2.804
				c0.203,0,0.408-0.017,0.616-0.056l10.68-1.942c1.855-0.338,3.086-2.115,2.748-3.97S135.762,170.194,133.902,170.532z"/>
			<path d="M164.738,168.397c-0.338-1.855-2.109-3.084-3.97-2.748l-13.433,2.442c-1.855,0.338-3.086,2.115-2.748,3.97
				c0.299,1.649,1.736,2.804,3.354,2.804c0.203,0,0.408-0.019,0.616-0.056l13.433-2.442
				C163.846,172.029,165.076,170.252,164.738,168.397z"/>
		</g>
	</g>
</g>
<g>
</g>
<g>
</g>
<g>
</g>
<g>
</g>
<g>
</g>
<g>
</g>
<g>
</g>
<g>
</g>
<g>
</g>
<g>
</g>
<g>
</g>
<g>
</g>
<g>
</g>
<g>
</g>
<g>
</g>
</svg>
