<?xml version="1.0" encoding="iso-8859-1"?>
<!-- Generator: Adobe Illustrator 19.0.0, SVG Export Plug-In . SVG Version: 6.00 Build 0)  -->
<svg version="1.1" id="Capa_1" xmlns="http://www.w3.org/2000/svg" xmlns:xlink="http://www.w3.org/1999/xlink" x="0px" y="0px"
	 viewBox="0 0 197.973 197.973" style="enable-background:new 0 0 197.973 197.973;" xml:space="preserve">
<g>
	<g>
		<path d="M194.559,5.12H37.546c-1.884,0-3.413,1.529-3.413,3.413v23.893c0,1.884,1.529,3.413,3.413,3.413h157.013
			c1.884,0,3.413-1.529,3.413-3.413V8.533C197.973,6.649,196.444,5.12,194.559,5.12z M191.146,29.013H40.959V11.946h150.187V29.013z
			"/>
	</g>
</g>
<g>
	<g>
		<path d="M116.053,32.426c-1.884,0-3.413,1.529-3.413,3.413v112.64c0,1.884,1.529,3.413,3.413,3.413
			c1.884,0,3.413-1.529,3.413-3.413V35.84C119.466,33.956,117.937,32.426,116.053,32.426z"/>
	</g>
</g>
<g>
	<g>
		<path d="M116.053,145.066c-13.175,0-23.893,10.718-23.893,23.893s10.718,23.893,23.893,23.893s23.893-10.718,23.893-23.893
			S129.228,145.066,116.053,145.066z M116.053,186.026c-9.411,0-17.067-7.656-17.067-17.067s7.656-17.067,17.067-17.067
			c9.411,0,17.067,7.656,17.067,17.067S125.463,186.026,116.053,186.026z"/>
	</g>
</g>
<g>
	<g>
		<path d="M163.839,32.426c-1.884,0-3.413,1.529-3.413,3.413v112.64c0,1.884,1.529,3.413,3.413,3.413s3.413-1.529,3.413-3.413V35.84
			C167.253,33.956,165.724,32.426,163.839,32.426z"/>
	</g>
</g>
<g>
	<g>
		<path d="M163.839,145.066c-13.175,0-23.893,10.718-23.893,23.893s10.718,23.893,23.893,23.893s23.893-10.718,23.893-23.893
			S177.015,145.066,163.839,145.066z M163.839,186.026c-9.411,0-17.067-7.656-17.067-17.067s7.656-17.067,17.067-17.067
			s17.067,7.656,17.067,17.067S173.25,186.026,163.839,186.026z"/>
	</g>
</g>
<g>
	<g>
		<path d="M80.261,29.812c-1.787-0.608-3.722,0.355-4.325,2.142L39.92,138.68c-0.602,1.787,0.355,3.724,2.142,4.326
			c0.362,0.121,0.73,0.179,1.092,0.179c1.425,0,2.753-0.898,3.232-2.321L82.402,34.138C83.005,32.351,82.047,30.414,80.261,29.812z"
			/>
	</g>
</g>
<g>
	<g>
		<path d="M58.016,148.572c-2.833-5.719-7.723-9.992-13.769-12.034c-12.483-4.209-26.066,2.517-30.278,15
			c-2.041,6.048-1.604,12.527,1.229,18.246c2.833,5.719,7.723,9.992,13.769,12.032c2.507,0.846,5.089,1.266,7.661,1.266
			c3.63,0,7.236-0.838,10.585-2.493c5.719-2.833,9.993-7.724,12.032-13.771C61.286,160.769,60.849,154.291,58.016,148.572z
			 M52.78,164.633c-1.457,4.321-4.511,7.813-8.596,9.837c-4.082,2.022-8.714,2.335-13.032,0.877
			c-4.321-1.457-7.813-4.511-9.837-8.595c-2.024-4.084-2.336-8.713-0.879-13.032c2.401-7.115,9.061-11.612,16.186-11.612
			c1.806,0,3.64,0.288,5.443,0.898c4.321,1.457,7.813,4.511,9.837,8.595C53.925,155.685,54.237,160.314,52.78,164.633z"/>
	</g>
</g>
<g>
	<g>
		<path d="M19.906,129.52L6.253,109.04c-1.046-1.568-3.166-1.997-4.733-0.947c-1.568,1.044-1.992,3.164-0.947,4.733l13.653,20.48
			c0.659,0.988,1.741,1.521,2.843,1.521c0.65,0,1.309-0.184,1.889-0.573C20.527,133.208,20.95,131.089,19.906,129.52z"/>
	</g>
</g>
<g>
	<g>
		<path d="M30.588,127.063L16.935,79.276c-0.519-1.812-2.405-2.865-4.221-2.345c-1.811,0.517-2.862,2.406-2.343,4.219l13.653,47.787
			c0.428,1.498,1.795,2.476,3.28,2.476c0.311,0,0.626-0.041,0.94-0.131C30.056,130.765,31.107,128.875,30.588,127.063z"/>
	</g>
</g>
<g>
	<g>
		<path d="M182.613,15.36c-2.823,0-5.12,2.297-5.12,5.12s2.297,5.12,5.12,5.12c2.823,0,5.12-2.297,5.12-5.12
			S185.436,15.36,182.613,15.36z M182.613,22.186c-0.942,0-1.707-0.766-1.707-1.707s0.765-1.707,1.707-1.707
			c0.942,0,1.707,0.766,1.707,1.707S183.555,22.186,182.613,22.186z"/>
	</g>
</g>
<g>
	<g>
		<path d="M49.493,15.36c-2.823,0-5.12,2.297-5.12,5.12s2.297,5.12,5.12,5.12s5.12-2.297,5.12-5.12S52.316,15.36,49.493,15.36z
			 M49.493,22.186c-0.942,0-1.707-0.766-1.707-1.707s0.765-1.707,1.707-1.707s1.707,0.766,1.707,1.707S50.435,22.186,49.493,22.186z
			"/>
	</g>
</g>
<g>
</g>
<g>
</g>
<g>
</g>
<g>
</g>
<g>
</g>
<g>
</g>
<g>
</g>
<g>
</g>
<g>
</g>
<g>
</g>
<g>
</g>
<g>
</g>
<g>
</g>
<g>
</g>
<g>
</g>
</svg>
