<?xml version="1.0" encoding="iso-8859-1"?>
<!-- Generator: Adobe Illustrator 19.0.0, SVG Export Plug-In . SVG Version: 6.00 Build 0)  -->
<svg version="1.1" id="Capa_1" xmlns="http://www.w3.org/2000/svg" xmlns:xlink="http://www.w3.org/1999/xlink" x="0px" y="0px"
	 viewBox="0 0 204.8 204.8" style="enable-background:new 0 0 204.8 204.8;" xml:space="preserve">
<g>
	<g>
		<path d="M102.4,0C45.937,0,0,45.937,0,102.4s45.937,102.4,102.4,102.4s102.4-45.937,102.4-102.4S158.863,0,102.4,0z
			 M102.4,197.973c-52.698,0-95.573-42.873-95.573-95.573S49.702,6.827,102.4,6.827c52.698,0,95.573,42.873,95.573,95.573
			S155.098,197.973,102.4,197.973z"/>
	</g>
</g>
<g>
	<g>
		<path d="M156.535,74.264c-15.58-14.486-31.672-14.165-42.494-11.303c0.454-1.338,0.763-2.737,0.915-4.178
			c0.541-5.105-0.939-10.11-4.164-14.102c-6.656-8.235-18.775-9.516-27.013-2.862l-9.126,7.378
			c-2.584-0.515-7.852-1.428-13.677-1.606c-11.604-0.355-19.436,2.338-23.282,8.003c-5.468,8.05-2.133,20.507,10.196,38.079
			c27.977,39.878,57.364,39.006,61.076,38.738c6.746,8.26,20.374,11.996,31.846,11.996c3.297,0,6.417-0.307,9.143-0.905
			c10.237-2.249,18.275-10.656,21.506-22.492C174.918,108.336,172.814,89.4,156.535,74.264z M164.876,119.209
			c-2.55,9.341-8.675,15.93-16.384,17.623c-6.101,1.34-13.909,0.939-20.886-1.072c-7.253-2.091-12.643-5.678-14.79-9.842
			c-3.912-7.593,3.297-16.452,10.034-22.545c1.398-1.265,1.507-3.424,0.242-4.821c-0.674-0.744-1.603-1.123-2.533-1.123
			c-0.818,0-1.637,0.292-2.289,0.884c-12.875,11.648-14.553,20.862-12.861,27.267c-8.052-0.522-30.256-4.931-51.93-35.825
			C43.413,75.404,39.811,64.637,43.341,59.433c5.1-7.518,24.878-4.782,31.403-3.236c1.031,0.249,2.116,0,2.937-0.666l10.394-8.404
			c5.311-4.291,13.123-3.463,17.413,1.843c2.08,2.574,3.033,5.801,2.685,9.09c-0.35,3.289-1.958,6.245-4.53,8.323l-2.835,2.292
			c-1.423,1.152-1.683,3.219-0.591,4.688c1.091,1.468,3.149,1.814,4.664,0.783c0.978-0.669,24.223-16.072,47.008,5.115
			C165.938,92.324,167.808,108.462,164.876,119.209z"/>
	</g>
</g>
<g>
	<g>
		<path d="M133.637,139.508c-0.205-1.874-1.884-3.227-3.763-3.023c-1.872,0.205-3.227,1.888-3.023,3.763
			c0.611,5.61,0.746,21.299-5.873,26.482c-2.772,2.171-6.63,2.304-11.797,0.418c-12.501-4.57-19.251-15.055-25.206-24.303
			c-6.233-9.68-12.121-18.826-23.24-19.019c-5.755-0.082-10.404,3.021-12.687,8.562c-3.347,8.117-1.265,20.052,4.456,25.542
			c3.285,3.152,7.504,3.886,11.576,2.007c7.264-3.354,7.873-8.612,7.798-10.716c-0.143-4.016-2.794-7.782-6.446-9.161
			c-1.765-0.669-3.732,0.225-4.398,1.988c-0.666,1.763,0.224,3.732,1.988,4.398c0.942,0.357,1.985,1.654,2.034,3.021
			c0.077,2.142-2.371,3.596-3.835,4.272c-1.526,0.707-2.72,0.486-3.99-0.734c-3.323-3.186-5.299-12.126-2.872-18.014
			c1.227-2.971,3.321-4.381,6.258-4.337c7.11,0.125,11.327,6.117,17.618,15.889c6.212,9.649,13.947,21.658,28.6,27.017
			c3.168,1.159,6.101,1.737,8.791,1.737c3.649,0,6.847-1.063,9.559-3.193C135.934,163.688,133.903,141.959,133.637,139.508z"/>
	</g>
</g>
<g>
	<g>
		<path d="M78.365,66.244c-2.857-3.555-8.076-4.123-11.631-1.263c-3.555,2.857-4.122,8.076-1.263,11.633
			c1.386,1.722,3.357,2.801,5.555,3.038c0.302,0.032,0.606,0.049,0.906,0.049c1.879,0,3.686-0.635,5.171-1.828
			c1.722-1.384,2.801-3.357,3.04-5.552C80.382,70.124,79.751,67.966,78.365,66.244z M73.358,71.584
			c-0.026,0.222-0.126,0.643-0.532,0.969c0,0,0,0,0,0.002c-0.406,0.326-0.84,0.338-1.063,0.311
			c-0.224-0.024-0.645-0.126-0.971-0.531c-0.5-0.621-0.401-1.534,0.22-2.034c0.266-0.215,0.585-0.319,0.904-0.319
			c0.423,0,0.843,0.184,1.13,0.541C73.373,70.927,73.383,71.363,73.358,71.584z"/>
	</g>
</g>
<g>
</g>
<g>
</g>
<g>
</g>
<g>
</g>
<g>
</g>
<g>
</g>
<g>
</g>
<g>
</g>
<g>
</g>
<g>
</g>
<g>
</g>
<g>
</g>
<g>
</g>
<g>
</g>
<g>
</g>
</svg>
