<?xml version="1.0" encoding="iso-8859-1"?>
<!-- Generator: Adobe Illustrator 19.0.0, SVG Export Plug-In . SVG Version: 6.00 Build 0)  -->
<svg version="1.1" id="Capa_1" xmlns="http://www.w3.org/2000/svg" xmlns:xlink="http://www.w3.org/1999/xlink" x="0px" y="0px"
	 viewBox="0 0 207.984 207.984" style="enable-background:new 0 0 207.984 207.984;" xml:space="preserve">
<g>
	<g>
		<path d="M117.704,52.808l-5.352-28.732c-0.217-1.167-1.026-2.137-2.135-2.562c-1.108-0.427-2.359-0.242-3.302,0.481L18.167,90.262
			c-1.493,1.15-1.773,3.294-0.623,4.787c0.672,0.874,1.683,1.333,2.707,1.333c0.727,0,1.461-0.232,2.08-0.708l84.33-64.87
			l4.331,23.255c0.345,1.853,2.109,3.079,3.98,2.731C116.826,56.443,118.048,54.661,117.704,52.808z"/>
	</g>
</g>
<g>
	<g>
		<path d="M207.162,22.48c-1.009-1.174-2.679-1.524-4.072-0.853l-58.272,28.047c-1.7,0.818-2.413,2.857-1.596,4.555
			c0.818,1.7,2.86,2.411,4.555,1.596l46.713-22.484l-89.149,129.732c-10.537,14.795-26.984,23.627-43.994,23.627
			c-14.587,0-28.302-5.681-38.618-15.997c-21.489-21.49-21.514-53.871-0.065-75.322c1.333-1.333,1.333-3.494,0-4.826
			c-1.333-1.333-3.494-1.333-4.826,0c-23.806,23.806-23.779,61.133,0.065,84.975c11.605,11.604,27.035,17.995,43.445,17.995
			c19.214,0,37.74-9.904,49.589-26.539l96.449-140.351C208.261,25.361,208.169,23.655,207.162,22.48z"/>
	</g>
</g>
<g>
	<g>
		<path d="M92.723,100.711c-2.142-2.14-4.506-4.067-7.028-5.724c-0.797-0.526-1.778-0.695-2.703-0.459
			c-0.927,0.23-1.714,0.84-2.169,1.678c-1.207,2.215-3.492,3.591-5.96,3.591c-3.765,0-6.827-3.062-6.827-6.827
			c0-0.312,0.049-0.672,0.123-1.116c0.155-0.94-0.087-1.905-0.672-2.657c-0.585-0.754-1.459-1.227-2.41-1.307
			c-13.073-1.094-25.866,3.577-35.108,12.82c-17.3,17.302-17.3,45.454,0,62.754c8.651,8.651,20.014,12.976,31.377,12.976
			c11.365,0,22.728-4.325,31.377-12.974C110.024,146.163,110.024,118.011,92.723,100.711z M87.897,158.635
			c-14.64,14.638-38.456,14.64-53.099,0c-14.638-14.64-14.638-38.46,0-53.1c7.06-7.062,16.579-10.97,26.505-10.977
			c0.79,6.782,6.571,12.064,13.561,12.063c3.678,0,7.144-1.5,9.67-4.069c1.179,0.925,2.304,1.923,3.364,2.983
			C102.535,120.175,102.535,143.995,87.897,158.635z"/>
	</g>
</g>
<g>
	<g>
		<path d="M85.103,116.862c-5.647,0-10.24,4.593-10.24,10.24c0,5.647,4.593,10.24,10.24,10.24c5.647,0,10.24-4.593,10.24-10.24
			C95.343,121.455,90.75,116.862,85.103,116.862z M85.103,130.516c-1.882,0-3.413-1.531-3.413-3.413
			c0-1.882,1.531-3.413,3.413-3.413s3.413,1.531,3.413,3.413C88.516,128.985,86.985,130.516,85.103,130.516z"/>
	</g>
</g>
<g>
	<g>
		<path d="M61.21,144.169c-3.765,0-6.827,3.062-6.827,6.827s3.062,6.827,6.827,6.827s6.827-3.062,6.827-6.827
			S64.975,144.169,61.21,144.169z"/>
	</g>
</g>
<g>
	<g>
		<path d="M42.436,120.276c-6.586,0-11.947,5.359-11.947,11.947c0,6.588,5.361,11.947,11.947,11.947
			c6.588,0,11.947-5.359,11.947-11.947C54.383,125.635,49.022,120.276,42.436,120.276z M42.436,137.342
			c-2.823,0-5.12-2.297-5.12-5.12c0-2.823,2.297-5.12,5.12-5.12c2.825,0,5.12,2.297,5.12,5.12
			C47.556,135.045,45.259,137.342,42.436,137.342z"/>
	</g>
</g>
<g>
	<g>
		<path d="M169.375,15.399c-1.169-1.116-2.968-1.256-4.302-0.329L86.566,69.683c-1.546,1.077-1.928,3.203-0.852,4.751
			c1.079,1.548,3.202,1.934,4.751,0.853l64.836-45.104l-25.308,40.494c-0.998,1.599-0.514,3.705,1.087,4.704
			c0.562,0.352,1.188,0.521,1.806,0.521c1.138,0,2.251-0.568,2.896-1.608l34.133-54.613
			C170.774,18.306,170.549,16.517,169.375,15.399z"/>
	</g>
</g>
<g>
</g>
<g>
</g>
<g>
</g>
<g>
</g>
<g>
</g>
<g>
</g>
<g>
</g>
<g>
</g>
<g>
</g>
<g>
</g>
<g>
</g>
<g>
</g>
<g>
</g>
<g>
</g>
<g>
</g>
</svg>
