<?xml version="1.0" encoding="iso-8859-1"?>
<!-- Generator: Adobe Illustrator 19.0.0, SVG Export Plug-In . SVG Version: 6.00 Build 0)  -->
<svg version="1.1" id="Capa_1" xmlns="http://www.w3.org/2000/svg" xmlns:xlink="http://www.w3.org/1999/xlink" x="0px" y="0px"
	 viewBox="0 0 209.92 209.92" style="enable-background:new 0 0 209.92 209.92;" xml:space="preserve">
<g>
	<g>
		<path d="M84.156,176.519c-8.776-1.971-17.051-5.482-24.598-10.433c-1.579-1.034-3.693-0.596-4.727,0.981
			c-1.034,1.577-0.594,3.693,0.981,4.727c8.236,5.403,17.268,9.233,26.846,11.385c0.251,0.056,0.502,0.084,0.751,0.084
			c1.562,0,2.97-1.077,3.33-2.666C87.151,178.758,85.996,176.932,84.156,176.519z"/>
	</g>
</g>
<g>
	<g>
		<path d="M36.852,142.812c-4.784-7.702-8.095-16.106-9.839-24.98c-0.363-1.85-2.159-3.058-4.007-2.691
			c-1.85,0.364-3.055,2.159-2.691,4.007c1.905,9.687,5.516,18.86,10.737,27.266c0.647,1.041,1.761,1.613,2.903,1.613
			c0.614,0,1.237-0.166,1.799-0.514C37.354,146.517,37.847,144.413,36.852,142.812z"/>
	</g>
</g>
<g>
	<g>
		<path d="M37.062,57.134c-1.572-1.041-3.692-0.608-4.731,0.963c-5.205,7.868-8.979,16.486-11.213,25.617
			c-0.447,1.831,0.672,3.678,2.504,4.127c0.273,0.067,0.546,0.099,0.814,0.099c1.536,0,2.932-1.043,3.313-2.604
			c2.048-8.364,5.504-16.261,10.276-23.472C39.064,60.293,38.634,58.175,37.062,57.134z"/>
	</g>
</g>
<g>
	<g>
		<path d="M87.274,25.813c-0.401-1.841-2.217-3.007-4.06-2.609c-9.185,1.997-17.893,5.542-25.885,10.537
			c-1.599,0.998-2.084,3.104-1.085,4.704c0.649,1.036,1.76,1.604,2.898,1.604c0.618,0,1.242-0.169,1.807-0.521
			c7.323-4.576,15.302-7.825,23.716-9.655C86.506,29.474,87.675,27.655,87.274,25.813z"/>
	</g>
</g>
<g>
	<g>
		<path d="M143.802,33.58c-7.922-4.912-16.548-8.405-25.639-10.38c-1.843-0.396-3.661,0.768-4.06,2.611
			c-0.401,1.841,0.768,3.659,2.611,4.06c8.329,1.807,16.232,5.007,23.491,9.51c0.56,0.348,1.181,0.514,1.795,0.514
			c1.142,0,2.258-0.572,2.905-1.615C145.898,36.678,145.403,34.574,143.802,33.58z"/>
	</g>
</g>
<g>
	<g>
		<path d="M180.34,84.019c-2.241-9.31-6.074-18.086-11.394-26.083c-1.044-1.57-3.164-1.997-4.733-0.951
			c-1.568,1.043-1.995,3.162-0.951,4.733c4.876,7.328,8.388,15.369,10.441,23.898c0.377,1.565,1.775,2.616,3.316,2.616
			c0.265,0,0.532-0.031,0.799-0.097C179.654,87.695,180.782,85.852,180.34,84.019z"/>
	</g>
</g>
<g>
	<g>
		<g>
			<path d="M100.693,86.898c-9.018,0-16.355,7.337-16.355,16.355s7.337,16.355,16.355,16.355s16.355-7.337,16.355-16.355
				S109.711,86.898,100.693,86.898z M100.693,112.782c-5.253,0-9.528-4.275-9.528-9.528s4.273-9.528,9.528-9.528
				s9.528,4.275,9.528,9.528S105.946,112.782,100.693,112.782z"/>
			<path d="M141.314,92.443h-1.691c-0.877-3.159-2.137-6.192-3.768-9.062l1.205-1.205c2.797-2.796,2.797-7.346,0-10.141
				l-5.144-5.144c-2.796-2.797-7.345-2.797-10.143,0l-1.205,1.205c-2.872-1.632-5.905-2.891-9.064-3.767v-1.691
				c0-3.954-3.217-7.171-7.171-7.171h-7.274c-3.954,0-7.171,3.217-7.171,7.171v1.691c-3.161,0.875-6.192,2.135-9.062,3.767
				l-1.205-1.203c-1.355-1.355-3.157-2.103-5.072-2.103s-3.717,0.746-5.07,2.101l-5.142,5.142c-1.355,1.355-2.103,3.157-2.103,5.072
				s0.748,3.717,2.101,5.07l1.205,1.205c-1.632,2.872-2.893,5.903-3.768,9.062h-1.69c-3.954,0-7.171,3.217-7.171,7.171v7.274
				c0,3.956,3.217,7.173,7.171,7.173h1.69c0.877,3.159,2.137,6.19,3.768,9.062l-1.203,1.205c-1.355,1.355-2.103,3.156-2.103,5.072
				c0,1.915,0.746,3.717,2.101,5.07l5.144,5.144c2.796,2.796,7.346,2.796,10.141,0l1.205-1.205c2.871,1.632,5.902,2.891,9.062,3.767
				v1.691c0,3.954,3.217,7.171,7.171,7.171h7.274c3.954,0,7.171-3.217,7.175-7.173v-1.691c3.161-0.875,6.192-2.135,9.064-3.767
				l1.205,1.205c2.794,2.796,7.344,2.796,10.141,0l5.144-5.144c2.796-2.796,2.796-7.346,0-10.141l-1.205-1.205
				c1.632-2.871,2.893-5.903,3.768-9.062h1.691c3.954,0,7.171-3.219,7.171-7.173v-7.274
				C148.485,95.66,145.268,92.443,141.314,92.443z M141.653,106.892c0,0.191-0.155,0.346-0.345,0.346h-4.379
				c-1.623,0-3.023,1.143-3.345,2.734c-0.853,4.198-2.5,8.161-4.896,11.779c-0.896,1.353-0.717,3.152,0.432,4.299l3.108,3.108
				c0.135,0.135,0.135,0.353,0,0.488l-5.142,5.142c-0.137,0.133-0.355,0.135-0.49,0l-3.108-3.108
				c-1.147-1.147-2.944-1.328-4.297-0.432c-3.618,2.394-7.583,4.041-11.781,4.895c-1.591,0.323-2.734,1.722-2.734,3.345v4.379
				c0,0.189-0.155,0.345-0.345,0.345h-7.274c-0.189,0-0.345-0.155-0.345-0.345v-4.379c0-1.623-1.143-3.023-2.734-3.345
				c-4.2-0.852-8.163-2.5-11.781-4.895c-0.575-0.382-1.232-0.568-1.884-0.568c-0.881,0-1.754,0.34-2.413,1.002l-3.108,3.108
				c-0.135,0.133-0.353,0.133-0.488,0l-5.144-5.144c-0.114-0.114-0.116-0.372,0-0.488l3.108-3.108
				c1.147-1.147,1.328-2.944,0.432-4.297c-2.396-3.62-4.043-7.584-4.896-11.781c-0.323-1.591-1.722-2.734-3.345-2.734h-4.379
				c-0.189,0-0.345-0.155-0.345-0.346v-7.274c0-0.189,0.155-0.345,0.345-0.345h4.379c1.623,0,3.022-1.143,3.345-2.734
				c0.853-4.198,2.5-8.161,4.896-11.781c0.896-1.353,0.715-3.151-0.432-4.297l-3.11-3.11c-0.114-0.116-0.114-0.372,0-0.488
				l5.144-5.144c0.116-0.114,0.374-0.114,0.488,0.002l3.108,3.108c1.149,1.147,2.946,1.326,4.297,0.432
				c3.618-2.394,7.583-4.041,11.781-4.895c1.591-0.323,2.734-1.722,2.734-3.345v-4.379c0-0.189,0.155-0.345,0.345-0.345h7.274
				c0.189,0,0.345,0.155,0.345,0.345v4.379c0,1.623,1.143,3.023,2.734,3.345c4.198,0.852,8.161,2.5,11.781,4.895
				c1.353,0.898,3.151,0.717,4.297-0.432l3.108-3.108c0.135-0.135,0.355-0.137,0.49,0l5.144,5.144c0.135,0.135,0.135,0.353,0,0.488
				l-3.108,3.108c-1.147,1.149-1.328,2.946-0.432,4.299c2.396,3.616,4.043,7.581,4.896,11.779c0.323,1.591,1.722,2.734,3.345,2.734
				h4.379c0.189,0,0.345,0.155,0.345,0.345V106.892z"/>
		</g>
	</g>
</g>
<g>
	<g>
		<path d="M100.693,0.853c-11.293,0-20.48,9.187-20.48,20.48c0,11.293,9.187,20.48,20.48,20.48s20.48-9.187,20.48-20.48
			C121.173,10.04,111.986,0.853,100.693,0.853z M100.693,34.987c-7.528,0-13.653-6.125-13.653-13.653
			c0-7.528,6.125-13.653,13.653-13.653s13.653,6.125,13.653,13.653C114.347,28.861,108.221,34.987,100.693,34.987z"/>
	</g>
</g>
<g>
	<g>
		<path d="M100.693,161.28c-11.293,0-20.48,9.187-20.48,20.48s9.187,20.48,20.48,20.48s20.48-9.187,20.48-20.48
			S111.986,161.28,100.693,161.28z M100.693,195.413c-7.528,0-13.653-6.125-13.653-13.653c0-7.528,6.125-13.653,13.653-13.653
			s13.653,6.125,13.653,13.653C114.347,189.288,108.221,195.413,100.693,195.413z"/>
	</g>
</g>
<g>
	<g>
		<path d="M180.907,81.067c-11.293,0-20.48,9.187-20.48,20.48s9.187,20.48,20.48,20.48s20.48-9.187,20.48-20.48
			S192.2,81.067,180.907,81.067z M180.907,115.2c-7.528,0-13.653-6.125-13.653-13.653s6.125-13.653,13.653-13.653
			c7.528,0,13.653,6.125,13.653,13.653S188.435,115.2,180.907,115.2z"/>
	</g>
</g>
<g>
	<g>
		<path d="M20.48,81.067C9.187,81.067,0,90.254,0,101.547s9.187,20.48,20.48,20.48c11.293,0,20.48-9.187,20.48-20.48
			S31.773,81.067,20.48,81.067z M20.48,115.2c-7.528,0-13.653-6.125-13.653-13.653s6.125-13.653,13.653-13.653
			c7.528,0,13.653,6.125,13.653,13.653S28.008,115.2,20.48,115.2z"/>
	</g>
</g>
<g>
	<g>
		<path d="M171.894,30.346c-3.867-3.867-9.011-5.999-14.481-5.999s-10.612,2.13-14.481,5.999c-7.984,7.984-7.984,20.977,0,28.962
			c3.867,3.869,9.01,5.999,14.481,5.999c5.47,0,10.612-2.132,14.481-5.999s5.999-9.01,5.999-14.481
			C177.893,39.357,175.761,34.214,171.894,30.346z M167.067,54.482c-5.323,5.323-13.984,5.323-19.309,0
			c-5.323-5.323-5.323-13.986,0-19.309c2.661-2.661,6.158-3.992,9.655-3.992s6.992,1.329,9.655,3.992
			C172.39,40.496,172.39,49.159,167.067,54.482z"/>
	</g>
</g>
<g>
	<g>
		<path d="M58.455,143.787c-3.869-3.869-9.011-5.999-14.481-5.999s-10.612,2.132-14.481,5.999s-5.999,9.01-5.999,14.481
			c0,5.47,2.13,10.612,5.999,14.481c3.992,3.992,9.237,5.989,14.481,5.989s10.489-1.997,14.481-5.989
			C66.441,164.765,66.441,151.772,58.455,143.787z M53.629,167.921c-5.323,5.323-13.984,5.325-19.309,0
			c-5.323-5.323-5.323-13.986,0-19.309c2.662-2.661,6.159-3.992,9.655-3.992s6.992,1.331,9.655,3.992
			C58.952,153.935,58.952,162.598,53.629,167.921z"/>
	</g>
</g>
<g>
	<g>
		<path d="M58.455,30.346c-7.984-7.984-20.977-7.985-28.962,0c-3.869,3.869-5.999,9.011-5.999,14.481s2.132,10.612,5.999,14.481
			s9.01,5.999,14.481,5.999c5.47,0,10.612-2.13,14.481-5.999C66.441,51.325,66.441,38.332,58.455,30.346z M53.629,54.482
			c-5.323,5.323-13.984,5.323-19.309,0c-5.323-5.323-5.323-13.986,0-19.309c2.662-2.661,6.159-3.992,9.655-3.992
			s6.992,1.329,9.655,3.992C58.952,40.496,58.952,49.159,53.629,54.482z"/>
	</g>
</g>
<g>
	<g>
		<path d="M175.787,174.933c-1.884,0-3.413,1.529-3.413,3.413v6.827c0,1.884,1.529,3.413,3.413,3.413s3.413-1.529,3.413-3.413
			v-6.827C179.2,176.463,177.671,174.933,175.787,174.933z"/>
	</g>
</g>
<g>
	<g>
		<path d="M175.787,140.8c-1.884,0-3.413,1.529-3.413,3.413v17.067c0,1.884,1.529,3.413,3.413,3.413s3.413-1.529,3.413-3.413
			v-17.067C179.2,142.329,177.671,140.8,175.787,140.8z"/>
	</g>
</g>
<g>
	<g>
		<path d="M175.787,116.907c-1.884,0-3.413,1.529-3.413,3.413v6.827c0,1.884,1.529,3.413,3.413,3.413s3.413-1.529,3.413-3.413
			v-6.827C179.2,118.436,177.671,116.907,175.787,116.907z"/>
	</g>
</g>
<g>
	<g>
		<path d="M186.027,174.933c-1.884,0-3.413,1.529-3.413,3.413v6.827c0,1.884,1.529,3.413,3.413,3.413
			c1.884,0,3.413-1.529,3.413-3.413v-6.827C189.44,176.463,187.911,174.933,186.027,174.933z"/>
	</g>
</g>
<g>
	<g>
		<path d="M186.027,140.8c-1.884,0-3.413,1.529-3.413,3.413v17.067c0,1.884,1.529,3.413,3.413,3.413
			c1.884,0,3.413-1.529,3.413-3.413v-17.067C189.44,142.329,187.911,140.8,186.027,140.8z"/>
	</g>
</g>
<g>
	<g>
		<path d="M186.027,116.907c-1.884,0-3.413,1.529-3.413,3.413v6.827c0,1.884,1.529,3.413,3.413,3.413
			c1.884,0,3.413-1.529,3.413-3.413v-6.827C189.44,118.436,187.911,116.907,186.027,116.907z"/>
	</g>
</g>
<g>
	<g>
		<path d="M209.002,179.43c-1.287-1.377-3.446-1.452-4.825-0.166l-23.27,21.719l-23.27-21.719c-1.379-1.285-3.54-1.212-4.825,0.166
			c-1.287,1.379-1.213,3.54,0.166,4.825l25.6,23.893c0.657,0.613,1.493,0.918,2.33,0.918c0.836,0,1.673-0.305,2.33-0.918
			l25.6-23.893C210.214,182.968,210.289,180.809,209.002,179.43z"/>
	</g>
</g>
<g>
</g>
<g>
</g>
<g>
</g>
<g>
</g>
<g>
</g>
<g>
</g>
<g>
</g>
<g>
</g>
<g>
</g>
<g>
</g>
<g>
</g>
<g>
</g>
<g>
</g>
<g>
</g>
<g>
</g>
</svg>
