<?xml version="1.0" encoding="iso-8859-1"?>
<!-- Generator: Adobe Illustrator 19.0.0, SVG Export Plug-In . SVG Version: 6.00 Build 0)  -->
<svg version="1.1" id="Capa_1" xmlns="http://www.w3.org/2000/svg" xmlns:xlink="http://www.w3.org/1999/xlink" x="0px" y="0px"
	 viewBox="0 0 204.8 204.8" style="enable-background:new 0 0 204.8 204.8;" xml:space="preserve">
<g>
	<g>
		<path d="M102.4,0C45.937,0,0,45.937,0,102.4s45.937,102.4,102.4,102.4s102.4-45.937,102.4-102.4S158.863,0,102.4,0z
			 M102.4,197.973c-52.7,0-95.573-42.873-95.573-95.573S49.7,6.827,102.4,6.827S197.973,49.7,197.973,102.4
			S155.1,197.973,102.4,197.973z"/>
	</g>
</g>
<g>
	<g>
		<path d="M198.339,70.163c-1.476-1.169-3.625-0.923-4.796,0.555c-0.145,0.181-14.74,18.265-40.366,21.468
			c-11.698,1.456-19.297-5.794-28.088-14.194c-9.793-9.358-20.891-19.965-39.755-19.965c-36.292,0-57.817,20.516-84.265,49.505
			c-1.27,1.391-1.171,3.55,0.222,4.821c0.654,0.596,1.48,0.891,2.299,0.891c0.927,0,1.85-0.375,2.522-1.114
			c26.059-28.556,45.65-47.276,79.222-47.276c16.125,0,25.74,9.189,35.038,18.072c9.209,8.8,18.732,17.896,33.652,16.034
			c28.365-3.545,44.21-23.168,44.87-24.001C200.066,73.481,199.815,71.334,198.339,70.163z"/>
	</g>
</g>
<g>
	<g>
		<path d="M203.093,115.584c-0.454-1.826-2.297-2.941-4.135-2.492c-0.481,0.118-48.403,11.827-71.467,3.178
			c-23.741-8.9-37.286-9.914-54.811,7.61c-10.293,10.293-48.401,10.163-62.213,9.248c-1.855-0.174-3.505,1.295-3.632,3.178
			c-0.126,1.883,1.295,3.507,3.178,3.632c0.35,0.024,5.982,0.391,13.957,0.391c4.105,0,8.832-0.097,13.776-0.387
			c20.111-1.181,33.488-4.961,39.76-11.233c11.812-11.81,20.359-16.256,47.589-6.043c25.044,9.392,73.458-2.437,75.506-2.946
			C202.431,119.264,203.547,117.414,203.093,115.584z"/>
	</g>
</g>
<g>
	<g>
		<path d="M204.227,97.094c-1.046-1.568-3.164-1.997-4.733-0.947c-19.456,12.971-62.58,12.868-88.74-0.213
			C83.586,82.348,67.951,84.234,48.787,103.4c-15.896,15.894-42.704,17.266-42.974,17.278c-1.881,0.084-3.342,1.676-3.258,3.558
			c0.08,1.833,1.591,3.265,3.407,3.265c0.048,0,0.099-0.002,0.148-0.003c1.203-0.051,29.701-1.469,47.503-19.272
			c15.01-15.008,26.93-19.767,54.086-6.187c28.489,14.246,74.045,14.14,95.58-0.213C204.848,100.782,205.271,98.662,204.227,97.094z
			"/>
	</g>
</g>
<g>
	<g>
		<path d="M54.613,27.307c-7.528,0-13.653,6.125-13.653,13.653c0,7.528,6.125,13.653,13.653,13.653
			c7.528,0,13.653-6.125,13.653-13.653C68.267,33.432,62.141,27.307,54.613,27.307z M54.613,47.787
			c-3.765,0-6.827-3.062-6.827-6.827s3.062-6.827,6.827-6.827c3.765,0,6.827,3.062,6.827,6.827S58.378,47.787,54.613,47.787z"/>
	</g>
</g>
<g>
	<g>
		<path d="M121.173,160.427c-6.586,0-11.947,5.361-11.947,11.947c0,6.586,5.361,11.947,11.947,11.947
			c6.586,0,11.947-5.361,11.947-11.947C133.12,165.787,127.759,160.427,121.173,160.427z M121.173,177.493
			c-2.823,0-5.12-2.297-5.12-5.12c0-2.823,2.297-5.12,5.12-5.12c2.823,0,5.12,2.297,5.12,5.12
			C126.293,175.196,123.996,177.493,121.173,177.493z"/>
	</g>
</g>
<g>
	<g>
		<path d="M66.56,153.6c-6.586,0-11.947,5.361-11.947,11.947s5.361,11.947,11.947,11.947c6.586,0,11.947-5.361,11.947-11.947
			S73.146,153.6,66.56,153.6z M66.56,170.667c-2.823,0-5.12-2.297-5.12-5.12c0-2.823,2.297-5.12,5.12-5.12
			c2.823,0,5.12,2.297,5.12,5.12C71.68,168.37,69.383,170.667,66.56,170.667z"/>
	</g>
</g>
<g>
	<g>
		<path d="M124.587,30.72c-6.586,0-11.947,5.361-11.947,11.947c0,6.586,5.361,11.947,11.947,11.947
			c6.586,0,11.947-5.361,11.947-11.947C136.533,36.081,131.173,30.72,124.587,30.72z M124.587,47.787c-2.823,0-5.12-2.297-5.12-5.12
			s2.297-5.12,5.12-5.12c2.823,0,5.12,2.297,5.12,5.12S127.41,47.787,124.587,47.787z"/>
	</g>
</g>
<g>
	<g>
		<path d="M157.013,54.613c-7.528,0-13.653,6.125-13.653,13.653c0,7.528,6.125,13.653,13.653,13.653s13.653-6.125,13.653-13.653
			C170.667,60.739,164.541,54.613,157.013,54.613z M157.013,75.093c-3.765,0-6.827-3.062-6.827-6.827
			c0-3.765,3.062-6.827,6.827-6.827s6.827,3.062,6.827,6.827C163.84,72.032,160.778,75.093,157.013,75.093z"/>
	</g>
</g>
<g>
	<g>
		<path d="M157.013,133.12c-7.528,0-13.653,6.125-13.653,13.653c0,7.528,6.125,13.653,13.653,13.653s13.653-6.125,13.653-13.653
			C170.667,139.245,164.541,133.12,157.013,133.12z M157.013,153.6c-3.765,0-6.827-3.062-6.827-6.827s3.062-6.827,6.827-6.827
			s6.827,3.062,6.827,6.827S160.778,153.6,157.013,153.6z"/>
	</g>
</g>
<g>
	<g>
		<path d="M93.867,13.653c-6.586,0-11.947,5.361-11.947,11.947c0,6.586,5.361,11.947,11.947,11.947s11.947-5.361,11.947-11.947
			C105.813,19.014,100.453,13.653,93.867,13.653z M93.867,30.72c-2.823,0-5.12-2.297-5.12-5.12s2.297-5.12,5.12-5.12
			s5.12,2.297,5.12,5.12S96.689,30.72,93.867,30.72z"/>
	</g>
</g>
<g>
	<g>
		<path d="M102.4,126.293c-7.528,0-13.653,6.125-13.653,13.653c0,7.528,6.125,13.653,13.653,13.653s13.653-6.125,13.653-13.653
			C116.053,132.419,109.928,126.293,102.4,126.293z M102.4,146.773c-3.765,0-6.827-3.062-6.827-6.827s3.062-6.827,6.827-6.827
			s6.827,3.062,6.827,6.827S106.165,146.773,102.4,146.773z"/>
	</g>
</g>
<g>
</g>
<g>
</g>
<g>
</g>
<g>
</g>
<g>
</g>
<g>
</g>
<g>
</g>
<g>
</g>
<g>
</g>
<g>
</g>
<g>
</g>
<g>
</g>
<g>
</g>
<g>
</g>
<g>
</g>
</svg>
