<?xml version="1.0" encoding="iso-8859-1"?>
<!-- Generator: Adobe Illustrator 19.0.0, SVG Export Plug-In . SVG Version: 6.00 Build 0)  -->
<svg version="1.1" id="Capa_1" xmlns="http://www.w3.org/2000/svg" xmlns:xlink="http://www.w3.org/1999/xlink" x="0px" y="0px"
	 viewBox="0 0 215.04 215.04" style="enable-background:new 0 0 215.04 215.04;" xml:space="preserve">
<g>
	<g>
		<path d="M58.793,95.573H56.32c-3.765,0-6.827-3.062-6.827-6.827s3.062-6.827,6.827-6.827h2.898c1.884,0,3.413-1.529,3.413-3.413
			c0-1.884-1.529-3.413-3.413-3.413H56.32c-7.528,0-13.653,6.125-13.653,13.653c0,7.528,6.125,13.653,13.653,13.653h2.473
			c1.886,0,3.413-1.529,3.413-3.413S60.677,95.573,58.793,95.573z"/>
	</g>
</g>
<g>
	<g>
		<path d="M158.72,75.093h-3.012c-1.884,0-3.413,1.529-3.413,3.413c0,1.884,1.529,3.413,3.413,3.413h3.012
			c3.765,0,6.827,3.062,6.827,6.827s-3.062,6.827-6.827,6.827h-2.592c-1.884,0-3.413,1.529-3.413,3.413s1.529,3.413,3.413,3.413
			h2.592c7.528,0,13.653-6.125,13.653-13.653C172.373,81.219,166.248,75.093,158.72,75.093z"/>
	</g>
</g>
<g>
	<g>
		<path d="M159.602,147.263c-0.002,0-0.005,0-0.007,0l-24.049-1.016c-0.048-0.003-0.097-0.003-0.147-0.003
			c-1.818,0-3.33,1.435-3.407,3.27c-0.08,1.884,1.382,3.476,3.267,3.555l24.192,1.019c16.534,0,29.988,11.933,29.988,26.6v27.525
			H25.6V180.69c0-14.667,13.454-26.6,30.133-26.604l23.938-1.012c1.884-0.08,3.347-1.671,3.267-3.555
			c-0.079-1.882-1.678-3.36-3.553-3.267l-23.794,1.009c-20.299,0-36.816,14.995-36.816,33.427v30.938
			c0,1.884,1.529,3.413,3.413,3.413h170.667c1.884,0,3.413-1.529,3.413-3.413v-30.94
			C196.267,162.256,179.758,147.263,159.602,147.263z"/>
	</g>
</g>
<g>
	<g>
		<path d="M134.827,133.12H80.213c-1.884,0-3.413,1.529-3.413,3.413v16.213c0,1.493,0.969,2.813,2.394,3.258
			c8.87,2.772,18.598,4.157,28.326,4.157c9.728,0,19.456-1.386,28.326-4.157c1.425-0.445,2.394-1.765,2.394-3.258v-16.213
			C138.24,134.649,136.711,133.12,134.827,133.12z M131.413,150.195c-15.143,4.202-32.643,4.202-47.787,0v-10.249h47.787V150.195z"
			/>
	</g>
</g>
<g>
	<g>
		<path d="M107.52,0c-28.232,0-51.2,22.968-51.2,51.2v62.998c0,14.198,11.552,25.749,25.75,25.749h50.901
			c14.198,0,25.748-11.551,25.748-25.749V51.2C158.72,22.968,135.752,0,107.52,0z M151.893,114.198
			c0,10.433-8.489,18.922-18.922,18.922H82.07c-10.435,0-18.924-8.487-18.924-18.922V51.2c0-24.467,19.905-44.373,44.373-44.373
			s44.373,19.907,44.373,44.373V114.198z"/>
	</g>
</g>
<g>
	<g>
		<path d="M87.04,68.267c-9.411,0-17.067,7.656-17.067,17.067S77.629,102.4,87.04,102.4s17.067-7.656,17.067-17.067
			S96.451,68.267,87.04,68.267z M87.04,95.573c-5.647,0-10.24-4.593-10.24-10.24c0-5.647,4.593-10.24,10.24-10.24
			c5.647,0,10.24,4.593,10.24,10.24C97.28,90.981,92.687,95.573,87.04,95.573z"/>
	</g>
</g>
<g>
	<g>
		<path d="M128,68.267c-9.411,0-17.067,7.656-17.067,17.067S118.589,102.4,128,102.4c9.411,0,17.067-7.656,17.067-17.067
			S137.411,68.267,128,68.267z M128,95.573c-5.647,0-10.24-4.593-10.24-10.24c0-5.647,4.593-10.24,10.24-10.24
			c5.647,0,10.24,4.593,10.24,10.24C138.24,90.981,133.647,95.573,128,95.573z"/>
	</g>
</g>
<g>
	<g>
		<path d="M128,68.267H87.04c-1.884,0-3.413,1.529-3.413,3.413c0,1.884,1.529,3.413,3.413,3.413H128
			c1.884,0,3.413-1.529,3.413-3.413S129.884,68.267,128,68.267z"/>
	</g>
</g>
<g>
	<g>
		<path d="M127.145,154.754c-0.647-0.734-1.58-1.154-2.558-1.154H90.453c-0.978,0-1.911,0.42-2.558,1.154
			c-0.649,0.734-0.949,1.712-0.828,2.683l6.827,54.613c0.213,1.708,1.664,2.99,3.386,2.99h20.48c1.722,0,3.173-1.282,3.386-2.99
			l6.827-54.613C128.096,156.464,127.793,155.488,127.145,154.754z M114.748,208.213h-14.454l-5.973-47.787h26.4L114.748,208.213z"
			/>
	</g>
</g>
<g>
	<g>
		<path d="M107.52,163.823c-1.886,0-3.43,1.544-3.43,3.43s1.546,3.43,3.43,3.43s3.432-1.545,3.432-3.43
			S109.406,163.823,107.52,163.823z"/>
	</g>
</g>
<g>
	<g>
		<path d="M107.52,177.476c-1.886,0-3.43,1.544-3.43,3.43s1.546,3.43,3.43,3.43s3.432-1.545,3.432-3.43
			S109.406,177.476,107.52,177.476z"/>
	</g>
</g>
<g>
	<g>
		<path d="M107.52,191.13c-1.886,0-3.43,1.545-3.43,3.43c0,1.886,1.546,3.43,3.43,3.43s3.432-1.545,3.432-3.43
			C110.952,192.674,109.406,191.13,107.52,191.13z"/>
	</g>
</g>
<g>
	<g>
		<path d="M127.756,49.932l-6.827-17.067c-0.408-1.017-1.278-1.778-2.342-2.045l-9.941-2.485l8.494-22.646
			c0.662-1.765-0.234-3.732-1.999-4.395c-1.766-0.664-3.731,0.23-4.395,1.997L100.91,29.52c-0.341,0.911-0.278,1.925,0.176,2.785
			c0.451,0.862,1.249,1.49,2.193,1.725l11.96,2.99l6.178,15.445c0.534,1.335,1.816,2.147,3.171,2.147
			c0.422,0,0.85-0.077,1.266-0.244C127.604,53.668,128.456,51.681,127.756,49.932z"/>
	</g>
</g>
<g>
	<g>
		<path d="M97.28,47.785H85.664c0.111-0.695,0.263-1.488,0.391-2.157c0.439-2.295,0.983-5.152,0.983-8.083
			c0-8.504-12.943-15.409-15.539-16.707c-1.684-0.841-3.734-0.159-4.577,1.526c-0.845,1.686-0.162,3.736,1.522,4.581
			c4.934,2.476,11.769,7.538,11.769,10.602c0,2.284-0.459,4.683-0.864,6.801c-0.688,3.604-1.231,6.451,0.531,8.581
			c0.898,1.085,2.227,1.684,3.746,1.684H97.28c1.884,0,3.413-1.531,3.413-3.415S99.164,47.785,97.28,47.785z"/>
	</g>
</g>
<g>
	<g>
		<path d="M150.407,25.882c-3.802-0.905-11.924,0.138-15.406,10.585c-0.596,1.789,0.37,3.721,2.159,4.318
			c0.358,0.119,0.724,0.176,1.08,0.176c1.43,0,2.761-0.903,3.236-2.335c2.243-6.729,6.538-6.26,7.397-6.091
			c1.816,0.406,3.63-0.724,4.064-2.541C153.373,28.158,152.241,26.319,150.407,25.882z"/>
	</g>
</g>
<g>
</g>
<g>
</g>
<g>
</g>
<g>
</g>
<g>
</g>
<g>
</g>
<g>
</g>
<g>
</g>
<g>
</g>
<g>
</g>
<g>
</g>
<g>
</g>
<g>
</g>
<g>
</g>
<g>
</g>
</svg>
