<?xml version="1.0" encoding="iso-8859-1"?>
<!-- Generator: Adobe Illustrator 19.0.0, SVG Export Plug-In . SVG Version: 6.00 Build 0)  -->
<svg version="1.1" id="Capa_1" xmlns="http://www.w3.org/2000/svg" xmlns:xlink="http://www.w3.org/1999/xlink" x="0px" y="0px"
	 viewBox="0 0 204.8 204.8" style="enable-background:new 0 0 204.8 204.8;" xml:space="preserve">
<g>
	<g>
		<path d="M87.04,6.827H32.427c-1.884,0-3.413,1.529-3.413,3.413v13.653c0,1.884,1.529,3.413,3.413,3.413h2.869
			c2.183,0,3.958,1.777,3.958,3.959V81.92c0,1.884,1.529,3.413,3.413,3.413H76.8c1.884,0,3.413-1.529,3.413-3.413V31.266
			c0-2.183,1.777-3.959,3.959-3.959h2.867c1.884,0,3.413-1.529,3.413-3.413V10.24C90.453,8.356,88.924,6.827,87.04,6.827z
			 M83.627,20.494c-5.695,0.285-10.24,5.007-10.24,10.772v47.241H46.08V31.266c0-5.763-4.545-10.487-10.24-10.772v-6.84h47.787
			V20.494z"/>
	</g>
</g>
<g>
	<g>
		<path d="M76.8,120.102c-1.884,0-3.413,1.529-3.413,3.413v60.805c0,3.838-1.63,7.521-4.471,10.105
			c-2.883,2.62-6.644,3.86-10.532,3.483c-6.9-0.659-12.303-6.95-12.303-14.322v-59.781c0-1.884-1.529-3.413-3.413-3.413
			s-3.413,1.529-3.413,3.413v59.781c0,10.854,8.119,20.128,18.482,21.118c0.652,0.061,1.304,0.094,1.956,0.094
			c5.091-0.002,10.039-1.888,13.815-5.321c4.262-3.876,6.707-9.4,6.707-15.157v-60.805C80.213,121.631,78.684,120.102,76.8,120.102z
			"/>
	</g>
</g>
<g>
	<g>
		<path d="M76.8,78.507H42.667c-1.884,0-3.413,1.529-3.413,3.413v25.935c0,1.884,1.529,3.413,3.413,3.413s3.413-1.529,3.413-3.413
			V85.333h27.307v23.101c0,1.884,1.529,3.413,3.413,3.413s3.413-1.527,3.413-3.413V81.92C80.213,80.036,78.684,78.507,76.8,78.507z"
			/>
	</g>
</g>
<g>
	<g>
		<path d="M52.907,51.2h-10.24c-1.884,0-3.413,1.529-3.413,3.413s1.529,3.413,3.413,3.413h10.24c1.884,0,3.413-1.529,3.413-3.413
			S54.791,51.2,52.907,51.2z"/>
	</g>
</g>
<g>
	<g>
		<path d="M52.907,64.853h-10.24c-1.884,0-3.413,1.529-3.413,3.413c0,1.884,1.529,3.413,3.413,3.413h10.24
			c1.884,0,3.413-1.529,3.413-3.413C56.32,66.383,54.791,64.853,52.907,64.853z"/>
	</g>
</g>
<g>
	<g>
		<path d="M52.907,92.16h-10.24c-1.884,0-3.413,1.529-3.413,3.413s1.529,3.413,3.413,3.413h10.24c1.884,0,3.413-1.529,3.413-3.413
			S54.791,92.16,52.907,92.16z"/>
	</g>
</g>
<g>
	<g>
		<path d="M52.907,105.813h-10.24c-1.884,0-3.413,1.529-3.413,3.413s1.529,3.413,3.413,3.413h10.24c1.884,0,3.413-1.529,3.413-3.413
			S54.791,105.813,52.907,105.813z"/>
	</g>
</g>
<g>
	<g>
		<path d="M52.907,119.467h-10.24c-1.884,0-3.413,1.529-3.413,3.413c0,1.884,1.529,3.413,3.413,3.413h10.24
			c1.884,0,3.413-1.529,3.413-3.413C56.32,120.996,54.791,119.467,52.907,119.467z"/>
	</g>
</g>
<g>
	<g>
		<path d="M52.907,133.12h-10.24c-1.884,0-3.413,1.529-3.413,3.413c0,1.884,1.529,3.413,3.413,3.413h10.24
			c1.884,0,3.413-1.529,3.413-3.413C56.32,134.649,54.791,133.12,52.907,133.12z"/>
	</g>
</g>
<g>
	<g>
		<path d="M175.787,197.973H15.36V3.413C15.36,1.529,13.831,0,11.947,0S8.533,1.529,8.533,3.413v197.973
			c0,1.884,1.529,3.413,3.413,3.413h163.84c1.884,0,3.413-1.529,3.413-3.413S177.671,197.973,175.787,197.973z"/>
	</g>
</g>
<g>
	<g>
		<path d="M121.173,105.813H11.947c-1.884,0-3.413,1.529-3.413,3.413v13.653c0,1.884,1.529,3.413,3.413,3.413h109.227
			c1.884,0,3.413-1.529,3.413-3.413v-13.653C124.587,107.343,123.058,105.813,121.173,105.813z M117.76,119.467H15.36v-6.827h102.4
			V119.467z"/>
	</g>
</g>
<g>
	<g>
		<path d="M155.307,6.827c-22.584,0-40.96,18.376-40.96,40.96c0,22.584,18.376,40.96,40.96,40.96s40.96-18.376,40.96-40.96
			C196.267,25.202,177.891,6.827,155.307,6.827z M155.307,81.92c-18.821,0-34.133-15.312-34.133-34.133s15.312-34.133,34.133-34.133
			s34.133,15.312,34.133,34.133S174.128,81.92,155.307,81.92z"/>
	</g>
</g>
<g>
	<g>
		<path d="M178.792,38.134c-1.07-5.895-4.103-10.1-8.542-11.843c0,0,0,0-0.002,0c-4.565-1.789-9.923-0.573-14.763,3.234
			c-4.837-3.811-10.187-5.028-14.763-3.234c-4.439,1.741-7.472,5.948-8.542,11.843c-0.964,5.301-0.215,11.481,2.106,17.399
			c4.367,11.127,15.78,17.41,20.941,17.801c0.085,0.007,0.171,0.01,0.258,0.01s0.172-0.003,0.258-0.01
			c5.163-0.391,16.575-6.673,20.941-17.801C179.005,49.616,179.753,43.435,178.792,38.134z M170.327,53.042
			c-3.318,8.465-12.131,13-14.841,13.454c-2.71-0.454-11.522-4.989-14.841-13.454c-1.838-4.687-2.475-9.675-1.746-13.689
			c0.365-2.016,1.413-5.567,4.318-6.706c0.592-0.234,1.23-0.346,1.901-0.346c2.415,0,5.251,1.473,7.936,4.197
			c0.642,0.65,1.517,1.017,2.43,1.017c0.913,0,1.789-0.367,2.43-1.016c3.434-3.482,7.11-4.927,9.844-3.852
			c2.903,1.14,3.949,4.69,4.316,6.706C172.802,43.366,172.165,48.357,170.327,53.042z"/>
	</g>
</g>
<g>
</g>
<g>
</g>
<g>
</g>
<g>
</g>
<g>
</g>
<g>
</g>
<g>
</g>
<g>
</g>
<g>
</g>
<g>
</g>
<g>
</g>
<g>
</g>
<g>
</g>
<g>
</g>
<g>
</g>
</svg>
