<?xml version="1.0" encoding="iso-8859-1"?>
<!-- Generator: Adobe Illustrator 19.0.0, SVG Export Plug-In . SVG Version: 6.00 Build 0)  -->
<svg version="1.1" id="Capa_1" xmlns="http://www.w3.org/2000/svg" xmlns:xlink="http://www.w3.org/1999/xlink" x="0px" y="0px"
	 viewBox="0 0 197.973 197.973" style="enable-background:new 0 0 197.973 197.973;" xml:space="preserve">
<g>
	<g>
		<path d="M75.093,49.812V13.653c0-1.884-1.529-3.413-3.413-3.413H51.2c-1.884,0-3.413,1.529-3.413,3.413v36.159
			c-20.231,5.994-34.133,24.44-34.133,45.761c0,26.349,21.437,47.787,47.787,47.787c26.349,0,47.787-21.437,47.787-47.787
			C109.227,74.25,95.324,55.806,75.093,49.812z M61.44,136.533c-22.584,0-40.96-18.374-40.96-40.96
			c0-19.053,12.955-35.427,31.507-39.817c1.539-0.364,2.627-1.739,2.627-3.321V17.067h13.653v35.369
			c0,1.582,1.087,2.958,2.627,3.321C89.445,60.146,102.4,76.52,102.4,95.573C102.4,118.159,84.024,136.533,61.44,136.533z"/>
	</g>
</g>
<g>
	<g>
		<path d="M61.44,58.027c-20.704,0-37.547,16.843-37.547,37.547S40.736,133.12,61.44,133.12c20.704,0,37.547-16.843,37.547-37.547
			S82.144,58.027,61.44,58.027z M61.44,126.293c-16.939,0-30.72-13.781-30.72-30.72s13.781-30.72,30.72-30.72
			c16.939,0,30.72,13.781,30.72,30.72S78.379,126.293,61.44,126.293z"/>
	</g>
</g>
<g>
	<g>
		<path d="M81.92,10.24H40.96c-1.884,0-3.413,1.529-3.413,3.413s1.529,3.413,3.413,3.413h40.96c1.884,0,3.413-1.529,3.413-3.413
			S83.804,10.24,81.92,10.24z"/>
	</g>
</g>
<g>
	<g>
		<path d="M180.907,30.72H51.2c-1.884,0-3.413,1.529-3.413,3.413s1.529,3.413,3.413,3.413h129.707c1.884,0,3.413-1.529,3.413-3.413
			S182.791,30.72,180.907,30.72z"/>
	</g>
</g>
<g>
	<g>
		<path d="M109.227,139.947H13.653c-1.884,0-3.413,1.529-3.413,3.413v13.653c0,1.884,1.529,3.413,3.413,3.413h95.573
			c1.884,0,3.413-1.529,3.413-3.413V143.36C112.64,141.476,111.111,139.947,109.227,139.947z M105.813,153.6H17.067v-6.827h88.747
			V153.6z"/>
	</g>
</g>
<g>
	<g>
		<path d="M36.28,154.361c-1.466-1.186-3.613-0.961-4.801,0.505l-29.013,35.84c-1.184,1.464-0.959,3.615,0.505,4.801
			c0.633,0.51,1.393,0.76,2.147,0.76c0.993,0,1.98-0.432,2.654-1.265l29.013-35.84C37.97,157.698,37.745,155.547,36.28,154.361z"/>
	</g>
</g>
<g>
	<g>
		<path d="M122.119,190.705l-29.013-35.84c-1.188-1.464-3.335-1.69-4.801-0.505c-1.464,1.186-1.69,3.337-0.505,4.801L116.813,195
			c0.676,0.835,1.661,1.266,2.656,1.266c0.754,0,1.514-0.249,2.145-0.761C123.078,194.319,123.303,192.169,122.119,190.705z"/>
	</g>
</g>
<g>
	<g>
		<path d="M64.249,161.9c-0.638-0.922-1.686-1.473-2.809-1.473c-1.123,0-2.173,0.55-2.809,1.473
			c-1.811,2.621-10.844,16.026-10.844,22.42c0,7.528,6.125,13.653,13.653,13.653c7.528,0,13.653-6.125,13.653-13.653
			C75.093,177.925,66.062,164.521,64.249,161.9z M61.44,191.147c-3.765,0-6.827-3.062-6.827-6.827c0-2.26,3.185-8.446,6.827-14.264
			c3.642,5.816,6.827,12.001,6.827,14.264C68.267,188.085,65.205,191.147,61.44,191.147z"/>
	</g>
</g>
<g>
	<g>
		<path d="M180.907,191.147H3.413c-1.884,0-3.413,1.529-3.413,3.413c0,1.884,1.529,3.413,3.413,3.413h177.493
			c1.884,0,3.413-1.529,3.413-3.413C184.32,192.676,182.791,191.147,180.907,191.147z"/>
	</g>
</g>
<g>
	<g>
		<path d="M194.56,0h-13.653c-1.884,0-3.413,1.529-3.413,3.413V194.56c0,1.884,1.529,3.413,3.413,3.413h13.653
			c1.884,0,3.413-1.529,3.413-3.413V3.413C197.973,1.529,196.444,0,194.56,0z M191.147,191.147h-6.827V6.827h6.827V191.147z"/>
	</g>
</g>
<g>
</g>
<g>
</g>
<g>
</g>
<g>
</g>
<g>
</g>
<g>
</g>
<g>
</g>
<g>
</g>
<g>
</g>
<g>
</g>
<g>
</g>
<g>
</g>
<g>
</g>
<g>
</g>
<g>
</g>
</svg>
