<?xml version="1.0" encoding="iso-8859-1"?>
<!-- Generator: Adobe Illustrator 19.0.0, SVG Export Plug-In . SVG Version: 6.00 Build 0)  -->
<svg version="1.1" id="Capa_1" xmlns="http://www.w3.org/2000/svg" xmlns:xlink="http://www.w3.org/1999/xlink" x="0px" y="0px"
	 viewBox="0 0 208.847 208.847" style="enable-background:new 0 0 208.847 208.847;" xml:space="preserve">
<g>
	<g>
		<path d="M143.448,79.917l-22.205-22.205c-1.333-1.333-3.494-1.333-4.826,0L99.761,74.365c-0.64,0.64-1,1.509-1,2.413
			s0.36,1.773,1,2.413l22.205,22.205c7.719,7.719,7.395,20.605-0.724,28.723c-7.984,7.984-20.763,8.199-28.481,0.481l-22.205-22.205
			c-1.333-1.333-3.494-1.333-4.826,0L48.835,125.29c-1.333,1.333-1.333,3.494,0,4.826l22.205,22.205
			c9.51,9.51,22.34,14.24,35.299,14.24c13.426,0,26.991-5.084,37.108-15.205C163.145,131.661,163.145,99.613,143.448,79.917z
			 M138.625,146.533c-17.273,17.266-46.008,17.71-62.756,0.964l-19.792-19.792l12.068-12.066l19.792,19.792
			c10.382,10.382,27.488,10.167,38.135-0.481c5.105-5.106,8.033-11.884,8.248-19.087c0.218-7.369-2.453-14.22-7.525-19.29
			L107.004,76.78l11.829-11.827l19.792,19.792C155.659,101.779,155.659,129.499,138.625,146.533z"/>
	</g>
</g>
<g>
	<g>
		<path d="M121.244,57.713L104.35,40.819c-1.333-1.333-3.494-1.333-4.826,0L82.629,57.713c-1.333,1.333-1.333,3.494,0,4.826
			l16.894,16.894c0.667,0.667,1.539,1,2.413,1c0.874,0,1.748-0.335,2.413-1l16.894-16.894
			C122.577,61.207,122.577,59.046,121.244,57.713z M101.937,72.192L89.869,60.125l12.068-12.068l12.068,12.068L101.937,72.192z"/>
	</g>
</g>
<g>
	<g>
		<path d="M70.558,108.398L53.664,91.503c-1.333-1.333-3.494-1.333-4.826,0l-16.894,16.894c-1.333,1.333-1.333,3.494,0,4.826
			l16.894,16.894c0.667,0.667,1.539,1,2.413,1c0.874,0,1.746-0.333,2.413-1l16.894-16.894
			C71.891,111.891,71.891,109.731,70.558,108.398z M51.25,122.877l-12.068-12.068L51.25,98.741l12.068,12.068L51.25,122.877z"/>
	</g>
</g>
<g>
	<g>
		<path d="M188.559,182.952c7.578-8.781,14.561-19.226,9.921-23.869c-4.642-4.639-15.085,2.345-23.868,9.923l-2.949-2.949
			c7.578-8.781,14.561-19.226,9.921-23.869c-4.644-4.635-15.085,2.343-23.868,9.923l-9.923-9.921c-1.28-1.28-3.546-1.28-4.826,0
			l-9.653,9.655c-1.333,1.333-1.333,3.494,0,4.826l9.921,9.923c-7.579,8.781-14.563,19.224-9.921,23.866
			c4.642,4.644,15.085-2.342,23.866-9.921l2.951,2.951c-7.579,8.781-14.563,19.224-9.921,23.866
			c1.036,1.036,2.362,1.493,3.893,1.493c5.328-0.002,13.153-5.528,19.973-11.414l5.096,5.094c1.28,1.28,3.546,1.28,4.826,0
			l9.653-9.655c1.333-1.333,1.333-3.494,0-4.826L188.559,182.952z M181.583,195.286l-4.951-4.951
			c-1.287-1.287-3.354-1.338-4.702-0.118c-7.733,6.989-13.187,10.264-15.966,11.38c1.116-2.777,4.391-8.233,11.38-15.966
			c1.22-1.348,1.169-3.417-0.118-4.702l-7.489-7.489c-0.666-0.666-1.538-1-2.413-1c-0.818,0-1.637,0.292-2.289,0.882
			c-7.733,6.989-13.187,10.264-15.966,11.38c1.116-2.777,4.391-8.233,11.38-15.966c1.22-1.348,1.169-3.417-0.118-4.702l-9.777-9.778
			l4.826-4.828l9.777,9.777c1.289,1.289,3.354,1.338,4.702,0.118c7.735-6.991,13.191-10.264,15.968-11.38
			c-1.116,2.777-4.39,8.233-11.38,15.968c-1.22,1.348-1.169,3.417,0.118,4.702l7.489,7.487c1.287,1.287,3.354,1.34,4.702,0.118
			c7.733-6.99,13.189-10.264,15.966-11.38c-1.116,2.777-4.39,8.233-11.38,15.968c-1.22,1.348-1.169,3.417,0.118,4.702l4.949,4.949
			L181.583,195.286z"/>
	</g>
</g>
<g>
	<g>
		<path d="M48.682,53.373c-0.623-0.997-1.717-1.603-2.893-1.603h-9.472V23.89c0-1.589-1.097-2.968-2.647-3.326
			c-1.55-0.353-3.14,0.401-3.835,1.831L9.219,64.733c-0.514,1.06-0.449,2.307,0.176,3.306c0.623,0.997,1.717,1.603,2.893,1.603
			h9.472v27.88c0,1.589,1.097,2.968,2.647,3.326c0.256,0.058,0.514,0.087,0.768,0.087c1.282,0,2.487-0.727,3.067-1.918
			l20.617-42.337C49.371,55.619,49.307,54.371,48.682,53.373z M28.586,82.716V66.228c0-1.884-1.529-3.413-3.413-3.413h-7.427
			L29.49,38.696v16.488c0,1.884,1.529,3.413,3.413,3.413h7.427L28.586,82.716z"/>
	</g>
</g>
<g>
	<g>
		<path d="M81.571,24.189c-0.623-0.997-1.717-1.603-2.893-1.603H72.79V3.412c0-1.589-1.097-2.968-2.647-3.326
			c-1.548-0.352-3.14,0.401-3.835,1.831L51.426,32.478c-0.514,1.06-0.449,2.307,0.176,3.306c0.623,0.997,1.717,1.603,2.893,1.603
			h5.886v19.174c0,1.589,1.097,2.968,2.647,3.326c0.256,0.058,0.514,0.087,0.768,0.087c1.282,0,2.487-0.727,3.067-1.918
			l14.884-30.561C82.261,26.435,82.196,25.187,81.571,24.189z M67.208,41.757v-7.784c0-1.884-1.529-3.413-3.413-3.413h-3.842
			l6.009-12.341v7.782c0,1.884,1.529,3.413,3.413,3.413h3.843L67.208,41.757z"/>
	</g>
</g>
<g>
</g>
<g>
</g>
<g>
</g>
<g>
</g>
<g>
</g>
<g>
</g>
<g>
</g>
<g>
</g>
<g>
</g>
<g>
</g>
<g>
</g>
<g>
</g>
<g>
</g>
<g>
</g>
<g>
</g>
</svg>
