<?xml version="1.0" encoding="iso-8859-1"?>
<!-- Generator: Adobe Illustrator 19.0.0, SVG Export Plug-In . SVG Version: 6.00 Build 0)  -->
<svg version="1.1" id="Capa_1" xmlns="http://www.w3.org/2000/svg" xmlns:xlink="http://www.w3.org/1999/xlink" x="0px" y="0px"
	 viewBox="0 0 211.629 211.629" style="enable-background:new 0 0 211.629 211.629;" xml:space="preserve">
<g>
	<g>
		<path d="M50.52,64.856c-27.858,0-50.519,22.663-50.519,50.517v31.403c0,1.884,1.529,3.413,3.413,3.413h23.554
			c1.884,0,3.413-1.529,3.413-3.413v-31.403c0-10.918,9.339-19.797,20.82-19.797c11.293,0,20.48,8.882,20.48,19.797v31.403
			c0,1.884,1.529,3.413,3.413,3.413h23.893c1.884,0,3.413-1.529,3.413-3.413v-31.403C102.401,87.99,78.644,64.856,50.52,64.856z
			 M95.574,143.362H78.508v-27.989c0-14.681-12.25-26.624-27.307-26.624c-15.244,0-27.646,11.943-27.646,26.624v27.989H6.828
			v-27.989c0-24.091,19.601-43.691,43.692-43.691c24.421,0,45.054,20.009,45.054,43.691V143.362z"/>
	</g>
</g>
<g>
	<g>
		<path d="M27.308,143.362H3.414c-1.884,0-3.413,1.529-3.413,3.413v23.893c0,1.884,1.529,3.413,3.413,3.413h23.893
			c1.884,0,3.413-1.529,3.413-3.413v-23.893C30.721,144.892,29.192,143.362,27.308,143.362z M23.894,167.256H6.828v-17.067h17.067
			V167.256z"/>
	</g>
</g>
<g>
	<g>
		<path d="M98.988,143.362H75.095c-1.884,0-3.413,1.529-3.413,3.413v23.893c0,1.884,1.529,3.413,3.413,3.413h23.893
			c1.884,0,3.413-1.529,3.413-3.413v-23.893C102.401,144.892,100.872,143.362,98.988,143.362z M95.574,167.256H78.508v-17.067
			h17.067V167.256z"/>
	</g>
</g>
<g>
	<g>
		<path d="M95.064,192.767c-0.621-1.005-1.72-1.618-2.903-1.618h-4.716l4.357-8.713c0.843-1.688,0.159-3.738-1.527-4.581
			c-1.691-0.845-3.738-0.157-4.581,1.527l-6.827,13.653c-0.527,1.058-0.471,2.314,0.15,3.321c0.621,1.005,1.72,1.618,2.903,1.618
			h4.715l-4.357,8.713c-0.843,1.688-0.159,3.738,1.527,4.581c0.492,0.246,1.012,0.36,1.524,0.36c1.253,0,2.458-0.69,3.057-1.888
			l6.827-13.653C95.742,195.03,95.685,193.774,95.064,192.767z"/>
	</g>
</g>
<g>
	<g>
		<path d="M23.384,192.767c-0.621-1.005-1.72-1.618-2.903-1.618h-4.716l4.357-8.713c0.843-1.688,0.159-3.738-1.527-4.581
			c-1.691-0.845-3.739-0.157-4.581,1.527l-6.827,13.653c-0.527,1.058-0.471,2.314,0.15,3.321c0.621,1.005,1.72,1.618,2.903,1.618
			h4.716l-4.357,8.713c-0.843,1.688-0.159,3.738,1.527,4.581c0.492,0.246,1.012,0.36,1.524,0.36c1.253,0,2.458-0.69,3.057-1.888
			l6.827-13.653C24.062,195.03,24.005,193.774,23.384,192.767z"/>
	</g>
</g>
<g>
	<g>
		<path d="M61.441,34.516v-4.171c11.57-0.85,23.893-3.296,23.893-9.861c0-6.562-12.324-9.01-23.893-9.859V3.417
			c0-1.884-1.529-3.413-3.413-3.413H44.374c-1.884,0-3.413,1.529-3.413,3.413v7.207c-11.57,0.85-23.893,3.297-23.893,9.859
			c0,6.564,12.324,9.011,23.893,9.861v4.171c-11.57,0.85-23.893,3.297-23.893,9.859c0,6.564,12.324,9.011,23.893,9.861v14.032
			c0,1.884,1.529,3.413,3.413,3.413h13.653c1.884,0,3.413-1.529,3.413-3.413V54.237c11.57-0.85,23.893-3.296,23.893-9.861
			C85.334,37.814,73.011,35.366,61.441,34.516z M57.855,47.618c-1.816,0.092-3.241,1.591-3.241,3.408v13.829h-6.827V51.027
			c0-1.818-1.425-3.316-3.241-3.408c-10.411-0.526-16.584-2.068-19.337-3.243c2.753-1.172,8.926-2.715,19.337-3.243
			c1.816-0.092,3.241-1.591,3.241-3.408v-10.59c0-1.818-1.425-3.316-3.241-3.408c-10.411-0.526-16.584-2.068-19.337-3.243
			c2.753-1.172,8.926-2.715,19.337-3.243c1.816-0.092,3.241-1.591,3.241-3.408V6.831h6.827v7.002c0,1.818,1.425,3.316,3.241,3.408
			c10.411,0.526,16.584,2.068,19.337,3.243c-2.753,1.174-8.924,2.715-19.337,3.243c-1.816,0.092-3.241,1.591-3.241,3.408v10.59
			c0,1.818,1.425,3.316,3.241,3.408c10.411,0.526,16.584,2.068,19.337,3.243C74.439,45.55,68.268,47.091,57.855,47.618z"/>
	</g>
</g>
<g>
	<g>
		<path d="M208.214,61.442h-23.552c-1.884,0-3.413,1.529-3.413,3.413v31.403c0,10.918-9.339,19.797-20.821,19.797
			c-11.293,0-20.48-8.881-20.48-19.797V64.856c0-1.884-1.529-3.413-3.413-3.413h-23.893c-1.884,0-3.413,1.529-3.413,3.413v31.403
			c0,27.383,23.758,50.517,51.883,50.517c27.856,0,50.517-22.663,50.517-50.517V64.856
			C211.628,62.971,210.099,61.442,208.214,61.442z M204.801,96.258c0,24.091-19.601,43.691-43.691,43.691
			c-24.422,0-45.056-20.009-45.056-43.691V68.269h17.067v27.989c0,14.681,12.25,26.624,27.307,26.624
			c15.244,0,27.648-11.943,27.648-26.624V68.269h16.725V96.258z"/>
	</g>
</g>
<g>
	<g>
		<path d="M208.214,37.549h-23.893c-1.884,0-3.413,1.529-3.413,3.413v23.893c0,1.884,1.529,3.413,3.413,3.413h23.893
			c1.884,0,3.413-1.529,3.413-3.413V40.962C211.628,39.078,210.099,37.549,208.214,37.549z M204.801,61.442h-17.067V44.376h17.067
			V61.442z"/>
	</g>
</g>
<g>
	<g>
		<path d="M136.535,37.549h-23.893c-1.884,0-3.413,1.529-3.413,3.413v23.893c0,1.884,1.529,3.413,3.413,3.413h23.893
			c1.884,0,3.413-1.529,3.413-3.413V40.962C139.948,39.078,138.419,37.549,136.535,37.549z M133.121,61.442h-17.067V44.376h17.067
			V61.442z"/>
	</g>
</g>
<g>
	<g>
		<path d="M132.611,15.274c-0.621-1.005-1.72-1.618-2.903-1.618h-4.715l4.357-8.713c0.843-1.688,0.159-3.738-1.527-4.581
			c-1.693-0.847-3.738-0.159-4.581,1.527l-6.827,13.653c-0.527,1.058-0.471,2.314,0.15,3.321c0.621,1.005,1.72,1.618,2.903,1.618
			h4.716l-4.357,8.713c-0.843,1.688-0.159,3.738,1.527,4.581c0.492,0.246,1.012,0.36,1.524,0.36c1.253,0,2.458-0.69,3.057-1.888
			l6.827-13.653C133.288,17.537,133.232,16.28,132.611,15.274z"/>
	</g>
</g>
<g>
	<g>
		<path d="M204.291,15.274c-0.621-1.005-1.72-1.618-2.903-1.618h-4.716l4.357-8.713c0.843-1.688,0.159-3.738-1.527-4.581
			c-1.691-0.847-3.739-0.159-4.581,1.527l-6.827,13.653c-0.527,1.058-0.471,2.314,0.15,3.321c0.621,1.005,1.72,1.618,2.903,1.618
			h4.716l-4.357,8.713c-0.843,1.688-0.159,3.738,1.527,4.581c0.492,0.246,1.012,0.36,1.524,0.36c1.253,0,2.458-0.69,3.057-1.888
			l6.827-13.653C204.968,17.537,204.912,16.28,204.291,15.274z"/>
	</g>
</g>
<g>
	<g>
		<path d="M170.668,181.29v-4.171c11.57-0.85,23.893-3.296,23.893-9.861c0-6.562-12.324-9.009-23.893-9.859v-14.034
			c0-1.884-1.529-3.413-3.413-3.413h-13.653c-1.884,0-3.413,1.529-3.413,3.413v14.034c-11.57,0.85-23.893,3.297-23.893,9.859
			c0,6.564,12.324,9.011,23.893,9.861v4.171c-11.57,0.85-23.893,3.297-23.893,9.859c0,6.564,12.324,9.011,23.893,9.861v7.206
			c0,1.884,1.529,3.413,3.413,3.413h13.653c1.884,0,3.413-1.529,3.413-3.413v-7.206c11.57-0.85,23.893-3.296,23.893-9.861
			C194.561,184.587,182.237,182.139,170.668,181.29z M167.082,194.392c-1.816,0.092-3.241,1.591-3.241,3.408v7.002h-6.827V197.8
			c0-1.818-1.425-3.316-3.241-3.408c-10.411-0.526-16.584-2.068-19.337-3.243c2.753-1.172,8.926-2.715,19.337-3.243
			c1.816-0.092,3.241-1.591,3.241-3.408v-10.59c0-1.818-1.425-3.316-3.241-3.408c-10.411-0.526-16.584-2.068-19.337-3.243
			c2.753-1.172,8.926-2.715,19.337-3.243c1.816-0.092,3.241-1.591,3.241-3.408v-13.829h6.827v13.829
			c0,1.818,1.425,3.316,3.241,3.408c10.411,0.526,16.584,2.068,19.337,3.243c-2.753,1.174-8.924,2.715-19.337,3.243
			c-1.816,0.092-3.241,1.591-3.241,3.408v10.59c0,1.818,1.425,3.316,3.241,3.408c10.411,0.526,16.584,2.068,19.337,3.243
			C183.666,192.323,177.494,193.864,167.082,194.392z"/>
	</g>
</g>
<g>
</g>
<g>
</g>
<g>
</g>
<g>
</g>
<g>
</g>
<g>
</g>
<g>
</g>
<g>
</g>
<g>
</g>
<g>
</g>
<g>
</g>
<g>
</g>
<g>
</g>
<g>
</g>
<g>
</g>
</svg>
