<?xml version="1.0" encoding="iso-8859-1"?>
<!-- Generator: Adobe Illustrator 19.0.0, SVG Export Plug-In . SVG Version: 6.00 Build 0)  -->
<svg version="1.1" id="Capa_1" xmlns="http://www.w3.org/2000/svg" xmlns:xlink="http://www.w3.org/1999/xlink" x="0px" y="0px"
	 viewBox="0 0 189.283 189.283" style="enable-background:new 0 0 189.283 189.283;" xml:space="preserve">
<g>
	<g>
		<path d="M109.01,113.555c-2.14-2.14-4.504-4.065-7.028-5.724c-0.797-0.526-1.778-0.693-2.703-0.461
			c-0.927,0.23-1.714,0.841-2.169,1.678c-1.207,2.214-3.492,3.591-5.96,3.591c-3.765,0-6.827-3.062-6.827-6.827
			c0-0.311,0.049-0.671,0.123-1.116c0.155-0.942-0.087-1.906-0.672-2.657c-0.587-0.754-1.459-1.227-2.41-1.307
			c-13.051-1.091-25.865,3.577-35.108,12.822c-17.302,17.3-17.302,45.452,0,62.752c8.651,8.653,20.014,12.977,31.377,12.977
			c11.363,0,22.726-4.325,31.377-12.976C126.312,159.007,126.312,130.855,109.01,113.555z M104.183,171.481
			c-14.64,14.64-38.46,14.64-53.1,0c-14.638-14.64-14.638-38.458,0-53.098c7.06-7.064,16.579-10.972,26.505-10.979
			c0.79,6.781,6.569,12.063,13.561,12.064c3.678,0,7.144-1.502,9.67-4.07c1.179,0.927,2.304,1.925,3.364,2.985
			C118.821,133.023,118.821,156.841,104.183,171.481z"/>
	</g>
</g>
<g>
	<g>
		<path d="M101.39,129.707c-5.647,0-10.24,4.593-10.24,10.24c0,5.647,4.593,10.24,10.24,10.24c5.647,0,10.24-4.593,10.24-10.24
			C111.63,134.299,107.037,129.707,101.39,129.707z M101.39,143.36c-1.882,0-3.413-1.531-3.413-3.413s1.531-3.413,3.413-3.413
			s3.413,1.531,3.413,3.413S103.272,143.36,101.39,143.36z"/>
	</g>
</g>
<g>
	<g>
		<path d="M77.496,157.013c-3.765,0-6.827,3.062-6.827,6.827s3.062,6.827,6.827,6.827c3.765,0,6.827-3.062,6.827-6.827
			S81.261,157.013,77.496,157.013z"/>
	</g>
</g>
<g>
	<g>
		<path d="M58.723,133.12c-6.586,0-11.947,5.361-11.947,11.947c0,6.586,5.361,11.947,11.947,11.947
			c6.586,0,11.947-5.361,11.947-11.947C70.67,138.481,65.309,133.12,58.723,133.12z M58.723,150.187c-2.823,0-5.12-2.297-5.12-5.12
			c0-2.823,2.297-5.12,5.12-5.12c2.823,0,5.12,2.297,5.12,5.12C63.843,147.89,61.546,150.187,58.723,150.187z"/>
	</g>
</g>
<g>
	<g>
		<path d="M67.256,0c-1.884,0-3.413,1.529-3.413,3.413V102.4c0,1.884,1.529,3.413,3.413,3.413s3.413-1.529,3.413-3.413V3.413
			C70.67,1.529,69.14,0,67.256,0z"/>
	</g>
</g>
<g>
	<g>
		<path d="M136.211,40.962l19.219-28.827c0.7-1.048,0.765-2.394,0.171-3.504c-0.596-1.111-1.753-1.804-3.011-1.804H67.256
			c-1.884,0-3.413,1.529-3.413,3.413v61.44c0,1.884,1.529,3.413,3.413,3.413h85.333c1.258,0,2.415-0.693,3.011-1.801
			c0.592-1.111,0.527-2.458-0.171-3.504L136.211,40.962z M70.67,68.267V13.652h75.542L129.27,39.066
			c-0.765,1.147-0.765,2.64,0,3.787l16.942,25.414H70.67z"/>
	</g>
</g>
<g>
	<g>
		<path d="M99.683,22.187c-10.351,0-18.773,8.422-18.773,18.773c0,10.351,8.422,18.773,18.773,18.773s18.773-8.422,18.773-18.773
			C118.456,30.609,110.034,22.187,99.683,22.187z M99.683,52.907c-6.586,0-11.947-5.361-11.947-11.947
			c0-6.586,5.361-11.947,11.947-11.947s11.947,5.361,11.947,11.947C111.63,47.546,106.269,52.907,99.683,52.907z"/>
	</g>
</g>
<g>
	<g>
		<path d="M104.803,37.547h-10.24c-1.884,0-3.413,1.529-3.413,3.413s1.529,3.413,3.413,3.413h10.24c1.884,0,3.413-1.529,3.413-3.413
			S106.687,37.547,104.803,37.547z"/>
	</g>
</g>
<g>
</g>
<g>
</g>
<g>
</g>
<g>
</g>
<g>
</g>
<g>
</g>
<g>
</g>
<g>
</g>
<g>
</g>
<g>
</g>
<g>
</g>
<g>
</g>
<g>
</g>
<g>
</g>
<g>
</g>
</svg>
