<?xml version="1.0" encoding="iso-8859-1"?>
<!-- Generator: Adobe Illustrator 19.0.0, SVG Export Plug-In . SVG Version: 6.00 Build 0)  -->
<svg version="1.1" id="Capa_1" xmlns="http://www.w3.org/2000/svg" xmlns:xlink="http://www.w3.org/1999/xlink" x="0px" y="0px"
	 viewBox="0 0 191.148 191.148" style="enable-background:new 0 0 191.148 191.148;" xml:space="preserve">
<g>
	<g>
		<path d="M129.707,58.028c-7.528,0-13.653,6.125-13.653,13.653c0,7.528,6.125,13.653,13.653,13.653
			c7.528,0,13.653-6.125,13.653-13.653C143.361,64.153,137.235,58.028,129.707,58.028z M129.707,78.508
			c-3.765,0-6.827-3.062-6.827-6.827s3.062-6.827,6.827-6.827c3.765,0,6.827,3.062,6.827,6.827S133.472,78.508,129.707,78.508z"/>
	</g>
</g>
<g>
	<g>
		<path d="M176.494,113.641l-36.768-36.768c-1.331-1.333-3.495-1.333-4.826,0c-1.333,1.333-1.333,3.494,0,4.826l36.768,36.768
			c0.666,0.667,1.539,1,2.413,1c0.874,0,1.748-0.333,2.413-1C177.827,117.135,177.827,114.974,176.494,113.641z"/>
	</g>
</g>
<g>
	<g>
		<path d="M123.935,61.083L87.747,24.894c-1.331-1.333-3.495-1.333-4.826,0c-1.333,1.333-1.333,3.494,0,4.826l36.188,36.188
			c0.666,0.667,1.539,1,2.413,1c0.874,0,1.748-0.333,2.413-1C125.268,64.576,125.268,62.416,123.935,61.083z"/>
	</g>
</g>
<g>
	<g>
		<path d="M190.147,185.321L5.827,1.001C4.853,0.023,3.383-0.269,2.108,0.26C0.832,0.789,0.001,2.034,0.001,3.414v184.32
			c0,1.884,1.529,3.413,3.413,3.413h184.32c1.381,0,2.625-0.831,3.154-2.108C191.415,187.765,191.123,186.297,190.147,185.321z
			 M6.827,184.321V11.656l172.665,172.665H6.827z"/>
	</g>
</g>
<g>
	<g>
		<path d="M105.814,23.894h-20.48c-1.884,0-3.413,1.529-3.413,3.413v20.48c0,1.884,1.529,3.413,3.413,3.413s3.413-1.527,3.413-3.413
			V30.721h17.067c1.884,0,3.413-1.529,3.413-3.413S107.698,23.894,105.814,23.894z"/>
	</g>
</g>
<g>
	<g>
		<path d="M174.081,23.894h-20.48c-1.884,0-3.413,1.529-3.413,3.413s1.529,3.413,3.413,3.413h17.067v17.067
			c0,1.884,1.529,3.413,3.413,3.413c1.884,0,3.413-1.527,3.413-3.413v-20.48C177.494,25.424,175.965,23.894,174.081,23.894z"/>
	</g>
</g>
<g>
	<g>
		<path d="M174.081,92.161c-1.884,0-3.413,1.529-3.413,3.413v17.067h-17.067c-1.884,0-3.413,1.529-3.413,3.413
			c0,1.884,1.529,3.413,3.413,3.413h20.48c1.884,0,3.413-1.527,3.413-3.413v-20.48C177.494,93.69,175.965,92.161,174.081,92.161z"/>
	</g>
</g>
<g>
	<g>
		<path d="M173.08,28.308c-1.331-1.333-3.495-1.333-4.826,0l-32.427,32.427c-1.333,1.333-1.333,3.494,0,4.826
			c0.666,0.667,1.539,1,2.413,1c0.874,0,1.748-0.333,2.413-1l32.427-32.427C174.413,31.801,174.413,29.641,173.08,28.308z"/>
	</g>
</g>
<g>
	<g>
		<path d="M64.854,160.428H3.414c-1.884,0-3.413,1.529-3.413,3.413s1.529,3.413,3.413,3.413h61.44c1.884,0,3.413-1.529,3.413-3.413
			S66.738,160.428,64.854,160.428z"/>
	</g>
</g>
<g>
	<g>
		<path d="M37.547,139.948H3.414c-1.884,0-3.413,1.529-3.413,3.413s1.529,3.413,3.413,3.413h34.133c1.884,0,3.413-1.529,3.413-3.413
			S39.431,139.948,37.547,139.948z"/>
	</g>
</g>
<g>
</g>
<g>
</g>
<g>
</g>
<g>
</g>
<g>
</g>
<g>
</g>
<g>
</g>
<g>
</g>
<g>
</g>
<g>
</g>
<g>
</g>
<g>
</g>
<g>
</g>
<g>
</g>
<g>
</g>
</svg>
