<?xml version="1.0" encoding="iso-8859-1"?>
<!-- Generator: Adobe Illustrator 19.0.0, SVG Export Plug-In . SVG Version: 6.00 Build 0)  -->
<svg version="1.1" id="Capa_1" xmlns="http://www.w3.org/2000/svg" xmlns:xlink="http://www.w3.org/1999/xlink" x="0px" y="0px"
	 viewBox="0 0 205.196 205.196" style="enable-background:new 0 0 205.196 205.196;" xml:space="preserve">
<g>
	<g>
		<path d="M178.739,73.984c-1.178-1.471-3.325-1.708-4.799-0.532c-1.471,1.178-1.71,3.326-0.532,4.797
			c12.561,15.705,16.611,36.076,10.566,53.164c-4.246,12.008-12.643,20.204-23.033,22.487c-17.647,3.867-44.616-2.418-51.635-16.046
			c-5.898-11.447,4.572-24.438,14.394-33.323c1.398-1.265,1.507-3.424,0.242-4.821c-1.266-1.401-3.424-1.505-4.821-0.242
			c-21.012,19.007-20.236,33.067-15.884,41.513c4.106,7.968,13.268,14.345,25.8,17.954c6.683,1.925,13.885,2.91,20.712,2.91
			c4.463,0,8.767-0.422,12.657-1.28c12.747-2.799,22.955-12.595,28.005-26.877C197.234,114.394,192.763,91.515,178.739,73.984z"/>
	</g>
</g>
<g>
	<g>
		<path d="M124.238,48.029c-5.308,0.391-10.122,1.444-14.249,2.72c1.14-2.492,1.879-5.178,2.176-7.982
			c0.722-6.801-1.249-13.474-5.548-18.79c-4.297-5.318-10.411-8.644-17.21-9.365c-6.794-0.725-13.472,1.251-18.79,5.548
			L57.294,30.933c-7.863-1.642-40.516-7.359-51.139,8.281c-7.32,10.779-2.64,27.762,14.309,51.919
			c35.091,50.019,71.561,53.915,82.065,53.915c1.672,0,2.686-0.099,2.934-0.126c1.87-0.208,3.214-1.888,3.012-3.756
			c-0.201-1.869-1.891-3.236-3.751-3.029c-0.102,0.007-10.16,0.966-24.774-4.772c-13.549-5.318-33.896-17.644-53.898-46.152
			C11.346,66.253,6.419,50.982,11.8,43.052c7.644-11.264,35.488-7.506,45.571-5.111c1.031,0.251,2.116-0.002,2.937-0.666
			l14.599-11.803c3.9-3.152,8.791-4.603,13.78-4.07c4.987,0.527,9.47,2.966,12.622,6.868c3.152,3.898,4.596,8.791,4.069,13.778
			s-2.966,9.47-6.866,12.622l-3.982,3.219c-1.425,1.152-1.685,3.22-0.591,4.69c1.092,1.471,3.156,1.811,4.666,0.78
			c0.108-0.073,11.005-7.412,26.131-8.518c1.881-0.138,3.294-1.775,3.156-3.656C127.754,49.304,126.124,47.896,124.238,48.029z"/>
	</g>
</g>
<g>
	<g>
		<path d="M138.412,156.465c-0.205-1.872-1.876-3.224-3.761-3.022c-1.874,0.203-3.229,1.888-3.026,3.761
			c0.874,8.098,1,30.792-8.776,38.439c-4.239,3.318-10.26,3.582-17.893,0.794c-17.995-6.579-27.61-21.511-36.093-34.686
			c-8.55-13.278-16.626-25.82-31.507-26.08c-7.654-0.084-13.496,3.837-16.521,11.172c-4.432,10.745-1.601,27.119,5.938,34.352
			c4.246,4.077,9.475,4.982,14.727,2.562c6.653-3.072,10.353-8.083,10.151-13.747c-0.183-5.101-3.538-9.883-8.161-11.628
			c-1.765-0.664-3.734,0.225-4.4,1.988c-0.666,1.763,0.225,3.731,1.988,4.398c1.771,0.669,3.659,2.903,3.751,5.485
			c0.102,2.821-2.097,5.417-6.188,7.303c-2.671,1.232-4.939,0.823-7.141-1.287c-5.574-5.349-7.729-18.635-4.354-26.825
			c1.937-4.692,5.291-7.072,10.092-6.946c11.233,0.195,17.7,10.237,25.885,22.95c9.066,14.078,19.34,30.034,39.489,37.4
			c4.282,1.567,8.24,2.348,11.853,2.348c4.826,0,9.039-1.394,12.599-4.18C141.822,189.457,138.557,157.807,138.412,156.465z"/>
	</g>
</g>
<g>
	<g>
		<path d="M61.063,54.263c-1.715-2.13-4.156-3.466-6.874-3.761c-2.722-0.302-5.39,0.486-7.523,2.2c-4.4,3.541-5.1,9.999-1.56,14.399
			c2.021,2.509,4.992,3.816,7.989,3.816c2.253,0,4.521-0.739,6.407-2.258c2.132-1.714,3.468-4.154,3.763-6.874
			C63.558,59.064,62.776,56.395,61.063,54.263z M56.477,61.049c-0.099,0.905-0.543,1.719-1.253,2.29
			c-1.468,1.181-3.62,0.945-4.799-0.521c-1.179-1.466-0.945-3.62,0.521-4.799c0.613-0.493,1.359-0.754,2.133-0.754
			c0.123,0,0.249,0.009,0.374,0.022c0.906,0.097,1.72,0.543,2.292,1.254C56.315,59.252,56.576,60.143,56.477,61.049z"/>
	</g>
</g>
<g>
	<g>
		<path d="M97.519,31.512c-2.57-3.198-6.233-5.202-10.312-5.646c-4.081-0.432-8.086,0.73-11.283,3.302
			c-1.469,1.183-1.702,3.331-0.521,4.799c1.181,1.473,3.33,1.703,4.799,0.522c3.666-2.949,9.047-2.365,11.998,1.3
			c0.674,0.84,1.664,1.275,2.662,1.275c0.749,0,1.505-0.247,2.135-0.754C98.468,35.128,98.7,32.98,97.519,31.512z"/>
	</g>
</g>
<g>
	<g>
		<path d="M161.421,0c-22.586,0-40.96,18.376-40.96,40.96c0,22.584,18.374,40.96,40.96,40.96c22.586,0,40.96-18.376,40.96-40.96
			C202.381,18.376,184.007,0,161.421,0z M161.421,75.093c-18.821,0-34.133-15.312-34.133-34.133
			c0-18.821,15.312-34.133,34.133-34.133s34.133,15.312,34.133,34.133C195.555,59.781,180.243,75.093,161.421,75.093z"/>
	</g>
</g>
<g>
	<g>
		<path d="M180.729,55.441l-33.79-33.79c-1.331-1.333-3.495-1.333-4.826,0c-1.333,1.333-1.333,3.494,0,4.826l33.79,33.79
			c0.666,0.667,1.539,1,2.413,1c0.874,0,1.748-0.333,2.413-1C182.062,58.935,182.062,56.774,180.729,55.441z"/>
	</g>
</g>
<g>
	<g>
		<path d="M180.731,21.651c-1.331-1.333-3.495-1.333-4.826,0l-33.79,33.79c-1.333,1.333-1.333,3.494,0,4.826
			c0.666,0.667,1.539,1,2.413,1c0.872,0,1.748-0.333,2.413-1l33.79-33.79C182.064,25.144,182.064,22.984,180.731,21.651z"/>
	</g>
</g>
<g>
</g>
<g>
</g>
<g>
</g>
<g>
</g>
<g>
</g>
<g>
</g>
<g>
</g>
<g>
</g>
<g>
</g>
<g>
</g>
<g>
</g>
<g>
</g>
<g>
</g>
<g>
</g>
<g>
</g>
</svg>
