<?xml version="1.0" encoding="iso-8859-1"?>
<!-- Generator: Adobe Illustrator 19.0.0, SVG Export Plug-In . SVG Version: 6.00 Build 0)  -->
<svg version="1.1" id="Capa_1" xmlns="http://www.w3.org/2000/svg" xmlns:xlink="http://www.w3.org/1999/xlink" x="0px" y="0px"
	 viewBox="0 0 215.04 215.04" style="enable-background:new 0 0 215.04 215.04;" xml:space="preserve">
<g>
	<g>
		<path d="M160.194,199.979L138.24,71.392V51.2c0-1.884-1.529-3.413-3.413-3.413H80.213c-1.884,0-3.413,1.529-3.413,3.413v20.192
			L54.845,199.977c-0.64,3.753,0.401,7.574,2.855,10.484c2.456,2.91,6.047,4.579,9.854,4.579h79.93c3.806,0,7.398-1.669,9.854-4.577
			C159.795,207.553,160.835,203.732,160.194,199.979z M152.12,206.06c-1.154,1.369-2.845,2.154-4.635,2.154h-79.93
			c-1.79,0-3.48-0.785-4.635-2.154c-1.155-1.37-1.645-3.168-1.343-4.934L83.579,72.253c0.031-0.188,0.048-0.381,0.048-0.573V54.613
			h47.787V71.68c0,0.193,0.017,0.386,0.048,0.573l22.002,128.872C153.766,202.892,153.276,204.691,152.12,206.06z"/>
	</g>
</g>
<g>
	<g>
		<path d="M159.983,199.784l-11.274-60.462c-0.3-1.615-1.712-2.787-3.355-2.787H69.685c-1.643,0-3.053,1.171-3.355,2.787
			l-11.274,60.462c-0.703,3.779,0.3,7.644,2.758,10.602s6.072,4.654,9.917,4.654h79.578c3.845,0,7.458-1.696,9.916-4.654
			C159.683,207.428,160.688,203.564,159.983,199.784z M151.975,206.024c-1.155,1.391-2.857,2.19-4.666,2.19H67.731
			c-1.809,0-3.509-0.799-4.666-2.19c-1.155-1.393-1.628-3.21-1.297-4.989l10.754-57.675h69.997l10.754,57.675
			C153.603,202.813,153.131,204.633,151.975,206.024z"/>
	</g>
</g>
<g>
	<g>
		<path d="M92.16,157.013c-6.588,0-11.947,5.359-11.947,11.947c0,6.588,5.359,11.947,11.947,11.947
			c6.588,0,11.947-5.359,11.947-11.947C104.107,162.372,98.748,157.013,92.16,157.013z M92.16,174.08c-2.823,0-5.12-2.297-5.12-5.12
			s2.297-5.12,5.12-5.12c2.823,0,5.12,2.297,5.12,5.12S94.983,174.08,92.16,174.08z"/>
	</g>
</g>
<g>
	<g>
		<path d="M126.293,170.667c-6.588,0-11.947,5.359-11.947,11.947c0,6.588,5.359,11.947,11.947,11.947
			c6.588,0,11.947-5.359,11.947-11.947C138.24,176.026,132.881,170.667,126.293,170.667z M126.293,187.733
			c-2.823,0-5.12-2.297-5.12-5.12c0-2.823,2.297-5.12,5.12-5.12c2.823,0,5.12,2.297,5.12,5.12
			C131.413,185.436,129.116,187.733,126.293,187.733z"/>
	</g>
</g>
<g>
	<g>
		<path d="M145.067,47.787H69.973c-1.884,0-3.413,1.529-3.413,3.413s1.529,3.413,3.413,3.413h75.093
			c1.884,0,3.413-1.529,3.413-3.413S146.951,47.787,145.067,47.787z"/>
	</g>
</g>
<g>
	<g>
		<g>
			<path d="M129.707,13.653h-10.24c-4.705,0-8.533,3.828-8.533,8.533v5.12c0,1.884,1.529,3.413,3.413,3.413h15.36
				c4.705,0,8.533-3.828,8.533-8.533C138.24,17.481,134.412,13.653,129.707,13.653z M129.707,23.893H117.76v-1.707
				c0-0.94,0.766-1.707,1.707-1.707h10.24c0.94,0,1.707,0.766,1.707,1.707S130.647,23.893,129.707,23.893z"/>
			<path d="M129.707,0h-10.24C107.233,0,97.28,9.953,97.28,22.187v1.707h-4.697c-1.174,0-2.13-0.954-2.13-2.128V3.413
				C90.453,1.529,88.924,0,87.04,0H73.387c-1.884,0-3.413,1.529-3.413,3.413v18.352c0,12.467,10.143,22.608,22.61,22.608h4.697
				v95.573c0,1.884,1.529,3.413,3.413,3.413h13.653c1.884,0,3.413-1.529,3.413-3.413V44.373h11.947
				c12.233,0,22.187-9.953,22.187-22.187S141.94,0,129.707,0z M129.707,37.547h-15.36c-1.884,0-3.413,1.529-3.413,3.413v95.573
				h-6.827V40.96c0-1.884-1.529-3.413-3.413-3.413h-8.11c-8.704,0-15.783-7.079-15.783-15.782V6.827h6.827v14.938
				c0,4.937,4.017,8.955,8.957,8.955h8.11c1.884,0,3.413-1.529,3.413-3.413v-5.12c0-8.469,6.892-15.36,15.36-15.36h10.24
				c8.469,0,15.36,6.892,15.36,15.36C145.067,30.655,138.175,37.547,129.707,37.547z"/>
		</g>
	</g>
</g>
<g>
</g>
<g>
</g>
<g>
</g>
<g>
</g>
<g>
</g>
<g>
</g>
<g>
</g>
<g>
</g>
<g>
</g>
<g>
</g>
<g>
</g>
<g>
</g>
<g>
</g>
<g>
</g>
<g>
</g>
</svg>
