<?xml version="1.0" encoding="iso-8859-1"?>
<!-- Generator: Adobe Illustrator 19.0.0, SVG Export Plug-In . SVG Version: 6.00 Build 0)  -->
<svg version="1.1" id="Capa_1" xmlns="http://www.w3.org/2000/svg" xmlns:xlink="http://www.w3.org/1999/xlink" x="0px" y="0px"
	 viewBox="0 0 197.973 197.973" style="enable-background:new 0 0 197.973 197.973;" xml:space="preserve">
<g>
	<g>
		<path d="M194.56,0h-54.613c-1.884,0-3.413,1.529-3.413,3.413v13.653c0,1.884,1.529,3.413,3.413,3.413h2.867
			c2.183,0,3.959,1.777,3.959,3.959v74.547c0,1.884,1.529,3.413,3.413,3.413h34.133c1.884,0,3.413-1.529,3.413-3.413V24.439
			c0-2.183,1.777-3.959,3.959-3.959h2.867c1.884,0,3.413-1.529,3.413-3.413V3.413C197.973,1.529,196.444,0,194.56,0z
			 M191.147,13.667c-5.695,0.285-10.24,5.007-10.24,10.772v71.134H153.6V24.439c0-5.763-4.545-10.487-10.24-10.772v-6.84h47.787
			V13.667z"/>
	</g>
</g>
<g>
	<g>
		<path d="M184.32,95.573h-34.133c-1.884,0-3.413,1.529-3.413,3.413v40.226c0,10.854,8.117,20.13,18.48,21.12
			c0.654,0.061,1.306,0.092,1.956,0.092c5.093,0,10.042-1.888,13.819-5.323c4.262-3.874,6.706-9.399,6.706-15.155v-40.96
			C187.733,97.103,186.204,95.573,184.32,95.573z M180.907,139.947c0,3.838-1.63,7.521-4.471,10.105
			c-2.881,2.62-6.627,3.864-10.534,3.483c-6.898-0.657-12.302-6.95-12.302-14.322V102.4h27.307V139.947z"/>
	</g>
</g>
<g>
	<g>
		<path d="M160.427,85.333h-10.24c-1.884,0-3.413,1.529-3.413,3.413s1.529,3.413,3.413,3.413h10.24c1.884,0,3.413-1.529,3.413-3.413
			S162.311,85.333,160.427,85.333z"/>
	</g>
</g>
<g>
	<g>
		<path d="M160.427,64.853h-10.24c-1.884,0-3.413,1.529-3.413,3.413c0,1.884,1.529,3.413,3.413,3.413h10.24
			c1.884,0,3.413-1.529,3.413-3.413C163.84,66.382,162.311,64.853,160.427,64.853z"/>
	</g>
</g>
<g>
	<g>
		<path d="M160.427,105.813h-10.24c-1.884,0-3.413,1.529-3.413,3.413s1.529,3.413,3.413,3.413h10.24
			c1.884,0,3.413-1.529,3.413-3.413S162.311,105.813,160.427,105.813z"/>
	</g>
</g>
<g>
	<g>
		<path d="M64.853,68.267C29.094,68.267,0,97.36,0,133.12c0,35.76,29.094,64.853,64.853,64.853c35.76,0,64.853-29.094,64.853-64.853
			C129.707,97.36,100.613,68.267,64.853,68.267z M64.853,191.147c-31.997,0-58.027-26.03-58.027-58.027s26.03-58.027,58.027-58.027
			c31.997,0,58.027,26.03,58.027,58.027S96.85,191.147,64.853,191.147z"/>
	</g>
</g>
<g>
	<g>
		<path d="M41.602,97.265c-4.05-4.052-5.258-11.291-5.559-16.65c-0.068-1.201-0.763-2.278-1.83-2.835
			c-1.067-0.556-2.348-0.51-3.372,0.121c-13.747,8.484-23.788,21.675-28.269,37.14c-0.263,0.911-0.137,1.891,0.352,2.705
			c0.486,0.814,1.292,1.388,2.22,1.584c8.17,1.731,9.206,3.632,9.214,3.651c1.797,3.593,4.649,5.874,8.028,6.422
			c0.532,0.087,1.07,0.13,1.616,0.13c3.702,0,7.682-1.968,11.377-5.664c0.749-0.747,1.545-1.497,2.345-2.249
			c4.094-3.857,8.736-8.228,8.823-14.044C46.602,104.067,44.937,100.599,41.602,97.265z M33.044,116.647
			c-0.852,0.8-1.695,1.597-2.49,2.393c-2.609,2.609-5.185,3.936-7.072,3.625c-1.19-0.193-2.205-1.114-3.016-2.737
			c-1.376-2.749-4.663-4.811-10.238-6.381c3.804-10.636,10.615-19.893,19.627-26.708c1.096,6.63,3.413,11.747,6.921,15.253
			c1.98,1.98,2.971,3.789,2.947,5.379C39.678,110.399,36.306,113.575,33.044,116.647z"/>
	</g>
</g>
<g>
	<g>
		<path d="M70.497,145.514c-1.492-5.968-4.97-10.6-10.056-13.392c-5.588-3.065-12.774-3.613-19.222-1.463
			c-10.066,3.355-15.498,7.851-11.491,19.872c2.748,8.241,8.023,9.17,12.262,9.917c1.766,0.311,3.434,0.604,5.004,1.389
			c1.568,0.783,1.079,9.248-1.712,17.643c-0.51,1.533,0.123,3.212,1.517,4.026c0.521,0.305,4.221,2.377,8.259,2.377
			c1.265,0,2.563-0.203,3.808-0.727c1.881-0.794,4.345-2.63,5.408-6.88c0.944-3.775,2.196-6.958,3.406-10.037
			C70.352,161.446,72.876,155.028,70.497,145.514z M61.329,165.743c-1.231,3.13-2.625,6.676-3.676,10.88
			c-0.457,1.826-1.19,2.138-1.43,2.241c-0.869,0.37-2.246,0.179-3.545-0.218c1.923-6.81,4.357-19.418-2.632-22.914
			c-2.459-1.229-4.804-1.644-6.873-2.007c-3.782-0.667-5.509-0.971-6.968-5.352c-2.256-6.77-1.184-8.451,7.173-11.237
			c4.681-1.56,9.829-1.196,13.78,0.971c3.424,1.881,5.685,4.929,6.717,9.062C65.725,154.564,63.881,159.253,61.329,165.743z"/>
	</g>
</g>
<g>
	<g>
		<path d="M125.082,109.077c-5.202-13.018-14.674-24.192-26.67-31.459c-1.331-0.807-3.041-0.611-4.156,0.478
			C78.544,93.46,77.184,98.831,77.928,102.06c0.432,1.874,1.792,3.319,3.732,3.966c5.125,1.708,9.31,3.427,11.965,4.593
			c-1.376,1.976-3.835,4.309-7.776,4.309c-16.089,0-25.19,0.304-25.19,6.525c0,2.896,2.737,5.436,10.561,11.955
			c2.864,2.384,7.11,5.924,8.141,7.376c0.406,4.449,4.304,17.531,7.187,20.413c2.017,2.016,5.502,3.782,9.209,3.782
			c0.976,0,1.968-0.121,2.949-0.393c3.098-0.858,7.194-3.497,9.119-11.196c1.263-5.052,1.562-9.643,1.802-13.331
			c0.393-6.014,0.72-8.376,2.633-9.332c2.285-1.142,6.093-4.352,12.756-18.97C125.404,110.911,125.426,109.942,125.082,109.077z
			 M109.213,124.623c-5.598,2.799-5.984,8.723-6.393,14.995c-0.235,3.593-0.5,7.665-1.615,12.119
			c-0.621,2.487-1.876,5.594-4.318,6.27c-2.068,0.575-4.514-0.637-5.472-1.592c-1.56-1.86-5.262-13.846-5.262-16.295
			c0-2.896-2.738-5.436-10.561-11.955c-2.053-1.71-4.818-4.014-6.598-5.716c4.192-0.691,12.438-0.691,16.858-0.693
			c11.658,0,15.522-11.191,15.681-11.667c0.536-1.609-0.193-3.372-1.712-4.132c-0.254-0.126-6.096-3.031-14.978-6.06
			c0.654-1.604,3.099-5.83,12.264-15.017c9.276,6.226,16.672,15.125,21.081,25.39C112.358,122.766,109.527,124.467,109.213,124.623z
			"/>
	</g>
</g>
<g>
</g>
<g>
</g>
<g>
</g>
<g>
</g>
<g>
</g>
<g>
</g>
<g>
</g>
<g>
</g>
<g>
</g>
<g>
</g>
<g>
</g>
<g>
</g>
<g>
</g>
<g>
</g>
<g>
</g>
</svg>
