<?xml version="1.0" encoding="iso-8859-1"?>
<!-- Generator: Adobe Illustrator 19.0.0, SVG Export Plug-In . SVG Version: 6.00 Build 0)  -->
<svg version="1.1" id="Capa_1" xmlns="http://www.w3.org/2000/svg" xmlns:xlink="http://www.w3.org/1999/xlink" x="0px" y="0px"
	 viewBox="0 0 208.213 208.213" style="enable-background:new 0 0 208.213 208.213;" xml:space="preserve">
<g>
	<g>
		<path d="M66.56,78.507c-35.76,0-64.853,29.094-64.853,64.853c0,35.76,29.094,64.853,64.853,64.853
			c35.76,0,64.853-29.094,64.853-64.853C131.413,107.6,102.32,78.507,66.56,78.507z M66.56,201.387
			c-31.997,0-58.027-26.03-58.027-58.027s26.03-58.027,58.027-58.027c31.997,0,58.027,26.03,58.027,58.027
			S98.557,201.387,66.56,201.387z"/>
	</g>
</g>
<g>
	<g>
		<path d="M43.31,107.503c-4.052-4.052-5.26-11.291-5.56-16.652c-0.068-1.2-0.763-2.278-1.83-2.835
			c-1.067-0.556-2.35-0.51-3.372,0.121C18.801,96.623,8.76,109.814,4.279,125.28c-0.263,0.911-0.137,1.891,0.352,2.705
			c0.486,0.814,1.292,1.389,2.22,1.586c8.17,1.729,9.206,3.63,9.214,3.649c1.797,3.594,4.649,5.876,8.028,6.424
			c0.533,0.087,1.072,0.13,1.616,0.13c3.702,0,7.682-1.969,11.378-5.668c0.749-0.747,1.545-1.495,2.345-2.249
			c4.094-3.855,8.736-8.228,8.823-14.044C48.309,114.306,46.645,110.838,43.31,107.503z M34.753,126.886
			c-0.852,0.8-1.696,1.597-2.492,2.393c-2.609,2.609-5.192,3.944-7.071,3.625c-1.191-0.193-2.205-1.113-3.017-2.737
			c-1.376-2.748-4.663-4.809-10.238-6.38c3.802-10.634,10.615-19.893,19.628-26.708c1.096,6.63,3.413,11.745,6.921,15.253
			c1.98,1.98,2.971,3.789,2.947,5.379C41.388,120.639,38.014,123.814,34.753,126.886z"/>
	</g>
</g>
<g>
	<g>
		<path d="M72.206,155.752c-1.493-5.968-4.971-10.598-10.057-13.391c-5.588-3.067-12.771-3.613-19.222-1.463
			c-4.386,1.463-8.765,3.296-11.093,6.789c-2.813,4.219-1.69,9.207-0.398,13.083c2.746,8.241,8.023,9.168,12.261,9.916
			c1.766,0.311,3.436,0.606,5.006,1.391s1.079,9.25-1.712,17.645c-0.51,1.531,0.123,3.212,1.517,4.026
			c0.522,0.305,4.221,2.376,8.259,2.376c1.265,0,2.563-0.203,3.809-0.729c1.881-0.794,4.345-2.63,5.408-6.88
			c0.944-3.773,2.196-6.958,3.406-10.037C72.061,171.686,74.585,165.267,72.206,155.752z M63.036,175.985
			c-1.231,3.128-2.625,6.675-3.676,10.878c-0.457,1.826-1.19,2.138-1.43,2.241c-0.872,0.369-2.244,0.179-3.543-0.218
			c1.922-6.81,4.355-19.42-2.635-22.912c-2.459-1.23-4.804-1.643-6.873-2.007c-3.782-0.667-5.509-0.973-6.968-5.354
			c-1.539-4.622-0.964-6.287-0.398-7.137c0.934-1.399,3.27-2.664,7.572-4.098c4.68-1.562,9.83-1.198,13.778,0.969
			c3.425,1.881,5.687,4.931,6.719,9.064C67.432,164.806,65.587,169.494,63.036,175.985z"/>
	</g>
</g>
<g>
	<g>
		<path d="M126.79,119.32c-5.202-13.018-14.674-24.19-26.67-31.461c-1.333-0.807-3.041-0.611-4.156,0.48
			c-15.713,15.363-17.072,20.734-16.328,23.963c0.432,1.874,1.792,3.32,3.731,3.966c5.127,1.71,9.313,3.427,11.969,4.593
			c-1.376,1.973-3.833,4.309-7.779,4.309c-16.089,0-25.19,0.302-25.19,6.523c0,2.896,2.737,5.437,10.561,11.955
			c2.864,2.384,7.11,5.924,8.141,7.376c0.406,4.449,4.304,17.531,7.187,20.413c2.017,2.017,5.504,3.782,9.209,3.782
			c0.976,0,1.968-0.121,2.951-0.391c3.098-0.858,7.195-3.497,9.119-11.194c1.263-5.052,1.562-9.643,1.802-13.331
			c0.393-6.014,0.72-8.376,2.633-9.332c2.285-1.143,6.093-4.354,12.756-18.971C127.113,121.155,127.135,120.185,126.79,119.32z
			 M110.92,134.864c-5.598,2.797-5.984,8.721-6.393,14.993c-0.235,3.594-0.5,7.666-1.615,12.119
			c-0.621,2.488-1.876,5.596-4.318,6.272c-2.072,0.567-4.512-0.637-5.472-1.594c-1.56-1.859-5.262-13.844-5.262-16.294
			c0-2.896-2.738-5.437-10.561-11.955c-2.053-1.71-4.818-4.016-6.598-5.717c4.192-0.691,12.438-0.691,16.857-0.689
			c11.658,0,15.522-11.192,15.681-11.667c0.538-1.611-0.191-3.374-1.712-4.134c-0.253-0.126-6.093-3.031-14.976-6.062
			c0.654-1.604,3.099-5.828,12.264-15.015c9.276,6.226,16.672,15.125,21.081,25.39C114.063,133.007,111.232,134.707,110.92,134.864z
			"/>
	</g>
</g>
<g>
	<g>
		<path d="M168.96,54.613c-20.704,0-37.547,16.843-37.547,37.547s16.843,37.547,37.547,37.547s37.547-16.843,37.547-37.547
			S189.664,54.613,168.96,54.613z M168.96,122.88c-16.939,0-30.72-13.781-30.72-30.72s13.781-30.72,30.72-30.72
			s30.72,13.781,30.72,30.72S185.899,122.88,168.96,122.88z"/>
	</g>
</g>
<g>
	<g>
		<path d="M109.227,6.827c-14.116,0-25.6,11.484-25.6,25.6s11.484,25.6,25.6,25.6s25.6-11.484,25.6-25.6
			S123.343,6.827,109.227,6.827z M109.227,51.2c-10.351,0-18.773-8.422-18.773-18.773s8.422-18.773,18.773-18.773
			S128,22.076,128,32.427S119.578,51.2,109.227,51.2z"/>
	</g>
</g>
<g>
	<g>
		<path d="M165.547,71.68h-23.893c-1.884,0-3.413,1.529-3.413,3.413c0,1.884,1.529,3.413,3.413,3.413h23.893
			c1.884,0,3.413-1.529,3.413-3.413C168.96,73.209,167.431,71.68,165.547,71.68z"/>
	</g>
</g>
<g>
	<g>
		<path d="M199.68,81.92h-13.653c-1.884,0-3.413,1.529-3.413,3.413s1.529,3.413,3.413,3.413h13.653c1.884,0,3.413-1.529,3.413-3.413
			S201.564,81.92,199.68,81.92z"/>
	</g>
</g>
<g>
	<g>
		<path d="M148.48,88.747h-13.653c-1.884,0-3.413,1.529-3.413,3.413s1.529,3.413,3.413,3.413h13.653
			c1.884,0,3.413-1.529,3.413-3.413S150.364,88.747,148.48,88.747z"/>
	</g>
</g>
<g>
	<g>
		<path d="M168.96,109.227h-23.893c-1.884,0-3.413,1.529-3.413,3.413s1.529,3.413,3.413,3.413h23.893
			c1.884,0,3.413-1.529,3.413-3.413S170.844,109.227,168.96,109.227z"/>
	</g>
</g>
<g>
	<g>
		<path d="M199.68,95.573H179.2c-1.884,0-3.413,1.529-3.413,3.413s1.529,3.413,3.413,3.413h20.48c1.884,0,3.413-1.529,3.413-3.413
			S201.564,95.573,199.68,95.573z"/>
	</g>
</g>
<g>
	<g>
		<path d="M100.693,23.893h-10.24c-1.884,0-3.413,1.529-3.413,3.413s1.529,3.413,3.413,3.413h10.24c1.884,0,3.413-1.529,3.413-3.413
			S102.578,23.893,100.693,23.893z"/>
	</g>
</g>
<g>
	<g>
		<path d="M171.373,18.07c-1.28-1.28-3.567-1.28-4.83,0c-0.154,0.154-0.29,0.324-0.427,0.512c-0.119,0.189-0.222,0.375-0.307,0.58
			c-0.085,0.222-0.154,0.427-0.188,0.649c-0.051,0.224-0.068,0.445-0.068,0.667c0,0.461,0.085,0.887,0.256,1.314
			c0.171,0.411,0.41,0.785,0.734,1.094c0.649,0.649,1.502,1.007,2.423,1.007c0.444,0,0.887-0.085,1.297-0.261
			c0.41-0.169,0.785-0.427,1.109-0.749c0.649-0.65,1.007-1.504,1.007-2.406C172.38,19.589,172.005,18.702,171.373,18.07z"/>
	</g>
</g>
<g>
	<g>
		<path d="M189.379,33.466c-0.051-0.222-0.119-0.427-0.205-0.63c-0.085-0.224-0.188-0.411-0.307-0.599
			c-0.12-0.189-0.273-0.358-0.427-0.512c-0.154-0.171-0.324-0.307-0.512-0.427c-0.188-0.137-0.393-0.237-0.597-0.324
			c-0.205-0.084-0.427-0.152-0.631-0.186c-1.109-0.222-2.304,0.137-3.089,0.939c-0.154,0.154-0.29,0.324-0.427,0.512
			c-0.119,0.189-0.222,0.375-0.307,0.599c-0.085,0.203-0.154,0.408-0.205,0.63c-0.034,0.224-0.051,0.445-0.051,0.667
			c0,0.903,0.341,1.775,0.99,2.406c0.324,0.323,0.7,0.579,1.109,0.749s0.853,0.256,1.314,0.256c0.444,0,0.888-0.085,1.297-0.258
			c0.41-0.169,0.785-0.427,1.109-0.749c0.649-0.65,0.99-1.504,0.99-2.406C189.43,33.911,189.413,33.69,189.379,33.466z"/>
	</g>
</g>
<g>
	<g>
		<path d="M172.312,190.481c-0.051-0.222-0.119-0.427-0.205-0.648c-0.085-0.205-0.188-0.393-0.307-0.58
			c-0.12-0.189-0.273-0.358-0.427-0.512c-1.263-1.28-3.567-1.28-4.83,0c-0.154,0.154-0.29,0.324-0.427,0.512
			c-0.119,0.189-0.222,0.375-0.307,0.58c-0.085,0.222-0.154,0.427-0.188,0.648c-0.051,0.224-0.068,0.445-0.068,0.667
			c0,0.903,0.341,1.775,0.99,2.406c0.324,0.323,0.7,0.579,1.109,0.749s0.853,0.256,1.314,0.256c0.222,0,0.444-0.017,0.666-0.068
			c0.222-0.034,0.427-0.104,0.631-0.188c0.205-0.084,0.41-0.186,0.58-0.323c0.188-0.12,0.375-0.256,0.529-0.427
			c0.648-0.65,1.007-1.504,1.007-2.406C172.38,190.927,172.346,190.705,172.312,190.481z"/>
	</g>
</g>
<g>
	<g>
		<path d="M203.032,163.173c-0.051-0.222-0.119-0.427-0.205-0.649c-0.085-0.205-0.188-0.393-0.307-0.58
			c-0.119-0.189-0.273-0.358-0.427-0.512c-0.154-0.171-0.324-0.307-0.512-0.427c-0.188-0.137-0.393-0.237-0.597-0.324
			c-0.205-0.084-0.427-0.152-0.631-0.186c-0.444-0.104-0.905-0.104-1.348,0c-0.205,0.032-0.427,0.101-0.631,0.186
			c-0.205,0.085-0.41,0.188-0.58,0.324c-0.188,0.119-0.375,0.256-0.529,0.427c-0.154,0.154-0.29,0.324-0.427,0.512
			c-0.119,0.189-0.222,0.375-0.307,0.58c-0.085,0.222-0.154,0.427-0.188,0.649c-0.051,0.224-0.068,0.445-0.068,0.667
			c0,0.461,0.085,0.887,0.256,1.314c0.171,0.411,0.41,0.785,0.734,1.094c0.324,0.323,0.7,0.579,1.109,0.749
			c0.41,0.171,0.853,0.256,1.314,0.256c0.444,0,0.888-0.085,1.297-0.256c0.41-0.169,0.785-0.427,1.109-0.749
			c0.324-0.309,0.563-0.684,0.734-1.094c0.171-0.427,0.273-0.853,0.273-1.314C203.1,163.618,203.066,163.396,203.032,163.173z"/>
	</g>
</g>
<g>
	<g>
		<path d="M113.347,76.102c-1.263-1.28-3.55-1.28-4.83,0c-0.631,0.632-0.99,1.502-0.99,2.406c0,0.903,0.341,1.756,0.99,2.406
			c0.324,0.323,0.7,0.579,1.109,0.749c0.41,0.171,0.853,0.256,1.314,0.256c0.444,0,0.887-0.085,1.297-0.256
			c0.41-0.169,0.785-0.427,1.109-0.749c0.648-0.65,1.007-1.504,1.007-2.406C114.354,77.604,113.978,76.733,113.347,76.102z"/>
	</g>
</g>
<g>
	<g>
		<path d="M165.485,156.344c-0.051-0.222-0.119-0.427-0.205-0.648c-0.085-0.205-0.188-0.393-0.307-0.58
			c-0.12-0.189-0.273-0.358-0.427-0.512c-1.263-1.28-3.567-1.28-4.83,0c-0.154,0.154-0.29,0.324-0.427,0.512
			c-0.119,0.189-0.222,0.375-0.307,0.58c-0.085,0.222-0.154,0.427-0.205,0.648c-0.034,0.224-0.051,0.445-0.051,0.667
			c0,0.461,0.085,0.887,0.256,1.314c0.171,0.411,0.41,0.785,0.734,1.094c0.648,0.648,1.502,1.007,2.423,1.007
			c0.905,0,1.758-0.358,2.406-1.007c0.324-0.309,0.563-0.684,0.734-1.094c0.171-0.427,0.273-0.853,0.273-1.314
			C165.553,156.79,165.519,156.568,165.485,156.344z"/>
	</g>
</g>
<g>
	<g>
		<path d="M59.672,60.773c-0.051-0.222-0.119-0.427-0.205-0.63c-0.085-0.224-0.188-0.411-0.307-0.599
			c-0.119-0.189-0.273-0.358-0.427-0.512c-0.154-0.171-0.324-0.307-0.512-0.427c-0.188-0.119-0.393-0.237-0.597-0.324
			c-0.205-0.084-0.427-0.152-0.631-0.186c-1.126-0.239-2.287,0.137-3.089,0.939c-0.154,0.154-0.29,0.324-0.427,0.512
			c-0.12,0.189-0.222,0.375-0.307,0.599c-0.085,0.203-0.154,0.408-0.188,0.63c-0.051,0.224-0.068,0.445-0.068,0.667
			c0,0.922,0.341,1.775,0.99,2.406c0.324,0.323,0.7,0.579,1.109,0.749c0.41,0.171,0.853,0.256,1.314,0.256
			c0.905,0,1.758-0.358,2.406-1.007c0.648-0.631,1.007-1.504,1.007-2.406C59.74,61.218,59.706,60.996,59.672,60.773z"/>
	</g>
</g>
<g>
	<g>
		<path d="M128,37.547h-10.24c-1.884,0-3.413,1.529-3.413,3.413s1.529,3.413,3.413,3.413H128c1.884,0,3.413-1.529,3.413-3.413
			S129.884,37.547,128,37.547z"/>
	</g>
</g>
<g>
	<g>
		<path d="M45.08,24.893L31.427,11.24c-1.331-1.333-3.495-1.333-4.826,0L12.947,24.893c-1.333,1.333-1.333,3.494,0,4.826
			L26.6,43.373c0.666,0.667,1.539,1,2.413,1c0.874,0,1.748-0.333,2.413-1L45.08,29.72C46.413,28.387,46.413,26.226,45.08,24.893z
			 M29.013,36.134l-8.825-8.827l8.825-8.827l8.825,8.827L29.013,36.134z"/>
	</g>
</g>
<g>
	<g>
		<path d="M29.013,0C27.129,0,25.6,1.529,25.6,3.413v10.24c0,1.884,1.529,3.413,3.413,3.413s3.413-1.529,3.413-3.413V3.413
			C32.427,1.529,30.898,0,29.013,0z"/>
	</g>
</g>
<g>
	<g>
		<path d="M15.36,23.893H5.12c-1.884,0-3.413,1.529-3.413,3.413S3.236,30.72,5.12,30.72h10.24c1.884,0,3.413-1.529,3.413-3.413
			S17.244,23.893,15.36,23.893z"/>
	</g>
</g>
<g>
	<g>
		<path d="M29.013,37.547c-1.884,0-3.413,1.529-3.413,3.413V51.2c0,1.884,1.529,3.413,3.413,3.413s3.413-1.529,3.413-3.413V40.96
			C32.427,39.076,30.898,37.547,29.013,37.547z"/>
	</g>
</g>
<g>
	<g>
		<path d="M52.907,23.893h-10.24c-1.884,0-3.413,1.529-3.413,3.413s1.529,3.413,3.413,3.413h10.24c1.884,0,3.413-1.529,3.413-3.413
			S54.791,23.893,52.907,23.893z"/>
	</g>
</g>
<g>
</g>
<g>
</g>
<g>
</g>
<g>
</g>
<g>
</g>
<g>
</g>
<g>
</g>
<g>
</g>
<g>
</g>
<g>
</g>
<g>
</g>
<g>
</g>
<g>
</g>
<g>
</g>
<g>
</g>
</svg>
