<?xml version="1.0" encoding="iso-8859-1"?>
<!-- Generator: Adobe Illustrator 19.0.0, SVG Export Plug-In . SVG Version: 6.00 Build 0)  -->
<svg version="1.1" id="Capa_1" xmlns="http://www.w3.org/2000/svg" xmlns:xlink="http://www.w3.org/1999/xlink" x="0px" y="0px"
	 viewBox="0 0 218.453 218.453" style="enable-background:new 0 0 218.453 218.453;" xml:space="preserve">
<g>
	<g>
		<path d="M68.267,0c-11.293,0-20.48,9.187-20.48,20.48c0,11.293,9.187,20.48,20.48,20.48c11.293,0,20.48-9.187,20.48-20.48
			C88.747,9.187,79.56,0,68.267,0z M68.267,34.133c-7.528,0-13.653-6.125-13.653-13.653c0-7.528,6.125-13.653,13.653-13.653
			c7.528,0,13.653,6.125,13.653,13.653C81.92,28.008,75.795,34.133,68.267,34.133z"/>
	</g>
</g>
<g>
	<g>
		<path d="M68.267,88.747c-11.293,0-20.48,9.187-20.48,20.48s9.187,20.48,20.48,20.48c11.293,0,20.48-9.187,20.48-20.48
			S79.56,88.747,68.267,88.747z M68.267,122.88c-7.528,0-13.653-6.125-13.653-13.653s6.125-13.653,13.653-13.653
			c7.528,0,13.653,6.125,13.653,13.653S75.795,122.88,68.267,122.88z"/>
	</g>
</g>
<g>
	<g>
		<path d="M150.187,44.373c-11.293,0-20.48,9.187-20.48,20.48c0,11.293,9.187,20.48,20.48,20.48s20.48-9.187,20.48-20.48
			C170.667,53.56,161.48,44.373,150.187,44.373z M150.187,78.507c-7.528,0-13.653-6.125-13.653-13.653
			c0-7.528,6.125-13.653,13.653-13.653c7.528,0,13.653,6.125,13.653,13.653C163.84,72.381,157.715,78.507,150.187,78.507z"/>
	</g>
</g>
<g>
	<g>
		<path d="M150.187,133.12c-11.293,0-20.48,9.187-20.48,20.48s9.187,20.48,20.48,20.48s20.48-9.187,20.48-20.48
			S161.48,133.12,150.187,133.12z M150.187,167.253c-7.528,0-13.653-6.125-13.653-13.653c0-7.528,6.125-13.653,13.653-13.653
			c7.528,0,13.653,6.125,13.653,13.653C163.84,161.128,157.715,167.253,150.187,167.253z"/>
	</g>
</g>
<g>
	<g>
		<path d="M68.267,177.493c-11.293,0-20.48,9.187-20.48,20.48c0,11.293,9.187,20.48,20.48,20.48c11.293,0,20.48-9.187,20.48-20.48
			C88.747,186.68,79.56,177.493,68.267,177.493z M68.267,211.627c-7.528,0-13.653-6.125-13.653-13.653
			c0-7.528,6.125-13.653,13.653-13.653c7.528,0,13.653,6.125,13.653,13.653C81.92,205.501,75.795,211.627,68.267,211.627z"/>
	</g>
</g>
<g>
	<g>
		<g>
			<path d="M97.13,31.945l-11.901-6.694c-1.645-0.925-3.724-0.341-4.649,1.302c-0.923,1.644-0.341,3.724,1.302,4.649l11.901,6.694
				c0.531,0.297,1.104,0.439,1.671,0.439c1.193,0,2.352-0.626,2.978-1.741C99.355,34.951,98.773,32.87,97.13,31.945z"/>
			<path d="M136.388,54.028l-3.558-2.002c-1.645-0.923-3.726-0.341-4.649,1.302c-0.923,1.643-0.341,3.724,1.302,4.649l3.558,2.002
				c0.531,0.297,1.104,0.439,1.671,0.439c1.193,0,2.352-0.626,2.978-1.741C138.614,57.033,138.032,54.953,136.388,54.028z"/>
			<path d="M120.929,45.334l-11.901-6.694c-1.645-0.923-3.724-0.341-4.649,1.302c-0.923,1.643-0.341,3.724,1.302,4.649l11.901,6.694
				c0.531,0.297,1.104,0.439,1.671,0.439c1.195,0,2.352-0.628,2.978-1.741C123.155,48.34,122.573,46.259,120.929,45.334z"/>
		</g>
	</g>
</g>
<g>
	<g>
		<g>
			<path d="M85.443,96.399l-3.558,2.002c-1.644,0.925-2.227,3.007-1.302,4.649c0.626,1.115,1.785,1.741,2.978,1.741
				c0.567,0,1.142-0.142,1.671-0.439l3.558-2.002c1.643-0.925,2.227-3.007,1.302-4.649C89.167,96.058,87.086,95.474,85.443,96.399z"
				/>
			<path d="M137.692,70.927c-0.925-1.643-3.005-2.227-4.649-1.302l-11.901,6.694c-1.643,0.925-2.227,3.005-1.302,4.649
				c0.626,1.114,1.785,1.741,2.978,1.741c0.567,0,1.142-0.142,1.671-0.439l11.901-6.694
				C138.034,74.651,138.617,72.571,137.692,70.927z"/>
			<path d="M109.244,83.014l-11.901,6.693c-1.644,0.925-2.227,3.005-1.302,4.649c0.626,1.114,1.785,1.741,2.978,1.741
				c0.567,0,1.142-0.142,1.671-0.439l11.901-6.694c1.644-0.925,2.227-3.005,1.302-4.649
				C112.968,82.673,110.886,82.091,109.244,83.014z"/>
		</g>
	</g>
</g>
<g>
	<g>
		<g>
			<path d="M109.244,171.759l-11.901,6.695c-1.644,0.925-2.227,3.005-1.302,4.649c0.626,1.116,1.785,1.741,2.978,1.741
				c0.567,0,1.142-0.142,1.671-0.439l11.901-6.695c1.644-0.925,2.227-3.005,1.302-4.649
				C112.968,171.416,110.884,170.832,109.244,171.759z"/>
			<path d="M85.443,185.146l-3.558,2.002c-1.644,0.925-2.227,3.005-1.302,4.649c0.626,1.114,1.785,1.741,2.978,1.741
				c0.567,0,1.142-0.14,1.671-0.439l3.558-2.002c1.643-0.925,2.227-3.005,1.302-4.649C89.167,184.806,87.086,184.219,85.443,185.146
				z"/>
			<path d="M137.692,159.674c-0.925-1.644-3.005-2.226-4.649-1.302l-11.901,6.694c-1.643,0.923-2.227,3.005-1.302,4.649
				c0.626,1.115,1.785,1.741,2.978,1.741c0.567,0,1.142-0.14,1.671-0.439l11.901-6.694
				C138.034,163.398,138.617,161.318,137.692,159.674z"/>
		</g>
	</g>
</g>
<g>
	<g>
		<g>
			<path d="M136.388,142.775l-3.558-2.002c-1.645-0.925-3.726-0.341-4.649,1.302c-0.923,1.643-0.341,3.724,1.302,4.649l3.558,2.002
				c0.531,0.297,1.104,0.439,1.671,0.439c1.193,0,2.352-0.626,2.978-1.741C138.614,145.78,138.032,143.7,136.388,142.775z"/>
			<path d="M97.13,120.692l-11.901-6.694c-1.645-0.923-3.724-0.341-4.649,1.302c-0.923,1.643-0.341,3.724,1.302,4.649l11.901,6.694
				c0.531,0.297,1.104,0.439,1.671,0.439c1.193,0,2.352-0.626,2.978-1.741C99.355,123.697,98.773,121.617,97.13,120.692z"/>
			<path d="M120.929,134.081l-11.901-6.694c-1.645-0.925-3.726-0.341-4.649,1.302c-0.923,1.644-0.341,3.724,1.302,4.649
				l11.901,6.694c0.531,0.297,1.104,0.439,1.671,0.439c1.195,0,2.352-0.628,2.978-1.741
				C123.155,137.086,122.573,135.006,120.929,134.081z"/>
		</g>
	</g>
</g>
<g>
</g>
<g>
</g>
<g>
</g>
<g>
</g>
<g>
</g>
<g>
</g>
<g>
</g>
<g>
</g>
<g>
</g>
<g>
</g>
<g>
</g>
<g>
</g>
<g>
</g>
<g>
</g>
<g>
</g>
</svg>
