<?xml version="1.0" encoding="iso-8859-1"?>
<!-- Generator: Adobe Illustrator 19.0.0, SVG Export Plug-In . SVG Version: 6.00 Build 0)  -->
<svg version="1.1" id="Capa_1" xmlns="http://www.w3.org/2000/svg" xmlns:xlink="http://www.w3.org/1999/xlink" x="0px" y="0px"
	 viewBox="0 0 201.387 201.387" style="enable-background:new 0 0 201.387 201.387;" xml:space="preserve">
<g>
	<g>
		<path d="M162.133,17.067H39.253c-1.884,0-3.413,1.529-3.413,3.413v17.067c0,1.884,1.529,3.413,3.413,3.413h122.88
			c1.884,0,3.413-1.529,3.413-3.413V20.48C165.547,18.596,164.018,17.067,162.133,17.067z M158.72,34.133H42.667v-10.24H158.72
			V34.133z"/>
	</g>
</g>
<g>
	<g>
		<path d="M151.893,34.133h-102.4c-1.884,0-3.413,1.529-3.413,3.413V163.84c0,1.884,1.529,3.413,3.413,3.413h102.4
			c1.884,0,3.413-1.529,3.413-3.413V37.547C155.307,35.663,153.778,34.133,151.893,34.133z M148.48,160.427H52.907V40.96h95.573
			V160.427z"/>
	</g>
</g>
<g>
	<g>
		<path d="M46.08,0v23.893h109.227V0H46.08z M148.48,17.067H52.907V6.827h95.573V17.067z"/>
	</g>
</g>
<g>
	<g>
		<path d="M162.133,160.427H39.253c-1.884,0-3.413,1.529-3.413,3.413v17.067c0,1.884,1.529,3.413,3.413,3.413h122.88
			c1.884,0,3.413-1.529,3.413-3.413V163.84C165.547,161.956,164.018,160.427,162.133,160.427z M158.72,177.493H42.667v-10.24H158.72
			V177.493z"/>
	</g>
</g>
<g>
	<g>
		<path d="M46.08,177.493v23.893h109.227v-23.893H46.08z M148.48,194.56H52.907v-10.24h95.573V194.56z"/>
	</g>
</g>
<g>
	<g>
		<path d="M100.693,54.613c-12.553,0-22.019,20.545-22.019,47.787s9.467,47.787,22.019,47.787c12.554,0,22.021-20.545,22.021-47.787
			S113.248,54.613,100.693,54.613z M100.693,143.36c-7.171,0-15.193-17.517-15.193-40.96s8.021-40.96,15.193-40.96
			c7.173,0,15.194,17.517,15.194,40.96S107.867,143.36,100.693,143.36z"/>
	</g>
</g>
<g>
	<g>
		<path d="M144.845,120.928c-1.746-10.179-14.135-24.047-31.563-35.335C92.844,72.354,66.69,64.044,58.472,74.72
			c-1.872,2.43-2.538,5.596-1.929,9.151c1.746,10.177,14.135,24.047,31.561,35.335c13.923,9.018,30.498,15.749,42.25,15.749
			c5.499,0,9.941-1.475,12.561-4.876C144.789,127.648,145.454,124.483,144.845,120.928z M137.508,125.914
			c-3.685,4.78-22.842,2.36-45.691-12.438c-17.983-11.648-27.402-24.108-28.544-30.758c-0.287-1.674-0.087-2.927,0.609-3.833
			c1.102-1.434,3.594-2.219,7.161-2.219c8.334,0,22.526,4.294,38.528,14.659c17.985,11.648,27.404,24.108,28.546,30.758
			C138.404,123.756,138.204,125.01,137.508,125.914z"/>
	</g>
</g>
<g>
	<g>
		<path d="M142.916,74.721c-8.216-10.674-34.372-2.364-54.811,10.873c-17.427,11.288-29.815,25.158-31.561,35.335
			c-0.609,3.555,0.056,6.719,1.929,9.149c2.62,3.403,7.06,4.876,12.559,4.876c11.752,0,28.329-6.731,42.25-15.747
			c17.428-11.288,29.817-25.158,31.563-35.335C145.454,80.316,144.789,77.152,142.916,74.721z M138.115,82.717
			c-1.142,6.647-10.561,19.11-28.546,30.758c-22.847,14.798-42.011,17.22-45.689,12.438c-0.696-0.905-0.896-2.159-0.609-3.831
			c1.142-6.647,10.561-19.11,28.544-30.758c16.003-10.365,30.194-14.657,38.53-14.657c3.565,0,6.06,0.787,7.161,2.219
			C138.202,79.79,138.402,81.044,138.115,82.717z"/>
	</g>
</g>
<g>
</g>
<g>
</g>
<g>
</g>
<g>
</g>
<g>
</g>
<g>
</g>
<g>
</g>
<g>
</g>
<g>
</g>
<g>
</g>
<g>
</g>
<g>
</g>
<g>
</g>
<g>
</g>
<g>
</g>
</svg>
