<?xml version="1.0" encoding="iso-8859-1"?>
<!-- Generator: Adobe Illustrator 19.0.0, SVG Export Plug-In . SVG Version: 6.00 Build 0)  -->
<svg version="1.1" id="Capa_1" xmlns="http://www.w3.org/2000/svg" xmlns:xlink="http://www.w3.org/1999/xlink" x="0px" y="0px"
	 viewBox="0 0 218.453 218.453" style="enable-background:new 0 0 218.453 218.453;" xml:space="preserve">
<g>
	<g>
		<path d="M212.695,166.297l-39.651-38.531c-1.353-1.311-3.512-1.282-4.828,0.07c-1.312,1.353-1.282,3.514,0.07,4.828l39.619,38.497
			c1.331,1.331,1.331,3.497,0,4.828c-1.331,1.333-3.495,1.331-4.794,0.034l-40.238-41.359c-1.314-1.352-3.476-1.381-4.826-0.067
			c-1.352,1.314-1.381,3.475-0.067,4.826l40.272,41.392c1.995,1.997,4.618,2.995,7.24,2.995c2.623,0,5.246-0.998,7.24-2.999
			C216.723,176.82,216.723,170.325,212.695,166.297z"/>
	</g>
</g>
<g>
	<g>
		<path d="M166.874,62.552c-9.67-9.67-22.528-14.997-36.203-14.997s-26.534,5.325-36.203,14.997
			c-9.67,9.67-14.997,22.528-14.997,36.203s5.325,26.534,14.997,36.203c9.67,9.67,22.528,14.997,36.203,14.997
			s26.534-5.327,36.203-14.997C186.837,114.996,186.837,82.515,166.874,62.552z M162.048,130.133
			c-8.381,8.38-19.524,12.996-31.377,12.996s-22.997-4.615-31.377-12.996c-8.38-8.381-12.996-19.524-12.996-31.377
			c0-11.853,4.615-22.996,12.996-31.377c8.651-8.649,20.014-12.976,31.377-12.976s22.726,4.325,31.377,12.976
			C179.348,84.681,179.348,112.83,162.048,130.133z"/>
	</g>
</g>
<g>
	<g>
		<path d="M112.642,102.909c-11.967,0-22.721,8.006-26.153,19.468c-0.275,0.922-0.15,1.915,0.346,2.739
			c2.217,3.681,4.786,6.992,7.634,9.841c9.484,9.487,22.117,14.804,35.57,14.969c0.012,0,0.027,0,0.041,0
			c0.944,0,1.847-0.393,2.495-1.084c4.755-5.088,7.373-11.703,7.373-18.627C139.948,115.16,127.698,102.909,112.642,102.909z
			 M128.568,143.054c-11.076-0.515-21.42-5.071-29.273-12.923c-2.115-2.115-4.055-4.535-5.786-7.209
			c2.993-7.834,10.656-13.184,19.13-13.184c11.293,0,20.48,9.187,20.48,20.48C133.12,134.908,131.514,139.412,128.568,143.054z"/>
	</g>
</g>
<g>
	<g>
		<path d="M179.401,101.94l-18.975-10.955v-32.14c0-1.884-1.529-3.413-3.413-3.413s-3.413,1.529-3.413,3.413v34.109
			c0,1.219,0.65,2.347,1.707,2.956l20.681,11.938c0.538,0.312,1.125,0.459,1.703,0.459c1.181,0,2.328-0.613,2.959-1.705
			C181.593,104.969,181.035,102.882,179.401,101.94z"/>
	</g>
</g>
<g>
	<g>
		<path d="M159.969,91.248c-0.94-1.633-3.029-2.193-4.663-1.249l-30.182,17.425c-1.633,0.942-2.191,3.029-1.249,4.663
			c0.631,1.094,1.78,1.707,2.959,1.707c0.58,0,1.166-0.147,1.703-0.457L158.72,95.91C160.353,94.968,160.911,92.881,159.969,91.248z
			"/>
	</g>
</g>
<g>
	<g>
		<path d="M101.818,48.596c-0.94-1.633-3.028-2.195-4.663-1.249L69.045,63.576c-1.633,0.942-2.191,3.029-1.249,4.663
			c0.631,1.094,1.78,1.707,2.959,1.707c0.579,0,1.166-0.147,1.703-0.457l28.111-16.229C102.202,52.317,102.76,50.23,101.818,48.596z
			"/>
	</g>
</g>
<g>
	<g>
		<path d="M100.77,145.853l-27.138-15.669c-1.632-0.944-3.721-0.384-4.663,1.249s-0.384,3.721,1.249,4.663l27.138,15.669
			c0.538,0.312,1.125,0.459,1.703,0.459c1.181,0,2.328-0.613,2.959-1.708C102.961,148.882,102.403,146.795,100.77,145.853z"/>
	</g>
</g>
<g>
	<g>
		<path d="M61.44,79.018c-1.884,0-3.413,1.529-3.413,3.413v37.547c0,1.884,1.529,3.413,3.413,3.413s3.413-1.529,3.413-3.413V82.431
			C64.853,80.547,63.324,79.018,61.44,79.018z"/>
	</g>
</g>
<g>
	<g>
		<path d="M196.89,146.167l-13.088-7.555c-1.633-0.944-3.721-0.382-4.663,1.249c-0.942,1.633-0.384,3.721,1.249,4.663l13.088,7.555
			c0.538,0.312,1.125,0.459,1.703,0.459c1.181,0,2.328-0.613,2.959-1.708C199.081,149.196,198.523,147.109,196.89,146.167z"/>
	</g>
</g>
<g>
	<g>
		<path d="M197.431,48.574c-0.942-1.633-3.031-2.195-4.663-1.249L164.96,63.38c-1.633,0.942-2.191,3.029-1.249,4.663
			c0.631,1.094,1.78,1.707,2.959,1.707c0.579,0,1.166-0.148,1.703-0.457l27.808-16.055
			C197.815,52.295,198.373,50.208,197.431,48.574z"/>
	</g>
</g>
<g>
	<g>
		<path d="M54.124,63.741L25.376,47.144c-1.633-0.944-3.721-0.382-4.663,1.249c-0.942,1.633-0.384,3.721,1.249,4.663L50.71,69.653
			c0.538,0.312,1.125,0.459,1.703,0.459c1.181,0,2.328-0.613,2.959-1.708C56.315,66.771,55.757,64.684,54.124,63.741z"/>
	</g>
</g>
<g>
	<g>
		<path d="M54.03,131.365c-0.942-1.633-3.029-2.195-4.663-1.249l-27.708,15.997c-1.633,0.942-2.191,3.029-1.249,4.663
			c0.631,1.094,1.78,1.707,2.959,1.707c0.58,0,1.166-0.147,1.703-0.457l27.708-15.997C54.414,135.085,54.972,132.998,54.03,131.365z
			"/>
	</g>
</g>
<g>
	<g>
		<path d="M61.44,58.538c-7.528,0-13.653,6.125-13.653,13.653s6.125,13.653,13.653,13.653c7.528,0,13.653-6.125,13.653-13.653
			C75.093,64.663,68.968,58.538,61.44,58.538z M61.44,79.018c-3.765,0-6.827-3.062-6.827-6.827c0-3.765,3.062-6.827,6.827-6.827
			c3.765,0,6.827,3.062,6.827,6.827C68.267,75.956,65.205,79.018,61.44,79.018z"/>
	</g>
</g>
<g>
	<g>
		<path d="M109.227,34.643c-7.528,0-13.653,6.125-13.653,13.653c0,5.501,3.273,10.438,8.339,12.58
			c0.435,0.183,0.884,0.27,1.328,0.27c1.329,0,2.594-0.782,3.145-2.086c0.736-1.736-0.077-3.739-1.814-4.473
			c-2.533-1.07-4.169-3.54-4.169-6.291c0-3.765,3.062-6.827,6.827-6.827s6.827,3.062,6.827,6.827c0,1.027-0.222,2.012-0.659,2.929
			c-0.811,1.702-0.089,3.738,1.613,4.55c1.703,0.814,3.738,0.089,4.55-1.613c0.875-1.841,1.321-3.814,1.321-5.866
			C122.88,40.768,116.755,34.643,109.227,34.643z"/>
	</g>
</g>
<g>
	<g>
		<path d="M204.8,34.645c-7.528,0-13.653,6.125-13.653,13.653c0,7.528,6.125,13.653,13.653,13.653
			c7.528,0,13.653-6.125,13.653-13.653C218.453,40.77,212.328,34.645,204.8,34.645z M204.8,55.125c-3.765,0-6.827-3.062-6.827-6.827
			s3.062-6.827,6.827-6.827s6.827,3.062,6.827,6.827S208.565,55.125,204.8,55.125z"/>
	</g>
</g>
<g>
	<g>
		<path d="M13.653,34.645C6.125,34.645,0,40.77,0,48.298c0,7.528,6.125,13.653,13.653,13.653c7.528,0,13.653-6.125,13.653-13.653
			C27.307,40.77,21.181,34.645,13.653,34.645z M13.653,55.125c-3.765,0-6.827-3.062-6.827-6.827s3.062-6.827,6.827-6.827
			c3.765,0,6.827,3.062,6.827,6.827S17.418,55.125,13.653,55.125z"/>
	</g>
</g>
<g>
	<g>
		<path d="M204.8,140.46c-6.398,0-11.87,4.35-13.305,10.578c-0.423,1.836,0.724,3.669,2.56,4.093
			c1.838,0.423,3.669-0.724,4.093-2.56c0.717-3.113,3.453-5.286,6.653-5.286c3.765,0,6.827,3.062,6.827,6.827
			c0,3.229-2.29,6.042-5.448,6.687c-1.847,0.377-3.038,2.179-2.661,4.028c0.331,1.616,1.753,2.731,3.342,2.731
			c0.227,0,0.457-0.022,0.688-0.068c6.318-1.292,10.906-6.917,10.906-13.375C218.453,146.585,212.328,140.46,204.8,140.46z"/>
	</g>
</g>
<g>
	<g>
		<path d="M13.653,140.458C6.125,140.458,0,146.583,0,154.111c0,7.528,6.125,13.653,13.653,13.653
			c7.528,0,13.653-6.125,13.653-13.653C27.307,146.583,21.181,140.458,13.653,140.458z M13.653,160.938
			c-3.765,0-6.827-3.062-6.827-6.827s3.062-6.827,6.827-6.827c3.765,0,6.827,3.062,6.827,6.827S17.418,160.938,13.653,160.938z"/>
	</g>
</g>
<g>
	<g>
		<path d="M120.726,143.335c-1.017-1.587-3.128-2.046-4.716-1.031c-1.587,1.017-2.048,3.128-1.031,4.716
			c0.701,1.096,1.073,2.367,1.073,3.678c0,3.765-3.062,6.827-6.827,6.827s-6.827-3.062-6.827-6.827c0-3.229,2.29-6.042,5.446-6.687
			c1.847-0.377,3.038-2.179,2.661-4.028c-0.377-1.847-2.181-3.045-4.028-2.661c-6.318,1.292-10.906,6.917-10.906,13.375
			c0,7.528,6.125,13.653,13.653,13.653s13.653-6.125,13.653-13.655C122.88,148.078,122.136,145.532,120.726,143.335z"/>
	</g>
</g>
<g>
	<g>
		<path d="M61.44,116.565c-7.528,0-13.653,6.125-13.653,13.653s6.125,13.653,13.653,13.653c7.528,0,13.653-6.125,13.653-13.653
			S68.968,116.565,61.44,116.565z M61.44,137.044c-3.765,0-6.827-3.062-6.827-6.827s3.062-6.827,6.827-6.827
			c3.765,0,6.827,3.062,6.827,6.827S65.205,137.044,61.44,137.044z"/>
	</g>
</g>
<g>
</g>
<g>
</g>
<g>
</g>
<g>
</g>
<g>
</g>
<g>
</g>
<g>
</g>
<g>
</g>
<g>
</g>
<g>
</g>
<g>
</g>
<g>
</g>
<g>
</g>
<g>
</g>
<g>
</g>
</svg>
