<?xml version="1.0" encoding="iso-8859-1"?>
<!-- Generator: Adobe Illustrator 19.0.0, SVG Export Plug-In . SVG Version: 6.00 Build 0)  -->
<svg version="1.1" id="Capa_1" xmlns="http://www.w3.org/2000/svg" xmlns:xlink="http://www.w3.org/1999/xlink" x="0px" y="0px"
	 viewBox="0 0 211.633 211.633" style="enable-background:new 0 0 211.633 211.633;" xml:space="preserve">
<g>
	<g>
		<path d="M145.334,15.104C132.61,3.712,116.169-1.518,99.055,0.382C71.893,3.394,49.971,25.296,46.93,52.461
			c-2.167,19.366,5.248,38.554,19.835,51.328c6.871,6.019,10.813,14.534,10.813,23.361v12.803c0,1.884,1.529,3.413,3.413,3.413
			h49.649c1.886,0,3.413-1.529,3.415-3.413V127.15c0-8.832,3.934-17.34,10.793-23.342c12.86-11.254,20.236-27.486,20.236-44.534
			C165.084,42.439,157.885,26.339,145.334,15.104z M140.353,98.671c-8.341,7.298-13.124,17.679-13.124,28.479v9.39H84.406v-9.387
			c0-10.793-4.791-21.18-13.143-28.496c-13.1-11.474-19.495-28.034-17.548-45.433c2.688-24.023,22.074-43.39,46.092-46.054
			c15.165-1.681,29.715,2.942,40.974,13.022c11.107,9.943,17.476,24.189,17.476,39.084
			C158.257,74.354,151.731,88.714,140.353,98.671z"/>
	</g>
</g>
<g>
	<g>
		<path d="M139.95,136.54H68.27c-1.884,0-3.413,1.529-3.413,3.413v20.48c0,1.884,1.529,3.413,3.413,3.413h71.68
			c1.884,0,3.413-1.529,3.413-3.413v-20.48C143.363,138.069,141.834,136.54,139.95,136.54z M136.537,157.02H71.683v-13.653h64.853
			V157.02z"/>
	</g>
</g>
<g>
	<g>
		<path d="M129.71,157.02H81.923c-1.884,0-3.413,1.529-3.413,3.413v27.307c0,1.884,1.529,3.413,3.413,3.413h47.787
			c1.884,0,3.413-1.529,3.413-3.413v-27.307C133.123,158.549,131.594,157.02,129.71,157.02z M126.297,184.326h-40.96v-20.48h40.96
			V184.326z"/>
	</g>
</g>
<g>
	<g>
		<path d="M177.567,184.326h-143.5c-7.491,0-13.583,6.093-13.583,13.583v10.31c0,1.884,1.529,3.413,3.413,3.413h163.84
			c1.884,0,3.413-1.529,3.413-3.413v-10.31C191.15,190.421,185.057,184.326,177.567,184.326z M184.323,204.806H27.31v-6.897
			c0-3.726,3.031-6.757,6.757-6.757h143.5c3.726,0,6.757,3.031,6.757,6.757V204.806z"/>
	</g>
</g>
<g>
	<g>
		<path d="M61.443,170.673H47.79c-1.884,0-3.413,1.529-3.413,3.413v13.653c0,1.884,1.529,3.413,3.413,3.413h13.653
			c1.884,0,3.413-1.529,3.413-3.413v-13.653C64.857,172.202,63.327,170.673,61.443,170.673z M58.03,184.326h-6.827V177.5h6.827
			V184.326z"/>
	</g>
</g>
<g>
	<g>
		<path d="M163.843,170.673H150.19c-1.884,0-3.413,1.529-3.413,3.413v13.653c0,1.884,1.529,3.413,3.413,3.413h13.653
			c1.884,0,3.413-1.529,3.413-3.413v-13.653C167.257,172.202,165.727,170.673,163.843,170.673z M160.43,184.326h-6.827V177.5h6.827
			V184.326z"/>
	</g>
</g>
<g>
	<g>
		<path d="M136.173,63.332l-6.827-13.653c-0.529-1.056-1.568-1.766-2.746-1.872c-1.169-0.114-2.326,0.406-3.038,1.352l-7.509,10.013
			l-7.509-10.013c-1.29-1.719-4.171-1.719-5.461,0l-7.509,10.013l-7.509-10.013c-0.712-0.947-1.864-1.468-3.038-1.352
			c-1.178,0.106-2.217,0.814-2.746,1.872l-6.827,13.653c-0.841,1.688-0.159,3.738,1.527,4.581c1.684,0.841,3.736,0.159,4.581-1.527
			l4.357-8.713l6.926,9.235c1.29,1.719,4.171,1.719,5.461,0l7.509-10.013l7.509,10.013c1.29,1.719,4.171,1.719,5.461,0l6.926-9.235
			l4.357,8.713c0.599,1.196,1.806,1.888,3.057,1.888c0.514,0,1.034-0.116,1.521-0.36C136.332,67.068,137.016,65.019,136.173,63.332z
			"/>
	</g>
</g>
<g>
	<g>
		<path d="M105.817,81.926c-1.884,0-3.413,1.529-3.413,3.413v51.2c0,1.884,1.529,3.413,3.413,3.413s3.413-1.529,3.413-3.413v-51.2
			C109.23,83.456,107.701,81.926,105.817,81.926z"/>
	</g>
</g>
<g>
	<g>
		<path d="M116.057,78.513h-20.48c-1.884,0-3.413,1.529-3.413,3.413c0,1.884,1.529,3.413,3.413,3.413h20.48
			c1.884,0,3.413-1.529,3.413-3.413C119.47,80.042,117.941,78.513,116.057,78.513z"/>
	</g>
</g>
<g>
</g>
<g>
</g>
<g>
</g>
<g>
</g>
<g>
</g>
<g>
</g>
<g>
</g>
<g>
</g>
<g>
</g>
<g>
</g>
<g>
</g>
<g>
</g>
<g>
</g>
<g>
</g>
<g>
</g>
</svg>
