<?xml version="1.0" encoding="iso-8859-1"?>
<!-- Generator: Adobe Illustrator 19.0.0, SVG Export Plug-In . SVG Version: 6.00 Build 0)  -->
<svg version="1.1" id="Capa_1" xmlns="http://www.w3.org/2000/svg" xmlns:xlink="http://www.w3.org/1999/xlink" x="0px" y="0px"
	 viewBox="0 0 211.647 211.647" style="enable-background:new 0 0 211.647 211.647;" xml:space="preserve">
<g>
	<g>
		<path d="M158.896,59.574c-0.678-5.429-2.864-9.827-3.959-11.755c0.661-11.698-1.734-20.555-7.12-26.341
			c-3.973-4.268-8.593-5.712-11.307-6.2C132.7,7.72,126.493,5.998,122.412,6.21c-10.909-9.899-20.639-5.683-24.96-2.818
			c-4.325-2.867-14.06-7.081-24.962,2.818c-4.064-0.213-10.293,1.507-14.099,9.068c-2.712,0.488-7.332,1.932-11.305,6.2
			c-5.381,5.779-7.776,14.623-7.124,26.3c-4.69,7.834-8.516,23.571,6.192,34.775c-0.983,6.97,0.35,18.19,10.648,24.098
			c-0.391,2.678-0.439,6.714,1.722,10.303c1.814,3.012,4.736,5.024,8.701,5.994c2.36,3.589,9.126,12.546,17.864,12.546
			c0.061,0,0.125,0,0.189,0.002c4.521-0.065,8.603-2.478,12.182-7.187c2.703,3.552,5.707,5.804,8.967,6.721
			c1.816,0.509,3.7-0.551,4.21-2.364c0.51-1.816-0.549-3.7-2.364-4.21c-2.625-0.737-5.315-3.512-7.776-8.026
			c-0.599-1.097-1.836-1.78-3.086-1.78c-1.249,0-2.398,0.681-2.997,1.778c-2.954,5.42-6.06,8.192-9.228,8.241
			c-0.031,0.002-0.061,0.002-0.092,0.002c-5.443,0-11.08-7.561-12.798-10.487c-0.51-0.877-1.386-1.48-2.386-1.647
			c-2.727-0.456-4.533-1.463-5.516-3.075c-1.548-2.541-0.84-6.352-0.442-7.59c0.561-1.686-0.261-3.519-1.893-4.217
			c-12.201-5.229-8.967-19.2-8.825-19.78c0.35-1.399-0.218-2.867-1.418-3.668c-6.823-4.55-9.871-10.462-9.056-17.572
			c0.645-5.641,3.5-10.039,3.524-10.074c0.42-0.63,0.618-1.382,0.565-2.137c-0.719-10.044,1.06-17.715,5.141-22.185
			c3.866-4.234,8.557-4.374,8.723-4.378c1.394,0,2.649-0.85,3.168-2.145c3.052-7.627,8.405-6.707,8.957-6.591
			c1.164,0.288,2.393-0.048,3.241-0.898C86.2,2.109,94.143,9.238,94.998,10.067c1.28,1.28,3.635,1.28,4.915,0
			c0.021-0.021,2.178-2.067,5.431-2.881c4.49-1.123,9.023,0.575,13.488,5.038c0.819,0.819,2.053,1.159,3.191,0.91
			c0.604-0.13,5.953-1.048,9.003,6.579c0.517,1.295,1.775,2.145,3.169,2.145c0.048,0,4.756,0.116,8.627,4.273
			c4.149,4.458,5.96,12.165,5.236,22.291c-0.053,0.748,0.147,1.502,0.558,2.128c0.029,0.043,2.886,4.441,3.533,10.083
			c0.814,7.11-2.232,13.022-9.056,17.572c-1.2,0.799-1.768,2.268-1.418,3.668c0.026,0.096,2.365,9.805-3.494,16.126
			c-1.282,1.382-1.201,3.541,0.183,4.823c1.379,1.278,3.543,1.203,4.823-0.183c6.308-6.806,6.074-15.831,5.528-20.062
			C158.514,75.139,159.707,66.053,158.896,59.574z"/>
	</g>
</g>
<g>
	<g>
		<path d="M61.787,15.204c-1.787-0.601-3.721,0.37-4.316,2.161c-0.596,1.789,0.37,3.719,2.161,4.316
			C69.91,25.106,70.24,33.175,70.25,33.583c0.017,1.871,1.538,3.383,3.413,3.383c1.886,0,3.413-1.527,3.412-3.413
			C77.075,33.012,76.901,20.241,61.787,15.204z"/>
	</g>
</g>
<g>
	<g>
		<path d="M72.684,71.365c-1.765-0.655-3.729,0.253-4.383,2.021c-0.022,0.063-2.495,6.441-7.163,7.798
			c-2.592,0.756-5.673-0.205-9.151-2.857c-1.5-1.142-3.642-0.852-4.784,0.647c-1.142,1.498-0.853,3.64,0.647,4.784
			c3.942,3.005,7.784,4.516,11.465,4.516c1.263,0,2.507-0.179,3.727-0.536c8.013-2.328,11.517-11.597,11.662-11.989
			C75.356,73.98,74.452,72.019,72.684,71.365z"/>
	</g>
</g>
<g>
	<g>
		<path d="M84.709,93.74c-1.333-1.333-3.494-1.333-4.826,0c-9.887,9.887-7.479,20.081-7.373,20.511
			c0.387,1.545,1.768,2.565,3.296,2.565c0.263,0,0.531-0.029,0.797-0.094c1.818-0.43,2.947-2.266,2.54-4.089
			c-0.065-0.283-1.475-7.025,5.567-14.066C86.042,97.233,86.042,95.073,84.709,93.74z"/>
	</g>
</g>
<g>
	<g>
		<path d="M90.3,45.61c-4.245-2.12-7.506,0.428-10.382,2.681c-2.287,1.79-5.132,4.019-9.684,5.837
			c-8.255,3.314-15.208-5.086-15.5-5.446c-1.183-1.466-3.326-1.698-4.791-0.524c-1.473,1.178-1.71,3.326-0.532,4.797
			c0.343,0.43,7.171,8.8,16.848,8.8c2.053,0,4.238-0.379,6.511-1.285c5.455-2.183,8.864-4.852,11.354-6.801
			c1.056-0.828,2.5-1.959,2.947-2.021c0,0,0.056,0.01,0.174,0.07c1.691,0.846,3.739,0.157,4.581-1.527
			C92.67,48.503,91.986,46.453,90.3,45.61z"/>
	</g>
</g>
<g>
	<g>
		<path d="M137.342,17.365c-0.594-1.787-2.521-2.761-4.318-2.159c-15.111,5.036-15.285,17.807-15.285,18.348
			c0,1.87,1.507,3.374,3.378,3.395c0.012,0,0.024,0,0.036,0c1.855,0,3.374-1.502,3.412-3.359c0.007-0.346,0.297-8.467,10.619-11.907
			C136.972,21.087,137.94,19.153,137.342,17.365z"/>
	</g>
</g>
<g>
	<g>
		<path d="M147.616,78.974c-1.142-1.498-3.285-1.789-4.784-0.647c-3.258,2.485-6.173,3.488-8.646,2.98
			c-3.277-0.666-5.567-3.927-6.639-5.811c-0.934-1.637-3.016-2.212-4.656-1.278c-1.638,0.934-2.21,3.017-1.278,4.656
			c2.009,3.531,5.586,7.98,11.208,9.126c0.879,0.179,1.77,0.268,2.669,0.268c3.693,0,7.542-1.51,11.479-4.509
			C148.47,82.614,148.758,80.472,147.616,78.974z"/>
	</g>
</g>
<g>
	<g>
		<path d="M144.551,59.531c-0.647-1.768-2.604-2.676-4.378-2.034c-0.104,0.041-10.667,3.791-16.067-3.395
			c-2.942-3.919-4.217-7.298-5.241-10.015c-1.29-3.418-2.751-7.291-7.484-7.682c-1.874-0.171-3.526,1.244-3.681,3.121
			c-0.155,1.877,1.241,3.526,3.121,3.681c0.108,0.01,0.166,0.024,0.162,0.021c0.384,0.321,1.024,2.022,1.493,3.267
			c1.114,2.958,2.644,7.009,6.173,11.706c4.291,5.709,10.25,7.139,15.143,7.139c4.7,0,8.416-1.318,8.723-1.432
			C144.287,63.264,145.198,61.303,144.551,59.531z"/>
	</g>
</g>
<g>
	<g>
		<path d="M97.408,4.237c-1.884,0-3.413,1.529-3.413,3.413v114.408c0,1.884,1.529,3.413,3.413,3.413
			c1.886,0,3.413-1.529,3.413-3.413V7.65C100.821,5.766,99.292,4.237,97.408,4.237z"/>
	</g>
</g>
<g>
	<g>
		<path d="M79.874,80.361c-10.259-6.839-3.449-20.946-3.154-21.545c0.838-1.685,0.154-3.731-1.529-4.572
			c-1.691-0.845-3.738-0.157-4.581,1.527c-3.451,6.905-6.752,22.118,5.477,30.269c0.58,0.389,1.239,0.573,1.889,0.573
			c1.104,0,2.186-0.532,2.845-1.521C81.866,83.525,81.442,81.406,79.874,80.361z"/>
	</g>
</g>
<g>
	<g>
		<path d="M152.1,99.007l-23.997-3.014V66.578c0-6.586-5.361-11.947-11.947-11.947c-6.586,0-11.947,5.361-11.947,11.947v80.676
			c0,6.832,4.094,12.795,10.24,15.319v45.66c0,1.884,1.529,3.413,3.413,3.413h44.373c1.884,0,3.413-1.529,3.413-3.415v-45.66
			c6.146-2.526,10.24-8.487,10.24-15.319v-24.235C175.889,109.851,165.238,99.124,152.1,99.007z M169.062,147.256
			c0,4.57-3.122,8.479-7.59,9.506c-1.551,0.355-2.65,1.734-2.65,3.326v44.732h-37.547v-44.73c0-1.591-1.099-2.97-2.65-3.326
			c-4.468-1.026-7.59-4.934-7.59-9.506V66.582c0-2.823,2.297-5.12,5.12-5.12c2.823,0,5.12,2.297,5.12,5.12v32.427
			c0,1.719,1.28,3.171,2.988,3.386l27.189,3.413c0.142,0.019,0.283,0.027,0.425,0.027c9.475,0,17.184,7.709,17.184,17.186V147.256z"
			/>
	</g>
</g>
<g>
	<g>
		<path d="M124.689,95.593c-1.884,0-3.413,1.529-3.413,3.413v17.067c0,1.884,1.529,3.413,3.413,3.413
			c1.884,0,3.413-1.529,3.413-3.413V99.007C128.102,97.122,126.573,95.593,124.689,95.593z"/>
	</g>
</g>
<g>
	<g>
		<path d="M138.342,99.007c-1.884,0-3.413,1.529-3.413,3.413v10.24c0,1.884,1.529,3.413,3.413,3.413
			c1.884,0,3.413-1.529,3.413-3.413v-10.24C141.756,100.536,140.227,99.007,138.342,99.007z"/>
	</g>
</g>
<g>
	<g>
		<path d="M151.996,99.007c-1.884,0-3.413,1.529-3.413,3.413v10.24c0,1.884,1.529,3.413,3.413,3.413s3.413-1.529,3.413-3.413v-10.24
			C155.409,100.536,153.88,99.007,151.996,99.007z"/>
	</g>
</g>
<g>
</g>
<g>
</g>
<g>
</g>
<g>
</g>
<g>
</g>
<g>
</g>
<g>
</g>
<g>
</g>
<g>
</g>
<g>
</g>
<g>
</g>
<g>
</g>
<g>
</g>
<g>
</g>
<g>
</g>
</svg>
