<?xml version="1.0" encoding="iso-8859-1"?>
<!-- Generator: Adobe Illustrator 19.0.0, SVG Export Plug-In . SVG Version: 6.00 Build 0)  -->
<svg version="1.1" id="Capa_1" xmlns="http://www.w3.org/2000/svg" xmlns:xlink="http://www.w3.org/1999/xlink" x="0px" y="0px"
	 viewBox="0 0 211.921 211.921" style="enable-background:new 0 0 211.921 211.921;" xml:space="preserve">
<g>
	<g>
		<path d="M191.385,55.964h-37.547c-1.884,0-3.413,1.529-3.413,3.413V70.43c0,1.884,1.529,3.413,3.413,3.413h1.971
			c0.782,0,1.655,1.092,1.655,2.555v41.006c0,1.884,1.529,3.413,3.413,3.413h23.467c1.884,0,3.413-1.529,3.413-3.413V76.398
			c0-1.463,0.874-2.555,1.655-2.555h1.971c1.884,0,3.413-1.529,3.413-3.413V59.378C194.798,57.493,193.269,55.964,191.385,55.964z
			 M187.972,67.153c-3.992,0.758-7.04,4.615-7.04,9.245v37.593h-16.64V76.398c0-4.628-3.048-8.486-7.04-9.245v-4.362h30.72V67.153z"
			/>
	</g>
</g>
<g>
	<g>
		<path d="M184.345,113.991h-23.467c-1.884,0-3.413,1.529-3.413,3.413v72.619c0,8.243,5.999,15.295,13.657,16.053
			c0.507,0.049,1.009,0.075,1.509,0.075c3.686,0,7.183-1.35,9.979-3.883c3.272-2.963,5.149-7.236,5.149-11.721v-73.143
			C187.758,115.52,186.229,113.991,184.345,113.991z M180.932,190.547c0,2.562-1.058,4.99-2.905,6.663
			c-1.727,1.563-3.946,2.297-6.231,2.074c-4.209-0.416-7.504-4.485-7.504-9.26v-69.205h16.64V190.547z"/>
	</g>
</g>
<g>
	<g>
		<path d="M71.963,28.774c-5.606-5.97-26.32-10.672-30.416-11.554c-1.094-0.236-2.237,0.082-3.055,0.85
			c-0.818,0.768-1.205,1.888-1.038,2.997c0.625,4.142,4.024,25.107,9.632,31.077c3.122,3.323,7.349,5.233,11.906,5.374
			c0.183,0.007,0.365,0.009,0.546,0.009c4.357,0,8.482-1.632,11.67-4.628C78.068,46.455,78.406,35.633,71.963,28.774z
			 M66.534,47.922c-1.993,1.872-4.582,2.86-7.33,2.772c-2.734-0.085-5.27-1.231-7.144-3.224c-2.552-2.717-5.33-13.455-7.006-22.415
			c8.835,2.231,19.379,5.673,21.934,8.393C70.854,37.563,70.65,44.057,66.534,47.922z"/>
	</g>
</g>
<g>
	<g>
		<path d="M159.861,0.912c-0.771-0.717-1.836-1.036-2.872-0.869c-5.424,0.884-32.829,5.669-39.781,13.152
			c-7.777,8.37-6.583,22.168,2.662,30.758c4.702,4.367,10.593,6.56,16.271,6.56c5.489,0,10.778-2.048,14.601-6.163
			c6.951-7.482,9.713-35.164,10.196-40.637C161.03,2.663,160.633,1.629,159.861,0.912z M145.742,39.705
			c-5.216,5.612-14.735,5.275-21.224-0.753c-6.487-6.028-7.523-15.497-2.307-21.11c3.669-3.951,19.736-8.064,31.476-10.283
			C152.337,19.43,149.413,35.752,145.742,39.705z"/>
	</g>
</g>
<g>
	<g>
		<path d="M135.915,26.395c-1.249-1.411-3.407-1.544-4.818-0.295c-1.053,0.932-25.965,23.125-41.479,51.12
			c-0.913,1.649-0.317,3.726,1.331,4.64c0.524,0.29,1.091,0.428,1.65,0.428c1.202,0,2.367-0.635,2.99-1.761
			c14.93-26.941,39.781-49.094,40.03-49.314C137.031,29.963,137.163,27.806,135.915,26.395z"/>
	</g>
</g>
<g>
	<g>
		<path d="M58.936,38.966c-1.847-0.375-3.639,0.828-4.012,2.673c-0.374,1.845,0.823,3.644,2.667,4.019
			c0.08,0.017,8.161,1.7,16.053,6.881c10.18,6.683,15.341,15.874,15.341,27.319c0,1.884,1.529,3.413,3.413,3.413
			s3.413-1.529,3.415-3.412C95.814,46.724,59.305,39.039,58.936,38.966z"/>
	</g>
</g>
<g>
	<g>
		<path d="M140.257,136c-0.678-5.429-2.864-9.827-3.959-11.755c0.66-11.698-1.732-20.557-7.12-26.342
			c-3.975-4.268-8.595-5.711-11.307-6.199c-3.808-7.561-10.013-9.269-14.099-9.068c-7.351-6.654-14.186-6.787-18.727-5.651
			c-2.652,0.664-4.782,1.813-6.263,2.809c-4.34-2.862-14.048-7.035-24.928,2.842c-4.091-0.208-10.291,1.509-14.097,9.068
			c-2.712,0.486-7.332,1.93-11.307,6.199c-5.379,5.779-7.774,14.624-7.122,26.301c-4.688,7.832-8.516,23.567,6.192,34.773
			c-0.983,6.97,0.35,18.191,10.648,24.1c-0.393,2.678-0.439,6.714,1.722,10.303c1.814,3.012,4.736,5.023,8.699,5.992
			c2.36,3.589,9.124,12.546,17.864,12.546c0.061,0,0.123-0.002,0.181,0.002c4.519-0.065,8.602-2.476,12.179-7.183
			c3.577,4.707,7.66,7.119,12.179,7.183c8.8,0.137,15.671-8.929,18.046-12.544c3.965-0.969,6.888-2.98,8.701-5.992
			c2.161-3.589,2.113-7.627,1.722-10.305c10.296-5.909,11.631-17.128,10.648-24.098C139.878,151.546,141.066,142.472,140.257,136z
			 M124.453,154.627c-1.195,0.795-1.76,2.265-1.422,3.657c0.143,0.592,3.378,14.565-8.823,19.792
			c-1.632,0.7-2.454,2.533-1.893,4.217c0.015,0.044,1.389,4.548-0.427,7.566c-0.98,1.626-2.79,2.64-5.531,3.098
			c-0.997,0.166-1.872,0.77-2.384,1.642c-1.729,2.947-7.441,10.571-12.892,10.491c-3.168-0.049-6.272-2.823-9.228-8.241
			c-0.597-1.096-1.835-1.778-3.084-1.778s-2.398,0.681-2.997,1.778c-2.956,5.419-6.06,8.19-9.228,8.241c-0.031,0-0.061,0-0.092,0
			c-5.443,0-11.08-7.561-12.798-10.487c-0.512-0.877-1.386-1.48-2.388-1.647c-2.729-0.454-4.533-1.461-5.516-3.074
			c-1.548-2.541-0.838-6.351-0.44-7.59c0.56-1.685-0.261-3.517-1.894-4.217c-12.201-5.228-8.967-19.2-8.825-19.78
			c0.35-1.399-0.218-2.867-1.418-3.668c-6.823-4.548-9.871-10.46-9.056-17.57c0.647-5.641,3.504-10.039,3.526-10.074
			c0.42-0.63,0.618-1.382,0.565-2.137c-0.719-10.045,1.06-17.717,5.141-22.187c3.867-4.236,8.559-4.376,8.724-4.379
			c1.396,0,2.65-0.85,3.169-2.145c2.359-5.897,6.093-6.685,7.921-6.685c0.536,0,0.91,0.067,1.036,0.096
			c1.162,0.29,2.393-0.049,3.241-0.898c10.122-10.122,18.062-2.987,18.918-2.159c0.64,0.64,1.509,1,2.413,1h0.087
			c0.905,0,1.773-0.36,2.413-1c0.022-0.02,2.176-2.065,5.431-2.879c4.483-1.123,9.023,0.573,13.488,5.038
			c0.846,0.846,2.077,1.188,3.241,0.898c0.234-0.058,5.779-1.348,8.955,6.589c0.509,1.273,1.766,2.118,3.137,2.145
			c0.198,0.003,4.89,0.143,8.755,4.378c4.081,4.47,5.857,12.141,5.14,22.187c-0.053,0.747,0.148,1.502,0.56,2.128
			c0.027,0.044,2.884,4.443,3.531,10.085C134.323,144.166,131.276,150.077,124.453,154.627z"/>
	</g>
</g>
<g>
	<g>
		<path d="M43.153,91.628c-1.785-0.592-3.721,0.37-4.318,2.159c-0.596,1.789,0.37,3.721,2.159,4.318
			c10.276,3.425,10.607,11.494,10.617,11.902c0.015,1.87,1.538,3.383,3.413,3.383c1.886,0,3.413-1.527,3.415-3.413
			C58.439,109.438,58.265,96.667,43.153,91.628z"/>
	</g>
</g>
<g>
	<g>
		<path d="M54.06,147.8c-1.765-0.657-3.726,0.239-4.39,1.999c-0.677,1.794-3.289,6.697-7.19,7.817
			c-2.594,0.739-5.663-0.22-9.131-2.862c-1.5-1.143-3.642-0.853-4.784,0.645c-1.143,1.5-0.853,3.642,0.645,4.784
			c3.942,3.004,7.784,4.514,11.467,4.514c1.261,0,2.505-0.177,3.731-0.532c8.013-2.33,11.517-11.597,11.662-11.989
			C56.722,150.409,55.821,148.457,54.06,147.8z"/>
	</g>
</g>
<g>
	<g>
		<path d="M66.073,170.166c-1.331-1.333-3.495-1.333-4.826,0c-9.888,9.887-7.48,20.082-7.375,20.511
			c0.386,1.545,1.768,2.565,3.294,2.565c0.265,0,0.532-0.031,0.8-0.094c1.818-0.43,2.946-2.265,2.538-4.089
			c-0.063-0.283-1.475-7.023,5.569-14.066C67.406,173.659,67.406,171.499,66.073,170.166z"/>
	</g>
</g>
<g>
	<g>
		<path d="M71.662,122.038c-4.248-2.123-7.506,0.428-10.383,2.679c-2.285,1.789-5.13,4.018-9.68,5.837
			c-8.26,3.306-15.194-5.067-15.502-5.446c-1.179-1.466-3.325-1.703-4.792-0.526c-1.471,1.178-1.71,3.325-0.532,4.797
			c0.345,0.43,7.173,8.8,16.85,8.8c2.053,0,4.238-0.379,6.511-1.285c5.456-2.183,8.866-4.852,11.354-6.801
			c1.056-0.828,2.502-1.959,2.947-2.021c0,0,0.055,0.01,0.174,0.07c1.684,0.845,3.736,0.16,4.579-1.526
			C74.031,124.931,73.349,122.881,71.662,122.038z"/>
	</g>
</g>
<g>
	<g>
		<path d="M118.707,93.787c-0.597-1.79-2.539-2.755-4.318-2.159c-15.112,5.036-15.287,17.807-15.287,18.348
			c0,1.884,1.529,3.413,3.413,3.413c1.884,0,3.413-1.527,3.415-3.412c0-0.084,0.121-8.375,10.617-11.873
			C118.336,97.508,119.302,95.576,118.707,93.787z"/>
	</g>
</g>
<g>
	<g>
		<path d="M128.974,155.398c-1.142-1.497-3.282-1.787-4.784-0.645c-3.47,2.642-6.542,3.603-9.131,2.862
			c-3.898-1.118-6.509-6.016-7.189-7.813c-0.655-1.765-2.618-2.664-4.381-2.012c-1.768,0.652-2.673,2.616-2.019,4.384
			c0.145,0.394,3.649,9.66,11.662,11.989c1.224,0.355,2.466,0.532,3.729,0.532c3.683,0,7.525-1.509,11.467-4.514
			C129.827,159.04,130.116,156.898,128.974,155.398z"/>
	</g>
</g>
<g>
	<g>
		<path d="M93.231,160.627c-1.333-1.333-3.495-1.333-4.826,0c-1.333,1.333-1.333,3.494,0,4.826
			c7.006,7.006,5.646,13.711,5.569,14.063c-0.435,1.818,0.674,3.649,2.492,4.104c0.278,0.068,0.556,0.102,0.831,0.102
			c1.529,0,2.92-1.036,3.309-2.586C100.712,180.71,103.12,170.514,93.231,160.627z"/>
	</g>
</g>
<g>
	<g>
		<path d="M125.916,135.954c-0.645-1.77-2.606-2.685-4.376-2.034c-0.106,0.038-10.668,3.789-16.067-3.396
			c-2.944-3.917-4.219-7.298-5.245-10.015c-1.289-3.417-2.749-7.289-7.482-7.68c-1.877-0.164-3.529,1.242-3.683,3.121
			c-0.154,1.879,1.242,3.528,3.122,3.683c0.101,0.009,0.166,0.036,0.162,0.019c0.382,0.323,1.024,2.024,1.493,3.268
			c1.116,2.959,2.644,7.011,6.173,11.708c4.291,5.709,10.25,7.137,15.145,7.137c4.698,0,8.414-1.318,8.723-1.435
			C125.651,139.685,126.561,137.724,125.916,135.954z"/>
	</g>
</g>
<g>
	<g>
		<path d="M78.771,80.66c-1.884,0-3.413,1.529-3.413,3.413v114.41c0,1.884,1.529,3.413,3.413,3.413s3.413-1.529,3.413-3.413V84.073
			C82.184,82.189,80.655,80.66,78.771,80.66z"/>
	</g>
</g>
<g>
	<g>
		<path d="M61.238,156.787c-10.252-6.835-3.459-20.929-3.156-21.545c0.838-1.686,0.155-3.731-1.529-4.574
			c-1.684-0.843-3.736-0.159-4.581,1.527c-3.453,6.905-6.752,22.118,5.477,30.271c0.58,0.389,1.239,0.573,1.889,0.573
			c1.104,0,2.186-0.534,2.847-1.521C63.23,159.951,62.807,157.833,61.238,156.787z"/>
	</g>
</g>
<g>
</g>
<g>
</g>
<g>
</g>
<g>
</g>
<g>
</g>
<g>
</g>
<g>
</g>
<g>
</g>
<g>
</g>
<g>
</g>
<g>
</g>
<g>
</g>
<g>
</g>
<g>
</g>
<g>
</g>
</svg>
