<?xml version="1.0" encoding="iso-8859-1"?>
<!-- Generator: Adobe Illustrator 19.0.0, SVG Export Plug-In . SVG Version: 6.00 Build 0)  -->
<svg version="1.1" id="Capa_1" xmlns="http://www.w3.org/2000/svg" xmlns:xlink="http://www.w3.org/1999/xlink" x="0px" y="0px"
	 viewBox="0 0 197.973 197.973" style="enable-background:new 0 0 197.973 197.973;" xml:space="preserve">
<g>
	<g>
		<path d="M81.347,17.067H38.468c-1.884,0-3.413,1.529-3.413,3.413s1.529,3.413,3.413,3.413h42.878c1.886,0,3.413-1.529,3.413-3.413
			S83.231,17.067,81.347,17.067z"/>
	</g>
</g>
<g>
	<g>
		<path d="M20.48,35.115c-1.884,0-3.413,1.529-3.413,3.413v42.875c0,1.884,1.529,3.413,3.413,3.413s3.413-1.528,3.413-3.413V38.528
			C23.893,36.644,22.364,35.115,20.48,35.115z"/>
	</g>
</g>
<g>
	<g>
		<path d="M81.92,95.573H38.054c-1.884,0-3.413,1.529-3.413,3.413s1.529,3.413,3.413,3.413H81.92c1.884,0,3.413-1.529,3.413-3.413
			S83.804,95.573,81.92,95.573z"/>
	</g>
</g>
<g>
	<g>
		<path d="M98.987,34.905c-1.884,0-3.413,1.529-3.413,3.413v42.465c0,1.884,1.529,3.413,3.413,3.413s3.413-1.527,3.413-3.413V38.318
			C102.4,36.434,100.871,34.905,98.987,34.905z"/>
	</g>
</g>
<g>
	<g>
		<path d="M20.48,0C9.187,0,0,9.187,0,20.48c0,11.293,9.187,20.48,20.48,20.48c11.293,0,20.48-9.187,20.48-20.48
			C40.96,9.187,31.773,0,20.48,0z M20.48,34.133c-7.528,0-13.653-6.125-13.653-13.653c0-7.528,6.125-13.653,13.653-13.653
			c7.528,0,13.653,6.125,13.653,13.653C34.133,28.008,28.008,34.133,20.48,34.133z"/>
	</g>
</g>
<g>
	<g>
		<path d="M98.987,0c-11.293,0-20.48,9.187-20.48,20.48c0,11.293,9.187,20.48,20.48,20.48s20.48-9.187,20.48-20.48
			C119.467,9.187,110.28,0,98.987,0z M98.987,34.133c-7.528,0-13.653-6.125-13.653-13.653c0-7.528,6.125-13.653,13.653-13.653
			s13.653,6.125,13.653,13.653C112.64,28.008,106.515,34.133,98.987,34.133z"/>
	</g>
</g>
<g>
	<g>
		<path d="M20.48,78.507C9.187,78.507,0,87.694,0,98.987s9.187,20.48,20.48,20.48c11.293,0,20.48-9.187,20.48-20.48
			S31.773,78.507,20.48,78.507z M20.48,112.64c-7.528,0-13.653-6.125-13.653-13.653s6.125-13.653,13.653-13.653
			c7.528,0,13.653,6.125,13.653,13.653S28.008,112.64,20.48,112.64z"/>
	</g>
</g>
<g>
	<g>
		<path d="M98.987,112.638c-1.884,0-3.413,1.529-3.413,3.413v43.621c0,1.884,1.529,3.413,3.413,3.413s3.413-1.527,3.413-3.413
			v-43.621C102.4,114.167,100.871,112.638,98.987,112.638z"/>
	</g>
</g>
<g>
	<g>
		<path d="M160.428,174.08h-44.375c-1.884,0-3.413,1.529-3.413,3.413c0,1.884,1.529,3.413,3.413,3.413h44.375
			c1.884,0,3.413-1.529,3.413-3.413C163.842,175.609,162.313,174.08,160.428,174.08z"/>
	</g>
</g>
<g>
	<g>
		<path d="M177.493,112.638c-1.884,0-3.413,1.529-3.413,3.413v43.412c0,1.884,1.529,3.413,3.413,3.413
			c1.884,0,3.413-1.529,3.413-3.413v-43.412C180.907,114.167,179.378,112.638,177.493,112.638z"/>
	</g>
</g>
<g>
	<g>
		<path d="M159.613,95.573h-43.561c-1.884,0-3.413,1.529-3.413,3.413s1.529,3.413,3.413,3.413h43.561
			c1.886,0,3.413-1.529,3.413-3.413S161.497,95.573,159.613,95.573z"/>
	</g>
</g>
<g>
	<g>
		<path d="M177.493,78.507c-11.293,0-20.48,9.187-20.48,20.48s9.187,20.48,20.48,20.48c11.293,0,20.48-9.187,20.48-20.48
			S188.786,78.507,177.493,78.507z M177.493,112.64c-7.528,0-13.653-6.125-13.653-13.653s6.125-13.653,13.653-13.653
			c7.528,0,13.653,6.125,13.653,13.653S185.021,112.64,177.493,112.64z"/>
	</g>
</g>
<g>
	<g>
		<path d="M98.987,78.507c-11.293,0-20.48,9.187-20.48,20.48s9.187,20.48,20.48,20.48s20.48-9.187,20.48-20.48
			S110.28,78.507,98.987,78.507z M98.987,112.64c-7.528,0-13.653-6.125-13.653-13.653s6.125-13.653,13.653-13.653
			s13.653,6.125,13.653,13.653S106.515,112.64,98.987,112.64z"/>
	</g>
</g>
<g>
	<g>
		<path d="M98.987,157.013c-11.293,0-20.48,9.187-20.48,20.48c0,11.293,9.187,20.48,20.48,20.48s20.48-9.187,20.48-20.48
			C119.467,166.2,110.28,157.013,98.987,157.013z M98.987,191.147c-7.528,0-13.653-6.125-13.653-13.653
			c0-7.528,6.125-13.653,13.653-13.653s13.653,6.125,13.653,13.653C112.64,185.021,106.515,191.147,98.987,191.147z"/>
	</g>
</g>
<g>
	<g>
		<path d="M177.493,157.013c-11.293,0-20.48,9.187-20.48,20.48c0,11.293,9.187,20.48,20.48,20.48c11.293,0,20.48-9.187,20.48-20.48
			C197.973,166.2,188.786,157.013,177.493,157.013z M177.493,191.147c-7.528,0-13.653-6.125-13.653-13.653
			c0-7.528,6.125-13.653,13.653-13.653c7.528,0,13.653,6.125,13.653,13.653C191.147,185.021,185.021,191.147,177.493,191.147z"/>
	</g>
</g>
<g>
</g>
<g>
</g>
<g>
</g>
<g>
</g>
<g>
</g>
<g>
</g>
<g>
</g>
<g>
</g>
<g>
</g>
<g>
</g>
<g>
</g>
<g>
</g>
<g>
</g>
<g>
</g>
<g>
</g>
</svg>
