<?xml version="1.0" encoding="iso-8859-1"?>
<!-- Generator: Adobe Illustrator 19.0.0, SVG Export Plug-In . SVG Version: 6.00 Build 0)  -->
<svg version="1.1" id="Capa_1" xmlns="http://www.w3.org/2000/svg" xmlns:xlink="http://www.w3.org/1999/xlink" x="0px" y="0px"
	 viewBox="0 0 204.8 204.8" style="enable-background:new 0 0 204.8 204.8;" xml:space="preserve">
<g>
	<g>
		<path d="M185.32,40.96h-80.104l-17.874-13c-0.584-0.425-1.287-0.654-2.009-0.654H19.482C8.74,27.307,0,36.047,0,46.788v111.223
			c0,10.742,8.74,19.482,19.482,19.482H185.32c10.742,0,19.48-8.74,19.48-19.482v-97.57C204.8,49.7,196.062,40.96,185.32,40.96z
			 M197.973,158.012c0,6.979-5.676,12.655-12.653,12.655H19.482c-6.979,0-12.655-5.676-12.655-12.655V46.788
			c0-6.979,5.676-12.655,12.655-12.655h64.742l17.874,13c0.584,0.425,1.287,0.654,2.009,0.654h81.213
			c6.977,0,12.653,5.676,12.653,12.655V158.012z"/>
	</g>
</g>
<g>
	<g>
		<path d="M102.4,61.44c-12.553,0-22.019,20.543-22.019,47.787s9.467,47.787,22.019,47.787c12.554,0,22.021-20.543,22.021-47.787
			S114.954,61.44,102.4,61.44z M102.4,150.187c-7.171,0-15.193-17.517-15.193-40.96s8.021-40.96,15.193-40.96
			c7.173,0,15.194,17.517,15.194,40.96S109.573,150.187,102.4,150.187z"/>
	</g>
</g>
<g>
	<g>
		<path d="M146.551,127.753c-1.746-10.177-14.136-24.047-31.563-35.333c-20.436-13.237-46.587-21.55-54.81-10.871
			c-1.872,2.43-2.538,5.594-1.929,9.151c1.746,10.177,14.135,24.047,31.561,35.333c13.923,9.02,30.498,15.751,42.25,15.749
			c5.499,0,9.941-1.473,12.561-4.878C146.495,134.473,147.161,131.309,146.551,127.753z M139.215,132.741
			c-3.68,4.774-22.84,2.362-45.691-12.438C75.54,108.655,66.121,96.195,64.98,89.545c-0.287-1.672-0.089-2.927,0.609-3.833
			c1.102-1.434,3.594-2.219,7.161-2.219c8.335,0,22.528,4.294,38.528,14.657c17.985,11.648,27.404,24.108,28.546,30.758
			C140.111,130.581,139.913,131.835,139.215,132.741z"/>
	</g>
</g>
<g>
	<g>
		<path d="M144.623,81.55c-8.216-10.673-34.372-2.369-54.811,10.871c-17.427,11.286-29.815,25.156-31.561,35.333
			c-0.609,3.557,0.056,6.721,1.929,9.151c2.62,3.403,7.06,4.876,12.559,4.876c11.752,0,28.329-6.729,42.25-15.747
			c17.427-11.286,29.817-25.156,31.563-35.333C147.161,87.144,146.495,83.98,144.623,81.55z M139.822,89.545
			c-1.142,6.647-10.563,19.11-28.546,30.758c-22.844,14.8-42.011,17.219-45.689,12.438c-0.698-0.906-0.896-2.161-0.609-3.833
			c1.142-6.647,10.561-19.11,28.544-30.758c16.002-10.365,30.194-14.657,38.528-14.657c3.567,0,6.06,0.787,7.163,2.219
			C139.911,86.618,140.109,87.873,139.822,89.545z"/>
	</g>
</g>
<g>
</g>
<g>
</g>
<g>
</g>
<g>
</g>
<g>
</g>
<g>
</g>
<g>
</g>
<g>
</g>
<g>
</g>
<g>
</g>
<g>
</g>
<g>
</g>
<g>
</g>
<g>
</g>
<g>
</g>
</svg>
