<?xml version="1.0" encoding="iso-8859-1"?>
<!-- Generator: Adobe Illustrator 19.0.0, SVG Export Plug-In . SVG Version: 6.00 Build 0)  -->
<svg version="1.1" id="Capa_1" xmlns="http://www.w3.org/2000/svg" xmlns:xlink="http://www.w3.org/1999/xlink" x="0px" y="0px"
	 viewBox="0 0 215.04 215.04" style="enable-background:new 0 0 215.04 215.04;" xml:space="preserve">
<g>
	<g>
		<path d="M134.827,62.93V17.067c0-1.884-1.529-3.413-3.413-3.413H83.627c-1.884,0-3.413,1.529-3.413,3.413V62.93
			c-30.729,11.385-51.2,40.655-51.2,73.603c0,43.288,35.219,78.507,78.507,78.507s78.507-35.219,78.507-78.507
			C186.027,103.584,165.555,74.315,134.827,62.93z M107.52,208.213c-39.525,0-71.68-32.155-71.68-71.68
			c0-30.836,19.64-58.143,48.872-67.953c1.391-0.466,2.328-1.77,2.328-3.236V20.48H128v44.867c0,1.466,0.937,2.77,2.328,3.236
			c29.232,9.807,48.872,37.115,48.872,67.951C179.2,176.058,147.045,208.213,107.52,208.213z"/>
	</g>
</g>
<g>
	<g>
		<path d="M140.611,80.826c-0.899-0.534-1.997-0.63-2.97-0.253c-7.996,3.07-18.693,4.76-30.121,4.76s-22.125-1.69-30.121-4.76
			c-0.974-0.372-2.068-0.282-2.97,0.253c-19.591,11.663-31.763,33.009-31.763,55.707c0,35.76,29.094,64.853,64.853,64.853
			c35.76,0,64.853-29.094,64.853-64.853C172.373,113.835,160.203,92.488,140.611,80.826z M107.52,194.56
			c-31.997,0-58.027-26.03-58.027-58.027c0-20.079,10.085-38.277,27.059-49c8.542,2.99,19.454,4.627,30.967,4.627
			c11.511,0,22.426-1.637,30.969-4.627c16.974,10.721,27.057,28.921,27.057,49C165.547,168.53,139.517,194.56,107.52,194.56z"/>
	</g>
</g>
<g>
	<g>
		<path d="M107.52,95.573c-12.553,0-22.019,20.543-22.019,47.787c0,27.243,9.467,47.787,22.019,47.787
			c12.554,0,22.021-20.543,22.021-47.787C129.541,116.116,120.074,95.573,107.52,95.573z M107.52,184.32
			c-7.171,0-15.193-17.517-15.193-40.96c0-23.443,8.021-40.96,15.193-40.96c7.173,0,15.194,17.517,15.194,40.96
			C122.714,166.803,114.693,184.32,107.52,184.32z"/>
	</g>
</g>
<g>
	<g>
		<path d="M151.672,161.886c-1.746-10.177-14.136-24.047-31.563-35.333c-20.436-13.235-46.587-21.552-54.81-10.871
			c-1.872,2.43-2.538,5.594-1.929,9.151c1.746,10.177,14.135,24.047,31.561,35.333c13.923,9.02,30.498,15.751,42.25,15.749
			c5.499,0,9.941-1.473,12.561-4.878C151.615,168.607,152.281,165.443,151.672,161.886z M144.335,166.874
			c-3.68,4.774-22.84,2.362-45.691-12.438c-17.983-11.648-27.402-24.108-28.544-30.757c-0.287-1.673-0.089-2.927,0.609-3.833
			c1.102-1.434,3.594-2.219,7.161-2.219c8.335,0,22.528,4.294,38.528,14.657c17.985,11.648,27.404,24.108,28.546,30.758
			C145.231,164.714,145.033,165.968,144.335,166.874z"/>
	</g>
</g>
<g>
	<g>
		<path d="M149.743,115.683c-8.216-10.674-34.372-2.367-54.811,10.871c-17.427,11.286-29.815,25.156-31.561,35.333
			c-0.609,3.557,0.056,6.721,1.929,9.151c2.62,3.403,7.06,4.876,12.559,4.876c11.752,0,28.329-6.729,42.25-15.747
			c17.427-11.286,29.817-25.156,31.563-35.333C152.281,121.277,151.615,118.113,149.743,115.683z M144.942,123.679
			c-1.142,6.647-10.563,19.11-28.546,30.757c-22.844,14.8-42.011,17.219-45.689,12.438c-0.698-0.906-0.896-2.161-0.609-3.833
			c1.142-6.648,10.561-19.11,28.544-30.758c16.002-10.365,30.194-14.657,38.528-14.657c3.567,0,6.06,0.787,7.163,2.219
			C145.031,120.752,145.229,122.006,144.942,123.679z"/>
	</g>
</g>
<g>
	<g>
		<path d="M134.827,0H80.213c-5.647,0-10.24,4.593-10.24,10.24c0,5.647,4.593,10.24,10.24,10.24h54.613
			c5.647,0,10.24-4.593,10.24-10.24C145.067,4.593,140.474,0,134.827,0z M134.827,13.653H80.213c-1.882,0-3.413-1.531-3.413-3.413
			s1.531-3.413,3.413-3.413h54.613c1.882,0,3.413,1.531,3.413,3.413S136.709,13.653,134.827,13.653z"/>
	</g>
</g>
<g>
	<g>
		<path d="M100.693,23.893H83.627c-1.884,0-3.413,1.529-3.413,3.413s1.529,3.413,3.413,3.413h17.067
			c1.884,0,3.413-1.529,3.413-3.413S102.578,23.893,100.693,23.893z"/>
	</g>
</g>
<g>
	<g>
		<path d="M93.867,37.547h-10.24c-1.884,0-3.413,1.529-3.413,3.413s1.529,3.413,3.413,3.413h10.24c1.884,0,3.413-1.529,3.413-3.413
			S95.751,37.547,93.867,37.547z"/>
	</g>
</g>
<g>
	<g>
		<path d="M100.693,51.2H83.627c-1.884,0-3.413,1.529-3.413,3.413s1.529,3.413,3.413,3.413h17.067c1.884,0,3.413-1.529,3.413-3.413
			S102.578,51.2,100.693,51.2z"/>
	</g>
</g>
<g>
</g>
<g>
</g>
<g>
</g>
<g>
</g>
<g>
</g>
<g>
</g>
<g>
</g>
<g>
</g>
<g>
</g>
<g>
</g>
<g>
</g>
<g>
</g>
<g>
</g>
<g>
</g>
<g>
</g>
</svg>
