<?xml version="1.0" encoding="iso-8859-1"?>
<!-- Generator: Adobe Illustrator 19.0.0, SVG Export Plug-In . SVG Version: 6.00 Build 0)  -->
<svg version="1.1" id="Capa_1" xmlns="http://www.w3.org/2000/svg" xmlns:xlink="http://www.w3.org/1999/xlink" x="0px" y="0px"
	 viewBox="0 0 197.973 197.973" style="enable-background:new 0 0 197.973 197.973;" xml:space="preserve">
<g>
	<g>
		<path d="M186.027,3.413H11.947C5.361,3.413,0,8.772,0,15.36c0,6.588,5.361,11.947,11.947,11.947h174.08
			c6.586,0,11.947-5.359,11.947-11.947C197.973,8.772,192.613,3.413,186.027,3.413z M186.027,20.48H11.947
			c-2.823,0-5.12-2.297-5.12-5.12s2.297-5.12,5.12-5.12h174.08c2.823,0,5.12,2.297,5.12,5.12S188.85,20.48,186.027,20.48z"/>
	</g>
</g>
<g>
	<g>
		<path d="M122.88,177.493H75.093c-1.884,0-3.413,1.529-3.413,3.413v10.24c0,1.884,1.529,3.413,3.413,3.413h47.787
			c1.884,0,3.413-1.529,3.413-3.413v-10.24C126.293,179.022,124.764,177.493,122.88,177.493z M119.467,187.733h-40.96v-3.413h40.96
			V187.733z"/>
	</g>
</g>
<g>
	<g>
		<path d="M186.027,129.707H11.947C5.361,129.707,0,135.066,0,141.653c0,6.588,5.361,11.947,11.947,11.947h174.08
			c6.586,0,11.947-5.359,11.947-11.947C197.973,135.066,192.613,129.707,186.027,129.707z M186.027,146.773H11.947
			c-2.823,0-5.12-2.297-5.12-5.12c0-2.823,2.297-5.12,5.12-5.12h174.08c2.823,0,5.12,2.297,5.12,5.12
			C191.147,144.476,188.85,146.773,186.027,146.773z"/>
	</g>
</g>
<g>
	<g>
		<path d="M13.653,20.48v116.053H184.32V20.48H13.653z M177.493,129.707H20.48v-102.4h157.013V129.707z"/>
	</g>
</g>
<g>
	<g>
		<path d="M105.813,146.773H92.16c-1.884,0-3.413,1.529-3.413,3.413v30.72c0,1.884,1.529,3.413,3.413,3.413h13.653
			c1.884,0,3.413-1.529,3.413-3.413v-30.72C109.227,148.303,107.697,146.773,105.813,146.773z M102.4,177.493h-6.827V153.6h6.827
			V177.493z"/>
	</g>
</g>
<g>
	<g>
		<path d="M98.987,30.72c-12.553,0-22.019,20.545-22.019,47.787s9.467,47.787,22.019,47.787c12.554,0,22.021-20.545,22.021-47.787
			S111.541,30.72,98.987,30.72z M98.987,119.467c-7.171,0-15.193-17.517-15.193-40.96c0-23.443,8.021-40.96,15.193-40.96
			c7.173,0,15.194,17.517,15.194,40.96S106.16,119.467,98.987,119.467z"/>
	</g>
</g>
<g>
	<g>
		<path d="M143.138,97.034c-1.746-10.179-14.135-24.047-31.563-35.335c-20.437-13.239-46.592-21.548-54.81-10.873
			c-1.872,2.43-2.538,5.596-1.929,9.151c1.746,10.177,14.135,24.047,31.561,35.335c13.923,9.018,30.498,15.749,42.25,15.749
			c5.499,0,9.941-1.475,12.561-4.876C143.082,103.755,143.747,100.589,143.138,97.034z M135.801,102.021
			c-3.685,4.779-22.842,2.36-45.691-12.438C72.127,77.935,62.708,65.475,61.566,58.825c-0.287-1.674-0.087-2.927,0.609-3.833
			c1.102-1.434,3.594-2.219,7.161-2.219c8.334,0,22.526,4.294,38.528,14.659C125.85,79.08,135.269,91.54,136.41,98.19
			C136.697,99.862,136.498,101.117,135.801,102.021z"/>
	</g>
</g>
<g>
	<g>
		<path d="M141.21,50.828c-8.216-10.672-34.372-2.364-54.811,10.873C68.972,72.989,56.583,86.859,54.837,97.036
			c-0.609,3.555,0.056,6.719,1.929,9.149c2.62,3.403,7.06,4.876,12.559,4.876c11.752,0,28.329-6.731,42.25-15.747
			c17.428-11.288,29.817-25.158,31.563-35.335C143.747,56.422,143.082,53.258,141.21,50.828z M136.409,58.824
			c-1.142,6.647-10.561,19.11-28.546,30.758c-22.847,14.8-42.011,17.222-45.689,12.438c-0.696-0.904-0.896-2.159-0.609-3.831
			c1.142-6.647,10.561-19.11,28.544-30.758c16.003-10.365,30.194-14.657,38.53-14.657c3.565,0,6.06,0.787,7.161,2.219
			C136.496,55.897,136.695,57.151,136.409,58.824z"/>
	</g>
</g>
<g>
</g>
<g>
</g>
<g>
</g>
<g>
</g>
<g>
</g>
<g>
</g>
<g>
</g>
<g>
</g>
<g>
</g>
<g>
</g>
<g>
</g>
<g>
</g>
<g>
</g>
<g>
</g>
<g>
</g>
</svg>
