<?xml version="1.0" encoding="iso-8859-1"?>
<!-- Generator: Adobe Illustrator 19.0.0, SVG Export Plug-In . SVG Version: 6.00 Build 0)  -->
<svg version="1.1" id="Capa_1" xmlns="http://www.w3.org/2000/svg" xmlns:xlink="http://www.w3.org/1999/xlink" x="0px" y="0px"
	 viewBox="0 0 201.387 201.387" style="enable-background:new 0 0 201.387 201.387;" xml:space="preserve">
<g>
	<g>
		<path d="M73.387,194.56H25.6v-57.346c0-6.021,4.9-10.921,10.921-10.921h36.866c1.884,0,3.413-1.529,3.413-3.413
			c0-1.884-1.529-3.413-3.413-3.413H36.521c-9.786,0-17.748,7.962-17.748,17.748v60.759c0,1.884,1.529,3.413,3.413,3.413h51.2
			c1.884,0,3.413-1.529,3.413-3.413C76.8,196.089,75.271,194.56,73.387,194.56z"/>
	</g>
</g>
<g>
	<g>
		<path d="M164.866,119.467h-33.452c-1.884,0-3.413,1.529-3.413,3.413c0,1.884,1.529,3.413,3.413,3.413h33.452
			c6.021,0,10.921,4.9,10.921,10.921v57.346h-44.373c-1.884,0-3.413,1.529-3.413,3.413c0,1.884,1.529,3.413,3.413,3.413H179.2
			c1.884,0,3.413-1.529,3.413-3.413v-60.759C182.613,127.428,174.652,119.467,164.866,119.467z"/>
	</g>
</g>
<g>
	<g>
		<path d="M136.301,119.467h-4.888v-7.787c0-1.884-1.529-3.413-3.413-3.413c-1.884,0-3.413,1.529-3.413,3.413v11.201
			c0,1.884,1.529,3.413,3.413,3.413h8.301c4.833,0,8.765,3.932,8.765,8.765v59.501H56.32v-59.501c0-4.833,3.932-8.765,8.765-8.765
			h8.301c1.884,0,3.413-1.529,3.413-3.413v-10.824c0-1.884-1.529-3.413-3.413-3.413c-1.884,0-3.413,1.529-3.413,3.413v7.41h-4.888
			c-8.596,0-15.592,6.996-15.592,15.592v62.915c0,1.884,1.529,3.413,3.413,3.413h95.573c1.884,0,3.413-1.529,3.413-3.413v-62.915
			C151.893,126.462,144.898,119.467,136.301,119.467z"/>
	</g>
</g>
<g>
	<g>
		<path d="M134.827,133.12H66.56c-1.884,0-3.413,1.529-3.413,3.413v27.307c0,1.884,1.529,3.413,3.413,3.413h68.267
			c1.884,0,3.413-1.529,3.413-3.413v-27.307C138.24,134.649,136.711,133.12,134.827,133.12z M131.413,160.427h-61.44v-20.48h61.44
			V160.427z"/>
	</g>
</g>
<g>
	<g>
		<path d="M100.693,13.653c-30.114,0-54.613,24.499-54.613,54.613c0,30.114,24.499,54.613,54.613,54.613
			s54.613-24.499,54.613-54.613C155.307,38.153,130.807,13.653,100.693,13.653z M100.693,116.053
			c-26.349,0-47.787-21.437-47.787-47.787c0-26.349,21.437-47.787,47.787-47.787s47.787,21.437,47.787,47.787
			C148.48,94.616,127.043,116.053,100.693,116.053z"/>
	</g>
</g>
<g>
	<g>
		<path d="M100.693,44.373c-24.914,0-37.547,9.187-37.547,27.307c0,20.704,16.843,37.547,37.547,37.547S138.24,92.384,138.24,71.68
			C138.24,53.56,125.607,44.373,100.693,44.373z M100.693,102.4c-16.939,0-30.72-13.781-30.72-30.72
			c0-18.152,16.416-20.48,30.72-20.48s30.72,2.328,30.72,20.48C131.413,88.619,117.632,102.4,100.693,102.4z"/>
	</g>
</g>
<g>
	<g>
		<path d="M141.653,0c-1.884,0-3.413,1.529-3.413,3.413v34.133c0,1.884,1.529,3.413,3.413,3.413s3.413-1.529,3.413-3.413V3.413
			C145.067,1.529,143.538,0,141.653,0z"/>
	</g>
</g>
<g>
</g>
<g>
</g>
<g>
</g>
<g>
</g>
<g>
</g>
<g>
</g>
<g>
</g>
<g>
</g>
<g>
</g>
<g>
</g>
<g>
</g>
<g>
</g>
<g>
</g>
<g>
</g>
<g>
</g>
</svg>
