<?xml version="1.0" encoding="iso-8859-1"?>
<!-- Generator: Adobe Illustrator 19.0.0, SVG Export Plug-In . SVG Version: 6.00 Build 0)  -->
<svg version="1.1" id="Capa_1" xmlns="http://www.w3.org/2000/svg" xmlns:xlink="http://www.w3.org/1999/xlink" x="0px" y="0px"
	 viewBox="0 0 215.04 215.04" style="enable-background:new 0 0 215.04 215.04;" xml:space="preserve">
<g>
	<g>
		<path d="M168.96,160.427H46.08c-15.056,0-27.307,12.25-27.307,27.307c0,15.056,12.25,27.307,27.307,27.307h122.88
			c15.056,0,27.307-12.25,27.307-27.307C196.267,172.677,184.016,160.427,168.96,160.427z M168.96,208.213H46.08
			c-11.293,0-20.48-9.187-20.48-20.48c0-11.293,9.187-20.48,20.48-20.48h122.88c11.293,0,20.48,9.187,20.48,20.48
			C189.44,199.026,180.253,208.213,168.96,208.213z"/>
	</g>
</g>
<g>
	<g>
		<path d="M139.947,27.307H75.093c-12.233,0-22.187,9.953-22.187,22.187S62.86,71.68,75.093,71.68h64.853
			c12.233,0,22.187-9.953,22.187-22.187S152.18,27.307,139.947,27.307z M139.947,64.853H75.093c-8.47,0-15.36-6.89-15.36-15.36
			c0-8.47,6.89-15.36,15.36-15.36h64.853c8.47,0,15.36,6.89,15.36,15.36C155.307,57.964,148.417,64.853,139.947,64.853z"/>
	</g>
</g>
<g>
	<g>
		<path d="M107.52,170.667c-9.411,0-17.067,7.656-17.067,17.067c0,9.411,7.656,17.067,17.067,17.067s17.067-7.656,17.067-17.067
			C124.587,178.323,116.931,170.667,107.52,170.667z M107.52,197.973c-5.647,0-10.24-4.593-10.24-10.24
			c0-5.647,4.593-10.24,10.24-10.24c5.647,0,10.24,4.593,10.24,10.24C117.76,193.381,113.167,197.973,107.52,197.973z"/>
	</g>
</g>
<g>
	<g>
		<path d="M49.493,170.667c-9.411,0-17.067,7.656-17.067,17.067c0,9.411,7.656,17.067,17.067,17.067
			c9.411,0,17.067-7.656,17.067-17.067C66.56,178.323,58.904,170.667,49.493,170.667z M49.493,197.973
			c-5.647,0-10.24-4.593-10.24-10.24c0-5.647,4.593-10.24,10.24-10.24s10.24,4.593,10.24,10.24
			C59.733,193.381,55.141,197.973,49.493,197.973z"/>
	</g>
</g>
<g>
	<g>
		<path d="M165.547,170.667c-9.411,0-17.067,7.656-17.067,17.067c0,9.411,7.656,17.067,17.067,17.067s17.067-7.656,17.067-17.067
			C182.613,178.323,174.957,170.667,165.547,170.667z M165.547,197.973c-5.647,0-10.24-4.593-10.24-10.24
			c0-5.647,4.593-10.24,10.24-10.24c5.647,0,10.24,4.593,10.24,10.24C175.787,193.381,171.194,197.973,165.547,197.973z"/>
	</g>
</g>
<g>
	<g>
		<path d="M118.801,78.507h-22.56c-12.602,0-22.854,10.252-22.854,22.854v62.479c0,1.884,1.529,3.413,3.413,3.413h61.44
			c1.884,0,3.413-1.529,3.415-3.413v-62.479C141.655,88.759,131.403,78.507,118.801,78.507z M134.827,160.427H80.213h-0.002v-59.066
			c0-8.837,7.19-16.027,16.027-16.027h22.56c8.837,0,16.027,7.19,16.027,16.027V160.427z"/>
	</g>
</g>
<g>
	<g>
		<path d="M107.52,64.853c-1.884,0-3.413,1.529-3.413,3.413V81.92c0,1.884,1.529,3.413,3.413,3.413s3.413-1.529,3.413-3.413V68.267
			C110.933,66.383,109.404,64.853,107.52,64.853z"/>
	</g>
</g>
<g>
	<g>
		<path d="M87.04,37.547c-5.647,0-10.24,4.593-10.24,10.24c0,1.884,1.529,3.413,3.413,3.413c1.884,0,3.413-1.529,3.413-3.413
			c0-1.882,1.531-3.413,3.413-3.413s3.413,1.531,3.413,3.413c0,1.884,1.529,3.413,3.413,3.413s3.413-1.529,3.413-3.413
			C97.28,42.139,92.687,37.547,87.04,37.547z"/>
	</g>
</g>
<g>
	<g>
		<path d="M124.587,37.547c-5.647,0-10.24,4.593-10.24,10.24c0,1.884,1.529,3.413,3.413,3.413s3.413-1.529,3.413-3.413
			c0-1.882,1.531-3.413,3.413-3.413S128,45.904,128,47.787c0,1.884,1.529,3.413,3.413,3.413c1.884,0,3.413-1.529,3.413-3.413
			C134.827,42.139,130.234,37.547,124.587,37.547z"/>
	</g>
</g>
<g>
	<g>
		<path d="M87.04,0c-1.884,0-3.413,1.529-3.413,3.413V30.72c0,1.884,1.529,3.413,3.413,3.413s3.413-1.529,3.413-3.413V3.413
			C90.453,1.529,88.924,0,87.04,0z"/>
	</g>
</g>
<g>
	<g>
		<path d="M107.52,92.16c-7.528,0-13.653,6.125-13.653,13.653s6.125,13.653,13.653,13.653s13.653-6.125,13.653-13.653
			S115.048,92.16,107.52,92.16z M107.52,112.64c-3.765,0-6.827-3.062-6.827-6.827s3.062-6.827,6.827-6.827s6.827,3.062,6.827,6.827
			S111.285,112.64,107.52,112.64z"/>
	</g>
</g>
<g>
	<g>
		<path d="M79.336,96.703c-1.26-1.399-3.42-1.516-4.82-0.253l-34.133,30.72c-1.401,1.26-1.514,3.418-0.253,4.82
			c0.672,0.747,1.603,1.13,2.538,1.13c0.814,0,1.63-0.288,2.282-0.877l34.133-30.72C80.485,100.263,80.597,98.104,79.336,96.703z"/>
	</g>
</g>
<g>
	<g>
		<path d="M174.657,127.171l-34.133-30.72c-1.401-1.265-3.562-1.147-4.82,0.253c-1.263,1.401-1.149,3.56,0.253,4.82l34.133,30.72
			c0.652,0.589,1.468,0.877,2.282,0.877c0.935,0,1.865-0.382,2.538-1.13C176.172,130.589,176.058,128.43,174.657,127.171z"/>
	</g>
</g>
<g>
	<g>
		<path d="M49.493,126.292H32.427c-1.567,0-2.93,1.067-3.311,2.586l-3.413,13.653c-0.256,1.021-0.026,2.099,0.621,2.929
			c0.647,0.829,1.638,1.314,2.69,1.314h20.48c1.884,0,3.413-1.529,3.413-3.415v-13.653
			C52.907,127.821,51.377,126.292,49.493,126.292z M46.08,139.947H33.386l1.707-6.827H46.08V139.947z"/>
	</g>
</g>
<g>
	<g>
		<path d="M185.924,142.532l-3.413-13.653c-0.379-1.519-1.744-2.586-3.311-2.586h-17.067c-1.884,0-3.413,1.529-3.413,3.413v13.653
			c0,1.884,1.529,3.413,3.413,3.413h20.48c1.051,0,2.043-0.483,2.69-1.312C185.95,144.631,186.179,143.553,185.924,142.532z
			 M165.547,139.947v-6.827h10.988l1.707,6.827H165.547z"/>
	</g>
</g>
<g>
</g>
<g>
</g>
<g>
</g>
<g>
</g>
<g>
</g>
<g>
</g>
<g>
</g>
<g>
</g>
<g>
</g>
<g>
</g>
<g>
</g>
<g>
</g>
<g>
</g>
<g>
</g>
<g>
</g>
</svg>
