<?xml version="1.0" encoding="iso-8859-1"?>
<!-- Generator: Adobe Illustrator 19.0.0, SVG Export Plug-In . SVG Version: 6.00 Build 0)  -->
<svg version="1.1" id="Capa_1" xmlns="http://www.w3.org/2000/svg" xmlns:xlink="http://www.w3.org/1999/xlink" x="0px" y="0px"
	 viewBox="0 0 201.387 201.387" style="enable-background:new 0 0 201.387 201.387;" xml:space="preserve">
<g>
	<g>
		<polygon points="115.127,163.036 112.876,194.56 91.925,194.56 89.672,162.997 82.862,163.485 85.569,201.387 119.231,201.387 
			121.936,163.523 		"/>
	</g>
</g>
<g>
	<g>
		<path d="M102.4,0C64.215,0,37.547,35.091,37.547,85.333c0,48.442,43.223,85.333,64.853,85.333
			c21.63,0,64.853-36.891,64.853-85.333C167.253,35.091,140.585,0,102.4,0z M102.4,163.84c-9.492,0-24.219-9.38-35.816-22.811
			c-8.296-9.607-22.211-29.617-22.211-55.695c0-46.223,23.861-78.507,58.027-78.507s58.027,32.283,58.027,78.507
			C160.427,127.5,121.506,163.84,102.4,163.84z"/>
	</g>
</g>
<g>
	<g>
		<path d="M155.322,44.853c-11.029-10.96-27.662-10.861-46.945-10.743c-3.934,0.024-8.02,0.024-11.953,0
			c-19.267-0.121-35.917-0.217-46.945,10.743c-8.139,8.091-11.931,20.954-11.931,40.48c0,48.442,43.223,85.333,64.853,85.333
			c21.63,0,64.853-36.891,64.853-85.333C167.253,65.807,163.461,52.944,155.322,44.853z M102.4,163.84
			c-19.106,0-58.027-36.34-58.027-78.507c0-17.348,3.244-29.005,9.919-35.639c8.044-7.997,21.118-8.783,36.453-8.783
			c1.848,0,3.727,0.012,5.637,0.024c3.958,0.024,8.076,0.024,12.035,0c17.741-0.113,33.077-0.201,42.09,8.759
			c6.675,6.632,9.919,18.29,9.919,35.639C160.427,127.5,121.506,163.84,102.4,163.84z"/>
	</g>
</g>
<g>
	<g>
		<path d="M89.576,64.026c-12.184-12.182-28.083-15.362-36.204-7.24c-4.087,4.084-5.434,10.254-3.791,17.369
			c1.51,6.542,5.427,13.232,11.032,18.835c7.34,7.342,18.533,8.771,26.136,8.771c4.586,0,7.864-0.521,8.213-0.577
			c1.44-0.239,2.572-1.369,2.811-2.811C97.923,97.456,101.345,75.795,89.576,64.026z M91.32,94.737
			c-5.497,0.468-18.604,0.698-25.878-6.574c-4.712-4.712-7.982-10.232-9.207-15.543c-1.094-4.738-0.396-8.648,1.964-11.008
			c1.688-1.688,4.096-2.487,6.893-2.487c5.871,0,13.452,3.523,19.657,9.728C91.996,76.099,91.778,89.24,91.32,94.737z"/>
	</g>
</g>
<g>
	<g>
		<path d="M151.902,56.786c-8.119-8.119-24.021-4.943-36.203,7.24c-11.769,11.769-8.346,33.43-8.195,34.347
			c0.237,1.442,1.369,2.572,2.811,2.811c0.346,0.058,3.623,0.577,8.211,0.577c7.603,0,18.796-1.43,26.138-8.771
			c5.603-5.605,9.521-12.293,11.03-18.835C157.336,67.04,155.989,60.872,151.902,56.786z M149.04,72.62
			c-1.225,5.311-4.495,10.831-9.206,15.541c-7.245,7.245-20.379,7.026-25.878,6.569c-0.457-5.504-0.672-18.637,6.569-25.878
			c9.163-9.158,21.32-12.467,26.551-7.24C149.434,63.974,150.134,67.883,149.04,72.62z"/>
	</g>
</g>
<g>
	<g>
		<path d="M102.4,129.707c-5.934,0-10.24,2.871-10.24,6.827c0,3.956,4.306,6.827,10.24,6.827s10.24-2.871,10.24-6.827
			C112.64,132.577,108.334,129.707,102.4,129.707z"/>
	</g>
</g>
<g>
	<g>
		<path d="M74.093,123.88c-1.333-1.333-3.494-1.333-4.826,0l-30.72,30.72c-1.333,1.333-1.333,3.494,0,4.826
			c0.667,0.667,1.539,1,2.413,1c0.874,0,1.746-0.333,2.413-1l30.72-30.72C75.426,127.374,75.426,125.213,74.093,123.88z"/>
	</g>
</g>
<g>
	<g>
		<path d="M34.133,153.6c-5.647,0-10.24,4.593-10.24,10.24c0,5.647,4.593,10.24,10.24,10.24s10.24-4.593,10.24-10.24
			C44.373,158.193,39.781,153.6,34.133,153.6z M34.133,167.253c-1.882,0-3.413-1.531-3.413-3.413s1.531-3.413,3.413-3.413
			s3.413,1.531,3.413,3.413S36.016,167.253,34.133,167.253z"/>
	</g>
</g>
<g>
	<g>
		<path d="M162.84,154.6l-30.72-30.72c-1.333-1.333-3.494-1.333-4.826,0c-1.333,1.333-1.333,3.494,0,4.826l30.72,30.72
			c0.667,0.667,1.539,1,2.413,1s1.746-0.333,2.413-1C164.173,158.094,164.173,155.933,162.84,154.6z"/>
	</g>
</g>
<g>
	<g>
		<path d="M167.253,153.6c-5.647,0-10.24,4.593-10.24,10.24c0,5.647,4.593,10.24,10.24,10.24c5.647,0,10.24-4.593,10.24-10.24
			C177.493,158.193,172.901,153.6,167.253,153.6z M167.253,167.253c-1.882,0-3.413-1.531-3.413-3.413s1.531-3.413,3.413-3.413
			s3.413,1.531,3.413,3.413S169.136,167.253,167.253,167.253z"/>
	</g>
</g>
<g>
</g>
<g>
</g>
<g>
</g>
<g>
</g>
<g>
</g>
<g>
</g>
<g>
</g>
<g>
</g>
<g>
</g>
<g>
</g>
<g>
</g>
<g>
</g>
<g>
</g>
<g>
</g>
<g>
</g>
</svg>
