<svg id="baby-jesus" enable-background="new 0 0 300 300" height="512" viewBox="0 0 300 300" width="512" xmlns="http://www.w3.org/2000/svg"><g><path d="m232 188c0-6.535-3.152-12.348-8.012-16 4.859-3.652 8.012-9.465 8.012-16 0-11.027-8.973-20-20-20h-.579c-1.635-6.196-6.908-10.944-13.392-11.789 1.268-3.967 1.971-8.044 1.971-12.211 0-10.75-4.24-20.6-11.25-28.25 2.146-4.988 3.25-10.281 3.25-15.75 0-22.057-17.945-40-40-40s-40 17.943-40 40c0 3.846.57 7.603 1.638 11.235-5.489 1.091-10.394 4.009-14.005 8.385-4.145 5.021-6.082 11.355-5.461 17.834.688 7.188 3.93 13.715 9.145 18.616-7.127.307-13.017 5.266-14.749 11.93h-.568c-11.027 0-20 8.973-20 20 0 6.535 3.152 12.348 8.012 16-4.86 3.652-8.012 9.465-8.012 16s3.152 12.348 8.012 16c-4.86 3.652-8.012 9.465-8.012 16s3.152 12.348 8.012 16c-4.86 3.652-8.012 9.465-8.012 16 0 11.027 8.973 20 20 20 2.211 0 4-1.791 4-4s-1.789-4-4-4c-6.617 0-12-5.383-12-12s5.383-12 12-12c2.211 0 4-1.791 4-4s-1.789-4-4-4c-6.617 0-12-5.383-12-12s5.383-12 12-12c2.211 0 4-1.791 4-4s-1.789-4-4-4c-6.617 0-12-5.383-12-12s5.383-12 12-12c2.211 0 4-1.791 4-4s-1.789-4-4-4c-6.617 0-12-5.383-12-12s5.383-12 12-12h.568c1.789 6.881 7.997 12 15.432 12 1.573 0 3.105-.251 4.577-.691 1.335 5.434 3.689 10.457 6.867 14.853-4.866 7.017-7.444 15.194-7.444 23.838v32c0 23.158 18.84 42 42 42s42-18.842 42-42v-32c0-8.624-2.572-16.789-7.421-23.797 3.208-4.42 5.566-9.467 6.874-14.91 1.473.438 2.999.707 4.547.707 7.435 0 13.643-5.119 15.432-12h.568c6.617 0 12 5.383 12 12s-5.383 12-12 12c-2.211 0-4 1.791-4 4s1.789 4 4 4c6.617 0 12 5.383 12 12s-5.383 12-12 12c-2.211 0-4 1.791-4 4s1.789 4 4 4c6.617 0 12 5.383 12 12s-5.383 12-12 12c-2.211 0-4 1.791-4 4s1.789 4 4 4c6.617 0 12 5.383 12 12s-5.383 12-12 12c-2.211 0-4 1.791-4 4s1.789 4 4 4c11.027 0 20-8.973 20-20 0-6.535-3.152-12.348-8.012-16 4.859-3.652 8.012-9.465 8.012-16s-3.152-12.348-8.012-16c4.86-3.652 8.012-9.465 8.012-16zm-80-152c17.645 0 32 14.355 32 32 0 3.432-.546 6.774-1.603 9.979-1.137-.855-2.314-1.666-3.534-2.424.693-2.461 1.137-4.98 1.137-7.555 0-15.439-12.562-28-28-28s-28 12.561-28 28c0 2.583.45 5.106 1.146 7.571-1.213.753-2.39 1.556-3.531 2.414-1.061-3.208-1.615-6.552-1.615-9.985 0-17.645 14.355-32 32-32zm-19.592 35.869c-.25-1.27-.408-2.559-.408-3.869 0-11.027 8.973-20 20-20s20 8.973 20 20c0 1.31-.162 2.599-.413 3.87-5.989-2.466-12.607-3.87-19.587-3.87-6.846 0-13.488 1.365-19.592 3.869zm-30.275 32.82c-.418-4.352.887-8.605 3.672-11.979 2.781-3.373 6.711-5.461 11.066-5.877 6.734-.652 12.766 4.314 13.414 11.068.473 4.959-3.176 9.383-8.137 9.857-2.199.211-3.809 2.166-3.598 4.365.207 2.195 2.117 3.811 4.363 3.6 9.352-.898 16.23-9.236 15.332-18.588-.599-6.254-4.04-11.503-8.873-14.782 6.624-4.106 14.45-6.353 22.628-6.353 22.055 0 40 16.15 40 36 0 4.107-.808 8.125-2.352 12h-25.648c-5.059 0-9.557-3.269-11.253-7.935 4.38-6.606 6.624-14.688 5.812-23.174-.207-2.197-2.082-3.803-4.363-3.602-2.199.211-3.809 2.164-3.598 4.363 1.461 15.277-9.773 28.895-25.051 30.357-5.73.562-11.289-1.162-15.707-4.811-4.422-3.647-7.16-8.8-7.707-14.509zm-6.133 35.311c0-4.412 3.59-8 8-8 .657 0 1.296.088 1.917.241l1.401 14.939c-1.042.483-2.142.82-3.318.82-4.41 0-8-3.588-8-8zm54 120c-18.746 0-34-15.252-34-34v-32c0-3.778.614-7.444 1.789-10.914 3.794 17.265 12.278 31.366 24.598 40.278 9.336 6.752 20.211 10.186 31.996 10.186 2.917 0 5.906-.286 8.926-.709-3.175 15.48-16.905 27.159-33.309 27.159zm34-66v30.646c-13.845 2.353-26.558-.268-36.926-7.765-11.042-7.988-18.605-20.938-21.813-36.945 7.024 5.057 15.572 8.064 24.739 8.064 11.153 0 21.422-4.407 29.091-11.564 3.206 5.278 4.909 11.267 4.909 17.564zm-34-14c-18.012 0-33.207-14.145-34.594-32.268l-1.619-17.276c3.084 1.079 6.335 1.655 9.658 1.655.953 0 1.906-.045 2.867-.137 8.055-.772 15.21-4.2 20.754-9.295 3.567 5.696 9.855 9.32 16.933 9.32h23.214l-2.624 15.801c-1.382 18.055-16.577 32.2-34.589 32.2zm46-32c-1.142 0-2.209-.313-3.221-.765l2.574-15.423c.28.069.542.184.843.19 4.304.103 7.804 3.691 7.804 7.998 0 4.412-3.59 8-8 8z"/><path d="m92 56h8c2.211 0 4-1.791 4-4s-1.789-4-4-4h-8c-2.211 0-4 1.791-4 4s1.789 4 4 4z"/><path d="m97.172 42.828c.781.781 1.805 1.172 2.828 1.172s2.047-.391 2.828-1.172c1.562-1.562 1.562-4.094 0-5.656l-4-4c-1.562-1.562-4.094-1.562-5.656 0s-1.562 4.094 0 5.656z"/><path d="m97.172 61.172-4 4c-1.562 1.562-1.562 4.094 0 5.656.781.781 1.805 1.172 2.828 1.172s2.047-.391 2.828-1.172l4-4c1.562-1.562 1.562-4.094 0-5.656s-4.094-1.563-5.656 0z"/><path d="m204 56h8c2.211 0 4-1.791 4-4s-1.789-4-4-4h-8c-2.211 0-4 1.791-4 4s1.789 4 4 4z"/><path d="m204 44c1.023 0 2.047-.391 2.828-1.172l4-4c1.562-1.562 1.562-4.094 0-5.656s-4.094-1.562-5.656 0l-4 4c-1.562 1.562-1.562 4.094 0 5.656.781.781 1.805 1.172 2.828 1.172z"/><path d="m205.172 70.828c.781.781 1.805 1.172 2.828 1.172s2.047-.391 2.828-1.172c1.562-1.562 1.562-4.094 0-5.656l-4-4c-1.562-1.562-4.094-1.562-5.656 0s-1.562 4.094 0 5.656z"/><path d="m150 144c-5.609 0-10 5.271-10 12s4.391 12 10 12 10-5.271 10-12-4.391-12-10-12zm0 16c-.707 0-2-1.52-2-4s1.293-4 2-4 2 1.52 2 4-1.293 4-2 4z"/><path d="m174.211 136.422-2.941 1.471c-1.492.742-3.277.447-4.441-.723-1.562-1.559-4.094-1.561-5.656.002-1.562 1.564-1.562 4.096 0 5.658 2.281 2.277 5.305 3.473 8.379 3.473 1.797 0 3.609-.412 5.297-1.254l2.941-1.471c1.977-.988 2.777-3.391 1.789-5.367-.993-1.975-3.391-2.781-5.368-1.789z"/><path d="m138.828 137.172c-1.562-1.562-4.094-1.561-5.656-.002-1.172 1.17-2.961 1.465-4.441.723l-2.941-1.471c-1.977-.992-4.375-.186-5.367 1.789-.988 1.977-.188 4.379 1.789 5.367l2.941 1.471c1.688.844 3.5 1.254 5.297 1.254 3.074 0 6.098-1.197 8.379-3.473 1.562-1.562 1.562-4.094-.001-5.658z"/></g></svg>