<svg id="camel" enable-background="new 0 0 300 300" height="512" viewBox="0 0 300 300" width="512" xmlns="http://www.w3.org/2000/svg"><g><path d="m204.175 64.08c2.362 0 4.276-1.915 4.276-4.277s-1.915-4.276-4.276-4.276-4.276 1.915-4.276 4.276 1.914 4.277 4.276 4.277z"/><path d="m47.998 79.745c6.617 0 12-5.383 12-12s-5.383-12-12-12-12 5.383-12 12 5.383 12 12 12zm0-16c2.205 0 4 1.795 4 4s-1.795 4-4 4-4-1.795-4-4 1.795-4 4-4z"/><path d="m225.17 94.573c.781.781 1.805 1.172 2.828 1.172s2.047-.391 2.828-1.172l3.172-3.172 3.172 3.172c.781.781 1.805 1.172 2.828 1.172s2.047-.391 2.828-1.172c1.562-1.562 1.562-4.094 0-5.656l-3.172-3.172 3.172-3.172c1.562-1.562 1.562-4.094 0-5.656s-4.094-1.562-5.656 0l-3.172 3.172-3.172-3.172c-1.562-1.562-4.094-1.562-5.656 0s-1.562 4.094 0 5.656l3.172 3.172-3.172 3.172c-1.563 1.562-1.563 4.094 0 5.656z"/><path d="m84.898 62.108 9.295 2.865 2.867 9.295c.879 2.854 3.477 4.77 6.461 4.77s5.582-1.916 6.461-4.77l2.865-9.295 9.295-2.865c2.854-.879 4.77-3.477 4.77-6.461s-1.916-5.582-4.768-6.461l-9.297-2.867-2.865-9.295v-.002c-.879-2.852-3.477-4.768-6.461-4.768s-5.582 1.916-6.461 4.768l-2.867 9.297-9.297 2.867c-2.852.879-4.768 3.477-4.768 6.461s1.917 5.582 4.77 6.461zm12.272-8.336c2.141-.656 3.812-2.326 4.475-4.469l1.877-6.084 1.875 6.084c.66 2.141 2.332 3.811 4.467 4.467l6.084 1.877-6.086 1.877c-2.135.66-3.803 2.328-4.465 4.467l-1.875 6.082-1.879-6.086c-.66-2.137-2.33-3.805-4.467-4.465l-6.082-1.875z"/><path d="m68.175 116.08c2.362 0 4.276-1.915 4.276-4.277s-1.915-4.276-4.276-4.276-4.276 1.915-4.276 4.276 1.914 4.277 4.276 4.277z"/><path d="m267.998 259.745h-34.624l10.456-34.852c.26-.865.219-1.795-.117-2.635l-7.021-17.551 6.135-6.135c.75-.75 1.172-1.768 1.172-2.828v-23.57c0-6.09-1.097-11.915-3.015-17.357h.142c8.201 0 14.873 6.672 14.873 14.873v42.055c0 2.209 1.791 4 4 4s4-1.791 4-4v-42.055c0-12.611-10.262-22.873-22.873-22.873h-3.699c-6.345-11.428-16.836-20.228-29.428-24.397v-22.675c0-2.209-1.791-4-4-4h-16c-2.209 0-4 1.791-4 4 0 2.205-1.795 4-4 4h-24c-2.205 0-4-1.795-4-4 0-2.209-1.791-4-4-4h-16c-2.209 0-4 1.791-4 4v20.664c-13.873 2.925-24 15.179-24 29.651v9.686h-7.051c-4.936 0-8.949-4.014-8.949-8.949v-41.332c0-7.564-6.154-13.719-13.719-13.719h-29.837c-7.924 0-14.715 5.412-16.145 12.869-.916 4.771.311 9.627 3.361 13.318 3.053 3.693 7.551 5.812 12.338 5.812v18.227c0 14.506 9.21 26.869 22.076 31.642 7.513 8.638 18.553 14.132 30.874 14.132h8.414l10.637 24.82v43.18h-80c-2.209 0-4 1.791-4 4s1.791 4 4 4h232c2.209 0 4-1.791 4-4s-1.791-4.001-4-4.001zm-132-156h8.686c1.65 4.656 6.1 8 11.314 8h24c5.215 0 9.664-3.344 11.314-8h8.686v16h-8.43-2.354-1.217c-2.209 0-4 1.791-4 4v16.008c0 2.201-1.791 3.992-3.992 3.992h-24.015c-2.201 0-3.992-1.791-3.992-3.992v-16.008c0-2.209-1.791-4-4-4h-12zm-98.17 13.092c-1.551-1.875-2.145-4.26-1.674-6.715.699-3.635 4.262-6.377 8.289-6.377h29.836c3.154 0 5.719 2.566 5.719 5.719v41.332c0 9.346 7.604 16.949 16.949 16.949h11.051c2.209 0 4-1.791 4-4v-13.685c0-10.064 6.658-18.654 16-21.389v17.301c0 14.211-11.562 25.773-25.773 25.773h-24.454c-2.42 0-4.753-.359-6.975-.985-4.245-5.547-6.798-12.455-6.798-19.964v-27.051c0-2.209-1.791-4-4-4h-8v-4c0-2.209-1.791-4-4-4s-4 1.791-4 4v4c-2.394 0-4.643-1.06-6.17-2.908zm14.17 29.135v-18.227h4v23.051c0 3.867.575 7.595 1.581 11.144-3.483-4.396-5.581-9.938-5.581-15.968zm153.377 113.773 10.455-34.852c.205-.688.223-1.42.049-2.119l-2.478-9.914 10.138 11.828-10.518 35.057zm-3.5-60 5.977 23.904-10.829 36.096h-3.647l10.455-34.85c.27-.898.215-1.863-.156-2.727l-9.61-22.424h7.81zm-16.514 0 10.389 24.242-10.729 35.758h-25.022v-60zm-33.363 60h-4v-44c0-.725-.197-1.436-.57-2.059l-8.365-13.941h12.935zm-16-49.559 4 6.667v42.893h-4zm85.377 49.559 10.455-34.852c.391-1.303.092-2.717-.795-3.752l-23.037-26.877v-18.52c0-2.209-1.791-4-4-4s-4 1.791-4 4v16h-64v-8c0-2.209-1.791-4-4-4s-4 1.791-4 4v12 12 52h-4v-44c0-.541-.109-1.078-.324-1.576l-12-28c-.629-1.471-2.076-2.424-3.676-2.424h-11.051c-5.689 0-11.046-1.451-15.721-4h20.999c18.623 0 33.773-15.15 33.773-33.773v-18.227h8v12.008c0 6.613 5.379 11.992 11.992 11.992h24.016c6.613 0 11.992-5.379 11.992-11.992v-11.986c24.299.234 44 20.055 44 44.408v21.914l-6.828 6.828c-1.131 1.131-1.48 2.828-.887 4.314l7.482 18.703-10.744 35.811h-3.646z"/></g></svg>