<svg id="fish" enable-background="new 0 0 300 300" height="512" viewBox="0 0 300 300" width="512" xmlns="http://www.w3.org/2000/svg"><g><path d="m84.946 230h-4v-4c0-2.209-1.789-4-4-4s-4 1.791-4 4v4h-4c-2.211 0-4 1.791-4 4s1.789 4 4 4h4v4c0 2.209 1.789 4 4 4s4-1.791 4-4v-4h4c2.211 0 4-1.791 4-4s-1.789-4-4-4z"/><path d="m140.946 146c2.211 0 4-1.791 4-4s-1.789-4-4-4h-12c-2.211 0-4 1.791-4 4v20c0 2.209 1.789 4 4 4h8v12h-8c-2.211 0-4 1.791-4 4s1.789 4 4 4h12c2.211 0 4-1.791 4-4v-20c0-2.209-1.789-4-4-4h-8v-12z"/><path d="m188.946 154c2.211 0 4-1.791 4-4s-1.789-4-4-4h-12c-2.211 0-4 1.791-4 4v12c0 2.209 1.789 4 4 4h8v4h-8c-2.211 0-4 1.791-4 4s1.789 4 4 4h12c2.211 0 4-1.791 4-4v-12c0-2.209-1.789-4-4-4h-8v-4z"/><path d="m116.946 150c2.211 0 4-1.791 4-4s-1.789-4-4-4h-12c-2.211 0-4 1.791-4 4v32c0 2.209 1.789 4 4 4h12c2.211 0 4-1.791 4-4s-1.789-4-4-4h-8v-8h8c2.211 0 4-1.791 4-4s-1.789-4-4-4h-8v-8z"/><path d="m164.946 142c-2.211 0-4 1.791-4 4v28h-4v-28c0-2.209-1.789-4-4-4s-4 1.791-4 4v32c0 2.209 1.789 4 4 4h12c2.211 0 4-1.791 4-4v-32c0-2.209-1.789-4-4-4z"/><path d="m92.946 146h-8c-2.211 0-4 1.791-4 4s1.789 4 4 4h4v16h-12c-2.211 0-4 1.791-4 4s1.789 4 4 4h16c2.211 0 4-1.791 4-4v-24c0-2.209-1.789-4-4-4z"/><path d="m226.118 72.828c.781.781 1.805 1.172 2.828 1.172s2.047-.391 2.828-1.172l3.172-3.172 3.172 3.172c.781.781 1.805 1.172 2.828 1.172s2.047-.391 2.828-1.172c1.562-1.562 1.562-4.094 0-5.656l-3.172-3.172 3.172-3.172c1.562-1.562 1.562-4.094 0-5.656s-4.094-1.562-5.656 0l-3.172 3.172-3.172-3.172c-1.562-1.562-4.094-1.562-5.656 0s-1.562 4.094 0 5.656l3.172 3.172-3.172 3.172c-1.563 1.562-1.563 4.094 0 5.656z"/><path d="m161.123 66.334c2.361 0 4.276-1.915 4.276-4.277s-1.915-4.276-4.276-4.276c-2.362 0-4.276 1.915-4.276 4.276s1.913 4.277 4.276 4.277z"/><path d="m133.123 233.781c-2.362 0-4.276 1.915-4.276 4.276s1.914 4.277 4.276 4.277c2.361 0 4.276-1.915 4.276-4.277s-1.915-4.276-4.276-4.276z"/><path d="m184.946 110c6.617 0 12-5.383 12-12s-5.383-12-12-12-12 5.383-12 12 5.383 12 12 12zm0-16c2.207 0 4 1.795 4 4s-1.793 4-4 4-4-1.795-4-4 1.793-4 4-4z"/><path d="m263.04 132.568c-1.188-.73-2.668-.793-3.898-.16-12.448 6.3-23.17 14.379-32.138 23.887-22.675-24.032-57.468-38.295-94.058-38.295-38.141 0-74.367 15.467-96.91 41.375-1.309 1.504-1.309 3.746 0 5.25 22.543 25.908 58.769 41.375 96.91 41.375 36.591 0 71.384-14.264 94.06-38.297 8.967 9.511 19.69 17.59 32.136 23.889.566.289 1.188.432 1.805.432.727 0 1.453-.199 2.094-.592 1.184-.729 1.906-2.018 1.906-3.408v-52.047c-.001-1.391-.724-2.68-1.907-3.409zm-130.094 65.432c-34.539 0-67.332-13.398-88.504-36 21.172-22.602 53.965-36 88.504-36s67.332 13.398 88.504 36c-21.172 22.602-53.965 36-88.504 36zm124-16.688c-9.32-5.387-17.531-11.859-24.504-19.312 6.969-7.453 15.184-13.924 24.504-19.312z"/></g></svg>