<?xml version="1.0" encoding="UTF-8"?>
<svg xmlns="http://www.w3.org/2000/svg" xmlns:xlink="http://www.w3.org/1999/xlink" version="1.1" id="herod" x="0px" y="0px" viewBox="0 0 300 300" style="enable-background:new 0 0 300 300;" xml:space="preserve" width="512" height="512">
<g>
	<path d="M245.9,107.731c0,2.362,1.915,4.277,4.276,4.277s4.276-1.915,4.276-4.277s-1.915-4.276-4.276-4.276   S245.9,105.369,245.9,107.731z"/>
	<path d="M178.177,108.007c2.362,0,4.276-1.915,4.276-4.277s-1.915-4.276-4.276-4.276s-4.276,1.915-4.276,4.276   S175.815,108.007,178.177,108.007z"/>
	<path d="M246,83.673c6.617,0,12-5.383,12-12s-5.383-12-12-12s-12,5.383-12,12S239.383,83.673,246,83.673z M246,67.673   c2.205,0,4,1.795,4,4s-1.795,4-4,4s-4-1.795-4-4S243.795,67.673,246,67.673z"/>
	<path d="M151.172,74.501c0.781,0.781,1.805,1.172,2.828,1.172s2.047-0.391,2.828-1.172L160,71.329l3.172,3.172   c0.781,0.781,1.805,1.172,2.828,1.172s2.047-0.391,2.828-1.172c1.562-1.562,1.562-4.094,0-5.656l-3.172-3.172l3.172-3.172   c1.562-1.562,1.562-4.094,0-5.656s-4.094-1.562-5.656,0L160,60.017l-3.172-3.172c-1.562-1.562-4.094-1.562-5.656,0   s-1.562,4.094,0,5.656l3.172,3.172l-3.172,3.172C149.609,70.407,149.609,72.938,151.172,74.501z"/>
	<path d="M274,179.673h-32v-36c0-2.209-1.791-4-4-4h-12c-2.209,0-4,1.791-4,4v4h-4v-4c0-2.209-1.791-4-4-4h-24c-2.209,0-4,1.791-4,4   v4h-4v-4c0-2.209-1.791-4-4-4h-12c-2.209,0-4,1.791-4,4v36h-8v-18.4v-17.6v-24c0-2.209-1.791-4-4-4h-20c-2.209,0-4,1.791-4,4v4h-8   v-4c0-2.209-1.791-4-4-4H94c-2.209,0-4,1.791-4,4v60h-4v-20c0-2.209-1.791-4-4-4H70c-2.209,0-4,1.791-4,4v4h-4v-4   c0-2.209-1.791-4-4-4H46c-2.209,0-4,1.791-4,4v20H26c-2.209,0-4,1.791-4,4v60c0,2.209,1.791,4,4,4h248c2.209,0,4-1.791,4-4v-60   C278,181.464,276.209,179.673,274,179.673z M214,155.673h12c2.209,0,4-1.791,4-4v-4h4v32h-4v-8c0-2.209-1.791-4-4-4s-4,1.791-4,4v8   h-4v-8c0-2.209-1.791-4-4-4s-4,1.791-4,4v8h-4v-32h4v4C210,153.882,211.791,155.673,214,155.673z M170,147.673h4v4   c0,2.209,1.791,4,4,4h12c2.209,0,4-1.791,4-4v-4h4v32h-4v-8c0-2.209-1.791-4-4-4s-4,1.791-4,4v8h-4v-8c0-2.209-1.791-4-4-4   s-4,1.791-4,4v8h-4V147.673z M98,123.673h12v4c0,2.209,1.791,4,4,4h16c2.209,0,4-1.791,4-4v-4h12v16h-8c-2.209,0-4,1.791-4,4v4h-4   v-4c0-2.209-1.791-4-4-4h-12c-2.209,0-4,1.791-4,4v36H98V123.673z M110,187.673v52h-4v-36c0-2.209-1.791-4-4-4H86v-12H110z    M30,187.673h12v52H30V187.673z M50,195.673h8c2.209,0,4-1.791,4-4s-1.791-4-4-4h-8v-24h4v4c0,2.209,1.791,4,4,4h12   c2.209,0,4-1.791,4-4v-4h4v40h-8c-2.209,0-4,1.791-4,4s1.791,4,4,4h8v28h-4V229.47c0-5.402-4.395-9.797-9.797-9.797h-0.406   c-5.402,0-9.797,4.395-9.797,9.797v10.203h-4V195.673z M62,239.673V229.47c0-0.99,0.807-1.797,1.797-1.797h0.406   c0.99,0,1.797,0.807,1.797,1.797v10.203H62z M86,239.673v-32h12v32H86z M130,239.673V229.47c0-0.99,0.807-1.797,1.797-1.797h0.406   c0.99,0,1.797,0.807,1.797,1.797v10.203H130z M142,239.673V229.47c0-5.402-4.395-9.797-9.797-9.797h-0.406   c-5.402,0-9.797,4.395-9.797,9.797v10.203h-4v-68h8c2.209,0,4-1.791,4-4s-1.791-4-4-4h-8v-16h4v4c0,2.209,1.791,4,4,4h12   c2.209,0,4-1.791,4-4v-4h4v13.6v78.4H142z M178,207.673h24c2.209,0,4-1.791,4-4v-4h4v12h-40v-12h4v4   C174,205.882,175.791,207.673,178,207.673z M170,219.673h40v20h-8v-8c0-2.209-1.791-4-4-4s-4,1.791-4,4v8h-8v-8   c0-2.209-1.791-4-4-4s-4,1.791-4,4v8h-8V219.673z M246,239.673v-20c0-2.205,1.795-4,4-4s4,1.795,4,4v20H246z M270,239.673h-8v-20   c0-6.617-5.383-12-12-12s-12,5.383-12,12v20h-20v-12h8c2.209,0,4-1.791,4-4s-1.791-4-4-4h-8v-24c0-2.209-1.791-4-4-4h-12   c-2.209,0-4,1.791-4,4v4h-16v-4c0-2.209-1.791-4-4-4h-12c-2.209,0-4,1.791-4,4v44h-8v-52h116V239.673z"/>
	<path d="M134,183.673h-8c-2.209,0-4,1.791-4,4s1.791,4,4,4h8c2.209,0,4-1.791,4-4S136.209,183.673,134,183.673z"/>
	<path d="M70,183.673c2.209,0,4-1.791,4-4s-1.791-4-4-4h-8c-2.209,0-4,1.791-4,4s1.791,4,4,4H70z"/>
	<path d="M226,203.673h8c2.209,0,4-1.791,4-4s-1.791-4-4-4h-8c-2.209,0-4,1.791-4,4S223.791,203.673,226,203.673z"/>
	<path d="M59.797,82.181l9.295,2.865l2.867,9.299c0.879,2.852,3.477,4.768,6.461,4.768s5.582-1.916,6.461-4.77l2.867-9.297   l9.293-2.865c2.854-0.879,4.77-3.477,4.77-6.461s-1.916-5.582-4.768-6.461l-9.297-2.867l-2.865-9.295v-0.002   c-0.879-2.852-3.477-4.768-6.461-4.768s-5.582,1.916-6.461,4.768l-2.867,9.297l-9.297,2.867c-2.852,0.879-4.768,3.477-4.768,6.461   S56.943,81.302,59.797,82.181z M72.068,73.845c2.146-0.658,3.818-2.33,4.475-4.469l1.877-6.084l1.875,6.084   c0.66,2.141,2.332,3.811,4.467,4.467l6.084,1.877l-6.086,1.877c-2.137,0.66-3.805,2.33-4.465,4.469l-1.875,6.082l-1.875-6.076   c-0.656-2.143-2.326-3.814-4.471-4.477l-6.082-1.875L72.068,73.845z"/>
</g>















</svg>
