<svg id="joseph" enable-background="new 0 0 300 300" height="512" viewBox="0 0 300 300" width="512" xmlns="http://www.w3.org/2000/svg"><g><path d="m212 102.264c0-33.229-28.711-60.264-64-60.264s-64 27.035-64 60.264v104.566c-5.005 6.808-8 15.179-8 24.258v22.912c0 2.209 1.791 4 4 4s4-1.791 4-4v-22.912c0-18.015 14.48-32.687 32.409-33.053 3.249 4.055 7.009 7.735 11.351 10.798l17.633 12.438c.689.486 1.498.73 2.305.73.799 0 1.596-.238 2.283-.715l17.936-12.461c4.397-3.055 8.206-6.736 11.497-10.799 18.011.271 32.586 14.987 32.586 33.062v22.912c0 2.209 1.791 4 4 4s4-1.791 4-4v-22.912c0-9.078-2.995-17.45-8-24.258zm-48.65 99.99-15.635 10.863-15.346-10.824c-12.754-8.994-20.369-23.684-20.369-39.293v-3.127l21.447-17.873h29.105l21.448 17.873v2.891c0 15.744-7.719 30.507-20.65 39.49zm-35.169-126.626c.902 8.062 7.679 14.372 15.977 14.372h7.684c8.3 0 15.077-6.312 15.978-14.375 9.577 3.617 16.18 12.873 16.18 23.406v11.018c0 2.146 1.693 3.91 3.838 3.996 1.922.078 3.729.969 4.957 2.443 1.232 1.48 1.76 3.346 1.488 5.256l-.92 6.43c-.428 2.992-2.84 5.352-5.867 5.734-1.998.254-3.496 1.955-3.496 3.969v11.584l-17.439-14.533c-.719-.6-1.625-.928-2.561-.928h-32c-.936 0-1.842.328-2.561.928l-17.439 14.533v-11.584c0-2.014-1.498-3.715-3.496-3.969-3.027-.383-5.439-2.742-5.867-5.734l-.92-6.428c-.271-1.912.256-3.777 1.488-5.258 1.229-1.475 3.035-2.365 4.957-2.443 2.145-.086 3.838-1.85 3.838-3.996v-11.018c0-10.524 6.606-19.783 16.181-23.403zm56.416 114.813c4.736-8.333 7.403-17.82 7.403-27.677v-21.807c4.887-1.9 8.52-6.314 9.281-11.65l.92-6.432c.588-4.117-.6-8.312-3.258-11.506-1.834-2.199-4.256-3.803-6.943-4.648v-7.689c0-14.851-9.94-27.793-24-31.775v-5.257c0-2.209-1.791-4-4-4s-4 1.791-4 4v11.842c0 4.498-3.66 8.158-8.158 8.158h-7.684c-4.498 0-8.158-3.66-8.158-8.158v-11.842c0-2.209-1.791-4-4-4s-4 1.791-4 4v5.258c-14.056 3.987-24 16.937-24 31.773v7.689c-2.688.846-5.109 2.449-6.943 4.648-2.658 3.193-3.846 7.389-3.258 11.508l.92 6.43c.762 5.336 4.395 9.75 9.281 11.65v22.044c0 9.76 2.623 19.173 7.284 27.459-7.196 1.024-13.788 3.905-19.284 8.162v-96.357c0-28.819 25.121-52.264 56-52.264s56 23.445 56 52.264v96.357c-5.527-4.281-12.16-7.171-19.403-8.18z"/><path d="m228.177 109.781c-2.362 0-4.276 1.915-4.276 4.276s1.915 4.277 4.276 4.277 4.276-1.915 4.276-4.277-1.915-4.276-4.276-4.276z"/><path d="m148.406 231.94c-2.362 0-4.276 1.915-4.276 4.277s1.915 4.276 4.276 4.276 4.276-1.915 4.276-4.276c0-2.363-1.914-4.277-4.276-4.277z"/><path d="m148.406 243.94c-2.362 0-4.276 1.915-4.276 4.277s1.915 4.276 4.276 4.276 4.276-1.915 4.276-4.276c0-2.363-1.914-4.277-4.276-4.277z"/><path d="m64.177 97.781c-2.362 0-4.276 1.915-4.276 4.276s1.915 4.277 4.276 4.277 4.276-1.915 4.276-4.277-1.915-4.276-4.276-4.276z"/><path d="m188 234c-2.209 0-4 1.791-4 4v16c0 2.209 1.791 4 4 4s4-1.791 4-4v-16c0-2.209-1.791-4-4-4z"/><path d="m108 234c-2.209 0-4 1.791-4 4v16c0 2.209 1.791 4 4 4s4-1.791 4-4v-16c0-2.209-1.791-4-4-4z"/><path d="m70.828 47.172c-1.562-1.562-4.094-1.562-5.656 0l-3.172 3.172-3.172-3.172c-1.562-1.562-4.094-1.562-5.656 0s-1.562 4.094 0 5.656l3.172 3.172-3.172 3.172c-1.562 1.562-1.562 4.094 0 5.656.781.781 1.805 1.172 2.828 1.172s2.047-.391 2.828-1.172l3.172-3.172 3.172 3.172c.781.781 1.805 1.172 2.828 1.172s2.047-.391 2.828-1.172c1.562-1.562 1.562-4.094 0-5.656l-3.172-3.172 3.172-3.172c1.563-1.562 1.563-4.094 0-5.656z"/><path d="m236 50c-6.617 0-12 5.383-12 12s5.383 12 12 12 12-5.383 12-12-5.383-12-12-12zm0 16c-2.205 0-4-1.795-4-4s1.795-4 4-4 4 1.795 4 4-1.795 4-4 4z"/><circle cx="164" cy="122" r="4"/><circle cx="132" cy="122" r="4"/><path d="m124 114h12c2.209 0 4-1.791 4-4s-1.791-4-4-4h-12c-2.209 0-4 1.791-4 4s1.791 4 4 4z"/><path d="m160 114h12c2.209 0 4-1.791 4-4s-1.791-4-4-4h-12c-2.209 0-4 1.791-4 4s1.791 4 4 4z"/><path d="m154.211 146.422c-3.891 1.945-8.531 1.945-12.422 0-1.982-.992-4.381-.186-5.367 1.789-.988 1.977-.188 4.379 1.789 5.367 3.064 1.531 6.428 2.299 9.789 2.299s6.725-.768 9.789-2.299c1.977-.988 2.777-3.391 1.789-5.367-.986-1.975-3.387-2.781-5.367-1.789z"/></g></svg>