<svg id="manger-joseph" enable-background="new 0 0 300 300" height="512" viewBox="0 0 300 300" width="512" xmlns="http://www.w3.org/2000/svg"><g><path d="m266 260h-24v-64.737c1.257.448 2.591.737 4 .737 6.617 0 12-5.383 12-12v-57.975c0-13.964-8.53-26.336-21.188-31.491.719-2.058 1.188-4.234 1.188-6.534v-36c0-11.027-8.973-20-20-20s-20 8.973-20 20v36c0 2.301.47 4.477 1.188 6.536-12.652 5.156-21.188 17.543-21.188 31.489v9.975h-12v-16c0-6.617-5.383-12-12-12s-12 5.383-12 12c0 2.209 1.791 4 4 4s4-1.791 4-4c0-2.205 1.795-4 4-4s4 1.795 4 4v16.737c-4.646 1.656-8 6.055-8 11.263s3.354 9.606 8 11.263v100.737h-16.661l-5.285-29.068c8.389-5.517 13.947-15.001 13.947-25.77v-33.162c0-2.209-1.791-4-4-4h-4v-8c0-2.209-1.791-4-4-4h-88.001c-2.209 0-4 1.791-4 4v8h-4c-2.209 0-4 1.791-4 4v33.162c0 10.769 5.558 20.253 13.947 25.77l-5.286 29.068h-12.661c-2.209 0-4 1.791-4 4s1.791 4 4 4h232c2.209 0 4-1.791 4-4s-1.791-4-4-4zm-20-72c-2.205 0-4-1.795-4-4v-4h8v4c0 2.205-1.795 4-4 4zm-28-88c-6.617 0-12-5.383-12-12v-8h24v8c0 6.617-5.383 12-12 12zm12-28h-24v-12h24zm-12-32c6.617 0 12 5.383 12 12h-24c0-6.617 5.383-12 12-12zm-56 104h4v8h-4c-2.205 0-4-1.795-4-4s1.795-4 4-4zm4 16h28v100h-28zm-32.792 100h-3.869l-4.464-24.552c1.261-.238 2.497-.543 3.699-.929zm-62.052-24h45.688l4.364 24h-54.415zm-17.156-72h80v4h-64c-2.209 0-4 1.791-4 4v6c0 1.104-.896 2-2 2s-2-.896-2-2v-6c0-2.209-1.791-4-4-4h-4zm-8 41.162v-29.162h8v2c0 5.514 4.486 10 10 10s10-4.486 10-10v-2h68v4h-60c-2.209 0-4 1.791-4 4s1.791 4 4 4h60v17.162c0 12.594-10.244 22.838-22.838 22.838h-50.324c-12.594 0-22.838-10.244-22.838-22.838zm13.426 29.357c1.203.386 2.439.692 3.7.929l-4.464 24.552h-3.87zm142.574 25.481v-104-20c0-2.209-1.791-4-4-4s-4 1.791-4 4v16h-20v-8h8c2.209 0 4-1.791 4-4v-13.975c0-11.088 7.082-20.828 17.39-24.466 2.806 3.022 6.494 5.206 10.69 6.044-.014.137-.08.256-.08.396v32c0 2.209 1.791 4 4 4s4-1.791 4-4v-32c0-.141-.066-.26-.08-.396 4.196-.838 7.883-3.021 10.689-6.042 10.312 3.637 17.391 13.361 17.391 24.464v45.975h-8v-44c0-2.209-1.791-4-4-4s-4 1.791-4 4v132z"/><circle cx="166" cy="96" r="4"/><path d="m97.993 88c2.209.004 4.003-1.784 4.007-3.993s-1.783-4.003-3.993-4.007c-2.209-.004-4.003 1.783-4.007 3.993-.004 2.209 1.783 4.003 3.993 4.007z"/><path d="m143.172 62.828c.781.781 1.805 1.172 2.828 1.172s2.047-.391 2.828-1.172l3.172-3.172 3.172 3.172c.781.781 1.805 1.172 2.828 1.172s2.047-.391 2.828-1.172c1.562-1.562 1.562-4.094 0-5.656l-3.172-3.172 3.172-3.172c1.562-1.562 1.562-4.094 0-5.656s-4.094-1.562-5.656 0l-3.172 3.172-3.172-3.172c-1.562-1.562-4.094-1.562-5.656 0s-1.562 4.094 0 5.656l3.172 3.172-3.172 3.172c-1.563 1.562-1.563 4.094 0 5.656z"/><path d="m94 148c2.209 0 4-1.791 4-4v-12c0-2.209-1.791-4-4-4s-4 1.791-4 4v12c0 2.209 1.791 4 4 4z"/><path d="m103.172 146.828c.781.781 1.805 1.172 2.828 1.172s2.047-.391 2.828-1.172l4-4c1.562-1.562 1.562-4.094 0-5.656s-4.094-1.562-5.656 0l-4 4c-1.563 1.562-1.563 4.094 0 5.656z"/><path d="m75.172 137.172c-1.562 1.562-1.562 4.094 0 5.656l4 4c.781.781 1.805 1.172 2.828 1.172s2.047-.391 2.828-1.172c1.562-1.562 1.562-4.094 0-5.656l-4-4c-1.562-1.563-4.094-1.563-5.656 0z"/><path d="m66 116c6.617 0 12-5.383 12-12s-5.383-12-12-12-12 5.383-12 12 5.383 12 12 12zm0-16c2.205 0 4 1.795 4 4s-1.795 4-4 4-4-1.795-4-4 1.795-4 4-4z"/></g></svg>