<svg id="manger-mary" enable-background="new 0 0 300 300" height="512" viewBox="0 0 300 300" width="512" xmlns="http://www.w3.org/2000/svg"><g><path d="m266 258h-12.663l-5.287-29.065c8.39-5.517 13.95-15.002 13.95-25.772v-33.163c0-2.209-1.789-4-4-4h-4v-8c0-2.209-1.789-4-4-4h-88c-2.211 0-4 1.791-4 4v8h-4c-2.211 0-4 1.791-4 4v33.162c0 10.77 5.559 20.255 13.948 25.772l-5.285 29.066h-36.663v-64.437c.924.256 1.878.437 2.883.437h2.234c6 0 10.883-4.883 10.883-10.883v-52.908c0-7.619-3.059-14.529-8-19.61v-44.599c0-17.645-14.355-32-32-32s-32 14.355-32 32v44.599c-4.941 5.081-8 11.992-8 19.61v52.908c0 6 4.883 10.883 10.883 10.883h2.234c1.004 0 1.959-.181 2.883-.437v64.437h-40c-2.209 0-4 1.791-4 4s1.791 4 4 4h232c2.211 0 4-1.791 4-4s-1.789-4-4-4zm-20.791 0h-3.875l-4.462-24.552c1.262-.238 2.499-.542 3.702-.929zm-62.054-24h45.691l4.362 24h-54.417zm-17.155-72h80v4h-64c-2.211 0-4 1.791-4 4v6c0 1.104-.898 2-2 2s-2-.896-2-2v-6c0-2.209-1.789-4-4-4h-4zm-8 41.162v-29.162h8v2c0 5.514 4.484 10 10 10s10-4.486 10-10v-2h68v4h-60c-2.211 0-4 1.791-4 4s1.789 4 4 4h60v17.162c0 12.594-10.246 22.838-22.836 22.838h-50.328c-12.59 0-22.836-10.244-22.836-22.838zm13.424 29.357c1.204.387 2.441.692 3.704.93l-4.464 24.551h-3.874zm-44.307-46.519h-2.234c-1.59 0-2.883-1.293-2.883-2.883v-1.117h8v1.117c0 1.59-1.293 2.883-2.883 2.883zm-29.117-144c13.234 0 24 10.766 24 24v38.843c-3.64-1.761-7.7-2.782-12-2.828v-8.701c4.656-1.65 8-6.1 8-11.314v-24c0-2.209-1.791-4-4-4h-32c-2.209 0-4 1.791-4 4v24c0 5.215 3.344 9.664 8 11.314v8.701c-4.3.045-8.36 1.067-12 2.828v-38.843c0-13.234 10.766-24 24-24zm-8 44c-2.205 0-4-1.795-4-4v-20h24v20c0 2.205-1.795 4-4 4-2.209 0-4 1.791-4 4v16c0 2.205-1.795 4-4 4s-4-1.795-4-4v-16c0-2.209-1.791-4-4-4zm-18.883 100h-2.234c-1.59 0-2.883-1.293-2.883-2.883v-1.117h8v1.117c0 1.59-1.293 2.883-2.883 2.883zm10.883-56c0-2.209-1.791-4-4-4s-4 1.791-4 4v44h-8v-43.791c0-11.143 9.107-20.209 20.301-20.209h.437c1.656 4.646 6.055 8 11.263 8s9.606-3.354 11.263-8h.436c11.193 0 20.301 9.066 20.301 20.209v43.791h-8v-44c0-2.209-1.791-4-4-4s-4 1.791-4 4v128h-32.001z"/><circle cx="166" cy="94" r="4"/><path d="m37.993 166c2.209.004 4.003-1.784 4.007-3.993s-1.783-4.003-3.993-4.007c-2.209-.004-4.003 1.783-4.007 3.993-.004 2.209 1.783 4.003 3.993 4.007z"/><path d="m143.172 60.828c.781.781 1.805 1.172 2.828 1.172s2.047-.391 2.828-1.172l3.172-3.172 3.172 3.172c.781.781 1.805 1.172 2.828 1.172s2.047-.391 2.828-1.172c1.562-1.562 1.562-4.094 0-5.656l-3.172-3.172 3.172-3.172c1.562-1.562 1.562-4.094 0-5.656s-4.094-1.562-5.656 0l-3.172 3.172-3.172-3.172c-1.562-1.562-4.094-1.562-5.656 0s-1.562 4.094 0 5.656l3.172 3.172-3.172 3.172c-1.563 1.562-1.563 4.094 0 5.656z"/><path d="m202 130v12c0 2.209 1.789 4 4 4s4-1.791 4-4v-12c0-2.209-1.789-4-4-4s-4 1.791-4 4z"/><path d="m219.172 135.172-4 4c-1.562 1.562-1.562 4.094 0 5.656.781.781 1.805 1.172 2.828 1.172s2.047-.391 2.828-1.172l4-4c1.562-1.562 1.562-4.094 0-5.656s-4.094-1.563-5.656 0z"/><path d="m191.172 144.828c.781.781 1.805 1.172 2.828 1.172s2.047-.391 2.828-1.172c1.562-1.562 1.562-4.094 0-5.656l-4-4c-1.562-1.562-4.094-1.562-5.656 0s-1.562 4.094 0 5.656z"/><path d="m210 90c6.617 0 12-5.383 12-12s-5.383-12-12-12-12 5.383-12 12 5.383 12 12 12zm0-16c2.207 0 4 1.795 4 4s-1.793 4-4 4-4-1.795-4-4 1.793-4 4-4z"/></g></svg>