<svg id="shepard" enable-background="new 0 0 300 300" height="512" viewBox="0 0 300 300" width="512" xmlns="http://www.w3.org/2000/svg"><g><path d="m249.95 142.334c2.362 0 4.276-1.915 4.276-4.277s-1.915-4.276-4.276-4.276-4.276 1.915-4.276 4.276 1.914 4.277 4.276 4.277z"/><path d="m85.95 94.334c2.362 0 4.276-1.915 4.276-4.277s-1.915-4.276-4.276-4.276-4.276 1.915-4.276 4.276 1.914 4.277 4.276 4.277z"/><path d="m241.774 170c-6.617 0-12 5.383-12 12s5.383 12 12 12 12-5.383 12-12-5.383-12-12-12zm0 16c-2.205 0-4-1.795-4-4s1.795-4 4-4 4 1.795 4 4-1.795 4-4 4z"/><path d="m62.945 136.828c.781.781 1.805 1.172 2.828 1.172s2.047-.391 2.828-1.172l3.172-3.172 3.172 3.172c.781.781 1.805 1.172 2.828 1.172s2.047-.391 2.828-1.172c1.562-1.562 1.562-4.094 0-5.656l-3.171-3.172 3.172-3.172c1.562-1.562 1.562-4.094 0-5.656s-4.094-1.562-5.656 0l-3.172 3.172-3.172-3.172c-1.562-1.562-4.094-1.562-5.656 0s-1.562 4.094 0 5.656l3.171 3.172-3.172 3.172c-1.562 1.562-1.562 4.094 0 5.656z"/><path d="m221.746 217.898c-7.736-7.711-18.008-11.953-28.928-11.953-.023 0-.047 0-.072 0l-1.355.002-5.618-2.235v-10.729l13.812-11.839c3.932-3.371 6.188-8.275 6.188-13.455v-18.732c4.887-1.9 8.52-6.314 9.281-11.65l.92-6.432c.588-4.117-.6-8.312-3.258-11.506-1.834-2.199-4.256-3.803-6.943-4.648v-17.2c0-8.17-2.83-16.066-8-22.406v-21.273c0-6.529-5.312-11.842-11.842-11.842h-4.562c-1.859-9.117-9.938-16-19.596-16s-17.737 6.883-19.596 16h-4.562c-6.529 0-11.842 5.312-11.842 11.842v21.273c-5.17 6.34-8 14.236-8 22.406v17.199c-2.688.846-5.109 2.449-6.943 4.648-2.658 3.193-3.846 7.389-3.258 11.508l.92 6.43c.762 5.336 4.395 9.75 9.281 11.65v18.732c0 5.18 2.256 10.084 6.188 13.453l13.812 11.84v10.311l-6.666 2.691c-.045.018-.08.05-.124.07h-.275c-5.907.011-11.651 1.294-16.936 3.709v-13.762c0-18.748-15.252-34-34-34s-34 15.252-34 34v6c0 6.617 5.383 12 12 12s12-5.383 12-12v-6c0-5.514 4.486-10 10-10s10 4.486 10 10v74c0 2.209 1.791 4 4 4s4-1.791 4-4v-74c0-9.926-8.074-18-18-18s-18 8.074-18 18v6c0 2.205-1.795 4-4 4s-4-1.795-4-4v-6c0-14.336 11.664-26 26-26s26 11.664 26 26v74c0 2.209 1.791 4 4 4s4-1.791 4-4v-51.13c5.116-3.094 10.913-4.805 16.951-4.816l.865-.002 27.623 23.019c.742.619 1.65.928 2.561.928s1.818-.309 2.561-.928l27.752-23.126.676-.001c8.891.135 17.098 3.4 23.338 9.619 6.238 6.219 9.684 14.494 9.699 23.299l.014 23.02c.002 2.209 1.791 3.998 4 3.998h.002c2.209-.002 4-1.793 3.998-4.002l-.014-23.025c-.019-10.945-4.298-21.228-12.052-28.955zm-74.494-55.357c-.23-1.387.115-2.824.9-3.754.305-.359.803-.787 1.439-.787h24.363c.637 0 1.135.428 1.439.787.785.93 1.131 2.367.9 3.754l-5.908 35.459h-17.223zm14.522-128.541c5.208 0 9.606 3.354 11.263 8h-22.526c1.656-4.646 6.055-8 11.263-8zm-29.014 45.248c.652-.732 1.014-1.68 1.014-2.66v-22.746c0-2.119 1.723-3.842 3.842-3.842h48.316c2.119 0 3.842 1.723 3.842 3.842v22.746c0 .98.361 1.928 1.014 2.66 3.712 4.167 6.022 9.311 6.73 14.752h-71.488c.708-5.441 3.018-10.585 6.73-14.752zm-6.986 88.441v-21.812c0-2.014-1.498-3.715-3.496-3.969-3.027-.383-5.439-2.742-5.867-5.734l-.92-6.428c-.271-1.912.256-3.777 1.488-5.258 1.229-1.475 3.035-2.365 4.957-2.443 2.145-.086 3.838-1.85 3.838-3.996v-16.049h72v16.049c0 2.146 1.693 3.91 3.838 3.996 1.922.078 3.729.969 4.957 2.443 1.232 1.48 1.76 3.346 1.488 5.256l-.92 6.43c-.428 2.992-2.84 5.352-5.867 5.734-1.998.254-3.496 1.955-3.496 3.969v21.812c0 2.842-1.238 5.531-3.395 7.381l-14.073 12.063 3.879-23.276c.617-3.699-.389-7.527-2.688-10.24-1.977-2.332-4.654-3.617-7.543-3.617h-24.363c-2.889 0-5.566 1.285-7.543 3.617-2.299 2.713-3.305 6.541-2.688 10.24l3.879 23.275-14.074-12.064c-2.155-1.847-3.391-4.537-3.391-7.379zm36 61.104-21.473-17.893 2.971-1.199c1.512-.611 2.502-2.078 2.502-3.709v-3.662l.055.328c.32 1.928 1.99 3.342 3.945 3.342h24c1.955 0 3.625-1.414 3.945-3.342l.055-.328v4.098c0 1.639 1 3.111 2.521 3.717l2.611 1.039z"/><circle cx="177.956" cy="130" r="4"/><circle cx="145.956" cy="130" r="4"/><path d="m173.955 122h12c2.209 0 4-1.791 4-4s-1.791-4-4-4h-12c-2.209 0-4 1.791-4 4s1.791 4 4 4z"/><path d="m153.955 118c0-2.209-1.791-4-4-4h-12c-2.209 0-4 1.791-4 4s1.791 4 4 4h12c2.209 0 4-1.791 4-4z"/><path d="m197.774 254c-2.209 0-4 1.791-4 4v12c0 2.209 1.791 4 4 4s4-1.791 4-4v-12c0-2.209-1.791-4-4-4z"/><path d="m161.95 245.781c-2.362 0-4.276 1.915-4.276 4.276s1.915 4.277 4.276 4.277 4.276-1.915 4.276-4.277-1.914-4.276-4.276-4.276z"/><path d="m161.95 257.781c-2.362 0-4.276 1.915-4.276 4.276s1.915 4.277 4.276 4.277 4.276-1.915 4.276-4.277-1.914-4.276-4.276-4.276z"/><path d="m171.563 169.578c1.977-.988 2.777-3.391 1.789-5.367-.986-1.973-3.383-2.779-5.367-1.789-3.891 1.945-8.531 1.945-12.422 0-1.979-.99-4.379-.184-5.367 1.789-.988 1.977-.188 4.379 1.789 5.367 3.064 1.531 6.428 2.299 9.789 2.299s6.724-.768 9.789-2.299z"/></g></svg>