<svg id="star-is-born" enable-background="new 0 0 300 300" height="512" viewBox="0 0 300 300" width="512" xmlns="http://www.w3.org/2000/svg"><g><path d="m110.345 139.592c0 2.362 1.915 4.277 4.276 4.277s4.276-1.915 4.276-4.277-1.915-4.276-4.276-4.276-4.276 1.914-4.276 4.276z"/><path d="m198.898 155.592c0-2.362-1.915-4.276-4.276-4.276s-4.276 1.915-4.276 4.276 1.915 4.277 4.276 4.277 4.276-1.915 4.276-4.277z"/><path d="m174.445 235.534c-6.617 0-12 5.383-12 12s5.383 12 12 12 12-5.383 12-12-5.383-12-12-12zm0 16c-2.205 0-4-1.795-4-4s1.795-4 4-4 4 1.795 4 4-1.795 4-4 4z"/><path d="m35.617 126.362c.781.781 1.805 1.172 2.828 1.172s2.047-.391 2.828-1.172l3.172-3.172 3.172 3.172c.781.781 1.805 1.172 2.828 1.172s2.047-.391 2.828-1.172c1.562-1.562 1.562-4.094 0-5.656l-3.172-3.172 3.172-3.172c1.562-1.562 1.562-4.094 0-5.656s-4.094-1.562-5.656 0l-3.172 3.172-3.172-3.172c-1.562-1.562-4.094-1.562-5.656 0s-1.562 4.094 0 5.656l3.172 3.172-3.172 3.172c-1.563 1.563-1.563 4.094 0 5.656z"/><path d="m262.125 90.743-17.62-9.443c-.748-.4-1.018-1.051-1.111-1.402s-.186-1.049.262-1.77l10.537-16.988c2.562-4.131 1.977-9.215-1.461-12.652-3.434-3.438-8.52-4.033-12.654-1.463l-16.988 10.539c-.719.445-1.414.355-1.77.262-.35-.096-1-.365-1.4-1.111l-9.443-17.621c-2.295-4.285-6.982-6.316-11.689-5.061-4.695 1.258-7.748 5.367-7.594 10.227l.633 19.982c.027.848-.4 1.404-.658 1.662-.258.256-.854.652-1.662.658l-19.982-.633c-4.844-.141-8.967 2.898-10.227 7.594-1.258 4.695.775 9.395 5.061 11.689l19.84 10.324-56.805 67.496c-.123.148-.236.305-.338.467-1.938 3.121-1.494 6.963 1.104 9.561 1.52 1.52 3.465 2.303 5.443 2.303 1.402 0 2.822-.393 4.115-1.197.164-.102.32-.215.469-.338l67.283-56.627 10.539 19.66c2.299 4.287 6.986 6.318 11.689 5.061 4.693-1.258 7.746-5.367 7.592-10.227l-.633-19.979c-.027-.85.4-1.408.658-1.666.258-.256.814-.648 1.664-.658l19.98.633c4.811.164 8.971-2.896 10.229-7.594 1.257-4.696-.778-9.393-5.063-11.688zm-2.666 9.617c-.139.518-.605 1.74-2.246 1.668l-19.982-.633c-2.75-.094-5.578 1.006-7.572 2.998-1.994 1.994-3.086 4.754-2.998 7.574l.633 19.98c.051 1.609-1.148 2.107-1.668 2.246-.508.141-1.803.309-2.566-1.111l-10.703-19.971c-1.006-1.879-2.762-3.273-4.82-3.826-2.059-.555-4.279-.223-6.092.9-.164.102-.318.215-.467.338l-64.92 54.637 54.639-64.92c.123-.148.236-.305.338-.469 1.123-1.809 1.451-4.027.9-6.084-.553-2.059-1.945-3.816-3.824-4.824l-19.975-10.703c-1.42-.762-1.25-2.049-1.109-2.568.135-.508.615-1.67 2.146-1.67.031 0 .064 0 .098.002l19.982.633c2.785.068 5.576-1.002 7.574-2.996 1.994-1.996 3.086-4.756 2.996-7.574l-.633-19.982c-.051-1.609 1.148-2.107 1.668-2.246s1.805-.309 2.568 1.111l9.443 17.621c1.33 2.486 3.656 4.33 6.381 5.061 2.727.729 5.66.297 8.059-1.191l16.986-10.539c1.369-.854 2.402-.057 2.781.322s1.17 1.41.32 2.777v.002l-10.537 16.986c-1.488 2.398-1.922 5.334-1.191 8.059.729 2.725 2.574 5.051 5.061 6.383l17.619 9.443c1.419.762 1.249 2.049 1.111 2.566z"/><path d="m87.345 101.898 9.295 2.865 2.867 9.295c.879 2.854 3.477 4.77 6.461 4.77s5.582-1.916 6.461-4.77l2.865-9.295 9.295-2.865c2.854-.879 4.77-3.477 4.77-6.461s-1.916-5.582-4.768-6.461l-9.297-2.867-2.865-9.295v-.002c-.879-2.852-3.477-4.768-6.461-4.768s-5.582 1.916-6.461 4.768l-2.867 9.297-9.297 2.867c-2.852.879-4.768 3.477-4.768 6.461s1.917 5.582 4.77 6.461zm12.272-8.336c2.141-.656 3.812-2.326 4.475-4.469l1.877-6.084 1.875 6.084c.66 2.141 2.332 3.811 4.467 4.467l6.084 1.877-6.086 1.877c-2.135.66-3.803 2.328-4.465 4.467l-1.875 6.082-1.879-6.086c-.66-2.137-2.33-3.805-4.467-4.465l-6.082-1.875z"/><path d="m220.591 204.976-9.297-2.867-2.865-9.295v-.002c-.879-2.852-3.477-4.768-6.461-4.768s-5.582 1.916-6.461 4.768l-2.867 9.297-9.297 2.867c-2.852.879-4.768 3.477-4.768 6.461s1.916 5.582 4.77 6.461l9.295 2.865 2.867 9.295c.879 2.854 3.477 4.77 6.461 4.77s5.582-1.916 6.461-4.77l2.865-9.295 9.295-2.865c2.854-.879 4.77-3.477 4.77-6.461s-1.916-5.582-4.768-6.461zm-12.283 8.338c-2.135.66-3.803 2.328-4.465 4.467l-1.875 6.082-1.879-6.086c-.66-2.137-2.33-3.805-4.467-4.465l-6.082-1.875 6.076-1.875c2.141-.656 3.812-2.326 4.475-4.469l1.877-6.084 1.875 6.084c.66 2.141 2.332 3.811 4.467 4.467l6.084 1.877z"/><path d="m230.269 70.944c-1.996-1.998-5.016-2.457-7.51-1.133l-6.826 3.607-6.828-3.609c-2.494-1.312-5.508-.861-7.506 1.133-1.996 1.994-2.451 5.012-1.133 7.508l3.609 6.826-3.609 6.828c-1.318 2.496-.861 5.514 1.135 7.508 1.234 1.234 2.859 1.879 4.51 1.879 1.018 0 2.045-.246 2.996-.748l6.826-3.607 6.824 3.605c2.5 1.32 5.512.869 7.51-1.131 1.998-1.996 2.451-5.014 1.131-7.508l-3.607-6.826 3.607-6.824c1.32-2.494.867-5.511-1.129-7.508zm-9.947 17.321 1.57 2.971-2.969-1.568c-.938-.496-1.963-.744-2.99-.744s-2.053.248-2.988.742l-2.971 1.57 1.572-2.973c.986-1.869.986-4.102 0-5.973l-1.572-2.971 2.977 1.572c1.867.984 4.096.98 5.971-.004l2.971-1.568-1.572 2.973c-.987 1.869-.987 4.102.001 5.973z"/><path d="m84.445 162.335c-28.674 0-52 23.326-52 52s23.326 52 52 52 52-23.326 52-52-23.326-52-52-52zm-33.792 23.865 8.963 8.963c.559.559 1.27.939 2.043 1.094l5.557 1.111-1.654 4.967h-7.797l-6.848-11.984c-.471-.823-1.251-1.371-2.129-1.694.603-.835 1.207-1.668 1.865-2.457zm33.792 72.135c-24.262 0-44-19.738-44-44 0-6.612 1.508-12.864 4.131-18.495l.298.06 7.098 12.42c.711 1.246 2.037 2.016 3.473 2.016h13c1.723 0 3.25-1.102 3.795-2.734l4-12c.363-1.09.24-2.281-.336-3.273s-1.549-1.689-2.674-1.914l-8.812-1.764-7.973-7.971v-.258c7.613-6.296 17.372-10.086 28-10.086 24.262 0 44 19.738 44 44s-19.738 43.999-44 43.999z"/><path d="m108.703 218.819c-.23-3.32-1.973-5.434-3.545-7.34-1.201-1.461-3.268-1.879-4.951-1l-2.705 1.422c-.732-2.898-2.859-3.895-4.91-4.234-2.334-.197-6.846-.566-9.328 3.766-.115.004-.23.008-.346.014-2.416.115-4.324.207-5.803 2.299-3.338 5.6-6.24 6.918-8.361 7.879-1.648.748-3.699 1.68-4.588 4.15-1.207 3.361.428 6.98 5.775 17.914.967 1.98 3.49 2.73 5.475 1.771.361-.174.91-.326 1.51-.518 2.512-.797 5.812-1.846 7.127-4.518h4.785c1.25.811 3.598 2.494 4.811 3.467.719 5.465 3.586 6.451 5.562 6.451.184 0 .361-.008.527-.023.615-.053 1.211-.248 1.738-.568.469-.285 1.242-.562 2.09-.9 2.379-.949 5.072-2.023 6.787-3.822.498-.523.84-1.166 1-1.855.199-.533.67-1.57 1.221-2.811 3.607-8.133 4.361-10.256 3.475-12.436-.184-.449-.463-.877-.807-1.25-2.485-2.893-5.354-6.324-6.539-7.858zm-3.442 18.299c-.537 1.209-.924 2.08-1.197 2.748-.697.41-1.848.9-2.748 1.266-.014-.053-.025-.098-.037-.135-.641-2.541-9.141-8.572-11.398-8.572h-7.736c-1.705-.012-3.07.65-4.117 1.816-.59.656-1.01 1.438-1.238 2.277-.348.148-.789.307-1.219.453-1.436-2.984-2.967-6.281-3.537-8.049.008-.004.018-.01.025-.014 2.396-1.086 6.725-3.051 10.916-9.457.107-.004.215-.01.324-.014 2.654-.127 5.162-.246 6.377-2.682.105-.213.191-.432.258-.658.035-.119.068-.223.1-.309.26.936.777 1.996 1.865 2.879 2.064 1.674 4.838 1.545 7.025 1.25.461-.062.908-.205 1.322-.422l.467-.246c.021.168.02.346.008.551-.014.232-.008.467.018.699.146 1.285.199 1.76 7.291 10.053-.669 1.832-2.03 4.9-2.769 6.566z"/><path d="m84.445 190.335c1.023 0 2.047-.391 2.828-1.172l4-4c1.562-1.562 1.562-4.094 0-5.656s-4.094-1.562-5.656 0l-4 4c-1.562 1.562-1.562 4.094 0 5.656.781.781 1.804 1.172 2.828 1.172z"/><path d="m92.445 198.335c0 2.209 1.791 4 4 4s4-1.791 4-4v-4c0-2.209-1.791-4-4-4s-4 1.791-4 4z"/><path d="m262.445 175.534h-4v-4c0-2.209-1.791-4-4-4s-4 1.791-4 4v4h-4c-2.209 0-4 1.791-4 4s1.791 4 4 4h4v4c0 2.209 1.791 4 4 4s4-1.791 4-4v-4h4c2.209 0 4-1.791 4-4s-1.791-4-4-4z"/></g></svg>