<svg id="wise-man1" enable-background="new 0 0 300 300" height="512" viewBox="0 0 300 300" width="512" xmlns="http://www.w3.org/2000/svg"><g><path d="m243.95 97.781c-2.362 0-4.276 1.915-4.276 4.276s1.915 4.277 4.276 4.277 4.276-1.915 4.276-4.277-1.914-4.276-4.276-4.276z"/><path d="m75.95 114.333c2.362 0 4.276-1.915 4.276-4.277s-1.915-4.276-4.276-4.276-4.276 1.915-4.276 4.276 1.914 4.277 4.276 4.277z"/><path d="m235.774 65.999c6.617 0 12-5.383 12-12s-5.383-12-12-12-12 5.383-12 12 5.382 12 12 12zm0-16c2.207 0 4 1.795 4 4s-1.793 4-4 4-4-1.795-4-4 1.793-4 4-4z"/><path d="m70.602 83.171-3.172-3.172 3.172-3.172c1.562-1.562 1.562-4.094 0-5.656s-4.094-1.562-5.656 0l-3.172 3.172-3.172-3.172c-1.562-1.562-4.094-1.562-5.656 0s-1.562 4.094 0 5.656l3.172 3.172-3.172 3.172c-1.562 1.562-1.562 4.094 0 5.656.781.781 1.805 1.172 2.828 1.172s2.047-.391 2.828-1.172l3.172-3.172 3.172 3.172c.781.781 1.805 1.172 2.828 1.172s2.047-.391 2.828-1.172c1.562-1.562 1.562-4.094 0-5.656z"/><circle cx="171.774" cy="101.999" r="4"/><circle cx="139.774" cy="101.999" r="4"/><path d="m165.563 133.577c1.977-.988 2.777-3.391 1.789-5.367-.992-1.977-3.391-2.775-5.367-1.789-3.891 1.945-8.531 1.945-12.422 0-1.977-.986-4.375-.188-5.367 1.789-.988 1.977-.188 4.379 1.789 5.367 3.066 1.531 6.426 2.299 9.789 2.299s6.722-.768 9.789-2.299z"/><path d="m167.774 93.999h12c2.211 0 4-1.791 4-4s-1.789-4-4-4h-12c-2.211 0-4 1.791-4 4s1.789 4 4 4z"/><path d="m131.774 93.999h12c2.211 0 4-1.791 4-4s-1.789-4-4-4h-12c-2.211 0-4 1.791-4 4s1.789 4 4 4z"/><path d="m239.774 173.999h-23.839l14.511-13.023c1.234-1.107 1.656-2.859 1.062-4.406-.59-1.549-2.078-2.57-3.734-2.57h-29.214c.783-3.108 1.213-6.141 1.213-8.887v-11.113c6.617 0 12-5.383 12-12 0-3.467-1.5-6.57-3.859-8.762.557-1.243.946-2.563 1.144-3.933l.918-6.43c.578-4.064-.512-8.066-3.07-11.27-1.75-2.193-4.094-3.83-6.707-4.742l-.078-9.074c-.211-24.145-20.027-43.789-44.176-43.789-24.355 0-44.172 19.816-44.172 44.174v8.547c-2.688.846-5.109 2.449-6.941 4.648-2.66 3.193-3.848 7.389-3.262 11.506l.918 6.43c.196 1.368.587 2.688 1.145 3.933-2.359 2.193-3.859 5.295-3.859 8.763 0 6.617 5.383 12 12 12v11.113c0 2.745.43 5.779 1.213 8.887h-29.213c-1.656 0-3.145 1.021-3.734 2.57-.594 1.547-.172 3.301 1.062 4.406l14.513 13.023h-23.841c-1.617 0-3.078.975-3.695 2.469-.621 1.494-.277 3.215.867 4.359l17.819 17.82c-1.919 5.302-2.99 11.178-2.99 17.35v46.002c0 2.209 1.789 4 4 4s4-1.791 4-4v-46.002c0-14.834 7.398-28.012 17.992-32.047 2.114-.806 7.296-1.97 19.499-1.951 0 0 5.266.064 8.14.168l6.369 12.773v3.326l-23.738 62.309c-.785 2.064.25 4.375 2.312 5.162.469.178.953.264 1.426.264 1.609 0 3.129-.982 3.738-2.578l17.763-46.624 2.538 17.766c.281 1.971 1.969 3.434 3.961 3.434h8c1.992 0 3.68-1.463 3.961-3.434l2.539-17.77 17.762 46.627c.609 1.596 2.129 2.578 3.738 2.578.473 0 .957-.086 1.426-.264 2.062-.787 3.098-3.098 2.312-5.162l-23.738-62.315v-3.319l6.369-12.774c2.726-.1 8.797-.168 8.797-.168 11.719.021 16.767 1.158 18.842 1.951 10.594 4.035 17.992 17.213 17.992 32.047v46.002c0 2.209 1.789 4 4 4s4-1.791 4-4v-46.002c0-6.172-1.072-12.05-2.991-17.352l17.82-17.818c1.145-1.143 1.488-2.863.867-4.359-.619-1.494-2.08-2.469-3.697-2.469zm-22.446-12-13.371 12h-16.102c3.251-3.406 5.944-7.59 7.928-12zm-17.554-36c-2.207 0-4-1.795-4-4s1.793-4 4-4 4 1.795 4 4-1.793 4-4 4zm-92-4c0-2.205 1.793-4 4-4s4 1.795 4 4-1.793 4-4 4-4-1.795-4-4zm16 0c0-6.617-5.383-12-12-12-.268 0-.519.062-.783.079-.283-.601-.487-1.237-.58-1.903l-.918-6.43c-.273-1.912.254-3.777 1.488-5.258 1.227-1.475 3.031-2.365 4.953-2.443 2.145-.086 3.84-1.85 3.84-3.996v-11.875c0-19.947 16.227-36.174 36.172-36.174 19.777 0 36.004 16.086 36.176 35.859l.105 12.252c.02 2.068 1.613 3.783 3.676 3.951 1.883.154 3.57 1.055 4.754 2.535 1.168 1.461 1.664 3.289 1.398 5.148l-.918 6.424c-.094.669-.3 1.307-.583 1.909-.263-.017-.513-.079-.78-.079-6.617 0-12 5.383-12 12 0 3.533 1.563 6.681 4 8.879v6.242l-1.699-.34c-.035-.008-.066-.014-.102-.021-2.926-.609-5.57-2.258-7.449-4.65l-.012.01c-1.723-2.197-2.738-4.957-2.738-7.902 0-5.633-4.582-10.217-10.215-10.217h-27.57c-5.633 0-10.215 4.584-10.215 10.217 0 2.945-1.016 5.705-2.738 7.902l-.012-.01c-1.875 2.385-4.508 4.031-7.426 4.646-.039.008-.082.016-.125.025l-1.699.34v-6.242c2.437-2.197 4-5.345 4-8.878zm24.675 15.367c-4.274-.731-8.048-2.06-10.959-3.826 1.432-2.833 2.284-5.99 2.284-9.324 0-1.223.992-2.217 2.215-2.217h27.57c1.223 0 2.215.994 2.215 2.217 0 3.333.852 6.491 2.284 9.324-2.911 1.767-6.685 3.095-10.96 3.826-1.918.33-3.324 1.994-3.324 3.943v.689c0 2.205-1.793 4-4 4s-4-1.795-4-4v-.689c0-1.949-1.407-3.613-3.325-3.943zm-54.23 24.633h21.545c1.984 4.41 4.677 8.594 7.928 12h-16.099zm-3.832 28.959-8.958-8.959h16.386c-2.859 2.485-5.36 5.511-7.428 8.959zm69.387 11.041h-8v-4h8zm-4.532 28-2.857-20h6.776l-2.857 20zm6.058-40h-11.052l-6.896-13.83c-.652-1.312-1.973-2.16-3.438-2.213-10.33-.364-20.048-16.417-20.133-28.68l3.262-.652c.098-.02.195-.039.289-.061.008 0 .012-.002.02-.004h.004c3.515-.759 6.662-2.406 9.245-4.66 3.189 2.063 7.101 3.687 11.462 4.732 1.203 5.355 5.996 9.367 11.711 9.367s10.508-4.012 11.711-9.367c4.361-1.045 8.273-2.669 11.463-4.732 2.583 2.253 5.729 3.9 9.244 4.66.008-.002.012.006.02.004.09.02.184.039.273.057.008.002.012.002.02.004l3.262.652c-.085 12.263-9.803 28.316-20.133 28.68-1.465.053-2.785.9-3.438 2.213zm59.859.957c-2.068-3.447-4.569-6.473-7.428-8.957h16.386z"/></g></svg>