<svg id="wise-man2" enable-background="new 0 0 300 300" height="512" viewBox="0 0 300 300" width="512" xmlns="http://www.w3.org/2000/svg"><g><path d="m241.95 108.334c2.361 0 4.276-1.915 4.276-4.277s-1.915-4.276-4.276-4.276c-2.362 0-4.276 1.915-4.276 4.276s1.914 4.277 4.276 4.277z"/><path d="m77.95 60.334c2.361 0 4.276-1.915 4.276-4.277s-1.915-4.276-4.276-4.276c-2.362 0-4.276 1.915-4.276 4.276s1.914 4.277 4.276 4.277z"/><path d="m233.773 136c-6.617 0-12 5.383-12 12s5.383 12 12 12 12-5.383 12-12-5.382-12-12-12zm0 16c-2.207 0-4-1.795-4-4s1.793-4 4-4 4 1.795 4 4-1.793 4-4 4z"/><path d="m60.602 102.828 3.172-3.172 3.172 3.172c.781.781 1.805 1.172 2.828 1.172s2.047-.391 2.828-1.172c1.562-1.562 1.562-4.094 0-5.656l-3.172-3.172 3.172-3.172c1.562-1.562 1.562-4.094 0-5.656s-4.094-1.562-5.656 0l-3.172 3.172-3.172-3.172c-1.562-1.562-4.094-1.562-5.656 0s-1.562 4.094 0 5.656l3.171 3.172-3.172 3.172c-1.562 1.562-1.562 4.094 0 5.656.781.781 1.805 1.172 2.828 1.172s2.047-.391 2.829-1.172z"/><path d="m202.582 201.074c-.969-.355-2.066-.665-3.307-.935l6.291-18.873c.41-1.221.203-2.561-.547-3.604-.754-1.045-1.961-1.662-3.246-1.662h-15.852l5.668-4.857c3.93-3.371 6.184-8.275 6.184-13.453v-26.732c4.887-1.9 8.52-6.312 9.285-11.652l.918-6.43c.586-4.117-.602-8.312-3.262-11.506-1.832-2.199-4.254-3.803-6.941-4.648v-3.689c0-.081-.016-.153-.017-.233 4.151-.169 7.716-1.105 10.544-3.487 3.684-3.107 5.473-8.115 5.473-15.311 0-15.822-28.043-42-60-42s-60 26.178-60 42c0 8.605 1.906 14.143 6.004 17.424 2.785 2.232 6.132 3.073 9.996 3.107v2.19c-2.688.846-5.109 2.449-6.941 4.648-2.66 3.193-3.848 7.389-3.262 11.506l.918 6.432c.766 5.338 4.398 9.75 9.285 11.65v26.732c0 5.18 2.254 10.082 6.188 13.453l5.667 4.857h-15.855c-1.285 0-2.492.617-3.246 1.662-.75 1.043-.957 2.383-.547 3.604l6.291 18.873c-1.236.27-2.333.579-3.303.934-6.022 2.197-11.239 6.47-15.195 12.049v-38.239c.27-.258.511-.549.703-.882l9.238-16c.715-1.238.715-2.762 0-4l-9.238-16c-.715-1.238-2.035-2-3.465-2h-18.476c-1.43 0-2.75.762-3.465 2l-9.238 16c-.715 1.238-.715 2.762 0 4l9.238 16c.192.333.434.624.703.882v89.116c0 2.209 1.789 4 4 4s4-1.791 4-4v-88h8v63.098 16.902 8c0 2.209 1.789 4 4 4s4-1.791 4-4v-8-16.902c0-14.111 7.375-26.658 17.938-30.51.814-.298 1.898-.552 3.116-.783l3.154 9.461c.543 1.633 2.07 2.734 3.793 2.734h30.878l-10.757 43.029c-.539 2.145.766 4.316 2.91 4.852 2.129.533 4.312-.771 4.848-2.91l8.121-32.479 8.121 32.479c.453 1.816 2.082 3.031 3.875 3.029.32 0 .648-.037.973-.119 2.145-.535 3.449-2.707 2.91-4.852l-10.758-43.029h30.878c1.723 0 3.25-1.102 3.793-2.734l3.153-9.46c1.22.231 2.305.485 3.116.783 10.562 3.852 17.938 16.398 17.938 30.51v24.901c0 2.209 1.789 4 4 4s4-1.791 4-4v-24.902c0-17.407-9.539-33.043-23.191-38.024zm-138.668-45.074 6.93-12h13.859l6.93 12-6.93 12h-13.859zm73.859 43.001v-9.406c2.405 1.54 5.195 2.406 8.078 2.406h15.844c2.883 0 5.673-.866 8.078-2.406v9.406l-16 11.999zm-8-6-12.002-9.001h12.002zm48-9.001h12.002l-12.002 9.001zm-32-108c0-4.412 3.59-8 8-8s8 3.588 8 8-3.59 8-8 8-8-3.588-8-8zm8-16c-8.824 0-16 7.178-16 16 0 1.875.384 3.65.979 5.324-4.788.776-9.315 1.775-13.437 2.696-4.547 1.017-8.778 1.957-12.309 2.335.465-.607 15.251-19.557 41.98-31.199l1.208.52c.256.109 25.004 10.985 29.353 28.034-1.479-.239-2.989-.492-4.548-.759-3.734-.638-7.83-1.325-12.128-1.88.541-1.603.901-3.288.901-5.071.001-8.822-7.174-16-15.999-16zm52 14c0 4.629-.887 7.723-2.633 9.195-1.813 1.534-5.051 1.854-9.133 1.579l-.312-1.56c-3.199-15.99-19.479-26.979-28.44-31.927 4.192-1.341 8.58-2.506 13.233-3.353l2.906-.528c14.677 7.99 24.379 20.387 24.379 26.594zm-52-34c5.037 0 9.878.775 14.468 2.047-39.384 10.4-60.716 38.286-61.667 39.552l-2.261 3.014c-1.657-1.805-2.54-5.307-2.54-10.614 0-9.583 23.059-33.999 52-33.999zm-45.363 78.176-.918-6.43c-.273-1.912.254-3.777 1.488-5.258 1.227-1.475 3.031-2.365 4.953-2.443 2.145-.086 3.84-1.85 3.84-3.996v-6.297c2.896-.502 5.99-1.189 9.285-1.926 5.172-1.154 10.992-2.43 17.034-3.174 2.696 2.069 6.027 3.348 9.681 3.348 3.725 0 7.11-1.331 9.832-3.473 5.677.556 11.169 1.475 16.047 2.309 3.593.614 6.94 1.166 10.077 1.547.006.222.044.422.044.648v7.018c0 2.146 1.695 3.91 3.84 3.996 1.922.078 3.727.969 4.953 2.443 1.234 1.48 1.762 3.346 1.488 5.258l-.918 6.428c-.426 2.992-2.84 5.352-5.867 5.734-1.996.254-3.496 1.955-3.496 3.969v6.008l-9.657 6.573-11.143-14.858c-.754-1.008-1.941-1.6-3.199-1.6h-24c-1.258 0-2.445.592-3.199 1.6l-11.143 14.857-9.658-6.573v-6.007c0-2.014-1.5-3.715-3.496-3.969-3.028-.383-5.442-2.742-5.868-5.732zm65.087 26.787-1.477 1.005c-2.066 1.311-4.746 2.031-7.547 2.031h-21.398c-2.801 0-5.48-.721-7.438-1.959l-1.585-1.079 9.721-12.961h20zm-55.724 12.726v-14.13l13.473 9.167c3.328 2.111 7.531 3.273 11.828 3.273h21.398c4.297 0 8.5-1.162 11.938-3.346l13.363-9.094v14.129c0 2.842-1.238 5.531-3.391 7.381l-20.117 17.24c-1.273 1.09-2.895 1.689-4.57 1.689h-3.922v-8c0-2.209-1.789-4-4-4s-4 1.791-4 4v8h-3.922c-1.676 0-3.297-.6-4.57-1.689l-20.117-17.242c-2.152-1.846-3.391-4.536-3.391-7.378zm-4.155 33.192 28.158 21.119h-21.12zm73.273 21.119h-21.12l28.159-21.119z"/><circle cx="169.773" cy="112" r="4"/><circle cx="137.773" cy="112" r="4"/><path d="m129.773 104h48c2.211 0 4-1.791 4-4s-1.789-4-4-4h-48c-2.211 0-4 1.791-4 4s1.789 4 4 4z"/><path d="m159.984 136.422c-3.891 1.945-8.531 1.945-12.422 0-1.977-.988-4.379-.188-5.367 1.789s-.188 4.379 1.789 5.367c3.066 1.531 6.426 2.299 9.789 2.299s6.723-.768 9.789-2.299c1.977-.988 2.777-3.391 1.789-5.367s-3.39-2.777-5.367-1.789z"/></g></svg>