<svg width="797" height="193" xmlns="http://www.w3.org/2000/svg" xmlns:xlink="http://www.w3.org/1999/xlink" xml:space="preserve" overflow="hidden"><defs><filter id="fx0" x="-10%" y="-10%" width="120%" height="120%" filterUnits="userSpaceOnUse" primitiveUnits="userSpaceOnUse"><feComponentTransfer color-interpolation-filters="sRGB"><feFuncR type="discrete" tableValues="1.000000 1.000000"/><feFuncG type="discrete" tableValues="1.000000 1.000000"/><feFuncB type="discrete" tableValues="1.000000 1.000000"/><feFuncA type="linear" slope="0.400000" intercept="0.000000"/></feComponentTransfer><feGaussianBlur stdDeviation="7.638889 7.638889"/></filter><clipPath id="clip1"><rect x="9" y="13" width="797" height="193"/></clipPath><clipPath id="clip2"><rect x="-22.9167" y="-22.9167" width="836.833" height="235.833"/></clipPath><clipPath id="clip3"><rect x="0" y="0" width="791" height="190"/></clipPath></defs><g clip-path="url(#clip1)" transform="translate(-9 -13)"><g clip-path="url(#clip2)" filter="url(#fx0)" transform="translate(13 15)"><g clip-path="url(#clip3)"><path d="M26.2599 69.305C26.2599 45.4712 45.5809 26.1501 69.4146 26.1501L721.585 26.1501C745.419 26.1501 764.74 45.4712 764.74 69.305L764.74 120.695C764.74 144.529 745.419 163.85 721.585 163.85L69.4146 163.85C45.5809 163.85 26.2599 144.529 26.2599 120.695Z" stroke="#FFFFFF" stroke-width="5" stroke-linecap="butt" stroke-linejoin="miter" stroke-miterlimit="8" stroke-opacity="1" fill="#F2F2F2" fill-rule="evenodd" fill-opacity="0.329412"/></g></g><path d="M46.4999 84.8088C46.4999 61.4424 65.4421 42.5001 88.8084 42.5001L728.191 42.5001C751.558 42.5001 770.5 61.4424 770.5 84.8088L770.5 135.191C770.5 158.558 751.558 177.5 728.191 177.5L88.8084 177.5C65.4421 177.5 46.4999 158.558 46.4999 135.191Z" stroke="#FFFFFF" stroke-width="4.58333" stroke-linecap="butt" stroke-linejoin="miter" stroke-miterlimit="8" stroke-opacity="1" fill="#F2F2F2" fill-rule="evenodd" fill-opacity="0.329412"/></g></svg>