<svg width="797" height="197" xmlns="http://www.w3.org/2000/svg" xmlns:xlink="http://www.w3.org/1999/xlink" xml:space="preserve" overflow="hidden"><defs><filter id="fx0" x="-10%" y="-10%" width="120%" height="120%" filterUnits="userSpaceOnUse" primitiveUnits="userSpaceOnUse"><feComponentTransfer color-interpolation-filters="sRGB"><feFuncR type="discrete" tableValues="1.000000 1.000000"/><feFuncG type="discrete" tableValues="1.000000 1.000000"/><feFuncB type="discrete" tableValues="1.000000 1.000000"/><feFuncA type="linear" slope="0.400000" intercept="0.000000"/></feComponentTransfer><feGaussianBlur stdDeviation="7.638889 7.638889"/></filter><clipPath id="clip1"><rect x="3593" y="9" width="797" height="197"/></clipPath><clipPath id="clip2"><rect x="-22.9167" y="-22.9167" width="836.833" height="234.833"/></clipPath><clipPath id="clip3"><rect x="0" y="0" width="791" height="189"/></clipPath></defs><g clip-path="url(#clip1)" transform="translate(-3593 -9)"><g clip-path="url(#clip2)" filter="url(#fx0)" transform="translate(3597 13)"><g clip-path="url(#clip3)"><path d="M26.2598 68.996C26.2598 45.3384 45.438 26.1601 69.0955 26.1601L721.904 26.1601C745.562 26.1601 764.74 45.3384 764.74 68.996L764.74 120.004C764.74 143.662 745.562 162.84 721.904 162.84L69.0955 162.84C45.438 162.84 26.2598 143.662 26.2598 120.004Z" stroke="#FFFFFF" stroke-width="5" stroke-linecap="butt" stroke-linejoin="miter" stroke-miterlimit="8" stroke-opacity="1" fill="#F2F2F2" fill-rule="evenodd" fill-opacity="0.329412"/></g></g><path d="M3630.5 82.4961C3630.5 59.3023 3649.3 40.5001 3672.5 40.5001L4312.5 40.5001C4335.7 40.5001 4354.5 59.3023 4354.5 82.4961L4354.5 132.504C4354.5 155.698 4335.7 174.5 4312.5 174.5L3672.5 174.5C3649.3 174.5 3630.5 155.698 3630.5 132.504Z" stroke="#FFFFFF" stroke-width="4.58333" stroke-linecap="butt" stroke-linejoin="miter" stroke-miterlimit="8" stroke-opacity="1" fill="#F2F2F2" fill-rule="evenodd" fill-opacity="0.329412"/></g></svg>