<svg width="2214" height="193" xmlns="http://www.w3.org/2000/svg" xmlns:xlink="http://www.w3.org/1999/xlink" xml:space="preserve" overflow="hidden"><defs><filter id="fx0" x="-10%" y="-10%" width="120%" height="120%" filterUnits="userSpaceOnUse" primitiveUnits="userSpaceOnUse"><feComponentTransfer color-interpolation-filters="sRGB"><feFuncR type="discrete" tableValues="1.000000 1.000000"/><feFuncG type="discrete" tableValues="1.000000 1.000000"/><feFuncB type="discrete" tableValues="1.000000 1.000000"/><feFuncA type="linear" slope="0.400000" intercept="0.000000"/></feComponentTransfer><feGaussianBlur stdDeviation="7.638889 7.638889"/></filter><clipPath id="clip1"><rect x="1095" y="13" width="2214" height="193"/></clipPath><clipPath id="clip2"><rect x="-22.9166" y="-22.9167" width="2254.83" height="234.833"/></clipPath><clipPath id="clip3"><rect x="0" y="0" width="2209" height="189"/></clipPath></defs><g clip-path="url(#clip1)" transform="translate(-1095 -13)"><g clip-path="url(#clip2)" filter="url(#fx0)" transform="translate(1096 17)"><g clip-path="url(#clip3)"><path d="M26.3601 61.9092C26.3601 42.1654 42.3656 26.1598 62.1094 26.1598L2146.89 26.1598C2166.63 26.1598 2182.64 42.1654 2182.64 61.9092L2182.64 127.091C2182.64 146.834 2166.63 162.84 2146.89 162.84L62.1094 162.84C42.3656 162.84 26.3601 146.834 26.3601 127.091Z" stroke="#FFFFFF" stroke-width="5" stroke-linecap="butt" stroke-linejoin="miter" stroke-miterlimit="8" stroke-opacity="1" fill="#F2F2F2" fill-rule="evenodd" fill-opacity="0.329412"/></g></g><path d="M1143.5 79.5482C1143.5 60.1915 1159.19 44.4998 1178.55 44.4998L3222.45 44.4998C3241.81 44.4998 3257.5 60.1915 3257.5 79.5482L3257.5 143.451C3257.5 162.808 3241.81 178.5 3222.45 178.5L1178.55 178.5C1159.19 178.5 1143.5 162.808 1143.5 143.451Z" stroke="#FFFFFF" stroke-width="4.58333" stroke-linecap="butt" stroke-linejoin="miter" stroke-miterlimit="8" stroke-opacity="1" fill="#F2F2F2" fill-rule="evenodd" fill-opacity="0.329412"/></g></svg>