<svg width="555" height="554" xmlns="http://www.w3.org/2000/svg" xmlns:xlink="http://www.w3.org/1999/xlink" xml:space="preserve" overflow="hidden"><defs><filter id="fx0" x="-10%" y="-10%" width="120%" height="120%" filterUnits="userSpaceOnUse" primitiveUnits="userSpaceOnUse"><feComponentTransfer color-interpolation-filters="sRGB"><feFuncR type="discrete" tableValues="0.749020 0.749020"/><feFuncG type="discrete" tableValues="0.749020 0.749020"/><feFuncB type="discrete" tableValues="0.749020 0.749020"/><feFuncA type="linear" slope="0.788235" intercept="0.000000"/></feComponentTransfer><feGaussianBlur stdDeviation="14.888145 14.827625"/></filter><filter id="fx1" x="-10%" y="-10%" width="120%" height="120%" filterUnits="userSpaceOnUse" primitiveUnits="userSpaceOnUse"><feComponentTransfer color-interpolation-filters="sRGB"><feFuncR type="discrete" tableValues="0.000000 0.000000"/><feFuncG type="discrete" tableValues="0.000000 0.000000"/><feFuncB type="discrete" tableValues="0.000000 0.000000"/><feFuncA type="linear" slope="0.400000" intercept="0.000000"/></feComponentTransfer><feGaussianBlur stdDeviation="6.111111 6.111111"/></filter><filter id="fx2" x="-10%" y="-10%" width="120%" height="120%" filterUnits="userSpaceOnUse" primitiveUnits="userSpaceOnUse"><feComponentTransfer color-interpolation-filters="sRGB"><feFuncR type="discrete" tableValues="0.949020 0.949020"/><feFuncG type="discrete" tableValues="0.949020 0.949020"/><feFuncB type="discrete" tableValues="0.949020 0.949020"/><feFuncA type="linear" slope="1.000000" intercept="0.000000"/></feComponentTransfer><feGaussianBlur stdDeviation="15.534631 15.562672"/></filter><clipPath id="clip3"><rect x="27" y="206" width="555" height="554"/></clipPath><clipPath id="clip4"><rect x="0.268185" y="0.204601" width="122.464" height="121.466"/></clipPath><clipPath id="clip5"><rect x="0" y="0" width="123" height="122"/></clipPath><clipPath id="clip6"><rect x="44" y="44" width="34" height="34"/></clipPath><clipPath id="clip7"><rect x="44" y="44" width="34" height="34"/></clipPath><clipPath id="clip8"><rect x="44" y="44" width="34" height="34"/></clipPath><clipPath id="clip9"><rect x="45" y="44" width="34" height="34"/></clipPath><clipPath id="clip10"><rect x="45" y="44" width="34" height="34"/></clipPath><clipPath id="clip11"><rect x="45" y="44" width="34" height="34"/></clipPath><clipPath id="clip12"><rect x="1.66653" y="1.41656" width="166.667" height="166.667"/></clipPath><clipPath id="clip13"><rect x="0" y="0" width="170" height="170"/></clipPath><clipPath id="clip14"><rect x="19" y="19" width="132" height="131"/></clipPath><clipPath id="clip15"><rect x="19" y="19" width="132" height="131"/></clipPath><clipPath id="clip16"><rect x="19" y="19" width="132" height="131"/></clipPath><clipPath id="clip17"><rect x="237" y="403" width="132" height="131"/></clipPath><clipPath id="clip18"><rect x="237" y="403" width="132" height="131"/></clipPath><clipPath id="clip19"><rect x="237" y="403" width="132" height="131"/></clipPath><clipPath id="clip20"><rect x="0.379868" y="0.32505" width="122.24" height="122.239"/></clipPath><clipPath id="clip21"><rect x="0" y="0" width="123" height="123"/></clipPath><clipPath id="clip22"><rect x="46" y="47" width="31" height="29"/></clipPath><clipPath id="clip23"><rect x="46" y="47" width="31" height="29"/></clipPath><clipPath id="clip24"><rect x="46" y="47" width="31" height="29"/></clipPath><clipPath id="clip25"><rect x="238" y="403" width="132" height="131"/></clipPath><clipPath id="clip26"><rect x="238" y="403" width="132" height="131"/></clipPath><clipPath id="clip27"><rect x="238" y="403" width="132" height="131"/></clipPath></defs><g clip-path="url(#clip3)" transform="translate(-27 -206)"><g clip-path="url(#clip4)" filter="url(#fx0)" transform="matrix(3.98374 0 0 4 59 239)"><g clip-path="url(#clip5)"><g clip-path="url(#clip6)" transform="matrix(1 0 0 1 1.49012e-07 0)"><g clip-path="url(#clip7)" transform="matrix(1 0 0 1 1.49012e-07 0)"><g clip-path="url(#clip8)" transform="matrix(1 0 0 1 1.49012e-07 0)"><path d="M26.7236 28.8818 5.71289 28.8818C4.57031 28.8818 3.61816 27.9297 3.61816 26.7871L3.61816 5.77636C3.61816 4.63379 4.57031 3.68164 5.71289 3.68164L26.7236 3.68164C27.8662 3.68164 28.8183 4.63379 28.8183 5.77636L28.8183 26.7871C28.8818 27.9297 27.9297 28.8818 26.7236 28.8818ZM25.8984 26.4062 6.60156 26.4062C6.28418 26.4062 6.09375 26.1523 6.09375 25.8984L6.09375 6.60156C6.09375 6.34765 6.28418 6.09375 6.60156 6.09375L25.8984 6.09375C26.2158 6.09375 26.4062 6.34765 26.4062 6.60156L26.4062 25.9619C26.4062 26.2158 26.1523 26.4062 25.8984 26.4062ZM7.0459 25.4541 25.4541 25.4541 25.4541 7.0459 7.0459 7.0459 7.0459 25.4541ZM17.5195 24.248 14.9805 24.248C14.7266 24.248 14.5361 24.1211 14.5361 23.8672L14.2187 21.6455C14.0918 21.582 14.0283 21.582 13.9014 21.5185L12.0605 22.8516C11.9336 22.9785 11.6162 22.9785 11.4893 22.8516L9.71191 21.0107C9.52148 20.8838 9.52148 20.6299 9.64843 20.4394L10.9814 18.5986C10.918 18.4717 10.918 18.4082 10.8545 18.2812L8.63281 17.9639C8.3789 17.9639 8.25195 17.7734 8.25195 17.5195L8.25195 14.9805C8.25195 14.79 8.3789 14.5996 8.63281 14.5361L10.8545 14.2187C10.918 14.0918 10.9814 14.0283 10.9814 13.9014L9.64843 12.124C9.52148 11.9336 9.52148 11.6797 9.71191 11.4893L11.4893 9.71191C11.6162 9.52148 11.9336 9.52148 12.0605 9.64843L13.9014 10.9814C13.9648 10.918 14.0918 10.918 14.1553 10.8545L14.4726 8.63281C14.5361 8.3789 14.7266 8.25195 14.917 8.25195L17.456 8.25195C17.71 8.25195 17.9004 8.3789 17.9004 8.63281L18.2812 10.8545C18.3447 10.918 18.4717 10.918 18.5351 10.9814L20.376 9.64843C20.5664 9.52148 20.8203 9.52148 21.0107 9.71191L22.7881 11.4893C22.915 11.6797 22.9785 11.9336 22.8516 12.124L21.5185 13.9014C21.5185 14.0283 21.582 14.0918 21.6455 14.2187L23.8672 14.5361C24.1211 14.5361 24.248 14.79 24.248 14.9805L24.248 17.5195C24.248 17.7734 24.1211 17.9639 23.8672 17.9639L21.6455 18.2812C21.582 18.4082 21.5185 18.4717 21.5185 18.5986L22.8516 20.376C22.9785 20.5664 22.9785 20.8203 22.7881 20.9473L21.0107 22.7881C20.8203 22.915 20.5664 22.9785 20.376 22.8516L18.5351 21.4551C18.4717 21.5185 18.3447 21.582 18.2812 21.582L17.9639 23.8672C17.9004 24.1211 17.7734 24.248 17.5195 24.248ZM15.3613 23.3594 17.0752 23.3594 17.3926 21.2012C17.456 21.0107 17.583 20.8838 17.71 20.8203 17.9639 20.7568 18.2178 20.6299 18.4082 20.5664 18.5986 20.5029 18.7891 20.5029 18.916 20.6299L20.6299 21.8994 21.8359 20.6299 20.5664 18.916C20.4394 18.7891 20.4394 18.5986 20.5029 18.4082 20.6299 18.2178 20.6933 17.9639 20.8203 17.71 20.8838 17.583 21.0107 17.456 21.2012 17.456L23.2959 17.1387 23.2959 15.3613 21.2012 15.0439C21.0107 15.0439 20.8838 14.917 20.8203 14.79L20.7568 14.6631C20.6933 14.4726 20.5664 14.2187 20.5029 14.0283 20.4394 13.9014 20.4394 13.7109 20.5029 13.584L21.8359 11.8701 20.5664 10.6006 18.8525 11.9336C18.7256 11.9971 18.5351 12.0605 18.3447 11.9336 18.2178 11.8701 17.9639 11.7432 17.7734 11.6797L17.6465 11.6162C17.5195 11.5527 17.3926 11.4258 17.3926 11.2353L17.0752 9.14062 15.2978 9.14062 14.9805 11.2353C14.9805 11.4258 14.8535 11.5527 14.7266 11.6162 14.4726 11.7432 14.2187 11.8066 14.0283 11.9336 13.8379 11.9971 13.6475 11.9971 13.5205 11.8701L11.8066 10.6006 10.5371 11.8066 11.8066 13.5205C11.9336 13.6475 11.9336 13.8379 11.8701 14.0283 11.8066 14.2187 11.6797 14.4726 11.6162 14.7266 11.5527 14.8535 11.4258 14.9805 11.2353 15.0439L9.07714 15.3613 9.07714 17.0752 11.2353 17.3926C11.4258 17.3926 11.5527 17.5195 11.6162 17.71 11.6797 17.9639 11.7432 18.1543 11.8701 18.4082 11.9336 18.5986 11.9336 18.7891 11.8066 18.916L10.6006 20.6299 11.8701 21.8994 13.584 20.5664C13.7109 20.5029 13.9014 20.4394 14.0283 20.5029 14.2822 20.6299 14.5361 20.7568 14.7266 20.8203 14.917 20.8838 15.0439 21.0107 15.0439 21.2012L15.3613 23.3594ZM16.25 19.4238C14.4726 19.4238 13.0762 17.9639 13.0762 16.25 13.0762 14.5361 14.5361 13.0762 16.25 13.0762 17.9639 13.0762 19.3603 14.5361 19.3603 16.25 19.3603 17.9639 17.9639 19.4238 16.25 19.4238ZM16.25 14.0283C15.0439 14.0283 14.0283 15.0439 14.0283 16.25 14.0283 17.456 15.0439 18.4717 16.25 18.4717 17.456 18.4717 18.4717 17.456 18.4717 16.25 18.4717 15.0439 17.456 14.0283 16.25 14.0283Z" fill="#BFBFBF" fill-rule="evenodd" fill-opacity="1" transform="matrix(1.00408 0 0 1 44.9326 44.6875)"/><path d="M6.47461 4.57031C6.2207 4.57031 5.96679 4.37988 5.96679 4.12597L5.96679 0.507812C5.96679 0.19043 6.2207 0 6.47461 0 6.72851 0 6.91894 0.19043 6.91894 0.507812L6.91894 4.12597C6.91894 4.37988 6.72851 4.57031 6.47461 4.57031ZM9.26757 4.57031C8.95019 4.57031 8.75976 4.37988 8.75976 4.12597L8.75976 0.507812C8.75976 0.19043 8.95019 0 9.26757 0 9.52148 0 9.71191 0.19043 9.71191 0.507812L9.71191 4.12597C9.71191 4.37988 9.52148 4.57031 9.26757 4.57031ZM12.0605 4.57031C11.7432 4.57031 11.5527 4.37988 11.5527 4.12597L11.5527 0.507812C11.5527 0.19043 11.7432 0 12.0605 0 12.3144 0 12.5049 0.19043 12.5049 0.507812L12.5049 4.12597C12.5049 4.37988 12.3144 4.57031 12.0605 4.57031ZM14.8535 4.57031C14.5996 4.57031 14.3457 4.37988 14.3457 4.12597L14.3457 0.507812C14.3457 0.19043 14.5996 0 14.8535 0 15.1074 0 15.2978 0.19043 15.2978 0.507812L15.2978 4.12597C15.2978 4.37988 15.1074 4.57031 14.8535 4.57031ZM17.6465 4.57031C17.3926 4.57031 17.1387 4.37988 17.1387 4.12597L17.1387 0.507812C17.1387 0.19043 17.3926 0 17.6465 0 17.9004 0 18.0908 0.19043 18.0908 0.507812L18.0908 4.12597C18.0908 4.37988 17.9004 4.57031 17.6465 4.57031ZM20.4394 4.57031C20.1855 4.57031 19.9316 4.37988 19.9316 4.12597L19.9316 0.507812C19.9316 0.19043 20.1855 0 20.4394 0 20.6933 0 20.8838 0.19043 20.8838 0.507812L20.8838 4.12597C20.8838 4.37988 20.6933 4.57031 20.4394 4.57031ZM23.2324 4.57031C22.9785 4.57031 22.7881 4.37988 22.7881 4.12597L22.7881 0.507812C22.7881 0.19043 22.9785 0 23.2324 0 23.4863 0 23.7402 0.19043 23.7402 0.507812L23.7402 4.12597C23.6767 4.37988 23.4863 4.57031 23.2324 4.57031ZM26.0254 4.57031C25.7715 4.57031 25.5176 4.37988 25.5176 4.12597L25.5176 0.507812C25.5176 0.19043 25.7715 0 26.0254 0 26.2793 0 26.4697 0.19043 26.4697 0.507812L26.4697 4.12597C26.4697 4.37988 26.2793 4.57031 26.0254 4.57031ZM6.47461 32.5C6.2207 32.5 5.96679 32.3096 5.96679 31.9922L5.96679 28.374C5.96679 28.1201 6.2207 27.9297 6.47461 27.9297 6.72851 27.9297 6.91894 28.1201 6.91894 28.374L6.91894 31.9922C6.91894 32.3096 6.72851 32.5 6.47461 32.5ZM9.26757 32.5C8.95019 32.5 8.75976 32.3096 8.75976 31.9922L8.75976 28.374C8.75976 28.1201 8.95019 27.9297 9.26757 27.9297 9.52148 27.9297 9.71191 28.1201 9.71191 28.374L9.71191 31.9922C9.71191 32.3096 9.52148 32.5 9.26757 32.5ZM12.0605 32.5C11.7432 32.5 11.5527 32.3096 11.5527 31.9922L11.5527 28.374C11.5527 28.1201 11.7432 27.9297 12.0605 27.9297 12.3144 27.9297 12.5049 28.1201 12.5049 28.374L12.5049 31.9922C12.5049 32.3096 12.3144 32.5 12.0605 32.5ZM14.8535 32.5C14.5996 32.5 14.3457 32.3096 14.3457 31.9922L14.3457 28.374C14.3457 28.1201 14.5996 27.9297 14.8535 27.9297 15.1074 27.9297 15.2978 28.1201 15.2978 28.374L15.2978 31.9922C15.2978 32.3096 15.1074 32.5 14.8535 32.5ZM17.6465 32.5C17.3926 32.5 17.1387 32.3096 17.1387 31.9922L17.1387 28.374C17.1387 28.1201 17.3926 27.9297 17.6465 27.9297 17.9004 27.9297 18.0908 28.1201 18.0908 28.374L18.0908 31.9922C18.0908 32.3096 17.9004 32.5 17.6465 32.5ZM20.4394 32.5C20.1855 32.5 19.9316 32.3096 19.9316 31.9922L19.9316 28.374C19.9316 28.1201 20.1855 27.9297 20.4394 27.9297 20.6933 27.9297 20.8838 28.1201 20.8838 28.374L20.8838 31.9922C20.8838 32.3096 20.6933 32.5 20.4394 32.5ZM23.2324 32.5C22.9785 32.5 22.7881 32.3096 22.7881 31.9922L22.7881 28.374C22.7881 28.1201 22.9785 27.9297 23.2324 27.9297 23.4863 27.9297 23.7402 28.1201 23.7402 28.374L23.7402 31.9922C23.6767 32.3096 23.4863 32.5 23.2324 32.5ZM26.0254 32.5C25.7715 32.5 25.5176 32.3096 25.5176 31.9922L25.5176 28.374C25.5176 28.1201 25.7715 27.9297 26.0254 27.9297 26.2793 27.9297 26.4697 28.1201 26.4697 28.374L26.4697 31.9922C26.4697 32.3096 26.2793 32.5 26.0254 32.5ZM32.0556 26.5332 28.374 26.5332C28.1201 26.5332 27.9297 26.2793 27.9297 26.0254 27.9297 25.7715 28.1201 25.581 28.374 25.581L32.0556 25.581C32.3096 25.581 32.5 25.7715 32.5 26.0254 32.5 26.2793 32.3096 26.5332 32.0556 26.5332ZM32.0556 23.7402 28.374 23.7402C28.1201 23.7402 27.9297 23.4863 27.9297 23.2324 27.9297 22.9785 28.1201 22.7881 28.374 22.7881L32.0556 22.7881C32.3096 22.7881 32.5 22.9785 32.5 23.2324 32.5 23.4863 32.3096 23.7402 32.0556 23.7402ZM32.0556 20.9473 28.374 20.9473C28.1201 20.9473 27.9297 20.6933 27.9297 20.4394 27.9297 20.1855 28.1201 19.9951 28.374 19.9951L32.0556 19.9951C32.3096 19.9951 32.5 20.1855 32.5 20.4394 32.5 20.6933 32.3096 20.9473 32.0556 20.9473ZM32.0556 18.1543 28.374 18.1543C28.1201 18.1543 27.9297 17.9004 27.9297 17.6465 27.9297 17.3926 28.1201 17.2021 28.374 17.2021L32.0556 17.2021C32.3096 17.2021 32.5 17.3926 32.5 17.6465 32.5 17.9004 32.3096 18.1543 32.0556 18.1543ZM32.0556 15.2978 28.374 15.2978C28.1201 15.2978 27.9297 15.1074 27.9297 14.8535 27.9297 14.5996 28.1201 14.3457 28.374 14.3457L32.0556 14.3457C32.3096 14.3457 32.5 14.5996 32.5 14.8535 32.5 15.1074 32.3096 15.2978 32.0556 15.2978ZM32.0556 12.5684 28.374 12.5684C28.1201 12.5684 27.9297 12.3144 27.9297 12.0605 27.9297 11.8066 28.1201 11.6162 28.374 11.6162L32.0556 11.6162C32.3096 11.6162 32.5 11.8066 32.5 12.0605 32.5 12.3144 32.3096 12.5684 32.0556 12.5684ZM32.0556 9.77539 28.374 9.77539C28.1201 9.77539 27.9297 9.52148 27.9297 9.26757 27.9297 9.01367 28.1201 8.82324 28.374 8.82324L32.0556 8.82324C32.3096 8.82324 32.5 9.01367 32.5 9.26757 32.5 9.52148 32.3096 9.77539 32.0556 9.77539ZM32.0556 6.98242 28.374 6.98242C28.1201 6.98242 27.9297 6.72851 27.9297 6.47461 27.9297 6.2207 28.1201 6.03027 28.374 6.03027L32.0556 6.03027C32.3096 6.03027 32.5 6.2207 32.5 6.47461 32.5 6.72851 32.3096 6.98242 32.0556 6.98242ZM4.0625 26.5332 0.444336 26.5332C0.19043 26.5332 0 26.2793 0 26.0254 0 25.7715 0.19043 25.581 0.444336 25.581L4.0625 25.581C4.37988 25.581 4.57031 25.7715 4.57031 26.0254 4.57031 26.2793 4.37988 26.5332 4.0625 26.5332ZM4.0625 23.7402 0.444336 23.7402C0.19043 23.7402 0 23.4863 0 23.2324 0 22.9785 0.19043 22.7881 0.444336 22.7881L4.0625 22.7881C4.37988 22.7881 4.57031 22.9785 4.57031 23.2324 4.57031 23.4863 4.37988 23.7402 4.0625 23.7402ZM4.0625 20.9473 0.444336 20.9473C0.19043 20.9473 0 20.6933 0 20.4394 0 20.1855 0.19043 19.9951 0.444336 19.9951L4.0625 19.9951C4.37988 19.9951 4.57031 20.1855 4.57031 20.4394 4.57031 20.6933 4.37988 20.9473 4.0625 20.9473ZM4.0625 18.1543 0.444336 18.1543C0.19043 18.1543 0 17.9004 0 17.6465 0 17.3926 0.19043 17.2021 0.444336 17.2021L4.0625 17.2021C4.37988 17.2021 4.57031 17.3926 4.57031 17.6465 4.57031 17.9004 4.37988 18.1543 4.0625 18.1543ZM4.0625 15.2978 0.444336 15.2978C0.19043 15.2978 0 15.1074 0 14.8535 0 14.5996 0.19043 14.3457 0.444336 14.3457L4.0625 14.3457C4.37988 14.3457 4.57031 14.5996 4.57031 14.8535 4.57031 15.1074 4.37988 15.2978 4.0625 15.2978ZM4.0625 12.5684 0.444336 12.5684C0.19043 12.5684 0 12.3144 0 12.0605 0 11.8066 0.19043 11.6162 0.444336 11.6162L4.0625 11.6162C4.37988 11.6162 4.57031 11.8066 4.57031 12.0605 4.57031 12.3144 4.37988 12.5684 4.0625 12.5684ZM4.0625 9.77539 0.444336 9.77539C0.19043 9.77539 0 9.52148 0 9.26757 0 9.01367 0.19043 8.82324 0.444336 8.82324L4.0625 8.82324C4.37988 8.82324 4.57031 9.01367 4.57031 9.26757 4.57031 9.52148 4.37988 9.77539 4.0625 9.77539ZM4.0625 6.98242 0.444336 6.98242C0.19043 6.98242 0 6.72851 0 6.47461 0 6.2207 0.19043 6.03027 0.444336 6.03027L4.0625 6.03027C4.37988 6.03027 4.57031 6.2207 4.57031 6.47461 4.57031 6.72851 4.37988 6.98242 4.0625 6.98242Z" fill="#BFBFBF" fill-rule="evenodd" fill-opacity="1" transform="matrix(1.00408 0 0 1 44.9326 44.6875)"/></g></g></g><g clip-path="url(#clip9)" transform="matrix(1 0 0 1 1.49012e-07 0)"><g clip-path="url(#clip10)" transform="matrix(1 0 0 1 1.49012e-07 0)"><g clip-path="url(#clip11)" transform="matrix(1 0 0 1 1.49012e-07 0)"><path d="M26.7236 28.8818 5.71289 28.8818C4.57031 28.8818 3.61816 27.9297 3.61816 26.7871L3.61816 5.77636C3.61816 4.63379 4.57031 3.68164 5.71289 3.68164L26.7236 3.68164C27.8662 3.68164 28.8183 4.63379 28.8183 5.77636L28.8183 26.7871C28.8818 27.9297 27.9297 28.8818 26.7236 28.8818ZM25.8984 26.4062 6.60156 26.4062C6.28418 26.4062 6.09375 26.1523 6.09375 25.8984L6.09375 6.60156C6.09375 6.34765 6.28418 6.09375 6.60156 6.09375L25.8984 6.09375C26.2158 6.09375 26.4062 6.34765 26.4062 6.60156L26.4062 25.9619C26.4062 26.2158 26.1523 26.4062 25.8984 26.4062ZM7.0459 25.4541 25.4541 25.4541 25.4541 7.0459 7.0459 7.0459 7.0459 25.4541ZM17.5195 24.248 14.9805 24.248C14.7266 24.248 14.5361 24.1211 14.5361 23.8672L14.2187 21.6455C14.0918 21.582 14.0283 21.582 13.9014 21.5185L12.0605 22.8516C11.9336 22.9785 11.6162 22.9785 11.4893 22.8516L9.71191 21.0107C9.52148 20.8838 9.52148 20.6299 9.64843 20.4394L10.9814 18.5986C10.918 18.4717 10.918 18.4082 10.8545 18.2812L8.63281 17.9639C8.3789 17.9639 8.25195 17.7734 8.25195 17.5195L8.25195 14.9805C8.25195 14.79 8.3789 14.5996 8.63281 14.5361L10.8545 14.2187C10.918 14.0918 10.9814 14.0283 10.9814 13.9014L9.64843 12.124C9.52148 11.9336 9.52148 11.6797 9.71191 11.4893L11.4893 9.71191C11.6162 9.52148 11.9336 9.52148 12.0605 9.64843L13.9014 10.9814C13.9648 10.918 14.0918 10.918 14.1553 10.8545L14.4726 8.63281C14.5361 8.3789 14.7266 8.25195 14.917 8.25195L17.456 8.25195C17.71 8.25195 17.9004 8.3789 17.9004 8.63281L18.2812 10.8545C18.3447 10.918 18.4717 10.918 18.5351 10.9814L20.376 9.64843C20.5664 9.52148 20.8203 9.52148 21.0107 9.71191L22.7881 11.4893C22.915 11.6797 22.9785 11.9336 22.8516 12.124L21.5185 13.9014C21.5185 14.0283 21.582 14.0918 21.6455 14.2187L23.8672 14.5361C24.1211 14.5361 24.248 14.79 24.248 14.9805L24.248 17.5195C24.248 17.7734 24.1211 17.9639 23.8672 17.9639L21.6455 18.2812C21.582 18.4082 21.5185 18.4717 21.5185 18.5986L22.8516 20.376C22.9785 20.5664 22.9785 20.8203 22.7881 20.9473L21.0107 22.7881C20.8203 22.915 20.5664 22.9785 20.376 22.8516L18.5351 21.4551C18.4717 21.5185 18.3447 21.582 18.2812 21.582L17.9639 23.8672C17.9004 24.1211 17.7734 24.248 17.5195 24.248ZM15.3613 23.3594 17.0752 23.3594 17.3926 21.2012C17.456 21.0107 17.583 20.8838 17.71 20.8203 17.9639 20.7568 18.2178 20.6299 18.4082 20.5664 18.5986 20.5029 18.7891 20.5029 18.916 20.6299L20.6299 21.8994 21.8359 20.6299 20.5664 18.916C20.4394 18.7891 20.4394 18.5986 20.5029 18.4082 20.6299 18.2178 20.6933 17.9639 20.8203 17.71 20.8838 17.583 21.0107 17.456 21.2012 17.456L23.2959 17.1387 23.2959 15.3613 21.2012 15.0439C21.0107 15.0439 20.8838 14.917 20.8203 14.79L20.7568 14.6631C20.6933 14.4726 20.5664 14.2187 20.5029 14.0283 20.4394 13.9014 20.4394 13.7109 20.5029 13.584L21.8359 11.8701 20.5664 10.6006 18.8525 11.9336C18.7256 11.9971 18.5351 12.0605 18.3447 11.9336 18.2178 11.8701 17.9639 11.7432 17.7734 11.6797L17.6465 11.6162C17.5195 11.5527 17.3926 11.4258 17.3926 11.2353L17.0752 9.14062 15.2978 9.14062 14.9805 11.2353C14.9805 11.4258 14.8535 11.5527 14.7266 11.6162 14.4726 11.7432 14.2187 11.8066 14.0283 11.9336 13.8379 11.9971 13.6475 11.9971 13.5205 11.8701L11.8066 10.6006 10.5371 11.8066 11.8066 13.5205C11.9336 13.6475 11.9336 13.8379 11.8701 14.0283 11.8066 14.2187 11.6797 14.4726 11.6162 14.7266 11.5527 14.8535 11.4258 14.9805 11.2353 15.0439L9.07714 15.3613 9.07714 17.0752 11.2353 17.3926C11.4258 17.3926 11.5527 17.5195 11.6162 17.71 11.6797 17.9639 11.7432 18.1543 11.8701 18.4082 11.9336 18.5986 11.9336 18.7891 11.8066 18.916L10.6006 20.6299 11.8701 21.8994 13.584 20.5664C13.7109 20.5029 13.9014 20.4394 14.0283 20.5029 14.2822 20.6299 14.5361 20.7568 14.7266 20.8203 14.917 20.8838 15.0439 21.0107 15.0439 21.2012L15.3613 23.3594ZM16.25 19.4238C14.4726 19.4238 13.0762 17.9639 13.0762 16.25 13.0762 14.5361 14.5361 13.0762 16.25 13.0762 17.9639 13.0762 19.3603 14.5361 19.3603 16.25 19.3603 17.9639 17.9639 19.4238 16.25 19.4238ZM16.25 14.0283C15.0439 14.0283 14.0283 15.0439 14.0283 16.25 14.0283 17.456 15.0439 18.4717 16.25 18.4717 17.456 18.4717 18.4717 17.456 18.4717 16.25 18.4717 15.0439 17.456 14.0283 16.25 14.0283Z" fill="#F2F2F2" fill-rule="evenodd" fill-opacity="1" transform="matrix(1.01181 0 0 1 45.1836 44.6875)"/><path d="M6.47461 4.57031C6.2207 4.57031 5.96679 4.37988 5.96679 4.12597L5.96679 0.507812C5.96679 0.19043 6.2207 0 6.47461 0 6.72851 0 6.91894 0.19043 6.91894 0.507812L6.91894 4.12597C6.91894 4.37988 6.72851 4.57031 6.47461 4.57031ZM9.26757 4.57031C8.95019 4.57031 8.75976 4.37988 8.75976 4.12597L8.75976 0.507812C8.75976 0.19043 8.95019 0 9.26757 0 9.52148 0 9.71191 0.19043 9.71191 0.507812L9.71191 4.12597C9.71191 4.37988 9.52148 4.57031 9.26757 4.57031ZM12.0605 4.57031C11.7432 4.57031 11.5527 4.37988 11.5527 4.12597L11.5527 0.507812C11.5527 0.19043 11.7432 0 12.0605 0 12.3144 0 12.5049 0.19043 12.5049 0.507812L12.5049 4.12597C12.5049 4.37988 12.3144 4.57031 12.0605 4.57031ZM14.8535 4.57031C14.5996 4.57031 14.3457 4.37988 14.3457 4.12597L14.3457 0.507812C14.3457 0.19043 14.5996 0 14.8535 0 15.1074 0 15.2978 0.19043 15.2978 0.507812L15.2978 4.12597C15.2978 4.37988 15.1074 4.57031 14.8535 4.57031ZM17.6465 4.57031C17.3926 4.57031 17.1387 4.37988 17.1387 4.12597L17.1387 0.507812C17.1387 0.19043 17.3926 0 17.6465 0 17.9004 0 18.0908 0.19043 18.0908 0.507812L18.0908 4.12597C18.0908 4.37988 17.9004 4.57031 17.6465 4.57031ZM20.4394 4.57031C20.1855 4.57031 19.9316 4.37988 19.9316 4.12597L19.9316 0.507812C19.9316 0.19043 20.1855 0 20.4394 0 20.6933 0 20.8838 0.19043 20.8838 0.507812L20.8838 4.12597C20.8838 4.37988 20.6933 4.57031 20.4394 4.57031ZM23.2324 4.57031C22.9785 4.57031 22.7881 4.37988 22.7881 4.12597L22.7881 0.507812C22.7881 0.19043 22.9785 0 23.2324 0 23.4863 0 23.7402 0.19043 23.7402 0.507812L23.7402 4.12597C23.6767 4.37988 23.4863 4.57031 23.2324 4.57031ZM26.0254 4.57031C25.7715 4.57031 25.5176 4.37988 25.5176 4.12597L25.5176 0.507812C25.5176 0.19043 25.7715 0 26.0254 0 26.2793 0 26.4697 0.19043 26.4697 0.507812L26.4697 4.12597C26.4697 4.37988 26.2793 4.57031 26.0254 4.57031ZM6.47461 32.5C6.2207 32.5 5.96679 32.3096 5.96679 31.9922L5.96679 28.374C5.96679 28.1201 6.2207 27.9297 6.47461 27.9297 6.72851 27.9297 6.91894 28.1201 6.91894 28.374L6.91894 31.9922C6.91894 32.3096 6.72851 32.5 6.47461 32.5ZM9.26757 32.5C8.95019 32.5 8.75976 32.3096 8.75976 31.9922L8.75976 28.374C8.75976 28.1201 8.95019 27.9297 9.26757 27.9297 9.52148 27.9297 9.71191 28.1201 9.71191 28.374L9.71191 31.9922C9.71191 32.3096 9.52148 32.5 9.26757 32.5ZM12.0605 32.5C11.7432 32.5 11.5527 32.3096 11.5527 31.9922L11.5527 28.374C11.5527 28.1201 11.7432 27.9297 12.0605 27.9297 12.3144 27.9297 12.5049 28.1201 12.5049 28.374L12.5049 31.9922C12.5049 32.3096 12.3144 32.5 12.0605 32.5ZM14.8535 32.5C14.5996 32.5 14.3457 32.3096 14.3457 31.9922L14.3457 28.374C14.3457 28.1201 14.5996 27.9297 14.8535 27.9297 15.1074 27.9297 15.2978 28.1201 15.2978 28.374L15.2978 31.9922C15.2978 32.3096 15.1074 32.5 14.8535 32.5ZM17.6465 32.5C17.3926 32.5 17.1387 32.3096 17.1387 31.9922L17.1387 28.374C17.1387 28.1201 17.3926 27.9297 17.6465 27.9297 17.9004 27.9297 18.0908 28.1201 18.0908 28.374L18.0908 31.9922C18.0908 32.3096 17.9004 32.5 17.6465 32.5ZM20.4394 32.5C20.1855 32.5 19.9316 32.3096 19.9316 31.9922L19.9316 28.374C19.9316 28.1201 20.1855 27.9297 20.4394 27.9297 20.6933 27.9297 20.8838 28.1201 20.8838 28.374L20.8838 31.9922C20.8838 32.3096 20.6933 32.5 20.4394 32.5ZM23.2324 32.5C22.9785 32.5 22.7881 32.3096 22.7881 31.9922L22.7881 28.374C22.7881 28.1201 22.9785 27.9297 23.2324 27.9297 23.4863 27.9297 23.7402 28.1201 23.7402 28.374L23.7402 31.9922C23.6767 32.3096 23.4863 32.5 23.2324 32.5ZM26.0254 32.5C25.7715 32.5 25.5176 32.3096 25.5176 31.9922L25.5176 28.374C25.5176 28.1201 25.7715 27.9297 26.0254 27.9297 26.2793 27.9297 26.4697 28.1201 26.4697 28.374L26.4697 31.9922C26.4697 32.3096 26.2793 32.5 26.0254 32.5ZM32.0556 26.5332 28.374 26.5332C28.1201 26.5332 27.9297 26.2793 27.9297 26.0254 27.9297 25.7715 28.1201 25.581 28.374 25.581L32.0556 25.581C32.3096 25.581 32.5 25.7715 32.5 26.0254 32.5 26.2793 32.3096 26.5332 32.0556 26.5332ZM32.0556 23.7402 28.374 23.7402C28.1201 23.7402 27.9297 23.4863 27.9297 23.2324 27.9297 22.9785 28.1201 22.7881 28.374 22.7881L32.0556 22.7881C32.3096 22.7881 32.5 22.9785 32.5 23.2324 32.5 23.4863 32.3096 23.7402 32.0556 23.7402ZM32.0556 20.9473 28.374 20.9473C28.1201 20.9473 27.9297 20.6933 27.9297 20.4394 27.9297 20.1855 28.1201 19.9951 28.374 19.9951L32.0556 19.9951C32.3096 19.9951 32.5 20.1855 32.5 20.4394 32.5 20.6933 32.3096 20.9473 32.0556 20.9473ZM32.0556 18.1543 28.374 18.1543C28.1201 18.1543 27.9297 17.9004 27.9297 17.6465 27.9297 17.3926 28.1201 17.2021 28.374 17.2021L32.0556 17.2021C32.3096 17.2021 32.5 17.3926 32.5 17.6465 32.5 17.9004 32.3096 18.1543 32.0556 18.1543ZM32.0556 15.2978 28.374 15.2978C28.1201 15.2978 27.9297 15.1074 27.9297 14.8535 27.9297 14.5996 28.1201 14.3457 28.374 14.3457L32.0556 14.3457C32.3096 14.3457 32.5 14.5996 32.5 14.8535 32.5 15.1074 32.3096 15.2978 32.0556 15.2978ZM32.0556 12.5684 28.374 12.5684C28.1201 12.5684 27.9297 12.3144 27.9297 12.0605 27.9297 11.8066 28.1201 11.6162 28.374 11.6162L32.0556 11.6162C32.3096 11.6162 32.5 11.8066 32.5 12.0605 32.5 12.3144 32.3096 12.5684 32.0556 12.5684ZM32.0556 9.77539 28.374 9.77539C28.1201 9.77539 27.9297 9.52148 27.9297 9.26757 27.9297 9.01367 28.1201 8.82324 28.374 8.82324L32.0556 8.82324C32.3096 8.82324 32.5 9.01367 32.5 9.26757 32.5 9.52148 32.3096 9.77539 32.0556 9.77539ZM32.0556 6.98242 28.374 6.98242C28.1201 6.98242 27.9297 6.72851 27.9297 6.47461 27.9297 6.2207 28.1201 6.03027 28.374 6.03027L32.0556 6.03027C32.3096 6.03027 32.5 6.2207 32.5 6.47461 32.5 6.72851 32.3096 6.98242 32.0556 6.98242ZM4.0625 26.5332 0.444336 26.5332C0.19043 26.5332 0 26.2793 0 26.0254 0 25.7715 0.19043 25.581 0.444336 25.581L4.0625 25.581C4.37988 25.581 4.57031 25.7715 4.57031 26.0254 4.57031 26.2793 4.37988 26.5332 4.0625 26.5332ZM4.0625 23.7402 0.444336 23.7402C0.19043 23.7402 0 23.4863 0 23.2324 0 22.9785 0.19043 22.7881 0.444336 22.7881L4.0625 22.7881C4.37988 22.7881 4.57031 22.9785 4.57031 23.2324 4.57031 23.4863 4.37988 23.7402 4.0625 23.7402ZM4.0625 20.9473 0.444336 20.9473C0.19043 20.9473 0 20.6933 0 20.4394 0 20.1855 0.19043 19.9951 0.444336 19.9951L4.0625 19.9951C4.37988 19.9951 4.57031 20.1855 4.57031 20.4394 4.57031 20.6933 4.37988 20.9473 4.0625 20.9473ZM4.0625 18.1543 0.444336 18.1543C0.19043 18.1543 0 17.9004 0 17.6465 0 17.3926 0.19043 17.2021 0.444336 17.2021L4.0625 17.2021C4.37988 17.2021 4.57031 17.3926 4.57031 17.6465 4.57031 17.9004 4.37988 18.1543 4.0625 18.1543ZM4.0625 15.2978 0.444336 15.2978C0.19043 15.2978 0 15.1074 0 14.8535 0 14.5996 0.19043 14.3457 0.444336 14.3457L4.0625 14.3457C4.37988 14.3457 4.57031 14.5996 4.57031 14.8535 4.57031 15.1074 4.37988 15.2978 4.0625 15.2978ZM4.0625 12.5684 0.444336 12.5684C0.19043 12.5684 0 12.3144 0 12.0605 0 11.8066 0.19043 11.6162 0.444336 11.6162L4.0625 11.6162C4.37988 11.6162 4.57031 11.8066 4.57031 12.0605 4.57031 12.3144 4.37988 12.5684 4.0625 12.5684ZM4.0625 9.77539 0.444336 9.77539C0.19043 9.77539 0 9.52148 0 9.26757 0 9.01367 0.19043 8.82324 0.444336 8.82324L4.0625 8.82324C4.37988 8.82324 4.57031 9.01367 4.57031 9.26757 4.57031 9.52148 4.37988 9.77539 4.0625 9.77539ZM4.0625 6.98242 0.444336 6.98242C0.19043 6.98242 0 6.72851 0 6.47461 0 6.2207 0.19043 6.03027 0.444336 6.03027L4.0625 6.03027C4.37988 6.03027 4.57031 6.2207 4.57031 6.47461 4.57031 6.72851 4.37988 6.98242 4.0625 6.98242Z" fill="#F2F2F2" fill-rule="evenodd" fill-opacity="1" transform="matrix(1.01181 0 0 1 45.1836 44.6875)"/></g></g></g></g></g><g clip-path="url(#clip12)" filter="url(#fx1)" transform="translate(218 398)"><g clip-path="url(#clip13)"><g clip-path="url(#clip14)"><g clip-path="url(#clip15)"><g clip-path="url(#clip16)"><path d="M126.895 135.277 42.8515 135.277C38.2812 135.277 34.4725 131.469 34.4725 126.898L34.4725 42.8554C34.4725 38.2851 38.2812 34.4765 42.8515 34.4765L126.895 34.4765C131.465 34.4765 135.274 38.2851 135.274 42.8554L135.274 126.898C135.527 131.469 131.719 135.277 126.895 135.277ZM123.594 125.375 46.4062 125.375C45.1366 125.375 44.3749 124.359 44.3749 123.344L44.3749 46.1561C44.3749 45.1405 45.1366 44.1249 46.4062 44.1249L123.594 44.1249C124.863 44.1249 125.625 45.1405 125.625 46.1561L125.625 123.598C125.625 124.613 124.609 125.375 123.594 125.375ZM48.1835 121.566 121.816 121.566 121.816 47.9335 48.1835 47.9335 48.1835 121.566ZM90.0781 116.742 79.9219 116.742C78.9062 116.742 78.1445 116.234 78.1445 115.219L76.875 106.332C76.3672 106.078 76.1133 106.078 75.6055 105.824L68.2422 111.156C67.7343 111.664 66.4648 111.664 65.957 111.156L58.8476 103.793C58.0859 103.285 58.0859 102.269 58.5937 101.508L63.9257 94.1444C63.6718 93.6366 63.6718 93.3827 63.4179 92.8749L54.5312 91.6053C53.5156 91.6053 53.0077 90.8436 53.0077 89.828L53.0077 79.6718C53.0077 78.91 53.5156 78.1483 54.5312 77.8944L63.4179 76.6249C63.6718 76.1171 63.9257 75.8632 63.9257 75.3554L58.5937 68.246C58.0859 67.4843 58.0859 66.4686 58.8476 65.7069L65.957 58.5975C66.4648 57.8358 67.7343 57.8358 68.2422 58.3436L75.6055 63.6757C75.8594 63.4218 76.3672 63.4218 76.6211 63.1679L77.8906 54.2811C78.1445 53.2655 78.9062 52.7577 79.668 52.7577L89.8242 52.7577C90.8399 52.7577 91.6016 53.2655 91.6016 54.2811L93.125 63.1679C93.3789 63.4218 93.8867 63.4218 94.1407 63.6757L101.504 58.3436C102.266 57.8358 103.281 57.8358 104.043 58.5975L111.152 65.7069C111.66 66.4686 111.914 67.4843 111.406 68.246L106.074 75.3554C106.074 75.8632 106.328 76.1171 106.582 76.6249L115.469 77.8944C116.484 77.8944 116.992 78.91 116.992 79.6718L116.992 89.828C116.992 90.8436 116.484 91.6053 115.469 91.6053L106.582 92.8749C106.328 93.3827 106.074 93.6366 106.074 94.1444L111.406 101.254C111.914 102.015 111.914 103.031 111.152 103.539L104.043 110.902C103.281 111.41 102.266 111.664 101.504 111.156L94.1407 105.57C93.8867 105.824 93.3789 106.078 93.125 106.078L91.8555 115.219C91.6016 116.234 91.0938 116.742 90.0781 116.742ZM81.4453 113.187 88.3008 113.187 89.5703 104.555C89.8242 103.793 90.3321 103.285 90.8399 103.031 91.8555 102.777 92.8711 102.269 93.6328 102.015 94.3946 101.762 95.1563 101.762 95.6641 102.269L102.52 107.348 107.344 102.269 102.266 95.4139C101.758 94.9061 101.758 94.1444 102.012 93.3827 102.52 92.621 102.773 91.6053 103.281 90.5897 103.535 90.0819 104.043 89.5741 104.805 89.5741L113.184 88.3046 113.184 81.1952 104.805 79.9257C104.043 79.9257 103.535 79.4178 103.281 78.91L103.027 78.4022C102.773 77.6405 102.266 76.6249 102.012 75.8632 101.758 75.3554 101.758 74.5936 102.012 74.0858L107.344 67.2304 102.266 62.1522 95.4102 67.4843C94.9024 67.7382 94.1407 67.9921 93.3789 67.4843 92.8711 67.2304 91.8555 66.7225 91.0938 66.4686L90.586 66.2147C90.0781 65.9608 89.5703 65.453 89.5703 64.6913L88.3008 56.3124 81.1914 56.3124 79.9219 64.6913C79.9219 65.453 79.4141 65.9608 78.9062 66.2147 77.8906 66.7225 76.875 66.9764 76.1133 67.4843 75.3515 67.7382 74.5898 67.7382 74.082 67.2304L67.2265 62.1522 62.1484 66.9764 67.2265 73.8319C67.7343 74.3397 67.7343 75.1014 67.4804 75.8632 67.2265 76.6249 66.7187 77.6405 66.4648 78.6561 66.2109 79.1639 65.7031 79.6718 64.9414 79.9257L56.3085 81.1952 56.3085 88.0507 64.9414 89.3202C65.7031 89.3202 66.2109 89.828 66.4648 90.5897 66.7187 91.6053 66.9726 92.3671 67.4804 93.3827 67.7343 94.1444 67.7343 94.9061 67.2265 95.4139L62.4023 102.269 67.4804 107.348 74.3359 102.015C74.8437 101.762 75.6055 101.508 76.1133 101.762 77.1289 102.269 78.1445 102.777 78.9062 103.031 79.668 103.285 80.1758 103.793 80.1758 104.555L81.4453 113.187ZM85 97.4452C77.8906 97.4452 72.3047 91.6053 72.3047 84.7499 72.3047 77.8944 78.1445 72.0546 85 72.0546 91.8555 72.0546 97.4414 77.8944 97.4414 84.7499 97.4414 91.6053 91.8555 97.4452 85 97.4452ZM85 75.8632C80.1758 75.8632 76.1133 79.9257 76.1133 84.7499 76.1133 89.5741 80.1758 93.6366 85 93.6366 89.8242 93.6366 93.8867 89.5741 93.8867 84.7499 93.8867 79.9257 89.8242 75.8632 85 75.8632Z" fill="#BFBFBF" fill-rule="evenodd" fill-opacity="1"/><path d="M45.8984 38.0312C44.8827 38.0312 43.8671 37.2694 43.8671 36.2538L43.8671 21.7812C43.8671 20.5116 44.8827 19.7499 45.8984 19.7499 46.914 19.7499 47.6757 20.5116 47.6757 21.7812L47.6757 36.2538C47.6757 37.2694 46.914 38.0312 45.8984 38.0312ZM57.0703 38.0312C55.8007 38.0312 55.039 37.2694 55.039 36.2538L55.039 21.7812C55.039 20.5116 55.8007 19.7499 57.0703 19.7499 58.0859 19.7499 58.8476 20.5116 58.8476 21.7812L58.8476 36.2538C58.8476 37.2694 58.0859 38.0312 57.0703 38.0312ZM68.2422 38.0312C66.9726 38.0312 66.2109 37.2694 66.2109 36.2538L66.2109 21.7812C66.2109 20.5116 66.9726 19.7499 68.2422 19.7499 69.2578 19.7499 70.0195 20.5116 70.0195 21.7812L70.0195 36.2538C70.0195 37.2694 69.2578 38.0312 68.2422 38.0312ZM79.4141 38.0312C78.3984 38.0312 77.3828 37.2694 77.3828 36.2538L77.3828 21.7812C77.3828 20.5116 78.3984 19.7499 79.4141 19.7499 80.4297 19.7499 81.1914 20.5116 81.1914 21.7812L81.1914 36.2538C81.1914 37.2694 80.4297 38.0312 79.4141 38.0312ZM90.586 38.0312C89.5703 38.0312 88.5547 37.2694 88.5547 36.2538L88.5547 21.7812C88.5547 20.5116 89.5703 19.7499 90.586 19.7499 91.6016 19.7499 92.3633 20.5116 92.3633 21.7812L92.3633 36.2538C92.3633 37.2694 91.6016 38.0312 90.586 38.0312ZM101.758 38.0312C100.742 38.0312 99.7266 37.2694 99.7266 36.2538L99.7266 21.7812C99.7266 20.5116 100.742 19.7499 101.758 19.7499 102.773 19.7499 103.535 20.5116 103.535 21.7812L103.535 36.2538C103.535 37.2694 102.773 38.0312 101.758 38.0312ZM112.93 38.0312C111.914 38.0312 111.152 37.2694 111.152 36.2538L111.152 21.7812C111.152 20.5116 111.914 19.7499 112.93 19.7499 113.945 19.7499 114.961 20.5116 114.961 21.7812L114.961 36.2538C114.707 37.2694 113.945 38.0312 112.93 38.0312ZM124.102 38.0312C123.086 38.0312 122.07 37.2694 122.07 36.2538L122.07 21.7812C122.07 20.5116 123.086 19.7499 124.102 19.7499 125.117 19.7499 125.879 20.5116 125.879 21.7812L125.879 36.2538C125.879 37.2694 125.117 38.0312 124.102 38.0312ZM45.8984 149.75C44.8827 149.75 43.8671 148.988 43.8671 147.719L43.8671 133.246C43.8671 132.23 44.8827 131.469 45.8984 131.469 46.914 131.469 47.6757 132.23 47.6757 133.246L47.6757 147.719C47.6757 148.988 46.914 149.75 45.8984 149.75ZM57.0703 149.75C55.8007 149.75 55.039 148.988 55.039 147.719L55.039 133.246C55.039 132.23 55.8007 131.469 57.0703 131.469 58.0859 131.469 58.8476 132.23 58.8476 133.246L58.8476 147.719C58.8476 148.988 58.0859 149.75 57.0703 149.75ZM68.2422 149.75C66.9726 149.75 66.2109 148.988 66.2109 147.719L66.2109 133.246C66.2109 132.23 66.9726 131.469 68.2422 131.469 69.2578 131.469 70.0195 132.23 70.0195 133.246L70.0195 147.719C70.0195 148.988 69.2578 149.75 68.2422 149.75ZM79.4141 149.75C78.3984 149.75 77.3828 148.988 77.3828 147.719L77.3828 133.246C77.3828 132.23 78.3984 131.469 79.4141 131.469 80.4297 131.469 81.1914 132.23 81.1914 133.246L81.1914 147.719C81.1914 148.988 80.4297 149.75 79.4141 149.75ZM90.586 149.75C89.5703 149.75 88.5547 148.988 88.5547 147.719L88.5547 133.246C88.5547 132.23 89.5703 131.469 90.586 131.469 91.6016 131.469 92.3633 132.23 92.3633 133.246L92.3633 147.719C92.3633 148.988 91.6016 149.75 90.586 149.75ZM101.758 149.75C100.742 149.75 99.7266 148.988 99.7266 147.719L99.7266 133.246C99.7266 132.23 100.742 131.469 101.758 131.469 102.773 131.469 103.535 132.23 103.535 133.246L103.535 147.719C103.535 148.988 102.773 149.75 101.758 149.75ZM112.93 149.75C111.914 149.75 111.152 148.988 111.152 147.719L111.152 133.246C111.152 132.23 111.914 131.469 112.93 131.469 113.945 131.469 114.961 132.23 114.961 133.246L114.961 147.719C114.707 148.988 113.945 149.75 112.93 149.75ZM124.102 149.75C123.086 149.75 122.07 148.988 122.07 147.719L122.07 133.246C122.07 132.23 123.086 131.469 124.102 131.469 125.117 131.469 125.879 132.23 125.879 133.246L125.879 147.719C125.879 148.988 125.117 149.75 124.102 149.75ZM148.223 125.883 133.496 125.883C132.481 125.883 131.719 124.867 131.719 123.851 131.719 122.836 132.481 122.074 133.496 122.074L148.223 122.074C149.238 122.074 150 122.836 150 123.851 150 124.867 149.238 125.883 148.223 125.883ZM148.223 114.711 133.496 114.711C132.481 114.711 131.719 113.695 131.719 112.68 131.719 111.664 132.481 110.902 133.496 110.902L148.223 110.902C149.238 110.902 150 111.664 150 112.68 150 113.695 149.238 114.711 148.223 114.711ZM148.223 103.539 133.496 103.539C132.481 103.539 131.719 102.523 131.719 101.508 131.719 100.492 132.481 99.7303 133.496 99.7303L148.223 99.7303C149.238 99.7303 150 100.492 150 101.508 150 102.523 149.238 103.539 148.223 103.539ZM148.223 92.3671 133.496 92.3671C132.481 92.3671 131.719 91.3514 131.719 90.3358 131.719 89.3202 132.481 88.5585 133.496 88.5585L148.223 88.5585C149.238 88.5585 150 89.3202 150 90.3358 150 91.3514 149.238 92.3671 148.223 92.3671ZM148.223 80.9413 133.496 80.9413C132.481 80.9413 131.719 80.1796 131.719 79.1639 131.719 78.1483 132.481 77.1327 133.496 77.1327L148.223 77.1327C149.238 77.1327 150 78.1483 150 79.1639 150 80.1796 149.238 80.9413 148.223 80.9413ZM148.223 70.0233 133.496 70.0233C132.481 70.0233 131.719 69.0077 131.719 67.9921 131.719 66.9764 132.481 66.2147 133.496 66.2147L148.223 66.2147C149.238 66.2147 150 66.9764 150 67.9921 150 69.0077 149.238 70.0233 148.223 70.0233ZM148.223 58.8515 133.496 58.8515C132.481 58.8515 131.719 57.8358 131.719 56.8202 131.719 55.8046 132.481 55.0429 133.496 55.0429L148.223 55.0429C149.238 55.0429 150 55.8046 150 56.8202 150 57.8358 149.238 58.8515 148.223 58.8515ZM148.223 47.6796 133.496 47.6796C132.481 47.6796 131.719 46.664 131.719 45.6483 131.719 44.6327 132.481 43.871 133.496 43.871L148.223 43.871C149.238 43.871 150 44.6327 150 45.6483 150 46.664 149.238 47.6796 148.223 47.6796ZM36.2499 125.883 21.7772 125.883C20.7616 125.883 19.9999 124.867 19.9999 123.851 19.9999 122.836 20.7616 122.074 21.7772 122.074L36.2499 122.074C37.5194 122.074 38.2812 122.836 38.2812 123.851 38.2812 124.867 37.5194 125.883 36.2499 125.883ZM36.2499 114.711 21.7772 114.711C20.7616 114.711 19.9999 113.695 19.9999 112.68 19.9999 111.664 20.7616 110.902 21.7772 110.902L36.2499 110.902C37.5194 110.902 38.2812 111.664 38.2812 112.68 38.2812 113.695 37.5194 114.711 36.2499 114.711ZM36.2499 103.539 21.7772 103.539C20.7616 103.539 19.9999 102.523 19.9999 101.508 19.9999 100.492 20.7616 99.7303 21.7772 99.7303L36.2499 99.7303C37.5194 99.7303 38.2812 100.492 38.2812 101.508 38.2812 102.523 37.5194 103.539 36.2499 103.539ZM36.2499 92.3671 21.7772 92.3671C20.7616 92.3671 19.9999 91.3514 19.9999 90.3358 19.9999 89.3202 20.7616 88.5585 21.7772 88.5585L36.2499 88.5585C37.5194 88.5585 38.2812 89.3202 38.2812 90.3358 38.2812 91.3514 37.5194 92.3671 36.2499 92.3671ZM36.2499 80.9413 21.7772 80.9413C20.7616 80.9413 19.9999 80.1796 19.9999 79.1639 19.9999 78.1483 20.7616 77.1327 21.7772 77.1327L36.2499 77.1327C37.5194 77.1327 38.2812 78.1483 38.2812 79.1639 38.2812 80.1796 37.5194 80.9413 36.2499 80.9413ZM36.2499 70.0233 21.7772 70.0233C20.7616 70.0233 19.9999 69.0077 19.9999 67.9921 19.9999 66.9764 20.7616 66.2147 21.7772 66.2147L36.2499 66.2147C37.5194 66.2147 38.2812 66.9764 38.2812 67.9921 38.2812 69.0077 37.5194 70.0233 36.2499 70.0233ZM36.2499 58.8515 21.7772 58.8515C20.7616 58.8515 19.9999 57.8358 19.9999 56.8202 19.9999 55.8046 20.7616 55.0429 21.7772 55.0429L36.2499 55.0429C37.5194 55.0429 38.2812 55.8046 38.2812 56.8202 38.2812 57.8358 37.5194 58.8515 36.2499 58.8515ZM36.2499 47.6796 21.7772 47.6796C20.7616 47.6796 19.9999 46.664 19.9999 45.6483 19.9999 44.6327 20.7616 43.871 21.7772 43.871L36.2499 43.871C37.5194 43.871 38.2812 44.6327 38.2812 45.6483 38.2812 46.664 37.5194 47.6796 36.2499 47.6796Z" fill="#BFBFBF" fill-rule="evenodd" fill-opacity="1"/></g></g></g></g></g><g clip-path="url(#clip17)"><g clip-path="url(#clip18)"><g clip-path="url(#clip19)"><path d="M344.895 519.527 260.851 519.527C256.281 519.527 252.473 515.719 252.473 511.148L252.473 427.105C252.473 422.535 256.281 418.726 260.851 418.726L344.895 418.726C349.465 418.726 353.274 422.535 353.274 427.105L353.274 511.148C353.527 515.719 349.719 519.527 344.895 519.527ZM341.594 509.625 264.406 509.625C263.137 509.625 262.375 508.609 262.375 507.594L262.375 430.406C262.375 429.391 263.137 428.375 264.406 428.375L341.594 428.375C342.863 428.375 343.625 429.391 343.625 430.406L343.625 507.848C343.625 508.863 342.609 509.625 341.594 509.625ZM266.184 505.816 339.816 505.816 339.816 432.184 266.184 432.184 266.184 505.816ZM308.078 500.992 297.922 500.992C296.906 500.992 296.145 500.484 296.145 499.469L294.875 490.582C294.367 490.328 294.113 490.328 293.605 490.074L286.242 495.406C285.734 495.914 284.465 495.914 283.957 495.406L276.848 488.043C276.086 487.535 276.086 486.519 276.594 485.758L281.926 478.394C281.672 477.887 281.672 477.633 281.418 477.125L272.531 475.855C271.516 475.855 271.008 475.094 271.008 474.078L271.008 463.922C271.008 463.16 271.516 462.398 272.531 462.144L281.418 460.875C281.672 460.367 281.926 460.113 281.926 459.605L276.594 452.496C276.086 451.734 276.086 450.719 276.848 449.957L283.957 442.848C284.465 442.086 285.734 442.086 286.242 442.594L293.605 447.926C293.859 447.672 294.367 447.672 294.621 447.418L295.891 438.531C296.145 437.516 296.906 437.008 297.668 437.008L307.824 437.008C308.84 437.008 309.602 437.516 309.602 438.531L311.125 447.418C311.379 447.672 311.887 447.672 312.141 447.926L319.504 442.594C320.266 442.086 321.281 442.086 322.043 442.848L329.152 449.957C329.66 450.719 329.914 451.734 329.406 452.496L324.074 459.605C324.074 460.113 324.328 460.367 324.582 460.875L333.469 462.144C334.484 462.144 334.992 463.16 334.992 463.922L334.992 474.078C334.992 475.094 334.484 475.855 333.469 475.855L324.582 477.125C324.328 477.633 324.074 477.887 324.074 478.394L329.406 485.504C329.914 486.266 329.914 487.281 329.152 487.789L322.043 495.152C321.281 495.66 320.266 495.914 319.504 495.406L312.141 489.82C311.887 490.074 311.379 490.328 311.125 490.328L309.855 499.469C309.602 500.484 309.094 500.992 308.078 500.992ZM299.445 497.437 306.301 497.437 307.57 488.805C307.824 488.043 308.332 487.535 308.84 487.281 309.855 487.027 310.871 486.519 311.633 486.266 312.395 486.012 313.156 486.012 313.664 486.519L320.52 491.598 325.344 486.519 320.266 479.664C319.758 479.156 319.758 478.394 320.012 477.633 320.52 476.871 320.773 475.855 321.281 474.84 321.535 474.332 322.043 473.824 322.805 473.824L331.184 472.555 331.184 465.445 322.805 464.176C322.043 464.176 321.535 463.668 321.281 463.16L321.027 462.652C320.773 461.891 320.266 460.875 320.012 460.113 319.758 459.605 319.758 458.844 320.012 458.336L325.344 451.48 320.266 446.402 313.41 451.734C312.902 451.988 312.141 452.242 311.379 451.734 310.871 451.48 309.855 450.973 309.094 450.719L308.586 450.465C308.078 450.211 307.57 449.703 307.57 448.941L306.301 440.562 299.191 440.562 297.922 448.941C297.922 449.703 297.414 450.211 296.906 450.465 295.891 450.973 294.875 451.226 294.113 451.734 293.352 451.988 292.59 451.988 292.082 451.48L285.227 446.402 280.148 451.226 285.227 458.082C285.734 458.59 285.734 459.351 285.48 460.113 285.227 460.875 284.719 461.891 284.465 462.906 284.211 463.414 283.703 463.922 282.941 464.176L274.309 465.445 274.309 472.301 282.941 473.57C283.703 473.57 284.211 474.078 284.465 474.84 284.719 475.855 284.973 476.617 285.48 477.633 285.734 478.394 285.734 479.156 285.227 479.664L280.402 486.519 285.48 491.598 292.336 486.266C292.844 486.012 293.605 485.758 294.113 486.012 295.129 486.519 296.145 487.027 296.906 487.281 297.668 487.535 298.176 488.043 298.176 488.805L299.445 497.437ZM303 481.695C295.891 481.695 290.305 475.855 290.305 469 290.305 462.144 296.145 456.305 303 456.305 309.855 456.305 315.441 462.144 315.441 469 315.441 475.855 309.855 481.695 303 481.695ZM303 460.113C298.176 460.113 294.113 464.176 294.113 469 294.113 473.824 298.176 477.887 303 477.887 307.824 477.887 311.887 473.824 311.887 469 311.887 464.176 307.824 460.113 303 460.113Z" fill="#BFBFBF" fill-rule="evenodd" fill-opacity="1"/><path d="M263.898 422.281C262.883 422.281 261.867 421.519 261.867 420.504L261.867 406.031C261.867 404.762 262.883 404 263.898 404 264.914 404 265.676 404.762 265.676 406.031L265.676 420.504C265.676 421.519 264.914 422.281 263.898 422.281ZM275.07 422.281C273.801 422.281 273.039 421.519 273.039 420.504L273.039 406.031C273.039 404.762 273.801 404 275.07 404 276.086 404 276.848 404.762 276.848 406.031L276.848 420.504C276.848 421.519 276.086 422.281 275.07 422.281ZM286.242 422.281C284.973 422.281 284.211 421.519 284.211 420.504L284.211 406.031C284.211 404.762 284.973 404 286.242 404 287.258 404 288.02 404.762 288.02 406.031L288.02 420.504C288.02 421.519 287.258 422.281 286.242 422.281ZM297.414 422.281C296.398 422.281 295.383 421.519 295.383 420.504L295.383 406.031C295.383 404.762 296.398 404 297.414 404 298.43 404 299.191 404.762 299.191 406.031L299.191 420.504C299.191 421.519 298.43 422.281 297.414 422.281ZM308.586 422.281C307.57 422.281 306.555 421.519 306.555 420.504L306.555 406.031C306.555 404.762 307.57 404 308.586 404 309.602 404 310.363 404.762 310.363 406.031L310.363 420.504C310.363 421.519 309.602 422.281 308.586 422.281ZM319.758 422.281C318.742 422.281 317.727 421.519 317.727 420.504L317.727 406.031C317.727 404.762 318.742 404 319.758 404 320.773 404 321.535 404.762 321.535 406.031L321.535 420.504C321.535 421.519 320.773 422.281 319.758 422.281ZM330.93 422.281C329.914 422.281 329.152 421.519 329.152 420.504L329.152 406.031C329.152 404.762 329.914 404 330.93 404 331.945 404 332.961 404.762 332.961 406.031L332.961 420.504C332.707 421.519 331.945 422.281 330.93 422.281ZM342.102 422.281C341.086 422.281 340.07 421.519 340.07 420.504L340.07 406.031C340.07 404.762 341.086 404 342.102 404 343.117 404 343.879 404.762 343.879 406.031L343.879 420.504C343.879 421.519 343.117 422.281 342.102 422.281ZM263.898 534C262.883 534 261.867 533.238 261.867 531.969L261.867 517.496C261.867 516.48 262.883 515.719 263.898 515.719 264.914 515.719 265.676 516.48 265.676 517.496L265.676 531.969C265.676 533.238 264.914 534 263.898 534ZM275.07 534C273.801 534 273.039 533.238 273.039 531.969L273.039 517.496C273.039 516.48 273.801 515.719 275.07 515.719 276.086 515.719 276.848 516.48 276.848 517.496L276.848 531.969C276.848 533.238 276.086 534 275.07 534ZM286.242 534C284.973 534 284.211 533.238 284.211 531.969L284.211 517.496C284.211 516.48 284.973 515.719 286.242 515.719 287.258 515.719 288.02 516.48 288.02 517.496L288.02 531.969C288.02 533.238 287.258 534 286.242 534ZM297.414 534C296.398 534 295.383 533.238 295.383 531.969L295.383 517.496C295.383 516.48 296.398 515.719 297.414 515.719 298.43 515.719 299.191 516.48 299.191 517.496L299.191 531.969C299.191 533.238 298.43 534 297.414 534ZM308.586 534C307.57 534 306.555 533.238 306.555 531.969L306.555 517.496C306.555 516.48 307.57 515.719 308.586 515.719 309.602 515.719 310.363 516.48 310.363 517.496L310.363 531.969C310.363 533.238 309.602 534 308.586 534ZM319.758 534C318.742 534 317.727 533.238 317.727 531.969L317.727 517.496C317.727 516.48 318.742 515.719 319.758 515.719 320.773 515.719 321.535 516.48 321.535 517.496L321.535 531.969C321.535 533.238 320.773 534 319.758 534ZM330.93 534C329.914 534 329.152 533.238 329.152 531.969L329.152 517.496C329.152 516.48 329.914 515.719 330.93 515.719 331.945 515.719 332.961 516.48 332.961 517.496L332.961 531.969C332.707 533.238 331.945 534 330.93 534ZM342.102 534C341.086 534 340.07 533.238 340.07 531.969L340.07 517.496C340.07 516.48 341.086 515.719 342.102 515.719 343.117 515.719 343.879 516.48 343.879 517.496L343.879 531.969C343.879 533.238 343.117 534 342.102 534ZM366.223 510.133 351.496 510.133C350.481 510.133 349.719 509.117 349.719 508.101 349.719 507.086 350.481 506.324 351.496 506.324L366.223 506.324C367.238 506.324 368 507.086 368 508.101 368 509.117 367.238 510.133 366.223 510.133ZM366.223 498.961 351.496 498.961C350.481 498.961 349.719 497.945 349.719 496.93 349.719 495.914 350.481 495.152 351.496 495.152L366.223 495.152C367.238 495.152 368 495.914 368 496.93 368 497.945 367.238 498.961 366.223 498.961ZM366.223 487.789 351.496 487.789C350.481 487.789 349.719 486.773 349.719 485.758 349.719 484.742 350.481 483.98 351.496 483.98L366.223 483.98C367.238 483.98 368 484.742 368 485.758 368 486.773 367.238 487.789 366.223 487.789ZM366.223 476.617 351.496 476.617C350.481 476.617 349.719 475.601 349.719 474.586 349.719 473.57 350.481 472.808 351.496 472.808L366.223 472.808C367.238 472.808 368 473.57 368 474.586 368 475.601 367.238 476.617 366.223 476.617ZM366.223 465.191 351.496 465.191C350.481 465.191 349.719 464.43 349.719 463.414 349.719 462.398 350.481 461.383 351.496 461.383L366.223 461.383C367.238 461.383 368 462.398 368 463.414 368 464.43 367.238 465.191 366.223 465.191ZM366.223 454.273 351.496 454.273C350.481 454.273 349.719 453.258 349.719 452.242 349.719 451.226 350.481 450.465 351.496 450.465L366.223 450.465C367.238 450.465 368 451.226 368 452.242 368 453.258 367.238 454.273 366.223 454.273ZM366.223 443.101 351.496 443.101C350.481 443.101 349.719 442.086 349.719 441.07 349.719 440.055 350.481 439.293 351.496 439.293L366.223 439.293C367.238 439.293 368 440.055 368 441.07 368 442.086 367.238 443.101 366.223 443.101ZM366.223 431.93 351.496 431.93C350.481 431.93 349.719 430.914 349.719 429.898 349.719 428.883 350.481 428.121 351.496 428.121L366.223 428.121C367.238 428.121 368 428.883 368 429.898 368 430.914 367.238 431.93 366.223 431.93ZM254.25 510.133 239.777 510.133C238.762 510.133 238 509.117 238 508.101 238 507.086 238.762 506.324 239.777 506.324L254.25 506.324C255.519 506.324 256.281 507.086 256.281 508.101 256.281 509.117 255.519 510.133 254.25 510.133ZM254.25 498.961 239.777 498.961C238.762 498.961 238 497.945 238 496.93 238 495.914 238.762 495.152 239.777 495.152L254.25 495.152C255.519 495.152 256.281 495.914 256.281 496.93 256.281 497.945 255.519 498.961 254.25 498.961ZM254.25 487.789 239.777 487.789C238.762 487.789 238 486.773 238 485.758 238 484.742 238.762 483.98 239.777 483.98L254.25 483.98C255.519 483.98 256.281 484.742 256.281 485.758 256.281 486.773 255.519 487.789 254.25 487.789ZM254.25 476.617 239.777 476.617C238.762 476.617 238 475.601 238 474.586 238 473.57 238.762 472.808 239.777 472.808L254.25 472.808C255.519 472.808 256.281 473.57 256.281 474.586 256.281 475.601 255.519 476.617 254.25 476.617ZM254.25 465.191 239.777 465.191C238.762 465.191 238 464.43 238 463.414 238 462.398 238.762 461.383 239.777 461.383L254.25 461.383C255.519 461.383 256.281 462.398 256.281 463.414 256.281 464.43 255.519 465.191 254.25 465.191ZM254.25 454.273 239.777 454.273C238.762 454.273 238 453.258 238 452.242 238 451.226 238.762 450.465 239.777 450.465L254.25 450.465C255.519 450.465 256.281 451.226 256.281 452.242 256.281 453.258 255.519 454.273 254.25 454.273ZM254.25 443.101 239.777 443.101C238.762 443.101 238 442.086 238 441.07 238 440.055 238.762 439.293 239.777 439.293L254.25 439.293C255.519 439.293 256.281 440.055 256.281 441.07 256.281 442.086 255.519 443.101 254.25 443.101ZM254.25 431.93 239.777 431.93C238.762 431.93 238 430.914 238 429.898 238 428.883 238.762 428.121 239.777 428.121L254.25 428.121C255.519 428.121 256.281 428.883 256.281 429.898 256.281 430.914 255.519 431.93 254.25 431.93Z" fill="#BFBFBF" fill-rule="evenodd" fill-opacity="1"/></g></g></g><g clip-path="url(#clip20)" filter="url(#fx2)" transform="matrix(4.5122 0 0 4.50407 27 206)"><g clip-path="url(#clip21)"><g clip-path="url(#clip22)" transform="matrix(1 0 0 1 -1.19209e-07 -1.60933e-06)"><g clip-path="url(#clip23)" transform="matrix(1 0 0 1 -1.19209e-07 -1.60933e-06)"><g clip-path="url(#clip24)" transform="matrix(1 0 0 1 -1.19209e-07 -1.60933e-06)"><path d="M23.7329 25.6496 5.07354 25.6496C4.05883 25.6496 3.21324 24.804 3.21324 23.7893L3.21324 5.12991C3.21324 4.1152 4.05883 3.26961 5.07354 3.26961L23.7329 3.26961C24.7476 3.26961 25.5932 4.1152 25.5932 5.12991L25.5932 23.7893C25.6496 24.804 24.804 25.6496 23.7329 25.6496ZM23 23.451 5.86276 23.451C5.58089 23.451 5.41178 23.2255 5.41178 23L5.41178 5.86276C5.41178 5.63727 5.58089 5.41178 5.86276 5.41178L23 5.41178C23.2819 5.41178 23.451 5.63727 23.451 5.86276L23.451 23.0564C23.451 23.2819 23.2255 23.451 23 23.451ZM6.25736 22.6054 22.6054 22.6054 22.6054 6.25736 6.25736 6.25736 6.25736 22.6054ZM15.5589 21.5344 13.3039 21.5344C13.0785 21.5344 12.9093 21.4216 12.9093 21.1961L12.6275 19.2231C12.5147 19.1667 12.4584 19.1667 12.3456 19.1103L10.7108 20.2942C10.5981 20.4069 10.3162 20.4069 10.2035 20.2942L8.62502 18.6593C8.4559 18.5466 8.4559 18.3211 8.56864 18.152L9.75247 16.5172C9.6961 16.4044 9.6961 16.3481 9.63972 16.2353L7.66668 15.9535C7.44119 15.9535 7.32845 15.7843 7.32845 15.5589L7.32845 13.3039C7.32845 13.1348 7.44119 12.9657 7.66668 12.9093L9.63972 12.6275C9.6961 12.5147 9.75247 12.4584 9.75247 12.3456L8.56864 10.7672C8.4559 10.5981 8.4559 10.3726 8.62502 10.2035L10.2035 8.62502C10.3162 8.4559 10.5981 8.4559 10.7108 8.56864L12.3456 9.75247C12.402 9.6961 12.5147 9.6961 12.5711 9.63972L12.853 7.66668C12.9093 7.44119 13.0785 7.32845 13.2476 7.32845L15.5025 7.32845C15.728 7.32845 15.8971 7.44119 15.8971 7.66668L16.2353 9.63972C16.2917 9.6961 16.4044 9.6961 16.4608 9.75247L18.0956 8.56864C18.2647 8.4559 18.4902 8.4559 18.6593 8.62502L20.2378 10.2035C20.3505 10.3726 20.4069 10.5981 20.2942 10.7672L19.1103 12.3456C19.1103 12.4584 19.1667 12.5147 19.2231 12.6275L21.1961 12.9093C21.4216 12.9093 21.5344 13.1348 21.5344 13.3039L21.5344 15.5589C21.5344 15.7843 21.4216 15.9535 21.1961 15.9535L19.2231 16.2353C19.1667 16.3481 19.1103 16.4044 19.1103 16.5172L20.2942 18.0956C20.4069 18.2647 20.4069 18.4902 20.2378 18.603L18.6593 20.2378C18.4902 20.3505 18.2647 20.4069 18.0956 20.2942L16.4608 19.054C16.4044 19.1103 16.2917 19.1667 16.2353 19.1667L15.9535 21.1961C15.8971 21.4216 15.7843 21.5344 15.5589 21.5344ZM13.6422 20.7451 15.1642 20.7451 15.4461 18.8285C15.5025 18.6593 15.6152 18.5466 15.728 18.4902 15.9535 18.4339 16.179 18.3211 16.3481 18.2647 16.5172 18.2084 16.6863 18.2084 16.7991 18.3211L18.3211 19.4486 19.3922 18.3211 18.2647 16.7991C18.152 16.6863 18.152 16.5172 18.2084 16.3481 18.3211 16.179 18.3775 15.9535 18.4902 15.728 18.5466 15.6152 18.6593 15.5025 18.8285 15.5025L20.6888 15.2206 20.6888 13.6422 18.8285 13.3603C18.6593 13.3603 18.5466 13.2476 18.4902 13.1348L18.4339 13.0221C18.3775 12.853 18.2647 12.6275 18.2084 12.4584 18.152 12.3456 18.152 12.1765 18.2084 12.0637L19.3922 10.5417 18.2647 9.41423 16.7427 10.5981C16.6299 10.6544 16.4608 10.7108 16.2917 10.5981 16.179 10.5417 15.9535 10.4289 15.7843 10.3726L15.6716 10.3162C15.5589 10.2598 15.4461 10.1471 15.4461 9.97796L15.1642 8.11766 13.5858 8.11766 13.3039 9.97796C13.3039 10.1471 13.1912 10.2598 13.0785 10.3162 12.853 10.4289 12.6275 10.4853 12.4584 10.5981 12.2892 10.6544 12.1201 10.6544 12.0074 10.5417L10.4853 9.41423 9.35786 10.4853 10.4853 12.0074C10.5981 12.1201 10.5981 12.2892 10.5417 12.4584 10.4853 12.6275 10.3726 12.853 10.3162 13.0785 10.2598 13.1912 10.1471 13.3039 9.97796 13.3603L8.06129 13.6422 8.06129 15.1642 9.97796 15.4461C10.1471 15.4461 10.2598 15.5589 10.3162 15.728 10.3726 15.9535 10.4289 16.1226 10.5417 16.3481 10.5981 16.5172 10.5981 16.6863 10.4853 16.7991L9.41423 18.3211 10.5417 19.4486 12.0637 18.2647C12.1765 18.2084 12.3456 18.152 12.4584 18.2084 12.6838 18.3211 12.9093 18.4339 13.0785 18.4902 13.2476 18.5466 13.3603 18.6593 13.3603 18.8285L13.6422 20.7451ZM14.4314 17.25C12.853 17.25 11.6128 15.9535 11.6128 14.4314 11.6128 12.9093 12.9093 11.6128 14.4314 11.6128 15.9535 11.6128 17.1937 12.9093 17.1937 14.4314 17.1937 15.9535 15.9535 17.25 14.4314 17.25ZM14.4314 12.4584C13.3603 12.4584 12.4584 13.3603 12.4584 14.4314 12.4584 15.5025 13.3603 16.4044 14.4314 16.4044 15.5025 16.4044 16.4044 15.5025 16.4044 14.4314 16.4044 13.3603 15.5025 12.4584 14.4314 12.4584Z" fill="#F2F2F2" fill-rule="evenodd" fill-opacity="1" transform="matrix(1.00588 0 0 1 46.9838 47.0131)"/><path d="M5.75001 4.05883C5.52452 4.05883 5.29903 3.88971 5.29903 3.66422L5.29903 0.450981C5.29903 0.169118 5.52452 0 5.75001 0 5.9755 0 6.14462 0.169118 6.14462 0.450981L6.14462 3.66422C6.14462 3.88971 5.9755 4.05883 5.75001 4.05883ZM8.23041 4.05883C7.94854 4.05883 7.77943 3.88971 7.77943 3.66422L7.77943 0.450981C7.77943 0.169118 7.94854 0 8.23041 0 8.4559 0 8.62502 0.169118 8.62502 0.450981L8.62502 3.66422C8.62502 3.88971 8.4559 4.05883 8.23041 4.05883ZM10.7108 4.05883C10.4289 4.05883 10.2598 3.88971 10.2598 3.66422L10.2598 0.450981C10.2598 0.169118 10.4289 0 10.7108 0 10.9363 0 11.1054 0.169118 11.1054 0.450981L11.1054 3.66422C11.1054 3.88971 10.9363 4.05883 10.7108 4.05883ZM13.1912 4.05883C12.9657 4.05883 12.7402 3.88971 12.7402 3.66422L12.7402 0.450981C12.7402 0.169118 12.9657 0 13.1912 0 13.4167 0 13.5858 0.169118 13.5858 0.450981L13.5858 3.66422C13.5858 3.88971 13.4167 4.05883 13.1912 4.05883ZM15.6716 4.05883C15.4461 4.05883 15.2206 3.88971 15.2206 3.66422L15.2206 0.450981C15.2206 0.169118 15.4461 0 15.6716 0 15.8971 0 16.0662 0.169118 16.0662 0.450981L16.0662 3.66422C16.0662 3.88971 15.8971 4.05883 15.6716 4.05883ZM18.152 4.05883C17.9265 4.05883 17.701 3.88971 17.701 3.66422L17.701 0.450981C17.701 0.169118 17.9265 0 18.152 0 18.3775 0 18.5466 0.169118 18.5466 0.450981L18.5466 3.66422C18.5466 3.88971 18.3775 4.05883 18.152 4.05883ZM20.6324 4.05883C20.4069 4.05883 20.2378 3.88971 20.2378 3.66422L20.2378 0.450981C20.2378 0.169118 20.4069 0 20.6324 0 20.8579 0 21.0834 0.169118 21.0834 0.450981L21.0834 3.66422C21.027 3.88971 20.8579 4.05883 20.6324 4.05883ZM23.1128 4.05883C22.8873 4.05883 22.6618 3.88971 22.6618 3.66422L22.6618 0.450981C22.6618 0.169118 22.8873 0 23.1128 0 23.3383 0 23.5074 0.169118 23.5074 0.450981L23.5074 3.66422C23.5074 3.88971 23.3383 4.05883 23.1128 4.05883ZM5.75001 28.8628C5.52452 28.8628 5.29903 28.6937 5.29903 28.4118L5.29903 25.1986C5.29903 24.9731 5.52452 24.804 5.75001 24.804 5.9755 24.804 6.14462 24.9731 6.14462 25.1986L6.14462 28.4118C6.14462 28.6937 5.9755 28.8628 5.75001 28.8628ZM8.23041 28.8628C7.94854 28.8628 7.77943 28.6937 7.77943 28.4118L7.77943 25.1986C7.77943 24.9731 7.94854 24.804 8.23041 24.804 8.4559 24.804 8.62502 24.9731 8.62502 25.1986L8.62502 28.4118C8.62502 28.6937 8.4559 28.8628 8.23041 28.8628ZM10.7108 28.8628C10.4289 28.8628 10.2598 28.6937 10.2598 28.4118L10.2598 25.1986C10.2598 24.9731 10.4289 24.804 10.7108 24.804 10.9363 24.804 11.1054 24.9731 11.1054 25.1986L11.1054 28.4118C11.1054 28.6937 10.9363 28.8628 10.7108 28.8628ZM13.1912 28.8628C12.9657 28.8628 12.7402 28.6937 12.7402 28.4118L12.7402 25.1986C12.7402 24.9731 12.9657 24.804 13.1912 24.804 13.4167 24.804 13.5858 24.9731 13.5858 25.1986L13.5858 28.4118C13.5858 28.6937 13.4167 28.8628 13.1912 28.8628ZM15.6716 28.8628C15.4461 28.8628 15.2206 28.6937 15.2206 28.4118L15.2206 25.1986C15.2206 24.9731 15.4461 24.804 15.6716 24.804 15.8971 24.804 16.0662 24.9731 16.0662 25.1986L16.0662 28.4118C16.0662 28.6937 15.8971 28.8628 15.6716 28.8628ZM18.152 28.8628C17.9265 28.8628 17.701 28.6937 17.701 28.4118L17.701 25.1986C17.701 24.9731 17.9265 24.804 18.152 24.804 18.3775 24.804 18.5466 24.9731 18.5466 25.1986L18.5466 28.4118C18.5466 28.6937 18.3775 28.8628 18.152 28.8628ZM20.6324 28.8628C20.4069 28.8628 20.2378 28.6937 20.2378 28.4118L20.2378 25.1986C20.2378 24.9731 20.4069 24.804 20.6324 24.804 20.8579 24.804 21.0834 24.9731 21.0834 25.1986L21.0834 28.4118C21.027 28.6937 20.8579 28.8628 20.6324 28.8628ZM23.1128 28.8628C22.8873 28.8628 22.6618 28.6937 22.6618 28.4118L22.6618 25.1986C22.6618 24.9731 22.8873 24.804 23.1128 24.804 23.3383 24.804 23.5074 24.9731 23.5074 25.1986L23.5074 28.4118C23.5074 28.6937 23.3383 28.8628 23.1128 28.8628ZM28.4682 23.5638 25.1986 23.5638C24.9731 23.5638 24.804 23.3383 24.804 23.1128 24.804 22.8873 24.9731 22.7182 25.1986 22.7182L28.4682 22.7182C28.6937 22.7182 28.8628 22.8873 28.8628 23.1128 28.8628 23.3383 28.6937 23.5638 28.4682 23.5638ZM28.4682 21.0834 25.1986 21.0834C24.9731 21.0834 24.804 20.8579 24.804 20.6324 24.804 20.4069 24.9731 20.2378 25.1986 20.2378L28.4682 20.2378C28.6937 20.2378 28.8628 20.4069 28.8628 20.6324 28.8628 20.8579 28.6937 21.0834 28.4682 21.0834ZM28.4682 18.603 25.1986 18.603C24.9731 18.603 24.804 18.3775 24.804 18.152 24.804 17.9265 24.9731 17.7574 25.1986 17.7574L28.4682 17.7574C28.6937 17.7574 28.8628 17.9265 28.8628 18.152 28.8628 18.3775 28.6937 18.603 28.4682 18.603ZM28.4682 16.1226 25.1986 16.1226C24.9731 16.1226 24.804 15.8971 24.804 15.6716 24.804 15.4461 24.9731 15.277 25.1986 15.277L28.4682 15.277C28.6937 15.277 28.8628 15.4461 28.8628 15.6716 28.8628 15.8971 28.6937 16.1226 28.4682 16.1226ZM28.4682 13.5858 25.1986 13.5858C24.9731 13.5858 24.804 13.4167 24.804 13.1912 24.804 12.9657 24.9731 12.7402 25.1986 12.7402L28.4682 12.7402C28.6937 12.7402 28.8628 12.9657 28.8628 13.1912 28.8628 13.4167 28.6937 13.5858 28.4682 13.5858ZM28.4682 11.1618 25.1986 11.1618C24.9731 11.1618 24.804 10.9363 24.804 10.7108 24.804 10.4853 24.9731 10.3162 25.1986 10.3162L28.4682 10.3162C28.6937 10.3162 28.8628 10.4853 28.8628 10.7108 28.8628 10.9363 28.6937 11.1618 28.4682 11.1618ZM28.4682 8.68139 25.1986 8.68139C24.9731 8.68139 24.804 8.4559 24.804 8.23041 24.804 8.00492 24.9731 7.8358 25.1986 7.8358L28.4682 7.8358C28.6937 7.8358 28.8628 8.00492 28.8628 8.23041 28.8628 8.4559 28.6937 8.68139 28.4682 8.68139ZM28.4682 6.20099 25.1986 6.20099C24.9731 6.20099 24.804 5.9755 24.804 5.75001 24.804 5.52452 24.9731 5.3554 25.1986 5.3554L28.4682 5.3554C28.6937 5.3554 28.8628 5.52452 28.8628 5.75001 28.8628 5.9755 28.6937 6.20099 28.4682 6.20099ZM3.60785 23.5638 0.394609 23.5638C0.169118 23.5638 0 23.3383 0 23.1128 0 22.8873 0.169118 22.7182 0.394609 22.7182L3.60785 22.7182C3.88971 22.7182 4.05883 22.8873 4.05883 23.1128 4.05883 23.3383 3.88971 23.5638 3.60785 23.5638ZM3.60785 21.0834 0.394609 21.0834C0.169118 21.0834 0 20.8579 0 20.6324 0 20.4069 0.169118 20.2378 0.394609 20.2378L3.60785 20.2378C3.88971 20.2378 4.05883 20.4069 4.05883 20.6324 4.05883 20.8579 3.88971 21.0834 3.60785 21.0834ZM3.60785 18.603 0.394609 18.603C0.169118 18.603 0 18.3775 0 18.152 0 17.9265 0.169118 17.7574 0.394609 17.7574L3.60785 17.7574C3.88971 17.7574 4.05883 17.9265 4.05883 18.152 4.05883 18.3775 3.88971 18.603 3.60785 18.603ZM3.60785 16.1226 0.394609 16.1226C0.169118 16.1226 0 15.8971 0 15.6716 0 15.4461 0.169118 15.277 0.394609 15.277L3.60785 15.277C3.88971 15.277 4.05883 15.4461 4.05883 15.6716 4.05883 15.8971 3.88971 16.1226 3.60785 16.1226ZM3.60785 13.5858 0.394609 13.5858C0.169118 13.5858 0 13.4167 0 13.1912 0 12.9657 0.169118 12.7402 0.394609 12.7402L3.60785 12.7402C3.88971 12.7402 4.05883 12.9657 4.05883 13.1912 4.05883 13.4167 3.88971 13.5858 3.60785 13.5858ZM3.60785 11.1618 0.394609 11.1618C0.169118 11.1618 0 10.9363 0 10.7108 0 10.4853 0.169118 10.3162 0.394609 10.3162L3.60785 10.3162C3.88971 10.3162 4.05883 10.4853 4.05883 10.7108 4.05883 10.9363 3.88971 11.1618 3.60785 11.1618ZM3.60785 8.68139 0.394609 8.68139C0.169118 8.68139 0 8.4559 0 8.23041 0 8.00492 0.169118 7.8358 0.394609 7.8358L3.60785 7.8358C3.88971 7.8358 4.05883 8.00492 4.05883 8.23041 4.05883 8.4559 3.88971 8.68139 3.60785 8.68139ZM3.60785 6.20099 0.394609 6.20099C0.169118 6.20099 0 5.9755 0 5.75001 0 5.52452 0.169118 5.3554 0.394609 5.3554L3.60785 5.3554C3.88971 5.3554 4.05883 5.52452 4.05883 5.75001 4.05883 5.9755 3.88971 6.20099 3.60785 6.20099Z" fill="#F2F2F2" fill-rule="evenodd" fill-opacity="1" transform="matrix(1.00588 0 0 1 46.9838 47.0131)"/></g></g></g></g></g><g clip-path="url(#clip25)"><g clip-path="url(#clip26)"><g clip-path="url(#clip27)"><path d="M106.894 115.527 22.8516 115.527C18.2812 115.527 14.4726 111.719 14.4726 107.148L14.4726 23.1055C14.4726 18.5351 18.2812 14.7266 22.8516 14.7266L106.894 14.7266C111.465 14.7266 115.273 18.5351 115.273 23.1055L115.273 107.148C115.527 111.719 111.719 115.527 106.894 115.527ZM103.594 105.625 26.4062 105.625C25.1367 105.625 24.375 104.609 24.375 103.594L24.375 26.4062C24.375 25.3906 25.1367 24.375 26.4062 24.375L103.594 24.375C104.863 24.375 105.625 25.3906 105.625 26.4062L105.625 103.848C105.625 104.863 104.609 105.625 103.594 105.625ZM28.1836 101.816 101.816 101.816 101.816 28.1836 28.1836 28.1836 28.1836 101.816ZM70.0781 96.9921 59.9218 96.9921C58.9062 96.9921 58.1445 96.4843 58.1445 95.4687L56.875 86.582C56.3672 86.3281 56.1133 86.3281 55.6054 86.0742L48.2422 91.4062C47.7344 91.914 46.4648 91.914 45.957 91.4062L38.8476 84.0429C38.0859 83.5351 38.0859 82.5195 38.5937 81.7578L43.9258 74.3945C43.6719 73.8867 43.6719 73.6328 43.4179 73.125L34.5312 71.8554C33.5156 71.8554 33.0078 71.0937 33.0078 70.0781L33.0078 59.9218C33.0078 59.1601 33.5156 58.3984 34.5312 58.1445L43.4179 56.875C43.6719 56.3672 43.9258 56.1133 43.9258 55.6054L38.5937 48.4961C38.0859 47.7344 38.0859 46.7187 38.8476 45.957L45.957 38.8476C46.4648 38.0859 47.7344 38.0859 48.2422 38.5937L55.6054 43.9258C55.8593 43.6719 56.3672 43.6719 56.6211 43.4179L57.8906 34.5312C58.1445 33.5156 58.9062 33.0078 59.6679 33.0078L69.8242 33.0078C70.8398 33.0078 71.6015 33.5156 71.6015 34.5312L73.125 43.4179C73.3789 43.6719 73.8867 43.6719 74.1406 43.9258L81.5039 38.5937C82.2656 38.0859 83.2812 38.0859 84.0429 38.8476L91.1523 45.957C91.6601 46.7187 91.914 47.7344 91.4062 48.4961L86.0742 55.6054C86.0742 56.1133 86.3281 56.3672 86.582 56.875L95.4687 58.1445C96.4843 58.1445 96.9921 59.1601 96.9921 59.9218L96.9921 70.0781C96.9921 71.0937 96.4843 71.8554 95.4687 71.8554L86.582 73.125C86.3281 73.6328 86.0742 73.8867 86.0742 74.3945L91.4062 81.5039C91.914 82.2656 91.914 83.2812 91.1523 83.789L84.0429 91.1523C83.2812 91.6601 82.2656 91.914 81.5039 91.4062L74.1406 85.8203C73.8867 86.0742 73.3789 86.3281 73.125 86.3281L71.8554 95.4687C71.6015 96.4843 71.0937 96.9921 70.0781 96.9921ZM61.4453 93.4375 68.3008 93.4375 69.5703 84.8046C69.8242 84.0429 70.332 83.5351 70.8398 83.2812 71.8554 83.0273 72.8711 82.5195 73.6328 82.2656 74.3945 82.0117 75.1562 82.0117 75.664 82.5195L82.5195 87.5976 87.3437 82.5195 82.2656 75.664C81.7578 75.1562 81.7578 74.3945 82.0117 73.6328 82.5195 72.8711 82.7734 71.8554 83.2812 70.8398 83.5351 70.332 84.0429 69.8242 84.8046 69.8242L93.1835 68.5547 93.1835 61.4453 84.8046 60.1758C84.0429 60.1758 83.5351 59.6679 83.2812 59.1601L83.0273 58.6523C82.7734 57.8906 82.2656 56.875 82.0117 56.1133 81.7578 55.6054 81.7578 54.8437 82.0117 54.3359L87.3437 47.4804 82.2656 42.4023 75.4101 47.7344C74.9023 47.9883 74.1406 48.2422 73.3789 47.7344 72.8711 47.4804 71.8554 46.9726 71.0937 46.7187L70.5859 46.4648C70.0781 46.2109 69.5703 45.7031 69.5703 44.9414L68.3008 36.5625 61.1914 36.5625 59.9218 44.9414C59.9218 45.7031 59.414 46.2109 58.9062 46.4648 57.8906 46.9726 56.875 47.2265 56.1133 47.7344 55.3515 47.9883 54.5898 47.9883 54.082 47.4804L47.2265 42.4023 42.1484 47.2265 47.2265 54.082C47.7344 54.5898 47.7344 55.3515 47.4804 56.1133 47.2265 56.875 46.7187 57.8906 46.4648 58.9062 46.2109 59.414 45.7031 59.9218 44.9414 60.1758L36.3086 61.4453 36.3086 68.3008 44.9414 69.5703C45.7031 69.5703 46.2109 70.0781 46.4648 70.8398 46.7187 71.8554 46.9726 72.6172 47.4804 73.6328 47.7344 74.3945 47.7344 75.1562 47.2265 75.664L42.4023 82.5195 47.4804 87.5976 54.3359 82.2656C54.8437 82.0117 55.6054 81.7578 56.1133 82.0117 57.1289 82.5195 58.1445 83.0273 58.9062 83.2812 59.6679 83.5351 60.1758 84.0429 60.1758 84.8046L61.4453 93.4375ZM65 77.6953C57.8906 77.6953 52.3047 71.8554 52.3047 65 52.3047 58.1445 58.1445 52.3047 65 52.3047 71.8554 52.3047 77.4414 58.1445 77.4414 65 77.4414 71.8554 71.8554 77.6953 65 77.6953ZM65 56.1133C60.1758 56.1133 56.1133 60.1758 56.1133 65 56.1133 69.8242 60.1758 73.8867 65 73.8867 69.8242 73.8867 73.8867 69.8242 73.8867 65 73.8867 60.1758 69.8242 56.1133 65 56.1133Z" fill="#F2F2F2" fill-rule="evenodd" fill-opacity="1" transform="matrix(1.00769 0 0 1 239 404)"/><path d="M25.8984 18.2812C24.8828 18.2812 23.8672 17.5195 23.8672 16.5039L23.8672 2.03125C23.8672 0.761718 24.8828 0 25.8984 0 26.914 0 27.6758 0.761718 27.6758 2.03125L27.6758 16.5039C27.6758 17.5195 26.914 18.2812 25.8984 18.2812ZM37.0703 18.2812C35.8008 18.2812 35.039 17.5195 35.039 16.5039L35.039 2.03125C35.039 0.761718 35.8008 0 37.0703 0 38.0859 0 38.8476 0.761718 38.8476 2.03125L38.8476 16.5039C38.8476 17.5195 38.0859 18.2812 37.0703 18.2812ZM48.2422 18.2812C46.9726 18.2812 46.2109 17.5195 46.2109 16.5039L46.2109 2.03125C46.2109 0.761718 46.9726 0 48.2422 0 49.2578 0 50.0195 0.761718 50.0195 2.03125L50.0195 16.5039C50.0195 17.5195 49.2578 18.2812 48.2422 18.2812ZM59.414 18.2812C58.3984 18.2812 57.3828 17.5195 57.3828 16.5039L57.3828 2.03125C57.3828 0.761718 58.3984 0 59.414 0 60.4297 0 61.1914 0.761718 61.1914 2.03125L61.1914 16.5039C61.1914 17.5195 60.4297 18.2812 59.414 18.2812ZM70.5859 18.2812C69.5703 18.2812 68.5547 17.5195 68.5547 16.5039L68.5547 2.03125C68.5547 0.761718 69.5703 0 70.5859 0 71.6015 0 72.3633 0.761718 72.3633 2.03125L72.3633 16.5039C72.3633 17.5195 71.6015 18.2812 70.5859 18.2812ZM81.7578 18.2812C80.7421 18.2812 79.7265 17.5195 79.7265 16.5039L79.7265 2.03125C79.7265 0.761718 80.7421 0 81.7578 0 82.7734 0 83.5351 0.761718 83.5351 2.03125L83.5351 16.5039C83.5351 17.5195 82.7734 18.2812 81.7578 18.2812ZM92.9296 18.2812C91.914 18.2812 91.1523 17.5195 91.1523 16.5039L91.1523 2.03125C91.1523 0.761718 91.914 0 92.9296 0 93.9453 0 94.9609 0.761718 94.9609 2.03125L94.9609 16.5039C94.707 17.5195 93.9453 18.2812 92.9296 18.2812ZM104.102 18.2812C103.086 18.2812 102.07 17.5195 102.07 16.5039L102.07 2.03125C102.07 0.761718 103.086 0 104.102 0 105.117 0 105.879 0.761718 105.879 2.03125L105.879 16.5039C105.879 17.5195 105.117 18.2812 104.102 18.2812ZM25.8984 130C24.8828 130 23.8672 129.238 23.8672 127.969L23.8672 113.496C23.8672 112.48 24.8828 111.719 25.8984 111.719 26.914 111.719 27.6758 112.48 27.6758 113.496L27.6758 127.969C27.6758 129.238 26.914 130 25.8984 130ZM37.0703 130C35.8008 130 35.039 129.238 35.039 127.969L35.039 113.496C35.039 112.48 35.8008 111.719 37.0703 111.719 38.0859 111.719 38.8476 112.48 38.8476 113.496L38.8476 127.969C38.8476 129.238 38.0859 130 37.0703 130ZM48.2422 130C46.9726 130 46.2109 129.238 46.2109 127.969L46.2109 113.496C46.2109 112.48 46.9726 111.719 48.2422 111.719 49.2578 111.719 50.0195 112.48 50.0195 113.496L50.0195 127.969C50.0195 129.238 49.2578 130 48.2422 130ZM59.414 130C58.3984 130 57.3828 129.238 57.3828 127.969L57.3828 113.496C57.3828 112.48 58.3984 111.719 59.414 111.719 60.4297 111.719 61.1914 112.48 61.1914 113.496L61.1914 127.969C61.1914 129.238 60.4297 130 59.414 130ZM70.5859 130C69.5703 130 68.5547 129.238 68.5547 127.969L68.5547 113.496C68.5547 112.48 69.5703 111.719 70.5859 111.719 71.6015 111.719 72.3633 112.48 72.3633 113.496L72.3633 127.969C72.3633 129.238 71.6015 130 70.5859 130ZM81.7578 130C80.7421 130 79.7265 129.238 79.7265 127.969L79.7265 113.496C79.7265 112.48 80.7421 111.719 81.7578 111.719 82.7734 111.719 83.5351 112.48 83.5351 113.496L83.5351 127.969C83.5351 129.238 82.7734 130 81.7578 130ZM92.9296 130C91.914 130 91.1523 129.238 91.1523 127.969L91.1523 113.496C91.1523 112.48 91.914 111.719 92.9296 111.719 93.9453 111.719 94.9609 112.48 94.9609 113.496L94.9609 127.969C94.707 129.238 93.9453 130 92.9296 130ZM104.102 130C103.086 130 102.07 129.238 102.07 127.969L102.07 113.496C102.07 112.48 103.086 111.719 104.102 111.719 105.117 111.719 105.879 112.48 105.879 113.496L105.879 127.969C105.879 129.238 105.117 130 104.102 130ZM128.223 106.133 113.496 106.133C112.48 106.133 111.719 105.117 111.719 104.102 111.719 103.086 112.48 102.324 113.496 102.324L128.223 102.324C129.238 102.324 130 103.086 130 104.102 130 105.117 129.238 106.133 128.223 106.133ZM128.223 94.9609 113.496 94.9609C112.48 94.9609 111.719 93.9453 111.719 92.9296 111.719 91.914 112.48 91.1523 113.496 91.1523L128.223 91.1523C129.238 91.1523 130 91.914 130 92.9296 130 93.9453 129.238 94.9609 128.223 94.9609ZM128.223 83.789 113.496 83.789C112.48 83.789 111.719 82.7734 111.719 81.7578 111.719 80.7421 112.48 79.9804 113.496 79.9804L128.223 79.9804C129.238 79.9804 130 80.7421 130 81.7578 130 82.7734 129.238 83.789 128.223 83.789ZM128.223 72.6172 113.496 72.6172C112.48 72.6172 111.719 71.6015 111.719 70.5859 111.719 69.5703 112.48 68.8086 113.496 68.8086L128.223 68.8086C129.238 68.8086 130 69.5703 130 70.5859 130 71.6015 129.238 72.6172 128.223 72.6172ZM128.223 61.1914 113.496 61.1914C112.48 61.1914 111.719 60.4297 111.719 59.414 111.719 58.3984 112.48 57.3828 113.496 57.3828L128.223 57.3828C129.238 57.3828 130 58.3984 130 59.414 130 60.4297 129.238 61.1914 128.223 61.1914ZM128.223 50.2734 113.496 50.2734C112.48 50.2734 111.719 49.2578 111.719 48.2422 111.719 47.2265 112.48 46.4648 113.496 46.4648L128.223 46.4648C129.238 46.4648 130 47.2265 130 48.2422 130 49.2578 129.238 50.2734 128.223 50.2734ZM128.223 39.1015 113.496 39.1015C112.48 39.1015 111.719 38.0859 111.719 37.0703 111.719 36.0547 112.48 35.293 113.496 35.293L128.223 35.293C129.238 35.293 130 36.0547 130 37.0703 130 38.0859 129.238 39.1015 128.223 39.1015ZM128.223 27.9297 113.496 27.9297C112.48 27.9297 111.719 26.914 111.719 25.8984 111.719 24.8828 112.48 24.1211 113.496 24.1211L128.223 24.1211C129.238 24.1211 130 24.8828 130 25.8984 130 26.914 129.238 27.9297 128.223 27.9297ZM16.25 106.133 1.77734 106.133C0.761718 106.133 0 105.117 0 104.102 0 103.086 0.761718 102.324 1.77734 102.324L16.25 102.324C17.5195 102.324 18.2812 103.086 18.2812 104.102 18.2812 105.117 17.5195 106.133 16.25 106.133ZM16.25 94.9609 1.77734 94.9609C0.761718 94.9609 0 93.9453 0 92.9296 0 91.914 0.761718 91.1523 1.77734 91.1523L16.25 91.1523C17.5195 91.1523 18.2812 91.914 18.2812 92.9296 18.2812 93.9453 17.5195 94.9609 16.25 94.9609ZM16.25 83.789 1.77734 83.789C0.761718 83.789 0 82.7734 0 81.7578 0 80.7421 0.761718 79.9804 1.77734 79.9804L16.25 79.9804C17.5195 79.9804 18.2812 80.7421 18.2812 81.7578 18.2812 82.7734 17.5195 83.789 16.25 83.789ZM16.25 72.6172 1.77734 72.6172C0.761718 72.6172 0 71.6015 0 70.5859 0 69.5703 0.761718 68.8086 1.77734 68.8086L16.25 68.8086C17.5195 68.8086 18.2812 69.5703 18.2812 70.5859 18.2812 71.6015 17.5195 72.6172 16.25 72.6172ZM16.25 61.1914 1.77734 61.1914C0.761718 61.1914 0 60.4297 0 59.414 0 58.3984 0.761718 57.3828 1.77734 57.3828L16.25 57.3828C17.5195 57.3828 18.2812 58.3984 18.2812 59.414 18.2812 60.4297 17.5195 61.1914 16.25 61.1914ZM16.25 50.2734 1.77734 50.2734C0.761718 50.2734 0 49.2578 0 48.2422 0 47.2265 0.761718 46.4648 1.77734 46.4648L16.25 46.4648C17.5195 46.4648 18.2812 47.2265 18.2812 48.2422 18.2812 49.2578 17.5195 50.2734 16.25 50.2734ZM16.25 39.1015 1.77734 39.1015C0.761718 39.1015 0 38.0859 0 37.0703 0 36.0547 0.761718 35.293 1.77734 35.293L16.25 35.293C17.5195 35.293 18.2812 36.0547 18.2812 37.0703 18.2812 38.0859 17.5195 39.1015 16.25 39.1015ZM16.25 27.9297 1.77734 27.9297C0.761718 27.9297 0 26.914 0 25.8984 0 24.8828 0.761718 24.1211 1.77734 24.1211L16.25 24.1211C17.5195 24.1211 18.2812 24.8828 18.2812 25.8984 18.2812 26.914 17.5195 27.9297 16.25 27.9297Z" fill="#F2F2F2" fill-rule="evenodd" fill-opacity="1" transform="matrix(1.00769 0 0 1 239 404)"/></g></g></g></g></svg>