<svg xmlns="http://www.w3.org/2000/svg" viewBox="0 0 51 51"><path fill="#434240" d="M31.96 37.883v5.514c0 3.37-2.894 6.103-6.462 6.103-3.568 0-6.46-2.732-6.46-6.103v-5.514h12.921z"/><path fill="#E5BD13" d="M31.742 34.99c3.491 2.016 3.546 5.27.077 7.285-3.467 2.016-9.086 1.995-12.577-.02-3.49-2.016-3.508-5.25-.04-7.265 3.468-2.015 9.05-2.015 12.54 0z"/><path fill="#8D9799" d="m34.677 39.64-.007 1.84c-.004 1.344-.885 2.685-2.654 3.713-3.58 2.08-9.379 2.058-12.982-.022-1.813-1.047-2.718-2.412-2.714-3.775l.006-1.84c-.004 1.363.902 2.728 2.715 3.775 3.603 2.08 9.403 2.102 12.982.022 1.77-1.029 2.65-2.369 2.654-3.713z"/><path fill="#7E8A8C" d="M32.023 43.353c-3.24 1.883-8.301 2.043-11.904.513v1.843c3.602 1.527 8.658 1.366 11.897-.516 1.77-1.028 2.65-2.369 2.654-3.713l.007-1.84c-.004 1.344-.885 2.684-2.654 3.713z"/><path fill="#6D797A" d="M32.023 43.353c-.252.146-.52.279-.792.405v1.837c.27-.125.535-.257.785-.402 1.77-1.028 2.65-2.369 2.654-3.713l.007-1.84c-.004 1.344-.885 2.684-2.654 3.713z"/><path fill="#A0A8AA" d="M31.943 35.833c3.603 2.08 3.66 5.44.08 7.52-3.58 2.08-9.379 2.058-12.982-.022-3.603-2.08-3.622-5.418-.042-7.498s9.341-2.08 12.944 0z"/><path fill="#434240" d="m34.39 36.541-.006 2.199c-.004 1.302-.857 2.6-2.571 3.596-3.468 2.015-9.086 1.995-12.577-.02-1.757-1.015-2.634-2.337-2.63-3.658l.006-2.198c-.003 1.32.874 2.643 2.63 3.657 3.491 2.015 9.11 2.036 12.577.02 1.714-.995 2.568-2.294 2.572-3.596z"/><path fill="#2D2C2B" d="M31.82 40.138c-3.163 1.838-8.115 1.981-11.61.463v2.202c3.495 1.515 8.442 1.37 11.603-.467 1.714-.996 2.567-2.294 2.571-3.596l.007-2.199c-.004 1.302-.858 2.6-2.572 3.597z"/><path fill="#21201F" d="M31.82 40.138c-.123.07-.253.135-.38.2v2.196c.125-.065.253-.128.373-.198 1.714-.996 2.567-2.294 2.571-3.596l.007-2.199c-.004 1.302-.858 2.6-2.572 3.597z"/><path fill="#E5BD13" d="M31.742 31.958c3.491 2.016 3.546 5.27.077 7.285-3.467 2.016-9.086 1.995-12.577-.02-3.49-2.016-3.508-5.25-.04-7.265 3.468-2.015 9.05-2.015 12.54 0z"/><path fill="#8D9799" d="m34.677 35.714-.007 1.84c-.004 1.344-.885 2.685-2.654 3.713-3.58 2.08-9.379 2.058-12.982-.022-1.813-1.047-2.718-2.412-2.714-3.775l.006-1.84c-.004 1.363.902 2.728 2.715 3.775 3.603 2.08 9.403 2.102 12.982.022 1.77-1.029 2.65-2.369 2.654-3.713z"/><path fill="#7E8A8C" d="M32.023 39.427c-3.243 1.884-8.307 2.044-11.91.51v1.843c3.603 1.53 8.663 1.37 11.903-.513 1.77-1.028 2.65-2.369 2.654-3.713l.007-1.84c-.004 1.344-.885 2.684-2.654 3.713z"/><path fill="#6D797A" d="M32.023 39.427c-.367.213-.76.401-1.17.57v1.837a9.722 9.722 0 0 0 1.163-.567c1.77-1.028 2.65-2.369 2.654-3.713l.007-1.84c-.004 1.344-.885 2.684-2.654 3.713z"/><path fill="#A0A8AA" d="M31.943 31.907c3.603 2.08 3.66 5.44.08 7.52-3.58 2.08-9.379 2.058-12.982-.022-3.603-2.08-3.622-5.418-.042-7.498s9.341-2.08 12.944 0z"/><path fill="#C6A51A" d="M30.63 32.042c2.87 1.657 2.916 4.333.064 5.99-2.851 1.657-7.47 1.64-10.341-.017-2.87-1.657-2.885-4.316-.034-5.973 2.852-1.657 7.441-1.657 10.311 0z"/><path fill="#EFC348" d="M36.76 27.363c-2.039 2.19-3.301 4.449-3.301 7.442V35c0 .801-.342 1.633-1.075 2.35-.338.33-.756.637-1.264.905-3.067 1.787-8.119 1.787-11.25 0-1.59-.916-2.341-2.085-2.341-3.255h-.065v-.178c0-2.873-1.008-5.165-3.01-7.226a15.328 15.328 0 0 1-4.337-10.708c0-5.965 3.395-11.14 8.361-13.695 2.571-1.32 5.564-1.94 8.727-1.602 6.973.746 12.662 6.322 13.549 13.279.617 4.833-1.018 9.297-3.993 12.493z"/><path fill="#FFD651" d="M36.76 27.363c-2.039 2.19-3.301 4.449-3.301 7.442V35c0 .801-.342 1.633-1.075 2.35-3.084 1.32-7.504 1.169-10.342-.453-1.59-.916-2.34-2.084-2.34-3.255h-.065v-.177c0-2.874-1.008-5.166-3.01-7.227a15.328 15.328 0 0 1-4.338-10.708c0-5.048 2.43-9.53 6.19-12.337 2.57-1.32 5.563-1.94 8.726-1.602 6.973.746 12.662 6.322 13.549 13.279.617 4.833-1.018 9.297-3.993 12.493z"/><path fill="#FFE2A9" d="M38.235 16.897a.893.893 0 0 1-1-.772c-.714-5.61-5.314-10.116-10.937-10.719a.895.895 0 0 1-.793-.983.886.886 0 0 1 .984-.793c6.434.688 11.7 5.848 12.518 12.27a.892.892 0 0 1-.772.997z" opacity=".72"/><path fill="#FFF" d="M20.965 11.165c.2.065.2.33 0 .396a4.04 4.04 0 0 0-2.577 2.577c-.065.2-.33.2-.396 0a4.033 4.033 0 0 0-2.576-2.577.206.206 0 0 1 0-.396 4.04 4.04 0 0 0 2.576-2.577c.065-.2.33-.2.396 0a4.04 4.04 0 0 0 2.577 2.577z"/></svg>