<svg xmlns="http://www.w3.org/2000/svg" viewBox="0 0 51 51"><path fill="#E9E8E6" d="m15.364 35.471.029 10.046 6.854 3.983-.029-10.046z"/><path fill="#C4C2C0" d="m22.218 39.454.029 10.046 12.752-7.362-.029-10.046z"/><path fill="#ECF0F1" d="m15.364 35.471 6.854 3.983 12.752-7.362-6.854-3.984z"/><path fill="#DD4A4A" d="m13.328 17.493.052 25.602 8.862 5.15-.051-25.602z"/><path fill="#CC4848" d="m17.095 19.682.051 25.602 5.096 2.961-.051-25.602z"/><path fill="#FFD651" d="m13.354 30.191.013 6.444 8.862 5.151-.012-6.444z"/><path fill="#EFC348" d="m17.121 32.38.012 6.444 5.096 2.962-.012-6.444z"/><path fill="#C44141" d="m22.191 22.643.051 25.602 15.43-8.908-.052-25.602z"/><path fill="#CC4848" d="m29.194 18.6.051 25.602 8.427-4.865-.052-25.602z"/><path fill="#FFD651" d="m22.217 35.342.012 6.444 15.43-8.908-.013-6.444z"/><path fill="#EFC348" d="m29.219 31.299.013 6.444 8.427-4.865-.013-6.444z"/><path fill="#F25A5A" d="m13.328 17.493 8.863 5.15 15.429-8.908-8.862-5.15z"/><path fill="#E0E2E2" d="m15.412 8.862.028 8.357 6.854 3.983-.028-8.357z"/><path fill="#C4C2C0" d="m22.266 12.845.028 8.357 12.752-7.362-.028-8.357z"/><path fill="#E9E8E6" d="m15.412 8.862 6.854 3.983 12.752-7.362L28.164 1.5z"/></svg>