<svg xmlns="http://www.w3.org/2000/svg" viewBox="0 0 51 51"><path fill="#FC7E7E" d="M43.765 6.166c-1.966-1.124-4.53-.773-7.128.702-2.563 1.51-5.162 4.108-7.093 7.514a30.964 30.964 0 0 0-1.334 2.634l-6.918-4.003a30.9 30.9 0 0 1 1.335-2.633c1.93-3.406 4.53-6.005 7.093-7.515 2.598-1.475 5.161-1.826 7.128-.702l6.917 4.003z"/><path fill="#DD4A4A" d="M36.637 6.868c-2.563 1.51-5.161 4.108-7.093 7.514a30.884 30.884 0 0 0-1.334 2.634l-6.918-4.003c.386-.878.843-1.755 1.334-2.633 1.932-3.406 4.53-6.005 7.094-7.515l6.917 4.003z"/><path fill="#F25A5A" d="M29.544 14.382a30.884 30.884 0 0 0-1.334 2.634l-6.918-4.003c.386-.878.843-1.755 1.334-2.633l6.918 4.002z"/><path fill="#DD4A4A" d="m12.634 40.592-6.916-4c-3.937-2.269-3.957-9.61-.025-16.449 1.967-3.393 4.542-6.008 7.12-7.497 2.578-1.488 5.16-1.85 7.139-.735l6.916 4c-1.98-1.115-4.56-.754-7.139.735-2.578 1.489-5.153 4.104-7.12 7.497-3.932 6.838-3.912 14.18.025 16.449z"/><path fill="#FC7E7E" d="M12.61 24.144c-3.933 6.837-3.912 14.18.024 16.448l-6.916-4c-3.936-2.27-3.957-9.61-.025-16.449 1.967-3.393 4.542-6.008 7.12-7.497l6.916 4c-2.578 1.488-5.153 4.104-7.12 7.498z"/><path fill="#DD4A4A" d="m12.634 40.592-6.916-4c-3.936-2.27-3.957-9.61-.025-16.449l6.917 4c-3.933 6.838-3.912 14.18.024 16.449z"/><path fill="#CC4848" d="M36.644 6.88c2.579-1.489 5.16-1.85 7.128-.728 3.981 2.268 4.002 9.61.091 16.41L28.311 49.5l-15.677-8.908c-3.937-2.269-3.957-9.611-.025-16.449 1.967-3.393 4.542-6.008 7.12-7.497 2.578-1.489 5.16-1.85 7.139-.735.495.308.945.667 1.328 1.117.402-.903.848-1.78 1.34-2.657 1.955-3.387 4.53-6.002 7.108-7.491z"/><path fill="#E9E8E6" d="m38.287 24.191-1.049-.609 9.955-5.747 1.048.609z"/><path fill="#D6D4D2" d="m45.051 20.286-6.764 3.905-1.049-.609 6.764-3.906z"/><path fill="#FFF" d="m41.861 22.127-3.574 2.064-1.049-.609 3.574-2.064z"/><path fill="#B2B0AF" d="m37.618 26.068-1.049-.609-2.551-2.69 1.049.609z"/><path fill="#FFF" d="m30.114 35.808-1.048-.61 4.669-15.31 1.049.61z"/><path fill="#D6D4D2" d="m33.258 25.502-3.143 10.306-1.049-.609 3.143-10.307z"/><path fill="#B2B0AF" d="m31.731 30.506-1.616 5.302-1.049-.609 1.617-5.303zM29.888 40.357l-1.049-.61-4.761-15.994 1.049.609z"/><path fill="#FFF" d="m20.675 34.359-1.049-.609 4.731-14.367 1.049.609z"/><path fill="#D6D4D2" d="m24.149 23.809-3.474 10.55-1.049-.609 3.475-10.551z"/><path fill="#B2B0AF" d="m22.892 27.625-2.217 6.734-1.049-.609 2.218-6.734z"/><path fill="#FFF" d="m8.504 41.386-1.049-.609 12.171-7.027 1.049.609z"/><path fill="#D6D4D2" d="m8.504 41.386-1.049-.609 6.321-3.649 1.049.609z"/><path fill="#B2B0AF" d="m8.508 42.875-1.048-.61-.005-1.488 1.049.609z"/><path fill="#C4C2C0" d="m25.406 19.992 4.708 15.816 4.67-15.31 3.503 3.693 9.954-5.747.004 1.489-10.627 6.135-2.551-2.69-5.179 16.979-4.761-15.995-3.626 11.012-12.993 7.501-.004-1.489 12.171-7.027z"/></svg>