<svg xmlns="http://www.w3.org/2000/svg" viewBox="0 0 51 51"><path fill="#EFC348" d="M13.415 36.078 13.5 5.74c.001-.607.4-1.212 1.194-1.674.775-.45 1.806-.7 2.905-.698 1.099-.001 2.134.247 2.914.697l-.085 30.338c-.78-.45-1.815-.698-2.914-.698-1.099 0-2.13.249-2.904.699-.795.462-1.193 1.067-1.195 1.674zm-3.223-.01.085-30.337c-.003 1.095.718 2.192 2.162 3.026l-.084 30.338c-1.445-.834-2.166-1.931-2.163-3.026z"/><path fill="#EFC348" d="m38.535 14.47-.085 30.338-18.022-10.405.085-30.338z"/><path fill="#DDB040" d="m40.808 13.15-.085 30.337-2.273 1.321.085-30.338z"/><path fill="#EFC348" d="M30.461 19.162 30.377 49.5 12.355 39.095l.084-30.338z"/><path fill="#FFF" d="m36.551 15.119-4.252 2.47L14.711 7.436c-.878-.507-1.28-1.189-1.2-1.854a8.768 8.768 0 0 1 7.54.589l15.5 8.948z"/><path fill="#E9E8E6" d="m29.246 10.901-4.252 2.471L14.71 7.436c-.878-.507-1.28-1.189-1.2-1.854a8.768 8.768 0 0 1 7.54.589l8.195 4.73z"/><path fill="#D6D4D2" d="M21.94 6.684 17.69 9.155 14.71 7.436c-.878-.507-1.28-1.189-1.2-1.854a8.768 8.768 0 0 1 7.54.589l.89.513zM36.551 15.119v28.593l-3.817 2.452-.435-28.575z"/><path fill="#E9E8E6" d="m36.551 23.783-.003 19.932-3.81 2.45-.31-19.94z"/><path fill="#C4C2C0" d="m36.556 32.444-.008 11.271-3.81 2.45-.179-11.306z"/><path fill="#FFD651" d="m40.808 13.15-2.273 1.32L20.513 4.065c-.78-.45-1.815-.698-2.914-.697-1.1-.001-2.13.248-2.905.698-1.6.93-1.592 2.44.018 3.37l18.022 10.405-2.273 1.321L12.44 8.757c-2.87-1.657-2.884-4.355-.033-6.012C13.788 1.942 15.63 1.5 17.588 1.5c1.958 0 3.805.44 5.197 1.244L40.808 13.15z"/><path fill="#DDB040" d="m32.734 17.841-.084 30.338-2.273 1.321.084-30.338z"/><path fill="#DD4A4A" d="m27.252 48.673-1.983-1.153-.091-31.401 1.983 1.153z"/><path fill="#F25A5A" d="m27.251 48.674-1.983-1.153-.062-21.587 1.982 1.153z"/><path fill="#DD4A4A" d="m27.251 48.674-1.983-1.153-.034-11.771 1.983 1.152z"/><path fill="#F25A5A" d="m27.161 17.272-1.983-1.153 11.2-6.466 1.983 1.152z"/><path fill="#DD4A4A" d="m34.905 12.801-7.745 4.47-1.983-1.151 7.745-4.472z"/><path fill="#F25A5A" d="m31.449 14.796-4.289 2.475-1.983-1.151 4.289-2.476z"/><path fill="#CC4848" d="m38.361 10.805.003.986-10.342 5.971.088 30.415-.858.496-.091-31.401z"/><path fill="#FFF" d="M18.226 26c2.682 1.547 4.908 5.038 5.393 8.236.105.69-.323 1.028-.88.706l-9.06-5.23c-.56-.323-.983-1.153-.874-1.72.5-2.63 2.74-3.541 5.421-1.993zm.019-6.502c1.349.778 2.44 2.667 2.435 4.216-.005 1.551-1.102 2.175-2.451 1.397-1.35-.78-2.44-2.667-2.436-4.219.004-1.548 1.102-2.174 2.452-1.394z"/></svg>