<svg xmlns="http://www.w3.org/2000/svg" viewBox="0 0 51 51"><path fill="#0074D1" d="m15.421 49.5-5.656-3.287-.085-29.76 5.656 3.287z"/><path fill="#82C6E0" d="m15.421 49.5-5.656-3.287-.055-19.329 5.656 3.287z"/><path fill="#3F9AE0" d="m15.421 49.5-5.656-3.287-.025-8.898 5.656 3.287z"/><path fill="#B5E5F4" d="M15.336 19.74 9.68 16.453 35.579 1.5l5.657 3.287z"/><path fill="#82C6E0" d="M34.232 8.831 15.336 19.74 9.68 16.453l18.896-10.91z"/><path fill="#3F9AE0" d="m23.2 15.2-7.864 4.54-5.656-3.287 7.864-4.54z"/><path fill="#006CB5" d="m41.236 4.787.084 29.76L15.421 49.5l-.085-29.76z"/><path fill="#E9E8E6" d="M37.803 9.827 18.002 21.259l.065 22.773 19.8-11.432z"/><path fill="#3F9AE0" d="m38.588 9.374-.785.453.064 22.773.787.369z"/><path fill="#82C6E0" d="m37.867 32.6-19.8 11.432.002.881 20.586-11.885-.001-.059z"/><path fill="#81D672" d="m23.429 27.778 2.865 4.875-1.678 5.569 3.696-2.134-9.703 5.602z"/><path fill="#EFC348" d="M25.985 22.716c.86-.497 1.56-.097 1.563.892.003.989-.693 2.193-1.553 2.69-.86.497-1.56.098-1.563-.89-.003-.99.692-2.195 1.553-2.692z"/><path fill="#F25A5A" d="m30.938 18.552 6.322 12.37-8.948 5.166-3.696 2.134 1.678-5.569z"/><path fill="#FFF" d="M18.157 18.966a.203.203 0 0 1 0 .39 3.983 3.983 0 0 0-2.541 2.54.203.203 0 0 1-.39 0 3.976 3.976 0 0 0-2.54-2.54.203.203 0 0 1 0-.39 3.983 3.983 0 0 0 2.54-2.541.203.203 0 0 1 .39 0 3.983 3.983 0 0 0 2.54 2.54z"/></svg>