<svg xmlns="http://www.w3.org/2000/svg" viewBox="0 0 51 51"><path fill="#B2B0AF" d="m12.44 49.386-4.862-2.82c-.304-.177-.492-.553-.493-1.087l4.862 2.82c.002.535.19.91.494 1.087z"/><path fill="#D6D4D2" d="m11.947 48.3-4.862-2.821-.057-19.878 4.863 2.821z"/><path fill="#C4C2C0" d="m11.947 48.3-4.862-2.821-.036-12.491 4.863 2.821z"/><path fill="#B2B0AF" d="m11.948 48.3-4.863-2.821-.014-5.104 4.861 2.822z"/><path fill="#8D9799" d="m11.891 28.422-4.863-2.821L39.837 7.548l4.091 2.377z"/><path fill="#E9E8E6" d="m43.928 9.925.056 19.878c.003 1.075-.752 2.382-1.686 2.922L13.644 49.268c-.935.54-1.694.107-1.697-.968l-.056-19.878L43.928 9.925z"/><path fill="#FFF" d="M13.493 47.84a.676.676 0 0 1-.056-.31l-.052-18.586L42.44 12.17l.05 17.617c.002.733-.557 1.7-1.196 2.07L13.8 47.73c-.176.101-.279.11-.307.11z"/><path fill="#6DCB60" d="m39.498 10.263-4.09-2.377c.231-.133.44-.361.591-.623l4.09 2.377c-.15.262-.36.49-.59.623z"/><path fill="#6DCB60" d="m35.997 5.907 4.09 2.377c.15.087.243.273.244.537.001.265-.092.558-.242.82L36 7.262c.15-.26.242-.555.242-.82-.001-.263-.094-.45-.244-.536z"/><path fill="#81D672" d="m38.56 1.614 4.862 2.82c-.308-.178-.734-.153-1.205.12l-4.863-2.821c.471-.272.898-.298 1.206-.119zM16.313 23.653l-4.09-2.377 23.192-13.39 4.09 2.377z"/><path fill="#6DCB60" d="m16.313 23.653-4.09-2.377 7.632-4.406 4.091 2.377zM15.71 23.712l-4.09-2.377c.152.088.363.076.596-.059l4.09 2.377c-.233.135-.443.147-.595.059zM11.891 28.422l-4.863-2.821-.012-4.406 4.862 2.82z"/><path fill="#81D672" d="m13.564 21.096-4.863-2.821L37.354 1.733l4.863 2.82z"/><path fill="#6DCB60" d="m13.564 21.096-4.863-2.821 16.037-9.259 4.863 2.821z"/><path fill="#3DB542" d="M42.217 4.553c.935-.54 1.695-.108 1.698.966l.013 4.406L11.89 28.422l-.013-4.407c-.003-1.073.752-2.38 1.686-2.92L42.217 4.554zM40.089 9.64c.15-.26.243-.555.242-.819-.001-.532-.376-.745-.838-.479l-23.192 13.39c-.231.134-.44.361-.591.623a1.691 1.691 0 0 0-.243.821c.002.53.377.744.84.477l23.192-13.39c.23-.133.44-.36.59-.623"/><path fill="#81D672" d="m11.878 24.015-4.862-2.82c-.003-1.074.751-2.38 1.685-2.92l4.863 2.82c-.934.54-1.689 1.847-1.686 2.92z"/><path fill="#E9E8E6" d="m40.775 15.88.009 2.995-12.998 7.504-.008-2.995zM35.142 29.735l-7.334 4.234.006 2.235 7.328-4.231zM40.799 23.805 27.801 31.31l-.006-2.236 12.997-7.504z"/><path fill="#D6D4D2" d="m35.306 22.037 5.478-3.162-.009-2.995-5.469 3.157zM35.306 26.977l5.493-3.172-.007-2.235-5.486 3.168z"/><path fill="#3F9AE0" d="m25.58 37.494-10.482 6.052-.036-12.821 10.482-6.051z"/><path fill="#FFF" d="M20.294 29.29c1.05-.606 1.906-.12 1.91 1.088.003 1.207-.847 2.676-1.898 3.283-1.05.606-1.904.12-1.908-1.087-.003-1.208.846-2.677 1.896-3.283zm.013 5.06c2.103-1.215 3.83-.35 4 1.924.013.189-.126.437-.297.536l-7.377 4.258c-.172.1-.31.012-.297-.192.155-2.46 1.872-5.315 3.97-6.527z"/></svg>