<svg id="app" enable-background="new 0 0 300 300" height="512" viewBox="0 0 300 300" width="512" xmlns="http://www.w3.org/2000/svg"><g><path d="m234 81.277c6.617 0 12-5.383 12-12s-5.383-12-12-12-12 5.383-12 12 5.383 12 12 12zm0-16c2.207 0 4 1.795 4 4s-1.793 4-4 4-4-1.795-4-4 1.793-4 4-4z"/><path d="m88.172 79.781c2.502.005 4.533-2.02 4.538-4.521s-2.02-4.533-4.521-4.538-4.533 2.02-4.538 4.521c-.004 2.502 2.02 4.534 4.521 4.538z"/><path d="m208.172 51.781c2.502.005 4.533-2.02 4.538-4.521s-2.02-4.533-4.521-4.538-4.533 2.02-4.538 4.521c-.004 2.502 2.02 4.534 4.521 4.538z"/><path d="m113.516 65.762c.781.781 1.805 1.172 2.828 1.172s2.047-.391 2.828-1.172l2.828-2.828 2.828 2.828c.781.781 1.805 1.172 2.828 1.172s2.047-.391 2.828-1.172c1.562-1.562 1.562-4.094 0-5.656l-2.828-2.828 2.828-2.828c1.562-1.562 1.562-4.094 0-5.656s-4.094-1.562-5.656 0l-2.828 2.827-2.828-2.828c-1.562-1.562-4.094-1.562-5.656 0s-1.562 4.094 0 5.656l2.828 2.828-2.828 2.828c-1.563 1.563-1.563 4.094 0 5.657z"/><path d="m274 249.277h-10.162c3.817-4.251 6.162-9.85 6.162-16 0-2.209-1.789-4-4-4h-8v-113.4c0-8.051-6.977-14.6-15.551-14.6h-184.898c-8.574 0-15.551 6.549-15.551 14.6v113.4h-8c-2.211 0-4 1.791-4 4 0 6.15 2.345 11.749 6.162 16h-10.162c-2.211 0-4 1.791-4 4s1.789 4 4 4h248c2.211 0 4-1.791 4-4s-1.789-4-4-4zm-224-133.4c0-3.639 3.387-6.6 7.551-6.6h184.898c4.164 0 7.551 2.961 7.551 6.6v113.4h-80c-2.211 0-4 1.791-4 4 0 2.205-1.793 4-4 4h-24c-2.207 0-4-1.795-4-4 0-2.209-1.789-4-4-4h-80zm4 133.4c-7.441 0-13.715-5.107-15.492-12h88.176c1.652 4.656 6.102 8 11.316 8h24c5.215 0 9.664-3.344 11.316-8h88.176c-1.777 6.893-8.051 12-15.492 12z"/><path d="m114 128.137c0-3.783-3.078-6.859-6.859-6.859h-13.141c-2.211 0-4 1.791-4 4v24c0 2.209 1.789 4 4 4s4-1.791 4-4v-8h9.141c3.781 0 6.859-3.076 6.859-6.859zm-8 5.14h-8v-4h8z"/><path d="m122 153.277c2.211 0 4-1.791 4-4v-8h9.141c3.781 0 6.859-3.076 6.859-6.859v-6.281c0-3.783-3.078-6.859-6.859-6.859h-13.141c-2.211 0-4 1.791-4 4v24c0 2.208 1.789 3.999 4 3.999zm4-24h8v4h-8z"/><path d="m65.344 153.223c2.18.367 4.238-1.109 4.602-3.287l.776-4.658h6.558l.776 4.658c.324 1.955 2.02 3.342 3.941 3.342.219 0 .438-.018.66-.055 2.18-.363 3.652-2.424 3.289-4.604l-4-24c-.32-1.928-1.988-3.342-3.945-3.342h-8c-1.957 0-3.625 1.414-3.945 3.342l-4 24c-.365 2.18 1.108 4.24 3.288 4.604zm9.269-23.946 1.333 8h-3.892l1.333-8z"/><path d="m102 161.277h-36c-2.211 0-4 1.791-4 4v56c0 2.209 1.789 4 4 4h36c2.211 0 4-1.791 4-4v-56c0-2.209-1.789-4-4-4zm-4 56h-28v-48h28z"/><path d="m238 221.277v-56c0-2.209-1.789-4-4-4h-116c-2.211 0-4 1.791-4 4v56c0 2.209 1.789 4 4 4h116c2.211 0 4-1.791 4-4zm-8-4h-108v-48h108z"/><path d="m158 129.277h60c2.211 0 4-1.791 4-4s-1.789-4-4-4h-60c-2.211 0-4 1.791-4 4s1.789 4 4 4z"/><path d="m158 141.277h16c2.211 0 4-1.791 4-4s-1.789-4-4-4h-16c-2.211 0-4 1.791-4 4s1.789 4 4 4z"/><path d="m182 137.277c0 2.209 1.789 4 4 4h40c2.211 0 4-1.791 4-4s-1.789-4-4-4h-40c-2.211 0-4 1.791-4 4z"/><path d="m158 153.277h36c2.211 0 4-1.791 4-4s-1.789-4-4-4h-36c-2.211 0-4 1.791-4 4s1.789 4 4 4z"/></g></svg>