<svg id="certificate" enable-background="new 0 0 300 300" height="512" viewBox="0 0 300 300" width="512" xmlns="http://www.w3.org/2000/svg"><g><path d="m222.328 58.496c2.362 0 4.277-1.915 4.277-4.276s-1.915-4.277-4.277-4.277-4.276 1.915-4.276 4.277 1.915 4.276 4.276 4.276z"/><path d="m256.617 89.828h-18.617v-16c0-2.209-1.789-4-4-4h-40c-1.113 0-2.18.465-2.938 1.283l-17.312 18.717h-130.369c-5.172 0-9.381 3.807-9.381 8.484v150.135c0 5.172 4.209 9.381 9.381 9.381h213.236c5.172 0 9.383-4.209 9.383-9.381v-150.135c0-4.677-4.211-8.484-9.383-8.484zm-42.617 112c-2.211 0-4 1.791-4 4v9.735l-12 7.2v-32.741c4.342 2.159 9.11 3.446 14.098 3.71.652.035 1.301.053 1.949.053 5.603 0 11.034-1.294 15.953-3.747v32.726l-12-7.2v-9.735c0-2.21-1.789-4.001-4-4.001zm18.691-23.213c-5.555 4.994-12.699 7.533-20.172 7.129-7.457-.395-14.312-3.67-19.305-9.223s-7.527-12.717-7.129-20.174c.395-7.457 3.668-14.312 9.223-19.307 5.176-4.654 11.75-7.168 18.656-7.168.504 0 1.008.012 1.516.039 7.457.395 14.312 3.67 19.305 9.223s7.527 12.717 7.129 20.174c-.394 7.458-3.668 14.313-9.223 19.307zm-2.691-52.981c-4.342-2.159-9.11-3.446-14.098-3.71-6.289-.341-12.41.978-17.902 3.721v-47.817h32zm-40-41.59v5.784h-5.35zm68 164.403c0 .762-.621 1.381-1.383 1.381h-213.236c-.762 0-1.381-.619-1.381-1.381l-.012-150.066c.072-.164.572-.553 1.393-.553h146.619v33.231c-.014.012-.029.022-.043.035-7.141 6.422-11.355 15.24-11.863 24.832-.508 9.59 2.75 18.805 9.172 25.945.867.964 1.784 1.864 2.734 2.719v45.238c0 1.441.773 2.771 2.027 3.48 1.254.711 2.793.695 4.031-.051l17.942-10.765 17.941 10.766c.633.381 1.348.57 2.059.57.68 0 1.359-.172 1.973-.52 1.254-.709 2.027-2.039 2.027-3.48v-45.23c.014-.012.029-.023.043-.035 7.141-6.422 11.355-15.24 11.863-24.832.508-9.59-2.75-18.805-9.172-25.945-.867-.964-1.784-1.864-2.734-2.719v-33.239h18.617c.82 0 1.324.389 1.383.484z"/><circle cx="54" cy="105.828" r="4"/><circle cx="66" cy="105.828" r="4"/><circle cx="78" cy="105.828" r="4"/><path d="m69.516 60.312c.781.781 1.805 1.172 2.828 1.172s2.047-.391 2.828-1.172l2.828-2.828 2.828 2.828c.781.781 1.805 1.172 2.828 1.172s2.047-.391 2.828-1.172c1.562-1.562 1.562-4.094 0-5.656l-2.828-2.828 2.828-2.828c1.562-1.562 1.562-4.094 0-5.656s-4.094-1.562-5.656 0l-2.828 2.828-2.828-2.828c-1.562-1.562-4.094-1.562-5.656 0s-1.562 4.094 0 5.656l2.828 2.828-2.828 2.828c-1.563 1.563-1.563 4.094 0 5.656z"/><path d="m162 69.828c6.617 0 12-5.383 12-12s-5.383-12-12-12-12 5.383-12 12 5.383 12 12 12zm0-16c2.207 0 4 1.795 4 4s-1.793 4-4 4-4-1.795-4-4 1.793-4 4-4z"/><path d="m110.328 78.496c2.362 0 4.277-1.915 4.277-4.276s-1.915-4.277-4.277-4.277-4.276 1.915-4.276 4.277 1.915 4.276 4.276 4.276z"/><path d="m226.758 145.828-4.008.1-1.281-3.941c-1.07-3.297-4.004-5.428-7.469-5.428-3.469 0-6.398 2.131-7.469 5.428l-1.145 3.842h-4.145c-3.465 0-6.398 2.129-7.469 5.426s.047 6.744 2.852 8.781l3.301 2.275-1.281 3.945c-1.07 3.297.051 6.744 2.855 8.781 1.402 1.018 3.008 1.527 4.613 1.527 1.609 0 3.215-.51 4.617-1.529l3.184-2.436 3.355 2.434c2.797 2.033 6.418 2.041 9.23.004 2.805-2.037 3.926-5.484 2.855-8.783l-1.332-3.781 3.352-2.438c2.805-2.037 3.922-5.484 2.852-8.781s-4.002-5.426-7.467-5.426zm-3.434 10.172c-2.766 2.006-3.914 5.535-2.859 8.783l1.508 3.779-3.355-2.436c-2.766-2.008-6.469-2.008-9.234 0l-3.129 2.6 1.281-3.943c1.055-3.248-.094-6.777-2.855-8.779l-3.438-2.176h4.145c3.406 0 6.41-2.178 7.473-5.428l.992-3.967.008.023v.002l1.285 3.949c1.059 3.242 4.062 5.42 7.469 5.42l4.059-.262z"/><path d="m122.838 149.916c-2.17-.467-4.285.916-4.75 3.074l-12 56c-.463 2.16.914 4.287 3.074 4.75.283.061.564.088.842.088 1.846 0 3.506-1.285 3.908-3.162l12-56c.463-2.16-.914-4.287-3.074-4.75z"/><path d="m101.43 167.77c-1.139-1.893-3.596-2.506-5.488-1.371l-20 12c-1.205.723-1.941 2.025-1.941 3.43s.736 2.707 1.941 3.43l20 12c.645.387 1.354.57 2.055.57 1.359 0 2.684-.691 3.434-1.941 1.137-1.895.523-4.352-1.371-5.488l-14.283-8.57 14.283-8.57c1.893-1.139 2.506-3.596 1.37-5.49z"/><path d="m156.059 178.398-20-12c-1.898-1.141-4.352-.52-5.488 1.371-1.137 1.895-.523 4.352 1.371 5.488l14.285 8.57-14.285 8.57c-1.895 1.137-2.508 3.594-1.371 5.488.75 1.25 2.074 1.941 3.434 1.941.699 0 1.41-.184 2.055-.57l20-12c1.203-.723 1.941-2.025 1.941-3.43s-.739-2.705-1.942-3.428z"/></g></svg>