<svg id="coder-b" enable-background="new 0 0 300 300" height="512" viewBox="0 0 300 300" width="512" xmlns="http://www.w3.org/2000/svg"><g><path d="m71.723 149.473 6.848 11.414c.723 1.205 2.025 1.941 3.43 1.941s2.707-.736 3.43-1.941l6.848-11.414c17.324-4.608 29.721-20.582 29.721-38.645 0-22.057-17.943-40-40-40s-40 17.943-40 40c0 18.063 12.396 34.037 29.723 38.645zm10.277-70.645c17.645 0 32 14.355 32 32 0 14.922-10.574 28.062-25.145 31.244-1.076.236-2.01.904-2.576 1.85l-4.279 7.133-4.279-7.133c-.566-.945-1.5-1.613-2.576-1.85-14.571-3.181-25.145-16.322-25.145-31.244 0-17.644 14.355-32 32-32z"/><path d="m151.515 55.312c.781.781 1.805 1.172 2.828 1.172s2.047-.391 2.828-1.172l2.829-2.828 2.828 2.828c.781.781 1.805 1.172 2.828 1.172s2.047-.391 2.828-1.172c1.562-1.562 1.562-4.094 0-5.656l-2.828-2.828 2.828-2.828c1.562-1.562 1.562-4.094 0-5.656s-4.094-1.562-5.656 0l-2.828 2.828-2.828-2.828c-1.562-1.562-4.094-1.562-5.656 0s-1.562 4.094 0 5.656l2.828 2.828-2.828 2.828c-1.563 1.563-1.563 4.094-.001 5.656z"/><path d="m206 65.357c2.501 0 4.53-2.028 4.53-4.529 0-2.502-2.028-4.53-4.53-4.53s-4.53 2.028-4.53 4.53 2.028 4.529 4.53 4.529z"/><path d="m250 81.357c2.501 0 4.53-2.028 4.53-4.529 0-2.502-2.028-4.53-4.53-4.53s-4.53 2.028-4.53 4.53 2.028 4.529 4.53 4.529z"/><path d="m90.672 121.047c.771 1.156 2.039 1.781 3.332 1.781.762 0 1.533-.217 2.215-.672l12-8c1.113-.742 1.781-1.99 1.781-3.328s-.668-2.586-1.781-3.328l-12-8c-1.838-1.229-4.322-.73-5.547 1.109-1.225 1.838-.729 4.322 1.109 5.547l7.008 4.672-7.008 4.672c-1.838 1.225-2.334 3.709-1.109 5.547z"/><path d="m69.996 122.828c1.293 0 2.561-.625 3.332-1.781 1.225-1.838.729-4.322-1.109-5.547l-7.008-4.672 7.008-4.672c1.838-1.225 2.334-3.709 1.109-5.547-1.227-1.84-3.709-2.338-5.547-1.109l-12 8c-1.113.742-1.781 1.99-1.781 3.328s.668 2.586 1.781 3.328l12 8c.682.455 1.453.672 2.215.672z"/><path d="m77.215 134.75c.266.053.529.078.789.078 1.867 0 3.539-1.314 3.918-3.215l8-40c.434-2.166-.971-4.273-3.137-4.707-2.186-.438-4.275.973-4.707 3.137l-8 40c-.434 2.166.971 4.273 3.137 4.707z"/><path d="m205.183 161.248c.922-1.209 1.074-2.836.398-4.197s-2.062-2.223-3.582-2.223h-16c-1.52 0-2.906.861-3.582 2.223s-.523 2.988.398 4.197c2.695 3.547 6.77 5.58 11.184 5.58s8.489-2.033 11.184-5.58z"/><circle cx="178" cy="138.828" r="4"/><circle cx="210" cy="138.828" r="4"/><path d="m90 202.828c-6.617 0-12 5.383-12 12s5.383 12 12 12 12-5.383 12-12-5.383-12-12-12zm0 16c-2.205 0-4-1.795-4-4s1.795-4 4-4 4 1.795 4 4-1.795 4-4 4z"/><path d="m274 254.828h-8v-24.963c0-21.525-18.723-39.037-41.734-39.037h-10.266v-6.421c14.038-5.001 24-17.257 24-31.579v-14-20-4c0-7.443-5.109-13.715-12.004-15.494-.164-9.129-7.645-16.506-16.812-16.506h-42.367c-9.273 0-16.816 7.543-16.816 16.816v19.184c0 2.209 1.789 4 4 4h8v30c0 14.322 9.962 26.578 24 31.579v6.421h-11.961c-9.916 0-18.625 4.871-23.612 12.184l-4.462-32.725c-.273-1.98-1.965-3.459-3.965-3.459h-116.001c-1.154 0-2.254.5-3.014 1.369-.76.871-1.105 2.027-.949 3.172l12 88c.27 1.98 1.963 3.459 3.963 3.459h236c2.211 0 4-1.791 4-4s-1.789-4-4-4zm-232.508 0-10.91-80h107.926l10.91 80zm116.508-140v-15.183c0-4.861 3.953-8.816 8.816-8.816h42.367c4.863 0 8.816 3.955 8.816 8.816v3.184c0 2.209 1.789 4 4 4 4.41 0 8 3.588 8 8v4 14.926c-2.391-1.385-4-3.971-4-6.926v-8c0-2.209-1.789-4-4-4h-63.999zm12 38v-30h48v4c0 7.433 5.118 13.643 12 15.432v10.568c0 14.336-13.457 26-30 26s-30-11.664-30-26zm40 46h3.798c-.981 6.767-6.764 12-13.798 12s-12.817-5.233-13.798-12h3.798c2.211 0 4-1.791 4-4v-8.466c1.959.28 3.954.466 6 .466s4.041-.186 6-.466v8.466c0 2.209 1.789 4 4 4zm-14.14 56h-38.367l-.545-4h41.58zm62.14 0h-16v-20c0-2.209-1.789-4-4-4s-4 1.791-4 4v20h-4-24.525l3.854-5.781c.82-1.229.895-2.807.199-4.105-.695-1.301-2.051-2.113-3.527-2.113h-32v-8c0-2.209-1.789-4-4-4s-4 1.791-4 4v8h-10.143l-1.858-13.617v-12.062c0-10.104 8.988-18.322 20.039-18.322h4.062c1.015 11.196 10.445 20 21.899 20s20.883-8.804 21.899-20h2.367c18.602 0 33.734 13.924 33.734 31.037z"/></g></svg>