<svg id="coder-g" enable-background="new 0 0 300 300" height="512" viewBox="0 0 300 300" width="512" xmlns="http://www.w3.org/2000/svg"><g><path d="m71.723 149.473 6.848 11.414c.723 1.205 2.025 1.941 3.43 1.941s2.707-.736 3.43-1.941l6.848-11.414c17.324-4.608 29.721-20.582 29.721-38.645 0-22.057-17.943-40-40-40s-40 17.943-40 40c0 18.063 12.396 34.037 29.723 38.645zm10.277-70.645c17.645 0 32 14.355 32 32 0 14.922-10.574 28.062-25.145 31.244-1.076.236-2.01.904-2.576 1.85l-4.279 7.133-4.279-7.133c-.566-.945-1.5-1.613-2.576-1.85-14.571-3.181-25.145-16.322-25.145-31.244 0-17.644 14.355-32 32-32z"/><path d="m194 166.828c4.414 0 8.49-2.033 11.186-5.58.918-1.209 1.072-2.836.398-4.197-.676-1.361-2.064-2.223-3.584-2.223h-16c-1.52 0-2.908.861-3.584 2.223-.674 1.361-.52 2.988.398 4.197 2.696 3.547 6.772 5.58 11.186 5.58z"/><circle cx="210" cy="138.828" r="4"/><circle cx="178" cy="138.828" r="4"/><path d="m163.515 55.312c.781.781 1.805 1.172 2.828 1.172s2.047-.391 2.828-1.172l2.829-2.828 2.828 2.828c.781.781 1.805 1.172 2.828 1.172s2.047-.391 2.828-1.172c1.562-1.562 1.562-4.094 0-5.656l-2.828-2.828 2.828-2.828c1.562-1.562 1.562-4.094 0-5.656s-4.094-1.562-5.656 0l-2.828 2.828-2.828-2.828c-1.562-1.562-4.094-1.562-5.656 0s-1.562 4.094 0 5.656l2.828 2.828-2.828 2.828c-1.563 1.563-1.563 4.094-.001 5.656z"/><path d="m218 65.357c2.501 0 4.53-2.028 4.53-4.529 0-2.502-2.028-4.53-4.53-4.53s-4.53 2.028-4.53 4.53 2.028 4.529 4.53 4.529z"/><path d="m150 81.357c2.501 0 4.53-2.028 4.53-4.529 0-2.502-2.028-4.53-4.53-4.53s-4.53 2.028-4.53 4.53 2.028 4.529 4.53 4.529z"/><path d="m90 202.828c-6.617 0-12 5.383-12 12s5.383 12 12 12 12-5.383 12-12-5.383-12-12-12zm0 16c-2.205 0-4-1.795-4-4s1.795-4 4-4 4 1.795 4 4-1.795 4-4 4z"/><path d="m274 254.828h-8v-24.963c0-12.661-6.086-23.9-15.457-31.037h3.457c2.209 0 4-1.791 4-4v-76.27c0-19.701-15.051-35.73-33.549-35.73h-28.904c-18.498 0-33.547 16.029-33.547 35.73v.27 30 21.982c0 8.66 3.719 16.411 9.545 21.554-10.205 3.627-17.545 13.354-17.545 24.786v12.075l-8.037-58.939c-.27-1.98-1.963-3.459-3.963-3.459h-116c-1.154 0-2.254.5-3.014 1.369-.76.871-1.105 2.027-.949 3.172l12 88c.27 1.98 1.963 3.459 3.963 3.459h236c2.209 0 4-1.791 4-4s-1.791-3.999-4-3.999zm-78.453-164h28.904c14.088 0 25.549 12.439 25.549 27.73v72.27h-23.037-10.506-2.457v-10.421c14.038-5.001 24-17.257 24-31.579v-30c0-2.209-1.791-4-4-4h-40v-4c0-2.209-1.791-4-4-4s-4 1.791-4 4v4h-15.741c1.687-13.529 12.37-24 25.288-24zm-5.547 108c2.209 0 4-1.791 4-4v-12.466c1.959.28 3.954.466 6 .466s4.041-.186 6-.466v12.466c0 2.209 1.791 4 4 4h3.798c-.981 6.767-6.764 12-13.798 12s-12.817-5.233-13.798-12zm-20-76h60v26c0 14.336-13.457 26-30 26s-30-11.664-30-26zm0 46.792c4.136 4.767 9.641 8.522 16 10.787v10.16c-9.002-1.281-16-9.603-16-19.757zm-128.508 85.208-10.91-80h107.926l10.91 80zm120.508-4h36.525l-2.666 4h-33.859zm76 4v-20c0-2.209-1.791-4-4-4s-4 1.791-4 4v20h-24.526l3.854-5.781c.818-1.227.895-2.807.199-4.105-.697-1.301-2.053-2.113-3.527-2.113h-28v-8c0-2.209-1.791-4-4-4s-4 1.791-4 4v8h-8v-25.679c0-9.347 7.06-16.993 16.113-18.099 1.118 11.09 10.507 19.777 21.887 19.777 11.456 0 20.884-8.804 21.899-20h5.064c17.113 0 31.037 13.924 31.037 31.037v24.963z"/><path d="m90.672 121.047c.771 1.156 2.039 1.781 3.332 1.781.762 0 1.533-.217 2.215-.672l12-8c1.113-.742 1.781-1.99 1.781-3.328s-.668-2.586-1.781-3.328l-12-8c-1.84-1.229-4.324-.73-5.547 1.109-1.225 1.838-.729 4.322 1.109 5.547l7.008 4.672-7.008 4.672c-1.838 1.225-2.334 3.709-1.109 5.547z"/><path d="m69.996 122.828c1.293 0 2.561-.625 3.332-1.781 1.225-1.838.729-4.322-1.109-5.547l-7.008-4.672 7.008-4.672c1.838-1.225 2.334-3.709 1.109-5.547-1.229-1.84-3.711-2.338-5.547-1.109l-12 8c-1.113.742-1.781 1.99-1.781 3.328s.668 2.586 1.781 3.328l12 8c.682.455 1.453.672 2.215.672z"/><path d="m77.215 134.75c.266.053.529.078.789.078 1.867 0 3.539-1.314 3.918-3.215l8-40c.434-2.166-.971-4.273-3.137-4.707-2.172-.438-4.277.973-4.707 3.137l-8 40c-.434 2.166.971 4.273 3.137 4.707z"/></g></svg>