<svg id="hello-world" enable-background="new 0 0 300 300" height="512" viewBox="0 0 300 300" width="512" xmlns="http://www.w3.org/2000/svg"><g><path d="m222.328 58.496c2.362 0 4.277-1.915 4.277-4.276s-1.915-4.277-4.277-4.277-4.276 1.915-4.276 4.277 1.915 4.276 4.276 4.276z"/><path d="m256.619 89.828h-213.238c-5.172 0-9.381 3.807-9.381 8.484v150.135c0 5.172 4.209 9.381 9.381 9.381h213.238c5.172 0 9.381-4.209 9.381-9.381v-150.135c0-4.677-4.209-8.484-9.381-8.484zm1.381 158.619c0 .762-.619 1.381-1.381 1.381h-213.238c-.762 0-1.381-.619-1.381-1.381l-.012-150.066c.072-.164.572-.553 1.393-.553h213.238c.82 0 1.32.389 1.381.484z"/><circle cx="54" cy="105.828" r="4"/><circle cx="66" cy="105.828" r="4"/><circle cx="78" cy="105.828" r="4"/><path d="m69.516 60.312c.781.781 1.805 1.172 2.828 1.172s2.047-.391 2.828-1.172l2.828-2.828 2.828 2.828c.781.781 1.805 1.172 2.828 1.172s2.047-.391 2.828-1.172c1.562-1.562 1.562-4.094 0-5.656l-2.828-2.828 2.828-2.828c1.562-1.562 1.562-4.094 0-5.656s-4.094-1.562-5.656 0l-2.828 2.828-2.828-2.828c-1.562-1.562-4.094-1.562-5.656 0s-1.562 4.094 0 5.656l2.828 2.828-2.828 2.828c-1.563 1.563-1.563 4.094 0 5.656z"/><path d="m162 69.828c6.617 0 12-5.383 12-12s-5.383-12-12-12-12 5.383-12 12 5.383 12 12 12zm0-16c2.205 0 4 1.795 4 4s-1.795 4-4 4-4-1.795-4-4 1.795-4 4-4z"/><path d="m110.328 78.496c2.362 0 4.277-1.915 4.277-4.276s-1.915-4.277-4.277-4.277-4.276 1.915-4.276 4.277 1.915 4.276 4.276 4.276z"/><path d="m186 201.828h-8v-20c0-2.209-1.791-4-4-4s-4 1.791-4 4v24c0 2.209 1.791 4 4 4h12c2.209 0 4-1.791 4-4s-1.791-4-4-4z"/><path d="m150 169.828h12c2.209 0 4-1.791 4-4s-1.791-4-4-4h-8v-20c0-2.209-1.791-4-4-4s-4 1.791-4 4v24c0 2.209 1.791 4 4 4z"/><path d="m186 161.828h-8v-20c0-2.209-1.791-4-4-4s-4 1.791-4 4v24c0 2.209 1.791 4 4 4h12c2.209 0 4-1.791 4-4s-1.791-4-4-4z"/><path d="m118 165.828v-24c0-2.209-1.791-4-4-4s-4 1.791-4 4v8h-8v-8c0-2.209-1.791-4-4-4s-4 1.791-4 4v24c0 2.209 1.791 4 4 4s4-1.791 4-4v-8h8v8c0 2.209 1.791 4 4 4s4-1.791 4-4z"/><path d="m204.664 169.828c5.148 0 9.336-4.188 9.336-9.336v-13.328c0-5.148-4.188-9.336-9.336-9.336h-5.328c-5.148 0-9.336 4.188-9.336 9.336v13.328c0 5.148 4.188 9.336 9.336 9.336zm-6.664-9.336v-13.328c0-.736.6-1.336 1.336-1.336h5.328c.736 0 1.336.6 1.336 1.336v13.328c0 .736-.6 1.336-1.336 1.336h-5.328c-.736 0-1.336-.599-1.336-1.336z"/><path d="m138 200.492v-13.328c0-5.148-4.188-9.336-9.336-9.336h-5.328c-5.148 0-9.336 4.188-9.336 9.336v13.328c0 5.148 4.188 9.336 9.336 9.336h5.328c5.148 0 9.336-4.187 9.336-9.336zm-8 0c0 .736-.6 1.336-1.336 1.336h-5.328c-.736 0-1.336-.6-1.336-1.336v-13.328c0-.736.6-1.336 1.336-1.336h5.328c.736 0 1.336.6 1.336 1.336z"/><path d="m126 169.828h12c2.209 0 4-1.791 4-4s-1.791-4-4-4h-8v-4h8c2.209 0 4-1.791 4-4s-1.791-4-4-4h-8v-4h8c2.209 0 4-1.791 4-4s-1.791-4-4-4h-12c-2.209 0-4 1.791-4 4v24c0 2.209 1.791 4 4 4z"/><path d="m208.713 177.828h-10.713c-2.209 0-4 1.791-4 4v24c0 2.209 1.791 4 4 4h10.713c5.121 0 9.287-4.166 9.287-9.287v-13.426c0-5.121-4.166-9.287-9.287-9.287zm1.287 22.713c0 .709-.578 1.287-1.287 1.287h-6.713v-16h6.713c.709 0 1.287.578 1.287 1.287z"/><path d="m150 205.828v-4.432l9.51 7.562c.736.586 1.615.869 2.488.869 1.176 0 2.344-.518 3.133-1.51 1.375-1.73 1.088-4.246-.641-5.621l-6.125-4.869c4.219-.055 7.635-3.504 7.635-7.736v-4.527c0-4.266-3.471-7.736-7.736-7.736h-12.264c-2.209 0-4 1.791-4 4v24c0 2.209 1.791 4 4 4s4-1.791 4-4zm0-20.088 8-.176.264 4.264h-8.264z"/><path d="m106 177.828c-2.209 0-4 1.791-4 4v10.789l-.672-1.008c-1.484-2.227-5.172-2.227-6.656 0l-.672 1.008v-10.789c0-2.209-1.791-4-4-4s-4 1.791-4 4v24c0 1.762 1.154 3.318 2.842 3.828 1.686.514 3.508-.145 4.486-1.609l4.672-7.008 4.672 7.008c.756 1.133 2.016 1.781 3.328 1.781.387 0 .775-.055 1.158-.172 1.688-.51 2.842-2.066 2.842-3.828v-24c0-2.209-1.791-4-4-4z"/><path d="m150.328 225.943c-2.362 0-4.276 1.915-4.276 4.277s1.915 4.276 4.276 4.276 4.277-1.915 4.277-4.276-1.915-4.277-4.277-4.277z"/><path d="m138.328 225.943c-2.362 0-4.276 1.915-4.276 4.277s1.915 4.276 4.276 4.276 4.277-1.915 4.277-4.276-1.915-4.277-4.277-4.277z"/><path d="m162.328 225.943c-2.362 0-4.276 1.915-4.276 4.277s1.915 4.276 4.276 4.276 4.277-1.915 4.277-4.276-1.915-4.277-4.277-4.277z"/></g></svg>