<svg id="html" enable-background="new 0 0 300 300" height="512" viewBox="0 0 300 300" width="512" xmlns="http://www.w3.org/2000/svg"><g><path d="m52 60c-7.719 0-14 6.281-14 14s6.281 14 14 14 14-6.281 14-14-6.281-14-14-14zm0 20c-3.309 0-6-2.691-6-6s2.691-6 6-6 6 2.691 6 6-2.691 6-6 6z"/><circle cx="74" cy="164" r="4"/><circle cx="62" cy="120" r="4"/><path d="m130 104h44c2.211 0 4-1.791 4-4v-12c0-2.209-1.789-4-4-4h-44c-2.211 0-4 1.791-4 4v12c0 2.209 1.789 4 4 4zm4-12h36v4h-36z"/><path d="m130 140h44c2.211 0 4-1.791 4-4v-12c0-2.209-1.789-4-4-4h-44c-2.211 0-4 1.791-4 4v12c0 2.209 1.789 4 4 4zm4-12h36v4h-36z"/><path d="m258 180h-4v-104c0-1.061-.422-2.078-1.172-2.828l-32-32c-.75-.75-1.766-1.172-2.828-1.172h-120c-6.617 0-12 5.383-12 12v196c0 6.617 5.383 12 12 12h144c6.617 0 12-5.383 12-12v-12h4c2.211 0 4-1.791 4-4v-48c0-2.209-1.789-4-4-4zm-36-126.344 18.344 18.344h-18.344zm24 194.344c0 2.205-1.793 4-4 4h-144c-2.207 0-4-1.795-4-4v-196c0-2.205 1.793-4 4-4h116v28c0 2.209 1.789 4 4 4h28v100h-116c-2.211 0-4 1.791-4 4v48c0 2.209 1.789 4 4 4h116zm8-20h-120v-40h120z"/><path d="m146 224c2.211 0 4-1.791 4-4v-8h8v8c0 2.209 1.789 4 4 4s4-1.791 4-4v-24c0-2.209-1.789-4-4-4s-4 1.791-4 4v8h-8v-8c0-2.209-1.789-4-4-4s-4 1.791-4 4v24c0 2.209 1.789 4 4 4z"/><path d="m130 116h52c2.211 0 4-1.791 4-4s-1.789-4-4-4h-52c-2.211 0-4 1.791-4 4s1.789 4 4 4z"/><path d="m130 152h24c2.211 0 4-1.791 4-4s-1.789-4-4-4h-24c-2.211 0-4 1.791-4 4s1.789 4 4 4z"/><path d="m130 164h64c2.211 0 4-1.791 4-4s-1.789-4-4-4h-64c-2.211 0-4 1.791-4 4s1.789 4 4 4z"/><path d="m194 116h20c2.211 0 4-1.791 4-4s-1.789-4-4-4h-20c-2.211 0-4 1.791-4 4s1.789 4 4 4z"/><path d="m214 144h-48c-2.211 0-4 1.791-4 4s1.789 4 4 4h48c2.211 0 4-1.791 4-4s-1.789-4-4-4z"/><path d="m174 200h4v20c0 2.209 1.789 4 4 4s4-1.791 4-4v-20h4c2.211 0 4-1.791 4-4s-1.789-4-4-4h-16c-2.211 0-4 1.791-4 4s1.789 4 4 4z"/><path d="m202 224c2.211 0 4-1.791 4-4v-14.344l1.172 1.172c1.562 1.562 4.094 1.562 5.656 0l1.172-1.172v14.344c0 2.209 1.789 4 4 4s4-1.791 4-4v-24c0-1.617-.973-3.076-2.469-3.695-1.496-.617-3.215-.277-4.359.867l-5.172 5.172-5.172-5.172c-1.141-1.143-2.859-1.482-4.359-.867-1.496.619-2.469 2.078-2.469 3.695v24c0 2.209 1.789 4 4 4z"/><path d="m230 224h12c2.211 0 4-1.791 4-4s-1.789-4-4-4h-8v-20c0-2.209-1.789-4-4-4s-4 1.791-4 4v24c0 2.209 1.789 4 4 4z"/></g></svg>