<svg id="php" enable-background="new 0 0 300 300" height="512" viewBox="0 0 300 300" width="512" xmlns="http://www.w3.org/2000/svg"><g><path d="m52 60c-7.719 0-14 6.281-14 14s6.281 14 14 14 14-6.281 14-14-6.281-14-14-14zm0 20c-3.309 0-6-2.691-6-6s2.691-6 6-6 6 2.691 6 6-2.691 6-6 6z"/><circle cx="74" cy="164" r="4"/><circle cx="62" cy="120" r="4"/><path d="m130 116h80c2.209 0 4-1.791 4-4v-12c0-2.209-1.791-4-4-4h-80c-2.209 0-4 1.791-4 4v12c0 2.209 1.791 4 4 4zm4-12h72v4h-72z"/><path d="m130 140h80c2.209 0 4-1.791 4-4v-12c0-2.209-1.791-4-4-4h-80c-2.209 0-4 1.791-4 4v12c0 2.209 1.791 4 4 4zm4-12h72v4h-72z"/><path d="m130 164h80c2.209 0 4-1.791 4-4v-12c0-2.209-1.791-4-4-4h-80c-2.209 0-4 1.791-4 4v12c0 2.209 1.791 4 4 4zm4-12h72v4h-72z"/><path d="m258 180h-4v-104c0-1.061-.422-2.078-1.172-2.828l-32-32c-.75-.75-1.767-1.172-2.828-1.172h-120c-6.617 0-12 5.383-12 12v196c0 6.617 5.383 12 12 12h144c6.617 0 12-5.383 12-12v-12h4c2.209 0 4-1.791 4-4v-48c0-2.209-1.791-4-4-4zm-36-126.344 18.344 18.344h-18.344zm24 194.344c0 2.205-1.795 4-4 4h-144c-2.205 0-4-1.795-4-4v-196c0-2.205 1.795-4 4-4h116v28c0 2.209 1.791 4 4 4h28v100h-116c-2.209 0-4 1.791-4 4v48c0 2.209 1.791 4 4 4h116zm8-20h-120v-40h120z"/><path d="m158 224c2.209 0 4-1.791 4-4v-8h9.141c3.783 0 6.859-3.076 6.859-6.859v-6.281c0-3.783-3.076-6.859-6.859-6.859h-13.141c-2.209 0-4 1.791-4 4v24c0 2.208 1.791 3.999 4 3.999zm4-24h8v4h-8z"/><path d="m214 224c2.209 0 4-1.791 4-4v-8h9.141c3.783 0 6.859-3.076 6.859-6.859v-6.281c0-3.783-3.076-6.859-6.859-6.859h-13.141c-2.209 0-4 1.791-4 4v24c0 2.208 1.791 3.999 4 3.999zm4-24h8v4h-8z"/><path d="m186 224c2.209 0 4-1.791 4-4v-8h8v8c0 2.209 1.791 4 4 4s4-1.791 4-4v-24c0-2.209-1.791-4-4-4s-4 1.791-4 4v8h-8v-8c0-2.209-1.791-4-4-4s-4 1.791-4 4v24c0 2.209 1.791 4 4 4z"/></g></svg>