<svg id="python" enable-background="new 0 0 300 300" height="512" viewBox="0 0 300 300" width="512" xmlns="http://www.w3.org/2000/svg"><g><path d="m206 61.891c6.617 0 12-5.383 12-12s-5.383-12-12-12-12 5.383-12 12 5.383 12 12 12zm0-16c2.205 0 4 1.795 4 4s-1.795 4-4 4-4-1.795-4-4 1.795-4 4-4z"/><path d="m118.397 56.26c2.362 0 4.276-1.915 4.276-4.276s-1.915-4.276-4.276-4.276-4.277 1.915-4.277 4.276 1.915 4.276 4.277 4.276z"/><path d="m49.375 52.938c.781.781 1.805 1.172 2.828 1.172s2.047-.391 2.828-1.172l3.172-3.172 3.172 3.172c.781.781 1.805 1.172 2.828 1.172s2.047-.391 2.828-1.172c1.562-1.562 1.562-4.094 0-5.656l-3.172-3.172 3.172-3.172c1.562-1.562 1.562-4.094 0-5.656s-4.094-1.562-5.656 0l-3.172 3.172-3.172-3.172c-1.562-1.562-4.094-1.562-5.656 0s-1.562 4.094 0 5.656l3.172 3.172-3.172 3.172c-1.563 1.562-1.563 4.093 0 5.656z"/><path d="m259.67 73.891h-219.34c-3.49 0-6.33 2.84-6.33 6.33v147.34c0 3.49 2.84 6.33 6.33 6.33h77.67v24h-8c-2.209 0-4 1.791-4 4s1.791 4 4 4h80c2.209 0 4-1.791 4-4s-1.791-4-4-4h-8v-24h77.67c3.49 0 6.33-2.84 6.33-6.33v-147.34c0-3.491-2.84-6.33-6.33-6.33zm-1.67 8v116h-24v-28h8c2.209 0 4-1.791 4-4v-72c0-2.209-1.791-4-4-4h-188c-2.209 0-4 1.791-4 4v72c0 2.209 1.791 4 4 4h44v28h-56v-116zm-152 116v-40h120v40zm124-48h-128c-2.209 0-4 1.791-4 4v8h-40v-64h180v64h-4v-8c0-2.209-1.791-4-4-4zm-56 108h-48v-24h48zm-132-32v-20h216v20z"/><path d="m170 109.891c-2.209 0-4 1.791-4 4v8h-8v-8c0-2.209-1.791-4-4-4s-4 1.791-4 4v24c0 2.209 1.791 4 4 4s4-1.791 4-4v-8h8v8c0 2.209 1.791 4 4 4s4-1.791 4-4v-24c0-2.209-1.791-4-4-4z"/><path d="m83.141 109.891h-13.141c-2.209 0-4 1.791-4 4v24c0 2.209 1.791 4 4 4s4-1.791 4-4v-8h9.141c3.783 0 6.859-3.076 6.859-6.859v-6.281c0-3.784-3.076-6.86-6.859-6.86zm-1.141 12h-8v-4h8z"/><path d="m142 109.891h-16c-2.209 0-4 1.791-4 4s1.791 4 4 4h4v20c0 2.209 1.791 4 4 4s4-1.791 4-4v-20h4c2.209 0 4-1.791 4-4s-1.791-4-4-4z"/><path d="m192.664 109.891h-5.328c-5.148 0-9.336 4.188-9.336 9.336v13.328c0 5.148 4.188 9.336 9.336 9.336h5.328c5.148 0 9.336-4.188 9.336-9.336v-13.328c0-5.149-4.188-9.336-9.336-9.336zm1.336 22.664c0 .736-.6 1.336-1.336 1.336h-5.328c-.736 0-1.336-.6-1.336-1.336v-13.328c0-.736.6-1.336 1.336-1.336h5.328c.736 0 1.336.6 1.336 1.336z"/><path d="m226 109.891c-2.209 0-4 1.791-4 4v6.344l-9.172-9.172c-1.146-1.146-2.867-1.486-4.359-.867-1.494.619-2.469 2.078-2.469 3.695v24c0 2.209 1.791 4 4 4s4-1.791 4-4v-14.344l8 8v6.344c0 2.209 1.791 4 4 4s4-1.791 4-4v-24c0-2.209-1.791-4-4-4z"/><path d="m114 109.891c-2.209 0-4 1.791-4 4v8h-8v-8c0-2.209-1.791-4-4-4s-4 1.791-4 4v12c0 2.209 1.791 4 4 4h12v.486c0 1.938-1.576 3.514-3.514 3.514h-8.486c-2.209 0-4 1.791-4 4s1.791 4 4 4h8.486c6.35 0 11.514-5.164 11.514-11.514v-16.486c0-2.209-1.791-4-4-4z"/><path d="m118 173.891h32c2.209 0 4-1.791 4-4s-1.791-4-4-4h-32c-2.209 0-4 1.791-4 4s1.791 4 4 4z"/><path d="m162 177.891h-44c-2.209 0-4 1.791-4 4s1.791 4 4 4h44c2.209 0 4-1.791 4-4s-1.791-4-4-4z"/><path d="m198 177.891h-24c-2.209 0-4 1.791-4 4s1.791 4 4 4h24c2.209 0 4-1.791 4-4s-1.791-4-4-4z"/></g></svg>