<svg width="797" height="147" xmlns="http://www.w3.org/2000/svg" xmlns:xlink="http://www.w3.org/1999/xlink" xml:space="preserve" overflow="hidden"><defs><filter id="fx0" x="-10%" y="-10%" width="120%" height="120%" filterUnits="userSpaceOnUse" primitiveUnits="userSpaceOnUse"><feComponentTransfer color-interpolation-filters="sRGB"><feFuncR type="discrete" tableValues="1.000000 1.000000"/><feFuncG type="discrete" tableValues="1.000000 1.000000"/><feFuncB type="discrete" tableValues="1.000000 1.000000"/><feFuncA type="linear" slope="0.400000" intercept="0.000000"/></feComponentTransfer><feGaussianBlur stdDeviation="7.638889 7.638889"/></filter><clipPath id="clip1"><rect x="-18" y="242" width="797" height="147"/></clipPath><clipPath id="clip2"><rect x="0.843401" y="1.20343" width="793.313" height="144.593"/></clipPath><clipPath id="clip3"><rect x="0" y="0" width="795" height="147"/></clipPath></defs><g clip-path="url(#clip1)" transform="translate(18 -242)"><g clip-path="url(#clip2)" filter="url(#fx0)" transform="translate(-17 243)"><g clip-path="url(#clip3)"><path d="M28.2601 51.7025C28.2601 38.9545 38.5944 28.6201 51.3424 28.6201L743.658 28.6201C756.406 28.6201 766.74 38.9545 766.74 51.7025L766.74 95.2976C766.74 108.046 756.406 118.38 743.658 118.38L51.3424 118.38C38.5944 118.38 28.2601 108.046 28.2601 95.2976Z" fill="#F2F2F2" fill-rule="evenodd" fill-opacity="0.329412"/><path d="M23.7601 51.4763 24.2971 46.1489 25.9076 40.9606 28.4545 36.2683 31.8242 32.1842 35.9082 28.8146 40.6005 26.2677 45.7888 24.6571 51.1162 24.1201 743.884 24.1201 749.211 24.6571 754.4 26.2677 759.092 28.8146 763.176 32.1842 766.546 36.2683 769.092 40.9606 770.703 46.1489 771.24 51.4763 771.24 95.5239 770.703 100.851 769.092 106.04 766.546 110.732 763.176 114.816 759.092 118.186 754.4 120.732 749.211 122.343 743.884 122.88 51.1162 122.88 45.7888 122.343 40.6005 120.732 35.9082 118.186 31.8242 114.816 28.4545 110.732 25.9076 106.04 24.2971 100.851 23.7601 95.5239ZM25.2601 95.4485 25.7744 100.551 27.2964 105.454 29.7037 109.889 32.8897 113.75 36.7511 116.936 41.1862 119.344 46.0893 120.866 51.1916 121.38 743.808 121.38 748.911 120.866 753.814 119.344 758.249 116.936 762.11 113.75 765.296 109.889 767.704 105.454 769.226 100.551 769.74 95.4485 769.74 51.5517 769.226 46.4495 767.704 41.5463 765.296 37.1112 762.11 33.2497 758.249 30.0638 753.814 27.6565 748.911 26.1344 743.808 25.6201 51.1916 25.6201 46.0893 26.1344 41.1862 27.6565 36.7511 30.0638 32.8897 33.2497 29.7037 37.1112 27.2964 41.5463 25.7744 46.4495 25.2601 51.5517ZM26.7601 51.6271 27.2517 46.75 28.6852 42.1321 30.953 37.954 33.9552 34.3153 37.594 31.313 41.772 29.0452 46.3899 27.6117 51.267 27.1201 743.733 27.1201 748.61 27.6117 753.228 29.0452 757.406 31.313 761.045 34.3153 764.047 37.954 766.315 42.1321 767.748 46.75 768.24 51.6271 768.24 95.373 767.748 100.25 766.315 104.868 764.047 109.046 761.045 112.685 757.406 115.687 753.228 117.955 748.61 119.388 743.733 119.88 51.267 119.88 46.3899 119.388 41.772 117.955 37.594 115.687 33.9552 112.685 30.953 109.046 28.6852 104.868 27.2517 100.25 26.7601 95.373ZM29.7601 95.2222 30.2063 99.649 31.4628 103.697 33.4514 107.36 36.0863 110.554 39.2797 113.189 42.9435 115.177 46.9911 116.434 51.4178 116.88 743.582 116.88 748.009 116.434 752.057 115.177 755.72 113.189 758.914 110.554 761.549 107.36 763.537 103.697 764.794 99.649 765.24 95.2222 765.24 51.778 764.794 47.3512 763.537 43.3036 761.549 39.6398 758.914 36.4463 755.72 33.8114 752.057 31.8228 748.009 30.5663 743.582 30.1201 51.4178 30.1201 46.9911 30.5663 42.9435 31.8228 39.2797 33.8114 36.0863 36.4463 33.4514 39.6398 31.4628 43.3036 30.2063 47.3512 29.7601 51.778ZM31.2601 51.8534 31.6836 47.6518 32.8516 43.8893 34.7006 40.4827 37.1518 37.5118 40.1226 35.0606 43.5292 33.2116 47.2917 32.0436 51.4932 31.6201 743.507 31.6201 747.708 32.0436 751.471 33.2116 754.877 35.0606 757.848 37.5118 760.299 40.4827 762.148 43.8893 763.316 47.6518 763.74 51.8534 763.74 95.1468 763.316 99.3484 762.148 103.111 760.299 106.517 757.848 109.488 754.877 111.94 751.471 113.789 747.708 114.957 743.507 115.38 51.4932 115.38 47.2917 114.957 43.5292 113.789 40.1226 111.94 37.1518 109.488 34.7006 106.517 32.8516 103.111 31.6836 99.3484 31.2601 95.1468ZM32.7601 95.0714 33.1609 99.0478 34.2403 102.525 35.9498 105.675 38.2173 108.423 40.9655 110.69 44.115 112.4 47.5923 113.479 51.5687 113.88 743.431 113.88 747.408 113.479 750.885 112.4 754.035 110.69 756.783 108.423 759.05 105.675 760.76 102.525 761.839 99.0478 762.24 95.0714 762.24 51.9288 761.839 47.9524 760.76 44.475 759.05 41.3256 756.783 38.5773 754.035 36.3098 750.885 34.6004 747.408 33.5209 743.431 33.1201 51.5687 33.1201 47.5923 33.5209 44.115 34.6004 40.9655 36.3098 38.2173 38.5773 35.9498 41.3256 34.2403 44.4751 33.1609 47.9524 32.7601 51.9288Z" fill="#FFFFFF" fill-rule="nonzero" fill-opacity="1"/></g></g><path d="M18.5001 295.13C18.5001 282.632 28.6317 272.5 41.1298 272.5L719.87 272.5C732.368 272.5 742.5 282.632 742.5 295.13L742.5 337.87C742.5 350.368 732.368 360.5 719.87 360.5L41.1298 360.5C28.6317 360.5 18.5001 350.368 18.5001 337.87Z" fill="#F2F2F2" fill-rule="evenodd" fill-opacity="0.329412"/><path d="M13.9167 294.9 14.4458 289.651 16.0349 284.532 18.5478 279.902 21.8724 275.872 25.9018 272.548 30.5315 270.035 35.6507 268.446 40.8994 267.917 720.101 267.917 725.349 268.446 730.469 270.035 735.098 272.548 739.128 275.872 742.452 279.902 744.965 284.532 746.554 289.651 747.083 294.9 747.083 338.101 746.554 343.349 744.965 348.469 742.452 353.098 739.128 357.128 735.098 360.452 730.469 362.965 725.349 364.554 720.101 365.083 40.8994 365.083 35.6507 364.554 30.5315 362.965 25.9018 360.452 21.8724 357.128 18.5478 353.098 16.0349 348.469 14.4458 343.349 13.9167 338.101ZM15.4445 338.024 15.9505 343.043 17.4494 347.872 19.8202 352.24 22.9577 356.042 26.7603 359.18 31.1281 361.551 35.9568 363.05 40.9762 363.556 720.024 363.556 725.043 363.05 729.872 361.551 734.24 359.18 738.042 356.042 741.18 352.24 743.551 347.872 745.049 343.043 745.556 338.024 745.556 294.976 745.049 289.957 743.551 285.128 741.18 280.76 738.042 276.958 734.24 273.82 729.872 271.449 725.043 269.951 720.024 269.445 40.9762 269.445 35.9568 269.951 31.1281 271.449 26.7603 273.82 22.9577 276.958 19.8202 280.76 17.4494 285.128 15.9505 289.957 15.4445 294.976ZM16.9723 295.053 17.4552 290.263 18.8639 285.725 21.0925 281.619 24.0429 278.043 27.6188 275.093 31.7247 272.864 36.263 271.455 41.053 270.972 719.947 270.972 724.737 271.455 729.275 272.864 733.381 275.093 736.957 278.043 739.908 281.619 742.136 285.725 743.545 290.263 744.028 295.053 744.028 337.947 743.545 342.737 742.136 347.275 739.908 351.381 736.957 354.957 733.381 357.908 729.275 360.136 724.737 361.545 719.947 362.028 41.053 362.028 36.263 361.545 31.7247 360.136 27.6188 357.908 24.0429 354.957 21.0925 351.381 18.8639 347.275 17.4552 342.737 16.9723 337.947ZM20.0278 337.793 20.4645 342.125 21.6929 346.082 23.6372 349.664 26.2134 352.787 29.3358 355.363 32.9179 357.307 36.8753 358.536 41.2066 358.972 719.793 358.972 724.125 358.536 728.082 357.307 731.664 355.363 734.787 352.787 737.363 349.664 739.307 346.082 740.536 342.125 740.972 337.793 740.972 295.207 740.536 290.875 739.307 286.918 737.363 283.336 734.787 280.213 731.664 277.637 728.082 275.693 724.125 274.465 719.793 274.028 41.2066 274.028 36.8753 274.465 32.9179 275.693 29.3358 277.637 26.2134 280.213 23.6372 283.336 21.6929 286.918 20.4645 290.875 20.0278 295.207ZM21.5556 295.284 21.9691 291.182 23.1074 287.515 24.9096 284.194 27.2987 281.299 30.1943 278.91 33.5145 277.107 37.1814 275.969 41.2834 275.556 719.717 275.556 723.819 275.969 727.486 277.107 730.806 278.91 733.701 281.299 736.091 284.194 737.893 287.515 739.031 291.182 739.444 295.284 739.444 337.717 739.031 341.819 737.893 345.486 736.091 348.806 733.701 351.701 730.806 354.091 727.486 355.893 723.819 357.031 719.717 357.445 41.2834 357.445 37.1814 357.031 33.5145 355.893 30.1943 354.091 27.2987 351.701 24.9096 348.806 23.1074 345.486 21.9691 341.819 21.5556 337.717ZM23.0834 337.64 23.4738 341.512 24.5219 344.889 26.1819 347.947 28.3839 350.616 31.0528 352.818 34.1111 354.478 37.4876 355.526 41.3602 355.917 719.64 355.917 723.512 355.526 726.889 354.478 729.947 352.818 732.616 350.616 734.818 347.947 736.478 344.889 737.526 341.513 737.917 337.64 737.917 295.36 737.526 291.488 736.478 288.111 734.818 285.053 732.616 282.384 729.947 280.182 726.889 278.522 723.512 277.474 719.64 277.083 41.3603 277.083 37.4876 277.474 34.1111 278.522 31.0528 280.182 28.3839 282.384 26.1819 285.053 24.5219 288.111 23.4738 291.488 23.0834 295.36Z" fill="#FFFFFF" fill-rule="nonzero" fill-opacity="1"/></g></svg>