<svg width="408" height="183" xmlns="http://www.w3.org/2000/svg" xmlns:xlink="http://www.w3.org/1999/xlink" xml:space="preserve" overflow="hidden"><defs><filter id="fx0" x="-10%" y="-10%" width="120%" height="120%" filterUnits="userSpaceOnUse" primitiveUnits="userSpaceOnUse"><feComponentTransfer color-interpolation-filters="sRGB"><feFuncR type="discrete" tableValues="1.000000 1.000000"/><feFuncG type="discrete" tableValues="1.000000 1.000000"/><feFuncB type="discrete" tableValues="1.000000 1.000000"/><feFuncA type="linear" slope="0.400000" intercept="0.000000"/></feComponentTransfer><feGaussianBlur stdDeviation="7.638889 7.638889"/></filter><clipPath id="clip1"><rect x="1755" y="348" width="408" height="183"/></clipPath><clipPath id="clip2"><rect x="1.22339" y="1.4234" width="400.553" height="176.153"/></clipPath><clipPath id="clip3"><rect x="0" y="0" width="403" height="179"/></clipPath></defs><g clip-path="url(#clip1)" transform="translate(-1755 -348)"><g clip-path="url(#clip2)" filter="url(#fx0)" transform="translate(1757 350)"><g clip-path="url(#clip3)"><path d="M30.1401 66.1994C30.1401 46.3948 46.1949 30.3401 65.9994 30.3401L337.001 30.3401C356.805 30.3401 372.86 46.3948 372.86 66.1994L372.86 112.801C372.86 132.605 356.805 148.66 337.001 148.66L65.9994 148.66C46.1949 148.66 30.1401 132.605 30.1401 112.801Z" fill="#F2F2F2" fill-rule="evenodd" fill-opacity="0.329412"/><path d="M24.1401 66.048 24.3482 61.9275 25.0052 57.6229 27.403 49.8983 31.2675 42.7786 36.381 36.5809 42.5786 31.4674 49.6983 27.6029 57.423 25.2051 61.7276 24.5481 65.848 24.3401 337.152 24.3401 341.273 24.5481 345.577 25.2051 353.302 27.6029 360.421 31.4674 366.619 36.5809 371.733 42.7786 375.597 49.8983 377.995 57.6229 378.652 61.9275 378.86 66.048 378.86 112.952 378.652 117.072 377.995 121.377 375.597 129.102 371.733 136.221 366.619 142.419 360.421 147.533 353.302 151.397 345.577 153.795 341.273 154.452 337.152 154.66 65.848 154.66 61.7276 154.452 57.423 153.795 49.6984 151.397 42.5786 147.533 36.381 142.419 31.2675 136.221 27.403 129.102 25.0052 121.377 24.3482 117.072 24.1401 112.952ZM26.1401 112.901 26.3406 116.871 26.9597 120.927 29.2547 128.321 32.9331 135.098 37.8017 140.998 43.7025 145.867 50.4794 149.545 57.8728 151.84 61.9294 152.459 65.8985 152.66 337.102 152.66 341.071 152.459 345.127 151.84 352.521 149.545 359.298 145.867 365.198 140.998 370.067 135.098 373.745 128.321 376.04 120.927 376.66 116.871 376.86 112.901 376.86 66.0984 376.66 62.1293 376.04 58.0728 373.745 50.6793 370.067 43.9024 365.198 38.0016 359.298 33.133 352.521 29.4546 345.127 27.1596 341.071 26.5405 337.102 26.3401 65.8985 26.3401 61.9294 26.5405 57.8728 27.1596 50.4794 29.4546 43.7025 33.133 37.8017 38.0016 32.9331 43.9024 29.2547 50.6793 26.9597 58.0728 26.3406 62.1293 26.1401 66.0984ZM28.1401 66.1489 28.3329 62.3312 28.9142 58.5226 31.1064 51.4603 34.5987 45.0262 39.2224 39.4223 44.8263 34.7986 51.2604 31.3064 58.3227 29.1141 62.1312 28.5328 65.9489 28.3401 337.051 28.3401 340.869 28.5328 344.677 29.1141 351.74 31.3064 358.174 34.7986 363.778 39.4223 368.401 45.0262 371.894 51.4603 374.086 58.5226 374.667 62.3312 374.86 66.1489 374.86 112.851 374.667 116.669 374.086 120.477 371.894 127.54 368.401 133.974 363.778 139.578 358.174 144.201 351.74 147.694 344.677 149.886 340.869 150.467 337.051 150.66 65.9489 150.66 62.1312 150.467 58.3227 149.886 51.2604 147.694 44.8263 144.201 39.2224 139.578 34.5987 133.974 31.1064 127.54 28.9142 120.477 28.3329 116.669 28.1401 112.851ZM32.1401 112.75 32.3176 116.265 32.8232 119.578 34.8098 125.978 37.93 131.726 42.0638 136.736 47.074 140.87 52.8224 143.99 59.2224 145.977 62.5348 146.482 66.0499 146.66 336.95 146.66 340.465 146.482 343.778 145.977 350.178 143.99 355.926 140.87 360.936 136.736 365.07 131.726 368.19 125.978 370.177 119.578 370.682 116.265 370.86 112.75 370.86 66.2498 370.682 62.7348 370.177 59.4223 368.19 53.0223 365.07 47.2739 360.936 42.2637 355.926 38.1299 350.178 35.0098 343.778 33.0231 340.465 32.5176 336.95 32.3401 66.0499 32.3401 62.5348 32.5176 59.2224 33.0231 52.8224 35.0098 47.074 38.1299 42.0638 42.2637 37.93 47.2739 34.8098 53.0223 32.8232 59.4223 32.3176 62.7348 32.1401 66.2498ZM34.1401 66.3003 34.31 62.9366 34.7777 59.8722 36.6615 53.8033 39.5956 48.3978 43.4845 43.6844 48.1978 39.7955 53.6034 36.8615 59.6722 34.9776 62.7366 34.5099 66.1003 34.3401 336.9 34.3401 340.263 34.5099 343.328 34.9776 349.397 36.8615 354.802 39.7955 359.516 43.6844 363.405 48.3978 366.339 53.8033 368.222 59.8722 368.69 62.9366 368.86 66.3003 368.86 112.7 368.69 116.063 368.222 119.128 366.339 125.197 363.405 130.602 359.516 135.316 354.802 139.204 349.397 142.138 343.328 144.022 340.263 144.49 336.9 144.66 66.1003 144.66 62.7366 144.49 59.6722 144.022 53.6034 142.138 48.1978 139.204 43.4845 135.316 39.5956 130.602 36.6615 125.197 34.7777 119.128 34.31 116.063 34.1401 112.7ZM36.1401 112.649 36.3023 115.862 36.7322 118.678 38.5133 124.416 41.2612 129.478 44.9052 133.895 49.3217 137.539 54.3844 140.287 60.122 142.068 62.9385 142.498 66.1508 142.66 336.849 142.66 340.062 142.498 342.878 142.068 348.616 140.287 353.678 137.539 358.095 133.895 361.739 129.478 364.487 124.416 366.268 118.678 366.698 115.862 366.86 112.649 366.86 66.3508 366.698 63.1384 366.268 60.322 364.487 54.5843 361.739 49.5216 358.095 45.1051 353.678 41.4611 348.616 38.7132 342.878 36.9321 340.062 36.5023 336.849 36.3401 66.1508 36.3401 62.9385 36.5023 60.122 36.9321 54.3844 38.7132 49.3217 41.4611 44.9052 45.1051 41.2612 49.5216 38.5133 54.5843 36.7322 60.322 36.3023 63.1384 36.1401 66.3508Z" fill="#FFFFFF" fill-rule="nonzero" fill-opacity="1"/></g></g><path d="M1790.5 416.656C1790.5 397.24 1806.24 381.5 1825.66 381.5L2091.34 381.5C2110.76 381.5 2126.5 397.24 2126.5 416.656L2126.5 462.344C2126.5 481.76 2110.76 497.5 2091.34 497.5L1825.66 497.5C1806.24 497.5 1790.5 481.76 1790.5 462.344Z" fill="#F2F2F2" fill-rule="evenodd" fill-opacity="0.329412"/><path d="M1784.77 416.368 1785.57 408.423 1787.96 400.735 1791.73 393.781 1796.73 387.727 1802.78 382.733 1809.73 378.958 1817.42 376.572 1825.37 375.771 2091.63 375.771 2099.58 376.572 2107.27 378.958 2114.22 382.733 2120.27 387.727 2125.27 393.781 2129.04 400.735 2131.43 408.423 2132.23 416.368 2132.23 462.632 2131.43 470.577 2129.04 478.265 2125.27 485.219 2120.27 491.273 2114.22 496.267 2107.27 500.042 2099.58 502.428 2091.63 503.229 1825.37 503.229 1817.42 502.428 1809.73 500.042 1802.78 496.267 1796.73 491.273 1791.73 485.219 1787.96 478.265 1785.57 470.577 1784.77 462.632ZM1786.68 462.536 1787.45 470.194 1789.73 477.52 1793.32 484.146 1798.08 489.916 1803.85 494.677 1810.48 498.273 1817.81 500.547 1825.46 501.319 2091.54 501.319 2099.19 500.547 2106.52 498.273 2113.15 494.677 2118.92 489.916 2123.68 484.146 2127.27 477.52 2129.55 470.194 2130.32 462.536 2130.32 416.464 2129.55 408.806 2127.27 401.48 2123.68 394.854 2118.92 389.084 2113.15 384.323 2106.52 380.727 2099.19 378.453 2091.54 377.681 1825.46 377.681 1817.81 378.453 1810.48 380.727 1803.85 384.323 1798.08 389.084 1793.32 394.854 1789.73 401.48 1787.45 408.806 1786.68 416.464ZM1788.59 416.56 1789.33 409.188 1791.49 402.226 1794.91 395.927 1799.44 390.441 1804.93 385.914 1811.23 382.495 1818.19 380.333 1825.56 379.59 2091.44 379.59 2098.81 380.333 2105.77 382.495 2112.07 385.914 2117.56 390.441 2122.09 395.927 2125.51 402.226 2127.67 409.188 2128.41 416.56 2128.41 462.44 2127.67 469.812 2125.51 476.774 2122.09 483.073 2117.56 488.559 2112.07 493.086 2105.77 496.505 2098.81 498.666 2091.44 499.41 1825.56 499.41 1818.19 498.666 1811.23 496.505 1804.93 493.086 1799.44 488.559 1794.91 483.073 1791.49 476.774 1789.33 469.812 1788.59 462.44ZM1792.41 462.248 1793.1 469.046 1795.03 475.282 1798.09 480.927 1802.15 485.846 1807.07 489.905 1812.72 492.969 1818.95 494.905 1825.75 495.59 2091.25 495.59 2098.05 494.905 2104.28 492.969 2109.93 489.905 2114.85 485.846 2118.91 480.927 2121.97 475.282 2123.9 469.046 2124.59 462.248 2124.59 416.752 2123.9 409.954 2121.97 403.718 2118.91 398.073 2114.85 393.154 2109.93 389.095 2104.28 386.031 2098.05 384.095 2091.25 383.41 1825.75 383.41 1818.95 384.095 1812.72 386.031 1807.07 389.095 1802.15 393.154 1798.09 398.073 1795.03 403.718 1793.1 409.954 1792.41 416.752ZM1794.32 416.848 1794.98 410.336 1796.8 404.463 1799.69 399.146 1803.51 394.51 1808.15 390.685 1813.46 387.799 1819.34 385.976 1825.85 385.32 2091.15 385.32 2097.66 385.976 2103.54 387.799 2108.85 390.685 2113.49 394.51 2117.31 399.146 2120.2 404.463 2122.02 410.336 2122.68 416.848 2122.68 462.152 2122.02 468.664 2120.2 474.537 2117.31 479.854 2113.49 484.49 2108.85 488.315 2103.54 491.201 2097.66 493.024 2091.15 493.68 1825.85 493.68 1819.34 493.024 1813.46 491.201 1808.15 488.315 1803.51 484.49 1799.69 479.854 1796.8 474.537 1794.98 468.664 1794.32 462.152ZM1796.23 462.056 1796.86 468.281 1798.57 473.791 1801.28 478.781 1804.87 483.133 1809.22 486.724 1814.21 489.433 1819.72 491.143 1825.94 491.771 2091.06 491.771 2097.28 491.143 2102.79 489.433 2107.78 486.724 2112.13 483.133 2115.72 478.781 2118.43 473.791 2120.14 468.281 2120.77 462.056 2120.77 416.944 2120.14 410.719 2118.43 405.209 2115.72 400.219 2112.13 395.867 2107.78 392.275 2102.79 389.567 2097.28 387.857 2091.06 387.229 1825.94 387.229 1819.72 387.857 1814.21 389.567 1809.22 392.275 1804.87 395.867 1801.28 400.219 1798.57 405.209 1796.86 410.719 1796.23 416.944Z" fill="#FFFFFF" fill-rule="nonzero" fill-opacity="1"/></g></svg>