<svg width="2411" height="1045" xmlns="http://www.w3.org/2000/svg" xmlns:xlink="http://www.w3.org/1999/xlink" xml:space="preserve" overflow="hidden"><defs><filter id="fx0" x="-10%" y="-10%" width="120%" height="120%" filterUnits="userSpaceOnUse" primitiveUnits="userSpaceOnUse"><feComponentTransfer color-interpolation-filters="sRGB"><feFuncR type="discrete" tableValues="1.000000 1.000000"/><feFuncG type="discrete" tableValues="1.000000 1.000000"/><feFuncB type="discrete" tableValues="1.000000 1.000000"/><feFuncA type="linear" slope="0.400000" intercept="0.000000"/></feComponentTransfer><feGaussianBlur stdDeviation="7.638889 7.638889"/></filter><clipPath id="clip1"><rect x="1938" y="229" width="2411" height="1045"/></clipPath><clipPath id="clip2"><rect x="-22.9166" y="-22.9167" width="2454.83" height="1088.83"/></clipPath><clipPath id="clip3"><rect x="0" y="0" width="2409" height="1043"/></clipPath></defs><g clip-path="url(#clip1)" transform="translate(-1938 -229)"><g clip-path="url(#clip2)" filter="url(#fx0)" transform="translate(1940 232)"><g clip-path="url(#clip3)"><path d="M2217.7 26.8C2308.77 26.8 2382.6 100.63 2382.6 191.703L2382.6 851.297C2382.6 942.37 2308.77 1016.2 2217.7 1016.2L191.303 1016.2C100.23 1016.2 26.4001 942.37 26.4001 851.297L26.4001 191.703C26.4001 100.63 100.23 26.8 191.303 26.8Z" stroke="#FFFFFF" stroke-width="5" stroke-linecap="butt" stroke-linejoin="miter" stroke-miterlimit="8" stroke-opacity="1" fill="#F2F2F2" fill-rule="evenodd" fill-opacity="0.329412"/></g></g><path d="M4137.83 268.5C4227.12 268.5 4299.5 340.882 4299.5 430.17L4299.5 1076.83C4299.5 1166.12 4227.12 1238.5 4137.83 1238.5L2151.17 1238.5C2061.88 1238.5 1989.5 1166.12 1989.5 1076.83L1989.5 430.17C1989.5 340.882 2061.88 268.5 2151.17 268.5Z" stroke="#FFFFFF" stroke-width="4.58333" stroke-linecap="butt" stroke-linejoin="miter" stroke-miterlimit="8" stroke-opacity="1" fill="#F2F2F2" fill-rule="evenodd" fill-opacity="0.329412"/></g></svg>