<svg width="2086" height="385" xmlns="http://www.w3.org/2000/svg" xmlns:xlink="http://www.w3.org/1999/xlink" xml:space="preserve" overflow="hidden"><defs><filter id="fx0" x="-10%" y="-10%" width="120%" height="120%" filterUnits="userSpaceOnUse" primitiveUnits="userSpaceOnUse"><feComponentTransfer color-interpolation-filters="sRGB"><feFuncR type="discrete" tableValues="1.000000 1.000000"/><feFuncG type="discrete" tableValues="1.000000 1.000000"/><feFuncB type="discrete" tableValues="1.000000 1.000000"/><feFuncA type="linear" slope="0.400000" intercept="0.000000"/></feComponentTransfer><feGaussianBlur stdDeviation="7.638889 7.638889"/></filter><clipPath id="clip1"><rect x="1324" y="128" width="2086" height="385"/></clipPath><clipPath id="clip2"><rect x="-22.9166" y="-22.9167" width="2127.83" height="426.833"/></clipPath><clipPath id="clip3"><rect x="0" y="0" width="2082" height="381"/></clipPath></defs><g clip-path="url(#clip1)" transform="translate(-1324 -128)"><g clip-path="url(#clip2)" filter="url(#fx0)" transform="translate(1325 132)"><g clip-path="url(#clip3)"><path d="M1891.17 26.2802C1981.87 26.2802 2055.39 99.8041 2055.39 190.5L2055.39 190.5C2055.39 281.197 1981.87 354.72 1891.17 354.72L190.829 354.72C100.133 354.72 26.61 281.197 26.61 190.5 26.61 99.8041 100.133 26.2802 190.829 26.2802Z" stroke="#FFFFFF" stroke-width="5" stroke-linecap="butt" stroke-linejoin="miter" stroke-miterlimit="8" stroke-opacity="1" fill="#F2F2F2" fill-rule="evenodd" fill-opacity="0.329412"/></g></g><path d="M3199.5 161.5C3288.42 161.5 3360.5 233.582 3360.5 322.5L3360.5 322.5C3360.5 411.418 3288.42 483.5 3199.5 483.5L1532.5 483.5C1443.58 483.5 1371.5 411.418 1371.5 322.5 1371.5 233.582 1443.58 161.5 1532.5 161.5Z" stroke="#FFFFFF" stroke-width="4.58333" stroke-linecap="butt" stroke-linejoin="miter" stroke-miterlimit="8" stroke-opacity="1" fill="#F2F2F2" fill-rule="evenodd" fill-opacity="0.329412"/></g></svg>