<svg width="2086" height="385" xmlns="http://www.w3.org/2000/svg" xmlns:xlink="http://www.w3.org/1999/xlink" xml:space="preserve" overflow="hidden"><defs><filter id="fx0" x="-10%" y="-10%" width="120%" height="120%" filterUnits="userSpaceOnUse" primitiveUnits="userSpaceOnUse"><feComponentTransfer color-interpolation-filters="sRGB"><feFuncR type="discrete" tableValues="1.000000 1.000000"/><feFuncG type="discrete" tableValues="1.000000 1.000000"/><feFuncB type="discrete" tableValues="1.000000 1.000000"/><feFuncA type="linear" slope="0.400000" intercept="0.000000"/></feComponentTransfer><feGaussianBlur stdDeviation="7.638889 7.638889"/></filter><clipPath id="clip1"><rect x="1324" y="128" width="2086" height="385"/></clipPath><clipPath id="clip2"><rect x="-22.9166" y="-22.9167" width="2127.83" height="426.833"/></clipPath><clipPath id="clip3"><rect x="0" y="0" width="2082" height="381"/></clipPath></defs><g clip-path="url(#clip1)" transform="translate(-1324 -128)"><g clip-path="url(#clip2)" filter="url(#fx0)" transform="translate(1325 132)"><g clip-path="url(#clip3)"><path d="M2000.65 26.2802C2030.88 26.2802 2055.39 50.7882 2055.39 81.0203L2055.39 299.98C2055.39 330.212 2030.88 354.72 2000.65 354.72L81.3497 354.72C51.1177 354.72 26.61 330.212 26.61 299.98L26.61 81.0203C26.61 50.7882 51.1177 26.2802 81.3497 26.2802Z" stroke="#FFFFFF" stroke-width="5" stroke-linecap="butt" stroke-linejoin="miter" stroke-miterlimit="8" stroke-opacity="1" fill="#F2F2F2" fill-rule="evenodd" fill-opacity="0.329412"/></g></g><path d="M3306.83 161.5C3336.47 161.5 3360.5 185.528 3360.5 215.167L3360.5 429.834C3360.5 459.473 3336.47 483.5 3306.83 483.5L1425.17 483.5C1395.53 483.5 1371.5 459.473 1371.5 429.834L1371.5 215.167C1371.5 185.528 1395.53 161.5 1425.17 161.5Z" stroke="#FFFFFF" stroke-width="4.58333" stroke-linecap="butt" stroke-linejoin="miter" stroke-miterlimit="8" stroke-opacity="1" fill="#F2F2F2" fill-rule="evenodd" fill-opacity="0.329412"/></g></svg>