<?xml version="1.0" encoding="UTF-8"?><svg id="Layer_2" xmlns="http://www.w3.org/2000/svg" viewBox="0 0 195.06 198.95"><defs><style>.cls-1,.cls-2{fill:#fff;}.cls-3{fill:#545454;}.cls-2{opacity:.2;}</style></defs><g id="_ÎÓÈ_1"><g><g><path class="cls-1" d="M77.93,94.71h-9.82c-.09,0-.18-.04-.24-.11l-8.34-9.52h-15.29l-2.57,2.93c-.06,.07-.15,.11-.24,.11H25.2c-.09,0-.18-.04-.24-.11l-1.06-1.21c-.05-.06-.08-.13-.08-.21v-1.83c0-.17,.14-.32,.32-.32s.32,.14,.32,.32v1.71l.89,1.01h15.94l2.57-2.93c.06-.07,.15-.11,.24-.11h15.58c.09,0,.18,.04,.24,.11l8.34,9.52h9.68c.17,0,.32,.14,.32,.32s-.14,.32-.32,.32Z"/><path class="cls-1" d="M22.8,89.67s-.07-.01-.1-.04c-.07-.06-.07-.16-.01-.22l1.06-1.21c.06-.06,.16-.07,.22-.01,.07,.06,.07,.16,.01,.22l-1.06,1.21s-.08,.05-.12,.05Z"/><path class="cls-1" d="M67.07,93.44h-1.08s-.09-.02-.12-.05l-6.74-7.69h-15.72c-.09,0-.16-.07-.16-.16s.07-.16,.16-.16h15.8s.09,.02,.12,.05l6.74,7.69h1c.09,0,.16,.07,.16,.16s-.07,.16-.16,.16Z"/><path class="cls-1" d="M82.89,86.4h-2.35s-.09-.02-.12-.05l-11.82-13.49s-.04-.07-.04-.1v-18s.01-.08,.04-.1l4.88-5.57s.07-.05,.12-.05h1.65c.09,0,.16,.07,.16,.16s-.07,.16-.16,.16h-1.58l-4.79,5.47v17.88l11.73,13.39h2.28c.09,0,.16,.07,.16,.16s-.07,.16-.16,.16Z"/><polygon class="cls-1" points="48.27 81.56 64.05 81.56 73.36 92.19 77.93 92.19 77.93 86.58 71.31 79.02 68.61 79.02 66.99 77.17 66.99 76.08 65.67 76.08 63.76 78.26 46.25 78.26 46.25 79.25 48.27 81.56"/><polygon class="cls-1" points="45.76 78.26 35.02 78.26 34.3 79.09 45.76 79.09 45.76 78.26"/><polygon class="cls-1" points="14.01 85.24 15.49 83.55 21.11 83.55 21.11 81.57 7.23 81.57 6.05 82.93 6.05 85.24 14.01 85.24"/><polygon class="cls-1" points="68.82 78.46 70.82 78.46 68.74 76.08 67.48 76.08 67.48 76.94 68.82 78.46"/><polygon class="cls-1" points="15.69 84.11 14.7 85.24 30.76 85.24 29.78 84.11 15.69 84.11"/><polygon class="cls-1" points="29.98 83.55 31.46 85.24 41.99 85.24 43.33 83.7 61.14 83.7 68.57 92.19 72.67 92.19 63.85 82.11 48.06 82.11 45.9 79.65 33.81 79.65 32.13 81.57 21.6 81.57 21.6 83.55 29.98 83.55"/><rect class="cls-3" x="21.11" y="81.1" width=".49" height=".47"/><path class="cls-1" d="M31.66,78.11c-.09,0-.16-.07-.16-.16v-1.74s.01-.08,.04-.1l3.03-3.46s.07-.05,.12-.05h34.03c.09,0,.16,.07,.16,.16s-.07,.16-.16,.16H34.76l-2.95,3.36v1.68c0,.09-.07,.16-.16,.16Z"/><path class="cls-1" d="M76.17,46.1h-5.12s-.09-.02-.12-.05l-9.03-10.3s-.04-.07-.04-.1V4.15s.01-.08,.04-.1l2.54-2.9s.07-.05,.12-.05h21.68s.09,.02,.12,.05l2.31,2.64h8.06c.09,0,.16,.07,.16,.16s-.07,.16-.16,.16h-8.13s-.09-.02-.12-.05l-2.31-2.64h-21.54l-2.45,2.8v31.37l8.94,10.2h5.05c.09,0,.16,.07,.16,.16s-.07,.16-.16,.16Z"/><polygon class="cls-1" points="71.78 45.94 62.52 35.37 62.52 32.66 62.05 32.13 62.02 35.64 71.05 45.94 71.78 45.94"/><polygon class="cls-1" points="68.72 55.6 73.85 49.73 73.85 49.19 73.6 49.19 68.72 54.76 68.72 55.6"/><path class="cls-1" d="M76.44,38.34h-4.47c-.09,0-.18-.04-.24-.11l-3.53-4.03c-.05-.06-.08-.13-.08-.21v-2.52c0-.17,.14-.32,.32-.32h5.41c.17,0,.32,.14,.32,.32s-.14,.32-.32,.32h-5.09v2.08l3.35,3.83h4.33c.18,0,.32,.14,.32,.32s-.14,.32-.32,.32Z"/><path class="cls-1" d="M76.25,31.64h-1.1c-.09,0-.16-.07-.16-.16s.07-.16,.16-.16h1.1c.09,0,.16,.07,.16,.16s-.07,.16-.16,.16Z"/><path class="cls-1" d="M76.44,29.71h-4.47c-.09,0-.18-.04-.24-.11l-3.53-4.03c-.05-.06-.08-.13-.08-.21v-2.52c0-.17,.14-.32,.32-.32h5.41c.17,0,.32,.14,.32,.32s-.14,.32-.32,.32h-5.09v2.08l3.35,3.83h4.33c.18,0,.32,.14,.32,.32s-.14,.32-.32,.32Z"/><path class="cls-1" d="M76.25,23.01h-1.1c-.09,0-.16-.07-.16-.16s.07-.16,.16-.16h1.1c.09,0,.16,.07,.16,.16s-.07,.16-.16,.16Z"/><path class="cls-1" d="M76.44,21.08h-4.47c-.09,0-.18-.04-.24-.11l-3.53-4.03c-.05-.06-.08-.13-.08-.21v-2.52c0-.18,.14-.32,.32-.32h5.41c.17,0,.32,.14,.32,.32s-.14,.32-.32,.32h-5.09v2.08l3.35,3.83h4.33c.18,0,.32,.14,.32,.32s-.14,.32-.32,.32Z"/><path class="cls-1" d="M76.25,14.38h-1.1c-.09,0-.16-.07-.16-.16s.07-.16,.16-.16h1.1c.09,0,.16,.07,.16,.16s-.07,.16-.16,.16Z"/><path class="cls-1" d="M76.44,12.46h-4.47c-.09,0-.18-.04-.24-.11l-3.53-4.03c-.05-.06-.08-.13-.08-.21v-2.52c0-.17,.14-.32,.32-.32h5.41c.17,0,.32,.14,.32,.32s-.14,.32-.32,.32h-5.09v2.08l3.35,3.83h4.33c.18,0,.32,.14,.32,.32s-.14,.32-.32,.32Z"/><path class="cls-1" d="M76.25,5.76h-1.1c-.09,0-.16-.07-.16-.16s.07-.16,.16-.16h1.1c.09,0,.16,.07,.16,.16s-.07,.16-.16,.16Z"/><path class="cls-1" d="M66.18,70.06h-4.09c-.09,0-.16-.07-.16-.16s.07-.16,.16-.16h3.93v-19.83s.01-.08,.04-.1l1.49-1.71v-2.11l-7.31-8.35h-22.2l-3.57,4.07c-.06,.06-.16,.07-.22,.01-.07-.06-.07-.16-.01-.22l3.62-4.13s.07-.05,.12-.05h22.35s.09,.02,.12,.05l7.4,8.45s.04,.07,.04,.1v2.23s-.01,.08-.04,.1l-1.49,1.71v19.92c0,.09-.07,.16-.16,.16Z"/><path class="cls-1" d="M60.3,70.22h-3.02c-.17,0-.32-.14-.32-.32s.14-.32,.32-.32h3.02c.17,0,.32,.14,.32,.32s-.14,.32-.32,.32Z"/><path class="cls-1" d="M31.16,75.25c-.07,0-.15-.03-.21-.08-.13-.11-.14-.32-.03-.45l1.59-1.82c.12-.13,.32-.14,.45-.03s.14,.32,.03,.45l-1.59,1.82c-.06,.07-.15,.11-.24,.11Z"/><polygon class="cls-1" points="91.87 20.06 83.89 10.96 83.89 5.6 81.87 3.29 79.95 3.29 79.95 12.14 86.48 19.6 88.68 19.6 89.04 20.02 91.87 20.06"/><polygon class="cls-2" points="90.69 13.26 84.96 6.71 84.96 5.83 82.62 3.16 84.96 3.16 90.72 9.73 90.69 13.26"/><path class="cls-1" d="M25.95,77.35H1.4v-9.88l6.93-7.91h14.19l17.48-19.95h11.75l.02,.03,11.14,12.72v8.92l-4.08,4.66H31.94l-5.99,6.84v4.57Zm-24.39-.16H25.79v-4.47l6.07-6.93h26.88l4-4.56v-8.8l-11.08-12.64h-11.6l-17.48,19.95H8.4l-6.84,7.81v9.66Z"/><path class="cls-1" d="M21.39,55.68H.93v-10.3l6.47-7.39v-8.68h27.53v6.1l-3.78,4.32v4.8l-9.76,11.15Zm-20.3-.16H21.32l9.68-11.05v-4.8l3.78-4.32v-5.88H7.56v8.58l-6.47,7.39v10.08Z"/><path class="cls-1" d="M58.19,21.53h-8.11l-.02-.03-8.02-9.33V1.67h16.15V21.53Zm-8.04-.16h7.88V1.83h-15.84V12.11l7.96,9.26Z"/><polygon class="cls-1" points="45.18 65.87 45.02 65.87 45.02 59 37.72 50.67 33.56 50.67 31.98 48.87 32.1 48.76 33.63 50.51 37.79 50.51 45.18 58.95 45.18 65.87"/><polygon class="cls-1" points="13.66 55.6 13.5 55.6 13.5 44.57 13.52 44.55 24.98 31.46 24.98 29.39 25.14 29.39 25.14 31.52 25.12 31.55 13.66 44.63 13.66 55.6"/><polygon class="cls-1" points="47.21 18.05 47.1 17.95 54.67 9.31 58.12 9.31 58.12 9.47 54.74 9.47 47.21 18.05"/><g><path class="cls-1" d="M1.01,41.88s-.07-.01-.1-.04c-.07-.06-.07-.16-.01-.22l3.54-4.04v-1.69l-1.16-1.33c-.06-.07-.05-.17,.01-.22,.07-.06,.17-.05,.22,.01l1.2,1.37s.04,.07,.04,.1v1.81s-.01,.08-.04,.1l-3.58,4.09s-.08,.05-.12,.05Z"/><polygon class="cls-1" points="4.67 35.83 4.52 35.83 4.52 32.67 3.51 31.52 2.91 31.52 2.91 31.36 3.58 31.36 4.67 32.61 4.67 35.83"/><polygon class="cls-1" points="2.24 39.51 2.12 39.41 3.98 37.29 3.98 36.62 4.14 36.62 4.14 37.35 2.24 39.51"/><path class="cls-1" d="M.16,42.96s-.07-.01-.1-.04c-.07-.06-.07-.16-.01-.22l.36-.41c.06-.06,.16-.07,.22-.01,.07,.06,.07,.16,.01,.22l-.36,.41s-.08,.05-.12,.05Z"/><path class="cls-1" d="M2.38,31.6H1.29c-.09,0-.16-.07-.16-.16s.07-.16,.16-.16h1.09c.09,0,.16,.07,.16,.16s-.07,.16-.16,.16Z"/></g><g><path class="cls-1" d="M1.01,29.36s-.07-.01-.1-.04c-.07-.06-.07-.16-.01-.22l3.54-4.04v-1.69l-1.16-1.33c-.06-.07-.05-.17,.01-.22,.07-.06,.17-.05,.22,.01l1.2,1.37s.04,.07,.04,.1v1.81s-.01,.08-.04,.1l-3.58,4.09s-.08,.05-.12,.05Z"/><polygon class="cls-1" points="4.67 23.31 4.52 23.31 4.52 20.15 3.51 19 2.91 19 2.91 18.84 3.58 18.84 4.67 20.09 4.67 23.31"/><polygon class="cls-1" points="2.24 26.99 2.12 26.89 3.98 24.77 3.98 24.1 4.14 24.1 4.14 24.83 2.24 26.99"/><path class="cls-1" d="M.16,30.44s-.07-.01-.1-.04c-.07-.06-.07-.16-.01-.22l.36-.41c.06-.06,.16-.07,.22-.01,.07,.06,.07,.16,.01,.22l-.36,.41s-.08,.05-.12,.05Z"/><path class="cls-1" d="M2.38,19.08H1.29c-.09,0-.16-.07-.16-.16s.07-.16,.16-.16h1.09c.09,0,.16,.07,.16,.16s-.07,.16-.16,.16Z"/></g><g><path class="cls-1" d="M1.01,16.85s-.07-.01-.1-.04c-.07-.06-.07-.16-.01-.22l3.54-4.04v-1.69l-1.16-1.33c-.06-.07-.05-.17,.01-.22,.07-.06,.17-.05,.22,.01l1.2,1.37s.04,.07,.04,.1v1.81s-.01,.08-.04,.1l-3.58,4.09s-.08,.05-.12,.05Z"/><polygon class="cls-1" points="4.67 10.79 4.52 10.79 4.52 7.64 3.51 6.48 2.91 6.48 2.91 6.32 3.58 6.32 4.67 7.58 4.67 10.79"/><polygon class="cls-1" points="2.24 14.48 2.12 14.37 3.98 12.26 3.98 11.58 4.14 11.58 4.14 12.31 2.24 14.48"/><path class="cls-1" d="M.16,17.92s-.07-.01-.1-.04c-.07-.06-.07-.16-.01-.22l.36-.41c.06-.06,.16-.07,.22-.01,.07,.06,.07,.16,.01,.22l-.36,.41s-.08,.05-.12,.05Z"/><path class="cls-1" d="M2.38,6.56H1.29c-.09,0-.16-.07-.16-.16s.07-.16,.16-.16h1.09c.09,0,.16,.07,.16,.16s-.07,.16-.16,.16Z"/></g><polygon class="cls-1" points="4.65 31.04 4.54 30.94 8.85 26.02 37.42 26.02 38.68 24.59 38.8 24.69 37.5 26.18 8.92 26.18 4.65 31.04"/><polygon class="cls-1" points="4.65 18.97 4.54 18.87 8.85 13.95 37.42 13.95 38.68 12.52 38.8 12.62 37.5 14.11 8.92 14.11 4.65 18.97"/><polygon class="cls-1" points="4.65 6.46 4.54 6.35 8.85 1.43 37.42 1.43 38.68 0 38.8 .1 37.5 1.59 8.92 1.59 4.65 6.46"/><rect class="cls-1" x="70.57" y="69.9" width=".71" height=".81" transform="translate(141.86 140.62) rotate(180)"/><rect class="cls-1" x="70.57" y="65.46" width=".71" height=".81" transform="translate(141.86 131.74) rotate(180)"/><rect class="cls-1" x="70.57" y="61.02" width=".71" height=".81" transform="translate(141.86 122.85) rotate(180)"/><rect class="cls-1" x="70.57" y="56.58" width=".71" height=".81" transform="translate(141.86 113.97) rotate(180)"/></g><g><path class="cls-1" d="M126.96,94.71h-9.82c-.17,0-.32-.14-.32-.32s.14-.32,.32-.32h9.68l8.34-9.52c.06-.07,.15-.11,.24-.11h15.58c.09,0,.18,.04,.24,.11l2.57,2.93h15.94l.89-1.01v-1.71c0-.17,.14-.32,.32-.32s.32,.14,.32,.32v1.83c0,.08-.03,.15-.08,.21l-1.06,1.21c-.06,.07-.15,.11-.24,.11h-16.23c-.09,0-.18-.04-.24-.11l-2.57-2.93h-15.29l-8.34,9.52c-.06,.07-.15,.11-.24,.11Z"/><path class="cls-1" d="M172.27,89.67s-.09-.02-.12-.05l-1.06-1.21c-.06-.07-.05-.17,.01-.22,.07-.06,.17-.05,.22,.01l1.06,1.21c.06,.07,.05,.17-.01,.22-.03,.03-.07,.04-.1,.04Z"/><path class="cls-1" d="M129.07,93.44h-1.08c-.09,0-.16-.07-.16-.16s.07-.16,.16-.16h1l6.74-7.69s.07-.05,.12-.05h15.8c.09,0,.16,.07,.16,.16s-.07,.16-.16,.16h-15.72l-6.74,7.69s-.07,.05-.12,.05Z"/><path class="cls-1" d="M114.53,86.4h-2.35c-.09,0-.16-.07-.16-.16s.07-.16,.16-.16h2.28l11.73-13.39v-17.88l-4.79-5.47h-1.58c-.09,0-.16-.07-.16-.16s.07-.16,.16-.16h1.65s.09,.02,.12,.05l4.88,5.57s.04,.07,.04,.1v18s-.01,.08-.04,.1l-11.82,13.49s-.07,.05-.12,.05Z"/><polygon class="cls-1" points="146.8 81.56 131.01 81.56 121.7 92.19 117.13 92.19 117.13 86.58 123.75 79.02 126.45 79.02 128.07 77.17 128.07 76.08 129.39 76.08 131.3 78.26 148.82 78.26 148.82 79.25 146.8 81.56"/><polygon class="cls-1" points="149.31 78.26 160.04 78.26 160.76 79.09 149.31 79.09 149.31 78.26"/><polygon class="cls-1" points="181.06 85.24 179.58 83.55 173.95 83.55 173.95 81.57 187.83 81.57 189.02 82.93 189.02 85.24 181.06 85.24"/><polygon class="cls-1" points="126.25 78.46 124.24 78.46 126.33 76.08 127.58 76.08 127.58 76.94 126.25 78.46"/><polygon class="cls-1" points="179.38 84.11 180.36 85.24 164.3 85.24 165.29 84.11 179.38 84.11"/><polygon class="cls-1" points="165.09 83.55 163.61 85.24 153.08 85.24 151.73 83.7 133.93 83.7 126.49 92.19 122.39 92.19 131.21 82.11 147 82.11 149.16 79.65 161.25 79.65 162.94 81.57 173.46 81.57 173.46 83.55 165.09 83.55"/><rect class="cls-3" x="173.46" y="81.1" width=".49" height=".47"/><path class="cls-1" d="M163.41,78.11c-.09,0-.16-.07-.16-.16v-1.68l-2.95-3.36h-33.96c-.09,0-.16-.07-.16-.16s.07-.16,.16-.16h34.03s.09,.02,.12,.05l3.03,3.46s.04,.07,.04,.1v1.74c0,.09-.07,.16-.16,.16Z"/><path class="cls-1" d="M124.02,46.1h-5.12c-.09,0-.16-.07-.16-.16s.07-.16,.16-.16h5.05l8.94-10.2V4.21l-2.45-2.8h-21.54l-2.31,2.64s-.07,.05-.12,.05h-8.13c-.09,0-.16-.07-.16-.16s.07-.16,.16-.16h8.06l2.31-2.64s.07-.05,.12-.05h21.68s.09,.02,.12,.05l2.54,2.9s.04,.07,.04,.1v31.49s-.01,.08-.04,.1l-9.03,10.3s-.07,.05-.12,.05Z"/><polygon class="cls-1" points="123.28 45.94 132.55 35.37 132.55 32.66 133.02 32.13 133.04 35.64 124.02 45.94 123.28 45.94"/><polygon class="cls-1" points="126.35 55.6 121.21 49.73 121.21 49.19 121.47 49.19 126.35 54.76 126.35 55.6"/><path class="cls-1" d="M123.09,38.34h-4.47c-.18,0-.32-.14-.32-.32s.14-.32,.32-.32h4.33l3.35-3.83v-2.08h-5.09c-.18,0-.32-.14-.32-.32s.14-.32,.32-.32h5.41c.18,0,.32,.14,.32,.32v2.52c0,.08-.03,.15-.08,.21l-3.53,4.03c-.06,.07-.15,.11-.24,.11Z"/><path class="cls-1" d="M119.91,31.64h-1.1c-.09,0-.16-.07-.16-.16s.07-.16,.16-.16h1.1c.09,0,.16,.07,.16,.16s-.07,.16-.16,.16Z"/><path class="cls-1" d="M123.09,29.71h-4.47c-.18,0-.32-.14-.32-.32s.14-.32,.32-.32h4.33l3.35-3.83v-2.08h-5.09c-.18,0-.32-.14-.32-.32s.14-.32,.32-.32h5.41c.18,0,.32,.14,.32,.32v2.52c0,.08-.03,.15-.08,.21l-3.53,4.03c-.06,.07-.15,.11-.24,.11Z"/><path class="cls-1" d="M119.91,23.01h-1.1c-.09,0-.16-.07-.16-.16s.07-.16,.16-.16h1.1c.09,0,.16,.07,.16,.16s-.07,.16-.16,.16Z"/><path class="cls-1" d="M123.09,21.08h-4.47c-.18,0-.32-.14-.32-.32s.14-.32,.32-.32h4.33l3.35-3.83v-2.08h-5.09c-.18,0-.32-.14-.32-.32s.14-.32,.32-.32h5.41c.18,0,.32,.14,.32,.32v2.52c0,.08-.03,.15-.08,.21l-3.53,4.03c-.06,.07-.15,.11-.24,.11Z"/><path class="cls-1" d="M119.91,14.38h-1.1c-.09,0-.16-.07-.16-.16s.07-.16,.16-.16h1.1c.09,0,.16,.07,.16,.16s-.07,.16-.16,.16Z"/><path class="cls-1" d="M123.09,12.46h-4.47c-.18,0-.32-.14-.32-.32s.14-.32,.32-.32h4.33l3.35-3.83v-2.08h-5.09c-.18,0-.32-.14-.32-.32s.14-.32,.32-.32h5.41c.18,0,.32,.14,.32,.32v2.52c0,.08-.03,.15-.08,.21l-3.53,4.03c-.06,.07-.15,.11-.24,.11Z"/><path class="cls-1" d="M119.91,5.76h-1.1c-.09,0-.16-.07-.16-.16s.07-.16,.16-.16h1.1c.09,0,.16,.07,.16,.16s-.07,.16-.16,.16Z"/><path class="cls-1" d="M132.97,70.06h-4.09c-.09,0-.16-.07-.16-.16v-19.92l-1.49-1.71s-.04-.07-.04-.1v-2.23s.01-.08,.04-.1l7.4-8.45s.07-.05,.12-.05h22.35s.09,.02,.12,.05l3.62,4.13c.06,.07,.05,.17-.01,.22-.07,.06-.17,.05-.22-.01l-3.57-4.07h-22.2l-7.31,8.35v2.11l1.49,1.71s.04,.07,.04,.1v19.83h3.93c.09,0,.16,.07,.16,.16s-.07,.16-.16,.16Z"/><path class="cls-1" d="M137.79,70.22h-3.02c-.17,0-.32-.14-.32-.32s.14-.32,.32-.32h3.02c.17,0,.32,.14,.32,.32s-.14,.32-.32,.32Z"/><path class="cls-1" d="M163.9,75.25c-.09,0-.18-.04-.24-.11l-1.59-1.82c-.12-.13-.1-.33,.03-.45,.13-.11,.33-.1,.45,.03l1.59,1.82c.12,.13,.1,.33-.03,.45-.06,.05-.13,.08-.21,.08Z"/><polygon class="cls-1" points="103.19 20.06 111.17 10.96 111.17 5.6 113.19 3.29 115.12 3.29 115.12 12.14 108.58 19.6 106.39 19.6 106.02 20.02 103.19 20.06"/><polygon class="cls-2" points="104.37 13.26 110.1 6.71 110.1 5.83 112.44 3.16 110.1 3.16 104.34 9.73 104.37 13.26"/><path class="cls-1" d="M193.66,77.35h-24.55v-4.57l-5.99-6.84h-26.88l-4.08-4.66v-8.92l.02-.02,11.14-12.72h11.75l.02,.03,17.45,19.92h14.19l6.93,7.91v9.88Zm-24.39-.16h24.23v-9.66l-6.84-7.81h-14.19l-.02-.03-17.45-19.92h-11.6l-11.08,12.64v8.8l4,4.56h26.88l6.07,6.93v4.47Z"/><path class="cls-1" d="M194.13,55.68h-20.46l-9.76-11.15v-4.8l-3.78-4.32v-6.1h27.53v8.68l6.47,7.39v10.3Zm-20.38-.16h20.23v-10.08l-6.47-7.39v-8.58h-27.21v5.88l3.78,4.32v4.8l9.68,11.05Z"/><path class="cls-1" d="M144.98,21.53h-8.11V1.67h16.15V12.17l-.02,.02-8.02,9.34Zm-7.95-.16h7.88l7.96-9.26V1.83h-15.84V21.37Z"/><polygon class="cls-1" points="150.04 65.87 149.88 65.87 149.88 58.95 157.27 50.51 161.43 50.51 162.96 48.76 163.08 48.87 161.5 50.67 157.35 50.67 150.04 59 150.04 65.87"/><polygon class="cls-1" points="181.57 55.6 181.41 55.6 181.41 44.63 169.93 31.52 169.93 29.39 170.09 29.39 170.09 31.46 181.57 44.57 181.57 55.6"/><polygon class="cls-1" points="147.85 18.05 140.33 9.47 136.95 9.47 136.95 9.31 140.4 9.31 147.97 17.95 147.85 18.05"/><g><path class="cls-1" d="M194.05,41.88s-.09-.02-.12-.05l-3.58-4.09s-.04-.07-.04-.1v-1.81s.01-.08,.04-.1l1.2-1.37c.06-.07,.16-.07,.22-.01,.07,.06,.07,.16,.01,.22l-1.16,1.33v1.69l3.54,4.04c.06,.07,.05,.17-.01,.22-.03,.03-.07,.04-.1,.04Z"/><polygon class="cls-1" points="190.55 35.83 190.39 35.83 190.39 32.61 191.49 31.36 192.16 31.36 192.16 31.52 191.56 31.52 190.55 32.67 190.55 35.83"/><polygon class="cls-1" points="192.82 39.51 190.93 37.35 190.93 36.62 191.09 36.62 191.09 37.29 192.94 39.41 192.82 39.51"/><path class="cls-1" d="M194.91,42.96s-.09-.02-.12-.05l-.36-.41c-.06-.07-.05-.17,.01-.22,.07-.06,.17-.05,.22,.01l.36,.41c.06,.07,.05,.17-.01,.22-.03,.03-.07,.04-.1,.04Z"/><path class="cls-1" d="M193.77,31.6h-1.09c-.09,0-.16-.07-.16-.16s.07-.16,.16-.16h1.09c.09,0,.16,.07,.16,.16s-.07,.16-.16,.16Z"/></g><g><path class="cls-1" d="M194.05,29.36s-.09-.02-.12-.05l-3.58-4.09s-.04-.07-.04-.1v-1.81s.01-.08,.04-.1l1.2-1.37c.06-.06,.16-.07,.22-.01,.07,.06,.07,.16,.01,.22l-1.16,1.33v1.69l3.54,4.04c.06,.07,.05,.17-.01,.22-.03,.03-.07,.04-.1,.04Z"/><polygon class="cls-1" points="190.55 23.31 190.39 23.31 190.39 20.09 191.49 18.84 192.16 18.84 192.16 19 191.56 19 190.55 20.15 190.55 23.31"/><polygon class="cls-1" points="192.82 26.99 190.93 24.83 190.93 24.1 191.09 24.1 191.09 24.77 192.94 26.89 192.82 26.99"/><path class="cls-1" d="M194.91,30.44s-.09-.02-.12-.05l-.36-.41c-.06-.07-.05-.17,.01-.22,.07-.06,.17-.05,.22,.01l.36,.41c.06,.07,.05,.17-.01,.22-.03,.03-.07,.04-.1,.04Z"/><path class="cls-1" d="M193.77,19.08h-1.09c-.09,0-.16-.07-.16-.16s.07-.16,.16-.16h1.09c.09,0,.16,.07,.16,.16s-.07,.16-.16,.16Z"/></g><g><path class="cls-1" d="M194.05,16.85s-.09-.02-.12-.05l-3.58-4.09s-.04-.07-.04-.1v-1.81s.01-.08,.04-.1l1.2-1.37c.06-.06,.16-.07,.22-.01,.07,.06,.07,.16,.01,.22l-1.16,1.33v1.69l3.54,4.04c.06,.07,.05,.17-.01,.22-.03,.03-.07,.04-.1,.04Z"/><polygon class="cls-1" points="190.55 10.79 190.39 10.79 190.39 7.58 191.49 6.32 192.16 6.32 192.16 6.48 191.56 6.48 190.55 7.64 190.55 10.79"/><polygon class="cls-1" points="192.82 14.48 190.93 12.31 190.93 11.58 191.09 11.58 191.09 12.26 192.94 14.37 192.82 14.48"/><path class="cls-1" d="M194.91,17.92s-.09-.02-.12-.05l-.36-.41c-.06-.07-.05-.17,.01-.22,.07-.06,.17-.05,.22,.01l.36,.41c.06,.07,.05,.17-.01,.22-.03,.03-.07,.04-.1,.04Z"/><path class="cls-1" d="M193.77,6.56h-1.09c-.09,0-.16-.07-.16-.16s.07-.16,.16-.16h1.09c.09,0,.16,.07,.16,.16s-.07,.16-.16,.16Z"/></g><polygon class="cls-1" points="190.41 31.04 186.15 26.18 157.57 26.18 156.27 24.69 156.39 24.59 157.64 26.02 186.22 26.02 190.53 30.94 190.41 31.04"/><polygon class="cls-1" points="190.41 18.97 186.15 14.11 157.57 14.11 156.27 12.62 156.39 12.52 157.64 13.95 186.22 13.95 190.53 18.87 190.41 18.97"/><polygon class="cls-1" points="190.41 6.46 186.15 1.59 157.57 1.59 156.27 .1 156.39 0 157.64 1.43 186.22 1.43 190.53 6.35 190.41 6.46"/><rect class="cls-1" x="123.78" y="69.9" width=".71" height=".81"/><rect class="cls-1" x="123.78" y="65.46" width=".71" height=".81"/><rect class="cls-1" x="123.78" y="61.02" width=".71" height=".81"/><rect class="cls-1" x="123.78" y="56.58" width=".71" height=".81"/></g><g><path class="cls-1" d="M170.92,114.51c-.17,0-.32-.14-.32-.32v-1.71l-.89-1.01h-15.94l-2.57,2.94c-.06,.07-.15,.11-.24,.11h-15.58c-.09,0-.18-.04-.24-.11l-8.34-9.52h-9.68c-.17,0-.32-.14-.32-.32s.14-.32,.32-.32h9.82c.09,0,.18,.04,.24,.11l8.34,9.52h15.29l2.57-2.94c.06-.07,.15-.11,.24-.11h16.23c.09,0,.18,.04,.24,.11l1.06,1.21c.05,.06,.08,.13,.08,.21v1.83c0,.17-.14,.32-.32,.32Z"/><path class="cls-1" d="M171.21,110.8s-.07-.01-.1-.04c-.07-.06-.07-.16-.01-.22l1.06-1.21c.06-.07,.16-.07,.22-.01,.07,.06,.07,.16,.01,.22l-1.06,1.21s-.08,.05-.12,.05Z"/><path class="cls-1" d="M151.65,113.57h-15.8s-.09-.02-.12-.05l-6.74-7.69h-1c-.09,0-.16-.07-.16-.16s.07-.16,.16-.16h1.08s.09,.02,.12,.05l6.74,7.69h15.72c.09,0,.16,.07,.16,.16s-.07,.16-.16,.16Z"/><path class="cls-1" d="M121.47,149.92h-1.65c-.09,0-.16-.07-.16-.16s.07-.16,.16-.16h1.58l4.79-5.47v-17.88l-11.73-13.39h-2.28c-.09,0-.16-.07-.16-.16s.07-.16,.16-.16h2.35s.09,.02,.12,.05l11.82,13.49s.04,.07,.04,.1v18s-.01,.08-.04,.1l-4.88,5.57s-.07,.05-.12,.05Z"/><polygon class="cls-1" points="146.8 117.39 131.01 117.39 121.7 106.76 117.13 106.76 117.13 112.37 123.75 119.93 126.45 119.93 128.07 121.78 128.07 122.86 129.39 122.86 131.3 120.68 148.82 120.68 148.82 119.7 146.8 117.39"/><polygon class="cls-1" points="149.31 120.68 160.04 120.68 160.76 119.86 149.31 119.86 149.31 120.68"/><polygon class="cls-1" points="181.06 113.71 179.58 115.4 173.95 115.4 173.95 117.38 187.83 117.38 189.02 116.02 189.02 113.71 181.06 113.71"/><polygon class="cls-1" points="126.25 120.48 124.24 120.48 126.33 122.86 127.58 122.86 127.58 122.01 126.25 120.48"/><polygon class="cls-1" points="179.38 114.84 180.36 113.71 164.3 113.71 165.29 114.84 179.38 114.84"/><polygon class="cls-1" points="165.09 115.4 163.61 113.71 153.08 113.71 151.73 115.25 133.93 115.25 126.49 106.76 122.39 106.76 131.21 116.83 147 116.83 149.16 119.3 161.25 119.3 162.94 117.38 173.46 117.38 173.46 115.4 165.09 115.4"/><rect class="cls-3" x="173.46" y="117.38" width=".49" height=".47"/><path class="cls-1" d="M160.37,126.35h-34.03c-.09,0-.16-.07-.16-.16s.07-.16,.16-.16h33.96l2.95-3.36v-1.68c0-.09,.07-.16,.16-.16s.16,.07,.16,.16v1.74s-.01,.08-.04,.1l-3.03,3.46s-.07,.05-.12,.05Z"/><path class="cls-1" d="M130.5,197.86h-21.68s-.09-.02-.12-.05l-2.31-2.64h-8.06c-.09,0-.16-.07-.16-.16s.07-.16,.16-.16h8.13s.09,.02,.12,.05l2.31,2.64h21.54l2.45-2.8v-31.37l-8.94-10.2h-5.05c-.09,0-.16-.07-.16-.16s.07-.16,.16-.16h5.12s.09,.02,.12,.05l9.03,10.3s.04,.07,.04,.1v31.49s-.01,.08-.04,.1l-2.54,2.9s-.07,.05-.12,.05Z"/><polygon class="cls-1" points="123.28 153.01 132.55 163.58 132.55 166.28 133.02 166.82 133.04 163.31 124.02 153.01 123.28 153.01"/><polygon class="cls-1" points="126.35 143.35 121.21 149.22 121.21 149.76 121.47 149.76 126.35 144.19 126.35 143.35"/><path class="cls-1" d="M126.62,167.79h-5.41c-.18,0-.32-.14-.32-.32s.14-.32,.32-.32h5.09v-2.08l-3.35-3.83h-4.33c-.18,0-.32-.14-.32-.32s.14-.32,.32-.32h4.47c.09,0,.18,.04,.24,.11l3.53,4.03c.05,.06,.08,.13,.08,.21v2.52c0,.17-.14,.32-.32,.32Z"/><path class="cls-1" d="M119.91,167.63h-1.1c-.09,0-.16-.07-.16-.16s.07-.16,.16-.16h1.1c.09,0,.16,.07,.16,.16s-.07,.16-.16,.16Z"/><path class="cls-1" d="M126.62,176.41h-5.41c-.18,0-.32-.14-.32-.32s.14-.32,.32-.32h5.09v-2.08l-3.35-3.83h-4.33c-.18,0-.32-.14-.32-.32s.14-.32,.32-.32h4.47c.09,0,.18,.04,.24,.11l3.53,4.03c.05,.06,.08,.13,.08,.21v2.52c0,.17-.14,.32-.32,.32Z"/><path class="cls-1" d="M119.91,176.25h-1.1c-.09,0-.16-.07-.16-.16s.07-.16,.16-.16h1.1c.09,0,.16,.07,.16,.16s-.07,.16-.16,.16Z"/><path class="cls-1" d="M126.62,185.04h-5.41c-.18,0-.32-.14-.32-.32s.14-.32,.32-.32h5.09v-2.08l-3.35-3.83h-4.33c-.18,0-.32-.14-.32-.32s.14-.32,.32-.32h4.47c.09,0,.18,.04,.24,.11l3.53,4.03c.05,.06,.08,.13,.08,.21v2.52c0,.17-.14,.32-.32,.32Z"/><path class="cls-1" d="M119.91,184.88h-1.1c-.09,0-.16-.07-.16-.16s.07-.16,.16-.16h1.1c.09,0,.16,.07,.16,.16s-.07,.16-.16,.16Z"/><path class="cls-1" d="M126.62,193.67h-5.41c-.18,0-.32-.14-.32-.32s.14-.32,.32-.32h5.09v-2.08l-3.35-3.83h-4.33c-.18,0-.32-.14-.32-.32s.14-.32,.32-.32h4.47c.09,0,.18,.04,.24,.11l3.53,4.03c.05,.06,.08,.13,.08,.21v2.52c0,.17-.14,.32-.32,.32Z"/><path class="cls-1" d="M119.91,193.51h-1.1c-.09,0-.16-.07-.16-.16s.07-.16,.16-.16h1.1c.09,0,.16,.07,.16,.16s-.07,.16-.16,.16Z"/><path class="cls-1" d="M157.1,161.61h-22.35s-.09-.02-.12-.05l-7.4-8.45s-.04-.07-.04-.1v-2.23s.01-.08,.04-.1l1.49-1.71v-19.92c0-.09,.07-.16,.16-.16h4.09c.09,0,.16,.07,.16,.16s-.07,.16-.16,.16h-3.93v19.83s-.01,.08-.04,.1l-1.49,1.71v2.11l7.31,8.35h22.2l3.57-4.07c.06-.07,.16-.07,.22-.01,.07,.06,.07,.16,.01,.22l-3.62,4.13s-.07,.05-.12,.05Z"/><path class="cls-1" d="M137.79,129.36h-3.02c-.17,0-.32-.14-.32-.32s.14-.32,.32-.32h3.02c.17,0,.32,.14,.32,.32s-.14,.32-.32,.32Z"/><path class="cls-1" d="M162.31,126.15c-.07,0-.15-.03-.21-.08-.13-.12-.14-.32-.03-.45l1.59-1.82c.12-.13,.32-.14,.45-.03,.13,.11,.14,.32,.03,.45l-1.59,1.82c-.06,.07-.15,.11-.24,.11Z"/><polygon class="cls-1" points="103.19 178.89 111.17 187.99 111.17 193.35 113.19 195.65 115.12 195.65 115.12 186.81 108.58 179.35 106.39 179.35 106.02 178.93 103.19 178.89"/><polygon class="cls-2" points="104.37 185.69 110.1 192.23 110.1 193.12 112.44 195.79 110.1 195.79 104.34 189.22 104.37 185.69"/><path class="cls-1" d="M155.07,159.33h-11.75l-.02-.03-11.14-12.72v-8.92l4.08-4.66h26.88l5.99-6.84v-4.57h24.55v9.88l-6.93,7.91h-14.19l-17.48,19.95Zm-11.68-.16h11.6l17.48-19.95h14.19l6.84-7.81v-9.66h-24.23v4.47l-6.07,6.93h-26.88l-4,4.56v8.8l11.08,12.64Z"/><path class="cls-1" d="M187.66,169.63h-27.53v-6.1l3.78-4.32v-4.8l9.76-11.15h20.46v10.3l-6.47,7.39v8.68Zm-27.37-.16h27.21v-8.58l6.47-7.39v-10.08h-20.23l-9.68,11.05v4.8l-3.78,4.32v5.88Z"/><path class="cls-1" d="M153.02,197.27h-16.15v-19.85h8.11l.02,.03,8.02,9.33v10.5Zm-16-.16h15.84v-10.28l-7.96-9.26h-7.88v19.54Z"/><polygon class="cls-1" points="162.96 150.18 161.43 148.44 157.27 148.44 149.88 140 149.88 133.08 150.04 133.08 150.04 139.94 157.35 148.28 161.5 148.28 163.08 150.08 162.96 150.18"/><polygon class="cls-1" points="170.09 169.55 169.93 169.55 169.93 167.42 169.95 167.4 181.41 154.32 181.41 143.35 181.57 143.35 181.57 154.38 181.55 154.4 170.09 167.48 170.09 169.55"/><polygon class="cls-1" points="140.4 189.64 136.95 189.64 136.95 189.48 140.33 189.48 147.85 180.89 147.97 181 140.4 189.64"/><g><path class="cls-1" d="M191.67,164.65s-.09-.02-.12-.05l-1.2-1.37s-.04-.07-.04-.1v-1.81s.01-.08,.04-.1l3.58-4.09c.06-.06,.16-.07,.22-.01,.07,.06,.07,.16,.01,.22l-3.54,4.04v1.69l1.16,1.33c.06,.07,.05,.17-.01,.22-.03,.03-.07,.04-.1,.04Z"/><polygon class="cls-1" points="192.16 167.59 191.49 167.59 190.39 166.34 190.39 163.12 190.55 163.12 190.55 166.28 191.56 167.43 192.16 167.43 192.16 167.59"/><polygon class="cls-1" points="191.09 162.33 190.93 162.33 190.93 161.6 192.82 159.44 192.94 159.54 191.09 161.66 191.09 162.33"/><path class="cls-1" d="M194.55,156.71s-.07-.01-.1-.04c-.07-.06-.07-.16-.01-.22l.36-.41c.06-.06,.16-.07,.22-.01,.07,.06,.07,.16,.01,.22l-.36,.41s-.08,.05-.12,.05Z"/><path class="cls-1" d="M193.77,167.67h-1.09c-.09,0-.16-.07-.16-.16s.07-.16,.16-.16h1.09c.09,0,.16,.07,.16,.16s-.07,.16-.16,.16Z"/></g><g><path class="cls-1" d="M191.67,177.17s-.09-.02-.12-.05l-1.2-1.37s-.04-.07-.04-.1v-1.81s.01-.08,.04-.1l3.58-4.09c.06-.06,.16-.07,.22-.01,.07,.06,.07,.16,.01,.22l-3.54,4.04v1.69l1.16,1.33c.06,.07,.05,.17-.01,.22-.03,.03-.07,.04-.1,.04Z"/><polygon class="cls-1" points="192.16 180.11 191.49 180.11 190.39 178.85 190.39 175.64 190.55 175.64 190.55 178.79 191.56 179.95 192.16 179.95 192.16 180.11"/><polygon class="cls-1" points="191.09 174.85 190.93 174.85 190.93 174.12 192.82 171.96 192.94 172.06 191.09 174.18 191.09 174.85"/><path class="cls-1" d="M194.55,169.23s-.07-.01-.1-.04c-.07-.06-.07-.16-.01-.22l.36-.41c.06-.06,.16-.07,.22-.01,.07,.06,.07,.16,.01,.22l-.36,.41s-.08,.05-.12,.05Z"/><path class="cls-1" d="M193.77,180.19h-1.09c-.09,0-.16-.07-.16-.16s.07-.16,.16-.16h1.09c.09,0,.16,.07,.16,.16s-.07,.16-.16,.16Z"/></g><g><path class="cls-1" d="M191.67,189.68s-.09-.02-.12-.05l-1.2-1.37s-.04-.07-.04-.1v-1.81s.01-.08,.04-.1l3.58-4.09c.06-.06,.16-.07,.22-.01,.07,.06,.07,.16,.01,.22l-3.54,4.04v1.69l1.16,1.33c.06,.07,.05,.17-.01,.22-.03,.03-.07,.04-.1,.04Z"/><polygon class="cls-1" points="192.16 192.62 191.49 192.62 190.39 191.37 190.39 188.15 190.55 188.15 190.55 191.31 191.56 192.47 192.16 192.47 192.16 192.62"/><polygon class="cls-1" points="191.09 187.36 190.93 187.36 190.93 186.63 192.82 184.47 192.94 184.58 191.09 186.69 191.09 187.36"/><path class="cls-1" d="M194.55,181.75s-.07-.01-.1-.04c-.07-.06-.07-.16-.01-.22l.36-.41c.06-.06,.16-.07,.22-.01,.07,.06,.07,.16,.01,.22l-.36,.41s-.08,.05-.12,.05Z"/><path class="cls-1" d="M193.77,192.7h-1.09c-.09,0-.16-.07-.16-.16s.07-.16,.16-.16h1.09c.09,0,.16,.07,.16,.16s-.07,.16-.16,.16Z"/></g><polygon class="cls-1" points="156.39 174.36 156.27 174.26 157.57 172.77 186.15 172.77 190.41 167.91 190.53 168.01 186.22 172.93 157.64 172.93 156.39 174.36"/><polygon class="cls-1" points="156.39 186.43 156.27 186.33 157.57 184.84 186.15 184.84 190.41 179.98 190.53 180.08 186.22 185 157.64 185 156.39 186.43"/><polygon class="cls-1" points="156.39 198.95 156.27 198.84 157.57 197.36 186.15 197.36 190.41 192.49 190.53 192.6 186.22 197.52 157.64 197.52 156.39 198.95"/><rect class="cls-1" x="123.78" y="128.23" width=".71" height=".81"/><rect class="cls-1" x="123.78" y="132.67" width=".71" height=".81"/><rect class="cls-1" x="123.78" y="137.11" width=".71" height=".81"/><rect class="cls-1" x="123.78" y="141.55" width=".71" height=".81"/></g><g><path class="cls-1" d="M59.67,114.51h-15.58c-.09,0-.18-.04-.24-.11l-2.57-2.94h-15.94l-.89,1.01v1.71c0,.17-.14,.32-.32,.32s-.32-.14-.32-.32v-1.83c0-.08,.03-.15,.08-.21l1.06-1.21c.06-.07,.15-.11,.24-.11h16.23c.09,0,.18,.04,.24,.11l2.57,2.94h15.29l8.34-9.52c.06-.07,.15-.11,.24-.11h9.82c.17,0,.32,.14,.32,.32s-.14,.32-.32,.32h-9.68l-8.34,9.52c-.06,.07-.15,.11-.24,.11Z"/><path class="cls-1" d="M23.86,110.8s-.09-.02-.12-.05l-1.06-1.21c-.06-.07-.05-.17,.01-.22,.07-.06,.17-.05,.22,.01l1.06,1.21c.06,.07,.05,.17-.01,.22-.03,.03-.07,.04-.1,.04Z"/><path class="cls-1" d="M59.21,113.57h-15.8c-.09,0-.16-.07-.16-.16s.07-.16,.16-.16h15.72l6.74-7.69s.07-.05,.12-.05h1.08c.09,0,.16,.07,.16,.16s-.07,.16-.16,.16h-1l-6.74,7.69s-.07,.05-.12,.05Z"/><path class="cls-1" d="M75.24,149.92h-1.65s-.09-.02-.12-.05l-4.88-5.57s-.04-.07-.04-.1v-18s.01-.08,.04-.1l11.82-13.49s.07-.05,.12-.05h2.35c.09,0,.16,.07,.16,.16s-.07,.16-.16,.16h-2.28l-11.73,13.39v17.88l4.79,5.47h1.58c.09,0,.16,.07,.16,.16s-.07,.16-.16,.16Z"/><polygon class="cls-1" points="48.27 117.39 64.05 117.39 73.36 106.76 77.93 106.76 77.93 112.37 71.31 119.93 68.61 119.93 66.99 121.78 66.99 122.86 65.67 122.86 63.76 120.68 46.25 120.68 46.25 119.7 48.27 117.39"/><polygon class="cls-1" points="45.76 120.68 35.02 120.68 34.3 119.86 45.76 119.86 45.76 120.68"/><polygon class="cls-1" points="14.01 113.71 15.49 115.4 21.11 115.4 21.11 117.38 7.23 117.38 6.05 116.02 6.05 113.71 14.01 113.71"/><polygon class="cls-1" points="68.82 120.48 70.82 120.48 68.74 122.86 67.48 122.86 67.48 122.01 68.82 120.48"/><polygon class="cls-1" points="15.69 114.84 14.7 113.71 30.76 113.71 29.78 114.84 15.69 114.84"/><polygon class="cls-1" points="29.98 115.4 31.46 113.71 41.99 113.71 43.33 115.25 61.14 115.25 68.57 106.76 72.67 106.76 63.85 116.83 48.06 116.83 45.9 119.3 33.81 119.3 32.13 117.38 21.6 117.38 21.6 115.4 29.98 115.4"/><rect class="cls-3" x="21.11" y="117.38" width=".49" height=".47"/><path class="cls-1" d="M68.72,126.35H34.69s-.09-.02-.12-.05l-3.03-3.46s-.04-.07-.04-.1v-1.74c0-.09,.07-.16,.16-.16s.16,.07,.16,.16v1.68l2.95,3.36h33.96c.09,0,.16,.07,.16,.16s-.07,.16-.16,.16Z"/><path class="cls-1" d="M86.24,197.86h-21.68s-.09-.02-.12-.05l-2.54-2.9s-.04-.07-.04-.1v-31.49s.01-.08,.04-.1l9.03-10.3s.07-.05,.12-.05h5.12c.09,0,.16,.07,.16,.16s-.07,.16-.16,.16h-5.05l-8.94,10.2v31.37l2.45,2.8h21.54l2.31-2.64s.07-.05,.12-.05h8.13c.09,0,.16,.07,.16,.16s-.07,.16-.16,.16h-8.06l-2.31,2.64s-.07,.05-.12,.05Z"/><polygon class="cls-1" points="71.78 153.01 62.52 163.58 62.52 166.28 62.05 166.82 62.02 163.31 71.05 153.01 71.78 153.01"/><polygon class="cls-1" points="68.72 143.35 73.85 149.22 73.85 149.76 73.6 149.76 68.72 144.19 68.72 143.35"/><path class="cls-1" d="M73.85,167.79h-5.41c-.17,0-.32-.14-.32-.32v-2.52c0-.08,.03-.15,.08-.21l3.53-4.03c.06-.07,.15-.11,.24-.11h4.47c.18,0,.32,.14,.32,.32s-.14,.32-.32,.32h-4.33l-3.35,3.83v2.08h5.09c.17,0,.32,.14,.32,.32s-.14,.32-.32,.32Z"/><path class="cls-1" d="M76.25,167.63h-1.1c-.09,0-.16-.07-.16-.16s.07-.16,.16-.16h1.1c.09,0,.16,.07,.16,.16s-.07,.16-.16,.16Z"/><path class="cls-1" d="M73.85,176.41h-5.41c-.17,0-.32-.14-.32-.32v-2.52c0-.08,.03-.15,.08-.21l3.53-4.03c.06-.07,.15-.11,.24-.11h4.47c.18,0,.32,.14,.32,.32s-.14,.32-.32,.32h-4.33l-3.35,3.83v2.08h5.09c.17,0,.32,.14,.32,.32s-.14,.32-.32,.32Z"/><path class="cls-1" d="M76.25,176.25h-1.1c-.09,0-.16-.07-.16-.16s.07-.16,.16-.16h1.1c.09,0,.16,.07,.16,.16s-.07,.16-.16,.16Z"/><path class="cls-1" d="M73.85,185.04h-5.41c-.17,0-.32-.14-.32-.32v-2.52c0-.08,.03-.15,.08-.21l3.53-4.03c.06-.07,.15-.11,.24-.11h4.47c.18,0,.32,.14,.32,.32s-.14,.32-.32,.32h-4.33l-3.35,3.83v2.08h5.09c.17,0,.32,.14,.32,.32s-.14,.32-.32,.32Z"/><path class="cls-1" d="M76.25,184.88h-1.1c-.09,0-.16-.07-.16-.16s.07-.16,.16-.16h1.1c.09,0,.16,.07,.16,.16s-.07,.16-.16,.16Z"/><path class="cls-1" d="M73.85,193.67h-5.41c-.17,0-.32-.14-.32-.32v-2.52c0-.08,.03-.15,.08-.21l3.53-4.03c.06-.07,.15-.11,.24-.11h4.47c.18,0,.32,.14,.32,.32s-.14,.32-.32,.32h-4.33l-3.35,3.83v2.08h5.09c.17,0,.32,.14,.32,.32s-.14,.32-.32,.32Z"/><path class="cls-1" d="M76.25,193.51h-1.1c-.09,0-.16-.07-.16-.16s.07-.16,.16-.16h1.1c.09,0,.16,.07,.16,.16s-.07,.16-.16,.16Z"/><path class="cls-1" d="M60.31,161.61h-22.35s-.09-.02-.12-.05l-3.62-4.13c-.06-.07-.05-.17,.01-.22,.07-.06,.17-.05,.22,.01l3.57,4.07h22.2l7.31-8.35v-2.11l-1.49-1.71s-.04-.07-.04-.1v-19.83h-3.93c-.09,0-.16-.07-.16-.16s.07-.16,.16-.16h4.09c.09,0,.16,.07,.16,.16v19.92l1.49,1.71s.04,.07,.04,.1v2.23s-.01,.08-.04,.1l-7.4,8.45s-.07,.05-.12,.05Z"/><path class="cls-1" d="M60.3,129.36h-3.02c-.17,0-.32-.14-.32-.32s.14-.32,.32-.32h3.02c.17,0,.32,.14,.32,.32s-.14,.32-.32,.32Z"/><path class="cls-1" d="M32.75,126.15c-.09,0-.18-.04-.24-.11l-1.59-1.82c-.12-.13-.1-.33,.03-.45,.13-.12,.33-.1,.45,.03l1.59,1.82c.12,.13,.1,.33-.03,.45-.06,.05-.13,.08-.21,.08Z"/><polygon class="cls-1" points="91.87 178.89 83.89 187.99 83.89 193.35 81.87 195.65 79.95 195.65 79.95 186.81 86.48 179.35 88.68 179.35 89.04 178.93 91.87 178.89"/><polygon class="cls-2" points="90.69 185.69 84.96 192.23 84.96 193.12 82.62 195.79 84.96 195.79 90.72 189.22 90.69 185.69"/><path class="cls-1" d="M51.74,159.33h-11.75l-.02-.03-17.45-19.92H8.33l-6.93-7.91v-9.88H25.95v4.57l5.99,6.84h26.88l4.08,4.66v8.92l-.02,.02-11.14,12.72Zm-11.68-.16h11.6l11.08-12.64v-8.8l-4-4.56H31.87l-6.07-6.93v-4.47H1.56v9.66l6.84,7.81h14.19l.02,.03,17.45,19.92Z"/><path class="cls-1" d="M34.94,169.63H7.41v-8.68l-6.47-7.39v-10.3H21.39l9.76,11.15v4.8l3.78,4.32v6.1Zm-27.37-.16h27.21v-5.88l-3.78-4.32v-4.8l-9.68-11.05H1.09v10.08l6.47,7.39v8.58Z"/><path class="cls-1" d="M58.19,197.27h-16.15v-10.5l.02-.02,8.02-9.34h8.11v19.85Zm-16-.16h15.84v-19.54h-7.88l-7.96,9.26v10.28Z"/><polygon class="cls-1" points="32.1 150.18 31.98 150.08 33.56 148.28 37.72 148.28 45.02 139.94 45.02 133.08 45.18 133.08 45.18 140 37.79 148.44 33.63 148.44 32.1 150.18"/><polygon class="cls-1" points="25.14 169.55 24.98 169.55 24.98 167.48 13.5 154.38 13.5 143.35 13.66 143.35 13.66 154.32 25.14 167.42 25.14 169.55"/><polygon class="cls-1" points="58.12 189.64 54.67 189.64 47.1 181 47.21 180.89 54.74 189.48 58.12 189.48 58.12 189.64"/><g><path class="cls-1" d="M3.39,164.65s-.07-.01-.1-.04c-.07-.06-.07-.16-.01-.22l1.16-1.33v-1.69l-3.54-4.04c-.06-.07-.05-.17,.01-.22,.07-.06,.17-.05,.22,.01l3.58,4.09s.04,.07,.04,.1v1.81s-.01,.08-.04,.1l-1.2,1.37s-.08,.05-.12,.05Z"/><polygon class="cls-1" points="3.58 167.59 2.91 167.59 2.91 167.43 3.51 167.43 4.52 166.28 4.52 163.12 4.67 163.12 4.67 166.34 3.58 167.59"/><polygon class="cls-1" points="4.14 162.33 3.98 162.33 3.98 161.66 2.12 159.54 2.24 159.44 4.14 161.6 4.14 162.33"/><path class="cls-1" d="M.52,156.71s-.09-.02-.12-.05l-.36-.41c-.06-.07-.05-.17,.01-.22,.07-.06,.17-.05,.22,.01l.36,.41c.06,.07,.05,.17-.01,.22-.03,.03-.07,.04-.1,.04Z"/><path class="cls-1" d="M2.38,167.67H1.29c-.09,0-.16-.07-.16-.16s.07-.16,.16-.16h1.09c.09,0,.16,.07,.16,.16s-.07,.16-.16,.16Z"/></g><g><path class="cls-1" d="M3.39,177.17s-.07-.01-.1-.04c-.07-.06-.07-.16-.01-.22l1.16-1.33v-1.69l-3.54-4.04c-.06-.07-.05-.17,.01-.22,.07-.06,.17-.05,.22,.01l3.58,4.09s.04,.07,.04,.1v1.81s-.01,.08-.04,.1l-1.2,1.37s-.08,.05-.12,.05Z"/><polygon class="cls-1" points="3.58 180.11 2.91 180.11 2.91 179.95 3.51 179.95 4.52 178.79 4.52 175.64 4.67 175.64 4.67 178.85 3.58 180.11"/><polygon class="cls-1" points="4.14 174.85 3.98 174.85 3.98 174.18 2.12 172.06 2.24 171.96 4.14 174.12 4.14 174.85"/><path class="cls-1" d="M.52,169.23s-.09-.02-.12-.05l-.36-.41c-.06-.07-.05-.17,.01-.22,.07-.06,.17-.05,.22,.01l.36,.41c.06,.07,.05,.17-.01,.22-.03,.03-.07,.04-.1,.04Z"/><path class="cls-1" d="M2.38,180.19H1.29c-.09,0-.16-.07-.16-.16s.07-.16,.16-.16h1.09c.09,0,.16,.07,.16,.16s-.07,.16-.16,.16Z"/></g><g><path class="cls-1" d="M3.39,189.68s-.07-.01-.1-.04c-.07-.06-.07-.16-.01-.22l1.16-1.33v-1.69l-3.54-4.04c-.06-.07-.05-.17,.01-.22,.07-.06,.17-.05,.22,.01l3.58,4.09s.04,.07,.04,.1v1.81s-.01,.08-.04,.1l-1.2,1.37s-.08,.05-.12,.05Z"/><polygon class="cls-1" points="3.58 192.62 2.91 192.62 2.91 192.47 3.51 192.47 4.52 191.31 4.52 188.15 4.67 188.15 4.67 191.37 3.58 192.62"/><polygon class="cls-1" points="4.14 187.36 3.98 187.36 3.98 186.69 2.12 184.58 2.24 184.47 4.14 186.63 4.14 187.36"/><path class="cls-1" d="M.52,181.75s-.09-.02-.12-.05l-.36-.41c-.06-.07-.05-.17,.01-.22,.07-.06,.17-.05,.22,.01l.36,.41c.06,.07,.05,.17-.01,.22-.03,.03-.07,.04-.1,.04Z"/><path class="cls-1" d="M2.38,192.7H1.29c-.09,0-.16-.07-.16-.16s.07-.16,.16-.16h1.09c.09,0,.16,.07,.16,.16s-.07,.16-.16,.16Z"/></g><polygon class="cls-1" points="38.68 174.36 37.42 172.93 8.85 172.93 4.54 168.01 4.65 167.91 8.92 172.77 37.5 172.77 38.8 174.26 38.68 174.36"/><polygon class="cls-1" points="38.68 186.43 37.42 185 8.85 185 4.54 180.08 4.65 179.98 8.92 184.84 37.5 184.84 38.8 186.33 38.68 186.43"/><polygon class="cls-1" points="38.68 198.95 37.42 197.52 8.85 197.52 4.54 192.6 4.65 192.49 8.92 197.36 37.5 197.36 38.8 198.84 38.68 198.95"/><rect class="cls-1" x="70.57" y="128.23" width=".71" height=".81" transform="translate(141.86 257.28) rotate(180)"/><rect class="cls-1" x="70.57" y="132.67" width=".71" height=".81" transform="translate(141.86 266.16) rotate(180)"/><rect class="cls-1" x="70.57" y="137.11" width=".71" height=".81" transform="translate(141.86 275.04) rotate(180)"/><rect class="cls-1" x="70.57" y="141.55" width=".71" height=".81" transform="translate(141.86 283.92) rotate(180)"/></g></g></g></svg>