<svg xmlns="http://www.w3.org/2000/svg" id="Layer_1" x="0" y="0" enable-background="new 0 0 140 140" version="1.1" viewBox="0 0 140 140" xml:space="preserve"><g id="Add_Folder"><path fill="#f9a83d" d="M89.1576385,76.3199463l-56.6599693,32.710083
										c-0.2600098,0.1500244-0.5200195,0.1900635-0.7700195,0.1400146c0.0100098,0,0.0200195,0.0100098,0.0200195,0.0100098
										l-2.1900024-0.3500977c-0.460022-0.0699463-0.8599854-0.4599609-1.0300293-1.0799561L15.7176399,60.0400391
										c-0.25-0.9300537,0.1300049-2.0300293,0.8699951-2.4500732l28.8400269-16.6499023
										c0.3900146-0.2199707,0.6900024-0.6600342,0.8399658-1.1800537l1.8200073-6.3800049
										c0.1500244-0.5200195,0.460022-0.9599609,0.8500366-1.1799316l22.7399864-13.130127
										c0.6165771-0.3450146,0.873085-0.0611458,2.9400024,0.2000732h-0.039978
										c0.4799805,0.0599365,0.8999634,0.4400635,1.0699463,1.0799561l14.3699951,53.5200195
										C90.2676239,74.7999268,89.8876801,75.9000244,89.1576385,76.3199463z"/><path fill="#f9cf6b" d="M73.872406,19.4205685c0.7302246-0.4215946,1.526062-0.0068073,1.7764206,0.925869
														L90.0220184,73.867775c0.2503586,0.9326782-0.1390915,2.0317917-0.8693161,2.4533844L32.4996605,109.029808
														c-0.7328815,0.4231339-1.5260582,0.006813-1.7764225-0.9258652l-12.8129559-47.709034
														c-0.2503643-0.9326744,0.1364288-2.0302544,0.8693085-2.4533806l28.835804-16.6483612
														c0.388958-0.2245636,0.6977501-0.6565208,0.8474922-1.1801071l1.8167114-6.3803406
														c0.1497421-0.5235863,0.4611816-0.9570999,0.8501053-1.1816444L73.872406,19.4205685z"/><path fill="#f9a83d" d="M74.6210556,19.2701778c-0.7215347-0.1244583,0.3336563-0.3703346-23.4916725,13.2811565
														c-0.3895035,0.2237587-0.7002945,0.6588631-0.8495178,1.1809959l-1.8149757,6.3815994
														c-0.1533699,0.5221329-0.4600143,0.9530869-0.849514,1.1809959L18.7780209,57.9409409
														c-0.7293282,0.4226608-1.1188278,1.5208015-0.8660069,2.4531746l12.8125267,47.7088127
														c0.1616173,0.6133118,0.5636139,1.006958,1.0276756,1.0774231l-2.1921329-0.3480988
														c-0.4640617-0.074585-0.8660069-0.4641113-1.0318241-1.0815506L15.7157326,60.0418701
														c-0.2486734-0.932373,0.1367302-2.0304909,0.8702068-2.4531746l28.8373013-16.6459885
														c0.3894997-0.2237625,0.6961975-0.6588898,0.8453712-1.1810226l1.8191719-6.3815727
														c0.1491737-0.5221367,0.4599648-0.9572372,0.8494644-1.1810226l22.7417145-13.131958
														C72.2845688,18.7238388,72.5204773,19.0019436,74.6210556,19.2701778z"/><g><polygon fill="#e3e7f0" points="87.098 15.544 73.099 7.552 85.879 14.83"/><path fill="#e3e7f0" d="M87.2776337,67.5799561c0,1.2600098-0.8800049,2.8000488-1.9899902,3.4400635l-50.2099571,28.9899902
								c-0.7900391,0.4500732-1.4700317,0.3099365-1.7900391-0.2700195c0.0900269,0.1800537,0.210022,0.3199463,0.3699951,0.4100342
								l-2.6799927-1.5500488c-0.3499756-0.2099609-0.5800171-0.6398926-0.5800171-1.2900391l-0.2099609-65.7999268
								c0-1.25,0.8900146-2.789917,1.9899902-3.4300537L70.4076385,6l2.6900024,1.5499268l14,8L87.2776337,67.5799561z"/><path fill="#f1f6fa" d="M73.0923615,7.5517378l0.0390396,13.7709074
											c0.0035858,1.2646599,0.8958206,1.7731171,1.9964066,1.1376915l11.973175-6.9127121l0.1745529,52.0319443
											c0.0035858,1.2646561-0.8828506,2.8002014-1.9834366,3.4356308l-50.2162857,28.9923859
											c-1.1005898,0.6354218-1.9928246,0.1267929-1.9964066-1.1378632l-0.2136002-65.8026733
											c-0.0035858-1.264658,0.8828506-2.8002052,1.9834404-3.4356308L73.0923615,7.5517378z"/><path fill="#e3e7f0" d="M73.0923615,7.5517378l14.0086212,7.9958868l-11.973175,6.9127121
											c-1.1005859,0.6354256-1.9928207,0.1269684-1.9964066-1.1376915L73.0923615,7.5517378z"/><path fill="#e3e7f0" d="M70.4116592,6l2.687233,1.5517321L34.8441315,29.6304035
										c-1.0971947,0.6444588-1.9852409,2.1765366-1.9852409,3.4301701l0.2265816,65.802063
										c0,0.6270294,0.2087288,1.0797653,0.5743179,1.2884979l-2.6870232-1.5515213
										c-0.3481617-0.2089386-0.5745296-0.644249-0.5745296-1.2884979l-0.2089386-65.8020554
										c0-1.2536354,0.8880444-2.7859249,1.9850254-3.430172L70.4116592,6z"/></g><g><path fill="#f9a83d" d="M90.4463959,31.472168c-0.0011597-0.4179688-0.1495361-0.7113037-0.3885498-0.8487549
								c0.0009155,0.0004883,0.0020142,0.0006104,0.0028687,0.0010986l-2.3365479-1.3577881
								c-0.2409058-0.1401367-0.5749512-0.1202393-0.9440918,0.0928955L64.0400238,42.4886475
								c-0.3889122,0.2244873-0.7587242,0.6359863-1.0091515,1.121582l-3.0440063,5.9169922
								c-0.2503662,0.4857178-0.6202393,0.8972168-1.0091553,1.1217041L30.1418953,67.2972412
								c-0.7302246,0.4216309-1.3209229,1.4448242-1.3185425,2.2839355l0.1088257,38.3879395
								c0.0011597,0.416748,0.1484985,0.7102051,0.3860474,0.8481445l2.3364868,1.3579102
								c-0.0328979-0.019165-0.0595093-0.0483398-0.0888062-0.0732422c0.2434692,0.2077637,0.6122437,0.2224121,1.0299072-0.0187988
								l56.6530113-32.7084961c0.7329102-0.4232178,1.3236084-1.4462891,1.321228-2.2854004L90.4463959,31.472168z"/><path fill="#ffd06c" d="M89.1165619,30.7174282c0.7328796-0.4231281,1.3274536-0.084301,1.329834,0.7547836
												l0.1236496,43.6169815c0.0023804,0.8390884-0.5883255,1.862236-1.3212051,2.2853622l-56.6530151,32.7086334
												c-0.7302227,0.4216003-1.3247948,0.0827713-1.3271732-0.7563171l-0.1088295-38.3879395
												c-0.0023804-0.8390808,0.5883312-1.862236,1.3185558-2.2838287l28.835804-16.6483574
												c0.3889389-0.224556,0.7587662-0.635994,1.0091553-1.1216125l3.0440331-5.9171143
												c0.2503967-0.4856148,0.620224-0.8970757,1.00914-1.1216202L89.1165619,30.7174282z"/><path fill="#f9a83d" d="M87.7241898,29.2667046c-0.2409363-0.1400185-0.5749435-0.1202145-0.9441147,0.0929241
											l-22.740036,13.128973c-0.3889198,0.2245445-0.7587433,0.6359978-1.0091362,1.1216087l-3.0440292,5.9171066
											c-0.2503929,0.4856377-0.6202164,0.8970642-1.0091629,1.1216125l-28.8358078,16.648365
											c-0.7302132,0.4216003-1.32094,1.4447479-1.3185635,2.2838211l0.1088333,38.3879471
											c0.0011883,0.4168396,0.1485157,0.710228,0.3860359,0.8482513l2.3364754,1.357811
											c-0.2375183-0.1380157-0.3848476-0.4314041-0.3860359-0.8482513l-0.1088314-38.3879471
											c-0.0023785-0.8390656,0.5883484-1.8622208,1.3185616-2.2838135l28.8358078-16.6483688
											c0.3889465-0.2245445,0.75877-0.6360016,1.0091629-1.1216125l3.0440292-5.9171028
											c0.2503967-0.4856148,0.6202164-0.8970947,1.0091324-1.1216393l22.7400665-13.1289711
											c0.3691177-0.2131119,0.703125-0.2329159,0.9441147-0.0928974L87.7241898,29.2667046z"/></g><g><polygon fill="#d4daea" points="43.484 55.298 34.777 60.325 34.783 61.449 43.484 56.425"/><polygon fill="#d4daea" points="44.969 54.441 44.969 55.568 51.276 51.926 51.276 50.799"/><polygon fill="#78e75a" points="52.23 50.249 52.23 51.375 60.112 46.825 60.112 45.698"/><polygon fill="#f9a83d" points="47.068 40.649 34.777 47.746 34.783 48.869 47.068 41.776"/><polygon fill="#d4daea" points="60.199 33.068 48.997 39.536 48.997 40.663 60.199 34.195"/><polygon fill="#d4daea" points="70.437 27.158 61.683 32.212 61.683 33.339 70.437 28.284"/><polygon fill="#bf7d5a" points="78.01 22.785 72.217 26.13 72.217 27.257 78.01 23.912"/><polygon fill="#d4daea" points="78.982 22.224 78.982 23.351 85.29 19.709 85.29 18.582"/><g><polygon fill="#f45170" points="58.744 38.102 58.744 39.229 67.035 34.442 67.035 33.315"/><polygon fill="#d4daea" points="43.346 46.992 34.777 51.939 34.783 53.063 43.346 48.119"/><polygon fill="#d4daea" points="44.708 46.205 44.708 47.332 57.441 39.981 57.441 38.854"/><polygon fill="#d4daea" points="74.899 28.775 68.516 32.46 68.516 33.587 74.899 29.901"/><polygon fill="#d4daea" points="81.437 25 75.482 28.438 75.482 29.565 81.437 26.127"/><polygon fill="#d4daea" points="82.141 24.593 82.141 25.72 85.29 23.902 85.29 22.775"/></g><g><polygon fill="#d4daea" points="65.051 38.654 65.051 39.78 73.864 34.692 73.864 33.565"/><polygon fill="#d4daea" points="39.493 53.41 34.777 56.132 34.783 57.256 39.493 54.537"/><polygon fill="#4c5c75" points="40.848 52.627 40.848 53.754 47.085 50.153 47.085 49.026"/><polygon fill="#d4daea" points="48.374 48.282 48.374 49.409 54.678 45.769 54.678 44.642"/><polygon fill="#d4daea" points="55.56 44.133 55.56 45.26 63.966 40.407 63.966 39.28"/><polygon fill="#57b3fe" points="79.201 30.484 74.813 33.017 74.813 34.144 79.201 31.611"/><polygon fill="#d4daea" points="80.076 29.979 80.076 31.106 85.29 28.095 85.29 26.968"/></g></g><g><polygon fill="#ffdd95" points="69.67 14.207 34.777 34.115 34.784 43.867 69.67 23.963"/></g><g><path fill="#f45170" d="M61.7043724,60.8777657c6.4418907-3.7192268,11.6786232-0.7349739,11.699604,6.6672478
											c0.0209885,7.4021225-5.1817169,16.4210968-11.6236038,20.1403275
											c-6.441803,3.7191696-11.6850777,0.7311859-11.7060623-6.6709366
											C50.0533257,73.6121826,55.2625694,64.5969391,61.7043724,60.8777657z"/><polygon fill="#fff" points="63.192 66.25 63.207 71.736 67.981 68.979 67.991 72.375 63.217 75.131 63.232 80.606 60.277 82.312 60.262 76.837 55.497 79.588 55.488 76.193 60.252 73.442 60.237 67.956"/></g><g><path fill="#b0b8cf" d="M109.3700485 114.3482819c0 0-.8183365 4.300827.5620575 4.8430328.9889679.3884583 4.9875488 1.1716843 6.3940964 1.8551025 1.6162415.7852936 6.2315292 1.6794128 7.5131912.8839035 1.281662-.795517 0-3.4914246-1.7236099-4.8614807-1.7236176-1.3700485-4.2444305-1.7288132-5.3051147-3.0546722C115.7499771 112.6883087 109.3700485 114.3482819 109.3700485 114.3482819zM96.3813019 122.8954391c0 0-1.2244492 2.5229568-.2236938 4.0194397 1.0007553 1.4964676 5.8247604 7.8264847 8.7670288 7.0133133 2.942276-.8131714 3.849884-1.4269409 2.359581-3.7913971-1.4903107-2.3644485-3.0615234-5.2474747-3.5780411-6.2882996C103.1896591 122.807663 96.3813019 122.8954391 96.3813019 122.8954391z"/><path fill="#4c5c75" d="M116.5796661,113.824501c0.0334167,0.4896851-1.4690475,0.8680344-3.1161194,1.034996
								c-1.9364471,0.1781006-4.0509872,0.0667725-4.0954819-0.5119629
								c0.1558228-2.5040359-1.9253693-20.9447937-1.6137238-24.0609741
								c0.3116455-3.1161194,0.9459457-16.0591965,0.9459457-16.0591965l7.6011505,3.29422l3.2719421,1.4134064
								C119.5733795,78.9349899,113.9420853,100.8035126,116.5796661,113.824501z"/><path fill="#44546b" d="M113.5080338,102.8178635c0.1224747,2.9714355,0.6566467,5.9318008,0.6120834,8.9032364
								c-0.0222092,1.0684128-0.166893,2.248085-0.6565704,3.1383972c-1.9364471,0.1781006-4.0509872,0.0667725-4.0954819-0.5119629
								c0.1001282-1.6582184-0.7790451-10.3611298-1.291008-16.9160843
								c-0.1001205-1.2130966-0.1780319-2.3482819-0.2336655-3.3498535
								c-0.1113281-1.7584076-0.1558228-3.1272583-0.0890503-3.7950363
								c0.3116455-3.1161194,0.9459457-16.0591965,0.9459457-16.0591965l7.6011505,3.29422
								C116.1567535,85.9462738,113.1519012,94.3486862,113.5080338,102.8178635z"/><path fill="#1d2943" d="M110.0024338,87.6601181c-0.1001968,1.3799896-0.3227921,2.748909-0.5564575,4.1066208
								c-0.3672714,1.9142303-0.8235321,3.8061142-1.3689194,5.664711
								c-0.1001205-1.2130966-0.1780319-2.3482819-0.2336655-3.3498535
								c0.1891785-0.8346786,0.3561401-1.6804962,0.5118942-2.5263138c0.244873-1.3243561,0.4674683-2.6598587,0.5898743-3.9842148
								c0.1335449-1.3132172,0.1335449-2.6932068,0.2003098-4.0398483c0.0444946-1.3577042,0.0667725-2.7265549,0.0667725-4.0843353
								l0.0667725-4.0954819c0.4117737,2.7043533,0.6120834,5.4309769,0.7234192,8.1687469
								C110.0580597,84.9001389,110.0691986,86.2467117,110.0024338,87.6601181z"/><path fill="#4c5c75" d="M109.5349655,86.5583572c-0.1669006,5.3085709-2.8823853,14.9685669-5.1081924,20.8224564
								c-2.2146683,5.8538208-0.6010132,16.7269135-0.6010132,16.7269135
								c-1.3911285,1.3466339-3.2941513,1.0238495-4.8188248,0.3895569
								c-1.4913254-0.623291-2.6264343-1.5358124-2.6264343-1.5358124c0.3783493-1.4245529,0.2559433-6.5550232,0.2559433-6.5550232
								c-0.2782288-6.2990723,0.3672791-16.3819809,1.4690399-20.4218292
								c1.1017685-4.0397797-0.2003174-18.6077194-0.2003174-18.6077194l8.9365845-1.5914459l2.4372635-0.4340515
								C109.2790146,75.3514023,109.7019272,81.2497864,109.5349655,86.5583572z"/><path fill="#44546b" d="M107.3648529,77.1765823c-0.4117661,0.500824-0.790184,1.034996-1.1351852,1.580307
								c-0.7122726,1.1573944-1.2687225,2.4039078-1.8140335,3.6392212
								c-0.8903122,2.0366287-1.7917633,4.1066132-2.0699844,6.3101425
								c-0.2003174,1.5692291-0.0667725,3.160675-0.1669693,4.7409821c-0.1446838,2.248085-0.7456207,4.4293365-1.0906219,6.6551437
								c-0.5231018,3.3498535-0.4673996,6.7553329-0.5787277,10.1385345
								c-0.1558228,4.7409821-0.6455078,9.4708252-1.4801865,14.1338959
								c-0.0110703,0.0445633-0.0110703,0.0779114-0.0222092,0.1224747
								c-1.4913254-0.623291-2.6264343-1.5358124-2.6264343-1.5358124c0.3783493-1.4245529,0.2559433-6.5550232,0.2559433-6.5550232
								c-0.2782288-6.2990723,0.3672791-16.3819809,1.4690399-20.4218292
								c1.1017685-4.0397797-0.2003174-18.6077194-0.2003174-18.6077194l8.9365845-1.5914459
								C107.1199799,76.2083664,107.2980804,76.6869049,107.3648529,77.1765823z"/><path fill="#8fabfe" d="M116.646431,54.4955978c0,0,3.961937,23.7938919,3.7950439,24.2167969
								c-0.7345581,1.8808136-10.1163254,1.6804962-14.8795166,1.9253082
								c-0.5342407,0.0334167-1.0127869,0.0556259-1.413414,0.1001892c-3.9730759,0.422905-6.5995102-1.1574631-6.5995102-1.1574631
								l-0.4229126-18.2515869h-1.3020782c0,0-0.8680954-1.602581-1.880806-3.8618088
								c-1.3021469-2.9269447-2.8379593-6.9445114-3.0159988-10.0161362
								c-0.3227158-5.4421158,13.2769394-12.8428879,21.0449829-13.2992172
								c7.7681198-0.4673996,10.2564316,18.3040504,10.2564316,18.3040504L116.646431,54.4955978z"/><path fill="#678aee" d="M105.5619583,80.6377029c-0.5342407,0.0334167-1.0127869,0.0556259-1.413414,0.1001892
								c-3.9730759,0.422905-6.5995102-1.1574631-6.5995102-1.1574631l-0.4229126-18.2515869l1.1462555,2.1367569
								c0.1113358,2.4038467,0.2893677,4.7854767,0.545311,7.1782455c0.1446838,1.4133377,0.3227921,2.8378906,0.8236084,4.1733856
								c0.4896851,1.3243637,1.3243561,2.5819473,2.537384,3.3164368c0.8013306,0.4896774,1.7472687,0.7456284,2.4706879,1.335495
								C105.0388565,79.7918854,105.3393631,80.1925125,105.5619583,80.6377029z"/><path fill="#f5c9c6" d="M121.9911728,52.5425072c0,0,0.8029861,9.6517258,0.1291199,15.6646843
								s-2.5469131,10.7981644-2.5469131,10.7981644l-3.4660492-4.2150116c0,0,1.3881989-14.4210091,0.5385971-20.299057
								L121.9911728,52.5425072z"/><polygon fill="#fff" points="108.855 59.352 121.949 63.809 114.677 84.224 102.158 79.67"/><path fill="#f4d6d4" d="M96.0640411,61.3288422c0,0,3.6026611,6.4829865,6.4239883,8.2671661
								c2.8150635,1.78022,10.5053635,8.0273514,10.5053635,8.0273514s0.6500168,3.9212494,5.0124817,3.4924622
								c2.4923172-0.2449646,1.8000641-6.2492599,0-7.0643845c-1.8000565-0.8151169-2.2415771,0.7471924-3.4982224-0.5094528
								s-10.2909088-10.4267578-10.2909088-10.4267578l-1.086853-4.6529846
								C101.6788254,60.2355309,98.5566025,61.1063156,96.0640411,61.3288422z"/><path fill="#678aee" d="M103.1468048 58.4632759l-2.5679855-9.2280197C103.6830215 54.7623978 103.1468048 58.4632759 103.1468048 58.4632759zM116.6459274 54.4912872l-2.4762802-10.5120621C116.3012085 47.9995346 116.6459274 54.4912872 116.6459274 54.4912872z"/><g><path fill="#8a4852" d="M112.2771225,20.2386913c0,0-0.87854,1.2617378-2.4396896,2.5468464
								c-1.9380875,1.6476498-4.9317551,3.3314438-8.552742,2.7084789
								c-1.9857101,1.6493301,0.1707458,5.6836777,0.1707458,5.6836777l-0.968277,0.0331535
								c0,0-1.8081741-3.6092396-3.1244278-2.1338615c-1.3329163,1.452137,1.724411,4.8755779,1.724411,4.8755779
								l-0.7685547,3.3203964c0,0-7.216629-11.6527576-3.7821274-15.0839157c0,0,0.8864517-5.6722012,6.5643005-5.779213
								C106.7857895,16.2787609,108.8749847,20.2042007,112.2771225,20.2386913z"/><path fill="#f5c9c6" d="M106.8696899,42.0753326c-3.9567184,0.3427734-6.7183533-0.9047203-8.9630814-2.8358765
									l0.6717758-3.0067406l0.5626678-2.5003395c0,0,0.5467911,0.4669914,1.4350357,1.0478477
									c1.5603027,1.0705795,4.1342545,2.5625496,6.6284027,2.8016777c0.0113983,0,0.2392654,0.0341988,0.284729,0.0341988
									C107.6602249,38.8461456,107.4619446,41.050354,106.8696899,42.0753326z"/><path fill="#f4d6d4" d="M99.0889816,33.9527702c0,0,0.5414658,0.4641571,1.4412689,1.0554848
								c1.5488129,1.0624733,4.1311493,2.5508461,6.6173706,2.7982292c0.0214462-0.0007362,0.0650101,0.0191803,0.1078415,0.0177155
								c0.7314606,0.0607834,1.4710693,0.046196,2.1490555-0.2022934
								c3.2409592-1.2050018,1.7975998-13.2869473,0.4358368-14.8385849
								c-1.9384308,1.6538982-4.9379349,3.3333263-8.5526657,2.7062435l-0.0107269,0.0003681
								c-0.0835266,0.067215-0.1562653,0.1340599-0.2176056,0.2219887c-0.2793808,0.2991962-0.449028,0.6696587-0.5422592,1.0804539
								c-0.4079437,1.8696499,0.9332733,4.3872471,0.9332733,4.3872471l-0.9642563,0.0330162
								c0,0-1.8075104-3.6064644-3.1193695-2.1349392C96.0327606,30.5285091,99.0889816,33.9527702,99.0889816,33.9527702z"/><path fill="#51383c" d="M101.2828064,25.4945621c0,0-3.3197403-0.1162357-6.7447128-3.3058796
								C96.6479111,23.3762608,98.9050522,24.4727173,101.2828064,25.4945621z"/></g></g></g></svg>