<?xml version="1.0" encoding="UTF-8"?><svg id="Layer_2" xmlns="http://www.w3.org/2000/svg" viewBox="0 0 214.31 212.6"><defs><style>.cls-1,.cls-2{fill:#fff;}.cls-2{opacity:.2;}</style></defs><g id="_ÎÓÈ_1"><g><path class="cls-1" d="M13.04,79.31c-.18,0-.33-.15-.33-.33v-25.41c0-2.56-1-4.98-2.81-6.79-1.94-1.94-3-4.51-3-7.25V15.07c0-5.3,4.31-9.61,9.61-9.61h27.48c2.74,0,5.31,1.07,7.25,3l.28,.28c1.81,1.81,4.22,2.81,6.79,2.81h34.58c.18,0,.33,.15,.33,.33s-.15,.33-.33,.33H58.3c-2.74,0-5.31-1.07-7.25-3l-.28-.28c-1.81-1.81-4.22-2.81-6.79-2.81H16.5c-4.94,0-8.96,4.02-8.96,8.96v24.46c0,2.56,1,4.98,2.81,6.79,1.94,1.94,3,4.51,3,7.25v25.41c0,.18-.15,.33-.33,.33Z"/><path class="cls-1" d="M7.22,24.38c-.54,0-.98-.44-.98-.98V15.07c0-5.66,4.6-10.26,10.26-10.26h7.07c.54,0,.98,.44,.98,.98s-.44,.98-.98,.98h-7.07c-4.58,0-8.3,3.72-8.3,8.3v8.33c0,.54-.44,.98-.98,.98Z"/><path class="cls-1" d="M99.31,12.89h-3.1c-.54,0-.98-.44-.98-.98s.44-.98,.98-.98h3.1c.54,0,.98,.44,.98,.98s-.44,.98-.98,.98Z"/><path class="cls-1" d="M13.04,91.09c-.54,0-.98-.44-.98-.98v-7.27c0-.54,.44-.98,.98-.98s.98,.44,.98,.98v7.27c0,.54-.44,.98-.98,.98Z"/><path class="cls-1" d="M12,18.61c-.18,0-.33-.15-.33-.33v-3.8c0-2.34,1.9-4.24,4.24-4.24h4.89c.18,0,.33,.15,.33,.33s-.15,.33-.33,.33h-4.89c-1.98,0-3.59,1.61-3.59,3.59v3.8c0,.18-.15,.33-.33,.33Z"/><path class="cls-1" d="M52.18,23.12c-.09,0-.16-.07-.16-.16v-2.31c0-.75,.29-1.46,.82-1.99l3.87-3.87c.53-.53,1.24-.82,1.99-.82h34.19c.09,0,.16,.07,.16,.16s-.07,.16-.16,.16H58.7c-.66,0-1.29,.26-1.76,.73l-3.87,3.87c-.47,.47-.73,1.09-.73,1.76v2.31c0,.09-.07,.16-.16,.16Z"/><path class="cls-1" d="M16.41,79.15c-.09,0-.16-.07-.16-.16v-28.15c0-.68,.26-1.32,.74-1.8l2.82-2.82c.48-.48,1.12-.74,1.8-.74h1.97c.09,0,.16,.07,.16,.16s-.07,.16-.16,.16h-1.97c-.59,0-1.15,.23-1.57,.65l-2.82,2.82c-.42,.42-.65,.98-.65,1.57v28.15c0,.09-.07,.16-.16,.16Z"/><g><path class="cls-1" d="M58.22,9.87h-.45c-.09,0-.16-.07-.16-.16s.07-.16,.16-.16h.45c.48,0,.87-.39,.87-.87v-1.37c0-.23-.09-.45-.25-.61l-4.31-4.31c-.06-.06-.06-.17,0-.23,.06-.06,.17-.06,.23,0l4.31,4.31c.22,.22,.35,.53,.35,.84v1.37c0,.66-.54,1.19-1.19,1.19Z"/><path class="cls-1" d="M53.8,1.78c-.08,0-.17-.03-.23-.1l-1.13-1.13c-.13-.13-.13-.33,0-.46s.33-.13,.46,0l1.13,1.13c.13,.13,.13,.33,0,.46-.06,.06-.15,.1-.23,.1Z"/></g><g><path class="cls-1" d="M64.17,9.87h-.45c-.09,0-.16-.07-.16-.16s.07-.16,.16-.16h.45c.48,0,.87-.39,.87-.87v-1.37c0-.23-.09-.45-.25-.61l-4.31-4.31c-.06-.06-.06-.17,0-.23s.17-.06,.23,0l4.31,4.31c.22,.22,.35,.53,.35,.84v1.37c0,.66-.54,1.19-1.19,1.19Z"/><path class="cls-1" d="M59.75,1.78c-.08,0-.17-.03-.23-.1l-1.13-1.13c-.13-.13-.13-.33,0-.46s.33-.13,.46,0l1.13,1.13c.13,.13,.13,.33,0,.46-.06,.06-.15,.1-.23,.1Z"/></g><g><path class="cls-1" d="M70.13,9.87h-.45c-.09,0-.16-.07-.16-.16s.07-.16,.16-.16h.45c.48,0,.87-.39,.87-.87v-1.37c0-.23-.09-.45-.25-.61l-4.31-4.31c-.06-.06-.06-.17,0-.23s.17-.06,.23,0l4.31,4.31c.22,.22,.35,.53,.35,.84v1.37c0,.66-.54,1.19-1.19,1.19Z"/><path class="cls-1" d="M65.71,1.78c-.08,0-.17-.03-.23-.1l-1.13-1.13c-.13-.13-.13-.33,0-.46s.33-.13,.46,0l1.13,1.13c.13,.13,.13,.33,0,.46-.06,.06-.15,.1-.23,.1Z"/></g><g><path class="cls-1" d="M76.08,9.87h-.45c-.09,0-.16-.07-.16-.16s.07-.16,.16-.16h.45c.48,0,.87-.39,.87-.87v-1.37c0-.23-.09-.45-.25-.61l-4.31-4.31c-.06-.06-.06-.17,0-.23s.17-.06,.23,0l4.31,4.31c.22,.22,.35,.53,.35,.84v1.37c0,.66-.54,1.19-1.19,1.19Z"/><path class="cls-1" d="M71.66,1.78c-.08,0-.17-.03-.23-.1l-1.13-1.13c-.13-.13-.13-.33,0-.46s.33-.13,.46,0l1.13,1.13c.13,.13,.13,.33,0,.46-.06,.06-.15,.1-.23,.1Z"/></g><g><path class="cls-1" d="M82.04,9.87h-.45c-.09,0-.16-.07-.16-.16s.07-.16,.16-.16h.45c.48,0,.87-.39,.87-.87v-1.37c0-.23-.09-.45-.25-.61l-4.31-4.31c-.06-.06-.06-.17,0-.23s.17-.06,.23,0l4.31,4.31c.22,.22,.35,.53,.35,.84v1.37c0,.66-.54,1.19-1.19,1.19Z"/><path class="cls-1" d="M77.62,1.78c-.08,0-.17-.03-.23-.1l-1.13-1.13c-.13-.13-.13-.33,0-.46s.33-.13,.46,0l1.13,1.13c.13,.13,.13,.33,0,.46-.06,.06-.15,.1-.23,.1Z"/></g><g><path class="cls-1" d="M87.99,9.87h-.45c-.09,0-.16-.07-.16-.16s.07-.16,.16-.16h.45c.48,0,.87-.39,.87-.87v-1.37c0-.23-.09-.45-.25-.61l-4.31-4.31c-.06-.06-.06-.17,0-.23s.17-.06,.23,0l4.31,4.31c.22,.22,.35,.53,.35,.84v1.37c0,.66-.54,1.19-1.19,1.19Z"/><path class="cls-1" d="M83.57,1.78c-.08,0-.17-.03-.23-.1l-1.13-1.13c-.13-.13-.13-.33,0-.46s.33-.13,.46,0l1.13,1.13c.13,.13,.13,.33,0,.46-.06,.06-.15,.1-.23,.1Z"/></g><g><path class="cls-1" d="M8.67,56.14h-1.37c-.32,0-.62-.12-.84-.35l-4.31-4.31c-.06-.06-.06-.17,0-.23,.06-.06,.17-.06,.23,0l4.31,4.31c.16,.16,.38,.25,.61,.25h1.37c.48,0,.87-.39,.87-.87v-.45c0-.09,.07-.16,.16-.16s.16,.07,.16,.16v.45c0,.66-.54,1.19-1.19,1.19Z"/><path class="cls-1" d="M1.46,50.85c-.08,0-.17-.03-.23-.1l-1.13-1.13c-.13-.13-.13-.33,0-.46,.13-.13,.33-.13,.46,0l1.13,1.13c.13,.13,.13,.33,0,.46-.06,.06-.15,.1-.23,.1Z"/></g><g><path class="cls-1" d="M8.67,62.1h-1.37c-.32,0-.62-.12-.84-.35l-4.31-4.31c-.06-.06-.06-.17,0-.23s.17-.06,.23,0l4.31,4.31c.16,.16,.38,.25,.61,.25h1.37c.48,0,.87-.39,.87-.87v-.45c0-.09,.07-.16,.16-.16s.16,.07,.16,.16v.45c0,.66-.54,1.19-1.19,1.19Z"/><path class="cls-1" d="M1.46,56.81c-.08,0-.17-.03-.23-.1l-1.13-1.13c-.13-.13-.13-.33,0-.46,.13-.13,.33-.13,.46,0l1.13,1.13c.13,.13,.13,.33,0,.46-.06,.06-.15,.1-.23,.1Z"/></g><g><path class="cls-1" d="M8.67,68.05h-1.37c-.32,0-.62-.12-.84-.35l-4.31-4.31c-.06-.06-.06-.17,0-.23s.17-.06,.23,0l4.31,4.31c.16,.16,.38,.25,.61,.25h1.37c.48,0,.87-.39,.87-.87v-.45c0-.09,.07-.16,.16-.16s.16,.07,.16,.16v.45c0,.66-.54,1.19-1.19,1.19Z"/><path class="cls-1" d="M1.46,62.76c-.08,0-.17-.03-.23-.1l-1.13-1.13c-.13-.13-.13-.33,0-.46,.13-.13,.33-.13,.46,0l1.13,1.13c.13,.13,.13,.33,0,.46-.06,.06-.15,.1-.23,.1Z"/></g><g><path class="cls-1" d="M8.67,74.01h-1.37c-.32,0-.62-.12-.84-.35l-4.31-4.31c-.06-.06-.06-.17,0-.23s.17-.06,.23,0l4.31,4.31c.16,.16,.38,.25,.61,.25h1.37c.48,0,.87-.39,.87-.87v-.45c0-.09,.07-.16,.16-.16s.16,.07,.16,.16v.45c0,.66-.54,1.19-1.19,1.19Z"/><path class="cls-1" d="M1.46,68.72c-.08,0-.17-.03-.23-.1l-1.13-1.13c-.13-.13-.13-.33,0-.46,.13-.13,.33-.13,.46,0l1.13,1.13c.13,.13,.13,.33,0,.46-.06,.06-.15,.1-.23,.1Z"/></g><g><path class="cls-1" d="M8.67,79.96h-1.37c-.32,0-.62-.12-.84-.35l-4.31-4.31c-.06-.06-.06-.17,0-.23s.17-.06,.23,0l4.31,4.31c.16,.16,.38,.25,.61,.25h1.37c.48,0,.87-.39,.87-.87v-.45c0-.09,.07-.16,.16-.16s.16,.07,.16,.16v.45c0,.66-.54,1.19-1.19,1.19Z"/><path class="cls-1" d="M1.46,74.67c-.08,0-.17-.03-.23-.1l-1.13-1.13c-.13-.13-.13-.33,0-.46,.13-.13,.33-.13,.46,0l1.13,1.13c.13,.13,.13,.33,0,.46-.06,.06-.15,.1-.23,.1Z"/></g><g><path class="cls-1" d="M8.67,85.92h-1.37c-.32,0-.62-.12-.84-.35l-4.31-4.31c-.06-.06-.06-.17,0-.23s.17-.06,.23,0l4.31,4.31c.16,.16,.38,.25,.61,.25h1.37c.48,0,.87-.39,.87-.87v-.45c0-.09,.07-.16,.16-.16s.16,.07,.16,.16v.45c0,.66-.54,1.19-1.19,1.19Z"/><path class="cls-1" d="M1.46,80.63c-.08,0-.17-.03-.23-.1l-1.13-1.13c-.13-.13-.13-.33,0-.46,.13-.13,.33-.13,.46,0l1.13,1.13c.13,.13,.13,.33,0,.46-.06,.06-.15,.1-.23,.1Z"/></g><path class="cls-1" d="M14.06,25.08c-.09,0-.16-.07-.16-.16v-3.65c0-.09,.07-.16,.16-.16s.16,.07,.16,.16v3.65c0,.09-.07,.16-.16,.16Z"/><g><path class="cls-2" d="M19.08,15.63h16.95c1.18,0,2.31,.47,3.14,1.3l10.54,10.54c.83,.83,1.96,1.3,3.14,1.3h21.81c1.18,0,2.31,.47,3.14,1.3l.2,.2c.83,.83,1.96,1.3,3.14,1.3h22.83v10.81h-5.91c-1.18,0-2.31,.47-3.14,1.3h0c-.83,.83-1.96,1.3-3.14,1.3H51.89c-1.18,0-2.31-.47-3.14-1.3l-4.98-4.98c-.83-.83-1.96-1.3-3.14-1.3h-13.35c-1.18,0-2.31-.47-3.14-1.3l-7.62-7.62c-.83-.83-1.3-1.96-1.3-3.14V15.63h3.84Z"/><path class="cls-2" d="M70.78,41.21h-19.12c-.5,0-.98-.2-1.33-.55l-12.23-12.23c-.35-.35-.55-.84-.55-1.33v-3.43c0-.5,.2-.98,.55-1.33l1.42-1.42c.06-.06,.17-.06,.23,0s.06,.17,0,.23l-1.42,1.42c-.29,.29-.46,.69-.46,1.1v3.43c0,.41,.17,.81,.46,1.1l12.23,12.23c.29,.29,.68,.46,1.1,.46h19.12c.42,0,.81-.16,1.1-.46l2.04-2.04c.36-.36,.83-.55,1.33-.55h27.13c.09,0,.16,.07,.16,.16s-.07,.16-.16,.16h-27.13c-.42,0-.81,.16-1.1,.46l-2.04,2.04c-.36,.36-.83,.55-1.33,.55Z"/><path class="cls-2" d="M38.51,36.04h-4.34c-.09,0-.16-.07-.16-.16s.07-.16,.16-.16h4.34c.68,0,1.23-.55,1.23-1.23v-.19c0-.33-.13-.64-.36-.87l-6.2-6.2c-.23-.23-.54-.36-.87-.36h-12.32c-.09,0-.16-.07-.16-.16s.07-.16,.16-.16h12.32c.41,0,.8,.16,1.1,.45l6.2,6.2c.29,.29,.46,.68,.46,1.1v.19c0,.86-.7,1.55-1.55,1.55Z"/><path class="cls-2" d="M61.74,27.79h-8.59c-.58,0-1.13-.23-1.54-.64l-5.53-5.53c-.06-.06-.06-.17,0-.23,.06-.06,.17-.06,.23,0l5.53,5.53c.35,.35,.82,.54,1.31,.54h8.59c.09,0,.16,.07,.16,.16s-.07,.16-.16,.16Z"/></g><g><path class="cls-2" d="M19.08,42.64h16.95c1.18,0,2.31,.47,3.14,1.3l10.54,10.54c.83,.83,1.96,1.3,3.14,1.3h21.81c1.18,0,2.31,.47,3.14,1.3l.2,.2c.83,.83,1.96,1.3,3.14,1.3h22.83v10.81h-5.91c-1.18,0-2.31,.47-3.14,1.3h0c-.83,.83-1.96,1.3-3.14,1.3H51.89c-1.18,0-2.31-.47-3.14-1.3l-4.98-4.98c-.83-.83-1.96-1.3-3.14-1.3h-13.35c-1.18,0-2.31-.47-3.14-1.3l-7.62-7.62c-.83-.83-1.3-1.96-1.3-3.14v-9.72h3.84Z"/><path class="cls-2" d="M70.78,68.22h-19.12c-.5,0-.98-.2-1.33-.55l-12.23-12.23c-.35-.35-.55-.84-.55-1.33v-3.43c0-.5,.2-.98,.55-1.33l1.42-1.42c.06-.06,.17-.06,.23,0s.06,.17,0,.23l-1.42,1.42c-.29,.29-.46,.69-.46,1.1v3.43c0,.41,.17,.81,.46,1.1l12.23,12.23c.29,.29,.68,.46,1.1,.46h19.12c.42,0,.81-.16,1.1-.46l2.04-2.04c.36-.36,.83-.55,1.33-.55h27.13c.09,0,.16,.07,.16,.16s-.07,.16-.16,.16h-27.13c-.42,0-.81,.16-1.1,.46l-2.04,2.04c-.36,.36-.83,.55-1.33,.55Z"/><path class="cls-2" d="M38.51,63.05h-4.34c-.09,0-.16-.07-.16-.16s.07-.16,.16-.16h4.34c.68,0,1.23-.55,1.23-1.23v-.19c0-.33-.13-.64-.36-.87l-6.2-6.2c-.23-.23-.54-.36-.87-.36h-12.32c-.09,0-.16-.07-.16-.16s.07-.16,.16-.16h12.32c.41,0,.8,.16,1.1,.45l6.2,6.2c.29,.29,.46,.68,.46,1.1v.19c0,.86-.7,1.55-1.55,1.55Z"/><path class="cls-2" d="M61.74,54.8h-8.59c-.58,0-1.13-.23-1.54-.64l-5.53-5.53c-.06-.06-.06-.17,0-.23s.17-.06,.23,0l5.53,5.53c.35,.35,.82,.54,1.31,.54h8.59c.09,0,.16,.07,.16,.16s-.07,.16-.16,.16Z"/></g><g><path class="cls-2" d="M19.08,69.65h16.95c1.18,0,2.31,.47,3.14,1.3l10.54,10.54c.83,.83,1.96,1.3,3.14,1.3h21.81c1.18,0,2.31,.47,3.14,1.3l.2,.2c.83,.83,1.96,1.3,3.14,1.3h22.83v10.81h-5.91c-1.18,0-2.31,.47-3.14,1.3h0c-.83,.83-1.96,1.3-3.14,1.3H51.89c-1.18,0-2.31-.47-3.14-1.3l-4.98-4.98c-.83-.83-1.96-1.3-3.14-1.3h-13.35c-1.18,0-2.31-.47-3.14-1.3l-7.62-7.62c-.83-.83-1.3-1.96-1.3-3.14v-9.72h3.84Z"/><path class="cls-2" d="M70.78,95.23h-19.12c-.5,0-.98-.2-1.33-.55l-12.23-12.23c-.36-.36-.55-.83-.55-1.33v-3.43c0-.5,.2-.98,.55-1.33l1.42-1.42c.06-.06,.17-.06,.23,0s.06,.17,0,.23l-1.42,1.42c-.29,.29-.46,.69-.46,1.1v3.43c0,.42,.16,.81,.46,1.1l12.23,12.23c.29,.29,.68,.46,1.1,.46h19.12c.42,0,.81-.16,1.1-.46l2.04-2.04c.36-.36,.83-.55,1.33-.55h27.13c.09,0,.16,.07,.16,.16s-.07,.16-.16,.16h-27.13c-.42,0-.81,.16-1.1,.46l-2.04,2.04c-.36,.36-.83,.55-1.33,.55Z"/><path class="cls-2" d="M38.51,90.06h-4.34c-.09,0-.16-.07-.16-.16s.07-.16,.16-.16h4.34c.68,0,1.23-.55,1.23-1.23v-.19c0-.33-.13-.64-.36-.87l-6.2-6.2c-.23-.23-.54-.36-.87-.36h-12.32c-.09,0-.16-.07-.16-.16s.07-.16,.16-.16h12.32c.41,0,.8,.16,1.1,.45l6.2,6.2c.29,.29,.46,.68,.46,1.1v.19c0,.86-.7,1.55-1.55,1.55Z"/><path class="cls-2" d="M61.74,81.81h-8.59c-.58,0-1.13-.23-1.54-.64l-5.53-5.53c-.06-.06-.06-.17,0-.23s.17-.06,.23,0l5.53,5.53c.35,.35,.82,.54,1.31,.54h8.59c.09,0,.16,.07,.16,.16s-.07,.16-.16,.16Z"/></g><path class="cls-1" d="M67.47,54.72h-1.76s-.08-.04-.08-.08,.04-.08,.08-.08h1.73l2.25-2.25v-15.64L45.77,12.75h-5.87s-.08-.04-.08-.08,.04-.08,.08-.08h5.9s.04,0,.06,.02l23.97,23.97s.02,.04,.02,.06v15.71s0,.04-.02,.06l-2.3,2.3s-.04,.02-.06,.02Z"/><path class="cls-1" d="M72.48,89.95s-.04,0-.06-.02c-.03-.03-.03-.08,0-.12l2.7-2.7v-9.45l-13.41-13.41H20.81s-.08-.04-.08-.08,.04-.08,.08-.08H61.74s.04,0,.06,.02l13.46,13.46s.02,.04,.02,.06v9.52s0,.04-.02,.06l-2.72,2.72s-.04,.02-.06,.02Z"/><path class="cls-1" d="M89.81,26.84h-3.09s-.08-.04-.08-.08,.04-.08,.08-.08h3.06l1.8-1.8V1.46s.04-.08,.08-.08,.08,.04,.08,.08V24.91s0,.04-.02,.06l-1.85,1.84s-.04,.02-.06,.02Z"/><g><path class="cls-1" d="M24.55,9.79h-.67s-.08-.04-.08-.08v-.67s.04-.08,.08-.08h.67s.08,.04,.08,.08v.67s-.04,.08-.08,.08Zm-.59-.16h.51v-.51h-.51v.51Z"/><path class="cls-1" d="M42.73,9.79h-.67s-.08-.04-.08-.08v-.67s.04-.08,.08-.08h.67s.08,.04,.08,.08v.67s-.04,.08-.08,.08Zm-.59-.16h.51v-.51h-.51v.51Z"/><path class="cls-1" d="M44.49,9.79h-.67s-.08-.04-.08-.08v-.67s.04-.08,.08-.08h.67s.08,.04,.08,.08v.67s-.04,.08-.08,.08Zm-.59-.16h.51v-.51h-.51v.51Z"/><path class="cls-1" d="M47.93,9.79h-.67s-.08-.04-.08-.08v-.67s.04-.08,.08-.08h.67s.08,.04,.08,.08v.67s-.04,.08-.08,.08Zm-.59-.16h.51v-.51h-.51v.51Z"/><path class="cls-1" d="M32.55,9.79h-3.83s-.08-.04-.08-.08v-.67s.04-.08,.08-.08h3.83s.08,.04,.08,.08v.67s-.04,.08-.08,.08Zm-3.75-.16h3.67v-.51h-3.67v.51Z"/><path class="cls-1" d="M37.47,9.79h-3.83s-.08-.04-.08-.08v-.67s.04-.08,.08-.08h3.83s.08,.04,.08,.08v.67s-.04,.08-.08,.08Zm-3.75-.16h3.67v-.51h-3.67v.51Z"/></g><g><path class="cls-1" d="M24.55,93.44h-.67s-.08-.04-.08-.08v-.67s.04-.08,.08-.08h.67s.08,.04,.08,.08v.67s-.04,.08-.08,.08Zm-.59-.16h.51v-.51h-.51v.51Z"/><path class="cls-1" d="M42.73,93.44h-.67s-.08-.04-.08-.08v-.67s.04-.08,.08-.08h.67s.08,.04,.08,.08v.67s-.04,.08-.08,.08Zm-.59-.16h.51v-.51h-.51v.51Z"/><path class="cls-1" d="M44.49,93.44h-.67s-.08-.04-.08-.08v-.67s.04-.08,.08-.08h.67s.08,.04,.08,.08v.67s-.04,.08-.08,.08Zm-.59-.16h.51v-.51h-.51v.51Z"/><path class="cls-1" d="M47.93,93.44h-.67s-.08-.04-.08-.08v-.67s.04-.08,.08-.08h.67s.08,.04,.08,.08v.67s-.04,.08-.08,.08Zm-.59-.16h.51v-.51h-.51v.51Z"/><path class="cls-1" d="M32.55,93.44h-3.83s-.08-.04-.08-.08v-.67s.04-.08,.08-.08h3.83s.08,.04,.08,.08v.67s-.04,.08-.08,.08Zm-3.75-.16h3.67v-.51h-3.67v.51Z"/><path class="cls-1" d="M37.47,93.44h-3.83s-.08-.04-.08-.08v-.67s.04-.08,.08-.08h3.83s.08,.04,.08,.08v.67s-.04,.08-.08,.08Zm-3.75-.16h3.67v-.51h-3.67v.51Z"/></g><g><path class="cls-1" d="M24.55,96.46h-.67s-.08-.04-.08-.08v-.67s.04-.08,.08-.08h.67s.08,.04,.08,.08v.67s-.04,.08-.08,.08Zm-.59-.16h.51v-.51h-.51v.51Z"/><path class="cls-1" d="M42.73,96.46h-.67s-.08-.04-.08-.08v-.67s.04-.08,.08-.08h.67s.08,.04,.08,.08v.67s-.04,.08-.08,.08Zm-.59-.16h.51v-.51h-.51v.51Z"/><path class="cls-1" d="M44.49,96.46h-.67s-.08-.04-.08-.08v-.67s.04-.08,.08-.08h.67s.08,.04,.08,.08v.67s-.04,.08-.08,.08Zm-.59-.16h.51v-.51h-.51v.51Z"/><path class="cls-1" d="M47.93,96.46h-.67s-.08-.04-.08-.08v-.67s.04-.08,.08-.08h.67s.08,.04,.08,.08v.67s-.04,.08-.08,.08Zm-.59-.16h.51v-.51h-.51v.51Z"/><path class="cls-1" d="M32.55,96.46h-3.83s-.08-.04-.08-.08v-.67s.04-.08,.08-.08h3.83s.08,.04,.08,.08v.67s-.04,.08-.08,.08Zm-3.75-.16h3.67v-.51h-3.67v.51Z"/><path class="cls-1" d="M37.47,96.46h-3.83s-.08-.04-.08-.08v-.67s.04-.08,.08-.08h3.83s.08,.04,.08,.08v.67s-.04,.08-.08,.08Zm-3.75-.16h3.67v-.51h-3.67v.51Z"/></g><rect class="cls-1" x="101.94" y="32.24" width=".78" height=".78"/><rect class="cls-1" x="101.94" y="43.42" width=".78" height=".78"/><rect class="cls-1" x="101.94" y="54.61" width=".78" height=".78"/><rect class="cls-1" x="101.94" y="65.79" width=".78" height=".78"/><rect class="cls-1" x="5.07" y="92.4" width="4.22" height=".67"/><rect class="cls-1" x="5.07" y="96.04" width="4.22" height=".67"/><rect class="cls-1" x="5.07" y="99.67" width="4.22" height=".67"/><rect class="cls-1" x="5.07" y="103.31" width="4.22" height=".67"/><rect class="cls-1" x="101.84" y="1.46" width="4.22" height=".67"/><rect class="cls-1" x="101.84" y="5.09" width="4.22" height=".67"/><rect class="cls-1" x="101.84" y="8.73" width="4.22" height=".67"/><rect class="cls-1" x="101.84" y="12.36" width="4.22" height=".67"/><path class="cls-1" d="M90.93,59.64H57.27s-.04,0-.06-.02L3.64,6.05s-.03-.08,0-.12c.03-.03,.08-.03,.12,0L57.31,59.48h33.59l3.82-3.82s.04-.02,.06-.02h2.99s.08,.04,.08,.08-.04,.08-.08,.08h-2.95l-3.82,3.82s-.04,.02-.06,.02Z"/><polygon class="cls-1" points="41.85 44.14 42.62 44.14 58.04 59.56 57.27 59.56 41.85 44.14"/><polygon class="cls-1" points="77.45 33.02 90.44 46.01 91.54 46.01 91.54 45.1 78.89 32.45 77.45 32.45 77.45 33.02"/><polygon class="cls-1" points="77.45 37.22 90.44 50.2 91.54 50.2 91.54 49.29 78.89 36.64 77.45 36.64 77.45 37.22"/><polygon class="cls-1" points="77.45 41.41 90.44 54.4 91.54 54.4 91.54 53.49 78.89 40.84 77.45 40.84 77.45 41.41"/><polygon class="cls-1" points="77.45 45.6 90.44 58.59 91.54 58.59 91.54 57.68 78.89 45.03 77.45 45.03 77.45 45.6"/><polygon class="cls-1" points="77.45 81.42 90.44 94.4 91.54 94.4 91.54 93.5 78.89 80.84 77.45 80.84 77.45 81.42"/><polygon class="cls-1" points="77.45 85.61 90.44 98.6 91.54 98.6 91.54 97.69 78.89 85.04 77.45 85.04 77.45 85.61"/><polygon class="cls-1" points="77.45 89.81 90.44 102.79 91.54 102.79 91.54 101.88 78.89 89.23 77.45 89.23 77.45 89.81"/><polygon class="cls-1" points="77.45 62.38 90.44 75.36 91.54 75.36 91.54 74.46 78.89 61.81 77.45 61.81 77.45 62.38"/><polygon class="cls-1" points="77.45 66.36 90.44 79.35 91.54 79.35 91.54 78.44 78.89 65.79 77.45 65.79 77.45 66.36"/><polygon class="cls-1" points="41.47 46.49 33.25 54.71 32.55 54.71 32.55 54.13 40.56 46.12 41.47 46.12 41.47 46.49"/><polygon class="cls-1" points="41.47 49.14 33.25 57.36 32.55 57.36 32.55 56.79 40.56 48.78 41.47 48.78 41.47 49.14"/><polygon class="cls-1" points="41.47 51.8 33.25 60.02 32.55 60.02 32.55 59.44 40.56 51.43 41.47 51.43 41.47 51.8"/><polygon class="cls-1" points="41.47 54.45 33.25 62.67 32.55 62.67 32.55 62.1 40.56 54.09 41.47 54.09 41.47 54.45"/><polygon class="cls-1" points="41.47 77.13 33.25 85.35 32.55 85.35 32.55 84.77 40.56 76.76 41.47 76.76 41.47 77.13"/><polygon class="cls-1" points="41.47 79.78 33.25 88 32.55 88 32.55 87.43 40.56 79.42 41.47 79.42 41.47 79.78"/><polygon class="cls-1" points="41.47 82.44 33.25 90.66 32.55 90.66 32.55 90.08 40.56 82.07 41.47 82.07 41.47 82.44"/><polygon class="cls-1" points="41.47 65.07 33.25 73.29 32.55 73.29 32.55 72.72 40.56 64.71 41.47 64.71 41.47 65.07"/><polygon class="cls-1" points="41.47 67.59 33.25 75.82 32.55 75.82 32.55 75.24 40.56 67.23 41.47 67.23 41.47 67.59"/><g><path class="cls-1" d="M76.54,33.1h-3.38s-.08-.04-.08-.08,.04-.08,.08-.08h3.38s.08,.04,.08,.08-.04,.08-.08,.08Z"/><path class="cls-1" d="M72.32,33.26h-.32s-.08-.04-.08-.08v-.32s.04-.08,.08-.08h.32s.08,.04,.08,.08v.32s-.04,.08-.08,.08Zm-.24-.16h.15v-.15h-.15v.15Z"/></g><g><path class="cls-1" d="M76.54,37.26h-3.38s-.08-.04-.08-.08,.04-.08,.08-.08h3.38s.08,.04,.08,.08-.04,.08-.08,.08Z"/><path class="cls-1" d="M72.32,37.42h-.32s-.08-.04-.08-.08v-.32s.04-.08,.08-.08h.32s.08,.04,.08,.08v.32s-.04,.08-.08,.08Zm-.24-.16h.15v-.15h-.15v.15Z"/></g><g><path class="cls-1" d="M76.54,41.42h-3.38s-.08-.04-.08-.08,.04-.08,.08-.08h3.38s.08,.04,.08,.08-.04,.08-.08,.08Z"/><path class="cls-1" d="M72.32,41.58h-.32s-.08-.04-.08-.08v-.32s.04-.08,.08-.08h.32s.08,.04,.08,.08v.32s-.04,.08-.08,.08Zm-.24-.16h.15v-.15h-.15v.15Z"/></g><g><path class="cls-1" d="M76.54,45.69h-3.38s-.08-.04-.08-.08,.04-.08,.08-.08h3.38s.08,.04,.08,.08-.04,.08-.08,.08Z"/><path class="cls-1" d="M72.32,45.85h-.32s-.08-.04-.08-.08v-.32s.04-.08,.08-.08h.32s.08,.04,.08,.08v.32s-.04,.08-.08,.08Zm-.24-.16h.15v-.15h-.15v.15Z"/></g><g><path class="cls-1" d="M76.54,62.36h-3.38s-.08-.04-.08-.08,.04-.08,.08-.08h3.38s.08,.04,.08,.08-.04,.08-.08,.08Z"/><path class="cls-1" d="M72.32,62.52h-.32s-.08-.04-.08-.08v-.32s.04-.08,.08-.08h.32s.08,.04,.08,.08v.32s-.04,.08-.08,.08Zm-.24-.16h.15v-.15h-.15v.15Z"/></g><g><path class="cls-1" d="M76.54,66.4h-3.38s-.08-.04-.08-.08,.04-.08,.08-.08h3.38s.08,.04,.08,.08-.04,.08-.08,.08Z"/><path class="cls-1" d="M72.32,66.56h-.32s-.08-.04-.08-.08v-.32s.04-.08,.08-.08h.32s.08,.04,.08,.08v.32s-.04,.08-.08,.08Zm-.24-.16h.15v-.15h-.15v.15Z"/></g><g><path class="cls-1" d="M76.54,81.57h-3.38s-.08-.04-.08-.08,.04-.08,.08-.08h3.38s.08,.04,.08,.08-.04,.08-.08,.08Z"/><path class="cls-1" d="M72.32,81.73h-.32s-.08-.04-.08-.08v-.32s.04-.08,.08-.08h.32s.08,.04,.08,.08v.32s-.04,.08-.08,.08Zm-.24-.16h.15v-.15h-.15v.15Z"/></g><g><path class="cls-1" d="M76.54,85.7h-3.38s-.08-.04-.08-.08,.04-.08,.08-.08h3.38s.08,.04,.08,.08-.04,.08-.08,.08Z"/><path class="cls-1" d="M72.32,85.86h-.32s-.08-.04-.08-.08v-.32s.04-.08,.08-.08h.32s.08,.04,.08,.08v.32s-.04,.08-.08,.08Zm-.24-.16h.15v-.15h-.15v.15Z"/></g><g><path class="cls-1" d="M76.54,89.95h-3.38s-.08-.04-.08-.08,.04-.08,.08-.08h3.38s.08,.04,.08,.08-.04,.08-.08,.08Z"/><path class="cls-1" d="M72.32,90.11h-.32s-.08-.04-.08-.08v-.32s.04-.08,.08-.08h.32s.08,.04,.08,.08v.32s-.04,.08-.08,.08Zm-.24-.16h.15v-.15h-.15v.15Z"/></g><path class="cls-1" d="M201.28,79.31c-.18,0-.33-.15-.33-.33v-25.41c0-2.74,1.07-5.31,3-7.25,1.81-1.81,2.81-4.23,2.81-6.79V15.07c0-4.94-4.02-8.96-8.96-8.96h-27.48c-2.56,0-4.98,1-6.79,2.81l-.28,.28c-1.94,1.94-4.51,3-7.25,3h-34.58c-.18,0-.33-.15-.33-.33s.15-.33,.33-.33h34.58c2.57,0,4.98-1,6.79-2.81l.28-.28c1.94-1.94,4.51-3,7.25-3h27.48c5.3,0,9.61,4.31,9.61,9.61v24.46c0,2.74-1.07,5.31-3,7.25-1.81,1.81-2.81,4.22-2.81,6.79v25.41c0,.18-.15,.33-.33,.33Z"/><path class="cls-1" d="M207.09,24.38c-.54,0-.98-.44-.98-.98V15.07c0-4.58-3.72-8.3-8.3-8.3h-7.07c-.54,0-.98-.44-.98-.98s.44-.98,.98-.98h7.07c5.66,0,10.26,4.6,10.26,10.26v8.33c0,.54-.44,.98-.98,.98Z"/><path class="cls-1" d="M118.1,12.89h-3.1c-.54,0-.98-.44-.98-.98s.44-.98,.98-.98h3.1c.54,0,.98,.44,.98,.98s-.44,.98-.98,.98Z"/><path class="cls-1" d="M201.28,91.09c-.54,0-.98-.44-.98-.98v-7.27c0-.54,.44-.98,.98-.98s.98,.44,.98,.98v7.27c0,.54-.44,.98-.98,.98Z"/><path class="cls-1" d="M202.31,18.61c-.18,0-.33-.15-.33-.33v-3.8c0-1.98-1.61-3.59-3.59-3.59h-4.89c-.18,0-.33-.15-.33-.33s.15-.33,.33-.33h4.89c2.34,0,4.24,1.9,4.24,4.24v3.8c0,.18-.15,.33-.33,.33Z"/><path class="cls-1" d="M162.14,23.12c-.09,0-.16-.07-.16-.16v-2.31c0-.66-.26-1.29-.73-1.76l-3.87-3.87c-.47-.47-1.09-.73-1.76-.73h-34.19c-.09,0-.16-.07-.16-.16s.07-.16,.16-.16h34.19c.75,0,1.46,.29,1.99,.82l3.87,3.87c.53,.53,.82,1.24,.82,1.99v2.31c0,.09-.07,.16-.16,.16Z"/><path class="cls-1" d="M197.91,79.15c-.09,0-.16-.07-.16-.16v-28.15c0-.59-.23-1.15-.65-1.57l-2.82-2.82c-.42-.42-.98-.65-1.57-.65h-1.97c-.09,0-.16-.07-.16-.16s.07-.16,.16-.16h1.97c.68,0,1.32,.26,1.8,.74l2.82,2.82c.48,.48,.74,1.12,.74,1.8v28.15c0,.09-.07,.16-.16,.16Z"/><g><path class="cls-1" d="M156.54,9.87h-.45c-.66,0-1.19-.54-1.19-1.19v-1.37c0-.31,.13-.62,.35-.84l4.31-4.31c.06-.06,.17-.06,.23,0s.06,.17,0,.23l-4.31,4.31c-.16,.16-.25,.38-.25,.61v1.37c0,.48,.39,.87,.87,.87h.45c.09,0,.16,.07,.16,.16s-.07,.16-.16,.16Z"/><path class="cls-1" d="M160.51,1.78c-.08,0-.17-.03-.23-.1-.13-.13-.13-.33,0-.46l1.13-1.13c.13-.13,.33-.13,.46,0,.13,.13,.13,.33,0,.46l-1.13,1.13c-.06,.06-.15,.1-.23,.1Z"/></g><g><path class="cls-1" d="M150.59,9.87h-.45c-.66,0-1.19-.54-1.19-1.19v-1.37c0-.31,.13-.62,.35-.84l4.31-4.31c.06-.06,.17-.06,.23,0s.06,.17,0,.23l-4.31,4.31c-.16,.16-.25,.38-.25,.61v1.37c0,.48,.39,.87,.87,.87h.45c.09,0,.16,.07,.16,.16s-.07,.16-.16,.16Z"/><path class="cls-1" d="M154.56,1.78c-.08,0-.17-.03-.23-.1-.13-.13-.13-.33,0-.46l1.13-1.13c.13-.13,.33-.13,.46,0s.13,.33,0,.46l-1.13,1.13c-.06,.06-.15,.1-.23,.1Z"/></g><g><path class="cls-1" d="M144.63,9.87h-.45c-.66,0-1.19-.54-1.19-1.19v-1.37c0-.31,.13-.62,.35-.84l4.31-4.31c.06-.06,.17-.06,.23,0s.06,.17,0,.23l-4.31,4.31c-.16,.16-.25,.38-.25,.61v1.37c0,.48,.39,.87,.87,.87h.45c.09,0,.16,.07,.16,.16s-.07,.16-.16,.16Z"/><path class="cls-1" d="M148.6,1.78c-.08,0-.17-.03-.23-.1-.13-.13-.13-.33,0-.46l1.13-1.13c.13-.13,.33-.13,.46,0,.13,.13,.13,.33,0,.46l-1.13,1.13c-.06,.06-.15,.1-.23,.1Z"/></g><g><path class="cls-1" d="M138.68,9.87h-.45c-.66,0-1.19-.54-1.19-1.19v-1.37c0-.31,.13-.62,.35-.84l4.31-4.31c.06-.06,.17-.06,.23,0s.06,.17,0,.23l-4.31,4.31c-.16,.16-.25,.38-.25,.61v1.37c0,.48,.39,.87,.87,.87h.45c.09,0,.16,.07,.16,.16s-.07,.16-.16,.16Z"/><path class="cls-1" d="M142.65,1.78c-.08,0-.17-.03-.23-.1-.13-.13-.13-.33,0-.46l1.13-1.13c.13-.13,.33-.13,.46,0s.13,.33,0,.46l-1.13,1.13c-.06,.06-.15,.1-.23,.1Z"/></g><g><path class="cls-1" d="M132.72,9.87h-.45c-.66,0-1.19-.54-1.19-1.19v-1.37c0-.31,.13-.62,.35-.84l4.31-4.31c.06-.06,.17-.06,.23,0s.06,.17,0,.23l-4.31,4.31c-.16,.16-.25,.38-.25,.61v1.37c0,.48,.39,.87,.87,.87h.45c.09,0,.16,.07,.16,.16s-.07,.16-.16,.16Z"/><path class="cls-1" d="M136.69,1.78c-.08,0-.17-.03-.23-.1-.13-.13-.13-.33,0-.46l1.13-1.13c.13-.13,.33-.13,.46,0,.13,.13,.13,.33,0,.46l-1.13,1.13c-.06,.06-.15,.1-.23,.1Z"/></g><g><path class="cls-1" d="M126.77,9.87h-.45c-.66,0-1.19-.54-1.19-1.19v-1.37c0-.31,.13-.62,.35-.84l4.31-4.31c.06-.06,.17-.06,.23,0s.06,.17,0,.23l-4.31,4.31c-.16,.16-.25,.38-.25,.61v1.37c0,.48,.39,.87,.87,.87h.45c.09,0,.16,.07,.16,.16s-.07,.16-.16,.16Z"/><path class="cls-1" d="M130.74,1.78c-.08,0-.17-.03-.23-.1-.13-.13-.13-.33,0-.46l1.13-1.13c.13-.13,.33-.13,.46,0s.13,.33,0,.46l-1.13,1.13c-.06,.06-.15,.1-.23,.1Z"/></g><g><path class="cls-1" d="M207,56.14h-1.37c-.66,0-1.19-.54-1.19-1.19v-.45c0-.09,.07-.16,.16-.16s.16,.07,.16,.16v.45c0,.48,.39,.87,.87,.87h1.37c.23,0,.45-.09,.61-.25l4.31-4.31c.06-.06,.17-.06,.23,0,.06,.06,.06,.17,0,.23l-4.31,4.31c-.23,.23-.52,.35-.84,.35Z"/><path class="cls-1" d="M212.85,50.85c-.08,0-.17-.03-.23-.1-.13-.13-.13-.33,0-.46l1.13-1.13c.13-.13,.33-.13,.46,0s.13,.33,0,.46l-1.13,1.13c-.06,.06-.15,.1-.23,.1Z"/></g><g><path class="cls-1" d="M207,62.1h-1.37c-.66,0-1.19-.54-1.19-1.19v-.45c0-.09,.07-.16,.16-.16s.16,.07,.16,.16v.45c0,.48,.39,.87,.87,.87h1.37c.23,0,.45-.09,.61-.25l4.31-4.31c.06-.06,.17-.06,.23,0s.06,.17,0,.23l-4.31,4.31c-.23,.23-.52,.35-.84,.35Z"/><path class="cls-1" d="M212.85,56.81c-.08,0-.17-.03-.23-.1-.13-.13-.13-.33,0-.46l1.13-1.13c.13-.13,.33-.13,.46,0s.13,.33,0,.46l-1.13,1.13c-.06,.06-.15,.1-.23,.1Z"/></g><g><path class="cls-1" d="M207,68.05h-1.37c-.66,0-1.19-.54-1.19-1.19v-.45c0-.09,.07-.16,.16-.16s.16,.07,.16,.16v.45c0,.48,.39,.87,.87,.87h1.37c.23,0,.45-.09,.61-.25l4.31-4.31c.06-.06,.17-.06,.23,0s.06,.17,0,.23l-4.31,4.31c-.22,.22-.53,.35-.84,.35Z"/><path class="cls-1" d="M212.85,62.76c-.08,0-.17-.03-.23-.1-.13-.13-.13-.33,0-.46l1.13-1.13c.13-.13,.33-.13,.46,0s.13,.33,0,.46l-1.13,1.13c-.06,.06-.15,.1-.23,.1Z"/></g><g><path class="cls-1" d="M207,74.01h-1.37c-.66,0-1.19-.54-1.19-1.19v-.45c0-.09,.07-.16,.16-.16s.16,.07,.16,.16v.45c0,.48,.39,.87,.87,.87h1.37c.23,0,.45-.09,.61-.25l4.31-4.31c.06-.06,.17-.06,.23,0s.06,.17,0,.23l-4.31,4.31c-.23,.23-.52,.35-.84,.35Z"/><path class="cls-1" d="M212.85,68.72c-.08,0-.17-.03-.23-.1-.13-.13-.13-.33,0-.46l1.13-1.13c.13-.13,.33-.13,.46,0s.13,.33,0,.46l-1.13,1.13c-.06,.06-.15,.1-.23,.1Z"/></g><g><path class="cls-1" d="M207,79.96h-1.37c-.66,0-1.19-.54-1.19-1.19v-.45c0-.09,.07-.16,.16-.16s.16,.07,.16,.16v.45c0,.48,.39,.87,.87,.87h1.37c.23,0,.45-.09,.61-.25l4.31-4.31c.06-.06,.17-.06,.23,0s.06,.17,0,.23l-4.31,4.31c-.22,.22-.53,.35-.84,.35Z"/><path class="cls-1" d="M212.85,74.67c-.08,0-.17-.03-.23-.1-.13-.13-.13-.33,0-.46l1.13-1.13c.13-.13,.33-.13,.46,0s.13,.33,0,.46l-1.13,1.13c-.06,.06-.15,.1-.23,.1Z"/></g><g><path class="cls-1" d="M207,85.92h-1.37c-.66,0-1.19-.54-1.19-1.19v-.45c0-.09,.07-.16,.16-.16s.16,.07,.16,.16v.45c0,.48,.39,.87,.87,.87h1.37c.23,0,.45-.09,.61-.25l4.31-4.31c.06-.06,.17-.06,.23,0s.06,.17,0,.23l-4.31,4.31c-.22,.22-.53,.35-.84,.35Z"/><path class="cls-1" d="M212.85,80.63c-.08,0-.17-.03-.23-.1-.13-.13-.13-.33,0-.46l1.13-1.13c.13-.13,.33-.13,.46,0,.13,.13,.13,.33,0,.46l-1.13,1.13c-.06,.06-.15,.1-.23,.1Z"/></g><path class="cls-1" d="M200.26,25.08c-.09,0-.16-.07-.16-.16v-3.65c0-.09,.07-.16,.16-.16s.16,.07,.16,.16v3.65c0,.09-.07,.16-.16,.16Z"/><g><path class="cls-2" d="M195.24,15.63h-16.95c-1.18,0-2.31,.47-3.14,1.3l-10.54,10.54c-.83,.83-1.96,1.3-3.14,1.3h-21.81c-1.18,0-2.31,.47-3.14,1.3l-.2,.2c-.83,.83-1.96,1.3-3.14,1.3h-22.83v10.81h5.91c1.18,0,2.31,.47,3.14,1.3h0c.83,.83,1.96,1.3,3.14,1.3h39.88c1.18,0,2.31-.47,3.14-1.3l4.98-4.98c.83-.83,1.96-1.3,3.14-1.3h13.35c1.18,0,2.31-.47,3.14-1.3l7.62-7.62c.83-.83,1.3-1.96,1.3-3.14V15.63h-3.84Z"/><path class="cls-2" d="M162.65,41.21h-19.12c-.5,0-.98-.2-1.33-.55l-2.04-2.04c-.29-.29-.69-.46-1.1-.46h-27.13c-.09,0-.16-.07-.16-.16s.07-.16,.16-.16h27.13c.5,0,.98,.2,1.33,.55l2.04,2.04c.29,.29,.68,.46,1.1,.46h19.12c.42,0,.81-.16,1.1-.46l12.23-12.23c.29-.29,.46-.69,.46-1.1v-3.43c0-.42-.16-.81-.46-1.1l-1.42-1.42c-.06-.06-.06-.17,0-.23s.17-.06,.23,0l1.42,1.42c.36,.36,.55,.83,.55,1.33v3.43c0,.5-.2,.98-.55,1.33l-12.23,12.23c-.36,.36-.83,.55-1.33,.55Z"/><path class="cls-2" d="M180.14,36.04h-4.34c-.86,0-1.55-.7-1.55-1.55v-.19c0-.42,.16-.81,.46-1.1l6.2-6.2c.29-.29,.68-.45,1.1-.45h12.32c.09,0,.16,.07,.16,.16s-.07,.16-.16,.16h-12.32c-.32,0-.64,.13-.87,.36l-6.2,6.2c-.23,.23-.36,.54-.36,.87v.19c0,.68,.55,1.23,1.23,1.23h4.34c.09,0,.16,.07,.16,.16s-.07,.16-.16,.16Z"/><path class="cls-2" d="M161.16,27.79h-8.59c-.09,0-.16-.07-.16-.16s.07-.16,.16-.16h8.59c.49,0,.96-.19,1.31-.54l5.53-5.53c.06-.06,.17-.06,.23,0,.06,.06,.06,.17,0,.23l-5.53,5.53c-.41,.41-.96,.64-1.54,.64Z"/></g><g><path class="cls-2" d="M195.24,42.64h-16.95c-1.18,0-2.31,.47-3.14,1.3l-10.54,10.54c-.83,.83-1.96,1.3-3.14,1.3h-21.81c-1.18,0-2.31,.47-3.14,1.3l-.2,.2c-.83,.83-1.96,1.3-3.14,1.3h-22.83v10.81h5.91c1.18,0,2.31,.47,3.14,1.3h0c.83,.83,1.96,1.3,3.14,1.3h39.88c1.18,0,2.31-.47,3.14-1.3l4.98-4.98c.83-.83,1.96-1.3,3.14-1.3h13.35c1.18,0,2.31-.47,3.14-1.3l7.62-7.62c.83-.83,1.3-1.96,1.3-3.14v-9.72h-3.84Z"/><path class="cls-2" d="M162.65,68.22h-19.12c-.5,0-.98-.2-1.33-.55l-2.04-2.04c-.29-.29-.69-.46-1.1-.46h-27.13c-.09,0-.16-.07-.16-.16s.07-.16,.16-.16h27.13c.5,0,.98,.2,1.33,.55l2.04,2.04c.29,.29,.68,.46,1.1,.46h19.12c.42,0,.81-.16,1.1-.46l12.23-12.23c.29-.29,.46-.69,.46-1.1v-3.43c0-.42-.16-.81-.46-1.1l-1.42-1.42c-.06-.06-.06-.17,0-.23s.17-.06,.23,0l1.42,1.42c.36,.36,.55,.83,.55,1.33v3.43c0,.5-.2,.98-.55,1.33l-12.23,12.23c-.36,.36-.83,.55-1.33,.55Z"/><path class="cls-2" d="M180.14,63.05h-4.34c-.86,0-1.55-.7-1.55-1.55v-.19c0-.41,.16-.81,.46-1.1l6.2-6.2c.29-.29,.68-.45,1.1-.45h12.32c.09,0,.16,.07,.16,.16s-.07,.16-.16,.16h-12.32c-.32,0-.64,.13-.87,.36l-6.2,6.2c-.23,.23-.36,.54-.36,.87v.19c0,.68,.55,1.23,1.23,1.23h4.34c.09,0,.16,.07,.16,.16s-.07,.16-.16,.16Z"/><path class="cls-2" d="M161.16,54.8h-8.59c-.09,0-.16-.07-.16-.16s.07-.16,.16-.16h8.59c.49,0,.96-.19,1.31-.54l5.53-5.53c.06-.06,.17-.06,.23,0s.06,.17,0,.23l-5.53,5.53c-.41,.41-.96,.64-1.54,.64Z"/></g><g><path class="cls-2" d="M195.24,69.65h-16.95c-1.18,0-2.31,.47-3.14,1.3l-10.54,10.54c-.83,.83-1.96,1.3-3.14,1.3h-21.81c-1.18,0-2.31,.47-3.14,1.3l-.2,.2c-.83,.83-1.96,1.3-3.14,1.3h-22.83v10.81h5.91c1.18,0,2.31,.47,3.14,1.3h0c.83,.83,1.96,1.3,3.14,1.3h39.88c1.18,0,2.31-.47,3.14-1.3l4.98-4.98c.83-.83,1.96-1.3,3.14-1.3h13.35c1.18,0,2.31-.47,3.14-1.3l7.62-7.62c.83-.83,1.3-1.96,1.3-3.14v-9.72h-3.84Z"/><path class="cls-2" d="M162.65,95.23h-19.12c-.5,0-.98-.2-1.33-.55l-2.04-2.04c-.29-.29-.69-.46-1.1-.46h-27.13c-.09,0-.16-.07-.16-.16s.07-.16,.16-.16h27.13c.5,0,.98,.2,1.33,.55l2.04,2.04c.29,.29,.68,.46,1.1,.46h19.12c.42,0,.81-.16,1.1-.46l12.23-12.23c.29-.29,.46-.69,.46-1.1v-3.43c0-.42-.16-.81-.46-1.1l-1.42-1.42c-.06-.06-.06-.17,0-.23s.17-.06,.23,0l1.42,1.42c.36,.36,.55,.83,.55,1.33v3.43c0,.5-.2,.98-.55,1.33l-12.23,12.23c-.36,.36-.83,.55-1.33,.55Z"/><path class="cls-2" d="M180.14,90.06h-4.34c-.86,0-1.55-.7-1.55-1.55v-.19c0-.41,.16-.81,.46-1.1l6.2-6.2c.29-.29,.68-.45,1.1-.45h12.32c.09,0,.16,.07,.16,.16s-.07,.16-.16,.16h-12.32c-.32,0-.64,.13-.87,.36l-6.2,6.2c-.23,.23-.36,.54-.36,.87v.19c0,.68,.55,1.23,1.23,1.23h4.34c.09,0,.16,.07,.16,.16s-.07,.16-.16,.16Z"/><path class="cls-2" d="M161.16,81.81h-8.59c-.09,0-.16-.07-.16-.16s.07-.16,.16-.16h8.59c.49,0,.96-.2,1.31-.54l5.53-5.53c.06-.06,.17-.06,.23,0s.06,.17,0,.23l-5.53,5.53c-.41,.41-.97,.64-1.54,.64Z"/></g><path class="cls-1" d="M148.6,54.72h-1.76s-.04,0-.06-.02l-2.3-2.3s-.02-.04-.02-.06v-15.71s0-.04,.02-.06l23.97-23.97s.04-.02,.06-.02h5.9s.08,.04,.08,.08-.04,.08-.08,.08h-5.87l-23.92,23.92v15.64l2.25,2.25h1.73s.08,.04,.08,.08-.04,.08-.08,.08Z"/><path class="cls-1" d="M141.83,89.95s-.04,0-.06-.02l-2.72-2.72s-.02-.04-.02-.06v-9.52s0-.04,.02-.06l13.46-13.46s.04-.02,.06-.02h40.93s.08,.04,.08,.08-.04,.08-.08,.08h-40.9l-13.41,13.41v9.45l2.7,2.7s.03,.08,0,.12c-.02,.02-.04,.02-.06,.02Z"/><path class="cls-1" d="M127.59,26.84h-3.09s-.04,0-.06-.02l-1.85-1.84s-.02-.04-.02-.06V1.46s.04-.08,.08-.08,.08,.04,.08,.08V24.88l1.8,1.8h3.06s.08,.04,.08,.08-.04,.08-.08,.08Z"/><g><path class="cls-1" d="M190.43,9.79h-.67s-.08-.04-.08-.08v-.67s.04-.08,.08-.08h.67s.08,.04,.08,.08v.67s-.04,.08-.08,.08Zm-.59-.16h.51v-.51h-.51v.51Z"/><path class="cls-1" d="M172.26,9.79h-.67s-.08-.04-.08-.08v-.67s.04-.08,.08-.08h.67s.08,.04,.08,.08v.67s-.04,.08-.08,.08Zm-.59-.16h.51v-.51h-.51v.51Z"/><path class="cls-1" d="M170.49,9.79h-.67s-.08-.04-.08-.08v-.67s.04-.08,.08-.08h.67s.08,.04,.08,.08v.67s-.04,.08-.08,.08Zm-.59-.16h.51v-.51h-.51v.51Z"/><path class="cls-1" d="M167.06,9.79h-.67s-.08-.04-.08-.08v-.67s.04-.08,.08-.08h.67s.08,.04,.08,.08v.67s-.04,.08-.08,.08Zm-.59-.16h.51v-.51h-.51v.51Z"/><path class="cls-1" d="M185.59,9.79h-3.83s-.08-.04-.08-.08v-.67s.04-.08,.08-.08h3.83s.08,.04,.08,.08v.67s-.04,.08-.08,.08Zm-3.75-.16h3.67v-.51h-3.67v.51Z"/><path class="cls-1" d="M180.67,9.79h-3.83s-.08-.04-.08-.08v-.67s.04-.08,.08-.08h3.83s.08,.04,.08,.08v.67s-.04,.08-.08,.08Zm-3.75-.16h3.67v-.51h-3.67v.51Z"/></g><g><path class="cls-1" d="M190.43,93.44h-.67s-.08-.04-.08-.08v-.67s.04-.08,.08-.08h.67s.08,.04,.08,.08v.67s-.04,.08-.08,.08Zm-.59-.16h.51v-.51h-.51v.51Z"/><path class="cls-1" d="M172.26,93.44h-.67s-.08-.04-.08-.08v-.67s.04-.08,.08-.08h.67s.08,.04,.08,.08v.67s-.04,.08-.08,.08Zm-.59-.16h.51v-.51h-.51v.51Z"/><path class="cls-1" d="M170.49,93.44h-.67s-.08-.04-.08-.08v-.67s.04-.08,.08-.08h.67s.08,.04,.08,.08v.67s-.04,.08-.08,.08Zm-.59-.16h.51v-.51h-.51v.51Z"/><path class="cls-1" d="M167.06,93.44h-.67s-.08-.04-.08-.08v-.67s.04-.08,.08-.08h.67s.08,.04,.08,.08v.67s-.04,.08-.08,.08Zm-.59-.16h.51v-.51h-.51v.51Z"/><path class="cls-1" d="M185.59,93.44h-3.83s-.08-.04-.08-.08v-.67s.04-.08,.08-.08h3.83s.08,.04,.08,.08v.67s-.04,.08-.08,.08Zm-3.75-.16h3.67v-.51h-3.67v.51Z"/><path class="cls-1" d="M180.67,93.44h-3.83s-.08-.04-.08-.08v-.67s.04-.08,.08-.08h3.83s.08,.04,.08,.08v.67s-.04,.08-.08,.08Zm-3.75-.16h3.67v-.51h-3.67v.51Z"/></g><g><path class="cls-1" d="M190.43,96.46h-.67s-.08-.04-.08-.08v-.67s.04-.08,.08-.08h.67s.08,.04,.08,.08v.67s-.04,.08-.08,.08Zm-.59-.16h.51v-.51h-.51v.51Z"/><path class="cls-1" d="M172.26,96.46h-.67s-.08-.04-.08-.08v-.67s.04-.08,.08-.08h.67s.08,.04,.08,.08v.67s-.04,.08-.08,.08Zm-.59-.16h.51v-.51h-.51v.51Z"/><path class="cls-1" d="M170.49,96.46h-.67s-.08-.04-.08-.08v-.67s.04-.08,.08-.08h.67s.08,.04,.08,.08v.67s-.04,.08-.08,.08Zm-.59-.16h.51v-.51h-.51v.51Z"/><path class="cls-1" d="M167.06,96.46h-.67s-.08-.04-.08-.08v-.67s.04-.08,.08-.08h.67s.08,.04,.08,.08v.67s-.04,.08-.08,.08Zm-.59-.16h.51v-.51h-.51v.51Z"/><path class="cls-1" d="M185.59,96.46h-3.83s-.08-.04-.08-.08v-.67s.04-.08,.08-.08h3.83s.08,.04,.08,.08v.67s-.04,.08-.08,.08Zm-3.75-.16h3.67v-.51h-3.67v.51Z"/><path class="cls-1" d="M180.67,96.46h-3.83s-.08-.04-.08-.08v-.67s.04-.08,.08-.08h3.83s.08,.04,.08,.08v.67s-.04,.08-.08,.08Zm-3.75-.16h3.67v-.51h-3.67v.51Z"/></g><rect class="cls-1" x="111.59" y="32.24" width=".78" height=".78" transform="translate(223.96 65.26) rotate(180)"/><rect class="cls-1" x="111.59" y="43.42" width=".78" height=".78" transform="translate(223.96 87.63) rotate(180)"/><rect class="cls-1" x="111.59" y="54.61" width=".78" height=".78" transform="translate(223.96 110) rotate(180)"/><rect class="cls-1" x="111.59" y="65.79" width=".78" height=".78" transform="translate(223.96 132.36) rotate(180)"/><rect class="cls-1" x="205.02" y="92.4" width="4.22" height=".67" transform="translate(414.27 185.48) rotate(180)"/><rect class="cls-1" x="205.02" y="96.04" width="4.22" height=".67" transform="translate(414.27 192.75) rotate(180)"/><rect class="cls-1" x="205.02" y="99.67" width="4.22" height=".67" transform="translate(414.27 200.02) rotate(180)"/><rect class="cls-1" x="205.02" y="103.31" width="4.22" height=".67" transform="translate(414.27 207.29) rotate(180)"/><rect class="cls-1" x="108.24" y="1.46" width="4.22" height=".67" transform="translate(220.71 3.59) rotate(180)"/><rect class="cls-1" x="108.24" y="5.09" width="4.22" height=".67" transform="translate(220.71 10.86) rotate(180)"/><rect class="cls-1" x="108.24" y="8.73" width="4.22" height=".67" transform="translate(220.71 18.13) rotate(180)"/><rect class="cls-1" x="108.24" y="12.36" width="4.22" height=".67" transform="translate(220.71 25.4) rotate(180)"/><path class="cls-1" d="M157.04,59.64h-33.65s-.04,0-.06-.02l-3.82-3.82h-2.95s-.08-.04-.08-.08,.04-.08,.08-.08h2.99s.04,0,.06,.02l3.82,3.82h33.59L210.56,5.93s.08-.03,.12,0c.03,.03,.03,.08,0,.12l-53.58,53.58s-.04,.02-.06,.02Z"/><polygon class="cls-1" points="172.47 44.14 171.7 44.14 156.27 59.56 157.04 59.56 172.47 44.14"/><polygon class="cls-1" points="136.86 33.02 123.87 46.01 122.77 46.01 122.77 45.1 135.42 32.45 136.86 32.45 136.86 33.02"/><polygon class="cls-1" points="136.86 37.22 123.87 50.2 122.77 50.2 122.77 49.29 135.42 36.64 136.86 36.64 136.86 37.22"/><polygon class="cls-1" points="136.86 41.41 123.87 54.4 122.77 54.4 122.77 53.49 135.42 40.84 136.86 40.84 136.86 41.41"/><polygon class="cls-1" points="136.86 45.6 123.87 58.59 122.77 58.59 122.77 57.68 135.42 45.03 136.86 45.03 136.86 45.6"/><polygon class="cls-1" points="136.86 81.42 123.87 94.4 122.77 94.4 122.77 93.5 135.42 80.84 136.86 80.84 136.86 81.42"/><polygon class="cls-1" points="136.86 85.61 123.87 98.6 122.77 98.6 122.77 97.69 135.42 85.04 136.86 85.04 136.86 85.61"/><polygon class="cls-1" points="136.86 89.81 123.87 102.79 122.77 102.79 122.77 101.88 135.42 89.23 136.86 89.23 136.86 89.81"/><polygon class="cls-1" points="136.86 62.38 123.87 75.36 122.77 75.36 122.77 74.46 135.42 61.81 136.86 61.81 136.86 62.38"/><polygon class="cls-1" points="136.86 66.36 123.87 79.35 122.77 79.35 122.77 78.44 135.42 65.79 136.86 65.79 136.86 66.36"/><polygon class="cls-1" points="172.84 46.49 181.06 54.71 181.76 54.71 181.76 54.13 173.75 46.12 172.84 46.12 172.84 46.49"/><polygon class="cls-1" points="172.84 49.14 181.06 57.36 181.76 57.36 181.76 56.79 173.75 48.78 172.84 48.78 172.84 49.14"/><polygon class="cls-1" points="172.84 51.8 181.06 60.02 181.76 60.02 181.76 59.44 173.75 51.43 172.84 51.43 172.84 51.8"/><polygon class="cls-1" points="172.84 54.45 181.06 62.67 181.76 62.67 181.76 62.1 173.75 54.09 172.84 54.09 172.84 54.45"/><polygon class="cls-1" points="172.84 77.13 181.06 85.35 181.76 85.35 181.76 84.77 173.75 76.76 172.84 76.76 172.84 77.13"/><polygon class="cls-1" points="172.84 79.78 181.06 88 181.76 88 181.76 87.43 173.75 79.42 172.84 79.42 172.84 79.78"/><polygon class="cls-1" points="172.84 82.44 181.06 90.66 181.76 90.66 181.76 90.08 173.75 82.07 172.84 82.07 172.84 82.44"/><polygon class="cls-1" points="172.84 65.07 181.06 73.29 181.76 73.29 181.76 72.72 173.75 64.71 172.84 64.71 172.84 65.07"/><polygon class="cls-1" points="172.84 67.59 181.06 75.82 181.76 75.82 181.76 75.24 173.75 67.23 172.84 67.23 172.84 67.59"/><g><path class="cls-1" d="M141.15,33.1h-3.38s-.08-.04-.08-.08,.04-.08,.08-.08h3.38s.08,.04,.08,.08-.04,.08-.08,.08Z"/><path class="cls-1" d="M142.31,33.26h-.32s-.08-.04-.08-.08v-.32s.04-.08,.08-.08h.32s.08,.04,.08,.08v.32s-.04,.08-.08,.08Zm-.24-.16h.16v-.15h-.16v.15Z"/></g><g><path class="cls-1" d="M141.15,37.26h-3.38s-.08-.04-.08-.08,.04-.08,.08-.08h3.38s.08,.04,.08,.08-.04,.08-.08,.08Z"/><path class="cls-1" d="M142.31,37.42h-.32s-.08-.04-.08-.08v-.32s.04-.08,.08-.08h.32s.08,.04,.08,.08v.32s-.04,.08-.08,.08Zm-.24-.16h.16v-.15h-.16v.15Z"/></g><g><path class="cls-1" d="M141.15,41.42h-3.38s-.08-.04-.08-.08,.04-.08,.08-.08h3.38s.08,.04,.08,.08-.04,.08-.08,.08Z"/><path class="cls-1" d="M142.31,41.58h-.32s-.08-.04-.08-.08v-.32s.04-.08,.08-.08h.32s.08,.04,.08,.08v.32s-.04,.08-.08,.08Zm-.24-.16h.16v-.15h-.16v.15Z"/></g><g><path class="cls-1" d="M141.15,45.69h-3.38s-.08-.04-.08-.08,.04-.08,.08-.08h3.38s.08,.04,.08,.08-.04,.08-.08,.08Z"/><path class="cls-1" d="M142.31,45.85h-.32s-.08-.04-.08-.08v-.32s.04-.08,.08-.08h.32s.08,.04,.08,.08v.32s-.04,.08-.08,.08Zm-.24-.16h.16v-.15h-.16v.15Z"/></g><g><path class="cls-1" d="M141.15,62.36h-3.38s-.08-.04-.08-.08,.04-.08,.08-.08h3.38s.08,.04,.08,.08-.04,.08-.08,.08Z"/><path class="cls-1" d="M142.31,62.52h-.32s-.08-.04-.08-.08v-.32s.04-.08,.08-.08h.32s.08,.04,.08,.08v.32s-.04,.08-.08,.08Zm-.24-.16h.16v-.15h-.16v.15Z"/></g><g><path class="cls-1" d="M141.15,66.4h-3.38s-.08-.04-.08-.08,.04-.08,.08-.08h3.38s.08,.04,.08,.08-.04,.08-.08,.08Z"/><path class="cls-1" d="M142.31,66.56h-.32s-.08-.04-.08-.08v-.32s.04-.08,.08-.08h.32s.08,.04,.08,.08v.32s-.04,.08-.08,.08Zm-.24-.16h.16v-.15h-.16v.15Z"/></g><g><path class="cls-1" d="M141.15,81.57h-3.38s-.08-.04-.08-.08,.04-.08,.08-.08h3.38s.08,.04,.08,.08-.04,.08-.08,.08Z"/><path class="cls-1" d="M142.31,81.73h-.32s-.08-.04-.08-.08v-.32s.04-.08,.08-.08h.32s.08,.04,.08,.08v.32s-.04,.08-.08,.08Zm-.24-.16h.16v-.15h-.16v.15Z"/></g><g><path class="cls-1" d="M141.15,85.7h-3.38s-.08-.04-.08-.08,.04-.08,.08-.08h3.38s.08,.04,.08,.08-.04,.08-.08,.08Z"/><path class="cls-1" d="M142.31,85.86h-.32s-.08-.04-.08-.08v-.32s.04-.08,.08-.08h.32s.08,.04,.08,.08v.32s-.04,.08-.08,.08Zm-.24-.16h.16v-.15h-.16v.15Z"/></g><g><path class="cls-1" d="M141.15,89.95h-3.38s-.08-.04-.08-.08,.04-.08,.08-.08h3.38s.08,.04,.08,.08-.04,.08-.08,.08Z"/><path class="cls-1" d="M142.31,90.11h-.32s-.08-.04-.08-.08v-.32s.04-.08,.08-.08h.32s.08,.04,.08,.08v.32s-.04,.08-.08,.08Zm-.24-.16h.16v-.15h-.16v.15Z"/></g><path class="cls-1" d="M197.81,207.13h-27.48c-2.74,0-5.31-1.07-7.25-3l-.28-.28c-1.81-1.81-4.22-2.81-6.79-2.81h-34.58c-.18,0-.33-.15-.33-.33s.15-.33,.33-.33h34.58c2.74,0,5.31,1.07,7.25,3l.28,.28c1.81,1.81,4.22,2.81,6.79,2.81h27.48c4.94,0,8.96-4.02,8.96-8.96v-24.46c0-2.56-1-4.98-2.81-6.79-1.94-1.94-3-4.51-3-7.25v-25.41c0-.18,.15-.33,.33-.33s.33,.15,.33,.33v25.41c0,2.56,1,4.98,2.81,6.79,1.94,1.94,3,4.51,3,7.25v24.46c0,5.3-4.31,9.61-9.61,9.61Z"/><path class="cls-1" d="M197.81,207.78h-7.07c-.54,0-.98-.44-.98-.98s.44-.98,.98-.98h7.07c4.58,0,8.3-3.72,8.3-8.3v-8.33c0-.54,.44-.98,.98-.98s.98,.44,.98,.98v8.33c0,5.66-4.6,10.26-10.26,10.26Z"/><path class="cls-1" d="M118.1,201.66h-3.1c-.54,0-.98-.44-.98-.98s.44-.98,.98-.98h3.1c.54,0,.98,.44,.98,.98s-.44,.98-.98,.98Z"/><path class="cls-1" d="M201.28,130.73c-.54,0-.98-.44-.98-.98v-7.27c0-.54,.44-.98,.98-.98s.98,.44,.98,.98v7.27c0,.54-.44,.98-.98,.98Z"/><path class="cls-1" d="M198.4,202.35h-4.89c-.18,0-.33-.15-.33-.33s.15-.33,.33-.33h4.89c1.98,0,3.59-1.61,3.59-3.59v-3.8c0-.18,.15-.33,.33-.33s.33,.15,.33,.33v3.8c0,2.34-1.9,4.24-4.24,4.24Z"/><path class="cls-1" d="M155.61,198.63h-34.19c-.09,0-.16-.07-.16-.16s.07-.16,.16-.16h34.19c.66,0,1.29-.26,1.76-.73l3.87-3.87c.47-.47,.73-1.1,.73-1.76v-2.31c0-.09,.07-.16,.16-.16s.16,.07,.16,.16v2.31c0,.75-.29,1.46-.82,1.99l-3.87,3.87c-.53,.53-1.24,.82-1.99,.82Z"/><path class="cls-1" d="M192.71,167.12h-1.97c-.09,0-.16-.07-.16-.16s.07-.16,.16-.16h1.97c.59,0,1.15-.23,1.57-.65l2.82-2.82c.42-.42,.65-.98,.65-1.57v-28.15c0-.09,.07-.16,.16-.16s.16,.07,.16,.16v28.15c0,.68-.26,1.32-.74,1.8l-2.82,2.82c-.48,.48-1.12,.74-1.8,.74Z"/><g><path class="cls-1" d="M159.68,210.49s-.08-.02-.12-.05l-4.31-4.31c-.22-.22-.35-.53-.35-.84v-1.37c0-.66,.54-1.19,1.19-1.19h.45c.09,0,.16,.07,.16,.16s-.07,.16-.16,.16h-.45c-.48,0-.87,.39-.87,.87v1.37c0,.23,.09,.45,.25,.61l4.31,4.31c.06,.06,.06,.17,0,.23-.03,.03-.07,.05-.12,.05Z"/><path class="cls-1" d="M161.65,212.6c-.08,0-.17-.03-.23-.1l-1.13-1.13c-.13-.13-.13-.33,0-.46s.33-.13,.46,0l1.13,1.13c.13,.13,.13,.33,0,.46-.06,.06-.15,.1-.23,.1Z"/></g><g><path class="cls-1" d="M153.72,210.49s-.08-.02-.12-.05l-4.31-4.31c-.22-.22-.35-.53-.35-.84v-1.37c0-.66,.54-1.19,1.19-1.19h.45c.09,0,.16,.07,.16,.16s-.07,.16-.16,.16h-.45c-.48,0-.87,.39-.87,.87v1.37c0,.23,.09,.45,.25,.61l4.31,4.31c.06,.06,.06,.17,0,.23-.03,.03-.07,.05-.12,.05Z"/><path class="cls-1" d="M155.69,212.6c-.08,0-.17-.03-.23-.1l-1.13-1.13c-.13-.13-.13-.33,0-.46s.33-.13,.46,0l1.13,1.13c.13,.13,.13,.33,0,.46-.06,.06-.15,.1-.23,.1Z"/></g><g><path class="cls-1" d="M147.76,210.49s-.08-.02-.12-.05l-4.31-4.31c-.22-.22-.35-.53-.35-.84v-1.37c0-.66,.54-1.19,1.19-1.19h.45c.09,0,.16,.07,.16,.16s-.07,.16-.16,.16h-.45c-.48,0-.87,.39-.87,.87v1.37c0,.23,.09,.45,.25,.61l4.31,4.31c.06,.06,.06,.17,0,.23-.03,.03-.07,.05-.12,.05Z"/><path class="cls-1" d="M149.74,212.6c-.08,0-.17-.03-.23-.1l-1.13-1.13c-.13-.13-.13-.33,0-.46,.13-.13,.33-.13,.46,0l1.13,1.13c.13,.13,.13,.33,0,.46-.06,.06-.15,.1-.23,.1Z"/></g><g><path class="cls-1" d="M141.81,210.49s-.08-.02-.12-.05l-4.31-4.31c-.22-.22-.35-.53-.35-.84v-1.37c0-.66,.54-1.19,1.19-1.19h.45c.09,0,.16,.07,.16,.16s-.07,.16-.16,.16h-.45c-.48,0-.87,.39-.87,.87v1.37c0,.23,.09,.45,.25,.61l4.31,4.31c.06,.06,.06,.17,0,.23-.03,.03-.07,.05-.12,.05Z"/><path class="cls-1" d="M143.78,212.6c-.08,0-.17-.03-.23-.1l-1.13-1.13c-.13-.13-.13-.33,0-.46s.33-.13,.46,0l1.13,1.13c.13,.13,.13,.33,0,.46-.06,.06-.15,.1-.23,.1Z"/></g><g><path class="cls-1" d="M135.85,210.49s-.08-.02-.12-.05l-4.31-4.31c-.22-.22-.35-.53-.35-.84v-1.37c0-.66,.54-1.19,1.19-1.19h.45c.09,0,.16,.07,.16,.16s-.07,.16-.16,.16h-.45c-.48,0-.87,.39-.87,.87v1.37c0,.23,.09,.45,.25,.61l4.31,4.31c.06,.06,.06,.17,0,.23-.03,.03-.07,.05-.12,.05Z"/><path class="cls-1" d="M137.83,212.6c-.08,0-.17-.03-.23-.1l-1.13-1.13c-.13-.13-.13-.33,0-.46,.13-.13,.33-.13,.46,0l1.13,1.13c.13,.13,.13,.33,0,.46-.06,.06-.15,.1-.23,.1Z"/></g><g><path class="cls-1" d="M129.9,210.49s-.08-.02-.12-.05l-4.31-4.31c-.22-.22-.35-.53-.35-.84v-1.37c0-.66,.54-1.19,1.19-1.19h.45c.09,0,.16,.07,.16,.16s-.07,.16-.16,.16h-.45c-.48,0-.87,.39-.87,.87v1.37c0,.23,.09,.45,.25,.61l4.31,4.31c.06,.06,.06,.17,0,.23-.03,.03-.07,.05-.12,.05Z"/><path class="cls-1" d="M131.87,212.6c-.08,0-.17-.03-.23-.1l-1.13-1.13c-.13-.13-.13-.33,0-.46s.33-.13,.46,0l1.13,1.13c.13,.13,.13,.33,0,.46-.06,.06-.15,.1-.23,.1Z"/></g><g><path class="cls-1" d="M212.04,161.39s-.08-.02-.12-.05l-4.31-4.31c-.16-.16-.38-.25-.61-.25h-1.37c-.48,0-.87,.39-.87,.87v.45c0,.09-.07,.16-.16,.16s-.16-.07-.16-.16v-.45c0-.66,.54-1.19,1.19-1.19h1.37c.32,0,.62,.12,.84,.35l4.31,4.31c.06,.06,.06,.17,0,.23-.03,.03-.07,.05-.12,.05Z"/><path class="cls-1" d="M213.99,163.53c-.08,0-.17-.03-.23-.1l-1.13-1.13c-.13-.13-.13-.33,0-.46,.13-.13,.33-.13,.46,0l1.13,1.13c.13,.13,.13,.33,0,.46-.06,.06-.15,.1-.23,.1Z"/></g><g><path class="cls-1" d="M212.04,155.44s-.08-.02-.12-.05l-4.31-4.31c-.16-.16-.39-.25-.61-.25h-1.37c-.48,0-.87,.39-.87,.87v.45c0,.09-.07,.16-.16,.16s-.16-.07-.16-.16v-.45c0-.66,.54-1.19,1.19-1.19h1.37c.31,0,.62,.13,.84,.35l4.31,4.31c.06,.06,.06,.17,0,.23-.03,.03-.07,.05-.12,.05Z"/><path class="cls-1" d="M213.99,157.57c-.08,0-.17-.03-.23-.1l-1.13-1.13c-.13-.13-.13-.33,0-.46,.13-.13,.33-.13,.46,0l1.13,1.13c.13,.13,.13,.33,0,.46-.06,.06-.15,.1-.23,.1Z"/></g><g><path class="cls-1" d="M212.04,149.48s-.08-.02-.12-.05l-4.31-4.31c-.16-.16-.39-.25-.61-.25h-1.37c-.48,0-.87,.39-.87,.87v.45c0,.09-.07,.16-.16,.16s-.16-.07-.16-.16v-.45c0-.66,.54-1.19,1.19-1.19h1.37c.31,0,.62,.13,.84,.35l4.31,4.31c.06,.06,.06,.17,0,.23-.03,.03-.07,.05-.12,.05Z"/><path class="cls-1" d="M213.99,151.62c-.08,0-.17-.03-.23-.1l-1.13-1.13c-.13-.13-.13-.33,0-.46s.33-.13,.46,0l1.13,1.13c.13,.13,.13,.33,0,.46-.06,.06-.15,.1-.23,.1Z"/></g><g><path class="cls-1" d="M212.04,143.53s-.08-.02-.12-.05l-4.31-4.31c-.16-.16-.38-.25-.61-.25h-1.37c-.48,0-.87,.39-.87,.87v.45c0,.09-.07,.16-.16,.16s-.16-.07-.16-.16v-.45c0-.66,.54-1.19,1.19-1.19h1.37c.32,0,.62,.12,.84,.35l4.31,4.31c.06,.06,.06,.17,0,.23-.03,.03-.07,.05-.12,.05Z"/><path class="cls-1" d="M213.99,145.66c-.08,0-.17-.03-.23-.1l-1.13-1.13c-.13-.13-.13-.33,0-.46,.13-.13,.33-.13,.46,0l1.13,1.13c.13,.13,.13,.33,0,.46-.06,.06-.15,.1-.23,.1Z"/></g><g><path class="cls-1" d="M212.04,137.57s-.08-.02-.12-.05l-4.31-4.31c-.16-.16-.39-.25-.61-.25h-1.37c-.48,0-.87,.39-.87,.87v.45c0,.09-.07,.16-.16,.16s-.16-.07-.16-.16v-.45c0-.66,.54-1.19,1.19-1.19h1.37c.31,0,.62,.13,.84,.35l4.31,4.31c.06,.06,.06,.17,0,.23-.03,.03-.07,.05-.12,.05Z"/><path class="cls-1" d="M213.99,139.71c-.08,0-.17-.03-.23-.1l-1.13-1.13c-.13-.13-.13-.33,0-.46,.13-.13,.33-.13,.46,0l1.13,1.13c.13,.13,.13,.33,0,.46-.06,.06-.15,.1-.23,.1Z"/></g><g><path class="cls-1" d="M212.04,131.62s-.08-.02-.12-.05l-4.31-4.31c-.16-.16-.39-.25-.61-.25h-1.37c-.48,0-.87,.39-.87,.87v.45c0,.09-.07,.16-.16,.16s-.16-.07-.16-.16v-.45c0-.66,.54-1.19,1.19-1.19h1.37c.31,0,.62,.13,.84,.35l4.31,4.31c.06,.06,.06,.17,0,.23-.03,.03-.07,.05-.12,.05Z"/><path class="cls-1" d="M213.99,133.75c-.08,0-.17-.03-.23-.1l-1.13-1.13c-.13-.13-.13-.33,0-.46,.13-.13,.33-.13,.46,0l1.13,1.13c.13,.13,.13,.33,0,.46-.06,.06-.15,.1-.23,.1Z"/></g><path class="cls-1" d="M200.26,191.49c-.09,0-.16-.07-.16-.16v-3.65c0-.09,.07-.16,.16-.16s.16,.07,.16,.16v3.65c0,.09-.07,.16-.16,.16Z"/><g><path class="cls-2" d="M195.24,196.96h-16.95c-1.18,0-2.31-.47-3.14-1.3l-10.54-10.54c-.83-.83-1.96-1.3-3.14-1.3h-21.81c-1.18,0-2.31-.47-3.14-1.3l-.2-.2c-.83-.83-1.96-1.3-3.14-1.3h-22.83v-10.81h5.91c1.18,0,2.31-.47,3.14-1.3h0c.83-.83,1.96-1.3,3.14-1.3h39.88c1.18,0,2.31,.47,3.14,1.3l4.98,4.98c.83,.83,1.96,1.3,3.14,1.3h13.35c1.18,0,2.31,.47,3.14,1.3l7.62,7.62c.83,.83,1.3,1.96,1.3,3.14v9.72h-3.84Z"/><path class="cls-2" d="M174.68,191.72s-.08-.02-.12-.05c-.06-.06-.06-.17,0-.23l1.42-1.42c.29-.29,.46-.69,.46-1.1v-3.43c0-.41-.17-.81-.46-1.1l-12.23-12.23c-.29-.29-.68-.46-1.1-.46h-19.12c-.42,0-.81,.16-1.1,.46l-2.04,2.04c-.35,.35-.84,.55-1.33,.55h-27.13c-.09,0-.16-.07-.16-.16s.07-.16,.16-.16h27.13c.41,0,.81-.17,1.1-.46l2.04-2.04c.36-.36,.83-.55,1.33-.55h19.12c.5,0,.98,.2,1.33,.55l12.23,12.23c.35,.35,.55,.84,.55,1.33v3.43c0,.5-.2,.98-.55,1.33l-1.42,1.42s-.07,.05-.12,.05Z"/><path class="cls-2" d="M194.32,186.05h-12.32c-.41,0-.81-.16-1.1-.45l-6.2-6.2c-.29-.29-.46-.68-.46-1.1v-.19c0-.86,.7-1.55,1.55-1.55h4.34c.09,0,.16,.07,.16,.16s-.07,.16-.16,.16h-4.34c-.68,0-1.23,.55-1.23,1.23v.19c0,.33,.13,.64,.36,.87l6.2,6.2c.23,.23,.55,.36,.87,.36h12.32c.09,0,.16,.07,.16,.16s-.07,.16-.16,.16Z"/><path class="cls-2" d="M168.12,191.25s-.08-.02-.12-.05l-5.53-5.53c-.35-.35-.82-.54-1.31-.54h-8.59c-.09,0-.16-.07-.16-.16s.07-.16,.16-.16h8.59c.58,0,1.13,.23,1.54,.64l5.53,5.53c.06,.06,.06,.17,0,.23-.03,.03-.07,.05-.12,.05Z"/></g><g><path class="cls-2" d="M195.24,169.95h-16.95c-1.18,0-2.31-.47-3.14-1.3l-10.54-10.54c-.83-.83-1.96-1.3-3.14-1.3h-21.81c-1.18,0-2.31-.47-3.14-1.3l-.2-.2c-.83-.83-1.96-1.3-3.14-1.3h-22.83v-10.81h5.91c1.18,0,2.31-.47,3.14-1.3h0c.83-.83,1.96-1.3,3.14-1.3h39.88c1.18,0,2.31,.47,3.14,1.3l4.98,4.98c.83,.83,1.96,1.3,3.14,1.3h13.35c1.18,0,2.31,.47,3.14,1.3l7.62,7.62c.83,.83,1.3,1.96,1.3,3.14v9.72h-3.84Z"/><path class="cls-2" d="M174.68,164.71s-.08-.02-.12-.05c-.06-.06-.06-.17,0-.23l1.42-1.42c.29-.29,.46-.69,.46-1.1v-3.43c0-.42-.16-.81-.46-1.1l-12.23-12.23c-.29-.29-.68-.46-1.1-.46h-19.12c-.42,0-.81,.16-1.1,.46l-2.04,2.04c-.35,.35-.84,.55-1.33,.55h-27.13c-.09,0-.16-.07-.16-.16s.07-.16,.16-.16h27.13c.41,0,.81-.17,1.1-.46l2.04-2.04c.36-.36,.83-.55,1.33-.55h19.12c.5,0,.98,.2,1.33,.55l12.23,12.23c.36,.36,.55,.83,.55,1.33v3.43c0,.5-.2,.98-.55,1.33l-1.42,1.42s-.07,.05-.12,.05Z"/><path class="cls-2" d="M194.32,159.04h-12.32c-.41,0-.81-.16-1.1-.45l-6.2-6.2c-.29-.29-.46-.68-.46-1.1v-.19c0-.86,.7-1.55,1.55-1.55h4.34c.09,0,.16,.07,.16,.16s-.07,.16-.16,.16h-4.34c-.68,0-1.23,.55-1.23,1.23v.19c0,.33,.13,.64,.36,.87l6.2,6.2c.23,.23,.55,.36,.87,.36h12.32c.09,0,.16,.07,.16,.16s-.07,.16-.16,.16Z"/><path class="cls-2" d="M168.12,164.24s-.08-.02-.12-.05l-5.53-5.53c-.35-.34-.82-.54-1.31-.54h-8.59c-.09,0-.16-.07-.16-.16s.07-.16,.16-.16h8.59c.57,0,1.13,.23,1.54,.64l5.53,5.53c.06,.06,.06,.17,0,.23-.03,.03-.07,.05-.12,.05Z"/></g><g><path class="cls-2" d="M195.24,142.94h-16.95c-1.18,0-2.31-.47-3.14-1.3l-10.54-10.54c-.83-.83-1.96-1.3-3.14-1.3h-21.81c-1.18,0-2.31-.47-3.14-1.3l-.2-.2c-.83-.83-1.96-1.3-3.14-1.3h-22.83v-10.81h5.91c1.18,0,2.31-.47,3.14-1.3h0c.83-.83,1.96-1.3,3.14-1.3h39.88c1.18,0,2.31,.47,3.14,1.3l4.98,4.98c.83,.83,1.96,1.3,3.14,1.3h13.35c1.18,0,2.31,.47,3.14,1.3l7.62,7.62c.83,.83,1.3,1.96,1.3,3.14v9.72h-3.84Z"/><path class="cls-2" d="M174.68,137.7s-.08-.02-.12-.05c-.06-.06-.06-.17,0-.23l1.42-1.42c.29-.29,.46-.69,.46-1.1v-3.43c0-.42-.16-.81-.46-1.1l-12.23-12.23c-.29-.29-.69-.46-1.1-.46h-19.12c-.42,0-.81,.16-1.1,.46l-2.04,2.04c-.35,.35-.84,.55-1.33,.55h-27.13c-.09,0-.16-.07-.16-.16s.07-.16,.16-.16h27.13c.41,0,.81-.17,1.1-.46l2.04-2.04c.36-.36,.83-.55,1.33-.55h19.12c.5,0,.98,.2,1.33,.55l12.23,12.23c.36,.36,.55,.83,.55,1.33v3.43c0,.5-.2,.98-.55,1.33l-1.42,1.42s-.07,.05-.12,.05Z"/><path class="cls-2" d="M194.32,132.04h-12.32c-.41,0-.81-.16-1.1-.45l-6.2-6.2c-.29-.29-.46-.68-.46-1.1v-.19c0-.86,.7-1.55,1.55-1.55h4.34c.09,0,.16,.07,.16,.16s-.07,.16-.16,.16h-4.34c-.68,0-1.23,.55-1.23,1.23v.19c0,.33,.13,.64,.36,.87l6.2,6.2c.23,.23,.55,.36,.87,.36h12.32c.09,0,.16,.07,.16,.16s-.07,.16-.16,.16Z"/><path class="cls-2" d="M168.12,137.24s-.08-.02-.12-.05l-5.53-5.53c-.35-.34-.82-.54-1.31-.54h-8.59c-.09,0-.16-.07-.16-.16s.07-.16,.16-.16h8.59c.57,0,1.13,.23,1.54,.64l5.53,5.53c.06,.06,.06,.17,0,.23-.03,.03-.07,.05-.12,.05Z"/></g><path class="cls-1" d="M174.41,200.01h-5.9s-.04,0-.06-.02l-23.97-23.97s-.02-.04-.02-.06v-15.71s0-.04,.02-.06l2.3-2.3s.04-.02,.06-.02h1.76s.08,.04,.08,.08-.04,.08-.08,.08h-1.73l-2.25,2.25v15.64l23.92,23.92h5.87s.08,.04,.08,.08-.04,.08-.08,.08Z"/><path class="cls-1" d="M193.5,148.51h-40.93s-.04,0-.06-.02l-13.46-13.46s-.02-.04-.02-.06v-9.52s0-.04,.02-.06l2.72-2.72s.08-.03,.12,0c.03,.03,.03,.08,0,.12l-2.7,2.7v9.45l13.41,13.42h40.9s.08,.04,.08,.08-.04,.08-.08,.08Z"/><path class="cls-1" d="M122.66,211.22s-.08-.04-.08-.08v-23.46s0-.04,.02-.06l1.85-1.85s.04-.02,.06-.02h3.09s.08,.04,.08,.08-.04,.08-.08,.08h-3.06l-1.8,1.8v23.42s-.04,.08-.08,.08Z"/><g><path class="cls-1" d="M190.43,203.64h-.67s-.08-.04-.08-.08v-.67s.04-.08,.08-.08h.67s.08,.04,.08,.08v.67s-.04,.08-.08,.08Zm-.59-.16h.51v-.51h-.51v.51Z"/><path class="cls-1" d="M172.26,203.64h-.67s-.08-.04-.08-.08v-.67s.04-.08,.08-.08h.67s.08,.04,.08,.08v.67s-.04,.08-.08,.08Zm-.59-.16h.51v-.51h-.51v.51Z"/><path class="cls-1" d="M170.49,203.64h-.67s-.08-.04-.08-.08v-.67s.04-.08,.08-.08h.67s.08,.04,.08,.08v.67s-.04,.08-.08,.08Zm-.59-.16h.51v-.51h-.51v.51Z"/><path class="cls-1" d="M167.06,203.64h-.67s-.08-.04-.08-.08v-.67s.04-.08,.08-.08h.67s.08,.04,.08,.08v.67s-.04,.08-.08,.08Zm-.59-.16h.51v-.51h-.51v.51Z"/><path class="cls-1" d="M185.59,203.64h-3.83s-.08-.04-.08-.08v-.67s.04-.08,.08-.08h3.83s.08,.04,.08,.08v.67s-.04,.08-.08,.08Zm-3.75-.16h3.67v-.51h-3.67v.51Z"/><path class="cls-1" d="M180.67,203.64h-3.83s-.08-.04-.08-.08v-.67s.04-.08,.08-.08h3.83s.08,.04,.08,.08v.67s-.04,.08-.08,.08Zm-3.75-.16h3.67v-.51h-3.67v.51Z"/></g><g><path class="cls-1" d="M190.43,119.99h-.67s-.08-.04-.08-.08v-.67s.04-.08,.08-.08h.67s.08,.04,.08,.08v.67s-.04,.08-.08,.08Zm-.59-.16h.51v-.51h-.51v.51Z"/><path class="cls-1" d="M172.26,119.99h-.67s-.08-.04-.08-.08v-.67s.04-.08,.08-.08h.67s.08,.04,.08,.08v.67s-.04,.08-.08,.08Zm-.59-.16h.51v-.51h-.51v.51Z"/><path class="cls-1" d="M170.49,119.99h-.67s-.08-.04-.08-.08v-.67s.04-.08,.08-.08h.67s.08,.04,.08,.08v.67s-.04,.08-.08,.08Zm-.59-.16h.51v-.51h-.51v.51Z"/><path class="cls-1" d="M167.06,119.99h-.67s-.08-.04-.08-.08v-.67s.04-.08,.08-.08h.67s.08,.04,.08,.08v.67s-.04,.08-.08,.08Zm-.59-.16h.51v-.51h-.51v.51Z"/><path class="cls-1" d="M185.59,119.99h-3.83s-.08-.04-.08-.08v-.67s.04-.08,.08-.08h3.83s.08,.04,.08,.08v.67s-.04,.08-.08,.08Zm-3.75-.16h3.67v-.51h-3.67v.51Z"/><path class="cls-1" d="M180.67,119.99h-3.83s-.08-.04-.08-.08v-.67s.04-.08,.08-.08h3.83s.08,.04,.08,.08v.67s-.04,.08-.08,.08Zm-3.75-.16h3.67v-.51h-3.67v.51Z"/></g><g><path class="cls-1" d="M190.43,116.97h-.67s-.08-.04-.08-.08v-.67s.04-.08,.08-.08h.67s.08,.04,.08,.08v.67s-.04,.08-.08,.08Zm-.59-.16h.51v-.51h-.51v.51Z"/><path class="cls-1" d="M172.26,116.97h-.67s-.08-.04-.08-.08v-.67s.04-.08,.08-.08h.67s.08,.04,.08,.08v.67s-.04,.08-.08,.08Zm-.59-.16h.51v-.51h-.51v.51Z"/><path class="cls-1" d="M170.49,116.97h-.67s-.08-.04-.08-.08v-.67s.04-.08,.08-.08h.67s.08,.04,.08,.08v.67s-.04,.08-.08,.08Zm-.59-.16h.51v-.51h-.51v.51Z"/><path class="cls-1" d="M167.06,116.97h-.67s-.08-.04-.08-.08v-.67s.04-.08,.08-.08h.67s.08,.04,.08,.08v.67s-.04,.08-.08,.08Zm-.59-.16h.51v-.51h-.51v.51Z"/><path class="cls-1" d="M185.59,116.97h-3.83s-.08-.04-.08-.08v-.67s.04-.08,.08-.08h3.83s.08,.04,.08,.08v.67s-.04,.08-.08,.08Zm-3.75-.16h3.67v-.51h-3.67v.51Z"/><path class="cls-1" d="M180.67,116.97h-3.83s-.08-.04-.08-.08v-.67s.04-.08,.08-.08h3.83s.08,.04,.08,.08v.67s-.04,.08-.08,.08Zm-3.75-.16h3.67v-.51h-3.67v.51Z"/></g><rect class="cls-1" x="111.59" y="179.57" width=".78" height=".78" transform="translate(223.96 359.93) rotate(180)"/><rect class="cls-1" x="111.59" y="168.39" width=".78" height=".78" transform="translate(223.96 337.56) rotate(180)"/><rect class="cls-1" x="111.59" y="157.21" width=".78" height=".78" transform="translate(223.96 315.19) rotate(180)"/><rect class="cls-1" x="111.59" y="146.02" width=".78" height=".78" transform="translate(223.96 292.83) rotate(180)"/><rect class="cls-1" x="205.02" y="119.52" width="4.22" height=".67" transform="translate(414.27 239.71) rotate(180)"/><rect class="cls-1" x="205.02" y="115.88" width="4.22" height=".67" transform="translate(414.27 232.44) rotate(180)"/><rect class="cls-1" x="205.02" y="112.25" width="4.22" height=".67" transform="translate(414.27 225.17) rotate(180)"/><rect class="cls-1" x="205.02" y="108.61" width="4.22" height=".67" transform="translate(414.27 217.9) rotate(180)"/><rect class="cls-1" x="108.24" y="210.47" width="4.22" height=".67" transform="translate(220.71 421.6) rotate(180)"/><rect class="cls-1" x="108.24" y="206.83" width="4.22" height=".67" transform="translate(220.71 414.33) rotate(180)"/><rect class="cls-1" x="108.24" y="203.2" width="4.22" height=".67" transform="translate(220.71 407.06) rotate(180)"/><rect class="cls-1" x="108.24" y="199.56" width="4.22" height=".67" transform="translate(220.71 399.79) rotate(180)"/><path class="cls-1" d="M210.61,206.69s-.04,0-.06-.02l-53.55-53.55h-33.59l-3.82,3.82s-.04,.02-.06,.02h-2.99s-.08-.04-.08-.08,.04-.08,.08-.08h2.95l3.82-3.82s.04-.02,.06-.02h33.65s.04,0,.06,.02l53.58,53.57s.03,.08,0,.12c-.02,.02-.04,.02-.06,.02Z"/><polygon class="cls-1" points="172.47 168.46 171.7 168.46 156.27 153.04 157.04 153.03 172.47 168.46"/><polygon class="cls-1" points="136.86 179.57 123.87 166.59 122.77 166.59 122.77 167.49 135.42 180.15 136.86 180.15 136.86 179.57"/><polygon class="cls-1" points="136.86 175.38 123.87 162.39 122.77 162.39 122.77 163.3 135.42 175.95 136.86 175.95 136.86 175.38"/><polygon class="cls-1" points="136.86 171.18 123.87 158.2 122.77 158.2 122.77 159.11 135.42 171.76 136.86 171.76 136.86 171.18"/><polygon class="cls-1" points="136.86 166.99 123.87 154 122.77 154 122.77 154.91 135.42 167.56 136.86 167.56 136.86 166.99"/><polygon class="cls-1" points="136.86 131.18 123.87 118.19 122.77 118.19 122.77 119.1 135.42 131.75 136.86 131.75 136.86 131.18"/><polygon class="cls-1" points="136.86 126.98 123.87 114 122.77 114 122.77 114.91 135.42 127.56 136.86 127.56 136.86 126.98"/><polygon class="cls-1" points="136.86 122.79 123.87 109.8 122.77 109.8 122.77 110.71 135.42 123.36 136.86 123.36 136.86 122.79"/><polygon class="cls-1" points="136.86 150.22 123.87 137.23 122.77 137.23 122.77 138.14 135.42 150.79 136.86 150.79 136.86 150.22"/><polygon class="cls-1" points="136.86 146.23 123.87 133.25 122.77 133.25 122.77 134.15 135.42 146.81 136.86 146.81 136.86 146.23"/><polygon class="cls-1" points="172.84 166.11 181.06 157.89 181.76 157.89 181.76 158.46 173.75 166.47 172.84 166.47 172.84 166.11"/><polygon class="cls-1" points="172.84 163.45 181.06 155.23 181.76 155.23 181.76 155.81 173.75 163.82 172.84 163.82 172.84 163.45"/><polygon class="cls-1" points="172.84 160.8 181.06 152.58 181.76 152.58 181.76 153.15 173.75 161.16 172.84 161.16 172.84 160.8"/><polygon class="cls-1" points="172.84 158.14 181.06 149.92 181.76 149.92 181.76 150.5 173.75 158.51 172.84 158.51 172.84 158.14"/><polygon class="cls-1" points="172.84 135.47 181.06 127.25 181.76 127.25 181.76 127.82 173.75 135.83 172.84 135.83 172.84 135.47"/><polygon class="cls-1" points="172.84 132.81 181.06 124.59 181.76 124.59 181.76 125.17 173.75 133.18 172.84 133.18 172.84 132.81"/><polygon class="cls-1" points="172.84 130.16 181.06 121.94 181.76 121.94 181.76 122.51 173.75 130.52 172.84 130.52 172.84 130.16"/><polygon class="cls-1" points="172.84 147.52 181.06 139.3 181.76 139.3 181.76 139.88 173.75 147.89 172.84 147.89 172.84 147.52"/><polygon class="cls-1" points="172.84 145 181.06 136.78 181.76 136.78 181.76 137.35 173.75 145.36 172.84 145.36 172.84 145"/><g><path class="cls-1" d="M141.15,179.65h-3.38s-.08-.04-.08-.08,.04-.08,.08-.08h3.38s.08,.04,.08,.08-.04,.08-.08,.08Z"/><path class="cls-1" d="M142.31,179.81h-.32s-.08-.04-.08-.08v-.32s.04-.08,.08-.08h.32s.08,.04,.08,.08v.32s-.04,.08-.08,.08Zm-.24-.16h.16v-.15h-.16v.15Z"/></g><g><path class="cls-1" d="M141.15,175.49h-3.38s-.08-.04-.08-.08,.04-.08,.08-.08h3.38s.08,.04,.08,.08-.04,.08-.08,.08Z"/><path class="cls-1" d="M142.31,175.65h-.32s-.08-.04-.08-.08v-.32s.04-.08,.08-.08h.32s.08,.04,.08,.08v.32s-.04,.08-.08,.08Zm-.24-.16h.16v-.15h-.16v.15Z"/></g><g><path class="cls-1" d="M141.15,171.33h-3.38s-.08-.04-.08-.08,.04-.08,.08-.08h3.38s.08,.04,.08,.08-.04,.08-.08,.08Z"/><path class="cls-1" d="M142.31,171.49h-.32s-.08-.04-.08-.08v-.32s.04-.08,.08-.08h.32s.08,.04,.08,.08v.32s-.04,.08-.08,.08Zm-.24-.16h.16v-.15h-.16v.15Z"/></g><g><path class="cls-1" d="M141.15,167.07h-3.38s-.08-.04-.08-.08,.04-.08,.08-.08h3.38s.08,.04,.08,.08-.04,.08-.08,.08Z"/><path class="cls-1" d="M142.31,167.22h-.32s-.08-.04-.08-.08v-.32s.04-.08,.08-.08h.32s.08,.04,.08,.08v.32s-.04,.08-.08,.08Zm-.24-.16h.16v-.15h-.16v.15Z"/></g><g><path class="cls-1" d="M141.15,150.4h-3.38s-.08-.04-.08-.08,.04-.08,.08-.08h3.38s.08,.04,.08,.08-.04,.08-.08,.08Z"/><path class="cls-1" d="M142.31,150.55h-.32s-.08-.04-.08-.08v-.32s.04-.08,.08-.08h.32s.08,.04,.08,.08v.32s-.04,.08-.08,.08Zm-.24-.16h.16v-.15h-.16v.15Z"/></g><g><path class="cls-1" d="M141.15,146.36h-3.38s-.08-.04-.08-.08,.04-.08,.08-.08h3.38s.08,.04,.08,.08-.04,.08-.08,.08Z"/><path class="cls-1" d="M142.31,146.51h-.32s-.08-.04-.08-.08v-.32s.04-.08,.08-.08h.32s.08,.04,.08,.08v.32s-.04,.08-.08,.08Zm-.24-.16h.16v-.15h-.16v.15Z"/></g><g><path class="cls-1" d="M141.15,131.19h-3.38s-.08-.04-.08-.08,.04-.08,.08-.08h3.38s.08,.04,.08,.08-.04,.08-.08,.08Z"/><path class="cls-1" d="M142.31,131.35h-.32s-.08-.04-.08-.08v-.32s.04-.08,.08-.08h.32s.08,.04,.08,.08v.32s-.04,.08-.08,.08Zm-.24-.16h.16v-.15h-.16v.15Z"/></g><g><path class="cls-1" d="M141.15,127.06h-3.38s-.08-.04-.08-.08,.04-.08,.08-.08h3.38s.08,.04,.08,.08-.04,.08-.08,.08Z"/><path class="cls-1" d="M142.31,127.22h-.32s-.08-.04-.08-.08v-.32s.04-.08,.08-.08h.32s.08,.04,.08,.08v.32s-.04,.08-.08,.08Zm-.24-.16h.16v-.15h-.16v.15Z"/></g><g><path class="cls-1" d="M141.15,122.81h-3.38s-.08-.04-.08-.08,.04-.08,.08-.08h3.38s.08,.04,.08,.08-.04,.08-.08,.08Z"/><path class="cls-1" d="M142.31,122.97h-.32s-.08-.04-.08-.08v-.32s.04-.08,.08-.08h.32s.08,.04,.08,.08v.32s-.04,.08-.08,.08Zm-.24-.16h.16v-.15h-.16v.15Z"/></g><path class="cls-1" d="M43.98,207.13H16.5c-5.3,0-9.61-4.31-9.61-9.61v-24.46c0-2.74,1.07-5.31,3-7.25,1.81-1.81,2.81-4.22,2.81-6.79v-25.41c0-.18,.15-.33,.33-.33s.33,.15,.33,.33v25.41c0,2.74-1.07,5.31-3,7.25-1.81,1.81-2.81,4.23-2.81,6.79v24.46c0,4.94,4.02,8.96,8.96,8.96h27.48c2.56,0,4.98-1,6.79-2.81l.28-.28c1.94-1.94,4.51-3,7.25-3h34.58c.18,0,.33,.15,.33,.33s-.15,.33-.33,.33H58.3c-2.56,0-4.98,1-6.79,2.81l-.28,.28c-1.94,1.94-4.51,3-7.25,3Z"/><path class="cls-1" d="M23.58,207.78h-7.07c-5.66,0-10.26-4.6-10.26-10.26v-8.33c0-.54,.44-.98,.98-.98s.98,.44,.98,.98v8.33c0,4.58,3.72,8.3,8.3,8.3h7.07c.54,0,.98,.44,.98,.98s-.44,.98-.98,.98Z"/><path class="cls-1" d="M99.31,201.66h-3.1c-.54,0-.98-.44-.98-.98s.44-.98,.98-.98h3.1c.54,0,.98,.44,.98,.98s-.44,.98-.98,.98Z"/><path class="cls-1" d="M13.04,130.73c-.54,0-.98-.44-.98-.98v-7.27c0-.54,.44-.98,.98-.98s.98,.44,.98,.98v7.27c0,.54-.44,.98-.98,.98Z"/><path class="cls-1" d="M20.81,202.35h-4.89c-2.34,0-4.24-1.9-4.24-4.24v-3.8c0-.18,.15-.33,.33-.33s.33,.15,.33,.33v3.8c0,1.98,1.61,3.59,3.59,3.59h4.89c.18,0,.33,.15,.33,.33s-.15,.33-.33,.33Z"/><path class="cls-1" d="M92.88,198.63H58.7c-.75,0-1.46-.29-1.99-.82l-3.87-3.87c-.53-.53-.82-1.24-.82-1.99v-2.31c0-.09,.07-.16,.16-.16s.16,.07,.16,.16v2.31c0,.66,.26,1.29,.73,1.76l3.87,3.87c.47,.47,1.09,.73,1.76,.73h34.19c.09,0,.16,.07,.16,.16s-.07,.16-.16,.16Z"/><path class="cls-1" d="M23.58,167.12h-1.97c-.68,0-1.32-.26-1.8-.74l-2.82-2.82c-.48-.48-.74-1.12-.74-1.8v-28.15c0-.09,.07-.16,.16-.16s.16,.07,.16,.16v28.15c0,.59,.23,1.15,.65,1.57l2.82,2.82c.42,.42,.98,.65,1.57,.65h1.97c.09,0,.16,.07,.16,.16s-.07,.16-.16,.16Z"/><g><path class="cls-1" d="M54.64,210.49s-.08-.02-.12-.05c-.06-.06-.06-.17,0-.23l4.31-4.31c.16-.16,.25-.38,.25-.61v-1.37c0-.48-.39-.87-.87-.87h-.45c-.09,0-.16-.07-.16-.16s.07-.16,.16-.16h.45c.66,0,1.19,.54,1.19,1.19v1.37c0,.31-.13,.62-.35,.84l-4.31,4.31s-.07,.05-.12,.05Z"/><path class="cls-1" d="M52.67,212.6c-.08,0-.17-.03-.23-.1-.13-.13-.13-.33,0-.46l1.13-1.13c.13-.13,.33-.13,.46,0s.13,.33,0,.46l-1.13,1.13c-.06,.06-.15,.1-.23,.1Z"/></g><g><path class="cls-1" d="M60.59,210.49s-.08-.02-.12-.05c-.06-.06-.06-.17,0-.23l4.31-4.31c.16-.16,.25-.38,.25-.61v-1.37c0-.48-.39-.87-.87-.87h-.45c-.09,0-.16-.07-.16-.16s.07-.16,.16-.16h.45c.66,0,1.19,.54,1.19,1.19v1.37c0,.31-.13,.62-.35,.84l-4.31,4.31s-.07,.05-.12,.05Z"/><path class="cls-1" d="M58.62,212.6c-.08,0-.17-.03-.23-.1-.13-.13-.13-.33,0-.46l1.13-1.13c.13-.13,.33-.13,.46,0,.13,.13,.13,.33,0,.46l-1.13,1.13c-.06,.06-.15,.1-.23,.1Z"/></g><g><path class="cls-1" d="M66.55,210.49s-.08-.02-.12-.05c-.06-.06-.06-.17,0-.23l4.31-4.31c.16-.16,.25-.38,.25-.61v-1.37c0-.48-.39-.87-.87-.87h-.45c-.09,0-.16-.07-.16-.16s.07-.16,.16-.16h.45c.66,0,1.19,.54,1.19,1.19v1.37c0,.31-.13,.62-.35,.84l-4.31,4.31s-.07,.05-.12,.05Z"/><path class="cls-1" d="M64.58,212.6c-.08,0-.17-.03-.23-.1-.13-.13-.13-.33,0-.46l1.13-1.13c.13-.13,.33-.13,.46,0s.13,.33,0,.46l-1.13,1.13c-.06,.06-.15,.1-.23,.1Z"/></g><g><path class="cls-1" d="M72.5,210.49s-.08-.02-.12-.05c-.06-.06-.06-.17,0-.23l4.31-4.31c.16-.16,.25-.38,.25-.61v-1.37c0-.48-.39-.87-.87-.87h-.45c-.09,0-.16-.07-.16-.16s.07-.16,.16-.16h.45c.66,0,1.19,.54,1.19,1.19v1.37c0,.31-.13,.62-.35,.84l-4.31,4.31s-.07,.05-.12,.05Z"/><path class="cls-1" d="M70.53,212.6c-.08,0-.17-.03-.23-.1-.13-.13-.13-.33,0-.46l1.13-1.13c.13-.13,.33-.13,.46,0s.13,.33,0,.46l-1.13,1.13c-.06,.06-.15,.1-.23,.1Z"/></g><g><path class="cls-1" d="M78.46,210.49s-.08-.02-.12-.05c-.06-.06-.06-.17,0-.23l4.31-4.31c.16-.16,.25-.38,.25-.61v-1.37c0-.48-.39-.87-.87-.87h-.45c-.09,0-.16-.07-.16-.16s.07-.16,.16-.16h.45c.66,0,1.19,.54,1.19,1.19v1.37c0,.31-.13,.62-.35,.84l-4.31,4.31s-.07,.05-.12,.05Z"/><path class="cls-1" d="M76.49,212.6c-.08,0-.17-.03-.23-.1-.13-.13-.13-.33,0-.46l1.13-1.13c.13-.13,.33-.13,.46,0s.13,.33,0,.46l-1.13,1.13c-.06,.06-.15,.1-.23,.1Z"/></g><g><path class="cls-1" d="M84.41,210.49s-.08-.02-.12-.05c-.06-.06-.06-.17,0-.23l4.31-4.31c.16-.16,.25-.38,.25-.61v-1.37c0-.48-.39-.87-.87-.87h-.45c-.09,0-.16-.07-.16-.16s.07-.16,.16-.16h.45c.66,0,1.19,.54,1.19,1.19v1.37c0,.31-.13,.62-.35,.84l-4.31,4.31s-.07,.05-.12,.05Z"/><path class="cls-1" d="M82.44,212.6c-.08,0-.17-.03-.23-.1-.13-.13-.13-.33,0-.46l1.13-1.13c.13-.13,.33-.13,.46,0s.13,.33,0,.46l-1.13,1.13c-.06,.06-.15,.1-.23,.1Z"/></g><g><path class="cls-1" d="M2.27,161.39s-.08-.02-.12-.05c-.06-.06-.06-.17,0-.23l4.31-4.31c.23-.23,.53-.35,.84-.35h1.37c.66,0,1.19,.54,1.19,1.19v.45c0,.09-.07,.16-.16,.16s-.16-.07-.16-.16v-.45c0-.48-.39-.87-.87-.87h-1.37c-.23,0-.45,.09-.61,.25l-4.31,4.31s-.07,.05-.12,.05Z"/><path class="cls-1" d="M.33,163.53c-.08,0-.17-.03-.23-.1-.13-.13-.13-.33,0-.46l1.13-1.13c.13-.13,.33-.13,.46,0,.13,.13,.13,.33,0,.46l-1.13,1.13c-.06,.06-.15,.1-.23,.1Z"/></g><g><path class="cls-1" d="M2.27,155.44s-.08-.02-.12-.05c-.06-.06-.06-.17,0-.23l4.31-4.31c.23-.23,.53-.35,.84-.35h1.37c.66,0,1.19,.54,1.19,1.19v.45c0,.09-.07,.16-.16,.16s-.16-.07-.16-.16v-.45c0-.48-.39-.87-.87-.87h-1.37c-.23,0-.45,.09-.61,.25l-4.31,4.31s-.07,.05-.12,.05Z"/><path class="cls-1" d="M.33,157.57c-.08,0-.17-.03-.23-.1-.13-.13-.13-.33,0-.46l1.13-1.13c.13-.13,.33-.13,.46,0,.13,.13,.13,.33,0,.46l-1.13,1.13c-.06,.06-.15,.1-.23,.1Z"/></g><g><path class="cls-1" d="M2.27,149.48s-.08-.02-.12-.05c-.06-.06-.06-.17,0-.23l4.31-4.31c.23-.23,.53-.35,.84-.35h1.37c.66,0,1.19,.54,1.19,1.19v.45c0,.09-.07,.16-.16,.16s-.16-.07-.16-.16v-.45c0-.48-.39-.87-.87-.87h-1.37c-.23,0-.45,.09-.61,.25l-4.31,4.31s-.07,.05-.12,.05Z"/><path class="cls-1" d="M.33,151.62c-.08,0-.17-.03-.23-.1-.13-.13-.13-.33,0-.46l1.13-1.13c.13-.13,.33-.13,.46,0,.13,.13,.13,.33,0,.46l-1.13,1.13c-.06,.06-.15,.1-.23,.1Z"/></g><g><path class="cls-1" d="M2.27,143.53s-.08-.02-.12-.05c-.06-.06-.06-.17,0-.23l4.31-4.31c.23-.23,.53-.35,.84-.35h1.37c.66,0,1.19,.54,1.19,1.19v.45c0,.09-.07,.16-.16,.16s-.16-.07-.16-.16v-.45c0-.48-.39-.87-.87-.87h-1.37c-.23,0-.45,.09-.61,.25l-4.31,4.31s-.07,.05-.12,.05Z"/><path class="cls-1" d="M.33,145.66c-.08,0-.17-.03-.23-.1-.13-.13-.13-.33,0-.46l1.13-1.13c.13-.13,.33-.13,.46,0,.13,.13,.13,.33,0,.46l-1.13,1.13c-.06,.06-.15,.1-.23,.1Z"/></g><g><path class="cls-1" d="M2.27,137.57s-.08-.02-.12-.05c-.06-.06-.06-.17,0-.23l4.31-4.31c.23-.23,.53-.35,.84-.35h1.37c.66,0,1.19,.54,1.19,1.19v.45c0,.09-.07,.16-.16,.16s-.16-.07-.16-.16v-.45c0-.48-.39-.87-.87-.87h-1.37c-.23,0-.45,.09-.61,.25l-4.31,4.31s-.07,.05-.12,.05Z"/><path class="cls-1" d="M.33,139.71c-.08,0-.17-.03-.23-.1-.13-.13-.13-.33,0-.46l1.13-1.13c.13-.13,.33-.13,.46,0s.13,.33,0,.46l-1.13,1.13c-.06,.06-.15,.1-.23,.1Z"/></g><g><path class="cls-1" d="M2.27,131.62s-.08-.02-.12-.05c-.06-.06-.06-.17,0-.23l4.31-4.31c.23-.23,.53-.35,.84-.35h1.37c.66,0,1.19,.54,1.19,1.19v.45c0,.09-.07,.16-.16,.16s-.16-.07-.16-.16v-.45c0-.48-.39-.87-.87-.87h-1.37c-.23,0-.45,.09-.61,.25l-4.31,4.31s-.07,.05-.12,.05Z"/><path class="cls-1" d="M.33,133.75c-.08,0-.17-.03-.23-.1-.13-.13-.13-.33,0-.46l1.13-1.13c.13-.13,.33-.13,.46,0,.13,.13,.13,.33,0,.46l-1.13,1.13c-.06,.06-.15,.1-.23,.1Z"/></g><path class="cls-1" d="M14.06,191.49c-.09,0-.16-.07-.16-.16v-3.65c0-.09,.07-.16,.16-.16s.16,.07,.16,.16v3.65c0,.09-.07,.16-.16,.16Z"/><g><path class="cls-2" d="M19.08,196.96h16.95c1.18,0,2.31-.47,3.14-1.3l10.54-10.54c.83-.83,1.96-1.3,3.14-1.3h21.81c1.18,0,2.31-.47,3.14-1.3l.2-.2c.83-.83,1.96-1.3,3.14-1.3h22.83v-10.81h-5.91c-1.18,0-2.31-.47-3.14-1.3h0c-.83-.83-1.96-1.3-3.14-1.3H51.89c-1.18,0-2.31,.47-3.14,1.3l-4.98,4.98c-.83,.83-1.96,1.3-3.14,1.3h-13.35c-1.18,0-2.31,.47-3.14,1.3l-7.62,7.62c-.83,.83-1.3,1.96-1.3,3.14v9.72h3.84Z"/><path class="cls-2" d="M39.63,191.72s-.08-.02-.12-.05l-1.42-1.42c-.36-.36-.55-.83-.55-1.33v-3.43c0-.5,.2-.98,.55-1.33l12.23-12.23c.36-.36,.83-.55,1.33-.55h19.12c.5,0,.98,.2,1.33,.55l2.04,2.04c.29,.29,.69,.46,1.1,.46h27.13c.09,0,.16,.07,.16,.16s-.07,.16-.16,.16h-27.13c-.5,0-.98-.2-1.33-.55l-2.04-2.04c-.29-.29-.68-.46-1.1-.46h-19.12c-.42,0-.81,.16-1.1,.46l-12.23,12.23c-.29,.29-.46,.69-.46,1.1v3.43c0,.42,.16,.81,.46,1.1l1.42,1.42c.06,.06,.06,.17,0,.23-.03,.03-.07,.05-.12,.05Z"/><path class="cls-2" d="M32.31,186.05h-12.32c-.09,0-.16-.07-.16-.16s.07-.16,.16-.16h12.32c.33,0,.64-.13,.87-.36l6.2-6.2c.23-.23,.36-.54,.36-.87v-.19c0-.68-.55-1.23-1.23-1.23h-4.34c-.09,0-.16-.07-.16-.16s.07-.16,.16-.16h4.34c.86,0,1.55,.7,1.55,1.55v.19c0,.41-.16,.81-.46,1.1l-6.2,6.2c-.29,.29-.68,.45-1.1,.45Z"/><path class="cls-2" d="M46.19,191.25s-.08-.02-.12-.05c-.06-.06-.06-.17,0-.23l5.53-5.53c.41-.41,.96-.64,1.54-.64h8.59c.09,0,.16,.07,.16,.16s-.07,.16-.16,.16h-8.59c-.49,0-.96,.19-1.31,.54l-5.53,5.53s-.07,.05-.12,.05Z"/></g><g><path class="cls-2" d="M19.08,169.95h16.95c1.18,0,2.31-.47,3.14-1.3l10.54-10.54c.83-.83,1.96-1.3,3.14-1.3h21.81c1.18,0,2.31-.47,3.14-1.3l.2-.2c.83-.83,1.96-1.3,3.14-1.3h22.83v-10.81h-5.91c-1.18,0-2.31-.47-3.14-1.3h0c-.83-.83-1.96-1.3-3.14-1.3H51.89c-1.18,0-2.31,.47-3.14,1.3l-4.98,4.98c-.83,.83-1.96,1.3-3.14,1.3h-13.35c-1.18,0-2.31,.47-3.14,1.3l-7.62,7.62c-.83,.83-1.3,1.96-1.3,3.14v9.72h3.84Z"/><path class="cls-2" d="M39.63,164.71s-.08-.02-.12-.05l-1.42-1.42c-.35-.35-.55-.84-.55-1.33v-3.43c0-.5,.2-.98,.55-1.33l12.23-12.23c.36-.36,.83-.55,1.33-.55h19.12c.5,0,.98,.2,1.33,.55l2.04,2.04c.29,.29,.69,.46,1.1,.46h27.13c.09,0,.16,.07,.16,.16s-.07,.16-.16,.16h-27.13c-.5,0-.98-.2-1.33-.55l-2.04-2.04c-.29-.29-.68-.46-1.1-.46h-19.12c-.42,0-.81,.16-1.1,.46l-12.23,12.23c-.29,.29-.46,.69-.46,1.1v3.43c0,.41,.17,.81,.46,1.1l1.42,1.42c.06,.06,.06,.17,0,.23-.03,.03-.07,.05-.12,.05Z"/><path class="cls-2" d="M32.31,159.04h-12.32c-.09,0-.16-.07-.16-.16s.07-.16,.16-.16h12.32c.33,0,.64-.13,.87-.36l6.2-6.2c.23-.23,.36-.54,.36-.87v-.19c0-.68-.55-1.23-1.23-1.23h-4.34c-.09,0-.16-.07-.16-.16s.07-.16,.16-.16h4.34c.86,0,1.55,.7,1.55,1.55v.19c0,.41-.16,.81-.46,1.1l-6.2,6.2c-.29,.29-.68,.45-1.1,.45Z"/><path class="cls-2" d="M46.19,164.24s-.08-.02-.12-.05c-.06-.06-.06-.17,0-.23l5.53-5.53c.41-.41,.96-.64,1.54-.64h8.59c.09,0,.16,.07,.16,.16s-.07,.16-.16,.16h-8.59c-.49,0-.96,.19-1.31,.54l-5.53,5.53s-.07,.05-.12,.05Z"/></g><g><path class="cls-2" d="M19.08,142.94h16.95c1.18,0,2.31-.47,3.14-1.3l10.54-10.54c.83-.83,1.96-1.3,3.14-1.3h21.81c1.18,0,2.31-.47,3.14-1.3l.2-.2c.83-.83,1.96-1.3,3.14-1.3h22.83v-10.81h-5.91c-1.18,0-2.31-.47-3.14-1.3h0c-.83-.83-1.96-1.3-3.14-1.3H51.89c-1.18,0-2.31,.47-3.14,1.3l-4.98,4.98c-.83,.83-1.96,1.3-3.14,1.3h-13.35c-1.18,0-2.31,.47-3.14,1.3l-7.62,7.62c-.83,.83-1.3,1.96-1.3,3.14v9.72h3.84Z"/><path class="cls-2" d="M39.63,137.7s-.08-.02-.12-.05l-1.42-1.42c-.35-.35-.55-.84-.55-1.33v-3.43c0-.5,.2-.98,.55-1.33l12.23-12.23c.36-.36,.83-.55,1.33-.55h19.12c.5,0,.98,.2,1.33,.55l2.04,2.04c.29,.29,.69,.46,1.1,.46h27.13c.09,0,.16,.07,.16,.16s-.07,.16-.16,.16h-27.13c-.5,0-.98-.2-1.33-.55l-2.04-2.04c-.29-.29-.69-.46-1.1-.46h-19.12c-.42,0-.81,.16-1.1,.46l-12.23,12.23c-.29,.29-.46,.69-.46,1.1v3.43c0,.41,.17,.81,.46,1.1l1.42,1.42c.06,.06,.06,.17,0,.23-.03,.03-.07,.05-.12,.05Z"/><path class="cls-2" d="M32.31,132.04h-12.32c-.09,0-.16-.07-.16-.16s.07-.16,.16-.16h12.32c.33,0,.64-.13,.87-.36l6.2-6.2c.23-.23,.36-.54,.36-.87v-.19c0-.68-.55-1.23-1.23-1.23h-4.34c-.09,0-.16-.07-.16-.16s.07-.16,.16-.16h4.34c.86,0,1.55,.7,1.55,1.55v.19c0,.41-.16,.81-.46,1.1l-6.2,6.2c-.29,.29-.68,.45-1.1,.45Z"/><path class="cls-2" d="M46.19,137.24s-.08-.02-.12-.05c-.06-.06-.06-.17,0-.23l5.53-5.53c.41-.41,.96-.64,1.54-.64h8.59c.09,0,.16,.07,.16,.16s-.07,.16-.16,.16h-8.59c-.49,0-.96,.19-1.31,.54l-5.53,5.53s-.07,.05-.12,.05Z"/></g><path class="cls-1" d="M45.8,200.01h-5.9s-.08-.04-.08-.08,.04-.08,.08-.08h5.87l23.92-23.92v-15.64l-2.25-2.25h-1.73s-.08-.04-.08-.08,.04-.08,.08-.08h1.76s.04,0,.06,.02l2.3,2.3s.02,.04,.02,.06v15.71s0,.04-.02,.06l-23.97,23.97s-.04,.02-.06,.02Z"/><path class="cls-1" d="M61.74,148.51H20.81s-.08-.04-.08-.08,.04-.08,.08-.08H61.71l13.41-13.42v-9.45l-2.7-2.7s-.03-.08,0-.12c.03-.03,.08-.03,.12,0l2.72,2.72s.02,.04,.02,.06v9.52s0,.04-.02,.06l-13.46,13.46s-.04,.02-.06,.02Z"/><path class="cls-1" d="M91.65,211.22s-.08-.04-.08-.08v-23.42l-1.8-1.8h-3.06s-.08-.04-.08-.08,.04-.08,.08-.08h3.09s.04,0,.06,.02l1.85,1.85s.02,.04,.02,.06v23.46s-.04,.08-.08,.08Z"/><g><path class="cls-1" d="M24.55,203.64h-.67s-.08-.04-.08-.08v-.67s.04-.08,.08-.08h.67s.08,.04,.08,.08v.67s-.04,.08-.08,.08Zm-.59-.16h.51v-.51h-.51v.51Z"/><path class="cls-1" d="M42.73,203.64h-.67s-.08-.04-.08-.08v-.67s.04-.08,.08-.08h.67s.08,.04,.08,.08v.67s-.04,.08-.08,.08Zm-.59-.16h.51v-.51h-.51v.51Z"/><path class="cls-1" d="M44.49,203.64h-.67s-.08-.04-.08-.08v-.67s.04-.08,.08-.08h.67s.08,.04,.08,.08v.67s-.04,.08-.08,.08Zm-.59-.16h.51v-.51h-.51v.51Z"/><path class="cls-1" d="M47.93,203.64h-.67s-.08-.04-.08-.08v-.67s.04-.08,.08-.08h.67s.08,.04,.08,.08v.67s-.04,.08-.08,.08Zm-.59-.16h.51v-.51h-.51v.51Z"/><path class="cls-1" d="M32.55,203.64h-3.83s-.08-.04-.08-.08v-.67s.04-.08,.08-.08h3.83s.08,.04,.08,.08v.67s-.04,.08-.08,.08Zm-3.75-.16h3.67v-.51h-3.67v.51Z"/><path class="cls-1" d="M37.47,203.64h-3.83s-.08-.04-.08-.08v-.67s.04-.08,.08-.08h3.83s.08,.04,.08,.08v.67s-.04,.08-.08,.08Zm-3.75-.16h3.67v-.51h-3.67v.51Z"/></g><g><path class="cls-1" d="M24.55,119.99h-.67s-.08-.04-.08-.08v-.67s.04-.08,.08-.08h.67s.08,.04,.08,.08v.67s-.04,.08-.08,.08Zm-.59-.16h.51v-.51h-.51v.51Z"/><path class="cls-1" d="M42.73,119.99h-.67s-.08-.04-.08-.08v-.67s.04-.08,.08-.08h.67s.08,.04,.08,.08v.67s-.04,.08-.08,.08Zm-.59-.16h.51v-.51h-.51v.51Z"/><path class="cls-1" d="M44.49,119.99h-.67s-.08-.04-.08-.08v-.67s.04-.08,.08-.08h.67s.08,.04,.08,.08v.67s-.04,.08-.08,.08Zm-.59-.16h.51v-.51h-.51v.51Z"/><path class="cls-1" d="M47.93,119.99h-.67s-.08-.04-.08-.08v-.67s.04-.08,.08-.08h.67s.08,.04,.08,.08v.67s-.04,.08-.08,.08Zm-.59-.16h.51v-.51h-.51v.51Z"/><path class="cls-1" d="M32.55,119.99h-3.83s-.08-.04-.08-.08v-.67s.04-.08,.08-.08h3.83s.08,.04,.08,.08v.67s-.04,.08-.08,.08Zm-3.75-.16h3.67v-.51h-3.67v.51Z"/><path class="cls-1" d="M37.47,119.99h-3.83s-.08-.04-.08-.08v-.67s.04-.08,.08-.08h3.83s.08,.04,.08,.08v.67s-.04,.08-.08,.08Zm-3.75-.16h3.67v-.51h-3.67v.51Z"/></g><g><path class="cls-1" d="M24.55,116.97h-.67s-.08-.04-.08-.08v-.67s.04-.08,.08-.08h.67s.08,.04,.08,.08v.67s-.04,.08-.08,.08Zm-.59-.16h.51v-.51h-.51v.51Z"/><path class="cls-1" d="M42.73,116.97h-.67s-.08-.04-.08-.08v-.67s.04-.08,.08-.08h.67s.08,.04,.08,.08v.67s-.04,.08-.08,.08Zm-.59-.16h.51v-.51h-.51v.51Z"/><path class="cls-1" d="M44.49,116.97h-.67s-.08-.04-.08-.08v-.67s.04-.08,.08-.08h.67s.08,.04,.08,.08v.67s-.04,.08-.08,.08Zm-.59-.16h.51v-.51h-.51v.51Z"/><path class="cls-1" d="M47.93,116.97h-.67s-.08-.04-.08-.08v-.67s.04-.08,.08-.08h.67s.08,.04,.08,.08v.67s-.04,.08-.08,.08Zm-.59-.16h.51v-.51h-.51v.51Z"/><path class="cls-1" d="M32.55,116.97h-3.83s-.08-.04-.08-.08v-.67s.04-.08,.08-.08h3.83s.08,.04,.08,.08v.67s-.04,.08-.08,.08Zm-3.75-.16h3.67v-.51h-3.67v.51Z"/><path class="cls-1" d="M37.47,116.97h-3.83s-.08-.04-.08-.08v-.67s.04-.08,.08-.08h3.83s.08,.04,.08,.08v.67s-.04,.08-.08,.08Zm-3.75-.16h3.67v-.51h-3.67v.51Z"/></g><rect class="cls-1" x="101.94" y="179.57" width=".78" height=".78"/><rect class="cls-1" x="101.94" y="168.39" width=".78" height=".78"/><rect class="cls-1" x="101.94" y="157.21" width=".78" height=".78"/><rect class="cls-1" x="101.94" y="146.02" width=".78" height=".78"/><rect class="cls-1" x="5.07" y="119.52" width="4.22" height=".67"/><rect class="cls-1" x="5.07" y="115.88" width="4.22" height=".67"/><rect class="cls-1" x="5.07" y="112.25" width="4.22" height=".67"/><rect class="cls-1" x="5.07" y="108.61" width="4.22" height=".67"/><rect class="cls-1" x="101.84" y="210.47" width="4.22" height=".67"/><rect class="cls-1" x="101.84" y="206.83" width="4.22" height=".67"/><rect class="cls-1" x="101.84" y="203.2" width="4.22" height=".67"/><rect class="cls-1" x="101.84" y="199.56" width="4.22" height=".67"/><path class="cls-1" d="M3.7,206.69s-.04,0-.06-.02c-.03-.03-.03-.08,0-.12l53.58-53.57s.04-.02,.06-.02h33.65s.04,0,.06,.02l3.82,3.82h2.95s.08,.04,.08,.08-.04,.08-.08,.08h-2.99s-.04,0-.06-.02l-3.82-3.82H57.31L3.76,206.67s-.04,.02-.06,.02Z"/><polygon class="cls-1" points="41.85 168.46 42.62 168.46 58.04 153.04 57.27 153.03 41.85 168.46"/><polygon class="cls-1" points="77.45 179.57 90.44 166.59 91.54 166.59 91.54 167.49 78.89 180.15 77.45 180.15 77.45 179.57"/><polygon class="cls-1" points="77.45 175.38 90.44 162.39 91.54 162.39 91.54 163.3 78.89 175.95 77.45 175.95 77.45 175.38"/><polygon class="cls-1" points="77.45 171.18 90.44 158.2 91.54 158.2 91.54 159.11 78.89 171.76 77.45 171.76 77.45 171.18"/><polygon class="cls-1" points="77.45 166.99 90.44 154 91.54 154 91.54 154.91 78.89 167.56 77.45 167.56 77.45 166.99"/><polygon class="cls-1" points="77.45 131.18 90.44 118.19 91.54 118.19 91.54 119.1 78.89 131.75 77.45 131.75 77.45 131.18"/><polygon class="cls-1" points="77.45 126.98 90.44 114 91.54 114 91.54 114.91 78.89 127.56 77.45 127.56 77.45 126.98"/><polygon class="cls-1" points="77.45 122.79 90.44 109.8 91.54 109.8 91.54 110.71 78.89 123.36 77.45 123.36 77.45 122.79"/><polygon class="cls-1" points="77.45 150.22 90.44 137.23 91.54 137.23 91.54 138.14 78.89 150.79 77.45 150.79 77.45 150.22"/><polygon class="cls-1" points="77.45 146.23 90.44 133.25 91.54 133.25 91.54 134.15 78.89 146.81 77.45 146.81 77.45 146.23"/><polygon class="cls-1" points="41.47 166.11 33.25 157.89 32.55 157.89 32.55 158.46 40.56 166.47 41.47 166.47 41.47 166.11"/><polygon class="cls-1" points="41.47 163.45 33.25 155.23 32.55 155.23 32.55 155.81 40.56 163.82 41.47 163.82 41.47 163.45"/><polygon class="cls-1" points="41.47 160.8 33.25 152.58 32.55 152.58 32.55 153.15 40.56 161.16 41.47 161.16 41.47 160.8"/><polygon class="cls-1" points="41.47 158.14 33.25 149.92 32.55 149.92 32.55 150.5 40.56 158.51 41.47 158.51 41.47 158.14"/><polygon class="cls-1" points="41.47 135.47 33.25 127.25 32.55 127.25 32.55 127.82 40.56 135.83 41.47 135.83 41.47 135.47"/><polygon class="cls-1" points="41.47 132.81 33.25 124.59 32.55 124.59 32.55 125.17 40.56 133.18 41.47 133.18 41.47 132.81"/><polygon class="cls-1" points="41.47 130.16 33.25 121.94 32.55 121.94 32.55 122.51 40.56 130.52 41.47 130.52 41.47 130.16"/><polygon class="cls-1" points="41.47 147.52 33.25 139.3 32.55 139.3 32.55 139.88 40.56 147.89 41.47 147.89 41.47 147.52"/><polygon class="cls-1" points="41.47 145 33.25 136.78 32.55 136.78 32.55 137.35 40.56 145.36 41.47 145.36 41.47 145"/><g><path class="cls-1" d="M76.54,179.65h-3.38s-.08-.04-.08-.08,.04-.08,.08-.08h3.38s.08,.04,.08,.08-.04,.08-.08,.08Z"/><path class="cls-1" d="M72.32,179.81h-.32s-.08-.04-.08-.08v-.32s.04-.08,.08-.08h.32s.08,.04,.08,.08v.32s-.04,.08-.08,.08Zm-.24-.16h.15v-.15h-.15v.15Z"/></g><g><path class="cls-1" d="M76.54,175.49h-3.38s-.08-.04-.08-.08,.04-.08,.08-.08h3.38s.08,.04,.08,.08-.04,.08-.08,.08Z"/><path class="cls-1" d="M72.32,175.65h-.32s-.08-.04-.08-.08v-.32s.04-.08,.08-.08h.32s.08,.04,.08,.08v.32s-.04,.08-.08,.08Zm-.24-.16h.15v-.15h-.15v.15Z"/></g><g><path class="cls-1" d="M76.54,171.33h-3.38s-.08-.04-.08-.08,.04-.08,.08-.08h3.38s.08,.04,.08,.08-.04,.08-.08,.08Z"/><path class="cls-1" d="M72.32,171.49h-.32s-.08-.04-.08-.08v-.32s.04-.08,.08-.08h.32s.08,.04,.08,.08v.32s-.04,.08-.08,.08Zm-.24-.16h.15v-.15h-.15v.15Z"/></g><g><path class="cls-1" d="M76.54,167.07h-3.38s-.08-.04-.08-.08,.04-.08,.08-.08h3.38s.08,.04,.08,.08-.04,.08-.08,.08Z"/><path class="cls-1" d="M72.32,167.22h-.32s-.08-.04-.08-.08v-.32s.04-.08,.08-.08h.32s.08,.04,.08,.08v.32s-.04,.08-.08,.08Zm-.24-.16h.15v-.15h-.15v.15Z"/></g><g><path class="cls-1" d="M76.54,150.4h-3.38s-.08-.04-.08-.08,.04-.08,.08-.08h3.38s.08,.04,.08,.08-.04,.08-.08,.08Z"/><path class="cls-1" d="M72.32,150.55h-.32s-.08-.04-.08-.08v-.32s.04-.08,.08-.08h.32s.08,.04,.08,.08v.32s-.04,.08-.08,.08Zm-.24-.16h.15v-.15h-.15v.15Z"/></g><g><path class="cls-1" d="M76.54,146.36h-3.38s-.08-.04-.08-.08,.04-.08,.08-.08h3.38s.08,.04,.08,.08-.04,.08-.08,.08Z"/><path class="cls-1" d="M72.32,146.51h-.32s-.08-.04-.08-.08v-.32s.04-.08,.08-.08h.32s.08,.04,.08,.08v.32s-.04,.08-.08,.08Zm-.24-.16h.15v-.15h-.15v.15Z"/></g><g><path class="cls-1" d="M76.54,131.19h-3.38s-.08-.04-.08-.08,.04-.08,.08-.08h3.38s.08,.04,.08,.08-.04,.08-.08,.08Z"/><path class="cls-1" d="M72.32,131.35h-.32s-.08-.04-.08-.08v-.32s.04-.08,.08-.08h.32s.08,.04,.08,.08v.32s-.04,.08-.08,.08Zm-.24-.16h.15v-.15h-.15v.15Z"/></g><g><path class="cls-1" d="M76.54,127.06h-3.38s-.08-.04-.08-.08,.04-.08,.08-.08h3.38s.08,.04,.08,.08-.04,.08-.08,.08Z"/><path class="cls-1" d="M72.32,127.22h-.32s-.08-.04-.08-.08v-.32s.04-.08,.08-.08h.32s.08,.04,.08,.08v.32s-.04,.08-.08,.08Zm-.24-.16h.15v-.15h-.15v.15Z"/></g><g><path class="cls-1" d="M76.54,122.81h-3.38s-.08-.04-.08-.08,.04-.08,.08-.08h3.38s.08,.04,.08,.08-.04,.08-.08,.08Z"/><path class="cls-1" d="M72.32,122.97h-.32s-.08-.04-.08-.08v-.32s.04-.08,.08-.08h.32s.08,.04,.08,.08v.32s-.04,.08-.08,.08Zm-.24-.16h.15v-.15h-.15v.15Z"/></g></g></g></svg>