<svg width="120" height="119" xmlns="http://www.w3.org/2000/svg" xmlns:xlink="http://www.w3.org/1999/xlink" xml:space="preserve" overflow="hidden"><defs><filter id="fx0" x="-10%" y="-10%" width="120%" height="120%" filterUnits="userSpaceOnUse" primitiveUnits="userSpaceOnUse"><feComponentTransfer color-interpolation-filters="sRGB"><feFuncR type="discrete" tableValues="1.000000 1.000000"/><feFuncG type="discrete" tableValues="1.000000 1.000000"/><feFuncB type="discrete" tableValues="1.000000 1.000000"/><feFuncA type="linear" slope="0.800000" intercept="0.000000"/></feComponentTransfer><feGaussianBlur stdDeviation="6.846001 6.789886"/></filter><clipPath id="clip1"><rect x="28" y="122" width="120" height="119"/></clipPath><clipPath id="clip2"><rect x="0.643485" y="0.630341" width="59.6755" height="58.5943"/></clipPath><clipPath id="clip3"><rect x="0" y="0" width="61" height="60"/></clipPath><clipPath id="clip4"><rect x="21" y="21" width="19" height="18"/></clipPath><clipPath id="clip5"><rect x="21" y="21" width="19" height="18"/></clipPath><clipPath id="clip6"><rect x="21" y="21" width="19" height="18"/></clipPath><clipPath id="clip7"><rect x="69" y="164" width="37" height="36"/></clipPath><clipPath id="clip8"><rect x="69" y="164" width="37" height="36"/></clipPath><clipPath id="clip9"><rect x="69" y="164" width="37" height="36"/></clipPath></defs><g clip-path="url(#clip1)" transform="translate(-28 -122)"><g clip-path="url(#clip2)" filter="url(#fx0)" transform="matrix(1.98361 0 0 2 27 122)"><g clip-path="url(#clip3)"><g clip-path="url(#clip4)" transform="matrix(1 0 0 1 -6.55651e-07 0)"><g clip-path="url(#clip5)" transform="matrix(1 0 0 1 -6.55651e-07 0)"><g clip-path="url(#clip6)" transform="matrix(1 0 0 1 -6.55651e-07 0)"><path d="M6.14531 2.13796 5.39016 2.8742C5.30634 2.95512 5.30402 3.08866 5.38492 3.17246 5.46585 3.25627 5.59937 3.25862 5.68318 3.17769 5.68368 3.17722 5.68417 3.17674 5.68466 3.17626L6.43996 2.43984C6.52433 2.35952 6.5276 2.226 6.44727 2.14162 6.36697 2.05725 6.23345 2.05397 6.14907 2.13429 6.14784 2.13545 6.14665 2.13663 6.14545 2.13782ZM9.25414 3.39451 10.2011 3.85893C10.3062 3.9093 10.4322 3.86501 10.4825 3.75996 10.5323 3.65621 10.4897 3.53169 10.3868 3.48015L9.43991 3.01574C9.33525 2.96458 9.20893 3.00796 9.15778 3.11263 9.1067 3.21709 9.14984 3.34317 9.25414 3.39451ZM7.36028 2.46572 8.30721 2.93013C8.4118 2.98144 8.53822 2.93823 8.58952 2.83363 8.64081 2.72903 8.5976 2.60263 8.49301 2.55132L7.54604 2.08695C7.44138 2.03579 7.31507 2.07917 7.26391 2.18384 7.21283 2.2883 7.25597 2.41438 7.36028 2.46572Z" fill="#FFFFFF" fill-rule="nonzero" fill-opacity="1" transform="matrix(1.03627 0 0 1 21.1736 21)"/><path d="M17.7423 8.98242 16.9879 5.43059C16.8373 4.71762 16.4749 4.0667 15.9483 3.56309L14.349 2.03062C13.8882 1.58937 13.3195 1.27705 12.6998 1.125L9.10371 0.244687C8.05648-0.0129606 6.94891 0.209481 6.08238 0.851484L3.55008 2.72215C3.27062 2.92855 3.02224 3.17398 2.8125 3.45094L0.898594 5.97937C0.241285 6.84475 0.00765798 7.95973 0.262266 9.01617L1.10145 12.5251C1.25756 13.1774 1.59121 13.7738 2.06543 14.2481L3.68402 15.8664C4.16753 16.3494 4.77735 16.6866 5.44359 16.8391L8.90051 17.6284C9.89902 17.855 10.9468 17.6509 11.7872 17.0659L14.4513 15.2065C14.7916 14.9894 15.0831 14.704 15.3074 14.3684L17.1243 11.8772C17.7314 11.0436 17.9561 9.99134 17.7423 8.98242ZM15.3211 4.29806 16.0574 4.2429C16.1737 4.23566 16.2739 4.32401 16.2811 4.4403 16.2884 4.55657 16.2 4.65669 16.0837 4.66397 16.0823 4.66404 16.0809 4.66411 16.0795 4.66418L15.3431 4.71934C15.3394 4.71955 15.3356 4.71966 15.3319 4.71966 15.2154 4.71962 15.121 4.62516 15.1211 4.50865 15.1211 4.39643 15.209 4.30386 15.3211 4.29806ZM2.36953 5.81941 3.12469 5.08289C3.20818 5.00154 3.34181 5.00326 3.42316 5.08676 3.50452 5.17025 3.50279 5.30388 3.4193 5.38523L2.66414 6.12141C2.58075 6.20276 2.4472 6.20111 2.36584 6.11771 2.28448 6.03432 2.28614 5.90077 2.36953 5.81941ZM3.67664 9.77238 4.13402 10.7227C4.18461 10.8276 4.14053 10.9537 4.03559 11.0043 3.93064 11.0548 3.80457 11.0108 3.75398 10.9058L3.2966 9.9552C3.2433 9.85163 3.28406 9.72443 3.38765 9.67113 3.49124 9.6178 3.61842 9.65858 3.67172 9.76219 3.67344 9.76553 3.67509 9.76894 3.67664 9.77238ZM3.12082 9.10336C3.01588 9.15395 2.8898 9.10986 2.83922 9.00492L2.38184 8.05465C2.33126 7.9496 2.37541 7.82346 2.48045 7.77287 2.58549 7.72228 2.71165 7.76644 2.76223 7.87148L3.21961 8.82211C3.2699 8.92705 3.2257 9.05291 3.12082 9.10336ZM1.8013 6.84773 0.85166 7.28065C0.745657 7.32899 0.620546 7.28223 0.572221 7.1762 0.523895 7.0702 0.570649 6.94512 0.676652 6.89678 0.676652 6.89678 1.77989 6.39457 1.8103 6.37998 1.91527 6.32946 2.04132 6.37362 2.09183 6.47859L2.30129 6.91383C2.34904 7.00878 2.32073 7.12438 2.2345 7.18654 2.13853 7.25259 2.00719 7.22834 1.94115 7.13236 1.93498 7.12339 1.92952 7.11397 1.9248 7.10416ZM4.74479 15.9145C4.74184 16.0289 4.64825 16.1201 4.53386 16.1201L4.52837 16.1201C4.4119 16.1171 4.31989 16.0203 4.32288 15.9038 4.32288 15.9038 4.32288 15.9038 4.32288 15.9038L4.34992 15.1969C4.35291 15.0804 4.44976 14.9884 4.56627 14.9914 4.68274 14.9943 4.77478 15.0912 4.77179 15.2077ZM14.7148 14.6159C14.6339 14.6997 14.5004 14.7021 14.4165 14.6212 14.4165 14.6212 14.4165 14.6212 14.4165 14.6212L14.0046 14.2319C13.9207 14.151 13.9184 14.0174 13.9993 13.9336 14.0802 13.8498 14.2137 13.8474 14.2976 13.9283L14.7094 14.3176C14.7932 14.3985 14.7956 14.532 14.7148 14.6159ZM17.1945 10.8668C17.1728 10.9291 17.1233 10.9777 17.0607 10.9982L15.8267 11.3975 11.3611 15.8934 10.9491 16.9745C10.8534 17.2277 10.454 17.0884 10.5537 16.8277L10.9143 15.8804 5.47523 13.1913 4.82171 13.2637 4.79886 14.1532C4.79591 14.2675 4.70232 14.3587 4.58793 14.3587 4.5861 14.3587 4.58441 14.3587 4.58244 14.3587 4.46597 14.3557 4.374 14.2589 4.37695 14.1424L4.39829 13.3107 2.17266 13.5571C1.89464 13.5782 1.84922 13.1784 2.12621 13.138L5.3434 12.7818 6.87656 6.45655C6.89435 6.38318 6.87157 6.30587 6.8168 6.25387L4.64414 4.19098 4.92961 3.91254C5.01307 3.83126 5.01483 3.6977 4.93351 3.61424 4.92247 3.60292 4.91017 3.59283 4.89688 3.58425 4.81173 3.53102 4.70106 3.54382 4.63032 3.61512L4.33793 3.90023 3.61301 3.21152C3.67348 3.15949 3.73605 3.10922 3.80074 3.06141L6.33305 1.19074C6.51734 1.05449 6.71569 0.938401 6.92473 0.844453L6.69832 1.35914C6.64847 1.46443 6.69343 1.5902 6.79873 1.64005 6.90402 1.6899 7.02977 1.64495 7.07963 1.53965 7.08131 1.53613 7.08286 1.53256 7.08434 1.52895L7.46859 0.656016C7.97256 0.531098 8.49934 0.530617 9.00352 0.654609L12.5993 1.53492C12.8441 1.59488 13.0809 1.6835 13.3049 1.79895L13.0671 4.29546C13.0616 4.35343 13.1041 4.40494 13.1621 4.41046 13.1672 4.41095 13.1725 4.41105 13.1777 4.41077L14.2678 4.35322C14.384 4.34598 14.4842 4.43433 14.4914 4.55062 14.4987 4.66689 14.4103 4.76701 14.2941 4.77429 14.2926 4.77436 14.2912 4.77443 14.2898 4.7745L13.234 4.83026C13.1759 4.83332 13.1312 4.88296 13.1343 4.94114 13.135 4.95415 13.1381 4.96695 13.1434 4.97883L15.8277 10.9533 16.9338 10.5954C17.0436 10.5597 17.1616 10.6197 17.1973 10.7295 17.2118 10.7743 17.2108 10.8226 17.1945 10.8668ZM4.3098 11.5745C4.41485 11.5241 4.54089 11.5683 4.59141 11.6733L4.7577 12.0189 5.10609 11.9595C5.22077 11.9389 5.33036 12.0153 5.35089 12.13 5.37142 12.2446 5.29506 12.3542 5.18038 12.3747 5.17918 12.375 5.17799 12.3751 5.17676 12.3754L4.67191 12.4615C4.57917 12.4772 4.48727 12.4296 4.44656 12.3448L4.21102 11.8561C4.1606 11.751 4.20483 11.625 4.3098 11.5745Z" fill="#FFFFFF" fill-rule="nonzero" fill-opacity="1" transform="matrix(1.03627 0 0 1 21.1736 21)"/><path d="M12.6881 5.39434 12.394 5.45309 12.5198 4.77879C12.5399 4.65033 12.4783 4.52292 12.3652 4.45887 12.3395 4.44621 11.3337 3.94453 11.3337 3.94453 11.2276 3.8964 11.1026 3.94337 11.0544 4.04947 11.0083 4.15111 11.0494 4.27106 11.148 4.32316L12.0895 4.78512 11.9482 5.54238 7.43931 6.44414C7.35884 6.46024 7.29503 6.52155 7.27569 6.60129L5.75824 12.8609 11.1371 15.5201 13.1938 13.4494 12.4868 12.7671C12.4029 12.6862 12.4006 12.5526 12.4815 12.4688 12.5624 12.3849 12.6959 12.3826 12.7798 12.4635L13.4911 13.15 15.461 11.1667 12.9219 5.51475C12.8815 5.42503 12.7846 5.37507 12.6881 5.39434ZM7.25625 12.0214 6.54107 12.1462C6.42621 12.1657 6.31726 12.0885 6.29771 11.9736 6.27817 11.8588 6.35541 11.7498 6.47026 11.7303L7.18548 11.6055C7.30034 11.586 7.40929 11.6633 7.4288 11.7781 7.44834 11.8929 7.37111 12.0019 7.25625 12.0214ZM11.1509 9.81141 11.3446 8.77465C11.3659 8.66011 11.4761 8.58452 11.5907 8.6059 11.7052 8.62727 11.7808 8.73745 11.7594 8.85199L11.5657 9.88875C11.5443 10.0033 11.4341 10.0789 11.3196 10.0575 11.2051 10.0361 11.1295 9.92595 11.1509 9.81141ZM9.33574 11.6673 8.29582 11.8445C8.18114 11.865 8.07156 11.7887 8.05103 11.674 8.0305 11.5593 8.10686 11.4497 8.22153 11.4292 8.22273 11.429 8.22393 11.4288 8.22516 11.4286L9.26508 11.2514C9.38011 11.2329 9.48836 11.3111 9.50685 11.4261 9.52513 11.5398 9.44902 11.6471 9.33574 11.6673ZM12.0262 12.0294C11.9454 12.1133 11.8119 12.1158 11.728 12.0349 11.7279 12.0348 11.7278 12.0348 11.7278 12.0347L11.0457 11.3762 10.3753 11.4905C10.2603 11.509 10.152 11.4307 10.1335 11.3157 10.1153 11.2021 10.1914 11.0948 10.3046 11.0746L10.935 10.9673 10.9571 10.8482C10.9785 10.7336 11.0887 10.6581 11.2032 10.6794 11.3178 10.7008 11.3934 10.811 11.372 10.9255L11.3435 11.0777 12.0206 11.7313C12.1045 11.8119 12.1071 11.9452 12.0266 12.0291 12.0265 12.0292 12.0264 12.0293 12.0262 12.0294ZM12.1465 6.77848 11.9528 7.81523C11.9352 7.93041 11.8276 8.00951 11.7124 7.99189 11.5972 7.97432 11.5181 7.8667 11.5357 7.75153 11.5364 7.74696 11.5373 7.74243 11.5383 7.73789L11.7316 6.70113C11.753 6.58659 11.8632 6.51101 11.9777 6.53238 12.0923 6.55376 12.1679 6.66394 12.1465 6.77848Z" fill="#FFFFFF" fill-rule="nonzero" fill-opacity="1" transform="matrix(1.03627 0 0 1 21.1736 21)"/></g></g></g></g></g><g clip-path="url(#clip7)"><g clip-path="url(#clip8)"><g clip-path="url(#clip9)"><path d="M12.2906 4.27591 10.7803 5.7484C10.6127 5.91024 10.608 6.17731 10.7698 6.34493 10.9317 6.51254 11.1987 6.51723 11.3664 6.35539 11.3674 6.35444 11.3683 6.35348 11.3693 6.35252L12.8799 4.87969C13.0487 4.71903 13.0552 4.452 12.8945 4.28325 12.7339 4.1145 12.4669 4.10794 12.2981 4.26859 12.2957 4.27091 12.2933 4.27326 12.2909 4.27563ZM18.5083 6.78902 20.4022 7.71785C20.6123 7.81861 20.8643 7.73002 20.9651 7.51992 21.0646 7.31243 20.9794 7.06338 20.7737 6.9603L18.8798 6.03148C18.6705 5.92916 18.4179 6.01592 18.3156 6.22525 18.2134 6.43418 18.2997 6.68634 18.5083 6.78902ZM14.7206 4.93144 16.6144 5.86027C16.8236 5.96288 17.0764 5.87647 17.179 5.66726 17.2816 5.45805 17.1952 5.20526 16.986 5.10265L15.0921 4.17389C14.8828 4.07158 14.6301 4.15834 14.5278 4.36767 14.4257 4.5766 14.5119 4.82875 14.7206 4.93144Z" fill="#FFFFFF" fill-rule="nonzero" fill-opacity="1" transform="matrix(1.02778 0 0 1 69 164)"/><path d="M35.4846 17.9648 33.9757 10.8612C33.6746 9.43523 32.9498 8.1334 31.8966 7.12617L28.698 4.06125C27.7764 3.17874 26.6389 2.55411 25.3997 2.25L18.2074 0.489375C16.113-0.0259213 13.8978 0.418961 12.1648 1.70297L7.10016 5.4443C6.54125 5.85709 6.04447 6.34796 5.625 6.90188L1.79719 11.9587C0.482569 13.6895 0.015316 15.9195 0.524531 18.0323L2.20289 25.0502C2.51511 26.3549 3.18241 27.5476 4.13086 28.4963L7.36805 31.7327C8.33505 32.6989 9.5547 33.3732 10.8872 33.6783L17.801 35.2568C19.798 35.71 21.8936 35.3017 23.5744 34.1318L28.9027 30.413C29.5832 29.9787 30.1662 29.4079 30.6148 28.7367L34.2485 23.7544C35.4628 22.0871 35.9122 19.9827 35.4846 17.9648ZM30.6422 8.59612 32.1149 8.4858C32.3474 8.47132 32.5477 8.64802 32.5622 8.88061 32.5768 9.11313 32.4 9.31338 32.1675 9.32794 32.1646 9.32808 32.1618 9.32822 32.159 9.32836L30.6863 9.43868C30.6788 9.4391 30.6713 9.43931 30.6638 9.43931 30.4308 9.43924 30.242 9.25031 30.2421 9.0173 30.2422 8.79286 30.418 8.60773 30.6422 8.59612ZM4.73906 11.6388 6.24937 10.1658C6.41635 10.0031 6.68362 10.0065 6.84633 10.1735 7.00904 10.3405 7.00557 10.6078 6.83859 10.7705L5.32828 12.2428C5.16149 12.4055 4.89439 12.4022 4.73168 12.2354 4.56897 12.0686 4.57227 11.8015 4.73906 11.6388ZM7.35328 19.5448 8.26805 21.4453C8.36923 21.6552 8.28105 21.9073 8.07117 22.0085 7.86129 22.1097 7.60915 22.0215 7.50797 21.8116L6.5932 19.9104C6.4866 19.7033 6.56813 19.4489 6.77531 19.3423 6.98248 19.2356 7.23684 19.3172 7.34344 19.5244 7.34688 19.5311 7.35019 19.5379 7.35328 19.5448ZM6.24164 18.2067C6.03175 18.3079 5.7796 18.2197 5.67844 18.0098L4.76367 16.1093C4.66251 15.8992 4.75081 15.6469 4.9609 15.5457 5.17099 15.4446 5.42329 15.5329 5.52445 15.743L6.43922 17.6442C6.53981 17.8541 6.4514 18.1058 6.24164 18.2067ZM3.6026 13.6955 1.70332 14.5613C1.49131 14.658 1.24109 14.5645 1.14444 14.3524 1.04779 14.1404 1.1413 13.8902 1.3533 13.7936 1.3533 13.7936 3.55978 12.7891 3.6206 12.76 3.83055 12.6589 4.08264 12.7472 4.18366 12.9572L4.60259 13.8277C4.69808 14.0176 4.64146 14.2488 4.46899 14.3731 4.27705 14.5052 4.01438 14.4567 3.8823 14.2647 3.86996 14.2468 3.85903 14.2279 3.84961 14.2083ZM9.48959 31.8291C9.48368 32.0578 9.29651 32.2402 9.06771 32.2401L9.05674 32.2401C8.8238 32.2341 8.63979 32.0406 8.64577 31.8076 8.64577 31.8076 8.64577 31.8075 8.64577 31.8075L8.69984 30.3938C8.70581 30.1608 8.89952 29.9767 9.13254 29.9827 9.36548 29.9886 9.54956 30.1823 9.54359 30.4154ZM29.4296 29.2317C29.2678 29.3993 29.0007 29.4041 28.833 29.2423 28.833 29.2423 28.833 29.2423 28.833 29.2423L28.0091 28.4638C27.8415 28.302 27.8368 28.0349 27.9986 27.8672 28.1604 27.6996 28.4275 27.6949 28.5951 27.8567L29.4187 28.6353C29.5864 28.797 29.5913 29.064 29.4296 29.2317ZM34.389 21.7336C34.3457 21.8581 34.2467 21.9554 34.1214 21.9964L31.6534 22.795 22.7222 31.7869 21.8982 33.9491C21.7069 34.4553 20.908 34.1769 21.1074 33.6554L21.8285 31.7609 10.9505 26.3827 9.64343 26.5274 9.59773 28.3063C9.59182 28.5351 9.40465 28.7175 9.17585 28.7174 9.1722 28.7174 9.16882 28.7174 9.16488 28.7174 8.93194 28.7114 8.748 28.5178 8.75391 28.2849L8.79659 26.6214 4.34531 27.1142C3.78928 27.1564 3.69844 26.3568 4.25243 26.2759L10.6868 25.5635 13.7531 12.9131C13.7887 12.7664 13.7431 12.6117 13.6336 12.5077L9.28828 8.38195 9.85922 7.82508C10.0261 7.66252 10.0297 7.3954 9.86702 7.22848 9.84494 7.20584 9.82034 7.18566 9.79376 7.1685 9.62346 7.06205 9.40212 7.08764 9.26065 7.23023L8.67586 7.80047 7.22602 6.42305C7.34695 6.31898 7.47211 6.21844 7.60148 6.12281L12.6661 2.38148C13.0347 2.10899 13.4314 1.8768 13.8495 1.68891L13.3966 2.71828C13.2969 2.92887 13.3869 3.1804 13.5975 3.2801 13.808 3.3798 14.0595 3.28989 14.1593 3.07931 14.1626 3.07226 14.1657 3.06511 14.1687 3.05789L14.9372 1.31203C15.9451 1.0622 16.9987 1.06123 18.007 1.30922L25.1986 3.06984C25.6881 3.18975 26.1618 3.36699 26.6098 3.59789L26.1342 8.59092C26.1231 8.70687 26.2082 8.80987 26.3242 8.82091 26.3345 8.8219 26.3449 8.82211 26.3553 8.82155L28.5356 8.70644C28.7681 8.69196 28.9684 8.86866 28.9829 9.10125 28.9974 9.33377 28.8207 9.53402 28.5881 9.54858 28.5853 9.54872 28.5825 9.54886 28.5796 9.549L26.4681 9.66052C26.3517 9.66663 26.2624 9.76591 26.2685 9.88228 26.2699 9.9083 26.2761 9.93389 26.2868 9.95766L31.6554 21.9066 33.8676 21.1908C34.0872 21.1193 34.3231 21.2394 34.3946 21.459 34.4237 21.5485 34.4217 21.6453 34.389 21.7336ZM8.61961 23.149C8.8297 23.0482 9.08177 23.1366 9.18281 23.3466L9.51539 24.0377 10.2122 23.9189C10.4415 23.8778 10.6607 24.0306 10.7018 24.2599 10.7428 24.4892 10.5901 24.7084 10.3608 24.7494 10.3584 24.7499 10.356 24.7503 10.3535 24.7507L9.34383 24.923C9.15834 24.9543 8.97455 24.8591 8.89313 24.6895L8.42203 23.7122C8.3212 23.5021 8.40966 23.25 8.61961 23.149Z" fill="#FFFFFF" fill-rule="nonzero" fill-opacity="1" transform="matrix(1.02778 0 0 1 69 164)"/><path d="M25.3762 10.7887 24.788 10.9062 25.0397 9.55758C25.0798 9.30066 24.9566 9.04584 24.7303 8.91773 24.679 8.89242 22.6673 7.88906 22.6673 7.88906 22.4551 7.7928 22.2051 7.88674 22.1089 8.09895 22.0167 8.30222 22.0987 8.54212 22.2961 8.64633L24.1791 9.57023 23.8964 11.0848 14.8786 12.8883C14.7177 12.9205 14.5901 13.0431 14.5514 13.2026L11.5165 25.7217 22.2743 31.0402 26.3876 26.8988 24.9735 25.5341C24.8058 25.3723 24.8011 25.1052 24.9629 24.9376 25.1248 24.7699 25.3918 24.7652 25.5595 24.927L26.9823 26.3 30.922 22.3334 25.8437 11.0295C25.7631 10.8501 25.5691 10.7501 25.3762 10.7887ZM14.5125 24.0429 13.0821 24.2923C12.8524 24.3314 12.6345 24.177 12.5954 23.9472 12.5563 23.7175 12.7108 23.4996 12.9405 23.4605L14.371 23.2111C14.6007 23.172 14.8186 23.3265 14.8576 23.5562 14.8967 23.7859 14.7422 24.0038 14.5125 24.0429ZM22.3017 19.6228 22.6891 17.5493C22.7319 17.3202 22.9523 17.169 23.1813 17.2118 23.4104 17.2545 23.5616 17.4749 23.5188 17.704L23.1314 19.7775C23.0887 20.0066 22.8683 20.1577 22.6392 20.115 22.4101 20.0722 22.259 19.8519 22.3017 19.6228ZM18.6715 23.3346 16.5916 23.689C16.3623 23.73 16.1431 23.5773 16.1021 23.348 16.061 23.1187 16.2137 22.8994 16.4431 22.8585 16.4455 22.858 16.4479 22.8576 16.4503 22.8572L18.5302 22.5028C18.7602 22.4658 18.9767 22.6223 19.0137 22.8523 19.0503 23.0795 18.898 23.2941 18.6715 23.3346ZM24.0525 24.0588C23.8908 24.2266 23.6237 24.2315 23.456 24.0698 23.4558 24.0697 23.4557 24.0695 23.4555 24.0694L22.0915 22.7524 20.7506 22.9809C20.5206 23.0179 20.3041 22.8615 20.2671 22.6315 20.2305 22.4042 20.3827 22.1896 20.6093 22.1491L21.87 21.9347 21.9143 21.6963C21.957 21.4673 22.1774 21.3161 22.4065 21.3588 22.6356 21.4016 22.7867 21.6219 22.744 21.851L22.687 22.1555 24.0413 23.4626C24.209 23.6238 24.2143 23.8904 24.0531 24.0582 24.0529 24.0584 24.0527 24.0586 24.0525 24.0588ZM24.293 13.557 23.9055 15.6305C23.8704 15.8608 23.6552 16.019 23.4248 15.9838 23.1945 15.9486 23.0363 15.7334 23.0715 15.5031 23.0728 15.4939 23.0746 15.4849 23.0766 15.4758L23.4633 13.4023C23.506 13.1732 23.7264 13.022 23.9555 13.0648 24.1845 13.1075 24.3357 13.3279 24.293 13.557Z" fill="#FFFFFF" fill-rule="nonzero" fill-opacity="1" transform="matrix(1.02778 0 0 1 69 164)"/></g></g></g></g></svg>