<?xml version="1.0" encoding="UTF-8"?><svg xmlns="http://www.w3.org/2000/svg" viewBox="0 0 286.03 236.28"><defs><style>.cls-1{isolation:isolate;}.cls-2{mix-blend-mode:multiply;opacity:.5;}.cls-3{fill:#7b99b8;}.cls-3,.cls-4,.cls-5,.cls-6,.cls-7,.cls-8,.cls-9,.cls-10,.cls-11,.cls-12{stroke-width:0px;}.cls-4{fill:#0a92cf;}.cls-5{fill:#ccc;}.cls-6{fill:#c6c6c6;}.cls-7{fill:#b3b3b3;}.cls-8{fill:#666;}.cls-9{fill:#999;}.cls-10{fill:#fff;}.cls-11{fill:red;}.cls-12{fill:#e6e6e6;}</style></defs><g class="cls-1"><g id="Layer_2"><g id="Layer_3"><g class="cls-2"><rect class="cls-3" x="3" y="2" width="283.03" height="234.28" rx="1.58" ry="1.58"/></g><rect class="cls-12" x="24.38" y="-24.38" width="234.28" height="283.03" rx="1.58" ry="1.58" transform="translate(258.66 -24.38) rotate(90)"/><rect class="cls-10" x=".62" y="12.73" width="281.79" height="214.59"/><rect class="cls-10" x="38.29" y="3.29" width="213.54" height="6.85" rx=".6" ry=".6"/><path class="cls-5" d="M251.23,10.29H38.88c-.41,0-.75-.33-.75-.75V3.89c0-.41.33-.75.75-.75h212.35c.41,0,.75.33.75.75v5.66c0,.41-.33.75-.75.75ZM38.88,3.44c-.25,0-.45.2-.45.45v5.66c0,.25.2.45.45.45h212.35c.25,0,.45-.2.45-.45V3.89c0-.25-.2-.45-.45-.45H38.88Z"/><rect class="cls-7" x="7.27" y="6.12" width="3.34" height=".93"/><rect class="cls-4" x="8.15" y="6.51" width="2.46" height=".15"/><rect class="cls-7" x="7.68" y="6.04" width="3.4" height="1.09"/><polygon class="cls-4" points="8.33 5.97 7.27 6.58 8.33 7.2 8.33 5.97"/><polygon class="cls-7" points="8.8 8.01 6.34 6.58 8.8 5.16 8.8 8.01"/><rect class="cls-7" x="14.8" y="6.12" width="3.34" height=".93"/><rect class="cls-4" x="14.8" y="6.51" width="2.46" height=".15"/><rect class="cls-7" x="14.33" y="6.04" width="3.4" height="1.09"/><polygon class="cls-4" points="17.08 5.97 18.14 6.58 17.08 7.2 17.08 5.97"/><polygon class="cls-7" points="16.61 8.01 16.61 5.16 19.07 6.58 16.61 8.01"/><rect class="cls-7" x="176.8" y="44.02" width="3.34" height=".93"/><rect class="cls-4" x="176.8" y="44.41" width="2.46" height=".15"/><rect class="cls-7" x="176.33" y="43.95" width="3.4" height="1.09"/><polygon class="cls-4" points="179.08 43.88 180.14 44.49 179.08 45.1 179.08 43.88"/><polygon class="cls-7" points="178.61 45.91 178.61 43.07 181.07 44.49 178.61 45.91"/><circle class="cls-11" cx="276.49" cy="6.72" r="1.56"/><path class="cls-7" d="M272.82,6.72c0,.86-.7,1.56-1.56,1.56s-1.56-.7-1.56-1.56.7-1.56,1.56-1.56,1.56.7,1.56,1.56Z"/><circle class="cls-7" cx="266.03" cy="6.72" r="1.56"/><path class="cls-7" d="M32.43,4.63l1.99,1.99h-.89v2.19h-2.19v-2.19h-.89l1.99-1.99h0ZM32.43,4.03c-.15,0-.31.06-.42.18l-1.99,1.99c-.17.17-.22.43-.13.65.09.22.31.37.55.37h.29v1.59c0,.33.27.6.6.6h2.19c.33,0,.6-.27.6-.6v-1.59h.29c.24,0,.46-.15.55-.37.09-.22.04-.48-.13-.65l-1.99-1.99c-.12-.12-.27-.18-.42-.18h0Z"/><rect class="cls-12" x="95.95" y="99.67" width="84.18" height="2.62"/><rect class="cls-12" x="95.95" y="104.87" width="84.18" height="2.62"/><rect class="cls-12" x="95.95" y="110.08" width="84.18" height="2.62"/><rect class="cls-12" x="95.95" y="115.29" width="84.18" height="2.62"/><rect class="cls-12" x="95.95" y="120.5" width="84.18" height="2.62"/><rect class="cls-12" x="95.95" y="125.7" width="84.18" height="2.62"/><rect class="cls-12" x="95.95" y="130.91" width="84.18" height="2.62"/><rect class="cls-12" x="95.95" y="136.12" width="84.18" height="2.62"/><rect class="cls-12" x="95.95" y="141.33" width="84.18" height="2.62"/><rect class="cls-12" x="95.95" y="146.53" width="84.18" height="2.62"/><rect class="cls-12" x="95.95" y="151.74" width="84.18" height="2.62"/><rect class="cls-12" x="95.95" y="156.58" width="84.18" height="2.62"/><rect class="cls-12" x="95.95" y="161.79" width="84.18" height="2.62"/><rect class="cls-12" x="95.95" y="166.99" width="84.18" height="2.62"/><rect class="cls-12" x="95.95" y="172.2" width="84.18" height="2.62"/><rect class="cls-12" x="95.95" y="177.41" width="84.18" height="2.62"/><rect class="cls-12" x="95.95" y="182.62" width="84.18" height="2.62"/><rect class="cls-12" x="95.95" y="187.83" width="84.18" height="2.62"/><rect class="cls-12" x="95.95" y="193.03" width="84.18" height="2.62"/><rect class="cls-12" x="95.95" y="198.24" width="84.18" height="2.62"/><rect class="cls-12" x="95.95" y="203.45" width="84.18" height="2.62"/><rect class="cls-12" x="95.95" y="208.66" width="84.18" height="2.62"/><rect class="cls-12" x="95.95" y="213.86" width="84.18" height="2.62"/><rect class="cls-12" x="95.95" y="219.07" width="84.18" height="2.62"/><rect class="cls-8" x=".62" y="12.73" width="281.79" height="19.39"/><rect class="cls-8" x="11.77" y="48.31" width="168.37" height="32.06"/><rect class="cls-9" x="190.75" y="48.31" width="78.95" height="76.97"/><rect class="cls-6" x="11.77" y="86.42" width="79.74" height="78.29"/><rect class="cls-9" x="95.95" y="86.42" width="84.18" height="8.07"/><rect class="cls-6" x="11.77" y="40.67" width="31.82" height="7.64"/><rect class="cls-8" x="78.6" y="40.67" width="31.82" height="7.64"/><rect class="cls-6" x="45.1" y="40.67" width="31.82" height="7.64"/><rect class="cls-6" x="262.93" y="40.67" width="6.78" height="5.28"/><rect class="cls-6" x="253.96" y="40.67" width="6.78" height="5.28"/><rect class="cls-6" x="245" y="40.67" width="6.78" height="5.28"/><rect class="cls-9" x="190.75" y="131.15" width="78.95" height="8.07"/><rect class="cls-12" x="218.94" y="142.12" width="50.76" height="2.51"/><rect class="cls-12" x="218.94" y="147.45" width="50.76" height="2.51"/><rect class="cls-12" x="218.94" y="152.79" width="50.76" height="2.51"/><rect class="cls-12" x="218.94" y="158.12" width="50.76" height="2.51"/><rect class="cls-12" x="218.94" y="163.45" width="50.76" height="2.51"/><rect class="cls-12" x="191.12" y="168.48" width="78.59" height="3.13"/><rect class="cls-12" x="191.12" y="173.81" width="78.59" height="3.13"/><rect class="cls-12" x="191.12" y="179.15" width="78.59" height="3.13"/><rect class="cls-12" x="191.12" y="184.48" width="78.59" height="3.13"/><rect class="cls-12" x="191.12" y="189.81" width="78.59" height="3.13"/><rect class="cls-12" x="191.12" y="213.61" width="78.59" height="3.13"/><rect class="cls-12" x="191.12" y="218.82" width="61.91" height="3.13"/><rect class="cls-6" x="191.12" y="142.13" width="23.8" height="23.8"/><rect class="cls-6" x="191.12" y="198.07" width="11.9" height="11.9"/><rect class="cls-6" x="207.79" y="198.07" width="11.9" height="11.9"/><rect class="cls-6" x="224.46" y="198.07" width="11.9" height="11.9"/><rect class="cls-6" x="241.14" y="198.07" width="11.9" height="11.9"/><rect class="cls-6" x="257.81" y="198.07" width="11.9" height="11.9"/><rect class="cls-6" x="11.77" y="196.59" width="23.8" height="23.8"/><rect class="cls-6" x="39.74" y="196.59" width="23.8" height="23.8"/><rect class="cls-6" x="67.71" y="196.59" width="23.8" height="23.8"/><rect class="cls-6" x="11.77" y="168.75" width="23.8" height="23.8"/><rect class="cls-6" x="39.74" y="168.75" width="23.8" height="23.8"/><rect class="cls-6" x="67.71" y="168.75" width="23.8" height="23.8"/><path class="cls-7" d="M27.21,6.72l.31-2.08-.67.26c-.52-.59-1.25-.93-2.04-.93-1.52,0-2.75,1.23-2.75,2.75s1.23,2.75,2.75,2.75c.73,0,1.42-.3,1.94-.81l-.53-.51v.06c-.38.36-.88.56-1.41.56-1.13,0-2.05-.92-2.05-2.05s.92-2.05,2.05-2.05c.5,0,.96.19,1.33.51l-.58.23,1.65,1.31Z"/><rect class="cls-6" x="112.7" y="40.59" width="31.82" height="7.64"/></g></g></g></svg>