<?xml version="1.0" encoding="UTF-8"?><svg xmlns="http://www.w3.org/2000/svg" viewBox="0 0 286.03 236.28"><defs><style>.cls-1{isolation:isolate;}.cls-2{mix-blend-mode:multiply;opacity:.5;}.cls-3{fill:#7b99b8;}.cls-3,.cls-4,.cls-5,.cls-6,.cls-7,.cls-8,.cls-9,.cls-10,.cls-11{stroke-width:0px;}.cls-4{fill:#0a92cf;}.cls-5{fill:#ccc;}.cls-6{fill:#c6c6c6;}.cls-7{fill:#b3b3b3;}.cls-8{fill:#666;}.cls-9{fill:#fff;}.cls-10{fill:red;}.cls-11{fill:#e6e6e6;}</style></defs><g class="cls-1"><g id="Layer_2"><g id="Layer_3"><g class="cls-2"><rect class="cls-3" x="3" y="2" width="283.03" height="234.28" rx="1.58" ry="1.58"/></g><rect class="cls-11" x="24.38" y="-24.38" width="234.28" height="283.03" rx="1.58" ry="1.58" transform="translate(258.66 -24.38) rotate(90)"/><rect class="cls-9" x=".62" y="12.73" width="281.79" height="214.59"/><rect class="cls-9" x="38.29" y="3.29" width="213.54" height="6.85" rx=".6" ry=".6"/><path class="cls-5" d="M251.23,10.29H38.88c-.41,0-.75-.33-.75-.75V3.89c0-.41.33-.75.75-.75h212.35c.41,0,.75.33.75.75v5.66c0,.41-.33.75-.75.75ZM38.88,3.44c-.25,0-.45.2-.45.45v5.66c0,.25.2.45.45.45h212.35c.25,0,.45-.2.45-.45V3.89c0-.25-.2-.45-.45-.45H38.88Z"/><rect class="cls-7" x="7.27" y="6.12" width="3.34" height=".93"/><rect class="cls-4" x="8.15" y="6.51" width="2.46" height=".15"/><rect class="cls-7" x="7.68" y="6.04" width="3.4" height="1.09"/><polygon class="cls-4" points="8.33 5.97 7.27 6.58 8.33 7.2 8.33 5.97"/><polygon class="cls-7" points="8.8 8.01 6.34 6.58 8.8 5.16 8.8 8.01"/><rect class="cls-7" x="14.8" y="6.12" width="3.34" height=".93"/><rect class="cls-4" x="14.8" y="6.51" width="2.46" height=".15"/><rect class="cls-7" x="14.33" y="6.04" width="3.4" height="1.09"/><polygon class="cls-4" points="17.08 5.97 18.14 6.58 17.08 7.2 17.08 5.97"/><polygon class="cls-7" points="16.61 8.01 16.61 5.16 19.07 6.58 16.61 8.01"/><circle class="cls-10" cx="276.49" cy="6.72" r="1.56"/><circle class="cls-7" cx="271.26" cy="6.72" r="1.56"/><path class="cls-7" d="M267.59,6.72c0,.86-.7,1.56-1.56,1.56s-1.56-.7-1.56-1.56.7-1.56,1.56-1.56,1.56.7,1.56,1.56Z"/><path class="cls-7" d="M32.43,4.63l1.99,1.99h-.89v2.19h-2.19v-2.19h-.89l1.99-1.99h0ZM32.43,4.03c-.15,0-.31.06-.42.18l-1.99,1.99c-.17.17-.22.43-.13.65.09.22.31.37.55.37h.29v1.59c0,.33.27.6.6.6h2.19c.33,0,.6-.27.6-.6v-1.59h.29c.24,0,.46-.15.55-.37.09-.22.04-.48-.13-.65l-1.99-1.99c-.12-.12-.27-.18-.42-.18h0Z"/><rect class="cls-11" x="11.77" y="203.46" width="168.37" height="2.62"/><rect class="cls-11" x="11.77" y="208.67" width="94.02" height="2.62"/><rect class="cls-11" x="190.75" y="203.46" width="78.95" height="2.62"/><rect class="cls-11" x="190.75" y="208.67" width="78.95" height="2.62"/><polygon class="cls-11" points="254.87 191.45 253.55 190.13 259.12 184.56 253.55 178.99 254.87 177.67 261.76 184.56 254.87 191.45"/><rect class="cls-6" x="190.75" y="40.67" width="78.95" height="8.07"/><rect class="cls-8" x=".62" y="12.73" width="281.79" height="19.39"/><rect class="cls-9" x="11.77" y="40.67" width="168.37" height="156.09"/><path class="cls-7" d="M180.29,196.91H11.61V40.51h168.68v156.4ZM11.93,196.6h168.06V40.83H11.93v155.77Z"/><rect class="cls-8" x="40.58" y="46.64" width="110.76" height="144.15"/><rect class="cls-6" x="190.75" y="53.18" width="23.25" height="24.92"/><rect class="cls-6" x="208.16" y="215.95" width="6.23" height="6.23"/><rect class="cls-6" x="199.82" y="215.95" width="6.23" height="6.23"/><rect class="cls-6" x="190.75" y="215.95" width="6.23" height="6.23"/><rect class="cls-6" x="29.17" y="215.95" width="6.23" height="6.23"/><rect class="cls-6" x="20.84" y="215.95" width="6.23" height="6.23"/><rect class="cls-6" x="11.77" y="215.95" width="6.23" height="6.23"/><rect class="cls-6" x="218.6" y="53.18" width="23.25" height="24.92"/><rect class="cls-6" x="246.45" y="53.18" width="23.25" height="24.92"/><rect class="cls-6" x="190.75" y="82.84" width="23.25" height="24.92"/><rect class="cls-6" x="218.6" y="82.84" width="23.25" height="24.92"/><rect class="cls-6" x="246.45" y="82.84" width="23.25" height="24.92"/><rect class="cls-6" x="190.75" y="112.51" width="23.25" height="24.92"/><rect class="cls-6" x="218.6" y="112.51" width="23.25" height="24.92"/><rect class="cls-6" x="246.45" y="112.51" width="23.25" height="24.92"/><rect class="cls-6" x="190.75" y="142.17" width="23.25" height="24.92"/><rect class="cls-6" x="218.6" y="142.17" width="23.25" height="24.92"/><rect class="cls-6" x="246.45" y="142.17" width="23.25" height="24.92"/><rect class="cls-6" x="190.75" y="171.84" width="23.25" height="24.92"/><rect class="cls-6" x="218.6" y="171.84" width="23.25" height="24.92"/><polygon class="cls-11" points="164.16 125.6 162.84 124.28 168.41 118.71 162.84 113.14 164.16 111.82 171.05 118.71 164.16 125.6"/><polygon class="cls-11" points="29.66 125.6 22.77 118.71 29.66 111.82 30.99 113.14 25.42 118.71 30.99 124.28 29.66 125.6"/><path class="cls-7" d="M27.21,6.72l.31-2.08-.67.26c-.52-.59-1.25-.93-2.04-.93-1.52,0-2.75,1.23-2.75,2.75s1.23,2.75,2.75,2.75c.73,0,1.42-.3,1.94-.81l-.53-.51v.06c-.38.36-.88.56-1.41.56-1.13,0-2.05-.92-2.05-2.05s.92-2.05,2.05-2.05c.5,0,.96.19,1.33.51l-.58.23,1.65,1.31Z"/></g></g></g></svg>