<svg xmlns="http://www.w3.org/2000/svg" enable-background="new 0 0 100 100" viewBox="0 0 100 100"><path fill="#009b8e" d="M22.594 59.122l7.048-4.096c-.002.686.482 1.527 1.079 1.872l-7.048 4.096C23.075 60.649 22.592 59.808 22.594 59.122zM33.653 60.716l-7.048 4.096c-.197.115-.471.098-.773-.076l7.048-4.096C33.183 60.814 33.456 60.831 33.653 60.716z" class="color00249b svgShape"/><polygon fill="#009b8e" points="23.672 60.994 30.72 56.898 31.806 57.525 24.758 61.62" class="color00249b svgShape"/><path fill="#009b8e" d="M33.653,60.716l-7.048,4.096c0.195-0.113,0.315-0.354,0.316-0.697l7.048-4.096
					C33.969,60.362,33.848,60.603,33.653,60.716z" class="color00249b svgShape"/><polygon fill="#009b8e" points="26.925 62.872 33.973 58.776 33.97 60.02 26.922 64.115" class="color00249b svgShape"/><polygon fill="#009b8e" points="26.925 62.872 33.973 58.776 45.897 65.66 38.849 69.756" class="color00249b svgShape"/><polygon fill="#cdcdcd" points="32.353 63.511 39.401 59.415 41.569 60.666 34.521 64.762" class="colorcdcdcd svgShape"/><polygon fill="#009b8e" points="22.671 31.724 29.719 27.628 29.642 55.026 22.594 59.122" class="color00249b svgShape"/><polygon fill="#5fc1b9" points="24.843 31.732 31.89 27.636 31.806 57.525 24.758 61.62" class="color5f78c1 svgShape"/><polygon fill="#009b8e" points="27.01 32.983 34.058 28.887 33.973 58.776 26.925 62.872" class="color00249b svgShape"/><path fill="#cdcdcd" d="M36.159,53.799c-0.006,2.062,1.448,4.58,3.242,5.616l-7.048,4.096
					c-0.897-0.518-1.709-1.407-2.296-2.423c2.349-1.365,4.698-2.731,7.047-4.096c-2.349,1.365-4.698,2.73-7.048,4.096
					c-0.587-1.017-0.949-2.162-0.946-3.192C31.46,56.529,33.809,55.164,36.159,53.799c-2.35,1.365-4.699,2.73-7.048,4.095
					c0.003-1.022,0.365-1.742,0.949-2.081l7.048-4.096C36.524,52.057,36.161,52.777,36.159,53.799z" class="colorcdcdcd svgShape"/><path fill="#00c5b5" d="M31.594,58.453l7.048-4.096c-0.194,0.113-0.315,0.353-0.316,0.693
					c-0.002,0.686,0.482,1.527,1.082,1.874L32.36,61.02c-0.6-0.347-1.084-1.188-1.082-1.874
					C31.279,58.806,31.399,58.566,31.594,58.453z" class="color007ec5 svgShape"/><polygon fill="#00c5b5" points="32.36 61.02 39.408 56.924 41.576 58.176 34.528 62.271" class="color007ec5 svgShape"/><path fill="#41e1d4" d="M31.594,58.453l7.048-4.096c0.197-0.115,0.471-0.098,0.773,0.076l-7.048,4.096
					C32.065,58.355,31.791,58.339,31.594,58.453z" class="color5cb5c7 svgShape"/><path fill="#009b8e" d="M46.657,68.224l-7.048,4.096c0.195-0.113,0.317-0.354,0.318-0.695
					c0.002-0.686-0.485-1.525-1.079-1.868l7.048-4.096c0.594,0.343,1.081,1.182,1.079,1.868
					C46.974,67.869,46.853,68.11,46.657,68.224z" class="color00249b svgShape"/><path fill="#009b8e" d="M38.849,69.756c0.594,0.343,1.081,1.182,1.079,1.868c-0.002,0.686-0.492,0.965-1.086,0.622
					l-13.009-7.511c0.6,0.346,1.087,0.069,1.089-0.62l0.003-1.244L38.849,69.756z" class="color00249b svgShape"/><path fill="#00c5b5" d="M42.344,58.25l-7.048,4.096c-0.197,0.114-0.469,0.099-0.768-0.074l7.048-4.096
					C41.875,58.349,42.147,58.364,42.344,58.25z" class="color007ec5 svgShape"/><path fill="#cdcdcd" d="M41.569,60.666c0.901,0.52,1.719,0.568,2.31,0.224l-7.048,4.096
					c-0.004,0.002-0.007,0.004-0.011,0.006c2.349-1.365,4.698-2.73,7.047-4.096c-2.349,1.365-4.698,2.73-7.048,4.096
					c-0.59,0.337-1.404,0.287-2.299-0.23C36.635,63.533,39.454,61.895,41.569,60.666z" class="colorcdcdcd svgShape"/><polygon fill="#41e1d4" points="32.367 58.529 39.415 54.433 41.583 55.685 34.535 59.781" class="color5cb5c7 svgShape"/><path fill="#00c5b5" d="M30.06,55.813l7.048-4.096c0.592-0.344,1.411-0.296,2.314,0.225l-7.048,4.096
					C31.471,55.517,30.652,55.47,30.06,55.813z" class="color007ec5 svgShape"/><path fill="#41e1d4" d="M42.661,57.553c-0.001,0.342-0.122,0.583-0.318,0.696l-7.048,4.096
					c0.195-0.114,0.317-0.355,0.318-0.696C37.963,60.284,40.311,58.919,42.661,57.553c-2.35,1.366-4.699,2.731-7.048,4.096
					c0.002-0.686-0.482-1.523-1.079-1.868l7.048-4.096C42.18,56.029,42.663,56.867,42.661,57.553z" class="color5cb5c7 svgShape"/><path fill="#cdcdcd" d="M49.459 68.088c-.194.113-.315.352-.316.692-1.175.683-2.35 1.365-3.524 2.048-.572.332-1.144.665-1.716.997-.199.115-.463.269-.662.385-.097.056-.226.131-.322.187l-.823.478c.001-.34.122-.579.316-.692C44.525 70.955 47.345 69.317 49.459 68.088zM36.183 45.083c-.002.686.482 1.524 1.082 1.87l-7.048 4.096c-.6-.347-1.084-1.184-1.082-1.87C31.485 47.814 33.834 46.448 36.183 45.083z" class="colorcdcdcd svgShape"/><path fill="#cdcdcd" d="M36.183,45.083C36.183,45.083,36.183,45.083,36.183,45.083c-2.349,1.365-4.699,2.731-7.048,4.096
					c0,0,0,0,0,0C31.485,47.814,33.834,46.448,36.183,45.083z" class="colorcdcdcd svgShape"/><path fill="#009b8e" d="M42.411,72.184l7.048-4.096c0.198-0.115,0.472-0.099,0.773,0.075l-7.048,4.096
					C42.883,72.085,42.609,72.069,42.411,72.184z" class="color00249b svgShape"/><polygon fill="#00c5b5" points="32.374 56.039 39.422 51.943 41.59 53.194 34.542 57.29" class="color007ec5 svgShape"/><polygon fill="#00c5b5" points="31.306 49.183 38.354 45.087 38.347 47.578 31.299 51.674" class="color007ec5 svgShape"/><polygon fill="#cdcdcd" points="30.217 51.049 37.265 46.953 38.347 47.578 31.299 51.674" class="colorcdcdcd svgShape"/><path fill="#cdcdcd" d="M36.5,44.387c-0.195,0.113-0.315,0.354-0.316,0.696c-2.349,1.365-4.699,2.731-7.048,4.096
					c0.001-0.342,0.122-0.583,0.316-0.696C31.566,47.254,34.385,45.615,36.5,44.387z" class="colorcdcdcd svgShape"/><path fill="#009b8e" d="M50.993,70.727l-7.048,4.096c0.195-0.113,0.317-0.354,0.318-0.695
					c0.002-0.686-0.485-1.526-1.079-1.868l7.048-4.096c0.594,0.343,1.081,1.182,1.079,1.868
					C51.31,70.372,51.188,70.613,50.993,70.727z" class="color00249b svgShape"/><path fill="#cdcdcd" d="M39.429,49.452c0.3,0.173,0.572,0.189,0.769,0.075l-7.048,4.096
					c-0.197,0.114-0.469,0.098-0.769-0.075C34.73,52.182,37.079,50.817,39.429,49.452c-2.35,1.365-4.699,2.731-7.048,4.096
					c-0.6-0.347-1.084-1.184-1.082-1.874l7.048-4.096C38.345,48.268,38.829,49.105,39.429,49.452z" class="colorcdcdcd svgShape"/><path fill="#00c5b5" d="M29.452 48.482l7.048-4.096c.197-.115.471-.098.773.076l-7.048 4.096C29.922 48.384 29.649 48.368 29.452 48.482zM43.879 60.89l-7.048 4.096c.584-.34.947-1.061.95-2.085.006-2.058-1.448-4.577-3.239-5.611l7.048-4.096c1.791 1.034 3.245 3.553 3.239 5.611C44.826 59.829 44.463 60.551 43.879 60.89z" class="color007ec5 svgShape"/><path fill="#00c5b5" d="M34.542,57.29c1.791,1.034,3.245,3.553,3.239,5.611c-0.006,2.061-1.47,2.896-3.26,1.862
					l-2.167-1.251c-1.794-1.036-3.248-3.555-3.242-5.616c0.006-2.058,1.469-2.892,3.264-1.856L34.542,57.29z M34.528,62.271
					c0.597,0.345,1.084,0.064,1.086-0.622c0.002-0.686-0.482-1.524-1.079-1.868l-2.168-1.251c-0.6-0.347-1.087-0.069-1.089,0.617
					c-0.002,0.686,0.482,1.527,1.082,1.874L34.528,62.271L34.528,62.271z" class="color007ec5 svgShape"/><polygon fill="#009b8e" points="33.474 50.435 40.522 46.339 40.515 48.83 33.467 52.925" class="color00249b svgShape"/><path fill="#cdcdcd" d="M49.185,53.835c0.302,0.175,0.576,0.191,0.773,0.076l-7.048,4.096
					c-0.197,0.115-0.471,0.098-0.773-0.076C44.252,56.702,47.071,55.064,49.185,53.835z" class="colorcdcdcd svgShape"/><path fill="#00c5b5" d="M49.959,53.911l-7.048,4.096c0.194-0.113,0.315-0.353,0.315-0.693
					c0.002-0.69-0.482-1.527-1.082-1.874l7.048-4.096c0.6,0.347,1.084,1.184,1.082,1.874C50.273,53.559,50.153,53.799,49.959,53.911
					z" class="color007ec5 svgShape"/><path fill="#00c5b5" d="M42.144,55.44c0.6,0.347,1.084,1.184,1.082,1.874c-0.002,0.686-0.489,0.963-1.089,0.617
					l-8.67-5.006l0.007-2.491L42.144,55.44z" class="color007ec5 svgShape"/><path fill="#cdcdcd" d="M42.144,55.44l4.894-2.844l-6.524-3.767l-7.048,4.096l8.67,5.006l1.088-0.632
					C43.22,56.612,42.74,55.785,42.144,55.44z" class="colorcdcdcd svgShape"/><path fill="#009b8e" d="M33.467,52.925c-0.001,0.343-0.122,0.584-0.317,0.697l0.76-0.442L33.467,52.925z M36.063,51.93
					l4.135-2.403c0.195-0.113,0.316-0.354,0.317-0.697l-4.895,2.844L36.063,51.93z" class="color00249b svgShape"/><polygon fill="#00c5b5" points="30.224 48.558 37.272 44.463 38.354 45.087 31.306 49.183" class="color007ec5 svgShape"/><path fill="#cdcdcd" d="M53.794 70.591c-.194.113-.315.352-.316.692-1.175.683-2.35 1.365-3.524 2.048-.346.201-.691.402-1.037.602-.204.118-.476.277-.679.395-.199.116-.463.269-.662.385-.097.056-.226.131-.322.187l-.823.478c.001-.34.122-.579.316-.692C48.861 73.458 51.68 71.82 53.794 70.591zM31.622 48.49l7.048-4.096c-.194.113-.315.353-.315.693l-7.048 4.096C31.307 48.843 31.428 48.603 31.622 48.49z" class="colorcdcdcd svgShape"/><path fill="#009b8e" d="M46.746,74.687l7.048-4.096c0.198-0.115,0.472-0.099,0.773,0.075l-7.048,4.096
					C47.218,74.588,46.944,74.572,46.746,74.687z" class="color00249b svgShape"/><polygon fill="#cdcdcd" points="43.191 69.768 50.239 65.672 52.407 66.924 45.359 71.02" class="colorcdcdcd svgShape"/><path fill="#009b8e" d="M31.622,48.49l7.048-4.096c0.197-0.115,0.471-0.099,0.773,0.076l-7.048,4.096
					C32.093,48.392,31.819,48.375,31.622,48.49z" class="color00249b svgShape"/><polygon fill="#00c5b5" points="33.474 50.435 40.522 46.339 49.192 51.345 42.144 55.44" class="color007ec5 svgShape"/><path fill="#009b8e" d="M32.395,48.566c0.597,0.345,1.081,1.182,1.079,1.868l-0.007,2.491
					c-0.002,0.69-0.489,0.967-1.086,0.622c-0.6-0.346-1.084-1.184-1.082-1.874l0.007-2.491
					C31.308,48.497,31.795,48.22,32.395,48.566z" class="color00249b svgShape"/><path fill="#009b8e" d="M32.395,48.566l7.048-4.096c0.597,0.345,1.081,1.182,1.079,1.868l-7.048,4.096
					C33.476,49.749,32.992,48.911,32.395,48.566z" class="color00249b svgShape"/><path fill="#cdcdcd" d="M40.897,62.071l7.048-4.096c-0.584,0.339-0.946,1.059-0.949,2.081
					c-0.006,2.062,1.448,4.58,3.242,5.616l-7.048,4.096c-1.794-1.036-3.248-3.554-3.242-5.616
					C39.951,63.13,40.314,62.41,40.897,62.071z" class="colorcdcdcd svgShape"/><path fill="#00c5b5" d="M42.432,64.71l7.048-4.096c-0.194,0.113-0.315,0.353-0.315,0.693
					c-0.002,0.686,0.482,1.527,1.082,1.874l-7.048,4.096c-0.6-0.346-1.084-1.188-1.082-1.874
					C42.117,65.063,42.237,64.823,42.432,64.71z" class="colorc57800 svgShape"/><path fill="#cdcdcd" d="M36.204,37.611c-0.002,0.686,0.482,1.524,1.082,1.87l-7.048,4.096
					c-0.6-0.347-1.084-1.184-1.082-1.87C31.506,40.341,33.855,38.976,36.204,37.611z" class="colorcdcdcd svgShape"/><path fill="#cdcdcd" d="M36.204,37.611C36.204,37.611,36.204,37.611,36.204,37.611c-2.349,1.365-4.699,2.731-7.048,4.096
					c0,0,0,0,0,0C31.506,40.341,33.855,38.976,36.204,37.611z" class="colorcdcdcd svgShape"/><polygon fill="#00c5b5" points="43.198 67.277 50.246 63.181 52.414 64.433 45.366 68.529" class="colorc57800 svgShape"/><path fill="#68c5bd" d="M42.432,64.71l7.048-4.096c0.197-0.115,0.471-0.098,0.773,0.076l-7.048,4.096
					C42.903,64.612,42.629,64.596,42.432,64.71z" class="colorc59e68 svgShape"/><path fill="#cdcdcd" d="M36.521,36.914c-0.195,0.113-0.315,0.354-0.316,0.697c-2.349,1.365-4.699,2.731-7.048,4.096
					c0.001-0.343,0.122-0.583,0.316-0.697C31.587,39.781,34.406,38.143,36.521,36.914z" class="colorcdcdcd svgShape"/><path fill="#00c5b5" d="M53.182,64.507l-7.048,4.096c-0.197,0.114-0.469,0.099-0.768-0.074l7.048-4.096
					C52.713,64.606,52.985,64.621,53.182,64.507z" class="colorc57800 svgShape"/><path fill="#cdcdcd" d="M52.407,66.924c0.901,0.52,1.719,0.568,2.31,0.224l-7.048,4.096
					c-0.003,0.002-0.007,0.004-0.01,0.006c2.349-1.365,4.698-2.73,7.047-4.095c-2.349,1.365-4.698,2.73-7.048,4.096
					c-0.59,0.337-1.404,0.287-2.299-0.23C47.473,69.791,50.292,68.152,52.407,66.924z" class="colorcdcdcd svgShape"/><path fill="#00c5b5" d="M29.473,41.01l7.048-4.096c0.197-0.115,0.47-0.098,0.772,0.076l-7.048,4.096
					C29.943,40.912,29.67,40.896,29.473,41.01z" class="color007ec5 svgShape"/><polygon fill="#68c5bd" points="43.205 64.786 50.253 60.691 52.421 61.942 45.373 66.038" class="colorc59e68 svgShape"/><path fill="#00c5b5" d="M40.897,62.071l7.048-4.096c0.592-0.344,1.411-0.296,2.315,0.225l-7.048,4.096
					C42.309,61.774,41.489,61.727,40.897,62.071z" class="colorc57800 svgShape"/><path fill="#68c5bd" d="M53.499,63.811c-0.001,0.342-0.122,0.583-0.317,0.696l-7.048,4.096
					c0.195-0.114,0.316-0.355,0.317-0.696C48.8,66.541,51.15,65.176,53.499,63.811c-2.35,1.365-4.699,2.73-7.048,4.096
					c0.002-0.686-0.482-1.524-1.079-1.868l7.048-4.096C53.018,62.287,53.501,63.125,53.499,63.811z" class="colorc59e68 svgShape"/><polygon fill="#00c5b5" points="43.212 62.296 50.26 58.2 52.428 59.451 45.38 63.547" class="colorc57800 svgShape"/><polygon fill="#cdcdcd" points="30.238 43.577 37.286 39.481 42.704 42.609 35.656 46.705" class="colorcdcdcd svgShape"/><path fill="#cdcdcd" d="M43.785,44.483c0.3,0.173,0.572,0.189,0.769,0.075l-7.048,4.096
					c-0.197,0.114-0.469,0.098-0.769-0.075C39.087,47.213,41.436,45.848,43.785,44.483c-2.35,1.365-4.699,2.73-7.048,4.096
					c-0.6-0.347-1.084-1.184-1.082-1.874l7.048-4.096C42.702,43.299,43.185,44.136,43.785,44.483z" class="colorcdcdcd svgShape"/><path fill="#00c5b5" d="M54.717,67.147l-7.048,4.096c0.584-0.34,0.947-1.061,0.95-2.086
					c0.006-2.058-1.448-4.577-3.239-5.611l7.048-4.096c1.791,1.034,3.245,3.553,3.239,5.611
					C55.664,66.087,55.301,66.808,54.717,67.147z" class="colorc57800 svgShape"/><polygon fill="#cdcdcd" points="37.823 47.956 44.871 43.86 49.206 46.363 42.159 50.459" class="colorcdcdcd svgShape"/><path fill="#00c5b5" d="M44.555,44.558l-7.048,4.096c0.195-0.113,0.316-0.354,0.317-0.697l7.048-4.096
					C44.87,44.203,44.749,44.444,44.555,44.558z" class="colorc57800 svgShape"/><polygon fill="#00c5b5" points="35.663 44.214 42.711 40.118 42.704 42.609 35.656 46.705" class="color007ec5 svgShape"/><path fill="#cdcdcd" d="M43.026,39.425c-0.194,0.113-0.315,0.353-0.316,0.693c-1.175,0.683-2.35,1.365-3.524,2.048
					c-0.459,0.267-0.919,0.534-1.378,0.801c-0.441,0.256-0.882,0.512-1.322,0.769l-0.823,0.478c0.001-0.34,0.121-0.58,0.316-0.693
					C38.093,42.292,40.912,40.654,43.026,39.425z" class="colorcdcdcd svgShape"/><path fill="#00c5b5" d="M36.752,43.597c0.597,0.345,1.081,1.182,1.079,1.868l-0.007,2.491
					c-0.002,0.69-0.489,0.967-1.086,0.622c-0.6-0.347-1.084-1.184-1.082-1.874l0.007-2.491
					C35.665,43.528,36.152,43.251,36.752,43.597z" class="colorc57800 svgShape"/><path fill="#00c5b5" d="M37.808,42.967c-0.295,0.171-0.59,0.343-0.885,0.514l5.787-3.363
					c-1.175,0.683-2.35,1.365-3.525,2.048C38.727,42.433,38.268,42.7,37.808,42.967z M35.978,43.521
					c1.871-1.087,4.294-2.496,6.292-3.657l-4.978-2.874l-7.048,4.096l5.417,3.128C35.664,43.874,35.784,43.634,35.978,43.521z" class="color007ec5 svgShape"/><polygon fill="#009b8e" points="47.519 74.762 54.567 70.666 68.655 78.799 61.607 82.895" class="color00249b svgShape"/><polygon fill="#cdcdcd" points="54.029 76.025 61.077 71.929 63.244 73.181 56.196 77.277" class="colorcdcdcd svgShape"/><polygon fill="#00c5b5" points="37.83 45.465 44.878 41.37 44.871 43.86 37.823 47.956" class="colorc57800 svgShape"/><path fill="#00c5b5" d="M35.978 43.521l7.048-4.096c.197-.115.471-.098.773.076l-7.048 4.096C36.449 43.423 36.176 43.406 35.978 43.521zM36.752 43.597l7.048-4.096c.597.345 1.081 1.182 1.079 1.868l-7.048 4.096C37.832 44.779 37.349 43.942 36.752 43.597z" class="colorc57800 svgShape"/><path fill="#cdcdcd" d="M57.834,66.313c-0.006,2.062,1.448,4.58,3.242,5.616l-7.048,4.096
					c-1.794-1.036-3.248-3.554-3.242-5.616c0.003-1.022,0.365-1.742,0.949-2.081l7.048-4.096
					C58.2,64.572,57.837,65.292,57.834,66.313z" class="colorcdcdcd svgShape"/><path fill="#009b8e" d="M53.27,70.968l7.048-4.096c-0.194,0.113-0.315,0.353-0.316,0.693
					c-0.002,0.686,0.482,1.527,1.082,1.874l-7.048,4.096c-0.6-0.346-1.084-1.188-1.082-1.874
					C52.955,71.32,53.075,71.081,53.27,70.968z" class="color00249b svgShape"/><polygon fill="#009b8e" points="54.036 73.535 61.084 69.439 63.251 70.69 56.203 74.786" class="color00249b svgShape"/><path fill="#5fc1b9" d="M53.27,70.968l7.048-4.096c0.197-0.115,0.471-0.099,0.773,0.076l-7.048,4.096
					C53.741,70.869,53.467,70.853,53.27,70.968z" class="color5f78c1 svgShape"/><path fill="#cdcdcd" d="M53.524,55.095c-0.002,0.686,0.482,1.524,1.082,1.87c-1.175,0.683-2.35,1.365-3.525,2.048
					c-0.9,0.523-1.8,1.046-2.7,1.569l-0.823,0.478c-0.6-0.347-1.084-1.184-1.082-1.87C48.825,57.825,51.174,56.46,53.524,55.095
					c-2.35,1.365-4.699,2.73-7.048,4.096c0.001-0.343,0.122-0.583,0.316-0.696l7.048-4.096
					C53.646,54.511,53.525,54.752,53.524,55.095z" class="colorcdcdcd svgShape"/><path fill="#009b8e" d="M61.603 84.139c-.002.69.482 1.527 1.082 1.874l-15.173-8.76c-.597-.345-1.084-1.188-1.082-1.874.002-.686.492-.962 1.089-.617l14.088 8.134L61.603 84.139zM64.02 70.764l-7.048 4.096c-.197.114-.469.099-.768-.074l7.048-4.096C63.551 70.863 63.823 70.879 64.02 70.764z" class="color00249b svgShape"/><path fill="#cdcdcd" d="M63.244,73.181c0.901,0.52,1.719,0.568,2.31,0.224l-7.048,4.096
					c-0.004,0.002-0.007,0.004-0.01,0.006c2.349-1.365,4.698-2.73,7.047-4.095c-2.349,1.365-4.698,2.73-7.048,4.096
					c-0.59,0.337-1.404,0.287-2.299-0.23C58.311,76.048,61.13,74.41,63.244,73.181z" class="colorcdcdcd svgShape"/><path fill="#00c5b5" d="M46.792,58.494l7.048-4.096c0.197-0.115,0.471-0.098,0.773,0.076l-7.048,4.096
					C47.263,58.396,46.99,58.379,46.792,58.494z" class="colorc57800 svgShape"/><path fill="#cdcdcd" d="M49.206,46.363c0.302,0.175,0.576,0.191,0.773,0.076l-7.048,4.096
					c-0.197,0.115-0.471,0.098-0.773-0.076C44.273,49.23,47.092,47.592,49.206,46.363z" class="colorcdcdcd svgShape"/><polygon fill="#5fc1b9" points="54.043 71.044 61.091 66.948 63.259 68.2 56.211 72.295" class="color5f78c1 svgShape"/><path fill="#009b8e" d="M51.736,68.328l7.048-4.096c0.592-0.344,1.411-0.296,2.315,0.225l-7.048,4.096
					C53.147,68.032,52.327,67.984,51.736,68.328z" class="color00249b svgShape"/><polygon fill="#00c5b5" points="37.83 45.465 44.878 41.37 49.214 43.873 42.166 47.968" class="color007ec5 svgShape"/><path fill="#5fc1b9" d="M64.337,70.068c-0.001,0.342-0.122,0.583-0.317,0.696l-7.048,4.096
					c0.195-0.114,0.316-0.355,0.317-0.696C59.638,72.799,61.987,71.433,64.337,70.068c-2.35,1.365-4.699,2.731-7.048,4.096
					c0.002-0.686-0.482-1.524-1.079-1.868l7.048-4.096C63.855,68.544,64.339,69.382,64.337,70.068z" class="color5f78c1 svgShape"/><path fill="#00c5b5" d="M49.98,46.439l-7.048,4.096c0.194-0.113,0.315-0.353,0.316-0.693
					c0.002-0.69-0.482-1.527-1.082-1.874l7.048-4.096c0.6,0.347,1.084,1.184,1.082,1.874C50.294,46.087,50.174,46.326,49.98,46.439z
					" class="color007ec5 svgShape"/><polygon fill="#009b8e" points="54.05 68.553 61.098 64.457 63.266 65.709 56.218 69.805" class="color00249b svgShape"/><path fill="#cdcdcd" d="M53.538,50.113c-0.002,0.686,0.482,1.524,1.082,1.87l-7.048,4.096
					c-0.6-0.347-1.084-1.184-1.082-1.87C48.839,52.844,51.188,51.479,53.538,50.113c-2.35,1.365-4.699,2.73-7.048,4.096
					c0.001-0.342,0.122-0.583,0.316-0.696l7.048-4.096C53.66,49.53,53.539,49.771,53.538,50.113z" class="colorcdcdcd svgShape"/><path fill="#00c5b5" d="M46.806,53.513l7.048-4.096c0.197-0.115,0.471-0.098,0.772,0.076l-7.048,4.096
					C47.277,53.414,47.004,53.398,46.806,53.513z" class="colorc57800 svgShape"/><path fill="#009b8e" d="M65.555,73.405l-7.048,4.096c0.584-0.34,0.947-1.061,0.95-2.086
					c0.006-2.058-1.448-4.577-3.239-5.61l7.048-4.096c1.791,1.034,3.245,3.553,3.239,5.611
					C66.502,72.344,66.139,73.065,65.555,73.405z" class="color00249b svgShape"/><path fill="#cdcdcd" d="M53.552,45.132c-0.002,0.686,0.482,1.524,1.082,1.87c-1.175,0.683-2.35,1.365-3.525,2.048
					c-0.346,0.201-0.691,0.402-1.037,0.602c-0.555,0.322-1.109,0.645-1.664,0.967l-0.823,0.478c-0.6-0.347-1.084-1.184-1.082-1.87
					C48.854,47.862,51.203,46.497,53.552,45.132c-2.35,1.365-4.699,2.73-7.048,4.096c0.001-0.343,0.122-0.583,0.316-0.697
					l7.048-4.096C53.674,44.548,53.553,44.789,53.552,45.132z" class="colorcdcdcd svgShape"/><path fill="#68c5bd" d="M45.373,66.038c0.597,0.345,1.081,1.182,1.079,1.868c-0.002,0.686-0.489,0.967-1.086,0.622
					l-2.168-1.251c-0.6-0.346-1.084-1.188-1.082-1.874c0.002-0.686,0.489-0.963,1.089-0.617L45.373,66.038z" class="colorc59e68 svgShape"/><path fill="#00c5b5" d="M45.38,63.547c1.791,1.034,3.245,3.553,3.239,5.611c-0.006,2.062-1.47,2.896-3.26,1.862
					l-2.168-1.252c-1.794-1.036-3.248-3.554-3.242-5.616c0.006-2.058,1.469-2.892,3.264-1.856L45.38,63.547z M45.366,68.529
					c0.597,0.345,1.084,0.064,1.086-0.622c0.002-0.686-0.482-1.524-1.079-1.868l-2.168-1.252c-0.6-0.346-1.087-0.069-1.089,0.617
					c-0.002,0.686,0.482,1.527,1.082,1.874L45.366,68.529L45.366,68.529z" class="colorc57800 svgShape"/><path fill="#cdcdcd" d="M65.444,63.222c0.3,0.173,0.573,0.189,0.77,0.075l-7.048,4.096
					c-0.197,0.114-0.469,0.098-0.77-0.075C60.51,66.089,63.329,64.451,65.444,63.222z" class="colorcdcdcd svgShape"/><path fill="#00c5b5" d="M66.214,63.297l-7.048,4.096c0.194-0.113,0.315-0.353,0.316-0.694
					c0.002-0.69-0.482-1.527-1.079-1.872l7.048-4.096c0.597,0.345,1.081,1.182,1.079,1.872
					C66.529,62.944,66.408,63.184,66.214,63.297z" class="colorc57800 svgShape"/><path fill="#00c5b5" d="M58.403,64.827c0.597,0.345,1.081,1.182,1.079,1.872c-0.002,0.686-0.489,0.963-1.086,0.619
					l-10.838-6.257c-0.6-0.347-1.084-1.184-1.082-1.87c0.002-0.69,0.489-0.967,1.089-0.621L58.403,64.827z" class="colorc57800 svgShape"/><path fill="#cdcdcd" d="M58.403,64.827l4.895-2.844l-8.692-5.018l-7.048,4.096l10.838,6.257l1.085-0.631
					C59.478,66,58.996,65.17,58.403,64.827z" class="colorcdcdcd svgShape"/><path fill="#00c5b5" d="M46.821,48.531l7.048-4.096c0.197-0.115,0.471-0.098,0.773,0.076l-7.048,4.096
					C47.291,48.433,47.018,48.416,46.821,48.531z" class="colorc57800 svgShape"/><polygon fill="#00c5b5" points="47.565 58.57 54.613 54.474 65.451 60.732 58.403 64.827" class="colorc57800 svgShape"/><path fill="#cdcdcd" d="M66.228,58.316l-7.048,4.096c-0.197,0.114-0.469,0.099-0.77-0.075l7.048-4.096
					C65.758,58.414,66.031,58.43,66.228,58.316z" class="colorcdcdcd svgShape"/><path fill="#00c5b5" d="M66.228,58.316l-7.048,4.096c0.194-0.113,0.315-0.353,0.316-0.694
					c0.002-0.69-0.482-1.527-1.079-1.872l7.048-4.096c0.597,0.345,1.081,1.182,1.079,1.872
					C66.543,57.963,66.422,58.203,66.228,58.316z" class="colorc57800 svgShape"/><path fill="#00c5b5" d="M58.417,59.846c0.597,0.345,1.081,1.182,1.079,1.872c-0.002,0.686-0.489,0.963-1.086,0.619
					l-10.838-6.257c-0.6-0.347-1.084-1.184-1.082-1.87c0.002-0.69,0.489-0.967,1.089-0.621L58.417,59.846z" class="colorc57800 svgShape"/><path fill="#cdcdcd" d="M58.417,59.846l4.894-2.844l-8.692-5.018l-7.048,4.096l10.838,6.257l1.085-0.631
					C59.492,61.019,59.011,60.189,58.417,59.846z" class="colorcdcdcd svgShape"/><polygon fill="#00c5b5" points="47.579 53.589 54.627 49.493 65.465 55.75 58.417 59.846" class="colorc57800 svgShape"/><path fill="#cdcdcd" d="M65.472,53.259c0.3,0.173,0.573,0.189,0.77,0.075l-7.048,4.096
					c-0.197,0.114-0.469,0.098-0.77-0.075C60.539,56.126,63.358,54.488,65.472,53.259z" class="colorcdcdcd svgShape"/><path fill="#00c5b5" d="M66.242,53.334l-7.048,4.096c0.194-0.113,0.315-0.353,0.316-0.694
					c0.002-0.69-0.482-1.527-1.079-1.872l7.048-4.096c0.597,0.345,1.081,1.182,1.079,1.872
					C66.557,52.981,66.436,53.221,66.242,53.334z" class="colorc57800 svgShape"/><path fill="#00c5b5" d="M58.431,54.864c0.597,0.345,1.081,1.182,1.079,1.872c-0.002,0.686-0.489,0.963-1.086,0.619
					l-10.838-6.257c-0.6-0.347-1.084-1.184-1.082-1.87c0.002-0.69,0.489-0.967,1.089-0.62L58.431,54.864z" class="colorc57800 svgShape"/><path fill="#cdcdcd" d="M58.431,54.864l4.894-2.844l-8.691-5.018l-7.048,4.096l10.838,6.257l1.085-0.631
					C59.506,56.037,59.025,55.207,58.431,54.864z" class="colorcdcdcd svgShape"/><polygon fill="#00c5b5" points="47.593 48.607 54.641 44.511 65.479 50.769 58.431 54.864" class="colorc57800 svgShape"/><path fill="#00c5b5" d="M29.135,49.179c0.002-0.69,0.489-0.967,1.089-0.621l1.082,0.625l-0.007,2.491l-1.082-0.625
					C29.617,50.703,29.133,49.865,29.135,49.179z" class="color007ec5 svgShape"/><path fill="#009b8e" d="M62.011,51.066l7.048-4.096c-0.194,0.113-0.315,0.353-0.316,0.693l-7.048,4.096
					C61.696,51.419,61.816,51.179,62.011,51.066z" class="color00249b svgShape"/><polygon fill="#cdcdcd" points="27.01 32.983 34.058 28.887 68.74 48.911 61.692 53.007" class="colorcdcdcd svgShape"/><polygon fill="#009b8e" points="61.695 51.759 68.743 47.663 68.74 48.911 61.692 53.007" class="color00249b svgShape"/><path fill="#41e1d4" d="M34.528,62.271c0.168,0.097,0.327,0.144,0.469,0.147c0.017,0,0.034,0,0.051-0.001
					c0.027-0.001,0.053-0.005,0.078-0.01c0.005-0.001,0.01-0.002,0.015-0.003c0.034-0.007,0.067-0.018,0.098-0.031
					c0.058-0.025,0.111-0.059,0.157-0.104c0.031-0.03,0.06-0.064,0.085-0.103c0.017-0.026,0.032-0.053,0.046-0.083
					c0.028-0.059,0.049-0.125,0.064-0.197c0.007-0.036,0.013-0.074,0.017-0.114c0.004-0.04,0.006-0.081,0.006-0.124
					c0-0.086-0.007-0.174-0.021-0.263c-0.014-0.089-0.035-0.179-0.063-0.27c-0.014-0.045-0.029-0.09-0.045-0.135
					c-0.182-0.493-0.539-0.964-0.95-1.201l-2.167-1.251c-0.056-0.033-0.112-0.06-0.166-0.081c-0.018-0.007-0.036-0.014-0.054-0.02
					c-0.088-0.03-0.173-0.046-0.252-0.048c-0.127-0.003-0.24,0.029-0.334,0.093c-0.023,0.016-0.046,0.034-0.066,0.054
					c-0.073,0.07-0.13,0.163-0.168,0.278c-0.016,0.049-0.028,0.102-0.037,0.159c-0.006,0.038-0.01,0.078-0.012,0.119
					c-0.001,0.021-0.001,0.042-0.002,0.063c-0.001,0.257,0.067,0.536,0.183,0.803c0.039,0.089,0.083,0.176,0.132,0.261
					c0.049,0.085,0.103,0.167,0.16,0.245c0.086,0.117,0.182,0.226,0.284,0.321c0.034,0.032,0.069,0.062,0.104,0.091
					c0.071,0.057,0.144,0.109,0.219,0.152L34.528,62.271z" class="color5cb5c7 svgShape"/><path fill="#009b8e" d="M43.184 72.259c.594.343 1.081 1.182 1.079 1.868-.002.686-.492.965-1.086.622-.597-.345-1.084-1.188-1.082-1.874C42.097 72.19 42.587 71.914 43.184 72.259zM22.987 31.03l7.048-4.096c-.194.113-.315.353-.316.694l-7.048 4.096C22.672 31.383 22.793 31.143 22.987 31.03z" class="color00249b svgShape"/><path fill="#5fc1b9" d="M22.987,31.03l7.048-4.096c0.197-0.114,0.469-0.099,0.77,0.075l-7.048,4.096
					C23.457,30.932,23.184,30.916,22.987,31.03z" class="color5f78c1 svgShape"/><path fill="#5fc1b9" d="M24.843,31.732L24.758,61.62l-1.085-0.627c-0.597-0.345-1.081-1.186-1.079-1.872l0.078-27.398
					c0.002-0.686,0.489-0.963,1.086-0.619L24.843,31.732z" class="color5f78c1 svgShape"/><polygon fill="#5fc1b9" points="23.757 31.105 30.805 27.009 31.89 27.636 24.843 31.732" class="color5f78c1 svgShape"/><path fill="#009b8e" d="M21.453,28.39l7.048-4.096c0.591-0.344,1.41-0.296,2.311,0.224l-7.048,4.096
					C22.863,28.094,22.045,28.047,21.453,28.39z" class="color00249b svgShape"/><polygon fill="#009b8e" points="27.014 31.736 34.062 27.64 34.058 28.887 27.01 32.983" class="color00249b svgShape"/><polygon fill="#009b8e" points="23.764 28.614 30.812 24.518 32.98 25.77 25.932 29.866" class="color00249b svgShape"/><path fill="#009b8e" d="M25.932 29.866c.6.347 1.084 1.184 1.082 1.87l-.004 1.247-.085 29.889-.003 1.244c-.002.69-.489.967-1.089.62l-2.168-1.251c-1.791-1.034-3.245-3.553-3.239-5.614l.078-27.398c.006-2.058 1.469-2.892 3.26-1.858L25.932 29.866zM24.758 61.62l.085-29.889-1.085-.627c-.597-.345-1.084-.067-1.086.619l-.078 27.398c-.002.686.482 1.527 1.079 1.872L24.758 61.62 24.758 61.62zM62.011 51.066l7.048-4.096c.197-.115.471-.098.773.076l-7.048 4.096C62.482 50.968 62.208 50.952 62.011 51.066z" class="color00249b svgShape"/><polygon fill="#009b8e" points="25.932 29.866 32.98 25.77 69.832 47.047 62.784 51.142" class="color00249b svgShape"/><path fill="#009b8e" d="M25.932,29.866l7.048-4.096c0.6,0.347,1.084,1.184,1.082,1.87l-7.048,4.096
					C27.015,31.05,26.532,30.212,25.932,29.866z" class="color00249b svgShape"/><path fill="#00c5b5" d="M29.156,41.707c0.002-0.69,0.489-0.967,1.089-0.621l5.417,3.128l-0.007,2.491l-5.417-3.128
					C29.638,43.23,29.154,42.393,29.156,41.707z" class="color007ec5 svgShape"/><polygon fill="#009b8e" points="61.607 82.895 68.655 78.799 68.651 80.043 61.603 84.139" class="color00249b svgShape"/><polygon fill="#cdcdcd" points="61.692 53.007 68.74 48.911 68.655 78.799 61.607 82.895" class="colorcdcdcd svgShape"/><polygon fill="#009b8e" points="63.859 54.258 70.907 50.162 70.822 80.051 63.774 84.147" class="color00249b svgShape"/><path fill="#009b8e" d="M61.603,84.139l7.048-4.096c-0.002,0.69,0.482,1.527,1.082,1.874l-7.048,4.096
					C62.085,85.666,61.601,84.828,61.603,84.139z" class="color00249b svgShape"/><path fill="#5fc1b9" d="M56.211,72.295c0.597,0.345,1.081,1.182,1.079,1.868c-0.002,0.686-0.489,0.967-1.086,0.622
					l-2.168-1.251c-0.6-0.346-1.084-1.188-1.082-1.874c0.002-0.686,0.489-0.963,1.089-0.617L56.211,72.295z" class="color5f78c1 svgShape"/><path fill="#00c5b5" d="M42.166,47.968c0.6,0.347,1.084,1.184,1.082,1.874c-0.002,0.686-0.489,0.963-1.089,0.617
					l-4.335-2.503l0.007-2.491L42.166,47.968z" class="color007ec5 svgShape"/><path fill="#009b8e" d="M56.218,69.805c1.791,1.034,3.245,3.553,3.239,5.61c-0.006,2.062-1.469,2.896-3.26,1.862
					l-2.168-1.252c-1.794-1.036-3.248-3.554-3.242-5.616c0.006-2.058,1.47-2.892,3.264-1.856L56.218,69.805z M56.203,74.786
					c0.597,0.345,1.084,0.064,1.086-0.622c0.002-0.686-0.482-1.524-1.079-1.868l-2.168-1.252c-0.6-0.346-1.087-0.069-1.089,0.617
					c-0.002,0.686,0.482,1.527,1.082,1.874L56.203,74.786L56.203,74.786z" class="color00249b svgShape"/><polygon fill="#009b8e" points="63.774 84.147 70.822 80.051 76.243 83.18 69.195 87.276" class="color00249b svgShape"/><path fill="#5fc1b9" d="M74.107,70.719c0.3,0.174,0.573,0.189,0.77,0.075l-7.048,4.096
					c-0.197,0.114-0.469,0.098-0.77-0.075C69.408,73.45,71.757,72.084,74.107,70.719c-2.35,1.366-4.699,2.731-7.048,4.096
					c-0.6-0.346-1.084-1.184-1.082-1.87l7.048-4.096C73.023,69.535,73.507,70.372,74.107,70.719z" class="color5f78c1 svgShape"/><path fill="#009b8e" d="M74.877,70.794l-7.048,4.096c0.194-0.113,0.315-0.353,0.316-0.694l7.048-4.096
					C75.192,70.441,75.071,70.681,74.877,70.794z" class="color00249b svgShape"/><polygon fill="#5fc1b9" points="65.991 67.963 73.039 63.867 73.025 68.849 65.977 72.945" class="color5f78c1 svgShape"/><path fill="#5fc1b9" d="M73.356,63.171c-0.195,0.113-0.315,0.354-0.316,0.697c-1.175,0.683-2.35,1.365-3.524,2.048
					c-0.572,0.333-1.144,0.665-1.716,0.997c-0.199,0.116-0.464,0.269-0.662,0.385c-0.097,0.056-0.226,0.131-0.322,0.187
					l-0.823,0.478c0.001-0.343,0.122-0.583,0.316-0.697C68.422,66.038,71.241,64.399,73.356,63.171z" class="color5f78c1 svgShape"/><polygon fill="#009b8e" points="68.159 69.215 75.207 65.119 75.193 70.1 68.145 74.196" class="color00249b svgShape"/><path fill="#009b8e" d="M66.308,67.266l7.048-4.096c0.197-0.115,0.471-0.098,0.773,0.076l-7.048,4.096
					C66.778,67.168,66.505,67.152,66.308,67.266z" class="color00249b svgShape"/><path fill="#009b8e" d="M67.08,67.342l7.048-4.096c0.597,0.345,1.081,1.182,1.079,1.872l-7.048,4.096
					C68.161,68.525,67.677,67.687,67.08,67.342z" class="color00249b svgShape"/><polygon fill="#5fc1b9" points="70.358 59.256 77.406 55.16 77.329 82.558 70.281 86.654" class="color5f78c1 svgShape"/><path fill="#009b8e" d="M77.011,83.254l-7.048,4.096c-0.197,0.114-0.469,0.099-0.768-0.074l7.048-4.096
					C76.543,83.353,76.814,83.369,77.011,83.254z" class="color00249b svgShape"/><path fill="#5fc1b9" d="M77.011,83.254l-7.048,4.096c0.195-0.113,0.316-0.355,0.317-0.696l7.048-4.096
					C77.328,82.9,77.206,83.141,77.011,83.254z" class="color5f78c1 svgShape"/><path fill="#009b8e" d="M78.546 85.895l-7.048 4.096c.584-.34.947-1.061.95-2.086l7.048-4.096C79.493 84.834 79.13 85.555 78.546 85.895zM67.08 67.342c.597.345 1.081 1.182 1.079 1.872l-.014 4.981c-.002.686-.489.963-1.086.619-.6-.346-1.084-1.184-1.082-1.87l.014-4.982C65.993 67.273 66.48 66.996 67.08 67.342zM27.014 31.736c.002-.686-.482-1.524-1.082-1.87l36.852 21.277c-.6-.347-1.087-.069-1.089.617l-.003 1.247L27.01 32.983 27.014 31.736z" class="color00249b svgShape"/><polygon fill="#5fc1b9" points="63.859 54.258 70.907 50.162 76.328 53.292 69.28 57.388" class="color5f78c1 svgShape"/><path fill="#5fc1b9" d="M69.28,57.388l7.048-4.096c0.597,0.345,1.081,1.182,1.079,1.868l-7.048,4.096
					C70.36,58.57,69.877,57.732,69.28,57.388z" class="color5f78c1 svgShape"/><path fill="#5fc1b9" d="M69.28,57.388c0.597,0.345,1.081,1.182,1.079,1.868l-0.078,27.398
					c-0.002,0.686-0.489,0.967-1.086,0.622l-5.421-3.13l0.085-29.889L69.28,57.388z M68.145,74.196l0.014-4.981
					c0.002-0.69-0.482-1.527-1.079-1.872c-0.6-0.346-1.087-0.069-1.089,0.62l-0.014,4.982c-0.002,0.686,0.482,1.524,1.082,1.87
					C67.656,75.159,68.143,74.882,68.145,74.196L68.145,74.196z" class="color5f78c1 svgShape"/><polygon fill="#009b8e" points="72.526 60.507 79.574 56.411 79.496 83.81 72.448 87.905" class="color00249b svgShape"/><polygon fill="#009b8e" points="62.784 51.142 69.832 47.047 76.335 50.801 69.287 54.897" class="color00249b svgShape"/><path fill="#009b8e" d="M69.287,54.897c1.791,1.034,3.245,3.553,3.239,5.611l-0.078,27.398
					c-0.006,2.062-1.47,2.896-3.26,1.862l-6.503-3.754c-0.6-0.347-1.084-1.184-1.082-1.874l0.092-32.379
					c0.002-0.686,0.489-0.963,1.089-0.617L69.287,54.897z M70.281,86.654l0.078-27.398c0.002-0.686-0.482-1.524-1.079-1.868
					l-5.421-3.13l-0.085,29.889l5.421,3.13C69.792,87.621,70.279,87.34,70.281,86.654L70.281,86.654z" class="color00249b svgShape"/><path fill="#009b8e" d="M69.287,54.897l7.048-4.096c1.791,1.034,3.245,3.553,3.239,5.611l-7.048,4.096
					C72.532,58.449,71.078,55.931,69.287,54.897z" class="color00249b svgShape"/><g class="color000000 svgShape"><path fill="#00c9b9" d="M26.977,25.542l7.048-4.096c1.435-0.821,3.343-0.623,5.37,0.547l-7.048,4.096
					C30.32,24.919,28.412,24.721,26.977,25.542z" class="color0082c9 svgShape"/><path fill="#00c9b9" d="M32.347,26.089c2.03,1.172,3.934,3.175,5.359,5.648c0.423,0.729,0.421,1.518-0.005,1.761
					c-0.211,0.121-0.489,0.081-0.767-0.079c-0.278-0.16-0.555-0.442-0.765-0.806c-1.018-1.764-2.376-3.194-3.829-4.033
					c-1.449-0.837-2.811-0.976-3.836-0.392c-0.211,0.12-0.489,0.082-0.766-0.079c-0.277-0.16-0.555-0.441-0.766-0.806
					c-0.423-0.733-0.421-1.522,0.005-1.761C28.412,24.721,30.32,24.919,32.347,26.089z" class="color0082c9 svgShape"/><path fill="#00c9b9" d="M32.347,26.089l7.048-4.096c2.03,1.172,3.934,3.175,5.359,5.648
					c0.423,0.729,0.421,1.518-0.005,1.761l-7.048,4.096c0.426-0.243,0.428-1.031,0.005-1.761
					C36.281,29.264,34.377,27.261,32.347,26.089z" class="color0082c9 svgShape"/><path fill="#00c9b9" d="M23.922,20.247l7.048-4.096c2.331-1.328,5.387-0.901,8.439,0.861
					c3.053,1.763,6.103,4.861,8.42,8.872l-7.048,4.096c-2.317-4.011-5.366-7.109-8.42-8.872
					C29.309,19.347,26.253,18.919,23.922,20.247z" class="color0082c9 svgShape"/><path fill="#00c9b9" d="M20.864 14.955l7.048-4.096c3.081-1.756 7.169-1.339 11.511 1.168l-7.048 4.096C28.034 13.616 23.945 13.199 20.864 14.955zM40.781 29.981l7.048-4.096c.423.733.421 1.522-.005 1.761l-7.048 4.096C41.202 31.503 41.204 30.714 40.781 29.981z" class="color0082c9 svgShape"/><path fill="#00c9b9" d="M40.781,29.981c0.423,0.733,0.421,1.522-0.005,1.761c-0.211,0.122-0.489,0.084-0.766-0.076
					c-0.277-0.16-0.555-0.442-0.766-0.809c-1.895-3.282-4.39-5.816-6.888-7.259s-4.999-1.792-6.906-0.705
					c-0.215,0.122-0.493,0.083-0.767-0.076c-0.278-0.16-0.555-0.442-0.765-0.809c-0.423-0.729-0.421-1.518,0.005-1.761
					c2.331-1.328,5.387-0.901,8.439,0.861C35.415,22.872,38.464,25.969,40.781,29.981z" class="color0082c9 svgShape"/><path fill="#00c9b9" d="M32.375,16.122c4.345,2.509,8.419,6.805,11.48,12.106c0.423,0.733,0.421,1.522-0.005,1.761
					c-0.211,0.124-0.489,0.085-0.767-0.076c-0.278-0.16-0.552-0.44-0.765-0.809c-2.651-4.591-6.186-8.319-9.95-10.492
					c-3.761-2.171-7.306-2.531-9.974-1.011c-0.213,0.121-0.491,0.083-0.769-0.077c-0.278-0.16-0.555-0.443-0.767-0.809
					c-0.42-0.727-0.418-1.516,0.005-1.761C23.945,13.199,28.034,13.616,32.375,16.122z" class="color0082c9 svgShape"/><path fill="#00c9b9" d="M32.375,16.122l7.048-4.096c4.345,2.509,8.419,6.804,11.48,12.106
					c0.423,0.733,0.421,1.522-0.005,1.761l-7.048,4.096c0.426-0.239,0.428-1.028,0.005-1.761
					C40.794,22.927,36.72,18.631,32.375,16.122z" class="color0082c9 svgShape"/></g><g class="color000000 svgShape"><path fill="#00a194" d="M55.435,35.871l-7.048,4.096c0.195-0.113,0.316-0.354,0.317-0.697l7.048-4.096
					C55.751,35.516,55.63,35.757,55.435,35.871z" class="color0024a1 svgShape"/><path fill="#65c7bf" d="M57.926,33.934c-0.002,0.686,0.485,1.529,1.082,1.874l-7.048,4.096
					c-0.597-0.345-1.084-1.188-1.082-1.874C53.228,36.665,55.577,35.299,57.926,33.934z" class="color657ec7 svgShape"/><polygon fill="#00a194" points="48.718 34.288 55.766 30.192 55.752 35.173 48.704 39.269" class="color0024a1 svgShape"/><path fill="#65c7bf" d="M58.242 33.242c-.194.113-.315.352-.316.692-2.349 1.365-4.699 2.731-7.048 4.096.001-.34.122-.579.316-.692C53.309 36.109 56.128 34.471 58.242 33.242zM59.008 35.808c.298.172.571.188.768.073l-7.048 4.096c-.197.115-.469.099-.768-.073C54.075 38.675 56.894 37.037 59.008 35.808z" class="color657ec7 svgShape"/><path fill="#00a194" d="M49.033 33.595l7.048-4.096c-.194.113-.315.353-.316.693l-7.048 4.096C48.719 33.947 48.839 33.708 49.033 33.595zM51.194 37.338l7.048-4.096c.198-.115.472-.099.773.075l-7.048 4.096C51.666 37.239 51.392 37.223 51.194 37.338z" class="color0024a1 svgShape"/><path fill="#65c7bf" d="M56.081,29.499c0.197-0.115,0.471-0.099,0.773,0.076l-7.048,4.096
					c-0.303-0.175-0.576-0.191-0.774-0.076C51.148,32.366,53.967,30.728,56.081,29.499z" class="color657ec7 svgShape"/><path fill="#00a194" d="M59.776,35.881l-7.048,4.096c0.195-0.114,0.317-0.354,0.318-0.695
					c0.002-0.686-0.485-1.526-1.079-1.868l7.048-4.096c0.594,0.343,1.081,1.182,1.079,1.868
					C60.093,35.527,59.971,35.767,59.776,35.881z" class="color0024a1 svgShape"/><path fill="#65c7bf" d="M62.261,36.437c-0.002,0.686,0.485,1.529,1.082,1.874l-7.048,4.096
					c-0.597-0.345-1.084-1.188-1.082-1.874C57.563,39.167,59.912,37.802,62.261,36.437z" class="color657ec7 svgShape"/><path fill="#65c7bf" d="M62.577 35.745c-.194.113-.315.352-.316.692-2.349 1.365-4.699 2.73-7.048 4.096.001-.34.122-.579.316-.692C57.644 38.612 60.463 36.974 62.577 35.745zM63.343 38.311c.298.172.571.188.768.073l-7.048 4.096c-.197.115-.469.099-.768-.073C58.41 41.178 61.229 39.54 63.343 38.311z" class="color657ec7 svgShape"/><path fill="#00a194" d="M55.529 39.841l7.048-4.096c.198-.115.472-.099.773.075l-7.048 4.096C56.001 39.742 55.727 39.726 55.529 39.841zM64.111 38.384l-7.048 4.096c.195-.113.317-.354.318-.695.002-.686-.485-1.526-1.079-1.868l7.048-4.096c.594.343 1.081 1.182 1.079 1.868C64.428 38.03 64.306 38.27 64.111 38.384z" class="color0024a1 svgShape"/><path fill="#00a194" d="M56.302,39.916c0.594,0.343,1.081,1.182,1.079,1.868c-0.002,0.686-0.492,0.965-1.086,0.622
					c-0.597-0.345-1.084-1.188-1.082-1.874C55.215,39.847,55.705,39.571,56.302,39.916z" class="color0024a1 svgShape"/><path fill="#65c7bf" d="M66.597,38.94c-0.002,0.686,0.485,1.529,1.082,1.874l-7.048,4.096
					c-0.597-0.345-1.084-1.188-1.082-1.874C61.898,41.67,64.247,40.305,66.597,38.94z" class="color657ec7 svgShape"/><path fill="#65c7bf" d="M66.913 38.248c-.194.113-.315.352-.316.692-2.349 1.365-4.699 2.73-7.048 4.096.001-.34.122-.579.316-.692C61.979 41.115 64.798 39.477 66.913 38.248zM67.678 40.814c.298.172.571.187.768.073l-7.048 4.096c-.197.115-.469.099-.768-.073C62.745 43.681 65.564 42.042 67.678 40.814z" class="color657ec7 svgShape"/><path fill="#00a194" d="M59.865 42.344l7.048-4.096c.198-.115.472-.099.773.075l-7.048 4.096C60.336 42.245 60.062 42.229 59.865 42.344zM68.446 40.887l-7.048 4.096c.195-.113.317-.354.318-.695.002-.686-.485-1.526-1.079-1.868l7.048-4.096c.594.343 1.081 1.182 1.079 1.868C68.763 40.533 68.642 40.773 68.446 40.887z" class="color0024a1 svgShape"/><polygon fill="#65c7bf" points="63.891 43.048 70.939 38.952 70.925 43.933 63.877 48.029" class="color657ec7 svgShape"/><polygon fill="#65c7bf" points="49.807 33.671 56.855 29.575 69.86 37.084 62.812 41.18" class="color657ec7 svgShape"/><path fill="#65c7bf" d="M62.812,41.18l7.048-4.096c0.597,0.345,1.081,1.182,1.079,1.868l-7.048,4.096
					C63.893,42.362,63.409,41.524,62.812,41.18z" class="color657ec7 svgShape"/><path fill="#00a194" d="M62.819,38.689c1.791,1.034,3.245,3.549,3.239,5.611l-0.014,4.981
					c-0.002,0.69-0.489,0.967-1.086,0.622c-0.6-0.347-1.084-1.184-1.082-1.874l0.014-4.982c0.002-0.686-0.482-1.524-1.079-1.868
					l-13.005-7.509c-0.6-0.347-1.087-0.069-1.089,0.617l-0.014,4.981c-0.002,0.69-0.489,0.967-1.086,0.622
					c-0.6-0.347-1.084-1.184-1.082-1.874l0.014-4.982c0.006-2.061,1.469-2.892,3.264-1.856l1.082,0.625l2.168,1.251l6.503,3.754
					l2.168,1.251L62.819,38.689z" class="color0024a1 svgShape"/><path fill="#65c7bf" d="M62.812,41.18c0.597,0.345,1.081,1.182,1.079,1.868l-0.014,4.982l-15.173-8.76l0.014-4.981
					c0.002-0.686,0.489-0.963,1.089-0.617L62.812,41.18z M60.631,44.91c0.594,0.343,1.084,0.063,1.086-0.622
					c0.002-0.686-0.485-1.526-1.079-1.868c-0.597-0.345-1.087-0.069-1.089,0.617C59.547,43.722,60.034,44.565,60.631,44.91
					L60.631,44.91z M51.96,39.904c0.594,0.343,1.084,0.064,1.086-0.622c0.002-0.686-0.485-1.526-1.079-1.868
					c-0.597-0.345-1.087-0.069-1.089,0.617C50.876,38.716,51.363,39.559,51.96,39.904L51.96,39.904z M56.295,42.407
					c0.594,0.343,1.084,0.063,1.086-0.622c0.002-0.686-0.485-1.526-1.079-1.868c-0.597-0.345-1.087-0.069-1.089,0.617
					C55.211,41.219,55.698,42.062,56.295,42.407L56.295,42.407z" class="color657ec7 svgShape"/><path fill="#00a194" d="M51.967 37.413c.594.343 1.081 1.182 1.079 1.868-.002.686-.492.965-1.086.622-.597-.345-1.084-1.188-1.082-1.874C50.88 37.344 51.37 37.068 51.967 37.413zM47.498 30.954l7.048-4.096c.592-.344 1.412-.296 2.315.226l-7.048 4.096C48.91 30.658 48.09 30.61 47.498 30.954z" class="color0024a1 svgShape"/><polygon fill="#00a194" points="49.814 31.18 56.862 27.084 57.944 27.709 50.896 31.805" class="color0024a1 svgShape"/><polygon fill="#00a194" points="50.896 31.805 57.944 27.709 60.111 28.96 53.063 33.056" class="color0024a1 svgShape"/><path fill="#00a194" d="M60.638 42.419c.594.343 1.081 1.182 1.079 1.868-.002.686-.492.965-1.086.622-.597-.345-1.084-1.188-1.082-1.874C59.551 42.35 60.041 42.074 60.638 42.419zM72.776 45.882l-7.048 4.096c.195-.113.316-.354.317-.697l7.048-4.096C73.091 45.528 72.97 45.769 72.776 45.882z" class="color0024a1 svgShape"/><polygon fill="#00a194" points="53.063 33.056 60.111 28.96 66.614 32.715 59.566 36.811" class="color0024a1 svgShape"/><polygon fill="#00a194" points="59.566 36.811 66.614 32.715 68.782 33.966 61.734 38.062" class="color0024a1 svgShape"/><polygon fill="#00a194" points="66.059 44.299 73.106 40.203 73.092 45.185 66.044 49.281" class="color0024a1 svgShape"/><polygon fill="#00a194" points="61.734 38.062 68.782 33.966 69.867 34.593 62.819 38.689" class="color0024a1 svgShape"/><path fill="#00a194" d="M62.819,38.689l7.048-4.096c1.791,1.034,3.245,3.549,3.239,5.611l-7.048,4.096
					C66.064,42.238,64.61,39.723,62.819,38.689z" class="color0024a1 svgShape"/></g><g class="color000000 svgShape"><polygon fill="#00cbba" points="53.081 26.828 60.129 22.732 60.111 28.96 53.063 33.056" class="color0083cb svgShape"/><path fill="#00cbba" d="M51.547,24.188l7.048-4.096c0.202-0.117,0.443-0.166,0.71-0.14
					c0.256,0.025,0.537,0.119,0.831,0.289l-7.048,4.096c-0.294-0.17-0.575-0.264-0.831-0.289
					C51.989,24.022,51.749,24.071,51.547,24.188z" class="color0083cb svgShape"/><polygon fill="#00cbba" points="53.088 24.337 60.136 20.241 61.8 21.202 54.752 25.298" class="color0083cb svgShape"/><path fill="#00c5b5" d="M51.242,19.901l7.048-4.096c0.051-0.03,0.108-0.051,0.171-0.063
					c0.186-0.035,0.396,0.017,0.602,0.136l-7.048,4.096c-0.207-0.119-0.416-0.172-0.602-0.136
					C51.35,19.85,51.293,19.872,51.242,19.901z" class="colorc57800 svgShape"/><polygon fill="#00c5b5" points="52.915 21.052 59.963 16.956 61.8 21.202 54.752 25.298" class="colorc57800 svgShape"/><path fill="#00c5b5" d="M52.015,19.975l7.048-4.096c0.35,0.202,0.692,0.596,0.9,1.077l-7.048,4.096
					C52.708,20.571,52.365,20.177,52.015,19.975z" class="colorc57800 svgShape"/><path fill="#00c5b5" d="M52.015,19.975c0.35,0.202,0.692,0.596,0.9,1.077l1.837,4.246l-1.664-0.961
					c-0.294-0.17-0.575-0.264-0.831-0.289l-1.149-2.659c-0.33-0.764-0.194-1.457,0.305-1.551
					C51.599,19.803,51.808,19.856,52.015,19.975z" class="colorc57800 svgShape"/><polygon fill="#cdcdcd" points="53.081 26.828 60.129 22.732 66.632 26.486 59.584 30.582" class="colorcdcdcd svgShape"/><polygon fill="#cdcdcd" points="59.584 30.582 59.566 36.811 53.063 33.056 53.081 26.828" class="colorcdcdcd svgShape"/><polygon fill="#cdcdcd" points="59.584 30.582 66.632 26.486 66.614 32.715 59.566 36.811" class="colorcdcdcd svgShape"/><polygon fill="#00cbba" points="54.752 25.298 61.8 21.202 64.975 23.035 57.927 27.131" class="color0083cb svgShape"/><polygon fill="#00cbba" points="61.752 31.833 68.799 27.738 68.782 33.966 61.734 38.062" class="color0083cb svgShape"/><polygon fill="#00cbba" points="57.927 27.131 64.975 23.035 66.639 23.995 59.591 28.091" class="color0083cb svgShape"/><polygon fill="#00c5b5" points="61.582 27.437 68.63 23.341 67.469 24.666 60.421 28.761" class="colorc57800 svgShape"/><path fill="#00cbba" d="M59.591,28.091l7.048-4.096c0.294,0.17,0.574,0.4,0.83,0.67c0.783,0.828,1.333,2.038,1.33,3.072
					l-7.048,4.096c0.003-1.034-0.548-2.244-1.33-3.072C60.165,28.491,59.885,28.261,59.591,28.091z" class="color0083cb svgShape"/><path fill="#00cbba" d="M59.591,28.091c0.294,0.17,0.574,0.4,0.83,0.67c0.783,0.828,1.333,2.038,1.33,3.072l-0.018,6.229
					l-2.168-1.251l0.018-6.229l-6.503-3.754l-0.018,6.229l-2.168-1.251l0.018-6.229c0.003-1.034,0.559-1.605,1.343-1.528
					c0.256,0.025,0.537,0.119,0.831,0.289l1.664,0.961l3.174,1.833L59.591,28.091z" class="color0083cb svgShape"/><path fill="#00c5b5" d="M59.916,24.905l7.048-4.096c0.207-0.12,0.486-0.088,0.77,0.076l-7.048,4.096
					C60.402,24.817,60.123,24.785,59.916,24.905z" class="colorc57800 svgShape"/><path fill="#00c5b5" d="M60.685,24.981l7.048-4.096c0.207,0.119,0.416,0.308,0.601,0.559
					c0.497,0.669,0.629,1.517,0.295,1.897l-7.048,4.096c0.334-0.381,0.202-1.228-0.295-1.897
					C61.101,25.289,60.892,25.1,60.685,24.981z" class="colorc57800 svgShape"/><path fill="#00c5b5" d="M60.685,24.981c0.207,0.119,0.416,0.308,0.601,0.559c0.497,0.669,0.629,1.517,0.295,1.897
					l-1.161,1.325c-0.256-0.271-0.536-0.5-0.83-0.67l-1.664-0.961l1.855-2.115C59.992,24.777,60.335,24.778,60.685,24.981z" class="colorc57800 svgShape"/></g><g class="color000000 svgShape"><path fill="#00cdbc" d="M43.207,72.211c0.594,0.343,1.081,1.182,1.079,1.868c-0.002,0.686-0.492,0.965-1.086,0.622
				c-0.597-0.345-1.084-1.188-1.082-1.874C42.12,72.142,42.61,71.866,43.207,72.211z" class="color0056cd svgShape"/><path fill="#9af7ef" d="M45.396,65.99c0.597,0.345,1.081,1.182,1.079,1.868c-0.002,0.686-0.489,0.967-1.086,0.622
				l-2.168-1.251c-0.6-0.346-1.084-1.188-1.082-1.874s0.489-0.963,1.089-0.617L45.396,65.99z" class="colorf7d09a svgShape"/><path fill="#91f3eb" d="M24.865,31.684l-0.085,29.889l-1.082-0.625c-0.6-0.347-1.084-1.188-1.082-1.874l0.078-27.398
				c0.002-0.686,0.489-0.963,1.089-0.617L24.865,31.684z" class="color91aaf3 svgShape"/><path fill="#23f7e6" d="M52.039,19.927c0.351,0.203,0.694,0.597,0.9,1.076l1.837,4.246l-1.664-0.961
				c-0.294-0.17-0.575-0.264-0.831-0.289l-1.149-2.659c-0.33-0.764-0.194-1.457,0.305-1.551
				C51.622,19.755,51.832,19.808,52.039,19.927z" class="colorf7aa23 svgShape"/><path fill="#00cdbc" d="M32.418,48.518c0.597,0.345,1.081,1.182,1.079,1.868l-0.007,2.491
					c-0.002,0.69-0.489,0.967-1.086,0.622c-0.6-0.347-1.084-1.184-1.082-1.874l0.007-2.491
					C31.331,48.449,31.818,48.172,32.418,48.518z" class="color0056cd svgShape"/><path fill="#1df7e5" d="M42.188,47.92c0.6,0.347,1.084,1.184,1.082,1.874c-0.002,0.686-0.489,0.963-1.089,0.617
					l-4.335-2.503l0.007-2.491L42.188,47.92z" class="color1db0f7 svgShape"/><path fill="#fff" d="M27.033,32.935l34.681,20.023L61.63,82.847l-14.088-8.134c-0.597-0.345-1.087-0.069-1.089,0.617
					l-2.168-1.251c0.002-0.686-0.485-1.526-1.079-1.868c-0.597-0.345-1.087-0.069-1.089,0.617l-2.168-1.251
					c0.002-0.686-0.485-1.526-1.079-1.868l-11.923-6.884L27.033,32.935z M30.268,41.038c-0.6-0.347-1.087-0.069-1.089,0.62
					c-0.002,0.686,0.482,1.524,1.082,1.87l5.417,3.128c-0.002,0.69,0.482,1.527,1.082,1.874c0.597,0.345,1.084,0.067,1.086-0.622
					l4.335,2.503c0.6,0.347,1.087,0.069,1.089-0.617c0.002-0.69-0.482-1.527-1.082-1.874l-4.335-2.503
					c0.002-0.686-0.482-1.524-1.079-1.868c-0.6-0.346-1.087-0.069-1.089,0.617L30.268,41.038L30.268,41.038z M33.49,52.877
					l8.67,5.006c0.6,0.347,1.087,0.069,1.089-0.617c0.002-0.69-0.482-1.527-1.082-1.874l-8.67-5.006
					c0.002-0.686-0.482-1.524-1.079-1.868c-0.6-0.346-1.087-0.069-1.089,0.617l-1.082-0.625c-0.6-0.347-1.087-0.069-1.089,0.62
					c-0.002,0.686,0.482,1.524,1.082,1.87l1.082,0.625c-0.002,0.69,0.482,1.527,1.082,1.874
					C33.001,53.845,33.488,53.567,33.49,52.877L33.49,52.877z M56.219,77.229c1.791,1.034,3.255,0.2,3.26-1.862
					c0.006-2.058-1.448-4.577-3.239-5.611l-2.168-1.251c-1.794-1.036-3.258-0.202-3.264,1.856c-0.006,2.062,1.448,4.58,3.242,5.616
					L56.219,77.229L56.219,77.229z M34.543,64.714c1.791,1.034,3.255,0.2,3.26-1.862c0.006-2.058-1.448-4.577-3.239-5.611
					l-2.168-1.251c-1.794-1.036-3.258-0.202-3.264,1.856c-0.006,2.062,1.448,4.58,3.242,5.616L34.543,64.714L34.543,64.714z
					 M45.382,70.972c1.791,1.034,3.255,0.2,3.26-1.862c0.006-2.058-1.448-4.577-3.239-5.611l-2.168-1.252
					c-1.794-1.036-3.258-0.202-3.264,1.856c-0.006,2.062,1.448,4.58,3.242,5.616L45.382,70.972L45.382,70.972z M58.447,57.307
					c0.597,0.345,1.084,0.067,1.086-0.619c0.002-0.69-0.482-1.527-1.079-1.872l-10.838-6.257c-0.6-0.347-1.087-0.069-1.089,0.621
					c-0.002,0.686,0.482,1.524,1.082,1.87L58.447,57.307L58.447,57.307z M58.433,62.289c0.597,0.345,1.084,0.067,1.086-0.619
					c0.002-0.69-0.482-1.527-1.079-1.872l-10.838-6.257c-0.6-0.347-1.087-0.069-1.089,0.621c-0.002,0.686,0.482,1.524,1.082,1.87
					L58.433,62.289L58.433,62.289z M58.419,67.27c0.597,0.345,1.084,0.067,1.086-0.619c0.002-0.69-0.482-1.527-1.079-1.872
					l-10.838-6.257c-0.6-0.347-1.087-0.069-1.089,0.62c-0.002,0.686,0.482,1.524,1.082,1.87L58.419,67.27L58.419,67.27z" class="colorffffff svgShape"/><path fill="#00cdbc" d="M38.872,69.708c0.594,0.343,1.081,1.182,1.079,1.868c-0.002,0.686-0.492,0.965-1.086,0.622
					L25.859,64.69c0.597,0.345,1.084,0.067,1.086-0.622l0.003-1.243L38.872,69.708z" class="color0056cd svgShape"/><path fill="#8ef9f0" d="M34.558,59.733c0.597,0.345,1.081,1.182,1.079,1.868c-0.002,0.686-0.489,0.967-1.086,0.622
					l-2.168-1.251c-0.597-0.345-1.084-1.188-1.082-1.874c0.002-0.686,0.492-0.962,1.089-0.617L34.558,59.733z" class="color8ee7f9 svgShape"/><path fill="#1df7e5" d="M34.565 57.242c1.791 1.034 3.245 3.553 3.239 5.611-.006 2.062-1.47 2.896-3.26 1.862l-2.168-1.251c-1.794-1.036-3.248-3.555-3.242-5.616.006-2.058 1.47-2.892 3.264-1.856L34.565 57.242zM34.551 62.223c.597.345 1.084.064 1.086-.622.002-.686-.482-1.524-1.079-1.868l-2.167-1.251c-.597-.345-1.087-.069-1.089.617-.002.686.485 1.529 1.082 1.874L34.551 62.223 34.551 62.223zM29.158 49.131c.002-.69.489-.967 1.089-.62l1.082.625-.007 2.491-1.082-.625C29.64 50.655 29.156 49.817 29.158 49.131z" class="color1db0f7 svgShape"/><path fill="#00cdbc" d="M25.958,29.82c0.597,0.345,1.081,1.182,1.079,1.868l-0.004,1.247l-0.085,29.889l-0.003,1.243
					c-0.002,0.69-0.489,0.967-1.086,0.622l-2.167-1.252c-1.794-1.036-3.248-3.555-3.242-5.616l0.078-27.398
					c0.006-2.058,1.47-2.892,3.264-1.856L25.958,29.82z M24.781,61.572l0.085-29.889l-1.082-0.625
					c-0.6-0.347-1.087-0.069-1.089,0.617l-0.078,27.398c-0.002,0.686,0.482,1.527,1.082,1.874L24.781,61.572L24.781,61.572z" class="color0056cd svgShape"/><path fill="#23f7e6" d="M45.403,63.499c1.791,1.034,3.245,3.553,3.239,5.611c-0.006,2.062-1.469,2.896-3.26,1.862
					l-2.168-1.252c-1.794-1.036-3.248-3.554-3.242-5.616c0.006-2.058,1.47-2.892,3.264-1.856L45.403,63.499z M45.389,68.481
					c0.597,0.345,1.084,0.064,1.086-0.622c0.002-0.686-0.482-1.524-1.079-1.868l-2.168-1.251c-0.6-0.347-1.087-0.069-1.089,0.617
					c-0.002,0.686,0.482,1.527,1.082,1.874L45.389,68.481L45.389,68.481z" class="colorf7aa23 svgShape"/><path fill="#1df7e5" d="M29.179 41.659c.002-.69.489-.967 1.089-.62l5.417 3.128-.007 2.491-5.417-3.128C29.661 43.182 29.177 42.345 29.179 41.659zM42.167 55.393c.6.347 1.084 1.184 1.082 1.874-.002.686-.489.963-1.089.617l-8.67-5.006.007-2.491L42.167 55.393z" class="color1db0f7 svgShape"/><path fill="#23f7e6" d="M36.775,43.549c0.597,0.345,1.081,1.182,1.079,1.868l-0.007,2.491
					c-0.002,0.69-0.489,0.967-1.086,0.622c-0.6-0.347-1.084-1.184-1.082-1.874l0.007-2.491
					C35.688,43.48,36.174,43.203,36.775,43.549z" class="colorf7aa23 svgShape"/><path fill="#00cdbc" d="M61.626,84.091c-0.002,0.69,0.482,1.527,1.082,1.874l-15.173-8.76
					c-0.597-0.345-1.084-1.188-1.082-1.874c0.002-0.686,0.492-0.961,1.089-0.617l14.088,8.134L61.626,84.091z" class="color0056cd svgShape"/><path fill="#91f3eb" d="M56.234,72.247c0.597,0.345,1.081,1.182,1.079,1.868c-0.002,0.686-0.489,0.967-1.086,0.622
					l-2.168-1.251c-0.597-0.345-1.084-1.188-1.082-1.874c0.002-0.686,0.492-0.962,1.089-0.617L56.234,72.247z" class="color91aaf3 svgShape"/><path fill="#0bfbe7" d="M32.373,26.043c2.027,1.17,3.93,3.173,5.356,5.646c0.423,0.729,0.421,1.518-0.005,1.761
					c-0.211,0.12-0.49,0.081-0.767-0.079c-0.278-0.16-0.555-0.442-0.765-0.806c-1.018-1.764-2.376-3.194-3.826-4.031
					c-1.449-0.837-2.814-0.978-3.839-0.394c-0.211,0.121-0.489,0.082-0.766-0.078c-0.277-0.16-0.555-0.442-0.766-0.806
					c-0.42-0.731-0.418-1.52,0.005-1.761C28.438,24.674,30.343,24.871,32.373,26.043z" class="color0bb4fb svgShape"/><path fill="#23f7e6" d="M58.426,64.78c0.597,0.345,1.081,1.182,1.079,1.872c-0.002,0.686-0.489,0.963-1.086,0.619
					l-10.838-6.257c-0.6-0.347-1.084-1.184-1.082-1.87c0.002-0.69,0.489-0.967,1.089-0.62L58.426,64.78z" class="colorf7aa23 svgShape"/><path fill="#0bfbe7" d="M40.804,29.933c0.423,0.733,0.421,1.522-0.005,1.761c-0.211,0.122-0.489,0.084-0.766-0.076
					c-0.277-0.16-0.555-0.443-0.766-0.809c-1.895-3.282-4.39-5.816-6.888-7.259c-2.498-1.442-4.999-1.792-6.906-0.705
					c-0.211,0.124-0.49,0.085-0.767-0.076c-0.278-0.16-0.555-0.442-0.765-0.809c-0.423-0.729-0.421-1.518,0.005-1.761
					c2.331-1.328,5.388-0.9,8.44,0.862C35.439,22.825,38.488,25.922,40.804,29.933z" class="color0bb4fb svgShape"/><path fill="#23f7e6" d="M58.44 59.798c.597.345 1.081 1.182 1.079 1.872-.002.686-.489.963-1.086.619l-10.838-6.257c-.6-.347-1.084-1.184-1.082-1.87.002-.69.489-.967 1.089-.621L58.44 59.798zM58.454 54.817c.597.345 1.081 1.182 1.079 1.872-.002.686-.489.963-1.086.619L47.609 51.05c-.6-.347-1.084-1.184-1.082-1.87.002-.69.489-.967 1.089-.621L58.454 54.817z" class="colorf7aa23 svgShape"/><path fill="#0bfbe7" d="M32.402,16.076c4.341,2.507,8.419,6.804,11.48,12.106c0.42,0.731,0.418,1.52-0.005,1.761
					c-0.215,0.122-0.493,0.083-0.771-0.077c-0.275-0.158-0.552-0.44-0.765-0.809c-2.65-4.591-6.183-8.317-9.947-10.49
					c-3.764-2.173-7.306-2.531-9.977-1.013c-0.213,0.121-0.491,0.083-0.768-0.077c-0.277-0.16-0.554-0.442-0.764-0.808
					c-0.423-0.729-0.421-1.518,0.005-1.761C23.968,13.151,28.06,13.57,32.402,16.076z" class="color0bb4fb svgShape"/><path fill="#00d3c2" d="M51.99,37.365c0.594,0.343,1.081,1.182,1.079,1.868c-0.002,0.686-0.492,0.965-1.086,0.622
					c-0.597-0.345-1.084-1.188-1.082-1.874C50.903,37.296,51.393,37.02,51.99,37.365z" class="color0056d3 svgShape"/><path fill="#00cdbc" d="M27.037,31.688c0.002-0.686-0.482-1.524-1.079-1.868l36.849,21.275
					c-0.6-0.347-1.087-0.069-1.089,0.617l-0.003,1.247L27.033,32.935L27.037,31.688z" class="color0056cd svgShape"/><path fill="#00d3c2" d="M56.325 39.868c.594.343 1.081 1.182 1.079 1.868-.002.686-.492.965-1.086.622-.597-.345-1.084-1.188-1.082-1.874C55.238 39.799 55.728 39.523 56.325 39.868zM60.66 42.371c.597.345 1.081 1.182 1.079 1.868-.002.686-.489.967-1.086.622-.597-.345-1.084-1.188-1.082-1.874C59.574 42.302 60.064 42.026 60.66 42.371z" class="color0056d3 svgShape"/><path fill="#00cdbc" d="M69.31,54.849c1.794,1.036,3.245,3.553,3.239,5.611l-0.078,27.398
					c-0.006,2.062-1.466,2.897-3.26,1.862l-6.503-3.754c-0.6-0.346-1.084-1.184-1.082-1.874l0.092-32.379
					c0.002-0.686,0.489-0.963,1.089-0.617L69.31,54.849z M70.304,86.606l0.078-27.398c0.002-0.686-0.482-1.524-1.079-1.868
					l-5.42-3.13l-0.085,29.889l5.421,3.13C69.815,87.573,70.302,87.292,70.304,86.606L70.304,86.606z" class="color0056cd svgShape"/><path fill="#97f9f1" d="M62.835,41.132c0.597,0.345,1.081,1.182,1.079,1.868L63.9,47.981l-15.173-8.76l0.014-4.981
					c0.002-0.686,0.489-0.963,1.089-0.617L62.835,41.132z M60.653,44.862c0.597,0.345,1.084,0.063,1.086-0.622
					c0.002-0.686-0.482-1.524-1.079-1.868c-0.597-0.345-1.087-0.069-1.089,0.617C59.57,43.674,60.056,44.517,60.653,44.862
					L60.653,44.862z M56.318,42.359c0.594,0.343,1.084,0.064,1.086-0.622c0.002-0.686-0.485-1.525-1.079-1.868
					c-0.597-0.345-1.087-0.069-1.089,0.617C55.235,41.171,55.721,42.014,56.318,42.359L56.318,42.359z M51.983,39.856
					c0.594,0.343,1.084,0.064,1.086-0.622c0.002-0.686-0.485-1.525-1.079-1.868c-0.597-0.345-1.087-0.069-1.089,0.617
					C50.899,38.668,51.386,39.511,51.983,39.856L51.983,39.856z" class="color97b0f9 svgShape"/><path fill="#00d3c2" d="M62.842,38.641c1.794,1.036,3.245,3.549,3.239,5.611l-0.014,4.981
					c-0.002,0.69-0.486,0.969-1.086,0.622c-0.6-0.347-1.084-1.184-1.082-1.874L63.914,43c0.002-0.686-0.482-1.524-1.079-1.868
					L49.83,33.623c-0.6-0.347-1.087-0.069-1.089,0.617l-0.014,4.981c-0.002,0.69-0.489,0.967-1.086,0.622
					c-0.6-0.346-1.084-1.184-1.082-1.874l0.014-4.981c0.006-2.062,1.469-2.892,3.264-1.856l1.082,0.625l2.168,1.251l6.503,3.754
					l2.168,1.251L62.842,38.641z" class="color0056d3 svgShape"/><polygon fill="#fff" points="59.607 30.534 59.589 36.763 53.086 33.008 53.104 26.78" class="colorffffff svgShape"/><path fill="#0afde9" d="M59.614,28.043c0.294,0.17,0.575,0.4,0.83,0.67c0.784,0.828,1.333,2.038,1.33,3.072l-0.018,6.229
					l-2.168-1.251l0.018-6.229l-6.503-3.754l-0.018,6.229l-2.168-1.251l0.018-6.229c0.003-1.034,0.559-1.605,1.344-1.528
					c0.256,0.025,0.537,0.119,0.831,0.289l1.664,0.961l3.175,1.833L59.614,28.043z" class="color0ab5fd svgShape"/><path fill="#23f7e6" d="M60.708,24.933c0.207,0.119,0.416,0.308,0.601,0.559c0.497,0.669,0.629,1.517,0.295,1.897
					l-1.16,1.325c-0.256-0.27-0.536-0.5-0.83-0.67l-1.664-0.961l1.855-2.115C60.015,24.729,60.358,24.731,60.708,24.933z" class="colorf7aa23 svgShape"/><path fill="#00cdbc" d="M67.103,67.295c0.6,0.346,1.081,1.182,1.079,1.872l-0.014,4.981
				c-0.002,0.686-0.486,0.965-1.086,0.619c-0.6-0.346-1.084-1.184-1.082-1.87l0.014-4.981
				C66.016,67.226,66.503,66.948,67.103,67.295z" class="color0056cd svgShape"/><path fill="#91f3eb" d="M69.303,57.34c0.597,0.345,1.081,1.182,1.079,1.868l-0.078,27.398
				c-0.002,0.686-0.489,0.967-1.086,0.622l-5.421-3.13l0.085-29.889L69.303,57.34z M68.168,74.148l0.014-4.981
				c0.002-0.69-0.479-1.526-1.079-1.872c-0.6-0.347-1.087-0.069-1.089,0.62L66,72.897c-0.002,0.686,0.482,1.524,1.082,1.87
				S68.166,74.834,68.168,74.148L68.168,74.148z" class="color91aaf3 svgShape"/><path fill="#00cdbc" d="M56.241,69.757c1.791,1.034,3.245,3.553,3.239,5.611c-0.006,2.062-1.47,2.896-3.26,1.862
				l-2.168-1.251c-1.794-1.036-3.248-3.555-3.242-5.616c0.006-2.058,1.47-2.892,3.264-1.856L56.241,69.757z M56.227,74.738
				c0.597,0.345,1.084,0.064,1.086-0.622c0.002-0.686-0.482-1.524-1.079-1.868l-2.167-1.251c-0.597-0.345-1.087-0.069-1.089,0.617
				c-0.002,0.686,0.485,1.529,1.082,1.874L56.227,74.738L56.227,74.738z" class="color0056cd svgShape"/></g></svg>