<svg xmlns="http://www.w3.org/2000/svg" viewBox="0 0 51 51"><path fill="#F25A5A" d="m27.405 43.104-4.622-2.686c1.07-.618 1.937-2.12 1.934-3.35l4.622 2.687c.004 1.23-.863 2.732-1.934 3.35z"/><path fill="#F25A5A" d="m22.548 45.909-4.622-2.686 4.857-2.805 4.622 2.686z"/><path fill="#DD4A4A" d="m21.168 46.043-4.622-2.686c.353.205.841.176 1.38-.134l4.622 2.686c-.538.31-1.027.34-1.38.134z"/><path fill="#F25A5A" d="m19.34 49.194-4.623-2.686c-.813-.473-1.318-1.477-1.322-2.903l4.622 2.687c.004 1.425.509 2.43 1.322 2.902z"/><path fill="#FC7E7E" d="m35.121 33.306-4.623-2.686-.091-20.649 4.622 2.686z"/><path fill="#FC7E7E" d="m35.12 33.306-4.623-2.685-.091-20.649 4.623 2.686z"/><path fill="#F25A5A" d="m35.12 33.306-4.623-2.685-.047-5.006 4.624 2.685z"/><path fill="#DD4A4A" d="m29.339 39.755-4.622-2.686-.086-18.906 4.622 2.686z"/><path fill="#F25A5A" d="m24.107 17.014 4.622 2.686c.322.187.522.585.524 1.149l-4.622-2.686c-.002-.565-.202-.962-.524-1.15zm4.179-11.699 4.622 2.686c1.305.759 2.115 2.37 2.121 4.656l-4.622-2.686c-.006-2.287-.817-3.897-2.121-4.656zM23.16 40.471l-4.623-2.686-.078-16.059 4.622 2.686z"/><path fill="#DD4A4A" d="m23.16 40.471-4.623-2.686-.048-9.969 4.622 2.686z"/><path fill="#FC7E7E" d="m25.937 13.865 4.622 2.686c-.796-.463-1.899-.399-3.114.303-2.414 1.394-4.371 4.783-4.364 7.558l-4.622-2.686c-.008-2.775 1.95-6.164 4.364-7.559 1.215-.701 2.317-.765 3.114-.302z"/><path fill="#DD4A4A" d="m18.017 46.292-4.622-2.687-.1-23.754 4.622 2.686z"/><path fill="#FC7E7E" d="m30.116 2.166 4.622 2.686c-1.792-1.04-4.272-.896-7.006.682L23.11 2.847c2.733-1.578 5.214-1.722 7.006-.68z"/><path fill="#C44141" d="M27.732 5.534c5.432-3.136 9.864-.61 9.882 5.63l.091 20.65-2.584 1.492-.092-20.649c-.013-4.603-3.282-6.466-7.288-4.154-4.004 2.312-7.252 7.939-7.24 12.542l.1 23.755c.004 1.23.877 1.727 1.947 1.109l4.857-2.805c1.07-.617 1.938-2.12 1.934-3.35l-.086-18.905c-.003-1.136-.81-1.596-1.8-1.026-.988.571-1.79 1.96-1.787 3.097l.078 16.06-2.584 1.491-.079-16.059c-.007-2.775 1.95-6.164 4.364-7.558s4.385-.272 4.393 2.503l.086 18.906c.008 2.868-2.014 6.373-4.51 7.814l-4.857 2.804c-2.497 1.441-4.532.279-4.54-2.59l-.1-23.754c-.017-6.242 4.386-13.869 9.815-17.003z"/><path fill="#F25A5A" d="m17.917 22.537-4.622-2.686c-.018-6.242 4.386-13.869 9.815-17.004l4.622 2.687c-5.43 3.134-9.832 10.761-9.815 17.003z"/><path fill="#FFF" d="M20.053 22.196a.158.158 0 0 1 0 .305 3.11 3.11 0 0 0-1.984 1.983.158.158 0 0 1-.304 0 3.103 3.103 0 0 0-1.983-1.983.158.158 0 0 1 0-.305 3.11 3.11 0 0 0 1.983-1.983.158.158 0 0 1 .304 0 3.11 3.11 0 0 0 1.984 1.983z"/></svg>