<svg xmlns="http://www.w3.org/2000/svg" viewBox="0 0 55 55"><path fill="#febc1f" d="m17.252 51.5-7.729-4.491-.076-26.785 7.729 4.491c10.73 5.268 11.154 14.06.076 26.785z"/><path fill="#ffd651" d="m17.176 24.715-7.729-4.491L37.482 4.039l7.996 4.336z"/><path fill="#ffd06c" d="m45.478 8.375.076 26.785L17.252 51.5l-.076-26.785z"/><path fill="#f9a83d" d="M17.377 24.092v.797l-7.931-4.573.005-.797zM18.35 36.16l-.62-.36c-.324-.188-.524-.587-.526-1.154l.62.36c.002.567.203.966.526 1.154z"/><path fill="#f9a83d" d="m17.825 35.006-.621-.36-.017-10.673.62.361z"/><path fill="#ffd06c" d="M45.474 8.372 17.805 24.331l-.429-.243-.193-.109-7.727-4.461 6.929-4.023L37.024 3.5l7.828 4.511.101.058z"/><path fill="#febc1f" d="m45.484 8.354.018 10.673c.003 1.142-.8 2.533-1.794 3.107l-24.076 13.9c-.994.574-1.804.115-1.807-1.028l-.018-10.672 27.677-15.98z"/><path fill="#fff" d="m23.837 17.178-2.999 1.743-3.019-1.743 2.999-1.743zM35.128 10.52l-3 1.743-3.019-1.743 3-1.743z"/><path fill="#383836" d="m33.485 10.722-1.37.79-1.35-.79-.01-2.8-8.56 4.94.02 4.37-1.37.79-1.35-.79-.02-5.94 12.63-7.29 1.36.78z"/><path fill="#272625" d="m32.118 11.511-1.356-.788-.015-4.367 1.355.787zM20.848 18.017l-1.355-.787-.021-5.937 1.355.788z"/><path fill="#3f3e3c" d="m20.827 12.081-1.355-.788 12.636-7.295 1.355.788z"/><path fill="#383836" d="m33.463 4.786.02 5.936-1.365.789-.016-4.368-9.907 5.72.015 4.368-1.362.786-.021-5.936z"/><path fill="#f45170" d="m26.885 34.722-4.56 2.63-.59-.34-.01-5.2 4.56-2.63.58.34z"/><path fill="#e93565" d="m22.329 37.349-.59-.342-.014-5.195.589.342z"/><path fill="#f45170" d="m22.314 32.154-.589-.342 4.555-2.63.589.342z"/><path fill="#df3260" d="m26.869 29.524.015 5.195-4.555 2.63-.015-5.195zM40.536 21.634l-.589-.343-4.556 2.63.015 5.195.589.343 4.556-2.631z"/><path fill="#e93565" d="m35.995 29.459-.589-.343-.015-5.195.59.343z"/><path fill="#f45170" d="m35.981 24.264-.59-.343 4.556-2.63.589.343z"/><path fill="#df3260" d="m40.536 21.634.015 5.194-4.556 2.631-.014-5.195z"/></svg>