<svg xmlns="http://www.w3.org/2000/svg" viewBox="0 0 51 51"><path fill="#D6D4D2" d="m15.969 49.375-5.096-2.961c-.332-.193-.538-.604-.54-1.187l5.096 2.961c.002.584.208.994.54 1.187z"/><path fill="#E9E8E6" d="m15.429 48.188-5.095-2.961-.054-20.874 5.095 2.961z"/><path fill="#D6D4D2" d="m15.429 48.188-5.095-2.961-.03-11.441 5.096 2.962z"/><path fill="#C4C2C0" d="m15.429 48.188-5.095-2.961-.013-4.773 5.096 2.961z"/><path fill="#82C6E0" d="m15.375 27.314-5.095-2.961L35.591 9.739l5.095 2.962z"/><path fill="#B2B0AF" d="m40.686 12.7.054 20.875c.003 1.174-.823 2.605-1.844 3.195l-21.61 12.476c-1.022.59-1.854.116-1.857-1.058l-.054-20.874 25.311-14.613z"/><path fill="#434240" d="m35.03 1.625 5.096 2.961c-.336-.195-.802-.168-1.317.13l-5.095-2.962c.514-.297.98-.325 1.317-.13z"/><path fill="#2D2C2B" d="m15.375 27.313-5.095-2.961-.02-6.926 5.095 2.961z"/><path fill="#383736" d="m17.201 17.191-5.096-2.961L33.714 1.754l5.095 2.961z"/><path fill="#434240" d="m17.201 17.191-5.096-2.961 12.317-7.112 5.096 2.962z"/><path fill="#2D2C2B" d="m15.355 20.387-5.095-2.961c-.003-1.175.823-2.606 1.845-3.196l5.096 2.96c-1.023.591-1.849 2.022-1.846 3.197z"/><path fill="#21201F" d="M38.81 4.715c1.022-.59 1.853-.116 1.856 1.059l.02 6.926-25.31 14.613-.02-6.926c-.004-1.175.822-2.606 1.845-3.196L38.809 4.715z"/><path fill="#FFF" d="m26.183 31.436-.91-.529c-.169-.098-.273-.306-.274-.602l.91.53c.001.295.105.503.274.601zm4.241-9.958.91.53c-.17-.1-.406-.086-.667.064l-.91-.529c.26-.15.497-.164.667-.065z"/><path fill="#E9E8E6" d="m25.909 30.834-.91-.529-.014-4.926.91.529zM26.831 24.287l-.911-.529 3.837-2.215.91.529z"/><path fill="#FFF" d="m25.895 25.908-.91-.53c-.002-.595.417-1.32.935-1.62l.91.53c-.518.299-.937 1.024-.935 1.62z"/><path fill="#D6D4D2" d="M30.667 22.072c.518-.299.94-.058.941.537l.014 4.927c.002.595-.417 1.32-.935 1.62l-3.836 2.215c-.519.3-.94.059-.942-.537l-.014-4.926c-.002-.596.417-1.321.936-1.62l3.836-2.216z"/><path fill="#FFF" d="m26.183 31.436-.91-.529c-.169-.098-.273-.306-.274-.602l.91.53c.001.295.105.503.274.601zm4.241-9.958.91.53c-.17-.1-.406-.086-.667.064l-.91-.529c.26-.15.497-.164.667-.065z"/><path fill="#E9E8E6" d="m25.909 30.834-.91-.529-.014-4.926.91.529zM26.831 24.287l-.911-.529 3.837-2.215.91.529z"/><path fill="#FFF" d="m25.895 25.908-.91-.53c-.002-.595.417-1.32.935-1.62l.91.53c-.518.299-.937 1.024-.935 1.62z"/><path fill="#D6D4D2" d="M22.796 26.617c.518-.3.94-.059.94.537l.015 4.926c.002.596-.417 1.321-.935 1.62l-3.837 2.215c-.518.3-.94.06-.941-.536l-.014-4.927c-.002-.595.417-1.321.935-1.62l3.837-2.215z"/><path fill="#FFF" d="m18.312 35.98-.91-.528c-.169-.098-.273-.306-.274-.602l.91.529c0 .296.105.504.274.602zm4.24-9.957.911.529c-.17-.1-.407-.086-.667.065l-.91-.53c.26-.15.496-.163.667-.064z"/><path fill="#E9E8E6" d="m18.038 35.379-.91-.529-.014-4.927.91.529zM18.959 28.832l-.91-.529 3.837-2.215.91.529z"/><path fill="#FFF" d="m18.024 30.452-.91-.529c-.002-.595.417-1.32.935-1.62l.91.529c-.518.299-.937 1.025-.935 1.62z"/><path fill="#D6D4D2" d="M30.667 32.157c.518-.299.94-.059.941.537l.014 4.927c.002.595-.417 1.32-.935 1.62l-3.836 2.215c-.519.299-.94.059-.942-.537l-.014-4.927c-.002-.595.417-1.32.936-1.62l3.836-2.215z"/><path fill="#FFF" d="m26.183 41.52-.91-.528c-.169-.098-.273-.306-.274-.602l.91.53c.001.295.105.503.274.6zm4.241-9.957.91.529c-.17-.1-.406-.085-.667.065l-.91-.529c.26-.15.497-.164.667-.065z"/><path fill="#E9E8E6" d="m25.909 40.919-.91-.529-.014-4.927.91.529zM26.831 34.372l-.911-.529 3.837-2.215.91.529z"/><path fill="#FFF" d="m25.895 35.992-.91-.529c-.002-.595.417-1.32.935-1.62l.91.53c-.518.298-.937 1.024-.935 1.62z"/><path fill="#D6D4D2" d="M22.796 36.701c.518-.298.94-.058.94.537l.015 4.927c.002.596-.417 1.321-.935 1.62L18.98 46c-.518.3-.94.059-.941-.536l-.014-4.927c-.002-.596.417-1.321.935-1.62l3.837-2.216z"/><path fill="#FFF" d="m18.312 46.065-.91-.528c-.169-.098-.273-.307-.274-.602l.91.529c0 .295.105.504.274.601zm4.24-9.958.911.53c-.17-.1-.407-.086-.667.064l-.91-.528c.26-.15.496-.165.667-.066z"/><path fill="#E9E8E6" d="m18.038 45.464-.91-.529-.014-4.927.91.529zM18.959 38.917l-.91-.529 3.837-2.215.91.528z"/><path fill="#FFF" d="m18.024 40.537-.91-.53c-.002-.595.417-1.32.935-1.62l.91.53c-.518.299-.937 1.024-.935 1.62z"/><path fill="#434240" d="M39.546 7.149c-.001-.4-.227-.61-.538-.556a.695.695 0 0 1 .093.367l.012 4.162c.002.51-.356 1.13-.8 1.385L16.858 24.895a.794.794 0 0 1-.267.098c.134.22.401.27.711.091l21.457-12.388c.443-.256.8-.876.8-1.386l-.012-4.161z"/><path fill="#B5E5F4" d="M38.314 12.508c.443-.256.8-.877.8-1.386l-.012-4.162a.695.695 0 0 0-.094-.368.793.793 0 0 0-.267.098L17.284 19.078c-.443.256-.801.877-.8 1.385l.012 4.162c0 .153.036.274.094.368a.794.794 0 0 0 .267-.098l21.457-12.387z"/><path d="m21.35 28.755.005 1.75 1.532-.885.003.998-1.533.885.005 1.739-.927.535-.005-1.738-1.542.89-.003-.998 1.542-.891-.005-1.749zM21.955 38.82l.597.34-1.143 1.969 1.043.594-.543.942-1.043-.594-1.046 1.811-.597-.341 1.045-1.811-1.043-.594.544-.942 1.052.589zM30.099 26.471l-2.681 1.545v-1.044l2.673-1.544z"/><path fill="#F25A5A" d="m34.1 36.784-.995-.578c-.184-.107-.298-.335-.3-.657l.995.578c.001.322.115.55.3.657zm4.611-19.751.995.578c-.187-.109-.446-.093-.731.072l-.995-.578c.286-.165.545-.18.731-.072z"/><path fill="#DD4A4A" d="m33.8 36.127-.994-.578-.04-14.254.995.578zM34.783 20.103l-.995-.578 4.192-2.42.995.578z"/><path fill="#F25A5A" d="m33.76 21.873-.994-.578c-.002-.652.456-1.443 1.022-1.77l.995.578c-.566.327-1.024 1.118-1.022 1.77z"/><path fill="#CC4848" d="M38.975 17.683c.567-.327 1.027-.066 1.03.585l.039 14.254c.002.65-.456 1.443-1.023 1.77l-4.192 2.42c-.566.327-1.027.065-1.029-.585l-.04-14.254c-.001-.652.457-1.443 1.023-1.77l4.192-2.42z"/><path fill="#FFF" d="m34.989 26.673 3.817-2.203.002.952-3.816 2.203zM34.999 29.925l-.003-.952 3.816-2.204.003.952z"/><path d="m30.109 35.513.003 1.032-2.704 1.561-.003-1.032zM28.766 37.659c.244-.141.45-.024.45.256.001.28-.203.635-.447.776-.254.146-.45.023-.45-.257-.001-.28.193-.629.447-.775zm-.008-2.737c.244-.141.45-.035.45.245.001.292-.203.646-.447.787-.254.146-.45.024-.45-.268-.001-.28.193-.618.447-.764z"/><path fill="#FFF" d="M17.733 17.226a.161.161 0 0 1 0 .31 3.164 3.164 0 0 0-2.018 2.017.161.161 0 0 1-.31 0 3.158 3.158 0 0 0-2.017-2.017.161.161 0 0 1 0-.31 3.164 3.164 0 0 0 2.017-2.018.161.161 0 0 1 .31 0 3.164 3.164 0 0 0 2.018 2.018z"/></svg>