<svg xmlns="http://www.w3.org/2000/svg" enable-background="new 0 0 51 51" viewBox="0 0 51 51"><g enable-background="new"><path fill="#82C6E0" d="M10.16231,49.40247l-6.84594-3.97843c-0.25962-0.15088-0.42048-0.47179-0.42177-0.92759
						l6.84594,3.97843C9.74182,48.93068,9.90269,49.25159,10.16231,49.40247z"/><polygon fill="#82C6E0" points="9.741 48.475 2.895 44.496 2.892 43.443 9.738 47.422"/><polygon fill="#0074D1" points="9.738 47.422 2.892 43.443 36.255 24.179 43.101 28.158"/><path fill="#006CB5" d="M43.1013,28.15791l0.00299,1.0544c0.0026,0.91717-0.64187,2.03477-1.44119,2.49626L11.19115,49.30155
						c-0.79932,0.46149-1.44801,0.0905-1.45061-0.82667l-0.00299-1.05309L43.1013,28.15791z"/></g><g enable-background="new"><path fill="#82C6E0" d="M35.77407,2.16336l6.84594,3.97843c-0.26281-0.15273-0.62689-0.13097-1.02912,0.10126l-6.84594-3.97843
						C35.14718,2.03239,35.51126,2.01063,35.77407,2.16336z"/><polygon fill="#C4C2C0" points="9.684 28.665 9.685 28.76 43.048 9.498 43.101 28.158 9.738 47.42"/><polygon fill="#0074D1" points="9.685 28.76 2.839 24.782 2.838 24.687 9.684 28.665"/><polygon fill="#E9E8E6" points="9.738 47.42 2.892 43.442 2.838 24.687 9.684 28.665"/><polygon fill="#D6D4D2" points="9.738 47.42 2.892 43.442 2.863 33.335 9.709 37.314"/><polygon fill="#82C6E0" points="9.684 28.665 2.838 24.687 2.832 22.354 9.678 26.332"/><polygon fill="#0780D3" points="11.119 23.836 4.273 19.858 34.745 2.265 41.591 6.243"/><polygon fill="#0074D1" points="11.119 23.836 4.273 19.858 19.798 10.894 26.644 14.873"/><path fill="#82C6E0" d="M9.67776,26.33228l-6.84594-3.97843c-0.0026-0.91849,0.64187-2.03476,1.44119-2.49625l6.84594,3.97843
						C10.31963,24.29752,9.67515,25.41379,9.67776,26.33228z"/><path fill="#006CB5" d="M41.5909,6.24304c0.79932-0.46149,1.44801-0.09183,1.45061,0.82666l0.00689,2.42818L9.68464,28.76046
						l-0.00027-0.09502l-0.00661-2.33316c-0.0026-0.91849,0.64187-2.03476,1.44119-2.49625L41.5909,6.24304z"/></g><polygon fill="#82C6E0" points="18.296 20.463 18.08 20.587 18.087 23.011 18.305 23.142"/><polygon fill="#B5E5F4" points="18.087 23.011 18.087 23.011 13.825 25.471 13.825 25.727 18.305 23.142 18.305 23.142"/><polygon fill="#FFF" points="18.08 20.587 13.818 23.047 13.825 25.471 18.087 23.011"/><g><path fill="#005E87" d="M35.45752,5.98402c1.65054,0.95294,1.65924,2.49789,0.01942,3.45085
				c-1.6405,0.95335-4.30704,0.95296-5.95757,0.00003c-1.65055-0.95294-1.65992-2.49749-0.01942-3.45085
				C31.13976,5.0311,33.80697,5.03108,35.45752,5.98402z"/></g><g><g enable-background="new"><path fill="#383736" d="M36.25699,4.64149l-0.00847,2.98746c-0.00157,0.55368-0.36547,1.10652-1.09243,1.52899
							c-1.46394,0.85075-3.84349,0.8504-5.31639,0.00002c-0.74126-0.42797-1.11159-0.98964-1.11-1.5505l0.00847-2.98746
							c-0.00159,0.56085,0.36874,1.12253,1.11,1.5505c1.47289,0.85038,3.85244,0.85072,5.31638-0.00002
							C35.89152,5.74801,36.25542,5.19517,36.25699,4.64149z"/><path fill="#383736" d="M34.98299,3.24897c1.38192,0.79785,1.3892,2.09137,0.01626,2.88924
							c-1.37351,0.7982-3.60608,0.79787-4.988,0.00002c-1.38193-0.79785-1.38978-2.09104-0.01626-2.88924
							C31.36793,2.45112,33.60107,2.45111,34.98299,3.24897z"/></g><g enable-background="new"><path fill="#909293" d="M36.96432,4.10242l-0.01007,1.86122c-0.00187,0.65848-0.43464,1.31596-1.2992,1.81839
							c-1.74102,1.01177-4.57096,1.01136-6.32264,0.00003c-0.88156-0.50897-1.32198-1.17696-1.32009-1.84397l0.01007-1.86122
							c-0.00189,0.66701,0.43853,1.335,1.3201,1.84397c1.75168,1.01133,4.58162,1.01174,6.32264-0.00003
							C36.52967,5.41838,36.96245,4.76089,36.96432,4.10242z"/><path fill="#A2A4A5" d="M35.66514,5.92081c-0.93896,0.54567-2.1945,0.79415-3.4269,0.75121v1.8615
							c1.22917,0.04122,2.4804-0.20732,3.41683-0.7515c0.86455-0.50242,1.29728-1.1599,1.2992-1.81838l0.01007-1.86121
							C36.96249,4.76089,36.52969,5.41839,35.66514,5.92081z"/><path fill="#B6B9BA" d="M36.96511,4.10375L36.95573,5.9627c-0.00315,0.65812-0.43458,1.31621-1.30051,1.82004l0.00946-1.8621
							C36.53061,5.41681,36.96204,4.76187,36.96511,4.10375z"/><path fill="#D6D4D2" d="M35.6445,2.25849c1.75168,1.01133,1.76091,2.65096,0.02061,3.66231
							c-1.74102,1.01177-4.57096,1.01136-6.32264,0.00003c-1.75169-1.01134-1.76164-2.65054-0.02061-3.66231
							C31.06216,1.24717,33.89282,1.24716,35.6445,2.25849z"/></g></g><g><path fill="#A5A4A4" d="M33.22598,16.98304c-3.90316,2.25349-7.06311,7.76128-7.05039,12.24637
					c0.01276,4.50216,3.19351,6.332,7.09667,4.0785c3.93308-2.27077,7.09307-7.76143,7.08031-12.26359
					C40.33985,16.55923,37.15905,14.71227,33.22598,16.98304z"/><path fill="#434240" d="M27.66978,29.39046c0,2.01946,0.7228,3.46493,1.87064,4.14518l7.6501,4.43811
				c-1.14784-0.65897-1.87064-2.10444-1.89192-4.14518c0-4.06006,2.8698-9.05558,6.39843-11.11746
				c1.80694-1.0203,3.4225-1.12669,4.59162-0.44645l-7.6501-4.43811c-1.16925-0.68024-2.78481-0.59526-4.57034,0.44632
				C30.5183,20.3136,27.6485,25.30899,27.66978,29.39046z"/><path fill="#383736" d="M27.66978,29.39045c0,2.01945,0.7228,3.46492,1.87064,4.14517l7.6501,4.43813
					c-1.14784-0.65897-1.87064-2.10445-1.89192-4.14517c0-0.09016,0.00312-0.18128,0.00593-0.27232l-7.6304-4.42671
					C27.67201,29.21672,27.66933,29.30407,27.66978,29.39045z"/><path fill="#434240" d="M46.28865,22.26466l-7.6501-4.43812c-1.13793-0.66201-2.69908-0.59653-4.42772,0.36739l7.64211,4.43348
					C43.59658,21.68794,45.15339,21.60411,46.28865,22.26466z"/><path fill="#383736" d="M41.69703,22.71111c0.05232-0.02954,0.10391-0.05567,0.15592-0.08369l-7.64211-4.43348
					c-0.04759,0.02654-0.09479,0.05103-0.14263,0.07894c-1.72557,0.99197-3.28917,2.68287-4.4394,4.62678l7.65317,4.4399
					C38.43111,25.40129,39.98598,23.71092,41.69703,22.71111z"/><path fill="#434240" d="M29.62881,22.89965c-1.166,1.97055-1.90536,4.20058-1.95468,6.22991l7.6304,4.42671
					c0.06227-2.02072,0.80938-4.24652,1.97746-6.21672L29.62881,22.89965z"/><path fill="#2D2C2B" d="M33.86484,32.98446c0,2.01945,0.7228,3.46493,1.87064,4.14518l1.45503,0.84412
				c-1.14784-0.65897-1.87064-2.10444-1.89192-4.14518c0-4.06006,2.8698-9.05558,6.39843-11.11746
				c1.80694-1.0203,3.4225-1.12669,4.59162-0.44645l-1.45503-0.84412c-1.16925-0.68025-2.78482-0.59526-4.57035,0.44632
				C36.71336,23.9076,33.84356,28.90298,33.86484,32.98446z"/><path fill="#434240" d="M41.70047,22.70797c-3.54229,2.04514-6.41011,7.04372-6.39857,11.11413
				c0.01159,4.0859,2.89829,5.74652,6.44058,3.70139c3.56939-2.06079,6.43726-7.04382,6.42568-11.12972
				C48.15662,22.32335,45.26987,20.64718,41.70047,22.70797z"/><path fill="#2D2C2B" d="M40.63842,36.32608c3.37982-1.95575,6.12207-6.69606,6.1008-10.58616
				c0-1.2541-0.29763-2.2744-0.85034-2.95465c1.04171,0.55258,1.63684,1.84936,1.63684,3.61362
				c0.02128,3.86882-2.72085,8.63041-6.1008,10.56488c-0.89277,0.53143-1.78566,0.80778-2.55089,0.80778
				c-0.85021,0-1.57301-0.34019-2.08316-0.97787c0.38261,0.21265,0.80779,0.31891,1.29666,0.31891
				C38.85276,37.11258,39.74565,36.83623,40.63842,36.32608z"/><path fill="#0780D3" d="M35.94053,33.81775c0,1.27538,0.31891,2.29568,0.85034,2.97593
				c0.38261,0.21265,0.80779,0.31891,1.29666,0.31891c0.40389,0,0.85034-0.08511,1.31793-0.21265
				c0.40389-0.14869,0.80779-0.34006,1.23296-0.57386c0.14882-0.08511,0.31891-0.19137,0.46759-0.29763
				c0.80778-0.53143,1.57314-1.23295,2.25325-2.01946c1.31807-1.50917,2.35965-3.40109,2.91235-5.31429
				c0.31878-0.99903,0.46759-1.99818,0.46759-2.95478c0-1.2541-0.29763-2.2744-0.85034-2.95465
				c-0.38261-0.21265-0.80778-0.31891-1.29666-0.31891c-0.14882,0-0.29763,0-0.44632,0.02128
				c-0.6591,0.08498-1.40305,0.34006-2.12572,0.76523c-0.6591,0.38261-1.29679,0.87162-1.89192,1.44547
				c-0.76522,0.74408-1.46675,1.59429-2.06201,2.55089c-0.46759,0.7228-0.87149,1.50931-1.1904,2.31709
				C36.25944,30.99051,35.94053,32.45726,35.94053,33.81775z"/><g><path fill="#B5E5F4" d="M36.87585 29.56631l2.52961 7.33362c.40389-.14869.80779-.34006 1.23296-.57386.14882-.08511.31891-.19137.46759-.29763l-3.03976-8.77922C37.59866 27.97202 37.19476 28.75853 36.87585 29.56631zM40.12826 24.69834l3.231 9.31065c1.31807-1.50917 2.35965-3.40109 2.91235-5.31429l-2.12572-6.20706c-.6591.08498-1.40305.34006-2.12572.76523C41.36109 23.63548 40.7234 24.12448 40.12826 24.69834z" opacity=".3"/></g></g><path fill="#FFF" d="M12.20398 24.09063c-1.19827 0-2.08984.95663-2.08984 2.08984 0-1.15608-.93376-2.08984-2.08242-2.08984 1.14031 0 2.08242-.91502 2.08242-2.08984C10.11414 23.16423 11.04028 24.09063 12.20398 24.09063zM37.48398 26.48987c-.94171 0-1.64239.75181-1.64239 1.64239 0-.90855-.73384-1.64239-1.63656-1.64239.89616 0 1.63656-.71911 1.63656-1.64239C35.84159 25.76182 36.56944 26.48987 37.48398 26.48987z"/></svg>