<svg xmlns="http://www.w3.org/2000/svg" enable-background="new 0 0 51 51" viewBox="0 0 51 51"><g enable-background="new"><polygon fill="#C8C8C6" points="31.701 21.332 28.012 19.189 33.35 16.107 37.039 18.251"/><polygon fill="#C8C8C6" points="23.669 25.97 19.98 23.826 25.318 20.744 29.007 22.888"/><polygon fill="#C8C8C6" points="15.637 30.607 11.948 28.463 17.286 25.381 20.975 27.525"/><polygon fill="#B8B6B5" points="14.392 31.326 11.415 29.596 36.54 14.265 40.229 16.409"/><polygon fill="#979695" points="37.039 18.251 33.35 16.107 35.758 11.304 38.734 13.034"/><polygon fill="#E9E8E6" points="38.734 13.034 35.758 11.304 37.241 10.448 40.217 12.178"/><polygon fill="#2B2B29" points="31.701 21.332 28.012 19.189 30.42 14.386 33.397 16.116"/><polygon fill="#979695" points="29.007 22.888 25.318 20.744 27.726 15.941 30.703 17.671"/><polygon fill="#2B2B29" points="23.669 25.97 19.98 23.826 22.389 19.023 25.366 20.753"/><polygon fill="#979695" points="20.975 27.525 17.286 25.381 19.695 20.578 22.672 22.308"/><polygon fill="#C44141" points="40.229 16.409 40.282 34.583 14.445 49.5 14.392 31.326"/><polygon fill="#2B2B29" points="15.637 30.607 11.948 28.463 14.357 23.66 17.334 25.39"/><polygon fill="#C4C2C0" points="40.217 12.178 40.229 16.408 14.392 31.326 14.38 27.096 17.334 25.39 15.637 30.607 20.975 27.525 22.672 22.308 25.366 20.753 23.669 25.97 29.007 22.888 30.703 17.671 33.397 16.116 31.701 21.332 37.039 18.251 38.734 13.034"/><polygon fill="#383736" points="38.734 13.034 37.039 18.251 31.701 21.332 33.397 16.116"/><polygon fill="#21201F" points="36.65 14.238 34.954 19.454 31.701 21.332 33.397 16.116"/><polygon fill="#434240" points="33.397 16.116 30.42 14.386 35.758 11.304 38.734 13.034"/><polygon fill="#2D2C2B" points="33.397 16.116 30.42 14.386 33.673 12.508 36.65 14.238"/><polygon fill="#E9E8E6" points="30.703 17.671 27.726 15.941 30.42 14.386 33.397 16.116"/><polygon fill="#383736" points="30.703 17.671 29.007 22.888 23.669 25.97 25.366 20.753"/><polygon fill="#21201F" points="28.168 19.135 26.472 24.351 23.669 25.97 25.366 20.753"/><polygon fill="#434240" points="25.366 20.753 22.389 19.023 27.726 15.941 30.703 17.671"/><polygon fill="#2D2C2B" points="25.366 20.753 22.389 19.023 25.191 17.405 28.168 19.135"/><polygon fill="#E9E8E6" points="22.672 22.308 19.695 20.578 22.389 19.023 25.366 20.753"/><polygon fill="#F25A5A" points="14.445 49.5 11.468 47.77 11.415 29.596 14.392 31.326"/><polygon fill="#DD4A4A" points="14.445 49.5 11.468 47.77 11.433 35.761 14.41 37.491"/><polygon fill="#CC4848" points="14.445 49.5 11.468 47.77 11.451 41.925 14.428 43.655"/><polygon fill="#383736" points="22.672 22.308 20.975 27.525 15.637 30.607 17.334 25.39"/><polygon fill="#21201F" points="20.263 23.698 18.567 28.915 15.637 30.607 17.334 25.39"/><polygon fill="#434240" points="17.334 25.39 14.357 23.66 19.695 20.578 22.672 22.308"/><polygon fill="#2D2C2B" points="20.263 23.698 17.334 25.39 14.357 23.66 17.286 21.969"/><polygon fill="#C8C8C6" points="14.38 27.096 11.403 25.366 14.357 23.66 17.334 25.39"/><polygon fill="#B2B0AF" points="14.392 31.326 11.415 29.596 11.403 25.366 14.38 27.096"/></g><polygon fill="#8B8A89" points="36.631 9.482 32.942 7.339 34.647 2.653 37.624 4.383"/><polygon fill="#E9E8E6" points="37.624 4.383 34.647 2.653 36.104 1.5 39.081 3.23"/><polygon fill="#C4C2C0" points="39.081 3.23 39.766 7.001 36.631 9.482 37.624 4.383"/><polygon fill="#434240" points="35.491 6.071 32.514 4.341 34.647 2.653 37.624 4.383"/><polygon fill="#282726" points="31.387 13.633 27.698 11.49 29.403 6.805 32.38 8.535"/><polygon fill="#E9E8E6" points="29.733 10.629 26.756 8.899 29.403 6.805 32.38 8.535"/><polygon fill="#434240" points="32.38 8.535 29.403 6.805 32.514 4.341 35.491 6.071"/><polygon fill="#2D2C2B" points="32.38 8.535 29.403 6.805 32.514 4.341 35.491 6.071"/><polygon fill="#383736" points="37.624 4.383 36.631 9.482 31.387 13.633 32.38 8.535 35.491 6.071"/><polygon fill="#21201F" points="35.491 6.071 34.498 11.171 31.387 13.633 32.379 8.535"/><polygon fill="#C4C2C0" points="28.74 15.728 29.733 10.629 35.491 6.071 32.38 8.535 31.387 13.633"/><polygon fill="#8B8A89" points="28.74 15.728 25.051 13.585 26.756 8.899 29.733 10.629"/><polygon fill="#282726" points="23.495 19.88 19.806 17.736 21.512 13.051 24.489 14.781"/><polygon fill="#434240" points="24.489 14.781 21.512 13.051 26.756 8.899 29.733 10.629"/><polygon fill="#2D2C2B" points="24.489 14.781 21.512 13.051 24.229 10.9 27.206 12.63"/><polygon fill="#383736" points="29.733 10.629 28.74 15.729 23.495 19.88 24.489 14.781"/><polygon fill="#21201F" points="27.206 12.63 26.212 17.729 23.495 19.88 24.489 14.781"/><polygon fill="#E9E8E6" points="21.842 16.876 18.865 15.146 21.512 13.051 24.489 14.781"/><polygon fill="#C4C2C0" points="20.848 21.975 21.842 16.876 24.489 14.781 23.495 19.88"/><polygon fill="#8B8A89" points="20.848 21.975 17.159 19.832 18.865 15.146 21.842 16.876"/><polygon fill="#383736" points="21.842 16.876 20.848 21.975 15.604 26.127 16.597 21.027"/><polygon fill="#21201F" points="19.411 18.8 18.418 23.9 15.604 26.127 16.597 21.027"/><polygon fill="#434240" points="16.597 21.027 13.62 19.297 18.865 15.146 21.842 16.876"/><polygon fill="#2D2C2B" points="16.597 21.027 13.62 19.297 16.434 17.07 19.411 18.8"/><polygon fill="#282726" points="15.604 26.127 11.915 23.983 13.62 19.297 16.597 21.027"/><polygon fill="#C4C2C0" points="14.38 27.096 13.695 23.325 16.597 21.027 15.604 26.126"/><polygon fill="#E9E8E6" points="13.695 23.325 10.718 21.595 13.62 19.297 16.597 21.027"/><polygon fill="#D6D4D2" points="14.38 27.096 11.403 25.366 10.718 21.595 13.695 23.325"/><g><g enable-background="new"><polygon fill="#FFF" points="26.179 30.649 24.767 29.828 31.984 30.302 33.397 31.123"/><polygon fill="#E9E8E6" points="30.029 30.902 26.179 30.649 24.767 29.828 28.617 30.081"/><polygon fill="#D6D4D2" points="26.205 39.916 24.792 39.095 24.767 29.828 26.179 30.649"/><polygon fill="#B2B0AF" points="26.205 39.916 24.792 39.095 24.78 34.872 26.193 35.693"/><polygon fill="#C4C2C0" points="26.179 30.649 33.397 31.123 26.205 39.916"/></g></g></svg>