<svg xmlns="http://www.w3.org/2000/svg" viewBox="0 0 52 52"><path fill="#1d4340" d="M28.897 25.334c0 .24-.09.42-.23.49l-4.02 2.29c.04-.02.07-.05.09-.08-.14.17-.38.19-.65.03-.43-.25-.79-.86-.78-1.35 0-.26.1-.44.25-.51.01-.01.02-.01.03-.02l3.97-2.26c.14-.08.34-.07.56.06.43.25.78.85.78 1.35zm-16.88 9.56c0 .24-.08.42-.22.5l-4.03 2.28c-.14.09-.34.08-.56-.05-.43-.25-.78-.85-.78-1.35 0-.28.11-.47.29-.53l3.96-2.26c.14-.08.34-.07.56.06.43.25.78.85.78 1.35z" class="color1d2943 svgShape"/><path fill="#4c7572" d="M28.895 25.33c0 .244-.084.42-.224.499l-4.027 2.288c.14-.08.225-.255.225-.5.005-.499-.345-1.103-.78-1.353-.219-.124-.419-.134-.559-.055l4.027-2.283c.14-.085.34-.074.56.055.429.25.778.85.778 1.349z" class="color4c5c75 svgShape"/><path fill="#1d4340" d="M24.092 26.267c.43.248.78.85.779 1.348-.002.499-.354.695-.784.447-.434-.25-.787-.854-.785-1.352.001-.499.356-.694.79-.443z" class="color1d2943 svgShape"/><path fill="#4c7572" d="M12.017 34.892c0 .244-.085.42-.225.499l-4.026 2.288c.14-.08.224-.255.224-.5.005-.499-.344-1.103-.779-1.353-.22-.125-.42-.135-.56-.055l4.028-2.283c.14-.085.34-.075.56.055.428.25.778.85.778 1.349z" class="color4c5c75 svgShape"/><path fill="#1d4340" d="M7.213 35.829c.43.248.78.85.78 1.348-.002.498-.354.695-.785.447-.433-.25-.786-.854-.785-1.353.002-.498.357-.693.79-.442z" class="color1d2943 svgShape"/><path fill="#1d4340" d="M29.217 22.734c0 .4-.29.9-.65 1.1l-23.54 13.33c-.18.11-.35.11-.47.05l-1.99-1.14c-.11-.06-.19-.21-.19-.4l-.04-17.01c0-.4.28-.9.65-1.1l23.53-13.33c.18-.1.35-.11.47-.05l1.98 1.14c-.02-.02-.06-.01-.09-.02.17.04.29.18.29.43l.05 17z" class="color1d2943 svgShape"/><path fill="#4c7572" d="M28.97 5.322c-.11-.063-.275-.054-.458.045L4.979 18.7c-.367.207-.66.702-.651 1.106l.046 17.002c0 .198.073.342.192.405l-1.994-1.137c-.12-.063-.193-.207-.193-.405l-.046-17.002c0-.404.284-.9.651-1.106L26.517 4.23c.184-.099.349-.108.468-.045l1.985 1.137z" class="color4c5c75 svgShape"/><path fill="#1d4340" d="M28.513 5.368c.357-.203.65-.038.652.364l.049 17.001c.001.403-.29.898-.648 1.1L5.031 37.168c-.363.206-.657.042-.658-.36l-.05-17.002c0-.402.291-.898.654-1.104L28.513 5.368z" class="color1d2943 svgShape"/><path fill="#fff" d="M5.24 19.803a.561.561 0 0 1 .196-.322L27.839 6.788a.275.275 0 0 1 .413.233l.045 15.715a.569.569 0 0 1-.19.319L5.7 35.75a.275.275 0 0 1-.413-.233l-.045-15.714z" class="colorffffff svgShape"/><path fill="#defbf9" d="M47.037 35.634c0 .14-.1.28-.28.38l-23.53 13.33c-.36.21-.95.21-1.29 0l-14.98-8.54c-.18-.1-.27-.23-.27-.36v-2.3c0-.14.09-.27.27-.37l23.54-13.34c.36-.2.94-.2 1.3 0 .83.474 12.978 7.415 14.97 8.54.19.1.27.24.26.38l.01 2.28z" class="colordedffb svgShape"/><path fill="#defbf9" d="M47.033 35.633c0 .144-.091.28-.275.378L23.225 49.343c-.357.207-.944.207-1.292 0l-14.98-8.537c-.174-.099-.266-.234-.266-.36l-.003-2.3c0 .126.092.261.266.36l14.98 8.537c.358.207.935.207 1.293 0l23.533-13.332c.183-.099.275-.243.275-.377l.002 2.3z" class="colordedffb svgShape"/><path fill="#f8fefe" d="M46.76 33.713 23.22 47.047c-.354.204-.938.204-1.292 0L6.954 38.505c-.364-.204-.354-.531 0-.736l23.543-13.333c.364-.205.937-.205 1.301 0 .64.365 12.92 7.376 14.973 8.541.354.195.354.532-.01.736z" class="colorf8f9fe svgShape"/><path fill="#e7fcfa" d="M24.457 39.604c-.082.047-.089.12 0 .171l4.519 2.614c.088.051.225.051.307.004l8.854-5.016c.09-.05.09-.128.001-.178l-4.519-2.615a.331.331 0 0 0-.307.004l-8.855 5.016zM40.04 29.141l-24.749 14.12-7.488-4.272 24.75-14.12z" class="colore9e7fc svgShape"/><path fill="#4c7572" d="M28.872 31.474c-.082.046-.082.124 0 .17l.994.568a.341.341 0 0 0 .3 0l1.07-.606c.09-.05.09-.128.008-.175l-.994-.567a.343.343 0 0 0-.308.004l-1.07.606zm-10.007 1.48c-.089.051-.083.125.006.176l.988.563c.088.05.211.05.3 0l1.07-.606c.09-.05.097-.125.008-.175l-.988-.563a.345.345 0 0 0-.314 0l-1.07.606zm-2.438 7.95c-.082.046-.09.12 0 .17l.987.564c.089.05.225.05.308.003l1.076-.61c.083-.046.083-.124-.006-.174l-.987-.564a.329.329 0 0 0-.301 0l-1.077.61zm14.496-10.405c-.083.047-.083.125-.001.171l.994.568a.341.341 0 0 0 .301 0l1.077-.61c.082-.047.082-.125 0-.171l-.994-.568a.341.341 0 0 0-.3 0l-1.077.61zm3.978-.062c-.082.047-.09.12 0 .171l.987.564c.089.05.225.05.308.003l1.076-.61c.083-.046.083-.124-.006-.174l-.987-.564a.33.33 0 0 0-.301 0l-1.077.61zm-2.05 1.162c-.083.046-.09.12-.001.17l.988.564c.088.05.225.05.307.004l1.077-.61c.082-.047.083-.124-.006-.175l-.988-.563a.329.329 0 0 0-.3 0l-1.077.61zm-3.727-4.456c-.082.046-.083.124.006.175l.988.563c.088.05.218.047.3 0l1.077-.61c.082-.047.09-.12 0-.17l-.987-.564a.343.343 0 0 0-.307-.004l-1.077.61zm-2.05 1.161c-.083.047-.083.125.005.175l.988.563c.089.051.219.047.3 0l1.078-.61c.082-.046.09-.12 0-.17l-.987-.564a.343.343 0 0 0-.308-.004l-1.077.61z" class="color4c5c75 svgShape"/><path fill="#4c7572" d="M29.002 29.404c-.083.046-.09.12-.001.17l.994.568a.34.34 0 0 0 .3 0l1.9-1.076 1.772 1.01a.341.341 0 0 0 .3 0l1.077-.61c.082-.047.083-.124.001-.17l-2.916-1.664a.329.329 0 0 0-.3 0l-3.127 1.772zm-3.979.062c-.082.047-.083.124.006.175l.988.563c.088.05.218.047.3 0l1.07-.606c.09-.05.097-.124.008-.175l-.988-.563a.345.345 0 0 0-.314 0l-1.07.606zm1.928 1.1c-.082.046-.083.124 0 .17l.994.568a.341.341 0 0 0 .3 0l1.07-.606c.09-.05.09-.129.008-.175l-.994-.567a.343.343 0 0 0-.308.003l-1.07.606zm-3.985.065c-.082.047-.083.125.006.175l.988.564c.088.05.218.046.3 0l1.077-.61c.082-.047.09-.12 0-.171l-.987-.564a.343.343 0 0 0-.307-.003l-1.077.61zm1.928 1.1c-.082.047-.083.124-.001.17l.995.568a.34.34 0 0 0 .3 0l1.077-.61c.082-.046.083-.124.001-.17l-.995-.568a.34.34 0 0 0-.3 0l-1.077.61zm-3.978.062c-.083.047-.083.124.005.175l.988.563c.089.05.219.047.3 0l1.078-.61c.082-.046.09-.12 0-.17l-.987-.564a.343.343 0 0 0-.308-.004l-1.076.61zm5.9 1.033c-.083.047-.084.125-.002.171l.995.568a.341.341 0 0 0 .3 0l1.077-.61c.083-.047.083-.125.001-.171l-.994-.567a.341.341 0 0 0-.301 0l-1.077.61zm-3.972.067c-.083.046-.083.124-.001.17l.994.568a.341.341 0 0 0 .301 0l1.077-.61c.082-.047.082-.125 0-.171l-.994-.567a.34.34 0 0 0-.3 0l-1.077.61zm1.92 1.095c-.082.047-.082.125 0 .171l.994.567a.34.34 0 0 0 .301 0l1.077-.61c.082-.046.083-.124 0-.17l-.994-.568a.34.34 0 0 0-.3 0l-1.077.61zm-3.97.066c-.09.05-.084.124-.002.171l.995.567c.082.047.211.05.3 0l1.07-.606c.09-.05.09-.128.008-.175l-.994-.567a.344.344 0 0 0-.308.004l-1.07.606zm1.92 1.096c-.089.05-.082.124 0 .17l.994.568c.082.046.212.05.3 0l1.07-.606c.09-.05.09-.128.008-.175l-.994-.567a.344.344 0 0 0-.308.004l-1.07.606zm-3.978.07c-.082.046-.083.124-.001.17l.995.568a.341.341 0 0 0 .3 0l1.077-.61c.082-.047.083-.124.001-.171l-.995-.567a.341.341 0 0 0-.3 0l-1.077.61zm1.921 1.095c-.082.047-.083.124 0 .171l.994.567a.341.341 0 0 0 .3 0l1.077-.61c.083-.046.083-.124.001-.17l-.994-.568a.34.34 0 0 0-.301 0l-1.077.61zm-7.95.128c-.089.05-.09.129 0 .18l.987.562c.089.051.219.047.308-.003l1.07-.606c.088-.051.096-.125.007-.175l-.988-.564a.345.345 0 0 0-.314 0l-1.07.606zM10.65 37.61c-.082.046-.083.124.006.175l.988.563c.088.05.218.047.3 0l1.077-.61c.082-.047.09-.12.001-.17l-.988-.564a.343.343 0 0 0-.307-.004l-1.077.61zm9.885.967c-.082.047-.09.12-.001.171l.988.564c.088.05.225.05.307.004l11.336-6.422c.089-.05.09-.129 0-.18l-.987-.562a.332.332 0 0 0-.308.003l-11.335 6.422zm-7.957.132c-.082.047-.083.125-.001.171l.995.567a.34.34 0 0 0 .3 0L17 37.675c.09-.05.09-.128.008-.175l-.994-.567a.343.343 0 0 0-.308.004l-3.127 1.771zm1.921 1.096c-.082.047-.083.124 0 .17l.994.568a.341.341 0 0 0 .3 0l5.185-2.937c.082-.047.083-.124 0-.17l-.994-.568a.341.341 0 0 0-.3 0l-5.185 2.937zm2.309-5.684c-.082.047-.083.124.006.175l.988.563c.088.05.218.047.3 0l1.077-.61c.082-.046.09-.12.001-.17l-.988-.564a.343.343 0 0 0-.307-.004l-1.077.61zm-.122 2.261c-.083.047-.083.125-.001.171l.994.567a.34.34 0 0 0 .301 0l1.077-.61c.082-.046.082-.124 0-.17l-.994-.568a.341.341 0 0 0-.3 0l-1.077.61zm-1.928-1.1c-.083.047-.083.125.005.176l.988.563c.089.05.219.047.3 0l1.078-.61c.082-.047.09-.12 0-.171l-.987-.563a.343.343 0 0 0-.308-.004l-1.076.61zm3.726 4.457c-.089.05-.096.124-.007.175l.987.563c.089.05.226.05.315 0l1.07-.606c.089-.05.09-.128 0-.179l-.987-.563a.332.332 0 0 0-.308.004l-1.07.606z" class="color4c5c75 svgShape"/><path fill="#f8fefe" d="m9.425 40.513-.004 1.299-2.094-1.186.004-1.3z" class="colorf8f9fe svgShape"/><path fill="#4c7572" d="m7.477 39.575-.003.968.004.003.857-.485z" class="color4c5c75 svgShape"/><path fill="#1d4340" d="m7.478 40.546 1.797 1.018.004-.968-.944-.535z" class="color1d2943 svgShape"/><path fill="#f8fefe" d="m12.516 42.268-.004 1.3-2.094-1.187.004-1.299z" class="colorf8f9fe svgShape"/><path fill="#4c7572" d="m10.567 41.33-.003.969.005.002.856-.485z" class="color4c5c75 svgShape"/><path fill="#1d4340" d="m10.569 42.301 1.797 1.018.004-.968-.945-.535z" class="color1d2943 svgShape"/><path fill="#51f4e7" d="m8.576 23.27-1.517-.416 1.54-2.209c.14-.196.163-.434.05-.542-.138-.129-.345-.01-.467.162l-1.885 2.7c-.143.2-.18.52.033.59l1.896.517c.18.048.365-.146.447-.319.085-.187.088-.429-.097-.484zm5.758-4.932-1.895-.518c-.175-.046-.362.14-.448.32-.087.186-.085.433.097.478l1.517.415-1.541 2.21c-.139.2-.16.434-.05.546.14.13.348.009.468-.162l1.886-2.7c.147-.22.174-.538-.034-.589zm-3.117-.813-2.363 6.803c-.073.2-.024.421.172.425.186 0 .357-.205.42-.386l2.365-6.803c.048-.139.043-.265-.014-.347-.126-.178-.455-.053-.58.308z" class="colorf45170 svgShape"/><path fill="#defbf9" d="M27.358 15.546 6.179 27.774l.003.869 21.176-12.227zM27.358 9.181l-11.787 6.806v.87l11.787-6.805zM27.358 11.953l-11.787 6.806v.871l11.787-6.806zM27.358 17.903 6.179 30.131l.003.869 21.176-12.226zM27.358 20.26 6.179 32.488l.003.869 21.176-12.226z" class="colordedffb svgShape"/><path fill="#defbf9" d="M39.167 3.614c0-.26-.1-.44-.25-.51l-.95-.55c-.13-.09-.34-.07-.54.05l-13.46 7.77c-.43.24-.78.86-.78 1.35l.02 5.78c0 .25.08.43.22.51l.97.56c.14.08.34.06.55-.06l13.45-7.76c.43-.25.78-.86.78-1.35l-.01-5.79zm-14.88 8.09c-.08.2-.13.4-.13.58l.01 5.77-.02-5.78c0-.18.05-.38.14-.57z" class="colordedffb svgShape"/><path fill="#defbf9" d="M38.945 3.113c-.151-.082-.343-.068-.562.055L24.93 10.933c-.425.247-.781.864-.781 1.343l.013 5.792c0 .246.096.424.233.507l-.973-.562c-.137-.082-.219-.26-.219-.507l-.014-5.778c0-.493.343-1.11.782-1.357l13.451-7.765c.206-.123.412-.137.549-.055l.973.562z" class="colordedffb svgShape"/><path fill="#f1fcfb" d="M38.384 3.171c.43-.247.78-.047.782.445l.012 5.79c.001.492-.348 1.097-.776 1.344l-13.453 7.767c-.428.248-.78.048-.78-.445l-.013-5.79c-.001-.492.348-1.096.776-1.344l13.452-7.767z" class="colorf3f1fc svgShape"/><path fill="#defbf9" d="M32.105 7.969v.871l6.242-3.604v-.87zM32.105 9.987v.87l6.242-3.603v-.871zM32.105 12.004v.871l6.242-3.604v-.87z" class="colordedffb svgShape"/><path fill="#49feef" d="m31.267 14.864-6.32 3.65c-.21.12-.41.14-.55.06l-.97-.56c-.14-.09-.23-.26-.23-.5l-.01-5.78c0-.5.34-1.11.78-1.37l6.3-3.64.97.57.01-.01.02 7.58z" class="color497bfe svgShape"/><path fill="#49feef" d="m31.239 7.29-6.308 3.645c-.43.24-.783.86-.783 1.34l.012 5.792c0 .253.101.43.24.506l-.973-.557c-.139-.088-.227-.265-.227-.505l-.013-5.78c0-.492.341-1.112.784-1.364l6.294-3.645.974.569z" class="color497bfe svgShape"/><path fill="#41e1d4" d="m31.245 7.288.018 7.579-6.314 3.65c-.428.248-.78.048-.78-.445l-.013-5.79c-.001-.492.348-1.096.776-1.344l6.313-3.65z" class="color57b3fe svgShape"/><path fill="#fff" d="m26.448 14.625-1.09-.298 1.107-1.586c.1-.141.117-.312.036-.39-.1-.093-.249-.006-.336.117l-1.353 1.939c-.103.143-.13.373.023.423l1.362.372c.129.034.262-.105.32-.23.062-.134.064-.307-.069-.347zm4.135-3.54-1.361-.373c-.125-.033-.26.1-.321.23-.063.133-.061.31.07.343l1.089.298-1.107 1.587c-.1.144-.115.312-.036.392.1.094.25.007.336-.116l1.355-1.94c.105-.157.125-.386-.025-.422zm-2.238-.585-1.697 4.886c-.052.144-.017.302.123.304.134 0 .257-.147.303-.276l1.697-4.886c.035-.1.031-.19-.01-.249-.09-.128-.327-.038-.416.221z" class="colorffffff svgShape"/><path fill="#5ec3bb" d="m49.657 22.484-1.27-.08c-.03-.1-.1-.2-.15-.3l.11-.08v-1.35l-1.17-.68-1 .46c-.61-.25-1.3-.4-2-.48l-.14-.73h-1.66l-.14.73c-.7.08-1.38.24-1.99.48l-1-.46-1.17.68v1.35l.12.09c-.05.1-.11.19-.15.29l-1.26.08.01.96v1.36l1.26.08c.03.1.1.2.15.3l-.11.08v1.35l1.18.68.99-.46c.62.25 1.3.4 2 .48l.15.73h1.66l.13-.73c.71-.08 1.39-.24 2-.48l1 .46 1.16-.68v-1.35l-.12-.09c.05-.1.12-.19.15-.29l1.27-.08v-1.36l-.01-.96zm-4.27 1.73c-1.19.69-3.12.69-4.31 0a2.23 2.23 0 0 1-.66-.57c.15-.21.36-.4.65-.57 1.18-.69 3.1-.69 4.29 0 .3.17.52.37.67.58-.15.2-.36.39-.64.56z" class="color5ec363 svgShape"/><path fill="#5ec3bb" d="m48.35 20.672-.004 1.352-.788.577.004-1.351zM38.872 21.248l-.003 1.352-.792-.576.004-1.351z" class="color5ec363 svgShape"/><path fill="#61d5cc" d="m46.265 22.976-.004 1.351c.001-.454-.299-.909-.9-1.255-1.19-.688-3.11-.685-4.293.003-.59.343-.887.791-.888 1.24l.004-1.352c.001-.448.297-.896.888-1.24 1.183-.687 3.103-.69 4.293-.003.601.347.9.802.9 1.256z" class="color72d561 svgShape"/><path fill="#5ec3bb" d="m49.666 23.448-.004 1.351-1.268.084.004-1.351zM38.057 23.531l-.004 1.351-1.261-.083.004-1.351z" class="color5ec363 svgShape"/><path fill="#61d5cc" d="m48.398 23.532-.004 1.351c-.127.408-.402.8-.82 1.157l.005-1.352c.417-.355.692-.748.819-1.156zm-9.509 1.155-.004 1.351c-.421-.356-.697-.75-.832-1.156l.004-1.351c.134.406.41.8.832 1.156z" class="color72d561 svgShape"/><path fill="#5ec3bb" d="m47.206 25.941-.004 1.351-.997-.456.004-1.352z" class="color5ec363 svgShape"/><path fill="#61d5cc" d="m48.371 25.264-.004 1.352-1.165.676.004-1.351zM39.279 25.944l-.004 1.351-1.178-.679.004-1.352z" class="color72d561 svgShape"/><path fill="#5ec3bb" d="m40.273 25.486-.004 1.351-.994.458.004-1.351z" class="color5ec363 svgShape"/><path fill="#61d5cc" d="m46.21 25.484-.005 1.352a7.681 7.681 0 0 1-1.996.48l.004-1.352a7.681 7.681 0 0 0 1.996-.48zm-3.938.48-.004 1.351a7.772 7.772 0 0 1-1.999-.478l.004-1.351a7.772 7.772 0 0 0 1.999.478z" class="color72d561 svgShape"/><path fill="#5ec3bb" d="m44.213 25.964-.004 1.351-.136.732.004-1.351z" class="color5ec363 svgShape"/><path fill="#61d5cc" d="m44.077 26.696-.004 1.351-1.658-.002.003-1.351z" class="color72d561 svgShape"/><path fill="#5ae7dc" d="m47.579 24.688.792.576-1.165.677-.997-.457a7.681 7.681 0 0 1-1.996.48l-.136.732-1.659-.002-.146-.73a7.772 7.772 0 0 1-2-.478l-.993.458-1.178-.68.788-.577c-.421-.356-.698-.75-.832-1.156l-1.26-.083-.009-.96 1.263-.082c.132-.408.404-.802.821-1.158l-.791-.575 1.164-.677.997.457a7.712 7.712 0 0 1 1.994-.479l.14-.734 1.657.003.144.731a7.702 7.702 0 0 1 2.001.477l.995-.458 1.177.68-.788.577c.421.356.698.75.83 1.158l1.263.08.01.96-1.267.084c-.127.408-.402.8-.82 1.156zm-6.501-.476c1.193.689 3.118.689 4.304 0 1.183-.688 1.176-1.803-.017-2.492-1.19-.687-3.11-.684-4.293.003-1.186.69-1.185 1.801.006 2.489z" class="color78e75a svgShape"/><path fill="#5ec3bb" d="m42.418 26.694-.003 1.351-.147-.73.004-1.351z" class="color5ec363 svgShape"/></svg>