<svg xmlns="http://www.w3.org/2000/svg" enable-background="new 0 0 512 512" viewBox="0 0 512 512"><path fill="#fff" d="M418.628,93.372c89.829,89.819,89.829,235.437,0,325.256
			c-89.819,89.829-235.437,89.829-325.256,0c-89.829-89.819-89.829-235.437,0-325.256C183.191,3.543,328.809,3.543,418.628,93.372z" class="colorffffff svgShape"/><path fill="#a4f7f0" d="M256,206c27.61,0,50,22.39,50,50s-22.39,50-50,50s-50-22.39-50-50
			S228.39,206,256,206z" class="colora4c2f7 svgShape"/><polygon fill="#a4f7f0" points="256 316 306 376 286 376 286 436 226 436 226 376 206 376" class="colora4c2f7 svgShape"/><polygon fill="#a4f7f0" points="436 226 436 286 376 286 376 306 316 256 376 206 376 226" class="colora4c2f7 svgShape"/><polygon fill="#a4f7f0" points="306 136 256 196 206 136 226 136 226 76 286 76 286 136" class="colora4c2f7 svgShape"/><polygon fill="#a4f7f0" points="196 256 136 306 136 286 76 286 76 226 136 226 136 206" class="colora4c2f7 svgShape"/><path fill="#41e1d4" d="M256,491c-62.771,0-121.785-24.444-166.17-68.83
						C45.444,377.784,21,318.771,21,256c0-62.771,24.444-121.785,68.83-166.17C134.215,45.444,193.229,21,256,21
						c62.771,0,121.785,24.444,166.17,68.83C466.556,134.215,491,193.229,491,256c0,62.771-24.444,121.784-68.83,166.17
						C377.785,466.556,318.771,491,256,491z M256,31.105c-57.618,0-115.235,21.932-159.099,65.795
						c-87.727,87.728-87.727,230.471,0,318.199c87.728,87.727,230.47,87.726,318.199,0l3.535,3.535L415.1,415.1
						c87.727-87.729,87.727-230.472,0-318.199C371.235,53.037,313.618,31.105,256,31.105z" class="color418cfe svgShape"/><path fill="#41e1d4" d="M291 441h-70v-60h-25.675L256 308.189 316.675 381H291V441zM231 431h50v-60h14.325L256 323.811 216.675 371H231V431zM256 203.811L195.325 131H221V71h70v60h25.675L256 203.811zM216.675 141L256 188.189 295.325 141H281V81h-50v60H216.675zM131 316.675V291H71v-70h60v-25.675L203.81 256 131 316.675zM81 281h60v14.325L188.19 256 141 216.675V231H81V281zM381 316.675L308.189 256 381 195.325V221h60v70h-60V316.675zM323.811 256L371 295.325V281h60v-50h-60v-14.325L323.811 256z" class="color418cfe svgShape"/><path fill="#41e1d4" d="M256,311c-30.327,0-55-24.673-55-55s24.673-55,55-55s55,24.673,55,55
						S286.327,311,256,311z M256,211c-24.813,0-45,20.187-45,45s20.187,45,45,45c24.813,0,45-20.187,45-45S280.813,211,256,211z" class="color418cfe svgShape"/></svg>