<svg xmlns="http://www.w3.org/2000/svg" enable-background="new 0 0 512 512" viewBox="0 0 512 512"><path fill="#eaf4f3" d="M425.699,86.301c93.735,93.724,93.735,245.674,0,339.398
			c-93.724,93.735-245.674,93.735-339.398,0c-93.735-93.724-93.735-245.674,0-339.398C180.025-7.434,331.975-7.434,425.699,86.301z" class="coloreaf4f4 svgShape"/><path fill="#38f4e5" d="M256,206c27.61,0,50,22.39,50,50s-22.39,50-50,50s-50-22.39-50-50
			S228.39,206,256,206z" class="colorf4384f svgShape"/><polygon fill="#41e1d4" points="256 316 306 376 286 376 286 436 226 436 226 376 206 376" class="color67afff svgShape"/><polygon fill="#41e1d4" points="436 226 436 286 376 286 376 306 316 256 376 206 376 226" class="color67afff svgShape"/><polygon fill="#41e1d4" points="306 136 256 196 206 136 226 136 226 76 286 76 286 136" class="color67afff svgShape"/><polygon fill="#41e1d4" points="196 256 136 306 136 286 76 286 76 226 136 226 136 206" class="color67afff svgShape"/></svg>