<svg xmlns="http://www.w3.org/2000/svg" enable-background="new 0 0 51 51" viewBox="0 0 51 51"><g enable-background="new"><polygon fill="#A2A4A5" points="28.534 40.143 28.537 41.209 37.183 40.576 37.18 39.509"/><path fill="#B6B9BA" d="M28.6455,41.72193l-0.00302-1.06693c0.00156,0.55061-0.36206,1.10202-1.0899,1.52224
							c-0.9549,0.55131-2.29843,0.73882-3.51481,0.56215l0.00303,1.06693c1.21638,0.17667,2.55991-0.01085,3.51481-0.56215
							C28.28344,42.82396,28.64706,42.27254,28.6455,41.72193z"/><polygon fill="#A2A4A5" points="22.806 48.506 22.809 49.573 24.041 43.806 24.038 42.739"/><polygon fill="#B6B9BA" points="19.781 48.281 19.784 49.348 22.809 49.573 22.806 48.506"/><path fill="#CFD2D3" d="M22.34802,39.15269c-0.72638,0.41937-1.08988,0.96957-1.09009,1.51922
							c-0.00038,0.55159-0.07716,1.10235-0.20166,1.6494l-1.275,5.95969l3.02519,0.22492l1.23131-5.76652
							c1.21638,0.17667,2.55991-0.01085,3.51481-0.56215c0.95554-0.55168,1.28332-1.32948,0.98119-2.03472l8.64635-0.63342
							l-0.37841-1.75304l-8.97967,0.6581c-0.94594,0.07042-1.89814,0.11337-2.85153,0.11207
							C24.02305,38.52502,23.07344,38.73388,22.34802,39.15269z"/></g><g enable-background="new"><path fill="#6D797A" d="M27.602,32.41954l-0.01736,8.19372c-0.0011,0.38973-0.25709,0.77883-0.76871,1.07615
									c-1.03129,0.59932-2.7076,0.59877-3.74467,0.00002c-0.52175-0.30123-0.78239-0.69653-0.78127-1.09132l0.01736-8.19372
									c-0.00112,0.39479,0.25952,0.79009,0.78127,1.09132c1.03708,0.59876,2.71339,0.5993,3.74467-0.00002
									C27.3449,33.19837,27.60089,32.80927,27.602,32.41954z"/><path fill="#7E8A8C" d="M26.83329,33.49569c-0.51251,0.29783-1.18433,0.4472-1.85782,0.44894v8.19324
									c0.66764-0.00425,1.33235-0.15319,1.84047-0.44846c0.51162-0.29732,0.7676-0.68642,0.76871-1.07615l0.01736-8.19372
									C27.60089,32.80927,27.34491,33.19836,26.83329,33.49569z"/><path fill="#2D2C2B" d="M26.82013,31.32719c1.03708,0.59875,1.04349,1.56974,0.01316,2.1685
									c-1.03129,0.59932-2.7076,0.59877-3.74467,0.00002c-1.03708-0.59875-1.04253-1.56918-0.01125-2.1685
									C24.1077,30.72844,25.78305,30.72843,26.82013,31.32719z"/></g><g enable-background="new"><path fill="#B2B0AF" d="M11.62386,46.83733l-3.28816-1.91087c-0.16417-0.09541-0.26585-0.29858-0.26667-0.58728
							l3.28816,1.91087C11.358,46.53875,11.45969,46.74192,11.62386,46.83733z"/><polygon fill="#C4C2C0" points="11.357 46.25 8.069 44.339 8.061 41.448 11.349 43.359"/><path fill="#E9E8E6" d="M40.8524,26.32477l0.0082,2.89148c0.00164,0.58038-0.40627,1.28692-0.91135,1.57853L12.2732,46.77355
							c-0.50508,0.2916-0.91437,0.05688-0.91601-0.5235l-0.0082-2.89148L40.8524,26.32477z"/></g><g enable-background="new"><path fill="#434240" d="M37.2407,1.48883l3.28816,1.91087c-0.16624-0.09661-0.39647-0.08296-0.65063,0.06378l-3.28816-1.91087
							C36.84422,1.40587,37.07446,1.39222,37.2407,1.48883z"/><polygon fill="#494948" points="11.352 43.356 8.062 41.446 8.002 19.106 11.292 21.016"/><polygon fill="#383736" points="11.352 43.356 8.062 41.446 8.038 32.627 11.328 34.537"/><polygon fill="#494948" points="12.202 19.442 8.914 17.531 36.59 1.553 39.878 3.463"/><polygon fill="#383736" points="12.202 19.442 8.914 17.531 22.707 9.568 25.995 11.479"/><path fill="#494948" d="M11.29211,21.02004l-3.28816-1.91087c-0.00165-0.58038,0.40498-1.28617,0.91006-1.57778
							l3.28816,1.91087C11.69709,19.73386,11.29047,20.43965,11.29211,21.02004z"/><path fill="#2D2C2B" d="M39.87822,3.46348c0.50508-0.29161,0.91566-0.05763,0.91731,0.52275l0.05687,22.33854
							l-29.50342,17.0338l-0.05687-22.33854c-0.00165-0.58038,0.40498-1.28617,0.91006-1.57778L39.87822,3.46348z"/><path fill="#0780D3" d="M40.03898,25.85629L12.15606,41.95601l-0.05273-20.9378c0-0.28805,0.25355-0.72822,0.50508-0.87426
							l27.3758-15.8056L40.03898,25.85629z"/></g><g><path fill="#D6D4D2" d="M26.87643,36.16466c0,0.73078-0.51486,1.61935-1.15431,1.993
					c-0.63945,0.36539-1.15431,0.06645-1.16262-0.66433c0-0.73078,0.51486-1.61935,1.15431-1.98474
					C26.35325,35.13493,26.86812,35.43388,26.87643,36.16466z"/></g><g><g enable-background="new"><path fill="#005E87" d="M31.67825,15.27784c1.66065-0.95878,3.01108-0.18921,3.01649,1.71805
							c0.00541,1.90822-1.33625,4.23207-2.9969,5.19084c-1.65982,0.9583-3.01025,0.18873-3.01566-1.71949
							C28.67677,18.55999,30.01844,16.23614,31.67825,15.27784z"/><path fill="#FFF" d="M33.65163,15.78658l1.56782,0.91112c-0.45333-0.26345-1.08121-0.22633-1.77424,0.17379
							l-1.56782-0.91112C32.57042,15.56025,33.19829,15.52313,33.65163,15.78658z"/><path fill="#FFF" d="M31.68816,22.77396l-1.56782-0.91112c-0.44755-0.26009-0.7251-0.81318-0.72733-1.59936
							c-0.00448-1.58152,1.10804-3.50849,2.48438-4.30312l1.56782,0.91112c-1.37634,0.79463-2.48886,2.7216-2.48438,4.30312
							C30.96306,21.96078,31.24061,22.51387,31.68816,22.77396z"/><path fill="#FFF" d="M31.68846,22.77391l-1.56862-0.91058c-0.44653-0.26012-0.72507-0.81394-0.72723-1.59971
							l1.56862,0.91058C30.96339,21.96105,31.24084,22.51379,31.68846,22.77391z"/><path fill="#C4C2C0" d="M33.44521,16.87149c1.37703-0.79503,2.49683-0.1569,2.50131,1.42463
							c0.00449,1.58232-1.10804,3.50928-2.48507,4.30432c-1.37634,0.79463-2.49614,0.1565-2.50063-1.42582
							C30.95635,19.59308,32.06887,17.66612,33.44521,16.87149z"/></g><g enable-background="new"><path fill="#D6D4D2" d="M36.19962,24.7204l-0.01524,4.85218c-0.00036,0.12705-0.084,0.25394-0.25115,0.35108
							c-0.33635,0.19546-0.88229,0.19572-1.22039,0.00051c-0.17052-0.09845-0.2556-0.2274-0.25524-0.35613l0.01524-4.85218
							c-0.00037,0.12873,0.08472,0.25768,0.25524,0.35613c0.33811,0.19521,0.88405,0.19495,1.22039-0.00051
							C36.11562,24.97435,36.19926,24.84745,36.19962,24.7204z"/><path fill="#C4C2C0" d="M35.94847,25.07148c-0.27,0.15691-0.67486,0.18773-0.99905,0.09292v4.85627
							c0.32159,0.0895,0.718,0.05747,0.98381-0.097c0.16715-0.09713,0.25079-0.22404,0.25115-0.35108l0.01524-4.85218
							C36.19926,24.84745,36.11562,24.97435,35.94847,25.07148z"/><path fill="#B2B0AF" d="M35.94847,25.07148c-0.039,0.02266-0.08105,0.04242-0.12504,0.05983v4.84567
							c0.03835-0.0159,0.0754-0.03332,0.1098-0.05332c0.16715-0.09713,0.25079-0.22404,0.25115-0.35108l0.01524-4.85218
							C36.19926,24.84745,36.11562,24.97435,35.94847,25.07148z"/><path fill="#E9E8E6" d="M35.94493,24.36484c0.33811,0.19521,0.33989,0.51118,0.00354,0.70664
							c-0.33634,0.19546-0.88228,0.19572-1.22039,0.00051c-0.33898-0.19571-0.34032-0.51194-0.00398-0.70741
							C35.06044,24.16913,35.60595,24.16913,35.94493,24.36484z"/></g><g enable-background="new"><path fill="#D6D4D2" d="M38.74961,20.86072l3.99574,1.51855c0.11878,0.04509,0.20808,0.16807,0.24011,0.35872
							c0.06446,0.38363-0.12761,0.89467-0.4294,1.14234c-0.15221,0.12491-0.30286,0.15912-0.42321,0.11343l-3.99574-1.51855
							c0.12035,0.04569,0.27101,0.01148,0.42321-0.11343c0.30179-0.24767,0.49386-0.75871,0.4294-1.14234
							C38.9577,21.02879,38.86839,20.90581,38.74961,20.86072z"/><path fill="#C4C2C0" d="M38.98973,21.21944c0.05174,0.30796-0.06202,0.69773-0.26495,0.96774l4.00493,1.50573
							c0.19704-0.26945,0.3067-0.65173,0.25576-0.95492c-0.03203-0.19065-0.12134-0.31363-0.24011-0.35872l-3.99574-1.51855
							C38.86839,20.90581,38.9577,21.02879,38.98973,21.21944z"/><path fill="#B2B0AF" d="M38.98973,21.21944c0.00747,0.04448,0.01115,0.0908,0.01195,0.1381l3.99501,1.502
							c-0.00137-0.04148-0.00463-0.0823-0.01122-0.12154c-0.03203-0.19065-0.12134-0.31363-0.24011-0.35872l-3.99574-1.51855
							C38.86839,20.90581,38.9577,21.02879,38.98973,21.21944z"/><path fill="#E9E8E6" d="M38.32713,20.97383c0.30179-0.24767,0.59814-0.13803,0.6626,0.2456
							c0.06446,0.38364-0.12761,0.89467-0.4294,1.14234c-0.30257,0.24831-0.59901,0.13818-0.66346-0.24546
							C37.83241,21.73269,38.02456,21.22215,38.32713,20.97383z"/></g><g enable-background="new"><path fill="#D6D4D2" d="M37.95024,16.63395l3.67878-3.11086c0.08001-0.06773,0.21841-0.06559,0.38955,0.02209
							l-3.67878,3.11086C38.16865,16.56836,38.03024,16.56622,37.95024,16.63395z"/><path fill="#C4C2C0" d="M42.01857,13.54518l-3.67878,3.11086c0.22942,0.11754,0.45361,0.35625,0.58142,0.59948
							l3.67878-3.11087C42.47218,13.90143,42.24799,13.66273,42.01857,13.54518z"/><path fill="#B2B0AF" d="M42.59999,14.14465l-3.67878,3.11087c0.04631,0.08812,0.08032,0.17683,0.09685,0.26061
							c0.02816,0.14276,0.0019,0.2467-0.06432,0.30276l3.67878-3.11086c0.06623-0.05607,0.09249-0.16,0.06432-0.30277
							C42.68031,14.32148,42.64631,14.23278,42.59999,14.14465z"/><g><path fill="#E9E8E6" d="M38.33979,16.65604c0.31255,0.16014,0.61613,0.5451,0.67827,0.86008
							c0.06214,0.31499-0.14064,0.44095-0.45319,0.28081c-0.31255-0.16014-0.61672-0.54585-0.67887-0.86084
							C37.82386,16.6211,38.02724,16.4959,38.33979,16.65604z"/></g></g><g enable-background="new"><path fill="#E9E8E6" d="M37.09556 15.49676l1.86271 1.10329c-.69259-.40249-1.65174-.34574-2.71036.26545l-1.86271-1.10329C35.44382 15.15101 36.40297 15.09427 37.09556 15.49676zM33.56184 25.88556l-1.86271-1.10329c-.68382-.39739-1.10788-1.24239-1.11128-2.4436-.00685-2.41734 1.69362-5.36187 3.79735-6.57645l1.86271 1.10329c-2.10373 1.21459-3.8042 4.15912-3.79735 6.57645C32.45396 24.64317 32.87802 25.48816 33.56184 25.88556z"/><path fill="#E9E8E6" d="M33.56212,25.88457l-1.8624-1.10318c-0.68451-0.39591-1.10905-1.2426-1.11144-2.44228
								l1.86242,1.10318C32.45307,24.64434,32.87761,25.48864,33.56212,25.88457z"/><path fill="#C4C2C0" d="M36.24791,16.8655c2.10373-1.21459,3.81461-0.23961,3.82146,2.17773
								c0.00686,2.41816-1.69292,5.36228-3.79664,6.57687c-2.10373,1.21459-3.81532,0.24002-3.82217-2.17814
								C32.4437,21.02462,34.14418,18.08009,36.24791,16.8655z"/><path fill="#434240" d="M36.24977,17.54152c1.77884-1.02701,3.2255-0.2026,3.23129,1.84141
								c0.0058,2.04471-1.43147,4.53416-3.21031,5.56117c-1.77884,1.02701-3.22609,0.20295-3.23189-1.84176
								C33.03307,21.05832,34.47093,18.56853,36.24977,17.54152z"/><path fill="#C4C2C0" d="M36.25303,18.72396c1.21056-0.69892,2.19506-0.13788,2.19901,1.25314
								c0.00394,1.39149-0.97417,3.08565-2.18472,3.78456c-1.21056,0.69892-2.19547,0.13811-2.19941-1.25338
								C34.06395,21.11727,35.04247,19.42288,36.25303,18.72396z"/></g><g enable-background="new"><path fill="#D6D4D2" d="M36.19962,11.50063l-0.01524,4.85218c-0.00036,0.12705-0.084,0.25394-0.25115,0.35108
							c-0.33635,0.19546-0.88229,0.19572-1.22039,0.00051c-0.17052-0.09845-0.2556-0.2274-0.25524-0.35613l0.01524-4.85218
							c-0.00037,0.12873,0.08472,0.25768,0.25524,0.35613c0.33811,0.19521,0.88405,0.19495,1.22039-0.00051
							C36.11562,11.75458,36.19926,11.62768,36.19962,11.50063z"/><path fill="#C4C2C0" d="M35.94847,11.85171c-0.27,0.15691-0.67486,0.18773-0.99905,0.09292v4.85627
							c0.32159,0.0895,0.718,0.05747,0.98381-0.097c0.16715-0.09713,0.25079-0.22404,0.25115-0.35108l0.01524-4.85218
							C36.19926,11.62768,36.11562,11.75458,35.94847,11.85171z"/><path fill="#B2B0AF" d="M35.94847,11.85171c-0.039,0.02266-0.08105,0.04242-0.12504,0.05983v4.84567
							c0.03835-0.0159,0.0754-0.03332,0.1098-0.05332c0.16715-0.09713,0.25079-0.22404,0.25115-0.35108l0.01524-4.85218
							C36.19926,11.62768,36.11562,11.75458,35.94847,11.85171z"/><path fill="#E9E8E6" d="M35.94493,11.14507c0.33811,0.19521,0.33989,0.51118,0.00354,0.70664
							c-0.33634,0.19546-0.88228,0.19572-1.22039,0.00051c-0.33898-0.19571-0.34032-0.51194-0.00398-0.7074
							C35.06044,10.94936,35.60595,10.94936,35.94493,11.14507z"/></g><g enable-background="new"><path fill="#D6D4D2" d="M28.62208,16.94827l4.25602,1.72113c0.11779,0.04761,0.20446,0.17245,0.23246,0.36372
							c0.05633,0.38488-0.14648,0.89163-0.45342,1.13277c-0.1548,0.12162-0.30614,0.15259-0.42549,0.10435l-4.25602-1.72113
							c0.11935,0.04824,0.27068,0.01727,0.42549-0.10435c0.30694-0.24114,0.50975-0.74789,0.45342-1.13276
							C28.82654,17.12072,28.73987,16.99588,28.62208,16.94827z"/><path fill="#C4C2C0" d="M28.85453,17.31199c0.04522,0.30896-0.07676,0.69615-0.28533,0.96174l4.26548,1.70851
							c0.20268-0.26514,0.32039-0.64495,0.27588-0.94912c-0.02799-0.19126-0.11467-0.31611-0.23245-0.36372l-4.25603-1.72114
							C28.73987,16.99588,28.82654,17.12072,28.85453,17.31199z"/><path fill="#B2B0AF" d="M28.85453,17.31199c0.00653,0.04462,0.00922,0.09101,0.00903,0.1383l4.25565,1.70457
							c-0.0005-0.0415-0.00288-0.08237-0.00865-0.12174c-0.02799-0.19126-0.11467-0.31611-0.23245-0.36372l-4.25603-1.72114
							C28.73987,16.99588,28.82654,17.12072,28.85453,17.31199z"/><path fill="#E9E8E6" d="M28.19733,17.05232c0.30694-0.24114,0.60088-0.12521,0.65721,0.25967
							s-0.14648,0.89163-0.45342,1.13276c-0.30773,0.24176-0.60175,0.12534-0.65808-0.25954
							C27.68671,17.80034,27.8896,17.29409,28.19733,17.05232z"/></g><g enable-background="new"><path fill="#D6D4D2" d="M27.40238,25.61964l3.67878-3.11086c0.08001-0.06773,0.21842-0.06559,0.38955,0.02209
							l-3.67878,3.11086C27.62079,25.55405,27.48239,25.55191,27.40238,25.61964z"/><path fill="#C4C2C0" d="M31.47071,22.53087l-3.67878,3.11086c0.22942,0.11754,0.45361,0.35625,0.58142,0.59947
							l3.67878-3.11086C31.92432,22.88712,31.70013,22.64842,31.47071,22.53087z"/><path fill="#B2B0AF" d="M32.05213,23.13034l-3.67878,3.11086c0.04631,0.08813,0.08032,0.17683,0.09685,0.26061
							c0.02816,0.14276,0.00191,0.2467-0.06432,0.30276l3.67878-3.11086c0.06623-0.05607,0.09249-0.16,0.06432-0.30277
							C32.13245,23.30717,32.09845,23.21847,32.05213,23.13034z"/><g><path fill="#E9E8E6" d="M27.79193,25.64173c0.31255,0.16014,0.61613,0.5451,0.67827,0.86008
							c0.06214,0.31499-0.14064,0.44095-0.45319,0.28081c-0.31255-0.16014-0.61672-0.54585-0.67887-0.86084
							C27.276,25.60679,27.47938,25.48159,27.79193,25.64173z"/></g></g></g><g><polygon fill="#434240" points="26.152 26.916 14.132 33.861 14.116 27.725 26.135 20.788"/><g enable-background="new"><polygon fill="#B2B0AF" points="25.952 26.492 25.477 26.215 25.457 21.209 25.933 21.485"/><polygon fill="#FFF" points="14.371 33.178 13.895 32.902 25.477 26.215 25.952 26.492"/><polygon fill="#B2B0AF" points="13.666 34.399 13.19 34.123 13.166 27.491 13.642 27.768"/><polygon fill="#C4C2C0" points="13.666 34.399 13.19 34.123 13.178 30.608 13.653 30.884"/><polygon fill="#FFF" points="13.642 27.768 13.166 27.491 26.162 19.988 26.638 20.264"/><polygon fill="#C4C2C0" points="13.642 27.768 13.166 27.491 20.212 23.423 20.688 23.7"/><path fill="#D6D4D2" d="M13.64184,27.76757l12.99596-7.50322l0.02399,6.63169l-12.99596,7.50322L13.64184,27.76757z
									 M25.95233,26.49174l-0.01938-5.00657l-11.58171,6.6867l0.01938,5.00657L25.95233,26.49174"/></g><polygon fill="#FFF" points="19.025 27.445 19.582 27.127 19.582 27.489 19.034 27.807 19.423 28.019 19.202 28.408 18.813 28.187 18.813 28.815 18.495 29 18.495 28.373 18.115 29.035 17.886 28.912 18.274 28.24 17.727 28.558 17.727 28.196 18.274 27.878 17.886 27.657 18.107 27.277 18.495 27.498 18.495 26.871 18.805 26.685 18.805 27.321 19.193 26.65 19.414 26.774"/><polygon fill="#FFF" points="16.304 29.018 16.861 28.7 16.861 29.062 16.313 29.38 16.702 29.592 16.481 29.981 16.092 29.76 16.092 30.387 15.774 30.573 15.774 29.937 15.394 30.608 15.164 30.484 15.553 29.813 15.005 30.131 15.005 29.769 15.553 29.451 15.164 29.23 15.385 28.85 15.774 29.071 15.774 28.443 16.083 28.258 16.083 28.894 16.472 28.223 16.693 28.346"/><polygon fill="#FFF" points="21.747 25.872 22.303 25.554 22.303 25.917 21.755 26.235 22.144 26.447 21.923 26.835 21.535 26.615 21.535 27.242 21.216 27.427 21.216 26.791 20.837 27.463 20.607 27.339 20.996 26.668 20.448 26.986 20.448 26.623 20.996 26.305 20.607 26.084 20.828 25.705 21.216 25.925 21.216 25.298 21.526 25.113 21.526 25.749 21.914 25.077 22.135 25.201"/><polygon fill="#FFF" points="24.468 24.3 25.024 23.982 25.024 24.344 24.477 24.662 24.865 24.874 24.644 25.263 24.256 25.042 24.256 25.669 23.938 25.855 23.938 25.219 23.558 25.89 23.328 25.766 23.717 25.095 23.169 25.413 23.169 25.051 23.717 24.733 23.328 24.512 23.549 24.132 23.938 24.353 23.938 23.726 24.247 23.54 24.247 24.176 24.636 23.505 24.856 23.628"/></g><path fill="#FFF" d="M18.4021,17.8657c-1.35295,0-2.47003,1.08335-2.47003,2.47003c0-1.35999-1.10999-2.47003-2.46997-2.47003
		c1.37062,0,2.46997-1.10976,2.46997-2.46997C15.93207,16.76548,17.03033,17.8657,18.4021,17.8657z"/></svg>