<?xml version="1.0" encoding="UTF-8"?><svg id="Layer_2" xmlns="http://www.w3.org/2000/svg" viewBox="0 0 136.87 196.57"><defs><style>.cls-1{fill:#009573;}.cls-2{fill:#fff;}.cls-3{fill:#8fd4ff;}.cls-4{fill:#bde6ff;}.cls-5{fill:#23c190;}.cls-6{fill:#43bcff;}.cls-7{fill:#17a984;}.cls-8{isolation:isolate;opacity:.08;}</style></defs><g id="Layer_1-2"><path class="cls-8" d="M115.98,139.94L19.63,195.43c-2.63,1.51-5.87,1.51-8.5,0l-8.53-4.92c-2.49-1.44-3.33-4.62-1.89-7.11,.46-.79,1.11-1.44,1.89-1.89l96.37-55.5c2.63-1.51,5.87-1.51,8.5,0l8.52,4.92c2.49,1.44,3.34,4.62,1.9,7.1-.46,.79-1.12,1.45-1.91,1.91Z"/><polygon class="cls-6" points="93.72 137.82 7.23 187.75 7.23 49.93 93.72 0 93.72 137.82"/><polygon class="cls-3" points="97.19 139.8 10.7 189.73 10.7 51.91 97.19 1.97 97.19 139.8"/><polygon class="cls-4" points="100.83 141.88 14.34 191.81 14.34 53.99 100.83 4.05 100.83 141.88"/><polygon class="cls-6" points="21.69 82.09 41.52 70.64 41.52 44.09 21.69 55.54 21.69 82.09"/><polygon class="cls-2" points="88.52 93.65 70.3 104.17 70.3 107.68 88.52 97.16 88.52 93.65"/><polygon class="cls-2" points="88.52 81.87 26.92 117.79 26.92 121.29 88.52 85.37 88.52 81.87"/><polygon class="cls-2" points="88.52 70.48 26.92 106.4 26.92 109.91 88.52 73.99 88.52 70.48"/><polygon class="cls-2" points="66.23 106.35 56.07 112.22 56.07 115.73 66.23 109.86 66.23 106.35"/><polygon class="cls-6" points="88.52 55.49 68.4 67.18 68.4 70.69 88.52 59 88.52 55.49"/><polygon class="cls-2" points="88.52 133.95 70.3 144.47 70.3 147.98 88.52 137.46 88.52 133.95"/><polygon class="cls-2" points="88.52 122.17 26.92 158.08 26.92 161.59 88.52 125.67 88.52 122.17"/><polygon class="cls-2" points="88.52 110.78 26.92 146.7 26.92 150.21 88.52 114.29 88.52 110.78"/><polygon class="cls-2" points="66.23 146.65 37.44 163.49 37.44 167 66.23 150.16 66.23 146.65"/><polygon class="cls-5" points="128.04 77.45 109.86 87.94 118.7 72.11 109.86 67.05 86.04 80.8 86.04 101.69 67.86 112.19 67.86 139.57 76.7 144.64 86.04 129.07 86.04 149.97 94.87 155.03 109.86 136.21 109.86 115.32 128.04 104.83 136.87 82.51 128.04 77.45"/><polygon class="cls-7" points="136.87 82.51 118.7 93.01 118.7 72.11 94.87 85.87 94.87 106.76 76.7 117.25 76.7 144.64 94.87 134.14 94.87 155.03 118.7 141.28 118.7 120.39 136.87 109.89 136.87 82.51"/><polygon class="cls-1" points="76.7 117.25 67.86 112.19 67.86 139.57 76.7 144.64 76.7 117.25"/><polygon class="cls-1" points="94.87 85.87 86.04 80.8 86.04 101.69 94.87 106.76 94.87 85.87"/><polygon class="cls-1" points="94.87 155.03 86.04 149.97 86.04 139.08 94.87 134.14 94.87 155.03"/></g></svg>