<svg xmlns="http://www.w3.org/2000/svg" enable-background="new 0 0 51 51" viewBox="0 0 51 51"><g enable-background="new"><path fill="#00649B" d="M15.29221,48.8896L9.6094,45.58712c-0.53811-0.31272-0.87174-0.97801-0.87442-1.924l5.68281,3.30249
					C14.42047,47.91159,14.7541,48.57689,15.29221,48.8896z"/><polygon fill="#1F8FFF" points="34.388 15.266 27.3 11.147 28.679 2.825 34.362 6.127"/><polygon fill="#3F9AE0" points="34.362 6.127 28.679 2.825 30.266 1.908 35.949 5.211"/><polygon fill="#1F8FFF" points="20.848 23.083 13.761 18.964 27.3 11.147 34.388 15.266"/><polygon fill="#E9E8E6" points="20.823 13.944 15.14 10.641 28.679 2.825 34.362 6.127"/><polygon fill="#C4C2C0" points="34.362 6.127 34.388 15.266 20.848 23.083 20.823 13.944"/><polygon fill="#FFF" points="20.848 23.083 13.761 18.964 15.14 10.641 20.823 13.944"/><polygon fill="#0074D1" points="14.418 46.966 8.735 43.663 8.662 17.832 14.345 21.135"/><polygon fill="#00649B" points="14.418 46.966 8.735 43.663 8.695 29.613 14.378 32.915"/><polygon fill="#0074D1" points="17.332 15.959 11.649 12.657 15.14 10.641 20.823 13.944"/><path fill="#006CB5" d="M35.94896,5.21072l6.32709,3.69528l0.0622,21.93971c0.0054,1.9038-1.33162,4.21962-2.98705,5.17538
					L17.42437,48.68057c-1.65543,0.95576-3.00118,0.18884-3.00658-1.71497l-0.07323-25.83076
					c-0.0054-1.90382,1.33162-4.21962,2.98704-5.17538l3.49093-2.01549l0.02591,9.139L34.38783,15.266l-0.02591-9.139
					L35.94896,5.21072z"/><path fill="#00649B" d="M14.34456,21.13484l-5.68281-3.30249c-0.0054-1.90382,1.33162-4.21962,2.98704-5.17538l5.68281,3.30249
					C15.67618,16.91522,14.33916,19.23102,14.34456,21.13484z"/></g><polygon fill="#383736" points="33.285 9.464 33.299 14.409 30.614 15.959 30.6 11.014"/><path fill="#FFF" d="M38.92561,31.60019c0,0.52002-0.37006,1.14002-0.81,1.40003l-19.5,11.25989
				c-0.45001,0.26001-0.81006,0.05005-0.82001-0.45996l-0.03003-13.54993c-0.01001-0.51001,0.35999-1.14001,0.79999-1.40002
				l19.5-11.26001c0.45001-0.25,0.82001-0.05005,0.82001,0.46997L38.92561,31.60019z"/><polygon fill="#D6D4D2" points="37.18 25.115 37.186 27.14 19.505 37.347 19.499 35.323"/><polygon fill="#D6D4D2" points="37.191 29.199 37.197 31.223 19.516 41.431 19.511 39.407"/><polygon fill="#D6D4D2" points="37.166 20.422 37.172 22.448 19.491 32.656 19.486 30.63"/></svg>