<svg xmlns="http://www.w3.org/2000/svg" viewBox="0 0 130 130"><path fill="#0abcae" d="m105.133 10.223-12.82-7.344a9.45 9.45 0 0 0-1.801-1.032l-.189-.107-.008.016C86.866.354 82.411.86 77.551 3.665L38.065 26.46c-10.857 6.269-19.74 21.655-19.74 34.193v45.591c0 6.114 2.123 10.45 5.547 12.578l-.033.059 14.248 8.072 8.012-13.949 31.453-18.157c10.855-6.269 19.74-21.655 19.74-34.193V23.876l7.841-13.653z" class="color0abcb7 svgShape"/><path fill="#08a598" d="M105.133 10.223 91.411 7.005c-.561-.409-3.363-.398-4.002-.677l-1.018-.408-1.832-.34C81.11 4.178 82.411.859 77.551 3.664L38.065 26.46c-10.857 6.269-19.74 21.655-19.74 34.193v45.591c0 6.114 2.123 10.45 5.547 12.578l-.033.059 14.248 8.072 8.012-13.949 31.453-18.157c10.855-6.269 19.74-21.655 19.74-34.193V23.876l7.841-13.653z" class="color08a5a5 svgShape"/><path fill="#08877d" d="M19.077 54.085c-.479 2.231-.752 4.442-.752 6.568v45.591c0 6.114 2.123 10.45 5.547 12.578l-.033.059 14.248 8.072 8.012-13.949 31.453-18.157c1.844-1.065 3.627-2.411 5.322-3.945L19.077 54.085z" class="color088187 svgShape"/><path fill="#22d1c3" d="M51.635 34.329c-10.857 6.269-19.742 21.655-19.742 34.193v45.591c0 12.538 8.885 17.666 19.742 11.398l39.484-22.796c10.857-6.269 19.742-21.655 19.742-34.193v-45.59c0-12.538-8.885-17.666-19.742-11.398L51.635 34.329z" class="color22d197 svgShape"/><path fill="#16b2a5" d="M110.862 22.932c0-12.538-8.885-17.666-19.742-11.398L51.635 34.329c-10.857 6.269-19.742 21.655-19.742 34.193v45.591c0 12.538 8.885 17.666 19.742 11.398" class="color16b282 svgShape"/><path fill="#41e1d4" d="M42.866 129h-.002c-7.158 0-11.783-5.844-11.783-14.887V68.522c0-12.829 9.037-28.485 20.146-34.897l39.486-22.796c3.201-1.848 6.289-2.784 9.178-2.784 7.158 0 11.785 5.844 11.785 14.887v45.591c0 12.829-9.039 28.485-20.148 34.897l-39.486 22.796C48.84 128.063 45.754 129 42.866 129zM99.891 9.674c-2.6 0-5.414.863-8.363 2.564L52.042 35.033c-10.66 6.156-19.334 21.179-19.334 33.489v45.591c0 8.178 3.891 13.259 10.156 13.259h.002c2.6 0 5.412-.864 8.361-2.565l39.486-22.795c10.66-6.155 19.334-21.179 19.334-33.489V22.932c0-8.178-3.89-13.258-10.156-13.258z" class="color3dfcb7 svgShape"/><path fill="#1f9b91" d="M72.294 51.682C66.276 55.155 61.35 63.686 61.35 70.636V95.91c0 6.95 4.926 9.792 10.944 6.317L94.182 89.59c6.02-3.475 10.944-12.005 10.944-18.955V45.363c0-6.951-4.925-9.793-10.944-6.318L72.294 51.682z" class="color1f489b svgShape"/><path fill="#3fefe1" d="M68.292 66.318c1.41-.823 2.57-2.836 2.578-4.471.006-1.641-1.148-2.309-2.564-1.491-1.419.819-2.578 2.833-2.578 4.474s1.151 2.313 2.564 1.488z" class="color3fef3f svgShape"/><path fill="#25d6c8" d="M68.305 60.356c-1.419.819-2.578 2.833-2.578 4.474s1.152 2.312 2.564 1.488" class="color25d625 svgShape"/><path fill="#60fcef" d="M50.407 48.307c-6.02 3.475-10.944 12.004-10.944 18.953v25.274c0 6.951 4.925 9.793 10.944 6.318l21.888-12.636c6.019-3.476 10.944-12.005 10.944-18.957V41.987c0-6.95-4.926-9.792-10.944-6.317L50.407 48.307z" class="color607efc svgShape"/><path fill="#4aede0" d="M83.239 41.987c0-6.95-4.926-9.792-10.944-6.317L50.407 48.307c-6.02 3.475-10.944 12.004-10.944 18.953v25.274c0 6.951 4.925 9.793 10.944 6.318" class="color4a71ed svgShape"/><path fill="#fff" d="M39.462 67.26v3.376l43.776-25.274v-3.374c0-6.95-4.926-9.792-10.944-6.317L50.407 48.307c-6.02 3.474-10.945 12.004-10.945 18.953z" class="colorffffff svgShape"/><path fill="#d0d8d7" d="M72.294 35.67 50.407 48.307c-6.02 3.475-10.944 12.004-10.944 18.953v2.673l43.776-25.275v-2.67c0-6.951-4.926-9.793-10.945-6.318z" class="colord0d5d8 svgShape"/><path fill="#3fefe1" d="M46.403 62.943c1.41-.824 2.57-2.836 2.578-4.47.007-1.642-1.146-2.309-2.563-1.493-1.42.82-2.578 2.835-2.578 4.475-.001 1.641 1.152 2.313 2.563 1.488z" class="color3fef3f svgShape"/><path fill="#16b2a5" d="M72.294 51.682C66.276 55.155 61.35 63.686 61.35 70.636v21.899l10.944-6.318c6.019-3.476 10.944-12.005 10.944-18.957V45.363l-10.944 6.319z" class="color16b282 svgShape"/><path fill="#10998e" d="m83.239 45.363-10.944 6.318C66.276 55.155 61.35 63.686 61.35 70.636v21.899" class="color109999 svgShape"/><path fill="#25d6c8" d="M46.417 56.98c-1.42.82-2.578 2.835-2.578 4.475 0 1.641 1.152 2.312 2.563 1.488" class="color25d625 svgShape"/></svg>