<svg xmlns="http://www.w3.org/2000/svg" viewBox="0 0 130 130"><path fill="#D4DAE8" d="m124.769 87.804 1.13-.19-.73.77-.67.77-3.81 4.3c-.1.22-.25.39-.43.5l-44.48 25.81c.11-.07.2-.15.27-.26-.35.45-.99.51-1.71.09-1.1-.63-1.99-2.17-1.99-3.47.01-.75.33-1.24.83-1.38-.09.02-.17.06-.25.09l44.48-25.76a.93.93 0 0 1 .4-.12l5.87-.97 1.09-.18zM4.229 49.314l-.02-9.28 3.89 1.66 8.05-13.93 2.24 1.3 1.25.8 10.15-17.42 2.24 1.3 1.69 1.25 5.97-11.52 2.24 1.3.02 7.03 2.84-5.47 2.23 1.3.02 7.02 2.84-5.47 2.24 1.3.07 25.33-35.53 20.51-2.24-1.3-.01-3.2-2.85 1.65-2.23-1.3-.01-3.2-2.85 1.64zM128.979 40.614c.03.15.04.3.04.45l-.01 2.45c0 .43-.11.86-.32 1.26-.08.16-.18.32-.3.47-.23.31-.52.6-.87.87-.1.09-.2.16-.31.22-.12.1-.26.17-.39.26-.16.08-.32.17-.49.26-.1.04-.2.09-.31.14-.28.13-.56.24-.87.33-.1.03-.2.07-.31.09-.28.09-.57.16-.88.22l-.31.06c-.29.05-.57.09-.87.11-.09.01-.2.03-.3.03-.3.03-.59.05-.88.05h-.31c-.3 0-.59-.03-.87-.05-.1 0-.21-.02-.31-.03a8.84 8.84 0 0 1-.88-.12c-.1-.01-.21-.04-.31-.06-.29-.06-.59-.14-.87-.22-.11-.03-.21-.05-.3-.09-.31-.1-.6-.21-.89-.34-.11-.04-.2-.09-.3-.14-.16-.08-.31-.16-.46-.24-.14-.09-.29-.17-.41-.26-.11-.07-.21-.15-.31-.23-.35-.26-.65-.55-.87-.86a2.46 2.46 0 0 1-.31-.48c-.23-.41-.34-.84-.34-1.28l.01-2.41c0-.14.01-.28.03-.42-.01-.1-.04-.2-.04-.3l.01-2.41c-.02-1.13.72-2.27 2.21-3.13 2.94-1.72 7.74-1.72 10.7 0 1.49.86 2.24 1.99 2.24 3.12l-.01 2.46c0 .07-.02.15-.03.22z"/><path fill="#D4DAE8" d="m76.779 35.944 1.04-.6-1.02-.59-.02-4.32 1.04-.59-1.02-.6-.02-4.31 1.04-.6-1.02-.59-.02-4.32 5.04-2.91 14.55-8.41 3.14-1.82.01.01 3.16-1.83h.01l3.27-1.88 3.7 2.15 6.74 3.91 3.7 2.16h.01v4.31l-1.03.6 1.02.6.01-.01v4.32l-1.03.59 1.02.6h.01v4.31l-1.03.6 1.02.6h.01v4.31l-6.4 3.69-.38.23-.61.35-.01.86c0 .08-.02.15-.02.23.03.2.03.41.02.61.01-.02.02-.07.02-.16l-.02 2.45c0 .05-.01.09-.01.14.02.17.02.34.01.51.01-.03.02-.07.02-.17l-.02 2.45c0 .08-.02.15-.02.23.03.21.03.41.02.62a.54.54 0 0 0 .02-.17l-.02 2.45c0 .05-.01.1-.01.14.02.18.02.35.01.52.01-.03.02-.08.02-.17l-.02 2.45c0 .07-.02.15-.02.22.03.21.03.42.02.62.01-.03.02-.07.02-.17l-.02 2.46c0 .42-.11.85-.31 1.26-.09.16-.19.32-.31.46-.22.31-.51.6-.87.87-.1.09-.2.16-.31.22-.12.1-.25.18-.39.26-.16.09-.32.17-.49.26-.1.05-.2.1-.31.15-.28.12-.56.23-.87.33-.09.02-.19.06-.3.08-.28.09-.58.16-.88.22-.1.03-.21.04-.31.06-.3.05-.58.09-.87.12-.1.01-.21.02-.31.02-.29.04-.59.05-.88.05h-.31c-.29 0-.59-.03-.87-.05-.1 0-.21-.01-.3-.02-.3-.03-.59-.08-.89-.13-.09-.01-.2-.03-.3-.06-.3-.06-.59-.13-.87-.22-.11-.02-.21-.05-.31-.09-.31-.09-.6-.2-.88-.34-.11-.04-.21-.08-.31-.13-.16-.09-.3-.16-.45-.25-.15-.08-.3-.17-.42-.26-.11-.07-.21-.14-.3-.23-.36-.26-.65-.55-.88-.86-.12-.14-.23-.3-.3-.47a2.65 2.65 0 0 1-.34-1.29l.01-2.33v-.08c-.01-.14 0-.28.02-.41-.01-.11-.03-.21-.03-.31l.01-2.33v-.08c0-.09.01-.19.02-.29-.01-.08-.03-.16-.03-.24v-1.26l-6.63 3.83-14.14-8.22-.02-4.32zM7.699 63.584l52.71-30.43 65.05 37.8h.01l.02 9.15-52.7 30.43-65.06-37.8zM65.679 108.824v3.37c0 .13-.09.28-.28.4l-25.39 14.66c-.38.22-1.01.22-1.39 0l-37.35-21.72c-.19-.1-.28-.24-.28-.38l-.01-3.37h.01c-.01-.15.09-.3.28-.41l25.4-14.66c.38-.22.99-.22 1.38 0l37.35 21.72c.19.11.28.25.28.39z"/><path fill="#E4E8F4" d="m7.701 63.581 65.053 37.802 52.707-30.428-65.053-37.802z"/><path fill="#FFF" d="m32.899 75.579 39.642 23.043 48.15-27.802-39.642-23.031z"/><path fill="#BAC1CE" d="m7.701 63.581.026 9.149 65.057 37.807-.026-9.149z"/><path fill="#AFB5BF" d="m72.758 101.388.026 9.149 52.706-30.43-.026-9.149z"/><path fill="#BAC1CE" d="M69.83 62.993c-.996.575-1.002 1.51-.012 2.086.356.207.793.338 1.252.396.373.046.76.043 1.131-.008a3.367 3.367 0 0 0 1.21-.393c.76-.439.947-1.086.551-1.623a1.73 1.73 0 0 0-.532-.458 2.53 2.53 0 0 0-.13-.07c-.996-.503-2.516-.48-3.47.07z"/><path fill="#5B5E71" d="M72.201 65.467a4.369 4.369 0 0 1-1.13.008l-.098 6.022a4.388 4.388 0 0 1 1.126-.014l.102-6.016z"/><path fill="#EFAC41" d="M83.17 56.957c-.846.489-.977 1.229-.402 1.793.106.104.237.203.39.292.12.07.248.13.383.183.986.385 2.335.327 3.218-.183.996-.575 1.001-1.51.011-2.085-.99-.575-2.603-.575-3.6 0z"/><path fill="#5B5E71" d="M73.3 62.924c.044.022.088.045.13.07.233.135.41.29.532.457l9.58-4.226a2.753 2.753 0 0 1-.383-.183 1.967 1.967 0 0 1-.39-.292L73.3 62.924z"/><path fill="#CAD0DD" d="m12.473 63.134 1.11.645L60.729 36.56l-1.111-.646zM27.445 71.835l1.118.649L59.262 54.76l-1.118-.65z"/><path fill="#DB943E" d="M55.858 44.106c-3.605 2.081-3.631 5.453-.107 7.551l6.571-3.794-6.464-3.757z"/><path fill="#4C7891" d="m57.333 51.661.09.045c3.614 2.099 9.484 2.11 13.12 0 3.637-2.099 3.648-5.5.045-7.598-3.614-2.1-9.495-2.11-13.143 0l6.465 3.748-6.577 3.805z"/><path fill="#CAD0DD" d="m15.47 64.876 1.111.645 47.145-27.219-1.111-.646zM18.46 66.613l1.118.65 30.699-17.724-1.117-.65zM21.458 68.355l1.11.646 30.699-17.725-1.11-.645zM24.455 70.097l1.11.645 30.7-17.724-1.111-.645zM30.442 73.576l1.111.646 30.699-17.724-1.11-.646z"/><path fill="#576CFB" d="M69.787 71.884c-.89.514-.988 1.314-.296 1.889.084.069.178.135.284.197.167.097.351.177.547.241.971.32 2.224.237 3.053-.241.996-.575 1.008-1.506.012-2.085-.365-.213-.816-.346-1.288-.402a4.388 4.388 0 0 0-1.126.014 3.341 3.341 0 0 0-1.186.387z"/><path fill="#5B5E71" d="M60.18 80.58c.226.067.439.156.628.266.083.048.158.099.227.151l9.287-6.786a2.885 2.885 0 0 1-.547-.241 2.071 2.071 0 0 1-.284-.197l-9.31 6.806z"/><path fill="#75CA75" d="M57.208 80.846c-.996.575-1.001 1.51-.012 2.085.997.58 2.604.575 3.6 0 .914-.527 1-1.354.239-1.934a2.174 2.174 0 0 0-.227-.151 2.925 2.925 0 0 0-.628-.267c-.957-.287-2.166-.198-2.972.267z"/><path fill="#FA5168" d="m55.358 86.554 17.51 10.17 44.55-25.71-25.37-14.75 2.27 9.38-11.74 1.4 3.93 8.18-15.41 1.45 1.45 9.33z"/><path fill="#D4DAE8" d="M65.078 102.784c1.2.99 2.44 1.92 3.68 2.85s2.5 1.83 3.76 2.74l.13.09.13-.08c1.31-.76 2.64-1.49 3.94-2.27 1.3-.77 2.6-1.56 3.87-2.39-1.37.66-2.72 1.35-4.06 2.06-1.29.68-2.57 1.4-3.85 2.09-1.24-.85-2.45-1.72-3.7-2.55-1.29-.87-2.58-1.73-3.9-2.54z"/><path fill="#D4DAE8" d="M69.908 102.584c.41.43.86.8 1.32 1.17.45.38.92.72 1.39 1.07l.13.09.14-.08c.99-.57 1.96-1.17 2.87-1.89-1.04.37-2.02.87-2.98 1.38-.44-.31-.88-.61-1.33-.88-.5-.31-1.01-.61-1.54-.86z"/><path fill="#75CA75" d="m76.781 35.944.013 4.317 14.149 8.223-.013-4.317z"/><path fill="#75CA75" d="M120.111 27.323v4.311l-6.398 3.694-.381.228-2.761 1.581L90.94 48.485l-.019-4.311 3.275-1.904 16.375-9.444 1.162-.667 1.123-.647.476-.267v-.019l.381-.209 3.123-1.809z"/><path fill="#9AD898" d="m76.781 35.944 14.149 8.223 29.173-16.844-14.149-8.222z"/><path fill="#6EBA6E" d="M116.834 29.206 94.196 42.278c-2.048-1.198-5.165-1.313-6.968-.26l-6.738-3.924c1.818-1.04 1.616-2.843-.433-4.04l22.623-13.072c2.049 1.198 5.18 1.313 6.983.274l6.738 3.91c-1.803 1.04-1.616 2.857.433 4.04z"/><path fill="#9AD898" d="M105.595 25.871c-.792.458-.806 1.186-.019 1.644.787.457 2.045.452 2.838-.005.783-.452.796-1.181.009-1.638-.787-.458-2.045-.453-2.828 0zM88.24 35.843c-.783.452-.796 1.181-.01 1.638.788.458 2.046.452 2.829 0 .792-.457.805-1.186.018-1.643-.787-.457-2.045-.452-2.837.005zm15.753-1.044c-2.438 1.414-6.853 1.097-9.926-.692-3.059-1.775-3.593-4.343-1.169-5.742 2.41-1.4 6.853-1.082 9.926.692 3.06 1.775 3.578 4.357 1.169 5.742z"/><path fill="#6EBA6E" d="M102.604 32.575c.15-.18.225-.36.24-.54.03-.405-.195-.765-.72-1.08a3.154 3.154 0 0 0-1.695-.405c-.6.03-1.32.195-2.175.495l-.03.015-.196-.105v-.015l-1.485-.855a6.202 6.202 0 0 1 1.8-.45l-.225-.81c-.99.105-1.845.33-2.55.69l-.465-.255-.57.33.45.255c-.57.36-.87.735-.885 1.14a.736.736 0 0 0 .105.465c.105.21.3.405.615.585.255.15.51.255.78.316h.015c.27.075.555.105.84.09.585-.03 1.305-.18 2.146-.496l1.74 1.006c-.63.27-1.41.42-2.34.45l.104.84c1.246-.045 2.31-.285 3.21-.72l.661.375.57-.33-.645-.36c.315-.21.555-.42.705-.63zm-5.25-1.245c-.016.015-.03.015-.03.015-.376.105-.66.165-.856.165-.24 0-.45-.06-.66-.18a.633.633 0 0 1-.18-.15c-.09-.09-.105-.165-.09-.27 0-.165.165-.33.405-.51l1.26.735.24.135.015.015.03.015c-.045.015-.09.03-.135.03zm4.02.78c-.045.166-.18.346-.435.526l-1.62-.93c.225-.076.435-.136.615-.166.18-.045.33-.06.465-.06a1.4 1.4 0 0 1 .705.165c.165.09.255.225.27.36v.105z"/><path fill="#E4E8F4" d="m113.706 31.005-3.139 1.824-14.201-8.198 3.139-1.825z"/><path fill="#F9607F" d="m113.706 31.005-.373.217-14.201-8.199.373-.217z"/><path fill="#CAD0DD" d="M113.713 30.998v4.33l-.381.228-2.761 1.581v-4.311l1.162-.667 1.123-.647.476-.286z"/><path fill="#F9607F" d="M113.713 30.998v4.33l-.381.228v-4.33z"/><path fill="#75CA75" d="m76.781 30.438.013 4.317 14.149 8.222-.013-4.317z"/><path fill="#75CA75" d="M120.111 21.816v4.311l-6.398 3.694-.381.229-2.761 1.58L90.94 42.979l-.019-4.312 3.275-1.904 16.375-9.444 1.162-.667 1.123-.647.476-.267v-.019l.381-.209 3.123-1.809z"/><path fill="#9AD898" d="M76.781 30.438 90.93 38.66l29.173-16.843-14.149-8.223z"/><path fill="#6EBA6E" d="M116.834 23.7 94.196 36.77c-2.048-1.197-5.165-1.313-6.968-.26l-6.738-3.924c1.818-1.039 1.616-2.842-.433-4.04l22.623-13.072c2.049 1.198 5.18 1.313 6.983.275l6.738 3.91c-1.803 1.038-1.616 2.856.433 4.04z"/><path fill="#9AD898" d="M105.595 20.365c-.792.457-.806 1.186-.019 1.643.787.457 2.045.452 2.838-.005.783-.452.796-1.18.009-1.638-.787-.458-2.045-.452-2.828 0zM88.24 30.337c-.783.452-.796 1.18-.01 1.638.788.457 2.046.452 2.829 0 .792-.458.805-1.186.018-1.644-.787-.457-2.045-.452-2.837.006zm15.753-1.044c-2.438 1.414-6.853 1.096-9.926-.693-3.059-1.774-3.593-4.343-1.169-5.742 2.41-1.4 6.853-1.082 9.926.692 3.06 1.775 3.578 4.358 1.169 5.743z"/><path fill="#6EBA6E" d="M102.604 27.069c.15-.18.225-.36.24-.54.03-.405-.195-.765-.72-1.08a3.154 3.154 0 0 0-1.695-.406c-.6.03-1.32.196-2.175.496l-.03.015-.196-.105v-.015l-1.485-.856a6.203 6.203 0 0 1 1.8-.45l-.225-.81c-.99.105-1.845.33-2.55.69l-.465-.255-.57.33.45.255c-.57.36-.87.736-.885 1.14a.736.736 0 0 0 .105.466c.105.21.3.405.615.585.255.15.51.255.78.315h.015c.27.075.555.105.84.09.585-.03 1.305-.18 2.146-.495l1.74 1.005c-.63.27-1.41.42-2.34.45l.104.84c1.246-.045 2.31-.285 3.21-.72l.661.375.57-.33-.645-.36c.315-.21.555-.42.705-.63zm-5.25-1.245c-.016.015-.03.015-.03.015-.376.105-.66.165-.856.165-.24 0-.45-.06-.66-.18a.633.633 0 0 1-.18-.15c-.09-.09-.105-.165-.09-.27 0-.165.165-.33.405-.51l1.26.735.24.135.015.015.03.015c-.045.015-.09.03-.135.03zm4.02.78c-.045.165-.18.345-.435.525l-1.62-.93c.225-.075.435-.135.615-.165.18-.045.33-.06.465-.06a1.4 1.4 0 0 1 .705.165c.165.09.255.225.27.36v.105z"/><path fill="#E4E8F4" d="m113.706 25.498-3.139 1.825-14.201-8.199 3.139-1.824z"/><path fill="#F9607F" d="m113.706 25.498-.373.217-14.201-8.199.373-.216z"/><path fill="#CAD0DD" d="M113.713 25.491v4.33l-.381.229-2.761 1.58v-4.311l1.162-.667 1.123-.647.476-.286z"/><path fill="#F9607F" d="M113.713 25.491v4.33l-.381.229v-4.331z"/><path fill="#75CA75" d="m76.781 24.931.013 4.317 14.149 8.222-.013-4.317z"/><path fill="#75CA75" d="M120.111 16.309v4.311l-6.398 3.694-.381.229-2.761 1.58L90.94 37.472l-.019-4.311 3.275-1.905 16.375-9.444 1.162-.666 1.123-.648.476-.266v-.019l.381-.21 3.123-1.809z"/><path fill="#9AD898" d="m76.781 24.931 14.149 8.222 29.173-16.843-14.149-8.222z"/><path fill="#6EBA6E" d="M116.834 18.193 94.196 31.264c-2.048-1.197-5.165-1.313-6.968-.26L80.49 27.08c1.818-1.039 1.616-2.842-.433-4.04L102.68 9.97c2.049 1.197 5.18 1.313 6.983.274l6.738 3.91c-1.803 1.039-1.616 2.856.433 4.04z"/><path fill="#9AD898" d="M105.595 14.858c-.792.457-.806 1.186-.019 1.643.787.458 2.045.452 2.838-.005.783-.452.796-1.18.009-1.638-.787-.458-2.045-.452-2.828 0zM88.24 24.83c-.783.452-.796 1.18-.01 1.638.788.457 2.046.452 2.829 0 .792-.458.805-1.186.018-1.644-.787-.457-2.045-.452-2.837.006zm15.753-1.044c-2.438 1.414-6.853 1.096-9.926-.693-3.059-1.774-3.593-4.342-1.169-5.742 2.41-1.4 6.853-1.082 9.926.693 3.06 1.774 3.578 4.357 1.169 5.742z"/><path fill="#6EBA6E" d="M102.604 21.562c.15-.18.225-.36.24-.54.03-.405-.195-.765-.72-1.08a3.154 3.154 0 0 0-1.695-.405c-.6.03-1.32.195-2.175.495l-.03.015-.196-.105v-.015l-1.485-.855a6.203 6.203 0 0 1 1.8-.45l-.225-.81c-.99.104-1.845.33-2.55.69l-.465-.255-.57.33.45.255c-.57.36-.87.735-.885 1.14a.736.736 0 0 0 .105.465c.105.21.3.405.615.585.255.15.51.255.78.315h.015c.27.075.555.105.84.09.585-.03 1.305-.18 2.146-.495l1.74 1.005c-.63.27-1.41.42-2.34.45l.104.84c1.246-.045 2.31-.285 3.21-.72l.661.375.57-.33-.645-.36c.315-.21.555-.42.705-.63zm-5.25-1.245c-.016.015-.03.015-.03.015-.376.105-.66.165-.856.165-.24 0-.45-.06-.66-.18a.633.633 0 0 1-.18-.15c-.09-.09-.105-.165-.09-.27 0-.165.165-.33.405-.51l1.26.735.24.135.015.015.03.015c-.045.015-.09.03-.135.03zm4.02.78c-.045.165-.18.345-.435.525l-1.62-.93c.225-.075.435-.135.615-.165.18-.045.33-.06.465-.06a1.4 1.4 0 0 1 .705.165c.165.09.255.225.27.36v.105z"/><path fill="#E4E8F4" d="m113.706 19.992-3.139 1.824-14.201-8.199 3.139-1.824z"/><path fill="#F9607F" d="m113.706 19.992-.373.216-14.201-8.199.373-.216z"/><path fill="#CAD0DD" d="M113.713 19.984v4.33l-.381.229-2.761 1.58v-4.311l1.162-.666 1.123-.648.476-.285z"/><path fill="#F9607F" d="M113.713 19.984v4.33l-.381.229v-4.33z"/><path fill="#75CA75" d="m76.781 19.424.013 4.317 14.149 8.222-.013-4.317z"/><path fill="#75CA75" d="M120.111 10.802v4.312l-6.398 3.694-.381.228-2.761 1.581L90.94 31.965l-.019-4.311 3.275-1.904 16.375-9.445 1.162-.666 1.123-.648.476-.266v-.019l.381-.21 3.123-1.809z"/><path fill="#9AD898" d="m76.781 19.424 14.149 8.222 29.173-16.843-14.149-8.222z"/><path fill="#6EBA6E" d="M116.834 12.686 94.196 25.757c-2.048-1.197-5.165-1.313-6.968-.26l-6.738-3.924c1.818-1.038 1.616-2.842-.433-4.04L102.68 4.462c2.049 1.197 5.18 1.313 6.983.274l6.738 3.91c-1.803 1.039-1.616 2.857.433 4.04z"/><path fill="#9AD898" d="M105.595 9.351c-.792.457-.806 1.186-.019 1.643.787.458 2.045.453 2.838-.005.783-.452.796-1.18.009-1.638-.787-.457-2.045-.452-2.828 0zM88.24 19.323c-.783.452-.796 1.18-.01 1.638.788.457 2.046.452 2.829 0 .792-.457.805-1.186.018-1.643-.787-.458-2.045-.452-2.837.005zm15.753-1.044c-2.438 1.414-6.853 1.097-9.926-.692-3.059-1.775-3.593-4.343-1.169-5.743 2.41-1.4 6.853-1.082 9.926.693 3.06 1.774 3.578 4.357 1.169 5.742z"/><path fill="#6EBA6E" d="M102.604 16.055c.15-.18.225-.36.24-.54.03-.405-.195-.765-.72-1.08a3.154 3.154 0 0 0-1.695-.405c-.6.03-1.32.195-2.175.495l-.03.015-.196-.105v-.015l-1.485-.855a6.203 6.203 0 0 1 1.8-.45l-.225-.81c-.99.105-1.845.33-2.55.69l-.465-.255-.57.33.45.255c-.57.36-.87.735-.885 1.14a.736.736 0 0 0 .105.465c.105.21.3.405.615.585.255.15.51.255.78.315h.015c.27.075.555.105.84.09.585-.03 1.305-.18 2.146-.495l1.74 1.005c-.63.27-1.41.42-2.34.45l.104.84c1.246-.045 2.31-.285 3.21-.72l.661.375.57-.33-.645-.36c.315-.21.555-.42.705-.63zm-5.25-1.245c-.016.015-.03.015-.03.015-.376.105-.66.165-.856.165-.24 0-.45-.06-.66-.18a.633.633 0 0 1-.18-.15c-.09-.09-.105-.165-.09-.27 0-.165.165-.33.405-.51l1.26.735.24.135.015.015.03.015c-.045.015-.09.03-.135.03zm4.02.78c-.045.165-.18.345-.435.525l-1.62-.93c.225-.075.435-.135.615-.165.18-.045.33-.06.465-.06a1.4 1.4 0 0 1 .705.165c.165.09.255.225.27.36v.105z"/><path fill="#E4E8F4" d="m113.706 14.485-3.139 1.824L96.366 8.11l3.139-1.824z"/><path fill="#F9607F" d="m113.706 14.485-.373.216-14.201-8.199.373-.216z"/><path fill="#CAD0DD" d="M113.713 14.477v4.331l-.381.228-2.761 1.581v-4.312l1.162-.666 1.123-.648.476-.285z"/><path fill="#F9607F" d="M113.713 14.477v4.331l-.381.228v-4.33z"/><path fill="#F9BB4A" d="m129.021 41.065-.012 2.451c0 .43-.11.858-.319 1.263-.085.16-.183.318-.306.465-.22.307-.515.601-.87.87-.098.087-.196.16-.307.221-.122.098-.257.172-.392.258-.16.086-.319.171-.49.257-.098.05-.196.098-.307.147a9.128 9.128 0 0 1-.87.331c-.098.025-.196.061-.306.086a9.28 9.28 0 0 1-.883.22c-.098.025-.208.037-.306.062a10.57 10.57 0 0 1-.87.11 2.594 2.594 0 0 1-.307.025c-.294.036-.588.049-.882.049h-.307c-.294 0-.588-.025-.87-.05-.098 0-.208-.012-.306-.024a10.895 10.895 0 0 1-.883-.122 2.708 2.708 0 0 1-.306-.062 10.037 10.037 0 0 1-.87-.22 2.249 2.249 0 0 1-.307-.086 6.927 6.927 0 0 1-.883-.343 2.304 2.304 0 0 1-.306-.135c-.16-.086-.306-.16-.453-.245a6.188 6.188 0 0 1-.417-.258 2.883 2.883 0 0 1-.307-.233 3.861 3.861 0 0 1-.87-.858 1.98 1.98 0 0 1-.306-.478 2.598 2.598 0 0 1-.344-1.287l.013-2.463c0 .441.11-.014.33.402a4.178 4.178 0 0 0 1.177 1.348c.098.086.196.16.307.233.135.086.27.172.417.258.147.086.294.16.453.245.098.049.196.098.306.135.282.135.576.245.883.343.098.037.208.061.306.086.282.086.576.16.87.22.099.025.197.05.307.062.294.049.588.098.883.122.098.012.196.025.306.025.282.024.576.049.87.037.098.012.209.012.307.012.294 0 .588-.012.882-.05.098 0 .209-.012.307-.024.294-.024.588-.061.87-.11.098-.025.208-.037.306-.061.307-.062.6-.135.883-.221.11-.025.208-.05.306-.086.307-.098.589-.208.87-.33.11-.05.209-.087.307-.136a6.53 6.53 0 0 0 .502-.27c.135-.073.258-.159.38-.244.11-.062.209-.135.307-.221.355-.27.65-.552.87-.858.123-.16.22-.319.306-.478.221-.417.331.039.331-.39z"/><path fill="#FED57A" d="M126.781 37.937c2.967 1.713 2.988 4.493.041 6.206-2.953 1.716-7.753 1.712-10.719 0-2.966-1.713-2.982-4.49-.029-6.206 2.947-1.712 7.741-1.712 10.707 0z"/><path fill="#EFAC41" d="M125.677 38.864c2.352 1.201 2.369 3.151.032 4.352-2.342 1.204-6.148 1.202-8.5 0-2.353-1.2-2.365-3.148-.023-4.352 2.336-1.201 6.138-1.201 8.49 0z"/><path fill="#D89B39" d="M128.69 42.34v2.439c-.085.16-.183.318-.306.465v-2.426c.123-.16.22-.32.306-.478zm-1.176 1.336v2.439c-.098.086-.196.16-.307.22v-2.439c.11-.061.209-.135.307-.22zm-1.19.735v2.44c-.097.048-.195.097-.306.146v-2.451c.11-.05.209-.086.307-.135zm-1.176.466v2.451c-.098.025-.196.061-.306.086v-2.451c.11-.025.208-.05.306-.086zm-1.189.306v2.452c-.098.024-.208.036-.306.06v-2.45c.098-.025.208-.037.306-.062zm-1.176.172v2.451a2.594 2.594 0 0 1-.307.025v-2.452c.098 0 .209-.012.307-.024zm-1.19.073v2.452h-.306v-2.464c.098.012.209.012.307.012zm-1.176-.049v2.452c-.098 0-.208-.013-.306-.025v-2.451c.098.012.196.024.306.024zm-1.189-.147v2.452a2.708 2.708 0 0 1-.306-.062v-2.451c.098.024.196.049.306.061zm-1.177-.282v2.452a2.249 2.249 0 0 1-.306-.086v-2.451c.098.036.208.06.306.085zm-1.189-.429v2.452a2.304 2.304 0 0 1-.306-.135v-2.452c.098.05.196.099.306.135zm-1.176-.637v2.451a2.883 2.883 0 0 1-.307-.233v-2.45c.098.085.197.158.307.232zm-1.177-1.103v2.463a1.98 1.98 0 0 1-.306-.478v-2.463c.085.16.184.318.306.478z"/><path fill="#FED57A" d="m124.188 39.757.605-.351-.46-.266-.613.356-.068-.03a3.505 3.505 0 0 0-1.445-.316h-.011c-.49 0-.927.11-1.3.326-.346.202-.515.404-.502.6.016.218.196.497.536.83l.136.133-1.31.76-.078-.084c-.204-.22-.34-.514-.403-.876l-1.159.065c.087.444.345.839.769 1.174l.166.132-.48.279.46.266.483-.282.068.031c.485.222.987.336 1.495.34.493.007.95-.105 1.329-.325.347-.202.515-.409.498-.614-.02-.233-.208-.523-.557-.866l-.136-.132 1.272-.74.079.08c.175.18.31.404.402.668l1.107-.116a2.18 2.18 0 0 0-.712-.91l-.17-.132zm-2.822 2.392a.953.953 0 0 1-.488.126c-.132 0-.272-.022-.422-.067l-.32-.096 1.265-.735.077.106c.106.147.146.272.123.383-.02.108-.1.204-.235.283zm.506-1.58-.073-.122a.438.438 0 0 1-.064-.34c.028-.111.11-.207.24-.283.221-.13.492-.149.802-.063l.33.092-1.235.717z"/><path fill="#F9BB4A" d="m129.021 37.938-.012 2.452c0 .429-.11.858-.319 1.262-.085.16-.183.319-.306.466-.22.306-.515.6-.87.87-.098.086-.196.16-.307.221-.122.098-.257.172-.392.257-.16.086-.319.172-.49.258-.098.049-.196.098-.307.147a9.133 9.133 0 0 1-.87.33c-.098.025-.196.062-.306.087-.282.085-.576.159-.883.22-.098.025-.208.037-.306.061-.294.05-.576.086-.87.11a2.594 2.594 0 0 1-.307.025c-.294.037-.588.05-.882.05h-.307c-.294 0-.588-.025-.87-.05-.098 0-.208-.012-.306-.024a10.89 10.89 0 0 1-.883-.123 2.708 2.708 0 0 1-.306-.061 10.037 10.037 0 0 1-.87-.22 2.249 2.249 0 0 1-.307-.086 6.927 6.927 0 0 1-.883-.344 2.303 2.303 0 0 1-.306-.135c-.16-.085-.306-.159-.453-.245a6.184 6.184 0 0 1-.417-.257 2.882 2.882 0 0 1-.307-.233 3.862 3.862 0 0 1-.87-.858 1.98 1.98 0 0 1-.306-.478 2.598 2.598 0 0 1-.344-1.287l.013-2.464c0 .442.11-.014.33.403a4.177 4.177 0 0 0 1.177 1.348c.098.086.196.16.307.233.135.086.27.172.417.257.147.086.294.16.453.246.098.049.196.098.306.134.282.135.576.245.883.344.098.036.208.06.306.085.282.086.576.16.87.221.099.025.197.049.307.061.294.05.588.098.883.123.098.012.196.024.306.024.282.025.576.05.87.037.098.012.209.012.307.012.294 0 .588-.012.882-.049.098 0 .209-.012.307-.024.294-.025.588-.061.87-.11.098-.025.208-.037.306-.062.307-.061.6-.135.883-.22.11-.025.208-.05.306-.086.307-.098.589-.209.87-.331.11-.05.209-.086.307-.135.171-.086.343-.172.502-.27.135-.073.258-.159.38-.245.11-.061.209-.135.307-.22.355-.27.65-.552.87-.858.123-.16.22-.319.306-.478.221-.417.331.038.331-.39z"/><path fill="#FED57A" d="M126.781 34.81c2.967 1.713 2.988 4.494.041 6.206-2.953 1.716-7.753 1.713-10.719 0-2.966-1.712-2.982-4.49-.029-6.205 2.947-1.713 7.741-1.713 10.707 0z"/><path fill="#EFAC41" d="M125.677 35.738c2.352 1.2 2.369 3.15.032 4.352-2.342 1.203-6.148 1.201-8.5 0-2.353-1.201-2.365-3.149-.023-4.352 2.336-1.202 6.138-1.202 8.49 0z"/><path fill="#D89B39" d="M128.69 39.213v2.44c-.085.159-.183.318-.306.465v-2.427c.123-.16.22-.318.306-.478zm-1.176 1.336v2.44c-.098.085-.196.159-.307.22v-2.44c.11-.06.209-.134.307-.22zm-1.19.736v2.439c-.097.049-.195.098-.306.147v-2.452c.11-.049.209-.085.307-.134zm-1.176.465v2.452c-.098.024-.196.061-.306.086v-2.452c.11-.024.208-.049.306-.086zm-1.189.307v2.451c-.098.025-.208.037-.306.061v-2.45c.098-.025.208-.038.306-.062zm-1.176.171v2.452a2.594 2.594 0 0 1-.307.024v-2.451c.098 0 .209-.012.307-.025zm-1.19.074v2.451h-.306V42.29c.098.012.209.012.307.012zm-1.176-.05v2.452c-.098 0-.208-.012-.306-.024v-2.452c.098.013.196.025.306.025zm-1.189-.146v2.451a2.708 2.708 0 0 1-.306-.061v-2.451c.098.024.196.049.306.06zm-1.177-.282v2.451a2.249 2.249 0 0 1-.306-.085v-2.452c.098.037.208.061.306.086zm-1.189-.43v2.452a2.303 2.303 0 0 1-.306-.135v-2.45c.098.048.196.097.306.134zm-1.176-.636v2.451a2.882 2.882 0 0 1-.307-.233v-2.451c.098.086.197.159.307.233zm-1.177-1.104v2.464a1.98 1.98 0 0 1-.306-.478v-2.464c.085.16.184.32.306.478z"/><path fill="#FED57A" d="m124.188 36.63.605-.35-.46-.267-.613.357-.068-.031a3.505 3.505 0 0 0-1.445-.315h-.011c-.49 0-.927.11-1.3.326-.346.202-.515.403-.502.6.016.218.196.497.536.83l.136.132-1.31.761-.078-.085c-.204-.22-.34-.514-.403-.876l-1.159.066c.087.443.345.838.769 1.174l.166.132-.48.278.46.266.483-.281.068.031c.485.221.987.336 1.495.34.493.006.95-.106 1.329-.325.347-.202.515-.41.498-.615-.02-.232-.208-.523-.557-.865l-.136-.133 1.272-.74.079.081c.175.18.31.403.402.667l1.107-.116a2.18 2.18 0 0 0-.712-.91l-.17-.131zm-2.822 2.393a.953.953 0 0 1-.488.126c-.132 0-.272-.022-.422-.068l-.32-.096 1.265-.734.077.106c.106.146.146.271.123.383-.02.108-.1.204-.235.283zm.506-1.58-.073-.122a.438.438 0 0 1-.064-.34c.028-.112.11-.207.24-.283.221-.13.492-.15.802-.064l.33.093-1.235.717z"/><path fill="#F9BB4A" d="m112.726 49.568-.012 2.452c0 .429-.11.858-.32 1.262-.085.16-.183.319-.306.466-.22.306-.514.6-.87.87-.098.086-.196.16-.306.22-.123.099-.258.172-.392.258-.16.086-.32.172-.49.257-.099.05-.197.099-.307.148a9.128 9.128 0 0 1-.87.33c-.098.025-.197.062-.307.086a9.28 9.28 0 0 1-.882.22c-.098.025-.209.038-.307.062-.294.05-.576.086-.87.11a2.596 2.596 0 0 1-.306.025c-.295.037-.589.05-.883.05h-.306c-.295 0-.589-.025-.87-.05-.099 0-.209-.012-.307-.024a10.89 10.89 0 0 1-.883-.123 2.708 2.708 0 0 1-.306-.061 10.036 10.036 0 0 1-.87-.221 2.248 2.248 0 0 1-.307-.086 6.927 6.927 0 0 1-.882-.343 2.303 2.303 0 0 1-.307-.135c-.159-.086-.306-.16-.453-.245a6.19 6.19 0 0 1-.417-.257 2.884 2.884 0 0 1-.306-.233 3.862 3.862 0 0 1-.87-.858 1.98 1.98 0 0 1-.307-.478 2.599 2.599 0 0 1-.343-1.287l.012-2.464c0 .441.11-.014.331.403a4.178 4.178 0 0 0 1.177 1.348c.098.086.196.16.306.233.135.086.27.171.417.257.147.086.294.16.453.245.099.05.197.098.307.135.282.135.576.245.882.343.098.037.209.062.307.086.282.086.576.16.87.22.098.025.196.05.306.062.295.049.589.098.883.123.098.012.196.024.306.024.282.025.576.05.87.037.099.012.209.012.307.012.294 0 .588-.012.883-.049.098 0 .208-.012.306-.024.294-.025.588-.062.87-.11.098-.025.209-.038.307-.062.306-.061.6-.135.882-.22.11-.025.209-.05.307-.086.306-.099.588-.209.87-.331.11-.05.208-.086.306-.135.172-.086.343-.172.503-.27.135-.073.257-.16.38-.245.11-.061.208-.135.306-.22.356-.27.65-.552.87-.859.123-.159.221-.318.307-.478.22-.416.33.04.33-.39z"/><path fill="#FED57A" d="M110.486 46.44c2.966 1.713 2.988 4.493.04 6.206-2.952 1.716-7.752 1.713-10.719 0-2.966-1.713-2.982-4.49-.029-6.206 2.947-1.712 7.741-1.712 10.708 0z"/><path fill="#EFAC41" d="M109.38 47.367c2.353 1.201 2.37 3.151.033 4.353-2.341 1.203-6.148 1.2-8.5 0-2.352-1.201-2.365-3.15-.023-4.353 2.337-1.2 6.139-1.2 8.49 0z"/><path fill="#D89B39" d="M112.395 50.843v2.439c-.086.16-.184.319-.307.466V51.32c.123-.16.221-.319.307-.478zm-1.177 1.336v2.44c-.098.085-.196.158-.306.22v-2.44c.11-.06.208-.134.306-.22zm-1.189.735v2.44c-.098.048-.196.098-.306.147v-2.452c.11-.049.208-.086.306-.135zm-1.176.466v2.451c-.098.025-.197.062-.307.086v-2.451c.11-.025.209-.05.307-.086zm-1.19.307v2.45c-.097.025-.208.038-.306.062v-2.451c.098-.025.209-.037.307-.061zm-1.176.171v2.452a2.596 2.596 0 0 1-.306.024v-2.451c.098 0 .208-.013.306-.025zm-1.189.074v2.451h-.306V53.92c.098.013.208.013.306.013zm-1.177-.05v2.452c-.098 0-.208-.012-.306-.024v-2.452c.098.012.196.025.306.025zm-1.189-.146v2.45a2.708 2.708 0 0 1-.306-.06v-2.452c.098.025.196.05.306.062zm-1.176-.282v2.451a2.248 2.248 0 0 1-.307-.086v-2.451c.098.037.209.061.307.086zm-1.19-.43v2.452a2.303 2.303 0 0 1-.306-.135V52.89c.099.049.197.098.307.135zm-1.176-.637v2.452a2.884 2.884 0 0 1-.306-.233v-2.452c.098.086.196.16.306.233zm-1.176-1.103v2.464a1.98 1.98 0 0 1-.307-.478v-2.464c.086.16.184.319.307.478z"/><path fill="#FED57A" d="m107.892 48.26.605-.35-.46-.267-.613.357-.068-.032a3.505 3.505 0 0 0-1.445-.315h-.01c-.49 0-.927.11-1.3.327-.347.201-.516.403-.502.6.015.218.195.497.535.83l.136.132-1.309.76-.08-.084c-.203-.22-.338-.514-.401-.876l-1.16.066c.087.443.345.838.769 1.173l.166.132-.48.279.46.266.484-.281.067.03c.485.222.988.336 1.495.34.493.007.95-.105 1.329-.325.348-.202.516-.408.498-.614-.02-.232-.207-.523-.557-.865l-.135-.133 1.272-.74.078.08c.176.18.31.404.403.668l1.106-.116a2.18 2.18 0 0 0-.711-.91l-.172-.132zm-2.822 2.392a.953.953 0 0 1-.488.126c-.131 0-.272-.022-.422-.067l-.319-.096 1.265-.735.076.107c.106.146.147.271.124.382-.021.108-.1.204-.236.283zm.507-1.579-.074-.122a.438.438 0 0 1-.064-.34c.029-.112.11-.208.24-.283.221-.13.492-.15.802-.064l.33.093-1.234.716z"/><path fill="#F9BB4A" d="m112.726 46.442-.012 2.451c0 .43-.11.858-.32 1.263-.085.159-.183.318-.306.465-.22.307-.514.601-.87.87-.098.086-.196.16-.306.221-.123.098-.258.172-.392.258-.16.085-.32.171-.49.257-.099.05-.197.098-.307.147a9.13 9.13 0 0 1-.87.331c-.098.025-.197.061-.307.086-.282.086-.576.16-.882.22-.098.025-.209.037-.307.062a10.57 10.57 0 0 1-.87.11 2.594 2.594 0 0 1-.306.025c-.295.036-.589.049-.883.049h-.306c-.295 0-.589-.025-.87-.05-.099 0-.209-.012-.307-.024a10.89 10.89 0 0 1-.883-.122 2.708 2.708 0 0 1-.306-.062 10.036 10.036 0 0 1-.87-.22 2.247 2.247 0 0 1-.307-.086 6.927 6.927 0 0 1-.882-.343 2.303 2.303 0 0 1-.307-.135c-.159-.086-.306-.16-.453-.245a6.187 6.187 0 0 1-.417-.258 2.883 2.883 0 0 1-.306-.233 3.862 3.862 0 0 1-.87-.858 1.98 1.98 0 0 1-.307-.478 2.599 2.599 0 0 1-.343-1.287l.012-2.463c0 .44.11-.015.331.402.086.16.184.319.307.478.22.307.514.6.87.87.098.086.196.16.306.233.135.086.27.172.417.258.147.085.294.159.453.245.099.049.197.098.307.135.282.134.576.245.882.343.098.037.209.061.307.086.282.085.576.159.87.22.098.025.196.05.306.062.295.049.589.098.883.122.098.012.196.025.306.025.282.024.576.049.87.036.099.013.209.013.307.013.294 0 .588-.013.883-.05.098 0 .208-.012.306-.024.294-.024.588-.061.87-.11.098-.025.209-.037.307-.061.306-.062.6-.135.882-.221.11-.025.209-.05.307-.086.306-.098.588-.208.87-.33.11-.05.208-.087.306-.136.172-.085.343-.171.503-.27.135-.073.257-.159.38-.244.11-.062.208-.135.306-.221.356-.27.65-.552.87-.858.123-.16.221-.319.307-.478.22-.417.33.039.33-.39z"/><path fill="#FED57A" d="M110.486 43.314c2.966 1.713 2.988 4.493.04 6.206-2.952 1.716-7.752 1.712-10.719 0-2.966-1.713-2.982-4.49-.029-6.206 2.947-1.712 7.741-1.712 10.708 0z"/><path fill="#EFAC41" d="M109.38 44.24c2.353 1.202 2.37 3.152.033 4.353-2.341 1.204-6.148 1.201-8.5 0-2.352-1.2-2.365-3.149-.023-4.352 2.337-1.201 6.139-1.201 8.49 0z"/><path fill="#D89B39" d="M112.395 47.716v2.44c-.086.159-.184.318-.307.465v-2.426c.123-.16.221-.32.307-.479zm-1.177 1.336v2.44c-.098.085-.196.159-.306.22v-2.439c.11-.061.208-.135.306-.22zm-1.189.736v2.44c-.098.048-.196.097-.306.146v-2.451c.11-.05.208-.086.306-.135zm-1.176.466v2.451c-.098.025-.197.061-.307.086V50.34c.11-.025.209-.05.307-.086zm-1.19.306v2.452c-.097.024-.208.036-.306.06v-2.45c.098-.025.209-.037.307-.062zm-1.176.172v2.451a2.594 2.594 0 0 1-.306.025v-2.452c.098 0 .208-.012.306-.024zm-1.189.073v2.452h-.306v-2.464c.098.012.208.012.306.012zm-1.177-.049v2.452c-.098 0-.208-.013-.306-.025v-2.451c.098.012.196.024.306.024zm-1.189-.147v2.452a2.708 2.708 0 0 1-.306-.062v-2.451c.098.024.196.049.306.061zm-1.176-.282v2.452a2.247 2.247 0 0 1-.307-.086V50.24c.098.037.209.062.307.086zm-1.19-.429v2.452a2.303 2.303 0 0 1-.306-.135v-2.452c.099.05.197.098.307.135zm-1.176-.637v2.451a2.883 2.883 0 0 1-.306-.233v-2.451c.098.086.196.16.306.233zm-1.176-1.103v2.463a1.98 1.98 0 0 1-.307-.478V47.68c.086.159.184.318.307.478z"/><path fill="#FED57A" d="m107.892 45.134.605-.351-.46-.266-.613.356-.068-.03a3.505 3.505 0 0 0-1.445-.316h-.01c-.49 0-.927.11-1.3.326-.347.202-.516.404-.502.6.015.218.195.497.535.83l.136.133-1.309.76-.08-.084c-.203-.22-.338-.514-.401-.876l-1.16.065c.087.444.345.838.769 1.174l.166.132-.48.279.46.266.484-.282.067.031c.485.222.988.336 1.495.34.493.007.95-.105 1.329-.325.348-.202.516-.409.498-.614-.02-.233-.207-.524-.557-.866l-.135-.133 1.272-.739.078.08c.176.18.31.404.403.667l1.106-.115a2.18 2.18 0 0 0-.711-.91l-.172-.132zm-2.822 2.392a.953.953 0 0 1-.488.126c-.131 0-.272-.022-.422-.067l-.319-.096 1.265-.735.076.106c.106.146.147.272.124.383-.021.108-.1.204-.236.283zm.507-1.58-.074-.122a.438.438 0 0 1-.064-.34c.029-.112.11-.207.24-.283.221-.13.492-.149.802-.064l.33.093-1.234.717z"/><path fill="#F9BB4A" d="m112.726 43.504-.012 2.451c0 .43-.11.858-.32 1.263-.085.16-.183.318-.306.466-.22.306-.514.6-.87.87-.098.086-.196.16-.306.22-.123.098-.258.172-.392.258-.16.086-.32.171-.49.257-.099.05-.197.098-.307.147a9.128 9.128 0 0 1-.87.331c-.098.025-.197.062-.307.086a9.28 9.28 0 0 1-.882.22c-.098.025-.209.037-.307.062a10.57 10.57 0 0 1-.87.11 2.594 2.594 0 0 1-.306.025c-.295.037-.589.049-.883.049h-.306c-.295 0-.589-.025-.87-.05-.099 0-.209-.012-.307-.024a10.894 10.894 0 0 1-.883-.122 2.708 2.708 0 0 1-.306-.062 10.036 10.036 0 0 1-.87-.22 2.248 2.248 0 0 1-.307-.086 6.927 6.927 0 0 1-.882-.343 2.304 2.304 0 0 1-.307-.135c-.159-.086-.306-.16-.453-.245a6.19 6.19 0 0 1-.417-.258 2.884 2.884 0 0 1-.306-.232 3.862 3.862 0 0 1-.87-.858 1.98 1.98 0 0 1-.307-.478 2.599 2.599 0 0 1-.343-1.287l.012-2.464c0 .441.11-.014.331.402.086.16.184.319.307.478.22.307.514.6.87.87.098.086.196.16.306.233.135.086.27.172.417.258.147.086.294.16.453.245.099.049.197.098.307.135.282.135.576.245.882.343.098.037.209.061.307.086.282.086.576.16.87.22.098.025.196.05.306.062.295.049.589.098.883.122.098.013.196.025.306.025.282.024.576.049.87.037.099.012.209.012.307.012.294 0 .588-.012.883-.05.098 0 .208-.011.306-.024.294-.024.588-.061.87-.11.098-.025.209-.037.307-.061.306-.062.6-.135.882-.22.11-.025.209-.05.307-.087.306-.098.588-.208.87-.33.11-.05.208-.086.306-.135.172-.086.343-.172.503-.27.135-.074.257-.16.38-.245.11-.062.208-.135.306-.221.356-.27.65-.551.87-.858.123-.16.221-.319.307-.478.22-.417.33.039.33-.39z"/><path fill="#FED57A" d="M110.486 40.376c2.966 1.713 2.988 4.493.04 6.206-2.952 1.716-7.752 1.712-10.719 0s-2.982-4.49-.029-6.206c2.947-1.712 7.741-1.712 10.708 0z"/><path fill="#EFAC41" d="M109.38 41.303c2.353 1.201 2.37 3.151.033 4.352-2.341 1.204-6.148 1.202-8.5 0-2.352-1.2-2.365-3.148-.023-4.352 2.337-1.201 6.139-1.201 8.49 0z"/><path fill="#D89B39" d="M112.395 44.779v2.439c-.086.16-.184.318-.307.466v-2.427c.123-.16.221-.319.307-.478zm-1.177 1.336v2.439c-.098.086-.196.16-.306.22v-2.439c.11-.061.208-.135.306-.22zm-1.189.735v2.44c-.098.048-.196.097-.306.146v-2.451c.11-.05.208-.086.306-.135zm-1.176.466v2.451c-.098.025-.197.062-.307.086v-2.451c.11-.025.209-.05.307-.086zm-1.19.306v2.452c-.097.024-.208.036-.306.06v-2.45c.098-.025.209-.037.307-.062zm-1.176.172v2.451a2.594 2.594 0 0 1-.306.025v-2.452c.098 0 .208-.012.306-.024zm-1.189.073v2.452h-.306v-2.464c.098.012.208.012.306.012zm-1.177-.049v2.452c-.098 0-.208-.013-.306-.025v-2.451c.098.012.196.024.306.024zm-1.189-.147v2.452a2.708 2.708 0 0 1-.306-.062V47.61c.098.025.196.049.306.061zm-1.176-.282v2.452a2.248 2.248 0 0 1-.307-.086v-2.451c.098.036.209.06.307.085zm-1.19-.429v2.452a2.304 2.304 0 0 1-.306-.135v-2.451c.099.049.197.098.307.134zm-1.176-.637v2.451a2.884 2.884 0 0 1-.306-.232V46.09c.098.086.196.16.306.233zm-1.176-1.103v2.464a1.98 1.98 0 0 1-.307-.478v-2.464c.086.16.184.319.307.478z"/><path fill="#FED57A" d="m107.892 42.196.605-.351-.46-.266-.613.356-.068-.03a3.505 3.505 0 0 0-1.445-.316h-.01c-.49 0-.927.11-1.3.327-.347.201-.516.403-.502.599.015.218.195.497.535.83l.136.133-1.309.76-.08-.084c-.203-.22-.338-.514-.401-.876l-1.16.065c.087.444.345.839.769 1.174l.166.132-.48.279.46.266.484-.282.067.032c.485.22.988.335 1.495.339.493.007.95-.105 1.329-.325.348-.202.516-.409.498-.614-.02-.232-.207-.523-.557-.866l-.135-.132 1.272-.74.078.08c.176.18.31.404.403.668l1.106-.116a2.18 2.18 0 0 0-.711-.91l-.172-.132zm-2.822 2.392a.953.953 0 0 1-.488.126c-.131 0-.272-.022-.422-.067l-.319-.096 1.265-.735.076.106c.106.147.147.272.124.383-.021.108-.1.204-.236.283zm.507-1.579-.074-.123a.438.438 0 0 1-.064-.34c.029-.111.11-.207.24-.283.221-.13.492-.149.802-.063l.33.092-1.234.717z"/><path fill="#F9BB4A" d="m112.726 40.378-.012 2.451c0 .429-.11.858-.32 1.262-.085.16-.183.32-.306.466-.22.307-.514.6-.87.87-.098.086-.196.16-.306.221-.123.098-.258.172-.392.257-.16.086-.32.172-.49.258-.099.049-.197.098-.307.147a9.133 9.133 0 0 1-.87.33c-.098.025-.197.062-.307.087-.282.085-.576.159-.882.22-.098.025-.209.037-.307.062-.294.049-.576.085-.87.11a2.594 2.594 0 0 1-.306.024c-.295.037-.589.05-.883.05h-.306c-.295 0-.589-.025-.87-.05-.099 0-.209-.012-.307-.024a10.89 10.89 0 0 1-.883-.123 2.708 2.708 0 0 1-.306-.061 10.036 10.036 0 0 1-.87-.22 2.248 2.248 0 0 1-.307-.086 6.927 6.927 0 0 1-.882-.344 2.303 2.303 0 0 1-.307-.134c-.159-.086-.306-.16-.453-.246a6.187 6.187 0 0 1-.417-.257 2.883 2.883 0 0 1-.306-.233 3.862 3.862 0 0 1-.87-.858 1.98 1.98 0 0 1-.307-.478 2.599 2.599 0 0 1-.343-1.287l.012-2.464c0 .442.11-.014.331.403.086.16.184.319.307.478.22.306.514.6.87.87.098.086.196.16.306.233.135.086.27.172.417.257.147.086.294.16.453.246.099.049.197.098.307.134.282.135.576.246.882.344.098.036.209.06.307.085.282.086.576.16.87.221.098.025.196.05.306.061.295.05.589.098.883.123.098.012.196.024.306.024.282.025.576.05.87.037.099.012.209.012.307.012.294 0 .588-.012.883-.049.098 0 .208-.012.306-.024.294-.025.588-.061.87-.11.098-.025.209-.037.307-.062.306-.06.6-.134.882-.22.11-.025.209-.05.307-.086.306-.098.588-.208.87-.331.11-.05.208-.086.306-.135.172-.086.343-.171.503-.27.135-.073.257-.159.38-.245.11-.061.208-.135.306-.22.356-.27.65-.552.87-.858.123-.16.221-.319.307-.478.22-.417.33.039.33-.39z"/><path fill="#FED57A" d="M110.486 37.25c2.966 1.712 2.988 4.493.04 6.205-2.952 1.716-7.752 1.713-10.719 0-2.966-1.712-2.982-4.49-.029-6.205 2.947-1.713 7.741-1.713 10.708 0z"/><path fill="#EFAC41" d="M109.38 38.177c2.353 1.2 2.37 3.15.033 4.352-2.341 1.204-6.148 1.201-8.5 0-2.352-1.201-2.365-3.149-.023-4.352 2.337-1.202 6.139-1.202 8.49 0z"/><path fill="#D89B39" d="M112.395 41.652v2.44c-.086.159-.184.318-.307.465V42.13c.123-.16.221-.318.307-.478zm-1.177 1.336v2.44c-.098.085-.196.159-.306.22v-2.44c.11-.06.208-.134.306-.22zm-1.189.736v2.439c-.098.049-.196.098-.306.147v-2.452c.11-.048.208-.085.306-.134zm-1.176.465v2.452c-.098.024-.197.061-.307.086v-2.452c.11-.024.209-.049.307-.086zm-1.19.307v2.451c-.097.025-.208.037-.306.062v-2.452c.098-.024.209-.037.307-.061zm-1.176.171v2.452a2.594 2.594 0 0 1-.306.024v-2.451c.098 0 .208-.012.306-.025zm-1.189.074v2.451h-.306V44.73c.098.012.208.012.306.012zm-1.177-.049v2.451c-.098 0-.208-.012-.306-.024v-2.451c.098.012.196.024.306.024zm-1.189-.147v2.451a2.708 2.708 0 0 1-.306-.061v-2.451c.098.024.196.049.306.06zm-1.176-.282v2.451a2.248 2.248 0 0 1-.307-.085v-2.452c.098.037.209.061.307.086zm-1.19-.429v2.451a2.303 2.303 0 0 1-.306-.134v-2.452c.099.05.197.098.307.135zm-1.176-.637v2.451a2.883 2.883 0 0 1-.306-.233v-2.451c.098.086.196.16.306.233zm-1.176-1.104v2.464a1.98 1.98 0 0 1-.307-.478v-2.464c.086.16.184.32.307.478z"/><path fill="#FED57A" d="m107.892 39.07.605-.351-.46-.266-.613.356-.068-.031a3.505 3.505 0 0 0-1.445-.315h-.01c-.49 0-.927.11-1.3.326-.347.202-.516.403-.502.6.015.218.195.497.535.83l.136.132-1.309.761-.08-.085c-.203-.22-.338-.513-.401-.876l-1.16.066c.087.443.345.838.769 1.174l.166.132-.48.278.46.266.484-.281.067.031c.485.221.988.336 1.495.34.493.006.95-.106 1.329-.325.348-.202.516-.41.498-.615-.02-.232-.207-.523-.557-.865l-.135-.133 1.272-.74.078.081c.176.18.31.403.403.667l1.106-.116a2.18 2.18 0 0 0-.711-.91l-.172-.131zm-2.822 2.392a.953.953 0 0 1-.488.126c-.131 0-.272-.022-.422-.067l-.319-.096 1.265-.735.076.106c.106.146.147.272.124.383-.021.108-.1.204-.236.283zm.507-1.58-.074-.122a.438.438 0 0 1-.064-.34c.029-.112.11-.207.24-.283.221-.13.492-.149.802-.064l.33.093-1.234.717z"/><path fill="#F9BB4A" d="m112.726 49.568-.012 2.452c0 .429-.11.858-.32 1.262-.085.16-.183.319-.306.466-.22.306-.514.6-.87.87-.098.086-.196.16-.306.22-.123.099-.258.172-.392.258-.16.086-.32.172-.49.257-.099.05-.197.099-.307.148a9.128 9.128 0 0 1-.87.33c-.098.025-.197.062-.307.086a9.28 9.28 0 0 1-.882.22c-.098.025-.209.038-.307.062-.294.05-.576.086-.87.11a2.596 2.596 0 0 1-.306.025c-.295.037-.589.05-.883.05h-.306c-.295 0-.589-.025-.87-.05-.099 0-.209-.012-.307-.024a10.89 10.89 0 0 1-.883-.123 2.708 2.708 0 0 1-.306-.061 10.036 10.036 0 0 1-.87-.221 2.248 2.248 0 0 1-.307-.086 6.927 6.927 0 0 1-.882-.343 2.303 2.303 0 0 1-.307-.135c-.159-.086-.306-.16-.453-.245a6.19 6.19 0 0 1-.417-.257 2.884 2.884 0 0 1-.306-.233 3.862 3.862 0 0 1-.87-.858 1.98 1.98 0 0 1-.307-.478 2.599 2.599 0 0 1-.343-1.287l.012-2.464c0 .441.11-.014.331.403a4.178 4.178 0 0 0 1.177 1.348c.098.086.196.16.306.233.135.086.27.171.417.257.147.086.294.16.453.245.099.05.197.098.307.135.282.135.576.245.882.343.098.037.209.062.307.086.282.086.576.16.87.22.098.025.196.05.306.062.295.049.589.098.883.123.098.012.196.024.306.024.282.025.576.05.87.037.099.012.209.012.307.012.294 0 .588-.012.883-.049.098 0 .208-.012.306-.024.294-.025.588-.062.87-.11.098-.025.209-.038.307-.062.306-.061.6-.135.882-.22.11-.025.209-.05.307-.086.306-.099.588-.209.87-.331.11-.05.208-.086.306-.135.172-.086.343-.172.503-.27.135-.073.257-.16.38-.245.11-.061.208-.135.306-.22.356-.27.65-.552.87-.859.123-.159.221-.318.307-.478.22-.416.33.04.33-.39z"/><path fill="#FED57A" d="M110.486 46.44c2.966 1.713 2.988 4.493.04 6.206-2.952 1.716-7.752 1.713-10.719 0-2.966-1.713-2.982-4.49-.029-6.206 2.947-1.712 7.741-1.712 10.708 0z"/><path fill="#EFAC41" d="M109.38 47.367c2.353 1.201 2.37 3.151.033 4.353-2.341 1.203-6.148 1.2-8.5 0-2.352-1.201-2.365-3.15-.023-4.353 2.337-1.2 6.139-1.2 8.49 0z"/><path fill="#D89B39" d="M112.395 50.843v2.439c-.086.16-.184.319-.307.466V51.32c.123-.16.221-.319.307-.478zm-1.177 1.336v2.44c-.098.085-.196.158-.306.22v-2.44c.11-.06.208-.134.306-.22zm-1.189.735v2.44c-.098.048-.196.098-.306.147v-2.452c.11-.049.208-.086.306-.135zm-1.176.466v2.451c-.098.025-.197.062-.307.086v-2.451c.11-.025.209-.05.307-.086zm-1.19.307v2.45c-.097.025-.208.038-.306.062v-2.451c.098-.025.209-.037.307-.061zm-1.176.171v2.452a2.596 2.596 0 0 1-.306.024v-2.451c.098 0 .208-.013.306-.025zm-1.189.074v2.451h-.306V53.92c.098.013.208.013.306.013zm-1.177-.05v2.452c-.098 0-.208-.012-.306-.024v-2.452c.098.012.196.025.306.025zm-1.189-.146v2.45a2.708 2.708 0 0 1-.306-.06v-2.452c.098.025.196.05.306.062zm-1.176-.282v2.451a2.248 2.248 0 0 1-.307-.086v-2.451c.098.037.209.061.307.086zm-1.19-.43v2.452a2.303 2.303 0 0 1-.306-.135V52.89c.099.049.197.098.307.135zm-1.176-.637v2.452a2.884 2.884 0 0 1-.306-.233v-2.452c.098.086.196.16.306.233zm-1.176-1.103v2.464a1.98 1.98 0 0 1-.307-.478v-2.464c.086.16.184.319.307.478z"/><path fill="#FED57A" d="m107.892 48.26.605-.35-.46-.267-.613.357-.068-.032a3.505 3.505 0 0 0-1.445-.315h-.01c-.49 0-.927.11-1.3.327-.347.201-.516.403-.502.6.015.218.195.497.535.83l.136.132-1.309.76-.08-.084c-.203-.22-.338-.514-.401-.876l-1.16.066c.087.443.345.838.769 1.173l.166.132-.48.279.46.266.484-.281.067.03c.485.222.988.336 1.495.34.493.007.95-.105 1.329-.325.348-.202.516-.408.498-.614-.02-.232-.207-.523-.557-.865l-.135-.133 1.272-.74.078.08c.176.18.31.404.403.668l1.106-.116a2.18 2.18 0 0 0-.711-.91l-.172-.132zm-2.822 2.392a.953.953 0 0 1-.488.126c-.131 0-.272-.022-.422-.067l-.319-.096 1.265-.735.076.107c.106.146.147.271.124.382-.021.108-.1.204-.236.283zm.507-1.579-.074-.122a.438.438 0 0 1-.064-.34c.029-.112.11-.208.24-.283.221-.13.492-.15.802-.064l.33.093-1.234.716z"/><path fill="#F9BB4A" d="m112.726 46.442-.012 2.451c0 .43-.11.858-.32 1.263-.085.159-.183.318-.306.465-.22.307-.514.601-.87.87-.098.086-.196.16-.306.221-.123.098-.258.172-.392.258-.16.085-.32.171-.49.257-.099.05-.197.098-.307.147a9.13 9.13 0 0 1-.87.331c-.098.025-.197.061-.307.086-.282.086-.576.16-.882.22-.098.025-.209.037-.307.062a10.57 10.57 0 0 1-.87.11 2.594 2.594 0 0 1-.306.025c-.295.036-.589.049-.883.049h-.306c-.295 0-.589-.025-.87-.05-.099 0-.209-.012-.307-.024a10.89 10.89 0 0 1-.883-.122 2.708 2.708 0 0 1-.306-.062 10.036 10.036 0 0 1-.87-.22 2.247 2.247 0 0 1-.307-.086 6.927 6.927 0 0 1-.882-.343 2.303 2.303 0 0 1-.307-.135c-.159-.086-.306-.16-.453-.245a6.187 6.187 0 0 1-.417-.258 2.883 2.883 0 0 1-.306-.233 3.862 3.862 0 0 1-.87-.858 1.98 1.98 0 0 1-.307-.478 2.599 2.599 0 0 1-.343-1.287l.012-2.463c0 .44.11-.015.331.402.086.16.184.319.307.478.22.307.514.6.87.87.098.086.196.16.306.233.135.086.27.172.417.258.147.085.294.159.453.245.099.049.197.098.307.135.282.134.576.245.882.343.098.037.209.061.307.086.282.085.576.159.87.22.098.025.196.05.306.062.295.049.589.098.883.122.098.012.196.025.306.025.282.024.576.049.87.036.099.013.209.013.307.013.294 0 .588-.013.883-.05.098 0 .208-.012.306-.024.294-.024.588-.061.87-.11.098-.025.209-.037.307-.061.306-.062.6-.135.882-.221.11-.025.209-.05.307-.086.306-.098.588-.208.87-.33.11-.05.208-.087.306-.136.172-.085.343-.171.503-.27.135-.073.257-.159.38-.244.11-.062.208-.135.306-.221.356-.27.65-.552.87-.858.123-.16.221-.319.307-.478.22-.417.33.039.33-.39z"/><path fill="#FED57A" d="M110.486 43.314c2.966 1.713 2.988 4.493.04 6.206-2.952 1.716-7.752 1.712-10.719 0-2.966-1.713-2.982-4.49-.029-6.206 2.947-1.712 7.741-1.712 10.708 0z"/><path fill="#EFAC41" d="M109.38 44.24c2.353 1.202 2.37 3.152.033 4.353-2.341 1.204-6.148 1.201-8.5 0-2.352-1.2-2.365-3.149-.023-4.352 2.337-1.201 6.139-1.201 8.49 0z"/><path fill="#D89B39" d="M112.395 47.716v2.44c-.086.159-.184.318-.307.465v-2.426c.123-.16.221-.32.307-.479zm-1.177 1.336v2.44c-.098.085-.196.159-.306.22v-2.439c.11-.061.208-.135.306-.22zm-1.189.736v2.44c-.098.048-.196.097-.306.146v-2.451c.11-.05.208-.086.306-.135zm-1.176.466v2.451c-.098.025-.197.061-.307.086V50.34c.11-.025.209-.05.307-.086zm-1.19.306v2.452c-.097.024-.208.036-.306.06v-2.45c.098-.025.209-.037.307-.062zm-1.176.172v2.451a2.594 2.594 0 0 1-.306.025v-2.452c.098 0 .208-.012.306-.024zm-1.189.073v2.452h-.306v-2.464c.098.012.208.012.306.012zm-1.177-.049v2.452c-.098 0-.208-.013-.306-.025v-2.451c.098.012.196.024.306.024zm-1.189-.147v2.452a2.708 2.708 0 0 1-.306-.062v-2.451c.098.024.196.049.306.061zm-1.176-.282v2.452a2.247 2.247 0 0 1-.307-.086V50.24c.098.037.209.062.307.086zm-1.19-.429v2.452a2.303 2.303 0 0 1-.306-.135v-2.452c.099.05.197.098.307.135zm-1.176-.637v2.451a2.883 2.883 0 0 1-.306-.233v-2.451c.098.086.196.16.306.233zm-1.176-1.103v2.463a1.98 1.98 0 0 1-.307-.478V47.68c.086.159.184.318.307.478z"/><path fill="#FED57A" d="m107.892 45.134.605-.351-.46-.266-.613.356-.068-.03a3.505 3.505 0 0 0-1.445-.316h-.01c-.49 0-.927.11-1.3.326-.347.202-.516.404-.502.6.015.218.195.497.535.83l.136.133-1.309.76-.08-.084c-.203-.22-.338-.514-.401-.876l-1.16.065c.087.444.345.838.769 1.174l.166.132-.48.279.46.266.484-.282.067.031c.485.222.988.336 1.495.34.493.007.95-.105 1.329-.325.348-.202.516-.409.498-.614-.02-.233-.207-.524-.557-.866l-.135-.133 1.272-.739.078.08c.176.18.31.404.403.667l1.106-.115a2.18 2.18 0 0 0-.711-.91l-.172-.132zm-2.822 2.392a.953.953 0 0 1-.488.126c-.131 0-.272-.022-.422-.067l-.319-.096 1.265-.735.076.106c.106.146.147.272.124.383-.021.108-.1.204-.236.283zm.507-1.58-.074-.122a.438.438 0 0 1-.064-.34c.029-.112.11-.207.24-.283.221-.13.492-.149.802-.064l.33.093-1.234.717z"/><path fill="#F9BB4A" d="m112.726 43.504-.012 2.451c0 .43-.11.858-.32 1.263-.085.16-.183.318-.306.466-.22.306-.514.6-.87.87-.098.086-.196.16-.306.22-.123.098-.258.172-.392.258-.16.086-.32.171-.49.257-.099.05-.197.098-.307.147a9.128 9.128 0 0 1-.87.331c-.098.025-.197.062-.307.086a9.28 9.28 0 0 1-.882.22c-.098.025-.209.037-.307.062a10.57 10.57 0 0 1-.87.11 2.594 2.594 0 0 1-.306.025c-.295.037-.589.049-.883.049h-.306c-.295 0-.589-.025-.87-.05-.099 0-.209-.012-.307-.024a10.894 10.894 0 0 1-.883-.122 2.708 2.708 0 0 1-.306-.062 10.036 10.036 0 0 1-.87-.22 2.248 2.248 0 0 1-.307-.086 6.927 6.927 0 0 1-.882-.343 2.304 2.304 0 0 1-.307-.135c-.159-.086-.306-.16-.453-.245a6.19 6.19 0 0 1-.417-.258 2.884 2.884 0 0 1-.306-.232 3.862 3.862 0 0 1-.87-.858 1.98 1.98 0 0 1-.307-.478 2.599 2.599 0 0 1-.343-1.287l.012-2.464c0 .441.11-.014.331.402.086.16.184.319.307.478.22.307.514.6.87.87.098.086.196.16.306.233.135.086.27.172.417.258.147.086.294.16.453.245.099.049.197.098.307.135.282.135.576.245.882.343.098.037.209.061.307.086.282.086.576.16.87.22.098.025.196.05.306.062.295.049.589.098.883.122.098.013.196.025.306.025.282.024.576.049.87.037.099.012.209.012.307.012.294 0 .588-.012.883-.05.098 0 .208-.011.306-.024.294-.024.588-.061.87-.11.098-.025.209-.037.307-.061.306-.062.6-.135.882-.22.11-.025.209-.05.307-.087.306-.098.588-.208.87-.33.11-.05.208-.086.306-.135.172-.086.343-.172.503-.27.135-.074.257-.16.38-.245.11-.062.208-.135.306-.221.356-.27.65-.551.87-.858.123-.16.221-.319.307-.478.22-.417.33.039.33-.39z"/><path fill="#FED57A" d="M110.486 40.376c2.966 1.713 2.988 4.493.04 6.206-2.952 1.716-7.752 1.712-10.719 0s-2.982-4.49-.029-6.206c2.947-1.712 7.741-1.712 10.708 0z"/><path fill="#EFAC41" d="M109.38 41.303c2.353 1.201 2.37 3.151.033 4.352-2.341 1.204-6.148 1.202-8.5 0-2.352-1.2-2.365-3.148-.023-4.352 2.337-1.201 6.139-1.201 8.49 0z"/><path fill="#D89B39" d="M112.395 44.779v2.439c-.086.16-.184.318-.307.466v-2.427c.123-.16.221-.319.307-.478zm-1.177 1.336v2.439c-.098.086-.196.16-.306.22v-2.439c.11-.061.208-.135.306-.22zm-1.189.735v2.44c-.098.048-.196.097-.306.146v-2.451c.11-.05.208-.086.306-.135zm-1.176.466v2.451c-.098.025-.197.062-.307.086v-2.451c.11-.025.209-.05.307-.086zm-1.19.306v2.452c-.097.024-.208.036-.306.06v-2.45c.098-.025.209-.037.307-.062zm-1.176.172v2.451a2.594 2.594 0 0 1-.306.025v-2.452c.098 0 .208-.012.306-.024zm-1.189.073v2.452h-.306v-2.464c.098.012.208.012.306.012zm-1.177-.049v2.452c-.098 0-.208-.013-.306-.025v-2.451c.098.012.196.024.306.024zm-1.189-.147v2.452a2.708 2.708 0 0 1-.306-.062V47.61c.098.025.196.049.306.061zm-1.176-.282v2.452a2.248 2.248 0 0 1-.307-.086v-2.451c.098.036.209.06.307.085zm-1.19-.429v2.452a2.304 2.304 0 0 1-.306-.135v-2.451c.099.049.197.098.307.134zm-1.176-.637v2.451a2.884 2.884 0 0 1-.306-.232V46.09c.098.086.196.16.306.233zm-1.176-1.103v2.464a1.98 1.98 0 0 1-.307-.478v-2.464c.086.16.184.319.307.478z"/><path fill="#FED57A" d="m107.892 42.196.605-.351-.46-.266-.613.356-.068-.03a3.505 3.505 0 0 0-1.445-.316h-.01c-.49 0-.927.11-1.3.327-.347.201-.516.403-.502.599.015.218.195.497.535.83l.136.133-1.309.76-.08-.084c-.203-.22-.338-.514-.401-.876l-1.16.065c.087.444.345.839.769 1.174l.166.132-.48.279.46.266.484-.282.067.032c.485.22.988.335 1.495.339.493.007.95-.105 1.329-.325.348-.202.516-.409.498-.614-.02-.232-.207-.523-.557-.866l-.135-.132 1.272-.74.078.08c.176.18.31.404.403.668l1.106-.116a2.18 2.18 0 0 0-.711-.91l-.172-.132zm-2.822 2.392a.953.953 0 0 1-.488.126c-.131 0-.272-.022-.422-.067l-.319-.096 1.265-.735.076.106c.106.147.147.272.124.383-.021.108-.1.204-.236.283zm.507-1.579-.074-.123a.438.438 0 0 1-.064-.34c.029-.111.11-.207.24-.283.221-.13.492-.149.802-.063l.33.092-1.234.717z"/><path fill="#F9BB4A" d="m112.726 40.378-.012 2.451c0 .429-.11.858-.32 1.262-.085.16-.183.32-.306.466-.22.307-.514.6-.87.87-.098.086-.196.16-.306.221-.123.098-.258.172-.392.257-.16.086-.32.172-.49.258-.099.049-.197.098-.307.147a9.133 9.133 0 0 1-.87.33c-.098.025-.197.062-.307.087-.282.085-.576.159-.882.22-.098.025-.209.037-.307.062-.294.049-.576.085-.87.11a2.594 2.594 0 0 1-.306.024c-.295.037-.589.05-.883.05h-.306c-.295 0-.589-.025-.87-.05-.099 0-.209-.012-.307-.024a10.89 10.89 0 0 1-.883-.123 2.708 2.708 0 0 1-.306-.061 10.036 10.036 0 0 1-.87-.22 2.248 2.248 0 0 1-.307-.086 6.927 6.927 0 0 1-.882-.344 2.303 2.303 0 0 1-.307-.134c-.159-.086-.306-.16-.453-.246a6.187 6.187 0 0 1-.417-.257 2.883 2.883 0 0 1-.306-.233 3.862 3.862 0 0 1-.87-.858 1.98 1.98 0 0 1-.307-.478 2.599 2.599 0 0 1-.343-1.287l.012-2.464c0 .442.11-.014.331.403.086.16.184.319.307.478.22.306.514.6.87.87.098.086.196.16.306.233.135.086.27.172.417.257.147.086.294.16.453.246.099.049.197.098.307.134.282.135.576.246.882.344.098.036.209.06.307.085.282.086.576.16.87.221.098.025.196.05.306.061.295.05.589.098.883.123.098.012.196.024.306.024.282.025.576.05.87.037.099.012.209.012.307.012.294 0 .588-.012.883-.049.098 0 .208-.012.306-.024.294-.025.588-.061.87-.11.098-.025.209-.037.307-.062.306-.06.6-.134.882-.22.11-.025.209-.05.307-.086.306-.098.588-.208.87-.331.11-.05.208-.086.306-.135.172-.086.343-.171.503-.27.135-.073.257-.159.38-.245.11-.061.208-.135.306-.22.356-.27.65-.552.87-.858.123-.16.221-.319.307-.478.22-.417.33.039.33-.39z"/><path fill="#FED57A" d="M110.486 37.25c2.966 1.712 2.988 4.493.04 6.205-2.952 1.716-7.752 1.713-10.719 0-2.966-1.712-2.982-4.49-.029-6.205 2.947-1.713 7.741-1.713 10.708 0z"/><path fill="#EFAC41" d="M109.38 38.177c2.353 1.2 2.37 3.15.033 4.352-2.341 1.204-6.148 1.201-8.5 0-2.352-1.201-2.365-3.149-.023-4.352 2.337-1.202 6.139-1.202 8.49 0z"/><path fill="#D89B39" d="M112.395 41.652v2.44c-.086.159-.184.318-.307.465V42.13c.123-.16.221-.318.307-.478zm-1.177 1.336v2.44c-.098.085-.196.159-.306.22v-2.44c.11-.06.208-.134.306-.22zm-1.189.736v2.439c-.098.049-.196.098-.306.147v-2.452c.11-.048.208-.085.306-.134zm-1.176.465v2.452c-.098.024-.197.061-.307.086v-2.452c.11-.024.209-.049.307-.086zm-1.19.307v2.451c-.097.025-.208.037-.306.062v-2.452c.098-.024.209-.037.307-.061zm-1.176.171v2.452a2.594 2.594 0 0 1-.306.024v-2.451c.098 0 .208-.012.306-.025zm-1.189.074v2.451h-.306V44.73c.098.012.208.012.306.012zm-1.177-.049v2.451c-.098 0-.208-.012-.306-.024v-2.451c.098.012.196.024.306.024zm-1.189-.147v2.451a2.708 2.708 0 0 1-.306-.061v-2.451c.098.024.196.049.306.06zm-1.176-.282v2.451a2.248 2.248 0 0 1-.307-.085v-2.452c.098.037.209.061.307.086zm-1.19-.429v2.451a2.303 2.303 0 0 1-.306-.134v-2.452c.099.05.197.098.307.135zm-1.176-.637v2.451a2.883 2.883 0 0 1-.306-.233v-2.451c.098.086.196.16.306.233zm-1.176-1.104v2.464a1.98 1.98 0 0 1-.307-.478v-2.464c.086.16.184.32.307.478z"/><path fill="#FED57A" d="m107.892 39.07.605-.351-.46-.266-.613.356-.068-.031a3.505 3.505 0 0 0-1.445-.315h-.01c-.49 0-.927.11-1.3.326-.347.202-.516.403-.502.6.015.218.195.497.535.83l.136.132-1.309.761-.08-.085c-.203-.22-.338-.513-.401-.876l-1.16.066c.087.443.345.838.769 1.174l.166.132-.48.278.46.266.484-.281.067.031c.485.221.988.336 1.495.34.493.006.95-.106 1.329-.325.348-.202.516-.41.498-.615-.02-.232-.207-.523-.557-.865l-.135-.133 1.272-.74.078.081c.176.18.31.403.403.667l1.106-.116a2.18 2.18 0 0 0-.711-.91l-.172-.131zm-2.822 2.392a.953.953 0 0 1-.488.126c-.131 0-.272-.022-.422-.067l-.319-.096 1.265-.735.076.106c.106.146.147.272.124.383-.021.108-.1.204-.236.283zm.507-1.58-.074-.122a.438.438 0 0 1-.064-.34c.029-.112.11-.207.24-.283.221-.13.492-.149.802-.064l.33.093-1.234.717z"/><path fill="#F9BB4A" d="m112.726 37.44-.012 2.451c0 .43-.11.858-.32 1.263-.085.159-.183.318-.306.465-.22.307-.514.6-.87.87-.098.086-.196.16-.306.221-.123.098-.258.172-.392.258-.16.085-.32.171-.49.257-.099.049-.197.098-.307.147a9.128 9.128 0 0 1-.87.331c-.098.024-.197.061-.307.086a9.28 9.28 0 0 1-.882.22c-.098.025-.209.037-.307.062a10.57 10.57 0 0 1-.87.11 2.594 2.594 0 0 1-.306.025c-.295.036-.589.049-.883.049h-.306c-.295 0-.589-.025-.87-.05-.099 0-.209-.012-.307-.024a10.894 10.894 0 0 1-.883-.123 2.708 2.708 0 0 1-.306-.06 10.036 10.036 0 0 1-.87-.221 2.248 2.248 0 0 1-.307-.086 6.927 6.927 0 0 1-.882-.343 2.304 2.304 0 0 1-.307-.135c-.159-.086-.306-.16-.453-.245a6.19 6.19 0 0 1-.417-.258 2.884 2.884 0 0 1-.306-.233 3.862 3.862 0 0 1-.87-.858 1.98 1.98 0 0 1-.307-.478 2.599 2.599 0 0 1-.343-1.287l.012-2.463c0 .44.11-.015.331.402.086.16.184.319.307.478.22.307.514.6.87.87.098.086.196.16.306.233.135.086.27.172.417.258.147.085.294.159.453.245.099.049.197.098.307.135.282.134.576.245.882.343.098.037.209.061.307.086.282.085.576.159.87.22.098.025.196.05.306.061.295.05.589.099.883.123.098.012.196.025.306.025.282.024.576.049.87.036.099.013.209.013.307.013.294 0 .588-.013.883-.05.098 0 .208-.012.306-.024.294-.024.588-.061.87-.11.098-.025.209-.037.307-.061.306-.062.6-.135.882-.221.11-.025.209-.05.307-.086.306-.098.588-.208.87-.33.11-.05.208-.087.306-.136.172-.086.343-.171.503-.27.135-.073.257-.159.38-.244.11-.062.208-.135.306-.221.356-.27.65-.552.87-.858.123-.16.221-.319.307-.478.22-.417.33.039.33-.39z"/><path fill="#FED57A" d="M110.486 34.312c2.966 1.713 2.988 4.493.04 6.206-2.952 1.716-7.752 1.712-10.719 0-2.966-1.713-2.982-4.49-.029-6.206 2.947-1.713 7.741-1.713 10.708 0z"/><path fill="#EFAC41" d="M109.38 35.239c2.353 1.2 2.37 3.151.033 4.352-2.341 1.204-6.148 1.201-8.5 0-2.352-1.2-2.365-3.149-.023-4.352 2.337-1.201 6.139-1.201 8.49 0z"/><path fill="#D89B39" d="M112.395 38.714v2.44c-.086.159-.184.318-.307.465v-2.427c.123-.159.221-.318.307-.478zm-1.177 1.336v2.44c-.098.085-.196.159-.306.22v-2.439c.11-.061.208-.135.306-.22zm-1.189.736v2.439c-.098.049-.196.098-.306.147v-2.451c.11-.05.208-.086.306-.135zm-1.176.466v2.451c-.098.024-.197.061-.307.086v-2.452c.11-.024.209-.049.307-.085zm-1.19.306v2.451c-.097.025-.208.037-.306.062v-2.452c.098-.024.209-.036.307-.06zm-1.176.172v2.451a2.594 2.594 0 0 1-.306.025v-2.452c.098 0 .208-.012.306-.024zm-1.189.073v2.452h-.306V41.79c.098.012.208.012.306.012zm-1.177-.049v2.452c-.098 0-.208-.013-.306-.025V41.73c.098.012.196.024.306.024zm-1.189-.147v2.451a2.708 2.708 0 0 1-.306-.06v-2.452c.098.024.196.049.306.061zm-1.176-.282v2.452a2.248 2.248 0 0 1-.307-.086v-2.452c.098.037.209.062.307.086zm-1.19-.429v2.452a2.304 2.304 0 0 1-.306-.135V40.76c.099.05.197.098.307.135zm-1.176-.637v2.451a2.884 2.884 0 0 1-.306-.233v-2.451c.098.086.196.16.306.233zm-1.176-1.103v2.463a1.98 1.98 0 0 1-.307-.478v-2.463c.086.159.184.318.307.478z"/><path fill="#FED57A" d="m107.892 36.132.605-.351-.46-.266-.613.356-.068-.031a3.505 3.505 0 0 0-1.445-.315h-.01c-.49 0-.927.11-1.3.326-.347.202-.516.404-.502.6.015.218.195.497.535.83l.136.133-1.309.76-.08-.084c-.203-.22-.338-.514-.401-.876l-1.16.065c.087.444.345.838.769 1.174l.166.132-.48.278.46.266.484-.28.067.03c.485.222.988.336 1.495.34.493.007.95-.105 1.329-.325.348-.202.516-.409.498-.615-.02-.232-.207-.523-.557-.865l-.135-.133 1.272-.739.078.08c.176.18.31.404.403.667l1.106-.115a2.18 2.18 0 0 0-.711-.91l-.172-.132zm-2.822 2.392a.953.953 0 0 1-.488.126c-.131 0-.272-.022-.422-.067l-.319-.096 1.265-.735.076.106c.106.146.147.272.124.383-.021.108-.1.204-.236.283zm.507-1.58-.074-.122a.438.438 0 0 1-.064-.34c.029-.112.11-.207.24-.283.221-.13.492-.149.802-.064l.33.093-1.234.717z"/><path fill="#F9BB4A" d="m112.726 34.313-.012 2.452c0 .429-.11.858-.32 1.262-.085.16-.183.319-.306.466-.22.306-.514.6-.87.87-.098.086-.196.16-.306.22-.123.099-.258.172-.392.258-.16.086-.32.172-.49.258-.099.049-.197.098-.307.147a9.133 9.133 0 0 1-.87.33c-.098.025-.197.062-.307.086-.282.086-.576.16-.882.221-.098.025-.209.037-.307.061-.294.05-.576.086-.87.11a2.596 2.596 0 0 1-.306.025c-.295.037-.589.05-.883.05h-.306c-.295 0-.589-.025-.87-.05-.099 0-.209-.012-.307-.024a10.89 10.89 0 0 1-.883-.123 2.708 2.708 0 0 1-.306-.061 10.036 10.036 0 0 1-.87-.22 2.248 2.248 0 0 1-.307-.087 6.927 6.927 0 0 1-.882-.343 2.303 2.303 0 0 1-.307-.135c-.159-.086-.306-.159-.453-.245a6.187 6.187 0 0 1-.417-.257 2.883 2.883 0 0 1-.306-.233 3.862 3.862 0 0 1-.87-.858 1.98 1.98 0 0 1-.307-.478 2.599 2.599 0 0 1-.343-1.287l.012-2.464c0 .441.11-.014.331.403a4.177 4.177 0 0 0 1.177 1.348c.098.086.196.16.306.233.135.086.27.171.417.257.147.086.294.16.453.245.099.05.197.098.307.135.282.135.576.245.882.343.098.037.209.062.307.086.282.086.576.16.87.22.098.025.196.05.306.062.295.05.589.098.883.123.098.012.196.024.306.024.282.025.576.05.87.037.099.012.209.012.307.012.294 0 .588-.012.883-.049.098 0 .208-.012.306-.024.294-.025.588-.062.87-.11.098-.025.209-.037.307-.062.306-.061.6-.135.882-.22.11-.025.209-.05.307-.086.306-.098.588-.209.87-.331.11-.05.208-.086.306-.135.172-.086.343-.172.503-.27.135-.073.257-.16.38-.245.11-.061.208-.135.306-.22.356-.27.65-.552.87-.859.123-.159.221-.318.307-.478.22-.416.33.04.33-.39z"/><path fill="#FED57A" d="M110.486 31.186c2.966 1.712 2.988 4.493.04 6.205-2.952 1.716-7.752 1.713-10.719 0-2.966-1.712-2.982-4.49-.029-6.205 2.947-1.713 7.741-1.713 10.708 0z"/><path fill="#EFAC41" d="M109.38 32.112c2.353 1.202 2.37 3.152.033 4.353-2.341 1.203-6.148 1.2-8.5 0-2.352-1.201-2.365-3.149-.023-4.353 2.337-1.2 6.139-1.2 8.49 0z"/><path fill="#D89B39" d="M112.395 35.588v2.44c-.086.158-.184.318-.307.465v-2.427c.123-.16.221-.319.307-.478zm-1.177 1.336v2.44c-.098.085-.196.159-.306.22v-2.44c.11-.06.208-.134.306-.22zm-1.189.735v2.44c-.098.049-.196.098-.306.147v-2.452c.11-.049.208-.086.306-.135zm-1.176.466v2.452c-.098.024-.197.06-.307.085v-2.451c.11-.025.209-.049.307-.086zm-1.19.307v2.451c-.097.025-.208.037-.306.061v-2.451c.098-.025.209-.037.307-.061zm-1.176.171v2.452a2.596 2.596 0 0 1-.306.024v-2.451c.098 0 .208-.013.306-.025zm-1.189.074v2.451h-.306v-2.463c.098.012.208.012.306.012zm-1.177-.05v2.452c-.098 0-.208-.012-.306-.024v-2.452c.098.012.196.025.306.025zm-1.189-.146v2.451a2.708 2.708 0 0 1-.306-.061v-2.452c.098.025.196.05.306.062zm-1.176-.282v2.451a2.248 2.248 0 0 1-.307-.086v-2.451c.098.037.209.061.307.086zm-1.19-.43v2.452a2.303 2.303 0 0 1-.306-.135v-2.451c.099.049.197.098.307.135zm-1.176-.637v2.452a2.883 2.883 0 0 1-.306-.233V36.9c.098.085.196.159.306.232zm-1.176-1.103v2.464a1.98 1.98 0 0 1-.307-.478V35.55c.086.16.184.319.307.478z"/><path fill="#FED57A" d="m107.892 33.006.605-.352-.46-.266-.613.357-.068-.031a3.505 3.505 0 0 0-1.445-.316h-.01c-.49 0-.927.11-1.3.327-.347.202-.516.403-.502.6.015.218.195.497.535.83l.136.132-1.309.761-.08-.085c-.203-.22-.338-.514-.401-.876l-1.16.066c.087.443.345.838.769 1.173l.166.133-.48.278.46.266.484-.281.067.03c.485.222.988.336 1.495.34.493.007.95-.105 1.329-.324.348-.203.516-.41.498-.615-.02-.232-.207-.523-.557-.865l-.135-.133 1.272-.74.078.08c.176.18.31.404.403.668l1.106-.116a2.18 2.18 0 0 0-.711-.91l-.172-.131zm-2.822 2.392a.953.953 0 0 1-.488.126c-.131 0-.272-.023-.422-.068l-.319-.096 1.265-.735.076.107c.106.146.147.271.124.383-.021.107-.1.203-.236.283zm.507-1.58-.074-.122a.438.438 0 0 1-.064-.34c.029-.112.11-.207.24-.283.221-.13.492-.15.802-.064l.33.093-1.234.716z"/><path fill="#F9607F" d="m35.831 16.542-2.237-1.301 6.097-11.767 2.238 1.301zM21.814 31.272l-2.238-1.301 10.213-17.525 2.238 1.3zM10.336 42.996l-2.238-1.301 8.051-13.933 2.238 1.301z"/><path fill="#F34858" d="m6.443 41.335-2.237-1.3 3.892 1.66 2.238 1.301z"/><path fill="#F9607F" d="m6.47 50.617-2.238-1.301-.026-9.281 2.237 1.3z"/><path fill="#FA5168" d="m41.929 4.775.072 25.328L6.47 50.617l-.027-9.282 3.893 1.661 8.051-13.933 3.427 2.209 10.213-17.526 3.804 2.796z"/><path fill="#9AD898" d="m40.925 19.397-2.238-1.3L44.785 6.33l2.237 1.3zM26.907 34.127l-2.237-1.3 10.213-17.526 2.237 1.301zM15.429 45.851l-2.237-1.3 8.051-13.933 2.237 1.3z"/><path fill="#6EBA6E" d="m11.537 44.191-2.238-1.3 3.893 1.66 2.237 1.3z"/><path fill="#9AD898" d="m11.563 53.472-2.237-1.3-.027-9.281 2.238 1.3z"/><path fill="#75CA75" d="m47.022 7.63.072 25.329-35.531 20.513-.026-9.281 3.892 1.66 8.051-13.933 3.427 2.209L37.12 16.602l3.805 2.795z"/><path fill="#FED57A" d="m46.018 22.253-2.237-1.3 6.098-11.767 2.237 1.3zM32.001 36.983l-2.238-1.3 10.213-17.526 2.238 1.3zM20.523 48.707l-2.237-1.3 8.05-13.933 2.238 1.3z"/><path fill="#EFAC41" d="m16.63 47.047-2.237-1.3 3.893 1.66 2.237 1.3z"/><path fill="#FED57A" d="m16.657 56.328-2.238-1.3-.026-9.281 2.237 1.3z"/><path fill="#F9BB4A" d="m52.116 10.486.072 25.328-35.531 20.514-.027-9.281 3.893 1.66 8.051-13.933 3.427 2.209 10.213-17.526 3.804 2.796z"/><path fill="#37617B" d="m.98 101.784.011 3.366c0 .149.092.286.275.389l37.354 21.716c.378.218 1.007.218 1.385 0l25.39-14.664c.195-.115.287-.264.287-.4v-3.366c0 .137-64.702-6.892-64.702-7.04z"/><path fill="#4C7891" d="m65.396 109.218-25.399 14.67c-.386.22-1.005.22-1.378 0L1.254 102.173c-.373-.219-.36-.58.013-.799l25.4-14.657c.386-.219.991-.219 1.377 0l37.352 21.716c.387.219.374.566 0 .785z"/><path fill="#E4E8F4" d="M34.896 117.952c-.38.22-.382.574-.005.794l3.602 2.093c.377.22.99.22 1.37 0l3.479-2.009c.38-.22.382-.574.004-.793l-3.602-2.093c-.377-.22-.99-.22-1.37 0l-3.478 2.008zm16.65-9.612c-.38.219-.383.573-.005.793l3.602 2.093c.377.22.99.22 1.37 0l3.478-2.009c.38-.22.382-.574.005-.793l-3.602-2.093c-.378-.22-.99-.22-1.37 0l-3.479 2.009zM35.396 98.955c-.38.219-.375.578.003.797l3.594 2.089c.385.224.997.224 1.377.004l3.48-2.008c.38-.22.381-.574-.004-.798l-3.594-2.089c-.378-.22-.997-.224-1.377-.004l-3.479 2.009zm8.075 4.692c-.38.22-.375.578.003.798l3.594 2.088c.378.22.99.22 1.37 0l3.479-2.008c.38-.22.382-.574.004-.794l-3.594-2.088c-.378-.22-.997-.224-1.377-.005l-3.48 2.01z"/><path fill="#F9607F" d="M27.071 103.76c-.38.22-.375.579.003.798l3.594 2.09c.385.223.997.223 1.377.004l3.48-2.01c.38-.219.381-.573-.004-.797l-3.594-2.089c-.378-.219-.997-.223-1.377-.004l-3.479 2.009z"/><path fill="#748BFD" d="m36.588 95.281-20.41 11.79c-.38.23-1 .23-1.37 0l-8.13-4.72c-.39-.23-.39-.58 0-.8l20.4-11.78c.39-.23.99-.22 1.38 0l8.14 4.73c.37.21.37.56-.01.78z"/><path fill="#E4E8F4" d="M35.146 108.453c-.38.22-.375.579.003.798l3.594 2.089c.378.22.99.22 1.37 0l3.479-2.009c.38-.22.382-.574.004-.793l-3.594-2.089c-.378-.22-.997-.224-1.377-.004l-3.48 2.008z"/><path fill="#FED57A" d="M18.746 108.567c-.38.22-.375.578.003.798l3.594 2.089c.385.223.997.223 1.377.004l3.48-2.009c.38-.22.381-.574-.003-.797l-3.595-2.09c-.377-.219-.997-.223-1.377-.003l-3.479 2.008z"/><path fill="#E4E8F4" d="M26.821 113.26c-.38.22-.375.578.003.797l3.594 2.09c.378.219.99.219 1.37 0l3.479-2.01c.38-.219.382-.573.004-.793l-3.594-2.089c-.378-.219-.997-.223-1.377-.004l-3.479 2.009zM43.22 113.146c-.38.22-.382.574-.004.793l3.602 2.093c.377.22.99.22 1.37 0l3.478-2.008c.38-.22.382-.574.005-.794l-3.602-2.093c-.377-.22-.99-.22-1.37 0l-3.479 2.009z"/><path fill="#FED57A" d="m117.668 88.975 2.576 4.973 4.25-4.792.678-.768.723-.769-1.13.181-1.085.181z"/><path fill="#748BFD" d="M72.93 114.838c.36-.181.858-.181 1.4.135 1.13.678 2.035 2.216 2.035 3.481 0 .633-.226 1.085-.588 1.311l44.479-25.808c.361-.226.587-.678.587-1.31 0-1.267-.904-2.803-2.034-3.436-.543-.317-1.04-.362-1.402-.136L72.93 114.838z"/><path fill="#4562EF" d="M74.35 114.988c-1.096-.633-1.994-.122-1.997 1.138-.004 1.294.888 2.839 1.985 3.472 1.125.65 2.023.139 2.027-1.155.003-1.26-.889-2.805-2.014-3.455z"/><path fill="#5B5E71" d="m123.68 87.981.814 1.175.678-.768.723-.769-1.13.181z"/></svg>