<?xml version="1.0" encoding="UTF-8"?><svg id="Layer_2" xmlns="http://www.w3.org/2000/svg" viewBox="0 0 38.77 48"><defs><style>.cls-1{fill:#e9e8e6;}.cls-2{fill:#ffe2a9;}.cls-3{fill:#fff;}.cls-4{fill:#efc348;}.cls-5{fill:#ffd651;}.cls-6{fill:#cea03a;}.cls-7{fill:#ddb040;}.cls-8{fill:#c4c2c0;}.cls-9{fill:#d6d4d2;}.cls-10{fill:#74ffca;}.cls-11{fill:#74ffc2;}.cls-12{fill:#5fffd4;stroke:#aafbff;stroke-miterlimit:10;}.cls-13{isolation:isolate;}</style></defs><g id="Layer_1-2"><polygon class="cls-5" points="36.53 43.28 4.79 22.72 1.35 26.8 33.18 45.3 36.53 43.28"/><polygon class="cls-2" points="38.7 18.45 6.95 0 4.72 1.23 36.47 19.68 38.7 18.45"/><polygon class="cls-5" points="38.7 18.45 10.88 2.28 8.65 3.51 36.47 19.68 38.7 18.45"/><polygon class="cls-4" points="38.7 18.45 18.72 6.84 16.49 8.07 36.47 19.68 38.7 18.45"/><polygon class="cls-7" points="36.47 19.68 4.72 1.23 4.79 22.72 36.53 43.28 36.47 19.68"/><g class="cls-13"><polygon class="cls-2" points="36.47 19.68 38.7 18.45 37.97 15.48 35.8 16.74 36.47 19.68"/><polygon class="cls-2" points="35.8 16.74 37.97 15.48 27.94 9.69 25.77 10.95 35.8 16.74"/><polygon class="cls-5" points="35.8 16.74 37.97 15.48 32.63 12.39 30.45 13.65 35.8 16.74"/><polygon class="cls-7" points="25.77 10.95 25.03 13.08 36.47 19.68 35.8 16.74 25.77 10.95"/></g><g class="cls-13"><polygon class="cls-1" points="35.54 43.85 36.35 43.38 36.41 20.15 35.6 20.62 35.54 43.85"/><polygon class="cls-3" points="35.6 20.62 36.41 20.15 6.02 2.55 5.21 3.03 35.6 20.62"/><polygon class="cls-1" points="35.6 20.62 36.41 20.15 13.93 7.14 13.13 7.61 35.6 20.62"/><polygon class="cls-8" points="35.6 20.62 36.41 20.15 24.89 13.48 24.08 13.95 35.6 20.62"/><polygon class="cls-9" points="5.21 3.03 5.15 26.26 35.54 43.85 35.6 20.62 5.21 3.03"/></g><g class="cls-13"><polygon class="cls-12" points="33.35 24.68 33.92 24.35 33.94 17.34 33.37 17.67 33.35 24.68"/><polygon class="cls-12" points="33.37 17.67 33.94 17.34 30.02 15.08 29.45 15.41 33.37 17.67"/><polygon class="cls-12" points="29.45 15.41 29.43 22.42 33.35 24.68 33.37 17.67 29.45 15.41"/></g><g class="cls-13"><polygon class="cls-1" points="34.15 44.66 34.96 44.19 35.02 20.95 34.21 21.42 34.15 44.66"/><polygon class="cls-3" points="34.21 21.42 35.02 20.95 4.63 3.36 3.82 3.83 34.21 21.42"/><polygon class="cls-1" points="34.21 21.42 35.02 20.95 12.67 8.01 11.86 8.48 34.21 21.42"/><polygon class="cls-8" points="34.21 21.42 35.02 20.95 23.67 14.38 22.86 14.85 34.21 21.42"/><polygon class="cls-9" points="3.82 3.83 3.76 27.06 34.15 44.66 34.21 21.42 3.82 3.83"/></g><polygon class="cls-7" points="31.75 31.45 0 13 .07 29.04 31.82 48 31.75 31.45"/><polygon class="cls-2" points="33.97 30.22 24.66 24.85 22.44 26.08 31.75 31.45 33.97 30.22"/><polygon class="cls-5" points="33.97 30.22 29.91 27.88 27.69 29.11 31.75 31.45 33.97 30.22"/><polygon class="cls-4" points="31.75 31.45 31.82 48 38.77 44.04 38.7 18.45 36.47 19.68 36.53 43.28 34.04 44.77 33.97 30.22 31.75 31.45"/><polygon class="cls-6" points="31.75 41.73 31.82 48 38.77 44.04 38.7 28.74 36.47 29.97 36.53 43.28 34.04 44.77 33.97 40.51 31.75 41.73"/><g class="cls-13"><polygon class="cls-6" points="22.44 26.08 24.66 24.85 24.69 15.52 22.47 16.75 22.44 26.08"/><polygon class="cls-2" points="22.47 16.75 24.69 15.52 2.25 2.43 .03 3.66 22.47 16.75"/><polygon class="cls-5" points="22.47 16.75 24.69 15.52 6.4 4.85 4.18 6.08 22.47 16.75"/><polygon class="cls-4" points="22.47 16.75 24.69 15.52 15.59 10.21 13.37 11.44 22.47 16.75"/><polygon class="cls-7" points=".03 3.66 0 13 22.44 26.08 22.47 16.75 .03 3.66"/></g><path class="cls-10" d="M18.11,17.77c1.67,0,3.05,1.34,3.05,3.05,0-1.68,1.37-3.05,3.05-3.05-1.69,0-3.05-1.37-3.05-3.05,0,1.69-1.36,3.05-3.05,3.05Z"/><g><polygon class="cls-11" points="8.72 25.22 8.72 26.65 1.26 22.34 1.26 20.92 8.72 25.22"/><polygon class="cls-11" points="8.72 28.14 8.72 29.57 1.26 25.26 1.26 23.84 8.72 28.14"/><polygon class="cls-11" points="8.72 31.06 8.72 32.49 1.26 28.18 1.26 26.76 8.72 31.06"/></g></g></svg>