<svg xmlns="http://www.w3.org/2000/svg" viewBox="0 0 130 130"><path fill="#297c75" d="m105.133 10.223-12.82-7.344a9.527 9.527 0 0 0-1.8-1.032l-.19-.108-.008.016C86.866.353 82.411.86 77.551 3.665L38.064 26.46c-10.856 6.269-19.74 21.655-19.74 34.193v45.591c0 6.114 2.124 10.45 5.547 12.578l-.033.059 14.248 8.072 8.012-13.949 31.453-18.157c10.856-6.269 19.74-21.655 19.74-34.193V23.876l7.842-13.653z" class="color29537c svgShape"/><path fill="#1d6862" d="M105.133 10.223 91.411 7.005c-.562-.409-3.364-.399-4.003-.677l-1.017-.408-1.832-.34c-3.448-1.402-2.148-4.721-7.008-1.916L38.064 26.46c-10.856 6.269-19.74 21.655-19.74 34.193v45.591c0 6.114 2.124 10.45 5.547 12.578l-.033.059 14.248 8.072 8.012-13.949 31.453-18.157c10.856-6.269 19.74-21.655 19.74-34.193V23.876l7.842-13.653z" class="color1d3f68 svgShape"/><path fill="#155e58" d="M19.076 54.084c-.479 2.232-.752 4.443-.752 6.569v45.591c0 6.114 2.124 10.45 5.547 12.578l-.033.059 14.248 8.072 8.012-13.949 31.453-18.157c1.844-1.065 3.627-2.411 5.322-3.945L19.076 54.084z" class="color15335e svgShape"/><path fill="#59efe3" d="M18.324 63.662v41.112c0 6.114 2.124 10.45 5.547 12.577l-.033.06 14.248 8.073 8.012-13.95 28.962-16.72-56.736-31.152z" class="color59a8ef svgShape"/><path fill="#34d6c9" d="M18.324 65.133v41.111c0 6.114 2.124 10.45 5.547 12.578l-.033.059 14.248 8.072 8.012-13.949L75.06 96.285 18.324 65.133z" class="color3491d6 svgShape"/><path fill="#057067" d="M51.635 34.329c-10.857 6.269-19.741 21.655-19.741 34.193v45.591c0 12.538 8.884 17.666 19.741 11.398l39.485-22.796c10.856-6.269 19.741-21.655 19.741-34.193v-45.59c0-12.538-8.885-17.666-19.741-11.398L51.635 34.329z" class="color053a70 svgShape"/><path fill="#084944" d="M110.861 22.932c0-12.538-8.885-17.666-19.741-11.398L51.635 34.329c-10.857 6.269-19.741 21.655-19.741 34.193v45.591c0 12.538 8.884 17.666 19.741 11.398" class="color082649 svgShape"/><path fill="#155e58" d="M42.865 129h-.002c-7.158 0-11.783-5.844-11.783-14.887V68.522c0-12.829 9.037-28.485 20.147-34.897l39.485-22.796c3.201-1.848 6.289-2.784 9.178-2.784 7.158 0 11.785 5.844 11.785 14.887v45.591c0 12.829-9.039 28.485-20.148 34.897l-39.485 22.796c-3.201 1.847-6.288 2.784-9.177 2.784zM99.891 9.674c-2.6 0-5.414.863-8.363 2.564L52.042 35.033c-10.66 6.156-19.334 21.179-19.334 33.489v45.591c0 8.178 3.891 13.259 10.155 13.259h.002c2.6 0 5.413-.864 8.362-2.565l39.485-22.795c10.66-6.155 19.334-21.179 19.334-33.489V22.932c.001-8.178-3.89-13.258-10.155-13.258z" class="color15335e svgShape"/><path fill="#7bfff4" d="M57.521 46.373c-.014-1.836-1.326-2.586-2.92-1.67L37.242 54.727c-1.592.916-2.895 3.176-2.895 5.013v10.022l23.246-13.424-.072-9.965z" class="color7bc7ff svgShape"/><path fill="#59efe3" d="M57.521 47.355c-.014-1.836-1.326-2.586-2.92-1.669L37.242 55.709c-1.592.917-2.895 3.176-2.895 5.013v10.022L57.594 57.32l-.073-9.965z" class="color59a8ef svgShape"/><path fill="#59efe3" d="M111.676 24.25c-.428-.984-1.469-1.262-2.684-.559L33.763 67.125c-1.214.703-2.255 2.182-2.683 3.658v43.33c0 9.043 4.625 14.887 11.783 14.887h.002c2.889 0 5.976-.937 9.177-2.784l39.485-22.796c11.109-6.412 20.148-22.068 20.148-34.897V24.25z" class="color59a8ef svgShape"/><path fill="#41e1d4" d="M37.319 127.568c1.603.924 3.462 1.432 5.544 1.432h.002c2.889 0 5.976-.937 9.177-2.784l39.485-22.796c11.109-6.412 20.148-22.068 20.148-34.897V24.25c-.033-.076-.076-.139-.117-.207-.035-.059-.07-.119-.111-.172a1.457 1.457 0 0 0-.307-.293c-.051-.037-.102-.076-.158-.105a1.408 1.408 0 0 0-.355-.135c-.038-.008-.081-.007-.121-.012a1.639 1.639 0 0 0-.324-.018c-.054.002-.109.011-.165.018-.11.016-.225.041-.341.074-.053.016-.105.029-.158.049a3.25 3.25 0 0 0-.525.242l-1.531.885-70.143 102.992z" class="color67bbf9 svgShape"/><path fill="#0dbaac" d="M80.929 53.25c-2.964 0-6.079.933-9.262 2.769-10.437 6.034-18.93 20.743-18.93 32.792 0 9.255 5.12 15.473 12.741 15.475 2.967 0 6.085-.934 9.269-2.772C85.184 95.486 93.674 80.78 93.674 68.73c0-9.257-5.12-15.48-12.745-15.48zm6.588 15.48c0 .301-.027.611-.041.918l-5.888 3.399a59.25 59.25 0 0 0 .123-3.612c0-4.083-.487-7.516-1.337-10.003.188-.013.373-.024.555-.024 4.126 0 6.588 3.486 6.588 9.322zM72.566 94.834c-.916 1.176-1.805 1.801-2.571 1.801-1.712-.002-2.735-3.223-2.735-8.621 0-.775.029-1.572.07-2.377l10.849-6.264c-1.17 6.397-3.269 12.447-5.613 15.461zm-4.805-13.803c.999-7.429 3.383-14.943 6.085-18.423.915-1.177 1.804-1.799 2.57-1.799 1.713 0 2.736 3.225 2.736 8.626a50.8 50.8 0 0 1-.286 5.184l-11.105 6.412zm.364-14.093c-1.546 4.718-2.688 10.301-3.168 15.712l-5.866 3.387c.809-6.555 4.32-13.787 9.034-19.099zm-9.151 23.523 5.743-3.315c-.005.289-.017.583-.017.868 0 4.129.499 7.596 1.366 10.088a7.847 7.847 0 0 1-.588.026c-3.713-.002-6.074-2.837-6.504-7.667zm19.269.188c1.296-3.919 2.312-8.451 2.901-12.988l5.673-3.275c-1.341 5.751-4.521 11.718-8.574 16.263z" class="color0d6cba svgShape"/><path fill="#06cebe" d="M87.517 68.73c0 .301-.027.611-.041.918l-5.888 3.399a59.25 59.25 0 0 0 .123-3.612c0-2.359-.167-4.493-.469-6.361l-2.225 3.267c.087.932.135 1.962.135 3.095a50.8 50.8 0 0 1-.286 5.184l-9.042 5.221-5.111 7.505c-.005.224-.013.449-.013.669 0 4.129.499 7.596 1.366 10.088a7.847 7.847 0 0 1-.588.026c-2.554-.001-4.468-1.343-5.555-3.751L56.162 99.9c2.236 2.781 5.452 4.385 9.315 4.386 2.967 0 6.085-.934 9.269-2.772C85.184 95.486 93.674 80.78 93.674 68.73c0-6.555-2.575-11.574-6.78-13.955l-3.497 5.137c2.617 1.152 4.12 4.266 4.12 8.818zM72.566 94.834c-.916 1.176-1.805 1.801-2.571 1.801-1.712-.002-2.735-3.223-2.735-8.621 0-.775.029-1.572.07-2.377l10.849-6.264c-1.17 6.397-3.269 12.447-5.613 15.461zm5.677-4.185c1.296-3.919 2.312-8.451 2.901-12.988l5.673-3.275c-1.341 5.751-4.521 11.718-8.574 16.263z" class="color067dce svgShape"/></svg>