<svg xmlns="http://www.w3.org/2000/svg" viewBox="0 0 16.933 16.933"><path fill="#41e1d4" d="m7.408.793-.445 1.782a6.085 6.085 0 0 0-1.597.663l-1.577-.945-1.496 1.496.946 1.577a6.085 6.085 0 0 0-.66 1.596l-1.785.446v2.117l1.781.445a6.085 6.085 0 0 0 .664 1.597l-.946 1.577 1.496 1.496 1.577-.946a6.085 6.085 0 0 0 1.596.66l.446 1.785h2.117l.445-1.781a6.085 6.085 0 0 0 1.598-.664l1.576.946 1.496-1.496-.945-1.577a6.085 6.085 0 0 0 .66-1.596l1.785-.446V7.408l-1.782-.445a6.085 6.085 0 0 0-.663-1.598l.945-1.576-1.496-1.496-1.577.945a6.085 6.085 0 0 0-1.596-.66L9.525.793z" class="color33b9ef svgShape"/><path fill="#dbeeec" d="M8.467 4.233A4.233 4.233 0 0 1 12.7 8.466 4.233 4.233 0 0 1 8.467 12.7a4.233 4.233 0 0 1-4.234-4.234 4.233 4.233 0 0 1 4.234-4.233z" class="colordbe9ee svgShape"/><path fill="#42fff0" d="M10.319 7.937H8.73l.265-2.646-2.381 3.704h1.587l-.265 2.646z" class="colorffbc42 svgShape"/><path style="line-height:normal;font-variant-ligatures:normal;font-variant-position:normal;font-variant-caps:normal;font-variant-numeric:normal;font-variant-alternates:normal;font-feature-settings:normal;text-indent:0;text-align:start;text-decoration-line:none;text-decoration-style:solid;text-decoration-color:#000;text-transform:none;text-orientation:mixed;shape-padding:0;isolation:auto;mix-blend-mode:normal" d="M7.408 280.596c-.357-.005-.357.534 0 .529h1.91l.396 1.584a.266.266 0 0 0 .194.193c.519.133 1.023.32 1.473.604.102.064.221.091.322.026l1.4-.84 1.204 1.205-.84 1.4c-.064.1-.036.22.028.322.282.442.476.936.598 1.446.026.106.095.196.201.221l1.581.396v1.703l-1.584.396a.266.266 0 0 0-.193.194 5.446 5.446 0 0 1-.616 1.496c-.057.093-.072.206-.014.299l.84 1.4-1.205 1.204-1.4-.84c-.1-.065-.22-.037-.322.028a4.94 4.94 0 0 1-1.46.602.275.275 0 0 0-.207.197l-.396 1.58H7.615l-.396-1.583c-.025-.108-.116-.177-.224-.202a4.731 4.731 0 0 1-1.442-.594c-.102-.065-.221-.093-.323-.027l-1.4.839-1.204-1.204.84-1.4c.057-.093.042-.206-.016-.3a5.416 5.416 0 0 1-.619-1.498.265.265 0 0 0-.192-.192l-1.58-.395v-1.703l1.583-.396c.11-.026.178-.12.203-.23.12-.506.315-.997.594-1.438.065-.101.092-.22.027-.321l-.84-1.4 1.204-1.204 1.4.84c.1.064.22.036.322-.028a4.938 4.938 0 0 1 1.46-.602.275.275 0 0 0 .208-.197l.18-.723a.265.265 0 1 0-.513-.128l-.144.576a6.346 6.346 0 0 0-1.371.57l-1.447-.868a.25.25 0 0 0-.323.04l-1.496 1.496a.265.265 0 0 0-.04.323l.868 1.447a6.344 6.344 0 0 0-.567 1.37l-1.637.41a.265.265 0 0 0-.2.256v2.117c0 .121.082.227.2.257l1.634.408c.136.478.327.938.57 1.371l-.868 1.447a.265.265 0 0 0 .04.323l1.496 1.496a.265.265 0 0 0 .323.04l1.447-.868c.434.242.893.432 1.37.567l.41 1.637c.029.118.135.2.256.2h2.117a.265.265 0 0 0 .257-.2l.409-1.634a6.347 6.347 0 0 0 1.37-.57l1.447.868a.265.265 0 0 0 .323-.04l1.497-1.496a.265.265 0 0 0 .04-.323L14 291.628c.242-.433.431-.893.566-1.37l1.638-.41c.118-.029.2-.135.2-.256v-2.117a.265.265 0 0 0-.2-.257l-1.635-.409a6.346 6.346 0 0 0-.57-1.37l.868-1.447a.265.265 0 0 0-.04-.323l-1.496-1.497c-.112-.111-.215-.104-.323-.04l-1.447.868a6.342 6.342 0 0 0-1.37-.566l-.41-1.638a.265.265 0 0 0-.256-.2zm1.058 3.438a4.502 4.502 0 0 0-4.498 4.498 4.502 4.502 0 0 0 4.498 4.499 4.502 4.502 0 0 0 4.498-4.499 4.502 4.502 0 0 0-4.498-4.498zm0 .53a3.965 3.965 0 0 1 3.969 3.968 3.965 3.965 0 0 1-3.969 3.969 3.965 3.965 0 0 1-3.969-3.969 3.965 3.965 0 0 1 3.97-3.968zm.522.53a.265.265 0 0 0-.215.122l-2.381 3.703a.265.265 0 0 0 .223.409H7.91l-.235 2.355c-.023.273.334.396.485.168l2.38-3.703a.265.265 0 0 0-.22-.408H8.732c-.353 0-.353.529 0 .529h1.103l-1.525 2.37.156-1.55a.265.265 0 0 0-.263-.291H7.099l1.523-2.371-.048.496c-.037.353.493.406.527.053l.158-1.592a.265.265 0 0 0-.271-.29z" class="color000000 svgShape" color="#000" font-family="sans-serif" font-weight="400" overflow="visible" transform="translate(0 -280.067)"/></svg>