<svg xmlns="http://www.w3.org/2000/svg" enable-background="new 0 0 51 51" viewBox="0 0 51 51"><path fill="#BC874D" d="M27.52009,34.04504c0.93566,0.54021,0.94063,1.42791,0.01107,1.96812
												c-0.92456,0.53729-2.44702,0.53145-3.38268-0.00875c-0.93566-0.54021-0.94061-1.41621-0.01605-1.95351
												C25.06199,33.5107,26.58443,33.50484,27.52009,34.04504z" enable-background="new"/><path fill="#6DCB60" d="M44.79989,26.60602c0,4.78324-1.78989,9.16202-4.74281,12.49916
												c0,0.01012-0.01006,0.02024-0.02018,0.03037c-0.32361,0.36404-0.66747,0.72808-1.02139,1.05169
												c-0.09104,0.10116-0.18202,0.18202-0.27306,0.27306c-0.0303,0.02024-0.05055,0.04043-0.08086,0.06067
												c-3.37764,3.12482-7.90806,5.02593-12.87339,5.02593c-2.7506,0-5.35967-0.57636-7.72604-1.63824
												c-0.02018-0.01006-0.05055-0.02018-0.07073-0.0303c-0.84949-0.37416-1.64836-0.82924-2.42705-1.32475
												c-0.1011-0.06067-0.20226-0.12135-0.30337-0.18202c-0.03037-0.02024-0.0708-0.04049-0.10116-0.0708
												c-0.05055-0.03037-0.1011-0.06067-0.15165-0.09104c-0.02024-0.01012-0.03037-0.02018-0.04049-0.0303
												c-4.94502-3.40794-8.19118-9.12159-8.19118-15.57343c0-0.90004,0.0708-1.78995,0.19214-2.6495
												c0.02025-0.18202,0.05055-0.35392,0.08092-0.52588v-0.01006c0.02018-0.11129,0.04043-0.22251,0.06067-0.34385
												c0.84942-4.51024,3.29672-8.444,6.73497-11.20478c0.18202-0.16177,0.36404-0.30337,0.5663-0.44496
												c0.05055-0.04043,0.10116-0.08086,0.15171-0.12135c2.40681-1.75958,5.24844-2.96299,8.33278-3.43825
												C23.83648,7.7258,24.80731,7.655,25.7882,7.655c5.06643,0,9.65752,1.97197,13.06553,5.18777
												c0.42471,0.39441,0.8393,0.81912,1.21346,1.26408c0.0708,0.0708,0.12135,0.13147,0.17196,0.20226
												c0.2022,0.22245,0.38428,0.44496,0.55618,0.67753c0.09098,0.11122,0.1719,0.21239,0.25282,0.33373
												C43.4044,18.46538,44.79989,22.37895,44.79989,26.60602z"/><path fill="#84DBFF" d="M17.29623 35.50706c-.08643.6534-.20165 1.29953-.34571 1.93865-.13685.61738-.33854 1.22056-.47539 1.83084-.05042.21544.02163.45953-.02158.67496-.10085.63176-.2737 1.2565-.35291 1.88825-.04321.33752.05042.68934.07922 1.05552-.3097-.16521-.6194-.33752-.91473-.52421-.036-.02147-.07201-.04303-.10801-.07169-.05042-.02875-.10085-.0575-.15127-.09343-.01442-.00719-.02879-.01437-.036-.02866-4.94809-3.41049-8.1892-9.11863-8.1892-15.57343 0-.8975.0648-1.78781.18727-2.64937.18006.122.35291.24409.52577.36619.02879-.02875.05763-.0575.08643-.08616-.18006-.26566-.35291-.5385-.52577-.80415v-.00719c.01438-.1149.036-.22981.05759-.34463.10085.07897.20169.15794.29533.25128.28091.28722.54018.58153.80667.87594.05763.0646.15127.12928.16564.20106.2737 1.23494 1.46933 1.2565 2.29759 1.75196.05042.03585.16564-.05031.2449-.04312.20886.01437.42492.01437.61219.08616.36012.14365.72025.30878 1.05158.49546.25928.15075.48976.359.73462.54568.39617.30869.7923.61738 1.19563.92616.02158.02147.08643.02866.10085.00719.2737-.27284.48976-.38056.72741.07178.2449.4739.23769.89031-.12243 1.29243-.04321.05022-.07922.122-.13685.15794-.35291.22981-.56177.48819-.36733.94062.04321.10044-.09364.25838-.10801.39485-.01442.15084-.02163.32315.05042.44516.35291.61037.72025 1.22056 1.11637 1.80937.16564.25128.37454.52413.63382.6605C17.2386 34.37984 17.40428 34.60246 17.29623 35.50706zM16.05837 25.01007c-.77594-.23656-1.40052-.42698-1.9811-.60398C14.50024 24.12483 15.23871 24.29676 16.05837 25.01007zM17.69348 25.55204c-.43888-.04608-.79846-.08384-1.20849-.12689C16.89458 24.93163 17.38487 24.9621 17.69348 25.55204z"/><path fill="#81D672" d="M40.05708,39.10518c0,0.05929-0.98511,1.03043-1.04157,1.08206
												c-1.86074,0.58655-3.8529,0.90004-5.92597,0.90004c-19.03767,0-26.13579-23.60591-10.19352-33.21988
												C40.59051,5.2034,51.61607,26.04218,40.05708,39.10518z"/><path fill="#B5E5F4" d="M42.79766,21.00056c-1.07193,0.01006-1.15285-0.18208-1.61799-1.1731
												c-0.17196,0.09104-0.34385,0.1719-0.50563,0.27306c0.27299,0.5663,0.25282,0.6371-0.37416,0.809
												c-1.39114-1.91278-0.36033-0.88543-2.25515-2.29558c-0.06067,0.08092-0.11123,0.15171-0.1719,0.23263
												c0.43483,0.36404,0.85955,0.70783,1.3045,1.07193c-0.06067,0.13147-0.13147,0.30337-0.16178,0.41459
												c-0.53455-0.32079-1.36964-0.73625-1.52701-0.98089c-0.47526-0.74838-1.03151,0.273-1.51689-0.10116
												c-0.04043-0.02018-0.24269,0.11122-0.33373,0.20226c-1.36142,1.43508-1.01398,1.2077-1.63824,1.41579
												c-0.2022,0.07073-0.40446,0.1011-0.60673,0.15165c-0.74586-0.32628-1.13152-0.36191-0.90004-0.92022
												c0.11422-0.2856-0.25667-1.00285,0.4652-0.98096c0.35392,0,0.69777,0.06067,1.03144,0.03037
												c0.62163-0.14637,0.59296-0.45181,0.21239-0.92028c-0.09098-0.1011-0.28312-0.12135-0.53594-0.24269
												c0.58649-0.1719,1.06181-0.31349,1.63824-0.48539c-0.64722-0.22251-1.30457,0.12135-1.76971-0.44496
												c0.1719-0.18202,0.30337-0.32361,0.47527-0.55618c-0.24269-0.0708-0.42471-0.10116-0.62698-0.16184
												c-0.08923,0.5955,0.16209,0.36354-0.91016,0.87979c-0.19899-0.79596-0.24945-0.53952,0.56636-1.02132
												c0.05055-0.01012,0.08086-0.05061,0.12135-0.08092c-0.05061-0.16184-0.08092-0.28318-0.12135-0.41465
												c0.19208-0.1011,0.38422-0.24269,0.54606-0.24269c0.22245-0.01012,0.65728,0.08092,0.6674,0.1719
												c0.03037,0.65734,0.6371,0.86973,0.94046,1.31469c0.30291,0.43448,0.47532,0.18478,1.70903-0.41465
												c-0.13147-0.54606-0.04043-0.66741,0.55624-0.64722c-0.14992,0.84313,0.70958,0.59667,2.41686,0.59667
												c0.02025-0.60673,0.27306-0.86967,0.78881-0.77869c-0.27306-0.47526-0.58655-0.94046-0.91016-1.3753
												c-0.20226,0.10116-0.43483,0.16184-0.7382,0.29324c0.23257,0.19214,0.36404,0.28318,0.49551,0.39441
												c-0.62698,1.04163-0.78875,1.14273-1.63824,1.1023c-0.1011-0.26294-0.21239-0.52587-0.31349-0.75844
												c-0.1011,0.02018-0.14159,0.01012-0.1719,0.02018c-0.25282,0.27306-0.58655,0.39441-0.85961,0.16184
												c-0.2022-0.15171-0.35392-0.51575-0.31349-0.72814c0.05055-0.21233,0.35398-0.39435,0.58655-0.53594
												c0.86777-0.61708,1.17118-0.66048,1.90117-1.3045c-2.29712-3.82853-14.41454-8.81411-24.12866-1.65848
												c0.03031,0.01012,0.0708,0.02018,0.1011,0.05055c-0.09098,0.03037-0.1719,0.04043-0.27306,0.0708
												c-0.18202,0.14159-0.37416,0.28312-0.55618,0.43483c0.98041-0.4902,1.80359-0.02122,3.2158,0.42471
												c0.33156,0.11052,0.90681,0.03119,1.02138,0.62698c0.01155,0.05775,0.21453,0.10475,1.41579,0.536
												c-0.35398,0.76857-0.90004,0.09098-1.38542,0.22245c0.25281,0.25282,0.45502,0.4652,0.64716,0.66747
												c-0.04043,0.05055-0.07073,0.11122-0.11123,0.18202c-3.5743-0.48125-3.0772-0.47512-3.34727-0.6371
												c0.37676-0.33487-0.13937-0.07401,1.28432-0.57643c-0.02024-0.08092-0.05055-0.15165-0.0708-0.25282
												c-0.27306,0.10116-0.55618,0.1719-0.86967,0.26294c0.05055-0.21239,0.09098-0.35392,0.15165-0.5663h-1.42585
												c0.13147,0.23257,0.20226,0.36404,0.33373,0.59661c-0.4652,0.05061-0.85961,0.11129-1.33487,0.18208
												c0.51575,0.19214,0.96071,0.37416,1.40561,0.54606c-0.01006,0.04043-0.03031,0.1011-0.04043,0.14159
												c-0.40447-0.03037-0.809-0.06067-1.32475-0.09104c-0.01012-0.01012-0.11122-0.14159-0.20226-0.26294
												c-0.93252,0.53316-2.7389,1.08158-1.66854,1.57756c0.6371,0.27306,1.31463,0.54612,2.00228,0.66747
												c1.32638,0.20935,0.88,1.0174,1.50677,0.96071c0.26839-0.07675,0.03472-0.64861,0-0.79893
												c0.56012-0.2545,0.7801-0.21071,0.37416-0.77863c-0.23257-0.35398,0.03037-1.01126,0.45508-0.97083
												c0.60568,0.04041,1.15195,0.18458,1.60793,0.28312c0.14153,0.76857,0.36404,0.77869,1.11236,0.20226
												c0.6371,0.50563,2.17423,1.7394,2.32589,1.86075c-0.08092,0.1719-0.16178,0.37416-0.25282,0.52581
												c0.32361,0.22251,0.60679,0.41465,0.91016,0.61691c-0.03037,0.04043-0.05055,0.09098-0.10116,0.12135h-1.4461
												c0.04049-0.0708,0.38428-0.68765,0.5663-1.01126c-0.25729,0.11694-0.9757,0.46434-1.49664,0.68765
												c-0.47526-0.50563-0.77869-0.48539-1.3753,0.19214c1.69719-0.50305,0.34449,0.45508,1.8405,0.45508
												c0.11122,0,0.22245,0.15165,0.36404,0.28312c-1.51689,0.55618-1.51689,0.55618-1.78995,0.15171
												c-0.46514,0.12135-1.08206,0.06067-0.88991,0.93034c-0.92022-0.33373-0.92022,0.64722-1.3753,0.91016
												c-0.44626,1.33845-1.69037,1.0325-1.29438,1.88093c0.13141,0.32361,0.16177,0.67753,0.25282,1.02138
												c-0.0708,0.02018-0.16184,0.06067-0.23263,0.09098c-0.1719-0.24269-0.34379-0.50563-0.52581-0.75845
												c-0.92254-1.08985-1.82097-0.03298-2.82146-0.28312c-0.05055-0.01012-0.09098,0.06067-0.13147,0.08092
												c-0.69777,0.273-0.61685,0.92022-0.67753,1.46628c-0.06067,0.54612,0.28312,0.86973,0.69777,1.12255
												c0.27306,0.16178,0.88991-0.05061,0.97083-0.34385c0.14153-0.52588,0.58649-0.38428,0.8393-0.29324
												c0.38428,0.1011,0.0708,0.37416,0,0.59661c-0.0708,0.22251-0.04043,0.47532-0.06067,0.71802
												c0.20226,0.01012,0.40453,0.03031,0.60679,0.02024c0.87867-0.11886,0.40782,0.85317,0.50563,1.16291
												c0.37151,1.11452,0.80528,0.06168,1.61799,0.57643c0.05055,0.03037,0.21239-0.16177,0.32361-0.23257
												c0.29324-0.22251,0.58655-0.42477,0.98089-0.70789v0.67753c0.22251-0.15165,0.536-0.42471,0.59667-0.37416
												c0.65734,0.54606,1.43597-0.03031,2.09332,0.29324c0,0.11128-0.02024,0.26294-0.02024,0.3641
												c0.26294,0.14153,0.50563,0.22245,0.65734,0.39434c0.68726,0.68743,0.73103-0.02351,1.50677,0.68771
												c0.76592,0.61274,0.60174,1.21862,1.08206,1.29438c5.59211,1.34205,2.43816,2.02438,2.27534,3.65063
												c-0.19542,1.95441-1.02617,1.79938-1.40567,1.98209c-1.90671,0.80655-0.22255,0.93092-1.67867,1.90117
												c-0.06067,0.05055-0.12135,0.1011-0.15171,0.1719c-0.25282,0.5663-0.6371,0.91016-1.29444,0.82924
												c0.1915,1.55566-1.38791,0.4786-1.46628,1.44609h-0.59667c0.12135,0.20226,0.20226,0.34385,0.28318,0.48538
												c-0.25282,0.28318-0.51575,0.57643-0.78881,0.85961c0.1719,0.11122,0.30337,0.20226,0.49551,0.33373
												c-0.71585,0.60562-1.15287,0.8364-0.8393,1.22358c2.06295,0.77869,4.27761,1.19328,6.61362,1.19328
												c3.954,0,7.62488-1.21346,10.65866-3.27647c0.77869-0.52581,1.51689-1.11236,2.21466-1.74946
												c0.02024-0.03037,0.05055-0.05055,0.07079-0.0708c0.0708-0.06067,0.14159-0.12135,0.20227-0.19214
												c0.38428-0.35392,0.74832-0.7382,1.09218-1.14273c0.02018,0,0.02018-0.01012,0.02018-0.02024
												c0.15171-0.18202,0.31349-0.35392,0.45508-0.54606c-0.04043-0.06067-0.06067-0.12135-0.1011-0.18202
												c-0.09104-0.1719-0.30337-0.34386-0.2933-0.49551c0.06067-0.77869-0.40447-1.3753-0.69777-2.02252
												c-0.24269-0.51575-0.26287-1.0315,0.22251-1.48658c0.0708-0.08086,0.18202-0.24269,0.14159-0.30336
												c-0.30343-0.61686-0.17196-1.43597-0.77869-1.9113c-0.5663-0.44496-0.39441-0.95059-0.22251-1.49664
												c0.15508-0.56797-0.38334-0.54105-0.48539-0.48539c-0.34379,0.1719-0.50563,0.04043-0.71795-0.23263
												c-0.12141-0.1719-0.49557-0.34379-0.64722-0.273c-1.26723,0.59398-2.06692,0.22659-2.25515,0.41459
												c-0.30337,0.34385-0.54606,0.13147-0.75845-0.09098c-0.42471-0.44496-0.77863-0.99108-1.29438-1.29444
												c-0.4652-0.27306-0.69777-0.74832-0.55618-1.02138c0.34379-0.64722,0.13147-1.3045,0.24269-1.93148
												c0.26677-1.57439,1.36026-1.22598,1.5472-2.12368c0.14159-0.61685,0.61691-0.94046,1.12254-1.04157
												c4.62183-1.07986,4.01468-0.44632,4.01468,0.34379c0.48539,0.21239,1.06181,0.49557,1.67873,0.69777
												c0.29676,0.10474,1.03302-0.44986,1.28426-0.42471c0.72814,0.06067,1.46634,0.20226,2.20454,0.30337
												c0.14159,0.03037,0.27306,0.02025,0.38428-0.01012C42.96955,21.78931,42.8887,21.38478,42.79766,21.00056z
												 M14.58353,24.56015c-0.03234-0.00808-0.486-0.14186-0.50563-0.15165c0.02018-0.01012,0.0303-0.02024,0.05055-0.02024
												c0.42471-0.25282,1.13261-0.06067,1.92136,0.62698C15.02577,24.67389,14.5984,24.57507,14.58353,24.56015z
												 M16.47458,25.42982c0.26509-0.32086,0.57811-0.38704,0.7382-0.33367c0.01012,0,0.03031,0.01012,0.04043,0.01012
												c0.01464,0.02918,0.0998,0.05274,0.13147,0.06067c0.00982,0.0098,0.14251,0.13329,0.15171,0.15165v0.02024
												c0.02018,0.01012,0.03031,0.03031,0.05055,0.04043c0.02025,0.03037,0.03037,0.04049,0.04043,0.06067
												c0.03037,0.03037,0.04049,0.06067,0.06067,0.11129C16.74137,25.45645,17.03784,25.50031,16.47458,25.42982z
												 M29.26699,14.02284c0,0-0.02018-0.01012-0.02018-0.02024c-0.08183-0.08159-0.08671-0.21368-0.16183-0.36404
												c0.33854-0.12305-0.04052-0.16819,1.69891-0.09104c0.18202,0.03037,0.36404,0.10116,0.64722,0.17196
												C30.67266,14.34645,29.98501,14.35657,29.26699,14.02284z M31.19853,9.48229
												c-0.95263,0.70673-1.4598,0.83908-1.07193,1.3045c0.23257,0.28318-0.18208,0.94046-0.55624,0.97083
												c-0.14153,0.02018-0.273,0.05055-0.46514,0.09098c0.0708,0.22251,0.12135,0.40453,0.19214,0.64722
												c-0.69777,0.35392-1.47646,0.55618-2.26521,0.66747c-0.26456,0.03303-0.89714,0.37947-1.28432,0.43483
												c-1.40645,0.15283-0.5846,0.17688-1.65848,1.3045c-0.0708,0.08092-0.23257,0.18202-0.30337,0.14159
												c-1.09969-0.34367-1.62286-0.15942-2.53827-2.26521c-0.05055-0.10116,0.24269-0.3641,0.44496-0.6371
												c-0.21239,0.05055-0.44496,0.11122-0.65734,0.18202c-0.47347-1.45199-1.62224-1.19117-2.09325-1.28432
												c-1.67331,0.09304-0.65267,0.37753-2.04277-0.35392c0.45508-0.20226,1.2034-0.28318,1.41573-0.66747
												c0.31355-0.55618,0.87985-0.46514,1.25401-0.81912c0.37925-0.35394,1.41501-0.18202,1.62811-0.18202
												C21.96572,9.098,21.9859,9.11825,22.29939,8.3598c0.14159,0.08086,0.26294,0.18202,0.43489,0.29324
												c0.43455-0.77258,0.77216-0.58412,5.90573-0.6371c0.55618,0,0.66747,0.43483,0.76857,0.82924
												c0.18202,0.65728,0.43483,0.75845,0.99101,0.33373c0.38428-0.2933,0.76857-0.34386,1.2742-0.06067
												C31.49177,9.2699,31.34006,9.39125,31.19853,9.48229z"/><path fill="#82C6E0" d="M37.43799,38.98074c-0.14333,0.16724-1.24151,1.17089-2.48772,2.0124
										c-10.41879,1.04188-20.0824-6.43951-20.8117-16.56445c-0.55821-0.55821-0.25-11.0318,8.72712-16.54421
										c0.96071-0.15171,1.93154-0.22245,2.92256-0.22245c0.11123,0,0.22251,0,0.33373,0.01006
										c-0.15171,0.11129-0.28318,0.23263-0.42471,0.37416c-3.86555,3.5183-5.83499,8.22462-5.83499,12.98461
										C19.86228,30.54879,27.6145,38.27604,37.43799,38.98074z" opacity=".3"/><path fill="#ECF0F1" d="M36.59168,23.50126c-1.797,1.62002-4.77837,1.27968-6.65704-0.78961
										c-1.86505-2.05558-1.9331-5.0642-0.1361-6.69784c1.797-1.63364,4.77837-1.27968,6.65704,0.77598
										C38.33426,18.85908,38.38868,21.85408,36.59168,23.50126z" opacity=".4"/><g opacity=".3"><path fill="#3FB4E0" d="M39.01555,40.18414C28.80532,51.52269,6.77657,44.21721,6.77657,26.60292
							c0-9.79023,7.30767-17.3807,16.11949-18.73869C4.27487,19.09395,17.69058,46.90624,39.01555,40.18414z"/></g><path fill="none" d="M40.65778,7.71226c-1.5377-0.95467-3.38884-1.42916-5.43799-1.42916
			c-2.52348,0-5.34734,0.71935-8.25683,2.14683C16.66934,13.48007,8.32219,25.74457,8.3553,35.76958
			c0.01438,4.27175,1.59056,7.59803,4.4385,9.36654c3.42831,2.12877,8.4194,1.86635,13.69249-0.72068
			c8.47201-4.1566,15.62139-13.19592,17.87179-21.85202c-0.01652-0.07784-0.0285-0.15492-0.04587-0.23288
			c0.01737,0.07796,0.02935,0.15504,0.04587,0.23288c0.48448-1.86359,0.74642-3.70979,0.74054-5.48528
			C45.08424,12.80772,43.50706,9.48144,40.65778,7.71226z"/><g><path fill="none" d="M44.35808,22.56342c0.48448-1.86359,0.74642-3.70979,0.74054-5.48528
				c-0.01438-4.27041-1.59156-7.5967-4.44084-9.36588c-1.5377-0.95467-3.38884-1.42916-5.43799-1.42916
				c-2.52348,0-5.34734,0.71935-8.25683,2.14683C16.66934,13.48007,8.32219,25.74457,8.3553,35.76958
				c0.01438,4.27175,1.59056,7.59803,4.4385,9.36654c2.88606,1.79207,6.88103,1.88272,11.21803,0.32533
				c-0.25792-0.02409-0.51609-0.05156-0.77481-0.08609c0.25872,0.03454,0.51689,0.06201,0.77481,0.08609
				c0.81485-0.29261,1.64044-0.63683,2.47445-1.04601C34.95829,40.25884,42.10768,31.21952,44.35808,22.56342z"/><path fill="#F25A5A" d="M41.37696,6.55371c-3.83941-2.38383-9.31185-2.14599-15.01477,0.65194
				C15.64643,12.46285,6.95675,25.27877,6.99187,35.77426c0.01572,4.75879,1.82069,8.495,5.08242,10.52041
				c1.75312,1.08847,3.84744,1.62986,6.14948,1.62986c2.73589,0,5.76547-0.76484,8.86329-2.28481
				c0.107-0.0525,0.21297-0.10863,0.31955-0.16263c-1.12407,0.09506-2.25561,0.09077-3.39477-0.01564
				c-4.337,1.5574-8.33197,1.46675-11.21803-0.32533c-2.84795-1.76851-4.42412-5.09479-4.4385-9.36654
				C8.32219,25.74457,16.66934,13.48007,26.96295,8.42993c4.28596-2.10282,9.67882-3.21097,13.69483-0.71767
				c2.84929,1.76918,4.42646,5.09546,4.44084,9.36588c0.00587,1.77549-0.25606,3.62169-0.74054,5.48528
				c0.22456,1.05843,0.37161,2.10424,0.42149,3.13422c1.08633-2.91541,1.69176-5.85079,1.68248-8.62418
				C46.44633,12.316,44.64035,8.57996,41.37696,6.55371z"/></g><g><path fill="#FFD651" d="M27.09174,7.20566c-5.70392-2.79844-11.17603-3.0356-15.01544-0.65178
				C8.81323,8.58012,7.0076,12.316,6.99187,17.07345c-0.00491,1.46568,0.16614,2.97733,0.48352,4.5067
				c0.28261-0.966,0.60148-1.87122,0.96263-2.70578c-0.05511-0.60509-0.08467-1.20481-0.08273-1.79623
				c0.01438-4.27041,1.59122-7.59653,4.44051-9.36571c1.5377-0.955,3.38883-1.42933,5.43832-1.42933
				c2.52315,0,5.34768,0.71951,8.25684,2.14683c10.29362,5.05014,18.64077,17.31464,18.60765,27.33965
				c-0.01438,4.27175-1.59089,7.5982-4.43884,9.36654c-2.99632,1.86071-7.18723,1.89426-11.71631,0.14555
				c-0.91137,0.14802-1.83884,0.23298-2.78297,0.25238c0.06897,0.03456,0.13721,0.07173,0.20637,0.10566
				c3.09815,1.51997,6.12706,2.28481,8.86329,2.28481c2.3017-0.00017,4.39635-0.54139,6.14914-1.62986
				c3.26173-2.02524,5.06703-5.76162,5.08275-10.52041C46.49717,25.27877,37.80749,12.46285,27.09174,7.20566z"/></g><path fill="none" d="M25.71827,14.62691c-5.78286,0-11.5587,1.20788-15.94703,3.62349
			c-4.09865,2.25604-6.35352,5.20986-6.34917,8.31771c0.00435,3.13043,2.29501,6.10566,6.44986,8.37793
			c8.83285,4.8302,23.15788,4.8292,31.93319-0.00134c4.09865-2.25605,6.35352-5.20986,6.34917-8.31738
			c-0.00376-2.70555-1.71838-5.29428-4.86488-7.41423c0.04073,0.09542,0.08446,0.18943,0.12362,0.28556
			c-0.03916-0.09613-0.08289-0.19014-0.12362-0.28556c-0.49433-0.33306-1.02086-0.65554-1.58498-0.96403
			C37.28902,15.83446,31.50013,14.62691,25.71827,14.62691z"/><g><path fill="none" d="M25.71827,14.62691c-5.78286,0-11.5587,1.20788-15.94703,3.62349
				c-0.50644,0.27876-0.98421,0.56834-1.43357,0.86738c-0.0692,0.1669-0.14018,0.33304-0.20405,0.50228
				c0.06387-0.16924,0.13485-0.33538,0.20405-0.50228c-3.18732,2.12114-4.91941,4.72649-4.9156,7.45033
				c0.00435,3.13043,2.29501,6.10566,6.44986,8.37793c8.83285,4.8302,23.15788,4.8292,31.93319-0.00134
				c4.09865-2.25605,6.35352-5.20986,6.34917-8.31738c-0.00376-2.70555-1.71838-5.29428-4.86488-7.41423
				c-0.49433-0.33306-1.02086-0.65554-1.58498-0.96403C37.28902,15.83446,31.50013,14.62691,25.71827,14.62691z"/><path fill="#0074D1" d="M42.35002,17.0686c-0.06792-0.03715-0.13911-0.07137-0.20764-0.10796
				c0.43396,0.72708,0.81646,1.47785,1.14703,2.25245c3.14651,2.11995,4.86112,4.70867,4.86488,7.41423
				c0.00435,3.10752-2.25053,6.06133-6.34917,8.31738c-8.77531,4.83054-23.10034,4.83154-31.93319,0.00134
				c-4.15484-2.27227-6.44551-5.24749-6.44986-8.37793c-0.0038-2.72385,1.72829-5.3292,4.9156-7.45033
				c0.31799-0.76686,0.69309-1.50881,1.12675-2.22521c-0.1136,0.06009-0.23022,0.11745-0.34211,0.17904
				c-4.54855,2.50374-7.05062,5.87686-7.04561,9.49834c0.00468,3.64406,2.54388,7.03791,7.14964,9.55654
				c4.59404,2.51228,10.61541,3.76833,16.63142,3.76799c6.01735-0.00017,12.02968-1.25723,16.59629-3.771
				c4.54855-2.50374,7.05062-5.87686,7.04594-9.498C49.49498,22.98125,46.95578,19.58706,42.35002,17.0686z"/></g><g><path fill="#2C9A2C" d="M40.811,5.7124c0,1.45614-1.17815,2.63958-2.63693,2.63958c-0.83928,0-1.58588-0.39183-2.07037-1.00341
				c-0.35478-0.45008-0.56923-1.01931-0.56923-1.63617c0-1.45614,1.18345-2.63694,2.63959-2.63694
				c0.39183,0,0.76513,0.08472,1.09872,0.23828C40.18089,3.73204,40.811,4.64809,40.811,5.7124z"/><path fill="#3DB542" d="M39.83936,4.94461c0,1.45879-1.18081,2.64223-2.63958,2.64223
				c-0.39185,0-0.76249-0.08472-1.09608-0.23827c-0.2171-0.27535-0.3839-0.59834-0.47655-0.94782
				c-0.06091-0.21975-0.09267-0.45008-0.09267-0.68835c0-1.45614,1.18345-2.63694,2.63959-2.63694
				c0.08472,0,0.16943,0.00265,0.2515,0.01323c0.29917,0.02648,0.58511,0.10591,0.84721,0.22505
				C39.62756,3.76116,39.83936,4.32774,39.83936,4.94461z"/><path fill="#6DCB60" d="M38.51559,3.77176c0,1.45879-1.1808,2.64223-2.63958,2.64223c-0.08472,0-0.1668-0.00265-0.24887-0.01323
				c-0.06091-0.21975-0.09267-0.45008-0.09267-0.68835c0-1.45614,1.18345-2.63694,2.63959-2.63694
				c0.08472,0,0.16943,0.00265,0.2515,0.01323C38.48383,3.30579,38.51559,3.53613,38.51559,3.77176z"/></g><g><path fill="#DDB040" d="M6.77652,22.37049c0,1.45614-1.17815,2.63958-2.63693,2.63958
				c-0.83928,0-1.58588-0.39183-2.07037-1.00341C1.71445,23.55658,1.5,22.98736,1.5,22.37049
				c0-1.45614,1.18345-2.63694,2.63959-2.63694c0.39183,0,0.76512,0.08472,1.09871,0.23828
				C6.14641,20.39013,6.77652,21.30618,6.77652,22.37049z"/><path fill="#EFC348" d="M5.80488,21.60271c0,1.45879-1.1808,2.64223-2.63958,2.64223c-0.39184,0-0.76249-0.08472-1.09608-0.23827
				c-0.2171-0.27535-0.38389-0.59834-0.47655-0.94782C1.53177,22.8391,1.5,22.60876,1.5,22.37049
				c0-1.45614,1.18345-2.63694,2.63959-2.63694c0.08472,0,0.16943,0.00265,0.2515,0.01324
				c0.29917,0.02648,0.58511,0.10591,0.84721,0.22505C5.59308,20.41925,5.80488,20.98583,5.80488,21.60271z"/><path fill="#FFD651" d="M4.48112,20.42985c0,1.45879-1.1808,2.64223-2.63958,2.64223c-0.08472,0-0.1668-0.00265-0.24887-0.01323
				C1.53177,22.8391,1.5,22.60876,1.5,22.37049c0-1.45614,1.18345-2.63694,2.63959-2.63694
				c0.08472,0,0.16943,0.00265,0.2515,0.01324C4.44935,19.96388,4.48112,20.19422,4.48112,20.42985z"/></g><g><path fill="#CC4848" d="M30.73789,38.78272c0,1.45614-1.17815,2.63958-2.63693,2.63958
				c-0.83928,0-1.58588-0.39183-2.07037-1.00341c-0.35478-0.45008-0.56923-1.01931-0.56923-1.63617
				c0-1.45614,1.18345-2.63694,2.63959-2.63694c0.39183,0,0.76512,0.08472,1.09871,0.23829
				C30.10778,36.80236,30.73789,37.71841,30.73789,38.78272z"/><path fill="#DD4A4A" d="M29.76625,38.01493c0,1.45879-1.1808,2.64223-2.63958,2.64223
				c-0.39184,0-0.76249-0.08472-1.09608-0.23827c-0.2171-0.27535-0.3839-0.59834-0.47655-0.94782
				c-0.0609-0.21975-0.09267-0.45008-0.09267-0.68835c0-1.45614,1.18345-2.63694,2.63959-2.63694
				c0.08472,0,0.16943,0.00265,0.2515,0.01323c0.29917,0.02649,0.58511,0.10591,0.84721,0.22505
				C29.55445,36.83148,29.76625,37.39805,29.76625,38.01493z"/><path fill="#F25A5A" d="M28.44249,36.84208c0,1.45879-1.1808,2.64223-2.63958,2.64223c-0.08472,0-0.1668-0.00265-0.24887-0.01323
				c-0.0609-0.21975-0.09267-0.45008-0.09267-0.68835c0-1.45614,1.18345-2.63694,2.63959-2.63694
				c0.08472,0,0.16943,0.00265,0.2515,0.01323C28.41072,36.37611,28.44249,36.60645,28.44249,36.84208z"/></g><path fill="#FFF" d="M20.38905 33.64279c-1.49048 0-2.70099 1.21045-2.70099 2.70102 0-1.49225-1.20877-2.70102-2.70102-2.70102 1.49049 0 2.70102-1.21044 2.70102-2.70099C17.68806 32.43234 18.89848 33.64279 20.38905 33.64279zM29.08789 14.24115c-1.70841 0-3.0959 1.38742-3.0959 3.09594 0-1.71043-1.3855-3.09594-3.09594-3.09594 1.70842 0 3.09594-1.38741 3.09594-3.0959C25.992 12.85371 27.37939 14.24115 29.08789 14.24115z"/></svg>