<svg xmlns="http://www.w3.org/2000/svg" viewBox="0 0 60 60" id="Handshake"><path fill="#41e1d4" d="M56,34a4.38,4.38,0,0,0,3,1V10L46,17" class="color005793 svgShape"></path><path d="M29.7,23.47A6.781,6.781,0,0,1,29,24" fill="#000000" class="color000000 svgShape"></path><path fill="#3fa39b" d="M56,34,44.71,40.52C41.51,35.41,29,24,29,24a6.087,6.087,0,0,1-3,1c-2.7,6.07-5.39,5.77-6.87,4.93a1.944,1.944,0,0,1-.91-2.15C18.76,25.44,20.2,20.8,21,20c1-1,5-2,7-4s5-1,5-1,8,4,13,2Z" class="colora3693f svgShape"></path><path fill="#2f938b" d="M29.271,26a1,1,0,0,1-.462-1.887,6.274,6.274,0,0,0,1.877-1.925,1,1,0,1,1,1.671,1.1,7.891,7.891,0,0,1-2.625,2.6A.99.99,0,0,1,29.271,26Z" class="color93592f svgShape"></path><path fill="#59efe3" d="M44.52,43.14l-.02.02a2.982,2.982,0,0,1-4.21,0l-.43-.43a1.98,1.98,0,0,1-.04,2.78,2.958,2.958,0,0,1-4.22.01l-.48-.47a2,2,0,0,1,0,2.83l-.01.01a2.976,2.976,0,0,1-4.22,0l-.3-.3-4.78-4.44a2.5,2.5,0,0,0-3.53,0l-1.91,1.91a.01.01,0,0,1-.01-.01l2.39-2.39a2.511,2.511,0,0,0,0-3.54,2.517,2.517,0,0,0-3.54,0l-1.09,1.09a2.419,2.419,0,0,0,.56-1.57,2.5,2.5,0,0,0-4.26-1.77l-1.71,1.71-.01-.01A2.493,2.493,0,0,0,9.12,35.1l-.46.45A24.845,24.845,0,0,0,4,33l8-16c4.9.66,11-2,11-2s3-1,5,1c-2,2-6,3-7,4-.8.8-2.24,5.44-2.78,7.78a1.944,1.944,0,0,0,.91,2.15c1.48.84,4.17,1.14,6.87-4.93a6.087,6.087,0,0,0,3-1S41.51,35.41,44.71,40.52a.555.555,0,0,0,.06.08.169.169,0,0,1,.02.05A2,2,0,0,1,44.52,43.14Z" class="coloref9f59 svgShape"></path><path fill="#59efe3" d="M30.59,50.18a3.163,3.163,0,0,1-4.25,0l-.95-.87c-.3-.25-.72-.59-1.22-.98l1.64-1.64a2.511,2.511,0,0,0,0-3.54l4.78,4.44A1.726,1.726,0,0,1,30.59,50.18Z" class="coloref9f59 svgShape"></path><path fill="#00ebd8" d="M4,33a4.38,4.38,0,0,1-3,1V11l11,6" class="coloreb0017 svgShape"></path><path fill="#41e3d6" d="M44.52,43.14l-.02.02a2.993,2.993,0,0,1-4.21,0l-.4-.4a1.906,1.906,0,0,1,.44,1.85v.01a1.826,1.826,0,0,1-.51.89,2.906,2.906,0,0,1-1.95.88.915.915,0,0,1-.16.01,2.977,2.977,0,0,1-2.11-.88l-.48-.47a1.98,1.98,0,0,1,.51,1.92,1.932,1.932,0,0,1-.51.91l-.01.01a2.985,2.985,0,0,1-4.22,0l-.25-.25a1.733,1.733,0,0,1,.53,1.13,2.138,2.138,0,0,1-.16.74,1.832,1.832,0,0,1-.42.63l-.02.02a2.932,2.932,0,0,1-.43.36c-.09.06-.19.11-.28.16a2.8,2.8,0,0,1-1.22.34,2.045,2.045,0,0,1-.35,0,3.014,3.014,0,0,1-1.38-.43,1.4,1.4,0,0,1-.16-.1,3.092,3.092,0,0,1-.39-.33l-.43-.43a1.934,1.934,0,0,1,.22.28l-.76-.7c-.3-.25-.72-.59-1.22-.98l.72-.72.17-.17,1.85,1.85a1.962,1.962,0,0,0,2.78-.01l.03-.01c.19-.19.48-.51-.12-1.18l-3.74-3.76a1,1,0,1,1,1.41-1.41L31.3,46.949c.374.374,1.657,1.019,2.139.8,1.375-.628,1.457-1.416.531-2.342L29.89,41.23a1,1,0,1,1,1.41-1.41l4.95,4.95a2.129,2.129,0,0,0,2.24.56A1.589,1.589,0,0,0,39,45a1.069,1.069,0,0,0,.18-1.53l-5.97-5.99a1,1,0,0,1,1.41-1.41l6.22,6.22a1.962,1.962,0,0,0,2.78-.01l.03-.01a2.015,2.015,0,0,0,.27-2.5.471.471,0,0,0-.02-.05.555.555,0,0,1-.06-.08,58.924,58.924,0,0,0-6.85-7.96,64.326,64.326,0,0,1,7.72,8.84.555.555,0,0,0,.06.08.169.169,0,0,1,.02.05A2,2,0,0,1,44.52,43.14Z" class="colore38941 svgShape"></path><path fill="#3fa39b" d="M23.48,40.89a2.49,2.49,0,0,1-.73,1.77L18.3,47.11a1.986,1.986,0,0,1-2.83,0l-.71-.7a2,2,0,0,1,0-2.83l.21-.21c.02-.01.03-.03.05-.05h.01l.05-.05.45-.45.19-.19.02-.02.05-.05.19-.19.08-.08,1.89-1.89a1.217,1.217,0,0,0,.15-.17s.02-.01.02-.02l1.09-1.09a2.517,2.517,0,0,1,3.54,0A2.49,2.49,0,0,1,23.48,40.89Z" class="colora3693f svgShape"></path><path fill="#3fa39b" d="M18.68 38.64a2.419 2.419 0 0 1-.56 1.57c0 .01-.02.02-.02.02l-1.55 1.55v.01l-.49.5-.08.08-.19.19-.05.05-.02.02-.19.19-.45.45-.05.05h-.01c-.02.02-.03.04-.05.05a2 2 0 0 1-2.77-.05l-.7-.7a2 2 0 0 1 0-2.83l1.21-1.21 1.71-1.71a2.5 2.5 0 0 1 4.26 1.77zM26.54 44.92a2.49 2.49 0 0 1-.73 1.77l-2.92 2.92a2 2 0 0 1-2.83 0l-.7-.71a2 2 0 0 1 0-2.83l2.92-2.92a2.5 2.5 0 0 1 4.26 1.77z" class="colora3693f svgShape"></path><path fill="#3fa39b" d="M13.38,36.86a2.462,2.462,0,0,1-.68,1.71.265.265,0,0,1-.05.06l-.32.33-.83.83-.21.2a2,2,0,0,1-2.83,0l-.7-.71a2,2,0,0,1,0-2.83l.9-.9.46-.45a2.487,2.487,0,0,1,3.53,0A2.451,2.451,0,0,1,13.38,36.86Z" class="colora3693f svgShape"></path><path fill="#ffffff" d="M50.165 32.969a1 1 0 0 1-.863-.493l-.591-1a1 1 0 0 1 1.725-1.014l.59 1a1 1 0 0 1-.861 1.507zM47.04 27.656a1 1 0 0 1-.863-.493L43.758 23.05a.925.925 0 0 0-.9-.491h-.135c-.582 0-1.188-.03-1.8-.088a1 1 0 0 1-.9-1.09.987.987 0 0 1 1.09-.9c.549.052 1.09.079 1.61.079h.127a3.036 3.036 0 0 1 2.627 1.477L47.9 26.149a1 1 0 0 1-.861 1.507zM36.946 21.716a1 1 0 0 1-.259-.034c-.211-.057-.42-.116-.625-.175a1 1 0 0 1 .561-1.92q.285.084.581.163a1 1 0 0 1-.258 1.966zM11.972 27a1 1 0 0 1-.894-1.447l2.2-4.394a2.017 2.017 0 0 1 1.662-1.1q.528-.036 1.046-.1a1 1 0 1 1 .231 1.986c-.377.044-.759.08-1.143.106l-2.2 4.39A1 1 0 0 1 11.972 27zM9.739 31.465a.98.98 0 0 1-.445-.106 1 1 0 0 1-.448-1.34l.259-.521a1 1 0 0 1 1.79.893l-.26.52A1 1 0 0 1 9.739 31.465z" class="colorffffff svgShape"></path><path d="M1,35a5.753,5.753,0,0,0,3.142-.857A24.424,24.424,0,0,1,7.076,35.72l-.028.028a3.014,3.014,0,0,0,0,4.234l.705.716a3,3,0,0,0,2.128.878c.023,0,.046-.006.069-.006a2.976,2.976,0,0,0,.843,1.757l.7.7a2.982,2.982,0,0,0,1.7.843,2.994,2.994,0,0,0,.87,2.252l.7.691a2.964,2.964,0,0,0,2.114.89h.009A2.983,2.983,0,0,0,17.96,48.5a2.97,2.97,0,0,0,.687,1.107l.71.719a3.017,3.017,0,0,0,4.24-.005l.65-.65c.185.148.344.278.467.38l.951.87a4.161,4.161,0,0,0,5.6,0,2.747,2.747,0,0,0,.794-1.284,3.893,3.893,0,0,0,3.77-1.048,2.977,2.977,0,0,0,.776-1.344,4.053,4.053,0,0,0,3.919-1.021,2.96,2.96,0,0,0,.782-1.344,4.008,4.008,0,0,0,3.921-1.028l.011-.013a3.006,3.006,0,0,0,.751-2.9l9.949-5.745A5.8,5.8,0,0,0,59,36a1,1,0,0,0,1-1V10a1,1,0,0,0-1.474-.881L45.6,16.082c-4.526,1.781-12.074-1.939-12.149-1.977a.971.971,0,0,0-.131-.053A6.479,6.479,0,0,0,28,14.711a6.5,6.5,0,0,0-5.4-.628c-.059.026-5.759,2.478-10.3,1.941l-10.82-5.9A1,1,0,0,0,0,11V34A1,1,0,0,0,1,35Zm8.172,4.288-.7-.715a1,1,0,0,1,0-1.416L9.831,35.8a1.489,1.489,0,0,1,2.119.01,1.45,1.45,0,0,1,.43,1.047,1.466,1.466,0,0,1-.4,1.019c-.023.024-.045.05-.066.076l-1.329,1.327A1,1,0,0,1,9.172,39.288Zm3.035,2.625a1,1,0,0,1,0-1.416l1.21-1.21,1.714-1.714a1.517,1.517,0,0,1,2.112,0,1.493,1.493,0,0,1,.437,1.063,1.634,1.634,0,0,1-.013.2c0,.015-.007.032-.01.047a1.442,1.442,0,0,1-.038.182c-.006.023-.019.047-.027.07a1.113,1.113,0,0,1-.069.171c-.015.03-.038.059-.056.088a1.262,1.262,0,0,1-.1.152l-1.522,1.522a.869.869,0,0,0-.081.093l-.677.685-.074.074-.606.606c-.032.026-.063.053-.093.082l-.022.024,0,0a1,1,0,0,1-1.379-.027Zm4.674,4.79a.9.9,0,0,1-.709-.3l-.7-.7a1,1,0,0,1,0-1.416l.137-.137a.71.71,0,0,0,.108-.1c.026-.022.052-.045.074-.067l.623-.624.086-.085,2.177-2.176c.06-.062.125-.131.182-.2l1.059-1.06a1.523,1.523,0,0,1,2.13,0,1.511,1.511,0,0,1,0,2.126l-2.39,2.39-2.06,2.06A1,1,0,0,1,16.881,46.7Zm3.891,2.2-.7-.715a1,1,0,0,1,0-1.416l2.92-2.92a1.525,1.525,0,0,1,2.126.013,1.508,1.508,0,0,1-.01,2.113l-1.64,1.64-1.28,1.28A1.008,1.008,0,0,1,20.772,48.908Zm9.145.532,0,0a2.227,2.227,0,0,1-2.9,0l-.986-.9c-.106-.089-.227-.188-.361-.3l.848-.848A3.457,3.457,0,0,0,27,46.786c.044-.068.076-.142.114-.213a3.4,3.4,0,0,0,.217-.481c.015-.041.041-.077.054-.118l.294.273L29.9,48.312l.017.017a.765.765,0,0,1,.26.562A.743.743,0,0,1,29.917,49.44ZM58,33.891a3.107,3.107,0,0,1-1.223-.543l-9.388-15.96L58,11.674ZM32.633,15.934c.87.423,7.82,3.681,12.916,2.271l9.078,15.433-9.608,5.549c-.032-.045-.068-.092-.1-.138q-.088-.123-.183-.249c-.072-.1-.146-.2-.222-.3-.065-.085-.131-.171-.2-.258-.079-.1-.161-.205-.243-.308l-.221-.275-.257-.314-.236-.284-.277-.326-.251-.293-.288-.331c-.088-.1-.175-.2-.265-.3l-.3-.339-.275-.306-.314-.344c-.095-.1-.189-.208-.286-.312l-.333-.359-.277-.3c-.108-.116-.219-.232-.328-.348l-.31-.327c-.062-.066-.125-.131-.188-.2q-.426-.445-.859-.891c-.071-.072-.141-.146-.213-.218-.143-.148-.288-.294-.432-.441l-.209-.213c-.153-.155-.3-.308-.458-.461l-.182-.184-.434-.434-.211-.21-.436-.432-.188-.185c-.157-.155-.312-.308-.467-.459l-.142-.14-.469-.457-.138-.134-.463-.449-.116-.111-.484-.467L33.7,27.04l-.484-.463-.057-.054c-1.087-1.037-2-1.894-2.627-2.472a7.774,7.774,0,0,0,1.3-1.5,1,1,0,0,0-1.672-1.1,5.784,5.784,0,0,1-1.108,1.254l-.005.006-.007,0a5.727,5.727,0,0,1-.6.451A5.212,5.212,0,0,1,26,24a1,1,0,0,0-.914.594c-1.49,3.351-2.844,4.4-3.717,4.685a2.074,2.074,0,0,1-1.751-.221.947.947,0,0,1-.424-1.053c.647-2.8,2.01-6.758,2.513-7.3A10.551,10.551,0,0,1,23.839,19.6a16.377,16.377,0,0,0,4.868-2.893A4.2,4.2,0,0,1,32.633,15.934Zm-9.321.016a4.841,4.841,0,0,1,3.028.111c-.022.015-.046.029-.068.043-.2.136-.417.266-.637.393-.059.034-.118.068-.178.1-.244.136-.493.268-.745.393l-.05.024c-.246.122-.493.238-.737.351l-.206.094c-.236.108-.471.214-.7.313a9.745,9.745,0,0,0-2.731,1.52c-1.149,1.148-2.6,6.425-2.983,7.994-.026.1-.047.193-.063.262a2.945,2.945,0,0,0,1.39,3.251,4.077,4.077,0,0,0,3.357.379c1.726-.569,3.3-2.33,4.676-5.241a7.434,7.434,0,0,0,2.19-.708c.514.476,1.378,1.282,2.427,2.278,3.878,3.684,10.442,10.135,12.6,13.581l.013.019a.923.923,0,0,0,.047.082,1,1,0,0,1-.136,1.242l-.019.021a1.975,1.975,0,0,1-2.8,0l-.429-.429-5.946-5.957a1,1,0,1,0-1.416,1.412l5.934,5.945h0a.985.985,0,0,1-.033,1.385,2.011,2.011,0,0,1-2.807,0l-.48-.47L31.305,39.82a1,1,0,0,0-1.414,1.414l4.522,4.523a1,1,0,0,1-.01,1.426,1.988,1.988,0,0,1-2.806,0l-.218-.2c-.038-.04-.068-.085-.108-.123L26.49,42.418l-.013-.008a3.474,3.474,0,0,0-.5-.4h0a3.442,3.442,0,0,0-1.541-.567,3.632,3.632,0,0,0,.042-.554,3.4,3.4,0,0,0-1.526-2.883c-.051-.035-.105-.065-.158-.1a3.431,3.431,0,0,0-.4-.21c-.059-.026-.116-.051-.176-.073a3.418,3.418,0,0,0-.483-.141c-.037-.008-.072-.021-.109-.028a3.534,3.534,0,0,0-.607-.057c-.05,0-.1.006-.15.007a3.576,3.576,0,0,0-.462.044c-.065.011-.127.023-.191.037a3.425,3.425,0,0,0-.441.13c-.051.018-.1.033-.153.053-.022.01-.045.015-.067.024-.014-.05-.045-.094-.061-.143a3.47,3.47,0,0,0-.222-.53c-.038-.072-.072-.146-.115-.215a3.437,3.437,0,0,0-.495-.642,3.312,3.312,0,0,0-.51-.416c-.054-.035-.112-.061-.167-.093a3.48,3.48,0,0,0-.421-.216c-.053-.022-.107-.038-.162-.057a3.593,3.593,0,0,0-.5-.142l-.1-.017a3.588,3.588,0,0,0-.611-.056.075.075,0,0,0-.015,0,3.427,3.427,0,0,0-1.974.581c-.011-.035-.033-.064-.046-.1a3.406,3.406,0,0,0-.216-.462c-.038-.07-.069-.143-.112-.21a3.356,3.356,0,0,0-.469-.584,3.456,3.456,0,0,0-2.475-1.031h0a3.558,3.558,0,0,0-.671.066c-.069.013-.134.04-.2.057a3.479,3.479,0,0,0-.432.131c-.078.032-.15.076-.225.113A3.232,3.232,0,0,0,9,33.923c-.076.05-.145.11-.217.166s-.168.115-.243.184A28.458,28.458,0,0,0,5.367,32.5l7.218-14.436C17.556,18.438,23.148,16.026,23.312,15.95ZM2,12.685l8.674,4.731L3.2,32.366a3.212,3.212,0,0,1-1.2.525Z" fill="#000000" class="color000000 svgShape"></path></svg>