<svg xmlns="http://www.w3.org/2000/svg" viewBox="0 0 52 52"><path fill="#defbf9" d="M32.821 35.91 8.451 49.98l-3.17-1.84-.1-35.36 18.7-10.8.91.53.16.09 5.53 3.15 2.26 1.31z" class="colordedffb svgShape"/><path fill="#cfd9d8" d="m27.066 10.336-2.253-1.31 5.671-3.274 2.253 1.31z" class="colord1cfd9 svgShape"/><path fill="#8a9c9b" d="m27.048 3.823-2.253-1.31 5.689 3.239 2.253 1.31z" class="color8a8a9c svgShape"/><path fill="#defbf9" d="m27.048 3.823 5.689 3.239-5.671 3.274z" class="colordedffb svgShape"/><path fill="#778685" d="m27.066 10.336-2.253-1.31-.018-6.513 2.253 1.31z" class="color777786 svgShape"/><path fill="#e7fcfa" d="M8.347 14.62 5.18 12.779 23.881 1.982l3.167 1.841z" class="colore9e7fc svgShape"/><path fill="#defbf9" d="M8.447 49.982 5.28 48.141l-.1-35.362 3.167 1.841z" class="colordedffb svgShape"/><path fill="#f1fcfb" d="m27.048 3.823.018 6.513 5.671-3.274.082 28.849L8.447 49.982l-.1-35.362z" class="colorf3f1fc svgShape"/><path fill="#defbf9" d="m12.545 20.902.003 1.018-2.448 1.413-.003-1.018zM30.63 10.461l.003 1.017-10.521 6.075-.003-1.018zM31.029 20.505l.003 1.017-1.728.998-.003-1.018zM31.022 17.945l.003 1.011-4.863 2.808-.003-1.011zM31.044 25.636l.003 1.012-1.879 1.085-.003-1.012zM28.14 27.313l.003 1.012-8.229 4.751-.003-1.012zM31.037 23.07l.002 1.018-6.13 3.54-.003-1.018zM31.066 33.328l.003 1.012-9.233 5.33-.003-1.011z" class="colordedffb svgShape"/><path fill="#51f4e7" d="m27.612 32.752.003 1.018-9.555 5.516-.003-1.018z" class="colorf45170 svgShape"/><path fill="#defbf9" d="m21.85 33.508.003 1.018-7.746 4.472-.003-1.018z" class="colordedffb svgShape"/><path fill="#60dbd1" d="m18.767 32.724.003 1.012-4.67 2.696-.003-1.011z" class="colordba660 svgShape"/><path fill="#defbf9" d="m31.058 30.762.003 1.018-2.48 1.432-.003-1.018zM31.051 28.196l.003 1.018-7.698 4.444-.003-1.018z" class="colordedffb svgShape"/><path fill="#5ae7dc" d="m28.549 21.936.003 1.018-6.479 3.741-.003-1.018z" class="color78e75a svgShape"/><path fill="#defbf9" d="m24.187 27.025.003 1.018-10.097 5.829-.003-1.017zM20.197 26.759l.003 1.017-6.114 3.53-.003-1.017zM25.225 21.292l.003 1.011-11.15 6.437-.003-1.011z" class="colordedffb svgShape"/><path fill="#6bf9ed" d="m27.202 15.01.002 1.018-13.14 7.587-.003-1.018z" class="color6bb4f9 svgShape"/><path fill="#defbf9" d="m18.906 17.229.003 1.018-4.853 2.802-.002-1.018zM12.552 23.468l.003 1.018-2.447 1.413-.003-1.018zM31.007 12.813l.003 1.018-2.088 1.205-.003-1.018zM12.56 26.034l.003 1.011-2.448 1.414-.003-1.012zM31.015 15.379l.003 1.011-10.377 5.991-.002-1.012zM19.313 22.135l.002 1.012-5.244 3.027-.003-1.011zM12.567 28.6l.003 1.011-2.448 1.414-.003-1.012zM12.574 31.16l.003 1.017-2.448 1.414-.003-1.018zM12.582 33.726l.002 1.017-2.447 1.413-.003-1.017zM12.589 36.291l.003 1.012-2.448 1.413-.003-1.011zM12.596 38.851l.003 1.018-2.448 1.413-.003-1.017zM12.603 41.417l.003 1.018-2.448 1.413-.002-1.018zM20.448 39.458l.003 1.012-6.329 3.654-.003-1.012zM17.032 38.86l.003 1.018-2.92 1.686-.003-1.018zM12.611 43.983l.002 1.012-2.447 1.413-.003-1.012z" class="colordedffb svgShape"/><path fill="#32dfd1" d="M43.181 9.89c0 .58-.4 1.28-.9 1.57l-7.8 4.5-2.11 3.65-.92-.53v-1.37l-.7.4c-.27.16-.52.16-.68.03h-.01l-.86-.5c-.16-.09-.26-.3-.27-.58l-.01-4.46c0-.57.4-1.27.9-1.56l11.52-6.65c.26-.15.48-.16.65-.07l.84.5.07.04c-.01-.01-.03-.01-.05-.02.2.08.32.28.32.6l.01 4.45z" class="colordf3260 svgShape"/><path fill="#32dfd1" d="M41.99 4.325c-.165-.096-.393-.083-.644.061L29.821 11.04c-.5.29-.9.99-.898 1.562l.013 4.454c0 .288.101.49.264.585l.915.532c-.162-.094-.263-.297-.264-.585l-.012-4.453c-.002-.572.397-1.274.898-1.563l11.525-6.654c.25-.144.479-.157.644-.06l-.916-.533z" class="colordf3260 svgShape"/><path fill="#32dfd1" d="m31.449 16.649.007 2.43.915.532-.007-2.43z" class="colordf3260 svgShape"/><path fill="#51f4e7" d="M42.262 4.918c.497-.287.908-.053.91.519l.012 4.453c.002.578-.406 1.278-.904 1.566l-7.798 4.502-2.11 3.653-.008-2.43-1.609.929c-.5.289-.902.056-.904-.522l-.012-4.454c-.002-.571.397-1.273.898-1.562l11.525-6.654z" class="colorf45170 svgShape"/><path fill="#fff" d="M35.975 10.46c.033.02.052.058.052.113 0 .058-.019.116-.052.172a.353.353 0 0 1-.125.13l-.696.4.008 2.307a.331.331 0 0 1-.055.18.376.376 0 0 1-.133.138c-.05.03-.094.033-.13.014-.036-.02-.053-.061-.053-.12l-.008-2.306-.697.404c-.05.028-.088.033-.124.014-.033-.02-.047-.055-.05-.113 0-.056.017-.111.05-.172a.333.333 0 0 1 .124-.13l1.764-1.017c.047-.028.089-.034.125-.014zm3.174-1.618.009 2.43c0 .062-.02.122-.053.183a.384.384 0 0 1-.13.136c-.052.03-.1.036-.133.016-.038-.019-.058-.06-.058-.119l-.005-2.165-.763 2.633a.644.644 0 0 1-.1.193.573.573 0 0 1-.15.139.23.23 0 0 1-.151.036.129.129 0 0 1-.097-.08l-.78-1.746.008 2.168c0 .058-.019.122-.055.183a.348.348 0 0 1-.133.135c-.05.03-.094.036-.13.014-.036-.02-.052-.058-.055-.119l-.005-2.43c0-.078.024-.163.074-.252a.48.48 0 0 1 .18-.19l.116-.067c.053-.03.1-.042.144-.03a.143.143 0 0 1 .094.08l.788 1.786.774-2.688a.64.64 0 0 1 .097-.188.476.476 0 0 1 .141-.138l.116-.067c.072-.041.133-.047.183-.019.05.03.074.089.074.166zm2.337 1.067a.332.332 0 0 1-.055.18.356.356 0 0 1-.133.138l-1.255.728c-.067.038-.128.044-.177.016-.047-.03-.072-.083-.072-.157l-.006-2.42c0-.058.017-.119.053-.182a.35.35 0 0 1 .13-.139c.05-.03.094-.036.132-.014.036.023.056.061.056.122l.005 2.276 1.134-.655c.05-.03.094-.034.133-.014.036.02.055.063.055.121zm-7.914 2.074.008 2.511c0 .058-.02.12-.055.183a.368.368 0 0 1-.133.135c-.05.03-.094.036-.13.014-.036-.02-.052-.06-.052-.119l-.003-1.053-1.294.746.002 1.054c0 .06-.019.122-.055.182a.356.356 0 0 1-.133.139c-.05.027-.094.033-.13.013-.036-.019-.052-.06-.052-.118l-.008-2.511a.37.37 0 0 1 .052-.186.393.393 0 0 1 .13-.138c.053-.028.097-.033.133-.01.039.018.055.06.055.118l.003 1.056 1.294-.75-.003-1.053c0-.058.017-.119.053-.182a.393.393 0 0 1 .13-.138c.052-.03.097-.036.133-.014.038.022.055.06.055.121z" class="colorffffff svgShape"/><path fill="#8afdf4" d="M46.359 23.578c-.262-.154-.188.498-.592.731l-14.802 8.957c-.803.46-1.882.807-1.882 1.73l-.53.792-1.85-1.076-.006-.751c0-.922.65-2.05 1.452-2.51l15.324-8.846c.404-.234.768-.256 1.036-.103l1.85 1.076z" class="colorb28afd svgShape"/><path fill="#defbf9" d="m29.008 49.92-1.85-1.076c-.261-.148-.42-.472-.42-.933l-.035-13.199 1.85 1.076 5.694 8.514c0 .46-5.5 5.47-5.239 5.618z" class="colordedffb svgShape"/><path fill="#f8fefe" d="M46.82 38.46c0 .928-.649 2.049-1.451 2.516L30.045 49.82c-.802.462-1.457.092-1.457-.83l-.034-13.205 18.232-10.525.034 13.199z" class="colorf8f9fe svgShape"/><path fill="#fff" d="m29.499 48.99-.033-12.678 16.414-9.476.03 11.626c0 .599-.476 1.422-1 1.726l-15.32 8.845a.753.753 0 0 1-.087.044.851.851 0 0 1-.004-.087z" class="colorffffff svgShape"/><path fill="#5af2e6" d="M46.786 24.51v.752L28.554 35.787l-.006-.746c0-.928.649-2.05 1.452-2.516l15.323-8.846c.803-.467 1.458-.09 1.463.831z" class="color7e5af2 svgShape"/><path fill="#fff" d="M37.24 29.487c-.075-.046-.123.78-.237.848l-6.378 2.835c-.228.125.043.422.043.678 0 .13-.407.244-.333.284l-.29-.171c-.075-.04-.12-.131-.12-.262 0-.256.182-.575.404-.7l6.33-3.655c.114-.068.216-.074.29-.028l.29.17z" class="colorffffff svgShape"/><path fill="#d3eae8" d="M37.36 29.747c0 .256-.182.57-.404.7l-6.33 3.655c-.228.13-.41.028-.41-.234 0-.256.182-.569.404-.7l6.33-3.654c.228-.131.41-.029.41.233zM41.682 27.252c0 .318-.222.7-.496.86-.142.079-.267.09-.358.033l-.017-.011-.012-.006-.262-.154c-.09-.05-.148-.165-.148-.318 0-.32.222-.706.501-.866.137-.08.262-.085.353-.034l.296.171c-.005-.006-.017-.006-.022-.006.102.046.165.16.165.33zm1.536-1.293c.092.052.149.165.149.32 0 .318-.223.705-.501.864-.16.091-.302.086-.393.006l-.25-.148c-.092-.051-.149-.16-.149-.319 0-.318.222-.7.496-.86.142-.079.267-.09.358-.033l.268.159c.005.006.017.006.022.011zm1.828-.649c0 .314-.222.7-.495.86-.137.08-.262.085-.353.034a.123.123 0 0 1-.029-.017l-.267-.154c-.086-.05-.143-.165-.143-.324 0-.313.222-.7.495-.86.137-.08.268-.085.36-.034l.267.16c.102.05.165.165.165.335z" class="colord3daea svgShape"/><path fill="#d3eae8" d="M41.18 26.966c.277-.16.5-.032.502.285 0 .317-.222.703-.498.862-.275.159-.5.03-.5-.286-.001-.317.221-.702.497-.861zm1.684-.972c.276-.16.5-.032.5.285.002.317-.221.703-.497.862-.275.16-.5.031-.5-.285-.001-.317.221-.703.497-.862z" class="colord3daea svgShape"/><path fill="#d3eae8" d="m42.931 25.79.29.17c-.1-.06-.22-.04-.36.04-.27.16-.5.54-.49.86 0 .15.05.26.14.31l-.29-.17c-.09-.05-.15-.16-.15-.32 0-.31.22-.7.5-.86.14-.07.26-.09.36-.03zm-1.69.97.3.17c-.09-.05-.22-.05-.36.03-.28.16-.5.55-.5.87 0 .15.06.27.15.32l-.3-.17c-.09-.05-.14-.17-.14-.32 0-.32.22-.71.5-.87.13-.08.26-.08.35-.03zm3.81-1.45c0 .31-.23.7-.5.86-.14.08-.27.09-.36.04l-.29-.17c-.09-.06-.14-.17-.14-.33 0-.31.22-.7.49-.86.14-.08.27-.08.36-.03l.25.15.04.02c.09.05.15.16.15.32z" class="colord3daea svgShape"/><path fill="#fff" d="m41.242 26.759.296.17c-.091-.05-.216-.045-.359.035-.273.159-.495.546-.495.865 0 .154.057.267.142.319l-.29-.171c-.091-.051-.148-.165-.148-.319 0-.319.222-.706.501-.865.137-.08.262-.086.353-.034zm1.685-.968.29.17c-.09-.056-.216-.045-.353.035-.273.16-.5.54-.495.86 0 .159.051.267.142.318l-.29-.17c-.091-.052-.148-.16-.148-.32 0-.318.222-.7.495-.859.143-.08.268-.09.359-.034zm1.975-.803c-.091-.05-.216-.045-.353.035-.279.159-.5.546-.5.86 0 .159.056.267.147.324l-.296-.171c-.085-.051-.142-.165-.142-.325 0-.313.222-.7.495-.86.137-.079.268-.085.359-.033l.29.17z" class="colorffffff svgShape"/><path fill="#d3eae8" d="M44.547 25.022c.276-.159.5-.031.5.286.002.316-.221.702-.497.862-.275.159-.5.03-.5-.286-.001-.317.221-.703.497-.862z" class="colord3daea svgShape"/><path fill="#5abfb7" d="m31.862 45.503.005 1.432-1.248.721-.004-1.432z" class="colorbf7d5a svgShape"/><path fill="#defbf9" d="m33.715 44.434.001.403-.831.48-.001-.404z" class="colordedffb svgShape"/><path fill="#41e1d4" d="m39.853 40.89.001.403-3.57 2.062-.001-.404z" class="color57b3fe svgShape"/><path fill="#defbf9" d="m45.547 38.62.001.403-6.274 3.622-.001-.403zM43.355 38.868l.001.403-3 1.732-.001-.403zM35.874 43.187l.002.403-1.647.951-.002-.403zM33.718 45.449l.001.403-.831.48-.001-.403zM38.69 42.579l.001.403-4.46 2.575-.001-.404z" class="colordedffb svgShape"/><path fill="#51f4e7" d="m31.862 43.215.005 1.432-1.248.72-.004-1.432z" class="colorf45170 svgShape"/><path fill="#defbf9" d="m33.715 42.145.001.403-.831.48-.001-.403zM39.853 38.602l.001.403-3.57 2.061-.001-.403zM45.547 36.331l.001.403-6.274 3.623-.001-.403z" class="colordedffb svgShape"/><path fill="#51f4e7" d="m43.355 36.579.001.404-3 1.732-.001-.403z" class="colorf45170 svgShape"/><path fill="#defbf9" d="m35.874 40.898.002.404-1.647.951-.002-.404zM33.718 43.161l.001.403-.831.48-.001-.404zM38.69 40.29l.001.403-4.46 2.575-.001-.403z" class="colordedffb svgShape"/><path fill="#8ffef5" d="m31.862 40.926.005 1.432-1.248.721-.004-1.432z" class="color8fabfe svgShape"/><path fill="#60dbd1" d="m33.715 39.857.001.403-.831.48-.001-.404z" class="colordba660 svgShape"/><path fill="#defbf9" d="m39.853 36.313.001.403-3.57 2.061-.001-.403zM45.547 34.043l.001.403-6.274 3.622-.001-.403zM43.355 34.291l.001.403-3 1.732-.001-.403zM35.874 38.61l.002.403-1.647.951-.002-.403zM33.718 40.872l.001.403-.831.48-.001-.403zM38.69 38.002l.001.403-4.46 2.575-.001-.404z" class="colordedffb svgShape"/><path fill="#61d5cc" d="M31.872 36.033c.182-.105.36-.183.537-.232.176-.05.329-.062.457-.038l-.173.596a1.18 1.18 0 0 0-.41.035c-.143.036-.28.092-.414.17-.219.126-.38.262-.488.41a.73.73 0 0 0-.158.43c0 .097.031.16.092.187.061.026.139.03.233.012.093-.018.221-.051.384-.099.221-.07.404-.113.546-.131a.503.503 0 0 1 .365.08c.1.073.152.22.152.442 0 .19-.043.387-.132.592-.09.206-.224.406-.406.602-.182.196-.403.37-.665.522-.23.132-.452.223-.667.272-.215.05-.385.047-.51-.005l.19-.605c.123.04.273.044.451.012s.356-.1.535-.203c.222-.128.387-.265.496-.41a.696.696 0 0 0 .163-.417c0-.098-.03-.162-.092-.19-.061-.028-.139-.034-.233-.016s-.222.052-.384.1c-.227.069-.411.113-.552.133a.488.488 0 0 1-.363-.083c-.101-.074-.153-.224-.153-.449 0-.19.044-.387.133-.594.09-.207.223-.408.404-.604.18-.195.4-.369.662-.52z" class="color72d561 svgShape"/><path fill="#51f4e7" d="m35.716 33.863.001.533-1.623.937.003.892 1.44-.832.001.524-1.44.832.003.945 1.683-.972.001.535-2.237 1.291-.009-3.428z" class="colorf45170 svgShape"/><path fill="#c9e2e0" d="M37.978 33.73c.35-.203.634-.04.635.361.001.402-.28.89-.63 1.093-.35.202-.634.04-.636-.362 0-.402.281-.89.631-1.093z" class="colorc9cee2 svgShape"/><path fill="#c9e2e0" d="m39.706 33.772-.334.265a2.88 2.88 0 0 1-.173.57l.195.216-.382.661-.295-.06c-.12.15-.253.286-.393.403l-.068.455-.541.312-.073-.394a.92.92 0 0 1-.359.026l-.326.445-.385-.219.23-.521a.948.948 0 0 1-.14-.313l-.406.145-.002-.622.406-.323c.03-.156.076-.316.137-.473l-.232-.255.382-.662.328.068c.11-.142.23-.274.358-.388l.07-.477.542-.313.07.376c.14-.045.273-.062.394-.051l.294-.401.385.219-.193.439a.935.935 0 0 1 .175.37l.334-.12.002.622zm-1.723 1.687c.482-.279.871-.952.87-1.506-.002-.554-.394-.777-.876-.5-.481.28-.87.953-.869 1.507.002.554.393.777.875.499" class="colorc9cee2 svgShape"/><path fill="#defbf9" d="m45.556 28.408-3.113 1.797.001.404 3.112-1.797zM42.035 30.441l.001.403-1.647.951-.001-.403z" class="colordedffb svgShape"/><path fill="#6cfff3" d="m44.851 29.833.001.403-4.46 2.575-.001-.404z" class="colorffd06c svgShape"/><path fill="#defbf9" d="m45.556 30.608-3.113 1.797.001.403 3.112-1.797zM42.035 32.64l.001.404-1.647.951-.001-.404z" class="colordedffb svgShape"/><path fill="#6bf9ed" d="m44.851 32.032.001.403-4.46 2.575-.001-.403z" class="color6bb4f9 svgShape"/><path fill="#6cfff3" d="M25.108 6.245 9.903 15.024l.01 5.544 15.195-8.773z" class="colorffd06c svgShape"/></svg>