<svg xmlns="http://www.w3.org/2000/svg" viewBox="0 0 130 130"><path fill="#32b2a8" d="m105.133 10.223-12.82-7.345a9.45 9.45 0 0 0-1.801-1.032l-.189-.107-.008.016C86.866.353 82.411.859 77.551 3.664L38.064 26.459c-10.857 6.268-19.74 21.655-19.74 34.193v45.591c0 6.114 2.123 10.45 5.547 12.577l-.033.06 14.248 8.073 8.012-13.95 31.453-18.157c10.855-6.269 19.74-21.656 19.74-34.193V23.875l7.842-13.652z" class="colorb23294 svgShape"/><path fill="#1f938a" d="M105.133 10.223 91.41 7.004c-.561-.408-3.363-.398-4.002-.678l-1.017-.406-1.832-.34C81.11 4.178 82.411.859 77.551 3.664L38.064 26.459c-10.857 6.268-19.74 21.655-19.74 34.193v45.591c0 6.114 2.123 10.45 5.547 12.577l-.033.06 14.248 8.073 8.012-13.95 31.453-18.157c10.855-6.269 19.74-21.656 19.74-34.193V23.875l7.842-13.652z" class="color931f7d svgShape"/><path fill="#13756d" d="M19.076 54.084c-.479 2.232-.752 4.442-.752 6.568v45.591c0 6.114 2.123 10.45 5.547 12.577l-.033.06 14.248 8.073 8.012-13.95 31.453-18.157c1.844-1.065 3.627-2.41 5.322-3.945L19.076 54.084z" class="color751367 svgShape"/><path fill="#41e1d4" d="M51.635 34.329c-10.857 6.268-19.742 21.656-19.742 34.193v45.592c0 12.537 8.885 17.666 19.742 11.396l39.484-22.795c10.857-6.268 19.742-21.655 19.742-34.193V22.93c0-12.537-8.885-17.665-19.742-11.396L51.635 34.329z" class="color8adb21 svgShape"/><path fill="#0fcebe" d="M110.861 22.93c0-12.537-8.885-17.665-19.742-11.396L51.635 34.329c-10.857 6.268-19.742 21.656-19.742 34.193v45.592c0 12.537 8.885 17.666 19.742 11.396" class="color7fce0f svgShape"/><path fill="#0fcebe" d="m54.701 123.741 25.274-14.592V60.137H54.701z" class="color7fce0f svgShape" opacity=".5"/><path fill="#42c1b7" d="M42.865 129h-.002c-7.158 0-11.783-5.843-11.783-14.886V68.522c0-12.828 9.037-28.484 20.146-34.898l39.486-22.795c3.201-1.848 6.289-2.784 9.178-2.784 7.158 0 11.785 5.844 11.785 14.886v45.592c0 12.829-9.039 28.484-20.148 34.898l-39.486 22.795C48.84 128.063 45.754 129 42.865 129zM99.891 9.672c-2.6 0-5.414.863-8.363 2.564L52.041 35.034c-10.66 6.154-19.334 21.178-19.334 33.488v45.592c0 8.178 3.891 13.258 10.156 13.258h.002c2.6 0 5.412-.863 8.361-2.564l39.486-22.797c10.66-6.154 19.334-21.178 19.334-33.488V22.93c.001-8.178-3.89-13.258-10.155-13.258z" class="colorc142a9 svgShape"/><path fill="#1f938a" d="M74.695 30.192c-11.439 4.916-20.058 20.194-20.058 31.594 0 11.393 10.081 44.755 19.954 39.055 9.869-5.699 19-45.523 19-56.922.001-11.395-8.425-18.227-18.896-13.727z" class="color931f7d svgShape"/><path fill="#42c1b7" d="M75.653 34.045c-9.872 5.699-17.946 19.687-17.946 31.086 0 11.394 8.074 43.912 17.946 38.213 9.869-5.699 17.943-47.536 17.943-58.936.001-11.392-8.074-16.062-17.943-10.363z" class="colorc142a9 svgShape"/><path fill="#32b2a8" d="M75.653 34.045c-9.872 5.699-17.946 19.687-17.946 31.086 0 11.394 8.074 43.912 17.946 38.213" class="colorb23294 svgShape"/><path fill="#41e1d4" d="M75.536 42.211c-6.151 3.551-11.182 12.267-11.182 19.369 0 7.099 5.03 10.005 11.182 6.453 6.149-3.551 11.181-12.263 11.181-19.364 0-7.099-5.031-10.008-11.181-6.458z" class="color8adb21 svgShape"/><path fill="#0fcebe" d="M75.536 42.211c-6.151 3.551-11.182 12.267-11.182 19.369 0 7.099 5.03 10.005 11.182 6.453" class="color7fce0f svgShape"/></svg>