<svg xmlns="http://www.w3.org/2000/svg" enable-background="new 0 0 51 51" viewBox="0 0 51 51"><g enable-background="new"><path fill="#CEA03A" d="M6.9007,48.74313L1.5,45.60459c2.35292-2.96638,3.81646-5.56547,4.66077-7.83443l5.40068,3.13855
					C10.71716,43.17767,9.25362,45.77674,6.9007,48.74313z"/><path fill="#FFD651" d="M33.53167,3.31856c-3.15516-1.83368-8.08671-1.34007-13.62121,1.85531
					C15.56108,7.68501,11.604,11.43478,8.5824,15.5761l5.40073,3.13853c3.02161-4.14132,6.97853-7.89108,11.32791-10.40224
					c5.5345-3.19538,10.46605-3.68899,13.62136-1.85523L33.53167,3.31856z"/><path fill="#EFC348" d="M8.16178,33.68069c-0.01305-4.62097,2.24761-10.06828,5.82134-14.96606L8.5824,15.5761
					c-3.57357,4.89778-5.83439,10.3451-5.82134,14.96606c0.00986,3.43858,1.27299,5.88864,3.3998,7.22803l5.40057,3.13852
					C9.43477,39.56933,8.17165,37.11934,8.16178,33.68069z"/><g><path fill="#EFC348" d="M42.55119,13.82891c0.02474,8.5162-7.65843,19.87947-17.15684,25.36215
					c-2.94648,1.6908-5.70645,2.63567-8.13072,2.85945c-2.06383,2.12598-4.23951,3.65514-6.06719,4.71195
					c-1.54161,0.8951-2.7973,1.42968-3.55551,1.71568H7.62849c-0.43526,0.174-0.69629,0.24859-0.73362,0.26103
					c2.3622-2.95893,3.81685-5.55727,4.66217-7.83243c-2.1259-1.34272-3.38159-3.79188-3.39403-7.22325
					c-0.02489-8.52864,7.65843-19.89192,17.1444-25.3746c5.02276-2.89678,9.54804-3.56811,12.69348-2.31249
					C40.82307,7.1278,42.53875,9.81318,42.55119,13.82891z"/></g></g><polygon fill="#DDB040" points="11.993 41.061 10.575 45.892 7.641 48.478 6.895 48.739 11.557 40.907"/><path fill="#DDB040" d="M42.55119,13.82891c0.02474,8.5162-7.65843,19.87947-17.15684,25.36215
				c-2.94648,1.6908-5.70645,2.63567-8.13072,2.85945c-2.06383,2.12598-4.23951,3.65514-6.06719,4.71195
				c-1.54161,0.8951-2.7973,1.42968-3.55551,1.71568c2.16323-2.80975,3.53062-5.27135,4.33891-7.42221
				c-2.12605-1.34273-3.39403-3.79188-3.40648-7.23569c-0.02489-8.5162,7.65828-19.87947,17.15669-25.36215
				c4.79891-2.77249,9.13782-3.50596,12.27082-2.46168C40.82307,7.1278,42.53875,9.81318,42.55119,13.82891z"/><g enable-background="new"><path fill="#F25A5A" d="M46.20747 33.66169l-3.50495-2.03684c.74865.42655 1.80656.58319 3.29255.30996L49.5 33.97165C48.01401 34.24488 46.95611 34.08824 46.20747 33.66169zM42.49554 19.58191l3.50493 2.03685c-2.06636-1.20085-5.29779-.87642-8.92716 1.21899l-3.50493-2.03684C37.19774 18.7055 40.42918 18.38107 42.49554 19.58191z"/><path fill="#DD4A4A" d="M28.21216,44.26544l-3.50495-2.03684c-1.47698-0.85834-2.3592-2.49587-2.3658-4.82316
						c-0.01583-5.58206,5.01175-13.01617,11.22697-16.60452l3.50493,2.03684c-6.21521,3.58835-11.24279,11.02246-11.22696,16.60452
						C25.85294,41.76957,26.73517,43.4071,28.21216,44.26544z"/><path fill="#F25A5A" d="M49.49567,33.97612c-0.02002,0.02002-0.07996,0.09003-0.18994,0.21002
						c-0.6001,0.64996-2.57007,2.65997-4.91003,4.00995c-0.77002,0.44-1.55994,0.80005-2.34998,1
						c-1.47998,1.5-3.15002,2.84003-4.92004,3.85004c-4.88,2.82001-9.03992,2.42999-10.60999-0.57001
						c0-0.01001,0-0.02002-0.01001-0.03003c-0.42993-0.81-0.65991-1.81-0.65991-3
						c-0.02002-5.58997,5.01001-13.01996,11.22998-16.60998c4.82996-2.78998,8.94995-2.44,10.54993,0.46002
						c0.06995,0.10999,0.13,0.21997,0.18005,0.33997c0.35999,0.77002,0.55994,1.71002,0.55994,2.80005
						c0.01001,2.22998-0.78992,4.75995-2.16003,7.22998c0.05005,0.02997,0.09009,0.04999,0.14014,0.07001
						C47.08576,34.10612,48.10578,34.22612,49.49567,33.97612z"/><path fill="#CC4848" d="M49.30573,34.18614c-0.6001,0.64996-2.57007,2.65997-4.91003,4.00995
						c-0.77002,0.44-1.55994,0.80005-2.34998,1c-1.47998,1.5-3.15002,2.84003-4.92004,3.85004
						c-4.88,2.82001-9.03992,2.42999-10.60999-0.57001c0-0.01001,0-0.02002-0.01001-0.03003
						c-0.37-0.77997-0.57007-1.72998-0.57007-2.82996c-0.01001-5.58002,5.01001-13.02002,11.2301-16.60003
						c4.72998-2.73999,8.78992-2.45996,10.45996,0.28003c0.06995,0.10999,0.13,0.21997,0.18005,0.33997
						c0.41992,0.81,0.6499,1.81,0.6499,2.98004c0.01001,2.19-0.77002,4.69-2.10986,7.11999
						c-0.01001,0.02997-0.03003,0.07001-0.05005,0.09998C46.99567,34.23613,47.96564,34.3961,49.30573,34.18614z"/></g><path fill="#D6D4D2" d="M32.0483,34.90306c1.02397-0.59119,1.8521-0.11917,1.85544,1.05744
					c0.00334,1.17661-0.81939,2.61089-1.84336,3.20208c-1.02397,0.59119-1.85224,0.11012-1.85557-1.0665
					C30.20146,36.91948,31.02433,35.49426,32.0483,34.90306z"/><g enable-background="new"><path fill="#FFF" d="M29.32855 37.58684c.00159.58679.2085 1.00061.54236 1.19464l.87634.50928c-.33386-.19409-.54089-.60791-.54236-1.1947-.00146-.4801.13989-.99957.37109-1.48889l-.87622-.50928C29.46845 36.5872 29.32721 37.10674 29.32855 37.58684zM32.04828 34.90306c.51526-.29749.98083-.32581 1.31689-.13055l-.87634-.50922c-.33594-.19525-.80152-.16693-1.3169.13049-.14429.08331-.28296.18658-.41748.29999l.87622.50928C31.7652 35.08965 31.90399 34.98637 32.04828 34.90306z"/><path fill="#E9E8E6" d="M31.63068,35.20305l-0.87622-0.50928c-0.43066,0.36304-0.79907,0.86316-1.05469,1.40411
							l0.87622,0.50928C30.83161,36.06627,31.20001,35.56609,31.63068,35.20305z"/><path fill="#D6D4D2" d="M37.50546,31.7547c1.02397-0.59119,1.8521-0.11917,1.85544,1.05744
							c0.00333,1.17661-0.81939,2.61089-1.84336,3.20208c-1.02397,0.59119-1.85224,0.11012-1.85558-1.06649
							C35.65863,33.77111,36.48149,32.34589,37.50546,31.7547z"/><path fill="#FFF" d="M34.78572 34.43847c.00159.58679.2085 1.00061.54236 1.19464l.87634.50928c-.33386-.19409-.54089-.60791-.54236-1.1947-.00146-.4801.13989-.99957.37109-1.48889l-.87622-.50928C34.92561 33.43884 34.78438 33.95837 34.78572 34.43847zM37.50545 31.75469c.51526-.29749.98083-.32581 1.31689-.13055L37.946 31.11492c-.33594-.19525-.80151-.16693-1.31689.13049-.14429.08331-.28296.18658-.41748.29999l.87622.50928C37.22237 31.94128 37.36116 31.83801 37.50545 31.75469z"/><path fill="#E9E8E6" d="M37.08784,32.05468l-0.87622-0.50928c-0.43066,0.36304-0.79907,0.86316-1.05469,1.40411
							l0.87622,0.50928C36.28877,32.9179,36.65718,32.41772,37.08784,32.05468z"/><g><path fill="#D6D4D2" d="M42.96263,28.60633c1.02397-0.59119,1.85211-0.11917,1.85544,1.05744
							s-0.81939,2.61089-1.84336,3.20208c-1.02397,0.59119-1.85224,0.11012-1.85558-1.06649
							C41.1158,30.62274,41.93866,29.19752,42.96263,28.60633z"/></g><g><path fill="#FFF" d="M40.24289 31.2901c.00159.58679.2085 1.00061.54236 1.19464l.87634.50928c-.33386-.19409-.54089-.60791-.54236-1.1947-.00146-.4801.13989-.99957.37109-1.48889l-.87622-.50928C40.38278 30.29047 40.24154 30.81 40.24289 31.2901zM42.96261 28.60633c.51526-.29749.98083-.32581 1.31689-.13055l-.87634-.50922c-.33594-.19525-.80151-.16693-1.31689.13049-.14429.08331-.28296.18658-.41748.29999l.87622.50928C42.67953 28.79291 42.81833 28.68964 42.96261 28.60633z"/><path fill="#E9E8E6" d="M42.54501,28.90631l-0.87622-0.50928c-0.43066,0.36304-0.79907,0.86316-1.05469,1.40411
							l0.87622,0.50928C41.74594,29.76953,42.11435,29.26935,42.54501,28.90631z"/></g></g><path fill="#FFF" d="M18.51259,19.45621c-2.221,0-4.01156,1.75717-4.01156,4.01171c0-2.2125-1.79951-4.01171-4.01216-4.01171
		c2.20711,0,4.01216-1.78632,4.01216-4.01186C14.50103,17.71956,16.33296,19.45621,18.51259,19.45621z"/></svg>