<svg xmlns="http://www.w3.org/2000/svg" viewBox="0 0 130 130"><path fill="#323838" d="m105.133 10.224-12.82-7.345a9.45 9.45 0 0 0-1.801-1.032l-.189-.107-.008.016C86.866.354 82.411.86 77.551 3.665L38.064 26.46c-10.857 6.268-19.74 21.655-19.74 34.193v45.591c0 6.114 2.123 10.45 5.547 12.577l-.033.06 14.248 8.073 8.012-13.95 31.453-18.157c10.855-6.269 19.74-21.656 19.74-34.193V23.876l7.842-13.652z" class="color323738 svgShape"/><path fill="#252d2c" d="M105.133 10.224 91.41 7.005c-.561-.408-3.363-.398-4.002-.678l-1.018-.406-1.831-.341C81.11 4.178 82.411.859 77.551 3.664L38.064 26.46c-10.857 6.268-19.74 21.655-19.74 34.193v45.591c0 6.114 2.123 10.45 5.547 12.577l-.033.06 14.248 8.073 8.012-13.95 31.453-18.157c10.855-6.269 19.74-21.656 19.74-34.193V23.876l7.842-13.652z" class="color252b2d svgShape"/><path fill="#090c0c" d="M19.076 54.085c-.479 2.232-.752 4.442-.752 6.568v45.591c0 6.114 2.123 10.45 5.547 12.577l-.033.06 14.248 8.073 8.012-13.95 31.453-18.157c1.844-1.065 3.627-2.41 5.322-3.945L19.076 54.085z" class="color090c0c svgShape"/><path fill="#3b4241" d="M51.635 34.329c-10.857 6.268-19.742 21.656-19.742 34.193v45.592c0 12.537 8.885 17.666 19.742 11.396l39.484-22.795c10.857-6.268 19.742-21.655 19.742-34.193V22.931c0-12.537-8.885-17.665-19.742-11.396L51.635 34.329z" class="color3b4142 svgShape"/><path fill="#383f3e" d="M110.861 22.931c0-12.537-8.885-17.665-19.742-11.396L51.635 34.329c-10.857 6.268-19.742 21.656-19.742 34.193v45.592c0 12.537 8.885 17.666 19.742 11.396" class="color383e3f svgShape" opacity=".2"/><path fill="#383f3e" d="M50.599 126.077c.343-.178.688-.365 1.036-.566l20.86-12.043V96.229H50.599v29.848zM99.14 79.979H77.243v30.747l13.876-8.011c2.854-1.647 5.564-3.937 8.021-6.627V79.979z" class="color383e3f svgShape" opacity=".3"/><path fill="#4f5958" d="M42.865 129h-.002c-7.158 0-11.783-5.843-11.783-14.886V68.522c0-12.828 9.037-28.484 20.146-34.898l39.486-22.795c3.201-1.848 6.289-2.784 9.178-2.784 7.158 0 11.785 5.844 11.785 14.886v45.592c0 12.829-9.039 28.484-20.148 34.898l-39.486 22.795C48.84 128.063 45.754 129 42.865 129zM99.891 9.673c-2.6 0-5.414.863-8.363 2.564L52.041 35.034c-10.66 6.155-19.334 21.178-19.334 33.488v45.592c0 8.178 3.891 13.258 10.156 13.258h.002c2.6 0 5.412-.863 8.361-2.564l39.486-22.797c10.66-6.154 19.334-21.178 19.334-33.488V22.931c.001-8.178-3.89-13.258-10.155-13.258z" class="color4f5759 svgShape"/><path fill="#b2cecc" d="m73.307 77.444-3.317-1.9a2.561 2.561 0 0 0-.466-.268l-.049-.027-.003.004c-.893-.363-2.045-.232-3.302.494l-10.216 5.898c-2.809 1.621-5.107 5.602-5.107 8.846v11.795c0 1.582.549 2.705 1.436 3.255l-.01.015 3.687 2.089 2.073-3.608 8.138-4.698c2.809-1.622 5.107-5.603 5.107-8.847v-9.516l2.029-3.532z" class="colorb2bfce svgShape"/><path fill="#41e1d4" d="m73.307 77.444-3.551-.833c-.146-.105-.87-.103-1.036-.175l-.263-.105-.474-.088c-.893-.363-.557-1.223-1.813-.496l-10.216 5.898c-2.809 1.621-5.107 5.602-5.107 8.846v11.795c0 1.582.549 2.705 1.436 3.255l-.01.015 3.687 2.089 2.073-3.608 8.138-4.698c2.809-1.622 5.107-5.603 5.107-8.847v-9.516l2.029-3.532z" class="color989fa8 svgShape"/><path fill="#768e8c" d="M51.041 88.792a8.149 8.149 0 0 0-.194 1.699v11.795c0 1.582.549 2.705 1.436 3.255l-.01.015 3.687 2.089 2.073-3.608 8.138-4.698a8.154 8.154 0 0 0 1.377-1.021l-16.507-9.526z" class="color76828e svgShape"/><path fill="#f3fffe" d="M59.465 83.681c-2.809 1.621-5.108 5.604-5.108 8.846v11.797c0 3.244 2.3 4.57 5.108 2.949l10.216-5.898c2.809-1.621 5.107-5.604 5.107-8.848V80.731c0-3.243-2.299-4.57-5.107-2.948l-10.216 5.898z" class="colorf3faff svgShape"/><path fill="#e5f9f7" d="M74.788 80.655c0-3.244-2.299-4.571-5.107-2.949l-10.216 5.897c-2.809 1.622-5.107 5.603-5.107 8.847v11.795c0 3.244 2.299 4.571 5.107 2.949" class="colore5f0f9 svgShape"/><path fill="#cae0de" d="M57.196 108.175c-1.854 0-3.049-1.512-3.049-3.852V92.526c0-3.318 2.338-7.369 5.212-9.027l10.216-5.898c.828-.479 1.627-.721 2.374-.721 1.853 0 3.05 1.513 3.05 3.852v11.795c0 3.32-2.339 7.371-5.213 9.029l-10.216 5.898c-.829.479-1.627.721-2.374.721zm14.753-30.873c-.672 0-1.4.224-2.163.664L59.57 83.862c-2.759 1.594-5.002 5.48-5.002 8.664v11.797c0 2.115 1.006 3.43 2.628 3.43.672 0 1.4-.223 2.163-.664l10.216-5.897c2.758-1.593 5.002-5.479 5.002-8.665V80.731c0-2.115-1.006-3.429-2.628-3.429z" class="colorcad5e0 svgShape"/><path fill="#b2cecc" d="m99.703 62.228-3.317-1.9a2.5 2.5 0 0 0-.466-.267l-.049-.028-.003.004c-.893-.362-2.045-.231-3.302.494L82.35 66.429c-2.809 1.621-5.107 5.603-5.107 8.846V87.07c0 1.582.549 2.704 1.436 3.255l-.01.015 3.687 2.089 2.073-3.609 8.138-4.697c2.809-1.622 5.107-5.604 5.107-8.848V65.76l2.029-3.532z" class="colorb2bfce svgShape"/><path fill="#41e1d4" d="m99.703 62.228-3.551-.832c-.146-.105-.87-.104-1.036-.176l-.263-.105-.474-.088c-.893-.363-.557-1.222-1.813-.496L82.35 66.429c-2.809 1.621-5.107 5.603-5.107 8.846V87.07c0 1.582.549 2.704 1.436 3.255l-.01.015 3.687 2.089 2.073-3.609 8.138-4.697c2.809-1.622 5.107-5.604 5.107-8.848V65.76l2.029-3.532z" class="color989fa8 svgShape"/><path fill="#768e8c" d="M77.438 73.575a8.149 8.149 0 0 0-.194 1.699V87.07c0 1.582.549 2.704 1.436 3.255l-.01.015 3.687 2.089 2.073-3.609 8.138-4.697a8.154 8.154 0 0 0 1.377-1.021l-16.507-9.527z" class="color76828e svgShape"/><path fill="#f3fffe" d="M85.861 68.464c-2.809 1.622-5.108 5.604-5.108 8.847v11.796c0 3.244 2.3 4.57 5.108 2.949l10.216-5.898c2.809-1.621 5.107-5.603 5.107-8.847V65.516c0-3.243-2.299-4.57-5.107-2.948l-10.216 5.896z" class="colorf3faff svgShape"/><path fill="#e5f9f7" d="M101.185 65.438c0-3.244-2.299-4.57-5.107-2.949l-10.216 5.898c-2.809 1.621-5.107 5.603-5.107 8.846v11.796c0 3.243 2.299 4.571 5.107 2.948" class="colore5f0f9 svgShape"/><path fill="#cae0de" d="M83.593 92.958c-1.854 0-3.049-1.512-3.049-3.852V77.311c0-3.318 2.338-7.369 5.212-9.028l10.216-5.898c.828-.478 1.627-.72 2.374-.72 1.853 0 3.05 1.513 3.05 3.852v11.795c0 3.319-2.339 7.37-5.213 9.029l-10.216 5.897c-.829.478-1.627.72-2.374.72zm14.753-30.872c-.672 0-1.4.224-2.163.663l-10.216 5.897c-2.759 1.593-5.002 5.479-5.002 8.664v11.796c0 2.116 1.006 3.431 2.628 3.431.672 0 1.4-.224 2.163-.664l10.216-5.897c2.758-1.593 5.002-5.479 5.002-8.665V65.516c0-2.117-1.006-3.43-2.628-3.43z" class="colorcad5e0 svgShape"/><path fill="#b2cecc" d="m73.307 48.387-3.317-1.899a2.504 2.504 0 0 0-.466-.268l-.049-.027-.003.004c-.893-.363-2.045-.232-3.302.494l-10.216 5.897c-2.809 1.622-5.107 5.603-5.107 8.847V73.23c0 1.582.549 2.704 1.436 3.254l-.01.016 3.687 2.088 2.073-3.608 8.138-4.698c2.809-1.621 5.107-5.603 5.107-8.846V51.92l2.029-3.533z" class="colorb2bfce svgShape"/><path fill="#41e1d4" d="m73.307 48.387-3.551-.833c-.146-.105-.87-.103-1.036-.175l-.263-.104-.474-.089c-.893-.362-.557-1.222-1.813-.495l-10.216 5.897c-2.809 1.622-5.107 5.603-5.107 8.847V73.23c0 1.582.549 2.704 1.436 3.254l-.01.016 3.687 2.088 2.073-3.608 8.138-4.698c2.809-1.621 5.107-5.603 5.107-8.846V51.92l2.029-3.533z" class="color989fa8 svgShape"/><path fill="#768e8c" d="M51.041 59.735a8.134 8.134 0 0 0-.194 1.699v11.795c0 1.582.549 2.704 1.436 3.254l-.01.016 3.687 2.088 2.073-3.608 8.138-4.698a8.093 8.093 0 0 0 1.377-1.02l-16.507-9.526z" class="color76828e svgShape"/><path fill="#f3fffe" d="M59.465 54.624c-2.809 1.621-5.108 5.603-5.108 8.846v11.796c0 3.244 2.3 4.571 5.108 2.949l10.216-5.897c2.809-1.622 5.107-5.604 5.107-8.848V51.675c0-3.244-2.299-4.57-5.107-2.949l-10.216 5.898z" class="colorf3faff svgShape"/><path fill="#e5f9f7" d="M74.788 51.598c0-3.244-2.299-4.571-5.107-2.948l-10.216 5.896c-2.809 1.622-5.107 5.604-5.107 8.847v11.796c0 3.244 2.299 4.57 5.107 2.949" class="colore5f0f9 svgShape"/><path fill="#cae0de" d="M57.196 79.117c-1.854 0-3.049-1.512-3.049-3.852V63.47c0-3.318 2.338-7.369 5.212-9.028l10.216-5.897c.828-.479 1.627-.721 2.374-.721 1.853 0 3.05 1.513 3.05 3.852V63.47c0 3.319-2.339 7.37-5.213 9.029L59.57 78.397c-.829.478-1.627.72-2.374.72zm14.753-30.872c-.672 0-1.4.223-2.163.663L59.57 54.806c-2.759 1.593-5.002 5.479-5.002 8.664v11.796c0 2.116 1.006 3.431 2.628 3.431.672 0 1.4-.224 2.163-.664l10.216-5.898c2.758-1.592 5.002-5.479 5.002-8.664V51.675c0-2.115-1.006-3.43-2.628-3.43z" class="colorcad5e0 svgShape"/><path fill="#b2cecc" d="m99.703 33.171-3.317-1.9a2.561 2.561 0 0 0-.466-.268l-.049-.027-.003.004c-.893-.363-2.045-.232-3.302.494L82.35 37.372c-2.809 1.621-5.107 5.602-5.107 8.846v11.795c0 1.582.549 2.705 1.436 3.255l-.01.015 3.687 2.089 2.073-3.608 8.138-4.698c2.809-1.622 5.107-5.603 5.107-8.847v-9.516l2.029-3.532z" class="colorb2bfce svgShape"/><path fill="#41e1d4" d="m99.703 33.171-3.551-.833c-.146-.105-.87-.103-1.036-.175l-.263-.105-.473-.088c-.893-.363-.557-1.223-1.813-.496l-10.216 5.898c-2.809 1.621-5.107 5.602-5.107 8.846v11.795c0 1.582.549 2.705 1.436 3.255l-.01.015 3.687 2.089 2.073-3.608 8.138-4.698c2.809-1.622 5.107-5.603 5.107-8.847v-9.516l2.028-3.532z" class="color989fa8 svgShape"/><path fill="#768e8c" d="M77.438 44.519a8.149 8.149 0 0 0-.194 1.699v11.795c0 1.582.549 2.705 1.436 3.255l-.01.015 3.687 2.089 2.073-3.608 8.138-4.698a8.154 8.154 0 0 0 1.377-1.021l-16.507-9.526z" class="color76828e svgShape"/><path fill="#f3fffe" d="M85.861 39.407c-2.809 1.621-5.108 5.604-5.108 8.846V60.05c0 3.244 2.3 4.57 5.108 2.949l10.216-5.898c2.809-1.621 5.107-5.604 5.107-8.848V36.458c0-3.243-2.299-4.57-5.107-2.948l-10.216 5.897z" class="colorf3faff svgShape"/><path fill="#e5f9f7" d="M101.185 36.382c0-3.244-2.299-4.571-5.107-2.949L85.861 39.33c-2.809 1.622-5.107 5.603-5.107 8.847v11.795c0 3.244 2.299 4.571 5.107 2.949" class="colore5f0f9 svgShape"/><path fill="#cae0de" d="M83.593 63.901c-1.854 0-3.049-1.512-3.049-3.852V48.253c0-3.318 2.338-7.369 5.212-9.027l10.216-5.898c.828-.479 1.627-.721 2.374-.721 1.853 0 3.05 1.513 3.05 3.852v11.795c0 3.32-2.339 7.371-5.213 9.029l-10.216 5.898c-.829.478-1.627.72-2.374.72zm14.753-30.873c-.672 0-1.4.224-2.163.664l-10.216 5.896c-2.759 1.594-5.002 5.48-5.002 8.664V60.05c0 2.115 1.006 3.43 2.628 3.43.672 0 1.4-.223 2.163-.664l10.216-5.897c2.758-1.593 5.002-5.479 5.002-8.665V36.458c0-2.115-1.006-3.43-2.628-3.43z" class="colorcad5e0 svgShape"/></svg>