<svg xmlns="http://www.w3.org/2000/svg" enable-background="new 0 0 132 132" viewBox="0 0 132 132"><path fill="#1d4340" d="M25.1,120.7v2c0,1-0.6,1.9-1.9,2.6c-2.5,1.5-6.7,1.5-9.2,0c-1.3-0.7-1.9-1.7-1.9-2.7v-2
								c0-1,0.6-1.9,1.9-2.7c2.5-1.5,6.7-1.5,9.2,0C24.5,118.8,25.1,119.8,25.1,120.7z" class="color1d2943 svgShape"/><path fill="#1d4340" d="M25.1,120.7l0,2c0,1-0.6,1.9-1.9,2.7c-2.5,1.5-6.7,1.5-9.2,0c-1.3-0.7-1.9-1.7-1.9-2.7l0-2
								c0,1,0.6,1.9,1.9,2.7c2.6,1.5,6.7,1.5,9.2,0C24.5,122.7,25.1,121.7,25.1,120.7z" class="color1d2943 svgShape"/><path fill="#4c7572" d="M23.2,118.1c2.6,1.5,2.6,3.9,0,5.3c-2.5,1.5-6.7,1.5-9.2,0c-2.6-1.5-2.6-3.9,0-5.3
								C16.5,116.6,20.7,116.6,23.2,118.1z" class="color4c5c75 svgShape"/><path fill="#1d4340" d="M74.1,91.4v2c0,1-0.6,1.9-1.9,2.7c-2.5,1.5-6.7,1.5-9.2,0c-1.3-0.7-1.9-1.7-1.9-2.7v-2c0,0,0,0,0,0
								c0-1,0.6-2,1.9-2.7c2.5-1.5,6.7-1.5,9.2,0C73.4,89.5,74.1,90.4,74.1,91.4z" class="color1d2943 svgShape"/><path fill="#1d4340" d="M74.1,91.4l0,2c0,1-0.6,1.9-1.9,2.7c-2.5,1.5-6.7,1.5-9.2,0c-1.3-0.7-1.9-1.7-1.9-2.7l0-2
								c0,1,0.6,1.9,1.9,2.7c2.6,1.5,6.7,1.5,9.2,0C73.4,93.3,74.1,92.4,74.1,91.4z" class="color1d2943 svgShape"/><path fill="#4c7572" d="M72.1,88.7c2.6,1.5,2.6,3.9,0,5.3c-2.5,1.5-6.7,1.5-9.2,0c-2.6-1.5-2.6-3.9,0-5.3
								C65.5,87.3,69.6,87.3,72.1,88.7z" class="color4c5c75 svgShape"/><path fill="#defbf9" d="M22,120.6c0,0.5-0.3,1-1,1.4c-1.3,0.8-3.5,0.8-4.9,0c-0.7-0.4-1-0.9-1-1.4l0-86.8c0-0.5,0.3-1,1-1.4
								c1.3-0.8,3.5-0.8,4.9,0c0.7,0.4,1,0.9,1,1.4L22,120.6z" class="colordedffb svgShape"/><path fill="#defbf9" d="M21.9,33.8l0,86.8c0,0.5-0.3,1-1,1.4c-1.3,0.8-3.5,0.8-4.9,0c-0.7-0.4-1-0.9-1-1.4l0-86.8
								c0,0.5,0.3,1,1,1.4c1.4,0.8,3.5,0.8,4.9,0C21.6,34.8,21.9,34.3,21.9,33.8z" class="colordedffb svgShape"/><path fill="#f1fcfb" d="M20.9,32.4c1.4,0.8,1.4,2,0,2.8c-1.3,0.8-3.5,0.8-4.9,0c-1.3-0.8-1.3-2,0-2.8
								C17.4,31.6,19.6,31.6,20.9,32.4z" class="colorf3f1fc svgShape"/><path fill="#defbf9" d="M70.8,91.4c0,0.5-0.3,1-1,1.4c-1.3,0.8-3.5,0.8-4.9,0c-0.7-0.4-1-0.9-1-1.4l0-86.8c0-0.5,0.3-1,1-1.4
								c1.3-0.8,3.5-0.8,4.9,0c0.7,0.4,1,0.9,1,1.4L70.8,91.4z" class="colordedffb svgShape"/><path fill="#defbf9" d="M70.7,4.5l0,86.8c0,0.5-0.3,1-1,1.4c-1.3,0.8-3.5,0.8-4.9,0c-0.7-0.4-1-0.9-1-1.4l0-86.8
								c0,0.5,0.3,1,1,1.4c1.4,0.8,3.5,0.8,4.9,0C70.4,5.6,70.7,5,70.7,4.5z" class="colordedffb svgShape"/><path fill="#f1fcfb" d="M69.7,3.1c1.4,0.8,1.4,2,0,2.8c-1.3,0.8-3.5,0.8-4.9,0c-1.3-0.8-1.3-2,0-2.8C66.2,2.3,68.4,2.3,69.7,3.1
								z" class="colorf3f1fc svgShape"/><path fill="#5abfb7" d="M82.8,58.1c0,1.7-1.2,3.9-2.7,4.7l-68.8,39.6c-0.9,0.5-1.6,0.5-2.1,0.1c0,0,0.1,0.1,0.2,0.1l-3.3-1.9
				c-0.5-0.3-0.8-0.9-0.8-1.8L5,51.2c0-1.7,1.2-3.9,2.7-4.7L76.5,6.9c0.8-0.4,1.5-0.5,1.9-0.2l3.3,1.9c0.5,0.3,0.8,0.9,0.8,1.8
				L82.8,58.1z" class="colorbf7d5a svgShape"/><path fill="#5abfb7" d="M81.7,8.6c-0.5-0.3-1.2-0.2-2,0.2L11,48.4c-1.5,0.9-2.8,3-2.7,4.7l0.3,47.7c0,0.9,0.3,1.5,0.8,1.8
					l-3.3-1.9c-0.5-0.3-0.8-0.9-0.8-1.8L5,51.2c0-1.7,1.2-3.9,2.7-4.7L76.5,6.9c0.8-0.4,1.5-0.5,1.9-0.2L81.7,8.6z" class="colorbf7d5a svgShape"/><path fill="#60dbd1" d="M79.8,8.8c1.5-0.9,2.7-0.2,2.8,1.6l0.3,47.7c0,1.7-1.2,3.9-2.7,4.7l-68.8,39.6c-1.5,0.9-2.7,0.2-2.8-1.6
					L8.2,53.1c0-1.7,1.2-3.9,2.7-4.7L79.8,8.8z" class="colordba660 svgShape"/><path fill="#5abfb7" d="M80.7,58.1c0,1-0.8,2.4-1.7,2.9L13.4,98.8c-1.2,0.7-2.7-0.2-2.7-1.6l0-0.6l-0.3-43.5c0-1,0.8-2.4,1.7-2.9
					l65.3-37.6l0.3-0.2c1.2-0.7,2.7,0.2,2.7,1.6L80.7,58.1z" class="colorbf7d5a svgShape"/><path fill="#fff" d="M77.6,56.1c0,1-0.8,2.4-1.7,2.9L10.6,96.6l-0.3-43.5c0-1,0.8-2.4,1.7-2.9l65.3-37.6L77.6,56.1z" class="colorffffff svgShape"/><polygon fill="#c9e2e0" points="61 38.6 24.2 59.8 24.2 61.2 61 40" class="colorc9cee2 svgShape"/><polygon fill="#60dbd1" points="63.3 37.2 63.3 38.6 74.9 31.9 74.9 30.5" class="colordba660 svgShape"/><polygon fill="#6cfff3" points="44.9 55.7 44.9 57.1 74.9 39.8 74.9 38.4" class="colorffd06c svgShape"/><polygon fill="#c9e2e0" points="41.1 57.9 24.2 67.7 24.2 69.1 41.1 59.3" class="colorc9cee2 svgShape"/><polygon fill="#c9e2e0" points="24.2 79.5 24.2 80.9 74.9 51.7 74.9 50.3" class="colorc9cee2 svgShape"/><polygon fill="#c9e2e0" points="56.9 56.7 24.2 75.6 24.2 77 56.9 58.1" class="colorc9cee2 svgShape"/><polygon fill="#c9e2e0" points="59.7 55.1 59.7 56.5 74.9 47.7 74.9 46.3" class="colorc9cee2 svgShape"/><polygon fill="#c9e2e0" points="24.2 71.6 24.2 73 74.9 43.7 74.9 42.3" class="colorc9cee2 svgShape"/><polygon fill="#41e1d4" points="40.7 74 24.2 83.5 24.2 84.9 40.7 75.4" class="color57b3fe svgShape"/><polygon fill="#c9e2e0" points="42.6 72.9 42.6 74.3 74.9 55.6 74.9 54.2" class="colorc9cee2 svgShape"/><polygon fill="#c9e2e0" points="24.2 63.7 24.2 65.1 74.9 35.8 74.9 34.4" class="colorc9cee2 svgShape"/><polygon fill="#c9e2e0" points="24.2 55.8 24.2 57.2 74.9 27.9 74.9 26.5" class="colorc9cee2 svgShape"/><polygon fill="#5ae7dc" points="43.9 40.5 24.2 51.8 24.2 53.2 43.9 41.9" class="color78e75a svgShape"/><polygon fill="#c9e2e0" points="47.2 38.6 47.2 40 74.9 24 74.9 22.6" class="colorc9cee2 svgShape"/><polygon fill="#c9e2e0" points="62.7 25.7 24.2 47.9 24.2 49.3 62.7 27.1" class="colorc9cee2 svgShape"/><polygon fill="#41e1d4" points="65.9 23.8 65.9 25.2 74.9 20 74.9 18.6" class="color57b3fe svgShape"/><g class="color000000 svgShape"><path fill="#4c7572" d="M21.1,76.6c-0.2-1.1-1.2-1.6-2.6-0.7c-0.3-1.7-0.3-1.5-0.2-1.8c0.6-1.2,1.1-2,1.5-3.1
							c1.2-3.3-0.3-5.4-0.9-5.1c-0.6,0.4-1.9,3.1-1.6,6c0.1,1.4,0.4,0.7-0.6,2.3c-1.3,2-2.8,4.8-2.2,7.1c0.5,1.9,2.5,1.6,4.1,0.5
							c0.1-0.1,0.2-0.1,0.2-0.2c0.2,1.1,0.4,2,0.2,2.8c-0.3,1.5-1.8,2.3-2.2,2.2l0.1-0.1l0,0c0.6-0.4,1-1.3,0.9-1.9
							c-0.2-1.2-1.8-0.5-2.1,1c-0.8,3.6,4.6,1.3,3.9-2.9c-0.1-0.7-0.2-1.2-0.3-1.5C20.5,79.9,21.5,78.2,21.1,76.6z M19.3,80.5
							c0-0.1-0.4-2.6-0.5-3c0.1-0.1,0.2-0.1,0.3-0.1c0.5-0.2,0.9,0,1.1,0.4C20.5,78.7,20,79.8,19.3,80.5z M17.9,72.3
							c-0.1-0.8-0.1-0.9,0-1.6C18.6,66.1,21.4,67.1,17.9,72.3z M18,76.3c-0.1,0.1-1.1,1-1.5,2.5c-0.4,1.7,0.6,2.5,1.3,2.1
							c0.2-0.1,0.1-0.4-0.1-0.5c-1-0.2-0.5-1.8,0.5-2.6c0.2,1.1,0.3,2.1,0.5,3.2c-0.2,0.2-0.3,0.3-0.5,0.4v0c-1.5,0.9-3,1-2.9-0.9
							c0-1.9,1.3-4,2.4-5.6C17.8,75.1,18,76.2,18,76.3z" class="color4c5c75 svgShape"/><path fill="#51f4e7" d="M21.7,49.7c0,2.5,0,4.9,0,7.4c0,0.5,0,1-0.1,1.5c-0.3,0.9-0.9,1.8-1.6,2.2c-0.7,0.4-1.5,0.3-1.7-0.5
								c-0.2-0.7,0.1-1.8,0.6-2.6c0.4-0.6,1.3-1.4,2-1.2c0-1.5,0-2.9,0-4.4c-1.4,1.2-2.8,2.4-4.2,3.6c-0.2,0.2-0.3,0.3-0.3,0.6
								c0,1.8,0,3.6,0,5.4c0,0.5,0,1.1-0.2,1.7c-0.2,0.6-0.6,1.3-1,1.7c-1.2,1.1-2.3,0.7-2.3-0.7c0-1,0.7-2.4,1.8-3
								c0.4-0.2,0.7-0.3,1-0.2c0-2.2,0-4.5,0-6.7c0-0.4,0.1-0.5,0.3-0.7c1.6-1.4,3.3-2.9,4.9-4.3C21.5,49.1,21.7,49.1,21.7,49.7z" class="colorf45170 svgShape"/></g><g class="color000000 svgShape"><path fill="#51fff1" d="M106.3,10.2l0-3.6c0-0.5,0.1-1,0.2-1.4l-1.8,1c-0.1,0.4-0.2,0.9-0.2,1.4l0,2.5H106.3z" class="colorffd651 svgShape"/><path fill="#18d6c7" d="M104.6,10.3l0-2.5c0-0.5,0.1-1,0.2-1.4l-0.6-0.3c-0.1,0.4-0.2,0.9-0.2,1.4l0,2.8H104.6z" class="colord6b218 svgShape"/><path fill="#10ccbd" d="M105,6.5l1.8-1c0.2-0.7,0.6-1.3,1.2-1.6l-1.8,1C105.6,5.3,105.2,5.8,105,6.5z" class="colorcc104a svgShape"/><path fill="#32dfd1" d="M109.4,4.4c-1.4-0.8-2.8-1-3.8-0.4c-0.7,0.4-1.3,1.5-1.6,2.4l1,0.1c0.2-0.7,0.6-1.3,1.2-1.6
									c0.9-0.5,2-0.4,3.2,0.3c2.1,1.2,3.8,3.8,4.4,6.3l0.8,0.5C114,9,111.9,5.8,109.4,4.4z" class="colordf3260 svgShape"/><path fill="#f1fcfb" d="M113.5,15c0.6-0.4,1.2-0.4,1.6-0.2l0.9,0.5c-0.4-0.2-1-0.2-1.6,0.2c-2,1.1-3.1,4.6-1.6,5.4
										c-0.5-0.4-1.5-0.4-1.6-2C111.2,17.5,112.2,15.8,113.5,15z" class="colorf3f1fc svgShape"/><path fill="#5b716f" d="M114.4,15.5c-1.3,0.7-2.3,2.5-2.3,4c0,1.5,1,2,2.3,1.3c1.3-0.7,2.3-2.5,2.3-4
											C116.7,15.4,115.7,14.8,114.4,15.5z" class="color5b5e71 svgShape"/><path fill="#40ddd0" d="M114.4,15.5c0.6-0.4,1.2-0.4,1.6-0.2l1.1,0.7c-0.4-0.2-1-0.2-1.6,0.2c-2,1.1-3.1,4.6-1.6,5.4
										l-1.1-0.7C111.3,20.1,112.4,16.7,114.4,15.5z" class="colorddb040 svgShape"/><path fill="#51fff1" d="M115.5,16.2c-1.3,0.7-2.3,2.5-2.3,4c0,1.5,1,2,2.3,1.3c1.3-0.7,2.3-2.5,2.3-4
											C117.8,16.1,116.8,15.5,115.5,16.2z" class="colorffd651 svgShape"/><path fill="#4c7572" d="M115.4,17.2c0.4-0.2,0.7-0.2,0.9-0.1l0.4,0.3c-0.2-0.1-0.6-0.1-0.9,0.1c-1.1,0.7-1.8,2.7-0.9,3.2
										l-0.4-0.3C113.6,19.9,114.3,17.9,115.4,17.2z" class="color4c5c75 svgShape"/><path fill="#1d4340" d="M115.8,17.5c-0.7,0.4-1.3,1.5-1.3,2.3c0,0.8,0.6,1.2,1.3,0.8c0.7-0.4,1.3-1.5,1.3-2.3
											C117.2,17.4,116.6,17.1,115.8,17.5z" class="color1d2943 svgShape"/><polygon fill="#51fff1" points="114.6 16.9 116.4 15.9 116.4 12.5 114.6 13.6" class="colorffd651 svgShape"/><path fill="#51fff1" d="M114.6,13.6l1.8-1c0-0.5-0.1-1-0.2-1.6l-1.8,1C114.6,12.5,114.6,13,114.6,13.6z" class="colorffd651 svgShape"/><polygon fill="#18d6c7" points="114.5 12 116.3 11 115.7 10.6 113.9 11.6" class="colord6b218 svgShape"/><path fill="#48efe1" d="M113.9,11.6c0.1,0.5,0.2,1.1,0.2,1.6l0,3.4l0.6,0.3l0-3.4c0-0.5-0.1-1-0.2-1.6L113.9,11.6z" class="colorefc348 svgShape"/><g class="color000000 svgShape"><path fill="#32dfd1" d="M105.5,4C105.6,4,105.6,4,105.5,4c1.1-0.6,2.4-0.5,3.8,0.4c2.5,1.5,4.6,4.7,5.2,7.7l-0.8-0.5
									c-0.5-2.5-2.3-5.1-4.4-6.3c-1.2-0.7-2.4-0.8-3.2-0.3c-0.2,0.1-0.4,0.3-0.6,0.5V4z" class="colordf3260 svgShape"/></g><g class="color000000 svgShape"><path fill="#51f4e7" d="M105.6,4c1-0.6,2.4-0.4,3.8,0.4c0,0,0,0,0,0c2.5,1.5,4.6,4.7,5.2,7.7l1.8-1c-0.6-3-2.7-6.2-5.2-7.7
										c0,0,0,0,0,0c-1.4-0.8-2.8-1-3.8-0.4L105.6,4z" class="colorf45170 svgShape"/></g><g class="color000000 svgShape"><path fill="#f1fcfb" d="M113.5,15c0.6-0.4,1.2-0.4,1.6-0.2l0.9,0.5c-0.4-0.2-1-0.2-1.6,0.2c-2,1.1-3.1,4.6-1.6,5.4
										c-0.5-0.4-1.5-0.4-1.6-2C111.2,17.5,112.2,15.8,113.5,15z" class="colorf3f1fc svgShape"/><path fill="#5b716f" d="M114.4,15.5c-1.3,0.7-2.3,2.5-2.3,4c0,1.5,1,2,2.3,1.3c1.3-0.7,2.3-2.5,2.3-4
											C116.7,15.4,115.7,14.8,114.4,15.5z" class="color5b5e71 svgShape"/><path fill="#40ddd0" d="M114.4,15.5c0.6-0.4,1.2-0.4,1.6-0.2l1.1,0.7c-0.4-0.2-1-0.2-1.6,0.2c-2,1.1-3.1,4.6-1.6,5.4
										l-1.1-0.7C111.3,20.1,112.4,16.7,114.4,15.5z" class="colorddb040 svgShape"/><path fill="#51fff1" d="M115.5,16.2c-1.3,0.7-2.3,2.5-2.3,4c0,1.5,1,2,2.3,1.3c1.3-0.7,2.3-2.5,2.3-4
											C117.8,16.1,116.8,15.5,115.5,16.2z" class="colorffd651 svgShape"/><path fill="#4c7572" d="M115.4,17.2c0.4-0.2,0.7-0.2,0.9-0.1l0.4,0.3c-0.2-0.1-0.6-0.1-0.9,0.1c-1.1,0.7-1.8,2.7-0.9,3.2
										l-0.4-0.3C113.6,19.9,114.3,17.9,115.4,17.2z" class="color4c5c75 svgShape"/><path fill="#1d4340" d="M115.8,17.5c-0.7,0.4-1.3,1.5-1.3,2.3c0,0.8,0.6,1.2,1.3,0.8c0.7-0.4,1.3-1.5,1.3-2.3
											C117.2,17.4,116.6,17.1,115.8,17.5z" class="color1d2943 svgShape"/><polygon fill="#51fff1" points="114.6 16.9 116.4 15.9 116.4 12.5 114.6 13.6" class="colorffd651 svgShape"/><path fill="#51fff1" d="M114.6,13.6l1.8-1c0-0.5-0.1-1-0.2-1.6l-1.8,1C114.6,12.5,114.6,13,114.6,13.6z" class="colorffd651 svgShape"/><polygon fill="#18d6c7" points="114.5 12 116.3 11 115.7 10.6 113.9 11.6" class="colord6b218 svgShape"/><path fill="#48efe1" d="M113.9,11.6c0.1,0.5,0.2,1.1,0.2,1.6l0,3.4l0.6,0.3l0-3.4c0-0.5-0.1-1-0.2-1.6L113.9,11.6z" class="colorefc348 svgShape"/><g class="color000000 svgShape"><path fill="#51f4e7" d="M111.2,3.3C111.2,3.3,111.2,3.3,111.2,3.3c-1.4-0.8-2.8-1-3.8-0.4L107,3.1v0.5c0.7,0,1.5,0.3,2.3,0.7
										c0,0,0,0,0,0c2.5,1.5,4.6,4.7,5.2,7.7l1.8-1C115.8,8.1,113.7,4.8,111.2,3.3z" class="colorf45170 svgShape"/></g></g></g><g class="color000000 svgShape"><path fill="#c6f5f1" d="M86,42.6l-0.7-0.7l0.4-0.4l-1.9,0.7c-0.4,0.1-0.8,0.2-1.1,0.1c-1-0.3-3.1-0.8-3.6-0.2
											c-0.9,1,1.3,1.5,1.3,1.5s-5.4,0.6-5.4,2.1c0,1.5,3.7,0.5,3.7,0.5s-0.4,1.5,1.1,2.7c2.1,1.6,4.9-0.8,4.9-0.8l3.7-1.9
											L86.7,42L86,42.6z" class="colorf5c9c6 svgShape"/><path fill="#41e1d4" d="M88.3,40.7l-3.2,0.9c-1.4,0.2-1.6,2.6-1,4.3c0.3,1.1,1,1.9,1.8,1.8l2.5-0.6L88.3,40.7z" class="color57b3fe svgShape"/><path fill="#defbf9" d="M107.7,27l-7.3,17c-0.3,0.6-0.9,0.9-1.5,1l-12,2.8c-0.9,0.1-1.6-0.8-1.9-1.9c-0.6-1.8-0.4-4.4,1.1-4.6
								l9.7-3.3c0.2-0.1,0.5-0.3,0.6-0.7c2.7-7.9,3.5-13.6,9-14.4l0.1,0l0.1,0l0.2,0C105.8,23.1,107.8,27.3,107.7,27z" class="colordedffb svgShape"/><path fill="#e7fcfa" d="M106.3,24.2l-6.8,17.1c-0.3,0.6-0.9,1-1.5,1L85,45.9c-0.6-1.8-0.4-4.4,1.1-4.6l9.7-3.3
								c0.2-0.1,0.5-0.3,0.6-0.7c2.7-7.9,3.5-13.6,9-14.4l0.1,0l0.1,0l0.2,0L106.3,24.2z" class="colore9e7fc svgShape"/><path fill="#e3f0ef" d="M119.8,119.4c0.5,0.6,0.9,0.5,1.6,0.2c3.4-1.5,3.5-6.6,5-10c0.3-0.7,0.7-1.4,0.6-2.2
											c-0.1-0.6-0.5-1.1-1-1.5c-0.4-0.3-0.9-0.6-1.3-0.8c-0.6-0.3-1.2-0.7-1.9-0.8c-1.1-0.1-2.5,0.7-3.3,1.4
											c-1.6,1.4-0.6,2.3-0.3,3.4c0.3,1-0.1,2-0.1,3c0,0,0,0,0,0c-0.2,0.9-0.5,5,0,6.2C119.3,118.7,119.6,119.1,119.8,119.4z" class="colore3e7f0 svgShape"/><path fill="#c9e2e0" d="M119.9,119.4c0.5,0.6,0.9,0.5,1.6,0.2c0.6-0.3,1.2-0.7,1.6-1.3c1.8-2.2,2.1-6,3.3-8.8
											c0.3-0.7,0.7-1.4,0.6-2.2c-0.1-0.6-0.5-1.1-1-1.5c-0.3-0.3-0.7-0.5-1.1-0.7c1.1,2.7,0.6,5.5-0.2,8.4
											c-0.3,0.9-0.6,1.8-1,2.6c-1.5,2.4-3.1,1.8-4.4,2.4C119.4,118.9,119.6,119.2,119.9,119.4z" class="colorc9cee2 svgShape"/><path fill="#d4f4f1" d="M114.9,104.1c4.1,4.4,4,4.8,4.7,4.7c2-0.4,3.4-1.6,4-3.6c0.1-0.2,0-0.5-0.1-0.6l-4-4.5L114.9,104.1z" class="colorf4d6d4 svgShape"/><path fill="#4c7572" d="M107.2,80.2c-0.5-0.6-0.5-1.5-0.2-2.2l8.6-17.8v-0.9c-0.1,0-13.1-3.2-13.2-3.2l-3.9,21.3
									c-0.4,2.4,0.1,4.8,1.5,6.7l17.8,24.1c1.5,1.2,6.2-4.9,4.7-6.1L107.2,80.2z" class="color4c5c75 svgShape"/><path fill="#456865" d="M107.2,80.2c-0.5-0.6-0.5-1.5-0.2-2.2l8.6-17.8v-0.9l-9.3-2.3l-3.5,19.2c-0.4,2.4,0.1,4.8,1.5,6.7
									l17.1,23.2c1.1-1.5,1.9-3.3,1.2-3.8L107.2,80.2z" class="color455368 svgShape"/><path fill="#60dbd1" d="M102.5,128.1c0,0.8,0.4,1,1,1.2c3.4,1,6.7-2.6,10-4.2c0.7-0.3,1.4-0.6,1.8-1.2c0.6-1,0.1-2.2-0.3-3.2
											c-0.3-0.6-0.4-1.3-0.9-1.8c-0.9-1-4-1.5-4.9-0.5c-0.8,0.9,0,1.6-1.8,3.1c-0.1,0.1-0.3,0.2-0.4,0.4
											c-0.2,0.1-0.3,0.3-0.5,0.4c0,0,0,0,0,0c-0.7,0.6-3.5,3.3-3.9,4.5C102.5,127.2,102.5,127.7,102.5,128.1z" class="colordba660 svgShape"/><path fill="#5abfb7" d="M102.5,128.1c0,0.8,0.4,1,1,1.2c3.4,1,6.7-2.6,10-4.2c0.7-0.3,1.4-0.6,1.8-1.2
											c0.6-0.9,0.2-2-0.2-2.9c-0.9,2.7-3,4.4-5.4,6c-4.5,2.9-5.5,0.7-7.1,0.2C102.5,127.4,102.5,127.8,102.5,128.1z" class="colorbf7d5a svgShape"/><path fill="#d4f4f1" d="M109.2,114.6c0.2,6-0.1,6.3,0.5,6.6c1.8,1,3.6,1,5.4-0.1c0.2-0.1,0.3-0.4,0.3-0.6l-0.1-6L109.2,114.6z
										" class="colorf4d6d4 svgShape"/><path fill="#4c7572" d="M122.4,66.2h-6.8v-4.6l-4.2-0.2l-2.8,22.1c-0.1,0.5-0.1,1,0,1.6l0.7,5.2c0.6,4.8,0.7,9.6,0.4,14.4
									l-1.1,14.9c0.1,1.5,7.5,1.1,7.5-0.3c2.5-11.5,3.2-22.8,1.7-33.1C117.4,84.1,117.9,84.3,122.4,66.2z" class="color4c5c75 svgShape"/><path fill="#456865" d="M122.4,66.2h-6.7c-2.5,20.3-2.6,19.4-2.4,20.8l0.7,5.2c1.3,10.7-0.1,17.3-0.7,28.3
									c1.5-0.2,2.8-0.6,2.8-1.2c2.5-11.5,3.2-22.8,1.7-33.1C117.4,84.1,117.9,84.3,122.4,66.2z" class="color455368 svgShape"/><polygon fill="#456865" points="112.7 61.3 115.1 61.9 112.7 66.7" class="color455368 svgShape"/><path fill="#3c5b58" d="M114.9,91.3l7.8,11.1c0.7,0.6,0,2.3-1.2,3.8l-6.6-9V91.3z" class="color3c4a5b svgShape"/><path fill="#e3f0ef" d="M102.5,128.1c0,0.8,0.4,1,1,1.2c3.4,1,6.7-2.6,10-4.2c0.7-0.3,1.4-0.6,1.8-1.2c0.6-1,0.1-2.2-0.3-3.2
											c-0.3-0.6-0.4-1.3-0.9-1.8c-0.9-1-4-1.5-4.9-0.5c-0.8,0.9,0,1.6-1.8,3.1c-0.1,0.1-0.3,0.2-0.4,0.4
											c-0.2,0.1-0.3,0.3-0.5,0.4c0,0,0,0,0,0c-0.7,0.6-3.5,3.3-3.9,4.5C102.5,127.2,102.5,127.7,102.5,128.1z" class="colore3e7f0 svgShape"/><path fill="#c9e2e0" d="M102.5,128.1c0,0.8,0.4,1,1,1.2c3.4,1,6.7-2.6,10-4.2c0.7-0.3,1.4-0.6,1.8-1.2c0.6-0.9,0.2-2-0.2-2.9
											c-0.9,2.7-3,4.4-5.4,6c-4.5,2.9-5.5,0.7-7.1,0.2C102.5,127.4,102.5,127.8,102.5,128.1z" class="colorc9cee2 svgShape"/><path fill="#d4f4f1" d="M109.2,114.6c0.2,6-0.1,6.3,0.5,6.6c1.8,1,3.6,1,5.4-0.1c0.2-0.1,0.3-0.4,0.3-0.6l-0.1-6L109.2,114.6z
										" class="colorf4d6d4 svgShape"/><path fill="#4c7572" d="M122.4,66.2h-6.8v-4.6l-4.2-0.2l-2.8,22.1c-0.1,0.5-0.1,1,0,1.6l0.7,5.2c0.6,4.8,0.7,9.6,0.4,14.4
									l-1.1,14.9c0.1,1.5,7.5,1.1,7.5-0.3c2.5-11.5,3.2-22.8,1.7-33.1C117.4,84.1,117.9,84.3,122.4,66.2z" class="color4c5c75 svgShape"/><path fill="#456865" d="M122.4,66.2h-6.7c-2.5,20.3-2.6,19.4-2.4,20.8l0.7,5.2c1.3,10.7-0.1,17.3-0.7,28.3
									c1.5-0.2,2.8-0.6,2.8-1.2c2.5-11.5,3.2-22.8,1.7-33.1C117.4,84.1,117.9,84.3,122.4,66.2z" class="color455368 svgShape"/><g class="color000000 svgShape"><path fill="#f1fcfb" d="M121.7,30c-4.3-3.9-10.1-6.8-17.2-6.9c-1.1,0.8-1.4,2.2-1.7,3.9c-0.1,0.5-0.3,0.9-0.5,1.3
										c-2.1,3.2-3.1,6.2-1,8.8c0.5,0.6,0.8,1.4,0.8,2.2c-0.1,6.4,0.3,8.1-0.9,12.6c-0.9,3.6-2.2,11.1-2,17c0,0.6,0.3,1.1,0.7,1.5
										c5.9,5.6,13.8,4.4,20.3,3.8c0.5,0,1-0.4,1.2-0.8c2.6-4.8,2.4-11-0.8-16.2c-2.7-4.5-2.8-4.4-2.9-5.4
										c-0.4-3.1-1.3-6.3,0.7-9.2C119,41.7,118.6,42.3,121.7,30z" class="colorf3f1fc svgShape"/><path fill="#c6f5f1" d="M105.5,23.3v-2.4l7.3-0.3l2.1,4.8c0.3,3-4.3,5.3-7.2,3.8c-1.2-0.6,0.4-1.4-1.6-5.7
										C105.9,23.4,105.7,23.4,105.5,23.3z" class="colorf5c9c6 svgShape"/><path fill="#e7fcfa" d="M101.3,37.1c0,0,5.3,4.4,8.6,3.7C107,42.6,102.6,40.2,101.3,37.1z" class="colore9e7fc svgShape"/></g><g class="color000000 svgShape"><polygon fill="#3c5b58" points="107.5 87.3 108.2 95.3 109.8 97.5 109.2 89.6" class="color3c4a5b svgShape"/></g><g class="color000000 svgShape"><path fill="#c6f5f1" d="M105.7,52.2c-0.6,0-1.9,0-2,0c0,0-0.2,0-0.5-0.1c-0.3-0.3-1.7-1.4-0.9-1.8
									C103.3,49.7,105.7,52.2,105.7,52.2L105.7,52.2z" class="colorf5c9c6 svgShape"/><path fill="#c6f5f1" d="M106.3,56.1c0,0.3-3.8,2-6.7,1c-2.8-1-1.5-5.7,0.5-5.5c1.1,0,2.5,0.2,3,0.4c0.3,0.1,0.4,0.1,0.5,0.1
							c0.1,0,1.4,0,2,0c0.2,0,0.3,0,0.3,0C107.1,53.4,107.2,54.7,106.3,56.1z" class="colorf5c9c6 svgShape"/><path fill="#41e1d4" d="M105.2,51.9c0.9-0.1,1.8-0.3,2.7-0.4l-0.8,4.7l-1.3,0C104.9,56.4,104.3,52.1,105.2,51.9z" class="color57b3fe svgShape"/><path fill="#e7fcfa" d="M106.6,56.3l14.7-0.4c2.7-0.3,3.6-1.7,3.9-4.2c0.6-6.5,0.1-14.4-1.1-18.9c-0.5-1.7-1.9-2.8-3.5-3.1
							c-0.1,0-0.2,0-0.3,0c-0.7-0.1-1.5,0-2.2,0.4c-1.8,0.8-2.8,2.7-2.5,4.6c0.8,5.2,1.7,12.1,3.1,15.8c-4.3,0.1-8.6,0.5-12.8,1.2
							C104.9,51.8,105.6,56.4,106.6,56.3z" class="colore9e7fc svgShape"/><path fill="#defbf9" d="M105.5,54.4c0.2,1,0.6,2,1.1,1.9l14.7-0.4c2.7-0.3,3.6-1.7,3.9-4.2c0.6-6.5,0.1-14.4-1.1-18.9
							c-0.5-1.7-1.9-2.8-3.5-3.1c-0.1,0-0.2,0-0.3,0l1.8,21.2c0.1,0.9-0.6,1.7-1.5,1.8L105.5,54.4z" class="colordedffb svgShape"/></g><g class="color000000 svgShape"><path fill="#1d4340" d="M118.1,9.7c0,0,4.1,1.3,2.6,6.2c-1.1,4.1-1,9.5,0.2,11.3c0.1,0.1,0,0.2-0.2,0.2c-1.6-0.4-2.9-1.6-3.9-3.6
						c-0.1-0.2-0.2-0.5-0.2-0.7l-0.3-7.2L118.1,9.7z" class="color1d2943 svgShape"/><path fill="#d4f4f1" d="M118,13.5c0,0-6.5-4.3-6.6-4.3s-6.1-0.7-6.1-0.7l-3.3,1c-0.4,0.1-1,13.5,2.8,16.8
						c3.7,3.2,11.6-4.7,12.7-7.8C117.8,17.5,117.9,15.5,118,13.5z" class="colorf4d6d4 svgShape"/><path fill="#4c7572" d="M117.4,18.4c0,0,0.9-2.4-0.7-2.4c-0.5,0-0.9,0.2-1.3,0.5c-0.4,0.4-1.1,0.9-1.5,1.4
						c-0.2,0.3-0.6,0.2-0.8-0.1c-0.6-0.8-1-1.7-1.1-2.7c-0.2-2-1.1-3-2.5-3.3c-0.6-0.1-1.2-0.1-1.8,0.1c-3,0.9-5.5,1.1-6.1-0.7
						c-0.2-0.6-0.1-1.3,0.1-2c1-2.5,3.1-4,5.5-4.7c1.2-0.3,2.4-0.4,3.6-0.4c3.9,0.3,6.5,1.9,7.4,5.1
						C118.8,12.7,118.6,15.7,117.4,18.4z" class="color4c5c75 svgShape"/></g></g><g class="color000000 svgShape"><path fill="#f1fcfb" d="M113.5,15c0.6-0.4,1.2-0.4,1.6-0.2l0.9,0.5c-0.4-0.2-1-0.2-1.6,0.2c-2,1.1-3.1,4.6-1.6,5.4
							c-0.5-0.4-1.5-0.4-1.6-2C111.2,17.5,112.2,15.8,113.5,15z" class="colorf3f1fc svgShape"/><path fill="#5b716f" d="M114.4,15.5c-1.3,0.7-2.3,2.5-2.3,4c0,1.5,1,2,2.3,1.3c1.3-0.7,2.3-2.5,2.3-4
								C116.7,15.4,115.7,14.8,114.4,15.5z" class="color5b5e71 svgShape"/><polygon fill="#18d6c7" points="114.5 12 116.3 11 115.7 10.6 113.9 11.6" class="colord6b218 svgShape"/><path fill="#40ddd0" d="M117.8,17.5c0,2.6-3,5.4-4.2,3.9c0.1,0.1,0.2,0.2,0.3,0.3c-0.7-0.6-1.8-0.6-1.8-2.1
								c0-1.3,0.9-2.9,2-3.8l0-2.5c0-0.5-0.1-1.1-0.2-1.6l0.6,0.3l1.8-1c0.1,0.5,0.2,1.1,0.2,1.6l0,3.1l0.7,0.4c0,0,0,0,0.1,0
								C117.5,16.3,117.8,16.8,117.8,17.5z" class="colorddb040 svgShape"/><path fill="#40ddd0" d="M114.4,15.5c0.6-0.4,1.2-0.4,1.6-0.2l1.1,0.7c-0.4-0.2-1-0.2-1.6,0.2c-2,1.1-3.1,4.6-1.6,5.4l-1.1-0.7
								C111.3,20.1,112.4,16.7,114.4,15.5z" class="colorddb040 svgShape"/><path fill="#51fff1" d="M117.8,17.5c0,1.5-1,3.2-2.3,4c-2.5,1.4-3.2-2.1-0.9-4.6l0-3.4c0-0.5,0-1-0.1-1.6l1.8-1
									c0.1,0.5,0.2,1.1,0.2,1.6l0,3.4C117.2,15.8,117.8,16.4,117.8,17.5z" class="colorffd651 svgShape"/><path fill="#48efe1" d="M113.9,11.6c0.1,0.5,0.2,1.1,0.2,1.6l0,3.4l0.6,0.3l0-3.4c0-0.5-0.1-1-0.2-1.6L113.9,11.6z" class="colorefc348 svgShape"/><g class="color000000 svgShape"><path fill="#51f4e7" d="M111.2,3.3C111.2,3.3,111.2,3.3,111.2,3.3c-1.4-0.8-2.8-1-3.8-0.4l-0.2,0.1c-0.2,0.2-0.2,0.4,0,0.6
							c0.7,0,1.4,0.3,2.2,0.7c0,0,0,0,0,0c2.5,1.5,4.6,4.7,5.2,7.7l1.8-1C115.8,8.1,113.7,4.8,111.2,3.3z" class="colorf45170 svgShape"/></g></g><g class="color000000 svgShape"><path fill="#32dfd1" d="M109.4,4.4c-0.8-0.5-1.6-0.7-2.3-0.7v1c0.7-0.1,1.5,0.1,2.3,0.6c2.1,1.2,3.8,3.8,4.4,6.3l0.8,0.5
							C114,9,111.9,5.8,109.4,4.4z" class="colordf3260 svgShape"/></g><g class="color000000 svgShape"><path fill="#1d4340" d="M117.2,18.3c0,0.8-0.6,1.9-1.3,2.3c-0.8,0.4-1.1-0.1-1.4-0.2c-0.8-0.5-0.2-2.5,0.9-3.2
						c0.4-0.2,0.7-0.2,1-0.1l0.4,0.2c0,0,0,0,0,0C117,17.5,117.2,17.8,117.2,18.3z" class="color1d2943 svgShape"/></g><g class="color000000 svgShape"><path fill="#4c7572" d="M115.4,17.2c0.4-0.2,0.7-0.2,0.9-0.1l0.4,0.3c-0.2-0.1-0.6-0.1-0.9,0.1c-1.1,0.7-1.8,2.7-0.9,3.2l-0.4-0.3
					C113.6,19.9,114.3,17.9,115.4,17.2z" class="color4c5c75 svgShape"/><path fill="#1d4340" d="M115.8,17.5c-0.7,0.4-1.3,1.5-1.3,2.3c0,0.8,0.6,1.2,1.3,0.8c0.7-0.4,1.3-1.5,1.3-2.3
						C117.2,17.4,116.6,17.1,115.8,17.5z" class="color1d2943 svgShape"/></g></svg>