<svg xmlns="http://www.w3.org/2000/svg" enable-background="new 0 0 132 132" viewBox="0 0 132 132"><path fill="#c9e2e0" d="M68.6,65.5c0,0.5-0.3,1.1-0.8,1.4L43,81.2c-0.2,0.1-0.4,0.1-0.6,0l-4.5-2.6c-0.1-0.1-0.2-0.3-0.2-0.5
									c0-0.5,0.4-1.1,0.8-1.4l24.9-14.4c0.2-0.1,0.4-0.1,0.6,0l4.4,2.6c0,0-0.1,0-0.1,0C68.5,64.9,68.6,65.1,68.6,65.5z" class="colorc9cee2 svgShape"/><path fill="#e3f0ef" d="M68.3,64.9c-0.1,0-0.3,0-0.5,0.1L43,79.4c-0.4,0.2-0.8,0.9-0.8,1.4c0,0.2,0.1,0.4,0.2,0.5l-4.5-2.6
									c-0.1-0.1-0.2-0.3-0.2-0.5c0-0.5,0.4-1.1,0.8-1.4l24.9-14.4c0.2-0.1,0.4-0.1,0.6-0.1L68.3,64.9z" class="colore3e7f0 svgShape"/><path fill="#c9e2e0" d="M67.9,65c0.4-0.3,0.8-0.1,0.8,0.5c0,0.5-0.4,1.1-0.8,1.4L43,81.2c-0.4,0.3-0.8,0.1-0.8-0.5
									c0-0.5,0.4-1.1,0.8-1.4L67.9,65z" class="colorc9cee2 svgShape"/><polygon fill="#1d4340" points="56.1 62.2 56.1 70.6 51.2 73.4 49.4 72.4 49.4 64 51.2 65" class="color1d2943 svgShape"/><polygon fill="#4c7572" points="51.2 65.1 56.1 62.2 56.1 70.6 51.2 73.4" class="color4c5c75 svgShape"/><polygon fill="#1d4340" points="51.2 65.1 51.2 73.4 49.4 72.4 49.4 64" class="color1d2943 svgShape"/><path fill="#4c7572" d="M81.9,3.8c-0.4-0.2-0.6,0.3-1.2,0.7L25.8,36.9c-1.2,0.7-2,1.9-2,3.3l-0.1,40.4c0,0.7-0.3,1.1,0,1.4
					l-2.9-1.7c-0.4-0.2-0.6-0.7-0.6-1.4l-0.1-41c0-1.4,1-3,2.2-3.7L77.5,2.3c0.6-0.3,1.1-0.4,1.5-0.2L81.9,3.8z" class="color4c5c75 svgShape"/><path fill="#e3f0ef" d="M80.4,3.9c1.2-0.7,2.2-0.1,2.2,1.2l0.1,41c0,1.4-1,3-2.2,3.7L25.3,81.8c-1.2,0.7-2.2,0.1-2.2-1.2l-0.1-41
					c0-1.4,1-3,2.2-3.7L80.4,3.9z" class="colore3e7f0 svgShape"/><path fill="#fff" d="M24.6,39.5c0-0.8,0.7-1.9,1.3-2.3L78.4,7c1.1-0.6,2.5,0.2,2.5,1.5L81,46.2c0,0.8-0.7,1.9-1.3,2.3
					L27.3,78.8c-1.1,0.6-2.5-0.2-2.5-1.5L24.6,39.5z" class="colorffffff svgShape"/><path fill="#6cfff3" d="M80.9,8.4c0-1.3-1.4-2.1-2.5-1.5l-11.3,6.5v42.3l12.6-7.3c0.7-0.4,1.4-1.5,1.3-2.3L80.9,8.4z" class="colorffd06c svgShape"/><polygon fill="#41e1d4" points="26.5 41.3 26.5 45.2 26.2 45.4 26.2 41.6" class="color57b3fe svgShape" opacity=".8"/><polygon fill="#41e1d4" points="27.2 39.9 27.3 45.8 26.9 46.1 26.9 40.1" class="color57b3fe svgShape" opacity=".8"/><polygon fill="#41e1d4" points="27.9 38.2 28 46.7 27.6 46.9 27.6 38.5" class="color57b3fe svgShape" opacity=".8"/><polygon fill="#41e1d4" points="28.6 39 28.7 45.1 28.3 45.3 28.3 39.2" class="color57b3fe svgShape" opacity=".8"/><polygon fill="#41e1d4" points="29.3 39.7 29.4 43.6 29 43.8 29 39.9" class="color57b3fe svgShape" opacity=".8"/><polygon fill="#41e1d4" points="30.1 40 30.1 42.4 29.7 42.6 29.7 40.2" class="color57b3fe svgShape" opacity=".8"/><polygon fill="#41e1d4" points="30.8 38.5 30.8 43.1 30.4 43.4 30.4 38.7" class="color57b3fe svgShape" opacity=".8"/><polygon fill="#41e1d4" points="31.5 38.9 31.5 41.9 31.1 42.1 31.1 39.1" class="color57b3fe svgShape" opacity=".8"/><polygon fill="#41e1d4" points="32.2 39.3 32.2 40.7 31.8 40.9 31.8 39.5" class="color57b3fe svgShape" opacity=".8"/><polygon fill="#41e1d4" points="32.9 38.5 32.9 40.7 32.5 40.9 32.5 38.8" class="color57b3fe svgShape" opacity=".8"/><polygon fill="#41e1d4" points="33.6 35.3 33.6 43.1 33.2 43.3 33.2 35.5" class="color57b3fe svgShape" opacity=".8"/><polygon fill="#41e1d4" points="34.3 36.5 34.3 41 33.9 41.3 33.9 36.8" class="color57b3fe svgShape" opacity=".8"/><polygon fill="#41e1d4" points="35 37.1 35 39.6 34.6 39.8 34.6 37.3" class="color57b3fe svgShape" opacity=".8"/><polygon fill="#41e1d4" points="35.7 36.3 35.7 39.6 35.4 39.8 35.4 36.5" class="color57b3fe svgShape" opacity=".8"/><polygon fill="#41e1d4" points="36.3 36.1 36.3 39.2 36 39.4 36 36.3" class="color57b3fe svgShape" opacity=".8"/><polygon fill="#41e1d4" points="37.1 34.1 37.1 40.2 36.7 40.4 36.7 34.4" class="color57b3fe svgShape" opacity=".8"/><polygon fill="#41e1d4" points="37.8 35 37.8 38.6 37.4 38.8 37.4 35.2" class="color57b3fe svgShape" opacity=".8"/><polygon fill="#41e1d4" points="38.5 32.4 38.5 40.3 38.1 40.5 38.1 32.6" class="color57b3fe svgShape" opacity=".8"/><polygon fill="#41e1d4" points="39.2 33.4 39.2 38.5 38.8 38.7 38.8 33.6" class="color57b3fe svgShape" opacity=".8"/><polygon fill="#41e1d4" points="39.9 34 39.9 37.2 39.5 37.4 39.5 34.2" class="color57b3fe svgShape" opacity=".8"/><polygon fill="#41e1d4" points="40.6 32.1 40.6 38.2 40.2 38.5 40.2 32.3" class="color57b3fe svgShape" opacity=".8"/><polygon fill="#41e1d4" points="41.3 34 41.3 35.4 40.9 35.7 40.9 34.3" class="color57b3fe svgShape" opacity=".8"/><polygon fill="#41e1d4" points="42 33.1 42 35.6 41.6 35.8 41.6 33.3" class="color57b3fe svgShape" opacity=".8"/><polygon fill="#41e1d4" points="42.7 33.2 42.7 34.6 42.3 34.8 42.3 33.4" class="color57b3fe svgShape" opacity=".8"/><polygon fill="#41e1d4" points="43.4 30.3 43.4 36.7 43 36.9 43 30.6" class="color57b3fe svgShape" opacity=".8"/><polygon fill="#41e1d4" points="44.1 30.9 44.1 35.4 43.7 35.6 43.7 31.1" class="color57b3fe svgShape" opacity=".8"/><polygon fill="#41e1d4" points="44.8 31.6 44.8 33.9 44.4 34.1 44.4 31.8" class="color57b3fe svgShape" opacity=".8"/><polygon fill="#41e1d4" points="45.5 31.6 45.5 33.1 45.1 33.3 45.1 31.8" class="color57b3fe svgShape" opacity=".8"/><polygon fill="#41e1d4" points="46.2 31.2 46.2 32.6 45.8 32.8 45.8 31.4" class="color57b3fe svgShape" opacity=".8"/><polygon fill="#41e1d4" points="46.9 28.7 46.9 34.3 46.5 34.5 46.5 28.9" class="color57b3fe svgShape" opacity=".8"/><polygon fill="#41e1d4" points="47.6 27.2 47.6 35.1 47.2 35.3 47.2 27.4" class="color57b3fe svgShape" opacity=".8"/><polygon fill="#41e1d4" points="48.3 28.6 48.3 32.8 47.9 33 47.9 28.8" class="color57b3fe svgShape" opacity=".8"/><polygon fill="#41e1d4" points="49 28.9 49 31.7 48.6 31.9 48.6 29.1" class="color57b3fe svgShape" opacity=".8"/><polygon fill="#41e1d4" points="49.7 29 49.7 30.7 49.3 31 49.3 29.2" class="color57b3fe svgShape" opacity=".8"/><polygon fill="#41e1d4" points="50.4 27.8 50.4 31.1 50 31.4 50 28" class="color57b3fe svgShape" opacity=".8"/><polygon fill="#41e1d4" points="51.1 28 51.1 30.1 50.7 30.4 50.7 28.2" class="color57b3fe svgShape" opacity=".8"/><polygon fill="#41e1d4" points="51.8 25.1 51.8 32.2 51.4 32.4 51.4 25.3" class="color57b3fe svgShape" opacity=".8"/><polygon fill="#41e1d4" points="52.5 26.3 52.5 30.2 52.1 30.5 52.1 26.5" class="color57b3fe svgShape" opacity=".8"/><polygon fill="#41e1d4" points="53.2 26.5 53.2 29.2 52.8 29.4 52.8 26.7" class="color57b3fe svgShape" opacity=".8"/><polygon fill="#41e1d4" points="53.9 26.7 53.9 28.2 53.5 28.4 53.5 26.9" class="color57b3fe svgShape" opacity=".8"/><polygon fill="#41e1d4" points="54.6 25.7 54.6 28.4 54.3 28.6 54.2 25.9" class="color57b3fe svgShape" opacity=".8"/><polygon fill="#41e1d4" points="55.3 25.8 55.3 27.5 55 27.7 55 26" class="color57b3fe svgShape" opacity=".8"/><polygon fill="#41e1d4" points="56 23.9 56 28.6 55.6 28.8 55.6 24.1" class="color57b3fe svgShape" opacity=".8"/><polygon fill="#41e1d4" points="56.7 22.6 56.7 29.1 56.3 29.3 56.3 22.8" class="color57b3fe svgShape" opacity=".8"/><polygon fill="#41e1d4" points="57.4 20.9 57.4 30 57 30.2 57 21.1" class="color57b3fe svgShape" opacity=".8"/><polygon fill="#41e1d4" points="58.1 21.9 58.1 28.1 57.7 28.3 57.7 22.2" class="color57b3fe svgShape" opacity=".8"/><polygon fill="#41e1d4" points="58.8 22.1 58.8 27.2 58.4 27.4 58.4 22.3" class="color57b3fe svgShape" opacity=".8"/><polygon fill="#41e1d4" points="59.5 22.6 59.5 25.8 59.1 26 59.1 22.8" class="color57b3fe svgShape" opacity=".8"/><polygon fill="#41e1d4" points="60.2 22.1 60.2 25.6 59.9 25.8 59.8 22.3" class="color57b3fe svgShape" opacity=".8"/><polygon fill="#41e1d4" points="60.9 22.3 60.9 24.5 60.6 24.7 60.5 22.5" class="color57b3fe svgShape" opacity=".8"/><polygon fill="#41e1d4" points="61.6 19.5 61.6 26.5 61.3 26.8 61.2 19.7" class="color57b3fe svgShape" opacity=".8"/><polygon fill="#41e1d4" points="62.3 20.6 62.3 24.6 62 24.8 62 20.8" class="color57b3fe svgShape" opacity=".8"/><polygon fill="#41e1d4" points="63 18.3 63 26.1 62.7 26.3 62.7 18.5" class="color57b3fe svgShape" opacity=".8"/><polygon fill="#41e1d4" points="63.7 20.6 63.7 23 63.4 23.2 63.4 20.8" class="color57b3fe svgShape" opacity=".8"/><polygon fill="#41e1d4" points="64.4 19.2 64.4 23.5 64.1 23.7 64.1 19.4" class="color57b3fe svgShape" opacity=".8"/><polygon fill="#41e1d4" points="65.1 20.2 65.1 21.7 64.8 21.9 64.8 20.4" class="color57b3fe svgShape" opacity=".8"/><g class="color000000 svgShape"><polygon fill="#5ae7dc" points="26.5 51.5 26.5 55.4 26.2 55.6 26.2 51.7" class="color78e75a svgShape" opacity=".8"/><polygon fill="#5ae7dc" points="27.2 50.1 27.3 56 26.9 56.2 26.9 50.3" class="color78e75a svgShape" opacity=".8"/><polygon fill="#5ae7dc" points="27.9 48.4 28 56.8 27.6 57.1 27.6 48.6" class="color78e75a svgShape" opacity=".8"/><polygon fill="#5ae7dc" points="28.6 49.1 28.7 55.3 28.3 55.5 28.3 49.4" class="color78e75a svgShape" opacity=".8"/><polygon fill="#5ae7dc" points="29.3 49.9 29.4 53.7 29 54 29 50.1" class="color78e75a svgShape" opacity=".8"/><polygon fill="#5ae7dc" points="30.1 50.2 30.1 52.6 29.7 52.8 29.7 50.4" class="color78e75a svgShape" opacity=".8"/><polygon fill="#5ae7dc" points="30.8 48.7 30.8 53.3 30.4 53.5 30.4 48.9" class="color78e75a svgShape" opacity=".8"/><polygon fill="#5ae7dc" points="31.5 49.1 31.5 52.1 31.1 52.3 31.1 49.3" class="color78e75a svgShape" opacity=".8"/><polygon fill="#5ae7dc" points="32.2 49.5 32.2 50.9 31.8 51.1 31.8 49.7" class="color78e75a svgShape" opacity=".8"/><polygon fill="#5ae7dc" points="32.9 48.7 32.9 50.8 32.5 51.1 32.5 48.9" class="color78e75a svgShape" opacity=".8"/><polygon fill="#5ae7dc" points="33.6 45.5 33.6 53.3 33.2 53.5 33.2 45.7" class="color78e75a svgShape" opacity=".8"/><polygon fill="#5ae7dc" points="34.3 46.7 34.3 51.2 33.9 51.4 33.9 46.9" class="color78e75a svgShape" opacity=".8"/><polygon fill="#5ae7dc" points="35 47.3 35 49.8 34.6 50 34.6 47.5" class="color78e75a svgShape" opacity=".8"/><polygon fill="#5ae7dc" points="35.7 46.5 35.7 49.8 35.4 50 35.4 46.7" class="color78e75a svgShape" opacity=".8"/><polygon fill="#5ae7dc" points="36.3 46.2 36.3 49.4 36 49.5 36 46.4" class="color78e75a svgShape" opacity=".8"/><polygon fill="#5ae7dc" points="37.1 44.3 37.1 50.4 36.7 50.6 36.7 44.5" class="color78e75a svgShape" opacity=".8"/><polygon fill="#5ae7dc" points="37.8 45.2 37.8 48.8 37.4 49 37.4 45.4" class="color78e75a svgShape" opacity=".8"/><polygon fill="#5ae7dc" points="38.5 42.6 38.5 50.5 38.1 50.7 38.1 42.8" class="color78e75a svgShape" opacity=".8"/><polygon fill="#5ae7dc" points="39.2 43.6 39.2 48.7 38.8 48.9 38.8 43.8" class="color78e75a svgShape" opacity=".8"/><polygon fill="#5ae7dc" points="39.9 44.2 39.9 47.3 39.5 47.6 39.5 44.4" class="color78e75a svgShape" opacity=".8"/><polygon fill="#5ae7dc" points="40.6 42.3 40.6 48.4 40.2 48.6 40.2 42.5" class="color78e75a svgShape" opacity=".8"/><polygon fill="#5ae7dc" points="41.3 44.2 41.3 45.6 40.9 45.8 40.9 44.4" class="color78e75a svgShape" opacity=".8"/><polygon fill="#5ae7dc" points="42 43.3 42 45.8 41.6 46 41.6 43.5" class="color78e75a svgShape" opacity=".8"/><polygon fill="#5ae7dc" points="42.7 43.4 42.7 44.8 42.3 45 42.3 43.6" class="color78e75a svgShape" opacity=".8"/><polygon fill="#5ae7dc" points="43.4 40.5 43.4 46.9 43 47.1 43 40.7" class="color78e75a svgShape" opacity=".8"/><polygon fill="#5ae7dc" points="44.1 41.1 44.1 45.6 43.7 45.8 43.7 41.3" class="color78e75a svgShape" opacity=".8"/><polygon fill="#5ae7dc" points="44.8 41.7 44.8 44.1 44.4 44.3 44.4 42" class="color78e75a svgShape" opacity=".8"/><polygon fill="#5ae7dc" points="45.5 41.7 45.5 43.3 45.1 43.5 45.1 42" class="color78e75a svgShape" opacity=".8"/><polygon fill="#5ae7dc" points="46.2 41.4 46.2 42.8 45.8 43 45.8 41.6" class="color78e75a svgShape" opacity=".8"/><polygon fill="#5ae7dc" points="46.9 38.9 46.9 44.5 46.5 44.7 46.5 39.1" class="color78e75a svgShape" opacity=".8"/><polygon fill="#5ae7dc" points="47.6 37.3 47.6 45.3 47.2 45.5 47.2 37.6" class="color78e75a svgShape" opacity=".8"/><polygon fill="#5ae7dc" points="48.3 38.8 48.3 43 47.9 43.2 47.9 39" class="color78e75a svgShape" opacity=".8"/><polygon fill="#5ae7dc" points="49 39.1 49 41.9 48.6 42.1 48.6 39.3" class="color78e75a svgShape" opacity=".8"/><polygon fill="#5ae7dc" points="49.7 39.2 49.7 40.9 49.3 41.1 49.3 39.4" class="color78e75a svgShape" opacity=".8"/><polygon fill="#5ae7dc" points="50.4 38 50.4 41.3 50 41.5 50 38.2" class="color78e75a svgShape" opacity=".8"/><polygon fill="#5ae7dc" points="51.1 38.2 51.1 40.3 50.7 40.5 50.7 38.4" class="color78e75a svgShape" opacity=".8"/><polygon fill="#5ae7dc" points="51.8 35.3 51.8 42.4 51.4 42.6 51.4 35.5" class="color78e75a svgShape" opacity=".8"/><polygon fill="#5ae7dc" points="52.5 36.5 52.5 40.4 52.1 40.6 52.1 36.7" class="color78e75a svgShape" opacity=".8"/><polygon fill="#5ae7dc" points="53.2 36.7 53.2 39.4 52.8 39.6 52.8 36.9" class="color78e75a svgShape" opacity=".8"/><polygon fill="#5ae7dc" points="53.9 36.9 53.9 38.4 53.5 38.6 53.5 37.1" class="color78e75a svgShape" opacity=".8"/><polygon fill="#5ae7dc" points="54.6 35.9 54.6 38.6 54.3 38.8 54.2 36.1" class="color78e75a svgShape" opacity=".8"/><polygon fill="#5ae7dc" points="55.3 36 55.3 37.7 55 37.9 55 36.2" class="color78e75a svgShape" opacity=".8"/><polygon fill="#5ae7dc" points="56 34.1 56 38.8 55.6 39 55.6 34.3" class="color78e75a svgShape" opacity=".8"/><polygon fill="#5ae7dc" points="56.7 32.8 56.7 39.3 56.3 39.5 56.3 33" class="color78e75a svgShape" opacity=".8"/><polygon fill="#5ae7dc" points="57.4 31.1 57.4 40.2 57 40.4 57 31.3" class="color78e75a svgShape" opacity=".8"/><polygon fill="#5ae7dc" points="58.1 32.1 58.1 38.3 57.7 38.5 57.7 32.3" class="color78e75a svgShape" opacity=".8"/><polygon fill="#5ae7dc" points="58.8 32.3 58.8 37.4 58.4 37.6 58.4 32.5" class="color78e75a svgShape" opacity=".8"/><polygon fill="#5ae7dc" points="59.5 32.8 59.5 36 59.1 36.2 59.1 33" class="color78e75a svgShape" opacity=".8"/><polygon fill="#5ae7dc" points="60.2 32.2 60.2 35.8 59.9 36 59.8 32.5" class="color78e75a svgShape" opacity=".8"/><polygon fill="#5ae7dc" points="60.9 32.5 60.9 34.7 60.6 34.9 60.5 32.7" class="color78e75a svgShape" opacity=".8"/><polygon fill="#5ae7dc" points="61.6 29.6 61.6 36.7 61.3 36.9 61.2 29.9" class="color78e75a svgShape" opacity=".8"/><polygon fill="#5ae7dc" points="62.3 30.8 62.3 34.8 62 35 62 31" class="color78e75a svgShape" opacity=".8"/><polygon fill="#5ae7dc" points="63 28.4 63 36.3 62.7 36.5 62.7 28.7" class="color78e75a svgShape" opacity=".8"/><polygon fill="#5ae7dc" points="63.7 30.7 63.7 33.2 63.4 33.4 63.4 30.9" class="color78e75a svgShape" opacity=".8"/><polygon fill="#5ae7dc" points="64.4 29.4 64.4 33.7 64.1 33.9 64.1 29.6" class="color78e75a svgShape" opacity=".8"/><polygon fill="#5ae7dc" points="65.1 30.4 65.1 31.9 64.8 32.1 64.8 30.6" class="color78e75a svgShape" opacity=".8"/></g><g class="color000000 svgShape"><polygon fill="#4c7572" points="79.7 34.6 68.5 41.1 68.5 44.1 79.7 37.6" class="color4c5c75 svgShape"/><polygon fill="#4c7572" points="79.7 26.1 68.4 32.6 68.4 35.6 79.7 29.1" class="color4c5c75 svgShape"/><polygon fill="#4c7572" points="79.7 9 68.4 15.6 68.4 18.6 79.7 12.1" class="color4c5c75 svgShape"/><polygon fill="#4c7572" points="79.7 21.8 68.4 28.3 68.4 31.4 79.7 24.9" class="color4c5c75 svgShape"/><polygon fill="#4c7572" points="79.7 17.5 68.4 24.1 68.4 27.1 79.7 20.6" class="color4c5c75 svgShape"/><polygon fill="#4c7572" points="79.7 13.3 68.4 19.8 68.4 22.9 79.7 16.4" class="color4c5c75 svgShape"/><path fill="#fff" d="M72.2 16.1l0-2.4-3.5 2 0 2.4L72.2 16.1M72.2 41.6l0-2.4-3.5 2 0 2.4L72.2 41.6" class="colorffffff svgShape"/><polygon fill="#fff" points="72.2 30.7 72.2 33.1 68.7 35.1 68.7 32.7" class="colorffffff svgShape"/><path fill="#fff" d="M72.2,33.1l0-2.4l-3.5,2l0,2.4L72.2,33.1" class="colorffffff svgShape"/><polygon fill="#fff" points="72.2 26.5 72.2 28.9 68.7 30.9 68.7 28.5" class="colorffffff svgShape"/><path fill="#fff" d="M72.2 28.9l0-2.4-3.5 2 0 2.4L72.2 28.9M72.2 24.6l0-2.4-3.5 2 0 2.4L72.2 24.6" class="colorffffff svgShape"/><polygon fill="#fff" points="72.2 22.2 72.2 24.6 68.7 26.6 68.7 24.2" class="colorffffff svgShape"/><polygon fill="#fff" points="72.2 18 72.2 20.4 68.7 22.4 68.7 20" class="colorffffff svgShape"/><path fill="#fff" d="M72.2,20.4l0-2.4l-3.5,2l0,2.4L72.2,20.4" class="colorffffff svgShape"/><polygon fill="#fff" points="72.2 39.2 72.2 41.6 68.8 43.6 68.8 41.2" class="colorffffff svgShape"/><polygon fill="#4c7572" points="79.7 30.3 68.5 36.8 68.5 39.9 79.7 33.4" class="color4c5c75 svgShape"/><path fill="#fff" d="M72.2,37.4l0-2.4l-3.5,2l0,2.4L72.2,37.4" class="colorffffff svgShape"/><polygon fill="#fff" points="72.2 35 72.2 37.4 68.8 39.4 68.8 37" class="colorffffff svgShape"/><g class="color000000 svgShape"><polygon fill="#56efe3" points="79.7 38.8 68.5 45.3 68.5 48.4 79.7 41.9" class="coloref7b56 svgShape"/><path fill="#fff" d="M72.2,45.9l0-2.4l-3.5,2l0,2.4L72.2,45.9" class="colorffffff svgShape"/><polygon fill="#fff" points="72.2 43.5 72.2 45.9 68.8 47.9 68.8 45.5" class="colorffffff svgShape"/></g><g class="color000000 svgShape"><polygon fill="#56efe3" points="79.7 43.1 68.5 49.6 68.5 52.6 79.7 46.2" class="coloref7b56 svgShape"/><path fill="#fff" d="M72.2,50.1l0-2.4l-3.5,2l0,2.4L72.2,50.1" class="colorffffff svgShape"/><polygon fill="#fff" points="72.2 47.7 72.2 50.1 68.8 52.1 68.8 49.7" class="colorffffff svgShape"/></g></g><g class="color000000 svgShape"><polygon fill="#51f4e7" points="60.9 40.7 60.9 42.8 58.9 43.9 58.9 41.8" class="colorf45170 svgShape"/><polygon fill="#51f4e7" points="60.9 46 60.9 48.1 58.9 49.2 58.9 47.1" class="colorf45170 svgShape"/><polygon fill="#51f4e7" points="60.9 43.4 60.9 45.4 58.9 46.5 58.9 44.5" class="colorf45170 svgShape"/><polygon fill="#51f4e7" points="60.9 48.7 60.9 50.7 59 51.9 58.9 49.8" class="colorf45170 svgShape"/><polygon fill="#51f4e7" points="56.7 51.1 56.7 53.2 54.7 54.3 54.7 52.3" class="colorf45170 svgShape"/><polygon fill="#51f4e7" points="56.7 48.5 56.7 50.5 54.7 51.7 54.7 49.6" class="colorf45170 svgShape"/><polygon fill="#51f4e7" points="52.4 53.6 52.4 55.6 50.5 56.8 50.5 54.7" class="colorf45170 svgShape"/><polygon fill="#51f4e7" points="52.4 50.9 52.4 53 50.5 54.1 50.5 52" class="colorf45170 svgShape"/><polygon fill="#51f4e7" points="52.4 48.3 52.4 50.3 50.5 51.4 50.5 49.4" class="colorf45170 svgShape"/><polygon fill="#51f4e7" points="52.4 45.6 52.4 47.7 50.5 48.8 50.4 46.7" class="colorf45170 svgShape"/><polygon fill="#51f4e7" points="48.2 53.4 48.2 55.4 46.2 56.5 46.2 54.5" class="colorf45170 svgShape"/><polygon fill="#51f4e7" points="48.2 56 48.2 58.1 46.2 59.2 46.2 57.2" class="colorf45170 svgShape"/><polygon fill="#51f4e7" points="43.9 53.1 43.9 55.2 42 56.3 42 54.3" class="colorf45170 svgShape"/><polygon fill="#51f4e7" points="43.9 50.5 43.9 52.6 42 53.7 42 51.6" class="colorf45170 svgShape"/><polygon fill="#51f4e7" points="43.9 55.8 43.9 57.9 42 59 42 56.9" class="colorf45170 svgShape"/><polygon fill="#51f4e7" points="43.9 58.5 43.9 60.5 42 61.7 42 59.6" class="colorf45170 svgShape"/><polygon fill="#51f4e7" points="39.7 60.9 39.7 63 37.8 64.1 37.7 62" class="colorf45170 svgShape"/><polygon fill="#51f4e7" points="39.7 58.3 39.7 60.3 37.7 61.4 37.7 59.4" class="colorf45170 svgShape"/><polygon fill="#51f4e7" points="35.4 58 35.4 60.1 33.5 61.2 33.5 59.2" class="colorf45170 svgShape"/><polygon fill="#51f4e7" points="35.4 55.4 35.4 57.5 33.5 58.6 33.5 56.5" class="colorf45170 svgShape"/><polygon fill="#51f4e7" points="35.5 63.4 35.5 65.4 33.5 66.6 33.5 64.5" class="colorf45170 svgShape"/><polygon fill="#51f4e7" points="35.4 60.7 35.5 62.8 33.5 63.9 33.5 61.8" class="colorf45170 svgShape"/></g><g class="color000000 svgShape"><polygon fill="#4c7572" points="44.3 66.1 43 65.8 43 66.9 41.5 66.5 43 64.4 43 65.5 44.3 63.7" class="color4c5c75 svgShape"/><polygon fill="#4c7572" points="52.9 59.9 51.4 62 51.4 60.9 50.1 62.7 50.1 60.2 51.4 60.6 51.4 59.5" class="color4c5c75 svgShape"/><path fill="#4c7572" d="M46.5 61.7c.2-.1.3 0 .3.2l0 2.8c0 .2-.1.5-.3.6-.2.1-.3 0-.3-.2l0-2.8C46.2 62 46.3 61.8 46.5 61.7zM47.9 60.8c.2-.1.3 0 .3.2l0 2.8c0 .2-.1.5-.3.6-.2.1-.3 0-.3-.2l0-2.8C47.6 61.2 47.7 61 47.9 60.8z" class="color4c5c75 svgShape"/></g><g class="color000000 svgShape"><path fill="#50fff1" d="M96.6,120.8c-0.3-0.8,0.2-1.7,1-1.8c0.1,0,0.1,0,0.2,0l10.3,1.2l0.5,2c0.2,3.2-1.5,4.4-3.1,4.1
						C101.6,125.1,97.5,123.2,96.6,120.8z" class="color5094ff svgShape"/><path fill="#d4f4f1" d="M108.6,120.6l0,1.5c-0.9,1.4-2.5,1-4.2,0.7l-0.6-2.4L108.6,120.6z" class="colorf4d6d4 svgShape"/><path fill="#4c7572" d="M108.9,95c0.7,3.9,1.1,7.8,0.8,11.8l-0.7,13.8c-0.1,1.6-6.2,1.4-6.1-0.2l-0.4-17.2c-0.1-2.5-0.4-5-1-7.4
						l-5-20c0,0,5.5-4.2,6.8-4.5c0.3,0,0.7,0.1,1.2,0.3c2.1,1.1,5.7,4.1,5.7,4.1C108.2,82.6,107.8,89.1,108.9,95z" class="color4c5c75 svgShape"/><path fill="#40605d" d="M108.9,95c0.7,3.9,1.1,7.8,0.8,11.8l-0.7,13.8c0,0.8-1.7,1.2-3.2,1.1l0.3-17.2c0-2.5-0.2-5-0.7-7.5
						l-4.5-22.9c0,0,1.8-1.3,3.7-2.5c2.1,1.1,5.7,4.1,5.7,4.1C108.2,82.6,107.8,89.1,108.9,95z" class="color404d60 svgShape"/><polygon fill="#d4f4f1" points="99.5 116.2 100.7 119.7 105 117.2 103.6 114.1" class="colorf4d6d4 svgShape"/><path fill="#4c7572" d="M102.7,116.9c-1.6,0.6-3.7,0.9-3.9,0.2l-9-19.8c-0.4-1-0.7-2.1-0.6-3.1l1.2-23.9l2,0.6l2.1-0.6l0.7,0.9
							l5.6,7.4l-3.4,14.2c-0.3,1.3-0.2,2.7,0.2,3.9l6.7,18.3C104.5,115.6,103.8,116.5,102.7,116.9z" class="color4c5c75 svgShape"/><path fill="#456865" d="M102.7,116.9L94.1,98c-1.2-2.6-0.4-2.6,0.6-27l0.5,0.2l5.6,7.4l-3.4,14.2c-0.3,1.3-0.2,2.7,0.2,3.9
							l6.7,18.3C104.5,115.6,103.8,116.5,102.7,116.9z" class="color455368 svgShape"/><path fill="#d4f4f1" d="M86.3,37v-0.8h0.5l-1.4-0.6c-0.3-0.1-0.5-0.3-0.7-0.6c-0.4-0.7-1.3-2.1-1.9-2
												c-1,0.1-0.1,1.5-0.1,1.5s-3.3-2.5-4.1-1.7c-0.8,0.8,1.8,2.2,1.8,2.2s-1,0.6-0.8,2.1c0.2,1.6,2.3,1.7,3.1,1.7
												c0.2,0,0.4,0.1,0.6,0.2l1.2,0.8L87,37H86.3z" class="colorf4d6d4 svgShape"/><path fill="#f1fcfb" d="M83.4,39.2c0.4,0.3,2.9-3.1,2.5-3.4l0.7,0.4c0.4,0.3-2.1,3.7-2.5,3.4L83.4,39.2z" class="colorf3f1fc svgShape"/><path fill="#5ec3bb" d="M110.1,46.6v-0.4h0.1c-8.4-1.9-18.2-6.5-23.6-10.1c-0.1-0.1-0.2,0-0.2,0.1c-0.1,0.5-0.9,1.6-1.5,2.4
										c-0.4,0.5-0.7,0.8-1,1c-0.1,0-0.1,0.1,0,0.2c1.4,1.1,12.3,8.7,15.3,9l9.8-0.7l1.3-1.5H110.1z" class="color5ec363 svgShape"/><path fill="#61d5cc" d="M110,45.8l-0.5,0.7l-9.8,0.7c-2.8-0.3-12.5-6.9-14.8-8.6c0.7-0.8,1.4-2,1.5-2.4
										c0-0.1,0.1-0.1,0.2-0.1C92,39.6,102.4,42.6,110,45.8z" class="color72d561 svgShape"/><path fill="#5ae7dc" d="M91.3,50.7c5.5-3.3,12.2-5.7,18.2-5c0.6,0.1,1.2,0.5,1.5,1c1.8,3.2,0.4,6.7-0.8,9.6
						c-1.4,3.2-1.7,8.6-0.9,12l1.4,8.1c0.2,0.8,0.3,1.6,0.2,2.4c-0.2,3.2-1.9,5.4-5,6.4c-7.5,2.1-12.6,0.1-15.1-6.5
						c-0.2-0.5-0.8-0.6-1.1-0.2v0c-0.4,0.6-1.3,0.1-1.1-0.6c1.9-6,3.7-16.4,2-25.7C90.6,51.6,90.8,51,91.3,50.7z" class="color78e75a svgShape"/><path fill="#41e1d4" d="M100.6,119.6c-0.1,0.1-0.1,0.2-0.1,0.3c1.5,6-0.6,5.3-0.3,8.8c0.2,2.4,6,1.6,6.4-3.4
						c0.5-5.2,2.8-5.8-1.1-8.4c-0.3-0.2-0.7-0.2-1-0.1C103.6,117.4,101.5,118.5,100.6,119.6z" class="color57b3fe svgShape"/><path fill="#d4f4f1" d="M95.2,33.6l-0.5,6.7c-0.2,2.6,1.3,5,3.9,5.4l2.9-7.4l-4.9-3.7L95.2,33.6z" class="colorf4d6d4 svgShape"/><path fill="#1d4340" d="M107.7,35l-0.8-0.4c-0.1-1.2,0.5-4.3-1.4-5.4c0.3,0.3,2.2,0.6,2.2,3.6L107.7,35z" class="color1d2943 svgShape"/><path fill="#4c7572" d="M102.8,29.2c3-1.8,5.5-0.3,5.5,3.1l0,2.3l-0.6,0.4l0-2.3c0-3.1-2.2-4.3-4.9-2.8c-2.7,1.6-4.9,5.3-4.9,8.4
							l0,2.3L97.4,41l0-2.3C97.3,35.2,99.8,30.9,102.8,29.2z" class="color4c5c75 svgShape"/><path fill="#5abfb7" d="M93,49.7c1.6-1.7,4.5-2.4,4.5-4.8c0-0.3,0.3-3.8-1.5-7.5c-0.1-0.3-0.3-0.6-0.4-0.9
						c-1.2-2.9,0-6.7,4.4-7.8c1.9-0.5,4-0.4,5.8,0.5c3.7,1.9,4.2,5.9,3.8,10.1c-0.5,4.5-4,7.6-8.4,8.7C98.7,48.7,95.3,48.6,93,49.7z
						" class="colorbf7d5a svgShape"/><path fill="#35e9da" d="M100.9,41.1c0,1.5-1,1.5-1.8,2.1c0,0,0.1,0,0.1-0.1c-1.4,1.1-3.9-1.6-3.9-3.9c0-1.5,1-1.5,1.8-2.1
								C98.5,36.3,100.9,38.9,100.9,41.1z" class="colore93565 svgShape"/><path fill="#51f4e7" d="M100.9,41.1c0,1.5-1,1.5-1.8,2.1c1.4-0.8,0.3-4.1-1.6-5.2c-0.6-0.4-1.2-0.4-1.6-0.2l1.1-0.7
							c0.4-0.2,1-0.2,1.6,0.2C99.9,38,100.9,39.7,100.9,41.1z" class="colorf45170 svgShape"/><ellipse cx="97.5" cy="40.5" fill="#35e9da" class="colore93565 svgShape" rx="1.8" ry="3.1" transform="rotate(-30.163 97.501 40.466)"/><path fill="#e7fcfa" d="M98.7,42.4C98.7,42.4,98.6,42.4,98.7,42.4c-0.1,0.1-0.1,0.1-0.1,0.1C98.6,42.5,98.7,42.4,98.7,42.4z" class="colore9e7fc svgShape"/><path fill="#e7fcfa" d="M98.8,42.4l-0.2,0.1c0,0,0.1,0,0.1-0.1c-0.7,0.9-3-0.8-3-2.8c0-1,0.6-1.1,0.7-1.2
								c0.3-0.2,0.7-0.2,1.2,0.1C99,39.3,99.9,41.8,98.8,42.4z" class="colore9e7fc svgShape"/><path fill="#e7fcfa" d="M98.7,42.4C98.7,42.4,98.6,42.4,98.7,42.4c-0.1,0.1-0.1,0.1-0.1,0.1C98.6,42.5,98.7,42.4,98.7,42.4z" class="colore9e7fc svgShape"/><path fill="#fff" d="M99.3,41.3c0,1-0.6,1.1-0.7,1.2c1.1-0.6,0.2-3.1-1.2-3.9c-0.5-0.3-0.9-0.3-1.2-0.1l0.3-0.2
								c0.3-0.2,0.7-0.1,1.2,0.1C98.6,39,99.3,40.3,99.3,41.3z" class="colorffffff svgShape"/><ellipse cx="97.4" cy="40.5" fill="#e7fcfa" class="colore9e7fc svgShape" rx="1.3" ry="2.3" transform="rotate(-30.163 97.367 40.543)"/><g class="color000000 svgShape"><path fill="#1d4340" d="M107.5,29.5h-1v0.2c-3-2.3-8.6,3.5-8.6,8.6l0,2.3L97.4,41l-1-0.6l0-2.3c0-5.5,5.9-11.9,9.4-9.9
									C106.7,28.8,107.1,28.9,107.5,29.5z" class="color1d2943 svgShape"/></g><g class="color000000 svgShape"><path fill="#1d4340" d="M106.8,28.8c-3.5-2-9.4,4.3-9.4,9.9l0,2.3l-1-0.6l0-2.3c0-5.6,5.9-11.9,9.4-9.9L106.8,28.8z" class="color1d2943 svgShape"/><path fill="#4c7572" d="M106.5,29.5h1c-3-3.8-10.2,3-10.2,9.2l0,2.3l0.6-0.4l0-2.3c0-5,5.5-10.9,8.6-8.6V29.5z" class="color4c5c75 svgShape"/></g><g class="color000000 svgShape"><path fill="#fff" d="M75.4 58.4c.1 0 .1 0 .2.1l.7 1.9c0 .1 0 .2-.1.2-.1 0-.1 0-.2-.1l-.7-1.9C75.3 58.5 75.3 58.4 75.4 58.4zM74.6 55.1l-.3 0c-.1-.2 0-.5.1-.6l.3 0C74.6 54.7 74.6 54.9 74.6 55.1z" class="colorffffff svgShape"/><path fill="#d4f4f1" d="M71.7,55.4c0,0-1.1,3.2,0.3,5c0.1,0.1,0.1,0.1,0.2,0.2l4.2,3.3l2.1-3.4l-3-3.4L71.7,55.4z" class="colorf4d6d4 svgShape"/><path fill="#fff" d="M80.8,44.9c0.2-0.1,0.4,0,0.4,0.2l3.1,8.2c0.1,0.2,0,0.5-0.1,0.6l-9.3,5.9c-0.2,0.1-0.4,0-0.4-0.2
						l-3.1-8.2c-0.1-0.2,0-0.5,0.1-0.6L80.8,44.9z" class="colorffffff svgShape"/><path fill="#1d4340" d="M81.6,43.6l-10.7,6.8L81.6,43.6c0.1,0,0.1,0,0.1-0.1C81.7,43.6,81.6,43.6,81.6,43.6z M74,60.5
						c-0.1-0.1-0.2-0.2-0.2-0.3C73.8,60.3,73.9,60.5,74,60.5z" class="color1d2943 svgShape"/><path fill="#1d4340" d="M85.7,52.6L82.4,44c-0.1-0.3-0.3-0.5-0.6-0.5h-0.3c-0.1,0-0.2,0-0.3,0.1l-10.7,6.8
						c-0.3,0.2-0.4,0.7-0.3,1.1l3.2,8.6c0.1,0.3,0.4,0.5,0.6,0.5l0.3,0h0c0.1,0,0.2,0,0.3-0.1l10.7-6.8C85.7,53.5,85.8,53,85.7,52.6
						z M83.2,48.2c0.2-0.1,0.5,0,0.6,0.3c0.1,0.3,0,0.6-0.2,0.8c-0.2,0.1-0.5,0-0.6-0.3C82.9,48.7,83,48.4,83.2,48.2z M81.6,43.6
						c0,0,0.1,0,0.1-0.1C81.7,43.6,81.6,43.6,81.6,43.6l-10.7,6.8L81.6,43.6z M73.8,60.2c0.1,0.1,0.1,0.3,0.2,0.3
						C73.9,60.5,73.8,60.3,73.8,60.2z M84.1,53.8l-9.3,5.9c-0.2,0.1-0.4,0-0.4-0.2l-3.1-8.2c-0.1-0.2,0-0.5,0.2-0.6l9.3-5.9
						c0.2-0.1,0.4,0,0.4,0.2l3.1,8.2C84.4,53.5,84.3,53.7,84.1,53.8z" class="color1d2943 svgShape"/><path fill="#1d4340" d="M73.8 60.2c.1.1.1.3.2.3C73.9 60.5 73.8 60.3 73.8 60.2zM81.7 43.6c0 0-.1 0-.1.1l-10.8 6.8 10.7-6.8C81.6 43.6 81.7 43.6 81.7 43.6z" class="color1d2943 svgShape"/><path fill="#4c7572" d="M85.7,52.6L82.4,44c-0.2-0.4-0.5-0.6-0.9-0.4l-10.7,6.8c-0.3,0.2-0.5,0.7-0.3,1.1l3.2,8.6
						c0.2,0.4,0.5,0.6,0.9,0.4l10.7-6.8C85.7,53.5,85.8,53,85.7,52.6z M83.2,48.2c0.2-0.1,0.5,0,0.6,0.3c0.1,0.3,0,0.6-0.2,0.8
						c-0.2,0.1-0.5,0-0.6-0.3C82.9,48.7,83,48.4,83.2,48.2z M84.1,53.8l-9.3,5.9c-0.2,0.1-0.4,0-0.4-0.2l-3.1-8.2
						c-0.1-0.2,0-0.5,0.1-0.6l9.3-5.9c0.2-0.1,0.4,0,0.4,0.2l3.1,8.2C84.4,53.5,84.3,53.7,84.1,53.8z" class="color4c5c75 svgShape"/><path fill="#1d4340" d="M70.5,51.6l3.2,8.6c0.1,0.3,0.3,0.5,0.6,0.5l-0.3,0c-0.2,0-0.5-0.2-0.6-0.5l-3.2-8.6
						c-0.2-0.4,0-0.9,0.3-1.1l10.7-6.8c0.1-0.1,0.2-0.1,0.3-0.1l0.3,0c-0.1,0-0.2,0-0.3,0.1l-10.7,6.8
						C70.5,50.7,70.4,51.2,70.5,51.6z" class="color1d2943 svgShape"/><polygon fill="#51f4e7" points="72.9 51.9 73.5 53.5 73.3 53.6 72.8 52" class="colorf45170 svgShape" opacity=".8"/><polygon fill="#51f4e7" points="73.1 51.3 73.9 53.7 73.7 53.8 72.9 51.4" class="colorf45170 svgShape" opacity=".8"/><polygon fill="#51f4e7" points="73.5 51 74.4 53.5 74.2 53.5 73.4 51.1" class="colorf45170 svgShape" opacity=".8"/><polygon fill="#51f4e7" points="73.1 50.7 74.3 54.1 74.1 54.2 73 50.8" class="colorf45170 svgShape" opacity=".8"/><polygon fill="#51f4e7" points="74.3 51.4 74.6 52.4 74.5 52.5 74.2 51.5" class="colorf45170 svgShape" opacity=".8"/><polygon fill="#51f4e7" points="74.4 50.8 75 52.7 74.9 52.8 74.3 50.9" class="colorf45170 svgShape" opacity=".8"/><polygon fill="#51f4e7" points="74 51.3 74.5 52.8 74.3 52.9 73.8 51.4" class="colorf45170 svgShape" opacity=".8"/><polygon fill="#51f4e7" points="74.8 51 75.2 52.2 75 52.3 74.6 51.1" class="colorf45170 svgShape" opacity=".8"/><polygon fill="#51f4e7" points="75.2 49.5 76.3 52.7 76.1 52.8 75.1 49.6" class="colorf45170 svgShape" opacity=".8"/><polygon fill="#51f4e7" points="75.7 50 76.3 51.9 76.2 51.9 75.6 50.1" class="colorf45170 svgShape" opacity=".8"/><polygon fill="#51f4e7" points="75.3 50.8 75.6 51.7 75.5 51.8 75.2 50.9" class="colorf45170 svgShape" opacity=".8"/><polygon fill="#51f4e7" points="75.1 51.1 75.3 51.7 75.2 51.8 75 51.2" class="colorf45170 svgShape" opacity=".8"/><polygon fill="#51f4e7" points="76.1 50.3 76.4 51.3 76.3 51.4 75.9 50.4" class="colorf45170 svgShape" opacity=".8"/><polygon fill="#51f4e7" points="76.5 49.9 76.9 51.1 76.8 51.2 76.4 49.9" class="colorf45170 svgShape" opacity=".8"/><polygon fill="#51f4e7" points="76.6 49.1 77.4 51.6 77.3 51.6 76.4 49.2" class="colorf45170 svgShape" opacity=".8"/><polygon fill="#51f4e7" points="76.3 50 76.7 51.3 76.6 51.4 76.1 50" class="colorf45170 svgShape" opacity=".8"/><polygon fill="#51f4e7" points="77 49.4 77.5 50.9 77.3 51 76.9 49.5" class="colorf45170 svgShape" opacity=".8"/><polygon fill="#51f4e7" points="78.4 49.1 78.6 49.7 78.5 49.7 78.3 49.2" class="colorf45170 svgShape" opacity=".8"/><polygon fill="#51f4e7" points="78.6 48.7 78.9 49.7 78.8 49.8 78.5 48.8" class="colorf45170 svgShape" opacity=".8"/><polygon fill="#51f4e7" points="77.8 48.3 78.7 50.8 78.5 50.9 77.7 48.4" class="colorf45170 svgShape" opacity=".8"/><polygon fill="#51f4e7" points="77.8 49.1 78.2 50.3 78.1 50.4 77.7 49.1" class="colorf45170 svgShape" opacity=".8"/><polygon fill="#51f4e7" points="77.4 48.8 78.1 50.9 78 51 77.3 48.9" class="colorf45170 svgShape" opacity=".8"/><polygon fill="#51f4e7" points="77 48.4 78 51.6 77.9 51.7 76.8 48.5" class="colorf45170 svgShape" opacity=".8"/><polygon fill="#51f4e7" points="78.9 48.8 79.1 49.3 79 49.4 78.8 48.9" class="colorf45170 svgShape" opacity=".8"/><polygon fill="#51f4e7" points="79.6 48.1 79.9 49.1 79.8 49.1 79.5 48.2" class="colorf45170 svgShape" opacity=".8"/><polygon fill="#51f4e7" points="79.2 47.8 79.8 49.7 79.7 49.7 79.1 47.9" class="colorf45170 svgShape" opacity=".8"/><polygon fill="#51f4e7" points="78.8 47.6 79.7 50.2 79.6 50.3 78.7 47.7" class="colorf45170 svgShape" opacity=".8"/><polygon fill="#51f4e7" points="80.7 47 81.3 48.7 81.2 48.7 80.6 47" class="colorf45170 svgShape" opacity=".8"/><polygon fill="#51f4e7" points="81.1 47.1 81.5 48.2 81.3 48.3 81 47.2" class="colorf45170 svgShape" opacity=".8"/><polygon fill="#51f4e7" points="80.2 46.4 81.3 49.6 81.2 49.6 80.1 46.4" class="colorf45170 svgShape" opacity=".8"/><polygon fill="#51f4e7" points="80.1 47 80.9 49.3 80.8 49.3 80 47.1" class="colorf45170 svgShape" opacity=".8"/><polygon fill="#51f4e7" points="79.9 48.1 80.1 48.7 80 48.8 79.8 48.2" class="colorf45170 svgShape" opacity=".8"/><polygon fill="#51f4e7" points="80.2 48 80.4 48.6 80.2 48.6 80 48.1" class="colorf45170 svgShape" opacity=".8"/><polygon fill="#41e1d4" points="74.3 56 74.8 57.6 74.7 57.6 74.2 56.1" class="color57b3fe svgShape" opacity=".8"/><polygon fill="#41e1d4" points="74.4 55.4 75.2 57.8 75.1 57.9 74.3 55.5" class="color57b3fe svgShape" opacity=".8"/><polygon fill="#41e1d4" points="74.9 55.1 75.7 57.6 75.6 57.6 74.8 55.1" class="color57b3fe svgShape" opacity=".8"/><polygon fill="#41e1d4" points="74.5 54.8 75.6 58.2 75.5 58.3 74.4 54.9" class="color57b3fe svgShape" opacity=".8"/><polygon fill="#41e1d4" points="75.7 55.5 76 56.5 75.9 56.6 75.5 55.6" class="color57b3fe svgShape" opacity=".8"/><polygon fill="#41e1d4" points="75.8 54.9 76.4 56.8 76.3 56.9 75.6 55" class="color57b3fe svgShape" opacity=".8"/><polygon fill="#41e1d4" points="75.3 55.4 75.8 56.9 75.7 57 75.2 55.5" class="color57b3fe svgShape" opacity=".8"/><polygon fill="#41e1d4" points="76.1 55.1 76.5 56.3 76.4 56.4 76 55.2" class="color57b3fe svgShape" opacity=".8"/><polygon fill="#41e1d4" points="76.6 53.6 77.6 56.8 77.5 56.9 76.4 53.7" class="color57b3fe svgShape" opacity=".8"/><polygon fill="#41e1d4" points="77 54.1 77.6 56 77.5 56 76.9 54.2" class="color57b3fe svgShape" opacity=".8"/><polygon fill="#41e1d4" points="76.7 54.9 77 55.8 76.8 55.9 76.6 55" class="color57b3fe svgShape" opacity=".8"/><polygon fill="#41e1d4" points="76.5 55.2 76.7 55.8 76.5 55.9 76.4 55.3" class="color57b3fe svgShape" opacity=".8"/><polygon fill="#41e1d4" points="77.4 54.4 77.8 55.4 77.6 55.5 77.3 54.5" class="color57b3fe svgShape" opacity=".8"/><polygon fill="#41e1d4" points="77.9 54 78.3 55.2 78.2 55.3 77.7 54" class="color57b3fe svgShape" opacity=".8"/><polygon fill="#41e1d4" points="77.9 53.2 78.8 55.7 78.6 55.7 77.8 53.3" class="color57b3fe svgShape" opacity=".8"/><polygon fill="#41e1d4" points="77.6 54.1 78.1 55.4 78 55.5 77.5 54.1" class="color57b3fe svgShape" opacity=".8"/><polygon fill="#41e1d4" points="78.4 53.5 78.8 55 78.7 55.1 78.2 53.6" class="color57b3fe svgShape" opacity=".8"/><polygon fill="#41e1d4" points="79.8 53.2 80 53.8 79.8 53.8 79.6 53.3" class="color57b3fe svgShape" opacity=".8"/><polygon fill="#41e1d4" points="79.9 52.8 80.3 53.8 80.1 53.9 79.8 52.9" class="color57b3fe svgShape" opacity=".8"/><polygon fill="#41e1d4" points="79.2 52.4 80 54.9 79.9 55 79.1 52.5" class="color57b3fe svgShape" opacity=".8"/><polygon fill="#41e1d4" points="79.1 53.1 79.6 54.4 79.4 54.5 79 53.2" class="color57b3fe svgShape" opacity=".8"/><polygon fill="#41e1d4" points="78.8 52.9 79.4 55 79.3 55.1 78.6 53" class="color57b3fe svgShape" opacity=".8"/><polygon fill="#41e1d4" points="78.3 52.5 79.4 55.7 79.2 55.8 78.2 52.6" class="color57b3fe svgShape" opacity=".8"/><polygon fill="#41e1d4" points="80.3 52.9 80.5 53.4 80.3 53.5 80.1 53" class="color57b3fe svgShape" opacity=".8"/><polygon fill="#41e1d4" points="81 52.2 81.3 53.2 81.1 53.2 80.8 52.3" class="color57b3fe svgShape" opacity=".8"/><polygon fill="#41e1d4" points="80.6 51.9 81.2 53.7 81 53.8 80.4 52" class="color57b3fe svgShape" opacity=".8"/><polygon fill="#41e1d4" points="80.2 51.7 81 54.3 80.9 54.4 80.1 51.8" class="color57b3fe svgShape" opacity=".8"/><polygon fill="#41e1d4" points="82.1 51.1 82.7 52.7 82.5 52.8 82 51.1" class="color57b3fe svgShape" opacity=".8"/><polygon fill="#41e1d4" points="82.4 51.2 82.8 52.3 82.7 52.4 82.3 51.3" class="color57b3fe svgShape" opacity=".8"/><polygon fill="#41e1d4" points="81.6 50.5 82.7 53.7 82.5 53.7 81.5 50.5" class="color57b3fe svgShape" opacity=".8"/><polygon fill="#41e1d4" points="81.5 51.1 82.2 53.3 82.1 53.4 81.4 51.2" class="color57b3fe svgShape" opacity=".8"/><polygon fill="#41e1d4" points="81.3 52.2 81.5 52.8 81.3 52.9 81.1 52.3" class="color57b3fe svgShape" opacity=".8"/><polygon fill="#41e1d4" points="81.5 52.1 81.7 52.7 81.6 52.7 81.4 52.2" class="color57b3fe svgShape" opacity=".8"/><g class="color000000 svgShape"><path fill="#d4f4f1" d="M78.6,60.5l-0.8-1.1c-0.4-0.5-0.7-1.1-1-1.7c-0.2-0.3-0.4-0.7-0.6-1c-0.4-0.4-1.1-0.4-1.3,0.1
									c-0.3,0.5,0.1,2.2,1.3,3.4C77,61.7,77.8,62.6,78.6,60.5z" class="colorf4d6d4 svgShape"/></g><g class="color000000 svgShape"><path fill="#defbf9" d="M82,62.4l-3.9-2.6c-0.7-0.4-3,3.2-2.3,3.6c1.8,2,3.6,3.8,5.4,5.4L82,62.4z" class="colordedffb svgShape"/></g><g class="color000000 svgShape"><path fill="#5ec3bb" d="M95.2,55.7l-3,16.3c-0.2,1.2-1.4,1.9-2.5,1.5c-4.8-1.7-9.2-4.4-13.6-9.5c-0.2-0.1-0.1-0.6,0.1-1.2
									c0.1-0.2,0.2-0.4,0.3-0.6c0.6-1.2,1.7-2.5,2.2-2.2l7.3,4.8c0.4,0.2,0.9,0,1-0.4c0.9-4.8,1.3-11.1,3.8-13.2
									c1.1-0.9,2.7-0.9,3.5,0.1C95,52.2,95.4,53.6,95.2,55.7z" class="color5ec363 svgShape"/></g><g class="color000000 svgShape"><path fill="#61d5cc" d="M93.7,50.9c0,1.9-0.2,1.3-3.9,17.5c-0.2,1.2-1.5,1.8-2.6,1.4c-3.8-1.6-7.3-3.8-10.8-7.5
									c0.6-1.2,1.7-2.5,2.2-2.2l7.3,4.8c0.4,0.2,0.9,0,1-0.4c0.9-4.8,1.3-11.1,3.8-13.2C91.6,50.4,92.9,50.3,93.7,50.9z" class="color72d561 svgShape"/></g></g></g></svg>