<?xml version="1.0" encoding="UTF-8"?><svg id="Layer_2" xmlns="http://www.w3.org/2000/svg" viewBox="0 0 36.84 48"><defs><style>.cls-1{fill:#f8fefe;}.cls-2{fill:#00ffea;}.cls-3{fill:#00eeea;}.cls-4{fill:#f0f0f0;}.cls-5{fill:#fff;}.cls-6{fill:#f1fcfb;}.cls-7{fill:#ecf1f1;}.cls-8{fill:#7e8c8b;}.cls-9{fill:#8d9998;}.cls-10{fill:#a9fff8;}.cls-11{fill:#c9e2e0;}.cls-12{fill:#d4d6d6;}.cls-13{fill:#e0e2e2;}.cls-14{fill:#0ff1df;}.cls-15{fill:#113330;}.cls-16{fill:#13e5d4;}.cls-17{fill:#1d4340;}.cls-18,.cls-19{fill:#41e1d4;}.cls-20{fill:#3ce7d9;}.cls-21{fill:#18d6c7;}.cls-22{fill:#465756;}.cls-23{fill:#51fff1;}.cls-24{fill:#6d7a79;}.cls-25{fill:#5abfb7;}.cls-26{fill:#5b716f;}.cls-27{fill:#56f9ec;}.cls-28{fill:#5af2e6;}.cls-29{fill:#48efe1;}.cls-30{fill:#32c9bd;}.cls-31{fill:#56aaa3;}.cls-32{fill:#59b6ae;}.cls-33{fill:#4c7572;}.cls-34{fill:#4affc9;}.cls-35{fill:#32b7ac;}.cls-36{fill:#4af7ff;}.cls-36,.cls-19{fill-rule:evenodd;}</style></defs><g id="Layer_1-2"><polygon class="cls-14" points="1.22 43.26 31 25.96 35.57 28.6 5.79 45.9 1.22 43.26"/><polygon class="cls-14" points=".06 17.31 29.84 0 31.06 .7 1.28 18.01 .06 17.31"/><polygon class="cls-21" points="1.28 18.01 31.06 .7 31 25.96 1.22 43.26 1.28 18.01"/><polygon class="cls-13" points="2.38 43.95 1.62 43.51 1.57 18.59 2.33 19.03 2.38 43.95"/><polygon class="cls-7" points="2.33 19.03 1.57 18.59 30.07 2.09 30.83 2.53 2.33 19.03"/><polygon class="cls-12" points="30.83 2.53 30.89 27.45 2.38 43.95 2.33 19.03 30.83 2.53"/><polygon class="cls-13" points="3.69 44.71 2.93 44.26 2.87 19.35 3.63 19.79 3.69 44.71"/><polygon class="cls-7" points="3.63 19.79 2.87 19.35 31.38 2.84 32.13 3.28 3.63 19.79"/><polygon class="cls-12" points="32.13 3.28 32.19 28.2 3.69 44.71 3.63 19.79 32.13 3.28"/><polygon class="cls-30" points="5.75 23.6 5.51 23.46 5.49 16.88 5.73 17.02 5.75 23.6"/><polygon class="cls-18" points="5.73 17.02 5.49 16.88 9.16 14.76 9.4 14.9 5.73 17.02"/><polygon class="cls-35" points="9.4 14.9 9.42 21.48 5.75 23.6 5.73 17.02 9.4 14.9"/><g><polygon class="cls-13" points="4.99 45.46 4.23 45.02 4.17 20.1 4.93 20.54 4.99 45.46"/><polygon class="cls-7" points="4.93 20.54 4.17 20.1 32.68 3.59 33.44 4.04 4.93 20.54"/><polygon class="cls-12" points="33.44 4.04 33.49 28.95 4.99 45.46 4.93 20.54 33.44 4.04"/></g><polygon class="cls-21" points="7.06 29.83 36.84 12.52 36.78 30.69 7 48 7.06 29.83"/><polygon class="cls-14" points="5.85 29.13 35.63 11.82 36.84 12.52 7.06 29.83 5.85 29.13"/><polygon class="cls-16" points="7.06 29.83 7 48 0 43.96 .06 17.31 1.28 18.01 1.22 43.26 5.79 45.9 5.85 29.13 7.06 29.83"/><g><polygon class="cls-16" points="15.79 24.8 14.59 24.09 14.56 15.34 15.76 16.04 15.79 24.8"/><polygon class="cls-14" points="15.76 16.04 14.56 15.34 35.6 3.06 36.81 3.76 15.76 16.04"/><polygon class="cls-21" points="36.81 3.76 36.84 12.52 15.79 24.8 15.76 16.04 36.81 3.76"/></g><path class="cls-32" d="M11.1,17.95c1.9-1.1,3.44-.21,3.45,1.97,0,2.18-1.53,4.84-3.43,5.94-1.9,1.1-3.45,.22-3.45-1.97,0-2.18,1.53-4.84,3.43-5.94Z"/><path class="cls-18" d="M13.66,18.38c.27,.37,.43,.9,.43,1.56,0,1.98-1.39,4.39-3.11,5.38-1.05,.61-1.97,.55-2.54-.04,.54,.74,1.54,.87,2.68,.21,1.72-.99,3.11-3.4,3.11-5.38,0-.77-.21-1.35-.57-1.73Z"/><path class="cls-5" d="M10.98,25.32c1.72-.99,3.11-3.4,3.11-5.38,0-.66-.16-1.19-.43-1.56-.57-.6-1.5-.66-2.56-.05-1.72,.99-3.11,3.4-3.11,5.38,0,.66,.16,1.2,.45,1.57,.57,.58,1.5,.64,2.54,.04Z"/><path class="cls-18" d="M13.55,17.71c-.63-.36-1.49-.31-2.45,.24-1.9,1.1-3.44,3.76-3.43,5.94,0,1.08,.39,1.85,1,2.21l-.87-.5c-.62-.36-1-1.12-1-2.21,0-2.18,1.53-4.84,3.43-5.94,.95-.55,1.82-.6,2.44-.24l.87,.5Z"/><path class="cls-26" d="M11.12,24.67c.05-.03,.09,0,.09,.05,0,.06-.04,.13-.09,.16-.05,.03-.09,0-.09-.05,0-.06,.04-.13,.09-.16Zm1.25-1.1s.06-.02,.08,0c.02,.04,0,.11-.03,.17-.01,.02-.03,.03-.05,.04-.03,.02-.06,.02-.08,0-.02-.04-.01-.11,.03-.17,.01-.02,.03-.03,.05-.04Zm.91-1.58s.03-.01,.05-.01c.04,0,.06,.06,.03,.13-.02,.04-.05,.08-.08,.1-.02,0-.03,.01-.05,.01-.05,0-.06-.06-.04-.13,.02-.04,.05-.08,.08-.1Zm.33-1.63c.05-.03,.09,0,.09,.05,0,.06-.04,.13-.09,.16-.05,.03-.09,0-.09-.05,0-.06,.04-.13,.09-.16Z"/><path class="cls-22" d="M9.87,25.01s.03-.01,.05-.01c.04,0,.06,.06,.03,.13-.02,.04-.05,.08-.08,.1-.02,0-.03,.01-.05,.01-.04,0-.06-.06-.03-.13,.02-.04,.05-.08,.08-.1Z"/><path class="cls-20" d="M12.64,19.82l.03,.05-1.43,1.83s-.03-.02-.05-.02l1.45-1.86Z"/><path class="cls-26" d="M11.11,21.71l.04-.02s.03,0,.05,0c.02,0,.04,0,.05,.02,.03,.02,.04,.06,.04,.1,0,.11-.08,.24-.17,.3-.07,.04-.13,.03-.16-.03,0-.02-.01-.04-.02-.07h0s0-.03,0-.04c0-.03,.01-.06,.03-.09,.03-.06,.06-.11,.11-.15l.04-.03Zm1.24-3.11s.03-.01,.05-.01c.05,0,.06,.06,.04,.13-.02,.04-.05,.08-.08,.1-.02,0-.03,.01-.05,.01-.04,0-.06-.06-.04-.13,.02-.04,.05-.08,.08-.1Z"/><path class="cls-26" d="M11.15,19.8c.08-.03,.15,.02,.15,.12,0,.1-.07,.23-.15,.3v1.46l-.04,.02-.04,.02h0v-1.46c-.09,.03-.15-.02-.16-.12,0-.1,.07-.22,.15-.3v-.24l.08-.05v.24Zm-.04,.36c.06-.03,.11-.12,.11-.19,0-.07-.05-.1-.11-.06s-.11,.12-.11,.19c0,.07,.05,.1,.11,.06m-2.49,3.08s.09,0,.09,.05c0,.06-.04,.13-.09,.16-.05,.03-.09,0-.09-.05,0-.06,.04-.13,.09-.16Zm.33-1.63s.03-.01,.05-.01c.04,0,.06,.06,.04,.12-.02,.05-.05,.08-.08,.1-.02,0-.03,.01-.05,.01-.05,0-.06-.06-.04-.13,.02-.04,.05-.08,.08-.1Zm.91-1.58s.06-.02,.08,0c.03,.04,.01,.11-.03,.16-.01,.02-.03,.03-.05,.04-.03,.02-.06,.02-.08,0-.02-.04-.01-.11,.03-.17,.01-.02,.03-.03,.05-.04Zm3.42-.92s.06-.02,.08,0c.03,.04,.01,.11-.03,.17-.01,.02-.03,.03-.05,.04-.03,.02-.06,.02-.08,0-.02-.04-.01-.11,.03-.17,.01-.02,.03-.03,.05-.04Z"/><path class="cls-20" d="M10.52,22.55l.42-.54s0,.05,.02,.07l-.4,.51-.03-.04Z"/><path class="cls-26" d="M8.96,24.48s.06-.02,.08,0c.03,.04,.01,.11-.03,.17-.01,.02-.03,.03-.05,.04-.03,.02-.06,.02-.08,0-.02-.04-.01-.11,.03-.17,.01-.02,.03-.03,.05-.04Zm1.59-2.69l.43,.08h0s-.02,.07-.03,.1l-.44-.07c-.05,.09-.12,.17-.19,.21-.05,.03-.1,.04-.14,.03-.06-.01-.1-.06-.11-.13-.01-.06,0-.13,.02-.19l-.21-.04,.04-.1,.21,.04c.05-.09,.12-.17,.2-.21,.05-.03,.1-.04,.14-.03,.11,.02,.15,.16,.09,.32Zm-.08,.04c.02-.06,.03-.12,.02-.17-.01-.05-.04-.08-.08-.09-.03,0-.07,0-.1,.03-.06,.04-.12,.1-.15,.18-.03,.06-.03,.12-.03,.17,.01,.05,.04,.08,.08,.09,.03,0,.06,0,.1-.02,.06-.03,.12-.1,.15-.18m.64-2.9c.05-.03,.09,0,.09,.05,0,.06-.04,.13-.09,.16-.05,.03-.09,0-.09-.05,0-.06,.04-.13,.09-.16Z"/><path class="cls-15" d="M14.41,26.07v.17l-1.16,.68-1.67-.97v-1.51l2.84,1.64Z"/><path class="cls-28" d="M11.65,26.18l-.65-.38s.03,.02,.05,.02l.65,.38s-.03-.01-.05-.02Z"/><path class="cls-5" d="M13.29,24.46c0,.12-.02,.25-.05,.37-.03,.12-.07,.23-.12,.35-.04,.1-.1,.2-.16,.29l-1.28-.72c.06-.09,.11-.19,.16-.29,.05-.11,.09-.23,.12-.35,.03-.13,.05-.25,.05-.37,0-.3-.11-.52-.28-.62l1.28,.72c.17,.1,.28,.31,.28,.62Z"/><path class="cls-27" d="M11.01,26.6l-.65-.38v-3.04l.64,.38v3.04Z"/><path class="cls-28" d="M11,23.56l-.65-.38,2.64-1.53,.65,.38-2.64,1.53Z"/><path class="cls-11" d="M13.65,22.03v3.04l-.68,.39c.2-.32,.36-.69,.32-1.01-.06-.52-.51-.73-.96-.55-.57,.23-.96,1.05-.96,1.66,0,.33,.13,.55,.33,.64l-.68,.39v-3.04l2.63-1.53Z"/><path class="cls-28" d="M11.83,26.1l-.13-.08h.02l.13,.09h-.02Z"/><path class="cls-25" d="M12.86,24.03l.13,.08c.15,.09,.28,.26,.28,.52,0,.26-.13,.57-.3,.85l-.13-.08c.17-.27,.26-.58,.26-.84,0-.26-.09-.44-.24-.53h0Z"/><path class="cls-31" d="M12.41,23.98c.54-.31,.97-.06,.98,.56,0,.25-.07,.54-.21,.81l-.21,.12c.17-.27,.26-.58,.26-.84,0-.52-.37-.73-.82-.47s-.82,.9-.82,1.42c0,.26,.1,.46,.26,.54l-.21,.12c-.13-.12-.21-.32-.21-.57,0-.62,.43-1.37,.97-1.68Z"/><path class="cls-11" d="M10.97,23.53v.37l-.66-.38v-.37l.66,.38Z"/><path class="cls-25" d="M13.1,23.92c-.18-.1-.42-.08-.69,.07-.54,.31-.97,1.06-.97,1.67,0,.25,.07,.45,.21,.57l-.13-.08c-.13-.12-.21-.32-.21-.57,0-.62,.43-1.37,.97-1.68,.27-.16,.51-.17,.69-.07l.13,.08Z"/><path class="cls-17" d="M14.41,26.07v.17l-1.16,.68v-.17l1.16-.68Z"/><path class="cls-17" d="M14.41,26.07v.17l-1.16,.68v-.17l1.16-.68Z"/><path class="cls-15" d="M11.57,25.78v.17l1.67,.97v-.17l-1.67-.97Z"/><path class="cls-33" d="M11.57,24.43v1.35l1.67,.97,1.16-.68-2.84-1.64Z"/><path class="cls-33" d="M11.57,24.43v.16l2.7,1.56,.14-.08-2.84-1.64Zm0,1.19v.16l.98,.57,.14-.08-1.12-.64Z"/><path class="cls-6" d="M13.69,26.18l-.28-.16-.13,.08,.28,.16,.13-.08Zm-.53-.31l-.28-.16-.13,.08,.28,.16,.13-.08Zm-1.06-.61l-.28-.16-.13,.08,.28,.16,.13-.08Zm.53,.31l-.28-.16-.13,.08,.28,.16,.13-.08Z"/><path class="cls-28" d="M11.65,26.18l-.65-.38s.03,.02,.05,.02l.65,.38s-.03-.01-.05-.02Z"/><path class="cls-18" d="M11.01,26.6l-.65-.38v-3.04l.64,.38c.28,.95,.29,1.96,0,3.04Z"/><path class="cls-28" d="M12.12,22.17l-1.76,1.02,.65,.38,1.11-.64v-.75Z"/><path class="cls-11" d="M12.12,22.92l-1.11,.64v3.04l.69-.39c-.2-.09-.33-.31-.33-.64,0-.53,.3-1.22,.75-1.54"/><path class="cls-33" d="M13.74,21.91v.37l-1.63,.95-1.15,.67v-.37h0v.37l-.66-.38v-.37l1.81-1.05,.96-.56,.66,.38Z"/><path class="cls-15" d="M10.97,23.53v.37l-.66-.38v-.37l.66,.38Z"/><path class="cls-33" d="M13.74,21.91l-1.63,.95-1.15,.67-.66-.38,1.81-1.05,.97-.56,.66,.38Z"/><path class="cls-25" d="M12.12,24.2v-.19c-.46,.35-.81,1.02-.81,1.57,0,.25,.08,.45,.21,.57l.13,.08c-.13-.12-.23-.32-.21-.57,.04-.49,.36-1.07,.68-1.46Z"/><path class="cls-17" d="M13.74,21.91v.37l-1.63,.95-1.15,.67v-.37l1.15-.67,1.63-.95Z"/><path class="cls-15" d="M10.97,23.53v0h0Z"/><path class="cls-17" d="M10.97,23.53v0h0Z"/><path class="cls-1" d="M11.28,24.43c-.14,0-.25,.12-.25,.27,0-.15-.11-.27-.25-.27,.14,0,.25-.12,.25-.27,0,.15,.11,.27,.25,.27h0Z"/><path class="cls-31" d="M12.75,23.86c-.11,.01-.22,.06-.34,.13-.54,.31-.97,1.06-.97,1.68,0,.25,.08,.45,.21,.57l.21-.12c-.17-.08-.26-.28-.26-.54,0-.52,.37-1.15,.82-1.42,.12-.07,.24-.11,.34-.11v-.19Z"/><path class="cls-34" d="M12.96,24.2s-.05,.02-.05,.05c0-.03-.02-.05-.05-.05,.03,0,.05-.02,.05-.05,0,.03,.02,.05,.05,.05h0Z"/><path class="cls-34" d="M12.78,24.32s-.05,.02-.05,.05c0-.03-.02-.05-.05-.05,.03,0,.05-.02,.05-.05,0,.03,.02,.05,.05,.05h0Z"/><path class="cls-34" d="M12.67,24.18s-.05,.02-.05,.05c0-.03-.02-.05-.05-.05,.03,0,.05-.02,.05-.05,0,.03,.02,.05,.05,.05h0Z"/><path class="cls-34" d="M12.52,24.42s-.05,.02-.05,.05c0-.03-.02-.05-.05-.05,.03,0,.05-.02,.05-.05,0,.03,.02,.05,.05,.05h0Z"/><path class="cls-34" d="M12.99,24.5s-.05,.02-.05,.05c0-.03-.02-.05-.05-.05,.03,0,.05-.02,.05-.05,0,.03,.02,.05,.05,.05h0Z"/><path class="cls-34" d="M12.78,24.62s-.05,.02-.05,.05c0-.03-.02-.05-.05-.05,.03,0,.05-.02,.05-.05,0,.03,.02,.05,.05,.05h0Z"/><path class="cls-34" d="M12.49,24.72s-.05,.02-.05,.05c0-.03-.02-.05-.05-.05,.03,0,.05-.02,.05-.05,0,.03,.02,.05,.05,.05h0Z"/><path class="cls-34" d="M12.74,24.43s-.05,.02-.05,.05c0-.03-.02-.05-.05-.05,.03,0,.05-.02,.05-.05,0,.03,.02,.05,.05,.05h0Z"/><path class="cls-34" d="M12.96,24.73s-.05,.02-.05,.05c0-.03-.02-.05-.05-.05,.03,0,.05-.02,.05-.05,0,.03,.02,.05,.05,.05h0Z"/><path class="cls-34" d="M12.77,24.92s-.05,.02-.05,.05c0-.03-.02-.05-.05-.05,.03,0,.05-.02,.05-.05,0,.03,.02,.05,.05,.05h0Z"/><path class="cls-34" d="M12.35,24.32s-.05,.02-.05,.05c0-.03-.02-.05-.05-.05,.03,0,.05-.02,.05-.05,0,.03,.02,.05,.05,.05h0Z"/><path class="cls-34" d="M12.23,24.57s-.05,.02-.05,.05c0-.03-.02-.05-.05-.05,.03,0,.05-.02,.05-.05,0,.03,.02,.05,.05,.05h0Z"/><path class="cls-34" d="M12.62,24.55s-.05,.02-.05,.05c0-.03-.02-.05-.05-.05,.03,0,.05-.02,.05-.05,0,.03,.02,.05,.05,.05h0Z"/><path class="cls-34" d="M12.95,24.94s-.05,.02-.05,.05c0-.03-.02-.05-.05-.05,.03,0,.05-.02,.05-.05,0,.03,.02,.05,.05,.05h0Z"/><path class="cls-34" d="M11.08,24.43s-.05,.02-.05,.05c0-.03-.02-.05-.05-.05,.03,0,.05-.02,.05-.05,0,.03,.02,.05,.05,.05h0Z"/><g><polygon class="cls-8" points="28.32 32.92 27.33 32.35 27.03 31.02 28.02 31.59 28.32 32.92"/><polygon class="cls-8" points="32.33 24.15 31.34 23.58 32.65 23.17 33.64 23.74 32.33 24.15"/><polygon class="cls-18" points="31.9 20.87 30.91 20.29 31.47 20.61 32.46 21.19 31.9 20.87"/><polygon class="cls-8" points="24.94 32.89 23.95 32.31 24.66 30.6 25.65 31.17 24.94 32.89"/><polygon class="cls-8" points="30.77 22.34 29.78 21.77 30.91 20.29 31.9 20.87 30.77 22.34"/><path class="cls-24" d="M25.65,31.17l-.99-.57c-.28-.31-.48-.73-.58-1.25l.99,.57c.1,.52,.3,.94,.58,1.25Zm3.74-8.69l-.99-.57c.5-.18,.97-.22,1.38-.14l.99,.57c-.41-.08-.88-.04-1.38,.14Zm-4.32,5.85l-.99-.57c.09-.63,.29-1.28,.57-1.91l.99,.57c-.28,.63-.47,1.28-.57,1.91Zm1.55-3.6l-.99-.57c.41-.55,.87-1.05,1.38-1.45l.99,.57c-.5,.4-.97,.89-1.38,1.45Z"/><polygon class="cls-18" points="23.76 30.33 22.78 29.76 22.77 28.85 23.76 29.42 23.76 30.33"/><polygon class="cls-8" points="23.76 29.42 22.77 28.85 24.08 27.76 25.07 28.33 23.76 29.42"/><polygon class="cls-8" points="27.99 23.28 27 22.71 27.3 21.04 28.29 21.61 27.99 23.28"/><polygon class="cls-18" points="28.29 21.61 27.3 21.04 28.09 20.58 29.08 21.15 28.29 21.61"/><polygon class="cls-8" points="25.64 26.42 24.65 25.85 23.93 24.96 24.92 25.53 25.64 26.42"/><polygon class="cls-18" points="24.92 25.53 23.93 24.96 24.49 23.99 25.48 24.56 24.92 25.53"/><path class="cls-9" d="M29.08,21.15l.3,1.33c.5-.18,.97-.22,1.38-.14l1.14-1.47,.56,.32-.71,1.71c.28,.31,.48,.73,.57,1.25l1.31-.41v.91l-1.3,1.1c-.09,.63-.29,1.28-.57,1.91l.72,.89-.56,.96-1.14-.16c-.41,.55-.87,1.05-1.38,1.45l-.3,1.67-.79,.46-.3-1.33c-.5,.18-.97,.22-1.38,.14l-1.13,1.47-.56-.32,.71-1.71c-.28-.31-.48-.73-.58-1.25l-1.31,.41v-.91l1.3-1.1c.09-.63,.29-1.28,.57-1.91l-.72-.89,.56-.96,1.14,.16c.41-.55,.87-1.05,1.38-1.45l.3-1.67,.79-.46Z"/><polygon class="cls-8" points="25.48 24.56 24.49 23.99 25.63 24.15 26.62 24.73 25.48 24.56"/><g><path class="cls-10" d="M30.38,23.57l.51,.3c-.5-.29-1.19-.25-1.95,.19l-.51-.3c.76-.44,1.45-.48,1.95-.19Z"/><path class="cls-23" d="M27.02,30.51l-.51-.3c-.49-.28-.79-.89-.8-1.75,0-1.73,1.22-3.84,2.72-4.7l.51,.3c-1.51,.87-2.73,2.98-2.72,4.7,0,.86,.31,1.46,.8,1.75Z"/><path class="cls-2" d="M27.02,30.51l-.51-.3c-.49-.28-.79-.89-.8-1.75l.51,.3c0,.86,.31,1.46,.8,1.75Z"/></g><path class="cls-29" d="M26.22,28.76c0,1.72,1.22,2.42,2.72,1.57v-6.27c-1.51,.87-2.73,2.98-2.72,4.7Z"/><path class="cls-23" d="M28.94,24.06v6.27h.02c1.51-.88,2.73-2.98,2.72-4.71,0-1.73-1.23-2.43-2.74-1.56Z"/><g><path class="cls-3" d="M30.65,24.77s-.01-.02-.02-.03c-.39-.36-1-.38-1.68,.01-1.17,.67-2.11,2.3-2.11,3.64,0,.45,.11,.81,.3,1.07h0c.37,.49,1.03,.57,1.79,.15,0,0,.01,0,.01,0,1.17-.67,2.11-2.3,2.11-3.64,0-.53-.15-.94-.41-1.19Zm-3.13,4.91c.08,.03,.17,.05,.26,.05-.09,0-.18-.03-.26-.05Z"/><path class="cls-3" d="M27.78,29.74c-.09,0-.18-.03-.26-.05,.08,.03,.17,.05,.26,.05Z"/></g></g><path class="cls-19" d="M24.59,14.15v10.89l-6.49,3.75v-10.89l6.49-3.75Z"/><path class="cls-36" d="M19.98,25.3l1.9-1.1v-.19l-1.9,1.1v.19Zm-1.01,.58l.86-.5v-.19l-.86,.5v.19Zm0,.37l.49-.29v-.19l-.49,.29v.19Zm0,1.11l2.91-1.68v-.19l-2.91,1.68v.19Zm0-.74l2.91-1.68v-.19l-2.91,1.68v.19Zm2.44-1.04l.48-.27v-.19l-.48,.27v.19Zm-2.43,1.4l2.28-1.32v-.19l-2.28,1.32v.19Zm.64-1.11l2.26-1.31v-.19l-2.26,1.31v.19Zm.36,1.64l1.9-1.1v-.19l-1.9,1.1v.19Zm-1.01,.58l.86-.5v-.19l-.86,.5v.19Zm0,.37l.49-.29v-.19l-.49,.29v.19Zm0,1.11l2.91-1.68v-.19l-2.91,1.68v.19Zm0-.74l2.91-1.68v-.19l-2.91,1.68v.19Zm2.44-1.04l.48-.27v-.19l-.48,.27v.19Zm-2.43,1.4l2.28-1.32v-.19l-2.28,1.32v.19Zm.64-1.11l2.26-1.31v-.19l-2.26,1.31v.19Zm.36,1.64l1.9-1.1v-.19l-1.9,1.1v.19Zm-1.01,.58l.86-.5v-.19l-.86,.5v.19Zm0,.37l.49-.29v-.19l-.49,.29v.19Zm0,1.11l2.91-1.68v-.19l-2.91,1.68v.19Zm0-.74l2.91-1.68v-.19l-2.91,1.68v.19Zm2.44-1.04l.48-.27v-.19l-.48,.27v.19Zm-2.43,1.4l2.28-1.32v-.19l-2.28,1.32v.19Zm.64-1.11l2.26-1.31v-.19l-2.26,1.31v.19Zm.36,1.64l1.9-1.1v-.19l-1.9,1.1v.19Zm-1.01,.58l.86-.5v-.19l-.86,.5v.19Zm0,.37l.49-.29v-.19l-.49,.29v.19Zm0,1.11l2.91-1.68v-.19l-2.91,1.68v.19Zm0-.74l2.91-1.68v-.19l-2.91,1.68v.19Zm2.44-1.04l.48-.27v-.19l-.48,.27v.19Zm-2.43,1.4l2.28-1.32v-.19l-2.28,1.32v.19Zm.64-1.11l2.26-1.31v-.19l-2.26,1.31v.19Z"/><g><path class="cls-5" d="M29.76,31.92l-.85-.46,.85-.52,.85,.49-.85,.49Zm3.71-5.43l-.85-.49v-.98l.85,.49v.98Zm-3.99,7.32l-.85-.49-1.12-1.06,.82,.49,1.15,1.06Z"/><path class="cls-5" d="M28.34,32.74l-.82-.49,.85-.49,.85,.49-.87,.49Zm5.13-7.86l-.85-.49v-.98l.82,.49,.03,.98Zm-.03-.98l-.82-.49,1.5,.44,.82,.49-1.5-.44Zm-4.81,6.33c.08-.05,.19-.11,.27-.16,.27,.16,.57,.33,.85,.49-.08,.05-.16,.11-.27,.16-.3-.16-.57-.33-.85-.49Zm2.79-4.83c.27,.16,.57,.33,.85,.49-.3-.16-.57-.33-.85-.49,.27,.16,.57,.33,.85,.49v.3c-.27-.16-.57-.33-.85-.49v-.3Zm-2.21,6.85l-.85-.49v-1.39l.85,.49v1.39Z"/><path class="cls-5" d="M28.64,30.23c.27,.16,.57,.33,.85,.49-.3-.16-.57-.33-.85-.49,.27,.16,.57,.33,.85,.49-.08,.05-.16,.11-.27,.14-.27-.16-.57-.33-.85-.49,.08-.05,.19-.11,.27-.14Z"/><path class="cls-5" d="M29.74,30.53v1.39l.87-.49-1.12,2.38-1.15-1.06,.87-.49v-1.39c.08-.03,.16-.08,.27-.14,.08-.05,.16-.11,.25-.19Zm1.69-5.13v-.3c.27,.16,.57,.33,.85,.49v.3c-.3-.16-.57-.33-.85-.49Z"/><path class="cls-5" d="M32.25,25.59l-.85-.49,1.23-.71,.85,.49-1.23,.71Z"/><path class="cls-5" d="M34.95,24.33l-1.5,2.16v-.98l-1.2,.71v-.6l1.2-.71v-.98l1.5,.41Z"/><path class="cls-4" d="M30.61,23.62l.85,.49c-.44-.27-1.06-.25-1.72,.05-.08,.05-.16,.08-.27,.14l-.85-.49c.08-.05,.19-.11,.27-.14,.66-.33,1.28-.33,1.72-.05Z"/><path class="cls-4" d="M27.5,30.91l-.85-.49c-.44-.25-.74-.76-.79-1.5v-.6c.11-1.61,1.17-3.44,2.51-4.34,.08-.05,.16-.11,.27-.16l.85,.49c-.08,.05-.16,.11-.27,.16-1.34,.9-2.38,2.73-2.51,4.34v.6c.05,.71,.35,1.23,.79,1.5Z"/><path class="cls-5" d="M25.48,29.49l-.85-.49,1.23-.68,.85,.49-1.23,.68Z"/><path class="cls-5" d="M29.46,24.3c.08-.05,.19-.11,.27-.14,1.34-.63,2.4-.03,2.51,1.45v.6c-.11,1.58-1.17,3.41-2.51,4.31-.08,.05-.16,.11-.27,.16-.08,.05-.16,.11-.27,.14-1.34,.63-2.4,.03-2.51-1.45v-.6c.11-1.61,1.17-3.44,2.51-4.34,.11-.03,.19-.11,.27-.14Z"/><path class="cls-5" d="M29.19,24.47l-.82-.49-.03-1.39,.85,.49v1.39Zm-5,4.18l.44-.63,.85,.49-1.5,2.16-.82-.49,.41-.6"/><path class="cls-5" d="M25.48,29.49l1.2-.71v.6l-1.2,.71v.98l-1.5-.44,1.5-2.16v1.01Zm2.84-8.19l.3-.6,.85,.49-1.15,2.38-.82-.49,.46-1.01"/><path class="cls-5" d="M28.32,23.56l1.12-2.38,1.15,1.06-.87,.49v1.39c-.08,.05-.16,.08-.27,.14-.08,.05-.16,.11-.27,.16v-1.39l-.85,.52Z"/><path class="cls-18" d="M35.01,24.27l-.85-.49-1.5-.44c-.05,0-.08,.03-.08,.05v.96l-.49,.27c-.14-.27-.33-.46-.57-.6-.49-.27-.87-.52-.85-.49-.25-.14-.55-.22-.85-.19v-.55l.82-.49c.05-.03,.05-.08,0-.11l-1.15-1.06-.85-.49h-.05s-.03,.03-.05,.03l-.27,.6s0,.08,.03,.08,.08,0,.08-.03l.25-.55,.74,.41-1.06,2.27-.74-.41,.46-.96s0-.08-.03-.08c-.03-.03-.08,0-.08,.03l-.49,1.01s0,.08,.03,.08l.85,.49v.3c-1.34,.93-2.38,2.73-2.51,4.34l-.27,.16-.82-.49s-.08,0-.08,.03l-.46,.63s0,.08,.03,.08c.03,.03,.08,0,.11-.03l.41-.57,.71,.41c-.05,.05-.74,1.06-1.42,2.05l-.71-.41,.38-.55s.03-.08-.03-.11c-.03-.03-.08,0-.08,.03l-.41,.6s-.03,.03,0,.05c0,.03,.03,.03,.03,.05l.85,.49,1.5,.44h.03s.08-.03,.08-.08v-.96l.49-.27c.14,.27,.33,.46,.57,.6l.85,.49c.27,.14,.55,.22,.85,.19v.55s-.76,.44-.85,.49c-.03,0-.05,.08,0,.11,.38,.35,1.09,1.01,1.15,1.06,.16,.08,.82,.49,.85,.49s.08,0,.08-.03c1.53-3.25,1.06-2.16,1.12-2.38,.03-.03,0-.08-.03-.08l-.85-.49v-.33c1.34-.93,2.38-2.73,2.51-4.34l.3-.16c.05,.03,.82,.49,.85,.49s.05,0,.08-.03c1.56-2.27,1.47-2.16,1.5-2.16-.05,.03-.05,0-.08-.03Zm-.93-.38l.35,.22-.96-.27s-.33-.19-.35-.22l.96,.27Zm-.68,.03v.85l-.71-.41v-.85l.71,.41Zm-3.6-.44c.3,0,.55,.05,.79,.19l.3,.19h-.16c-.27,0-.6,.08-.93,.22v-.6Zm-.3-2.18l1.01,.96-.79,.46s-.03,.03-.03,.05v1.37s-.11,.05-.19,.11c-.08,.05-.16,.08-.19,.11v-1.26c0-.05-.05-.08-.11-.05-.03,0-.63,.38-.68,.38,.79-1.77,.55-1.23,.98-2.13Zm-.35,1.88v1.15c-.35-.22-.68-.38-.71-.41v-.35c.41-.22,.68-.35,.71-.38Zm-.76,.87s.49,.27,.71,.41c-1.12,.79-2.27,2.57-2.43,4.23l-.71-.41c.11-1.58,1.15-3.33,2.43-4.23Zm-2.51,4.34c.05,.03,.66,.38,.71,.41-.3,.16-.49,.27-.6,.35l-.05,.03s-.03,.03-.05,.03c0,0-.03,0-.03,.03h-.03c-.05,.03-.14,.08-.25,.14v-.82s.3-.16,.3-.16Zm-.41,1.64s-.03,.03-.03,.05v.9l-1.31-.38s1.31-1.91,1.31-1.91v.76c0,.05,.05,.08,.11,.05,.03-.03,1.04-.6,1.09-.63v.44c-.03,.05-1.09,.68-1.17,.71Zm1.23,.3c-.22-.14-.38-.3-.52-.55,.22-.14,.44-.25,.46-.27,.03,.25,.14,.68,.35,1.01l-.3-.19Zm1.69,1.5l.71,.41s-.68,.38-.74,.41l-.71-.41,.74-.41Zm.08-.71c.35-.05,.57-.14,.71-.19v1.17l-.71-.41v-.57Zm.25,2.13l-.71-.66,.3,.19,.71,.66-.3-.19Zm1.77-1.83l-.66,.38v-.76l.66,.38Zm0,.16l-.98,2.1s-.96-.9-1.01-.93l.79-.46s.03-.03,.03-.05v-1.37s.38-.19,.38-.22v1.26c0,.05,.05,.08,.11,.05l.68-.38Zm1.72-5.52v.14c-.16,1.97-1.69,4.01-3.11,4.61-.49,.22-1.06,.27-1.53,0-.57-.33-.79-1.06-.79-1.75,0-1.8,1.28-3.99,2.87-4.81,.57-.3,1.26-.49,1.8-.14,.63,.38,.79,1.23,.76,1.94Zm.11-.6c-.03-.27-.08-.49-.19-.71l.52-.3s.66,.38,.71,.41c-.66,.38-.98,.57-1.04,.6Zm1.09,.9l-.66-.38,.66-.38v.76Zm.14-.11v-.76c0-.05-.05-.08-.11-.05-.27,.16-.85,.49-1.09,.63v-.46c.05-.03,.68-.38,1.17-.68,.03,0,.03-.03,.03-.05v-.9l1.31,.38-1.31,1.91Z"/><path class="cls-4" d="M29.46,27.11c.74-.44,1.34-.08,1.34,.76v.27l-2.68,1.53v-.27c.03-.85,.6-1.88,1.34-2.29Z"/><path d="M28.07,29.65v-.27c0-.87,.6-1.91,1.37-2.35,.79-.46,1.45-.08,1.45,.82v.27s0,.05-.03,.05l-2.68,1.53c-.05,.05-.11,0-.11-.05Zm1.42-2.48c-.71,.41-1.28,1.42-1.28,2.24v.14l2.54-1.45v-.22c0-.79-.55-1.12-1.26-.71Z"/><path class="cls-4" d="M29.46,25.39c.3-.16,.55-.03,.55,.3,0,.35-.25,.76-.55,.93s-.55,.03-.55-.3,.25-.74,.55-.93Z"/><path d="M29.22,26.79c-.05,0-.14-.03-.16-.05-.14-.08-.19-.22-.19-.41,0-.35,.25-.82,.57-1.01,.16-.11,.33-.11,.46-.03s.19,.22,.19,.41c0,.38-.25,.82-.57,.98-.11,.08-.22,.11-.3,.11Zm.49-1.39c-.05,0-.14,.03-.22,.05-.27,.16-.52,.57-.52,.87,0,.14,.05,.25,.14,.3s.19,.03,.33-.03c.27-.16,.52-.55,.52-.87,0-.14-.05-.25-.14-.3-.03-.03-.08-.03-.11-.03Z"/></g><path class="cls-19" d="M35.49,5.74v10.89l-6.49,3.75V9.48l6.49-3.75Z"/><path class="cls-36" d="M34.39,8.15l1.9-1.1v-.19l-1.9,1.1v.19Zm-1.01,.58l.86-.5v-.19l-.86,.5v.19Zm0,.37l.49-.29v-.19l-.49,.29v.19Zm0,1.11l2.91-1.68v-.19l-2.91,1.68v.19Zm0-.74l2.91-1.68v-.19l-2.91,1.68v.19Zm2.44-1.04l.48-.27v-.19l-.48,.27v.19Zm-2.43,1.4l2.28-1.32v-.19l-2.28,1.32v.19Zm.64-1.11l2.26-1.31v-.19l-2.26,1.31v.19Zm.36,1.64l1.9-1.1v-.19l-1.9,1.1v.19Zm-1.01,.58l.86-.5v-.19l-.86,.5v.19Zm0,.37l.49-.29v-.19l-.49,.29v.19Zm0,1.11l2.91-1.68v-.19l-2.91,1.68v.19Zm0-.74l2.91-1.68v-.19l-2.91,1.68v.19Zm2.44-1.04l.48-.27v-.19l-.48,.27v.19Zm-2.43,1.4l2.28-1.32v-.19l-2.28,1.32v.19Zm.64-1.11l2.26-1.31v-.19l-2.26,1.31v.19Zm.36,1.64l1.9-1.1v-.19l-1.9,1.1v.19Zm-1.01,.58l.86-.5v-.19l-.86,.5v.19Zm0,.37l.49-.29v-.19l-.49,.29v.19Zm0,1.11l2.91-1.68v-.19l-2.91,1.68v.19Zm0-.74l2.91-1.68v-.19l-2.91,1.68v.19Zm2.44-1.04l.48-.27v-.19l-.48,.27v.19Zm-2.43,1.4l2.28-1.32v-.19l-2.28,1.32v.19Zm.64-1.11l2.26-1.31v-.19l-2.26,1.31v.19Zm.36,1.64l1.9-1.1v-.19l-1.9,1.1v.19Zm-1.01,.58l.86-.5v-.19l-.86,.5v.19Zm0,.37l.49-.29v-.19l-.49,.29v.19Zm0,1.11l2.91-1.68v-.19l-2.91,1.68v.19Zm0-.74l2.91-1.68v-.19l-2.91,1.68v.19Zm2.44-1.04l.48-.27v-.19l-.48,.27v.19Zm-2.43,1.4l2.28-1.32v-.19l-2.28,1.32v.19Zm.64-1.11l2.26-1.31v-.19l-2.26,1.31v.19Z"/><path class="cls-36" d="M22.33,14.31l1.9-1.1v-.19l-1.9,1.1v.19Zm-1.01,.58l.86-.5v-.19l-.86,.5v.19Zm0,.37l.49-.29v-.19l-.49,.29v.19Zm0,1.11l2.91-1.68v-.19l-2.91,1.68v.19Zm0-.74l2.91-1.68v-.19l-2.91,1.68v.19Zm2.44-1.04l.48-.27v-.19l-.48,.27v.19Zm-2.43,1.4l2.28-1.32v-.19l-2.28,1.32v.19Zm.64-1.11l2.26-1.31v-.19l-2.26,1.31v.19Zm.36,1.64l1.9-1.1v-.19l-1.9,1.1v.19Zm-1.01,.58l.86-.5v-.19l-.86,.5v.19Zm0,.37l.49-.29v-.19l-.49,.29v.19Zm0,1.11l2.91-1.68v-.19l-2.91,1.68v.19Zm0-.74l2.91-1.68v-.19l-2.91,1.68v.19Zm2.44-1.04l.48-.27v-.19l-.48,.27v.19Zm-2.43,1.4l2.28-1.32v-.19l-2.28,1.32v.19Zm.64-1.11l2.26-1.31v-.19l-2.26,1.31v.19Zm.36,1.64l1.9-1.1v-.19l-1.9,1.1v.19Zm-1.01,.58l.86-.5v-.19l-.86,.5v.19Zm0,.37l.49-.29v-.19l-.49,.29v.19Zm0,1.11l2.91-1.68v-.19l-2.91,1.68v.19Zm0-.74l2.91-1.68v-.19l-2.91,1.68v.19Zm2.44-1.04l.48-.27v-.19l-.48,.27v.19Zm-2.43,1.4l2.28-1.32v-.19l-2.28,1.32v.19Zm.64-1.11l2.26-1.31v-.19l-2.26,1.31v.19Zm.36,1.64l1.9-1.1v-.19l-1.9,1.1v.19Zm-1.01,.58l.86-.5v-.19l-.86,.5v.19Zm0,.37l.49-.29v-.19l-.49,.29v.19Zm0,1.11l2.91-1.68v-.19l-2.91,1.68v.19Zm0-.74l2.91-1.68v-.19l-2.91,1.68v.19Zm2.44-1.04l.48-.27v-.19l-.48,.27v.19Zm-2.43,1.4l2.28-1.32v-.19l-2.28,1.32v.19Zm.64-1.11l2.26-1.31v-.19l-2.26,1.31v.19Z"/></g></svg>