<?xml version="1.0" encoding="UTF-8"?><svg id="Layer_2" xmlns="http://www.w3.org/2000/svg" viewBox="0 0 36.84 48"><defs><style>.cls-1{fill:#f6fafa;}.cls-2{fill:#fff;}.cls-3{fill:#ecf1f1;}.cls-4{fill:#9bfff7;}.cls-5{fill:#8ffff6;}.cls-6{fill:#8afff5;}.cls-7{fill:#b0cfcc;}.cls-8{fill:#d8d8d8;}.cls-9{fill:#c9e2e0;}.cls-10{fill:#c8e0de;}.cls-11{fill:#d4d6d6;}.cls-12{fill:#e0e2e2;}.cls-13{fill:#0ff1df;}.cls-14{fill:#13e5d4;}.cls-15{fill:#41e1d4;}.cls-16{fill:#3ce7d9;}.cls-17{fill:#18d6c7;}.cls-18{fill:#465756;}.cls-19{fill:#898989;}.cls-20{fill:#62f0e4;}.cls-21{fill:#5b716f;}.cls-22{fill:#5ae7dc;}.cls-23{fill:#32c9bd;}.cls-24{fill:#59b6ae;}.cls-25{fill:#4c7572;}.cls-26{fill:#5ec3bb;}.cls-27{fill:#5bfff2;}.cls-28{fill:#32b7ac;}.cls-29{fill:#4fd1c6;}</style></defs><g id="Layer_1-2"><polygon class="cls-13" points="1.22 43.26 31 25.96 35.57 28.6 5.79 45.9 1.22 43.26"/><polygon class="cls-13" points=".06 17.31 29.84 0 31.06 .7 1.28 18.01 .06 17.31"/><polygon class="cls-17" points="1.28 18.01 31.06 .7 31 25.96 1.22 43.26 1.28 18.01"/><polygon class="cls-12" points="2.38 43.95 1.62 43.51 1.57 18.59 2.33 19.03 2.38 43.95"/><polygon class="cls-3" points="2.33 19.03 1.57 18.59 30.07 2.09 30.83 2.53 2.33 19.03"/><polygon class="cls-11" points="30.83 2.53 30.89 27.45 2.38 43.95 2.33 19.03 30.83 2.53"/><polygon class="cls-12" points="3.69 44.71 2.93 44.26 2.87 19.35 3.63 19.79 3.69 44.71"/><polygon class="cls-3" points="3.63 19.79 2.87 19.35 31.38 2.84 32.13 3.28 3.63 19.79"/><polygon class="cls-11" points="32.13 3.28 32.19 28.2 3.69 44.71 3.63 19.79 32.13 3.28"/><polygon class="cls-23" points="5.75 23.6 5.51 23.46 5.49 16.88 5.73 17.02 5.75 23.6"/><polygon class="cls-15" points="5.73 17.02 5.49 16.88 9.16 14.76 9.4 14.9 5.73 17.02"/><polygon class="cls-28" points="9.4 14.9 9.42 21.48 5.75 23.6 5.73 17.02 9.4 14.9"/><g><polygon class="cls-12" points="4.99 45.46 4.23 45.02 4.17 20.1 4.93 20.54 4.99 45.46"/><polygon class="cls-3" points="4.93 20.54 4.17 20.1 32.68 3.59 33.44 4.04 4.93 20.54"/><polygon class="cls-11" points="33.44 4.04 33.49 28.95 4.99 45.46 4.93 20.54 33.44 4.04"/></g><polygon class="cls-17" points="7.06 29.83 36.84 12.52 36.78 30.69 7 48 7.06 29.83"/><polygon class="cls-13" points="5.85 29.13 35.63 11.82 36.84 12.52 7.06 29.83 5.85 29.13"/><polygon class="cls-14" points="7.06 29.83 7 48 0 43.96 .06 17.31 1.28 18.01 1.22 43.26 5.79 45.9 5.85 29.13 7.06 29.83"/><g><polygon class="cls-14" points="15.79 24.8 14.59 24.09 14.56 15.34 15.76 16.04 15.79 24.8"/><polygon class="cls-13" points="15.76 16.04 14.56 15.34 35.6 3.06 36.81 3.76 15.76 16.04"/><polygon class="cls-17" points="36.81 3.76 36.84 12.52 15.79 24.8 15.76 16.04 36.81 3.76"/></g><path class="cls-24" d="M11.1,17.95c1.9-1.1,3.44-.21,3.45,1.97,0,2.18-1.53,4.84-3.43,5.94-1.9,1.1-3.45,.22-3.45-1.97,0-2.18,1.53-4.84,3.43-5.94Z"/><path class="cls-15" d="M13.66,18.38c.27,.37,.43,.9,.43,1.56,0,1.98-1.39,4.39-3.11,5.38-1.05,.61-1.97,.55-2.54-.04,.54,.74,1.54,.87,2.68,.21,1.72-.99,3.11-3.4,3.11-5.38,0-.77-.21-1.35-.57-1.73Z"/><path class="cls-2" d="M10.98,25.32c1.72-.99,3.11-3.4,3.11-5.38,0-.66-.16-1.19-.43-1.56-.57-.6-1.5-.66-2.56-.05-1.72,.99-3.11,3.4-3.11,5.38,0,.66,.16,1.2,.45,1.57,.57,.58,1.5,.64,2.54,.04Z"/><path class="cls-15" d="M13.55,17.71c-.63-.36-1.49-.31-2.45,.24-1.9,1.1-3.44,3.76-3.43,5.94,0,1.08,.39,1.85,1,2.21l-.87-.5c-.62-.36-1-1.12-1-2.21,0-2.18,1.53-4.84,3.43-5.94,.95-.55,1.82-.6,2.44-.24l.87,.5Z"/><path class="cls-21" d="M11.12,24.67c.05-.03,.09,0,.09,.05,0,.06-.04,.13-.09,.16-.05,.03-.09,0-.09-.05,0-.06,.04-.13,.09-.16Zm1.25-1.1s.06-.02,.08,0c.02,.04,0,.11-.03,.17-.01,.02-.03,.03-.05,.04-.03,.02-.06,.02-.08,0-.02-.04-.01-.11,.03-.17,.01-.02,.03-.03,.05-.04Zm.91-1.58s.03-.01,.05-.01c.04,0,.06,.06,.03,.13-.02,.04-.05,.08-.08,.1-.02,0-.03,.01-.05,.01-.05,0-.06-.06-.04-.13,.02-.04,.05-.08,.08-.1Zm.33-1.63c.05-.03,.09,0,.09,.05,0,.06-.04,.13-.09,.16-.05,.03-.09,0-.09-.05,0-.06,.04-.13,.09-.16Z"/><path class="cls-18" d="M9.87,25.01s.03-.01,.05-.01c.04,0,.06,.06,.03,.13-.02,.04-.05,.08-.08,.1-.02,0-.03,.01-.05,.01-.04,0-.06-.06-.03-.13,.02-.04,.05-.08,.08-.1Z"/><path class="cls-16" d="M12.64,19.82l.03,.05-1.43,1.83s-.03-.02-.05-.02l1.45-1.86Z"/><path class="cls-21" d="M11.11,21.71l.04-.02s.03,0,.05,0c.02,0,.04,0,.05,.02,.03,.02,.04,.06,.04,.1,0,.11-.08,.24-.17,.3-.07,.04-.13,.03-.16-.03,0-.02-.01-.04-.02-.07h0s0-.03,0-.04c0-.03,.01-.06,.03-.09,.03-.06,.06-.11,.11-.15l.04-.03Zm1.24-3.11s.03-.01,.05-.01c.05,0,.06,.06,.04,.13-.02,.04-.05,.08-.08,.1-.02,0-.03,.01-.05,.01-.04,0-.06-.06-.04-.13,.02-.04,.05-.08,.08-.1Z"/><path class="cls-21" d="M11.15,19.8c.08-.03,.15,.02,.15,.12,0,.1-.07,.23-.15,.3v1.46l-.04,.02-.04,.02h0v-1.46c-.09,.03-.15-.02-.16-.12,0-.1,.07-.22,.15-.3v-.24l.08-.05v.24Zm-.04,.36c.06-.03,.11-.12,.11-.19,0-.07-.05-.1-.11-.06s-.11,.12-.11,.19c0,.07,.05,.1,.11,.06m-2.49,3.08s.09,0,.09,.05c0,.06-.04,.13-.09,.16-.05,.03-.09,0-.09-.05,0-.06,.04-.13,.09-.16Zm.33-1.63s.03-.01,.05-.01c.04,0,.06,.06,.04,.12-.02,.05-.05,.08-.08,.1-.02,0-.03,.01-.05,.01-.05,0-.06-.06-.04-.13,.02-.04,.05-.08,.08-.1Zm.91-1.58s.06-.02,.08,0c.03,.04,.01,.11-.03,.16-.01,.02-.03,.03-.05,.04-.03,.02-.06,.02-.08,0-.02-.04-.01-.11,.03-.17,.01-.02,.03-.03,.05-.04Zm3.42-.92s.06-.02,.08,0c.03,.04,.01,.11-.03,.17-.01,.02-.03,.03-.05,.04-.03,.02-.06,.02-.08,0-.02-.04-.01-.11,.03-.17,.01-.02,.03-.03,.05-.04Z"/><path class="cls-16" d="M10.52,22.55l.42-.54s0,.05,.02,.07l-.4,.51-.03-.04Z"/><path class="cls-21" d="M8.96,24.48s.06-.02,.08,0c.03,.04,.01,.11-.03,.17-.01,.02-.03,.03-.05,.04-.03,.02-.06,.02-.08,0-.02-.04-.01-.11,.03-.17,.01-.02,.03-.03,.05-.04Zm1.59-2.69l.43,.08h0s-.02,.07-.03,.1l-.44-.07c-.05,.09-.12,.17-.19,.21-.05,.03-.1,.04-.14,.03-.06-.01-.1-.06-.11-.13-.01-.06,0-.13,.02-.19l-.21-.04,.04-.1,.21,.04c.05-.09,.12-.17,.2-.21,.05-.03,.1-.04,.14-.03,.11,.02,.15,.16,.09,.32Zm-.08,.04c.02-.06,.03-.12,.02-.17-.01-.05-.04-.08-.08-.09-.03,0-.07,0-.1,.03-.06,.04-.12,.1-.15,.18-.03,.06-.03,.12-.03,.17,.01,.05,.04,.08,.08,.09,.03,0,.06,0,.1-.02,.06-.03,.12-.1,.15-.18m.64-2.9c.05-.03,.09,0,.09,.05,0,.06-.04,.13-.09,.16-.05,.03-.09,0-.09-.05,0-.06,.04-.13,.09-.16Z"/><g><path class="cls-15" d="M27.95,10.87l-.83,.48h0l.83-.48-.48-.28-.38,.22-.06-.03v-.45l-.48-.28-5.32,3.07v.66h-.01c-.25,.15-.39,.36-.39,.58s.14,.43,.4,.58h.01v.9c-.11-.09-.18-.19-.18-.3s.06-.21,.17-.3v-.28h-.02c-.25,.15-.39,.36-.39,.58s.14,.43,.4,.57h.01v.91c-.24-.19-.24-.42,0-.6v-.28h-.02c-.25,.16-.39,.36-.39,.58s.14,.43,.4,.57c0,0,.01,0,.02,0v.9c-.12-.09-.18-.2-.18-.31s.06-.21,.17-.3v-.28h-.02c-.25,.15-.39,.36-.39,.58s.14,.43,.4,.57h.02v.02s-.02,.01-.03,.01c-.25,.15-.39,.35-.39,.57s.14,.43,.4,.57c0,0,.02,0,.03,.01h0s-.03,.01-.03,.02c-.25,.15-.39,.35-.39,.57s.14,.43,.4,.57c0,0,.02,0,.03,.01v.03l.48,.28h0l.48,.28,.44,.26,5.32-3.07-.02-7.73Zm-6.9,3.49c0-.1,.06-.21,.17-.3v.6c-.11-.09-.17-.19-.17-.3Zm0,4.7c0-.11,.08-.22,.19-.31v.61c-.12-.09-.19-.2-.19-.31Zm0,1.17c0-.1,.08-.22,.19-.31v.61c-.12-.09-.19-.2-.19-.31Z"/><path class="cls-7" d="M21.73,21.13l-.48-.28-.02-7.73,.48,.28,.02,7.73Z"/><path class="cls-9" d="M21.7,13.4l-.48-.28,5.32-3.07,.48,.28-5.32,3.07Z"/><path class="cls-15" d="M27.02,10.33l.02,7.73-5.32,3.07-.02-7.73,5.32-3.07Z"/><path class="cls-10" d="M22.21,21.41l-.48-.28-.02-7.73,.48,.28,.02,7.73Z"/><path class="cls-1" d="M27.12,10.83l-4.93,2.85-.48-.28,4.93-2.85,.48,.28Z"/><path class="cls-15" d="M27.12,10.83l.02,7.73-4.93,2.85-.02-7.73,4.93-2.85Z"/><path class="cls-7" d="M22.65,21.67l-.48-.28-.02-7.73,.48,.28,.02,7.73Z"/><path class="cls-9" d="M22.63,13.94l-.48-.28,5.32-3.07,.48,.28-5.32,3.07Z"/><path class="cls-15" d="M27.97,18.6l-5.32,3.07-.02-7.73,5.32-3.07,.02,7.73Z"/><path class="cls-10" d="M23.46,14.24c0,.13-.08,.29-.18,.38-.02,.02-.05,.04-.07,.05-.11,.06-.2,.04-.23-.04-.01-.03-.02-.07-.02-.1,0-.1,.05-.22,.12-.32,.04-.05,.08-.09,.13-.12,.02-.01,.04-.02,.05-.02,.11-.04,.2,.03,.2,.17Z"/><path class="cls-25" d="M23.35,14.36c0,.09-.02,.18-.07,.26-.07,.12-.18,.22-.32,.31-.49,.28-1.25,.28-1.74,0-.26-.15-.4-.35-.4-.57,0-.22,.14-.42,.39-.57h.02v.27c-.11,.09-.17,.19-.17,.3,0,.14,.1,.27,.28,.37,.42,.24,1.09,.24,1.51,0,.05-.03,.1-.06,.13-.1,.09-.08,.14-.18,.14-.27,0-.05-.02-.1-.04-.15,.04-.05,.08-.09,.13-.12,.02-.01,.03-.02,.05-.02,.06,.09,.09,.19,.09,.29Z"/><path class="cls-10" d="M23.46,15.41c0,.13-.08,.29-.18,.38-.02,.02-.05,.04-.07,.05-.11,.06-.2,.04-.23-.04-.01-.03-.02-.07-.02-.1,0-.1,.05-.22,.12-.32,.04-.05,.08-.09,.13-.12,.02-.01,.04-.02,.05-.02,.11-.04,.2,.03,.2,.17Z"/><path class="cls-25" d="M23.35,15.54c0,.09-.02,.18-.07,.26-.07,.12-.18,.22-.32,.31-.49,.28-1.25,.28-1.74,0-.26-.15-.4-.35-.4-.57,0-.22,.14-.42,.39-.57h.02v.27c-.11,.09-.17,.19-.17,.3,0,.14,.1,.27,.28,.37,.42,.24,1.09,.24,1.51,0,.05-.03,.1-.06,.13-.1,.09-.08,.14-.18,.14-.27,0-.05-.02-.1-.04-.15,.04-.05,.08-.09,.13-.12,.02-.01,.03-.02,.05-.02,.06,.09,.09,.19,.09,.29Z"/><path class="cls-10" d="M23.46,16.59c0,.16-.12,.36-.25,.44-.11,.06-.2,.04-.23-.04-.01-.03-.02-.07-.02-.1,0-.16,.12-.36,.25-.44,.02-.01,.04-.02,.05-.02,.11-.04,.2,.03,.2,.17Z"/><path class="cls-25" d="M22.96,17.28c-.49,.28-1.25,.28-1.74,0-.26-.15-.4-.35-.4-.57,0-.22,.14-.42,.39-.57h.02v.27c-.11,.09-.17,.19-.17,.3,0,.14,.1,.27,.28,.37,.42,.24,1.09,.24,1.51,0,.05-.03,.1-.06,.13-.1,.13-.12,.19-.27,.1-.42,.04-.05,.08-.09,.13-.12,.02-.01,.03-.02,.05-.02,.17,.27,.11,.62-.3,.86Z"/><path class="cls-10" d="M23.46,17.76c0,.13-.08,.29-.18,.38-.02,.02-.05,.04-.07,.05-.11,.06-.2,.04-.23-.04-.01-.03-.02-.07-.02-.1,0-.16,.12-.36,.25-.44,.02-.01,.04-.02,.05-.02,.11-.04,.2,.03,.2,.17Z"/><path class="cls-25" d="M23.35,17.89c0,.09-.02,.18-.07,.26-.07,.12-.18,.22-.32,.31-.49,.28-1.25,.28-1.74,0-.26-.15-.4-.35-.4-.57,0-.22,.14-.42,.39-.57h.02v.27c-.11,.09-.17,.19-.17,.3,0,.14,.1,.27,.28,.37,.42,.24,1.09,.24,1.51,0,.05-.03,.1-.06,.13-.1,.13-.12,.19-.27,.1-.42,.04-.05,.08-.09,.13-.12,.02-.01,.03-.02,.05-.02,.06,.09,.09,.19,.09,.29Z"/><path class="cls-10" d="M23.46,18.94c0,.13-.08,.29-.18,.38-.02,.02-.05,.04-.07,.05-.11,.06-.2,.04-.23-.04-.01-.03-.02-.07-.02-.1,0-.1,.05-.22,.12-.32,.04-.05,.08-.09,.13-.12,.02-.01,.04-.02,.05-.02,.11-.04,.2,.03,.2,.17Z"/><path class="cls-25" d="M23.35,19.07c0,.09-.02,.18-.07,.26-.07,.12-.18,.22-.32,.31-.49,.28-1.25,.28-1.74,0-.26-.15-.4-.35-.4-.57,0-.22,.14-.42,.39-.57l.03-.02v.28c-.11,.09-.19,.2-.19,.3,0,.14,.1,.27,.28,.37,.42,.24,1.09,.24,1.51,0,.05-.03,.1-.06,.13-.1,.09-.08,.14-.18,.14-.27,0-.05-.02-.1-.04-.15,.04-.05,.08-.09,.13-.12,.02-.01,.03-.02,.05-.02,.06,.09,.09,.19,.09,.29Z"/><path class="cls-10" d="M23.46,20.12c0,.13-.08,.29-.18,.38-.02,.02-.05,.04-.07,.05-.11,.06-.2,.04-.23-.04-.01-.03-.02-.07-.02-.1,0-.1,.05-.22,.12-.32,.04-.05,.08-.09,.13-.12,.02-.01,.04-.02,.05-.02,.11-.04,.2,.03,.2,.17Z"/><path class="cls-25" d="M23.35,20.24c0,.09-.02,.18-.07,.26-.07,.12-.18,.22-.32,.31-.24,.14-.56,.21-.87,.21s-.63-.07-.87-.21c-.26-.15-.4-.35-.4-.57,0-.22,.14-.42,.39-.57,0,0,.03-.01,.03-.02v.28c-.11,.09-.19,.2-.19,.3,0,.14,.1,.27,.28,.37,.42,.24,1.09,.24,1.51,0,.05-.03,.1-.06,.13-.1,.09-.08,.14-.18,.14-.27,0-.05-.02-.1-.04-.15,.04-.05,.08-.09,.13-.12,.02-.01,.03-.02,.05-.02,.06,.09,.09,.19,.09,.29Z"/><path class="cls-2" d="M23.94,15.22l3.52-2.03v2.5l-3.51,2.03v-2.5Z"/><path class="cls-22" d="M27.29,14.36h-.02c-.33,.13-.61,.31-.89,.54-.21,.18-.4,.37-.59,.57-.49,.52-.93,.98-1.65,1.08h-.02v-1.22l3.16-1.83v.86Z"/><path class="cls-4" d="M25.24,15.36c0,.19-.13,.42-.3,.51-.16,.1-.3,.02-.3-.17s.13-.42,.3-.52c.17-.1,.3-.02,.3,.17Z"/><path class="cls-26" d="M27.29,15.59l-3.17,1.83v-.87h.02c.72-.11,1.15-.56,1.65-1.09,.18-.19,.38-.39,.59-.57l.02-.02c.1-.09,.21-.16,.32-.24,.05-.03,.09-.06,.13-.08l.03-.02c.12-.07,.25-.13,.39-.18,0,0,.02,0,.03-.01v1.24h0Z"/><path class="cls-10" d="M27.52,16.4v.8l-3.58,2.07v-.8l3.58-2.07Z"/><path class="cls-2" d="M24.99,13.74c-.4,0-.72,.32-.72,.72h0c0-.2-.08-.38-.21-.51-.13-.14-.32-.21-.51-.21,.2,0,.38-.08,.51-.21,.13-.13,.21-.31,.21-.51,0,.2,.08,.38,.21,.51,.13,.14,.32,.21,.51,.21Z"/></g><path class="cls-20" d="M32.12,18.66l-12.66,7.31c-.13,.07-.23,.18-.3,.31l-1.67-.94c.04-.07,.1-.12,.17-.16l13.03-7.52c.16-.09,.36-.09,.52,.01l1.73,1.01c.06,.04,.11,.09,.15,.16-.23-.29-.64-.37-.96-.18Z"/><path class="cls-29" d="M19.16,26.28c-.05,.11-.08,.22-.08,.34v11.89c0,.25,.13,.49,.34,.63l-1.75-1.05c-.17-.09-.27-.26-.27-.44v-12.03c0-.1,.03-.19,.08-.27l1.67,.94Z"/><path class="cls-5" d="M19.08,38.51v-11.89c0-.12,.03-.23,.08-.34,.07-.13,.17-.24,.29-.31l12.66-7.31c.32-.19,.73-.11,.96,.18,.1,.14,.16,.3,.15,.47v11.9c0,.27-.14,.52-.38,.65l-12.65,7.3c-.36,.21-.82,.08-1.03-.28-.07-.11-.1-.24-.1-.37h0Z"/><path class="cls-2" d="M31.78,20.57c.26-.15,.47-.03,.47,.27v9.86c-.02,.33-.2,.64-.47,.82l-4.74,2.71c-.26,.15-.47,.03-.47-.27v-9.8c.02-.33,.19-.64,.47-.82l4.74-2.76Z"/><path class="cls-15" d="M31.71,22.13v3.88l-4.06,2.34v-3.89l4.06-2.33Z"/><path class="cls-2" d="M25.41,24.26c.26-.15,.47-.03,.47,.27v9.86c-.02,.33-.2,.64-.47,.82l-4.74,2.71c-.26,.15-.47,.03-.47-.27v-9.8c.02-.33,.19-.64,.47-.82l4.75-2.76Z"/><path class="cls-27" d="M28.93,24.57c-.45,.87-.39,1.8,.13,2.07s1.31-.22,1.76-1.09,.39-1.8-.13-2.07-1.31,.22-1.76,1.09Z"/><path class="cls-2" d="M29.73,25.64c-.18,.35-.16,.72,.05,.82s.52-.09,.7-.43,.16-.72-.05-.82-.52,.09-.7,.43Z"/><path class="cls-20" d="M30.01,25.83c-.1,.18-.03,.4,.15,.5,.18,.1,.4,.03,.5-.15,.1-.18,.03-.4-.15-.5-.01,0-.03-.01-.04-.02-.17-.08-.37,0-.45,.17Zm.49-1.19c0,.07,.04,.13,.09,.13s.1-.06,.1-.13-.04-.13-.1-.13-.1,.06-.1,.13Zm-1.38,.79c0,.07,.04,.13,.09,.13s.09-.06,.09-.13-.04-.13-.09-.13-.09,.06-.09,.13Z"/><path class="cls-19" d="M25.96,33.51c.23,0,.45-.07,.65-.19,.5-.29,.72-.77,.52-1.12-.08-.13-.25-.18-.38-.1-.13,.08-.18,.25-.1,.38,0,.05-.08,.23-.32,.37s-.44,.12-.47,.09c-.08-.13-.24-.18-.37-.1h0c-.13,.08-.18,.25-.1,.38,.13,.2,.35,.31,.58,.3Zm0-3.48c.23,0,.45-.07,.65-.19,.5-.29,.72-.77,.52-1.12-.08-.13-.25-.18-.38-.1-.13,.08-.18,.25-.1,.38,0,.05-.08,.22-.32,.37s-.44,.12-.47,.09c-.08-.13-.25-.17-.38-.1h0c-.13,.08-.18,.25-.1,.38,.13,.2,.35,.31,.58,.29h0Zm0-3.48c.23,0,.45-.07,.65-.19,.5-.29,.72-.77,.52-1.12-.08-.13-.25-.18-.38-.1-.13,.08-.18,.25-.1,.38,0,.05-.08,.23-.32,.37s-.44,.12-.47,.09c-.08-.13-.25-.17-.37-.09-.13,.08-.18,.25-.1,.38,.13,.2,.35,.31,.58,.29Zm0,1.68c.23,0,.45-.07,.65-.19,.5-.29,.72-.77,.52-1.12-.08-.13-.25-.18-.38-.1-.13,.08-.18,.25-.1,.38,0,.05-.08,.23-.32,.37s-.44,.12-.47,.09c-.08-.13-.25-.17-.37-.09-.13,.08-.18,.25-.1,.38,.13,.2,.35,.31,.58,.29Zm0,3.58c.23,0,.45-.07,.65-.19,.5-.29,.72-.77,.52-1.12-.08-.13-.25-.18-.38-.1-.13,.08-.18,.25-.1,.38,0,.05-.08,.23-.32,.37s-.44,.12-.47,.09c-.08-.13-.25-.17-.37-.09-.13,.08-.18,.25-.1,.38,.13,.2,.35,.31,.58,.29Z"/><path class="cls-6" d="M31.71,26.71v3.91l-2.5,1.41v-3.87l2.5-1.44Z"/><path class="cls-8" d="M24.97,25.73v3.88l-4.06,2.34v-3.89l4.06-2.33Z"/><path class="cls-20" d="M23.03,30.03s.94-.99,1.09-1.79-.3-.96-.3-.96c0,0-.49-.25-.79,.73,0,0-.17-.45-.72,.02s-.56,1.37,.73,1.99Z"/><path class="cls-15" d="M20.97,36.36l4-2.34v-.5l-4,2.34v.5Zm0-1.27l4-2.34v-.5l-4,2.34v.5h0Zm0-1.27l4-2.34v-.5l-4,2.34v.5h0Z"/></g></svg>