<svg xmlns="http://www.w3.org/2000/svg" viewBox="0 0 51 51"><path fill="#00ffea" d="M36.188 6.529 27.534 1.5l9.093 5.185 8.654 5.029z" class="colorffbf00 svgShape"/><path fill="#40ddd0" d="m14.373 44.315-8.654-5.029-.042-14.732 8.654 5.029z" class="colorddb040 svgShape"/><path fill="#48efe1" d="m14.331 29.583-8.654-5.029 9.034-15.65 8.654 5.028z" class="colorefc348 svgShape"/><path fill="#51fff1" d="m23.365 13.932-8.654-5.028L27.534 1.5l8.654 5.029z" class="colorffd651 svgShape"/><path fill="#3acec2" d="m36.188 6.529 9.093 5.185.042 14.732-9.034 15.65L23.466 49.5l-9.093-5.185-.042-14.732 9.034-15.651z" class="colorcea03a svgShape"/><path fill="#41e1d4" d="m43.395 12.813-1.238-.706.036 12.337-8.529 14.772-11.443 6.611-5.963-3.402.002.791 7.202 4.109 11.442-6.612 8.529-14.771z" class="colorffe2a9 svgShape"/><path fill="#fff" d="m33.664 39.216 8.529-14.772-.036-12.337-5.963-3.402-11.447 6.611-8.524 14.772.035 12.337 5.963 3.402z" class="colorffffff svgShape"/><path fill="#404343" d="m21.991 39.694-1.843-1.071 7.8-20.887 1.843 1.071z" class="color434240 svgShape"/><path fill="#363838" d="m21.991 39.435-1.843-1.049L24.41 27.21l1.843 1.049z" class="color383736 svgShape"/><path fill="#1f2121" d="m29.791 18.807 7.89 11.828-7.856.212-7.834 8.847z" class="color21201f svgShape"/><path fill="#fff" d="M26.23 13.246c-1.43.458-2.605 1.567-3.131 3.117-.07.237-.392.237-.475 0a4.847 4.847 0 0 0-3.117-3.117c-.251-.084-.251-.405 0-.49a4.896 4.896 0 0 0 3.117-3.116c.083-.237.405-.237.475 0 .53 1.562 1.715 2.663 3.13 3.117a.257.257 0 0 1 0 .489z" class="colorffffff svgShape"/></svg>