<svg xmlns="http://www.w3.org/2000/svg" enable-background="new 0 0 512 512" viewBox="0 0 512 512" id="CrystalAbstractGeometry"><rect width="512" height="512" fill="#f5fffe" display="none" class="colorf5f8ff svgShape"></rect><polygon fill="#8ddbd5" points="189.261 99.712 90.576 234.915 148.8 391.821 315.578 412.548 421.172 280.306 356.039 129.317" class="colora08ddb svgShape"></polygon><polygon fill="#425150" points="323.311 173.855 317.225 168.663 352.996 126.722 359.082 131.913 323.311 173.855" class="color424651 svgShape"></polygon><polygon fill="#425150" points="144.26 247.007 89.983 238.87 91.169 230.96 145.445 239.097 144.26 247.007" class="color424651 svgShape"></polygon><polygon fill="#aae5e0" points="144.853 243.052 320.991 170.411 296.582 360.735" class="colorb3aae5 svgShape"></polygon><polygon fill="#41e1d4" points="191.399 103.251 144.853 243.052 319.68 170.95" class="colora6a1db svgShape"></polygon><polygon fill="#86d1cb" points="320.991 170.411 296.582 360.735 416.405 279.403" class="color9486d1 svgShape"></polygon><path fill="#425150" d="M299.659,368.185l-162.71-126.201l188.886-77.896L299.659,368.185L299.659,368.185z M152.756,244.12l140.749,109.166l22.642-176.551L152.756,244.12L152.756,244.12z" class="color424651 svgShape"></path><polygon fill="#73bcb6" points="296.582 360.735 420.312 278.31 315.578 412.548" class="color7873bc svgShape"></polygon><path fill="#425150" d="M147.454,393.374l-6.63-150.885l48.271-144.976l133.681,70.547l99.648,112.094l-124.278,84.355l-0.811,0.154L147.454,393.374L147.454,393.374z M148.881,243.614l6.159,140.162l139.979-26.814l115.368-78.309L317.76,174.458l-124.056-65.469L148.881,243.614L148.881,243.614z" class="color424651 svgShape"></path><path fill="#425150" d="M319.035,421.038L142.99,399.161L81.581,233.669L185.743,90.962l175.936,31.232l68.74,159.352L319.035,421.038L319.035,421.038z M154.609,384.481l157.512,19.576l99.804-124.992L350.399,136.44l-157.621-27.978L99.571,236.161L154.609,384.481L154.609,384.481z" class="color424651 svgShape"></path><polygon fill="#425150" points="311.822 413.925 292.826 362.112 300.338 359.358 319.334 411.171 311.822 413.925" class="color424651 svgShape"></polygon></svg>