<svg xmlns="http://www.w3.org/2000/svg" enable-background="new 0 0 67 67" viewBox="0 0 67 67" id="Octahedron"><path d="M19.3 30.6c.1 0 .2 0 .2 0l3.9-1c.5-.1.9-.7.7-1.2-.1-.5-.7-.9-1.2-.7l-3.9 1c-.4.1-.8.5-.8 1 0 .1 0 .2 0 .3C18.5 30.3 18.9 30.6 19.3 30.6zM54.5 30.3l-3.9-1c-.5-.1-1.1.2-1.2.7 0 .1 0 .2 0 .3 0 .5.3.8.8 1l3.9 1c.1 0 .2 0 .2 0h0c.5 0 .9-.3 1-.8.1-.3 0-.5-.1-.8C55 30.5 54.8 30.3 54.5 30.3zM27.1 28.6c.1 0 .2 0 .2 0l3.9-1c.5-.1.9-.7.7-1.2-.1-.5-.7-.9-1.2-.7l-3.9 1c-.5.1-.8.5-.8 1 0 .1 0 .2 0 .3C26.2 28.3 26.6 28.6 27.1 28.6zM11.6 32.5c.1 0 .2 0 .2 0l3.9-1c.3-.1.5-.2.6-.5.1-.2.2-.5.1-.8-.1-.5-.7-.9-1.2-.7l-3.9 1c-.4.1-.8.5-.8 1 0 .1 0 .2 0 .3C10.7 32.2 11.1 32.5 11.6 32.5zM46.7 28.3l-3.9-1c-.5-.1-1.1.2-1.2.7 0 .1 0 .2 0 .3 0 .5.3.8.8 1l3.9 1c.1 0 .2 0 .2 0 .5 0 .9-.3 1-.8C47.6 29 47.3 28.4 46.7 28.3z" fill="#41e1d4" class="color000000 svgShape"></path><path d="M64.2,33.3C64.1,33.3,64.2,33.2,64.2,33.3c0-0.1,0-0.1,0-0.1c0,0,0-0.1,0-0.1c0,0,0-0.1-0.1-0.1c0,0-0.1-0.1-0.1-0.1
		c0,0,0,0,0,0l-29.7-32c0,0,0,0,0,0c-0.2-0.2-0.4-0.3-0.7-0.3c-0.3,0-0.5,0.1-0.7,0.3c0,0,0,0,0,0l-29.7,32c0,0,0,0,0,0
		c0,0,0,0.1-0.1,0.1c0,0,0,0,0,0c0,0,0,0,0,0.1c0,0,0,0.1,0,0.1c0,0,0,0.1,0,0.1c0,0,0,0,0,0c0,0,0,0,0,0c0,0,0,0.1,0,0.1
		c0,0,0,0.1,0,0.1c0,0,0,0.1,0,0.1c0,0,0,0.1,0,0.1c0,0,0,0,0,0c0,0,0,0,0,0c0,0,0,0.1,0,0.1c0,0,0,0.1,0,0.1c0,0,0,0.1,0,0.1
		c0,0,0,0.1,0.1,0.1c0,0,0,0,0,0.1c30.6,32.4,29.7,33.6,31.1,32l29.7-32c0,0,0-0.1,0.1-0.1c0,0,0.1-0.1,0.1-0.1c0,0,0-0.1,0-0.1
		c0,0,0-0.1,0-0.1c0-0.1,0-0.1,0-0.2c0,0,0-0.1,0-0.1C64.2,33.4,64.2,33.4,64.2,33.3z M57.9,33.2l1.2,0.3l-24.6,6.1l0-12.3
		c0,0,0.1,0,0.1,0.1l3.9,1c0.1,0,0.2,0,0.2,0c0.5,0,0.9-0.3,1-0.8c0.1-0.3,0-0.5-0.1-0.8c-0.1-0.2-0.4-0.4-0.6-0.5l-3.9-1
		c-0.2-0.1-0.4,0-0.6,0.1l0-21.5l25.7,27.7l-1.8-0.4c-0.5-0.1-1.1,0.2-1.2,0.7c0,0.1,0,0.2,0,0.3C57.1,32.6,57.5,33.1,57.9,33.2z
		 M32.5,25.6C32.5,25.6,32.5,25.6,32.5,25.6l0,14L7.9,33.4c0.3-0.1,0.5-0.2,0.6-0.5c0.1-0.2,0.2-0.5,0.1-0.8
		c-0.1-0.5-0.7-0.9-1.2-0.7l-0.6,0.2L32.5,4L32.5,25.6z M32.5,41.7l0,21.3L6.8,35.2L32.5,41.7z M34.5,41.7l25.7-6.4L34.5,62.9
		L34.5,41.7z" fill="#41e1d4" class="color000000 svgShape"></path></svg>