<svg xmlns="http://www.w3.org/2000/svg" fill-rule="evenodd" clip-rule="evenodd" image-rendering="optimizeQuality" shape-rendering="geometricPrecision" text-rendering="geometricPrecision" viewBox="0 0 100000 100000" id="Tree"><path d="M23088 36411c2123,1308 3204,1476 3667,1777 -1197,402 -2470,1442 -2972,2146 965,-369 1891,-939 3087,-1342 3550,-1240 7870,-1374 11497,-604 2585,538 5903,2114 7138,3924 463,704 3394,4526 965,5095 -965,236 -2200,-166 -3165,-301 -9259,-1509 -18365,-34 -26968,-1643 -1042,-200 -2856,-771 -3704,-838 579,235 1312,638 2007,906 2468,939 5131,1106 7754,1207 -451,540 -3171,1969 -3510,3889 4504,-4702 10925,-3156 16242,-2783 -498,397 -3716,1014 -4745,3252 2701,637 5748,1140 6906,-1509l-2855 335c540,-536 1620,-704 2276,-1105 694,-436 347,-269 -116,-403 0,-301 -77,-201 309,-201 1813,335 6559,1140 7678,2079 1447,1206 7435,11872 -2794,10281 -3202,-492 -4413,-1408 -8720,-1408 -1114,0 -3111,-118 -4012,403 1544,33 4938,-101 6135,402 -695,1743 -3781,1442 -5209,1509 3164,737 2933,502 5401,-705 1866,-928 4720,14 5286,671 -501,235 -2276,570 -3048,872 -3319,1307 -1697,1945 -5903,1274 -4684,-764 -9349,-3201 -12809,-2314 -965,235 -2044,973 -2315,1543 3627,-1676 4475,-1576 8334,-201 774,279 1904,392 2469,1005 -960,1334 -2633,1296 -3356,1610 2893,335 3549,-1408 4668,-1475 322,-25 4501,458 5054,939 -385,636 -1737,1710 -2778,2145 -2585,1106 -5787,335 -8449,1241 -1351,436 -1775,1107 -2740,1844 5672,-2816 5518,-1073 9723,-1811 1234,-235 1813,-671 2739,-939 -154,704 -1273,2013 -1697,2381 -2547,2313 -5980,2883 -9529,2750 1724,1495 10324,227 11959,-5097 348,-1139 232,-771 926,-1408 1274,-1140 2161,-2045 3974,-2682 2083,-771 5710,-1207 7949,-738l-387 403c-2932,1608 -3858,1273 -7176,871 1118,737 2778,872 4359,772 -153,200 -926,1307 -1002,1374 -632,550 -4571,489 -6867,1945 -1158,771 -2586,2045 -3049,3453 2353,-2716 5170,-4527 9029,-4527 -383,808 -2827,2833 -3667,3521 -2121,1710 -2545,1442 -4552,2481 887,134 1197,-34 2007,-100 -1490,2911 -7221,1656 -9801,1408 2470,1541 5518,804 8064,636 -887,1878 -4128,3319 -6095,3755 3519,94 6330,-2371 8256,-4995 810,-1106 848,-1475 2199,-2179 -502,1341 -1389,3453 -578,4962 123,-1765 1233,-6250 2893,-6572 1621,1778 -1235,6404 -2044,7376 -2046,2415 -3319,3152 -6637,3454 1968,401 2894,335 4591,-637 2233,-1286 4090,-3778 4901,-6236 694,-2146 385,-2817 39,-4896 848,-1072 2313,-2480 3433,-3319 1621,-1207 2508,-1240 4784,-1676 -1113,2211 -1859,3646 -4283,5298 -463,301 -1466,904 -2045,972 1274,33 2007,-537 2971,-839 -193,1040 -1350,2649 -2006,3051 1003,-134 1929,-1240 2353,-2045 849,-1642 347,-1139 1660,-2615 0,5682 -9612,12493 -7948,17703 300,-3545 2870,-6598 5131,-9187 347,-368 502,-704 1119,-771 1389,1375 1389,4593 1427,6806 1389,-1374 347,-5499 -77,-6873 -1157,-3688 540,-2716 1505,-7409 232,-1107 887,-2750 1582,-3152 115,704 -38,2950 0,3956 39,1039 -2354,2950 -2161,6068 77,1275 618,1979 1003,2918 -231,-2783 -1234,-3756 849,-6639 232,-369 232,-336 579,-536 763,1243 2004,6652 771,8951 -539,1040 -926,1207 -1697,1811 1582,-303 2662,-2045 3010,-3890 385,-2111 0,-4190 -463,-6169 1581,303 1774,1208 1813,2918 424,-671 502,-2012 39,-2783 -541,-805 -1042,-872 -2084,-1342 -386,-937 -772,-4425 -155,-5263 1081,302 1660,3185 1776,4056 269,1946 1079,2347 1658,4024 386,1140 116,1274 -232,2313 -578,1845 -1504,5633 -115,7108 -38,-3352 78,-4224 1389,-7074 1458,633 5431,6079 6057,8817 116,538 155,1275 309,1710 743,-7228 -7285,-10860 -8025,-18004 1766,1364 1709,4266 3974,4593 -926,-837 -1621,-1810 -2006,-3051 656,302 1658,705 2545,806 -2786,-1777 -4450,-3046 -5864,-6237 4293,722 5074,1580 8218,4995 -463,1878 -655,2918 0,4862 1433,4144 5489,8218 9492,6907 -3087,-201 -4823,-1240 -6675,-3554 -926,-1140 -3666,-5766 -1891,-7343 2123,1039 2817,4192 2894,6371 771,-1543 -386,-3521 -695,-4728 2669,1546 1721,2213 4128,4392 1649,1492 3269,2648 5749,2783 -393,-341 -3340,-1188 -4514,-2548 -346,-402 -733,-939 -1080,-1073 2053,-111 4646,1037 8218,-737 -2741,216 -3923,999 -8179,0 -965,-235 -1196,-604 -1659,-1442 771,167 1118,235 1967,134 -1157,-671 -2276,-570 -4553,-2481 -1079,-872 -3009,-2247 -3665,-3521 5325,-66 7100,3085 8373,3756 -772,-1240 -2701,-3118 -4360,-3856 -1968,-905 -4321,34 -5054,-1040 -386,-502 -656,-704 -850,-1105 2894,234 2547,-202 4438,-739 -1891,168 -4051,571 -5827,-133 -539,-202 -1311,-269 -1735,-604 -463,-302 -154,34 -309,-503 3339,-701 8219,-61 11073,2280 2315,1878 1467,1911 2701,4057 2005,3352 9491,5096 11304,3554l-1350 0c-4591,100 -8604,-2012 -9877,-5197 2277,771 1928,1072 4977,1072 4322,0 3704,0 7369,1643 -2903,-4076 -9939,-95 -13928,-5162 1127,-489 4454,-935 5517,-972 1539,1893 3636,1443 4514,1475 -1967,-235 -2739,-571 -3665,-1677 1466,-570 3897,-1543 5402,-1811 2584,-502 3741,268 5517,1140 -3497,-4915 -16084,2669 -18635,771 -2122,-1575 -4592,-1643 -5479,-2179 463,-469 1775,-804 2508,-972 2508,-536 3164,1039 5324,1375 1351,201 2083,-336 2894,-336 -1543,-167 -4552,235 -5286,-1676l6096 -268c0,-377 -3607,-403 -3975,-403 -4359,0 -4744,772 -8063,1408 -11771,2247 -5111,-12284 -4690,-12495l7793 -2916c4658,-1149 11661,-353 15626,2581 540,403 926,872 1350,1174 -540,-2447 -3395,-3421 -3549,-3822 2815,-303 7021,-336 9607,-2146 -1158,167 -2393,536 -3666,704 -7138,939 -14893,-872 -20063,-33 -2315,401 -10339,3486 -9297,100 1030,-3530 9647,-6399 15162,-5700 3395,436 3974,1174 6443,2113 -540,1072 -1080,1307 -540,2916 540,-436 733,-1240 1312,-1709l-618 2078c2045,-469 2315,-2816 2084,-4995 -1151,188 -1673,1454 -2238,1508 -1235,-1207 -1543,-1140 -2430,-1811 739,-482 5779,-1776 6867,-6637 -424,402 -695,904 -1081,1407 -6216,8139 -8770,1604 -20370,5230 -5259,1644 -7530,4323 -7408,604 39,-1039 39,-1173 772,-1508 2816,-1341 7601,-2683 10610,-2817l-3704 67c848,-837 2623,-1944 2469,-3587 -1389,3789 -4823,3822 -7099,4626 -965,303 -2007,906 -2855,1107 77,-1006 232,-2046 348,-3051 115,-1475 76,-1610 1040,-2246 2123,-1308 3666,-1610 4399,-2079 -2585,-33 -4050,1274 -5208,1475 -198,-3401 796,-6955 -5055,-9320 1505,1173 3203,3051 3704,4995 463,1643 78,6471 -501,7980 -618,-68 -1698,-1140 -2393,-1543 -2121,-1240 -6096,-3016 -8487,-3151 2451,494 8269,3270 9684,5062 463,571 1234,671 1157,1811 -77,838 -618,4358 -926,4861 -1299,-205 -3392,-5003 -15316,-4659 -4824,133 -5402,1340 -8527,-303 -2856,-1508 -3550,-3353 -4977,-4961 424,1776 1774,3486 2700,4325l-1350 -470c155,1274 618,2213 1813,2347l-501 -872c501,202 385,302 848,537l-116 -939zm12231 8985c-424,-268 -463,-133 -964,-33 369,642 1090,663 964,33zm21220 4024c231,-102 270,-202 386,-370 77,436 155,370 155,370 0,-34 76,0 76,0 348,-437 387,-839 155,-1509 -463,268 -772,670 -772,1509zm-10726 4291c231,-168 194,-100 270,-368 -733,-35 -1273,133 -1428,670 657,201 926,269 1505,-67 -77,-370 347,-168 -347,-235zm2972 -31415c37,-33 37,-101 37,-67l-37 -402 385 301c39,-838 -424,-1207 -1119,-1442 39,771 116,1309 734,1610zm-25734 20250l-194 -771 579 570c-38,-1005 -385,-1442 -1235,-1776 0,1038 0,1709 850,1977zm-10225 8718c541,570 1852,905 2778,1105 1697,-66 1467,-166 2585,-837 -579,-536 -2122,-503 -2778,-905l2855 -202c-1427,-2514 -6057,-905 -6790,-133 308,368 733,804 1350,972zm40434 -22867c153,-167 153,-33 231,-636l348 569c694,-704 115,-1944 -426,-2380 -463,972 -616,1442 -153,2447zm-33527 19045c-777,-900 -2019,-428 -2509,0 424,503 1929,1207 2431,402l-695 -302 773 -100zm25811 -28465l192 -939 386 972c501,-1005 193,-1844 -347,-2715 -618,636 -1081,1978 -231,2682zm2854 9790l309 -906 78 1007c1041,-671 463,-1811 192,-2683 -771,469 -1351,2045 -579,2582zm-28088 22732c-500,301 -1273,972 -1504,1541 1723,881 5963,985 6868,-1375 -1506,-72 -1826,235 -2971,235l2663 -1340c-1483,-1253 -3964,-96 -5056,939zm-2468 -6304c694,402 1581,671 2199,0l-1004 -302 1042 -167c-579,-771 -2045,-603 -2778,0l541 469zm59029 -7979l1003 -571c-153,168 -501,705 -579,939 1197,-133 1544,-1140 1776,-2212 -734,-100 -2084,536 -2200,1844zm-35533 -3219l-271 -1074c502,671 349,604 773,839 115,-1307 -695,-2212 -1621,-2548 -116,1241 0,2448 1119,2783zm-2315 402l-270 -1073 772 805c115,-1274 -734,-2180 -1621,-2515 -116,1241 -39,2482 1119,2783zm-21952 5297c-194,-469 -348,-469 -657,-804l1003 435c-231,-1172 -1196,-1508 -2547,-1575 194,872 1158,2279 2201,1944zm60109 3220l1041 -436c-115,100 -578,670 -694,837 1157,101 2046,-871 2199,-1977 -1273,66 -2237,369 -2546,1576zm-54014 2077c-115,-133 -502,-636 -694,-804l1042 470c-271,-1241 -1236,-1475 -2586,-1577 232,873 1158,2348 2238,1911zm18481 -7810c-116,-370 -541,-638 -733,-873l1041 437c-231,-1141 -1273,-1510 -2546,-1543 191,940 964,2094 2238,1979zm18905 -3924l1119 -336c-155,135 -772,638 -811,806 1235,201 2200,-806 2354,-1778 -1376,0 -2253,168 -2662,1308zm-2354 3386l1042 -469c-308,268 -502,469 -810,905 1273,34 2006,-872 2276,-2011 -1274,100 -2508,435 -2508,1575zm24500 2549l1042 -436c-194,134 -618,503 -734,872 1197,133 1968,-1040 2238,-1945 -1119,-67 -2354,268 -2546,1509zm-25271 -6371c424,-100 231,-201 732,-771l-269 1039c1042,-268 1389,-1508 1118,-2748 -810,335 -1813,1173 -1581,2480zm19020 22095l-1196 -335c409,1301 1728,1379 3009,1240 -192,-804 -1389,-2045 -2778,-1676l965 771zm-52818 101c385,-302 695,-436 926,-772 -1196,-503 -2469,974 -2778,1643 479,179 2885,284 3048,-1207l-1196 336zm32486 -10796c463,-368 270,-470 694,-1039l-155 1207c1274,-470 1081,-1845 889,-3253 -926,536 -1815,1610 -1428,3085zm-12694 235l-155 -1308 579 1139c872,-883 -490,-2737 -1195,-2983 -310,536 -618,2682 771,3152zm-17902 -16026l308 -1375 387 1340c887,-1039 386,-2648 -424,-3553 -540,402 -1428,2514 -271,3588zm888 15153l-386 -1340c618,503 386,804 964,1006 231,-1644 -1158,-2917 -2006,-3052 -76,1510 -39,2917 1428,3386zm8796 -18204c232,-403 193,-973 347,-1543l271 1476c1226,-753 242,-2985 -347,-3554 -387,268 -656,1039 -772,1643 -193,1139 38,1340 501,1978zm28975 -168c308,-369 193,-671 386,-1107l232 1107c1350,-503 347,-2749 -77,-3621 -733,569 -1467,2213 -541,3621zm4785 28733l848 1106c-424,-201 -733,-570 -1234,-670 154,1340 1465,2044 3009,2246 -270,-1341 -1042,-2817 -2623,-2682zm-38698 1207c347,-369 579,-705 849,-1140 -1467,0 -2354,1308 -2585,2682 1465,-34 2778,-704 3009,-2247 -618,269 -733,537 -1273,705zm43791 -26823c37,-536 37,-938 269,-1340l155 1374c1196,-871 694,-2682 -77,-3621 -904,725 -1247,2488 -811,3219 347,603 39,167 464,368zm-41013 -4391l39 -1308 540 1207c1002,-1106 -116,-3252 -887,-3621 -579,906 -1004,2985 308,3722zm33527 -201l386 -1375 77 1475c1312,-1006 926,-2146 425,-3789 -965,604 -1698,2380 -1312,3219 308,738 39,202 424,470zm-18211 8717c-115,-269 -810,-1140 -1002,-1308 502,201 849,569 1465,839 -192,-1744 -1658,-2347 -3278,-2482 192,1375 1273,3118 2815,2951zm-5554 13377c1118,805 2545,1307 3626,302l-1544 -470 1583 -100c-695,-1509 -2817,-671 -4091,-201l426 469zm-18559 -1106c386,469 1196,871 1814,1073 1466,436 1697,0 2198,-403l-1388 -469 1466 -135c-463,-1172 -3164,-972 -4090,-66zm66090 8885c-380,-662 -2864,-2021 -4205,-604l1698 403 -1737 201c734,1575 3204,402 4244,0zm-50773 -32321l733 -1676 -77 1743c1582,-536 1080,-2883 656,-4258 -656,335 -2315,2347 -1312,4191zm-25541 26353c386,-68 1389,-269 1660,-469 -1081,-1308 -3319,-102 -4167,536 500,671 2507,1442 4243,368 -463,-503 -539,-200 -1736,-435zm-1620 5900c589,-366 538,-65 1543,-503 -1119,-1173 -3588,-201 -4167,604 1072,745 3339,1508 4244,67l-1620 -168zm76198 -6034c-1273,-570 -2816,-1778 -4244,-370l1697 403 -1697 201c526,1327 3592,785 4244,-234zm-52856 -26085l732 -1676 78 1810c579,-604 887,-770 964,-1877 39,-804 -77,-2012 -579,-2447 -810,737 -2160,2615 -1195,4190zm-6559 2916l38 -1709 540 1643c1351,-1207 0,-3822 -887,-4258 -193,772 -1466,3454 309,4324zm41128 -234l540 -1508 76 1609c1389,-571 1004,-3151 194,-4291 -771,469 -2122,3319 -810,4190zm-10455 -2816l-78 -1643 694 1476c1119,-939 0,-3185 -1195,-4124 -502,771 -1042,3721 579,4291zm3857 134l-116 -1643 695 1509c1081,-838 77,-3219 -1195,-4091 -580,939 -1042,3622 616,4225zm-26930 20954l-501 -1709 1080 1375c925,-1542 -1427,-3656 -2277,-3722 -115,1744 78,3822 1698,4056zm26314 68c385,-369 655,-972 1040,-1408l-501 1743c1659,-301 1852,-2313 1698,-4057 -655,0 -3227,1998 -2237,3722zm-31214 -6202l-1118 -1510 1542 1006c78,-1776 -1889,-2581 -3549,-2782 176,1327 1291,3440 3125,3286zm35842 -671c502,-168 1120,-637 1583,-905l-1081 1475c1843,0 2755,-1480 3125,-3253 -1775,-33 -3511,1107 -3627,2683zm-14043 -16027c386,-536 116,-1072 502,-1810l231 1777c1505,-771 579,-3587 -231,-4560 -1042,1174 -1621,3253 -502,4593zm-13504 24342l-192 -1878 848 1710c1196,-1643 -617,-3789 -1543,-4393 -655,1476 -694,4058 887,4561zm19099 -268l732 -1643 -116 1843c1891,-804 1389,-3822 889,-4559 -773,335 -2856,3017 -1505,4359zm926 4794c2623,603 4012,-2380 4012,-2649 -2007,-234 -3935,235 -4359,1945l1774 -536c-540,636 -1003,636 -1427,1240zm6790 -972c2160,671 3973,-1207 4359,-2179 -1543,-504 -4437,-168 -4553,1441l1776 -369 -1582 1107zm-27818 -1778c-308,-436 -694,-569 -1080,-872 0,-33 -116,-100 -116,-133l1544 334c-310,-1809 -2315,-2077 -4322,-2011 0,738 1659,3218 3974,2682zm40588 -11131c771,-335 771,-671 1582,-1072 -270,670 -695,972 -964,1609 1890,-34 2931,-2079 3009,-3823 -1659,269 -3627,1342 -3627,3286zm-36344 2716c424,704 3164,2817 4553,1475l-1659 -771 1891 67c-1074,-2083 -4266,-1272 -4785,-771zm8488 671l1930 -168 -1699 804c1120,1475 3898,-502 4553,-1441 -733,-536 -4012,-1174 -4784,805zm-32138 -2750c-232,-469 -850,-1273 -1119,-1709 463,368 1158,972 1658,1207 39,-1978 -1850,-3052 -3626,-3320 193,1845 1196,3957 3087,3822zm17207 -3687l-231 -1543 887 1140c1080,-1643 -1582,-3855 -2739,-4258 -155,2079 231,4325 2083,4661zm-8179 21557c424,-704 848,-905 1311,-1709 -2193,103 -3399,1911 -3742,3822 2006,-202 4283,-1140 4283,-3152 -657,235 -1157,738 -1852,1039zm41167 -1809c308,636 1080,1173 1312,1709l-1737 -1073c-425,1877 2392,2984 4166,3185 -160,-1496 -1365,-3821 -3741,-3821zm-23111 -15222l-1543 -1576 2045 939c-232,-2113 -2739,-2682 -4591,-2682 424,1441 2237,4090 4089,3319zm10533 -7309c308,-403 463,-1308 733,-2046l77 2214c1808,-1159 1275,-3523 502,-5232 -850,370 -2832,3544 -1312,5064zm-15433 234l-39 -1944c502,536 271,838 734,1810 1527,-992 6,-4453 -1273,-5062 -271,837 -695,1776 -657,2883 0,1140 386,2179 1235,2313zm-8796 302l-656 -2179c424,469 887,1307 1311,1743 1162,-1275 -1233,-4121 -2662,-4593 -385,1811 -77,4493 2007,5029zm12924 -603c271,-469 348,-1308 424,-1945l348 2012c2083,-1308 425,-4895 -116,-5332 -1003,872 -2237,4225 -656,5265zm31675 2111c695,-368 579,-937 1389,-1709l-578 2078c1967,-369 2277,-2849 2045,-4995 -656,100 -1736,1074 -2122,1609 -734,906 -965,1609 -734,3017zm-33874 19916c-1968,336 -2431,2716 -2276,4962 848,-135 4089,-2682 2971,-4493 -502,470 -850,1107 -1389,1610l694 -2079zm13041 2079l-1466 -1811c-733,2750 2508,4594 3047,4493 78,-1777 -385,-4963 -2315,-4794l734 2112zm-35457 -21626l-617 -2078 1427 1744c232,-1543 194,-1845 -694,-2951 -385,-536 -1350,-1509 -2161,-1710 -270,1811 -115,4493 2045,4995zm44755 -2346c425,-370 810,-1241 1351,-1810l-618 2144c2238,-502 2160,-3151 2084,-5029 -1350,437 -3704,2549 -2817,4695zm-24576 21055c-1930,-1207 -4476,1307 -4978,2414 1891,403 4592,503 5286,-1643 -1311,114 -1477,531 -2083,268l1775 -1039zm-31984 -8382c463,1006 3009,3823 4938,2481 -232,-301 -1466,-939 -1852,-1240l2199 469c-618,-2079 -3125,-1945 -5285,-1710zm20023 3889c810,470 2084,1006 2933,235l-1814 -1173 2122 401c-1003,-2246 -4090,-2078 -5246,-1575 232,303 701,1303 2005,2112zm51121 1845c1273,1273 4012,-704 4899,-2314 -964,-571 -4822,-604 -5207,1610l2276 -470 -1968 1174zm-56059 1541c810,1006 3935,2616 5401,1039 -1011,-560 -1353,-287 -2044,-737l2160 -100c-695,-1778 -4051,-1207 -5517,-202zm33721 1074l1774 1106 -2084 -437c271,1711 3280,2414 5209,1610 -579,-1542 -3742,-3621 -4899,-2279zm-10534 -29705l271 -2381c116,570 269,1911 579,2346 1697,-1441 346,-4425 -695,-5599 -1120,1141 -1930,5063 -155,5634zm3742 14214c734,-268 1273,-837 2046,-1173 -310,604 -1234,1274 -1428,1911 2388,0 3709,-2137 4090,-4325 -2083,235 -4592,1140 -4708,3587zm10070 -3118c541,-536 1081,-1340 1544,-1944l-772 2380c2161,-369 2662,-3017 2430,-5398 -967,141 -4193,2579 -3202,4962zm-47802 9288c463,1106 3935,4124 5980,2481l-2430 -1308 2778 403c-1120,-2481 -4130,-2213 -6328,-1576zm65936 1474l2739 -435 -2508 1274c1698,1610 5325,-839 6057,-2481 -1350,-201 -3934,-838 -5478,369 -308,234 -810,737 -810,1273zm-193 12440c656,402 1852,469 2700,670l-2778 335c1248,2066 5333,1002 6521,-201 -1131,-1147 -4628,-2756 -6443,-804zm-59262 201c-574,-1936 -5638,-679 -6404,771 872,1082 5714,2250 6482,100l-2817 -335 2739 -536zm57758 -15121c887,-370 1350,-972 2237,-1342 -540,939 -1274,1510 -1543,2113 2894,201 4514,-3285 4630,-4895 -2315,235 -5209,1374 -5324,4124zm-56985 872c-155,-469 -1428,-1911 -1737,-2314 232,201 2122,1442 2469,1509 -38,-705 -116,-1241 -501,-1744 -1004,-1306 -3241,-2347 -4861,-2280 386,2214 1967,4963 4630,4829zm17245 -13445l78 -2649 848 2515c2046,-1374 -155,-6069 -1312,-6538 -1196,1911 -1735,5767 386,6672zm31869 4627c399,-495 477,-2064 926,-2648l77 2748c2238,-670 1466,-5531 386,-6705 -695,671 -1428,1677 -1813,2917 -579,1709 -463,2515 424,3688zm-41553 235l116 -2918 810 2750c1852,-939 386,-5465 -1312,-6504 -1273,1710 -1619,5599 386,6672zm31869 -5130l926 -2715 77 2815c2018,-242 1755,-5212 347,-6637 -1395,1594 -3228,4905 -1350,6537zm-28435 27325c733,1005 4745,3386 6675,1240l-2546 -838 2662 -134c-670,-2253 -4688,-1323 -6791,-268zm49770 -2549c2276,1979 5749,-100 6675,-1240 -2121,-1174 -6019,-1978 -6790,201l2739 202c-649,375 -2077,416 -2624,837zm-14043 2381c-1235,-368 -1930,-939 -3588,-1073 -1428,-101 -2856,335 -3241,1375l2931 235 -2815 737c1504,2012 5941,169 6713,-1274zm-12462 -29438c424,-770 463,-1944 964,-2615l39 2817c2276,-804 1659,-4861 694,-6940 -1581,872 -3627,5566 -1697,6738zm-11845 336l39 -3051 965 2884c1928,-1978 37,-5231 -1544,-6773 -1232,2043 -1735,5969 540,6940zm33759 27158l-2932 -369c1032,2838 5707,2174 6868,1407 -734,-1240 -4167,-4123 -6598,-2346l2662 1308zm-8912 -2280c-1234,-1107 -4090,-2448 -5362,-1006l2661 1274 -2971 -336c1197,3018 6212,1979 6906,1375 -116,-201 -1003,-1107 -1234,-1307zm-41282 -9991c334,871 3991,4393 6597,2682 -425,-436 -2006,-1174 -2624,-1308 541,-268 1891,168 2971,268 -1083,-2994 -6062,-2304 -6944,-1642zm39469 1911l2970 -436 -2701 1408c2923,1905 6418,-1999 6637,-2615 -1158,-772 -6135,-1173 -6906,1643zm3819 7509c2045,2414 6636,-234 7330,-1273 -1118,-1040 -5980,-2447 -7445,235l3124 168c-38,0 -77,33 -115,66 -502,268 -2199,570 -2894,804zm-34492 -12941c-425,-972 -1273,-1744 -1736,-2749 887,503 1659,1441 2623,1979 39,-3153 -2893,-4728 -5632,-5197 -116,1408 1505,6235 4745,5967zm27239 -905c656,-201 1505,-1240 2508,-1777 -386,973 -1119,1576 -1621,2615 1968,-67 2700,-939 3434,-2045 618,-972 1273,-2515 1389,-3923 -1273,33 -2971,939 -3781,1509 -1196,838 -1813,1609 -1929,3621zm-11575 -10595l154 -3286c347,504 733,2515 965,3152 2276,-2280 39,-6337 -1389,-7544 -881,855 -2550,6291 270,7678zm20834 10092c849,-737 1389,-2012 2161,-2749l-1119 3319c3317,-738 3627,-4560 3356,-7410 -694,-33 -5787,3152 -4398,6840zm-45950 671l-1120 -3354 2162 2750c1656,-2261 -2406,-6390 -4322,-6840 -386,3186 347,6974 3280,7444z" fill="#41e1d4" class="color000000 svgShape"></path></svg>