<svg xmlns="http://www.w3.org/2000/svg" enable-background="new 0 0 100 100" viewBox="0 0 100 100"><path fill="#00c7b7" d="M32.545,66.34l-7.048,4.096c0.195-0.113,0.315-0.354,0.316-0.697l7.048-4.096
					C32.86,65.987,32.74,66.227,32.545,66.34z" class="colorc77a00 svgShape"/><path fill="#00c7b7" d="M26.602 68.089l7.048-4.096c-.489.285-.787.849-.789 1.651l-7.048 4.096C25.816 68.938 26.113 68.373 26.602 68.089zM25.069 65.451l7.048-4.096c.535-.311 1.196-.425 1.939-.322l-7.048 4.096C26.264 65.026 25.604 65.14 25.069 65.451z" class="colorc77a00 svgShape"/><path fill="#6ac7bf" d="M26.602 68.089l7.048-4.096c.599-.348 1.485-.277 2.47.292l-7.048 4.096C28.087 67.812 27.201 67.741 26.602 68.089zM38.288 65.536c.869.502 1.658 1.299 2.241 2.189-.247.144-.576.335-.823.478-.129.075-.302.175-.431.25-.267.155-.624.363-.891.518-1.634.95-3.268 1.899-4.902 2.849-.582-.891-1.372-1.688-2.24-2.189C33.354 68.403 36.173 66.765 38.288 65.536zM40.528 67.726c.62.949 1.006 2.005 1.003 2.924l-7.048 4.096c.003-.919-.383-1.975-1.003-2.924C35.83 70.456 38.179 69.091 40.528 67.726z" class="colorc7a06a svgShape"/><path fill="#6ac7bf" d="M31.24,69.632c1.794,1.036,3.249,3.331,3.244,5.113l-8.67-5.006
					c0.005-1.783,1.468-2.393,3.259-1.359L31.24,69.632z" class="colorc7a06a svgShape"/><path fill="#00c7b7" d="M27.008,65.129c0.677,1.631,1.835,3.119,3.15,3.878c1.314,0.759,2.477,0.611,3.161-0.234
					c0.902,0.918,1.681,2.016,2.258,3.166c-0.683,0.564-1.09,1.52-1.094,2.806c-0.002,0.69,0.482,1.527,1.079,1.872
					c0.6,0.346,1.087,0.069,1.089-0.62c-0.002,0.69-0.489,0.967-1.089,0.62c-0.597-0.345-1.081-1.182-1.079-1.872
					c0.005-1.783-1.45-4.078-3.244-5.113l-2.167-1.252c-1.791-1.034-3.254-0.424-3.259,1.359c-0.002,0.69-0.489,0.967-1.089,0.62
					c-0.597-0.345-1.081-1.182-1.079-1.872C23.653,66.105,25.042,64.856,27.008,65.129z" class="colorc77a00 svgShape"/><polygon fill="#6ac7bf" points="29.072 68.381 36.12 64.285 38.288 65.536 31.24 69.632" class="colorc7a06a svgShape"/><path fill="#00c7b7" d="M41.532,70.65c-0.002,0.69,0.482,1.527,1.079,1.872c-2.349,1.365-4.699,2.73-7.048,4.096
					c-0.597-0.345-1.081-1.182-1.079-1.872C36.833,73.38,39.182,72.015,41.532,70.65z" class="colorc77a00 svgShape"/><path fill="#00c7b7" d="M42.61,72.522c0.302,0.174,0.575,0.191,0.773,0.076l-7.048,4.096
					c-0.197,0.115-0.471,0.098-0.773-0.076C37.912,75.252,40.261,73.887,42.61,72.522z" class="colorc77a00 svgShape"/><path fill="#00c7b7" d="M43.699,71.901c-0.001,0.343-0.122,0.583-0.316,0.697l-7.048,4.096
					c0.195-0.113,0.315-0.354,0.316-0.697C38.766,74.768,41.585,73.13,43.699,71.901z" class="color0080c7 svgShape"/><path fill="#00c7b7" d="M43.699 71.901c-.001.343-.122.583-.316.697l-7.048 4.096c.195-.113.315-.354.316-.697C38.766 74.768 41.585 73.13 43.699 71.901zM37.206 64.911c1.014.585 1.937.631 2.62.234l-7.048 4.096c-.683.397-1.607.351-2.62-.234C32.507 67.642 34.856 66.277 37.206 64.911c-2.35 1.365-4.699 2.73-7.048 4.096-1.315-.759-2.473-2.247-3.15-3.878l7.048-4.096C34.733 62.664 35.891 64.152 37.206 64.911z" class="colorc77a00 svgShape"/><path fill="#00cbba" d="M38.294,62.508l-7.048,4.096c-0.288,0.167-0.667,0.152-1.081-0.087l7.048-4.096
					C37.627,62.66,38.006,62.676,38.294,62.508z" class="colorcb7e00 svgShape"/><path fill="#00cbba" d="M29.096,62.192l7.048-4.096c-0.336,0.195-0.548,0.64-0.55,1.27
					c-0.003,1.167,0.722,2.537,1.619,3.055l-7.048,4.096c-0.897-0.518-1.622-1.888-1.619-3.055
					C28.548,62.832,28.76,62.387,29.096,62.192z" class="colorcb7e00 svgShape"/><path fill="#00c7b7" d="M42.625 67.844c-.683.564-1.09 1.519-1.093 2.806-2.349 1.365-4.699 2.731-7.048 4.096.004-1.286.41-2.242 1.094-2.806C37.692 70.711 40.511 69.073 42.625 67.844zM40.367 64.678c.902.918 1.681 2.016 2.258 3.166l-7.048 4.096c-.577-1.15-1.356-2.248-2.258-3.166C35.433 67.545 38.252 65.907 40.367 64.678z" class="colorc77a00 svgShape"/><path fill="#cdcdcd" d="M36.144,58.096c0.288-0.167,0.667-0.151,1.081,0.088l-7.048,4.096
					c-0.414-0.239-0.793-0.255-1.081-0.088C31.21,60.963,34.03,59.325,36.144,58.096z" class="colorcdcdcd svgShape"/><path fill="#00c7b7" d="M37.44,74.346l7.048-4.096c-0.489,0.284-0.786,0.849-0.789,1.651l-7.048,4.096
					C36.653,75.195,36.951,74.631,37.44,74.346z" class="color0080c7 svgShape"/><path fill="#cdcdcd" d="M38.844,61.242c-0.002,0.628-0.214,1.071-0.55,1.266l-7.048,4.096
					c0.335-0.195,0.548-0.638,0.55-1.266C34.145,63.973,36.494,62.607,38.844,61.242c-2.35,1.365-4.699,2.73-7.048,4.096
					c0.003-1.17-0.722-2.54-1.619-3.058l7.048-4.096C38.122,58.702,38.847,60.072,38.844,61.242z" class="colorcdcdcd svgShape"/><path fill="#00cbba" d="M30.184,59.789c2.091,1.207,3.787,4.258,3.779,6.8c-0.003,0.943-0.24,1.685-0.644,2.184
					c-0.684,0.845-1.847,0.992-3.161,0.234c-1.315-0.759-2.473-2.247-3.15-3.878c-0.4-0.963-0.632-1.976-0.629-2.919
					C26.385,59.668,28.093,58.582,30.184,59.789z M30.165,66.517c0.897,0.518,1.628-0.012,1.631-1.179
					c0.003-1.17-0.722-2.54-1.619-3.058c-0.897-0.518-1.628,0.012-1.631,1.182C28.542,64.628,29.268,65.999,30.165,66.517
					L30.165,66.517z" class="colorcb7e00 svgShape"/><path fill="#cdcdcd" d="M30.177,62.28c0.897,0.518,1.622,1.888,1.619,3.058c-0.003,1.167-0.734,1.696-1.631,1.178
					c-0.897-0.518-1.622-1.888-1.619-3.055C28.549,62.292,29.28,61.762,30.177,62.28z" class="colorcdcdcd svgShape"/><path fill="#00cbba" d="M27.564,59.555l7.048-4.096c0.683-0.397,1.607-0.351,2.62,0.234l-7.048,4.096
					C29.17,59.204,28.247,59.158,27.564,59.555z" class="colorcb7e00 svgShape"/><path fill="#00c7b7" d="M42.955,67.614c0.535-0.311,1.196-0.425,1.939-0.323c-2.075,1.206-4.15,2.412-6.225,3.618
					l-0.823,0.478c-0.743-0.103-1.404,0.012-1.939,0.323C38.021,70.481,40.84,68.843,42.955,67.614z" class="color0080c7 svgShape"/><path fill="#41e1d4" d="M37.44,74.346l7.048-4.096c0.599-0.348,1.486-0.277,2.473,0.293l-7.048,4.096
					C38.926,74.07,38.039,73.998,37.44,74.346z" class="color5cb5c7 svgShape"/><path fill="#00cbba" d="M39.826,65.146l-7.048,4.096c0.203-0.118,0.384-0.275,0.541-0.468
					c0.404-0.499,0.642-1.241,0.644-2.184c0.007-2.542-1.688-5.593-3.779-6.8l7.048-4.096c2.091,1.207,3.787,4.258,3.779,6.801
					c-0.003,0.943-0.24,1.685-0.644,2.184C40.21,64.871,40.029,65.028,39.826,65.146z" class="colorcb7e00 svgShape"/><path fill="#41e1d4" d="M49.129,71.795c0.867,0.5,1.655,1.297,2.237,2.187c-1.175,0.683-2.349,1.365-3.524,2.048
					c-1.175,0.683-2.349,1.365-3.524,2.048c-0.582-0.89-1.37-1.687-2.237-2.187C44.195,74.662,47.015,73.024,49.129,71.795z" class="color5cb5c7 svgShape"/><path fill="#41e1d4" d="M51.366,73.982c0.62,0.949,1.006,2.005,1.003,2.925c-2.349,1.365-4.699,2.73-7.048,4.096
					c0.003-0.92-0.383-1.976-1.004-2.924C46.667,76.713,49.017,75.348,51.366,73.982z" class="color5cb5c7 svgShape"/><path fill="#00c7b7" d="M48.044,71.169c1.014,0.585,1.937,0.631,2.621,0.234l-7.048,4.096
					c-0.683,0.397-1.607,0.351-2.62-0.234C43.345,73.899,45.694,72.534,48.044,71.169c-2.35,1.365-4.699,2.73-7.048,4.096
					c-1.314-0.759-2.472-2.246-3.149-3.877l7.048-4.096C45.571,68.922,46.729,70.41,48.044,71.169z" class="color0080c7 svgShape"/><path fill="#00cbba" d="M49.132 68.766l-7.048 4.096c-.288.167-.667.152-1.081-.087l7.048-4.096C48.465 68.917 48.844 68.933 49.132 68.766zM39.934 68.449l7.048-4.096c-.336.195-.549.64-.55 1.27-.003 1.167.722 2.537 1.619 3.055l-7.048 4.096c-.897-.518-1.622-1.888-1.619-3.055C39.386 69.089 39.598 68.645 39.934 68.449z" class="colorcb7e00 svgShape"/><path fill="#cdcdcd" d="M46.982,64.354c0.288-0.167,0.667-0.151,1.081,0.088l-7.048,4.096
					c-0.414-0.239-0.793-0.255-1.081-0.088C42.048,67.221,44.868,65.582,46.982,64.354z" class="colorcdcdcd svgShape"/><path fill="#cdcdcd" d="M49.681,67.499c-0.002,0.628-0.214,1.071-0.55,1.266l-7.048,4.096
					c0.335-0.195,0.548-0.638,0.55-1.266C44.983,70.23,47.332,68.865,49.681,67.499c-2.349,1.365-4.699,2.731-7.048,4.096
					c0.003-1.17-0.722-2.54-1.619-3.058l7.048-4.096C48.96,64.959,49.685,66.329,49.681,67.499z" class="colorcdcdcd svgShape"/><path fill="#00cbba" d="M41.022,66.046c2.091,1.207,3.787,4.258,3.779,6.8c-0.003,0.943-0.24,1.685-0.644,2.184
					c-0.684,0.845-1.847,0.993-3.161,0.234c-1.314-0.759-2.472-2.246-3.15-3.877c-0.4-0.963-0.632-1.977-0.63-2.92
					C37.223,65.925,38.931,64.839,41.022,66.046z M41.003,72.774c0.897,0.518,1.627-0.012,1.631-1.179
					c0.003-1.17-0.722-2.54-1.619-3.058c-0.897-0.518-1.628,0.012-1.631,1.182C39.381,70.886,40.106,72.256,41.003,72.774
					L41.003,72.774z" class="colorcb7e00 svgShape"/><path fill="#00c7b7" d="M44.157,75.031c0.902,0.918,1.681,2.016,2.258,3.166c-0.683,0.564-1.09,1.52-1.094,2.806
					c-0.002,0.69,0.482,1.527,1.082,1.874c0.597,0.345,1.084,0.067,1.086-0.622c-0.002,0.69-0.489,0.967-1.086,0.622
					c-0.6-0.347-1.084-1.184-1.082-1.874c0.005-1.783-1.45-4.078-3.241-5.112l-2.168-1.251c-1.794-1.036-3.257-0.425-3.262,1.357
					c-0.002,0.69-0.489,0.967-1.089,0.62c-0.597-0.345-1.081-1.182-1.079-1.872c0.004-1.286,0.41-2.242,1.094-2.806
					c0.582-0.481,1.365-0.677,2.269-0.552c0.677,1.631,1.835,3.118,3.15,3.877C42.31,76.023,43.473,75.876,44.157,75.031z" class="color0080c7 svgShape"/><path fill="#41e1d4" d="M42.304,75.737c-0.01-0.001-0.019-0.002-0.028-0.004c-0.033-0.005-0.067-0.01-0.101-0.016
					c-0.002,0-0.005-0.001-0.007-0.001c-0.032-0.006-0.063-0.012-0.095-0.019c-0.01-0.002-0.021-0.005-0.031-0.007
					c-0.025-0.006-0.05-0.012-0.075-0.018c-0.011-0.003-0.021-0.005-0.032-0.008c-0.03-0.008-0.06-0.017-0.091-0.026
					c-0.005-0.001-0.009-0.003-0.014-0.004c-0.035-0.011-0.07-0.022-0.106-0.034c-0.009-0.003-0.018-0.007-0.027-0.01
					c-0.027-0.009-0.053-0.019-0.08-0.029c-0.012-0.004-0.023-0.009-0.035-0.013c-0.027-0.011-0.055-0.021-0.082-0.033
					c-0.009-0.004-0.018-0.007-0.027-0.011c-0.036-0.015-0.072-0.031-0.109-0.048c-0.007-0.003-0.013-0.006-0.02-0.009
					c-0.03-0.014-0.06-0.028-0.09-0.043c-0.012-0.006-0.023-0.012-0.035-0.018c-0.027-0.014-0.053-0.027-0.08-0.042
					c-0.011-0.006-0.022-0.011-0.033-0.017c-0.037-0.02-0.074-0.041-0.111-0.062l1.085,0.626l0.258-0.15
					C42.327,75.74,42.315,75.738,42.304,75.737z M40.041,74.565l-0.128,0.074l1.081,0.624
					C40.665,75.074,40.346,74.838,40.041,74.565z M44.796,73.056L44.796,73.056c1.082-0.629,2.165-1.258,3.247-1.887
					C46.961,71.798,45.879,72.427,44.796,73.056z M40.996,75.265L40.996,75.265L40.996,75.265L40.996,75.265L40.996,75.265
					L40.996,75.265z M48.043,71.169C48.044,71.169,48.044,71.169,48.043,71.169L48.043,71.169
					C48.043,71.169,48.043,71.169,48.043,71.169z" class="color5cb5c7 svgShape"/><path fill="#00c7b7" d="M52.37,76.907c-0.002,0.69,0.482,1.527,1.082,1.874c-2.349,1.365-4.699,2.731-7.048,4.096
					c-0.6-0.347-1.084-1.184-1.082-1.874C47.671,79.638,50.02,78.272,52.37,76.907z" class="color0080c7 svgShape"/><path fill="#00c7b7" d="M53.451,78.781c0.3,0.173,0.572,0.189,0.769,0.075l-7.048,4.096
					c-0.197,0.114-0.469,0.098-0.769-0.075C48.753,81.511,51.102,80.146,53.451,78.781z" class="color0080c7 svgShape"/><path fill="#41e1d4" d="M42.081,75.891c1.791,1.034,3.246,3.329,3.241,5.112l-8.67-5.006
					c0.005-1.783,1.468-2.393,3.262-1.357L42.081,75.891z" class="color5cb5c7 svgShape"/><path fill="#009b8e" d="M54.537,78.159c-0.001,0.343-0.122,0.584-0.317,0.697l-7.048,4.096
					c0.195-0.113,0.316-0.354,0.317-0.697C49.604,81.026,52.423,79.387,54.537,78.159z" class="color00249b svgShape"/><path fill="#00c7b7" d="M54.537 78.159c-.001.343-.122.584-.317.697l-7.048 4.096c.195-.113.316-.354.317-.697C49.604 81.026 52.423 79.387 54.537 78.159zM53.463 74.101c-.683.564-1.09 1.52-1.094 2.806-2.349 1.365-4.699 2.731-7.048 4.096.004-1.286.411-2.242 1.094-2.806C48.53 76.968 51.349 75.33 53.463 74.101z" class="color0080c7 svgShape"/><path fill="#00c7b7" d="M51.205,70.935c0.902,0.918,1.681,2.016,2.258,3.166l-7.048,4.096
					c-0.577-1.15-1.356-2.249-2.258-3.166C46.271,73.802,49.091,72.164,51.205,70.935z" class="color0080c7 svgShape"/><path fill="#009b8e" d="M48.278,80.604l7.048-4.096c-0.49,0.284-0.787,0.849-0.789,1.651l-7.048,4.096
					C47.492,81.453,47.789,80.888,48.278,80.604z" class="color00249b svgShape"/><path fill="#cdcdcd" d="M41.015,68.537c0.897,0.518,1.622,1.888,1.619,3.058c-0.003,1.167-0.734,1.696-1.631,1.178
					c-0.897-0.518-1.622-1.888-1.619-3.055C39.387,68.549,40.118,68.019,41.015,68.537z" class="colorcdcdcd svgShape"/><path fill="#00cbba" d="M38.402,65.812l7.048-4.096c0.683-0.397,1.607-0.351,2.62,0.234l-7.048,4.096
					C40.008,65.461,39.085,65.415,38.402,65.812z" class="colorcb7e00 svgShape"/><path fill="#009b8e" d="M53.793,73.871c0.535-0.311,1.196-0.425,1.939-0.323c-2.075,1.206-4.15,2.412-6.225,3.618
					l-0.823,0.478c-0.743-0.103-1.404,0.012-1.939,0.323C48.859,76.739,51.678,75.1,53.793,73.871z" class="color00249b svgShape"/><path fill="#5dbfb7" d="M48.278,80.604l7.048-4.096c0.599-0.348,1.486-0.277,2.473,0.293l-7.048,4.096
					C49.764,80.327,48.877,80.256,48.278,80.604z" class="color5d76bf svgShape"/><path fill="#00cbba" d="M50.664,71.403l-7.048,4.096c0.203-0.118,0.384-0.275,0.541-0.468
					c0.404-0.499,0.641-1.241,0.644-2.184c0.007-2.542-1.688-5.593-3.779-6.8l7.048-4.096c2.091,1.207,3.787,4.258,3.779,6.801
					c-0.003,0.943-0.24,1.685-0.644,2.184C51.049,71.128,50.867,71.285,50.664,71.403z" class="colorcb7e00 svgShape"/><path fill="#5dbfb7" d="M59.967,78.053c0.867,0.501,1.655,1.297,2.237,2.187c-2.349,1.365-4.699,2.731-7.048,4.096
					c-0.582-0.89-1.37-1.687-2.237-2.187C55.033,80.92,57.853,79.281,59.967,78.053z" class="color5d76bf svgShape"/><path fill="#009b8e" d="M58.882,77.426c1.014,0.585,1.937,0.631,2.62,0.234l-7.048,4.096
					c-0.683,0.397-1.607,0.351-2.62-0.234C54.183,80.157,56.532,78.791,58.882,77.426c-2.35,1.365-4.699,2.73-7.048,4.096
					c-1.314-0.759-2.472-2.246-3.149-3.877l7.048-4.096C56.409,75.18,57.567,76.667,58.882,77.426z" class="color00249b svgShape"/><path fill="#00cbba" d="M59.97,75.023l-7.048,4.096c-0.288,0.167-0.667,0.152-1.081-0.088l7.048-4.096
					C59.303,75.174,59.682,75.19,59.97,75.023z" class="colorcb7e00 svgShape"/><path fill="#00cbba" d="M50.772,74.707l7.048-4.096c-0.336,0.195-0.549,0.64-0.55,1.27
					c-0.003,1.167,0.722,2.537,1.619,3.055l-7.048,4.096c-0.897-0.518-1.622-1.888-1.619-3.055
					C50.223,75.346,50.436,74.902,50.772,74.707z" class="colorcb7e00 svgShape"/><path fill="#cdcdcd" d="M60.52 73.757c-.002.628-.214 1.071-.55 1.266l-7.048 4.096c.335-.195.548-.638.55-1.266C55.821 76.487 58.17 75.122 60.52 73.757L60.52 73.757zM57.82 70.611c.288-.167.667-.152 1.081.088l-7.048 4.096c-.414-.239-.793-.255-1.081-.087C52.886 73.478 55.706 71.84 57.82 70.611z" class="colorcdcdcd svgShape"/><path fill="#cdcdcd" d="M60.52,73.757c-2.349,1.365-4.699,2.73-7.048,4.096c0.003-1.17-0.722-2.54-1.619-3.058
					l7.048-4.096C59.798,71.216,60.523,72.587,60.52,73.757z" class="colorcdcdcd svgShape"/><path fill="#cdcdcd" d="M51.853,74.794c0.897,0.518,1.622,1.888,1.619,3.058c-0.003,1.167-0.734,1.696-1.631,1.178
					c-0.897-0.518-1.622-1.888-1.619-3.055C50.225,74.806,50.956,74.276,51.853,74.794z" class="colorcdcdcd svgShape"/><path fill="#00cbba" d="M51.86,72.304c2.091,1.207,3.787,4.258,3.779,6.801c-0.003,0.942-0.24,1.684-0.644,2.183
					c-0.684,0.845-1.847,0.993-3.162,0.234c-1.314-0.759-2.472-2.246-3.15-3.877c-0.4-0.963-0.632-1.977-0.63-2.92
					C48.061,72.183,49.769,71.096,51.86,72.304z M51.841,79.031c0.897,0.518,1.628-0.012,1.631-1.178
					c0.003-1.17-0.722-2.54-1.619-3.058c-0.897-0.518-1.628,0.012-1.631,1.182C50.218,77.143,50.944,78.513,51.841,79.031
					L51.841,79.031z" class="colorcb7e00 svgShape"/><path fill="#009b8e" d="M54.995,81.288c0.902,0.918,1.681,2.016,2.258,3.166c-0.683,0.564-1.09,1.52-1.094,2.806
					c-0.002,0.69,0.482,1.527,1.082,1.874c0.597,0.345,1.084,0.067,1.086-0.622c-0.002,0.69-0.489,0.967-1.086,0.622
					c-0.6-0.347-1.084-1.184-1.082-1.874c0.005-1.783-1.45-4.078-3.241-5.112l-2.168-1.251c-1.794-1.036-3.257-0.426-3.262,1.357
					c-0.002,0.69-0.489,0.967-1.086,0.622c-0.6-0.347-1.084-1.184-1.082-1.874c0.004-1.286,0.411-2.242,1.094-2.806
					c0.582-0.481,1.365-0.677,2.269-0.552c0.677,1.631,1.835,3.118,3.15,3.877C53.148,82.281,54.311,82.133,54.995,81.288z" class="color00249b svgShape"/><path fill="#5dbfb7" d="M53.141,81.994c-0.009-0.001-0.018-0.002-0.028-0.004c-0.034-0.005-0.067-0.01-0.101-0.016
					c-0.001,0-0.003-0.001-0.004-0.001c-0.032-0.006-0.065-0.012-0.097-0.019c-0.01-0.002-0.02-0.005-0.03-0.007
					c-0.025-0.006-0.05-0.012-0.075-0.018c-0.011-0.003-0.021-0.005-0.032-0.008c-0.03-0.008-0.06-0.016-0.09-0.025
					c-0.005-0.002-0.01-0.003-0.015-0.004c-0.035-0.011-0.07-0.022-0.105-0.034c-0.009-0.003-0.019-0.007-0.029-0.01
					c-0.026-0.009-0.053-0.019-0.08-0.029c-0.011-0.004-0.023-0.009-0.034-0.013c-0.027-0.011-0.055-0.022-0.082-0.033
					c-0.009-0.004-0.018-0.007-0.026-0.011c-0.036-0.015-0.073-0.031-0.109-0.048c-0.007-0.003-0.013-0.006-0.02-0.009
					c-0.03-0.014-0.06-0.028-0.09-0.043c-0.012-0.006-0.023-0.012-0.035-0.017c-0.027-0.013-0.053-0.027-0.08-0.041
					c-0.011-0.006-0.022-0.012-0.033-0.018c-0.037-0.02-0.074-0.041-0.111-0.062c0,0,0,0,0,0l0,0
					c-0.194-0.112-0.385-0.24-0.571-0.382c-0.02-0.015-0.041-0.031-0.061-0.047c-0.109-0.085-0.217-0.175-0.322-0.27l-0.128,0.074
					l2.168,1.251l0.258-0.15C53.165,81.997,53.153,81.995,53.141,81.994z M58.881,77.426c-1.082,0.629-2.165,1.258-3.247,1.887l0,0
					C56.716,78.684,57.799,78.055,58.881,77.426z M58.882,77.426C58.882,77.426,58.882,77.426,58.882,77.426L58.882,77.426
					C58.881,77.426,58.881,77.426,58.882,77.426z" class="color5d76bf svgShape"/><path fill="#009b8e" d="M63.208,83.164c-0.002,0.69,0.482,1.527,1.082,1.874c-2.349,1.365-4.699,2.731-7.048,4.096
					c-0.6-0.347-1.084-1.184-1.082-1.874C58.509,85.895,60.858,84.53,63.208,83.164z" class="color00249b svgShape"/><path fill="#009b8e" d="M64.289,85.038c0.3,0.173,0.572,0.189,0.769,0.075l-7.048,4.096
					c-0.197,0.114-0.469,0.098-0.769-0.075C59.591,87.769,61.94,86.403,64.289,85.038z" class="color00249b svgShape"/><path fill="#5dbfb7" d="M62.204,80.24c0.62,0.949,1.006,2.005,1.004,2.925c-2.349,1.365-4.699,2.73-7.048,4.096
					c0.003-0.92-0.383-1.976-1.003-2.924C57.505,82.97,59.855,81.605,62.204,80.24z" class="color5d76bf svgShape"/><path fill="#5dbfb7" d="M52.919,82.148c1.791,1.034,3.246,3.329,3.241,5.112l-8.67-5.006
					c0.005-1.783,1.468-2.393,3.262-1.357L52.919,82.148z" class="color5d76bf svgShape"/><path fill="#009b8e" d="M65.058,85.113l-7.048,4.096c0.195-0.113,0.316-0.354,0.317-0.697l7.048-4.096
					C65.374,84.759,65.253,85,65.058,85.113z" class="color00249b svgShape"/><path fill="#008277" d="M65.058,85.113l-7.048,4.096c0.195-0.113,0.316-0.354,0.317-0.697l7.048-4.096
					C65.374,84.759,65.253,85,65.058,85.113z" class="color00823d svgShape"/><path fill="#009b8e" d="M64.302 80.358c-.683.564-1.09 1.52-1.094 2.806-2.349 1.365-4.699 2.731-7.048 4.096.004-1.287.411-2.242 1.094-2.806C59.368 83.225 62.187 81.587 64.302 80.358zM62.043 77.192c.902.918 1.681 2.016 2.258 3.166l-7.048 4.096c-.577-1.15-1.356-2.248-2.258-3.166C57.11 80.059 59.929 78.421 62.043 77.192z" class="color00249b svgShape"/><path fill="#008277" d="M59.116,86.861l7.048-4.096c-0.489,0.284-0.786,0.849-0.789,1.651l-7.048,4.096
					C58.329,87.71,58.626,87.145,59.116,86.861z" class="color00823d svgShape"/><path fill="#00cbba" d="M49.24,72.069l7.048-4.096c0.683-0.397,1.607-0.351,2.62,0.234l-7.048,4.096
					C50.846,71.718,49.923,71.672,49.24,72.069z" class="colorcb7e00 svgShape"/><path fill="#008277" d="M57.583,84.225l7.048-4.096c0.535-0.311,1.196-0.425,1.939-0.323l-7.048,4.096
					C58.779,83.799,58.118,83.914,57.583,84.225z" class="color00823d svgShape"/><path fill="#76cdc6" d="M59.116,86.861l7.048-4.096c0.599-0.348,1.486-0.277,2.473,0.293l-7.048,4.096
					C60.602,86.584,59.715,86.513,59.116,86.861z" class="color76cd76 svgShape"/><path fill="#00cbba" d="M61.502,77.66l-7.048,4.096c0.203-0.118,0.385-0.275,0.541-0.468
					c0.404-0.499,0.641-1.241,0.644-2.183c0.007-2.542-1.688-5.593-3.779-6.801l7.048-4.096c2.091,1.207,3.787,4.258,3.779,6.801
					c-0.003,0.942-0.24,1.684-0.644,2.184C61.887,77.385,61.705,77.542,61.502,77.66z" class="colorcb7e00 svgShape"/><path fill="#76cdc6" d="M63.757,88.406l7.048-4.096c1.791,1.034,3.246,3.329,3.241,5.112l-7.048,4.096
					C67.003,91.735,65.548,89.44,63.757,88.406z" class="color76cd76 svgShape"/><path fill="#008277" d="M69.719,83.683c1.014,0.585,1.937,0.631,2.62,0.234l-7.048,4.096
					c-0.683,0.397-1.607,0.351-2.62-0.234C65.021,86.414,67.37,85.049,69.719,83.683c-2.35,1.365-4.699,2.731-7.048,4.096
					c-1.314-0.759-2.472-2.246-3.149-3.877l7.048-4.096C67.247,81.437,68.405,82.924,69.719,83.683z" class="color00823d svgShape"/><path fill="#008277" d="M75.896,91.37l-7.048,4.096c0.195-0.113,0.316-0.354,0.317-0.697
					c0.007-2.384-1.371-5.229-3.332-7.224l7.048-4.096c1.961,1.994,3.339,4.84,3.332,7.224
					C76.212,91.016,76.091,91.257,75.896,91.37z" class="color00823d svgShape"/><path fill="#008277" d="M65.833,87.545c1.961,1.994,3.339,4.84,3.332,7.224c-0.002,0.69-0.489,0.967-1.086,0.622
					c-0.6-0.346-1.084-1.184-1.082-1.874c0.005-1.783-1.45-4.078-3.241-5.112l-2.168-1.252c-1.794-1.036-3.257-0.425-3.262,1.357
					c-0.002,0.69-0.489,0.967-1.086,0.622c-0.6-0.347-1.084-1.184-1.082-1.874c0.004-1.287,0.411-2.242,1.094-2.806
					c0.582-0.48,1.364-0.677,2.268-0.552c0.677,1.631,1.835,3.118,3.15,3.877C63.986,88.538,65.149,88.39,65.833,87.545z" class="color00823d svgShape"/><path fill="#76cdc6" d="M62.672,87.779l1.085,0.627l0.258-0.15C63.597,88.208,63.144,88.052,62.672,87.779z
					 M69.719,83.683c-2.349,1.365-4.698,2.73-7.048,4.096c-0.33-0.19-0.649-0.426-0.954-0.699l-0.128,0.074l1.082,0.625
					C65.021,86.414,67.37,85.049,69.719,83.683z" class="color76cd76 svgShape"/><path fill="#76cdc6" d="M63.757,88.406c1.791,1.034,3.246,3.329,3.241,5.112l-8.67-5.006
					c0.005-1.783,1.468-2.393,3.262-1.357L63.757,88.406z" class="color76cd76 svgShape"/><path fill="#00cbba" d="M70.808,81.28l-7.048,4.096c-0.288,0.167-0.667,0.152-1.081-0.088l7.048-4.096
					C70.141,81.432,70.52,81.448,70.808,81.28z" class="colorcb7e00 svgShape"/><path fill="#00cbba" d="M61.61,80.964l7.048-4.096c-0.336,0.195-0.549,0.64-0.55,1.27
					c-0.003,1.167,0.722,2.537,1.619,3.055l-7.048,4.096c-0.897-0.518-1.622-1.888-1.619-3.055
					C61.062,81.604,61.274,81.159,61.61,80.964z" class="colorcb7e00 svgShape"/><path fill="#cdcdcd" d="M68.658,76.868c0.288-0.167,0.667-0.152,1.081,0.088l-7.048,4.096
					c-0.414-0.239-0.793-0.255-1.081-0.087C63.724,79.735,66.544,78.097,68.658,76.868z" class="colorcdcdcd svgShape"/><path fill="#cdcdcd" d="M71.357,80.014c-0.002,0.628-0.214,1.071-0.55,1.266l-7.048,4.096
					c0.335-0.195,0.548-0.638,0.55-1.266C66.659,82.745,69.008,81.379,71.357,80.014c-2.35,1.365-4.699,2.73-7.048,4.096
					c0.003-1.17-0.722-2.54-1.619-3.058l7.048-4.096C70.636,77.474,71.361,78.844,71.357,80.014z" class="colorcdcdcd svgShape"/><path fill="#cdcdcd" d="M62.691,81.052c0.897,0.518,1.622,1.888,1.619,3.058c-0.003,1.166-0.734,1.696-1.631,1.178
					c-0.897-0.518-1.622-1.888-1.619-3.055C61.063,81.063,61.793,80.534,62.691,81.052z" class="colorcdcdcd svgShape"/><path fill="#00cbba" d="M60.077,78.327l7.048-4.096c0.683-0.397,1.607-0.351,2.62,0.234l-7.048,4.096
					C61.684,77.976,60.761,77.929,60.077,78.327z" class="colorcb7e00 svgShape"/><path fill="#00cbba" d="M62.698,78.561c2.091,1.207,3.787,4.258,3.779,6.8c-0.003,0.943-0.24,1.684-0.644,2.184
					c-0.684,0.845-1.847,0.993-3.162,0.234c-1.314-0.759-2.472-2.246-3.15-3.877c-0.4-0.963-0.632-1.977-0.63-2.92
					C58.899,78.44,60.607,77.354,62.698,78.561z M62.679,85.288c0.897,0.518,1.628-0.012,1.631-1.178
					c0.003-1.17-0.722-2.54-1.619-3.058c-0.897-0.518-1.628,0.012-1.631,1.182C61.056,83.4,61.782,84.771,62.679,85.288
					L62.679,85.288z" class="colorcb7e00 svgShape"/><path fill="#00cbba" d="M72.34,83.917l-7.048,4.096c0.203-0.118,0.384-0.275,0.541-0.468
					c0.404-0.499,0.641-1.241,0.644-2.184c0.007-2.542-1.688-5.593-3.779-6.8l7.048-4.096c2.091,1.207,3.787,4.259,3.779,6.801
					c-0.003,0.942-0.24,1.684-0.644,2.183C72.725,83.643,72.543,83.799,72.34,83.917z" class="colorcb7e00 svgShape"/><g class="color000000 svgShape"><polygon fill="#0c9a8e" points="22.663 31.748 29.711 27.652 29.675 40.106 22.627 44.201" class="color600c9a svgShape"/><path fill="#0c9a8e" d="M20.814,28.556l7.048-4.096c0.197-0.115,0.471-0.098,0.773,0.076l-7.048,4.096
					C21.285,28.458,21.011,28.442,20.814,28.556z" class="color600c9a svgShape"/><polygon fill="#0c9a8e" points="37.026 55.373 44.074 51.277 44.391 51.097 37.343 55.193" class="color600c9a svgShape"/><polygon fill="#0c9a8e" points="22.627 44.201 29.675 40.106 44.402 48.608 37.354 52.704" class="color600c9a svgShape"/><path fill="#00c7b7" d="M52.095,62.66l-7.048,4.096c0.195-0.113,0.316-0.354,0.317-0.697l7.048-4.096
					C52.411,62.306,52.29,62.547,52.095,62.66z" class="color0080c7 svgShape"/><polygon fill="#0c9a8e" points="37.343 55.193 44.391 51.097 47.012 52.61 39.964 56.706" class="color600c9a svgShape"/><path fill="#0c9a8e" d="M37.343,55.193l2.621,1.513c0.294,0.17,0.561,0.188,0.757,0.081l-2.165,1.234
					c-0.215,0.122-0.493,0.083-0.767-0.076c-0.278-0.16-0.555-0.442-0.768-0.811c-0.42-0.727-0.418-1.516,0.005-1.761L37.343,55.193
					z" class="color600c9a svgShape"/><path fill="#0c9a8e" d="M39.964,56.706l7.048-4.096c0.294,0.17,0.561,0.188,0.757,0.081l-7.048,4.096
					C40.526,56.894,40.258,56.875,39.964,56.706z" class="color600c9a svgShape"/><path fill="#0c9a8e" d="M47.775,52.688l-7.048,4.096c0.016-0.009,0.039-0.026,0.136-0.11l7.048-4.096
					C47.814,52.662,47.791,52.679,47.775,52.688z" class="color600c9a svgShape"/><path fill="#0c9a8e" d="M40.984,55.611l7.048-4.096c-0.031,0.942-0.072,1.008-0.12,1.063l-7.048,4.096
					C40.912,56.619,40.952,56.553,40.984,55.611z" class="color600c9a svgShape"/><path fill="#0c9a8e" d="M47.911,52.578c-0.109,0.089-0.283,0.164-0.404,0.235c-1.04,0.604-2.079,1.208-3.119,1.813
					c-1.175,0.683-2.35,1.365-3.524,2.048c0.05-0.056,0.09-0.123,0.12-0.199l7.048-4.096C48.001,52.456,47.961,52.522,47.911,52.578
					z" class="color600c9a svgShape"/><path fill="#0c9a8e" d="M40.983,56.475c-0.03,0.076-0.07,0.143-0.12,0.199C40.912,56.619,40.952,56.553,40.983,56.475z" class="color600c9a svgShape"/><polygon fill="#0c9a8e" points="37.354 52.704 44.402 48.608 47.019 50.119 39.971 54.215" class="color600c9a svgShape"/><polygon fill="#0c9a8e" points="21.588 28.632 28.635 24.537 34.053 27.664 27.005 31.76" class="color600c9a svgShape"/><polygon fill="#0c9a8e" points="38.576 51.278 45.624 47.182 47.784 50.925 40.736 55.021" class="color600c9a svgShape"/><path fill="#0c9a8e" d="M39.971,54.215l7.048-4.096c0.465,0.268,0.86,0.835,1.012,1.396l-7.048,4.096
					C40.832,55.05,40.436,54.483,39.971,54.215z" class="color600c9a svgShape"/><path fill="#0c9a8e" d="M40.966,55.552l7.048-4.096c0.006,0.02,0.012,0.04,0.017,0.059l-7.048,4.096
					C40.978,55.591,40.972,55.572,40.966,55.552z" class="color600c9a svgShape"/><path fill="#0c9a8e" d="M40.966 55.552c.006.02.012.04.017.059C40.978 55.591 40.972 55.572 40.966 55.552zM40.954 55.512c.004.013.008.026.012.039C40.963 55.539 40.958 55.526 40.954 55.512z" class="color600c9a svgShape"/><path fill="#0c9a8e" d="M40.954 55.512l7.048-4.096c.004.013.008.026.012.04l-7.048 4.096C40.963 55.539 40.958 55.526 40.954 55.512zM40.95 55.5l7.048-4.096c.001.004.003.008.004.012l-7.048 4.096C40.953 55.508 40.951 55.504 40.95 55.5z" class="color600c9a svgShape"/><path fill="#0c9a8e" d="M40.736 55.021l7.048-4.096c.091.159.162.321.214.48L40.95 55.5C40.899 55.342 40.828 55.18 40.736 55.021zM37.04 50.392l7.048-4.096c.213-.12.491-.08.769.08.278.16.555.442.767.806l-7.048 4.096c-.212-.365-.489-.646-.767-.806C37.531 50.312 37.253 50.272 37.04 50.392z" class="color600c9a svgShape"/><path fill="#0c9a8e" d="M40.736 55.021c.091.159.162.321.214.48-.171-.524-.545-1.035-.979-1.285l-2.618-1.511-.318-.551c-.42-.728-.418-1.516.005-1.761.213-.119.491-.08.769.08.278.16.555.442.767.806L40.736 55.021zM34.818 30.231l-7.048 4.096c.195-.113.315-.354.316-.697.002-.686-.482-1.524-1.082-1.87l7.048-4.096c.6.347 1.084 1.184 1.082 1.87C35.134 29.877 35.013 30.118 34.818 30.231z" class="color600c9a svgShape"/><path fill="#0c9a8e" d="M27.005,31.76c0.6,0.347,1.084,1.184,1.082,1.87c-0.002,0.69-0.489,0.967-1.089,0.621
					l-4.335-2.503l-0.035,12.454l14.726,8.502l2.618,1.511c0.465,0.268,0.86,0.835,1.012,1.396c-0.031,0.942-0.072,1.008-0.12,1.063
					c-0.109,0.094-0.125,0.104-0.142,0.113c-0.196,0.107-0.463,0.089-0.757-0.081l-2.621-1.513l-15.805-9.125
					c-0.6-0.347-1.084-1.184-1.082-1.874l0.042-14.944c0.002-0.686,0.489-0.963,1.089-0.617L27.005,31.76z" class="color600c9a svgShape"/><polygon fill="#00c7b7" points="45.396 54.852 52.444 50.756 52.412 61.963 45.364 66.059" class="color0080c7 svgShape"/><path fill="#cdcdcd" d="M54.587,60.723c-0.002,0.69,0.482,1.527,1.082,1.874l-7.048,4.096
					c-0.6-0.347-1.084-1.184-1.082-1.874C49.888,63.454,52.237,62.089,54.587,60.723c-2.35,1.365-4.699,2.73-7.048,4.096
					c0.001-0.34,0.121-0.58,0.316-0.693l7.048-4.096C54.708,60.143,54.588,60.383,54.587,60.723z" class="colorcdcdcd svgShape"/><path fill="#00c7b7" d="M47.854,64.126l7.048-4.096c0.197-0.115,0.471-0.098,0.773,0.076l-7.048,4.096
					C48.325,64.028,48.051,64.011,47.854,64.126z" class="color0080c7 svgShape"/><path fill="#cdcdcd" d="M54.601,55.742c-0.002,0.69,0.482,1.527,1.082,1.874l-7.048,4.096
					c-0.6-0.347-1.084-1.184-1.082-1.874C49.902,58.472,52.251,57.107,54.601,55.742c-2.35,1.365-4.699,2.731-7.048,4.096
					c0.001-0.34,0.121-0.58,0.316-0.693l7.048-4.096C54.722,55.162,54.602,55.402,54.601,55.742z" class="colorcdcdcd svgShape"/><polygon fill="#00c7b7" points="32.433 32.399 39.48 28.303 39.459 35.775 32.411 39.871" class="color0080c7 svgShape"/><path fill="#00c7b7" d="M43.547 51.66l7.048-4.096c.197-.115.471-.098.773.076l-7.048 4.096C44.018 51.562 43.745 51.546 43.547 51.66zM47.868 59.145l7.048-4.096c.197-.115.471-.098.773.076l-7.048 4.096C48.339 59.046 48.066 59.03 47.868 59.145z" class="color0080c7 svgShape"/><path fill="#cdcdcd" d="M74.091,73.234c0.302,0.174,0.575,0.191,0.772,0.076l-7.048,4.096
					c-0.197,0.115-0.471,0.098-0.773-0.076C69.158,76.101,71.977,74.462,74.091,73.234z" class="colorcdcdcd svgShape"/><polygon fill="#00c7b7" points="48.628 64.202 55.675 60.106 74.098 70.743 67.05 74.839" class="color0080c7 svgShape"/><path fill="#00c7b7" d="M74.864,73.31l-7.048,4.096c0.195-0.113,0.315-0.354,0.316-0.697
					c0.002-0.686-0.482-1.524-1.082-1.87l7.048-4.096c0.6,0.347,1.084,1.184,1.082,1.87C75.179,72.956,75.059,73.197,74.864,73.31z" class="color0080c7 svgShape"/><path fill="#cdcdcd" d="M74.878,68.328l-7.048,4.096c-0.197,0.115-0.471,0.098-0.773-0.076l7.048-4.096
					C74.408,68.427,74.681,68.443,74.878,68.328z" class="colorcdcdcd svgShape"/><polygon fill="#00c7b7" points="48.642 59.221 55.69 55.125 74.113 65.761 67.065 69.857" class="color0080c7 svgShape"/><path fill="#00c7b7" d="M74.878,68.328l-7.048,4.096c0.195-0.113,0.315-0.354,0.316-0.697
					c0.002-0.686-0.482-1.524-1.082-1.87l7.048-4.096c0.6,0.347,1.084,1.184,1.082,1.87C75.193,67.974,75.073,68.215,74.878,68.328z
					" class="color0080c7 svgShape"/><path fill="#cdcdcd" d="M45.396,54.852l24.929,14.393l-0.032,11.207L45.364,66.059L45.396,54.852z M67.043,77.329
					c0.6,0.347,1.087,0.069,1.089-0.62c0.002-0.686-0.482-1.524-1.082-1.87L48.627,64.202c-0.6-0.347-1.087-0.069-1.089,0.617
					c-0.002,0.69,0.482,1.527,1.082,1.874L67.043,77.329L67.043,77.329z M67.058,72.348c0.6,0.347,1.087,0.069,1.089-0.621
					c0.002-0.686-0.482-1.524-1.082-1.87L48.642,59.221c-0.6-0.347-1.087-0.069-1.089,0.617c-0.002,0.69,0.482,1.527,1.082,1.874
					L67.058,72.348L67.058,72.348z" class="colorcdcdcd svgShape"/><path fill="#00c7b7" d="M67.05,74.839c0.6,0.347,1.084,1.184,1.082,1.87c-0.002,0.69-0.489,0.967-1.089,0.62
					L48.62,66.693c-0.6-0.347-1.084-1.184-1.082-1.874c0.002-0.686,0.489-0.963,1.089-0.617L67.05,74.839z" class="color0080c7 svgShape"/><path fill="#cdcdcd" d="M68.132,76.697c-0.001-0.203-0.045-0.419-0.121-0.632c-0.006-0.017-0.012-0.033-0.018-0.05
					c-0.027-0.07-0.057-0.139-0.09-0.208c-0.011-0.022-0.022-0.044-0.033-0.066c-0.01-0.02-0.021-0.04-0.032-0.059
					c-0.014-0.025-0.028-0.049-0.042-0.073c-0.01-0.016-0.02-0.032-0.03-0.048c-0.19-0.302-0.44-0.564-0.715-0.722l-16.277-9.397
					l-2.153,1.252l18.423,10.636L68.132,76.697z" class="colorcdcdcd svgShape"/><path fill="#00c7b7" d="M67.065,69.857c0.6,0.346,1.084,1.184,1.082,1.87c-0.002,0.69-0.489,0.967-1.089,0.621
					L48.635,61.712c-0.6-0.347-1.084-1.184-1.082-1.874c0.002-0.686,0.489-0.963,1.089-0.617L67.065,69.857z" class="color0080c7 svgShape"/><path fill="#cdcdcd" d="M67.058,72.348l1.089-0.633c-0.001-0.224-0.054-0.464-0.145-0.697
					c-0.021-0.053-0.044-0.106-0.068-0.159c-0.104-0.22-0.24-0.429-0.398-0.607c-0.016-0.018-0.032-0.035-0.048-0.053
					c-0.049-0.052-0.099-0.101-0.151-0.146c-0.017-0.015-0.035-0.03-0.052-0.044c-0.035-0.029-0.071-0.056-0.108-0.081
					s-0.074-0.049-0.111-0.071L50.788,60.46l-2.153,1.252L67.058,72.348z" class="colorcdcdcd svgShape"/><polygon fill="#cdcdcd" points="45.396 54.852 52.444 50.756 77.373 65.149 70.325 69.245" class="colorcdcdcd svgShape"/><polygon fill="#00c7b7" points="44.321 51.736 51.369 47.641 78.462 63.283 71.414 67.379" class="color0080c7 svgShape"/><polygon fill="#00c7b7" points="32.411 39.871 39.459 35.775 56.8 45.787 49.752 49.883" class="color0080c7 svgShape"/><path fill="#cdcdcd" d="M34.907,36.693l7.048-4.096c-0.195,0.113-0.316,0.353-0.317,0.692
					c-0.002,0.686,0.485,1.529,1.079,1.872l-7.048,4.096c-0.594-0.343-1.081-1.186-1.079-1.872
					C34.59,37.046,34.712,36.806,34.907,36.693z" class="colorcdcdcd svgShape"/><path fill="#00c9b9" d="M34.907,36.693l7.048-4.096c0.197-0.115,0.47-0.1,0.769,0.073l-7.048,4.096
					C35.376,36.593,35.104,36.578,34.907,36.693z" class="color0082c9 svgShape"/><path fill="#00c7b7" d="M30.584,29.206l7.048-4.096c0.197-0.115,0.47-0.098,0.771,0.076l-7.048,4.096
					C31.053,29.108,30.781,29.091,30.584,29.206z" class="color0080c7 svgShape"/><polygon fill="#cdcdcd" points="35.668 39.257 42.716 35.161 49.222 38.917 42.174 43.013" class="colorcdcdcd svgShape"/><path fill="#cdcdcd" d="M49.99,38.99l-7.048,4.096c-0.197,0.115-0.469,0.099-0.768-0.073l7.048-4.096
					C49.521,39.089,49.793,39.104,49.99,38.99z" class="colorcdcdcd svgShape"/><polygon fill="#00c9b9" points="35.675 36.766 42.723 32.67 49.229 36.426 42.181 40.522" class="color0082c9 svgShape"/><path fill="#00c9b9" d="M49.99,38.99l-7.048,4.096c0.195-0.114,0.317-0.354,0.318-0.695
					c0.002-0.682-0.485-1.526-1.079-1.868l7.048-4.096c0.594,0.343,1.081,1.186,1.079,1.868
					C50.307,38.636,50.185,38.876,49.99,38.99z" class="color0082c9 svgShape"/><path fill="#00c9b9" d="M42.181,40.522c0.594,0.343,1.081,1.186,1.079,1.868c-0.002,0.686-0.492,0.965-1.086,0.622
					l-6.506-3.756c-0.594-0.343-1.081-1.186-1.079-1.872c0.002-0.682,0.492-0.962,1.086-0.619L42.181,40.522z" class="color0082c9 svgShape"/><path fill="#cdcdcd" d="M52.475,39.546c-0.002,0.686,0.485,1.529,1.082,1.874l-7.048,4.096
					c-0.597-0.345-1.084-1.188-1.082-1.874C47.777,42.277,50.126,40.911,52.475,39.546z" class="colorcdcdcd svgShape"/><path fill="#cdcdcd" d="M52.792 38.855c-.195.113-.316.352-.317.691-2.349 1.365-4.699 2.73-7.048 4.096.001-.339.122-.578.317-.691C47.859 41.722 50.678 40.084 52.792 38.855zM53.557 41.42c.298.172.571.188.768.073l-7.048 4.096c-.197.115-.469.099-.768-.073C48.624 44.287 51.443 42.649 53.557 41.42z" class="colorcdcdcd svgShape"/><path fill="#00c7b7" d="M58.647,48.979l-7.048,4.096c0.195-0.113,0.316-0.354,0.317-0.697l7.048-4.096
					C58.963,48.625,58.842,48.866,58.647,48.979z" class="color0080c7 svgShape"/><path fill="#00c9b9" d="M45.744 42.951l7.048-4.096c.198-.115.471-.1.772.074l-7.048 4.096C46.216 42.851 45.942 42.836 45.744 42.951zM54.325 41.493l-7.048 4.096c.195-.113.317-.354.318-.695.002-.682-.485-1.526-1.079-1.868l7.048-4.096c.594.343 1.081 1.186 1.079 1.868C54.642 41.139 54.52 41.379 54.325 41.493z" class="color0082c9 svgShape"/><path fill="#00c9b9" d="M46.516,43.025c0.594,0.343,1.081,1.186,1.079,1.868c-0.002,0.686-0.492,0.965-1.086,0.622
					c-0.597-0.345-1.084-1.188-1.082-1.874C45.43,42.96,45.919,42.68,46.516,43.025z" class="color0082c9 svgShape"/><path fill="#00c7b7" d="M79.192,78.303l-7.048,4.096c0.195-0.113,0.315-0.354,0.316-0.697l7.048-4.096
					C79.507,77.949,79.387,78.19,79.192,78.303z" class="color0080c7 svgShape"/><path fill="#cdcdcd" d="M32.433,32.399l17.341,10.012l-0.021,7.472L32.411,39.871L32.433,32.399z M42.174,43.013
					c0.594,0.343,1.084,0.064,1.086-0.622c0.002-0.682-0.485-1.526-1.079-1.868l-6.506-3.756c-0.594-0.343-1.084-0.064-1.086,0.619
					c-0.002,0.686,0.485,1.529,1.079,1.872L42.174,43.013L42.174,43.013z M46.509,45.516c0.594,0.343,1.084,0.064,1.086-0.622
					c0.002-0.682-0.485-1.526-1.079-1.868c-0.597-0.345-1.087-0.065-1.089,0.617C45.426,44.328,45.912,45.171,46.509,45.516
					L46.509,45.516z" class="colorcdcdcd svgShape"/><polygon fill="#cdcdcd" points="32.433 32.399 39.48 28.303 56.821 38.315 49.773 42.411" class="colorcdcdcd svgShape"/><polygon fill="#cdcdcd" points="49.773 42.411 56.821 38.315 56.8 45.787 49.752 49.883" class="colorcdcdcd svgShape"/><polygon fill="#00c7b7" points="51.944 42.415 58.992 38.319 58.964 48.282 51.916 52.378" class="color0080c7 svgShape"/><polygon fill="#00c7b7" points="31.354 29.281 38.402 25.186 57.914 36.451 50.866 40.547" class="color0080c7 svgShape"/><path fill="#00c7b7" d="M50.866,40.547l7.048-4.096c0.597,0.345,1.081,1.179,1.079,1.868l-7.048,4.096
					C51.946,41.725,51.463,40.891,50.866,40.547z" class="color0080c7 svgShape"/><path fill="#00c7b7" d="M50.866,40.547c0.597,0.345,1.081,1.179,1.079,1.868l-0.028,9.963
					c-0.002,0.69-0.489,0.967-1.086,0.622L31.319,41.735c-0.597-0.345-1.081-1.182-1.079-1.872l0.028-9.963
					c0.002-0.69,0.489-0.963,1.086-0.619L50.866,40.547z M49.752,49.883l0.021-7.472L32.433,32.399l-0.021,7.472L49.752,49.883
					L49.752,49.883z" class="color0080c7 svgShape"/><polygon fill="#cdcdcd" points="70.325 69.245 77.373 65.149 77.341 76.355 70.293 80.451" class="colorcdcdcd svgShape"/><polygon fill="#00c7b7" points="72.496 69.249 79.544 65.153 79.508 77.607 72.461 81.703" class="color0080c7 svgShape"/><path fill="#00c7b7" d="M71.414,67.379c0.6,0.347,1.084,1.184,1.082,1.87l-0.035,12.454
					c-0.002,0.69-0.489,0.967-1.089,0.621c-0.597-0.345-1.081-1.182-1.079-1.872l0.032-11.207L45.396,54.852l-0.032,11.207
					c-0.002,0.69-0.489,0.967-1.086,0.622c-0.6-0.347-1.084-1.184-1.082-1.874l0.035-12.454c0.002-0.686,0.489-0.963,1.089-0.617
					L71.414,67.379z" class="color0080c7 svgShape"/><path fill="#00c7b7" d="M71.414,67.379l7.048-4.096c0.6,0.347,1.084,1.184,1.082,1.87l-7.048,4.096
					C72.498,68.563,72.014,67.725,71.414,67.379z" class="color0080c7 svgShape"/></g><g class="color000000 svgShape"><polygon fill="#00c7b7" points="22.719 11.822 29.767 7.726 29.746 15.198 22.698 19.294" class="color0080c7 svgShape"/><polygon fill="#00c7b7" points="22.698 19.294 29.746 15.198 55.76 30.218 48.712 34.314" class="color0080c7 svgShape"/><path fill="#cdcdcd" d="M31.924,12.712c-0.002,0.69,0.482,1.527,1.082,1.874l-7.048,4.096
					c-0.6-0.347-1.084-1.184-1.082-1.874C27.225,15.443,29.574,14.077,31.924,12.712c-2.35,1.365-4.699,2.731-7.048,4.096
					c0.001-0.342,0.121-0.581,0.315-0.694l7.048-4.096C32.045,12.131,31.925,12.37,31.924,12.712z" class="colorcdcdcd svgShape"/><path fill="#00c9b9" d="M25.191,16.114l7.048-4.096c0.197-0.115,0.471-0.098,0.774,0.077l-7.048,4.096
					C25.662,16.016,25.388,15.999,25.191,16.114z" class="color0082c9 svgShape"/><path fill="#00c7b7" d="M20.87,8.629l7.048-4.096c0.197-0.115,0.471-0.098,0.774,0.077l-7.048,4.096
					C21.341,8.532,21.067,8.515,20.87,8.629z" class="color0080c7 svgShape"/><path fill="#cdcdcd" d="M49.264,23.973c0.3,0.173,0.572,0.189,0.769,0.075l-7.048,4.096
					c-0.197,0.114-0.469,0.098-0.769-0.075C44.331,26.84,47.15,25.201,49.264,23.973z" class="colorcdcdcd svgShape"/><path fill="#00c9b9" d="M50.034,24.048l-7.048,4.096c0.195-0.113,0.316-0.354,0.317-0.697
					c0.002-0.69-0.482-1.524-1.079-1.868l7.048-4.096c0.597,0.345,1.081,1.179,1.079,1.868
					C50.349,23.693,50.228,23.934,50.034,24.048z" class="color0082c9 svgShape"/><polygon fill="#00c9b9" points="25.965 16.191 33.013 12.095 49.272 21.482 42.224 25.578" class="color0082c9 svgShape"/><polygon fill="#cdcdcd" points="22.719 11.822 29.767 7.726 55.781 22.746 48.734 26.841" class="colorcdcdcd svgShape"/><polygon fill="#cdcdcd" points="48.734 26.841 55.781 22.746 55.76 30.218 48.712 34.314" class="colorcdcdcd svgShape"/><path fill="#00c7b7" d="M49.823,24.976c0.6,0.347,1.084,1.181,1.082,1.87l-0.028,9.963
					c-0.002,0.69-0.489,0.967-1.089,0.62L21.609,21.16c-0.6-0.347-1.084-1.184-1.082-1.874l0.028-9.963
					c0.002-0.69,0.489-0.963,1.089-0.617L49.823,24.976z M48.712,34.314l0.021-7.472L22.719,11.822l-0.021,7.472L48.712,34.314
					L48.712,34.314z" class="color0080c7 svgShape"/><path fill="#00c9b9" d="M42.224,25.578c0.597,0.345,1.081,1.179,1.079,1.868c-0.002,0.69-0.489,0.967-1.086,0.622
					l-16.259-9.387c-0.6-0.347-1.084-1.184-1.082-1.874c0.002-0.69,0.489-0.963,1.089-0.617L42.224,25.578z" class="color0082c9 svgShape"/><path fill="#cdcdcd" d="M42.224,25.578L28.111,17.43l-2.153,1.252l16.259,9.387l1.086-0.631
					C43.3,26.75,42.818,25.921,42.224,25.578z" class="colorcdcdcd svgShape"/><path fill="#00c7b7" d="M57.608,33.409l-7.048,4.096c0.195-0.113,0.315-0.354,0.316-0.697l7.048-4.096
					C57.923,33.055,57.803,33.296,57.608,33.409z" class="color0080c7 svgShape"/><path fill="#cdcdcd" d="M22.719,11.822l26.014,15.019l-0.021,7.472L22.698,19.294L22.719,11.822z M42.217,28.068
					c0.597,0.345,1.084,0.067,1.086-0.622c0.002-0.69-0.482-1.524-1.079-1.868l-16.258-9.387c-0.6-0.347-1.087-0.073-1.089,0.617
					c-0.002,0.69,0.482,1.527,1.082,1.874L42.217,28.068L42.217,28.068z" class="colorcdcdcd svgShape"/><polygon fill="#00c7b7" points="50.905 26.846 57.953 22.75 57.924 32.713 50.876 36.809" class="color0080c7 svgShape"/><polygon fill="#00c7b7" points="21.644 8.707 28.692 4.611 56.871 20.88 49.823 24.976" class="color0080c7 svgShape"/><path fill="#00c7b7" d="M49.823,24.976l7.048-4.096c0.6,0.347,1.084,1.181,1.082,1.87l-7.048,4.096
					C50.907,26.156,50.423,25.322,49.823,24.976z" class="color0080c7 svgShape"/></g><g class="color000000 svgShape"><path fill="#0c9a8e" d="M54.461 49.793l7.048-4.096c.191.305.442.569.718.729l-7.048 4.096C54.903 50.362 54.652 50.098 54.461 49.793zM54.414 47.955l7.048-4.096c.004-.002.009-.005.013-.007.196-.107.465-.088.76.083l-7.048 4.096c-.296-.171-.564-.19-.76-.083C54.422 47.95 54.418 47.953 54.414 47.955zM58.112 52.578l7.048-4.096c.42.731.418 1.52-.005 1.761l-7.048 4.096C58.53 54.098 58.533 53.31 58.112 52.578z" class="color600c9a svgShape"/><polygon fill="#0c9a8e" points="57.798 52.033 64.845 47.937 65.16 48.483 58.112 52.578" class="color600c9a svgShape"/><polygon fill="#0c9a8e" points="55.18 50.522 62.228 46.426 64.845 47.937 57.798 52.033" class="color600c9a svgShape"/><path fill="#0c9a8e" d="M57.798,52.033l0.315,0.546c0.42,0.731,0.418,1.52-0.005,1.761
					c-0.215,0.122-0.493,0.083-0.767-0.075c-0.278-0.16-0.555-0.442-0.765-0.809l-2.114-3.661c0.191,0.305,0.442,0.569,0.718,0.728
					L57.798,52.033z" class="color600c9a svgShape"/><polygon fill="#0c9a8e" points="55.187 48.031 62.235 43.935 64.849 45.444 57.801 49.54" class="color600c9a svgShape"/><polygon fill="#0c9a8e" points="54.426 47.948 61.474 43.852 63.642 42.617 56.594 46.712" class="color600c9a svgShape"/><polygon fill="#0c9a8e" points="57.801 49.54 64.849 45.444 74.155 50.817 67.107 54.913" class="color600c9a svgShape"/><path fill="#0c9a8e" d="M57.801,49.54l-2.615-1.51c-0.296-0.171-0.564-0.19-0.76-0.083l2.168-1.235
					c0.211-0.122,0.489-0.084,0.766,0.076c0.277,0.16,0.555,0.442,0.766,0.809c0.42,0.731,0.418,1.52-0.005,1.761L57.801,49.54z" class="color600c9a svgShape"/><path fill="#0c9a8e" d="M56.594 46.712l7.048-4.096c.211-.122.489-.084.766.076.277.16.555.443.766.809.42.731.418 1.52-.005 1.761l-7.048 4.096c.423-.241.425-1.03.005-1.761-.212-.367-.489-.649-.766-.809C57.083 46.628 56.806 46.59 56.594 46.712zM53.373 32.383l7.048-4.096c.196-.114.469-.097.771.077l-7.048 4.096C53.842 32.285 53.569 32.269 53.373 32.383zM76.002 54.009l-7.048 4.096c.195-.113.316-.354.317-.697l7.048-4.096C76.318 53.655 76.197 53.896 76.002 54.009z" class="color600c9a svgShape"/><polygon fill="#0c9a8e" points="69.313 42.464 76.361 38.368 76.319 53.312 69.271 57.408" class="color600c9a svgShape"/><polygon fill="#0c9a8e" points="54.144 32.46 61.192 28.364 75.283 36.499 68.235 40.595" class="color600c9a svgShape"/><path fill="#0c9a8e" d="M68.235,40.595c0.597,0.345,1.081,1.179,1.079,1.868l-0.042,14.944
					c-0.002,0.69-0.489,0.967-1.086,0.622l-10.388-5.997l-2.618-1.511c-0.276-0.16-0.528-0.423-0.718-0.728
					c-0.224-0.358-0.364-0.773-0.363-1.146c0.001-0.348,0.127-0.59,0.328-0.7c0.196-0.107,0.465-0.088,0.76,0.083l2.615,1.51
					l9.306,5.373l0.035-12.454l-13.006-7.509c-0.6-0.347-1.081-1.182-1.079-1.872c0.002-0.69,0.485-0.965,1.086-0.619L68.235,40.595
					z" class="color600c9a svgShape"/><path fill="#0c9a8e" d="M68.235,40.595l7.048-4.096c0.597,0.345,1.081,1.179,1.079,1.868l-7.048,4.096
					C69.315,41.774,68.832,40.94,68.235,40.595z" class="color600c9a svgShape"/></g><g class="color000000 svgShape"><path fill="#23f9e8" d="M33.343,68.724c0.902,0.918,1.681,2.016,2.258,3.166c-0.683,0.564-1.09,1.519-1.094,2.806
				c-0.002,0.69,0.482,1.527,1.082,1.874c0.597,0.345,1.084,0.067,1.086-0.622c-0.002,0.69-0.489,0.967-1.086,0.622
				c-0.6-0.347-1.084-1.184-1.082-1.874c0.005-1.783-1.45-4.078-3.241-5.112l-2.168-1.251c-1.794-1.036-3.257-0.426-3.262,1.357
				c-0.002,0.69-0.489,0.967-1.086,0.622c-0.6-0.347-1.084-1.184-1.082-1.874c0.007-2.383,1.397-3.63,3.362-3.358
				c0.677,1.631,1.835,3.118,3.149,3.877C31.496,69.717,32.659,69.569,33.343,68.724z" class="colorf9ac23 svgShape"/><path fill="#21fdeb" d="M30.207,59.74c2.091,1.207,3.787,4.258,3.779,6.801c-0.003,0.942-0.24,1.684-0.644,2.183
				c-0.684,0.845-1.847,0.993-3.162,0.234c-1.314-0.759-2.472-2.246-3.149-3.877c-0.4-0.963-0.632-1.977-0.63-2.92
				C26.409,59.619,28.116,58.533,30.207,59.74z M30.188,66.468c0.897,0.518,1.628-0.012,1.631-1.178
				c0.003-1.17-0.722-2.541-1.619-3.058c-0.897-0.518-1.628,0.012-1.631,1.182C28.566,64.579,29.291,65.95,30.188,66.468
				L30.188,66.468z" class="colorfdb021 svgShape"/><path fill="#fff" d="M30.2,62.231c0.897,0.518,1.622,1.888,1.619,3.058c-0.003,1.167-0.734,1.696-1.631,1.178
				c-0.897-0.518-1.622-1.888-1.619-3.055C28.573,62.243,29.303,61.713,30.2,62.231z" class="colorffffff svgShape"/><path fill="#8ef9f0" d="M42.105,75.842c1.791,1.034,3.246,3.329,3.241,5.112l-8.67-5.006
					c0.005-1.783,1.468-2.393,3.262-1.357L42.105,75.842z" class="color8ee7f9 svgShape"/><path fill="#21fdeb" d="M41.045,65.997c2.091,1.207,3.79,4.26,3.783,6.802c-0.003,0.943-0.24,1.685-0.645,2.184
					c-0.685,0.844-1.849,0.991-3.164,0.232c-1.314-0.759-2.472-2.246-3.15-3.877c-0.4-0.964-0.632-1.977-0.63-2.92
					C37.247,65.877,38.954,64.79,41.045,65.997z M41.026,72.725c0.897,0.518,1.631-0.01,1.634-1.177
					c0.003-1.17-0.725-2.542-1.622-3.06c-0.897-0.518-1.628,0.012-1.631,1.182C39.404,70.837,40.129,72.207,41.026,72.725
					L41.026,72.725z" class="colorfdb021 svgShape"/><path fill="#16f9e7" d="M44.183,74.983c0.902,0.917,1.68,2.015,2.257,3.164c-0.683,0.564-1.09,1.52-1.094,2.806
					c-0.002,0.69,0.482,1.527,1.082,1.874c0.597,0.345,1.084,0.067,1.086-0.622c-0.002,0.69-0.489,0.967-1.086,0.622
					c-0.6-0.346-1.084-1.184-1.082-1.874c0.005-1.783-1.45-4.078-3.241-5.112l-2.168-1.252c-1.794-1.036-3.257-0.425-3.262,1.357
					c-0.002,0.69-0.489,0.967-1.086,0.622c-0.6-0.347-1.084-1.184-1.082-1.874c0.004-1.287,0.411-2.242,1.094-2.806
					c0.582-0.48,1.364-0.677,2.268-0.552c0.677,1.631,1.835,3.118,3.15,3.877C42.334,75.975,43.498,75.827,44.183,74.983z" class="color16b2f9 svgShape"/><path fill="#fff" d="M41.038,68.488c0.897,0.518,1.625,1.89,1.622,3.06c-0.003,1.166-0.737,1.694-1.634,1.177
					c-0.897-0.518-1.622-1.888-1.619-3.055C39.411,68.5,40.141,67.97,41.038,68.488z" class="colorffffff svgShape"/><path fill="#8ff1e9" d="M52.943,82.1c1.791,1.034,3.246,3.329,3.241,5.112l-8.67-5.006
					c0.005-1.783,1.468-2.393,3.262-1.357L52.943,82.1z" class="color8fa8f1 svgShape"/><path fill="#21fdeb" d="M51.883,72.255c2.091,1.207,3.79,4.26,3.783,6.802c-0.003,0.943-0.24,1.685-0.645,2.184
					c-0.685,0.844-1.849,0.991-3.163,0.232c-1.314-0.759-2.472-2.246-3.15-3.877c-0.4-0.964-0.632-1.977-0.63-2.92
					C48.085,72.134,49.792,71.048,51.883,72.255z M51.864,78.982c0.897,0.518,1.631-0.01,1.634-1.177
					c0.003-1.17-0.725-2.542-1.622-3.06c-0.897-0.518-1.628,0.012-1.631,1.182C50.242,77.094,50.967,78.464,51.864,78.982
					L51.864,78.982z" class="colorfdb021 svgShape"/><path fill="#00cdbc" d="M55.021,81.241c0.902,0.917,1.68,2.015,2.257,3.164c-0.683,0.564-1.091,1.52-1.094,2.806
					c-0.002,0.69,0.482,1.527,1.082,1.874c0.597,0.345,1.084,0.067,1.086-0.622c-0.002,0.69-0.489,0.967-1.086,0.622
					c-0.6-0.346-1.084-1.184-1.082-1.874c0.005-1.783-1.45-4.078-3.241-5.112l-2.168-1.252c-1.794-1.036-3.257-0.425-3.262,1.357
					c-0.002,0.69-0.489,0.967-1.086,0.622c-0.6-0.346-1.084-1.184-1.082-1.874c0.004-1.287,0.411-2.242,1.094-2.806
					c0.582-0.48,1.364-0.677,2.268-0.552c0.677,1.631,1.835,3.118,3.15,3.877C53.172,82.232,54.335,82.085,55.021,81.241z" class="color0056cd svgShape"/><path fill="#fff" d="M51.876,74.745c0.897,0.518,1.625,1.89,1.622,3.06c-0.003,1.166-0.737,1.694-1.634,1.177
					c-0.897-0.518-1.622-1.888-1.619-3.055C50.249,74.757,50.979,74.228,51.876,74.745z" class="colorffffff svgShape"/><path fill="#04b4a6" d="M65.859,87.498c1.96,1.994,3.337,4.839,3.33,7.222c-0.002,0.69-0.485,0.969-1.086,0.622
					c-0.6-0.346-1.084-1.184-1.082-1.874c0.005-1.783-1.447-4.076-3.241-5.112l-2.168-1.252c-1.794-1.036-3.257-0.425-3.262,1.357
					c-0.002,0.69-0.489,0.967-1.086,0.622c-0.6-0.346-1.084-1.184-1.082-1.874c0.004-1.287,0.411-2.242,1.094-2.806
					c0.582-0.48,1.364-0.677,2.268-0.552c0.677,1.631,1.835,3.118,3.149,3.877C64.009,88.489,65.174,88.342,65.859,87.498z" class="color04b46f svgShape"/><path fill="#fff" d="M62.714,81.003c0.897,0.518,1.625,1.89,1.622,3.06c-0.003,1.166-0.737,1.694-1.634,1.177
					c-0.894-0.516-1.622-1.888-1.619-3.055C61.087,81.015,61.82,80.487,62.714,81.003z" class="colorffffff svgShape"/><path fill="#16f9e7" d="M67.074,74.79c0.6,0.346,1.084,1.184,1.082,1.87c-0.002,0.69-0.489,0.967-1.089,0.621
					L48.644,66.644c-0.6-0.347-1.084-1.184-1.082-1.874c0.002-0.686,0.489-0.963,1.089-0.617L67.074,74.79z" class="color16b2f9 svgShape"/><path fill="#fff" d="M45.419,54.803l24.929,14.393l-0.032,11.206L45.388,66.01L45.419,54.803z M67.067,77.281
					c0.6,0.346,1.087,0.069,1.089-0.621c0.002-0.686-0.482-1.524-1.082-1.87L48.651,64.154c-0.6-0.347-1.087-0.069-1.089,0.617
					c-0.002,0.69,0.482,1.527,1.082,1.874L67.067,77.281L67.067,77.281z M67.081,72.299c0.6,0.346,1.087,0.069,1.089-0.62
					c0.002-0.686-0.482-1.524-1.082-1.87L48.665,59.172c-0.6-0.347-1.087-0.069-1.089,0.617c-0.002,0.69,0.482,1.527,1.082,1.874
					L67.081,72.299L67.081,72.299z" class="colorffffff svgShape"/><path fill="#16f9e7" d="M67.088,69.809c0.6,0.346,1.084,1.184,1.082,1.87c-0.002,0.69-0.489,0.967-1.089,0.621
					L48.658,61.663c-0.6-0.346-1.084-1.184-1.082-1.874c0.002-0.686,0.489-0.963,1.089-0.617L67.088,69.809z" class="color16b2f9 svgShape"/><path fill="#3eccc0" d="M57.821 51.984l.315.546c.42.731.418 1.52-.005 1.761-.211.124-.489.085-.767-.075-.278-.16-.555-.442-.765-.809l-2.114-3.661c.191.305.442.569.718.728L57.821 51.984zM57.825 49.492l-2.615-1.51c-.296-.171-.564-.19-.76-.083l2.168-1.235c.211-.122.489-.084.766.076.277.16.555.442.766.809.42.731.418 1.52-.005 1.761L57.825 49.492z" class="color923ecc svgShape"/><path fill="#16f9e7" d="M71.438,67.33c0.6,0.346,1.084,1.184,1.082,1.87l-0.035,12.454
					c-0.002,0.69-0.489,0.967-1.089,0.62c-0.597-0.345-1.081-1.182-1.079-1.872l0.032-11.206L45.419,54.803L45.388,66.01
					c-0.002,0.69-0.489,0.967-1.086,0.622c-0.6-0.347-1.084-1.184-1.082-1.874l0.035-12.454c0.002-0.686,0.489-0.963,1.089-0.617
					L71.438,67.33z" class="color16b2f9 svgShape"/><path fill="#3eccc0" d="M68.258,40.546c0.6,0.347,1.081,1.179,1.079,1.868l-0.042,14.944
					c-0.002,0.69-0.486,0.969-1.086,0.622l-10.388-5.997l-2.618-1.511c-0.276-0.16-0.528-0.423-0.718-0.728
					c-0.224-0.358-0.364-0.773-0.363-1.146c0.001-0.348,0.127-0.59,0.329-0.7c0.196-0.107,0.465-0.088,0.76,0.083l2.615,1.51
					l9.306,5.373l0.035-12.454L54.16,34.902c-0.597-0.345-1.081-1.182-1.079-1.872c0.002-0.69,0.489-0.963,1.086-0.619
					L68.258,40.546z" class="color923ecc svgShape"/><path fill="#9cf9f1" d="M31.267,69.585c1.791,1.034,3.246,3.329,3.241,5.112l-8.67-5.006
				c0.005-1.783,1.468-2.393,3.262-1.357L31.267,69.585z" class="colorf9d29c svgShape"/><path fill="#a8fff8" d="M63.78,88.357c1.794,1.036,3.246,3.329,3.241,5.112l-8.67-5.006
				c0.005-1.783,1.468-2.393,3.262-1.357L63.78,88.357z" class="colora8ffa8 svgShape"/><path fill="#21fdeb" d="M62.721,78.512c2.091,1.207,3.79,4.26,3.783,6.802c-0.003,0.943-0.241,1.685-0.645,2.184
				c-0.685,0.844-1.849,0.991-3.163,0.232c-1.314-0.759-2.472-2.246-3.15-3.877c-0.4-0.964-0.633-1.977-0.63-2.92
				C58.923,78.391,60.63,77.305,62.721,78.512z M62.702,85.24c0.897,0.518,1.631-0.01,1.634-1.177
				c0.003-1.17-0.725-2.542-1.622-3.06c-0.894-0.516-1.628,0.012-1.631,1.182C61.08,83.351,61.808,84.724,62.702,85.24L62.702,85.24
				z" class="colorfdb021 svgShape"/><path fill="#fff" d="M32.456,32.35l17.341,10.012l-0.021,7.472L32.435,39.822L32.456,32.35z M42.198,42.964
				c0.594,0.343,1.084,0.063,1.086-0.622c0.002-0.682-0.485-1.525-1.079-1.868l-6.503-3.754c-0.597-0.345-1.087-0.065-1.089,0.617
				c-0.002,0.686,0.485,1.529,1.082,1.874L42.198,42.964L42.198,42.964z M46.533,45.467c0.594,0.343,1.084,0.064,1.086-0.622
				c0.002-0.682-0.485-1.526-1.079-1.868c-0.597-0.345-1.087-0.065-1.089,0.617C45.449,44.279,45.936,45.122,46.533,45.467
				L46.533,45.467z" class="colorffffff svgShape"/><path fill="#16f9e7" d="M50.889,40.498c0.597,0.345,1.081,1.179,1.079,1.868l-0.028,9.963
				c-0.002,0.69-0.489,0.967-1.086,0.622L31.346,41.688c-0.6-0.347-1.084-1.184-1.082-1.874l0.028-9.963
				c0.002-0.69,0.489-0.963,1.089-0.617L50.889,40.498z M49.776,49.834l0.021-7.472L32.456,32.35l-0.021,7.472L49.776,49.834
				L49.776,49.834z" class="color16b2f9 svgShape"/><path fill="#0bfbe7" d="M42.247,25.529c0.597,0.345,1.081,1.179,1.079,1.868c-0.002,0.69-0.489,0.967-1.086,0.622
				l-16.258-9.387c-0.597-0.345-1.081-1.182-1.079-1.872c0.002-0.69,0.489-0.963,1.086-0.619L42.247,25.529z" class="color0bb4fb svgShape"/><path fill="#16f9e7" d="M49.846,24.927c0.6,0.347,1.084,1.181,1.082,1.87L50.9,36.76c-0.002,0.69-0.489,0.967-1.089,0.621
				L21.632,21.111c-0.597-0.345-1.081-1.182-1.079-1.872l0.028-9.963c0.002-0.69,0.489-0.963,1.086-0.619L49.846,24.927z
				 M48.736,34.265l0.021-7.472L22.746,11.775l-0.021,7.472L48.736,34.265L48.736,34.265z" class="color16b2f9 svgShape"/><path fill="#fff" d="M22.746,11.775l26.011,15.017l-0.021,7.472L22.725,19.247L22.746,11.775z M42.24,28.02
				c0.597,0.345,1.084,0.067,1.086-0.622c0.002-0.69-0.482-1.524-1.079-1.868l-16.258-9.387c-0.597-0.345-1.084-0.071-1.086,0.619
				c-0.002,0.69,0.482,1.527,1.079,1.872L42.24,28.02L42.24,28.02z" class="colorffffff svgShape"/><path fill="#0bfbe7" d="M42.205,40.473c0.594,0.343,1.081,1.186,1.079,1.868c-0.002,0.686-0.492,0.965-1.086,0.622
				l-6.503-3.754c-0.597-0.345-1.084-1.188-1.082-1.874c0.002-0.682,0.492-0.962,1.089-0.617L42.205,40.473z" class="color0bb4fb svgShape"/><path fill="#3eccc0" d="M27.032,31.713c0.597,0.345,1.081,1.182,1.079,1.868c-0.002,0.69-0.489,0.967-1.086,0.622
				l-4.335-2.503l-0.035,12.454l14.726,8.502l2.614,1.509c0.597,0.345,1.081,1.182,1.079,1.868
				c-0.001,0.323-0.108,0.555-0.283,0.676c-0.015,0.01-0.03,0.019-0.046,0.028c-0.196,0.107-0.463,0.088-0.757-0.081l-2.618-1.511
				l-15.808-9.127c-0.597-0.345-1.081-1.182-1.079-1.872l0.042-14.944c0.002-0.686,0.489-0.963,1.086-0.619L27.032,31.713z" class="color923ecc svgShape"/><path fill="#3eccc0" d="M40.76 54.972c.411.712.421 1.476.031 1.739.175-.121.282-.353.283-.676.002-.686-.482-1.524-1.079-1.868l-2.614-1.509-.318-.551c-.423-.729-.421-1.518.005-1.761.211-.12.489-.082.766.079.277.16.555.441.766.806L40.76 54.972zM37.37 55.146l2.618 1.511c.294.17.561.188.757.081l-2.165 1.233c-.215.122-.489.085-.767-.076-.278-.16-.555-.442-.765-.809-.423-.729-.421-1.518.005-1.761L37.37 55.146z" class="color923ecc svgShape"/><path fill="#0bfbe7" d="M46.54,42.976c0.594,0.343,1.081,1.186,1.079,1.868c-0.002,0.686-0.492,0.965-1.086,0.622
				c-0.597-0.345-1.084-1.188-1.082-1.874C45.453,42.911,45.943,42.632,46.54,42.976z" class="color0bb4fb svgShape"/></g></svg>