<svg xmlns="http://www.w3.org/2000/svg" enable-background="new 0 0 51 51" viewBox="0 0 51 51"><g enable-background="new"><path fill="#C44141" d="M19.01267,42.71347c-0.083-0.04824-0.17956-0.07634-0.28861-0.08086
						c-0.18403-0.00795-0.38215,0.05224-0.57722,0.16486c-0.4327,0.24983-0.85071,0.75758-1.06885,1.35253l-1.07187,2.92057
						c-0.25908,0.70502-0.15735,1.31437,0.21091,1.52839l1.40996,0.81939c-0.36825-0.21401-0.46999-0.82337-0.21091-1.52839
						l1.07186-2.92057c0.21815-0.59494,0.63615-1.1027,1.06885-1.35252c0.19507-0.11262,0.3932-0.17282,0.57722-0.16487
						c0.10905,0.00452,0.2056,0.03263,0.28861,0.08086L19.01267,42.71347z"/><path fill="#DD4A4A" d="M19.5568,43.61686c0.19507-0.11262,0.3932-0.17282,0.57723-0.16486
							c0.59223,0.02454,0.81633,0.74466,0.49894,1.60834l-1.07187,2.92057c-0.21828,0.59532-0.6367,1.10337-1.06969,1.35336
							c-0.19481,0.11247-0.39261,0.1727-0.57638,0.16508c-0.59223-0.0256-0.81633-0.74571-0.49895-1.60939l1.07187-2.92057
							C18.7061,44.37444,19.1241,43.86669,19.5568,43.61686z"/></g><g enable-background="new"><path fill="#C44141" d="M41.08061,31.19009c0.32107-0.18538,0.6349-0.21969,0.86588-0.08546l-1.40996-0.81939
						c-0.23098-0.13423-0.5448-0.09991-0.86588,0.08546c-0.19501,0.11259-0.39268,0.28089-0.57609,0.501
						c-0.59107,0.70772-0.80944,1.6833-0.48821,2.17827l1.0849,1.67536c0.05695,0.08808,0.12712,0.15506,0.20732,0.20168
						l1.40997,0.81938c-0.08021-0.04662-0.15039-0.11359-0.20733-0.20168l-1.0849-1.67536
						c-0.32124-0.49497-0.10286-1.47055,0.48821-2.17827C40.68793,31.47097,40.8856,31.30268,41.08061,31.19009z"/><path fill="#DD4A4A" d="M41.08061,31.19009c0.43246-0.24968,0.85179-0.22532,1.07318,0.11582l1.0849,1.67536
							c0.32034,0.49549,0.10195,1.47108-0.4882,2.17932c-0.18317,0.21949-0.3806,0.38743-0.57544,0.49992
							c-0.43295,0.24996-0.85294,0.22593-1.07385-0.11578l-1.0849-1.67537c-0.32124-0.49497-0.10286-1.47055,0.48821-2.17827
							C40.68793,31.47097,40.88559,31.30268,41.08061,31.19009z"/></g><g enable-background="new"><path fill="#C44141" d="M9.91523,37.46106c-0.083-0.04824-0.17956-0.07634-0.28861-0.08086
						c-0.18403-0.00795-0.38215,0.05224-0.57722,0.16486C8.6167,37.7949,8.1987,38.30264,7.98055,38.8976l-1.07187,2.92057
						c-0.25908,0.70502-0.15735,1.31437,0.21091,1.52839l1.40996,0.81939c-0.36825-0.21401-0.46999-0.82337-0.21091-1.52839
						l1.07186-2.92057c0.21814-0.59495,0.63615-1.1027,1.06885-1.35252c0.19507-0.11262,0.3932-0.17282,0.57722-0.16487
						c0.10905,0.00452,0.2056,0.03263,0.28861,0.08086L9.91523,37.46106z"/><path fill="#DD4A4A" d="M10.45936,38.36445c0.19507-0.11262,0.3932-0.17282,0.57723-0.16487
							c0.59223,0.02455,0.81633,0.74466,0.49894,1.60834l-1.07187,2.92057c-0.21828,0.59532-0.6367,1.10337-1.06969,1.35336
							c-0.19481,0.11248-0.39261,0.1727-0.57638,0.16509c-0.59223-0.0256-0.81633-0.74571-0.49895-1.60939l1.07187-2.92057
							C9.60866,39.12203,10.02666,38.61428,10.45936,38.36445z"/></g><g enable-background="new"><path fill="#C44141" d="M31.98317,25.93768c0.32107-0.18538,0.6349-0.21969,0.86588-0.08546l-1.40996-0.81939
						c-0.23097-0.13423-0.5448-0.09991-0.86588,0.08546c-0.19501,0.1126-0.39268,0.28089-0.57609,0.50101
						c-0.59107,0.70772-0.80944,1.6833-0.48821,2.17828l1.0849,1.67536c0.05694,0.08808,0.12712,0.15506,0.20732,0.20168
						l1.40997,0.81938c-0.08022-0.04662-0.15039-0.11359-0.20733-0.20168l-1.0849-1.67536
						c-0.32123-0.49497-0.10285-1.47055,0.48821-2.17828C31.59049,26.21856,31.78816,26.05026,31.98317,25.93768z"/><path fill="#DD4A4A" d="M31.98317,25.93768c0.43246-0.24968,0.85179-0.22532,1.07319,0.11582l1.0849,1.67536
							c0.32034,0.49549,0.10195,1.47108-0.4882,2.17932c-0.18316,0.21949-0.38059,0.38742-0.57544,0.49992
							c-0.43295,0.24996-0.85294,0.22593-1.07385-0.11578l-1.08489-1.67536c-0.32124-0.49497-0.10286-1.47055,0.48821-2.17827
							C31.59049,26.21856,31.78815,26.05027,31.98317,25.93768z"/></g><g enable-background="new"><path fill="#DD4A4A" d="M44.96938,24.85759c0.00968,3.37148-2.36101,7.47559-5.29428,9.16893L19.71162,45.55368
							c-2.93328,1.69334-5.31917,0.33315-5.32884-3.03695L14.3496,30.65781c-0.00968-3.37148,2.35962-7.47697,5.29428-9.17032
							L39.60735,9.9617c2.9319-1.69334,5.31918-0.33452,5.32885,3.03696L44.96938,24.85759z"/><path fill="#FC7E7E" d="M35.06746,4.76044c-0.96584-0.56128-2.30334-0.48213-3.77924,0.36998l-19.96362,11.526l8.31882,4.83127
						l19.96362-11.526c1.47589-0.85211,2.81341-0.93125,3.77924-0.36997L35.06746,4.76044z"/><path fill="#F25A5A" d="M19.64341,21.48768l-8.31882-4.83127c-2.93363,1.69373-5.30353,5.79856-5.29397,9.16952
						l0.03362,11.85925c0.00475,1.67467,0.59584,2.85286,1.5492,3.40691l8.31882,4.83127
						c-0.95337-0.55404-1.54447-1.73224-1.54921-3.40691l-0.03362-11.85925C14.33988,27.28624,16.70978,23.18142,19.64341,21.48768z
						"/><path fill="#FC7E7E" d="M15.93236,45.92277l-8.3188-4.83121c-0.9538-0.55293-1.54406-1.73205-1.54958-3.40604l8.3188,4.83121
						C14.3883,44.19072,14.97855,45.36984,15.93236,45.92277z"/></g><path fill="#FC7E7E" d="M34.29371,19.84391c-0.00419-1.56276-0.67867-2.55843-1.70895-2.81108
					c0.47419,0.48949,0.75534,1.25979,0.75804,2.26587l0.03041,10.45864c0.00691,2.57526-1.80531,5.71037-4.04605,7.00422
					l-9.96238,5.75183c-0.88061,0.50849-1.69606,0.65557-2.3628,0.49221c0.73887,0.7631,1.94832,0.8414,3.31371,0.05299
					l9.96238-5.75183c2.24075-1.29385,4.05296-4.42895,4.04605-7.00422L34.29371,19.84391z"/><path fill="#B5E5F4" d="M33.37809,29.76215c0,2.57001-1.81,5.71002-4.05005,7l-9.95996,5.75
					c-0.88,0.51001-1.70001,0.66003-2.37,0.49005c-0.47003-0.49005-0.75-1.26001-0.75-2.26001l-0.03003-10.46002
					c-0.01001-2.57001,1.79999-5.70996,4.03998-7.01001l9.96002-5.75c0.88-0.51001,1.70001-0.64996,2.37-0.48999
					c0.47003,0.48999,0.75,1.26001,0.75,2.27002L33.37809,29.76215z"/><path fill="#C44141" d="M39.31938,24.22771c1.82806-1.05543,3.31519-0.2088,3.32115,1.89262
					c0.00595,2.09973-1.47153,4.65967-3.29958,5.7151c-1.8288,1.05586-3.3152,0.20711-3.32115-1.89262
					C36.01384,27.84139,37.49059,25.28356,39.31938,24.22771z"/><g enable-background="new"><path fill="#FFE2A9" d="M40.97656,24.5389c-0.12255-0.06984-0.28272-0.04766-0.44255,0.04463
						c-0.15984,0.09228-0.31935,0.25467-0.4406,0.46526l-0.27916,0.48235l0.78984,0.45901l0.27916-0.48235
						c0.12124-0.21058,0.28077-0.37298,0.4406-0.46526c0.15984-0.09228,0.32-0.11446,0.44255-0.04463L40.97656,24.5389z"/><path fill="#FFD651" d="M38.20763,31.15959l-0.78984-0.45901c-0.80605-0.46168-0.81131-1.96098-0.0095-3.35096
							c0.40178-0.69518,0.92932-1.23198,1.45706-1.53667c0.32607-0.18825,0.65212-0.28794,0.9489-0.28182l0.78984,0.45901
							c-0.29678-0.00613-0.62283,0.09356-0.9489,0.28182c-0.52774,0.30469-1.05529,0.84149-1.45706,1.53667
							C37.39631,29.19861,37.40158,30.69791,38.20763,31.15959z"/><path fill="#EFC348" d="M38.20827,31.15907L37.4174,30.7012c-0.80528-0.46268-0.81168-1.96118-0.00961-3.35081
							l0.79087,0.45787C37.3966,29.19789,37.4014,30.69799,38.20827,31.15907z"/><path fill="#DDB040" d="M41.7693,26.0132l-0.27923,0.48243c0.4064,0.65937,0.28338,1.85646-0.36493,2.98028
							c-0.40088,0.69531-0.92892,1.23027-1.45559,1.53576c-0.52805,0.3041-1.05747,0.37737-1.4625,0.14791
							c-0.00276-0.00138-0.00552-0.00277-0.00829-0.00553c-0.79759-0.46723-0.80036-1.96013-0.00137-3.34383
							c0.00137-0.00138,0.00137-0.00138,0.00137-0.00138c0.40088-0.6953,0.92892-1.23164,1.45697-1.53714
							c0.32484-0.18799,0.65107-0.28752,0.94827-0.28199l0.27923-0.48243c0.12165-0.21011,0.28061-0.37184,0.44096-0.46446
							c0.15896-0.09262,0.31932-0.11473,0.44234-0.04424C42.01121,25.13544,42.01259,25.5916,41.7693,26.0132z"/></g><path fill="#FC7E7E" d="M42.39748 15.5678l-5.87346 3.39104c-.03207.01851-.06255.02934-.09207.03682.05524.10279.17369.12878.31091.04957l5.87347-3.39105c.18887-.10904.34281-.37569.3422-.59272-.00051-.18093-.1079-.26982-.25216-.23322.02069.03868.03316.08737.03333.14684C42.7403 15.1921 42.58635 15.45875 42.39748 15.5678zM41.71887 14.42879l-4.29584 2.4802c-.00456.10834.06148.17723.17422.11214l4.34046-2.50596c.17651-.10191.23931-.40329.08897-.42416-.04636-.00663-.09463-.0088-.14215-.01275C41.91278 14.17922 41.84616 14.3553 41.71887 14.42879zM43.18718 16.11802c.0208.0387.03336.08736.03353.14671.00062.21805-.15333.48368-.34221.59272l-6.64217 3.83486c-.03214.01856-.06269.02944-.09227.03695.05516.10316.17375.12875.31112.04944l6.64217-3.83486c.18887-.10905.34282-.37468.34219-.59272C43.43902 16.17094 43.33154 16.08148 43.18718 16.11802zM42.71372 17.95953c.02055.03857.03291.08707.03307.14619.00062.21804-.15245.48316-.34132.5922l-5.8717 3.39002c-.03214.01855-.06269.02943-.09227.03694.05515.10316.17374.12875.3111.04945l5.87171-3.39003c.18886-.10904.34193-.37416.34132-.5922C42.96512 18.01176 42.85806 17.92262 42.71372 17.95953zM41.953 19.91137l-.04506.02601c-.00264.06214-.02813.13708-.0827.20782-.65441.85118-1.4294 1.57187-2.25901 2.05085-.77015.44465-1.49316.62374-2.11978.57225.0109.039.03463.06775.07626.07371.65797.09348 1.43363-.0811 2.26236-.55957.82961-.47898 1.60461-1.19967 2.25902-2.05085C42.19381 20.03746 42.12952 19.80946 41.953 19.91137z"/><path fill="#C44141" d="M36.74062 18.25623c-.18887.10904-.34282.37467-.3422.59272.00017.05935.01273.10802.03353.14671.02952-.00747.06001-.01831.09207-.03682l5.87346-3.39104c.18887-.10905.34282-.37569.34221-.59272-.00017-.05946-.01264-.10815-.03333-.14684-.02959.00751-.06014.01838-.09229.03694L36.74062 18.25623zM39.76519 14.65007c-.83049.47948-1.60461 1.19967-2.2599 2.05136-.05425.07056-.07965.14544-.08227.20757l4.29584-2.4802c.12729-.07349.19392-.24958.16565-.35053C41.25854 14.02629 40.53544 14.20535 39.76519 14.65007zM42.8785 16.85744c.18887-.10904.34282-.37467.34221-.59272-.00017-.05935-.01273-.10801-.03353-.14671-.02952.00747-.06001.0183-.09208.03682l-6.64217 3.83486c-.18887.10905-.34281.37569-.34219.59272.00017.05946.01264.10815.03333.14684.02958-.00751.06013-.01838.09227-.03695L42.8785 16.85744zM42.40547 18.69792c.18887-.10904.34194-.37416.34132-.5922-.00017-.05912-.01253-.10761-.03307-.14619-.02937.00751-.05971.01835-.09164.03679l-5.8717 3.39003c-.18887.10904-.34282.37467-.34221.5917.00017.05946.01264.10815.03333.14684.02958-.00751.06014-.01838.09227-.03694L42.40547 18.69792zM39.56623 22.19606c.82961-.47898 1.6046-1.19967 2.25901-2.05085.05457-.07074.08006-.14568.0827-.20782l-4.29539 2.47995c-.12799.07389-.19436.24996-.16611.35097C38.07307 22.8198 38.79609 22.64071 39.56623 22.19606z"/><g><path fill="#E9E8E6" d="M27.83569,13.66784v0.01577c-0.00615,0.34022-0.312,0.68044-0.91961,0.9463
				c-0.56655,0.24334-1.2932,0.37401-2.03423,0.39655c-0.09443,0.00226-0.1868,0.0045-0.28123,0
				c-0.78823-0.00677-1.57031-0.14195-2.17381-0.39655c-0.6117-0.26361-0.92577-0.60608-0.93398-0.9463h-0.00205v-0.03155
				c0.01437-0.92601,0.74513-1.71685,1.80023-2.09311c0.41669-0.14646,0.87855-0.23207,1.37326-0.23207
				c0.30791,0,0.60554,0.0338,0.88676,0.09464C26.86477,11.70316,27.82749,12.59988,27.83569,13.66784z"/></g><g><path fill="#D6D4D2" d="M27.83276,13.66956v0.01492c0,0.33632-0.30635,0.68012-0.91924,0.94916
					c-0.56052,0.23916-1.29292,0.37368-2.03279,0.39608h-0.27661c2.23488-0.78307,2.88409-2.75954,0.94916-3.60971
					C26.86116,11.70401,27.82528,12.6008,27.83276,13.66956z"/></g><g><path fill="#E9E8E6" d="M25.19858,12.75133c-0.0544,0-0.10968-0.0108-0.16287-0.03355
				c-0.21059-0.09004-0.30825-0.33377-0.21822-0.54436l4.04795-9.46633c0.09004-0.21066,0.3337-0.30846,0.54436-0.21821
				c0.21059,0.09004,0.30825,0.33377,0.21821,0.54436l-4.04794,9.46633C25.51277,12.65697,25.35956,12.75133,25.19858,12.75133z"/></g><g><path fill="#E9E8E6" d="M23.90279,13.48407c-0.07114,0-0.14323-0.01836-0.2091-0.0569l-6.70911-3.92746
				c-0.19763-0.11569-0.26411-0.36974-0.14836-0.56737c0.11562-0.19776,0.36961-0.26411,0.56737-0.14836l6.70911,3.92746
				c0.19763,0.11569,0.26411,0.36974,0.14836,0.56737C24.18391,13.41064,24.0452,13.48407,23.90279,13.48407z"/></g><g><path fill="#C4C2C0" d="M17.86056,9.24098c-0.14672,0.3523-0.42844,0.63818-0.77992,0.78688
				c-0.86423,0.36561-1.70873,0.00418-2.09119-0.65857c-0.20322-0.34275-0.28069-0.76355-0.17661-1.2066
				c0.14955-0.63659,0.66532-1.11077,1.31208-1.2073c0.35541-0.05304,0.69201,0.00267,0.9798,0.15223
				C17.82305,7.46249,18.23642,8.33847,17.86056,9.24098z"/></g><g><path fill="#D6D4D2" d="M17.1599,8.66881c-0.1238,0.27383-0.33584,0.50413-0.59972,0.64792
				c-0.5507,0.30008-1.12398,0.28031-1.57072,0.05256c-0.25322-0.42708-0.3112-0.97534-0.06598-1.53682
				c0.16435-0.37631,0.48589-0.6706,0.8759-0.79911c0.47369-0.15608,0.93085-0.12036,1.30536,0.07425
				C17.36163,7.54088,17.41757,8.09885,17.1599,8.66881z"/></g><g><path fill="#C4C2C0" d="M30.36285,3.80521c-0.14672,0.3523-0.42844,0.63819-0.77992,0.78688
				C28.7187,4.9577,27.8742,4.59627,27.49174,3.93352c-0.20322-0.34275-0.28069-0.76355-0.17661-1.2066
				c0.14955-0.63659,0.66532-1.11077,1.31208-1.2073c0.35541-0.05304,0.69201,0.00267,0.9798,0.15223
				C30.32533,2.02671,30.7387,2.9027,30.36285,3.80521z"/></g><g><path fill="#D6D4D2" d="M29.66218,3.23304c-0.1238,0.27383-0.33584,0.50413-0.59972,0.64792
				c-0.5507,0.30008-1.12398,0.28031-1.57072,0.05256c-0.25322-0.42708-0.3112-0.97534-0.06598-1.53682
				c0.16435-0.37631,0.48589-0.6706,0.8759-0.79911c0.47369-0.15608,0.93085-0.12036,1.30536,0.07425
				C29.86391,2.1051,29.91985,2.66307,29.66218,3.23304z"/></g><path fill="#FFF" d="M19.21616,24.24731c-1.65285,0-3.00348,1.32461-3.00348,3.00348c0-1.6519-1.34084-3.00348-2.9928-3.00348
		c1.64412,0,2.9928-1.32478,2.9928-2.99274C16.21268,22.91275,17.55067,24.24731,19.21616,24.24731z"/></svg>