<?xml version="1.0" encoding="UTF-8"?><svg id="Layer_2" xmlns="http://www.w3.org/2000/svg" viewBox="0 0 45.15 48"><defs><style>.cls-1{fill:#fff;}.cls-2{fill:#e4f4f3;}.cls-3{fill:#9bddd8;}.cls-4{fill:#65aaa4;}.cls-5{fill:#30e6d7;}.cls-6{fill:#b2ebe6;}.cls-7{fill:#a3e7e1;}.cls-8{fill:#cadddb;}.cls-9{fill:#d4e8e6;}.cls-10{fill:#41efe1;}.cls-11{fill:#3ce5d7;}.cls-12{fill:#3cd6c9;}.cls-13{fill:#3f4f4e;}.cls-14{fill:#6cddd4;}.cls-15{fill:#6ebab4;}.cls-16{fill:#51eee1;}.cls-17{fill:#5b716f;}.cls-18{fill:#57fbee;}.cls-19{fill:#54d1c7;}.cls-20{fill:#5afff2;}.cls-21{fill:#475958;}.cls-22{fill:#306d68;}.cls-23{fill:#3a3a3a;}.cls-24{fill:#32e7d8;}.cls-25{fill:#55f2e5;}.cls-26{fill:#43eddf;}.cls-27{fill:#75cac3;}.cls-28{fill:#74fdf2;}.cls-29{fill:#4af9eb;}.cls-30{fill:#45efe1;}.cls-31{fill:#41e1d4;isolation:isolate;opacity:.3;}.cls-32{opacity:.4;}</style></defs><g id="Layer_1-2"><polygon class="cls-2" points="34.68 30.7 20.99 38.66 20.99 39.11 21.33 39.31 20.99 39.5 20.99 39.96 21.33 40.15 20.99 40.34 20.99 40.8 21.33 41 20.99 41.19 20.99 41.65 31.46 47.69 45.15 39.73 45.15 39.27 44.81 39.08 45.15 38.89 45.15 38.43 44.81 38.24 45.15 38.04 45.15 37.59 44.81 37.39 45.15 37.2 45.15 36.74 34.68 30.7"/><polygon class="cls-2" points="11.78 37.68 11.75 44.46 12.94 45.15 14 44.53 14.03 37.75 12.85 37.06 11.78 37.68"/><polygon class="cls-2" points="16.72 44.34 16.69 47.32 17.88 48 18.94 47.38 18.97 44.4 17.79 43.72 16.72 44.34"/><path class="cls-2" d="M0,17.1l.05,18.8v2.57c.01,.39,.15,.67,.37,.8l1.83,1.06c.23,.13,.55,.12,.9-.08l6.14-3.55v6.34l1.17,.68,1.07-.62v-7.7l1.37-.78v.29c0,.1,.04,.2,.14,.29l3.12,2.9c.32,.3,1.03,.35,1.47,.1l6.77-3.91c.19-.11,.28-.25,.28-.39v-.94s-.02,.04-.03,.07c.03-.2-.1-.4-.41-.52l-3.95-1.43v-.74l6.21-3.58v3.21c.01,.19,.08,.33,.2,.39l.62,.37c.11,.06,.27,.06,.45-.04l1.05-.61,.8,1.02,.62,.37,1.18-2.89,1.29-.75c.34-.2,.62-.67,.62-1.07v-3.59c-.02-.19-.09-.33-.2-.4l-.62-.36c-.11-.07-.27-.06-.45,.05l-2.15,1.24c.02-.13,.06-.26,.06-.38v-2.57l-.06-18.81c-.01-.44-.18-.72-.44-.83L27.72,.08c-.23-.13-.55-.11-.89,.09L1.25,14.93c-.69,.4-1.25,1.37-1.25,2.17Zm42.68,1.09c.6-.91,.88-2.04,.68-3.25-.32-1.97-1.97-3.53-3.95-3.74-2.72-.28-5.02,1.84-5.02,4.49,0,1,.32,1.92,.87,2.67,.77,1.05,1.22,2.28,1.42,3.56-.15,.19-.23,.38-.23,.58v.68s.01,.07,.01,.1-.01,.05-.01,.08v.68s.01,.07,.01,.1-.01,.05-.01,.08v.69c0,.36,.24,.72,.71,1,.18,.1,.4,.17,.61,.23,.13,.52,.58,.91,1.14,.91s1.01-.39,1.14-.91c.21-.07,.42-.13,.6-.23,.48-.28,.72-.65,.72-1.02v-.65h0v-.02s-.01-.05-.01-.08c0-.04,.01-.07,.01-.11v-.67s-.01-.06-.01-.08c0-.04,.01-.07,.01-.11v-.67c-.01-.21-.09-.41-.25-.61,.15-1.32,.81-2.57,1.56-3.7Z"/><polygon class="cls-2" points="14.24 41.24 14.22 45.89 15.4 46.57 16.47 45.95 16.48 41.3 15.3 40.62 14.24 41.24"/><path class="cls-21" d="M12.9,33.96v.96c0,.1,.05,.2,.14,.29l3.12,2.9c.32,.29,1.03,.35,1.47,.09l6.77-3.91c.19-.1,.28-.25,.28-.39v-.94c0,.13-.1,.27-.28,.38l-6.77,3.91c-.44,.25-1.15,.2-1.47-.09l-3.12-2.9c-.09-.09-.14-.19-.14-.29Z"/><path class="cls-17" d="M13.17,33.6c-.31,.18-.37,.46-.13,.68l3.12,2.9c.32,.3,1.04,.35,1.47,.1l6.77-3.91c.43-.25,.35-.67-.16-.85l-5-1.82c-.37-.14-.86-.1-1.17,.08l-4.89,2.83Z"/><polygon class="cls-13" points="15.12 28.76 15.12 34.32 16.24 34.97 16.24 29.41 15.12 28.76"/><polygon class="cls-21" points="16.24 29.41 16.24 34.97 20.29 32.63 20.29 27.07 16.24 29.41"/><polygon class="cls-17" points="15.12 28.76 16.24 29.41 20.29 27.07 19.17 26.42 15.12 28.76"/><polygon class="cls-2" points="29.96 20.75 28.13 19.69 .05 35.9 1.88 36.97 29.96 20.75"/><polygon class="cls-17" points="28.68 2.65 26.85 1.58 26.9 18.99 28.73 20.05 28.68 2.65"/><path class="cls-2" d="M.05,35.9v2.58c0,.39,.15,.67,.37,.8l1.83,1.06c-.22-.13-.37-.41-.37-.8v-2.57L.05,35.9Z"/><path class="cls-9" d="M1.88,36.97v2.57c0,.79,.58,1.11,1.27,.71l25.57-14.76c.7-.4,1.26-1.37,1.25-2.17v-2.57L1.88,36.97Z"/><polygon class="cls-1" points="3.08 17.39 1.25 16.33 1.28 33.79 3.1 34.85 3.08 17.39"/><polygon class="cls-17" points="28.73 20.05 26.9 18.99 1.28 33.79 3.1 34.85 28.73 20.05"/><polygon class="cls-1" points="3.08 17.39 3.1 34.85 28.73 20.05 28.68 2.65 3.08 17.39"/><path class="cls-28" d="M4.91,19.13v4.8c.02,.55,.4,.77,.88,.5l7.01-4.05c.48-.28,.86-.94,.86-1.49v-4.8c-.01-.55-.4-.77-.88-.49l-7.01,4.04c-.48,.28-.86,.95-.86,1.49Z"/><polygon class="cls-1" points="28.68 2.65 26.85 1.58 1.25 16.33 3.08 17.39 28.68 2.65"/><path class="cls-17" d="M0,17.11l.05,18.81,1.82,1.06-.05-18.81c0-.8,.57-1.77,1.25-2.17L28.65,1.24c.35-.2,.67-.22,.89-.09L27.72,.09c-.23-.14-.54-.11-.89,.09L1.25,14.94C.56,15.33,0,16.3,0,17.11Z"/><path class="cls-21" d="M3.08,15.99c-.69,.4-1.26,1.37-1.25,2.17l.05,18.81L29.96,20.75l-.05-18.81c0-.8-.57-1.11-1.26-.72L3.08,15.99Zm25.65,4.07L3.1,34.85l-.02-17.45L28.68,2.65l.05,17.41"/><path class="cls-21" d="M17.73,28.94c.42-.24,.76-.05,.76,.43,0,.48-.34,1.07-.75,1.31-.42,.24-.76,.05-.76-.43,0-.48,.34-1.07,.75-1.31Z"/><path class="cls-14" d="M5.64,28.13c-.89,.51-1.02,2.51-1.29,3.72-.1,.45-.2,.91-.3,1.36l11.94-6.89,.24-.17c-.39-.43-.78-.85-1.17-1.28-.15-.16-.33-.34-.59-.23-.03,.01-.05,.02-.07,.04-.28,.16-.53,.59-.68,.96-.17,.41-.31,.85-.59,1.19-.11,.14-.24,.24-.37,.32-.31,.18-.62,.17-.85,.04-.31-.18-.51-.56-.77-.82-.26-.27-.63-.43-1.07-.17-.72,.43-1.14,1.58-1.8,2.24-.14,.13-.28,.24-.42,.32-.38,.22-.77,.26-1.08,.16-.42-.13-.48-1.06-1.01-.83-.03,.01-.07,.03-.1,.05Z"/><path class="cls-19" d="M5.63,27c-.89,.51-1.02,3.03-1.29,4.53-.1,.56-.2,1.12-.3,1.69,.1-.45,.2-.91,.3-1.36,.28-1.21,.41-3.21,1.29-3.72,.03-.02,.07-.04,.1-.05,.53-.23,.59,.7,1.01,.83,.31,.1,.7,.06,1.08-.16,.14-.08,.28-.19,.42-.32,.66-.65,1.08-1.81,1.78-2.23,.46-.26,.84-.1,1.09,.16,.26,.27,.45,.64,.77,.82,.22,.13,.54,.13,.85-.04,.13-.07,.25-.18,.37-.32,.28-.34,.42-.78,.59-1.19,.16-.37,.4-.8,.68-.96,.02-.01,.05-.03,.07-.04,.26-.11,.44,.06,.59,.23,.39,.42,.78,.85,1.17,1.27-.39-.61-.78-1.21-1.17-1.81-.15-.23-.33-.48-.59-.38-.02,0-.05,.02-.07,.03-.29,.16-.53,.66-.68,1.12-.17,.49-.31,1.03-.59,1.42-.11,.16-.24,.27-.37,.35-.31,.18-.62,.12-.85-.08-.31-.28-.51-.79-.77-1.17-.26-.38-.64-.64-1.08-.39-.71,.43-1.14,1.84-1.79,2.56-.14,.15-.28,.26-.42,.34-.38,.22-.77,.21-1.08,.04-.42-.24-.48-1.42-1.01-1.22-.03,.01-.07,.03-.1,.05Z"/><path class="cls-16" d="M18.09,10.83l.02,5.1c0,.21,.08,.35,.19,.42l1.27,.73c-.12-.07-.19-.21-.19-.42l-.02-5.1c0-.42,.29-.93,.65-1.14l7.99-4.61c.18-.11,.35-.12,.47-.05l-1.27-.73c-.12-.07-.28-.06-.47,.05l-7.99,4.61c-.36,.21-.65,.72-.65,1.14Z"/><path class="cls-24" d="M20.02,10.42c-.36,.21-.66,.72-.66,1.14v5.1c.02,.42,.31,.59,.67,.38l7.99-4.61c.36-.21,.66-.72,.66-1.14V6.18c-.02-.42-.31-.59-.67-.38l-7.99,4.61Z"/><path class="cls-29" d="M24.09,9.46c-.94,.54-1.7,1.86-1.7,2.94,0,1.08,.77,1.52,1.71,.98,.94-.54,1.7-1.86,1.7-2.94,0-1.08-.77-1.52-1.71-.97Z"/><polygon class="cls-1" points="24.66 9.88 22.95 12.11 24.66 12.38 24.66 9.88"/><g><polygon class="cls-26" points="10.48 34.89 11.54 34.28 11.53 43.1 10.46 43.72 10.48 34.89"/><polygon class="cls-25" points="9.3 34.21 10.36 33.59 11.54 34.28 10.48 34.89 9.3 34.21"/><polygon class="cls-5" points="10.48 34.89 10.46 43.72 9.28 43.04 9.3 34.21 10.48 34.89"/></g><g><polygon class="cls-30" points="12.96 38.37 14.03 37.75 14 44.53 12.94 45.15 12.96 38.37"/><polygon class="cls-18" points="11.78 37.69 12.85 37.07 14.03 37.75 12.96 38.37 11.78 37.69"/><polygon class="cls-12" points="12.96 38.37 12.94 45.15 11.76 44.47 11.78 37.69 12.96 38.37"/></g><g><polygon class="cls-15" points="15.42 41.92 16.48 41.3 16.47 45.95 15.4 46.57 15.42 41.92"/><polygon class="cls-27" points="14.24 41.24 15.3 40.62 16.48 41.3 15.42 41.92 14.24 41.24"/><polygon class="cls-4" points="15.42 41.92 15.4 46.57 14.22 45.89 14.24 41.24 15.42 41.92"/></g><g><polygon class="cls-10" points="17.9 45.02 18.97 44.4 18.94 47.38 17.88 48 17.9 45.02"/><polygon class="cls-29" points="16.72 44.34 17.79 43.72 18.97 44.4 17.9 45.02 16.72 44.34"/><polygon class="cls-11" points="17.9 45.02 17.88 48 16.7 47.32 16.72 44.34 17.9 45.02"/></g><g><polygon class="cls-9" points="45.15 39.28 45.15 39.74 31.46 47.69 31.46 47.23 45.15 39.28"/><polygon class="cls-9" points="31.46 47.23 31.46 47.69 20.99 41.65 20.99 41.19 31.46 47.23"/><polygon class="cls-2" points="45.15 39.28 31.46 47.23 20.99 41.19 34.68 33.24 45.15 39.28"/><polygon class="cls-9" points="45.15 38.43 45.15 38.89 31.46 46.85 31.46 46.39 45.15 38.43"/><polygon class="cls-9" points="31.46 46.39 31.46 46.85 20.99 40.8 20.99 40.35 31.46 46.39"/><polygon class="cls-2" points="45.15 38.43 31.46 46.39 20.99 40.35 34.68 32.39 45.15 38.43"/><g><polygon class="cls-9" points="45.15 37.59 45.15 38.05 31.46 46 31.46 45.54 45.15 37.59"/><polygon class="cls-9" points="31.46 45.54 31.46 46 20.99 39.96 20.99 39.5 31.46 45.54"/><polygon class="cls-2" points="45.15 37.59 31.46 45.54 20.99 39.5 34.68 31.55 45.15 37.59"/></g><g><polygon class="cls-9" points="45.15 36.74 45.15 37.2 31.46 45.16 31.46 44.7 45.15 36.74"/><polygon class="cls-9" points="31.46 44.7 31.46 45.16 20.99 39.12 20.99 38.66 31.46 44.7"/><polygon class="cls-2" points="45.15 36.74 31.46 44.7 20.99 38.66 34.68 30.7 45.15 36.74"/></g></g><g><polygon class="cls-9" points="38.59 34.06 38.31 34.22 34.39 31.96 34.67 31.79 38.59 34.06"/><polygon class="cls-9" points="36.8 35.1 36.52 35.26 32.6 33 32.88 32.83 36.8 35.1"/><polygon class="cls-9" points="35.91 35.62 35.63 35.78 31.7 33.51 31.98 33.35 35.91 35.62"/><polygon class="cls-9" points="35.01 36.14 34.73 36.3 30.81 34.04 31.09 33.87 35.01 36.14"/><polygon class="cls-9" points="34.12 36.66 33.84 36.82 29.91 34.56 30.2 34.39 34.12 36.66"/><polygon class="cls-9" points="33.23 37.17 32.94 37.34 29.02 35.08 29.3 34.91 33.23 37.17"/><polygon class="cls-9" points="32.33 37.7 32.05 37.86 28.13 35.59 28.41 35.43 32.33 37.7"/><polygon class="cls-9" points="31.43 38.22 31.15 38.38 27.23 36.11 27.51 35.95 31.43 38.22"/><polygon class="cls-9" points="30.54 38.74 30.26 38.9 26.33 36.64 26.62 36.47 30.54 38.74"/><polygon class="cls-9" points="29.65 39.25 29.36 39.42 25.44 37.15 25.72 36.99 29.65 39.25"/><polygon class="cls-9" points="28.75 39.77 28.47 39.94 24.55 37.67 24.83 37.51 28.75 39.77"/><polygon class="cls-9" points="27.86 40.3 27.58 40.46 23.65 38.19 23.93 38.03 27.86 40.3"/><polygon class="cls-9" points="26.96 40.81 26.68 40.98 22.76 38.71 23.04 38.55 26.96 40.81"/><polygon class="cls-9" points="37.7 34.58 37.41 34.74 33.49 32.48 33.78 32.31 37.7 34.58"/><polygon class="cls-9" points="42.49 37.34 42.21 37.51 38.28 35.24 38.57 35.08 42.49 37.34"/><polygon class="cls-9" points="43.38 36.82 43.1 36.99 39.18 34.72 39.46 34.56 43.38 36.82"/><g><polygon class="cls-9" points="39.8 38.9 39.52 39.07 35.6 36.8 35.88 36.64 39.8 38.9"/><polygon class="cls-9" points="38.91 39.42 38.63 39.59 34.7 37.32 34.99 37.16 38.91 39.42"/><polygon class="cls-9" points="38.02 39.94 37.73 40.11 33.81 37.84 34.09 37.68 38.02 39.94"/><polygon class="cls-9" points="37.12 40.46 36.84 40.63 32.92 38.36 33.2 38.2 37.12 40.46"/><polygon class="cls-9" points="36.23 40.98 35.95 41.14 32.02 38.88 32.3 38.72 36.23 40.98"/><polygon class="cls-9" points="35.33 41.5 35.05 41.67 31.13 39.4 31.41 39.24 35.33 41.5"/><polygon class="cls-9" points="34.44 42.02 34.15 42.19 30.23 39.92 30.52 39.76 34.44 42.02"/><polygon class="cls-9" points="33.54 42.54 33.26 42.71 29.34 40.44 29.62 40.28 33.54 42.54"/><polygon class="cls-9" points="32.65 43.06 32.37 43.22 28.44 40.96 28.72 40.8 32.65 43.06"/><polygon class="cls-9" points="31.75 43.58 31.47 43.74 27.55 41.48 27.83 41.32 31.75 43.58"/></g><polygon class="cls-9" points="40.7 38.38 40.42 38.55 36.5 36.28 36.78 36.12 40.7 38.38"/><polygon class="cls-9" points="41.59 37.86 41.31 38.03 37.39 35.76 37.67 35.6 41.59 37.86"/></g><g><circle class="cls-23" cx="38.91" cy="25.85" r="1.2"/><path class="cls-21" d="M36.45,24.22v.69c0,.36,.24,.73,.72,1,.96,.56,2.52,.56,3.48,0,.48-.28,.73-.65,.72-1.01v-.69c0,.37-.24,.73-.73,1.01-.97,.56-2.52,.56-3.48,0-.48-.28-.71-.64-.72-1Z"/><path class="cls-17" d="M37.17,23.23c-.97,.56-.97,1.46-.01,2.02s2.52,.56,3.48,0c.96-.56,.97-1.46,0-2.02s-2.52-.56-3.48,0Z"/><path class="cls-21" d="M36.45,23.36v.69c0,.36,.24,.73,.72,1,.96,.56,2.52,.56,3.48,0,.48-.28,.73-.65,.72-1.01v-.69c0,.37-.24,.73-.73,1.01-.97,.56-2.52,.56-3.48,0-.48-.28-.71-.64-.72-1Z"/><path class="cls-17" d="M37.17,22.37c-.97,.56-.97,1.46-.01,2.02s2.52,.56,3.48,0c.96-.56,.97-1.46,0-2.02s-2.52-.56-3.48,0Z"/><g><path class="cls-21" d="M36.45,22.5v.69c0,.36,.24,.73,.72,1,.96,.56,2.52,.56,3.48,0,.48-.28,.73-.65,.72-1.01v-.69c0,.37-.24,.73-.73,1.01-.97,.56-2.52,.56-3.48,0-.48-.28-.71-.64-.72-1Z"/><path class="cls-17" d="M37.17,21.51c-.97,.56-.97,1.46-.01,2.02s2.52,.56,3.48,0c.96-.56,.97-1.46,0-2.02s-2.52-.56-3.48,0Z"/></g><g class="cls-32"><path class="cls-10" d="M34.39,15.7c0,.99,.32,1.91,.87,2.66,.85,1.16,1.33,2.54,1.49,3.97,0,.32,.21,.64,.63,.89,.84,.49,2.21,.49,3.07,0,.45-.26,.63-.61,.64-.95,.05-1.47,.77-2.84,1.59-4.08,.6-.91,.88-2.04,.69-3.25-.32-1.97-1.97-3.53-3.96-3.74-2.72-.29-5.01,1.84-5.01,4.49Z"/></g></g><g><path class="cls-22" d="M10.85,16.63l-2.12,3.92-1.42-.54-2.01,3.11v.6c0,.31,.22,.44,.49,.29l7.01-4.05c.26-.15,.48-.54,.48-.85v-.79l-2.43-1.68Z"/><path class="cls-9" d="M5.77,17.64c-.48,.27-.86,.94-.86,1.49v4.8c.02,.55,.4,.77,.88,.49l7.01-4.05c.48-.27,.86-.94,.86-1.49v-4.8c-.02-.55-.4-.77-.88-.49l-7.01,4.05Zm-.47,5.47v-4.2c-.01-.31,.2-.69,.47-.85l7.01-4.05c.26-.15,.49-.02,.49,.29v4.8c.01,.31-.21,.7-.47,.85l-7.01,4.05c-.27,.16-.49,.02-.49-.29v-.6"/><path class="cls-29" d="M8.56,17.16c-.39,.22-.69,.76-.69,1.19,0,.43,.31,.61,.69,.38,.38-.22,.68-.74,.68-1.18,0-.43-.31-.62-.68-.4Z"/></g><g><path class="cls-6" d="M25.68,15.38c-.17,.1-.3,.33-.3,.52v1.72c0,.19,.14,.27,.31,.17l1.65-.95c.17-.1,.3-.33,.3-.52v-1.72c0-.19-.14-.27-.31-.17l-1.65,.95Z"/><polygon class="cls-9" points="16.9 20.6 24.78 16.04 24.78 16.47 16.9 21.02 16.9 20.6"/><polygon class="cls-9" points="16.9 24.41 24.79 19.85 24.79 20.27 16.9 24.83 16.9 24.41"/><polygon class="cls-9" points="20.81 23.01 20.81 23.43 24.8 21.13 24.8 20.7 20.81 23.01"/><polygon class="cls-9" points="16.9 23.55 24.79 19 24.79 19.42 16.9 23.97 16.9 23.55"/><polygon class="cls-9" points="20.8 20.05 20.8 20.48 24.79 18.17 24.79 17.75 20.8 20.05"/><polygon class="cls-9" points="16.9 21.45 24.79 16.9 24.79 17.32 16.9 21.87 16.9 21.45"/><path class="cls-20" d="M25.69,18.34c-.17,.1-.3,.33-.3,.52v1.72c0,.19,.14,.27,.31,.17l1.65-.95c.17-.1,.3-.33,.3-.52v-1.72c0-.19-.14-.27-.31-.17l-1.65,.95Z"/></g><g><path class="cls-13" d="M32.16,35.1v1.28c0-.55,.36-1.1,1.09-1.52,1.44-.83,3.77-.83,5.2,0,.71,.41,1.06,.95,1.07,1.5v-1.28c0-.54-.36-1.08-1.07-1.5-1.43-.83-3.76-.83-5.2,0-.72,.42-1.08,.97-1.08,1.52Z"/><path class="cls-31" d="M33.33,34.24c-1.39,.8-1.4,2.1-.02,2.9,1.38,.8,3.63,.8,5.01,0s1.4-2.1,.02-2.9c-1.38-.8-3.63-.8-5.01,0Z"/><path class="cls-13" d="M31.63,35.1v1.28c0,.62,.41,1.24,1.22,1.71,1.63,.95,4.3,.95,5.94,0,.83-.48,1.24-1.11,1.24-1.73v-1.28c0,.63-.41,1.25-1.24,1.73-1.64,.95-4.31,.95-5.94,0-.81-.47-1.22-1.09-1.22-1.71Z"/><path class="cls-17" d="M32.87,33.37c-1.64,.95-1.65,2.49-.02,3.44,1.63,.95,4.3,.95,5.94,0,1.64-.95,1.65-2.49,.02-3.44-1.63-.95-4.3-.95-5.94,0Zm5.55,3.23c-1.44,.83-3.77,.83-5.2,0-1.43-.83-1.42-2.18,.02-3.01,1.44-.83,3.77-.83,5.2,0,1.43,.83,1.42,2.18-.02,3.01m-7.8,1.62s.12-.02,.19,.02c.15,.09,.27,.3,.27,.47,0,.09-.03,.15-.08,.18l1.99-1.16s.08-.09,.08-.18c0-.17-.12-.38-.27-.47-.08-.04-.14-.05-.19-.02l-1.99,1.16Z"/><path class="cls-8" d="M30.82,38.23c.15,.09,.27,.3,.27,.47,0,.17-.12,.24-.27,.16s-.27-.3-.27-.47c0-.17,.12-.24,.27-.16Z"/><g><path class="cls-26" d="M26.59,40.03c.11-.06,.25-.05,.41,.04,.32,.18,.58,.63,.58,1,0,.18-.07,.31-.17,.37l4.21-2.44c.1-.06,.17-.19,.17-.37,0-.37-.26-.81-.58-1-.16-.09-.31-.1-.41-.04l-4.21,2.44Z"/><path class="cls-5" d="M27,40.07c.32,.18,.58,.63,.58,1s-.26,.51-.58,.33c-.32-.18-.58-.63-.58-1,0-.37,.26-.52,.58-.33Z"/></g></g><g><polygon class="cls-3" points="29.05 29.95 28.42 29.58 29.62 31.1 30.24 31.47 29.05 29.95"/><path class="cls-6" d="M26.5,26.39v3.58c.01,.2,.08,.33,.2,.4l.62,.37c-.11-.07-.18-.2-.18-.4v-3.59c-.01-.4,.27-.87,.61-1.07l4.94-2.85c.17-.09,.33-.11,.44-.04l-.62-.37c-.11-.07-.27-.05-.44,.05l-4.94,2.85c-.34,.2-.62,.68-.62,1.07Z"/><path class="cls-7" d="M27.75,25.67c-.34,.2-.62,.68-.62,1.07v3.59c.01,.4,.29,.55,.64,.35l1.28-.74,1.19,1.52,1.18-2.89,1.28-.74c.34-.2,.62-.68,.62-1.07v-3.59c-.01-.4-.29-.55-.63-.36l-4.94,2.85Z"/><path class="cls-1" d="M31.89,25.22c-.34,.2-.62,.68-.62,1.07,0,.4,.28,.55,.62,.35,.34-.2,.61-.67,.61-1.06,0-.39-.28-.55-.61-.36Zm-1.83,1.06c-.34,.2-.62,.68-.62,1.07,0,.4,.28,.55,.62,.35,.34-.2,.62-.67,.62-1.07,0-.39-.28-.55-.62-.35Zm-1.82,1.05c-.34,.2-.62,.68-.62,1.07,0,.4,.28,.55,.62,.35s.62-.67,.62-1.07c0-.39-.28-.55-.62-.35Z"/></g></g></svg>