<svg xmlns="http://www.w3.org/2000/svg" enable-background="new 0 0 51 51" viewBox="0 0 51 51"><path fill="#FC7E7E" d="M44.88365 5.52072c-.54747.4664-1.13567.85159-1.72374 1.19669-1.72374.99369-3.48808 1.52099-5.04966 1.52099-.28395 0-.5476-.0203-.81124-.0609-.20275-.0203-.4258-.0609-.62867-.1218-.10138-.0203-.20275-.0406-.28395-.0812-.02018 0-.02018 0-.04047-.0203-.12167-.0203-.22305-.0609-.32455-.12155-.0203 0-.06078 0-.08108-.0203C35.67665 7.6908 35.4536 7.5487 35.23055 7.4066c-.77065-.56765-1.31824-1.41949-1.54129-2.57533l-.0609-.0203c1.21686-.20275 2.53498-.68945 3.81262-1.41974.58807-.3446 1.17627-.7298 1.72386-1.17614L44.88365 5.52072zM17.80934 47.52812l-5.47162-3.18177c-.83082-.48634-1.6009-1.07387-2.28997-1.80338C7.45387 39.92868 6.1163 35.5313 6.09614 30.24187l-.02028-8.95704 5.71479 3.32327.02028 8.95754c.02016 5.26865 1.35773 9.68656 3.95161 12.3006.30403.30428.60805.58777.93224.85147.06073.04032.1013.10118.16216.14175.26346.2026.52691.38517.81053.56724C17.72833 47.46727 17.76877 47.48755 17.80934 47.52812z"/><path fill="#DD4A4A" d="M17.80981,47.52907l-5.47126-3.18222c-0.83132-0.4872-1.60079-1.07492-2.29097-1.80378
				c-2.59451-2.61384-3.93042-7.01212-3.95169-12.30165l5.71486,3.32336c0.02126,5.2702,1.35718,9.68781,3.95169,12.30165
				C17.05378,47.15777,17.66366,47.38292,17.80981,47.52907z"/><polygon fill="#F25A5A" points="22.94 11.032 17.226 7.712 27.991 1.497 33.705 4.817"/><polygon fill="#FC7E7E" points="22.94 11.032 17.226 7.712 22.639 4.587 28.352 7.907"/><path fill="#F25A5A" d="M13.2737,15.69207c-1.64947,1.98394-3.60826,3.70488-5.47535,4.7821
					c-0.58764,0.34459-1.15512,0.62809-1.72249,0.81066l5.71479,3.32327c0.56737-0.20234,1.13484-0.46605,1.72249-0.8104
					c1.86737-1.07728,3.82552-2.79946,5.47411-4.78485L13.2737,15.69207z"/><path fill="#F25A5A" d="M22.93649,11.03053l-5.71-3.31871c-0.29353,2.57377-1.87836,5.48517-3.9528,7.98025l5.71355,3.32078
					C21.06,16.51667,22.643,13.60412,22.93649,11.03053z"/><path fill="#CC4848" d="M44.92414,14.45523c0,5.28943-1.31728,11.22698-3.87059,16.82019
				c-2.95876,6.50504-7.41712,12.58459-12.605,18.0969c-4.8767,0.46113-9.38383-0.20121-12.68601-3.50608
				c-2.59388-2.61404-3.93145-7.03195-3.95161-12.3006l-0.02028-8.95754c0.56736-0.20235,1.13484-0.46606,1.72249-0.81041
				c4.21519-2.43172,8.89644-8.14664,9.42335-12.76715l9.30164-5.37007l1.46642-0.84368
				c0.22289,1.15501,0.76283,1.99868,1.53291,2.56592c0.22289,0.14199,0.44577,0.28399,0.70923,0.40545
				c0.14187,0.06085,0.28374,0.12146,0.44577,0.16203c0.08114,0.04057,0.18244,0.06086,0.28374,0.08114
				c0.20273,0.06085,0.42561,0.10142,0.62822,0.12171c0.26346,0.04057,0.52692,0.06085,0.81066,0.06085
				c1.56046,0,3.32352-0.52691,5.04601-1.51989c0.58765-0.34484,1.17542-0.72976,1.72249-1.19582L44.92414,14.45523z"/><g><path fill="#C44141" d="M33.51221,8.17103c-0.24937-0.26001-0.4747-0.54268-0.67017-0.85002L32.68597,7.4111
					C32.93434,7.69058,33.20824,7.94657,33.51221,8.17103z"/><path fill="#FC7E7E" d="M43.15797,8.6679C42.93018,8.78036,42.7021,8.88448,42.474,8.98257l0.02207,4.87207
					c0,5.12705-1.31886,10.844-3.7135,16.0898C36.18761,35.6497,32.2078,41.413,26.94746,47.0853
					c-0.59151,0.04182-1.16876,0.06287-1.72318,0.06287c-2.81007,0-6.08898-0.62701-8.04028-2.32448
					c2.34148,2.26024,5.50273,2.93295,8.72841,2.93295c0.55441,0,1.13167-0.02105,1.72318-0.06287
					c5.26034-5.6723,9.24014-11.4356,11.8351-17.14085c2.39464-5.2458,3.7135-10.96276,3.7135-16.0898L43.15797,8.6679z"/><path fill="#C44141" d="M34.25285,8.81857l0.04975,0.03172c0.25545,0.16275,0.54497,0.34711,0.91549,0.51797l0.04323,0.01926
					c0.14396,0.06164,0.332,0.14226,0.56225,0.21051c0.1685,0.064,0.32133,0.10016,0.43782,0.12451
					c0.25988,0.0724,0.54157,0.12612,0.82232,0.15689c0.33965,0.05013,0.67751,0.07448,1.03141,0.07448
					c1.39264,0,2.87557-0.33343,4.35888-0.97134l-0.00418-0.92314c-1.70911,0.84375-3.43606,1.28601-5.04284,1.28601
					c-0.3539,0-0.69176-0.02435-1.03141-0.07448c-0.28074-0.03077-0.56244-0.08449-0.82232-0.15689
					c-0.11649-0.02435-0.26933-0.06051-0.43783-0.12451c-0.23024-0.06825-0.41829-0.14887-0.56224-0.21051l-0.04324-0.01926
					c-0.37052-0.17086-0.66005-0.35523-0.91549-0.51797L33.5647,8.2101l-0.04739-0.03493
					c-0.00177-0.00131-0.00334-0.00283-0.00511-0.00414c0.21296,0.22204,0.44283,0.42815,0.69325,0.61261L34.25285,8.81857z"/><path fill="#F25A5A" d="M26.94746,47.0853c5.26034-5.6723,9.24014-11.4356,11.8351-17.14085
					c2.39464-5.2458,3.7135-10.96275,3.7135-16.0898L42.474,8.98257c-1.48331,0.63791-2.96624,0.97134-4.35888,0.97134
					c-0.3539,0-0.69176-0.02436-1.03141-0.07448c-0.28075-0.03077-0.56244-0.08449-0.82232-0.15689
					c-0.11649-0.02435-0.26932-0.06051-0.43782-0.12451c-0.23024-0.06825-0.41829-0.14887-0.56225-0.21051l-0.04323-0.01926
					c-0.37052-0.17086-0.66005-0.35523-0.91549-0.51797l-0.04975-0.03172l-0.04739-0.03493
					c-0.25042-0.18446-0.48029-0.39057-0.69325-0.61261c-0.30397-0.22446-0.57787-0.48045-0.82623-0.75993l-8.16311,4.71269
					c-1.04284,5.15244-5.91897,10.74582-10.13005,13.17511c-0.28745,0.16841-0.57301,0.32162-0.85951,0.46105l0.01765,7.79904
					c0.01879,4.92513,1.24287,8.86066,3.44229,11.07735C19.26225,46.90617,23.71468,47.31385,26.94746,47.0853z"/></g><g><g enable-background="new"><path fill="#FFF" d="M37.54792,16.52317l1.30391,0.75775c-0.15132-0.08794-0.36112-0.07522-0.59293,0.05862
							l-1.30391-0.75775C37.1868,16.44795,37.3966,16.43523,37.54792,16.52317z"/><path fill="#E9E8E6" d="M18.4817,35.66262l-1.30392-0.75775c-0.1492-0.08671-0.24162-0.27104-0.24236-0.53294l1.30392,0.75775
							C18.24007,35.39159,18.3325,35.57591,18.4817,35.66262z"/><polygon fill="#FFF" points="18.239 35.13 16.935 34.372 16.92 29.105 18.224 29.863"/><polygon fill="#FFF" points="19.054 28.427 17.75 27.67 36.955 16.582 38.259 17.34"/><polygon fill="#E9E8E6" points="19.054 28.427 17.75 27.67 27.306 22.153 28.61 22.91"/><path fill="#FFF" d="M18.2244,29.86322l-1.30392-0.75775c-0.0015-0.52874,0.36949-1.17008,0.82963-1.43574l1.30392,0.75775
							C18.59389,28.69314,18.2229,29.33447,18.2244,29.86322z"/><path fill="#D6D4D2" d="M38.2589,17.33954c0.46014-0.26567,0.83355-0.0541,0.83504,0.47464l0.01493,5.26646
							c0.0015,0.52751-0.36948,1.17008-0.82963,1.43574L19.07438,35.60432c-0.46014,0.26567-0.83355,0.05287-0.83504-0.47464
							l-0.01493-5.26646c-0.0015-0.52875,0.36949-1.17008,0.82963-1.43574L38.2589,17.33954z"/></g><polygon fill="#434240" points="20.929 29.09 20.933 30.242 21.641 29.015 21.998 29.218 21.289 30.435 22.292 29.856 22.294 30.442 21.3 31.016 22.004 31.417 21.65 32.041 20.937 31.635 20.94 32.777 20.439 33.066 20.435 31.935 19.736 33.147 19.37 32.938 20.07 31.727 19.076 32.3 19.074 31.714 20.077 31.135 19.364 30.739 19.727 30.12 20.431 30.511 20.428 29.379"/><polygon fill="#434240" points="26.254 26.016 26.257 27.168 26.966 25.94 27.314 26.149 26.614 27.361 27.617 26.782 27.618 27.368 26.625 27.942 27.32 28.348 26.975 28.967 26.261 28.561 26.265 29.702 25.754 29.997 25.751 28.866 25.061 30.072 24.695 29.864 25.385 28.657 24.392 29.231 24.39 28.645 25.393 28.066 24.689 27.664 25.052 27.045 25.747 27.442 25.744 26.31"/><polygon fill="#434240" points="36.895 19.872 36.898 21.024 37.607 19.797 37.963 20 37.255 21.217 38.257 20.638 38.259 21.225 37.265 21.798 37.97 22.2 37.615 22.824 36.902 22.417 36.905 23.559 36.404 23.848 36.401 22.717 35.701 23.929 35.344 23.715 36.044 22.504 35.051 23.077 35.049 22.491 36.051 21.912 35.338 21.516 35.693 20.902 36.397 21.293 36.393 20.162"/><polygon fill="#434240" points="31.57 22.947 31.573 24.099 32.282 22.871 32.638 23.075 31.93 24.292 32.932 23.713 32.934 24.299 31.941 24.873 32.645 25.274 32.29 25.898 31.577 25.492 31.58 26.633 31.079 26.923 31.076 25.792 30.376 27.003 30.011 26.795 30.71 25.583 29.726 26.151 29.724 25.565 30.718 24.991 30.004 24.595 30.368 23.976 31.072 24.367 31.069 23.236"/></g><path fill="#FFF" d="M15.36759,24.61956c-1.97573,0-3.42999,1.57093-3.42999,3.41998c0-1.89001-1.52997-3.41998-3.41998-3.41998
		c1.81161,0,3.41998-1.44055,3.41998-3.44C11.9376,23.12517,13.49736,24.61956,15.36759,24.61956z"/></svg>