<svg xmlns="http://www.w3.org/2000/svg" enable-background="new 0 0 51 51" viewBox="0 0 51 51"><g enable-background="new"><path fill="#FC7E7E" d="M28.24031,15.58854l6.71229,3.90076c-0.18149-0.10547-0.43282-0.09057-0.71012,0.06952
						l-6.71229-3.90076C27.80748,15.49797,28.05882,15.48307,28.24031,15.58854z"/><path fill="#CC4848" d="M15.47635,49.43146L8.76406,45.5307c-0.17916-0.10412-0.29029-0.32546-0.29118-0.63997l6.71229,3.90076
						C15.18606,49.106,15.29719,49.32734,15.47635,49.43146z"/><polygon fill="#CC4848" points="15.185 48.791 8.473 44.891 8.428 27.835 15.14 31.736"/><polygon fill="#F25A5A" points="15.174 44.771 8.461 40.87 8.428 27.835 15.14 31.736"/><polygon fill="#FC7E7E" points="16.135 30.013 9.423 26.112 27.53 15.658 34.242 19.559"/><polygon fill="#F25A5A" points="16.135 30.013 9.423 26.112 19.831 20.103 26.543 24.004"/><path fill="#FC7E7E" d="M15.14038,31.73603l-6.71229-3.90076c-0.0018-0.63356,0.44375-1.4048,0.99471-1.7229l6.71229,3.90076
						C15.58413,30.33122,15.13858,31.10247,15.14038,31.73603z"/><path fill="#DD4A4A" d="M34.24248,19.55882c0.55095-0.31809,0.99941-0.063,1.00121,0.57056l0.0448,17.05547
						c0.00179,0.63308-0.44376,1.4048-0.99471,1.72289L16.18638,49.36205c-0.55095,0.31809-0.99941,0.06253-1.00121-0.57056
						l-0.0448-17.05547c-0.0018-0.63356,0.44375-1.4048,0.99471-1.7229L34.24248,19.55882z"/><path fill="#CC4848" d="M15.84822,31.73417c-0.00107-0.37884,0.31034-0.91723,0.64079-1.10802L33.8624,20.59562
						c0.29984-0.17311,0.67476,0.04269,0.67567,0.38891l0.04258,16.20216c0.00107,0.37884-0.31034,0.91723-0.64076,1.10802
						L16.56643,48.32527c-0.29984,0.17311-0.67476-0.04269-0.67567-0.38892L15.84822,31.73417z"/></g><path fill="#21201F" d="M29.11573,19.93218c-0.00039,0.31081-0.22398,0.61508-0.6316,0.85866
					c-0.01076,0.00653-0.0219,0.01306-0.03304,0.01959c-0.47332,0.27354-1.10761,0.42414-1.78531,0.42414
					c-0.67809,0-1.31007-0.1506-1.77993-0.42376c-0.00922-0.00538-0.01806-0.01037-0.0269-0.01613
					c-0.40455-0.24204-0.62622-0.54439-0.62584-0.85405c0.00077-0.29467,0.2017-0.58319,0.56937-0.82024
					c0.03035-0.01998,0.06224-0.03918,0.09489-0.05801c0.4737-0.27316,1.108-0.42376,1.78608-0.42376
					c0.67771,0,1.31008,0.15022,1.78032,0.42376c0.02228,0.01306,0.04418,0.02613,0.06531,0.03957
					C28.90827,19.33938,29.11612,19.63251,29.11573,19.93218z"/><path fill="#FC7E7E" d="M18.52001,26.08865c0,1.04902-1.61463,1.53281-2.68081,1.53281
						c-1.05501,0-2.66278-0.47631-2.66278-1.52509c0-1.04626,1.61506-1.53216,2.68015-1.53216
						C16.91246,24.56421,18.52001,25.03997,18.52001,26.08865z"/><path fill="#383736" d="M18.47111,26.37887c-0.29746,0.8809-1.69843,1.24259-2.6319,1.24259
						c-0.92434,0-2.31672-0.35546-2.61388-1.23358c0.29439-0.87853,1.70479-1.24066,2.63126-1.24066
						C16.78451,25.14721,18.17297,25.50375,18.47111,26.37887z"/><path fill="#B2B0AF" d="M28.46019,18.09815v2.3486c0,0.12634-0.00744,0.25272-0.03715,0.37906
					c-0.46824,0.26011-1.09253,0.40877-1.76146,0.40877c-0.67632,0-1.3081-0.14866-1.77634-0.42365
					c-0.04459-0.02971-0.09663-0.05833-0.13378-0.08804c-0.01488-0.08918-0.01487-0.17207-0.01487-0.26126l-0.01484-2.25088
					c0.04459,0.23784,0.23041,0.48198,0.54999,0.66035c0.72836,0.42365,1.91012,0.42365,2.63103,0.00744
					c0.37162-0.21552,0.55742-0.49795,0.54999-0.78039H28.46019z"/><path fill="#FC7E7E" d="M23.14078 36.60676c.00894.00442.01797.00865.02701.01289l-.00004-.01283C23.15867 36.60703 23.14981 36.60669 23.14078 36.60676zM27.10556 32.36712c-.00242-.85394-.43458-1.34504-1.05996-1.33967.37073.18337.60387.6142.60564 1.24049.00245.86193-.4332 1.85968-1.06495 2.5763l.00402 1.42096c.00148.52042-.36504 1.1558-.81794 1.41729-.07379.04261-.14525.07248-.21332.09077.02605.02658.05478.04928.08617.0674.14956.08468.35478.07188.58147-.05901.4529-.26149.81942-.89687.81794-1.41729l-.00403-1.42096C26.67235 34.2268 27.108 33.22905 27.10556 32.36712z"/><path fill="#21201F" d="M25.59031,36.2652l-0.00402-1.42096c0.63175-0.71661,1.06739-1.71437,1.06495-2.5763
				c-0.00177-0.6263-0.23491-1.05713-0.60564-1.24049c-0.25277,0.00217-0.53695,0.08504-0.83732,0.25846
				c-1.04448,0.60303-1.88836,2.06579-1.88497,3.26488c0.00178,0.62648,0.23454,1.05756,0.60501,1.24097
				c0.0056-0.00005,0.0111,0.00017,0.01672,0.00004l0.00002,0.00796c0.13518,0.06351,0.28794,0.09497,0.4543,0.09122
				l0.00403,1.42096c0.00058,0.20544,0.05841,0.3621,0.15566,0.46132c0.06807-0.01829,0.13952-0.04817,0.21332-0.09077
				C25.22527,37.421,25.59179,36.78562,25.59031,36.2652z"/><polygon fill="#78797A" points="25.862 34.013 26.694 33.529 22.82 31.293 21.988 31.776" enable-background="new"/><g enable-background="new"><path fill="#D6D4D2" d="M35.89359,37.0149l-12.65775-7.35221c-0.18348-0.10663-0.43756-0.09166-0.71808,0.07029
									l12.65775,7.35221C35.45603,36.92324,35.71011,36.90828,35.89359,37.0149z"/><path fill="#E9E8E6" d="M22.51776,29.73298l12.65775,7.35222c-0.23587,0.13618-0.452,0.35484-0.62334,0.60977
									l-12.65775-7.35221C22.06576,30.08781,22.28189,29.86916,22.51776,29.73298z"/><path fill="#D6D4D2" d="M21.89441,30.34275l12.65775,7.35221c-0.18278,0.27195-0.31448,0.58522-0.3625,0.8857
									l-12.65775-7.35221C21.57994,30.92797,21.71163,30.61469,21.89441,30.34275z"/><path fill="#B2B0AF" d="M34.18967,38.58067c-0.01338,0.08373-0.02035,0.16644-0.02013,0.24693
									c0.0009,0.31845,0.1133,0.54256,0.29461,0.64791l-12.65776-7.35221c-0.1813-0.10536-0.29369-0.32947-0.2946-0.64791
									c-0.00023-0.08048,0.00675-0.16319,0.02013-0.24693L34.18967,38.58067z"/><g><path fill="#A2A4A5" d="M35.17551,37.08519c-0.55758,0.32192-1.00778,1.10231-1.00597,1.7424
									c0.00182,0.6407,0.45497,0.89954,1.01254,0.57763c0.55758-0.32192,1.00778-1.10231,1.00597-1.74302
									C36.18624,37.02212,35.73309,36.76328,35.17551,37.08519z"/></g></g><g enable-background="new"><path fill="#E9E8E6" d="M38.26255,43.93965c-0.3413-0.19705-0.67031-0.4467-0.9796-0.73611
								c-0.3059,0.17777-0.61178,0.35553-0.91768,0.5333c0.3093,0.2894,0.63831,0.53906,0.9796,0.73611
								C37.62017,44.31296,37.98724,44.09964,38.26255,43.93965z"/><path fill="#E9E8E6" d="M40.60783 44.16921c-.59927.34835-1.42919.29935-2.34528-.22956l-.91768.5333c.9161.52891 1.74601.5779 2.34528.22956C39.96545 44.54252 40.33253 44.3292 40.60783 44.16921zM34.97695 38.24878c.00294-1.03933.36987-1.77065.96162-2.11459l-.91768.5333c-.59176.34394-.95868 1.07526-.96162 2.11459-.00482 1.6995.96542 3.70042 2.306 4.95477.3059-.17776.61178-.35553.91768-.5333C35.94236 41.9492 34.97213 39.94828 34.97695 38.24878z"/><path fill="#B2B0AF" d="M39.29346,43.84051l0.91768-0.5333c-0.10042,0.05761-0.23928,0.049-0.39225-0.03931
								c-0.30592-0.17662-0.55318-0.60527-0.55219-0.95642l-0.91768,0.5333c-0.001,0.35115,0.24626,0.7798,0.55219,0.95642
								C39.05417,43.88951,39.19304,43.89811,39.29346,43.84051z"/><polygon fill="#B2B0AF" points="38.349 42.845 39.267 42.311 39.276 39.144 38.358 39.678"/><path fill="#B2B0AF" d="M38.35801,39.67756l0.91768-0.5333c0.0005-0.17538,0.06313-0.29844,0.16355-0.35565l-0.91768,0.5333
								C38.42114,39.37912,38.35851,39.50218,38.35801,39.67756z"/><path fill="#D6D4D2" d="M35.93865,36.13415l-0.91768,0.5333c0.59935-0.3483,1.42932-0.29924,2.34538,0.22964l0.91768-0.5333
								C37.36797,35.83491,36.538,35.78585,35.93865,36.13415z"/><path fill="#E9E8E6" d="M36.26434,35.2933l-1.52392,0.89142c0.67135-0.39015,1.60104-0.33517,2.62721,0.25729
								l1.52392-0.89142C37.86539,34.95814,36.93569,34.90316,36.26434,35.2933z"/><path fill="#D6D4D2" d="M39.68999,44.70259l0.91768-0.5333c0.59177-0.34389,0.95866-1.0752,0.96161-2.11443
								c0.00593-2.09199-1.46469-4.63997-3.28526-5.69107l-0.91768,0.5333c1.82058,1.05111,3.29119,3.59908,3.28526,5.69107
								C40.64866,43.62739,40.28176,44.3587,39.68999,44.70259z"/><path fill="#D6D4D2" d="M39.97083,45.1852l1.52392-0.89142c0.66283-0.38519,1.07385-1.20421,1.07715-2.36819
								c0.00664-2.34341-1.64129-5.19775-3.68035-6.375l-1.52392,0.89142c2.03905,1.17725,3.68699,4.03159,3.68034,6.375
								C41.04468,43.981,40.63366,44.80001,39.97083,45.1852z"/><path fill="#C4C2C0" d="M39.97076,45.18501l1.52393-0.89144c0.66301-0.38489,1.07393-1.20414,1.07705-2.36818
								l-1.52392,0.89145C41.04469,43.98087,40.63376,44.80013,39.97076,45.18501z"/><path fill="#B2B0AF" d="M41.04798,42.81701c-0.00664,2.34302-1.66535,3.28827-3.7044,2.11102
								c-2.03939-1.17744-3.68699-4.03159-3.68035-6.37461c0.00664-2.34341,1.66502-3.28885,3.70441-2.11141
								C39.40668,37.61926,41.05462,40.4736,41.04798,42.81701z M37.34486,44.47295
								c1.82058,1.05111,3.30081,0.20683,3.30674-1.88478c0.00593-2.092-1.46468-4.63996-3.28527-5.69107
								c-1.82058-1.05111-3.30114-0.20702-3.30708,1.88498C34.05334,40.87368,35.52428,43.42184,37.34486,44.47295
								L37.34486,44.47295z"/></g><path fill="none" d="M38.52156 39.32191c.10042-.05799.23928-.04901.39224.03931.30593.17662.55285.60469.55185.95584l-.0044 1.55434-1.10765-.6395.00441-1.55434C38.35851 39.50218 38.42113 39.37912 38.52156 39.32191zM39.45667 43.48427c-.0005.17539-.06279.29902-.16322.35624-.10041.05761-.23928.049-.39224-.03931-.30592-.17663-.55318-.60527-.55218-.95642l.00457-1.61287 1.10765.6395L39.45667 43.48427z"/><path fill="#C4C2C0" d="M38.3536,41.2319l-0.00457,1.61287c-0.001,0.35115,0.24626,0.7798,0.55218,0.95642
						c0.15296,0.08831,0.29183,0.09692,0.39224,0.03931c0.10043-0.05722,0.16272-0.18085,0.16322-0.35624l0.00458-1.61287
						l1.1898,0.68693c0.00004,0.0099,0.00059,0.01995,0.00056,0.02983c-0.00593,2.09161-1.48616,2.9359-3.30674,1.88479
						c-1.82058-1.05111-3.29152-3.59927-3.2856-5.69088c0.00003-0.00988,0.00064-0.01926,0.00073-0.02909L38.3536,41.2319z"/><path fill="#D6D4D2" d="M39.46564,40.31706c0.001-0.35115-0.24592-0.77922-0.55185-0.95584
						c-0.15297-0.08832-0.29182-0.0973-0.39224-0.03931c-0.10042,0.05721-0.16305,0.18027-0.16355,0.35565L38.3536,41.2319
						L34.06,38.75299c0.01974-2.07036,1.49437-2.90205,3.30635-1.8559c1.81197,1.04614,3.27674,3.57488,3.28469,5.66124
						l-1.1898-0.68693L39.46564,40.31706z"/><path fill="#CC4848" d="M23.40997,33.84152c0.51353-1.59318,1.34781-2.55899,2.54539-2.81412c0,0-0.0774-1.12802-0.12305-1.12802
			s-3.9379-0.71566-3.9379-0.71566l-1.10785,2.8722c0,0,0.03817,0.96376,0.0668,1.00193
			C20.88198,33.09602,23.40997,33.84152,23.40997,33.84152z"/><g><path fill="#F25A5A" d="M29.37709,19.70176c0,0.09845-0.01673,0.19562-0.04891,0.29022
					c-0.09974,0.29536-0.35071,0.56756-0.72972,0.78699c-0.00644,0.00386-0.01287,0.00708-0.01931,0.01094l-0.00643,0.00386
					c-0.50643,0.28443-1.17181,0.4408-1.87644,0.4408c-0.71814,0-1.39124-0.16152-1.89574-0.45495
					c-0.04955-0.02831-0.09717-0.05856-0.14157-0.08816c-0.29344-0.19884-0.491-0.43758-0.57658-0.69047
					c-0.03281-0.09588-0.0489-0.19305-0.0489-0.2915c0-0.35328,0.20656-0.68532,0.59587-0.96009
					c0.05405-0.03861,0.1139-0.07658,0.18211-0.11647c0.50901-0.29408,1.18404-0.4556,1.90218-0.4556
					c0.71171,0,1.37965,0.15894,1.88287,0.44787c0.00643,0.00322,0.01158,0.00579,0.01609,0.00837
					C29.10489,18.91991,29.37709,19.30022,29.37709,19.70176z"/><path fill="#383736" d="M29.33125,19.98954c-0.10488,0.32792-0.45494,0.64509-0.73715,0.78634
					c0,0.00978-0.00984,0.00978-0.01962,0.00978v0.00984c-0.51111,0.28507-1.16961,0.4423-1.8773,0.4423
					c-1.00896,0-1.8314-0.3672-1.9854-0.52089c-0.21536-0.10801-0.52154-0.40699-0.62899-0.71753
					c0.27317-0.85414,1.64932-1.23841,2.63406-1.23841c0.70763,0,1.37597,0.15729,1.87724,0.4423
					c0.00984,0.00984,0.00984,0.00984,0.01968,0.00984C28.92656,19.401,29.20819,19.64761,29.33125,19.98954z"/></g><g><g enable-background="new"><path fill="#C4C2C0" d="M40.53061,15.17055l-0.01007,1.46526c-0.00085,0.30061-0.19837,0.60074-0.5931,0.83013
						c-0.79483,0.4619-2.08802,0.46191-2.88806,0.00001c-0.40245-0.23235-0.60337-0.53729-0.60251-0.84179l0.01007-1.46526
						c-0.00086,0.3045,0.20007,0.60944,0.60251,0.84179c0.80003,0.4619,2.09323,0.46189,2.88806-0.00001
						C40.33224,15.77129,40.52976,15.47116,40.53061,15.17055z"/><path fill="#D6D4D2" d="M39.93752,16.00068c-0.61759,0.35891-1.53527,0.43761-2.2895,0.23878v1.46797
						c0.7523,0.19547,1.66459,0.11583,2.27943-0.24148c0.39472-0.22939,0.59225-0.52952,0.5931-0.83013l0.01007-1.46526
						C40.52976,15.47116,40.33224,15.77129,39.93752,16.00068z"/><path fill="#C4C2C0" d="M39.93752,16.00068c-0.1632,0.09484-0.34809,0.16911-0.54473,0.225v1.46255
						c0.19288-0.05559,0.37423-0.12906,0.53466-0.22229c0.39472-0.22939,0.59225-0.52952,0.5931-0.83013l0.01007-1.46526
						C40.52976,15.47116,40.33224,15.77129,39.93752,16.00068z"/><path fill="#E9E8E6" d="M39.92754,14.32813c0.80003,0.4619,0.8048,1.21064,0.00997,1.67255
						c-0.79483,0.4619-2.08802,0.46191-2.88806,0.00001c-0.80003-0.4619-0.80369-1.21064-0.00886-1.67255
						C37.83543,13.86624,39.12751,13.86623,39.92754,14.32813z"/></g></g><g><g enable-background="new"><path fill="#C4C2C0" d="M39.92485,12.6045l-0.00709,2.50053c-0.0006,0.21165-0.13967,0.42295-0.41758,0.58446
						c-0.5596,0.32521-1.47009,0.32521-2.03336,0.00001c-0.28334-0.16359-0.42481-0.37828-0.4242-0.59267l0.00709-2.50053
						c-0.00061,0.21438,0.14085,0.42908,0.4242,0.59267c0.56327,0.3252,1.47375,0.3252,2.03336-0.00001
						C39.78519,13.02746,39.92426,12.81615,39.92485,12.6045z"/><path fill="#CC4848" d="M39.50026,12.01139c0.56327,0.3252,0.56663,0.85236,0.00702,1.17757
						c-0.55961,0.32521-1.47009,0.32521-2.03336,0.00001c-0.56327-0.3252-0.56585-0.85236-0.00624-1.17757
						C38.02729,11.68619,38.93699,11.68619,39.50026,12.01139z"/></g></g><g><path fill="#D6D4D2" d="M33.21356,6.259v0.05897C32.673,6.68163,32.14221,7.1436,31.66062,7.67433
					C31.641,7.694,31.63117,7.71362,31.61149,7.7333c-1.8402,2.02383-2.87978,4.75092-2.87978,6.75225l0.02951,4.82582v1.35635
					c-0.04919,0.03935-0.10816,0.07865-0.16713,0.10816c0,0.00978-0.00984,0.00978-0.01962,0.00978v0.00984
					c-0.51111,0.28507-1.16961,0.4423-1.8773,0.4423c-0.71747,0-1.39565-0.16707-1.89691-0.46192
					c-0.02951-0.00984-0.05897-0.02951-0.08848-0.05897l-0.00978-0.90427v-0.53072l-0.01968-4.77669
					c0-3.57456,1.94372-7.5683,4.44255-10.0252c0.66834-0.66834,1.38581-1.25809,2.15247-1.72985
					C32.36831,3.46765,33.2234,4.99114,33.21356,6.259z"/></g><path fill="#E9E8E6" d="M40.53062,13.40078c-0.03077,0.27349-0.22593,0.54069-0.58546,0.74914
			c-0.7904,0.45956-2.07535,0.45956-2.87065,0.0007c-0.36723-0.21264-0.56518-0.48474-0.59455-0.76243l-0.0007-0.1406
			l-0.0007-0.18047l-0.02379-5.36219c-0.00597-2.17776-0.99523-2.7005-2.86716-1.61999
			c-0.12521,0.07275-0.24972,0.15039-0.37352,0.23293c0.0007-0.01889,0.00139-0.03707,0.00139-0.05526
			c0.0042-1.27025-0.85825-2.8077-1.94803-3.50788c0.09792-0.06085,0.19585-0.12031,0.29448-0.17767
			c4.602-2.65642,8.92824-0.18427,8.94351,5.11318l0.02378,5.3566l0.0007,0.19166L40.53062,13.40078z"/><path fill="#FFF" d="M18.11807,30.99998c-1.52459,0-2.69223,1.18447-2.69223,2.68325c0-1.48075-1.2025-2.68325-2.68325-2.68325
		c1.47755,0,2.68325-1.16837,2.68325-2.70121C15.42584,29.83866,16.65244,30.99998,18.11807,30.99998z"/></svg>