<svg xmlns="http://www.w3.org/2000/svg" enable-background="new 0 0 100 100" viewBox="0 0 100 100"><polygon fill="#00cbba" points="25.88 41.402 32.928 37.306 32.854 63.46 25.806 67.556" class="color0083cb svgShape"/><path fill="#cdcdcd" d="M66.464,79.125c-0.002,0.686,0.479,1.522,1.079,1.868c-2.075,1.206-4.15,2.411-6.225,3.618
					l-0.823,0.478c-0.6-0.346-1.081-1.182-1.079-1.868C61.765,81.855,64.115,80.49,66.464,79.125
					C66.464,79.125,66.464,79.125,66.464,79.125z" class="colorcdcdcd svgShape"/><path fill="#cdcdcd" d="M66.464,79.125c-2.349,1.365-4.699,2.73-7.048,4.096c0.001-0.343,0.122-0.585,0.316-0.698
					l7.048-4.096C66.586,78.539,66.465,78.781,66.464,79.125z" class="colorcdcdcd svgShape"/><polygon fill="#cdcdcd" points="47.489 77.58 54.537 73.484 61.04 77.239 53.992 81.335" class="colorcdcdcd svgShape"/><path fill="#00cbba" d="M59.732,82.522l7.048-4.096c0.196-0.114,0.468-0.098,0.769,0.076l-7.048,4.096
					C60.201,82.424,59.929,82.408,59.732,82.522z" class="color0083cb svgShape"/><polygon fill="#cdcdcd" points="60.495 85.089 67.543 80.993 70.796 82.871 63.748 86.967" class="colorcdcdcd svgShape"/><path fill="#cdcdcd" d="M71.565,82.946l-7.048,4.096c-0.197,0.114-0.469,0.099-0.77-0.075l7.048-4.096
					C71.096,83.045,71.369,83.061,71.565,82.946z" class="colorcdcdcd svgShape"/><path fill="#00cbba" d="M71.565 82.946l-7.048 4.096c.194-.113.315-.353.316-.694.002-.69-.482-1.527-1.079-1.872l7.048-4.096c.597.345 1.081 1.182 1.079 1.872C71.881 82.593 71.76 82.833 71.565 82.946zM29.383 65.002l7.048-4.096c.197-.115.471-.098.773.076l-7.048 4.096C29.854 64.903 29.58 64.887 29.383 65.002z" class="color0083cb svgShape"/><path fill="#cdcdcd" d="M37.211 58.491c.3.174.573.189.77.075l-7.048 4.096c-.001.001-.002.001-.004.002 2.349-1.365 4.698-2.73 7.047-4.095-2.349 1.365-4.698 2.73-7.047 4.095-.196.112-.467.095-.766-.077-.3-.173-.571-.469-.767-.808 2.349-1.365 4.698-2.73 7.047-4.095-2.349 1.365-4.698 2.73-7.047 4.095 0 0 0 0 0 0-.196-.339-.316-.719-.315-1.062 0 0 0 0 0 0 0 0 0 0 .001 0 .146-.02.235-.137.353-.205.903-.525 1.806-1.049 2.708-1.574 1.329-.772 2.657-1.544 3.985-2.317-2.349 1.365-4.698 2.73-7.048 4.096.004-1.314.364-2.329.974-2.984 2.349-1.365 4.698-2.731 7.048-4.096-2.349 1.365-4.698 2.73-7.047 4.095.182-.195.386-.358.609-.488l7.048-4.096c-.974.566-1.579 1.767-1.583 3.473C36.127 57.307 36.61 58.145 37.211 58.491zM30.163 62.587L30.163 62.587 30.163 62.587 30.163 62.587 30.163 62.587 30.163 62.587 30.163 62.587 30.163 62.587 30.163 62.587 30.163 62.587 30.163 62.587 30.163 62.587 30.163 62.587 30.163 62.587 30.163 62.587 30.163 62.587 30.163 62.587l.251-.146.257-.149.262-.152.267-.155.272-.158.275-.16.279-.162.282-.164.284-.165.286-.166.288-.167.289-.168.289-.168.289-.168.288-.167.287-.167.172-.1.171-.099.17-.099.169-.098.168-.098.167-.097.166-.096.164-.096.163-.095.161-.094.16-.093.158-.092.156-.091.154-.09.152-.088.15-.087-.15.087-.152.088-.154.09-.156.091-.158.092-.16.093-.161.094-.163.095-.164.096-.166.096-.167.097-.168.098-.169.098-.17.099-.171.099-.172.1-.287.167-.288.167-.289.168-.289.168-.289.168-.288.167-.286.166-.284.165-.282.164-.279.162-.275.16L31.2 61.984l-.267.155-.262.152-.257.149L30.163 62.587 30.163 62.587zM48.808 69.806l-7.048 4.096c-.197.115-.471.098-.773-.076l7.048-4.096C48.337 69.905 48.61 69.921 48.808 69.806z" class="colorcdcdcd svgShape"/><path fill="#00cbba" d="M48.808,69.806l-7.048,4.096c0.194-0.113,0.315-0.353,0.316-0.693
					c0.002-0.69-0.482-1.527-1.082-1.874l7.048-4.096c0.6,0.347,1.084,1.184,1.082,1.874C49.122,69.453,49.002,69.693,48.808,69.806
					z" class="color0083cb svgShape"/><path fill="#00cbba" d="M40.993,71.335c0.6,0.347,1.084,1.184,1.082,1.874c-0.002,0.686-0.489,0.963-1.089,0.617
					l-10.838-6.257c-0.6-0.346-1.084-1.184-1.082-1.87c0.002-0.69,0.489-0.967,1.089-0.621L40.993,71.335z" class="color0083cb svgShape"/><path fill="#cdcdcd" d="M40.993,71.335l4.894-2.844l-8.692-5.018l-7.048,4.096l10.838,6.257l1.089-0.633
					C42.07,72.507,41.589,71.679,40.993,71.335z" class="colorcdcdcd svgShape"/><polygon fill="#00cbba" points="30.156 65.078 37.203 60.982 48.042 67.239 40.993 71.335" class="color0083cb svgShape"/><polygon fill="#cdcdcd" points="31.248 61.968 38.296 57.873 46.97 62.88 39.922 66.976" class="colorcdcdcd svgShape"/><path fill="#008479" d="M38.296 57.873c-.001.341-.122.581-.316.694l-7.048 4.096c.194-.113.315-.353.316-.694C33.363 60.74 36.182 59.101 38.296 57.873zM32.198 59.883l7.048-4.096c-.584.34-.947 1.061-.95 2.085l-7.048 4.096C31.251 60.944 31.614 60.223 32.198 59.883zM37.712 53.148c.527-.306 1.161-.426 1.868-.339-2.075 1.206-4.15 2.412-6.225 3.618l-.823.478c-.706-.087-1.341.033-1.867.34C32.778 56.015 35.597 54.377 37.712 53.148z" class="color00843c svgShape"/><path fill="#74cdc6" d="M32.198,59.883l7.048-4.096c0.592-0.344,1.411-0.296,2.314,0.225l-7.048,4.096
					C33.609,59.587,32.79,59.54,32.198,59.883z" class="color74cd74 svgShape"/><path fill="#cdcdcd" d="M46.97,62.88c-0.002,0.686,0.482,1.524,1.079,1.868c-1.175,0.683-2.35,1.365-3.524,2.048
					c-0.9,0.523-1.8,1.046-2.701,1.569l-0.823,0.478c-0.597-0.345-1.081-1.182-1.079-1.868C42.036,65.747,44.855,64.109,46.97,62.88
					z" class="colorcdcdcd svgShape"/><path fill="#74cdc6" d="M36.68,61.36l7.048-4.096c1.794,1.036,3.248,3.555,3.242,5.616l-7.048,4.096
					C39.928,64.914,38.474,62.396,36.68,61.36z" class="color74cd74 svgShape"/><path fill="#cdcdcd" d="M48.049,64.748c0.302,0.175,0.576,0.191,0.773,0.076l-7.048,4.096
					c-0.001,0.001-0.003,0.002-0.005,0.003c2.349-1.365,4.698-2.73,7.047-4.095c-2.349,1.365-4.698,2.73-7.047,4.095
					c-0.197,0.112-0.469,0.095-0.769-0.079C43.115,67.616,45.934,65.977,48.049,64.748z" class="colorcdcdcd svgShape"/><path fill="#008479" d="M42.642,56.637c0.962,0.556,1.843,0.591,2.515,0.201l-7.048,4.096
					c-0.672,0.39-1.553,0.355-2.515-0.201c-1.26-0.727-2.376-2.185-3.063-3.829l7.048-4.096
					C40.266,54.453,41.382,55.91,42.642,56.637z" class="color00843c svgShape"/><path fill="#008479" d="M48.822,64.825l-7.048,4.096c0.194-0.113,0.315-0.353,0.316-0.693
					c0.007-2.628-1.412-5.706-3.418-7.778l7.048-4.096c2.006,2.073,3.426,5.15,3.418,7.778
					C49.137,64.472,49.016,64.712,48.822,64.825z" class="color00843c svgShape"/><path fill="#008479" d="M38.672,60.449c2.006,2.073,3.425,5.15,3.418,7.778c-0.002,0.686-0.489,0.963-1.089,0.617
					c-0.597-0.345-1.081-1.182-1.079-1.868c0.006-2.062-1.448-4.58-3.242-5.616l-2.168-1.252c-1.794-1.036-3.258-0.202-3.264,1.86
					c-0.002,0.686-0.489,0.963-1.086,0.619c-0.6-0.347-1.084-1.184-1.082-1.87c0.007-2.628,1.439-4.06,3.451-3.813
					c0.687,1.644,1.803,3.101,3.063,3.829C36.856,61.462,37.978,61.297,38.672,60.449z" class="color00843c svgShape"/><path fill="#74cdc6" d="M35.595,60.734l1.085,0.626l0.294-0.171C36.545,61.162,36.081,61.014,35.595,60.734z
					 M34.648,60.029l-0.136,0.079l1.082,0.625C35.267,60.544,34.95,60.306,34.648,60.029z M42.642,56.637
					C42.642,56.637,42.642,56.637,42.642,56.637C42.642,56.638,42.642,56.638,42.642,56.637L42.642,56.637z" class="color74cd74 svgShape"/><path fill="#00c5b5" d="M43.622,54.201l-7.048,4.096c-0.274,0.159-0.612,0.155-0.973-0.054l7.048-4.096
					C43.01,54.355,43.348,54.36,43.622,54.201z" class="colorc57800 svgShape"/><path fill="#cdcdcd" d="M53.458 71.616c-.002.686.482 1.524 1.079 1.868-2.075 1.206-4.15 2.412-6.225 3.618l-.823.478c-.597-.345-1.081-1.182-1.079-1.868C48.76 74.347 51.109 72.981 53.458 71.616c-2.35 1.365-4.699 2.73-7.048 4.096.001-.343.122-.584.317-.697l7.048-4.096C53.58 71.032 53.459 71.273 53.458 71.616zM38.864 49.466c-.003 1.092.263 2.258.716 3.342l-7.048 4.096c-.453-1.084-.719-2.25-.716-3.342.004-1.374.433-2.373 1.122-2.879 2.349-1.365 4.698-2.73 7.048-4.096C39.297 47.093 38.868 48.093 38.864 49.466zM40.159 46.474c-.059.034-.117.072-.173.113-2.349 1.365-4.699 2.73-7.048 4.096.056-.041.113-.079.173-.113C35.225 49.341 38.044 47.703 40.159 46.474z" class="colorcdcdcd svgShape"/><path fill="#00c5b5" d="M34.646,53.208l7.048-4.096c-0.397,0.231-0.66,0.806-0.662,1.606
					c-0.004,1.35,0.737,2.92,1.618,3.429l-7.048,4.096c-0.881-0.509-1.622-2.079-1.618-3.429
					C33.986,54.014,34.249,53.439,34.646,53.208z" class="colorc57800 svgShape"/><path fill="#00cbba" d="M46.727,75.014l7.048-4.096c0.197-0.114,0.469-0.098,0.769,0.075l-7.048,4.096
					C47.196,74.916,46.924,74.9,46.727,75.014z" class="color0083cb svgShape"/><path fill="#cdcdcd" d="M41.694,49.112c0.273-0.159,0.611-0.154,0.97,0.053c-2.075,1.206-4.15,2.411-6.225,3.618
					l-0.823,0.478c-0.359-0.208-0.696-0.212-0.97-0.053C36.76,51.979,39.579,50.341,41.694,49.112z" class="colorcdcdcd svgShape"/><path fill="#cdcdcd" d="M44.284 52.596c-.002.799-.265 1.374-.662 1.605l-7.048 4.096c.397-.231.66-.806.662-1.605C39.586 55.326 41.935 53.961 44.284 52.596c-2.35 1.365-4.699 2.73-7.048 4.096.004-1.35-.737-2.92-1.621-3.431l7.048-4.096C43.548 49.676 44.288 51.246 44.284 52.596zM53.473 66.634c-.002.686.482 1.524 1.079 1.868-2.075 1.206-4.15 2.412-6.225 3.618l-.823.478c-.597-.345-1.081-1.182-1.079-1.868C48.774 69.365 51.123 68 53.473 66.634c-2.35 1.365-4.699 2.73-7.048 4.096.001-.343.122-.584.317-.697l7.048-4.096C53.595 66.05 53.474 66.291 53.473 66.634z" class="colorcdcdcd svgShape"/><path fill="#00c5b5" d="M33.111,50.57l7.048-4.096c0.671-0.39,1.551-0.354,2.512,0.2l-7.048,4.096
					C34.662,50.216,33.782,50.18,33.111,50.57z" class="colorc57800 svgShape"/><path fill="#00cbba" d="M46.741,70.033l7.048-4.096c0.197-0.114,0.469-0.098,0.769,0.075l-7.048,4.096
					C47.21,69.935,46.938,69.919,46.741,70.033z" class="color0083cb svgShape"/><path fill="#cdcdcd" d="M61.04,77.239c0.302,0.175,0.576,0.191,0.773,0.076l-7.048,4.096
					c-0.197,0.115-0.471,0.099-0.773-0.076C56.106,80.106,58.925,78.467,61.04,77.239z" class="colorcdcdcd svgShape"/><path fill="#00c5b5" d="M45.157,56.839l-7.048,4.096c0.209-0.121,0.398-0.284,0.562-0.485
					c0.458-0.559,0.729-1.414,0.733-2.506c0.008-2.747-1.687-5.964-3.782-7.173l7.048-4.096c2.094,1.209,3.789,4.425,3.782,7.173
					c-0.003,1.092-0.275,1.947-0.733,2.506C45.555,56.554,45.366,56.717,45.157,56.839z" class="colorc57800 svgShape"/><polygon fill="#00cbba" points="47.496 75.089 54.544 70.994 61.047 74.748 53.999 78.844" class="color0083cb svgShape"/><path fill="#cdcdcd" d="M53.487,61.653c-0.002,0.686,0.482,1.524,1.079,1.868c-2.075,1.206-4.15,2.412-6.225,3.618
					l-0.823,0.478c-0.597-0.345-1.081-1.182-1.079-1.868C48.553,64.52,51.372,62.882,53.487,61.653z" class="colorcdcdcd svgShape"/><path fill="#00cbba" d="M61.813,77.315l-7.048,4.096c0.194-0.113,0.315-0.353,0.316-0.693
					c0.002-0.69-0.482-1.527-1.082-1.874l7.048-4.096c0.6,0.346,1.084,1.184,1.082,1.874C62.128,76.962,62.008,77.202,61.813,77.315
					z" class="color0083cb svgShape"/><path fill="#00cbba" d="M53.999,78.844c0.6,0.346,1.084,1.184,1.082,1.874c-0.002,0.686-0.489,0.963-1.089,0.617
					l-6.503-3.754c-0.597-0.345-1.081-1.182-1.079-1.868c0.002-0.69,0.489-0.967,1.086-0.622L53.999,78.844z" class="color0083cb svgShape"/><path fill="#cdcdcd" d="M53.804,60.956c-0.195,0.113-0.316,0.354-0.317,0.697c-1.175,0.683-2.349,1.365-3.524,2.048
					c-0.208,0.121-0.485,0.282-0.693,0.403c-0.341,0.198-0.683,0.397-1.024,0.595c-0.328,0.191-0.656,0.381-0.984,0.572
					l-0.823,0.478c0.001-0.343,0.122-0.584,0.317-0.697C48.87,63.823,51.689,62.184,53.804,60.956z" class="colorcdcdcd svgShape"/><polygon fill="#cdcdcd" points="47.503 72.599 54.551 68.503 61.054 72.257 54.006 76.353" class="colorcdcdcd svgShape"/><polygon fill="#00cbba" points="47.51 70.108 54.558 66.012 61.061 69.767 54.013 73.862" class="color0083cb svgShape"/><polygon fill="#cdcdcd" points="47.517 67.617 54.565 63.521 56.733 64.773 49.685 68.869" class="colorcdcdcd svgShape"/><path fill="#00cbba" d="M46.756,65.051l7.048-4.096c0.197-0.114,0.469-0.098,0.769,0.075l-7.048,4.096
					C47.224,64.953,46.952,64.937,46.756,65.051z" class="color0083cb svgShape"/><path fill="#cdcdcd" d="M61.827 72.333l-7.048 4.096c-.197.115-.471.099-.773-.076l7.048-4.096C61.356 72.432 61.63 72.448 61.827 72.333zM56.733 64.773c.302.175.576.191.773.076l-7.048 4.096c-.197.115-.471.098-.773-.076C51.799 67.64 54.619 66.002 56.733 64.773z" class="colorcdcdcd svgShape"/><polygon fill="#00cbba" points="47.525 65.126 54.572 61.031 56.74 62.282 49.692 66.378" class="color0083cb svgShape"/><path fill="#00cbba" d="M61.827,72.333l-7.048,4.096c0.194-0.113,0.315-0.353,0.316-0.693
					c0.002-0.69-0.482-1.527-1.082-1.874l7.048-4.096c0.6,0.346,1.084,1.184,1.082,1.874C62.142,71.981,62.022,72.22,61.827,72.333z
					" class="color0083cb svgShape"/><path fill="#00cbba" d="M54.013 73.862c.6.347 1.084 1.184 1.082 1.874-.002.686-.489.963-1.089.617l-6.503-3.754c-.597-.345-1.081-1.182-1.079-1.868.002-.69.489-.967 1.086-.622L54.013 73.862zM57.506 64.849l-7.048 4.096c.194-.113.315-.353.316-.693.002-.69-.482-1.527-1.082-1.874l7.048-4.096c.6.347 1.084 1.184 1.082 1.874C57.821 64.496 57.701 64.736 57.506 64.849z" class="color0083cb svgShape"/><path fill="#00cbba" d="M49.692,66.378c0.6,0.347,1.084,1.184,1.082,1.874c-0.002,0.686-0.489,0.963-1.089,0.617
					l-2.168-1.251c-0.597-0.345-1.081-1.182-1.079-1.868c0.002-0.689,0.489-0.967,1.086-0.622L49.692,66.378z" class="color0083cb svgShape"/><path fill="#cdcdcd" d="M53.504,55.424c-0.002,0.69,0.482,1.524,1.079,1.868c-2.075,1.206-4.15,2.412-6.225,3.618
					l-0.823,0.478c-0.597-0.345-1.081-1.179-1.079-1.868C48.806,58.155,51.155,56.79,53.504,55.424
					c-2.35,1.365-4.699,2.73-7.048,4.096c0.001-0.343,0.122-0.584,0.317-0.697l7.048-4.096
					C53.626,54.84,53.505,55.081,53.504,55.424z" class="colorcdcdcd svgShape"/><path fill="#009f92" d="M46.773,58.823l7.048-4.096c0.197-0.114,0.469-0.098,0.769,0.075l-7.048,4.096
					C47.242,58.725,46.97,58.708,46.773,58.823z" class="color00249f svgShape"/><polygon fill="#00cbba" points="60.502 82.598 67.55 78.502 70.803 80.38 63.755 84.476" class="color0083cb svgShape"/><path fill="#cdcdcd" d="M66.478,74.143c-0.002,0.686,0.479,1.522,1.079,1.868c-2.075,1.206-4.15,2.412-6.225,3.618
					l-0.823,0.478c-0.6-0.346-1.081-1.182-1.079-1.868C61.779,76.874,64.129,75.509,66.478,74.143
					c-2.35,1.365-4.699,2.73-7.048,4.096c0.001-0.343,0.122-0.585,0.316-0.698l7.048-4.096C66.6,73.558,66.479,73.8,66.478,74.143z" class="colorcdcdcd svgShape"/><path fill="#00cbba" d="M59.747,77.541l7.048-4.096c0.196-0.114,0.468-0.098,0.769,0.076l-7.048,4.096
					C60.215,77.443,59.943,77.426,59.747,77.541z" class="color0083cb svgShape"/><polygon fill="#cdcdcd" points="60.509 80.107 67.557 76.012 70.81 77.89 63.762 81.985" class="colorcdcdcd svgShape"/><path fill="#cdcdcd" d="M70.81,77.89c0.3,0.173,0.573,0.189,0.77,0.075l-7.048,4.096
					c-0.197,0.114-0.469,0.098-0.77-0.075C65.876,80.757,68.695,79.118,70.81,77.89z" class="colorcdcdcd svgShape"/><polygon fill="#00cbba" points="60.516 77.617 67.564 73.521 70.817 75.399 63.769 79.495" class="color0083cb svgShape"/><polygon fill="#cdcdcd" points="60.523 75.126 67.571 71.03 70.824 72.908 63.776 77.004" class="colorcdcdcd svgShape"/><path fill="#cdcdcd" d="M66.492,69.162c-0.002,0.686,0.479,1.522,1.079,1.868c-2.075,1.206-4.15,2.412-6.225,3.618
					l-0.823,0.478c-0.6-0.347-1.081-1.182-1.079-1.868C61.793,71.892,64.143,70.527,66.492,69.162
					c-2.35,1.365-4.699,2.731-7.048,4.096c0.001-0.343,0.121-0.585,0.316-0.698l7.048-4.096
					C66.614,68.576,66.493,68.818,66.492,69.162z" class="colorcdcdcd svgShape"/><path fill="#00cbba" d="M71.58 77.965l-7.048 4.096c.194-.113.315-.353.316-.694.002-.69-.482-1.527-1.079-1.872l7.048-4.096c.597.345 1.081 1.182 1.079 1.872C71.895 77.612 71.774 77.852 71.58 77.965zM59.761 72.559l7.048-4.096c.196-.114.468-.098.769.076l-7.048 4.096C60.229 72.461 59.957 72.445 59.761 72.559z" class="color0083cb svgShape"/><path fill="#cdcdcd" d="M71.594,72.983l-7.048,4.096c-0.197,0.114-0.469,0.098-0.77-0.075l7.048-4.096
					C71.124,73.082,71.397,73.098,71.594,72.983z" class="colorcdcdcd svgShape"/><polygon fill="#00cbba" points="60.53 72.635 67.578 68.539 70.831 70.418 63.783 74.513" class="color0083cb svgShape"/><path fill="#00cbba" d="M71.594,72.983l-7.048,4.096c0.194-0.113,0.315-0.353,0.316-0.694
					c0.002-0.69-0.482-1.527-1.079-1.872l7.048-4.096c0.597,0.345,1.081,1.182,1.079,1.872C71.909,72.63,71.788,72.87,71.594,72.983
					z" class="color0083cb svgShape"/><path fill="#cdcdcd" d="M70.842,66.68c0.301,0.174,0.574,0.19,0.771,0.076l-7.048,4.096
					c-0.197,0.114-0.47,0.098-0.771-0.076C65.908,69.547,68.727,67.908,70.842,66.68z" class="colorcdcdcd svgShape"/><path fill="#009f92" d="M71.612,66.756l-7.048,4.096c0.194-0.113,0.314-0.353,0.315-0.695
					c0.002-0.69-0.482-1.527-1.079-1.872l7.048-4.096c0.597,0.345,1.081,1.183,1.079,1.872
					C71.926,66.403,71.806,66.643,71.612,66.756z" class="color00249f svgShape"/><path fill="#009f92" d="M63.801,68.285c0.597,0.345,1.081,1.183,1.079,1.872c-0.002,0.69-0.489,0.963-1.086,0.619
					l-16.259-9.387c-0.597-0.345-1.081-1.179-1.079-1.868c0.002-0.69,0.489-0.967,1.086-0.622L63.801,68.285z" class="color00249f svgShape"/><path fill="#cdcdcd" d="M63.801,68.285l4.894-2.844l-14.112-8.148l-7.048,4.096l16.258,9.387l1.085-0.631
					C64.875,69.457,64.394,68.627,63.801,68.285z" class="colorcdcdcd svgShape"/><polygon fill="#009f92" points="47.542 58.898 54.59 54.802 70.849 64.189 63.801 68.285" class="color00249f svgShape"/><path fill="#cdcdcd" d="M25.88,41.402l-0.074,26.154l41.184,23.778l0.074-26.155L25.88,41.402z M40.986,73.826
					l-10.838-6.257c-0.6-0.346-1.084-1.184-1.082-1.87c0.002-0.69,0.489-0.967,1.089-0.621l10.838,6.257
					c0.6,0.347,1.084,1.184,1.082,1.874C42.073,73.895,41.587,74.172,40.986,73.826L40.986,73.826z M42.022,68.617
					c-0.006,0.016-0.013,0.031-0.02,0.045c-0.014,0.029-0.029,0.057-0.046,0.082c-0.017,0.026-0.035,0.049-0.055,0.071
					s-0.041,0.042-0.063,0.06c-0.022,0.018-0.046,0.034-0.07,0.048c-0.021,0.012-0.043,0.022-0.066,0.031
					c-0.017,0.007-0.035,0.013-0.053,0.018c-0.028,0.008-0.057,0.014-0.087,0.017c-0.045,0.005-0.092,0.006-0.141,0.001
					c-0.081-0.007-0.168-0.029-0.257-0.065c-0.054-0.022-0.109-0.049-0.166-0.081c-0.597-0.345-1.081-1.182-1.079-1.868
					l-8.674-5.008c-0.001,0.257-0.07,0.457-0.187,0.588c-0.049,0.055-0.106,0.097-0.17,0.127c-0.026,0.012-0.053,0.022-0.08,0.03
					c-0.056,0.016-0.115,0.023-0.179,0.022c-0.079-0.002-0.163-0.017-0.251-0.047c-0.07-0.024-0.143-0.057-0.218-0.1
					c-0.094-0.054-0.185-0.12-0.271-0.196c-0.052-0.045-0.102-0.094-0.151-0.146c-0.032-0.035-0.064-0.07-0.095-0.107
					c-0.031-0.037-0.06-0.075-0.089-0.114c-0.029-0.039-0.057-0.079-0.083-0.12c-0.2-0.306-0.34-0.659-0.38-0.991
					c-0.008-0.066-0.012-0.132-0.012-0.196c0-0.082,0.002-0.163,0.005-0.243c0.006-0.16,0.017-0.314,0.034-0.464
					c0.008-0.075,0.018-0.149,0.029-0.221c0.263-1.741,1.267-2.775,2.657-2.899c0.232-0.021,0.474-0.016,0.725,0.015
					c-0.453-1.084-0.719-2.25-0.716-3.342c0.008-2.747,1.716-3.999,3.807-2.792c2.094,1.209,3.789,4.425,3.782,7.173
					c-0.003,1.092-0.275,1.947-0.733,2.506l0,0l0,0c0.502,0.518,0.967,1.099,1.382,1.72c0.259,0.388,0.499,0.792,0.717,1.206
					c0.261,0.497,0.489,1.008,0.679,1.524c0.095,0.258,0.18,0.518,0.256,0.777c0.05,0.173,0.096,0.346,0.137,0.519
					c0.02,0.086,0.04,0.173,0.058,0.259c0.036,0.172,0.067,0.344,0.093,0.515c0.026,0.171,0.047,0.341,0.063,0.509
					c0.024,0.253,0.036,0.503,0.035,0.75C42.089,68.378,42.065,68.508,42.022,68.617L42.022,68.617z M53.992,81.335l-6.503-3.754
					c-0.597-0.345-1.081-1.183-1.079-1.868c0.002-0.69,0.489-0.967,1.086-0.622l6.503,3.754c0.6,0.346,1.084,1.184,1.082,1.874
					C55.079,81.404,54.592,81.681,53.992,81.335L53.992,81.335z M54.006,76.353l-6.503-3.754c-0.597-0.345-1.081-1.182-1.079-1.868
					c0.002-0.69,0.489-0.967,1.086-0.622l6.503,3.754c0.6,0.347,1.084,1.184,1.082,1.874C55.093,76.422,54.606,76.7,54.006,76.353
					L54.006,76.353z M46.439,65.749c0.002-0.69,0.489-0.967,1.086-0.622l2.168,1.251c0.6,0.347,1.084,1.184,1.082,1.874
					c-0.002,0.686-0.489,0.963-1.089,0.617l-2.168-1.251C46.921,67.273,46.437,66.435,46.439,65.749L46.439,65.749z M63.748,86.967
					l-3.253-1.878c-0.6-0.346-1.081-1.182-1.079-1.868c0.002-0.69,0.486-0.969,1.086-0.622l3.253,1.878
					c0.597,0.345,1.081,1.182,1.079,1.872C64.831,87.034,64.345,87.312,63.748,86.967L63.748,86.967z M63.762,81.985l-3.253-1.878
					c-0.6-0.346-1.081-1.182-1.079-1.868c0.002-0.69,0.486-0.969,1.086-0.622l3.253,1.878c0.597,0.345,1.081,1.182,1.079,1.872
					C64.846,82.053,64.359,82.33,63.762,81.985L63.762,81.985z M63.776,77.004l-3.253-1.878c-0.6-0.346-1.081-1.182-1.079-1.868
					c0.002-0.69,0.486-0.969,1.086-0.622l3.253,1.878c0.597,0.345,1.081,1.183,1.079,1.872
					C64.86,77.071,64.373,77.349,63.776,77.004L63.776,77.004z M63.794,70.775l-16.258-9.387c-0.597-0.345-1.081-1.179-1.079-1.868
					c0.002-0.69,0.489-0.967,1.086-0.622l16.259,9.387c0.597,0.345,1.081,1.182,1.079,1.872
					C64.877,70.846,64.391,71.12,63.794,70.775L63.794,70.775z" class="colorcdcdcd svgShape"/><path fill="#00cbba" d="M63.755 84.476c.597.345 1.081 1.182 1.079 1.872-.002.686-.489.963-1.086.619l-3.253-1.878c-.6-.346-1.081-1.182-1.079-1.868.002-.69.486-.969 1.086-.622L63.755 84.476zM30.764 34.811c-.001.334.107.708.31 1.065-2.349 1.365-4.699 2.73-7.048 4.096-.204-.356-.311-.731-.31-1.065C25.831 37.678 28.65 36.04 30.764 34.811z" class="color0083cb svgShape"/><polygon fill="#00cbba" points="25.962 12.76 33.01 8.664 32.935 34.815 25.888 38.911" class="color0083cb svgShape"/><path fill="#00cbba" d="M31.075,35.876c0.207,0.355,0.478,0.636,0.768,0.804l-7.048,4.096
					c-0.291-0.168-0.562-0.449-0.768-0.804C26.376,38.606,28.725,37.241,31.075,35.876z" class="color0083cb svgShape"/><polygon fill="#00cbba" points="24.795 40.775 31.843 36.679 32.928 37.306 25.88 41.402" class="color0083cb svgShape"/><path fill="#74cdc6" d="M36.68,61.36c1.794,1.036,3.248,3.554,3.242,5.616l-8.674-5.008
					c0.006-2.062,1.469-2.896,3.264-1.86L36.68,61.36z" class="color74cd74 svgShape"/><path fill="#cdcdcd" d="M35.615,53.261c0.884,0.51,1.625,2.081,1.621,3.431c-0.004,1.35-0.751,2.061-1.635,1.551
					c-0.881-0.509-1.622-2.079-1.618-3.429C33.987,53.464,34.734,52.752,35.615,53.261z" class="colorcdcdcd svgShape"/><path fill="#00c5b5" d="M35.622,50.77c2.094,1.209,3.789,4.425,3.782,7.173c-0.003,1.092-0.275,1.947-0.733,2.506
					c-0.694,0.847-1.815,1.013-3.077,0.284c-1.26-0.727-2.376-2.185-3.063-3.829c-0.453-1.084-0.719-2.25-0.716-3.342
					C31.823,50.815,33.531,49.563,35.622,50.77z M35.601,58.243c0.884,0.51,1.631-0.201,1.635-1.551
					c0.004-1.35-0.737-2.92-1.621-3.431c-0.881-0.509-1.628,0.203-1.632,1.553C33.979,56.164,34.72,57.734,35.601,58.243
					L35.601,58.243z" class="colorc57800 svgShape"/><polygon fill="#cdcdcd" points="25.88 41.402 32.928 37.306 74.113 61.084 67.065 65.179" class="colorcdcdcd svgShape"/><polygon fill="#00cbba" points="25.888 38.911 32.935 34.815 74.12 58.593 67.072 62.689" class="color0083cb svgShape"/><path fill="#cdcdcd" d="M30.254,30.208l7.048-4.096c-0.006,2.062,1.448,4.576,3.239,5.611l-7.048,4.096
					C31.703,34.784,30.249,32.269,30.254,30.208z" class="colorcdcdcd svgShape"/><path fill="#0ccbbb" d="M32.422,31.459l7.048-4.096c-0.002,0.686,0.482,1.524,1.079,1.868l-7.048,4.096
					C32.904,32.983,32.42,32.145,32.422,31.459z" class="colorcb0c2d svgShape"/><path fill="#00cbba" d="M75.886,90.43l-7.048,4.096c0.194-0.113,0.315-0.353,0.316-0.694l7.048-4.096
					C76.201,90.078,76.081,90.318,75.886,90.43z" class="color0083cb svgShape"/><polygon fill="#cdcdcd" points="30.268 25.226 37.317 21.13 37.302 26.112 30.254 30.208" class="colorcdcdcd svgShape"/><polygon fill="#0ccbbb" points="32.436 26.478 39.484 22.382 39.47 27.363 32.422 31.459" class="colorcb0c2d svgShape"/><polygon fill="#cdcdcd" points="33.494 35.818 40.542 31.722 51.383 37.981 44.335 42.077" class="colorcdcdcd svgShape"/><polygon fill="#0ccbbb" points="33.501 33.327 40.549 29.232 51.39 35.491 44.342 39.586" class="colorcb0c2d svgShape"/><path fill="#cdcdcd" d="M41.645 26.124c-.002.69.482 1.524 1.079 1.868-1.175.683-2.35 1.365-3.525 2.048-.9.523-1.8 1.046-2.701 1.569l-.823.478c-.597-.345-1.081-1.179-1.079-1.868C36.946 28.854 39.295 27.489 41.645 26.124c-2.35 1.365-4.699 2.731-7.048 4.096.001-.343.122-.584.317-.697l7.048-4.096C41.766 25.54 41.646 25.781 41.645 26.124zM31.219 23.14l7.048-4.096c-.584.339-.947 1.061-.95 2.086l-7.048 4.096C30.271 24.201 30.634 23.48 31.219 23.14z" class="colorcdcdcd svgShape"/><path fill="#0ccbbb" d="M32.754,25.781l7.048-4.096c-0.195,0.113-0.317,0.355-0.318,0.696l-7.048,4.096
					C32.437,26.136,32.558,25.895,32.754,25.781z" class="colorcb0c2d svgShape"/><path fill="#00cbba" d="M63.769,79.495c0.597,0.345,1.081,1.182,1.079,1.872c-0.002,0.686-0.489,0.963-1.086,0.619
					l-3.253-1.878c-0.6-0.346-1.081-1.182-1.079-1.868c0.002-0.69,0.486-0.969,1.086-0.622L63.769,79.495z" class="color0083cb svgShape"/><path fill="#0cc9ba" d="M34.913,29.522l7.048-4.096c0.197-0.114,0.469-0.098,0.769,0.075l-7.048,4.096
					C35.382,29.424,35.11,29.408,34.913,29.522z" class="colorc90c2d svgShape"/><path fill="#cdcdcd" d="M32.754,25.781l7.048-4.096c0.197-0.114,0.469-0.099,0.768,0.074l-7.048,4.096
					C33.222,25.682,32.95,25.667,32.754,25.781z" class="colorcdcdcd svgShape"/><path fill="#00cbba" d="M24.113,9.558l7.048-4.096c0.208-0.104,0.489-0.077,0.77,0.085l-7.048,4.096
					C24.602,9.481,24.321,9.454,24.113,9.558z" class="color0083cb svgShape"/><path fill="#0ccbbb" d="M31.219,23.14l7.048-4.096c0.591-0.344,1.409-0.296,2.31,0.224l-7.048,4.096
					C32.628,22.844,31.81,22.797,31.219,23.14z" class="colorcb0c2d svgShape"/><path fill="#00cbba" d="M63.783,74.513c0.597,0.345,1.081,1.182,1.079,1.872c-0.002,0.686-0.489,0.963-1.086,0.619
					l-3.253-1.878c-0.6-0.346-1.081-1.182-1.079-1.868c0.002-0.69,0.486-0.969,1.086-0.622L63.783,74.513z" class="color0083cb svgShape"/><polygon fill="#cdcdcd" points="35.675 32.088 42.723 27.992 49.229 31.748 42.181 35.844" class="colorcdcdcd svgShape"/><path fill="#cdcdcd" d="M49.229,31.748c0.301,0.174,0.574,0.19,0.771,0.076l-7.048,4.096
					c-0.197,0.114-0.47,0.098-0.771-0.076C44.296,34.616,47.115,32.977,49.229,31.748z" class="colorcdcdcd svgShape"/><path fill="#0cc9ba" d="M50,31.824l-7.048,4.096c0.194-0.113,0.314-0.352,0.315-0.695
					c0.002-0.69-0.482-1.527-1.079-1.872l7.048-4.096c0.597,0.345,1.081,1.182,1.079,1.872C50.314,31.472,50.194,31.712,50,31.824z" class="colorc90c2d svgShape"/><polygon fill="#cdcdcd" points="45.442 33.986 52.49 29.89 52.475 34.872 45.428 38.968" class="colorcdcdcd svgShape"/><path fill="#0ccbbb" d="M52.16,35.566l-7.048,4.096c-0.197,0.114-0.469,0.098-0.77-0.075l7.048-4.096
					C51.69,35.664,51.963,35.68,52.16,35.566z" class="colorcb0c2d svgShape"/><path fill="#cdcdcd" d="M53.694 38.206l-7.048 4.096c-.591.344-1.41.296-2.312-.225l7.048-4.096C52.284 38.502 53.103 38.55 53.694 38.206zM52.16 35.566l-7.048 4.096c.194-.113.315-.353.316-.694l7.048-4.096C52.474 35.213 52.354 35.453 52.16 35.566z" class="colorcdcdcd svgShape"/><polygon fill="#0cc9ba" points="35.682 29.597 42.73 25.501 49.236 29.258 42.188 33.354" class="colorc90c2d svgShape"/><path fill="#0ccbbb" d="M53.694,38.206l-7.048,4.096c0.583-0.339,0.946-1.059,0.949-2.083l7.048-4.096
					C54.64,37.147,54.278,37.867,53.694,38.206z" class="colorcb0c2d svgShape"/><path fill="#cdcdcd" d="M58.71,41.269c-2.349,1.365-4.699,2.731-7.048,4.096c0-0.001-0.001-0.001-0.001-0.002
					c0-0.001-0.001-0.001-0.001-0.002c2.349-1.365,4.699-2.73,7.048-4.096c0,0.001,0.001,0.001,0.001,0.002
					C58.709,41.267,58.709,41.268,58.71,41.269z" class="colorcdcdcd svgShape"/><path fill="#cdcdcd" d="M58.755,41.344c-2.349,1.365-4.699,2.73-7.048,4.096c-0.015-0.025-0.031-0.05-0.045-0.075
					c2.349-1.365,4.698-2.73,7.048-4.096C58.724,41.294,58.74,41.319,58.755,41.344z" class="colorcdcdcd svgShape"/><path fill="#cdcdcd" d="M58.756 41.345c-2.349 1.365-4.699 2.73-7.048 4.096 0 0 0 0 0-.001C54.056 44.075 56.406 42.709 58.756 41.345 58.755 41.344 58.755 41.345 58.756 41.345zM58.707 41.265c-2.349 1.365-4.699 2.73-7.048 4.096-.015-.026-.029-.051-.043-.077 2.349-1.365 4.698-2.731 7.048-4.096C58.679 41.213 58.693 41.239 58.707 41.265z" class="colorcdcdcd svgShape"/><polygon fill="#0ccbbb" points="47.609 35.238 54.657 31.142 54.643 36.123 47.595 40.219" class="colorcb0c2d svgShape"/><path fill="#cdcdcd" d="M56.818,34.884c-0.006,2.033,0.7,4.289,1.847,6.303c-2.075,1.206-4.15,2.411-6.224,3.617
					l-0.823,0.479c-1.147-2.013-1.852-4.27-1.847-6.303C52.119,37.615,54.468,36.249,56.818,34.884
					c-2.35,1.365-4.699,2.73-7.048,4.095c0.006-2.031,0.721-3.467,1.874-4.151c2.075-1.206,4.15-2.412,6.225-3.617l0.823-0.478
					C57.539,31.417,56.824,32.853,56.818,34.884z" class="colorcdcdcd svgShape"/><path fill="#cdcdcd" d="M58.665 41.188c-2.349 1.365-4.699 2.731-7.048 4.096 0 0 0-.001 0-.001L58.665 41.188C58.665 41.187 58.665 41.187 58.665 41.188zM59.269 42.165c-2.349 1.365-4.699 2.73-7.048 4.096-.179-.268-.351-.541-.514-.82l7.048-4.096C58.919 41.624 59.09 41.897 59.269 42.165z" class="colorcdcdcd svgShape"/><polygon fill="#cdcdcd" points="33.522 25.855 40.57 21.759 51.411 28.018 44.363 32.114" class="colorcdcdcd svgShape"/><path fill="#cdcdcd" d="M44.363 32.114l7.048-4.096c.597.345 1.081 1.186 1.079 1.872l-7.048 4.096C45.444 33.3 44.96 32.459 44.363 32.114zM67.338 46.824c-2.349 1.365-4.699 2.73-7.048 4.096-1.112.371-2.516.166-4.039-.713 2.349-1.365 4.698-2.731 7.047-4.096-2.349 1.365-4.698 2.73-7.048 4.096-1.523-.879-2.923-2.294-4.03-3.946 2.349-1.365 4.699-2.73 7.048-4.096 1.107 1.652 2.507 3.067 4.03 3.946C64.822 46.99 66.226 47.194 67.338 46.824z" class="colorcdcdcd svgShape"/><path fill="#0cc9ba" d="M59.474 42.076c.278.16.556.196.767.075l-7.048 4.096c-.211.12-.489.085-.767-.075C54.775 44.806 57.124 43.441 59.474 42.076c-2.35 1.365-4.699 2.731-7.048 4.096-.257-.149-.515-.405-.718-.731l7.048-4.096C58.959 41.671 59.216 41.927 59.474 42.076zM58.714 39.506c-.41.234-.427.971-.049 1.681-2.075 1.206-4.15 2.412-6.225 3.618l-.823.478c-.378-.709-.361-1.447.049-1.681C53.78 42.373 56.599 40.735 58.714 39.506z" class="colorc90c2d svgShape"/><polygon fill="#0ccbbb" points="33.529 23.364 40.577 19.268 51.418 25.528 44.37 29.624" class="colorcb0c2d svgShape"/><polygon fill="#0cc9ba" points="53.193 46.247 60.241 42.151 61.107 41.658 54.059 45.754" class="colorc90c2d svgShape"/><polygon fill="#0cc9ba" points="51.666 43.602 58.714 39.506 59.58 39.012 52.532 43.108" class="colorc90c2d svgShape"/><path fill="#0ccbbb" d="M44.37,29.624l7.048-4.096c1.791,1.034,3.245,3.553,3.239,5.614l-7.048,4.096
					C47.615,33.176,46.161,30.657,44.37,29.624z" class="colorcb0c2d svgShape"/><path fill="#0cc9ba" d="M54.059,45.754l7.048-4.096c0.644,0.812,1.396,1.499,2.199,1.962
					c0.803,0.464,1.556,0.646,2.203,0.58l-7.048,4.096c-0.647,0.066-1.4-0.116-2.203-0.58S54.703,46.565,54.059,45.754z" class="colorc90c2d svgShape"/><polygon fill="#0cc9ba" points="58.462 48.295 65.51 44.2 66.37 45.69 59.322 49.786" class="colorc90c2d svgShape"/><polygon fill="#7cc9c3" points="54.059 45.754 61.107 41.658 63.315 40.399 56.268 44.495" class="colorc97e7c svgShape"/><polygon fill="#7cc9c3" points="56.268 44.495 63.315 40.399 65.51 44.2 58.462 48.295" class="colorc97e7c svgShape"/><polygon fill="#0cc9ba" points="52.532 43.108 59.58 39.012 61.788 37.754 54.74 41.85" class="colorc90c2d svgShape"/><path fill="#0cc9ba" d="M52.546,38.049l7.048-4.096c-0.384,0.521-0.606,1.259-0.609,2.182
					c-0.003,0.923,0.215,1.915,0.594,2.877l-7.048,4.096c-0.38-0.962-0.597-1.954-0.594-2.877
					C51.94,39.308,52.162,38.571,52.546,38.049z" class="colorc90c2d svgShape"/><polygon fill="#7cc9c3" points="52.546 38.049 59.594 33.953 61.788 37.754 54.74 41.85" class="colorc97e7c svgShape"/><path fill="#7cc9c3" d="M52.546,38.049l2.194,3.8l-2.208,1.258c-0.38-0.962-0.597-1.954-0.594-2.877
					C51.94,39.308,52.162,38.571,52.546,38.049z" class="colorc97e7c svgShape"/><polygon fill="#0cc9ba" points="51.686 36.559 58.734 32.463 59.594 33.953 52.546 38.049" class="colorc90c2d svgShape"/><path fill="#0cc9ba" d="M66.37,45.69c0.213,0.365,0.487,0.649,0.765,0.809c-2.349,1.365-4.699,2.731-7.048,4.096
					c-0.278-0.16-0.552-0.444-0.765-0.809C61.437,48.557,64.256,46.919,66.37,45.69z" class="colorc90c2d svgShape"/><path fill="#cdcdcd" d="M67.338,46.824c0.18-0.06,0.353-0.135,0.517-0.225c-2.075,1.206-4.15,2.412-6.225,3.618
					l-0.823,0.478c-0.164,0.09-0.337,0.165-0.517,0.225c0.526-0.306,1.051-0.611,1.577-0.916c0.912-0.53,1.824-1.06,2.735-1.59
					c0.215-0.125,0.501-0.291,0.716-0.416c0.211-0.123,0.492-0.286,0.703-0.409c0.203-0.118,0.474-0.276,0.678-0.394
					c0.097-0.057,0.228-0.132,0.325-0.189C67.119,46.951,67.239,46.868,67.338,46.824z" class="colorcdcdcd svgShape"/><path fill="#0cc9ba" d="M67.135,46.499c0.257,0.149,0.515,0.19,0.72,0.099l-7.048,4.096
					c-0.205,0.091-0.462,0.049-0.72-0.099C62.437,49.23,64.786,47.865,67.135,46.499z" class="colorc90c2d svgShape"/><path fill="#cdcdcd" d="M67.855,46.598c-2.349,1.365-4.699,2.731-7.048,4.096c0,0,0,0,0,0L67.855,46.598
					C67.855,46.598,67.855,46.598,67.855,46.598z" class="colorcdcdcd svgShape"/><path fill="#0cc9ba" d="M52.532,43.108l-0.866,0.494c-0.41,0.234-0.427,0.972-0.049,1.681
					c-1.147-2.013-1.852-4.27-1.847-6.303c0.006-2.032,0.721-3.467,1.874-4.152c-0.378,0.269-0.365,1.026,0.042,1.731l0.861,1.491
					c-0.384,0.521-0.606,1.259-0.609,2.182C51.935,41.154,52.152,42.146,52.532,43.108z" class="colorc90c2d svgShape"/><path fill="#0cc9ba" d="M58.692,30.732c-0.378,0.269-0.365,1.026,0.042,1.731l-7.048,4.096
					c-0.407-0.705-0.42-1.461-0.042-1.731C53.758,33.599,56.577,31.961,58.692,30.732z" class="colorc90c2d svgShape"/><path fill="#cdcdcd" d="M67.902,46.575c-2.349,1.365-4.699,2.731-7.048,4.096c-0.015,0.009-0.03,0.016-0.046,0.023
					c2.349-1.365,4.699-2.73,7.048-4.096C67.871,46.591,67.886,46.584,67.902,46.575z" class="colorcdcdcd svgShape"/><polygon fill="#0cc9ba" points="59.999 47.419 67.047 43.324 67.908 44.814 60.86 48.91" class="colorc90c2d svgShape"/><path fill="#0cc9ba" d="M69.823,42.393c-0.006,2.033-0.722,3.469-1.876,4.153l-7.048,4.096
					c1.155-0.684,1.87-2.12,1.876-4.153C64.89,45.26,67.709,43.622,69.823,42.393z" class="colorc90c2d svgShape"/><path fill="#0cc9ba" d="M67.906,46.573l-7.048,4.096c0.014-0.008,0.028-0.017,0.041-0.027
					c0.381-0.271,0.368-1.026-0.04-1.732l7.048-4.096c0.408,0.706,0.42,1.461,0.039,1.732C67.934,46.556,67.92,46.564,67.906,46.573
					z" class="colorc90c2d svgShape"/><path fill="#cdcdcd" d="M67.902,46.575C67.902,46.575,67.902,46.575,67.902,46.575l-7.047,4.095c0,0-0.001,0-0.001,0
					c2.258-1.312,4.516-2.625,6.775-3.937C67.719,46.681,67.81,46.628,67.902,46.575z" class="colorcdcdcd svgShape"/><path fill="#cdcdcd" d="M67.903,46.574c-2.349,1.365-4.699,2.731-7.048,4.096c0,0-0.001,0-0.001,0L67.903,46.574
					C67.903,46.575,67.903,46.574,67.903,46.574z" class="colorcdcdcd svgShape"/><path fill="#cdcdcd" d="M67.903 46.574c.001 0 .002-.001.002-.001l-7.048 4.096c-.001 0-.001.001-.002.001C63.205 49.305 65.55 47.932 67.903 46.574zM58.734 30.705c-.014.008-.028.018-.042.027l-7.048 4.096c.014-.01.027-.019.042-.027C53.8 33.572 56.619 31.934 58.734 30.705z" class="colorcdcdcd svgShape"/><polygon fill="#0cc9ba" points="51.686 34.801 58.734 30.705 58.738 30.702 51.691 34.798" class="colorc90c2d svgShape"/><path fill="#0cc9ba" d="M51.691,34.798l7.048-4.096c0.016-0.009,0.033-0.017,0.05-0.025
					c0.204-0.091,0.46-0.047,0.716,0.101c0.277,0.16,0.555,0.442,0.766,0.809l-7.048,4.096c-0.212-0.367-0.489-0.649-0.766-0.809
					c-0.256-0.148-0.512-0.191-0.716-0.101C51.723,34.781,51.707,34.789,51.691,34.798z" class="colorc90c2d svgShape"/><path fill="#0cc9ba" d="M59.297,30.455c-2.349,1.365-4.699,2.73-7.048,4.096c-0.177,0.059-0.347,0.134-0.509,0.222
					l7.048-4.096l0,0C58.95,30.589,59.12,30.515,59.297,30.455z" class="colorc90c2d svgShape"/><path fill="#cdcdcd" d="M52.518,19.928c0.3,0.173,0.574,0.189,0.771,0.074l-7.048,4.096
					c-0.198,0.115-0.471,0.099-0.771-0.074C47.584,22.795,50.403,21.156,52.518,19.928z" class="colorcdcdcd svgShape"/><polygon fill="#0cc9ba" points="57.805 43.619 64.853 39.523 67.047 43.324 59.999 47.419" class="colorc90c2d svgShape"/><polygon fill="#0cc9ba" points="56.268 44.495 63.315 40.399 64.853 39.523 57.805 43.619" class="colorc90c2d svgShape"/><polygon fill="#0cc9ba" points="54.74 41.85 61.788 37.754 63.326 36.878 56.278 40.974" class="colorc90c2d svgShape"/><polygon fill="#0cc9ba" points="54.083 37.173 61.131 33.077 63.326 36.878 56.278 40.974" class="colorc90c2d svgShape"/><polygon fill="#0cc9ba" points="53.223 35.683 60.271 31.587 61.131 33.077 54.083 37.173" class="colorc90c2d svgShape"/><path fill="#0cc9ba" d="M59.297,30.455c0.217-0.073,0.445-0.124,0.684-0.152c-2.349,1.365-4.699,2.731-7.048,4.096
					c-0.238,0.028-0.466,0.079-0.683,0.152c2.026-1.178,4.053-2.355,6.079-3.533c0.017-0.01,0.039-0.023,0.056-0.032
					c0.164-0.095,0.328-0.191,0.492-0.286c0.063-0.036,0.125-0.073,0.188-0.109C59.142,30.546,59.215,30.493,59.297,30.455z" class="colorc90c2d svgShape"/><polygon fill="#cdcdcd" points="25.962 12.76 33.01 8.664 52.518 19.928 45.47 24.023" class="colorcdcdcd svgShape"/><polygon fill="#cdcdcd" points="46.559 23.403 53.607 19.307 55.774 20.558 48.726 24.654" class="colorcdcdcd svgShape"/><path fill="#00cbba" d="M53.289,20.002l-7.048,4.096c0.195-0.113,0.317-0.354,0.318-0.695
					c0.002-0.682-0.485-1.525-1.082-1.87l7.048-4.096c0.597,0.345,1.084,1.188,1.082,1.87
					C53.606,19.648,53.484,19.888,53.289,20.002z" class="color0083cb svgShape"/><path fill="#cdcdcd" d="M56.853,22.431c0.3,0.173,0.574,0.189,0.771,0.074L50.576,26.6
					c-0.198,0.115-0.471,0.099-0.771-0.074C52.154,25.161,54.503,23.796,56.853,22.431c-2.35,1.365-4.699,2.73-7.048,4.096
					c-0.597-0.345-1.081-1.186-1.079-1.872l7.048-4.096C55.772,21.244,56.256,22.086,56.853,22.431z" class="colorcdcdcd svgShape"/><path fill="#7cc9c3" d="M60.013,42.361l7.048-4.096c0.38,0.962,0.597,1.954,0.594,2.877
					c-0.003,0.923-0.225,1.661-0.609,2.182l-7.048,4.096c0.384-0.521,0.606-1.259,0.609-2.182
					C60.61,44.314,60.393,43.323,60.013,42.361z" class="colorc97e7c svgShape"/><polygon fill="#7cc9c3" points="57.805 43.619 64.853 39.523 67.061 38.265 60.013 42.361" class="colorc97e7c svgShape"/><polygon fill="#cdcdcd" points="67.065 65.179 74.113 61.084 74.038 87.238 66.991 91.334" class="colorcdcdcd svgShape"/><polygon fill="#00cbba" points="67.065 65.179 74.113 61.084 75.198 61.71 68.15 65.806" class="color0083cb svgShape"/><path fill="#7cc9c3" d="M54.059,45.754l2.208-1.259l2.194,3.8c-0.647,0.066-1.4-0.116-2.203-0.58
					S54.703,46.565,54.059,45.754z" class="colorc97e7c svgShape"/><path fill="#0cc9ba" d="M60.86,48.91c0.408,0.706,0.42,1.461,0.04,1.732c-0.014,0.01-0.029,0.02-0.045,0.029
					c-0.015,0.009-0.031,0.016-0.047,0.024c-0.205,0.091-0.462,0.049-0.72-0.099c-0.278-0.16-0.552-0.444-0.765-0.809l-0.861-1.491
					l-2.194-3.8l1.537-0.876l2.194,3.8L60.86,48.91z" class="colorc90c2d svgShape"/><path fill="#0cc9ba" d="M59.322,49.786c0.213,0.366,0.487,0.649,0.765,0.809c0.257,0.149,0.515,0.19,0.72,0.099
					c-1.178,0.645-2.787,0.534-4.556-0.488s-3.374-2.766-4.544-4.766c0.203,0.326,0.461,0.583,0.718,0.731
					c0.278,0.16,0.556,0.196,0.767,0.075l0.866-0.493c0.644,0.812,1.396,1.499,2.199,1.962s1.556,0.646,2.203,0.58L59.322,49.786z" class="colorc90c2d svgShape"/><path fill="#7cc9c3" d="M60.013,42.361c0.38,0.962,0.597,1.954,0.594,2.877c-0.003,0.923-0.225,1.661-0.609,2.182
					l-2.194-3.8L60.013,42.361z" class="colorc97e7c svgShape"/><polygon fill="#0cc9ba" points="56.278 40.974 63.326 36.878 65.534 35.619 58.486 39.715" class="colorc90c2d svgShape"/><path fill="#7cc9c3" d="M54.083,37.173l7.048-4.096c0.647-0.066,1.4,0.116,2.203,0.58
					c0.803,0.464,1.555,1.151,2.199,1.962l-7.048,4.096c-0.644-0.812-1.396-1.499-2.199-1.962
					C55.484,37.289,54.73,37.107,54.083,37.173z" class="colorc97e7c svgShape"/><polygon fill="#0cc9ba" points="58.486 39.715 65.534 35.619 66.4 35.126 59.352 39.221" class="colorc90c2d svgShape"/><path fill="#0cc9ba" d="M59.352,39.221l7.048-4.096c0.213-0.121,0.491-0.083,0.768,0.077l-7.048,4.096
					C59.843,39.138,59.565,39.1,59.352,39.221z" class="colorc90c2d svgShape"/><path fill="#0cc9ba" d="M63.342 31.166c1.512.873 2.903 2.274 4.006 3.91-2.349 1.365-4.699 2.731-7.048 4.096-1.103-1.637-2.494-3.038-4.006-3.91-1.228-.709-2.378-.979-3.361-.863 2.349-1.365 4.699-2.731 7.048-4.096C60.964 30.187 62.114 30.458 63.342 31.166zM60.121 39.299l7.048-4.096c.256.148.511.4.715.725.017.027.033.054.049.082.016.028.031.056.046.084.376.705.358 1.443-.051 1.677l-7.048 4.096c.41-.234.427-.972.051-1.677-.015-.028-.03-.056-.047-.084-.016-.028-.033-.055-.049-.082C60.632 39.698 60.377 39.446 60.121 39.299z" class="colorc90c2d svgShape"/><path fill="#0cc9ba" d="M53.223,35.683c-0.212-0.367-0.489-0.649-0.766-0.809c-0.256-0.148-0.512-0.191-0.716-0.101
					c1.177-0.643,2.785-0.532,4.553,0.489c1.768,1.021,3.372,2.764,4.541,4.762c-0.203-0.326-0.458-0.577-0.714-0.725
					c-0.277-0.16-0.556-0.198-0.768-0.077l-0.866,0.494c-0.644-0.812-1.396-1.499-2.199-1.962c-0.803-0.464-1.556-0.646-2.203-0.58
					L53.223,35.683z" class="colorc90c2d svgShape"/><path fill="#0cc9ba" d="M60.121,39.299c0.256,0.148,0.511,0.4,0.714,0.725c0.017,0.027,0.033,0.054,0.049,0.082
					c0.016,0.028,0.032,0.056,0.047,0.084c0.376,0.705,0.358,1.443-0.051,1.677l-0.866,0.494l-2.208,1.258l-1.537,0.876
					l-2.208,1.259l-0.866,0.493c-0.211,0.12-0.49,0.085-0.767-0.075c-0.258-0.149-0.515-0.405-0.718-0.731
					c-0.016-0.026-0.032-0.051-0.047-0.078c-0.015-0.027-0.03-0.053-0.044-0.08c-0.378-0.709-0.361-1.447,0.049-1.681l0.866-0.494
					l2.208-1.258l1.537-0.876l2.208-1.259l0.866-0.494C59.565,39.1,59.843,39.138,60.121,39.299z" class="colorc90c2d svgShape"/><path fill="#0cc9ba" d="M60.957 41.812l-.944.549.866-.494 0 0C60.908 41.851 60.933 41.832 60.957 41.812zM67.979 36.094c1.146 2.012 1.85 4.267 1.844 6.299l-7.048 4.096c.006-2.032-.699-4.287-1.844-6.299 2.075-1.206 4.15-2.411 6.225-3.618C67.403 36.429 67.732 36.238 67.979 36.094z" class="colorc90c2d svgShape"/><polygon fill="#cdcdcd" points="67.146 36.538 74.194 32.442 74.12 58.593 67.072 62.689" class="colorcdcdcd svgShape"/><polygon fill="#00cbba" points="69.317 36.542 76.365 32.446 76.284 61.092 69.236 65.187" class="color0083cb svgShape"/><path fill="#00cbba" d="M75.646,61.862c-2.349,1.365-4.699,2.731-7.048,4.096c-0.139-0.009-0.291-0.06-0.449-0.151
					l7.048-4.096C75.355,61.801,75.507,61.852,75.646,61.862z" class="color0083cb svgShape"/><path fill="#00cbba" d="M75.646,61.862c0.118,0.008,0.227-0.014,0.322-0.067l-7.048,4.096
					c-0.095,0.053-0.204,0.075-0.322,0.067c1.273-0.74,2.545-1.479,3.818-2.219c0.538-0.313,1.077-0.626,1.615-0.939
					c0.063-0.037,0.148-0.086,0.212-0.123c0.063-0.037,0.148-0.086,0.211-0.122c0.063-0.036,0.146-0.085,0.209-0.121
					c0.202-0.117,0.404-0.235,0.606-0.352C75.382,62.015,75.519,61.891,75.646,61.862z" class="color0083cb svgShape"/><polygon fill="#00cbba" points="69.236 65.187 76.284 61.092 76.202 89.737 69.155 93.833" class="color0083cb svgShape"/><path fill="#00cbba" d="M69.236,65.187l7.048-4.096c-0.001,0.334-0.11,0.583-0.315,0.703l-7.048,4.096
					C69.125,65.77,69.235,65.521,69.236,65.187z" class="color0083cb svgShape"/><path fill="#00cbba" d="M68.92,65.891c-0.208,0.115-0.48,0.083-0.77-0.085l-1.085-0.627L66.99,91.334L25.806,67.556
					l0.074-26.154l-1.085-0.627c-0.291-0.168-0.562-0.449-0.768-0.804c-0.204-0.356-0.311-0.731-0.31-1.065l-0.081,28.645
					c-0.002,0.686,0.482,1.524,1.079,1.868l43.355,25.031c0.597,0.345,1.084,0.067,1.086-0.619l0.081-28.645
					C69.235,65.521,69.125,65.77,68.92,65.891z" class="color0083cb svgShape"/><path fill="#7cc9c3" d="M56.278,40.974l1.407-0.802l0.802-0.457c-0.644-0.812-1.396-1.499-2.199-1.962
					c-0.803-0.464-1.556-0.646-2.203-0.58L56.278,40.974z" class="colorc97e7c svgShape"/><polygon fill="#cdcdcd" points="50.894 25.906 57.942 21.81 60.11 23.061 53.062 27.157" class="colorcdcdcd svgShape"/><path fill="#00cbba" d="M49.043,23.962l7.048-4.096c0.197-0.114,0.469-0.099,0.769,0.074
					c0.597,0.345,1.084,1.188,1.082,1.87c-0.001,0.341-0.122,0.581-0.318,0.695L50.576,26.6c0.195-0.113,0.317-0.354,0.318-0.695
					c0.002-0.682-0.485-1.526-1.082-1.87C49.512,23.862,49.24,23.847,49.043,23.962z" class="color0083cb svgShape"/><path fill="#0cc9ba" d="M67.377,35.12c-2.349,1.365-4.699,2.731-7.048,4.096c-0.01-0.014-0.019-0.029-0.029-0.043
					c2.349-1.365,4.699-2.731,7.048-4.096C67.357,35.091,67.367,35.105,67.377,35.12z" class="colorc90c2d svgShape"/><path fill="#0cc9ba" d="M67.377,35.12c0.176,0.264,0.346,0.534,0.506,0.809l-7.048,4.096
					c-0.161-0.275-0.33-0.545-0.506-0.808C62.678,37.85,65.027,36.485,67.377,35.12z" class="colorc90c2d svgShape"/><path fill="#cdcdcd" d="M61.177,24.927c0.004,0.002,0.007,0.004,0.011,0.006l-7.048,4.096
					c-0.004-0.002-0.007-0.004-0.011-0.006C56.479,27.657,58.828,26.292,61.177,24.927z" class="colorcdcdcd svgShape"/><path fill="#cdcdcd" d="M61.177,24.927c-2.349,1.365-4.699,2.73-7.048,4.096c-0.592-0.349-1.069-1.184-1.068-1.866
					l7.048-4.096C60.108,23.743,60.585,24.578,61.177,24.927z" class="colorcdcdcd svgShape"/><path fill="#00cbba" d="M53.378,26.465l7.048-4.096c0.197-0.114,0.469-0.099,0.769,0.074l-7.048,4.096
					C53.847,26.365,53.575,26.35,53.378,26.465z" class="color0083cb svgShape"/><path fill="#0cc9ba" d="M54.083,37.173l2.194,3.8L54.74,41.85l-2.194-3.8l-0.861-1.491
					c-0.407-0.705-0.42-1.461-0.042-1.731c0.015-0.011,0.031-0.021,0.047-0.03c0.016-0.009,0.033-0.017,0.05-0.025
					c0.204-0.091,0.46-0.047,0.716,0.101c0.277,0.16,0.555,0.442,0.766,0.809L54.083,37.173z" class="colorc90c2d svgShape"/><polygon fill="#cdcdcd" points="54.14 29.029 61.188 24.933 74.194 32.442 67.146 36.538" class="colorcdcdcd svgShape"/><path fill="#00cbba" d="M69.007,35.478c0.204,0.356,0.311,0.727,0.31,1.065l-0.081,28.645
					c-0.001,0.334-0.11,0.583-0.315,0.703c-0.208,0.115-0.48,0.083-0.77-0.085L24.795,40.775c-0.291-0.168-0.562-0.449-0.768-0.804
					c-0.204-0.356-0.311-0.731-0.31-1.065l0.081-28.645c0.001-0.337,0.12-0.577,0.315-0.703c0.208-0.104,0.489-0.078,0.77,0.085
					l20.594,11.89c0.597,0.345,1.084,1.188,1.082,1.87c-0.002,0.686-0.492,0.965-1.089,0.621L25.962,12.76l-0.074,26.151
					l41.184,23.778l0.074-26.151L54.15,29.035c-0.606-0.35-1.09-1.191-1.088-1.878c0.002-0.682,0.489-0.963,1.086-0.619
					l14.091,8.135C68.529,34.842,68.8,35.123,69.007,35.478z" class="color0083cb svgShape"/><path fill="#cdcdcd" d="M54.14,29.029c-0.597-0.345-1.081-1.186-1.079-1.872l-2.168-1.251
					c-0.002,0.686-0.492,0.965-1.089,0.621c-0.597-0.345-1.081-1.186-1.079-1.872l-2.168-1.252
					c-0.002,0.686-0.492,0.965-1.089,0.621L25.962,12.76l-0.074,26.151l41.184,23.778l0.074-26.151L54.14,29.029z M47.595,40.219
					c-0.006,2.062-1.469,2.892-3.26,1.858l-10.841-6.259c-1.791-1.034-3.245-3.549-3.239-5.611l0.014-4.981
					c0.006-2.062,1.47-2.896,3.26-1.862l10.841,6.259c1.791,1.034,3.245,3.553,3.239,5.614L47.595,40.219L47.595,40.219z
					 M60.899,50.642c-0.014,0.01-0.029,0.02-0.044,0.029c-0.015,0.009-0.031,0.016-0.047,0.024
					c-0.515,0.282-1.113,0.419-1.771,0.399c-0.051-0.001-0.102-0.004-0.153-0.008c-0.139-0.009-0.281-0.025-0.424-0.049
					c-0.049-0.008-0.099-0.017-0.149-0.026c-0.1-0.019-0.2-0.042-0.302-0.068c-0.051-0.013-0.102-0.027-0.153-0.041
					c-0.103-0.029-0.206-0.062-0.311-0.098c-0.104-0.036-0.21-0.075-0.316-0.118c-0.319-0.129-0.645-0.288-0.977-0.48
					c-0.442-0.255-0.874-0.556-1.292-0.894c-0.104-0.085-0.208-0.172-0.31-0.261c-0.051-0.045-0.102-0.09-0.153-0.136
					c-0.102-0.091-0.202-0.185-0.302-0.281c-0.199-0.191-0.393-0.391-0.583-0.598c-0.474-0.518-0.919-1.082-1.325-1.679
					c-0.041-0.06-0.081-0.12-0.121-0.18c-0.08-0.121-0.158-0.242-0.234-0.365c-0.076-0.123-0.151-0.247-0.224-0.372
					c-0.016-0.026-0.032-0.051-0.047-0.078c-0.015-0.027-0.03-0.053-0.044-0.08c-1.147-2.013-1.852-4.27-1.847-6.303
					c0.006-2.031,0.721-3.467,1.874-4.152c0,0,0,0,0,0c0.015-0.011,0.031-0.021,0.047-0.03c0.016-0.009,0.033-0.017,0.05-0.025h0
					c1.177-0.643,2.785-0.532,4.553,0.489c1.768,1.021,3.371,2.763,4.541,4.761c0,0,0,0,0,0.001
					c0.017,0.027,0.033,0.054,0.049,0.082c0.016,0.028,0.032,0.056,0.047,0.084c0,0,0,0.001,0,0.001
					c1.145,2.012,1.85,4.267,1.844,6.298C62.77,48.522,62.054,49.958,60.899,50.642L60.899,50.642z" class="colorcdcdcd svgShape"/><path fill="#0cc9ba" d="M42.188,33.354c0.597,0.345,1.081,1.182,1.079,1.872c-0.002,0.69-0.489,0.963-1.086,0.619
					l-6.506-3.756c-0.597-0.345-1.081-1.179-1.079-1.868c0.002-0.69,0.489-0.967,1.086-0.622L42.188,33.354z" class="colorc90c2d svgShape"/><path fill="#cdcdcd" d="M44.363,32.114c0.597,0.345,1.081,1.186,1.079,1.872l-0.014,4.981
					c-0.002,0.686-0.489,0.963-1.086,0.619l-10.841-6.259c-0.597-0.345-1.081-1.182-1.079-1.868l0.014-4.981
					c0.002-0.686,0.489-0.967,1.086-0.622L44.363,32.114z M42.181,35.844c0.597,0.345,1.084,0.071,1.086-0.619
					c0.002-0.689-0.482-1.527-1.079-1.872l-6.506-3.756c-0.597-0.345-1.084-0.067-1.086,0.622c-0.002,0.69,0.482,1.524,1.079,1.868
					L42.181,35.844L42.181,35.844z" class="colorcdcdcd svgShape"/><path fill="#0ccbbb" d="M44.37,29.624c1.791,1.034,3.245,3.553,3.239,5.614l-0.014,4.981
					c-0.006,2.062-1.469,2.892-3.26,1.858l-10.841-6.259c-1.791-1.034-3.245-3.549-3.239-5.611l0.014-4.981
					c0.006-2.062,1.47-2.896,3.26-1.862L44.37,29.624z M45.428,38.968l0.014-4.981c0.002-0.686-0.482-1.527-1.079-1.872
					l-10.841-6.259c-0.597-0.345-1.084-0.064-1.086,0.622l-0.014,4.981c-0.002,0.686,0.482,1.524,1.079,1.868l10.841,6.259
					C44.939,39.931,45.426,39.654,45.428,38.968L45.428,38.968z" class="colorcb0c2d svgShape"/><polygon fill="#00cbba" points="24.883 9.643 31.931 5.547 52.525 17.437 45.477 21.533" class="color0083cb svgShape"/><path fill="#00cbba" d="M49.805,26.526c-0.597-0.345-1.081-1.186-1.079-1.872c0.002-0.682,0.489-0.963,1.086-0.619
					c0.597,0.345,1.084,1.188,1.082,1.87C50.892,26.592,50.402,26.871,49.805,26.526z" class="color0083cb svgShape"/><path fill="#0cc9ba" d="M62.775,46.489c-0.006,2.033-0.722,3.469-1.876,4.153c0.381-0.271,0.368-1.026-0.04-1.732
					l-0.861-1.491c0.384-0.521,0.606-1.259,0.609-2.182c0.003-0.923-0.215-1.915-0.594-2.877l0.866-0.494
					c0.41-0.233,0.427-0.972,0.051-1.677C62.076,42.202,62.781,44.457,62.775,46.489z" class="colorc90c2d svgShape"/><polygon fill="#00cbba" points="54.147 26.538 61.195 22.443 75.286 30.578 68.238 34.674" class="color0083cb svgShape"/><path fill="#00cbba" d="M69.007 35.478l7.048-4.096c.204.356.311.727.31 1.065l-7.048 4.096C69.318 36.205 69.21 35.834 69.007 35.478zM68.238 34.674l7.048-4.096c.29.168.562.449.768.804l-7.048 4.096C68.8 35.123 68.529 34.842 68.238 34.674z" class="color0083cb svgShape"/><path fill="#41e1d4" d="M49.828,26.478c-0.594-0.343-1.081-1.186-1.079-1.872c0.002-0.682,0.492-0.962,1.086-0.619
				c0.597,0.345,1.084,1.188,1.082,1.87C50.915,26.544,50.425,26.823,49.828,26.478z" class="color0ab5fd svgShape"/><g class="color000000 svgShape"><path fill="#41e1d4" d="M41.016,71.287c0.6,0.346,1.084,1.184,1.082,1.874c-0.002,0.686-0.489,0.963-1.089,0.617
					l-10.838-6.257c-0.597-0.345-1.081-1.183-1.079-1.868c0.002-0.69,0.489-0.967,1.086-0.622L41.016,71.287z" class="color0ab5fd svgShape"/><path fill="#a6fff8" d="M36.702,61.312c1.794,1.036,3.248,3.555,3.242,5.616l-8.67-5.006
					c0.006-2.062,1.469-2.896,3.26-1.862L36.702,61.312z" class="colora6ffa6 svgShape"/><path fill="#02b6a7" d="M32.555,56.857c0.687,1.645,1.805,3.103,3.065,3.83c1.26,0.728,2.381,0.562,3.074-0.286
					c2.006,2.072,3.425,5.15,3.418,7.778c-0.002,0.686-0.489,0.963-1.089,0.617c-0.597-0.345-1.081-1.182-1.079-1.868
					c0.006-2.062-1.448-4.58-3.242-5.616l-2.167-1.251c-1.791-1.034-3.255-0.2-3.26,1.862c-0.002,0.686-0.489,0.963-1.089,0.617
					c-0.597-0.345-1.08-1.182-1.079-1.868C29.114,58.042,30.545,56.61,32.555,56.857z" class="color02b66e svgShape"/><path fill="#23f7e6" d="M35.648,50.724c2.091,1.207,3.786,4.424,3.778,7.171c-0.003,1.092-0.275,1.947-0.732,2.506
					c-0.694,0.847-1.814,1.013-3.074,0.286c-1.26-0.728-2.377-2.185-3.065-3.83c-0.453-1.085-0.72-2.251-0.717-3.342
					C31.847,50.767,33.557,49.517,35.648,50.724z M35.627,58.196c0.881,0.509,1.628-0.203,1.632-1.552
					c0.004-1.35-0.737-2.92-1.618-3.429c-0.881-0.509-1.631,0.201-1.635,1.551C34.002,56.116,34.746,57.688,35.627,58.196
					L35.627,58.196z" class="colorf7aa23 svgShape"/><path fill="#41e1d4" d="M54.022 78.796c.6.347 1.084 1.184 1.082 1.874-.002.686-.489.963-1.089.617l-6.503-3.754c-.597-.345-1.081-1.182-1.079-1.868.002-.69.489-.967 1.086-.622L54.022 78.796zM49.715 66.33c.6.346 1.084 1.184 1.082 1.874-.002.686-.489.963-1.089.617l-2.168-1.251c-.597-.345-1.081-1.182-1.079-1.868.002-.689.489-.967 1.086-.622L49.715 66.33z" class="color0ab5fd svgShape"/><path fill="#00d1c0" d="M63.824,68.237c0.6,0.346,1.081,1.182,1.079,1.872c-0.002,0.69-0.486,0.965-1.086,0.619
					l-16.258-9.387c-0.597-0.345-1.081-1.179-1.079-1.868c0.002-0.69,0.489-0.967,1.086-0.622L63.824,68.237z" class="color0056d1 svgShape"/><path fill="#fff" d="M25.903,41.354l41.184,23.778l-0.074,26.155L25.829,67.508L25.903,41.354z M41.023,68.796
					c0.6,0.347,1.087,0.069,1.089-0.617c0.007-2.628-1.411-5.705-3.418-7.778c0.457-0.559,0.729-1.414,0.732-2.506
					c0.008-2.747-1.687-5.964-3.778-7.171c-2.091-1.207-3.802,0.042-3.81,2.79c-0.003,1.092,0.263,2.258,0.717,3.342
					c-2.011-0.247-3.441,1.185-3.449,3.814c-0.002,0.686,0.482,1.524,1.079,1.868c0.6,0.347,1.087,0.069,1.089-0.617l8.67,5.006
					C39.943,67.614,40.427,68.452,41.023,68.796L41.023,68.796z M63.817,70.728c0.6,0.346,1.084,0.071,1.086-0.619
					c0.002-0.69-0.479-1.526-1.079-1.872L47.565,58.85c-0.597-0.345-1.084-0.067-1.086,0.622c-0.002,0.69,0.482,1.524,1.079,1.868
					L63.817,70.728L63.817,70.728z M41.009,73.778c0.6,0.346,1.087,0.069,1.089-0.617c0.002-0.69-0.482-1.527-1.082-1.874
					L30.178,65.03c-0.597-0.345-1.084-0.067-1.086,0.622c-0.002,0.686,0.482,1.524,1.079,1.868L41.009,73.778L41.009,73.778z
					 M54.015,81.287c0.6,0.347,1.087,0.069,1.089-0.617c0.002-0.69-0.482-1.527-1.082-1.874l-6.503-3.754
					c-0.597-0.345-1.084-0.067-1.086,0.622c-0.002,0.686,0.482,1.524,1.079,1.868L54.015,81.287L54.015,81.287z M54.029,76.305
					c0.6,0.347,1.087,0.069,1.089-0.617c0.002-0.69-0.482-1.527-1.082-1.874l-6.503-3.754c-0.597-0.345-1.084-0.067-1.086,0.622
					c-0.002,0.686,0.482,1.524,1.079,1.868L54.029,76.305L54.029,76.305z M63.799,76.956c0.6,0.346,1.084,0.067,1.086-0.619
					c0.002-0.69-0.479-1.526-1.079-1.872l-3.253-1.878c-0.597-0.345-1.084-0.067-1.086,0.622c-0.002,0.686,0.482,1.524,1.079,1.868
					L63.799,76.956L63.799,76.956z M63.771,86.919c0.6,0.347,1.084,0.067,1.086-0.619c0.002-0.69-0.479-1.526-1.079-1.872
					l-3.253-1.878c-0.597-0.345-1.084-0.067-1.086,0.622c-0.002,0.686,0.482,1.524,1.079,1.868L63.771,86.919L63.771,86.919z
					 M63.785,81.938c0.6,0.347,1.084,0.067,1.086-0.619c0.002-0.69-0.479-1.525-1.079-1.872l-3.253-1.878
					c-0.597-0.345-1.084-0.067-1.086,0.622c-0.002,0.686,0.482,1.524,1.079,1.868L63.785,81.938L63.785,81.938z M46.462,65.701
					c-0.002,0.686,0.482,1.524,1.079,1.868l2.168,1.251c0.6,0.347,1.087,0.069,1.089-0.617c0.002-0.69-0.482-1.527-1.082-1.874
					l-2.168-1.252C46.951,64.734,46.464,65.011,46.462,65.701L46.462,65.701z" class="colorffffff svgShape"/><path fill="#fff" d="M35.641,53.215c0.881,0.509,1.622,2.079,1.618,3.429c-0.004,1.35-0.751,2.061-1.632,1.552
					c-0.881-0.509-1.625-2.081-1.621-3.431C34.01,53.416,34.76,52.706,35.641,53.215z" class="colorffffff svgShape"/><path fill="#41e1d4" d="M54.036 73.814c.6.346 1.084 1.184 1.082 1.874-.002.686-.489.963-1.089.617l-6.503-3.754c-.597-.345-1.081-1.182-1.079-1.868.002-.69.489-.967 1.086-.622L54.036 73.814zM63.778 84.428c.6.346 1.081 1.182 1.079 1.872-.002.686-.486.965-1.086.619l-3.253-1.878c-.597-.345-1.081-1.182-1.079-1.868.002-.69.489-.967 1.086-.622L63.778 84.428zM63.792 79.447c.6.347 1.081 1.182 1.079 1.872-.002.686-.485.965-1.086.619l-3.253-1.878c-.597-.345-1.081-1.182-1.079-1.868.002-.69.489-.967 1.086-.622L63.792 79.447zM63.806 74.465c.6.346 1.081 1.182 1.079 1.872-.002.686-.486.965-1.086.619l-3.253-1.878c-.597-.345-1.081-1.182-1.079-1.868.002-.69.489-.967 1.086-.622L63.806 74.465z" class="color0ab5fd svgShape"/><path fill="#3efded" d="M44.393,29.576c1.791,1.034,3.245,3.553,3.239,5.614l-0.014,4.981
					c-0.006,2.062-1.469,2.892-3.26,1.858L33.52,35.772c-1.794-1.036-3.248-3.551-3.242-5.612l0.014-4.981
					c0.006-2.062,1.47-2.896,3.264-1.86L44.393,29.576z M45.451,38.92l0.014-4.981c0.002-0.686-0.482-1.527-1.079-1.872
					l-10.838-6.257c-0.597-0.345-1.087-0.065-1.089,0.621l-0.014,4.981c-0.002,0.686,0.485,1.525,1.082,1.87l10.838,6.257
					C44.962,39.883,45.449,39.606,45.451,38.92L45.451,38.92z" class="colorfd3e5f svgShape"/><path fill="#fff" d="M44.386,32.066c0.597,0.345,1.081,1.186,1.079,1.872l-0.014,4.981
					c-0.002,0.686-0.489,0.963-1.086,0.619l-10.838-6.257c-0.597-0.345-1.084-1.184-1.082-1.87l0.014-4.981
					c0.002-0.686,0.492-0.965,1.089-0.621L44.386,32.066z M42.204,35.796c0.597,0.345,1.084,0.071,1.086-0.619
					c0.002-0.69-0.482-1.527-1.079-1.872l-6.503-3.754c-0.6-0.347-1.087-0.069-1.089,0.621c-0.002,0.69,0.482,1.524,1.082,1.87
					L42.204,35.796L42.204,35.796z" class="colorffffff svgShape"/><path fill="#aefbf5" d="M54.082 45.706l2.209-1.258 2.193 3.799c-.647.066-1.4-.116-2.203-.58S54.727 46.518 54.082 45.706zM52.569 38.001l2.194 3.8-2.208 1.258c-.38-.962-.597-1.954-.594-2.877C51.963 39.261 52.185 38.523 52.569 38.001z" class="colorfbb0ae svgShape"/><path fill="#3efbec" d="M59.345,49.738c0.213,0.366,0.491,0.651,0.768,0.811c0.251,0.145,0.504,0.187,0.71,0.103
					c-1.176,0.64-2.782,0.527-4.549-0.493c-1.769-1.021-3.374-2.766-4.544-4.766c0.204,0.326,0.461,0.583,0.718,0.731
					c0.278,0.16,0.556,0.196,0.767,0.075l0.866-0.493c0.644,0.812,1.396,1.498,2.199,1.962s1.556,0.646,2.203,0.58L59.345,49.738z" class="colorfb3e5f svgShape"/><path fill="#41e1d4" d="M68.943,65.843c0.205-0.121,0.314-0.37,0.315-0.703l-0.081,28.645
					c-0.002,0.686-0.486,0.965-1.086,0.619L24.74,69.374c-0.6-0.346-1.084-1.184-1.082-1.87l0.081-28.645
					c-0.001,0.334,0.107,0.708,0.313,1.067c0.204,0.353,0.475,0.634,0.768,0.804l1.082,0.625l-0.074,26.154l41.184,23.778
					l0.074-26.155l1.085,0.627C68.464,65.926,68.735,65.958,68.943,65.843z" class="color0ab5fd svgShape"/><path fill="#3efbec" d="M52.555,43.06l-0.866,0.494c-0.41,0.234-0.427,0.971-0.049,1.681
					c-1.147-2.013-1.852-4.27-1.847-6.303c0.006-2.031,0.721-3.467,1.874-4.152c-0.378,0.269-0.365,1.026,0.042,1.731l0.861,1.491
					c-0.384,0.521-0.606,1.259-0.609,2.182C51.958,41.106,52.175,42.098,52.555,43.06z" class="colorfb3e5f svgShape"/><path fill="#3efbec" d="M54.107,37.125l2.195,3.8l-1.538,0.876l-2.194-3.8l-0.861-1.491
					c-0.407-0.705-0.42-1.461-0.042-1.731c0.015-0.011,0.031-0.021,0.047-0.03c0.015-0.009,0.031-0.016,0.048-0.024
					c0.206-0.091,0.464-0.048,0.721,0.101c0.277,0.16,0.554,0.442,0.764,0.808L54.107,37.125z" class="colorfb3e5f svgShape"/><path fill="#aefbf5" d="M60.037 42.315c.379.961.596 1.952.593 2.874-.003.922-.224 1.66-.608 2.181l-2.193-3.798L60.037 42.315zM58.509 39.667l-2.208 1.258-2.195-3.8c.647-.066 1.4.116 2.203.58C57.113 38.169 57.865 38.856 58.509 39.667z" class="colorfbb0ae svgShape"/><path fill="#3efbec" d="M53.246,35.635c-0.21-0.366-0.486-0.647-0.764-0.808c-0.257-0.149-0.515-0.192-0.721-0.101
					c1.177-0.645,2.786-0.534,4.556,0.488c1.764,1.018,3.362,2.753,4.531,4.743c-0.202-0.316-0.453-0.561-0.704-0.706
					c-0.278-0.16-0.556-0.199-0.769-0.077l-0.866,0.494c-0.644-0.812-1.396-1.499-2.199-1.962c-0.803-0.464-1.556-0.646-2.203-0.58
					L53.246,35.635z" class="colorfb3e5f svgShape"/><path fill="#3efbec" d="M60.144,39.251c0.251,0.145,0.501,0.39,0.704,0.706c0.021,0.034,0.043,0.068,0.063,0.103
					c0.021,0.036,0.04,0.071,0.058,0.107c0.36,0.696,0.339,1.421-0.063,1.654l-0.868,0.494l-2.208,1.257l-1.539,0.876l-2.209,1.258
					l-0.866,0.493c-0.211,0.12-0.49,0.085-0.767-0.075c-0.257-0.149-0.515-0.405-0.718-0.731c-0.016-0.026-0.032-0.052-0.047-0.078
					c-0.015-0.027-0.03-0.053-0.044-0.08c-0.378-0.709-0.361-1.447,0.049-1.681l0.866-0.494l2.208-1.258l1.538-0.876l2.208-1.258
					l0.866-0.494C59.588,39.052,59.866,39.09,60.144,39.251z" class="colorfb3e5f svgShape"/><path fill="#3efbec" d="M62.798,46.441c-0.006,2.025-0.716,3.459-1.862,4.146c0.366-0.28,0.35-1.026-0.05-1.723
					l-0.863-1.494c0.383-0.521,0.605-1.259,0.608-2.181c0.003-0.922-0.214-1.913-0.593-2.874l0.868-0.494
					c0.402-0.233,0.424-0.958,0.063-1.654C62.106,42.173,62.804,44.417,62.798,46.441z" class="colorfb3e5f svgShape"/><path fill="#41e1d4" d="M69.03,35.43c0.204,0.356,0.311,0.727,0.31,1.065L69.259,65.14
					c-0.001,0.334-0.11,0.583-0.315,0.703c-0.208,0.115-0.48,0.083-0.77-0.085L24.821,40.729c-0.294-0.169-0.565-0.451-0.768-0.804
					c-0.207-0.358-0.314-0.733-0.313-1.067l0.081-28.645c0.001-0.337,0.12-0.577,0.319-0.701c0.205-0.106,0.486-0.079,0.77,0.085
					L45.5,21.485c0.597,0.345,1.084,1.188,1.082,1.87c-0.002,0.686-0.492,0.965-1.089,0.621L25.985,12.712L25.91,38.863
					l41.184,23.778l0.074-26.151l-12.993-7.501c-0.607-0.35-1.093-1.193-1.091-1.879c0.002-0.682,0.492-0.962,1.086-0.619
					l14.091,8.135C68.552,34.794,68.823,35.075,69.03,35.43z" class="color0ab5fd svgShape"/></g><path fill="#3efbec" d="M42.211 33.306c.597.345 1.081 1.182 1.079 1.872-.002.69-.489.963-1.086.619l-6.503-3.754c-.6-.347-1.084-1.181-1.082-1.87.002-.69.489-.967 1.089-.621L42.211 33.306zM60.886 48.864c.401.697.417 1.444.05 1.723-.018.013-.036.026-.056.037-.019.01-.038.019-.058.027-.206.084-.459.042-.71-.103-.278-.16-.555-.445-.768-.811l-.861-1.49-2.193-3.799 1.539-.876 2.193 3.798L60.886 48.864z" class="colorfb3e5f svgShape"/><path fill="#fff" d="M54.163,28.981l13.006,7.509l-0.074,26.151L25.91,38.863l0.074-26.151l19.508,11.263
				c0.597,0.345,1.087,0.065,1.089-0.621l2.168,1.251c-0.002,0.686,0.485,1.529,1.079,1.872c0.597,0.345,1.087,0.065,1.089-0.621
				l2.168,1.252C53.083,27.795,53.569,28.639,54.163,28.981z M47.618,40.171l0.014-4.981c0.006-2.062-1.448-4.58-3.239-5.614
				l-10.838-6.257c-1.794-1.036-3.258-0.202-3.264,1.86l-0.014,4.981c-0.006,2.062,1.448,4.576,3.242,5.612l10.838,6.257
				C46.149,43.063,47.612,42.233,47.618,40.171L47.618,40.171z M60.936,50.587c1.146-0.688,1.856-2.121,1.862-4.146
				c0.006-2.023-0.692-4.268-1.829-6.274c-0.018-0.036-0.038-0.071-0.058-0.107c-0.02-0.035-0.042-0.069-0.063-0.103
				c-1.168-1.99-2.767-3.724-4.531-4.743c-1.769-1.021-3.378-1.132-4.556-0.488c-0.016,0.007-0.032,0.015-0.048,0.024
				c-0.016,0.009-0.032,0.019-0.047,0.03c-1.153,0.685-1.868,2.12-1.874,4.152c-0.006,2.033,0.7,4.289,1.847,6.303
				c0.014,0.027,0.029,0.053,0.044,0.08c0.015,0.026,0.031,0.052,0.047,0.078c1.17,2,2.775,3.744,4.544,4.766
				c1.767,1.02,3.373,1.133,4.549,0.493c0.02-0.008,0.039-0.017,0.058-0.027C60.9,50.613,60.918,50.6,60.936,50.587L60.936,50.587z" class="colorffffff svgShape"/></svg>