<svg xmlns="http://www.w3.org/2000/svg" enable-background="new 0 0 53 53" viewBox="0 0 53 53"><path fill="#41e1d4" d="M34.5,8.2l5.9,3.4c-2.8-1.6-6.7-1.4-11,1.1l-5.9-3.4C27.8,6.8,31.7,6.5,34.5,8.2z" class="colora0a8aa svgShape"/><path fill="#8d9998" d="M18.5,49.5L12.5,46C9.8,44.4,8,40.9,8,36.1c0-9.8,6.9-21.8,15.5-26.8l5.9,3.4
								C20.8,17.7,13.9,29.7,14,39.5C14,44.4,15.7,47.8,18.5,49.5z" class="color8d9799 svgShape"/><path fill="#8d9998" d="M29.4,12.7l-5.9-3.4C17.3,12.8,12,20,9.5,27.4l5.9,3.4C18,23.4,23.3,16.3,29.4,12.7z" class="color8d9799 svgShape"/><path fill="#7e8c8b" d="M9.5,27.4c-1,2.9-1.5,5.9-1.5,8.6c0,4.9,1.7,8.3,4.5,10l5.9,3.4c-2.8-1.6-4.5-5.1-4.5-10
								c0-2.8,0.5-5.7,1.5-8.6L9.5,27.4z" class="color7e8a8c svgShape"/><path fill="#41e1d4" d="M18.5,49.5L12.5,46C9.8,44.4,8,40.9,8,36.1l5.9,3.4C14,44.4,15.7,47.8,18.5,49.5z" class="colora0a8aa svgShape"/><path fill="#6d7a79" d="M29.4,12.7C38,7.8,45,11.7,45,21.6c0,9.8-6.9,21.8-15.5,26.8S14,49.3,14,39.5
								C13.9,29.7,20.8,17.7,29.4,12.7z" class="color6d797a svgShape"/><path fill="#fff" d="M37.8,14c2.5,1.3,4.1,4.3,4.1,8.6c0,8.4-5.9,18.6-13.2,22.8c-3.2,1.8-6.1,2.2-8.4,1.4
						c2.4,1.2,5.6,1,9.1-1.1c7.3-4.2,13.2-14.4,13.2-22.8C42.7,18.2,40.8,15,37.8,14z" class="colorffffff svgShape"/><path fill="#e6e9e9" d="M42,22.6c0,0.5,0,1-0.1,1.5c-0.6,8.1-6.3,17.4-13.1,21.3c-3.2,1.8-6.1,2.2-8.4,1.4
						c-2.5-1.3-4.1-4.3-4.1-8.6c0-8.2,5.7-18.3,12.8-22.6c0.1-0.1,0.2-0.1,0.3-0.2c1.7-1,3.4-1.6,4.9-1.7c0,0,0,0,0.1,0
						c0.1,0,0.2,0,0.3,0c0,0,0,0,0,0c0.7-0.1,1.3,0,1.9,0.1c0,0,0.1,0,0.1,0c0.4,0.1,0.8,0.2,1.2,0.3C40.4,15.3,41.9,18.3,42,22.6z" class="colore9e8e6 svgShape"/><path fill="#51fff1" d="M42,22.6c0,0.5,0,1-0.1,1.5l-12.8,7.4l0-15.9c0.1-0.1,0.2-0.1,0.3-0.2c1.7-1,3.4-1.6,4.9-1.7
						c0,0,0,0,0.1,0c0.1,0,0.2,0,0.3,0c0,0,0,0,0,0c0.7,0,1.3,0,1.9,0.1c0,0,0.1,0,0.1,0c0.4,0.1,0.8,0.2,1.2,0.3
						C40.4,15.3,41.9,18.3,42,22.6z" class="colorffd651 svgShape"/><g class="color000000 svgShape"><path fill="#4addd1" d="M29,32.6l-0.6-0.3c-0.3-0.2-0.4-0.5-0.4-1c0-1,1.4-9.4,1.5-9.8l0.6,0.3c-0.1,0.4-1.5,8.8-1.5,9.8
								C28.6,32.1,28.7,32.4,29,32.6z" class="colordd4a4a svgShape"/><path fill="#48ccc1" d="M28,31.2c0,0.2,0,0.3,0.1,0.5l0.6,0.3c0-0.1-0.1-0.3-0.1-0.5c0-0.3,0.1-1.1,0.3-2.2l-0.6-0.3
								C28.1,30.1,28,31,28,31.2z" class="colorcc4848 svgShape"/><path fill="#4addd1" d="M28.3 29.1l.6.3c.1-.8.3-1.7.4-2.6l-.6-.3C28.5 27.4 28.4 28.3 28.3 29.1zM28.4 32.2l.6.3c-.2-.1-.3-.3-.4-.5l-.6-.3C28.1 32 28.3 32.1 28.4 32.2z" class="colordd4a4a svgShape"/><polygon fill="#4addd1" points="30.1 21.8 29.8 21.6 30.1 21.8" class="colordd4a4a svgShape"/><path fill="#48ccc1" d="M29.1,24c-0.1,0.8-0.3,1.7-0.4,2.5l0.6,0.3c0.1-0.9,0.3-1.8,0.4-2.5L29.1,24z" class="colorcc4848 svgShape"/><path fill="#4addd1" d="M30.1,21.8l-0.3-0.2l-0.3-0.2c0,0.1-0.2,1.2-0.4,2.5l0.6,0.3C29.9,22.9,30,21.9,30.1,21.8z" class="colordd4a4a svgShape"/><path fill="#5af2e6" d="M30.1,21.8c0.1,0.4,1.5,7.1,1.5,8.1c0,1-0.7,2.1-1.5,2.6c-0.8,0.5-1.5,0.1-1.5-0.9
								C28.6,30.6,30,22.2,30.1,21.8z" class="colorf25a5a svgShape"/></g><g class="color000000 svgShape"><path fill="#4a4a4a" d="M29.1 16.6c.2-.1.4 0 .4.2l0 2.3c0 .3-.2.6-.4.7-.2.1-.4 0-.4-.2l0-2.3C28.6 17 28.8 16.7 29.1 16.6zM29.1 40.9c.2-.1.4 0 .4.2l0 2.3c0 .3-.2.6-.4.7-.2.1-.4 0-.4-.2l0-2.3C28.7 41.4 28.9 41.1 29.1 40.9zM19.5 35.4c.2-.1.4 0 .4.2 0 .3-.2.6-.4.7l-2 1.1c-.2.1-.4 0-.4-.2s.2-.6.4-.7L19.5 35.4zM40.7 23.2c.2-.1.4 0 .4.2s-.2.6-.4.7l-2 1.1c-.2.1-.4 0-.4-.2 0-.3.2-.6.4-.7L40.7 23.2zM20.9 25.2c.1-.1.2-.1.3 0l1.4.8c.2.1.2.4 0 .7-.1.2-.4.5-.6.3l-1.4-.8c-.2-.1-.2-.4 0-.7C20.7 25.4 20.8 25.3 20.9 25.2zM35.9 33.8c.1-.1.2-.1.3 0l1.4.8c.2.1.2.4 0 .7-.1.2-.4.5-.6.3l-1.4-.8c-.2-.1-.2-.4 0-.7C35.7 33.9 35.8 33.8 35.9 33.8zM22.3 41.6c.1-.1.2-.1.3 0 .2.1.2.4 0 .7l-1.4 2.4c-.1.2-.4.5-.6.3-.2-.1-.2-.4 0-.7l1.4-2.4C22.1 41.8 22.2 41.7 22.3 41.6zM37.3 15.7c.1-.1.2-.1.3 0 .2.1.2.4 0 .7l-1.4 2.4c-.1.2-.4.5-.6.3-.2-.1-.2-.4 0-.7L37 16C37.1 15.9 37.2 15.8 37.3 15.7z" class="color4a4a4a svgShape"/></g><g class="color000000 svgShape"><path fill="#d2d6d6" d="M29,8.4l0,2.5c0,0.5-0.3,0.9-0.9,1.3c-1.2,0.7-3.2,0.7-4.4,0c-0.6-0.4-0.9-0.8-0.9-1.3l0-2.5
							c0,0.5,0.3,0.9,0.9,1.3c1.2,0.7,3.2,0.7,4.4,0C28.7,9.3,29,8.9,29,8.4z" class="colord6d4d2 svgShape"/><path fill="#c0c4c4" d="M28.1,9.7c-1.2,0.7-3.1,0.7-4.3,0.1v2.5c1.2,0.7,3.1,0.6,4.3-0.1c0.6-0.4,0.9-0.8,0.9-1.3l0-2.5
							C29,8.9,28.7,9.3,28.1,9.7z" class="colorc4c2c0 svgShape"/><path fill="#afb2b2" d="M28.1,9.7c-0.1,0.1-0.3,0.2-0.5,0.2v2.5c0.2-0.1,0.3-0.1,0.5-0.2c0.6-0.4,0.9-0.8,0.9-1.3l0-2.5
							C29,8.9,28.7,9.3,28.1,9.7z" class="colorb2b0af svgShape"/><ellipse cx="25.9" cy="8.4" fill="#e6e9e9" class="colore9e8e6 svgShape" rx="1.8" ry="3.1" transform="rotate(-89.86 25.893 8.418)"/></g><g class="color000000 svgShape"><path fill="#d2d6d6" d="M30.9,5.4l0,2.7c0,0.7-0.5,1.5-1.5,2.1c-2,1.1-5.2,1.1-7.1,0c-1-0.6-1.5-1.3-1.5-2.1l0-2.7
							c0,0.8,0.5,1.5,1.5,2.1c2,1.1,5.2,1.1,7.1,0C30.5,6.9,30.9,6.2,30.9,5.4z" class="colord6d4d2 svgShape"/><path fill="#c0c4c4" d="M29.5,7.5c-1.9,1.1-5,1.1-7,0.1v2.7c2,1,5.1,1,7-0.1c1-0.6,1.5-1.3,1.5-2.1l0-2.7
							C30.9,6.2,30.5,6.9,29.5,7.5z" class="colorc4c2c0 svgShape"/><path fill="#afb2b2" d="M29.5,7.5c-0.2,0.1-0.5,0.3-0.8,0.4v2.7c0.3-0.1,0.5-0.2,0.7-0.4c1-0.6,1.5-1.3,1.5-2.1l0-2.7
							C30.9,6.2,30.5,6.9,29.5,7.5z" class="colorb2b0af svgShape"/><ellipse cx="25.9" cy="5.4" fill="#e6e9e9" class="colore9e8e6 svgShape" rx="2.9" ry="5.1" transform="rotate(-89.86 25.894 5.427)"/></g><path fill="#fff" d="M20.6,23.7c-0.7,0.2-1.4,0.6-1.9,1.1c-0.5,0.5-0.9,1.1-1.1,1.9c-0.1,0.2-0.4,0.2-0.5,0c-0.5-1.4-1.6-2.5-3-3
			c-0.2-0.1-0.2-0.4,0-0.5c0.7-0.2,1.3-0.6,1.9-1.1c0.5-0.5,0.9-1.1,1.1-1.9c0.1-0.2,0.4-0.2,0.5,0c0.2,0.7,0.6,1.3,1.1,1.9
			c0.5,0.5,1.1,0.9,1.9,1.1C20.9,23.3,20.9,23.6,20.6,23.7z" class="colorffffff svgShape"/></svg>