<svg xmlns="http://www.w3.org/2000/svg" enable-background="new 0 0 100 100" viewBox="0 0 100 100"><path fill="#00cdbc" d="M22.58,56.271l7.048-4.096c-0.004,1.368,0.967,3.053,2.16,3.742l-7.048,4.096
				C23.546,59.324,22.576,57.639,22.58,56.271z" class="color0085cd svgShape"/><polygon fill="#00cdbc" points="22.594 51.289 29.642 47.194 29.628 52.175 22.58 56.271" class="color0085cd svgShape"/><path fill="#00cdbc" d="M20.748,48.089l7.048-4.096c-0.199,0.124-0.318,0.379-0.319,0.702l-7.048,4.096
				C20.431,48.468,20.55,48.213,20.748,48.089z" class="color0085cd svgShape"/><polygon fill="#00cdbc" points="21.518 48.174 28.566 44.078 29.649 44.703 22.601 48.799" class="color0085cd svgShape"/><polygon fill="#00cdbc" points="22.685 18.91 29.733 14.814 29.649 44.703 22.601 48.799" class="color0085cd svgShape"/><path fill="#00cdbc" d="M20.748,48.089l7.048-4.096c0.205-0.106,0.486-0.079,0.77,0.085l-7.048,4.096
				C21.234,48.01,20.953,47.983,20.748,48.089z" class="color0085cd svgShape"/><polygon fill="#00cdbc" points="40.738 76.734 47.786 72.638 47.239 74.817 40.191 78.913" class="color0085cd svgShape"/><polygon fill="#00cdbc" points="40.191 78.913 47.239 74.817 59.635 81.974 52.587 86.07" class="color0085cd svgShape"/><path fill="#00cdbc" d="M58.55,78.483l-7.048,4.096c-0.197,0.115-0.47,0.098-0.772-0.076l7.048-4.096
				C58.08,78.581,58.353,78.598,58.55,78.483z" class="color0085cd svgShape"/><path fill="#00cdbc" d="M58.55,78.483l-7.048,4.096c0.195-0.113,0.315-0.354,0.316-0.697l7.048-4.096
				C58.866,78.129,58.745,78.37,58.55,78.483z" class="color0085cd svgShape"/><polygon fill="#cdcdcd" points="40.738 76.734 47.786 72.638 59.1 79.17 52.052 83.266" class="colorcdcdcd svgShape"/><path fill="#00cdbc" d="M40.981 75.625l7.048-4.096c-.002.689.482 1.527 1.079 1.872l-7.048 4.096C41.463 77.152 40.979 76.314 40.981 75.625zM39.129 73.679l7.048-4.096c.199-.115.472-.096.77.076l-7.048 4.096C39.602 73.583 39.328 73.564 39.129 73.679z" class="color0085cd svgShape"/><polygon fill="#00cdbc" points="39.899 73.755 46.947 69.659 48.032 70.285 40.985 74.381" class="color0085cd svgShape"/><polygon fill="#00cdbc" points="40.985 74.381 48.032 70.285 48.029 71.529 40.981 75.625" class="color0085cd svgShape"/><polygon fill="#00cdbc" points="40.992 71.891 48.04 67.795 50.207 69.046 43.159 73.142" class="color0085cd svgShape"/><polygon fill="#00cdbc" points="43.159 73.142 50.207 69.046 50.2 71.537 43.152 75.633" class="color0085cd svgShape"/><polygon fill="#41e1d4" points="49.662 76.896 49.655 79.387 43.152 75.633 43.159 73.142" class="color63bbcd svgShape"/><polygon fill="#00cdbc" points="43.152 75.633 50.2 71.537 56.703 75.291 49.655 79.387" class="color0085cd svgShape"/><polygon fill="#cdcdcd" points="52.052 83.266 59.1 79.17 59.635 81.974 52.587 86.07" class="colorcdcdcd svgShape"/><polygon fill="#00cdbc" points="51.822 80.639 58.87 76.543 58.867 77.786 51.819 81.882" class="color0085cd svgShape"/><polygon fill="#41e1d4" points="43.159 73.142 50.207 69.046 56.71 72.8 49.662 76.896" class="color63bbcd svgShape"/><polygon fill="#41e1d4" points="49.662 76.896 56.71 72.8 56.703 75.291 49.655 79.387" class="color63bbcd svgShape"/><polygon fill="#00cdbc" points="51.822 80.639 58.87 76.543 59.953 77.168 52.905 81.263" class="color0085cd svgShape"/><polygon fill="#00cdbc" points="53.952 82.813 61 78.717 62.071 84.325 55.023 88.421" class="color0085cd svgShape"/><path fill="#00cdbc" d="M52.905,81.263l7.048-4.096c0.498,0.287,0.931,0.927,1.048,1.549l-7.048,4.096
				C53.836,82.19,53.403,81.551,52.905,81.263z" class="color0085cd svgShape"/><polygon fill="#00cdbc" points="49.662 76.896 56.71 72.8 58.877 74.052 51.829 78.148" class="color0085cd svgShape"/><polygon fill="#00cdbc" points="51.829 78.148 58.877 74.052 58.87 76.543 51.822 80.639" class="color0085cd svgShape"/><polygon fill="#00cdbc" points="24.74 60.013 31.788 55.917 67.239 76.385 60.191 80.48" class="color0085cd svgShape"/><path fill="#cdcdcd" d="M51.307,63.442c-0.002,0.69,0.482,1.527,1.082,1.874l-7.048,4.096
				c-0.6-0.347-1.084-1.184-1.082-1.874c0.001-0.34,0.121-0.58,0.316-0.693l7.048-4.096C51.428,62.862,51.308,63.102,51.307,63.442z
				" class="colorcdcdcd svgShape"/><polygon fill="#cdcdcd" points="45.341 69.412 52.389 65.316 54.556 66.568 47.508 70.663" class="colorcdcdcd svgShape"/><path fill="#00cdbc" d="M44.575,66.845l7.048-4.096c0.197-0.115,0.471-0.098,0.773,0.076l-7.048,4.096
				C45.046,66.747,44.772,66.73,44.575,66.845z" class="color0085cd svgShape"/><path fill="#cdcdcd" d="M54.556,66.568c0.3,0.173,0.572,0.189,0.769,0.075l-7.048,4.096
				c-0.197,0.114-0.469,0.098-0.769-0.075C49.623,69.435,52.442,67.797,54.556,66.568z" class="colorcdcdcd svgShape"/><polygon fill="#00cdbc" points="45.348 66.921 52.396 62.825 54.563 64.077 47.515 68.173" class="color0085cd svgShape"/><path fill="#00cdbc" d="M55.325 66.643l-7.048 4.096c.195-.113.316-.354.317-.697.002-.686-.482-1.524-1.079-1.868l7.048-4.096c.597.345 1.081 1.183 1.079 1.868C55.641 66.288 55.52 66.529 55.325 66.643zM68.004 78.953l-7.048 4.096c.195-.114.315-.356.316-.698.002-.683-.475-1.52-1.082-1.87l7.048-4.096c.606.35 1.084 1.188 1.082 1.87C68.32 78.597 68.2 78.839 68.004 78.953z" class="color0085cd svgShape"/><polygon fill="#cdcdcd" points="22.594 51.289 29.642 47.193 77.329 74.726 70.281 78.821" class="colorcdcdcd svgShape"/><polygon fill="#00cdbc" points="22.601 48.799 29.649 44.703 77.336 72.235 70.288 76.331" class="color0085cd svgShape"/><path fill="#cdcdcd" d="M24.779,46.312l7.048-4.096c-0.002,0.69,0.482,1.527,1.082,1.874l-7.048,4.096
				C25.261,47.839,24.777,47.002,24.779,46.312z" class="colorcdcdcd svgShape"/><polygon fill="#cdcdcd" points="24.789 42.578 31.837 38.482 31.827 42.216 24.779 46.312" class="colorcdcdcd svgShape"/><polygon fill="#00cdbc" points="26.957 43.829 34.005 39.734 33.998 42.224 26.95 46.32" class="color0085cd svgShape"/><path fill="#00cdbc" d="M61.783,85.342l-7.048,4.096c0.031-0.018,0.06-0.039,0.087-0.064
				c0.208-0.181,0.283-0.531,0.201-0.953l7.048-4.096c0.082,0.422,0.007,0.772-0.201,0.953
				C61.843,85.303,61.814,85.324,61.783,85.342z" class="color0085cd svgShape"/><path fill="#cdcdcd" d="M33.421,35.009c-0.974,0.566-1.578,1.767-1.583,3.473l-7.048,4.096
				c0.004-1.404,0.414-2.466,1.102-3.113c2.349-1.365,4.698-2.73,7.048-4.096c-2.349,1.365-4.698,2.73-7.048,4.096
				c0.148-0.139,0.309-0.259,0.481-0.36C28.487,37.876,31.306,36.238,33.421,35.009z" class="colorcdcdcd svgShape"/><path fill="#00cdbc" d="M27.907,41.744l7.048-4.096c-0.584,0.34-0.947,1.061-0.95,2.085l-7.048,4.096
				C26.96,42.805,27.323,42.084,27.907,41.744z" class="color0085cd svgShape"/><polygon fill="#cdcdcd" points="52.052 83.266 52.587 86.07 40.191 78.913 40.738 76.734" class="colorcdcdcd svgShape"/><path fill="#41e1d4" d="M27.907,41.744l7.048-4.096c0.592-0.344,1.411-0.296,2.314,0.225l-7.048,4.096
				C29.318,41.448,28.499,41.401,27.907,41.744z" class="color63bbcd svgShape"/><path fill="#00cdbc" d="M55.023 88.421c.082.422.007.772-.201.953-.205.187-.522.18-.854-.012l-15.173-8.76c-.335-.193-.651-.552-.854-.975-.203-.419-.276-.854-.195-1.182l1.1-4.355c.123-.484.555-.624 1.053-.336l1.085.627-.004 1.243c-.002.689.482 1.527 1.079 1.872l-1.322-.763-.547 2.179 12.396 7.157-.536-2.804-1.322-.763c.6.346 1.087.069 1.089-.62l.003-1.243 1.082.625c.498.288.931.927 1.048 1.549L55.023 88.421zM33.421 35.009c.629-.366 1.412-.466 2.286-.266l-7.048 4.096c-.875-.2-1.658-.1-2.286.265C28.487 37.876 31.306 36.238 33.421 35.009z" class="color0085cd svgShape"/><path fill="#00cdbc" d="M49.662,76.896l2.168,1.251l-0.007,2.491l-0.003,1.243c-0.002,0.689-0.489,0.967-1.089,0.62
				l-8.67-5.006c-0.597-0.345-1.081-1.183-1.079-1.872l0.004-1.243l0.007-2.491l2.168,1.251l-0.007,2.491l6.503,3.754L49.662,76.896
				z" class="color0085cd svgShape"/><polygon fill="#cdcdcd" points="25.861 48.186 32.909 44.09 45.914 51.599 38.866 55.695" class="colorcdcdcd svgShape"/><path fill="#cdcdcd" d="M46.683,51.674l-7.048,4.096c-0.197,0.114-0.469,0.098-0.769-0.075l7.048-4.096
				C46.214,51.772,46.486,51.788,46.683,51.674z" class="colorcdcdcd svgShape"/><path fill="#41e1d4" d="M34.556,44.472c1.791,1.034,3.245,3.553,3.239,5.614l-0.007,2.491L26.95,46.32l0.007-2.491
				c0.006-2.062,1.469-2.896,3.264-1.86L34.556,44.472z" class="color63bbcd svgShape"/><polygon fill="#00cdbc" points="26.95 46.32 33.998 42.224 44.836 48.481 37.788 52.577" class="color0085cd svgShape"/><polygon fill="#41e1d4" points="30.221 41.97 37.269 37.874 41.604 40.377 34.556 44.472" class="color63bbcd svgShape"/><path fill="#00cdbc" d="M35.707 34.744c.891 1.877 2.231 3.517 3.729 4.382l-7.048 4.096c-1.498-.865-2.838-2.505-3.729-4.382C30.774 37.611 33.593 35.972 35.707 34.744zM46.683 51.674l-7.048 4.096c.195-.113.316-.354.317-.697L47 50.977C46.999 51.32 46.878 51.561 46.683 51.674zM47.515 68.173c.597.345 1.081 1.182 1.079 1.868-.002.69-.489.967-1.086.622l-2.168-1.251c-.6-.347-1.084-1.184-1.082-1.874.002-.686.489-.964 1.089-.617L47.515 68.173z" class="color0085cd svgShape"/><polygon fill="#41e1d4" points="37.795 50.087 44.843 45.991 44.836 48.481 37.788 52.577" class="color63bbcd svgShape"/><path fill="#41e1d4" d="M34.556,44.472l7.048-4.096c1.791,1.034,3.245,3.552,3.239,5.614l-7.048,4.096
				C37.801,48.025,36.347,45.507,34.556,44.472z" class="color63bbcd svgShape"/><polygon fill="#00cdbc" points="39.963 51.338 47.011 47.242 47 50.977 39.952 55.072" class="color0085cd svgShape"/><path fill="#00cdbc" d="M39.436,39.125c1.26,0.727,2.411,0.778,3.28,0.273l-7.048,4.096
				c-0.869,0.505-2.02,0.454-3.28-0.273C34.503,41.992,37.322,40.354,39.436,39.125z" class="color0085cd svgShape"/><path fill="#1bcdbf" d="M41.186,36.763l-7.048,4.096c-0.472,0.275-1.08,0.253-1.743-0.129l7.048-4.096
				C40.106,37.017,40.714,37.038,41.186,36.763z" class="colorcd1b67 svgShape"/><path fill="#cdcdcd" d="M34.576,30.084c-0.004,1.522,0.422,3.166,1.131,4.66l-7.048,4.096
				c-0.71-1.494-1.135-3.138-1.131-4.66c0.005-1.717,0.556-2.958,1.442-3.576c2.349-1.365,4.699-2.73,7.048-4.096
				C35.132,27.126,34.581,28.367,34.576,30.084z" class="colorcdcdcd svgShape"/><path fill="#1bcdbf" d="M30.671,33.128l7.048-4.096c-0.593,0.345-0.972,1.156-0.975,2.303
				c-0.006,2.058,1.202,4.434,2.7,5.299l-7.048,4.096c-1.497-0.864-2.706-3.241-2.7-5.299
				C29.699,34.284,30.077,33.473,30.671,33.128z" class="colorcd1b67 svgShape"/><path fill="#cdcdcd" d="M36.19,26.398c-0.058,0.034-0.116,0.07-0.171,0.109c-2.349,1.365-4.699,2.731-7.048,4.096
				c0.056-0.039,0.113-0.075,0.171-0.109C31.256,29.265,34.075,27.627,36.19,26.398z" class="colorcdcdcd svgShape"/><path fill="#00cdbc" d="M43.175,39.055c2.225,2.06,3.843,5.379,3.835,8.188l-7.048,4.096
				c0.008-2.808-1.61-6.128-3.835-8.188C38.242,41.922,41.061,40.283,43.175,39.055z" class="color0085cd svgShape"/><path fill="#cdcdcd" d="M37.719,29.032c0.473-0.275,1.082-0.253,1.746,0.13l-7.048,4.096
				c-0.664-0.383-1.273-0.405-1.746-0.13C32.785,31.899,35.604,30.261,37.719,29.032z" class="colorcdcdcd svgShape"/><path fill="#00cdbc" d="M23.321,17.515l7.048-4.096c-0.393,0.228-0.634,0.715-0.636,1.395l-7.048,4.096
				C22.687,18.231,22.928,17.744,23.321,17.515z" class="color0085cd svgShape"/><path fill="#cdcdcd" d="M42.161 34.463c-.003 1.145-.382 1.956-.975 2.3l-7.048 4.096c.593-.345.972-1.155.975-2.3.006-2.062-1.202-4.438-2.696-5.301l7.048-4.096C40.958 30.025 42.167 32.402 42.161 34.463zM30.369 13.42c.322-.187.747-.201 1.226-.003-2.349 1.365-4.699 2.731-7.048 4.096-.479-.197-.904-.184-1.226.003C25.435 16.287 28.255 14.648 30.369 13.42zM51.342 50.989c-.006 2.054 1.451 4.582 3.242 5.616l-7.048 4.096c-1.791-1.034-3.248-3.562-3.242-5.616.003-1.02.366-1.74.95-2.079l7.048-4.096C51.708 49.249 51.345 49.969 51.342 50.989z" class="colorcdcdcd svgShape"/><path fill="#1bcdbf" d="M46.779 55.645l7.048-4.096c-.195.113-.316.352-.317.691-.002.686.485 1.529 1.082 1.874l-7.048 4.096c-.597-.345-1.084-1.188-1.082-1.874C46.463 55.998 46.584 55.758 46.779 55.645zM29.142 30.494l7.048-4.096c.869-.505 2.021-.455 3.282.273l-7.048 4.096C31.163 30.039 30.011 29.989 29.142 30.494z" class="colorcd1b67 svgShape"/><path fill="#cdcdcd" d="M31.595,13.416c0.243,0.1,0.457,0.092,0.618-0.001l-7.048,4.096
				c-0.161,0.094-0.374,0.101-0.618,0.001c0,0,0,0,0,0C26.896,16.147,29.246,14.781,31.595,13.416
				C31.595,13.416,31.595,13.416,31.595,13.416z" class="colorcdcdcd svgShape"/><polygon fill="#cdcdcd" points="47.537 60.701 54.585 56.605 58.92 59.108 51.872 63.203" class="colorcdcdcd svgShape"/><path fill="#87cdc7" d="M53.826,51.549c0.198-0.115,0.471-0.1,0.772,0.074l-7.048,4.096
				c-0.301-0.174-0.575-0.189-0.772-0.074C48.893,54.416,51.712,52.778,53.826,51.549z" class="colorcd878f svgShape"/><path fill="#00cdbc" d="M24.398,14.944c0.521,0.301,1.007,1.039,1.072,1.694c0.006,0.049,0.009,0.096,0.01,0.142
				c0.017,0.63-0.38,0.96-0.934,0.732c-1.063-0.438-1.858,0.162-1.862,1.398l-0.085,29.889l-1.082-0.625
				c-0.284-0.164-0.565-0.191-0.77-0.085c-0.199,0.124-0.318,0.379-0.319,0.701l0.088-31.132c0.007-2.469,1.615-3.66,3.73-2.788
				C24.298,14.89,24.348,14.915,24.398,14.944z" class="color0085cd svgShape"/><polygon fill="#cdcdcd" points="25.481 16.78 32.529 12.684 34.695 13.935 27.647 18.031" class="colorcdcdcd svgShape"/><path fill="#00cdbc" d="M32.529,12.684c-0.001-0.046-0.005-0.093-0.01-0.142l-7.048,4.096
				c0.006,0.049,0.009,0.096,0.01,0.142c0.001,0.021,0.001,0.042,0,0.062c0,0.007,0,0.013-0.001,0.019
				c0,0.014-0.001,0.027-0.002,0.041c0,0.008-0.001,0.015-0.002,0.023c-0.001,0.012-0.002,0.023-0.003,0.035
				c-0.001,0.008-0.002,0.016-0.003,0.024c-0.001,0.011-0.003,0.022-0.005,0.033c-0.001,0.007-0.003,0.015-0.004,0.023
				c-0.002,0.01-0.004,0.021-0.006,0.031c-0.002,0.007-0.003,0.015-0.005,0.022c-0.002,0.01-0.005,0.02-0.008,0.03
				c-0.002,0.007-0.004,0.014-0.006,0.02c-0.003,0.01-0.007,0.021-0.01,0.031c-0.002,0.006-0.004,0.011-0.006,0.017
				c-0.005,0.012-0.01,0.025-0.015,0.036c-0.001,0.003-0.002,0.006-0.004,0.009c-0.006,0.015-0.013,0.029-0.021,0.043
				c-0.002,0.004-0.005,0.008-0.007,0.012c-0.005,0.01-0.01,0.019-0.016,0.028c-0.003,0.005-0.006,0.01-0.01,0.015
				c-0.005,0.008-0.01,0.016-0.016,0.023c-0.004,0.005-0.007,0.01-0.011,0.015c-0.005,0.007-0.011,0.014-0.016,0.02
				c-0.004,0.005-0.008,0.009-0.012,0.014c-0.006,0.006-0.011,0.013-0.017,0.019c-0.004,0.004-0.009,0.009-0.013,0.013
				c-0.006,0.006-0.012,0.011-0.019,0.017c-0.004,0.004-0.009,0.008-0.013,0.011c-0.007,0.005-0.014,0.011-0.021,0.016
				c-0.005,0.003-0.009,0.007-0.013,0.01c-0.008,0.006-0.017,0.011-0.026,0.016c-0.003,0.002-0.006,0.004-0.009,0.006l7.048-4.096
				C32.418,13.295,32.538,13.037,32.529,12.684z" class="color0085cd svgShape"/><path fill="#1bcdbf" d="M42.716,39.398l-7.048,4.096c0.164-0.095,0.317-0.21,0.46-0.343
				c0.715-0.671,1.149-1.819,1.153-3.34c0.01-3.434-2.169-7.491-4.857-9.043l7.048-4.096c2.688,1.552,4.867,5.61,4.857,9.043
				c-0.004,1.521-0.438,2.669-1.153,3.34C43.033,39.188,42.88,39.303,42.716,39.398z" class="colorcd1b67 svgShape"/><polygon fill="#1bcdbf" points="47.544 58.21 54.592 54.114 58.927 56.617 51.879 60.713" class="colorcd1b67 svgShape"/><path fill="#1bcdbf" d="M45.244,53.005l7.048-4.096c0.592-0.344,1.412-0.298,2.313,0.223l-7.048,4.096
				C46.656,52.708,45.837,52.661,45.244,53.005z" class="colorcd1b67 svgShape"/><path fill="#cdcdcd" d="M58.92,59.108c0.899,0.519,1.716,0.565,2.308,0.221l-7.048,4.096
				c-0.592,0.344-1.409,0.298-2.308-0.221C53.986,61.975,56.805,60.336,58.92,59.108z" class="colorcdcdcd svgShape"/><path fill="#1bcdbf" d="M59.695,56.69l-7.048,4.096c-0.197,0.115-0.47,0.099-0.768-0.073l7.048-4.096
				C59.225,56.789,59.498,56.804,59.695,56.69z" class="colorcd1b67 svgShape"/><path fill="#cdcdcd" d="M51.363 43.516c-.002.69.482 1.527 1.082 1.874l-7.048 4.096c-.6-.346-1.084-1.184-1.082-1.874.001-.34.121-.58.316-.693l7.048-4.096C51.485 42.937 51.364 43.176 51.363 43.516zM35.777 15.809c.3.173.571.188.768.074l-7.048 4.096c-.197.114-.469.099-.768-.074C31.079 18.539 33.428 17.174 35.777 15.809c-2.35 1.365-4.699 2.731-7.048 4.096-.597-.345-1.084-1.188-1.082-1.874l7.048-4.096C34.693 14.621 35.18 15.464 35.777 15.809z" class="colorcdcdcd svgShape"/><polygon fill="#87cdc7" points="47.551 55.719 54.599 51.623 58.934 54.126 51.886 58.222" class="colorcd878f svgShape"/><path fill="#00cdbc" d="M44.631,46.919l7.048-4.096c0.197-0.115,0.471-0.098,0.773,0.076l-7.048,4.096
				C45.102,46.821,44.828,46.805,44.631,46.919z" class="color0085cd svgShape"/><path fill="#87cdc7" d="M59.695,56.69l-7.048,4.096c0.195-0.113,0.317-0.354,0.318-0.695
				c0.002-0.682-0.485-1.525-1.079-1.868l7.048-4.096c0.594,0.343,1.081,1.186,1.079,1.868C60.012,56.336,59.89,56.576,59.695,56.69
				z" class="colorcd878f svgShape"/><polygon fill="#cdcdcd" points="29.815 19.282 36.863 15.186 39.03 16.438 31.983 20.534" class="colorcdcdcd svgShape"/><path fill="#00cdbc" d="M36.545,15.883l-7.048,4.096c0.195-0.113,0.317-0.355,0.318-0.696
				c0.002-0.686-0.482-1.524-1.079-1.868l7.048-4.096c0.597,0.345,1.081,1.182,1.079,1.868
				C36.862,15.528,36.741,15.769,36.545,15.883z" class="color0085cd svgShape"/><polygon fill="#1bcdbf" points="47.558 53.228 54.606 49.132 58.941 51.635 51.893 55.731" class="colorcd1b67 svgShape"/><path fill="#1bcdbf" d="M61.228,59.328l-7.048,4.096c0.585-0.34,0.949-1.061,0.952-2.083
				c0.006-2.054-1.451-4.578-3.239-5.611l7.048-4.096c1.788,1.032,3.245,3.556,3.239,5.611
				C62.177,58.267,61.813,58.988,61.228,59.328z" class="colorcd1b67 svgShape"/><path fill="#1bcdbf" d="M51.893,55.731c1.788,1.032,3.245,3.556,3.239,5.611c-0.006,2.054-1.473,2.894-3.26,1.862
				l-4.335-2.503c-1.791-1.034-3.248-3.562-3.242-5.616s1.473-2.89,3.264-1.856L51.893,55.731z M51.879,60.713
				c0.594,0.343,1.084,0.064,1.086-0.622c0.002-0.682-0.485-1.525-1.079-1.868l-4.335-2.503c-0.597-0.345-1.087-0.065-1.089,0.617
				c-0.002,0.686,0.485,1.529,1.082,1.874L51.879,60.713L51.879,60.713z" class="colorcd1b67 svgShape"/><path fill="#cdcdcd" d="M58.249,60.512l7.048-4.096c-0.584,0.339-0.946,1.059-0.949,2.081
				c-0.006,2.062,1.448,4.58,3.242,5.616l-7.048,4.096c-1.794-1.036-3.248-3.554-3.242-5.616
				C57.303,61.571,57.665,60.851,58.249,60.512z" class="colorcdcdcd svgShape"/><path fill="#00cdbc" d="M59.783,63.152l7.048-4.096c-0.194,0.113-0.314,0.353-0.315,0.693
				c-0.002,0.69,0.482,1.527,1.082,1.874l-7.048,4.096c-0.6-0.346-1.084-1.184-1.082-1.874
				C59.468,63.504,59.589,63.265,59.783,63.152z" class="color0085cd svgShape"/><polygon fill="#cdcdcd" points="60.542 68.209 67.59 64.113 71.925 66.616 64.877 70.712" class="colorcdcdcd svgShape"/><path fill="#41e1d4" d="M66.831,59.056c0.197-0.115,0.471-0.098,0.773,0.076l-7.048,4.096
				c-0.303-0.175-0.576-0.191-0.773-0.076C61.897,61.923,64.716,60.285,66.831,59.056z" class="color63bbcd svgShape"/><path fill="#cdcdcd" d="M31.983,20.534l7.048-4.096c-0.002,0.686,0.485,1.529,1.082,1.874l-7.048,4.096
				C32.467,22.063,31.981,21.219,31.983,20.534z" class="colorcdcdcd svgShape"/><path fill="#00cdbc" d="M32.299,19.842l7.048-4.096c0.198-0.115,0.472-0.099,0.773,0.075l-7.048,4.096
				C32.77,19.743,32.496,19.727,32.299,19.842z" class="color0085cd svgShape"/><polygon fill="#cdcdcd" points="33.064 22.407 40.112 18.312 43.986 20.548 36.938 24.644" class="colorcdcdcd svgShape"/><path fill="#1bcdbf" d="M32.424,30.767c2.688,1.552,4.867,5.61,4.857,9.043c-0.004,1.521-0.438,2.669-1.153,3.34
				c-0.899,0.843-2.243,0.935-3.739,0.07c-1.498-0.865-2.838-2.505-3.729-4.382c-0.71-1.494-1.135-3.138-1.131-4.66
				C27.538,30.746,29.732,29.214,32.424,30.767z M32.395,40.73c1.494,0.863,2.712-0.113,2.718-2.171
				c0.006-2.062-1.202-4.438-2.696-5.301c-1.497-0.864-2.715,0.112-2.721,2.173C29.69,37.489,30.898,39.866,32.395,40.73
				L32.395,40.73z" class="colorcd1b67 svgShape"/><polygon fill="#cdcdcd" points="38.41 31.6 45.458 27.505 52.773 40.223 45.725 44.319" class="colorcdcdcd svgShape"/><path fill="#cdcdcd" d="M45.725,44.319l7.048-4.096c0.204,0.353,0.481,0.645,0.768,0.811
				c0.291,0.168,0.565,0.194,0.77,0.077l-7.048,4.096c-0.205,0.117-0.48,0.091-0.77-0.077
				C46.206,44.964,45.929,44.671,45.725,44.319z" class="colorcdcdcd svgShape"/><polygon fill="#1bcdbf" points="39.954 30.732 47.002 26.636 53.55 38.022 46.502 42.118" class="colorcd1b67 svgShape"/><path fill="#cdcdcd" d="M36.938,24.644l7.048-4.096c-0.442,1.868,0.048,4.48,1.472,6.957L38.41,31.6
				C36.986,29.124,36.496,26.511,36.938,24.644z" class="colorcdcdcd svgShape"/><path fill="#00cdbc" d="M37.984,22.753l7.048-4.096c-0.512,0.456-0.861,1.108-1.046,1.891l-7.048,4.096
				C37.123,23.861,37.472,23.209,37.984,22.753z" class="color0085cd svgShape"/><path fill="#1bcdbf" d="M39.97,25.072l7.048-4.096c-1.358,0.778-1.365,3.32-0.016,5.66l-7.048,4.096
				C38.605,28.391,38.612,25.849,39.97,25.072z" class="colorcd1b67 svgShape"/><polygon fill="#cdcdcd" points="44.854 27.892 51.902 23.796 52.815 25.381 45.767 29.477" class="colorcdcdcd svgShape"/><path fill="#cdcdcd" d="M49.463 21.215c.922.533 1.786 1.447 2.439 2.58l-7.048 4.096c-.652-1.134-1.516-2.048-2.439-2.58-.923-.533-1.792-.619-2.445-.24l0 0 3.524-2.048 3.524-2.048C47.671 20.596 48.541 20.683 49.463 21.215zM52.815 25.381c.204.353.487.634.77.797-2.349 1.365-4.699 2.73-7.048 4.096-.283-.163-.566-.444-.77-.797C47.882 28.248 50.701 26.61 52.815 25.381z" class="colorcdcdcd svgShape"/><path fill="#cdcdcd" d="M53.835,26.291c-2.349,1.365-4.699,2.731-7.048,4.096c-0.082-0.027-0.166-0.065-0.25-0.113
				c2.349-1.365,4.699-2.73,7.048-4.096C53.669,26.227,53.753,26.265,53.835,26.291z" class="colorcdcdcd svgShape"/><path fill="#cdcdcd" d="M53.835,26.291c0.194,0.063,0.376,0.061,0.519-0.022l-7.048,4.096
				c-0.143,0.083-0.325,0.085-0.519,0.022C49.136,29.022,51.485,27.656,53.835,26.291z" class="colorcdcdcd svgShape"/><polygon fill="#cdcdcd" points="47.264 45.207 54.312 41.111 61.675 36.868 54.627 40.963" class="colorcdcdcd svgShape"/><polygon fill="#1bcdbf" points="46.502 42.118 53.55 38.022 60.145 34.224 53.097 38.32" class="colorcd1b67 svgShape"/><polygon fill="#cdcdcd" points="47.306 30.365 54.354 26.269 55.273 25.742 48.225 29.838" class="colorcdcdcd svgShape"/><path fill="#cdcdcd" d="M48.225,29.838l7.048-4.096c0.656-0.378,1.523-0.293,2.449,0.242l-7.048,4.096
				C49.748,29.545,48.882,29.46,48.225,29.838z" class="colorcdcdcd svgShape"/><path fill="#cdcdcd" d="M50.674,30.079l7.048-4.096c0.923,0.533,1.79,1.449,2.439,2.58
				c1.349,2.341,1.342,4.883-0.016,5.66l-7.048,4.096c1.358-0.778,1.365-3.32,0.016-5.66C52.464,31.528,51.597,30.612,50.674,30.079
				z" class="colorcdcdcd svgShape"/><path fill="#1bcdbf" d="M56.136,35.728c0.43,2.371-0.073,4.41-1.509,5.235l-7.363,4.243
				c-0.205,0.117-0.48,0.091-0.77-0.077c-0.287-0.166-0.565-0.458-0.768-0.811L38.41,31.6c-1.424-2.477-1.914-5.089-1.472-6.957
				c0.185-0.783,0.534-1.435,1.046-1.891c0.139-0.124,0.29-0.233,0.452-0.327c1.067-0.615,2.483-0.474,3.986,0.395
				c1.504,0.868,2.916,2.359,3.972,4.2l0.15,0.259l0.151-0.086c1.066-0.615,2.479-0.475,3.986,0.395
				c1.504,0.868,2.916,2.359,3.972,4.2c0.162,0.281,0.312,0.564,0.45,0.848C55.612,33.682,55.956,34.734,56.136,35.728z
				 M53.097,38.32c1.358-0.778,1.365-3.32,0.016-5.66c-0.649-1.132-1.516-2.048-2.439-2.58c-0.926-0.534-1.792-0.619-2.449-0.242
				l-0.919,0.527c-0.203,0.118-0.486,0.072-0.769-0.091c-0.283-0.163-0.566-0.444-0.77-0.797l-0.913-1.585
				c-0.652-1.134-1.516-2.048-2.439-2.58c-0.923-0.533-1.792-0.619-2.445-0.24c-1.358,0.778-1.365,3.32-0.016,5.66l6.548,11.386
				L53.097,38.32L53.097,38.32z" class="colorcd1b67 svgShape"/><path fill="#00cdbc" d="M31.983,20.534c0.002-0.686,0.492-0.962,1.089-0.617l4.912,2.836
				c-0.512,0.456-0.861,1.108-1.046,1.891l-3.851-2.224l-0.022-0.013C32.467,22.063,31.981,21.219,31.983,20.534z" class="color0085cd svgShape"/><polygon fill="#00cdbc" points="60.549 65.719 67.597 61.623 71.932 64.126 64.884 68.221" class="color0085cd svgShape"/><path fill="#00cdbc" d="M58.249,60.512l7.048-4.096c0.592-0.344,1.411-0.296,2.314,0.225l-7.048,4.096
				C59.66,60.216,58.841,60.168,58.249,60.512z" class="color0085cd svgShape"/><polygon fill="#41e1d4" points="60.556 63.228 67.604 59.132 71.939 61.635 64.892 65.731" class="color63bbcd svgShape"/><polygon fill="#00cdbc" points="60.563 60.737 67.611 56.641 71.947 59.144 64.899 63.24" class="color0085cd svgShape"/><path fill="#cdcdcd" d="M74.225,66.846c-2.349,1.365-4.699,2.73-7.048,4.096c-0.59,0.337-1.404,0.287-2.299-0.23
				l7.048-4.096C72.821,67.133,73.634,67.183,74.225,66.846z" class="colorcdcdcd svgShape"/><path fill="#00cdbc" d="M72.701,64.201l-7.048,4.096c-0.197,0.114-0.469,0.098-0.769-0.075l7.048-4.096
				C72.232,64.299,72.505,64.315,72.701,64.201z" class="color0085cd svgShape"/><path fill="#41e1d4" d="M72.701,64.201l-7.048,4.096c0.195-0.113,0.316-0.354,0.317-0.697
				c0.002-0.686-0.482-1.524-1.079-1.868l7.048-4.096c0.597,0.345,1.081,1.182,1.079,1.868
				C73.017,63.846,72.896,64.087,72.701,64.201z" class="color63bbcd svgShape"/><path fill="#00cdbc" d="M74.236,66.84l-7.048,4.096c0.584-0.34,0.947-1.061,0.95-2.086
				c0.006-2.058-1.448-4.577-3.239-5.611l7.048-4.096c1.791,1.034,3.245,3.553,3.239,5.611C75.183,65.779,74.82,66.501,74.236,66.84
				z" class="color0085cd svgShape"/><path fill="#cdcdcd" d="M70.815,78.815c-0.195,0.113-0.316,0.355-0.317,0.697l-7.048,4.096
				c0.001-0.342,0.122-0.584,0.317-0.697C65.881,81.682,68.701,80.044,70.815,78.815z" class="colorcdcdcd svgShape"/><path fill="#00cdbc" d="M63.767,82.911l7.048-4.096c0.194-0.113,0.463-0.098,0.759,0.073l-7.048,4.096
				C64.23,82.812,63.961,82.798,63.767,82.911z" class="color0085cd svgShape"/><path fill="#00cdbc" d="M72.338,81.452l-7.048,4.096c0.195-0.113,0.317-0.354,0.317-0.694
				c0.002-0.682-0.485-1.526-1.082-1.87l7.048-4.096c0.597,0.345,1.084,1.188,1.082,1.87C72.655,81.099,72.534,81.339,72.338,81.452
				z" class="color0085cd svgShape"/><path fill="#cdcdcd" d="M68.078,85.3l7.048-4.096c-0.056,0.033-0.107,0.077-0.15,0.132
				c-0.122,0.161-0.175,0.396-0.158,0.67l-7.048,4.096c-0.017-0.274,0.036-0.508,0.158-0.67
				C67.971,85.377,68.022,85.332,68.078,85.3z" class="colorcdcdcd svgShape"/><path fill="#00cdbc" d="M68.078,85.3l7.048-4.096c0.143-0.083,0.323-0.093,0.525-0.04l-7.048,4.096
				C68.401,85.207,68.221,85.217,68.078,85.3z" class="color0085cd svgShape"/><path fill="#00cdbc" d="M76.684,81.091l-7.048,4.096c-0.276,0.161-0.63,0.193-1.033,0.073l7.048-4.096
				C76.054,81.284,76.408,81.252,76.684,81.091z" class="color0085cd svgShape"/><path fill="#cdcdcd" d="M77.314,79.707c-0.002,0.671-0.239,1.156-0.631,1.384l-7.048,4.096
				c0.392-0.228,0.629-0.713,0.631-1.384C72.381,82.574,75.2,80.936,77.314,79.707z" class="colorcdcdcd svgShape"/><path fill="#cdcdcd" d="M22.594 51.289l47.687 27.532-.014 4.981c-.003 1.145-.689 1.748-1.664 1.457-.281-.074-.521-.025-.675.172-.122.161-.175.396-.158.67l-2.162-1.248c.002-.682-.485-1.526-1.082-1.87-.594-.343-1.074-.058-1.076.624l-2.177-1.257c.002-.683-.475-1.52-1.082-1.87L24.74 60.013c-1.194-.689-2.164-2.374-2.161-3.742L22.594 51.289zM47.508 70.663c.597.345 1.084.067 1.086-.622.002-.686-.482-1.524-1.079-1.868l-2.168-1.251c-.6-.347-1.087-.069-1.089.617-.002.69.482 1.527 1.082 1.874L47.508 70.663 47.508 70.663zM74.121 57.905c.3.173.572.189.769.075l-7.048 4.096c-.197.114-.469.098-.769-.075C69.188 60.772 72.007 59.134 74.121 57.905z" class="colorcdcdcd svgShape"/><path fill="#00cdbc" d="M78.222,83.747l-7.048,4.096c0.784-0.456,1.256-1.431,1.26-2.788l7.048-4.096
				C79.478,82.315,79.006,83.291,78.222,83.747z" class="color0085cd svgShape"/><polygon fill="#cdcdcd" points="70.281 78.821 77.329 74.726 77.314 79.707 70.267 83.803" class="colorcdcdcd svgShape"/><path fill="#00cdbc" d="M72.142 77.761c.204.356.311.727.31 1.065l-.018 6.229c-.007 2.314-1.375 3.519-3.331 2.927-.08-.025-.16-.061-.239-.107-.49-.283-.948-.932-1.07-1.571-.012-.069-.02-.136-.024-.201-.017-.274.036-.508.158-.67.154-.198.394-.246.675-.172.974.291 1.66-.313 1.664-1.457l.014-4.981L22.594 51.289l-.014 4.982c-.004 1.368.967 3.053 2.161 3.742L60.191 80.48c.607.35 1.084 1.188 1.082 1.87-.002.686-.482.97-1.089.62l-8.354-4.823-10.838-6.257-16.259-9.387c-2.394-1.382-4.329-4.733-4.321-7.484l.018-6.229c.001-.323.12-.577.319-.702.205-.106.486-.079.77.085l1.082.625 47.687 27.532 1.085.627C71.664 77.125 71.935 77.406 72.142 77.761zM74.89 57.98l-7.048 4.096c.195-.113.316-.354.317-.697.002-.686-.482-1.523-1.079-1.868l7.048-4.096c.597.345 1.081 1.182 1.079 1.868C75.206 57.626 75.085 57.867 74.89 57.98z" class="color0085cd svgShape"/><path fill="#00cdbc" d="M67.08,59.51c0.597,0.345,1.081,1.182,1.079,1.868c-0.002,0.69-0.489,0.967-1.086,0.623
				L45.397,49.486c-0.6-0.346-1.084-1.184-1.082-1.874c0.002-0.686,0.489-0.963,1.089-0.617L67.08,59.51z" class="color0085cd svgShape"/><path fill="#cdcdcd" d="M67.08,59.51l4.895-2.844L52.445,45.39l-7.048,4.096l21.676,12.515l1.085-0.631
				C68.157,60.686,67.675,59.853,67.08,59.51z" class="colorcdcdcd svgShape"/><polygon fill="#00cdbc" points="45.404 46.995 52.452 42.9 74.128 55.414 67.08 59.51" class="color0085cd svgShape"/><path fill="#cdcdcd" d="M52.234 46.318l7.048-4.096c-.194.113-.315.353-.316.694-.002.69.482 1.527 1.079 1.872l-7.048 4.096c-.597-.345-1.081-1.182-1.079-1.872C51.919 46.671 52.039 46.431 52.234 46.318zM74.225 66.846c.004-.002.007-.004.011-.006l-7.048 4.096c-.004.002-.007.004-.011.006.565-.328 1.131-.657 1.696-.985C70.657 68.92 72.437 67.876 74.225 66.846z" class="colorcdcdcd svgShape"/><path fill="#00cdbc" d="M52.234,46.318l7.048-4.096c0.197-0.114,0.469-0.098,0.77,0.075l-7.048,4.096
				C52.703,46.22,52.431,46.204,52.234,46.318z" class="color0085cd svgShape"/><path fill="#41e1d4" d="M64.892,65.731c0.597,0.345,1.081,1.182,1.079,1.868c-0.002,0.69-0.489,0.967-1.086,0.622
				l-4.335-2.503c-0.6-0.346-1.084-1.184-1.082-1.874c0.002-0.686,0.489-0.963,1.089-0.617L64.892,65.731z" class="color63bbcd svgShape"/><path fill="#00cdbc" d="M64.899,63.24c1.791,1.034,3.245,3.553,3.239,5.611c-0.006,2.062-1.47,2.896-3.26,1.862
				l-4.335-2.503c-1.794-1.036-3.248-3.554-3.242-5.616c0.006-2.058,1.469-2.892,3.264-1.856L64.899,63.24z M64.884,68.221
				c0.597,0.345,1.084,0.067,1.086-0.622c0.002-0.686-0.482-1.524-1.079-1.868l-4.335-2.503c-0.6-0.347-1.087-0.069-1.089,0.617
				c-0.002,0.69,0.482,1.527,1.082,1.874L64.884,68.221L64.884,68.221z" class="color0085cd svgShape"/><path fill="#87cdc7" d="M51.886,58.222c0.594,0.343,1.081,1.186,1.079,1.868c-0.002,0.686-0.492,0.965-1.086,0.622
				l-4.335-2.503c-0.597-0.345-1.084-1.188-1.082-1.874c0.002-0.682,0.492-0.961,1.089-0.617L51.886,58.222z" class="colorcd878f svgShape"/><path fill="#cdcdcd" d="M74.135,52.924c0.3,0.173,0.572,0.189,0.769,0.075l-7.048,4.096
				c-0.197,0.114-0.469,0.098-0.769-0.075C69.202,55.791,72.021,54.152,74.135,52.924z" class="colorcdcdcd svgShape"/><path fill="#00cdbc" d="M74.904,52.999l-7.048,4.096c0.195-0.113,0.316-0.354,0.317-0.697
				c0.002-0.686-0.482-1.524-1.079-1.868l7.048-4.096c0.597,0.345,1.081,1.182,1.079,1.868
				C75.22,52.644,75.099,52.885,74.904,52.999z" class="color0085cd svgShape"/><path fill="#00cdbc" d="M67.094,54.529c0.597,0.345,1.081,1.182,1.079,1.868c-0.002,0.69-0.489,0.967-1.086,0.622
				l-14.091-8.135c-0.597-0.345-1.081-1.182-1.079-1.872c0.002-0.686,0.489-0.964,1.086-0.619L67.094,54.529z" class="color0085cd svgShape"/><path fill="#cdcdcd" d="M67.094,54.529l4.894-2.844l-11.944-6.896l-7.048,4.096l14.091,8.135l1.085-0.631
				C68.171,55.704,67.689,54.872,67.094,54.529z" class="colorcdcdcd svgShape"/><polygon fill="#00cdbc" points="53.004 46.393 60.051 42.297 74.142 50.433 67.094 54.529" class="color0085cd svgShape"/><path fill="#cdcdcd" d="M63.315,40.438c-0.002,0.69,0.482,1.527,1.079,1.872l-7.048,4.096
				c-0.597-0.345-1.081-1.182-1.079-1.872C58.616,43.168,60.965,41.803,63.315,40.438c-2.35,1.366-4.699,2.731-7.048,4.096
				c0.001-0.341,0.122-0.581,0.316-0.693l7.048-4.096C63.437,39.857,63.316,40.097,63.315,40.438z" class="colorcdcdcd svgShape"/><path fill="#00cdbc" d="M56.583,43.84l7.048-4.096c0.197-0.114,0.469-0.098,0.77,0.075l-7.048,4.096
				C57.052,43.741,56.78,43.725,56.583,43.84z" class="color0085cd svgShape"/><path fill="#1bcdbf" d="M56.136,35.728l7.048-4.096c0.43,2.371-0.074,4.41-1.509,5.235l-7.048,4.096
				C56.063,40.138,56.567,38.099,56.136,35.728z" class="colorcd1b67 svgShape"/><path fill="#cdcdcd" d="M74.149,47.942c0.3,0.173,0.572,0.189,0.769,0.075l-7.048,4.096
				c-0.197,0.114-0.469,0.098-0.769-0.075C69.216,50.809,72.035,49.171,74.149,47.942z" class="colorcdcdcd svgShape"/><path fill="#00cdbc" d="M74.918,48.017l-7.048,4.096c0.195-0.113,0.316-0.354,0.317-0.697
				c0.002-0.686-0.482-1.524-1.079-1.868l7.048-4.096c0.597,0.345,1.081,1.182,1.079,1.868
				C75.234,47.663,75.113,47.904,74.918,48.017z" class="color0085cd svgShape"/><path fill="#00cdbc" d="M67.109,49.547c0.597,0.345,1.081,1.182,1.079,1.868c-0.002,0.69-0.489,0.967-1.086,0.622
				l-9.756-5.632c-0.597-0.345-1.081-1.182-1.079-1.872c0.002-0.686,0.489-0.963,1.086-0.619L67.109,49.547z" class="color0085cd svgShape"/><path fill="#cdcdcd" d="M67.108,49.547l4.895-2.844l-7.609-4.393l-7.048,4.096l9.756,5.632l1.086-0.631
				C68.185,50.723,67.703,49.89,67.108,49.547z" class="colorcdcdcd svgShape"/><polygon fill="#00cdbc" points="57.353 43.915 64.401 39.819 74.157 45.451 67.109 49.547" class="color0085cd svgShape"/><polygon fill="#00cdbc" points="70.288 76.331 77.336 72.235 78.421 72.862 71.373 76.957" class="color0085cd svgShape"/><polygon fill="#cdcdcd" points="70.372 46.442 77.42 42.346 77.336 72.235 70.288 76.331" class="colorcdcdcd svgShape"/><polygon fill="#00cdbc" points="72.54 47.694 79.588 43.598 79.5 74.73 72.452 78.826" class="color0085cd svgShape"/><path fill="#00cdbc" d="M72.142 77.761l7.048-4.096c.204.356.311.727.31 1.065l-7.048 4.096C72.453 78.488 72.345 78.117 72.142 77.761zM71.373 76.957l7.048-4.096c.291.168.562.449.768.804l-7.048 4.096C71.935 77.406 71.664 77.125 71.373 76.957z" class="color0085cd svgShape"/><path fill="#1bcdbf" d="M46.695,27.194l7.048-4.096c1.066-0.615,2.479-0.475,3.986,0.395
				c1.504,0.868,2.916,2.359,3.972,4.2c0.162,0.281,0.312,0.564,0.45,0.848c0.509,1.046,0.853,2.098,1.033,3.091l-7.048,4.096
				c-0.18-0.994-0.525-2.046-1.033-3.092c-0.138-0.283-0.288-0.566-0.45-0.848c-1.056-1.841-2.469-3.332-3.972-4.2
				C49.174,26.719,47.761,26.579,46.695,27.194z" class="colorcd1b67 svgShape"/><polygon fill="#cdcdcd" points="56.136 35.728 63.184 31.632 75.26 38.604 68.212 42.7" class="colorcdcdcd svgShape"/><path fill="#cdcdcd" d="M68.212,42.7l7.048-4.096c1.194,0.689,2.164,2.37,2.16,3.742l-7.048,4.096
				C70.376,45.07,69.406,43.389,68.212,42.7z" class="colorcdcdcd svgShape"/><path fill="#00cdbc" d="M68.219 40.209c2.385 1.377 4.329 4.729 4.321 7.485l-.088 31.132c.001-.337-.107-.708-.31-1.065-.207-.355-.478-.636-.768-.804l-1.085-.627.085-29.889c.004-1.372-.967-3.053-2.16-3.742l-12.076-6.972c-.18-.994-.525-2.046-1.033-3.091L68.219 40.209zM36.128 43.151c-.899.843-2.243.935-3.739.071l2.168 1.251c1.791 1.034 3.245 3.553 3.239 5.614l-.007 2.491L26.95 46.32l.007-2.491c.006-2.062 1.469-2.896 3.264-1.86l2.168 1.251c-1.498-.865-2.838-2.505-3.729-4.382-2.229-.511-3.862.931-3.87 3.738l-.011 3.734c-.002.69.482 1.527 1.082 1.874l13.005 7.509c.597.345 1.084.067 1.086-.622l.011-3.734C39.971 48.53 38.352 45.21 36.128 43.151z" class="color0085cd svgShape"/><path fill="#cdcdcd" d="M32.417,33.258c1.494,0.863,2.702,3.239,2.696,5.301c-0.006,2.058-1.224,3.034-2.718,2.171
				c-1.497-0.864-2.706-3.241-2.7-5.299C29.701,33.37,30.919,32.394,32.417,33.258z" class="colorcdcdcd svgShape"/><path fill="#00cdbc" d="M21.792,14.88l7.048-4.096c0.648-0.377,1.5-0.404,2.456-0.01c0.05,0.02,0.101,0.045,0.151,0.074
				l-7.048,4.096c-0.05-0.029-0.1-0.054-0.151-0.074C23.292,14.476,22.44,14.503,21.792,14.88z" class="color0085cd svgShape"/><path fill="#00cdbc" d="M24.398 14.944l7.048-4.096c.521.301 1.007 1.039 1.072 1.694l-7.048 4.096C25.405 15.983 24.92 15.245 24.398 14.944zM64.526 82.983c.597.345 1.084 1.188 1.082 1.87-.002.686-.492.965-1.089.62-.594-.343-1.071-1.18-1.069-1.866C63.452 82.925 63.932 82.641 64.526 82.983zM27.963 17.339l7.048-4.096c.198-.115.472-.099.773.075l-7.048 4.096C28.435 17.24 28.161 17.224 27.963 17.339z" class="color0085cd svgShape"/><path fill="#00cdbc" d="M28.736,17.414c0.597,0.345,1.081,1.182,1.079,1.868c-0.002,0.686-0.489,0.967-1.086,0.622
				c-0.597-0.345-1.084-1.188-1.082-1.874C27.649,17.345,28.139,17.069,28.736,17.414z" class="color0085cd svgShape"/><polygon fill="#00cdbc" points="33.071 19.917 40.119 15.821 45.032 18.657 37.984 22.753" class="color0085cd svgShape"/><polygon fill="#00cdbc" points="72.452 78.826 79.5 74.73 79.482 80.959 72.434 85.054" class="color0085cd svgShape"/><polygon fill="#1bcdbf" points="46.395 27.021 53.443 22.925 53.592 23.184 46.544 27.28" class="colorcd1b67 svgShape"/><path fill="#1bcdbf" d="M38.425,22.432l7.048-4.096c0.004-0.002,0.007-0.004,0.011-0.006
				c1.067-0.615,2.483-0.473,3.986,0.395c1.504,0.868,2.916,2.359,3.972,4.2l-7.048,4.096c-1.056-1.841-2.469-3.332-3.972-4.2
				c-1.504-0.868-2.92-1.01-3.986-0.395C38.433,22.428,38.429,22.43,38.425,22.432z" class="colorcd1b67 svgShape"/><polygon fill="#1bcdbf" points="46.544 27.28 53.592 23.184 53.743 23.098 46.695 27.194" class="colorcd1b67 svgShape"/><path fill="#cdcdcd" d="M50.674,30.079c0.923,0.533,1.79,1.449,2.439,2.58c1.349,2.341,1.342,4.883-0.016,5.66
				l-6.594,3.798l-6.548-11.386c-1.349-2.341-1.342-4.883,0.016-5.66c0.653-0.38,1.523-0.293,2.445,0.24
				c0.923,0.533,1.786,1.447,2.439,2.58l0.913,1.585c0.204,0.353,0.487,0.634,0.77,0.797c0.283,0.163,0.566,0.209,0.769,0.091
				l0.919-0.527C48.882,29.46,49.748,29.545,50.674,30.079z" class="colorcdcdcd svgShape"/><polygon fill="#00cdbc" points="55.103 32.637 62.151 28.541 75.267 36.113 68.219 40.209" class="color0085cd svgShape"/><path fill="#00cdbc" d="M68.219,40.209l7.048-4.096c2.385,1.377,4.329,4.729,4.321,7.484l-7.048,4.096
				C72.548,44.938,70.604,41.586,68.219,40.209z" class="color0085cd svgShape"/><path fill="#00ffea" d="M28.76,17.365c0.597,0.345,1.084,1.184,1.082,1.87c-0.002,0.686-0.492,0.965-1.089,0.621
				c-0.597-0.345-1.081-1.186-1.079-1.872C27.676,17.298,28.163,17.02,28.76,17.365z" class="color00b7ff svgShape"/><path fill="#fff" d="M32.44,33.209c1.494,0.862,2.705,3.241,2.7,5.303c-0.006,2.058-1.227,3.032-2.721,2.169
				c-1.494-0.863-2.705-3.241-2.7-5.299C29.725,33.321,30.946,32.347,32.44,33.209z" class="colorffffff svgShape"/><path fill="#00ffea" d="M64.553,82.936c0.594,0.343,1.081,1.186,1.079,1.868c-0.002,0.686-0.492,0.965-1.086,0.622
				c-0.597-0.345-1.074-1.182-1.072-1.868C63.475,82.877,63.956,82.592,64.553,82.936z" class="color00b7ff svgShape"/><g class="color000000 svgShape"><polygon fill="#fff" points="52.075 83.217 52.611 86.021 40.215 78.864 40.765 76.687" class="colorffffff svgShape"/><polygon fill="#95fff6" points="49.686 76.848 49.679 79.338 43.176 75.584 43.183 73.093" class="color95edff svgShape"/><path fill="#00ffea" d="M55.047,88.372c0.082,0.422,0.007,0.772-0.198,0.955c-0.208,0.185-0.525,0.178-0.857-0.013
					l-15.173-8.76c-0.335-0.193-0.648-0.55-0.854-0.975c-0.203-0.419-0.276-0.854-0.192-1.18l1.096-4.356
					c0.123-0.484,0.558-0.622,1.053-0.336l1.085,0.627l-0.003,1.243c-0.002,0.69,0.482,1.527,1.079,1.872l-1.318-0.761l-0.55,2.177
					l12.396,7.157l-0.536-2.804l-1.322-0.763c0.6,0.347,1.087,0.069,1.089-0.621l0.004-1.243l1.082,0.625
					c0.498,0.287,0.931,0.927,1.051,1.551L55.047,88.372z" class="color00b7ff svgShape"/><path fill="#00ffea" d="M49.686,76.848l2.168,1.251l-0.007,2.491l-0.004,1.243c-0.002,0.69-0.489,0.967-1.089,0.621
					l-8.67-5.006c-0.597-0.345-1.081-1.182-1.079-1.872l0.003-1.243l0.007-2.491l2.168,1.252l-0.007,2.491l6.503,3.754
					L49.686,76.848z" class="color00b7ff svgShape"/><path fill="#95fff6" d="M34.579,44.424c1.794,1.036,3.245,3.553,3.239,5.614l-0.007,2.491l-10.838-6.257l0.007-2.491
					c0.006-2.061,1.469-2.896,3.264-1.86L34.579,44.424z" class="color95edff svgShape"/><path fill="#00ffea" d="M36.153 43.103c2.224 2.06 3.842 5.379 3.834 8.186l-.011 3.734c-.002.69-.486.969-1.086.622l-13.006-7.509c-.6-.347-1.084-1.184-1.082-1.874l.011-3.734c.008-2.807 1.641-4.249 3.87-3.738.891 1.876 2.231 3.517 3.729 4.382l-2.168-1.251c-1.794-1.036-3.258-.202-3.264 1.86l-.007 2.491 10.838 6.257.007-2.491c.006-2.062-1.445-4.578-3.239-5.614l-2.168-1.251C33.908 44.036 35.253 43.946 36.153 43.103zM24.425 14.897c.521.301 1.004 1.037 1.069 1.692.006.049.009.096.01.142.017.63-.38.959-.934.732-1.064-.438-1.858.162-1.862 1.398L22.624 48.75l-1.082-.625c-.281-.162-.565-.19-.77-.085-.198.124-.318.379-.319.702l.088-31.132c.007-2.469 1.619-3.658 3.733-2.787C24.325 14.843 24.375 14.868 24.425 14.897z" class="color00b7ff svgShape"/><path fill="#4dfff1" d="M32.447,30.719c2.688,1.552,4.87,5.611,4.86,9.045c-0.004,1.522-0.439,2.669-1.155,3.34
					c-0.9,0.842-2.244,0.933-3.741,0.069c-1.498-0.865-2.838-2.505-3.729-4.382c-0.71-1.494-1.135-3.138-1.131-4.66
					C27.561,30.697,29.756,29.165,32.447,30.719z M32.419,40.681c1.494,0.862,2.715-0.112,2.721-2.169
					c0.006-2.062-1.206-4.44-2.7-5.303c-1.494-0.863-2.715,0.112-2.721,2.173C29.713,37.44,30.925,39.819,32.419,40.681
					L32.419,40.681z" class="colorff4d99 svgShape"/><path fill="#b9fff9" d="M51.91,58.173c0.597,0.345,1.081,1.186,1.079,1.868c-0.002,0.686-0.489,0.967-1.086,0.622
					l-4.335-2.503c-0.597-0.345-1.084-1.188-1.082-1.874c0.002-0.682,0.492-0.961,1.089-0.617L51.91,58.173z" class="colorffb9c1 svgShape"/><path fill="#4dfff1" d="M51.917,55.682c1.788,1.032,3.245,3.556,3.239,5.611c-0.006,2.054-1.473,2.894-3.26,1.862
					l-4.335-2.503c-1.788-1.032-3.248-3.562-3.242-5.616c0.006-2.054,1.476-2.888,3.264-1.856L51.917,55.682z M51.903,60.664
					c0.597,0.345,1.084,0.064,1.086-0.622c0.002-0.682-0.482-1.524-1.079-1.868l-4.335-2.503c-0.597-0.345-1.087-0.065-1.089,0.617
					c-0.002,0.686,0.485,1.529,1.082,1.874L51.903,60.664L51.903,60.664z" class="colorff4d99 svgShape"/><path fill="#00ffea" d="M32.009 20.486c.002-.686.489-.963 1.086-.619l4.912 2.836c-.512.456-.861 1.108-1.046 1.891l-3.851-2.223-.022-.013C32.491 22.014 32.007 21.172 32.009 20.486zM64.922 63.191c1.794 1.036 3.248 3.555 3.242 5.612-.006 2.062-1.469 2.896-3.264 1.86l-4.335-2.503c-1.794-1.036-3.248-3.554-3.242-5.616.006-2.058 1.47-2.892 3.264-1.856L64.922 63.191zM64.908 68.173c.597.345 1.087.069 1.089-.621.002-.686-.485-1.525-1.082-1.87l-4.335-2.503c-.597-.345-1.084-.067-1.086.619-.002.69.482 1.527 1.079 1.872L64.908 68.173 64.908 68.173z" class="color00b7ff svgShape"/><path fill="#95fff6" d="M64.915,65.682c0.597,0.345,1.084,1.184,1.082,1.87c-0.002,0.69-0.492,0.965-1.089,0.621
					l-4.335-2.503c-0.597-0.345-1.081-1.183-1.079-1.872c0.002-0.686,0.489-0.963,1.086-0.619L64.915,65.682z" class="color95edff svgShape"/><path fill="#00ffea" d="M67.104 59.461c.6.347 1.084 1.184 1.082 1.87-.002.69-.489.967-1.089.62L45.421 49.437c-.6-.347-1.084-1.184-1.082-1.874.002-.686.489-.963 1.089-.617L67.104 59.461zM67.118 54.48c.6.347 1.084 1.184 1.082 1.87-.002.689-.489.967-1.089.62L53.02 48.835c-.597-.345-1.081-1.182-1.079-1.872.002-.686.489-.964 1.086-.619L67.118 54.48z" class="color00b7ff svgShape"/><path fill="#4dfff1" d="M56.16,35.679c0.43,2.371-0.074,4.41-1.509,5.235l-7.363,4.243
					c-0.205,0.117-0.48,0.09-0.77-0.077c-0.287-0.166-0.565-0.458-0.765-0.809l-7.318-12.72c-1.424-2.477-1.914-5.089-1.472-6.957
					c0.185-0.783,0.534-1.435,1.046-1.891c0.139-0.124,0.29-0.233,0.452-0.327c1.067-0.615,2.483-0.473,3.986,0.395
					c1.507,0.87,2.916,2.36,3.975,4.202l0.146,0.257l0.15-0.086c1.067-0.615,2.483-0.473,3.986,0.395
					c1.504,0.868,2.916,2.359,3.972,4.2c0.162,0.281,0.312,0.564,0.45,0.848C55.635,33.633,55.98,34.685,56.16,35.679z
					 M53.12,38.271c1.358-0.778,1.365-3.32,0.016-5.66c-0.649-1.132-1.516-2.047-2.439-2.58c-0.923-0.533-1.792-0.619-2.445-0.24
					l-0.922,0.525c-0.203,0.118-0.486,0.072-0.769-0.091c-0.283-0.163-0.565-0.444-0.767-0.795l-0.916-1.587
					c-0.649-1.132-1.516-2.048-2.439-2.58c-0.923-0.533-1.792-0.62-2.445-0.24c-1.358,0.778-1.365,3.32-0.016,5.66l6.548,11.386
					L53.12,38.271L53.12,38.271z" class="colorff4d99 svgShape"/><path fill="#00ffea" d="M67.132,49.498c0.6,0.346,1.084,1.184,1.082,1.87c-0.002,0.69-0.489,0.967-1.089,0.621
					l-9.756-5.632c-0.597-0.345-1.081-1.182-1.079-1.872c0.002-0.686,0.489-0.963,1.086-0.619L67.132,49.498z" class="color00b7ff svgShape"/><path fill="#00ffea" d="M68.246,40.162c2.385,1.377,4.329,4.729,4.321,7.484l-0.088,31.132
					c0.001-0.337-0.11-0.71-0.314-1.066c-0.207-0.355-0.475-0.634-0.768-0.804l-1.082-0.625l0.085-29.889
					c0.004-1.372-0.97-3.055-2.161-3.742L56.16,35.679c-0.18-0.994-0.525-2.046-1.033-3.092L68.246,40.162z" class="color00b7ff svgShape"/><path fill="#fff" d="M68.239,42.653c1.191,0.688,2.164,2.37,2.16,3.742l-0.085,29.889L22.624,48.75l0.085-29.889
					c0.003-1.236,0.798-1.836,1.862-1.398c0.554,0.227,0.951-0.102,0.934-0.732l2.17,1.253c-0.002,0.686,0.482,1.527,1.079,1.872
					c0.597,0.345,1.087,0.065,1.089-0.621l2.168,1.251c-0.002,0.686,0.482,1.527,1.079,1.872l3.873,2.236
					c-0.442,1.868,0.048,4.48,1.472,6.957l7.318,12.72c0.2,0.351,0.478,0.643,0.765,0.809c0.291,0.168,0.565,0.194,0.77,0.077
					l7.363-4.243c1.436-0.826,1.939-2.864,1.509-5.235L68.239,42.653z M39.976,55.024l0.011-3.734
					c0.008-2.808-1.61-6.126-3.834-8.186c0.716-0.671,1.151-1.818,1.155-3.34c0.01-3.434-2.172-7.493-4.86-9.045
					c-2.691-1.554-4.886-0.021-4.896,3.413c-0.004,1.522,0.422,3.166,1.131,4.66c-2.229-0.51-3.862,0.931-3.87,3.738l-0.011,3.734
					c-0.002,0.69,0.482,1.527,1.082,1.874l13.006,7.509C39.49,55.992,39.974,55.713,39.976,55.024L39.976,55.024z M64.901,70.663
					c1.794,1.036,3.258,0.202,3.264-1.86c0.006-2.058-1.448-4.577-3.242-5.612l-4.335-2.503c-1.794-1.036-3.258-0.202-3.264,1.856
					c-0.006,2.062,1.448,4.58,3.242,5.616L64.901,70.663L64.901,70.663z M51.896,63.155c1.788,1.032,3.255,0.193,3.26-1.862
					c0.006-2.054-1.451-4.578-3.239-5.611l-4.335-2.503c-1.788-1.032-3.258-0.198-3.264,1.856c-0.006,2.054,1.455,4.584,3.242,5.616
					L51.896,63.155L51.896,63.155z M67.097,61.952c0.6,0.347,1.087,0.069,1.089-0.62c0.002-0.686-0.482-1.524-1.082-1.87
					L45.428,46.947c-0.6-0.347-1.087-0.069-1.089,0.617c-0.002,0.69,0.482,1.527,1.082,1.874L67.097,61.952L67.097,61.952z
					 M67.111,56.971c0.6,0.347,1.087,0.069,1.089-0.621c0.002-0.686-0.482-1.524-1.082-1.87l-14.091-8.135
					c-0.597-0.345-1.084-0.067-1.086,0.619c-0.002,0.689,0.482,1.527,1.079,1.872L67.111,56.971L67.111,56.971z M67.125,51.989
					c0.6,0.347,1.087,0.069,1.089-0.621c0.002-0.686-0.482-1.524-1.082-1.87l-9.756-5.633c-0.597-0.345-1.084-0.067-1.086,0.619
					c-0.002,0.69,0.482,1.527,1.079,1.872L67.125,51.989L67.125,51.989z" class="colorffffff svgShape"/><path fill="#00ffea" d="M72.165,77.712c-0.207-0.355-0.475-0.634-0.768-0.804l-1.082-0.625L22.624,48.75l-1.082-0.625
					c-0.281-0.162-0.565-0.19-0.77-0.085c-0.198,0.124-0.318,0.379-0.319,0.701l-0.018,6.229c-0.008,2.751,1.927,6.102,4.321,7.484
					l16.258,9.387l10.838,6.257l8.358,4.825c0.606,0.35,1.084,0.064,1.086-0.622c0.002-0.683-0.472-1.518-1.079-1.868L24.764,59.964
					c-1.191-0.688-2.164-2.374-2.161-3.742l0.014-4.981l47.69,27.534l-0.014,4.982c-0.003,1.145-0.689,1.748-1.667,1.455
					c-0.281-0.074-0.521-0.025-0.675,0.172c-0.122,0.161-0.175,0.396-0.156,0.671c0.005,0.065,0.013,0.133,0.026,0.202
					c0.119,0.638,0.577,1.286,1.069,1.57c0.08,0.046,0.16,0.082,0.24,0.108c1.952,0.591,3.324-0.613,3.33-2.927l0.018-6.229
					C72.479,78.441,72.369,78.069,72.165,77.712z" class="color00b7ff svgShape"/><path fill="#fff" d="M22.603,56.222c-0.004,1.368,0.97,3.055,2.16,3.742l35.454,20.469
					c0.606,0.35,1.081,1.186,1.079,1.868l2.177,1.257c0.002-0.682,0.482-0.967,1.079-0.623c0.594,0.343,1.081,1.186,1.079,1.868
					l2.164,1.249c-0.019-0.275,0.034-0.509,0.156-0.671c0.154-0.198,0.394-0.247,0.675-0.172c0.978,0.293,1.664-0.311,1.667-1.455
					l0.014-4.981l-47.69-27.534L22.603,56.222z M45.371,66.872l2.168,1.251c0.6,0.347,1.081,1.182,1.079,1.868
					c-0.002,0.69-0.486,0.969-1.086,0.622l-2.168-1.252c-0.6-0.346-1.084-1.184-1.082-1.874
					C44.285,66.803,44.771,66.526,45.371,66.872L45.371,66.872z" class="colorffffff svgShape"/><path fill="#00ffea" d="M47.539,68.124c0.6,0.346,1.081,1.182,1.079,1.868c-0.002,0.69-0.486,0.969-1.086,0.622
					l-2.168-1.251c-0.6-0.347-1.084-1.184-1.082-1.874c0.002-0.686,0.489-0.964,1.089-0.617L47.539,68.124z" class="color00b7ff svgShape"/><path fill="#fff" d="M50.698,30.031c0.922,0.533,1.79,1.449,2.439,2.58c1.349,2.341,1.342,4.883-0.016,5.66
					l-6.595,3.798l-6.548-11.386c-1.349-2.341-1.342-4.883,0.016-5.66c0.653-0.38,1.523-0.293,2.445,0.24
					c0.923,0.533,1.79,1.448,2.439,2.58l0.916,1.587c0.202,0.352,0.484,0.632,0.767,0.795c0.282,0.163,0.565,0.209,0.769,0.091
					l0.922-0.525C48.905,29.411,49.775,29.498,50.698,30.031z" class="colorffffff svgShape"/></g></svg>