<svg xmlns="http://www.w3.org/2000/svg" enable-background="new 0 0 51 51" viewBox="0 0 51 51"><g enable-background="new"><path fill="#C4C2C0" d="M39.36483,31.18272l-23.83743,13.8528c-0.50931,0.29598-1.21426,0.25508-1.99151-0.19367
					c-1.54496-0.89198-2.79604-3.06077-2.79101-4.83422l23.83743-13.8528c-0.00503,1.77345,1.24606,3.94224,2.79101,4.83422
					C38.15057,31.4378,38.85552,31.4787,39.36483,31.18272z"/><polygon fill="#D6D4D2" points="7.445 29.498 31.282 15.645 34.607 17.564 10.769 31.417"/><polygon fill="#E9E8E6" points="7.445 29.498 13.197 26.155 16.522 28.074 10.769 31.417"/><polygon fill="#C4C2C0" points="10.769 31.417 34.607 17.564 34.582 26.155 10.745 40.008"/><path fill="#E9E8E6" d="M41.71854,35.23265l-23.83742,13.8528c1.10019-0.63936,1.78314-1.99737,1.78861-3.92506
					l23.83742-13.8528C43.50168,33.23528,42.81873,34.59329,41.71854,35.23265z"/><polygon fill="#E9E8E6" points="19.742 17.272 43.58 3.419 43.507 31.308 19.67 45.16"/><polygon fill="#D6D4D2" points="16.418 15.353 40.255 1.5 43.58 3.419 19.742 17.272"/><polygon fill="#C4C2C0" points="16.418 15.353 33.767 5.271 37.092 7.19 19.742 17.272"/><polygon fill="#D6D4D2" points="16.418 15.353 25.055 10.334 28.379 12.253 19.742 17.272"/><path fill="#B2B0AF" d="M19.74249,17.27223l-0.07277,27.88816c-0.011,3.87991-2.76654,5.452-6.14466,3.50165
					S7.40931,41.9681,7.42031,38.0882l0.02435-8.59044l3.32457,1.91944l-0.02435,8.59044
					c-0.00503,1.77345,1.24606,3.94223,2.79101,4.83422c1.54496,0.89198,2.80423,0.17255,2.80926-1.6009l0.07277-27.88816
					L19.74249,17.27223z"/><path fill="#D6D4D2" d="M19.70369,32.25739l-0.03413,12.90313c-0.00988,3.88005-2.7676,5.45132-6.14446,3.50265
					c-3.37933-1.95111-6.11485-6.69449-6.10499-10.57457l0.00708-2.72615l3.32505,1.91907l-0.00708,2.72615
					c-0.00492,1.77355,1.24568,3.94172,2.78981,4.83465c1.54659,0.89046,2.80459,0.17265,2.80951-1.60086l0.03413-12.90314
					L19.70369,32.25739z"/></g><polygon fill="#A0A8AA" points="29.916 20.451 41.543 13.738 41.538 10.34 29.916 17.05" enable-background="new"/><polygon fill="#7E8A8C" points="35.389 17.291 41.543 13.738 41.538 10.34 35.389 13.89" enable-background="new"/><polygon fill="#A0A8AA" points="41.538 18.727 41.543 22.124 21.696 33.583 21.691 30.185" enable-background="new"/><polygon fill="#A0A8AA" points="40.846 27.041 21.691 38.099 21.696 41.497 40.846 30.441" enable-background="new"/><polygon fill="#7E8A8C" points="30.97 28.229 41.543 22.124 41.538 18.727 30.97 24.828" enable-background="new"/><polygon fill="#7E8A8C" points="30.97 32.742 30.97 36.143 40.846 30.441 40.846 27.041" enable-background="new"/><path fill="#DD4A4A" d="M26.27788,16.91838l2.96641,5.9831l-1.203,0.69455l-0.67648-1.36188l-3.34679,1.93227l-0.66656,2.13729
			l-1.20298,0.69454l2.92283-9.38326L26.27788,16.91838z M24.47428,22.70442l2.4275-1.40152l-1.22272-2.46411L24.47428,22.70442"/></svg>