<?xml version="1.0" encoding="UTF-8"?><svg id="Layer_2" xmlns="http://www.w3.org/2000/svg" viewBox="0 0 36.84 48"><defs><style>.cls-1{fill:#f8fefe;}.cls-2{fill:#fff;}.cls-3{fill:#f1fcfb;}.cls-4{fill:#ecf1f1;}.cls-5{fill:#c9e2e0;}.cls-6{fill:#d4d6d6;}.cls-7{fill:#e0e2e2;}.cls-8{fill:#0ff1df;}.cls-9{fill:#113330;}.cls-10{fill:#15fff5;}.cls-11{fill:#13e5d4;}.cls-12{fill:#3ffff1;}.cls-13{fill:#1d4340;}.cls-14{fill:#41e1d4;}.cls-15{fill:#3ce7d9;}.cls-16{fill:#18d6c7;}.cls-17{fill:#465756;}.cls-18{fill:#5abfb7;}.cls-19{fill:#5b716f;}.cls-20{fill:#56f9ec;}.cls-21{fill:#5af2e6;}.cls-22{fill:#32c9bd;}.cls-23{fill:#56aaa3;}.cls-24{fill:#59b6ae;}.cls-25{fill:#4c7572;}.cls-26{fill:#4affc9;}.cls-27{fill:#32b7ac;}</style></defs><g id="Layer_1-2"><polygon class="cls-8" points="1.22 43.26 31 25.96 35.57 28.6 5.79 45.9 1.22 43.26"/><polygon class="cls-8" points=".06 17.31 29.84 0 31.06 .7 1.28 18.01 .06 17.31"/><polygon class="cls-16" points="1.28 18.01 31.06 .7 31 25.96 1.22 43.26 1.28 18.01"/><polygon class="cls-7" points="2.38 43.95 1.62 43.51 1.57 18.59 2.33 19.03 2.38 43.95"/><polygon class="cls-4" points="2.33 19.03 1.57 18.59 30.07 2.09 30.83 2.53 2.33 19.03"/><polygon class="cls-6" points="30.83 2.53 30.89 27.45 2.38 43.95 2.33 19.03 30.83 2.53"/><polygon class="cls-7" points="3.69 44.71 2.93 44.26 2.87 19.35 3.63 19.79 3.69 44.71"/><polygon class="cls-4" points="3.63 19.79 2.87 19.35 31.38 2.84 32.13 3.28 3.63 19.79"/><polygon class="cls-6" points="32.13 3.28 32.19 28.2 3.69 44.71 3.63 19.79 32.13 3.28"/><polygon class="cls-22" points="5.75 23.6 5.51 23.46 5.49 16.88 5.73 17.02 5.75 23.6"/><polygon class="cls-14" points="5.73 17.02 5.49 16.88 9.16 14.76 9.4 14.9 5.73 17.02"/><polygon class="cls-27" points="9.4 14.9 9.42 21.48 5.75 23.6 5.73 17.02 9.4 14.9"/><g><polygon class="cls-7" points="4.99 45.46 4.23 45.02 4.17 20.1 4.93 20.54 4.99 45.46"/><polygon class="cls-4" points="4.93 20.54 4.17 20.1 32.68 3.59 33.44 4.04 4.93 20.54"/><polygon class="cls-6" points="33.44 4.04 33.49 28.95 4.99 45.46 4.93 20.54 33.44 4.04"/></g><polygon class="cls-16" points="7.06 29.83 36.84 12.52 36.78 30.69 7 48 7.06 29.83"/><polygon class="cls-8" points="5.85 29.13 35.63 11.82 36.84 12.52 7.06 29.83 5.85 29.13"/><polygon class="cls-11" points="7.06 29.83 7 48 0 43.96 .06 17.31 1.28 18.01 1.22 43.26 5.79 45.9 5.85 29.13 7.06 29.83"/><g><polygon class="cls-11" points="15.79 24.8 14.59 24.09 14.56 15.34 15.76 16.04 15.79 24.8"/><polygon class="cls-8" points="15.76 16.04 14.56 15.34 35.6 3.06 36.81 3.76 15.76 16.04"/><polygon class="cls-16" points="36.81 3.76 36.84 12.52 15.79 24.8 15.76 16.04 36.81 3.76"/></g><path class="cls-24" d="M24.2,18.35c3.9-2.25,7.08-.44,7.09,4.05,.01,4.48-3.14,9.95-7.05,12.2-3.91,2.26-7.08,.44-7.1-4.04-.01-4.48,3.14-9.95,7.05-12.21Z"/><path class="cls-14" d="M29.46,19.22c.56,.77,.89,1.86,.89,3.21,.01,4.06-2.85,9.02-6.39,11.06-2.15,1.24-4.06,1.12-5.23-.08,1.11,1.52,3.17,1.78,5.52,.43,3.54-2.04,6.4-7,6.39-11.06,0-1.57-.44-2.78-1.17-3.56Z"/><path class="cls-2" d="M23.95,33.49c3.54-2.04,6.4-7,6.39-11.06,0-1.35-.32-2.44-.89-3.21-1.16-1.23-3.09-1.36-5.26-.11-3.54,2.04-6.4,7-6.39,11.07,0,1.37,.33,2.46,.92,3.23,1.17,1.2,3.08,1.32,5.23,.08Z"/><path class="cls-12" d="M29.23,17.86c-1.29-.75-3.07-.64-5.03,.49-3.91,2.26-7.06,7.73-7.05,12.21,0,2.23,.79,3.8,2.06,4.53l-1.78-1.04c-1.27-.74-2.05-2.31-2.06-4.53-.01-4.48,3.15-9.95,7.05-12.21,1.96-1.13,3.74-1.23,5.02-.49l1.79,1.04Z"/><path class="cls-19" d="M24.24,32.16c.11-.06,.19,0,.19,.11,0,.12-.08,.27-.19,.33-.11,.06-.19,.01-.19-.11,0-.12,.09-.27,.19-.33Zm2.56-2.27c.07-.04,.13-.04,.17,.01,.05,.07,.02,.23-.07,.34-.03,.04-.06,.06-.09,.08-.07,.04-.13,.04-.17-.01-.05-.07-.02-.23,.07-.34,.03-.04,.06-.07,.09-.08Zm1.87-3.24s.06-.03,.09-.03c.09,.01,.12,.13,.07,.26-.03,.09-.1,.17-.16,.2-.03,.02-.06,.03-.09,.02-.09,0-.12-.12-.07-.26,.04-.09,.1-.17,.17-.2Zm.68-3.35c.11-.06,.19-.01,.19,.11,0,.12-.09,.27-.19,.33-.11,.06-.19,0-.19-.11,0-.12,.08-.27,.19-.33Z"/><path class="cls-17" d="M21.67,32.85s.06-.03,.09-.02c.09,0,.12,.13,.07,.26-.03,.09-.1,.16-.16,.2-.03,.02-.07,.03-.1,.03-.09,0-.12-.13-.07-.26,.04-.09,.1-.17,.17-.21Z"/><path class="cls-15" d="M27.37,22.19l.07,.09-2.94,3.77s-.07-.04-.11-.04l2.98-3.82Z"/><path class="cls-19" d="M24.22,26.07l.08-.03s.06-.01,.09-.01c.04,0,.08,.02,.11,.04,.05,.04,.08,.11,.08,.21,0,.22-.16,.5-.36,.61-.14,.08-.27,.06-.33-.05-.02-.04-.03-.08-.03-.13h0s0-.06,0-.09c0-.06,.03-.12,.05-.18,.05-.12,.13-.23,.23-.31l.07-.05Zm2.55-6.4s.06-.03,.09-.03c.09,0,.12,.13,.07,.26-.04,.09-.1,.17-.17,.21-.03,.02-.06,.03-.09,.02-.09,0-.12-.12-.07-.26,.04-.09,.1-.17,.17-.2Z"/><path class="cls-19" d="M24.29,22.16c.17-.05,.31,.05,.31,.25,0,.21-.13,.46-.31,.61v3.01l-.07,.04-.07,.05h-.01v-3c-.18,.05-.32-.04-.32-.25,0-.21,.13-.46,.31-.61v-.49l.16-.1v.49Zm-.08,.74c.12-.07,.23-.25,.22-.39,0-.14-.1-.2-.23-.13s-.23,.25-.23,.39c0,.14,.11,.2,.23,.13m-5.12,6.32c.1-.06,.19,0,.19,.11,0,.12-.09,.27-.19,.33-.11,.06-.19,.01-.19-.11,0-.12,.09-.27,.19-.33Zm.68-3.35s.06-.03,.09-.02c.09,0,.12,.12,.07,.26-.04,.09-.1,.17-.17,.21-.03,.02-.06,.03-.09,.03-.09,0-.12-.13-.07-.26,.04-.09,.1-.17,.17-.21Zm1.87-3.24c.07-.04,.13-.04,.17,.02,.05,.07,.02,.23-.07,.34-.03,.04-.06,.07-.1,.08-.07,.04-.13,.04-.17-.01-.05-.07-.02-.23,.07-.34,.03-.04,.06-.06,.1-.08Zm7.02-1.89c.07-.04,.13-.03,.16,.01,.05,.07,.02,.23-.07,.34-.03,.04-.06,.06-.09,.08-.07,.04-.13,.04-.17-.01-.05-.08-.02-.23,.07-.34,.03-.04,.06-.07,.09-.08Z"/><path class="cls-15" d="M23,27.8l.86-1.1c0,.05,.01,.1,.03,.14l-.82,1.06-.07-.09Z"/><path class="cls-19" d="M19.78,31.77c.07-.04,.13-.04,.16,.01,.05,.08,.02,.23-.07,.34-.03,.04-.06,.07-.09,.08-.07,.04-.13,.04-.17-.01-.05-.07-.02-.23,.07-.34,.03-.04,.06-.06,.09-.08Zm3.27-5.53l.88,.16v.03c-.04,.06-.06,.12-.07,.18l-.9-.15c-.1,.19-.25,.35-.4,.43-.1,.06-.2,.09-.29,.07-.12-.02-.2-.12-.23-.26-.02-.12,0-.26,.03-.4l-.42-.07,.09-.21,.42,.07c.1-.19,.25-.35,.4-.43,.1-.06,.2-.08,.29-.07,.22,.04,.3,.33,.19,.66Zm-.17,.08c.05-.12,.07-.25,.05-.35-.02-.1-.08-.16-.16-.18-.06,0-.14,.01-.2,.05-.13,.07-.25,.21-.31,.37-.06,.13-.07,.26-.05,.36,.02,.1,.08,.17,.16,.18,.06,.01,.13,0,.2-.05,.12-.07,.24-.21,.32-.38m1.32-5.96c.11-.06,.19-.01,.19,.11,0,.12-.08,.27-.19,.33-.11,.06-.19,.01-.19-.11,0-.12,.09-.27,.19-.33Z"/><path class="cls-9" d="M31.17,36.36v.38l-2.65,1.54-3.81-2.2v-3.45l6.46,3.73Z"/><path class="cls-21" d="M24.89,36.62l-1.47-.85s.07,.04,.1,.05l1.47,.85s-.07-.03-.1-.05Z"/><path class="cls-2" d="M28.63,32.69c0,.27-.04,.56-.11,.85-.07,.27-.16,.53-.27,.79-.1,.23-.22,.46-.35,.67l-2.9-1.64c.13-.22,.25-.44,.35-.67,.11-.26,.2-.52,.27-.79,.07-.29,.11-.58,.11-.85,0-.69-.25-1.17-.64-1.41l2.9,1.65c.39,.23,.64,.71,.64,1.4Z"/><path class="cls-20" d="M23.44,37.57l-1.47-.85-.02-6.92,1.47,.85,.02,6.92Z"/><path class="cls-21" d="M23.42,30.65l-1.47-.85,6.01-3.47,1.47,.85-6.01,3.47Z"/><path class="cls-5" d="M29.43,27.18l.02,6.92-1.56,.9c.45-.72,.82-1.56,.73-2.31-.13-1.18-1.16-1.67-2.2-1.25-1.29,.53-2.19,2.39-2.18,3.78,0,.75,.29,1.26,.74,1.45l-1.56,.9-.02-6.92,6.02-3.47Z"/><path class="cls-21" d="M25.3,36.43l-.3-.17s.04,.02,.06,.03l.3,.17s-.04-.02-.06-.03Z"/><path class="cls-18" d="M27.65,31.71l.3,.17c.34,.2,.63,.6,.63,1.19,0,.6-.3,1.3-.68,1.93l-.3-.17c.38-.62,.59-1.32,.59-1.92,0-.59-.21-1-.54-1.2h0Z"/><path class="cls-23" d="M26.62,31.61c1.22-.7,2.22-.14,2.22,1.27,0,.57-.17,1.22-.47,1.84l-.47,.27c.38-.62,.59-1.32,.59-1.92,0-1.18-.84-1.66-1.87-1.07s-1.86,2.04-1.86,3.22c0,.6,.22,1.04,.6,1.23l-.47,.27c-.3-.27-.48-.72-.48-1.3,0-1.4,.99-3.12,2.21-3.82Z"/><path class="cls-5" d="M23.34,30.57v.83l-1.51-.87v-.83l1.51,.87Z"/><path class="cls-18" d="M28.19,31.46c-.4-.24-.95-.19-1.57,.17-1.22,.71-2.21,2.4-2.21,3.81,0,.57,.17,1.03,.47,1.3l-.29-.17c-.3-.27-.48-.72-.48-1.3,0-1.4,.99-3.12,2.21-3.82,.61-.35,1.17-.39,1.57-.15l.29,.17Z"/><path class="cls-13" d="M31.17,36.36v.38l-2.65,1.54v-.38l2.65-1.54Z"/><path class="cls-13" d="M31.17,36.36v.38l-2.65,1.54v-.38l2.65-1.54Z"/><path class="cls-9" d="M24.72,35.7v.38l3.81,2.2v-.38l-3.81-2.2Z"/><path class="cls-25" d="M24.72,32.63v3.07l3.81,2.2,2.65-1.54-6.45-3.73Z"/><path class="cls-25" d="M24.72,32.63v.36l6.15,3.55,.31-.18-6.45-3.73Zm0,2.71v.36l2.23,1.29,.31-.18-2.54-1.47Z"/><path class="cls-3" d="M29.54,36.62l-.64-.37-.3,.17,.64,.37,.3-.17Zm-1.21-.7l-.64-.37-.3,.17,.64,.37,.3-.17Zm-2.41-1.39l-.64-.37-.3,.17,.64,.37,.3-.17Zm1.21,.7l-.64-.37-.3,.17,.64,.37,.3-.17Z"/><path class="cls-21" d="M24.89,36.62l-1.47-.85s.07,.04,.1,.05l1.47,.85s-.07-.03-.1-.05Z"/><path class="cls-14" d="M23.44,37.57l-1.47-.85-.02-6.92,1.47,.85c.64,2.16,.66,4.46,.02,6.92Z"/><path class="cls-21" d="M25.95,27.48l-4,2.31,1.47,.85,2.53-1.46v-1.7Z"/><path class="cls-5" d="M25.95,29.19l-2.53,1.46,.02,6.92,1.56-.9c-.45-.2-.74-.7-.74-1.45,0-1.21,.67-2.78,1.7-3.51"/><path class="cls-25" d="M29.66,26.9v.84l-3.7,2.15-2.62,1.52v-.83h0v.83l-1.51-.87v-.83l4.13-2.4,2.19-1.28,1.51,.87Z"/><path class="cls-9" d="M23.34,30.57v.83l-1.51-.87v-.83l1.51,.87Z"/><path class="cls-10" d="M29.66,26.9l-3.71,2.15-2.61,1.52-1.51-.87,4.12-2.4,2.2-1.28,1.51,.87Z"/><path class="cls-18" d="M25.95,32.11v-.42c-1.04,.81-1.84,2.31-1.84,3.57,0,.57,.17,1.03,.48,1.3l.3,.17c-.3-.27-.53-.73-.47-1.3,.1-1.12,.81-2.44,1.54-3.32Z"/><path class="cls-13" d="M29.66,26.9v.84l-3.71,2.15-2.61,1.52v-.83l2.61-1.52,3.71-2.15Z"/><path class="cls-9" d="M23.34,30.57v0h0Z"/><path class="cls-13" d="M23.34,30.57v0h0Z"/><path class="cls-1" d="M24.05,32.63c-.32,0-.57,.27-.57,.6,0-.33-.26-.6-.57-.6,.32,0,.57-.27,.57-.6,0,.33,.26,.6,.57,.6h0Z"/><path class="cls-23" d="M27.4,31.33c-.24,.03-.51,.13-.78,.28-1.22,.7-2.21,2.42-2.21,3.82,0,.57,.17,1.03,.48,1.3l.47-.27c-.38-.19-.6-.63-.6-1.23,0-1.18,.83-2.63,1.86-3.22,.28-.16,.54-.24,.78-.25v-.43Z"/><path class="cls-26" d="M27.87,32.11c-.06,0-.11,.05-.11,.11,0-.06-.05-.11-.11-.11,.06,0,.11-.05,.11-.11,0,.06,.05,.11,.11,.11h0Z"/><path class="cls-26" d="M27.46,32.37c-.06,0-.11,.05-.11,.11,0-.06-.05-.11-.11-.11,.06,0,.11-.05,.11-.11,0,.06,.05,.11,.11,.11h0Z"/><path class="cls-26" d="M27.2,32.06c-.06,0-.11,.05-.11,.11,0-.06-.05-.11-.11-.11,.06,0,.11-.05,.11-.11,0,.06,.05,.11,.11,.11h0Z"/><path class="cls-26" d="M26.87,32.6c-.06,0-.11,.05-.11,.11,0-.06-.05-.11-.11-.11,.06,0,.11-.05,.11-.11,0,.06,.05,.11,.11,.11h0Z"/><path class="cls-26" d="M27.94,32.79c-.06,0-.11,.05-.11,.11,0-.06-.05-.11-.11-.11,.06,0,.11-.05,.11-.11,0,.06,.05,.11,.11,.11h0Z"/><path class="cls-26" d="M27.46,33.05c-.06,0-.11,.05-.11,.11,0-.06-.05-.11-.11-.11,.06,0,.11-.05,.11-.11,0,.06,.05,.11,.11,.11h0Z"/><path class="cls-26" d="M26.81,33.3c-.06,0-.11,.05-.11,.11,0-.06-.05-.11-.11-.11,.06,0,.11-.05,.11-.11,0,.06,.05,.11,.11,.11h0Z"/><path class="cls-26" d="M27.38,32.64c-.06,0-.11,.05-.11,.11,0-.06-.05-.11-.11-.11,.06,0,.11-.05,.11-.11,0,.06,.05,.11,.11,.11h0Z"/><path class="cls-26" d="M27.87,33.31c-.06,0-.11,.05-.11,.11,0-.06-.05-.11-.11-.11,.06,0,.11-.05,.11-.11,0,.06,.05,.11,.11,.11h0Z"/><path class="cls-26" d="M27.44,33.74c-.06,0-.11,.05-.11,.11,0-.06-.05-.11-.11-.11,.06,0,.11-.05,.11-.11,0,.06,.05,.11,.11,.11h0Z"/><path class="cls-26" d="M26.47,32.37c-.06,0-.11,.05-.11,.11,0-.06-.05-.11-.11-.11,.06,0,.11-.05,.11-.11,0,.06,.05,.11,.11,.11h0Z"/><path class="cls-26" d="M26.22,32.94c-.06,0-.11,.05-.11,.11,0-.06-.05-.11-.11-.11,.06,0,.11-.05,.11-.11,0,.06,.05,.11,.11,.11h0Z"/><path class="cls-26" d="M27.09,32.89c-.06,0-.11,.05-.11,.11,0-.06-.05-.11-.11-.11,.06,0,.11-.05,.11-.11,0,.06,.05,.11,.11,.11h0Z"/><path class="cls-26" d="M27.85,33.79c-.06,0-.11,.05-.11,.11,0-.06-.05-.11-.11-.11,.06,0,.11-.05,.11-.11,0,.06,.05,.11,.11,.11h0Z"/><path class="cls-26" d="M23.6,32.63c-.06,0-.11,.05-.11,.11,0-.06-.05-.11-.11-.11,.06,0,.11-.05,.11-.11,0,.06,.05,.11,.11,.11h0Z"/></g></svg>