<svg xmlns="http://www.w3.org/2000/svg" enable-background="new 0 0 50 50" viewBox="0 0 50 50"><path fill="#5B5E71" d="M36.2424,2.3923c0.8358-0.4826,1.5141-0.0961,1.5168,0.8502l0.0881,31.0876
		c0.0027,0.9463-0.6712,2.1134-1.507,2.596l-20.552,11.8657c-0.8358,0.4826-1.5141,0.0961-1.5168-0.8502L14.1834,16.854
		c-0.0027-0.9463,0.6712-2.1134,1.507-2.596L36.2424,2.3923z"/><polygon fill="#FFF" points="35.794 34.905 16.33 46.129 16.253 16.288 35.698 5.045"/><path fill="#474B59" d="M37.3153,2.2917c-0.2694-0.1732-0.6545-0.1348-1.0781,0.0962L15.6951,14.2667
		c-0.8471,0.4813-1.5209,1.6364-1.5209,2.5797l0.0962,31.0924c0,0.462,0.1732,0.8086,0.4428,0.9626l-2.0407-1.1936
		c-0.2696-0.154-0.4428-0.4813-0.4428-0.9433l-0.0771-31.0924c0-0.9433,0.6739-2.1177,1.5017-2.599L34.2157,1.2136
		c0.4043-0.2503,0.7894-0.2696,1.0781-0.1155L37.3153,2.2917z"/><polygon fill="#E74C3C" points="23.605 24.557 24 24.768 22.849 26.815 22.297 27.795 21.195 29.755 19.839 29.349 20.17 28.649 21.143 28.95 22.295 26.895 22.846 25.912"/><polygon fill="#5B5E71" points="22.843 24.729 22.846 25.912 22.295 26.895 22.291 25.67 18.69 27.749 18.701 31.887 22.303 29.808 22.297 27.795 22.849 26.815 22.858 30.11 18.162 32.821 18.147 27.44"/><polygon fill="#5B5E71" points="33.703 12.106 33.705 12.742 27.596 16.269 27.594 15.633"/><polygon fill="#5B5E71" points="33.697 10.171 33.699 10.807 24.984 15.838 24.983 15.203"/><polygon fill="#5B5E71" points="33.725 19.861 33.727 20.482 25.012 25.514 25.01 24.892"/><polygon fill="#5B5E71" points="33.758 31.471 33.76 32.106 27.651 35.633 27.649 34.998"/><polygon fill="#5B5E71" points="33.752 29.55 33.754 30.172 25.039 35.203 25.037 34.582"/><polygon fill="#2ECC71" points="23.578 14.868 23.973 15.079 22.821 17.126 22.27 18.106 21.167 20.066 19.812 19.66 20.142 18.974 21.116 19.261 22.267 17.206 22.819 16.223"/><polygon fill="#5B5E71" points="22.815 15.04 22.819 16.223 22.267 17.206 22.264 15.995 18.662 18.074 18.674 22.198 22.276 20.119 22.27 18.106 22.821 17.126 22.83 20.421 18.135 23.132 18.12 17.75"/><polygon fill="#2ECC71" points="23.633 34.246 24.027 34.443 22.876 36.496 22.325 37.479 21.222 39.444 19.867 39.024 20.197 38.338 21.171 38.625 22.322 36.577 22.873 35.597"/><polygon fill="#5B5E71" points="22.87 34.418 22.873 35.597 22.322 36.577 22.319 35.359 18.717 37.438 18.729 41.563 22.33 39.483 22.325 37.479 22.876 36.496 22.885 39.8 18.19 42.511 18.174 37.129"/><polygon fill="#5B5E71" points="33.73 21.796 33.732 22.417 27.623 25.944 27.621 25.323"/><polygon fill="#D6B218" points="29.417 6.376 29.009 6.139 30.659 5.187 31.066 5.424"/><polygon fill="#F9BB4A" points="23.845 9.593 23.437 9.356 25.817 7.984 26.224 8.221"/><path fill="#F9BB4A" d="M28.1773,6.6227c-0.0001-0.0012-0.0002-0.0025-0.0003-0.0037c0.2211,0.1285,0.1867,0.1085,0.4077,0.237
					c0.0001,0.0012,0.0002,0.0025,0.0003,0.0037C28.3861,6.7441,28.3763,6.7384,28.1773,6.6227z"/><path fill="#C6A51A" d="M28.177,6.619c-0.047-0.6167-0.2834-1.0668-0.6775-1.2958l0.6632,0.3854
					c0.394,0.229,0.375,0.5306,0.422,1.1473C28.3637,6.7275,28.3981,6.7475,28.177,6.619z"/><polygon fill="#D6B218" points="28.587 6.858 26.225 8.223 23.844 9.597 23.436 9.359 25.817 7.986 28.179 6.621"/><path fill="#F1C40F" d="M23.0094,10.0753l-0.4078-0.237c0.0966-1.9886,1.4922-4.3295,3.1926-5.3112
					c0.8622-0.4978,1.6714-0.5812,2.2772-0.2291l0.4077,0.237c-0.6058-0.3521-1.415-0.2687-2.2772,0.2291
					C24.5017,5.7458,23.1061,8.0867,23.0094,10.0753z"/><polygon fill="#C6A51A" points="21.372 14.188 20.964 13.951 20.955 10.789 21.363 11.026"/><path fill="#E5BD13" d="M29.4172,6.3758l1.6492-0.9522l0.009,3.162l-9.7032,5.6022l-0.009-3.162l1.6463-0.9505
					c0.0966-1.9886,1.4922-4.3295,3.1926-5.3112c0.8622-0.4978,1.6714-0.5812,2.2772-0.2291
					C29.0397,4.8546,29.3696,5.5043,29.4172,6.3758z M28.585,6.8597c-0.0469-0.6264-0.2889-1.0814-0.6928-1.3081
					c-0.4491-0.2594-1.0477-0.2042-1.6876,0.1652c-1.2437,0.7181-2.262,2.4124-2.3601,3.8763L28.585,6.8597"/><polygon fill="#D6B218" points="21.363 11.026 20.955 10.789 22.602 9.838 23.009 10.075"/></svg>