<svg xmlns="http://www.w3.org/2000/svg" viewBox="0 0 130 130"><path fill="#b9c9c8" d="m128.828 89.443-.015 2.49L65.356 129l.015-2.49z" class="colorb9c0c9 svgShape"/><path fill="#c8d6d5" d="m65.371 126.51-.015 2.49L1.155 91.933l.016-2.49z" class="colorc8cdd6 svgShape"/><path fill="#e3f0ef" d="M128.828 89.443 65.371 126.51l-64.2-37.067 63.783-37.067z" class="colore3e7f0 svgShape"/><path fill="#65cec5" d="m128.221 38.434.778-.452-.171 51.461-.777.452z" class="colorce7665 svgShape"/><path fill="#83e2da" d="m128.224 38.424-.18 51.487-63.233-36.553.172-51.452zM1.778 38.434 1 37.982l.171 51.461.777.452z" class="colore29883 svgShape"/><path fill="#9cefe8" d="m129 37.985-.776.448L64.991 1.905 1.778 38.433l-.776-.448L64.991 1z" class="colorefac9c svgShape"/><path fill="#65cec5" d="m1.775 38.424.18 51.488 63.208-36.554-.18-51.452z" class="colorce7665 svgShape"/><path fill="#6bf9ed" d="m34.956 26.545.043 12.31 23.395-13.507-.042-12.31zM9.994 40.957l.042 12.31L33.432 39.76l-.043-12.31z" class="color6b9ef9 svgShape"/><path fill="#83e2da" d="m58.352 13.038-1.039-.604.042 12.31 1.039.604z" class="colore29883 svgShape"/><path fill="#8efcf3" d="m53.788 15.672-.435.252-8.52 17.254 3.032-1.751zM43.582 21.565l-4.293 13.621.678-.391 8.337-15.956z" class="color8eabfc svgShape"/><path fill="#9cefe8" d="m58.394 25.348-1.039-.604L33.96 38.252l1.039.603z" class="colorefac9c svgShape"/><path fill="#61c2ba" d="m34.956 26.545-1.039-.604.043 12.311 1.039.603z" class="color617fc2 svgShape"/><path fill="#6dd9d0" d="m58.352 13.038-1.039-.604-23.396 13.507 1.039.604z" class="color6d8ed9 svgShape"/><path fill="#83e2da" d="m33.389 27.45-1.039-.604.043 12.31 1.039.604z" class="colore29883 svgShape"/><path fill="#8efcf3" d="m29.482 29.706-.314.181-8.52 17.254 2.91-1.681zM19.199 35.643l-4.293 14.813.867-.5 8.337-17.149z" class="color8eabfc svgShape"/><path fill="#9cefe8" d="m33.432 39.76-1.039-.604L8.997 52.664l1.039.603z" class="colorefac9c svgShape"/><path fill="#61c2ba" d="m9.994 40.957-1.039-.604.042 12.311 1.039.603z" class="color617fc2 svgShape"/><path fill="#6dd9d0" d="m33.389 27.45-1.039-.604L8.955 40.353l1.039.604z" class="color6d8ed9 svgShape"/><path fill="#65cec5" d="M59.707 26.09 8.737 55.519l-.051-15.306 50.97-29.428.05 15.307zM34.999 38.856l23.395-13.507-.042-12.31-23.396 13.507.043 12.31M10.036 53.268 33.432 39.76l-.043-12.31L9.994 40.957l.042 12.31" class="colorce7665 svgShape"/><path fill="#455957" d="m59.37 63.529 14.621-8.497.021-7.645-14.621 8.497z" class="color454859 svgShape"/><path fill="#5b706e" d="m59.391 55.884 14.621-8.497-3.784-2.184-14.621 8.496z" class="color5b5d70 svgShape"/><path fill="#506664" d="m94.262 83.674 14.621-8.497-34.892-20.145-14.621 8.497z" class="color505366 svgShape"/><path fill="#455957" d="m108.351 61.189-.05 10.643-2.597 1.509.05-10.643z" class="color454859 svgShape"/><path fill="#3a4c4b" d="m105.754 62.698-.05 10.643-31.713-18.309.05-10.643z" class="color3a3d4c svgShape"/><path fill="#5b706e" d="m108.351 61.189-2.597 1.509-31.713-18.309 2.597-1.51zM98.068 78.214l14.621-8.497-3.785-2.185-14.621 8.497z" class="color5b5d70 svgShape"/><path fill="#455957" d="m98.034 90.207 14.621-8.497.034-11.993-14.621 8.497z" class="color454859 svgShape"/><path fill="#3a4c4b" d="m55.607 53.699-.034 11.993 42.461 24.515.034-11.993-3.785-2.185-.021 7.645L59.37 63.529l.021-7.645zM20.261 76.851l-.002 12.954-7.388 4.315.002-12.954z" class="color3a3d4c svgShape"/><path fill="#506664" d="m12.873 81.166-.002 12.954-7.474-4.315.002-12.954z" class="color505366 svgShape"/><path fill="#5b706e" d="m20.261 76.851-7.388 4.315-7.474-4.315 7.426-4.316z" class="color5b5d70 svgShape"/><path fill="#455957" d="M18.226 80.663v3.574l-3.32 1.94v-3.574z" class="color454859 svgShape"/><path fill="#506664" d="M17.702 80.97v3.573l.524-.306v-3.574z" class="color505366 svgShape"/><path fill="#5b706e" d="m17.702 83.834-2.796 1.651v.692l3.32-1.94z" class="color5b5d70 svgShape"/><path fill="#3a4c4b" d="m11.569 82.402-.001.919-4.867-2.81.001-.919zM11.569 84.656l-.001.919-4.867-2.809.001-.919zM11.569 86.911l-.001.919-4.867-2.81.001-.919z" class="color3a3d4c svgShape"/><path fill="#7efcf2" d="m17.03 68.217-.004 8.01c-.002.64-.423 1.278-1.263 1.767-1.689.981-4.437.982-6.138 0-.856-.494-1.284-1.143-1.282-1.79l.004-8.01c-.002.647.425 1.296 1.281 1.79 1.701.982 4.45.981 6.138 0 .84-.488 1.261-1.127 1.263-1.767z" class="color7ea5fc svgShape"/><path fill="#41e1d4" d="m17.03 73.72-.004.816c-.002.64-.423 1.279-1.263 1.767-1.689.981-4.437.982-6.138 0-.856-.494-1.284-1.143-1.282-1.79l.004-.816c-.002.648.425 1.296 1.281 1.79 1.701.983 4.45.982 6.138 0 .84-.488 1.261-1.127 1.263-1.766zm0-3.604-.004.816c-.002.64-.423 1.278-1.263 1.766-1.689.982-4.437.983-6.138 0-.856-.494-1.284-1.142-1.282-1.79l.004-.815c-.002.647.425 1.296 1.281 1.79 1.701.982 4.45.981 6.138 0 .84-.489 1.261-1.127 1.263-1.767z" class="color5598f9 svgShape"/><path fill="#8efcf3" d="M15.953 70.308c-1.687.982-4.436.982-6.138 0s-1.71-2.576-.019-3.554c1.688-.983 4.436-.983 6.138 0 1.703.978 1.71 2.572.02 3.554z" class="color8eabfc svgShape"/><path fill="#6bf9ed" d="M14.449 69.223c-.965.562-2.538.562-3.511 0-.974-.562-.979-1.473-.011-2.033.965-.562 2.537-.562 3.511 0 .974.56.978 1.471.01 2.033z" class="color6b9ef9 svgShape"/><path fill="#82ede4" d="M69.002 56.59v-2.056c.122-.156.243-.332.36-.557.392-.744.495-.947.353-1.776a27.045 27.045 0 0 1-.254-1.772c-.318-3.157 3.726-3.277 3.726-3.277-.342.526-1.38 2.523-1.78 4.214-.304 1.284-.612 2.618-.624 3.903-.025 1.64.06 3.266.11 4.906a28.763 28.763 0 0 0-.685-.477c.134-.686.208-1.334.232-1.982l-1.438-1.125z" class="color8294ed svgShape"/><path fill="#77fcf1" d="M76.383 48.059s-.6-.343-.576-1.558c.024-1.216-3.124-.327-3.124-.327l-.598 3.567 1.016 2.338 3.282-4.02z" class="colorfcc977 svgShape"/><path fill="#8cf7ee" d="M70.444 54.26c-.27-1.398-.233-2.69-.191-3.688.02-.473.087-.943.253-1.386.798-2.132 2.497-2.033 2.497-2.033a25.78 25.78 0 0 0-.07 1.788c-.002.955 1.144 1.447 1.839.792.846-.797 1.611-1.674 1.611-1.674 1.758 1.019 3.544 2.469 3.544 2.469s-.92 1.873-1.095 5.23c-.175 3.358.384 5.334.287 6.07-.14 1.069-1.73 1.954-1.73 1.954a19.312 19.312 0 0 1-4.584-.627 6.333 6.333 0 0 1-3.043-1.804c-.238-.256-.333-.842-.332-.963.02-1.336 1.304-4.616 1.013-6.127z" class="color8ca8f7 svgShape"/><path fill="#94fff6" d="M71.351 47.217a.602.602 0 0 0-.045-.47c-.207-.393-.595-1.171-.629-1.574-.047-.552 2.534-1.312 2.534-1.312l2.548 1.018.101 1.51s.163.229-.297.624a.771.771 0 0 0-.256.654c.014.167.014.339-.031.42-.104.187-1.705 1.92-2.754 1.653 0 0-.692.022-.735-1.348 0 0-.895.212-.436-1.175z" class="colorffdd94 svgShape"/><path fill="#455957" d="M71.478 42.819c1.79-1.69 3.113-.387 3.113-.387 1.966.206 1.892 3.24 1.892 3.24.048.978-.502 1.459-.751 1.186-.25-.273-.077-.608-.077-.608.114-.275.062-.454.062-.454-.102-.283-.272-.333-.417-.313a.484.484 0 0 0-.339.236l-.32.527a.366.366 0 0 1-.39.17c-.841-.185-1.858-1.379-1.858-1.379-2.713 1.264-2.706-.528-.915-2.218z" class="color454859 svgShape"/><path fill="#d9e8e7" d="m72.698 60.185-.364.369-2.342-7.954-5.618-2.768.364-.382 5.631 2.767z" class="colord9dfe8 svgShape"/><path fill="#bccccb" d="m69.998 52.596 2.337 7.958-5.625-2.766-2.337-7.958z" class="colorbcc2cc svgShape"/><path fill="#d7f7f4" d="M67.172 55.506c.037.157-.698.46-.899.49s-.393-.073-.43-.229c-.036-.156.133-.231.325-.29.233-.07.968-.127 1.004.03z" class="colorf7d7e1 svgShape"/><path fill="#b3e2de" d="M66.112 55.92a.517.517 0 0 1-.215-.048.416.416 0 0 0 .376.124c.128-.019.473-.15.697-.282-.326.108-.696.209-.858.207z" class="colore2b3c7 svgShape"/><path fill="#d7f7f4" d="M67.195 54.965c.048.175-.755.572-.976.62-.222.049-.441-.053-.49-.228-.047-.174.137-.271.348-.351.256-.098 1.07-.215 1.118-.04z" class="colorf7d7e1 svgShape"/><path fill="#b3e2de" d="M66.036 55.511a.558.558 0 0 1-.242-.039c.093.1.258.15.425.113.141-.03.518-.204.76-.37-.356.146-.763.287-.943.296z" class="colore2b3c7 svgShape"/><path fill="#d7f7f4" d="M67.078 54.544c.048.175-.754.572-.976.62-.222.049-.44-.053-.489-.228-.048-.174.137-.271.348-.351.255-.097 1.07-.215 1.117-.04z" class="colorf7d7e1 svgShape"/><path fill="#b3e2de" d="M65.92 55.09a.558.558 0 0 1-.242-.039c.092.1.257.15.424.113.142-.03.519-.204.762-.37-.358.146-.764.287-.944.297z" class="colore2b3c7 svgShape"/><path fill="#d7f7f4" d="M66.69 54.356c.023.158-.753.353-.96.354-.208.001-.395-.126-.418-.284-.023-.158.156-.208.358-.238.243-.037.997.01 1.02.168z" class="colorf7d7e1 svgShape"/><path fill="#b3e2de" d="M65.572 54.614a.567.567 0 0 1-.215-.077.456.456 0 0 0 .372.173c.132 0 .496-.08.736-.179-.342.06-.728.107-.893.083z" class="colore2b3c7 svgShape"/><path fill="#94fff6" d="M69.137 56.16c-.175.003-.236-.055-.236-.055-.076-.06-.097-.073-.109-.116-.091-.188.413-.14.432-.14-.283-.067-.39-.18-.427-.256-.024-.069-.01-.11-.01-.11.014-.009.296-.144.861.042.372.129.46.013.47-.088a.119.119 0 0 0-.062-.12c-.211-.112-.255-.176-.328-.339a1.853 1.853 0 0 1-.078-.206c-.011-.05.023-.1.06-.082.116.045.18.083.606.365.219.137.378.276.494.401.241.26 1.04.672 1.432.728.693.111 1.998.416 2.637.76.892.481 1.264-1.61 1.298-1.722 0 0 .787-1.02 1.067-.838.446.388.802-.068 1.36.064.158.052.257.068.329.086.294.2.097 1.46.427 1.573-.54.989-1.66 1.82-2.577 2.828-.625.693-1.51.82-2.227.323-1.065-.734-3.196-2.557-3.587-2.37-.451.215-1.405.109-1.744-.045-.09-.044-.14-.088-.158-.123-.043-.093.413-.095.472-.136-.039.008-.224.05-.53-.119a.292.292 0 0 1-.146-.113c-.03-.077.177-.187.274-.192z" class="colorffdd94 svgShape"/><path fill="#82ede4" d="M76.077 55.275c.234-1.168.845-2.686 1.04-3.21.527-1.407 2.2-2.054 2.955-1.395.757.657 1.11 1.885.583 3.29-.172.462-.884 1.697-1.46 2.581-1.323-.59-3.243-.628-3.118-1.266z" class="color8294ed svgShape"/><path fill="#3a4c4b" d="M69.882 81.053c.025.174-.225.398-.674.524-.124.026-.249.05-.373.074-.25.05-.424.126-.5.226-.174.25-.623.498-1.246.697-1.147.324-2.519.324-3.067-.024-.125-.1-.2-.2-.2-.3l-.05-.499v-.024c0-.6.998-1.247 1.82-1.696.948-.524.799-.823.799-.823s2.07-.224 2.718.225c.499.348.673.897.723 1.121v.1l.05.4zm-5.486-1.346c-.175.25-.599.498-1.222.673-1.172.35-2.544.35-3.067-.024-.15-.076-.225-.176-.225-.3l-.05-.475v-.074c.05-.574 1.023-1.247 1.82-1.67.948-.5.799-.824.799-.824s2.07-.2 2.718.226c.524.374.673.921.723 1.121.025.074.025.1.025.1l.025.4c.025.198-.224.397-.649.523-.15.05-.274.074-.398.1-.25.024-.424.124-.5.224z" class="color3a3d4c svgShape"/><path fill="#455957" d="M79.1 62.006s-7.403 2.126-9.627-1.463c0 0-8.706 3.205-7.123 8.193 0 0 1.204 6.29 0 8.355 0 0 1.546 1.41 3.612 1.101 0 0 .413-2.195.482-3.916.07-1.72.55-4.1-.586-6.68 0 0 1.162-.408 2.809-1.387-.921.741-1.818 1.715-1.784 2.693.069 1.996.381 7.824-.786 10.574 0 0 1.016 1.065 3.492.57 0 0 .918-4.26 1.004-5.138.085-.876.45-3.402.107-5.243 0 0 9.637-4.312 8.4-7.66z" class="color454859 svgShape"/><path fill="#2d746e" d="M79.127 61.744s-7.622 1.821-9.697-1.357c0 .047-.173.238-.45.355.668 1.008 1.704 1.566 2.857 1.885-1.138 2.358-1.713 2.354-2.856 2.997-.133.075-.314.585-.314.585 2.366-1.066 3.418-2.73 3.78-3.442.705.136 1.43.221 2.15.221 2.028 0 3.89-.426 4.597-.606.008-.127-.067-.638-.067-.638z" class="color2d3a74 svgShape"/><path fill="#94fff6" d="M87.005 68.52c-.017.012-.224.22-.372.24-.147.02-.383-.192-1.143.167-.52.238-.796.403-.918.484a.07.07 0 0 0 .008.12.477.477 0 0 0 .142.046c.157.041.407.027.727-.213.04-.03.097-.024.124.018.054.08.065.247-.316.527-.57.435-.708.803-.715.822 0 0 .015.045.084.064.078.018.233-.013.502-.247-.016.02-.45.485-.257.524.04.014.095.006.194-.026 0 0 .053-.027.188-.205-.07.103-.169.277-.091.295.038.003.093-.004.189-.064.35-.19.467-.3.499-.341-.026.088-.09.303.007.328.038.004.102-.014.206-.076.365-.231.999-.842 1.113-1.467a.624.624 0 0 1 .281-.424l.124-.076-.576-.495z" class="colorffdd94 svgShape"/><path fill="#76e5dc" d="M91.379 64.989h-1.984a1.31 1.31 0 0 1-.478 1.278l-2.403 2.405c-.044.276.184.674.71.862l3.635-2.63c.328-.253.524-.642.518-1.057-.004-.243-.002-.537.002-.858z" class="colore576ad svgShape"/><path fill="#93fdf4" d="M96.15 69.221c-1.867-2.577-.102-5.204-.102-5.204 2.507-3.504.158-3.136-.628-3.97-.785-.833-.845-1.177-.845-1.177s-2.254-.872-3.676-.686c-.587.076-1.6.113-1.858.876-.288.853-.22 2.128-.16 2.77.024.261-.06.513-.214.725-1.29 1.786.362 2.519.945 3.859.67 1.542-.581 4.655-.581 4.655-.438 2.913 1.931 3.578 4.057 3.702v-1.677l4.325-.314c-.146-1.46-.145-2.016-1.263-3.559z" class="colorfd93bf svgShape"/><path fill="#77fcf1" d="M91.273 58.162c.168 0 .447-.251.41-.409-.28-1.265 2.641-1.042 2.641-1.042s.177 1.534.251 2.157c0 0 .037.178.326.559-.39.326-.963.333-1.544.53-.557.188-1.635 1.115-1.635 1.115-.132-1.751-.855-1.757-.449-2.91z" class="colorfcc977 svgShape"/><path fill="#94fff6" d="M93.015 54.113c-.791.02-1.338-.493-1.662-.263-.877.622-.48 2.063-.293 2.977.203.985.852 1.928 1.263 2.18.32.196.72.196 1.05.003 2.544-1.48 2.568-2.805 2.568-2.805s.003-2.169-2.926-2.092z" class="colorffdd94 svgShape"/><path fill="#76e5dc" d="M95.13 63.51c-3.083 4.654-4.058.25-4.058.25.295 3.93 4.228 1.809 4.228 1.809l-.17-2.059z" class="colore576ad svgShape"/><path fill="#83f2e9" d="M84.168 89.389v.02l.043.43c0 .085.065.17.193.256.45.3 1.627.3 2.612.021.556-.171.92-.385 1.07-.599.064-.086.214-.15.428-.193l.322-.064c.385-.108.599-.3.578-.45l-.022-.363s0-.022-.021-.065c-.043-.192-.171-.664-.621-.963-.557-.386-2.334-.193-2.334-.193s.129.257-.685.706c-.706.386-1.563.942-1.563 1.457zm-3.36-1.927v.15l.02.343a.33.33 0 0 0 .193.257c.45.32 1.649.32 2.633.02.536-.15.9-.363 1.05-.577.064-.086.235-.172.428-.193.107-.022.235-.043.342-.085.364-.108.578-.28.557-.45l-.022-.32v-.023s0-.022-.02-.085c-.044-.172-.172-.642-.622-.963-.556-.365-2.333-.194-2.333-.194s.128.278-.664.707c-.685.364-1.52.92-1.563 1.413z" class="colorf283b5 svgShape"/><path fill="#455957" d="M86.17 87.456s.871.914 2.997.49c0 0 .788-3.657.862-4.41.073-.754.386-2.922.092-4.503 0 0 8.274-3.702 7.211-6.576 0 0-6.355 1.826-8.265-1.255 0 0-7.474 2.75-6.115 7.034 0 0 1.034 5.4 0 7.173 0 0 1.327 1.211 3.1.945 0 0 .356-1.884.415-3.361.06-1.477.471-3.521-.503-5.737 0 0 1.275-.67 3.512-2.326 0 0-2.093 2.272-2.034 3.986.06 1.713-.27 6.18-1.273 8.54z" class="color454859 svgShape"/><path fill="#2d746e" d="M97.356 72.233s-6.544 1.564-8.325-1.165c0 .04-.149.204-.386.304 1.012 1.53 2.977 1.93 4.822 1.93 1.741 0 3.34-.367 3.946-.522.007-.108-.057-.547-.057-.547z" class="color2d3a74 svgShape"/><path fill="#5b706e" d="m81.481 86.338.001 11.088c0 .148.098.297.293.41.393.228 1.03.228 1.426 0 .199-.115.298-.265.298-.416l-.001-11.087c0 .15-.099.3-.298.416-.395.228-1.033.227-1.425 0-.196-.114-.293-.262-.294-.41z" class="color5b5d70 svgShape"/><path fill="#455957" d="m80.837 86.096.001.481c.001.244.161.487.48.673.644.373 1.69.373 2.337 0 .325-.188.488-.435.487-.682l-.001-.48c0 .246-.162.493-.488.68-.647.375-1.693.374-2.335 0-.32-.185-.48-.428-.48-.672z" class="color454859 svgShape"/><path fill="#fff" d="M81.318 86.769c.642.373 1.688.373 2.335 0 .648-.374.65-.98.007-1.353-.642-.374-1.688-.374-2.335 0-.648.373-.65.979-.007 1.353z" class="colorffffff svgShape"/><path fill="#5b706e" d="M68.357 93.916v11.087c0 .149.099.297.294.41.392.228 1.03.229 1.425 0 .2-.114.298-.265.298-.415V93.91c0 .15-.1.301-.298.416-.395.228-1.034.228-1.426 0-.195-.113-.293-.262-.293-.41z" class="color5b5d70 svgShape"/><path fill="#455957" d="m67.712 93.674.002.48c0 .244.16.487.48.673.643.374 1.689.374 2.336 0 .326-.188.488-.435.488-.681l-.002-.48c.001.246-.162.492-.487.68-.648.374-1.693.374-2.336 0-.32-.186-.48-.429-.48-.672z" class="color454859 svgShape"/><path fill="#fff" d="M68.193 94.346c.642.374 1.688.374 2.336 0 .647-.374.65-.98.007-1.352-.642-.374-1.688-.374-2.336 0-.648.372-.65.978-.007 1.352z" class="colorffffff svgShape"/><path fill="#5b706e" d="m52.898 69.836.001 11.087c0 .149.098.297.293.41.393.228 1.031.229 1.426 0 .199-.114.298-.265.298-.415l-.001-11.088c0 .15-.099.301-.298.416-.395.228-1.033.228-1.425 0-.196-.113-.293-.262-.294-.41z" class="color5b5d70 svgShape"/><path fill="#455957" d="m52.254 69.594.001.48c.001.244.161.487.48.673.644.374 1.69.374 2.337 0 .325-.188.488-.435.487-.681l-.001-.48c0 .246-.162.492-.488.68-.647.374-1.693.374-2.335 0-.32-.185-.48-.428-.48-.672z" class="color454859 svgShape"/><path fill="#fff" d="M52.735 70.266c.642.374 1.688.374 2.335 0 .648-.373.651-.98.007-1.352-.642-.374-1.687-.374-2.335 0-.648.372-.65.978-.007 1.352z" class="colorffffff svgShape"/><path fill="#5b706e" d="M39.774 77.413v11.088c0 .148.099.297.294.41.392.228 1.03.228 1.425 0 .2-.115.298-.265.298-.416V77.408c0 .15-.1.3-.298.416-.395.228-1.034.227-1.426 0-.195-.114-.293-.262-.293-.41z" class="color5b5d70 svgShape"/><path fill="#455957" d="M39.13 77.172v.48c.001.244.162.487.481.673.643.373 1.689.374 2.336 0 .326-.188.488-.435.488-.681l-.002-.481c.001.246-.162.493-.487.68-.648.375-1.693.374-2.336 0-.32-.185-.48-.428-.48-.671z" class="color454859 svgShape"/><path fill="#fff" d="M39.61 77.844c.642.374 1.688.374 2.336 0 .648-.374.65-.98.007-1.353-.642-.373-1.688-.373-2.336 0-.648.373-.65.98-.007 1.353z" class="colorffffff svgShape"/><g class="color000000 svgShape" opacity=".5"><path fill="#56b2ab" d="m87.373 86.1-.003 1.243c-.003.424-.281.846-.837 1.17L70.754 97.68c-1.118.651-2.938.651-4.065 0L36.111 80.026c-.568-.327-.852-.757-.85-1.185l.004-1.24c0 .427.284.855.849 1.179l30.578 17.655c1.127.65 2.948.65 4.069 0l15.775-9.169c.556-.323.837-.745.837-1.166z" class="color56b256 svgShape"/><path fill="#96d6d1" d="M86.522 84.91c1.127.651 1.135 1.706.015 2.357l-15.778 9.17c-1.12.65-2.94.649-4.068-.002L36.113 78.781c-1.127-.65-1.133-1.704-.013-2.355l15.778-9.17c1.12-.65 2.939-.65 4.066 0l30.578 17.655z" class="color96d696 svgShape"/></g><path fill="#fff" d="m64.533 72.215-27.069 7.346 1.609.929 29.642-5.86zM78.458 80.255 51.389 87.6l1.792 1.035 29.642-5.86z" class="colorffffff svgShape" opacity=".2"/><path fill="#94fff6" d="M93.066 70.772c-.018.01-.252.186-.4.186-.15 0-.355-.242-1.157.01a7.036 7.036 0 0 0-.975.355.07.07 0 0 0-.008.12.486.486 0 0 0 .135.065c.15.062.399.082.748-.112.044-.024.1-.01.122.034.041.088.03.253-.385.48-.625.354-.812.699-.82.717 0 0 .008.047.074.075.074.028.233.019.531-.177-.019.019-.513.42-.326.485.037.018.093.018.196 0 0 0 .056-.02.214-.177-.084.092-.205.25-.13.279.037.01.093.01.195-.037.373-.14.504-.233.541-.27-.037.083-.13.288-.037.326.037.009.102 0 .214-.047.394-.18 1.104-.699 1.302-1.303a.624.624 0 0 1 .336-.381l.134-.06-.504-.568z" class="colorffdd94 svgShape"/><path fill="#76e5dc" d="M97.409 61.91s-.394-1.83-2.01-1.074c-1.256.588-.396 4.58.051 6.333.13.51-.055 1.04-.47 1.365l-2.402 2.404c-.044.276.183.674.709.863l3.636-2.63c.328-.253.523-.643.517-1.057-.024-1.641.168-5.449-.031-6.204z" class="colore576ad svgShape"/><path fill="#455957" d="M96.54 55.365c-.01-.15-.22-.9-.32-1.16v-.01c-.03-.1-.06-.21-.1-.32-.28-.86-2.85-3.39-4.98-.36 0 0-1.07 1.09-.09 3.27-.05-.35-.49-3.17.59-2.42 2.41 1.66 3.91-.044 3.071 2.978 0 0 .206-.771.456-1.221.27-.45.643-.247.593.143-.03.38-.31.44-.5.87-.14.31-.25.81-.25.81l.13-.13c-.02.04-.02.08-.03.13-.01.11-.01.22-.02.33-.06.37-.27.69-.44 1.02-.3.58-.48 1.22-.66 1.85-.06.22-.12.45-.14.68.07-.02.14-.08.16-.16v.35c.03.01.06-.02.08-.05.02-.03.04-.07.08-.07.01 0 .02 0 .03.01.01-.04.01-.08.02-.12.04.13.06.26.07.39 0-.04.01-.08.01-.12v.14c.01-.05.01-.1.02-.16.01.07.02.15.02.22.04-.06.07-.12.11-.17.03.07.04.14.04.22.04-.08.09-.17.13-.25 0 .09.01.18.01.27.03-.06.05-.12.07-.18a.4.4 0 0 1 .01.19c.02-.08.06-.14.12-.19 0 .05.01.1.01.15.02-.06.03-.12.05-.18 0 .09 0 .18-.01.28.06-.08.1-.16.14-.24-.02.08.03.18.11.22.06-.13.11-.27.15-.41 0 .14.03.29.07.42.08-.27.14-.55.18-.83-.01.08.01.16.06.23l.18-.57c.02.12.02.24.02.36.02-.17.05-.35.1-.52-.02.13-.01.27.03.39.13-.32.23-.66.3-1v.18c.2-.71-.16-1.47-.12-2.21.02-.44.17-.86.27-1.28.11-.51.22-1.25.17-1.77z" class="color454859 svgShape"/><path fill="#455957" d="M94.19 61.955c0-.01.01-.03.01-.05.01.02.02.05-.01.05z" class="color454859 svgShape"/><path fill="#76e5dc" d="M91.072 63.759s-.145 2.925-2.158 1.577c.236.308.48.627.652.986.89-.081 1.71-.647 1.506-2.563z" class="colore576ad svgShape"/></svg>