<svg xmlns="http://www.w3.org/2000/svg" enable-background="new 0 0 100 100" viewBox="0 0 100 100"><path fill="#00cdbc" d="M22.558,64.437l7.048-4.096c-0.002,0.682,0.485,1.525,1.082,1.87l-7.048,4.096
				C23.043,65.962,22.556,65.119,22.558,64.437z" class="color0085cd svgShape"/><path fill="#cdcdcd" d="M50.204,70.983c0.3,0.173,0.572,0.188,0.769,0.074l-7.048,4.096
				c-0.197,0.114-0.469,0.099-0.769-0.074C45.27,73.851,48.089,72.212,50.204,70.983z" class="colorcdcdcd svgShape"/><path fill="#cdcdcd" d="M50.204,70.983c-2.35,1.365-4.699,2.73-7.048,4.096c-0.597-0.345-1.084-1.188-1.082-1.87
				c2.349-1.365,4.698-2.73,7.047-4.096c-2.349,1.365-4.698,2.73-7.047,4.095c0.001-0.341,0.123-0.581,0.318-0.694l7.048-4.096
				c-0.195,0.113-0.317,0.354-0.318,0.694C49.12,69.796,49.607,70.639,50.204,70.983z" class="colorcdcdcd svgShape"/><path fill="#04cdbd" d="M50.973,71.057l-7.048,4.096c0.195-0.113,0.316-0.353,0.317-0.693
				c0.002-0.686-0.482-1.527-1.079-1.872l7.048-4.096c0.597,0.345,1.081,1.186,1.079,1.872
				C51.288,70.704,51.167,70.944,50.973,71.057z" class="colorcd8004 svgShape"/><path fill="#cdcdcd" d="M54.539 73.486c-2.349 1.365-4.699 2.73-7.048 4.096-.597-.345-1.084-1.188-1.082-1.87 2.349-1.365 4.698-2.73 7.047-4.096-2.349 1.365-4.698 2.73-7.047 4.095.001-.34.122-.581.318-.694l7.048-4.096c-.195.113-.317.354-.318.694C53.455 72.299 53.942 73.142 54.539 73.486zM46.637 68.554L39.59 72.65c-.197.114-.469.099-.769-.074l7.048-4.096C46.168 68.654 46.441 68.669 46.637 68.554z" class="colorcdcdcd svgShape"/><path fill="#04cdbd" d="M29.386,65.006l7.048-4.096c0.198-0.115,0.471-0.099,0.771,0.074l-7.048,4.096
				C29.857,64.906,29.583,64.891,29.386,65.006z" class="colorcd8004 svgShape"/><path fill="#04cdbd" d="M38.827,70.086c0.597,0.345,1.081,1.186,1.079,1.872c-0.002,0.683-0.489,0.964-1.086,0.619
				l-8.67-5.006c-0.597-0.345-1.084-1.188-1.082-1.87c0.002-0.686,0.492-0.965,1.089-0.62L38.827,70.086z" class="colorcd8004 svgShape"/><polygon fill="#cdcdcd" points="30.15 67.571 37.198 63.475 45.868 68.48 38.82 72.576" class="colorcdcdcd svgShape"/><path fill="#04cdbd" d="M45.875,65.99l-7.048,4.096c0.597,0.345,1.081,1.186,1.079,1.872c0,0.034-0.002,0.067-0.004,0.099
				c-0.001,0.008-0.001,0.016-0.002,0.024c-0.001,0.01-0.002,0.021-0.004,0.031c-0.001,0.009-0.002,0.018-0.003,0.027
				c-0.001,0.008-0.003,0.016-0.004,0.024c-0.002,0.01-0.003,0.021-0.006,0.032c-0.001,0.007-0.003,0.013-0.004,0.019
				c-0.003,0.011-0.005,0.023-0.008,0.034c-0.002,0.008-0.004,0.015-0.006,0.022c-0.003,0.009-0.005,0.019-0.008,0.028
				c-0.002,0.006-0.004,0.012-0.007,0.019c-0.003,0.01-0.007,0.02-0.011,0.029c-0.003,0.007-0.006,0.014-0.009,0.022
				c-0.003,0.008-0.006,0.016-0.01,0.023c-0.004,0.007-0.007,0.015-0.011,0.022c-0.004,0.007-0.007,0.014-0.011,0.021
				c-0.003,0.006-0.007,0.011-0.01,0.016c-0.005,0.008-0.009,0.016-0.014,0.023c-0.004,0.006-0.009,0.012-0.013,0.018
				c-0.004,0.006-0.008,0.012-0.013,0.018c-0.005,0.006-0.01,0.012-0.015,0.019c-0.004,0.005-0.009,0.011-0.013,0.016
				c-0.005,0.005-0.01,0.01-0.015,0.016c-0.005,0.005-0.01,0.011-0.015,0.016c-0.005,0.005-0.01,0.009-0.015,0.013
				c-0.006,0.005-0.011,0.01-0.017,0.015c-0.005,0.004-0.011,0.008-0.016,0.012c-0.006,0.005-0.012,0.009-0.018,0.013
				c-0.006,0.004-0.013,0.008-0.02,0.012c-0.005,0.003-0.01,0.006-0.015,0.009l7.048-4.096c0.195-0.113,0.316-0.353,0.317-0.693
				C46.956,67.176,46.472,66.335,45.875,65.99z" class="colorcd8004 svgShape"/><path fill="#cdcdcd" d="M46.409,75.712c1.784-1.037,3.568-2.073,5.352-3.11C49.977,73.638,48.193,74.675,46.409,75.712
				C46.409,75.712,46.409,75.712,46.409,75.712z" class="colorcdcdcd svgShape"/><path fill="#04cdbd" d="M46.726,75.018l7.048-4.096c0.198-0.115,0.471-0.099,0.771,0.074l-7.048,4.096
				C47.197,74.918,46.924,74.903,46.726,75.018z" class="colorcd8004 svgShape"/><path fill="#cdcdcd" d="M63.209,78.492c0.3,0.173,0.572,0.188,0.769,0.074l-7.048,4.096
				c-0.197,0.114-0.469,0.099-0.769-0.074C58.276,81.359,61.095,79.721,63.209,78.492z" class="colorcdcdcd svgShape"/><polygon fill="#cdcdcd" points="47.491 77.582 54.539 73.486 63.209 78.492 56.161 82.588" class="colorcdcdcd svgShape"/><path fill="#04cdbd" d="M63.978,78.566l-7.048,4.096c0.195-0.113,0.316-0.353,0.317-0.693
				c0.002-0.686-0.482-1.527-1.079-1.872l7.048-4.096c0.597,0.345,1.081,1.186,1.079,1.872
				C64.294,78.213,64.173,78.453,63.978,78.566z" class="colorcd8004 svgShape"/><path fill="#04cdbd" d="M56.161,82.588c0.597,0.345,1.084,0.064,1.086-0.619c0-0.004,0-0.008,0-0.012L56.161,82.588z
				 M47.498,75.092c-0.597-0.345-1.087-0.065-1.089,0.62c-0.002,0.683,0.485,1.526,1.082,1.87l2.153-1.251L47.498,75.092z" class="colorcd8004 svgShape"/><path fill="#cdcdcd" d="M67.544 80.995c.3.173.572.188.769.074l-7.048 4.096c-.197.114-.469.099-.769-.074C62.611 83.862 65.43 82.224 67.544 80.995zM66.462 79.125c-.002.682.485 1.526 1.082 1.87l-7.048 4.096c-.597-.345-1.084-1.188-1.082-1.87C61.764 81.855 64.113 80.49 66.462 79.125c-2.35 1.365-4.699 2.73-7.048 4.096.001-.341.122-.581.317-.694l7.048-4.096C66.585 78.544 66.463 78.784 66.462 79.125z" class="colorcdcdcd svgShape"/><path fill="#04cdbd" d="M68.313,81.069l-7.048,4.096c0.195-0.113,0.316-0.353,0.317-0.693
				c0.002-0.686-0.482-1.527-1.079-1.872l7.048-4.096c0.597,0.345,1.081,1.186,1.079,1.872
				C68.629,80.716,68.508,80.956,68.313,81.069z" class="colorcd8004 svgShape"/><path fill="#04cdbd" d="M60.503,82.6c0.597,0.345,1.081,1.186,1.079,1.872c-0.002,0.682-0.489,0.964-1.086,0.619
				c-0.597-0.345-1.084-1.188-1.082-1.87C59.417,82.535,59.907,82.256,60.503,82.6z" class="colorcd8004 svgShape"/><path fill="#cdcdcd" d="M29.729,67.229c0.13,0.138,0.272,0.256,0.421,0.342h0C30.001,67.484,29.858,67.367,29.729,67.229z
				 M29.07,65.637c0.001-0.021,0.003-0.041,0.004-0.06C29.072,65.596,29.071,65.616,29.07,65.637z M29.077,65.551
				c0.001-0.011,0.002-0.021,0.004-0.032C29.08,65.53,29.079,65.54,29.077,65.551z M29.086,65.489
				c0.002-0.009,0.003-0.018,0.005-0.026C29.089,65.472,29.088,65.481,29.086,65.489z M29.097,65.439
				c0.002-0.01,0.004-0.019,0.007-0.029C29.101,65.42,29.099,65.429,29.097,65.439z M29.111,65.383
				c0.002-0.008,0.004-0.016,0.007-0.023C29.115,65.368,29.113,65.375,29.111,65.383z M29.128,65.333
				c0.002-0.007,0.005-0.014,0.008-0.021C29.132,65.319,29.13,65.326,29.128,65.333z M29.149,65.28
				c0.002-0.004,0.003-0.008,0.005-0.012C29.153,65.271,29.151,65.276,29.149,65.28z M29.169,65.24
				c0.003-0.005,0.005-0.01,0.008-0.015C29.174,65.229,29.171,65.235,29.169,65.24z M29.191,65.201
				c0.003-0.005,0.006-0.011,0.01-0.016C29.197,65.19,29.194,65.195,29.191,65.201z M29.217,65.161
				c0.003-0.005,0.006-0.009,0.01-0.014C29.223,65.152,29.22,65.157,29.217,65.161z M29.244,65.126
				c0.003-0.004,0.007-0.008,0.01-0.012C29.251,65.117,29.248,65.122,29.244,65.126z M29.068,65.7c0-0.021,0.001-0.043,0.002-0.063
				C29.069,65.658,29.068,65.679,29.068,65.7z M29.285,65.082c-0.004,0.004-0.009,0.009-0.013,0.013
				C29.277,65.091,29.281,65.086,29.285,65.082z M29.304,65.065c0.005-0.004,0.009-0.008,0.014-0.012
				C29.313,65.057,29.308,65.061,29.304,65.065z M29.337,65.038c0.005-0.004,0.01-0.007,0.015-0.011
				C29.347,65.031,29.342,65.035,29.337,65.038z M29.387,65.005c0,0-0.001,0.001-0.002,0.001l0.004-0.002c0,0,0,0,0,0l-0.004,0.002
				c-0.005,0.003-0.01,0.006-0.015,0.009C29.376,65.012,29.382,65.008,29.387,65.005z M29.713,64.934c0.007,0,0.014,0,0.021,0.001
				C29.727,64.934,29.72,64.934,29.713,64.934z M29.762,64.938c0.007,0.001,0.014,0.001,0.021,0.003
				C29.776,64.94,29.769,64.939,29.762,64.938z M29.81,64.946c0.008,0.002,0.016,0.003,0.024,0.005
				C29.826,64.948,29.818,64.947,29.81,64.946z M29.865,64.958c0.007,0.002,0.013,0.003,0.02,0.005
				C29.879,64.961,29.872,64.96,29.865,64.958z M29.913,64.971c0.009,0.003,0.017,0.005,0.026,0.008
				C29.93,64.976,29.921,64.974,29.913,64.971z M29.955,64.985c0.012,0.005,0.025,0.009,0.037,0.014
				C29.98,64.994,29.967,64.99,29.955,64.985z M30.014,65.008c0.011,0.005,0.022,0.009,0.033,0.014
				C30.035,65.017,30.024,65.013,30.014,65.008z M30.093,65.045c0.003,0.002,0.006,0.003,0.008,0.004
				C30.098,65.048,30.096,65.047,30.093,65.045z M29.389,65.004C29.39,65.004,29.39,65.004,29.389,65.004l1.14-0.662L29.389,65.004z
				 M29.41,64.993c0.005-0.003,0.01-0.006,0.016-0.008C29.42,64.988,29.415,64.991,29.41,64.993z M29.447,64.976
				c0.006-0.003,0.012-0.005,0.019-0.008C29.459,64.971,29.453,64.973,29.447,64.976z M29.486,64.961
				c0.007-0.002,0.013-0.005,0.02-0.007C29.499,64.957,29.493,64.959,29.486,64.961z M29.53,64.949
				c0.006-0.001,0.013-0.003,0.019-0.005C29.542,64.946,29.536,64.947,29.53,64.949z M29.573,64.94
				c0.007-0.001,0.013-0.002,0.02-0.003C29.587,64.938,29.58,64.939,29.573,64.94z M29.617,64.935
				c0.007-0.001,0.014-0.001,0.022-0.002C29.632,64.933,29.624,64.934,29.617,64.935z M29.662,64.933c0.008,0,0.016,0,0.024,0
				C29.678,64.932,29.67,64.933,29.662,64.933z M36.117,61.617l-5.959,3.463l2.146,1.239l4.895-2.844
				C36.605,63.132,36.12,62.297,36.117,61.617z" class="colorcdcdcd svgShape"/><polygon fill="#00cdbc" points="22.682 20.847 29.73 16.751 29.606 60.341 22.558 64.437" class="color0085cd svgShape"/><path fill="#cdcdcd" d="M37.212,58.493c-2.349,1.365-4.699,2.73-7.048,4.096c-0.6-0.347-1.084-1.184-1.082-1.87
				c0.001-0.343,0.122-0.584,0.316-0.697l7.048-4.096c-0.195,0.113-0.315,0.354-0.317,0.697
				C36.128,57.309,36.612,58.147,37.212,58.493z" class="colorcdcdcd svgShape"/><path fill="#04cdbd" d="M29.399,60.022l7.048-4.096c0.197-0.115,0.471-0.098,0.773,0.076l-7.048,4.096
				C29.869,59.924,29.596,59.908,29.399,60.022z" class="colorcd8004 svgShape"/><path fill="#cdcdcd" d="M29.414,55.043l7.048-4.096c-0.195,0.113-0.316,0.354-0.317,0.695
				c-0.002,0.682,0.485,1.526,1.082,1.87l-7.048,4.096c-0.597-0.345-1.084-1.188-1.082-1.87
				C29.097,55.397,29.219,55.156,29.414,55.043z" class="colorcdcdcd svgShape"/><polygon fill="#04cdbd" points="30.157 65.08 37.205 60.984 45.875 65.99 38.827 70.086" class="colorcd8004 svgShape"/><path fill="#04cdbd" d="M29.414 55.043l7.048-4.096c.198-.115.471-.099.771.074l-7.048 4.096C29.885 54.943 29.612 54.928 29.414 55.043zM42.391 72.515l7.048-4.096c.198-.115.471-.1.771.074l-7.048 4.096C42.862 72.415 42.589 72.4 42.391 72.515z" class="colorcd8004 svgShape"/><polygon fill="#04cdbd" points="47.498 75.091 54.546 70.996 63.216 76.002 56.168 80.097" class="colorcd8004 svgShape"/><path fill="#cdcdcd" d="M59.415,83.22c1.784-1.037,3.568-2.073,5.351-3.11C62.982,81.147,61.198,82.184,59.415,83.22
				C59.415,83.221,59.415,83.22,59.415,83.22z" class="colorcdcdcd svgShape"/><path fill="#04cdbd" d="M59.732,82.526l7.048-4.096c0.198-0.115,0.471-0.099,0.771,0.074L60.503,82.6
				C60.203,82.427,59.93,82.411,59.732,82.526z" class="colorcd8004 svgShape"/><path fill="#cdcdcd" d="M69.726,77.265c0.3,0.174,0.573,0.189,0.77,0.075l-7.048,4.096
				c-0.197,0.114-0.469,0.098-0.77-0.075C64.793,80.132,67.612,78.494,69.726,77.265z" class="colorcdcdcd svgShape"/><path fill="#04cdbd" d="M70.496,77.34l-7.048,4.096c0.194-0.113,0.315-0.353,0.316-0.694
				c0.002-0.69-0.482-1.527-1.079-1.872l7.048-4.096c0.597,0.345,1.081,1.183,1.079,1.872C70.811,76.987,70.69,77.227,70.496,77.34z
				" class="colorcd8004 svgShape"/><path fill="#04cdbd" d="M62.685,78.87c0.597,0.345,1.081,1.182,1.079,1.872c-0.002,0.686-0.489,0.963-1.086,0.619
				L30.164,62.589c-0.6-0.347-1.084-1.184-1.082-1.87c0.002-0.689,0.489-0.967,1.089-0.62L62.685,78.87z" class="colorcd8004 svgShape"/><path fill="#cdcdcd" d="M62.685,78.87l4.894-2.844L37.212,58.493l-7.048,4.096l32.514,18.772l1.085-0.631
				C63.76,80.043,63.279,79.213,62.685,78.87z" class="colorcdcdcd svgShape"/><path fill="#cdcdcd" d="M61.07,67.278c0.3,0.173,0.572,0.188,0.769,0.074l-7.048,4.096
				c-0.197,0.114-0.469,0.099-0.769-0.074c2.349-1.365,4.698-2.73,7.047-4.095c-2.349,1.365-4.698,2.73-7.047,4.095
				c-0.597-0.345-1.084-1.188-1.082-1.87l7.048-4.096C59.986,66.09,60.473,66.933,61.07,67.278z" class="colorcdcdcd svgShape"/><path fill="#04cdbd" d="M61.839,67.352l-7.048,4.096c0.195-0.113,0.316-0.353,0.317-0.693
				c0.002-0.686-0.482-1.527-1.079-1.872l7.048-4.096c0.597,0.345,1.081,1.186,1.079,1.872
				C62.154,66.998,62.034,67.239,61.839,67.352z" class="colorcd8004 svgShape"/><path fill="#cdcdcd" d="M64.323 67.91c-.002.682.485 1.526 1.082 1.87l-7.048 4.096c-.597-.345-1.084-1.188-1.082-1.87C59.624 70.641 61.973 69.276 64.323 67.91c-2.35 1.365-4.699 2.73-7.048 4.096.001-.341.122-.581.318-.694l7.048-4.096C64.446 67.329 64.324 67.57 64.323 67.91zM56.735 64.775c.3.173.572.188.769.074l-7.048 4.096c-.197.114-.469.099-.769-.074C51.801 67.642 54.62 66.004 56.735 64.775z" class="colorcdcdcd svgShape"/><polygon fill="#cdcdcd" points="44.266 65.741 51.314 61.645 56.735 64.775 49.687 68.871" class="colorcdcdcd svgShape"/><path fill="#04cdbd" d="M57.504,64.849l-7.048,4.096c0.195-0.113,0.316-0.353,0.317-0.693
				c0.002-0.686-0.482-1.527-1.079-1.872l7.048-4.096c0.597,0.345,1.081,1.186,1.079,1.872
				C57.819,64.496,57.698,64.736,57.504,64.849z" class="colorcd8004 svgShape"/><path fill="#cdcdcd" d="M57.275,72.006c1.784-1.037,3.568-2.073,5.352-3.11C60.843,69.933,59.059,70.97,57.275,72.006
				C57.275,72.006,57.275,72.006,57.275,72.006z" class="colorcdcdcd svgShape"/><path fill="#04cdbd" d="M57.593,71.312l7.048-4.096c0.198-0.115,0.471-0.099,0.771,0.074l-7.048,4.096
				C58.064,71.212,57.79,71.197,57.593,71.312z" class="colorcd8004 svgShape"/><polygon fill="#cdcdcd" points="58.357 73.877 65.405 69.781 69.74 72.284 62.692 76.38" class="colorcdcdcd svgShape"/><path fill="#cdcdcd" d="M69.74 72.284c.3.173.572.188.769.074l-7.048 4.096c-.197.114-.469.099-.769-.074C64.807 75.151 67.626 73.512 69.74 72.284zM37.24 48.53c-2.349 1.365-4.699 2.73-7.048 4.096-.597-.345-1.084-1.188-1.082-1.87.001-.341.122-.581.318-.695l7.048-4.096c-.195.113-.317.354-.318.695C36.157 47.342 36.643 48.186 37.24 48.53zM43.416 56.714l-7.048 4.096c-.198.115-.471.1-.772-.074l7.048-4.096C42.944 56.813 43.218 56.828 43.416 56.714z" class="colorcdcdcd svgShape"/><path fill="#04cdbd" d="M29.428 50.061l7.048-4.096c.198-.115.471-.099.771.074l-7.048 4.096C29.899 49.962 29.626 49.947 29.428 50.061zM43.163 72.589c.597.345 1.081 1.186 1.079 1.872-.002.682-.489.963-1.086.619-.597-.345-1.084-1.188-1.082-1.87C42.076 72.523 42.566 72.244 43.163 72.589z" class="colorcd8004 svgShape"/><polygon fill="#04cdbd" points="30.185 55.117 37.233 51.021 42.651 54.149 35.603 58.244" class="colorcd8004 svgShape"/><path fill="#04cdbd" d="M43.416,56.714l-7.048,4.096c0.195-0.113,0.316-0.352,0.317-0.691
				c0.002-0.686-0.485-1.529-1.082-1.874l7.048-4.096c0.597,0.345,1.084,1.188,1.082,1.874C43.732,56.361,43.611,56.6,43.416,56.714
				z" class="colorcd8004 svgShape"/><path fill="#cdcdcd" d="M38.852,61.37c1.784-1.037,3.568-2.073,5.352-3.11C42.42,59.296,40.636,60.333,38.852,61.37
				C38.852,61.37,38.852,61.37,38.852,61.37z" class="colorcdcdcd svgShape"/><path fill="#cdcdcd" d="M46.979,59.143c0.301,0.174,0.574,0.189,0.772,0.074l-7.048,4.096
				c-0.198,0.115-0.471,0.1-0.772-0.074c-0.594-0.343-1.081-1.186-1.079-1.868c2.349-1.365,4.698-2.73,7.047-4.096
				c-2.349,1.365-4.698,2.73-7.047,4.095c0.001-0.341,0.123-0.582,0.318-0.695l7.048-4.096c-0.195,0.113-0.317,0.354-0.318,0.695
				C45.898,57.956,46.385,58.8,46.979,59.143z" class="colorcdcdcd svgShape"/><path fill="#04cdbd" d="M39.17,60.675l7.048-4.096c0.197-0.115,0.469-0.099,0.768,0.073l-7.048,4.096
				C39.64,60.575,39.367,60.56,39.17,60.675z" class="colorcd8004 svgShape"/><path fill="#04cdbd" d="M47.751,59.216l-7.048,4.096c0.195-0.113,0.316-0.352,0.317-0.691
				c0.002-0.686-0.485-1.529-1.082-1.874l7.048-4.096c0.597,0.345,1.084,1.188,1.082,1.874
				C48.067,58.864,47.946,59.103,47.751,59.216z" class="colorcd8004 svgShape"/><path fill="#cdcdcd" d="M43.505,63.178l7.048-4.096c-0.195,0.113-0.317,0.354-0.318,0.695
				c-0.002,0.682,0.485,1.526,1.079,1.868l-7.048,4.096c-0.594-0.343-1.081-1.186-1.079-1.868
				C43.188,63.532,43.31,63.291,43.505,63.178z" class="colorcdcdcd svgShape"/><path fill="#04cdbd" d="M43.505,63.178l7.048-4.096c0.197-0.115,0.469-0.099,0.768,0.073l-7.048,4.096
				C43.975,63.078,43.702,63.063,43.505,63.178z" class="colorcd8004 svgShape"/><path fill="#cdcdcd" d="M49.16,55.412c0.301,0.174,0.575,0.189,0.772,0.074l-7.048,4.096
				c-0.198,0.115-0.471,0.1-0.772-0.074C44.227,58.279,47.046,56.641,49.16,55.412z" class="colorcdcdcd svgShape"/><path fill="#04cdbd" d="M49.933,55.486l-7.048,4.096c0.195-0.113,0.316-0.352,0.317-0.691
				c0.002-0.686-0.485-1.529-1.082-1.874l7.048-4.096c0.597,0.345,1.084,1.188,1.082,1.874
				C50.249,55.134,50.127,55.373,49.933,55.486z" class="colorcd8004 svgShape"/><path fill="#04cdbd" d="M42.12,57.018c0.597,0.345,1.084,1.188,1.082,1.874c-0.002,0.682-0.492,0.962-1.089,0.617
				l-11.92-6.882c-0.597-0.345-1.084-1.188-1.082-1.87c0.002-0.686,0.492-0.965,1.089-0.62L42.12,57.018z" class="colorcd8004 svgShape"/><path fill="#cdcdcd" d="M42.12,57.018l4.895-2.844L37.24,48.53l-7.048,4.096l11.92,6.882l1.088-0.632
				C43.195,58.193,42.712,57.36,42.12,57.018z" class="colorcdcdcd svgShape"/><polygon fill="#04cdbd" points="30.199 50.136 37.248 46.04 49.168 52.922 42.12 57.018" class="colorcd8004 svgShape"/><path fill="#00cdbc" d="M20.518,18.352l7.048-4.096c-0.002,0.686,0.482,1.524,1.082,1.87L21.6,20.222
				C21,19.876,20.516,19.038,20.518,18.352z" class="color0085cd svgShape"/><path fill="#cdcdcd" d="M43.761,46.06c2.104,1.215,4.013,1.326,5.393,0.524l-7.048,4.096
				c-1.38,0.802-3.29,0.691-5.393-0.524c2.349-1.365,4.697-2.731,7.046-4.096c-2.349,1.365-4.698,2.73-7.047,4.095
				c-4.184-2.417-7.576-8.291-7.562-13.099c0.007-2.387,0.853-4.069,2.216-4.86l7.048-4.096c-1.363,0.791-2.209,2.473-2.216,4.86
				C36.184,37.768,39.576,43.643,43.761,46.06z" class="colorcdcdcd svgShape"/><path fill="#1b887f" d="M32.899,34.836l7.048-4.096c-0.973,0.565-1.577,1.766-1.582,3.47
				c-0.01,3.433,2.415,7.633,5.403,9.358c1.503,0.868,2.866,0.947,3.852,0.374l-7.048,4.096c-0.985,0.573-2.349,0.494-3.852-0.374
				c-2.988-1.725-5.413-5.925-5.403-9.358C31.322,36.602,31.926,35.402,32.899,34.836z" class="color1b8832 svgShape"/><polygon fill="#93cdc8" points="34.074 40.467 41.121 36.372 43.282 40.114 36.234 44.21" class="color9ccd93 svgShape"/><polygon fill="#00cdbc" points="21.6 20.222 28.648 16.126 29.73 16.751 22.682 20.847" class="color0085cd svgShape"/><polygon fill="#04cdbd" points="44.273 63.25 51.321 59.154 56.742 62.284 49.694 66.38" class="colorcd8004 svgShape"/><path fill="#cdcdcd" d="M53.496,57.915c0.301,0.174,0.574,0.189,0.772,0.074l-7.048,4.096
				c-0.198,0.115-0.471,0.099-0.772-0.074c2.349-1.365,4.698-2.73,7.047-4.096c-2.349,1.365-4.698,2.73-7.047,4.095
				c-0.594-0.343-1.08-1.186-1.079-1.868l7.048-4.096C52.415,56.729,52.902,57.572,53.496,57.915z" class="colorcdcdcd svgShape"/><path fill="#cdcdcd" d="M52.417,56.047c-0.247,0.144-0.576,0.335-0.823,0.478c-0.746,0.434-1.493,0.867-2.239,1.301
				c-0.763,0.444-1.527,0.887-2.29,1.331c-0.262,0.152-0.611,0.355-0.873,0.507c-0.126,0.073-0.293,0.17-0.419,0.243
				c-0.121,0.07-0.283,0.164-0.404,0.235c0.001-0.341,0.123-0.582,0.318-0.695l7.048-4.096
				C52.54,55.465,52.418,55.706,52.417,56.047z" class="colorcdcdcd svgShape"/><path fill="#04cdbd" d="M49.694,66.38c0.597,0.345,1.081,1.186,1.079,1.872c-0.002,0.682-0.489,0.964-1.086,0.619
				l-5.42-3.13c-0.594-0.343-1.081-1.186-1.079-1.868c0.002-0.686,0.492-0.965,1.086-0.622L49.694,66.38z" class="colorcd8004 svgShape"/><path fill="#93cdc8" d="M36.234 44.21l7.048-4.096c.21.368.487.649.765.809.278.16.556.2.767.076l-7.048 4.096c-.211.124-.489.085-.767-.076C36.722 44.858 36.444 44.577 36.234 44.21zM34.078 38.707l7.048-4.096c-.426.243-.428 1.031-.005 1.761l-7.048 4.096C33.65 39.738 33.653 38.95 34.078 38.707z" class="color9ccd93 svgShape"/><path fill="#04cdbd" d="M45.687,59.448l7.048-4.096c0.197-0.115,0.469-0.099,0.768,0.073l-7.048,4.096
				C46.156,59.348,45.884,59.333,45.687,59.448z" class="colorcd8004 svgShape"/><path fill="#04cdbd" d="M54.268,57.989l-7.048,4.096c0.195-0.113,0.316-0.352,0.317-0.691
				c0.002-0.686-0.485-1.529-1.082-1.874l7.048-4.096c0.597,0.345,1.084,1.188,1.082,1.874
				C54.584,57.637,54.463,57.876,54.268,57.989z" class="colorcd8004 svgShape"/><polygon fill="#1b887f" points="35.611 39.591 42.659 35.496 44.056 37.915 37.008 42.011" class="color1b8832 svgShape"/><path fill="#1b887f" d="M34.078,38.707l7.048-4.096c0.211-0.12,0.489-0.082,0.766,0.078
				c0.277,0.16,0.555,0.441,0.766,0.806l-7.048,4.096c-0.212-0.365-0.489-0.646-0.766-0.806
				C34.567,38.625,34.29,38.586,34.078,38.707z" class="color1b8832 svgShape"/><polygon fill="#00cdbc" points="21.607 17.732 28.655 13.636 30.82 14.886 23.772 18.982" class="color0085cd svgShape"/><path fill="#cdcdcd" d="M59.988,65.408c-1.175,0.683-2.349,1.365-3.524,2.048c-0.277,0.161-0.646,0.375-0.922,0.536
				c-0.272,0.158-0.634,0.368-0.906,0.526c-0.132,0.077-0.309,0.18-0.442,0.257c-0.129,0.075-0.302,0.175-0.431,0.251
				c-0.247,0.144-0.576,0.335-0.823,0.478c0.001-0.341,0.122-0.581,0.318-0.695l7.048-4.096
				C60.11,64.826,59.989,65.067,59.988,65.408z" class="colorcdcdcd svgShape"/><path fill="#04cdbd" d="M53.257,68.809l7.048-4.096c0.198-0.115,0.471-0.099,0.771,0.074l-7.048,4.096
				C53.729,68.709,53.455,68.694,53.257,68.809z" class="colorcd8004 svgShape"/><path fill="#cdcdcd" d="M57.831,60.418c-2.349,1.365-4.699,2.73-7.048,4.096c-0.594-0.343-1.081-1.186-1.079-1.868
				c0.001-0.341,0.123-0.582,0.318-0.695l7.048-4.096c-0.195,0.114-0.317,0.354-0.318,0.695
				C56.75,59.232,57.237,60.075,57.831,60.418z" class="colorcdcdcd svgShape"/><path fill="#1b887f" d="M38.412,28.1c0.449-0.261,0.953-0.425,1.502-0.486c-2.349,1.365-4.699,2.731-7.048,4.096
				c-0.549,0.061-1.054,0.226-1.502,0.486C33.479,30.967,36.298,29.328,38.412,28.1z" class="color1b8832 svgShape"/><path fill="#04cdbd" d="M50.022,61.951l7.048-4.096c0.197-0.115,0.47-0.099,0.768,0.073l-7.048,4.096
				C50.492,61.851,50.219,61.836,50.022,61.951z" class="colorcd8004 svgShape"/><polygon fill="#cdcdcd" points="22.682 20.847 29.73 16.751 36.233 20.506 29.185 24.601" class="colorcdcdcd svgShape"/><polygon fill="#00cdbc" points="25.406 17.431 32.454 13.335 30.82 14.886 23.772 18.982" class="color0085cd svgShape"/><path fill="#cdcdcd" d="M55.677 54.185c-2.349 1.365-4.699 2.73-7.048 4.096-.597-.345-1.081-1.182-1.079-1.868.001-.343.122-.584.317-.697l7.048-4.096c-.195.113-.316.354-.317.697C54.597 53.003 55.081 53.841 55.677 54.185zM36.233 20.506c.302.174.576.191.773.076l-7.048 4.096c-.197.115-.471.098-.773-.076C31.299 23.373 34.118 21.734 36.233 20.506z" class="colorcdcdcd svgShape"/><path fill="#04cdbd" d="M47.868,55.715l7.048-4.096c0.197-0.114,0.469-0.098,0.769,0.075l-7.048,4.096
				C48.336,55.617,48.064,55.601,47.868,55.715z" class="colorcd8004 svgShape"/><path fill="#93cdc8" d="M49.203 40.468c-.005 1.707-.609 2.909-1.583 3.475l-7.048 4.096c.974-.566 1.578-1.768 1.583-3.475 0 0 0 0 0 0C44.504 43.198 46.854 41.833 49.203 40.468 49.203 40.468 49.203 40.468 49.203 40.468zM43.803 31.115c-2.35 1.364-4.699 2.73-7.048 4.096-1.494-.863-2.851-.947-3.836-.387 2.349-1.365 4.698-2.73 7.046-4.095-2.349 1.365-4.698 2.73-7.047 4.095-.007.004-.014.008-.02.012l7.048-4.096C40.933 30.167 42.299 30.247 43.803 31.115z" class="color9ccd93 svgShape"/><polygon fill="#00cdbc" points="23.772 18.982 30.82 14.886 36.24 18.015 29.192 22.111" class="color0085cd svgShape"/><path fill="#00cdbc" d="M37.006 20.582l-7.048 4.096c.194-.113.315-.353.316-.693.002-.69-.482-1.527-1.082-1.874l7.048-4.096c.6.347 1.084 1.184 1.082 1.874C37.321 20.229 37.2 20.469 37.006 20.582zM25.882 15.058c-.135.078-.315.183-.45.261-.137.079-.319.186-.456.265-.384.223-.769.447-1.153.67-.457.266-.915.531-1.372.797-.366.212-.731.425-1.097.637-.274.159-.548.319-.823.478 0-.003.001-.007.002-.01 2.349-1.365 4.698-2.731 7.048-4.096 0 .003-.001.007-.001.01C27.013 14.4 26.448 14.729 25.882 15.058z" class="color0085cd svgShape"/><path fill="#00cdbc" d="M25.882,15.058c0.566-0.329,1.131-0.658,1.697-0.986c-2.114,1.229-4.934,2.867-7.048,4.096
				C22.315,17.131,24.098,16.094,25.882,15.058z" class="color0085cd svgShape"/><path fill="#00cdbc" d="M27.692,13.748c-0.055,0.088-0.094,0.196-0.112,0.324l-7.048,4.096
				c0.019-0.127,0.058-0.236,0.112-0.324C22.993,16.478,25.342,15.113,27.692,13.748z" class="color0085cd svgShape"/><path fill="#00cdbc" d="M27.692,13.748c-0.004,0.003-0.01,0.006-0.014,0.008c-0.032,0.018-0.063,0.037-0.095,0.055
				c-0.005,0.003-0.012,0.007-0.017,0.01c-0.042,0.024-0.084,0.049-0.126,0.073c-2.265,1.316-4.531,2.633-6.796,3.949
				c0.002-0.003,0.004-0.006,0.006-0.01l7.048-4.096C27.696,13.741,27.694,13.744,27.692,13.748z" class="color0085cd svgShape"/><path fill="#00cdbc" d="M27.581,14.061c-2.349,1.365-4.699,2.731-7.048,4.096c0.02-0.127,0.062-0.239,0.214-0.437
				l7.047-4.095l0.001,0C27.643,13.823,27.601,13.935,27.581,14.061z" class="color0085cd svgShape"/><polygon fill="#00cdbc" points="22.696 15.868 29.744 11.772 27.795 13.624 20.747 17.72" class="color0085cd svgShape"/><path fill="#00cdbc" d="M29.192,22.111c0.6,0.346,1.084,1.184,1.082,1.874c-0.002,0.686-0.489,0.963-1.089,0.617
				l-6.503-3.754L21.6,20.222c-0.6-0.347-1.084-1.184-1.082-1.87c0-0.02,0.001-0.039,0.001-0.059
				c0.002-0.03,0.003-0.044,0.004-0.058c0.003-0.031,0.005-0.046,0.007-0.061c0.021-0.139,0.061-0.251,0.12-0.341
				c0.009-0.013,0.016-0.023,0.023-0.033c0.013-0.016,0.017-0.022,0.022-0.027c0.016-0.019,0.034-0.037,0.052-0.053
				c0.199-0.18,0.51-0.191,0.86,0.011l2.165,1.25L29.192,22.111z" class="color0085cd svgShape"/><path fill="#04cdbd" d="M70.509,72.358l-7.048,4.096c0.195-0.113,0.316-0.353,0.317-0.693
				c0.002-0.686-0.482-1.527-1.079-1.872l7.048-4.096c0.597,0.345,1.081,1.186,1.079,1.872
				C70.825,72.004,70.704,72.244,70.509,72.358z" class="colorcd8004 svgShape"/><polygon fill="#04cdbd" points="58.364 71.386 65.412 67.29 69.747 69.793 62.699 73.889" class="colorcd8004 svgShape"/><path fill="#cdcdcd" d="M69.754,67.302c0.3,0.173,0.572,0.188,0.769,0.074l-7.048,4.096
				c-0.197,0.114-0.469,0.099-0.769-0.074C64.821,70.169,67.64,68.531,69.754,67.302z" class="colorcdcdcd svgShape"/><path fill="#04cdbd" d="M62.713,68.907c0.597,0.345,1.081,1.186,1.079,1.872c-0.002,0.682-0.489,0.963-1.086,0.619
				l-11.923-6.884c-0.594-0.343-1.081-1.186-1.079-1.868c0.002-0.686,0.492-0.965,1.086-0.622L62.713,68.907z" class="colorcd8004 svgShape"/><polygon fill="#cdcdcd" points="50.783 64.514 57.831 60.418 69.754 67.302 62.706 71.398" class="colorcdcdcd svgShape"/><path fill="#04cdbd" d="M69.761,64.812l-7.048,4.096c0.597,0.345,1.081,1.186,1.079,1.872
				c0,0.085-0.008,0.164-0.022,0.236c-0.004,0.018-0.009,0.034-0.013,0.05c-0.005,0.018-0.009,0.036-0.014,0.053
				c-0.004,0.012-0.009,0.022-0.013,0.033c-0.008,0.02-0.015,0.041-0.024,0.06c-0.005,0.011-0.012,0.021-0.018,0.033
				c-0.009,0.017-0.018,0.034-0.028,0.049c-0.008,0.013-0.018,0.024-0.027,0.036c-0.009,0.012-0.017,0.024-0.027,0.035
				c-0.011,0.012-0.023,0.023-0.035,0.034c-0.009,0.009-0.018,0.018-0.028,0.026c-0.012,0.01-0.025,0.017-0.037,0.026
				c-0.01,0.007-0.02,0.015-0.031,0.022l7.048-4.096c0.195-0.113,0.316-0.353,0.317-0.693
				C70.842,65.998,70.358,65.156,69.761,64.812z" class="colorcd8004 svgShape"/><polygon fill="#cdcdcd" points="70.315 67.421 77.363 63.325 77.293 87.873 70.245 91.969" class="colorcdcdcd svgShape"/><path fill="#00cdbc" d="M76.977,88.566l-7.048,4.096c-0.197,0.114-0.469,0.099-0.769-0.074l7.048-4.096
				C76.508,88.665,76.78,88.68,76.977,88.566z" class="color0085cd svgShape"/><path fill="#cdcdcd" d="M77.293,87.873c-0.001,0.339-0.122,0.579-0.317,0.692l-7.048,4.096
				c0.195-0.113,0.316-0.353,0.317-0.693C72.36,90.74,75.179,89.102,77.293,87.873z" class="colorcdcdcd svgShape"/><polygon fill="#93cdc8" points="37.766 45.094 44.814 40.999 48.995 38.616 41.947 42.712" class="color9ccd93 svgShape"/><path fill="#93cdc8" d="M48.995,38.616c0.137,0.629,0.209,1.252,0.208,1.852c-2.349,1.365-4.699,2.73-7.048,4.096
				c0.002-0.6-0.071-1.223-0.208-1.852C44.062,41.483,46.881,39.845,48.995,38.616z" class="color9ccd93 svgShape"/><path fill="#1b887f" d="M51.327 42.607c-.19 1.92-.985 3.286-2.172 3.976l-7.048 4.096c1.187-.69 1.982-2.056 2.172-3.976C46.628 45.337 48.978 43.972 51.327 42.607zM39.914 27.613c1.141-.127 2.474.19 3.896 1.011l-7.048 4.096c-1.422-.821-2.755-1.139-3.896-1.011 1.174-.683 2.349-1.365 3.524-2.048.139-.081.324-.188.462-.269.138-.08.322-.187.46-.267.137-.08.319-.186.456-.265.135-.078.315-.183.45-.261.262-.152.611-.355.873-.507C39.338 27.948 39.643 27.703 39.914 27.613z" class="color1b8832 svgShape"/><polygon fill="#1b887f" points="37.008 42.011 44.056 37.915 47.931 35.707 40.883 39.803" class="color1b8832 svgShape"/><path fill="#93cdc8" d="M43.803,31.115c1.655,0.956,3.137,2.67,4.127,4.591l-7.048,4.096
				c-0.991-1.922-2.472-3.636-4.128-4.591C38.87,33.982,41.689,32.344,43.803,31.115z" class="color9ccd93 svgShape"/><path fill="#cdcdcd" d="M55.692 49.204c.301.174.574.189.772.074l-7.048 4.096c-.198.115-.471.1-.772-.074-.594-.343-1.081-1.186-1.079-1.868l7.048-4.096C54.611 48.018 55.098 48.861 55.692 49.204zM54.613 47.335c-1.175.683-2.349 1.365-3.524 2.048-1.175.683-2.349 1.365-3.524 2.048.001-.341.123-.582.318-.695l7.048-4.096C54.736 46.754 54.614 46.994 54.613 47.335z" class="colorcdcdcd svgShape"/><polygon fill="#1b887f" points="41.947 42.712 48.995 38.616 49.977 38.056 42.929 42.152" class="color1b8832 svgShape"/><polygon fill="#1b887f" points="40.883 39.803 47.931 35.707 48.45 35.411 41.402 39.507" class="color1b8832 svgShape"/><path fill="#04cdbd" d="M47.883,50.736l7.048-4.096c0.197-0.115,0.469-0.099,0.768,0.073l-7.048,4.096
				C48.352,50.637,48.08,50.621,47.883,50.736z" class="colorcd8004 svgShape"/><path fill="#1b887f" d="M41.402 39.507l7.048-4.096c.213-.121.491-.083.768.077l-7.048 4.096C41.893 39.424 41.615 39.386 41.402 39.507zM51.37 41.72c-.001.308-.016.604-.044.887-2.349 1.365-4.699 2.73-7.048 4.096.028-.284.043-.58.044-.887.003-1.132-.183-2.323-.523-3.514 2.349-1.365 4.699-2.73 7.048-4.096C51.188 39.397 51.374 40.588 51.37 41.72z" class="color1b8832 svgShape"/><path fill="#1b887f" d="M42.17,39.584l7.048-4.096c0.277,0.16,0.554,0.442,0.764,0.808
				c0.423,0.729,0.421,1.518-0.005,1.761l-7.048,4.096c0.426-0.243,0.428-1.031,0.005-1.761
				C42.724,40.026,42.448,39.744,42.17,39.584z" class="color1b8832 svgShape"/><path fill="#1b887f" d="M50.672 37.632c.063.191.121.382.176.574-2.349 1.365-4.699 2.731-7.048 4.096-.055-.191-.113-.383-.176-.574C45.973 40.362 48.322 38.997 50.672 37.632zM43.81 28.625c2.521 1.455 4.755 4.168 6.129 7.146-2.349 1.365-4.699 2.731-7.048 4.096-1.374-2.978-3.608-5.691-6.128-7.146C38.877 31.492 41.696 29.853 43.81 28.625z" class="color1b8832 svgShape"/><path fill="#1b887f" d="M36.762,32.721c4.182,2.414,7.574,8.289,7.56,13.095c-0.014,4.809-3.428,6.755-7.61,4.34
				c-4.185-2.416-7.577-8.291-7.563-13.1C29.163,32.25,32.577,30.304,36.762,32.721z M42.155,44.564
				c0.002-0.6-0.071-1.223-0.208-1.852l0.982-0.56c0.426-0.243,0.428-1.031,0.005-1.761c-0.21-0.366-0.487-0.648-0.764-0.808
				c-0.277-0.16-0.555-0.198-0.768-0.077l-0.519,0.296c-0.991-1.922-2.472-3.636-4.128-4.591c-2.988-1.725-5.428-0.338-5.438,3.095
				c-0.01,3.433,2.415,7.633,5.403,9.358C39.708,49.39,42.145,47.997,42.155,44.564L42.155,44.564z" class="color1b8832 svgShape"/><path fill="#1b887f" d="M42.17,39.584c0.277,0.16,0.554,0.442,0.764,0.808c0.423,0.729,0.421,1.518-0.005,1.761
				l-0.982,0.56l-4.181,2.382c-0.211,0.124-0.489,0.085-0.767-0.076c-0.278-0.16-0.555-0.442-0.765-0.809l-2.16-3.742
				c-0.423-0.729-0.421-1.518,0.005-1.761c0.211-0.121,0.489-0.082,0.766,0.078c0.277,0.16,0.555,0.441,0.766,0.806l1.397,2.419
				l3.875-2.208l0.519-0.296C41.615,39.386,41.893,39.424,42.17,39.584z" class="color1b8832 svgShape"/><path fill="#04cdbd" d="M56.464,49.278l-7.048,4.096c0.195-0.113,0.316-0.352,0.317-0.691
				c0.002-0.686-0.485-1.529-1.082-1.874l7.048-4.096c0.597,0.345,1.084,1.188,1.082,1.874
				C56.779,48.925,56.658,49.165,56.464,49.278z" class="colorcd8004 svgShape"/><path fill="#04cdbd" d="M48.651,50.809c0.597,0.345,1.084,1.188,1.082,1.874c-0.002,0.682-0.492,0.962-1.089,0.617
				c-0.594-0.343-1.081-1.186-1.079-1.868C47.567,50.745,48.057,50.466,48.651,50.809z" class="colorcd8004 svgShape"/><path fill="#1b887f" d="M50.672 37.632c-2.349 1.365-4.699 2.731-7.048 4.096-.204-.625-.45-1.248-.732-1.859 2.349-1.365 4.699-2.731 7.048-4.096C50.222 36.384 50.467 37.007 50.672 37.632zM49.939 35.773c-2.349 1.365-4.699 2.731-7.048 4.096 0-.001-.001-.001-.001-.002 2.349-1.365 4.699-2.73 7.048-4.096C49.939 35.771 49.939 35.772 49.939 35.773z" class="color1b8832 svgShape"/><polygon fill="#04cdbd" points="50.79 62.023 57.838 57.928 69.761 64.812 62.713 68.907" class="colorcd8004 svgShape"/><path fill="#cdcdcd" d="M69.768,62.321c0.3,0.173,0.573,0.189,0.77,0.075l-7.048,4.096
				c-0.197,0.114-0.469,0.098-0.77-0.075C64.835,65.188,67.654,63.549,69.768,62.321z" class="colorcdcdcd svgShape"/><path fill="#04cdbd" d="M70.538,62.396l-7.048,4.096c0.194-0.113,0.315-0.353,0.316-0.694
				c0.002-0.69-0.482-1.527-1.079-1.872l7.048-4.096c0.597,0.345,1.081,1.182,1.079,1.872
				C70.853,62.043,70.732,62.283,70.538,62.396z" class="colorcd8004 svgShape"/><path fill="#04cdbd" d="M62.728,63.926c0.597,0.345,1.081,1.182,1.079,1.872c-0.002,0.686-0.489,0.963-1.086,0.619
				L48.63,58.281c-0.597-0.345-1.081-1.182-1.079-1.868c0.002-0.69,0.489-0.967,1.086-0.622L62.728,63.926z" class="colorcd8004 svgShape"/><path fill="#cdcdcd" d="M62.728,63.926l4.894-2.844l-11.945-6.896l-7.048,4.096l14.091,8.135l1.085-0.631
				C63.802,65.099,63.321,64.269,62.728,63.926z" class="colorcdcdcd svgShape"/><polygon fill="#04cdbd" points="48.637 55.79 55.685 51.695 69.775 59.83 62.728 63.926" class="colorcd8004 svgShape"/><path fill="#cdcdcd" d="M60.027 51.707c.301.174.574.189.772.074l-7.048 4.096c-.198.115-.471.1-.772-.074-.594-.343-1.081-1.186-1.079-1.868l7.048-4.096C58.946 50.521 59.433 51.364 60.027 51.707zM58.948 49.838c-.565.328-1.131.657-1.696.986-.272.158-.634.368-.906.526-.138.08-.322.187-.46.267-.277.161-.647.376-.924.537-.275.16-.641.373-.916.532-.715.416-1.43.831-2.146 1.247.001-.341.123-.582.318-.695l7.048-4.096C59.071 49.257 58.949 49.497 58.948 49.838zM55.706 44.222c-2.349 1.365-4.699 2.73-7.048 4.096-.597-.345-1.081-1.182-1.079-1.868.001-.343.122-.584.317-.698l7.048-4.096c-.195.113-.316.354-.317.697C54.625 43.04 55.109 43.878 55.706 44.222z" class="colorcdcdcd svgShape"/><path fill="#04cdbd" d="M52.218 53.239l7.048-4.096c.197-.115.469-.099.768.073l-7.048 4.096C52.688 53.139 52.415 53.124 52.218 53.239zM47.896 45.753l7.048-4.096c.197-.114.469-.098.769.075l-7.048 4.096C48.365 45.654 48.093 45.638 47.896 45.753z" class="colorcd8004 svgShape"/><path fill="#04cdbd" d="M60.799,51.781l-7.048,4.096c0.195-0.113,0.316-0.353,0.317-0.691
				c0.002-0.686-0.485-1.529-1.082-1.874l7.048-4.096c0.597,0.345,1.084,1.188,1.082,1.874
				C61.115,51.428,60.994,51.668,60.799,51.781z" class="colorcd8004 svgShape"/><path fill="#04cdbd" d="M52.986,53.312c0.597,0.345,1.084,1.188,1.082,1.874c-0.002,0.682-0.492,0.962-1.089,0.617
				c-0.594-0.343-1.081-1.186-1.079-1.868C51.902,53.248,52.392,52.969,52.986,53.312z" class="colorcd8004 svgShape"/><path fill="#cdcdcd" d="M52.477 34.874c-2.349 1.365-4.699 2.73-7.048 4.096-.6-.347-1.084-1.184-1.082-1.87.001-.343.122-.584.316-.697l7.048-4.096c-.195.113-.315.354-.316.697C51.393 33.69 51.877 34.527 52.477 34.874zM63.283 52.341c-.002.682.485 1.526 1.079 1.868l-7.048 4.096c-.594-.343-1.081-1.186-1.079-1.868C58.584 55.072 60.933 53.707 63.283 52.341c-2.35 1.365-4.699 2.73-7.048 4.096.001-.341.123-.582.318-.695l7.048-4.096C63.406 51.759 63.284 52 63.283 52.341z" class="colorcdcdcd svgShape"/><path fill="#04cdbd" d="M44.664 36.403l7.048-4.096c.197-.115.471-.098.773.076l-7.048 4.096C45.134 36.305 44.861 36.288 44.664 36.403zM56.553 55.742l7.048-4.096c.197-.115.469-.099.768.073l-7.048 4.096C57.023 55.642 56.75 55.627 56.553 55.742z" class="colorcd8004 svgShape"/><polygon fill="#cdcdcd" points="57.314 58.306 64.362 54.21 69.783 57.339 62.735 61.435" class="colorcdcdcd svgShape"/><path fill="#cdcdcd" d="M69.783,57.339c0.3,0.173,0.572,0.188,0.769,0.074l-7.048,4.096
				c-0.197,0.114-0.469,0.099-0.769-0.074C64.849,60.206,67.668,58.568,69.783,57.339z" class="colorcdcdcd svgShape"/><polygon fill="#04cdbd" points="57.321 55.815 64.369 51.719 69.79 54.848 62.742 58.944" class="colorcd8004 svgShape"/><path fill="#04cdbd" d="M70.551,57.413l-7.048,4.096c0.195-0.113,0.316-0.353,0.317-0.693
				c0.002-0.686-0.482-1.528-1.079-1.872l7.048-4.096c0.597,0.345,1.081,1.186,1.079,1.872C70.867,57.06,70.746,57.3,70.551,57.413z
				" class="colorcd8004 svgShape"/><path fill="#04cdbd" d="M62.742,58.944c0.597,0.345,1.081,1.186,1.079,1.872c-0.002,0.682-0.489,0.963-1.086,0.619
				l-5.421-3.13c-0.594-0.343-1.081-1.186-1.079-1.868c0.002-0.686,0.492-0.965,1.086-0.622L62.742,58.944z" class="colorcd8004 svgShape"/><path fill="#cdcdcd" d="M69.797,52.358c0.3,0.173,0.573,0.189,0.77,0.075l-7.048,4.096
				c-0.197,0.114-0.469,0.099-0.77-0.075C64.863,55.225,67.682,53.587,69.797,52.358z" class="colorcdcdcd svgShape"/><path fill="#04cdbd" d="M62.756,53.963c0.597,0.345,1.081,1.182,1.079,1.872c-0.002,0.686-0.489,0.963-1.086,0.619
				l-14.091-8.135c-0.597-0.345-1.081-1.182-1.079-1.868c0.002-0.69,0.489-0.967,1.086-0.622L62.756,53.963z" class="colorcd8004 svgShape"/><polygon fill="#cdcdcd" points="48.658 48.318 55.706 44.222 69.797 52.358 62.749 56.454" class="colorcdcdcd svgShape"/><polygon fill="#04cdbd" points="48.665 45.827 55.713 41.732 69.804 49.867 62.756 53.963" class="colorcd8004 svgShape"/><path fill="#04cdbd" d="M70.566,52.433l-7.048,4.096c0.194-0.113,0.315-0.353,0.316-0.694
				c0.002-0.69-0.482-1.527-1.079-1.872l7.048-4.096c0.597,0.345,1.081,1.182,1.079,1.872C70.881,52.08,70.761,52.32,70.566,52.433z
				" class="colorcd8004 svgShape"/><path fill="#cdcdcd" d="M70.635,66.715l7.048-4.096c-0.197,0.114-0.319,0.358-0.32,0.705l-7.048,4.096
				C70.316,67.073,70.438,66.83,70.635,66.715z" class="colorcdcdcd svgShape"/><polygon fill="#cdcdcd" points="71.411 64.299 78.459 60.203 78.452 62.694 71.404 66.789" class="colorcdcdcd svgShape"/><path fill="#00cdbc" d="M70.635,66.715l7.048-4.096c0.198-0.115,0.47-0.099,0.769,0.074l-7.048,4.096
				C71.105,66.617,70.832,66.601,70.635,66.715z" class="color0085cd svgShape"/><path fill="#00cdbc" d="M71.404,66.789c0.597,0.345,1.08,1.186,1.079,1.883l-0.07,24.548
				c-0.006,2.054-1.473,2.89-3.26,1.858L23.633,68.798c-1.788-1.032-3.248-3.558-3.242-5.612l0.127-44.833
				c-0.002,0.686,0.482,1.524,1.082,1.87l1.082,0.625l-0.124,43.59c-0.002,0.682,0.485,1.525,1.082,1.87l45.52,26.281
				c0.597,0.345,1.084,0.064,1.086-0.619l0.07-24.548C70.317,66.724,70.807,66.445,71.404,66.789z" class="color0085cd svgShape"/><path fill="#cdcdcd" d="M69.818,44.886c0.3,0.174,0.573,0.189,0.77,0.075l-7.048,4.096
				c-0.197,0.114-0.469,0.098-0.77-0.075C64.884,47.753,67.703,46.114,69.818,44.886z" class="colorcdcdcd svgShape"/><path fill="#04cdbd" d="M70.588,44.96l-7.048,4.096c0.194-0.113,0.315-0.353,0.316-0.694
				c0.002-0.69-0.482-1.527-1.079-1.872l7.048-4.096c0.597,0.345,1.081,1.182,1.079,1.872C70.903,44.608,70.782,44.848,70.588,44.96
				z" class="colorcd8004 svgShape"/><path fill="#04cdbd" d="M62.777,46.491c0.597,0.345,1.081,1.182,1.079,1.872c-0.002,0.686-0.489,0.963-1.086,0.619
				L45.429,38.97c-0.6-0.347-1.084-1.184-1.082-1.87c0.002-0.69,0.489-0.967,1.089-0.621L62.777,46.491z" class="colorcd8004 svgShape"/><path fill="#cdcdcd" d="M62.777 46.491l4.895-2.844-15.194-8.772-7.048 4.096L62.77 48.981l1.085-.631C63.852 47.663 63.37 46.833 62.777 46.491zM77.377 58.333c-.002.697.485 1.525 1.082 1.87l-7.048 4.096c-.597-.345-1.084-1.173-1.082-1.87C72.678 61.063 75.027 59.698 77.377 58.333c-2.35 1.365-4.699 2.73-7.048 4.096.001-.337.12-.572.311-.683l7.048-4.096C77.497 57.76 77.378 57.995 77.377 58.333z" class="colorcdcdcd svgShape"/><polygon fill="#cdcdcd" points="71.425 59.332 78.473 55.236 78.466 57.727 71.418 61.823" class="colorcdcdcd svgShape"/><path fill="#00cdbc" d="M70.64,61.745l7.048-4.096c0.198-0.115,0.474-0.097,0.778,0.078l-7.048,4.096
				C71.114,61.647,70.839,61.63,70.64,61.745z" class="color0085cd svgShape"/><polygon fill="#04cdbd" points="45.436 36.479 52.484 32.383 69.825 42.395 62.777 46.491" class="colorcd8004 svgShape"/><path fill="#04cdbd" d="M62.699,73.889c0.597,0.345,1.081,1.186,1.079,1.872c-0.002,0.682-0.489,0.964-1.086,0.619
				l-4.335-2.503c-0.597-0.345-1.084-1.188-1.082-1.87c0.002-0.686,0.492-0.965,1.089-0.621L62.699,73.889z" class="colorcd8004 svgShape"/><path fill="#cdcdcd" d="M36.684,60.103c-0.001-0.167-0.031-0.343-0.084-0.518c-0.123-0.407-0.371-0.812-0.676-1.098
				c-0.102-0.095-0.21-0.177-0.322-0.242l-3.271-1.889l-2.154,1.252l5.417,3.128L36.684,60.103z" class="colorcdcdcd svgShape"/><path fill="#04cdbd" d="M35.603 58.244c.597.345 1.084 1.188 1.082 1.874-.002.682-.492.962-1.089.617l-5.417-3.128c-.597-.345-1.084-1.188-1.082-1.87.002-.686.492-.965 1.089-.621L35.603 58.244zM39.938 60.747c.597.345 1.084 1.188 1.082 1.874-.002.682-.492.962-1.089.617-.594-.343-1.081-1.186-1.079-1.868C38.854 60.684 39.344 60.405 39.938 60.747z" class="colorcd8004 svgShape"/><path fill="#00cdbc" d="M20.531 18.167c.019-.131.059-.243.119-.334C20.592 17.923 20.551 18.035 20.531 18.167zM20.835 17.656l7.048-4.096c-.031.018-.061.04-.088.064l-7.048 4.096C20.774 17.695 20.803 17.674 20.835 17.656z" class="color0085cd svgShape"/><path fill="#00cdbc" d="M20.835,17.656l7.048-4.096c0.197-0.115,0.47-0.098,0.772,0.076l-7.048,4.096
				C21.305,17.557,21.032,17.541,20.835,17.656z" class="color0085cd svgShape"/><path fill="#04cdbd" d="M46.455 59.521c.597.345 1.084 1.188 1.082 1.874-.002.682-.492.961-1.089.617-.594-.343-1.081-1.186-1.079-1.868C45.371 59.457 45.861 59.178 46.455 59.521zM54.029 68.883c.597.345 1.081 1.186 1.079 1.872-.002.682-.489.964-1.086.619-.597-.345-1.084-1.188-1.082-1.87C52.942 68.817 53.432 68.538 54.029 68.883z" class="colorcd8004 svgShape"/><polygon fill="#00cdbc" points="22.707 12.131 29.755 8.035 29.744 11.772 22.696 15.868" class="color0085cd svgShape"/><polygon fill="#41e1d4" points="24.004 14.626 31.052 10.53 29.744 11.772 22.696 15.868" class="color81bbcd svgShape"/><path fill="#41e1d4" d="M24.106,14.546l7.048-4.096c-0.037,0.022-0.071,0.048-0.102,0.08l-7.048,4.096
				C24.035,14.594,24.069,14.568,24.106,14.546z" class="color81bbcd svgShape"/><path fill="#00cdbc" d="M24.107 14.546l7.048-4.096c.197-.115.474-.087.764.08l-7.048 4.096C24.58 14.459 24.303 14.432 24.107 14.546zM23.023 11.436l7.048-4.096c-.195.113-.316.353-.317.695l-7.048 4.096C22.708 11.789 22.829 11.549 23.023 11.436z" class="color0085cd svgShape"/><path fill="#41e1d4" d="M23.023,11.436l7.048-4.096c0.198-0.115,0.471-0.099,0.772,0.075l-7.048,4.096
				C23.495,11.337,23.221,11.321,23.023,11.436z" class="color81bbcd svgShape"/><path fill="#93cdc8" d="M36.755,35.211c1.655,0.956,3.137,2.669,4.128,4.591l-3.875,2.208l-1.397-2.419
				c-0.212-0.365-0.489-0.646-0.766-0.806c-0.277-0.16-0.555-0.199-0.766-0.078c-0.426,0.243-0.428,1.031-0.005,1.761l2.16,3.742
				c0.21,0.367,0.487,0.649,0.765,0.809c0.278,0.16,0.556,0.2,0.767,0.076l4.181-2.382c0.137,0.629,0.209,1.252,0.208,1.852
				c-0.01,3.433-2.447,4.826-5.435,3.101c-2.988-1.725-5.413-5.925-5.403-9.358C31.327,34.873,33.767,33.486,36.755,35.211z" class="color9ccd93 svgShape"/><path fill="#cdcdcd" d="M40.916,22.874c-2.349,1.365-4.699,2.731-7.048,4.096c-0.047-0.077-0.09-0.157-0.13-0.239
				l7.048-4.096C40.826,22.717,40.869,22.797,40.916,22.874z" class="colorcdcdcd svgShape"/><path fill="#00cdbc" d="M78.51,91.204L71.462,95.3c0.584-0.34,0.948-1.059,0.951-2.08l7.048-4.096
				C79.458,90.145,79.095,90.865,78.51,91.204z" class="color0085cd svgShape"/><path fill="#cdcdcd" d="M40.916,22.874c0.201,0.329,0.466,0.605,0.737,0.761l-7.048,4.096
				c-0.272-0.157-0.537-0.433-0.737-0.762C36.217,25.604,38.567,24.239,40.916,22.874z" class="colorcdcdcd svgShape"/><path fill="#00cdbc" d="M21.489,8.795l7.048-4.096c0.592-0.344,1.411-0.296,2.314,0.225L23.803,9.02
				C22.9,8.499,22.081,8.451,21.489,8.795z" class="color0085cd svgShape"/><polygon fill="#cdcdcd" points="30.827 20.56 37.875 16.464 40.786 22.635 33.738 26.731" class="colorcdcdcd svgShape"/><polygon fill="#cdcdcd" points="25.406 17.431 32.454 13.335 37.875 16.464 30.827 20.56" class="colorcdcdcd svgShape"/><polygon fill="#00cdbc" points="24.871 14.626 31.919 10.53 38.422 14.285 31.374 18.381" class="color0085cd svgShape"/><polygon fill="#00cdbc" points="32.24 19.381 39.288 15.285 42.203 21.458 35.155 25.554" class="color0085cd svgShape"/><path fill="#00cdbc" d="M31.374,18.381l7.048-4.096c0.338,0.195,0.66,0.569,0.867,1l-7.048,4.096
				C32.034,18.949,31.712,18.576,31.374,18.381z" class="color0085cd svgShape"/><polygon fill="#00cdbc" points="72.483 68.672 79.531 64.577 79.461 89.124 72.413 93.22" class="color0085cd svgShape"/><path fill="#00cdbc" d="M71.404 66.789l7.048-4.096c.597.345 1.081 1.186 1.079 1.883l-7.048 4.096C72.484 67.976 72.001 67.134 71.404 66.789zM79.231 60.281l-7.048 4.096c.193-.112.313-.352.314-.696.002-.686-.482-1.513-1.079-1.857l7.048-4.096c.597.345 1.081 1.171 1.079 1.857C79.544 59.929 79.424 60.168 79.231 60.281z" class="color0085cd svgShape"/><path fill="#00cdbc" d="M71.418,61.823c0.597,0.345,1.081,1.171,1.079,1.857c-0.002,0.697-0.489,0.963-1.086,0.619
				c-0.597-0.345-1.084-1.173-1.082-1.87C70.331,61.743,70.821,61.478,71.418,61.823z" class="color0085cd svgShape"/><path fill="#cdcdcd" d="M78.473,55.236c-2.349,1.365-4.699,2.73-7.048,4.096c-0.597-0.345-1.084-1.188-1.082-1.874
				l7.048-4.096C77.389,54.048,77.876,54.891,78.473,55.236z" class="colorcdcdcd svgShape"/><polygon fill="#cdcdcd" points="34.605 27.731 41.653 23.635 77.417 44.283 70.369 48.379" class="colorcdcdcd svgShape"/><path fill="#41e1d4" d="M64.429,30.549c-0.002,0.683,0.485,1.526,1.082,1.87l-7.048,4.096
				c-0.597-0.345-1.084-1.188-1.082-1.87C59.73,33.28,62.079,31.915,64.429,30.549c-2.35,1.365-4.699,2.73-7.048,4.096
				c0.001-0.341,0.123-0.581,0.318-0.694l7.048-4.096C64.551,29.968,64.43,30.209,64.429,30.549z" class="color81bbcd svgShape"/><path fill="#00cdbc" d="M66.28,32.494l-7.048,4.096c0.195-0.113,0.316-0.353,0.317-0.693
				c0.002-0.686-0.482-1.527-1.079-1.872l7.048-4.096c0.597,0.345,1.081,1.186,1.079,1.872C66.596,32.14,66.475,32.381,66.28,32.494
				z" class="color0085cd svgShape"/><path fill="#41e1d4" d="M69.846,34.923c0.3,0.173,0.572,0.188,0.769,0.074l-7.048,4.096
				c-0.197,0.114-0.469,0.099-0.769-0.074C64.912,37.79,67.732,36.152,69.846,34.923z" class="color81bbcd svgShape"/><path fill="#41e1d4" d="M68.764,33.053c-0.002,0.682,0.485,1.526,1.082,1.87l-7.048,4.096
				c-0.597-0.345-1.084-1.188-1.082-1.87C64.065,35.783,66.414,34.418,68.764,33.053c-2.35,1.365-4.699,2.73-7.048,4.095
				c0.001-0.341,0.122-0.581,0.318-0.694l7.048-4.096C68.887,32.471,68.765,32.712,68.764,33.053z" class="color81bbcd svgShape"/><path fill="#00cdbc" d="M62.034,36.454l7.048-4.096c0.198-0.115,0.471-0.099,0.771,0.074l-7.048,4.096
				C62.505,36.354,62.231,36.339,62.034,36.454z" class="color0085cd svgShape"/><path fill="#00cdbc" d="M70.615,34.997l-7.048,4.096c0.195-0.113,0.316-0.353,0.317-0.693
				c0.002-0.686-0.482-1.527-1.079-1.872l7.048-4.096c0.597,0.345,1.081,1.186,1.079,1.872
				C70.931,34.643,70.81,34.884,70.615,34.997z" class="color0085cd svgShape"/><path fill="#00cdbc" d="M62.805,36.528c0.597,0.345,1.081,1.186,1.079,1.872c-0.002,0.682-0.489,0.964-1.086,0.619
				c-0.597-0.345-1.084-1.188-1.082-1.87C61.718,36.462,62.208,36.183,62.805,36.528z" class="color0085cd svgShape"/><path fill="#41e1d4" d="M74.181 37.426c.3.173.572.188.769.074l-7.048 4.096c-.197.114-.469.099-.769-.074C69.248 40.293 72.067 38.654 74.181 37.426zM73.099 35.555c-.002.682.485 1.526 1.082 1.87l-7.048 4.096c-.597-.345-1.084-1.188-1.082-1.87 2.349-1.365 4.697-2.73 7.046-4.095-2.349 1.365-4.697 2.73-7.046 4.095.001-.341.122-.581.318-.694l7.048-4.096C73.222 34.974 73.1 35.215 73.099 35.555z" class="color81bbcd svgShape"/><path fill="#00cdbc" d="M66.369,38.957l7.048-4.096c0.198-0.115,0.471-0.099,0.771,0.074l-7.048,4.096
				C66.84,38.857,66.567,38.842,66.369,38.957z" class="color0085cd svgShape"/><path fill="#00cdbc" d="M74.95,37.5l-7.048,4.096c0.195-0.113,0.316-0.353,0.317-0.693
				c0.002-0.686-0.482-1.527-1.079-1.872l7.048-4.096c0.597,0.345,1.081,1.186,1.079,1.872C75.266,37.146,75.145,37.387,74.95,37.5z
				" class="color0085cd svgShape"/><path fill="#00cdbc" d="M67.14,39.031c0.597,0.345,1.081,1.186,1.079,1.872c-0.002,0.682-0.489,0.964-1.086,0.619
				c-0.597-0.345-1.084-1.188-1.082-1.87C66.053,38.965,66.543,38.686,67.14,39.031z" class="color0085cd svgShape"/><path fill="#41e1d4" d="M59.549,35.897c0-0.004,0-0.008,0-0.012c-0.376,0.218-0.741,0.43-1.085,0.631
				c0.3,0.173,0.572,0.188,0.769,0.074l0.001,0C59.427,36.476,59.548,36.236,59.549,35.897z" class="color81bbcd svgShape"/><path fill="#00cdbc" d="M79.241 55.31l-7.048 4.096c.195-.113.317-.355.318-.696l7.048-4.096C79.558 54.955 79.437 55.197 79.241 55.31zM57.699 33.951l7.048-4.096c.198-.115.471-.099.771.074l-7.048 4.096C58.17 33.851 57.896 33.836 57.699 33.951z" class="color0085cd svgShape"/><path fill="#00cdbc" d="M58.47,34.025c0.597,0.345,1.081,1.186,1.079,1.872c-0.002,0.682-0.489,0.964-1.086,0.619
				c-0.597-0.345-1.084-1.188-1.082-1.87C57.383,33.959,57.873,33.68,58.47,34.025z" class="color0085cd svgShape"/><polygon fill="#cdcdcd" points="70.369 48.379 77.417 44.283 77.391 53.362 70.343 57.458" class="colorcdcdcd svgShape"/><polygon fill="#00cdbc" points="72.54 48.387 79.588 44.291 79.559 54.614 72.511 58.71" class="color0085cd svgShape"/><polygon fill="#00cdbc" points="70.376 45.889 77.424 41.793 78.509 42.419 71.461 46.515" class="color0085cd svgShape"/><polygon fill="#41e1d4" points="70.394 39.664 77.442 35.568 77.424 41.793 70.376 45.888" class="color81bbcd svgShape"/><polygon fill="#00cdbc" points="72.561 40.915 79.609 36.819 79.588 44.291 72.54 48.387" class="color0085cd svgShape"/><path fill="#00cdbc" d="M72.23,47.322l7.048-4.096c0.194,0.347,0.311,0.742,0.31,1.065l-7.048,4.096
				C72.541,48.064,72.424,47.67,72.23,47.322z" class="color0085cd svgShape"/><path fill="#41e1d4" d="M69.315,37.791c0.597,0.345,1.081,1.182,1.079,1.872l-0.018,6.225L35.155,25.554l-2.915-6.173
				c-0.207-0.432-0.528-0.805-0.867-1l-6.503-3.754c-0.345-0.199-0.671-0.2-0.867-0.001l-1.308,1.243l0.01-3.737
				c0.002-0.69,0.492-0.965,1.089-0.621L69.315,37.791z M62.798,39.019c0.597,0.345,1.084,0.064,1.086-0.619
				c0.002-0.686-0.482-1.527-1.079-1.872c-0.597-0.345-1.087-0.065-1.089,0.621C61.714,37.831,62.201,38.674,62.798,39.019
				L62.798,39.019z M58.463,36.516c0.597,0.345,1.084,0.063,1.086-0.619c0.002-0.686-0.482-1.527-1.079-1.872
				c-0.597-0.345-1.087-0.065-1.089,0.621C57.379,35.328,57.866,36.171,58.463,36.516L58.463,36.516z M67.133,41.521
				c0.597,0.345,1.084,0.064,1.086-0.619c0.002-0.686-0.482-1.527-1.079-1.872c-0.597-0.345-1.087-0.065-1.089,0.621
				C66.049,40.334,66.536,41.177,67.133,41.521L67.133,41.521z" class="color81bbcd svgShape"/><path fill="#00cdbc" d="M72.23,47.322c0.194,0.347,0.311,0.742,0.31,1.065L72.511,58.71
				c-0.002,0.686-0.489,0.967-1.086,0.622c-0.597-0.345-1.084-1.188-1.082-1.874l0.026-9.079L34.605,27.731
				c-0.335-0.194-0.66-0.569-0.867-1l-2.911-6.171l-5.421-3.13l-1.634,1.551l-2.165-1.25c-0.35-0.202-0.661-0.192-0.86-0.011
				l1.95-1.852l1.308-1.243c0.196-0.199,0.522-0.198,0.867,0.001l6.503,3.754c0.338,0.195,0.66,0.569,0.867,1l2.915,6.173
				l35.221,20.335l1.085,0.627C71.742,46.677,72.026,46.977,72.23,47.322z" class="color0085cd svgShape"/><path fill="#00cdbc" d="M71.461,46.515l7.048-4.096c0.281,0.162,0.565,0.462,0.768,0.807l-7.048,4.096
				C72.026,46.977,71.742,46.677,71.461,46.515z" class="color0085cd svgShape"/><polygon fill="#41e1d4" points="23.796 11.511 30.844 7.415 76.363 33.696 69.315 37.791" class="color81bbcd svgShape"/><path fill="#41e1d4" d="M69.315,37.791l7.048-4.096c0.597,0.345,1.081,1.183,1.079,1.872l-7.048,4.096
				C70.396,38.974,69.912,38.136,69.315,37.791z" class="color81bbcd svgShape"/><polygon fill="#00cdbc" points="23.803 9.02 30.851 4.924 76.37 31.205 69.322 35.301" class="color0085cd svgShape"/><path fill="#00cdbc" d="M69.322,35.301c1.794,1.036,3.245,3.552,3.239,5.614l-0.021,7.472
				c0.001-0.323-0.116-0.718-0.31-1.065c-0.204-0.345-0.487-0.645-0.768-0.807l-1.085-0.627l0.018-6.225
				c0.002-0.689-0.482-1.527-1.079-1.872L23.796,11.511c-0.597-0.345-1.087-0.069-1.089,0.62l-0.011,3.737l-1.949,1.852
				c-0.156,0.204-0.196,0.316-0.215,0.447l0.008-7.287c0.006-2.062,1.469-2.896,3.264-1.86L69.322,35.301z" class="color0085cd svgShape"/><path fill="#00cdbc" d="M69.322,35.301l7.048-4.096c1.794,1.036,3.245,3.553,3.239,5.614l-7.048,4.096
				C72.567,38.853,71.116,36.337,69.322,35.301z" class="color0085cd svgShape"/><path fill="#36ffef" d="M46.482 59.473c.594.343 1.081 1.186 1.079 1.872-.002.682-.492.961-1.086.619-.597-.345-1.084-1.188-1.082-1.87C45.395 59.407 45.885 59.128 46.482 59.473zM49.718 66.33c.597.345 1.084 1.188 1.082 1.874-.002.682-.492.962-1.089.617l-5.417-3.128c-.597-.345-1.084-1.188-1.082-1.87.002-.686.492-.965 1.089-.621L49.718 66.33zM62.752 63.876c.6.347 1.084 1.184 1.082 1.874-.002.686-.489.963-1.089.617l-14.088-8.134c-.6-.346-1.084-1.184-1.082-1.87.002-.69.489-.967 1.089-.621L62.752 63.876zM48.678 50.761c.594.343 1.081 1.186 1.079 1.872-.002.682-.492.962-1.086.619-.597-.345-1.084-1.188-1.082-1.87C47.591 50.695 48.081 50.416 48.678 50.761zM35.63 58.197c.594.343 1.081 1.186 1.079 1.872-.002.682-.492.962-1.086.619l-5.42-3.13c-.597-.345-1.081-1.186-1.079-1.868.002-.686.489-.967 1.086-.622L35.63 58.197zM42.147 56.97c.594.343 1.081 1.186 1.079 1.872-.002.682-.492.961-1.086.619l-11.923-6.884c-.597-.345-1.081-1.186-1.079-1.868.002-.686.489-.967 1.086-.622L42.147 56.97z" class="colorffb236 svgShape"/><path fill="#00ffea" d="M71.442,61.773c0.597,0.345,1.084,1.173,1.082,1.859c-0.002,0.697-0.492,0.961-1.089,0.617
				c-0.597-0.345-1.081-1.171-1.079-1.868C70.358,61.695,70.845,61.428,71.442,61.773z" class="color00b7ff svgShape"/><path fill="#36ffef" d="M38.852,70.036c0.597,0.345,1.084,1.188,1.082,1.874c-0.002,0.682-0.492,0.962-1.089,0.617
				l-8.67-5.006c-0.597-0.345-1.081-1.186-1.079-1.868c0.002-0.686,0.489-0.967,1.086-0.622L38.852,70.036z" class="colorffb236 svgShape"/><g class="color000000 svgShape"><path fill="#36ffef" d="M43.187 72.539c.597.345 1.084 1.188 1.082 1.874-.002.682-.492.962-1.089.617-.597-.345-1.081-1.186-1.079-1.868C42.103 72.475 42.59 72.194 43.187 72.539zM56.193 80.048c.597.345 1.084 1.188 1.082 1.874-.002.682-.492.962-1.089.617l-8.67-5.006c-.597-.345-1.081-1.186-1.079-1.868.002-.686.489-.967 1.086-.622L56.193 80.048zM60.528 82.55c.597.345 1.084 1.188 1.082 1.874-.002.682-.492.962-1.089.617-.597-.345-1.081-1.186-1.079-1.868C59.444 82.487 59.931 82.206 60.528 82.55zM54.053 68.833c.597.345 1.084 1.188 1.082 1.874-.002.682-.492.962-1.089.617-.597-.345-1.081-1.186-1.079-1.868C52.969 68.77 53.456 68.488 54.053 68.833z" class="colorffb236 svgShape"/><path fill="#00ffea" d="M29.219,22.063c0.597,0.345,1.081,1.182,1.079,1.872c-0.002,0.686-0.489,0.963-1.086,0.619
					l-6.503-3.754l-1.085-0.627c-0.597-0.345-1.081-1.182-1.079-1.868c0-0.02,0.001-0.041,0.002-0.06
					c0.034-0.647,0.508-0.895,1.084-0.562l2.167,1.251L29.219,22.063z" class="color00b7ff svgShape"/><path fill="#36ffef" d="M62.709,78.82c0.6,0.347,1.084,1.184,1.082,1.874c-0.002,0.686-0.489,0.963-1.089,0.617
					L30.188,62.539c-0.597-0.345-1.081-1.182-1.079-1.868c0.002-0.69,0.489-0.967,1.086-0.623L62.709,78.82z" class="colorffb236 svgShape"/><path fill="#4dbab1" d="M36.786,32.671c4.185,2.416,7.577,8.291,7.563,13.097c-0.014,4.809-3.428,6.755-7.613,4.338
					c-4.182-2.415-7.574-8.29-7.56-13.099C29.191,32.202,32.605,30.256,36.786,32.671z M42.182,44.516
					c0.002-0.6-0.071-1.223-0.208-1.853l0.982-0.559c0.423-0.245,0.425-1.033,0.005-1.761c-0.212-0.367-0.489-0.649-0.766-0.809
					c-0.277-0.16-0.555-0.198-0.766-0.076l-0.52,0.296c-0.991-1.923-2.474-3.638-4.13-4.594c-2.988-1.725-5.425-0.336-5.435,3.097
					c-0.01,3.433,2.412,7.631,5.4,9.357C39.732,49.34,42.173,47.949,42.182,44.516L42.182,44.516z" class="color4dba64 svgShape"/><path fill="#c5fffa" d="M36.779,35.161c1.656,0.956,3.138,2.671,4.13,4.594l-3.877,2.206l-1.397-2.419
					c-0.212-0.365-0.488-0.646-0.765-0.806c-0.277-0.16-0.554-0.199-0.767-0.079c-0.426,0.243-0.428,1.031-0.005,1.761l2.161,3.742
					c0.21,0.367,0.487,0.649,0.765,0.809c0.278,0.16,0.556,0.2,0.767,0.076l4.184-2.381c0.137,0.629,0.21,1.253,0.208,1.853
					c-0.01,3.433-2.45,4.824-5.438,3.099c-2.988-1.725-5.41-5.923-5.4-9.357C31.354,34.825,33.791,33.436,36.779,35.161z" class="colorceffc5 svgShape"/><path fill="#4dbab1" d="M42.195,39.535c0.277,0.16,0.555,0.443,0.766,0.809c0.42,0.728,0.418,1.516-0.005,1.761
					l-0.982,0.559l-4.184,2.381c-0.211,0.124-0.489,0.085-0.767-0.076c-0.278-0.16-0.555-0.442-0.765-0.809l-2.161-3.742
					c-0.423-0.729-0.421-1.518,0.005-1.761c0.213-0.12,0.49-0.081,0.767,0.079c0.277,0.16,0.554,0.441,0.765,0.806l1.397,2.419
					l3.877-2.206l0.52-0.296C41.641,39.337,41.918,39.375,42.195,39.535z" class="color4dba64 svgShape"/><path fill="#36ffef" d="M62.723 73.839c.597.345 1.084 1.188 1.082 1.874-.002.682-.492.962-1.089.617l-4.335-2.503c-.597-.345-1.081-1.186-1.079-1.868.002-.686.489-.967 1.086-.622L62.723 73.839zM53.013 53.264c.594.343 1.081 1.186 1.079 1.872-.002.682-.492.962-1.086.619-.597-.345-1.084-1.188-1.082-1.87C51.926 53.199 52.416 52.919 53.013 53.264zM62.738 68.858c.597.345 1.084 1.188 1.082 1.874-.002.682-.492.961-1.089.617l-11.92-6.882c-.597-.345-1.084-1.188-1.082-1.87.002-.686.492-.965 1.089-.621L62.738 68.858zM62.766 58.895c.597.345 1.084 1.188 1.082 1.874-.002.682-.492.962-1.089.617l-5.417-3.128c-.597-.345-1.084-1.188-1.082-1.87.002-.686.492-.965 1.089-.621L62.766 58.895zM62.78 53.913c.6.347 1.084 1.184 1.082 1.874-.002.686-.489.963-1.089.617L48.685 48.27c-.6-.347-1.084-1.184-1.082-1.87.002-.69.489-.967 1.089-.621L62.78 53.913z" class="colorffb236 svgShape"/><path fill="#00ffea" d="M71.428,66.74c0.597,0.345,1.084,1.188,1.082,1.885l-0.07,24.548
					c-0.006,2.054-1.476,2.888-3.264,1.856L23.657,68.748c-1.788-1.032-3.245-3.556-3.239-5.611l0.127-44.833
					c-0.002,0.686,0.482,1.524,1.079,1.868l1.085,0.627l-0.124,43.59c-0.002,0.682,0.482,1.523,1.079,1.868l45.519,26.281
					c0.597,0.345,1.087,0.066,1.089-0.617l0.07-24.548C70.344,66.676,70.831,66.395,71.428,66.74z" class="color00b7ff svgShape"/><path fill="#36ffef" d="M62.801,46.441c0.6,0.346,1.084,1.184,1.082,1.874c-0.002,0.686-0.489,0.963-1.089,0.617
					L45.453,38.92c-0.597-0.345-1.081-1.182-1.079-1.868c0.002-0.69,0.489-0.967,1.086-0.622L62.801,46.441z" class="colorffb236 svgShape"/><path fill="#b3fff9" d="M69.339,37.742c0.597,0.345,1.084,1.184,1.082,1.874l-0.018,6.225L35.179,25.504l-2.915-6.173
					c-0.203-0.43-0.528-0.805-0.864-0.998l-6.503-3.754c-0.348-0.201-0.674-0.202-0.87-0.002l-1.305,1.24l0.011-3.732
					c0.002-0.689,0.489-0.967,1.086-0.622L69.339,37.742z M67.158,41.472c0.597,0.345,1.087,0.066,1.089-0.617
					c0.002-0.686-0.485-1.529-1.082-1.874c-0.597-0.345-1.084-0.064-1.086,0.622C66.077,40.286,66.561,41.127,67.158,41.472
					L67.158,41.472z M62.822,38.969c0.597,0.345,1.087,0.066,1.089-0.617c0.002-0.686-0.485-1.529-1.082-1.874
					c-0.597-0.345-1.084-0.064-1.086,0.622C61.742,37.783,62.225,38.624,62.822,38.969L62.822,38.969z M58.487,36.466
					c0.597,0.345,1.087,0.065,1.089-0.617c0.002-0.686-0.485-1.529-1.082-1.874c-0.597-0.345-1.084-0.063-1.086,0.623
					C57.407,35.28,57.89,36.121,58.487,36.466L58.487,36.466z" class="colorb3edff svgShape"/><path fill="#00ffea" d="M58.494 33.975c.597.345 1.084 1.188 1.082 1.874-.002.682-.492.962-1.089.617-.597-.345-1.081-1.186-1.079-1.868C57.41 33.911 57.897 33.63 58.494 33.975zM62.829 36.478c.597.345 1.084 1.188 1.082 1.874-.002.682-.492.962-1.089.617-.597-.345-1.081-1.186-1.079-1.868C61.746 36.414 62.232 36.133 62.829 36.478z" class="color00b7ff svgShape"/><path fill="#00ffea" d="M69.346,35.251c1.794,1.036,3.248,3.554,3.242,5.616l-0.021,7.472
					c0.001-0.323-0.119-0.719-0.313-1.066c-0.204-0.345-0.487-0.645-0.768-0.807l-1.082-0.625l0.018-6.225
					c0.002-0.69-0.485-1.529-1.082-1.874L23.82,11.461c-0.597-0.345-1.084-0.067-1.086,0.622l-0.011,3.732l-1.962,1.864
					c-0.129,0.12-0.202,0.313-0.214,0.556l0.019-7.403c0.006-2.062,1.466-2.897,3.26-1.862L69.346,35.251z" class="color00b7ff svgShape"/><path fill="#00ffea" d="M72.254 47.273c.194.347.314.744.314 1.066l-.029 10.323c-.002.686-.492.965-1.089.62-.597-.345-1.081-1.186-1.079-1.872l.026-9.079L34.63 27.681c-.335-.194-.66-.569-.867-1l-2.911-6.171-5.421-3.13-1.632 1.552-2.167-1.251c-.539-.311-.989-.115-1.072.435.027-.187.095-.337.202-.437l1.962-1.864 1.305-1.24c.196-.2.522-.199.87.002l6.503 3.754c.335.193.66.569.864.998l2.915 6.173L70.404 45.84l1.082.625C71.767 46.627 72.05 46.927 72.254 47.273zM67.165 38.981c.597.345 1.084 1.188 1.082 1.874-.002.682-.492.962-1.089.617-.597-.345-1.081-1.186-1.079-1.869C66.081 38.917 66.568 38.636 67.165 38.981z" class="color00b7ff svgShape"/></g><path fill="#fff" d="M71.442,61.773c-0.597-0.345-1.084-0.078-1.086,0.608c-0.002,0.697,0.482,1.524,1.079,1.868
				l-0.007,2.491c-0.597-0.345-1.084-0.064-1.086,0.633l-0.07,24.548c-0.002,0.682-0.492,0.961-1.089,0.617L23.664,66.257
				c-0.597-0.345-1.081-1.186-1.079-1.868l0.124-43.59l6.503,3.754c0.597,0.345,1.084,0.067,1.086-0.619
				c0.002-0.69-0.482-1.527-1.079-1.872l-5.421-3.13l1.632-1.552l5.421,3.13l2.911,6.171c0.207,0.431,0.532,0.807,0.867,1
				l35.767,20.65l-0.026,9.079c-0.002,0.686,0.482,1.527,1.079,1.872L71.442,61.773z M36.786,32.671
				c-4.182-2.414-7.596-0.469-7.61,4.336c-0.014,4.809,3.378,10.684,7.56,13.099c4.185,2.416,7.599,0.471,7.613-4.338
				C44.364,40.962,40.972,35.087,36.786,32.671L36.786,32.671z M62.702,81.311c0.6,0.347,1.087,0.069,1.089-0.617
				c0.002-0.69-0.482-1.527-1.082-1.874L30.195,60.049c-0.597-0.345-1.084-0.067-1.086,0.622c-0.002,0.686,0.482,1.524,1.079,1.868
				L62.702,81.311L62.702,81.311z M62.794,48.932c0.6,0.346,1.087,0.069,1.089-0.617c0.002-0.69-0.482-1.527-1.082-1.874
				L45.46,36.429c-0.597-0.345-1.084-0.067-1.086,0.622c-0.002,0.686,0.482,1.523,1.079,1.868L62.794,48.932L62.794,48.932z
				 M62.745,66.367c0.6,0.347,1.087,0.069,1.089-0.617c0.002-0.689-0.482-1.527-1.082-1.874l-14.088-8.133
				c-0.6-0.347-1.087-0.069-1.089,0.62c-0.002,0.686,0.482,1.524,1.082,1.87L62.745,66.367L62.745,66.367z M62.773,56.404
				c0.6,0.347,1.087,0.069,1.089-0.617c0.002-0.69-0.482-1.527-1.082-1.874L48.692,45.78c-0.6-0.347-1.087-0.069-1.089,0.62
				c-0.002,0.686,0.482,1.524,1.082,1.87L62.773,56.404L62.773,56.404z M62.73,71.348c0.597,0.345,1.087,0.065,1.089-0.617
				c0.002-0.686-0.485-1.529-1.082-1.874l-11.92-6.882c-0.597-0.345-1.087-0.065-1.089,0.621c-0.002,0.682,0.485,1.525,1.082,1.87
				L62.73,71.348L62.73,71.348z M30.224,50.086c-0.597-0.345-1.084-0.064-1.086,0.622c-0.002,0.682,0.482,1.524,1.079,1.868
				L42.14,59.46c0.594,0.343,1.084,0.064,1.086-0.619c0.002-0.686-0.485-1.529-1.079-1.872L30.224,50.086L30.224,50.086z
				 M38.845,72.527c0.597,0.345,1.087,0.065,1.089-0.617c0.002-0.686-0.485-1.529-1.082-1.874l-8.67-5.006
				c-0.597-0.345-1.084-0.064-1.086,0.622c-0.002,0.682,0.482,1.524,1.079,1.868L38.845,72.527L38.845,72.527z M56.185,82.538
				c0.597,0.345,1.087,0.065,1.089-0.617c0.002-0.686-0.485-1.529-1.082-1.874l-8.67-5.006c-0.597-0.345-1.084-0.063-1.086,0.622
				c-0.002,0.682,0.482,1.524,1.079,1.868L56.185,82.538L56.185,82.538z M62.759,61.385c0.597,0.345,1.087,0.065,1.089-0.617
				c0.002-0.686-0.485-1.529-1.082-1.874l-5.417-3.128c-0.597-0.345-1.087-0.065-1.089,0.621c-0.002,0.682,0.485,1.526,1.082,1.87
				L62.759,61.385L62.759,61.385z M49.718,66.33L44.3,63.202c-0.597-0.345-1.087-0.065-1.089,0.621
				c-0.002,0.682,0.485,1.526,1.082,1.87l5.417,3.128c0.597,0.345,1.087,0.065,1.089-0.617
				C50.802,67.518,50.315,66.675,49.718,66.33L49.718,66.33z M30.21,55.067c-0.597-0.345-1.084-0.064-1.086,0.622
				c-0.002,0.682,0.482,1.524,1.079,1.868l5.421,3.13c0.594,0.343,1.084,0.064,1.086-0.619c0.002-0.686-0.485-1.529-1.079-1.872
				L30.21,55.067L30.21,55.067z M62.716,76.33c0.597,0.345,1.087,0.065,1.089-0.617c0.002-0.686-0.485-1.529-1.082-1.874
				l-4.335-2.503c-0.597-0.345-1.084-0.064-1.086,0.622c-0.002,0.682,0.482,1.524,1.079,1.868L62.716,76.33L62.716,76.33z
				 M47.589,51.382c-0.002,0.682,0.485,1.526,1.082,1.87c0.594,0.343,1.084,0.064,1.086-0.619c0.002-0.686-0.485-1.529-1.079-1.872
				C48.081,50.416,47.591,50.695,47.589,51.382L47.589,51.382z M51.924,53.884c-0.002,0.682,0.485,1.526,1.082,1.87
				c0.594,0.343,1.084,0.063,1.086-0.619c0.002-0.686-0.485-1.529-1.079-1.872C52.416,52.919,51.926,53.198,51.924,53.884
				L51.924,53.884z M41.044,62.571c0.002-0.686-0.485-1.529-1.079-1.872c-0.597-0.345-1.087-0.065-1.089,0.621
				c-0.002,0.682,0.485,1.526,1.082,1.87C40.552,63.533,41.042,63.254,41.044,62.571L41.044,62.571z M52.967,69.455
				c-0.002,0.682,0.482,1.524,1.079,1.868c0.597,0.345,1.087,0.065,1.089-0.617c0.002-0.686-0.485-1.529-1.082-1.874
				C53.456,68.488,52.969,68.77,52.967,69.455L52.967,69.455z M60.521,85.041c0.597,0.345,1.087,0.065,1.089-0.617
				c0.002-0.686-0.485-1.529-1.082-1.874c-0.597-0.345-1.084-0.064-1.086,0.622C59.44,83.855,59.924,84.697,60.521,85.041
				L60.521,85.041z M43.18,75.03c0.597,0.345,1.087,0.065,1.089-0.617c0.002-0.686-0.485-1.529-1.082-1.874
				c-0.597-0.345-1.084-0.063-1.086,0.622C42.099,73.843,42.583,74.685,43.18,75.03L43.18,75.03z M45.393,60.093
				c-0.002,0.682,0.485,1.525,1.082,1.87c0.594,0.343,1.084,0.064,1.086-0.619c0.002-0.686-0.485-1.529-1.079-1.872
				C45.885,59.128,45.395,59.407,45.393,60.093L45.393,60.093z" class="colorffffff svgShape"/><path fill="#36ffef" d="M39.965,60.7c0.594,0.343,1.081,1.186,1.079,1.872c-0.002,0.682-0.492,0.962-1.086,0.619
				c-0.597-0.345-1.084-1.188-1.082-1.87C38.878,60.634,39.368,60.355,39.965,60.7z" class="colorffb236 svgShape"/></svg>