<svg xmlns="http://www.w3.org/2000/svg" viewBox="0 0 53 53"><path fill="#defbf9" d="M37.099 25.907v1.94c.01 1.09-.76 2.41-1.7 2.95l-27.88 16.1c-.5.29-.95.3-1.26.1l-.46-.26-2.74-1.56c-.07-.05-.14-.11-.2-.18-.2-.21-.3-.53-.3-.92l-.01-1.94 3.24 1.85 31.31-18.08z" class="colordedffb svgShape"/><path fill="#4d7572" d="m26.799 35.767.523-.302c-2.59-2.89-1.783-8.47 2.407-9.69.792-.45 1.746-.726 2.88-.726 2.065 0 3.56.883 4.49 2.16v-1.302l-.02-20.33c0-.54-.19-.91-.5-1.09v-.01l-3.25-1.86c-.3-.19-.73-.15-1.21.12l-27.92 16.11c-.93.55-1.7 1.87-1.7 2.95l.05 20.34v.144c.906-1.46 2.475-2.505 4.718-2.505 3.023 0 4.827 1.885 5.42 4.14l.672-.389-.01 3.08 1.38.82 5.14 3.07 5.5-3.19 5.56-3.23v-2.34l.01-.3-4.15-2.35.01-3.32z" class="color4d5c75 svgShape"/><path fill="#1c413e" d="m26.799 35.252-.014 3.832-11.049 6.419.013-3.819z" class="color1c2841 svgShape"/><path fill="#eaf6f5" d="m14.397 40.689 9.981-5.801 1.785 1.174-9.982 5.8z" class="coloreaf0f6 svgShape"/><path fill="#1c413e" d="m19.879 47.866 11.055-6.425-.005 2.635-11.056 6.425z" class="color1c2841 svgShape"/><path fill="#4d7572" d="m15.733 45.512 11.056-6.425 4.145 2.354-11.055 6.425z" class="color4d5c75 svgShape"/><path fill="#10322f" d="m15.744 41.687-.011 3.825 4.146 2.354-.006 2.635-6.526-3.895.016-6.459z" class="color101c32 svgShape"/><path fill="none" d="m30.935 41.437-.011 2.644-11.047 6.415-6.527-3.886.011-6.459 11.058-6.426 2.382 1.533-.011 3.825z"/><path fill="#4d7572" d="m36.589 4.487-30.79 39.51-3.25-1.86-.05-20.34c0-1.08.77-2.4 1.7-2.95l27.92-16.11c.48-.27.91-.31 1.21-.12l3.26 1.87z" class="color4d5c75 svgShape"/><path fill="#1c413e" d="M37.097 25.91 5.794 43.999l-.06-20.33c0-1.077.77-2.397 1.71-2.947L35.368 4.609c.942-.55 1.712-.11 1.712.966l.018 20.335z" class="color1c2841 svgShape"/><path fill="#fff" d="M6.885 23.665c0-.666.562-1.628 1.156-1.976l26.83-15.482a.746.746 0 0 1 1.12.646l.016 18.41L6.94 42.062l-.055-18.396z" class="colorffffff svgShape"/><path fill="#defbf9" d="m6.296 47.03-.502-.293-2.731-1.557a.972.972 0 0 1-.208-.183c-.196-.208-.294-.526-.294-.917l-.012-1.944L5.794 44v1.944c.013.538.196.917.502 1.088z" class="colordedffb svgShape"/><path fill="#f8fefe" d="m37.097 25.91.006 1.94c.003 1.084-.76 2.404-1.703 2.949l-27.886 16.1c-.949.547-1.716.11-1.719-.974l-.005-1.94L37.097 25.91z" class="colorf8f9fe svgShape"/><path fill="#bbc6c5" d="M22.455 36.212c0 .686-.477 1.492-1.064 1.84-.587.338-1.064.07-1.064-.607 0-.686.467-1.512 1.064-1.85.587-.328 1.064-.05 1.064.617z" class="colorbbbec6 svgShape"/><path fill="#fff" d="M7.701 20.912c.15.05.15.249 0 .298a3.033 3.033 0 0 0-1.94 1.94.155.155 0 0 1-.298 0 3.037 3.037 0 0 0-1.94-1.94.155.155 0 0 1 0-.298 3.033 3.033 0 0 0 1.94-1.94c.049-.151.248-.151.298 0a3.033 3.033 0 0 0 1.94 1.94z" class="colorffffff svgShape"/><path fill="#65eadf" d="m46.829 29.877 1.68 1.86-1.89 3.27-2.47-.49c-.56.7-1.18 1.36-1.82 1.92l-.56 3.68-2.68 1.55-1.66-.96-.35-1.86c-.13 0-.26-.01-.39-.02l-2.46 3.33-1.9-1.08-1.66-.97 1.66-3.79c-.07-.1-.13-.2-.19-.3l-1.83.65-1.66-.97-.01-3.08 2.91-2.33c.17-.85.42-1.7.76-2.54l-1.68-1.87 1.89-3.27 2.47.49c.56-.7 1.18-1.36 1.82-1.92l.56-3.68 2.68-1.55 1.66.97.35 1.86c.13 0 .26.01.39.02l2.45-3.34 1.91 1.08 1.66.97-1.66 3.79c.07.1.14.2.2.31l1.82-.65 1.66.97.01 3.08-2.91 2.32c-.17.85-.43 1.7-.76 2.55z" class="color656fea svgShape"/><path fill="#6ff1e6" d="m39.092 41.669-1.661-.965-.571-3.032 1.661.965zM47.575 22.958l-1.661-.965 2.918-1.035 1.66.965zM42.91 21.151l1.66.965c1.057.614 1.712 1.92 1.717 3.776.01 3.74-2.616 8.288-5.87 10.167l-1.66-.965c3.254-1.879 5.88-6.428 5.87-10.167-.006-1.856-.66-3.162-1.717-3.776zM36.23 36.47l-1.661-.965c1.07.622 2.552.534 4.188-.41l1.66.965c-1.635.944-3.117 1.032-4.188.41zM46.564 16.42l-1.66-.965 1.904 1.085 1.66.965zM32.333 41.076l-1.661-.965 1.657-3.79 1.66.965zM44.108 19.76l-1.661-.965 2.457-3.34 1.66.965z" class="color6f93f1 svgShape"/><path fill="#55d7cc" d="m33.99 37.286-1.661-.965a5.013 5.013 0 0 1-.766-1.662l1.66.965c.173.648.434 1.202.766 1.662zm8.287-17.343-1.66-.965a4.94 4.94 0 0 1 1.83-.183l1.66.965a4.94 4.94 0 0 0-1.83.183zM33.211 31.25l-1.66-.965c.168-.845.422-1.695.753-2.539l1.661.965a14.937 14.937 0 0 0-.754 2.54zm3.438-7.184-1.66-.965a14.976 14.976 0 0 1 1.825-1.929l1.66.965a14.976 14.976 0 0 0-1.825 1.929z" class="color5564d7 svgShape"/><path fill="#41e1d4" d="m30.306 36.662-1.66-.965-.009-3.079 1.66.965z" class="color6bb4f9 svgShape"/><path fill="#6ff1e6" d="m30.297 33.583-1.66-.965 2.914-2.332 1.66.965z" class="color6f93f1 svgShape"/><path fill="#41e1d4" d="m39.026 18.461-1.66-.965 2.68-1.548 1.66.965z" class="color6bb4f9 svgShape"/><path fill="#6ff1e6" d="m38.474 22.138-1.66-.965.552-3.677 1.66.965zM33.965 28.712l-1.661-.965-1.672-1.868 1.66.965zM34.179 23.571l-1.661-.965 2.47.496 1.661.965z" class="color6f93f1 svgShape"/><path fill="#41e1d4" d="m32.292 26.844-1.66-.965 1.886-3.273 1.661.965z" class="color6bb4f9 svgShape"/><path fill="#65eadf" d="m50.501 25.003-2.914 2.329c-.168.844-.425 1.7-.754 2.541l1.676 1.864-1.892 3.273-2.468-.494a14.947 14.947 0 0 1-1.825 1.925l-.552 3.68-2.68 1.548-.571-3.032c-.65.182-1.265.24-1.83.185l-2.46 3.34-1.898-1.086 1.656-3.79a5.013 5.013 0 0 1-.765-1.662l-2.918 1.038-.009-3.08 2.914-2.33c.169-.846.422-1.696.754-2.54l-1.673-1.868 1.887-3.273 2.47.496a14.976 14.976 0 0 1 1.825-1.929l.552-3.677 2.68-1.548.571 3.03a4.94 4.94 0 0 1 1.83-.183l2.457-3.34 1.904 1.085-1.659 3.789c.333.46.593 1.017.766 1.664l2.917-1.035.009 3.08zM40.417 36.059c3.254-1.879 5.88-6.428 5.87-10.167-.01-3.737-2.654-5.243-5.908-3.364-3.25 1.876-5.878 6.426-5.868 10.163.01 3.74 2.657 5.244 5.906 3.368z" class="color656fea svgShape"/><path fill="#fff" d="M46.29 25.89c.01 3.74-2.62 8.29-5.87 10.17-3.25 1.87-5.9.37-5.91-3.37-.01-3.731 2.62-8.291 5.87-10.161 3.25-1.88 5.9-.38 5.91 3.36z" class="colorffffff svgShape"/><path fill="#e3f0ef" d="m12.054 20.552.05 17.761-.69.399-.05-17.762zM10.242 38.151l.004 1.235-1.069.617-.004-1.235zM10.211 27.167l.004 1.228-1.069.617-.004-1.228zM10.219 29.916l.003 1.229-1.069.617-.003-1.229zM10.227 32.659l.003 1.228-1.069.617-.003-1.228zM10.234 35.401l.004 1.236-1.069.617-.004-1.236zM10.203 24.417l.004 1.236-1.069.617-.004-1.236zM10.195 21.668l.004 1.235-1.069.617-.004-1.235z" class="colore3e7f0 svgShape"/><path fill="#73ddd4" d="m35.399 18.447.002.793-1.317.761-.003-.793z" class="colordd7b73 svgShape"/><path fill="#e3f0ef" d="m35.386 13.984.003.792-6.477 3.739-.002-.792zM33.18 19.728l.002.793-7.613 4.396-.002-.793z" class="colore3e7f0 svgShape"/><path fill="#a8ccc9" d="m33.174 17.5.002.793-6.172 3.563-.002-.793z" class="colora8b6cc svgShape"/><path fill="#e3f0ef" d="m27.704 18.419.003.793-4.917 2.838-.002-.793zM24.802 17.863l.002.793-4.91 2.834-.002-.792z" class="colore3e7f0 svgShape"/><path fill="#51f4e7" d="m22.314 14.342 1.808 1.03-1.796 3.105-.486-.285 1.307-2.256-1.316-.75z" class="colorf45170 svgShape"/><path fill="#60dbd1" d="m21.279 28.968 1.59.906-1.586 2.732-.487-.284 1.091-1.881-1.098-.633z" class="colordba660 svgShape"/><path fill="#e3f0ef" d="m24.821 24.555.002.792-6.837 3.948-.002-.793z" class="colore3e7f0 svgShape"/><path fill="#a8ccc9" d="m26.256 21.494.003.793-6.352 3.667-.003-.793z" class="colora8b6cc svgShape"/><path fill="#e3f0ef" d="m22.049 21.684.002.793-5.544 3.201-.002-.793z" class="colore3e7f0 svgShape"/><path fill="#56c6bd" d="m18.68 21.397.002.793-4.4 2.541-.002-.793z" class="color89c656 svgShape"/><path fill="#51f4e7" d="m15.577 18.231.486.285-1.307 2.264 1.316.742-.483.845-1.809-1.024zM21.15 16.688l.003.792-4.401 2.541-.002-.793z" class="colorf45170 svgShape"/><path fill="#60dbd1" d="m15.399 32.362.493.274-1.097 1.899 1.104.615-.49.847-1.59-.899zM20.239 30.991l.002.793-3.791 2.189-.003-.793z" class="colordba660 svgShape"/><path fill="#e3f0ef" d="m33.161 13.036.003.793-7.614 4.396-.002-.793z" class="colore3e7f0 svgShape"/><path fill="#77dfd7" d="m35.38 11.755.002.793-1.317.761-.002-.793z" class="color77b0df svgShape"/><path fill="#e3f0ef" d="m18.693 25.861.002.793-4.401 2.54-.002-.793z" class="colore3e7f0 svgShape"/><path fill="#44b3aa" d="m15.603 25.405.003.793-1.318.761-.002-.793z" class="colorb38044 svgShape"/><path fill="#e3f0ef" d="m35.393 16.219.002.793-1.318.76-.002-.792z" class="colore3e7f0 svgShape"/><path fill="#73ddd4" d="m16.778 29.198.003.793-2.48 1.431-.003-.792z" class="colordd7b73 svgShape"/><path fill="#32dfd1" d="M44.999 27.127c0 .12-.05.26-.12.39l-2.02 3.32c-.07.12-.16.21-.25.26-.1.06-.2.07-.28.02l-.44-.25c0-.01 0-.01-.01-.01-.14-.09-.13-.37.02-.62l1.7-2.8-1.26-.62h-.01l-.45-.26c-.01-.01-.01-.02-.02-.02l-2.1 7.53c-.06.2-.2.39-.35.48-.05.03-.09.04-.14.05s-.1-.01-.14-.03l-.44-.26c-.1-.05-.14-.21-.09-.41l.17-.61a.48.48 0 0 1-.11.09c-.09.05-.19.07-.26.03l-2.03-.99h-.01l-.45-.26c-.07-.04-.11-.13-.11-.25s.05-.26.12-.38l2.02-3.32a.82.82 0 0 1 .25-.27c.1-.05.2-.07.27-.02l.44.26h.02c.14.1.13.38-.02.63l-1.7 2.8 1.26.61c.01 0 .01.01.01.01l.45.26c.03.02.04.04.06.06l2.13-7.61c.06-.21.2-.4.35-.49.05-.02.09-.04.14-.04.05-.01.09 0 .13.02l.45.26c.1.06.14.21.08.41l-.16.6.04-.04c.1-.05.19-.07.26-.03l2.02.99c.01 0 .02.01.02.01l.43.25c.08.04.13.13.13.25z" class="colordf3260 svgShape"/><path fill="#51f4e7" d="m42.85 25.888-.45-.261 2.024.991.449.261z" class="colorf45170 svgShape"/><path fill="#51f4e7" d="m44.44 26.626.45.261a.173.173 0 0 0-.017-.008l-.45-.261.017.008zM42.349 30.496l-.45-.261 1.716-2.832.45.262z" class="colorf45170 svgShape"/><path fill="#51f4e7" d="m42.34 31.124-.45-.261a.183.183 0 0 1-.008-.005c-.142-.094-.135-.373.017-.623l.45.261c-.152.25-.16.53-.018.623a.18.18 0 0 0 .009.005zm-3.202 3.449-.45-.262c-.102-.059-.14-.216-.086-.413l.45.262c-.054.196-.016.354.086.413zM37.184 31.637l-.45-.261 1.727.844.45.261zM38.473 32.226l.45.261a.176.176 0 0 0-.012-.006l-.45-.261a.18.18 0 0 1 .012.006zm4.12-6.306-.45-.26c.092-.054.184-.069.257-.033l.45.26c-.073-.035-.165-.02-.257.033zm-.264.896-.45-.262c-.143-.083-.149-.344-.011-.598a.772.772 0 0 1 .275-.297l.45.261a.772.772 0 0 0-.276.297c-.137.254-.132.515.012.599z" class="colorf45170 svgShape"/><path fill="#32dfd1" d="M42.593 25.92c.092-.053.184-.068.257-.032l2.023.991c.08.036.123.126.123.245a.76.76 0 0 1-.12.389l-2.012 3.32a.758.758 0 0 1-.257.265c-.1.058-.202.07-.276.021-.141-.093-.134-.372.018-.623l1.716-2.831-1.727-.844c-.152-.078-.161-.345-.02-.604a.772.772 0 0 1 .275-.297z" class="colordf3260 svgShape"/><path fill="#51f4e7" d="m41.73 24.426.449.26a.206.206 0 0 0-.132-.022.377.377 0 0 0-.135.049l-.45-.261a.377.377 0 0 1 .135-.05.206.206 0 0 1 .132.024zM39.052 34.16l-.45-.262 2.507-8.964.449.262z" class="colorf45170 svgShape"/><path fill="#51f4e7" d="m41.558 25.196-.45-.262a.843.843 0 0 1 .355-.482l.45.261a.843.843 0 0 0-.355.483z" class="colorf45170 svgShape"/><path fill="#32dfd1" d="M41.912 24.713a.377.377 0 0 1 .135-.05c.195-.025.291.17.216.439l-2.507 8.967a.833.833 0 0 1-.35.478.365.365 0 0 1-.136.049c-.195.025-.291-.17-.218-.436l2.506-8.964a.843.843 0 0 1 .354-.483z" class="colordf3260 svgShape"/><path fill="#51f4e7" d="m38.46 27.913.45.262c-.074-.043-.171-.03-.268.026l-.45-.261c.097-.056.194-.07.268-.027zM38.385 28.465l-.45-.261a.758.758 0 0 1 .257-.264l.45.261a.758.758 0 0 0-.257.264z" class="colorf45170 svgShape"/><path fill="#51f4e7" d="m36.371 31.788-.449-.261 2.014-3.323.449.261z" class="colorf45170 svgShape"/><path fill="#51f4e7" d="m36.362 32.415-.45-.26c-.07-.041-.109-.129-.11-.244 0-.119.044-.26.12-.384l.45.26a.772.772 0 0 0-.12.385c0 .116.04.203.11.243z" class="colorf45170 svgShape"/><path fill="#32dfd1" d="M38.642 28.201c.1-.058.202-.07.276-.021.141.096.134.372-.018.626l-1.716 2.831 1.727.844c.152.075.161.345.02.6a.772.772 0 0 1-.275.297c-.091.054-.184.068-.257.033l-2.026-.99c-.076-.037-.12-.127-.12-.249 0-.119.042-.26.118-.384l2.014-3.323a.758.758 0 0 1 .257-.264z" class="colordf3260 svgShape"/></svg>