<svg xmlns="http://www.w3.org/2000/svg" enable-background="new 0 0 51 51" viewBox="0 0 51 51"><g enable-background="new"><path fill="#B2B0AF" d="M12.80527,49.1293l-4.04682-2.35175c-0.21371-0.1242-0.34619-0.38828-0.34725-0.76388l4.04682,2.35175
					C12.45908,48.74102,12.59156,49.0051,12.80527,49.1293z"/><polygon fill="#D6D4D2" points="12.458 48.365 8.411 46.014 8.347 23.224 12.393 25.576"/><polygon fill="#B2B0AF" points="12.458 48.365 8.411 46.014 8.388 37.672 12.434 40.024"/><path fill="#C4C2C0" d="M42.59773,8.13704l0.06461,22.78991c0.00215,0.75656-0.52882,1.67625-1.18724,2.05639L13.65389,49.04591
					c-0.65842,0.38014-1.19373,0.07607-1.19588-0.6805l-0.06461-22.78991L42.59773,8.13704z"/><path fill="#FFF" d="M13.47711,26.19913l28.044-16.19119l0.05929,20.92209c0.00103,0.36754-0.32511,0.93093-0.64626,1.11632
					L14.27585,47.43753c-0.32823,0.18951-0.73865-0.04668-0.73973-0.42568L13.47711,26.19913z"/></g><g enable-background="new"><path fill="#B5E5F4" d="M38.19453,1.87067l4.04681,2.35175c-0.21649-0.12581-0.51633-0.10811-0.84754,0.08312l-4.04682-2.35175
					C37.6782,1.76256,37.97803,1.74486,38.19453,1.87067z"/><polygon fill="#82C6E0" points="12.393 25.575 8.347 23.223 8.338 20.073 12.384 22.425"/><polygon fill="#82C6E0" points="13.572 20.369 9.525 18.017 37.347 1.954 41.394 4.306"/><polygon fill="#3F9AE0" points="13.572 20.369 9.525 18.017 25.03 9.065 29.077 11.417"/><path fill="#82C6E0" d="M12.38448,22.425l-4.04682-2.35175c-0.00214-0.75555,0.5297-1.67674,1.18723-2.05637l4.04681,2.35175
					C12.91417,20.74826,12.38233,21.66945,12.38448,22.425z"/><path fill="#0074D1" d="M41.3938,4.30554c0.65841-0.38014,1.19286-0.07456,1.195,0.68099l0.00893,3.1495L12.3934,25.5745
					l-0.00893-3.1495c-0.00214-0.75555,0.5297-1.67674,1.18723-2.05637L41.3938,4.30554z"/></g><g enable-background="new"><polygon fill="#EFC348" points="31.714 32.614 30.394 31.847 30.389 30.126 31.709 30.893"/><polygon fill="#FFD651" points="31.709 30.893 30.389 30.126 32.229 29.064 33.549 29.831"/><polygon fill="#DDB040" points="31.709 30.893 30.389 30.126 31.327 29.584 32.647 30.351"/><polygon fill="#FFD651" points="24.66 36.687 23.341 35.92 30.394 31.847 31.714 32.614"/><polygon fill="#DDB040" points="24.66 36.687 23.341 35.92 27.314 33.625 28.634 34.392"/><polygon fill="#EFC348" points="22.827 39.862 21.507 39.095 21.496 35.26 22.816 36.027"/><polygon fill="#CEA03A" points="33.549 29.831 33.559 33.666 22.827 39.862 22.816 36.027 24.655 34.965 24.66 36.687 31.714 32.614 31.709 30.893"/><polygon fill="#DD4A4A" points="27.263 32.811 25.944 32.044 25.922 24.39 27.242 25.157"/><polygon fill="#C44141" points="27.263 32.811 25.944 32.044 25.995 28.947 27.314 29.714"/><polygon fill="#F25A5A" points="28.151 20.933 26.831 20.166 31.232 21.963 32.552 22.73"/><polygon fill="#C44141" points="24.977 28.708 23.658 27.941 22.455 27.03 23.774 27.797"/><polygon fill="#CC4848" points="28.151 20.933 32.552 22.73 31.359 25.025 29.081 24.095 29.103 31.749 27.263 32.811 27.242 25.157 24.977 28.708 23.774 27.797"/><polygon fill="#DD4A4A" points="23.774 27.797 22.455 27.03 26.831 20.166 28.151 20.933"/><polygon fill="#F25A5A" points="23.774 27.797 22.455 27.03 24.826 23.311 26.145 24.078"/></g><g enable-background="new"><path fill="#FFD651" d="M15.58568,20.53209l0.55657,0.32344c-0.17233-0.10015-0.41101-0.08599-0.67451,0.06614l-0.55657-0.32344
				C15.17467,20.44609,15.41335,20.43194,15.58568,20.53209z"/><path fill="#EFC348" d="M14.80005,23.16584l-0.55657-0.32344c-0.17021-0.09892-0.27577-0.30925-0.27662-0.60802
				c-0.00171-0.6017,0.42115-1.33411,0.94431-1.63616l0.55657,0.32344c-0.52316,0.30205-0.94601,1.03446-0.94431,1.63616
				C14.52428,22.8566,14.62984,23.06693,14.80005,23.16584z"/><path fill="#DDB040" d="M14.80116,23.16514l-0.55941-0.32722c-0.16893-0.09496-0.27446-0.30609-0.27446-0.60168l0.55941,0.31672
				C14.52671,22.85905,14.6323,23.07018,14.80116,23.16514z"/><path fill="#CEA03A" d="M15.46774,20.92167c0.52363-0.30232,0.94925-0.05977,0.95096,0.54192
				c0.0017,0.60114-0.42115,1.33411-0.94478,1.63643c-0.52316,0.30204-0.94878,0.05895-0.95048-0.5422
				C14.52172,21.95613,14.94458,21.22371,15.46774,20.92167z"/></g><g enable-background="new"><path fill="#DD4A4A" d="M18.78127,18.68711l0.55657,0.32344c-0.17233-0.10015-0.41101-0.08599-0.67452,0.06614l-0.55657-0.32344
				C18.37025,18.60112,18.60893,18.58697,18.78127,18.68711z"/><path fill="#FC7E7E" d="M17.99564,21.32087l-0.55657-0.32344c-0.17021-0.09892-0.27577-0.30925-0.27662-0.60802
				c-0.00171-0.60169,0.42115-1.33411,0.9443-1.63615l0.55657,0.32344c-0.52315,0.30204-0.94601,1.03446-0.9443,1.63615
				C17.71986,21.01163,17.82543,21.22196,17.99564,21.32087z"/><path fill="#DD4A4A" d="M17.99955,21.31791l-0.55948-0.31666c-0.16886-0.10553-0.27446-0.31666-0.27446-0.61224l0.54891,0.32722
				C17.72509,21.01182,17.83062,21.22294,17.99955,21.31791z"/><path fill="#C44141" d="M18.66331,19.0767c0.52364-0.30232,0.94926-0.05978,0.95097,0.54192
				c0.0017,0.60114-0.42115,1.33411-0.94479,1.63643c-0.52315,0.30204-0.94877,0.05894-0.95048-0.5422
				C17.71731,20.11115,18.14017,19.37874,18.66331,19.0767z"/></g><g enable-background="new"><path fill="#FFF" d="M21.97684,16.84214l0.55657,0.32344c-0.17233-0.10015-0.41101-0.08599-0.67451,0.06614l-0.55657-0.32344
				C21.56583,16.75615,21.80451,16.74199,21.97684,16.84214z"/><path fill="#E9E8E6" d="M21.19122,19.4759l-0.55657-0.32344c-0.17021-0.09892-0.27577-0.30925-0.27662-0.60802
				c-0.00171-0.6017,0.42115-1.33411,0.9443-1.63615l0.55657,0.32344c-0.52315,0.30204-0.94601,1.03446-0.9443,1.63615
				C20.91545,19.16665,21.02101,19.37699,21.19122,19.4759z"/><path fill="#FFF" d="M21.1873,19.47067l-0.54885-0.31666c-0.16893-0.10553-0.27446-0.30609-0.28502-0.61224l0.55948,0.32722
				C20.91291,19.16458,21.01844,19.37571,21.1873,19.47067z"/><path fill="#B2B0AF" d="M21.8589,17.23173c0.52364-0.30232,0.94925-0.05977,0.95096,0.54192
				c0.00171,0.60114-0.42114,1.33411-0.94478,1.63643c-0.52315,0.30204-0.94877,0.05894-0.95048-0.5422
				C20.91289,18.26618,21.33575,17.53377,21.8589,17.23173z"/></g><g enable-background="new"><path fill="#FFF" d="M40.26205,6.51035l0.5204,0.30242c-0.13157-0.07646-0.3138-0.06564-0.51493,0.05048l-0.5204-0.30242
				C39.94825,6.44471,40.13048,6.4339,40.26205,6.51035z"/><polygon fill="#E9E8E6" points="29.031 13.351 28.511 13.048 39.747 6.561 40.268 6.863"/><polygon fill="#D6D4D2" points="29.031 13.351 28.511 13.048 35.067 9.263 35.587 9.565"/><path fill="#FFF" d="M28.52102,15.06338l-0.5204-0.30242c-0.12982-0.07545-0.2103-0.23591-0.21095-0.46401
				c-0.0013-0.45916,0.32136-1.01802,0.72094-1.24872l0.5204,0.30242c-0.39959,0.2307-0.72224,0.78957-0.72094,1.24872
				C28.31072,14.82748,28.3912,14.98794,28.52102,15.06338z"/><path fill="#C4C2C0" d="M40.26751,6.86326c0.39959-0.2307,0.72458-0.04576,0.72588,0.4134
				c0.0013,0.45916-0.32158,1.01815-0.72117,1.24885L29.03573,15.0129c-0.39959,0.2307-0.72435,0.04563-0.72566-0.41353
				c-0.0013-0.45916,0.32136-1.01802,0.72094-1.24872L40.26751,6.86326z"/></g><polygon fill="#FFD651" points="22.812 36.029 21.496 35.26 23.339 34.197 24.655 34.965"/><g><polygon fill="#FFD651" points="22.812 36.029 21.496 35.26 22.405 34.735 23.722 35.504"/></g></svg>