<svg xmlns="http://www.w3.org/2000/svg" xmlns:xlink="http://www.w3.org/1999/xlink" viewBox="0 0 64 64"><path fill="#61a19c" d="M64 31.88v.25c-.06 16.62-12.81 30.27-29.08 31.73-.36.04-.72.07-1.08.09-.61.04-1.22.05-1.84.05C14.33 64 0 49.68 0 32 0 14.33 14.33 0 32 0c17.63 0 31.93 14.25 32 31.88z" class="color6178a1 svgShape"/><path d="M64 31.88v.25c-.06 16.62-12.81 30.27-29.08 31.73L15.97 47.99l1.44-1.03 1.66-1.2 4.39-3.15 1.9-1.37 1.77-1.27 8.28-5.94 3.49-2.52.8-.57 2.11-1.51 1.02-.74.37-.27.91-.64 1.79-1.29 6.8-4.89 1.65-1.18.01-.01L64 31.88z" class="color000000 svgShape" opacity=".15"/><defs><path id="a" fill="#000" d="m46.8 41.61 3.63 1.97.06.03-3.63-1.97c-.02 0-.04-.01-.06-.03z" class="color000000 svgShape"/></defs><clipPath id="b"><use overflow="visible" xlink:href="#a"/></clipPath><g class="color000000 svgShape" clip-path="url(#b)"><path fill="#7c7f7f" d="m50.49 43.62-3.63-1.97-.06-.03 3.63 1.97.06.03" class="color7c7e7f svgShape"/></g><defs><path id="c" fill="#000" d="m49.16 45.44-3.63-1.97c.03-.04.06-.07.09-.11l3.63 1.97c-.03.04-.06.07-.09.11z" class="color000000 svgShape"/></defs><clipPath id="d"><use overflow="visible" xlink:href="#c"/></clipPath><g class="color000000 svgShape" clip-path="url(#d)"><path fill="#267d76" d="m49.16 45.44-3.63-1.97c.03-.04.06-.07.09-.11l3.63 1.97c-.03.04-.06.07-.09.11" class="color26647d svgShape"/></g><defs><path id="e" fill="#000" d="m48.55 46.18-3.63-1.97c.21-.25.41-.49.61-.74l3.63 1.97c-.2.25-.4.49-.61.74z" class="color000000 svgShape"/></defs><clipPath id="f"><use overflow="visible" xlink:href="#e"/></clipPath><g class="color000000 svgShape" clip-path="url(#f)"><path fill="#267d76" d="m48.55 46.18-3.63-1.97c.21-.25.41-.49.61-.74l3.63 1.97c-.2.25-.4.49-.61.74" class="color26647d svgShape"/></g><defs><path id="g" fill="#000" d="m47.5 47.3-3.63-1.97.3-.3c.19-.19.37-.4.56-.6.06-.07.13-.14.19-.21l3.63 1.97c-.06.07-.13.14-.19.21-.19.2-.37.41-.56.6l-.3.3z" class="color000000 svgShape"/></defs><clipPath id="h"><use overflow="visible" xlink:href="#g"/></clipPath><g class="color000000 svgShape" clip-path="url(#h)"><path fill="#27827b" d="m47.5 47.3-3.63-1.97.3-.3c.19-.19.37-.4.56-.6.06-.07.13-.14.19-.21l3.63 1.97c-.06.07-.13.14-.19.21-.19.2-.37.41-.56.6l-.3.3" class="color276782 svgShape"/></g><defs><path id="i" fill="#000" d="m47.02 47.78-3.63-1.97c.16-.15.32-.31.48-.48l3.63 1.97-.48.48z" class="color000000 svgShape"/></defs><clipPath id="j"><use overflow="visible" xlink:href="#i"/></clipPath><g class="color000000 svgShape" clip-path="url(#j)"><path fill="#27827b" d="m47.02 47.78-3.63-1.97c.16-.15.32-.31.48-.48l3.63 1.97-.48.48" class="color276782 svgShape"/></g><defs><path id="k" fill="#000" d="m46.68 48.09-3.63-1.97c.11-.1.22-.21.34-.32l3.63 1.97c-.11.11-.23.22-.34.32z" class="color000000 svgShape"/></defs><clipPath id="l"><use overflow="visible" xlink:href="#k"/></clipPath><g class="color000000 svgShape" clip-path="url(#l)"><path fill="#27827b" d="m46.68 48.09-3.63-1.97c.11-.1.22-.21.34-.32l3.63 1.97c-.11.11-.23.22-.34.32" class="color276782 svgShape"/></g><defs><path id="m" fill="#000" d="m45.85 48.82-3.63-1.97c.12-.1.25-.2.37-.31.15-.14.31-.28.47-.42l3.63 1.97c-.16.14-.31.28-.47.42-.12.11-.25.21-.37.31z" class="color000000 svgShape"/></defs><clipPath id="n"><use overflow="visible" xlink:href="#m"/></clipPath><g class="color000000 svgShape" clip-path="url(#n)"><path fill="#28867e" d="m45.85 48.82-3.63-1.97c.12-.1.25-.2.37-.31l3.63 1.97c-.12.11-.25.21-.37.31" class="color286b86 svgShape"/><path fill="#27827b" d="m46.22 48.52-3.63-1.97.36-.33 3.63 1.97-.36.33" class="color276782 svgShape"/><path fill="#28867e" d="m46.58 48.19-3.63-1.97c.04-.03.07-.06.11-.09l3.63 1.97c-.04.02-.08.05-.11.09" class="color286b86 svgShape"/></g><defs><path id="o" fill="#000" d="m45.38 49.2-3.63-1.97c.16-.12.31-.25.47-.38l3.63 1.97c-.16.13-.31.27-.47.38z" class="color000000 svgShape"/></defs><clipPath id="p"><use overflow="visible" xlink:href="#o"/></clipPath><g class="color000000 svgShape" clip-path="url(#p)"><path fill="#28867e" d="m45.38 49.2-3.63-1.97c.16-.12.31-.25.47-.38l3.63 1.97c-.16.13-.31.27-.47.38" class="color286b86 svgShape"/></g><defs><path id="q" fill="#000" d="m44.52 49.85-3.63-1.97c.16-.11.32-.23.47-.35l.39-.3 3.63 1.97c-.13.11-.26.2-.39.3-.15.12-.31.24-.47.35z" class="color000000 svgShape"/></defs><clipPath id="r"><use overflow="visible" xlink:href="#q"/></clipPath><g class="color000000 svgShape" clip-path="url(#r)"><path fill="#28867e" d="m44.52 49.85-3.63-1.97c.16-.11.32-.23.47-.35l.39-.3 3.63 1.97c-.13.11-.26.2-.39.3-.15.12-.31.24-.47.35" class="color286b86 svgShape"/></g><defs><path id="s" fill="#000" d="m50.49 43.62-3.63-1.97c2.45-3.69 3.88-8 4.08-12.29l3.63 1.97c-.2 4.29-1.63 8.6-4.08 12.29z" class="color000000 svgShape"/></defs><clipPath id="t"><use overflow="visible" xlink:href="#s"/></clipPath><g class="color000000 svgShape" clip-path="url(#t)"><path fill="#247972" d="m50.49 43.62-3.63-1.97c.42-.64.81-1.29 1.18-1.96l3.63 1.97a26.1 26.1 0 0 1-1.18 1.96" class="color246079 svgShape"/><path fill="#23756e" d="m51.67 41.66-3.63-1.97c.56-1.04 1.04-2.11 1.45-3.21l3.63 1.97c-.41 1.09-.89 2.17-1.45 3.21" class="color235d75 svgShape"/><path fill="#22706a" d="m53.11 38.44-3.63-1.97c.85-2.3 1.34-4.71 1.45-7.11l3.63 1.97c-.1 2.41-.6 4.81-1.45 7.11" class="color225970 svgShape"/></g><defs><path id="u" fill="#000" d="m43.64 50.46-3.63-1.97c.16-.1.32-.21.48-.32.13-.09.27-.18.4-.28l3.63 1.97c-.13.1-.27.19-.4.28-.16.11-.32.22-.48.32z" class="color000000 svgShape"/></defs><clipPath id="v"><use overflow="visible" xlink:href="#u"/></clipPath><g class="color000000 svgShape" clip-path="url(#v)"><path fill="#2a8a82" d="m43.64 50.46-3.63-1.97c.14-.09.28-.19.42-.28l3.63 1.97c-.14.09-.28.19-.42.28" class="color2a6e8a svgShape"/><path fill="#28867e" d="m44.06 50.18-3.63-1.97c.02-.01.04-.03.06-.04.02-.02.05-.03.07-.05l3.63 1.97c-.02.02-.05.03-.07.05a.21.21 0 0 0-.06.04" class="color286b86 svgShape"/><path fill="#2a8a82" d="m44.19 50.09-3.63-1.97c.04-.03.09-.06.13-.09L44.32 50c-.05.03-.09.06-.13.09" class="color2a6e8a svgShape"/><path fill="#28867e" d="m44.32 50-3.63-1.97c.07-.05.14-.09.2-.15l3.63 1.97c-.07.06-.14.1-.2.15" class="color286b86 svgShape"/></g><defs><path id="w" fill="#000" d="m43.22 50.72-3.63-1.97c.13-.09.27-.18.41-.26l3.63 1.97c-.13.09-.27.18-.41.26z" class="color000000 svgShape"/></defs><clipPath id="x"><use overflow="visible" xlink:href="#w"/></clipPath><g class="color000000 svgShape" clip-path="url(#x)"><path fill="#2a8a82" d="m43.22 50.72-3.63-1.97c.13-.09.27-.18.41-.26l3.63 1.97c-.13.09-.27.18-.41.26" class="color2a6e8a svgShape"/></g><defs><path id="y" fill="#000" d="m42.31 51.26-3.63-1.97c.15-.08.29-.16.43-.24.17-.1.33-.2.49-.3l3.63 1.97c-.17.1-.33.2-.49.3-.15.08-.29.16-.43.24z" class="color000000 svgShape"/></defs><clipPath id="z"><use overflow="visible" xlink:href="#y"/></clipPath><g class="color000000 svgShape" clip-path="url(#z)"><path fill="#2a8a82" d="m42.31 51.26-3.63-1.97c.15-.08.29-.16.43-.24.17-.1.33-.2.49-.3l3.63 1.97c-.17.1-.33.2-.49.3-.15.08-.29.16-.43.24" class="color2a6e8a svgShape"/></g><defs><path id="A" fill="#000" d="m41.8 51.53-3.63-1.97c.17-.09.34-.18.5-.27l3.63 1.97c-.16.09-.33.18-.5.27z" class="color000000 svgShape"/></defs><clipPath id="B"><use overflow="visible" xlink:href="#A"/></clipPath><g class="color000000 svgShape" clip-path="url(#B)"><path fill="#2a8a82" d="m41.8 51.53-3.63-1.97c.17-.09.34-.18.5-.27l3.63 1.97c-.16.09-.33.18-.5.27" class="color2a6e8a svgShape"/></g><defs><path id="C" fill="#000" d="m41.37 51.75-3.63-1.97c.15-.07.29-.14.43-.22l3.63 1.97c-.14.08-.28.15-.43.22z" class="color000000 svgShape"/></defs><clipPath id="D"><use overflow="visible" xlink:href="#C"/></clipPath><g class="color000000 svgShape" clip-path="url(#D)"><path fill="#2b8f87" d="m41.37 51.75-3.63-1.98h.02l3.62 1.97-.01.01" class="color2b728f svgShape"/><path fill="#2a8a82" d="m41.38 51.74-3.63-1.97.42-.21 3.63 1.97c-.14.07-.27.15-.42.21" class="color2a6e8a svgShape"/></g><defs><path id="E" fill="#000" d="M39.1 46.71c2.3-.7 4.47-1.81 6.44-3.25l3.63 1.97c-1.97 1.43-4.14 2.54-6.44 3.25-1.09-.59-2.54-1.38-3.63-1.97z" class="color000000 svgShape"/></defs><clipPath id="F"><use overflow="visible" xlink:href="#E"/></clipPath><g class="color000000 svgShape" clip-path="url(#F)"><path fill="#939393" d="m42.73 48.69-3.63-1.97c.96-.29 1.89-.66 2.8-1.08l3.63 1.97c-.91.42-1.85.78-2.8 1.08" class="color939393 svgShape"/><path fill="#8e8f8f" d="m45.52 47.6-3.63-1.97c1.11-.52 2.17-1.14 3.18-1.84l3.63 1.97c-1.01.7-2.07 1.32-3.18 1.84" class="color8e8e8f svgShape"/><path fill="#8a8a8a" d="m48.71 45.76-3.63-1.97c.15-.11.31-.21.46-.32l3.63 1.97c-.16.11-.31.22-.46.32" class="color8a8a8a svgShape"/></g><path fill="#c2c3c3" d="M42.73 48.69c2.3-.7 4.47-1.81 6.44-3.25-.2.25-.41.5-.62.74-.06.07-.13.14-.19.21-.19.2-.37.41-.56.6-.1.1-.2.21-.3.3-.16.17-.32.33-.48.48-.11.11-.23.21-.34.32-.16.14-.31.28-.47.42-.12.11-.25.21-.37.31-.15.13-.31.26-.47.38-.13.11-.26.2-.39.3-.15.12-.31.24-.47.35-.13.1-.27.19-.4.28a25.418 25.418 0 0 1-.89.58c-.17.1-.33.2-.49.3-.14.08-.28.16-.43.24-.17.09-.33.18-.5.27-.14.07-.28.15-.43.22-.17.09-.34.17-.52.24l-.15.07c.74-.95 1.42-2.09 2.03-3.36z" class="colorc2c2c3 svgShape"/><defs><path id="G" fill="#000" d="M37.07 50.09c.73-.97 1.41-2.1 2.02-3.38l3.63 1.97c-.61 1.28-1.29 2.41-2.02 3.38-1.08-.59-2.54-1.38-3.63-1.97z" class="color000000 svgShape"/></defs><clipPath id="H"><use overflow="visible" xlink:href="#G"/></clipPath><g class="color000000 svgShape" clip-path="url(#H)"><path fill="#818181" d="m40.7 52.06-3.63-1.97c.12-.16.24-.32.35-.49l3.63 1.97c-.11.17-.23.34-.35.49" class="color818181 svgShape"/><path fill="#7c7d7d" d="m41.06 51.58-3.63-1.97c.41-.59.8-1.23 1.18-1.92l3.63 1.97c-.38.69-.77 1.33-1.18 1.92" class="color7c7c7d svgShape"/><path fill="#787878" d="m42.23 49.66-3.63-1.97c.17-.31.33-.64.49-.97l3.63 1.97c-.15.33-.32.66-.49.97" class="color787878 svgShape"/></g><defs><path id="I" fill="#000" d="m44.6 43.58-3.63-1.97c1.64.4 3.2.98 4.65 1.75l3.63 1.97c-1.44-.77-3-1.35-4.65-1.75z" class="color000000 svgShape"/></defs><clipPath id="J"><use overflow="visible" xlink:href="#I"/></clipPath><g class="color000000 svgShape" clip-path="url(#J)"><path fill="#9ea2a2" d="m44.6 43.58-3.63-1.97c.1.03.2.05.31.08l3.63 1.97c-.1-.03-.21-.06-.31-.08" class="color9ea0a2 svgShape"/><path fill="#999d9d" d="m44.91 43.65-3.63-1.97c1.33.34 2.6.81 3.8 1.4l3.63 1.97c-1.2-.59-2.47-1.05-3.8-1.4" class="color999c9d svgShape"/><path fill="#949898" d="m48.7 45.05-3.63-1.97c.18.09.37.18.55.28l3.63 1.97c-.18-.1-.36-.19-.55-.28" class="color949798 svgShape"/></g><defs><path id="K" fill="#000" d="M39.1 46.71c.73-1.52 1.36-3.23 1.87-5.11l3.63 1.97c-.52 1.88-1.15 3.59-1.87 5.11-1.09-.59-2.54-1.38-3.63-1.97z" class="color000000 svgShape"/></defs><clipPath id="L"><use overflow="visible" xlink:href="#K"/></clipPath><g class="color000000 svgShape" clip-path="url(#L)"><path fill="#818484" d="m42.73 48.69-3.63-1.97c.36-.75.7-1.55 1.01-2.4l3.63 1.97c-.31.84-.65 1.64-1.01 2.4" class="color818384 svgShape"/><path fill="#7c7f7f" d="m43.74 46.29-3.63-1.97c.32-.86.61-1.76.87-2.71l3.63 1.97c-.27.94-.56 1.85-.87 2.71" class="color7c7e7f svgShape"/></g><defs><path id="M" fill="#000" d="m46.8 41.61 3.63 1.97a21.77 21.77 0 0 0-5.33-2.03l-3.63-1.97c1.9.45 3.68 1.14 5.33 2.03z" class="color000000 svgShape"/></defs><clipPath id="N"><use overflow="visible" xlink:href="#M"/></clipPath><g class="color000000 svgShape" clip-path="url(#N)"><path fill="#2b8f87" d="m45.1 41.55-3.63-1.97c.14.03.27.07.41.1l3.63 1.97c-.13-.03-.27-.07-.41-.1" class="color2b728f svgShape"/><path fill="#2a8a82" d="m45.51 41.65-3.63-1.97c1.45.38 2.84.89 4.15 1.54l3.63 1.97c-1.31-.64-2.69-1.16-4.15-1.54" class="color2a6e8a svgShape"/><path fill="#28867e" d="m49.66 43.19-3.63-1.97c.26.13.52.26.77.4l3.63 1.97c-.25-.14-.51-.27-.77-.4" class="color286b86 svgShape"/></g><defs><path id="O" fill="#000" d="m35.57 53.57-3.63-1.97c1.77-.29 3.43-1.87 4.82-4.32.94-1.66 1.76-3.72 2.4-6.05l3.63 1.97c-.64 2.33-1.46 4.39-2.4 6.05-1.39 2.45-3.05 4.03-4.82 4.32z" class="color000000 svgShape"/></defs><clipPath id="P"><use overflow="visible" xlink:href="#O"/></clipPath><g class="color000000 svgShape" clip-path="url(#P)"><path fill="#2b8f87" d="m35.57 53.57-3.63-1.97c.37-.06.73-.18 1.09-.34l3.63 1.97c-.36.16-.72.28-1.09.34" class="color2b728f svgShape"/><path fill="#2a8a82" d="m36.66 53.22-3.63-1.97c.26-.12.51-.27.76-.44l3.63 1.97c-.26.18-.51.32-.76.44" class="color2a6e8a svgShape"/><path fill="#28867e" d="m37.41 52.79-3.63-1.97c.23-.16.46-.34.68-.54l3.63 1.97c-.22.2-.45.38-.68.54" class="color286b86 svgShape"/><path fill="#27827b" d="m38.09 52.25-3.63-1.97c.24-.22.48-.46.71-.72l3.63 1.97c-.23.26-.47.5-.71.72" class="color276782 svgShape"/><path fill="#267d76" d="m38.8 51.53-3.63-1.97c.28-.31.54-.66.81-1.03l3.63 1.97c-.27.37-.54.72-.81 1.03" class="color26647d svgShape"/><path fill="#247972" d="m39.6 50.5-3.63-1.97c.27-.39.53-.8.79-1.25.07-.12.14-.25.21-.38l3.63 1.97c-.07.13-.14.25-.21.38-.25.45-.51.86-.79 1.25" class="color246079 svgShape"/><path fill="#23756e" d="m40.6 48.87-3.63-1.97c.49-.92.95-1.95 1.36-3.06l3.63 1.97c-.41 1.12-.87 2.15-1.36 3.06" class="color235d75 svgShape"/><path fill="#22706a" d="m41.96 45.81-3.63-1.97c.3-.82.58-1.69.83-2.61l3.63 1.97c-.25.92-.53 1.79-.83 2.61" class="color225970 svgShape"/></g><path fill="#2e9990" d="m35.49 53.59-3.63-1.98.08-.02 3.63 1.98z" class="color2e7a99 svgShape"/><path fill="#2e978e" d="m35.41 53.59-3.63-1.97.08-.01 3.63 1.98z" class="color2e7997 svgShape"/><path fill="#a9adad" d="m46.15 32.51-3.63-1.97 8.42-1.18 3.63 1.97z" class="colora9acad svgShape"/><defs><path id="Q" fill="#000" d="m45.1 41.55-3.63-1.97c.6-2.78.97-5.83 1.04-9.04l3.63 1.97c-.06 3.21-.43 6.27-1.04 9.04z" class="color000000 svgShape"/></defs><clipPath id="R"><use overflow="visible" xlink:href="#Q"/></clipPath><g class="color000000 svgShape" clip-path="url(#R)"><path fill="#7c7f7f" d="m45.1 41.55-3.63-1.97c.6-2.78.97-5.83 1.04-9.04l3.63 1.97c-.06 3.21-.43 6.27-1.04 9.04" class="color7c7e7f svgShape"/></g><path fill="#d1d6d6" d="M45.1 41.55c.6-2.78.97-5.83 1.04-9.04l8.42-1.18c-.2 4.29-1.63 8.6-4.08 12.29a21.67 21.67 0 0 0-5.38-2.07z" class="colord1d4d6 svgShape"/><path fill="#2e9990" d="m46.15 30.49-3.63-1.97 8.42-1.19 3.63 1.98z" class="color2e7a99 svgShape"/><defs><path id="S" fill="#000" d="m43.29 41.17-3.63-1.97c.57-2.59.91-5.44.98-8.39l3.63 1.97c-.07 2.95-.42 5.8-.98 8.39z" class="color000000 svgShape"/></defs><clipPath id="T"><use overflow="visible" xlink:href="#S"/></clipPath><g class="color000000 svgShape" clip-path="url(#T)"><path fill="#22706a" d="m43.29 41.17-3.63-1.97c.57-2.59.91-5.44.98-8.39l3.63 1.97c-.07 2.95-.42 5.8-.98 8.39" class="color225970 svgShape"/></g><defs><path id="U" fill="#000" d="m33.13 53.12-3.63-1.97c.73.4 1.5.56 2.28.47l3.63 1.97c-.79.1-1.55-.07-2.28-.47z" class="color000000 svgShape"/></defs><clipPath id="V"><use overflow="visible" xlink:href="#U"/></clipPath><g class="color000000 svgShape" clip-path="url(#V)"><path fill="#28867e" d="m33.13 53.12-3.63-1.97c.06.03.11.06.17.09l3.63 1.97c-.06-.03-.12-.06-.17-.09" class="color286b86 svgShape"/><path fill="#2a8a82" d="m33.29 53.21-3.63-1.97c.26.13.52.23.79.29l3.63 1.97c-.27-.07-.53-.17-.79-.29" class="color2a6e8a svgShape"/><path fill="#2b8f87" d="m34.08 53.5-3.63-1.97c.43.11.88.14 1.33.09l3.63 1.97c-.45.06-.9.02-1.33-.09" class="color2b728f svgShape"/></g><defs><path id="W" fill="#000" d="m54.57 29.31-3.63-1.97c-.18-4.24-1.6-8.14-4.03-11.14l3.63 1.97c2.44 3 3.85 6.9 4.03 11.14z" class="color000000 svgShape"/></defs><clipPath id="X"><use overflow="visible" xlink:href="#W"/></clipPath><g class="color000000 svgShape" clip-path="url(#X)"><path fill="#22706a" d="m54.57 29.31-3.63-1.97c-.18-4.24-1.6-8.14-4.03-11.14l3.63 1.97c2.44 3 3.85 6.9 4.03 11.14" class="color225970 svgShape"/></g><path fill="#2c928a" d="m30.13 53.5-3.63-1.97.15.02 3.63 1.98z" class="color2c7492 svgShape"/><defs><path id="Y" fill="#000" d="M31.87 41.2c2.47-.35 4.94-.34 7.3.03l3.63 1.97c-2.35-.38-4.83-.38-7.3-.03-1.09-.59-2.55-1.38-3.63-1.97z" class="color000000 svgShape"/></defs><clipPath id="Z"><use overflow="visible" xlink:href="#Y"/></clipPath><g class="color000000 svgShape" clip-path="url(#Z)"><path fill="#9ea2a2" d="m35.49 43.17-3.63-1.97c2.47-.35 4.94-.34 7.3.03l3.63 1.97c-2.35-.37-4.82-.38-7.3-.03" class="color9ea0a2 svgShape"/></g><defs><path id="aa" fill="#000" d="m29.18 53.3-3.63-1.97c.13.04.27.07.41.1.17.04.35.07.53.1l3.63 1.97c-.18-.03-.36-.06-.53-.1a3.48 3.48 0 0 1-.41-.1z" class="color000000 svgShape"/></defs><clipPath id="ab"><use overflow="visible" xlink:href="#aa"/></clipPath><g class="color000000 svgShape" clip-path="url(#ab)"><path fill="#2a8a82" d="m29.18 53.3-3.63-1.97.1.03 3.63 1.97c-.03-.01-.06-.02-.1-.03" class="color2a6e8a svgShape"/><path fill="#2b8f87" d="m29.28 53.33-3.63-1.97c.1.03.21.05.31.07.17.04.35.07.53.1l3.63 1.97c-.18-.03-.36-.06-.53-.1-.1-.02-.21-.04-.31-.07" class="color2b728f svgShape"/></g><defs><path id="ac" fill="#000" d="m28.66 53.18-3.63-1.97c.17.04.34.09.52.13l3.63 1.97c-.18-.04-.35-.09-.52-.13z" class="color000000 svgShape"/></defs><clipPath id="ad"><use overflow="visible" xlink:href="#ac"/></clipPath><g class="color000000 svgShape" clip-path="url(#ad)"><path fill="#2b8f87" d="m28.66 53.18-3.63-1.97c.17.04.34.09.52.13l3.63 1.97c-.18-.04-.35-.09-.52-.13" class="color2b728f svgShape"/></g><defs><path id="ae" fill="#000" d="m49.31 16.81-3.63-1.97c-.23-.23-.46-.44-.7-.65l3.63 1.97c.24.2.47.42.7.65z" class="color000000 svgShape"/></defs><clipPath id="af"><use overflow="visible" xlink:href="#ae"/></clipPath><g class="color000000 svgShape" clip-path="url(#af)"><path fill="#22706a" d="m49.31 16.81-3.63-1.97c-.23-.23-.46-.44-.7-.65l3.63 1.97c.24.2.47.42.7.65" class="color225970 svgShape"/></g><path fill="#216c66" d="m48.61 16.16-3.63-1.98-.16-.13 3.63 1.97z" class="color21566c svgShape"/><defs><path id="ag" fill="#000" d="m46.15 30.49-3.63-1.97c-.06-3.18-.42-6.13-1.01-8.74l3.63 1.97c.59 2.61.95 5.56 1.01 8.74z" class="color000000 svgShape"/></defs><clipPath id="ah"><use overflow="visible" xlink:href="#ag"/></clipPath><g class="color000000 svgShape" clip-path="url(#ah)"><path fill="#7c7f7f" d="m46.15 30.49-3.63-1.97c-.06-3.18-.42-6.13-1.01-8.74l3.63 1.97c.59 2.61.95 5.56 1.01 8.74" class="color7c7e7f svgShape"/></g><defs><path id="ai" fill="#000" d="m45.14 21.75-3.63-1.97c1.92-1 3.73-2.2 5.4-3.59l3.63 1.97a30.347 30.347 0 0 1-5.4 3.59z" class="color000000 svgShape"/></defs><clipPath id="aj"><use overflow="visible" xlink:href="#ai"/></clipPath><g class="color000000 svgShape" clip-path="url(#aj)"><path fill="#999d9d" d="m45.14 21.75-3.63-1.97c1.13-.59 2.23-1.25 3.28-1.97l3.63 1.97c-1.05.72-2.15 1.38-3.28 1.97" class="color999c9d svgShape"/><path fill="#949898" d="m48.42 19.78-3.63-1.97c.73-.5 1.44-1.04 2.12-1.61l3.63 1.97c-.69.56-1.4 1.1-2.12 1.61" class="color949798 svgShape"/></g><path fill="#d1d6d6" d="M46.15 30.49c-.06-3.18-.42-6.13-1.01-8.74 1.92-1 3.73-2.2 5.4-3.59 2.44 3 3.85 6.9 4.03 11.14l-8.42 1.19z" class="colord1d4d6 svgShape"/><defs><path id="ak" fill="#000" d="m27.75 52.89-3.63-1.97c.17.06.34.11.5.16l.41.12 3.63 1.97c-.13-.04-.27-.08-.41-.12-.16-.05-.34-.1-.5-.16z" class="color000000 svgShape"/></defs><clipPath id="al"><use overflow="visible" xlink:href="#ak"/></clipPath><g class="color000000 svgShape" clip-path="url(#al)"><path fill="#2a8a82" d="m27.75 52.89-3.63-1.97c.17.06.34.11.5.16l.41.12 3.63 1.97c-.13-.04-.27-.08-.41-.12-.16-.05-.34-.1-.5-.16" class="color2a6e8a svgShape"/></g><defs><path id="am" fill="#000" d="m27.35 52.76-3.63-1.97c.13.04.27.09.4.14l3.63 1.97c-.14-.05-.27-.1-.4-.14z" class="color000000 svgShape"/></defs><clipPath id="an"><use overflow="visible" xlink:href="#am"/></clipPath><g class="color000000 svgShape" clip-path="url(#an)"><path fill="#2a8a82" d="m27.35 52.76-3.63-1.97c.13.04.27.09.4.14l3.63 1.97c-.14-.05-.27-.1-.4-.14" class="color2a6e8a svgShape"/></g><defs><path id="ao" fill="#000" d="m48.45 16.02-3.63-1.97c-.19-.17-.39-.32-.59-.48-.09-.07-.18-.13-.27-.2l3.63 1.97c.1.06.18.13.27.2.2.16.4.32.59.48z" class="color000000 svgShape"/></defs><clipPath id="ap"><use overflow="visible" xlink:href="#ao"/></clipPath><g class="color000000 svgShape" clip-path="url(#ap)"><path fill="#22706a" d="m48.45 16.02-3.63-1.97c-.19-.17-.39-.32-.59-.48-.09-.07-.18-.13-.27-.2l3.63 1.97c.1.06.18.13.27.2.2.16.4.32.59.48" class="color225970 svgShape"/></g><defs><path id="aq" fill="#000" d="m44.27 30.76-3.63-1.97c-.06-2.93-.4-5.68-.95-8.12l3.63 1.97c.55 2.44.89 5.19.95 8.12z" class="color000000 svgShape"/></defs><clipPath id="ar"><use overflow="visible" xlink:href="#aq"/></clipPath><g class="color000000 svgShape" clip-path="url(#ar)"><path fill="#22706a" d="m44.27 30.76-3.63-1.97c-.06-2.93-.4-5.68-.95-8.12l3.63 1.97c.55 2.44.89 5.19.95 8.12" class="color225970 svgShape"/></g><defs><path id="as" fill="#000" d="m44.65 19.87-3.63-1.97c1.65-.87 3.22-1.89 4.66-3.06l3.63 1.97a28.801 28.801 0 0 1-4.66 3.06z" class="color000000 svgShape"/></defs><clipPath id="at"><use overflow="visible" xlink:href="#as"/></clipPath><g class="color000000 svgShape" clip-path="url(#at)"><path fill="#2a8a82" d="m44.65 19.87-3.63-1.97c1.03-.55 2.03-1.15 2.99-1.81l3.63 1.97c-.96.67-1.96 1.27-2.99 1.81" class="color2a6e8a svgShape"/><path fill="#28867e" d="M47.63 18.06 44 16.09c.57-.4 1.13-.81 1.67-1.25l3.63 1.97c-.54.44-1.09.86-1.67 1.25" class="color286b86 svgShape"/></g><defs><path id="au" fill="#000" d="m47.59 15.34-3.63-1.97c-.17-.12-.33-.25-.5-.36l3.63 1.97c.17.12.33.24.5.36z" class="color000000 svgShape"/></defs><clipPath id="av"><use overflow="visible" xlink:href="#au"/></clipPath><g class="color000000 svgShape" clip-path="url(#av)"><path fill="#22706a" d="m47.59 15.34-3.63-1.97c-.17-.12-.33-.25-.5-.36l3.63 1.97c.17.12.33.24.5.36" class="color225970 svgShape"/></g><defs><path id="aw" fill="#000" d="M29.5 51.15c-1.61-.87-3.04-2.86-4.13-5.6L29 47.52c1.09 2.74 2.52 4.73 4.13 5.6-1.09-.59-2.54-1.38-3.63-1.97z" class="color000000 svgShape"/></defs><clipPath id="ax"><use overflow="visible" xlink:href="#aw"/></clipPath><g class="color000000 svgShape" clip-path="url(#ax)"><path fill="#737474" d="m33.13 53.12-3.63-1.97c-1.61-.87-3.04-2.86-4.13-5.6L29 47.52c1.09 2.74 2.52 4.73 4.13 5.6" class="color737374 svgShape"/></g><defs><path id="ay" fill="#000" d="M36.03 47.39c.24-.03.49-.07.73-.12l3.63 1.97c-.24.04-.48.08-.73.12-3.93.55-7.59-.16-10.67-1.85l-3.63-1.97c3.09 1.69 6.75 2.41 10.67 1.85z" class="color000000 svgShape"/></defs><clipPath id="az"><use overflow="visible" xlink:href="#ay"/></clipPath><g class="color000000 svgShape" clip-path="url(#az)"><path fill="#8a8a8a" d="m28.99 47.52-3.63-1.97c.21.11.42.22.64.33l3.63 1.97c-.21-.11-.43-.22-.64-.33" class="color8a8a8a svgShape"/><path fill="#8e8f8f" d="M29.63 47.85 26 45.87c.99.49 2.04.88 3.13 1.16L32.76 49c-1.09-.27-2.14-.66-3.13-1.15" class="color8e8e8f svgShape"/><path fill="#939393" d="m32.76 49.01-3.63-1.97c2.15.56 4.48.7 6.91.36.24-.03.49-.07.73-.12l3.63 1.97c-.24.04-.48.08-.73.12-2.44.34-4.76.2-6.91-.36" class="color939393 svgShape"/></g><defs><path id="aA" fill="#000" d="m25.98 52.17-3.63-1.97c.16.08.32.15.49.23.13.06.25.11.38.16.17.07.33.13.5.2l3.63 1.97c-.17-.07-.33-.13-.5-.2-.13-.05-.25-.1-.38-.16-.17-.07-.33-.15-.49-.23z" class="color000000 svgShape"/></defs><clipPath id="aB"><use overflow="visible" xlink:href="#aA"/></clipPath><g class="color000000 svgShape" clip-path="url(#aB)"><path fill="#28867e" d="m25.98 52.17-3.63-1.97.06.03 3.63 1.97-.06-.03" class="color286b86 svgShape"/><path fill="#2a8a82" d="m26.04 52.2-3.63-1.97c.14.07.29.13.43.2.13.06.25.11.38.16.17.07.33.13.5.2l3.63 1.97c-.17-.07-.33-.13-.5-.2-.13-.05-.25-.1-.38-.16-.15-.07-.29-.13-.43-.2" class="color2a6e8a svgShape"/></g><defs><path id="aC" fill="#000" d="m47.08 14.98-3.63-1.97c-.1-.08-.21-.14-.32-.21-.16-.1-.32-.21-.48-.3l3.63 1.97c.16.09.32.2.48.3.11.07.22.14.32.21z" class="color000000 svgShape"/></defs><clipPath id="aD"><use overflow="visible" xlink:href="#aC"/></clipPath><g class="color000000 svgShape" clip-path="url(#aD)"><path fill="#22706a" d="m47.08 14.98-3.63-1.97c-.1-.08-.21-.14-.32-.21-.16-.1-.32-.21-.48-.3l3.63 1.97c.16.09.32.2.48.3.11.07.22.14.32.21" class="color225970 svgShape"/></g><defs><path id="aE" fill="#000" d="m25.61 51.99-3.63-1.97c.12.07.24.12.37.18l3.63 1.97c-.13-.06-.25-.11-.37-.18z" class="color000000 svgShape"/></defs><clipPath id="aF"><use overflow="visible" xlink:href="#aE"/></clipPath><g class="color000000 svgShape" clip-path="url(#aF)"><path fill="#28867e" d="m25.61 51.99-3.63-1.97.18.09 3.63 1.97-.18-.09" class="color286b86 svgShape"/><path fill="#2a8a82" d="m25.79 52.08-3.63-1.97c.06.03.13.06.19.09l3.63 1.97c-.07-.03-.13-.06-.19-.09" class="color2a6e8a svgShape"/></g><defs><path id="aG" fill="#000" d="m46.28 14.47-3.63-1.97c-.11-.07-.24-.13-.35-.2l3.63 1.97c.12.07.24.13.35.2z" class="color000000 svgShape"/></defs><clipPath id="aH"><use overflow="visible" xlink:href="#aG"/></clipPath><g class="color000000 svgShape" clip-path="url(#aH)"><path fill="#22706a" d="m46.28 14.47-3.63-1.97c-.11-.07-.24-.13-.35-.2l3.63 1.97c.12.07.24.13.35.2" class="color225970 svgShape"/></g><defs><path id="aI" fill="#000" d="m25.42 51.89-3.63-1.97c.06.03.12.07.19.1l3.63 1.97c-.06-.03-.13-.06-.19-.1z" class="color000000 svgShape"/></defs><clipPath id="aJ"><use overflow="visible" xlink:href="#aI"/></clipPath><g class="color000000 svgShape" clip-path="url(#aJ)"><path fill="#28867e" d="m25.42 51.89-3.63-1.97c.05.03.11.06.16.09l3.63 1.97c-.05-.03-.1-.06-.16-.09" class="color286b86 svgShape"/><path fill="#2a8a82" d="M25.59 51.98 21.96 50c.01 0 .01.01.02.01l3.63 1.97c-.01.01-.02 0-.02 0" class="color2a6e8a svgShape"/></g><defs><path id="aK" fill="#000" d="m42 12.13 3.63 1.97c.1.05.2.11.3.17L42.3 12.3c-.1-.06-.2-.12-.3-.17z" class="color000000 svgShape"/></defs><clipPath id="aL"><use overflow="visible" xlink:href="#aK"/></clipPath><g class="color000000 svgShape" clip-path="url(#aL)"><path fill="#22706a" d="M45.93 14.27 42.3 12.3c-.1-.05-.2-.11-.3-.17l3.63 1.97c.1.06.2.12.3.17" class="color225970 svgShape"/></g><defs><path id="aM" fill="#000" d="m25.42 51.89-3.63-1.97c-.1-.05-.2-.11-.3-.17l3.63 1.97c.1.06.2.12.3.17z" class="color000000 svgShape"/></defs><clipPath id="aN"><use overflow="visible" xlink:href="#aM"/></clipPath><g class="color000000 svgShape" clip-path="url(#aN)"><path fill="#737474" d="m25.42 51.89-3.63-1.97c-.1-.05-.2-.11-.3-.17l3.63 1.97c.1.06.2.12.3.17" class="color737374 svgShape"/></g><defs><path id="aO" fill="#000" d="m42 12.13 3.63 1.97c-.06-.03-.12-.07-.18-.1l-3.63-1.97c.06.03.12.07.18.1z" class="color000000 svgShape"/></defs><clipPath id="aP"><use overflow="visible" xlink:href="#aO"/></clipPath><g class="color000000 svgShape" clip-path="url(#aP)"><path fill="#999d9d" d="m45.45 14.01-3.63-1.97c.01 0 .01.01.02.01l3.63 1.97c-.01-.01-.02-.01-.02-.01" class="color999c9d svgShape"/><path fill="#949898" d="m45.47 14.02-3.63-1.97c.05.03.11.06.16.08l3.63 1.97c-.05-.03-.11-.05-.16-.08" class="color949798 svgShape"/></g><defs><path id="aQ" fill="#000" d="M24.59 43.27c2.35-1.03 4.81-1.73 7.28-2.07l3.63 1.97c-2.47.35-4.93 1.04-7.28 2.07-1.09-.59-2.54-1.38-3.63-1.97z" class="color000000 svgShape"/></defs><clipPath id="aR"><use overflow="visible" xlink:href="#aQ"/></clipPath><g class="color000000 svgShape" clip-path="url(#aR)"><path fill="#9ea2a2" d="m28.22 45.25-3.63-1.97c2.35-1.03 4.81-1.73 7.28-2.07l3.63 1.97c-2.47.34-4.94 1.03-7.28 2.07" class="color9ea0a2 svgShape"/></g><defs><path id="aS" fill="#000" d="M25.37 45.54c-.28-.71-.54-1.47-.78-2.27l3.63 1.97c.24.8.5 1.56.78 2.27-1.09-.58-2.81-1.04-3.63-1.97z" class="color000000 svgShape"/></defs><clipPath id="aT"><use overflow="visible" xlink:href="#aS"/></clipPath><g class="color000000 svgShape" clip-path="url(#aT)"><path fill="#7c7f7f" d="m28.99 47.52-3.63-1.97c-.28-.71-.54-1.47-.78-2.27l3.63 1.97c.24.8.5 1.56.78 2.27" class="color7c7e7f svgShape"/></g><defs><path id="aU" fill="#000" d="m25.12 51.73-3.63-1.97c-.11-.07-.24-.13-.35-.2l3.63 1.97c.12.07.24.13.35.2z" class="color000000 svgShape"/></defs><clipPath id="aV"><use overflow="visible" xlink:href="#aU"/></clipPath><g class="color000000 svgShape" clip-path="url(#aV)"><path fill="#737474" d="m25.12 51.73-3.63-1.97c-.11-.07-.24-.13-.35-.2l3.63 1.97c.12.07.24.13.35.2" class="color737374 svgShape"/></g><defs><path id="aW" fill="#000" d="m30.28 53.53-3.63-1.97c-1.6-1.66-2.94-4.2-3.87-7.4l3.63 1.97c.93 3.19 2.26 5.74 3.87 7.4z" class="color000000 svgShape"/></defs><clipPath id="aX"><use overflow="visible" xlink:href="#aW"/></clipPath><g class="color000000 svgShape" clip-path="url(#aX)"><path fill="#22706a" d="m30.28 53.53-3.63-1.97c-1.6-1.66-2.94-4.2-3.87-7.4l3.63 1.97c.93 3.19 2.26 5.74 3.87 7.4" class="color225970 svgShape"/></g><defs><path id="aY" fill="#000" d="m27.73 43.36-3.63-1.97c2.51-1.1 5.12-1.85 7.78-2.22 2.66-.37 5.27-.36 7.78.04l3.63 1.97c-2.5-.4-5.12-.41-7.78-.04-2.67.37-5.27 1.12-7.78 2.22z" class="color000000 svgShape"/></defs><clipPath id="aZ"><use overflow="visible" xlink:href="#aY"/></clipPath><g class="color000000 svgShape" clip-path="url(#aZ)"><path fill="#2b8f87" d="m27.73 43.36-3.63-1.97c2.51-1.1 5.12-1.85 7.78-2.22 2.66-.37 5.27-.36 7.78.04l3.63 1.97c-2.5-.4-5.12-.41-7.78-.04-2.67.37-5.27 1.12-7.78 2.22" class="color2b728f svgShape"/></g><defs><path id="ba" fill="#000" d="m24.77 51.53-3.63-1.97c-.17-.09-.32-.2-.48-.3-.11-.07-.22-.13-.32-.21-.17-.11-.33-.24-.49-.36l3.63 1.97c.16.12.32.24.49.36.11.07.22.14.32.21.16.1.32.21.48.3z" class="color000000 svgShape"/></defs><clipPath id="bb"><use overflow="visible" xlink:href="#ba"/></clipPath><g class="color000000 svgShape" clip-path="url(#bb)"><path fill="#737474" d="m24.77 51.53-3.63-1.97c-.17-.09-.32-.2-.48-.3-.11-.07-.22-.13-.32-.21-.17-.11-.33-.24-.49-.36l3.63 1.97c.16.12.32.24.49.36.11.07.22.14.32.21.16.1.32.21.48.3" class="color737374 svgShape"/></g><defs><path id="bc" fill="#000" d="m23.48 50.66-3.63-1.97-.29-.2 3.63 1.97c.09.07.19.13.29.2z" class="color000000 svgShape"/></defs><clipPath id="bd"><use overflow="visible" xlink:href="#bc"/></clipPath><g class="color000000 svgShape" clip-path="url(#bd)"><path fill="#737474" d="m23.48 50.66-3.63-1.97-.29-.2 3.63 1.97c.09.07.19.13.29.2" class="color737374 svgShape"/></g><defs><path id="be" fill="#000" d="m43.31 13.1-3.63-1.97c.13.05.27.09.4.14.17.06.33.13.49.19.13.06.26.11.39.17.17.07.32.15.49.23.12.06.25.12.37.18l3.63 1.97c-.12-.07-.25-.12-.37-.18l-.49-.23c-.13-.06-.25-.11-.39-.17-.16-.07-.32-.13-.49-.19-.14-.05-.27-.09-.4-.14z" class="color000000 svgShape"/></defs><clipPath id="bf"><use overflow="visible" xlink:href="#be"/></clipPath><g class="color000000 svgShape" clip-path="url(#bf)"><path fill="#999d9d" d="m43.31 13.1-3.63-1.97c.13.05.27.09.4.14.17.06.33.13.49.19.13.06.26.11.39.17.17.07.32.15.49.23.08.04.16.07.23.11l3.63 1.97c-.08-.04-.16-.08-.23-.11l-.49-.23c-.13-.06-.25-.11-.39-.17-.16-.07-.32-.13-.49-.19-.14-.05-.27-.09-.4-.14" class="color999c9d svgShape"/><path fill="#949898" d="m45.31 13.94-3.63-1.97c.05.02.09.05.13.07l3.63 1.97a.539.539 0 0 0-.13-.07" class="color949798 svgShape"/></g><defs><path id="bg" fill="#000" d="m42.8 12.94-3.63-1.97c.17.05.34.1.5.16l3.63 1.97c-.16-.05-.33-.11-.5-.16z" class="color000000 svgShape"/></defs><clipPath id="bh"><use overflow="visible" xlink:href="#bg"/></clipPath><g class="color000000 svgShape" clip-path="url(#bh)"><path fill="#999d9d" d="m42.8 12.94-3.63-1.97c.17.05.34.1.5.16l3.63 1.97c-.16-.05-.33-.11-.5-.16" class="color999c9d svgShape"/></g><defs><path id="bi" fill="#000" d="m23.19 50.46-3.63-1.97c-.19-.15-.38-.31-.57-.47l3.63 1.97c.19.16.38.32.57.47z" class="color000000 svgShape"/></defs><clipPath id="bj"><use overflow="visible" xlink:href="#bi"/></clipPath><g class="color000000 svgShape" clip-path="url(#bj)"><path fill="#737474" d="m23.19 50.46-3.63-1.97c-.19-.15-.38-.31-.57-.47l3.63 1.97c.19.16.38.32.57.47" class="color737374 svgShape"/></g><path fill="#6f7070" d="m22.62 49.99-3.63-1.98-.17-.14 3.62 1.98z" class="color6f6f70 svgShape"/><defs><path id="bk" fill="#000" d="m41.88 12.69-3.63-1.97c.17.04.34.09.51.13l.41.12 3.63 1.97c-.14-.04-.27-.09-.41-.12-.17-.04-.34-.09-.51-.13z" class="color000000 svgShape"/></defs><clipPath id="bl"><use overflow="visible" xlink:href="#bk"/></clipPath><g class="color000000 svgShape" clip-path="url(#bl)"><path fill="#999d9d" d="m41.88 12.69-3.63-1.97c.16.04.32.09.49.13l3.63 1.97c-.17-.05-.33-.09-.49-.13" class="color999c9d svgShape"/><path fill="#9ea2a2" d="m42.37 12.81-3.63-1.97c.01 0 .01 0 .02.01.01 0 .02 0 .02.01l3.63 1.97c-.01 0-.02 0-.02-.01-.01 0-.02 0-.02-.01" class="color9ea0a2 svgShape"/><path fill="#999d9d" d="m42.41 12.83-3.63-1.97c.13.03.26.07.39.11l3.63 1.97c-.13-.04-.26-.08-.39-.11" class="color999c9d svgShape"/></g><defs><path id="bm" fill="#000" d="m21.74 49.2-3.63-1.97c1.44-1.17 3.01-2.19 4.66-3.06l3.63 1.97a27.53 27.53 0 0 0-4.66 3.06z" class="color000000 svgShape"/></defs><clipPath id="bn"><use overflow="visible" xlink:href="#bm"/></clipPath><g class="color000000 svgShape" clip-path="url(#bn)"><path fill="#8a8a8a" d="m21.74 49.2-3.63-1.97c.54-.44 1.1-.86 1.67-1.25l3.63 1.97c-.57.39-1.12.81-1.67 1.25" class="color8a8a8a svgShape"/><path fill="#8e8f8f" d="m23.42 47.94-3.63-1.97c.96-.66 1.95-1.26 2.99-1.81l3.63 1.97c-1.04.55-2.04 1.15-2.99 1.81" class="color8e8e8f svgShape"/></g><defs><path id="bo" fill="#000" d="m22.44 49.85-3.63-1.97c-.24-.21-.47-.43-.7-.65l3.63 1.97c.23.22.47.43.7.65z" class="color000000 svgShape"/></defs><clipPath id="bp"><use overflow="visible" xlink:href="#bo"/></clipPath><g class="color000000 svgShape" clip-path="url(#bp)"><path fill="#737474" d="m22.44 49.85-3.63-1.97c-.24-.21-.47-.43-.7-.65l3.63 1.97c.23.22.47.43.7.65" class="color737374 svgShape"/></g><defs><path id="bq" fill="#000" d="m41.45 12.59-3.63-1.97c.15.03.29.06.43.09l3.63 1.97c-.14-.02-.28-.06-.43-.09z" class="color000000 svgShape"/></defs><clipPath id="br"><use overflow="visible" xlink:href="#bq"/></clipPath><g class="color000000 svgShape" clip-path="url(#br)"><path fill="#9ea2a2" d="m41.45 12.59-3.63-1.97c.15.03.29.06.43.09l3.63 1.97c-.14-.02-.28-.06-.43-.09" class="color9ea0a2 svgShape"/></g><defs><path id="bs" fill="#000" d="m40.93 12.5-3.63-1.97c.18.03.35.06.52.1l3.63 1.97c-.17-.04-.34-.07-.52-.1z" class="color000000 svgShape"/></defs><clipPath id="bt"><use overflow="visible" xlink:href="#bs"/></clipPath><g class="color000000 svgShape" clip-path="url(#bt)"><path fill="#9ea2a2" d="m40.93 12.5-3.63-1.97c.18.03.35.06.52.1l3.63 1.97c-.17-.04-.34-.07-.52-.1" class="color9ea0a2 svgShape"/></g><defs><path id="bu" fill="#000" d="m44.65 19.87-3.63-1.97c-.94-3.2-2.28-5.75-3.88-7.41l3.63 1.97c1.6 1.66 2.94 4.21 3.88 7.41z" class="color000000 svgShape"/></defs><clipPath id="bv"><use overflow="visible" xlink:href="#bu"/></clipPath><g class="color000000 svgShape" clip-path="url(#bv)"><path fill="#7c7f7f" d="m44.65 19.87-3.63-1.97c-.94-3.2-2.28-5.75-3.88-7.41l3.63 1.97c1.6 1.66 2.94 4.21 3.88 7.41" class="color7c7e7f svgShape"/></g><path fill="#a1a5a5" d="m40.76 12.46-3.62-1.97.16.03 3.63 1.98z" class="colora1a3a5 svgShape"/><defs><path id="bw" fill="#000" d="m20.51 47.83-3.63-1.97c1.46-1.2 3.02-2.27 4.67-3.19.24-.13.48-.26.73-.39l3.63 1.97c-.24.13-.49.26-.73.39-1.65.92-3.22 1.99-4.67 3.19z" class="color000000 svgShape"/></defs><clipPath id="bx"><use overflow="visible" xlink:href="#bw"/></clipPath><g class="color000000 svgShape" clip-path="url(#bx)"><path fill="#28867e" d="m20.51 47.83-3.63-1.97c.68-.57 1.39-1.1 2.12-1.61l3.63 1.97c-.73.51-1.44 1.05-2.12 1.61" class="color286b86 svgShape"/><path fill="#2a8a82" d="M22.63 46.23 19 44.25c.82-.57 1.67-1.1 2.55-1.59.24-.13.48-.26.73-.39l3.63 1.97c-.24.13-.49.26-.73.39-.87.5-1.73 1.03-2.55 1.6" class="color2a6e8a svgShape"/></g><path fill="#a9adad" d="m26.78 35.24-3.63-1.98 17.49-2.46 3.62 1.98z" class="colora9acad svgShape"/><defs><path id="by" fill="#000" d="m27.73 43.36-3.63-1.97c-.55-2.44-.89-5.19-.95-8.12l3.63 1.97c.06 2.93.4 5.68.95 8.12z" class="color000000 svgShape"/></defs><clipPath id="bz"><use overflow="visible" xlink:href="#by"/></clipPath><g class="color000000 svgShape" clip-path="url(#bz)"><path fill="#7c7f7f" d="m27.73 43.36-3.63-1.97c-.55-2.44-.89-5.19-.95-8.12l3.63 1.97c.06 2.93.4 5.68.95 8.12" class="color7c7e7f svgShape"/></g><path fill="#d1d6d6" d="M43.29 41.17c-2.5-.4-5.12-.41-7.78-.04-2.67.37-5.27 1.12-7.78 2.22-.55-2.44-.89-5.19-.95-8.12l17.48-2.46c-.06 2.96-.41 5.81-.97 8.4z" class="colord1d4d6 svgShape"/><defs><path id="bA" fill="#000" d="m34.3 10.9 3.63 1.97c2.02 1.1 3.77 3.96 4.91 7.87l-3.63-1.97c-1.15-3.91-2.89-6.76-4.91-7.87z" class="color000000 svgShape"/></defs><clipPath id="bB"><use overflow="visible" xlink:href="#bA"/></clipPath><g class="color000000 svgShape" clip-path="url(#bB)"><path fill="#22706a" d="m42.83 20.75-3.63-1.97c-1.14-3.91-2.89-6.77-4.91-7.87l3.63 1.97c2.03 1.1 3.77 3.96 4.91 7.87" class="color225970 svgShape"/></g><path fill="#2e9990" d="m26.78 33.21-3.62-1.97 17.48-2.46 3.63 1.98z" class="color2e7a99 svgShape"/><defs><path id="bC" fill="#000" d="m25.91 44.25-3.63-1.97c-.59-2.61-.95-5.56-1.01-8.75l3.63 1.97c.06 3.19.42 6.14 1.01 8.75z" class="color000000 svgShape"/></defs><clipPath id="bD"><use overflow="visible" xlink:href="#bC"/></clipPath><g class="color000000 svgShape" clip-path="url(#bD)"><path fill="#22706a" d="m25.91 44.25-3.63-1.97c-.59-2.61-.95-5.56-1.01-8.75l3.63 1.97c.06 3.19.42 6.14 1.01 8.75" class="color225970 svgShape"/></g><defs><path id="bE" fill="#000" d="M31.93 10.44c.82-.11 1.61.05 2.36.46l3.63 1.97c-.75-.41-1.55-.58-2.36-.46l-.87-.48c-.31-.17-.63-.34-.94-.51-.31-.17-.63-.34-.94-.51-.29-.15-.58-.31-.88-.47z" class="color000000 svgShape"/></defs><clipPath id="bF"><use overflow="visible" xlink:href="#bE"/></clipPath><g class="color000000 svgShape" clip-path="url(#bF)"><path fill="#9ea2a2" d="m34.4 12.77-3.63-1.97c.38-.18.77-.3 1.17-.35.48-.07.95-.04 1.41.08l3.63 1.97a3.52 3.52 0 0 0-1.41-.08c-.4.05-.79.17-1.17.35" class="color9ea0a2 svgShape"/><path fill="#999d9d" d="m36.97 12.5-3.63-1.97c.27.07.53.17.79.29l3.63 1.97c-.26-.12-.52-.22-.79-.29" class="color999c9d svgShape"/><path fill="#949898" d="m37.76 12.79-3.63-1.97c.06.03.11.06.17.09l3.63 1.97c-.06-.03-.12-.06-.17-.09" class="color949798 svgShape"/></g><defs><path id="bG" fill="#000" d="m27.76 24.83-3.63-1.97c2.5.4 5.11.42 7.78.04 2.66-.37 5.27-1.13 7.78-2.23l3.63 1.97c-2.51 1.1-5.12 1.86-7.78 2.23-2.67.37-5.27.35-7.78-.04z" class="color000000 svgShape"/></defs><clipPath id="bH"><use overflow="visible" xlink:href="#bG"/></clipPath><g class="color000000 svgShape" clip-path="url(#bH)"><path fill="#9ea2a2" d="m27.76 24.83-3.63-1.97c2.5.4 5.11.42 7.78.04 2.66-.37 5.27-1.13 7.78-2.23l3.63 1.97c-2.51 1.1-5.12 1.86-7.78 2.23-2.67.37-5.27.35-7.78-.04" class="color9ea0a2 svgShape"/></g><defs><path id="bI" fill="#000" d="m28.26 22.8-3.63-1.97c2.35.37 4.82.38 7.28.03a28.02 28.02 0 0 0 7.29-2.08l3.63 1.97a28.02 28.02 0 0 1-7.29 2.08c-2.47.35-4.93.34-7.28-.03z" class="color000000 svgShape"/></defs><clipPath id="bJ"><use overflow="visible" xlink:href="#bI"/></clipPath><g class="color000000 svgShape" clip-path="url(#bJ)"><path fill="#2b8f87" d="m28.26 22.8-3.63-1.97c2.35.37 4.82.38 7.28.03a28.02 28.02 0 0 0 7.29-2.08l3.63 1.97a28.02 28.02 0 0 1-7.29 2.08c-2.47.35-4.93.34-7.28-.03" class="color2b728f svgShape"/></g><defs><path id="bK" fill="#000" d="M21.55 42.67c-2.22-2.24-3.86-5.15-4.71-8.52l3.63 1.97c.85 3.37 2.5 6.28 4.71 8.52-1.09-.59-2.64-1.23-3.63-1.97z" class="color000000 svgShape"/></defs><clipPath id="bL"><use overflow="visible" xlink:href="#bK"/></clipPath><g class="color000000 svgShape" clip-path="url(#bL)"><path fill="#7c7f7f" d="m25.18 44.64-3.63-1.97c-2.22-2.24-3.86-5.15-4.71-8.52l3.63 1.97c.85 3.37 2.49 6.28 4.71 8.52" class="color7c7e7f svgShape"/></g><path fill="#a9adad" d="m20.47 36.12-3.63-1.97 4.43-.62 3.63 1.97z" class="colora9acad svgShape"/><path fill="#9d9e9e" d="m16.47 36.69-3.63-1.98 4-.56 3.63 1.97z" class="color9d9d9e svgShape"/><defs><path id="bM" fill="#000" d="m19.61 36.24-3.63-1.97c.03-.04.57-.86 1.4-2.22l3.63 1.97a67.43 67.43 0 0 1-1.4 2.22z" class="color000000 svgShape"/></defs><clipPath id="bN"><use overflow="visible" xlink:href="#bM"/></clipPath><g class="color000000 svgShape" clip-path="url(#bN)"><path fill="#247972" d="m19.61 36.24-3.63-1.97c.03-.04.57-.86 1.4-2.22l3.63 1.97a67.43 67.43 0 0 1-1.4 2.22" class="color246079 svgShape"/></g><defs><path id="bO" fill="#000" d="M24.63 20.83c1.59-5.82 4.3-9.96 7.31-10.38 1.21.66 2.42 1.32 3.63 1.97-3 .42-5.71 4.57-7.31 10.38-1.09-.59-2.54-1.38-3.63-1.97z" class="color000000 svgShape"/></defs><clipPath id="bP"><use overflow="visible" xlink:href="#bO"/></clipPath><g class="color000000 svgShape" clip-path="url(#bP)"><path fill="#7c7f7f" d="m28.26 22.8-3.63-1.97c.25-.92.53-1.8.84-2.62l3.63 1.97c-.31.83-.59 1.7-.84 2.62" class="color7c7e7f svgShape"/><path fill="#818484" d="m29.09 20.18-3.63-1.97c.41-1.11.86-2.14 1.35-3.05l3.63 1.97c-.48.91-.94 1.93-1.35 3.05" class="color818384 svgShape"/><path fill="#868989" d="m30.45 17.13-3.63-1.97c.32-.59.65-1.13.99-1.63l3.63 1.97c-.34.49-.68 1.04-.99 1.63" class="color868889 svgShape"/><path fill="#8b8e8e" d="m31.44 15.5-3.63-1.97c.26-.37.53-.71.8-1.02l3.63 1.97c-.27.31-.54.65-.8 1.02" class="color8b8d8e svgShape"/><path fill="#8f9393" d="m32.24 14.47-3.63-1.97c.23-.26.47-.5.71-.72l3.63 1.97c-.24.22-.47.46-.71.72" class="color8f9293 svgShape"/><path fill="#949898" d="m32.95 13.76-3.63-1.97c.22-.2.45-.38.68-.54l3.63 1.97c-.23.15-.45.33-.68.54" class="color949798 svgShape"/><path fill="#999d9d" d="M33.63 13.21 30 11.24c.25-.17.51-.32.76-.44l3.63 1.97c-.25.12-.51.27-.76.44" class="color999c9d svgShape"/><path fill="#9ea2a2" d="m34.4 12.77-3.63-1.97c.38-.18.77-.3 1.17-.35.48-.07.95-.04 1.41.08l3.63 1.97a3.52 3.52 0 0 0-1.41-.08c-.4.05-.79.17-1.17.35" class="color9ea0a2 svgShape"/></g><defs><path id="bQ" fill="#000" d="m28.11 17.76-3.63-1.97c.67-1.47 1.42-2.76 2.25-3.84l3.63 1.97c-.82 1.09-1.58 2.38-2.25 3.84z" class="color000000 svgShape"/></defs><clipPath id="bR"><use overflow="visible" xlink:href="#bQ"/></clipPath><g class="color000000 svgShape" clip-path="url(#bR)"><path fill="#23756e" d="m28.11 17.76-3.63-1.97c.22-.49.46-.96.7-1.41l3.63 1.97c-.24.45-.47.92-.7 1.41" class="color235d75 svgShape"/><path fill="#247972" d="m28.81 16.35-3.63-1.97c.37-.69.76-1.33 1.18-1.92l3.63 1.97c-.41.59-.81 1.23-1.18 1.92" class="color246079 svgShape"/><path fill="#267d76" d="m29.99 14.43-3.63-1.97c.12-.17.25-.34.37-.51l3.63 1.97c-.13.17-.25.34-.37.51" class="color26647d svgShape"/></g><path fill="#a7acac" d="m30.2 14-3.63-1.97.16-.08 3.63 1.98z" class="colora7aaac svgShape"/><defs><path id="bS" fill="#000" d="m29.25 14.46-3.63-1.97.42-.21c.17-.09.35-.17.53-.25L30.2 14c-.18.08-.36.16-.53.25l-.42.21z" class="color000000 svgShape"/></defs><clipPath id="bT"><use overflow="visible" xlink:href="#bS"/></clipPath><g class="color000000 svgShape" clip-path="url(#bT)"><path fill="#999d9d" d="m29.25 14.46-3.63-1.97.42-.21c.06-.03.11-.05.17-.08l3.63 1.97c-.06.03-.11.05-.17.08l-.42.21" class="color999c9d svgShape"/><path fill="#9ea2a2" d="m29.84 14.17-3.63-1.97c.12-.06.24-.11.36-.16L30.2 14c-.12.06-.24.11-.36.17" class="color9ea0a2 svgShape"/></g><defs><path id="bU" fill="#000" d="m28.74 14.74-3.63-1.97c.17-.1.34-.19.51-.28l3.63 1.97c-.17.09-.35.18-.51.28z" class="color000000 svgShape"/></defs><clipPath id="bV"><use overflow="visible" xlink:href="#bU"/></clipPath><g class="color000000 svgShape" clip-path="url(#bV)"><path fill="#999d9d" d="m28.74 14.74-3.63-1.97c.17-.1.34-.19.51-.28l3.63 1.97c-.17.09-.35.18-.51.28" class="color999c9d svgShape"/></g><defs><path id="bW" fill="#000" d="M28.32 14.97 24.69 13c.13-.07.27-.16.41-.23l3.63 1.97c-.13.07-.27.16-.41.23z" class="color000000 svgShape"/></defs><clipPath id="bX"><use overflow="visible" xlink:href="#bW"/></clipPath><g class="color000000 svgShape" clip-path="url(#bX)"><path fill="#999d9d" d="M28.32 14.97 24.69 13c.13-.07.27-.16.41-.23l3.63 1.97c-.13.07-.27.16-.41.23" class="color999c9d svgShape"/></g><defs><path id="bY" fill="#000" d="m20.51 47.83-3.63-1.97c-2.44-3-3.85-6.9-4.04-11.15l3.63 1.97c.19 4.25 1.6 8.15 4.04 11.15z" class="color000000 svgShape"/></defs><clipPath id="bZ"><use overflow="visible" xlink:href="#bY"/></clipPath><g class="color000000 svgShape" clip-path="url(#bZ)"><path fill="#737474" d="m20.51 47.83-3.63-1.97c-2.44-3-3.85-6.9-4.04-11.15l3.63 1.97c.19 4.25 1.6 8.15 4.04 11.15" class="color737374 svgShape"/></g><defs><path id="ca" fill="#000" d="m27.82 15.27-3.63-1.97c.17-.1.33-.2.5-.3l3.63 1.97c-.17.1-.34.21-.5.3z" class="color000000 svgShape"/></defs><clipPath id="cb"><use overflow="visible" xlink:href="#ca"/></clipPath><g class="color000000 svgShape" clip-path="url(#cb)"><path fill="#999d9d" d="m27.82 15.27-3.63-1.97c.17-.1.33-.2.5-.3l3.63 1.97c-.17.1-.34.21-.5.3" class="color999c9d svgShape"/></g><defs><path id="cc" fill="#000" d="M24.05 13.39c.05-.03.1-.06.14-.09l3.63 1.97c-.05.03-.1.06-.14.09-1.09-.59-2.55-1.38-3.63-1.97z" class="color000000 svgShape"/></defs><clipPath id="cd"><use overflow="visible" xlink:href="#cc"/></clipPath><g class="color000000 svgShape" clip-path="url(#cd)"><path fill="#999d9d" d="m27.67 15.37-3.63-1.97c.05-.03.1-.06.14-.09l3.63 1.97c-.04.03-.09.06-.14.09" class="color999c9d svgShape"/></g><defs><path id="ce" fill="#000" d="M13.27 22.32c.79.43 1.73.61 2.73.47l3.63 1.97c-1.01.14-1.94-.04-2.73-.47-1.09-.59-2.54-1.38-3.63-1.97z" class="color000000 svgShape"/></defs><clipPath id="cf"><use overflow="visible" xlink:href="#ce"/></clipPath><g class="color000000 svgShape" clip-path="url(#cf)"><path fill="#399089" d="m16.9 24.29-3.63-1.97c.05.03.1.05.16.08l3.63 1.97c-.05-.02-.11-.05-.16-.08" class="color90393c svgShape"/><path fill="#3b958e" d="m17.06 24.38-3.63-1.97c.26.13.53.23.81.3l3.63 1.97c-.29-.08-.56-.18-.81-.3" class="color953b3d svgShape"/><path fill="#3d9a92" d="m17.86 24.67-3.63-1.97c.55.14 1.15.18 1.77.09l3.63 1.97c-.62.09-1.21.06-1.77-.09" class="color9a3d3f svgShape"/></g><defs><path id="cg" fill="#000" d="m16.9 24.29-3.63-1.97c-1.43-.78-2.37-2.36-2.36-4.32l3.63 1.97c-.01 1.96.94 3.55 2.36 4.32z" class="color000000 svgShape"/></defs><clipPath id="ch"><use overflow="visible" xlink:href="#cg"/></clipPath><g class="color000000 svgShape" clip-path="url(#ch)"><path fill="#7c7f7f" d="m16.9 24.29-3.63-1.97c-1.43-.78-2.37-2.36-2.36-4.32l3.63 1.97c-.01 1.96.94 3.55 2.36 4.32" class="color7c7e7f svgShape"/></g><defs><path id="ci" fill="#000" d="M14.54 19.98 10.91 18c.01-3.04 2.29-5.83 5.12-6.23l3.63 1.97c-2.83.4-5.12 3.19-5.12 6.24z" class="color000000 svgShape"/></defs><clipPath id="cj"><use overflow="visible" xlink:href="#ci"/></clipPath><g class="color000000 svgShape" clip-path="url(#cj)"><path fill="#7c7f7f" d="M14.54 19.98 10.91 18c0-.75.14-1.48.39-2.17l3.63 1.97c-.25.69-.39 1.43-.39 2.18" class="color7c7e7f svgShape"/><path fill="#818484" d="m14.93 17.8-3.63-1.97c.11-.3.24-.58.39-.86l3.63 1.97c-.15.28-.28.57-.39.86" class="color818384 svgShape"/><path fill="#868989" d="m15.32 16.95-3.63-1.97c.13-.23.26-.46.42-.67l3.63 1.97c-.16.21-.3.43-.42.67" class="color868889 svgShape"/><path fill="#8b8e8e" d="M15.73 16.27 12.1 14.3c.14-.2.3-.4.46-.58l3.63 1.97c-.16.18-.31.38-.46.58" class="color8b8d8e svgShape"/><path fill="#8f9393" d="m16.19 15.69-3.63-1.97c.16-.19.34-.36.52-.53l3.63 1.97c-.18.17-.35.34-.52.53" class="color8f9293 svgShape"/><path fill="#949898" d="m16.71 15.16-3.63-1.97c.2-.18.4-.34.62-.49l3.63 1.97c-.21.15-.42.31-.62.49" class="color949798 svgShape"/><path fill="#999d9d" d="M17.33 14.67 13.7 12.7c.26-.18.54-.34.83-.48l3.63 1.97c-.29.14-.56.3-.83.48" class="color999c9d svgShape"/><path fill="#9ea2a2" d="m18.16 14.19-3.63-1.97c.47-.22.97-.38 1.49-.45l3.63 1.97c-.51.08-1.02.23-1.49.45" class="color9ea0a2 svgShape"/></g><defs><path id="ck" fill="#000" d="m20.56 9.11 3.63 1.97c-1.31-.71-2.86-1.01-4.53-.78-4.69.66-8.49 5.29-8.5 10.35 0 2.48 2.03 6.27 4.1 9.49.49.76.98 1.49 1.45 2.17.55.79 1.07 1.51 1.51 2.1.84 1.13 1.37 1.79 1.4 1.83l-3.63-1.97c-.03-.04-.56-.7-1.4-1.83-.44-.59-.96-1.31-1.51-2.1-.47-.67-.96-1.4-1.45-2.17-2.07-3.22-4.1-7.02-4.1-9.49.01-5.06 3.82-9.69 8.5-10.35 1.67-.23 3.22.07 4.53.78z" class="color000000 svgShape"/></defs><clipPath id="cl"><use overflow="visible" xlink:href="#ck"/></clipPath><g class="color000000 svgShape" clip-path="url(#cl)"><path fill="#307973" d="m19.61 36.24-3.63-1.97c-.03-.04-.56-.7-1.4-1.83-.44-.59-.96-1.31-1.51-2.1-.47-.67-.96-1.4-1.45-2.17-2.07-3.22-4.1-7.02-4.1-9.49 0-1.25.23-2.46.65-3.61l3.63 1.97c-.42 1.14-.65 2.36-.65 3.61 0 2.48 2.03 6.27 4.1 9.49.49.76.98 1.49 1.45 2.17.55.79 1.07 1.51 1.51 2.1.84 1.13 1.38 1.8 1.4 1.83" class="color793032 svgShape"/><path fill="#327e78" d="m11.81 17.05-3.63-1.97c.18-.49.4-.97.64-1.43l3.63 1.97c-.24.46-.46.94-.64 1.43" class="color7e3234 svgShape"/><path fill="#34827c" d="m12.45 15.62-3.63-1.97c.21-.39.44-.76.69-1.12l3.63 1.97c-.25.36-.48.74-.69 1.12" class="color823436 svgShape"/><path fill="#358780" d="m13.15 14.5-3.63-1.97c.24-.34.49-.66.76-.97l3.63 1.97c-.27.31-.53.63-.76.97" class="color873538 svgShape"/><path fill="#378c85" d="m13.91 13.53-3.63-1.97c.27-.31.56-.6.87-.87l3.63 1.97c-.31.27-.6.56-.87.87" class="color8c373a svgShape"/><path fill="#399089" d="m14.78 12.66-3.63-1.97c.33-.29.67-.56 1.03-.81l3.63 1.97c-.37.24-.71.51-1.03.81" class="color90393c svgShape"/><path fill="#3b958e" d="m15.8 11.84-3.63-1.97c.44-.3.9-.57 1.38-.8l3.63 1.97c-.48.23-.94.5-1.38.8" class="color953b3d svgShape"/><path fill="#3d9a92" d="m17.18 11.05-3.63-1.97c.78-.37 1.62-.62 2.48-.75a7.57 7.57 0 0 1 2.94.15l3.63 1.97c-.91-.24-1.9-.3-2.94-.15-.86.13-1.69.38-2.48.75" class="color9a3d3f svgShape"/><path fill="#3b958e" d="m22.6 10.46-3.63-1.97c.47.12.91.29 1.33.49l3.63 1.97c-.42-.21-.87-.37-1.33-.49" class="color953b3d svgShape"/><path fill="#399089" d="M23.93 10.95 20.3 8.98c.09.04.17.09.25.13l3.63 1.97c-.08-.04-.16-.09-.25-.13" class="color90393c svgShape"/></g><path fill="#2e9990" d="m16.47 34.66-3.63-1.97 1.75-.25 3.63 1.98z" class="color2e7a99 svgShape"/><defs><path id="cm" fill="#000" d="M12.84 32.69c.04-.78.12-1.57.23-2.35 1.21.66 2.42 1.32 3.63 1.97-.12.78-.2 1.56-.23 2.35-1.09-.59-2.54-1.38-3.63-1.97z" class="color000000 svgShape"/></defs><clipPath id="cn"><use overflow="visible" xlink:href="#cm"/></clipPath><g class="color000000 svgShape" clip-path="url(#cn)"><path fill="#737474" d="m16.47 34.66-3.63-1.97c.04-.78.12-1.57.23-2.35l3.63 1.97c-.11.79-.19 1.57-.23 2.35" class="color737374 svgShape"/></g><path fill="#41e1d4" d="M54.35 20.42c-.76-1.6-1.74-3.07-2.9-4.37-3.97-4.46-9.76-6.52-15.88-5.66-1.15.16-2.29.42-3.4.78-.67.21-1.33.46-1.98.73-.19.09-.36.17-.55.25-.45.21-.89.43-1.33.67-.05.02-.1.05-.15.08-.43.24-.86.49-1.28.75.32.53.59 1.1.79 1.72l.15-.09c.16-.1.33-.21.5-.31.14-.07.28-.15.42-.23.16-.09.34-.18.51-.27.14-.07.28-.15.42-.21.17-.09.35-.17.53-.25l.16-.08c-.82 1.08-1.58 2.37-2.25 3.84.01.17.02.34.02.51-.01 1.77-1.06 4.51-2.42 7.32a46.988 46.988 0 0 0-.79 7.42c0 .15-.01.31-.01.46l-1.09.15-1.87.27-.93.13c-.49.8-.88 1.41-1.12 1.79-.18.26-.28.41-.29.43l.86-.12 4.43-.62c.04 2.02.2 3.94.46 5.73.15 1.05.33 2.05.55 3.01-.24.13-.49.26-.73.4-1.65.92-3.22 1.99-4.67 3.19-.53-.65-1.01-1.35-1.44-2.08-1.56-2.63-2.45-5.74-2.6-9.07l3.14-.44c-.01-.03-.31-.39-.79-1.02-.17-.23-.38-.5-.6-.81l-.7.1-1.05.15c.01-.16.02-.31.04-.47 0-.23.02-.45.05-.68.04-.4.09-.8.15-1.2-.47-.67-.96-1.4-1.45-2.16-.19.79-.34 1.6-.45 2.41-.05.37-.09.74-.13 1.12l-.06.78c-.02.4-.04.8-.05 1.19v.29c-.01 4.03.98 7.83 2.84 11.01a18.02 18.02 0 0 0 2.19 3c3.96 4.43 9.7 6.48 16 5.63 6.07-.89 11.82-4.56 15.8-10.1 3.26-4.55 5.06-10.03 5.07-15.43.01-3.47-.73-6.78-2.12-9.64zM52.7 21.6c1.11 2.32 1.75 4.94 1.87 7.71l-2.96.42-5.46.77c0-.16-.01-.31-.02-.46-.01-.68-.04-1.35-.09-2.01-.04-.52-.08-1.04-.14-1.54-.17-1.68-.43-3.26-.76-4.73 1.92-1 3.73-2.2 5.4-3.59a16.83 16.83 0 0 1 2.16 3.43zm-11.25-9c.15.03.29.06.43.09.17.05.34.09.51.14.14.03.27.07.41.12.17.04.34.1.51.15.13.05.26.1.4.15.16.05.33.12.49.19.13.06.26.11.39.16.16.08.32.15.49.23.12.06.25.12.37.18.16.08.32.18.48.26.12.07.24.14.35.2.16.1.33.21.49.31.1.06.21.13.31.21.18.11.34.24.51.36.09.06.18.12.27.19.2.16.4.32.59.49l.16.13c.24.21.47.43.7.65-1.45 1.18-3.01 2.2-4.66 3.07-.94-3.2-2.28-5.75-3.89-7.41l.17.03c.18.02.35.05.52.1zm-5.89-.18c3.01-.42 5.7 2.97 7.27 8.34a28.02 28.02 0 0 1-7.29 2.08c-2.47.34-4.93.34-7.28-.03 1.59-5.82 4.3-9.97 7.3-10.39zm-7.8 12.41c2.51.4 5.11.42 7.78.04 2.66-.37 5.27-1.12 7.78-2.23.36 1.59.63 3.32.79 5.14.01.16.03.33.04.51.03.38.05.77.07 1.16.02.28.03.57.03.86.01.15.02.3.02.45l-1.08.15-1.88.27-2.41.32-12.12 1.71c0-.15.01-.31.02-.46a44.325 44.325 0 0 1 .96-7.92zm-.98 10.41 8.63-1.21 8.85-1.25c-.06 2.96-.41 5.81-.97 8.4-2.51-.4-5.12-.41-7.78-.04-2.67.38-5.27 1.12-7.78 2.22-.24-1.07-.44-2.21-.6-3.39-.19-1.5-.32-3.08-.35-4.73zm3.35 18.26c-.18-.03-.36-.06-.53-.1-.14-.03-.28-.06-.42-.1-.18-.04-.35-.08-.52-.13-.13-.04-.27-.08-.41-.12-.16-.05-.34-.1-.5-.16-.14-.05-.27-.1-.4-.14-.17-.06-.33-.13-.5-.2-.13-.05-.25-.1-.38-.16-.17-.07-.33-.14-.49-.22-.13-.06-.25-.12-.37-.19-.17-.08-.33-.17-.49-.26-.11-.06-.23-.13-.35-.2-.16-.09-.32-.2-.48-.3-.11-.07-.22-.13-.32-.21-.17-.11-.34-.23-.49-.36-.1-.07-.2-.13-.29-.2-.19-.15-.38-.31-.57-.47l-.18-.14c-.23-.21-.47-.43-.7-.65 1.45-1.17 3.01-2.19 4.66-3.06.94 3.19 2.27 5.73 3.88 7.39l-.15-.02zm5.44.07-.08.02-.08.01c-2.52.3-4.82-2.09-6.42-6.08-.28-.71-.54-1.47-.77-2.27 2.34-1.03 4.81-1.73 7.27-2.07 2.48-.35 4.95-.35 7.3.03-.64 2.32-1.45 4.38-2.4 6.05-1.39 2.44-3.05 4.01-4.82 4.31zm13.59-8.14c-.2.25-.4.5-.61.74l-.19.22c-.19.2-.37.41-.56.6l-.3.3c-.16.17-.32.33-.48.48-.11.11-.23.21-.34.32-.16.14-.31.28-.46.42-.12.11-.25.21-.37.31-.16.13-.31.26-.47.38-.13.11-.26.2-.39.3-.15.12-.31.24-.47.35-.13.1-.27.19-.4.28-.16.12-.32.22-.48.33-.14.08-.28.17-.42.26-.16.1-.32.2-.49.3-.14.08-.28.16-.42.23-.17.1-.34.19-.51.28-.14.07-.28.14-.43.21-.17.09-.34.17-.51.25l-.16.07c.74-.97 1.42-2.1 2.03-3.38.72-1.52 1.36-3.23 1.87-5.11 1.65.4 3.21.98 4.65 1.75-.03.05-.06.09-.09.11zm1.33-1.8c-1.67-.92-3.47-1.61-5.39-2.07.61-2.78.98-5.83 1.05-9.04l8.42-1.18c-.2 4.29-1.63 8.59-4.08 12.29z" class="color3996bd svgShape"/><path fill="#d1d6d6" d="M42.73 48.69c.73-1.52 1.36-3.23 1.87-5.11 1.64.4 3.2.98 4.65 1.75-.03.04-.06.07-.09.11a21.887 21.887 0 0 1-6.43 3.25z" class="colord1d4d6 svgShape"/><path fill="#c2c3c3" d="M28.99 47.52c3.08 1.69 6.74 2.4 10.67 1.85.24-.03.49-.07.73-.12-1.39 2.45-3.06 4.03-4.82 4.32l-.08.02h-.08c-2.52.3-4.82-2.08-6.42-6.07z" class="colorc2c2c3 svgShape"/><path fill="#d1d6d6" d="M35.49 43.17c2.47-.35 4.94-.34 7.3.03-.64 2.33-1.46 4.39-2.4 6.05-.24.04-.48.08-.73.12-3.93.55-7.59-.16-10.67-1.85-.28-.71-.54-1.47-.78-2.27 2.35-1.04 4.82-1.73 7.28-2.08z" class="colord1d4d6 svgShape"/><path fill="#c2c3c3" d="M21.74 49.2c1.44-1.17 3.01-2.19 4.66-3.06.94 3.19 2.27 5.74 3.87 7.4l-.15-.03c-.18-.03-.36-.06-.53-.1-.14-.03-.28-.06-.41-.1-.18-.04-.35-.08-.52-.13-.13-.04-.27-.08-.41-.12-.17-.05-.34-.1-.5-.16-.13-.04-.27-.09-.4-.14-.17-.07-.33-.13-.5-.2-.13-.05-.25-.1-.38-.16-.17-.07-.33-.15-.49-.23-.13-.06-.25-.12-.37-.18-.17-.08-.32-.17-.48-.26-.11-.07-.24-.13-.35-.2-.17-.09-.32-.2-.48-.3-.11-.07-.22-.13-.32-.21-.17-.11-.33-.24-.49-.36l-.29-.2c-.19-.15-.38-.31-.57-.47l-.18-.14c-.24-.22-.48-.43-.71-.65z" class="colorc2c2c3 svgShape"/><path fill="#d1d6d6" d="M49.31 16.81a28.371 28.371 0 0 1-4.66 3.06c-.94-3.2-2.28-5.75-3.88-7.41l.17.03c.18.03.35.06.52.1.15.03.29.06.43.09.17.04.34.09.51.13l.41.12c.17.05.34.1.5.16.13.05.27.09.4.14.17.06.33.13.49.19.13.06.26.11.39.17.17.07.32.15.49.23.12.06.25.12.37.18.17.08.32.17.48.26.11.07.24.13.35.2.16.09.32.2.48.3.11.07.22.13.32.21.17.11.34.24.5.36.1.06.18.13.27.2.2.16.39.32.59.48l.16.14c.25.21.48.43.71.66z" class="colord1d4d6 svgShape"/><defs><path id="co" fill="#000" d="m26.78 33.21-3.63-1.97c.07-2.95.42-5.79.98-8.39l3.63 1.97c-.56 2.6-.91 5.44-.98 8.39z" class="color000000 svgShape"/></defs><clipPath id="cp"><use overflow="visible" xlink:href="#co"/></clipPath><g class="color000000 svgShape" clip-path="url(#cp)"><path fill="#7c7f7f" d="m26.78 33.21-3.63-1.97c.07-2.95.42-5.79.98-8.39l3.63 1.97c-.56 2.6-.91 5.44-.98 8.39" class="color7c7e7f svgShape"/></g><path fill="#d1d6d6" d="M43.32 22.64c.55 2.44.89 5.19.95 8.12l-17.48 2.46c.07-2.95.42-5.79.98-8.39 2.5.4 5.11.42 7.78.04 2.65-.38 5.26-1.13 7.77-2.23zM20.47 36.12l4.43-.62c.06 3.19.42 6.14 1.01 8.75-.24.13-.49.26-.73.39-2.22-2.24-3.86-5.15-4.71-8.52z" class="colord1d4d6 svgShape"/><defs><path id="cq" fill="#000" d="M21.28 31.5c.05-2.77.34-5.42.8-7.88l3.63 1.97c-.47 2.46-.75 5.11-.8 7.88-1.09-.59-2.54-1.38-3.63-1.97z" class="color000000 svgShape"/></defs><clipPath id="cr"><use overflow="visible" xlink:href="#cq"/></clipPath><g class="color000000 svgShape" clip-path="url(#cr)"><path fill="#22706a" d="m24.91 33.48-3.63-1.97c.05-2.77.34-5.42.8-7.88l3.63 1.97c-.46 2.46-.75 5.11-.8 7.88" class="color225970 svgShape"/></g><path fill="#2e9990" d="m21.02 34.02-3.63-1.97 3.89-.55 3.63 1.98z" class="color2e7a99 svgShape"/><defs><path id="cs" fill="#000" d="M17.39 32.05c1.27-2.07 3.18-5.29 4.69-8.43l3.63 1.97c-1.52 3.14-3.42 6.36-4.69 8.43-1.09-.59-2.54-1.38-3.63-1.97z" class="color000000 svgShape"/></defs><clipPath id="ct"><use overflow="visible" xlink:href="#cs"/></clipPath><g class="color000000 svgShape" clip-path="url(#ct)"><path fill="#868989" d="m21.02 34.02-3.63-1.97c.9-1.46 2.11-3.49 3.28-5.66l3.63 1.97c-1.17 2.17-2.38 4.21-3.28 5.66" class="color868889 svgShape"/><path fill="#818484" d="m24.3 28.36-3.63-1.97c.49-.91.97-1.84 1.42-2.76l3.63 1.97c-.45.92-.94 1.85-1.42 2.76" class="color818384 svgShape"/></g><path fill="#d1d6d6" d="M25.71 25.6c-.47 2.46-.75 5.11-.8 7.88l-3.89.55c1.27-2.07 3.18-5.3 4.69-8.43zm9.83-2.77c-2.47.35-4.94.34-7.28-.03 1.59-5.82 4.3-9.96 7.31-10.38 3-.42 5.7 2.96 7.27 8.34a28.176 28.176 0 0 1-7.3 2.07z" class="colord1d4d6 svgShape"/><defs><path id="cu" fill="#000" d="M22.08 23.62c1.36-2.81 2.41-5.55 2.41-7.33 1.21.66 2.42 1.32 3.63 1.97 0 1.77-1.05 4.51-2.41 7.33-1.09-.58-2.54-1.37-3.63-1.97z" class="color000000 svgShape"/></defs><clipPath id="cv"><use overflow="visible" xlink:href="#cu"/></clipPath><g class="color000000 svgShape" clip-path="url(#cv)"><path fill="#23756e" d="m25.71 25.6-3.63-1.97c.59-1.23 1.13-2.44 1.54-3.57l3.63 1.97c-.41 1.13-.94 2.34-1.54 3.57" class="color235d75 svgShape"/><path fill="#22706a" d="m27.25 22.03-3.63-1.97c.53-1.45.87-2.76.87-3.76 0-.17 0-.34-.01-.51l3.63 1.97c.01.17.01.34.01.51 0 1-.33 2.31-.87 3.76" class="color225970 svgShape"/></g><defs><path id="cw" fill="#000" d="M24.5 16.3c0-.17 0-.34-.01-.51l3.63 1.97c.01.17.01.34.01.51-1.21-.66-2.42-1.31-3.63-1.97z" class="color000000 svgShape"/></defs><clipPath id="cx"><use overflow="visible" xlink:href="#cw"/></clipPath><g class="color000000 svgShape" clip-path="url(#cx)"><path fill="#22706a" d="m27.25 22.03-3.63-1.97c.53-1.45.87-2.76.87-3.76 0-.17 0-.34-.01-.51l3.63 1.97c.01.17.01.34.01.51 0 1-.33 2.31-.87 3.76" class="color225970 svgShape"/></g><path fill="#c2c3c3" d="M20.47 36.12c.85 3.37 2.5 6.28 4.71 8.52-1.66.92-3.22 1.99-4.67 3.19-2.44-3-3.85-6.9-4.04-11.15l4-.56z" class="colorc2c2c3 svgShape"/><defs><path id="cy" fill="#000" d="M24.48 15.79c-.04-.85-.19-1.65-.44-2.4l3.63 1.97c.25.74.4 1.55.44 2.4-1.09-.59-2.54-1.38-3.63-1.97z" class="color000000 svgShape"/></defs><clipPath id="cz"><use overflow="visible" xlink:href="#cy"/></clipPath><g class="color000000 svgShape" clip-path="url(#cz)"><path fill="#7c7f7f" d="m28.11 17.76-3.63-1.97c-.04-.85-.19-1.65-.44-2.4l3.63 1.97c.25.75.4 1.55.44 2.4" class="color7c7e7f svgShape"/></g><path fill="#d1d6d6" d="M30.36 13.93c-.82 1.08-1.58 2.37-2.25 3.84-.04-.85-.19-1.65-.44-2.4.05-.03.1-.06.14-.09.17-.1.33-.2.5-.3.13-.07.27-.16.41-.23.17-.1.34-.19.51-.28l.42-.21c.17-.09.35-.17.53-.25l.18-.08z" class="colord1d4d6 svgShape"/><defs><path id="cA" fill="#000" d="M31.94 8.41c4.02-.56 7.89.13 11.2 1.93l3.63 1.97c-3.31-1.8-7.18-2.49-11.2-1.93-1.15.16-2.28.42-3.4.77a20.536 20.536 0 0 0-2.53.99c-.95.43-1.87.93-2.77 1.5l-3.63-1.97c.9-.56 1.82-1.07 2.77-1.5a20.536 20.536 0 0 1 2.53-.99c1.11-.35 2.25-.61 3.4-.77z" class="color000000 svgShape"/></defs><clipPath id="cB"><use overflow="visible" xlink:href="#cA"/></clipPath><g class="color000000 svgShape" clip-path="url(#cB)"><path fill="#2a8a82" d="m26.88 13.65-3.63-1.97c.82-.52 1.66-.98 2.52-1.38l3.63 1.97c-.87.4-1.71.86-2.52 1.38" class="color2a6e8a svgShape"/><path fill="#2b8f87" d="m29.39 12.26-3.63-1.97c.06-.03.13-.06.19-.09l3.63 1.97c-.06.03-.12.06-.19.09" class="color2b728f svgShape"/><path fill="#2a8a82" d="m29.59 12.17-3.63-1.97c.02-.01.04-.02.05-.02.01-.01.03-.01.04-.02l3.63 1.97c-.01.01-.03.01-.04.02-.02.01-.03.02-.05.02" class="color2a6e8a svgShape"/><path fill="#2b8f87" d="m29.68 12.13-3.63-1.97c.17-.08.34-.15.51-.23.65-.28 1.31-.53 1.98-.74 1.12-.36 2.25-.61 3.4-.77 2.51-.35 4.97-.21 7.27.38l3.63 1.97c-2.3-.6-4.76-.74-7.27-.38-1.15.16-2.28.42-3.4.77-.67.21-1.33.46-1.98.74-.17.07-.34.15-.51.23" class="color2b728f svgShape"/><path fill="#2a8a82" d="M42.84 10.77 39.21 8.8c1.14.3 2.25.71 3.3 1.22l3.63 1.97c-1.05-.51-2.16-.92-3.3-1.22" class="color2a6e8a svgShape"/><path fill="#28867e" d="m46.14 11.99-3.63-1.97c.21.1.42.21.63.32l3.63 1.97c-.21-.1-.42-.21-.63-.32" class="color286b86 svgShape"/></g><defs><path id="cC" fill="#000" d="M24.05 13.39c-.2-.62-.47-1.19-.8-1.72l3.63 1.97c.33.53.6 1.1.8 1.72-1.09-.59-2.84-1.02-3.63-1.97z" class="color000000 svgShape"/></defs><clipPath id="cD"><use overflow="visible" xlink:href="#cC"/></clipPath><g class="color000000 svgShape" clip-path="url(#cD)"><path fill="#22706a" d="m27.67 15.37-3.63-1.97c-.2-.62-.47-1.19-.8-1.72l3.63 1.97c.33.52.6 1.1.8 1.72" class="color225970 svgShape"/></g><path fill="#c2c3c3" d="M16.71 32.32c.55.79 1.07 1.51 1.51 2.1l-1.74.24c.03-.78.11-1.56.23-2.34z" class="colorc2c2c3 svgShape"/><defs><path id="cE" fill="#000" d="M10.94 33.97c0-1.94.24-3.88.69-5.79l3.63 1.97c-.45 1.91-.68 3.85-.69 5.79-.01 5.41 1.77 10.39 5.03 14.02 1.36 1.52 2.92 2.75 4.64 3.69l-3.63-1.97c-1.72-.94-3.29-2.18-4.64-3.69-3.26-3.64-5.04-8.61-5.03-14.02z" class="color000000 svgShape"/></defs><clipPath id="cF"><use overflow="visible" xlink:href="#cE"/></clipPath><g class="color000000 svgShape" clip-path="url(#cF)"><path fill="#22706a" d="m24.24 53.65-3.63-1.97c-1.72-.94-3.29-2.18-4.64-3.69-3.26-3.63-5.04-8.61-5.03-14.02 0-1.94.24-3.88.69-5.79l3.63 1.97c-.45 1.91-.68 3.85-.69 5.79-.01 5.41 1.77 10.39 5.03 14.02 1.36 1.51 2.92 2.75 4.64 3.69" class="color225970 svgShape"/></g><defs><path id="cG" fill="#000" d="M21.12 16.57c0-1.96-.94-3.55-2.37-4.33l3.63 1.97c1.43.78 2.37 2.37 2.37 4.33-1.21-.66-2.42-1.31-3.63-1.97 1.21.66 2.42 1.32 3.63 1.97-.01 3.04-2.29 5.83-5.11 6.22l-3.63-1.97c2.81-.4 5.1-3.18 5.11-6.22z" class="color000000 svgShape"/></defs><clipPath id="cH"><use overflow="visible" xlink:href="#cG"/></clipPath><g class="color000000 svgShape" clip-path="url(#cH)"><path fill="#3d9a92" d="M19.63 24.76 16 22.79c.52-.07 1.02-.23 1.49-.45l3.63 1.97c-.46.23-.97.38-1.49.45" class="color9a3d3f svgShape"/><path fill="#3b958e" d="m21.13 24.31-3.63-1.97c.29-.14.56-.3.83-.48l3.63 1.97c-.27.19-.54.35-.83.48" class="color953b3d svgShape"/><path fill="#399089" d="m21.96 23.84-3.63-1.97c.21-.15.42-.31.62-.49l3.63 1.97c-.2.18-.41.34-.62.49" class="color90393c svgShape"/><path fill="#378c85" d="m22.57 23.35-3.63-1.97c.18-.16.36-.34.52-.53l3.63 1.97c-.16.19-.34.36-.52.53" class="color8c373a svgShape"/><path fill="#358780" d="m23.09 22.82-3.63-1.97c.16-.18.32-.38.46-.58l3.63 1.97c-.14.2-.29.4-.46.58" class="color873538 svgShape"/><path fill="#34827c" d="m23.55 22.24-3.63-1.97c.15-.22.29-.44.42-.67l3.63 1.97c-.13.23-.27.46-.42.67" class="color823436 svgShape"/><path fill="#327e78" d="m23.97 21.57-3.63-1.97c.15-.28.28-.56.39-.86l3.63 1.97c-.12.3-.25.58-.39.86" class="color7e3234 svgShape"/><path fill="#307973" d="m24.35 20.71-3.63-1.97c.25-.69.39-1.42.39-2.17 0-1.96-.94-3.55-2.37-4.33l3.63 1.97c1.43.78 2.37 2.37 2.37 4.33 0 .75-.14 1.48-.39 2.17" class="color793032 svgShape"/></g><defs><path id="cI" fill="#000" d="m18.75 12.24 3.63 1.97c-.79-.43-1.72-.61-2.72-.47l-3.63-1.97c1-.14 1.93.04 2.72.47z" class="color000000 svgShape"/></defs><clipPath id="cJ"><use overflow="visible" xlink:href="#cI"/></clipPath><g class="color000000 svgShape" clip-path="url(#cJ)"><path fill="#9ea2a2" d="m19.66 13.75-3.63-1.97c.62-.09 1.21-.05 1.76.09l3.63 1.97c-.55-.15-1.15-.18-1.76-.09" class="color9ea0a2 svgShape"/><path fill="#999d9d" d="m21.42 13.84-3.63-1.97c.28.07.55.17.81.3l3.63 1.97c-.26-.13-.53-.23-.81-.3" class="color999c9d svgShape"/><path fill="#949898" d="m22.22 14.13-3.63-1.97c.05.03.1.05.16.08l3.63 1.97c-.05-.02-.11-.05-.16-.08" class="color949798 svgShape"/></g><path fill="#d1d6d6" d="M19.66 13.75c2.82-.4 5.1 1.75 5.09 4.8-.01 3.04-2.29 5.83-5.11 6.22-2.82.4-5.1-1.75-5.1-4.79 0-3.05 2.29-5.84 5.12-6.23z" class="colord1d4d6 svgShape"/><path fill="#50cbc1" d="M28.11 17.76c-.04-.85-.19-1.66-.44-2.4-.2-.62-.47-1.19-.79-1.72-1.49-2.4-4.17-3.77-7.22-3.34-4.69.66-8.49 5.29-8.5 10.35-.01 2.48 2.02 6.27 4.1 9.5.49.76.98 1.49 1.45 2.16.43.61.83 1.18 1.2 1.68.1.15.21.29.31.42.22.31.43.58.6.81.48.63.78.99.79 1.02.01-.02.11-.17.29-.43.24-.38.63-.99 1.12-1.79.09-.15.19-.31.3-.48.28-.47.58-.98.91-1.52 1.11-1.88 2.4-4.18 3.48-6.43 1.36-2.81 2.41-5.55 2.42-7.32 0-.16-.01-.34-.02-.51zm-8.48 7c-2.82.4-5.1-1.75-5.09-4.79 0-3.04 2.29-5.83 5.12-6.23 2.81-.4 5.09 1.75 5.09 4.8-.01 3.05-2.3 5.83-5.12 6.22z" class="colorcb5054 svgShape"/></svg>