<svg xmlns="http://www.w3.org/2000/svg" viewBox="0 0 53 53"><path fill="#4dbcb3" d="M25.3 34.779c1.041.6 1.047 1.588.013 2.189-1.028.597-2.722.59-3.762-.01s-1.046-1.575-.018-2.172c1.034-.601 2.727-.608 3.768-.007z" class="colorbc874d svgShape"/><path fill="#60cbc2" d="M44.518 26.506c0 5.32-1.99 10.19-5.274 13.9 0 .012-.012.023-.023.034-.36.405-.742.81-1.136 1.17-.101.113-.202.203-.303.304-.034.022-.057.045-.09.067a21.018 21.018 0 0 1-14.318 5.59c-3.059 0-5.96-.641-8.592-1.822-.023-.011-.056-.023-.079-.034-.945-.416-1.833-.922-2.699-1.473l-.337-.203c-.034-.022-.08-.045-.113-.078l-.169-.102a.155.155 0 0 1-.045-.033c-5.5-3.79-9.11-10.145-9.11-17.32 0-1.001.08-1.991.214-2.947a9.1 9.1 0 0 1 .09-.585v-.011l.068-.382a20.955 20.955 0 0 1 7.49-12.462c.202-.18.405-.337.63-.495l.169-.135a21.136 21.136 0 0 1 9.267-3.824 21.654 21.654 0 0 1 3.216-.236 21.09 21.09 0 0 1 14.531 5.77c.473.438.934.91 1.35 1.406a1.7 1.7 0 0 1 .191.225c.225.247.428.494.619.753a4.6 4.6 0 0 1 .28.371 20.876 20.876 0 0 1 4.173 12.552z" class="color6dcb60 svgShape"/><path fill="#84fff5" d="M13.93 36.405a24.278 24.278 0 0 1-.384 2.156c-.153.687-.377 1.358-.53 2.036-.055.24.025.511-.023.75-.112.704-.305 1.398-.393 2.1-.048.376.056.768.088 1.175a15.991 15.991 0 0 1-1.017-.583 1.041 1.041 0 0 1-.12-.08 1.917 1.917 0 0 1-.168-.104c-.016-.008-.032-.016-.04-.032-5.503-3.793-9.108-10.141-9.108-17.32 0-.998.072-1.988.208-2.946.2.135.393.271.585.407l.096-.096c-.2-.295-.392-.599-.585-.894v-.008c.016-.128.04-.256.065-.383.112.087.224.175.328.279.312.32.6.647.897.974.064.072.168.144.184.224.305 1.373 1.634 1.397 2.556 1.948.056.04.184-.056.272-.048.232.016.473.016.68.096.401.16.802.344 1.17.551.289.168.545.4.817.607.441.343.882.687 1.33 1.03.024.024.096.032.112.008.305-.303.545-.423.81.08.272.527.264.99-.137 1.437-.048.056-.088.136-.152.176-.393.256-.625.543-.409 1.046.048.112-.104.287-.12.44-.016.167-.024.359.056.494a34.85 34.85 0 0 0 1.242 2.013c.184.279.416.582.705.734.921.48 1.105.727.985 1.733zm-1.377-11.674-2.203-.672c.47-.313 1.292-.122 2.203.672zm1.819.602-1.344-.14c.455-.55 1-.516 1.344.14z" class="color84dbff svgShape"/><path fill="#72d6ce" d="M44.518 26.506c0 5.32-1.99 10.19-5.274 13.9 0 .012-.012.023-.023.034-.36.405-.742.81-1.136 1.17a21.893 21.893 0 0 1-6.59 1.001c-11.686 0-21.144-8.964-21.144-20.02 0-7.118 3.914-13.372 9.807-16.926a21.654 21.654 0 0 1 3.216-.236 21.09 21.09 0 0 1 14.531 5.77c.473.438.934.91 1.35 1.406a1.7 1.7 0 0 1 .191.225c.225.247.428.494.619.753a4.6 4.6 0 0 1 .28.371 20.876 20.876 0 0 1 4.173 12.552z" class="color81d672 svgShape"/><path fill="#b5f4ef" d="M42.292 20.271c-1.193.012-1.283-.202-1.8-1.304-.191.101-.382.191-.562.304.303.63.281.708-.416.9-.36-.496-.653-1.07-1.069-1.497-.416-.427-.956-.697-1.44-1.057l-.19.259c.483.405.955.787 1.45 1.192a3.503 3.503 0 0 0-.18.461c-.393-.236-.81-.45-1.203-.697-.18-.124-.394-.236-.495-.394-.529-.832-1.147.304-1.687-.112-.045-.023-.27.123-.371.225-.416.438-.81.9-1.237 1.316-.146.146-.383.19-.585.258-.225.079-.45.113-.675.169-.18-.079-.371-.203-.562-.259-.428-.123-.63-.303-.439-.764.068-.17.034-.36 0-.53-.034-.381.146-.573.518-.561.393 0 .776.067 1.147.033.19-.045.517-.236.54-.393.022-.192-.158-.45-.304-.63-.101-.113-.315-.135-.596-.27.652-.191 1.18-.349 1.822-.54-.72-.247-1.451.135-1.968-.495a6.04 6.04 0 0 0 .528-.618c-.27-.08-.472-.113-.697-.18-.034.225-.011.46-.101.528-.281.18-.608.304-.911.45-.057-.225-.203-.54-.113-.686.169-.202.495-.304.743-.45.056-.011.09-.056.134-.09-.056-.18-.09-.315-.134-.46.213-.113.427-.27.607-.27.247-.012.73.09.742.19.034.731.709.968 1.046 1.463.259.37.484.247.754.112.37-.169.753-.382 1.147-.574-.146-.607-.045-.742.618-.72-.09.507.18.687.653.675.674-.022 1.338-.01 2.035-.01.023-.676.304-.968.878-.867a15.654 15.654 0 0 0-1.013-1.53c-.225.113-.483.18-.82.327.258.213.404.315.55.438-.697 1.159-.877 1.271-1.822 1.226a21.508 21.508 0 0 0-.348-.843c-.113.022-.158.011-.191.022-.282.304-.653.439-.956.18-.225-.169-.394-.573-.349-.81.056-.236.394-.438.652-.596.506-.36 1.046-.663 1.564-1 .19-.136.36-.282.55-.45-.033-.057-.09-.102-.157-.17-.393-.46-.81-.899-1.248-1.315a21.027 21.027 0 0 0-12.585-4.409c-.124-.011-.248-.011-.371-.011-1.103 0-2.182.079-3.25.247-.057.012-.113.012-.18.023a2.147 2.147 0 0 0-.372.067 20.758 20.758 0 0 0-8.671 3.723c.034.011.079.022.112.056-.1.034-.19.045-.303.079-.203.157-.417.315-.619.484.742-.372 1.518-.248 2.328.056.405.157.821.281 1.249.416.236.079.517.079.742.18.18.079.337.225.393.517.012.057.158.079.248.124.438.157.888.315 1.327.472-.394.855-1 .102-1.54.248.28.28.505.517.719.742-.045.056-.079.124-.124.203-.585-.08-1.147-.147-1.71-.248l-.64-.101c-.349-.056-.709-.101-1.046-.169-.124-.022-.214-.124-.326-.191.1-.09.168-.202.27-.247.382-.147.776-.26 1.158-.394-.023-.09-.056-.169-.079-.281-.303.112-.618.19-.967.292.056-.236.101-.393.169-.63h-1.586c.146.259.225.405.371.664-.517.056-.956.124-1.485.202.574.214 1.069.416 1.564.608-.011.045-.034.112-.045.157-.45-.034-.9-.067-1.474-.101a10.02 10.02 0 0 1-.225-.293c-.157.09-.28.17-.427.237-.483.236-1 .438-1.462.73-.427.27-.427.574.034.788.708.304 1.462.607 2.227.742.64.101 1.057.338 1.282.945.022.079.27.135.393.124.08-.023.158-.225.147-.338-.034-.202-.113-.405-.147-.55.248-.113.507-.17.63-.327.068-.112-.1-.382-.213-.54-.26-.393.033-1.124.506-1.08.168.012.337.023.495.057.438.056.877.168 1.293.258.157.855.405.866 1.237.225.709.563 1.395 1.103 2.08 1.665l.507.405c-.09.191-.18.416-.281.585.36.247.674.46 1.012.686-.034.045-.056.1-.113.135h-1.608c.045-.08.079-.147.124-.214.169-.292.303-.551.506-.911-.124.056-.247.112-.36.169-.506.236-.911.427-1.305.596-.528-.563-.866-.54-1.53.213.304-.09.484-.18.664-.19.147 0 .416.09.439.168.101.573.529.529.945.529.123 0 .247.168.405.314-1.687.619-1.687.619-1.991.17-.517.134-1.203.067-.99 1.034-1.023-.371-1.023.72-1.53 1.012-.09.27-.224.54-.415.731-.248.248-.53.45-.81.63-.338.191-.371.394-.214.73.146.36.18.754.281 1.137-.078.022-.18.067-.258.101-.192-.27-.383-.562-.585-.843-.124-.147-.27-.304-.439-.394-.9-.472-1.8.304-2.7.079-.055-.012-.1.067-.145.09-.776.303-.686 1.023-.754 1.63-.067.608.315.968.776 1.249.304.18.99-.056 1.08-.383.157-.584.652-.427.933-.326.428.113.08.416 0 .664-.078.247-.045.528-.067.798.225.012.45.034.675.023.416-.056.663.191.607.596-.023.236-.112.484-.045.697.079.236.326.608.439.608.123-.023.236-.045.348-.068.338-.067.675-.112 1.012.101.057.034.237-.18.36-.258.327-.248.653-.473 1.091-.788v.754c.248-.169.596-.472.664-.416.731.607 1.597-.034 2.328.326 0 .124-.023.292-.023.405.293.157.563.247.732.438.27.27.494.417.888.372.214-.023.517.146.787.393.338.27.63.652.698.9.056.225.292.506.506.54 1.124.27 2.215.64 3.261 1.147.338.169.574.472.349.9-.214.393-.495.753-.72 1.147a3.342 3.342 0 0 0-.27.528 1.252 1.252 0 0 0-.09.338c-.067.675-.225 1.327-.663 1.822-.192.225-.596.236-.9.382-.292.124-.596.236-.866.428-.124.1-.247.326-.225.483.079.518-.304.754-.574 1.046-.067.056-.135.113-.202.158-.067.056-.135.112-.169.19-.28.63-.708 1.013-1.44.923.09.731-.18 1.102-.91 1.08-.416 0-.686.112-.72.528h-.664c.135.225.225.383.315.54a33.83 33.83 0 0 1-.877.956c.191.124.337.225.551.371-.292.248-.529.461-.765.653-.315.236-.36.472-.168.708a20.714 20.714 0 0 0 7.355 1.327c4.397 0 8.48-1.35 11.854-3.644a21.506 21.506 0 0 0 2.463-1.945c.023-.034.056-.057.079-.08.079-.067.157-.134.225-.213.427-.393.832-.82 1.215-1.27.022 0 .022-.012.022-.023.169-.203.349-.394.506-.607-.045-.068-.067-.135-.112-.203-.102-.191-.338-.382-.327-.551.068-.866-.45-1.53-.776-2.25-.27-.573-.292-1.147.248-1.653.079-.09.202-.27.157-.337-.337-.686-.19-1.597-.866-2.126-.63-.495-.438-1.057-.247-1.664.034-.124.056-.394-.023-.439-.123-.112-.393-.169-.517-.101-.382.191-.562.045-.798-.259-.135-.19-.552-.382-.72-.303-.72.337-1.451.45-2.227.393-.079-.011-.225.012-.281.068-.338.382-.608.146-.844-.101-.472-.495-.866-1.103-1.44-1.44-.517-.304-.775-.832-.618-1.136.382-.72.146-1.45.27-2.148.112-.664.495-1.35 1.237-1.687.225-.113.427-.405.484-.675.157-.686.686-1.046 1.248-1.158 1.204-.282 2.43-.45 3.644-.619.259-.045.607.011.787.169.124.101.034.472.034.832.54.236 1.181.551 1.867.776.191.067.461-.09.686-.18.27-.079.517-.315.742-.292.81.067 1.631.225 2.452.337a.9.9 0 0 0 .428-.011 21.61 21.61 0 0 0-.27-1.339zm-30.355 4.263a4.105 4.105 0 0 1-.563-.169c-.135-.033-.247-.078-.371-.1-.034-.012-.067-.012-.09-.035-.18-.045-.337-.1-.495-.146-.022-.011-.045-.011-.067-.022.022-.012.033-.023.056-.023.472-.281 1.26-.067 2.137.697-.203-.067-.416-.135-.607-.202zm2.091.765a18.854 18.854 0 0 1-.348-.034c-.056 0-.101-.011-.158-.011-.157-.011-.326-.034-.506-.056.214-.26.45-.383.675-.383.045 0 .112 0 .146.011.012 0 .034.012.045.012.011.022.034.033.045.033.034 0 .056.023.101.034.034.034.08.068.113.113.022.022.045.033.056.056v.022c.023.012.034.034.056.045.023.034.034.045.045.068.034.034.045.067.068.124-.113-.012-.236-.034-.338-.034zM27.243 12.51s-.022-.011-.022-.022a.27.27 0 0 1-.068-.09 2.051 2.051 0 0 0-.112-.315c.124-.045.247-.135.349-.135a34.9 34.9 0 0 1 1.54.034c.203.033.405.112.72.19-.843.698-1.608.71-2.407.338zm2.149-5.05c-.35.259-.731.495-1.08.765-.225.18-.394.349-.113.686.26.315-.202 1.046-.618 1.08-.158.022-.304.056-.518.101.08.248.135.45.214.72-.776.394-1.642.618-2.52.742-.27.034-.505.191-.753.27-.225.079-.438.18-.674.214-.518.056-1.069.011-1.26.697-.079.293-.36.517-.585.754-.079.09-.259.202-.337.157-.72-.225-1.519-.27-1.969-1-.146-.26-.303-.507-.45-.754a5.558 5.558 0 0 1-.404-.765c-.057-.113.27-.405.495-.709a8.844 8.844 0 0 0-.732.203c-.337-1.035-1.045-1.485-2.316-1.429h-.012c-.404.023-.81.102-1.225.147-.102 0-.225-.068-.327-.124-.247-.146-.506-.304-.72-.416.507-.225 1.339-.315 1.575-.743.349-.618.979-.517 1.395-.91.337-.315 1.113-.26 1.664-.214.056.011.102.011.146.011.855.09.878.112 1.226-.731.158.09.293.202.484.326.405-.72 1.102-.652 1.743-.652a71.345 71.345 0 0 1 1.552-.023l3.273-.033c.619 0 .742.483.855.922.202.73.483.843 1.102.371.427-.326.855-.382 1.417-.068a5.617 5.617 0 0 1-.528.405z" class="colorb5e5f4 svgShape"/><path fill="#82e0d8" d="M36.33 40.268c-.067.079-.145.146-.224.214-.023.022-.056.045-.079.079a21.506 21.506 0 0 1-2.463 1.945 20.9 20.9 0 0 1-2.07.102c-4.577 0-8.828-1.384-12.292-3.734-3.948-2.666-6.872-6.59-8.143-11.146a17.777 17.777 0 0 1-.64-3.644c-.012-.011-.012-.034-.012-.045a20.827 20.827 0 0 1-.056-1.45v-.124a18.998 18.998 0 0 1 1.71-7.772c.235-.54.494-1.057.787-1.563a6.45 6.45 0 0 1 .236-.405c.405-.675.843-1.327 1.327-1.957.427-.551.877-1.08 1.36-1.575a20.697 20.697 0 0 1 2.497-2.249c.585-.45 1.215-.866 1.856-1.26a20.769 20.769 0 0 1 3.25-.247c.124 0 .248 0 .372.011a4.041 4.041 0 0 0-.473.416 20.048 20.048 0 0 0-4.543 6.029 18.543 18.543 0 0 0-1.271 3.385c-.079.281-.158.562-.214.855-.056.247-.112.494-.146.742-.023.067-.034.146-.045.214a19.179 19.179 0 0 0 1.844 11.967 19.731 19.731 0 0 0 3.824 5.161c3.498 3.43 8.278 5.669 13.609 6.051z" class="color82c6e0 svgShape" opacity=".3"/><path fill="#ecf1f1" d="M35.39 23.053c-1.999 1.801-5.315 1.423-7.404-.879-2.074-2.286-2.15-5.632-.151-7.449s5.314-1.423 7.403.863c2.09 2.302 2.15 5.633.152 7.465z" class="colorecf0f1 svgShape" opacity=".4"/><path fill="#41e1d4" d="M38.085 41.607c-.1.112-.202.202-.303.303-.034.023-.057.045-.09.068a21.018 21.018 0 0 1-14.317 5.59c-3.06 0-5.961-.642-8.593-1.823-.023-.01-.056-.022-.079-.033-.944-.416-1.833-.923-2.699-1.474l-.337-.202c-.034-.023-.08-.045-.113-.079l-.169-.101a.155.155 0 0 1-.045-.034c-5.5-3.79-9.11-10.144-9.11-17.32 0-10.297 7.534-19.238 17.928-20.84-5.893 3.554-9.807 9.807-9.807 16.926 0 11.056 9.458 20.02 21.144 20.02 2.305 0 4.52-.349 6.59-1.001z" class="color3fb4e0 svgShape" opacity=".3"/><path fill="#48efe1" d="m47.097 20.512 2.284 1.327c-.866-.504-2.065-.435-3.384.327l-2.284-1.328c1.32-.761 2.518-.83 3.384-.326z" class="colorefc348 svgShape"/><path fill="#40ddd0" d="m32.413 30.008-2.284-1.327 13.584-7.843 2.284 1.328z" class="colorddb040 svgShape"/><path fill="#3acec2" d="m29.075 41.26-2.284-1.328c-.855-.496-1.386-1.552-1.39-3.054-.004-1.501.517-3.175 1.374-4.659.856-1.483 2.047-2.784 3.354-3.538l2.284 1.327c-1.307.754-2.498 2.055-3.354 3.538-.857 1.484-1.378 3.158-1.374 4.66.004 1.501.535 2.557 1.39 3.054z" class="colorcea03a svgShape"/><path fill="#51fff1" d="M45.997 22.166c2.62-1.513 4.764-.291 4.772 2.711.009 3.02-2.121 6.701-4.742 8.214l-13.583 7.842c-2.613 1.509-4.75.291-4.759-2.728-.004-1.501.517-3.175 1.374-4.659.856-1.483 2.047-2.784 3.354-3.538l13.584-7.842z" class="colorffd651 svgShape"/><path fill="#404343" d="M36.483 31.598 35.426 35.9l-.631.364-.798-2.267-.8 3.19-.636.367-1.078-3.069.619-.358.804 2.346.823-3.285.555-.32.815 2.352.812-3.292zM41.724 28.572l-1.051 4.298-.631.365-.803-2.264-.8 3.189-.637.368-1.072-3.073.619-.357.804 2.345.824-3.285.548-.316.822 2.348.811-3.291zM46.972 25.542l-1.051 4.299-.637.367-.798-2.267-.8 3.19-.637.367-1.077-3.069.619-.357.81 2.341.823-3.284.548-.317.816 2.352.818-3.295z" class="color434240 svgShape"/><path fill="#fff" d="M27.87 26.402a.102.102 0 0 1 0 .196 1.989 1.989 0 0 0-1.272 1.272.102.102 0 0 1-.196 0 1.991 1.991 0 0 0-1.272-1.272.102.102 0 0 1 0-.196 1.989 1.989 0 0 0 1.272-1.272.102.102 0 0 1 .196 0 1.989 1.989 0 0 0 1.272 1.272z" class="colorffffff svgShape"/></svg>