<?xml version="1.0" encoding="UTF-8"?><svg id="Layer_2" xmlns="http://www.w3.org/2000/svg" xmlns:xlink="http://www.w3.org/1999/xlink" viewBox="0 0 73.08 73.07"><defs><style>.cls-1{fill:url(#linear-gradient);}.cls-2{fill:url(#linear-gradient-8);}.cls-3{fill:url(#linear-gradient-9);}.cls-4{fill:url(#linear-gradient-3);}.cls-5{fill:url(#linear-gradient-4);}.cls-6{fill:url(#linear-gradient-2);}.cls-7{fill:url(#linear-gradient-6);}.cls-8{fill:url(#linear-gradient-7);}.cls-9{fill:url(#linear-gradient-5);}.cls-10{fill:url(#linear-gradient-10);}</style><linearGradient id="linear-gradient" x1="62.7" y1="1.12" x2="15.73" y2="64.7" gradientTransform="matrix(1, 0, 0, 1, 0, 0)" gradientUnits="userSpaceOnUse"><stop offset="0" stop-color="#eac954"/><stop offset=".02" stop-color="#dfbd4a"/><stop offset=".06" stop-color="#c29e31"/><stop offset=".1" stop-color="#946c09"/><stop offset=".12" stop-color="#896000"/><stop offset=".19" stop-color="#9f7813"/><stop offset=".34" stop-color="#d7b544"/><stop offset=".39" stop-color="#eac954"/><stop offset=".39" stop-color="#eaca56"/><stop offset=".42" stop-color="#f2da6b"/><stop offset=".46" stop-color="#f7e67c"/><stop offset=".5" stop-color="#fcef88"/><stop offset=".57" stop-color="#fef48f"/><stop offset=".75" stop-color="#fff691"/><stop offset=".82" stop-color="#faed85"/><stop offset=".94" stop-color="#f0d666"/><stop offset="1" stop-color="#eac954"/></linearGradient><linearGradient id="linear-gradient-2" x1="62.7" y1="1.12" x2="15.73" y2="64.7" xlink:href="#linear-gradient"/><linearGradient id="linear-gradient-3" x1="54.07" y1="-5.25" x2="7.1" y2="58.33" xlink:href="#linear-gradient"/><linearGradient id="linear-gradient-4" x1="48.8" y1="-9.15" x2="1.83" y2="54.44" xlink:href="#linear-gradient"/><linearGradient id="linear-gradient-5" x1="56.73" y1="-3.29" x2="9.76" y2="60.3" xlink:href="#linear-gradient"/><linearGradient id="linear-gradient-6" x1="71.32" y1="7.49" x2="24.35" y2="71.07" xlink:href="#linear-gradient"/><linearGradient id="linear-gradient-7" x1="76.59" y1="11.38" x2="29.62" y2="74.97" xlink:href="#linear-gradient"/><linearGradient id="linear-gradient-8" x1="68.66" y1="5.52" x2="21.69" y2="69.11" xlink:href="#linear-gradient"/><linearGradient id="linear-gradient-9" x1="30.34" y1="28.26" x2="46.16" y2="49.35" xlink:href="#linear-gradient"/><linearGradient id="linear-gradient-10" x1="9.79" y1="9.77" x2="63.91" y2="63.9" xlink:href="#linear-gradient"/></defs><g id="Layer_1-2"><g><path class="cls-1" d="M36.54,4.43C18.81,4.43,4.44,18.8,4.44,36.53s14.37,32.1,32.1,32.1,32.1-14.37,32.1-32.1S54.27,4.43,36.54,4.43Zm0,58.64c-14.66,0-26.54-11.88-26.54-26.54S21.88,9.99,36.54,9.99s26.54,11.88,26.54,26.54-11.88,26.54-26.54,26.54Z"/><path class="cls-6" d="M36.54,73.07c-.21,0-.43,0-.64,0l.08-4.78c.53,0,1.07,0,1.6-.01l.15,4.77c-.39,.01-.8,.02-1.19,.02Zm-3.48-.16c-.61-.06-1.22-.13-1.82-.22l.69-4.73c.52,.08,1.05,.14,1.58,.19l-.45,4.76Zm7.52-.06l-.52-4.75c.53-.06,1.06-.13,1.58-.21l.76,4.72c-.6,.1-1.21,.18-1.82,.25Zm-12.14-.68c-.59-.13-1.19-.29-1.78-.45l1.29-4.6c.51,.14,1.03,.27,1.54,.39l-1.06,4.66Zm16.75-.13l-1.13-4.64c.51-.12,1.03-.26,1.54-.41l1.36,4.58c-.58,.17-1.18,.33-1.77,.48Zm-21.24-1.2c-.57-.21-1.15-.44-1.71-.68l1.87-4.39c.49,.21,.99,.41,1.48,.59l-1.65,4.48Zm25.71-.19l-1.71-4.46c.49-.19,.98-.39,1.47-.61l1.94,4.37c-.56,.25-1.13,.48-1.69,.7Zm-30-1.7c-.54-.28-1.08-.58-1.61-.89l2.42-4.12c.46,.27,.93,.53,1.39,.77l-2.21,4.23Zm34.25-.25l-2.27-4.2c.46-.25,.93-.52,1.38-.79l2.48,4.08c-.52,.32-1.05,.62-1.59,.91Zm-38.26-2.18c-.5-.35-1-.71-1.48-1.09l2.93-3.78c.42,.32,.85,.64,1.28,.95l-2.73,3.92Zm42.22-.31l-2.79-3.88c.43-.31,.86-.63,1.27-.96l2.98,3.73c-.47,.38-.97,.75-1.46,1.11Zm-45.88-2.61c-.45-.41-.9-.83-1.33-1.27l3.38-3.37c.37,.37,.76,.75,1.15,1.1l-3.21,3.54Zm49.5-.36l-3.26-3.49c.39-.36,.77-.74,1.14-1.12l3.43,3.32c-.42,.44-.86,.87-1.31,1.28Zm-52.75-3c-.39-.46-.78-.94-1.15-1.42l3.78-2.92c.32,.42,.66,.84,1,1.24l-3.63,3.1Zm55.96-.41l-3.68-3.05c.34-.41,.67-.83,.99-1.25l3.83,2.86c-.36,.49-.75,.97-1.13,1.44Zm-58.77-3.34c-.33-.51-.66-1.03-.96-1.56l4.12-2.41c.27,.46,.55,.91,.84,1.35l-4,2.61Zm61.52-.45l-4.04-2.55c.28-.45,.56-.91,.82-1.37l4.16,2.35c-.3,.53-.62,1.06-.94,1.58ZM3.62,52.42c-.26-.55-.52-1.11-.75-1.67l4.4-1.86c.21,.49,.43,.97,.66,1.45l-4.3,2.08Zm66.07-.49l-4.33-2.02c.22-.48,.44-.97,.64-1.46l4.43,1.79c-.23,.56-.48,1.13-.73,1.68ZM1.86,48.08c-.19-.58-.37-1.17-.54-1.75l4.6-1.28c.14,.51,.3,1.02,.46,1.52l-4.53,1.51Zm69.53-.53l-4.55-1.44c.16-.5,.31-1.02,.44-1.53l4.62,1.21c-.15,.59-.33,1.18-.51,1.76ZM.67,43.55c-.12-.6-.22-1.21-.31-1.81l4.73-.68c.07,.52,.16,1.05,.27,1.57l-4.69,.91Zm71.84-.55l-4.7-.84c.09-.52,.17-1.05,.24-1.57l4.74,.6c-.08,.6-.17,1.21-.28,1.81ZM.07,38.91c-.04-.61-.06-1.22-.07-1.83l4.78-.07c0,.53,.03,1.07,.06,1.59l-4.77,.31Zm72.97-.55l-4.77-.24c.03-.53,.04-1.06,.04-1.59v-.07l4.78-.02v.09c0,.61-.01,1.22-.04,1.83ZM4.83,34.53l-4.77-.3c.04-.61,.09-1.22,.16-1.82l4.75,.53c-.06,.53-.11,1.06-.14,1.59Zm63.37-.55c-.04-.53-.1-1.06-.17-1.58l4.74-.62c.08,.6,.14,1.22,.19,1.82l-4.76,.38ZM5.34,30.49l-4.69-.9c.11-.6,.25-1.2,.39-1.79l4.64,1.14c-.13,.51-.24,1.04-.34,1.56Zm62.28-.54c-.11-.52-.23-1.04-.37-1.55l4.62-1.22c.16,.59,.3,1.19,.42,1.78l-4.67,.98ZM6.37,26.56l-4.54-1.5c.19-.58,.4-1.16,.62-1.73l4.45,1.73c-.19,.49-.37,1-.54,1.5Zm60.16-.53c-.17-.5-.36-1-.56-1.49l4.42-1.8c.23,.56,.45,1.14,.65,1.72l-4.51,1.58ZM7.89,22.78l-4.31-2.07c.26-.55,.55-1.1,.84-1.63l4.19,2.29c-.25,.46-.5,.94-.73,1.42Zm57.05-.49c-.24-.47-.49-.94-.75-1.4l4.16-2.36c.3,.53,.59,1.07,.86,1.61l-4.27,2.14Zm-55.05-3.06l-4-2.6c.33-.51,.68-1.02,1.04-1.51l3.87,2.8c-.31,.43-.61,.87-.9,1.31Zm53-.45c-.3-.44-.61-.87-.92-1.3l3.82-2.87c.36,.49,.72,.99,1.06,1.49l-3.96,2.67ZM12.33,15.96l-3.64-3.09c.39-.46,.8-.92,1.22-1.37l3.48,3.27c-.36,.39-.72,.79-1.06,1.19Zm48.08-.41c-.35-.4-.71-.79-1.08-1.17l3.42-3.33c.42,.44,.84,.89,1.24,1.35l-3.59,3.15ZM15.15,13.04l-3.22-3.53c.45-.41,.92-.81,1.38-1.2l3.04,3.69c-.41,.34-.81,.69-1.2,1.04Zm42.37-.36c-.4-.35-.81-.69-1.22-1.02l2.97-3.74c.48,.38,.95,.77,1.41,1.18l-3.16,3.59Zm-39.19-2.19l-2.74-3.91c.5-.35,1.01-.69,1.53-1.01l2.54,4.04c-.45,.28-.89,.58-1.33,.88Zm35.97-.31c-.44-.3-.89-.59-1.34-.86l2.47-4.09c.52,.32,1.04,.65,1.55,.99l-2.67,3.96Zm-32.5-1.81l-2.22-4.23c.54-.28,1.09-.56,1.64-.81l2,4.34c-.48,.22-.96,.46-1.43,.7Zm28.98-.25c-.47-.24-.96-.47-1.44-.68l1.93-4.37c.56,.25,1.12,.51,1.66,.78l-2.15,4.27Zm-25.27-1.4l-1.66-4.48c.57-.21,1.15-.41,1.74-.59l1.43,4.56c-.51,.16-1.01,.33-1.51,.51Zm21.52-.19c-.5-.17-1.01-.34-1.52-.49l1.35-4.58c.58,.17,1.17,.36,1.75,.56l-1.58,4.51Zm-17.62-.97l-1.07-4.66c.59-.14,1.2-.26,1.8-.36l.83,4.7c-.52,.09-1.05,.2-1.56,.32Zm13.71-.12c-.52-.11-1.04-.21-1.57-.29l.75-4.72c.6,.1,1.21,.21,1.8,.33l-.99,4.67Zm-9.69-.53l-.46-4.75c.6-.06,1.22-.1,1.83-.13l.22,4.77c-.53,.02-1.06,.06-1.59,.11Zm5.66-.05c-.53-.04-1.06-.07-1.59-.09l.14-4.77c.61,.02,1.22,.05,1.83,.1l-.38,4.76Z"/><polygon class="cls-4" points="38.45 9.74 37.38 28.66 35.7 28.66 34.63 9.74 38.45 9.74"/><polygon class="cls-5" points="14.3 21.48 30.14 31.87 29.31 33.32 12.39 24.79 14.3 21.48"/><polygon class="cls-9" points="12.39 48.26 29.31 39.74 30.14 41.18 14.3 51.57 12.39 48.26"/><polygon class="cls-7" points="34.63 63.31 35.7 44.39 37.38 44.39 38.45 63.31 34.63 63.31"/><polygon class="cls-8" points="58.78 51.57 42.93 41.18 43.77 39.74 60.69 48.26 58.78 51.57"/><polygon class="cls-2" points="60.69 24.79 43.77 33.32 42.93 31.87 58.78 21.48 60.69 24.79"/><path class="cls-3" d="M46.49,36.53c0,5.5-4.46,9.95-9.95,9.95s-9.95-4.46-9.95-9.95,4.46-9.95,9.95-9.95,9.95,4.46,9.95,9.95Z"/><path class="cls-10" d="M36.54,4.43C18.81,4.43,4.44,18.8,4.44,36.53s14.37,32.1,32.1,32.1,32.1-14.37,32.1-32.1S54.27,4.43,36.54,4.43Zm0,62.38c-16.72,0-30.28-13.56-30.28-30.28S19.81,6.24,36.54,6.24s30.28,13.56,30.28,30.28-13.56,30.28-30.28,30.28Z"/></g></g></svg>