<?xml version="1.0" encoding="UTF-8"?><svg id="Layer_2" xmlns="http://www.w3.org/2000/svg" xmlns:xlink="http://www.w3.org/1999/xlink" viewBox="0 0 1454.68 919.08"><defs><style>.cls-1{clip-path:url(#clippath);}.cls-2{mask:url(#mask);}.cls-3{filter:url(#luminosity-noclip);}.cls-4{clip-rule:evenodd;fill:none;}.cls-4,.cls-5,.cls-6,.cls-7,.cls-8{stroke-width:0px;}.cls-5{fill:url(#_ÂÁ_Ï_ÌÌ_È_ËÂÌÚ_29);}.cls-5,.cls-7{fill-rule:evenodd;}.cls-6{opacity:.5;}.cls-6,.cls-8{fill:#fff;}.cls-7{fill:url(#_ÂÁ_Ï_ÌÌ_È_ËÂÌÚ_6);mix-blend-mode:multiply;}.cls-9{opacity:.3;}.cls-10{mask:url(#mask-2);}.cls-11{mask:url(#mask-1);}</style><clipPath id="clippath"><path class="cls-4" d="m59.24,919.08h653.03s229.57-229.57,229.57-229.57h512.84s0-620.45,0-620.45L1385.61,0h-866.45s-131.96,131.96-131.96,131.96H59.24C36.1,155.09,23.13,168.06,0,191.2v668.64s59.24,59.24,59.24,59.24Z"/></clipPath><filter id="luminosity-noclip" x="-181.5" y="-1085.1" width="2177.03" height="2177.04" color-interpolation-filters="sRGB" filterUnits="userSpaceOnUse"><feFlood flood-color="#fff" result="bg"/><feBlend in="SourceGraphic" in2="bg"/></filter><filter id="luminosity-noclip-2" x="-181.5" y="-8531.91" width="2177.03" height="32766" color-interpolation-filters="sRGB" filterUnits="userSpaceOnUse"><feFlood flood-color="#fff" result="bg"/><feBlend in="SourceGraphic" in2="bg"/></filter><mask id="mask-2" x="-181.5" y="-8531.91" width="2177.03" height="32766" maskUnits="userSpaceOnUse"/><radialGradient id="_ÂÁ_Ï_ÌÌ_È_ËÂÌÚ_6" cx="-10580.53" cy="-53659.29" fx="-10580.53" fy="-53659.29" r="924.47" gradientTransform="translate(64074.74 -12457.28) rotate(-90) scale(1.18)" gradientUnits="userSpaceOnUse"><stop offset=".05" stop-color="#fff"/><stop offset=".08" stop-color="#ededed"/><stop offset=".19" stop-color="#b6b6b6"/><stop offset=".29" stop-color="#858585"/><stop offset=".4" stop-color="#5c5c5c"/><stop offset=".52" stop-color="#3b3b3b"/><stop offset=".63" stop-color="#212121"/><stop offset=".75" stop-color="#0e0e0e"/><stop offset=".87" stop-color="#030303"/><stop offset="1" stop-color="#000"/></radialGradient><mask id="mask-1" x="-181.5" y="-1085.1" width="2177.03" height="2177.04" maskUnits="userSpaceOnUse"><g class="cls-3"><g class="cls-10"><path class="cls-7" d="m907.01-1085.1c601.17,0,1088.52,487.35,1088.52,1088.52,0,601.17-487.34,1088.52-1088.52,1088.52C305.84,1091.93-181.5,604.59-181.5,3.41c0-601.17,487.34-1088.52,1088.51-1088.52Z"/></g></g></mask><radialGradient id="_ÂÁ_Ï_ÌÌ_È_ËÂÌÚ_29" cx="-10580.53" cy="-53659.29" fx="-10580.53" fy="-53659.29" r="881.83" gradientTransform="translate(64074.74 -12457.28) rotate(-90) scale(1.18)" gradientUnits="userSpaceOnUse"><stop offset=".05" stop-color="gray"/><stop offset=".33" stop-color="#7d7d7d"/><stop offset=".49" stop-color="#757575"/><stop offset=".62" stop-color="#676767"/><stop offset=".73" stop-color="#535353"/><stop offset=".84" stop-color="#393939"/><stop offset=".94" stop-color="#191919"/><stop offset="1" stop-color="#000"/></radialGradient><mask id="mask" x="-194.14" y="-1100.9" width="2208.63" height="2208.63" maskUnits="userSpaceOnUse"><g class="cls-11"><path class="cls-5" d="m907.01-1085.1c601.17,0,1088.52,487.35,1088.52,1088.52,0,601.17-487.34,1088.52-1088.52,1088.52C305.84,1091.93-181.5,604.59-181.5,3.41c0-601.17,487.34-1088.52,1088.51-1088.52Z"/></g></mask></defs><g id="_ÎÓÈ_1"><g class="cls-1"><g class="cls-9"><path class="cls-8" d="m7.83,95.6v-2.09h2.09v2.09h-2.09Zm12.51,0v-2.09h2.09v2.09h-2.09Zm12.51,0v-2.09h2.09v2.09h-2.09Zm12.51,0v-2.09h2.09v2.09h-2.09Zm12.51,0v-2.09h2.09v2.09h-2.09Zm12.51,0v-2.09h2.09v2.09h-2.09Zm12.51,0v-2.09h2.09v2.09h-2.09Zm12.51,0v-2.09h2.09v2.09h-2.09Zm12.51,0v-2.09h2.09v2.09h-2.09Zm12.51,0v-2.09h2.09v2.09h-2.09Zm12.51,0v-2.09h2.09v2.09h-2.09Zm12.51,0v-2.09h2.09v2.09h-2.09Zm12.51,0v-2.09h2.09v2.09h-2.09Zm12.51,0v-2.09h2.09v2.09h-2.09Zm12.51,0v-2.09h2.09v2.09h-2.09Zm12.51,0v-2.09h2.09v2.09h-2.09Zm12.51,0v-2.09h2.09v2.09h-2.09Zm12.51,0v-2.09h2.09v2.09h-2.09Zm12.51,0v-2.09h2.09v2.09h-2.09Zm12.51,0v-2.09h2.09v2.09h-2.09Zm12.51,0v-2.09h2.09v2.09h-2.09Zm12.51,0v-2.09h2.09v2.09h-2.09Zm12.51,0v-2.09h2.09v2.09h-2.09Zm12.51,0v-2.09h2.09v2.09h-2.09Zm12.51,0v-2.09h2.09v2.09h-2.09Zm12.51,0v-2.09h2.09v2.09h-2.09Zm12.51,0v-2.09h2.09v2.09h-2.09Zm12.51,0v-2.09h2.09v2.09h-2.09Zm12.51,0v-2.09h2.09v2.09h-2.09Zm12.51,0v-2.09h2.09v2.09h-2.09Zm12.51,0v-2.09h2.09v2.09h-2.09Zm12.51,0v-2.09h2.09v2.09h-2.09Zm12.51,0v-2.09h2.09v2.09h-2.09Zm12.51,0v-2.09h2.09v2.09h-2.09Zm12.51,0v-2.09h2.09v2.09h-2.09Zm12.51,0v-2.09h2.09v2.09h-2.09Zm12.51,0v-2.09h2.09v2.09h-2.09Zm12.51,0v-2.09h2.09v2.09h-2.09Zm12.51,0v-2.09h2.09v2.09h-2.09Zm12.51,0v-2.09h2.09v2.09h-2.09Zm12.51,0v-2.09h2.09v2.09h-2.09Zm12.51,0v-2.09h2.09v2.09h-2.09Zm12.51,0v-2.09h2.09v2.09h-2.09Zm12.51,0v-2.09h2.09v2.09h-2.09Zm12.51,0v-2.09h2.09v2.09h-2.09Zm12.51,0v-2.09h2.09v2.09h-2.09Zm12.51,0v-2.09h2.09v2.09h-2.09Zm12.51,0v-2.09h2.09v2.09h-2.09Zm12.51,0v-2.09h2.09v2.09h-2.09Zm12.51,0v-2.09h2.09v2.09h-2.09Zm12.51,0v-2.09h2.09v2.09h-2.09Zm12.51,0v-2.09h2.09v2.09h-2.09Zm12.51,0v-2.09h2.09v2.09h-2.09Zm12.51,0v-2.09h2.09v2.09h-2.09Zm12.51,0v-2.09h2.09v2.09h-2.09Zm12.51,0v-2.09h2.09v2.09h-2.09Zm12.51,0v-2.09h2.09v2.09h-2.09Zm12.51,0v-2.09h2.09v2.09h-2.09Zm12.51,0v-2.09h2.09v2.09h-2.09Zm12.51,0v-2.09h2.09v2.09h-2.09Zm12.51,0v-2.09h2.09v2.09h-2.09Zm12.51,0v-2.09h2.09v2.09h-2.09Zm12.51,0v-2.09h2.09v2.09h-2.09Zm12.51,0v-2.09h2.09v2.09h-2.09Zm12.51,0v-2.09h2.09v2.09h-2.09Zm12.51,0v-2.09h2.09v2.09h-2.09Zm12.51,0v-2.09h2.09v2.09h-2.09Zm12.51,0v-2.09h2.09v2.09h-2.09Zm12.51,0v-2.09h2.09v2.09h-2.09Zm12.51,0v-2.09h2.09v2.09h-2.09Zm12.51,0v-2.09h2.09v2.09h-2.09Zm12.51,0v-2.09h2.09v2.09h-2.09Zm12.51,0v-2.09h2.09v2.09h-2.09Zm12.51,0v-2.09h2.09v2.09h-2.09Zm12.51,0v-2.09h2.09v2.09h-2.09Zm12.51,0v-2.09h2.09v2.09h-2.09Zm12.51,0v-2.09h2.09v2.09h-2.09Zm12.51,0v-2.09h2.09v2.09h-2.09Zm12.51,0v-2.09h2.09v2.09h-2.09Zm12.51,0v-2.09h2.09v2.09h-2.09Zm12.51,0v-2.09h2.09v2.09h-2.09Zm12.51,0v-2.09h2.09v2.09h-2.09Zm12.51,0v-2.09h2.09v2.09h-2.09Zm12.51,0v-2.09h2.09v2.09h-2.09Zm12.51,0v-2.09h2.09v2.09h-2.09Zm12.51,0v-2.09h2.09v2.09h-2.09Zm12.51,0v-2.09h2.09v2.09h-2.09Zm12.51,0v-2.09h2.09v2.09h-2.09Zm12.51,0v-2.09h2.09v2.09h-2.09Zm12.51,0v-2.09h2.09v2.09h-2.09Zm12.51,0v-2.09h2.09v2.09h-2.09Zm12.51,0v-2.09h2.09v2.09h-2.09Zm12.51,0v-2.09h2.09v2.09h-2.09Zm12.51,0v-2.09h2.09v2.09h-2.09Zm12.51,0v-2.09h2.09v2.09h-2.09Zm12.51,0v-2.09h2.09v2.09h-2.09Zm12.51,0v-2.09h2.09v2.09h-2.09Zm12.51,0v-2.09h2.09v2.09h-2.09Zm12.51,0v-2.09h2.09v2.09h-2.09Zm12.51,0v-2.09h2.09v2.09h-2.09Zm12.51,0v-2.09h2.09v2.09h-2.09Zm12.51,0v-2.09h2.09v2.09h-2.09Zm12.51,0v-2.09h2.09v2.09h-2.09Zm12.51,0v-2.09h2.09v2.09h-2.09Zm12.51,0v-2.09h2.09v2.09h-2.09Zm12.51,0v-2.09h2.09v2.09h-2.09Zm12.51,0v-2.09h2.09v2.09h-2.09Zm12.51,0v-2.09h2.09v2.09h-2.09Zm12.51,0v-2.09h2.09v2.09h-2.09Zm12.51,0v-2.09h2.09v2.09h-2.09Zm12.51,0v-2.09h2.09v2.09h-2.09Zm12.51,0v-2.09h2.09v2.09h-2.09Zm12.51,0v-2.09h2.09v2.09h-2.09Zm12.51,0v-2.09h2.09v2.09h-2.09Zm12.51,0v-2.09h2.09v2.09h-2.09Zm12.51,0v-2.09h2.09v2.09h-2.09Zm12.51,0v-2.09h2.09v2.09h-2.09Zm12.51,0v-2.09h2.09v2.09h-2.09Zm12.51,0v-2.09h2.09v2.09h-2.09Zm12.51,0v-2.09h2.09v2.09h-2.09Zm12.51,0v-2.09h2.09v2.09h-2.09Zm12.51,0v-2.09h2.09v2.09h-2.09Zm12.51,0v-2.09h2.09v2.09h-2.09Zm12.51,0v-2.09h2.09v2.09h-2.09Zm12.51,0v-2.09h2.09v2.09h-2.09Zm12.51,0v-2.09h2.09v2.09h-2.09Zm12.51,0v-2.09h2.09v2.09h-2.09Zm12.51,0v-2.09h2.09v2.09h-2.09Zm12.51,0v-2.09h2.09v2.09h-2.09Zm12.51,0v-2.09h2.09v2.09h-2.09Zm12.51,0v-2.09h2.09v2.09h-2.09Zm12.51,0v-2.09h2.09v2.09h-2.09Z"/><path class="cls-8" d="m7.83,193.49v-2.09h2.09v2.09h-2.09Zm12.51,0v-2.09h2.09v2.09h-2.09Zm12.51,0v-2.09h2.09v2.09h-2.09Zm12.51,0v-2.09h2.09v2.09h-2.09Zm12.51,0v-2.09h2.09v2.09h-2.09Zm12.51,0v-2.09h2.09v2.09h-2.09Zm12.51,0v-2.09h2.09v2.09h-2.09Zm12.51,0v-2.09h2.09v2.09h-2.09Zm12.51,0v-2.09h2.09v2.09h-2.09Zm12.51,0v-2.09h2.09v2.09h-2.09Zm12.51,0v-2.09h2.09v2.09h-2.09Zm12.51,0v-2.09h2.09v2.09h-2.09Zm12.51,0v-2.09h2.09v2.09h-2.09Zm12.51,0v-2.09h2.09v2.09h-2.09Zm12.51,0v-2.09h2.09v2.09h-2.09Zm12.51,0v-2.09h2.09v2.09h-2.09Zm12.51,0v-2.09h2.09v2.09h-2.09Zm12.51,0v-2.09h2.09v2.09h-2.09Zm12.51,0v-2.09h2.09v2.09h-2.09Zm12.51,0v-2.09h2.09v2.09h-2.09Zm12.51,0v-2.09h2.09v2.09h-2.09Zm12.51,0v-2.09h2.09v2.09h-2.09Zm12.51,0v-2.09h2.09v2.09h-2.09Zm12.51,0v-2.09h2.09v2.09h-2.09Zm12.51,0v-2.09h2.09v2.09h-2.09Zm12.51,0v-2.09h2.09v2.09h-2.09Zm12.51,0v-2.09h2.09v2.09h-2.09Zm12.51,0v-2.09h2.09v2.09h-2.09Zm12.51,0v-2.09h2.09v2.09h-2.09Zm12.51,0v-2.09h2.09v2.09h-2.09Zm12.51,0v-2.09h2.09v2.09h-2.09Zm12.51,0v-2.09h2.09v2.09h-2.09Zm12.51,0v-2.09h2.09v2.09h-2.09Zm12.51,0v-2.09h2.09v2.09h-2.09Zm12.51,0v-2.09h2.09v2.09h-2.09Zm12.51,0v-2.09h2.09v2.09h-2.09Zm12.51,0v-2.09h2.09v2.09h-2.09Zm12.51,0v-2.09h2.09v2.09h-2.09Zm12.51,0v-2.09h2.09v2.09h-2.09Zm12.51,0v-2.09h2.09v2.09h-2.09Zm12.51,0v-2.09h2.09v2.09h-2.09Zm12.51,0v-2.09h2.09v2.09h-2.09Zm12.51,0v-2.09h2.09v2.09h-2.09Zm12.51,0v-2.09h2.09v2.09h-2.09Zm12.51,0v-2.09h2.09v2.09h-2.09Zm12.51,0v-2.09h2.09v2.09h-2.09Zm12.51,0v-2.09h2.09v2.09h-2.09Zm12.51,0v-2.09h2.09v2.09h-2.09Zm12.51,0v-2.09h2.09v2.09h-2.09Zm12.51,0v-2.09h2.09v2.09h-2.09Zm12.51,0v-2.09h2.09v2.09h-2.09Zm12.51,0v-2.09h2.09v2.09h-2.09Zm12.51,0v-2.09h2.09v2.09h-2.09Zm12.51,0v-2.09h2.09v2.09h-2.09Zm12.51,0v-2.09h2.09v2.09h-2.09Zm12.51,0v-2.09h2.09v2.09h-2.09Zm12.51,0v-2.09h2.09v2.09h-2.09Zm12.51,0v-2.09h2.09v2.09h-2.09Zm12.51,0v-2.09h2.09v2.09h-2.09Zm12.51,0v-2.09h2.09v2.09h-2.09Zm12.51,0v-2.09h2.09v2.09h-2.09Zm12.51,0v-2.09h2.09v2.09h-2.09Zm12.51,0v-2.09h2.09v2.09h-2.09Zm12.51,0v-2.09h2.09v2.09h-2.09Zm12.51,0v-2.09h2.09v2.09h-2.09Zm12.51,0v-2.09h2.09v2.09h-2.09Zm12.51,0v-2.09h2.09v2.09h-2.09Zm12.51,0v-2.09h2.09v2.09h-2.09Zm12.51,0v-2.09h2.09v2.09h-2.09Zm12.51,0v-2.09h2.09v2.09h-2.09Zm12.51,0v-2.09h2.09v2.09h-2.09Zm12.51,0v-2.09h2.09v2.09h-2.09Zm12.51,0v-2.09h2.09v2.09h-2.09Zm12.51,0v-2.09h2.09v2.09h-2.09Zm12.51,0v-2.09h2.09v2.09h-2.09Zm12.51,0v-2.09h2.09v2.09h-2.09Zm12.51,0v-2.09h2.09v2.09h-2.09Zm12.51,0v-2.09h2.09v2.09h-2.09Zm12.51,0v-2.09h2.09v2.09h-2.09Zm12.51,0v-2.09h2.09v2.09h-2.09Zm12.51,0v-2.09h2.09v2.09h-2.09Zm12.51,0v-2.09h2.09v2.09h-2.09Zm12.51,0v-2.09h2.09v2.09h-2.09Zm12.51,0v-2.09h2.09v2.09h-2.09Zm12.51,0v-2.09h2.09v2.09h-2.09Zm12.51,0v-2.09h2.09v2.09h-2.09Zm12.51,0v-2.09h2.09v2.09h-2.09Zm12.51,0v-2.09h2.09v2.09h-2.09Zm12.51,0v-2.09h2.09v2.09h-2.09Zm12.51,0v-2.09h2.09v2.09h-2.09Zm12.51,0v-2.09h2.09v2.09h-2.09Zm12.51,0v-2.09h2.09v2.09h-2.09Zm12.51,0v-2.09h2.09v2.09h-2.09Zm12.51,0v-2.09h2.09v2.09h-2.09Zm12.51,0v-2.09h2.09v2.09h-2.09Zm12.51,0v-2.09h2.09v2.09h-2.09Zm12.51,0v-2.09h2.09v2.09h-2.09Zm12.51,0v-2.09h2.09v2.09h-2.09Zm12.51,0v-2.09h2.09v2.09h-2.09Zm12.51,0v-2.09h2.09v2.09h-2.09Zm12.51,0v-2.09h2.09v2.09h-2.09Zm12.51,0v-2.09h2.09v2.09h-2.09Zm12.51,0v-2.09h2.09v2.09h-2.09Zm12.51,0v-2.09h2.09v2.09h-2.09Zm12.51,0v-2.09h2.09v2.09h-2.09Zm12.51,0v-2.09h2.09v2.09h-2.09Zm12.51,0v-2.09h2.09v2.09h-2.09Zm12.51,0v-2.09h2.09v2.09h-2.09Zm12.51,0v-2.09h2.09v2.09h-2.09Zm12.51,0v-2.09h2.09v2.09h-2.09Zm12.51,0v-2.09h2.09v2.09h-2.09Zm12.51,0v-2.09h2.09v2.09h-2.09Zm12.51,0v-2.09h2.09v2.09h-2.09Zm12.51,0v-2.09h2.09v2.09h-2.09Zm12.51,0v-2.09h2.09v2.09h-2.09Zm12.51,0v-2.09h2.09v2.09h-2.09Zm12.51,0v-2.09h2.09v2.09h-2.09Zm12.51,0v-2.09h2.09v2.09h-2.09Zm12.51,0v-2.09h2.09v2.09h-2.09Zm12.51,0v-2.09h2.09v2.09h-2.09Zm12.51,0v-2.09h2.09v2.09h-2.09Zm12.51,0v-2.09h2.09v2.09h-2.09Zm12.51,0v-2.09h2.09v2.09h-2.09Zm12.51,0v-2.09h2.09v2.09h-2.09Zm12.51,0v-2.09h2.09v2.09h-2.09Zm12.51,0v-2.09h2.09v2.09h-2.09Zm12.51,0v-2.09h2.09v2.09h-2.09Zm12.51,0v-2.09h2.09v2.09h-2.09Zm12.51,0v-2.09h2.09v2.09h-2.09Zm12.51,0v-2.09h2.09v2.09h-2.09Zm12.51,0v-2.09h2.09v2.09h-2.09Zm12.51,0v-2.09h2.09v2.09h-2.09Z"/><path class="cls-8" d="m7.83,291.38v-2.09h2.09v2.09h-2.09Zm12.51,0v-2.09h2.09v2.09h-2.09Zm12.51,0v-2.09h2.09v2.09h-2.09Zm12.51,0v-2.09h2.09v2.09h-2.09Zm12.51,0v-2.09h2.09v2.09h-2.09Zm12.51,0v-2.09h2.09v2.09h-2.09Zm12.51,0v-2.09h2.09v2.09h-2.09Zm12.51,0v-2.09h2.09v2.09h-2.09Zm12.51,0v-2.09h2.09v2.09h-2.09Zm12.51,0v-2.09h2.09v2.09h-2.09Zm12.51,0v-2.09h2.09v2.09h-2.09Zm12.51,0v-2.09h2.09v2.09h-2.09Zm12.51,0v-2.09h2.09v2.09h-2.09Zm12.51,0v-2.09h2.09v2.09h-2.09Zm12.51,0v-2.09h2.09v2.09h-2.09Zm12.51,0v-2.09h2.09v2.09h-2.09Zm12.51,0v-2.09h2.09v2.09h-2.09Zm12.51,0v-2.09h2.09v2.09h-2.09Zm12.51,0v-2.09h2.09v2.09h-2.09Zm12.51,0v-2.09h2.09v2.09h-2.09Zm12.51,0v-2.09h2.09v2.09h-2.09Zm12.51,0v-2.09h2.09v2.09h-2.09Zm12.51,0v-2.09h2.09v2.09h-2.09Zm12.51,0v-2.09h2.09v2.09h-2.09Zm12.51,0v-2.09h2.09v2.09h-2.09Zm12.51,0v-2.09h2.09v2.09h-2.09Zm12.51,0v-2.09h2.09v2.09h-2.09Zm12.51,0v-2.09h2.09v2.09h-2.09Zm12.51,0v-2.09h2.09v2.09h-2.09Zm12.51,0v-2.09h2.09v2.09h-2.09Zm12.51,0v-2.09h2.09v2.09h-2.09Zm12.51,0v-2.09h2.09v2.09h-2.09Zm12.51,0v-2.09h2.09v2.09h-2.09Zm12.51,0v-2.09h2.09v2.09h-2.09Zm12.51,0v-2.09h2.09v2.09h-2.09Zm12.51,0v-2.09h2.09v2.09h-2.09Zm12.51,0v-2.09h2.09v2.09h-2.09Zm12.51,0v-2.09h2.09v2.09h-2.09Zm12.51,0v-2.09h2.09v2.09h-2.09Zm12.51,0v-2.09h2.09v2.09h-2.09Zm12.51,0v-2.09h2.09v2.09h-2.09Zm12.51,0v-2.09h2.09v2.09h-2.09Zm12.51,0v-2.09h2.09v2.09h-2.09Zm12.51,0v-2.09h2.09v2.09h-2.09Zm12.51,0v-2.09h2.09v2.09h-2.09Zm12.51,0v-2.09h2.09v2.09h-2.09Zm12.51,0v-2.09h2.09v2.09h-2.09Zm12.51,0v-2.09h2.09v2.09h-2.09Zm12.51,0v-2.09h2.09v2.09h-2.09Zm12.51,0v-2.09h2.09v2.09h-2.09Zm12.51,0v-2.09h2.09v2.09h-2.09Zm12.51,0v-2.09h2.09v2.09h-2.09Zm12.51,0v-2.09h2.09v2.09h-2.09Zm12.51,0v-2.09h2.09v2.09h-2.09Zm12.51,0v-2.09h2.09v2.09h-2.09Zm12.51,0v-2.09h2.09v2.09h-2.09Zm12.51,0v-2.09h2.09v2.09h-2.09Zm12.51,0v-2.09h2.09v2.09h-2.09Zm12.51,0v-2.09h2.09v2.09h-2.09Zm12.51,0v-2.09h2.09v2.09h-2.09Zm12.51,0v-2.09h2.09v2.09h-2.09Zm12.51,0v-2.09h2.09v2.09h-2.09Zm12.51,0v-2.09h2.09v2.09h-2.09Zm12.51,0v-2.09h2.09v2.09h-2.09Zm12.51,0v-2.09h2.09v2.09h-2.09Zm12.51,0v-2.09h2.09v2.09h-2.09Zm12.51,0v-2.09h2.09v2.09h-2.09Zm12.51,0v-2.09h2.09v2.09h-2.09Zm12.51,0v-2.09h2.09v2.09h-2.09Zm12.51,0v-2.09h2.09v2.09h-2.09Zm12.51,0v-2.09h2.09v2.09h-2.09Zm12.51,0v-2.09h2.09v2.09h-2.09Zm12.51,0v-2.09h2.09v2.09h-2.09Zm12.51,0v-2.09h2.09v2.09h-2.09Zm12.51,0v-2.09h2.09v2.09h-2.09Zm12.51,0v-2.09h2.09v2.09h-2.09Zm12.51,0v-2.09h2.09v2.09h-2.09Zm12.51,0v-2.09h2.09v2.09h-2.09Zm12.51,0v-2.09h2.09v2.09h-2.09Zm12.51,0v-2.09h2.09v2.09h-2.09Zm12.51,0v-2.09h2.09v2.09h-2.09Zm12.51,0v-2.09h2.09v2.09h-2.09Zm12.51,0v-2.09h2.09v2.09h-2.09Zm12.51,0v-2.09h2.09v2.09h-2.09Zm12.51,0v-2.09h2.09v2.09h-2.09Zm12.51,0v-2.09h2.09v2.09h-2.09Zm12.51,0v-2.09h2.09v2.09h-2.09Zm12.51,0v-2.09h2.09v2.09h-2.09Zm12.51,0v-2.09h2.09v2.09h-2.09Zm12.51,0v-2.09h2.09v2.09h-2.09Zm12.51,0v-2.09h2.09v2.09h-2.09Zm12.51,0v-2.09h2.09v2.09h-2.09Zm12.51,0v-2.09h2.09v2.09h-2.09Zm12.51,0v-2.09h2.09v2.09h-2.09Zm12.51,0v-2.09h2.09v2.09h-2.09Zm12.51,0v-2.09h2.09v2.09h-2.09Zm12.51,0v-2.09h2.09v2.09h-2.09Zm12.51,0v-2.09h2.09v2.09h-2.09Zm12.51,0v-2.09h2.09v2.09h-2.09Zm12.51,0v-2.09h2.09v2.09h-2.09Zm12.51,0v-2.09h2.09v2.09h-2.09Zm12.51,0v-2.09h2.09v2.09h-2.09Zm12.51,0v-2.09h2.09v2.09h-2.09Zm12.51,0v-2.09h2.09v2.09h-2.09Zm12.51,0v-2.09h2.09v2.09h-2.09Zm12.51,0v-2.09h2.09v2.09h-2.09Zm12.51,0v-2.09h2.09v2.09h-2.09Zm12.51,0v-2.09h2.09v2.09h-2.09Zm12.51,0v-2.09h2.09v2.09h-2.09Zm12.51,0v-2.09h2.09v2.09h-2.09Zm12.51,0v-2.09h2.09v2.09h-2.09Zm12.51,0v-2.09h2.09v2.09h-2.09Zm12.51,0v-2.09h2.09v2.09h-2.09Zm12.51,0v-2.09h2.09v2.09h-2.09Zm12.51,0v-2.09h2.09v2.09h-2.09Zm12.51,0v-2.09h2.09v2.09h-2.09Zm12.51,0v-2.09h2.09v2.09h-2.09Zm12.51,0v-2.09h2.09v2.09h-2.09Zm12.51,0v-2.09h2.09v2.09h-2.09Zm12.51,0v-2.09h2.09v2.09h-2.09Zm12.51,0v-2.09h2.09v2.09h-2.09Zm12.51,0v-2.09h2.09v2.09h-2.09Zm12.51,0v-2.09h2.09v2.09h-2.09Zm12.51,0v-2.09h2.09v2.09h-2.09Zm12.51,0v-2.09h2.09v2.09h-2.09Zm12.51,0v-2.09h2.09v2.09h-2.09Zm12.51,0v-2.09h2.09v2.09h-2.09Zm12.51,0v-2.09h2.09v2.09h-2.09Zm12.51,0v-2.09h2.09v2.09h-2.09Zm12.51,0v-2.09h2.09v2.09h-2.09Zm12.51,0v-2.09h2.09v2.09h-2.09Zm12.51,0v-2.09h2.09v2.09h-2.09Z"/><path class="cls-8" d="m7.83,389.27v-2.09h2.09v2.09h-2.09Zm12.51,0v-2.09h2.09v2.09h-2.09Zm12.51,0v-2.09h2.09v2.09h-2.09Zm12.51,0v-2.09h2.09v2.09h-2.09Zm12.51,0v-2.09h2.09v2.09h-2.09Zm12.51,0v-2.09h2.09v2.09h-2.09Zm12.51,0v-2.09h2.09v2.09h-2.09Zm12.51,0v-2.09h2.09v2.09h-2.09Zm12.51,0v-2.09h2.09v2.09h-2.09Zm12.51,0v-2.09h2.09v2.09h-2.09Zm12.51,0v-2.09h2.09v2.09h-2.09Zm12.51,0v-2.09h2.09v2.09h-2.09Zm12.51,0v-2.09h2.09v2.09h-2.09Zm12.51,0v-2.09h2.09v2.09h-2.09Zm12.51,0v-2.09h2.09v2.09h-2.09Zm12.51,0v-2.09h2.09v2.09h-2.09Zm12.51,0v-2.09h2.09v2.09h-2.09Zm12.51,0v-2.09h2.09v2.09h-2.09Zm12.51,0v-2.09h2.09v2.09h-2.09Zm12.51,0v-2.09h2.09v2.09h-2.09Zm12.51,0v-2.09h2.09v2.09h-2.09Zm12.51,0v-2.09h2.09v2.09h-2.09Zm12.51,0v-2.09h2.09v2.09h-2.09Zm12.51,0v-2.09h2.09v2.09h-2.09Zm12.51,0v-2.09h2.09v2.09h-2.09Zm12.51,0v-2.09h2.09v2.09h-2.09Zm12.51,0v-2.09h2.09v2.09h-2.09Zm12.51,0v-2.09h2.09v2.09h-2.09Zm12.51,0v-2.09h2.09v2.09h-2.09Zm12.51,0v-2.09h2.09v2.09h-2.09Zm12.51,0v-2.09h2.09v2.09h-2.09Zm12.51,0v-2.09h2.09v2.09h-2.09Zm12.51,0v-2.09h2.09v2.09h-2.09Zm12.51,0v-2.09h2.09v2.09h-2.09Zm12.51,0v-2.09h2.09v2.09h-2.09Zm12.51,0v-2.09h2.09v2.09h-2.09Zm12.51,0v-2.09h2.09v2.09h-2.09Zm12.51,0v-2.09h2.09v2.09h-2.09Zm12.51,0v-2.09h2.09v2.09h-2.09Zm12.51,0v-2.09h2.09v2.09h-2.09Zm12.51,0v-2.09h2.09v2.09h-2.09Zm12.51,0v-2.09h2.09v2.09h-2.09Zm12.51,0v-2.09h2.09v2.09h-2.09Zm12.51,0v-2.09h2.09v2.09h-2.09Zm12.51,0v-2.09h2.09v2.09h-2.09Zm12.51,0v-2.09h2.09v2.09h-2.09Zm12.51,0v-2.09h2.09v2.09h-2.09Zm12.51,0v-2.09h2.09v2.09h-2.09Zm12.51,0v-2.09h2.09v2.09h-2.09Zm12.51,0v-2.09h2.09v2.09h-2.09Zm12.51,0v-2.09h2.09v2.09h-2.09Zm12.51,0v-2.09h2.09v2.09h-2.09Zm12.51,0v-2.09h2.09v2.09h-2.09Zm12.51,0v-2.09h2.09v2.09h-2.09Zm12.51,0v-2.09h2.09v2.09h-2.09Zm12.51,0v-2.09h2.09v2.09h-2.09Zm12.51,0v-2.09h2.09v2.09h-2.09Zm12.51,0v-2.09h2.09v2.09h-2.09Zm12.51,0v-2.09h2.09v2.09h-2.09Zm12.51,0v-2.09h2.09v2.09h-2.09Zm12.51,0v-2.09h2.09v2.09h-2.09Zm12.51,0v-2.09h2.09v2.09h-2.09Zm12.51,0v-2.09h2.09v2.09h-2.09Zm12.51,0v-2.09h2.09v2.09h-2.09Zm12.51,0v-2.09h2.09v2.09h-2.09Zm12.51,0v-2.09h2.09v2.09h-2.09Zm12.51,0v-2.09h2.09v2.09h-2.09Zm12.51,0v-2.09h2.09v2.09h-2.09Zm12.51,0v-2.09h2.09v2.09h-2.09Zm12.51,0v-2.09h2.09v2.09h-2.09Zm12.51,0v-2.09h2.09v2.09h-2.09Zm12.51,0v-2.09h2.09v2.09h-2.09Zm12.51,0v-2.09h2.09v2.09h-2.09Zm12.51,0v-2.09h2.09v2.09h-2.09Zm12.51,0v-2.09h2.09v2.09h-2.09Zm12.51,0v-2.09h2.09v2.09h-2.09Zm12.51,0v-2.09h2.09v2.09h-2.09Zm12.51,0v-2.09h2.09v2.09h-2.09Zm12.51,0v-2.09h2.09v2.09h-2.09Zm12.51,0v-2.09h2.09v2.09h-2.09Zm12.51,0v-2.09h2.09v2.09h-2.09Zm12.51,0v-2.09h2.09v2.09h-2.09Zm12.51,0v-2.09h2.09v2.09h-2.09Zm12.51,0v-2.09h2.09v2.09h-2.09Zm12.51,0v-2.09h2.09v2.09h-2.09Zm12.51,0v-2.09h2.09v2.09h-2.09Zm12.51,0v-2.09h2.09v2.09h-2.09Zm12.51,0v-2.09h2.09v2.09h-2.09Zm12.51,0v-2.09h2.09v2.09h-2.09Zm12.51,0v-2.09h2.09v2.09h-2.09Zm12.51,0v-2.09h2.09v2.09h-2.09Zm12.51,0v-2.09h2.09v2.09h-2.09Zm12.51,0v-2.09h2.09v2.09h-2.09Zm12.51,0v-2.09h2.09v2.09h-2.09Zm12.51,0v-2.09h2.09v2.09h-2.09Zm12.51,0v-2.09h2.09v2.09h-2.09Zm12.51,0v-2.09h2.09v2.09h-2.09Zm12.51,0v-2.09h2.09v2.09h-2.09Zm12.51,0v-2.09h2.09v2.09h-2.09Zm12.51,0v-2.09h2.09v2.09h-2.09Zm12.51,0v-2.09h2.09v2.09h-2.09Zm12.51,0v-2.09h2.09v2.09h-2.09Zm12.51,0v-2.09h2.09v2.09h-2.09Zm12.51,0v-2.09h2.09v2.09h-2.09Zm12.51,0v-2.09h2.09v2.09h-2.09Zm12.51,0v-2.09h2.09v2.09h-2.09Zm12.51,0v-2.09h2.09v2.09h-2.09Zm12.51,0v-2.09h2.09v2.09h-2.09Zm12.51,0v-2.09h2.09v2.09h-2.09Zm12.51,0v-2.09h2.09v2.09h-2.09Zm12.51,0v-2.09h2.09v2.09h-2.09Zm12.51,0v-2.09h2.09v2.09h-2.09Zm12.51,0v-2.09h2.09v2.09h-2.09Zm12.51,0v-2.09h2.09v2.09h-2.09Zm12.51,0v-2.09h2.09v2.09h-2.09Zm12.51,0v-2.09h2.09v2.09h-2.09Zm12.51,0v-2.09h2.09v2.09h-2.09Zm12.51,0v-2.09h2.09v2.09h-2.09Zm12.51,0v-2.09h2.09v2.09h-2.09Zm12.51,0v-2.09h2.09v2.09h-2.09Zm12.51,0v-2.09h2.09v2.09h-2.09Zm12.51,0v-2.09h2.09v2.09h-2.09Zm12.51,0v-2.09h2.09v2.09h-2.09Zm12.51,0v-2.09h2.09v2.09h-2.09Zm12.51,0v-2.09h2.09v2.09h-2.09Zm12.51,0v-2.09h2.09v2.09h-2.09Zm12.51,0v-2.09h2.09v2.09h-2.09Zm12.51,0v-2.09h2.09v2.09h-2.09Zm12.51,0v-2.09h2.09v2.09h-2.09Zm12.51,0v-2.09h2.09v2.09h-2.09Zm12.51,0v-2.09h2.09v2.09h-2.09Zm12.51,0v-2.09h2.09v2.09h-2.09Z"/><path class="cls-8" d="m7.83,487.16v-2.09h2.09v2.09h-2.09Zm12.51,0v-2.09h2.09v2.09h-2.09Zm12.51,0v-2.09h2.09v2.09h-2.09Zm12.51,0v-2.09h2.09v2.09h-2.09Zm12.51,0v-2.09h2.09v2.09h-2.09Zm12.51,0v-2.09h2.09v2.09h-2.09Zm12.51,0v-2.09h2.09v2.09h-2.09Zm12.51,0v-2.09h2.09v2.09h-2.09Zm12.51,0v-2.09h2.09v2.09h-2.09Zm12.51,0v-2.09h2.09v2.09h-2.09Zm12.51,0v-2.09h2.09v2.09h-2.09Zm12.51,0v-2.09h2.09v2.09h-2.09Zm12.51,0v-2.09h2.09v2.09h-2.09Zm12.51,0v-2.09h2.09v2.09h-2.09Zm12.51,0v-2.09h2.09v2.09h-2.09Zm12.51,0v-2.09h2.09v2.09h-2.09Zm12.51,0v-2.09h2.09v2.09h-2.09Zm12.51,0v-2.09h2.09v2.09h-2.09Zm12.51,0v-2.09h2.09v2.09h-2.09Zm12.51,0v-2.09h2.09v2.09h-2.09Zm12.51,0v-2.09h2.09v2.09h-2.09Zm12.51,0v-2.09h2.09v2.09h-2.09Zm12.51,0v-2.09h2.09v2.09h-2.09Zm12.51,0v-2.09h2.09v2.09h-2.09Zm12.51,0v-2.09h2.09v2.09h-2.09Zm12.51,0v-2.09h2.09v2.09h-2.09Zm12.51,0v-2.09h2.09v2.09h-2.09Zm12.51,0v-2.09h2.09v2.09h-2.09Zm12.51,0v-2.09h2.09v2.09h-2.09Zm12.51,0v-2.09h2.09v2.09h-2.09Zm12.51,0v-2.09h2.09v2.09h-2.09Zm12.51,0v-2.09h2.09v2.09h-2.09Zm12.51,0v-2.09h2.09v2.09h-2.09Zm12.51,0v-2.09h2.09v2.09h-2.09Zm12.51,0v-2.09h2.09v2.09h-2.09Zm12.51,0v-2.09h2.09v2.09h-2.09Zm12.51,0v-2.09h2.09v2.09h-2.09Zm12.51,0v-2.09h2.09v2.09h-2.09Zm12.51,0v-2.09h2.09v2.09h-2.09Zm12.51,0v-2.09h2.09v2.09h-2.09Zm12.51,0v-2.09h2.09v2.09h-2.09Zm12.51,0v-2.09h2.09v2.09h-2.09Zm12.51,0v-2.09h2.09v2.09h-2.09Zm12.51,0v-2.09h2.09v2.09h-2.09Zm12.51,0v-2.09h2.09v2.09h-2.09Zm12.51,0v-2.09h2.09v2.09h-2.09Zm12.51,0v-2.09h2.09v2.09h-2.09Zm12.51,0v-2.09h2.09v2.09h-2.09Zm12.51,0v-2.09h2.09v2.09h-2.09Zm12.51,0v-2.09h2.09v2.09h-2.09Zm12.51,0v-2.09h2.09v2.09h-2.09Zm12.51,0v-2.09h2.09v2.09h-2.09Zm12.51,0v-2.09h2.09v2.09h-2.09Zm12.51,0v-2.09h2.09v2.09h-2.09Zm12.51,0v-2.09h2.09v2.09h-2.09Zm12.51,0v-2.09h2.09v2.09h-2.09Zm12.51,0v-2.09h2.09v2.09h-2.09Zm12.51,0v-2.09h2.09v2.09h-2.09Zm12.51,0v-2.09h2.09v2.09h-2.09Zm12.51,0v-2.09h2.09v2.09h-2.09Zm12.51,0v-2.09h2.09v2.09h-2.09Zm12.51,0v-2.09h2.09v2.09h-2.09Zm12.51,0v-2.09h2.09v2.09h-2.09Zm12.51,0v-2.09h2.09v2.09h-2.09Zm12.51,0v-2.09h2.09v2.09h-2.09Zm12.51,0v-2.09h2.09v2.09h-2.09Zm12.51,0v-2.09h2.09v2.09h-2.09Zm12.51,0v-2.09h2.09v2.09h-2.09Zm12.51,0v-2.09h2.09v2.09h-2.09Zm12.51,0v-2.09h2.09v2.09h-2.09Zm12.51,0v-2.09h2.09v2.09h-2.09Zm12.51,0v-2.09h2.09v2.09h-2.09Zm12.51,0v-2.09h2.09v2.09h-2.09Zm12.51,0v-2.09h2.09v2.09h-2.09Zm12.51,0v-2.09h2.09v2.09h-2.09Zm12.51,0v-2.09h2.09v2.09h-2.09Zm12.51,0v-2.09h2.09v2.09h-2.09Zm12.51,0v-2.09h2.09v2.09h-2.09Zm12.51,0v-2.09h2.09v2.09h-2.09Zm12.51,0v-2.09h2.09v2.09h-2.09Zm12.51,0v-2.09h2.09v2.09h-2.09Zm12.51,0v-2.09h2.09v2.09h-2.09Zm12.51,0v-2.09h2.09v2.09h-2.09Zm12.51,0v-2.09h2.09v2.09h-2.09Zm12.51,0v-2.09h2.09v2.09h-2.09Zm12.51,0v-2.09h2.09v2.09h-2.09Zm12.51,0v-2.09h2.09v2.09h-2.09Zm12.51,0v-2.09h2.09v2.09h-2.09Zm12.51,0v-2.09h2.09v2.09h-2.09Zm12.51,0v-2.09h2.09v2.09h-2.09Zm12.51,0v-2.09h2.09v2.09h-2.09Zm12.51,0v-2.09h2.09v2.09h-2.09Zm12.51,0v-2.09h2.09v2.09h-2.09Zm12.51,0v-2.09h2.09v2.09h-2.09Zm12.51,0v-2.09h2.09v2.09h-2.09Zm12.51,0v-2.09h2.09v2.09h-2.09Zm12.51,0v-2.09h2.09v2.09h-2.09Zm12.51,0v-2.09h2.09v2.09h-2.09Zm12.51,0v-2.09h2.09v2.09h-2.09Zm12.51,0v-2.09h2.09v2.09h-2.09Zm12.51,0v-2.09h2.09v2.09h-2.09Zm12.51,0v-2.09h2.09v2.09h-2.09Zm12.51,0v-2.09h2.09v2.09h-2.09Zm12.51,0v-2.09h2.09v2.09h-2.09Zm12.51,0v-2.09h2.09v2.09h-2.09Zm12.51,0v-2.09h2.09v2.09h-2.09Zm12.51,0v-2.09h2.09v2.09h-2.09Zm12.51,0v-2.09h2.09v2.09h-2.09Zm12.51,0v-2.09h2.09v2.09h-2.09Zm12.51,0v-2.09h2.09v2.09h-2.09Zm12.51,0v-2.09h2.09v2.09h-2.09Zm12.51,0v-2.09h2.09v2.09h-2.09Zm12.51,0v-2.09h2.09v2.09h-2.09Zm12.51,0v-2.09h2.09v2.09h-2.09Zm12.51,0v-2.09h2.09v2.09h-2.09Zm12.51,0v-2.09h2.09v2.09h-2.09Zm12.51,0v-2.09h2.09v2.09h-2.09Zm12.51,0v-2.09h2.09v2.09h-2.09Zm12.51,0v-2.09h2.09v2.09h-2.09Zm12.51,0v-2.09h2.09v2.09h-2.09Zm12.51,0v-2.09h2.09v2.09h-2.09Zm12.51,0v-2.09h2.09v2.09h-2.09Zm12.51,0v-2.09h2.09v2.09h-2.09Zm12.51,0v-2.09h2.09v2.09h-2.09Zm12.51,0v-2.09h2.09v2.09h-2.09Zm12.51,0v-2.09h2.09v2.09h-2.09Zm12.51,0v-2.09h2.09v2.09h-2.09Zm12.51,0v-2.09h2.09v2.09h-2.09Zm12.51,0v-2.09h2.09v2.09h-2.09Zm12.51,0v-2.09h2.09v2.09h-2.09Zm12.51,0v-2.09h2.09v2.09h-2.09Zm12.51,0v-2.09h2.09v2.09h-2.09Z"/><path class="cls-8" d="m7.83,585.05v-2.09h2.09v2.09h-2.09Zm12.51,0v-2.09h2.09v2.09h-2.09Zm12.51,0v-2.09h2.09v2.09h-2.09Zm12.51,0v-2.09h2.09v2.09h-2.09Zm12.51,0v-2.09h2.09v2.09h-2.09Zm12.51,0v-2.09h2.09v2.09h-2.09Zm12.51,0v-2.09h2.09v2.09h-2.09Zm12.51,0v-2.09h2.09v2.09h-2.09Zm12.51,0v-2.09h2.09v2.09h-2.09Zm12.51,0v-2.09h2.09v2.09h-2.09Zm12.51,0v-2.09h2.09v2.09h-2.09Zm12.51,0v-2.09h2.09v2.09h-2.09Zm12.51,0v-2.09h2.09v2.09h-2.09Zm12.51,0v-2.09h2.09v2.09h-2.09Zm12.51,0v-2.09h2.09v2.09h-2.09Zm12.51,0v-2.09h2.09v2.09h-2.09Zm12.51,0v-2.09h2.09v2.09h-2.09Zm12.51,0v-2.09h2.09v2.09h-2.09Zm12.51,0v-2.09h2.09v2.09h-2.09Zm12.51,0v-2.09h2.09v2.09h-2.09Zm12.51,0v-2.09h2.09v2.09h-2.09Zm12.51,0v-2.09h2.09v2.09h-2.09Zm12.51,0v-2.09h2.09v2.09h-2.09Zm12.51,0v-2.09h2.09v2.09h-2.09Zm12.51,0v-2.09h2.09v2.09h-2.09Zm12.51,0v-2.09h2.09v2.09h-2.09Zm12.51,0v-2.09h2.09v2.09h-2.09Zm12.51,0v-2.09h2.09v2.09h-2.09Zm12.51,0v-2.09h2.09v2.09h-2.09Zm12.51,0v-2.09h2.09v2.09h-2.09Zm12.51,0v-2.09h2.09v2.09h-2.09Zm12.51,0v-2.09h2.09v2.09h-2.09Zm12.51,0v-2.09h2.09v2.09h-2.09Zm12.51,0v-2.09h2.09v2.09h-2.09Zm12.51,0v-2.09h2.09v2.09h-2.09Zm12.51,0v-2.09h2.09v2.09h-2.09Zm12.51,0v-2.09h2.09v2.09h-2.09Zm12.51,0v-2.09h2.09v2.09h-2.09Zm12.51,0v-2.09h2.09v2.09h-2.09Zm12.51,0v-2.09h2.09v2.09h-2.09Zm12.51,0v-2.09h2.09v2.09h-2.09Zm12.51,0v-2.09h2.09v2.09h-2.09Zm12.51,0v-2.09h2.09v2.09h-2.09Zm12.51,0v-2.09h2.09v2.09h-2.09Zm12.51,0v-2.09h2.09v2.09h-2.09Zm12.51,0v-2.09h2.09v2.09h-2.09Zm12.51,0v-2.09h2.09v2.09h-2.09Zm12.51,0v-2.09h2.09v2.09h-2.09Zm12.51,0v-2.09h2.09v2.09h-2.09Zm12.51,0v-2.09h2.09v2.09h-2.09Zm12.51,0v-2.09h2.09v2.09h-2.09Zm12.51,0v-2.09h2.09v2.09h-2.09Zm12.51,0v-2.09h2.09v2.09h-2.09Zm12.51,0v-2.09h2.09v2.09h-2.09Zm12.51,0v-2.09h2.09v2.09h-2.09Zm12.51,0v-2.09h2.09v2.09h-2.09Zm12.51,0v-2.09h2.09v2.09h-2.09Zm12.51,0v-2.09h2.09v2.09h-2.09Zm12.51,0v-2.09h2.09v2.09h-2.09Zm12.51,0v-2.09h2.09v2.09h-2.09Zm12.51,0v-2.09h2.09v2.09h-2.09Zm12.51,0v-2.09h2.09v2.09h-2.09Zm12.51,0v-2.09h2.09v2.09h-2.09Zm12.51,0v-2.09h2.09v2.09h-2.09Zm12.51,0v-2.09h2.09v2.09h-2.09Zm12.51,0v-2.09h2.09v2.09h-2.09Zm12.51,0v-2.09h2.09v2.09h-2.09Zm12.51,0v-2.09h2.09v2.09h-2.09Zm12.51,0v-2.09h2.09v2.09h-2.09Zm12.51,0v-2.09h2.09v2.09h-2.09Zm12.51,0v-2.09h2.09v2.09h-2.09Zm12.51,0v-2.09h2.09v2.09h-2.09Zm12.51,0v-2.09h2.09v2.09h-2.09Zm12.51,0v-2.09h2.09v2.09h-2.09Zm12.51,0v-2.09h2.09v2.09h-2.09Zm12.51,0v-2.09h2.09v2.09h-2.09Zm12.51,0v-2.09h2.09v2.09h-2.09Zm12.51,0v-2.09h2.09v2.09h-2.09Zm12.51,0v-2.09h2.09v2.09h-2.09Zm12.51,0v-2.09h2.09v2.09h-2.09Zm12.51,0v-2.09h2.09v2.09h-2.09Zm12.51,0v-2.09h2.09v2.09h-2.09Zm12.51,0v-2.09h2.09v2.09h-2.09Zm12.51,0v-2.09h2.09v2.09h-2.09Zm12.51,0v-2.09h2.09v2.09h-2.09Zm12.51,0v-2.09h2.09v2.09h-2.09Zm12.51,0v-2.09h2.09v2.09h-2.09Zm12.51,0v-2.09h2.09v2.09h-2.09Zm12.51,0v-2.09h2.09v2.09h-2.09Zm12.51,0v-2.09h2.09v2.09h-2.09Zm12.51,0v-2.09h2.09v2.09h-2.09Zm12.51,0v-2.09h2.09v2.09h-2.09Zm12.51,0v-2.09h2.09v2.09h-2.09Zm12.51,0v-2.09h2.09v2.09h-2.09Zm12.51,0v-2.09h2.09v2.09h-2.09Zm12.51,0v-2.09h2.09v2.09h-2.09Zm12.51,0v-2.09h2.09v2.09h-2.09Zm12.51,0v-2.09h2.09v2.09h-2.09Zm12.51,0v-2.09h2.09v2.09h-2.09Zm12.51,0v-2.09h2.09v2.09h-2.09Zm12.51,0v-2.09h2.09v2.09h-2.09Zm12.51,0v-2.09h2.09v2.09h-2.09Zm12.51,0v-2.09h2.09v2.09h-2.09Zm12.51,0v-2.09h2.09v2.09h-2.09Zm12.51,0v-2.09h2.09v2.09h-2.09Zm12.51,0v-2.09h2.09v2.09h-2.09Zm12.51,0v-2.09h2.09v2.09h-2.09Zm12.51,0v-2.09h2.09v2.09h-2.09Zm12.51,0v-2.09h2.09v2.09h-2.09Zm12.51,0v-2.09h2.09v2.09h-2.09Zm12.51,0v-2.09h2.09v2.09h-2.09Zm12.51,0v-2.09h2.09v2.09h-2.09Zm12.51,0v-2.09h2.09v2.09h-2.09Zm12.51,0v-2.09h2.09v2.09h-2.09Zm12.51,0v-2.09h2.09v2.09h-2.09Zm12.51,0v-2.09h2.09v2.09h-2.09Zm12.51,0v-2.09h2.09v2.09h-2.09Zm12.51,0v-2.09h2.09v2.09h-2.09Zm12.51,0v-2.09h2.09v2.09h-2.09Zm12.51,0v-2.09h2.09v2.09h-2.09Zm12.51,0v-2.09h2.09v2.09h-2.09Zm12.51,0v-2.09h2.09v2.09h-2.09Zm12.51,0v-2.09h2.09v2.09h-2.09Zm12.51,0v-2.09h2.09v2.09h-2.09Zm12.51,0v-2.09h2.09v2.09h-2.09Zm12.51,0v-2.09h2.09v2.09h-2.09Zm12.51,0v-2.09h2.09v2.09h-2.09Zm12.51,0v-2.09h2.09v2.09h-2.09Zm12.51,0v-2.09h2.09v2.09h-2.09Zm12.51,0v-2.09h2.09v2.09h-2.09Zm12.51,0v-2.09h2.09v2.09h-2.09Zm12.51,0v-2.09h2.09v2.09h-2.09Z"/><path class="cls-8" d="m7.83,682.94v-2.09h2.09v2.09h-2.09Zm12.51,0v-2.09h2.09v2.09h-2.09Zm12.51,0v-2.09h2.09v2.09h-2.09Zm12.51,0v-2.09h2.09v2.09h-2.09Zm12.51,0v-2.09h2.09v2.09h-2.09Zm12.51,0v-2.09h2.09v2.09h-2.09Zm12.51,0v-2.09h2.09v2.09h-2.09Zm12.51,0v-2.09h2.09v2.09h-2.09Zm12.51,0v-2.09h2.09v2.09h-2.09Zm12.51,0v-2.09h2.09v2.09h-2.09Zm12.51,0v-2.09h2.09v2.09h-2.09Zm12.51,0v-2.09h2.09v2.09h-2.09Zm12.51,0v-2.09h2.09v2.09h-2.09Zm12.51,0v-2.09h2.09v2.09h-2.09Zm12.51,0v-2.09h2.09v2.09h-2.09Zm12.51,0v-2.09h2.09v2.09h-2.09Zm12.51,0v-2.09h2.09v2.09h-2.09Zm12.51,0v-2.09h2.09v2.09h-2.09Zm12.51,0v-2.09h2.09v2.09h-2.09Zm12.51,0v-2.09h2.09v2.09h-2.09Zm12.51,0v-2.09h2.09v2.09h-2.09Zm12.51,0v-2.09h2.09v2.09h-2.09Zm12.51,0v-2.09h2.09v2.09h-2.09Zm12.51,0v-2.09h2.09v2.09h-2.09Zm12.51,0v-2.09h2.09v2.09h-2.09Zm12.51,0v-2.09h2.09v2.09h-2.09Zm12.51,0v-2.09h2.09v2.09h-2.09Zm12.51,0v-2.09h2.09v2.09h-2.09Zm12.51,0v-2.09h2.09v2.09h-2.09Zm12.51,0v-2.09h2.09v2.09h-2.09Zm12.51,0v-2.09h2.09v2.09h-2.09Zm12.51,0v-2.09h2.09v2.09h-2.09Zm12.51,0v-2.09h2.09v2.09h-2.09Zm12.51,0v-2.09h2.09v2.09h-2.09Zm12.51,0v-2.09h2.09v2.09h-2.09Zm12.51,0v-2.09h2.09v2.09h-2.09Zm12.51,0v-2.09h2.09v2.09h-2.09Zm12.51,0v-2.09h2.09v2.09h-2.09Zm12.51,0v-2.09h2.09v2.09h-2.09Zm12.51,0v-2.09h2.09v2.09h-2.09Zm12.51,0v-2.09h2.09v2.09h-2.09Zm12.51,0v-2.09h2.09v2.09h-2.09Zm12.51,0v-2.09h2.09v2.09h-2.09Zm12.51,0v-2.09h2.09v2.09h-2.09Zm12.51,0v-2.09h2.09v2.09h-2.09Zm12.51,0v-2.09h2.09v2.09h-2.09Zm12.51,0v-2.09h2.09v2.09h-2.09Zm12.51,0v-2.09h2.09v2.09h-2.09Zm12.51,0v-2.09h2.09v2.09h-2.09Zm12.51,0v-2.09h2.09v2.09h-2.09Zm12.51,0v-2.09h2.09v2.09h-2.09Zm12.51,0v-2.09h2.09v2.09h-2.09Zm12.51,0v-2.09h2.09v2.09h-2.09Zm12.51,0v-2.09h2.09v2.09h-2.09Zm12.51,0v-2.09h2.09v2.09h-2.09Zm12.51,0v-2.09h2.09v2.09h-2.09Zm12.51,0v-2.09h2.09v2.09h-2.09Zm12.51,0v-2.09h2.09v2.09h-2.09Zm12.51,0v-2.09h2.09v2.09h-2.09Zm12.51,0v-2.09h2.09v2.09h-2.09Zm12.51,0v-2.09h2.09v2.09h-2.09Zm12.51,0v-2.09h2.09v2.09h-2.09Zm12.51,0v-2.09h2.09v2.09h-2.09Zm12.51,0v-2.09h2.09v2.09h-2.09Zm12.51,0v-2.09h2.09v2.09h-2.09Zm12.51,0v-2.09h2.09v2.09h-2.09Zm12.51,0v-2.09h2.09v2.09h-2.09Zm12.51,0v-2.09h2.09v2.09h-2.09Zm12.51,0v-2.09h2.09v2.09h-2.09Zm12.51,0v-2.09h2.09v2.09h-2.09Zm12.51,0v-2.09h2.09v2.09h-2.09Zm12.51,0v-2.09h2.09v2.09h-2.09Zm12.51,0v-2.09h2.09v2.09h-2.09Zm12.51,0v-2.09h2.09v2.09h-2.09Zm12.51,0v-2.09h2.09v2.09h-2.09Zm12.51,0v-2.09h2.09v2.09h-2.09Zm12.51,0v-2.09h2.09v2.09h-2.09Zm12.51,0v-2.09h2.09v2.09h-2.09Zm12.51,0v-2.09h2.09v2.09h-2.09Zm12.51,0v-2.09h2.09v2.09h-2.09Zm12.51,0v-2.09h2.09v2.09h-2.09Zm12.51,0v-2.09h2.09v2.09h-2.09Zm12.51,0v-2.09h2.09v2.09h-2.09Zm12.51,0v-2.09h2.09v2.09h-2.09Zm12.51,0v-2.09h2.09v2.09h-2.09Zm12.51,0v-2.09h2.09v2.09h-2.09Zm12.51,0v-2.09h2.09v2.09h-2.09Zm12.51,0v-2.09h2.09v2.09h-2.09Zm12.51,0v-2.09h2.09v2.09h-2.09Zm12.51,0v-2.09h2.09v2.09h-2.09Zm12.51,0v-2.09h2.09v2.09h-2.09Zm12.51,0v-2.09h2.09v2.09h-2.09Zm12.51,0v-2.09h2.09v2.09h-2.09Zm12.51,0v-2.09h2.09v2.09h-2.09Zm12.51,0v-2.09h2.09v2.09h-2.09Zm12.51,0v-2.09h2.09v2.09h-2.09Zm12.51,0v-2.09h2.09v2.09h-2.09Zm12.51,0v-2.09h2.09v2.09h-2.09Zm12.51,0v-2.09h2.09v2.09h-2.09Zm12.51,0v-2.09h2.09v2.09h-2.09Zm12.51,0v-2.09h2.09v2.09h-2.09Zm12.51,0v-2.09h2.09v2.09h-2.09Zm12.51,0v-2.09h2.09v2.09h-2.09Zm12.51,0v-2.09h2.09v2.09h-2.09Zm12.51,0v-2.09h2.09v2.09h-2.09Zm12.51,0v-2.09h2.09v2.09h-2.09Zm12.51,0v-2.09h2.09v2.09h-2.09Zm12.51,0v-2.09h2.09v2.09h-2.09Zm12.51,0v-2.09h2.09v2.09h-2.09Zm12.51,0v-2.09h2.09v2.09h-2.09Zm12.51,0v-2.09h2.09v2.09h-2.09Zm12.51,0v-2.09h2.09v2.09h-2.09Zm12.51,0v-2.09h2.09v2.09h-2.09Zm12.51,0v-2.09h2.09v2.09h-2.09Zm12.51,0v-2.09h2.09v2.09h-2.09Zm12.51,0v-2.09h2.09v2.09h-2.09Zm12.51,0v-2.09h2.09v2.09h-2.09Zm12.51,0v-2.09h2.09v2.09h-2.09Zm12.51,0v-2.09h2.09v2.09h-2.09Zm12.51,0v-2.09h2.09v2.09h-2.09Zm12.51,0v-2.09h2.09v2.09h-2.09Zm12.51,0v-2.09h2.09v2.09h-2.09Zm12.51,0v-2.09h2.09v2.09h-2.09Zm12.51,0v-2.09h2.09v2.09h-2.09Zm12.51,0v-2.09h2.09v2.09h-2.09Zm12.51,0v-2.09h2.09v2.09h-2.09Zm12.51,0v-2.09h2.09v2.09h-2.09Zm12.51,0v-2.09h2.09v2.09h-2.09Zm12.51,0v-2.09h2.09v2.09h-2.09Zm12.51,0v-2.09h2.09v2.09h-2.09Zm12.51,0v-2.09h2.09v2.09h-2.09Zm12.51,0v-2.09h2.09v2.09h-2.09Z"/><path class="cls-8" d="m7.83,780.83v-2.09h2.09v2.09h-2.09Zm12.51,0v-2.09h2.09v2.09h-2.09Zm12.51,0v-2.09h2.09v2.09h-2.09Zm12.51,0v-2.09h2.09v2.09h-2.09Zm12.51,0v-2.09h2.09v2.09h-2.09Zm12.51,0v-2.09h2.09v2.09h-2.09Zm12.51,0v-2.09h2.09v2.09h-2.09Zm12.51,0v-2.09h2.09v2.09h-2.09Zm12.51,0v-2.09h2.09v2.09h-2.09Zm12.51,0v-2.09h2.09v2.09h-2.09Zm12.51,0v-2.09h2.09v2.09h-2.09Zm12.51,0v-2.09h2.09v2.09h-2.09Zm12.51,0v-2.09h2.09v2.09h-2.09Zm12.51,0v-2.09h2.09v2.09h-2.09Zm12.51,0v-2.09h2.09v2.09h-2.09Zm12.51,0v-2.09h2.09v2.09h-2.09Zm12.51,0v-2.09h2.09v2.09h-2.09Zm12.51,0v-2.09h2.09v2.09h-2.09Zm12.51,0v-2.09h2.09v2.09h-2.09Zm12.51,0v-2.09h2.09v2.09h-2.09Zm12.51,0v-2.09h2.09v2.09h-2.09Zm12.51,0v-2.09h2.09v2.09h-2.09Zm12.51,0v-2.09h2.09v2.09h-2.09Zm12.51,0v-2.09h2.09v2.09h-2.09Zm12.51,0v-2.09h2.09v2.09h-2.09Zm12.51,0v-2.09h2.09v2.09h-2.09Zm12.51,0v-2.09h2.09v2.09h-2.09Zm12.51,0v-2.09h2.09v2.09h-2.09Zm12.51,0v-2.09h2.09v2.09h-2.09Zm12.51,0v-2.09h2.09v2.09h-2.09Zm12.51,0v-2.09h2.09v2.09h-2.09Zm12.51,0v-2.09h2.09v2.09h-2.09Zm12.51,0v-2.09h2.09v2.09h-2.09Zm12.51,0v-2.09h2.09v2.09h-2.09Zm12.51,0v-2.09h2.09v2.09h-2.09Zm12.51,0v-2.09h2.09v2.09h-2.09Zm12.51,0v-2.09h2.09v2.09h-2.09Zm12.51,0v-2.09h2.09v2.09h-2.09Zm12.51,0v-2.09h2.09v2.09h-2.09Zm12.51,0v-2.09h2.09v2.09h-2.09Zm12.51,0v-2.09h2.09v2.09h-2.09Zm12.51,0v-2.09h2.09v2.09h-2.09Zm12.51,0v-2.09h2.09v2.09h-2.09Zm12.51,0v-2.09h2.09v2.09h-2.09Zm12.51,0v-2.09h2.09v2.09h-2.09Zm12.51,0v-2.09h2.09v2.09h-2.09Zm12.51,0v-2.09h2.09v2.09h-2.09Zm12.51,0v-2.09h2.09v2.09h-2.09Zm12.51,0v-2.09h2.09v2.09h-2.09Zm12.51,0v-2.09h2.09v2.09h-2.09Zm12.51,0v-2.09h2.09v2.09h-2.09Zm12.51,0v-2.09h2.09v2.09h-2.09Zm12.51,0v-2.09h2.09v2.09h-2.09Zm12.51,0v-2.09h2.09v2.09h-2.09Zm12.51,0v-2.09h2.09v2.09h-2.09Zm12.51,0v-2.09h2.09v2.09h-2.09Zm12.51,0v-2.09h2.09v2.09h-2.09Zm12.51,0v-2.09h2.09v2.09h-2.09Zm12.51,0v-2.09h2.09v2.09h-2.09Zm12.51,0v-2.09h2.09v2.09h-2.09Zm12.51,0v-2.09h2.09v2.09h-2.09Zm12.51,0v-2.09h2.09v2.09h-2.09Zm12.51,0v-2.09h2.09v2.09h-2.09Zm12.51,0v-2.09h2.09v2.09h-2.09Zm12.51,0v-2.09h2.09v2.09h-2.09Zm12.51,0v-2.09h2.09v2.09h-2.09Zm12.51,0v-2.09h2.09v2.09h-2.09Zm12.51,0v-2.09h2.09v2.09h-2.09Zm12.51,0v-2.09h2.09v2.09h-2.09Zm12.51,0v-2.09h2.09v2.09h-2.09Zm12.51,0v-2.09h2.09v2.09h-2.09Zm12.51,0v-2.09h2.09v2.09h-2.09Zm12.51,0v-2.09h2.09v2.09h-2.09Zm12.51,0v-2.09h2.09v2.09h-2.09Zm12.51,0v-2.09h2.09v2.09h-2.09Zm12.51,0v-2.09h2.09v2.09h-2.09Zm12.51,0v-2.09h2.09v2.09h-2.09Zm12.51,0v-2.09h2.09v2.09h-2.09Zm12.51,0v-2.09h2.09v2.09h-2.09Zm12.51,0v-2.09h2.09v2.09h-2.09Zm12.51,0v-2.09h2.09v2.09h-2.09Zm12.51,0v-2.09h2.09v2.09h-2.09Zm12.51,0v-2.09h2.09v2.09h-2.09Zm12.51,0v-2.09h2.09v2.09h-2.09Zm12.51,0v-2.09h2.09v2.09h-2.09Zm12.51,0v-2.09h2.09v2.09h-2.09Zm12.51,0v-2.09h2.09v2.09h-2.09Zm12.51,0v-2.09h2.09v2.09h-2.09Zm12.51,0v-2.09h2.09v2.09h-2.09Zm12.51,0v-2.09h2.09v2.09h-2.09Zm12.51,0v-2.09h2.09v2.09h-2.09Zm12.51,0v-2.09h2.09v2.09h-2.09Zm12.51,0v-2.09h2.09v2.09h-2.09Zm12.51,0v-2.09h2.09v2.09h-2.09Zm12.51,0v-2.09h2.09v2.09h-2.09Zm12.51,0v-2.09h2.09v2.09h-2.09Zm12.51,0v-2.09h2.09v2.09h-2.09Zm12.51,0v-2.09h2.09v2.09h-2.09Zm12.51,0v-2.09h2.09v2.09h-2.09Zm12.51,0v-2.09h2.09v2.09h-2.09Zm12.51,0v-2.09h2.09v2.09h-2.09Zm12.51,0v-2.09h2.09v2.09h-2.09Zm12.51,0v-2.09h2.09v2.09h-2.09Zm12.51,0v-2.09h2.09v2.09h-2.09Zm12.51,0v-2.09h2.09v2.09h-2.09Zm12.51,0v-2.09h2.09v2.09h-2.09Zm12.51,0v-2.09h2.09v2.09h-2.09Zm12.51,0v-2.09h2.09v2.09h-2.09Zm12.51,0v-2.09h2.09v2.09h-2.09Zm12.51,0v-2.09h2.09v2.09h-2.09Zm12.51,0v-2.09h2.09v2.09h-2.09Zm12.51,0v-2.09h2.09v2.09h-2.09Zm12.51,0v-2.09h2.09v2.09h-2.09Zm12.51,0v-2.09h2.09v2.09h-2.09Zm12.51,0v-2.09h2.09v2.09h-2.09Zm12.51,0v-2.09h2.09v2.09h-2.09Zm12.51,0v-2.09h2.09v2.09h-2.09Zm12.51,0v-2.09h2.09v2.09h-2.09Zm12.51,0v-2.09h2.09v2.09h-2.09Zm12.51,0v-2.09h2.09v2.09h-2.09Zm12.51,0v-2.09h2.09v2.09h-2.09Zm12.51,0v-2.09h2.09v2.09h-2.09Zm12.51,0v-2.09h2.09v2.09h-2.09Zm12.51,0v-2.09h2.09v2.09h-2.09Zm12.51,0v-2.09h2.09v2.09h-2.09Zm12.51,0v-2.09h2.09v2.09h-2.09Zm12.51,0v-2.09h2.09v2.09h-2.09Zm12.51,0v-2.09h2.09v2.09h-2.09Zm12.51,0v-2.09h2.09v2.09h-2.09Zm12.51,0v-2.09h2.09v2.09h-2.09Zm12.51,0v-2.09h2.09v2.09h-2.09Zm12.51,0v-2.09h2.09v2.09h-2.09Z"/><path class="cls-8" d="m7.83,878.72v-2.09h2.09v2.09h-2.09Zm12.51,0v-2.09h2.09v2.09h-2.09Zm12.51,0v-2.09h2.09v2.09h-2.09Zm12.51,0v-2.09h2.09v2.09h-2.09Zm12.51,0v-2.09h2.09v2.09h-2.09Zm12.51,0v-2.09h2.09v2.09h-2.09Zm12.51,0v-2.09h2.09v2.09h-2.09Zm12.51,0v-2.09h2.09v2.09h-2.09Zm12.51,0v-2.09h2.09v2.09h-2.09Zm12.51,0v-2.09h2.09v2.09h-2.09Zm12.51,0v-2.09h2.09v2.09h-2.09Zm12.51,0v-2.09h2.09v2.09h-2.09Zm12.51,0v-2.09h2.09v2.09h-2.09Zm12.51,0v-2.09h2.09v2.09h-2.09Zm12.51,0v-2.09h2.09v2.09h-2.09Zm12.51,0v-2.09h2.09v2.09h-2.09Zm12.51,0v-2.09h2.09v2.09h-2.09Zm12.51,0v-2.09h2.09v2.09h-2.09Zm12.51,0v-2.09h2.09v2.09h-2.09Zm12.51,0v-2.09h2.09v2.09h-2.09Zm12.51,0v-2.09h2.09v2.09h-2.09Zm12.51,0v-2.09h2.09v2.09h-2.09Zm12.51,0v-2.09h2.09v2.09h-2.09Zm12.51,0v-2.09h2.09v2.09h-2.09Zm12.51,0v-2.09h2.09v2.09h-2.09Zm12.51,0v-2.09h2.09v2.09h-2.09Zm12.51,0v-2.09h2.09v2.09h-2.09Zm12.51,0v-2.09h2.09v2.09h-2.09Zm12.51,0v-2.09h2.09v2.09h-2.09Zm12.51,0v-2.09h2.09v2.09h-2.09Zm12.51,0v-2.09h2.09v2.09h-2.09Zm12.51,0v-2.09h2.09v2.09h-2.09Zm12.51,0v-2.09h2.09v2.09h-2.09Zm12.51,0v-2.09h2.09v2.09h-2.09Zm12.51,0v-2.09h2.09v2.09h-2.09Zm12.51,0v-2.09h2.09v2.09h-2.09Zm12.51,0v-2.09h2.09v2.09h-2.09Zm12.51,0v-2.09h2.09v2.09h-2.09Zm12.51,0v-2.09h2.09v2.09h-2.09Zm12.51,0v-2.09h2.09v2.09h-2.09Zm12.51,0v-2.09h2.09v2.09h-2.09Zm12.51,0v-2.09h2.09v2.09h-2.09Zm12.51,0v-2.09h2.09v2.09h-2.09Zm12.51,0v-2.09h2.09v2.09h-2.09Zm12.51,0v-2.09h2.09v2.09h-2.09Zm12.51,0v-2.09h2.09v2.09h-2.09Zm12.51,0v-2.09h2.09v2.09h-2.09Zm12.51,0v-2.09h2.09v2.09h-2.09Zm12.51,0v-2.09h2.09v2.09h-2.09Zm12.51,0v-2.09h2.09v2.09h-2.09Zm12.51,0v-2.09h2.09v2.09h-2.09Zm12.51,0v-2.09h2.09v2.09h-2.09Zm12.51,0v-2.09h2.09v2.09h-2.09Zm12.51,0v-2.09h2.09v2.09h-2.09Zm12.51,0v-2.09h2.09v2.09h-2.09Zm12.51,0v-2.09h2.09v2.09h-2.09Zm12.51,0v-2.09h2.09v2.09h-2.09Zm12.51,0v-2.09h2.09v2.09h-2.09Zm12.51,0v-2.09h2.09v2.09h-2.09Zm12.51,0v-2.09h2.09v2.09h-2.09Zm12.51,0v-2.09h2.09v2.09h-2.09Zm12.51,0v-2.09h2.09v2.09h-2.09Zm12.51,0v-2.09h2.09v2.09h-2.09Zm12.51,0v-2.09h2.09v2.09h-2.09Zm12.51,0v-2.09h2.09v2.09h-2.09Zm12.51,0v-2.09h2.09v2.09h-2.09Zm12.51,0v-2.09h2.09v2.09h-2.09Zm12.51,0v-2.09h2.09v2.09h-2.09Zm12.51,0v-2.09h2.09v2.09h-2.09Zm12.51,0v-2.09h2.09v2.09h-2.09Zm12.51,0v-2.09h2.09v2.09h-2.09Zm12.51,0v-2.09h2.09v2.09h-2.09Zm12.51,0v-2.09h2.09v2.09h-2.09Zm12.51,0v-2.09h2.09v2.09h-2.09Zm12.51,0v-2.09h2.09v2.09h-2.09Zm12.51,0v-2.09h2.09v2.09h-2.09Zm12.51,0v-2.09h2.09v2.09h-2.09Zm12.51,0v-2.09h2.09v2.09h-2.09Zm12.51,0v-2.09h2.09v2.09h-2.09Zm12.51,0v-2.09h2.09v2.09h-2.09Zm12.51,0v-2.09h2.09v2.09h-2.09Zm12.51,0v-2.09h2.09v2.09h-2.09Zm12.51,0v-2.09h2.09v2.09h-2.09Zm12.51,0v-2.09h2.09v2.09h-2.09Zm12.51,0v-2.09h2.09v2.09h-2.09Zm12.51,0v-2.09h2.09v2.09h-2.09Zm12.51,0v-2.09h2.09v2.09h-2.09Zm12.51,0v-2.09h2.09v2.09h-2.09Zm12.51,0v-2.09h2.09v2.09h-2.09Zm12.51,0v-2.09h2.09v2.09h-2.09Zm12.51,0v-2.09h2.09v2.09h-2.09Zm12.51,0v-2.09h2.09v2.09h-2.09Zm12.51,0v-2.09h2.09v2.09h-2.09Zm12.51,0v-2.09h2.09v2.09h-2.09Zm12.51,0v-2.09h2.09v2.09h-2.09Zm12.51,0v-2.09h2.09v2.09h-2.09Zm12.51,0v-2.09h2.09v2.09h-2.09Zm12.51,0v-2.09h2.09v2.09h-2.09Zm12.51,0v-2.09h2.09v2.09h-2.09Zm12.51,0v-2.09h2.09v2.09h-2.09Zm12.51,0v-2.09h2.09v2.09h-2.09Zm12.51,0v-2.09h2.09v2.09h-2.09Zm12.51,0v-2.09h2.09v2.09h-2.09Zm12.51,0v-2.09h2.09v2.09h-2.09Zm12.51,0v-2.09h2.09v2.09h-2.09Zm12.51,0v-2.09h2.09v2.09h-2.09Zm12.51,0v-2.09h2.09v2.09h-2.09Zm12.51,0v-2.09h2.09v2.09h-2.09Zm12.51,0v-2.09h2.09v2.09h-2.09Zm12.51,0v-2.09h2.09v2.09h-2.09Zm12.51,0v-2.09h2.09v2.09h-2.09Zm12.51,0v-2.09h2.09v2.09h-2.09Zm12.51,0v-2.09h2.09v2.09h-2.09Zm12.51,0v-2.09h2.09v2.09h-2.09Zm12.51,0v-2.09h2.09v2.09h-2.09Zm12.51,0v-2.09h2.09v2.09h-2.09Zm12.51,0v-2.09h2.09v2.09h-2.09Zm12.51,0v-2.09h2.09v2.09h-2.09Zm12.51,0v-2.09h2.09v2.09h-2.09Zm12.51,0v-2.09h2.09v2.09h-2.09Zm12.51,0v-2.09h2.09v2.09h-2.09Zm12.51,0v-2.09h2.09v2.09h-2.09Zm12.51,0v-2.09h2.09v2.09h-2.09Zm12.51,0v-2.09h2.09v2.09h-2.09Zm12.51,0v-2.09h2.09v2.09h-2.09Zm12.51,0v-2.09h2.09v2.09h-2.09Zm12.51,0v-2.09h2.09v2.09h-2.09Zm12.51,0v-2.09h2.09v2.09h-2.09Zm12.51,0v-2.09h2.09v2.09h-2.09Zm12.51,0v-2.09h2.09v2.09h-2.09Zm12.51,0v-2.09h2.09v2.09h-2.09Zm12.51,0v-2.09h2.09v2.09h-2.09Z"/><path class="cls-8" d="m1365.78,1161.35v-2.09h2.09v2.09h-2.09Zm0-12.51v-2.09h2.09v2.09h-2.09Zm0-12.51v-2.09h2.09v2.09h-2.09Zm0-12.51v-2.09h2.09v2.09h-2.09Zm0-12.51v-2.09h2.09v2.09h-2.09Zm0-12.51v-2.09h2.09v2.09h-2.09Zm0-12.51v-2.09h2.09v2.09h-2.09Zm0-12.51v-2.09h2.09v2.09h-2.09Zm0-12.51v-2.09h2.09v2.09h-2.09Zm0-12.51v-2.09h2.09v2.09h-2.09Zm0-12.51v-2.09h2.09v2.09h-2.09Zm0-12.51v-2.09h2.09v2.09h-2.09Zm0-12.51v-2.09h2.09v2.09h-2.09Zm0-12.51v-2.09h2.09v2.09h-2.09Zm0-12.51v-2.09h2.09v2.09h-2.09Zm0-12.51v-2.09h2.09v2.09h-2.09Zm0-12.51v-2.08h2.09v2.08h-2.09Zm0-12.51v-2.09h2.09v2.09h-2.09Zm0-12.51v-2.09h2.09v2.09h-2.09Zm0-12.51v-2.09h2.09v2.09h-2.09Zm0-12.51v-2.08h2.09v2.08h-2.09Zm0-12.51v-2.09h2.09v2.09h-2.09Zm0-12.51v-2.09h2.09v2.09h-2.09Zm0-12.51v-2.09h2.09v2.09h-2.09Zm0-12.51v-2.09h2.09v2.09h-2.09Zm0-12.51v-2.09h2.09v2.09h-2.09Zm0-12.51v-2.09h2.09v2.09h-2.09Zm0-12.51v-2.09h2.09v2.09h-2.09Zm0-12.51v-2.09h2.09v2.09h-2.09Zm0-12.51v-2.09h2.09v2.09h-2.09Zm0-12.51v-2.09h2.09v2.09h-2.09Zm0-12.51v-2.09h2.09v2.09h-2.09Zm0-12.51v-2.09h2.09v2.09h-2.09Zm0-12.51v-2.09h2.09v2.09h-2.09Zm0-12.51v-2.09h2.09v2.09h-2.09Zm0-12.51v-2.09h2.09v2.09h-2.09Zm0-12.51v-2.09h2.09v2.09h-2.09Zm0-12.51v-2.09h2.09v2.09h-2.09Zm0-12.51v-2.09h2.09v2.09h-2.09Zm0-12.51v-2.09h2.09v2.09h-2.09Zm0-12.51v-2.08h2.09v2.08h-2.09Zm0-12.51v-2.09h2.09v2.09h-2.09Zm0-12.51v-2.09h2.09v2.09h-2.09Zm0-12.51v-2.09h2.09v2.09h-2.09Zm0-12.51v-2.09h2.09v2.09h-2.09Zm0-12.51v-2.09h2.09v2.09h-2.09Zm0-12.51v-2.09h2.09v2.09h-2.09Zm0-12.51v-2.09h2.09v2.09h-2.09Zm0-12.51v-2.09h2.09v2.09h-2.09Zm0-12.51v-2.08h2.09v2.08h-2.09Zm0-12.51v-2.09h2.09v2.09h-2.09Zm0-12.51v-2.09h2.09v2.09h-2.09Zm0-12.51v-2.09h2.09v2.09h-2.09Zm0-12.51v-2.09h2.09v2.09h-2.09Zm0-12.51v-2.09h2.09v2.09h-2.09Zm0-12.51v-2.09h2.09v2.09h-2.09Zm0-12.51v-2.09h2.09v2.09h-2.09Zm0-12.51v-2.09h2.09v2.09h-2.09Zm0-12.51v-2.09h2.09v2.09h-2.09Zm0-12.51v-2.09h2.09v2.09h-2.09Zm0-12.51v-2.08h2.09v2.08h-2.09Zm0-12.51v-2.09h2.09v2.09h-2.09Zm0-12.51v-2.09h2.09v2.09h-2.09Zm0-12.51v-2.09h2.09v2.09h-2.09Zm0-12.51v-2.09h2.09v2.09h-2.09Zm0-12.51v-2.09h2.09v2.09h-2.09Zm0-12.51v-2.09h2.09v2.09h-2.09Zm0-12.51v-2.09h2.09v2.09h-2.09Zm0-12.51v-2.09h2.09v2.09h-2.09Zm0-12.51v-2.09h2.09v2.09h-2.09Zm0-12.51v-2.09h2.09v2.09h-2.09Zm0-12.51v-2.09h2.09v2.09h-2.09Zm0-12.51v-2.09h2.09v2.09h-2.09Zm0-12.51v-2.09h2.09v2.09h-2.09Zm0-12.51v-2.09h2.09v2.09h-2.09Zm0-12.51v-2.09h2.09v2.09h-2.09Zm0-12.51v-2.09h2.09v2.09h-2.09Zm0-12.51v-2.09h2.09v2.09h-2.09Zm0-12.51v-2.09h2.09v2.09h-2.09Zm0-12.51v-2.09h2.09v2.09h-2.09Zm0-12.51v-2.09h2.09v2.09h-2.09Zm0-12.51v-2.09h2.09v2.09h-2.09Zm0-12.51v-2.09h2.09v2.09h-2.09Zm0-12.51v-2.09h2.09v2.09h-2.09Zm0-12.51v-2.09h2.09v2.09h-2.09Zm0-12.51v-2.09h2.09v2.09h-2.09Zm0-12.51v-2.09h2.09v2.09h-2.09Zm0-12.51v-2.09h2.09v2.09h-2.09Zm0-12.51v-2.09h2.09v2.09h-2.09Zm0-12.51v-2.09h2.09v2.09h-2.09Zm0-12.51v-2.09h2.09v2.09h-2.09Zm0-12.51v-2.09h2.09v2.09h-2.09Zm0-12.51v-2.09h2.09v2.09h-2.09Z"/><path class="cls-8" d="m1267.89,1161.35v-2.09h2.09v2.09h-2.09Zm0-12.51v-2.09h2.09v2.09h-2.09Zm0-12.51v-2.09h2.09v2.09h-2.09Zm0-12.51v-2.09h2.09v2.09h-2.09Zm0-12.51v-2.09h2.09v2.09h-2.09Zm0-12.51v-2.09h2.09v2.09h-2.09Zm0-12.51v-2.09h2.09v2.09h-2.09Zm0-12.51v-2.09h2.09v2.09h-2.09Zm0-12.51v-2.09h2.09v2.09h-2.09Zm0-12.51v-2.09h2.09v2.09h-2.09Zm0-12.51v-2.09h2.09v2.09h-2.09Zm0-12.51v-2.09h2.09v2.09h-2.09Zm0-12.51v-2.09h2.09v2.09h-2.09Zm0-12.51v-2.09h2.09v2.09h-2.09Zm0-12.51v-2.09h2.09v2.09h-2.09Zm0-12.51v-2.09h2.09v2.09h-2.09Zm0-12.51v-2.08h2.09v2.08h-2.09Zm0-12.51v-2.09h2.09v2.09h-2.09Zm0-12.51v-2.09h2.09v2.09h-2.09Zm0-12.51v-2.09h2.09v2.09h-2.09Zm0-12.51v-2.08h2.09v2.08h-2.09Zm0-12.51v-2.09h2.09v2.09h-2.09Zm0-12.51v-2.09h2.09v2.09h-2.09Zm0-12.51v-2.09h2.09v2.09h-2.09Zm0-12.51v-2.09h2.09v2.09h-2.09Zm0-12.51v-2.09h2.09v2.09h-2.09Zm0-12.51v-2.09h2.09v2.09h-2.09Zm0-12.51v-2.09h2.09v2.09h-2.09Zm0-12.51v-2.09h2.09v2.09h-2.09Zm0-12.51v-2.09h2.09v2.09h-2.09Zm0-12.51v-2.09h2.09v2.09h-2.09Zm0-12.51v-2.09h2.09v2.09h-2.09Zm0-12.51v-2.09h2.09v2.09h-2.09Zm0-12.51v-2.09h2.09v2.09h-2.09Zm0-12.51v-2.09h2.09v2.09h-2.09Zm0-12.51v-2.09h2.09v2.09h-2.09Zm0-12.51v-2.09h2.09v2.09h-2.09Zm0-12.51v-2.09h2.09v2.09h-2.09Zm0-12.51v-2.09h2.09v2.09h-2.09Zm0-12.51v-2.09h2.09v2.09h-2.09Zm0-12.51v-2.08h2.09v2.08h-2.09Zm0-12.51v-2.09h2.09v2.09h-2.09Zm0-12.51v-2.09h2.09v2.09h-2.09Zm0-12.51v-2.09h2.09v2.09h-2.09Zm0-12.51v-2.09h2.09v2.09h-2.09Zm0-12.51v-2.09h2.09v2.09h-2.09Zm0-12.51v-2.09h2.09v2.09h-2.09Zm0-12.51v-2.09h2.09v2.09h-2.09Zm0-12.51v-2.09h2.09v2.09h-2.09Zm0-12.51v-2.08h2.09v2.08h-2.09Zm0-12.51v-2.09h2.09v2.09h-2.09Zm0-12.51v-2.09h2.09v2.09h-2.09Zm0-12.51v-2.09h2.09v2.09h-2.09Zm0-12.51v-2.09h2.09v2.09h-2.09Zm0-12.51v-2.09h2.09v2.09h-2.09Zm0-12.51v-2.09h2.09v2.09h-2.09Zm0-12.51v-2.09h2.09v2.09h-2.09Zm0-12.51v-2.09h2.09v2.09h-2.09Zm0-12.51v-2.09h2.09v2.09h-2.09Zm0-12.51v-2.09h2.09v2.09h-2.09Zm0-12.51v-2.08h2.09v2.08h-2.09Zm0-12.51v-2.09h2.09v2.09h-2.09Zm0-12.51v-2.09h2.09v2.09h-2.09Zm0-12.51v-2.09h2.09v2.09h-2.09Zm0-12.51v-2.09h2.09v2.09h-2.09Zm0-12.51v-2.09h2.09v2.09h-2.09Zm0-12.51v-2.09h2.09v2.09h-2.09Zm0-12.51v-2.09h2.09v2.09h-2.09Zm0-12.51v-2.09h2.09v2.09h-2.09Zm0-12.51v-2.09h2.09v2.09h-2.09Zm0-12.51v-2.09h2.09v2.09h-2.09Zm0-12.51v-2.09h2.09v2.09h-2.09Zm0-12.51v-2.09h2.09v2.09h-2.09Zm0-12.51v-2.09h2.09v2.09h-2.09Zm0-12.51v-2.09h2.09v2.09h-2.09Zm0-12.51v-2.09h2.09v2.09h-2.09Zm0-12.51v-2.09h2.09v2.09h-2.09Zm0-12.51v-2.09h2.09v2.09h-2.09Zm0-12.51v-2.09h2.09v2.09h-2.09Zm0-12.51v-2.09h2.09v2.09h-2.09Zm0-12.51v-2.09h2.09v2.09h-2.09Zm0-12.51v-2.09h2.09v2.09h-2.09Zm0-12.51v-2.09h2.09v2.09h-2.09Zm0-12.51v-2.09h2.09v2.09h-2.09Zm0-12.51v-2.09h2.09v2.09h-2.09Zm0-12.51v-2.09h2.09v2.09h-2.09Zm0-12.51v-2.09h2.09v2.09h-2.09Zm0-12.51v-2.09h2.09v2.09h-2.09Zm0-12.51v-2.09h2.09v2.09h-2.09Zm0-12.51v-2.09h2.09v2.09h-2.09Zm0-12.51v-2.09h2.09v2.09h-2.09Zm0-12.51v-2.09h2.09v2.09h-2.09Zm0-12.51v-2.09h2.09v2.09h-2.09Z"/><path class="cls-8" d="m1170,1161.35v-2.09h2.09v2.09h-2.09Zm0-12.51v-2.09h2.09v2.09h-2.09Zm0-12.51v-2.09h2.09v2.09h-2.09Zm0-12.51v-2.09h2.09v2.09h-2.09Zm0-12.51v-2.09h2.09v2.09h-2.09Zm0-12.51v-2.09h2.09v2.09h-2.09Zm0-12.51v-2.09h2.09v2.09h-2.09Zm0-12.51v-2.09h2.09v2.09h-2.09Zm0-12.51v-2.09h2.09v2.09h-2.09Zm0-12.51v-2.09h2.09v2.09h-2.09Zm0-12.51v-2.09h2.09v2.09h-2.09Zm0-12.51v-2.09h2.09v2.09h-2.09Zm0-12.51v-2.09h2.09v2.09h-2.09Zm0-12.51v-2.09h2.09v2.09h-2.09Zm0-12.51v-2.09h2.09v2.09h-2.09Zm0-12.51v-2.09h2.09v2.09h-2.09Zm0-12.51v-2.08h2.09v2.08h-2.09Zm0-12.51v-2.09h2.09v2.09h-2.09Zm0-12.51v-2.09h2.09v2.09h-2.09Zm0-12.51v-2.09h2.09v2.09h-2.09Zm0-12.51v-2.08h2.09v2.08h-2.09Zm0-12.51v-2.09h2.09v2.09h-2.09Zm0-12.51v-2.09h2.09v2.09h-2.09Zm0-12.51v-2.09h2.09v2.09h-2.09Zm0-12.51v-2.09h2.09v2.09h-2.09Zm0-12.51v-2.09h2.09v2.09h-2.09Zm0-12.51v-2.09h2.09v2.09h-2.09Zm0-12.51v-2.09h2.09v2.09h-2.09Zm0-12.51v-2.09h2.09v2.09h-2.09Zm0-12.51v-2.09h2.09v2.09h-2.09Zm0-12.51v-2.09h2.09v2.09h-2.09Zm0-12.51v-2.09h2.09v2.09h-2.09Zm0-12.51v-2.09h2.09v2.09h-2.09Zm0-12.51v-2.09h2.09v2.09h-2.09Zm0-12.51v-2.09h2.09v2.09h-2.09Zm0-12.51v-2.09h2.09v2.09h-2.09Zm0-12.51v-2.09h2.09v2.09h-2.09Zm0-12.51v-2.09h2.09v2.09h-2.09Zm0-12.51v-2.09h2.09v2.09h-2.09Zm0-12.51v-2.09h2.09v2.09h-2.09Zm0-12.51v-2.08h2.09v2.08h-2.09Zm0-12.51v-2.09h2.09v2.09h-2.09Zm0-12.51v-2.09h2.09v2.09h-2.09Zm0-12.51v-2.09h2.09v2.09h-2.09Zm0-12.51v-2.09h2.09v2.09h-2.09Zm0-12.51v-2.09h2.09v2.09h-2.09Zm0-12.51v-2.09h2.09v2.09h-2.09Zm0-12.51v-2.09h2.09v2.09h-2.09Zm0-12.51v-2.09h2.09v2.09h-2.09Zm0-12.51v-2.08h2.09v2.08h-2.09Zm0-12.51v-2.09h2.09v2.09h-2.09Zm0-12.51v-2.09h2.09v2.09h-2.09Zm0-12.51v-2.09h2.09v2.09h-2.09Zm0-12.51v-2.09h2.09v2.09h-2.09Zm0-12.51v-2.09h2.09v2.09h-2.09Zm0-12.51v-2.09h2.09v2.09h-2.09Zm0-12.51v-2.09h2.09v2.09h-2.09Zm0-12.51v-2.09h2.09v2.09h-2.09Zm0-12.51v-2.09h2.09v2.09h-2.09Zm0-12.51v-2.09h2.09v2.09h-2.09Zm0-12.51v-2.08h2.09v2.08h-2.09Zm0-12.51v-2.09h2.09v2.09h-2.09Zm0-12.51v-2.09h2.09v2.09h-2.09Zm0-12.51v-2.09h2.09v2.09h-2.09Zm0-12.51v-2.09h2.09v2.09h-2.09Zm0-12.51v-2.09h2.09v2.09h-2.09Zm0-12.51v-2.09h2.09v2.09h-2.09Zm0-12.51v-2.09h2.09v2.09h-2.09Zm0-12.51v-2.09h2.09v2.09h-2.09Zm0-12.51v-2.09h2.09v2.09h-2.09Zm0-12.51v-2.09h2.09v2.09h-2.09Zm0-12.51v-2.09h2.09v2.09h-2.09Zm0-12.51v-2.09h2.09v2.09h-2.09Zm0-12.51v-2.09h2.09v2.09h-2.09Zm0-12.51v-2.09h2.09v2.09h-2.09Zm0-12.51v-2.09h2.09v2.09h-2.09Zm0-12.51v-2.09h2.09v2.09h-2.09Zm0-12.51v-2.09h2.09v2.09h-2.09Zm0-12.51v-2.09h2.09v2.09h-2.09Zm0-12.51v-2.09h2.09v2.09h-2.09Zm0-12.51v-2.09h2.09v2.09h-2.09Zm0-12.51v-2.09h2.09v2.09h-2.09Zm0-12.51v-2.09h2.09v2.09h-2.09Zm0-12.51v-2.09h2.09v2.09h-2.09Zm0-12.51v-2.09h2.09v2.09h-2.09Zm0-12.51v-2.09h2.09v2.09h-2.09Zm0-12.51v-2.09h2.09v2.09h-2.09Zm0-12.51v-2.09h2.09v2.09h-2.09Zm0-12.51v-2.09h2.09v2.09h-2.09Zm0-12.51v-2.09h2.09v2.09h-2.09Zm0-12.51v-2.09h2.09v2.09h-2.09Zm0-12.51v-2.09h2.09v2.09h-2.09Zm0-12.51v-2.09h2.09v2.09h-2.09Z"/><path class="cls-8" d="m1072.11,1161.35v-2.09h2.09v2.09h-2.09Zm0-12.51v-2.09h2.09v2.09h-2.09Zm0-12.51v-2.09h2.09v2.09h-2.09Zm0-12.51v-2.09h2.09v2.09h-2.09Zm0-12.51v-2.09h2.09v2.09h-2.09Zm0-12.51v-2.09h2.09v2.09h-2.09Zm0-12.51v-2.09h2.09v2.09h-2.09Zm0-12.51v-2.09h2.09v2.09h-2.09Zm0-12.51v-2.09h2.09v2.09h-2.09Zm0-12.51v-2.09h2.09v2.09h-2.09Zm0-12.51v-2.09h2.09v2.09h-2.09Zm0-12.51v-2.09h2.09v2.09h-2.09Zm0-12.51v-2.09h2.09v2.09h-2.09Zm0-12.51v-2.09h2.09v2.09h-2.09Zm0-12.51v-2.09h2.09v2.09h-2.09Zm0-12.51v-2.09h2.09v2.09h-2.09Zm0-12.51v-2.08h2.09v2.08h-2.09Zm0-12.51v-2.09h2.09v2.09h-2.09Zm0-12.51v-2.09h2.09v2.09h-2.09Zm0-12.51v-2.09h2.09v2.09h-2.09Zm0-12.51v-2.08h2.09v2.08h-2.09Zm0-12.51v-2.09h2.09v2.09h-2.09Zm0-12.51v-2.09h2.09v2.09h-2.09Zm0-12.51v-2.09h2.09v2.09h-2.09Zm0-12.51v-2.09h2.09v2.09h-2.09Zm0-12.51v-2.09h2.09v2.09h-2.09Zm0-12.51v-2.09h2.09v2.09h-2.09Zm0-12.51v-2.09h2.09v2.09h-2.09Zm0-12.51v-2.09h2.09v2.09h-2.09Zm0-12.51v-2.09h2.09v2.09h-2.09Zm0-12.51v-2.09h2.09v2.09h-2.09Zm0-12.51v-2.09h2.09v2.09h-2.09Zm0-12.51v-2.09h2.09v2.09h-2.09Zm0-12.51v-2.09h2.09v2.09h-2.09Zm0-12.51v-2.09h2.09v2.09h-2.09Zm0-12.51v-2.09h2.09v2.09h-2.09Zm0-12.51v-2.09h2.09v2.09h-2.09Zm0-12.51v-2.09h2.09v2.09h-2.09Zm0-12.51v-2.09h2.09v2.09h-2.09Zm0-12.51v-2.09h2.09v2.09h-2.09Zm0-12.51v-2.08h2.09v2.08h-2.09Zm0-12.51v-2.09h2.09v2.09h-2.09Zm0-12.51v-2.09h2.09v2.09h-2.09Zm0-12.51v-2.09h2.09v2.09h-2.09Zm0-12.51v-2.09h2.09v2.09h-2.09Zm0-12.51v-2.09h2.09v2.09h-2.09Zm0-12.51v-2.09h2.09v2.09h-2.09Zm0-12.51v-2.09h2.09v2.09h-2.09Zm0-12.51v-2.09h2.09v2.09h-2.09Zm0-12.51v-2.08h2.09v2.08h-2.09Zm0-12.51v-2.09h2.09v2.09h-2.09Zm0-12.51v-2.09h2.09v2.09h-2.09Zm0-12.51v-2.09h2.09v2.09h-2.09Zm0-12.51v-2.09h2.09v2.09h-2.09Zm0-12.51v-2.09h2.09v2.09h-2.09Zm0-12.51v-2.09h2.09v2.09h-2.09Zm0-12.51v-2.09h2.09v2.09h-2.09Zm0-12.51v-2.09h2.09v2.09h-2.09Zm0-12.51v-2.09h2.09v2.09h-2.09Zm0-12.51v-2.09h2.09v2.09h-2.09Zm0-12.51v-2.08h2.09v2.08h-2.09Zm0-12.51v-2.09h2.09v2.09h-2.09Zm0-12.51v-2.09h2.09v2.09h-2.09Zm0-12.51v-2.09h2.09v2.09h-2.09Zm0-12.51v-2.09h2.09v2.09h-2.09Zm0-12.51v-2.09h2.09v2.09h-2.09Zm0-12.51v-2.09h2.09v2.09h-2.09Zm0-12.51v-2.09h2.09v2.09h-2.09Zm0-12.51v-2.09h2.09v2.09h-2.09Zm0-12.51v-2.09h2.09v2.09h-2.09Zm0-12.51v-2.09h2.09v2.09h-2.09Zm0-12.51v-2.09h2.09v2.09h-2.09Zm0-12.51v-2.09h2.09v2.09h-2.09Zm0-12.51v-2.09h2.09v2.09h-2.09Zm0-12.51v-2.09h2.09v2.09h-2.09Zm0-12.51v-2.09h2.09v2.09h-2.09Zm0-12.51v-2.09h2.09v2.09h-2.09Zm0-12.51v-2.09h2.09v2.09h-2.09Zm0-12.51v-2.09h2.09v2.09h-2.09Zm0-12.51v-2.09h2.09v2.09h-2.09Zm0-12.51v-2.09h2.09v2.09h-2.09Zm0-12.51v-2.09h2.09v2.09h-2.09Zm0-12.51v-2.09h2.09v2.09h-2.09Zm0-12.51v-2.09h2.09v2.09h-2.09Zm0-12.51v-2.09h2.09v2.09h-2.09Zm0-12.51v-2.09h2.09v2.09h-2.09Zm0-12.51v-2.09h2.09v2.09h-2.09Zm0-12.51v-2.09h2.09v2.09h-2.09Zm0-12.51v-2.09h2.09v2.09h-2.09Zm0-12.51v-2.09h2.09v2.09h-2.09Zm0-12.51v-2.09h2.09v2.09h-2.09Zm0-12.51v-2.09h2.09v2.09h-2.09Zm0-12.51v-2.09h2.09v2.09h-2.09Z"/><path class="cls-8" d="m974.22,1161.35v-2.09h2.09v2.09h-2.09Zm0-12.51v-2.09h2.09v2.09h-2.09Zm0-12.51v-2.09h2.09v2.09h-2.09Zm0-12.51v-2.09h2.09v2.09h-2.09Zm0-12.51v-2.09h2.09v2.09h-2.09Zm0-12.51v-2.09h2.09v2.09h-2.09Zm0-12.51v-2.09h2.09v2.09h-2.09Zm0-12.51v-2.09h2.09v2.09h-2.09Zm0-12.51v-2.09h2.09v2.09h-2.09Zm0-12.51v-2.09h2.09v2.09h-2.09Zm0-12.51v-2.09h2.09v2.09h-2.09Zm0-12.51v-2.09h2.09v2.09h-2.09Zm0-12.51v-2.09h2.09v2.09h-2.09Zm0-12.51v-2.09h2.09v2.09h-2.09Zm0-12.51v-2.09h2.09v2.09h-2.09Zm0-12.51v-2.09h2.09v2.09h-2.09Zm0-12.51v-2.08h2.09v2.08h-2.09Zm0-12.51v-2.09h2.09v2.09h-2.09Zm0-12.51v-2.09h2.09v2.09h-2.09Zm0-12.51v-2.09h2.09v2.09h-2.09Zm0-12.51v-2.08h2.09v2.08h-2.09Zm0-12.51v-2.09h2.09v2.09h-2.09Zm0-12.51v-2.09h2.09v2.09h-2.09Zm0-12.51v-2.09h2.09v2.09h-2.09Zm0-12.51v-2.09h2.09v2.09h-2.09Zm0-12.51v-2.09h2.09v2.09h-2.09Zm0-12.51v-2.09h2.09v2.09h-2.09Zm0-12.51v-2.09h2.09v2.09h-2.09Zm0-12.51v-2.09h2.09v2.09h-2.09Zm0-12.51v-2.09h2.09v2.09h-2.09Zm0-12.51v-2.09h2.09v2.09h-2.09Zm0-12.51v-2.09h2.09v2.09h-2.09Zm0-12.51v-2.09h2.09v2.09h-2.09Zm0-12.51v-2.09h2.09v2.09h-2.09Zm0-12.51v-2.09h2.09v2.09h-2.09Zm0-12.51v-2.09h2.09v2.09h-2.09Zm0-12.51v-2.09h2.09v2.09h-2.09Zm0-12.51v-2.09h2.09v2.09h-2.09Zm0-12.51v-2.09h2.09v2.09h-2.09Zm0-12.51v-2.09h2.09v2.09h-2.09Zm0-12.51v-2.08h2.09v2.08h-2.09Zm0-12.51v-2.09h2.09v2.09h-2.09Zm0-12.51v-2.09h2.09v2.09h-2.09Zm0-12.51v-2.09h2.09v2.09h-2.09Zm0-12.51v-2.09h2.09v2.09h-2.09Zm0-12.51v-2.09h2.09v2.09h-2.09Zm0-12.51v-2.09h2.09v2.09h-2.09Zm0-12.51v-2.09h2.09v2.09h-2.09Zm0-12.51v-2.09h2.09v2.09h-2.09Zm0-12.51v-2.08h2.09v2.08h-2.09Zm0-12.51v-2.09h2.09v2.09h-2.09Zm0-12.51v-2.09h2.09v2.09h-2.09Zm0-12.51v-2.09h2.09v2.09h-2.09Zm0-12.51v-2.09h2.09v2.09h-2.09Zm0-12.51v-2.09h2.09v2.09h-2.09Zm0-12.51v-2.09h2.09v2.09h-2.09Zm0-12.51v-2.09h2.09v2.09h-2.09Zm0-12.51v-2.09h2.09v2.09h-2.09Zm0-12.51v-2.09h2.09v2.09h-2.09Zm0-12.51v-2.09h2.09v2.09h-2.09Zm0-12.51v-2.08h2.09v2.08h-2.09Zm0-12.51v-2.09h2.09v2.09h-2.09Zm0-12.51v-2.09h2.09v2.09h-2.09Zm0-12.51v-2.09h2.09v2.09h-2.09Zm0-12.51v-2.09h2.09v2.09h-2.09Zm0-12.51v-2.09h2.09v2.09h-2.09Zm0-12.51v-2.09h2.09v2.09h-2.09Zm0-12.51v-2.09h2.09v2.09h-2.09Zm0-12.51v-2.09h2.09v2.09h-2.09Zm0-12.51v-2.09h2.09v2.09h-2.09Zm0-12.51v-2.09h2.09v2.09h-2.09Zm0-12.51v-2.09h2.09v2.09h-2.09Zm0-12.51v-2.09h2.09v2.09h-2.09Zm0-12.51v-2.09h2.09v2.09h-2.09Zm0-12.51v-2.09h2.09v2.09h-2.09Zm0-12.51v-2.09h2.09v2.09h-2.09Zm0-12.51v-2.09h2.09v2.09h-2.09Zm0-12.51v-2.09h2.09v2.09h-2.09Zm0-12.51v-2.09h2.09v2.09h-2.09Zm0-12.51v-2.09h2.09v2.09h-2.09Zm0-12.51v-2.09h2.09v2.09h-2.09Zm0-12.51v-2.09h2.09v2.09h-2.09Zm0-12.51v-2.09h2.09v2.09h-2.09Zm0-12.51v-2.09h2.09v2.09h-2.09Zm0-12.51v-2.09h2.09v2.09h-2.09Zm0-12.51v-2.09h2.09v2.09h-2.09Zm0-12.51v-2.09h2.09v2.09h-2.09Zm0-12.51v-2.09h2.09v2.09h-2.09Zm0-12.51v-2.09h2.09v2.09h-2.09Zm0-12.51v-2.09h2.09v2.09h-2.09Zm0-12.51v-2.09h2.09v2.09h-2.09Zm0-12.51v-2.09h2.09v2.09h-2.09Zm0-12.51v-2.09h2.09v2.09h-2.09Z"/><path class="cls-8" d="m876.33,1161.35v-2.09h2.09v2.09h-2.09Zm0-12.51v-2.09h2.09v2.09h-2.09Zm0-12.51v-2.09h2.09v2.09h-2.09Zm0-12.51v-2.09h2.09v2.09h-2.09Zm0-12.51v-2.09h2.09v2.09h-2.09Zm0-12.51v-2.09h2.09v2.09h-2.09Zm0-12.51v-2.09h2.09v2.09h-2.09Zm0-12.51v-2.09h2.09v2.09h-2.09Zm0-12.51v-2.09h2.09v2.09h-2.09Zm0-12.51v-2.09h2.09v2.09h-2.09Zm0-12.51v-2.09h2.09v2.09h-2.09Zm0-12.51v-2.09h2.09v2.09h-2.09Zm0-12.51v-2.09h2.09v2.09h-2.09Zm0-12.51v-2.09h2.09v2.09h-2.09Zm0-12.51v-2.09h2.09v2.09h-2.09Zm0-12.51v-2.09h2.09v2.09h-2.09Zm0-12.51v-2.08h2.09v2.08h-2.09Zm0-12.51v-2.09h2.09v2.09h-2.09Zm0-12.51v-2.09h2.09v2.09h-2.09Zm0-12.51v-2.09h2.09v2.09h-2.09Zm0-12.51v-2.08h2.09v2.08h-2.09Zm0-12.51v-2.09h2.09v2.09h-2.09Zm0-12.51v-2.09h2.09v2.09h-2.09Zm0-12.51v-2.09h2.09v2.09h-2.09Zm0-12.51v-2.09h2.09v2.09h-2.09Zm0-12.51v-2.09h2.09v2.09h-2.09Zm0-12.51v-2.09h2.09v2.09h-2.09Zm0-12.51v-2.09h2.09v2.09h-2.09Zm0-12.51v-2.09h2.09v2.09h-2.09Zm0-12.51v-2.09h2.09v2.09h-2.09Zm0-12.51v-2.09h2.09v2.09h-2.09Zm0-12.51v-2.09h2.09v2.09h-2.09Zm0-12.51v-2.09h2.09v2.09h-2.09Zm0-12.51v-2.09h2.09v2.09h-2.09Zm0-12.51v-2.09h2.09v2.09h-2.09Zm0-12.51v-2.09h2.09v2.09h-2.09Zm0-12.51v-2.09h2.09v2.09h-2.09Zm0-12.51v-2.09h2.09v2.09h-2.09Zm0-12.51v-2.09h2.09v2.09h-2.09Zm0-12.51v-2.09h2.09v2.09h-2.09Zm0-12.51v-2.08h2.09v2.08h-2.09Zm0-12.51v-2.09h2.09v2.09h-2.09Zm0-12.51v-2.09h2.09v2.09h-2.09Zm0-12.51v-2.09h2.09v2.09h-2.09Zm0-12.51v-2.09h2.09v2.09h-2.09Zm0-12.51v-2.09h2.09v2.09h-2.09Zm0-12.51v-2.09h2.09v2.09h-2.09Zm0-12.51v-2.09h2.09v2.09h-2.09Zm0-12.51v-2.09h2.09v2.09h-2.09Zm0-12.51v-2.08h2.09v2.08h-2.09Zm0-12.51v-2.09h2.09v2.09h-2.09Zm0-12.51v-2.09h2.09v2.09h-2.09Zm0-12.51v-2.09h2.09v2.09h-2.09Zm0-12.51v-2.09h2.09v2.09h-2.09Zm0-12.51v-2.09h2.09v2.09h-2.09Zm0-12.51v-2.09h2.09v2.09h-2.09Zm0-12.51v-2.09h2.09v2.09h-2.09Zm0-12.51v-2.09h2.09v2.09h-2.09Zm0-12.51v-2.09h2.09v2.09h-2.09Zm0-12.51v-2.09h2.09v2.09h-2.09Zm0-12.51v-2.08h2.09v2.08h-2.09Zm0-12.51v-2.09h2.09v2.09h-2.09Zm0-12.51v-2.09h2.09v2.09h-2.09Zm0-12.51v-2.09h2.09v2.09h-2.09Zm0-12.51v-2.09h2.09v2.09h-2.09Zm0-12.51v-2.09h2.09v2.09h-2.09Zm0-12.51v-2.09h2.09v2.09h-2.09Zm0-12.51v-2.09h2.09v2.09h-2.09Zm0-12.51v-2.09h2.09v2.09h-2.09Zm0-12.51v-2.09h2.09v2.09h-2.09Zm0-12.51v-2.09h2.09v2.09h-2.09Zm0-12.51v-2.09h2.09v2.09h-2.09Zm0-12.51v-2.09h2.09v2.09h-2.09Zm0-12.51v-2.09h2.09v2.09h-2.09Zm0-12.51v-2.09h2.09v2.09h-2.09Zm0-12.51v-2.09h2.09v2.09h-2.09Zm0-12.51v-2.09h2.09v2.09h-2.09Zm0-12.51v-2.09h2.09v2.09h-2.09Zm0-12.51v-2.09h2.09v2.09h-2.09Zm0-12.51v-2.09h2.09v2.09h-2.09Zm0-12.51v-2.09h2.09v2.09h-2.09Zm0-12.51v-2.09h2.09v2.09h-2.09Zm0-12.51v-2.09h2.09v2.09h-2.09Zm0-12.51v-2.09h2.09v2.09h-2.09Zm0-12.51v-2.09h2.09v2.09h-2.09Zm0-12.51v-2.09h2.09v2.09h-2.09Zm0-12.51v-2.09h2.09v2.09h-2.09Zm0-12.51v-2.09h2.09v2.09h-2.09Zm0-12.51v-2.09h2.09v2.09h-2.09Zm0-12.51v-2.09h2.09v2.09h-2.09Zm0-12.51v-2.09h2.09v2.09h-2.09Zm0-12.51v-2.09h2.09v2.09h-2.09Zm0-12.51v-2.09h2.09v2.09h-2.09Z"/><path class="cls-8" d="m778.44,1161.35v-2.09h2.09v2.09h-2.09Zm0-12.51v-2.09h2.09v2.09h-2.09Zm0-12.51v-2.09h2.09v2.09h-2.09Zm0-12.51v-2.09h2.09v2.09h-2.09Zm0-12.51v-2.09h2.09v2.09h-2.09Zm0-12.51v-2.09h2.09v2.09h-2.09Zm0-12.51v-2.09h2.09v2.09h-2.09Zm0-12.51v-2.09h2.09v2.09h-2.09Zm0-12.51v-2.09h2.09v2.09h-2.09Zm0-12.51v-2.09h2.09v2.09h-2.09Zm0-12.51v-2.09h2.09v2.09h-2.09Zm0-12.51v-2.09h2.09v2.09h-2.09Zm0-12.51v-2.09h2.09v2.09h-2.09Zm0-12.51v-2.09h2.09v2.09h-2.09Zm0-12.51v-2.09h2.09v2.09h-2.09Zm0-12.51v-2.09h2.09v2.09h-2.09Zm0-12.51v-2.08h2.09v2.08h-2.09Zm0-12.51v-2.09h2.09v2.09h-2.09Zm0-12.51v-2.09h2.09v2.09h-2.09Zm0-12.51v-2.09h2.09v2.09h-2.09Zm0-12.51v-2.08h2.09v2.08h-2.09Zm0-12.51v-2.09h2.09v2.09h-2.09Zm0-12.51v-2.09h2.09v2.09h-2.09Zm0-12.51v-2.09h2.09v2.09h-2.09Zm0-12.51v-2.09h2.09v2.09h-2.09Zm0-12.51v-2.09h2.09v2.09h-2.09Zm0-12.51v-2.09h2.09v2.09h-2.09Zm0-12.51v-2.09h2.09v2.09h-2.09Zm0-12.51v-2.09h2.09v2.09h-2.09Zm0-12.51v-2.09h2.09v2.09h-2.09Zm0-12.51v-2.09h2.09v2.09h-2.09Zm0-12.51v-2.09h2.09v2.09h-2.09Zm0-12.51v-2.09h2.09v2.09h-2.09Zm0-12.51v-2.09h2.09v2.09h-2.09Zm0-12.51v-2.09h2.09v2.09h-2.09Zm0-12.51v-2.09h2.09v2.09h-2.09Zm0-12.51v-2.09h2.09v2.09h-2.09Zm0-12.51v-2.09h2.09v2.09h-2.09Zm0-12.51v-2.09h2.09v2.09h-2.09Zm0-12.51v-2.09h2.09v2.09h-2.09Zm0-12.51v-2.08h2.09v2.08h-2.09Zm0-12.51v-2.09h2.09v2.09h-2.09Zm0-12.51v-2.09h2.09v2.09h-2.09Zm0-12.51v-2.09h2.09v2.09h-2.09Zm0-12.51v-2.09h2.09v2.09h-2.09Zm0-12.51v-2.09h2.09v2.09h-2.09Zm0-12.51v-2.09h2.09v2.09h-2.09Zm0-12.51v-2.09h2.09v2.09h-2.09Zm0-12.51v-2.09h2.09v2.09h-2.09Zm0-12.51v-2.08h2.09v2.08h-2.09Zm0-12.51v-2.09h2.09v2.09h-2.09Zm0-12.51v-2.09h2.09v2.09h-2.09Zm0-12.51v-2.09h2.09v2.09h-2.09Zm0-12.51v-2.09h2.09v2.09h-2.09Zm0-12.51v-2.09h2.09v2.09h-2.09Zm0-12.51v-2.09h2.09v2.09h-2.09Zm0-12.51v-2.09h2.09v2.09h-2.09Zm0-12.51v-2.09h2.09v2.09h-2.09Zm0-12.51v-2.09h2.09v2.09h-2.09Zm0-12.51v-2.09h2.09v2.09h-2.09Zm0-12.51v-2.08h2.09v2.08h-2.09Zm0-12.51v-2.09h2.09v2.09h-2.09Zm0-12.51v-2.09h2.09v2.09h-2.09Zm0-12.51v-2.09h2.09v2.09h-2.09Zm0-12.51v-2.09h2.09v2.09h-2.09Zm0-12.51v-2.09h2.09v2.09h-2.09Zm0-12.51v-2.09h2.09v2.09h-2.09Zm0-12.51v-2.09h2.09v2.09h-2.09Zm0-12.51v-2.09h2.09v2.09h-2.09Zm0-12.51v-2.09h2.09v2.09h-2.09Zm0-12.51v-2.09h2.09v2.09h-2.09Zm0-12.51v-2.09h2.09v2.09h-2.09Zm0-12.51v-2.09h2.09v2.09h-2.09Zm0-12.51v-2.09h2.09v2.09h-2.09Zm0-12.51v-2.09h2.09v2.09h-2.09Zm0-12.51v-2.09h2.09v2.09h-2.09Zm0-12.51v-2.09h2.09v2.09h-2.09Zm0-12.51v-2.09h2.09v2.09h-2.09Zm0-12.51v-2.09h2.09v2.09h-2.09Zm0-12.51v-2.09h2.09v2.09h-2.09Zm0-12.51v-2.09h2.09v2.09h-2.09Zm0-12.51v-2.09h2.09v2.09h-2.09Zm0-12.51v-2.09h2.09v2.09h-2.09Zm0-12.51v-2.09h2.09v2.09h-2.09Zm0-12.51v-2.09h2.09v2.09h-2.09Zm0-12.51v-2.09h2.09v2.09h-2.09Zm0-12.51v-2.09h2.09v2.09h-2.09Zm0-12.51v-2.09h2.09v2.09h-2.09Zm0-12.51v-2.09h2.09v2.09h-2.09Zm0-12.51v-2.09h2.09v2.09h-2.09Zm0-12.51v-2.09h2.09v2.09h-2.09Zm0-12.51v-2.09h2.09v2.09h-2.09Zm0-12.51v-2.09h2.09v2.09h-2.09Z"/><path class="cls-8" d="m680.55,1161.35v-2.09h2.09v2.09h-2.09Zm0-12.51v-2.09h2.09v2.09h-2.09Zm0-12.51v-2.09h2.09v2.09h-2.09Zm0-12.51v-2.09h2.09v2.09h-2.09Zm0-12.51v-2.09h2.09v2.09h-2.09Zm0-12.51v-2.09h2.09v2.09h-2.09Zm0-12.51v-2.09h2.09v2.09h-2.09Zm0-12.51v-2.09h2.09v2.09h-2.09Zm0-12.51v-2.09h2.09v2.09h-2.09Zm0-12.51v-2.09h2.09v2.09h-2.09Zm0-12.51v-2.09h2.09v2.09h-2.09Zm0-12.51v-2.09h2.09v2.09h-2.09Zm0-12.51v-2.09h2.09v2.09h-2.09Zm0-12.51v-2.09h2.09v2.09h-2.09Zm0-12.51v-2.09h2.09v2.09h-2.09Zm0-12.51v-2.09h2.09v2.09h-2.09Zm0-12.51v-2.08h2.09v2.08h-2.09Zm0-12.51v-2.09h2.09v2.09h-2.09Zm0-12.51v-2.09h2.09v2.09h-2.09Zm0-12.51v-2.09h2.09v2.09h-2.09Zm0-12.51v-2.08h2.09v2.08h-2.09Zm0-12.51v-2.09h2.09v2.09h-2.09Zm0-12.51v-2.09h2.09v2.09h-2.09Zm0-12.51v-2.09h2.09v2.09h-2.09Zm0-12.51v-2.09h2.09v2.09h-2.09Zm0-12.51v-2.09h2.09v2.09h-2.09Zm0-12.51v-2.09h2.09v2.09h-2.09Zm0-12.51v-2.09h2.09v2.09h-2.09Zm0-12.51v-2.09h2.09v2.09h-2.09Zm0-12.51v-2.09h2.09v2.09h-2.09Zm0-12.51v-2.09h2.09v2.09h-2.09Zm0-12.51v-2.09h2.09v2.09h-2.09Zm0-12.51v-2.09h2.09v2.09h-2.09Zm0-12.51v-2.09h2.09v2.09h-2.09Zm0-12.51v-2.09h2.09v2.09h-2.09Zm0-12.51v-2.09h2.09v2.09h-2.09Zm0-12.51v-2.09h2.09v2.09h-2.09Zm0-12.51v-2.09h2.09v2.09h-2.09Zm0-12.51v-2.09h2.09v2.09h-2.09Zm0-12.51v-2.09h2.09v2.09h-2.09Zm0-12.51v-2.08h2.09v2.08h-2.09Zm0-12.51v-2.09h2.09v2.09h-2.09Zm0-12.51v-2.09h2.09v2.09h-2.09Zm0-12.51v-2.09h2.09v2.09h-2.09Zm0-12.51v-2.09h2.09v2.09h-2.09Zm0-12.51v-2.09h2.09v2.09h-2.09Zm0-12.51v-2.09h2.09v2.09h-2.09Zm0-12.51v-2.09h2.09v2.09h-2.09Zm0-12.51v-2.09h2.09v2.09h-2.09Zm0-12.51v-2.08h2.09v2.08h-2.09Zm0-12.51v-2.09h2.09v2.09h-2.09Zm0-12.51v-2.09h2.09v2.09h-2.09Zm0-12.51v-2.09h2.09v2.09h-2.09Zm0-12.51v-2.09h2.09v2.09h-2.09Zm0-12.51v-2.09h2.09v2.09h-2.09Zm0-12.51v-2.09h2.09v2.09h-2.09Zm0-12.51v-2.09h2.09v2.09h-2.09Zm0-12.51v-2.09h2.09v2.09h-2.09Zm0-12.51v-2.09h2.09v2.09h-2.09Zm0-12.51v-2.09h2.09v2.09h-2.09Zm0-12.51v-2.08h2.09v2.08h-2.09Zm0-12.51v-2.09h2.09v2.09h-2.09Zm0-12.51v-2.09h2.09v2.09h-2.09Zm0-12.51v-2.09h2.09v2.09h-2.09Zm0-12.51v-2.09h2.09v2.09h-2.09Zm0-12.51v-2.09h2.09v2.09h-2.09Zm0-12.51v-2.09h2.09v2.09h-2.09Zm0-12.51v-2.09h2.09v2.09h-2.09Zm0-12.51v-2.09h2.09v2.09h-2.09Zm0-12.51v-2.09h2.09v2.09h-2.09Zm0-12.51v-2.09h2.09v2.09h-2.09Zm0-12.51v-2.09h2.09v2.09h-2.09Zm0-12.51v-2.09h2.09v2.09h-2.09Zm0-12.51v-2.09h2.09v2.09h-2.09Zm0-12.51v-2.09h2.09v2.09h-2.09Zm0-12.51v-2.09h2.09v2.09h-2.09Zm0-12.51v-2.09h2.09v2.09h-2.09Zm0-12.51v-2.09h2.09v2.09h-2.09Zm0-12.51v-2.09h2.09v2.09h-2.09Zm0-12.51v-2.09h2.09v2.09h-2.09Zm0-12.51v-2.09h2.09v2.09h-2.09Zm0-12.51v-2.09h2.09v2.09h-2.09Zm0-12.51v-2.09h2.09v2.09h-2.09Zm0-12.51v-2.09h2.09v2.09h-2.09Zm0-12.51v-2.09h2.09v2.09h-2.09Zm0-12.51v-2.09h2.09v2.09h-2.09Zm0-12.51v-2.09h2.09v2.09h-2.09Zm0-12.51v-2.09h2.09v2.09h-2.09Zm0-12.51v-2.09h2.09v2.09h-2.09Zm0-12.51v-2.09h2.09v2.09h-2.09Zm0-12.51v-2.09h2.09v2.09h-2.09Zm0-12.51v-2.09h2.09v2.09h-2.09Zm0-12.51v-2.09h2.09v2.09h-2.09Z"/><path class="cls-8" d="m582.66,1161.35v-2.09h2.09v2.09h-2.09Zm0-12.51v-2.09h2.09v2.09h-2.09Zm0-12.51v-2.09h2.09v2.09h-2.09Zm0-12.51v-2.09h2.09v2.09h-2.09Zm0-12.51v-2.09h2.09v2.09h-2.09Zm0-12.51v-2.09h2.09v2.09h-2.09Zm0-12.51v-2.09h2.09v2.09h-2.09Zm0-12.51v-2.09h2.09v2.09h-2.09Zm0-12.51v-2.09h2.09v2.09h-2.09Zm0-12.51v-2.09h2.09v2.09h-2.09Zm0-12.51v-2.09h2.09v2.09h-2.09Zm0-12.51v-2.09h2.09v2.09h-2.09Zm0-12.51v-2.09h2.09v2.09h-2.09Zm0-12.51v-2.09h2.09v2.09h-2.09Zm0-12.51v-2.09h2.09v2.09h-2.09Zm0-12.51v-2.09h2.09v2.09h-2.09Zm0-12.51v-2.08h2.09v2.08h-2.09Zm0-12.51v-2.09h2.09v2.09h-2.09Zm0-12.51v-2.09h2.09v2.09h-2.09Zm0-12.51v-2.09h2.09v2.09h-2.09Zm0-12.51v-2.08h2.09v2.08h-2.09Zm0-12.51v-2.09h2.09v2.09h-2.09Zm0-12.51v-2.09h2.09v2.09h-2.09Zm0-12.51v-2.09h2.09v2.09h-2.09Zm0-12.51v-2.09h2.09v2.09h-2.09Zm0-12.51v-2.09h2.09v2.09h-2.09Zm0-12.51v-2.09h2.09v2.09h-2.09Zm0-12.51v-2.09h2.09v2.09h-2.09Zm0-12.51v-2.09h2.09v2.09h-2.09Zm0-12.51v-2.09h2.09v2.09h-2.09Zm0-12.51v-2.09h2.09v2.09h-2.09Zm0-12.51v-2.09h2.09v2.09h-2.09Zm0-12.51v-2.09h2.09v2.09h-2.09Zm0-12.51v-2.09h2.09v2.09h-2.09Zm0-12.51v-2.09h2.09v2.09h-2.09Zm0-12.51v-2.09h2.09v2.09h-2.09Zm0-12.51v-2.09h2.09v2.09h-2.09Zm0-12.51v-2.09h2.09v2.09h-2.09Zm0-12.51v-2.09h2.09v2.09h-2.09Zm0-12.51v-2.09h2.09v2.09h-2.09Zm0-12.51v-2.08h2.09v2.08h-2.09Zm0-12.51v-2.09h2.09v2.09h-2.09Zm0-12.51v-2.09h2.09v2.09h-2.09Zm0-12.51v-2.09h2.09v2.09h-2.09Zm0-12.51v-2.09h2.09v2.09h-2.09Zm0-12.51v-2.09h2.09v2.09h-2.09Zm0-12.51v-2.09h2.09v2.09h-2.09Zm0-12.51v-2.09h2.09v2.09h-2.09Zm0-12.51v-2.09h2.09v2.09h-2.09Zm0-12.51v-2.08h2.09v2.08h-2.09Zm0-12.51v-2.09h2.09v2.09h-2.09Zm0-12.51v-2.09h2.09v2.09h-2.09Zm0-12.51v-2.09h2.09v2.09h-2.09Zm0-12.51v-2.09h2.09v2.09h-2.09Zm0-12.51v-2.09h2.09v2.09h-2.09Zm0-12.51v-2.09h2.09v2.09h-2.09Zm0-12.51v-2.09h2.09v2.09h-2.09Zm0-12.51v-2.09h2.09v2.09h-2.09Zm0-12.51v-2.09h2.09v2.09h-2.09Zm0-12.51v-2.09h2.09v2.09h-2.09Zm0-12.51v-2.08h2.09v2.08h-2.09Zm0-12.51v-2.09h2.09v2.09h-2.09Zm0-12.51v-2.09h2.09v2.09h-2.09Zm0-12.51v-2.09h2.09v2.09h-2.09Zm0-12.51v-2.09h2.09v2.09h-2.09Zm0-12.51v-2.09h2.09v2.09h-2.09Zm0-12.51v-2.09h2.09v2.09h-2.09Zm0-12.51v-2.09h2.09v2.09h-2.09Zm0-12.51v-2.09h2.09v2.09h-2.09Zm0-12.51v-2.09h2.09v2.09h-2.09Zm0-12.51v-2.09h2.09v2.09h-2.09Zm0-12.51v-2.09h2.09v2.09h-2.09Zm0-12.51v-2.09h2.09v2.09h-2.09Zm0-12.51v-2.09h2.09v2.09h-2.09Zm0-12.51v-2.09h2.09v2.09h-2.09Zm0-12.51v-2.09h2.09v2.09h-2.09Zm0-12.51v-2.09h2.09v2.09h-2.09Zm0-12.51v-2.09h2.09v2.09h-2.09Zm0-12.51v-2.09h2.09v2.09h-2.09Zm0-12.51v-2.09h2.09v2.09h-2.09Zm0-12.51v-2.09h2.09v2.09h-2.09Zm0-12.51v-2.09h2.09v2.09h-2.09Zm0-12.51v-2.09h2.09v2.09h-2.09Zm0-12.51v-2.09h2.09v2.09h-2.09Zm0-12.51v-2.09h2.09v2.09h-2.09Zm0-12.51v-2.09h2.09v2.09h-2.09Zm0-12.51v-2.09h2.09v2.09h-2.09Zm0-12.51v-2.09h2.09v2.09h-2.09Zm0-12.51v-2.09h2.09v2.09h-2.09Zm0-12.51v-2.09h2.09v2.09h-2.09Zm0-12.51v-2.09h2.09v2.09h-2.09Zm0-12.51v-2.09h2.09v2.09h-2.09Zm0-12.51v-2.09h2.09v2.09h-2.09Z"/><path class="cls-8" d="m484.77,1161.35v-2.09h2.09v2.09h-2.09Zm0-12.51v-2.09h2.09v2.09h-2.09Zm0-12.51v-2.09h2.09v2.09h-2.09Zm0-12.51v-2.09h2.09v2.09h-2.09Zm0-12.51v-2.09h2.09v2.09h-2.09Zm0-12.51v-2.09h2.09v2.09h-2.09Zm0-12.51v-2.09h2.09v2.09h-2.09Zm0-12.51v-2.09h2.09v2.09h-2.09Zm0-12.51v-2.09h2.09v2.09h-2.09Zm0-12.51v-2.09h2.09v2.09h-2.09Zm0-12.51v-2.09h2.09v2.09h-2.09Zm0-12.51v-2.09h2.09v2.09h-2.09Zm0-12.51v-2.09h2.09v2.09h-2.09Zm0-12.51v-2.09h2.09v2.09h-2.09Zm0-12.51v-2.09h2.09v2.09h-2.09Zm0-12.51v-2.09h2.09v2.09h-2.09Zm0-12.51v-2.08h2.09v2.08h-2.09Zm0-12.51v-2.09h2.09v2.09h-2.09Zm0-12.51v-2.09h2.09v2.09h-2.09Zm0-12.51v-2.09h2.09v2.09h-2.09Zm0-12.51v-2.08h2.09v2.08h-2.09Zm0-12.51v-2.09h2.09v2.09h-2.09Zm0-12.51v-2.09h2.09v2.09h-2.09Zm0-12.51v-2.09h2.09v2.09h-2.09Zm0-12.51v-2.09h2.09v2.09h-2.09Zm0-12.51v-2.09h2.09v2.09h-2.09Zm0-12.51v-2.09h2.09v2.09h-2.09Zm0-12.51v-2.09h2.09v2.09h-2.09Zm0-12.51v-2.09h2.09v2.09h-2.09Zm0-12.51v-2.09h2.09v2.09h-2.09Zm0-12.51v-2.09h2.09v2.09h-2.09Zm0-12.51v-2.09h2.09v2.09h-2.09Zm0-12.51v-2.09h2.09v2.09h-2.09Zm0-12.51v-2.09h2.09v2.09h-2.09Zm0-12.51v-2.09h2.09v2.09h-2.09Zm0-12.51v-2.09h2.09v2.09h-2.09Zm0-12.51v-2.09h2.09v2.09h-2.09Zm0-12.51v-2.09h2.09v2.09h-2.09Zm0-12.51v-2.09h2.09v2.09h-2.09Zm0-12.51v-2.09h2.09v2.09h-2.09Zm0-12.51v-2.08h2.09v2.08h-2.09Zm0-12.51v-2.09h2.09v2.09h-2.09Zm0-12.51v-2.09h2.09v2.09h-2.09Zm0-12.51v-2.09h2.09v2.09h-2.09Zm0-12.51v-2.09h2.09v2.09h-2.09Zm0-12.51v-2.09h2.09v2.09h-2.09Zm0-12.51v-2.09h2.09v2.09h-2.09Zm0-12.51v-2.09h2.09v2.09h-2.09Zm0-12.51v-2.09h2.09v2.09h-2.09Zm0-12.51v-2.08h2.09v2.08h-2.09Zm0-12.51v-2.09h2.09v2.09h-2.09Zm0-12.51v-2.09h2.09v2.09h-2.09Zm0-12.51v-2.09h2.09v2.09h-2.09Zm0-12.51v-2.09h2.09v2.09h-2.09Zm0-12.51v-2.09h2.09v2.09h-2.09Zm0-12.51v-2.09h2.09v2.09h-2.09Zm0-12.51v-2.09h2.09v2.09h-2.09Zm0-12.51v-2.09h2.09v2.09h-2.09Zm0-12.51v-2.09h2.09v2.09h-2.09Zm0-12.51v-2.09h2.09v2.09h-2.09Zm0-12.51v-2.08h2.09v2.08h-2.09Zm0-12.51v-2.09h2.09v2.09h-2.09Zm0-12.51v-2.09h2.09v2.09h-2.09Zm0-12.51v-2.09h2.09v2.09h-2.09Zm0-12.51v-2.09h2.09v2.09h-2.09Zm0-12.51v-2.09h2.09v2.09h-2.09Zm0-12.51v-2.09h2.09v2.09h-2.09Zm0-12.51v-2.09h2.09v2.09h-2.09Zm0-12.51v-2.09h2.09v2.09h-2.09Zm0-12.51v-2.09h2.09v2.09h-2.09Zm0-12.51v-2.09h2.09v2.09h-2.09Zm0-12.51v-2.09h2.09v2.09h-2.09Zm0-12.51v-2.09h2.09v2.09h-2.09Zm0-12.51v-2.09h2.09v2.09h-2.09Zm0-12.51v-2.09h2.09v2.09h-2.09Zm0-12.51v-2.09h2.09v2.09h-2.09Zm0-12.51v-2.09h2.09v2.09h-2.09Zm0-12.51v-2.09h2.09v2.09h-2.09Zm0-12.51v-2.09h2.09v2.09h-2.09Zm0-12.51v-2.09h2.09v2.09h-2.09Zm0-12.51v-2.09h2.09v2.09h-2.09Zm0-12.51v-2.09h2.09v2.09h-2.09Zm0-12.51v-2.09h2.09v2.09h-2.09Zm0-12.51v-2.09h2.09v2.09h-2.09Zm0-12.51v-2.09h2.09v2.09h-2.09Zm0-12.51v-2.09h2.09v2.09h-2.09Zm0-12.51v-2.09h2.09v2.09h-2.09Zm0-12.51v-2.09h2.09v2.09h-2.09Zm0-12.51v-2.09h2.09v2.09h-2.09Zm0-12.51v-2.09h2.09v2.09h-2.09Zm0-12.51v-2.09h2.09v2.09h-2.09Zm0-12.51v-2.09h2.09v2.09h-2.09Zm0-12.51v-2.09h2.09v2.09h-2.09Z"/><path class="cls-8" d="m386.88,1161.35v-2.09h2.09v2.09h-2.09Zm0-12.51v-2.09h2.09v2.09h-2.09Zm0-12.51v-2.09h2.09v2.09h-2.09Zm0-12.51v-2.09h2.09v2.09h-2.09Zm0-12.51v-2.09h2.09v2.09h-2.09Zm0-12.51v-2.09h2.09v2.09h-2.09Zm0-12.51v-2.09h2.09v2.09h-2.09Zm0-12.51v-2.09h2.09v2.09h-2.09Zm0-12.51v-2.09h2.09v2.09h-2.09Zm0-12.51v-2.09h2.09v2.09h-2.09Zm0-12.51v-2.09h2.09v2.09h-2.09Zm0-12.51v-2.09h2.09v2.09h-2.09Zm0-12.51v-2.09h2.09v2.09h-2.09Zm0-12.51v-2.09h2.09v2.09h-2.09Zm0-12.51v-2.09h2.09v2.09h-2.09Zm0-12.51v-2.09h2.09v2.09h-2.09Zm0-12.51v-2.08h2.09v2.08h-2.09Zm0-12.51v-2.09h2.09v2.09h-2.09Zm0-12.51v-2.09h2.09v2.09h-2.09Zm0-12.51v-2.09h2.09v2.09h-2.09Zm0-12.51v-2.08h2.09v2.08h-2.09Zm0-12.51v-2.09h2.09v2.09h-2.09Zm0-12.51v-2.09h2.09v2.09h-2.09Zm0-12.51v-2.09h2.09v2.09h-2.09Zm0-12.51v-2.09h2.09v2.09h-2.09Zm0-12.51v-2.09h2.09v2.09h-2.09Zm0-12.51v-2.09h2.09v2.09h-2.09Zm0-12.51v-2.09h2.09v2.09h-2.09Zm0-12.51v-2.09h2.09v2.09h-2.09Zm0-12.51v-2.09h2.09v2.09h-2.09Zm0-12.51v-2.09h2.09v2.09h-2.09Zm0-12.51v-2.09h2.09v2.09h-2.09Zm0-12.51v-2.09h2.09v2.09h-2.09Zm0-12.51v-2.09h2.09v2.09h-2.09Zm0-12.51v-2.09h2.09v2.09h-2.09Zm0-12.51v-2.09h2.09v2.09h-2.09Zm0-12.51v-2.09h2.09v2.09h-2.09Zm0-12.51v-2.09h2.09v2.09h-2.09Zm0-12.51v-2.09h2.09v2.09h-2.09Zm0-12.51v-2.09h2.09v2.09h-2.09Zm0-12.51v-2.08h2.09v2.08h-2.09Zm0-12.51v-2.09h2.09v2.09h-2.09Zm0-12.51v-2.09h2.09v2.09h-2.09Zm0-12.51v-2.09h2.09v2.09h-2.09Zm0-12.51v-2.09h2.09v2.09h-2.09Zm0-12.51v-2.09h2.09v2.09h-2.09Zm0-12.51v-2.09h2.09v2.09h-2.09Zm0-12.51v-2.09h2.09v2.09h-2.09Zm0-12.51v-2.09h2.09v2.09h-2.09Zm0-12.51v-2.08h2.09v2.08h-2.09Zm0-12.51v-2.09h2.09v2.09h-2.09Zm0-12.51v-2.09h2.09v2.09h-2.09Zm0-12.51v-2.09h2.09v2.09h-2.09Zm0-12.51v-2.09h2.09v2.09h-2.09Zm0-12.51v-2.09h2.09v2.09h-2.09Zm0-12.51v-2.09h2.09v2.09h-2.09Zm0-12.51v-2.09h2.09v2.09h-2.09Zm0-12.51v-2.09h2.09v2.09h-2.09Zm0-12.51v-2.09h2.09v2.09h-2.09Zm0-12.51v-2.09h2.09v2.09h-2.09Zm0-12.51v-2.08h2.09v2.08h-2.09Zm0-12.51v-2.09h2.09v2.09h-2.09Zm0-12.51v-2.09h2.09v2.09h-2.09Zm0-12.51v-2.09h2.09v2.09h-2.09Zm0-12.51v-2.09h2.09v2.09h-2.09Zm0-12.51v-2.09h2.09v2.09h-2.09Zm0-12.51v-2.09h2.09v2.09h-2.09Zm0-12.51v-2.09h2.09v2.09h-2.09Zm0-12.51v-2.09h2.09v2.09h-2.09Zm0-12.51v-2.09h2.09v2.09h-2.09Zm0-12.51v-2.09h2.09v2.09h-2.09Zm0-12.51v-2.09h2.09v2.09h-2.09Zm0-12.51v-2.09h2.09v2.09h-2.09Zm0-12.51v-2.09h2.09v2.09h-2.09Zm0-12.51v-2.09h2.09v2.09h-2.09Zm0-12.51v-2.09h2.09v2.09h-2.09Zm0-12.51v-2.09h2.09v2.09h-2.09Zm0-12.51v-2.09h2.09v2.09h-2.09Zm0-12.51v-2.09h2.09v2.09h-2.09Zm0-12.51v-2.09h2.09v2.09h-2.09Zm0-12.51v-2.09h2.09v2.09h-2.09Zm0-12.51v-2.09h2.09v2.09h-2.09Zm0-12.51v-2.09h2.09v2.09h-2.09Zm0-12.51v-2.09h2.09v2.09h-2.09Zm0-12.51v-2.09h2.09v2.09h-2.09Zm0-12.51v-2.09h2.09v2.09h-2.09Zm0-12.51v-2.09h2.09v2.09h-2.09Zm0-12.51v-2.09h2.09v2.09h-2.09Zm0-12.51v-2.09h2.09v2.09h-2.09Zm0-12.51v-2.09h2.09v2.09h-2.09Zm0-12.51v-2.09h2.09v2.09h-2.09Zm0-12.51v-2.09h2.09v2.09h-2.09Zm0-12.51v-2.09h2.09v2.09h-2.09Z"/><path class="cls-8" d="m288.99,1161.35v-2.09h2.09v2.09h-2.09Zm0-12.51v-2.09h2.09v2.09h-2.09Zm0-12.51v-2.09h2.09v2.09h-2.09Zm0-12.51v-2.09h2.09v2.09h-2.09Zm0-12.51v-2.09h2.09v2.09h-2.09Zm0-12.51v-2.09h2.09v2.09h-2.09Zm0-12.51v-2.09h2.09v2.09h-2.09Zm0-12.51v-2.09h2.09v2.09h-2.09Zm0-12.51v-2.09h2.09v2.09h-2.09Zm0-12.51v-2.09h2.09v2.09h-2.09Zm0-12.51v-2.09h2.09v2.09h-2.09Zm0-12.51v-2.09h2.09v2.09h-2.09Zm0-12.51v-2.09h2.09v2.09h-2.09Zm0-12.51v-2.09h2.09v2.09h-2.09Zm0-12.51v-2.09h2.09v2.09h-2.09Zm0-12.51v-2.09h2.09v2.09h-2.09Zm0-12.51v-2.08h2.09v2.08h-2.09Zm0-12.51v-2.09h2.09v2.09h-2.09Zm0-12.51v-2.09h2.09v2.09h-2.09Zm0-12.51v-2.09h2.09v2.09h-2.09Zm0-12.51v-2.08h2.09v2.08h-2.09Zm0-12.51v-2.09h2.09v2.09h-2.09Zm0-12.51v-2.09h2.09v2.09h-2.09Zm0-12.51v-2.09h2.09v2.09h-2.09Zm0-12.51v-2.09h2.09v2.09h-2.09Zm0-12.51v-2.09h2.09v2.09h-2.09Zm0-12.51v-2.09h2.09v2.09h-2.09Zm0-12.51v-2.09h2.09v2.09h-2.09Zm0-12.51v-2.09h2.09v2.09h-2.09Zm0-12.51v-2.09h2.09v2.09h-2.09Zm0-12.51v-2.09h2.09v2.09h-2.09Zm0-12.51v-2.09h2.09v2.09h-2.09Zm0-12.51v-2.09h2.09v2.09h-2.09Zm0-12.51v-2.09h2.09v2.09h-2.09Zm0-12.51v-2.09h2.09v2.09h-2.09Zm0-12.51v-2.09h2.09v2.09h-2.09Zm0-12.51v-2.09h2.09v2.09h-2.09Zm0-12.51v-2.09h2.09v2.09h-2.09Zm0-12.51v-2.09h2.09v2.09h-2.09Zm0-12.51v-2.09h2.09v2.09h-2.09Zm0-12.51v-2.08h2.09v2.08h-2.09Zm0-12.51v-2.09h2.09v2.09h-2.09Zm0-12.51v-2.09h2.09v2.09h-2.09Zm0-12.51v-2.09h2.09v2.09h-2.09Zm0-12.51v-2.09h2.09v2.09h-2.09Zm0-12.51v-2.09h2.09v2.09h-2.09Zm0-12.51v-2.09h2.09v2.09h-2.09Zm0-12.51v-2.09h2.09v2.09h-2.09Zm0-12.51v-2.09h2.09v2.09h-2.09Zm0-12.51v-2.08h2.09v2.08h-2.09Zm0-12.51v-2.09h2.09v2.09h-2.09Zm0-12.51v-2.09h2.09v2.09h-2.09Zm0-12.51v-2.09h2.09v2.09h-2.09Zm0-12.51v-2.09h2.09v2.09h-2.09Zm0-12.51v-2.09h2.09v2.09h-2.09Zm0-12.51v-2.09h2.09v2.09h-2.09Zm0-12.51v-2.09h2.09v2.09h-2.09Zm0-12.51v-2.09h2.09v2.09h-2.09Zm0-12.51v-2.09h2.09v2.09h-2.09Zm0-12.51v-2.09h2.09v2.09h-2.09Zm0-12.51v-2.08h2.09v2.08h-2.09Zm0-12.51v-2.09h2.09v2.09h-2.09Zm0-12.51v-2.09h2.09v2.09h-2.09Zm0-12.51v-2.09h2.09v2.09h-2.09Zm0-12.51v-2.09h2.09v2.09h-2.09Zm0-12.51v-2.09h2.09v2.09h-2.09Zm0-12.51v-2.09h2.09v2.09h-2.09Zm0-12.51v-2.09h2.09v2.09h-2.09Zm0-12.51v-2.09h2.09v2.09h-2.09Zm0-12.51v-2.09h2.09v2.09h-2.09Zm0-12.51v-2.09h2.09v2.09h-2.09Zm0-12.51v-2.09h2.09v2.09h-2.09Zm0-12.51v-2.09h2.09v2.09h-2.09Zm0-12.51v-2.09h2.09v2.09h-2.09Zm0-12.51v-2.09h2.09v2.09h-2.09Zm0-12.51v-2.09h2.09v2.09h-2.09Zm0-12.51v-2.09h2.09v2.09h-2.09Zm0-12.51v-2.09h2.09v2.09h-2.09Zm0-12.51v-2.09h2.09v2.09h-2.09Zm0-12.51v-2.09h2.09v2.09h-2.09Zm0-12.51v-2.09h2.09v2.09h-2.09Zm0-12.51v-2.09h2.09v2.09h-2.09Zm0-12.51v-2.09h2.09v2.09h-2.09Zm0-12.51v-2.09h2.09v2.09h-2.09Zm0-12.51v-2.09h2.09v2.09h-2.09Zm0-12.51v-2.09h2.09v2.09h-2.09Zm0-12.51v-2.09h2.09v2.09h-2.09Zm0-12.51v-2.09h2.09v2.09h-2.09Zm0-12.51v-2.09h2.09v2.09h-2.09Zm0-12.51v-2.09h2.09v2.09h-2.09Zm0-12.51v-2.09h2.09v2.09h-2.09Zm0-12.51v-2.09h2.09v2.09h-2.09Zm0-12.51v-2.09h2.09v2.09h-2.09Z"/><path class="cls-8" d="m191.1,1161.35v-2.09h2.09v2.09h-2.09Zm0-12.51v-2.09h2.09v2.09h-2.09Zm0-12.51v-2.09h2.09v2.09h-2.09Zm0-12.51v-2.09h2.09v2.09h-2.09Zm0-12.51v-2.09h2.09v2.09h-2.09Zm0-12.51v-2.09h2.09v2.09h-2.09Zm0-12.51v-2.09h2.09v2.09h-2.09Zm0-12.51v-2.09h2.09v2.09h-2.09Zm0-12.51v-2.09h2.09v2.09h-2.09Zm0-12.51v-2.09h2.09v2.09h-2.09Zm0-12.51v-2.09h2.09v2.09h-2.09Zm0-12.51v-2.09h2.09v2.09h-2.09Zm0-12.51v-2.09h2.09v2.09h-2.09Zm0-12.51v-2.09h2.09v2.09h-2.09Zm0-12.51v-2.09h2.09v2.09h-2.09Zm0-12.51v-2.09h2.09v2.09h-2.09Zm0-12.51v-2.08h2.09v2.08h-2.09Zm0-12.51v-2.09h2.09v2.09h-2.09Zm0-12.51v-2.09h2.09v2.09h-2.09Zm0-12.51v-2.09h2.09v2.09h-2.09Zm0-12.51v-2.08h2.09v2.08h-2.09Zm0-12.51v-2.09h2.09v2.09h-2.09Zm0-12.51v-2.09h2.09v2.09h-2.09Zm0-12.51v-2.09h2.09v2.09h-2.09Zm0-12.51v-2.09h2.09v2.09h-2.09Zm0-12.51v-2.09h2.09v2.09h-2.09Zm0-12.51v-2.09h2.09v2.09h-2.09Zm0-12.51v-2.09h2.09v2.09h-2.09Zm0-12.51v-2.09h2.09v2.09h-2.09Zm0-12.51v-2.09h2.09v2.09h-2.09Zm0-12.51v-2.09h2.09v2.09h-2.09Zm0-12.51v-2.09h2.09v2.09h-2.09Zm0-12.51v-2.09h2.09v2.09h-2.09Zm0-12.51v-2.09h2.09v2.09h-2.09Zm0-12.51v-2.09h2.09v2.09h-2.09Zm0-12.51v-2.09h2.09v2.09h-2.09Zm0-12.51v-2.09h2.09v2.09h-2.09Zm0-12.51v-2.09h2.09v2.09h-2.09Zm0-12.51v-2.09h2.09v2.09h-2.09Zm0-12.51v-2.09h2.09v2.09h-2.09Zm0-12.51v-2.08h2.09v2.08h-2.09Zm0-12.51v-2.09h2.09v2.09h-2.09Zm0-12.51v-2.09h2.09v2.09h-2.09Zm0-12.51v-2.09h2.09v2.09h-2.09Zm0-12.51v-2.09h2.09v2.09h-2.09Zm0-12.51v-2.09h2.09v2.09h-2.09Zm0-12.51v-2.09h2.09v2.09h-2.09Zm0-12.51v-2.09h2.09v2.09h-2.09Zm0-12.51v-2.09h2.09v2.09h-2.09Zm0-12.51v-2.08h2.09v2.08h-2.09Zm0-12.51v-2.09h2.09v2.09h-2.09Zm0-12.51v-2.09h2.09v2.09h-2.09Zm0-12.51v-2.09h2.09v2.09h-2.09Zm0-12.51v-2.09h2.09v2.09h-2.09Zm0-12.51v-2.09h2.09v2.09h-2.09Zm0-12.51v-2.09h2.09v2.09h-2.09Zm0-12.51v-2.09h2.09v2.09h-2.09Zm0-12.51v-2.09h2.09v2.09h-2.09Zm0-12.51v-2.09h2.09v2.09h-2.09Zm0-12.51v-2.09h2.09v2.09h-2.09Zm0-12.51v-2.08h2.09v2.08h-2.09Zm0-12.51v-2.09h2.09v2.09h-2.09Zm0-12.51v-2.09h2.09v2.09h-2.09Zm0-12.51v-2.09h2.09v2.09h-2.09Zm0-12.51v-2.09h2.09v2.09h-2.09Zm0-12.51v-2.09h2.09v2.09h-2.09Zm0-12.51v-2.09h2.09v2.09h-2.09Zm0-12.51v-2.09h2.09v2.09h-2.09Zm0-12.51v-2.09h2.09v2.09h-2.09Zm0-12.51v-2.09h2.09v2.09h-2.09Zm0-12.51v-2.09h2.09v2.09h-2.09Zm0-12.51v-2.09h2.09v2.09h-2.09Zm0-12.51v-2.09h2.09v2.09h-2.09Zm0-12.51v-2.09h2.09v2.09h-2.09Zm0-12.51v-2.09h2.09v2.09h-2.09Zm0-12.51v-2.09h2.09v2.09h-2.09Zm0-12.51v-2.09h2.09v2.09h-2.09Zm0-12.51v-2.09h2.09v2.09h-2.09Zm0-12.51v-2.09h2.09v2.09h-2.09Zm0-12.51v-2.09h2.09v2.09h-2.09Zm0-12.51v-2.09h2.09v2.09h-2.09Zm0-12.51v-2.09h2.09v2.09h-2.09Zm0-12.51v-2.09h2.09v2.09h-2.09Zm0-12.51v-2.09h2.09v2.09h-2.09Zm0-12.51v-2.09h2.09v2.09h-2.09Zm0-12.51v-2.09h2.09v2.09h-2.09Zm0-12.51v-2.09h2.09v2.09h-2.09Zm0-12.51v-2.09h2.09v2.09h-2.09Zm0-12.51v-2.09h2.09v2.09h-2.09Zm0-12.51v-2.09h2.09v2.09h-2.09Zm0-12.51v-2.09h2.09v2.09h-2.09Zm0-12.51v-2.09h2.09v2.09h-2.09Zm0-12.51v-2.09h2.09v2.09h-2.09Z"/><path class="cls-8" d="m93.21,1161.35v-2.09h2.09v2.09h-2.09Zm0-12.51v-2.09h2.09v2.09h-2.09Zm0-12.51v-2.09h2.09v2.09h-2.09Zm0-12.51v-2.09h2.09v2.09h-2.09Zm0-12.51v-2.09h2.09v2.09h-2.09Zm0-12.51v-2.09h2.09v2.09h-2.09Zm0-12.51v-2.09h2.09v2.09h-2.09Zm0-12.51v-2.09h2.09v2.09h-2.09Zm0-12.51v-2.09h2.09v2.09h-2.09Zm0-12.51v-2.09h2.09v2.09h-2.09Zm0-12.51v-2.09h2.09v2.09h-2.09Zm0-12.51v-2.09h2.09v2.09h-2.09Zm0-12.51v-2.09h2.09v2.09h-2.09Zm0-12.51v-2.09h2.09v2.09h-2.09Zm0-12.51v-2.09h2.09v2.09h-2.09Zm0-12.51v-2.09h2.09v2.09h-2.09Zm0-12.51v-2.08h2.09v2.08h-2.09Zm0-12.51v-2.09h2.09v2.09h-2.09Zm0-12.51v-2.09h2.09v2.09h-2.09Zm0-12.51v-2.09h2.09v2.09h-2.09Zm0-12.51v-2.08h2.09v2.08h-2.09Zm0-12.51v-2.09h2.09v2.09h-2.09Zm0-12.51v-2.09h2.09v2.09h-2.09Zm0-12.51v-2.09h2.09v2.09h-2.09Zm0-12.51v-2.09h2.09v2.09h-2.09Zm0-12.51v-2.09h2.09v2.09h-2.09Zm0-12.51v-2.09h2.09v2.09h-2.09Zm0-12.51v-2.09h2.09v2.09h-2.09Zm0-12.51v-2.09h2.09v2.09h-2.09Zm0-12.51v-2.09h2.09v2.09h-2.09Zm0-12.51v-2.09h2.09v2.09h-2.09Zm0-12.51v-2.09h2.09v2.09h-2.09Zm0-12.51v-2.09h2.09v2.09h-2.09Zm0-12.51v-2.09h2.09v2.09h-2.09Zm0-12.51v-2.09h2.09v2.09h-2.09Zm0-12.51v-2.09h2.09v2.09h-2.09Zm0-12.51v-2.09h2.09v2.09h-2.09Zm0-12.51v-2.09h2.09v2.09h-2.09Zm0-12.51v-2.09h2.09v2.09h-2.09Zm0-12.51v-2.09h2.09v2.09h-2.09Zm0-12.51v-2.08h2.09v2.08h-2.09Zm0-12.51v-2.09h2.09v2.09h-2.09Zm0-12.51v-2.09h2.09v2.09h-2.09Zm0-12.51v-2.09h2.09v2.09h-2.09Zm0-12.51v-2.09h2.09v2.09h-2.09Zm0-12.51v-2.09h2.09v2.09h-2.09Zm0-12.51v-2.09h2.09v2.09h-2.09Zm0-12.51v-2.09h2.09v2.09h-2.09Zm0-12.51v-2.09h2.09v2.09h-2.09Zm0-12.51v-2.08h2.09v2.08h-2.09Zm0-12.51v-2.09h2.09v2.09h-2.09Zm0-12.51v-2.09h2.09v2.09h-2.09Zm0-12.51v-2.09h2.09v2.09h-2.09Zm0-12.51v-2.09h2.09v2.09h-2.09Zm0-12.51v-2.09h2.09v2.09h-2.09Zm0-12.51v-2.09h2.09v2.09h-2.09Zm0-12.51v-2.09h2.09v2.09h-2.09Zm0-12.51v-2.09h2.09v2.09h-2.09Zm0-12.51v-2.09h2.09v2.09h-2.09Zm0-12.51v-2.09h2.09v2.09h-2.09Zm0-12.51v-2.08h2.09v2.08h-2.09Zm0-12.51v-2.09h2.09v2.09h-2.09Zm0-12.51v-2.09h2.09v2.09h-2.09Zm0-12.51v-2.09h2.09v2.09h-2.09Zm0-12.51v-2.09h2.09v2.09h-2.09Zm0-12.51v-2.09h2.09v2.09h-2.09Zm0-12.51v-2.09h2.09v2.09h-2.09Zm0-12.51v-2.09h2.09v2.09h-2.09Zm0-12.51v-2.09h2.09v2.09h-2.09Zm0-12.51v-2.09h2.09v2.09h-2.09Zm0-12.51v-2.09h2.09v2.09h-2.09Zm0-12.51v-2.09h2.09v2.09h-2.09Zm0-12.51v-2.09h2.09v2.09h-2.09Zm0-12.51v-2.09h2.09v2.09h-2.09Zm0-12.51v-2.09h2.09v2.09h-2.09Zm0-12.51v-2.09h2.09v2.09h-2.09Zm0-12.51v-2.09h2.09v2.09h-2.09Zm0-12.51v-2.09h2.09v2.09h-2.09Zm0-12.51v-2.09h2.09v2.09h-2.09Zm0-12.51v-2.09h2.09v2.09h-2.09Zm0-12.51v-2.09h2.09v2.09h-2.09Zm0-12.51v-2.09h2.09v2.09h-2.09Zm0-12.51v-2.09h2.09v2.09h-2.09Zm0-12.51v-2.09h2.09v2.09h-2.09Zm0-12.51v-2.09h2.09v2.09h-2.09Zm0-12.51v-2.09h2.09v2.09h-2.09Zm0-12.51v-2.09h2.09v2.09h-2.09Zm0-12.51v-2.09h2.09v2.09h-2.09Zm0-12.51v-2.09h2.09v2.09h-2.09Zm0-12.51v-2.09h2.09v2.09h-2.09Zm0-12.51v-2.09h2.09v2.09h-2.09Zm0-12.51v-2.09h2.09v2.09h-2.09Zm0-12.51v-2.09h2.09v2.09h-2.09Z"/><rect class="cls-8" x="1364.61" y="92.33" width="4.44" height="4.44"/><rect class="cls-8" x="1364.61" y="190.22" width="4.44" height="4.44"/><rect class="cls-8" x="1364.61" y="288.11" width="4.44" height="4.44"/><rect class="cls-8" x="1364.61" y="386" width="4.44" height="4.44"/><rect class="cls-8" x="1364.61" y="483.89" width="4.44" height="4.44"/><rect class="cls-8" x="1364.61" y="581.78" width="4.44" height="4.44"/><rect class="cls-8" x="1364.61" y="679.67" width="4.44" height="4.44"/><rect class="cls-8" x="1364.61" y="777.56" width="4.44" height="4.44"/><rect class="cls-8" x="1364.61" y="875.45" width="4.44" height="4.44"/><rect class="cls-8" x="1266.72" y="92.33" width="4.44" height="4.44"/><rect class="cls-8" x="1266.72" y="190.22" width="4.44" height="4.44"/><rect class="cls-8" x="1266.72" y="288.11" width="4.44" height="4.44"/><rect class="cls-8" x="1266.72" y="386" width="4.44" height="4.44"/><rect class="cls-8" x="1266.72" y="483.89" width="4.44" height="4.44"/><rect class="cls-8" x="1266.72" y="581.78" width="4.44" height="4.44"/><rect class="cls-8" x="1266.72" y="679.67" width="4.44" height="4.44"/><rect class="cls-8" x="1266.72" y="777.56" width="4.44" height="4.44"/><rect class="cls-8" x="1266.72" y="875.45" width="4.44" height="4.44"/><rect class="cls-8" x="1168.83" y="92.33" width="4.44" height="4.44"/><rect class="cls-8" x="1168.83" y="190.22" width="4.44" height="4.44"/><rect class="cls-8" x="1168.83" y="288.11" width="4.44" height="4.44"/><rect class="cls-8" x="1168.83" y="386" width="4.44" height="4.44"/><rect class="cls-8" x="1168.83" y="483.89" width="4.44" height="4.44"/><rect class="cls-8" x="1168.83" y="581.78" width="4.44" height="4.44"/><rect class="cls-8" x="1168.83" y="679.67" width="4.44" height="4.44"/><rect class="cls-8" x="1168.83" y="777.56" width="4.44" height="4.44"/><rect class="cls-8" x="1168.83" y="875.45" width="4.44" height="4.44"/><rect class="cls-8" x="1070.94" y="92.33" width="4.44" height="4.44"/><rect class="cls-8" x="1070.94" y="190.22" width="4.44" height="4.44"/><rect class="cls-8" x="1070.94" y="288.11" width="4.44" height="4.44"/><rect class="cls-8" x="1070.94" y="386" width="4.44" height="4.44"/><rect class="cls-8" x="1070.94" y="483.89" width="4.44" height="4.44"/><rect class="cls-8" x="1070.94" y="581.78" width="4.44" height="4.44"/><rect class="cls-8" x="1070.94" y="679.67" width="4.44" height="4.44"/><rect class="cls-8" x="1070.94" y="777.56" width="4.44" height="4.44"/><rect class="cls-8" x="1070.94" y="875.45" width="4.44" height="4.44"/><rect class="cls-8" x="973.05" y="92.33" width="4.44" height="4.44"/><rect class="cls-8" x="973.05" y="190.22" width="4.44" height="4.44"/><rect class="cls-8" x="973.05" y="288.11" width="4.44" height="4.44"/><rect class="cls-8" x="973.05" y="386" width="4.44" height="4.44"/><rect class="cls-8" x="973.05" y="483.89" width="4.44" height="4.44"/><rect class="cls-8" x="973.05" y="581.78" width="4.44" height="4.44"/><rect class="cls-8" x="973.05" y="679.67" width="4.44" height="4.44"/><rect class="cls-8" x="973.05" y="777.56" width="4.44" height="4.44"/><rect class="cls-8" x="973.05" y="875.45" width="4.44" height="4.44"/><rect class="cls-8" x="875.16" y="92.33" width="4.44" height="4.44"/><rect class="cls-8" x="875.16" y="190.22" width="4.44" height="4.44"/><rect class="cls-8" x="875.16" y="288.11" width="4.44" height="4.44"/><rect class="cls-8" x="875.16" y="386" width="4.44" height="4.44"/><rect class="cls-8" x="875.16" y="483.89" width="4.44" height="4.44"/><rect class="cls-8" x="875.16" y="581.78" width="4.44" height="4.44"/><rect class="cls-8" x="875.16" y="679.67" width="4.44" height="4.44"/><rect class="cls-8" x="875.16" y="777.56" width="4.44" height="4.44"/><rect class="cls-8" x="875.16" y="875.45" width="4.44" height="4.44"/><rect class="cls-8" x="777.26" y="92.33" width="4.44" height="4.44"/><rect class="cls-8" x="777.26" y="190.22" width="4.44" height="4.44"/><rect class="cls-8" x="777.26" y="288.11" width="4.44" height="4.44"/><rect class="cls-8" x="777.26" y="386" width="4.44" height="4.44"/><rect class="cls-8" x="777.26" y="483.89" width="4.44" height="4.44"/><rect class="cls-8" x="777.26" y="581.78" width="4.44" height="4.44"/><rect class="cls-8" x="777.26" y="679.67" width="4.44" height="4.44"/><rect class="cls-8" x="777.26" y="777.56" width="4.44" height="4.44"/><rect class="cls-8" x="777.26" y="875.45" width="4.44" height="4.44"/><rect class="cls-8" x="679.37" y="92.33" width="4.44" height="4.44"/><rect class="cls-8" x="679.37" y="190.22" width="4.44" height="4.44"/><rect class="cls-8" x="679.37" y="288.11" width="4.44" height="4.44"/><rect class="cls-8" x="679.37" y="386" width="4.44" height="4.44"/><rect class="cls-8" x="679.37" y="483.89" width="4.44" height="4.44"/><rect class="cls-8" x="679.37" y="581.78" width="4.44" height="4.44"/><rect class="cls-8" x="679.37" y="679.67" width="4.44" height="4.44"/><rect class="cls-8" x="679.37" y="777.56" width="4.44" height="4.44"/><rect class="cls-8" x="679.37" y="875.45" width="4.44" height="4.44"/><rect class="cls-8" x="581.48" y="92.33" width="4.44" height="4.44"/><rect class="cls-8" x="581.48" y="190.22" width="4.44" height="4.44"/><rect class="cls-8" x="581.48" y="288.11" width="4.44" height="4.44"/><rect class="cls-8" x="581.48" y="386" width="4.44" height="4.44"/><rect class="cls-8" x="581.48" y="483.89" width="4.44" height="4.44"/><rect class="cls-8" x="581.48" y="581.78" width="4.44" height="4.44"/><rect class="cls-8" x="581.48" y="679.67" width="4.44" height="4.44"/><rect class="cls-8" x="581.48" y="777.56" width="4.44" height="4.44"/><rect class="cls-8" x="581.48" y="875.45" width="4.44" height="4.44"/><rect class="cls-8" x="483.59" y="92.33" width="4.44" height="4.44"/><rect class="cls-8" x="483.59" y="190.22" width="4.44" height="4.44"/><rect class="cls-8" x="483.59" y="288.11" width="4.44" height="4.44"/><rect class="cls-8" x="483.59" y="386" width="4.44" height="4.44"/><rect class="cls-8" x="483.59" y="483.89" width="4.44" height="4.44"/><rect class="cls-8" x="483.59" y="581.78" width="4.44" height="4.44"/><rect class="cls-8" x="483.59" y="679.67" width="4.44" height="4.44"/><rect class="cls-8" x="483.59" y="777.56" width="4.44" height="4.44"/><rect class="cls-8" x="483.59" y="875.45" width="4.44" height="4.44"/><rect class="cls-8" x="385.7" y="92.33" width="4.44" height="4.44"/><rect class="cls-8" x="385.7" y="190.22" width="4.44" height="4.44"/><rect class="cls-8" x="385.7" y="288.11" width="4.44" height="4.44"/><rect class="cls-8" x="385.7" y="386" width="4.44" height="4.44"/><rect class="cls-8" x="385.7" y="483.89" width="4.44" height="4.44"/><rect class="cls-8" x="385.7" y="581.78" width="4.44" height="4.44"/><rect class="cls-8" x="385.7" y="679.67" width="4.44" height="4.44"/><rect class="cls-8" x="385.7" y="777.56" width="4.44" height="4.44"/><rect class="cls-8" x="385.7" y="875.45" width="4.44" height="4.44"/><rect class="cls-8" x="287.81" y="92.33" width="4.44" height="4.44"/><rect class="cls-8" x="287.81" y="190.22" width="4.44" height="4.44"/><rect class="cls-8" x="287.81" y="288.11" width="4.44" height="4.44"/><rect class="cls-8" x="287.81" y="386" width="4.44" height="4.44"/><rect class="cls-8" x="287.81" y="483.89" width="4.44" height="4.44"/><rect class="cls-8" x="287.81" y="581.78" width="4.44" height="4.44"/><rect class="cls-8" x="287.81" y="679.67" width="4.44" height="4.44"/><rect class="cls-8" x="287.81" y="777.56" width="4.44" height="4.44"/><rect class="cls-8" x="287.81" y="875.45" width="4.44" height="4.44"/><rect class="cls-8" x="189.92" y="92.33" width="4.44" height="4.44"/><rect class="cls-8" x="189.92" y="190.22" width="4.44" height="4.44"/><rect class="cls-8" x="189.92" y="288.11" width="4.44" height="4.44"/><rect class="cls-8" x="189.92" y="386" width="4.44" height="4.44"/><rect class="cls-8" x="189.92" y="483.89" width="4.44" height="4.44"/><rect class="cls-8" x="189.92" y="581.78" width="4.44" height="4.44"/><rect class="cls-8" x="189.92" y="679.67" width="4.44" height="4.44"/><rect class="cls-8" x="189.92" y="777.56" width="4.44" height="4.44"/><rect class="cls-8" x="189.92" y="875.45" width="4.44" height="4.44"/><rect class="cls-8" x="92.03" y="92.33" width="4.44" height="4.44"/><rect class="cls-8" x="92.03" y="190.22" width="4.44" height="4.44"/><rect class="cls-8" x="92.03" y="288.11" width="4.44" height="4.44"/><rect class="cls-8" x="92.03" y="386" width="4.44" height="4.44"/><rect class="cls-8" x="92.03" y="483.89" width="4.44" height="4.44"/><rect class="cls-8" x="92.03" y="581.78" width="4.44" height="4.44"/><rect class="cls-8" x="92.03" y="679.67" width="4.44" height="4.44"/><rect class="cls-8" x="92.03" y="777.56" width="4.44" height="4.44"/><rect class="cls-8" x="92.03" y="875.45" width="4.44" height="4.44"/></g><g class="cls-2"><circle class="cls-6" cx="910.17" cy="3.41" r="1104.32"/></g></g></g></svg>