<?xml version="1.0" encoding="UTF-8"?><svg id="Layer_2" xmlns="http://www.w3.org/2000/svg" xmlns:xlink="http://www.w3.org/1999/xlink" viewBox="0 0 1500.29 919.28"><defs><style>.cls-1{clip-path:url(#clippath);}.cls-2{mask:url(#mask);}.cls-3{filter:url(#luminosity-noclip);}.cls-4{clip-rule:evenodd;fill:none;}.cls-4,.cls-5,.cls-6,.cls-7,.cls-8{stroke-width:0px;}.cls-9{opacity:.3;}.cls-5{fill-rule:evenodd;opacity:.5;}.cls-5,.cls-7{fill:#fff;}.cls-6{fill:url(#_ÂÁ_Ï_ÌÌ_È_ËÂÌÚ_6);mix-blend-mode:multiply;}.cls-10{mask:url(#mask-2);}.cls-11{mask:url(#mask-1);}.cls-8{fill:url(#_ÂÁ_Ï_ÌÌ_È_ËÂÌÚ_29);}</style><clipPath id="clippath"><path class="cls-4" d="m295.81,95.9h495.61l74.22-74.19,21.72-21.72h561.01c8.34,8.34,15.15,15.15,21.72,21.72,9.41,9.41,18.26,18.26,30.21,30.21v451.97l-154.91,154.91h-174.19l-260.44,260.47H60.23v-398.31L0,460.74V57.15L57.15,0h142.76l95.9,95.9Z"/></clipPath><filter id="luminosity-noclip" x="-612.2" y="-1050.3" width="2296.64" height="2296.65" color-interpolation-filters="sRGB" filterUnits="userSpaceOnUse"><feFlood flood-color="#fff" result="bg"/><feBlend in="SourceGraphic" in2="bg"/></filter><filter id="luminosity-noclip-2" x="-612.2" y="-8533.29" width="2296.64" height="32766" color-interpolation-filters="sRGB" filterUnits="userSpaceOnUse"><feFlood flood-color="#fff" result="bg"/><feBlend in="SourceGraphic" in2="bg"/></filter><mask id="mask-2" x="-612.2" y="-8533.29" width="2296.64" height="32766" maskUnits="userSpaceOnUse"/><radialGradient id="_ÂÁ_Ï_ÌÌ_È_ËÂÌÚ_6" cx="-8792.08" cy="-55559.46" fx="-8792.08" fy="-55559.46" r="975.26" gradientTransform="translate(54105.84 39024.38) rotate(-45) scale(1.18)" gradientUnits="userSpaceOnUse"><stop offset=".05" stop-color="#fff"/><stop offset=".08" stop-color="#ededed"/><stop offset=".19" stop-color="#b6b6b6"/><stop offset=".29" stop-color="#858585"/><stop offset=".4" stop-color="#5c5c5c"/><stop offset=".52" stop-color="#3b3b3b"/><stop offset=".63" stop-color="#212121"/><stop offset=".75" stop-color="#0e0e0e"/><stop offset=".87" stop-color="#030303"/><stop offset="1" stop-color="#000"/></radialGradient><mask id="mask-1" x="-612.2" y="-1050.3" width="2296.64" height="2296.65" maskUnits="userSpaceOnUse"><g class="cls-3"><g class="cls-10"><circle class="cls-6" cx="536.12" cy="98.03" r="1148.32" transform="translate(87.71 407.8) rotate(-45)"/></g></g></mask><radialGradient id="_ÂÁ_Ï_ÌÌ_È_ËÂÌÚ_29" cx="-8792.08" cy="-55559.46" fx="-8792.08" fy="-55559.46" r="930.28" gradientTransform="translate(54105.84 39024.38) rotate(-45) scale(1.18)" gradientUnits="userSpaceOnUse"><stop offset=".05" stop-color="gray"/><stop offset=".33" stop-color="#7d7d7d"/><stop offset=".49" stop-color="#757575"/><stop offset=".62" stop-color="#676767"/><stop offset=".73" stop-color="#535353"/><stop offset=".84" stop-color="#393939"/><stop offset=".94" stop-color="#191919"/><stop offset="1" stop-color="#000"/></radialGradient><mask id="mask" x="-625.54" y="-1066.96" width="2329.98" height="2329.98" maskUnits="userSpaceOnUse"><g class="cls-11"><circle class="cls-8" cx="536.12" cy="98.03" r="1148.32" transform="translate(87.71 407.8) rotate(-45)"/></g></mask></defs><g id="_ÎÓÈ_1"><g class="cls-1"><g class="cls-9"><path class="cls-7" d="m6.11,78.28v-2.15h2.15v2.15h-2.15Zm12.89,0v-2.15h2.15v2.15h-2.15Zm12.89,0v-2.15h2.15v2.15h-2.15Zm12.88,0v-2.15h2.15v2.15h-2.15Zm12.89,0v-2.15h2.15v2.15h-2.15Zm12.89,0v-2.15h2.15v2.15h-2.15Zm12.89,0v-2.15h2.15v2.15h-2.15Zm12.89,0v-2.15h2.15v2.15h-2.15Zm12.89,0v-2.15h2.15v2.15h-2.15Zm12.89,0v-2.15h2.15v2.15h-2.15Zm12.89,0v-2.15h2.15v2.15h-2.15Zm12.89,0v-2.15h2.15v2.15h-2.15Zm12.89,0v-2.15h2.15v2.15h-2.15Zm12.89,0v-2.15h2.15v2.15h-2.15Zm12.89,0v-2.15h2.15v2.15h-2.15Zm12.89,0v-2.15h2.15v2.15h-2.15Zm12.89,0v-2.15h2.15v2.15h-2.15Zm12.88,0v-2.15h2.15v2.15h-2.15Zm12.89,0v-2.15h2.15v2.15h-2.15Zm12.89,0v-2.15h2.15v2.15h-2.15Zm12.89,0v-2.15h2.15v2.15h-2.15Zm12.89,0v-2.15h2.15v2.15h-2.15Zm12.89,0v-2.15h2.15v2.15h-2.15Zm12.89,0v-2.15h2.15v2.15h-2.15Zm12.89,0v-2.15h2.15v2.15h-2.15Zm12.89,0v-2.15h2.15v2.15h-2.15Zm12.89,0v-2.15h2.15v2.15h-2.15Zm12.89,0v-2.15h2.15v2.15h-2.15Zm12.89,0v-2.15h2.15v2.15h-2.15Zm12.89,0v-2.15h2.15v2.15h-2.15Zm12.89,0v-2.15h2.15v2.15h-2.15Zm12.89,0v-2.15h2.15v2.15h-2.15Zm12.89,0v-2.15h2.15v2.15h-2.15Zm12.89,0v-2.15h2.15v2.15h-2.15Zm12.88,0v-2.15h2.15v2.15h-2.15Zm12.89,0v-2.15h2.15v2.15h-2.15Zm12.89,0v-2.15h2.15v2.15h-2.15Zm12.89,0v-2.15h2.15v2.15h-2.15Zm12.89,0v-2.15h2.15v2.15h-2.15Zm12.89,0v-2.15h2.15v2.15h-2.15Zm12.89,0v-2.15h2.15v2.15h-2.15Zm12.89,0v-2.15h2.15v2.15h-2.15Zm12.88,0v-2.15h2.15v2.15h-2.15Zm12.89,0v-2.15h2.15v2.15h-2.15Zm12.89,0v-2.15h2.15v2.15h-2.15Zm12.89,0v-2.15h2.15v2.15h-2.15Zm12.89,0v-2.15h2.15v2.15h-2.15Zm12.89,0v-2.15h2.15v2.15h-2.15Zm12.89,0v-2.15h2.15v2.15h-2.15Zm12.89,0v-2.15h2.15v2.15h-2.15Zm12.89,0v-2.15h2.15v2.15h-2.15Zm12.89,0v-2.15h2.15v2.15h-2.15Zm12.89,0v-2.15h2.15v2.15h-2.15Zm12.89,0v-2.15h2.15v2.15h-2.15Zm12.89,0v-2.15h2.15v2.15h-2.15Zm12.89,0v-2.15h2.15v2.15h-2.15Zm12.89,0v-2.15h2.15v2.15h-2.15Zm12.89,0v-2.15h2.15v2.15h-2.15Zm12.89,0v-2.15h2.15v2.15h-2.15Zm12.89,0v-2.15h2.15v2.15h-2.15Zm12.88,0v-2.15h2.15v2.15h-2.15Zm12.89,0v-2.15h2.15v2.15h-2.15Zm12.88,0v-2.15h2.15v2.15h-2.15Zm12.89,0v-2.15h2.15v2.15h-2.15Zm12.89,0v-2.15h2.15v2.15h-2.15Zm12.89,0v-2.15h2.15v2.15h-2.15Zm12.89,0v-2.15h2.15v2.15h-2.15Zm12.89,0v-2.15h2.15v2.15h-2.15Zm12.89,0v-2.15h2.15v2.15h-2.15Zm12.89,0v-2.15h2.15v2.15h-2.15Zm12.89,0v-2.15h2.15v2.15h-2.15Zm12.89,0v-2.15h2.15v2.15h-2.15Zm12.89,0v-2.15h2.15v2.15h-2.15Zm12.89,0v-2.15h2.15v2.15h-2.15Zm12.89,0v-2.15h2.15v2.15h-2.15Zm12.89,0v-2.15h2.15v2.15h-2.15Zm12.89,0v-2.15h2.15v2.15h-2.15Zm12.89,0v-2.15h2.15v2.15h-2.15Zm12.88,0v-2.15h2.15v2.15h-2.15Zm12.89,0v-2.15h2.15v2.15h-2.15Zm12.88,0v-2.15h2.15v2.15h-2.15Zm12.89,0v-2.15h2.15v2.15h-2.15Zm12.89,0v-2.15h2.15v2.15h-2.15Zm12.89,0v-2.15h2.15v2.15h-2.15Zm12.89,0v-2.15h2.15v2.15h-2.15Zm12.89,0v-2.15h2.15v2.15h-2.15Zm12.89,0v-2.15h2.15v2.15h-2.15Zm12.89,0v-2.15h2.15v2.15h-2.15Zm12.89,0v-2.15h2.15v2.15h-2.15Zm12.89,0v-2.15h2.15v2.15h-2.15Zm12.89,0v-2.15h2.15v2.15h-2.15Zm12.89,0v-2.15h2.15v2.15h-2.15Zm12.89,0v-2.15h2.15v2.15h-2.15Zm12.89,0v-2.15h2.15v2.15h-2.15Zm12.89,0v-2.15h2.15v2.15h-2.15Zm12.88,0v-2.15h2.15v2.15h-2.15Zm12.89,0v-2.15h2.15v2.15h-2.15Zm12.89,0v-2.15h2.15v2.15h-2.15Zm12.89,0v-2.15h2.15v2.15h-2.15Zm12.89,0v-2.15h2.15v2.15h-2.15Zm12.89,0v-2.15h2.15v2.15h-2.15Zm12.88,0v-2.15h2.15v2.15h-2.15Zm12.89,0v-2.15h2.15v2.15h-2.15Zm12.89,0v-2.15h2.15v2.15h-2.15Zm12.89,0v-2.15h2.15v2.15h-2.15Zm12.89,0v-2.15h2.15v2.15h-2.15Zm12.89,0v-2.15h2.15v2.15h-2.15Zm12.89,0v-2.15h2.15v2.15h-2.15Zm12.89,0v-2.15h2.15v2.15h-2.15Zm12.89,0v-2.15h2.15v2.15h-2.15Zm12.89,0v-2.15h2.15v2.15h-2.15Zm12.89,0v-2.15h2.15v2.15h-2.15Zm12.89,0v-2.15h2.15v2.15h-2.15Zm12.89,0v-2.15h2.15v2.15h-2.15Zm12.89,0v-2.15h2.15v2.15h-2.15Zm12.89,0v-2.15h2.15v2.15h-2.15Zm12.89,0v-2.15h2.15v2.15h-2.15Zm12.89,0v-2.15h2.15v2.15h-2.15Zm12.88,0v-2.15h2.15v2.15h-2.15Zm12.89,0v-2.15h2.15v2.15h-2.15Zm12.89,0v-2.15h2.15v2.15h-2.15Zm12.89,0v-2.15h2.15v2.15h-2.15Zm12.89,0v-2.15h2.15v2.15h-2.15Zm12.89,0v-2.15h2.15v2.15h-2.15Zm12.88,0v-2.15h2.15v2.15h-2.15Zm12.89,0v-2.15h2.15v2.15h-2.15Zm12.89,0v-2.15h2.15v2.15h-2.15Zm12.89,0v-2.15h2.15v2.15h-2.15Zm12.89,0v-2.15h2.15v2.15h-2.15Zm12.89,0v-2.15h2.15v2.15h-2.15Zm12.89,0v-2.15h2.15v2.15h-2.15Zm12.89,0v-2.15h2.15v2.15h-2.15Z"/><path class="cls-7" d="m6.11,179.09v-2.15h2.15v2.15h-2.15Zm12.89,0v-2.15h2.15v2.15h-2.15Zm12.89,0v-2.15h2.15v2.15h-2.15Zm12.88,0v-2.15h2.15v2.15h-2.15Zm12.89,0v-2.15h2.15v2.15h-2.15Zm12.89,0v-2.15h2.15v2.15h-2.15Zm12.89,0v-2.15h2.15v2.15h-2.15Zm12.89,0v-2.15h2.15v2.15h-2.15Zm12.89,0v-2.15h2.15v2.15h-2.15Zm12.89,0v-2.15h2.15v2.15h-2.15Zm12.89,0v-2.15h2.15v2.15h-2.15Zm12.89,0v-2.15h2.15v2.15h-2.15Zm12.89,0v-2.15h2.15v2.15h-2.15Zm12.89,0v-2.15h2.15v2.15h-2.15Zm12.89,0v-2.15h2.15v2.15h-2.15Zm12.89,0v-2.15h2.15v2.15h-2.15Zm12.89,0v-2.15h2.15v2.15h-2.15Zm12.88,0v-2.15h2.15v2.15h-2.15Zm12.89,0v-2.15h2.15v2.15h-2.15Zm12.89,0v-2.15h2.15v2.15h-2.15Zm12.89,0v-2.15h2.15v2.15h-2.15Zm12.89,0v-2.15h2.15v2.15h-2.15Zm12.89,0v-2.15h2.15v2.15h-2.15Zm12.89,0v-2.15h2.15v2.15h-2.15Zm12.89,0v-2.15h2.15v2.15h-2.15Zm12.89,0v-2.15h2.15v2.15h-2.15Zm12.89,0v-2.15h2.15v2.15h-2.15Zm12.89,0v-2.15h2.15v2.15h-2.15Zm12.89,0v-2.15h2.15v2.15h-2.15Zm12.89,0v-2.15h2.15v2.15h-2.15Zm12.89,0v-2.15h2.15v2.15h-2.15Zm12.89,0v-2.15h2.15v2.15h-2.15Zm12.89,0v-2.15h2.15v2.15h-2.15Zm12.89,0v-2.15h2.15v2.15h-2.15Zm12.88,0v-2.15h2.15v2.15h-2.15Zm12.89,0v-2.15h2.15v2.15h-2.15Zm12.89,0v-2.15h2.15v2.15h-2.15Zm12.89,0v-2.15h2.15v2.15h-2.15Zm12.89,0v-2.15h2.15v2.15h-2.15Zm12.89,0v-2.15h2.15v2.15h-2.15Zm12.89,0v-2.15h2.15v2.15h-2.15Zm12.89,0v-2.15h2.15v2.15h-2.15Zm12.88,0v-2.15h2.15v2.15h-2.15Zm12.89,0v-2.15h2.15v2.15h-2.15Zm12.89,0v-2.15h2.15v2.15h-2.15Zm12.89,0v-2.15h2.15v2.15h-2.15Zm12.89,0v-2.15h2.15v2.15h-2.15Zm12.89,0v-2.15h2.15v2.15h-2.15Zm12.89,0v-2.15h2.15v2.15h-2.15Zm12.89,0v-2.15h2.15v2.15h-2.15Zm12.89,0v-2.15h2.15v2.15h-2.15Zm12.89,0v-2.15h2.15v2.15h-2.15Zm12.89,0v-2.15h2.15v2.15h-2.15Zm12.89,0v-2.15h2.15v2.15h-2.15Zm12.89,0v-2.15h2.15v2.15h-2.15Zm12.89,0v-2.15h2.15v2.15h-2.15Zm12.89,0v-2.15h2.15v2.15h-2.15Zm12.89,0v-2.15h2.15v2.15h-2.15Zm12.89,0v-2.15h2.15v2.15h-2.15Zm12.89,0v-2.15h2.15v2.15h-2.15Zm12.88,0v-2.15h2.15v2.15h-2.15Zm12.89,0v-2.15h2.15v2.15h-2.15Zm12.88,0v-2.15h2.15v2.15h-2.15Zm12.89,0v-2.15h2.15v2.15h-2.15Zm12.89,0v-2.15h2.15v2.15h-2.15Zm12.89,0v-2.15h2.15v2.15h-2.15Zm12.89,0v-2.15h2.15v2.15h-2.15Zm12.89,0v-2.15h2.15v2.15h-2.15Zm12.89,0v-2.15h2.15v2.15h-2.15Zm12.89,0v-2.15h2.15v2.15h-2.15Zm12.89,0v-2.15h2.15v2.15h-2.15Zm12.89,0v-2.15h2.15v2.15h-2.15Zm12.89,0v-2.15h2.15v2.15h-2.15Zm12.89,0v-2.15h2.15v2.15h-2.15Zm12.89,0v-2.15h2.15v2.15h-2.15Zm12.89,0v-2.15h2.15v2.15h-2.15Zm12.89,0v-2.15h2.15v2.15h-2.15Zm12.89,0v-2.15h2.15v2.15h-2.15Zm12.88,0v-2.15h2.15v2.15h-2.15Zm12.89,0v-2.15h2.15v2.15h-2.15Zm12.88,0v-2.15h2.15v2.15h-2.15Zm12.89,0v-2.15h2.15v2.15h-2.15Zm12.89,0v-2.15h2.15v2.15h-2.15Zm12.89,0v-2.15h2.15v2.15h-2.15Zm12.89,0v-2.15h2.15v2.15h-2.15Zm12.89,0v-2.15h2.15v2.15h-2.15Zm12.89,0v-2.15h2.15v2.15h-2.15Zm12.89,0v-2.15h2.15v2.15h-2.15Zm12.89,0v-2.15h2.15v2.15h-2.15Zm12.89,0v-2.15h2.15v2.15h-2.15Zm12.89,0v-2.15h2.15v2.15h-2.15Zm12.89,0v-2.15h2.15v2.15h-2.15Zm12.89,0v-2.15h2.15v2.15h-2.15Zm12.89,0v-2.15h2.15v2.15h-2.15Zm12.89,0v-2.15h2.15v2.15h-2.15Zm12.88,0v-2.15h2.15v2.15h-2.15Zm12.89,0v-2.15h2.15v2.15h-2.15Zm12.89,0v-2.15h2.15v2.15h-2.15Zm12.89,0v-2.15h2.15v2.15h-2.15Zm12.89,0v-2.15h2.15v2.15h-2.15Zm12.89,0v-2.15h2.15v2.15h-2.15Zm12.88,0v-2.15h2.15v2.15h-2.15Zm12.89,0v-2.15h2.15v2.15h-2.15Zm12.89,0v-2.15h2.15v2.15h-2.15Zm12.89,0v-2.15h2.15v2.15h-2.15Zm12.89,0v-2.15h2.15v2.15h-2.15Zm12.89,0v-2.15h2.15v2.15h-2.15Zm12.89,0v-2.15h2.15v2.15h-2.15Zm12.89,0v-2.15h2.15v2.15h-2.15Zm12.89,0v-2.15h2.15v2.15h-2.15Zm12.89,0v-2.15h2.15v2.15h-2.15Zm12.89,0v-2.15h2.15v2.15h-2.15Zm12.89,0v-2.15h2.15v2.15h-2.15Zm12.89,0v-2.15h2.15v2.15h-2.15Zm12.89,0v-2.15h2.15v2.15h-2.15Zm12.89,0v-2.15h2.15v2.15h-2.15Zm12.89,0v-2.15h2.15v2.15h-2.15Zm12.89,0v-2.15h2.15v2.15h-2.15Zm12.88,0v-2.15h2.15v2.15h-2.15Zm12.89,0v-2.15h2.15v2.15h-2.15Zm12.89,0v-2.15h2.15v2.15h-2.15Zm12.89,0v-2.15h2.15v2.15h-2.15Zm12.89,0v-2.15h2.15v2.15h-2.15Zm12.89,0v-2.15h2.15v2.15h-2.15Zm12.88,0v-2.15h2.15v2.15h-2.15Zm12.89,0v-2.15h2.15v2.15h-2.15Zm12.89,0v-2.15h2.15v2.15h-2.15Zm12.89,0v-2.15h2.15v2.15h-2.15Zm12.89,0v-2.15h2.15v2.15h-2.15Zm12.89,0v-2.15h2.15v2.15h-2.15Zm12.89,0v-2.15h2.15v2.15h-2.15Zm12.89,0v-2.15h2.15v2.15h-2.15Z"/><path class="cls-7" d="m6.11,279.9v-2.15h2.15v2.15h-2.15Zm12.89,0v-2.15h2.15v2.15h-2.15Zm12.89,0v-2.15h2.15v2.15h-2.15Zm12.88,0v-2.15h2.15v2.15h-2.15Zm12.89,0v-2.15h2.15v2.15h-2.15Zm12.89,0v-2.15h2.15v2.15h-2.15Zm12.89,0v-2.15h2.15v2.15h-2.15Zm12.89,0v-2.15h2.15v2.15h-2.15Zm12.89,0v-2.15h2.15v2.15h-2.15Zm12.89,0v-2.15h2.15v2.15h-2.15Zm12.89,0v-2.15h2.15v2.15h-2.15Zm12.89,0v-2.15h2.15v2.15h-2.15Zm12.89,0v-2.15h2.15v2.15h-2.15Zm12.89,0v-2.15h2.15v2.15h-2.15Zm12.89,0v-2.15h2.15v2.15h-2.15Zm12.89,0v-2.15h2.15v2.15h-2.15Zm12.89,0v-2.15h2.15v2.15h-2.15Zm12.88,0v-2.15h2.15v2.15h-2.15Zm12.89,0v-2.15h2.15v2.15h-2.15Zm12.89,0v-2.15h2.15v2.15h-2.15Zm12.89,0v-2.15h2.15v2.15h-2.15Zm12.89,0v-2.15h2.15v2.15h-2.15Zm12.89,0v-2.15h2.15v2.15h-2.15Zm12.89,0v-2.15h2.15v2.15h-2.15Zm12.89,0v-2.15h2.15v2.15h-2.15Zm12.89,0v-2.15h2.15v2.15h-2.15Zm12.89,0v-2.15h2.15v2.15h-2.15Zm12.89,0v-2.15h2.15v2.15h-2.15Zm12.89,0v-2.15h2.15v2.15h-2.15Zm12.89,0v-2.15h2.15v2.15h-2.15Zm12.89,0v-2.15h2.15v2.15h-2.15Zm12.89,0v-2.15h2.15v2.15h-2.15Zm12.89,0v-2.15h2.15v2.15h-2.15Zm12.89,0v-2.15h2.15v2.15h-2.15Zm12.88,0v-2.15h2.15v2.15h-2.15Zm12.89,0v-2.15h2.15v2.15h-2.15Zm12.89,0v-2.15h2.15v2.15h-2.15Zm12.89,0v-2.15h2.15v2.15h-2.15Zm12.89,0v-2.15h2.15v2.15h-2.15Zm12.89,0v-2.15h2.15v2.15h-2.15Zm12.89,0v-2.15h2.15v2.15h-2.15Zm12.89,0v-2.15h2.15v2.15h-2.15Zm12.88,0v-2.15h2.15v2.15h-2.15Zm12.89,0v-2.15h2.15v2.15h-2.15Zm12.89,0v-2.15h2.15v2.15h-2.15Zm12.89,0v-2.15h2.15v2.15h-2.15Zm12.89,0v-2.15h2.15v2.15h-2.15Zm12.89,0v-2.15h2.15v2.15h-2.15Zm12.89,0v-2.15h2.15v2.15h-2.15Zm12.89,0v-2.15h2.15v2.15h-2.15Zm12.89,0v-2.15h2.15v2.15h-2.15Zm12.89,0v-2.15h2.15v2.15h-2.15Zm12.89,0v-2.15h2.15v2.15h-2.15Zm12.89,0v-2.15h2.15v2.15h-2.15Zm12.89,0v-2.15h2.15v2.15h-2.15Zm12.89,0v-2.15h2.15v2.15h-2.15Zm12.89,0v-2.15h2.15v2.15h-2.15Zm12.89,0v-2.15h2.15v2.15h-2.15Zm12.89,0v-2.15h2.15v2.15h-2.15Zm12.89,0v-2.15h2.15v2.15h-2.15Zm12.88,0v-2.15h2.15v2.15h-2.15Zm12.89,0v-2.15h2.15v2.15h-2.15Zm12.88,0v-2.15h2.15v2.15h-2.15Zm12.89,0v-2.15h2.15v2.15h-2.15Zm12.89,0v-2.15h2.15v2.15h-2.15Zm12.89,0v-2.15h2.15v2.15h-2.15Zm12.89,0v-2.15h2.15v2.15h-2.15Zm12.89,0v-2.15h2.15v2.15h-2.15Zm12.89,0v-2.15h2.15v2.15h-2.15Zm12.89,0v-2.15h2.15v2.15h-2.15Zm12.89,0v-2.15h2.15v2.15h-2.15Zm12.89,0v-2.15h2.15v2.15h-2.15Zm12.89,0v-2.15h2.15v2.15h-2.15Zm12.89,0v-2.15h2.15v2.15h-2.15Zm12.89,0v-2.15h2.15v2.15h-2.15Zm12.89,0v-2.15h2.15v2.15h-2.15Zm12.89,0v-2.15h2.15v2.15h-2.15Zm12.89,0v-2.15h2.15v2.15h-2.15Zm12.88,0v-2.15h2.15v2.15h-2.15Zm12.89,0v-2.15h2.15v2.15h-2.15Zm12.88,0v-2.15h2.15v2.15h-2.15Zm12.89,0v-2.15h2.15v2.15h-2.15Zm12.89,0v-2.15h2.15v2.15h-2.15Zm12.89,0v-2.15h2.15v2.15h-2.15Zm12.89,0v-2.15h2.15v2.15h-2.15Zm12.89,0v-2.15h2.15v2.15h-2.15Zm12.89,0v-2.15h2.15v2.15h-2.15Zm12.89,0v-2.15h2.15v2.15h-2.15Zm12.89,0v-2.15h2.15v2.15h-2.15Zm12.89,0v-2.15h2.15v2.15h-2.15Zm12.89,0v-2.15h2.15v2.15h-2.15Zm12.89,0v-2.15h2.15v2.15h-2.15Zm12.89,0v-2.15h2.15v2.15h-2.15Zm12.89,0v-2.15h2.15v2.15h-2.15Zm12.89,0v-2.15h2.15v2.15h-2.15Zm12.88,0v-2.15h2.15v2.15h-2.15Zm12.89,0v-2.15h2.15v2.15h-2.15Zm12.89,0v-2.15h2.15v2.15h-2.15Zm12.89,0v-2.15h2.15v2.15h-2.15Zm12.89,0v-2.15h2.15v2.15h-2.15Zm12.89,0v-2.15h2.15v2.15h-2.15Zm12.88,0v-2.15h2.15v2.15h-2.15Zm12.89,0v-2.15h2.15v2.15h-2.15Zm12.89,0v-2.15h2.15v2.15h-2.15Zm12.89,0v-2.15h2.15v2.15h-2.15Zm12.89,0v-2.15h2.15v2.15h-2.15Zm12.89,0v-2.15h2.15v2.15h-2.15Zm12.89,0v-2.15h2.15v2.15h-2.15Zm12.89,0v-2.15h2.15v2.15h-2.15Zm12.89,0v-2.15h2.15v2.15h-2.15Zm12.89,0v-2.15h2.15v2.15h-2.15Zm12.89,0v-2.15h2.15v2.15h-2.15Zm12.89,0v-2.15h2.15v2.15h-2.15Zm12.89,0v-2.15h2.15v2.15h-2.15Zm12.89,0v-2.15h2.15v2.15h-2.15Zm12.89,0v-2.15h2.15v2.15h-2.15Zm12.89,0v-2.15h2.15v2.15h-2.15Zm12.89,0v-2.15h2.15v2.15h-2.15Zm12.88,0v-2.15h2.15v2.15h-2.15Zm12.89,0v-2.15h2.15v2.15h-2.15Zm12.89,0v-2.15h2.15v2.15h-2.15Zm12.89,0v-2.15h2.15v2.15h-2.15Zm12.89,0v-2.15h2.15v2.15h-2.15Zm12.89,0v-2.15h2.15v2.15h-2.15Zm12.88,0v-2.15h2.15v2.15h-2.15Zm12.89,0v-2.15h2.15v2.15h-2.15Zm12.89,0v-2.15h2.15v2.15h-2.15Zm12.89,0v-2.15h2.15v2.15h-2.15Zm12.89,0v-2.15h2.15v2.15h-2.15Zm12.89,0v-2.15h2.15v2.15h-2.15Zm12.89,0v-2.15h2.15v2.15h-2.15Zm12.89,0v-2.15h2.15v2.15h-2.15Z"/><path class="cls-7" d="m6.11,380.71v-2.15h2.15v2.15h-2.15Zm12.89,0v-2.15h2.15v2.15h-2.15Zm12.89,0v-2.15h2.15v2.15h-2.15Zm12.88,0v-2.15h2.15v2.15h-2.15Zm12.89,0v-2.15h2.15v2.15h-2.15Zm12.89,0v-2.15h2.15v2.15h-2.15Zm12.89,0v-2.15h2.15v2.15h-2.15Zm12.89,0v-2.15h2.15v2.15h-2.15Zm12.89,0v-2.15h2.15v2.15h-2.15Zm12.89,0v-2.15h2.15v2.15h-2.15Zm12.89,0v-2.15h2.15v2.15h-2.15Zm12.89,0v-2.15h2.15v2.15h-2.15Zm12.89,0v-2.15h2.15v2.15h-2.15Zm12.89,0v-2.15h2.15v2.15h-2.15Zm12.89,0v-2.15h2.15v2.15h-2.15Zm12.89,0v-2.15h2.15v2.15h-2.15Zm12.89,0v-2.15h2.15v2.15h-2.15Zm12.88,0v-2.15h2.15v2.15h-2.15Zm12.89,0v-2.15h2.15v2.15h-2.15Zm12.89,0v-2.15h2.15v2.15h-2.15Zm12.89,0v-2.15h2.15v2.15h-2.15Zm12.89,0v-2.15h2.15v2.15h-2.15Zm12.89,0v-2.15h2.15v2.15h-2.15Zm12.89,0v-2.15h2.15v2.15h-2.15Zm12.89,0v-2.15h2.15v2.15h-2.15Zm12.89,0v-2.15h2.15v2.15h-2.15Zm12.89,0v-2.15h2.15v2.15h-2.15Zm12.89,0v-2.15h2.15v2.15h-2.15Zm12.89,0v-2.15h2.15v2.15h-2.15Zm12.89,0v-2.15h2.15v2.15h-2.15Zm12.89,0v-2.15h2.15v2.15h-2.15Zm12.89,0v-2.15h2.15v2.15h-2.15Zm12.89,0v-2.15h2.15v2.15h-2.15Zm12.89,0v-2.15h2.15v2.15h-2.15Zm12.88,0v-2.15h2.15v2.15h-2.15Zm12.89,0v-2.15h2.15v2.15h-2.15Zm12.89,0v-2.15h2.15v2.15h-2.15Zm12.89,0v-2.15h2.15v2.15h-2.15Zm12.89,0v-2.15h2.15v2.15h-2.15Zm12.89,0v-2.15h2.15v2.15h-2.15Zm12.89,0v-2.15h2.15v2.15h-2.15Zm12.89,0v-2.15h2.15v2.15h-2.15Zm12.88,0v-2.15h2.15v2.15h-2.15Zm12.89,0v-2.15h2.15v2.15h-2.15Zm12.89,0v-2.15h2.15v2.15h-2.15Zm12.89,0v-2.15h2.15v2.15h-2.15Zm12.89,0v-2.15h2.15v2.15h-2.15Zm12.89,0v-2.15h2.15v2.15h-2.15Zm12.89,0v-2.15h2.15v2.15h-2.15Zm12.89,0v-2.15h2.15v2.15h-2.15Zm12.89,0v-2.15h2.15v2.15h-2.15Zm12.89,0v-2.15h2.15v2.15h-2.15Zm12.89,0v-2.15h2.15v2.15h-2.15Zm12.89,0v-2.15h2.15v2.15h-2.15Zm12.89,0v-2.15h2.15v2.15h-2.15Zm12.89,0v-2.15h2.15v2.15h-2.15Zm12.89,0v-2.15h2.15v2.15h-2.15Zm12.89,0v-2.15h2.15v2.15h-2.15Zm12.89,0v-2.15h2.15v2.15h-2.15Zm12.89,0v-2.15h2.15v2.15h-2.15Zm12.88,0v-2.15h2.15v2.15h-2.15Zm12.89,0v-2.15h2.15v2.15h-2.15Zm12.88,0v-2.15h2.15v2.15h-2.15Zm12.89,0v-2.15h2.15v2.15h-2.15Zm12.89,0v-2.15h2.15v2.15h-2.15Zm12.89,0v-2.15h2.15v2.15h-2.15Zm12.89,0v-2.15h2.15v2.15h-2.15Zm12.89,0v-2.15h2.15v2.15h-2.15Zm12.89,0v-2.15h2.15v2.15h-2.15Zm12.89,0v-2.15h2.15v2.15h-2.15Zm12.89,0v-2.15h2.15v2.15h-2.15Zm12.89,0v-2.15h2.15v2.15h-2.15Zm12.89,0v-2.15h2.15v2.15h-2.15Zm12.89,0v-2.15h2.15v2.15h-2.15Zm12.89,0v-2.15h2.15v2.15h-2.15Zm12.89,0v-2.15h2.15v2.15h-2.15Zm12.89,0v-2.15h2.15v2.15h-2.15Zm12.89,0v-2.15h2.15v2.15h-2.15Zm12.88,0v-2.15h2.15v2.15h-2.15Zm12.89,0v-2.15h2.15v2.15h-2.15Zm12.88,0v-2.15h2.15v2.15h-2.15Zm12.89,0v-2.15h2.15v2.15h-2.15Zm12.89,0v-2.15h2.15v2.15h-2.15Zm12.89,0v-2.15h2.15v2.15h-2.15Zm12.89,0v-2.15h2.15v2.15h-2.15Zm12.89,0v-2.15h2.15v2.15h-2.15Zm12.89,0v-2.15h2.15v2.15h-2.15Zm12.89,0v-2.15h2.15v2.15h-2.15Zm12.89,0v-2.15h2.15v2.15h-2.15Zm12.89,0v-2.15h2.15v2.15h-2.15Zm12.89,0v-2.15h2.15v2.15h-2.15Zm12.89,0v-2.15h2.15v2.15h-2.15Zm12.89,0v-2.15h2.15v2.15h-2.15Zm12.89,0v-2.15h2.15v2.15h-2.15Zm12.89,0v-2.15h2.15v2.15h-2.15Zm12.88,0v-2.15h2.15v2.15h-2.15Zm12.89,0v-2.15h2.15v2.15h-2.15Zm12.89,0v-2.15h2.15v2.15h-2.15Zm12.89,0v-2.15h2.15v2.15h-2.15Zm12.89,0v-2.15h2.15v2.15h-2.15Zm12.89,0v-2.15h2.15v2.15h-2.15Zm12.88,0v-2.15h2.15v2.15h-2.15Zm12.89,0v-2.15h2.15v2.15h-2.15Zm12.89,0v-2.15h2.15v2.15h-2.15Zm12.89,0v-2.15h2.15v2.15h-2.15Zm12.89,0v-2.15h2.15v2.15h-2.15Zm12.89,0v-2.15h2.15v2.15h-2.15Zm12.89,0v-2.15h2.15v2.15h-2.15Zm12.89,0v-2.15h2.15v2.15h-2.15Zm12.89,0v-2.15h2.15v2.15h-2.15Zm12.89,0v-2.15h2.15v2.15h-2.15Zm12.89,0v-2.15h2.15v2.15h-2.15Zm12.89,0v-2.15h2.15v2.15h-2.15Zm12.89,0v-2.15h2.15v2.15h-2.15Zm12.89,0v-2.15h2.15v2.15h-2.15Zm12.89,0v-2.15h2.15v2.15h-2.15Zm12.89,0v-2.15h2.15v2.15h-2.15Zm12.89,0v-2.15h2.15v2.15h-2.15Zm12.88,0v-2.15h2.15v2.15h-2.15Zm12.89,0v-2.15h2.15v2.15h-2.15Zm12.89,0v-2.15h2.15v2.15h-2.15Zm12.89,0v-2.15h2.15v2.15h-2.15Zm12.89,0v-2.15h2.15v2.15h-2.15Zm12.89,0v-2.15h2.15v2.15h-2.15Zm12.88,0v-2.15h2.15v2.15h-2.15Zm12.89,0v-2.15h2.15v2.15h-2.15Zm12.89,0v-2.15h2.15v2.15h-2.15Zm12.89,0v-2.15h2.15v2.15h-2.15Zm12.89,0v-2.15h2.15v2.15h-2.15Zm12.89,0v-2.15h2.15v2.15h-2.15Zm12.89,0v-2.15h2.15v2.15h-2.15Zm12.89,0v-2.15h2.15v2.15h-2.15Z"/><path class="cls-7" d="m6.11,481.51v-2.15h2.15v2.15h-2.15Zm12.89,0v-2.15h2.15v2.15h-2.15Zm12.89,0v-2.15h2.15v2.15h-2.15Zm12.88,0v-2.15h2.15v2.15h-2.15Zm12.89,0v-2.15h2.15v2.15h-2.15Zm12.89,0v-2.15h2.15v2.15h-2.15Zm12.89,0v-2.15h2.15v2.15h-2.15Zm12.89,0v-2.15h2.15v2.15h-2.15Zm12.89,0v-2.15h2.15v2.15h-2.15Zm12.89,0v-2.15h2.15v2.15h-2.15Zm12.89,0v-2.15h2.15v2.15h-2.15Zm12.89,0v-2.15h2.15v2.15h-2.15Zm12.89,0v-2.15h2.15v2.15h-2.15Zm12.89,0v-2.15h2.15v2.15h-2.15Zm12.89,0v-2.15h2.15v2.15h-2.15Zm12.89,0v-2.15h2.15v2.15h-2.15Zm12.89,0v-2.15h2.15v2.15h-2.15Zm12.88,0v-2.15h2.15v2.15h-2.15Zm12.89,0v-2.15h2.15v2.15h-2.15Zm12.89,0v-2.15h2.15v2.15h-2.15Zm12.89,0v-2.15h2.15v2.15h-2.15Zm12.89,0v-2.15h2.15v2.15h-2.15Zm12.89,0v-2.15h2.15v2.15h-2.15Zm12.89,0v-2.15h2.15v2.15h-2.15Zm12.89,0v-2.15h2.15v2.15h-2.15Zm12.89,0v-2.15h2.15v2.15h-2.15Zm12.89,0v-2.15h2.15v2.15h-2.15Zm12.89,0v-2.15h2.15v2.15h-2.15Zm12.89,0v-2.15h2.15v2.15h-2.15Zm12.89,0v-2.15h2.15v2.15h-2.15Zm12.89,0v-2.15h2.15v2.15h-2.15Zm12.89,0v-2.15h2.15v2.15h-2.15Zm12.89,0v-2.15h2.15v2.15h-2.15Zm12.89,0v-2.15h2.15v2.15h-2.15Zm12.88,0v-2.15h2.15v2.15h-2.15Zm12.89,0v-2.15h2.15v2.15h-2.15Zm12.89,0v-2.15h2.15v2.15h-2.15Zm12.89,0v-2.15h2.15v2.15h-2.15Zm12.89,0v-2.15h2.15v2.15h-2.15Zm12.89,0v-2.15h2.15v2.15h-2.15Zm12.89,0v-2.15h2.15v2.15h-2.15Zm12.89,0v-2.15h2.15v2.15h-2.15Zm12.88,0v-2.15h2.15v2.15h-2.15Zm12.89,0v-2.15h2.15v2.15h-2.15Zm12.89,0v-2.15h2.15v2.15h-2.15Zm12.89,0v-2.15h2.15v2.15h-2.15Zm12.89,0v-2.15h2.15v2.15h-2.15Zm12.89,0v-2.15h2.15v2.15h-2.15Zm12.89,0v-2.15h2.15v2.15h-2.15Zm12.89,0v-2.15h2.15v2.15h-2.15Zm12.89,0v-2.15h2.15v2.15h-2.15Zm12.89,0v-2.15h2.15v2.15h-2.15Zm12.89,0v-2.15h2.15v2.15h-2.15Zm12.89,0v-2.15h2.15v2.15h-2.15Zm12.89,0v-2.15h2.15v2.15h-2.15Zm12.89,0v-2.15h2.15v2.15h-2.15Zm12.89,0v-2.15h2.15v2.15h-2.15Zm12.89,0v-2.15h2.15v2.15h-2.15Zm12.89,0v-2.15h2.15v2.15h-2.15Zm12.89,0v-2.15h2.15v2.15h-2.15Zm12.88,0v-2.15h2.15v2.15h-2.15Zm12.89,0v-2.15h2.15v2.15h-2.15Zm12.88,0v-2.15h2.15v2.15h-2.15Zm12.89,0v-2.15h2.15v2.15h-2.15Zm12.89,0v-2.15h2.15v2.15h-2.15Zm12.89,0v-2.15h2.15v2.15h-2.15Zm12.89,0v-2.15h2.15v2.15h-2.15Zm12.89,0v-2.15h2.15v2.15h-2.15Zm12.89,0v-2.15h2.15v2.15h-2.15Zm12.89,0v-2.15h2.15v2.15h-2.15Zm12.89,0v-2.15h2.15v2.15h-2.15Zm12.89,0v-2.15h2.15v2.15h-2.15Zm12.89,0v-2.15h2.15v2.15h-2.15Zm12.89,0v-2.15h2.15v2.15h-2.15Zm12.89,0v-2.15h2.15v2.15h-2.15Zm12.89,0v-2.15h2.15v2.15h-2.15Zm12.89,0v-2.15h2.15v2.15h-2.15Zm12.89,0v-2.15h2.15v2.15h-2.15Zm12.88,0v-2.15h2.15v2.15h-2.15Zm12.89,0v-2.15h2.15v2.15h-2.15Zm12.88,0v-2.15h2.15v2.15h-2.15Zm12.89,0v-2.15h2.15v2.15h-2.15Zm12.89,0v-2.15h2.15v2.15h-2.15Zm12.89,0v-2.15h2.15v2.15h-2.15Zm12.89,0v-2.15h2.15v2.15h-2.15Zm12.89,0v-2.15h2.15v2.15h-2.15Zm12.89,0v-2.15h2.15v2.15h-2.15Zm12.89,0v-2.15h2.15v2.15h-2.15Zm12.89,0v-2.15h2.15v2.15h-2.15Zm12.89,0v-2.15h2.15v2.15h-2.15Zm12.89,0v-2.15h2.15v2.15h-2.15Zm12.89,0v-2.15h2.15v2.15h-2.15Zm12.89,0v-2.15h2.15v2.15h-2.15Zm12.89,0v-2.15h2.15v2.15h-2.15Zm12.89,0v-2.15h2.15v2.15h-2.15Zm12.88,0v-2.15h2.15v2.15h-2.15Zm12.89,0v-2.15h2.15v2.15h-2.15Zm12.89,0v-2.15h2.15v2.15h-2.15Zm12.89,0v-2.15h2.15v2.15h-2.15Zm12.89,0v-2.15h2.15v2.15h-2.15Zm12.89,0v-2.15h2.15v2.15h-2.15Zm12.88,0v-2.15h2.15v2.15h-2.15Zm12.89,0v-2.15h2.15v2.15h-2.15Zm12.89,0v-2.15h2.15v2.15h-2.15Zm12.89,0v-2.15h2.15v2.15h-2.15Zm12.89,0v-2.15h2.15v2.15h-2.15Zm12.89,0v-2.15h2.15v2.15h-2.15Zm12.89,0v-2.15h2.15v2.15h-2.15Zm12.89,0v-2.15h2.15v2.15h-2.15Zm12.89,0v-2.15h2.15v2.15h-2.15Zm12.89,0v-2.15h2.15v2.15h-2.15Zm12.89,0v-2.15h2.15v2.15h-2.15Zm12.89,0v-2.15h2.15v2.15h-2.15Zm12.89,0v-2.15h2.15v2.15h-2.15Zm12.89,0v-2.15h2.15v2.15h-2.15Zm12.89,0v-2.15h2.15v2.15h-2.15Zm12.89,0v-2.15h2.15v2.15h-2.15Zm12.89,0v-2.15h2.15v2.15h-2.15Zm12.88,0v-2.15h2.15v2.15h-2.15Zm12.89,0v-2.15h2.15v2.15h-2.15Zm12.89,0v-2.15h2.15v2.15h-2.15Zm12.89,0v-2.15h2.15v2.15h-2.15Zm12.89,0v-2.15h2.15v2.15h-2.15Zm12.89,0v-2.15h2.15v2.15h-2.15Zm12.88,0v-2.15h2.15v2.15h-2.15Zm12.89,0v-2.15h2.15v2.15h-2.15Zm12.89,0v-2.15h2.15v2.15h-2.15Zm12.89,0v-2.15h2.15v2.15h-2.15Zm12.89,0v-2.15h2.15v2.15h-2.15Zm12.89,0v-2.15h2.15v2.15h-2.15Zm12.89,0v-2.15h2.15v2.15h-2.15Zm12.89,0v-2.15h2.15v2.15h-2.15Z"/><path class="cls-7" d="m6.11,582.32v-2.15h2.15v2.15h-2.15Zm12.89,0v-2.15h2.15v2.15h-2.15Zm12.89,0v-2.15h2.15v2.15h-2.15Zm12.88,0v-2.15h2.15v2.15h-2.15Zm12.89,0v-2.15h2.15v2.15h-2.15Zm12.89,0v-2.15h2.15v2.15h-2.15Zm12.89,0v-2.15h2.15v2.15h-2.15Zm12.89,0v-2.15h2.15v2.15h-2.15Zm12.89,0v-2.15h2.15v2.15h-2.15Zm12.89,0v-2.15h2.15v2.15h-2.15Zm12.89,0v-2.15h2.15v2.15h-2.15Zm12.89,0v-2.15h2.15v2.15h-2.15Zm12.89,0v-2.15h2.15v2.15h-2.15Zm12.89,0v-2.15h2.15v2.15h-2.15Zm12.89,0v-2.15h2.15v2.15h-2.15Zm12.89,0v-2.15h2.15v2.15h-2.15Zm12.89,0v-2.15h2.15v2.15h-2.15Zm12.88,0v-2.15h2.15v2.15h-2.15Zm12.89,0v-2.15h2.15v2.15h-2.15Zm12.89,0v-2.15h2.15v2.15h-2.15Zm12.89,0v-2.15h2.15v2.15h-2.15Zm12.89,0v-2.15h2.15v2.15h-2.15Zm12.89,0v-2.15h2.15v2.15h-2.15Zm12.89,0v-2.15h2.15v2.15h-2.15Zm12.89,0v-2.15h2.15v2.15h-2.15Zm12.89,0v-2.15h2.15v2.15h-2.15Zm12.89,0v-2.15h2.15v2.15h-2.15Zm12.89,0v-2.15h2.15v2.15h-2.15Zm12.89,0v-2.15h2.15v2.15h-2.15Zm12.89,0v-2.15h2.15v2.15h-2.15Zm12.89,0v-2.15h2.15v2.15h-2.15Zm12.89,0v-2.15h2.15v2.15h-2.15Zm12.89,0v-2.15h2.15v2.15h-2.15Zm12.89,0v-2.15h2.15v2.15h-2.15Zm12.88,0v-2.15h2.15v2.15h-2.15Zm12.89,0v-2.15h2.15v2.15h-2.15Zm12.89,0v-2.15h2.15v2.15h-2.15Zm12.89,0v-2.15h2.15v2.15h-2.15Zm12.89,0v-2.15h2.15v2.15h-2.15Zm12.89,0v-2.15h2.15v2.15h-2.15Zm12.89,0v-2.15h2.15v2.15h-2.15Zm12.89,0v-2.15h2.15v2.15h-2.15Zm12.88,0v-2.15h2.15v2.15h-2.15Zm12.89,0v-2.15h2.15v2.15h-2.15Zm12.89,0v-2.15h2.15v2.15h-2.15Zm12.89,0v-2.15h2.15v2.15h-2.15Zm12.89,0v-2.15h2.15v2.15h-2.15Zm12.89,0v-2.15h2.15v2.15h-2.15Zm12.89,0v-2.15h2.15v2.15h-2.15Zm12.89,0v-2.15h2.15v2.15h-2.15Zm12.89,0v-2.15h2.15v2.15h-2.15Zm12.89,0v-2.15h2.15v2.15h-2.15Zm12.89,0v-2.15h2.15v2.15h-2.15Zm12.89,0v-2.15h2.15v2.15h-2.15Zm12.89,0v-2.15h2.15v2.15h-2.15Zm12.89,0v-2.15h2.15v2.15h-2.15Zm12.89,0v-2.15h2.15v2.15h-2.15Zm12.89,0v-2.15h2.15v2.15h-2.15Zm12.89,0v-2.15h2.15v2.15h-2.15Zm12.89,0v-2.15h2.15v2.15h-2.15Zm12.88,0v-2.15h2.15v2.15h-2.15Zm12.89,0v-2.15h2.15v2.15h-2.15Zm12.88,0v-2.15h2.15v2.15h-2.15Zm12.89,0v-2.15h2.15v2.15h-2.15Zm12.89,0v-2.15h2.15v2.15h-2.15Zm12.89,0v-2.15h2.15v2.15h-2.15Zm12.89,0v-2.15h2.15v2.15h-2.15Zm12.89,0v-2.15h2.15v2.15h-2.15Zm12.89,0v-2.15h2.15v2.15h-2.15Zm12.89,0v-2.15h2.15v2.15h-2.15Zm12.89,0v-2.15h2.15v2.15h-2.15Zm12.89,0v-2.15h2.15v2.15h-2.15Zm12.89,0v-2.15h2.15v2.15h-2.15Zm12.89,0v-2.15h2.15v2.15h-2.15Zm12.89,0v-2.15h2.15v2.15h-2.15Zm12.89,0v-2.15h2.15v2.15h-2.15Zm12.89,0v-2.15h2.15v2.15h-2.15Zm12.89,0v-2.15h2.15v2.15h-2.15Zm12.88,0v-2.15h2.15v2.15h-2.15Zm12.89,0v-2.15h2.15v2.15h-2.15Zm12.88,0v-2.15h2.15v2.15h-2.15Zm12.89,0v-2.15h2.15v2.15h-2.15Zm12.89,0v-2.15h2.15v2.15h-2.15Zm12.89,0v-2.15h2.15v2.15h-2.15Zm12.89,0v-2.15h2.15v2.15h-2.15Zm12.89,0v-2.15h2.15v2.15h-2.15Zm12.89,0v-2.15h2.15v2.15h-2.15Zm12.89,0v-2.15h2.15v2.15h-2.15Zm12.89,0v-2.15h2.15v2.15h-2.15Zm12.89,0v-2.15h2.15v2.15h-2.15Zm12.89,0v-2.15h2.15v2.15h-2.15Zm12.89,0v-2.15h2.15v2.15h-2.15Zm12.89,0v-2.15h2.15v2.15h-2.15Zm12.89,0v-2.15h2.15v2.15h-2.15Zm12.89,0v-2.15h2.15v2.15h-2.15Zm12.88,0v-2.15h2.15v2.15h-2.15Zm12.89,0v-2.15h2.15v2.15h-2.15Zm12.89,0v-2.15h2.15v2.15h-2.15Zm12.89,0v-2.15h2.15v2.15h-2.15Zm12.89,0v-2.15h2.15v2.15h-2.15Zm12.89,0v-2.15h2.15v2.15h-2.15Zm12.88,0v-2.15h2.15v2.15h-2.15Zm12.89,0v-2.15h2.15v2.15h-2.15Zm12.89,0v-2.15h2.15v2.15h-2.15Zm12.89,0v-2.15h2.15v2.15h-2.15Zm12.89,0v-2.15h2.15v2.15h-2.15Zm12.89,0v-2.15h2.15v2.15h-2.15Zm12.89,0v-2.15h2.15v2.15h-2.15Zm12.89,0v-2.15h2.15v2.15h-2.15Zm12.89,0v-2.15h2.15v2.15h-2.15Zm12.89,0v-2.15h2.15v2.15h-2.15Zm12.89,0v-2.15h2.15v2.15h-2.15Zm12.89,0v-2.15h2.15v2.15h-2.15Zm12.89,0v-2.15h2.15v2.15h-2.15Zm12.89,0v-2.15h2.15v2.15h-2.15Zm12.89,0v-2.15h2.15v2.15h-2.15Zm12.89,0v-2.15h2.15v2.15h-2.15Zm12.89,0v-2.15h2.15v2.15h-2.15Zm12.88,0v-2.15h2.15v2.15h-2.15Zm12.89,0v-2.15h2.15v2.15h-2.15Zm12.89,0v-2.15h2.15v2.15h-2.15Zm12.89,0v-2.15h2.15v2.15h-2.15Zm12.89,0v-2.15h2.15v2.15h-2.15Zm12.89,0v-2.15h2.15v2.15h-2.15Zm12.88,0v-2.15h2.15v2.15h-2.15Zm12.89,0v-2.15h2.15v2.15h-2.15Zm12.89,0v-2.15h2.15v2.15h-2.15Zm12.89,0v-2.15h2.15v2.15h-2.15Zm12.89,0v-2.15h2.15v2.15h-2.15Zm12.89,0v-2.15h2.15v2.15h-2.15Zm12.89,0v-2.15h2.15v2.15h-2.15Zm12.89,0v-2.15h2.15v2.15h-2.15Z"/><path class="cls-7" d="m6.11,683.13v-2.15h2.15v2.15h-2.15Zm12.89,0v-2.15h2.15v2.15h-2.15Zm12.89,0v-2.15h2.15v2.15h-2.15Zm12.88,0v-2.15h2.15v2.15h-2.15Zm12.89,0v-2.15h2.15v2.15h-2.15Zm12.89,0v-2.15h2.15v2.15h-2.15Zm12.89,0v-2.15h2.15v2.15h-2.15Zm12.89,0v-2.15h2.15v2.15h-2.15Zm12.89,0v-2.15h2.15v2.15h-2.15Zm12.89,0v-2.15h2.15v2.15h-2.15Zm12.89,0v-2.15h2.15v2.15h-2.15Zm12.89,0v-2.15h2.15v2.15h-2.15Zm12.89,0v-2.15h2.15v2.15h-2.15Zm12.89,0v-2.15h2.15v2.15h-2.15Zm12.89,0v-2.15h2.15v2.15h-2.15Zm12.89,0v-2.15h2.15v2.15h-2.15Zm12.89,0v-2.15h2.15v2.15h-2.15Zm12.88,0v-2.15h2.15v2.15h-2.15Zm12.89,0v-2.15h2.15v2.15h-2.15Zm12.89,0v-2.15h2.15v2.15h-2.15Zm12.89,0v-2.15h2.15v2.15h-2.15Zm12.89,0v-2.15h2.15v2.15h-2.15Zm12.89,0v-2.15h2.15v2.15h-2.15Zm12.89,0v-2.15h2.15v2.15h-2.15Zm12.89,0v-2.15h2.15v2.15h-2.15Zm12.89,0v-2.15h2.15v2.15h-2.15Zm12.89,0v-2.15h2.15v2.15h-2.15Zm12.89,0v-2.15h2.15v2.15h-2.15Zm12.89,0v-2.15h2.15v2.15h-2.15Zm12.89,0v-2.15h2.15v2.15h-2.15Zm12.89,0v-2.15h2.15v2.15h-2.15Zm12.89,0v-2.15h2.15v2.15h-2.15Zm12.89,0v-2.15h2.15v2.15h-2.15Zm12.89,0v-2.15h2.15v2.15h-2.15Zm12.88,0v-2.15h2.15v2.15h-2.15Zm12.89,0v-2.15h2.15v2.15h-2.15Zm12.89,0v-2.15h2.15v2.15h-2.15Zm12.89,0v-2.15h2.15v2.15h-2.15Zm12.89,0v-2.15h2.15v2.15h-2.15Zm12.89,0v-2.15h2.15v2.15h-2.15Zm12.89,0v-2.15h2.15v2.15h-2.15Zm12.89,0v-2.15h2.15v2.15h-2.15Zm12.88,0v-2.15h2.15v2.15h-2.15Zm12.89,0v-2.15h2.15v2.15h-2.15Zm12.89,0v-2.15h2.15v2.15h-2.15Zm12.89,0v-2.15h2.15v2.15h-2.15Zm12.89,0v-2.15h2.15v2.15h-2.15Zm12.89,0v-2.15h2.15v2.15h-2.15Zm12.89,0v-2.15h2.15v2.15h-2.15Zm12.89,0v-2.15h2.15v2.15h-2.15Zm12.89,0v-2.15h2.15v2.15h-2.15Zm12.89,0v-2.15h2.15v2.15h-2.15Zm12.89,0v-2.15h2.15v2.15h-2.15Zm12.89,0v-2.15h2.15v2.15h-2.15Zm12.89,0v-2.15h2.15v2.15h-2.15Zm12.89,0v-2.15h2.15v2.15h-2.15Zm12.89,0v-2.15h2.15v2.15h-2.15Zm12.89,0v-2.15h2.15v2.15h-2.15Zm12.89,0v-2.15h2.15v2.15h-2.15Zm12.89,0v-2.15h2.15v2.15h-2.15Zm12.88,0v-2.15h2.15v2.15h-2.15Zm12.89,0v-2.15h2.15v2.15h-2.15Zm12.88,0v-2.15h2.15v2.15h-2.15Zm12.89,0v-2.15h2.15v2.15h-2.15Zm12.89,0v-2.15h2.15v2.15h-2.15Zm12.89,0v-2.15h2.15v2.15h-2.15Zm12.89,0v-2.15h2.15v2.15h-2.15Zm12.89,0v-2.15h2.15v2.15h-2.15Zm12.89,0v-2.15h2.15v2.15h-2.15Zm12.89,0v-2.15h2.15v2.15h-2.15Zm12.89,0v-2.15h2.15v2.15h-2.15Zm12.89,0v-2.15h2.15v2.15h-2.15Zm12.89,0v-2.15h2.15v2.15h-2.15Zm12.89,0v-2.15h2.15v2.15h-2.15Zm12.89,0v-2.15h2.15v2.15h-2.15Zm12.89,0v-2.15h2.15v2.15h-2.15Zm12.89,0v-2.15h2.15v2.15h-2.15Zm12.89,0v-2.15h2.15v2.15h-2.15Zm12.88,0v-2.15h2.15v2.15h-2.15Zm12.89,0v-2.15h2.15v2.15h-2.15Zm12.88,0v-2.15h2.15v2.15h-2.15Zm12.89,0v-2.15h2.15v2.15h-2.15Zm12.89,0v-2.15h2.15v2.15h-2.15Zm12.89,0v-2.15h2.15v2.15h-2.15Zm12.89,0v-2.15h2.15v2.15h-2.15Zm12.89,0v-2.15h2.15v2.15h-2.15Zm12.89,0v-2.15h2.15v2.15h-2.15Zm12.89,0v-2.15h2.15v2.15h-2.15Zm12.89,0v-2.15h2.15v2.15h-2.15Zm12.89,0v-2.15h2.15v2.15h-2.15Zm12.89,0v-2.15h2.15v2.15h-2.15Zm12.89,0v-2.15h2.15v2.15h-2.15Zm12.89,0v-2.15h2.15v2.15h-2.15Zm12.89,0v-2.15h2.15v2.15h-2.15Zm12.89,0v-2.15h2.15v2.15h-2.15Zm12.88,0v-2.15h2.15v2.15h-2.15Zm12.89,0v-2.15h2.15v2.15h-2.15Zm12.89,0v-2.15h2.15v2.15h-2.15Zm12.89,0v-2.15h2.15v2.15h-2.15Zm12.89,0v-2.15h2.15v2.15h-2.15Zm12.89,0v-2.15h2.15v2.15h-2.15Zm12.88,0v-2.15h2.15v2.15h-2.15Zm12.89,0v-2.15h2.15v2.15h-2.15Zm12.89,0v-2.15h2.15v2.15h-2.15Zm12.89,0v-2.15h2.15v2.15h-2.15Zm12.89,0v-2.15h2.15v2.15h-2.15Zm12.89,0v-2.15h2.15v2.15h-2.15Zm12.89,0v-2.15h2.15v2.15h-2.15Zm12.89,0v-2.15h2.15v2.15h-2.15Zm12.89,0v-2.15h2.15v2.15h-2.15Zm12.89,0v-2.15h2.15v2.15h-2.15Zm12.89,0v-2.15h2.15v2.15h-2.15Zm12.89,0v-2.15h2.15v2.15h-2.15Zm12.89,0v-2.15h2.15v2.15h-2.15Zm12.89,0v-2.15h2.15v2.15h-2.15Zm12.89,0v-2.15h2.15v2.15h-2.15Zm12.89,0v-2.15h2.15v2.15h-2.15Zm12.89,0v-2.15h2.15v2.15h-2.15Zm12.88,0v-2.15h2.15v2.15h-2.15Zm12.89,0v-2.15h2.15v2.15h-2.15Zm12.89,0v-2.15h2.15v2.15h-2.15Zm12.89,0v-2.15h2.15v2.15h-2.15Zm12.89,0v-2.15h2.15v2.15h-2.15Zm12.89,0v-2.15h2.15v2.15h-2.15Zm12.88,0v-2.15h2.15v2.15h-2.15Zm12.89,0v-2.15h2.15v2.15h-2.15Zm12.89,0v-2.15h2.15v2.15h-2.15Zm12.89,0v-2.15h2.15v2.15h-2.15Zm12.89,0v-2.15h2.15v2.15h-2.15Zm12.89,0v-2.15h2.15v2.15h-2.15Zm12.89,0v-2.15h2.15v2.15h-2.15Zm12.89,0v-2.15h2.15v2.15h-2.15Z"/><path class="cls-7" d="m6.11,783.94v-2.15h2.15v2.15h-2.15Zm12.89,0v-2.15h2.15v2.15h-2.15Zm12.89,0v-2.15h2.15v2.15h-2.15Zm12.88,0v-2.15h2.15v2.15h-2.15Zm12.89,0v-2.15h2.15v2.15h-2.15Zm12.89,0v-2.15h2.15v2.15h-2.15Zm12.89,0v-2.15h2.15v2.15h-2.15Zm12.89,0v-2.15h2.15v2.15h-2.15Zm12.89,0v-2.15h2.15v2.15h-2.15Zm12.89,0v-2.15h2.15v2.15h-2.15Zm12.89,0v-2.15h2.15v2.15h-2.15Zm12.89,0v-2.15h2.15v2.15h-2.15Zm12.89,0v-2.15h2.15v2.15h-2.15Zm12.89,0v-2.15h2.15v2.15h-2.15Zm12.89,0v-2.15h2.15v2.15h-2.15Zm12.89,0v-2.15h2.15v2.15h-2.15Zm12.89,0v-2.15h2.15v2.15h-2.15Zm12.88,0v-2.15h2.15v2.15h-2.15Zm12.89,0v-2.15h2.15v2.15h-2.15Zm12.89,0v-2.15h2.15v2.15h-2.15Zm12.89,0v-2.15h2.15v2.15h-2.15Zm12.89,0v-2.15h2.15v2.15h-2.15Zm12.89,0v-2.15h2.15v2.15h-2.15Zm12.89,0v-2.15h2.15v2.15h-2.15Zm12.89,0v-2.15h2.15v2.15h-2.15Zm12.89,0v-2.15h2.15v2.15h-2.15Zm12.89,0v-2.15h2.15v2.15h-2.15Zm12.89,0v-2.15h2.15v2.15h-2.15Zm12.89,0v-2.15h2.15v2.15h-2.15Zm12.89,0v-2.15h2.15v2.15h-2.15Zm12.89,0v-2.15h2.15v2.15h-2.15Zm12.89,0v-2.15h2.15v2.15h-2.15Zm12.89,0v-2.15h2.15v2.15h-2.15Zm12.89,0v-2.15h2.15v2.15h-2.15Zm12.88,0v-2.15h2.15v2.15h-2.15Zm12.89,0v-2.15h2.15v2.15h-2.15Zm12.89,0v-2.15h2.15v2.15h-2.15Zm12.89,0v-2.15h2.15v2.15h-2.15Zm12.89,0v-2.15h2.15v2.15h-2.15Zm12.89,0v-2.15h2.15v2.15h-2.15Zm12.89,0v-2.15h2.15v2.15h-2.15Zm12.89,0v-2.15h2.15v2.15h-2.15Zm12.88,0v-2.15h2.15v2.15h-2.15Zm12.89,0v-2.15h2.15v2.15h-2.15Zm12.89,0v-2.15h2.15v2.15h-2.15Zm12.89,0v-2.15h2.15v2.15h-2.15Zm12.89,0v-2.15h2.15v2.15h-2.15Zm12.89,0v-2.15h2.15v2.15h-2.15Zm12.89,0v-2.15h2.15v2.15h-2.15Zm12.89,0v-2.15h2.15v2.15h-2.15Zm12.89,0v-2.15h2.15v2.15h-2.15Zm12.89,0v-2.15h2.15v2.15h-2.15Zm12.89,0v-2.15h2.15v2.15h-2.15Zm12.89,0v-2.15h2.15v2.15h-2.15Zm12.89,0v-2.15h2.15v2.15h-2.15Zm12.89,0v-2.15h2.15v2.15h-2.15Zm12.89,0v-2.15h2.15v2.15h-2.15Zm12.89,0v-2.15h2.15v2.15h-2.15Zm12.89,0v-2.15h2.15v2.15h-2.15Zm12.89,0v-2.15h2.15v2.15h-2.15Zm12.88,0v-2.15h2.15v2.15h-2.15Zm12.89,0v-2.15h2.15v2.15h-2.15Zm12.88,0v-2.15h2.15v2.15h-2.15Zm12.89,0v-2.15h2.15v2.15h-2.15Zm12.89,0v-2.15h2.15v2.15h-2.15Zm12.89,0v-2.15h2.15v2.15h-2.15Zm12.89,0v-2.15h2.15v2.15h-2.15Zm12.89,0v-2.15h2.15v2.15h-2.15Zm12.89,0v-2.15h2.15v2.15h-2.15Zm12.89,0v-2.15h2.15v2.15h-2.15Zm12.89,0v-2.15h2.15v2.15h-2.15Zm12.89,0v-2.15h2.15v2.15h-2.15Zm12.89,0v-2.15h2.15v2.15h-2.15Zm12.89,0v-2.15h2.15v2.15h-2.15Zm12.89,0v-2.15h2.15v2.15h-2.15Zm12.89,0v-2.15h2.15v2.15h-2.15Zm12.89,0v-2.15h2.15v2.15h-2.15Zm12.89,0v-2.15h2.15v2.15h-2.15Zm12.88,0v-2.15h2.15v2.15h-2.15Zm12.89,0v-2.15h2.15v2.15h-2.15Zm12.88,0v-2.15h2.15v2.15h-2.15Zm12.89,0v-2.15h2.15v2.15h-2.15Zm12.89,0v-2.15h2.15v2.15h-2.15Zm12.89,0v-2.15h2.15v2.15h-2.15Zm12.89,0v-2.15h2.15v2.15h-2.15Zm12.89,0v-2.15h2.15v2.15h-2.15Zm12.89,0v-2.15h2.15v2.15h-2.15Zm12.89,0v-2.15h2.15v2.15h-2.15Zm12.89,0v-2.15h2.15v2.15h-2.15Zm12.89,0v-2.15h2.15v2.15h-2.15Zm12.89,0v-2.15h2.15v2.15h-2.15Zm12.89,0v-2.15h2.15v2.15h-2.15Zm12.89,0v-2.15h2.15v2.15h-2.15Zm12.89,0v-2.15h2.15v2.15h-2.15Zm12.89,0v-2.15h2.15v2.15h-2.15Zm12.88,0v-2.15h2.15v2.15h-2.15Zm12.89,0v-2.15h2.15v2.15h-2.15Zm12.89,0v-2.15h2.15v2.15h-2.15Zm12.89,0v-2.15h2.15v2.15h-2.15Zm12.89,0v-2.15h2.15v2.15h-2.15Zm12.89,0v-2.15h2.15v2.15h-2.15Zm12.88,0v-2.15h2.15v2.15h-2.15Zm12.89,0v-2.15h2.15v2.15h-2.15Zm12.89,0v-2.15h2.15v2.15h-2.15Zm12.89,0v-2.15h2.15v2.15h-2.15Zm12.89,0v-2.15h2.15v2.15h-2.15Zm12.89,0v-2.15h2.15v2.15h-2.15Zm12.89,0v-2.15h2.15v2.15h-2.15Zm12.89,0v-2.15h2.15v2.15h-2.15Zm12.89,0v-2.15h2.15v2.15h-2.15Zm12.89,0v-2.15h2.15v2.15h-2.15Zm12.89,0v-2.15h2.15v2.15h-2.15Zm12.89,0v-2.15h2.15v2.15h-2.15Zm12.89,0v-2.15h2.15v2.15h-2.15Zm12.89,0v-2.15h2.15v2.15h-2.15Zm12.89,0v-2.15h2.15v2.15h-2.15Zm12.89,0v-2.15h2.15v2.15h-2.15Zm12.89,0v-2.15h2.15v2.15h-2.15Zm12.88,0v-2.15h2.15v2.15h-2.15Zm12.89,0v-2.15h2.15v2.15h-2.15Zm12.89,0v-2.15h2.15v2.15h-2.15Zm12.89,0v-2.15h2.15v2.15h-2.15Zm12.89,0v-2.15h2.15v2.15h-2.15Zm12.89,0v-2.15h2.15v2.15h-2.15Zm12.88,0v-2.15h2.15v2.15h-2.15Zm12.89,0v-2.15h2.15v2.15h-2.15Zm12.89,0v-2.15h2.15v2.15h-2.15Zm12.89,0v-2.15h2.15v2.15h-2.15Zm12.89,0v-2.15h2.15v2.15h-2.15Zm12.89,0v-2.15h2.15v2.15h-2.15Zm12.89,0v-2.15h2.15v2.15h-2.15Zm12.89,0v-2.15h2.15v2.15h-2.15Z"/><path class="cls-7" d="m6.11,884.74v-2.15h2.15v2.15h-2.15Zm12.89,0v-2.15h2.15v2.15h-2.15Zm12.89,0v-2.15h2.15v2.15h-2.15Zm12.88,0v-2.15h2.15v2.15h-2.15Zm12.89,0v-2.15h2.15v2.15h-2.15Zm12.89,0v-2.15h2.15v2.15h-2.15Zm12.89,0v-2.15h2.15v2.15h-2.15Zm12.89,0v-2.15h2.15v2.15h-2.15Zm12.89,0v-2.15h2.15v2.15h-2.15Zm12.89,0v-2.15h2.15v2.15h-2.15Zm12.89,0v-2.15h2.15v2.15h-2.15Zm12.89,0v-2.15h2.15v2.15h-2.15Zm12.89,0v-2.15h2.15v2.15h-2.15Zm12.89,0v-2.15h2.15v2.15h-2.15Zm12.89,0v-2.15h2.15v2.15h-2.15Zm12.89,0v-2.15h2.15v2.15h-2.15Zm12.89,0v-2.15h2.15v2.15h-2.15Zm12.88,0v-2.15h2.15v2.15h-2.15Zm12.89,0v-2.15h2.15v2.15h-2.15Zm12.89,0v-2.15h2.15v2.15h-2.15Zm12.89,0v-2.15h2.15v2.15h-2.15Zm12.89,0v-2.15h2.15v2.15h-2.15Zm12.89,0v-2.15h2.15v2.15h-2.15Zm12.89,0v-2.15h2.15v2.15h-2.15Zm12.89,0v-2.15h2.15v2.15h-2.15Zm12.89,0v-2.15h2.15v2.15h-2.15Zm12.89,0v-2.15h2.15v2.15h-2.15Zm12.89,0v-2.15h2.15v2.15h-2.15Zm12.89,0v-2.15h2.15v2.15h-2.15Zm12.89,0v-2.15h2.15v2.15h-2.15Zm12.89,0v-2.15h2.15v2.15h-2.15Zm12.89,0v-2.15h2.15v2.15h-2.15Zm12.89,0v-2.15h2.15v2.15h-2.15Zm12.89,0v-2.15h2.15v2.15h-2.15Zm12.88,0v-2.15h2.15v2.15h-2.15Zm12.89,0v-2.15h2.15v2.15h-2.15Zm12.89,0v-2.15h2.15v2.15h-2.15Zm12.89,0v-2.15h2.15v2.15h-2.15Zm12.89,0v-2.15h2.15v2.15h-2.15Zm12.89,0v-2.15h2.15v2.15h-2.15Zm12.89,0v-2.15h2.15v2.15h-2.15Zm12.89,0v-2.15h2.15v2.15h-2.15Zm12.88,0v-2.15h2.15v2.15h-2.15Zm12.89,0v-2.15h2.15v2.15h-2.15Zm12.89,0v-2.15h2.15v2.15h-2.15Zm12.89,0v-2.15h2.15v2.15h-2.15Zm12.89,0v-2.15h2.15v2.15h-2.15Zm12.89,0v-2.15h2.15v2.15h-2.15Zm12.89,0v-2.15h2.15v2.15h-2.15Zm12.89,0v-2.15h2.15v2.15h-2.15Zm12.89,0v-2.15h2.15v2.15h-2.15Zm12.89,0v-2.15h2.15v2.15h-2.15Zm12.89,0v-2.15h2.15v2.15h-2.15Zm12.89,0v-2.15h2.15v2.15h-2.15Zm12.89,0v-2.15h2.15v2.15h-2.15Zm12.89,0v-2.15h2.15v2.15h-2.15Zm12.89,0v-2.15h2.15v2.15h-2.15Zm12.89,0v-2.15h2.15v2.15h-2.15Zm12.89,0v-2.15h2.15v2.15h-2.15Zm12.89,0v-2.15h2.15v2.15h-2.15Zm12.88,0v-2.15h2.15v2.15h-2.15Zm12.89,0v-2.15h2.15v2.15h-2.15Zm12.88,0v-2.15h2.15v2.15h-2.15Zm12.89,0v-2.15h2.15v2.15h-2.15Zm12.89,0v-2.15h2.15v2.15h-2.15Zm12.89,0v-2.15h2.15v2.15h-2.15Zm12.89,0v-2.15h2.15v2.15h-2.15Zm12.89,0v-2.15h2.15v2.15h-2.15Zm12.89,0v-2.15h2.15v2.15h-2.15Zm12.89,0v-2.15h2.15v2.15h-2.15Zm12.89,0v-2.15h2.15v2.15h-2.15Zm12.89,0v-2.15h2.15v2.15h-2.15Zm12.89,0v-2.15h2.15v2.15h-2.15Zm12.89,0v-2.15h2.15v2.15h-2.15Zm12.89,0v-2.15h2.15v2.15h-2.15Zm12.89,0v-2.15h2.15v2.15h-2.15Zm12.89,0v-2.15h2.15v2.15h-2.15Zm12.89,0v-2.15h2.15v2.15h-2.15Zm12.88,0v-2.15h2.15v2.15h-2.15Zm12.89,0v-2.15h2.15v2.15h-2.15Zm12.88,0v-2.15h2.15v2.15h-2.15Zm12.89,0v-2.15h2.15v2.15h-2.15Zm12.89,0v-2.15h2.15v2.15h-2.15Zm12.89,0v-2.15h2.15v2.15h-2.15Zm12.89,0v-2.15h2.15v2.15h-2.15Zm12.89,0v-2.15h2.15v2.15h-2.15Zm12.89,0v-2.15h2.15v2.15h-2.15Zm12.89,0v-2.15h2.15v2.15h-2.15Zm12.89,0v-2.15h2.15v2.15h-2.15Zm12.89,0v-2.15h2.15v2.15h-2.15Zm12.89,0v-2.15h2.15v2.15h-2.15Zm12.89,0v-2.15h2.15v2.15h-2.15Zm12.89,0v-2.15h2.15v2.15h-2.15Zm12.89,0v-2.15h2.15v2.15h-2.15Zm12.89,0v-2.15h2.15v2.15h-2.15Zm12.88,0v-2.15h2.15v2.15h-2.15Zm12.89,0v-2.15h2.15v2.15h-2.15Zm12.89,0v-2.15h2.15v2.15h-2.15Zm12.89,0v-2.15h2.15v2.15h-2.15Zm12.89,0v-2.15h2.15v2.15h-2.15Zm12.89,0v-2.15h2.15v2.15h-2.15Zm12.88,0v-2.15h2.15v2.15h-2.15Zm12.89,0v-2.15h2.15v2.15h-2.15Zm12.89,0v-2.15h2.15v2.15h-2.15Zm12.89,0v-2.15h2.15v2.15h-2.15Zm12.89,0v-2.15h2.15v2.15h-2.15Zm12.89,0v-2.15h2.15v2.15h-2.15Zm12.89,0v-2.15h2.15v2.15h-2.15Zm12.89,0v-2.15h2.15v2.15h-2.15Zm12.89,0v-2.15h2.15v2.15h-2.15Zm12.89,0v-2.15h2.15v2.15h-2.15Zm12.89,0v-2.15h2.15v2.15h-2.15Zm12.89,0v-2.15h2.15v2.15h-2.15Zm12.89,0v-2.15h2.15v2.15h-2.15Zm12.89,0v-2.15h2.15v2.15h-2.15Zm12.89,0v-2.15h2.15v2.15h-2.15Zm12.89,0v-2.15h2.15v2.15h-2.15Zm12.89,0v-2.15h2.15v2.15h-2.15Zm12.88,0v-2.15h2.15v2.15h-2.15Zm12.89,0v-2.15h2.15v2.15h-2.15Zm12.89,0v-2.15h2.15v2.15h-2.15Zm12.89,0v-2.15h2.15v2.15h-2.15Zm12.89,0v-2.15h2.15v2.15h-2.15Zm12.89,0v-2.15h2.15v2.15h-2.15Zm12.88,0v-2.15h2.15v2.15h-2.15Zm12.89,0v-2.15h2.15v2.15h-2.15Zm12.89,0v-2.15h2.15v2.15h-2.15Zm12.89,0v-2.15h2.15v2.15h-2.15Zm12.89,0v-2.15h2.15v2.15h-2.15Zm12.89,0v-2.15h2.15v2.15h-2.15Zm12.89,0v-2.15h2.15v2.15h-2.15Zm12.89,0v-2.15h2.15v2.15h-2.15Z"/><path class="cls-7" d="m1404.53,1175.79v-2.15h2.15v2.15h-2.15Zm0-12.89v-2.15h2.15v2.15h-2.15Zm0-12.89v-2.15h2.15v2.15h-2.15Zm0-12.89v-2.15h2.15v2.15h-2.15Zm0-12.89v-2.15h2.15v2.15h-2.15Zm0-12.89v-2.15h2.15v2.15h-2.15Zm0-12.89v-2.15h2.15v2.15h-2.15Zm0-12.89v-2.15h2.15v2.15h-2.15Zm0-12.89v-2.15h2.15v2.15h-2.15Zm0-12.89v-2.15h2.15v2.15h-2.15Zm0-12.89v-2.15h2.15v2.15h-2.15Zm0-12.89v-2.15h2.15v2.15h-2.15Zm0-12.89v-2.15h2.15v2.15h-2.15Zm0-12.89v-2.15h2.15v2.15h-2.15Zm0-12.89v-2.15h2.15v2.15h-2.15Zm0-12.89v-2.15h2.15v2.15h-2.15Zm0-12.89v-2.15h2.15v2.15h-2.15Zm0-12.88v-2.15h2.15v2.15h-2.15Zm0-12.89v-2.15h2.15v2.15h-2.15Zm0-12.89v-2.15h2.15v2.15h-2.15Zm0-12.89v-2.15h2.15v2.15h-2.15Zm0-12.89v-2.15h2.15v2.15h-2.15Zm0-12.88v-2.15h2.15v2.15h-2.15Zm0-12.89v-2.15h2.15v2.15h-2.15Zm0-12.89v-2.15h2.15v2.15h-2.15Zm0-12.89v-2.15h2.15v2.15h-2.15Zm0-12.89v-2.15h2.15v2.15h-2.15Zm0-12.88v-2.15h2.15v2.15h-2.15Zm0-12.89v-2.15h2.15v2.15h-2.15Zm0-12.89v-2.15h2.15v2.15h-2.15Zm0-12.89v-2.15h2.15v2.15h-2.15Zm0-12.89v-2.15h2.15v2.15h-2.15Zm0-12.89v-2.15h2.15v2.15h-2.15Zm0-12.88v-2.15h2.15v2.15h-2.15Zm0-12.89v-2.15h2.15v2.15h-2.15Zm0-12.89v-2.15h2.15v2.15h-2.15Zm0-12.89v-2.15h2.15v2.15h-2.15Zm0-12.89v-2.15h2.15v2.15h-2.15Zm0-12.89v-2.15h2.15v2.15h-2.15Zm0-12.89v-2.15h2.15v2.15h-2.15Zm0-12.89v-2.15h2.15v2.15h-2.15Zm0-12.89v-2.15h2.15v2.15h-2.15Zm0-12.89v-2.15h2.15v2.15h-2.15Zm0-12.89v-2.15h2.15v2.15h-2.15Zm0-12.89v-2.15h2.15v2.15h-2.15Zm0-12.89v-2.15h2.15v2.15h-2.15Zm0-12.89v-2.15h2.15v2.15h-2.15Zm0-12.89v-2.15h2.15v2.15h-2.15Zm0-12.89v-2.15h2.15v2.15h-2.15Zm0-12.89v-2.15h2.15v2.15h-2.15Zm0-12.89v-2.15h2.15v2.15h-2.15Zm0-12.89v-2.15h2.15v2.15h-2.15Zm0-12.89v-2.15h2.15v2.15h-2.15Zm0-12.89v-2.15h2.15v2.15h-2.15Zm0-12.89v-2.15h2.15v2.15h-2.15Zm0-12.89v-2.15h2.15v2.15h-2.15Zm0-12.89v-2.15h2.15v2.15h-2.15Zm0-12.89v-2.15h2.15v2.15h-2.15Zm0-12.89v-2.15h2.15v2.15h-2.15Zm0-12.89v-2.15h2.15v2.15h-2.15Zm0-12.89v-2.15h2.15v2.15h-2.15Zm0-12.88v-2.15h2.15v2.15h-2.15Zm0-12.89v-2.15h2.15v2.15h-2.15Zm0-12.89v-2.15h2.15v2.15h-2.15Zm0-12.88v-2.15h2.15v2.15h-2.15Zm0-12.89v-2.15h2.15v2.15h-2.15Zm0-12.89v-2.15h2.15v2.15h-2.15Zm0-12.89v-2.15h2.15v2.15h-2.15Zm0-12.89v-2.15h2.15v2.15h-2.15Zm0-12.89v-2.15h2.15v2.15h-2.15Zm0-12.89v-2.15h2.15v2.15h-2.15Zm0-12.88v-2.15h2.15v2.15h-2.15Zm0-12.89v-2.15h2.15v2.15h-2.15Zm0-12.89v-2.15h2.15v2.15h-2.15Zm0-12.88v-2.15h2.15v2.15h-2.15Zm0-12.89v-2.15h2.15v2.15h-2.15Zm0-12.89v-2.15h2.15v2.15h-2.15Zm0-12.89v-2.15h2.15v2.15h-2.15Zm0-12.89v-2.15h2.15v2.15h-2.15Zm0-12.89v-2.15h2.15v2.15h-2.15Zm0-12.89v-2.15h2.15v2.15h-2.15Zm0-12.89v-2.15h2.15v2.15h-2.15Zm0-12.89v-2.15h2.15v2.15h-2.15Zm0-12.89v-2.15h2.15v2.15h-2.15Zm0-12.89v-2.15h2.15v2.15h-2.15Zm0-12.89v-2.15h2.15v2.15h-2.15Zm0-12.89v-2.15h2.15v2.15h-2.15Zm0-12.89v-2.15h2.15v2.15h-2.15Zm0-12.89v-2.15h2.15v2.15h-2.15Zm0-12.89v-2.15h2.15v2.15h-2.15Zm0-12.89v-2.15h2.15v2.15h-2.15Zm0-12.89V1.1h2.15v2.15h-2.15Zm0-12.89v-2.15h2.15v2.15h-2.15Z"/><path class="cls-7" d="m1303.72,1175.79v-2.15h2.15v2.15h-2.15Zm0-12.89v-2.15h2.15v2.15h-2.15Zm0-12.89v-2.15h2.15v2.15h-2.15Zm0-12.89v-2.15h2.15v2.15h-2.15Zm0-12.89v-2.15h2.15v2.15h-2.15Zm0-12.89v-2.15h2.15v2.15h-2.15Zm0-12.89v-2.15h2.15v2.15h-2.15Zm0-12.89v-2.15h2.15v2.15h-2.15Zm0-12.89v-2.15h2.15v2.15h-2.15Zm0-12.89v-2.15h2.15v2.15h-2.15Zm0-12.89v-2.15h2.15v2.15h-2.15Zm0-12.89v-2.15h2.15v2.15h-2.15Zm0-12.89v-2.15h2.15v2.15h-2.15Zm0-12.89v-2.15h2.15v2.15h-2.15Zm0-12.89v-2.15h2.15v2.15h-2.15Zm0-12.89v-2.15h2.15v2.15h-2.15Zm0-12.89v-2.15h2.15v2.15h-2.15Zm0-12.88v-2.15h2.15v2.15h-2.15Zm0-12.89v-2.15h2.15v2.15h-2.15Zm0-12.89v-2.15h2.15v2.15h-2.15Zm0-12.89v-2.15h2.15v2.15h-2.15Zm0-12.89v-2.15h2.15v2.15h-2.15Zm0-12.88v-2.15h2.15v2.15h-2.15Zm0-12.89v-2.15h2.15v2.15h-2.15Zm0-12.89v-2.15h2.15v2.15h-2.15Zm0-12.89v-2.15h2.15v2.15h-2.15Zm0-12.89v-2.15h2.15v2.15h-2.15Zm0-12.88v-2.15h2.15v2.15h-2.15Zm0-12.89v-2.15h2.15v2.15h-2.15Zm0-12.89v-2.15h2.15v2.15h-2.15Zm0-12.89v-2.15h2.15v2.15h-2.15Zm0-12.89v-2.15h2.15v2.15h-2.15Zm0-12.89v-2.15h2.15v2.15h-2.15Zm0-12.88v-2.15h2.15v2.15h-2.15Zm0-12.89v-2.15h2.15v2.15h-2.15Zm0-12.89v-2.15h2.15v2.15h-2.15Zm0-12.89v-2.15h2.15v2.15h-2.15Zm0-12.89v-2.15h2.15v2.15h-2.15Zm0-12.89v-2.15h2.15v2.15h-2.15Zm0-12.89v-2.15h2.15v2.15h-2.15Zm0-12.89v-2.15h2.15v2.15h-2.15Zm0-12.89v-2.15h2.15v2.15h-2.15Zm0-12.89v-2.15h2.15v2.15h-2.15Zm0-12.89v-2.15h2.15v2.15h-2.15Zm0-12.89v-2.15h2.15v2.15h-2.15Zm0-12.89v-2.15h2.15v2.15h-2.15Zm0-12.89v-2.15h2.15v2.15h-2.15Zm0-12.89v-2.15h2.15v2.15h-2.15Zm0-12.89v-2.15h2.15v2.15h-2.15Zm0-12.89v-2.15h2.15v2.15h-2.15Zm0-12.89v-2.15h2.15v2.15h-2.15Zm0-12.89v-2.15h2.15v2.15h-2.15Zm0-12.89v-2.15h2.15v2.15h-2.15Zm0-12.89v-2.15h2.15v2.15h-2.15Zm0-12.89v-2.15h2.15v2.15h-2.15Zm0-12.89v-2.15h2.15v2.15h-2.15Zm0-12.89v-2.15h2.15v2.15h-2.15Zm0-12.89v-2.15h2.15v2.15h-2.15Zm0-12.89v-2.15h2.15v2.15h-2.15Zm0-12.89v-2.15h2.15v2.15h-2.15Zm0-12.89v-2.15h2.15v2.15h-2.15Zm0-12.88v-2.15h2.15v2.15h-2.15Zm0-12.89v-2.15h2.15v2.15h-2.15Zm0-12.89v-2.15h2.15v2.15h-2.15Zm0-12.88v-2.15h2.15v2.15h-2.15Zm0-12.89v-2.15h2.15v2.15h-2.15Zm0-12.89v-2.15h2.15v2.15h-2.15Zm0-12.89v-2.15h2.15v2.15h-2.15Zm0-12.89v-2.15h2.15v2.15h-2.15Zm0-12.89v-2.15h2.15v2.15h-2.15Zm0-12.89v-2.15h2.15v2.15h-2.15Zm0-12.88v-2.15h2.15v2.15h-2.15Zm0-12.89v-2.15h2.15v2.15h-2.15Zm0-12.89v-2.15h2.15v2.15h-2.15Zm0-12.88v-2.15h2.15v2.15h-2.15Zm0-12.89v-2.15h2.15v2.15h-2.15Zm0-12.89v-2.15h2.15v2.15h-2.15Zm0-12.89v-2.15h2.15v2.15h-2.15Zm0-12.89v-2.15h2.15v2.15h-2.15Zm0-12.89v-2.15h2.15v2.15h-2.15Zm0-12.89v-2.15h2.15v2.15h-2.15Zm0-12.89v-2.15h2.15v2.15h-2.15Zm0-12.89v-2.15h2.15v2.15h-2.15Zm0-12.89v-2.15h2.15v2.15h-2.15Zm0-12.89v-2.15h2.15v2.15h-2.15Zm0-12.89v-2.15h2.15v2.15h-2.15Zm0-12.89v-2.15h2.15v2.15h-2.15Zm0-12.89v-2.15h2.15v2.15h-2.15Zm0-12.89v-2.15h2.15v2.15h-2.15Zm0-12.89v-2.15h2.15v2.15h-2.15Zm0-12.89v-2.15h2.15v2.15h-2.15Zm0-12.89V1.1h2.15v2.15h-2.15Zm0-12.89v-2.15h2.15v2.15h-2.15Z"/><path class="cls-7" d="m1202.92,1175.79v-2.15h2.15v2.15h-2.15Zm0-12.89v-2.15h2.15v2.15h-2.15Zm0-12.89v-2.15h2.15v2.15h-2.15Zm0-12.89v-2.15h2.15v2.15h-2.15Zm0-12.89v-2.15h2.15v2.15h-2.15Zm0-12.89v-2.15h2.15v2.15h-2.15Zm0-12.89v-2.15h2.15v2.15h-2.15Zm0-12.89v-2.15h2.15v2.15h-2.15Zm0-12.89v-2.15h2.15v2.15h-2.15Zm0-12.89v-2.15h2.15v2.15h-2.15Zm0-12.89v-2.15h2.15v2.15h-2.15Zm0-12.89v-2.15h2.15v2.15h-2.15Zm0-12.89v-2.15h2.15v2.15h-2.15Zm0-12.89v-2.15h2.15v2.15h-2.15Zm0-12.89v-2.15h2.15v2.15h-2.15Zm0-12.89v-2.15h2.15v2.15h-2.15Zm0-12.89v-2.15h2.15v2.15h-2.15Zm0-12.88v-2.15h2.15v2.15h-2.15Zm0-12.89v-2.15h2.15v2.15h-2.15Zm0-12.89v-2.15h2.15v2.15h-2.15Zm0-12.89v-2.15h2.15v2.15h-2.15Zm0-12.89v-2.15h2.15v2.15h-2.15Zm0-12.88v-2.15h2.15v2.15h-2.15Zm0-12.89v-2.15h2.15v2.15h-2.15Zm0-12.89v-2.15h2.15v2.15h-2.15Zm0-12.89v-2.15h2.15v2.15h-2.15Zm0-12.89v-2.15h2.15v2.15h-2.15Zm0-12.88v-2.15h2.15v2.15h-2.15Zm0-12.89v-2.15h2.15v2.15h-2.15Zm0-12.89v-2.15h2.15v2.15h-2.15Zm0-12.89v-2.15h2.15v2.15h-2.15Zm0-12.89v-2.15h2.15v2.15h-2.15Zm0-12.89v-2.15h2.15v2.15h-2.15Zm0-12.88v-2.15h2.15v2.15h-2.15Zm0-12.89v-2.15h2.15v2.15h-2.15Zm0-12.89v-2.15h2.15v2.15h-2.15Zm0-12.89v-2.15h2.15v2.15h-2.15Zm0-12.89v-2.15h2.15v2.15h-2.15Zm0-12.89v-2.15h2.15v2.15h-2.15Zm0-12.89v-2.15h2.15v2.15h-2.15Zm0-12.89v-2.15h2.15v2.15h-2.15Zm0-12.89v-2.15h2.15v2.15h-2.15Zm0-12.89v-2.15h2.15v2.15h-2.15Zm0-12.89v-2.15h2.15v2.15h-2.15Zm0-12.89v-2.15h2.15v2.15h-2.15Zm0-12.89v-2.15h2.15v2.15h-2.15Zm0-12.89v-2.15h2.15v2.15h-2.15Zm0-12.89v-2.15h2.15v2.15h-2.15Zm0-12.89v-2.15h2.15v2.15h-2.15Zm0-12.89v-2.15h2.15v2.15h-2.15Zm0-12.89v-2.15h2.15v2.15h-2.15Zm0-12.89v-2.15h2.15v2.15h-2.15Zm0-12.89v-2.15h2.15v2.15h-2.15Zm0-12.89v-2.15h2.15v2.15h-2.15Zm0-12.89v-2.15h2.15v2.15h-2.15Zm0-12.89v-2.15h2.15v2.15h-2.15Zm0-12.89v-2.15h2.15v2.15h-2.15Zm0-12.89v-2.15h2.15v2.15h-2.15Zm0-12.89v-2.15h2.15v2.15h-2.15Zm0-12.89v-2.15h2.15v2.15h-2.15Zm0-12.89v-2.15h2.15v2.15h-2.15Zm0-12.88v-2.15h2.15v2.15h-2.15Zm0-12.89v-2.15h2.15v2.15h-2.15Zm0-12.89v-2.15h2.15v2.15h-2.15Zm0-12.88v-2.15h2.15v2.15h-2.15Zm0-12.89v-2.15h2.15v2.15h-2.15Zm0-12.89v-2.15h2.15v2.15h-2.15Zm0-12.89v-2.15h2.15v2.15h-2.15Zm0-12.89v-2.15h2.15v2.15h-2.15Zm0-12.89v-2.15h2.15v2.15h-2.15Zm0-12.89v-2.15h2.15v2.15h-2.15Zm0-12.88v-2.15h2.15v2.15h-2.15Zm0-12.89v-2.15h2.15v2.15h-2.15Zm0-12.89v-2.15h2.15v2.15h-2.15Zm0-12.88v-2.15h2.15v2.15h-2.15Zm0-12.89v-2.15h2.15v2.15h-2.15Zm0-12.89v-2.15h2.15v2.15h-2.15Zm0-12.89v-2.15h2.15v2.15h-2.15Zm0-12.89v-2.15h2.15v2.15h-2.15Zm0-12.89v-2.15h2.15v2.15h-2.15Zm0-12.89v-2.15h2.15v2.15h-2.15Zm0-12.89v-2.15h2.15v2.15h-2.15Zm0-12.89v-2.15h2.15v2.15h-2.15Zm0-12.89v-2.15h2.15v2.15h-2.15Zm0-12.89v-2.15h2.15v2.15h-2.15Zm0-12.89v-2.15h2.15v2.15h-2.15Zm0-12.89v-2.15h2.15v2.15h-2.15Zm0-12.89v-2.15h2.15v2.15h-2.15Zm0-12.89v-2.15h2.15v2.15h-2.15Zm0-12.89v-2.15h2.15v2.15h-2.15Zm0-12.89v-2.15h2.15v2.15h-2.15Zm0-12.89V1.1h2.15v2.15h-2.15Zm0-12.89v-2.15h2.15v2.15h-2.15Z"/><path class="cls-7" d="m1102.11,1175.79v-2.15h2.15v2.15h-2.15Zm0-12.89v-2.15h2.15v2.15h-2.15Zm0-12.89v-2.15h2.15v2.15h-2.15Zm0-12.89v-2.15h2.15v2.15h-2.15Zm0-12.89v-2.15h2.15v2.15h-2.15Zm0-12.89v-2.15h2.15v2.15h-2.15Zm0-12.89v-2.15h2.15v2.15h-2.15Zm0-12.89v-2.15h2.15v2.15h-2.15Zm0-12.89v-2.15h2.15v2.15h-2.15Zm0-12.89v-2.15h2.15v2.15h-2.15Zm0-12.89v-2.15h2.15v2.15h-2.15Zm0-12.89v-2.15h2.15v2.15h-2.15Zm0-12.89v-2.15h2.15v2.15h-2.15Zm0-12.89v-2.15h2.15v2.15h-2.15Zm0-12.89v-2.15h2.15v2.15h-2.15Zm0-12.89v-2.15h2.15v2.15h-2.15Zm0-12.89v-2.15h2.15v2.15h-2.15Zm0-12.88v-2.15h2.15v2.15h-2.15Zm0-12.89v-2.15h2.15v2.15h-2.15Zm0-12.89v-2.15h2.15v2.15h-2.15Zm0-12.89v-2.15h2.15v2.15h-2.15Zm0-12.89v-2.15h2.15v2.15h-2.15Zm0-12.88v-2.15h2.15v2.15h-2.15Zm0-12.89v-2.15h2.15v2.15h-2.15Zm0-12.89v-2.15h2.15v2.15h-2.15Zm0-12.89v-2.15h2.15v2.15h-2.15Zm0-12.89v-2.15h2.15v2.15h-2.15Zm0-12.88v-2.15h2.15v2.15h-2.15Zm0-12.89v-2.15h2.15v2.15h-2.15Zm0-12.89v-2.15h2.15v2.15h-2.15Zm0-12.89v-2.15h2.15v2.15h-2.15Zm0-12.89v-2.15h2.15v2.15h-2.15Zm0-12.89v-2.15h2.15v2.15h-2.15Zm0-12.88v-2.15h2.15v2.15h-2.15Zm0-12.89v-2.15h2.15v2.15h-2.15Zm0-12.89v-2.15h2.15v2.15h-2.15Zm0-12.89v-2.15h2.15v2.15h-2.15Zm0-12.89v-2.15h2.15v2.15h-2.15Zm0-12.89v-2.15h2.15v2.15h-2.15Zm0-12.89v-2.15h2.15v2.15h-2.15Zm0-12.89v-2.15h2.15v2.15h-2.15Zm0-12.89v-2.15h2.15v2.15h-2.15Zm0-12.89v-2.15h2.15v2.15h-2.15Zm0-12.89v-2.15h2.15v2.15h-2.15Zm0-12.89v-2.15h2.15v2.15h-2.15Zm0-12.89v-2.15h2.15v2.15h-2.15Zm0-12.89v-2.15h2.15v2.15h-2.15Zm0-12.89v-2.15h2.15v2.15h-2.15Zm0-12.89v-2.15h2.15v2.15h-2.15Zm0-12.89v-2.15h2.15v2.15h-2.15Zm0-12.89v-2.15h2.15v2.15h-2.15Zm0-12.89v-2.15h2.15v2.15h-2.15Zm0-12.89v-2.15h2.15v2.15h-2.15Zm0-12.89v-2.15h2.15v2.15h-2.15Zm0-12.89v-2.15h2.15v2.15h-2.15Zm0-12.89v-2.15h2.15v2.15h-2.15Zm0-12.89v-2.15h2.15v2.15h-2.15Zm0-12.89v-2.15h2.15v2.15h-2.15Zm0-12.89v-2.15h2.15v2.15h-2.15Zm0-12.89v-2.15h2.15v2.15h-2.15Zm0-12.89v-2.15h2.15v2.15h-2.15Zm0-12.88v-2.15h2.15v2.15h-2.15Zm0-12.89v-2.15h2.15v2.15h-2.15Zm0-12.89v-2.15h2.15v2.15h-2.15Zm0-12.88v-2.15h2.15v2.15h-2.15Zm0-12.89v-2.15h2.15v2.15h-2.15Zm0-12.89v-2.15h2.15v2.15h-2.15Zm0-12.89v-2.15h2.15v2.15h-2.15Zm0-12.89v-2.15h2.15v2.15h-2.15Zm0-12.89v-2.15h2.15v2.15h-2.15Zm0-12.89v-2.15h2.15v2.15h-2.15Zm0-12.88v-2.15h2.15v2.15h-2.15Zm0-12.89v-2.15h2.15v2.15h-2.15Zm0-12.89v-2.15h2.15v2.15h-2.15Zm0-12.88v-2.15h2.15v2.15h-2.15Zm0-12.89v-2.15h2.15v2.15h-2.15Zm0-12.89v-2.15h2.15v2.15h-2.15Zm0-12.89v-2.15h2.15v2.15h-2.15Zm0-12.89v-2.15h2.15v2.15h-2.15Zm0-12.89v-2.15h2.15v2.15h-2.15Zm0-12.89v-2.15h2.15v2.15h-2.15Zm0-12.89v-2.15h2.15v2.15h-2.15Zm0-12.89v-2.15h2.15v2.15h-2.15Zm0-12.89v-2.15h2.15v2.15h-2.15Zm0-12.89v-2.15h2.15v2.15h-2.15Zm0-12.89v-2.15h2.15v2.15h-2.15Zm0-12.89v-2.15h2.15v2.15h-2.15Zm0-12.89v-2.15h2.15v2.15h-2.15Zm0-12.89v-2.15h2.15v2.15h-2.15Zm0-12.89v-2.15h2.15v2.15h-2.15Zm0-12.89v-2.15h2.15v2.15h-2.15Zm0-12.89V1.1h2.15v2.15h-2.15Zm0-12.89v-2.15h2.15v2.15h-2.15Z"/><path class="cls-7" d="m1001.3,1175.79v-2.15h2.15v2.15h-2.15Zm0-12.89v-2.15h2.15v2.15h-2.15Zm0-12.89v-2.15h2.15v2.15h-2.15Zm0-12.89v-2.15h2.15v2.15h-2.15Zm0-12.89v-2.15h2.15v2.15h-2.15Zm0-12.89v-2.15h2.15v2.15h-2.15Zm0-12.89v-2.15h2.15v2.15h-2.15Zm0-12.89v-2.15h2.15v2.15h-2.15Zm0-12.89v-2.15h2.15v2.15h-2.15Zm0-12.89v-2.15h2.15v2.15h-2.15Zm0-12.89v-2.15h2.15v2.15h-2.15Zm0-12.89v-2.15h2.15v2.15h-2.15Zm0-12.89v-2.15h2.15v2.15h-2.15Zm0-12.89v-2.15h2.15v2.15h-2.15Zm0-12.89v-2.15h2.15v2.15h-2.15Zm0-12.89v-2.15h2.15v2.15h-2.15Zm0-12.89v-2.15h2.15v2.15h-2.15Zm0-12.88v-2.15h2.15v2.15h-2.15Zm0-12.89v-2.15h2.15v2.15h-2.15Zm0-12.89v-2.15h2.15v2.15h-2.15Zm0-12.89v-2.15h2.15v2.15h-2.15Zm0-12.89v-2.15h2.15v2.15h-2.15Zm0-12.88v-2.15h2.15v2.15h-2.15Zm0-12.89v-2.15h2.15v2.15h-2.15Zm0-12.89v-2.15h2.15v2.15h-2.15Zm0-12.89v-2.15h2.15v2.15h-2.15Zm0-12.89v-2.15h2.15v2.15h-2.15Zm0-12.88v-2.15h2.15v2.15h-2.15Zm0-12.89v-2.15h2.15v2.15h-2.15Zm0-12.89v-2.15h2.15v2.15h-2.15Zm0-12.89v-2.15h2.15v2.15h-2.15Zm0-12.89v-2.15h2.15v2.15h-2.15Zm0-12.89v-2.15h2.15v2.15h-2.15Zm0-12.88v-2.15h2.15v2.15h-2.15Zm0-12.89v-2.15h2.15v2.15h-2.15Zm0-12.89v-2.15h2.15v2.15h-2.15Zm0-12.89v-2.15h2.15v2.15h-2.15Zm0-12.89v-2.15h2.15v2.15h-2.15Zm0-12.89v-2.15h2.15v2.15h-2.15Zm0-12.89v-2.15h2.15v2.15h-2.15Zm0-12.89v-2.15h2.15v2.15h-2.15Zm0-12.89v-2.15h2.15v2.15h-2.15Zm0-12.89v-2.15h2.15v2.15h-2.15Zm0-12.89v-2.15h2.15v2.15h-2.15Zm0-12.89v-2.15h2.15v2.15h-2.15Zm0-12.89v-2.15h2.15v2.15h-2.15Zm0-12.89v-2.15h2.15v2.15h-2.15Zm0-12.89v-2.15h2.15v2.15h-2.15Zm0-12.89v-2.15h2.15v2.15h-2.15Zm0-12.89v-2.15h2.15v2.15h-2.15Zm0-12.89v-2.15h2.15v2.15h-2.15Zm0-12.89v-2.15h2.15v2.15h-2.15Zm0-12.89v-2.15h2.15v2.15h-2.15Zm0-12.89v-2.15h2.15v2.15h-2.15Zm0-12.89v-2.15h2.15v2.15h-2.15Zm0-12.89v-2.15h2.15v2.15h-2.15Zm0-12.89v-2.15h2.15v2.15h-2.15Zm0-12.89v-2.15h2.15v2.15h-2.15Zm0-12.89v-2.15h2.15v2.15h-2.15Zm0-12.89v-2.15h2.15v2.15h-2.15Zm0-12.89v-2.15h2.15v2.15h-2.15Zm0-12.88v-2.15h2.15v2.15h-2.15Zm0-12.89v-2.15h2.15v2.15h-2.15Zm0-12.89v-2.15h2.15v2.15h-2.15Zm0-12.88v-2.15h2.15v2.15h-2.15Zm0-12.89v-2.15h2.15v2.15h-2.15Zm0-12.89v-2.15h2.15v2.15h-2.15Zm0-12.89v-2.15h2.15v2.15h-2.15Zm0-12.89v-2.15h2.15v2.15h-2.15Zm0-12.89v-2.15h2.15v2.15h-2.15Zm0-12.89v-2.15h2.15v2.15h-2.15Zm0-12.88v-2.15h2.15v2.15h-2.15Zm0-12.89v-2.15h2.15v2.15h-2.15Zm0-12.89v-2.15h2.15v2.15h-2.15Zm0-12.88v-2.15h2.15v2.15h-2.15Zm0-12.89v-2.15h2.15v2.15h-2.15Zm0-12.89v-2.15h2.15v2.15h-2.15Zm0-12.89v-2.15h2.15v2.15h-2.15Zm0-12.89v-2.15h2.15v2.15h-2.15Zm0-12.89v-2.15h2.15v2.15h-2.15Zm0-12.89v-2.15h2.15v2.15h-2.15Zm0-12.89v-2.15h2.15v2.15h-2.15Zm0-12.89v-2.15h2.15v2.15h-2.15Zm0-12.89v-2.15h2.15v2.15h-2.15Zm0-12.89v-2.15h2.15v2.15h-2.15Zm0-12.89v-2.15h2.15v2.15h-2.15Zm0-12.89v-2.15h2.15v2.15h-2.15Zm0-12.89v-2.15h2.15v2.15h-2.15Zm0-12.89v-2.15h2.15v2.15h-2.15Zm0-12.89v-2.15h2.15v2.15h-2.15Zm0-12.89v-2.15h2.15v2.15h-2.15Zm0-12.89V1.1h2.15v2.15h-2.15Zm0-12.89v-2.15h2.15v2.15h-2.15Z"/><path class="cls-7" d="m900.49,1175.79v-2.15h2.15v2.15h-2.15Zm0-12.89v-2.15h2.15v2.15h-2.15Zm0-12.89v-2.15h2.15v2.15h-2.15Zm0-12.89v-2.15h2.15v2.15h-2.15Zm0-12.89v-2.15h2.15v2.15h-2.15Zm0-12.89v-2.15h2.15v2.15h-2.15Zm0-12.89v-2.15h2.15v2.15h-2.15Zm0-12.89v-2.15h2.15v2.15h-2.15Zm0-12.89v-2.15h2.15v2.15h-2.15Zm0-12.89v-2.15h2.15v2.15h-2.15Zm0-12.89v-2.15h2.15v2.15h-2.15Zm0-12.89v-2.15h2.15v2.15h-2.15Zm0-12.89v-2.15h2.15v2.15h-2.15Zm0-12.89v-2.15h2.15v2.15h-2.15Zm0-12.89v-2.15h2.15v2.15h-2.15Zm0-12.89v-2.15h2.15v2.15h-2.15Zm0-12.89v-2.15h2.15v2.15h-2.15Zm0-12.88v-2.15h2.15v2.15h-2.15Zm0-12.89v-2.15h2.15v2.15h-2.15Zm0-12.89v-2.15h2.15v2.15h-2.15Zm0-12.89v-2.15h2.15v2.15h-2.15Zm0-12.89v-2.15h2.15v2.15h-2.15Zm0-12.88v-2.15h2.15v2.15h-2.15Zm0-12.89v-2.15h2.15v2.15h-2.15Zm0-12.89v-2.15h2.15v2.15h-2.15Zm0-12.89v-2.15h2.15v2.15h-2.15Zm0-12.89v-2.15h2.15v2.15h-2.15Zm0-12.88v-2.15h2.15v2.15h-2.15Zm0-12.89v-2.15h2.15v2.15h-2.15Zm0-12.89v-2.15h2.15v2.15h-2.15Zm0-12.89v-2.15h2.15v2.15h-2.15Zm0-12.89v-2.15h2.15v2.15h-2.15Zm0-12.89v-2.15h2.15v2.15h-2.15Zm0-12.88v-2.15h2.15v2.15h-2.15Zm0-12.89v-2.15h2.15v2.15h-2.15Zm0-12.89v-2.15h2.15v2.15h-2.15Zm0-12.89v-2.15h2.15v2.15h-2.15Zm0-12.89v-2.15h2.15v2.15h-2.15Zm0-12.89v-2.15h2.15v2.15h-2.15Zm0-12.89v-2.15h2.15v2.15h-2.15Zm0-12.89v-2.15h2.15v2.15h-2.15Zm0-12.89v-2.15h2.15v2.15h-2.15Zm0-12.89v-2.15h2.15v2.15h-2.15Zm0-12.89v-2.15h2.15v2.15h-2.15Zm0-12.89v-2.15h2.15v2.15h-2.15Zm0-12.89v-2.15h2.15v2.15h-2.15Zm0-12.89v-2.15h2.15v2.15h-2.15Zm0-12.89v-2.15h2.15v2.15h-2.15Zm0-12.89v-2.15h2.15v2.15h-2.15Zm0-12.89v-2.15h2.15v2.15h-2.15Zm0-12.89v-2.15h2.15v2.15h-2.15Zm0-12.89v-2.15h2.15v2.15h-2.15Zm0-12.89v-2.15h2.15v2.15h-2.15Zm0-12.89v-2.15h2.15v2.15h-2.15Zm0-12.89v-2.15h2.15v2.15h-2.15Zm0-12.89v-2.15h2.15v2.15h-2.15Zm0-12.89v-2.15h2.15v2.15h-2.15Zm0-12.89v-2.15h2.15v2.15h-2.15Zm0-12.89v-2.15h2.15v2.15h-2.15Zm0-12.89v-2.15h2.15v2.15h-2.15Zm0-12.89v-2.15h2.15v2.15h-2.15Zm0-12.88v-2.15h2.15v2.15h-2.15Zm0-12.89v-2.15h2.15v2.15h-2.15Zm0-12.89v-2.15h2.15v2.15h-2.15Zm0-12.88v-2.15h2.15v2.15h-2.15Zm0-12.89v-2.15h2.15v2.15h-2.15Zm0-12.89v-2.15h2.15v2.15h-2.15Zm0-12.89v-2.15h2.15v2.15h-2.15Zm0-12.89v-2.15h2.15v2.15h-2.15Zm0-12.89v-2.15h2.15v2.15h-2.15Zm0-12.89v-2.15h2.15v2.15h-2.15Zm0-12.88v-2.15h2.15v2.15h-2.15Zm0-12.89v-2.15h2.15v2.15h-2.15Zm0-12.89v-2.15h2.15v2.15h-2.15Zm0-12.88v-2.15h2.15v2.15h-2.15Zm0-12.89v-2.15h2.15v2.15h-2.15Zm0-12.89v-2.15h2.15v2.15h-2.15Zm0-12.89v-2.15h2.15v2.15h-2.15Zm0-12.89v-2.15h2.15v2.15h-2.15Zm0-12.89v-2.15h2.15v2.15h-2.15Zm0-12.89v-2.15h2.15v2.15h-2.15Zm0-12.89v-2.15h2.15v2.15h-2.15Zm0-12.89v-2.15h2.15v2.15h-2.15Zm0-12.89v-2.15h2.15v2.15h-2.15Zm0-12.89v-2.15h2.15v2.15h-2.15Zm0-12.89v-2.15h2.15v2.15h-2.15Zm0-12.89v-2.15h2.15v2.15h-2.15Zm0-12.89v-2.15h2.15v2.15h-2.15Zm0-12.89v-2.15h2.15v2.15h-2.15Zm0-12.89v-2.15h2.15v2.15h-2.15Zm0-12.89v-2.15h2.15v2.15h-2.15Zm0-12.89V1.1h2.15v2.15h-2.15Zm0-12.89v-2.15h2.15v2.15h-2.15Z"/><path class="cls-7" d="m799.69,1175.79v-2.15h2.15v2.15h-2.15Zm0-12.89v-2.15h2.15v2.15h-2.15Zm0-12.89v-2.15h2.15v2.15h-2.15Zm0-12.89v-2.15h2.15v2.15h-2.15Zm0-12.89v-2.15h2.15v2.15h-2.15Zm0-12.89v-2.15h2.15v2.15h-2.15Zm0-12.89v-2.15h2.15v2.15h-2.15Zm0-12.89v-2.15h2.15v2.15h-2.15Zm0-12.89v-2.15h2.15v2.15h-2.15Zm0-12.89v-2.15h2.15v2.15h-2.15Zm0-12.89v-2.15h2.15v2.15h-2.15Zm0-12.89v-2.15h2.15v2.15h-2.15Zm0-12.89v-2.15h2.15v2.15h-2.15Zm0-12.89v-2.15h2.15v2.15h-2.15Zm0-12.89v-2.15h2.15v2.15h-2.15Zm0-12.89v-2.15h2.15v2.15h-2.15Zm0-12.89v-2.15h2.15v2.15h-2.15Zm0-12.88v-2.15h2.15v2.15h-2.15Zm0-12.89v-2.15h2.15v2.15h-2.15Zm0-12.89v-2.15h2.15v2.15h-2.15Zm0-12.89v-2.15h2.15v2.15h-2.15Zm0-12.89v-2.15h2.15v2.15h-2.15Zm0-12.88v-2.15h2.15v2.15h-2.15Zm0-12.89v-2.15h2.15v2.15h-2.15Zm0-12.89v-2.15h2.15v2.15h-2.15Zm0-12.89v-2.15h2.15v2.15h-2.15Zm0-12.89v-2.15h2.15v2.15h-2.15Zm0-12.88v-2.15h2.15v2.15h-2.15Zm0-12.89v-2.15h2.15v2.15h-2.15Zm0-12.89v-2.15h2.15v2.15h-2.15Zm0-12.89v-2.15h2.15v2.15h-2.15Zm0-12.89v-2.15h2.15v2.15h-2.15Zm0-12.89v-2.15h2.15v2.15h-2.15Zm0-12.88v-2.15h2.15v2.15h-2.15Zm0-12.89v-2.15h2.15v2.15h-2.15Zm0-12.89v-2.15h2.15v2.15h-2.15Zm0-12.89v-2.15h2.15v2.15h-2.15Zm0-12.89v-2.15h2.15v2.15h-2.15Zm0-12.89v-2.15h2.15v2.15h-2.15Zm0-12.89v-2.15h2.15v2.15h-2.15Zm0-12.89v-2.15h2.15v2.15h-2.15Zm0-12.89v-2.15h2.15v2.15h-2.15Zm0-12.89v-2.15h2.15v2.15h-2.15Zm0-12.89v-2.15h2.15v2.15h-2.15Zm0-12.89v-2.15h2.15v2.15h-2.15Zm0-12.89v-2.15h2.15v2.15h-2.15Zm0-12.89v-2.15h2.15v2.15h-2.15Zm0-12.89v-2.15h2.15v2.15h-2.15Zm0-12.89v-2.15h2.15v2.15h-2.15Zm0-12.89v-2.15h2.15v2.15h-2.15Zm0-12.89v-2.15h2.15v2.15h-2.15Zm0-12.89v-2.15h2.15v2.15h-2.15Zm0-12.89v-2.15h2.15v2.15h-2.15Zm0-12.89v-2.15h2.15v2.15h-2.15Zm0-12.89v-2.15h2.15v2.15h-2.15Zm0-12.89v-2.15h2.15v2.15h-2.15Zm0-12.89v-2.15h2.15v2.15h-2.15Zm0-12.89v-2.15h2.15v2.15h-2.15Zm0-12.89v-2.15h2.15v2.15h-2.15Zm0-12.89v-2.15h2.15v2.15h-2.15Zm0-12.89v-2.15h2.15v2.15h-2.15Zm0-12.88v-2.15h2.15v2.15h-2.15Zm0-12.89v-2.15h2.15v2.15h-2.15Zm0-12.89v-2.15h2.15v2.15h-2.15Zm0-12.88v-2.15h2.15v2.15h-2.15Zm0-12.89v-2.15h2.15v2.15h-2.15Zm0-12.89v-2.15h2.15v2.15h-2.15Zm0-12.89v-2.15h2.15v2.15h-2.15Zm0-12.89v-2.15h2.15v2.15h-2.15Zm0-12.89v-2.15h2.15v2.15h-2.15Zm0-12.89v-2.15h2.15v2.15h-2.15Zm0-12.88v-2.15h2.15v2.15h-2.15Zm0-12.89v-2.15h2.15v2.15h-2.15Zm0-12.89v-2.15h2.15v2.15h-2.15Zm0-12.88v-2.15h2.15v2.15h-2.15Zm0-12.89v-2.15h2.15v2.15h-2.15Zm0-12.89v-2.15h2.15v2.15h-2.15Zm0-12.89v-2.15h2.15v2.15h-2.15Zm0-12.89v-2.15h2.15v2.15h-2.15Zm0-12.89v-2.15h2.15v2.15h-2.15Zm0-12.89v-2.15h2.15v2.15h-2.15Zm0-12.89v-2.15h2.15v2.15h-2.15Zm0-12.89v-2.15h2.15v2.15h-2.15Zm0-12.89v-2.15h2.15v2.15h-2.15Zm0-12.89v-2.15h2.15v2.15h-2.15Zm0-12.89v-2.15h2.15v2.15h-2.15Zm0-12.89v-2.15h2.15v2.15h-2.15Zm0-12.89v-2.15h2.15v2.15h-2.15Zm0-12.89v-2.15h2.15v2.15h-2.15Zm0-12.89v-2.15h2.15v2.15h-2.15Zm0-12.89v-2.15h2.15v2.15h-2.15Zm0-12.89V1.1h2.15v2.15h-2.15Zm0-12.89v-2.15h2.15v2.15h-2.15Z"/><path class="cls-7" d="m698.88,1175.79v-2.15h2.15v2.15h-2.15Zm0-12.89v-2.15h2.15v2.15h-2.15Zm0-12.89v-2.15h2.15v2.15h-2.15Zm0-12.89v-2.15h2.15v2.15h-2.15Zm0-12.89v-2.15h2.15v2.15h-2.15Zm0-12.89v-2.15h2.15v2.15h-2.15Zm0-12.89v-2.15h2.15v2.15h-2.15Zm0-12.89v-2.15h2.15v2.15h-2.15Zm0-12.89v-2.15h2.15v2.15h-2.15Zm0-12.89v-2.15h2.15v2.15h-2.15Zm0-12.89v-2.15h2.15v2.15h-2.15Zm0-12.89v-2.15h2.15v2.15h-2.15Zm0-12.89v-2.15h2.15v2.15h-2.15Zm0-12.89v-2.15h2.15v2.15h-2.15Zm0-12.89v-2.15h2.15v2.15h-2.15Zm0-12.89v-2.15h2.15v2.15h-2.15Zm0-12.89v-2.15h2.15v2.15h-2.15Zm0-12.88v-2.15h2.15v2.15h-2.15Zm0-12.89v-2.15h2.15v2.15h-2.15Zm0-12.89v-2.15h2.15v2.15h-2.15Zm0-12.89v-2.15h2.15v2.15h-2.15Zm0-12.89v-2.15h2.15v2.15h-2.15Zm0-12.88v-2.15h2.15v2.15h-2.15Zm0-12.89v-2.15h2.15v2.15h-2.15Zm0-12.89v-2.15h2.15v2.15h-2.15Zm0-12.89v-2.15h2.15v2.15h-2.15Zm0-12.89v-2.15h2.15v2.15h-2.15Zm0-12.88v-2.15h2.15v2.15h-2.15Zm0-12.89v-2.15h2.15v2.15h-2.15Zm0-12.89v-2.15h2.15v2.15h-2.15Zm0-12.89v-2.15h2.15v2.15h-2.15Zm0-12.89v-2.15h2.15v2.15h-2.15Zm0-12.89v-2.15h2.15v2.15h-2.15Zm0-12.88v-2.15h2.15v2.15h-2.15Zm0-12.89v-2.15h2.15v2.15h-2.15Zm0-12.89v-2.15h2.15v2.15h-2.15Zm0-12.89v-2.15h2.15v2.15h-2.15Zm0-12.89v-2.15h2.15v2.15h-2.15Zm0-12.89v-2.15h2.15v2.15h-2.15Zm0-12.89v-2.15h2.15v2.15h-2.15Zm0-12.89v-2.15h2.15v2.15h-2.15Zm0-12.89v-2.15h2.15v2.15h-2.15Zm0-12.89v-2.15h2.15v2.15h-2.15Zm0-12.89v-2.15h2.15v2.15h-2.15Zm0-12.89v-2.15h2.15v2.15h-2.15Zm0-12.89v-2.15h2.15v2.15h-2.15Zm0-12.89v-2.15h2.15v2.15h-2.15Zm0-12.89v-2.15h2.15v2.15h-2.15Zm0-12.89v-2.15h2.15v2.15h-2.15Zm0-12.89v-2.15h2.15v2.15h-2.15Zm0-12.89v-2.15h2.15v2.15h-2.15Zm0-12.89v-2.15h2.15v2.15h-2.15Zm0-12.89v-2.15h2.15v2.15h-2.15Zm0-12.89v-2.15h2.15v2.15h-2.15Zm0-12.89v-2.15h2.15v2.15h-2.15Zm0-12.89v-2.15h2.15v2.15h-2.15Zm0-12.89v-2.15h2.15v2.15h-2.15Zm0-12.89v-2.15h2.15v2.15h-2.15Zm0-12.89v-2.15h2.15v2.15h-2.15Zm0-12.89v-2.15h2.15v2.15h-2.15Zm0-12.89v-2.15h2.15v2.15h-2.15Zm0-12.88v-2.15h2.15v2.15h-2.15Zm0-12.89v-2.15h2.15v2.15h-2.15Zm0-12.89v-2.15h2.15v2.15h-2.15Zm0-12.88v-2.15h2.15v2.15h-2.15Zm0-12.89v-2.15h2.15v2.15h-2.15Zm0-12.89v-2.15h2.15v2.15h-2.15Zm0-12.89v-2.15h2.15v2.15h-2.15Zm0-12.89v-2.15h2.15v2.15h-2.15Zm0-12.89v-2.15h2.15v2.15h-2.15Zm0-12.89v-2.15h2.15v2.15h-2.15Zm0-12.88v-2.15h2.15v2.15h-2.15Zm0-12.89v-2.15h2.15v2.15h-2.15Zm0-12.89v-2.15h2.15v2.15h-2.15Zm0-12.88v-2.15h2.15v2.15h-2.15Zm0-12.89v-2.15h2.15v2.15h-2.15Zm0-12.89v-2.15h2.15v2.15h-2.15Zm0-12.89v-2.15h2.15v2.15h-2.15Zm0-12.89v-2.15h2.15v2.15h-2.15Zm0-12.89v-2.15h2.15v2.15h-2.15Zm0-12.89v-2.15h2.15v2.15h-2.15Zm0-12.89v-2.15h2.15v2.15h-2.15Zm0-12.89v-2.15h2.15v2.15h-2.15Zm0-12.89v-2.15h2.15v2.15h-2.15Zm0-12.89v-2.15h2.15v2.15h-2.15Zm0-12.89v-2.15h2.15v2.15h-2.15Zm0-12.89v-2.15h2.15v2.15h-2.15Zm0-12.89v-2.15h2.15v2.15h-2.15Zm0-12.89v-2.15h2.15v2.15h-2.15Zm0-12.89v-2.15h2.15v2.15h-2.15Zm0-12.89v-2.15h2.15v2.15h-2.15Zm0-12.89V1.1h2.15v2.15h-2.15Zm0-12.89v-2.15h2.15v2.15h-2.15Z"/><path class="cls-7" d="m598.07,1175.79v-2.15h2.15v2.15h-2.15Zm0-12.89v-2.15h2.15v2.15h-2.15Zm0-12.89v-2.15h2.15v2.15h-2.15Zm0-12.89v-2.15h2.15v2.15h-2.15Zm0-12.89v-2.15h2.15v2.15h-2.15Zm0-12.89v-2.15h2.15v2.15h-2.15Zm0-12.89v-2.15h2.15v2.15h-2.15Zm0-12.89v-2.15h2.15v2.15h-2.15Zm0-12.89v-2.15h2.15v2.15h-2.15Zm0-12.89v-2.15h2.15v2.15h-2.15Zm0-12.89v-2.15h2.15v2.15h-2.15Zm0-12.89v-2.15h2.15v2.15h-2.15Zm0-12.89v-2.15h2.15v2.15h-2.15Zm0-12.89v-2.15h2.15v2.15h-2.15Zm0-12.89v-2.15h2.15v2.15h-2.15Zm0-12.89v-2.15h2.15v2.15h-2.15Zm0-12.89v-2.15h2.15v2.15h-2.15Zm0-12.88v-2.15h2.15v2.15h-2.15Zm0-12.89v-2.15h2.15v2.15h-2.15Zm0-12.89v-2.15h2.15v2.15h-2.15Zm0-12.89v-2.15h2.15v2.15h-2.15Zm0-12.89v-2.15h2.15v2.15h-2.15Zm0-12.88v-2.15h2.15v2.15h-2.15Zm0-12.89v-2.15h2.15v2.15h-2.15Zm0-12.89v-2.15h2.15v2.15h-2.15Zm0-12.89v-2.15h2.15v2.15h-2.15Zm0-12.89v-2.15h2.15v2.15h-2.15Zm0-12.88v-2.15h2.15v2.15h-2.15Zm0-12.89v-2.15h2.15v2.15h-2.15Zm0-12.89v-2.15h2.15v2.15h-2.15Zm0-12.89v-2.15h2.15v2.15h-2.15Zm0-12.89v-2.15h2.15v2.15h-2.15Zm0-12.89v-2.15h2.15v2.15h-2.15Zm0-12.88v-2.15h2.15v2.15h-2.15Zm0-12.89v-2.15h2.15v2.15h-2.15Zm0-12.89v-2.15h2.15v2.15h-2.15Zm0-12.89v-2.15h2.15v2.15h-2.15Zm0-12.89v-2.15h2.15v2.15h-2.15Zm0-12.89v-2.15h2.15v2.15h-2.15Zm0-12.89v-2.15h2.15v2.15h-2.15Zm0-12.89v-2.15h2.15v2.15h-2.15Zm0-12.89v-2.15h2.15v2.15h-2.15Zm0-12.89v-2.15h2.15v2.15h-2.15Zm0-12.89v-2.15h2.15v2.15h-2.15Zm0-12.89v-2.15h2.15v2.15h-2.15Zm0-12.89v-2.15h2.15v2.15h-2.15Zm0-12.89v-2.15h2.15v2.15h-2.15Zm0-12.89v-2.15h2.15v2.15h-2.15Zm0-12.89v-2.15h2.15v2.15h-2.15Zm0-12.89v-2.15h2.15v2.15h-2.15Zm0-12.89v-2.15h2.15v2.15h-2.15Zm0-12.89v-2.15h2.15v2.15h-2.15Zm0-12.89v-2.15h2.15v2.15h-2.15Zm0-12.89v-2.15h2.15v2.15h-2.15Zm0-12.89v-2.15h2.15v2.15h-2.15Zm0-12.89v-2.15h2.15v2.15h-2.15Zm0-12.89v-2.15h2.15v2.15h-2.15Zm0-12.89v-2.15h2.15v2.15h-2.15Zm0-12.89v-2.15h2.15v2.15h-2.15Zm0-12.89v-2.15h2.15v2.15h-2.15Zm0-12.89v-2.15h2.15v2.15h-2.15Zm0-12.88v-2.15h2.15v2.15h-2.15Zm0-12.89v-2.15h2.15v2.15h-2.15Zm0-12.89v-2.15h2.15v2.15h-2.15Zm0-12.88v-2.15h2.15v2.15h-2.15Zm0-12.89v-2.15h2.15v2.15h-2.15Zm0-12.89v-2.15h2.15v2.15h-2.15Zm0-12.89v-2.15h2.15v2.15h-2.15Zm0-12.89v-2.15h2.15v2.15h-2.15Zm0-12.89v-2.15h2.15v2.15h-2.15Zm0-12.89v-2.15h2.15v2.15h-2.15Zm0-12.88v-2.15h2.15v2.15h-2.15Zm0-12.89v-2.15h2.15v2.15h-2.15Zm0-12.89v-2.15h2.15v2.15h-2.15Zm0-12.88v-2.15h2.15v2.15h-2.15Zm0-12.89v-2.15h2.15v2.15h-2.15Zm0-12.89v-2.15h2.15v2.15h-2.15Zm0-12.89v-2.15h2.15v2.15h-2.15Zm0-12.89v-2.15h2.15v2.15h-2.15Zm0-12.89v-2.15h2.15v2.15h-2.15Zm0-12.89v-2.15h2.15v2.15h-2.15Zm0-12.89v-2.15h2.15v2.15h-2.15Zm0-12.89v-2.15h2.15v2.15h-2.15Zm0-12.89v-2.15h2.15v2.15h-2.15Zm0-12.89v-2.15h2.15v2.15h-2.15Zm0-12.89v-2.15h2.15v2.15h-2.15Zm0-12.89v-2.15h2.15v2.15h-2.15Zm0-12.89v-2.15h2.15v2.15h-2.15Zm0-12.89v-2.15h2.15v2.15h-2.15Zm0-12.89v-2.15h2.15v2.15h-2.15Zm0-12.89v-2.15h2.15v2.15h-2.15Zm0-12.89V1.1h2.15v2.15h-2.15Zm0-12.89v-2.15h2.15v2.15h-2.15Z"/><path class="cls-7" d="m497.26,1175.79v-2.15h2.15v2.15h-2.15Zm0-12.89v-2.15h2.15v2.15h-2.15Zm0-12.89v-2.15h2.15v2.15h-2.15Zm0-12.89v-2.15h2.15v2.15h-2.15Zm0-12.89v-2.15h2.15v2.15h-2.15Zm0-12.89v-2.15h2.15v2.15h-2.15Zm0-12.89v-2.15h2.15v2.15h-2.15Zm0-12.89v-2.15h2.15v2.15h-2.15Zm0-12.89v-2.15h2.15v2.15h-2.15Zm0-12.89v-2.15h2.15v2.15h-2.15Zm0-12.89v-2.15h2.15v2.15h-2.15Zm0-12.89v-2.15h2.15v2.15h-2.15Zm0-12.89v-2.15h2.15v2.15h-2.15Zm0-12.89v-2.15h2.15v2.15h-2.15Zm0-12.89v-2.15h2.15v2.15h-2.15Zm0-12.89v-2.15h2.15v2.15h-2.15Zm0-12.89v-2.15h2.15v2.15h-2.15Zm0-12.88v-2.15h2.15v2.15h-2.15Zm0-12.89v-2.15h2.15v2.15h-2.15Zm0-12.89v-2.15h2.15v2.15h-2.15Zm0-12.89v-2.15h2.15v2.15h-2.15Zm0-12.89v-2.15h2.15v2.15h-2.15Zm0-12.88v-2.15h2.15v2.15h-2.15Zm0-12.89v-2.15h2.15v2.15h-2.15Zm0-12.89v-2.15h2.15v2.15h-2.15Zm0-12.89v-2.15h2.15v2.15h-2.15Zm0-12.89v-2.15h2.15v2.15h-2.15Zm0-12.88v-2.15h2.15v2.15h-2.15Zm0-12.89v-2.15h2.15v2.15h-2.15Zm0-12.89v-2.15h2.15v2.15h-2.15Zm0-12.89v-2.15h2.15v2.15h-2.15Zm0-12.89v-2.15h2.15v2.15h-2.15Zm0-12.89v-2.15h2.15v2.15h-2.15Zm0-12.88v-2.15h2.15v2.15h-2.15Zm0-12.89v-2.15h2.15v2.15h-2.15Zm0-12.89v-2.15h2.15v2.15h-2.15Zm0-12.89v-2.15h2.15v2.15h-2.15Zm0-12.89v-2.15h2.15v2.15h-2.15Zm0-12.89v-2.15h2.15v2.15h-2.15Zm0-12.89v-2.15h2.15v2.15h-2.15Zm0-12.89v-2.15h2.15v2.15h-2.15Zm0-12.89v-2.15h2.15v2.15h-2.15Zm0-12.89v-2.15h2.15v2.15h-2.15Zm0-12.89v-2.15h2.15v2.15h-2.15Zm0-12.89v-2.15h2.15v2.15h-2.15Zm0-12.89v-2.15h2.15v2.15h-2.15Zm0-12.89v-2.15h2.15v2.15h-2.15Zm0-12.89v-2.15h2.15v2.15h-2.15Zm0-12.89v-2.15h2.15v2.15h-2.15Zm0-12.89v-2.15h2.15v2.15h-2.15Zm0-12.89v-2.15h2.15v2.15h-2.15Zm0-12.89v-2.15h2.15v2.15h-2.15Zm0-12.89v-2.15h2.15v2.15h-2.15Zm0-12.89v-2.15h2.15v2.15h-2.15Zm0-12.89v-2.15h2.15v2.15h-2.15Zm0-12.89v-2.15h2.15v2.15h-2.15Zm0-12.89v-2.15h2.15v2.15h-2.15Zm0-12.89v-2.15h2.15v2.15h-2.15Zm0-12.89v-2.15h2.15v2.15h-2.15Zm0-12.89v-2.15h2.15v2.15h-2.15Zm0-12.89v-2.15h2.15v2.15h-2.15Zm0-12.88v-2.15h2.15v2.15h-2.15Zm0-12.89v-2.15h2.15v2.15h-2.15Zm0-12.89v-2.15h2.15v2.15h-2.15Zm0-12.88v-2.15h2.15v2.15h-2.15Zm0-12.89v-2.15h2.15v2.15h-2.15Zm0-12.89v-2.15h2.15v2.15h-2.15Zm0-12.89v-2.15h2.15v2.15h-2.15Zm0-12.89v-2.15h2.15v2.15h-2.15Zm0-12.89v-2.15h2.15v2.15h-2.15Zm0-12.89v-2.15h2.15v2.15h-2.15Zm0-12.88v-2.15h2.15v2.15h-2.15Zm0-12.89v-2.15h2.15v2.15h-2.15Zm0-12.89v-2.15h2.15v2.15h-2.15Zm0-12.88v-2.15h2.15v2.15h-2.15Zm0-12.89v-2.15h2.15v2.15h-2.15Zm0-12.89v-2.15h2.15v2.15h-2.15Zm0-12.89v-2.15h2.15v2.15h-2.15Zm0-12.89v-2.15h2.15v2.15h-2.15Zm0-12.89v-2.15h2.15v2.15h-2.15Zm0-12.89v-2.15h2.15v2.15h-2.15Zm0-12.89v-2.15h2.15v2.15h-2.15Zm0-12.89v-2.15h2.15v2.15h-2.15Zm0-12.89v-2.15h2.15v2.15h-2.15Zm0-12.89v-2.15h2.15v2.15h-2.15Zm0-12.89v-2.15h2.15v2.15h-2.15Zm0-12.89v-2.15h2.15v2.15h-2.15Zm0-12.89v-2.15h2.15v2.15h-2.15Zm0-12.89v-2.15h2.15v2.15h-2.15Zm0-12.89v-2.15h2.15v2.15h-2.15Zm0-12.89v-2.15h2.15v2.15h-2.15Zm0-12.89V1.1h2.15v2.15h-2.15Zm0-12.89v-2.15h2.15v2.15h-2.15Z"/><path class="cls-7" d="m396.46,1175.79v-2.15h2.15v2.15h-2.15Zm0-12.89v-2.15h2.15v2.15h-2.15Zm0-12.89v-2.15h2.15v2.15h-2.15Zm0-12.89v-2.15h2.15v2.15h-2.15Zm0-12.89v-2.15h2.15v2.15h-2.15Zm0-12.89v-2.15h2.15v2.15h-2.15Zm0-12.89v-2.15h2.15v2.15h-2.15Zm0-12.89v-2.15h2.15v2.15h-2.15Zm0-12.89v-2.15h2.15v2.15h-2.15Zm0-12.89v-2.15h2.15v2.15h-2.15Zm0-12.89v-2.15h2.15v2.15h-2.15Zm0-12.89v-2.15h2.15v2.15h-2.15Zm0-12.89v-2.15h2.15v2.15h-2.15Zm0-12.89v-2.15h2.15v2.15h-2.15Zm0-12.89v-2.15h2.15v2.15h-2.15Zm0-12.89v-2.15h2.15v2.15h-2.15Zm0-12.89v-2.15h2.15v2.15h-2.15Zm0-12.88v-2.15h2.15v2.15h-2.15Zm0-12.89v-2.15h2.15v2.15h-2.15Zm0-12.89v-2.15h2.15v2.15h-2.15Zm0-12.89v-2.15h2.15v2.15h-2.15Zm0-12.89v-2.15h2.15v2.15h-2.15Zm0-12.88v-2.15h2.15v2.15h-2.15Zm0-12.89v-2.15h2.15v2.15h-2.15Zm0-12.89v-2.15h2.15v2.15h-2.15Zm0-12.89v-2.15h2.15v2.15h-2.15Zm0-12.89v-2.15h2.15v2.15h-2.15Zm0-12.88v-2.15h2.15v2.15h-2.15Zm0-12.89v-2.15h2.15v2.15h-2.15Zm0-12.89v-2.15h2.15v2.15h-2.15Zm0-12.89v-2.15h2.15v2.15h-2.15Zm0-12.89v-2.15h2.15v2.15h-2.15Zm0-12.89v-2.15h2.15v2.15h-2.15Zm0-12.88v-2.15h2.15v2.15h-2.15Zm0-12.89v-2.15h2.15v2.15h-2.15Zm0-12.89v-2.15h2.15v2.15h-2.15Zm0-12.89v-2.15h2.15v2.15h-2.15Zm0-12.89v-2.15h2.15v2.15h-2.15Zm0-12.89v-2.15h2.15v2.15h-2.15Zm0-12.89v-2.15h2.15v2.15h-2.15Zm0-12.89v-2.15h2.15v2.15h-2.15Zm0-12.89v-2.15h2.15v2.15h-2.15Zm0-12.89v-2.15h2.15v2.15h-2.15Zm0-12.89v-2.15h2.15v2.15h-2.15Zm0-12.89v-2.15h2.15v2.15h-2.15Zm0-12.89v-2.15h2.15v2.15h-2.15Zm0-12.89v-2.15h2.15v2.15h-2.15Zm0-12.89v-2.15h2.15v2.15h-2.15Zm0-12.89v-2.15h2.15v2.15h-2.15Zm0-12.89v-2.15h2.15v2.15h-2.15Zm0-12.89v-2.15h2.15v2.15h-2.15Zm0-12.89v-2.15h2.15v2.15h-2.15Zm0-12.89v-2.15h2.15v2.15h-2.15Zm0-12.89v-2.15h2.15v2.15h-2.15Zm0-12.89v-2.15h2.15v2.15h-2.15Zm0-12.89v-2.15h2.15v2.15h-2.15Zm0-12.89v-2.15h2.15v2.15h-2.15Zm0-12.89v-2.15h2.15v2.15h-2.15Zm0-12.89v-2.15h2.15v2.15h-2.15Zm0-12.89v-2.15h2.15v2.15h-2.15Zm0-12.89v-2.15h2.15v2.15h-2.15Zm0-12.88v-2.15h2.15v2.15h-2.15Zm0-12.89v-2.15h2.15v2.15h-2.15Zm0-12.89v-2.15h2.15v2.15h-2.15Zm0-12.88v-2.15h2.15v2.15h-2.15Zm0-12.89v-2.15h2.15v2.15h-2.15Zm0-12.89v-2.15h2.15v2.15h-2.15Zm0-12.89v-2.15h2.15v2.15h-2.15Zm0-12.89v-2.15h2.15v2.15h-2.15Zm0-12.89v-2.15h2.15v2.15h-2.15Zm0-12.89v-2.15h2.15v2.15h-2.15Zm0-12.88v-2.15h2.15v2.15h-2.15Zm0-12.89v-2.15h2.15v2.15h-2.15Zm0-12.89v-2.15h2.15v2.15h-2.15Zm0-12.88v-2.15h2.15v2.15h-2.15Zm0-12.89v-2.15h2.15v2.15h-2.15Zm0-12.89v-2.15h2.15v2.15h-2.15Zm0-12.89v-2.15h2.15v2.15h-2.15Zm0-12.89v-2.15h2.15v2.15h-2.15Zm0-12.89v-2.15h2.15v2.15h-2.15Zm0-12.89v-2.15h2.15v2.15h-2.15Zm0-12.89v-2.15h2.15v2.15h-2.15Zm0-12.89v-2.15h2.15v2.15h-2.15Zm0-12.89v-2.15h2.15v2.15h-2.15Zm0-12.89v-2.15h2.15v2.15h-2.15Zm0-12.89v-2.15h2.15v2.15h-2.15Zm0-12.89v-2.15h2.15v2.15h-2.15Zm0-12.89v-2.15h2.15v2.15h-2.15Zm0-12.89v-2.15h2.15v2.15h-2.15Zm0-12.89v-2.15h2.15v2.15h-2.15Zm0-12.89v-2.15h2.15v2.15h-2.15Zm0-12.89V1.1h2.15v2.15h-2.15Zm0-12.89v-2.15h2.15v2.15h-2.15Z"/><path class="cls-7" d="m295.65,1175.79v-2.15h2.15v2.15h-2.15Zm0-12.89v-2.15h2.15v2.15h-2.15Zm0-12.89v-2.15h2.15v2.15h-2.15Zm0-12.89v-2.15h2.15v2.15h-2.15Zm0-12.89v-2.15h2.15v2.15h-2.15Zm0-12.89v-2.15h2.15v2.15h-2.15Zm0-12.89v-2.15h2.15v2.15h-2.15Zm0-12.89v-2.15h2.15v2.15h-2.15Zm0-12.89v-2.15h2.15v2.15h-2.15Zm0-12.89v-2.15h2.15v2.15h-2.15Zm0-12.89v-2.15h2.15v2.15h-2.15Zm0-12.89v-2.15h2.15v2.15h-2.15Zm0-12.89v-2.15h2.15v2.15h-2.15Zm0-12.89v-2.15h2.15v2.15h-2.15Zm0-12.89v-2.15h2.15v2.15h-2.15Zm0-12.89v-2.15h2.15v2.15h-2.15Zm0-12.89v-2.15h2.15v2.15h-2.15Zm0-12.88v-2.15h2.15v2.15h-2.15Zm0-12.89v-2.15h2.15v2.15h-2.15Zm0-12.89v-2.15h2.15v2.15h-2.15Zm0-12.89v-2.15h2.15v2.15h-2.15Zm0-12.89v-2.15h2.15v2.15h-2.15Zm0-12.88v-2.15h2.15v2.15h-2.15Zm0-12.89v-2.15h2.15v2.15h-2.15Zm0-12.89v-2.15h2.15v2.15h-2.15Zm0-12.89v-2.15h2.15v2.15h-2.15Zm0-12.89v-2.15h2.15v2.15h-2.15Zm0-12.88v-2.15h2.15v2.15h-2.15Zm0-12.89v-2.15h2.15v2.15h-2.15Zm0-12.89v-2.15h2.15v2.15h-2.15Zm0-12.89v-2.15h2.15v2.15h-2.15Zm0-12.89v-2.15h2.15v2.15h-2.15Zm0-12.89v-2.15h2.15v2.15h-2.15Zm0-12.88v-2.15h2.15v2.15h-2.15Zm0-12.89v-2.15h2.15v2.15h-2.15Zm0-12.89v-2.15h2.15v2.15h-2.15Zm0-12.89v-2.15h2.15v2.15h-2.15Zm0-12.89v-2.15h2.15v2.15h-2.15Zm0-12.89v-2.15h2.15v2.15h-2.15Zm0-12.89v-2.15h2.15v2.15h-2.15Zm0-12.89v-2.15h2.15v2.15h-2.15Zm0-12.89v-2.15h2.15v2.15h-2.15Zm0-12.89v-2.15h2.15v2.15h-2.15Zm0-12.89v-2.15h2.15v2.15h-2.15Zm0-12.89v-2.15h2.15v2.15h-2.15Zm0-12.89v-2.15h2.15v2.15h-2.15Zm0-12.89v-2.15h2.15v2.15h-2.15Zm0-12.89v-2.15h2.15v2.15h-2.15Zm0-12.89v-2.15h2.15v2.15h-2.15Zm0-12.89v-2.15h2.15v2.15h-2.15Zm0-12.89v-2.15h2.15v2.15h-2.15Zm0-12.89v-2.15h2.15v2.15h-2.15Zm0-12.89v-2.15h2.15v2.15h-2.15Zm0-12.89v-2.15h2.15v2.15h-2.15Zm0-12.89v-2.15h2.15v2.15h-2.15Zm0-12.89v-2.15h2.15v2.15h-2.15Zm0-12.89v-2.15h2.15v2.15h-2.15Zm0-12.89v-2.15h2.15v2.15h-2.15Zm0-12.89v-2.15h2.15v2.15h-2.15Zm0-12.89v-2.15h2.15v2.15h-2.15Zm0-12.89v-2.15h2.15v2.15h-2.15Zm0-12.88v-2.15h2.15v2.15h-2.15Zm0-12.89v-2.15h2.15v2.15h-2.15Zm0-12.89v-2.15h2.15v2.15h-2.15Zm0-12.88v-2.15h2.15v2.15h-2.15Zm0-12.89v-2.15h2.15v2.15h-2.15Zm0-12.89v-2.15h2.15v2.15h-2.15Zm0-12.89v-2.15h2.15v2.15h-2.15Zm0-12.89v-2.15h2.15v2.15h-2.15Zm0-12.89v-2.15h2.15v2.15h-2.15Zm0-12.89v-2.15h2.15v2.15h-2.15Zm0-12.88v-2.15h2.15v2.15h-2.15Zm0-12.89v-2.15h2.15v2.15h-2.15Zm0-12.89v-2.15h2.15v2.15h-2.15Zm0-12.88v-2.15h2.15v2.15h-2.15Zm0-12.89v-2.15h2.15v2.15h-2.15Zm0-12.89v-2.15h2.15v2.15h-2.15Zm0-12.89v-2.15h2.15v2.15h-2.15Zm0-12.89v-2.15h2.15v2.15h-2.15Zm0-12.89v-2.15h2.15v2.15h-2.15Zm0-12.89v-2.15h2.15v2.15h-2.15Zm0-12.89v-2.15h2.15v2.15h-2.15Zm0-12.89v-2.15h2.15v2.15h-2.15Zm0-12.89v-2.15h2.15v2.15h-2.15Zm0-12.89v-2.15h2.15v2.15h-2.15Zm0-12.89v-2.15h2.15v2.15h-2.15Zm0-12.89v-2.15h2.15v2.15h-2.15Zm0-12.89v-2.15h2.15v2.15h-2.15Zm0-12.89v-2.15h2.15v2.15h-2.15Zm0-12.89v-2.15h2.15v2.15h-2.15Zm0-12.89v-2.15h2.15v2.15h-2.15Zm0-12.89V1.1h2.15v2.15h-2.15Zm0-12.89v-2.15h2.15v2.15h-2.15Z"/><path class="cls-7" d="m194.84,1175.79v-2.15h2.15v2.15h-2.15Zm0-12.89v-2.15h2.15v2.15h-2.15Zm0-12.89v-2.15h2.15v2.15h-2.15Zm0-12.89v-2.15h2.15v2.15h-2.15Zm0-12.89v-2.15h2.15v2.15h-2.15Zm0-12.89v-2.15h2.15v2.15h-2.15Zm0-12.89v-2.15h2.15v2.15h-2.15Zm0-12.89v-2.15h2.15v2.15h-2.15Zm0-12.89v-2.15h2.15v2.15h-2.15Zm0-12.89v-2.15h2.15v2.15h-2.15Zm0-12.89v-2.15h2.15v2.15h-2.15Zm0-12.89v-2.15h2.15v2.15h-2.15Zm0-12.89v-2.15h2.15v2.15h-2.15Zm0-12.89v-2.15h2.15v2.15h-2.15Zm0-12.89v-2.15h2.15v2.15h-2.15Zm0-12.89v-2.15h2.15v2.15h-2.15Zm0-12.89v-2.15h2.15v2.15h-2.15Zm0-12.88v-2.15h2.15v2.15h-2.15Zm0-12.89v-2.15h2.15v2.15h-2.15Zm0-12.89v-2.15h2.15v2.15h-2.15Zm0-12.89v-2.15h2.15v2.15h-2.15Zm0-12.89v-2.15h2.15v2.15h-2.15Zm0-12.88v-2.15h2.15v2.15h-2.15Zm0-12.89v-2.15h2.15v2.15h-2.15Zm0-12.89v-2.15h2.15v2.15h-2.15Zm0-12.89v-2.15h2.15v2.15h-2.15Zm0-12.89v-2.15h2.15v2.15h-2.15Zm0-12.88v-2.15h2.15v2.15h-2.15Zm0-12.89v-2.15h2.15v2.15h-2.15Zm0-12.89v-2.15h2.15v2.15h-2.15Zm0-12.89v-2.15h2.15v2.15h-2.15Zm0-12.89v-2.15h2.15v2.15h-2.15Zm0-12.89v-2.15h2.15v2.15h-2.15Zm0-12.88v-2.15h2.15v2.15h-2.15Zm0-12.89v-2.15h2.15v2.15h-2.15Zm0-12.89v-2.15h2.15v2.15h-2.15Zm0-12.89v-2.15h2.15v2.15h-2.15Zm0-12.89v-2.15h2.15v2.15h-2.15Zm0-12.89v-2.15h2.15v2.15h-2.15Zm0-12.89v-2.15h2.15v2.15h-2.15Zm0-12.89v-2.15h2.15v2.15h-2.15Zm0-12.89v-2.15h2.15v2.15h-2.15Zm0-12.89v-2.15h2.15v2.15h-2.15Zm0-12.89v-2.15h2.15v2.15h-2.15Zm0-12.89v-2.15h2.15v2.15h-2.15Zm0-12.89v-2.15h2.15v2.15h-2.15Zm0-12.89v-2.15h2.15v2.15h-2.15Zm0-12.89v-2.15h2.15v2.15h-2.15Zm0-12.89v-2.15h2.15v2.15h-2.15Zm0-12.89v-2.15h2.15v2.15h-2.15Zm0-12.89v-2.15h2.15v2.15h-2.15Zm0-12.89v-2.15h2.15v2.15h-2.15Zm0-12.89v-2.15h2.15v2.15h-2.15Zm0-12.89v-2.15h2.15v2.15h-2.15Zm0-12.89v-2.15h2.15v2.15h-2.15Zm0-12.89v-2.15h2.15v2.15h-2.15Zm0-12.89v-2.15h2.15v2.15h-2.15Zm0-12.89v-2.15h2.15v2.15h-2.15Zm0-12.89v-2.15h2.15v2.15h-2.15Zm0-12.89v-2.15h2.15v2.15h-2.15Zm0-12.89v-2.15h2.15v2.15h-2.15Zm0-12.88v-2.15h2.15v2.15h-2.15Zm0-12.89v-2.15h2.15v2.15h-2.15Zm0-12.89v-2.15h2.15v2.15h-2.15Zm0-12.88v-2.15h2.15v2.15h-2.15Zm0-12.89v-2.15h2.15v2.15h-2.15Zm0-12.89v-2.15h2.15v2.15h-2.15Zm0-12.89v-2.15h2.15v2.15h-2.15Zm0-12.89v-2.15h2.15v2.15h-2.15Zm0-12.89v-2.15h2.15v2.15h-2.15Zm0-12.89v-2.15h2.15v2.15h-2.15Zm0-12.88v-2.15h2.15v2.15h-2.15Zm0-12.89v-2.15h2.15v2.15h-2.15Zm0-12.89v-2.15h2.15v2.15h-2.15Zm0-12.88v-2.15h2.15v2.15h-2.15Zm0-12.89v-2.15h2.15v2.15h-2.15Zm0-12.89v-2.15h2.15v2.15h-2.15Zm0-12.89v-2.15h2.15v2.15h-2.15Zm0-12.89v-2.15h2.15v2.15h-2.15Zm0-12.89v-2.15h2.15v2.15h-2.15Zm0-12.89v-2.15h2.15v2.15h-2.15Zm0-12.89v-2.15h2.15v2.15h-2.15Zm0-12.89v-2.15h2.15v2.15h-2.15Zm0-12.89v-2.15h2.15v2.15h-2.15Zm0-12.89v-2.15h2.15v2.15h-2.15Zm0-12.89v-2.15h2.15v2.15h-2.15Zm0-12.89v-2.15h2.15v2.15h-2.15Zm0-12.89v-2.15h2.15v2.15h-2.15Zm0-12.89v-2.15h2.15v2.15h-2.15Zm0-12.89v-2.15h2.15v2.15h-2.15Zm0-12.89v-2.15h2.15v2.15h-2.15Zm0-12.89V1.1h2.15v2.15h-2.15Zm0-12.89v-2.15h2.15v2.15h-2.15Z"/><path class="cls-7" d="m94.03,1175.79v-2.15h2.15v2.15h-2.15Zm0-12.89v-2.15h2.15v2.15h-2.15Zm0-12.89v-2.15h2.15v2.15h-2.15Zm0-12.89v-2.15h2.15v2.15h-2.15Zm0-12.89v-2.15h2.15v2.15h-2.15Zm0-12.89v-2.15h2.15v2.15h-2.15Zm0-12.89v-2.15h2.15v2.15h-2.15Zm0-12.89v-2.15h2.15v2.15h-2.15Zm0-12.89v-2.15h2.15v2.15h-2.15Zm0-12.89v-2.15h2.15v2.15h-2.15Zm0-12.89v-2.15h2.15v2.15h-2.15Zm0-12.89v-2.15h2.15v2.15h-2.15Zm0-12.89v-2.15h2.15v2.15h-2.15Zm0-12.89v-2.15h2.15v2.15h-2.15Zm0-12.89v-2.15h2.15v2.15h-2.15Zm0-12.89v-2.15h2.15v2.15h-2.15Zm0-12.89v-2.15h2.15v2.15h-2.15Zm0-12.88v-2.15h2.15v2.15h-2.15Zm0-12.89v-2.15h2.15v2.15h-2.15Zm0-12.89v-2.15h2.15v2.15h-2.15Zm0-12.89v-2.15h2.15v2.15h-2.15Zm0-12.89v-2.15h2.15v2.15h-2.15Zm0-12.88v-2.15h2.15v2.15h-2.15Zm0-12.89v-2.15h2.15v2.15h-2.15Zm0-12.89v-2.15h2.15v2.15h-2.15Zm0-12.89v-2.15h2.15v2.15h-2.15Zm0-12.89v-2.15h2.15v2.15h-2.15Zm0-12.88v-2.15h2.15v2.15h-2.15Zm0-12.89v-2.15h2.15v2.15h-2.15Zm0-12.89v-2.15h2.15v2.15h-2.15Zm0-12.89v-2.15h2.15v2.15h-2.15Zm0-12.89v-2.15h2.15v2.15h-2.15Zm0-12.89v-2.15h2.15v2.15h-2.15Zm0-12.88v-2.15h2.15v2.15h-2.15Zm0-12.89v-2.15h2.15v2.15h-2.15Zm0-12.89v-2.15h2.15v2.15h-2.15Zm0-12.89v-2.15h2.15v2.15h-2.15Zm0-12.89v-2.15h2.15v2.15h-2.15Zm0-12.89v-2.15h2.15v2.15h-2.15Zm0-12.89v-2.15h2.15v2.15h-2.15Zm0-12.89v-2.15h2.15v2.15h-2.15Zm0-12.89v-2.15h2.15v2.15h-2.15Zm0-12.89v-2.15h2.15v2.15h-2.15Zm0-12.89v-2.15h2.15v2.15h-2.15Zm0-12.89v-2.15h2.15v2.15h-2.15Zm0-12.89v-2.15h2.15v2.15h-2.15Zm0-12.89v-2.15h2.15v2.15h-2.15Zm0-12.89v-2.15h2.15v2.15h-2.15Zm0-12.89v-2.15h2.15v2.15h-2.15Zm0-12.89v-2.15h2.15v2.15h-2.15Zm0-12.89v-2.15h2.15v2.15h-2.15Zm0-12.89v-2.15h2.15v2.15h-2.15Zm0-12.89v-2.15h2.15v2.15h-2.15Zm0-12.89v-2.15h2.15v2.15h-2.15Zm0-12.89v-2.15h2.15v2.15h-2.15Zm0-12.89v-2.15h2.15v2.15h-2.15Zm0-12.89v-2.15h2.15v2.15h-2.15Zm0-12.89v-2.15h2.15v2.15h-2.15Zm0-12.89v-2.15h2.15v2.15h-2.15Zm0-12.89v-2.15h2.15v2.15h-2.15Zm0-12.89v-2.15h2.15v2.15h-2.15Zm0-12.88v-2.15h2.15v2.15h-2.15Zm0-12.89v-2.15h2.15v2.15h-2.15Zm0-12.89v-2.15h2.15v2.15h-2.15Zm0-12.88v-2.15h2.15v2.15h-2.15Zm0-12.89v-2.15h2.15v2.15h-2.15Zm0-12.89v-2.15h2.15v2.15h-2.15Zm0-12.89v-2.15h2.15v2.15h-2.15Zm0-12.89v-2.15h2.15v2.15h-2.15Zm0-12.89v-2.15h2.15v2.15h-2.15Zm0-12.89v-2.15h2.15v2.15h-2.15Zm0-12.88v-2.15h2.15v2.15h-2.15Zm0-12.89v-2.15h2.15v2.15h-2.15Zm0-12.89v-2.15h2.15v2.15h-2.15Zm0-12.88v-2.15h2.15v2.15h-2.15Zm0-12.89v-2.15h2.15v2.15h-2.15Zm0-12.89v-2.15h2.15v2.15h-2.15Zm0-12.89v-2.15h2.15v2.15h-2.15Zm0-12.89v-2.15h2.15v2.15h-2.15Zm0-12.89v-2.15h2.15v2.15h-2.15Zm0-12.89v-2.15h2.15v2.15h-2.15Zm0-12.89v-2.15h2.15v2.15h-2.15Zm0-12.89v-2.15h2.15v2.15h-2.15Zm0-12.89v-2.15h2.15v2.15h-2.15Zm0-12.89v-2.15h2.15v2.15h-2.15Zm0-12.89v-2.15h2.15v2.15h-2.15Zm0-12.89v-2.15h2.15v2.15h-2.15Zm0-12.89v-2.15h2.15v2.15h-2.15Zm0-12.89v-2.15h2.15v2.15h-2.15Zm0-12.89v-2.15h2.15v2.15h-2.15Zm0-12.89v-2.15h2.15v2.15h-2.15Zm0-12.89V1.1h2.15v2.15h-2.15Zm0-12.89v-2.15h2.15v2.15h-2.15Z"/><rect class="cls-7" x="1403.32" y="74.92" width="4.57" height="4.57"/><rect class="cls-7" x="1403.32" y="175.73" width="4.57" height="4.57"/><rect class="cls-7" x="1403.32" y="276.54" width="4.57" height="4.57"/><rect class="cls-7" x="1403.32" y="377.35" width="4.57" height="4.57"/><rect class="cls-7" x="1403.32" y="478.15" width="4.57" height="4.57"/><rect class="cls-7" x="1403.32" y="578.96" width="4.57" height="4.57"/><rect class="cls-7" x="1403.32" y="679.77" width="4.57" height="4.57"/><rect class="cls-7" x="1403.32" y="780.57" width="4.57" height="4.57"/><rect class="cls-7" x="1403.32" y="881.38" width="4.57" height="4.57"/><rect class="cls-7" x="1302.52" y="74.92" width="4.57" height="4.57"/><rect class="cls-7" x="1302.52" y="175.73" width="4.57" height="4.57"/><rect class="cls-7" x="1302.52" y="276.54" width="4.57" height="4.57"/><rect class="cls-7" x="1302.52" y="377.35" width="4.57" height="4.57"/><rect class="cls-7" x="1302.52" y="478.15" width="4.57" height="4.57"/><rect class="cls-7" x="1302.52" y="578.96" width="4.57" height="4.57"/><rect class="cls-7" x="1302.52" y="679.77" width="4.57" height="4.57"/><rect class="cls-7" x="1302.52" y="780.57" width="4.57" height="4.57"/><rect class="cls-7" x="1302.52" y="881.38" width="4.57" height="4.57"/><rect class="cls-7" x="1201.71" y="74.92" width="4.57" height="4.57"/><rect class="cls-7" x="1201.71" y="175.73" width="4.57" height="4.57"/><rect class="cls-7" x="1201.71" y="276.54" width="4.57" height="4.57"/><rect class="cls-7" x="1201.71" y="377.35" width="4.57" height="4.57"/><rect class="cls-7" x="1201.71" y="478.15" width="4.57" height="4.57"/><rect class="cls-7" x="1201.71" y="578.96" width="4.57" height="4.57"/><rect class="cls-7" x="1201.71" y="679.77" width="4.57" height="4.57"/><rect class="cls-7" x="1201.71" y="780.57" width="4.57" height="4.57"/><rect class="cls-7" x="1201.71" y="881.38" width="4.57" height="4.57"/><rect class="cls-7" x="1100.9" y="74.92" width="4.57" height="4.57"/><rect class="cls-7" x="1100.9" y="175.73" width="4.57" height="4.57"/><rect class="cls-7" x="1100.9" y="276.54" width="4.57" height="4.57"/><rect class="cls-7" x="1100.9" y="377.35" width="4.57" height="4.57"/><rect class="cls-7" x="1100.9" y="478.15" width="4.57" height="4.57"/><rect class="cls-7" x="1100.9" y="578.96" width="4.57" height="4.57"/><rect class="cls-7" x="1100.9" y="679.77" width="4.57" height="4.57"/><rect class="cls-7" x="1100.9" y="780.57" width="4.57" height="4.57"/><rect class="cls-7" x="1100.9" y="881.38" width="4.57" height="4.57"/><rect class="cls-7" x="1000.09" y="74.92" width="4.57" height="4.57"/><rect class="cls-7" x="1000.09" y="175.73" width="4.57" height="4.57"/><rect class="cls-7" x="1000.09" y="276.54" width="4.57" height="4.57"/><rect class="cls-7" x="1000.09" y="377.35" width="4.57" height="4.57"/><rect class="cls-7" x="1000.09" y="478.15" width="4.57" height="4.57"/><rect class="cls-7" x="1000.09" y="578.96" width="4.57" height="4.57"/><rect class="cls-7" x="1000.09" y="679.77" width="4.57" height="4.57"/><rect class="cls-7" x="1000.09" y="780.57" width="4.57" height="4.57"/><rect class="cls-7" x="1000.09" y="881.38" width="4.57" height="4.57"/><rect class="cls-7" x="899.29" y="74.92" width="4.57" height="4.57"/><rect class="cls-7" x="899.29" y="175.73" width="4.57" height="4.57"/><rect class="cls-7" x="899.29" y="276.54" width="4.57" height="4.57"/><rect class="cls-7" x="899.29" y="377.35" width="4.57" height="4.57"/><rect class="cls-7" x="899.29" y="478.15" width="4.57" height="4.57"/><rect class="cls-7" x="899.29" y="578.96" width="4.57" height="4.57"/><rect class="cls-7" x="899.29" y="679.77" width="4.57" height="4.57"/><rect class="cls-7" x="899.29" y="780.57" width="4.57" height="4.57"/><rect class="cls-7" x="899.29" y="881.38" width="4.57" height="4.57"/><rect class="cls-7" x="798.48" y="74.92" width="4.57" height="4.57"/><rect class="cls-7" x="798.48" y="175.73" width="4.57" height="4.57"/><rect class="cls-7" x="798.48" y="276.54" width="4.57" height="4.57"/><rect class="cls-7" x="798.48" y="377.35" width="4.57" height="4.57"/><rect class="cls-7" x="798.48" y="478.15" width="4.57" height="4.57"/><rect class="cls-7" x="798.48" y="578.96" width="4.57" height="4.57"/><rect class="cls-7" x="798.48" y="679.77" width="4.57" height="4.57"/><rect class="cls-7" x="798.48" y="780.57" width="4.57" height="4.57"/><rect class="cls-7" x="798.48" y="881.38" width="4.57" height="4.57"/><rect class="cls-7" x="697.67" y="74.92" width="4.57" height="4.57"/><rect class="cls-7" x="697.67" y="175.73" width="4.57" height="4.57"/><rect class="cls-7" x="697.67" y="276.54" width="4.57" height="4.57"/><rect class="cls-7" x="697.67" y="377.35" width="4.57" height="4.57"/><rect class="cls-7" x="697.67" y="478.15" width="4.57" height="4.57"/><rect class="cls-7" x="697.67" y="578.96" width="4.57" height="4.57"/><rect class="cls-7" x="697.67" y="679.77" width="4.57" height="4.57"/><rect class="cls-7" x="697.67" y="780.57" width="4.57" height="4.57"/><rect class="cls-7" x="697.67" y="881.38" width="4.57" height="4.57"/><rect class="cls-7" x="596.86" y="74.92" width="4.57" height="4.57"/><rect class="cls-7" x="596.86" y="175.73" width="4.57" height="4.57"/><rect class="cls-7" x="596.86" y="276.54" width="4.57" height="4.57"/><rect class="cls-7" x="596.86" y="377.35" width="4.57" height="4.57"/><rect class="cls-7" x="596.86" y="478.15" width="4.57" height="4.57"/><rect class="cls-7" x="596.86" y="578.96" width="4.57" height="4.57"/><rect class="cls-7" x="596.86" y="679.77" width="4.57" height="4.57"/><rect class="cls-7" x="596.86" y="780.57" width="4.57" height="4.57"/><rect class="cls-7" x="596.86" y="881.38" width="4.57" height="4.57"/><rect class="cls-7" x="496.06" y="74.92" width="4.57" height="4.57"/><rect class="cls-7" x="496.06" y="175.73" width="4.57" height="4.57"/><rect class="cls-7" x="496.06" y="276.54" width="4.57" height="4.57"/><rect class="cls-7" x="496.06" y="377.35" width="4.57" height="4.57"/><rect class="cls-7" x="496.06" y="478.15" width="4.57" height="4.57"/><rect class="cls-7" x="496.06" y="578.96" width="4.57" height="4.57"/><rect class="cls-7" x="496.06" y="679.77" width="4.57" height="4.57"/><rect class="cls-7" x="496.06" y="780.57" width="4.57" height="4.57"/><rect class="cls-7" x="496.06" y="881.38" width="4.57" height="4.57"/><rect class="cls-7" x="395.25" y="74.92" width="4.57" height="4.57"/><rect class="cls-7" x="395.25" y="175.73" width="4.57" height="4.57"/><rect class="cls-7" x="395.25" y="276.54" width="4.57" height="4.57"/><rect class="cls-7" x="395.25" y="377.35" width="4.57" height="4.57"/><rect class="cls-7" x="395.25" y="478.15" width="4.57" height="4.57"/><rect class="cls-7" x="395.25" y="578.96" width="4.57" height="4.57"/><rect class="cls-7" x="395.25" y="679.77" width="4.57" height="4.57"/><rect class="cls-7" x="395.25" y="780.57" width="4.57" height="4.57"/><rect class="cls-7" x="395.25" y="881.38" width="4.57" height="4.57"/><rect class="cls-7" x="294.44" y="74.92" width="4.57" height="4.57"/><rect class="cls-7" x="294.44" y="175.73" width="4.57" height="4.57"/><rect class="cls-7" x="294.44" y="276.54" width="4.57" height="4.57"/><rect class="cls-7" x="294.44" y="377.35" width="4.57" height="4.57"/><rect class="cls-7" x="294.44" y="478.15" width="4.57" height="4.57"/><rect class="cls-7" x="294.44" y="578.96" width="4.57" height="4.57"/><rect class="cls-7" x="294.44" y="679.77" width="4.57" height="4.57"/><rect class="cls-7" x="294.44" y="780.57" width="4.57" height="4.57"/><rect class="cls-7" x="294.44" y="881.38" width="4.57" height="4.57"/><rect class="cls-7" x="193.63" y="74.92" width="4.57" height="4.57"/><rect class="cls-7" x="193.63" y="175.73" width="4.57" height="4.57"/><rect class="cls-7" x="193.63" y="276.54" width="4.57" height="4.57"/><rect class="cls-7" x="193.63" y="377.35" width="4.57" height="4.57"/><rect class="cls-7" x="193.63" y="478.15" width="4.57" height="4.57"/><rect class="cls-7" x="193.63" y="578.96" width="4.57" height="4.57"/><rect class="cls-7" x="193.63" y="679.77" width="4.57" height="4.57"/><rect class="cls-7" x="193.63" y="780.57" width="4.57" height="4.57"/><rect class="cls-7" x="193.63" y="881.38" width="4.57" height="4.57"/><rect class="cls-7" x="92.83" y="74.92" width="4.57" height="4.57"/><rect class="cls-7" x="92.83" y="175.73" width="4.57" height="4.57"/><rect class="cls-7" x="92.83" y="276.54" width="4.57" height="4.57"/><rect class="cls-7" x="92.83" y="377.35" width="4.57" height="4.57"/><rect class="cls-7" x="92.83" y="478.15" width="4.57" height="4.57"/><rect class="cls-7" x="92.83" y="578.96" width="4.57" height="4.57"/><rect class="cls-7" x="92.83" y="679.77" width="4.57" height="4.57"/><rect class="cls-7" x="92.83" y="780.57" width="4.57" height="4.57"/><rect class="cls-7" x="92.83" y="881.38" width="4.57" height="4.57"/></g><g class="cls-2"><path class="cls-5" d="m539.45-1066.96c643.4,0,1164.98,521.58,1164.99,1164.99,0,643.41-521.58,1164.99-1164.99,1164.99-643.4,0-1164.99-521.58-1164.99-1164.99,0-643.41,521.58-1164.99,1164.99-1164.99Z"/></g></g></g></svg>