<svg width="174" height="119" xmlns="http://www.w3.org/2000/svg" xmlns:xlink="http://www.w3.org/1999/xlink" xml:space="preserve" overflow="hidden"><defs><filter id="fx0" x="-10%" y="-10%" width="120%" height="120%" filterUnits="userSpaceOnUse" primitiveUnits="userSpaceOnUse"><feComponentTransfer color-interpolation-filters="sRGB"><feFuncR type="discrete" tableValues="1.000000 1.000000"/><feFuncG type="discrete" tableValues="1.000000 1.000000"/><feFuncB type="discrete" tableValues="1.000000 1.000000"/><feFuncA type="linear" slope="1.000000" intercept="0.000000"/></feComponentTransfer><feGaussianBlur stdDeviation="3.762488 3.762488"/></filter><filter id="fx1" x="-10%" y="-10%" width="120%" height="120%" filterUnits="userSpaceOnUse" primitiveUnits="userSpaceOnUse"><feComponentTransfer color-interpolation-filters="sRGB"><feFuncR type="discrete" tableValues="1.000000 1.000000"/><feFuncG type="discrete" tableValues="1.000000 1.000000"/><feFuncB type="discrete" tableValues="1.000000 1.000000"/><feFuncA type="linear" slope="1.000000" intercept="0.000000"/></feComponentTransfer><feGaussianBlur stdDeviation="3.762488 3.762488"/></filter><filter id="fx2" x="-10%" y="-10%" width="120%" height="120%" filterUnits="userSpaceOnUse" primitiveUnits="userSpaceOnUse"><feComponentTransfer color-interpolation-filters="sRGB"><feFuncR type="discrete" tableValues="1.000000 1.000000"/><feFuncG type="discrete" tableValues="1.000000 1.000000"/><feFuncB type="discrete" tableValues="1.000000 1.000000"/><feFuncA type="linear" slope="1.000000" intercept="0.000000"/></feComponentTransfer><feGaussianBlur stdDeviation="3.762488 3.762488"/></filter><filter id="fx3" x="-10%" y="-10%" width="120%" height="120%" filterUnits="userSpaceOnUse" primitiveUnits="userSpaceOnUse"><feComponentTransfer color-interpolation-filters="sRGB"><feFuncR type="discrete" tableValues="1.000000 1.000000"/><feFuncG type="discrete" tableValues="1.000000 1.000000"/><feFuncB type="discrete" tableValues="1.000000 1.000000"/><feFuncA type="linear" slope="1.000000" intercept="0.000000"/></feComponentTransfer><feGaussianBlur stdDeviation="3.762488 3.762488"/></filter><clipPath id="clip4"><rect x="1393" y="-9" width="174" height="119"/></clipPath><clipPath id="clip5"><rect x="-11.2875" y="-11.2875" width="190.575" height="136.575"/></clipPath><clipPath id="clip6"><rect x="0" y="0" width="168" height="114"/></clipPath><clipPath id="clip7"><rect x="1.98755" y="1.63345" width="114.575" height="23.5749"/></clipPath><clipPath id="clip8"><rect x="0" y="0" width="118" height="27"/></clipPath><clipPath id="clip9"><rect x="-11.2875" y="-11.2875" width="190.575" height="136.575"/></clipPath><clipPath id="clip10"><rect x="0" y="0" width="168" height="114"/></clipPath><clipPath id="clip11"><rect x="2.15186" y="1.50169" width="114.575" height="23.5749"/></clipPath><clipPath id="clip12"><rect x="0" y="0" width="118" height="27"/></clipPath></defs><g clip-path="url(#clip4)" transform="translate(-1393 9)"><g clip-path="url(#clip5)" filter="url(#fx0)" transform="translate(1394 -6)"><g clip-path="url(#clip6)"><path d="M12.587-23.206 20.787-23.206 20.787-25.42 1.927-25.42 1.722-23.206 10.004-23.206 10.004 0 12.587 0ZM36.0367-23.247 36.3647-28.659 33.7407-28.659 33.5357-23.247ZM43.8677 0 44.0727-1.927 36.2417-1.927 36.2417-19.844 26.2377-19.844 26.0327-18.122 33.7407-17.794 33.7407-1.927 25.9507-1.927 25.9507 0ZM54.0743-18.163C55.6733-18.163 56.2063-17.261 56.2063-15.006L56.2063 0 58.3793 0 58.3793-15.949C58.3793-16.236 58.3793-16.523 58.3383-16.769 59.3633-17.671 60.5113-18.163 61.4953-18.163 63.1353-18.163 63.6683-17.261 63.6683-14.924L63.6683 0 66.0873 0 66.0873-15.908C66.0873-18.901 64.7343-20.295 62.5613-20.295 60.8393-20.295 59.2403-19.311 58.0923-18.204 57.5593-19.598 56.4933-20.295 54.9763-20.295 53.2953-20.295 51.6963-19.27 50.5483-17.999L50.3843-19.926 48.1703-19.762C48.3343-15.129 48.4163-8.487 48.4163 0L50.8353 0C50.8353-7.339 50.7533-12.792 50.6303-16.359 51.7783-17.548 53.0493-18.163 54.0743-18.163ZM87.2 0.451 87.528-1.722C77.36-2.009 74.367-4.182 74.121-9.307L88.225-9.635C88.963-15.949 86.216-20.336 80.886-20.336 75.761-20.336 71.661-15.703 71.661-9.676 71.661-3.239 75.064 0.246 87.2 0.451ZM80.394-18.245C84.166-18.245 86.011-15.416 85.929-11.275L74.121-10.947C74.367-15.539 76.745-18.245 80.394-18.245Z" fill="#FFFFFF" fill-rule="nonzero" fill-opacity="1" transform="matrix(1 0 0 1 38.275 66)"/></g></g><text fill="#FFFFFF" fill-opacity="1" font-family="Operator Mono Light,Operator Mono Light_MSFontService,sans-serif" font-style="normal" font-variant="normal" font-weight="300" font-stretch="normal" font-size="41" text-anchor="start" direction="ltr" writing-mode="lr-tb" unicode-bidi="normal" text-decoration="none" transform="matrix(1 0 0 1 1432.28 56)">Time</text><g clip-path="url(#clip7)" filter="url(#fx1)" transform="translate(1419 49)"><g clip-path="url(#clip8)"><path d="M13.275 12.9209 36.275 12.9209 59.275 12.9209 82.275 12.9209 105.275 12.9209 105.275 13.9209 82.275 13.9209 59.275 13.9209 36.275 13.9209 13.275 13.9209Z" fill="#FFFFFF" fill-rule="evenodd" fill-opacity="1"/></g></g><path d="M1432.28 58.5 1455.28 58.5 1478.28 58.5 1501.28 58.5 1524.28 58.5 1524.28 59.5 1501.28 59.5 1478.28 59.5 1455.28 59.5 1432.28 59.5Z" fill="#FFFFFF" fill-rule="evenodd" fill-opacity="1"/><g clip-path="url(#clip9)" filter="url(#fx2)" transform="translate(1397 -7)"><g clip-path="url(#clip10)"><path d="M12.587-23.206 20.787-23.206 20.787-25.42 1.927-25.42 1.722-23.206 10.004-23.206 10.004 0 12.587 0ZM36.0367-23.247 36.3647-28.659 33.7407-28.659 33.5357-23.247ZM43.8677 0 44.0727-1.927 36.2417-1.927 36.2417-19.844 26.2377-19.844 26.0327-18.122 33.7407-17.794 33.7407-1.927 25.9507-1.927 25.9507 0ZM54.0743-18.163C55.6733-18.163 56.2063-17.261 56.2063-15.006L56.2063 0 58.3793 0 58.3793-15.949C58.3793-16.236 58.3793-16.523 58.3383-16.769 59.3633-17.671 60.5113-18.163 61.4953-18.163 63.1353-18.163 63.6683-17.261 63.6683-14.924L63.6683 0 66.0873 0 66.0873-15.908C66.0873-18.901 64.7343-20.295 62.5613-20.295 60.8393-20.295 59.2403-19.311 58.0923-18.204 57.5593-19.598 56.4933-20.295 54.9763-20.295 53.2953-20.295 51.6963-19.27 50.5483-17.999L50.3843-19.926 48.1703-19.762C48.3343-15.129 48.4163-8.487 48.4163 0L50.8353 0C50.8353-7.339 50.7533-12.792 50.6303-16.359 51.7783-17.548 53.0493-18.163 54.0743-18.163ZM87.2 0.451 87.528-1.722C77.36-2.009 74.367-4.182 74.121-9.307L88.225-9.635C88.963-15.949 86.216-20.336 80.886-20.336 75.761-20.336 71.661-15.703 71.661-9.676 71.661-3.239 75.064 0.246 87.2 0.451ZM80.394-18.245C84.166-18.245 86.011-15.416 85.929-11.275L74.121-10.947C74.367-15.539 76.745-18.245 80.394-18.245Z" fill="#7F7F7F" fill-rule="nonzero" fill-opacity="1" transform="matrix(1 0 0 1 38.4393 66)"/></g></g><text fill="#7F7F7F" fill-opacity="1" font-family="Operator Mono Light,Operator Mono Light_MSFontService,sans-serif" font-style="normal" font-variant="normal" font-weight="300" font-stretch="normal" font-size="41" text-anchor="start" direction="ltr" writing-mode="lr-tb" unicode-bidi="normal" text-decoration="none" transform="matrix(1 0 0 1 1435.44 55)">Time</text><g clip-path="url(#clip11)" filter="url(#fx3)" transform="translate(1422 48)"><g clip-path="url(#clip12)"><path d="M13.4393 12.7892 36.4393 12.7892 59.4393 12.7892 82.4393 12.7892 105.439 12.7892 105.439 13.7892 82.4393 13.7892 59.4393 13.7892 36.4393 13.7892 13.4393 13.7892Z" fill="#7F7F7F" fill-rule="evenodd" fill-opacity="1"/></g></g><path d="M1435.44 57.3682 1458.44 57.3682 1481.44 57.3682 1504.44 57.3682 1527.44 57.3682 1527.44 58.3682 1504.44 58.3682 1481.44 58.3682 1458.44 58.3682 1435.44 58.3682Z" fill="#7F7F7F" fill-rule="evenodd" fill-opacity="1"/></g></svg>