<svg id="Layer_1" enable-background="new 0 0 50 50" height="512" viewBox="0 0 50 50" width="512" xmlns="http://www.w3.org/2000/svg"><g><g><g><g><g enable-background="new"><g><path d="m28.05065 6.9887 1.1712-.6807-.0077 2.7308-1.1713.6807z" fill="#efa143"/></g><g><path d="m18.85685 1.6806 1.1713-.6806 9.1937 5.308-1.1712.6807z" fill="#ffdd94"/></g><g><path d="m44.08565 18.9818 1.1712-.6807-.0581 20.495-1.1712.6806z" fill="#efa143"/></g><g><path d="m28.04285 9.7195 1.1713-.6807 16.0427 9.2623-1.1712.6807z" fill="#ffdd94"/></g><g><path d="m28.05065 6.9887-.0078 2.7308 16.0428 9.2623-.0581 20.4949-25.2365-14.5703.0658-23.2258z" fill="#febb61"/></g></g></g><g><g><g enable-background="new"><g><path d="m19.75695 7.0157.4477-.2602 23.0149 13.2875-.4478.2602z" fill="#fff"/></g></g></g><g><path d="m19.75695 7.0157-.053 15.1584 23.0149 13.2876.0529-15.1584z" fill="#d3dbea"/></g></g><g><g><g enable-background="new"><g><path d="m18.39065 8.4576.4477-.2602 23.01491 13.2875-.44781.2602z" fill="#fff"/></g></g></g><g><path d="m18.39065 8.4576 1.3133 13.7165 23.0149 13.2876-1.3134-13.7165z" fill="#d3dbea"/></g></g><g><g><g enable-background="new"><g><path d="m43.22185 20.0412-.0582 15.1642-.4487.2577-3.0661-12.0484.4487-.2576 2.3099 9.0655-1.0054-10.4782.4487-.2572.8808 9.2228.0415-10.4031z" fill="#9da9c1"/></g><g><path d="m16.63405 10.1264.4477-.2602 23.0149 13.2874-.4478.2602z" fill="#fff"/></g></g></g><g><path d="m16.63405 10.1264 3.0699 12.0477 23.0149 13.2876-3.07-12.0477z" fill="#d3dbea"/></g></g><g><g enable-background="new"><g><path d="m22.69935 15.6344 1.1421-.9679.5224 2.347-1.1421.968z" fill="#efa143"/></g><g><path d="m13.50555 10.3264 1.1421-.9679 9.1938 5.308-1.1421.9679z" fill="#ffdd94"/></g><g><path d="m39.26445 27.2438 1.1421-.968 4.7922 12.5203-1.1421.9679z" fill="#efa143"/></g><g><path d="m23.22175 17.9815 1.1421-.968 16.0427 9.2623-1.1421.968z" fill="#ffdd94"/></g><g><path d="m22.69935 15.6344.5224 2.3471 16.0427 9.2623 4.7922 12.5202-25.2365-14.5703-5.3146-14.8673z" fill="#febb61"/></g><g><path d="m27.93205 22.6696c1.0674.6162 2.1036 1.9824 2.3206 3.0539.1661.82-.1984 1.232-.8626 1.0954l.6405 3.1618-1.39829-.8074-.6412-3.1647c-.7805-.6975-1.4301-1.6924-1.5962-2.5124-.21701-1.0715.46989-1.4428 1.53719-.8266z" fill="#373f51"/></g></g></g></g><g><g><g><g enable-background="new"><g><path d="m7.97995 31.8753-.0045.478.8364-.4787.0045-.4781z" fill="#47a047"/></g><g><path d="m4.74765 29.9807-.0045.478 3.2323 1.8946.0045-.478z" fill="#77cb77"/></g><g><path d="m8.81635 31.3965-.0045.4781 5.6402 3.306.0045-.4781z" fill="#77cb77"/></g><g><path d="m7.97995 31.8753.8364-.4788 5.6402 3.306 6.2777-3.5929-8.8726-5.2006-7.114 4.0717z" fill="#96d696"/></g></g></g><g><g><g enable-background="new"><g><path d="m6.54135 29.3262-.0017.1827 8.0914 4.7428.0018-.1828z" fill="#b4bed7"/></g></g></g><g><path d="m6.54135 29.3262 4.6413-2.6605 8.0915 4.7428-4.6413 2.6604z" fill="#e3e7f0"/></g></g><g><g><g enable-background="new"><g><path d="m6.74545 28.6555-.0017.1827 8.0914 4.7428.0017-.1827z" fill="#b4bed7"/></g></g></g><g><path d="m6.74545 28.6555 4.4372-1.9898 8.0915 4.7428-4.4373 1.9897z" fill="#e3e7f0"/></g></g><g><g><g enable-background="new"><g><path d="m14.63095 34.2527 4.6421-2.6631.0008-.1826-4.2312 1.1611-.0008.1826 3.1842-.8727-3.39 1.5193-.0007.1826 2.9832-1.3387-3.1844 1.8275z" fill="#9da9c1"/></g><g><path d="m6.95095 27.8255-.0017.1827 8.0914 4.7428.0017-.1827z" fill="#b4bed7"/></g></g></g><g><path d="m6.95095 27.8255 4.2317-1.1598 8.0915 4.7428-4.2317 1.1597z" fill="#e3e7f0"/></g></g><g><g enable-background="new"><g><path d="m9.69885 28.7254-.0977.5192.8112-.2491.0977-.5192z" fill="#47a047"/></g><g><path d="m6.46655 26.8308-.0977.5192 3.2323 1.8946.0977-.5192z" fill="#77cb77"/></g><g><path d="m20.82685 31.0663-.1001.52-6.27 3.5899v-.4698l5.14-2.9502-3.54.5499.09-.5201z" fill="#47a047"/></g><g><path d="m10.51005 28.4763-.0977.5192 5.6402 3.306.09771-.5192z" fill="#77cb77"/></g><path d="m11.95495 25.8678 8.8725 5.2007-4.67719.7137-5.64021-3.306-.8112.2491-3.2323-1.8944z" fill="#96d696"/></g></g></g><g><g><g enable-background="new"><g><path d="m31.55605 45.6947-.0045.478.8364-.4787.0045-.4781z" fill="#3a53d0"/></g><g><path d="m28.32375 43.8001-.0045.478 3.2323 1.8946.0045-.478z" fill="#5793fb"/></g><g><path d="m32.39245 45.2159-.0045.4781 5.64031 3.306.00449-.4781z" fill="#5793fb"/></g><g><path d="m31.55605 45.6947.8364-.4788 5.6403 3.306 6.2776-3.5929-8.8726-5.2006-7.114 4.0717z" fill="#7bb1ff"/></g></g></g><g><g><g enable-background="new"><g><path d="m30.11755 43.1456-.0018.1827 8.0914 4.7428.0018-.1828z" fill="#b4bed7"/></g></g></g><g><path d="m30.11755 43.1456 4.6412-2.6605 8.0915 4.7428-4.6413 2.6604z" fill="#e3e7f0"/></g></g><g><g><g enable-background="new"><g><path d="m30.32155 42.4749-.0017.1827 8.0914 4.7428.0017-.1827z" fill="#b4bed7"/></g></g></g><g><path d="m30.32155 42.4749 4.4372-1.9898 8.0915 4.7428-4.4373 1.9897z" fill="#e3e7f0"/></g></g><g><g><g enable-background="new"><g><path d="m38.20705 48.0721 4.6421-2.6631.0008-.1826-4.2312 1.1611-.0008.1826 3.1842-.8727-3.39 1.5193-.0007.1826 2.9832-1.3387-3.1844 1.8275z" fill="#9da9c1"/></g><g><path d="m30.52705 41.6449-.0017.1827 8.0914 4.7428.0017-.1827z" fill="#b4bed7"/></g></g></g><g><path d="m30.52705 41.6449 4.2317-1.1598 8.0915 4.7428-4.2317 1.1597z" fill="#e3e7f0"/></g></g><g><g enable-background="new"><g><path d="m33.27495 42.5448-.0977.5192.8112-.2491.0977-.5192z" fill="#3a53d0"/></g><g><path d="m30.04265 40.6502-.0977.5192 3.2323 1.8946.0977-.5192z" fill="#5793fb"/></g><g><path d="m44.40675 44.8861-.1.5201-6.28 3.5898.01-.4697 5.13-2.9502-3.54.54.1-.5098z" fill="#3a53d0"/></g><g><path d="m34.08615 42.2957-.0977.5192 5.6402 3.306.0978-.5193z" fill="#5793fb"/></g><path d="m35.53105 39.6872 8.8725 5.2007-4.6772.7137-5.6402-3.306-.8112.2491-3.2323-1.8944z" fill="#7bb1ff"/></g></g></g><g><g><g enable-background="new"><g><path d="m19.76795 38.785-.0045.478.8365-.4787.0045-.4781z" fill="#d3374e"/></g><g><path d="m16.53565 36.8904-.0045.478 3.2323 1.8946.0045-.478z" fill="#fe91ab"/></g><g><path d="m20.60445 38.3062-.0045.4781 5.6402 3.306.0045-.4781z" fill="#fe91ab"/></g><g><path d="m19.76795 38.785.8365-.4788 5.6402 3.306 6.2776-3.5929-8.8725-5.2006-7.1141 4.0717z" fill="#ed5d71"/></g></g></g><g><g><g enable-background="new"><g><path d="m18.32945 36.2359-.0017.1827 8.0914 4.7428.0017-.1828z" fill="#b4bed7"/></g></g></g><g><path d="m18.32945 36.2359 4.6413-2.6605 8.0914 4.7428-4.6413 2.6604z" fill="#e3e7f0"/></g></g><g><g><g enable-background="new"><g><path d="m18.53345 35.5652-.0017.1827 8.0914 4.7428.0017-.1827z" fill="#b4bed7"/></g></g></g><g><path d="m18.53345 35.5652 4.4373-1.9898 8.0914 4.7428-4.4372 1.9897z" fill="#e3e7f0"/></g></g><g><g><g enable-background="new"><g><path d="m26.41895 41.1624 4.6422-2.6631.0008-.1826-4.2313 1.1611-.0007.1826 3.1842-.8727-3.3901 1.5193-.0006.1826 2.9832-1.3387-3.1844 1.8275z" fill="#9da9c1"/></g><g><path d="m18.73905 34.7352-.00179.1827 8.09139 4.7428.0018-.1827z" fill="#b4bed7"/></g></g></g><g><path d="m18.73905 34.7352 4.2317-1.1598 8.0914 4.7428-4.2317 1.1597z" fill="#e3e7f0"/></g></g><g><g enable-background="new"><g><path d="m21.48695 35.6351-.09769.5192.81119-.2491.0977-.5192z" fill="#d3374e"/></g><g><path d="m18.25465 33.7405-.0978.5192 3.23241 1.8946.09769-.5192z" fill="#fe91ab"/></g><g><path d="m32.61675 37.976-.0999.52-6.2801 3.5903.01-.4702 5.14-2.9497-3.55.5498.1-.52z" fill="#d3374e"/></g><g><path d="m22.29815 35.386-.0977.5192 5.6402 3.306.0977-.5192z" fill="#fe91ab"/></g><path d="m23.74295 32.7775 8.8725 5.2007-4.6771.7137-5.6402-3.306-.8112.2491-3.2323-1.8944z" fill="#ed5d71"/></g></g></g></g></g></g></svg>