<svg xmlns="http://www.w3.org/2000/svg" viewBox="0 0 55 55"><path fill="#febc1f" d="M41.964 15.619c-6.723 0-7.425-9.312-2.143-11.3L38.4 3.499l-13.15 7.64c-.07-.05-.14-.1-.21-.14l-2.05-1.2c-.5-.28-1.18-.23-1.91.19l-5.82 3.36c-1.02.59-1.94 1.79-2.39 3.09l-.82 2.38-3.17 1.84-.07 23.57c0 2.47 1.74 5.5 3.9 6.74 1.08.62 2.06.68 2.77.27.01-.01.03-.02.05-.03L45 34.088c.7-.41 1.14-1.28 1.14-2.51l.046-17.778c-.94 1.091-2.347 1.819-4.222 1.819z"/><path fill="#ffd651" d="M43.505 31.512 13.989 48.665c-.327.19-.779.163-1.276-.124-.989-.571-1.791-1.96-1.788-3.097l29.517-17.153c-.004 1.137.799 2.526 1.787 3.097.498.287.95.313 1.276.124z"/><path fill="#febc1f" d="M10.992 21.875c11.5-7.465 24.413-16.419 29.516-17.153l-.066 23.57-29.517 17.152.067-23.569z"/><path fill="#ffde9b" d="m10.992 21.875-2.113-1.22L38.396 3.502l2.112 1.22"/><path fill="#ffde9b" d="m8.879 20.655 12.608-7.326 2.112 1.22-12.607 7.326z"/><path fill="#ffd06c" d="M25.054 11c-.5-.29-1.18-.23-1.91.19l-4.6 6.426c-1.02.58-3.17-1.286-3.62.024l-.84 2.44-2.05-1.2.84-2.44c.45-1.3 1.37-2.5 2.39-3.09l5.82-3.36c.73-.42 1.41-.47 1.91-.19l2.06 1.2z"/><path fill="#febc1f" d="M23.144 11.185c1.015-.586 1.945-.461 2.402.32l.853 1.46-12.31 7.11.838-2.439c.451-1.306 1.377-2.501 2.392-3.087l5.825-3.364z"/><path fill="#fff" d="m42.74 30.838-29.19 16.84-2.17-1.26-.06-21.81-.03-.02L40.5 7.778l2.17 1.26h.01z"/><path fill="#dedffb" d="m13.555 47.675-2.17-1.261-.063-21.804 2.17 1.261z"/><path fill="#f3f1fc" d="m13.494 25.87-2.2-1.28 29.21-16.81 2.17 1.26z"/><path fill="#fff" d="m42.678 9.036.063 21.804-29.186 16.835-.063-21.804z"/><path fill="#febc1f" d="m46.19 12.368-.05 19.21c0 1.23-.44 2.1-1.14 2.51l-29.52 17.15c.71-.41 1.14-1.27 1.14-2.5-.464-7.021-.576-13.59.05-19.21 9.13-6.323 19.034-11.988 29.52-17.16z"/><path fill="#ffde9b" d="m14.561 28.304 29.516-17.153 2.113 1.219-29.516 17.153z"/><path fill="#f9a83d" d="M12.706 50.968c-2.154-1.243-3.9-4.269-3.893-6.743l.066-23.57 2.113 1.22-.067 23.57c-.003 1.137.8 2.525 1.788 3.096.989.57 1.796.112 1.8-1.026l.048-19.211 2.113 1.22-.05 19.21c-.006 2.476-1.764 3.478-3.918 2.234"/><path fill="#e93565" d="M37.281 17.616c.06-2.772 2.482-3.769 6.343-3.686l-.041 17.629-3.075-1.214-3.268 4.9c-.387-5.735-.366-11.614.041-17.629z"/><path fill="#cc104a" d="m37.281 17.616-.041 17.629-1.067-.616.038-16.403-2.149-1.241.004-1.225c3.215-.983 4.756-.714 3.215 1.856z"/><path fill="#fff" d="M28.819 34.083c-2.198 0-3.871 1.877-3.871 4.152 0-2.295-1.733-4.152-3.871-4.152 2.143 0 3.87-1.878 3.87-4.168 0 2.348 1.757 4.168 3.872 4.168z"/><path fill="#f45170" d="m34.066 15.76 6.343-3.687 3.215 1.857-6.343 3.686z"/></svg>