<?xml version="1.0" encoding="UTF-8"?><svg id="Layer_2" xmlns="http://www.w3.org/2000/svg" viewBox="0 0 41.41 70.62"><defs><style>.cls-1{fill:#f46cb4;}.cls-2{fill:#ffe088;}.cls-3{fill:#fd546b;}.cls-4{fill:#e7f1f7;}.cls-5{fill:#ffc950;}.cls-6{fill:#ffd469;}.cls-7{fill:#ffb839;}.cls-8{fill:#7cdf82;}.cls-9{fill:#bf66f1;}.cls-10{fill:#cfdee8;}.cls-11{fill:#c5d4dd;}.cls-12{fill:#3765c7;}.cls-13{isolation:isolate;}</style></defs><g id="Layer_1-2"><g><g class="cls-13"><polygon class="cls-6" points="17.55 25.75 19.43 24.84 21.37 30.32 19.48 31.23 17.55 25.75"/><polygon class="cls-2" points="5.49 18.78 7.38 17.88 19.43 24.84 17.55 25.75 5.49 18.78"/><path class="cls-2" d="M39.27,42.87l-1.88,26.42-1.77-2.12,1.76-23.4c.09-1.17-.63-2.57-1.6-3.13l-16.29-9.4,1.88-.91,16.29,9.42c.98,.56,1.69,1.96,1.61,3.13Z"/><path class="cls-7" d="M17.55,25.75l1.93,5.48,16.3,9.41c.98,.56,1.7,1.96,1.61,3.13l-1.88,25.81L3.26,48.48l2.23-29.69,12.06,6.96Z"/><g class="cls-13"><polygon class="cls-10" points="41.02 38.87 12.65 22.38 12.59 2.58 40.97 19.07 41.02 38.87"/><path class="cls-10" d="M11.73,.7l28.38,16.49c.53,.31,.86,.96,.86,1.88L12.59,2.58c0-.93-.33-1.58-.86-1.88Z"/><polygon class="cls-4" points="34.81 62.45 6.43 45.96 6.32 6.2 34.7 22.69 34.81 62.45"/><path class="cls-4" d="M12.01,.23l28.38,16.49c-.61-.35-1.44-.3-2.37,.23L9.64,.46c.92-.53,1.76-.58,2.37-.23Z"/><path class="cls-4" d="M34.7,22.69L6.32,6.2c0-2.11,1.48-4.69,3.32-5.75l28.38,16.49c-1.84,1.06-3.32,3.64-3.32,5.75Z"/><path class="cls-11" d="M38.02,16.95c1.84-1.06,3.33-.21,3.34,1.9l.06,19.8-.39,.23-.06-19.8c0-1.86-1.33-2.62-2.95-1.68-1.62,.94-2.93,3.21-2.93,5.07l.11,39.76-.39,.23-.11-39.76c0-2.11,1.48-4.69,3.32-5.75Z"/></g></g><g class="cls-13"><path class="cls-2" d="M37.39,69.29l-1.89,1.33-3.13-21.46c-.11-1.06-.97-2.36-1.95-2.93L1.6,29.57c-.52-.3-.97-.32-1.25-.12l1.43-1c.28-.2,.73-.18,1.25,.12l28.83,16.64c.98,.56,1.85,1.88,1.95,2.94l3.59,21.13Z"/><path class="cls-5" d="M30.42,46.23c.98,.56,1.85,1.87,1.94,2.93l3.13,21.45L1.98,51.67,0,30.48c-.1-1.06,.61-1.46,1.58-.9l28.84,16.65Z"/></g><g><path class="cls-12" d="M14.69,13.06c.51,1.01,.82,2.1,.82,3.1,0,2.26-1.61,3.17-3.58,2.04-1.96-1.13-3.56-3.9-3.55-6.15,0-.68,.15-1.24,.41-1.65l.65,.89c-.18,.31-.27,.72-.27,1.22,0,1.76,1.23,3.91,2.77,4.8,1.53,.88,2.78,.17,2.79-1.59,0-.77-.23-1.6-.62-2.38l.59-.27Z"/><path class="cls-8" d="M11.95,10.9c-.96-.56-1.82-.48-2.32,.09l-.65-.89c.64-.73,1.73-.82,2.97-.11,.96,.55,1.83,1.5,2.47,2.58l-.59,.26c-.5-.82-1.15-1.52-1.88-1.94Z"/><path class="cls-5" d="M20.58,15.88c-.87-.5-1.65-.49-2.16-.06l-.66-.88c.65-.6,1.68-.63,2.83,.03,.93,.54,1.78,1.44,2.41,2.48l-.54,.34c-.49-.81-1.15-1.5-1.87-1.92Z"/><path class="cls-3" d="M20.56,22.27c.88,.51,1.67,.49,2.18,.04l.64,.89c-.65,.6-1.68,.63-2.82-.03-1.97-1.14-3.56-3.9-3.56-6.16,0-.78,.2-1.4,.53-1.83l.66,.87c-.25,.33-.4,.81-.4,1.41,0,1.76,1.23,3.91,2.77,4.8Z"/><path class="cls-1" d="M23.27,17.95c.54,1.03,.87,2.16,.86,3.19,0,.78-.19,1.4-.53,1.83l-.65-.9c.24-.33,.39-.8,.39-1.39,0-.77-.23-1.61-.63-2.39l.55-.34Z"/><path class="cls-9" d="M29.32,20.03c1.91,1.17,3.44,3.87,3.44,6.09,0,2.26-1.61,3.17-3.58,2.04-1.92-1.11-3.48-3.77-3.55-5.99l.79,.46c.07,1.73,1.28,3.77,2.76,4.63,1.53,.88,2.78,.17,2.79-1.59,0-1.72-1.17-3.8-2.65-4.73v-.91Z"/></g><g><g class="cls-13"><polygon class="cls-11" points="11.04 27.97 11.04 28.42 7.37 26.3 7.37 25.86 11.04 27.97"/><polygon class="cls-11" points="14.43 31.5 14.43 31.95 7.37 27.88 7.37 27.43 14.43 31.5"/><polygon class="cls-11" points="14.03 28.12 14.03 28.57 7.38 24.73 7.38 24.28 14.03 28.12"/><polygon class="cls-11" points="21.52 37.17 21.52 37.62 7.36 29.45 7.37 29 21.52 37.17"/><polygon class="cls-11" points="16.81 28.15 16.81 28.6 7.38 23.16 7.38 22.71 16.81 28.15"/><polygon class="cls-11" points="19.57 32.89 19.56 33.34 11.95 28.94 11.95 28.49 19.57 32.89"/></g><polygon class="cls-11" points="19.44 34.4 19.44 34.84 15.22 32.4 15.22 31.96 19.44 34.4"/><polygon class="cls-11" points="22.64 33.09 22.64 33.54 14.76 28.99 14.76 28.54 22.64 33.09"/><polygon class="cls-11" points="24.03 35.47 24.03 35.92 21.1 34.23 21.1 33.78 24.03 35.47"/><polygon class="cls-11" points="26.87 40.26 26.87 40.71 22.06 37.93 22.06 37.48 26.87 40.26"/><polygon class="cls-11" points="33.44 40.91 33.44 41.35 24.8 36.36 24.8 35.92 33.44 40.91"/><polygon class="cls-11" points="26.86 38.68 26.85 39.13 19.98 35.16 19.99 34.71 26.86 38.68"/><polygon class="cls-11" points="30.77 37.78 30.76 38.23 23.41 33.98 23.41 33.54 30.77 37.78"/><polygon class="cls-11" points="33.45 37.76 33.45 38.21 17.79 29.17 17.8 28.72 33.45 37.76"/><polygon class="cls-11" points="33.44 42.48 33.44 42.93 27.4 39.44 27.4 38.99 33.44 42.48"/></g></g></g></svg>