<svg xmlns="http://www.w3.org/2000/svg" viewBox="0 0 132 132" xml:space="preserve"><path fill="#febc1f" d="m74.053 36.993-.12 43.5c0 2.42-.86 4.13-2.24 4.93l-56.51 32.83c-1.39.86-3.36.77-5.53-.48-4.23-2.45-7.67-8.39-7.65-13.26l.12-43.5.01-.01h-.01l-.02-6.73 5.95-3.43-.01-4.78 56.95-32.88 2.78 1.61.02 7.81.02 8.13 2.35-1.37 3.88 2.25-.01.01.02 5.37z"/><path fill="#febc1f" d="m68.937 80.682-56.578 32.88c-.689.4-1.642.344-2.693-.262-2.088-1.206-3.782-4.14-3.775-6.54l56.578-32.879c-.007 2.4 1.686 5.334 3.775 6.54 1.05.606 2.004.661 2.693.26z"/><path fill="#ffd06c" d="m2.121 61.008 56.578-32.879 3.891 2.246-56.578 32.88z"/><path fill="#febc1f" d="m62.589 30.369-.125 43.503-56.576 32.893.125-43.503-.021-6.725 17.042-9.836 2.005 5.493z"/><path fill="#f9a83d" d="m6.012 63.255-3.889-2.253-.019-6.724 3.889 2.252z"/><path fill="#ffd06c" d="m5.993 56.53-3.889-2.252 17.034-9.835 3.889 2.252z"/><path fill="#dedffb" d="m10.975 111.211-2.771-1.61-.143-55.72 2.771 1.61z"/><path fill="#bfc0d8" d="m10.832 55.491-2.771-1.61 56.958-32.885 2.771 1.61z"/><path fill="#f3f1fc" d="m67.79 22.606.143 55.721-56.958 32.884-.143-55.72z"/><path fill="#497bfe" d="m10.832 55.491-2.771-1.61-.022-7.817 2.771 1.61z"/><path fill="#5094ff" d="m10.81 47.674-2.771-1.61 56.958-32.885 2.771 1.61z"/><path fill="#57b3fe" d="m67.768 14.789.022 7.817-56.958 32.885-.022-7.817z"/><path fill="#f3f1fc" d="M13.858 48.637c.69-.398 1.245-.083 1.247.71.002.78-.548 1.747-1.239 2.146-.677.391-1.219.054-1.221-.725-.002-.793.536-1.74 1.213-2.13zm3.992-2.304c.69-.399 1.244-.083 1.246.71.002.779-.548 1.747-1.238 2.145-.678.392-1.232.062-1.234-.717-.003-.793.548-1.747 1.226-2.138zm3.991-2.305c.678-.39 1.244-.082 1.247.71.002.78-.561 1.755-1.239 2.146-.69.399-1.232.061-1.234-.718-.002-.793.536-1.74 1.226-2.138z"/><path fill="#4c5c75" d="M15.622 56.263c-.756.436-1.342 1.099-1.74 1.971-.392.864-.591 1.85-.588 2.929.003 1.079.207 1.836.604 2.245.4.406.988.391 1.744-.045.751-.434 1.333-1.094 1.735-1.964.397-.867.596-1.857.593-2.936-.003-1.08-.207-1.831-.608-2.237-.406-.41-.989-.397-1.74.037zm-1.102 6.159c-.26-.32-.397-.9-.4-1.736-.002-.826.132-1.563.39-2.181.256-.613.631-1.067 1.115-1.347.483-.279.86-.258 1.12.057.259.32.397.9.399 1.725.002.836-.132 1.573-.389 2.191-.257.619-.632 1.073-1.115 1.352-.484.28-.86.259-1.12-.061zM21 60.27c.75-.434 1.332-1.094 1.734-1.964.397-.867.596-1.857.593-2.936-.003-1.08-.207-1.831-.608-2.237-.405-.41-.989-.397-1.74.037-.756.436-1.342 1.099-1.734 1.969-.398.866-.597 1.852-.594 2.93.003 1.08.208 1.837.608 2.243.397.41.984.394 1.74-.042zm1.101-6.148c.264.317.398.9.4 1.725.002.836-.127 1.57-.389 2.191-.257.619-.632 1.073-1.115 1.352-.484.28-.86.259-1.12-.061-.26-.32-.392-.903-.395-1.74-.002-.825.127-1.559.384-2.177.257-.613.632-1.067 1.116-1.347.483-.279.86-.258 1.12.057zm6.117 1.438a.82.82 0 0 1-.117.39.765.765 0 0 1-.272.28l-2.64 1.521c-.11.066-.199.074-.272.037-.081-.044-.11-.132-.11-.257s.029-.25.102-.383a.854.854 0 0 1 .272-.287l.993-.566-.015-4.897-.83.948a1.02 1.02 0 0 1-.206.184c-.118.066-.206.074-.287.037-.066-.044-.103-.132-.103-.265-.008-.198.073-.382.228-.559l1.162-1.368c.08-.095.169-.169.25-.22l.176-.103c.118-.066.22-.074.309-.03.088.045.132.14.132.28l.015 5.508.816-.47c.11-.06.206-.074.28-.03.073.044.117.125.117.25z"/><path fill="#f45170" d="M31.718 54.081c.747-.43 1.333-1.093 1.73-1.96s.601-1.86.598-2.94c-.003-1.079-.212-1.828-.613-2.234-.4-.412-.988-.397-1.735.034-.756.437-1.342 1.1-1.74 1.972-.396.867-.591 1.85-.588 2.928.003 1.08.203 1.84.604 2.245s.988.392 1.744-.045zm1.102-6.148c.26.32.393.903.395 1.728.003.836-.127 1.57-.384 2.189-.257.618-.636 1.075-1.115 1.352-.484.279-.86.258-1.12-.062-.264-.317-.397-.9-.4-1.736-.002-.825.128-1.56.39-2.18.256-.614.631-1.068 1.115-1.347.479-.277.86-.259 1.119.056z"/><path fill="#4c5c75" d="M38.933 49.375a.78.78 0 0 1-.11.383.872.872 0 0 1-.28.287l-2.64 1.522c-.103.059-.198.073-.272.037-.074-.045-.11-.133-.11-.258a.83.83 0 0 1 .103-.382.805.805 0 0 1 .28-.287l.992-.574-.015-4.89-.838.949a.796.796 0 0 1-.206.176c-.118.074-.206.081-.28.044-.073-.044-.11-.132-.11-.264-.007-.199.074-.383.228-.567l1.162-1.367c.08-.096.17-.162.25-.214l.177-.103c.125-.066.228-.08.316-.029.08.044.125.14.125.272l.014 5.515.817-.47c.117-.066.206-.074.287-.03.073.037.11.125.11.25zm3.5-1.48c.75-.433 1.332-1.093 1.734-1.963.397-.867.597-1.858.594-2.937-.004-1.079-.208-1.83-.609-2.237-.405-.409-.988-.396-1.74.037-.756.437-1.342 1.1-1.739 1.972-.392.864-.592 1.85-.589 2.928s.208 1.837.604 2.246c.4.406.989.39 1.744-.046zm1.101-6.148c.26.32.398.9.4 1.725.003.837-.132 1.574-.389 2.192-.257.618-.631 1.073-1.115 1.352-.484.28-.86.259-1.12-.062-.259-.32-.397-.9-.4-1.736-.002-.825.133-1.562.39-2.18.256-.614.631-1.068 1.115-1.347.483-.28.86-.259 1.12.056z"/><path fill="#b28afd" d="M49.647 43.19a.78.78 0 0 1-.11.383.805.805 0 0 1-.28.287l-2.64 1.522c-.102.06-.198.074-.272.03-.073-.044-.11-.125-.11-.25s.037-.258.11-.383a.687.687 0 0 1 .272-.286l.993-.574-.014-4.898-.831.956a.942.942 0 0 1-.214.177c-.11.066-.206.08-.28.037-.073-.045-.11-.125-.11-.265 0-.191.081-.383.236-.559l1.154-1.368c.089-.095.17-.169.25-.213l.184-.103c.118-.074.22-.08.31-.037.08.052.124.147.124.28l.015 5.515.823-.478c.11-.059.199-.066.28-.03.073.045.11.133.11.258z"/><path fill="#4c5c75" d="M53.147 41.71c.75-.434 1.337-1.097 1.734-1.964s.597-1.857.594-2.936c-.003-1.08-.208-1.832-.609-2.238-.4-.411-.988-.396-1.74.038-.755.436-1.337 1.096-1.734 1.968-.397.867-.597 1.852-.594 2.931.004 1.08.208 1.837.609 2.243.4.406.984.394 1.74-.043zm1.101-6.149c.265.318.398.9.4 1.726.003.836-.127 1.57-.388 2.191-.257.619-.632 1.073-1.116 1.352-.483.28-.86.259-1.12-.062-.259-.32-.392-.902-.395-1.738-.002-.826.128-1.56.385-2.178.257-.613.631-1.068 1.115-1.347.484-.28.86-.259 1.12.056zm4.26 3.053c.747-.431 1.333-1.094 1.73-1.96.397-.868.602-1.861.599-2.94-.004-1.08-.213-1.828-.613-2.235-.401-.411-.99-.396-1.736.035-.756.436-1.342 1.099-1.739 1.971-.397.867-.592 1.85-.589 2.929.003 1.079.203 1.839.604 2.245.4.406.989.391 1.744-.045zm1.102-6.148c.26.32.393.902.396 1.728.002.836-.128 1.57-.385 2.188-.261.622-.636 1.076-1.115 1.352-.484.28-.86.259-1.12-.061-.264-.318-.397-.9-.4-1.736-.002-.826.128-1.56.39-2.181.256-.613.631-1.067 1.115-1.347.479-.276.855-.255 1.12.057zm-31.472 34.61c.073.044.117.125.117.25a.77.77 0 0 1-.117.382.701.701 0 0 1-.28.287l-2.64 1.53c-.103.058-.198.066-.272.022-.073-.037-.11-.125-.11-.25a.78.78 0 0 1 .11-.383.687.687 0 0 1 .272-.287l.993-.573-.015-4.89-.83.948a1.268 1.268 0 0 1-.207.184c-.117.066-.213.074-.286.037-.074-.044-.11-.132-.11-.265 0-.191.08-.382.235-.559l1.154-1.368a.982.982 0 0 1 .257-.22l.177-.103c.118-.066.22-.081.309-.03.088.045.132.14.132.28l.015 5.508.816-.47c.103-.067.199-.074.28-.03zm-5.361 3.096c.073.044.11.125.11.25a.693.693 0 0 1-.11.382.854.854 0 0 1-.272.287l-2.64 1.522c-.11.066-.206.074-.272.03-.081-.037-.118-.125-.118-.25s.037-.25.118-.383a.742.742 0 0 1 .264-.294l.993-.566-.015-4.898-.83.949a1.413 1.413 0 0 1-.207.191c-.117.059-.205.074-.286.03-.067-.037-.103-.133-.103-.258 0-.199.073-.39.228-.566l1.162-1.36a.842.842 0 0 1 .25-.221l.183-.11c.11-.067.221-.074.302-.03.088.052.125.147.125.287l.022 5.508.816-.478c.11-.06.206-.074.28-.022zm10.832-5.935a.68.68 0 0 1-.118.375.815.815 0 0 1-.272.294l-2.64 1.523c-.11.059-.199.073-.272.03-.074-.045-.11-.126-.11-.25s.036-.258.103-.383a.83.83 0 0 1 .279-.294l.985-.574-.014-4.89-.831.948a.832.832 0 0 1-.206.184c-.118.066-.206.081-.287.037-.066-.044-.103-.132-.103-.265 0-.191.074-.382.228-.559l1.162-1.367c.08-.096.17-.17.25-.221l.176-.103c.125-.066.228-.08.317-.03.08.045.125.14.125.28l.014 5.508.817-.47c.11-.06.206-.074.28-.023.08.037.117.125.117.25zm3.5-1.482c.75-.434 1.332-1.094 1.734-1.969.397-.867.597-1.852.594-2.931-.003-1.08-.208-1.831-.609-2.237-.405-.41-.988-.397-1.74.037-.755.436-1.341 1.099-1.739 1.971-.392.865-.592 1.85-.589 2.929.004 1.079.208 1.83.604 2.24.401.411.989.396 1.745-.04zm1.102-6.148c.26.32.392.902.395 1.728.002.83-.127 1.57-.384 2.188-.257.614-.632 1.068-1.116 1.347-.483.28-.86.259-1.12-.056-.264-.318-.397-.905-.4-1.736-.002-.826.128-1.56.39-2.181.257-.618.631-1.067 1.115-1.347.484-.279.86-.264 1.12.057zm4.255 3.055c.751-.434 1.332-1.094 1.734-1.969.398-.867.597-1.852.594-2.931-.003-1.08-.208-1.831-.608-2.237-.406-.41-.99-.397-1.74.037-.756.436-1.342 1.099-1.74 1.971-.392.865-.591 1.85-.588 2.929.003 1.079.207 1.83.603 2.24.401.411.989.396 1.745-.04zm1.102-6.148c.26.32.397.9.4 1.725.002.83-.132 1.573-.39 2.192-.256.613-.631 1.067-1.115 1.346-.483.28-.86.259-1.12-.056-.259-.32-.397-.905-.4-1.736-.001-.826.133-1.562.39-2.18.257-.62.632-1.068 1.115-1.347.484-.28.86-.265 1.12.056zm4.235-4.045c-.756.436-1.342 1.099-1.735 1.969-.397.867-.596 1.852-.593 2.93.003 1.08.207 1.832.608 2.238.396.414.984.4 1.74-.037.751-.434 1.332-1.094 1.734-1.969.398-.867.597-1.852.594-2.931-.003-1.079-.207-1.831-.608-2.237-.406-.41-.989-.397-1.74.037zM46.7 55.628c-.26-.32-.393-.908-.395-1.739-.003-.825.127-1.56.384-2.178.257-.618.632-1.067 1.115-1.346.484-.28.86-.264 1.12.056.264.317.397.9.4 1.725.002.831-.128 1.57-.39 2.192-.256.613-.631 1.067-1.115 1.346-.483.28-.86.259-1.119-.056zm6.479-2.152c.751-.434 1.337-1.096 1.734-1.969.398-.867.597-1.852.594-2.93-.003-1.08-.207-1.832-.608-2.238-.401-.412-.989-.397-1.74.037-.756.437-1.337 1.096-1.735 1.969-.397.867-.596 1.852-.593 2.931.003 1.079.207 1.831.608 2.237.401.412.984.4 1.74-.037zm1.102-6.148c.264.317.397.9.4 1.725.002.831-.127 1.57-.389 2.192-.257.613-.632 1.067-1.115 1.346-.484.28-.86.259-1.12-.056-.26-.32-.393-.908-.395-1.739-.003-.825.127-1.56.384-2.178.257-.618.632-1.067 1.115-1.346.484-.28.86-.264 1.12.056zm-31.358 34.86c0 .125-.037.257-.11.382s-.17.22-.28.28l-2.64 1.522c-.103.066-.198.08-.272.037-.074-.045-.11-.125-.11-.25 0-.126.036-.258.11-.39a.788.788 0 0 1 .272-.287l.993-.566-.015-4.898-.83.949a.834.834 0 0 1-.214.184c-.11.066-.206.08-.28.036-.073-.044-.11-.132-.11-.257 0-.199.081-.39.235-.566l1.155-1.368c.088-.096.17-.17.25-.213l.184-.11c.117-.067.22-.074.309-.03.08.051.125.147.125.287l.014 5.508.824-.478c.11-.06.199-.074.28-.03.073.044.11.133.11.258zm-8.766-11.67c-.073-.037-.11-.133-.118-.258 0-.199.081-.39.243-.566l1.155-1.368c.088-.096.169-.17.25-.22l.176-.104c.125-.066.228-.08.316-.03.081.045.125.14.125.28l.015 5.508.824-.47c.103-.067.198-.074.28-.03.073.044.11.133.11.258s-.037.25-.11.375a.771.771 0 0 1-.28.294l-2.64 1.522c-.103.059-.199.074-.272.022-.074-.037-.11-.118-.11-.243s.036-.257.102-.382a.773.773 0 0 1 .28-.294l.993-.574-.015-4.89-.838.949a.72.72 0 0 1-.206.184c-.11.066-.206.08-.28.036zm3.295 14.508c.073.044.11.125.117.258 0 .125-.044.25-.117.375a.79.79 0 0 1-.272.286l-2.64 1.523c-.11.066-.206.08-.273.036-.073-.044-.117-.125-.117-.25 0-.132.037-.257.11-.39a.749.749 0 0 1 .28-.286l.985-.574-.015-4.89-.83.949a1.27 1.27 0 0 1-.207.184c-.117.058-.213.08-.286.036-.074-.044-.11-.132-.11-.257 0-.199.08-.39.235-.574l1.161-1.367c.081-.096.17-.162.25-.214l.177-.103c.125-.066.228-.08.309-.03.088.045.125.14.125.28l.022 5.508.816-.47c.11-.067.206-.074.28-.03zm8.97-4.316c.751-.434 1.337-1.096 1.735-1.969.397-.867.596-1.852.593-2.931-.003-1.079-.207-1.836-.608-2.243-.401-.406-.989-.39-1.74.043-.756.436-1.337 1.096-1.734 1.963-.398.867-.597 1.858-.594 2.937.003 1.079.207 1.83.608 2.237.401.412.984.4 1.74-.037zm1.102-6.154c.264.323.398.9.4 1.731.002.83-.127 1.57-.389 2.192-.257.613-.632 1.067-1.115 1.346-.484.28-.86.259-1.12-.056-.26-.32-.393-.908-.395-1.739-.002-.83.127-1.56.384-2.183.257-.613.632-1.068 1.116-1.347.483-.279.86-.258 1.119.056zm4.26 3.058c.746-.43 1.332-1.093 1.73-1.966.397-.867.601-1.855.598-2.934-.003-1.079-.212-1.833-.613-2.24-.4-.406-.989-.39-1.735.04-.756.437-1.342 1.1-1.74 1.966-.397.867-.591 1.855-.588 2.934.003 1.08.202 1.834.603 2.24.401.412.99.397 1.745-.04zm1.102-6.153c.26.325.393.902.395 1.733.002.831-.127 1.57-.384 2.189-.257.613-.637 1.07-1.116 1.346-.483.28-.86.26-1.119-.056-.264-.317-.398-.905-.4-1.736-.002-.83.127-1.56.389-2.186.257-.613.632-1.067 1.115-1.346.48-.277.86-.26 1.12.056zm6.112 1.446a.76.76 0 0 1-.11.383.871.871 0 0 1-.28.287l-2.64 1.514c-.103.067-.198.081-.272.037-.073-.044-.11-.125-.11-.25a.76.76 0 0 1 .11-.382.756.756 0 0 1 .272-.294l.993-.574-.015-4.89-.838.956a.977.977 0 0 1-.206.176c-.118.066-.206.081-.28.037-.073-.044-.11-.132-.11-.257 0-.199.074-.39.228-.567l1.162-1.367c.081-.096.17-.17.25-.214l.184-.103c.118-.073.22-.08.309-.036.08.051.125.14.125.286l.015 5.508.816-.478c.118-.059.206-.066.287-.03.073.045.11.133.11.258zm3.48-8.578c-.756.436-1.342 1.098-1.74 1.966-.392.864-.591 1.854-.588 2.933.003 1.08.207 1.831.604 2.24.4.412.988.397 1.744-.04.751-.433 1.333-1.093 1.735-1.968.397-.867.596-1.853.593-2.932s-.207-1.836-.608-2.242c-.406-.404-.989-.391-1.74.043zm-1.102 6.158c-.26-.32-.397-.905-.4-1.736-.002-.83.132-1.562.39-2.186.256-.613.631-1.067 1.115-1.346.483-.28.86-.259 1.119.056.26.326.398.9.4 1.73.002.831-.132 1.574-.389 2.192-.257.613-.632 1.067-1.115 1.347-.484.279-.86.258-1.12-.057zm8.336-3.764c0 .125-.036.25-.11.375a.7.7 0 0 1-.28.287l-2.64 1.522c-.102.066-.198.08-.271.037-.074-.044-.11-.125-.11-.25 0-.133.036-.258.11-.39a.787.787 0 0 1 .272-.287l.992-.574-.014-4.89-.831.949a1.02 1.02 0 0 1-.214.184c-.11.059-.205.08-.279.037-.073-.045-.11-.133-.11-.265 0-.191.08-.383.235-.566l1.155-1.36c.088-.104.169-.17.25-.222l.183-.102c.118-.067.221-.081.31-.03.08.044.124.14.124.28l.015 5.507.824-.47c.11-.066.198-.074.28-.03.073.045.11.125.11.258zm3.48-8.58c-.756.436-1.337 1.096-1.734 1.963s-.597 1.858-.594 2.937c.003 1.079.208 1.83.608 2.237.401.411.984.399 1.74-.037.752-.434 1.338-1.097 1.735-1.97.397-.866.597-1.851.593-2.93-.003-1.08-.207-1.837-.608-2.243-.4-.406-.989-.391-1.74.043zm-1.102 6.159c-.26-.32-.392-.908-.395-1.74-.002-.83.127-1.559.384-2.183.257-.613.632-1.067 1.116-1.346.483-.28.86-.259 1.12.056.263.323.397.9.4 1.73.001.832-.128 1.571-.39 2.192-.257.613-.632 1.068-1.115 1.347-.484.279-.86.258-1.12-.056zm4.41-1.974c.157.202.406.301.75.292.343-.004.784-.161 1.324-.473a5.145 5.145 0 0 0 1.319-1.053c.342-.387.59-.773.744-1.154.159-.384.233-.74.232-1.064-.002-.895-.413-1.28-1.221-1.153.263-.265.478-.568.651-.9a2.45 2.45 0 0 0 .28-1.129c-.002-.286-.068-.534-.205-.73-.137-.202-.358-.307-.66-.317-.305-.002-.695.132-1.16.4-.47.271-.859.588-1.159.94-.305.359-.525.718-.66 1.078-.135.353-.2.677-.2.963.002.383.097.658.285.803.174.132.396.182.654.147-.806.806-1.213 1.662-1.21 2.558 0 .323.081.59.237.792zm2.95-6.663c.197.08.301.269.302.566 0 .264-.097.564-.284.877-.192.322-.497.606-.906.842-.413.238-.718.306-.911.207-.189-.096-.288-.282-.289-.547 0-.296.102-.604.303-.915.202-.31.497-.579.891-.806.39-.225.69-.302.893-.224zm-1.733 5.929c-.221-.002-.381-.067-.48-.193a.754.754 0 0 1-.148-.445c0-.405.144-.807.425-1.196.281-.39.633-.706 1.05-.947.414-.239.766-.329 1.053-.268.278.067.424.301.426.706 0 .167-.051.37-.144.613-.098.24-.258.489-.478.746-.216.26-.502.49-.85.69s-.638.304-.854.294zm6.214-2.54c.752-.434 1.333-1.094 1.735-1.969.397-.867.596-1.852.593-2.93-.003-1.08-.207-1.837-.608-2.244-.406-.403-.989-.39-1.74.043-.756.437-1.342 1.1-1.739 1.966-.393.864-.592 1.855-.589 2.934.003 1.079.207 1.831.604 2.24.4.412.988.396 1.744-.04zm1.102-6.154c.26.326.393.903.395 1.734.003.83-.127 1.57-.384 2.189-.257.613-.632 1.067-1.115 1.346-.484.28-.86.259-1.12-.056-.264-.318-.397-.905-.4-1.736-.002-.831.128-1.56.39-2.186.256-.613.631-1.068 1.115-1.347s.86-.258 1.12.056zm-4.753-4.385c.08.044.117.125.117.25a.703.703 0 0 1-.117.382.735.735 0 0 1-.272.287l-2.633 1.522c-.118.067-.206.074-.28.03-.073-.037-.11-.125-.11-.25s.037-.25.11-.375a.73.73 0 0 1 .273-.302l.985-.566-.015-4.89-.823.948a1.25 1.25 0 0 1-.214.184c-.11.066-.205.074-.286.037-.067-.044-.103-.132-.103-.265 0-.19.073-.382.228-.559l1.162-1.367a.962.962 0 0 1 .25-.221l.183-.103c.118-.073.221-.08.31-.037.08.052.124.147.124.287l.015 5.508.816-.47c.11-.067.206-.074.28-.03zm5.478-2.839a.68.68 0 0 1-.117.375.72.72 0 0 1-.28.295l-2.633 1.522c-.11.059-.198.073-.279.03-.066-.045-.103-.126-.11-.25a.84.84 0 0 1 .11-.383.723.723 0 0 1 .28-.294l.985-.574-.015-4.89-.83.949a.72.72 0 0 1-.207.183c-.117.067-.213.081-.28.037-.08-.037-.117-.132-.117-.265 0-.19.081-.382.243-.558l1.154-1.368a.981.981 0 0 1 .25-.22l.177-.104c.125-.066.228-.08.309-.03.088.045.132.14.132.28l.015 5.508.816-.47c.11-.067.206-.074.28-.03.073.044.117.132.117.257zM65.76 33.321a.68.68 0 0 1-.118.375.72.72 0 0 1-.28.294l-2.633 1.523c-.11.059-.198.073-.279.03-.066-.045-.103-.126-.11-.25a.84.84 0 0 1 .11-.383.723.723 0 0 1 .28-.294l.985-.574-.015-4.89-.83.948a.72.72 0 0 1-.207.184c-.117.066-.213.081-.28.037-.08-.037-.117-.132-.117-.265 0-.191.081-.382.243-.559l1.154-1.367a.981.981 0 0 1 .25-.221l.177-.103c.125-.066.228-.08.309-.03.088.045.132.14.132.28l.015 5.508.816-.47c.11-.067.206-.074.28-.03.073.044.117.132.117.257z"/><path fill="#febc1f" d="m74.053 36.993-.12 43.5c0 2.42-.86 4.13-2.24 4.93l-56.57 32.87c1.37-.79 2.23-2.49 2.23-4.91l.13-43.5v-.01l-3.9-2.25 19.92-11.57 18.33-10.65 4.65-8.07 13.68-7.97 3.88 2.25-.01.01.02 5.37z"/><path fill="#febc1f" d="m74.055 36.99-.126 43.502c0 2.423-.856 4.135-2.234 4.929l-56.576 32.872c1.378-.794 2.234-2.485 2.234-4.908l.126-43.502 38.364-22.305 4.532-7.978 13.659-7.978.02 5.368z"/><path fill="#ffd06c" d="m13.586 67.628 38.247-22.227 3.892 2.247-38.247 22.226z"/><path fill="#ffd06c" d="m13.586 67.628 19.917-11.575 3.892 2.247-19.917 11.574zM60.368 39.592l-3.882-2.256 13.672-7.976 3.883 2.256z"/><path fill="#f9a83d" d="m55.774 47.692-3.941-2.291 4.653-8.065 3.882 2.256zM17.478 69.874l-.12 43.507c-.015 4.865-3.47 6.834-7.704 4.39-4.235-2.445-7.668-8.391-7.654-13.257l.121-43.506 3.891 2.247-.121 43.506c-.007 2.4 1.687 5.333 3.775 6.539 2.088 1.205 3.793.234 3.8-2.166l.12-43.506 3.892 2.246z"/><path fill="#f4d6d4" d="m104.349 48.28-.772-3.662-3.428-.622-2.886 3.729c-.167.215-.365.4-.592.55-1.246.823-5.712 3.87-9.101 7.405v5.396c.458-.395 1.813-1.17 2.146-1.34.348-.137 8.299-4.743 9.571-6.015 1.294-1.294 5.062-5.441 5.062-5.441z"/><path fill="#5ec363" d="M101.483 46.734c1.198 1.278 2.744 2.386 3.226 1.913l6.788-6.91-1.676-4.71-.548-1.542s-4.654-2.181-9.24 8.511c-.317.476.446 1.667 1.45 2.738z"/><path fill="#72d561" d="M101.483 46.734c1.198 1.278 2.744 2.386 3.226 1.913l6.788-6.91-1.676-4.71c-1.487-.14-5.015.545-8.503 8.68-.146.218-.065.588.165 1.027z"/><path fill="#e3e7f0" d="M114.068 110.157v2.624c0 .696-.381 1.336-.993 1.67-.667.364-1.6.744-2.575.731a2.632 2.632 0 0 0-1.695.578c-1.217.986-3.753 2.54-6.836 1.607-.936-.283-1.245-1.463-.56-2.161.403-.41 1.065-.857 2.131-1.3 0 0 3.02-1.625 3.427-3.334.407-1.71 7.101-.415 7.101-.415z"/><path fill="#455368" d="M105.309 83.494c1.226 8.696 1.771 17.725 1.658 27.078 1.123.68 2.207 1.01 3.253 1.024 1.34.017 2.62-.486 3.848-1.439l-.753-45.785-.018-1.064-8.034-.63-1.06 1.796c-.365 6.122.08 12.485 1.106 19.02z"/><path fill="#1d2943" d="M108.56 84.81c1.213 8.606 1.76 17.537 1.66 26.786 1.34.017 2.62-.486 3.848-1.439l-.753-45.785-4.801-.377-1.06 1.796c-.366 6.122.081 12.485 1.106 19.02z"/><path fill="#e3e7f0" d="M126.724 102.865s3.168 1.508 3.272 3.373c.057 1.036-.454 1.805-.92 2.285a3.055 3.055 0 0 0-.823 1.707c-.285 2.026-1.309 6.127-4.961 6.684a1.283 1.283 0 0 1-1.287-.593c-.603-.988-1.114-3.37 1.014-8.872l3.705-4.584z"/><path fill="#4c5c75" d="m107.243 93.549 15.583 13.803c.427.383 1.523-.417 2.465-1.453 1.051-1.156 1.91-2.606 1.433-3.034l-4.371-5.565a33.924 33.924 0 0 1-1.832-2.6c-1.555-2.417-3.644-4.227-6.134-5.58a1.123 1.123 0 0 1-.41-1.595c5.427-8.405 8.79-15.996 6.022-21.163l-3.416-2.783-.333-.271-6.059 1.882-4.462 23.952a4.731 4.731 0 0 0 1.514 4.407z"/><path fill="#455368" d="M110.877 92.395 125.29 105.9c1.051-1.156 1.91-2.606 1.433-3.034l-4.371-5.565a33.924 33.924 0 0 1-1.832-2.6c-1.555-2.417-3.644-4.227-6.134-5.58a1.123 1.123 0 0 1-.41-1.595c5.427-8.405 8.79-15.996 6.022-21.163l-3.416-2.783-1.967.551-5.129 23.818a4.728 4.728 0 0 0 1.39 4.447z"/><path fill="#78e75a" d="M123.555 41.798s-7.932-6.736-15.288-6.55c-3.562 1.772-4.735 6.575-4.184 13.565.756 5.062-.018 11.427-.128 16.667 0 .025-.003.05-.005.075-.446 4.467 15.11 5.629 16.586 1.488a1.11 1.11 0 0 0-.01-.729c-1.272-3.73-2.222-8.444.064-13.64.544-1.236.95-2.53 1.174-3.862l1.791-7.014z"/><path fill="#5ec363" d="M109.255 39.161c.02.99.632 1.852 1.542 2.249.642.278 1.322.42 2.053.381 1.106-.056 2.214-.44 3.023-1.194 1.037-.971 1.748-1.934 1.986-2.593-1.686-1.051-4.032-2.166-6.087-2.699v-.002a9.271 9.271 0 0 0-.506-.124l-1.148.803c-.604 1.049-.884 2.177-.863 3.18z"/><path fill="#f5c9c6" d="m110.592 38.032.384-1.63 4.951-2.995.929 4.005s-.605 1.652-2 2.586c-.96.644-2.183.767-3.284.413-.538-.173-.89-.457-1.032-1.007a1.704 1.704 0 0 1-.036-.563s.066-.714.088-.809z"/><path fill="#f4d6d4" d="M118.702 32.904c.193-.399.32-.826.43-1.256.212-.84.355-1.707.29-2.57-.067-.865-.356-1.73-.928-2.38-.97-1.106-2.55-1.418-4.017-1.531a24.393 24.393 0 0 0-4.321.05c-1.68.17-3.189.838-3.338 2.663-.082 1.003-.27 1.989-.309 2.998a17.83 17.83 0 0 0 .98 6.544c.147.418.313.837.581 1.19.268.353.654.637 1.093.695.427.057.946.072 1.38-.01 3.67-1.013 6.576-3.463 8.159-6.393z"/><path fill="#1d2943" d="M105.896 25.282v-.391c.1.013.197.036.305.025a.417.417 0 0 0 .337-.249 3.84 3.84 0 0 1 .897-1.247c.154-.145.321-.284.501-.416 2.931-2.126 5.922-2.303 8.955-1.049 2.611 1.2 3.605 3.484 3.47 6.526-.078 1.904-1.384 4.641-3.064 6.49-.015-.083-.05-.187-.074-.263a1.934 1.934 0 0 0-.129-.328c-.179-.353-.231-.892-.042-1.24l.628-1.157a.853.853 0 0 0-.037-.875c-.395-.598-1.312-.471-1.523.214a9.362 9.362 0 0 0-.289 1.27.368.368 0 0 1-.334.308l-.331.027a.368.368 0 0 1-.392-.307c-.241-1.41-.201-2.869.04-4.365.076-.475-.384-.84-.84-.683-1.566.54-3.513.675-5.607.654a4.178 4.178 0 0 1-.589-.046c-1.7-.26-2.612-1.246-2.799-2.898h.917z"/><path fill="#4c5c75" d="M107.342 26.175v-2.426h-.196c.095-.11.18-.226.29-.329 2.854-1.967 5.765-2.1 8.716-.881 2.61 1.2 3.605 3.484 3.47 6.526-.067 1.637-1.055 3.873-2.399 5.643a1.934 1.934 0 0 0-.129-.328c-.179-.353-.231-.892-.042-1.24l.628-1.157a.853.853 0 0 0-.037-.875c-.395-.598-1.312-.471-1.523.214a9.362 9.362 0 0 0-.289 1.27.368.368 0 0 1-.334.308l-.331.027a.368.368 0 0 1-.392-.307c-.241-1.41-.201-2.87.04-4.366.077-.474-.383-.839-.838-.682-1.567.54-3.515.675-5.609.654a4.178 4.178 0 0 1-.589-.046c-1.37-.21-2.23-.887-2.612-2.005h2.176z"/><path fill="#5ec363" d="M111.469 28.495c.056-.008.113-.013.17-.014.195-.003.387.043.576.087a35.8 35.8 0 0 0 5.615.85c.48.035.965.02 1.443-.046.365-.05.775-.144 1.01-.439.156-.194.213-.447.257-.692a10.88 10.88 0 0 0-.124-4.413c-.432-1.823-1.408-3.594-2.997-4.587-1.27-.793-2.817-1.026-4.314-1.004-2.106.03-4.29.578-5.85 1.994a6.379 6.379 0 0 0-2.053 4.348.24.24 0 0 1-.222.23c-1.433.102-2.896.252-4.174.902-.298.152-.592.339-.776.618-.763 1.164 1.365 1.838 2.14 2.078 2.864.886 5.979.95 8.878.184.139-.037.279-.076.42-.096z"/><path fill="#f4d6d4" d="M112.448 70.063c.27-.125.646-.443.878-.561 2.51-1.279 10.65-5.606 12.148-8.643 1.013-2.055-.08-9.48-.08-9.48l-4.528-2.451-1.698 3.394.794 6.336a.504.504 0 0 1-.162.436l-9.23 8.366 1.878 2.603z"/><path fill="#5ec363" d="M117.797 44.694c0 .137.006.274.022.41l.821 7.299c.171 1.135 3.317 1.07 5.447.407 1.17-.363 2.032-.905 1.939-1.527l-1.002-7.093a3.632 3.632 0 0 0-4.3-3.055 3.64 3.64 0 0 0-1.984 1.117 3.641 3.641 0 0 0-.943 2.442z"/><path fill="#72d561" d="M117.797 44.694c0 .137.006.274.022.41l.821 7.299c.171 1.135 3.317 1.07 5.447.407a.67.67 0 0 0 .094-.438l-1.005-7.093a3.63 3.63 0 0 0-4.436-3.027 3.641 3.641 0 0 0-.943 2.442z"/><path fill="#dedffb" d="m48.253 88.095 2.973 1.268s.35-1.58.347-1.702-.204-1.29-.4-1.285-2.145.743-2.27.875c-.127.131-.65.844-.65.844zm2.257 8.09 3.955 1.208s.426-1.269.424-1.384c-.003-.115-1.467-1.87-1.76-1.752-.294.117-1.428.595-1.428.595l-1.191 1.333zm-4.13-14.4 3.94 1.148.43-1.14s-1.544-1.81-1.8-1.805c-.258.006-1.563.136-1.78.445-.216.31-.79 1.351-.79 1.351z"/><path fill="#f3f1fc" d="m57.838 100.1-6.745-23.3-5.654 1.453.94 3.531c1.089.088 2.168.038 3.239-.16-.929.662-1.886 1.128-2.877 1.362l1.512 5.109a10.82 10.82 0 0 0 2.6-.534c-.769.932-1.516 1.633-2.233 2.02l1.89 6.604c.941.086 1.952-.026 3.012-.278-.882.632-1.75 1.145-2.574 1.294l1.665 5.926 3.17.118 2.712-1.898-.657-1.247z"/><path fill="#e9e7fc" d="M57.838 100.1s-2.139 2.637-5.225 3.027l10.563 2.743s3.806-2.076 3.343-3.967c-.401-1.639-7.59-2.272-7.59-2.272l-1.091.469z"/><path fill="#4c5c75" d="m68.572 100.913-1.539 1.62-9.86-2.42-6.901-23.93 1.54-1.62 9.861 2.42z"/><path fill="#111d33" d="m51.813 74.565-1.539 1.615 6.895 23.936 1.539-1.615zM58.708 98.501l-1.539 1.615 9.863 2.417 1.539-1.616z"/><path fill="#4c5c75" d="m51.813 74.565 6.895 23.936 9.863 2.416-6.895-23.935z"/><path fill="#fff" d="M63.613 87.883c-.01.02-.03.05-.06.06l-1.65 1.73c-.43.44-1.26.49-2.31-.07a4.548 4.548 0 0 1-1.93-2c-.44-.9-.39-1.62 0-2.02l1.71-1.79c.3-.31.81-.42 1.45-.27 1.29.31 2.63 1.6 3.01 2.89.18.64.09 1.15-.22 1.47z"/><path fill="#9ea9c9" d="m63.617 87.886-1.715 1.782c-.427.443-1.263.492-2.308-.066a4.526 4.526 0 0 1-1.935-1.997c-.435-.899-.388-1.625-.001-2.026l1.714-1.782c-.386.401-.434 1.127.002 2.026a4.526 4.526 0 0 0 1.935 1.997c1.044.558 1.881.51 2.308.066z"/><path fill="#fff" d="M63.831 86.41c.471 1.618-.856 2.45-2.8 1.25a4.39 4.39 0 0 1-1.429-1.422c-1.125-1.827-.37-3.098 1.222-2.712 1.284.31 2.633 1.599 3.007 2.885z"/><path fill="#f4d6d4" d="M90.27 55.41s-4.002-4.385-5.24-2.345c-1.015 1.672 2.842 2.079 2.842 2.079l.786 3.313 1.81-1.19-.199-1.857z"/><path fill="#dedffb" d="m100.265 48.831-37.15 38.365c-.215.224-.577.308-1.034.197-.929-.225-1.893-1.151-2.159-2.065-.135-.464-.067-.836.151-1.063L97.223 45.9c-.219.227-.286.6-.151 1.063.266.914 1.23 1.84 2.158 2.065.458.11.82.027 1.035-.197z"/><path fill="#f3f1fc" d="M100.452 47.905c.16.734-.356 1.277-1.096 1.15-1.012-.176-2.106-1.232-2.319-2.229-.155-.725.364-1.271 1.096-1.147 1 .169 2.1 1.219 2.32 2.226z"/><path fill="#f5c9c6" d="M86.994 53.857c-1.021-.346-2.128.26-2.364 1.313-.29 1.3.086 3.67 2.862 4.557 4.115 1.315 1.452-3.64.431-5.159a1.823 1.823 0 0 0-.93-.711z"/><path fill="#f4d6d4" d="M110.57 67.46s-2.484.348-2.754 1.119c-.27.77 1.579.505 1.528.544-.05.04-4.24 1.402-1.917 3.543 2.22 2.046 5.02-2.603 5.02-2.603l-1.876-2.603z"/></svg>