<svg xmlns="http://www.w3.org/2000/svg" enable-background="new 0 0 51 51" viewBox="0 0 51 51"><g enable-background="new"><path fill="#DDB040" d="M40.77499 31.46429L14.45681 46.75875c-.41049.23855-.9786.20551-1.60445-.15582-1.24404-.71825-2.25257-2.46509-2.24852-3.89459l26.31818-15.29446c-.00405 1.4295 1.00449 3.17634 2.24852 3.89459C39.79639 31.6698 40.3645 31.70284 40.77499 31.46429zM41.0992 34.55654l-25.21714 14.6546c.76675-.44559 1.24286-1.39191 1.24667-2.73565l25.21714-14.6546C42.34206 33.16463 41.86595 34.11095 41.0992 34.55654z"/><polygon fill="#FFD651" points="8.654 19.16 34.972 3.866 36.985 5.028 10.667 20.322"/><polygon fill="#DDB040" points="10.667 20.322 36.985 5.028 36.922 27.414 10.604 42.708"/><polygon fill="#E9E8E6" points="15.057 16.563 33.773 5.687 33.698 32.091 14.982 42.967"/><polygon fill="#DDB040" points="17.192 24.09 42.409 9.435 42.346 31.821 17.129 46.475"/><path fill="#EFC348" d="M17.1922,24.08953l-0.06347,22.38596c-0.00767,2.70503-1.92931,3.79958-4.28293,2.44072
					c-2.3541-1.35914-4.26278-4.66513-4.25511-7.37016l0.06346-22.38596l2.01315,1.16229l-0.06346,22.38596
					c-0.00405,1.4295,1.00448,3.17634,2.24852,3.89459c1.24356,0.71797,2.25917,0.13977,2.26322-1.28973l0.06347-22.38596
					L17.1922,24.08953z"/><path fill="#FFD651" d="M17.16582,33.39318l-0.03709,13.08231c-0.00767,2.70503-1.92931,3.79958-4.28293,2.44072
					c-2.3541-1.35914-4.26278-4.66513-4.25511-7.37016l0.03709-13.08231l2.01315,1.16229l-0.03709,13.08231
					c-0.00405,1.4295,1.00448,3.17634,2.24852,3.89459c1.24356,0.71797,2.25917,0.13977,2.26322-1.28973l0.03709-13.08231
					L17.16582,33.39318z"/><path fill="#EFC348" d="M17.14615,40.78055l-0.01742,5.69493c-0.00767,2.70503-1.92931,3.79958-4.28293,2.44072
					c-2.3541-1.35914-4.26278-4.66513-4.25511-7.37016l0.01742-5.69494l2.01315,1.16229l-0.01742,5.69494
					c-0.00405,1.4295,1.00448,3.17634,2.24852,3.89459c1.24356,0.71797,2.25917,0.13977,2.26322-1.28973l0.01742-5.69494
					L17.14615,40.78055z"/><polygon fill="#FFD651" points="15.179 22.927 40.396 8.273 42.409 9.435 17.192 24.09"/><path fill="#E9E8E6" d="M15.71584,15.1175l18.7156-10.87632c-0.40517,0.23546-0.6567,0.73558-0.65871,1.44573l-18.7156,10.87632
					C15.05913,15.85309,15.31067,15.35296,15.71584,15.1175z"/><polygon fill="#E9E8E6" points="21.582 20.33 40.298 9.454 40.223 30.063 21.507 40.939"/><path fill="#D6D4D2" d="M14.29057,12.66512L33.00617,1.7888c0.7767-0.45137,1.85169-0.38884,3.03632,0.2951l-18.7156,10.87632
					C16.14227,12.27628,15.06727,12.21375,14.29057,12.66512z"/><path fill="#E9E8E6" d="M21.41661,18.93793c0.09851,0.47632,0.16669,0.94641,0.16541,1.39246L40.29759,9.45405
					c0.00128-0.44604-0.06689-0.91602-0.16541-1.39258L21.41661,18.93793z"/><path fill="#E9E8E6" d="M39.05723,5.26337c-0.8042-1.39233-1.87463-2.52124-3.01477-3.17944L17.32689,12.96015
					c1.14008,0.6582,2.21057,1.78723,3.01471,3.17957c0.52985,0.91809,0.88409,1.87488,1.07501,2.79822L40.13218,8.06147
					C39.94127,7.13813,39.58702,6.18147,39.05723,5.26337z"/><path fill="#D6D4D2" d="M36.04263,2.08418L17.32704,12.96029c0.23599,0.13624,0.46874,0.29375,0.69707,0.46856L36.7397,2.55273
					C36.51137,2.37793,36.27862,2.22042,36.04263,2.08418z"/><path fill="#E9E8E6" d="M36.7397,2.55273L18.02412,13.42884c0.87435,0.66938,1.67993,1.60686,2.31715,2.7107l18.71559-10.8761
					C38.41965,4.15959,37.61408,3.22211,36.7397,2.55273z"/><g><path fill="#C4C2C0" d="M17.32689,12.96022c1.14009,0.65823,2.21055,1.7872,3.01472,3.17952
					c0.80322,1.39177,1.24413,2.88005,1.24041,4.19065l-0.07486,20.60895l-2.01316-1.1623l0.07485-20.60896
					c0.00196-0.69256-0.23127-1.47919-0.65569-2.21487c-0.42489-0.7354-0.99059-1.33201-1.59283-1.67972
					c-1.24404-0.71825-2.25915-0.13976-2.26321,1.28974l-0.07485,26.40379c-0.00964,0.00036-0.01926,0.00068-0.02885,0.00096
					c-1.08986,0.03215-1.98518-0.85614-1.98209-1.94647l0.07263-25.62058C13.05163,12.6959,14.9728,11.60109,17.32689,12.96022z"/></g></g><polygon fill="#A2A4A5" points="31.36 30.38 31.366 32.268 23.035 37.078 23.03 35.19"/><polygon fill="#A2A4A5" points="31.348 25.398 31.354 27.286 23.023 32.095 23.018 30.208"/><g enable-background="new"><polygon fill="#6DCB60" points="38.551 21.24 38.551 28.103 33.224 31.178 33.207 24.325"/><polygon fill="#A2A4A5" points="38.806 16.103 38.811 17.991 23.011 27.113 23.006 25.225"/><polygon fill="#A2A4A5" points="38.794 11.12 38.799 13.008 22.999 22.13 22.994 20.243"/></g><polygon fill="#B6B9BA" points="31.641 22.13 38.811 17.991 38.806 16.103 31.641 20.24"/><polygon fill="#B6B9BA" points="31.641 17.147 38.811 13.008 38.806 11.12 31.641 15.257"/></svg>