<svg xmlns="http://www.w3.org/2000/svg" enable-background="new 0 0 51 51" viewBox="0 0 51 51"><g enable-background="new"><polygon fill="#6D797A" points="31.215 34.014 41.197 27.885 41.138 43.371 31.157 49.5"/><polygon fill="#8D9799" points="17.173 14.01 27.155 7.88 41.197 27.885 31.215 34.014"/><polygon fill="#A0A8AA" points="20.324 18.499 30.306 12.369 41.197 27.885 31.215 34.014"/><polygon fill="#7E8A8C" points="25.339 25.643 35.321 19.514 41.197 27.885 31.215 34.014"/><polygon fill="#7E8A8C" points="41.197 27.885 31.215 34.014 26.626 27.477 36.608 21.347"/><polygon fill="#7C8283" points="17.173 14.01 31.215 34.014 31.157 49.5 9.803 37.164 9.887 9.797"/><g><polygon fill="#A0A8AA" points="9.887 9.797 19.869 3.668 27.155 7.88 17.173 14.01"/><polygon fill="#8D9799" points="9.887 9.797 19.869 3.668 23.434 5.729 13.453 11.859"/><polygon fill="#6D797A" points="38.492 26.886 31.434 31.264 18.686 13.102 13.259 9.965 20.318 5.587 25.745 8.724"/><polygon fill="#21201F" points="13.916 9.955 18.919 12.847 20.324 14.849 20.324 5.98"/><polygon fill="#434240" points="38.01 26.787 25.512 8.979 20.324 5.98 20.324 14.849 31.527 30.808"/><g><polygon fill="#21201F" points="38.011 26.787 37.078 27.365 35.882 28.107 34.655 28.868 33.459 29.61 33.235 29.749 32.231 30.372 31.527 30.809 31.038 30.111 29.104 27.357 20.912 15.685 20.325 14.849 18.919 12.847 18.498 12.603 16.082 11.206 13.916 9.955 16.088 8.608 18.512 7.104 19.091 6.745 20.248 6.028 20.325 5.981 20.935 6.333 25.512 8.979 25.626 9.142 27.266 11.479 31.07 16.898 32.261 18.594 33.483 20.335 34.672 22.03 35.894 23.77 37.084 25.466"/></g></g></g><path fill="#A0A8AA" d="M19.98653,5.29259"/><g><g enable-background="new"><polygon fill="#2C9A2C" points="37.122 10.174 37.084 25.466 37.078 27.365 35.882 28.107 35.894 23.77 35.926 10.869"/><polygon fill="#6DCB60" points="37.105 17.144 37.084 25.466 37.078 27.365 35.882 28.107 35.894 23.77 35.909 17.839"/><polygon fill="#81D672" points="35.926 10.869 37.122 10.174 22.141 1.5 20.945 2.195"/><polygon fill="#3DB542" points="35.926 10.869 35.894 23.77 35.882 28.107 34.655 28.868 33.459 29.61 33.459 29.61 33.235 29.749 32.234 29.169 31.041 28.479 29.104 27.357 20.912 15.685 20.931 7.811 20.934 6.425 20.935 6.333 20.939 5.003 20.942 3.618 20.945 2.195"/></g><g enable-background="new"><polygon fill="#B2B0AF" points="34.699 11.583 34.672 22.03 34.655 28.868 33.459 29.61 33.483 20.335 33.503 12.278"/><polygon fill="#D6D4D2" points="34.681 18.446 34.655 28.868 33.459 29.61 33.486 19.141"/><polygon fill="#E9E8E6" points="33.502 12.278 34.698 11.583 19.717 2.909 18.521 3.604"/><polygon fill="#C4C2C0" points="33.503 12.278 33.483 20.335 33.459 29.61 33.459 29.61 33.235 29.749 32.231 30.372 31.527 30.809 31.038 30.111 29.104 27.357 20.912 15.685 20.325 14.849 18.919 12.847 18.498 12.603 18.512 7.104 18.514 6.412 18.517 5.026 18.521 3.603 20.939 5.003"/></g><g enable-background="new"><polygon fill="#0074D1" points="32.274 12.991 32.261 18.594 32.234 29.169 32.231 30.372 31.527 30.809 31.038 30.111 31.041 28.479 31.07 16.898 31.078 13.687"/><polygon fill="#B5E5F4" points="32.257 19.807 32.234 29.169 32.231 30.372 31.527 30.809 31.038 30.111 31.041 28.479 31.061 20.503"/><polygon fill="#B5E5F4" points="31.079 13.686 32.275 12.991 17.293 4.317 16.097 5.012"/><polygon fill="#0074D1" points="31.079 13.686 32.275 12.991 20.945 6.431 19.749 7.126"/><polygon fill="#3F9AE0" points="31.079 13.686 32.275 12.991 28.248 10.66 27.052 11.355"/><polygon fill="#D6D4D2" points="33.502 12.278 34.698 11.583 23.368 5.023 22.172 5.718"/><polygon fill="#E9E8E6" points="33.502 12.278 34.698 11.583 30.671 9.252 29.475 9.947"/><polygon fill="#6DCB60" points="35.926 10.869 37.122 10.174 25.793 3.614 24.597 4.309"/><polygon fill="#81D672" points="35.926 10.869 37.122 10.174 33.096 7.843 31.9 8.538"/><polygon fill="#82C6E0" points="31.078 13.687 31.07 16.898 31.041 28.479 31.038 30.111 29.104 27.357 20.912 15.685 20.325 14.849 18.919 12.847 18.498 12.603 16.082 11.206 16.088 8.608 16.097 5.012 18.514 6.412 19.091 6.745 20.931 7.811 27.266 11.479"/></g></g><path fill="#FFF" d="M33.68585,34.42168c-1.38536,0-2.52921,1.10931-2.52921,2.52921c0-1.39257-1.13658-2.52921-2.52915-2.52921
		c1.40346,0,2.52915-1.13635,2.52915-2.52915C31.15664,33.2951,32.28121,34.42168,33.68585,34.42168z"/></svg>