<svg xmlns="http://www.w3.org/2000/svg" viewBox="0 0 132 132" xml:space="preserve"><path fill="#ffde9b" d="M52.469 20.134 34.168 30.775l-7.449-.387L48.416 17.78z"/><path fill="#febc1f" d="m52.485 20.133-.03 8.4-32.41 18.82-.08 30.64c-.02 1.96-1.2 2.93-2.79 2.45a4.39 4.39 0 0 1-.85-.37c-2-1.16-3.6-3.96-3.6-6.24l.07-37.49v-.01l-4.09-2.35 12.55-7.25 4.08 2.35v.01l1.38 1.29 7.45.39 18.3-10.64h.02z"/><path fill="#febc1f" d="m52.483 20.134-.028 8.399-32.408 18.82-.083 30.641c-.014 1.964-1.198 2.925-2.786 2.452a4.075 4.075 0 0 1-.85-.377c-2.005-1.156-3.607-3.955-3.607-6.24l.098-30.64-.014-4.709-.014-2.144h.014l12.535-7.243 1.379 1.295 7.449.387 18.301-10.641h.014z"/><path fill="#ffd06c" d="m12.801 36.341 12.535-7.256-4.081-2.354-12.549 7.256 4.095 2.354z"/><path fill="#e9e7fc" d="m58.085 54.973-40.59 23.45-2.52-1.45-.15-56.24 32.42-18.73 2.52 1.44.03 9.59 8.16-4.71z"/><path fill="#dedffb" d="m14.827 20.733 2.521 1.446.151 56.241-2.521-1.447z"/><path fill="#e9e7fc" d="m47.247 2 2.521 1.447-32.42 18.732-2.521-1.446z"/><path fill="#f3f1fc" d="m49.768 3.447.028 9.59 8.162-4.713.124 46.65L17.499 78.42l-.151-56.241z"/><path fill="#fff" d="M18.86 23.049 48.266 6.057l.027 9.59 8.163-4.713.114 43.17-37.568 21.705z"/><path fill="#dedffb" d="m49.768 3.447 8.2 4.86-8.172 4.719zM28.567 19.671l.026 9.426-8.192 4.73-.027-9.426zM46.796 9.752 29.981 19.46l.004 1.289 16.811-9.705z"/><path fill="#f45170" d="m42.729 15.739-12.737 7.354.003 1.289 12.734-7.352z"/><path fill="#dedffb" d="m46.796 17.03-16.794 9.696.004 1.289 16.79-9.693zM55.095 15.868 20.374 35.914l.004 1.289 34.717-20.044z"/><path fill="#78e75a" d="M55.095 19.497 20.374 39.543l.004 1.289 34.717-20.044z"/><path fill="#dedffb" d="M55.095 23.126 20.374 43.172l.004 1.29 34.717-20.045zM55.095 26.755 20.374 46.801l.004 1.29 34.717-20.044z"/><path fill="#febc1f" d="M63.685 57.303c-.02 2.42-.88 4.1-2.25 4.9l-39.66 23.06c.02-.01.05-.03.07-.05-1.4.86-3.36.77-5.53-.48-4.24-2.46-7.68-8.4-7.67-13.25l.09-30.66-.03-6.84 4.1 2.36.01 6.85-.01-.01-.09 30.64c0 2.28 1.6 5.08 3.61 6.24 1.99 1.14 3.62.22 3.63-2.08l.09-30.62v-.01l26.36-15.31 2.03-7.02c.13-.73.63-1.45 1.19-1.78l7.65-4.4c.33-.21.66-.22.89-.1l4 2.33a.356.356 0 0 0-.11-.04c.2.07.35.24.42.52l.2 6.01 1.01 29.74z"/><path fill="#ffd06c" d="m62.166 27.58-9.725 5.646L24.1 49.693l-4.053-2.34 32.408-18.82 7.257-4.221z"/><path fill="#f9a83d" d="M19.96 77.987c-.014 2.299-1.644 3.218-3.635 2.076-2.006-1.156-3.608-3.956-3.608-6.24l.084-30.643.014.014-.014-6.853-4.095-2.354.028 6.84-.084 30.656c-.014 4.847 3.426 10.794 7.66 13.246 4.235 2.437 7.675.473 7.703-4.388l.084-30.642-4.054-2.34-.083 30.628z"/><path fill="#ffde9b" d="M62.166 21.07c-.244-.122-.558-.105-.89.105l-7.645 4.398c-.558.331-1.064 1.047-1.186 1.78L50.41 34.42l-4.005-2.374 2.035-7.022c.122-.733.628-1.449 1.187-1.78l7.644-4.398c.332-.21.663-.227.89-.105l4.005 2.329z"/><path fill="#febc1f" d="M63.683 57.3c-.018 2.427-.873 4.102-2.252 4.905L21.778 85.261c1.378-.803 2.234-2.496 2.234-4.922l.087-30.648L50.4 34.419l2.042-7.068c.122-.716.628-1.449 1.187-1.78l7.644-4.399c.559-.331 1.065-.192 1.205.384l1.204 35.745z"/><path fill="#497bfe" d="m80.275 28.233-35.74 33.9-.9-.53c-.36-.2-.59-.63-.59-1.3l-.04-9.95c-.03-1.29.9-2.88 2.02-3.54l32.9-18.99c.56-.33 1.06-.33 1.42-.13l.93.54z"/><path fill="#57b3fe" d="M78.84 28.368c1.122-.647 2.034-.102 2.038 1.186l.037 9.957c.004 1.289-.903 2.859-2.024 3.506l-32.89 18.99c-1.122.647-2.055.14-2.059-1.149l-.038-9.958c-.003-1.288.924-2.895 2.046-3.542l32.89-18.99z"/><path fill="#fff" d="M54.084 51.278c0 .104-.026.235-.078.382-.139.321-.312.53-.538.66a.545.545 0 0 1-.26.086c-.017 0-.078 0-1.319-.45.252 1.683.252 1.743.252 1.77 0 .182-.061.381-.183.572-.121.2-.251.347-.416.443-.156.086-.295.104-.417.043-.121-.06-.182-.182-.182-.365 0-.026 0-.095.243-2.056-1.24 1.883-1.293 1.935-1.319 1.97a1.019 1.019 0 0 1-.26.217c-.217.121-.4.121-.53-.035a.565.565 0 0 1-.086-.321c0-.252.104-.512.286-.72l1.562-1.597-1.553.191c-.208-.009-.295-.156-.304-.408 0-.13.035-.278.078-.408.14-.312.304-.52.52-.65a.5.5 0 0 1 .287-.07c.018.009.061 0 1.32.451-.261-1.683-.261-1.744-.261-1.77 0-.173.06-.373.182-.572.122-.2.269-.356.425-.443.148-.087.295-.104.408-.043.122.06.182.182.182.373 0 .017 0 .078-.234 2.048 1.232-1.883 1.293-1.944 1.31-1.97a.878.878 0 0 1 .278-.252c.208-.121.382-.104.52.044.053.095.079.2.079.295 0 .26-.087.52-.27.763l-1.579 1.614 1.562-.208c.2.017.295.156.295.416zm7.254-4.19c0 .103-.026.242-.078.39-.139.312-.312.52-.538.66a.915.915 0 0 1-.26.086c-.026-.009-.07-.009-1.328-.451.226 1.466.26 1.718.26 1.761 0 .191-.06.382-.182.582-.121.19-.26.347-.416.433-.165.096-.304.105-.417.044-.121-.052-.182-.182-.182-.365 0-.026 0-.086.243-2.056-1.25 1.892-1.293 1.944-1.319 1.97a.99.99 0 0 1-.26.217c-.226.13-.4.13-.538-.026a.566.566 0 0 1-.078-.321c0-.26.095-.504.278-.72l1.561-1.606-1.553.2c-.2-.018-.295-.157-.295-.408 0-.148.026-.278.078-.408.13-.312.304-.53.521-.65a.429.429 0 0 1 .278-.07c.017 0 .069 0 1.319.442-.252-1.674-.252-1.735-.252-1.761 0-.191.06-.382.182-.581.113-.191.26-.348.417-.434.147-.078.295-.104.416-.044.122.052.182.182.182.365 0 .043-.026.32-.243 2.056 1.241-1.891 1.293-1.943 1.31-1.97a1.06 1.06 0 0 1 .287-.26c.208-.121.382-.104.512.052a.53.53 0 0 1 .087.295c0 .26-.096.512-.278.764l-1.57 1.605 1.561-.2c.191.018.295.157.295.408zm7.246-4.183c0 .104-.026.234-.078.39-.13.313-.313.521-.538.651a.544.544 0 0 1-.26.087c-.018-.009-.07 0-1.32-.451.217 1.475.252 1.727.252 1.77 0 .182-.06.382-.182.573-.113.2-.26.347-.408.442-.165.087-.304.104-.425.044-.113-.061-.182-.183-.182-.374 0-.017 0-.086.243-2.047-1.241 1.883-1.293 1.935-1.32 1.97a.869.869 0 0 1-.26.216c-.217.13-.399.122-.529-.034-.06-.07-.087-.174-.087-.322 0-.26.104-.503.287-.72l1.561-1.596-1.561.2c-.2-.018-.295-.157-.295-.417 0-.139.026-.27.086-.408.13-.312.304-.53.512-.65a.491.491 0 0 1 .287-.062c.026 0 .112.01 1.319.443-.252-1.683-.252-1.744-.252-1.77 0-.182.06-.382.173-.573.122-.2.27-.347.417-.434.147-.086.304-.104.416-.052.122.061.191.182.191.365 0 .052-.034.33-.251 2.056 1.25-1.883 1.293-1.935 1.319-1.97a.88.88 0 0 1 .277-.251c.217-.122.39-.104.512.052.061.087.087.19.087.295 0 .26-.095.512-.278.755l-1.562 1.614 1.562-.209c.191.018.287.165.287.417zm7.254-4.191c0 .113-.026.243-.078.39-.13.313-.313.53-.538.651a.487.487 0 0 1-.26.087c-.027 0-.07 0-1.32-.443.252 1.684.252 1.736.252 1.762 0 .19-.06.382-.182.581-.113.191-.26.347-.417.434-.156.096-.295.104-.416.044-.122-.053-.182-.183-.182-.365 0-.026 0-.087.243-2.048-1.25 1.883-1.293 1.935-1.32 1.97a.984.984 0 0 1-.26.208c-.217.13-.407.13-.529-.026-.06-.078-.087-.182-.087-.32 0-.253.096-.513.287-.721l1.553-1.597-1.553.191c-.2-.008-.295-.156-.295-.408 0-.13.026-.277.078-.407.13-.313.312-.53.52-.651a.49.49 0 0 1 .278-.07c.017.01.07 0 1.319.443-.252-1.675-.252-1.744-.252-1.762 0-.182.061-.373.182-.58.113-.192.27-.348.417-.435.148-.086.295-.104.417-.043.121.052.182.182.182.364 0 .026 0 .078-.243 2.057 1.24-1.883 1.293-1.944 1.319-1.979a.871.871 0 0 1 .277-.243c.209-.121.382-.112.512.044a.53.53 0 0 1 .087.295c0 .26-.095.512-.278.763l-1.561 1.606 1.553-.2c.2.018.295.156.295.408z"/><path fill="#f4d6d4" d="M87.498 42.495s-2.88 2.131-2.755 4.585c.005.092.024.185.051.274l1.663 5.482 3.942-1.625-.511-4.843-2.39-3.873z"/><path fill="#e3e7f0" d="m92.465 36.573-.94 17.23-.49.02c-.21 0-.42-.15-.51-.41l-4.61-12.62c-.13-.35-.01-.76.26-.91l5.58-3.23a.42.42 0 0 1 .21-.06l.5-.02z"/><path fill="#1d2943" d="M92.264 36.637c.27-.156.592-.001.72.347l4.606 12.62c.127.348.01.756-.26.912l-5.584 3.225c-.271.156-.593 0-.72-.347l-4.607-12.62c-.127-.348-.01-.756.26-.913l5.585-3.224z"/><path fill="#fff" d="M92.406 37.03c.11-.064.244 0 .296.142l4.417 12.102c.052.143.004.312-.107.376l-5.584 3.224c-.111.064-.244 0-.297-.143L86.714 40.63c-.052-.143-.004-.312.107-.376l5.585-3.224z"/><path fill="#5ec363" d="M102.355 128.47a2.83 2.83 0 0 1-.069.423c-.068.27-.194.521-.417.676a1.354 1.354 0 0 1-.418.177 6.83 6.83 0 0 1-2.015.252c-1.47-.046-2.884-.578-4.32-.882a16.987 16.987 0 0 1-1.907-.503 4.318 4.318 0 0 1-.772-.32c-.756-.424-1.334-1.094-1.471-1.947a1.508 1.508 0 0 1 .028-.555.884.884 0 0 1 .2-.337c.052-.058.11-.115.167-.166.183-.166.406-.287.64-.361.876-.292 1.746-.097 2.622-.04a16.39 16.39 0 0 0 1.591-.012c.423-.011.847-.028 1.26-.12.755-.16 1.441-.555 2.145-.875.395-.178.807-.332 1.23-.407.287-.051.762-.131 1.031.029.275.166.258.652.292.927.017.16.046.31.057.47l.138 2.3c.028.424.028.853-.012 1.27z"/><path fill="#78e75a" d="M102.355 128.47a2.83 2.83 0 0 1-.069.423c-.005.006-.017.012-.022.017a1.34 1.34 0 0 1-.418.172 6.47 6.47 0 0 1-2.015.252c-1.47-.046-2.884-.578-4.321-.881a18.292 18.292 0 0 1-1.906-.498 4.408 4.408 0 0 1-.772-.327c-.756-.423-1.334-1.093-1.477-1.946a1.535 1.535 0 0 1 .006-.394c.183-.166.406-.287.64-.361.876-.292 1.746-.097 2.622-.04a16.39 16.39 0 0 0 1.591-.012c.423-.011.847-.028 1.26-.12.755-.16 1.441-.555 2.145-.875.395-.178.807-.332 1.23-.407.287-.051.762-.131 1.031.029.275.166.258.652.292.927.017.16.046.31.057.47l.138 2.3c.028.424.028.853-.012 1.27z"/><path fill="#5ec363" d="M116.76 118.229c.074.678.193 1.74.256 2.419.014.147.028.295.021.435a1.4 1.4 0 0 1-.068.542c-.078.226-.23.409-.393.573a2.61 2.61 0 0 1-1.929.717c-.49-.033-.963-.207-1.417-.393-2.144-1.368-4.103-3.092-5.91-5.107a2.194 2.194 0 0 1-.359-2.34 2.2 2.2 0 0 1 1.83-1.343c.335-.031.677.016 1.017.143l6.733 2.646c.249.434.173 1.215.219 1.708z"/><path fill="#78e75a" d="M116.76 118.229c.074.678.193 1.74.256 2.419.014.147.028.295.021.435a1.97 1.97 0 0 1-.284.354 2.61 2.61 0 0 1-1.93.717c-.489-.034-.962-.208-1.416-.394-2.144-1.368-4.103-3.091-5.91-5.106a2.127 2.127 0 0 1-.536-1.579 2.2 2.2 0 0 1 1.83-1.343c.335-.031.677.016 1.017.143l6.733 2.646c.249.434.173 1.215.219 1.708z"/><path fill="#4c5c75" d="M115.225 97.394c.023 5.19 1.565 20.701 1.565 20.701-.365 1.005-1.927 1.09-3.35.646-1.15-.358-2.21-1.064-2.478-1.91-2.513-13.125-3.626-23.024-2.894-32.352-2.148 4.717-3.32 10.286-4.378 17.634-.804 5.583-1.491 22.514-1.491 22.514-.033.54-1.596.862-3.072.898-1.348.034-2.624-.169-2.596-.66 0 0-.376-18.444-.333-24.592.042-5.726.617-22.407.665-23.814l.003-.094 5.707-1.94 14.285-1.43-.11 1.221c-.367 4.193-1.546 18.018-1.523 23.178z"/><path fill="#455368" d="M116.79 118.095c-.365 1.005-1.927 1.09-3.35.646l-1.229-21.318c-.056-.983-.042-1.97.042-2.952l1.378-16.014c.009-.096-.11-.145-.173-.073-3.34 3.757-8.277 2.751-12.986 2.671-1.686-.029-2.205 32.412-1.345 44.47-1.348.034-2.624-.169-2.596-.66 0 0-.376-18.444-.333-24.592.042-5.726.617-22.407.665-23.814 2.852-1.28 7.944-1.715 10.026-2.345 2.093-.632 7.043-.25 9.86.102-.368 4.193-1.547 18.018-1.524 23.178.023 5.19 1.565 20.701 1.565 20.701z"/><path fill="#455368" d="m108.067 84.493 1.237-2.458-1.438 10.012a85.323 85.323 0 0 1 .04-4.95l.161-2.604z"/><path fill="#e9e7fc" d="m114.77 47.135 3.981-5.239c.46-.297 10.672-.203-.886 21.042l-3.095-15.803z"/><path fill="#f3f1fc" d="M117.24 41.96c-5.244 1.15-14.205 3.729-18.684 8.564l-.522 17.435-1.565 9.892c.74 4.621 21.35 1.6 20.61-3.022l-.222-2.519a23.944 23.944 0 0 1 2.218-12.307c2.385-5.06 3.47-9.865 3.1-14.386-.208-2.562-2.424-4.209-4.935-3.658z"/><path fill="#f45170" d="m92.479 38.436-4.857 2.805-.116-.318 4.857-2.804z"/><path fill="#fff" d="m92.912 39.623-4.857 2.805-.116-.317 4.857-2.805z"/><path fill="#78e75a" d="m93.345 40.811-4.857 2.804-.116-.317 4.858-2.804z"/><path fill="#fff" d="m93.779 41.998-4.857 2.805-.116-.317 4.857-2.805z"/><path fill="#ffd06c" d="m94.212 43.186-4.857 2.804-.116-.317 4.857-2.805z"/><path fill="#fff" d="m94.646 44.373-4.857 2.805-.116-.317 4.857-2.805z"/><path fill="#f4d6d4" d="m90.4 51.21.004-1.486c.003-.7.065-1.395.193-2.082.07-.382.126-.843.089-1.238-.058-.612-.697-.987-1.245-.707-.52.267-1.259 1.958-.957 3.796-.173 1.747-.052 3.07 1.915 1.718z"/><path fill="#b0b8cf" d="m85.9 52.682 5.316-.113-.214-2.4c-.162-1.01-5.297-.112-5.136.897 0 0 0 .617.033 1.616z"/><path fill="#dedffb" d="M104.121 56.22c-2.716 4.211-10.114 14.755-13.469 13.956-4.752-1.13-4.99-18.365-4.99-18.365-.076-.48.946-.933 2.133-1.2 1.515-.339 3.296-.372 3.394.24l.791 8.898a.2.2 0 0 0 .37.086l4.95-8.072a4.059 4.059 0 0 1 3.397-1.82c1.063 0 2.132.411 2.942 1.258a4.069 4.069 0 0 1 .482 5.018z"/><path fill="#e9e7fc" d="M104.49 52.534c-3.066 4.714-9.687 14.48-12.825 13.733-3.524-.838-3.907-10.64-3.87-15.655 1.515-.34 3.296-.373 3.394.239l.791 8.898a.2.2 0 0 0 .37.086l4.95-8.072a4.059 4.059 0 0 1 3.397-1.82c1.063 0 2.132.411 2.942 1.258.377.394.661.849.851 1.333z"/><path fill="#f4d6d4" d="M100.465 28.247s-2 7.234.572 12.522c.37.76 1.198 1.184 2.023 1.002l1.758-.389a.476.476 0 0 1 .58.41c.127 1.233.13 2.646.068 4.153l8.765-3.962-1.452-2.528-5.05-6.16-4.236-5.94-3.028.892z"/><path fill="#dedffb" d="M105.504 43.866c-.096 1.362-1.672 2.685-2.374 3.145 5.132.406 8.387-.717 11.78-3.347a.684.684 0 0 0 .193-.832c-.31-.658-.727-1.137-1.233-1.468-2.284 1.843-4.866 2.466-8.366 2.502z"/><path fill="#4c5c75" d="M109.952 39.245c-.996-3.46-3.3-4.686-5.659-4.084-.482.123-.924-.26-.838-.75.242-1.373.17-2.705-.346-3.979-.18-.445-.587-.773-1.065-.81-2.323-.176-3.15-1.065-3.134-2.358.006-.496.348-1.143.766-1.41 2.494-1.594 5.471-2.378 8.93-2.359 1.834.01 4.402 1.015 5.528 2.464.972 1.25 1.487 2.852 1.465 4.866-.015 1.43-.357 2.839-.862 4.177l-1.787 4.735-1.544.367a1.224 1.224 0 0 1-1.454-.859z"/><path fill="#eee" d="M92.871 46.897c.228-.132.493-.02.594.253.05.136.048.283.006.415l.643.935-1.075.62-.148-1.22a.465.465 0 0 1-.248-.276c-.1-.273.004-.598.228-.727z"/><path fill="#f45170" d="M92.445 45.729c.975-.563 2.116-.067 2.545 1.1.433 1.174-.006 2.582-.98 3.145-.979.565-2.12.068-2.553-1.106-.43-1.166.01-2.574.988-3.14zm.594 3.391 1.075-.62-.643-.935a.644.644 0 0 0-.006-.415c-.1-.274-.366-.385-.594-.253-.224.13-.329.454-.228.727.05.137.14.23.248.276l.148 1.22"/></svg>