<svg xmlns="http://www.w3.org/2000/svg" enable-background="new 0 0 51 51" viewBox="0 0 51 51"><path fill="#DDB040" d="M40.78651,30.40526L12.59288,46.78961c-0.31175,0.18117-0.74325,0.15594-1.21859-0.1185
							c-0.94436-0.54522-1.71065-1.87134-1.70757-2.95765l28.19363-16.38435c-0.00308,1.08631,0.76321,2.41242,1.70757,2.95765
							C40.04326,30.5612,40.47476,30.58643,40.78651,30.40526z"/><polygon fill="#DDB040" points="9.731 19.926 37.924 3.542 37.86 27.329 9.667 43.713"/><polygon fill="#FFE2A9" points="7.713 18.761 35.906 2.377 37.924 3.542 9.731 19.926"/><polygon fill="#FFE2A9" points="10.963 17.855 8.945 16.69 34.666 1.67 36.684 2.835"/><polygon fill="#FFD651" points="8.945 16.72 30.116 4.417 32.134 5.582 10.963 17.885"/><g enable-background="new"><polygon fill="#E9E8E6" points="13.105 45.312 11.032 44.108 10.972 22.007 13.045 23.211"/><polygon fill="#FFF" points="13.045 23.211 10.972 22.007 37.924 6.458 39.997 7.662"/><polygon fill="#E9E8E6" points="13.045 23.211 10.972 22.007 32.765 9.445 34.838 10.649"/><polygon fill="#C4C2C0" points="13.045 23.211 10.948 21.987 21.52 15.922 23.617 17.146"/><polygon fill="#D6D4D2" points="39.997 7.662 40.057 29.764 13.105 45.312 13.045 23.211"/></g><path fill="#DDB040" d="M42.21492,32.8632L14.02129,49.24755c0.67015-0.38945,1.08626-1.21656,1.08959-2.3909L43.3045,30.4723
							C43.30117,31.64663,42.88507,32.47375,42.21492,32.8632z"/><polygon fill="#DDB040" points="15.158 31.107 43.351 14.723 43.304 30.472 15.111 46.857"/><polygon fill="#FFE2A9" points="13.14 29.942 41.333 13.558 43.351 14.723 15.158 31.107"/><polygon fill="#FFD651" points="13.14 29.942 35.133 17.161 37.151 18.326 15.158 31.107"/><polygon fill="#EFC348" points="13.14 29.942 24.655 23.25 26.673 24.415 15.158 31.107"/><path fill="#CEA03A" d="M9.73054,19.92592L9.66672,43.71346c-0.00308,1.08631,0.76322,2.41242,1.70757,2.95765
							c0.94435,0.54522,1.71566,0.10684,1.71874-0.97947l0.04665-15.74919l2.01785,1.16501l-0.04665,15.74918
							c-0.0067,2.36389-1.68596,3.32085-3.74316,2.13313c-2.0572-1.18773-3.72555-4.07743-3.71885-6.44131l0.06382-23.78754
							L9.73054,19.92592z"/><g><g enable-background="new"><path fill="#FFE2A9" d="M25.85651,18.67448l2.01776,1.16526c-0.22488-0.13069-0.53633-0.11225-0.88003,0.08619
							l-2.01777-1.16526C25.32018,18.56223,25.63163,18.54379,25.85651,18.67448z"/><polygon fill="#CEA03A" points="15.148 31.108 13.13 29.942 13.12 27.029 15.138 28.194"/><polygon fill="#FFD651" points="16.37 26.06 14.352 24.894 24.976 18.761 26.994 19.926"/><path fill="#CEA03A" d="M15.13761,28.19424l-2.01777-1.16526c-0.00222-0.78462,0.54975-1.74029,1.23258-2.13452
							l2.01776,1.16526C15.68736,26.45395,15.13539,27.40961,15.13761,28.19424z"/><path fill="#DDB040" d="M26.99425,19.92592c0.68283-0.39423,1.23841-0.07802,1.24063,0.70661l0.01053,2.91348
							l-13.09727,7.56171l-0.01053-2.91348c-0.00222-0.78462,0.54975-1.74029,1.23258-2.13452L26.99425,19.92592z"/></g></g><g><g enable-background="new"><path fill="#FFE2A9" d="M35.54577,1.58345l2.01777,1.16526c-0.22488-0.13069-0.53634-0.11225-0.88003,0.08619
							l-2.01777-1.16526C35.00944,1.47121,35.32089,1.45277,35.54577,1.58345z"/><polygon fill="#CEA03A" points="9.741 22.903 7.723 21.738 7.713 18.824 9.73 19.989"/><path fill="#CEA03A" d="M9.73046,19.98942L7.7127,18.82417c-0.00222-0.78462,0.54975-1.74029,1.23258-2.13452l2.01776,1.16526
							C10.28021,18.24914,9.72824,19.2048,9.73046,19.98942z"/><path fill="#DDB040" d="M37.92417,3.54157L9.7303,19.98958c-0.00214-0.78501,0.54972-1.74059,1.23259-2.1347L36.68357,2.83464
							C37.36644,2.44053,37.92204,2.7571,37.92417,3.54157z"/></g></g><g enable-background="new"><path fill="#E86D6D" d="M32.18835,24.96141l1.81442,1.05443c-0.95717-0.55625-2.28285-0.47761-3.7464,0.36737l-1.81443-1.05443
					C29.90549,24.48381,31.23117,24.40516,32.18835,24.96141z"/><path fill="#FC7E7E" d="M26.54791,38.84795l-1.81443-1.05442c-0.94539-0.54941-1.53173-1.71764-1.53643-3.37713
					c-0.00948-3.34197,2.33918-7.41,5.24489-9.08761l1.81443,1.05443c-2.90571,1.67761-5.25436,5.74564-5.24489,9.08761
					C25.01619,37.13031,25.60252,38.29854,26.54791,38.84795z"/><path fill="#B75151" d="M26.52614,38.8189l-1.77156-1.01674c-0.93826-0.58614-1.5244-1.7001-1.58309-3.40056l1.8306,1.07542
					C25.0021,37.1188,25.58824,38.29144,26.52614,38.8189z"/><path fill="#CC5C5C" d="M30.25637,26.38321c2.90842-1.67918,5.27239-0.33199,5.28187,3.00998
					c0.00947,3.33891-2.33915,7.40997-5.24757,9.08915c-2.90571,1.67761-5.26973,0.32738-5.27919-3.01152
					C25.00201,32.12885,27.35066,28.06082,30.25637,26.38321z"/></g><g><polygon fill="#FFF" points="29.416 28.554 31.129 27.565 31.134 29.68 30.782 34.366 29.803 34.931 29.421 30.669"/><path fill="#FFF" d="M30.30162,35.38786c0.21387-0.12348,0.39865-0.14133,0.55351-0.05308
					c0.15487,0.08856,0.23292,0.25557,0.23361,0.50164c0.0007,0.24607-0.07615,0.50251-0.22974,0.76885
					c-0.15413,0.26664-0.33813,0.46202-0.55228,0.58566s-0.39865,0.14133-0.55352,0.05309
					c-0.15486-0.08825-0.23291-0.25526-0.23361-0.50165c-0.0007-0.24607,0.07588-0.50235,0.23001-0.769
					C29.9032,35.70704,30.08747,35.5115,30.30162,35.38786z"/></g><path fill="#FFF" d="M19.42082,28.0568c-1.67099,0-3.05067,1.33802-3.05067,3.05067c0-1.67968-1.37091-3.05067-3.05059-3.05067
		c1.69282,0,3.05059-1.37064,3.05059-3.05059C16.37016,26.69795,17.72659,28.0568,19.42082,28.0568z"/></svg>