<svg xmlns="http://www.w3.org/2000/svg" enable-background="new 0 0 51 51" viewBox="0 0 51 51"><path fill="#E9E8E6" d="M30.31362,38.26571c0.78159,0.45125,1.40878,1.53757,1.40621,2.4432
						c-0.00253,0.89057-0.63382,1.2503-1.41541,0.79905c-0.78156-0.45124-1.41538-1.54138-1.41286-2.43195
						C28.89413,38.17038,29.53205,37.81447,30.31362,38.26571z"/><path fill="#C4C2C0" d="M38.29148,33.83252l-7.71214,4.61635c0.4056,0.32561,0.74894,0.81116,0.95075,1.3262l7.70925-4.61462
						C39.04078,34.64473,38.69763,34.15599,38.29148,33.83252z"/><path fill="#B2B0AF" d="M31.72309,40.71114c0,0.43563-0.15557,0.74691-0.41493,0.89216l7.71002-4.61507
						c0.24897-0.14513,0.40454-0.45641,0.40454-0.90242c0.00343-0.29814-0.06443-0.61641-0.18339-0.92537l-7.70925,4.61462
						C31.652,40.08621,31.72309,40.4077,31.72309,40.71114z"/><path fill="#D6D4D2" d="M38.02224,33.64777c-0.39422-0.2282-0.75729-0.24896-1.00632-0.10371l-7.70996,4.62545
						c0.25936-0.15564,0.61204-0.135,1.00626,0.09333c0.09138,0.05362,0.18053,0.1165,0.26711,0.18602l7.71214-4.61635
						C38.20425,33.76305,38.11437,33.70059,38.02224,33.64777z"/><path fill="#2D2C2B" d="M28.91043,36.16956c1.23097,0.92079,2.02811,2.39016,2.02811,4.04482
						c0,2.79524-2.26122,5.05646-5.04812,5.05646c-0.38983,0-0.76867-0.04545-1.13299-0.12872
						c0.84324,0.63077,1.89056,1.0041,3.02632,1.0041c2.7869,0,5.04812-2.26122,5.04812-5.05646
						C32.83187,38.69032,31.15514,36.68201,28.91043,36.16956z"/><path fill="#383736" d="M28.91043,36.16956c-0.36247-0.08276-0.73923-0.12792-1.12668-0.12792
							c-0.28564,0-0.56529,0.02481-0.8379,0.07019c0.50511,0.78605,0.79959,1.7202,0.79959,2.72345
							c0,2.5106-1.82455,4.58922-4.21532,4.98677c0.32771,0.50995,0.74319,0.95792,1.22732,1.32007
							c0.36432,0.08327,0.74316,0.12872,1.13299,0.12872c2.7869,0,5.04812-2.26122,5.04812-5.05646
							C30.93854,38.55972,30.14141,37.09035,28.91043,36.16956z"/><path fill="#434240" d="M27.74543,38.83527c0-1.00325-0.29447-1.9374-0.79959-2.72345
							c-2.39514,0.39866-4.21689,2.47583-4.21689,4.97793c0,1.0074,0.29487,1.94447,0.80115,2.73229
							C25.92088,43.4245,27.74543,41.34587,27.74543,38.83527z"/><g enable-background="new"><path fill="#D6D4D2" d="M29.1871,26.83079l-0.03416,10.87843c-0.00081,0.28484-0.18833,0.56934-0.56307,0.78711
								c-0.75407,0.43822-1.97805,0.43879-2.73608,0.00115c-0.38231-0.22073-0.57306-0.50983-0.57224-0.79844l0.03416-10.87843
								c-0.00082,0.28861,0.18993,0.57771,0.57224,0.79844c0.75803,0.43765,1.98201,0.43707,2.73608-0.00115
								C28.99877,27.40013,29.18629,27.11563,29.1871,26.83079z"/><path fill="#C4C2C0" d="M28.62403,27.6179c-0.60533,0.35178-1.51301,0.42088-2.23985,0.20831V38.7138
								c0.72099,0.20066,1.60973,0.12886,2.20568-0.21747c0.37474-0.21777,0.56226-0.50229,0.56307-0.78711l0.03416-10.87844
								C29.1863,27.11563,28.99877,27.40013,28.62403,27.6179z"/><path fill="#B2B0AF" d="M28.62403,27.6179c-0.08743,0.05081-0.18172,0.0951-0.28033,0.13414v10.86383
								c0.08596-0.03564,0.16904-0.0747,0.24616-0.11953c0.37474-0.21777,0.56226-0.50229,0.56307-0.78711l0.03416-10.87844
								C29.1863,27.11563,28.99877,27.40013,28.62403,27.6179z"/><path fill="#E9E8E6" d="M28.61609,26.03363c0.75803,0.43765,0.76201,1.14605,0.00794,1.58427
								s-1.97805,0.4388-2.73608,0.00115c-0.75998-0.43878-0.763-1.14776-0.00893-1.58598S27.8561,25.59485,28.61609,26.03363z"/></g><g><path fill="#E9E8E6" d="M17.5705,45.84117c0.78159,0.45125,1.40878,1.53757,1.40621,2.44321
						c-0.00253,0.89057-0.63382,1.2503-1.41541,0.79905c-0.78156-0.45124-1.41538-1.54138-1.41286-2.43195
						C16.15102,45.74584,16.78894,45.38993,17.5705,45.84117z"/><path fill="#C4C2C0" d="M25.13396,41.65521l-7.29774,4.36912c0.4056,0.32561,0.74894,0.81117,0.95075,1.3262l7.29484-4.3674
						C25.88326,42.46741,25.54011,41.97868,25.13396,41.65521z"/><path fill="#B2B0AF" d="M18.97998,48.2866c0,0.43563-0.15557,0.74691-0.41493,0.89216l7.29562-4.36785
						c0.24896-0.14513,0.40454-0.4564,0.40454-0.90242c0.00343-0.29814-0.06443-0.61641-0.18339-0.92537l-7.29484,4.3674
						C18.90889,47.66167,18.97998,47.98316,18.97998,48.2866z"/><path fill="#D6D4D2" d="M24.86473,41.47046c-0.39422-0.2282-0.7573-0.24897-1.00632-0.10371l-7.29556,4.37823
						c0.25936-0.15564,0.61204-0.135,1.00626,0.09333c0.09138,0.05362,0.18053,0.1165,0.26712,0.18602l7.29774-4.36912
						C25.04673,41.58573,24.95686,41.52327,24.86473,41.47046z"/></g><path fill="#DDB040" d="M22.37656,10.89316c0.39925-0.2305,0.78336-0.29711,1.10045-0.19374l4.02128,0.57847
			c0.31189,0.10638,0.7012,0.03677,1.10043-0.19373l11.55703-6.67245c0.97993-0.56576,1.77581-0.11218,1.779,1.0138L41.9856,23.3644
			c0.00318,1.12007-0.78753,2.48967-1.76746,3.05543l-25.10503,14.4944c-0.97993,0.56576-1.7758,0.11218-1.77898-1.0079
			l-0.06158-21.72206c-0.00317-1.12008,0.78753-2.48959,1.76746-3.05535L22.37656,10.89316z"/><path fill="#FFE2A9" d="M41.41896,4.2858c-0.32485-0.18676-0.77148-0.16238-1.26684,0.12996l-11.55592,6.66714
			c-0.39791,0.23553-0.78769,0.30047-1.09629,0.19489l-4.0198-0.57654c-0.31672-0.10557-0.7065-0.04054-1.10442,0.19489
			l-7.3331,4.231c-0.98258,0.56842-1.77033,1.94078-1.77033,3.05333l0.06498,21.72311c0,0.56039,0.19489,0.95017,0.51161,1.13693
			l-4.25752-2.44715c-0.31667-0.18676-0.51969-0.57655-0.51969-1.1287L9.01481,15.74154
			c-0.00813-1.12077,0.78769-2.49314,1.7622-3.06155l7.34118-4.2309c0.39791-0.23553,0.77961-0.30056,1.09634-0.19489
			l4.01975,0.57654c0.31672,0.10548,0.70655,0.04054,1.10447-0.19489l11.55587-6.66724
			c0.49536-0.28421,0.94199-0.31672,1.25871-0.12996L41.41896,4.2858z"/><path fill="#FFD651" d="M37.69416,5.83367l-9.09828,5.24895c-0.39724,0.23547-0.7873,0.30018-1.09647,0.19593l-4.0192-0.577
			c-0.31636-0.10606-0.70642-0.04134-1.10367,0.19413L15.04275,15.127c-0.98324,0.568-1.77054,1.9413-1.77054,3.05395
			l0.06471,21.72277c0,0.56082,0.19593,0.95087,0.51229,1.13601l-4.25777-2.44654c-0.31636-0.18694-0.51948-0.57699-0.51948-1.12882
			L9.01444,15.74159c-0.00719-1.12164,0.7873-2.49313,1.76335-3.06113l7.34099-4.23131
			c0.39724-0.23548,0.77832-0.30019,1.09647-0.19413l4.0192,0.5752c0.31636,0.10605,0.70643,0.04134,1.10367-0.19413
			l9.09828-5.24895L37.69416,5.83367z"/><path fill="#FFE2A9" d="M28.59588,11.08263c-0.39724,0.23547-0.7873,0.30018-1.09647,0.19593l-4.0192-0.577
			c-0.31636-0.10606-0.70642-0.04134-1.10367,0.19413L15.04275,15.127c-0.98324,0.568-1.77054,1.9413-1.77054,3.05395
			l0.06471,21.72277c0,0.56082,0.19593,0.95087,0.51229,1.13601l-4.25777-2.44654c-0.31636-0.18694-0.51948-0.57699-0.51948-1.12882
			L9.01444,15.74159c-0.00719-1.12164,0.7873-2.49313,1.76335-3.06113l7.34099-4.23131
			c0.39724-0.23548,0.77832-0.30019,1.09647-0.19413l4.0192,0.5752c0.31636,0.10605,0.70643,0.04134,1.10367-0.19413
			L28.59588,11.08263z"/><path fill="#FFD651" d="M23.48021,10.70156c-0.31636-0.10606-0.70642-0.04134-1.10367,0.19413L15.04275,15.127
			c-0.98324,0.568-1.77054,1.9413-1.77054,3.05395l0.06471,21.72277c0,0.56082,0.19593,0.95087,0.51229,1.13601l-4.25777-2.44654
			c-0.31636-0.18694-0.51948-0.57699-0.51948-1.12882L9.01444,15.74159c-0.00719-1.12164,0.7873-2.49313,1.76335-3.06113
			l7.34099-4.23131c0.39724-0.23548,0.77832-0.30019,1.09647-0.19413L23.48021,10.70156z"/><path fill="#FFE2A9" d="M13.27221,18.18094l0.06471,21.72277c0,0.56082,0.19593,0.95087,0.51229,1.13601l-4.25777-2.44654
			c-0.31636-0.18694-0.51948-0.57699-0.51948-1.12882L9.01444,15.74159c-0.00719-1.12164,0.7873-2.49313,1.76335-3.06113
			l4.26497,2.44654C14.05952,15.695,13.27221,17.06829,13.27221,18.18094z"/><path fill="#EFC348" d="M13.84921,41.03972L9.59207,38.5934c-0.31636-0.18694-0.51948-0.577-0.51948-1.12883L9.03924,24.86659
			l4.25713,2.43913l0.04055,12.59799C13.33692,40.46453,13.53285,40.85459,13.84921,41.03972z"/><path fill="#FFF" d="M18.10244,15.33399c-1.67595,0-3.05972,1.34199-3.05972,3.05972c0-1.68467-1.37498-3.05972-3.05965-3.05972
		c1.69784,0,3.05965-1.37471,3.05965-3.05965C15.04272,13.97111,16.40317,15.33399,18.10244,15.33399z"/></svg>