<svg xmlns="http://www.w3.org/2000/svg" viewBox="0 0 51 51"><path fill="#febc1f" d="m35.373 21.213.002-.002-.025-4.8-1.685-.933-1.193.695v-.315l-.688-.401.006-1.574-.604-.332-.02-8.027-1.943-1.13-4.908-2.793-16.13 9.313.032 12.819-1.679.97-.33 1.35-.222.906-.053 19.433h.002v.003l5.28 3.003h.003l24.106-14.397.051-13.786h-.002v-.002z"/><path fill="#febc1f" d="m30.096 12.949 1.693.934-.008 1.572.691.403v.318l1.193-.698 1.685.934.023 4.799-.053 13.79-24.102 14.398-5.285-3.007.053-19.433.554-2.255 7.617-4.397 1.642.957 14.297-8.315"/><path fill="#ef7b56" d="m7.632 45.81 24.105-15.607 2.61 3.099-24.168 14.046z"/><path fill="#ffde9b" d="M31.79 13.883 7.681 27.894l-1.695-.935 24.109-14.01"/><path fill="#febc1f" d="m31.79 13.883-.053 16.32L7.632 45.81l.049-17.916L31.79 13.883"/><path fill="#ffde9b" d="m7.682 27.894-1.695-.933.551-2.259 1.652.96z"/><path fill="#ffde9b" d="m8.19 25.662-1.652-.96 7.618-4.398 1.652.96z"/><path fill="#febc1f" d="m15.808 21.264.562 1.615-8.688 5.015.508-2.232zM35.373 21.211 16.04 32.472l-1.686-.934-.03-4.799 19.34-11.261 1.686.934.023 4.8z"/><path fill="#dedffb" d="m31.235 33.673-21.02 12.14v.74l-1.94-1.13-.09-34.51 16.13-9.31 4.91 2.79 1.94 1.13z"/><path fill="#d1cfd9" d="m26.275 8.348-1.944-1.129 4.892-2.824 1.943 1.129z"/><path fill="#8a8a9c" d="m26.259 2.731-1.944-1.13 4.908 2.794 1.943 1.129z"/><path fill="#dedffb" d="m26.259 2.731 4.907 2.793-4.891 2.824z"/><path fill="#777786" d="m26.275 8.348-1.944-1.129-.016-5.618 1.944 1.13z"/><path fill="#e9e7fc" d="m10.128 12.043-1.943-1.129 16.13-9.313 1.944 1.13z"/><path fill="#dedffb" d="m10.215 46.555-1.943-1.129-.087-34.512 1.943 1.129z"/><path fill="#f3f1fc" d="m26.259 2.731.016 5.617 4.891-2.824.071 28.149L10.215 45.81l-.087-33.767z"/><path fill="#ffde9b" d="M35.35 16.412c-12.237 7.126-1.209.723-19.34 11.261l-1.686-.934 19.34-11.261 1.686.934z"/><path fill="#febc1f" d="m35.349 16.414.026 4.797-19.338 11.262-.026-4.798z"/><path fill="#ffd06c" d="m16.037 32.473-1.687-.934-.026-4.797 1.687.933z"/><path fill="#ffde9b" d="m9.578 34.294 4.772-2.75 3.291 1.815-4.772 2.75z"/><path fill="#ffd06c" d="m12.869 36.109-1.654 13.289-5.28-3.003.051-19.436 1.695.935-.049 17.916 1.898 1.137.048-12.653z"/><path fill="#febc1f" d="m11.267 35.225 24.108-14.01-.051 13.786-24.109 14.397z"/><path fill="#51383c" d="M15.283 16.82c.143-.18.268-.391.368-.618l.002.59-.37.213v-.185z"/><path fill="#febc1f" d="m14.302 17.863.002.029c.03.737.95.23.98-.566l.168-.097a.508.508 0 0 1 .027.171c.001.376-.305.857-.684 1.076-.377.218-.686.091-.687-.285 0-.063.009-.132.027-.202l.17-.097a.148.148 0 0 1-.003-.029z"/><path fill="#f5c9c6" d="M14.302 17.386a.823.823 0 0 0 .49-.126c.177-.102.343-.255.491-.44v.185l.001.291v.03c-.03.797-.95 1.302-.98.566v-.03l-.002-.29v-.186z"/><path fill="#51383c" d="M13.99 17.252a.56.56 0 0 0 .312.134v.185l-.31.18-.002-.5z"/><path fill="#ffd06c" d="m15.867 16.99.056-.032c.391-.2.738-.094.866.25-.526.855-1.224 1.592-1.989 2.034-.767.443-1.466.512-1.997.266.125-.49.47-.994.862-1.246l.055-.033.415-.24a.789.789 0 0 0-.027.202c.001.376.31.503.687.285.38-.219.685-.7.684-1.076a.508.508 0 0 0-.027-.17l.415-.24z"/><path fill="#f4d6d4" d="M14.434 14.899c.138-.06.261-.017.31.104.018.044.026.077.034.108a.316.316 0 0 0 .407.229c.158-.052.325-.17.463-.266l.003 1.128c-.1.227-.225.438-.368.618a1.785 1.785 0 0 1-.49.44.823.823 0 0 1-.491.126.56.56 0 0 1-.312-.134c-.01-1.564-.035-1.7.084-1.963.07-.154.207-.326.36-.39z"/><path fill="#8a4852" d="m14.782 13.704.011-.006c.563-.32 1.101-.16 1.26.375.098.323.074.736.075 2.129 0 .174-.12.384-.27.471l-.018.01-.187.109-.002-.59-.003-1.128c-.137.096-.305.214-.463.266a.316.316 0 0 1-.407-.23c-.008-.03-.016-.063-.034-.107-.049-.121-.172-.163-.31-.104-.153.064-.291.236-.36.39-.132.292-.093.456-.082 2.461l-.24.139-.014.008c-.151.087-.273.017-.273-.156v-.04l-.017-1.196c-.005-.317-.008-.643.074-.997.164-.714.7-1.48 1.26-1.804z"/><path fill="#6bb4f9" d="M14.78 12.331c1.644-.949 2.985-.17 2.99 1.737.003 1.02-.376 2.159-.982 3.14-.127-.344-.474-.45-.865-.25l-.056.032-.415.24-.169.096.001-.03v-.291l.555-.321.019-.01a.597.597 0 0 0 .27-.472c0-1.35.024-1.802-.075-2.129-.16-.534-.697-.694-1.26-.375-.57.33-1.107 1.096-1.271 1.81-.082.354-.079.68-.074.997l.016 1.196v.04c0 .173.123.243.273.156l.565-.326.001.292v.029l-.168.097-.415.24-.056.033c-.39.252-.736.757-.86 1.246-.61-.28-.995-.976-.998-1.996-.006-1.908 1.326-4.23 2.975-5.18z"/><path fill="#dedffb" d="M12.026 25.559v1.035l16.977-9.802v-1.035zM12.026 22.844v1.035l16.977-9.802v-1.035zM18.975 16.116v1.035l10.028-5.789v-1.036zM18.975 13.4v1.035l10.028-5.789V7.611z"/><path fill="#475675" d="M18.6 9.938a2.327 2.327 0 0 1 .263.129l-.896-.521c-.876-.511-2.091-.44-3.432.335-2.666 1.539-4.818 5.27-4.81 8.332.004 1.521.542 2.592 1.408 3.095l.895.522c.156.033 1.324.884 3.432-.337 2.667-1.54 4.822-5.269 4.813-8.33-.004-1.342-.428-2.672-1.673-3.225zm-6.72 11.179c-1.934-1.917-.12-8.04 3.787-10.299.677-.394 1.345-.597 1.93-.597.305 0 .579.057.83.163.5.5.78 1.314.784 2.385.004 2.906-2.044 6.454-4.574 7.914-.677.394-1.34.598-1.925.598-.305 0-.58-.058-.831-.164zm-.918-.546zm-.24-.78-.002-.004.001.005zm-.074-.5-.002-.028.002.028zm-.017-.235a6.286 6.286 0 0 1-.007-.188c.002.063.003.126.007.188zm5.263-8.895.056-.026-.056.026zm.266-.116.011-.005-.01.005zm2.145-.21zm-.174-.042.035.007-.035-.007zm-7.065 11 .031.058a2.578 2.578 0 0 0-.03-.059zm.346.514a12.3 12.3 0 0 1-.05-.06l.05.06zm.305.305c.03.027.145.111.167.126-.114-.078-.568-.446-.167-.126z"/><path fill="#4c5c75" d="M10.919 22.81a7.064 7.064 0 0 0-1.159-.808c-.026-.015-.053-.027-.076-.041l.979-1.42c.084-.109.959.51 1.155.714.182.181.116-.007-.9 1.555z"/><path fill="#e93565" d="M11.542 22.695c-1.307 2.669-3.06 5.22-5.236 7.655 0 .008 0 .008-.008.015-.031.047-.203-.007-.493-.164-.47-.258-1.064-.689-1.338-.963-.11-.11-.15-.18-.126-.203l.008-.008c1.409-2.849 3.147-5.408 5.229-7.67.13-.196 2.06 1.146 1.964 1.338z"/><path fill="#f45170" d="M11.539 22.693c-1.306 2.676-3.066 5.23-5.242 7.676.021-.027-.021-.097-.127-.206-.27-.275-.87-.707-1.342-.964-.288-.154-.46-.212-.487-.166 1.415-2.848 3.156-5.418 5.239-7.676.126-.189 2.071 1.15 1.959 1.336z"/><path fill="#e93565" d="M5.809 30.201c-.471-.256-1.072-.688-1.343-.965-.27-.276-.108-.293.363-.037.472.257 1.072.688 1.342.965s.11.294-.362.037z"/><path fill="#1d2943" d="m18.848 10.059.016.007-.897-.52c-.876-.511-2.091-.44-3.432.335-2.666 1.539-4.818 5.27-4.81 8.332.004 1.521.542 2.592 1.408 3.095l.895.522c.156.033 1.328.882 3.432-.337 2.667-1.54 4.822-5.269 4.813-8.33-.008-2.498-1.515-3.204-1.425-3.104zm-6.967 11.058c-1.935-1.918-.122-8.04 3.786-10.299.677-.394 1.345-.597 1.93-.597.304 0 .579.057.831.163.5.5.779 1.314.783 2.385.004 2.906-2.044 6.454-4.574 7.914-.677.394-1.34.598-1.925.598-.305 0-.58-.058-.831-.164z"/><path fill="#4c5c75" d="M18.863 10.066c-.878-.51-2.092-.437-3.433.337-4.216 2.435-6.44 9.656-3.402 11.427l-.895-.522c-.866-.503-1.404-1.574-1.408-3.095-.008-3.062 2.144-6.793 4.81-8.332 1.34-.774 2.556-.846 3.432-.335l.896.52z"/><path fill="#1d2943" d="M15.429 10.402c-3.772 2.18-5.794 7.888-4.332 10.45a2.576 2.576 0 0 0 .315.455c1.019 1.213 2.67.984 4.048.186 2.667-1.54 4.822-5.269 4.813-8.33-.01-3.11-2.25-4.293-4.844-2.76zm.238.416c.677-.394 1.345-.597 1.93-.597.304 0 .579.057.83.163.5.5.78 1.314.784 2.385.004 2.906-2.044 6.454-4.574 7.914-.677.394-1.34.598-1.925.598-.305 0-.58-.058-.831-.164-1.935-1.918-.122-8.04 3.786-10.299z"/><path fill="#4c5c75" d="M19.79 13.163c.01 2.906-2.039 6.454-4.57 7.914-.676.394-1.34.602-1.924.602-.575 0-1.053-.2-1.415-.562.252.106.526.164.831.164.584 0 1.248-.204 1.925-.598 2.53-1.46 4.578-5.008 4.574-7.914-.004-1.07-.283-1.885-.783-2.385.863.368 1.358 1.35 1.363 2.779z"/><path fill="#e9e7fc" d="M19.212 12.772c0 .24-.02.49-.05.74-.24 2.25-1.56 4.71-3.3 6.27-.39.35-.8.66-1.22.9-.28.16-.56.29-.82.39-.4.14-.77.21-1.11.21-.32 0-.58-.06-.83-.16-2.035-2.035.051-7.56 3.11-9.85.22-.16.45-.32.68-.45.67-.39 1.34-.6 1.92-.6.31 0 .59.06.83.16l.02.02c.23.23.4.52.53.88.16.41.24.91.24 1.49z" opacity=".4"/><path fill="#e9e7fc" d="m46.603 16.338-1.806-1.05-15.293 8.83.061 24.231 1.807 1.05 15.293-8.83z"/><path fill="#dedffb" d="m31.372 49.399-1.807-1.05-.061-24.231 1.806 1.05z"/><path fill="#e9e7fc" d="m31.31 25.168-1.806-1.05 15.293-8.83 1.806 1.05z"/><path fill="#f3f1fc" d="m46.603 16.338.062 24.231-15.293 8.83-.062-24.231z"/><path fill="#51383c" d="M35.437 29.141c.131-.165.246-.358.337-.565l.002.54-.338.194v-.169z"/><path fill="#df3260" d="M34.54 30.096c0 .008 0 .017.002.026.026.675.868.21.896-.518l.154-.088a.465.465 0 0 1 .025.156c0 .344-.28.784-.626.984-.345.2-.627.084-.628-.26 0-.058.007-.121.024-.185l.155-.09c-.002-.007-.002-.016-.002-.025z"/><path fill="#f5c9c6" d="M34.54 29.66a.753.753 0 0 0 .449-.116c.161-.093.313-.233.448-.403v.17l.002.266-.001.027c-.028.73-.87 1.192-.896.518l-.001-.027v-.266l-.001-.17z"/><path fill="#51383c" d="M34.254 29.536c.082.07.179.112.286.123v.17l-.284.164-.002-.457z"/><path fill="#f45170" d="M35.971 29.296c.019-.01.035-.02.052-.028.358-.183.675-.086.792.229-.482.781-1.12 1.456-1.82 1.86-.701.405-1.341.469-1.826.244.114-.448.43-.91.788-1.14l.05-.03.38-.22a.721.721 0 0 0-.024.185c0 .344.283.46.628.26.347-.2.627-.64.626-.984a.465.465 0 0 0-.025-.156l.38-.22z"/><path fill="#f4d6d4" d="M34.66 27.384c.127-.054.24-.016.284.095.017.04.024.07.031.099.041.165.209.263.373.21.06-.02.12-.05.18-.085a3.52 3.52 0 0 0 .243-.16l.003 1.033c-.091.207-.206.4-.337.565-.135.17-.287.31-.448.403a.753.753 0 0 1-.45.115.512.512 0 0 1-.285-.123c-.007-1.138-.045-1.525.077-1.795.064-.141.19-.299.33-.357z"/><path fill="#8a4852" d="m34.98 26.29.01-.005c.514-.292 1.006-.146 1.152.343.064.21.066.472.069.728.004.404 0 .814 0 1.22 0 .159-.11.351-.248.431l-.017.01-.17.098-.002-.539-.003-1.032a3.52 3.52 0 0 1-.243.16.982.982 0 0 1-.18.083.289.289 0 0 1-.373-.21c-.007-.028-.014-.058-.03-.098-.045-.11-.158-.15-.284-.095-.14.059-.267.216-.33.357-.122.27-.085.457-.077 1.795l.002.457-.219.126-.013.008c-.138.08-.25.015-.25-.143l-.016-1.13c-.004-.291-.007-.589.068-.913.15-.653.641-1.355 1.153-1.65z"/><path fill="#5094ff" d="M34.978 25.035c1.503-.869 2.73-.157 2.735 1.589.003.933-.345 1.974-.898 2.873-.117-.315-.434-.412-.792-.23a1.39 1.39 0 0 0-.052.03l-.38.219-.153.088V29.31l.508-.293.017-.01a.546.546 0 0 0 .248-.431c0-.406.004-.816 0-1.22-.003-.256-.005-.518-.069-.728-.146-.489-.638-.635-1.153-.343-.522.301-1.013 1.003-1.163 1.656-.075.324-.072.622-.068.912.002.101.016 1.231.016 1.13 0 .16.112.224.25.144l.516-.298v.266c0 .01 0 .019.002.027l-.155.09-.38.218-.05.03c-.358.231-.674.693-.788 1.14-.558-.255-.91-.892-.913-1.825-.005-1.746 1.214-3.87 2.722-4.74z"/><path fill="#dedffb" d="M35.286 32.902v.822l10.446-6.031v-.823zM35.286 34.766v.823l10.446-6.031v-.823zM38.55 23.577v.823l7.182-4.147v-.823zM38.55 25.442v.822l7.182-4.146v-.823zM35.286 36.631v.823l10.446-6.031V30.6zM35.286 38.496v.823l10.446-6.032v-.822zM35.286 40.361v.822l10.446-6.031v-.822zM35.286 42.226v.822l10.446-6.031v-.822zM35.286 44.091v.822l10.446-6.031v-.822z"/><path fill="#57b3fe" d="m34.033 33.677.006 2.106-1.833 1.058-.006-2.106z"/><path fill="#72d561" d="m34.033 36.977.006 2.106-1.833 1.058-.006-2.106z"/><path fill="#f45170" d="m34.033 40.277.006 2.106-1.833 1.058-.006-2.106z"/><path fill="#dba660" d="m34.033 43.576.006 2.107-1.833 1.058-.006-2.106z"/><path fill="#fff" d="M33.744 34.33c.03-.017.06-.021.083-.008.046.026.046.11 0 .189-.884 1.513-.897 1.618-1 1.677-.1.058-.165-.054-.415-.184-.073-.038-.021-.214.082-.274.03-.017.058-.02.08-.007l.253.142.835-1.448a.237.237 0 0 1 .082-.087zm0 3.2c.03-.016.06-.02.083-.007.046.026.046.11 0 .189-.884 1.513-.897 1.618-1 1.677-.1.058-.165-.053-.415-.184-.073-.038-.021-.214.082-.273.03-.017.058-.021.08-.007l.253.141.835-1.448a.237.237 0 0 1 .082-.087zm0 3.262c.03-.017.06-.021.083-.008.046.026.046.11 0 .189-.884 1.513-.897 1.617-1 1.677-.1.058-.165-.054-.415-.184-.073-.038-.021-.214.082-.274.03-.017.058-.02.08-.007l.253.142.835-1.448a.237.237 0 0 1 .082-.087zm0 3.31c.03-.016.06-.02.083-.007.046.026.046.11 0 .189-.884 1.513-.897 1.618-1 1.677-.1.058-.165-.054-.415-.184-.073-.038-.021-.214.082-.274.03-.017.058-.02.08-.007l.253.142.835-1.448a.237.237 0 0 1 .082-.087z"/><path fill="#ffd06c" d="m38.985 26.925.303.523.664-.274-.478.822.113.699-.597-.014-.594.701.108-.827-.481-.268.664-.492zM41.684 25.367l.302.523.67-.278-.483.826.118.696-.602-.011-.595.701.114-.83-.486-.265.669-.495zM44.388 23.806l.297.526.67-.278-.484.826.118.696-.596-.014-.6.704.114-.83-.487-.265.669-.495z"/></svg>