<svg xmlns="http://www.w3.org/2000/svg" id="Layer_1" x="0" y="0" enable-background="new 0 0 140 140" version="1.1" viewBox="0 0 140 140" xml:space="preserve"><g id="Secure_Folder"><path fill="#f9a83d" d="M81.3322372,67.3758087l-58.1100464,33.5499878
								c-0.2600098,0.1499634-0.5299683,0.1900024-0.7799683,0.1499634l-2.2300415-0.3499756
								c-0.4799805-0.0800171-0.8899536-0.4799805-1.0599976-1.1099854L6.0122323,50.6757965
								c-0.2600098-0.960022,0.1399536-2.0800171,0.8899536-2.5200195l29.580019-17.0700054
								c0.4000244-0.2299805,0.710022-0.6799927,0.8699951-1.2099609l1.8599854-6.5500488
								c0.1600342-0.5299683,0.4700317-0.9799805,0.8700562-1.2099609L63.4121971,8.6457691
								c0.2600098-0.1399536,0.5200195-0.1900024,0.7700157-0.1499634l2.25,0.3599854H66.382225
								c0.4899902,0.0599976,0.9299927,0.4500122,1.0999756,1.0999756l14.75,54.9000244
								C82.4822006,65.8158112,82.0822372,66.945816,81.3322372,67.3758087z"/><path fill="#f9cf6b" d="M65.6626816,9.0103655c0.7490158-0.4324427,1.5653229-0.0069828,1.8221283,0.9496927
												l14.7430115,54.8984604c0.2568054,0.9566727-0.142662,2.0840607-0.8916779,2.51651l-58.1107483,33.5502548
												c-0.7517376,0.4340134-1.5653229,0.0069809-1.8221283-0.9496918L8.2606297,51.0389938
												c-0.2568054-0.9566765,0.1399403-2.0824966,0.8916769-2.51651L38.7300644,31.445755
												c0.3989677-0.2303429,0.7157021-0.6734142,0.8693008-1.2104721l1.8634529-6.5445099
												c0.153595-0.5370579,0.4730492-0.9817257,0.8719788-1.2120476L65.6626816,9.0103655z"/><path fill="#f9a83d" d="M66.4305954,8.8561049c-0.2465134-0.0425205-0.5100403,0.0084839-0.7693176,0.1530123
												L42.3344688,22.4789886c-0.3995209,0.2295189-0.7183113,0.6758175-0.871376,1.2113857l-1.8616714,6.5457993
												c-0.1573219,0.5355682-0.4718552,0.9776115-0.871376,1.2113838L9.1506968,48.5218811
												c-0.7480936,0.4335365-1.1476173,1.5599327-0.8882904,2.5162964L21.404604,99.9745483
												c0.1657753,0.629097,0.5781155,1.0328751,1.0541191,1.1051483l-2.2485371-0.3570557
												c-0.4760036-0.0764999-0.8882923-0.4760513-1.0583744-1.109375L6.0096145,50.6768684
												c-0.2550721-0.9563637,0.1402483-2.082737,0.8925972-2.5162964l29.5792942-17.074297
												c0.3995247-0.2295189,0.7141075-0.6758423,0.8671227-1.2114105l1.8659782-6.5457726
												c0.1530151-0.5355682,0.4718018-0.9818668,0.8713264-1.2114124L63.4127922,8.6478338
												c0.2549706-0.1445284,0.5185509-0.1955328,0.7650642-0.153038L66.4305954,8.8561049z"/><g><path fill="#c9cee2" d="M73.0022202,43.5757599L20.8322392,93.5857697l-1.2800293-0.7399902L19.4522343,35.905777
								c0-0.8499756,0.5899658-1.8699951,1.3299561-2.2999878L70.2921982,5.0157642
								c0.3699951-0.2099609,0.710022-0.2299805,0.9500122-0.0899658l1.2700195,0.7399902
								c0.2399902,0.1400146,0.3899536,0.4299927,0.3899536,0.8499756L73.0022202,43.5757599z"/><path fill="#c9cee2" d="M72.5171509,5.6689386c-0.2424088-0.1410904-0.5788879-0.123004-0.9479446,0.0904531
													L22.0523052,34.3510513c-0.7344685,0.423336-1.3278465,1.4508705-1.3242245,2.2902794l0.1012955,56.9399529
													l-1.2735634-0.7380905l-0.1013184-56.9399529c-0.0036221-0.843029,0.589756-1.8705864,1.3242455-2.2938995
													L70.2956238,5.0176806c0.3690491-0.2098355,0.7019119-0.2315435,0.9443436-0.0904531L72.5171509,5.6689386z"/><path fill="#f1f6fa" d="M71.5708313,5.759984c0.7322922-0.4227891,1.3302155-0.0820322,1.3325958,0.7594099
													l0.1007233,37.0526237L20.8291111,93.5830536l-0.1007175-56.9403877
													c-0.0023861-0.8414421,0.5893517-1.8690491,1.3239479-2.2931709L71.5708313,5.759984z"/><g><path fill="#d4daea" d="M77.6074448,7.7828412c-0.2424088-0.1410899-0.5788879-0.123004-0.9479446,0.0904531
												L27.1425953,36.4649544c-0.7344666,0.423336-1.3278446,1.4508705-1.3242226,2.2902794l0.1012955,49.9080048
												l-1.2735653-0.7380905l-0.1013184-49.9080048c-0.0036201-0.843029,0.589756-1.8705864,1.3242474-2.2938995
												L75.38591,7.1315832c0.3690567-0.2098351,0.7019196-0.2315431,0.9443512-0.0904531L77.6074448,7.7828412z"/><path fill="#f1f6fa" d="M76.6611176,7.8738871C77.3934097,7.451098,77.991333,7.7918544,77.993721,8.633297
												l0.1007233,51.6809578L25.9194031,90.4375229l-0.1007195-51.680954
												c-0.0023842-0.8414421,0.5893536-1.8690491,1.3239479-2.2931709L76.6611176,7.8738871z"/></g></g><g><path fill="#f9a83d" d="M82.7921982,66.115799c0,0.8599854-0.6099854,1.9099731-1.3599854,2.3399658l-58.1099854,33.5500488
								c-0.3800049,0.2199707-0.7200317,0.2299805-0.960022,0.0899658l-2.4000244-1.3900146
								c-0.2399902-0.1399536-0.3899536-0.4400024-0.3999634-0.8699951l-0.1099854-39.3699951
								c0-0.8599854,0.6099854-1.9099731,1.3499756-2.3499756l29.580019-17.0700073
								c0.3999634-0.2299805,0.7799683-0.6599731,1.039978-1.1500244l3.1199951-6.0700073
								c0.2600098-0.5,0.6400146-0.9199829,1.0400391-1.1499634l23.3199425-13.4700298
								c0.3800049-0.2199707,0.7200317-0.2399902,0.9700317-0.0999756l2.3900146,1.4000244
								c0.25,0.1399536,0.3999634,0.4400024,0.3999634,0.8699951L82.7921982,66.115799z"/><path fill="#ffd06c" d="M81.2990723,20.5978966c0.7517395-0.4340153,1.3616104-0.0864677,1.3640518,0.7742062
												l0.1268311,44.7392654c0.0024414,0.860672-0.6034698,1.9101486-1.3552017,2.3441696l-58.110714,33.5502319
												c-0.7490139,0.4324493-1.3588848,0.0848999-1.3613243-0.7757721l-0.1116295-39.3756752
												c-0.0024414-0.8606758,0.6034698-1.9101524,1.3524818-2.3425941l29.5777588-17.0767288
												c0.3989487-0.2303314,0.7782898-0.652359,1.0351257-1.1504707l3.1223564-6.0693626
												c0.2568321-0.4981117,0.6361771-0.9201584,1.0351067-1.1504784L81.2990723,20.5978966z"/><path fill="#f9a83d" d="M79.8708725,19.1098461c-0.2471313-0.1436214-0.5897369-0.1233082-0.968399,0.095314
											L55.5773201,32.6719475c-0.3989258,0.23032-0.7782669,0.6523628-1.0351028,1.1504707l-3.1223488,6.0693512
											c-0.2568359,0.4981346-0.6361771,0.9201508-1.0351295,1.1504707L20.8069744,58.1189766
											c-0.7490025,0.4324455-1.354929,1.4819221-1.3524895,2.3425827l0.1116333,39.3756828
											c0.0012188,0.4275665,0.152338,0.728508,0.3959694,0.870079l2.3965931,1.3927536
											c-0.2436314-0.141571-0.3947487-0.4425125-0.3959694-0.870079l-0.1116314-39.3756828
											c-0.0024395-0.8606606,0.603487-1.9101372,1.3524895-2.3425827l29.5777645-17.0767365
											c0.3989525-0.23032,0.7782898-0.6523628,1.0351257-1.1504707l3.1223526-6.0693512
											c0.2568359-0.4981079,0.6361771-0.9201775,1.0351028-1.1504974l23.3251724-13.4667854
											c0.3786163-0.2185974,0.7212219-0.2389107,0.9684067-0.0952892L79.8708725,19.1098461z"/></g><g><polygon fill="#d4daea" points="36.084 45.642 27.704 50.48 27.71 51.561 36.084 46.727"/><polygon fill="#d4daea" points="37.512 44.818 37.512 45.902 43.582 42.397 43.582 41.313"/><polygon fill="#78e75a" points="50.818 37.135 44.5 40.783 44.5 41.867 50.818 38.22"/><polygon fill="#d4daea" points="39.532 32.443 27.704 39.272 27.71 40.353 39.532 33.528"/><polygon fill="#d4daea" points="52.169 25.148 41.389 31.371 41.389 32.456 52.169 26.232"/><polygon fill="#d4daea" points="62.02 19.46 53.596 24.323 53.596 25.408 62.02 20.544"/><polygon fill="#bf7d5a" points="63.734 18.47 63.734 19.555 75.056 13.018 75.056 11.933"/><g><polygon fill="#f45170" points="50.768 29.991 50.768 31.076 58.747 26.469 58.747 25.385"/><polygon fill="#d4daea" points="35.95 38.546 27.704 43.307 27.71 44.389 35.95 39.631"/><polygon fill="#d4daea" points="37.261 37.79 37.261 38.874 49.514 31.8 49.514 30.715"/><polygon fill="#d4daea" points="60.172 24.562 60.172 25.647 75.056 17.053 75.056 15.968"/></g><g><polygon fill="#d4daea" points="56.837 30.074 56.837 31.158 65.319 26.262 65.319 25.177"/><polygon fill="#d4daea" points="32.242 44.274 27.704 46.894 27.71 47.975 32.242 45.358"/><polygon fill="#4c5c75" points="33.547 43.52 33.547 44.605 39.549 41.14 39.549 40.055"/><polygon fill="#d4daea" points="40.789 39.34 40.789 40.424 46.856 36.921 46.856 35.837"/><polygon fill="#d4daea" points="47.704 35.347 47.704 36.431 55.794 31.761 55.794 30.676"/><polygon fill="#57b3fe" points="66.232 24.65 66.232 25.734 75.056 20.639 75.056 19.555"/></g></g><g><polygon fill="#111d33" points="33.052 88.231 31.965 87.6 31.933 68.694 33.019 69.326"/><polygon fill="#1d2943" points="33.019 69.326 31.933 68.694 74.155 44.317 75.242 44.949"/><polygon fill="#4c5c75" points="75.242 44.949 75.274 63.854 33.052 88.231 33.019 69.326"/><g><path fill="#c9cee2" d="M71.1521835,59.3357697c-0.0099487,3.0700073-0.9099731,5.3400269-2.3699951,6.5500488
																l-6.089962,3.539978l0.039978-15.8200073l6.1000328-3.539978
																C70.2721786,52.945816,71.1621933,56.2558136,71.1521835,59.3357697z"/><path fill="#f1f6fa" d="M62.7344093,53.6038017l6.0932426-3.5410042
																c1.4477463,2.8857765,2.3358841,6.191761,2.3271561,9.2700691
																c-0.0087051,3.0719719-0.9126587,5.3432961-2.3720016,6.548542l-6.0932426,3.541008
																c1.4593391-1.205246,2.3632927-3.4765701,2.3719978-6.548542
																C65.0702896,59.7955666,64.1821518,56.4895821,62.7344093,53.6038017z"/><path fill="#c9cee2" d="M62.7344093 53.6038017c1.4477425 2.8857803 2.3358803 6.1917648 2.3271523 9.2700729-.0087051 3.0719719-.9126587 5.3432961-2.3719978 6.548542L62.7344093 53.6038017zM62.6422386 64.2458038c-.0100098 3.0700073-.9200439 5.3399658-2.3800049 6.5499878l-6.0900269 3.539978.0499878-15.8200073 6.0900269-3.539978C61.7622337 57.865799 62.6422386 61.1657867 62.6422386 64.2458038z"/><path fill="#f1f6fa" d="M54.2175026,58.5170135l6.0932426-3.5410042
																c1.4477425,2.8857765,2.3358841,6.191761,2.3271561,9.2700691
																c-0.008709,3.0719757-0.9126587,5.3432922-2.3719978,6.5485458l-6.0932503,3.541008
																c1.459343-1.2052536,2.3632927-3.4765701,2.3720016-6.5485458
																C56.5533829,64.7087784,55.6652451,61.4027939,54.2175026,58.5170135z"/><path fill="#c9cee2" d="M54.2175026 58.5170135c1.4477425 2.8857803 2.3358803 6.1917648 2.3271523 9.2700729-.008709 3.0719757-.9126587 5.3432922-2.3719978 6.5485458L54.2175026 58.5170135zM54.1222191 69.155777c-.0100098 3.0800171-.9100342 5.3500366-2.3699951 6.5499878l-6.1000366 3.5400391.0500488-15.8200073 6.0899658-3.539978C53.2422142 62.7757721 54.1322289 66.0857697 54.1222191 69.155777z"/><path fill="#f1f6fa" d="M45.7005959,63.4302254l6.0932388-3.5410042
																c1.4477463,2.8857765,2.3358879,6.1917572,2.3271599,9.2700729
																c-0.008709,3.0719681-0.9126625,5.3432922-2.3720016,6.5485382l-6.0932465,3.541008
																c1.459343-1.2052536,2.3632927-3.4765701,2.3720016-6.5485458
																C48.0364761,69.6219864,47.1483345,66.3160019,45.7005959,63.4302254z"/><path fill="#c9cee2" d="M45.7005959,63.4302254c1.4477386,2.8857765,2.3358803,6.191761,2.3271523,9.2700691
																c-0.008709,3.0719757-0.9126587,5.3432922-2.3719978,6.5485458L45.7005959,63.4302254z"/><g><path fill="#c9cee2" d="M45.6021996,74.0757599c-0.0100098,3.0700073-0.9099731,5.3400269-2.3699951,6.5500488
																l-6.0899658,3.539978l0.039978-15.8200073l6.0899658-3.539978
																C44.7221947,67.6858063,45.6122093,70.9958038,45.6021996,74.0757599z"/></g><g><path fill="#f1f6fa" d="M37.1836853,68.3434372l6.0932426-3.541008
																c1.4477463,2.8857803,2.3358841,6.1917648,2.3271599,9.2700729
																c-0.008709,3.0719681-0.9126625,5.3432922-2.3720016,6.5485458l-6.0932465,3.541008
																c1.4593391-1.2052536,2.3632927-3.4765778,2.3720016-6.5485458
																C39.5195694,74.535202,38.6314278,71.2292175,37.1836853,68.3434372z"/><path fill="#c9cee2" d="M37.1836853,68.3434372c1.4477425,2.8857803,2.3358841,6.1917648,2.3271561,9.2700729
																c-0.008709,3.0719681-0.9126625,5.3432922-2.3720016,6.5485382L37.1836853,68.3434372z"/></g><g><path fill="#4c5c75" d="M44.1102028 75.5934067c0 .3965073-.1189384.792984-.3518867 1.1746063-.2378769.3815918-.5897331.7087021-1.0457077.9763184-.4113274.2329178-.7780991.3320389-1.0853653.2824936-.0396271-.0099182-.0644341-.0198135-.0842438-.0446167-.0247765-.0247726-.0346985-.0644302-.0346985-.1239014 0-.0842438.0247765-.1635284.0644302-.242836.0446205-.0842438.0991287-.1437149.1685181-.1833725.0445862-.0247726.0842438-.0346985.1239014-.0346985.2576904.0049667.5203743-.0644302.7830276-.2180634.3072701-.1784058.5451775-.3766632.7037735-.5848007.1585655-.203186.2329178-.446022.2329178-.7285233 0-.2230225-.0644302-.3618088-.1982536-.4163132-.12883-.054512-.3121986-.0148544-.5451469.1189346-.2676125.1536331-.5203743.3816223-.7483635.6690826l-.0594673.079277c-.0346947.0396576-.0792847.0793152-.1338234.1090546-.0990944.0594635-.1883011.0743179-.2576904.0495453-.0693932-.0297318-.1090469-.0991287-.1090469-.2081451 0-.0495758.0049591-.1040878.0148811-.1536331l.2180672-1.6553192c.0098915-.1040878.0445862-.1982498.0991249-.2874603.0495491-.0892029.1189384-.1635208.1982231-.2081375l1.6057396-.9267731c.0693893-.0396576.1288605-.0446167.1734772-.0148849.0495491.0297699.0743217.0842743.0743217.1585999 0 .0793076-.0247726.1635513-.0693588.2477951-.0495796.0793152-.1090508.1387863-.1784401.1833725l-1.4174118.8177567-.1437111 1.1844864c.2428398-.2725754.5104523-.5005569.7979088-.6641159.2527618-.148674.4708252-.2131042.6492348-.203186.1833687.0098953.3171921.0892105.4113579.2378845C44.0606575 75.1275406 44.1052437 75.3357162 44.1102028 75.5934067zM52.3768311 70.9184875c0 .3667679-.1239014.723587-.3766632 1.0655518-.242836.3419647-.564991.6244583-.9515419.8474884-.3717003.2180634-.72855.3419647-1.0556335.3815918-.0495758.0049591-.0842438-.0098953-.1139755-.034668-.024807-.0248032-.0396576-.0743561-.0396576-.1338196 0-.0743561.0198135-.1536407.0644302-.2329483.0445862-.0842438.0991249-.1437149.1635246-.1833725.0346985-.0198135.0743523-.0346985.1140099-.0346985.2329178-.0297318.4956017-.12883.7830276-.2923813.2527618-.148674.4658661-.3171921.6393433-.5104828.1635551-.1883316.2477989-.3865585.2477989-.5996628-.0049591-.4559708-.3568459-.4757843-1.0705109-.0644302l-.0792847.0495529c-.0693893.0346909-.1238976.0396576-.1734467.0148773-.0495796-.0297318-.0743523-.0842743-.0743523-.1585922 0-.0793152.0247726-.1536331.0743523-.2379074.0445862-.0842438.1040573-.1437149.1684875-.1833725l.0297356-.0148544c.3271103-.188324.5798416-.3964691.7483597-.6046448.1635551-.203186.2428398-.4113235.2428398-.6244278 0-.1734848-.0594711-.2676468-.1833687-.2973785-.1288643-.0297394-.3171921.0297318-.5699539.1734772-.2725754.1585617-.5302658.3667374-.7582512.6244278-.0446205.0446167-.0792847.0743561-.1139793.0941696-.0594711.0346909-.1040878.0346909-.1487045.0148773-.0396271-.0247726-.0643997-.0743484-.0643997-.148674 0-.0991211.0445862-.2032089.1189384-.2973785.3221207-.3815918.6591263-.6789703 1.0060539-.8771896.3865814-.2230301.6938515-.3072739.9069557-.2478027.2180672.0594711.3320427.2626572.3320427.6046219 0 .2725754-.0594673.5253296-.1784058.7533188-.0941658.1833725-.2131081.35186-.3518906.5054932.158596-.034668.2973785-.0148544.426239.0446167C52.2925873 70.3931503 52.3768311 70.5914001 52.3768311 70.9184875zM60.644577 66.0672226c.0049629.3964767-.1139793.792984-.3518867 1.1795349-.2329178.3766632-.5848045.703743-1.0457077.9713898-.4113579.2378769-.7780991.3370056-1.0853691.2874222-.0396538-.0098877-.0644302-.0247726-.0842438-.0445862-.0198135-.0247726-.0346947-.0644302-.0346947-.1288605 0-.0792847.0247726-.163559.0693932-.242836.0396538-.0793152.0941658-.1387863.1684875-.1833725.0396538-.0198441.0842705-.0346985.118969-.0346985.2576904.0099258.5203743-.0644302.7830238-.2131042.312233-.1784058.5501099-.3816223.7037773-.5848007.1585655-.2081757.2378769-.4460526.2329178-.7285538 0-.2230225-.0644302-.3617783-.1982536-.4212418-.12883-.054512-.3122292-.0148849-.5401878.1189346-.267643.1536331-.5203743.3816223-.7533226.6740112l-.0545082.0743484c-.0396576.0445938-.0842438.0842438-.1387825.1139832-.0990944.0594711-.1833687.0693893-.2527313.0446167-.0743523-.0247726-.1090469-.0991287-.1090469-.2081757 0-.0495453 0-.0990982.009922-.1536331l.2180634-1.6503296c.0148544-.1090469.04459-.2032089.0991287-.2924194.0545082-.0892029.1238976-.1585922.2031822-.2081375l1.6007805-.921814c.0693893-.0396538.1288605-.0446167.1734772-.0198402.0545082.0297318.0743217.0842743.0743217.1635551 0 .0792847-.0198135.158596-.0693626.2428398-.0495758.0793114-.1090469.1437111-.1784363.1833687l-1.4174118.8177567-.1437111 1.1844864c.242836-.2725983.5154114-.4955978.8028679-.6641159.2478027-.1437149.4658661-.2131042.6492348-.1982498.1784096.0049591.3171921.0892334.4113579.2329483C60.5999603 65.6063232 60.644577 65.8095322 60.644577 66.0672226zM68.1859894 58.8112411c-.2527542.1486778-.4807434.3370056-.669075.5600319-.1932602.2329178-.3419647.4807205-.4410629.7434006-.1040878.2626534-.1536331.5203743-.1536331.768177 0 .2775345.054512.4955978.148674.6442719.0991287.1536369.242836.2329483.4162903.2478027.1784363.0148811.3865814-.0495491.614563-.1833725.2576981-.1437111.4708023-.3221207.6442795-.5154114.1337891-.1536369.2477951-.3171921.3370056-.4757881-.0247726.3320732-.1040878.6740074-.2378845 1.015976-.1437378.3717003-.4014282.6641159-.763237.872261-.2279587.1338196-.446022.2081718-.6492386.2131042-.0346985.0049591-.0644302.0148811-.0991287.0346947-.0693588.0396576-.12883.1040878-.1734467.1883316-.0446167.0793114-.0644302.158596-.0644302.2279854 0 .0495491.0099258.0892067.0346985.1239014.0198135.0297356.0545044.0445862.0892029.0495491.1239014 0 .2577209-.0148544.4014359-.0495491s.3072662-.1139793.5005569-.2230263c.3469315-.1982536.6393204-.4757881.8573837-.8177528.2230225-.3419647.3816223-.6987839.4757843-1.0754433.0941696-.3717003.1387558-.7285194.1387558-1.0655251C69.5885468 58.7022247 69.1177216 58.2710266 68.1859894 58.8112411zM68.1562576 61.0067482c-.2279892.1288605-.4113541.158596-.5253372.0793152-.1239014-.0793152-.1833649-.2478027-.1833649-.4956017 0-.1387825.0297318-.2874565.0892029-.4410934.0594711-.1536331.148674-.3023071.2576904-.4361305.114006-.1387825.2428665-.2477989.3865814-.3320427.5005646-.2874565.7880173-.1239014.8821869.5005302C68.8748856 60.397171 68.577507 60.7639084 68.1562576 61.0067482z"/></g></g><g><path fill="#4c5c75" d="M42.7561493 70.5078735c-.1162033.2842026-.3229103.5296173-.6458244.7104721-.2970505.1679153-.6199646.2711945-.9428749.2841187l-.1549911-.0387039-.1162834-.1421432c-.0387077-.0774994-.0516357-.1549911-.0387077-.2324905.0128517-.0774918.0516396-.1420593.1032753-.1807632.0387878-.0129318.0774956-.0258636.1162834-.0258636.2324867-.0129242.4520454-.0904236.6845322-.2195587.1808472-.1162796.3358383-.2454147.4262619-.4004059.0904274-.1421356.0904274-.2971268 0-.4650497-.0645638-.1291351-.2712708-.5424652-1.084938-.0645676l-.0646439.025856c-.0645676.0387115-.1291313.0516434-.2066269.0129318-.0774956-.025856-.1291351-.0904236-.167923-.167923-.038784-.0774918-.0516357-.1549911-.025856-.2324829.012928-.0774994.0517159-.1421432.1162834-.1808472l.025856-.0129318c.2454185-.1420593.4132576-.3099823.5036812-.4649734.0774956-.167923.0646477-.3229141-.012928-.4908295-.0645676-.1292114-.1678429-.2195587-.2970543-.2454147-.1291313-.0258636-.2970505.025856-.4908295.1291275-.2066269.1292191-.3874779.2842026-.5037613.4908371-.0257797.051712-.0645676.0774918-.0903435.0904236-.0646477.0387878-.1162834.0387878-.180851.0129242-.0645676-.025856-.1162834-.0774918-.1549911-.1549911-.0517159-.1033478-.0517159-.2067032-.012928-.3099747.1808472-.3229141.4004059-.5683289.6845284-.7362518.3229141-.1808472.6071167-.2324829.8654594-.1679153.2711945.0645599.4779015.2454147.6328926.555397.1291351.2583389.180851.4778976.1549911.6845245-.025856.1292114-.0645638.2454224-.1162796.361702.1292114-.0129318.2583427.0129318.3875542.0645676.2066307.0774918.3874779.2583466.542469.555397C42.8465729 69.8879089 42.8724327 70.2108231 42.7561493 70.5078735zM52.3664207 65.0183868c-.012928.0775681-.0645638.1421356-.1291313.1808472-.0646439.0387878-.1421394.0387878-.219635.0129318-.0645676-.0258636-.1291351-.0904312-.167923-.167923l-1.2141495-2.428299.4391937 2.9320602c.0129318.0904236 0 .1808472-.038784.2454147-.0257797.0904236-.0774956.1549911-.1420631.1808472-.0645676.0387115-.1420631.0516357-.2195587.0387115-.0774956-.0129318-.1549911-.0516357-.2195587-.1162033l-2.0278893-2.0021133 1.2141495 2.428299c.0387077.0774918.0516357.1679153.0257797.2454147-.0128517.0904236-.0645676.1549911-.1291351.193779-.0645638.025856-.1420593.0387039-.2066269.0129242-.0774956-.0387802-.1421432-.1033478-.180851-.1808472l-1.4854202-2.9578362c-.0516396-.1162834-.0774956-.2325668-.0516396-.3487701.0258598-.1162834.0774956-.193779.1679192-.2583427l.1291351-.0774956c.0645676-.0258598.1420631-.0387115.2195587-.0258598.0774956.012928.1421394.0646439.206707.1162834l2.1570244 2.1440926-.4649734-3.1128273c-.0129318-.0904236-.0129318-.1808472.025856-.2454147.0257797-.0774956.0774956-.1420631.1420631-.180851l.1291313-.0774956c.0904274-.0516357.180851-.0516357.2842026-.012928.1032753.0387878.1807709.1162834.2454185.2324867l1.4724121 2.9708443C52.3664207 64.837616 52.3922806 64.9280396 52.3664207 65.0183868zM59.2193298 58.7457848c-.1705475-.1382751-.3628769-.2185211-.5621414-.2400894-.1900711-.017746-.3892288.0334549-.5748901.1406441-.2081413.1202049-.3613701.2633247-.4596329.4292984-.0540504.0949821-.0933113.1904984-.1234322.2898369-.0848694-.2424011-.1310158-.479908-.1363411-.722683-.0075798-.305275.1215515-.5255699.3972435-.6847153.1800117-.1039619.369976-.1590385.5734367-.1580696.0351753-.0020981.0693817-.0127449.0999832-.0304413.0612602-.0353355.1083755-.0989609.1213913-.1793137.0111313-.0793304.0018806-.1559181-.0370064-.2336884l-.104393-.1218719-.1373596-.0572777c-.1330605-.0051651-.268219 0-.4075699.0258141-.1337051.0225906-.2849426.0825577-.4368286.1702766-.2813377.1623726-.473774.4010086-.5584297.695797-.0847092.2947845-.0940132.6097908-.031517.9380302.0624962.328186.1679649.6407738.316246.937603.6145782 1.2299156 1.3170967 1.6348495 2.076622 1.1963539.2081413-.1202049.3655663-.2839203.4644737-.4776497.110199-.2002335.157692-.4098282.1467209-.6493759-.0074234-.2325058-.0648651-.4635048-.1743126-.6825638C59.5479431 59.0842972 59.399128 58.8879356 59.2193298 58.7457848zM59.2756386 59.9610176c.0044136.124939-.0221558.2313194-.0783081.3365746-.0525436.1123543-.1397285.1991043-.2465935.260849-.3769684.2176056-.7249451.0724449-1.0679741-.4398918-.0217819-.4063873.1219788-.6988602.4370422-.8807564.1744194-.1006813.3321114-.1188583.4856606-.0436172.1501122.0681953.272789.1977615.3787422.4097748C59.2407341 59.7170563 59.2711754 59.8360786 59.2756386 59.9610176zM68.545929 55.0308533c-.0088196.2819862-.079277.5286903-.2114792.7489853-.1321945.2027092-.2996216.3701363-.4934616.475872-.202652.1145592-.4141312.1674271-.6432419.1761932-.2467575 0-.4758759-.0704536-.6961746-.220295-.2291107-.1497841-.4229507-.3876686-.5815582-.6961136l-.978096-1.9650269c-.0352859-.0793304-.0528717-.1674271-.0352859-.2467575.0088196-.0880966.0616913-.1586037.1233826-.1938324.0616837-.0352821.1409607-.0352821.2202911-.0088196.0793304.0264053.1409683.0969162.1762466.1674271l.9869232 1.9826622c.0969162.18507.2026596.317215.3348541.405365.1233826.0969162.2643433.1409645.4053116.1321449.1410217.0088196.2819901-.0264091.405365-.1057358.1233749-.0616913.2291183-.1674271.2996292-.2908058.079277-.1233253.1233215-.2731667.1145554-.4405937.0087662-.1674271-.0352783-.3436203-.1322021-.5286903l-.9869156-1.9738426c-.0352325-.0793304-.0528717-.1674271-.0352325-.2555771.0087662-.079277.0616379-.1497879.1233292-.1850166.0616837-.0352783.1410141-.0440483.2202911-.0088196.0793304.0264091.1410217.0880966.1762466.1674271l.9781036 1.965023C68.4754181 54.4404755 68.545929 54.748867 68.545929 55.0308533z"/></g></g><g><path fill="#9ea9c9" d="M59.1401787,116.2892151c0,0-7.3184967-7.7619019-9.2340355-6.2682114
								c-1.915535,1.4936905-0.2171707,5.7004089,1.7573051,8.424202s5.4602585,7.1728592,7.3757935,7.2607193
								c1.915535,0.0878677,5.2636833-1.2526398,5.2636833-1.2526398l-2.8151588-6.6123581L59.1401787,116.2892151z"/><path fill="#46556b" d="M115.6922226,95.0857697c0,0-8.1799927,9.0800171-11.9100342,12.2000122
								c-3.7199707,3.1199951-14.8299561,4.789978-14.8299561,4.789978
								c-8.4800415,8.3500366-24.6500244,12.3800049-24.6500244,12.3800049
								c-0.9600182,0.6300049-6.1300011-7.5299683-5.1599693-8.1699829
								c10.5197029-4.1130676,19.6899529-9.3604431,26.7399864-16.3900146
								c1.75-1.8099976,19.9199829-9.2199707,19.9199829-9.2199707L115.6922226,95.0857697z"/><path fill="#b0b8cf" d="M67.2802429,126.4180527c0,0-6.6705704-8.3370361-8.2586365-8.0718002
								c-1.5880661,0.2652283-2.6835403,3.375351-1.7673454,6.4924469
								c0.9161949,3.1170883,7.1242561,10.0232086,8.9505272,10.299408
								c1.8262787,0.2761993,3.7271881-1.7730103,3.7271881-1.7730103L67.2802429,126.4180527z"/><path fill="#4c5c75" d="M130.4538116,96.2906494c0,0,6.1748962,13.8645172-28.7977219,23.6624146
								c0,0-14.483345,13.0825195-31.7240906,13.4120331c-0.7391205,0.2154846-3.3908768-6.7315598-2.6517487-6.9470444
								c10.0905762-4.6050034,18.6298218-9.9261398,25.6131897-15.0838928
								c5.7616425-5.4489517,13.0675125-10.0738144,20.4725723-15.0667572L130.4538116,96.2906494z"/><path fill="#f4d6d4" d="M85.094841,80.0370026c-5.1573029,0.903244-11.5193939-2.1216431-11.2868652-4.4743271
								c0.2430496-2.3421631,6.6791306-1.1447983,6.6791306-1.1447983s-1.0145721-1.2078781-1.4689941-2.2897263
								c-0.4438477-1.0712738,1.0673981-1.9115067,1.9234238-1.0292816c0.887764,0.9032516,4.5866394,3.3190079,4.5866394,3.3190079
								S90.2521439,79.1442642,85.094841,80.0370026z"/><path fill="#986ff9" d="M108.2676697,73.4412842c0.3636932,0.2798233-1.21064,9.4413757-3.9060822,9.9554443
								c-4.6138611,0.8799438-20.015358-2.8787613-20.015358-2.8787613
								c-0.9033966-0.1631851,0.4632721-6.6758575,1.3666687-6.5126724l14.4309006,1.9590149
								c1.616745-15.4954224,9.3071136-19.8724861,9.3071136-19.8724861L108.2676697,73.4412842z"/><path fill="#b28afd" d="M108.5726395,56.900177c0,0,2.7658844-4.2704964,13.0885391,0
								s11.6899872,9.0048141,11.6405945,10.7228317s1.8643036,30.6147995-2.6796417,33.314537
								c-4.5439377,2.6997452-9.7018127,0.4899673-14.1963654-0.6881027s-11.8043823-6.0866928-10.6190033-9.5718079
								c1.185379-3.4851227,2.5189285-3.1415176,2.3213654-7.4120178S104.1274796,62.5450935,108.5726395,56.900177z"/><g><path fill="#f5c9c6" d="M124.585434,52.5634308l-0.5044708,3.8361168l-0.1204834,1.5406342
									c-3.2967682,4.0710831-8.6434479,2.0039139-8.6434479,2.0039139l-0.2463303-1.5857124
									c2.6279831-0.3381081,5.2911301-2.0055199,6.8984909-3.1715012
									C122.8960037,54.5339394,124.585434,52.5634308,124.585434,52.5634308z"/><path fill="#f4d6d4" d="M123.4586487,54.0256195c0,0-0.55616,0.5076332-1.4869003,1.1619186
								c-1.6004486,1.1731415-4.2791367,2.8314056-6.9010773,3.1810951c-0.022728,0-0.0681,0.0225143-0.1134796,0.0225143
								c-0.7718201,0.0902634-1.5550003,0.1015549-2.2814484-0.1353607
								c-3.4732208-1.1505585-2.3836288-13.908741-0.9988403-15.5895882
								c2.1111603,1.6695557,5.346077,3.3277473,9.1484375,2.5381012h0.0113678
								c0.0908203,0.0676804,0.1702118,0.1353607,0.2383118,0.2256241c0.3064804,0.3045959,0.4994202,0.6880913,0.6129684,1.1167526
								c0.4994202,1.9515648,3.2478027-1.5775375,3.2478027-1.5775375l-1.4418869,3.2434044
								c0,0,0.1690445-0.8762207,1.6105728,0.6240997C126.5686569,50.3143768,123.4586487,54.0256195,123.4586487,54.0256195z"/><path fill="#8a4852" d="M123.4719467,57.0956345c0,0,2.0475388-7.4627686,0.3482132-7.9291573
									c-1.6668243-0.4664841-1.3917389,3.0398064-1.3917389,3.0398064h-1.0195541v-1.9783363
									c-1.5212326-0.9488716-1.6668243-3.4417953-1.6668243-3.4417953s-3.6736374,0.6915779-6.8778915-0.1125984
									c-3.2366562-0.8363724-3.3175583-2.1230316-3.3175583-2.1230316c-1.5212326-5.56493,4.0619202-5.9509201,7.816452-6.5460014
									c3.7545319-0.6111794,8.7066116,1.141964,9.9527588,7.5913696
									C128.5619507,52.0775909,123.4719467,57.0956345,123.4719467,57.0956345z"/></g><g><path fill="#dedffb" d="M119.4522324,102.0257721c0.0899658-0.1499634,0.039978-0.3299561-0.1700439-0.4400024
																	L97.2322006,88.9257965c-0.289978-0.1600342-0.7700195-0.1600342-1.0599976,0l-13.4699707,7.7799683
																	c-0.1500244,0.0900269-0.2200317,0.2000122-0.2200317,0.3099976v0.5800171
																	c0,0.1099854,0.0700073,0.2200317,0.2200317,0.3099976l22.0499878,12.6500244
																	c0.289978,0.1599731,0.7600098,0.1699829,1.0499878,0l13.4799805-7.7800293
																	c0.1400146-0.0799561,0.210022-0.2000122,0.210022-0.3099976l0.0100098-0.5799561
																	C119.5022202,101.9358063,119.4822006,101.9857941,119.4522324,102.0257721z M104.7522202,109.9757843
																	l-12.0300293-6.9099731l12.0300293,6.8999634c0.0299683,0.0100098,0.0499878,0.0300293,0.0700073,0.0300293
																	C104.8022079,109.9958038,104.7721786,109.9857941,104.7522202,109.9757843z"/><path fill="#dedffb" d="M119.498642,101.8852386l-0.0041199,0.5846939
																						c0,0.110527-0.0700302,0.221077-0.2142258,0.3029633l-13.4749603,7.7829361
																						c-0.2924728,0.1678467-0.7662277,0.1637497-1.0545959,0l-22.0517807-12.654953
																						c-0.1441727-0.0818863-0.2183456-0.1924133-0.2183456-0.3070602l0.0041199-0.5846939
																						c0,0.1146469,0.0700531,0.2251968,0.2183533,0.3070602l22.0517731,12.6549454
																						c0.2883759,0.1637497,0.7621307,0.1678467,1.0545959-0.004097l13.4749603-7.7788315
																						C119.4285965,102.106308,119.498642,101.9957886,119.498642,101.8852386z"/><path fill="#f3f1fc" d="M82.7037201,97.317688l22.0503693,12.6516342
																						c0.288887,0.1694565,0.7624741,0.1694565,1.0560989,0l13.4736557-7.7801743
																						c0.2888794-0.1694336,0.2841415-0.4424362-0.0047455-0.6071854l-22.0503693-12.656311
																						c-0.2888794-0.1647568-0.7672119-0.1647568-1.0561295,0l-13.4736252,7.7801666
																						C82.4053574,96.8752518,82.4148026,97.1529617,82.7037201,97.317688z"/><g><path fill="#dedffb" d="M100.3690491,96.0963898l3.7051239-2.1445999
																					c0.1512375-0.0867233,0.3722305-0.0867233,0.5118561,0l5.7409058,3.2891998
																					c0.1454163,0.0809326,0.1454163,0.2138824,0,0.2948151l-0.0058212,0.0057526l-5.7350845-3.2891998
																					c-0.1396255-0.0866852-0.3606186-0.0866852-0.5118561,0l-3.6993332,2.138855h-0.0057907
																					C100.2236404,96.3103104,100.2236404,96.17733,100.3690491,96.0963898z"/><path fill="#fff" d="M104.5860291,94.2523575l5.7350845,3.2891998l-3.699295,2.138855
																					c-0.1512375,0.0867233-0.3780899,0.0867233-0.5293274,0l-5.7176514-3.2891998l3.6993332-2.138855
																					C104.2254105,94.1656723,104.4464035,94.1656723,104.5860291,94.2523575z"/></g><g><polygon fill="#4c5c75" points="96.188 102.818 95.74 103.078 96.781 103.675 97.23 103.416"/><polygon fill="#4c5c75" points="96.201 96.255 95.167 96.852 96.206 97.449 97.24 96.851"/><polygon fill="#4c5c75" points="87.646 97.917 87.197 98.176 88.237 98.772 88.685 98.513"/><polygon fill="#4c5c75" points="92.148 99.792 93.183 99.195 92.143 98.598 91.109 99.196"/><polygon fill="#4c5c75" points="96.27 97.854 95.238 98.45 96.279 99.047 97.311 98.451"/><polygon fill="#4c5c75" points="97.614 103.636 97.165 103.895 98.206 104.493 98.655 104.234"/><polygon fill="#4c5c75" points="96.422 102.244 97.456 101.647 96.415 101.049 95.38 101.647"/><polygon fill="#4c5c75" points="95.817 96.035 91.928 93.803 90.893 94.401 94.783 96.632"/><polygon fill="#4c5c75" points="97.624 97.072 96.59 97.669 97.631 98.266 98.665 97.669"/><polygon fill="#4c5c75" points="99.049 97.889 98.014 98.487 99.054 99.083 100.088 98.486"/><polygon fill="#4c5c75" points="99.27 103.879 100.304 103.281 99.263 102.684 98.229 103.281"/><polygon fill="#4c5c75" points="92.07 97 91.036 97.597 92.077 98.195 93.112 97.597"/><polygon fill="#4c5c75" points="93.342 101.185 92.893 101.444 93.933 102.041 94.382 101.782"/><polygon fill="#4c5c75" points="97.558 96.668 98.592 96.07 97.553 95.474 96.518 96.072"/><polygon fill="#4c5c75" points="97.845 103.061 98.879 102.463 97.838 101.866 96.804 102.463"/><polygon fill="#4c5c75" points="100.462 105.27 100.013 105.53 101.054 106.127 101.503 105.868"/><polygon fill="#4c5c75" points="100.542 100.304 99.509 100.901 100.55 101.498 101.583 100.902"/><polygon fill="#4c5c75" points="100.472 98.706 99.438 99.303 100.479 99.901 101.513 99.303"/><polygon fill="#4c5c75" points="100.622 103.097 101.656 102.5 100.615 101.903 99.58 102.5"/><polygon fill="#4c5c75" points="99.037 104.453 98.588 104.712 99.629 105.309 100.078 105.05"/><polygon fill="#4c5c75" points="100.693 104.695 101.727 104.098 100.686 103.5 99.651 104.098"/><polygon fill="#4c5c75" points="89.069 98.733 88.62 98.992 89.662 99.59 90.11 99.331"/><polygon fill="#4c5c75" points="90.335 97.561 87.87 96.147 86.836 96.744 89.3 98.158"/><polygon fill="#4c5c75" points="94.847 97.037 93.814 97.633 94.854 98.23 95.887 97.633"/><polygon fill="#4c5c75" points="94.996 101.426 96.031 100.829 94.992 100.233 93.957 100.83"/><polygon fill="#4c5c75" points="93.5 99.011 94.534 98.414 93.495 97.818 92.461 98.415"/><polygon fill="#4c5c75" points="96.134 95.851 97.169 95.254 96.128 94.656 95.093 95.254"/><polygon fill="#4c5c75" points="89.613 96.781 90.652 97.377 91.687 96.78 90.647 96.183"/><polygon fill="#4c5c75" points="91.917 100.367 91.468 100.627 92.51 101.224 92.959 100.965"/><polygon fill="#4c5c75" points="93.422 96.219 92.39 96.816 93.431 97.413 94.463 96.817"/><polygon fill="#4c5c75" points="94.918 98.634 93.884 99.232 94.925 99.829 95.96 99.232"/><polygon fill="#4c5c75" points="99.118 99.488 98.086 100.084 99.127 100.681 100.16 100.085"/><polygon fill="#4c5c75" points="94.765 102.002 94.317 102.261 95.358 102.859 95.807 102.599"/><polygon fill="#4c5c75" points="96.348 100.646 97.383 100.048 96.343 99.452 95.309 100.049"/><polygon fill="#4c5c75" points="97.695 98.671 96.663 99.268 97.702 99.864 98.735 99.268"/><polygon fill="#4c5c75" points="99.197 102.28 100.231 101.683 99.19 101.085 98.155 101.683"/><polygon fill="#4c5c75" points="94.709 95.034 95.744 94.436 93.28 93.022 92.245 93.62"/><polygon fill="#4c5c75" points="90.494 99.551 90.045 99.81 91.085 100.406 91.533 100.147"/><polygon fill="#4c5c75" points="97.773 101.463 98.808 100.866 97.767 100.269 96.732 100.866"/><polygon fill="#4c5c75" points="90.263 95.963 89.222 95.366 88.188 95.963 89.229 96.56"/><polygon fill="#4c5c75" points="93.038 95.999 90.574 94.585 89.541 95.181 92.006 96.595"/><polygon fill="#4c5c75" points="87.262 97.697 86.221 97.099 85.772 97.358 86.813 97.956"/><polygon fill="#4c5c75" points="90.725 98.976 91.759 98.378 90.718 97.781 89.684 98.378"/><polygon fill="#4c5c75" points="93.573 100.61 94.608 100.012 93.567 99.415 92.532 100.012"/><polygon fill="#4c5c75" points="101.895 99.522 100.861 100.12 101.902 100.717 102.937 100.12"/><polygon fill="#4c5c75" points="101.967 101.122 100.934 101.718 101.975 102.316 103.008 101.719"/><polygon fill="#4c5c75" points="103.31 106.904 102.861 107.164 103.902 107.761 104.351 107.502"/><polygon fill="#4c5c75" points="101.885 106.087 101.436 106.346 102.478 106.943 102.926 106.684"/><polygon fill="#4c5c75" points="102.045 103.914 103.079 103.317 102.038 102.719 101.004 103.317"/><polygon fill="#4c5c75" points="103.541 106.329 104.575 105.732 103.534 105.134 102.5 105.732"/><polygon fill="#4c5c75" points="102.118 105.513 103.152 104.915 102.111 104.318 101.077 104.915"/><polygon fill="#4c5c75" points="103.32 100.34 102.286 100.938 103.327 101.535 104.362 100.938"/><polygon fill="#4c5c75" points="103.39 101.938 102.357 102.535 103.398 103.132 104.431 102.536"/><polygon fill="#4c5c75" points="103.463 103.537 102.428 104.134 103.47 104.732 104.504 104.134"/><polygon fill="#4c5c75" points="104.733 107.721 104.284 107.98 105.325 108.578 105.774 108.318"/><polygon fill="#4c5c75" points="104.744 101.157 103.709 101.754 104.75 102.352 105.785 101.754"/><polygon fill="#4c5c75" points="104.893 105.548 105.927 104.951 104.886 104.353 103.852 104.951"/><polygon fill="#4c5c75" points="104.815 102.756 103.782 103.353 104.824 103.95 105.856 103.354"/><polygon fill="#4c5c75" points="106 106.549 104.959 105.952 103.925 106.549 104.966 107.147"/><polygon fill="#4c5c75" points="108.95 103.205 109.985 102.607 108.944 102.01 107.909 102.607"/><polygon fill="#4c5c75" points="105.277 105.769 107.741 107.183 108.775 106.585 106.311 105.171"/><polygon fill="#4c5c75" points="106.102 101.571 107.137 100.973 98.976 96.291 97.942 96.888"/><polygon fill="#4c5c75" points="106.247 104.767 107.279 104.17 106.238 103.573 105.205 104.169"/><polygon fill="#4c5c75" points="108.054 105.804 109.095 106.401 110.127 105.805 109.086 105.207"/><polygon fill="#4c5c75" points="112.833 104.242 110.368 102.828 109.334 103.425 111.799 104.839"/><polygon fill="#4c5c75" points="106.169 101.974 105.134 102.572 106.175 103.169 107.21 102.572"/><polygon fill="#4c5c75" points="107.527 102.388 108.562 101.791 107.521 101.193 106.486 101.791"/><polygon fill="#4c5c75" points="109.017 103.609 107.982 104.206 109.024 104.803 110.058 104.206"/><polygon fill="#4c5c75" points="105.348 107.366 106.389 107.963 107.424 107.366 106.382 106.769"/><polygon fill="#4c5c75" points="109.405 105.023 110.446 105.62 111.481 105.023 110.44 104.425"/><polygon fill="#4c5c75" points="107.592 102.791 106.557 103.389 107.599 103.986 108.633 103.389"/><polygon fill="#4c5c75" points="107.663 104.391 106.63 104.987 107.671 105.584 108.704 104.988"/></g><g><path fill="#9ea9c9" d="M105.5010605,109.7503204l-5.0316162-13.1040649
							c-0.1680908-0.4406738-0.7116699-1.0270996-1.2123413-1.3150024L75.961998,81.9642487
							c-0.2932739-0.1705933-0.5078125-0.1990356-0.6008301-0.1030884l-0.5046997,0.5006104
							c0.0057373-0.0057373,0.0211792-0.0009155,0.027832-0.0056763c-0.0831299,0.0606079-0.1066895,0.1836548-0.0305176,0.382019
							l5.0321045,13.1038818c0.168396,0.4384155,0.7116699,1.0280151,1.2139893,1.3162231l23.2960815,13.3670654
							c0.3485107,0.2000122,0.5736694,0.1898193,0.6279907,0.0234375c-0.008606,0.0269775-0.0101318,0.0606079-0.0275879,0.0788574
							l0.5011597-0.5005493C105.5654526,110.0595245,105.5725937,109.9315338,105.5010605,109.7503204z"/><path fill="#4c5c75" d="M74.8564606,82.3617477c0.0929871-0.0924149,0.3075485-0.0639725,0.6007919,0.1030579
												l23.2951202,13.3670197c0.5006485,0.2878799,1.0442352,0.874321,1.212326,1.3150253l5.0316391,13.1040192
												c0.0715256,0.1812592,0.0643921,0.3092041,0,0.3767319l0.5011673-0.5005722
												c0.0679474-0.0675278,0.0750809-0.1954727,0.0035782-0.3767395l-5.031662-13.1040115
												c-0.1680908-0.440712-0.7116547-1.0271454-1.212326-1.3150253L75.9619751,81.9642334
												c-0.293251-0.1705933-0.5078125-0.199028-0.6007919-0.1030655L74.8564606,82.3617477z"/><path fill="#9ea9c9" d="M75.4572678,82.4646759c-0.5023117-0.2882233-0.7726593-0.1670532-0.603508,0.273407
												L79.88591,95.8419647c0.1683807,0.4384689,0.7116699,1.0280533,1.2139816,1.3162689l23.2960587,13.3670731
												c0.5000381,0.286911,0.7695999,0.1637344,0.6012192-0.2747269L99.9650192,97.146698
												c-0.1691513-0.4404678-0.7116547-1.028038-1.2116928-1.3149567L75.4572678,82.4646759z"/><g><path fill="#fff" d="M87.9644775,95.3685379c0.3658981,0.9501801,1.5383377,2.2248611,2.6202927,2.8426666
										c1.081955,0.621727,1.6642609,0.355835,1.3022766-0.5904312c-0.3658905-0.9501572-1.5383301-2.2248611-2.6242218-2.8465576
										C88.1848068,94.1564102,87.6025238,94.4222946,87.9644775,95.3685379z"/></g></g></g><g><path fill="#f4d6d4" d="M110.5512161,94.8254547c0,0-7.7659149-1.6367874-8.9750595,0.1450348
							s3.7138824,2.1547623,3.7138824,2.1547623s-2.0675278,1.9223785-5.0300446,2.8534775
							c-2.3501892,0.7386475,0.0910873,4.6334915,3.7773285,3.2264023c3.6862411-1.4070816,6.5138931-2.889183,6.5138931-2.889183
							V94.8254547z"/></g><g><path fill="#986ff9" d="M131.3322449,92.7857819c-3.610054,4.6699829-21.0111313,7.9315948-21.0111313,7.9315948
						c-0.6799927,0-1.6389008-6.2715607-0.9589081-6.2715607l14.789978-5.9100342
						c0.8300171-0.3499756,1.3400269-1.1799927,1.2600098-2.0599976
						c-0.3099976-3.7999878-0.9199829-16.7340469,0.9100342-21.7140274
						c0.7600098-2.0500488,3.6524277-2.7343025,5.2024155-1.1943245c0.75,0.7400475,1.4500122,1.8600426,1.8099976,3.550045
						C134.314621,71.7674408,134.8522034,88.2257843,131.3322449,92.7857819z"/></g></g></g></svg>