<svg xmlns="http://www.w3.org/2000/svg" viewBox="0 0 5000 5000"><path fill="#fff" d="M3205.202 4026.012c0-121.116 98.537-219.653 219.653-219.653h404.624V1286.127H1170.52v2994.219c0 82.867 67.422 150.289 150.289 150.289h1884.393v-404.623zm-1167.11-479.747h-364.139c-82.867 0-150.289-67.422-150.289-150.289v-292.269a34.676 34.676 0 0 1 10.161-24.521l24.375-24.372v-820.737c-19.08-.082-34.535-15.559-34.535-34.667v-190.718c0-82.867 67.422-150.289 150.289-150.289h364.139c19.147 0 34.682 15.523 34.682 34.682 0 .858-.192 1.661-.254 2.504h856.045c-.062-.843-.254-1.646-.254-2.504 0-19.159 15.534-34.682 34.682-34.682h364.139c82.867 0 150.289 67.422 150.289 150.289v190.718c0 19.159-15.535 34.682-34.682 34.682l-.146-.016v825.989l24.668 24.687a34.714 34.714 0 0 1 10.161 24.521v286.703c0 82.867-67.422 150.289-150.289 150.289h-364.139c-18.289 0-33.124-14.212-34.428-32.178h-856.045c-1.306 17.966-16.141 32.178-34.43 32.178z"/><path fill="#fefc93" d="M2414.215 769.057h-33.57v112.121h33.57c44.453 0 61.49-30.484 61.49-57.867 0-29.968-19.12-54.254-61.49-54.254z"/><path fill="#fefc93" d="M3829.48 650.289c0-44.617-36.308-80.925-80.925-80.925h-2497.11c-44.617 0-80.925 36.308-80.925 80.925v566.474h2658.96V650.289zM2224.553 969.013c0 48.571-8.778 109.022-93.524 109.022-17.042 0-37.188-2.584-55.8-6.723v-58.896c11.386 2.584 25.837 4.643 35.128 4.643 32.56 0 40.818-20.662 40.818-53.214V712.23h73.378v256.783zm203.102-30.998h-47.01v135.881h-73.383V712.23h106.953c131.26 0 138.988 90.419 138.988 113.15 0 47.531-33.068 112.635-125.548 112.635zm497.116 120.377c-17.059 4.653-71.3 19.643-126.597 19.643-114.173 0-190.644-67.174-190.644-184.977 0-119.347 79.051-184.965 199.953-184.965 37.73 0 68.721 3.099 105.926 15.504l-4.143 64.579c-37.2-17.047-73.88-21.177-103.335-21.177-73.361 0-120.879 47.531-120.879 126.06 0 76.985 46.469 124.001 117.769 124.001 18.086 0 32.057-1.03 48.574-7.227v-86.29h-73.892v-56.828h147.269v191.677zm500.084 2817.33c-82.867 0-150.289 67.423-150.289 150.289v355.582l505.871-505.871h-355.582z"/><path fill="#85dae5" d="m1910.721 2751.332 139.88 139.88 428.197-428.197a34.697 34.697 0 0 1 24.521-10.161c9.19 0 18.019 3.658 24.521 10.161l422.846 422.858 134.325-134.519c12.961-13.017 36.037-13.062 49.065 0l308.515 308.711v-825.989c-19.08-.082-34.535-15.559-34.535-34.667v-190.718c0-44.617-36.308-80.925-80.925-80.925h-364.139c-18.289 0-33.124-14.212-34.428-32.178H2072.52c-1.304 17.966-16.138 32.178-34.428 32.178h-364.139c-44.617 0-80.925 36.308-80.925 80.925v190.718c0 19.159-15.535 34.682-34.682 34.682l-.147-.016v820.737l303.479-303.482c13.548-13.546 35.495-13.546 49.043.002zm421.197-499.853H1962.97c-19.147 0-34.682-15.523-34.682-34.682s15.535-34.682 34.682-34.682h368.949c19.147 0 34.682 15.523 34.682 34.682s-15.535 34.682-34.683 34.682zm717.734-208.093c133.874 0 242.774 108.912 242.774 242.774 0 133.863-108.901 242.775-242.774 242.775-133.874 0-242.775-108.912-242.775-242.775.001-133.861 108.902-242.774 242.775-242.774zm-774.544 0h225.434c19.147 0 34.682 15.523 34.682 34.682s-15.535 34.682-34.682 34.682h-225.434c-19.147 0-34.682-15.523-34.682-34.682s15.535-34.682 34.682-34.682zm-531.791 0h309.226c19.147 0 34.682 15.523 34.682 34.682s-15.535 34.682-34.682 34.682h-309.226c-19.147 0-34.682-15.523-34.682-34.682s15.534-34.682 34.682-34.682zm-34.683 312.139c0-19.159 15.535-34.682 34.682-34.682h154.624c19.147 0 34.682 15.523 34.682 34.682s-15.535 34.682-34.682 34.682h-154.624c-19.147 0-34.682-15.523-34.682-34.682z"/><circle cx="3049.652" cy="2286.161" r="173.41" fill="#fefc93"/><path fill="#d3f990" d="M2928.31 3511.583c0-19.159 15.534-34.682 34.682-34.682h364.139c44.617 0 80.925-36.308 80.925-80.925v-272.343l-114.676-114.749h-219.693l71.385 71.385c13.548 13.548 13.548 35.506 0 49.043-6.774 6.774-15.648 10.161-24.521 10.161s-17.747-3.387-24.521-10.161l-350.941-350.957h-483.545l-161.9 161.899 140.015 140.015c13.548 13.536 13.548 35.506 0 49.043-13.548 13.548-35.495 13.548-49.043 0l-120.428-120.428H1702.21l-109.183 109.183v277.908c0 44.617 36.308 80.925 80.925 80.925h364.139c19.147 0 34.682 15.523 34.682 34.682 0 .858-.192 1.661-.254 2.504h856.045c-.062-.842-.254-1.645-.254-2.503z"/><path fill="#fff" d="m1886.199 2824.896-183.989 183.989h367.978zM2999.735 2934.927l73.953 73.958h219.693l-183.825-183.944zM2261.544 2778.356h483.545l-241.77-241.777z"/><path fill="#333" d="M1593.027 2199.411v-190.718c0-44.617 36.308-80.925 80.925-80.925h364.139c18.29 0 33.124-14.212 34.428-32.178.062-.843.254-1.646.254-2.504 0-19.159-15.535-34.682-34.682-34.682h-364.139c-82.867 0-150.289 67.422-150.289 150.289v190.718c0 19.108 15.456 34.585 34.535 34.667l.147.016c19.148-.001 34.682-15.525 34.682-34.683zm1369.965-271.643h364.139c44.617 0 80.925 36.308 80.925 80.925v190.718c0 19.108 15.456 34.585 34.535 34.667l.146.016c19.147 0 34.682-15.523 34.682-34.682v-190.718c0-82.867-67.422-150.289-150.289-150.289h-364.139c-19.147 0-34.682 15.523-34.682 34.682 0 .858.192 1.661.254 2.504 1.305 17.965 16.14 32.177 34.429 32.177zm-924.9 1549.133h-364.139c-44.617 0-80.925-36.308-80.925-80.925v-277.908l109.183-109.183 183.989-183.989 183.989 183.989 120.428 120.428c13.548 13.548 35.495 13.548 49.043 0 13.548-13.536 13.548-35.506 0-49.043l-140.015-140.015 161.9-161.899 241.775-241.777 241.77 241.777 350.941 350.957c6.774 6.774 15.647 10.161 24.521 10.161s17.748-3.387 24.521-10.161c13.548-13.536 13.548-35.495 0-49.043l-71.385-71.385-73.953-73.958 109.821-109.986 183.825 183.944 114.676 114.749v272.343c0 44.617-36.308 80.925-80.925 80.925h-364.139c-19.147 0-34.682 15.523-34.682 34.682 0 .858.192 1.661.254 2.504 1.304 17.966 16.139 32.178 34.428 32.178h364.139c82.867 0 150.289-67.422 150.289-150.289v-286.703c0-9.19-3.658-18.007-10.161-24.521l-24.668-24.687-308.515-308.711c-13.028-13.062-36.104-13.017-49.065 0l-134.325 134.519-422.846-422.858a34.697 34.697 0 0 0-24.521-10.161 34.695 34.695 0 0 0-24.521 10.161l-428.197 428.197-139.88-139.88c-13.548-13.548-35.495-13.548-49.043 0L1558.2 3054.815l-24.375 24.372a34.676 34.676 0 0 0-10.161 24.521v292.269c0 82.867 67.422 150.289 150.289 150.289h364.139c18.29 0 33.124-14.212 34.428-32.178.062-.843.254-1.646.254-2.504 0-19.159-15.535-34.683-34.682-34.683z"/><path fill="#333" d="M3049.652 2528.936c133.874 0 242.774-108.912 242.774-242.775 0-133.862-108.901-242.774-242.774-242.774-133.874 0-242.775 108.912-242.775 242.774.001 133.862 108.902 242.775 242.775 242.775zm173.411-242.775c0 95.624-77.786 173.41-173.41 173.41s-173.41-77.786-173.41-173.41 77.786-173.41 173.41-173.41 173.41 77.786 173.41 173.41zM1743.317 2112.75h309.226c19.147 0 34.682-15.523 34.682-34.682s-15.535-34.682-34.682-34.682h-309.226c-19.147 0-34.682 15.523-34.682 34.682s15.534 34.682 34.682 34.682zm588.601 69.365H1962.97c-19.147 0-34.682 15.523-34.682 34.682s15.535 34.682 34.682 34.682h368.949c19.147 0 34.682-15.523 34.682-34.682s-15.535-34.682-34.683-34.682zm-399.295 173.41c0-19.159-15.535-34.682-34.682-34.682h-154.624c-19.147 0-34.682 15.523-34.682 34.682s15.535 34.682 34.682 34.682h154.624c19.147 0 34.682-15.523 34.682-34.682zm342.485-242.775h225.434c19.147 0 34.682-15.523 34.682-34.682s-15.535-34.682-34.682-34.682h-225.434c-19.147 0-34.682 15.523-34.682 34.682s15.535 34.682 34.682 34.682zM2151.175 963.845c0 32.553-8.259 53.214-40.818 53.214-9.291 0-23.742-2.059-35.128-4.643v58.896c18.611 4.139 38.758 6.723 55.8 6.723 84.746 0 93.524-60.451 93.524-109.022V712.23h-73.378v251.615zm263.04-251.615h-106.953v361.665h73.383v-135.88h47.01c92.48 0 125.548-65.104 125.548-112.635 0-22.73-7.728-113.15-138.988-113.15zm0 168.948h-33.57V769.057h33.57c42.37 0 61.49 24.286 61.49 54.254 0 27.384-17.037 57.867-61.49 57.867zm363.287 42.364h73.892v86.29c-16.517 6.197-30.488 7.227-48.574 7.227-71.3 0-117.769-47.016-117.769-124.001 0-78.529 47.519-126.06 120.879-126.06 29.455 0 66.135 4.129 103.335 21.177l4.143-64.579c-37.205-12.405-68.196-15.504-105.926-15.504-120.902 0-199.953 65.619-199.953 184.965 0 117.803 76.471 184.977 190.644 184.977 55.297 0 109.539-14.99 126.597-19.643V866.713h-147.269v56.829z"/><path fill="#333" d="M3748.555 500h-2497.11c-82.867 0-150.289 67.422-150.289 150.289v3630.058c0 121.117 98.537 219.653 219.653 219.653h1919.075c2.286 0 4.561-.238 6.802-.686 1.315-.262 2.546-.735 3.81-1.143.881-.286 1.795-.468 2.659-.825 1.462-.607 2.805-1.413 4.16-2.206.593-.347 1.23-.594 1.806-.978a35.072 35.072 0 0 0 5.306-4.342l624.232-624.234c2.179-2.176 3.946-4.72 5.487-7.41.339-.601.672-1.187.977-1.805 1.332-2.683 2.433-5.494 3.031-8.515.022-.1.011-.202.034-.302.401-2.114.655-4.282.655-6.513V650.289c.001-82.867-67.421-150.289-150.288-150.289zM1170.52 4280.347v-2994.22h2658.96v2520.231h-404.624c-121.116 0-219.653 98.537-219.653 219.653v404.624H1320.809c-82.866.001-150.289-67.422-150.289-150.288zm0-3630.058c0-44.617 36.308-80.925 80.925-80.925h2497.11c44.617 0 80.925 36.308 80.925 80.925v566.474H1170.52V650.289zm2104.046 3375.723c0-82.867 67.422-150.289 150.289-150.289h355.582l-505.871 505.871v-355.582z"/></svg>