<svg xmlns="http://www.w3.org/2000/svg" enable-background="new 0 0 5000 5000" viewBox="0 0 5000 5000"><path fill="#fff" d="M1320.809,4430.636h1884.393v-404.624c0-121.116,98.537-219.653,219.653-219.653h404.624V1286.127
		H1170.52v2994.219C1170.52,4363.213,1237.943,4430.636,1320.809,4430.636z M3476.879,3395.954
		c0,82.866-67.422,150.289-150.289,150.289h-734.042l-0.085,0.011c-2.98,0-5.978-0.408-8.919-1.197
		c-1.383-0.368-2.642-1.088-3.969-1.626c-1.434-0.583-2.913-0.969-4.296-1.761c-0.04-0.024-0.073-0.056-0.113-0.08
		c-0.051-0.028-0.107-0.038-0.158-0.066l-346.821-202.312c-10.657-6.22-17.206-17.623-17.206-29.963s6.548-23.742,17.206-29.963
		l206.343-120.367c0.056-0.031,0.096-0.075,0.147-0.106c0.051-0.03,0.107-0.044,0.158-0.073l140.173-81.766
		c0.062-0.035,0.135-0.046,0.198-0.082c0.028-0.015,0.045-0.038,0.073-0.054c2.388-1.359,4.877-2.321,7.395-3.068
		c0.802-0.237,1.62-0.361,2.438-0.539c1.965-0.429,3.918-0.697,5.893-0.781c0.502-0.021,0.977-0.196,1.479-0.196h734.104
		c82.867,0,150.289,67.422,150.289,150.289V3395.954z M2234.082,3106.948c0,19.159-15.535,34.682-34.682,34.682h-622.336
		c-19.147,0-34.682-15.523-34.682-34.682s15.535-34.682,34.682-34.682h622.336
		C2218.547,3072.266,2234.082,3087.789,2234.082,3106.948z M2211.005,2904.635c0-19.159,15.535-34.682,34.682-34.682h566.451
		c19.147,0,34.682,15.523,34.682,34.682s-15.535,34.682-34.682,34.682h-566.451
		C2226.54,2939.318,2211.005,2923.794,2211.005,2904.635z M3442.197,2939.318h-468.208c-19.147,0-34.682-15.523-34.682-34.682
		s15.535-34.682,34.682-34.682h468.208c19.147,0,34.682,15.523,34.682,34.682S3461.344,2939.318,3442.197,2939.318z
		 M3442.197,2332.381h-772.647c-19.147,0-34.682-15.523-34.682-34.682s15.535-34.682,34.682-34.682h772.647
		c19.147,0,34.682,15.523,34.682,34.682S3461.344,2332.381,3442.197,2332.381z M3476.879,2500.011
		c0,19.159-15.535,34.682-34.682,34.682H3016.37c-19.147,0-34.682-15.523-34.682-34.682s15.535-34.682,34.682-34.682h425.826
		C3461.344,2465.329,3476.879,2480.853,3476.879,2500.011z M3442.197,2130.069h-398.844c-19.147,0-34.682-15.523-34.682-34.682
		s15.535-34.682,34.682-34.682h398.844c19.147,0,34.682,15.523,34.682,34.682S3461.344,2130.069,3442.197,2130.069z
		 M2669.549,1858.393h772.647c19.147,0,34.682,15.523,34.682,34.682s-15.535,34.682-34.682,34.682h-772.647
		c-19.147,0-34.682-15.523-34.682-34.682S2650.402,1858.393,2669.549,1858.393z M2663.317,2060.705h218.163
		c19.147,0,34.682,15.523,34.682,34.682s-15.535,34.682-34.682,34.682h-218.163c-19.147,0-34.682-15.523-34.682-34.682
		S2644.17,2060.705,2663.317,2060.705z M2663.317,2465.329h191.203c19.147,0,34.682,15.523,34.682,34.682
		s-15.535,34.682-34.682,34.682h-191.203c-19.147,0-34.682-15.523-34.682-34.682S2644.17,2465.329,2663.317,2465.329z
		 M2661.872,2667.641h780.324c19.147,0,34.682,15.523,34.682,34.682s-15.535,34.682-34.682,34.682h-780.324
		c-19.147,0-34.682-15.523-34.682-34.682S2642.725,2667.641,2661.872,2667.641z M1523.121,2008.682
		c0-82.867,67.422-150.289,150.289-150.289H2500c19.147,0,34.682,15.523,34.682,34.682v608.101v0.028v85.513
		c0,82.867-67.422,150.289-150.289,150.289h-826.59c-19.147,0-34.682-15.523-34.682-34.682V2008.682z M1557.803,2869.954h526.011
		c19.147,0,34.682,15.523,34.682,34.682s-15.535,34.682-34.682,34.682h-526.011c-19.147,0-34.682-15.523-34.682-34.682
		S1538.656,2869.954,1557.803,2869.954z M1557.803,3274.578h526.011c19.147,0,34.682,15.523,34.682,34.682
		c0,19.159-15.535,34.682-34.682,34.682h-526.011c-19.147,0-34.682-15.523-34.682-34.682
		C1523.121,3290.101,1538.656,3274.578,1557.803,3274.578z M1557.803,3476.89h618.475c19.147,0,34.682,15.523,34.682,34.682
		s-15.535,34.682-34.682,34.682h-618.475c-19.147,0-34.682-15.523-34.682-34.682S1538.656,3476.89,1557.803,3476.89z"/><path fill="#ff9494" d="M3829.48,650.289c0-44.617-36.308-80.925-80.925-80.925h-2497.11
		c-44.617,0-80.925,36.308-80.925,80.925v566.474H3829.48V650.289z M2164.587,939.044h-48.089v138.991h-75.054V708.093h109.403
		c134.24,0,142.16,92.488,142.16,115.738C2293.008,872.45,2259.184,939.044,2164.587,939.044z M2478.595,1078.035h-116.804V708.093
		h116.804c65.526,0,201.347,14.269,201.347,184.965C2679.941,973.921,2648.765,1078.035,2478.595,1078.035z M2958.555,770.453
		h-132.124v89.845h125.773v60.771h-125.773v156.965h-75.054V708.093h207.178V770.453z"/><path fill="#ff9494" d="M2150.848 766.221h-34.349v114.685h34.349c45.447 0 62.889-31.181 62.889-59.191C2213.737 791.061 2194.178 766.221 2150.848 766.221zM2479.645 770.453h-42.805v245.22h42.805c22.726 0 121.026-4.232 121.026-122.615S2502.371 770.453 2479.645 770.453zM3424.855 3875.722c-82.867 0-150.289 67.423-150.289 150.289v355.582l505.871-505.871H3424.855z"/><path fill="#d3f990" d="M2465.318,2586.717v-71.178l-131.909-132.004l-54.868,54.97
		c-6.503,6.503-15.332,10.172-24.521,10.172h-0.022c-9.19,0-18.019-3.658-24.521-10.161l-199.196-199.174l-177.311,177.311
		l57.753,57.753c13.548,13.536,13.548,35.506,0,49.042c-6.774,6.774-15.647,10.161-24.521,10.161
		c-8.874,0-17.747-3.387-24.521-10.161l-82.246-82.246c-0.011-0.01-0.023-0.013-0.023-0.013l-0.034-0.044l-57.645-57.645
		l-129.245,129.245v154.895h791.908C2429.01,2667.641,2465.318,2631.333,2465.318,2586.717z"/><path fill="#85dae5" d="M1592.485,2414.661l104.724-104.724c13.548-13.548,35.495-13.548,49.043,0l57.674,57.674
		l201.832-201.832c13.548-13.548,35.495-13.548,49.042,0l199.174,199.151l54.891-54.981c12.983-13.017,36.014-13.062,49.088,0
		l107.365,107.446v-254.823c-18.357,5.893-37.663,9.101-57.578,9.101c-103.888,0-188.426-84.538-188.426-188.437
		c0-18.854,3.088-37.568,8.62-55.478H1673.41c-44.617,0-80.925,36.308-80.925,80.925V2414.661z M1893.064,1997.132h135.838
		c19.147,0,34.682,15.523,34.682,34.682s-15.535,34.682-34.682,34.682h-135.838c-19.147,0-34.682-15.523-34.682-34.682
		S1873.916,1997.132,1893.064,1997.132z M1696.532,1997.132h85.237c19.147,0,34.682,15.523,34.682,34.682
		s-15.535,34.682-34.682,34.682h-85.237c-19.147,0-34.682-15.523-34.682-34.682S1677.384,1997.132,1696.532,1997.132z
		 M1696.532,2135.861h169.798c19.147,0,34.682,15.523,34.682,34.682s-15.535,34.682-34.682,34.682h-169.798
		c-19.147,0-34.682-15.523-34.682-34.682S1677.384,2135.861,1696.532,2135.861z"/><path fill="#fefc93" d="M2288.679,1983.235c0,65.661,53.4,119.073,119.062,119.073c20.638,0,40.203-5.296,57.578-15.096
		v-159.455h-162.73C2293.624,1944.68,2288.679,1963.835,2288.679,1983.235z"/><path fill="#ff9494" d="M2449.828 3309.249c0-24.51-4.713-48.587-13.119-71.295l-122.223 71.295 122.144 71.251C2445.092 3357.937 2449.828 3333.881 2449.828 3309.249zM3176.278 3476.879v-132.937h-356.44c-19.147 0-34.682-15.523-34.682-34.682 0-19.158 15.535-34.682 34.682-34.682h356.44v-132.959h-528.416c43.691 107.123 43.691 228.156.006 335.26H3176.278z"/><path fill="#fff" d="M2578.125 3155.462l-80.575 47.002c14.174 33.611 21.643 69.933 21.643 106.784 0 37.008-7.485 73.311-21.733 106.735l80.66 47.05C2622.121 3365.579 2622.121 3252.928 2578.125 3155.462zM3245.642 3476.879h80.948c44.617 0 80.925-36.308 80.925-80.925v-173.41c0-44.617-36.308-80.925-80.925-80.925h-80.948V3476.879z"/><path fill="#333" d="M2150.848 708.093h-109.403v369.942h75.054V939.044h48.089c94.597 0 128.421-66.594 128.421-115.213C2293.008 800.581 2285.088 708.093 2150.848 708.093zM2150.848 880.906h-34.349V766.221h34.349c43.33 0 62.889 24.84 62.889 55.495C2213.737 849.725 2196.295 880.906 2150.848 880.906zM2478.595 708.093h-116.804v369.942h116.804c170.17 0 201.347-104.114 201.347-184.977C2679.941 722.361 2544.12 708.093 2478.595 708.093zM2479.645 1015.673h-42.805v-245.22h42.805c22.726 0 121.026 4.222 121.026 122.605S2502.371 1015.673 2479.645 1015.673z"/><polygon fill="#333" points="2751.377 1078.035 2826.431 1078.035 2826.431 921.069 2952.205 921.069 2952.205 860.298 2826.431 860.298 2826.431 770.453 2958.555 770.453 2958.555 708.093 2751.377 708.093"/><path fill="#333" d="M3748.555,500h-2497.11c-82.867,0-150.289,67.422-150.289,150.289v601.156v3028.902
		c0,121.117,98.537,219.653,219.653,219.653h1919.075c2.286,0,4.561-0.238,6.802-0.686c1.315-0.262,2.546-0.735,3.81-1.143
		c0.881-0.286,1.795-0.468,2.659-0.825c1.462-0.607,2.805-1.413,4.16-2.206c0.593-0.347,1.23-0.594,1.806-0.978
		c1.908-1.275,3.686-2.724,5.306-4.342l624.232-624.234c2.179-2.176,3.946-4.72,5.487-7.41c0.339-0.601,0.672-1.187,0.977-1.805
		c1.332-2.683,2.433-5.494,3.031-8.515c0.022-0.1,0.011-0.202,0.034-0.302c0.401-2.114,0.655-4.282,0.655-6.513V1251.445V650.289
		C3898.844,567.422,3831.422,500,3748.555,500z M1170.52,650.289c0-44.617,36.308-80.925,80.925-80.925h2497.11
		c44.617,0,80.925,36.308,80.925,80.925v566.474H1170.52V650.289z M1170.52,1286.127H3829.48v2520.231h-404.624
		c-121.116,0-219.653,98.537-219.653,219.653v404.624H1320.809c-82.867,0-150.289-67.422-150.289-150.289V1286.127z
		 M3274.566,4026.012c0-82.867,67.422-150.289,150.289-150.289h355.582l-505.871,505.871V4026.012z"/><path fill="#333" d="M1557.803,2737.006h826.59c82.867,0,150.289-67.422,150.289-150.289v-85.513v-0.028v-608.101
		c0-19.159-15.535-34.682-34.682-34.682h-826.59c-82.867,0-150.289,67.422-150.289,150.289v693.642
		C1523.121,2721.482,1538.656,2737.006,1557.803,2737.006z M1673.41,1927.757h554.524c-5.532,17.91-8.62,36.624-8.62,55.478
		c0,103.9,84.538,188.437,188.426,188.437c19.915,0,39.22-3.208,57.578-9.101v254.823l-107.365-107.446
		c-13.073-13.062-36.104-13.017-49.088,0l-54.891,54.981L2054.8,2165.779c-13.548-13.548-35.495-13.548-49.042,0l-201.832,201.832
		l-57.674-57.674c-13.548-13.548-35.495-13.548-49.043,0l-104.724,104.724v-405.979
		C1592.485,1964.065,1628.793,1927.757,1673.41,1927.757z M1592.485,2512.746l129.245-129.245l57.645,57.645l0.023,0.034
		c0,0,0.023,0.013,0.034,0.022l82.246,82.246c6.774,6.774,15.648,10.161,24.521,10.161c8.874,0,17.748-3.387,24.521-10.161
		c13.548-13.536,13.548-35.506,0-49.042l-57.753-57.753l177.311-177.311l199.196,199.174c6.503,6.503,15.331,10.161,24.521,10.161
		h0.022c9.19,0,18.019-3.669,24.521-10.172l54.868-54.97l131.909,132.004v71.178c0,44.617-36.308,80.925-80.925,80.925h-791.908
		V2512.746z M2465.318,2087.212c-17.375,9.799-36.94,15.096-57.578,15.096c-65.661,0-119.062-53.412-119.062-119.073
		c0-19.4,4.945-38.554,13.909-55.478h162.73V2087.212z"/><path fill="#333" d="M1696.532 2066.497h85.237c19.147 0 34.682-15.523 34.682-34.682s-15.535-34.682-34.682-34.682h-85.237c-19.147 0-34.682 15.523-34.682 34.682S1677.384 2066.497 1696.532 2066.497zM1696.532 2205.225h169.798c19.147 0 34.682-15.523 34.682-34.682s-15.535-34.682-34.682-34.682h-169.798c-19.147 0-34.682 15.523-34.682 34.682S1677.384 2205.225 1696.532 2205.225zM1893.064 2066.497h135.838c19.147 0 34.682-15.523 34.682-34.682s-15.535-34.682-34.682-34.682h-135.838c-19.147 0-34.682 15.523-34.682 34.682S1873.916 2066.497 1893.064 2066.497zM2669.549 1927.757h772.647c19.147 0 34.682-15.523 34.682-34.682s-15.535-34.682-34.682-34.682h-772.647c-19.147 0-34.682 15.523-34.682 34.682S2650.402 1927.757 2669.549 1927.757zM3442.197 2869.954h-468.208c-19.147 0-34.682 15.523-34.682 34.682s15.535 34.682 34.682 34.682h468.208c19.147 0 34.682-15.523 34.682-34.682S3461.344 2869.954 3442.197 2869.954zM1577.064 3072.266c-19.147 0-34.682 15.523-34.682 34.682s15.535 34.682 34.682 34.682h622.336c19.147 0 34.682-15.523 34.682-34.682s-15.535-34.682-34.682-34.682H1577.064zM2661.872 2737.006h780.324c19.147 0 34.682-15.523 34.682-34.682s-15.535-34.682-34.682-34.682h-780.324c-19.147 0-34.682 15.523-34.682 34.682S2642.725 2737.006 2661.872 2737.006zM3442.197 2465.329H3016.37c-19.147 0-34.682 15.523-34.682 34.682s15.535 34.682 34.682 34.682h425.826c19.147 0 34.682-15.523 34.682-34.682S3461.344 2465.329 3442.197 2465.329zM2663.317 2534.693h191.203c19.147 0 34.682-15.523 34.682-34.682s-15.535-34.682-34.682-34.682h-191.203c-19.147 0-34.682 15.523-34.682 34.682S2644.17 2534.693 2663.317 2534.693zM3442.197 2263.017h-772.647c-19.147 0-34.682 15.523-34.682 34.682s15.535 34.682 34.682 34.682h772.647c19.147 0 34.682-15.523 34.682-34.682S3461.344 2263.017 3442.197 2263.017zM3442.197 2060.705h-398.844c-19.147 0-34.682 15.523-34.682 34.682s15.535 34.682 34.682 34.682h398.844c19.147 0 34.682-15.523 34.682-34.682S3461.344 2060.705 3442.197 2060.705zM2663.317 2130.069h218.163c19.147 0 34.682-15.523 34.682-34.682s-15.535-34.682-34.682-34.682h-218.163c-19.147 0-34.682 15.523-34.682 34.682S2644.17 2130.069 2663.317 2130.069zM1557.803 3546.254h618.475c19.147 0 34.682-15.523 34.682-34.682s-15.535-34.682-34.682-34.682h-618.475c-19.147 0-34.682 15.523-34.682 34.682S1538.656 3546.254 1557.803 3546.254zM1557.803 3343.942h526.011c19.147 0 34.682-15.523 34.682-34.682 0-19.158-15.535-34.682-34.682-34.682h-526.011c-19.147 0-34.682 15.523-34.682 34.682C1523.121 3328.418 1538.656 3343.942 1557.803 3343.942zM3326.59 3072.254h-734.104c-.502 0-.977.175-1.479.196-1.976.083-3.929.352-5.893.781-.818.178-1.637.302-2.438.539-2.518.747-5.007 1.709-7.395 3.068-.028.016-.045.038-.073.054-.062.035-.135.047-.198.082l-140.173 81.766c-.051.03-.107.044-.158.073-.051.031-.09.075-.147.106l-206.343 120.367c-10.657 6.22-17.206 17.623-17.206 29.963s6.548 23.742 17.206 29.963l346.821 202.312c.051.028.107.038.158.066.04.024.073.056.113.08 1.383.792 2.862 1.178 4.296 1.761 1.327.538 2.585 1.257 3.969 1.626 2.941.789 5.938 1.197 8.919 1.197l.085-.011h734.042c82.867 0 150.289-67.423 150.289-150.289v-173.41C3476.879 3139.677 3409.456 3072.254 3326.59 3072.254zM3407.514 3222.543v173.41c0 44.617-36.308 80.925-80.925 80.925h-80.948v-335.26h80.948C3371.207 3141.618 3407.514 3177.926 3407.514 3222.543zM2578.119 3463.033l-80.66-47.05c14.248-33.423 21.733-69.727 21.733-106.735 0-36.851-7.468-73.173-21.643-106.784l80.575-47.002C2622.121 3252.928 2622.121 3365.579 2578.119 3463.033zM2436.71 3237.954c8.405 22.708 13.119 46.785 13.119 71.295 0 24.633-4.736 48.688-13.198 71.251l-122.144-71.251L2436.71 3237.954zM2647.862 3141.618h528.416v132.959h-356.44c-19.147 0-34.682 15.523-34.682 34.682 0 19.159 15.535 34.682 34.682 34.682h356.44v132.937h-528.411C2691.553 3369.774 2691.553 3248.741 2647.862 3141.618zM2812.139 2939.318c19.147 0 34.682-15.523 34.682-34.682s-15.535-34.682-34.682-34.682h-566.451c-19.147 0-34.682 15.523-34.682 34.682s15.535 34.682 34.682 34.682H2812.139zM1557.803 2939.318h526.011c19.147 0 34.682-15.523 34.682-34.682s-15.535-34.682-34.682-34.682h-526.011c-19.147 0-34.682 15.523-34.682 34.682S1538.656 2939.318 1557.803 2939.318z"/></svg>