<svg xmlns="http://www.w3.org/2000/svg" viewBox="0 0 51 51"><path fill="#3DB542" d="m28.596 49.469-6.068-3.526-6.112-5.017 6.068 3.526z"/><path fill="#81D672" d="m38.198 1.634 6.067 3.526c-.36-.21-.86-.18-1.411.138l-6.068-3.526c.551-.318 1.05-.348 1.412-.138z"/><path fill="#6DCB60" d="M12.802 49.366 6.734 45.84c-.355-.206-.576-.646-.578-1.27l6.068 3.525c.002.625.222 1.065.578 1.271z"/><path fill="#3DB542" d="m12.224 48.095-6.068-3.526-.064-22.793 6.067 3.526z"/><path fill="#81D672" d="m14.134 21.88-6.068-3.526 28.72-16.582 6.068 3.526z"/><path fill="#6DCB60" d="m33.11 10.923-18.98 10.96-6.06-3.53 18.98-10.96z"/><path fill="#81D672" d="m12.16 25.302-6.068-3.526c-.004-1.26.88-2.79 1.974-3.422l6.068 3.526c-1.095.632-1.978 2.162-1.975 3.422z"/><path fill="#2C9A2C" d="M42.854 5.298c1.094-.632 1.986-.126 1.99 1.134l.064 22.793c.004 1.258-.882 2.79-1.977 3.422l-8.27 4.774-6.065 12.048-6.112-5.017-8.272 4.776c-1.095.632-1.984.125-1.988-1.133l-.065-22.793c-.003-1.26.88-2.79 1.975-3.422l28.72-16.582z"/><path fill="#FFF" d="M15.523 24.625a.244.244 0 0 1 0 .47 4.804 4.804 0 0 0-3.064 3.064.245.245 0 0 1-.47 0 4.795 4.795 0 0 0-3.064-3.063.245.245 0 0 1 0-.471 4.804 4.804 0 0 0 3.063-3.064.244.244 0 0 1 .47 0 4.804 4.804 0 0 0 3.065 3.064z"/><path fill="#7B2920" d="m37.61 21.674-2.114-1.228-.001-.052 2.115 1.229z"/><path fill="#FFF" d="m21.405 41.994-2.794-1.66-.031-10.946 2.794 1.66z"/><path fill="#E9E8E6" d="m21.404 41.993-2.79-1.66-.03-5.43 2.8 1.68z"/><path fill="#7D7C7B" d="m21.374 31.048-2.115-1.228v-.052l2.115 1.229z"/><path fill="#D6D4D2" d="M37.61 21.623v.051l.031 10.946-16.236 9.374-.031-10.946v-.051z"/><path fill="#C8C8C6" d="m21.374 30.997-2.115-1.229 16.236-9.374 2.115 1.229z"/><path fill="#FC7E7E" d="m22.753 23.389-2.794-1.661 13.439-7.759 2.794 1.66z"/><path fill="#F25A5A" d="m32.435 17.781-9.681 5.612-2.8-1.67 9.691-5.602z"/><path fill="#FC7E7E" d="m26.814 21.016-4.06 2.377-2.8-1.67 4.07-2.367z"/><path fill="#F25A5A" d="m20.327 31.653-2.794-1.661 2.426-8.264 2.794 1.661z"/><path fill="#F25A5A" d="m20.327 31.653-2.794-1.661 1.324-4.474 2.793 1.66z"/><path fill="#FC7E7E" d="m20.327 31.653-2.794-1.661 1.301-4.373 2.794 1.661z"/><path fill="#DD4A4A" d="m36.192 15.629 2.465 5.441-1.047.604v-.051l-16.236 9.374v.051l-1.047.605 2.426-8.264z"/><path fill="#0074D1" d="m26.606 30.128.009 3.145-2.736 1.58-.009-3.145zM35.604 24.933l.009 3.145-2.736 1.58-.009-3.145z"/><path fill="#434240" d="m32.042 30.406.016 5.451-3.599 2.078-.015-5.451z"/></svg>