<?xml version="1.0" encoding="UTF-8"?><svg id="Layer_2" xmlns="http://www.w3.org/2000/svg" viewBox="0 0 215.36 196.46"><defs><style>.cls-1{opacity:.15;}</style></defs><g id="_ÎÓÈ_1"><g><g class="cls-1"><g><rect x="32.39" y="19.91" width="8.04" height="8.04"/><rect x="52.79" y="19.91" width="8.04" height="8.04"/><rect x="73.2" y="19.91" width="8.04" height="8.04"/><rect x="93.61" y="19.91" width="8.04" height="8.04"/><rect x="114.02" y="19.91" width="8.04" height="8.04"/><rect x="134.42" y="19.91" width="8.04" height="8.04"/><rect x="154.83" y="19.91" width="8.04" height="8.04"/><rect x="175.24" y="19.91" width="8.04" height="8.04"/></g><g><rect x="32.39" y="41.83" width="8.04" height="8.04"/><rect x="52.79" y="41.83" width="8.04" height="8.04"/><rect x="73.2" y="41.83" width="8.04" height="8.04"/><rect x="93.61" y="41.83" width="8.04" height="8.04"/><rect x="114.02" y="41.83" width="8.04" height="8.04"/><rect x="134.42" y="41.83" width="8.04" height="8.04"/><rect x="154.83" y="41.83" width="8.04" height="8.04"/><rect x="175.24" y="41.83" width="8.04" height="8.04"/></g><g><rect x="32.39" y="63.75" width="8.04" height="8.04"/><rect x="52.79" y="63.75" width="8.04" height="8.04"/><rect x="73.2" y="63.75" width="8.04" height="8.04"/><rect x="93.61" y="63.75" width="8.04" height="8.04"/><rect x="114.02" y="63.75" width="8.04" height="8.04"/><rect x="134.42" y="63.75" width="8.04" height="8.04"/><rect x="154.83" y="63.75" width="8.04" height="8.04"/><rect x="175.24" y="63.75" width="8.04" height="8.04"/></g><g><rect x="32.39" y="85.67" width="8.04" height="8.04"/><rect x="52.79" y="85.67" width="8.04" height="8.04"/><rect x="73.2" y="85.67" width="8.04" height="8.04"/><rect x="93.61" y="85.67" width="8.04" height="8.04"/><rect x="114.02" y="85.67" width="8.04" height="8.04"/><rect x="134.42" y="85.67" width="8.04" height="8.04"/><rect x="154.83" y="85.67" width="8.04" height="8.04"/><rect x="175.24" y="85.67" width="8.04" height="8.04"/></g><g><rect x="32.39" y="107.59" width="8.04" height="8.04"/><rect x="52.79" y="107.59" width="8.04" height="8.04"/><rect x="73.2" y="107.59" width="8.04" height="8.04"/><rect x="93.61" y="107.59" width="8.04" height="8.04"/><rect x="114.02" y="107.59" width="8.04" height="8.04"/><rect x="134.42" y="107.59" width="8.04" height="8.04"/><rect x="154.83" y="107.59" width="8.04" height="8.04"/><rect x="175.24" y="107.59" width="8.04" height="8.04"/></g><g><rect x="32.39" y="129.51" width="8.04" height="8.04"/><rect x="52.79" y="129.51" width="8.04" height="8.04"/><rect x="73.2" y="129.51" width="8.04" height="8.04"/><rect x="93.61" y="129.51" width="8.04" height="8.04"/><rect x="114.02" y="129.51" width="8.04" height="8.04"/><rect x="134.42" y="129.51" width="8.04" height="8.04"/><rect x="154.83" y="129.51" width="8.04" height="8.04"/><rect x="175.24" y="129.51" width="8.04" height="8.04"/></g><g><rect x="32.39" y="151.43" width="8.04" height="8.04"/><rect x="52.79" y="151.43" width="8.04" height="8.04"/><rect x="73.2" y="151.43" width="8.04" height="8.04"/><rect x="93.61" y="151.43" width="8.04" height="8.04"/><rect x="114.02" y="151.43" width="8.04" height="8.04"/><rect x="134.42" y="151.43" width="8.04" height="8.04"/><rect x="154.83" y="151.43" width="8.04" height="8.04"/><rect x="175.24" y="151.43" width="8.04" height="8.04"/></g><g><rect x="32.39" y="173.35" width="8.04" height="8.04"/><rect x="52.79" y="173.35" width="8.04" height="8.04"/><rect x="73.2" y="173.35" width="8.04" height="8.04"/><rect x="93.61" y="173.35" width="8.04" height="8.04"/><rect x="114.02" y="173.35" width="8.04" height="8.04"/><rect x="134.42" y="173.35" width="8.04" height="8.04"/><rect x="154.83" y="173.35" width="8.04" height="8.04"/><rect x="175.24" y="173.35" width="8.04" height="8.04"/></g></g><g><path d="M22.96,91.31h-2.48c-.16,0-.29-.13-.29-.29s.13-.29,.29-.29h2.19V19.64l-2.61-2.61h-6.49c-.16,0-.29-.13-.29-.29s.13-.29,.29-.29h6.62c.08,0,.15,.03,.21,.09l2.78,2.78c.05,.05,.09,.13,.09,.21V91.01c0,.16-.13,.29-.29,.29Z"/><path d="M28.9,22.2h-2.71c-.08,0-.15-.07-.15-.15s.07-.15,.15-.15h2.71c.08,0,.15,.07,.15,.15s-.07,.15-.15,.15Z"/><path d="M28.9,28.71h-2.71c-.08,0-.15-.07-.15-.15s.07-.15,.15-.15h2.71c.08,0,.15,.07,.15,.15s-.07,.15-.15,.15Z"/><path d="M28.9,35.23h-2.71c-.08,0-.15-.07-.15-.15s.07-.15,.15-.15h2.71c.08,0,.15,.07,.15,.15s-.07,.15-.15,.15Z"/><path d="M28.9,41.74h-2.71c-.08,0-.15-.07-.15-.15s.07-.15,.15-.15h2.71c.08,0,.15,.07,.15,.15s-.07,.15-.15,.15Z"/><path d="M28.9,48.26h-2.71c-.08,0-.15-.07-.15-.15s.07-.15,.15-.15h2.71c.08,0,.15,.07,.15,.15s-.07,.15-.15,.15Z"/><path d="M28.9,54.77h-2.71c-.08,0-.15-.07-.15-.15s.07-.15,.15-.15h2.71c.08,0,.15,.07,.15,.15s-.07,.15-.15,.15Z"/><path d="M28.9,61.29h-2.71c-.08,0-.15-.07-.15-.15s.07-.15,.15-.15h2.71c.08,0,.15,.07,.15,.15s-.07,.15-.15,.15Z"/><path d="M28.9,67.81h-2.71c-.08,0-.15-.07-.15-.15s.07-.15,.15-.15h2.71c.08,0,.15,.07,.15,.15s-.07,.15-.15,.15Z"/><path d="M28.9,74.32h-2.71c-.08,0-.15-.07-.15-.15s.07-.15,.15-.15h2.71c.08,0,.15,.07,.15,.15s-.07,.15-.15,.15Z"/><path d="M28.9,80.84h-2.71c-.08,0-.15-.07-.15-.15s.07-.15,.15-.15h2.71c.08,0,.15,.07,.15,.15s-.07,.15-.15,.15Z"/><path d="M28.9,87.35h-2.71c-.08,0-.15-.07-.15-.15s.07-.15,.15-.15h2.71c.08,0,.15,.07,.15,.15s-.07,.15-.15,.15Z"/><g><path d="M20.78,22.2h-2.71c-.08,0-.15-.07-.15-.15s.07-.15,.15-.15h2.71c.08,0,.15,.07,.15,.15s-.07,.15-.15,.15Z"/><path d="M20.78,28.71h-2.71c-.08,0-.15-.07-.15-.15s.07-.15,.15-.15h2.71c.08,0,.15,.07,.15,.15s-.07,.15-.15,.15Z"/><path d="M20.78,35.23h-2.71c-.08,0-.15-.07-.15-.15s.07-.15,.15-.15h2.71c.08,0,.15,.07,.15,.15s-.07,.15-.15,.15Z"/><path d="M20.78,41.74h-2.71c-.08,0-.15-.07-.15-.15s.07-.15,.15-.15h2.71c.08,0,.15,.07,.15,.15s-.07,.15-.15,.15Z"/><path d="M20.78,48.26h-2.71c-.08,0-.15-.07-.15-.15s.07-.15,.15-.15h2.71c.08,0,.15,.07,.15,.15s-.07,.15-.15,.15Z"/><path d="M20.78,54.77h-2.71c-.08,0-.15-.07-.15-.15s.07-.15,.15-.15h2.71c.08,0,.15,.07,.15,.15s-.07,.15-.15,.15Z"/><path d="M20.78,61.29h-2.71c-.08,0-.15-.07-.15-.15s.07-.15,.15-.15h2.71c.08,0,.15,.07,.15,.15s-.07,.15-.15,.15Z"/><path d="M20.78,67.81h-2.71c-.08,0-.15-.07-.15-.15s.07-.15,.15-.15h2.71c.08,0,.15,.07,.15,.15s-.07,.15-.15,.15Z"/><path d="M20.78,74.32h-2.71c-.08,0-.15-.07-.15-.15s.07-.15,.15-.15h2.71c.08,0,.15,.07,.15,.15s-.07,.15-.15,.15Z"/><path d="M20.78,80.84h-2.71c-.08,0-.15-.07-.15-.15s.07-.15,.15-.15h2.71c.08,0,.15,.07,.15,.15s-.07,.15-.15,.15Z"/><path d="M20.78,87.35h-2.71c-.08,0-.15-.07-.15-.15s.07-.15,.15-.15h2.71c.08,0,.15,.07,.15,.15s-.07,.15-.15,.15Z"/></g><g><path d="M20.78,25.46h-.9c-.08,0-.15-.07-.15-.15s.07-.15,.15-.15h.9c.08,0,.15,.07,.15,.15s-.07,.15-.15,.15Z"/><path d="M20.78,31.97h-.9c-.08,0-.15-.07-.15-.15s.07-.15,.15-.15h.9c.08,0,.15,.07,.15,.15s-.07,.15-.15,.15Z"/><path d="M20.78,38.49h-.9c-.08,0-.15-.07-.15-.15s.07-.15,.15-.15h.9c.08,0,.15,.07,.15,.15s-.07,.15-.15,.15Z"/><path d="M20.78,45h-.9c-.08,0-.15-.07-.15-.15s.07-.15,.15-.15h.9c.08,0,.15,.07,.15,.15s-.07,.15-.15,.15Z"/><path d="M20.78,51.52h-.9c-.08,0-.15-.07-.15-.15s.07-.15,.15-.15h.9c.08,0,.15,.07,.15,.15s-.07,.15-.15,.15Z"/><path d="M20.78,58.03h-.9c-.08,0-.15-.07-.15-.15s.07-.15,.15-.15h.9c.08,0,.15,.07,.15,.15s-.07,.15-.15,.15Z"/><path d="M20.78,64.55h-.9c-.08,0-.15-.07-.15-.15s.07-.15,.15-.15h.9c.08,0,.15,.07,.15,.15s-.07,.15-.15,.15Z"/><path d="M20.78,71.06h-.9c-.08,0-.15-.07-.15-.15s.07-.15,.15-.15h.9c.08,0,.15,.07,.15,.15s-.07,.15-.15,.15Z"/><path d="M20.78,77.58h-.9c-.08,0-.15-.07-.15-.15s.07-.15,.15-.15h.9c.08,0,.15,.07,.15,.15s-.07,.15-.15,.15Z"/><path d="M20.78,84.09h-.9c-.08,0-.15-.07-.15-.15s.07-.15,.15-.15h.9c.08,0,.15,.07,.15,.15s-.07,.15-.15,.15Z"/></g><path d="M22.96,94.39H11.91s-.08-.02-.1-.04l-5.11-5.11H2.89c-.08,0-.15-.07-.15-.15s.07-.15,.15-.15h3.87s.08,.02,.1,.04l5.11,5.11h10.99c.08,0,.15,.07,.15,.15s-.07,.15-.15,.15Z"/><path d="M1.83,89.39H.29c-.16,0-.29-.13-.29-.29s.13-.29,.29-.29H1.83c.16,0,.29,.13,.29,.29s-.13,.29-.29,.29Z"/><g><path d="M15.78,22.2h-3.87s-.08-.02-.1-.04l-1.66-1.66c-.06-.06-.06-.15,0-.21s.15-.06,.21,0l1.62,1.62h3.81c.08,0,.15,.07,.15,.15s-.07,.15-.15,.15Z"/><path d="M9.71,20.08c-.07,0-.15-.03-.21-.09l-.79-.79c-.11-.11-.11-.3,0-.41s.3-.11,.41,0l.79,.79c.11,.11,.11,.3,0,.41-.06,.06-.13,.09-.21,.09Z"/></g><g><path d="M15.78,35.23h-3.87s-.08-.02-.1-.04l-1.66-1.66c-.06-.06-.06-.15,0-.21s.15-.06,.21,0l1.62,1.62h3.81c.08,0,.15,.07,.15,.15s-.07,.15-.15,.15Z"/><path d="M9.71,33.11c-.07,0-.15-.03-.21-.09l-.79-.79c-.11-.11-.11-.3,0-.41,.11-.11,.3-.11,.41,0l.79,.79c.11,.11,.11,.3,0,.41-.06,.06-.13,.09-.21,.09Z"/></g><g><path d="M15.78,48.26h-3.87s-.08-.02-.1-.04l-1.66-1.66c-.06-.06-.06-.15,0-.21s.15-.06,.21,0l1.62,1.62h3.81c.08,0,.15,.07,.15,.15s-.07,.15-.15,.15Z"/><path d="M9.71,46.14c-.07,0-.15-.03-.21-.09l-.79-.79c-.11-.11-.11-.3,0-.41s.3-.11,.41,0l.79,.79c.11,.11,.11,.3,0,.41-.06,.06-.13,.09-.21,.09Z"/></g><g><path d="M15.78,61.29h-3.87s-.08-.02-.1-.04l-1.66-1.66c-.06-.06-.06-.15,0-.21s.15-.06,.21,0l1.62,1.62h3.81c.08,0,.15,.07,.15,.15s-.07,.15-.15,.15Z"/><path d="M9.71,59.17c-.07,0-.15-.03-.21-.09l-.79-.79c-.11-.11-.11-.3,0-.41,.11-.11,.3-.11,.41,0l.79,.79c.11,.11,.11,.3,0,.41-.06,.06-.13,.09-.21,.09Z"/></g><g><path d="M15.78,74.32h-3.87s-.08-.02-.1-.04l-1.66-1.66c-.06-.06-.06-.15,0-.21s.15-.06,.21,0l1.62,1.62h3.81c.08,0,.15,.07,.15,.15s-.07,.15-.15,.15Z"/><path d="M9.71,72.2c-.07,0-.15-.03-.21-.09l-.79-.79c-.11-.11-.11-.3,0-.41s.3-.11,.41,0l.79,.79c.11,.11,.11,.3,0,.41-.06,.06-.13,.09-.21,.09Z"/></g><g><path d="M15.78,87.35h-3.87s-.08-.02-.1-.04l-1.66-1.66c-.06-.06-.06-.15,0-.21s.15-.06,.21,0l1.62,1.62h3.81c.08,0,.15,.07,.15,.15s-.07,.15-.15,.15Z"/><path d="M9.71,85.23c-.07,0-.15-.03-.21-.09l-.79-.79c-.11-.11-.11-.3,0-.41,.11-.11,.3-.11,.41,0l.79,.79c.11,.11,.11,.3,0,.41-.06,.06-.13,.09-.21,.09Z"/></g><path d="M57.76,11.02H26.99c-.08,0-.15-.03-.21-.09l-5.41-5.41c-.11-.11-.11-.3,0-.41s.3-.11,.41,0l5.33,5.33h30.53l3.32-3.32c.05-.05,.13-.09,.21-.09h30.67c.16,0,.29,.13,.29,.29s-.13,.29-.29,.29h-30.55l-3.32,3.32c-.05,.05-.13,.09-.21,.09Z"/><path d="M28.03,9.69c-.08,0-.15-.07-.15-.15v-.5l-.76-.76c-.06-.06-.06-.15,0-.21s.15-.06,.21,0l.8,.8s.04,.06,.04,.1v.56c0,.08-.07,.15-.15,.15Z"/><path d="M29.83,9.69c-.08,0-.15-.07-.15-.15v-.5l-.76-.76c-.06-.06-.06-.15,0-.21s.15-.06,.21,0l.8,.8s.04,.06,.04,.1v.56c0,.08-.07,.15-.15,.15Z"/><path d="M31.64,9.69c-.08,0-.15-.07-.15-.15v-.5l-.76-.76c-.06-.06-.06-.15,0-.21s.15-.06,.21,0l.8,.8s.04,.06,.04,.1v.56c0,.08-.07,.15-.15,.15Z"/><path d="M33.44,9.69c-.08,0-.15-.07-.15-.15v-.5l-.76-.76c-.06-.06-.06-.15,0-.21s.15-.06,.21,0l.8,.8s.04,.06,.04,.1v.56c0,.08-.07,.15-.15,.15Z"/><path d="M35.25,9.69c-.08,0-.15-.07-.15-.15v-.5l-.76-.76c-.06-.06-.06-.15,0-.21s.15-.06,.21,0l.8,.8s.04,.06,.04,.1v.56c0,.08-.07,.15-.15,.15Z"/><path d="M37.05,9.69c-.08,0-.15-.07-.15-.15v-.5l-.76-.76c-.06-.06-.06-.15,0-.21s.15-.06,.21,0l.8,.8s.04,.06,.04,.1v.56c0,.08-.07,.15-.15,.15Z"/><path d="M38.85,9.69c-.08,0-.15-.07-.15-.15v-.5l-.76-.76c-.06-.06-.06-.15,0-.21s.15-.06,.21,0l.8,.8s.04,.06,.04,.1v.56c0,.08-.07,.15-.15,.15Z"/><path d="M40.66,9.69c-.08,0-.15-.07-.15-.15v-.5l-.76-.76c-.06-.06-.06-.15,0-.21s.15-.06,.21,0l.8,.8s.04,.06,.04,.1v.56c0,.08-.07,.15-.15,.15Z"/><path d="M42.46,9.69c-.08,0-.15-.07-.15-.15v-.5l-.76-.76c-.06-.06-.06-.15,0-.21s.15-.06,.21,0l.8,.8s.04,.06,.04,.1v.56c0,.08-.07,.15-.15,.15Z"/><path d="M77.42,8.16h-16.95c-.08,0-.15-.07-.15-.15s.07-.15,.15-.15h16.89l.51-.51c.06-.06,.15-.06,.21,0s.06,.15,0,.21l-.56,.56s-.06,.04-.1,.04Z"/><path d="M98.11,10.12c-.08,0-.15-.07-.15-.15v-1.94l-.67-.67h-2.5c-.08,0-.15-.07-.15-.15s.07-.15,.15-.15h2.56s.08,.02,.1,.04l.75,.75s.04,.06,.04,.1v2c0,.08-.07,.15-.15,.15Z"/><path d="M98.11,15.98c-.08,0-.15-.07-.15-.15v-3.61c0-.08,.07-.15,.15-.15s.15,.07,.15,.15v3.61c0,.08-.07,.15-.15,.15Z"/><path d="M66.39,23.58c-.08,0-.15-.07-.15-.15v-2.96l-7.72-7.72H27.23c-.08,0-.15-.07-.15-.15s.07-.15,.15-.15h31.36s.08,.02,.1,.04l7.8,7.8s.04,.06,.04,.1v3.02c0,.08-.07,.15-.15,.15Z"/><g><g><path d="M46.19,22.19h-13.41c-.08,0-.15-.07-.15-.15s.07-.15,.15-.15h13.41c.08,0,.15,.07,.15,.15s-.07,.15-.15,.15Z"/><polygon points="46.33 22.03 46.33 21.68 42.78 21.68 42.4 22.06 46.33 22.03"/></g><rect x="47.26" y="21.64" width=".46" height=".45"/><rect x="48.48" y="21.73" width=".29" height=".28"/><rect x="50.37" y="21.78" width=".18" height=".17"/></g><g><g><path d="M46.19,35.21h-13.41c-.08,0-.15-.07-.15-.15s.07-.15,.15-.15h13.41c.08,0,.15,.07,.15,.15s-.07,.15-.15,.15Z"/><polygon points="46.33 35.05 46.33 34.7 42.78 34.7 42.4 35.08 46.33 35.05"/></g><rect x="47.26" y="34.66" width=".46" height=".45"/><rect x="48.48" y="34.75" width=".29" height=".28"/><rect x="50.37" y="34.8" width=".18" height=".17"/></g><g><g><path d="M46.19,61.26h-13.41c-.08,0-.15-.07-.15-.15s.07-.15,.15-.15h13.41c.08,0,.15,.07,.15,.15s-.07,.15-.15,.15Z"/><polygon points="46.33 61.1 46.33 60.75 42.78 60.75 42.4 61.12 46.33 61.1"/></g><rect x="47.26" y="60.71" width=".46" height=".45"/><rect x="48.48" y="60.79" width=".29" height=".28"/><rect x="50.37" y="60.85" width=".18" height=".17"/></g><g><g><path d="M46.19,87.3h-13.41c-.08,0-.15-.07-.15-.15s.07-.15,.15-.15h13.41c.08,0,.15,.07,.15,.15s-.07,.15-.15,.15Z"/><polygon points="46.33 87.14 46.33 86.79 42.78 86.79 42.4 87.17 46.33 87.14"/></g><rect x="47.26" y="86.75" width=".46" height=".45"/><rect x="48.48" y="86.84" width=".29" height=".28"/><rect x="50.37" y="86.89" width=".18" height=".17"/></g><path d="M100.27,81.24H53.76s-.08-.02-.1-.04l-3.12-3.12h-3.27c-.08,0-.15-.07-.15-.15s.07-.15,.15-.15h3.33s.08,.02,.1,.04l3.12,3.12h46.31v-6.31l-33.83-33.83s-.04-.06-.04-.1v-13.83c0-.08,.07-.15,.15-.15s.15,.07,.15,.15v13.77l33.83,33.83s.04,.06,.04,.1v6.52c0,.08-.07,.15-.15,.15Z"/><path d="M77.51,86.94h-21.45c-.08,0-.15-.07-.15-.15s.07-.15,.15-.15h21.45c.08,0,.15,.07,.15,.15s-.07,.15-.15,.15Z"/><polygon points="62.57 60.39 58.97 60.39 58.97 60.24 62.43 60.24 62.43 55.18 13.51 6.27 13.61 6.16 62.57 55.12 62.57 60.39"/><polygon points="83.8 32.25 80.14 28.6 80.14 0 80.29 0 80.29 28.54 83.9 32.15 83.8 32.25"/><polygon points="83.88 93.19 33.41 93.19 33.41 93.05 83.82 93.05 87.48 89.38 87.48 87.71 87.63 87.71 87.63 89.45 87.6 89.47 83.88 93.19"/><path d="M194.03,91.31h-2.48c-.16,0-.29-.13-.29-.29V19.52c0-.08,.03-.15,.09-.21l2.78-2.78c.05-.05,.13-.09,.21-.09h6.62c.16,0,.29,.13,.29,.29s-.13,.29-.29,.29h-6.49l-2.61,2.61V90.72h2.19c.16,0,.29,.13,.29,.29s-.13,.29-.29,.29Z"/><path d="M188.32,22.2h-2.71c-.08,0-.15-.07-.15-.15s.07-.15,.15-.15h2.71c.08,0,.15,.07,.15,.15s-.07,.15-.15,.15Z"/><path d="M188.32,28.71h-2.71c-.08,0-.15-.07-.15-.15s.07-.15,.15-.15h2.71c.08,0,.15,.07,.15,.15s-.07,.15-.15,.15Z"/><path d="M188.32,35.23h-2.71c-.08,0-.15-.07-.15-.15s.07-.15,.15-.15h2.71c.08,0,.15,.07,.15,.15s-.07,.15-.15,.15Z"/><path d="M188.32,41.74h-2.71c-.08,0-.15-.07-.15-.15s.07-.15,.15-.15h2.71c.08,0,.15,.07,.15,.15s-.07,.15-.15,.15Z"/><path d="M188.32,48.26h-2.71c-.08,0-.15-.07-.15-.15s.07-.15,.15-.15h2.71c.08,0,.15,.07,.15,.15s-.07,.15-.15,.15Z"/><path d="M188.32,54.77h-2.71c-.08,0-.15-.07-.15-.15s.07-.15,.15-.15h2.71c.08,0,.15,.07,.15,.15s-.07,.15-.15,.15Z"/><path d="M188.32,61.29h-2.71c-.08,0-.15-.07-.15-.15s.07-.15,.15-.15h2.71c.08,0,.15,.07,.15,.15s-.07,.15-.15,.15Z"/><path d="M188.32,67.81h-2.71c-.08,0-.15-.07-.15-.15s.07-.15,.15-.15h2.71c.08,0,.15,.07,.15,.15s-.07,.15-.15,.15Z"/><path d="M188.32,74.32h-2.71c-.08,0-.15-.07-.15-.15s.07-.15,.15-.15h2.71c.08,0,.15,.07,.15,.15s-.07,.15-.15,.15Z"/><path d="M188.32,80.84h-2.71c-.08,0-.15-.07-.15-.15s.07-.15,.15-.15h2.71c.08,0,.15,.07,.15,.15s-.07,.15-.15,.15Z"/><path d="M188.32,87.35h-2.71c-.08,0-.15-.07-.15-.15s.07-.15,.15-.15h2.71c.08,0,.15,.07,.15,.15s-.07,.15-.15,.15Z"/><g><path d="M196.44,22.2h-2.71c-.08,0-.15-.07-.15-.15s.07-.15,.15-.15h2.71c.08,0,.15,.07,.15,.15s-.07,.15-.15,.15Z"/><path d="M196.44,28.71h-2.71c-.08,0-.15-.07-.15-.15s.07-.15,.15-.15h2.71c.08,0,.15,.07,.15,.15s-.07,.15-.15,.15Z"/><path d="M196.44,35.23h-2.71c-.08,0-.15-.07-.15-.15s.07-.15,.15-.15h2.71c.08,0,.15,.07,.15,.15s-.07,.15-.15,.15Z"/><path d="M196.44,41.74h-2.71c-.08,0-.15-.07-.15-.15s.07-.15,.15-.15h2.71c.08,0,.15,.07,.15,.15s-.07,.15-.15,.15Z"/><path d="M196.44,48.26h-2.71c-.08,0-.15-.07-.15-.15s.07-.15,.15-.15h2.71c.08,0,.15,.07,.15,.15s-.07,.15-.15,.15Z"/><path d="M196.44,54.77h-2.71c-.08,0-.15-.07-.15-.15s.07-.15,.15-.15h2.71c.08,0,.15,.07,.15,.15s-.07,.15-.15,.15Z"/><path d="M196.44,61.29h-2.71c-.08,0-.15-.07-.15-.15s.07-.15,.15-.15h2.71c.08,0,.15,.07,.15,.15s-.07,.15-.15,.15Z"/><path d="M196.44,67.81h-2.71c-.08,0-.15-.07-.15-.15s.07-.15,.15-.15h2.71c.08,0,.15,.07,.15,.15s-.07,.15-.15,.15Z"/><path d="M196.44,74.32h-2.71c-.08,0-.15-.07-.15-.15s.07-.15,.15-.15h2.71c.08,0,.15,.07,.15,.15s-.07,.15-.15,.15Z"/><path d="M196.44,80.84h-2.71c-.08,0-.15-.07-.15-.15s.07-.15,.15-.15h2.71c.08,0,.15,.07,.15,.15s-.07,.15-.15,.15Z"/><path d="M196.44,87.35h-2.71c-.08,0-.15-.07-.15-.15s.07-.15,.15-.15h2.71c.08,0,.15,.07,.15,.15s-.07,.15-.15,.15Z"/></g><g><path d="M194.64,25.46h-.9c-.08,0-.15-.07-.15-.15s.07-.15,.15-.15h.9c.08,0,.15,.07,.15,.15s-.07,.15-.15,.15Z"/><path d="M194.64,31.97h-.9c-.08,0-.15-.07-.15-.15s.07-.15,.15-.15h.9c.08,0,.15,.07,.15,.15s-.07,.15-.15,.15Z"/><path d="M194.64,38.49h-.9c-.08,0-.15-.07-.15-.15s.07-.15,.15-.15h.9c.08,0,.15,.07,.15,.15s-.07,.15-.15,.15Z"/><path d="M194.64,45h-.9c-.08,0-.15-.07-.15-.15s.07-.15,.15-.15h.9c.08,0,.15,.07,.15,.15s-.07,.15-.15,.15Z"/><path d="M194.64,51.52h-.9c-.08,0-.15-.07-.15-.15s.07-.15,.15-.15h.9c.08,0,.15,.07,.15,.15s-.07,.15-.15,.15Z"/><path d="M194.64,58.03h-.9c-.08,0-.15-.07-.15-.15s.07-.15,.15-.15h.9c.08,0,.15,.07,.15,.15s-.07,.15-.15,.15Z"/><path d="M194.64,64.55h-.9c-.08,0-.15-.07-.15-.15s.07-.15,.15-.15h.9c.08,0,.15,.07,.15,.15s-.07,.15-.15,.15Z"/><path d="M194.64,71.06h-.9c-.08,0-.15-.07-.15-.15s.07-.15,.15-.15h.9c.08,0,.15,.07,.15,.15s-.07,.15-.15,.15Z"/><path d="M194.64,77.58h-.9c-.08,0-.15-.07-.15-.15s.07-.15,.15-.15h.9c.08,0,.15,.07,.15,.15s-.07,.15-.15,.15Z"/><path d="M194.64,84.09h-.9c-.08,0-.15-.07-.15-.15s.07-.15,.15-.15h.9c.08,0,.15,.07,.15,.15s-.07,.15-.15,.15Z"/></g><path d="M202.6,94.39h-11.05c-.08,0-.15-.07-.15-.15s.07-.15,.15-.15h10.99l5.11-5.11s.06-.04,.1-.04h3.87c.08,0,.15,.07,.15,.15s-.07,.15-.15,.15h-3.81l-5.11,5.11s-.06,.04-.1,.04Z"/><path d="M214.22,89.39h-1.54c-.16,0-.29-.13-.29-.29s.13-.29,.29-.29h1.54c.16,0,.29,.13,.29,.29s-.13,.29-.29,.29Z"/><g><path d="M202.6,22.2h-3.87c-.08,0-.15-.07-.15-.15s.07-.15,.15-.15h3.81l1.62-1.62c.06-.06,.15-.06,.21,0s.06,.15,0,.21l-1.66,1.66s-.06,.04-.1,.04Z"/><path d="M204.8,20.08c-.07,0-.15-.03-.21-.09-.11-.11-.11-.3,0-.41l.79-.79c.11-.11,.3-.11,.41,0s.11,.3,0,.41l-.79,.79c-.06,.06-.13,.09-.21,.09Z"/></g><g><path d="M202.6,35.23h-3.87c-.08,0-.15-.07-.15-.15s.07-.15,.15-.15h3.81l1.62-1.62c.06-.06,.15-.06,.21,0s.06,.15,0,.21l-1.66,1.66s-.06,.04-.1,.04Z"/><path d="M204.8,33.11c-.07,0-.15-.03-.21-.09-.11-.11-.11-.3,0-.41l.79-.79c.11-.11,.3-.11,.41,0,.11,.11,.11,.3,0,.41l-.79,.79c-.06,.06-.13,.09-.21,.09Z"/></g><g><path d="M202.6,48.26h-3.87c-.08,0-.15-.07-.15-.15s.07-.15,.15-.15h3.81l1.62-1.62c.06-.06,.15-.06,.21,0s.06,.15,0,.21l-1.66,1.66s-.06,.04-.1,.04Z"/><path d="M204.8,46.14c-.07,0-.15-.03-.21-.09-.11-.11-.11-.3,0-.41l.79-.79c.11-.11,.3-.11,.41,0s.11,.3,0,.41l-.79,.79c-.06,.06-.13,.09-.21,.09Z"/></g><g><path d="M202.6,61.29h-3.87c-.08,0-.15-.07-.15-.15s.07-.15,.15-.15h3.81l1.62-1.62c.06-.06,.15-.06,.21,0s.06,.15,0,.21l-1.66,1.66s-.06,.04-.1,.04Z"/><path d="M204.8,59.17c-.07,0-.15-.03-.21-.09-.11-.11-.11-.3,0-.41l.79-.79c.11-.11,.3-.11,.41,0,.11,.11,.11,.3,0,.41l-.79,.79c-.06,.06-.13,.09-.21,.09Z"/></g><g><path d="M202.6,74.32h-3.87c-.08,0-.15-.07-.15-.15s.07-.15,.15-.15h3.81l1.62-1.62c.06-.06,.15-.06,.21,0s.06,.15,0,.21l-1.66,1.66s-.06,.04-.1,.04Z"/><path d="M204.8,72.2c-.07,0-.15-.03-.21-.09-.11-.11-.11-.3,0-.41l.79-.79c.11-.11,.3-.11,.41,0s.11,.3,0,.41l-.79,.79c-.06,.06-.13,.09-.21,.09Z"/></g><g><path d="M202.6,87.35h-3.87c-.08,0-.15-.07-.15-.15s.07-.15,.15-.15h3.81l1.62-1.62c.06-.06,.15-.06,.21,0s.06,.15,0,.21l-1.66,1.66s-.06,.04-.1,.04Z"/><path d="M204.8,85.23c-.07,0-.15-.03-.21-.09-.11-.11-.11-.3,0-.41l.79-.79c.11-.11,.3-.11,.41,0,.11,.11,.11,.3,0,.41l-.79,.79c-.06,.06-.13,.09-.21,.09Z"/></g><path d="M187.52,11.02h-30.77c-.08,0-.15-.03-.21-.09l-3.32-3.32h-30.55c-.16,0-.29-.13-.29-.29s.13-.29,.29-.29h30.67c.08,0,.15,.03,.21,.09l3.32,3.32h30.53l5.33-5.33c.11-.11,.3-.11,.41,0s.11,.3,0,.41l-5.41,5.41c-.05,.05-.13,.09-.21,.09Z"/><path d="M186.48,9.69c-.08,0-.15-.07-.15-.15v-.56s.02-.08,.04-.1l.8-.8c.06-.06,.15-.06,.21,0s.06,.15,0,.21l-.76,.76v.5c0,.08-.07,.15-.15,.15Z"/><path d="M184.68,9.69c-.08,0-.15-.07-.15-.15v-.56s.02-.08,.04-.1l.8-.8c.06-.06,.15-.06,.21,0,.06,.06,.06,.15,0,.21l-.76,.76v.5c0,.08-.07,.15-.15,.15Z"/><path d="M182.87,9.69c-.08,0-.15-.07-.15-.15v-.56s.02-.08,.04-.1l.8-.8c.06-.06,.15-.06,.21,0s.06,.15,0,.21l-.76,.76v.5c0,.08-.07,.15-.15,.15Z"/><path d="M181.07,9.69c-.08,0-.15-.07-.15-.15v-.56s.02-.08,.04-.1l.8-.8c.06-.06,.15-.06,.21,0s.06,.15,0,.21l-.76,.76v.5c0,.08-.07,.15-.15,.15Z"/><path d="M179.26,9.69c-.08,0-.15-.07-.15-.15v-.56s.02-.08,.04-.1l.8-.8c.06-.06,.15-.06,.21,0s.06,.15,0,.21l-.76,.76v.5c0,.08-.07,.15-.15,.15Z"/><path d="M177.46,9.69c-.08,0-.15-.07-.15-.15v-.56s.02-.08,.04-.1l.8-.8c.06-.06,.15-.06,.21,0s.06,.15,0,.21l-.76,.76v.5c0,.08-.07,.15-.15,.15Z"/><path d="M175.66,9.69c-.08,0-.15-.07-.15-.15v-.56s.02-.08,.04-.1l.8-.8c.06-.06,.15-.06,.21,0s.06,.15,0,.21l-.76,.76v.5c0,.08-.07,.15-.15,.15Z"/><path d="M173.85,9.69c-.08,0-.15-.07-.15-.15v-.56s.02-.08,.04-.1l.8-.8c.06-.06,.15-.06,.21,0s.06,.15,0,.21l-.76,.76v.5c0,.08-.07,.15-.15,.15Z"/><path d="M172.05,9.69c-.08,0-.15-.07-.15-.15v-.56s.02-.08,.04-.1l.8-.8c.06-.06,.15-.06,.21,0s.06,.15,0,.21l-.76,.76v.5c0,.08-.07,.15-.15,.15Z"/><path d="M154.04,8.16h-16.95s-.08-.02-.1-.04l-.56-.56c-.06-.06-.06-.15,0-.21s.15-.06,.21,0l.51,.51h16.89c.08,0,.15,.07,.15,.15s-.07,.15-.15,.15Z"/><path d="M116.4,10.12c-.08,0-.15-.07-.15-.15v-2s.02-.08,.04-.1l.75-.75s.06-.04,.1-.04h2.56c.08,0,.15,.07,.15,.15s-.07,.15-.15,.15h-2.5l-.67,.67v1.94c0,.08-.07,.15-.15,.15Z"/><path d="M116.4,15.98c-.08,0-.15-.07-.15-.15v-3.61c0-.08,.07-.15,.15-.15s.15,.07,.15,.15v3.61c0,.08-.07,.15-.15,.15Z"/><path d="M148.12,23.58c-.08,0-.15-.07-.15-.15v-3.02s.02-.08,.04-.1l7.8-7.8s.06-.04,.1-.04h31.36c.08,0,.15,.07,.15,.15s-.07,.15-.15,.15h-31.3l-7.72,7.72v2.96c0,.08-.07,.15-.15,.15Z"/><g><g><path d="M181.73,22.19h-13.41c-.08,0-.15-.07-.15-.15s.07-.15,.15-.15h13.41c.08,0,.15,.07,.15,.15s-.07,.15-.15,.15Z"/><polygon points="168.18 22.03 168.18 21.68 171.73 21.68 172.11 22.06 168.18 22.03"/></g><rect x="166.79" y="21.64" width=".46" height=".45" transform="translate(334.04 43.73) rotate(180)"/><rect x="165.74" y="21.73" width=".29" height=".28" transform="translate(331.77 43.73) rotate(180)"/><rect x="163.97" y="21.78" width=".18" height=".17" transform="translate(328.11 43.73) rotate(180)"/></g><g><g><path d="M181.73,35.21h-13.41c-.08,0-.15-.07-.15-.15s.07-.15,.15-.15h13.41c.08,0,.15,.07,.15,.15s-.07,.15-.15,.15Z"/><polygon points="168.18 35.05 168.18 34.7 171.73 34.7 172.11 35.08 168.18 35.05"/></g><rect x="166.79" y="34.66" width=".46" height=".45" transform="translate(334.04 69.78) rotate(180)"/><rect x="165.74" y="34.75" width=".29" height=".28" transform="translate(331.77 69.78) rotate(180)"/><rect x="163.97" y="34.8" width=".18" height=".17" transform="translate(328.11 69.78) rotate(180)"/></g><g><g><path d="M181.73,61.26h-13.41c-.08,0-.15-.07-.15-.15s.07-.15,.15-.15h13.41c.08,0,.15,.07,.15,.15s-.07,.15-.15,.15Z"/><polygon points="168.18 61.1 168.18 60.75 171.73 60.75 172.11 61.12 168.18 61.1"/></g><rect x="166.79" y="60.71" width=".46" height=".45" transform="translate(334.04 121.87) rotate(180)"/><rect x="165.74" y="60.79" width=".29" height=".28" transform="translate(331.77 121.87) rotate(180)"/><rect x="163.97" y="60.85" width=".18" height=".17" transform="translate(328.11 121.87) rotate(180)"/></g><g><g><path d="M181.73,87.3h-13.41c-.08,0-.15-.07-.15-.15s.07-.15,.15-.15h13.41c.08,0,.15,.07,.15,.15s-.07,.15-.15,.15Z"/><polygon points="168.18 87.14 168.18 86.79 171.73 86.79 172.11 87.17 168.18 87.14"/></g><rect x="166.79" y="86.75" width=".46" height=".45" transform="translate(334.04 173.96) rotate(180)"/><rect x="165.74" y="86.84" width=".29" height=".28" transform="translate(331.77 173.96) rotate(180)"/><rect x="163.97" y="86.89" width=".18" height=".17" transform="translate(328.11 173.96) rotate(180)"/></g><path d="M160.76,81.24h-46.51c-.08,0-.15-.07-.15-.15v-6.52s.02-.08,.04-.1l33.83-33.83v-13.77c0-.08,.07-.15,.15-.15s.15,.07,.15,.15v13.83s-.02,.08-.04,.1l-33.83,33.83v6.31h46.31l3.12-3.12s.06-.04,.1-.04h3.33c.08,0,.15,.07,.15,.15s-.07,.15-.15,.15h-3.27l-3.12,3.12s-.06,.04-.1,.04Z"/><path d="M158.45,86.94h-21.45c-.08,0-.15-.07-.15-.15s.07-.15,.15-.15h21.45c.08,0,.15,.07,.15,.15s-.07,.15-.15,.15Z"/><polygon points="155.54 60.39 151.94 60.39 151.94 55.12 151.96 55.1 200.9 6.16 201 6.27 152.08 55.18 152.08 60.24 155.54 60.24 155.54 60.39"/><polygon points="130.71 32.25 130.61 32.15 134.22 28.54 134.22 0 134.37 0 134.37 28.6 134.35 28.62 130.71 32.25"/><polygon points="181.1 93.19 130.63 93.19 130.61 93.17 126.89 89.45 126.89 87.71 127.03 87.71 127.03 89.38 130.69 93.05 181.1 93.05 181.1 93.19"/><path d="M107.68,105.67c-4.1,0-7.44-3.34-7.44-7.44s3.34-7.44,7.44-7.44,7.44,3.34,7.44,7.44-3.34,7.44-7.44,7.44Zm0-13.12c-3.13,0-5.68,2.55-5.68,5.68s2.55,5.68,5.68,5.68,5.68-2.55,5.68-5.68-2.55-5.68-5.68-5.68Z"/><path d="M107.68,112.86c-8.06,0-14.63-6.56-14.63-14.63s6.56-14.63,14.63-14.63,14.63,6.56,14.63,14.63-6.56,14.63-14.63,14.63Zm0-28.67c-7.74,0-14.04,6.3-14.04,14.04s6.3,14.04,14.04,14.04,14.04-6.3,14.04-14.04-6.3-14.04-14.04-14.04Z"/><path d="M201.8,180.01h-6.62c-.08,0-.15-.03-.21-.09l-2.78-2.78c-.05-.05-.09-.13-.09-.21V105.45c0-.16,.13-.29,.29-.29h2.48c.16,0,.29,.13,.29,.29s-.13,.29-.29,.29h-2.19v71.08l2.61,2.61h6.49c.16,0,.29,.13,.29,.29s-.13,.29-.29,.29Z"/><path d="M189.17,174.56h-2.71c-.08,0-.15-.07-.15-.15s.07-.15,.15-.15h2.71c.08,0,.15,.07,.15,.15s-.07,.15-.15,.15Z"/><path d="M189.17,168.04h-2.71c-.08,0-.15-.07-.15-.15s.07-.15,.15-.15h2.71c.08,0,.15,.07,.15,.15s-.07,.15-.15,.15Z"/><path d="M189.17,161.53h-2.71c-.08,0-.15-.07-.15-.15s.07-.15,.15-.15h2.71c.08,0,.15,.07,.15,.15s-.07,.15-.15,.15Z"/><path d="M189.17,155.01h-2.71c-.08,0-.15-.07-.15-.15s.07-.15,.15-.15h2.71c.08,0,.15,.07,.15,.15s-.07,.15-.15,.15Z"/><path d="M189.17,148.49h-2.71c-.08,0-.15-.07-.15-.15s.07-.15,.15-.15h2.71c.08,0,.15,.07,.15,.15s-.07,.15-.15,.15Z"/><path d="M189.17,141.98h-2.71c-.08,0-.15-.07-.15-.15s.07-.15,.15-.15h2.71c.08,0,.15,.07,.15,.15s-.07,.15-.15,.15Z"/><path d="M189.17,135.46h-2.71c-.08,0-.15-.07-.15-.15s.07-.15,.15-.15h2.71c.08,0,.15,.07,.15,.15s-.07,.15-.15,.15Z"/><path d="M189.17,128.95h-2.71c-.08,0-.15-.07-.15-.15s.07-.15,.15-.15h2.71c.08,0,.15,.07,.15,.15s-.07,.15-.15,.15Z"/><path d="M189.17,122.43h-2.71c-.08,0-.15-.07-.15-.15s.07-.15,.15-.15h2.71c.08,0,.15,.07,.15,.15s-.07,.15-.15,.15Z"/><path d="M189.17,115.92h-2.71c-.08,0-.15-.07-.15-.15s.07-.15,.15-.15h2.71c.08,0,.15,.07,.15,.15s-.07,.15-.15,.15Z"/><path d="M189.17,109.4h-2.71c-.08,0-.15-.07-.15-.15s.07-.15,.15-.15h2.71c.08,0,.15,.07,.15,.15s-.07,.15-.15,.15Z"/><g><path d="M197.29,174.56h-2.71c-.08,0-.15-.07-.15-.15s.07-.15,.15-.15h2.71c.08,0,.15,.07,.15,.15s-.07,.15-.15,.15Z"/><path d="M197.29,168.04h-2.71c-.08,0-.15-.07-.15-.15s.07-.15,.15-.15h2.71c.08,0,.15,.07,.15,.15s-.07,.15-.15,.15Z"/><path d="M197.29,161.53h-2.71c-.08,0-.15-.07-.15-.15s.07-.15,.15-.15h2.71c.08,0,.15,.07,.15,.15s-.07,.15-.15,.15Z"/><path d="M197.29,155.01h-2.71c-.08,0-.15-.07-.15-.15s.07-.15,.15-.15h2.71c.08,0,.15,.07,.15,.15s-.07,.15-.15,.15Z"/><path d="M197.29,148.49h-2.71c-.08,0-.15-.07-.15-.15s.07-.15,.15-.15h2.71c.08,0,.15,.07,.15,.15s-.07,.15-.15,.15Z"/><path d="M197.29,141.98h-2.71c-.08,0-.15-.07-.15-.15s.07-.15,.15-.15h2.71c.08,0,.15,.07,.15,.15s-.07,.15-.15,.15Z"/><path d="M197.29,135.46h-2.71c-.08,0-.15-.07-.15-.15s.07-.15,.15-.15h2.71c.08,0,.15,.07,.15,.15s-.07,.15-.15,.15Z"/><path d="M197.29,128.95h-2.71c-.08,0-.15-.07-.15-.15s.07-.15,.15-.15h2.71c.08,0,.15,.07,.15,.15s-.07,.15-.15,.15Z"/><path d="M197.29,122.43h-2.71c-.08,0-.15-.07-.15-.15s.07-.15,.15-.15h2.71c.08,0,.15,.07,.15,.15s-.07,.15-.15,.15Z"/><path d="M197.29,115.92h-2.71c-.08,0-.15-.07-.15-.15s.07-.15,.15-.15h2.71c.08,0,.15,.07,.15,.15s-.07,.15-.15,.15Z"/><path d="M197.29,109.4h-2.71c-.08,0-.15-.07-.15-.15s.07-.15,.15-.15h2.71c.08,0,.15,.07,.15,.15s-.07,.15-.15,.15Z"/></g><g><path d="M195.49,171.3h-.9c-.08,0-.15-.07-.15-.15s.07-.15,.15-.15h.9c.08,0,.15,.07,.15,.15s-.07,.15-.15,.15Z"/><path d="M195.49,164.78h-.9c-.08,0-.15-.07-.15-.15s.07-.15,.15-.15h.9c.08,0,.15,.07,.15,.15s-.07,.15-.15,.15Z"/><path d="M195.49,158.27h-.9c-.08,0-.15-.07-.15-.15s.07-.15,.15-.15h.9c.08,0,.15,.07,.15,.15s-.07,.15-.15,.15Z"/><path d="M195.49,151.75h-.9c-.08,0-.15-.07-.15-.15s.07-.15,.15-.15h.9c.08,0,.15,.07,.15,.15s-.07,.15-.15,.15Z"/><path d="M195.49,145.24h-.9c-.08,0-.15-.07-.15-.15s.07-.15,.15-.15h.9c.08,0,.15,.07,.15,.15s-.07,.15-.15,.15Z"/><path d="M195.49,138.72h-.9c-.08,0-.15-.07-.15-.15s.07-.15,.15-.15h.9c.08,0,.15,.07,.15,.15s-.07,.15-.15,.15Z"/><path d="M195.49,132.21h-.9c-.08,0-.15-.07-.15-.15s.07-.15,.15-.15h.9c.08,0,.15,.07,.15,.15s-.07,.15-.15,.15Z"/><path d="M195.49,125.69h-.9c-.08,0-.15-.07-.15-.15s.07-.15,.15-.15h.9c.08,0,.15,.07,.15,.15s-.07,.15-.15,.15Z"/><path d="M195.49,119.18h-.9c-.08,0-.15-.07-.15-.15s.07-.15,.15-.15h.9c.08,0,.15,.07,.15,.15s-.07,.15-.15,.15Z"/><path d="M195.49,112.66h-.9c-.08,0-.15-.07-.15-.15s.07-.15,.15-.15h.9c.08,0,.15,.07,.15,.15s-.07,.15-.15,.15Z"/></g><path d="M212.48,107.51h-3.87s-.08-.02-.1-.04l-5.11-5.11h-10.99c-.08,0-.15-.07-.15-.15s.07-.15,.15-.15h11.05s.08,.02,.1,.04l5.11,5.11h3.81c.08,0,.15,.07,.15,.15s-.07,.15-.15,.15Z"/><path d="M215.07,107.66h-1.54c-.16,0-.29-.13-.29-.29s.13-.29,.29-.29h1.54c.16,0,.29,.13,.29,.29s-.13,.29-.29,.29Z"/><g><path d="M205.12,176.22s-.07-.01-.1-.04l-1.62-1.62h-3.81c-.08,0-.15-.07-.15-.15s.07-.15,.15-.15h3.87s.08,.02,.1,.04l1.66,1.66c.06,.06,.06,.15,0,.21-.03,.03-.07,.04-.1,.04Z"/><path d="M206.45,177.76c-.07,0-.15-.03-.21-.09l-.79-.79c-.11-.11-.11-.3,0-.41,.11-.11,.3-.11,.41,0l.79,.79c.11,.11,.11,.3,0,.41-.06,.06-.13,.09-.21,.09Z"/></g><g><path d="M205.12,163.19s-.07-.01-.1-.04l-1.62-1.62h-3.81c-.08,0-.15-.07-.15-.15s.07-.15,.15-.15h3.87s.08,.02,.1,.04l1.66,1.66c.06,.06,.06,.15,0,.21-.03,.03-.07,.04-.1,.04Z"/><path d="M206.45,164.73c-.07,0-.15-.03-.21-.09l-.79-.79c-.11-.11-.11-.3,0-.41s.3-.11,.41,0l.79,.79c.11,.11,.11,.3,0,.41-.06,.06-.13,.09-.21,.09Z"/></g><g><path d="M205.12,150.16s-.07-.01-.1-.04l-1.62-1.62h-3.81c-.08,0-.15-.07-.15-.15s.07-.15,.15-.15h3.87s.08,.02,.1,.04l1.66,1.66c.06,.06,.06,.15,0,.21-.03,.03-.07,.04-.1,.04Z"/><path d="M206.45,151.7c-.07,0-.15-.03-.21-.09l-.79-.79c-.11-.11-.11-.3,0-.41,.11-.11,.3-.11,.41,0l.79,.79c.11,.11,.11,.3,0,.41-.06,.06-.13,.09-.21,.09Z"/></g><g><path d="M205.12,137.12s-.07-.01-.1-.04l-1.62-1.62h-3.81c-.08,0-.15-.07-.15-.15s.07-.15,.15-.15h3.87s.08,.02,.1,.04l1.66,1.66c.06,.06,.06,.15,0,.21-.03,.03-.07,.04-.1,.04Z"/><path d="M206.45,138.67c-.07,0-.15-.03-.21-.09l-.79-.79c-.11-.11-.11-.3,0-.41s.3-.11,.41,0l.79,.79c.11,.11,.11,.3,0,.41-.06,.06-.13,.09-.21,.09Z"/></g><g><path d="M205.12,124.09s-.07-.01-.1-.04l-1.62-1.62h-3.81c-.08,0-.15-.07-.15-.15s.07-.15,.15-.15h3.87s.08,.02,.1,.04l1.66,1.66c.06,.06,.06,.15,0,.21-.03,.03-.07,.04-.1,.04Z"/><path d="M206.45,125.64c-.07,0-.15-.03-.21-.09l-.79-.79c-.11-.11-.11-.3,0-.41,.11-.11,.3-.11,.41,0l.79,.79c.11,.11,.11,.3,0,.41-.06,.06-.13,.09-.21,.09Z"/></g><g><path d="M205.12,111.06s-.07-.01-.1-.04l-1.62-1.62h-3.81c-.08,0-.15-.07-.15-.15s.07-.15,.15-.15h3.87s.08,.02,.1,.04l1.66,1.66c.06,.06,.06,.15,0,.21-.03,.03-.07,.04-.1,.04Z"/><path d="M206.45,112.61c-.07,0-.15-.03-.21-.09l-.79-.79c-.11-.11-.11-.3,0-.41s.3-.11,.41,0l.79,.79c.11,.11,.11,.3,0,.41-.06,.06-.13,.09-.21,.09Z"/></g><path d="M193.78,191.44c-.07,0-.15-.03-.21-.09l-5.33-5.33h-30.53l-3.32,3.32c-.05,.05-.13,.09-.21,.09h-30.67c-.16,0-.29-.13-.29-.29s.13-.29,.29-.29h30.55l3.32-3.32c.05-.05,.13-.09,.21-.09h30.77c.08,0,.15,.03,.21,.09l5.41,5.41c.11,.11,.11,.3,0,.41-.06,.06-.13,.09-.21,.09Z"/><path d="M188.14,188.43s-.07-.01-.1-.04l-.8-.8s-.04-.06-.04-.1v-.56c0-.08,.07-.15,.15-.15s.15,.07,.15,.15v.5l.76,.76c.06,.06,.06,.15,0,.21-.03,.03-.07,.04-.1,.04Z"/><path d="M186.33,188.43s-.07-.01-.1-.04l-.8-.8s-.04-.06-.04-.1v-.56c0-.08,.07-.15,.15-.15s.15,.07,.15,.15v.5l.76,.76c.06,.06,.06,.15,0,.21-.03,.03-.07,.04-.1,.04Z"/><path d="M184.53,188.43s-.07-.01-.1-.04l-.8-.8s-.04-.06-.04-.1v-.56c0-.08,.07-.15,.15-.15s.15,.07,.15,.15v.5l.76,.76c.06,.06,.06,.15,0,.21-.03,.03-.07,.04-.1,.04Z"/><path d="M182.72,188.43s-.07-.01-.1-.04l-.8-.8s-.04-.06-.04-.1v-.56c0-.08,.07-.15,.15-.15s.15,.07,.15,.15v.5l.76,.76c.06,.06,.06,.15,0,.21-.03,.03-.07,.04-.1,.04Z"/><path d="M180.92,188.43s-.07-.01-.1-.04l-.8-.8s-.04-.06-.04-.1v-.56c0-.08,.07-.15,.15-.15s.15,.07,.15,.15v.5l.76,.76c.06,.06,.06,.15,0,.21-.03,.03-.07,.04-.1,.04Z"/><path d="M179.12,188.43s-.07-.01-.1-.04l-.8-.8s-.04-.06-.04-.1v-.56c0-.08,.07-.15,.15-.15s.15,.07,.15,.15v.5l.76,.76c.06,.06,.06,.15,0,.21-.03,.03-.07,.04-.1,.04Z"/><path d="M177.31,188.43s-.07-.01-.1-.04l-.8-.8s-.04-.06-.04-.1v-.56c0-.08,.07-.15,.15-.15s.15,.07,.15,.15v.5l.76,.76c.06,.06,.06,.15,0,.21-.03,.03-.07,.04-.1,.04Z"/><path d="M175.51,188.43s-.07-.01-.1-.04l-.8-.8s-.04-.06-.04-.1v-.56c0-.08,.07-.15,.15-.15s.15,.07,.15,.15v.5l.76,.76c.06,.06,.06,.15,0,.21-.03,.03-.07,.04-.1,.04Z"/><path d="M173.7,188.43s-.07-.01-.1-.04l-.8-.8s-.04-.06-.04-.1v-.56c0-.08,.07-.15,.15-.15s.15,.07,.15,.15v.5l.76,.76c.06,.06,.06,.15,0,.21-.03,.03-.07,.04-.1,.04Z"/><path d="M137.38,189.15s-.07-.01-.1-.04c-.06-.06-.06-.15,0-.21l.56-.56s.06-.04,.1-.04h16.95c.08,0,.15,.07,.15,.15s-.07,.15-.15,.15h-16.89l-.51,.52s-.07,.04-.1,.04Z"/><path d="M120.56,189.39h-2.56s-.08-.02-.1-.04l-.75-.75s-.04-.06-.04-.1v-2c0-.08,.07-.15,.15-.15s.15,.07,.15,.15v1.94l.67,.67h2.5c.08,0,.15,.07,.15,.15s-.07,.15-.15,.15Z"/><path d="M117.25,184.38c-.08,0-.15-.07-.15-.15v-3.61c0-.08,.07-.15,.15-.15s.15,.07,.15,.15v3.61c0,.08-.07,.15-.15,.15Z"/><path d="M188.14,184h-31.36s-.08-.02-.1-.04l-7.8-7.8s-.04-.06-.04-.1v-3.02c0-.08,.07-.15,.15-.15s.15,.07,.15,.15v2.96l7.72,7.72h31.3c.08,0,.15,.07,.15,.15s-.07,.15-.15,.15Z"/><g><g><path d="M182.58,174.56h-13.41c-.08,0-.15-.07-.15-.15s.07-.15,.15-.15h13.41c.08,0,.15,.07,.15,.15s-.07,.15-.15,.15Z"/><polygon points="169.03 174.43 169.03 174.78 172.58 174.78 172.97 174.41 169.03 174.43"/></g><rect x="167.65" y="174.37" width=".46" height=".45" transform="translate(335.75 349.19) rotate(180)"/><rect x="166.6" y="174.45" width=".29" height=".28" transform="translate(333.48 349.19) rotate(180)"/><rect x="164.82" y="174.51" width=".18" height=".17" transform="translate(329.82 349.19) rotate(180)"/></g><g><g><path d="M182.58,161.54h-13.41c-.08,0-.15-.07-.15-.15s.07-.15,.15-.15h13.41c.08,0,.15,.07,.15,.15s-.07,.15-.15,.15Z"/><polygon points="169.03 161.41 169.03 161.76 172.58 161.76 172.97 161.38 169.03 161.41"/></g><rect x="167.65" y="161.35" width=".46" height=".45" transform="translate(335.75 323.14) rotate(180)"/><rect x="166.6" y="161.43" width=".29" height=".28" transform="translate(333.48 323.14) rotate(180)"/><rect x="164.82" y="161.49" width=".18" height=".17" transform="translate(329.82 323.14) rotate(180)"/></g><g><g><path d="M182.58,135.49h-13.41c-.08,0-.15-.07-.15-.15s.07-.15,.15-.15h13.41c.08,0,.15,.07,.15,.15s-.07,.15-.15,.15Z"/><polygon points="169.03 135.36 169.03 135.72 172.58 135.72 172.97 135.34 169.03 135.36"/></g><rect x="167.65" y="135.3" width=".46" height=".45" transform="translate(335.75 271.05) rotate(180)"/><rect x="166.6" y="135.39" width=".29" height=".28" transform="translate(333.48 271.05) rotate(180)"/><rect x="164.82" y="135.44" width=".18" height=".17" transform="translate(329.82 271.05) rotate(180)"/></g><g><g><path d="M182.58,109.45h-13.41c-.08,0-.15-.07-.15-.15s.07-.15,.15-.15h13.41c.08,0,.15,.07,.15,.15s-.07,.15-.15,.15Z"/><polygon points="169.03 109.32 169.03 109.67 172.58 109.67 172.97 109.29 169.03 109.32"/></g><rect x="167.65" y="109.26" width=".46" height=".45" transform="translate(335.75 218.96) rotate(180)"/><rect x="166.6" y="109.34" width=".29" height=".28" transform="translate(333.48 218.96) rotate(180)"/><rect x="164.82" y="109.4" width=".18" height=".17" transform="translate(329.82 218.96) rotate(180)"/></g><path d="M148.97,169.74c-.08,0-.15-.07-.15-.15v-13.77l-33.83-33.83s-.04-.06-.04-.1v-6.52c0-.08,.07-.15,.15-.15h46.51s.08,.02,.1,.04l3.12,3.12h3.27c.08,0,.15,.07,.15,.15s-.07,.15-.15,.15h-3.33s-.08-.02-.1-.04l-3.12-3.12h-46.31v6.31l33.83,33.83s.04,.06,.04,.1v13.83c0,.08-.07,.15-.15,.15Z"/><path d="M159.3,109.82h-21.45c-.08,0-.15-.07-.15-.15s.07-.15,.15-.15h21.45c.08,0,.15,.07,.15,.15s-.07,.15-.15,.15Z"/><polygon points="201.75 190.3 152.79 141.34 152.79 136.07 156.4 136.07 156.4 136.22 152.94 136.22 152.94 141.28 201.86 190.2 201.75 190.3"/><polygon points="135.22 196.46 135.07 196.46 135.07 167.93 131.46 164.32 131.57 164.21 135.22 167.86 135.22 196.46"/><polygon points="127.89 108.76 127.74 108.76 127.74 107.02 127.76 106.99 131.49 103.27 181.96 103.27 181.96 103.42 131.55 103.42 127.89 107.08 127.89 108.76"/><path d="M21.03,180.01h-6.62c-.16,0-.29-.13-.29-.29s.13-.29,.29-.29h6.49l2.61-2.61V105.74h-2.19c-.16,0-.29-.13-.29-.29s.13-.29,.29-.29h2.48c.16,0,.29,.13,.29,.29v71.49c0,.08-.03,.15-.09,.21l-2.78,2.78c-.05,.05-.13,.09-.21,.09Z"/><path d="M29.75,174.56h-2.71c-.08,0-.15-.07-.15-.15s.07-.15,.15-.15h2.71c.08,0,.15,.07,.15,.15s-.07,.15-.15,.15Z"/><path d="M29.75,168.04h-2.71c-.08,0-.15-.07-.15-.15s.07-.15,.15-.15h2.71c.08,0,.15,.07,.15,.15s-.07,.15-.15,.15Z"/><path d="M29.75,161.53h-2.71c-.08,0-.15-.07-.15-.15s.07-.15,.15-.15h2.71c.08,0,.15,.07,.15,.15s-.07,.15-.15,.15Z"/><path d="M29.75,155.01h-2.71c-.08,0-.15-.07-.15-.15s.07-.15,.15-.15h2.71c.08,0,.15,.07,.15,.15s-.07,.15-.15,.15Z"/><path d="M29.75,148.49h-2.71c-.08,0-.15-.07-.15-.15s.07-.15,.15-.15h2.71c.08,0,.15,.07,.15,.15s-.07,.15-.15,.15Z"/><path d="M29.75,141.98h-2.71c-.08,0-.15-.07-.15-.15s.07-.15,.15-.15h2.71c.08,0,.15,.07,.15,.15s-.07,.15-.15,.15Z"/><path d="M29.75,135.46h-2.71c-.08,0-.15-.07-.15-.15s.07-.15,.15-.15h2.71c.08,0,.15,.07,.15,.15s-.07,.15-.15,.15Z"/><path d="M29.75,128.95h-2.71c-.08,0-.15-.07-.15-.15s.07-.15,.15-.15h2.71c.08,0,.15,.07,.15,.15s-.07,.15-.15,.15Z"/><path d="M29.75,122.43h-2.71c-.08,0-.15-.07-.15-.15s.07-.15,.15-.15h2.71c.08,0,.15,.07,.15,.15s-.07,.15-.15,.15Z"/><path d="M29.75,115.92h-2.71c-.08,0-.15-.07-.15-.15s.07-.15,.15-.15h2.71c.08,0,.15,.07,.15,.15s-.07,.15-.15,.15Z"/><path d="M29.75,109.4h-2.71c-.08,0-.15-.07-.15-.15s.07-.15,.15-.15h2.71c.08,0,.15,.07,.15,.15s-.07,.15-.15,.15Z"/><g><path d="M21.63,174.56h-2.71c-.08,0-.15-.07-.15-.15s.07-.15,.15-.15h2.71c.08,0,.15,.07,.15,.15s-.07,.15-.15,.15Z"/><path d="M21.63,168.04h-2.71c-.08,0-.15-.07-.15-.15s.07-.15,.15-.15h2.71c.08,0,.15,.07,.15,.15s-.07,.15-.15,.15Z"/><path d="M21.63,161.53h-2.71c-.08,0-.15-.07-.15-.15s.07-.15,.15-.15h2.71c.08,0,.15,.07,.15,.15s-.07,.15-.15,.15Z"/><path d="M21.63,155.01h-2.71c-.08,0-.15-.07-.15-.15s.07-.15,.15-.15h2.71c.08,0,.15,.07,.15,.15s-.07,.15-.15,.15Z"/><path d="M21.63,148.49h-2.71c-.08,0-.15-.07-.15-.15s.07-.15,.15-.15h2.71c.08,0,.15,.07,.15,.15s-.07,.15-.15,.15Z"/><path d="M21.63,141.98h-2.71c-.08,0-.15-.07-.15-.15s.07-.15,.15-.15h2.71c.08,0,.15,.07,.15,.15s-.07,.15-.15,.15Z"/><path d="M21.63,135.46h-2.71c-.08,0-.15-.07-.15-.15s.07-.15,.15-.15h2.71c.08,0,.15,.07,.15,.15s-.07,.15-.15,.15Z"/><path d="M21.63,128.95h-2.71c-.08,0-.15-.07-.15-.15s.07-.15,.15-.15h2.71c.08,0,.15,.07,.15,.15s-.07,.15-.15,.15Z"/><path d="M21.63,122.43h-2.71c-.08,0-.15-.07-.15-.15s.07-.15,.15-.15h2.71c.08,0,.15,.07,.15,.15s-.07,.15-.15,.15Z"/><path d="M21.63,115.92h-2.71c-.08,0-.15-.07-.15-.15s.07-.15,.15-.15h2.71c.08,0,.15,.07,.15,.15s-.07,.15-.15,.15Z"/><path d="M21.63,109.4h-2.71c-.08,0-.15-.07-.15-.15s.07-.15,.15-.15h2.71c.08,0,.15,.07,.15,.15s-.07,.15-.15,.15Z"/></g><g><path d="M21.63,171.3h-.9c-.08,0-.15-.07-.15-.15s.07-.15,.15-.15h.9c.08,0,.15,.07,.15,.15s-.07,.15-.15,.15Z"/><path d="M21.63,164.78h-.9c-.08,0-.15-.07-.15-.15s.07-.15,.15-.15h.9c.08,0,.15,.07,.15,.15s-.07,.15-.15,.15Z"/><path d="M21.63,158.27h-.9c-.08,0-.15-.07-.15-.15s.07-.15,.15-.15h.9c.08,0,.15,.07,.15,.15s-.07,.15-.15,.15Z"/><path d="M21.63,151.75h-.9c-.08,0-.15-.07-.15-.15s.07-.15,.15-.15h.9c.08,0,.15,.07,.15,.15s-.07,.15-.15,.15Z"/><path d="M21.63,145.24h-.9c-.08,0-.15-.07-.15-.15s.07-.15,.15-.15h.9c.08,0,.15,.07,.15,.15s-.07,.15-.15,.15Z"/><path d="M21.63,138.72h-.9c-.08,0-.15-.07-.15-.15s.07-.15,.15-.15h.9c.08,0,.15,.07,.15,.15s-.07,.15-.15,.15Z"/><path d="M21.63,132.21h-.9c-.08,0-.15-.07-.15-.15s.07-.15,.15-.15h.9c.08,0,.15,.07,.15,.15s-.07,.15-.15,.15Z"/><path d="M21.63,125.69h-.9c-.08,0-.15-.07-.15-.15s.07-.15,.15-.15h.9c.08,0,.15,.07,.15,.15s-.07,.15-.15,.15Z"/><path d="M21.63,119.18h-.9c-.08,0-.15-.07-.15-.15s.07-.15,.15-.15h.9c.08,0,.15,.07,.15,.15s-.07,.15-.15,.15Z"/><path d="M21.63,112.66h-.9c-.08,0-.15-.07-.15-.15s.07-.15,.15-.15h.9c.08,0,.15,.07,.15,.15s-.07,.15-.15,.15Z"/></g><path d="M7.61,107.51H3.74c-.08,0-.15-.07-.15-.15s.07-.15,.15-.15h3.81l5.11-5.11s.06-.04,.1-.04h11.05c.08,0,.15,.07,.15,.15s-.07,.15-.15,.15H12.82l-5.11,5.11s-.06,.04-.1,.04Z"/><path d="M2.69,107.66H1.15c-.16,0-.29-.13-.29-.29s.13-.29,.29-.29h1.54c.16,0,.29,.13,.29,.29s-.13,.29-.29,.29Z"/><g><path d="M11.1,176.22s-.07-.01-.1-.04c-.06-.06-.06-.15,0-.21l1.66-1.66s.06-.04,.1-.04h3.87c.08,0,.15,.07,.15,.15s-.07,.15-.15,.15h-3.81l-1.62,1.62s-.07,.04-.1,.04Z"/><path d="M9.77,177.76c-.07,0-.15-.03-.21-.09-.11-.11-.11-.3,0-.41l.79-.79c.11-.11,.3-.11,.41,0s.11,.3,0,.41l-.79,.79c-.06,.06-.13,.09-.21,.09Z"/></g><g><path d="M11.1,163.19s-.07-.01-.1-.04c-.06-.06-.06-.15,0-.21l1.66-1.66s.06-.04,.1-.04h3.87c.08,0,.15,.07,.15,.15s-.07,.15-.15,.15h-3.81l-1.62,1.62s-.07,.04-.1,.04Z"/><path d="M9.77,164.73c-.07,0-.15-.03-.21-.09-.11-.11-.11-.3,0-.41l.79-.79c.11-.11,.3-.11,.41,0s.11,.3,0,.41l-.79,.79c-.06,.06-.13,.09-.21,.09Z"/></g><g><path d="M11.1,150.16s-.07-.01-.1-.04c-.06-.06-.06-.15,0-.21l1.66-1.66s.06-.04,.1-.04h3.87c.08,0,.15,.07,.15,.15s-.07,.15-.15,.15h-3.81l-1.62,1.62s-.07,.04-.1,.04Z"/><path d="M9.77,151.7c-.07,0-.15-.03-.21-.09-.11-.11-.11-.3,0-.41l.79-.79c.11-.11,.3-.11,.41,0s.11,.3,0,.41l-.79,.79c-.06,.06-.13,.09-.21,.09Z"/></g><g><path d="M11.1,137.12s-.07-.01-.1-.04c-.06-.06-.06-.15,0-.21l1.66-1.66s.06-.04,.1-.04h3.87c.08,0,.15,.07,.15,.15s-.07,.15-.15,.15h-3.81l-1.62,1.62s-.07,.04-.1,.04Z"/><path d="M9.77,138.67c-.07,0-.15-.03-.21-.09-.11-.11-.11-.3,0-.41l.79-.79c.11-.11,.3-.11,.41,0s.11,.3,0,.41l-.79,.79c-.06,.06-.13,.09-.21,.09Z"/></g><g><path d="M11.1,124.09s-.07-.01-.1-.04c-.06-.06-.06-.15,0-.21l1.66-1.66s.06-.04,.1-.04h3.87c.08,0,.15,.07,.15,.15s-.07,.15-.15,.15h-3.81l-1.62,1.62s-.07,.04-.1,.04Z"/><path d="M9.77,125.64c-.07,0-.15-.03-.21-.09-.11-.11-.11-.3,0-.41l.79-.79c.11-.11,.3-.11,.41,0s.11,.3,0,.41l-.79,.79c-.06,.06-.13,.09-.21,.09Z"/></g><g><path d="M11.1,111.06s-.07-.01-.1-.04c-.06-.06-.06-.15,0-.21l1.66-1.66s.06-.04,.1-.04h3.87c.08,0,.15,.07,.15,.15s-.07,.15-.15,.15h-3.81l-1.62,1.62s-.07,.04-.1,.04Z"/><path d="M9.77,112.61c-.07,0-.15-.03-.21-.09-.11-.11-.11-.3,0-.41l.79-.79c.11-.11,.3-.11,.41,0s.11,.3,0,.41l-.79,.79c-.06,.06-.13,.09-.21,.09Z"/></g><path d="M22.43,191.44c-.07,0-.15-.03-.21-.09-.11-.11-.11-.3,0-.41l5.41-5.41c.05-.05,.13-.09,.21-.09h30.77c.08,0,.15,.03,.21,.09l3.32,3.32h30.55c.16,0,.29,.13,.29,.29s-.13,.29-.29,.29h-30.67c-.08,0-.15-.03-.21-.09l-3.32-3.32H27.97l-5.33,5.33c-.06,.06-.13,.09-.21,.09Z"/><path d="M28.08,188.43s-.07-.01-.1-.04c-.06-.06-.06-.15,0-.21l.76-.76v-.5c0-.08,.07-.15,.15-.15s.15,.07,.15,.15v.56s-.02,.08-.04,.1l-.8,.8s-.07,.04-.1,.04Z"/><path d="M29.89,188.43s-.07-.01-.1-.04c-.06-.06-.06-.15,0-.21l.76-.76v-.5c0-.08,.07-.15,.15-.15s.15,.07,.15,.15v.56s-.02,.08-.04,.1l-.8,.8s-.07,.04-.1,.04Z"/><path d="M31.69,188.43s-.07-.01-.1-.04c-.06-.06-.06-.15,0-.21l.76-.76v-.5c0-.08,.07-.15,.15-.15s.15,.07,.15,.15v.56s-.02,.08-.04,.1l-.8,.8s-.07,.04-.1,.04Z"/><path d="M33.49,188.43s-.07-.01-.1-.04c-.06-.06-.06-.15,0-.21l.76-.76v-.5c0-.08,.07-.15,.15-.15s.15,.07,.15,.15v.56s-.02,.08-.04,.1l-.8,.8s-.07,.04-.1,.04Z"/><path d="M35.3,188.43s-.07-.01-.1-.04c-.06-.06-.06-.15,0-.21l.76-.76v-.5c0-.08,.07-.15,.15-.15s.15,.07,.15,.15v.56s-.02,.08-.04,.1l-.8,.8s-.07,.04-.1,.04Z"/><path d="M37.1,188.43s-.07-.01-.1-.04c-.06-.06-.06-.15,0-.21l.76-.76v-.5c0-.08,.07-.15,.15-.15s.15,.07,.15,.15v.56s-.02,.08-.04,.1l-.8,.8s-.07,.04-.1,.04Z"/><path d="M38.91,188.43s-.07-.01-.1-.04c-.06-.06-.06-.15,0-.21l.76-.76v-.5c0-.08,.07-.15,.15-.15s.15,.07,.15,.15v.56s-.02,.08-.04,.1l-.8,.8s-.07,.04-.1,.04Z"/><path d="M40.71,188.43s-.07-.01-.1-.04c-.06-.06-.06-.15,0-.21l.76-.76v-.5c0-.08,.07-.15,.15-.15s.15,.07,.15,.15v.56s-.02,.08-.04,.1l-.8,.8s-.07,.04-.1,.04Z"/><path d="M42.51,188.43s-.07-.01-.1-.04c-.06-.06-.06-.15,0-.21l.76-.76v-.5c0-.08,.07-.15,.15-.15s.15,.07,.15,.15v.56s-.02,.08-.04,.1l-.8,.8s-.07,.04-.1,.04Z"/><path d="M78.83,189.15s-.07-.01-.1-.04l-.51-.52h-16.89c-.08,0-.15-.07-.15-.15s.07-.15,.15-.15h16.95s.08,.02,.1,.04l.56,.56c.06,.06,.06,.15,0,.21-.03,.03-.07,.04-.1,.04Z"/><path d="M98.21,189.39h-2.56c-.08,0-.15-.07-.15-.15s.07-.15,.15-.15h2.5l.67-.67v-1.94c0-.08,.07-.15,.15-.15s.15,.07,.15,.15v2s-.02,.08-.04,.1l-.75,.75s-.06,.04-.1,.04Z"/><path d="M98.96,184.38c-.08,0-.15-.07-.15-.15v-3.61c0-.08,.07-.15,.15-.15s.15,.07,.15,.15v3.61c0,.08-.07,.15-.15,.15Z"/><path d="M59.45,184H28.08c-.08,0-.15-.07-.15-.15s.07-.15,.15-.15h31.3l7.72-7.72v-2.96c0-.08,.07-.15,.15-.15s.15,.07,.15,.15v3.02s-.02,.08-.04,.1l-7.8,7.8s-.06,.04-.1,.04Z"/><g><g><path d="M47.04,174.56h-13.41c-.08,0-.15-.07-.15-.15s.07-.15,.15-.15h13.41c.08,0,.15,.07,.15,.15s-.07,.15-.15,.15Z"/><polygon points="47.19 174.43 47.19 174.78 43.63 174.78 43.25 174.41 47.19 174.43"/></g><rect x="48.12" y="174.37" width=".46" height=".45"/><rect x="49.33" y="174.45" width=".29" height=".28"/><rect x="51.22" y="174.51" width=".18" height=".17"/></g><g><g><path d="M47.04,161.54h-13.41c-.08,0-.15-.07-.15-.15s.07-.15,.15-.15h13.41c.08,0,.15,.07,.15,.15s-.07,.15-.15,.15Z"/><polygon points="47.19 161.41 47.19 161.76 43.63 161.76 43.25 161.38 47.19 161.41"/></g><rect x="48.12" y="161.35" width=".46" height=".45"/><rect x="49.33" y="161.43" width=".29" height=".28"/><rect x="51.22" y="161.49" width=".18" height=".17"/></g><g><g><path d="M47.04,135.49h-13.41c-.08,0-.15-.07-.15-.15s.07-.15,.15-.15h13.41c.08,0,.15,.07,.15,.15s-.07,.15-.15,.15Z"/><polygon points="47.19 135.36 47.19 135.72 43.63 135.72 43.25 135.34 47.19 135.36"/></g><rect x="48.12" y="135.3" width=".46" height=".45"/><rect x="49.33" y="135.39" width=".29" height=".28"/><rect x="51.22" y="135.44" width=".18" height=".17"/></g><g><g><path d="M47.04,109.45h-13.41c-.08,0-.15-.07-.15-.15s.07-.15,.15-.15h13.41c.08,0,.15,.07,.15,.15s-.07,.15-.15,.15Z"/><polygon points="47.19 109.32 47.19 109.67 43.63 109.67 43.25 109.29 47.19 109.32"/></g><rect x="48.12" y="109.26" width=".46" height=".45"/><rect x="49.33" y="109.34" width=".29" height=".28"/><rect x="51.22" y="109.4" width=".18" height=".17"/></g><path d="M67.25,169.74c-.08,0-.15-.07-.15-.15v-13.83s.02-.08,.04-.1l33.83-33.83v-6.31H54.67l-3.12,3.12s-.06,.04-.1,.04h-3.33c-.08,0-.15-.07-.15-.15s.07-.15,.15-.15h3.27l3.12-3.12s.06-.04,.1-.04h46.51c.08,0,.15,.07,.15,.15v6.52s-.02,.08-.04,.1l-33.83,33.83v13.77c0,.08-.07,.15-.15,.15Z"/><path d="M78.36,109.82h-21.45c-.08,0-.15-.07-.15-.15s.07-.15,.15-.15h21.45c.08,0,.15,.07,.15,.15s-.07,.15-.15,.15Z"/><polygon points="14.47 190.3 14.36 190.2 63.28 141.28 63.28 136.22 59.82 136.22 59.82 136.07 63.43 136.07 63.43 141.34 63.41 141.36 14.47 190.3"/><polygon points="81.14 196.46 81 196.46 81 167.86 81.02 167.84 84.65 164.21 84.75 164.32 81.14 167.93 81.14 196.46"/><polygon points="88.48 108.76 88.33 108.76 88.33 107.08 84.67 103.42 34.26 103.42 34.26 103.27 84.73 103.27 84.75 103.29 88.48 107.02 88.48 108.76"/></g></g></g></svg>