<svg xmlns="http://www.w3.org/2000/svg" xmlns:xlink="http://www.w3.org/1999/xlink" width="128" height="128" enable-background="new 0 0 128 128" viewBox="0 0 128 128"><defs><circle id="a" cx="64" cy="64" r="36"/></defs><clipPath id="b"><use overflow="visible" xlink:href="#a"/></clipPath><g clip-path="url(#b)"><rect width="31.291" height="75" x="17.906" y="26.5" fill="#2b9e5c"/><rect width="30.632" height="75" x="49.197" y="26.5" fill="#fff"/><rect width="31.769" height="75" x="78.325" y="26.5" fill="#ff8f33"/></g><g><path fill="#efa139" d="M64 18.734c10.871 0 20.844 3.834 28.65 10.217l7.83-7.831C90.625 12.8 77.953 7.68 64 7.68c-13.951 0-26.623 5.12-36.48 13.44l7.83 7.831C43.156 22.568 53.129 18.734 64 18.734zM28.924 92.689c-6.387-7.809-10.221-17.783-10.221-28.656 0-10.889 3.844-20.877 10.246-28.689l-.002.002-7.826-7.826C12.8 37.377 7.68 50.049 7.68 64c0 13.953 5.12 26.625 13.441 36.48l7.797-7.797C28.92 92.686 28.922 92.688 28.924 92.689zM106.881 27.52l-7.826 7.826c-.002 0-.002-.002-.002-.002 6.4 7.813 10.244 17.801 10.244 28.689 0 10.873-3.834 20.848-10.219 28.656.002-.002.002-.004.004-.006l7.799 7.797c8.32-9.855 13.439-22.527 13.439-36.48C120.32 50.049 115.201 37.377 106.881 27.52zM92.689 99.084C84.879 105.486 74.889 109.33 64 109.33s-20.877-3.844-28.689-10.246c.002 0 .002.002.004.002l-7.795 7.795c9.857 8.32 22.529 13.439 36.48 13.439 13.953 0 26.625-5.119 36.48-13.439l-7.793-7.795L92.689 99.084z"/></g></svg>