<svg xmlns="http://www.w3.org/2000/svg" xmlns:xlink="http://www.w3.org/1999/xlink" width="128" height="128" enable-background="new 0 0 128 128" viewBox="0 0 128 128"><defs><circle id="a" cx="64" cy="64" r="36"/></defs><clipPath id="b"><use overflow="visible" xlink:href="#a"/></clipPath><g clip-path="url(#b)"><rect width="79.695" height="75" x="24.152" y="26.5" fill="#de2910"/><polygon fill="#ffde00" points="49.32 48.556 47.061 41.676 44.799 48.556 37.479 48.556 43.402 52.809 41.141 59.688 47.062 55.436 52.982 59.688 50.721 52.809 56.642 48.556"/><polygon fill="#ffde00" points="63.349 42.844 64.604 44.91 64.816 42.509 67.196 41.969 64.948 41.023 65.162 38.621 63.562 40.44 61.316 39.498 62.571 41.565 60.971 43.385"/><polygon fill="#ffde00" points="69.642 49.196 69.989 51.585 71.13 49.451 73.533 49.865 71.834 48.136 72.975 46.003 70.782 47.065 69.084 45.336 69.43 47.722 67.239 48.783"/><polygon fill="#ffde00" points="71.797 58.619 73.719 57.133 71.279 57.22 70.442 54.953 69.774 57.271 67.335 57.358 69.359 58.705 68.688 61.024 70.61 59.538 72.634 60.885"/><polygon fill="#ffde00" points="64.921 64.21 65.032 61.802 63.51 63.686 61.228 62.834 62.568 64.849 61.046 66.732 63.396 66.095 64.736 68.107 64.849 65.701 67.203 65.062"/></g><g><path fill="#94a4a5" d="M64 18.734c10.871 0 20.844 3.833 28.65 10.216l7.83-7.83C90.625 12.8 77.953 7.68 64 7.68c-13.951 0-26.623 5.12-36.48 13.44l7.83 7.83C43.156 22.567 53.129 18.734 64 18.734zM28.924 92.688c-6.387-7.808-10.221-17.783-10.221-28.656 0-10.889 3.844-20.877 10.246-28.689 0 .001-.002.002-.002.003l-7.826-7.826C12.8 37.376 7.68 50.048 7.68 64s5.12 26.624 13.441 36.48l7.797-7.798C28.92 92.685 28.922 92.687 28.924 92.688zM106.881 27.52l-7.826 7.826c-.002-.001-.002-.002-.002-.003 6.4 7.813 10.244 17.801 10.244 28.689 0 10.873-3.834 20.849-10.219 28.656.002-.002.002-.004.004-.006l7.799 7.798c8.32-9.856 13.439-22.528 13.439-36.48S115.201 37.376 106.881 27.52zM92.689 99.083C84.879 105.485 74.889 109.33 64 109.33s-20.877-3.845-28.689-10.247c.002.001.002.002.004.003l-7.795 7.794c9.857 8.32 22.529 13.44 36.48 13.44 13.953 0 26.625-5.12 36.48-13.44l-7.793-7.794C92.688 99.085 92.689 99.084 92.689 99.083z"/></g></svg>