<svg xmlns="http://www.w3.org/2000/svg" xmlns:xlink="http://www.w3.org/1999/xlink" width="128" height="128" enable-background="new 0 0 128 128" viewBox="0 0 128 128"><defs><circle id="a" cx="64" cy="64" r="36"/></defs><clipPath id="b"><use overflow="visible" xlink:href="#a"/></clipPath><g clip-path="url(#b)"><rect width="163.287" height="84.991" x="-1.247" y="16.79" fill="#fff"/><rect width="163.287" height="6.538" x="-1.247" y="16.79" fill="#af3549"/><rect width="163.287" height="6.538" x="-1.247" y="29.866" fill="#af3549"/><rect width="163.287" height="6.857" x="-1.247" y="41.934" fill="#af3549"/><rect width="163.287" height="6.857" x="-1.247" y="55.934" fill="#af3549"/><rect width="163.287" height="6.857" x="-1.247" y="69.076" fill="#af3549"/><rect width="163.287" height="6.857" x="-1.247" y="83.076" fill="#af3549"/><rect width="163.287" height="6.537" x="-1.247" y="95.244" fill="#af3549"/><rect width="65.209" height="46.715" x="-1.209" y="16.219" fill="#41416d"/><polygon fill="#fff" points="5.035 21.813 2.785 23.43 3.643 20.813"/><polygon fill="#fff" points="4.074 22.124 1.821 20.5 4.604 20.5"/><polygon fill="#fff" points="3.48 21.312 4.342 18.695 5.199 21.312"/><polygon fill="#fff" points="4.074 20.5 6.856 20.5 4.604 22.124"/><polygon fill="#fff" points="5.035 20.813 5.897 23.43 3.643 21.813"/><polygon fill="#fff" points="15.866 21.813 13.612 23.43 14.475 20.813"/><polygon fill="#fff" points="14.901 22.124 12.652 20.5 15.436 20.5"/><polygon fill="#fff" points="14.312 21.312 15.168 18.695 16.03 21.312"/><polygon fill="#fff" points="14.901 20.5 17.684 20.5 15.436 22.124"/><polygon fill="#fff" points="15.866 20.813 16.724 23.43 14.475 21.813"/><polygon fill="#fff" points="26.692 21.813 24.44 23.43 25.301 20.813"/><polygon fill="#fff" points="25.732 22.124 23.479 20.5 26.263 20.5"/><polygon fill="#fff" points="25.138 21.312 25.999 18.695 26.856 21.312"/><polygon fill="#fff" points="25.732 20.5 28.517 20.5 26.263 22.124"/><polygon fill="#fff" points="26.692 20.813 27.556 23.43 25.301 21.813"/><polygon fill="#fff" points="37.52 21.813 35.269 23.43 36.128 20.813"/><polygon fill="#fff" points="36.559 22.124 34.311 20.5 37.093 20.5"/><polygon fill="#fff" points="35.964 21.312 36.826 18.695 37.688 21.312"/><polygon fill="#fff" points="36.559 20.5 39.343 20.5 37.093 22.124"/><polygon fill="#fff" points="37.52 20.813 38.381 23.43 36.128 21.813"/><polygon fill="#fff" points="48.351 21.813 46.098 23.43 46.959 20.813"/><polygon fill="#fff" points="47.391 22.124 45.138 20.5 47.92 20.5"/><polygon fill="#fff" points="46.794 21.312 47.652 18.695 48.515 21.312"/><polygon fill="#fff" points="47.391 20.5 50.172 20.5 47.92 22.124"/><polygon fill="#fff" points="48.351 20.813 49.209 23.43 46.959 21.813"/><polygon fill="#fff" points="59.177 21.813 56.927 23.43 57.786 20.813"/><polygon fill="#fff" points="58.216 22.124 55.964 20.5 58.745 20.5"/><polygon fill="#fff" points="57.62 21.312 58.482 18.695 59.341 21.312"/><polygon fill="#fff" points="58.216 20.5 61 20.5 58.745 22.124"/><polygon fill="#fff" points="59.177 20.813 60.039 23.43 57.786 21.813"/><polygon fill="#fff" points="10.451 26.403 8.198 28.022 9.06 25.401"/><polygon fill="#fff" points="9.489 26.709 7.236 25.093 10.02 25.093"/><polygon fill="#fff" points="8.895 25.903 9.752 23.287 10.614 25.903"/><polygon fill="#fff" points="9.489 25.093 12.274 25.093 10.02 26.709"/><polygon fill="#fff" points="10.451 25.401 11.313 28.022 9.06 26.403"/><polygon fill="#fff" points="21.277 26.403 19.027 28.022 19.886 25.401"/><polygon fill="#fff" points="20.316 26.709 18.063 25.093 20.852 25.093"/><polygon fill="#fff" points="19.723 25.903 20.584 23.287 21.441 25.903"/><polygon fill="#fff" points="20.316 25.093 23.101 25.093 20.852 26.709"/><polygon fill="#fff" points="21.277 25.401 22.14 28.022 19.886 26.403"/><polygon fill="#fff" points="32.108 26.403 29.855 28.022 30.718 25.401"/><polygon fill="#fff" points="31.144 26.709 28.895 25.093 31.679 25.093"/><polygon fill="#fff" points="30.555 25.903 31.411 23.287 32.272 25.903"/><polygon fill="#fff" points="31.144 25.093 33.932 25.093 31.679 26.709"/><polygon fill="#fff" points="32.108 25.401 32.966 28.022 30.718 26.403"/><polygon fill="#fff" points="42.936 26.403 40.687 28.022 41.544 25.401"/><polygon fill="#fff" points="41.976 26.709 39.72 25.093 42.505 25.093"/><polygon fill="#fff" points="41.38 25.903 42.242 23.287 43.1 25.903"/><polygon fill="#fff" points="41.976 25.093 44.759 25.093 42.505 26.709"/><polygon fill="#fff" points="42.936 25.401 43.796 28.022 41.544 26.403"/><polygon fill="#fff" points="53.767 26.403 51.514 28.022 52.373 25.401"/><polygon fill="#fff" points="52.801 26.709 50.553 25.093 53.334 25.093"/><polygon fill="#fff" points="52.205 25.903 53.067 23.287 53.931 25.903"/><polygon fill="#fff" points="52.801 25.093 55.582 25.093 53.334 26.709"/><polygon fill="#fff" points="53.767 25.401 54.624 28.022 52.373 26.403"/><polygon fill="#fff" points="5.035 30.993 2.785 32.609 3.643 29.991"/><polygon fill="#fff" points="4.074 31.301 1.821 29.686 4.604 29.686"/><polygon fill="#fff" points="3.48 30.491 4.342 27.873 5.199 30.491"/><polygon fill="#fff" points="4.074 29.686 6.856 29.686 4.604 31.301"/><polygon fill="#fff" points="5.035 29.991 5.897 32.609 3.643 30.993"/><polygon fill="#fff" points="15.866 30.993 13.612 32.609 14.475 29.991"/><polygon fill="#fff" points="14.901 31.301 12.652 29.686 15.436 29.686"/><polygon fill="#fff" points="14.312 30.491 15.168 27.873 16.03 30.491"/><polygon fill="#fff" points="14.901 29.686 17.684 29.686 15.436 31.301"/><polygon fill="#fff" points="15.866 29.991 16.724 32.609 14.475 30.993"/><polygon fill="#fff" points="26.692 30.993 24.44 32.609 25.301 29.991"/><polygon fill="#fff" points="25.732 31.301 23.479 29.686 26.263 29.686"/><polygon fill="#fff" points="25.138 30.491 25.999 27.873 26.856 30.491"/><polygon fill="#fff" points="25.732 29.686 28.517 29.686 26.263 31.301"/><polygon fill="#fff" points="26.692 29.991 27.556 32.609 25.301 30.993"/><polygon fill="#fff" points="37.52 30.993 35.269 32.609 36.128 29.991"/><polygon fill="#fff" points="36.559 31.301 34.311 29.686 37.093 29.686"/><polygon fill="#fff" points="35.964 30.491 36.826 27.873 37.688 30.491"/><polygon fill="#fff" points="36.559 29.686 39.343 29.686 37.093 31.301"/><polygon fill="#fff" points="37.52 29.991 38.381 32.609 36.128 30.993"/><polygon fill="#fff" points="48.351 30.993 46.098 32.609 46.959 29.991"/><polygon fill="#fff" points="47.391 31.301 45.138 29.686 47.92 29.686"/><polygon fill="#fff" points="46.794 30.491 47.652 27.873 48.515 30.491"/><polygon fill="#fff" points="47.391 29.686 50.172 29.686 47.92 31.301"/><polygon fill="#fff" points="48.351 29.991 49.209 32.609 46.959 30.993"/><polygon fill="#fff" points="59.177 30.993 56.927 32.609 57.786 29.991"/><polygon fill="#fff" points="58.216 31.301 55.964 29.686 58.745 29.686"/><polygon fill="#fff" points="57.62 30.491 58.482 27.873 59.341 30.491"/><polygon fill="#fff" points="58.216 29.686 61 29.686 58.745 31.301"/><polygon fill="#fff" points="59.177 29.991 60.039 32.609 57.786 30.993"/><polygon fill="#fff" points="10.451 35.582 8.198 37.201 9.06 34.582"/><polygon fill="#fff" points="9.489 35.889 7.236 34.272 10.02 34.272"/><polygon fill="#fff" points="8.895 35.08 9.752 32.465 10.614 35.08"/><polygon fill="#fff" points="9.489 34.272 12.274 34.272 10.02 35.889"/><polygon fill="#fff" points="10.451 34.582 11.313 37.201 9.06 35.582"/><polygon fill="#fff" points="21.277 35.582 19.027 37.201 19.886 34.582"/><polygon fill="#fff" points="20.316 35.889 18.063 34.272 20.852 34.272"/><polygon fill="#fff" points="19.723 35.08 20.584 32.465 21.441 35.08"/><polygon fill="#fff" points="20.316 34.272 23.101 34.272 20.852 35.889"/><polygon fill="#fff" points="21.277 34.582 22.14 37.201 19.886 35.582"/><polygon fill="#fff" points="32.108 35.582 29.855 37.201 30.718 34.582"/><polygon fill="#fff" points="31.144 35.889 28.895 34.272 31.679 34.272"/><polygon fill="#fff" points="30.555 35.08 31.411 32.465 32.272 35.08"/><polygon fill="#fff" points="31.144 34.272 33.932 34.272 31.679 35.889"/><polygon fill="#fff" points="32.108 34.582 32.966 37.201 30.718 35.582"/><polygon fill="#fff" points="42.936 35.582 40.687 37.201 41.544 34.582"/><polygon fill="#fff" points="41.976 35.889 39.72 34.272 42.505 34.272"/><polygon fill="#fff" points="41.38 35.08 42.242 32.465 43.1 35.08"/><polygon fill="#fff" points="41.976 34.272 44.759 34.272 42.505 35.889"/><polygon fill="#fff" points="42.936 34.582 43.796 37.201 41.544 35.582"/><polygon fill="#fff" points="53.767 35.582 51.514 37.201 52.373 34.582"/><polygon fill="#fff" points="52.801 35.889 50.553 34.272 53.334 34.272"/><polygon fill="#fff" points="52.205 35.08 53.067 32.465 53.931 35.08"/><polygon fill="#fff" points="52.801 34.272 55.582 34.272 53.334 35.889"/><polygon fill="#fff" points="53.767 34.582 54.624 37.201 52.373 35.582"/><polygon fill="#fff" points="5.035 40.17 2.785 41.793 3.643 39.174"/><polygon fill="#fff" points="4.074 40.48 1.821 38.863 4.604 38.863"/><polygon fill="#fff" points="3.48 39.67 4.342 37.051 5.199 39.67"/><polygon fill="#fff" points="4.074 38.863 6.856 38.863 4.604 40.48"/><polygon fill="#fff" points="5.035 39.174 5.897 41.793 3.643 40.17"/><polygon fill="#fff" points="15.866 40.17 13.612 41.793 14.475 39.174"/><polygon fill="#fff" points="14.901 40.48 12.652 38.863 15.436 38.863"/><polygon fill="#fff" points="14.312 39.67 15.168 37.051 16.03 39.67"/><polygon fill="#fff" points="14.901 38.863 17.684 38.863 15.436 40.48"/><polygon fill="#fff" points="15.866 39.174 16.724 41.793 14.475 40.17"/><polygon fill="#fff" points="26.692 40.17 24.44 41.793 25.301 39.174"/><polygon fill="#fff" points="25.732 40.48 23.479 38.863 26.263 38.863"/><polygon fill="#fff" points="25.138 39.67 25.999 37.051 26.856 39.67"/><polygon fill="#fff" points="25.732 38.863 28.517 38.863 26.263 40.48"/><polygon fill="#fff" points="26.692 39.174 27.556 41.793 25.301 40.17"/><polygon fill="#fff" points="37.52 40.17 35.269 41.793 36.128 39.174"/><polygon fill="#fff" points="36.559 40.48 34.311 38.863 37.093 38.863"/><polygon fill="#fff" points="35.964 39.67 36.826 37.051 37.688 39.67"/><polygon fill="#fff" points="36.559 38.863 39.343 38.863 37.093 40.48"/><polygon fill="#fff" points="37.52 39.174 38.381 41.793 36.128 40.17"/><polygon fill="#fff" points="48.351 40.17 46.098 41.793 46.959 39.174"/><polygon fill="#fff" points="47.391 40.48 45.138 38.863 47.92 38.863"/><polygon fill="#fff" points="46.794 39.67 47.652 37.051 48.515 39.67"/><polygon fill="#fff" points="47.391 38.863 50.172 38.863 47.92 40.48"/><polygon fill="#fff" points="48.351 39.174 49.209 41.793 46.959 40.17"/><polygon fill="#fff" points="59.177 40.17 56.927 41.793 57.786 39.174"/><polygon fill="#fff" points="58.216 40.48 55.964 38.863 58.745 38.863"/><polygon fill="#fff" points="57.62 39.67 58.482 37.051 59.341 39.67"/><polygon fill="#fff" points="58.216 38.863 61 38.863 58.745 40.48"/><polygon fill="#fff" points="59.177 39.174 60.039 41.793 57.786 40.17"/><polygon fill="#fff" points="10.451 44.762 8.198 46.379 9.06 43.762"/><polygon fill="#fff" points="9.489 45.072 7.236 43.451 10.02 43.451"/><polygon fill="#fff" points="8.895 44.262 9.752 41.643 10.614 44.262"/><polygon fill="#fff" points="9.489 43.451 12.274 43.451 10.02 45.072"/><polygon fill="#fff" points="10.451 43.762 11.313 46.379 9.06 44.762"/><polygon fill="#fff" points="21.277 44.762 19.027 46.379 19.886 43.762"/><polygon fill="#fff" points="20.316 45.072 18.063 43.451 20.852 43.451"/><polygon fill="#fff" points="19.723 44.262 20.584 41.643 21.441 44.262"/><polygon fill="#fff" points="20.316 43.451 23.101 43.451 20.852 45.072"/><polygon fill="#fff" points="21.277 43.762 22.14 46.379 19.886 44.762"/><polygon fill="#fff" points="32.108 44.762 29.855 46.379 30.718 43.762"/><polygon fill="#fff" points="31.144 45.072 28.895 43.451 31.679 43.451"/><polygon fill="#fff" points="30.555 44.262 31.411 41.643 32.272 44.262"/><polygon fill="#fff" points="31.144 43.451 33.932 43.451 31.679 45.072"/><polygon fill="#fff" points="32.108 43.762 32.966 46.379 30.718 44.762"/><polygon fill="#fff" points="42.936 44.762 40.687 46.379 41.544 43.762"/><polygon fill="#fff" points="41.976 45.072 39.72 43.451 42.505 43.451"/><polygon fill="#fff" points="41.38 44.262 42.242 41.643 43.1 44.262"/><polygon fill="#fff" points="41.976 43.451 44.759 43.451 42.505 45.072"/><polygon fill="#fff" points="42.936 43.762 43.796 46.379 41.544 44.762"/><polygon fill="#fff" points="53.767 44.762 51.514 46.379 52.373 43.762"/><polygon fill="#fff" points="52.801 45.072 50.553 43.451 53.334 43.451"/><polygon fill="#fff" points="52.205 44.262 53.067 41.643 53.931 44.262"/><polygon fill="#fff" points="52.801 43.451 55.582 43.451 53.334 45.072"/><polygon fill="#fff" points="53.767 43.762 54.624 46.379 52.373 44.762"/><polygon fill="#fff" points="5.035 49.354 2.785 50.969 3.643 48.354"/><polygon fill="#fff" points="4.074 49.658 1.821 48.041 4.604 48.041"/><polygon fill="#fff" points="3.48 48.854 4.342 46.234 5.199 48.854"/><polygon fill="#fff" points="4.074 48.041 6.856 48.041 4.604 49.658"/><polygon fill="#fff" points="5.035 48.354 5.897 50.969 3.643 49.354"/><polygon fill="#fff" points="15.866 49.354 13.612 50.969 14.475 48.354"/><polygon fill="#fff" points="14.901 49.658 12.652 48.041 15.436 48.041"/><polygon fill="#fff" points="14.312 48.854 15.168 46.234 16.03 48.854"/><polygon fill="#fff" points="14.901 48.041 17.684 48.041 15.436 49.658"/><polygon fill="#fff" points="15.866 48.354 16.724 50.969 14.475 49.354"/><polygon fill="#fff" points="26.692 49.354 24.44 50.969 25.301 48.354"/><polygon fill="#fff" points="25.732 49.658 23.479 48.041 26.263 48.041"/><polygon fill="#fff" points="25.138 48.854 25.999 46.234 26.856 48.854"/><polygon fill="#fff" points="25.732 48.041 28.517 48.041 26.263 49.658"/><polygon fill="#fff" points="26.692 48.354 27.556 50.969 25.301 49.354"/><polygon fill="#fff" points="37.52 49.354 35.269 50.969 36.128 48.354"/><polygon fill="#fff" points="36.559 49.658 34.311 48.041 37.093 48.041"/><polygon fill="#fff" points="35.964 48.854 36.826 46.234 37.688 48.854"/><polygon fill="#fff" points="36.559 48.041 39.343 48.041 37.093 49.658"/><polygon fill="#fff" points="37.52 48.354 38.381 50.969 36.128 49.354"/><polygon fill="#fff" points="48.351 49.354 46.098 50.969 46.959 48.354"/><polygon fill="#fff" points="47.391 49.658 45.138 48.041 47.92 48.041"/><polygon fill="#fff" points="46.794 48.854 47.652 46.234 48.515 48.854"/><polygon fill="#fff" points="47.391 48.041 50.172 48.041 47.92 49.658"/><polygon fill="#fff" points="48.351 48.354 49.209 50.969 46.959 49.354"/><polygon fill="#fff" points="59.177 49.354 56.927 50.969 57.786 48.354"/><polygon fill="#fff" points="58.216 49.658 55.964 48.041 58.745 48.041"/><polygon fill="#fff" points="57.62 48.854 58.482 46.234 59.341 48.854"/><polygon fill="#fff" points="58.216 48.041 61 48.041 58.745 49.658"/><polygon fill="#fff" points="59.177 48.354 60.039 50.969 57.786 49.354"/><polygon fill="#fff" points="10.451 53.939 8.198 55.557 9.06 52.939"/><polygon fill="#fff" points="9.489 54.25 7.236 52.635 10.02 52.635"/><polygon fill="#fff" points="8.895 53.439 9.752 50.822 10.614 53.439"/><polygon fill="#fff" points="9.489 52.635 12.274 52.635 10.02 54.25"/><polygon fill="#fff" points="10.451 52.939 11.313 55.557 9.06 53.939"/><polygon fill="#fff" points="21.277 53.939 19.027 55.557 19.886 52.939"/><polygon fill="#fff" points="20.316 54.25 18.063 52.635 20.852 52.635"/><polygon fill="#fff" points="19.723 53.439 20.584 50.822 21.441 53.439"/><polygon fill="#fff" points="20.316 52.635 23.101 52.635 20.852 54.25"/><polygon fill="#fff" points="21.277 52.939 22.14 55.557 19.886 53.939"/><polygon fill="#fff" points="32.108 53.939 29.855 55.557 30.718 52.939"/><polygon fill="#fff" points="31.144 54.25 28.895 52.635 31.679 52.635"/><polygon fill="#fff" points="30.555 53.439 31.411 50.822 32.272 53.439"/><polygon fill="#fff" points="31.144 52.635 33.932 52.635 31.679 54.25"/><polygon fill="#fff" points="32.108 52.939 32.966 55.557 30.718 53.939"/><polygon fill="#fff" points="42.936 53.939 40.687 55.557 41.544 52.939"/><polygon fill="#fff" points="41.976 54.25 39.72 52.635 42.505 52.635"/><polygon fill="#fff" points="41.38 53.439 42.242 50.822 43.1 53.439"/><polygon fill="#fff" points="41.976 52.635 44.759 52.635 42.505 54.25"/><polygon fill="#fff" points="42.936 52.939 43.796 55.557 41.544 53.939"/><polygon fill="#fff" points="53.767 53.939 51.514 55.557 52.373 52.939"/><polygon fill="#fff" points="52.801 54.25 50.553 52.635 53.334 52.635"/><polygon fill="#fff" points="52.205 53.439 53.067 50.822 53.931 53.439"/><polygon fill="#fff" points="52.801 52.635 55.582 52.635 53.334 54.25"/><polygon fill="#fff" points="53.767 52.939 54.624 55.557 52.373 53.939"/><polygon fill="#fff" points="5.035 58.533 2.785 60.146 3.643 57.531"/><polygon fill="#fff" points="4.074 58.838 1.821 57.219 4.604 57.219"/><polygon fill="#fff" points="3.48 58.031 4.342 55.412 5.199 58.031"/><polygon fill="#fff" points="4.074 57.219 6.856 57.219 4.604 58.838"/><polygon fill="#fff" points="5.035 57.531 5.897 60.146 3.643 58.533"/><polygon fill="#fff" points="15.866 58.533 13.612 60.146 14.475 57.531"/><polygon fill="#fff" points="14.901 58.838 12.652 57.219 15.436 57.219"/><polygon fill="#fff" points="14.312 58.031 15.168 55.412 16.03 58.031"/><polygon fill="#fff" points="14.901 57.219 17.684 57.219 15.436 58.838"/><polygon fill="#fff" points="15.866 57.531 16.724 60.146 14.475 58.533"/><polygon fill="#fff" points="26.692 58.533 24.44 60.146 25.301 57.531"/><polygon fill="#fff" points="25.732 58.838 23.479 57.219 26.263 57.219"/><polygon fill="#fff" points="25.138 58.031 25.999 55.412 26.856 58.031"/><polygon fill="#fff" points="25.732 57.219 28.517 57.219 26.263 58.838"/><polygon fill="#fff" points="26.692 57.531 27.556 60.146 25.301 58.533"/><polygon fill="#fff" points="37.52 58.533 35.269 60.146 36.128 57.531"/><polygon fill="#fff" points="36.559 58.838 34.311 57.219 37.093 57.219"/><polygon fill="#fff" points="35.964 58.031 36.826 55.412 37.688 58.031"/><polygon fill="#fff" points="36.559 57.219 39.343 57.219 37.093 58.838"/><polygon fill="#fff" points="37.52 57.531 38.381 60.146 36.128 58.533"/><polygon fill="#fff" points="48.351 58.533 46.098 60.146 46.959 57.531"/><polygon fill="#fff" points="47.391 58.838 45.138 57.219 47.92 57.219"/><polygon fill="#fff" points="46.794 58.031 47.652 55.412 48.515 58.031"/><polygon fill="#fff" points="47.391 57.219 50.172 57.219 47.92 58.838"/><polygon fill="#fff" points="48.351 57.531 49.209 60.146 46.959 58.533"/><polygon fill="#fff" points="59.177 58.533 56.927 60.146 57.786 57.531"/><polygon fill="#fff" points="58.216 58.838 55.964 57.219 58.745 57.219"/><polygon fill="#fff" points="57.62 58.031 58.482 55.412 59.341 58.031"/><polygon fill="#fff" points="58.216 57.219 61 57.219 58.745 58.838"/><polygon fill="#fff" points="59.177 57.531 60.039 60.146 57.786 58.533"/></g><g><path fill="#3e5072" d="M64 18.734c10.871 0 20.844 3.833 28.65 10.216l7.83-7.83C90.625 12.8 77.953 7.68 64 7.68c-13.951 0-26.623 5.12-36.48 13.44l7.83 7.83C43.156 22.567 53.129 18.734 64 18.734zM28.924 92.688c-6.387-7.808-10.221-17.783-10.221-28.656 0-10.889 3.844-20.877 10.246-28.689 0 .001-.002.002-.002.003l-7.826-7.826C12.8 37.376 7.68 50.048 7.68 64s5.12 26.624 13.441 36.48l7.797-7.798C28.92 92.685 28.922 92.687 28.924 92.688zM106.881 27.52l-7.826 7.826c-.002-.001-.002-.002-.002-.003 6.4 7.813 10.244 17.801 10.244 28.689 0 10.873-3.834 20.849-10.219 28.656.002-.002.002-.004.004-.006l7.799 7.798c8.32-9.856 13.439-22.528 13.439-36.48S115.201 37.376 106.881 27.52zM92.689 99.083C84.879 105.485 74.889 109.33 64 109.33s-20.877-3.845-28.689-10.247c.002.001.002.002.004.003l-7.795 7.794c9.857 8.32 22.529 13.44 36.48 13.44 13.953 0 26.625-5.12 36.48-13.44l-7.793-7.794C92.688 99.085 92.689 99.084 92.689 99.083z"/></g></svg>