<svg xmlns="http://www.w3.org/2000/svg" enable-background="new 0 0 135 135" viewBox="0 0 135 135"><polygon fill="#549d4a" points="117.758 88.177 117.749 91.603 62.201 123.884 62.21 120.458"/><polygon fill="#cccece" points="117.758 88.177 62.21 120.458 62.2 125.814 7.392 94.17 7.402 88.815 62.95 56.534"/><polygon fill="#cccece" points="62.21 120.458 62.201 125.814 7.393 94.17 7.402 88.815"/><polygon fill="#efefef" points="117.758 88.177 62.21 120.458 7.402 88.815 62.95 56.534"/><polygon fill="#efefef" points="111.994 91.52 67.973 117.111 13.16 85.47 57.192 59.879"/><polygon fill="#878684" points="127.608 93.864 127.598 99.219 72.05 131.5 62.2 125.814 62.21 120.458 117.758 88.177"/><polygon fill="#7c7979" points="127.608 93.864 127.598 99.219 72.05 131.5 72.06 126.145"/><polygon fill="#878684" points="72.06 126.145 72.05 131.5 62.201 125.814 62.21 120.458"/><polygon fill="#949293" points="127.608 93.864 72.06 126.145 62.21 120.458 117.758 88.177"/><polygon fill="#204d70" points="100.642 62.292 57.508 37.226 55.732 35.39 98.865 60.457"/><polygon fill="#efefef" points="68.736 108.828 25.602 83.761 25.528 52.829 68.662 77.895"/><polygon fill="#204d70" points="98.865 60.457 55.732 35.39 40.562 19.718 83.696 44.784"/><polygon fill="#a3a2a0" points="68.662 77.895 25.528 52.829 40.562 19.718 83.696 44.784"/><polygon fill="#f9f7f8" points="83.696 44.784 98.865 60.457 98.939 91.39 68.736 108.828 68.662 77.895"/><polygon fill="#8f7171" points="83.684 40.358 40.551 15.291 21.944 56.269 65.078 81.336 66.901 81.773 83.696 44.784 98.865 60.457 100.642 62.292 102.457 59.755"/><polygon fill="#a19096" points="65.078 81.336 21.944 56.269 40.551 15.291 83.684 40.358"/><polygon fill="#8f7171" points="83.684 40.358 102.457 59.755 100.642 62.292 98.865 60.457 83.696 44.784 66.901 81.773 65.078 81.336"/><path fill="#7c7979" d="M88.4836731,60.5319748c0.0071411,2.7654991-1.9442825,6.1447525-4.3506927,7.5339355c-1.2103424,0.6981735-2.307663,0.7625504-3.1016922,0.3004456c-0.0186005-0.0114441-0.0386353-0.0228958-0.0572357-0.0329056l-0.5822754-0.3390732c-0.7840042-0.4549561-1.270462-1.4220886-1.2747345-2.7955399c-0.007164-2.7654991,1.9428482-6.143322,4.3478241-7.5325127c1.21035-0.6981697,2.3105316-0.7625427,3.1045609-0.3018684l0.6409378,0.3719788c-0.0200119-0.0114479-0.040062-0.0228958-0.0615082-0.0329094C87.9672012,58.1441765,88.4793777,59.1241837,88.4836731,60.5319748z" enable-background="new"/><path fill="#c4c2c0" d="M87.9574509,56.5922508c0.0032043,0.0018463,0.0066833,0.0033417,0.0098877,0.0052147l-0.7827606-0.454895c-0.9706268-0.5640564-2.3141861-0.4857368-3.794548,0.3689575c-2.9391403,1.696907-5.3227692,5.8254776-5.3131485,9.2048264c0.0047607,1.6790543,0.5993958,2.8613815,1.5571365,3.4179535l0.7827148,0.4548645c-0.0279617-0.0162506-0.0545349-0.0348587-0.0819016-0.0521774c0.9755402,0.6178436,2.3512344,0.5623245,3.8727112-0.3161087c2.9409485-1.6979523,5.3262863-5.8275108,5.3167191-9.2068863C89.5195007,58.3300819,88.9207001,57.1463928,87.9574509,56.5922508z M82.9054108,59.0528374l0.0093536,3.3031464l-2.8809128,1.6633034C80.4537277,62.1993446,81.534317,60.3289871,82.9054108,59.0528374z M80.7478638,68.1172028c-0.4687958-0.4303818-0.781105-1.0963135-0.8743973-1.9641037l3.0470734-1.7592163l0.0098877,3.4904709C82.1141434,68.2493515,81.3651123,68.3143845,80.7478638,68.1172028z M84.6939774,66.6785583l-0.0094147-3.3031425l2.8814545-1.6636276C87.1468353,63.5313835,86.0653381,65.4022751,84.6939774,66.6785583z M84.6787949,61.337513l-0.0098953-3.4904709c0.8164444-0.3650513,1.5656891-0.430275,2.182991-0.2329788c0.468689,0.4303818,0.7806854,1.09655,0.8740234,1.9642067L84.6787949,61.337513z"/><path fill="#fff" d="M84.6970444,67.7712021l-0.782753-0.4548798c2.0042038-1.4182816,3.5944366-4.1726952,3.8148193-6.605484l0.7827454,0.4548874C88.291481,63.5985107,86.7012405,66.3529282,84.6970444,67.7712021z"/><polygon fill="#d6d4d2" points="83.713 68.339 82.93 67.884 82.918 63.489 83.701 63.943"/><path fill="#d6d4d2" d="M86.4863434,57.3439026l0.7827454,0.4548874c0.6713943,0.3901672,1.1237488,1.1573601,1.239563,2.2343712l-0.7827606-0.4548836C87.6100845,58.5012665,87.1577301,57.7340736,86.4863434,57.3439026z"/><path fill="#fff" d="M81.1130066,68.3874817l-0.782753-0.4548798c0.6818466,0.3962402,1.5895996,0.4036255,2.6001816-0.0482483l0.782753,0.4548874C82.7026062,68.7911148,81.7948456,68.7837219,81.1130066,68.3874817z"/><polygon fill="#fff" points="84.681 62.243 83.899 61.788 87.726 59.578 88.509 60.033"/><polygon fill="#fff" points="79.87 65.021 79.087 64.566 82.915 62.356 83.698 62.811"/><polygon fill="#d6d4d2" points="83.698 62.811 82.915 62.356 82.902 57.96 83.685 58.415"/><path fill="#d6d4d2" d="M87.1845703,56.1425743l0.7827454,0.4548912c-0.9705963-0.5640564-2.3141479-0.4857559-3.7945251,0.3689384l-0.782753-0.4548836C84.8704147,55.6568222,86.213974,55.5785255,87.1845703,56.1425743z"/><path fill="#d6d4d2" d="M80.4167557,69.58918l-0.782753-0.4548798c-0.9577103-0.5565643-1.5523758-1.7388916-1.5571365-3.4179459c-0.0095825-3.3793526,2.3740158-7.5079117,5.3131714-9.204834l0.782753,0.4548836c-2.9391556,1.6969261-5.3227539,5.8254814-5.313179,9.2048378C78.8643723,67.850296,79.4590454,69.0326157,80.4167557,69.58918z"/><path fill="#c4c2c0" d="M84.1727905,56.966404c2.9409332-1.6979485,5.3418808-0.331749,5.3514557,3.0476036c0.0095825,3.3793602-2.3757782,7.508934-5.3167114,9.2068863c-2.9391632,1.6969223-5.3383408,0.3297043-5.3479233-3.0496521C78.8500366,62.7918854,81.2336349,58.6633301,84.1727905,56.966404z M83.6975174,62.8108711l-0.0124664-4.3958054c-2.0041962,1.4182816-3.592659,4.1716652-3.8148117,6.6054802L83.6975174,62.8108711 M84.6689072,57.8470345l0.0124664,4.3958054l3.8272781-2.2096786C88.2752228,57.8623734,86.6745834,56.9502144,84.6689072,57.8470345 M84.6970444,67.7712021c2.0041962-1.4182739,3.5944366-4.1726913,3.8148117-6.6054802l-3.8272705,2.2096786L84.6970444,67.7712021 M83.7131882,68.3392334l-0.0124588-4.3958015l-3.8272781,2.2096825C80.1068802,68.3238907,81.7075119,69.2360611,83.7131882,68.3392334"/><polygon fill="#7e8a8c" points="67.834 104.697 68.736 104.173 68.729 108.824 67.826 109.348"/><polygon fill="#fff" points="24.689 79.787 25.592 79.263 68.736 104.173 67.834 104.697"/><polygon fill="#cecece" points="67.834 104.697 67.826 109.348 24.682 84.439 24.689 79.787"/><polygon fill="#8d9799" points="92.603 91.432 91.701 90.908 91.708 95.559 92.611 96.083"/><polygon fill="#fff" points="99.83 87.26 98.928 86.736 91.701 90.908 92.603 91.432"/><polygon fill="#efefef" points="92.603 91.432 92.611 96.083 99.837 91.911 99.83 87.26"/><polygon fill="#8d9799" points="68.721 105.22 67.819 104.696 67.827 109.347 68.729 109.872"/><polygon fill="#fff" points="80.504 98.418 79.602 97.893 67.819 104.696 68.721 105.22"/><polygon fill="#efefef" points="68.721 105.22 68.729 109.872 80.511 103.069 80.504 98.418"/><path fill="#deb2a7" d="M91.7594604,95.5355453l-0.0437851,0.025177l-11.231102,6.4837875l-0.0241089-8.625351c0.0459747-1.3204117,0.1949158-2.6955414,0.4357529-4.1046448c0.757637-4.4243393,2.4722137-9.2056351,5.1590118-13.8599014c3.5637665,2.0342636,5.4578857,6.2276001,5.6801453,11.4555817L91.7594604,95.5355453z"/><path fill="#deb2a7" d="M91.7592087,95.5352173l-0.0240707-8.6250381c-0.2218246-5.2276077-2.1162567-9.4210281-5.6801834-11.4558563c-2.6867828,4.6547852-4.4013138,9.4361801-5.158493,13.8598099l10.8190613,6.246376L91.7592087,95.5352173z"/><path fill="#f3d0bc" d="M80.8964615,89.3141327c-0.2413025,1.4096603-0.3898163,2.7847061-0.4358063,4.1054993l0.0240784,8.6249008l11.2307892-6.484024L80.8964615,89.3141327z"/><g><polygon fill="#fff" points="92.203 97.885 90.855 97.102 90.83 88.072 92.177 88.855"/><polygon fill="#fff" points="80.214 104.807 78.867 104.024 78.842 94.952 80.19 95.735"/><path fill="#fff" d="M92.1772995,88.8550339l-1.3476791-0.7831879c-0.2317734-5.4066467-2.1779251-9.5087509-5.4953613-11.6135254l1.3476715,0.7831802C89.9993668,79.3462753,91.9455261,83.4483795,92.1772995,88.8550339z"/><path fill="#fff" d="M80.1897125,95.735321l-1.3476715-0.7831879c0.2147675-6.1970062,2.3839111-13.1598511,6.1050949-19.6080017l1.3476791,0.7831802C82.5736313,82.5754623,80.40448,89.5383072,80.1897125,95.735321z"/><polygon fill="#e9e8e6" points="86.677 75.466 85.329 74.682 85.715 74.901 87.063 75.684"/><polygon fill="#fff" points="86.295 76.127 84.947 75.344 85.329 74.682 86.677 75.466"/><path fill="#cecece" d="M86.6769028,75.4655075l0.3858032,0.2184601c3.7467422,2.1379471,5.9482193,6.5788193,6.1998062,12.5037689l0.0257111,9.0707779l-1.0853271,0.6266174l-0.0255966-9.030098c-0.2317734-5.4066544-2.1779327-9.5087585-5.4953613-11.613533c-3.2934647,5.9187698-5.2088242,12.2503204-5.4080048,17.9085922l0.0255966,9.030098l-1.0853271,0.6266174l-0.0244904-9.0714874c0.2147675-6.1970139,2.3839188-13.1598587,6.1051025-19.6080093L86.6769028,75.4655075z"/></g><g><polygon fill="#e9e8e6" points="76.546 23.265 68.291 28.062 59.983 23.265 68.237 18.468"/></g><polygon fill="#e9e8e6" points="68.27 11.968 68.27 11.968 58.74 24.846 59.974 25.558 59.929 37.086 68.238 41.883 72.934 34.105 76.495 36.17 76.537 25.525 77.705 24.846"/><g><polygon fill="#d6d4d2" points="76.546 23.265 76.495 36.17 72.934 34.105 68.238 41.883 68.291 28.062"/></g><g><polygon fill="#e9e8e6" points="68.291 28.062 68.238 41.883 59.929 37.086 59.983 23.265"/></g><g><polygon fill="#efefef" points="68.27 11.968 77.706 24.846 68.254 30.339 68.27 13.614"/><polygon fill="#c5c5c5" points="68.27 13.614 68.254 30.339 58.74 24.846 68.27 11.968"/></g><g><polygon fill="#9b908a" points="70.858 7.032 70.854 5.469 70.043 4.998 69.335 5.407 69.331 3.972 68.519 3.5 67.157 4.287 67.164 6.66 65.649 7.534 65.654 9.097 66.465 9.569 67.171 9.161 67.187 14.82 67.998 15.291 69.36 14.505 69.342 7.908"/><polygon fill="#9b908a" points="67.998 15.291 67.187 14.82 67.168 8.223 67.979 8.694"/><polygon fill="#e3d7c9" points="69.337 6.345 68.526 5.874 70.043 4.998 70.854 5.469"/><polygon fill="#9b908a" points="66.465 9.569 65.654 9.097 65.649 7.534 66.461 8.006"/><polygon fill="#e3d7c9" points="66.461 8.006 65.649 7.534 67.164 6.66 67.975 7.132"/><polygon fill="#9b908a" points="67.975 7.132 67.164 6.66 67.157 4.287 67.968 4.758"/><polygon fill="#e3d7c9" points="67.968 4.758 67.157 4.287 68.519 3.5 69.331 3.972"/><polygon fill="#bfb4b2" points="69.331 3.972 69.337 6.345 70.854 5.469 70.859 7.032 69.342 7.908 69.36 14.505 67.998 15.291 67.979 8.694 66.465 9.569 66.461 8.006 67.975 7.132 67.968 4.758"/></g><g><polygon fill="#cecece" points="75.108 103.218 75.108 110.805 68.704 114.527 68.704 106.94"/><polygon fill="#c5c5c5" points="74.386 104.472 74.007 104.692 74.007 110.142 74.386 110.39"/><polygon fill="#c5c5c5" points="74.007 110.142 74.007 110.142 69.425 112.804 69.425 113.273 74.386 110.39 74.386 110.39"/><polygon fill="#a4a5a7" points="74.007 104.692 69.425 107.355 69.425 112.804 74.007 110.142"/><polygon fill="#c5c5c5" points="68.704 107.005 68.704 114.593 64.64 112.247 64.64 104.659"/><polygon fill="#cccece" points="75.108 103.283 68.704 107.005 64.64 104.659 71.045 100.937"/><polygon fill="#cecece" points="65.383 105.914 65.762 106.134 65.762 111.583 65.383 111.831"/><polygon fill="#cccece" points="65.762 111.583 65.762 111.583 67.96 112.87 67.96 113.338 65.383 111.831 65.383 111.831"/><polygon fill="#a4a5a7" points="65.762 106.134 67.96 107.421 67.96 112.87 65.762 111.584"/><polygon fill="#cccece" points="75.108 101.836 68.704 105.558 64.64 103.212 71.045 99.49"/><polygon fill="#c5c5c5" points="75.109 86.017 75.109 101.836 68.704 105.558 64.64 103.212 64.64 87.393 71.045 83.67"/><polygon fill="#cecece" points="75.108 86.017 75.108 101.836 68.704 105.558 68.704 89.739"/><polygon fill="#c5c5c5" points="68.704 89.739 68.704 105.558 64.64 103.212 64.64 87.393"/><polygon fill="#cccece" points="75.108 86.017 68.704 89.739 64.64 87.393 71.045 83.671"/><polygon fill="#eff8fd" points="75.109 84.57 75.109 86.017 68.704 89.739 64.64 87.393 64.64 85.946 68.704 88.292"/><polygon fill="#dae5ea" points="75.108 84.57 75.108 86.017 68.704 89.739 68.704 88.292"/><polygon fill="#eff8fd" points="68.704 88.292 68.704 89.739 64.64 87.393 64.64 85.946"/><polygon fill="#cccece" points="75.108 84.57 68.704 88.292 64.64 85.946 71.045 82.224"/><polygon fill="#a4a5a7" points="71.045 74.511 64.64 78.233 64.64 85.821 68.704 88.167 75.108 84.445 75.108 76.857"/><polygon fill="#cecece" points="75.108 76.857 75.108 84.445 68.704 88.167 68.704 80.579"/><polygon fill="#c5c5c5" points="74.386 78.112 74.007 78.332 74.007 83.781 74.386 84.029"/><polygon fill="#c5c5c5" points="74.007 83.781 74.007 83.781 69.426 86.444 69.426 86.912 74.386 84.029 74.386 84.029"/><polygon fill="#a4a5a7" points="74.007 78.332 69.426 80.995 69.426 86.444 74.007 83.782"/><polygon fill="#c5c5c5" points="68.704 80.579 68.704 88.167 64.64 85.821 64.64 78.233"/><polygon fill="#cccece" points="75.108 76.857 68.704 80.579 64.64 78.233 71.045 74.511"/><g><polygon fill="#cecece" points="65.383 79.488 65.762 79.708 65.762 85.158 65.383 85.406"/><polygon fill="#cccece" points="65.762 85.158 65.762 85.158 67.96 86.444 67.96 86.912 65.383 85.406 65.383 85.406"/><polygon fill="#a4a5a7" points="65.762 79.708 67.96 80.995 67.96 86.444 65.762 85.158"/></g><g><polygon fill="#efefef" points="75.109 76.857 68.704 80.58 64.64 78.233 69.288 58.442" enable-background="new"/></g><g><polygon fill="#efefef" points="69.289 58.442 75.108 76.857 68.704 80.579 69.289 62.164"/><polygon fill="#c5c5c5" points="69.289 62.164 68.704 80.579 64.64 78.233 69.289 58.442"/></g><g><polygon fill="#c5c5c5" points="74.386 87.843 74.007 88.063 74.007 100.959 74.386 101.207"/><polygon fill="#c5c5c5" points="74.007 100.959 74.007 100.959 69.426 103.621 69.426 104.09 74.386 101.207 74.386 101.207"/><polygon fill="#a4a5a7" points="74.007 88.063 69.426 90.726 69.426 103.622 74.007 100.959"/></g><g><polygon fill="#cecece" points="65.383 89.416 65.762 89.637 65.762 102.294 65.383 102.542"/><polygon fill="#cccece" points="65.762 102.294 65.762 102.294 67.96 103.58 67.96 104.049 65.383 102.542 65.383 102.542"/><polygon fill="#a4a5a7" points="65.762 89.637 67.96 90.923 67.96 103.58 65.762 102.294"/></g><g><polygon fill="#cecece" points="107.283 84.65 107.283 92.304 100.879 96.026 100.879 88.372"/><polygon fill="#c5c5c5" points="106.562 85.905 106.182 86.125 106.182 91.574 106.562 91.823"/><polygon fill="#c5c5c5" points="106.182 91.574 106.182 91.574 101.601 94.237 101.601 94.706 106.562 91.823 106.562 91.823"/><polygon fill="#a4a5a7" points="106.182 86.125 101.601 88.788 101.601 94.237 106.182 91.575"/><polygon fill="#c5c5c5" points="100.879 88.438 100.879 96.026 96.815 93.68 96.815 86.092"/><polygon fill="#cccece" points="107.283 84.716 100.879 88.438 96.815 86.092 103.22 82.37"/><polygon fill="#cecece" points="97.558 87.347 97.937 87.567 97.937 93.016 97.558 93.264"/><polygon fill="#cccece" points="97.937 93.016 97.937 93.016 100.135 94.303 100.135 94.771 97.558 93.264 97.558 93.264"/><polygon fill="#a4a5a7" points="97.937 87.567 100.135 88.853 100.135 94.303 97.937 93.016"/><polygon fill="#e9e8e6" points="107.283 83.269 107.283 84.716 100.879 88.438 100.879 86.991"/><polygon fill="#eff8fd" points="100.879 86.991 100.879 88.438 96.815 86.092 96.815 84.645"/><polygon fill="#cccece" points="107.283 83.269 100.879 86.991 96.815 84.645 103.22 80.923"/><polygon fill="#cecece" points="107.283 67.45 107.283 83.269 100.879 86.991 100.879 71.172"/><polygon fill="#c5c5c5" points="100.879 71.172 100.879 86.991 96.815 84.645 96.815 68.826"/><polygon fill="#cccece" points="107.283 67.45 100.879 71.172 96.815 68.826 103.22 65.104"/><g><polygon fill="#dae5ea" points="107.283 66.003 107.283 67.45 100.879 71.172 100.879 69.725"/><polygon fill="#eff8fd" points="100.879 69.725 100.879 71.172 96.815 68.826 96.815 67.379"/><polygon fill="#cccece" points="107.283 66.003 100.879 69.725 96.815 67.379 103.22 63.657"/></g><g><polygon fill="#cecece" points="107.283 58.29 107.283 66.004 100.879 69.726 100.879 62.012"/><polygon fill="#c5c5c5" points="106.562 59.544 106.182 59.765 106.182 65.214 106.562 65.462"/><polygon fill="#c5c5c5" points="106.182 65.214 106.182 65.214 101.601 67.877 101.601 68.345 106.562 65.462 106.562 65.462"/><polygon fill="#a4a5a7" points="106.182 59.765 101.601 62.428 101.601 67.877 106.182 65.214"/><polygon fill="#c5c5c5" points="100.879 62.012 100.879 69.726 96.815 67.379 96.815 59.666"/><polygon fill="#cccece" points="107.283 58.29 100.879 62.012 96.815 59.666 103.22 55.944"/><polygon fill="#cecece" points="97.558 60.921 97.937 61.141 97.937 66.59 97.558 66.839"/><polygon fill="#cccece" points="97.937 66.59 97.937 66.59 100.135 67.877 100.135 68.345 97.558 66.839 97.558 66.839"/><polygon fill="#a4a5a7" points="97.937 61.141 100.135 62.428 100.135 67.877 97.937 66.591"/></g><g><polygon fill="#c5c5c5" points="107.284 58.29 100.879 62.012 96.816 59.666 101.464 39.875" enable-background="new"/></g><g><polygon fill="#efefef" points="101.464 39.875 107.283 58.29 100.879 62.012 101.464 43.597"/><polygon fill="#c5c5c5" points="101.464 43.597 100.879 62.012 96.815 59.666 101.464 39.875"/></g><g><polygon fill="#c5c5c5" points="106.562 69.275 106.182 69.496 106.182 82.392 106.562 82.64"/><polygon fill="#c5c5c5" points="106.182 82.392 106.182 82.392 101.601 85.054 101.601 85.523 106.562 82.64 106.562 82.64"/><polygon fill="#a4a5a7" points="106.182 69.496 101.601 72.159 101.601 85.054 106.182 82.392"/></g><g><polygon fill="#cecece" points="97.558 70.849 97.937 71.07 97.937 83.727 97.558 83.975"/><polygon fill="#cccece" points="97.937 83.727 97.937 83.727 100.135 85.013 100.135 85.481 97.558 83.975 97.558 83.975"/><polygon fill="#a4a5a7" points="97.937 71.07 100.135 72.356 100.135 85.013 97.937 83.727"/></g></g><g><path fill="#c5c5c5" d="M72.8074722,98.2616959l-0.006279-4.2125702c-0.0437927-1.0435791-0.3447571-1.9273758-0.9008789-2.5215454c0.7989349,0.5650864,1.2255478,1.5925293,1.2784042,2.8518753l0.0062714,4.2125626l0,0L72.8074722,98.2616959L72.8074722,98.2616959z"/><polygon fill="#cccece" points="70.253 99.737 72.807 98.262 73.185 98.592 70.254 100.284"/><path fill="#7c7979" d="M71.7030106,91.4005127c0.0683899,0.0390244,0.1336594,0.0820465,0.1973038,0.1270676c0.5561218,0.5941696,0.8570862,1.4779663,0.9008789,2.5215454l0.006279,4.2125702l-2.5549622,1.4751053l-0.0047226-3.6651688C70.2975769,94.6502533,70.7822723,92.9959869,71.7030106,91.4005127z"/></g><g><path fill="#c5c5c5" d="M104.9826508,79.56353l-0.0062714-4.2125702c-0.0438004-1.0435791-0.3447647-1.9273758-0.9008789-2.5215454c0.7989349,0.5650864,1.2255402,1.5925293,1.2783966,2.8518753l0.0062714,4.2125626l0,0L104.9826508,79.56353L104.9826508,79.56353z"/><polygon fill="#cccece" points="102.428 81.039 104.983 79.564 105.36 79.894 102.429 81.586"/><path fill="#7c7979" d="M103.8781891,72.7023468c0.0683899,0.0390244,0.133667,0.0820465,0.1973114,0.1270676c0.5561142,0.5941696,0.8570786,1.4779663,0.9008789,2.5215454l0.0062714,4.2125702l-2.5549622,1.4751053l-0.0047226-3.6651688C102.4727554,75.9520874,102.9574509,74.297821,103.8781891,72.7023468z"/></g><g><path fill="#c5c5c5" d="M104.8012238,64.9620056l-0.0052261-0.8426208c-0.0365143-0.8700638-0.2874374-1.6069031-0.7510834-2.1022797c0.6660919,0.4711266,1.0217667,1.3277283,1.065834,2.3776779l0.0052261,0.8426208l0,0L104.8012238,64.9620056L104.8012238,64.9620056z"/><polygon fill="#cccece" points="102.671 66.192 104.801 64.962 105.116 65.237 102.672 66.648"/><path fill="#7c7979" d="M103.8804092,61.9111671c0.0570221,0.0325356,0.1114426,0.0684013,0.164505,0.105938c0.4636459,0.4953766,0.7145691,1.2322159,0.7510834,2.1022797l0.0052261,0.8426208l-2.1301346,1.2298279l-0.0039368-0.3862457C102.7086639,64.6205521,103.1127701,63.2413521,103.8804092,61.9111671z"/></g><g><path fill="#c5c5c5" d="M72.6260452,83.6601715l-0.0052261-0.8426208c-0.0365143-0.8700638-0.2874374-1.6069031-0.751091-2.1022797c0.6660919,0.4711304,1.0217667,1.3277283,1.065834,2.3776779l0.0052338,0.8426208l0,0L72.6260452,83.6601715L72.6260452,83.6601715z"/><polygon fill="#cccece" points="70.496 84.89 72.626 83.66 72.941 83.936 70.497 85.346"/><path fill="#7c7979" d="M71.7052307,80.6093369c0.0570221,0.0325317,0.1114349,0.0683975,0.1644974,0.1059341c0.4636536,0.4953766,0.7145767,1.2322159,0.751091,2.1022797l0.0052261,0.8426208l-2.1301346,1.2298279l-0.0039368-0.3862457C70.5334854,83.318718,70.9375916,81.9395218,71.7052307,80.6093369z"/></g><g><polygon fill="#9b908a" points="71.906 55.06 71.902 53.554 71.119 53.099 70.437 53.493 70.433 52.11 69.651 51.655 68.337 52.413 68.344 54.701 66.884 55.544 66.888 57.051 67.671 57.505 68.351 57.113 68.366 62.568 69.148 63.022 70.462 62.264 70.444 55.904"/><polygon fill="#9b908a" points="69.148 63.022 68.366 62.568 68.348 56.208 69.13 56.663"/><polygon fill="#e3d7c9" points="70.44 54.398 69.657 53.943 71.119 53.099 71.902 53.554"/><polygon fill="#9b908a" points="67.671 57.505 66.888 57.051 66.884 55.544 67.666 55.999"/><polygon fill="#e3d7c9" points="67.666 55.999 66.884 55.544 68.344 54.701 69.126 55.156"/><polygon fill="#9b908a" points="69.126 55.156 68.344 54.701 68.337 52.413 69.12 52.868"/><polygon fill="#e3d7c9" points="69.12 52.868 68.337 52.413 69.651 51.655 70.433 52.11"/><polygon fill="#bfb4b2" points="70.433 52.11 70.44 54.398 71.902 53.554 71.906 55.06 70.444 55.904 70.462 62.264 69.148 63.022 69.13 56.663 67.671 57.505 67.666 55.999 69.126 55.156 69.12 52.868"/></g><g><polygon fill="#9b908a" points="104.081 36.23 104.077 34.723 103.295 34.268 102.612 34.663 102.608 33.279 101.826 32.825 100.513 33.583 100.519 35.871 99.059 36.714 99.064 38.22 99.846 38.675 100.526 38.282 100.541 43.737 101.324 44.192 102.637 43.433 102.619 37.074"/><polygon fill="#9b908a" points="101.324 44.192 100.541 43.737 100.523 37.377 101.306 37.832"/><polygon fill="#e3d7c9" points="102.615 35.567 101.832 35.113 103.295 34.268 104.077 34.723"/><polygon fill="#9b908a" points="99.846 38.675 99.064 38.22 99.059 36.714 99.842 37.168"/><polygon fill="#e3d7c9" points="99.842 37.168 99.059 36.714 100.519 35.871 101.301 36.326"/><polygon fill="#9b908a" points="101.301 36.326 100.519 35.871 100.513 33.583 101.295 34.037"/><polygon fill="#e3d7c9" points="101.295 34.037 100.513 33.583 101.826 32.825 102.608 33.279"/><polygon fill="#bfb4b2" points="102.608 33.279 102.615 35.567 104.077 34.723 104.081 36.23 102.619 37.074 102.637 43.433 101.324 44.192 101.306 37.832 99.846 38.675 99.842 37.168 101.301 36.326 101.295 34.037"/></g></g><g><polygon fill="#fff" points="109.483 99.674 105.689 101.879 103.993 100.899 107.787 98.695"/><polygon fill="#fff" points="103.57 103.11 99.776 105.315 98.08 104.336 101.874 102.131"/><polygon fill="#fff" points="115.396 96.238 111.602 98.443 109.906 97.463 113.699 95.259"/><polygon fill="#fff" points="121.308 92.802 117.515 95.007 115.819 94.027 119.612 91.823"/><polygon fill="#fff" points="97.655 106.548 93.861 108.752 92.165 107.773 95.959 105.568"/><polygon fill="#fff" points="91.742 109.984 87.949 112.189 86.252 111.209 90.046 109.005"/><polygon fill="#fff" points="85.827 113.421 82.034 115.626 80.337 114.647 84.131 112.442"/><polygon fill="#fff" points="79.914 116.858 76.121 119.062 74.425 118.083 78.218 115.878"/><polygon fill="#fff" points="73.999 120.295 70.206 122.5 68.51 121.52 72.303 119.316"/></g><g><path fill="#cccece" d="M27.7047119,77.3582458l0.0122471-8.2145233c0.0855141-2.0376129,0.6731567-3.7632446,1.7589855-4.923378c-1.5599365,1.1033478-2.3929043,3.1094437-2.4961052,5.5683517l-0.0122471,8.2145157l0,0L27.7047119,77.3582458L27.7047119,77.3582458z"/><polygon fill="#fff" points="32.693 80.238 27.705 77.358 26.968 78.003 32.69 81.307"/><path fill="#7c7979" d="M29.8611946,63.9722481c-0.1335354,0.0761909-0.2609825,0.160183-0.3852501,0.2480965c-1.0858288,1.1601334-1.6734715,2.8857651-1.7589855,4.923378l-0.0122471,8.2145233l4.9886169,2.8801727l0.0092201-7.1457138C32.6053352,70.3174286,31.6589508,67.0874481,29.8611946,63.9722481z"/><path fill="#cccece" d="M35.2687798,81.7253571l0.012249-8.2145233c0.0855103-2.0376129,0.6731529-3.7632446,1.7589836-4.923378c-1.5599365,1.1033478-2.3929024,3.1094513-2.4961052,5.5683517l-0.012249,8.2145157l0,0L35.2687798,81.7253571L35.2687798,81.7253571z"/><polygon fill="#fff" points="40.257 84.606 35.269 81.725 34.532 82.37 40.254 85.674"/><path fill="#7c7979" d="M37.4252625,68.3393631c-0.1335373,0.0761948-0.2609825,0.1601791-0.3852501,0.2480927c-1.0858307,1.1601334-1.6734734,2.8857651-1.7589836,4.923378l-0.012249,8.2145233l4.9886169,2.8801727l0.0092201-7.1457138C40.1694031,74.6845398,39.2230186,71.4545593,37.4252625,68.3393631z"/><path fill="#cccece" d="M42.8328476,86.0924759l0.012249-8.2145309c0.0855103-2.0376129,0.6731529-3.7632446,1.7589836-4.923378c-1.5599365,1.1033554-2.3929024,3.1094513-2.4961052,5.5683594l-0.012249,8.2145157l0,0L42.8328476,86.0924759L42.8328476,86.0924759z"/><polygon fill="#fff" points="47.821 88.973 42.833 86.092 42.096 86.737 47.818 90.041"/><path fill="#7c7979" d="M44.9893303,72.7064743c-0.1335373,0.0761948-0.2609825,0.1601868-0.3852501,0.2480927c-1.0858307,1.1601334-1.6734734,2.8857651-1.7589836,4.923378l-0.012249,8.2145309l4.9886169,2.8801727l0.0092201-7.1457214C47.7334709,79.051651,46.7870865,75.8216705,44.9893303,72.7064743z"/><g><path fill="#cccece" d="M50.6994781,90.6342697l0.012249-8.2145233c0.0855103-2.0376129,0.6731567-3.7632446,1.7589836-4.923378c-1.5599365,1.1033478-2.3929024,3.1094437-2.4961052,5.5683517l-0.012249,8.2145157l0,0L50.6994781,90.6342697L50.6994781,90.6342697z"/><polygon fill="#fff" points="55.688 93.514 50.699 90.634 49.962 91.279 55.685 94.583"/><path fill="#7c7979" d="M52.8559608,77.2482758c-0.1335373,0.0761948-0.2609825,0.1601791-0.3852501,0.2480927c-1.0858269,1.1601334-1.6734734,2.8857651-1.7589836,4.923378l-0.012249,8.2145233l4.9886169,2.8801727l0.0092201-7.1457138C55.6001015,83.5934525,54.653717,80.363472,52.8559608,77.2482758z"/></g><g><path fill="#cccece" d="M57.9609833,94.8266983l0.012249-8.2145233c0.0855103-2.0376129,0.6731567-3.7632446,1.7589836-4.923378c-1.5599365,1.1033478-2.3929024,3.1094513-2.4961052,5.5683517l-0.012249,8.2145157l0,0L57.9609833,94.8266983L57.9609833,94.8266983z"/><polygon fill="#fff" points="62.95 97.707 57.961 94.827 57.224 95.472 62.947 98.776"/><path fill="#7c7979" d="M60.117466,81.4407043c-0.1335373,0.0761948-0.2609825,0.1601791-0.3852501,0.2480927c-1.0858269,1.1601334-1.6734734,2.8857651-1.7589836,4.923378l-0.012249,8.2145233l4.9886169,2.8801727l0.0092201-7.1457138C62.8616104,87.785881,61.9152222,84.5559006,60.117466,81.4407043z"/></g></g><polygon fill="#dae5ea" points="107.284 83.27 107.284 84.716 100.874 88.438 100.874 86.99"/><g><polygon fill="#8f7171" points="33.925 54.397 32.698 56.982 28.222 54.398 29.449 51.813"/></g><g><polygon fill="#8f7171" points="53.551 54.701 52.324 57.286 47.848 54.702 49.075 52.117"/></g><g><polygon fill="#8f7171" points="41.489 37.974 40.262 40.56 35.786 37.975 37.013 35.39"/></g><g><polygon fill="#8f7171" points="76.136 43.369 74.909 45.954 70.433 43.37 71.66 40.784"/></g><g><polygon fill="#8f7171" points="58.174 68.137 56.947 70.722 52.471 68.138 53.698 65.553"/></g><g><polygon fill="#e8e4e2" points="34.889 93.836 37.938 92.064 37.946 89.186 34.897 90.958"/><polygon fill="#b8bcbc" points="25.101 85.304 25.092 88.182 34.889 93.836 34.897 90.958"/><polygon fill="#bbbebe" points="34.897 90.958 37.946 89.186 28.15 83.532 25.101 85.304"/><polygon fill="#fff" points="34.899 90.429 37.948 88.657 28.151 83.003 25.102 84.775"/><polygon fill="#92c123" points="37.377 88.658 28.152 83.334 25.673 84.774 34.898 90.098"/><polygon fill="#e8e4e2" points="34.897 90.958 37.946 89.186 37.948 88.657 34.899 90.429"/><polygon fill="#b8bcbc" points="25.102 84.775 25.101 85.304 34.897 90.958 34.899 90.429"/></g><g><polygon fill="#e8e4e2" points="51.892 103.834 54.941 102.062 54.95 99.184 51.9 100.956"/><polygon fill="#b8bcbc" points="42.104 95.302 42.096 98.18 51.892 103.834 51.9 100.956"/><polygon fill="#bbbebe" points="51.9 100.956 54.95 99.184 45.153 93.53 42.104 95.302"/><polygon fill="#fff" points="51.902 100.427 54.951 98.655 45.155 93.001 42.105 94.773"/><polygon fill="#92c123" points="54.38 98.656 45.155 93.332 42.677 94.772 51.902 100.096"/><polygon fill="#e8e4e2" points="51.9 100.956 54.95 99.184 54.951 98.655 51.902 100.427"/><polygon fill="#b8bcbc" points="42.105 94.773 42.104 95.302 51.9 100.956 51.902 100.427"/></g><g><polygon fill="#796662" points="114.221 88.764 112.573 89.841 110.917 88.765 111.049 85.715 112.575 84.828 114.108 85.713" enable-background="new"/><polygon fill="#796662" points="114.108 85.713 114.221 88.764 112.573 89.841 112.583 86.636"/><polygon fill="#8f7171" points="112.583 86.636 112.573 89.841 110.917 88.765 111.049 85.714"/><polygon fill="#a19096" points="114.108 85.713 112.583 86.636 111.049 85.714 112.575 84.828"/><path fill="#deb2a7" d="M123.7776489,75.7645493v1.0907822c0,0.0627365-0.0419312,0.1362228-0.1362839,0.178215l-1.8983765,1.1117783c-0.1782761,0.1047287-0.4614105,0.1047287-0.6397476,0l-3.2407379-1.8773804c-0.0839233-0.0524902-0.1363449-0.1154785-0.1363449-0.1889648v-1.0800323c0,0.0732346,0.0524216,0.1362228,0.1363449,0.1887131l3.2407379,1.8773804c0.1783371,0.094223,0.4719696,0.094223,0.6397476,0l1.8983765-1.1012878C123.7357178,75.9007645,123.7776489,75.8377762,123.7776489,75.7645493z"/><path fill="#796662" d="M124.1083527,75.1885681l-0.0043793,0.4368515c0,0.0777283-0.0471039,0.1543655-0.1489182,0.2112961l-2.1448441,1.2459717c-0.2058258,0.1182251-0.5233231,0.1182251-0.7236938,0l-3.663414-2.1130905c-0.1029129-0.0624161-0.1543884-0.1390533-0.1543884-0.2156906v-0.431366c0.0054779-0.0700912,0.0547409-0.1390533,0.1478119-0.1937943l2.1448288-1.2459717c0.2025604-0.1182251,0.5288239-0.1182251,0.7313843,0l3.663414,2.1141891c0.0996246,0.0569382,0.1500092,0.1324768,0.1510773,0.2080154C124.1083527,75.1995239,124.1083527,75.194046,124.1083527,75.1885681z"/><path fill="#dae5ea" d="M124.108757,75.1881256l-0.0051346,0.4377975c0,0.0769882-0.046196,0.1539688-0.1487961,0.2104034l-2.1448898,1.2469025c-0.2052612,0.1180115-0.5233994,0.1180115-0.723526,0l-3.663765-2.1140976c-0.1026001-0.0615692-0.1539307-0.1385498-0.1539307-0.2154999v-0.4327011c0,0.0769501,0.0513306,0.1539307,0.1539307,0.2103729l3.663765,2.1192322c0.2001266,0.1128693,0.5233994,0.1128693,0.723526,0l2.1448898-1.2469101C124.0574265,75.3420563,124.108757,75.2650757,124.108757,75.1881256z"/><path fill="#dae5ea" d="M123.9559402,74.9969482c0.203125,0.1172714,0.2009048,0.3045349-0.0008926,0.4218063l-2.1449585,1.2465134c-0.2018127,0.1172791-0.5218201,0.1172791-0.7249451,0.0000076l-3.6627502-2.1146927c-0.2031174-0.1172714-0.2074509-0.3045349-0.0056458-0.4218063l2.1449585-1.246521c0.2017975-0.1172714,0.5283585-0.1172714,0.7314835,0L123.9559402,74.9969482z"/><polygon fill="#dae5ea" points="75.109 101.836 75.109 103.283 68.704 107.005 64.64 104.659 64.64 103.212 68.704 105.558"/><path fill="#796662" d="M124.108757,75.1881256l-0.0051346,0.4377975c0,0.0769882-0.046196,0.1539688-0.1487961,0.2104034l-2.1448898,1.2469025c-0.2052612,0.1180115-0.5233994,0.1180115-0.723526,0l-3.663765-2.1140976c-0.1026001-0.0615692-0.1539307-0.1385498-0.1539307-0.2154999v-0.4327011c0,0.0769501,0.0513306,0.1539307,0.1539307,0.2103729l3.663765,2.1192322c0.2001266,0.1128693,0.5233994,0.1128693,0.723526,0l2.1448898-1.2469101C124.0574265,75.3420563,124.108757,75.2650757,124.108757,75.1881256z"/><path fill="#a19096" d="M123.9559402,74.9969482c0.203125,0.1172714,0.2009048,0.3045349-0.0008926,0.4218063l-2.1449585,1.2465134c-0.2018127,0.1172791-0.5218201,0.1172791-0.7249451,0.0000076l-3.6627502-2.1146927c-0.2031174-0.1172714-0.2074509-0.3045349-0.0056458-0.4218063l2.1449585-1.246521c0.2017975-0.1172714,0.5283585-0.1172714,0.7314835,0L123.9559402,74.9969482z"/><polygon fill="#dae5ea" points="75.108 101.836 75.108 103.283 68.704 107.005 68.704 105.558"/><polygon fill="#eff8fd" points="68.704 105.558 68.704 107.005 64.64 104.659 64.64 103.212"/><g><path fill="#796662" d="M124.108757,75.1881256l-0.0051346,0.4377975c0,0.0769882-0.046196,0.1539688-0.1487961,0.2104034l-2.1448898,1.2469025c-0.2052612,0.1180115-0.5233994,0.1180115-0.723526,0l-3.663765-2.1140976c-0.1026001-0.0615692-0.1539307-0.1385498-0.1539307-0.2154999v-0.4327011c0,0.0769501,0.0513306,0.1539307,0.1539307,0.2103729l3.663765,2.1192322c0.2001266,0.1128693,0.5233994,0.1128693,0.723526,0l2.1448898-1.2469101C124.0574265,75.3420563,124.108757,75.2650757,124.108757,75.1881256z"/><path fill="#a19096" d="M123.9559402,74.9969482c0.203125,0.1172714,0.2009048,0.3045349-0.0008926,0.4218063l-2.1449585,1.2465134c-0.2018127,0.1172791-0.5218201,0.1172791-0.7249451,0.0000076l-3.6627502-2.1146927c-0.2031174-0.1172714-0.2074509-0.3045349-0.0056458-0.4218063l2.1449585-1.246521c0.2017975-0.1172714,0.5283585-0.1172714,0.7314835,0L123.9559402,74.9969482z"/></g><g><path fill="#cecece" d="M113.6531296,65.9207764c-0.1051788,0.0646896-0.1941605,0.1456223-0.2669907,0.2589035c-0.129425,0.1941605-0.1941681,0.4530563-0.1941681,0.7685471l-0.024292,18.820816l-0.5986786,0.3478775l0.024292-18.8288651c0-0.0647354,0-0.121376,0.0081024-0.1780167c0.008049-0.056633,0.0161438-0.1132736,0.0242386-0.1618118c0.0242996-0.129425,0.064743-0.2427063,0.121376-0.3397827c0.0242462-0.0485458,0.0566406-0.097084,0.097084-0.1456223c0.0566406-0.0808868,0.129425-0.1375275,0.2103577-0.1860657l0.0646896-0.0323944L113.6531296,65.9207764z"/><path fill="#cecece" d="M121.2852402,74.9199066l-0.5978622,0.3586807l-0.5295639-4.0827484c-0.1879959-1.5033112-1.2129288-3.1262054-2.4599533-3.8266678l-3.5163345-2.0294495c-0.6833649-0.3928757-1.3154221-0.4270706-1.7765884-0.170784l0.6149597-0.3416824c0.4441681-0.2733841,1.0762329-0.2391891,1.7765884,0.1707916l3.5163345,2.0124512c1.2299271,0.717453,2.2549667,2.3232498,2.4599533,3.826561L121.2852402,74.9199066z"/><path fill="#f9f7f8" d="M120.691864,75.2676926v0.008049h-0.0080948l-0.8899231-0.3397827l-0.5258942-4.0937347c-0.129425-0.9546661-0.7766953-1.9821548-1.5614395-2.4352188l-3.5194397-2.0250702c-0.2912369-0.1699142-0.56633-0.2346497-0.8009338-0.2022552c-0.097084,0.008049-0.1860657,0.032341-0.2669983,0.064682c-0.1051788,0.0566406-0.2022629,0.1294785-0.2750473,0.2184601c-0.0404434,0.0485382-0.0728378,0.0970764-0.097084,0.1456223c-0.056633,0.0970764-0.0970764,0.2103577-0.121376,0.3397827c-0.0161896,0.0485382-0.0242386,0.1051788-0.0242386,0.1618118c-0.0081024,0.0566406-0.0161972,0.121376-0.0161972,0.1861191l-0.0161972,18.8207626l-0.5989227-0.3478699l-0.2910004-18.9987946c0.0080948-0.8413773,0.3235855-1.4158173,0.8332825-1.6504211c0.0728378-0.0404892,0.153717-0.0647354,0.2427521-0.0809326c0.0242462-0.0080948,0.0485382-0.0161438,0.0727844-0.0161438c0.0404434-0.0081024,0.0809326-0.0161972,0.121376-0.0081024c0.1213303-0.0161972,0.2508011-0.0080948,0.3721237,0.0081024c0.2751007,0.0404434,0.5663376,0.1375198,0.8656769,0.3154831l3.5194397,2.0251236c0.0808792,0.0485382,0.153717,0.0889816,0.2265015,0.1456223c0.0728378,0.0485382,0.153717,0.1051788,0.2265549,0.1618118c0.1456223,0.1132813,0.2831421,0.2427063,0.4207153,0.3802261c0.7524033,0.760498,1.3348846,1.820343,1.5371475,2.8640289c0.024292,0.097084,0.0323944,0.1860657,0.0485382,0.2831497L120.691864,75.2676926z"/></g></g><g><polygon fill="#796662" points="20.594 88.765 18.938 89.841 17.29 88.764 17.403 85.713 18.937 84.828 20.462 85.715" enable-background="new"/><polygon fill="#796662" points="17.403 85.713 17.29 88.764 18.938 89.841 18.928 86.636"/><polygon fill="#8f7171" points="18.928 86.636 18.938 89.841 20.594 88.765 20.462 85.714"/><polygon fill="#a19096" points="17.403 85.713 18.928 86.636 20.462 85.714 18.936 84.828"/><path fill="#deb2a7" d="M7.7335734,75.7645493v1.0907822c0,0.0627365,0.0419288,0.1362228,0.1362844,0.178215l1.8983774,1.1117783c0.178277,0.1047287,0.4614077,0.1047287,0.6397486,0l3.2407351-1.8773804c0.0839214-0.0524902,0.1363478-0.1154785,0.1363478-0.1889648v-1.0800323c0,0.0732346-0.0524263,0.1362228-0.1363478,0.1887131l-3.2407351,1.8773804c-0.1783409,0.094223-0.4719706,0.094223-0.6397486,0l-1.8983774-1.1012878C7.7755022,75.9007645,7.7335734,75.8377762,7.7335734,75.7645493z"/><path fill="#796662" d="M14.2430639,74.3225403v0.431366c0,0.0766373-0.0514822,0.1532745-0.1543932,0.2156906l-3.663413,2.1130905c-0.2003689,0.1182251-0.5189915,0.1182251-0.72369,0l-2.1448765-1.2459717c-0.102911-0.0569305-0.1488867-0.1335678-0.1488867-0.2112961l-0.0054531-0.4368515c0,0.0054779,0,0.0109558,0.0010691,0.0164108c0.001123-0.0755386,0.0514822-0.1510773,0.1522012-0.2080154l3.6622901-2.1141891c0.2036839-0.1182251,0.5299511-0.1182251,0.731389,0l2.1448231,1.2459717C14.1883211,74.1834869,14.2375574,74.252449,14.2430639,74.3225403z"/><g><path fill="#796662" d="M7.4024663,75.1881256l0.0051365,0.4377975c0,0.0769882,0.0461955,0.1539688,0.1487966,0.2104034l2.1448832,1.2469025c0.205265,0.1180115,0.5234041,0.1180115,0.7235327,0l3.6637621-2.1140976c0.1026011-0.0615692,0.1539326-0.1385498,0.1539326-0.2154999v-0.4327011c0,0.0769501-0.0513315,0.1539307-0.1539326,0.2103729l-3.6637621,2.1192322c-0.2001286,0.1128693-0.5234041,0.1128693-0.7235327,0l-2.1448832-1.2469101C7.4537983,75.3420563,7.4024663,75.2650757,7.4024663,75.1881256z"/><path fill="#a19096" d="M7.5552821,74.9969482c-0.2031217,0.1172714-0.2009034,0.3045349,0.0008926,0.4218063l2.1449609,1.2465134c0.201807,0.1172791,0.5218182,0.1172791,0.7249403,0.0000076l3.6627512-2.1146927c0.2031221-0.1172714,0.2074537-0.3045349,0.0056467-0.4218063l-2.1449614-1.246521c-0.2017956-0.1172714-0.5283566-0.1172714-0.7314787,0L7.5552821,74.9969482z"/></g><g><path fill="#cecece" d="M17.8580894,65.9207764c0.1051788,0.0646896,0.1941624,0.1456223,0.2669964,0.2589035c0.129425,0.1941605,0.1941624,0.4530563,0.1941624,0.7685471l0.0242939,18.820816l0.5986824,0.3478775l-0.0242958-18.8288651c0-0.0647354,0-0.121376-0.0080986-0.1780167c-0.008049-0.056633-0.0161476-0.1132736-0.0242443-0.1618118c-0.0242958-0.129425-0.0647373-0.2427063-0.121376-0.3397827c-0.0242462-0.0485458-0.0566387-0.097084-0.0970802-0.1456223c-0.0566387-0.0808868-0.129425-0.1375275-0.2103596-0.1860657l-0.0646877-0.0323944L17.8580894,65.9207764z"/><path fill="#cecece" d="M10.2259817,74.9199066l0.5978622,0.3586807l0.5295668-4.0827484c0.1879921-1.5033112,1.2129278-3.1262054,2.4599495-3.8266678l3.5163383-2.0294495c0.6833591-0.3928757,1.3154202-0.4270706,1.7765884-0.170784l-0.6149597-0.3416824c-0.4441738-0.2733841-1.0762348-0.2391891-1.7765903,0.1707916l-3.5163383,2.0124512c-1.2299223,0.717453-2.254962,2.3232498-2.4599485,3.826561L10.2259817,74.9199066z"/><path fill="#f9f7f8" d="M10.8193569,75.2676926v0.008049h0.0080976l0.8899231-0.3397827l0.5258951-4.0937347c0.129425-0.9546661,0.7766953-1.9821548,1.5614395-2.4352188l3.519434-2.0250702c0.2912407-0.1699142,0.5663357-0.2346497,0.8009396-0.2022552c0.0970821,0.008049,0.1860638,0.032341,0.2669964,0.064682c0.1051807,0.0566406,0.202261,0.1294785,0.2750473,0.2184601c0.0404415,0.0485382,0.072834,0.0970764,0.0970802,0.1456223c0.0566387,0.0970764,0.0970802,0.2103577,0.121376,0.3397827c0.0161953,0.0485382,0.0242443,0.1051788,0.0242443,0.1618118c0.0080986,0.0566406,0.0161972,0.121376,0.0161972,0.1861191l0.0161972,18.8207626l0.5989189-0.3478699l0.2910042-18.9987946c-0.0080986-0.8413773-0.3235874-1.4158173-0.8332844-1.6504211c-0.0728359-0.0404892-0.1537209-0.0647354-0.2427521-0.0809326c-0.0242462-0.0080948-0.0485401-0.0161438-0.0727863-0.0161438c-0.0404415-0.0081024-0.0809326-0.0161972-0.121376-0.0081024c-0.1213245-0.0161972-0.2507992-0.0080948-0.3721256,0.0081024c-0.275095,0.0404434-0.5663376,0.1375198-0.8656769,0.3154831l-3.519434,2.0251236c-0.080884,0.0485382-0.1537189,0.0889816-0.2265053,0.1456223c-0.072835,0.0485382-0.1537189,0.1051788-0.2265539,0.1618118c-0.1456213,0.1132813-0.283144,0.2427063-0.4207163,0.3802261c-0.7524004,0.760498-1.3348846,1.820343-1.5371447,2.8640289c-0.0242949,0.097084-0.0323935,0.1860657-0.0485401,0.2831497L10.8193569,75.2676926z"/></g></g><g><polygon fill="#e8e4e2" points="92.351 66.972 92.355 68.449 89.524 70.083 89.52 68.607"/></g><g><polygon fill="#e8e4e2" points="91.587 69.514 91.591 70.991 88.76 72.625 88.756 71.149"/></g><g><polygon fill="#e8e4e2" points="80.273 75.646 80.277 77.122 77.446 78.756 77.442 77.28"/></g><g><polygon fill="#cccece" points="56.252 77.708 56.248 79.184 59.079 80.819 59.083 79.342"/></g><g><polygon fill="#cccece" points="39.831 70.088 39.827 71.564 42.658 73.198 42.663 71.722"/></g><g><polygon fill="#cccece" points="26.808 60.562 26.804 62.039 29.635 63.673 29.639 62.197"/></g><g><polygon fill="#e8e4e2" points="93.284 57.275 93.288 58.751 90.457 60.386 90.453 58.909"/></g><g><polygon fill="#e8e4e2" points="83.982 52.671 83.986 54.147 81.155 55.782 81.151 54.306"/></g></svg>