<svg xmlns="http://www.w3.org/2000/svg" xmlns:xlink="http://www.w3.org/1999/xlink" enable-background="new 0 0 102 102" viewBox="0 0 102 102"><path fill="#BFD856" d="M100.1,65.6c1.7,1,1.7,2.5,0,3.5l-46,26.7c-1.7,1-4.3,1-6,0L1.9,69c-1.7-1-1.7-2.5,0-3.5l46-26.7
					c1.6-1,4.3-1,6,0L100.1,65.6z" enable-background="new"/><path fill="#3F7337" d="M101.4,67.3v3.4c0,0.6-0.4,1.3-1.2,1.7l-46,26.7v0c-1.7,0.9-4.3,0.9-6,0L1.9,72.5C1,72,0.6,71.4,0.6,70.8
			l0-3.5c0,0.6,0.4,1.3,1.3,1.8l46.3,26.7c1.7,1,4.3,1,6,0l46-26.7C101,68.6,101.4,67.9,101.4,67.3z"/><polygon fill="#929393" points="32.4 75.4 32.4 76.5 38.9 80.3 38.9 79.2"/><polygon fill="#F1F1F1" points="32.4 75.4 38.9 79.2 41.2 77.9 34.7 74.1"/><polygon fill="#929393" points="31.1 77 31.1 77.8 37.6 81.6 37.6 80.8"/><polygon fill="#F1F1F1" points="31.1 77 37.6 80.8 38.9 80 32.4 76.3"/><defs><polygon id="a" points="27.4 52.1 60.2 33 60.2 33 27.4 52.1" enable-background="new"/></defs><clipPath id="b"><use overflow="visible" xlink:href="#a"/></clipPath><polyline fill="#131213" points="27.4 52.1 60.2 33 60.2 33 27.4 52.1 27.4 52.1" clip-path="url(#b)"/><polygon fill="#806A36" points="28.3 52.5 61.1 33.5 70.8 29.1 38.1 48.1"/><polygon fill="#B0AFB0" points="47.8 63.8 80.6 44.7 80.5 62.6 47.7 81.7"/><polygon fill="#704E2C" points="47.8 79.6 80.6 60.5 80.5 62.6 47.7 81.7"/><polygon fill="#F8CD67" points="38.1 48.1 70.8 29.1 80.6 44.7 47.8 63.8"/><polygon fill="#E8E8E8" points="38.1 48.1 47.8 63.8 47.7 81.7 28.2 70.4 28.3 52.5"/><path fill="#91684B" d="M81.5,45.8C81.5,45.8,81.5,45.8,81.5,45.8L48.7,64.8c0.1-0.1,0.1-0.3,0-0.5L38.2,47.6
					c-0.1-0.1-0.1-0.1-0.2-0.2c0,0,0,0,0,0l32.8-19.1c0,0,0,0,0,0c0.1,0,0.1,0.1,0.2,0.2l10.4,16.8C81.6,45.5,81.6,45.7,81.5,45.8z"/><path fill="#B48F74" d="M38.1,47.4c0.1,0,0.1,0.1,0.2,0.2l10.4,16.8c0.1,0.2,0.1,0.4,0,0.5c-0.1,0-0.1,0-0.2,0
					c-0.1,0-0.1-0.1-0.2-0.2l-0.5-0.9l-9.7-15.6l-9.8,4.4l-0.5,0.2c-0.1,0-0.1,0-0.2,0c-0.1,0-0.2-0.1-0.2-0.2
					c-0.1-0.2-0.1-0.4,0-0.4l10.5-4.7C37.9,47.3,38,47.4,38.1,47.4z"/><path fill="#704E2C" d="M70.7,28.3L60.2,33L27.4,52.1l10.5-4.7c0.1,0,0.1,0,0.2,0l32.8-19.1C70.8,28.3,70.7,28.3,70.7,28.3z"/><polygon fill="#B0AFB0" points="44.2 43.6 53.4 38.2 53.4 49.9 44.2 55.2"/><path fill="#E8E8E8" d="M44.2,43.6l0,11.7l0,0l-5.1-8.2c-0.1-0.1-0.1-0.1-0.2-0.2c-0.1,0-0.1,0-0.2,0l-4.4,2l0-10.9L44.2,43.6
							z"/><polyline fill="#B0AFB0" points="55.1 40 44.2 46.3 44.3 44.5 55.1 38.3"/><polyline fill="#BFBFBF" points="32.7 37.9 44.3 44.5 44.2 46.3 32.7 39.6"/><polyline fill="#BFBFBF" points="55.1 38.3 44.3 44.5 32.7 37.9"/><polygon fill="#F1F1F1" points="55.1 38.3 44.3 44.5 32.7 37.9 43.6 31.6"/><polygon fill="#B0AFB0" points="44.2 32.6 53.4 27.2 53.4 38.2 44.2 43.5"/><polygon fill="#D6B159" points="34.4 26.9 38 24.8 47.8 30.5 44.2 32.6"/><polygon fill="#E8E8E8" points="44.2 32.6 44.2 43.5 34.4 37.9 34.4 26.9"/><polygon fill="#E64E56" points="44.3 10 44.3 33.4 33.3 27"/><polygon fill="#D22838" points="44.3 10 44.3 33.4 54.5 27.4"/><path fill="#475160" d="M39 32c1.1.6 2 2.2 2 3.5l0 3.8L37 37l0-3.8C37 31.9 37.9 31.4 39 32zM39 53.8c1.1.6 2 2.2 2 3.5l0 3.8L37 58.8l0-3.8C37 53.7 37.9 53.2 39 53.8z"/><path fill="#FFF" d="M41.1,60.5l0,0.7L37,58.8l0-3.8c0-0.7,0.3-1.2,0.8-1.4c-0.2,0.2-0.3,0.6-0.3,1l0,3.8L41.1,60.5z"/><path fill="#475160" d="M48.8,32c-1.1,0.6-2,2.2-2,3.5l0,3.8l4.1-2.3l0-3.8C50.8,31.9,49.9,31.4,48.8,32z"/><polygon fill="#91684B" points="28.2 68.4 28.2 70.4 47.7 81.7 47.7 79.6"/><polygon fill="#4F4D4D" points="39.8 66.3 39.8 77.4 34.3 74.2 34.3 63.1"/><path fill="#BFBFBF" d="M35.7,68.6c0.2,0.1,0.3,0.3,0.3,0.5c0,0.2-0.1,0.3-0.3,0.2c-0.2-0.1-0.3-0.3-0.3-0.5
						C35.4,68.6,35.5,68.5,35.7,68.6z"/><polygon fill="#E8E8E8" points="34.3 63.1 35.1 62.6 35.1 73.8 34.3 74.2"/><polygon fill="#FFF" points="34.3 74.2 35.1 73.8 40.6 76.9 39.8 77.4"/><polygon fill="#686868" points="33.8 62.4 34.6 61.9 37.9 62 37.1 62.4"/><polygon fill="#3D3B3B" points="39.8 66.3 40.6 65.8 40.6 76.9 39.8 77.4"/><polygon fill="#444242" points="34.3 63.1 35.1 62.6 40.6 65.8 39.8 66.3"/><polygon fill="#D7D7D7" points="37.1 62.4 37.9 62 41.2 65.7 40.4 66.2"/><path fill="#929393" d="M37.1,62.4l3.3,3.8l0,12.2l-6.6-3.8l0-12.2L37.1,62.4z M39.8,77.4l0-11.1l-5.5-3.2l0,11.1L39.8,77.4"/><polygon fill="#475160" points="56.1 64.2 56.2 71.2 51.6 73.8 51.6 66.9"/><polygon fill="#475160" points="63.2 60.2 63.2 67.2 58.6 69.8 58.6 62.8"/><polygon fill="#475160" points="70.2 56.1 70.2 63.1 65.7 65.7 65.6 58.7"/><polygon fill="#475160" points="77.2 52.1 77.2 59.1 72.7 61.7 72.7 54.7"/><polygon fill="#E8E8E8" points="56.2 71.2 51.6 73.8 51.6 73.2 55.7 70.9 55.6 64.5 56.1 64.2"/><polygon fill="#E8E8E8" points="63.2 67.2 58.6 69.8 58.6 69.2 62.7 66.8 62.7 60.5 63.2 60.2"/><polygon fill="#E8E8E8" points="70.2 63.1 65.7 65.7 65.7 65.1 69.7 62.8 69.7 56.4 70.2 56.1"/><polygon fill="#E8E8E8" points="77.2 59.1 72.7 61.7 72.7 61.1 76.7 58.7 76.7 52.4 77.2 52.1"/><polygon fill="#475160" points="42.4 65.3 42.4 70.7 45.9 72.7 45.9 67.3"/><polygon fill="#FFF" points="42.4 70.7 45.9 72.7 45.9 72.2 42.8 70.4 42.8 65.5 42.4 65.3"/><polygon fill="#475160" points="29.8 59.2 29.8 64.6 33.3 66.6 33.3 61.2"/><polygon fill="#FFF" points="29.8 64.6 33.3 66.6 33.3 66.1 30.2 64.3 30.2 59.4 29.8 59.2"/><path fill="#FFF" d="M41.1,38.7l0,0.7L37,37l0-3.8c0-0.7,0.3-1.2,0.8-1.4c-0.2,0.2-0.3,0.6-0.3,1l0,3.8L41.1,38.7z"/><path fill="#E8E8E8" d="M46.8,38.7l0,0.7l4.1-2.3l0-3.8c0-0.7-0.3-1.2-0.8-1.4c0.2,0.2,0.3,0.6,0.3,1l0,3.8L46.8,38.7z"/><polygon fill="#704E2C" points="62 30.3 63.9 29.2 63.9 31.9 62 33"/><polygon fill="#91684B" points="59.9 29.1 59.9 33.7 62 33 62 33 62 30.3"/><polyline fill="#B0AFB0" points="64.5 29.6 62 31.1 62 30.6 64.5 29.1"/><polyline fill="#BFBFBF" points="59.3 29 62 30.6 62 31.1 59.3 29.5"/><polygon fill="#F1F1F1" points="64.5 29.1 62 30.6 59.3 29 61.8 27.5"/><polygon fill="#686868" points="59.9 29 61.7 30 61.8 27.9"/><polygon fill="#4F4D4D" points="63.9 29.1 61.8 27.9 61.8 27.9 61.7 30 62 30.2"/><polygon fill="#3D3D3D" points="44.3 12.3 45.3 11.7 45.3 6.1 44.3 6.7"/><polygon fill="#3D3D3D" points="41.3 3.7 43.2 4.9 44.2 4.3 42.3 3.2"/><polygon fill="#3D3D3D" points="45.3 4.9 45.3 2.7 44.2 2.1 43.2 2.6 44.3 3.3 44.3 5.5 46.2 6.6 46.2 7.8 47.2 7.3 47.2 6"/><polygon fill="#C6C4C4" points="44.3 3.3 44.3 5.5 46.2 6.6 46.2 7.8 44.3 6.7 44.3 12.3 43.2 11.7 43.2 6.1 41.3 5 41.3 3.7 43.2 4.9 43.2 2.6"/><g><path fill="#3F7337" d="M85.8 61.3l3.8 2.2c.2.1.4.3.4.5l0-1c0-.2-.1-.4-.4-.5l-3.8-2.2c-.2-.1-.4-.3-.4-.5l0 1C85.5 61 85.6 61.2 85.8 61.3zM85.9 67.7l3.8 2.2c.2.1.4.3.4.5l0-1c0-.2-.1-.4-.4-.5l-3.8-2.2c-.2-.1-.4-.3-.4-.5l0 1C85.5 67.4 85.6 67.6 85.9 67.7zM85.9 73.1c-.2-.1-.4-.3-.4-.5l0 1c0 .2.1.4.4.5l2.8 1.6.9-.5L85.9 73.1z"/><path fill="#80BC41" d="M100.1,65.6l-12.5-7.2l-1.8,1c-0.5,0.3-0.5,0.7,0,1l3.8,2.2c0.5,0.3,0.5,0.7,0,1l-3.8,2.2
						c-0.5,0.3-0.5,0.7,0,1l3.8,2.2c0.5,0.3,0.5,0.7,0,1l-3.8,2.2c-0.5,0.3-0.5,0.7,0,1l3.6,2.1l10.6-6.2
						C101.8,68.1,101.8,66.5,100.1,65.6z"/></g><g><path fill="#3F7337" d="M13.7 63.7l3.6-2.1c.2-.1.3-.3.3-.5v-.9c0 .2-.1.3-.3.5l-3.6 2.1c-.2.1-.3.3-.3.5v1C13.3 64 13.5 63.9 13.7 63.7zM17.3 66.8l-3.6 2.1c-.2.1-.3.3-.3.5v.9c0-.2.1-.3.3-.5l3.6-2.1c.2-.1.3-.3.3-.5l0-.9C17.7 66.5 17.6 66.7 17.3 66.8zM17.4 72.9L13 75.4l.8.5 3.6-2.1c.2-.1.3-.3.3-.5l0-1C17.7 72.6 17.6 72.8 17.4 72.9z"/></g><g><path fill="#80BC41" d="M17.4,71.9l-3.6-2.1c-0.5-0.3-0.5-0.7,0-1l3.6-2.1c0.5-0.3,0.4-0.7,0-1l-3.6-2.1c-0.5-0.3-0.5-0.7,0-1
				l3.6-2.1c0.5-0.3,0.4-0.7,0-1l-2.7-1.5L1.9,65.6c-1.7,1-1.6,2.5,0,3.5L13,75.4l4.4-2.5C17.8,72.6,17.8,72.2,17.4,71.9z"/></g><g><path fill="#73AE43" d="M80.6,74.7c0.4,1.6-1.1,2.9-2.6,2.4c-0.7,1.2-2.5,1.3-3.3,0.1c-1.4,0.8-3.2-0.3-3-1.9
							c-1.3-0.1-1.6-2-0.4-2.5c-0.2-1,0.7-1.8,1.6-1.7c-0.5-1.6,1.8-2.7,2.7-1.2c0.7-0.5,1.7-0.2,2.1,0.7c1.2-0.4,2.6,0.5,2.6,1.8
							C81.6,72.6,81.7,74.2,80.6,74.7z"/><path fill="#A9C838" d="M75.1,72.6c-0.3,2-2.6,1-2,3.8C71.9,73.9,74.3,74.3,75.1,72.6z"/><path fill="#A9C838" d="M78.8 73.3c-.1-1-.9-.8-.9-.9-.1-.6-.2-1.3-.8-1.4-.4 0-1.1.2-1.4.5-.1.1-.1.3-.3.2-.6-.3-1.2-.5-1.7-.1-.3.4-.5.8-.5 1.4-.2-1 .4-2.5 2.2-1.6.2-.5 2.4-1.8 2.6.9C78.6 72.3 78.8 72.8 78.8 73.3zM79.9 74.5c.2 1.1-.9 2.2-2 2C79 76.3 79.7 75.5 79.9 74.5z"/><path fill="#73AE43" d="M69.9,80.6c0.4,1.6-1.1,3-2.6,2.4c-0.7,1.2-2.5,1.3-3.3,0.1c-1.4,0.8-3.2-0.3-3-1.9
							c-0.7-0.1-1.2-0.6-1.2-1.3c0-0.5,0.3-1,0.8-1.2c0-0.1,0-0.2,0-0.2c0-0.9,0.8-1.6,1.7-1.4c-0.5-1.6,1.8-2.7,2.7-1.2
							c0.7-0.5,1.7-0.2,2.1,0.7c1.2-0.4,2.6,0.5,2.6,1.8C70.9,78.6,71,80.1,69.9,80.6z"/><path fill="#A9C838" d="M64.4,78.5c-0.3,2-2.6,1-2,3.8C61.2,79.7,63.6,80.3,64.4,78.5z"/><path fill="#A9C838" d="M68.1 79.2c-.1-1-.9-.8-.9-.9 0-.1-.1-1.7-1.2-1.4-.3.1-1 .4-1.1.6l0 0c-.1.3-1.1-.6-1.7-.1-.2.1-.6.8-.6 1.5-.2-1.3.6-2.4 2.2-1.6.2-.5 2.4-1.8 2.6.9.2 0 .5.1.6.3C68 78.7 68.1 78.9 68.1 79.2zM69.1 80.4c.2 1.1-.9 2.2-2 2C68.2 82.2 69 81.5 69.1 80.4z"/><path fill="#73AE43" d="M59.3,86.6c0.4,1.3-0.6,2.5-1.9,2.5c-0.3,0-0.5,0-0.7-0.1c-0.7,1.2-2.5,1.3-3.3,0.1
							c-1.4,0.8-3.2-0.3-3-1.9c-1.3-0.1-1.6-2-0.4-2.5c-0.2-1,0.7-1.8,1.6-1.7c-0.5-1.6,1.8-2.7,2.7-1.2c0.7-0.5,1.7-0.2,2.1,0.7
							c1.2-0.4,2.6,0.5,2.6,1.8C60.3,84.6,60.4,86.1,59.3,86.6z"/><path fill="#A9C838" d="M53.8,84.5c-0.4,2.1-2.6,1-2,3.8C50.6,85.8,53,86.2,53.8,84.5z"/><path fill="#A9C838" d="M57.5 85.2c-.1-1-.9-.8-.9-.9-.2-1.5-.7-1.6-1.6-1.3-.7.3-.5.4-.6.5 0 .1-.1.1-.1.1-1-.5-1.6-.6-2 .5C52 84.3 52 84.6 52 84.9c-.2-1 .4-2.5 2.2-1.6.2-.5 2.4-1.8 2.6.9C57.2 84.2 57.5 84.7 57.5 85.2zM58.6 86.4c.2 1.1-.9 2.2-2 2C57.6 88.2 58.4 87.5 58.6 86.4z"/></g><g><polygon fill="#686868" points="41.2 65.7 41.2 79.5 37.6 81.6 37.6 80.8 38.9 80 38.9 79.2 40.4 78.4 40.4 66.2"/></g></svg>