<svg xmlns="http://www.w3.org/2000/svg" enable-background="new 0 0 55 55" viewBox="0 0 55 55"><polygon fill="#c4c2c0" points="51 14.1 51 35.8 49.3 36.8 49.3 15.1"/><polygon fill="#d6d4d2" points="49.3 15.1 49.3 36.3 32.6 26.7 32.7 5.5"/><polygon fill="#c4c2c0" points="32.7 5.5 32.6 26.7 5.7 41 5.7 21.1"/><polygon fill="#b2b0af" points="5.7 21.1 5.7 41 4 40 4 20.1"/><polygon fill="#e9e8e6" points="51 14.1 49.3 15.1 32.7 5.5 5.7 21.1 4 20.1 32.7 3.5"/><g><polygon fill="#e9e8e6" points="40.4 39.8 22.3 29.3 31.2 24.2 49.3 34.7"/><polygon fill="#d6d4d2" points="31.6 41.1 13.5 30.5 22.3 25.5 40.4 36"/><polygon fill="#b2b0af" points="23.8 51.5 5.7 41 5.6 30.7 23.8 41.2"/><polygon fill="#383736" points="17.2 29.7 16.5 29.3 16 25.3 16.7 25.8"/><polygon fill="#434240" points="16.7 25.8 16 25.3 20.5 22.7 21.2 23.2"/><polygon fill="#21201f" points="21.2 23.2 20.7 27.7 17.2 29.7 16.7 25.8"/><path fill="#434240" d="M20.7,21.5l0.7,0.4c-0.1-0.1-0.3-0.1-0.6,0.1l-0.7-0.4C20.4,21.5,20.6,21.5,20.7,21.5z"/><polygon fill="#2d2c2b" points="16.2 26.2 15.5 25.8 15.5 25.2 16.2 25.6"/><polygon fill="#383736" points="17 24.3 16.3 23.9 20.2 21.6 20.9 22"/><path fill="#2d2c2b" d="M16.2,25.6l-0.7-0.4c0-0.5,0.3-1.1,0.8-1.3l0.7,0.4C16.6,24.5,16.2,25.1,16.2,25.6z"/><path fill="#21201f" d="M20.9,22c0.4-0.2,0.8-0.1,0.8,0.4l0,0.6l-5.5,3.2l0-0.6c0-0.5,0.3-1.1,0.8-1.3L20.9,22z"/><g><path fill="#0074d1" d="M22.5,23.7l5.4,3.1c-0.1,0-0.2,0-0.3,0l-5.4-3.1C22.3,23.6,22.4,23.6,22.5,23.7z"/><polygon fill="#0074d1" points="24 28.9 18.6 25.8 22.2 23.7 27.6 26.8"/><path fill="#0074d1" d="M23.4,29L18,25.8c0.2,0.1,0.4,0.1,0.7-0.1l5.4,3.1C23.8,29,23.5,29.1,23.4,29z"/><path fill="#006cb5" d="M22.8,30l-5.4-3.1c-0.3-0.2-0.5-0.6-0.5-1.2l5.4,3.1C22.2,29.4,22.4,29.8,22.8,30z"/><polygon fill="#00649b" points="22.2 28.9 16.8 25.7 16.8 19.9 22.2 23.1"/><path fill="#00649b" d="M17.6 19.1l5.4 3.1c-.1 0-.2 0-.3 0l-5.4-3.1C17.4 19.1 17.5 19.1 17.6 19.1zM22.2 23.1l-5.4-3.1c0-.3.2-.6.4-.8l5.4 3.1C22.4 22.4 22.2 22.8 22.2 23.1z"/><path fill="#005e87" d="M22.6,22.3c0.2-0.1,0.4,0,0.4,0.3l0,5.8c0,0.3,0.1,0.5,0.3,0.6c0.2,0.1,0.4,0.1,0.7-0.1l3.6-2.1
											c0.2-0.1,0.4,0,0.4,0.3s-0.2,0.6-0.4,0.8L24,29.9c-0.5,0.3-1,0.3-1.3,0.1c-0.3-0.2-0.5-0.6-0.5-1.2l0-5.8
											C22.2,22.8,22.4,22.4,22.6,22.3z"/></g><g><polygon fill="#383736" points="24 33.7 23.3 33.3 22.8 29.3 23.5 29.7"/><polygon fill="#434240" points="23.5 29.7 22.8 29.3 27.3 26.7 28 27.1"/><polygon fill="#21201f" points="28 27.1 27.6 31.6 24 33.7 23.5 29.7"/><g><path fill="#434240" d="M27.6,25.5l0.7,0.4c-0.1-0.1-0.3-0.1-0.6,0.1L27,25.6C27.2,25.4,27.4,25.4,27.6,25.5z"/><polygon fill="#2d2c2b" points="23 30.2 22.3 29.8 22.3 29.2 23 29.6"/><polygon fill="#383736" points="23.8 28.3 23.1 27.8 27 25.6 27.7 26"/><path fill="#2d2c2b" d="M23,29.6l-0.7-0.4c0-0.5,0.3-1.1,0.8-1.3l0.7,0.4C23.4,28.5,23,29.1,23,29.6z"/><path fill="#21201f" d="M27.7,26c0.4-0.2,0.8-0.1,0.8,0.4l0,0.6L23,30.2l0-0.6c0-0.5,0.3-1.1,0.8-1.3L27.7,26z"/></g></g><g><polygon fill="#383736" points="24 33.7 23.3 33.3 22.8 29.3 23.5 29.7"/><polygon fill="#434240" points="23.5 29.7 22.8 29.3 27.3 26.7 28 27.1"/><polygon fill="#21201f" points="28 27.1 27.6 31.6 24 33.7 23.5 29.7"/><path fill="#434240" d="M27.5,25.5l0.7,0.4c-0.1-0.1-0.3-0.1-0.6,0.1L27,25.6C27.2,25.4,27.4,25.4,27.5,25.5z"/><polygon fill="#2d2c2b" points="23 30.2 22.3 29.8 22.3 29.2 23 29.6"/><polygon fill="#383736" points="23.8 28.3 23.1 27.8 27 25.6 27.7 26"/><path fill="#2d2c2b" d="M23,29.6l-0.7-0.4c0-0.5,0.3-1.1,0.8-1.3l0.7,0.4C23.4,28.5,23,29.1,23,29.6z"/><path fill="#21201f" d="M27.7,26c0.4-0.2,0.8-0.1,0.8,0.4l0,0.6L23,30.2l0-0.6c0-0.5,0.3-1.1,0.8-1.3L27.7,26z"/><g><path fill="#0074d1" d="M29.3,27.6l5.4,3.1c-0.1,0-0.2,0-0.3,0L29,27.7C29.2,27.6,29.3,27.6,29.3,27.6z"/><polygon fill="#0074d1" points="30.8 32.9 25.4 29.7 29 27.7 34.4 30.8"/><path fill="#0074d1" d="M30.2,32.9l-5.4-3.1c0.2,0.1,0.4,0.1,0.7-0.1l5.4,3.1C30.6,33,30.4,33,30.2,32.9z"/><path fill="#006cb5" d="M29.6,34l-5.4-3.1c-0.3-0.2-0.5-0.6-0.5-1.2l5.4,3.1C29,33.4,29.2,33.8,29.6,34z"/><polygon fill="#00649b" points="29 32.8 23.6 29.7 23.6 23.9 29 27"/><path fill="#00649b" d="M24.4 23.1l5.4 3.1c-.1 0-.2 0-.3 0l-5.4-3.1C24.2 23.1 24.3 23.1 24.4 23.1zM29 27l-5.4-3.1c0-.3.2-.6.4-.8l5.4 3.1C29.2 26.4 29 26.8 29 27z"/><path fill="#005e87" d="M29.5,26.3c0.2-0.1,0.4,0,0.4,0.3l0,5.8c0,0.3,0.1,0.5,0.3,0.6c0.2,0.1,0.4,0.1,0.7-0.1l3.6-2.1
											c0.2-0.1,0.4,0,0.4,0.3c0,0.3-0.2,0.6-0.4,0.8l-3.6,2.1c-0.5,0.3-1,0.3-1.3,0.1c-0.3-0.2-0.5-0.6-0.5-1.2l0-5.8
											C29,26.8,29.2,26.4,29.5,26.3z"/></g><g><polygon fill="#383736" points="30.8 37.7 30.1 37.2 29.6 33.3 30.3 33.7"/><polygon fill="#434240" points="30.3 33.7 29.6 33.3 34.1 30.7 34.8 31.1"/><polygon fill="#21201f" points="34.8 31.1 34.4 35.6 30.8 37.7 30.3 33.7"/><g><path fill="#434240" d="M34.4,29.5l0.7,0.4c-0.1-0.1-0.3-0.1-0.6,0.1l-0.7-0.4C34,29.4,34.2,29.4,34.4,29.5z"/><polygon fill="#2d2c2b" points="29.9 34.1 29.1 33.7 29.1 33.1 29.9 33.6"/><polygon fill="#383736" points="30.6 32.2 29.9 31.8 33.8 29.5 34.5 30"/><path fill="#2d2c2b" d="M29.9,33.6l-0.7-0.4c0-0.5,0.3-1.1,0.8-1.3l0.7,0.4C30.2,32.5,29.9,33.1,29.9,33.6z"/><path fill="#21201f" d="M34.5,30c0.4-0.2,0.8-0.1,0.8,0.4l0,0.6l-5.5,3.2l0-0.6c0-0.5,0.3-1.1,0.8-1.3L34.5,30z"/></g></g></g><g><polygon fill="#e9e8e6" points="23.8 41.2 5.6 30.7 13.5 26.1 31.6 36.7"/></g><g><polygon fill="#c4c2c0" points="31.6 36.7 31.6 41.1 40.4 36 40.4 39.8 49.3 34.7 49.3 36.8 23.8 51.5 23.8 41.2"/></g></g><g><polygon fill="#cc4848" points="46.6 17 47 16.7 47 30 46.5 30.3"/><polygon fill="#f25a5a" points="35 10.3 35.4 10 47 16.7 46.6 17"/><polygon fill="#cc4848" points="37.7 11.8 38.1 11.6 47 16.7 46.6 17"/><polygon fill="#c44141" points="40.4 13.4 40.8 13.2 47 16.7 46.6 17"/><polygon fill="#f25a5a" points="43.1 15 43.5 14.7 47 16.7 46.6 17"/><polygon fill="#dd4a4a" points="46.6 17 46.5 30.3 35 23.6 35 10.3"/></g><g><polygon fill="#e9e8e6" points="38.1 17.2 38.7 16.8 43.5 22.8 42.8 23.2"/><polygon fill="#c4c2c0" points="39.3 18.7 40 18.4 43.5 22.8 42.8 23.2"/><polygon fill="#b2b0af" points="41.8 21.9 42.4 21.6 43.5 22.8 42.8 23.2"/><polygon fill="#fff" points="42.8 23.2 38.1 23.7 38.1 17.2"/></g><g><polygon fill="#383736" points="10.4 31.4 9.6 31 9.1 27 9.9 27.4"/><polygon fill="#434240" points="9.9 27.4 9.1 27 13.6 24.4 14.4 24.8"/><polygon fill="#21201f" points="14.4 24.8 13.9 29.3 10.4 31.4 9.9 27.4"/><path fill="#434240" d="M13.9,23.2l0.7,0.4c-0.1-0.1-0.3-0.1-0.6,0.1l-0.7-0.4C13.6,23.1,13.8,23.1,13.9,23.2z"/><polygon fill="#2d2c2b" points="9.4 27.9 8.7 27.4 8.7 26.9 9.4 27.3"/><polygon fill="#383736" points="10.2 25.9 9.4 25.5 13.3 23.3 14.1 23.7"/><path fill="#2d2c2b" d="M9.4,27.3l-0.7-0.4c0-0.5,0.3-1.1,0.8-1.3l0.7,0.4C9.7,26.2,9.4,26.8,9.4,27.3z"/><path fill="#21201f" d="M14.1,23.7c0.4-0.2,0.8-0.1,0.8,0.4l0,0.6l-5.5,3.2l0-0.6c0-0.5,0.3-1.1,0.8-1.3L14.1,23.7z"/><g><path fill="#0074d1" d="M15.7,25.3l5.4,3.1c-0.1,0-0.2,0-0.3,0l-5.4-3.1C15.5,25.3,15.6,25.3,15.7,25.3z"/><polygon fill="#0074d1" points="17.2 30.6 11.8 27.4 15.4 25.4 20.8 28.5"/><path fill="#0074d1" d="M16.5,30.6l-5.4-3.1c0.2,0.1,0.4,0.1,0.7-0.1l5.4,3.1C16.9,30.7,16.7,30.7,16.5,30.6z"/><path fill="#006cb5" d="M15.9,31.7l-5.4-3.1C10.2,28.4,10,28,10,27.4l5.4,3.1C15.4,31.1,15.6,31.5,15.9,31.7z"/><polygon fill="#006cb5" points="15.4 30.5 10 27.4 10 21.6 15.4 24.7"/><path fill="#006cb5" d="M10.7,20.8l5.4,3.1c-0.1,0-0.2,0-0.3,0l-5.4-3.1C10.5,20.8,10.6,20.8,10.7,20.8z"/><path fill="#006cb5" d="M15.4,24.7L10,21.6c0-0.3,0.2-0.6,0.4-0.8l5.4,3.1C15.6,24.1,15.4,24.5,15.4,24.7z"/><path fill="#005e87" d="M15.8,24c0.2-0.1,0.4,0,0.4,0.3l0,5.8c0,0.3,0.1,0.5,0.3,0.6c0.2,0.1,0.4,0.1,0.7-0.1l3.6-2.1
								c0.2-0.1,0.4,0,0.4,0.3c0,0.3-0.2,0.6-0.4,0.8l-3.6,2.1c-0.5,0.3-1,0.3-1.3,0.1c-0.3-0.2-0.5-0.6-0.5-1.2l0-5.8
								C15.4,24.5,15.6,24.1,15.8,24z"/></g><g><polygon fill="#383736" points="17.2 35.3 16.5 34.9 16 31 16.7 31.4"/><polygon fill="#434240" points="16.7 31.4 16 31 20.5 28.4 21.2 28.8"/><polygon fill="#21201f" points="21.2 28.8 20.7 33.3 17.2 35.3 16.7 31.4"/><g><path fill="#434240" d="M20.7,27.2l0.7,0.4c-0.1-0.1-0.3-0.1-0.6,0.1l-0.7-0.4C20.4,27.1,20.6,27.1,20.7,27.2z"/><polygon fill="#2d2c2b" points="16.2 31.8 15.5 31.4 15.5 30.8 16.2 31.3"/><polygon fill="#383736" points="17 29.9 16.3 29.5 20.2 27.2 20.9 27.7"/><path fill="#2d2c2b" d="M16.2,31.3l-0.7-0.4c0-0.5,0.3-1.1,0.8-1.3l0.7,0.4C16.6,30.2,16.2,30.8,16.2,31.3z"/><path fill="#21201f" d="M20.9,27.7c0.4-0.2,0.8-0.1,0.8,0.4l0,0.6l-5.5,3.2l0-0.6c0-0.5,0.3-1.1,0.8-1.3L20.9,27.7z"/></g></g><g><polygon fill="#383736" points="17.2 35.3 16.4 34.9 16 31 16.7 31.4"/><polygon fill="#434240" points="16.7 31.4 16 31 20.5 28.4 21.2 28.8"/><polygon fill="#21201f" points="21.2 28.8 20.7 33.3 17.2 35.3 16.7 31.4"/><path fill="#434240" d="M20.7,27.2l0.7,0.4c-0.1-0.1-0.3-0.1-0.6,0.1l-0.7-0.4C20.4,27.1,20.6,27.1,20.7,27.2z"/><polygon fill="#2d2c2b" points="16.2 31.8 15.5 31.4 15.5 30.8 16.2 31.3"/><polygon fill="#383736" points="17 29.9 16.3 29.5 20.2 27.2 20.9 27.7"/><path fill="#2d2c2b" d="M16.2,31.3l-0.7-0.4c0-0.5,0.3-1.1,0.8-1.3l0.7,0.4C16.6,30.2,16.2,30.8,16.2,31.3z"/><path fill="#21201f" d="M20.9,27.7c0.4-0.2,0.8-0.1,0.8,0.4l0,0.6l-5.5,3.2l0-0.6c0-0.5,0.3-1.1,0.8-1.3L20.9,27.7z"/><g><path fill="#0074d1" d="M22.5,29.3l5.4,3.1c-0.1,0-0.2,0-0.3,0l-5.4-3.1C22.3,29.3,22.4,29.2,22.5,29.3z"/><polygon fill="#0074d1" points="24 34.5 18.6 31.4 22.2 29.3 27.6 32.5"/><path fill="#0074d1" d="M23.4,34.6L18,31.5c0.2,0.1,0.4,0.1,0.7-0.1l5.4,3.1C23.8,34.7,23.5,34.7,23.4,34.6z"/><path fill="#006cb5" d="M22.7,35.7l-5.4-3.1c-0.3-0.2-0.5-0.6-0.5-1.2l5.4,3.1C22.2,35.1,22.4,35.5,22.7,35.7z"/><polygon fill="#006cb5" points="22.2 34.5 16.8 31.4 16.8 25.6 22.2 28.7"/><path fill="#006cb5" d="M17.5,24.8l5.4,3.1c-0.1,0-0.2,0-0.3,0l-5.4-3.1C17.4,24.7,17.5,24.7,17.5,24.8z"/><path fill="#006cb5" d="M22.2,28.7l-5.4-3.1c0-0.3,0.2-0.6,0.4-0.8l5.4,3.1C22.4,28.1,22.2,28.4,22.2,28.7z"/><path fill="#005e87" d="M22.6,27.9c0.2-0.1,0.4,0,0.4,0.3l0,5.8c0,0.3,0.1,0.5,0.3,0.6c0.2,0.1,0.4,0.1,0.7-0.1l3.6-2.1
								c0.2-0.1,0.4,0,0.4,0.3c0,0.3-0.2,0.6-0.4,0.8L24,35.5c-0.5,0.3-1,0.3-1.3,0.1c-0.3-0.2-0.5-0.6-0.5-1.2l0-5.8
								C22.2,28.4,22.4,28.1,22.6,27.9z"/></g><g><polygon fill="#383736" points="24 39.3 23.3 38.9 22.8 34.9 23.5 35.4"/><polygon fill="#434240" points="23.5 35.4 22.8 34.9 27.3 32.3 28 32.8"/><polygon fill="#21201f" points="28 32.8 27.6 37.3 24 39.3 23.5 35.4"/><g><path fill="#434240" d="M27.6,31.2l0.7,0.4c-0.1-0.1-0.3-0.1-0.6,0.1L27,31.2C27.2,31.1,27.4,31.1,27.6,31.2z"/><polygon fill="#2d2c2b" points="23 35.8 22.3 35.4 22.3 34.8 23 35.2"/><polygon fill="#383736" points="23.8 33.9 23.1 33.5 27 31.2 27.7 31.6"/><path fill="#2d2c2b" d="M23,35.2l-0.7-0.4c0-0.5,0.3-1.1,0.8-1.3l0.7,0.4C23.4,34.1,23,34.7,23,35.2z"/><path fill="#21201f" d="M27.7,31.6c0.4-0.2,0.8-0.1,0.8,0.4l0,0.6L23,35.8l0-0.6c0-0.5,0.3-1.1,0.8-1.3L27.7,31.6z"/></g></g></g></g></svg>