<svg xmlns="http://www.w3.org/2000/svg" viewBox="0 0 52 52"><path fill="#4c5c75" d="M18.83 35.65a.25.25 0 0 1-.125-.468l19.954-11.52-.041-14.748a.25.25 0 1 1 .5-.002l.042 14.894a.25.25 0 0 1-.125.217l-20.08 11.593a.252.252 0 0 1-.125.033z"/><path fill="#dedffb" d="M20.177 36.581v1.27c0 .097-.067.195-.195.275l-8.184 4.721a1.024 1.024 0 0 1-.942 0L8 41.19c-.128-.08-.196-.177-.196-.275v-1.263c0-.098.061-.196.196-.275l8.184-4.728c.263-.153.678-.153.941 0l2.857 1.663c.128.074.195.172.195.27z"/><path fill="#4c5c75" d="m3.719 42.16-1.389-.814c-.177-.104-.287-.324-.287-.642L2 25.95c0-.636.44-1.4.99-1.718l18.533-10.704c.275-.159.526-.171.71-.067l1.345.795c.202.092.33.318.33.655l.037 13.241-20.52 11.841v1.523c0 .312.11.539.294.642z"/><path fill="#9ea9c9" d="M20.177 36.581v1.27c0 .097-.067.195-.195.275l-8.184 4.721a1.024 1.024 0 0 1-.942 0L8 41.19c-.128-.08-.196-.177-.196-.275v-1.27l12.373-3.064z"/><path fill="#c9cee2" d="M8.002 39.375c-.264.152-.265.39-.003.543l2.857 1.66c.263.153.674.153.938 0l8.183-4.724c.264-.152.265-.39.003-.543l-2.857-1.66a1.019 1.019 0 0 0-.939 0l-8.182 4.724z"/><path fill="#4d5c75" d="m17.156 37.175-6.012 3.474-1.071-.624-.03-4.043 1.064.618 6.012-3.468z"/><path fill="#1c2841" d="m11.142 40.647-1.067-.62-.033-4.046 1.067.62z"/><path fill="#798284" d="m11.109 36.601-1.067-.62 6.012-3.471 1.068.62z"/><path fill="#4d5c75" d="m17.122 33.13.033 4.045-6.013 3.472-.033-4.046z"/><path fill="#1d2943" d="m23.944 28.152-20.52 11.84-.043-13.229c0-.636.447-1.406.997-1.718L22.91 14.34c.55-.318.997-.06.997.569l.037 13.242z"/><path fill="#fff" d="M22.67 28.883 4.736 39.233 4.699 26.59c0-.177.096-.347.252-.436l17.305-10.01a.252.252 0 0 1 .377.214l.037 12.526z"/><path fill="#e9e7fc" d="M23.95 29.667c.001.633-.444 1.403-.994 1.721l-18.531 10.7c-.55.317-.999.062-1-.571l.002-1.574 20.518-11.84.004 1.564z"/><path fill="#b0b8cf" d="M14.3 34.969c0 .393-.271.87-.614 1.067-.337.196-.619.04-.619-.352 0-.393.277-.871.614-1.067.343-.192.62-.04.62.352z"/><path fill="#57b3fe" d="m7.619 32.109.012 3.968-1.324.764-.011-3.968z"/><path fill="#f45170" d="m10.028 29.753.014 4.932-1.326.765-.014-4.931z"/><path fill="#ffd06c" d="m12.446 30.613.008 2.679-1.326.766-.008-2.68z"/><path fill="#78e75a" d="m14.849 27.144.014 4.758-1.324.764-.013-4.758z"/><path fill="#dba660" d="m17.263 26.542.011 3.967-1.323.764-.011-3.967z"/><path fill="#57b3fe" d="m19.672 24.185.014 4.932-1.324.764-.014-4.931z"/><path fill="#f45170" d="M7.783 25.136c.667-.385 1.258-.35 1.624.014L7.79 27.44l-.007-2.304z"/><path fill="#ffd06c" d="m7.79 27.44.007 2.303c-1.107.64-2.008.126-2.011-1.145L7.79 27.44z"/><path fill="#b28afd" d="M9.407 25.15c.242.24.386.627.387 1.133.004 1.272-.89 2.821-1.997 3.46L7.79 27.44l1.617-2.29z"/><path fill="#78e75a" d="m7.783 25.136.007 2.304-2.004 1.158c-.004-1.272.89-2.822 1.997-3.462z"/><path fill="#c9cee2" d="m19.574 19.559-9.025 5.211.001.45 9.024-5.21zM15.779 24.379l.001.451-5.224 3.016-.001-.451zM19.574 20.874l-9.022 5.209.001.45 9.021-5.208z"/><path fill="#4c5c75" d="M25.238 48.214a.245.245 0 0 1-.13-.036l-8.864-5.331a.249.249 0 0 1 .005-.431l25.574-14.719-.084-15.494a.25.25 0 0 1 .249-.251h.001a.25.25 0 0 1 .25.249l.085 15.64a.25.25 0 0 1-.126.217l-25.332 14.58 8.374 5.036 5.932-3.439a.249.249 0 0 1 .342.091c.069.12.028.272-.091.34l-6.06 3.514a.242.242 0 0 1-.125.034z"/><path fill="#b0b8cf" d="m38.39 18.677.006 2.162c0 .076.05.152.15.21.201.117.53.116.733-.002.1-.058.151-.135.151-.211l-.006-2.162c0 .077-.05.153-.152.212a.808.808 0 0 1-.733 0c-.1-.057-.15-.133-.15-.21z"/><path fill="#4c5c75" d="m38.053 16.83.01 2.379c0 .125.083.25.247.345.332.193.872.192 1.207-.002.166-.096.25-.222.25-.348l-.01-2.378c0 .126-.084.252-.25.348-.335.193-.875.195-1.207.002-.165-.095-.246-.22-.247-.345z"/><path fill="#b0b8cf" d="m41.379 17.446.006 2.162c0 .076.05.151.15.21.201.117.53.116.733-.002.1-.058.152-.135.151-.211l-.006-2.162c0 .076-.05.153-.151.211a.808.808 0 0 1-.734.002c-.1-.058-.15-.134-.15-.21z"/><path fill="#4c5c75" d="m41.042 15.6.01 2.378c0 .125.083.25.247.345.332.193.873.191 1.207-.002.167-.096.25-.222.25-.348l-.01-2.378c0 .126-.083.252-.25.348-.334.193-.875.195-1.207.002-.164-.095-.246-.22-.247-.345z"/><path fill="#5094ff" d="m45.956 4.411 3.072 1.786c-.363-.211-.81-.278-1.31-.186l-3.073-1.786c.5-.092.947-.025 1.31.186z"/><path fill="#566df9" d="m44.729 2.611 2.003 1.165c-.608-.354-1.448-.307-2.37.226a3.243 3.243 0 0 0-.385.26l-2.003-1.164c.123-.096.25-.183.384-.26.923-.533 1.763-.58 2.37-.227z"/><path fill="#678aee" d="M43.168 3.159c-.584-.34-1.395-.288-2.284.227-1.387.793-2.573 2.494-3.017 4.15l-2-1.166c.445-1.656 1.63-3.348 3.017-4.15.89-.515 2.036-.355 2.62-.015l1.664.954zM31.835 21.518l-2.003-1.164c-.596-.347-.966-1.083-.97-2.131-.005-2.047 1.387-4.53 3.135-5.635L34 13.752c-1.748 1.105-3.14 3.588-3.134 5.635.003 1.048.373 1.784.97 2.13z"/><path fill="#566df9" d="m34 13.752-2.003-1.164c-.006-.125-.017-.253-.018-.394-.005-2.028 1.415-4.488 3.174-5.504.25-.145.485-.248.713-.315l2.003 1.164c-.228.067-.462.17-.713.315-1.759 1.016-3.18 3.476-3.174 5.504 0 .141.012.269.018.394z"/><path fill="#8fabfe" d="M40.885 3.382c1.459-.842 2.698-.43 3.092.88.123-.096.25-.183.384-.26 1.843-1.064 3.351-.192 3.357 1.939v.07c1.321-.244 2.277.627 2.282 2.328.006 2.112-1.481 4.68-3.313 5.738L34.2 21.287c-1.832 1.057-3.328.21-3.334-1.9-.006-2.047 1.386-4.53 3.134-5.635-.006-.125-.017-.253-.018-.394-.005-2.028 1.415-4.488 3.174-5.504.25-.144.485-.248.713-.315.442-1.658 1.63-3.357 3.016-4.157z"/><path fill="#4c5c75" d="M40.876 50.11c-.216 0-.432-.05-.604-.148L28.266 43.03c-.207-.12-.326-.3-.326-.496 0-.194.117-.374.32-.492l7.602-4.417a.25.25 0 0 1 .25-.001L49.08 45.11a.25.25 0 0 1 0 .433l-7.6 4.418c-.172.1-.388.15-.604.15zm-12.437-7.572c.003 0 .023.027.077.06l12.005 6.93a.81.81 0 0 0 .708 0l7.228-4.2-12.47-7.198-7.475 4.343c-.052.03-.07.058-.073.065zm7.714-16.1L48.96 43.025l1.016-.587.024-8.789c0-.31-.215-.68-.477-.835l-12.008-6.928c-.132-.072-.263-.084-.346-.036l-1.016.588z"/><path fill="#1d2943" d="m35.99 35.54 12.966 7.487.025-8.792c.001-.304-.213-.675-.478-.828l-12.007-6.933c-.266-.153-.481-.03-.482.275l-.025 8.791z"/><path fill="#fff" d="m36.211 35.412 12.528 7.232.019-8.411c.006-.223-.166-.523-.363-.637l-1.46-.841-10.552-6.092c-.057-.032-.089-.032-.101-.032-.045 0-.045.108-.045.115l-.026 8.666z"/><path fill="#c9cee2" d="m48.956 43.027.003 1.108-7.6 4.417c-.265.154-.692.154-.958 0l-12.006-6.931c-.134-.077-.201-.18-.201-.28l-.003-1.105c0 .1 20.765 2.791 20.765 2.791z"/><path fill="#f3f1fc" d="m48.955 43.027-7.601 4.417c-.264.153-.692.153-.957 0L28.39 40.512c-.267-.154-.268-.402-.005-.555l7.601-4.417 12.968 7.487z"/><path fill="#c9cee2" d="m38.941 43.439-3.686-2.14a.465.465 0 0 0-.466 0l-1.703.983a.228.228 0 0 0-.105.131.231.231 0 0 1 .105-.27l1.703-.984a.465.465 0 0 1 .466 0l3.686 2.14c.1.059.135.173.105.27a.228.228 0 0 0-.105-.13z"/><path fill="#fff" d="m38.94 43.701-1.702.984a.465.465 0 0 1-.466-.001l-3.687-2.14a.228.228 0 0 1-.104-.13.228.228 0 0 1 .105-.132l1.703-.983a.465.465 0 0 1 .466 0l3.686 2.14a.228.228 0 0 1 .105.13.228.228 0 0 1-.105.132z"/><path fill="#4c5c75" d="M39.464 40.79c.037.021.037.056 0 .077l-.707.41a.145.145 0 0 1-.132 0l-.712-.41c-.036-.021-.037-.056 0-.077l.707-.41a.145.145 0 0 1 .132 0l.712.41zm4.661 4.008c.037.02.037.055 0 .076l-.707.411a.145.145 0 0 1-.132 0l-.712-.41c-.036-.022-.037-.056 0-.077l.707-.411a.145.145 0 0 1 .132 0l.712.41zm-1.16-.67c.037.021.037.056.001.077l-.707.41a.145.145 0 0 1-.132 0l-.712-.41c-.037-.021-.037-.056 0-.077l.707-.41a.145.145 0 0 1 .132 0l.712.41zm-1.159-.67c.037.022.037.056 0 .077l-.707.411a.145.145 0 0 1-.132 0l-6.51-3.758c-.036-.02-.036-.055 0-.076l.708-.411a.145.145 0 0 1 .132 0l6.51 3.758zm-1.182-1.998c.036.02.036.055 0 .076l-.707.411a.145.145 0 0 1-.132 0l-.712-.41c-.037-.022-.037-.056 0-.077l.707-.411a.145.145 0 0 1 .132 0l.712.41zm1.159.67c.037.02.037.054 0 .076l-.707.41a.145.145 0 0 1-.132 0l-.712-.41c-.037-.022-.037-.056 0-.077l.707-.411a.145.145 0 0 1 .132 0l.712.411zm1.136-.661c.037.021.037.055 0 .076l-.707.411a.145.145 0 0 1-.132 0l-.712-.41c-.036-.022-.036-.056 0-.077l.707-.411a.145.145 0 0 1 .132 0l.712.41zm1.16.67c.036.02.036.055 0 .076l-.707.41a.145.145 0 0 1-.132 0l-.712-.41c-.037-.021-.037-.056 0-.077l.707-.41a.145.145 0 0 1 .132 0l.712.41zm3.455.678c.037.02.037.055 0 .076l-.707.411a.145.145 0 0 1-.132 0l-.712-.41c-.037-.022-.037-.056 0-.077l.707-.411a.145.145 0 0 1 .132 0l.712.41zm-1.136.66c.036.021.036.055 0 .076l-.707.412a.145.145 0 0 1-.132 0l-1.872-1.08c-.036-.022-.037-.056 0-.077l.707-.411a.145.145 0 0 1 .132 0l1.872 1.08zm-1.136.66c.036.021.036.056 0 .077l-.708.41a.145.145 0 0 1-.131 0l-3.032-1.75c-.036-.02-.036-.054 0-.075l.707-.412a.145.145 0 0 1 .132 0l3.032 1.75zm1.113-1.99c.036.021.036.056 0 .077l-.708.41a.145.145 0 0 1-.131 0l-.712-.41c-.037-.021-.037-.056-.001-.077l.707-.41a.145.145 0 0 1 .132 0l.713.41zm-1.16-.67c.037.022.037.056 0 .077l-.707.411a.145.145 0 0 1-.132 0l-.712-.41c-.037-.022-.037-.056 0-.077l.707-.411a.145.145 0 0 1 .132 0l.712.41zm-1.16-.668c.037.02.037.055 0 .076l-.706.411a.145.145 0 0 1-.132 0l-.712-.411c-.037-.021-.037-.055 0-.076l.706-.412a.145.145 0 0 1 .132 0l.713.412zm-2.295-.01c.036.022.037.056 0 .077l-.707.411a.145.145 0 0 1-.132 0l-.712-.411c-.037-.021-.037-.055 0-.077l.707-.41a.145.145 0 0 1 .132 0l.712.41zm1.136-.66c.037.021.037.055 0 .077l-.707.41a.145.145 0 0 1-.132 0l-.712-.41c-.036-.022-.037-.056 0-.077l.707-.411a.145.145 0 0 1 .132 0l.712.411zm-5.75-.688c.036.022.036.056 0 .077l-.708.411a.145.145 0 0 1-.132 0l-.712-.411c-.036-.021-.037-.055 0-.077l.707-.41a.145.145 0 0 1 .132 0l.712.41zm1.159.67c.036.02.037.055 0 .076l-.707.411a.145.145 0 0 1-.132 0l-.712-.41c-.037-.022-.037-.056 0-.077l.707-.411a.145.145 0 0 1 .132 0l.712.41zM39.418 38.13c.036.022.036.056 0 .077l-.707.411a.145.145 0 0 1-.132 0l-.712-.41c-.037-.022-.037-.056 0-.077l.707-.411a.145.145 0 0 1 .132 0l.712.41zm-1.137.661c.037.021.037.055 0 .077l-.707.41a.145.145 0 0 1-.132 0l-.712-.41c-.036-.021-.036-.056 0-.077l.707-.411a.145.145 0 0 1 .132 0l.712.411zm2.296.01c.037.02.037.055 0 .076l-.707.41a.145.145 0 0 1-.132 0l-.712-.41c-.036-.021-.037-.056 0-.077l.707-.41a.145.145 0 0 1 .132 0l.712.41zm-1.136.66c.036.02.037.055 0 .076l-.707.411a.146.146 0 0 1-.132 0l-.712-.411c-.037-.021-.037-.055 0-.076l.707-.412a.145.145 0 0 1 .132 0l.712.412zm2.296.009c.036.02.037.055 0 .076l-.707.411a.145.145 0 0 1-.132 0l-.712-.41c-.037-.022-.037-.056 0-.077l.707-.411a.145.145 0 0 1 .132 0l.712.41zm-1.137.66c.037.021.037.055 0 .076l-.707.412a.145.145 0 0 1-.132 0l-.712-.412c-.036-.02-.036-.055 0-.076l.707-.411a.145.145 0 0 1 .132 0l.712.411zM34.85 39.442c.036.022.036.056 0 .077l-.707.41a.145.145 0 0 1-.132.001l-.712-.411c-.037-.021-.037-.056 0-.077l.707-.41a.145.145 0 0 1 .131 0l.713.41zM37.099 36.792c.036.021.037.055 0 .076l-.707.412a.145.145 0 0 1-.132 0l-.712-.412c-.037-.02-.037-.055 0-.076l.707-.411a.145.145 0 0 1 .132 0l.712.411zm1.16.67c.036.02.036.055 0 .076l-.708.411a.145.145 0 0 1-.132 0l-.712-.411c-.036-.021-.037-.055 0-.077l.707-.41a.145.145 0 0 1 .132 0l.712.41zm-1.137.66c.037.02.037.055 0 .076l-.707.411a.145.145 0 0 1-.132 0l-1.093-.63-1.07.621a.145.145 0 0 1-.133 0l-.712-.411c-.036-.021-.037-.055 0-.076l1.843-1.072a.145.145 0 0 1 .132 0l1.872 1.08z"/><path fill="#4c5c75" d="M35.986 38.782c.036.021.037.055 0 .076l-.707.412a.145.145 0 0 1-.132 0l-.712-.412c-.037-.02-.037-.055 0-.076l.707-.411a.145.145 0 0 1 .132 0l.712.411zm-2.296-.009c.037.021.037.055 0 .076l-.707.411a.145.145 0 0 1-.132 0l-.712-.41c-.037-.022-.037-.056 0-.077l.707-.411a.145.145 0 0 1 .132 0l.712.411z"/><path fill="#c9cee2" d="m42.872 36.372-6.129-4.359.053-4.481 6.056 3.524z"/><path fill="#fff" d="m42.19 30.754-.002.675.587.339.002-.676zM37.42 33.288l.002-.676-.588-.339-.002.675zM37.502 32.658l-.002.676.588.339.002-.675zM37.422 32.521l.002-.676-.588-.339-.002.675z"/><path fill="#fff" d="m36.834 32.181.588.34.002-.676-.588-.339zM38.092 32.231l-.588-.34-.002.676.588.339z"/><path fill="#fff" d="m37.504 31.891-.002.676.588.339.002-.675zM38.84 32.663l-.002.675.587.339.002-.676zM38.761 31.849l-.586-.339-.002.674.587.339z"/><path fill="#fff" d="m38.175 31.51-.002.674.587.339.001-.674zM37.508 30.357l-.002.674.588.34.002-.674zM36.841 29.879l.588.339.002-.675-.588-.34zM40.173 34.2l-.002.676.588.34.002-.676zM38.842 31.896l-.002.674.587.338.002-.674zM38.177 30.743l-.002.674.587.339.002-.674z"/><path fill="#fff" d="m38.764 31.082-.587-.339-.002.674.587.339zM37.51 29.588l-.002.676.588.34.002-.676zM37.431 29.451l.002-.675-.588-.34-.002.676zM40.763 33.773l-.588-.34-.002.676.588.34zM39.51 32.281l-.002.674.588.34.002-.674z"/><path fill="#fff" d="m40.098 32.621-.588-.34-.002.674.588.34zM38.845 31.129l-.002.674.586.338.002-.674zM40.177 32.666l-.002.674.588.34.002-.674zM40.1 31.854l-.588-.34-.002.674.588.34z"/><path fill="#fff" d="m39.512 31.514-.002.674.588.34.002-.674zM38.847 30.36l-.002.676.586.338.002-.675zM38.181 29.208l-.001.675.586.339.002-.676zM37.515 28.054l-.002.676.588.34.002-.676zM42.177 35.357l-.002.676.587.339.002-.676zM42.098 34.544l-.586-.339-.002.676.586.338z"/><path fill="#fff" d="m41.512 34.205-.002.676.586.338.002-.675zM40.18 31.899l-.002.674.588.34.002-.674zM39.514 30.745l-.002.676.588.34.002-.676zM38.849 29.593l-.002.676.587.338.002-.675zM42.1 33.777l-.586-.339-.002.674.586.339z"/><path fill="#fff" d="m41.514 33.438-.002.674.586.339.002-.674zM39.516 29.978l-.002.676.589.34.001-.676z"/><path fill="#fff" d="m40.104 30.318-.588-.34-.002.676.589.34zM42.181 33.823l-.002.674.587.339.002-.674zM41.516 32.671l-.002.674.587.339.002-.674z"/><path fill="#fff" d="m42.103 33.01-.587-.339-.002.674.587.339zM40.849 31.516l-.002.676.588.339.002-.675z"/><path fill="#fff" d="m41.437 31.856-.588-.34-.002.676.588.339zM40.772 30.703l-.588-.339-.002.675.588.34zM39.519 29.211l-.002.676.588.34.002-.676z"/><path fill="#57b3fe" d="m43.396 36.671-.001.447.977.564v-.447z"/><path fill="#fff" d="m42.77 33.395-.587-.339-.001.674.586.339z"/><path fill="#fff" d="m42.183 33.056-.001.674.586.339.002-.674zM41.518 31.902l-.002.676.587.339.002-.676zM40.851 30.749l-.002.676.588.339.002-.675zM40.186 29.597l-.002.675.588.34.002-.676zM42.772 32.626l-.586-.338-.002.675.586.339zM42.107 31.474l-.587-.339-.002.676.587.339zM40.854 29.982l-.002.676.588.339.002-.675zM42.188 31.521l-.002.675.586.339.002-.676zM41.522 30.368l-.001.676.586.339.002-.676z"/><path fill="#e3e7f0" d="m46.112 40.352-.001.203 2.336 1.349.001-.203z"/><path fill="#fff" d="m38.171 33.044-.002.676.586.339.002-.676zM37.425 31.752l.002-.674-.589-.339-.001.674z"/><path fill="#fff" d="m36.837 31.413.588.339.002-.674-.589-.339zM38.838 33.43l-.002.675.587.339.002-.676zM38.759 32.616l-.586-.339-.002.676.586.339z"/><path fill="#fff" d="m38.173 32.277-.002.676.586.339.002-.676zM37.506 31.124l-.002.674.588.34.002-.674z"/><path fill="#fff" d="m38.094 31.464-.588-.34-.002.674.588.34zM36.839 30.646l.588.339.002-.674-.588-.339z"/><path fill="#fff" d="m37.427 30.985.002-.674-.588-.339-.002.674zM39.506 33.815l-.002.676.588.339.002-.675zM39.427 33.001l-.587-.338-.002.675.587.339zM38.096 30.697l-.588-.34-.002.674.588.34zM37.429 30.218l.002-.675-.588-.34-.002.676zM40.096 33.388l-.588-.34-.002.676.588.339z"/><path fill="#fff" d="m39.508 33.048-.002.676.588.339.002-.675zM39.429 32.234l-.587-.338-.002.674.587.338zM36.843 29.112l.588.339.002-.675-.588-.34zM40.841 34.586l-.002.675.588.34.002-.676zM40.175 33.433l-.002.676.588.34.002-.676zM39.431 31.467l-.586-.338-.002.674.586.338zM38.179 29.975l-.002.675.587.339.002-.676zM37.513 28.821l-.002.676.588.34.002-.676z"/><path fill="#fff" d="m38.101 29.161-.588-.34-.002.676.588.34zM37.433 28.684l.002-.675-.588-.34-.002.676zM41.509 34.972l-.001.676.586.338.002-.675zM40.843 33.819l-.002.675.588.34.002-.676zM40.765 33.006l-.588-.34-.002.674.588.34zM39.433 30.699l-.586-.339-.002.676.586.338zM38.768 29.546l-.587-.338-.001.675.586.339zM40.845 33.052l-.002.674.588.339.002-.674z"/><path fill="#fff" d="m41.433 33.391-.588-.339-.002.674.588.339zM40.768 32.239l-.588-.34-.002.674.588.34zM40.102 31.085l-.588-.34-.002.676.588.34zM39.436 29.932l-.587-.339-.002.676.587.338zM38.184 28.441l-.002.675.586.339.002-.676zM42.766 34.929l-.587-.339-.002.676.587.339z"/><path fill="#fff" d="m42.179 34.59-.002.676.587.339.002-.676zM41.435 32.624l-.588-.339-.002.674.588.339z"/><path fill="#fff" d="m40.847 32.285-.002.674.588.339.002-.674zM40.77 31.47l-.588-.339-.002.675.588.34z"/><path fill="#fff" d="m40.182 31.131-.002.675.588.34.002-.676zM38.851 28.826l-.002.676.587.338.002-.675zM42.768 34.162l-.587-.339-.002.674.587.339zM40.184 30.364l-.002.675.588.34.002-.676zM42.105 32.241l-.587-.339-.002.676.587.339zM41.439 31.089l-.588-.34-.002.676.588.339zM42.186 32.288l-.002.675.586.339.002-.676zM41.52 31.135l-.002.676.587.339.002-.676zM42.774 31.859l-.586-.338-.002.675.586.339zM38.098 29.928l-.588-.34-.002.676.588.34zM38.766 30.313l-.587-.338-.002.675.587.339zM41.431 34.158l-.588-.339-.002.675.588.34z"/><path fill="#e3e7f0" d="m46.113 39.833-.001.202 2.337 1.349v-.203z"/><path fill="#c5d3e0" d="M45.753 36.05a2.226 2.226 0 0 1-.728-1.261l-.882-.51c.099 1.027.765 2.181 1.607 2.785l.003-1.015z"/><path fill="#78e75a" d="m47.477 39.027-.001.447.977.564.001-.447z"/><path fill="#ffd06c" d="M45.035 34.298c.083-.368.367-.534.733-.417l.003-1.013c-.844-.37-1.514.01-1.619.92l.883.51z"/><path fill="#f3516f" d="M47.811 35.888c-.099-1.028-.765-2.18-1.607-2.784l-.003 1.013c.365.306.648.798.728 1.26l.882.51z"/><path fill="#ffd06c" d="m46.116 38.241-.001.447.977.564.001-.447z"/><path fill="#b28afd" d="M46.927 35.887c-.082.37-.366.533-.732.417l-.003 1.015c.843.37 1.513-.013 1.618-.923l-.883-.51z"/><path fill="#e3e7f0" d="m43.351 38.758-.001.203 2.336 1.349.001-.203zM43.352 38.239l-.001.202 2.337 1.349v-.203zM43.354 37.719l-.001.203 2.336 1.348.001-.202z"/><path fill="#f45170" d="m44.757 37.456-.001.447.977.564v-.447z"/><path fill="#e3e7f0" d="M46.114 39.313v.203l2.336 1.348.001-.202zM36.679 34.999l6.151 3.606.011-2.171-1.33-2.229-.663.894-1.303-2.024-.994.189-1.824-2.613z"/><path fill="#9ea9c9" d="m42.793 36.461.099-.059-1.377-2.299-.664.893-1.277-1.987-.998.193-1.77-2.54-.094.065 1.813 2.602.994-.193 1.325 2.062.661-.889z"/><path fill="#678aee" d="M36.786 30.426c-.15-.087-.27-.017-.27.156s.118.381.269.468c.152.088.272.018.272-.155a.592.592 0 0 0-.27-.47z"/><path fill="#ffd06c" d="M38.5 32.975c-.151-.087-.271-.016-.271.157s.118.38.269.468c.152.088.272.017.272-.156a.592.592 0 0 0-.27-.469z"/><path fill="#e93565" d="M39.504 32.727c-.151-.087-.27-.016-.271.157 0 .173.118.38.269.468.152.088.272.017.272-.156a.592.592 0 0 0-.27-.469z"/><path fill="#678aee" d="M40.568 34.879a.585.585 0 0 0 .27.467c.151.088.27.019.272-.154a.595.595 0 0 0-.272-.47c-.15-.087-.27-.016-.27.157z"/><path fill="#5ec363" d="M41.54 33.892c-.15-.087-.27-.016-.271.157 0 .173.118.381.269.468.152.088.272.018.272-.155a.592.592 0 0 0-.27-.47z"/><path fill="#e93565" d="M42.817 35.995c-.15-.087-.27-.016-.271.157 0 .173.118.38.269.468.152.088.272.017.273-.156a.592.592 0 0 0-.271-.469z"/><path fill="#e3e7f0" d="M45.412 34.9c0 .312.218.678.483.833.264.156.482.031.482-.272 0-.311-.21-.685-.482-.84-.265-.148-.483-.024-.483.28z"/><path fill="#4c5c75" d="M43.884 36.435a.132.132 0 0 0 .066-.018l1.878-1.045a.132.132 0 0 0-.132-.23l-1.878 1.046a.132.132 0 0 0 .066.247z"/><path fill="#4c5c75" d="m43.195 36.336.243.247-.241.527.999-.577.241-.527-.243-.247z"/></svg>