<svg xmlns="http://www.w3.org/2000/svg" viewBox="0 0 135 135"><path fill="#fff" d="M66.252 25.336c.086-.049.154-.014.154.085a.33.33 0 0 1-.153.262l-1.698.98c-.086.05-.154.014-.155-.084a.33.33 0 0 1 .154-.262l1.698-.98zm2.397-2.371c.038-.023.077-.028.106-.011.062.035.062.145 0 .247l-.746 1.295.752.428c.061.032.062.142 0 .248a.321.321 0 0 1-.106.112c-.037.022-.078.026-.106.01l-.752-.428-.747 1.294a.336.336 0 0 1-.11.115.116.116 0 0 1-.106.01c-.058-.037-.059-.148 0-.248l.747-1.294-.752-.429c-.059-.033-.06-.143-.001-.248a.305.305 0 0 1 .106-.111c.04-.023.079-.029.11-.013l.752.428.747-1.294a.305.305 0 0 1 .106-.111zm-5.138 3.17c.082-.048.151-.008.151.09l.005 1.558a.336.336 0 0 1-.15.263l-1.36.785c-.082.048-.15.008-.15-.09l-.005-1.558c0-.098.068-.216.15-.264l1.36-.784zm-.15 1.65-.003-1.211-1.05.607.003 1.211 1.05-.607"/><path fill="#dedffb" d="m82.675 74.979-76.64 44.34-2.04-1.2-.12-64.32 2.04 1.2 76.64-44.33z"/><path fill="#dedffb" d="m6.038 119.314-2.046-1.194-.121-64.317 2.046 1.194z"/><path fill="#f3f1fc" d="m82.557 10.666.121 64.317-76.64 44.331-.121-64.317z"/><path fill="#fff" d="M7.511 55.915 80.973 13.42l.111 60.645-73.462 42.496z"/><path fill="#f9a83d" d="m82.555 10.669-76.64 44.33-2.04-1.2-.02-5.97 76.64-44.33 2.04 1.2z"/><path fill="#ef7b56" d="m5.917 54.997-2.046-1.194-.018-5.971 2.045 1.195z"/><path fill="#f9a83d" d="m5.898 49.027-2.045-1.195L80.494 3.501l2.045 1.194z"/><path fill="#ffd06c" d="m82.539 4.695.018 5.971-76.64 44.331-.019-5.97z"/><path fill="#fff" d="M8.227 49.761c.527-.304.95-.063.952.543.002.595-.418 1.334-.945 1.639-.518.299-.932.041-.934-.554-.002-.606.41-1.329.927-1.628zm3.048-1.76c.527-.305.95-.064.952.542.002.595-.418 1.334-.945 1.639-.518.299-.941.047-.943-.548-.002-.606.418-1.334.936-1.633zm3.048-1.761c.518-.3.95-.064.952.542.002.595-.428 1.34-.945 1.639-.527.304-.941.047-.943-.548-.002-.606.409-1.329.936-1.633z"/><path fill="#f45170" d="m19.356 52.88.011 3.891-9.031 5.214-.011-3.892z"/><path fill="#dba660" d="m69.906 23.694.011 3.892-6.245 3.606-.011-3.892z"/><path fill="#9ea9c9" d="m78.259 18.872.011 3.891-6.245 3.606-.011-3.892z"/><path fill="#78e75a" d="m61.234 28.701.011 3.892-39.471 22.788-.011-3.891z"/><path fill="#f3f1fc" d="m46.818 72.085 25.156-14.523.04 14.116c.002.818-.574 1.816-1.286 2.227L48.153 86.939c-.713.411-1.292.08-1.295-.738l-.04-14.116zM69.915 62.03l-.004-1.298-21.204 12.242.004 1.299 21.204-12.243m-21.2 14.157.005 1.298 14.27-8.239-.004-1.298-14.27 8.239m14.701-.654-.467-1.363 1.202-1.697-1.488.859-.463-1.36-.456 1.89-1.49.861 1.207.307-.452 1.893 1.2-1.702 1.207.312m5.555-3.207-.467-1.363 1.202-1.697-1.49.86-.462-1.361-.458 1.892-1.488.859 1.208.307-.452 1.893 1.2-1.702 1.207.312m-11.11 6.414-.465-1.364 1.2-1.696-1.488.86-.461-1.362-.458 1.892-1.489.859 1.206.308-.452 1.893 1.202-1.703 1.206.313m-5.553 3.206-.467-1.363 1.2-1.696-1.49.86-.46-1.362-.458 1.892-1.489.86 1.208.306-.454 1.894 1.202-1.703 1.208.312"/><path fill="#f9a83d" d="m67.755 68.764.461 1.361 1.491-.86-1.202 1.697.467 1.363-1.207-.312-1.2 1.702.452-1.893-1.208-.307 1.488-.859zM62.201 71.971l.463 1.36 1.488-.859-1.202 1.697.467 1.363-1.207-.312-1.2 1.702.452-1.893-1.208-.307 1.491-.86zM56.648 75.177l.461 1.361 1.488-.859-1.2 1.696.466 1.364-1.206-.313-1.202 1.703.452-1.893-1.206-.308 1.489-.859zM51.093 78.384l.461 1.361 1.488-.859-1.199 1.696.467 1.363-1.208-.312-1.202 1.703.454-1.894-1.208-.307 1.489-.859z"/><path fill="#9ea9c9" d="m62.986 67.947.004 1.298-14.27 8.239-.004-1.298zM69.911 60.731l.004 1.298-21.204 12.243-.004-1.299z"/><path fill="#f3f1fc" d="M70.614 33.784c.713-.411 1.292-.08 1.295.738l.065 23.04-25.156 14.523.04 14.116c.003.819.582 1.15 1.295.738l22.575-13.034c.712-.411 1.288-1.409 1.286-2.227.002.818-.574 1.816-1.286 2.227L48.153 86.939c-.713.411-1.292.08-1.295-.738l-.105-37.156c-.002-.818.574-1.816 1.286-2.227l22.575-13.034z"/><path fill="#e93565" d="M65.31 57.127c-.65.588-1.089 2.265-1.74 2.79-.05.038-.087.076-.137.101-.313.175-.651.138-1.002.1-.338-.037-.688-.075-1.001.1-.013.013-.025.025-.05.038-.676.475-1.29 2.128-1.978 2.516-.676.4-1.314-.539-1.977-.226-.025.013-.05.013-.075.025-.313.188-.651.626-1.002 1.064-.325.426-.663.851-.976 1.027a.588.588 0 0 1-.125.062c-.663.238-1.127-.913-1.79-.763.038-.388.663-7.76 3.968-12.204l.838-.488c-.413.989.388-.038.413-.088a.49.49 0 0 0 .038-.162l.476-.276c-.088.526.388-.15.4-.187v-.05l.413-.238c0 .05.013.087.038.125.025.025 2.328 2.416 1.64 8.26-.026.138.05.214.162.163a.453.453 0 0 0 .225-.325c.651-5.47-1.189-7.985-1.627-8.474l.814-.475c3.317.626 4.018 7.234 4.055 7.585z"/><path fill="#e3e7f0" d="M58.72 51.014a.395.395 0 0 1-.042.162c-.024.05-2.3 5.098-1.58 10.119a.429.429 0 0 1-.168.363l-.031.018c-.096.056-.184.024-.2-.077-.674-4.713 1.15-9.341 1.57-10.325l.45-.26z"/><path fill="#df3260" d="M61.198 47.955c.384-.222.704-.048.706.402 0 .45-.318 1.001-.701 1.223l-.756.436-.445.257-.41.236-.404.234-.469.27-.45.26-.71.41c-.392.227-.705.04-.706-.41-.001-.45.31-.988.701-1.215l3.644-2.103z"/><path fill="#e3e7f0" d="M60.447 50.016c.429.495 2.273 3.004 1.621 8.473a.427.427 0 0 1-.199.318l-.024.013c-.112.047-.192-.027-.168-.169.687-5.842-1.617-8.237-1.633-8.264a.155.155 0 0 1-.042-.114l.445-.257z"/><path fill="#f45170" d="m61.886 42.158 1.352-.118c-.041.215-.828 4.313-1.76 5.753l-.28.162-3.644 2.103-.248.143c-.094-.067-1.885-1.34-1.731-3.737l1.26-1.39c.914.425 1.793.394 2.635-.093.842-.486 1.648-1.427 2.416-2.823z"/><path fill="#e3e7f0" d="M59.593 50.51a.32.32 0 0 1-.004.048c-.008.041-.708 4.465-.455 6.37.017.11-.063.275-.175.358l-.024.014c-.104.06-.192.028-.2-.087-.25-1.884.37-5.945.453-6.47l.405-.234z"/><path fill="#f9a83d" d="m37.493 86.236.463 1.36 1.488-.859-1.202 1.698.468 1.362-1.208-.312-1.2 1.702.452-1.893-1.208-.307 1.491-.86z"/><path fill="#9ea9c9" d="m39.648 78.203.004 1.299-21.204 12.242-.004-1.299z"/><path fill="#f3f1fc" d="m16.558 89.556 25.155-14.523.04 14.116c.003.818-.573 1.816-1.285 2.227L17.89 104.411c-.712.411-1.29.08-1.292-.739l-.04-14.116zm23.094-10.054-.004-1.299-21.204 12.242.004 1.3 21.204-12.243M18.453 93.658l.004 1.298 14.27-8.238-.004-1.299-14.27 8.239m3.594 5.759-.467-1.362 1.202-1.698-1.49.86-.462-1.36-.458 1.891-1.488.86 1.207.306-.451 1.893 1.2-1.702 1.207.312m16.663-9.62-.468-1.362 1.202-1.698-1.488.86-.463-1.36-.456 1.89-1.49.86 1.207.307-.452 1.893 1.2-1.702 1.208.312m-5.555 3.207-.466-1.364 1.2-1.696-1.488.86-.461-1.362-.458 1.892-1.489.86 1.206.307-.452 1.893 1.202-1.703 1.206.313m-5.553 3.206-.467-1.363 1.2-1.696-1.489.86-.46-1.362-.459 1.892-1.488.86 1.207.306-.454 1.894 1.202-1.703 1.208.312"/><path fill="#f9a83d" d="m31.94 89.442.461 1.361 1.488-.859-1.2 1.696.466 1.364-1.206-.313-1.202 1.703.452-1.893-1.206-.308 1.489-.859zM26.385 92.649l.461 1.361 1.488-.859-1.199 1.696.467 1.363-1.208-.312-1.202 1.703.454-1.894-1.207-.307 1.488-.859zM20.83 95.856l.461 1.361 1.491-.86-1.202 1.698.467 1.362-1.208-.312-1.199 1.702.451-1.893-1.207-.307 1.488-.859z"/><path fill="#9ea9c9" d="m32.723 85.419.004 1.299-14.27 8.238-.004-1.298z"/><path fill="#f3f1fc" d="M40.354 51.255c.712-.411 1.292-.08 1.294.738l.065 23.04-25.155 14.523.04 14.116c.002.819.58 1.15 1.292.74l22.578-13.036c.712-.411 1.288-1.409 1.285-2.227.003.818-.573 1.816-1.285 2.227L17.89 104.411c-.712.411-1.29.08-1.292-.739l-.106-37.156c-.002-.818.572-1.814 1.284-2.226l22.578-13.035z"/><path fill="#7e5af2" d="m34.321 74.883.005 1.736-10.386 5.996.034-.228-.004-1.529z"/><path fill="#b28afd" d="m34.304 59.275 4.19 1.565-2.45 4.245-1.754-.92.03 10.718-10.35 5.975.004 1.53-.034-12.182-1.722 2.83-2.467-1.35 4.307-6.52c1.062-1.596 2.137-1.88 2.722-2.284-.017 1.673 1.15 1.95 2.344 1.26 1.102-.636 2.226-2.094 2.462-4.035.918-.53 1.797-1.166 2.718-.832z"/><path fill="#fff" d="M77.84 10.264c.098-.057.177-.016.177.097a.379.379 0 0 1-.176.3l-1.951 1.127c-.098.057-.177.016-.178-.097 0-.113.079-.244.177-.3l1.95-1.127zm2.875-2.738c.071.04.072.167.001.285l-.858 1.487.864.492c.07.036.071.163 0 .285-.049.085-.158.19-.243.14l-.864-.492c-.644.99-.855 1.742-1.107 1.63-.067-.042-.067-.169 0-.284l.858-1.487-.864-.493c-.067-.038-.068-.164 0-.284.049-.086.16-.187.247-.143l.864.492.858-1.487c.049-.083.161-.188.244-.14zm-6.024 3.655c.094-.054.173-.01.173.104l.005 1.79a.386.386 0 0 1-.172.302l-1.561.902c-.095.054-.174.01-.174-.104l-.005-1.79c0-.112.078-.248.172-.302l1.562-.902zm-.172 1.896-.004-1.391-1.207.697.003 1.392 1.208-.698"/><path fill="#678aee" d="M97.827 59.794c-.098.323.81 1.067 1.674 1.57.668.398 1.314.66 1.434.473.932-1.832 3.427-7.677 4.778-11.424l3.507-6.683.285-4.61.068-1.022c-1.615-.3-3.53.616-5.129 3.38-1.644 2.875-2.425 4.993-3.59 8.41-.818 2.447-2.63 7.203-3.027 9.906z"/><path fill="#748bfd" d="M99.501 61.364c.668.398 1.314.66 1.434.473.932-1.832 3.427-7.677 4.778-11.424l3.507-6.683.285-4.61c-1.186.848-2.35 2.034-3.116 3.356-1.644 2.876-2.703 5.564-3.867 8.98-.736 2.208-2.495 7.212-3.02 9.908z"/><path fill="#f3f1fc" d="M97.827 60.493c-.158.488 2.485 2.072 2.725 1.72.053-.098.106-.204.166-.324-.646-.067-2.418-1.186-2.816-1.824-.03.142-.053.285-.075.428z"/><path fill="#f3f1fc" d="M97.9 60.065c.053.083.132.176.228.274-.08.11-.17.22-.268.33-.036-.07-.05-.129-.033-.177.021-.143.045-.284.074-.427zm2.817 1.825c-.06.12-.112.224-.165.322-.021.031-.06.046-.114.05a8.507 8.507 0 0 1-.12-.487c.156.062.294.103.4.115z"/><path fill="#f45170" d="M111.807 107.804c-.952 2.618-2.568 4.391-4.918 5.23-1.373.284-2.285.127-2.772-.437-.331-.383-.306-.96.023-1.344l2.143-2.501 6.686-5.34c.945 1.338.63 3.836.091 6.56a.471.471 0 0 1-.371.371.472.472 0 0 1-.57-.392l-.312-2.147z"/><path fill="#f5c9c6" d="m104.596 71.496.397 9.91c.084 2.11.5 4.188 1.17 6.19 1.76 5.273 2.607 10.591 2.375 15.963-.14 1.885-.942 3.603-2.255 5.193 1.805.912 3.349.445 4.642-1.346l1.843-3.234c.11-.191.174-.407.19-.626.458-6.65.509-12.822-.213-18.084l.625-15.974s-4.605-.569-5.116-.569-3.658 2.577-3.658 2.577z"/><path fill="#f45170" d="M128.037 91.247s1.308-.08 1.933 1.663c.496 1.382.983 3.168 1.163 3.849a.418.418 0 0 1-.771.308l-.84-1.534a.272.272 0 0 0-.522.1l-.1 3.37c-.023.787-.409 1.961-.926 2.553-.661.757-1.524 1.163-2.561 1.268a1.199 1.199 0 0 1-1.325-1.138c-.09-1.873.257-4.28.709-6.815l1.516-3.117 1.724-.507z"/><path fill="#f4d6d4" d="m119.595 76.395-3.123 5.467a.895.895 0 0 0 .497 1.298c2.727.872 5.161 2.23 7.374 4.824.94 1.102 1.983 2.11 3.183 2.919l.511.344c.813 2.44.752 4.856-.827 7.053-.298.416-.758.704-1.27.73l-.023.001c-.632.024-1.149-.502-1.144-1.134l.024-3.026c-3.5-2.904-8.544-5.675-14.222-8.391a2.482 2.482 0 0 1-1.401-2.528l1.354-11.394 9.238 1.478-.171 2.359z"/><path fill="#8fabfe" d="m120.012 77.79.061-.155c1.242-3.092 1.295-7.334.138-10.462a80.3 80.3 0 0 1-.358-.996 49.663 49.663 0 0 1-.82-2.676 88.407 88.407 0 0 1-.187-.665c-.235-.842-.472-1.698-.478-2.572-.01-1.135.372-2.235.803-3.285.5-1.216 1.082-2.85 1.726-3.995.345-.612.711-1.22.932-1.886l-.277-6.289c-.64-1.102-1.688-1.933-2.822-2.63a23.43 23.43 0 0 0-1.255-.713c-.993-.53-2.024-.65-2.762-1.14a14.159 14.159 0 0 0-3.403-1.654 15.264 15.264 0 0 0-2.539-.618.768.768 0 0 0-.673.217c-1.96 2.015-3.394 4.357-3.92 7.284-.148.803-.225 1.649-.226 2.545.013 1.104 1.055 2.97 1.595 4.264l.001.002v.002c.03.07.058.14.085.207.567 1.459 1.051 2.863.745 4.397-.19.937-.467 1.905-.86 2.92a23.883 23.883 0 0 0-1.185 4.024c-.64 3.22-.6 8.903-.867 10.658-.248 3.838 14.571 6.081 16.546 3.216z"/><path fill="#f5c9c6" d="m115.725 36.874.657 3.576c-.013 2.02-2.89 2.996-4.688 1.804a.643.643 0 0 1-.274-.647c.18-1.058.012-2.16-.355-3.286a2.666 2.666 0 0 1-1.805-1.87l6.465.423z"/><path fill="#1d2943" d="M115.541 25.119s1.564-2.09 4.066-.63c0 0 .043.02.118.058 1.575.804 2.554 2.466 2.455 4.232-.068 1.21-.405 2.153-1.082 2.927l-7.285-5.038 1.728-1.55z"/><path fill="#f4d6d4" d="m119.515 36.065-2.944 2.992c-1.379 1.426-3.15 2.182-5.13 2.13-.855-.026-1.66-.484-2.077-1.239-1.309-2.35-1.01-6.32-1.01-6.32l-.372-3.568 1.312-2.042 2.526-.225s4.295 3.84 4.361 3.883c.067.034 3.346 1.634 3.346 1.634l-.012 2.755z"/><path fill="#4c5c75" d="M108.355 33.628c-.976-1.755-1.195-3.366-.465-4.798.185-.363.312-.759.392-1.159.68-3.387 3.543-4.118 6.696-2.76.415.179.854.305 1.297.391 2.993.583 4.802 2.382 4.82 6.298-.023 4.074-2 6.435-4.523 7.458a1.859 1.859 0 0 1 .831-1.61c.68-.45 1.112-1.137 1.271-2.093.037-.223-.162-.426-.378-.358-.611.192-1.309.252-2.06.231a2.171 2.171 0 0 1-1.56-.733c-.796-.9-1.44-2.012-1.96-3.3-.204-.508-.471-.996-.867-1.374-.622-.595-1.3-.927-2.054-.904-.47.015-.892.312-1.038.76-.335 1.02-.434 2.388-.402 3.95z"/><path fill="#678aee" d="M105.54 52.37s5.426 1.5 6.992.618c-1.552 1.244-5.888 1.174-6.992-.618z"/><path fill="#f3f1fc" d="m110.925 67.396 1.565-2.148h5.576c-1.277 1.624-2.637 3.04-4.007 4.1-.187.293-.99.006-1.744-.448h-.007c-.822-.495-1.584-1.183-1.383-1.504z"/><path fill="#678aee" d="M112.69 68.531h.007c.848.511 1.75.834 1.96.504 3.003-2.32 5.97-6.158 8.26-10.31.127-.24.217-.503.255-.774.645-4.655.228-10.822-1.62-13.142-.368-.435-.758-.803-1.216-1.044a1.58 1.58 0 0 0-1.239-.09c-.278.083-.533.24-.728.466-.3.345-.526.78-.684 1.306-.225.729-.2 1.901-.148 2.66l.589 8.523c.03.36-.075.728-.293 1.021l-6.698 9.19c-.225.361.63 1.135 1.554 1.69z"/><path fill="#748bfd" d="M112.69 68.531h.007c.022-.015.037-.037.052-.06 3.004-2.32 5.97-6.157 8.26-10.31.135-.24.218-.502.255-.773.654-4.655.228-10.822-1.619-13.142-.18-.21-.36-.406-.548-.57-.278.082-.533.24-.728.465-.3.345-.526.78-.684 1.306-.225.729-.2 1.901-.148 2.66l.589 8.523c.03.36-.075.728-.293 1.021l-6.698 9.19c-.225.361.63 1.135 1.554 1.69z"/><path fill="#1d2943" d="M88.385 126.919c0 1.55-1.1 3.46-2.45 4.24-.75.43-1.42.44-1.87.1.04.03.08.06.12.08l-1.82-1.06c-.44-.25-.72-.8-.72-1.58-.01-1.57 1.09-3.46 2.46-4.25.68-.39 1.3-.43 1.75-.17l1.72 1.01a.142.142 0 0 0-.06-.02c.04.01.08.03.12.05.46.25.75.8.75 1.6z"/><path fill="#1d2943" d="M87.635 125.319a.611.611 0 0 0-.12-.05c.02 0 .04.01.06.02l.06.03z"/><path fill="#1d2943" d="M87.635 125.319a.611.611 0 0 0-.12-.05c.02 0 .04.01.06.02l.06.03z"/><path fill="#1d2943" d="M81.646 128.7c0 .78.277 1.325.715 1.58l1.824 1.058c-.448-.256-.715-.811-.726-1.58 0-1.57 1.09-3.46 2.456-4.25.684-.395 1.303-.438 1.751-.17l-1.813-1.058c-.449-.256-1.068-.224-1.751.17-1.367.791-2.467 2.681-2.456 4.25z"/><ellipse cx="85.924" cy="128.335" fill="#4c5c75" rx="3.469" ry="2.009" transform="rotate(-59.837 85.924 128.335)"/><path fill="#dedffb" d="m87.295 122.809-.4 5.34c-.05.45-.36.94-.73 1.15-.24.14-.45.13-.59-.01.01.02.02.02.03.03l-.58-.33c-.1-.06-.18-.18-.2-.36l-.42-4.87.61.36h.01l2.27-1.31z"/><path fill="#dedffb" d="m84.406 123.757.42 4.875c.017.176.096.298.201.36l.613.359c-.105-.062-.175-.184-.2-.36l-.421-4.875-.613-.359z"/><path fill="#f3f1fc" d="m85.02 124.115.419 4.878c.051.389.365.517.729.307.369-.213.676-.7.725-1.146l.398-5.35-2.27 1.311z"/><path fill="#1d2943" d="M86.755 127.87c0 .27-.19.599-.43.74-.12.069-.22.079-.3.03-.01 0-.01 0-.02-.01l-.2-.121c-.08-.05-.13-.13-.13-.27 0-.27.19-.6.43-.75.12-.06.23-.07.31-.03l.2.12c.09.04.14.15.14.29z"/><path fill="#1d2943" d="M85.677 128.234c0 .143.048.229.124.276l.223.13c-.076-.049-.124-.144-.124-.277 0-.267.181-.6.42-.743.123-.067.228-.076.314-.029l-.224-.128c-.076-.048-.18-.038-.304.028-.238.143-.429.476-.429.743z"/><path fill="#4c5c75" d="M86.322 127.624c-.237.137-.425.47-.424.742s.19.38.427.243a.93.93 0 0 0 .43-.738c0-.273-.19-.388-.433-.247z"/><path fill="#1d2943" d="M109.665 112.699a.61.61 0 0 0-.12-.05c.02 0 .04.01.06.02l.06.03z"/><path fill="#1d2943" d="M110.415 114.289c0 1.56-1.1 3.47-2.45 4.25-.75.43-1.42.44-1.87.1.04.03.08.06.12.08l-1.82-1.06c-.44-.26-.72-.8-.72-1.58-.01-1.57 1.09-3.46 2.46-4.25.68-.4 1.3-.43 1.75-.17l1.72 1.01c-.02-.01-.04-.02-.06-.02.04.01.08.03.12.05.46.25.74.8.75 1.59z"/><path fill="#1d2943" d="M109.665 112.699a.61.61 0 0 0-.12-.05c.02 0 .04.01.06.02l.06.03z"/><path fill="#1d2943" d="M103.675 116.078c0 .78.277 1.324.715 1.58l1.824 1.058c-.448-.256-.715-.812-.726-1.58 0-1.57 1.09-3.46 2.456-4.25.684-.395 1.303-.438 1.751-.171l-1.813-1.057c-.449-.257-1.068-.224-1.751.17-1.367.79-2.467 2.68-2.456 4.25z"/><ellipse cx="107.953" cy="115.713" fill="#4c5c75" rx="3.469" ry="2.009" transform="rotate(-59.837 107.953 115.713)"/><path fill="#dedffb" d="m109.325 110.179-.4 5.35c-.05.45-.36.94-.73 1.15-.24.14-.46.13-.6-.01.02.03.04.04.07.06l-.61-.36c-.1-.06-.18-.18-.2-.36l-.42-4.87.61.35 2.28-1.31z"/><path fill="#dedffb" d="m106.435 111.135.42 4.875c.018.175.096.298.201.36l.614.358c-.106-.061-.176-.184-.202-.359l-.42-4.875-.613-.36z"/><path fill="#f3f1fc" d="m107.05 111.493.418 4.878c.051.389.365.516.729.306.369-.213.676-.699.725-1.145l.398-5.35-2.27 1.311z"/><path fill="#1d2943" d="M108.785 115.249c0 .27-.19.6-.43.74-.12.06-.23.07-.3.03h-.01l-.21-.13c-.08-.05-.13-.13-.13-.28 0-.26.19-.6.43-.74.12-.07.23-.08.3-.03l.21.12c.09.04.14.15.14.29z"/><path fill="#1d2943" d="M107.706 115.612c0 .143.048.228.124.276l.223.129c-.076-.048-.124-.143-.124-.276 0-.267.181-.6.42-.743.123-.067.228-.076.314-.029l-.223-.129c-.077-.047-.181-.038-.305.029-.238.143-.429.476-.429.743z"/><path fill="#4c5c75" d="M108.351 115.001a.94.94 0 0 0-.424.742c.001.273.19.38.427.244.243-.14.431-.466.43-.739s-.19-.387-.433-.247zM90.859 98.173a.714.714 0 0 1-.714-.713l.004-29.235a.714.714 0 1 1 1.427 0l-.004 29.235c0 .394-.32.713-.713.713z"/><path fill="#1d2943" d="m66.745 113.349-1.72-1c-.45-.26-1.07-.23-1.75.17-1.37.79-2.47 2.68-2.46 4.25 0 .78.28 1.32.72 1.58l1.82 1.06c-.05-.03-.09-.06-.14-.1.46.36 1.13.36 1.89-.08 1.36-.78 2.46-2.69 2.45-4.25 0-.83-.31-1.4-.81-1.63zm-1.66.23c-.17.1-.34.21-.5.34.16-.13.33-.25.5-.35.354-.203.691-.31.998-.329-.304.02-.646.13-.998.339z"/><path fill="#1d2943" d="M66.083 113.24c-.304.02-.646.13-.998.339-.17.1-.34.21-.5.34.16-.13.33-.25.5-.35.354-.203.691-.31.998-.329zm.292.009z"/><path fill="#1d2943" d="M66.083 113.24c-.304.02-.646.13-.998.339-.17.1-.34.21-.5.34.16-.13.33-.25.5-.35.354-.203.691-.31.998-.329zm.292.009z"/><path fill="#1d2943" d="M60.819 116.767c0 .78.277 1.324.715 1.58l1.824 1.058c-.448-.257-.715-.812-.726-1.58 0-1.57 1.09-3.46 2.456-4.25.684-.395 1.303-.438 1.751-.171l-1.813-1.057c-.449-.257-1.068-.225-1.751.17-1.367.79-2.467 2.68-2.456 4.25z"/><ellipse cx="65.097" cy="116.401" fill="#4c5c75" rx="3.469" ry="2.009" transform="rotate(-59.837 65.097 116.401)"/><path fill="#dedffb" d="m66.465 110.87-.4 5.349c-.05.45-.35.93-.72 1.15-.24.14-.46.13-.6-.01.02.03.04.05.07.06l-.61-.36c-.11-.06-.19-.18-.21-.36l-.42-4.88.62.36 2.27-1.31z"/><path fill="#dedffb" d="m63.579 111.824.42 4.875c.018.175.096.298.201.359l.614.36c-.106-.062-.176-.185-.202-.36l-.42-4.875-.613-.36z"/><path fill="#f3f1fc" d="m64.194 112.182.418 4.878c.051.389.365.516.729.306.37-.213.676-.699.725-1.146l.398-5.35-2.27 1.312z"/><path fill="#1d2943" d="M65.925 115.939c0 .27-.18.6-.43.74-.12.07-.23.07-.3.03l-.22-.13c-.08-.05-.12-.14-.12-.28 0-.27.19-.6.42-.74.13-.07.23-.08.31-.03l.2.12c.09.04.14.15.14.29z"/><path fill="#1d2943" d="M64.85 116.3c0 .143.048.23.124.277l.223.129c-.076-.048-.124-.143-.124-.277 0-.266.181-.6.42-.742.123-.067.228-.077.314-.03l-.223-.128c-.077-.048-.181-.038-.305.029-.238.142-.429.476-.429.742z"/><path fill="#4c5c75" d="M65.495 115.69c-.237.137-.425.47-.424.742s.19.38.427.243a.93.93 0 0 0 .43-.738c0-.272-.19-.387-.433-.247z"/><path fill="#1d2943" d="M82.848 104.145c0 .78.277 1.324.715 1.58l1.824 1.057c-.448-.256-.715-.811-.726-1.58 0-1.57 1.09-3.46 2.456-4.25.684-.395 1.303-.437 1.751-.17l-1.813-1.058c-.449-.256-1.068-.224-1.751.171-1.367.79-2.467 2.68-2.456 4.25z"/><ellipse cx="87.126" cy="103.779" fill="#4c5c75" rx="3.469" ry="2.009" transform="rotate(-59.837 87.126 103.78)"/><path fill="#1d2943" d="M86.029 106.361c.237 0 .518-.09.813-.26 1.175-.678 2.165-2.39 2.162-3.74-.001-.35-.08-1.164-.781-1.164-.238 0-.52.09-.813.26-1.175.679-2.165 2.392-2.161 3.741 0 .35.079 1.163.78 1.163z"/><path fill="#dedffb" d="m85.608 99.201.42 4.876c.018.175.096.297.201.359l.614.359c-.105-.062-.176-.184-.202-.36l-.42-4.875-.613-.359z"/><path fill="#f3f1fc" d="m86.223 99.56.418 4.878c.052.388.366.516.729.306.37-.213.676-.7.725-1.146l.398-5.35-2.27 1.311z"/><path fill="#1d2943" d="M86.88 103.678c0 .143.047.229.123.276l.223.13c-.076-.048-.124-.144-.124-.277 0-.267.181-.6.42-.743.123-.066.228-.076.314-.028l-.223-.13c-.077-.047-.181-.037-.305.03-.238.142-.429.475-.429.742z"/><path fill="#4c5c75" d="M87.525 103.068c-.238.137-.425.47-.425.742s.19.38.427.243c.244-.14.431-.466.43-.738s-.19-.388-.432-.247zM60.166 115.816a.713.713 0 0 1-.356-1.332l30.693-17.643a.715.715 0 0 1 .711 1.238L60.52 115.722a.713.713 0 0 1-.354.094z"/><path fill="#9ea9c9" d="M110.948 103.082 90.859 91.43l-33.867 19.467 20.412 11.381z"/><path fill="#e9e7fc" d="M90.97 75.376a.213.213 0 0 0-.214 0L67.099 89.097a.201.201 0 0 0-.12.07l-3.291 1.909c-.036.013-.07.024-.093.053l-3.32 1.926c-.022.012-.046.017-.062.036l-3.329 1.93a.214.214 0 0 0-.106.186v15.69a.214.214 0 0 0 .32.185l33.871-19.47a.213.213 0 0 0 .108-.184V75.56a.213.213 0 0 0-.108-.185zm-26.687 31.083-.15-7.305 2.961-1.695.15 7.298-2.961 1.702zm-3.385 1.946-.15-7.313 2.961-1.696.15 7.306-2.96 1.703zm22.86-20.977-2.689 1.538-.173-7.377 2.688-1.559.174 7.398zm.249-7.643 3.237-1.877.173 7.425-3.237 1.853-.173-7.4zm-3.36 9.423-2.939 1.682-.152-7.364 2.918-1.692.173 7.374zm-3.362 1.924-3.008 1.722-.15-7.338 3.006-1.744.152 7.36zm-3.43 1.964-2.872 1.643-.15-7.313 2.87-1.665.151 7.335zm-3.296 1.886-3.052 1.746-.15-7.286 3.053-1.77.15 7.31zm-3.475 1.989-2.962 1.695-.15-7.26 2.963-1.719.15 7.284zM63.7 98.908l-2.962 1.695-.149-7.235 2.962-1.717.15 7.257zm3.818-1.691 3.052-1.747.15 7.29-3.052 1.754-.15-7.297zm3.476-1.99 2.871-1.643.15 7.281-2.873 1.652-.148-7.29zm3.294-1.885 3.008-1.721.15 7.272-3.008 1.73-.15-7.281zm3.431-1.964 2.94-1.682.17 7.252-2.96 1.702-.15-7.272zm3.363-1.924 2.688-1.539.17 7.245-2.688 1.546-.17-7.252zm3.11-1.78 3.238-1.853.17 7.236-3.238 1.86-.17-7.244zm6.458-4.19-2.81 1.607-.173-7.428 2.983-1.73v7.55zm-30.484 10.13.15 7.231-3.11 1.78V95.33l2.96-1.716zm-2.96 9.505 3.12-1.785.15 7.314-3.27 1.879v-7.408zM88.02 92.814l-.169-7.235 2.798-1.601v7.326l-2.629 1.51z"/><path fill="#4c5c75" d="m76.026 128.367-16.186-9.032c-1.891-1.054-1.912-3.77-.03-4.85a.715.715 0 0 1 .71 1.237 1.36 1.36 0 0 0 .015 2.367l16.187 9.032c.414.232.927.228 1.34-.007l31.46-18.026c.422-.242.684-.695.684-1.181v-28a.713.713 0 1 1 1.427 0v28c0 .997-.538 1.924-1.402 2.42l-31.46 18.025a2.802 2.802 0 0 1-2.745.015z"/><path fill="#dedffb" d="M111.145 95.336c0-.018.005-.034 0-.05l-.018-8.086a.213.213 0 0 0-.106-.185l-9.564-5.551c-.008-.01-.02-.01-.03-.018l-10.457-6.07a.213.213 0 0 0-.321.185v15.867c0 .076.04.147.107.185l20.085 11.655a.217.217 0 0 0 .215 0 .215.215 0 0 0 .106-.186l-.017-7.746zM94.61 86.048l2.912 1.701v7.295l-2.918-1.693c0-.006.006-.009.006-.014v-7.29zm9.498 5.056-2.591-1.515v-7.595l2.59 1.504v7.606zm.428-7.358 2.82 1.637v7.62l-2.82-1.649v-7.608zm-3.447 5.593-3.14-1.835v-7.581l3.14 1.822v7.594zm-3.567-2.085-2.912-1.702v-7.568l2.912 1.69v7.58zm.427.746 3.14 1.835v7.279l-3.14-1.822V88zm3.568 2.085 2.59 1.514v7.267l-2.59-1.504v-7.277zm3.019 1.764 2.82 1.649v7.252l-2.82-1.636v-7.265zm6.18 3.118-2.933-1.715v-7.62l2.917 1.692.017 7.643zm-16.534-17.23v7.565l-3.105-1.815v-7.554l3.105 1.803zm-3.105 6.245 3.105 1.816v7.308l-3.105-1.802v-7.322zm16.706 17.016v-7.25l2.935 1.715.016 7.247-2.95-1.712z"/><path fill="#4c5c75" d="M90.863 68.938a.713.713 0 0 1-.714-.713c0-.61.204-1.212.574-1.695l2.41-3.148a2.79 2.79 0 0 1 3.612-.717l3.831 2.192a.714.714 0 0 1-.709 1.239l-3.835-2.194a1.364 1.364 0 0 0-1.766.347l-2.41 3.148c-.18.237-.28.53-.28.828 0 .394-.319.713-.713.713z"/><path fill="#72d561" d="M108.614 69.168c.625-.361 1.135-.074 1.138.645s-.505 1.597-1.13 1.958c-.626.36-1.133.068-1.135-.65s.502-1.592 1.127-1.953z"/><path fill="#78e75a" d="M96.67 64.832c0 .361.127.61.334.731l10.811 6.286c-.201-.117-.328-.37-.328-.726-.004-.722.502-1.594 1.125-1.955.319-.182.605-.201.81-.08l-10.816-6.285c-.206-.122-.492-.103-.806.08-.628.36-1.13 1.232-1.13 1.95z"/><path fill="#4c5c75" d="M110.919 80.62a.713.713 0 0 1-.713-.713c0-.658.233-1.296.656-1.798l2.131-2.527a1.358 1.358 0 0 0-.358-2.054l-4.094-2.394a.712.712 0 1 1 .716-1.234l4.095 2.393a2.78 2.78 0 0 1 1.347 1.934 2.78 2.78 0 0 1-.614 2.275l-2.132 2.527c-.207.246-.32.557-.32.878 0 .394-.32.713-.714.713z"/><path fill="#f3f1fc" d="M111.055 87.03a.213.213 0 0 0-.214 0l-23.662 13.725a.201.201 0 0 0-.115.067l-3.293 1.91c-.034.013-.067.024-.09.052l-3.32 1.926c-.023.012-.047.017-.063.036l-3.22 1.868-9.453-5.477c-.023-.029-.056-.04-.09-.053l-3.483-2.018c-.008-.009-.02-.01-.03-.018l-6.923-4.011a.213.213 0 0 0-.321.185v15.675c0 .077.042.15.11.187l20.411 11.38a.215.215 0 0 0 .212 0l16.939-9.693c.007-.006.016-.007.022-.013l16.583-9.49a.215.215 0 0 0 .107-.186V87.216a.213.213 0 0 0-.107-.185zm-.32 8.19-2.813 1.61-.17-7.512 2.982-1.73v7.633zm-33.276 19.54 2.954-1.69.149 7.154-2.952 1.69-.151-7.154zm-.44-.548-3.072-1.758v-7.159l2.919 1.691.153 7.226zm-3.5-2.003-2.82-1.614v-7.182l2.82 1.634v7.162zm-3.248-1.859-2.59-1.483v-7.204l2.59 1.502v7.185zm-3.019-1.728-3.14-1.797v-7.229l3.14 1.82v7.206zm-3.567-2.042-2.912-1.666V97.66l2.912 1.687v7.232zm0 .494v7.31l-2.912-1.623v-7.353l2.912 1.666zm.427.245 3.14 1.797v7.257l-3.14-1.75v-7.304zm3.568 2.042 2.591 1.483v7.212l-2.59-1.444v-7.251zm3.02 1.728 2.82 1.614v7.164l-2.82-1.572v-7.206zm3.247 1.859 3.083 1.764.152 7.197-3.235-1.803v-7.158zm6.889-.12 2.962-1.696.148 7.156-2.961 1.695-.149-7.155zm19.899-11.884-2.94 1.683-.153-7.446 2.918-1.692.175 7.455zm.247-7.7 2.688-1.559.172 7.48-2.685 1.537-.175-7.458zm-3.61 9.625-3.007 1.72-.153-7.418 3.007-1.744.153 7.442zm-3.43 1.963-2.87 1.643-.153-7.394 2.87-1.665.153 7.416zm-3.294 1.885-3.052 1.747-.153-7.367 3.053-1.77.152 7.39zm-3.475 1.99-2.962 1.695-.152-7.342 2.961-1.718.153 7.365zm-3.385 1.937-2.962 1.695-.152-7.316 2.962-1.718.152 7.339zm.433.246 2.962-1.695.148 7.156-2.962 1.695-.148-7.156zm3.385-1.937 3.052-1.747.148 7.156-3.052 1.747-.148-7.156zm3.475-1.99 2.87-1.643.148 7.158-2.87 1.642-.148-7.156zm3.294-1.885 3.007-1.721.148 7.157-3.008 1.722-.147-7.158zm3.43-1.963 2.941-1.683.168 7.146-2.961 1.695-.148-7.158zm3.364-1.925 2.684-1.537.165 7.149-2.682 1.534-.167-7.146zm3.107-1.778 3.234-1.852.162 7.15-3.232 1.85-.164-7.148zm-.012-.488-.172-7.484 3.237-1.877.17 7.51-3.235 1.85zm-24.013 6.345.152 7.312-2.955 1.691-.154-7.288 2.957-1.715zm-19.906-7.856v7.256l-3.14-1.797v-7.278l3.14 1.82zm-3.14 5.953 3.14 1.797v7.36l-3.14-1.751v-7.406zm50.89 1.103-.162-7.15 2.801-1.604v7.243l-2.64 1.511z"/><path fill="#f4d6d4" d="M101.176 64.3c-.024-.014-.139-.083-.289-.136-.526-.167-1.247.074-1.321.624-.058.413.21 2.334.788 2.723-.224.146-4.171-1.056-3.987-3.48 0 0-.004-.041-.007-.113-.034-.8.22-1.585.697-2.228.266-.36.586-.777.803-1.021.282.55 2.074 1.625 2.578 1.594.224.802.566 1.643.738 2.037zM113.41 69.406a3.465 3.465 0 0 0-.583 1s-1.068 2.47-2.702 2.203c-.012-.002-.024-.004-.036-.004-1.201-.223-2.016-.942-2.295-1.422-.132-.227-.031-.676.043-.924.086-.287.57-.978 1.065-1.264 0 0-1.983-.638-1.794-1.252 1.407.143 2.721.189 3.789-.194.04.354.705.925 1.412 1.35h.005c.382.23.776.418 1.096.507z"/><path fill="#78e75a" d="m8.969 105.494 14.098-8.145.637.88 2.524.93-14.072 8.209-1.53-1.53z"/><path fill="#5ec363" d="m25.725 99.199-2.16 1.26-11.37 6.64-1.46-1.46-1.17-.24 13.44-7.76.56.77z"/><path fill="#5ec363" d="M23.567 98.409v2.051l2.155-1.257z"/><path fill="#72d561" d="M23.006 97.634 9.57 105.397l1.164.242 1.457 1.457 11.376-6.636v-2.051z"/><path fill="#5ec363" d="m27.515 121.069-14.14 8.17-5.63-3.31 1.22-20.44 1.66.35 1.53 1.53 14.07-8.21z"/><path fill="#72d561" d="m13.38 129.218-2.838-3.879.086-19.502 1.528 1.528z"/><path fill="#5ec363" d="m10.626 105.838-1.657-.344-1.228 20.44 5.634 3.306-2.835-3.904zM26.228 99.159l-14.072 8.209 1.219 21.872 14.139-8.17z"/><path fill="#78e75a" d="m7.741 125.934 2.799-.598 2.835 3.904zM14.725 104.27c0 .498-.346 1.104-.78 1.354-.27.151-.509.13-.65-.033-.086-.087-.14-.228-.14-.423 0-.487.346-1.094.78-1.343a.67.67 0 0 1 .335-.108c.271 0 .455.206.455.552zm4.55-2.634c0 .499-.346 1.106-.78 1.355-.28.162-.52.13-.66-.033a.664.664 0 0 1-.12-.411c0-.499.347-1.106.77-1.355a.64.64 0 0 1 .336-.108c.27-.01.455.195.455.552z"/><path fill="#fff" d="M14.39 104.128c0 .499-.347 1.105-.78 1.355a.836.836 0 0 1-.315.108c-.086-.087-.14-.228-.14-.423 0-.487.346-1.094.78-1.343a.67.67 0 0 1 .335-.108c.076.097.12.238.12.411zm4.56-2.632c0 .498-.346 1.105-.79 1.354a.581.581 0 0 1-.325.108.664.664 0 0 1-.12-.411c0-.499.347-1.106.77-1.355a.64.64 0 0 1 .336-.108c.076.087.13.227.13.412z"/><path fill="#4c5c75" d="M22.848 103.14a.56.56 0 0 0-.4-.147.785.785 0 0 0-.445.133c-.49.297-.86.934-.86 1.513 0 .207.044.4.148.534a.595.595 0 0 0 .46.192.773.773 0 0 0 .43-.133c.49-.267.89-.934.89-1.513a.846.846 0 0 0-.223-.578zm-.311 1.187c0 .015-.015.015-.015.03-.119.163-.208.297-.326.4l-.015.015a.82.82 0 0 1-.134.104l-.044.044c-.178.104-.341.104-.415 0-.06-.059-.09-.163-.09-.281 0-.134.03-.238.06-.341.06-.178.134-.341.237-.475.104-.148.252-.297.386-.385.074-.045.178-.06.237-.075h.03c.044 0 .118.015.148.06a.43.43 0 0 1 .104.296c0 .178-.074.4-.163.608zM18.162 105.721a.56.56 0 0 0-.4-.148.785.785 0 0 0-.445.133c-.49.297-.86.935-.86 1.513 0 .208.044.4.148.534a.595.595 0 0 0 .46.193.773.773 0 0 0 .43-.134c.49-.267.89-.934.89-1.513a.845.845 0 0 0-.223-.578zm-.282 1.083c0 .03-.014.074-.03.104 0 .014-.014.014-.014.03-.089.133-.163.236-.267.325-.015.03-.03.06-.06.075l-.014.014c-.045.045-.089.075-.133.104l-.045.045c-.178.103-.341.103-.415 0-.06-.06-.09-.163-.09-.282 0-.134.03-.237.06-.341 0-.015.015-.03.015-.045.06-.163.133-.311.222-.43.015-.015.015-.03.045-.044.089-.134.222-.267.34-.341.075-.045.179-.06.238-.074h.03c.044 0 .118.014.148.059a.43.43 0 0 1 .104.296c0 .149-.045.327-.134.505z"/><path fill="#72d561" d="M22.537 104.327c0 .015-.015.015-.015.03-.119.163-.208.297-.326.4l-.015.015a.82.82 0 0 1-.134.104l-.044.044c-.178.104-.341.104-.415 0-.06-.059-.09-.163-.09-.281 0-.134.03-.238.06-.341.06-.178.134-.341.237-.475.104-.148.252-.297.386-.385.074-.045.178-.06.237-.075h.03c.044 0 .118.015.148.06a.43.43 0 0 1 .104.296c0 .178-.074.4-.163.608zM17.88 106.804c0 .03-.014.074-.03.104 0 .014-.014.014-.014.03-.089.133-.163.236-.267.325-.015.03-.03.06-.06.075l-.014.014c-.045.045-.089.075-.133.104l-.045.045c-.178.103-.341.103-.415 0-.06-.06-.09-.163-.09-.282 0-.134.03-.237.06-.341 0-.015.015-.03.015-.045.06-.163.133-.311.222-.43.015-.015.015-.03.045-.044.089-.134.222-.267.34-.341.075-.045.179-.06.238-.074h.03c.044 0 .118.014.148.059a.43.43 0 0 1 .104.296c0 .149-.045.327-.134.505z"/><path fill="#f3f1fc" d="M22.893 107.738c0 1.542-1.083 3.41-2.432 4.152-.371.222-.742.311-1.083.311-.282 0-.534-.059-.756-.192-.504-.282-.786-.89-.786-1.661l-.015-2.521a.766.766 0 0 0-.252-.564.58.58 0 0 0-.148-.118l-.534-.312c.06-.163.133-.311.222-.43.015-.015.015-.03.045-.044l.534.311c.074.03.133.074.192.134.297.252.49.623.49 1.023v2.52c0 .564.193 1.01.534 1.202.34.193.786.148 1.305-.134 1.156-.652 2.135-2.343 2.135-3.677v-2.521a.839.839 0 0 0-.119-.415c-.014-.015-.014-.03-.03-.045-.029-.044-.059-.074-.088-.103a.786.786 0 0 0-.163-.134l-.386-.222c.06-.178.134-.341.237-.475l.43.237c.06.045.119.09.193.149.045.03.09.074.119.118.015.015.015.03.03.045.207.222.31.534.31.845l.016 2.52z"/></svg>