<?xml version="1.0" encoding="UTF-8"?><svg id="Layer_2" xmlns="http://www.w3.org/2000/svg" viewBox="0 0 80.8 99.84"><defs><style>.cls-1{fill:#f03939;}.cls-2{fill:#fff;}.cls-3{fill:#ffee40;}.cls-4{fill:#ffed31;}.cls-5{fill:#edac01;}.cls-6{fill:#8beaff;}.cls-7{fill:#d4720a;}.cls-8{fill:#3c7fc2;}.cls-9{fill:#5db8f5;}</style></defs><g id="Layer_1-2"><polygon class="cls-9" points="30.46 73.54 30.46 2.54 76.99 29.19 76.99 99.84 30.46 73.54"/><polygon class="cls-8" points="76.99 99.84 80.8 97.72 80.8 26.65 76.99 29.19 76.99 99.84"/><polygon class="cls-6" points="30.46 2.54 34.27 0 80.8 26.65 76.99 29.19 30.46 2.54"/><path class="cls-2" d="M34.27,71.07V17.77l18.84,10.87c.52,.3,1.27,.3,1.79,0,.52-.3,.95-.86,.95-1.47v-5.6l16.54,9.01c.82,.44,1.22,1.3,1.22,2.23v58.09c0,.45-.24,.87-.63,1.09-.39,.23-.87,.23-1.26,.01l-37.45-20.94Z"/><polygon class="cls-9" points="38.5 25.38 69.38 43.15 69.38 46.53 38.5 28.77 38.5 25.38"/><polygon class="cls-9" points="38.5 32.57 69.38 50.34 69.38 53.73 38.5 35.96 38.5 32.57"/><polygon class="cls-9" points="38.5 39.34 69.38 57.11 69.38 60.49 38.5 42.73 38.5 39.34"/><polygon class="cls-5" points="0 39.34 0 71.49 39.77 93.91 39.77 63.03 0 39.34"/><polygon class="cls-7" points="39.77 93.91 44.42 90.95 44.42 60.92 39.77 63.03 39.77 93.91"/><polygon class="cls-5" points="0 39.34 4.23 37.23 44.42 60.92 39.77 63.03 0 39.34"/><polygon class="cls-3" points="0 39.34 19.04 71.49 39.77 63.03 0 39.34"/><g><path class="cls-1" d="M60.92,69.62l9.27,4.85c-.42-5.06-4.19-10.95-9.27-13.72v8.87Z"/><path class="cls-5" d="M59.23,70.42v-10.49c-4.65-1.87-8.44,.28-8.44,5.22,0,5.37,4.37,12.01,9.74,14.82,5.09,2.66,9.25,.93,9.68-3.82l-10.97-5.73Z"/></g><g><path class="cls-2" d="M52.88,23.2c0,1.17-.95,1.55-2.12,.85s-2.12-2.22-2.12-3.38,.95-1.55,2.12-.85c1.17,.7,2.12,2.22,2.12,3.38Z"/><path class="cls-1" d="M46.11,18.97c0,1.17-.95,1.55-2.12,.85-1.17-.7-2.12-2.22-2.12-3.38s.95-1.55,2.12-.85c1.17,.7,2.12,2.22,2.12,3.38Z"/><path class="cls-4" d="M39.34,14.73c0,1.17-.95,1.55-2.12,.85-1.17-.7-2.12-2.22-2.12-3.38s.95-1.55,2.12-.85c1.17,.7,2.12,2.22,2.12,3.38Z"/></g></g></svg>