<svg xmlns="http://www.w3.org/2000/svg" viewBox="0 0 512 512"><linearGradient id="a" x1="149.665" x2="528.736" y1="584.801" y2="584.801" gradientTransform="translate(-83.2 -328.8)" gradientUnits="userSpaceOnUse"><stop class="stopColorfd824a svgShape" offset="0" stop-color="#4afdee"/><stop class="stopColorfd7759 svgShape" offset=".125" stop-color="#59fdf0"/><stop class="stopColorfc5b80 svgShape" offset=".364" stop-color="#41e1d4"/><stop class="stopColorfa2fbe svgShape" offset=".69" stop-color="#2ffae9"/><stop class="stopColorf800ff svgShape" offset="1" stop-color="#00ffea"/></linearGradient><ellipse cx="256" cy="256" fill="url(#a)" opacity=".1" rx="189.535" ry="87.4"/><linearGradient id="b" x1="-257.551" x2="121.524" y1="499.166" y2="499.166" gradientTransform="rotate(-45.001 -199.53 -13.54)" gradientUnits="userSpaceOnUse"><stop class="stopColorfd824a svgShape" offset="0" stop-color="#4afdee"/><stop class="stopColorfd7759 svgShape" offset=".125" stop-color="#59fdf0"/><stop class="stopColorfc5b80 svgShape" offset=".364" stop-color="#41e1d4"/><stop class="stopColorfa2fbe svgShape" offset=".69" stop-color="#2ffae9"/><stop class="stopColorf800ff svgShape" offset="1" stop-color="#00ffea"/></linearGradient><path fill="url(#b)" d="M390.024 121.978c34.128 34.13 1.795 121.805-72.222 195.822-74.018 74.021-161.691 106.353-195.823 72.222-34.135-34.134-1.799-121.808 72.221-195.824 74.017-74.017 161.687-106.352 195.824-72.22z" opacity=".2"/><linearGradient id="c" x1="-399.229" x2="-20.153" y1="-256.736" y2="-256.736" gradientTransform="rotate(-134.999 129.348 -96.814)" gradientUnits="userSpaceOnUse"><stop class="stopColorfd824a svgShape" offset="0" stop-color="#4afdee"/><stop class="stopColorfd7759 svgShape" offset=".125" stop-color="#59fdf0"/><stop class="stopColorfc5b80 svgShape" offset=".364" stop-color="#41e1d4"/><stop class="stopColorfa2fbe svgShape" offset=".69" stop-color="#2ffae9"/><stop class="stopColorf800ff svgShape" offset="1" stop-color="#00ffea"/></linearGradient><path fill="url(#c)" d="M121.979 121.977c34.131-34.13 121.805-1.795 195.823 72.221 74.018 74.018 106.352 161.69 72.222 195.824-34.134 34.133-121.807 1.797-195.823-72.222-74.021-74.017-106.355-161.689-72.222-195.823z" opacity=".3"/><linearGradient id="d" x1="122.903" x2="555.498" y1="584.801" y2="584.801" gradientTransform="translate(-83.2 -328.8)" gradientUnits="userSpaceOnUse"><stop class="stopColorfd824a svgShape" offset="0" stop-color="#4afdee"/><stop class="stopColorfd7759 svgShape" offset=".125" stop-color="#59fdf0"/><stop class="stopColorfc5b80 svgShape" offset=".364" stop-color="#41e1d4"/><stop class="stopColorfa2fbe svgShape" offset=".69" stop-color="#2ffae9"/><stop class="stopColorf800ff svgShape" offset="1" stop-color="#00ffea"/></linearGradient><ellipse cx="256" cy="256" fill="url(#d)" opacity=".1" rx="216.298" ry="99.74"/><linearGradient id="e" x1="-284.313" x2="148.285" y1="499.166" y2="499.166" gradientTransform="rotate(-45.001 -199.53 -13.54)" gradientUnits="userSpaceOnUse"><stop class="stopColorfd824a svgShape" offset="0" stop-color="#4afdee"/><stop class="stopColorfd7759 svgShape" offset=".125" stop-color="#59fdf0"/><stop class="stopColorfc5b80 svgShape" offset=".364" stop-color="#41e1d4"/><stop class="stopColorfa2fbe svgShape" offset=".69" stop-color="#2ffae9"/><stop class="stopColorf800ff svgShape" offset="1" stop-color="#00ffea"/></linearGradient><path fill="url(#e)" d="M408.946 103.055c38.948 38.95 2.052 139.003-82.419 223.471-84.468 84.47-184.522 121.369-223.472 82.419-38.953-38.951-2.052-139.006 82.419-223.473 84.468-84.47 184.518-121.37 223.472-82.417z" opacity=".2"/><linearGradient id="f" x1="-425.99" x2="6.61" y1="-256.737" y2="-256.737" gradientTransform="rotate(-134.999 129.348 -96.814)" gradientUnits="userSpaceOnUse"><stop class="stopColorfd824a svgShape" offset="0" stop-color="#4afdee"/><stop class="stopColorfd7759 svgShape" offset=".125" stop-color="#59fdf0"/><stop class="stopColorfc5b80 svgShape" offset=".364" stop-color="#41e1d4"/><stop class="stopColorfa2fbe svgShape" offset=".69" stop-color="#2ffae9"/><stop class="stopColorf800ff svgShape" offset="1" stop-color="#00ffea"/></linearGradient><path fill="url(#f)" d="M103.055 103.054c38.95-38.951 139.004-2.051 223.472 82.419 84.47 84.469 121.368 184.522 82.419 223.472-38.951 38.951-139.005 2.052-223.473-82.418-84.47-84.469-121.371-184.52-82.418-223.473z" opacity=".3"/><linearGradient id="g" x1="175.437" x2="502.963" y1="584.802" y2="584.802" gradientTransform="translate(-83.2 -328.8)" gradientUnits="userSpaceOnUse"><stop class="stopColorfd824a svgShape" offset="0" stop-color="#4afdee"/><stop class="stopColorfd7759 svgShape" offset=".125" stop-color="#59fdf0"/><stop class="stopColorfc5b80 svgShape" offset=".364" stop-color="#41e1d4"/><stop class="stopColorfa2fbe svgShape" offset=".69" stop-color="#2ffae9"/><stop class="stopColorf800ff svgShape" offset="1" stop-color="#00ffea"/></linearGradient><ellipse cx="256" cy="256" fill="url(#g)" opacity=".1" rx="163.763" ry="75.515"/><linearGradient id="h" x1="-231.779" x2="95.751" y1="499.166" y2="499.166" gradientTransform="rotate(-45.001 -199.53 -13.54)" gradientUnits="userSpaceOnUse"><stop class="stopColorfd824a svgShape" offset="0" stop-color="#4afdee"/><stop class="stopColorfd7759 svgShape" offset=".125" stop-color="#59fdf0"/><stop class="stopColorfc5b80 svgShape" offset=".364" stop-color="#41e1d4"/><stop class="stopColorfa2fbe svgShape" offset=".69" stop-color="#2ffae9"/><stop class="stopColorf800ff svgShape" offset="1" stop-color="#00ffea"/></linearGradient><path fill="url(#h)" d="M371.798 140.201c29.49 29.489 1.555 105.243-62.4 169.195-63.952 63.954-139.704 91.893-169.195 62.401-29.492-29.493-1.551-105.244 62.4-169.196 63.952-63.954 139.705-91.891 169.195-62.4z" opacity=".2"/><linearGradient id="i" x1="-373.453" x2="-45.924" y1="-256.737" y2="-256.737" gradientTransform="rotate(-134.999 129.348 -96.814)" gradientUnits="userSpaceOnUse"><stop class="stopColorfd824a svgShape" offset="0" stop-color="#4afdee"/><stop class="stopColorfd7759 svgShape" offset=".125" stop-color="#59fdf0"/><stop class="stopColorfc5b80 svgShape" offset=".364" stop-color="#41e1d4"/><stop class="stopColorfa2fbe svgShape" offset=".69" stop-color="#2ffae9"/><stop class="stopColorf800ff svgShape" offset="1" stop-color="#00ffea"/></linearGradient><path fill="url(#i)" d="M140.201 140.2c29.489-29.489 105.244-1.555 169.195 62.401 63.954 63.953 91.892 139.705 62.4 169.195-29.489 29.492-105.242 1.554-169.196-62.4-63.95-63.951-91.89-139.703-62.399-169.196z" opacity=".3"/></svg>