<svg xmlns="http://www.w3.org/2000/svg" enable-background="new 0 0 135 135" viewBox="0 0 135 135"><polygon fill="#b5b8b8" points="118.674 83.981 118.647 93.303 67.624 122.954 67.65 113.633"/><polygon fill="#edb458" points="118.671 83.981 67.651 113.631 16.291 83.981 67.311 54.332"/><polygon fill="#ffd06c" points="22.277 83.973 67.316 57.798 112.686 83.99 67.646 110.165"/><polygon fill="#7e8080" points="67.65 113.633 67.624 122.954 16.261 93.3 16.288 83.979"/><polygon fill="#383736" points="67.715 125.176 67.689 131.498 6.33 96.072 6.356 89.75"/><polygon fill="#2d2c2b" points="128.67 89.753 128.644 96.075 67.689 131.498 67.715 125.176"/><polygon fill="#434240" points="128.67 89.753 67.715 125.176 6.356 89.75 16.288 83.979 67.65 113.633 118.674 83.981"/><polygon fill="#638dff" points="101.978 56.465 101.978 83.314 66.449 103.965 66.449 77.085"/><polygon fill="#d9dddd" points="64.759 78.494 64.658 101.044 64.639 105.444 25.749 82.984 25.759 78.574 25.839 56.085"/><polygon fill="#cccece" points="102.646 56.084 64.364 78.288 25.838 56.087 64.119 33.841"/><polygon fill="#f3516f" points="88.108 90.975 78.079 96.794 78.038 76.064 88.059 70.285"/><polygon fill="#434240" points="83.487 93.504 83.13 93.296 87.585 90.724 87.942 90.932"/><polygon fill="#21201f" points="87.942 90.932 87.585 90.724 87.564 80.878 87.922 81.086"/><polygon fill="#434240" points="78.558 96.382 78.2 96.174 82.651 93.573 83.008 93.78"/><polygon fill="#21201f" points="83.008 93.78 82.651 93.573 82.63 83.727 82.988 83.935"/><polygon fill="#434240" points="83.465 83.107 83.108 82.9 87.563 80.328 87.92 80.535"/><polygon fill="#21201f" points="87.92 80.535 87.563 80.328 87.542 70.482 87.9 70.69"/><polygon fill="#434240" points="78.535 85.954 78.178 85.746 82.629 83.176 82.986 83.384"/><polygon fill="#21201f" points="82.986 83.384 82.629 83.176 82.608 73.331 82.966 73.538"/><polygon fill="#434240" points="78.034 75.834 77.677 75.626 88.02 69.655 88.377 69.862"/><path fill="#383736" d="M78.0341721,75.8340302l10.3432312-5.9716644l0.045784,21.3432236l-10.3432236,6.0037003
																	L78.0341721,75.8340302z M87.9203415,80.5353851l-0.0205536-9.8457413l-4.4550095,2.5720978l0.0205536,9.8457489
																	L87.9203415,80.5353851 M87.9424591,90.9316254l-0.0205536-9.8456192l-4.4550171,2.5721054l0.0205536,9.8456116
																	L87.9424591,90.9316254 M82.9861526,83.38414l-0.020546-9.8457489l-4.4506989,2.5696106l0.0205536,9.8457489
																	L82.9861526,83.38414 M83.0082703,93.7803726l-0.0205536-9.8456116l-4.4506912,2.5696106l0.0205536,9.8776398
																	L83.0082703,93.7803726"/><polygon fill="#21201f" points="78.08 97.209 77.723 97.002 77.677 75.626 78.034 75.834"/><polygon fill="#fdfefe" points="68.014 101.914 66.616 101.101 77.745 94.676 79.143 95.489"/><polygon fill="#d9dddd" points="65.672 106.04 64.274 105.228 64.222 75.458 65.619 76.271"/><polygon fill="#b0b1b1" points="65.619 76.271 64.222 75.458 66.568 74.103 67.966 74.916"/><polygon fill="#eaefef" points="67.966 74.916 68.014 101.914 79.143 95.489 79.15 98.18 65.672 106.04 65.619 76.271"/><polygon fill="#cccece" points="89.821 92.019 88.423 91.207 88.416 88.515 89.814 89.328"/><polygon fill="#fdfefe" points="89.814 89.328 88.416 88.515 99.976 81.841 101.374 82.653"/><polygon fill="#cccece" points="101.374 82.653 99.976 81.841 99.928 61.532 101.326 62.344"/><polygon fill="#b0b1b1" points="101.326 62.344 99.928 61.532 102.275 60.177 103.672 60.99"/><polygon fill="#d9dddd" points="103.672 60.99 103.728 83.99 89.821 92.019 89.814 89.328 101.374 82.653 101.326 62.344"/><polygon fill="#242322" points="78.068 94.868 77.725 94.669 77.704 72.284 78.047 72.483"/><polygon fill="#3a3937" points="68.07 100.632 67.727 100.433 77.725 94.669 78.068 94.868"/><polygon fill="#242322" points="67.727 101.227 67.384 101.027 67.361 77.847 67.703 78.046"/><polygon fill="#3a3937" points="67.703 78.046 67.361 77.847 78.048 71.686 78.391 71.885"/><path fill="#343331" d="M67.7033615,78.0464172l10.6872177-6.1616211l0.0231857,23.1802139l-10.6872177,6.1616211
																	L67.7033615,78.0464172z M78.0680237,94.8679733L78.047081,72.483345l-9.9979782,5.7636871l0.0209351,22.3846359
																	L78.0680237,94.8679733"/><polygon fill="#d9dddd" points="64.449 72.655 64.449 78.335 25.839 56.095 25.928 50.414" enable-background="new"/><polygon fill="#eaefef" points="102.823 33.744 102.734 50.416 64.451 72.662 64.546 55.99"/><polygon fill="#d9dddd" points="64.544 55.99 64.454 72.661 25.927 50.453 26.018 33.747"/><polygon fill="#cccece" points="102.826 31.42 64.544 53.666 26.018 31.423 64.299 9.176"/><polygon fill="#7e8a8c" points="106.059 27.667 106.045 32.084 64.597 56.15 64.611 51.734"/><polygon fill="#8d9799" points="64.611 51.734 64.597 56.15 22.83 32.037 22.844 27.62"/><polygon fill="#8d9799" points="65.668 103.188 65.649 106.025 25.749 82.984 25.759 80.138"/><polygon fill="#a0a8aa" points="106.111 27.616 64.611 51.734 22.844 27.62 64.345 3.502"/><polygon fill="#8d9799" points="64.292 5.999 64.292 8.414 99.745 28.883 101.829 27.672"/><polygon fill="#7e8a8c" points="27.018 27.663 29.102 28.867 64.292 8.414 64.292 5.999"/><polygon fill="#434240" points="99.745 28.882 64.556 49.335 29.102 28.867 64.292 8.414"/><g><polygon fill="#242322" points="99.631 81.644 99.288 81.445 99.267 62.06 99.61 62.259"/><polygon fill="#3a3937" points="88.291 88.192 87.948 87.993 99.288 81.445 99.631 81.644"/><polygon fill="#242322" points="87.947 88.787 87.604 88.588 87.581 68.382 87.924 68.581"/><polygon fill="#3a3937" points="87.924 68.581 87.581 68.382 99.61 61.461 99.953 61.66"/><path fill="#343331" d="M87.9239883,68.5813141l12.0291519-6.9208145l0.0231857,20.1802139l-12.0291443,6.9465714
																	L87.9239883,68.5813141z M99.6305771,81.6436844L99.609642,62.2590485l-11.3399124,6.5228882l0.0209351,19.4103851
																	L99.6305771,81.6436844"/></g><g><polygon fill="#cccece" points="63.46 33.311 63.453 35.592 56.648 39.547 56.655 37.266"/><polygon fill="#eaefef" points="56.655 37.266 56.648 39.547 50.63 36.072 50.636 33.791"/><polygon fill="#fff" points="63.452 31.394 63.46 33.311 56.655 37.266 50.636 33.791 59.092 28.877"/></g><path fill="#38425d" d="M59.0836754,34.4106407c-0.9576492,0.5524406-2.5087547,0.5565376-3.4705009,0
														c-0.9617462-0.552536-0.9617462-1.4528847-0.008194-2.0095177c0.9535789-0.5565376,2.5087547-0.5565376,3.4705276,0
														C60.0372543,32.957756,60.0372543,33.8540077,59.0836754,34.4106407z"/><g><polygon fill="#cccece" points="51.893 26.601 51.887 28.883 45.082 32.837 45.088 30.556"/><polygon fill="#eaefef" points="45.088 30.556 45.082 32.837 39.063 29.362 39.069 27.081"/><polygon fill="#fff" points="51.885 24.684 51.893 26.601 45.088 30.556 39.069 27.081 47.525 22.167"/></g><path fill="#38425d" d="M47.5168076,27.7008591c-0.9576492,0.5524387-2.5087509,0.5565338-3.4704971,0
														c-0.9617462-0.5525379-0.9617462-1.4528866-0.008194-2.0095215c0.9535789-0.5565338,2.5087547-0.5565338,3.4705238,0
														C48.4703865,26.2479725,48.4703865,27.1442242,47.5168076,27.7008591z"/><polygon fill="#eaefef" points="122.104 89.542 117.187 92.399 114.988 91.13 119.905 88.273"/><polygon fill="#eaefef" points="114.44 93.996 109.524 96.853 107.325 95.584 112.242 92.726"/><polygon fill="#eaefef" points="106.774 98.451 101.857 101.308 99.659 100.039 104.575 97.181"/><polygon fill="#eaefef" points="99.111 102.904 94.194 105.762 91.995 104.492 96.912 101.635"/><polygon fill="#eaefef" points="91.444 107.359 86.528 110.217 84.329 108.947 89.246 106.09"/><polygon fill="#eaefef" points="83.781 111.813 78.864 114.67 76.666 113.401 81.582 110.544"/><polygon fill="#eaefef" points="76.115 116.268 71.198 119.125 68.999 117.856 73.916 114.999"/><g><polygon fill="#eaefef" points="12.151 88.564 17.067 91.422 19.266 90.152 14.349 87.295"/><polygon fill="#eaefef" points="19.814 93.018 24.731 95.875 26.929 94.606 22.013 91.748"/><polygon fill="#eaefef" points="27.48 97.473 32.397 100.33 34.596 99.061 29.679 96.204"/><polygon fill="#eaefef" points="35.144 101.926 40.06 104.784 42.259 103.514 37.342 100.657"/><polygon fill="#eaefef" points="42.81 106.382 47.727 109.239 49.925 107.969 45.008 105.112"/><polygon fill="#eaefef" points="50.473 110.835 55.39 113.692 57.589 112.423 52.672 109.566"/><polygon fill="#eaefef" points="58.14 115.29 63.056 118.147 65.255 116.878 60.338 114.021"/></g><g><polygon fill="#eaefef" points="68.049 80.41 68.1 101.846 66.701 102.872 66.381 79.449"/></g><g><polygon fill="#eaefef" points="102.734 50.416 102.734 56.089 64.45 78.332 64.45 72.658"/></g><g><polygon fill="#dda450" points="69.126 48.439 67.959 47.761 67.937 39.874 69.103 40.552"/><polygon fill="#ffd06c" points="69.103 40.552 67.937 39.874 98.148 22.431 99.315 23.109"/><polygon fill="#f9c15f" points="99.315 23.109 99.337 30.996 69.126 48.439 69.103 40.552"/><polygon fill="#38425d" points="74.126 40.14 74.144 43.35 73.536 43.701 73.526 41.775 72.708 43.843 72.415 44.011 71.592 42.933 71.597 44.82 70.99 45.171 70.981 41.955 71.516 41.646 72.57 43.042 73.595 40.446"/><path fill="#38425d" d="M77.3107224 38.3009567l.0051117 1.8041229c.0013351.470417-.1101074.8972168-.3298187 1.2777863-.2242279.3831635-.5342789.6916199-.9346695.9227867-.400383.231163-.7111664.2811432-.9323273.1551247-.2256622-.123436-.3391495-.420372-.340477-.890789l-.0051193-1.8041229.6478195-.3740196.0050278 1.7731171c.0016403.5789719.2138901.7412109.6277771.5022545.202446-.1168823.3552094-.2723961.4627838-.4743156.1075821-.2019005.1609497-.4501801.1601028-.7500076l-.0050278-1.7731171L77.3107224 38.3009567zM78.9661102 37.2882576c.1754456-.1012917.350975-.176754.5220642-.2237396.1710892-.0521812.3197556-.0655327.4504929-.047802l-.2008514.6803398c-.2569122-.0225372-.518074.0454102-.7745056.1934586-.1799545.1038971-.3148117.2179947-.4000931.334549-.089798.1191597-.1300354.2304039-.1297226.3389587.0003052.1085739.0500259.1627045.1491547.162426.0991211-.0054512.2522278-.0420685.4593201-.1098366.2116165-.0600624.3872375-.1044998.5223541-.1255379.1351166-.0210533.2523575.0044556.3516769.0713806.0993423.0720978.1448135.216713.1454086.4286537.0005264.1861038-.0439835.3774948-.1290359.5767632-.0895309.2070236-.2241669.4038467-.403862.5956078-.175209.1891899-.3955002.3629761-.6519318.5110245-.2204437.1272736-.4319916.2131729-.6391296.2654457-.2071304.0522766-.3738556.055336-.5001221.0194855l.2188644-.6855621c.1217346.0280914.2614288.0302925.4280624-.0037804.1666336-.0340691.333168-.1043358.4951096-.197834.1844559-.1064987.3193283-.2154236.4091187-.3294029.0898132-.113987.1300659-.2200813.129776-.3234634-.0002213-.077549-.0228958-.1265717-.077034-.1471138-.0541306-.0205231-.117218-.0255165-.1982956-.0097694-.085556.018322-.1936188.0496521-.3331757.0939713-.2116089.0652122-.3872452.1044807-.5223618.1255341-.1351166.0210571-.2523499-.0044518-.3516922-.0765495-.0993347-.0720978-.1448059-.2167168-.1454239-.4338264-.0005264-.1861.0394745-.3800659.1290207-.5819321.0850449-.1992531.2196732-.4012489.3948669-.5904121C78.493866 37.6075058 78.7096786 37.4363098 78.9661102 37.2882576z"/><polygon fill="#38425d" points="81.148 36.085 81.157 39.301 80.509 39.675 80.5 36.459"/><path fill="#38425d" d="M83.1544571 34.8701134c.2429352-.140255.4635239-.2158356.6572418-.2293053.1982269-.0160522.3605804.0300026.4960632.1381874l-.4126434.6783676c-.1896591-.1442184-.4284363-.1306305-.7073669.0304108-.1709595.0987015-.32827.2361221-.4630127.3967667-.1347046.1657906-.2423248.3521957-.3183746.5514488-.0715332.1966286-.1115036.4009361-.1109467.5973625.0005722.2016144.0415573.3540001.1139679.4675217.0769424.1161079.1852493.1726685.3204575.182621.1352234.0099602.292778-.0395889.4637375-.1382904.2789307-.1610413.5170059-.4227676.7052307-.7851601l.4151382.2004509c-.1344299.264019-.2959824.5022621-.4936447.7147751-.1976624.2124977-.4179764.3862915-.6609039.5265465-.283432.1636391-.5400696.2393112-.7743912.2348099-.2298584-.0122833-.4103546-.1048203-.5460358-.2802086-.1311874-.1779785-.1994781-.4233322-.200386-.7438431-.0009003-.3153267.0657654-.6437759.1955261-.9724121.1342545-.3260536.3136215-.6315422.5426712-.9035912C82.6103058 35.2567787 82.8665314 35.0363503 83.1544571 34.8701134zM86.8884354 32.7143021c.1799469-.1038895.3554764-.1793518.5265656-.2263374.1710892-.0521812.3197556-.0655365.4459915-.0452042l-.1963501.677742c-.2614136-.0199432-.518074.0454063-.779007.1960564-.1799545.1038971-.3148117.2179947-.4000931.3345451-.0852966.1165619-.1300354.2304077-.1297226.3389626.0003052.1085739.0500259.1627007.1491547.1624222.1036224-.0080452.2567291-.0446625.4593201-.1098366.2161179-.0626564.3872375-.104496.5268555-.1281319.1351166-.0210571.2523575.0044518.3471756.0739784.0993423.0720978.1493073.2141151.14991.4260559.0005264.1861-.0439911.377491-.1335373.579361-.0895309.2070198-.2241669.4038467-.3993607.5930099-.1797104.1917877-.3955231.3629837-.651947.5110321-.2204361.1272659-.4364777.2157631-.6436157.2680359-.2071304.0522728-.3738556.055336-.4956207.0168877l.2143631-.6829643c.1217346.0280876.2659302.0276947.4325638-.0063782.1621323-.0314713.3286667-.101738.4951096-.197834.1844559-.1064987.3193283-.2154236.4046173-.3268051.0898132-.113987.1345673-.2226791.1342697-.3260612-.0002136-.077549-.0273972-.1239777-.0815277-.144516-.0496292-.0231247-.117218-.0255203-.1982956-.0097694-.0810547.0157242-.1936188.0496521-.3286743.0913734-.2161102.0678101-.3917465.1070786-.5268631.1281319s-.2523575-.0044518-.3516922-.0765495c-.094841-.0746956-.1448059-.2167168-.1454239-.4338264-.0005264-.1861038.0439758-.3826637.1290207-.5819359.0895462-.2018509.2196655-.4012451.3993607-.5930061C86.4161911 33.0335503 86.6320038 32.8623543 86.8884354 32.7143021z"/><polygon fill="#38425d" points="90.991 30.402 91.001 33.618 90.353 33.992 90.349 32.674 89.076 33.409 89.08 34.727 88.432 35.101 88.423 31.885 89.07 31.511 89.074 32.778 90.347 32.043 90.344 30.776"/><path fill="#38425d" d="M94.3452072 29.2220764c.1311722.17799.1994629.4233303.2003555.7386513.0009003.3153477-.0657806.6386395-.1955185.9672699-.1342545.3312092-.3136597.6315403-.5471649.9113407-.2290421.2772198-.4942703.5028515-.7821808.6690769-.2924194.1688309-.5535431.2470856-.7878952.2374077-.2343597-.0096779-.4148712-.1022148-.5505371-.2775841-.1311722-.1779938-.1994705-.4233589-.2003632-.7387066-.0008926-.315321.0657883-.638586.1955261-.9672165.1342316-.3312225.3136292-.6315536.5471649-.9113674.2335358-.2798119.4942474-.5028114.7866669-.6716423.2879105-.1662235.5535431-.2471123.7834091-.2348404C94.0289993 28.954155 94.2095108 29.0466919 94.3452072 29.2220764zM93.7777786 30.9373322c.0760345-.1992168.1160507-.3983707.1154785-.5999928-.0005569-.1964073-.0415878-.3539677-.1184921-.4648838-.0769348-.1109314-.1807251-.1752853-.3159485-.1852264-.1306915-.0073891-.2792969.0318031-.445755.1279068-.1664581.0961056-.3147659.2283382-.4495087.3889713-.1302032.1631889-.2378311.3496056-.3093719.5462551-.0760498.1992283-.1160049.4035435-.115448.5999508.0005722.201622.0415344.3540211.1184692.4649258.0724335.1187248.180748.1752701.3114548.1878204.1352158.0099678.283783-.0343971.4502411-.1305027.1664581-.0961037.3148117-.2231636.445015-.3863773C93.5986404 31.3203831 93.7017441 31.1417751 93.7777786 30.9373322M97.3093033 27.3036308c.099472.1186218.1495361.2968407.1502075.5346413.0006714.2377739-.0482254.4679317-.146698.7008381-.098465.2380924-.2375717.453022-.4172363.6499615-.1841812.1995468-.4000092.3707294-.6474228.5135765l-.5623474.3246708.0025024.8839798-.6478424.3740311-.0091095-3.2153797 1.2101822-.6987038c.2474213-.1428471.4635086-.2210007.6482315-.2292747C97.0699692 27.1311436 97.2098389 27.1850338 97.3093033 27.3036308zM96.6553955 28.7115726c.0987091-.150198.1478119-.3183594.147316-.4940948-.0005188-.1809521-.0504074-.2919579-.1496582-.3330078-.1037292-.0333214-.2523422.0007095-.4457932.1123981l-.5263519.3038864.0031662 1.1165924.5263443-.3038864C96.4038773 29.0017719 96.5522156 28.869524 96.6553955 28.7115726"/></g><g><polygon fill="#8d9096" points="95.964 40.35 95.967 41.628 94.855 42.27 94.851 40.992"/></g><g><polygon fill="#8d9096" points="88.858 44.275 88.861 45.553 87.749 46.196 87.745 44.917"/></g><g><polygon fill="#8d9096" points="81.752 48.282 81.755 49.56 80.643 50.203 80.639 48.924"/></g><g><polygon fill="#8d9096" points="74.646 52.373 74.649 53.651 73.537 54.294 73.533 53.016"/></g><g><polygon fill="#8d9096" points="67.54 56.372 67.543 57.65 66.431 58.292 66.427 57.014"/></g><g><path fill="#f1c40f" d="M71.9082718,63.4312363L71.90522,64.1569901c0,0.0456848-0.0274124,0.0913696-0.088295,0.124855
									l-1.2728195,0.7399368c-0.1218033,0.0700302-0.3105927,0.0700302-0.4293594,0l-2.1741409-1.2545433
									c-0.0608902-0.0365372-0.0913467-0.082222-0.0913467-0.1278839v-0.7227249
									c0,0.0456619,0.0304565,0.0913467,0.0913467,0.124836l2.1741409,1.2575912
									c0.1187668,0.0669861,0.3106003,0.0669861,0.4293594,0l1.2728195-0.739933
									C71.8778076,63.522583,71.9082718,63.476902,71.9082718,63.4312363z"/><path fill="#3f434f" d="M72.1728973,63.1310349l-0.0034409,0.2936745c0,0.0516396-0.0309906,0.1032791-0.0998154,0.1411362
											l-1.4387817,0.836422c-0.1376877,0.079155-0.3510971,0.079155-0.4853363,0l-2.4576416-1.418129
											c-0.0688248-0.0413055-0.1032562-0.0929451-0.1032562-0.1445618V62.549324
											c0,0.0516205,0.0344315,0.1032562,0.1032562,0.1411171l2.4576416,1.4215736
											c0.1342392,0.0757141,0.3510971,0.0757141,0.4853363,0l1.4387817-0.836422
											C72.1384659,63.2342911,72.1728973,63.1826515,72.1728973,63.1310349z"/><path fill="#5b5e71" d="M72.0703888,63.0027962c0.1362534,0.0786667,0.1347656,0.204277-0.0005951,0.2829437
											l-1.4388351,0.8361549c-0.1353683,0.0786743-0.350029,0.0786667-0.4862823,0.0000076l-2.4569626-1.4185295
											c-0.1362534-0.0786667-0.1391602-0.204277-0.0037842-0.2829475l1.4388275-0.8361549
											c0.1353683-0.0786667,0.3544235-0.0786667,0.4906769,0L72.0703888,63.0027962z"/><path fill="#c4c6c6" d="M69.9351196,60.2123413c-0.1374893-1.0083961-0.8250885-2.0855446-1.6500854-2.5668144
												l-1.1157608-0.6585236l-0.4370346,0.2410202l1.1402664,0.6580963
												c0.8364716,0.4698486,1.524025,1.5585022,1.6501389,2.5669022l0.3551941,2.7387009l0.401062-0.240593
												L69.9351196,60.2123413z"/><path fill="#e0e2e2" d="M69.5280991,60.4546089c-0.0108261-0.0651398-0.0162735-0.1248245-0.0325546-0.1899223
												c-0.1356888-0.7000923-0.5263977-1.4110451-1.0311127-1.9211693
												c-0.0922775-0.0922813-0.1845551-0.1791039-0.2822418-0.2550659
												c-0.0488205-0.038002-0.103096-0.0760002-0.1519623-0.108551
												c-0.0488205-0.038002-0.0976868-0.0651398-0.1519241-0.0976868l-1.1460648-0.6594696v0.7000885l1.1460648,0.6594696
												c0.5263977,0.3038864,0.9605637,0.9931564,1.0473938,1.6335182l0.3527908,2.7460442l0.5969467,0.2279243h0.0054092
												v-0.0053673L69.5280991,60.4546089z"/><path fill="#f1c40f" d="M79.0004959,59.3875847l-0.0030441,0.7257576c0,0.045681-0.0274124,0.091362-0.0883026,0.124855
									l-1.2728119,0.7399368c-0.1218109,0.0700302-0.3106003,0.0700302-0.4293594,0l-2.1741486-1.2545471
									c-0.0608826-0.0365372-0.0913467-0.082222-0.0913467-0.1278839v-0.7227249
									c0,0.0456619,0.0304642,0.0913467,0.0913467,0.124836l2.1741486,1.2575951
									c0.1187592,0.0669785,0.3106003,0.0669785,0.4293594,0l1.2728119-0.7399368
									C78.9700394,59.4789314,79.0004959,59.4332504,79.0004959,59.3875847z"/><path fill="#3f434f" d="M79.2651291,59.0873833l-0.0034485,0.2936745c0,0.0516396-0.030983,0.1032791-0.0998077,0.1411362
											l-1.4387817,0.8364182c-0.1376877,0.0791626-0.3510971,0.0791626-0.4853439,0l-2.457634-1.4181252
											c-0.0688248-0.0413055-0.1032562-0.0929451-0.1032562-0.1445618v-0.2902527
											c0,0.0516167,0.0344315,0.1032562,0.1032562,0.1411171l2.457634,1.4215698
											c0.1342468,0.0757179,0.3510971,0.0757179,0.4853439,0l1.4387817-0.8364182
											C79.2306976,59.1906395,79.2651291,59.1389999,79.2651291,59.0873833z"/><path fill="#5b5e71" d="M79.1626205,58.9591446c0.1362534,0.0786667,0.1347656,0.204277-0.0006027,0.2829437
											l-1.4388275,0.8361588c-0.1353683,0.0786667-0.3500366,0.0786667-0.48629,0l-2.456955-1.4185257
											c-0.1362534-0.0786667-0.1391602-0.204277-0.0037842-0.2829475l1.4388275-0.8361549
											c0.1353607-0.0786667,0.3544159-0.0786667,0.4906693,0L79.1626205,58.9591446z"/><path fill="#c4c6c6" d="M77.0273514,56.1686897c-0.1374893-1.0083961-0.8250885-2.0855446-1.6500931-2.5668144
												l-1.1157532-0.6585236l-0.4370346,0.2410202l1.1402664,0.6580963
												c0.8364716,0.4698486,1.5240173,1.5585022,1.6501389,2.5668983l0.3551941,2.7387047l0.401062-0.240593
												L77.0273514,56.1686897z"/><path fill="#e0e2e2" d="M76.6203232,56.4109573c-0.0108185-0.0651398-0.0162735-0.1248245-0.032547-0.1899223
												c-0.1356888-0.7000923-0.5263977-1.4110451-1.0311127-1.9211693
												c-0.0922775-0.0922813-0.1845551-0.1791039-0.2822418-0.2550659
												c-0.0488281-0.038002-0.1031036-0.0760002-0.1519623-0.108551
												c-0.0488281-0.038002-0.0976944-0.0651398-0.1519241-0.0976868l-1.1460648-0.6594696v0.7000885l1.1460648,0.6594696
												c0.5263977,0.3038864,0.9605637,0.9931564,1.0473862,1.6335182l0.3527985,2.7460442l0.5969467,0.2279243h0.0054092
												V59.14077L76.6203232,56.4109573z"/><g><path fill="#f1c40f" d="M86.0927277,55.3439331l-0.0030518,0.7257576c0,0.045681-0.0274124,0.091362-0.088295,0.124855
									l-1.2728119,0.7399368c-0.1218109,0.0700302-0.3106003,0.0700302-0.4293594,0l-2.1741486-1.2545471
									c-0.0608826-0.0365372-0.0913467-0.082222-0.0913467-0.1278839v-0.7227249
									c0,0.0456619,0.0304642,0.0913467,0.0913467,0.124836l2.1741486,1.2575912
									c0.1187592,0.0669823,0.3105927,0.0669823,0.4293594,0l1.2728119-0.7399368
									C86.0622635,55.4352798,86.0927277,55.3895988,86.0927277,55.3439331z"/><path fill="#3f434f" d="M86.3573608,55.0437317l-0.0034485,0.2936745c0,0.0516396-0.0309906,0.1032791-0.0998154,0.1411362
											l-1.4387741,0.8364182c-0.1376953,0.0791626-0.3510971,0.0791626-0.4853439,0l-2.457634-1.4181252
											c-0.0688248-0.0413055-0.1032639-0.0929451-0.1032639-0.1445618v-0.2902527
											c0,0.0516167,0.0344391,0.1032562,0.1032639,0.1411171l2.457634,1.4215698
											c0.1342468,0.0757179,0.3510971,0.0757179,0.4853439,0l1.4387741-0.8364182
											C86.3229218,55.1469879,86.3573608,55.0953484,86.3573608,55.0437317z"/><path fill="#5b5e71" d="M86.2548523,54.915493c0.1362534,0.0786667,0.1347656,0.204277-0.0006027,0.2829437
											l-1.4388275,0.8361588c-0.135376,0.0786667-0.3500366,0.0786667-0.48629,0l-2.456955-1.4185257
											c-0.1362534-0.0786667-0.1391602-0.204277-0.0037918-0.2829475l1.4388351-0.8361549
											c0.1353607-0.0786667,0.3544159-0.0786667,0.4906693,0L86.2548523,54.915493z"/><g><path fill="#c4c6c6" d="M84.1195831,52.1250381c-0.1374969-1.0083961-0.8250885-2.0855446-1.6500931-2.5668144
												l-1.1157608-0.6585236l-0.437027,0.2410202l1.1402664,0.6580963
												c0.8364639,0.4698486,1.5240173,1.5585022,1.6501312,2.5668983l0.3552017,2.7387047l0.4010544-0.240593
												L84.1195831,52.1250381z"/><path fill="#e0e2e2" d="M83.7125549,52.3673058c-0.0108185-0.0651398-0.0162735-0.1248245-0.032547-0.1899223
												c-0.1356888-0.7000923-0.5263977-1.4110451-1.0311127-1.9211731
												c-0.0922775-0.0922775-0.1845551-0.1791-0.2822495-0.2550621c-0.0488205-0.038002-0.103096-0.0760002-0.1519623-0.108551
												c-0.0488205-0.038002-0.0976868-0.0651398-0.1519165-0.0976868l-1.1460648-0.6594696v0.7000885l1.1460648,0.6594696
												c0.5263977,0.3038864,0.9605637,0.9931564,1.0473862,1.6335182l0.3527908,2.7460442l0.5969543,0.2279243h0.0054092
												v-0.0053673L83.7125549,52.3673058z"/></g></g><g><path fill="#f1c40f" d="M93.1849594,51.3002815l-0.0030518,0.7257538c0,0.0456848-0.0274124,0.0913658-0.088295,0.1248589
									l-1.2728195,0.7399368c-0.1218033,0.0700302-0.3105927,0.0700302-0.4293594,0l-2.1741409-1.2545471
									c-0.0608902-0.0365372-0.0913467-0.082222-0.0913467-0.1278839V50.785675
									c0,0.0456619,0.0304565,0.0913467,0.0913467,0.124836l2.1741409,1.2575912
									c0.1187668,0.0669823,0.3106003,0.0669823,0.4293594,0l1.2728195-0.7399368
									C93.1544952,51.3916283,93.1849594,51.3459473,93.1849594,51.3002815z"/><path fill="#3f434f" d="M93.449585,51.0000801l-0.0034409,0.2936745c0,0.0516396-0.0309906,0.1032791-0.0998154,0.1411362
											l-1.4387817,0.8364182c-0.1376877,0.0791626-0.3510971,0.0791626-0.4853363,0l-2.4576416-1.4181252
											c-0.0688248-0.0413055-0.1032562-0.0929451-0.1032562-0.1445618v-0.2902527
											c0,0.0516167,0.0344315,0.1032562,0.1032562,0.1411171l2.4576416,1.4215698
											c0.1342392,0.0757179,0.3510971,0.0757179,0.4853363,0l1.4387817-0.8364182
											C93.4151535,51.1033363,93.449585,51.0516968,93.449585,51.0000801z"/><path fill="#5b5e71" d="M93.3470764,50.8718414c0.1362534,0.0786629,0.1347656,0.204277-0.0005951,0.2829437
											l-1.4388351,0.8361549c-0.1353683,0.0786705-0.350029,0.0786705-0.4862823,0.0000038l-2.4569626-1.4185257
											c-0.1362534-0.0786667-0.1391602-0.204277-0.0037842-0.2829475l1.4388275-0.8361549
											c0.1353683-0.0786667,0.3544235-0.0786667,0.4906769,0L93.3470764,50.8718414z"/><g><path fill="#c4c6c6" d="M91.2118073,48.0813866c-0.1374893-1.0083961-0.8250885-2.0855446-1.6500854-2.5668144
												l-1.1157608-0.6585236l-0.4370346,0.2410202l1.1402664,0.6580963
												c0.8364716,0.4698486,1.524025,1.5585022,1.6501389,2.5668983l0.3551941,2.7387047l0.401062-0.240593
												L91.2118073,48.0813866z"/><path fill="#e0e2e2" d="M90.8047867,48.3236542c-0.0108261-0.0651398-0.0162735-0.1248245-0.0325546-0.1899223
												c-0.1356888-0.7000923-0.5263977-1.4110451-1.0311127-1.9211731
												c-0.0922775-0.0922775-0.1845551-0.1791-0.2822418-0.2550621c-0.0488205-0.038002-0.103096-0.076004-0.1519623-0.108551
												c-0.0488205-0.038002-0.0976868-0.0651398-0.1519241-0.0976868l-1.1460648-0.6594696v0.7000885l1.1460648,0.6594696
												c0.5263977,0.3038864,0.9605637,0.9931564,1.0473938,1.6335182l0.3527908,2.7460442l0.5969467,0.2279243h0.0054092
												v-0.0053673L90.8047867,48.3236542z"/></g></g><g><path fill="#f1c40f" d="M100.2771835,47.2566299l-0.0030441,0.7257538c0,0.0456848-0.0274124,0.0913658-0.0883026,0.1248589
									l-1.2728119,0.7399368c-0.1218109,0.0700302-0.3106003,0.0700302-0.4293594,0l-2.1741486-1.2545471
									c-0.0608826-0.0365372-0.0913467-0.082222-0.0913467-0.1278839v-0.7227287
									c0,0.0456657,0.0304642,0.0913467,0.0913467,0.1248398l2.1741486,1.2575912
									c0.1187592,0.0669823,0.3106003,0.0669823,0.4293594,0l1.2728119-0.7399368
									C100.246727,47.3479767,100.2771835,47.3022957,100.2771835,47.2566299z"/><path fill="#3f434f" d="M100.5418167,46.9564285l-0.0034485,0.2936745c0,0.0516396-0.030983,0.1032791-0.0998077,0.1411362
											l-1.4387817,0.8364182c-0.1376877,0.0791626-0.3510971,0.0791626-0.4853439,0l-2.457634-1.4181252
											c-0.0688248-0.0413055-0.1032562-0.0929451-0.1032562-0.1445618v-0.2902527
											c0,0.0516167,0.0344315,0.1032562,0.1032562,0.1411171l2.457634,1.4215698
											c0.1342468,0.0757179,0.3510971,0.0757179,0.4853439,0l1.4387817-0.8364182
											C100.5073853,47.0596848,100.5418167,47.0080452,100.5418167,46.9564285z"/><path fill="#5b5e71" d="M100.4393082,46.8281898c0.1362534,0.0786629,0.1347656,0.204277-0.0006027,0.2829437
											l-1.4388275,0.8361549c-0.1353683,0.0786705-0.3500366,0.0786705-0.48629,0.0000038l-2.456955-1.4185257
											c-0.1362534-0.0786667-0.1391602-0.204277-0.0037842-0.2829475l1.4388275-0.8361549
											c0.1353607-0.0786667,0.3544159-0.0786667,0.4906693,0L100.4393082,46.8281898z"/><g><path fill="#c4c6c6" d="M98.304039,44.037735c-0.1374893-1.0083961-0.8250885-2.0855446-1.6500931-2.5668144
												l-1.1157532-0.6585236l-0.4370346,0.2410202l1.1402664,0.6580963
												c0.8364716,0.4698486,1.524025,1.5585022,1.6501389,2.5668983l0.3551941,2.7387047l0.401062-0.240593
												L98.304039,44.037735z"/><path fill="#e0e2e2" d="M97.8970108,44.2800026c-0.0108185-0.0651398-0.0162735-0.1248245-0.032547-0.1899223
												c-0.1356888-0.7000923-0.5263977-1.4110451-1.0311127-1.9211731
												c-0.0922775-0.0922775-0.1845551-0.1791-0.2822418-0.2550621c-0.0488205-0.038002-0.1031036-0.076004-0.1519623-0.108551
												c-0.0488281-0.038002-0.0976944-0.0651398-0.1519241-0.0976868l-1.1460648-0.6594696v0.7000885l1.1460648,0.6594696
												c0.5263977,0.3038864,0.9605637,0.9931564,1.0473862,1.6335182l0.3527985,2.7460442l0.5969467,0.2279243h0.0054092
												v-0.0053673L97.8970108,44.2800026z"/></g></g></g><g opacity=".3"><g opacity=".2"><polygon fill="#fff" points="99.35 68.839 88.423 83.838 88.423 87.713 99.35 72.715"/><polygon fill="#fff" points="99.35 65.704 90.396 65.704 88.423 68.412 88.423 80.746 99.35 65.748"/></g><g opacity=".2"><polygon fill="#fff" points="99.35 68.839 88.423 83.838 88.423 87.713 99.35 72.715"/><polygon fill="#fff" points="99.35 65.704 90.396 65.704 88.423 68.412 88.423 80.746 99.35 65.748"/></g><g opacity=".2"><polygon fill="#fff" points="99.35 68.839 88.423 83.838 88.423 87.713 99.35 72.715"/><polygon fill="#fff" points="99.35 65.704 90.396 65.704 88.423 68.412 88.423 80.746 99.35 65.748"/></g></g><g opacity=".3"><g opacity=".2"><polygon fill="#fff" points="77.704 83.214 68.1 96.397 68.1 100.273 77.767 87.004"/><polygon fill="#fff" points="77.704 78.35 70.072 78.264 68.1 80.971 68.1 93.306 77.704 80.123"/></g><g opacity=".2"><polygon fill="#fff" points="77.704 83.214 68.1 96.397 68.1 100.273 77.704 87.09"/><polygon fill="#fff" points="77.704 78.35 70.072 78.264 68.1 80.971 68.1 93.306 77.704 80.123"/></g></g><g><polygon fill="#f9c15f" points="100.118 55.069 102.868 53.471 107.544 59.067 104.794 60.665"/><polygon fill="#dda450" points="104.794 60.665 107.544 59.067 107.539 60.74 104.789 62.338"/><polygon fill="#823030" points="100.118 55.069 104.794 60.665 104.789 62.338 100.105 59.633"/><polygon fill="#f3516f" points="97.392 56.66 100.142 55.062 104.818 60.657 102.068 62.255"/><polygon fill="#d63a63" points="102.068 62.255 104.818 60.657 104.813 62.331 102.063 63.928"/><polygon fill="#823030" points="97.392 56.66 102.068 62.255 102.063 63.928 97.379 61.224"/><polygon fill="#f9c15f" points="94.666 58.251 97.416 56.653 102.092 62.248 99.342 63.846"/><polygon fill="#dda450" points="99.342 63.846 102.092 62.248 102.087 63.921 99.337 65.519"/><polygon fill="#823030" points="94.666 58.251 99.342 63.846 99.337 65.519 94.653 62.815"/><polygon fill="#f3516f" points="91.94 59.842 94.69 58.244 99.366 63.839 96.616 65.437"/><polygon fill="#d63a63" points="96.616 65.437 99.366 63.839 99.361 65.512 96.611 67.11"/><polygon fill="#823030" points="91.94 59.842 96.616 65.437 96.611 67.11 91.927 64.406"/><polygon fill="#f9c15f" points="89.194 61.439 91.944 59.841 96.62 65.436 93.87 67.034"/><polygon fill="#dda450" points="93.87 67.034 96.62 65.436 96.615 67.109 93.866 68.707"/><polygon fill="#823030" points="89.194 61.439 93.87 67.034 93.866 68.707 89.181 66.003"/><g><polygon fill="#f3516f" points="86.455 63.03 89.204 61.432 93.88 67.027 91.131 68.625"/><polygon fill="#d63a63" points="91.131 68.625 93.88 67.027 93.876 68.7 91.126 70.298"/><polygon fill="#823030" points="86.455 63.03 91.131 68.625 91.126 70.298 86.442 67.594"/></g><g><polygon fill="#f9c15f" points="83.705 64.628 86.455 63.03 91.131 68.625 88.381 70.223"/><polygon fill="#dda450" points="88.381 70.223 91.131 68.625 91.126 70.298 88.376 71.896"/><polygon fill="#823030" points="83.705 64.628 88.381 70.223 88.376 71.896 83.692 69.192"/></g><g><polygon fill="#f3516f" points="80.955 66.226 83.705 64.628 88.381 70.223 85.631 71.821"/><polygon fill="#d63a63" points="85.631 71.821 88.381 70.223 88.376 71.896 85.626 73.494"/><polygon fill="#823030" points="80.955 66.226 85.631 71.821 85.626 73.494 80.942 70.79"/></g><g><polygon fill="#f9c15f" points="78.205 67.824 80.955 66.226 85.631 71.821 82.881 73.419"/><polygon fill="#dda450" points="82.881 73.419 85.631 71.821 85.626 73.494 82.876 75.092"/><polygon fill="#823030" points="78.205 67.824 82.881 73.419 82.876 75.092 78.192 72.388"/></g><g><polygon fill="#f3516f" points="75.456 69.421 78.205 67.824 82.881 73.419 80.131 75.017"/><polygon fill="#d63a63" points="80.131 75.017 82.881 73.419 82.876 75.092 80.127 76.69"/><polygon fill="#823030" points="75.456 69.421 80.131 75.017 80.127 76.69 75.443 73.986"/></g><g><polygon fill="#f9c15f" points="72.706 71.019 75.456 69.421 80.131 75.017 77.382 76.615"/><polygon fill="#dda450" points="77.382 76.615 80.131 75.017 80.127 76.69 77.377 78.288"/><polygon fill="#823030" points="72.706 71.019 77.382 76.615 77.377 78.288 72.693 75.584"/></g><g><polygon fill="#f3516f" points="69.956 72.617 72.706 71.019 77.382 76.615 74.632 78.213"/><polygon fill="#d63a63" points="74.632 78.213 77.382 76.615 77.377 78.288 74.627 79.886"/><polygon fill="#823030" points="69.956 72.617 74.632 78.213 74.627 79.886 69.943 77.182"/></g><g><polygon fill="#f9c15f" points="67.206 74.215 69.956 72.617 74.632 78.213 71.882 79.811"/><polygon fill="#dda450" points="71.882 79.811 74.632 78.213 74.627 79.886 71.877 81.484"/><polygon fill="#823030" points="67.206 74.215 71.882 79.811 71.877 81.484 67.193 78.78"/></g><g><polygon fill="#f3516f" points="64.427 75.799 67.206 74.215 71.882 79.811 69.132 81.409"/><polygon fill="#d63a63" points="69.132 81.409 71.882 79.811 71.877 81.484 69.128 83.082"/><polygon fill="#c92d5d" points="64.427 75.799 69.132 81.409 69.128 83.082 64.414 80.363"/></g></g><g><polygon fill="#d9dddd" points="101.188 49.796 101.192 51.072 98.746 52.484 98.742 51.209"/><polygon fill="#d9dddd" points="100.488 51.895 100.492 53.17 98.046 54.583 98.042 53.307"/></g><g><polygon fill="#d9dddd" points="83.34 59.951 83.344 61.227 80.898 62.639 80.894 61.363"/><polygon fill="#d9dddd" points="82.64 62.05 82.644 63.325 80.198 64.738 80.194 63.462"/></g><g><polygon fill="#d9dddd" points="70.208 66.664 70.212 67.939 67.766 69.351 67.762 68.076"/><polygon fill="#d9dddd" points="69.508 68.763 69.512 70.038 67.066 71.45 67.062 70.175"/></g><g><polygon fill="#434240" points="36.88 61.507 36.88 61.895 36.871 63.983 36.866 66.113 36.853 71.02 36.821 80.614 29.693 76.496 29.693 57.358"/><polygon fill="#fdfefe" points="36.88 61.895 36.871 63.983 29.693 68.083 29.693 65.994" opacity=".2"/><polygon fill="#fdfefe" points="36.866 66.113 36.853 71.02 29.693 75.101 29.693 70.208" opacity=".2"/><polygon fill="#cccece" points="37.621 80.897 37.618 81.745 35.018 83.256 35.021 82.408"/><polygon fill="#cccece" points="35.021 82.408 35.018 83.256 27.319 78.82 27.321 77.972"/><polygon fill="#fdfefe" points="37.621 80.897 35.021 82.408 27.321 77.972 29.921 76.461"/><polygon fill="#fdfefe" points="29.871 76.497 30.669 76.034 36.889 79.625 36.091 80.088"/><polygon fill="#cccece" points="29.896 67.519 30.695 67.055 30.669 76.034 29.871 76.497"/><polygon fill="#fdfefe" points="29.899 66.672 30.697 66.208 36.917 69.799 36.119 70.263"/><polygon fill="#cccece" points="29.924 57.697 30.722 57.233 30.697 66.208 29.899 66.672"/><polygon fill="#cccece" points="36.884 60.867 37.682 60.403 37.624 80.897 36.826 81.361"/><polygon fill="#fdfefe" points="29.189 56.424 29.988 55.961 37.682 60.403 36.884 60.867"/><path fill="#eaefef" d="M29.1894894,56.424427l7.6941395,4.442215l-0.0581017,20.4945107l-7.6941395-4.442215
														L29.1894894,56.424427z M36.0907631,80.0884247l0.0254517-8.9785156l-6.2197533-3.5909805l-0.0254536,8.9785233
														L36.0907631,80.0884247 M36.118618,70.2628479l0.025444-8.9747467l-6.2197552-3.5909767l-0.0254421,8.9747429
														L36.118618,70.2628479"/><g><polygon fill="#434240" points="49.63 68.852 49.63 69.239 49.621 71.328 49.617 73.457 49.603 78.364 49.571 87.958 42.444 83.841 42.444 64.702"/><polygon fill="#fdfefe" points="49.63 69.239 49.621 71.328 42.444 75.427 42.444 73.339" opacity=".2"/><polygon fill="#fdfefe" points="49.617 73.457 49.603 78.364 42.444 82.445 42.444 77.552" opacity=".2"/><polygon fill="#cccece" points="50.371 88.241 50.368 89.089 47.769 90.6 47.771 89.752"/><polygon fill="#cccece" points="47.771 89.752 47.769 90.6 40.069 86.165 40.071 85.317"/><polygon fill="#fdfefe" points="50.371 88.241 47.771 89.752 40.071 85.317 42.671 83.806"/><g><polygon fill="#fdfefe" points="42.621 83.842 43.419 83.378 49.639 86.969 48.841 87.433"/><polygon fill="#cccece" points="42.647 74.863 43.445 74.4 43.419 83.378 42.621 83.842"/><polygon fill="#fdfefe" points="42.649 74.016 43.447 73.553 49.667 77.144 48.869 77.607"/><polygon fill="#cccece" points="42.675 65.042 43.473 64.578 43.447 73.553 42.649 74.016"/><polygon fill="#cccece" points="49.634 68.211 50.432 67.747 50.374 88.242 49.576 88.706"/><polygon fill="#fdfefe" points="41.94 63.769 42.738 63.305 50.432 67.747 49.634 68.211"/><path fill="#eaefef" d="M41.939827,63.7689018l7.6941414,4.4422188l-0.0581017,20.4945068l-7.6941414-4.442215
														L41.939827,63.7689018z M48.8410988,87.4329071l0.0254555-8.9785233l-6.2197533-3.5909805l-0.0254555,8.9785233
														L48.8410988,87.4329071 M48.8689537,77.6073227l0.025444-8.9747467l-6.2197533-3.5909805l-0.025444,8.9747467
														L48.8689537,77.6073227"/></g></g><g><polygon fill="#434240" points="62.351 76.429 62.351 76.816 62.342 78.905 62.337 81.034 62.324 85.941 62.292 95.535 55.165 91.418 55.165 72.279"/><polygon fill="#fdfefe" points="62.351 76.816 62.342 78.905 55.165 83.004 55.165 80.916" opacity=".2"/><polygon fill="#fdfefe" points="62.337 81.034 62.324 85.941 55.165 90.022 55.165 85.129" opacity=".2"/><polygon fill="#cccece" points="63.092 95.818 63.089 96.666 60.49 98.177 60.492 97.329"/><polygon fill="#cccece" points="60.492 97.329 60.49 98.177 52.79 93.742 52.792 92.894"/><polygon fill="#fdfefe" points="63.092 95.818 60.492 97.329 52.792 92.894 55.392 91.383"/><g><polygon fill="#fdfefe" points="55.342 91.419 56.14 90.955 62.36 94.546 61.562 95.01"/><polygon fill="#cccece" points="55.368 82.44 56.166 81.976 56.14 90.955 55.342 91.419"/><polygon fill="#fdfefe" points="55.37 81.593 56.168 81.129 62.388 84.72 61.59 85.184"/><polygon fill="#cccece" points="55.396 72.618 56.194 72.155 56.168 81.129 55.37 81.593"/><polygon fill="#cccece" points="62.355 75.788 63.153 75.324 63.095 95.819 62.297 96.283"/><polygon fill="#fdfefe" points="54.661 71.346 55.459 70.882 63.153 75.324 62.355 75.788"/><path fill="#eaefef" d="M54.6607666,71.3458023l7.6941414,4.442215l-0.0581017,20.4945145l-7.6941414-4.442215
														L54.6607666,71.3458023z M61.5620384,95.0098038l0.0254555-8.9785233l-6.2197533-3.5909729l-0.0254555,8.9785233
														L61.5620384,95.0098038 M61.5898972,85.1842194l0.0254402-8.9747391l-6.2197533-3.5909805l-0.0254402,8.9747467
														L61.5898972,85.1842194"/></g></g><g><polygon fill="#434240" points="37.491 48.66 37.491 54.827 35.652 53.769 31.258 51.247 30.64 50.889 30.64 44.722 32.853 45.991 34.724 47.065 36.645 48.172 37.002 48.383"/><polygon fill="#cccece" points="30.632 44.717 29.144 43.862 29.144 51.471 30.632 50.883"/><polygon fill="#fdfefe" points="30.632 50.883 30.632 50.883 29.144 51.471 29.144 51.471 37.491 56.267 37.491 54.824"/><polygon fill="#fdfefe" points="34.724 47.065 30.64 49.408 30.64 47.261 32.853 45.991" opacity=".2"/><polygon fill="#fdfefe" points="37.491 48.66 37.491 52.715 35.652 53.769 31.258 51.247 36.645 48.172" opacity=".2"/><polygon fill="#434240" points="50.559 56.155 50.559 62.323 48.72 61.265 44.327 58.743 43.708 58.385 43.708 52.218 45.921 53.487 47.793 54.561 49.713 55.667 50.071 55.879"/><polygon fill="#cccece" points="43.7 52.212 42.213 51.358 42.213 58.966 43.7 58.379"/><polygon fill="#fdfefe" points="43.7 58.379 43.7 58.379 42.213 58.966 42.213 58.966 50.559 63.762 50.559 62.32"/><polygon fill="#fdfefe" points="47.793 54.561 43.708 56.904 43.708 54.756 45.921 53.487" opacity=".2"/><polygon fill="#fdfefe" points="50.559 56.155 50.559 60.211 48.72 61.265 44.327 58.743 49.713 55.667" opacity=".2"/><g><polygon fill="#434240" points="62.859 63.21 62.859 69.377 61.02 68.319 56.626 65.797 56.008 65.439 56.008 59.272 58.221 60.541 60.092 61.615 62.012 62.722 62.37 62.933"/><polygon fill="#cccece" points="56 59.267 54.512 58.412 54.512 66.021 56 65.433"/><polygon fill="#fdfefe" points="56 65.433 56 65.433 54.512 66.021 54.512 66.021 62.859 70.817 62.859 69.374"/><polygon fill="#fdfefe" points="60.092 61.615 56.008 63.958 56.008 61.81 58.221 60.541" opacity=".2"/><polygon fill="#fdfefe" points="62.859 63.21 62.859 67.265 61.02 68.319 56.626 65.797 62.012 62.722" opacity=".2"/></g></g></g><g><path fill="#2e374c" d="M113.3556671,83.3594131l-0.0023651,0.4513702
									c-0.0004578,0.1610031-0.1062012,0.3218002-0.317749,0.4447327
									c-0.4252396,0.2471237-1.1186295,0.247139-1.5466461,0.0000229
									c-0.2156906-0.124527-0.3232574-0.2879105-0.3227921-0.4509964l0.0023651-0.4513626
									c-0.0004578,0.1630859,0.1071091,0.3264618,0.3227921,0.4509888
									c0.4280243,0.2471237,1.1214142,0.2471085,1.5466537-0.0000153
									C113.2494659,83.6812134,113.355217,83.5204163,113.3556671,83.3594131z"/><path fill="#444f66" d="M113.0328598,82.9083023c0.4280243,0.2471161,0.4310989,0.648262,0.0050659,0.8958511
									c-0.4252396,0.2471237-1.1186295,0.247139-1.5466537,0.0000153c-0.428833-0.2475815-0.4302597-0.6487503-0.0050201-0.895874
									C111.9122849,82.6607132,112.6040268,82.6607132,113.0328598,82.9083023z"/><path fill="#2e374c" d="M112.8955154,77.4685364l-0.0012512,5.836586
									c-0.0002365,0.0847321-0.0558929,0.1693573-0.1672211,0.2340546
									c-0.223793,0.1300507-0.5886993,0.1300583-0.8139572,0.0000076
									c-0.1135101-0.0655365-0.1701202-0.1515198-0.1698761-0.2373505l0.0012436-5.8365784
									c-0.0002441,0.0858307,0.056366,0.171814,0.1698761,0.2373505c0.2252579,0.1300507,0.5901718,0.130043,0.8139648-0.0000153
									C112.8396225,77.6378937,112.8952713,77.5532684,112.8955154,77.4685364z"/><path fill="#444f66" d="M112.7256241,77.2311325c0.2252579,0.1300507,0.2268753,0.3411636,0.0026703,0.4714584
									c-0.223793,0.1300583-0.588707,0.1300659-0.8139648,0.0000153c-0.2256775-0.1303024-0.2264328-0.341423-0.0026398-0.4714813
									C112.1359024,77.1008301,112.4999466,77.1008301,112.7256241,77.2311325z"/><path fill="#262e3f" d="M112.6093063,69.140358l-0.0006256,8.3106079
									c-0.0001221,0.0426407-0.0281296,0.085228-0.0841522,0.1177826
									c-0.1126251,0.0654526-0.2962646,0.0654526-0.4096222,0.0000076
									c-0.0571289-0.0329819-0.0856171-0.0762558-0.085495-0.1194458l0.0006332-8.3106079
									c-0.0001221,0.0431976,0.0283661,0.0864639,0.0854874,0.1194458
									c0.1133575,0.0654449,0.2969971,0.0654449,0.4096222-0.0000076
									C112.5811768,69.2255859,112.6091843,69.1829987,112.6093063,69.140358z"/><path fill="#959597" d="M112.5238113,69.0208817c0.1133575,0.0654449,0.1141739,0.1716919,0.0013428,0.2372589
									c-0.1126251,0.0654526-0.2962646,0.0654526-0.4096222,0.0000076
									c-0.1135712-0.0655746-0.1139526-0.1718216-0.0013275-0.2372665
									C112.2270355,68.955307,112.4102402,68.955307,112.5238113,69.0208817z"/><g><path fill="#bbbec6" d="M113.3218536,68.8405457l-0.0021744,0.4133148
									c-0.000412,0.1474304-0.0972443,0.2946701-0.2909546,0.4072418
									c-0.3893967,0.2262955-1.0243378,0.2263107-1.416275,0.0000229
									c-0.1975098-0.1140289-0.2960052-0.2636414-0.2955856-0.4129791l0.0021744-0.4133148
									c-0.0004272,0.1493378,0.0980759,0.2989426,0.295578,0.4129791c0.3919449,0.2262878,1.0268784,0.2262726,1.416275-0.0000229
									C113.2246017,69.1352158,113.321434,68.9879761,113.3218536,68.8405457z"/><path fill="#959597" d="M113.0262527,68.4274521c0.3919449,0.2262878,0.3947601,0.5936203,0.0046387,0.8203354
									c-0.3893967,0.2262955-1.0243301,0.2263107-1.416275,0.0000229
									c-0.3926849-0.2267227-0.3939896-0.5940704-0.0045929-0.8203583
									C112.000145,68.200737,112.6335678,68.200737,113.0262527,68.4274521z"/></g><g><path fill="#262e3f" d="M113.5028381,68.1985703l-0.0025635,0.4879303
									c-0.0004959,0.1740494-0.1148071,0.3478699-0.3434906,0.4807663
									c-0.4596939,0.2671509-1.209259,0.2671661-1.6719589,0.0000229
									c-0.2331619-0.134613-0.3494415-0.3112335-0.3489456-0.4875336l0.0025635-0.4879379
									c-0.0004959,0.1763077,0.1157837,0.3529205,0.3489456,0.4875412
									c0.4626999,0.2671356,1.212265,0.2671204,1.6719589-0.0000229
									C113.388031,68.5464401,113.5023422,68.372612,113.5028381,68.1985703z"/><path fill="#38425d" d="M113.1538773,67.7108994c0.4626999,0.2671432,0.4660263,0.7007904,0.0054703,0.9684372
									c-0.4596939,0.2671432-1.209259,0.2671585-1.6719589,0.0000229
									c-0.4635773-0.2676468-0.4651184-0.7013168-0.0054245-0.9684677
									C111.9425125,67.4432526,112.6903,67.4432526,113.1538773,67.7108994z"/></g><path fill="#ffd06c" d="M114.3263397,66.7413559c0,1.0800781-0.8800049,1.9499512-1.9499512,1.9499512
						c-1.0800171,0-1.9500122-0.869873-1.9500122-1.9499512s0.8699951-1.9499512,1.9500122-1.9499512
						C113.4463348,64.7914047,114.3263397,65.6612778,114.3263397,66.7413559z"/></g><g><path fill="#2e374c" d="M66.9625168,109.7295303l-0.0023727,0.4513626
									c-0.0004578,0.1610031-0.1062012,0.3218002-0.317749,0.4447403
									c-0.4252396,0.2471161-1.1186218,0.247139-1.5466461,0.0000153
									c-0.2156906-0.124527-0.3232574-0.2879028-0.3227921-0.4509964l0.0023651-0.4513626
									c-0.0004578,0.1630859,0.1071091,0.3264694,0.3227921,0.4509964
									c0.4280243,0.2471161,1.1214142,0.2471008,1.5466537-0.0000229
									C66.856308,110.0513306,66.962059,109.8905334,66.9625168,109.7295303z"/><path fill="#444f66" d="M66.6397018,109.2784119c0.4280243,0.2471161,0.4310989,0.6482697,0.0050659,0.8958511
									c-0.4252396,0.2471237-1.1186295,0.247139-1.5466537,0.0000229
									c-0.428833-0.2475891-0.4302597-0.6487579-0.0050201-0.8958817
									C65.5191345,109.0308228,66.2108688,109.0308228,66.6397018,109.2784119z"/><path fill="#2e374c" d="M66.5023575,103.8386536l-0.0012512,5.8365784
									c-0.0002365,0.0847321-0.0558929,0.1693573-0.1672211,0.2340546
									c-0.223793,0.1300507-0.5886993,0.1300659-0.8139572,0.0000076
									c-0.1135101-0.0655289-0.1701202-0.1515121-0.1698761-0.2373428l0.0012436-5.8365784
									c-0.0002441,0.0858231,0.056366,0.1718063,0.1698761,0.2373428c0.2252579,0.1300507,0.5901718,0.130043,0.8139648-0.0000076
									C66.4464645,104.0080109,66.5021133,103.9233856,66.5023575,103.8386536z"/><path fill="#444f66" d="M66.3324661,103.6012421c0.2252579,0.1300507,0.2268753,0.3411636,0.0026703,0.4714661
									c-0.223793,0.1300507-0.588707,0.1300583-0.8139648,0.0000076c-0.2256775-0.1302948-0.2264328-0.341423-0.0026398-0.4714737
									C65.7427444,103.4709396,66.1067886,103.4709473,66.3324661,103.6012421z"/><path fill="#262e3f" d="M66.2161484,95.5104675l-0.0006256,8.3106079
									c-0.0001221,0.0426407-0.0281296,0.085228-0.0841522,0.1177826
									c-0.1126251,0.0654526-0.2962646,0.0654602-0.4096222,0.0000076
									c-0.0571289-0.0329819-0.0856171-0.0762482-0.0854874-0.1194458l0.0006256-8.3106003
									c-0.0001221,0.04319,0.0283661,0.0864639,0.0854874,0.1194382c0.1133575,0.0654526,0.2969971,0.0654449,0.4096222,0
									C66.1880188,95.5956955,66.2160263,95.5531082,66.2161484,95.5104675z"/><path fill="#959597" d="M66.1306534,95.3909912c0.1133575,0.0654526,0.1141739,0.1716919,0.0013428,0.2372665
									c-0.1126251,0.0654449-0.2962646,0.0654526-0.4096222,0c-0.1135712-0.065567-0.1139526-0.171814-0.0013275-0.2372665
									C65.8338776,95.3254242,66.0170822,95.3254242,66.1306534,95.3909912z"/><g><path fill="#bbbec6" d="M66.9286957,95.2106552l-0.0021744,0.4133224
									c-0.000412,0.1474228-0.0972443,0.2946701-0.2909546,0.4072418
									c-0.3893967,0.2262878-1.0243301,0.2263031-1.416275,0.0000153
									c-0.1975098-0.1140289-0.2960052-0.2636337-0.295578-0.4129791l0.0021667-0.4133148
									c-0.0004272,0.1493454,0.0980759,0.2989502,0.295578,0.4129791c0.3919449,0.2262878,1.0268784,0.2262726,1.416275-0.0000153
									C66.8314438,95.5053329,66.9282761,95.3580856,66.9286957,95.2106552z"/><path fill="#959597" d="M66.6330948,94.7975693c0.3919449,0.2262878,0.3947601,0.5936203,0.0046387,0.8203354
									c-0.3893967,0.2262878-1.0243301,0.2263031-1.416275,0.0000153
									c-0.3926849-0.2267151-0.3939896-0.5940704-0.0045929-0.8203583
									C65.606987,94.5708466,66.2404099,94.5708542,66.6330948,94.7975693z"/></g><g><path fill="#262e3f" d="M67.1096802,94.5686798l-0.0025635,0.4879379
									c-0.0004883,0.1740417-0.1148071,0.3478699-0.3434906,0.4807663
									c-0.4596939,0.2671432-1.209259,0.2671585-1.6719589,0.0000229
									c-0.2331619-0.1346207-0.3494415-0.3112335-0.348938-0.4875412l0.0025558-0.4879303
									c-0.0004959,0.1763,0.1157837,0.3529205,0.3489456,0.4875336c0.4626999,0.2671432,1.212265,0.2671204,1.6719589-0.0000229
									C66.994873,94.9165497,67.1091843,94.7427292,67.1096802,94.5686798z"/><path fill="#38425d" d="M66.7607193,94.0810165c0.4626999,0.2671356,0.4660263,0.7007904,0.0054703,0.9684296
									c-0.4596939,0.2671432-1.209259,0.2671661-1.6719589,0.0000229
									c-0.4635773-0.2676468-0.4651184-0.7013168-0.0054245-0.9684601
									C65.5493546,93.8133621,66.297142,93.8133698,66.7607193,94.0810165z"/></g><path fill="#ffd06c" d="M67.9331818,93.1114731c0,1.0800781-0.8800049,1.9499512-1.9499512,1.9499512
						c-1.0800171,0-1.9500122-0.869873-1.9500122-1.9499512s0.8699951-1.9499512,1.9500122-1.9499512
						C67.0531769,91.1615219,67.9331818,92.031395,67.9331818,93.1114731z"/></g><g><path fill="#2e374c" d="M22.1951714,83.7601166l-0.0023708,0.4513626
									c-0.0004559,0.1610031-0.1061993,0.3218002-0.3177433,0.4447327
									c-0.4252415,0.2471237-1.1186295,0.247139-1.5466518,0.0000229
									c-0.2156868-0.124527-0.3232536-0.2879105-0.3227921-0.4509964l0.0023689-0.4513626
									c-0.0004597,0.1630859,0.1071053,0.3264618,0.3227921,0.4509964
									c0.4280243,0.2471161,1.1214104,0.2471008,1.5466518-0.0000229
									C22.0889702,84.0819092,22.1947155,83.9211121,22.1951714,83.7601166z"/><path fill="#444f66" d="M21.8723621,83.3089981c0.4280224,0.2471161,0.4310989,0.6482697,0.005064,0.8958511
									c-0.4252415,0.2471237-1.1186275,0.247139-1.5466518,0.0000229
									c-0.428833-0.2475891-0.4302597-0.6487579-0.0050201-0.8958817
									C20.7517891,83.061409,21.4435291,83.061409,21.8723621,83.3089981z"/><path fill="#2e374c" d="M21.735014,77.8692398l-0.0012493,5.8365784
									c-0.0002384,0.0847321-0.0558891,0.1693573-0.1672192,0.2340546
									c-0.223793,0.1300507-0.5887032,0.1300583-0.8139591,0.0000076
									c-0.113512-0.0655365-0.1701202-0.1515198-0.1698761-0.2373428l0.0012455-5.836586
									c-0.0002422,0.0858307,0.056366,0.171814,0.1698761,0.2373505c0.2252579,0.1300507,0.590168,0.130043,0.813961-0.0000153
									C21.6791229,78.0385895,21.7347736,77.9539642,21.735014,77.8692398z"/><path fill="#444f66" d="M21.5651283,77.6318283c0.225256,0.1300507,0.2268753,0.3411636,0.0026646,0.4714584
									c-0.223793,0.1300583-0.5887032,0.1300659-0.813961,0.0000153c-0.2256813-0.1303024-0.2264347-0.341423-0.0026417-0.4714813
									C20.9754009,77.5015259,21.3394451,77.5015259,21.5651283,77.6318283z"/><path fill="#262e3f" d="M21.4488068,69.5410538l-0.0006275,8.3106079
									c-0.0001202,0.0426407-0.0281277,0.085228-0.0841522,0.1177826
									c-0.1126232,0.0654526-0.2962627,0.0654526-0.4096222,0.0000076
									c-0.0571232-0.0329819-0.0856113-0.0762482-0.0854893-0.1194458l0.0006275-8.3106079
									c-0.0001221,0.0431976,0.0283661,0.0864639,0.0854893,0.1194458
									c0.1133595,0.0654449,0.296999,0.0654449,0.4096222-0.0000076
									C21.420681,69.6262817,21.4486866,69.5836945,21.4488068,69.5410538z"/><path fill="#959597" d="M21.3633118,69.4215775c0.1133595,0.0654449,0.1141758,0.1716919,0.0013428,0.2372589
									c-0.1126232,0.0654526-0.2962627,0.0654526-0.4096222,0.0000076
									c-0.1135731-0.0655746-0.1139526-0.1718216-0.0013294-0.2372665
									C21.0665359,69.3560028,21.2497387,69.3560028,21.3633118,69.4215775z"/><g><path fill="#bbbec6" d="M22.1613541,69.2412415l-0.0021725,0.4133148
									c-0.0004158,0.1474304-0.0972462,0.2946701-0.2909584,0.4072495
									c-0.3893948,0.2262878-1.024332,0.2263031-1.4162731,0.0000153
									c-0.197506-0.1140289-0.2960052-0.2636337-0.2955818-0.4129791l0.0021687-0.4133148
									c-0.0004215,0.1493378,0.0980759,0.2989502,0.2955818,0.4129791c0.391943,0.2262878,1.0268803,0.2262726,1.416275-0.0000229
									C22.064106,69.5359116,22.1609364,69.3886719,22.1613541,69.2412415z"/><path fill="#959597" d="M21.865757,68.8281479c0.3919411,0.2262878,0.3947582,0.5936203,0.0046368,0.8203354
									c-0.3893948,0.2262955-1.024332,0.2263107-1.416275,0.0000229c-0.392683-0.2267151-0.3939915-0.5940704-0.0045967-0.8203583
									C20.8396435,68.6014328,21.4730721,68.6014328,21.865757,68.8281479z"/></g><g><path fill="#262e3f" d="M22.3423386,68.5992661l-0.0025635,0.4879303
									c-0.0004921,0.1740494-0.1148033,0.3478699-0.3434868,0.4807663
									c-0.4596939,0.2671509-1.209259,0.2671661-1.6719608,0.0000229
									c-0.2331619-0.134613-0.3494434-0.3112335-0.3489437-0.4875336l0.0025616-0.4879303
									c-0.0004997,0.1763,0.1157818,0.3529129,0.3489437,0.4875336c0.4627018,0.2671356,1.2122669,0.2671204,1.6719608-0.0000229
									C22.2275333,68.9471359,22.3418446,68.7733078,22.3423386,68.5992661z"/><path fill="#38425d" d="M21.9933758,68.1115952c0.4626999,0.2671432,0.4660263,0.7007904,0.0054741,0.9684372
									c-0.4596939,0.2671432-1.209259,0.2671585-1.6719608,0.0000229
									c-0.4635773-0.2676468-0.4651203-0.7013168-0.0054264-0.9684677
									C20.7820148,67.8439484,21.5297985,67.8439484,21.9933758,68.1115952z"/></g><path fill="#ffd06c" d="M23.1658382,67.1420517c0,1.0800781-0.8800049,1.9499512-1.9499512,1.9499512
						c-1.0800171,0-1.9500122-0.869873-1.9500122-1.9499512s0.8699951-1.9499512,1.9500122-1.9499512
						C22.2858334,65.1921005,23.1658382,66.0619736,23.1658382,67.1420517z"/></g><g><polygon fill="#d9dddd" points="71.941 106.417 69.7 105.115 69.694 102.999 71.935 104.301"/><polygon fill="#b8bcbc" points="79.137 100.145 79.143 102.261 71.941 106.417 71.935 104.301"/><polygon fill="#bbbebe" points="71.935 104.301 69.694 102.999 76.895 98.843 79.137 100.145"/><polygon fill="#fff" points="71.934 103.913 69.693 102.61 76.894 98.454 79.135 99.756"/><polygon fill="#6dcb60" points="70.113 102.611 76.894 98.697 78.715 99.756 71.934 103.669"/><polygon fill="#d9dddd" points="71.935 104.301 69.694 102.999 69.693 102.61 71.934 103.913"/><polygon fill="#b8bcbc" points="79.135 99.756 79.137 100.145 71.935 104.301 71.934 103.913"/></g><g><polygon fill="#d9dddd" points="96.199 92.497 93.957 91.195 93.951 89.079 96.193 90.381"/><polygon fill="#b8bcbc" points="103.394 86.225 103.4 88.341 96.199 92.497 96.193 90.381"/><polygon fill="#bbbebe" points="96.193 90.381 93.951 89.079 101.153 84.922 103.394 86.225"/><polygon fill="#fff" points="96.192 89.992 93.95 88.69 101.152 84.534 103.393 85.836"/><polygon fill="#6dcb60" points="94.37 88.691 101.151 84.777 102.973 85.836 96.192 89.749"/><polygon fill="#d9dddd" points="96.193 90.381 93.951 89.079 93.95 88.69 96.192 89.992"/><polygon fill="#b8bcbc" points="103.393 85.836 103.394 86.225 96.193 90.381 96.192 89.992"/></g><g><polygon fill="#7dd17d" points="97.338 96.384 88.078 101.734 79.158 96.544 88.418 91.204"/></g><g><polygon fill="#cccece" points="52.051 52.218 52.047 53.493 54.493 54.905 54.497 53.63"/><polygon fill="#cccece" points="52.75 54.316 52.747 55.592 55.193 57.004 55.196 55.729"/></g><g><polygon fill="#cccece" points="37.829 56.753 37.825 58.028 40.271 59.441 40.275 58.165"/><polygon fill="#cccece" points="38.528 58.852 38.525 60.127 40.971 61.539 40.975 60.264"/></g><g><polygon fill="#cccece" points="50.952 86.897 50.948 88.173 53.394 89.585 53.398 88.31"/></g></svg>