<svg xmlns="http://www.w3.org/2000/svg" viewBox="0 0 200 200"><path fill="#EA3D5B" d="M57.444 121.89c-.336-.196-.8-.168-1.313.128-1.013.587-1.834 2.002-1.83 3.172.004.578.205.984.538 1.177l-15.154-8.722c-.333-.193-.534-.6-.538-1.178-.004-1.17.817-2.585 1.83-3.172.513-.295.977-.324 1.313-.127l15.154 8.723z"/><path fill="#FD546B" d="M56.125 122.012c1.016-.587 1.842-.12 1.845 1.048.003 1.165-.817 2.585-1.833 3.172-1.014.586-1.84.115-1.843-1.05-.003-1.168.817-2.585 1.83-3.17z"/><path fill="#616173" d="M61.704 125.562c-.194-.112-.46-.096-.754.072-.582.334-1.054 1.139-1.051 1.804.002.329.117.56.308.67l-4.526-2.563c-.19-.11-.306-.34-.308-.67-.003-.664.469-1.47 1.05-1.803.295-.168.561-.184.755-.072l4.526 2.562z"/><path fill="#C5D4DD" d="M60.95 125.635c.584-.334 1.058-.068 1.06.596.002.662-.47 1.47-1.053 1.804-.582.333-1.056.065-1.058-.597-.002-.664.47-1.47 1.051-1.803z"/><path fill="#C5D4DD" d="m58.442 130.323.01 3.73c-.004-1.815 1.192-3.634 3.587-5.017 4.758-2.747 12.474-2.747 17.203.001 2.348 1.365 3.524 3.155 3.529 4.947l-.01-3.73c-.006-1.793-1.181-3.583-3.53-4.947-4.729-2.749-12.445-2.749-17.202-.002-2.396 1.383-3.592 3.202-3.587 5.018z"/><path fill="#85CDFD" d="M61.977 137.579c4.728 2.748 12.446 2.748 17.203 0s4.782-7.216.058-9.964c-4.728-2.748-12.445-2.748-17.202 0-4.76 2.748-4.786 7.216-.059 9.964z" opacity=".5"/><path fill="#C5D4DD" d="m56.777 130.328.01 3.73c.007 2.039 1.344 4.074 4.014 5.626 5.374 3.123 14.148 3.123 19.56-.001 2.721-1.572 4.08-3.64 4.074-5.704l-.01-3.73c.006 2.064-1.354 4.132-4.075 5.703-5.411 3.124-14.186 3.124-19.56.001-2.67-1.552-4.007-3.587-4.013-5.625z"/><path fill="#E7F1F7" d="M80.414 124.624c5.373 3.123 5.344 8.205-.064 11.328-5.411 3.124-14.186 3.124-19.56.001-5.375-3.124-5.347-8.206.064-11.33 5.409-3.123 14.184-3.123 19.56.001zm-1.239 10.645c4.758-2.746 4.783-7.216.056-9.962-4.729-2.749-12.445-2.749-17.202-.002-4.76 2.748-4.786 7.218-.056 9.966 4.726 2.747 12.442 2.747 17.202-.002"/><path fill="#75D178" d="m175.059 145.437-.004 6.979-13.18 7.66.004-6.98z"/><path fill="#7CDF82" d="m161.879 153.096-.004 6.98-13.266-7.66.003-6.979z"/><path fill="#94ED96" d="m175.059 145.437-13.18 7.659-13.267-7.659 13.181-7.659z"/><path fill="#E7F1F7" d="m161.169 131.28-.351-.204-7.186 12.164.352.204z"/><path fill="#AEB3BE" d="m153.469 134.522.704-.408.708.408-.704.409z"/><path fill="#CFDEE8" d="m154.177 134.931-.029 9.418-.708-.408v-9.419z"/><path fill="#B4C4CC" d="m161.418 130.85-7.072 11.968.507 1.122 7.434-12.594zM162.418 131.346l.704.405-.029 16.944-.704.409z"/><path fill="#E7F1F7" d="m163.536 131.28.351-.204 7.186 12.164-.352.204z"/><path fill="#CFDEE8" d="m169.86 143.94-.002 1.117-7.53-4.347.002-1.118z"/><path fill="#B4C4CC" d="m162.33 139.592-.002 1.118-7.481 4.347.002-1.117z"/><path fill="#CFDEE8" d="m162.384 149.104-.002 1.117-8.945-5.164.003-1.117z"/><path fill="#B4C4CC" d="m171.27 143.939-.002 1.118-8.886 5.164.002-1.117z"/><path fill="#E7F1F7" d="m162.326 138.776 8.944 5.163-8.886 5.165-8.944-5.164 8.886-5.164zm.053 9.511 7.481-4.347-7.53-4.348-7.48 4.348 7.53 4.347"/><path fill="#B4C4CC" d="m170.594 134.915.676-.393-.002 9.418-.704.408z"/><path fill="#AEB3BE" d="m169.886 134.522.69-.4.694.4-.676.409z"/><path fill="#CFDEE8" d="m170.594 134.931-.03 9.417-.708-.409v-9.416z"/><path fill="#AEB3BE" d="m161.71 130.296.704-.408.708.408-.704.409z"/><path fill="#E7F1F7" d="m162.201 148.558-.352.204-7.281-12.53.352-.204z"/><path fill="#CFDEE8" d="m163.287 130.85 7.072 11.968-.507 1.122-7.434-12.594z"/><path fill="#E7F1F7" d="m162.416 129.412 8.854 5.11-8.886 5.164-8.944-5.164 8.976-5.11zm-.037 9.458 7.481-4.348-7.53-4.347-7.48 4.347 7.53 4.348M169.676 135.864l.352.204-7.282 12.53-.352-.204z"/><path fill="#B4C4CC" d="m170.258 135.628-7.494 12.98.869.496 7.494-12.981z"/><path fill="#CFDEE8" d="m154.338 135.792 7.495 12.98-.87.496-7.494-12.981z"/><path fill="#CFDEE8" d="m154.338 135.792 7.495 12.98-.87.496-7.494-12.981z"/><path fill="#CFDEE8" d="m154.338 135.792 7.495 12.98-.87.496-7.494-12.981z"/><path fill="#CFDEE8" d="m162.418 130.705-.029 18.399-.708-.409v-18.399z"/><path fill="#B4C4CC" d="m154.849 134.522-.001.84h.489l7.081-4.016.003-1.118zM162.418 131.346l.704.405-.029 16.944-.704.409z"/><path fill="#CFDEE8" d="M169.131 135.179h.728l.001-.657-7.439-4.294-.003 1.118 6.713 3.874z"/><path fill="#B4C4CC" d="m154.177 134.931.704-.409-.029 9.419-.704.408z"/><path fill="#CFDEE8" d="m154.338 135.792 7.495 12.98-.87.496-7.494-12.981z"/><path fill="#E7F1F7" d="m162.416 129.412 8.854 5.11-8.886 5.164-8.944-5.164 8.976-5.11zm-.037 9.458 7.481-4.348-7.44-4.294-7.57 4.294 7.53 4.348"/><path fill="#CFDEE8" d="m154.177 134.931-.029 9.418-.708-.408v-9.419z"/><path fill="#CFDEE8" d="m162.384 139.686-.002 1.118-8.945-5.164.003-1.118z"/><path fill="#B4C4CC" d="m171.27 134.522-.002 1.118-8.886 5.164.002-1.118z"/><path fill="#FF6C85" d="m161.17 120.746-.351-.205-7.185 12.164.351.204z"/><path fill="#AEB3BE" d="m153.47 123.987.704-.408.708.408-.704.409z"/><path fill="#EA3D5B" d="m154.178 124.396-.029 9.418-.708-.408v-9.419z"/><path fill="#E22951" d="m161.419 120.315-7.072 11.968.507 1.122 7.434-12.594zM162.419 120.811l.705.405-.03 16.944-.704.409z"/><path fill="#FF6C85" d="m163.537 120.746.352-.205 7.185 12.164-.352.204z"/><path fill="#EA3D5B" d="m169.861 133.405-.002 1.117-7.53-4.347.002-1.118z"/><path fill="#E22951" d="m162.331 129.057-.002 1.118-7.481 4.347.002-1.117z"/><path fill="#EA3D5B" d="m162.385 138.569-.002 1.117-8.945-5.164.003-1.117z"/><path fill="#E22951" d="m171.271 133.405-.002 1.117-8.886 5.164.002-1.117z"/><path fill="#FF6C85" d="m162.327 128.24 8.944 5.165-8.886 5.164-8.944-5.164 8.886-5.164zm.053 9.512 7.481-4.347-7.53-4.348-7.48 4.348 7.53 4.347"/><path fill="#E22951" d="m170.595 124.38.676-.393-.001 9.418-.705.408z"/><path fill="#AEB3BE" d="m169.887 123.987.69-.4.694.4-.676.409z"/><path fill="#EA3D5B" d="m170.595 124.396-.03 9.417-.707-.408v-9.417z"/><path fill="#AEB3BE" d="m161.712 119.761.704-.408.708.408-.705.409z"/><path fill="#FF6C85" d="m162.204 138.022-.352.205-7.281-12.53.352-.204z"/><path fill="#EA3D5B" d="m163.289 120.315 7.072 11.968-.508 1.122-7.434-12.594z"/><path fill="#FF6C85" d="m162.417 118.877 8.854 5.11-8.886 5.164-8.944-5.164 8.976-5.11zm-.037 9.458 7.481-4.348-7.53-4.347-7.48 4.347 7.53 4.348M169.677 125.33l.352.204-7.281 12.53-.352-.205z"/><path fill="#E22951" d="m170.259 125.093-7.494 12.98.869.496 7.495-12.981z"/><path fill="#EA3D5B" d="m154.34 125.257 7.494 12.98-.869.496-7.495-12.981z"/><path fill="#EA3D5B" d="m154.34 125.257 7.494 12.98-.869.496-7.495-12.981z"/><path fill="#EA3D5B" d="m154.34 125.257 7.494 12.98-.869.496-7.495-12.981z"/><path fill="#EA3D5B" d="m162.419 120.17-.029 18.399-.708-.409v-18.399z"/><path fill="#E22951" d="m154.85 123.987-.001.84h.489l7.081-4.016.003-1.118zM162.419 120.811l.705.405-.03 16.944-.704.409z"/><path fill="#EA3D5B" d="M169.132 124.645h.728l.001-.658-7.439-4.294-.003 1.118 6.713 3.874z"/><path fill="#E22951" d="m154.178 124.396.704-.409-.029 9.419-.704.408z"/><path fill="#EA3D5B" d="m154.34 125.257 7.494 12.98-.869.496-7.495-12.981z"/><path fill="#FF6C85" d="m162.417 118.877 8.854 5.11-8.886 5.164-8.944-5.164 8.976-5.11zm-.037 9.458 7.481-4.348-7.44-4.294-7.57 4.294 7.53 4.348"/><path fill="#EA3D5B" d="m154.178 124.396-.029 9.418-.708-.408v-9.419z"/><path fill="#EA3D5B" d="m162.385 129.151-.002 1.118-8.945-5.164.003-1.118z"/><path fill="#E22951" d="m171.271 123.987-.002 1.118-8.886 5.164.002-1.118z"/><path fill="#E7F1F7" d="m161.169 110.22-.351-.205-7.186 12.164.352.204z"/><path fill="#AEB3BE" d="m153.469 113.461.704-.408.708.409-.704.408z"/><path fill="#CFDEE8" d="m154.177 113.87-.029 9.419-.708-.409v-9.418z"/><path fill="#B4C4CC" d="m161.418 109.79-7.072 11.967.507 1.122 7.434-12.594zM162.418 110.285l.704.405-.029 16.945-.704.408z"/><path fill="#E7F1F7" d="m163.536 110.22.351-.205 7.186 12.164-.352.204z"/><path fill="#CFDEE8" d="m169.86 122.879-.002 1.118-7.53-4.348.002-1.118z"/><path fill="#B4C4CC" d="m162.33 118.531-.002 1.118-7.481 4.348.002-1.118z"/><path fill="#CFDEE8" d="m162.384 128.043-.002 1.118-8.945-5.164.003-1.118z"/><path fill="#B4C4CC" d="m171.27 122.879-.002 1.118-8.886 5.164.002-1.118z"/><path fill="#E7F1F7" d="m162.326 117.715 8.944 5.164-8.886 5.164-8.944-5.164 8.886-5.164zm.053 9.511 7.481-4.347-7.53-4.348-7.48 4.348 7.53 4.347"/><path fill="#B4C4CC" d="m170.594 113.854.676-.392-.002 9.417-.704.409z"/><path fill="#AEB3BE" d="m169.886 113.461.69-.4.694.401-.676.408z"/><path fill="#CFDEE8" d="m170.594 113.87-.03 9.418-.708-.409v-9.417z"/><path fill="#AEB3BE" d="m161.71 109.235.704-.408.708.409-.704.408z"/><path fill="#E7F1F7" d="m162.201 127.497-.352.204-7.281-12.53.352-.204z"/><path fill="#CFDEE8" d="m163.287 109.79 7.072 11.967-.507 1.122-7.434-12.594z"/><path fill="#E7F1F7" d="m162.416 108.351 8.854 5.11-8.886 5.165-8.944-5.164 8.976-5.111zm-.037 9.458 7.481-4.347-7.53-4.348-7.48 4.348 7.53 4.347M169.676 114.803l.352.205-7.281 12.53-.352-.205z"/><path fill="#B4C4CC" d="m170.258 114.567-7.494 12.98.869.496 7.494-12.981z"/><path fill="#CFDEE8" d="m154.338 114.731 7.495 12.981-.87.495-7.494-12.98z"/><path fill="#CFDEE8" d="m154.338 114.731 7.495 12.981-.87.495-7.494-12.98z"/><path fill="#CFDEE8" d="m154.338 114.731 7.495 12.981-.87.495-7.494-12.98z"/><path fill="#CFDEE8" d="m162.418 109.644-.029 18.399-.708-.409v-18.398z"/><path fill="#B4C4CC" d="m154.849 113.462-.001.84h.489l7.081-4.017.003-1.117zM162.418 110.285l.704.405-.029 16.945-.704.408z"/><path fill="#CFDEE8" d="M169.131 114.119h.728l.001-.657-7.439-4.294-.003 1.117 6.713 3.875z"/><path fill="#B4C4CC" d="m154.177 113.87.704-.408-.029 9.418-.704.409z"/><path fill="#CFDEE8" d="m154.338 114.731 7.495 12.981-.87.495-7.494-12.98z"/><path fill="#E7F1F7" d="m162.416 108.351 8.854 5.11-8.886 5.165-8.944-5.164 8.976-5.111zm-.037 9.458 7.481-4.347-7.44-4.294-7.57 4.294 7.53 4.347"/><path fill="#CFDEE8" d="m154.177 113.87-.029 9.419-.708-.409v-9.418z"/><path fill="#CFDEE8" d="m162.384 118.626-.002 1.117-8.945-5.164.003-1.117z"/><path fill="#B4C4CC" d="m171.27 113.462-.002 1.117-8.886 5.164.002-1.117z"/><path fill="#FF6C85" d="m161.17 99.685-.351-.204-7.185 12.163.351.205z"/><path fill="#AEB3BE" d="m153.47 102.926.704-.408.708.409-.704.408z"/><path fill="#EA3D5B" d="m154.178 103.335-.029 9.419-.708-.409v-9.418z"/><path fill="#E22951" d="m161.419 99.255-7.072 11.967.507 1.122 7.434-12.594zM162.419 99.75l.705.406-.03 16.944-.704.408z"/><path fill="#FF6C85" d="m163.537 99.685.352-.204 7.185 12.163-.352.205z"/><path fill="#EA3D5B" d="m169.861 112.344-.002 1.118-7.53-4.348.002-1.117z"/><path fill="#E22951" d="m162.331 107.997-.002 1.117-7.481 4.348.002-1.118z"/><path fill="#EA3D5B" d="m162.385 117.508-.002 1.118-8.945-5.164.003-1.118z"/><path fill="#E22951" d="m171.271 112.344-.002 1.118-8.886 5.164.002-1.118z"/><path fill="#FF6C85" d="m162.327 107.18 8.944 5.164-8.886 5.164-8.944-5.164 8.886-5.164zm.053 9.511 7.481-4.347-7.53-4.347-7.48 4.347 7.53 4.347"/><path fill="#E22951" d="m170.595 103.32.676-.393-.001 9.417-.705.409z"/><path fill="#AEB3BE" d="m169.887 102.927.69-.401.694.401-.676.408z"/><path fill="#EA3D5B" d="m170.595 103.335-.03 9.418-.707-.409v-9.417z"/><path fill="#AEB3BE" d="m161.712 98.7.704-.408.708.409-.705.408z"/><path fill="#FF6C85" d="m162.205 116.963-.352.205-7.282-12.53.352-.205z"/><path fill="#EA3D5B" d="m163.289 99.255 7.072 11.967-.508 1.122-7.434-12.594z"/><path fill="#FF6C85" d="m162.417 97.816 8.854 5.11-8.886 5.165-8.944-5.164 8.976-5.11zm-.037 9.458 7.481-4.347-7.53-4.348-7.48 4.348 7.53 4.347M169.677 104.268l.352.205-7.281 12.53-.352-.205z"/><path fill="#E22951" d="m170.259 104.032-7.494 12.981.869.495 7.495-12.981z"/><path fill="#EA3D5B" d="m154.34 104.196 7.494 12.981-.869.495-7.495-12.98z"/><path fill="#EA3D5B" d="m154.34 104.196 7.494 12.981-.869.495-7.495-12.98z"/><path fill="#EA3D5B" d="m154.34 104.196 7.494 12.981-.869.495-7.495-12.98z"/><path fill="#EA3D5B" d="m162.419 99.109-.029 18.399-.708-.409V98.701z"/><path fill="#E22951" d="m154.85 102.927-.001.84h.489l7.081-4.017.003-1.117zM162.419 99.75l.705.406-.03 16.944-.704.408z"/><path fill="#EA3D5B" d="M169.132 103.584h.728l.001-.657-7.439-4.294-.003 1.117 6.713 3.875z"/><path fill="#E22951" d="m154.178 103.335.704-.408-.029 9.419-.704.408z"/><path fill="#EA3D5B" d="m154.34 104.196 7.494 12.981-.869.495-7.495-12.98z"/><path fill="#FF6C85" d="m162.417 97.816 8.854 5.11-8.886 5.165-8.944-5.164 8.976-5.11zm-.037 9.458 7.481-4.347-7.44-4.294-7.57 4.294 7.53 4.347"/><path fill="#EA3D5B" d="m154.178 103.335-.029 9.419-.708-.409v-9.418z"/><path fill="#EA3D5B" d="m162.385 108.091-.002 1.117-8.945-5.164.003-1.117z"/><path fill="#E22951" d="m171.271 102.927-.002 1.117-8.886 5.164.002-1.117z"/><path fill="#E7F1F7" d="m161.169 89.158-.351-.205-7.186 12.164.352.204z"/><path fill="#AEB3BE" d="m153.469 92.399.704-.408.708.408-.704.409z"/><path fill="#CFDEE8" d="m154.177 92.808-.029 9.418-.708-.408v-9.419z"/><path fill="#B4C4CC" d="m161.418 88.728-7.072 11.967.507 1.122 7.434-12.594zM162.418 89.223l.704.405-.029 16.944-.704.409z"/><path fill="#E7F1F7" d="m163.536 89.158.351-.205 7.186 12.164-.352.204z"/><path fill="#CFDEE8" d="m169.86 101.817-.002 1.117-7.53-4.347.002-1.118z"/><path fill="#B4C4CC" d="m162.33 97.469-.002 1.118-7.481 4.347.002-1.117z"/><path fill="#CFDEE8" d="m162.384 106.981-.002 1.117-8.945-5.164.003-1.117z"/><path fill="#B4C4CC" d="m171.27 101.817-.002 1.117-8.886 5.164.002-1.117z"/><path fill="#E7F1F7" d="m162.326 96.653 8.944 5.164-8.886 5.164-8.944-5.164 8.886-5.164zm.053 9.511 7.481-4.347-7.53-4.348-7.48 4.348 7.53 4.347"/><path fill="#B4C4CC" d="m170.594 92.792.676-.393-.002 9.418-.704.408z"/><path fill="#AEB3BE" d="m169.886 92.399.69-.4.694.4-.676.409z"/><path fill="#CFDEE8" d="m170.594 92.808-.03 9.417-.708-.408V92.4z"/><path fill="#AEB3BE" d="m161.71 88.173.704-.408.708.408-.704.409z"/><path fill="#E7F1F7" d="m162.201 106.435-.352.204-7.281-12.53.352-.204z"/><path fill="#CFDEE8" d="m163.287 88.728 7.072 11.967-.507 1.122-7.434-12.594z"/><path fill="#E7F1F7" d="m162.416 87.289 8.854 5.11-8.886 5.164-8.944-5.164 8.976-5.11zm-.037 9.458 7.481-4.348-7.53-4.347-7.48 4.347 7.53 4.348M169.676 93.741l.352.205-7.281 12.53-.352-.205z"/><path fill="#B4C4CC" d="m170.258 93.505-7.494 12.98.869.496L171.127 94z"/><path fill="#CFDEE8" d="m154.338 93.669 7.495 12.98-.87.496-7.494-12.981z"/><path fill="#CFDEE8" d="m154.338 93.669 7.495 12.98-.87.496-7.494-12.981z"/><path fill="#CFDEE8" d="m154.338 93.669 7.495 12.98-.87.496-7.494-12.981z"/><path fill="#CFDEE8" d="m162.418 88.582-.029 18.399-.708-.409V88.173z"/><path fill="#B4C4CC" d="m154.849 92.399-.001.84h.489l7.081-4.016.003-1.118zM162.418 89.223l.704.405-.029 16.944-.704.409z"/><path fill="#CFDEE8" d="M169.131 93.057h.728l.001-.658-7.439-4.294-.003 1.118 6.713 3.874z"/><path fill="#B4C4CC" d="m154.177 92.808.704-.409-.029 9.419-.704.408z"/><path fill="#CFDEE8" d="m154.338 93.669 7.495 12.98-.87.496-7.494-12.981z"/><path fill="#E7F1F7" d="m162.416 87.289 8.854 5.11-8.886 5.164-8.944-5.164 8.976-5.11zm-.037 9.458 7.481-4.348-7.44-4.294-7.57 4.294 7.53 4.348"/><path fill="#CFDEE8" d="m154.177 92.808-.029 9.418-.708-.408v-9.419z"/><path fill="#CFDEE8" d="m162.384 97.563-.002 1.118-8.945-5.164.003-1.118z"/><path fill="#B4C4CC" d="m171.27 92.399-.002 1.118-8.886 5.164.002-1.118z"/><path fill="#FF6C85" d="m161.17 78.623-.351-.205-7.185 12.164.351.204z"/><path fill="#AEB3BE" d="m153.47 81.864.704-.408.708.408-.704.409z"/><path fill="#EA3D5B" d="m154.178 82.273-.029 9.419-.708-.409v-9.419z"/><path fill="#E22951" d="m161.419 78.193-7.072 11.967.507 1.122 7.434-12.594zM162.419 78.688l.705.405-.03 16.944-.704.409z"/><path fill="#FF6C85" d="m163.537 78.623.352-.205 7.185 12.164-.352.204z"/><path fill="#EA3D5B" d="m169.861 91.282-.002 1.117-7.53-4.347.002-1.118z"/><path fill="#E22951" d="m162.331 86.934-.002 1.118-7.481 4.347.002-1.117z"/><path fill="#EA3D5B" d="m162.385 96.446-.002 1.117-8.945-5.164.003-1.117z"/><path fill="#E22951" d="m171.271 91.282-.002 1.117-8.886 5.164.002-1.117z"/><path fill="#FF6C85" d="m162.327 86.118 8.944 5.164-8.886 5.164-8.944-5.164 8.886-5.164zm.053 9.511 7.481-4.347-7.53-4.348-7.48 4.348 7.53 4.347"/><path fill="#E22951" d="m170.595 82.257.676-.393-.001 9.418-.705.408z"/><path fill="#AEB3BE" d="m169.887 81.864.69-.4.694.4-.676.409z"/><path fill="#EA3D5B" d="m170.595 82.273-.03 9.417-.707-.408v-9.417z"/><path fill="#AEB3BE" d="m161.712 77.638.704-.408.708.409-.705.408z"/><path fill="#FF6C85" d="m162.204 95.9-.352.204-7.281-12.53.352-.204z"/><path fill="#EA3D5B" d="m163.289 78.193 7.072 11.967-.508 1.122-7.434-12.594z"/><path fill="#FF6C85" d="m162.417 76.754 8.854 5.11-8.886 5.164-8.944-5.164 8.976-5.11zm-.037 9.458 7.481-4.348-7.53-4.347-7.48 4.347 7.53 4.348M169.677 83.206l.352.205-7.281 12.53-.352-.205z"/><path fill="#E22951" d="m170.259 82.97-7.494 12.98.869.496 7.495-12.981z"/><path fill="#EA3D5B" d="m154.34 83.134 7.494 12.98-.869.496-7.495-12.981z"/><path fill="#EA3D5B" d="m154.34 83.134 7.494 12.98-.869.496-7.495-12.981z"/><path fill="#EA3D5B" d="m154.34 83.134 7.494 12.98-.869.496-7.495-12.981z"/><path fill="#EA3D5B" d="m162.419 78.047-.029 18.399-.708-.409V77.639z"/><path fill="#E22951" d="m154.85 81.864-.001.841h.489l7.081-4.017.003-1.118zM162.419 78.688l.705.405-.03 16.944-.704.409z"/><path fill="#EA3D5B" d="M169.132 82.522h.728l.001-.658-7.439-4.294-.003 1.118 6.713 3.874z"/><path fill="#E22951" d="m154.178 82.273.704-.409-.029 9.419-.704.409z"/><path fill="#EA3D5B" d="m154.34 83.134 7.494 12.98-.869.496-7.495-12.981z"/><path fill="#FF6C85" d="m162.417 76.754 8.854 5.11-8.886 5.164-8.944-5.164 8.976-5.11zm-.037 9.458 7.481-4.348-7.44-4.294-7.57 4.294 7.53 4.348"/><path fill="#EA3D5B" d="m154.178 82.273-.029 9.419-.708-.409v-9.419z"/><path fill="#EA3D5B" d="m162.385 87.028-.002 1.118-8.945-5.164.003-1.118z"/><path fill="#E22951" d="m171.271 81.864-.002 1.118-8.886 5.164.002-1.118z"/><path fill="#E7F1F7" d="m161.169 68.101-.351-.204-7.186 12.164.352.204z"/><path fill="#AEB3BE" d="m153.469 71.343.704-.409.708.409-.704.408z"/><path fill="#CFDEE8" d="m154.177 71.751-.029 9.419-.708-.408v-9.419z"/><path fill="#B4C4CC" d="m161.418 67.671-7.072 11.968.507 1.121 7.434-12.593zM162.418 68.167l.704.405-.029 16.944-.704.408z"/><path fill="#E7F1F7" d="m163.536 68.101.351-.204 7.186 12.164-.352.204z"/><path fill="#CFDEE8" d="m169.86 80.76-.002 1.118-7.53-4.347.002-1.118z"/><path fill="#B4C4CC" d="m162.33 76.413-.002 1.118-7.481 4.347.002-1.118z"/><path fill="#CFDEE8" d="m162.384 85.924-.002 1.118-8.945-5.164.003-1.118z"/><path fill="#B4C4CC" d="m171.27 80.76-.002 1.118-8.886 5.164.002-1.118z"/><path fill="#E7F1F7" d="m162.326 75.596 8.944 5.164-8.886 5.164-8.944-5.164 8.886-5.164zm.053 9.512 7.481-4.348-7.53-4.347-7.48 4.347 7.53 4.348"/><path fill="#B4C4CC" d="m170.594 71.736.676-.393-.002 9.418-.704.408z"/><path fill="#AEB3BE" d="m169.886 71.343.69-.4.694.4-.676.409z"/><path fill="#CFDEE8" d="m170.594 71.752-.03 9.417-.708-.409v-9.417z"/><path fill="#AEB3BE" d="m161.71 67.117.704-.408.708.408-.704.409z"/><path fill="#E7F1F7" d="m162.201 85.379-.352.204-7.281-12.53.352-.204z"/><path fill="#CFDEE8" d="m163.287 67.671 7.072 11.968-.507 1.121-7.434-12.593z"/><path fill="#E7F1F7" d="m162.416 66.233 8.854 5.11-8.886 5.164-8.944-5.164 8.976-5.11zm-.037 9.458 7.481-4.348-7.53-4.347-7.48 4.347 7.53 4.348M169.676 72.685l.352.205-7.281 12.53-.352-.205z"/><path fill="#B4C4CC" d="m170.258 72.448-7.494 12.981.869.495 7.494-12.98z"/><path fill="#CFDEE8" d="m154.338 72.613 7.495 12.98-.87.496-7.494-12.981z"/><path fill="#CFDEE8" d="m154.338 72.613 7.495 12.98-.87.496-7.494-12.981z"/><path fill="#CFDEE8" d="m154.338 72.613 7.495 12.98-.87.496-7.494-12.981z"/><path fill="#CFDEE8" d="m162.418 67.526-.029 18.398-.708-.408V67.117z"/><path fill="#B4C4CC" d="m154.849 71.343-.001.84h.489l7.081-4.016.003-1.118zM162.418 68.167l.704.405-.029 16.944-.704.408z"/><path fill="#CFDEE8" d="M169.131 72h.728l.001-.657-7.439-4.294-.003 1.118 6.713 3.874z"/><path fill="#B4C4CC" d="m154.177 71.751.704-.408-.029 9.419-.704.408z"/><path fill="#CFDEE8" d="m154.338 72.613 7.495 12.98-.87.496-7.494-12.981z"/><path fill="#E7F1F7" d="m162.416 66.233 8.854 5.11-8.886 5.164-8.944-5.164 8.976-5.11zm-.037 9.458 7.481-4.348-7.44-4.294-7.57 4.294 7.53 4.348"/><path fill="#CFDEE8" d="m154.177 71.751-.029 9.419-.708-.408v-9.419z"/><path fill="#CFDEE8" d="m162.384 76.507-.002 1.118-8.945-5.164.003-1.118z"/><path fill="#B4C4CC" d="m171.27 71.343-.002 1.118-8.886 5.164.002-1.118z"/><path fill="#FF6C85" d="m161.17 57.566-.351-.204-7.185 12.164.351.204z"/><path fill="#AEB3BE" d="m153.47 60.808.704-.408.708.408-.704.409z"/><path fill="#EA3D5B" d="m154.178 61.217-.029 9.418-.708-.408v-9.419z"/><path fill="#E22951" d="m161.419 57.136-7.072 11.968.507 1.122 7.434-12.594zM162.419 57.632l.705.405-.03 16.944-.704.408z"/><path fill="#FF6C85" d="m163.537 57.566.352-.204 7.185 12.164-.352.204z"/><path fill="#EA3D5B" d="m169.861 70.225-.002 1.118-7.53-4.347.002-1.118z"/><path fill="#E22951" d="m162.331 65.878-.002 1.118-7.481 4.347.002-1.117z"/><path fill="#EA3D5B" d="m162.385 75.389-.002 1.118-8.945-5.164.003-1.117z"/><path fill="#E22951" d="m171.271 70.225-.002 1.118-8.886 5.164.002-1.118z"/><path fill="#FF6C85" d="m162.327 65.062 8.944 5.163-8.886 5.164-8.944-5.163 8.886-5.164zm.053 9.511 7.481-4.348-7.53-4.347-7.48 4.348 7.53 4.347"/><path fill="#E22951" d="m170.595 61.201.676-.393-.001 9.418-.705.408z"/><path fill="#AEB3BE" d="m169.887 60.808.69-.4.694.4-.676.409z"/><path fill="#EA3D5B" d="m170.595 61.217-.03 9.417-.707-.409v-9.417z"/><path fill="#AEB3BE" d="m161.712 56.582.704-.408.708.408-.705.409z"/><path fill="#FF6C85" d="m162.204 74.842-.352.204-7.282-12.53.352-.204z"/><path fill="#EA3D5B" d="m163.289 57.136 7.072 11.968-.508 1.122-7.434-12.594z"/><path fill="#FF6C85" d="m162.417 55.698 8.854 5.11-8.886 5.164-8.944-5.164 8.976-5.11zm-.037 9.458 7.481-4.348-7.53-4.347-7.48 4.347 7.53 4.348M169.677 62.15l.352.205-7.281 12.53-.352-.205z"/><path fill="#E22951" d="m170.259 61.913-7.494 12.981.869.495 7.495-12.98z"/><path fill="#EA3D5B" d="m154.34 62.078 7.494 12.98-.869.496-7.495-12.981z"/><path fill="#EA3D5B" d="m154.34 62.078 7.494 12.98-.869.496-7.495-12.981z"/><path fill="#EA3D5B" d="m154.34 62.078 7.494 12.98-.869.496-7.495-12.981z"/><path fill="#EA3D5B" d="m162.419 56.991-.029 18.398-.708-.408V56.582z"/><path fill="#E22951" d="m154.85 60.808-.001.84h.489l7.081-4.016.003-1.118zM162.419 57.632l.705.405-.03 16.944-.704.408z"/><path fill="#EA3D5B" d="M169.132 61.465h.728l.001-.657-7.439-4.294-.003 1.118 6.713 3.874z"/><path fill="#E22951" d="m154.178 61.217.704-.409-.029 9.419-.704.408z"/><path fill="#EA3D5B" d="m154.34 62.078 7.494 12.98-.869.496-7.495-12.981z"/><path fill="#FF6C85" d="m162.417 55.698 8.854 5.11-8.886 5.164-8.944-5.164 8.976-5.11zm-.037 9.458 7.481-4.348-7.44-4.294-7.57 4.294 7.53 4.348"/><path fill="#EA3D5B" d="m154.178 61.217-.029 9.418-.708-.408v-9.419z"/><path fill="#EA3D5B" d="m162.385 65.972-.002 1.118-8.945-5.164.003-1.118z"/><path fill="#E22951" d="m171.271 60.808-.002 1.118-8.886 5.164.002-1.118z"/><path fill="#E7F1F7" d="m161.169 47.045-.351-.204-7.186 12.163.352.205z"/><path fill="#AEB3BE" d="m153.469 50.287.704-.409.708.409-.704.408z"/><path fill="#CFDEE8" d="m154.177 50.695-.029 9.419-.708-.409v-9.418z"/><path fill="#B4C4CC" d="m161.418 46.615-7.072 11.968.507 1.121 7.434-12.593zM162.418 47.111l.704.405-.029 16.944-.704.408z"/><path fill="#E7F1F7" d="m163.536 47.045.351-.204 7.186 12.163-.352.205z"/><path fill="#CFDEE8" d="m169.86 59.704-.002 1.118-7.53-4.348.002-1.117z"/><path fill="#B4C4CC" d="m162.33 55.357-.002 1.117-7.481 4.348.002-1.118z"/><path fill="#CFDEE8" d="m162.384 64.868-.002 1.118-8.945-5.164.003-1.118z"/><path fill="#B4C4CC" d="m171.27 59.704-.002 1.118-8.886 5.164.002-1.118z"/><path fill="#E7F1F7" d="m162.326 54.54 8.944 5.164-8.886 5.164-8.944-5.164 8.886-5.164zm.053 9.512 7.481-4.348-7.53-4.347-7.48 4.347 7.53 4.348"/><path fill="#B4C4CC" d="m170.594 50.68.676-.393-.002 9.418-.704.408z"/><path fill="#AEB3BE" d="m169.886 50.287.69-.401.694.401-.676.408z"/><path fill="#CFDEE8" d="m170.594 50.695-.03 9.418-.708-.409v-9.417z"/><path fill="#AEB3BE" d="m161.71 46.061.704-.409.708.409-.704.408z"/><path fill="#E7F1F7" d="m162.201 64.323-.352.204-7.281-12.53.352-.204z"/><path fill="#CFDEE8" d="m163.287 46.615 7.072 11.968-.507 1.121-7.434-12.593z"/><path fill="#E7F1F7" d="m162.416 45.176 8.854 5.111-8.886 5.164-8.944-5.164 8.976-5.11zm-.037 9.458 7.481-4.347-7.53-4.347-7.48 4.347 7.53 4.347M169.676 51.628l.352.205-7.281 12.53-.352-.205z"/><path fill="#B4C4CC" d="m170.258 51.392-7.494 12.981.869.495 7.494-12.98z"/><path fill="#CFDEE8" d="m154.338 51.556 7.495 12.981-.87.495-7.494-12.98z"/><path fill="#CFDEE8" d="m154.338 51.556 7.495 12.981-.87.495-7.494-12.98z"/><path fill="#CFDEE8" d="m154.338 51.556 7.495 12.981-.87.495-7.494-12.98z"/><path fill="#CFDEE8" d="m162.418 46.469-.029 18.399-.708-.408V46.061z"/><path fill="#B4C4CC" d="m154.849 50.287-.001.84h.489l7.081-4.016.003-1.118zM162.418 47.111l.704.405-.029 16.944-.704.408z"/><path fill="#CFDEE8" d="M169.131 50.944h.728l.001-.657-7.439-4.294-.003 1.118 6.713 3.874z"/><path fill="#B4C4CC" d="m154.177 50.695.704-.408-.029 9.419-.704.408z"/><path fill="#CFDEE8" d="m154.338 51.556 7.495 12.981-.87.495-7.494-12.98z"/><path fill="#E7F1F7" d="m162.416 45.176 8.854 5.111-8.886 5.164-8.944-5.164 8.976-5.11zm-.037 9.458 7.481-4.347-7.44-4.294-7.57 4.294 7.53 4.347"/><path fill="#CFDEE8" d="m154.177 50.695-.029 9.419-.708-.409v-9.418z"/><path fill="#CFDEE8" d="m162.384 55.451-.002 1.118-8.945-5.164.003-1.118z"/><path fill="#B4C4CC" d="m171.27 50.287-.002 1.118-8.886 5.164.002-1.118z"/><path fill="#FF6C85" d="m161.17 36.51-.351-.204-7.185 12.164.351.204z"/><path fill="#AEB3BE" d="m153.47 39.752.704-.409.708.409-.704.408z"/><path fill="#EA3D5B" d="m154.178 40.16-.029 9.419-.708-.409v-9.418z"/><path fill="#E22951" d="m161.419 36.08-7.072 11.968.507 1.121 7.434-12.593zM162.419 36.576l.705.405-.03 16.944-.704.408z"/><path fill="#FF6C85" d="m163.537 36.51.352-.204 7.185 12.164-.352.204z"/><path fill="#EA3D5B" d="m169.861 49.169-.002 1.118-7.53-4.347.002-1.118z"/><path fill="#E22951" d="m162.331 44.822-.002 1.118-7.481 4.347.002-1.118z"/><path fill="#EA3D5B" d="m162.385 54.333-.002 1.118-8.945-5.164.003-1.118z"/><path fill="#E22951" d="m171.271 49.169-.002 1.118-8.886 5.164.002-1.118z"/><path fill="#FF6C85" d="m162.327 44.005 8.944 5.164-8.886 5.164-8.944-5.164 8.886-5.164zm.053 9.512 7.481-4.348-7.53-4.347-7.48 4.347 7.53 4.348"/><path fill="#E22951" d="m170.595 40.145.676-.393-.001 9.418-.705.408z"/><path fill="#AEB3BE" d="m169.887 39.752.69-.4.694.4-.676.409z"/><path fill="#EA3D5B" d="m170.595 40.161-.03 9.417-.707-.409v-9.417z"/><path fill="#AEB3BE" d="m161.712 35.526.704-.409.708.409-.705.408z"/><path fill="#FF6C85" d="m162.204 53.787-.352.205-7.281-12.53.352-.204z"/><path fill="#EA3D5B" d="m163.289 36.08 7.072 11.968-.508 1.121-7.434-12.593z"/><path fill="#FF6C85" d="m162.417 34.641 8.854 5.111-8.886 5.164-8.944-5.164 8.976-5.11zm-.037 9.459 7.481-4.348-7.53-4.347-7.48 4.347 7.53 4.348M169.677 41.093l.352.205-7.281 12.53-.352-.205z"/><path fill="#E22951" d="m170.259 40.857-7.494 12.981.869.495 7.495-12.98z"/><path fill="#EA3D5B" d="m154.34 41.021 7.494 12.981-.869.496-7.495-12.981z"/><path fill="#EA3D5B" d="m154.34 41.021 7.494 12.981-.869.496-7.495-12.981z"/><path fill="#EA3D5B" d="m154.34 41.021 7.494 12.981-.869.496-7.495-12.981z"/><path fill="#EA3D5B" d="m162.419 35.934-.029 18.399-.708-.408V35.526z"/><path fill="#E22951" d="m154.85 39.752-.001.84h.489l7.081-4.016.003-1.118zM162.419 36.576l.705.405-.03 16.944-.704.408z"/><path fill="#EA3D5B" d="M169.132 40.409h.728l.001-.657-7.439-4.294-.003 1.118 6.713 3.874z"/><path fill="#E22951" d="m154.178 40.16.704-.408-.029 9.419-.704.408z"/><path fill="#EA3D5B" d="m154.34 41.021 7.494 12.981-.869.496-7.495-12.981z"/><path fill="#FF6C85" d="m162.417 34.641 8.854 5.111-8.886 5.164-8.944-5.164 8.976-5.11zm-.037 9.459 7.481-4.348-7.44-4.294-7.57 4.294 7.53 4.348"/><path fill="#EA3D5B" d="m154.178 40.16-.029 9.419-.708-.409v-9.418z"/><path fill="#EA3D5B" d="m162.385 44.916-.002 1.118-8.945-5.164.003-1.118z"/><path fill="#E22951" d="m171.271 39.752-.002 1.118-8.886 5.164.002-1.118z"/><path fill="#E7F1F7" d="m161.169 25.989-.351-.204-7.186 12.163.352.205z"/><path fill="#AEB3BE" d="m153.469 29.23.704-.408.708.409-.704.408z"/><path fill="#CFDEE8" d="m154.177 29.639-.029 9.419-.708-.409v-9.418z"/><path fill="#B4C4CC" d="m161.418 25.559-7.072 11.967.507 1.122 7.434-12.594zM162.418 26.054l.704.406-.029 16.944-.704.408z"/><path fill="#E7F1F7" d="m163.536 25.989.351-.204 7.186 12.163-.352.205z"/><path fill="#CFDEE8" d="m169.86 38.648-.002 1.118-7.53-4.348.002-1.117z"/><path fill="#B4C4CC" d="m162.33 34.301-.002 1.117-7.481 4.348.002-1.118z"/><path fill="#CFDEE8" d="m162.384 43.812-.002 1.118-8.945-5.164.003-1.118z"/><path fill="#B4C4CC" d="m171.27 38.648-.002 1.118-8.886 5.164.002-1.118z"/><path fill="#E7F1F7" d="m162.326 33.484 8.944 5.164-8.886 5.164-8.944-5.164 8.886-5.164zm.053 9.512 7.481-4.348-7.53-4.347-7.48 4.347 7.53 4.348"/><path fill="#B4C4CC" d="m170.594 29.624.676-.393-.002 9.417-.704.409z"/><path fill="#AEB3BE" d="m169.886 29.231.69-.401.694.401-.676.408z"/><path fill="#CFDEE8" d="m170.594 29.639-.03 9.418-.708-.409v-9.417z"/><path fill="#AEB3BE" d="m161.71 25.004.704-.408.708.409-.704.408z"/><path fill="#E7F1F7" d="m162.201 43.266-.352.204-7.281-12.53.352-.204z"/><path fill="#CFDEE8" d="m163.287 25.559 7.072 11.967-.507 1.122-7.434-12.594z"/><path fill="#E7F1F7" d="m162.416 24.12 8.854 5.11-8.886 5.165-8.944-5.164 8.976-5.11zm-.037 9.458 7.481-4.347-7.53-4.348-7.48 4.348 7.53 4.347M169.677 30.572l.352.205-7.282 12.53-.352-.205z"/><path fill="#B4C4CC" d="m170.258 30.336-7.494 12.981.869.495 7.494-12.981z"/><path fill="#CFDEE8" d="m154.338 30.5 7.495 12.981-.87.495-7.494-12.98z"/><path fill="#CFDEE8" d="m154.338 30.5 7.495 12.981-.87.495-7.494-12.98z"/><path fill="#CFDEE8" d="m154.338 30.5 7.495 12.981-.87.495-7.494-12.98z"/><path fill="#CFDEE8" d="m162.418 25.413-.029 18.399-.708-.409V25.005z"/><path fill="#B4C4CC" d="m154.849 29.231-.001.84h.489l7.081-4.017.003-1.117zM162.418 26.054l.704.406-.029 16.944-.704.408z"/><path fill="#CFDEE8" d="M169.131 29.888h.728l.001-.657-7.439-4.294-.003 1.117 6.713 3.875z"/><path fill="#B4C4CC" d="m154.177 29.639.704-.408-.029 9.419-.704.408z"/><path fill="#CFDEE8" d="m154.338 30.5 7.495 12.981-.87.495-7.494-12.98z"/><path fill="#E7F1F7" d="m162.416 24.12 8.854 5.11-8.886 5.165-8.944-5.164 8.976-5.11zm-.037 9.458 7.481-4.347-7.44-4.294-7.57 4.294 7.53 4.347"/><path fill="#CFDEE8" d="m154.177 29.639-.029 9.419-.708-.409v-9.418z"/><path fill="#CFDEE8" d="m162.384 34.395-.002 1.117-8.945-5.163.003-1.118z"/><path fill="#B4C4CC" d="m171.27 29.231-.002 1.117-8.886 5.164.002-1.117z"/><path fill="#FF6C85" d="m161.17 15.454-.351-.204-7.185 12.163.351.205z"/><path fill="#AEB3BE" d="m153.47 18.695.704-.408.708.409-.704.408z"/><path fill="#EA3D5B" d="m154.178 19.104-.029 9.419-.708-.409v-9.418z"/><path fill="#E22951" d="m161.419 15.024-7.072 11.967.507 1.122 7.434-12.594zM162.419 15.519l.705.406-.03 16.944-.704.408z"/><path fill="#FF6C85" d="m163.537 15.454.352-.204 7.185 12.163-.352.205z"/><path fill="#EA3D5B" d="m169.861 28.113-.002 1.118-7.53-4.348.002-1.117z"/><path fill="#E22951" d="m162.331 23.766-.002 1.117-7.481 4.348.002-1.118z"/><path fill="#EA3D5B" d="m162.385 33.277-.002 1.118-8.945-5.164.003-1.118z"/><path fill="#E22951" d="m171.271 28.113-.002 1.118-8.886 5.164.002-1.118z"/><path fill="#FF6C85" d="m162.327 22.95 8.944 5.163-8.886 5.164-8.944-5.164 8.886-5.164zm.053 9.51 7.481-4.347-7.53-4.347-7.48 4.347 7.53 4.348"/><path fill="#E22951" d="m170.595 19.089.676-.393-.001 9.417-.705.409z"/><path fill="#AEB3BE" d="m169.887 18.696.69-.401.694.401-.676.408z"/><path fill="#EA3D5B" d="m170.595 19.104-.03 9.418-.707-.409v-9.417z"/><path fill="#AEB3BE" d="m161.712 14.47.704-.409.708.409-.705.408z"/><path fill="#FF6C85" d="m162.204 32.73-.352.205-7.281-12.53.352-.204z"/><path fill="#EA3D5B" d="m163.289 15.024 7.072 11.967-.508 1.122-7.434-12.594z"/><path fill="#FF6C85" d="m162.417 13.585 8.854 5.11-8.886 5.165-8.944-5.164 8.976-5.11zm-.037 9.458 7.481-4.347-7.53-4.348-7.48 4.348 7.53 4.347M169.677 20.037l.352.205-7.281 12.53-.352-.205z"/><path fill="#E22951" d="m170.259 19.801-7.494 12.981.869.495 7.495-12.98z"/><path fill="#EA3D5B" d="m154.34 19.965 7.494 12.981-.869.495-7.495-12.98z"/><path fill="#EA3D5B" d="m154.34 19.965 7.494 12.981-.869.495-7.495-12.98z"/><path fill="#EA3D5B" d="m154.34 19.965 7.494 12.981-.869.495-7.495-12.98z"/><path fill="#EA3D5B" d="m162.419 14.878-.029 18.399-.708-.409V14.47z"/><path fill="#E22951" d="m154.85 18.696-.001.84h.489l7.081-4.016.003-1.118z"/><path fill="#E22951" d="m162.419 15.519.705.406-.03 16.944-.704.408z"/><path fill="#EA3D5B" d="M169.132 19.353h.728l.001-.657-7.439-4.294-.003 1.118 6.713 3.874z"/><path fill="#E22951" d="m154.178 19.104.704-.408-.029 9.419-.704.408z"/><path fill="#EA3D5B" d="m154.34 19.965 7.494 12.981-.869.495-7.495-12.98z"/><path fill="#FF6C85" d="m162.417 13.585 8.854 5.11-8.886 5.165-8.944-5.164 8.976-5.11zm-.037 9.458 7.481-4.347-7.44-4.294-7.57 4.294 7.53 4.347"/><path fill="#EA3D5B" d="m154.178 19.104-.029 9.419-.708-.409v-9.418z"/><path fill="#EA3D5B" d="m162.385 23.86-.002 1.118-8.945-5.164.003-1.118z"/><path fill="#E22951" d="m171.271 18.696-.002 1.118-8.886 5.164.002-1.118z"/><path fill="#E7F1F7" d="m161.169 4.933-.351-.205-7.186 12.164.352.204z"/><path fill="#AEB3BE" d="m153.469 8.174.704-.408.708.409-.704.408z"/><path fill="#CFDEE8" d="m154.177 8.583-.029 9.419-.708-.409V8.175z"/><path fill="#B4C4CC" d="m161.418 4.503-7.072 11.967.507 1.122 7.434-12.594zM162.418 4.998l.704.405-.029 16.945-.704.408z"/><path fill="#E7F1F7" d="m163.536 4.933.351-.205 7.186 12.164-.352.204z"/><path fill="#CFDEE8" d="m169.86 17.592-.002 1.118-7.53-4.348.002-1.118z"/><path fill="#B4C4CC" d="m162.33 13.244-.002 1.118-7.481 4.348.002-1.118z"/><path fill="#CFDEE8" d="m162.384 22.756-.002 1.118-8.945-5.164.003-1.118z"/><path fill="#B4C4CC" d="m171.27 17.592-.002 1.118-8.886 5.164.002-1.118z"/><path fill="#E7F1F7" d="m162.326 12.428 8.944 5.164-8.886 5.164-8.944-5.164 8.886-5.164zm.053 9.511 7.481-4.347-7.53-4.348-7.48 4.348 7.53 4.347"/><path fill="#B4C4CC" d="m170.594 8.567.676-.392-.002 9.417-.704.408z"/><path fill="#AEB3BE" d="m169.886 8.174.69-.4.694.401-.676.408z"/><path fill="#CFDEE8" d="m170.594 8.583-.03 9.417-.708-.408V8.175z"/><path fill="#AEB3BE" d="m161.71 3.948.704-.408.708.409-.704.408z"/><path fill="#E7F1F7" d="m162.201 22.21-.352.204-7.281-12.53.352-.204z"/><path fill="#CFDEE8" d="m163.287 4.503 7.072 11.967-.507 1.122-7.434-12.594z"/><path fill="#E7F1F7" d="m162.416 3.064 8.854 5.11-8.886 5.165-8.944-5.164 8.976-5.111zm-.037 9.458 7.481-4.347-7.53-4.348-7.48 4.348 7.53 4.347M169.676 9.516l.352.205-7.281 12.53-.352-.205z"/><path fill="#B4C4CC" d="m170.258 9.28-7.494 12.98.869.496 7.494-12.981z"/><path fill="#CFDEE8" d="m154.338 9.444 7.495 12.981-.87.495-7.494-12.981z"/><path fill="#CFDEE8" d="m154.338 9.444 7.495 12.981-.87.495-7.494-12.981z"/><path fill="#CFDEE8" d="m154.338 9.444 7.495 12.981-.87.495-7.494-12.981z"/><path fill="#CFDEE8" d="m162.418 4.357-.029 18.399-.708-.409V3.949z"/><path fill="#B4C4CC" d="m154.849 8.175-.001.84h.489l7.081-4.017.003-1.117zM162.418 4.998l.704.405-.029 16.945-.704.408z"/><path fill="#CFDEE8" d="M169.131 8.832h.728l.001-.657-7.439-4.294-.003 1.117 6.713 3.874z"/><path fill="#B4C4CC" d="m154.177 8.583.704-.408-.029 9.418-.704.409z"/><path fill="#CFDEE8" d="m154.338 9.444 7.495 12.981-.87.495-7.494-12.981z"/><path fill="#E7F1F7" d="m162.416 3.064 8.854 5.11-8.886 5.165-8.944-5.164 8.976-5.111zm-.037 9.458 7.481-4.347-7.44-4.294-7.57 4.294 7.53 4.347"/><path fill="#CFDEE8" d="m154.177 8.583-.029 9.419-.708-.409V8.175z"/><path fill="#CFDEE8" d="m162.384 13.339-.002 1.117-8.945-5.164.003-1.117z"/><path fill="#B4C4CC" d="m171.27 8.175-.002 1.117-8.886 5.164.002-1.117z"/><path fill="#E22951" d="m171.879 7.477-.003.952-9.425 5.478.003-.952z"/><path fill="#EA3D5B" d="m162.454 12.955-.003.952-9.487-5.478.003-.952z"/><path fill="#FD546B" d="m171.879 7.477-9.425 5.478-9.487-5.478L162.392 2z"/><path fill="#E7F1F7" d="m154.65 10.098.352-.205 7.185 12.164-.351.204z"/><path fill="#AEB3BE" d="m162.351 13.339-.705-.408-.707.408.704.409z"/><path fill="#CFDEE8" d="m161.643 13.748.029 9.419.708-.409v-9.419z"/><path fill="#B4C4CC" d="m154.402 9.668 7.072 11.967-.508 1.122-7.433-12.594zM153.401 10.163l-.704.405.03 16.944.704.409z"/><path fill="#E7F1F7" d="m152.284 10.098-.352-.205-7.185 12.164.352.204z"/><path fill="#CFDEE8" d="m145.959 22.757.003 1.117 7.53-4.347-.003-1.118z"/><path fill="#B4C4CC" d="m153.489 18.409.003 1.118 7.481 4.347-.003-1.117z"/><path fill="#CFDEE8" d="m153.436 27.921.002 1.117 8.944-5.164-.002-1.117z"/><path fill="#B4C4CC" d="m144.55 22.757.002 1.117 8.886 5.164-.002-1.117z"/><path fill="#E7F1F7" d="m162.38 22.757-8.944 5.164-8.886-5.164 8.944-5.164 8.886 5.164zm-8.94 4.347 7.53-4.347-7.48-4.348-7.53 4.348 7.48 4.347"/><path fill="#B4C4CC" d="m145.226 13.732-.676-.393.001 9.418.704.408z"/><path fill="#AEB3BE" d="m145.934 13.339-.691-.4-.693.4.676.409z"/><path fill="#CFDEE8" d="m145.226 13.748.029 9.417.708-.408V13.34z"/><path fill="#AEB3BE" d="m154.109 9.113-.704-.408-.708.408.704.409z"/><path fill="#E7F1F7" d="m160.9 14.845.351.205-7.281 12.53-.352-.205z"/><path fill="#CFDEE8" d="m152.532 9.668-7.072 11.967.508 1.122 7.433-12.594z"/><path fill="#E7F1F7" d="m162.38 13.34-8.944 5.163-8.886-5.164 8.854-5.11 8.976 5.11zm-8.94 4.347 7.53-4.348-7.48-4.347-7.53 4.347 7.48 4.348M153.426 27.21l-.352.205-7.281-12.53.352-.204z"/><path fill="#B4C4CC" d="m145.561 14.445 7.495 12.98-.869.496-7.495-12.981z"/><path fill="#CFDEE8" d="m161.481 14.609-7.494 12.98.869.496 7.495-12.981z"/><path fill="#CFDEE8" d="m161.481 14.609-7.494 12.98.869.496 7.495-12.981z"/><path fill="#CFDEE8" d="m161.481 14.609-7.494 12.98.869.496 7.495-12.981z"/><path fill="#CFDEE8" d="m153.401 9.522.03 18.399.708-.409V9.113z"/><path fill="#B4C4CC" d="m160.97 13.339.002.841h-.489l-7.082-4.017-.002-1.118zM153.401 10.163l-.704.405.03 16.944.704.409z"/><path fill="#CFDEE8" d="M146.689 13.997h-.728l-.002-.658 7.44-4.294.002 1.118-6.712 3.874z"/><path fill="#B4C4CC" d="m161.643 13.748-.704-.409.029 9.419.704.409z"/><path fill="#CFDEE8" d="m161.481 14.609-7.494 12.98.869.496 7.495-12.981z"/><path fill="#E7F1F7" d="m162.38 13.34-8.944 5.163-8.886-5.164 8.854-5.11 8.976 5.11zm-8.94 4.347 7.53-4.348-7.57-4.294-7.44 4.294 7.48 4.348"/><path fill="#CFDEE8" d="m161.643 13.748.029 9.419.708-.409v-9.419z"/><path fill="#CFDEE8" d="m153.436 18.503.002 1.118 8.944-5.164-.002-1.118z"/><path fill="#B4C4CC" d="m144.55 13.339.002 1.118 8.886 5.164-.002-1.118z"/><path fill="#FF6C85" d="m143.313 15.212-.351-.204-7.186 12.163.352.205z"/><path fill="#AEB3BE" d="m135.613 18.454.704-.409.708.409-.704.408z"/><path fill="#EA3D5B" d="m136.321 18.862-.03 9.419-.707-.409v-9.418z"/><path fill="#E22951" d="M143.562 14.782 136.49 26.75l.507 1.121 7.434-12.593zM144.562 15.278l.704.405-.029 16.944-.704.408z"/><path fill="#FF6C85" d="m145.68 15.212.351-.204 7.186 12.163-.352.205z"/><path fill="#EA3D5B" d="m152.004 27.871-.002 1.118-7.53-4.348.002-1.117z"/><path fill="#E22951" d="m144.474 23.524-.002 1.117-7.481 4.348.002-1.118z"/><path fill="#EA3D5B" d="m144.528 33.035-.003 1.118-8.944-5.164.003-1.118z"/><path fill="#E22951" d="m153.414 27.871-.002 1.118-8.887 5.164.003-1.118z"/><path fill="#FF6C85" d="m144.47 22.707 8.944 5.164-8.886 5.164-8.944-5.164 8.886-5.164zm.053 9.512 7.481-4.348-7.53-4.347-7.48 4.347 7.53 4.348"/><path fill="#E22951" d="m152.738 18.847.676-.393-.002 9.418-.704.408z"/><path fill="#AEB3BE" d="m152.03 18.454.69-.4.694.4-.676.409z"/><path fill="#EA3D5B" d="m152.738 18.863-.03 9.417-.708-.409v-9.417z"/><path fill="#AEB3BE" d="m143.854 14.228.704-.409.708.409-.704.408z"/><path fill="#FF6C85" d="m144.347 32.49-.352.204-7.281-12.53.352-.204z"/><path fill="#EA3D5B" d="m145.431 14.782 7.072 11.968-.507 1.121-7.434-12.593z"/><path fill="#FF6C85" d="m144.56 13.343 8.854 5.111-8.886 5.164-8.944-5.164 8.976-5.11zm-.037 9.458 7.481-4.347-7.53-4.347-7.48 4.347 7.53 4.347M151.82 19.795l.352.205-7.281 12.53-.352-.205z"/><path fill="#E22951" d="m152.402 19.559-7.494 12.981.869.495 7.494-12.98z"/><path fill="#EA3D5B" d="m136.482 19.723 7.495 12.981-.87.495-7.494-12.98z"/><path fill="#EA3D5B" d="m136.482 19.723 7.495 12.981-.87.495-7.494-12.98z"/><path fill="#EA3D5B" d="m136.482 19.723 7.495 12.981-.87.495-7.494-12.98z"/><path fill="#EA3D5B" d="m144.562 14.636-.029 18.399-.708-.408V14.228z"/><path fill="#E22951" d="m136.993 18.454-.001.84h.489l7.081-4.016.003-1.118zM144.562 15.278l.704.405-.029 16.944-.704.408z"/><path fill="#EA3D5B" d="M151.275 19.111h.728l.001-.657-7.439-4.294-.003 1.118 6.713 3.874z"/><path fill="#E22951" d="m136.321 18.862.704-.408-.029 9.419-.705.408z"/><path fill="#EA3D5B" d="m136.482 19.723 7.495 12.981-.87.495-7.494-12.98z"/><path fill="#FF6C85" d="m144.56 13.343 8.854 5.111-8.886 5.164-8.944-5.164 8.976-5.11zm-.037 9.458 7.481-4.347-7.44-4.294-7.57 4.294 7.53 4.347"/><path fill="#EA3D5B" d="m136.321 18.862-.03 9.419-.707-.409v-9.418z"/><path fill="#EA3D5B" d="m144.528 23.618-.003 1.118-8.944-5.164.003-1.118z"/><path fill="#E22951" d="m153.414 18.454-.002 1.118-8.887 5.164.003-1.118z"/><path fill="#E7F1F7" d="m136.83 20.327.352-.205 7.185 12.164-.352.204z"/><path fill="#AEB3BE" d="m144.53 23.568-.704-.408-.708.409.704.408z"/><path fill="#CFDEE8" d="m143.822 23.977.03 9.419.708-.409v-9.418z"/><path fill="#B4C4CC" d="m136.582 19.897 7.072 11.967-.508 1.122-7.434-12.594zM135.581 20.392l-.704.405.029 16.945.704.408z"/><path fill="#E7F1F7" d="m134.463 20.327-.351-.205-7.185 12.164.351.204z"/><path fill="#CFDEE8" d="m128.139 32.986.002 1.118 7.53-4.348-.002-1.118z"/><path fill="#B4C4CC" d="m135.669 28.638.002 1.118 7.481 4.348-.002-1.118z"/><path fill="#CFDEE8" d="m135.615 38.15.003 1.118 8.944-5.164-.002-1.118z"/><path fill="#B4C4CC" d="m126.729 32.986.003 1.118 8.886 5.164-.003-1.118z"/><path fill="#E7F1F7" d="m144.56 32.986-8.945 5.164-8.886-5.164 8.945-5.164 8.886 5.164zm-8.94 4.347 7.53-4.347-7.481-4.348-7.53 4.348 7.481 4.347"/><path fill="#B4C4CC" d="m127.405 23.961-.676-.392.002 9.417.704.409z"/><path fill="#AEB3BE" d="m128.113 23.568-.69-.4-.694.401.676.408z"/><path fill="#CFDEE8" d="m127.405 23.977.03 9.418.708-.409v-9.417z"/><path fill="#AEB3BE" d="m136.289 19.342-.704-.408-.708.409.704.408z"/><path fill="#E7F1F7" d="m143.078 25.074.352.204-7.281 12.53-.352-.205z"/><path fill="#CFDEE8" d="m134.712 19.897-7.072 11.967.507 1.122 7.434-12.594z"/><path fill="#E7F1F7" d="m144.56 23.569-8.945 5.164-8.886-5.164 8.854-5.111 8.977 5.11zm-8.94 4.347 7.53-4.347-7.481-4.348-7.53 4.348 7.481 4.347M135.604 37.44l-.352.204-7.281-12.53.352-.204z"/><path fill="#B4C4CC" d="m127.741 24.674 7.494 12.98-.869.496-7.494-12.981z"/><path fill="#CFDEE8" d="m143.661 24.838-7.494 12.981.869.495 7.494-12.98z"/><path fill="#CFDEE8" d="m143.661 24.838-7.494 12.981.869.495 7.494-12.98z"/><path fill="#CFDEE8" d="m143.661 24.838-7.494 12.981.869.495 7.494-12.98z"/><path fill="#CFDEE8" d="m135.581 19.751.029 18.399.708-.409V19.343z"/><path fill="#B4C4CC" d="m143.15 23.569.002.84h-.489l-7.082-4.017-.002-1.117zM135.581 20.392l-.704.405.029 16.945.704.408z"/><path fill="#CFDEE8" d="M128.868 24.226h-.728l-.001-.657 7.44-4.294.002 1.117-6.713 3.874z"/><path fill="#B4C4CC" d="m143.822 23.977-.704-.408.03 9.418.704.409z"/><path fill="#CFDEE8" d="m143.661 24.838-7.494 12.981.869.495 7.494-12.98z"/><path fill="#E7F1F7" d="m144.56 23.569-8.945 5.164-8.886-5.164 8.854-5.111 8.977 5.11zm-8.94 4.347 7.53-4.347-7.571-4.294-7.44 4.294 7.481 4.347"/><path fill="#CFDEE8" d="m143.822 23.977.03 9.419.708-.409v-9.418z"/><path fill="#CFDEE8" d="m135.615 28.733.003 1.117 8.944-5.164-.002-1.117z"/><path fill="#B4C4CC" d="m126.729 23.569.003 1.117 8.886 5.164-.003-1.117z"/><path fill="#FF6C85" d="m125.493 25.441-.352-.204-7.185 12.164.352.204z"/><path fill="#AEB3BE" d="m117.793 28.683.704-.408.708.408-.704.409z"/><path fill="#EA3D5B" d="m118.501 29.092-.03 9.418-.708-.408v-9.419z"/><path fill="#E22951" d="m125.741 25.011-7.072 11.968.508 1.122 7.433-12.594zM126.742 25.507l.704.405-.03 16.944-.704.409z"/><path fill="#FF6C85" d="m127.859 25.441.352-.204 7.185 12.164-.351.204z"/><path fill="#EA3D5B" d="m134.184 38.1-.003 1.118-7.53-4.347.003-1.118z"/><path fill="#E22951" d="m126.654 33.753-.003 1.118-7.481 4.347.003-1.117z"/><path fill="#EA3D5B" d="m126.707 43.265-.002 1.117-8.944-5.164.002-1.117z"/><path fill="#E22951" d="m135.593 38.1-.002 1.118-8.886 5.164.002-1.117z"/><path fill="#FF6C85" d="m126.65 32.937 8.943 5.163-8.886 5.165-8.944-5.164 8.886-5.164zm.053 9.511 7.48-4.348-7.53-4.347-7.48 4.348 7.53 4.347"/><path fill="#E22951" d="m134.917 29.076.676-.393-.001 9.418-.704.408z"/><path fill="#AEB3BE" d="m134.209 28.683.691-.4.693.4-.676.409z"/><path fill="#EA3D5B" d="m134.917 29.092-.029 9.417-.708-.409v-9.416z"/><path fill="#AEB3BE" d="m126.034 24.457.704-.408.708.408-.704.409z"/><path fill="#FF6C85" d="m126.525 42.719-.352.204-7.281-12.53.352-.204z"/><path fill="#EA3D5B" d="m127.611 25.011 7.072 11.968-.508 1.122-7.433-12.594z"/><path fill="#FF6C85" d="m126.74 23.573 8.853 5.11-8.886 5.164-8.944-5.164 8.976-5.11zm-.037 9.458 7.48-4.348-7.53-4.347-7.48 4.347 7.53 4.348M134 30.025l.351.204-7.281 12.53-.352-.205z"/><path fill="#E22951" d="m134.582 29.788-7.495 12.981.87.496 7.494-12.981z"/><path fill="#EA3D5B" d="m118.662 29.953 7.494 12.98-.869.496-7.494-12.981z"/><path fill="#EA3D5B" d="m118.662 29.953 7.494 12.98-.869.496-7.494-12.981z"/><path fill="#EA3D5B" d="m118.662 29.953 7.494 12.98-.869.496-7.494-12.981z"/><path fill="#EA3D5B" d="m126.742 24.866-.03 18.399-.708-.409V24.457z"/><path fill="#E22951" d="m119.173 28.683-.002.84h.489l7.082-4.016.002-1.118zM126.742 25.507l.704.405-.03 16.944-.704.409z"/><path fill="#EA3D5B" d="M133.454 29.34h.728l.002-.657-7.44-4.294-.002 1.118 6.712 3.874z"/><path fill="#E22951" d="m118.501 29.092.704-.409-.03 9.419-.704.408z"/><path fill="#EA3D5B" d="m118.662 29.953 7.494 12.98-.869.496-7.494-12.981z"/><path fill="#FF6C85" d="m126.74 23.573 8.853 5.11-8.886 5.164-8.944-5.164 8.976-5.11zm-.037 9.458 7.48-4.348-7.439-4.294-7.571 4.294 7.53 4.348"/><path fill="#EA3D5B" d="m118.501 29.092-.03 9.418-.708-.408v-9.419z"/><path fill="#EA3D5B" d="m126.707 33.847-.002 1.118-8.944-5.164.002-1.118z"/><path fill="#E22951" d="m135.593 28.683-.002 1.118-8.886 5.164.002-1.118z"/><path fill="#E7F1F7" d="m119.036 30.552.351-.204 7.185 12.163-.351.205z"/><path fill="#AEB3BE" d="m126.736 33.793-.704-.408-.708.409.704.408z"/><path fill="#CFDEE8" d="m126.028 34.202.029 9.419.708-.409v-9.418z"/><path fill="#B4C4CC" d="m118.787 30.122 7.072 11.967-.507 1.122-7.434-12.594zM117.787 30.617l-.705.406.03 16.944.704.408z"/><path fill="#E7F1F7" d="m116.669 30.552-.352-.204-7.185 12.163.352.205z"/><path fill="#CFDEE8" d="m110.345 43.211.002 1.118 7.53-4.348-.002-1.117z"/><path fill="#B4C4CC" d="m117.875 38.864.002 1.117 7.481 4.348-.002-1.118z"/><path fill="#CFDEE8" d="m117.821 48.375.002 1.118 8.945-5.164-.003-1.118z"/><path fill="#B4C4CC" d="m108.935 43.211.002 1.118 8.886 5.164-.002-1.118z"/><path fill="#E7F1F7" d="m126.765 43.211-8.944 5.164-8.886-5.164 8.944-5.164 8.886 5.164zm-8.94 4.347 7.53-4.347-7.48-4.347-7.53 4.347 7.48 4.347"/><path fill="#B4C4CC" d="m109.611 34.187-.676-.393.001 9.417.705.409z"/><path fill="#AEB3BE" d="m110.319 33.793-.69-.4-.694.401.676.408z"/><path fill="#CFDEE8" d="m109.611 34.202.03 9.418.707-.409v-9.417z"/><path fill="#AEB3BE" d="m118.494 29.567-.704-.408-.708.409.705.408z"/><path fill="#E7F1F7" d="m125.284 35.299.352.204-7.281 12.53-.352-.205z"/><path fill="#CFDEE8" d="m116.917 30.122-7.072 11.967.508 1.122 7.434-12.594z"/><path fill="#E7F1F7" d="m126.765 33.794-8.944 5.164-8.886-5.164 8.854-5.11 8.976 5.11zm-8.94 4.347 7.53-4.347-7.48-4.348-7.53 4.348 7.48 4.347M117.811 47.664l-.352.205-7.281-12.53.352-.204z"/><path fill="#B4C4CC" d="m109.947 34.899 7.494 12.981-.869.495-7.495-12.981z"/><path fill="#CFDEE8" d="m125.866 35.063-7.494 12.981.869.495 7.495-12.98z"/><path fill="#CFDEE8" d="m125.866 35.063-7.494 12.981.869.495 7.495-12.98z"/><path fill="#CFDEE8" d="m125.866 35.063-7.494 12.981.869.495 7.495-12.98z"/><path fill="#CFDEE8" d="m117.787 29.976.029 18.399.708-.409V29.568z"/><path fill="#B4C4CC" d="m125.356 33.794.001.84h-.489l-7.081-4.017-.003-1.117z"/><path fill="#B4C4CC" d="m117.787 30.617-.705.406.03 16.944.704.408z"/><path fill="#CFDEE8" d="M111.074 34.451h-.728l-.001-.657 7.439-4.294.003 1.117-6.713 3.875z"/><path fill="#B4C4CC" d="m126.028 34.202-.704-.408.029 9.419.704.408z"/><path fill="#CFDEE8" d="m125.866 35.063-7.494 12.981.869.495 7.495-12.98z"/><path fill="#E7F1F7" d="m126.765 33.794-8.944 5.164-8.886-5.164 8.854-5.11 8.976 5.11zm-8.94 4.347 7.53-4.347-7.57-4.294-7.44 4.294 7.48 4.347"/><path fill="#CFDEE8" d="m126.028 34.202.029 9.419.708-.409v-9.418z"/><path fill="#CFDEE8" d="m117.821 38.958.002 1.117 8.945-5.164-.003-1.117z"/><path fill="#B4C4CC" d="m108.935 33.794.002 1.117 8.886 5.164-.002-1.117z"/><path fill="#C5D4DD" d="m126.198 153.267-28.048-16.3c.795-.459 1.449-1.581 1.446-2.495l28.048 16.3c.002.913-.651 2.036-1.446 2.495zM127.644 150.772l-28.048-16.3-.041-14.503 28.047 16.299z"/><path fill="#CFDEE8" d="m127.602 136.268-28.047-16.299.91-.525 28.047 16.299z"/><path fill="#DCE8F1" d="m108.871 163.27-28.047-16.299 17.326-10.004 28.048 16.3z"/><path fill="#CFDEE8" d="m108.874 164.315-28.047-16.299-.003-1.045 28.047 16.299z"/><path fill="#CFDEE8" d="m128.512 135.743.041 14.503c.005 1.489-1.05 3.314-2.352 4.066l-17.327 10.003-.003-1.045 17.327-10.003c.795-.46 1.448-1.582 1.446-2.495l-.042-14.504.91-.525z"/><path fill="#DCE8F1" d="m69.193 34.533 3.674-2.135-.174 66.642-3.674 2.135z"/><path fill="#CFDEE8" d="m170.008 154.322-.012 10.665c0 .729-.272 1.246-.687 1.492l-4.476 2.597c.423-.246.678-.763.686-1.492l.028-10.666 4.46-2.596z"/><path fill="#DCE8F1" d="m69.019 101.175 3.674-2.135 93.76 54.132-3.674 2.135z"/><path fill="#E7F1F7" d="m162.953 88.665 3.674-2.135-.174 66.642-3.674 2.135z"/><path fill="#E7F1F7" d="m69.193 34.533 3.674-2.135 93.76 54.132-3.674 2.135z"/><path fill="#CFDEE8" d="M170.174 87.166c0-1.485-1.042-3.284-2.346-4.04L73.185 28.494c-.625-.366-1.224-.418-1.642-.157l-4.529 2.659c.417-.261 1.073-.268 1.725.096l94.617 54.633c1.303.756 2.345 2.554 2.345 4.04l-.154 67.153 4.46-2.596.167-67.156zM113.602 130.795c1.369.79 2.47 2.696 2.465 4.27-.005 1.56-1.112 2.191-2.481 1.4-1.358-.783-2.458-2.69-2.454-4.25.004-1.573 1.112-2.204 2.47-1.42z"/><path fill="none" d="m69.193 34.533-.174 66.642 93.76 54.132.174-66.642z"/><path fill="#E7F1F7" d="m162.779 155.307-93.76-54.132-2.765-1.596-.028 10.671c-.004 1.473 1.04 3.282 2.322 4.022l94.625 54.632c1.298.75 2.35.15 2.354-1.322l.02-10.664-2.768-1.61z"/><path fill="#C5D4DD" d="M112.043 129.573c1.553.897 2.807 3.068 2.802 4.849-.005 1.785-1.267 2.504-2.82 1.607-1.55-.895-2.804-3.066-2.799-4.85.005-1.782 1.267-2.501 2.817-1.606z"/><path fill="#616173" d="m162.779 155.307 2.768 1.611.187-67.165c.004-1.472-1.041-3.282-2.34-4.031L68.77 31.09c-1.282-.74-2.334-.14-2.338 1.331l-.178 67.158 2.765 1.596 93.76 54.132z"/><path fill="#C2ECFF" d="m162.953 88.665-.174 61.454-93.76-54.133.174-61.453z"/><path fill="#85CDFD" d="m162.953 94.323-.014 6.151-93.76-54.133.014-6.15z"/><path fill="#35518E" d="m160.143 90.037-.014 6.151-93.76-54.133.014-6.15z"/><path fill="#FFCD7D" d="M148.239 84.893c.72.416 1.306 1.425 1.303 2.257-.002.828-.59 1.164-1.312.748-.72-.417-1.305-1.43-1.303-2.258.003-.832.591-1.163 1.312-.747z"/><path fill="#FF384F" d="M152.38 87.284c.725.418 1.306 1.425 1.304 2.257-.002.829-.588 1.166-1.312.748-.72-.416-1.305-1.429-1.303-2.257.003-.832.59-1.164 1.312-.748z"/><path fill="#94ED96" d="M156.523 89.675c.724.419 1.305 1.426 1.303 2.258-.002.828-.588 1.165-1.312.747-.72-.416-1.305-1.429-1.303-2.257.002-.832.59-1.164 1.312-.748z"/><path fill="#FFD469" d="m105.562 64.691 2.184-1.049 2.239 6.347-2.184 1.048z"/><path fill="#FFE088" d="m91.596 56.627 2.184-1.048 13.966 8.063-2.184 1.049zM130.725 84.517l-2.18 30.6-2.052-2.454 2.038-27.103c.109-1.353-.731-2.972-1.851-3.625l-18.873-10.89 2.179-1.059 18.872 10.906c1.135.654 1.96 2.271 1.867 3.625z"/><path fill="#FFB839" d="m105.562 64.69 2.239 6.347 18.873 10.897c1.133.654 1.964 2.273 1.863 3.627l-2.179 29.89-37.347-24.434 2.585-34.39 13.966 8.064z"/><path fill="#FFE088" d="m128.545 115.117-2.194 1.54-3.62-24.85c-.125-1.229-1.12-2.737-2.256-3.391L87.087 69.123c-.607-.341-1.12-.373-1.447-.14l1.655-1.158c.327-.233.84-.203 1.447.14l33.388 19.277c1.136.653 2.147 2.178 2.256 3.407l4.159 24.468z"/><path fill="#FFC950" d="M120.475 88.412c1.133.653 2.138 2.17 2.252 3.396l3.631 24.846L87.53 94.717 85.25 70.17c-.114-1.227.708-1.688 1.83-1.04l33.396 19.282z"/><path fill="#A06E52" d="M111.916 46.06v26.339a.88.88 0 0 0 1.759 0V47.082l-1.759-1.022z"/><path fill="#85CDFD" d="m159.837 103.141-.12 42.062-23.084-13.328.119-42.062z"/><path fill="#FFF" d="m157.401 99.503-.119 42.062-23.085-13.328.119-42.062z"/><path fill="#94ED96" d="M147.302 97.474c.39.225.7.765.699 1.205l-.021 7.27c-.001.444-.313.625-.703.4l-5.525-3.19-2.902.68.087-2.305-1.61-.93c-.386-.223-.696-.763-.694-1.207l.02-7.269c.002-.44.313-.622.7-.398l9.95 5.744z"/><path fill="#3765C7" d="M154.528 113.548c.39.226.7.766.698 1.206l-.02 7.269c-.002.444-.313.626-.703.4l-1.53-.883-.065 2.447-2.444-3.895-5.91-3.413c-.387-.223-.697-.763-.696-1.207l.02-7.27c.002-.44.314-.621.7-.398l9.95 5.744z"/><path fill="#FFF" d="M144.965 97.356l-.002.401-7.338-4.237.002-.401zM143.663 100.571l-.002.4-6.047-3.491.001-.401zM145.491 98.982l-.001.4-3.273-1.889.001-.401zM143.436 99.118l-.001.4-3.411-1.969.001-.401zM139.633 96.922l-.001.401-2.014-1.163.001-.401zM145.645 103.136l-.001.4-5.62-3.244.001-.401zM139.633 99.665l-.001.4-2.014-1.162.001-.401zM141.849 96.88l-.001.4-4.226-2.44.001-.401zM147.323 101.362l-.001.4-3.357-1.938.001-.4zM147.327 100.042l-.002.4-1.374-.793.001-.401zM152.152 113.759l-.001.401-7.338-4.237.001-.4zM150.85 116.974l-.001.401-6.047-3.492.001-.4zM152.678 115.385l-.001.401-3.272-1.89.001-.4zM150.624 115.521l-.002.4-3.41-1.969.001-.4zM146.821 113.325l-.001.401-2.014-1.163.001-.4zM152.833 119.539l-.001.401-5.62-3.245.001-.401zM146.821 116.068l-.001.401-2.014-1.163.001-.401zM149.037 113.283l-.001.4-4.227-2.44.002-.4zM154.511 117.765l-.002.401-3.356-1.938.001-.401zM154.514 116.445l-.001.401-1.375-.794.002-.401z"/><path fill="#CFDEE8" d="m148.286 124.42-.002.66-12.076-6.973.001-.659zM146.143 129.711l-.002.659-9.952-5.745.002-.66zM149.152 127.096l-.002.659-5.386-3.109.002-.66zM145.77 127.32l-.002.659-5.613-3.241.002-.659zM139.512 123.706l-.002.66-3.315-1.914.002-.659zM149.406 133.932l-.002.66-9.249-5.34.002-.66zM139.512 128.22l-.002.659-3.315-1.913.002-.66zM143.159 123.636l-.002.66-6.956-4.016.002-.66zM152.167 131.013l-.002.659-5.524-3.189.002-.66zM152.173 128.84l-.002.66-2.262-1.306.001-.66z"/><path fill="#4C4C5E" d="m154.663 186.856-.009 5.999c0 .189-.123.378-.373.521l-7.583 4.405c-.5.292-1.31.292-1.81 0l-16.845-9.721c-.25-.148-.378-.337-.374-.53l.009-5.986c0 .185.127.378.373.517l16.845 9.726c.5.287 1.314.287 1.81 0l7.583-4.41c.25-.143.374-.332.374-.52z"/><path fill="#616173" d="M154.285 186.33c.5.29.503.758.006 1.048l-7.586 4.408c-.497.289-1.307.289-1.808 0l-16.844-9.725c-.5-.289-.503-.758-.006-1.047l7.586-4.408c.498-.29 1.308-.29 1.808 0l16.844 9.724z"/><path fill="#CFDEE8" d="m154.663 182.698-.009 3.014c0 .189-.123.378-.373.521l-7.583 4.405c-.5.292-1.31.292-1.81 0l-16.845-9.721c-.25-.148-.378-.337-.374-.53l.009-3c0 .184.127.377.373.516l16.845 9.726c.5.287 1.314.287 1.81 0l7.583-4.41c.25-.143.374-.332.374-.52z"/><path fill="#E7F1F7" d="M154.285 182.172c.5.29.503.759.006 1.048l-7.586 4.408c-.497.29-1.307.29-1.808 0l-16.844-9.725c-.5-.289-.503-.758-.006-1.047l7.586-4.408c.498-.29 1.308-.29 1.808 0l16.844 9.724z"/><path fill="#CFDEE8" d="m154.663 178.54-.009 3.014c0 .189-.123.378-.373.521l-7.583 4.405c-.5.292-1.31.292-1.81 0l-16.845-9.721c-.25-.148-.378-.337-.374-.53l.009-3c0 .184.127.377.373.516l16.845 9.726c.5.288 1.314.288 1.81 0l7.583-4.409c.25-.144.374-.333.374-.521z"/><path fill="#E7F1F7" d="M154.285 178.015c.5.289.503.758.006 1.047l-7.586 4.408c-.497.29-1.307.29-1.808 0l-16.844-9.725c-.5-.289-.503-.758-.006-1.047l7.586-4.408c.498-.29 1.308-.29 1.808 0l16.844 9.725z"/><path fill="#CFDEE8" d="m154.663 174.383-.009 3.013c0 .189-.123.378-.373.521l-7.583 4.406c-.5.291-1.31.291-1.81 0l-16.845-9.722c-.25-.148-.378-.337-.374-.53l.009-3c0 .184.127.377.373.517l16.845 9.725c.5.288 1.314.288 1.81 0l7.583-4.409c.25-.144.374-.332.374-.521z"/><path fill="#E7F1F7" d="M154.285 173.857c.5.289.503.758.006 1.047l-7.586 4.408c-.497.29-1.307.29-1.808 0l-16.844-9.724c-.5-.29-.503-.759-.006-1.048l7.586-4.408c.498-.29 1.308-.29 1.808 0l16.844 9.725z"/><path fill="#616173" d="m143.093 187.785-.003.877-10.632-6.139.002-.877z"/><path fill="#FF6C85" d="m129.625 180.009-.002.877-.741-.428.002-.877z"/><path fill="#7CDF82" d="m130.675 180.615-.002.877-.741-.427.002-.878z"/><path fill="#85CDFD" d="m131.725 181.221-.003.878-.741-.428.003-.878z"/><path fill="#616173" d="m143.093 183.501-.003.877-10.632-6.139.002-.877z"/><path fill="#FF6C85" d="m129.625 175.726-.002.877-.741-.428.002-.877z"/><path fill="#7CDF82" d="m130.675 176.332-.002.877-.741-.428.002-.877z"/><path fill="#85CDFD" d="m131.725 176.938-.003.877-.741-.428.003-.877z"/><path fill="#616173" d="m143.093 179.217-.003.878-10.632-6.139.002-.877z"/><path fill="#FF6C85" d="m129.625 171.442-.002.877-.741-.428.002-.877z"/><path fill="#7CDF82" d="m130.675 172.048-.002.877-.741-.428.002-.877z"/><path fill="#85CDFD" d="m131.725 172.654-.003.877-.741-.427.003-.878z"/><path fill="#E7F1F7" d="m83.204 16.91 1.86-1.08c.226-.132.488-.205.776-.214l-1.86 1.08c-.287.01-.549.083-.776.215zm1.767-3.823 1.859-1.08c.688-.4 1.64-.345 2.691.262l-1.859 1.08c-1.05-.607-2.003-.662-2.691-.262zm2.691.262 1.86-1.08c1.352.78 2.529 2.274 3.199 3.889l-1.86 1.08c-.67-1.615-1.846-3.108-3.199-3.89zm11.747 15.967-1.86 1.08c.578-.335.937-1.048.94-2.06.005-1.923-1.26-4.223-2.887-5.35l1.86-1.08c1.627 1.127 2.891 3.427 2.886 5.349-.003 1.013-.362 1.726-.94 2.061zM90.862 17.238l1.859-1.08c.455-.034.99.112 1.55.436 1.713.989 3.106 3.325 3.19 5.312l-1.859 1.08c-.084-1.987-1.477-4.323-3.19-5.311-.561-.324-1.095-.471-1.55-.437z"/><path fill="#CFDEE8" d="M87.662 13.349c1.353.781 2.53 2.274 3.2 3.889.455-.034.989.113 1.55.437 1.713.988 3.106 3.324 3.19 5.311 1.628 1.127 2.892 3.427 2.887 5.35-.006 2.038-1.454 2.863-3.227 1.838l-9.79-5.652c-1.775-1.024-3.207-3.512-3.201-5.55.004-1.413.692-2.243 1.71-2.276a5.655 5.655 0 0 1-.12-1.168c.006-2.406 1.707-3.388 3.801-2.18z"/><path fill="#255BB8" d="m88.523 17.354 1.443 3.939-.86-.496-.012 2.93-1.184-.684.012-2.93-.859-.496z"/><path fill="#EA3D5B" d="m91.873 20.229-.012 3.103.86.497-1.461 2.262-1.443-3.938.859.495.012-3.103z"/><path fill="#CFDEE8" d="M90.862 17.238c.264-.258.57-.444.874-.635.316-.17.63-.344.985-.445-.264.259-.571.444-.875.635-.316.169-.629.343-.984.445zm4.74 5.748c.265-.258.571-.444.875-.635.316-.17.629-.344.984-.445-.263.259-.57.444-.874.635-.316.169-.63.343-.985.445z"/><path fill="#E7F1F7" d="m34.868 49.473 2.254-1.31a.267.267 0 0 1 .115-.035l-2.254 1.31a.267.267 0 0 0-.115.035zM42.577 59.304l2.254-1.31-2.204 1.292-2.254 1.31zM49.343 65.009l-2.254 1.31c.08-.047.135-.137.153-.264l2.254-1.31c-.017.127-.072.217-.153.264z"/><path fill="#E7F1F7" d="m34.983 49.438 2.254-1.31 2.714-.24-2.254 1.31zM40.066 47.853l-2.254 1.31a.271.271 0 0 1-.115.035l2.254-1.31a.271.271 0 0 0 .115-.035zm-5.04-6.242 2.253-1.31c.1-.059.238-.048.386.038l-2.254 1.31c-.148-.086-.286-.097-.386-.038zM47.694 62.749l2.254-1.31-.452 3.306-2.254 1.31zM47.848 62.484l2.254-1.31c-.081.047-.137.14-.154.265l-2.254 1.31c.017-.126.072-.218.154-.265z"/><path fill="#E7F1F7" d="m35.411 41.649 2.254-1.31 3.169 2.236-2.254 1.31zM41.287 42.651l-2.254 1.31c-.103.06-.254.042-.453-.076l2.254-1.31c.2.118.35.136.453.076zm14.425 22.912-2.254 1.31c.166-.097.206-.372.092-.683l2.254-1.31c.114.31.074.586-.092.683zM42.218 46.25l2.254-1.31c-.924.537-1.497 1.68-1.502 3.302-.01 3.267 2.289 7.244 5.131 8.885l-2.254 1.31c-2.843-1.641-5.14-5.618-5.131-8.885.005-1.623.578-2.765 1.502-3.302z"/><path fill="#E7F1F7" d="m51.766 57.486-2.255 1.31c-.936.544-2.233.467-3.664-.359l2.254-1.31c1.432.826 2.728.903 3.665.36zM52.068 62.165l2.254-1.31 1.482 4.025-2.254 1.31zM38.528 37.951l2.254-1.31c.02-.011.041-.02.064-.026l-2.254 1.31a.268.268 0 0 0-.064.026z"/><path fill="#E7F1F7" d="m38.592 37.925 2.254-1.31.728-.199-2.254 1.31z"/><path fill="#E7F1F7" d="m52.772 60.75 2.255-1.31a.26.26 0 0 0-.085.08c-.171.259-.367.49-.58.692-.125.12-.139.374-.04.643l-2.254 1.31c-.1-.27-.085-.522.04-.643.213-.201.409-.433.58-.692a.26.26 0 0 1 .084-.08zM39.32 37.725l2.254-1.31c.097-.027.211-.002.325.064.133.077.265.21.37.381l-2.255 1.31a1.095 1.095 0 0 0-.37-.381c-.113-.066-.227-.09-.324-.064zM40.014 38.171l2.254-1.31 2.287 3.775-2.254 1.31zM45.677 41.103l-2.254 1.31a.301.301 0 0 1-.205.031 4.156 4.156 0 0 0-.345-.048.524.524 0 0 1-.203-.071 1.106 1.106 0 0 1-.369-.379l2.254-1.31c.102.167.235.301.37.379.067.04.136.064.202.071.113.011.227.027.345.048a.301.301 0 0 0 .205-.03zM58.998 61.61l-2.254 1.31a.316.316 0 0 0 .14-.202l2.255-1.31a.316.316 0 0 1-.141.202zm-5.32-4.582 2.254-1.31c-.003.249.117.542.312.76l-2.254 1.31c-.195-.218-.315-.511-.312-.76zM57.114 61.842l2.254-1.31-.229.876-2.255 1.31z"/><path fill="#E7F1F7" d="m53.99 57.787 2.254-1.31 2.829 3.162-2.254 1.31z"/><path fill="#E7F1F7" d="m56.819 60.949 2.254-1.31c.238.262.362.64.295.893l-2.254 1.31c.067-.254-.057-.63-.295-.893zm-3.055-5.585 2.254-1.31c-.115.067-.174.222-.153.427.045.417.068.833.067 1.237l-2.254 1.31c.001-.404-.023-.82-.067-1.238-.021-.204.038-.359.153-.426zm-9.717-16.931 2.255-1.31c.088-.052.208-.05.34.012l-2.254 1.31c-.133-.063-.252-.064-.34-.012zm6.893 5.591-2.254 1.31c-.101.06-.238.045-.378-.035a.85.85 0 0 1-.157-.12 13.488 13.488 0 0 0-1.036-.877 1.231 1.231 0 0 1-.426-.692l2.254-1.31c.054.264.222.535.426.692.353.27.7.564 1.036.878a.85.85 0 0 0 .157.119c.14.08.277.094.378.035z"/><path fill="#E7F1F7" d="m44.388 38.445 2.254-1.31.899.428-2.254 1.31zM45.857 39.659l2.254-1.31.832 3.951-2.254 1.31z"/><path fill="#E7F1F7" d="m45.287 38.873 2.254-1.31c.29.165.505.476.57.786l-2.254 1.31a1.23 1.23 0 0 0-.57-.786zm6.076 9.862 2.254-1.31c-.073.182-.033.46.112.717.246.435.475.877.685 1.325.1.22.262.402.43.499.037.02.073.037.109.05l-2.254 1.31a.633.633 0 0 1-.109-.05 1.126 1.126 0 0 1-.43-.5c-.21-.447-.439-.89-.685-1.324-.145-.256-.185-.535-.112-.717zm7.49 4.837-2.255 1.31c.15-.087.201-.322.12-.607l2.254-1.31c.081.285.03.52-.12.607z"/><path fill="#E7F1F7" d="m52.699 51.326 2.254-1.31 3.072 1.061-2.254 1.309zM56.382 53.118l2.254-1.31.336 1.157-2.254 1.31z"/><path fill="#E7F1F7" d="m55.77 52.386 2.255-1.31a.62.62 0 0 1 .108.05c.218.126.418.393.503.682l-2.254 1.31c-.085-.289-.286-.556-.503-.682a.62.62 0 0 0-.108-.05zM52.491 46.02l2.254-1.31-1.128 2.715-2.254 1.31zM50.83 43.852l2.254-1.31c.104-.06.244-.043.386.039.097.056.195.143.283.255l-2.254 1.31a1.01 1.01 0 0 0-.284-.255c-.14-.082-.28-.1-.385-.039z"/><path fill="#E7F1F7" d="m51.499 44.146 2.254-1.31.772.989-2.254 1.31z"/><path fill="#CFDEE8" d="M56.819 60.949c.238.262.362.64.295.893l-.23.876c-.063.241-.28.307-.527.164l-3.158-2.073c-.231-.135-.414-.122-.511.021-.171.259-.367.49-.58.692-.125.12-.14.374-.04.643l1.482 4.025c.124.338.066.634-.138.704l-.703.25c-.101.034-.223.01-.344-.06a1.076 1.076 0 0 1-.353-.353l-2.376-3.706c-.099-.156-.224-.28-.35-.353a.494.494 0 0 0-.221-.071 5.68 5.68 0 0 1-.995-.144c-.2-.045-.346.072-.376.292l-.452 3.306c-.038.276-.254.376-.517.24l-.9-.476a1.223 1.223 0 0 1-.553-.802l-.698-3.912a1.244 1.244 0 0 0-.412-.708c-.349-.285-.691-.595-1.02-.918a.892.892 0 0 0-.178-.139c-.143-.082-.283-.097-.387-.036l-2.204 1.292c-.106.062-.247.044-.389-.038a1.034 1.034 0 0 1-.303-.28l-.747-1.014c-.215-.294-.298-.663-.193-.88l1.253-2.585c.084-.173.053-.447-.085-.707a19.04 19.04 0 0 1-.648-1.338 1.15 1.15 0 0 0-.447-.531.646.646 0 0 0-.083-.041l-3.096-1.229a.648.648 0 0 1-.085-.041c-.227-.131-.433-.414-.509-.709l-.301-1.156c-.085-.33.015-.591.243-.609l2.714-.24c.182-.015.289-.186.271-.436-.02-.275-.028-.549-.027-.82 0-.135.001-.271.008-.4.01-.24-.103-.53-.289-.752l-2.77-3.265c-.233-.276-.343-.65-.268-.894l.269-.84c.071-.225.283-.279.52-.142l3.169 2.236c.252.15.427.139.525.013.185-.243.39-.457.615-.643.132-.109.156-.354.066-.625l-1.362-4.027c-.114-.338-.043-.62.168-.678l.728-.199c.097-.027.211-.002.324.064.134.077.266.21.37.381l2.287 3.775c.102.167.235.301.37.379.067.04.136.064.202.071.113.011.227.027.345.048.197.033.339-.089.358-.318l.316-3.406c.026-.282.235-.4.496-.275l.899.428c.29.165.505.476.57.786l.832 3.951c.054.264.221.535.426.692.353.27.7.564 1.036.878a.85.85 0 0 0 .157.119c.15.086.296.096.4.022l2.103-1.457c.106-.075.255-.06.404.027.098.056.196.143.284.255l.772.99c.222.284.316.657.22.884l-1.128 2.715c-.073.182-.033.46.112.717.246.435.474.877.685 1.325.1.22.262.401.43.499.037.02.073.037.109.05l3.072 1.06a.62.62 0 0 1 .108.05c.217.126.418.393.503.682l.336 1.157c.096.338.007.605-.214.64l-2.644.416c-.177.026-.275.204-.249.46.044.417.068.833.067 1.237-.003.249.117.542.312.76l2.829 3.16zm-10.972-2.512c2.843 1.641 5.156.326 5.165-2.94.01-3.267-2.288-7.247-5.131-8.888-2.843-1.642-5.156-.324-5.165 2.943-.01 3.267 2.288 7.244 5.131 8.885"/><path fill="#E7F1F7" d="m52.271 45.135 2.254-1.31c.222.285.316.658.22.885l-2.254 1.31c.096-.227.002-.6-.22-.885zM104.598 177.113c.464-.272.882-.295 1.188-.113l-53.604-31.144c-.306-.18-.736-.158-1.2.113a2.873 2.873 0 0 0-.512.419l53.61 31.147c.165-.159.334-.314.518-.422z"/><path fill="#C5D4DD" d="M104.08 177.535 52.35 147.471c-.671.645-1.162 1.635-1.162 2.49 0 .532.192.895.486 1.075l51.734 30.06c-.305-.169-.486-.542-.498-1.075 0-.853.497-1.84 1.169-2.486z"/><path fill="#CFDEE8" d="M104.593 177.116c.931-.538 1.684-.103 1.687.962.003 1.065-.745 2.365-1.677 2.904-.926.535-1.684.103-1.687-.962-.003-1.065.75-2.369 1.677-2.904z"/><path fill="#CFDEE8" d="M104.477 178.481 81.066 195.4c-1.027.743-2.702.853-3.744.253l-49.936-28.83c-.49-.285-.742-.648-.79-1.058l-.126-1.201c.032.41.3.774.79 1.059l49.935 28.83c1.043.6 2.702.489 3.744-.253l23.412-16.92.126 1.201z"/><path fill="#E7F1F7" d="m104.347 177.274-23.411 16.923c-1.035.748-2.698.862-3.747.257l-49.936-28.831c-1.049-.606-1.06-1.686-.025-2.434l23.411-16.923 53.708 31.008z"/><path fill="#616173" d="M75.532 163.082c.183.109.182.296 0 .429l-2.472 1.787c-.183.132-.478.158-.661.05l-2.326-1.385c-.182-.109-.172-.304.01-.436l2.473-1.787c.183-.132.467-.15.65-.042l2.326 1.384zm13.882 8.261c.173.103.183.297 0 .43l-2.472 1.786c-.183.132-.488.152-.66.05l-2.326-1.384c-.183-.11-.172-.304.01-.436L86.439 170c.183-.132.468-.15.65-.042l2.326 1.384zm-12.37 18.583-1.159.838a.65.65 0 0 1-.66.036l-2.316-1.378c-.183-.109-.193-.302-.01-.435l1.16-.838 2.985 1.777zm-2.2-3.47c.182.11.172.305-.011.437l-2.462 1.78c-.183.132-.468.15-.65.042l-2.326-1.384c-.183-.109-.183-.296 0-.429l2.462-1.78c.183-.132.478-.158.66-.049l2.327 1.384zm-3.474-2.066c.173.103.172.304-.01.436l-2.462 1.78c-.183.133-.478.145-.65.042l-2.326-1.384c-.183-.109-.183-.296 0-.429l2.462-1.78c.183-.132.478-.158.66-.049l2.326 1.384zm6.977 4.152c.183.109.182.31 0 .442l-1.15.831-2.985-1.777 1.15-.83c.182-.133.487-.153.67-.044l2.315 1.378zm7.105-.519c.182.11.182.297-.001.43l-2.462 1.78c-.182.131-.477.157-.66.048l-6.835-4.067c-.183-.109-.182-.31 0-.442l2.462-1.78a.651.651 0 0 1 .661-.036l6.835 4.067zM58.596 167.269c.183.109.172.304-.011.436l-2.472 1.787c-.182.132-.468.151-.65.042l-2.326-1.384c-.183-.108-.182-.296 0-.428l2.472-1.788c.184-.132.479-.158.661-.05l2.326 1.385zm20.409-2.12c.183.109.183.296 0 .429l-2.472 1.787c-.183.132-.478.158-.66.049l-2.326-1.384c-.183-.109-.173-.304.01-.436l2.472-1.787c.183-.133.468-.15.65-.042l2.326 1.384zm-25.767 3.705c.173.102.183.296 0 .428l-2.462 1.78c-.183.133-.488.152-.66.05l-2.326-1.384c-.183-.11-.183-.31 0-.442l2.462-1.78a.651.651 0 0 1 .66-.036l2.326 1.384zm20.369-2.158c.173.103.172.304-.01.436l-2.462 1.78c-.184.132-.478.145-.65.042l-2.327-1.384c-.182-.109-.192-.302-.01-.435l2.463-1.78c.182-.132.488-.152.67-.043l2.326 1.384zm-5.297 1.608c.183.109.182.296 0 .428l-2.462 1.78c-.183.133-.478.158-.66.05l-2.326-1.385c-.183-.108-.173-.303.01-.436l2.462-1.78c.183-.132.467-.15.65-.041l2.326 1.384zm-6.251 1.026c.183.108.172.303-.011.436l-2.472 1.787c-.182.132-.468.15-.65.042l-2.326-1.384c-.183-.109-.182-.297 0-.429l2.472-1.787c.184-.132.479-.158.661-.05l2.326 1.385zm20.41-2.12c.182.108.182.296-.002.428l-2.471 1.788c-.183.132-.478.158-.66.049l-2.326-1.384c-.173-.103-.172-.304.01-.436l2.472-1.787c.183-.133.478-.145.65-.042l2.326 1.384zM56.7 170.914c.183.11.183.297 0 .43l-2.462 1.78c-.183.131-.478.157-.66.048l-2.326-1.383c-.183-.11-.172-.304.01-.436l2.462-1.78c.183-.133.468-.151.65-.042l2.326 1.383zm20.369-2.157c.173.102.172.304-.01.436l-2.462 1.78c-.184.132-.478.144-.65.042l-2.327-1.384c-.182-.11-.182-.297.001-.43l2.462-1.78c.183-.131.478-.157.66-.048l2.326 1.384zm-5.287 1.614c.183.108.183.296 0 .428l-2.462 1.78c-.183.132-.477.158-.66.05l-2.326-1.385c-.183-.109-.173-.303.01-.436l2.462-1.78c.183-.132.468-.15.65-.041l2.326 1.384zm-6.26 1.02c.192.114.181.31-.002.442l-2.472 1.787a.637.637 0 0 1-.66.036l-2.316-1.378c-.183-.109-.182-.297 0-.429l2.473-1.787c.183-.132.478-.158.66-.05l2.316 1.378zm20.428-2.109c.173.103.183.297 0 .43l-2.472 1.786c-.183.133-.488.152-.66.05l-2.326-1.384c-.183-.11-.182-.31 0-.442l2.472-1.787a.65.65 0 0 1 .66-.036l2.326 1.383zm-25.777 3.7c.183.108.183.296 0 .428l-2.462 1.78c-.183.132-.478.158-.66.05l-2.326-1.385c-.183-.108-.172-.304.01-.436l2.462-1.78c.183-.132.468-.15.65-.042l2.326 1.384zm20.37-2.158c.182.108.171.303-.011.435l-2.462 1.78c-.183.133-.468.151-.65.042l-2.326-1.383c-.183-.11-.183-.297 0-.43l2.462-1.78c.183-.131.478-.157.66-.048l2.326 1.384zm-5.298 1.607c.183.11.183.297 0 .429l-2.462 1.78c-.183.132-.477.158-.66.049l-2.326-1.384c-.172-.103-.173-.303.01-.436l2.462-1.78c.183-.132.478-.144.65-.042l2.326 1.384zm-6.25 1.026c.182.109.171.304-.012.437l-2.472 1.787c-.182.132-.467.15-.65.042l-2.326-1.384c-.172-.103-.182-.297 0-.429l2.473-1.787c.183-.133.488-.152.66-.05l2.326 1.384zm-5.359 1.585c.183.109.183.296 0 .429l-2.462 1.78c-.183.132-.478.158-.66.05l-2.326-1.385c-.183-.109-.172-.304.01-.436l2.462-1.78c.184-.132.468-.15.65-.042l2.326 1.384zm20.37-2.158c.182.11.171.304-.011.436l-2.462 1.78c-.183.133-.468.151-.65.042l-2.326-1.384c-.183-.108-.183-.296 0-.428l2.462-1.78c.183-.133.478-.158.66-.05l2.326 1.384zm-5.278 1.62c.173.103.183.297 0 .429l-2.461 1.78c-.184.132-.488.152-.66.049l-2.326-1.384c-.183-.109-.183-.31 0-.442l2.462-1.78a.65.65 0 0 1 .66-.036l2.325 1.384zm-6.27 1.014c.192.115.192.316.009.449l-2.472 1.787a.655.655 0 0 1-.671.03l-2.315-1.378c-.173-.103-.183-.297 0-.43l2.472-1.786c.183-.133.488-.153.66-.05l2.316 1.378zm20.429-2.108c.182.109.182.296 0 .429l-2.473 1.787c-.182.132-.477.158-.66.05l-2.326-1.385c-.183-.108-.172-.304.01-.436l2.472-1.787c.184-.132.468-.15.651-.042l2.326 1.384zM67.11 177.11c.182.109.182.296 0 .429l-2.463 1.78c-.182.132-.477.158-.66.049l-2.326-1.384c-.172-.103-.172-.304.01-.436l2.463-1.78c.183-.132.477-.145.65-.042l2.326 1.384zm20.358-2.164c.193.115.183.31 0 .442l-2.462 1.78a.636.636 0 0 1-.66.036l-2.316-1.378c-.183-.109-.183-.296 0-.429l2.462-1.78c.183-.132.478-.158.66-.049l2.316 1.378zm-5.276 1.62c.172.103.182.296 0 .429l-2.462 1.78c-.184.132-.488.151-.66.049l-2.326-1.384c-.183-.109-.173-.304.01-.436l2.462-1.78c.183-.132.467-.15.65-.042l2.326 1.384zm-6.251 1.026c.172.103.172.304-.011.436l-2.472 1.787c-.183.133-.478.145-.65.042l-2.326-1.383c-.183-.11-.193-.303-.01-.435l2.472-1.787c.183-.133.488-.153.671-.044l2.326 1.384zm20.409-2.12c.183.109.182.296 0 .429l-2.473 1.787c-.182.132-.477.158-.66.05l-2.326-1.385c-.183-.109-.172-.304.01-.436l2.473-1.787c.183-.132.467-.15.65-.042l2.326 1.384zm-32.75 4.296c.183.109.172.304-.01.436l-2.462 1.78c-.183.132-.468.15-.65.042l-16.29-9.694c-.183-.109-.193-.302-.01-.435l2.462-1.78c.183-.132.488-.152.67-.043l16.29 9.694zm6.973-.597c.183.109.193.302.01.435l-2.462 1.78c-.183.132-.488.152-.671.043l-2.316-1.378c-.182-.109-.182-.31 0-.442l2.463-1.78a.651.651 0 0 1 .66-.036l2.316 1.378zm20.45-2.11c.183.11.172.304-.01.436l-2.463 1.78c-.183.133-.467.151-.65.042l-2.326-1.384c-.183-.108-.182-.296 0-.428l2.463-1.78c.182-.133.477-.158.66-.05l2.326 1.384zm-5.358 1.572c.183.109.182.296 0 .428l-2.462 1.78c-.183.133-.478.158-.66.05l-2.326-1.384c-.183-.11-.173-.304.01-.436l2.462-1.78c.183-.132.467-.15.65-.042l2.326 1.384zm-6.261 1.02c.183.108.182.31-.001.442l-2.472 1.787a.652.652 0 0 1-.66.036l-2.316-1.378c-.183-.108-.182-.296 0-.428l2.472-1.788c.183-.132.478-.158.661-.05l2.316 1.379zm20.49-2.072c.183.109.183.296 0 .429l-2.472 1.787c-.183.132-.478.158-.66.05l-2.326-1.385c-.183-.108-.173-.304.01-.436l2.472-1.787c.183-.132.468-.15.65-.042l2.326 1.384zm-25.838 3.663c.173.102.183.296 0 .428l-2.462 1.78c-.183.132-.488.152-.66.05l-2.326-1.384c-.183-.11-.173-.304.01-.436l2.462-1.78c.183-.133.468-.151.65-.042l2.326 1.384zm-6.17 1.074c.183.109.182.31 0 .442l-2.462 1.78a.65.65 0 0 1-.66.036l-3.15-1.873c-.172-.103-.182-.297.001-.43l2.462-1.779c.183-.132.488-.152.66-.05l3.149 1.874zm21.242-1.624c.183.109.182.296 0 .428l-2.462 1.78c-.183.133-.478.158-.66.05l-2.326-1.385c-.183-.108-.173-.303.01-.436l2.462-1.78c.183-.132.467-.15.65-.041l2.326 1.384zm7.155-.502c.183.109.172.304-.01.436l-2.462 1.78c-.183.132-.468.15-.65.042l-4.093-2.436c-.183-.108-.193-.302-.01-.435l2.462-1.78c.183-.132.488-.151.67-.043l4.093 2.436zm-13.406 1.528c.183.108.172.303-.011.436l-2.472 1.787c-.183.132-.468.15-.65.042l-2.326-1.384c-.183-.109-.182-.297 0-.429l2.472-1.787c.183-.132.479-.158.661-.05l2.326 1.385zm-5.358 1.584c.183.11.183.297 0 .43l-2.462 1.78c-.183.131-.478.157-.66.048l-2.326-1.383c-.183-.11-.172-.304.01-.436l2.462-1.78c.183-.133.468-.151.65-.042l2.326 1.383zm15.153-.501c.183.109.183.296 0 .428l-2.462 1.78c-.183.133-.477.158-.66.05l-2.326-1.384c-.183-.11-.173-.304.01-.436l2.462-1.78c.183-.132.468-.15.65-.042l2.326 1.384zm-3.6 2.603c.183.109.172.304-.011.436l-2.472 1.788c-.183.132-.468.15-.65.042l-4.977-2.962c-.183-.108-.182-.296 0-.428l2.473-1.788c.183-.132.478-.158.66-.05l4.977 2.962zM81.76 190.572c.182.11.172.304-.011.436l-2.462 1.78c-.183.133-.468.151-.65.042l-2.326-1.383c-.183-.11-.183-.297 0-.43l2.462-1.78c.183-.131.478-.157.66-.048l2.326 1.383zM34.87 162.67c.183.109.183.31 0 .442l-2.462 1.78a.65.65 0 0 1-.66.036l-2.326-1.384c-.173-.103-.183-.296 0-.429l2.462-1.78c.183-.132.488-.152.66-.049l2.326 1.384zm3.484 2.073c.172.103.172.304-.011.436l-2.462 1.78c-.183.132-.478.145-.65.042l-2.326-1.384c-.183-.109-.193-.302-.01-.435l2.462-1.78c.183-.132.488-.152.671-.043l2.326 1.384zm24.832-4.248c.183.11.172.304-.01.436l-2.462 1.78c-.183.133-.468.151-.65.042l-2.326-1.384c-.183-.108-.183-.296 0-.428l2.462-1.78c.183-.132.478-.158.66-.05l2.326 1.384zm-17.033 8.89c.183.108.182.31 0 .441l-2.462 1.78a.65.65 0 0 1-.66.036l-3.19-1.897c-.182-.11-.182-.297 0-.43l2.463-1.78c.182-.131.477-.157.66-.048l3.19 1.897zM54.784 150.735c.173.103.183.297 0 .43l-2.472 1.786c-.183.132-.488.152-.66.05l-4.327-2.575c-.183-.109-.172-.304.01-.436l2.472-1.787c.183-.133.468-.151.65-.042l4.327 2.574zm-5.48 1.499c.183.109.183.31 0 .442l-2.462 1.78a.651.651 0 0 1-.66.036l-2.326-1.384c-.172-.103-.182-.296 0-.429l2.463-1.78c.182-.132.487-.152.66-.049l2.326 1.384zm8.882.526c.183.109.183.296 0 .429l-2.472 1.787c-.183.132-.478.158-.66.049l-2.326-1.384c-.173-.103-.172-.304.01-.436l2.472-1.787c.183-.133.478-.145.65-.042l2.326 1.384zm-5.398 1.547c.173.103.172.304-.01.436l-2.462 1.78c-.184.132-.478.145-.65.042l-2.326-1.384c-.183-.109-.193-.302-.01-.435l2.462-1.78c.182-.132.488-.152.67-.043l2.326 1.384zm-5.226 1.65c.173.103.183.296 0 .428l-2.462 1.78c-.183.133-.488.152-.66.05l-4.327-2.575c-.182-.109-.172-.303.011-.436l2.462-1.78c.182-.132.467-.15.65-.041l4.326 2.574zm14.087-1.136c.183.108.193.302.01.434l-2.472 1.788c-.183.132-.488.152-.67.043l-2.326-1.384c-.173-.103-.172-.304.01-.436l2.472-1.787c.183-.133.478-.145.65-.042l2.326 1.384zm-5.398 1.547c.173.102.172.304-.01.436l-2.462 1.78c-.183.132-.478.144-.65.042l-2.326-1.384c-.183-.11-.183-.297 0-.43l2.462-1.78c.183-.131.478-.157.66-.048l2.326 1.384zm-5.287 1.614c.183.108.183.296 0 .428l-2.462 1.78c-.183.132-.477.158-.66.05l-2.326-1.385c-.172-.102-.172-.303.01-.436l2.462-1.78c.183-.132.478-.144.65-.041l2.326 1.384zm-6.15 1.086c.184.109.173.304-.01.436l-2.472 1.787c-.183.133-.468.151-.65.042l-5.18-3.082c-.183-.108-.182-.296 0-.428l2.472-1.788c.184-.132.479-.158.662-.05l5.179 3.083zm20.319-2.175c.172.103.182.297-.001.43l-2.472 1.786c-.182.133-.488.152-.66.05l-2.326-1.384c-.183-.11-.182-.31 0-.442l2.472-1.787a.65.65 0 0 1 .66-.036l2.327 1.383zm-5.409 1.542c.183.108.172.303-.01.436l-2.462 1.78c-.183.132-.468.15-.65.042l-2.326-1.384c-.183-.11-.183-.297 0-.43l2.462-1.78c.183-.131.478-.157.66-.048l2.326 1.384zm-5.297 1.607c.183.11.193.303.01.435l-2.461 1.78c-.184.132-.488.152-.671.043l-2.326-1.384c-.172-.103-.172-.303.01-.436l2.463-1.78c.182-.132.477-.144.65-.042l2.325 1.384zm-11.558 2.641c.173.103.183.297 0 .43l-2.462 1.78c-.183.131-.488.151-.66.048l-6.856-4.079c-.182-.109-.172-.304.011-.436l2.462-1.78c.183-.132.468-.15.65-.042l6.855 4.08zm8.78.452c.183.109.183.31 0 .443l-2.472 1.787a.652.652 0 0 1-.66.036l-2.316-1.378c-.183-.109-.192-.303-.01-.435l2.472-1.787c.183-.133.488-.153.671-.044l2.316 1.378zm-5.357 1.585c.183.109.193.302.01.435l-2.462 1.78c-.183.132-.488.152-.671.043l-2.326-1.384c-.172-.103-.172-.304.01-.436l2.463-1.78c.183-.132.478-.145.65-.042l2.326 1.384zm8.83.482c.173.103.173.304-.01.436l-2.472 1.787c-.183.133-.478.145-.65.043l-2.326-1.384c-.183-.11-.192-.303-.01-.435l2.472-1.787c.183-.133.488-.153.671-.044l2.326 1.384zm-5.367 1.579c.183.109.193.302.01.435l-2.462 1.78c-.183.132-.488.152-.671.043l-2.326-1.384c-.172-.103-.172-.304.01-.436l2.463-1.78c.183-.133.478-.145.65-.042l2.326 1.384zM48.247 161.11c.183.11.173.304-.01.437l-2.472 1.787c-.183.132-.468.15-.65.042l-2.327-1.384c-.182-.109-.182-.297.001-.429l2.472-1.787c.183-.132.478-.158.66-.05l2.326 1.385zm-6.43 5.694c.173.103.173.304-.01.436l-2.462 1.78c-.183.132-.478.145-.65.042l-2.326-1.384c-.183-.109-.182-.296 0-.429l2.463-1.78c.182-.132.477-.158.66-.05l2.326 1.385zm16.094-4.689c.172.103.182.297 0 .429l-2.462 1.78c-.183.132-.488.152-.66.049l-2.326-1.384c-.183-.109-.183-.31 0-.442l2.462-1.78a.65.65 0 0 1 .66-.036l2.326 1.384zm10.685-3.16c.172.102.182.296-.001.428l-2.472 1.787c-.182.132-.488.152-.66.05l-2.326-1.384c-.183-.11-.172-.304.01-.436l2.472-1.788c.184-.132.468-.15.65-.042l2.327 1.384zM72.069 161.021c.183.109.182.296 0 .429l-2.473 1.787c-.182.132-.477.158-.66.05l-2.326-1.385c-.182-.108-.172-.304.01-.436l2.473-1.787c.183-.132.467-.15.65-.042l2.326 1.384zm-5.408 1.541c.182.109.172.304-.011.436l-2.462 1.78c-.183.133-.468.15-.65.042l-2.326-1.384c-.173-.103-.183-.296 0-.429l2.462-1.78c.183-.132.488-.152.66-.049l2.327 1.384zm-5.287 1.614c.172.103.182.296 0 .429l-2.462 1.78c-.183.132-.488.151-.66.049l-2.326-1.384c-.183-.109-.173-.304.01-.436l2.462-1.78c.183-.132.467-.15.65-.042l2.326 1.384zm8.75.447c.182.109.182.31 0 .442l-2.463 1.78a.651.651 0 0 1-.66.036l-2.326-1.384c-.173-.103-.183-.296 0-.429l2.462-1.78c.183-.132.488-.152.66-.049l2.327 1.384zm-5.277 1.62c.183.109.182.296 0 .428l-2.462 1.78c-.183.133-.478.158-.66.05l-2.326-1.384c-.183-.11-.173-.304.01-.436l2.462-1.78c.183-.132.467-.15.65-.042l2.326 1.384z"/><path fill="#1352AB" d="M26.428 85.476s-2.2 8.547-1.247 11.408c.954 2.861 3.374 12.251 3.374 12.251s3.889-8.986 3.889-9.243c0-.257-4.365-13.939-6.016-14.416z"/><path fill="#FED0B5" d="M50 95.75s.81-.442 1.166-.483c.352-.045 1.134-.037 1.562-.09.427-.055 1.298-.86 1.579-1.404.277-.542.19-1.687-.184-1.645-.231.027-.502.447-.796.828-.336.434-.904.634-1.427.468a.279.279 0 0 1-.064-.026c-.075-.051.415-.69.632-.858.217-.167.403-.72.164-.813-.24-.093-.542.408-1.082.744-.211.132-.431.389-.626.661-.415.58-1.027.972-1.714 1.166-.051.013-.102.03-.154.049-.52.19.944 1.403.944 1.403z"/><path fill="#E5A03C" d="m73.219 99.705-.002.939-4.532 2.634.003-.94z"/><path fill="#F9BB4A" d="m73.219 99.705-4.531 2.633-34.555-19.95 4.532-2.633z"/><path fill="#EFAC41" d="m68.688 102.338-.003.94-2.008.05.003-.449z"/><path fill="#F9BB4A" d="m66.68 102.879-.003.449-32.98-19.041.003-.449z"/><path fill="#FED57A" d="m34.133 82.388 34.555 19.95-2.008.541L33.7 83.838z"/><path fill="#525566" d="m70.755 98.279-1.644.97.444.263 1.661-.97zM67.007 96.109l-2.877 1.677.461.263 2.86-1.677zM65.741 95.386l-1.644.97.461.263 1.644-.97zM57.834 92.739l-1.217.708.461.262 1.216-.707 1.661-.953-.017-.017-.444-.263zM55.73 89.599l-1.644.971.46.262 1.66-.954-.016-.016-.444-.246zM54.497 88.892l-2.877 1.661.46.263 2.86-1.661zM69.506 97.556l-2.861 1.677.461.263 2.86-1.677zM72.005 99.003l-1.661.954.461.279 1.66-.971zM68.257 96.832l-1.661.971.46.262 1.661-.969zM64.492 94.663l-2.861 1.66.461.28 2.86-1.677zM63.242 93.939l-1.644.97.444.263 1.661-.969zM61.993 93.216l-2.86 1.677.46.263 2.86-1.66zM60.744 92.493l-1.661.97.461.263 1.66-.971zM58.228 91.046l-1.627.97.444.263 1.644-.953-.444-.264zM56.979 90.322l-2.844 1.677.46.264 2.861-1.661-.017-.016-.444-.247zM44.468 83.106l-2.86 1.66.46.263 2.861-1.661zM48.233 85.276l-1.66.953.46.28 1.66-.971zM50.732 86.722l-1.644.971.444.246 1.66-.954zM51.981 87.445l-2.86 1.661.46.263 2.844-1.66zM49.482 85.999l-2.86 1.66.46.263 2.861-1.66zM46.984 84.552l-2.877 1.66.46.264 2.861-1.66zM41.97 81.659l-2.861 1.66.46.28 2.861-1.677zM40.72 80.935l-1.66.97.46.263 1.66-.969zM36.594 81.873l.46.262 2.861-1.66-.444-.263zM53.231 88.169l-1.644.953.46.264 1.644-.954zM45.718 83.829l-1.644.953.46.28 1.644-.97zM43.219 82.382l-1.66.954.46.263 1.66-.954z"/><path fill="#F2C0A7" d="M28.868 125.143s-1.44 5.33-1.073 7.996c.368 2.665 1.563 8.853 1.532 9.71-.03.858-.827 2.145-.613 2.543.215.399 4.92 3.081 5.195 2.775.99-.967-2.192-1.825-2.1-7.584s1.286-13.173 1.102-14.153-4.043-1.287-4.043-1.287z"/><path fill="#2A2A38" d="M28.481 150.665s.447-2.362 0-3.088c-.446-.725-.911-1.506-.688-2.231.223-.726 1.34-1.581 1.34-1.581s1.99.986 2.38 1.841c.39.856.303 1.131.898 1.261.595.13.967-.223.893-.418-.075-.195-.325-.477-.306-.608.018-.13 2.346-.384 2.457.118.112.503-.353 3.162-1.952 3.46s-3.441-1.916-3.739-1.935-.613.484-.613.856-.056 2.25-.168 2.325c-.111.074-.542.235-.502 0z"/><path fill="#FED0B5" d="M32.967 126.784s-1.44 5.33-1.073 7.995 1.563 8.854 1.532 9.712c-.03.857-.827 2.144-.613 2.542.215.398 4.92 3.081 5.195 2.775.99-.967-2.192-1.825-2.1-7.584s1.286-13.173 1.102-14.154c-.184-.98-4.043-1.286-4.043-1.286z"/><path fill="#2A2A38" d="M32.58 152.306s.446-2.362 0-3.088c-.446-.725-.911-1.506-.688-2.232.223-.725 1.34-1.58 1.34-1.58s1.99.985 2.38 1.84c.39.856.303 1.132.898 1.262s.967-.223.893-.418c-.075-.196-.325-.477-.306-.608s2.346-.384 2.457.118c.112.502-.353 3.162-1.952 3.46-1.6.297-3.441-1.916-3.739-1.935s-.613.484-.613.856-.056 2.25-.168 2.325-.542.235-.502 0z"/><path fill="#255BB8" d="M40.065 122.986c-.236 1.634-1.137 6.012-1.34 6.679-.712 2.379-10.155-4.006-10.69-4.241-.53-.235.17-4.208.17-4.208s.097-.667-.099-1.569c-.202-.902-.94-.268-1.64-3.914-.399-2.085-.092-4.522.353-6.476.072-.34.15-.666.235-.974.268-1.012.536-1.823.712-2.267.536-1.372 1.242-3.81.837-5.078-.399-1.274-2.503-10.494-2.608-13.265-.098-2.77 2.04-4.24 3.078-4.143 1.033.098 6.11 2.575 7.313 2.405 1.202-.164 1.607-.098 2.64.666 1.039.771 0 11.795-.033 12.331-.033.536-1.268 5.313.137 9.05.196.517.353 1.15.49 1.857.046.241.092.49.13.745.694 4.437.504 11.07.315 12.402z"/><path fill="#3765C7" d="M37.32 90.85s-.957-5.509 1.39-4.503c2.347 1.006 2.97 4.503 3.305 6.371.335 1.868 1.006 5.078 1.006 5.078l6.721-3.958c.865.418 1.354.907.727 1.988 0 0-7.592 6.472-9.22 5.802-1.629-.671-3.928-10.778-3.928-10.778z"/><path fill="#1352AB" d="M39.75 110.584c-1.58 1.26-3.469 1.934-5.39 1.934-.451 0-.902-.04-1.353-.118-2.039-.34-5.012-1.43-6.188-3.143.072-.34.15-.666.235-.974.549 1.79 3.738 3.091 6.064 3.477 2.294.385 4.653-.32 6.502-1.921.046.241.092.49.13.745zM28.709 101.52s3.486 2.645 7.905 2.092c0 0-4.599 1.834-7.922-1.174"/><path fill="#FED0B5" d="M30.233 83.877c-.5.312 1.192 2.934 6.086 2.063 0 0-2.253-.628-1.191-3.552s-3.9-.282-3.9-.282.456.865-.995 1.771z"/><path fill="#FFDCC5" d="M37.407 79.906c-.203.732-.484 1.463-.994 2.019-.784.843-2.019 1.156-3.17 1.091-1.15-.072-2.247-.477-3.332-.876l.386-.032c-.523-.804-1.052-1.62-1.34-2.536-.287-.915-.313-1.953.157-2.79.392-.7 1.078-1.183 1.784-1.562a10.928 10.928 0 0 1 4.11-1.248c.47-.046.954-.059 1.412.066.457.117.888.392 1.124.803.17.314.215.68.242 1.04a11.957 11.957 0 0 1-.38 4.025z"/><path fill="#2A2A38" d="M40.853 88.35c.131.085-15.208-1.406-14.583-11.354.625-9.948 11.694-5.17 11.798-3.294.104 1.875-1.955 3.763-2.059 4.857s-.885 6.093 4.844 9.791z"/></svg>