<svg xmlns="http://www.w3.org/2000/svg" enable-background="new 0 0 52 52" viewBox="0 0 52 52"><path fill="#1d2943" d="M31.4,42.2l0,2.6c0,1.3-0.9,2.7-2.6,3.7c-3.5,2-9.2,2-12.8,0c-1.8-1-2.7-2.4-2.7-3.7l0-2.6c0-1.3,0.9-2.7,2.6-3.7c3.5-2,9.2-2,12.8,0C30.5,39.5,31.4,40.8,31.4,42.2z"/><path fill="#1d2943" d="M31.4,42.2l0,2.6c0,1.3-0.9,2.7-2.6,3.7c-3.5,2-9.2,2-12.8,0c-1.8-1-2.7-2.4-2.7-3.7l0-2.6c0,1.3,0.9,2.7,2.7,3.7c3.5,2,9.3,2,12.8,0C30.5,44.8,31.4,43.5,31.4,42.2z"/><path fill="#4c5c75" d="M28.7,38.4c3.5,2,3.6,5.4,0,7.4c-3.5,2-9.2,2-12.8,0c-3.5-2-3.6-5.4,0-7.4C19.5,36.4,25.2,36.4,28.7,38.4z"/><polygon fill="#dedffb" points="27.6 41.4 20.1 45.8 17.6 44.3 18.7 36.4 21.3 37.9 26.4 34.9"/><polygon fill="#dedffb" points="20.1 45.8 17.6 44.3 18.7 36.4 21.3 37.9"/><polygon fill="#f3f1fc" points="26.4 34.9 27.6 41.4 20.1 45.8 21.3 37.9"/><path fill="#1d2943" d="M8.4 45.9C8.4 45.9 8.4 46 8.4 45.9 8.4 46 8.4 45.9 8.4 45.9 8.4 45.9 8.4 45.9 8.4 45.9zM38.2 27.3c0 1.2-.9 2.7-1.9 3.3L9.9 45.9c-.6.3-1.1.3-1.4.1 0 0-.1 0-.1-.1 0 0 0 0 0 0l-2.8-1.6c-.3-.2-.5-.6-.5-1.2L5 20.9c0-1.2.9-2.7 1.9-3.3L33.3 2.3c.5-.3 1-.3 1.4-.1l2.8 1.6c.4.2.6.6.6 1.3L38.2 27.3zM8.4 45.9C8.4 45.9 8.4 46 8.4 45.9 8.4 46 8.4 45.9 8.4 45.9 8.4 45.9 8.4 45.9 8.4 45.9z"/><path fill="#4c5c75" d="M5,20.9c0-1.2,0.9-2.7,1.9-3.3L33.3,2.3c0.5-0.3,1-0.3,1.4-0.1l2.9,1.7c-0.4-0.2-0.8-0.2-1.4,0.1L9.8,19.2c-1.1,0.6-1.9,2.1-1.9,3.3l0,22.2c0,0.6,0.2,1,0.6,1.2l-2.9-1.7c-0.3-0.2-0.6-0.6-0.6-1.2L5,20.9z"/><path fill="#1d2943" d="M36.2,3.9c1.1-0.6,1.9-0.1,1.9,1.1l0,22.2c0,1.2-0.9,2.7-1.9,3.3L9.9,45.9c-1.1,0.6-1.9,0.1-1.9-1.1l0-22.2c0-1.2,0.9-2.7,1.9-3.3L36.2,3.9z"/><path fill="#9ea9c9" d="M38.2,24.8v2.5c0,1.2-0.9,2.7-1.9,3.3L9.9,45.9c-0.6,0.3-1.1,0.3-1.5,0.1c0,0,0,0,0.1,0l-2.9-1.7c-0.3-0.2-0.6-0.7-0.6-1.3l0-2.4l2.9,1.7L38.2,24.8z"/><path fill="#c9cee2" d="M38.2,24.8l0,2.5c0,1.2-0.9,2.7-1.9,3.3L9.9,45.9c-1.1,0.6-1.9,0.1-1.9-1.1l0-2.5L38.2,24.8z"/><path fill="#9ea9c9" d="M7.9,44.7l0-2.4L5,40.6l0,2.4c0,0.6,0.2,1.1,0.6,1.3L8.5,46C8.1,45.8,7.9,45.3,7.9,44.7z"/><path fill="#1d2943" d="M23,34.3c0.5-0.3,1-0.1,1,0.6c0,0.6-0.4,1.4-1,1.7c-0.5,0.3-1,0.1-1-0.6C22.1,35.4,22.5,34.6,23,34.3z"/><path fill="#fff" d="M37.2,24.3L8.8,40.8l0-18.2c0-0.9,0.7-2.1,1.4-2.5L36.7,4.7c0.2-0.1,0.3-0.1,0.4-0.1c0.1,0,0.1,0.1,0.1,0.4L37.2,24.3z"/><ellipse cx="16.5" cy="21.9" fill="#57b3fe" rx="4.8" ry="2.8" transform="rotate(-59.834 16.488 21.92)"/><path fill="#bf7d5a" d="M18.9 23.2c-.6 1-1.3 1.9-2.2 2.4l-.1-1.4.2-.4 0 .1c.3-.4.7-1 .7-1.5h0l.7-.4c.4-.2.7 0 .7.4L18.9 23.2zM16.4 24.5L16.4 24.5 16.3 26c-.8.4-1.6.4-2.2.1l0-.8c0-.5.3-1 .7-1.3l.7-.4c0 .4.3.7.7.7l0-.1L16.4 24.5z"/><path fill="#aa6256" d="M16,22.9C16,22.9,16,22.9,16,22.9c0,0.3,0.2,0.5,0.5,0.6c0,0,0,0,0,0c0,0,0,0,0,0l-0.3,0.7l0,0.1c-0.4,0-0.7-0.2-0.7-0.7L16,22.9z"/><path fill="#438ac4" d="M16.6,23.4C16.5,23.4,16.5,23.5,16.6,23.4L16.6,23.4L16.6,23.4z"/><path fill="#f3f1fc" d="M16.5,23.5C16.5,23.5,16.5,23.5,16.5,23.5l0.3,0.4l-0.2,0.4l-0.3,0.2l-0.2-0.2L16.5,23.5C16.5,23.5,16.5,23.5,16.5,23.5L16.5,23.5L16.5,23.5z"/><path fill="#438ac4" d="M16.5,23.5L16.5,23.5C16.5,23.5,16.5,23.5,16.5,23.5L16.5,23.5z"/><path fill="#aa6256" d="M17,22.3l0.6,0.1c0,0.5-0.3,1.1-0.7,1.5l0-0.1l-0.3-0.4c0,0,0,0,0,0c0,0,0,0,0-0.1C17,22.8,17,22.5,17,22.3z"/><path fill="#f4d6d4" d="M15.9,20.5c0.2-0.1,0.5-0.1,1.3-0.7c0,0,0,0,0,0c0.1,0,0.1,0,0.1,0c0.1,0.2,0.2,0.6,0.3,1.2c-0.1,0.6-0.5,1.4-1.1,1.7l0,0c-0.5,0.3-1,0.1-1.1-0.5c0-0.7,0.1-1.1,0.2-1.4C15.7,20.7,15.8,20.6,15.9,20.5z"/><path fill="#f5c9c6" d="M16,22.8c0.2,0,0.3-0.1,0.5-0.2l0,0c0.2-0.1,0.3-0.2,0.5-0.4c0,0.1,0,0.5-0.4,1.2l0,0.1l0,0l0,0l0,0c-0.2-0.1-0.4-0.2-0.5-0.6L16,22.8z"/><path fill="#1d2943" d="M15.4,19.1C15.4,19.1,15.4,19.1,15.4,19.1c0.2,0.1,0.4,0.2,0.6,0.3c0-0.2,0-0.2,0-0.4c0,0,0,0,0-0.1c0,0,0,0,0,0c0.1,0.1,0.2,0,0.3,0.1c0.1,0,0.2,0,0.3-0.1c0.5-0.2,0.8-0.3,0.9,0.1c0,0,0,0,0,0c0,0,0,0,0.1,0c0.3-0.2,0.2,0.6,0.2,0.9c0,0.1,0,0.1,0,0.2c0,0,0,0,0,0c0,0.2-0.1,0.6-0.1,0.9c0,0,0,0,0,0.1c0-0.6-0.1-1-0.3-1.2c0,0-0.1,0-0.1,0c0,0,0,0,0,0c-0.8,0.6-1.2,0.7-1.3,0.7c-0.1,0.1-0.2,0.2-0.2,0.3c-0.1,0.3-0.2,0.8-0.2,1.4l0-0.1l-0.2-0.7l0,0c0-0.2-0.1-0.3-0.1-0.5c0-0.3,0.1-0.7,0.3-0.8c0,0,0,0,0-0.1C15.4,19.8,15.3,19.5,15.4,19.1C15.4,19.1,15.4,19.1,15.4,19.1z"/><path fill="#dedffb" d="M16.8,25.7c-0.1,0.1-0.2,0.1-0.3,0.2c-0.1,0-0.2,0.1-0.2,0.1l0.1-1.5l0.3-0.2L16.8,25.7z"/><path fill="#f5c9c6" d="M17.7 20C17.8 20 17.8 20 17.7 20c.1-.1.2.1.2.3 0 .2-.1.5-.2.5 0 0 0 0 0 0 0 0 0 0-.1 0C17.7 20.6 17.7 20.2 17.7 20 17.7 20 17.7 20 17.7 20zM15.2 21.5l.2.7c0 .1-.1.1-.1.1 0 0 0 0 0 0-.1.1-.2 0-.2-.2C15 21.8 15.1 21.6 15.2 21.5z"/><polygon fill="#e3e7f0" points="23.3 23 23.3 26.1 10.7 33.4 10.7 30.3"/><path fill="#4c5c75" d="M13.3,30.8C13.3,31,13.2,31,13.1,31c0,0,0,0-0.4-0.1c0.1,0.5,0.1,0.5,0.1,0.5c0,0.1-0.1,0.3-0.2,0.3c-0.1,0.1-0.2,0-0.2-0.1c0,0,0,0,0.1-0.6c-0.4,0.6-0.4,0.6-0.4,0.6c-0.1,0.1-0.2,0.1-0.2,0.1c-0.1-0.1,0-0.2,0.1-0.3l0.5-0.5l-0.5,0.1c-0.1,0-0.1-0.1-0.1-0.2c0-0.1,0.1-0.2,0.2-0.2c0,0,0,0,0.4,0.1c-0.1-0.5-0.1-0.5-0.1-0.5c0-0.1,0.1-0.3,0.2-0.3c0.1-0.1,0.2,0,0.2,0.1c0,0,0,0-0.1,0.6c0.3-0.4,0.4-0.6,0.5-0.7c0.1,0,0.1,0,0.2,0c0.1,0.1,0,0.2-0.1,0.3l-0.5,0.5l0.5-0.1C13.4,30.6,13.4,30.7,13.3,30.8z"/><polygon fill="#f45170" points="23.3 27.2 23.3 30.3 10.7 37.5 10.7 34.4"/><polygon fill="#dedffb" points="35.8 7.4 24.7 13.8 24.7 14.4 35.8 8"/><polygon fill="#78e75a" points="33.1 10.7 33.1 11.3 35.7 9.8 35.7 9.2"/><polygon fill="#f45170" points="31.8 11.4 24.7 15.5 24.7 16.1 31.8 12.1"/><polygon fill="#57b3fe" points="35.7 12.7 24.7 19 24.7 19.6 35.7 13.3"/><polygon fill="#dedffb" points="35.8 10.8 24.7 17.3 24.7 17.9 35.8 11.5"/><polygon fill="#78e75a" points="35.7 14.4 24.7 20.8 24.7 21.4 35.7 15"/><polygon fill="#dba660" points="35.7 17.9 24.7 24.2 24.7 24.9 35.7 18.5"/><polygon fill="#dedffb" points="35.8 16.1 24.7 22.5 24.7 23.1 35.8 16.7"/><polygon fill="#dedffb" points="35.8 19.6 24.7 26 24.7 26.6 35.8 20.2"/><polygon fill="#dedffb" points="35.8 19.6 24.7 26 24.7 26.6 35.8 20.2"/><path fill="#1d2943" d="M44.6,36.7c0,0.4-0.3,0.9-0.6,1l-8.2,4.7c-0.2,0.1-0.3,0.1-0.4,0l-1.4-0.8c-0.1-0.1-0.2-0.2-0.2-0.4l0-15.9c0-0.4,0.3-0.8,0.6-1l8.2-4.7c0.2-0.1,0.3-0.1,0.4,0l1.4,0.8c0.1,0.1,0.2,0.2,0.2,0.4L44.6,36.7z"/><path fill="#4c5c75" d="M44.4,20.4c-0.1-0.1-0.3-0.1-0.4,0l-8.2,4.7c-0.3,0.2-0.6,0.7-0.6,1l0,15.9c0,0.2,0.1,0.3,0.2,0.4l-1.4-0.8c-0.1-0.1-0.2-0.2-0.2-0.4l0-15.9c0-0.4,0.3-0.8,0.6-1l8.2-4.7c0.2-0.1,0.3-0.1,0.4,0L44.4,20.4z"/><path fill="#1d2943" d="M43.9,20.4c0.3-0.2,0.6,0,0.6,0.3l0,15.9c0,0.4-0.3,0.9-0.6,1l-8.2,4.7c-0.3,0.2-0.6,0-0.6-0.3l0-15.9c0-0.4,0.3-0.9,0.6-1L43.9,20.4z"/><polygon fill="#fff" points="35.8 40.6 35.8 27.1 43.9 22.4 43.9 35.9"/><path fill="#4c5c75" d="M40.6 23.1c.1-.1.2 0 .2.1 0 .1-.1.3-.2.3l-2.2 1.3c-.1.1-.2 0-.2-.1 0-.1.1-.3.2-.3L40.6 23.1zM41.2 22.8c.1-.1.2 0 .2.1 0 .1-.1.3-.2.4-.1.1-.2 0-.2-.1C41 23 41.1 22.8 41.2 22.8zM40.8 38.3c.2-.1.3 0 .3.2 0 .2-.2.5-.3.6l-1.4.8c-.2.1-.3 0-.3-.2 0-.2.2-.5.3-.6L40.8 38.3z"/><g><path fill="#edeef2" d="M43,20.6c0,0-0.1,0.1-0.1,0.1c-0.2,0.1-0.6,0.1-0.9,0c-0.1,0-0.1-0.1-0.1-0.1c-0.1-0.1-0.1-0.3,0.1-0.4c0.2-0.1,0.6-0.1,0.9,0C43.1,20.3,43.1,20.5,43,20.6z"/></g><g><path fill="#111d33" d="M43,20.6c0,0-0.1,0.1-0.1,0.1c-0.2,0.1-0.6,0.1-0.9,0c-0.1,0-0.1-0.1-0.1-0.1c0,0,0.1-0.1,0.1-0.1c0.2-0.1,0.6-0.1,0.9,0C43,20.5,43,20.6,43,20.6z"/></g><g><path fill="#dedffb" d="M34.4 29.7c.2.1.3.3.3.5v.9c0 .1 0 .1-.1.2l-.2.1c0 0-.1 0-.2 0-.2-.1-.3-.3-.3-.5l0-.9c0-.1 0-.2.1-.2 0 0 0 0 0 0l.2-.1C34.3 29.6 34.3 29.6 34.4 29.7zM34.7 27.2v1.5c0 .1 0 .1-.1.2L34.4 29c0 0 0 0 0 0 0 0-.1 0-.2 0-.2-.1-.3-.3-.3-.5V27c0-.1 0-.2.1-.2 0 0 0 0 0 0l.2-.1c0 0 .1 0 .2 0C34.6 26.8 34.7 27 34.7 27.2z"/></g><g><path fill="#dedffb" d="M34.7,27.2l0,1.5c0,0.1,0,0.2-0.1,0.2L34.4,29c0,0,0.1-0.1,0.1-0.2l0-1.5c0-0.2-0.1-0.4-0.3-0.5c-0.1,0-0.2,0-0.2,0l0.2-0.1c0,0,0.1,0,0.2,0C34.6,26.8,34.7,27,34.7,27.2z"/><path fill="#f3f1fc" d="M34.2,26.8c0.2,0.1,0.3,0.3,0.3,0.5l0,1.5c0,0.2-0.1,0.3-0.3,0.2c-0.2-0.1-0.3-0.3-0.3-0.5l0-1.5C33.9,26.8,34,26.7,34.2,26.8z"/><path fill="#dedffb" d="M34.7,30.2v0.9c0,0.1,0,0.2-0.1,0.2l-0.2,0.1c0,0,0.1-0.1,0.1-0.2l0-0.9c0-0.2-0.1-0.4-0.3-0.5c-0.1,0-0.2,0-0.2,0l0.2-0.1c0.1,0,0.1,0,0.2,0C34.6,29.8,34.7,30,34.7,30.2z"/><path fill="#f3f1fc" d="M34.2,29.8c0.2,0.1,0.3,0.3,0.3,0.5l0,0.9c0,0.2-0.1,0.3-0.3,0.2c-0.2-0.1-0.3-0.3-0.3-0.5l0-0.9C33.9,29.8,34,29.7,34.2,29.8z"/></g><g><path fill="#e3e7f0" d="M41.9,26.9c0,0.8,0.3,1,0.9,0.7c0.2,3.8-0.8,6.2-2.9,8.4c-1.6,0.1-3.2-0.3-3-5c0.6-0.4,0.9-1,0.9-1.8C39,28.3,40.4,27.5,41.9,26.9z"/><path fill="#f45170" d="M41.6,27.3c0.1,0.8,0.5,0.8,0.9,0.7c0.1,3.3-0.7,5.5-2.6,7.6c-1.4,0.1-2.8-0.3-2.7-4.5c0.4-0.3,0.8-0.9,0.9-1.8C39.2,28.6,40.4,27.9,41.6,27.3z"/><path fill="#fff" d="M41.2,28.1c0.2,0.5,0.5,0.6,0.8,0.7c0,2.7-0.6,4.5-2.1,6.2c-1.1,0-2.2-0.4-2.2-3.7c0.4-0.5,0.7-1,0.8-1.6C39.4,29,40.2,28.5,41.2,28.1z"/><path fill="#78e75a" d="M39.8,30.1c0.7-0.4,1.2-0.1,1.2,0.7c0,0.8-0.5,1.7-1.2,2.1c-0.7,0.4-1.2,0.1-1.2-0.7C38.6,31.4,39.2,30.5,39.8,30.1z"/><path fill="#fff" d="M40.5,30.8l-0.8,1.4c0,0.1-0.1,0.1-0.1,0.1c0,0,0,0,0,0l-0.4-0.2c-0.1,0,0-0.1,0-0.2c0-0.1,0.1-0.1,0.2-0.1l0.3,0.2l0.7-1.3c0-0.1,0.1-0.1,0.2-0.1C40.6,30.7,40.6,30.8,40.5,30.8z"/></g><g><path fill="#497bfe" d="M47,6.5c0-0.3-0.1-0.4-0.3-0.5l-0.7-0.4c-0.1-0.1-0.3-0.1-0.5,0.1l-5.2,3C40,8.9,39.7,9.5,39.7,10l0,3.5c0,0.2,0.1,0.4,0.2,0.4l0.7,0.4c0.1,0.1,0.3,0.1,0.5,0l5.2-3c0.4-0.2,0.7-0.8,0.7-1.2L47,6.5z M41.1,9.1c-0.1,0.1-0.2,0.1-0.3,0.2C40.9,9.3,41,9.2,41.1,9.1l3.3-1.9L41.1,9.1z"/><path fill="#497bfe" d="M46.8,6.1c-0.1-0.1-0.3-0.1-0.5,0l-5.2,3c-0.4,0.2-0.7,0.8-0.7,1.3l0,3.5c0,0.2,0.1,0.4,0.2,0.5l-0.7-0.4c-0.1-0.1-0.2-0.2-0.2-0.5l0-3.5c0-0.5,0.3-1,0.7-1.3l5.2-3c0.2-0.1,0.4-0.1,0.5,0L46.8,6.1z"/><path fill="#57b3fe" d="M46.3,6.1c0.4-0.2,0.7,0,0.7,0.4l0,3.5c0,0.5-0.3,1-0.7,1.2l-5.2,3c-0.4,0.2-0.7,0-0.7-0.4l0-3.5c0-0.5,0.3-1,0.7-1.2L46.3,6.1z"/><path fill="#fff" d="M45.1,9.1l0.3-0.2l0,0.5l-0.3,0.2c0,0.3-0.1,0.5-0.2,0.8l0.2,0.2l-0.3,0.5l-0.3-0.1c-0.2,0.2-0.3,0.4-0.5,0.6l0,0.4l-0.4,0.3l0-0.4C43.2,12,43,12.1,42.9,12l-0.3,0.4l-0.3-0.2l0.2-0.4c-0.1-0.1-0.2-0.3-0.2-0.5l-0.3,0.2l0-0.5l0.3-0.2c0-0.2,0.1-0.5,0.2-0.8l-0.2-0.2l0.3-0.5l0.3,0.1c0.2-0.2,0.3-0.4,0.5-0.6l0-0.4l0.4-0.3l0,0.4c0.2-0.1,0.4-0.1,0.5-0.1L44.7,8l0.3,0.2l-0.2,0.4C45,8.7,45,8.9,45.1,9.1z M43.7,11.1c0.4-0.2,0.7-0.8,0.7-1.3c0-0.5-0.3-0.7-0.7-0.4c-0.4,0.2-0.7,0.8-0.7,1.3C42.9,11.1,43.3,11.3,43.7,11.1"/></g><g><path fill="#4c5c75" d="M15.5,29.5c-0.1,0.2-0.2,0.2-0.2,0.2c0,0,0,0-0.4-0.1c0.1,0.5,0.1,0.5,0.1,0.5c0,0.1-0.1,0.3-0.2,0.3c-0.1,0.1-0.2,0-0.2-0.1c0,0,0,0,0.1-0.6c-0.4,0.6-0.4,0.6-0.4,0.6c-0.1,0.1-0.2,0.1-0.2,0.1c-0.1-0.1,0-0.2,0.1-0.3l0.5-0.5l-0.5,0.1c-0.1,0-0.1-0.1-0.1-0.2c0-0.1,0.1-0.2,0.2-0.2c0,0,0,0,0.4,0.1c-0.1-0.5-0.1-0.5-0.1-0.5c0-0.1,0.1-0.3,0.2-0.3c0.1-0.1,0.2,0,0.2,0.1c0,0,0,0-0.1,0.6c0.3-0.4,0.4-0.6,0.5-0.7c0.1,0,0.1,0,0.2,0c0.1,0.1,0,0.2-0.1,0.3L15,29.4l0.5-0.1C15.6,29.3,15.6,29.4,15.5,29.5z"/></g><g><path fill="#4c5c75" d="M17.7,28.3c-0.1,0.2-0.2,0.2-0.2,0.2c0,0,0,0-0.4-0.1c0.1,0.5,0.1,0.5,0.1,0.5c0,0.1-0.1,0.3-0.2,0.3c-0.1,0.1-0.2,0-0.2-0.1c0,0,0,0,0.1-0.6c-0.4,0.6-0.4,0.6-0.4,0.6c-0.1,0.1-0.2,0.1-0.2,0.1c-0.1-0.1,0-0.2,0.1-0.3l0.5-0.5l-0.5,0.1c-0.1,0-0.1-0.1-0.1-0.2c0-0.1,0.1-0.2,0.2-0.2c0,0,0,0,0.4,0.1c-0.1-0.5-0.1-0.5-0.1-0.5c0-0.1,0.1-0.3,0.2-0.3c0.1-0.1,0.2,0,0.2,0.1c0,0,0,0-0.1,0.6c0.3-0.4,0.4-0.6,0.5-0.7c0.1,0,0.1,0,0.2,0c0.1,0.1,0,0.2-0.1,0.3l-0.5,0.5l0.5-0.1C17.8,28,17.8,28.2,17.7,28.3z"/></g><g><path fill="#4c5c75" d="M19.9,27c-0.1,0.2-0.2,0.2-0.2,0.2c0,0,0,0-0.4-0.1c0.1,0.5,0.1,0.5,0.1,0.5c0,0.1-0.1,0.3-0.2,0.3c-0.1,0.1-0.2,0-0.2-0.1c0,0,0,0,0.1-0.6c-0.4,0.6-0.4,0.6-0.4,0.6c-0.1,0.1-0.2,0.1-0.2,0.1c-0.1-0.1,0-0.2,0.1-0.3l0.5-0.5l-0.5,0.1c-0.1,0-0.1-0.1-0.1-0.2c0-0.1,0.1-0.2,0.2-0.2c0,0,0,0,0.4,0.1C19,26.3,19,26.3,19,26.3c0-0.1,0.1-0.3,0.2-0.3c0.1-0.1,0.2,0,0.2,0.1c0,0,0,0-0.1,0.6c0.3-0.4,0.4-0.6,0.5-0.7c0.1,0,0.1,0,0.2,0c0.1,0.1,0,0.2-0.1,0.3l-0.5,0.5l0.5-0.1C20,26.8,20,26.9,19.9,27z"/></g><g><path fill="#4c5c75" d="M22.1,25.7c-0.1,0.2-0.2,0.2-0.2,0.2c0,0,0,0-0.4-0.1c0.1,0.5,0.1,0.5,0.1,0.5c0,0.1-0.1,0.3-0.2,0.3c-0.1,0.1-0.2,0-0.2-0.1c0,0,0,0,0.1-0.6c-0.4,0.6-0.4,0.6-0.4,0.6c-0.1,0.1-0.2,0.1-0.2,0.1c-0.1-0.1,0-0.2,0.1-0.3l0.5-0.5l-0.5,0.1c-0.1,0-0.1-0.1-0.1-0.2c0-0.1,0.1-0.2,0.2-0.2c0,0,0,0,0.4,0.1C21.2,25,21.2,25,21.2,25c0-0.1,0.1-0.3,0.2-0.3c0.1-0.1,0.2,0,0.2,0.1c0,0,0,0-0.1,0.6c0.3-0.4,0.4-0.6,0.5-0.7c0.1,0,0.1,0,0.2,0c0.1,0.1,0,0.2-0.1,0.3l-0.5,0.5l0.5-0.1C22.2,25.5,22.2,25.6,22.1,25.7z"/></g><path fill="#fff" d="M13.3 34.9c-.1.2-.2.2-.2.2 0 0 0 0-.4-.1.1.5.1.5.1.5 0 .1-.1.3-.2.3-.1.1-.2 0-.2-.1 0 0 0 0 .1-.6-.4.6-.4.6-.4.6-.1.1-.2.1-.2.1-.1-.1 0-.2.1-.3l.5-.5-.5.1c-.1 0-.1-.1-.1-.2 0-.1.1-.2.2-.2 0 0 0 0 .4.1-.1-.5-.1-.5-.1-.5 0-.1.1-.3.2-.3.1-.1.2 0 .2.1 0 0 0 0-.1.6.3-.4.4-.6.5-.7.1 0 .1 0 .2 0 .1.1 0 .2-.1.3l-.5.5.5-.1C13.4 34.7 13.4 34.8 13.3 34.9zM15.5 33.7c-.1.2-.2.2-.2.2 0 0 0 0-.4-.1.1.5.1.5.1.5 0 .1-.1.3-.2.3-.1.1-.2 0-.2-.1 0 0 0 0 .1-.6-.4.6-.4.6-.4.6-.1.1-.2.1-.2.1-.1-.1 0-.2.1-.3l.5-.5-.5.1c-.1 0-.1-.1-.1-.2 0-.1.1-.2.2-.2 0 0 0 0 .4.1-.1-.5-.1-.5-.1-.5 0-.1.1-.3.2-.3.1-.1.2 0 .2.1 0 0 0 0-.1.6.3-.4.4-.6.5-.7.1 0 .1 0 .2 0 .1.1 0 .2-.1.3L15 33.5l.5-.1C15.6 33.4 15.6 33.6 15.5 33.7z"/></svg>