<svg xmlns="http://www.w3.org/2000/svg" enable-background="new 0 0 50 50" viewBox="0 0 50 50"><path fill="#363A44" d="M47.9707603,22.9267979l0.0300293,8.5599976c0,0.5100098-0.3599854,1.1300068-0.8099976,1.3900166
						L30.730772,42.3868217c-0.2199707,0.1199951-0.4199829,0.1399536-0.5700073,0.0499878L30.1307964,42.41679
						l-2.1600342-1.2299805c-0.1400146-0.0800171-0.2299805-0.2600098-0.2299805-0.5200195l-0.0300293-7.9299927
						l-0.6300049-0.3699951l-0.0099487-5.5999775l-6.0599976,3.5l-0.0100098,2.9599628l3.9799805,2.2600098v2.0800171
						L16.27075,42.626812l-5.5499887-3.2800293v-0.0100098l0.0100098-3.1300049l-6.0100098,3.4700317
						c-0.4599609,0.2600098-0.8699951,0.2600098-1.1400146,0.039978c0.0100098,0.0200195,0.0300293,0.0300293,0.0400391,0.0400391
						l-0.4000244-0.2300415c-0.7961426-0.5606003-1.498589-0.6145935-1.7099609-1.25c0-0.0099487-0.0100098-0.0199585,0-0.0299683
						c-0.0541476-0.1081848-0.0700073-0.3268929-0.0700073-0.4400024l-0.0100098-1.7000122l-0.039978-17.7600117
						c0-0.9400024,0.6699829-2.0899658,1.4799805-2.5700064L27.2507915,1.7067668
						c0.4199829-0.2299805,0.789978-0.2699585,1.0599976-0.1099854l1.7399902,1.0200195
						c0.0100098,0.0100098,0.0200195,0.0100098,0.0299683,0.0200195c0.2800293,0.1499634,0.460022,0.4799805,0.460022,0.9599609
						l0.0100098,17.75l0.0100098,1.6900024c0,0.5300293-0.210022,1.1300049-0.5499878,1.6300049l3.1900005-1.9099731
						l-0.0100098-1.1500244c0-0.7700195,0.539978-1.7299805,1.2299805-2.1199951l4.6300049-2.6699829
						c0.3400269-0.210022,0.6500244-0.2200317,0.8699951-0.0900269l1.0200195,0.5900269
						c-0.0200195-0.0100098-0.0300293-0.0200195-0.0499878-0.0200195c0.2099609,0.0999756,0.3499756,0.3099976,0.3899536,0.6099854
						l4.8200073-2.8999624l2.4899902,1.5199575l0.0200195,5.9299927l-0.6300049,0.460022L47.9707603,22.9267979z"/><path fill="#363A44" d="M12.6607637,43.8367729c0,0.0900269-0.0100098,0.1800537-0.0199585,0.2600098
						c0.0199585,0.1099854,0.0299683,0.2200317,0.0299683,0.3200073l-0.0100098,1.4700317
						c0,0.2599487-0.0599976,0.5099487-0.1900024,0.7599487c-0.0499878,0.0900269-0.1099854,0.1900024-0.1799927,0.2700195
						c-0.1300049,0.1900024-0.3099976,0.3599854-0.5200195,0.5300293c-0.0599976,0.0499878-0.1199951,0.0899658-0.1900024,0.1300049
						c-0.0699463,0.0599976-0.1499634,0.0999756-0.2299805,0.1499634c-0.0999756,0.0499878-0.1900024,0.1099854-0.289978,0.1600342
						c-0.0599976,0.0299683-0.1199951,0.0599976-0.1900024,0.0799561c-0.1699829,0.0800171-0.3400269,0.1400146-0.5200195,0.2000122
						c-0.0599976,0.0200195-0.1199951,0.039978-0.1799927,0.0499878c-0.1699829,0.0599976-0.3499756,0.1000366-0.5299683,0.1400146
						c-0.0600586,0.0100098-0.1300049,0.0200195-0.1800537,0.0300293C9.2807589,48.41679,9.1107759,48.4368095,8.9307833,48.456768
						c-0.0499878,0.0100098-0.1199951,0.0100098-0.1799927,0.0100098c-0.1700439,0.0300293-0.3500366,0.0300293-0.5300293,0.0300293
						H8.0407686c-0.1799927,0-0.3499756-0.0100098-0.5200195-0.0300293c-0.0599976,0-0.1299438,0-0.1900024-0.0100098
						c-0.1699829-0.0199585-0.3499756-0.0499878-0.5199585-0.0699463c-0.0599976-0.0100098-0.1300049-0.0300293-0.1900024-0.0400391
						c-0.1699829-0.039978-0.3500366-0.0799561-0.5200195-0.1300049c-0.0599976-0.0199585-0.1199951-0.0299683-0.1799927-0.0499878
						c-0.1900024-0.0599976-0.3599854-0.1300049-0.5299683-0.210022c-0.0700073-0.0199585-0.1300049-0.0499878-0.1800537-0.0799561
						c-0.0999756-0.0499878-0.1900024-0.1000366-0.2799683-0.1500244c-0.0800171-0.0499878-0.1699829-0.0999756-0.25-0.1499634
						c-0.0599976-0.0500488-0.1199951-0.0900269-0.1799927-0.1400146c-0.210022-0.1600342-0.3900146-0.3300171-0.5200195-0.5200195
						c-0.0700073-0.0800171-0.1400146-0.1799927-0.1799927-0.2799683c-0.1400146-0.25-0.210022-0.5100098-0.210022-0.7700195
						L3.6007662,44.41679c0-0.0899658,0-0.1900024,0.0200195-0.289978c-0.0200195-0.1000366-0.0300293-0.210022-0.0300293-0.3099976
						l0.0100098-1.4500122c-0.0100098-0.6699829,0.4299927-1.3499756,1.3200073-1.8699951
						c1.7600098-1.0300293,4.6300049-1.0300293,6.4099731,0c0.8900146,0.5200195,1.3400269,1.1900024,1.3400269,1.8699951
						L12.6607637,43.8367729z"/><polygon fill="#CAD0DD" points="21.006 30.203 20.995 33.224 12.286 38.283 12.296 35.273"/><polygon fill="#EAF0F6" points="10.734 34.251 19.448 29.187 21.006 30.211 12.292 35.275"/><polygon fill="#CAD0DD" points="16.271 40.554 24.985 35.49 24.981 37.567 16.267 42.631"/><polygon fill="#E4E8F4" points="12.284 38.29 20.998 33.226 24.985 35.49 16.271 40.554"/><polygon fill="#BAC1CE" points="12.292 35.275 12.284 38.29 16.271 40.554 16.267 42.631 10.722 39.342 10.734 34.251"/><polygon fill="none" points="24.985 35.487 24.977 37.571 16.27 42.627 10.724 39.344 10.732 34.254 19.448 29.189 21.007 30.208 20.999 33.223"/><path fill="#5B5E71" d="M30.1073074,2.6470296c-0.2561417-0.1387544-0.6942654-0.1263292-1.099844,0.1191292L4.6652327,16.8191662
			c-0.8217778,0.4696159-1.4941828,1.6330032-1.4941828,2.5722332L3.224402,37.140564v1.6970367
			c0.0106833,0.4696159,0.1707394,0.8004761,0.4375648,0.949913L3.224402,39.5313721
			c-0.9761848-0.6946449-1.7818259-0.6107674-1.7818259-1.737545l-0.0106834-1.6863556L1.3892241,18.3475609
			c0-0.9392319,0.672405-2.0918694,1.4834993-2.5721684L27.2499161,1.7083673
			c0.4162636-0.2348402,0.789793-0.2668253,1.0566177-0.1067692L30.1073074,2.6470296z"/><path fill="#3F434F" d="M30.5526047,21.3484497L3.224402,37.140564L3.1710498,19.3913994
			c0-0.93923,0.672405-2.0919342,1.4941828-2.5722332L29.0424252,2.752142
			c0.8218441-0.4802985,1.4941826-0.0960858,1.4941826,0.8431447L30.5526047,21.3484497z"/><path fill="#FFF" d="M5.3437543,19.3849716c0.0127311-0.1798248,0.2551484-0.5877438,0.4190588-0.6906509L28.3654518,5.6509895
			l0.0132618,14.4442596L5.3861909,33.3820572L5.3437543,19.3849716z"/><path fill="#CAD0DD" d="M3.6619668,39.7875137L3.224402,39.5313721c-0.8670738-0.6749992-1.7823752-0.5661278-1.7823752-1.729023
			l-0.0106834-1.6970367L3.224402,37.140564v1.6970367C3.2350852,39.3072166,3.3951414,39.6380768,3.6619668,39.7875137z"/><path fill="#E4E8F4" d="M30.5526047,21.3484497l0.0048008,1.6931419c0.0026836,0.9469109-0.6624508,2.0989361-1.4865131,2.5747089
			L4.7257714,39.6719627c-0.8285332,0.4783516-1.4980166,0.0968704-1.5007012-0.8500404l-0.0048001-1.6931419L30.5526047,21.3484497
			z"/><path fill="#5B5E71" d="M17.4807796,30.5096035c0,0.4123898-0.2886848,0.8968868-0.6391602,1.1030827
			c-0.3505383,0.2061939-0.6391602,0.0412769-0.6391602-0.3607941c0-0.4123898,0.2783031-0.9072075,0.6391602-1.1134014
			C17.1920948,29.9426136,17.4807796,30.1075954,17.4807796,30.5096035z"/><polygon fill="#E4E8F4" points="13.202 28.072 6.389 32.008 6.352 19.138 13.165 15.209"/><polygon fill="#E4E8F4" points="27.37 19.889 14.579 27.279 14.543 14.409 27.333 7.025"/><path fill="#F9BB4A" d="M22.4975357,16.9663486c0.1265926-0.0730877,0.2448845-0.0975266,0.3441238-0.0799255
			c0.1329765,0.0235672,0.2315331,0.1230297,0.2697773,0.2834091c0.0112171,0.0470772,0.0174046,0.0992069,0.0175667,0.1563759
			c0.0011272,0.397583-0.2813969,0.8868999-0.627367,1.0866451c-0.2699471,0.1558552-0.4942932,0.0958939-0.5863991-0.1171989
			c-0.0287838-0.0666084-0.0447998-0.1480064-0.0450668-0.2426586c-0.0002689-0.0946541,0.0152378-0.1942501,0.0435505-0.2938232
			C22.0043182,17.4405956,22.2275887,17.1222038,22.4975357,16.9663486z"/><path fill="#5B5E71" d="M20.8498573,18.3734093l1.0638771-0.6142292c-0.0283222,0.099575-0.0438328,0.199173-0.0435638,0.2938251
			c0.0002689,0.0946503,0.0162926,0.1760426,0.0450706,0.242651l-1.33391,0.770134L20.8498573,18.3734093z"/><path fill="#5B5E71" d="M21.8328514,14.8139639c0.1000252,0.0688219,0.2385693,0.074398,0.395752,0.0045338l-1.378746,3.5549116
			l-0.2685261,0.6923809l-1.0042,2.5891705c-0.0851173-0.1037006-0.2185574-0.1408062-0.3763428-0.0955811l0.8545017-2.1898785
			l0.2706394-0.6936016L21.8328514,14.8139639z"/><path fill="#5B5E71" d="M18.3521099,17.3397865l1.2914238,1.7300949l0.6823959-0.3939819l-0.2706394,0.6936016
			l-0.6770134,0.390873l-1.4393063-1.9447556C18.1021938,17.705637,18.2481403,17.5331478,18.3521099,17.3397865z"/><path fill="#6EBA6E" d="M15.6442738,19.2583694c0.1516581-0.0875607,0.291503-0.1055717,0.4008179-0.0643749
			c0.1206112,0.0455418,0.2038898,0.1633911,0.2251587,0.3394928c0.0034294,0.0284061,0.005415,0.0581055,0.0055046,0.0894833
			c0.0011272,0.397583-0.2813959,0.8868999-0.6273661,1.0866451c-0.3543081,0.2045593-0.6303406,0.0377254-0.6314678-0.3598576
			C15.0157804,19.9474316,15.2899666,19.4629288,15.6442738,19.2583694z"/><path fill="#5B5E71" d="M17.2621479,17.5873737c0.0241394,0.1729355,0.108942,0.2874985,0.2307835,0.3296032l-1.2226791,1.6165161
			c-0.0212593-0.176115-0.104538-0.2939587-0.2251511-0.3394947L17.2621479,17.5873737z"/><path fill="#CAD0DD" d="M19.0453796,21.6269093c0.0537052-0.0310059,0.1057396-0.0533047,0.1553993-0.0675297
			c0.1577911-0.0452251,0.2912292-0.008131,0.3763485,0.0955772c0.0627441,0.0764771,0.0993137,0.1889553,0.09972,0.3318119
			c0.0011406,0.4023266-0.2772141,0.8893013-0.6273537,1.0914536c-0.2676468,0.1545258-0.4942665,0.0945759-0.5867767-0.1217976
			c-0.028513-0.0666981-0.0444355-0.1480846-0.0447025-0.2428684c-0.0002632-0.0928345,0.0148945-0.1906033,0.042469-0.2883835
			C18.5509853,22.1041145,18.7770061,21.7818565,19.0453796,21.6269093z"/><path fill="#4C7891" d="M15.9022226,23.3552647c0.2932844-0.1693287,0.5422316-0.0819912,0.6119642,0.1936035
			c0.0125275,0.049509,0.0193291,0.1049919,0.0195026,0.166254c0.0003643,0.1285648-0.0290432,0.2666416-0.0805531,0.401535
			c-0.1077824,0.2821693-0.3127174,0.5499554-0.546813,0.685112c-0.3543081,0.2045593-0.6303406,0.0376606-0.6314678-0.3598595
			C15.273715,24.0395832,15.5479145,23.559824,15.9022226,23.3552647z"/><path fill="#5B5E71" d="M18.4604855,22.4251862c-0.0275669,0.0977612-0.0427227,0.1955338-0.0424595,0.2883682
			c0.0002689,0.0947876,0.0161858,0.1761818,0.0446987,0.2428818l-2.0095787,1.1602306
			c0.0515099-0.1349049,0.0809193-0.2729778,0.080555-0.4015408c-0.0001736-0.0612583-0.0069752-0.116745-0.0195007-0.1662502
			L18.4604855,22.4251862z"/><path fill="#F9BB4A" d="M17.8823891,16.3973293c0.3459721-0.1997471,0.6303406-0.0376606,0.6314678,0.3598576
			c0.0005322,0.1880093-0.060873,0.394989-0.1617508,0.582592c-0.1039715,0.1933575-0.2499142,0.3658543-0.4131451,0.4758434
			c-0.017313,0.0116882-0.0347824,0.0228138-0.0524559,0.0330181c-0.1493835,0.0862465-0.2859001,0.1055908-0.3935833,0.0683327
			c-0.1218414-0.042099-0.2066364-0.1566658-0.2307777-0.3296127c-0.0045319-0.0324554-0.0070171-0.0668755-0.0071201-0.1033859
			C17.2538967,17.0864563,17.5322514,16.5994816,17.8823891,16.3973293z"/><path fill="#BAC1CE" d="M25.1710033,13.0336723c0.3459702-0.1997461,0.6303406-0.0377254,0.6314678,0.3598585
			c0.0011406,0.4023266-0.2813816,0.8916426-0.6273537,1.0913887c-0.1055946,0.0609655-0.2041302,0.0887041-0.290617,0.0872955
			c-0.1421871-0.002305-0.2514877-0.0840492-0.304821-0.2292738c-0.0230732-0.0628128-0.035799-0.1373892-0.0360413-0.2226229
			C24.542511,13.7227345,24.8166962,13.2382317,25.1710033,13.0336723z"/><path fill="#5B5E71" d="M24.5796833,14.3429527c0.0533295,0.1452198,0.1626339,0.2269697,0.3048286,0.2292585
			l-1.7730713,2.5976229c-0.0382462-0.1603699-0.1368008-0.2598476-0.2697754-0.2834034L24.5796833,14.3429527z"/><path fill="#576CFB" d="M24.4370384,10.3917351c0.3459721-0.1997461,0.6303406-0.0376606,0.6314678,0.3598585
			c0.0011406,0.4023914-0.281395,0.8868999-0.627367,1.0866461c-0.131237,0.0757704-0.2526493,0.100708-0.3532219,0.0810785
			c-0.1304951-0.0254536-0.2257214-0.1260595-0.2620029-0.2878313c-0.0103588-0.0462065-0.0160828-0.0972366-0.0162411-0.1531057
			C23.8085461,11.080862,24.0869007,10.5938873,24.4370384,10.3917351z"/><path fill="#F34858" d="M22.2993431,13.3291044c0.1269093-0.0732718,0.2454586-0.0976629,0.3448505-0.0798244
			c0.1320038,0.023737,0.2300167,0.1223431,0.2685566,0.2811852c0.011549,0.0476007,0.0178947,0.100419,0.0180588,0.1584978
			c0.0011406,0.4023266-0.2813816,0.8916416-0.6273518,1.0913877c-0.0253887,0.014658-0.0503063,0.0272226-0.0748577,0.0381441
			c-0.1571808,0.0698605-0.2957344,0.0642862-0.3957577-0.004528c-0.1023922-0.0704412-0.1644974-0.206893-0.1650333-0.3958101
			C21.6666813,14.0205727,21.9450359,13.5336637,22.2993431,13.3291044z"/><path fill="#5B5E71" d="M23.8259258,11.6314812c0.0362778,0.1617813,0.131506,0.2623835,0.2619953,0.2878494l-1.1751671,1.6111355
			c-0.0385342-0.1588411-0.1365547-0.2574501-0.2685566-0.2811852L23.8259258,11.6314812z"/><path fill="#F34858" d="M9.7675257 20.530529c.8211584-.4740963 1.5148106-.2700653 1.7548084.4404831.0884438.2703896-.1315403.7284126-.4233217.8968735l-2.6510515 1.5305843c-.2917824.1684608-.5136414-.0344639-.4228468-.4083366C8.2603035 22.0052357 8.9463654 21.0046272 9.7675257 20.530529zM9.7615099 18.4086514c.4335041-.2502823.7847843-.050045.7861967.44804.0013981.4933414-.3476 1.0978222-.7811041 1.3481045-.433506.2502861-.7847853.0501118-.7861843-.4432297C8.9790058 19.2634811 9.3280048 18.6589375 9.7615099 18.4086514z"/><polygon fill="#CAD0DD" points="12.354 22.048 12.355 22.58 7.203 25.554 7.202 25.023"/><polygon fill="#CAD0DD" points="12.358 23.753 12.36 24.285 7.208 27.259 7.206 26.728"/><polygon fill="#CAD0DD" points="12.368 27.168 12.37 27.7 7.218 30.675 7.216 30.143"/><polygon fill="#CAD0DD" points="12.363 25.458 12.365 25.995 7.213 28.969 7.211 28.433"/><polygon fill="#9AD898" points="48.591 16.525 46.103 15.005 27.067 26.435 29.253 27.69"/><polygon fill="#6EBA6E" points="48.608 22.454 47.978 22.914 38.936 29.491 29.901 33.347 29.271 33.619 29.254 27.69 48.591 16.525"/><path fill="#5CA05C" d="M47.9750023,22.9114113l0.0243111,8.5756207c0.0014534,0.5125065-0.3599739,1.1343327-0.8059654,1.3918247
			l-16.4618683,9.5042648c-0.4459915,0.2574921-0.8061314,0.0522652-0.8075848-0.4602432l-0.0243111-8.5755615l9.0397472-3.8577099
			L47.9750023,22.9114113z"/><path fill="#D9DADF" d="M40.7816811,26.4660797c0.1232796-0.0711784,0.2251282-0.0172806,0.2255287,0.1243382l0.0106201,3.7457218
			c0.0004005,0.141674-0.1007957,0.3169327-0.2240791,0.3881092l-2.1610718,1.2476959
			c-0.1232834,0.0711765-0.2287674,0.0152473-0.2291794-0.1306095l-0.0106087-3.741539
			c-0.0004005-0.1416187,0.1008072-0.3127499,0.2240906-0.3839283L40.7816811,26.4660797z"/><path fill="#75CA75" d="M27.0666485,26.4347515L27.0666485,26.4347515l0.0170898,5.9290142l0.6303711,0.3692017
			l0.0227051,7.9337769c0,0.2556152,0.0908813,0.4373169,0.2328491,0.5168457l2.1868286,1.2555542
			c-0.1419678-0.0852051-0.2328491-0.2612915-0.2328491-0.5168457l-0.0227051-8.5755615l-0.6303711-0.3691406l-0.0170898-5.2873516
			l0,0L27.0666485,26.4347515z"/><path fill="#F9BB4A" d="M12.6716795,44.4187737l-0.0073471,1.4680138c0,0.2568855-0.0660353,0.5137711-0.1908493,0.7560043
				c-0.0513411,0.0954247-0.110074,0.1908493-0.1835012,0.2789268c-0.1321163,0.1835022-0.3082705,0.3596573-0.5211163,0.5211601
				c-0.058733,0.0513878-0.1174669,0.0954247-0.1835022,0.1321182c-0.0734272,0.0586853-0.1541576,0.1027718-0.2348871,0.15411
				c-0.0954247,0.0513878-0.1908493,0.1027718-0.2936211,0.1541595c-0.0586882,0.0293427-0.1174221,0.0587311-0.1835022,0.0880775
				c-0.168807,0.0734253-0.3376141,0.1394615-0.5211163,0.1981964c-0.058733,0.0146484-0.117466,0.0366898-0.1835022,0.051384
				c-0.1688519,0.0513878-0.345006,0.0954247-0.5285082,0.1321182c-0.0586882,0.0146484-0.1247683,0.0219955-0.1835012,0.0366898
				c-0.1761551,0.0293465-0.3449621,0.0513878-0.5211172,0.066082c-0.058733,0.0073013-0.1248131,0.0146484-0.1835012,0.0146484
				c-0.1761999,0.0220413-0.352354,0.0293884-0.5285082,0.0293884H8.0400963c-0.1761546,0-0.3523092-0.0146942-0.5211611-0.0293884
				c-0.0586886,0-0.1247687-0.0073471-0.1835017-0.0146484c-0.1761546-0.0146942-0.3523092-0.0440407-0.5284638-0.0734291
				c-0.058733-0.0073471-0.1247687-0.0219955-0.1835017-0.0366898c-0.1761546-0.0366936-0.3523092-0.0807304-0.5211616-0.1321182
				c-0.0660353-0.0146942-0.1247683-0.0293884-0.1835017-0.051384c-0.1835017-0.0587349-0.3596563-0.1247711-0.5284634-0.2055435
				c-0.0660806-0.0219994-0.1247687-0.051342-0.1835017-0.0807304c-0.0954247-0.0513878-0.1835022-0.0954247-0.2715793-0.1468124
				c-0.0880775-0.0513382-0.1761546-0.102726-0.2495823-0.15411c-0.0660353-0.0440407-0.1247687-0.0880775-0.1835017-0.1394653
				c-0.2128458-0.1541557-0.3890004-0.3303108-0.5211165-0.513813c-0.0734274-0.0880775-0.1394629-0.1835022-0.1835017-0.286274
				c-0.1394632-0.2495384-0.2055435-0.5064659-0.2055435-0.7706985l0.0073473-1.4753609
				c0,0.2642326,0.0660355,0.5211601,0.1981962,0.7706985c0.0513411,0.0954247,0.1100743,0.1908493,0.1835017,0.286274
				c0.1321161,0.1835022,0.3082707,0.3596573,0.5211165,0.5211601c0.058733,0.0513878,0.1174664,0.0954247,0.1835017,0.1394615
				c0.08073,0.0513878,0.1615047,0.1027718,0.2495823,0.1541138c0.0880771,0.0513878,0.1761546,0.0954247,0.2715793,0.1468124
				c0.058733,0.0293884,0.1174212,0.0587311,0.1835017,0.0807304c0.168807,0.0807724,0.3449616,0.1468086,0.5284634,0.2055435
				c0.0587335,0.0219955,0.1248136,0.0366898,0.1835017,0.051384c0.1688523,0.0513878,0.3450069,0.0954247,0.5211616,0.1321144
				c0.058733,0.014698,0.1174212,0.0293465,0.1835017,0.0366936c0.1761546,0.0293884,0.3523092,0.0587311,0.5284638,0.0734291
				c0.058733,0.0073013,0.117466,0.0146484,0.1835017,0.0146484c0.1688519,0.0146942,0.3450065,0.0293884,0.5211611,0.0220413
				c0.058733,0.0073471,0.1247683,0.0073471,0.1835022,0.0073471c0.1761541,0,0.3523083-0.0073471,0.5285082-0.0293884
				c0.0586882,0,0.1247683-0.0073471,0.1835012-0.0146484c0.1761551-0.014698,0.3523092-0.0367393,0.5211172-0.066082
				c0.058733-0.0146942,0.1248131-0.0220413,0.1835012-0.0366898c0.1835022-0.0366936,0.3596563-0.0807304,0.5285082-0.1321182
				c0.0660362-0.0146942,0.1247692-0.0293884,0.1835022-0.051384c0.1835022-0.0587349,0.3523092-0.1247711,0.5211163-0.1981964
				c0.0660801-0.0293465,0.124814-0.0513878,0.1835022-0.0807304c0.1027718-0.0513878,0.2055435-0.1027718,0.3009682-0.1615067
				c0.0807295-0.0440369,0.1541128-0.0954247,0.22754-0.1467628c0.0660353-0.0367393,0.1247692-0.0807762,0.1835022-0.132164
				c0.2128458-0.1614571,0.3889999-0.330265,0.5211163-0.5137672c0.0734272-0.0954247,0.1321602-0.1908493,0.1835012-0.286274
				C12.6056442,44.9325447,12.6716795,44.6756592,12.6716795,44.4187737z"/><path fill="#FED57A" d="M11.330225,42.5457458c1.7763367,1.0255699,1.7892485,2.6905861,0.0244799,3.7161598
				c-1.7683439,1.0276489-4.6428585,1.0256119-6.4191957,0.000042s-1.7857211-2.688549-0.0173769-3.7162018
				C6.6829004,41.5201759,9.5538874,41.5201759,11.330225,42.5457458z"/><path fill="#D89B39" d="M11.0009832,42.7382927c-1.5918064-0.921566-4.1679873-0.921566-5.7528052,0
				c-0.8517246,0.4956627-1.2426877,1.1519241-1.1728897,1.8012009c0.0488758-0.5515251,0.4468274-1.0961037,1.1728897-1.521965
				c1.5848179-0.921566,4.1609988-0.921566,5.7528052,0c0.7400389,0.4258614,1.137991,0.9774284,1.1868238,1.5359421
				C12.264636,43.9041939,11.8596964,43.2339554,11.0009832,42.7382927z"/><path fill="#EFAC41" d="M11.0009832,43.0175285c-1.5918064-0.921566-4.1679873-0.921566-5.7528052,0
				c-0.7260623,0.4258614-1.1240139,0.9704399-1.1728897,1.521965c0.0488758,0.5585556,0.4538159,1.1030922,1.1868663,1.5289536
				c1.5987945,0.921566,4.1749334,0.921566,5.7597513,0c0.7261047-0.4188728,1.1170683-0.9634514,1.1659012-1.5149765
				C12.1389742,43.994957,11.7410221,43.4433899,11.0009832,43.0175285z"/><path fill="#FFF" d="M9.8906879,43.5205154l0.43291-0.2514191l-0.3294315-0.1903839l-0.43857,0.2550583l-0.0485048-0.0222321
				c-0.3270073-0.1483459-0.6750336-0.2243385-1.0343781-0.2255516c-0.0024252,0-0.0048504,0-0.0076799,0
				c-0.4262934,0-1.3173709,0.2585907-1.2894344,0.6625023c0.0113182,0.1564331,0.1398573,0.3561134,0.3831925,0.5941925
				l0.097415,0.0949898l-0.9369621,0.5444717l-0.0565896-0.0606308c-0.1459203-0.157238-0.242527-0.3678322-0.2877984-0.6269302
				l-0.829442,0.0468864c0.0618443,0.3173065,0.2465687,0.5998497,0.5497274,0.8399506l0.1188383,0.0945854l-0.3435798,0.1992798
				l0.3294325,0.1903801l0.346005-0.2012939l0.0485053,0.0222282c0.3468132,0.1584511,0.7065616,0.2401047,1.0695434,0.2429314
				c0.3528771,0.0048523,0.6802878-0.0751801,0.9511094-0.2324219c0.2489948-0.1447067,0.3690453-0.2926483,0.3565149-0.4397812
				c-0.0145512-0.1661301-0.1483459-0.3742981-0.3985529-0.6192513l-0.0970106-0.0949898l0.910284-0.5291138l0.0561857,0.0573997
				c0.1257095,0.1281357,0.2223167,0.2886047,0.2882032,0.4773712l0.7918501-0.0828629
				c-0.1030741-0.2526321-0.2740555-0.4713097-0.5093069-0.6515884L9.8906879,43.5205154z M7.8708429,45.2323532
				c-0.103478,0.0602264-0.2202954,0.0901375-0.3492389,0.0901375c-0.0941811,0-0.1948299-0.0157623-0.3019457-0.0480995
				l-0.2283797-0.068718l0.9050298-0.5258789l0.0545683,0.0759926c0.0759921,0.1046906,0.1050954,0.1944237,0.0885224,0.2740555
				C8.0244436,45.1070442,7.9678535,45.1757622,7.8708429,45.2323532z M8.2334204,44.1021767l-0.0525475-0.0877151
				c-0.0505266-0.0844803-0.0658865-0.1661301-0.0460796-0.2433357c0.0206146-0.0800323,0.0784168-0.1483459,0.1717901-0.202507
				c0.1584501-0.0929718,0.3520679-0.1067123,0.5739803-0.0456772l0.2360592,0.0662918L8.2334204,44.1021767z"/><path fill="#D89B39" d="M12.4734831 45.1821251v1.4606667c-.0513411.0954247-.110074.1908493-.1835012.2789268V45.468399C12.363409 45.3729744 12.422142 45.2775497 12.4734831 45.1821251zM11.7688656 45.9821663v1.4607124c-.058733.0513878-.1174669.0954247-.1835022.1321182v-1.4606667C11.6513987 46.0775909 11.7101326 46.0335541 11.7688656 45.9821663zM11.0568552 46.4225998v1.4606667c-.0586882.0293427-.1174221.0587311-.1835022.0880775v-1.4680138C10.9394331 46.4739838 10.998167 46.4519424 11.0568552 46.4225998zM10.3522367 46.7015266v1.4680138c-.058733.0146484-.117466.0366898-.1835022.051384v-1.4680138C10.2347708 46.7382164 10.2935038 46.7235222 10.3522367 46.7015266zM9.6402264 46.8850288v1.4680138c-.0586882.0146484-.1247683.0219955-.1835012.0366898v-1.4680138C9.5154581 46.9070244 9.5815382 46.8996773 9.6402264 46.8850288zM8.9356079 46.9878006v1.4680138c-.058733.0073013-.1248131.0146484-.1835012.0146484V47.002449C8.8107948 47.002449 8.8768749 46.9951019 8.9356079 46.9878006zM8.2235985 47.0318375v1.4680138H8.0400963v-1.4753609C8.0988293 47.0318375 8.1648645 47.0318375 8.2235985 47.0318375zM7.5189352 47.002449v1.4680138c-.0586886 0-.1247687-.0073471-.1835017-.0146484v-1.4680138C7.3941665 46.9951019 7.4528995 47.002449 7.5189352 47.002449zM6.8069696 46.9143715v1.4680138c-.058733-.0073471-.1247687-.0219955-.1835017-.0366898v-1.4680176C6.6822009 46.8923759 6.7408891 46.9070244 6.8069696 46.9143715zM6.1023064 46.7455635v1.4680138c-.0660353-.0146942-.1247683-.0293884-.1835017-.051384v-1.4680138C5.9775381 46.7161751 6.0436182 46.7308693 6.1023064 46.7455635zM5.3903413 46.488636v1.4680138c-.0660806-.0219994-.1247687-.051342-.1835017-.0807304v-1.4680138C5.2655725 46.437294 5.3242607 46.4666367 5.3903413 46.488636zM4.685678 46.1069794v1.4680176c-.0660353-.0440407-.1247687-.0880775-.1835017-.1394653v-1.4680138C4.5609093 46.0189056 4.6196427 46.0629425 4.685678 46.1069794zM3.9810598 45.4463577v1.4753609c-.0734274-.0880775-.1394629-.1835022-.1835017-.286274v-1.4753609C3.8488991 45.2555084 3.9076324 45.3509331 3.9810598 45.4463577z"/><path fill="#F9BB4A" d="M12.6716795,42.370018l-0.0073471,1.4680138c0,0.2568855-0.0660353,0.5137711-0.1908493,0.7560043
				c-0.0513411,0.0954247-0.110074,0.1908493-0.1835012,0.2789268c-0.1321163,0.1835022-0.3082705,0.3596573-0.5211163,0.5211601
				c-0.058733,0.0513878-0.1174669,0.0954247-0.1835022,0.1321144c-0.0734272,0.0586891-0.1541576,0.1027718-0.2348871,0.1541138
				c-0.0954247,0.0513878-0.1908493,0.1027718-0.2936211,0.1541595c-0.0586882,0.0293427-0.1174221,0.0587311-0.1835022,0.0880775
				c-0.168807,0.0734253-0.3376141,0.1394615-0.5211163,0.1981964c-0.058733,0.0146484-0.117466,0.0366898-0.1835022,0.051384
				c-0.1688519,0.0513878-0.345006,0.0954247-0.5285082,0.1321182c-0.0586882,0.0146484-0.1247683,0.0219955-0.1835012,0.0366898
				c-0.1761551,0.0293427-0.3449621,0.051384-0.5211172,0.066082c-0.058733,0.0073013-0.1248131,0.0146484-0.1835012,0.0146484
				c-0.1761999,0.0220413-0.352354,0.0293884-0.5285082,0.0293884H8.0400963c-0.1761546,0-0.3523092-0.0146942-0.5211611-0.0293884
				c-0.0586886,0-0.1247687-0.0073471-0.1835017-0.0146484c-0.1761546-0.014698-0.3523092-0.0440407-0.5284638-0.0734291
				c-0.058733-0.0073471-0.1247687-0.0219955-0.1835017-0.0366936c-0.1761546-0.0366898-0.3523092-0.0807266-0.5211616-0.1321144
				c-0.0660353-0.0146942-0.1247683-0.0293884-0.1835017-0.051384c-0.1835017-0.0587349-0.3596563-0.1247711-0.5284634-0.2055435
				c-0.0660806-0.0219994-0.1247687-0.051342-0.1835017-0.0807304c-0.0954247-0.0513878-0.1835022-0.0954247-0.2715793-0.1468124
				c-0.0880775-0.051342-0.1761546-0.102726-0.2495823-0.1541138c-0.0660353-0.0440369-0.1247687-0.0880737-0.1835017-0.1394615
				c-0.2128458-0.1541557-0.3890004-0.3303108-0.5211165-0.513813c-0.0734274-0.0880775-0.1394629-0.1835022-0.1835017-0.286274
				c-0.1394632-0.2495384-0.2055435-0.5064659-0.2055435-0.7706985l0.0073473-1.4753609
				c0,0.2642326,0.0660355,0.5211601,0.1981962,0.7706985c0.0513411,0.0954247,0.1100743,0.1908493,0.1835017,0.286274
				c0.1321161,0.1835022,0.3082707,0.3596535,0.5211165,0.5211601c0.058733,0.051384,0.1174664,0.0954247,0.1835017,0.1394615
				c0.08073,0.0513878,0.1615047,0.1027718,0.2495823,0.1541138c0.0880771,0.0513878,0.1761546,0.0954247,0.2715793,0.1468124
				c0.058733,0.0293884,0.1174212,0.0587311,0.1835017,0.0807266c0.168807,0.0807762,0.3449616,0.1468124,0.5284634,0.2055435
				c0.0587335,0.0219994,0.1248136,0.0366936,0.1835017,0.0513878c0.1688523,0.051384,0.3450069,0.0954247,0.5211616,0.1321144
				c0.058733,0.0146942,0.1174212,0.0293465,0.1835017,0.0366936c0.1761546,0.0293884,0.3523092,0.0587311,0.5284638,0.0734253
				c0.058733,0.0073051,0.117466,0.0146523,0.1835017,0.0146523c0.1688519,0.0146942,0.3450065,0.0293884,0.5211611,0.0220413
				c0.058733,0.0073471,0.1247683,0.0073471,0.1835022,0.0073471c0.1761541,0,0.3523083-0.0073471,0.5285082-0.0293884
				c0.0586882,0,0.1247683-0.0073471,0.1835012-0.0146523c0.1761551-0.0146942,0.3523092-0.0367355,0.5211172-0.0660782
				c0.058733-0.0146942,0.1248131-0.0220413,0.1835012-0.0366936c0.1835022-0.0366898,0.3596563-0.0807304,0.5285082-0.1321144
				c0.0660362-0.0146942,0.1247692-0.0293884,0.1835022-0.0513878c0.1835022-0.0587311,0.3523092-0.1247673,0.5211163-0.1981926
				c0.0660801-0.0293465,0.124814-0.0513878,0.1835022-0.0807304c0.1027718-0.0513878,0.2055435-0.1027718,0.3009682-0.1615067
				c0.0807295-0.0440369,0.1541128-0.0954247,0.22754-0.1467667c0.0660353-0.0367355,0.1247692-0.0807724,0.1835022-0.1321602
				c0.2128458-0.1614609,0.3889999-0.330265,0.5211163-0.5137672c0.0734272-0.0954247,0.1321602-0.1908493,0.1835012-0.286274
				C12.6056442,42.8837852,12.6716795,42.6269035,12.6716795,42.370018z"/><path fill="#FED57A" d="M11.330225,40.4969902c1.7763367,1.0255661,1.7892485,2.6905861,0.0244799,3.7161598
				c-1.7683439,1.0276489-4.6428585,1.0256119-6.4191957,0.000042s-1.7857211-2.6885529-0.0173769-3.7162018
				C6.6829004,39.4714203,9.5538874,39.4714203,11.330225,40.4969902z"/><path fill="#D89B39" d="M11.0009832,40.689537c-1.5918064-0.921566-4.1679873-0.921566-5.7528052,0
				c-0.8517246,0.4956589-1.2426877,1.1519241-1.1728897,1.8012009c0.0488758-0.5515251,0.4468274-1.0961037,1.1728897-1.521965
				c1.5848179-0.921566,4.1609988-0.921566,5.7528052,0c0.7400389,0.4258614,1.137991,0.9774284,1.1868238,1.5359421
				C12.264636,41.8554382,11.8596964,41.1851959,11.0009832,40.689537z"/><path fill="#EFAC41" d="M11.0009832,40.9687729c-1.5918064-0.921566-4.1679873-0.921566-5.7528052,0
				c-0.7260623,0.4258614-1.1240139,0.9704399-1.1728897,1.521965c0.0488758,0.5585556,0.4538159,1.1030922,1.1868663,1.5289536
				c1.5987945,0.921566,4.1749334,0.921566,5.7597513,0c0.7261047-0.4188728,1.1170683-0.9634514,1.1659012-1.5149765
				C12.1389742,41.9462013,11.7410221,41.3946342,11.0009832,40.9687729z"/><path fill="#FED57A" d="M9.8906879,41.4717598l0.43291-0.2514191l-0.3294315-0.1903839l-0.43857,0.2550583l-0.0485048-0.0222321
				c-0.612978-0.2780762-1.3968372-0.3255005-1.9725523,0.0080833c-0.2477818,0.1443024-0.3686409,0.2886086-0.3589401,0.4288673
				c0.0205145,0.2835426,0.3925076,0.5891685,0.4806075,0.6891823l-0.9369621,0.5444717
				c-0.1158395-0.1659317-0.2586737-0.1970024-0.344388-0.6875648l-0.829442,0.0468903
				c0.1127954,0.5787201,0.5702429,0.8345108,0.6685658,0.934536l-0.3435798,0.199276l0.3294325,0.1903839l0.346005-0.2012978
				c0.7397952,0.2570305,1.3864312,0.4291306,2.0691581,0.0327415c0.2489948-0.1447067,0.3690453-0.2926483,0.3565149-0.4397812
				c-0.0263042-0.3003082-0.4073648-0.613739-0.4955635-0.714241l0.910284-0.5291138
				c0.0962524,0.1195831,0.2379208,0.2297363,0.344389,0.534771l0.7918501-0.0828629
				C10.3300667,41.7455482,9.9908276,41.5650864,9.8906879,41.4717598z M7.5216041,43.273735
				c-0.2058601,0-0.3573685-0.0704918-0.5303254-0.1168175l0.9050298-0.5258789
				c0.0591445,0.1001701,0.1741099,0.201004,0.1430907,0.3500481C8.0022383,43.1729164,7.7201371,43.273735,7.5216041,43.273735z
				 M8.2334204,42.053421c-0.0471745-0.1011124-0.1379557-0.1777496-0.0986271-0.3310509
				c0.0206146-0.0800323,0.0784168-0.1483459,0.1717901-0.2025108c0.3177834-0.1864548,0.6745892-0.0029945,0.8100395,0.0206146
				L8.2334204,42.053421z"/><path fill="#D89B39" d="M12.4734831 43.1333694v1.4606667c-.0513411.0954247-.110074.1908493-.1835012.2789268v-1.4533195C12.363409 43.3242188 12.422142 43.2287941 12.4734831 43.1333694zM11.7688656 43.9334106v1.4607124c-.058733.0513878-.1174669.0954247-.1835022.1321144v-1.4606667C11.6513987 44.0288353 11.7101326 43.9847984 11.7688656 43.9334106zM11.0568552 44.3738441v1.4606667c-.0586882.0293427-.1174221.0587311-.1835022.0880775v-1.4680138C10.9394331 44.4252281 10.998167 44.4031868 11.0568552 44.3738441zM10.3522367 44.6527672v1.4680176c-.058733.0146484-.117466.0366898-.1835022.051384V44.704155C10.2347708 44.6894608 10.2935038 44.6747665 10.3522367 44.6527672zM9.6402264 44.8362694v1.4680176c-.0586882.0146484-.1247683.0219955-.1835012.0366898V44.872963C9.5154581 44.8582687 9.5815382 44.8509216 9.6402264 44.8362694zM8.9356079 44.9390411v1.4680176c-.058733.0073013-.1248131.0146484-.1835012.0146484v-1.4680138C8.8107948 44.9536934 8.8768749 44.9463463 8.9356079 44.9390411zM8.2235985 44.9830818v1.4680138H8.0400963v-1.4753609C8.0988293 44.9830818 8.1648645 44.9830818 8.2235985 44.9830818zM7.5189352 44.9536934v1.4680138c-.0586886 0-.1247687-.0073471-.1835017-.0146484v-1.4680176C7.3941665 44.9463463 7.4528995 44.9536934 7.5189352 44.9536934zM6.8069696 44.8656158v1.4680138c-.058733-.0073471-.1247687-.0219955-.1835017-.0366936v-1.4680138C6.6822009 44.8436165 6.7408891 44.8582687 6.8069696 44.8656158zM6.1023064 44.6968079v1.4680138c-.0660353-.0146942-.1247683-.0293884-.1835017-.051384v-1.4680176C5.9775381 44.6674194 6.0436182 44.6821136 6.1023064 44.6968079zM5.3903413 44.4398766v1.4680176c-.0660806-.0219994-.1247687-.051342-.1835017-.0807304v-1.4680138C5.2655725 44.3885384 5.3242607 44.417881 5.3903413 44.4398766zM4.685678 44.0582237v1.4680138c-.0660353-.0440369-.1247687-.0880737-.1835017-.1394615v-1.4680138C4.5609093 43.9701462 4.6196427 44.0141869 4.685678 44.0582237zM3.9810598 43.3976021v1.4753609c-.0734274-.0880775-.1394629-.1835022-.1835017-.286274v-1.4753609C3.8488991 43.2067528 3.9076324 43.3021774 3.9810598 43.3976021z"/><g><path fill="#3F434F" d="M40.4882507,20.6614628l-1.018425-0.5908489l-0.007782-2.0834904
						c0-0.1321964-0.0466423-0.217701-0.1165848-0.2643452l1.010643,0.5908508
						c0.0777206,0.0388603,0.1243668,0.1321487,0.1243668,0.2642975L40.4882507,20.6614628z"/><path fill="#5B5E71" d="M40.939167,17.3185024c-0.2254333-0.1321487-0.5286407-0.1165848-0.8707085,0.0855522
						l-4.6412468,2.6743412c-0.6763535,0.3887119-1.2282944,1.3449287-1.2205124,2.1223526l0.0077324,2.0757084
						l-1.0184212-0.5908508l-0.007782-2.0757084c0-0.7774239,0.5442047-1.7336388,1.2283401-2.1223507l4.6334648-2.6743412
						c0.3420677-0.202137,0.6530113-0.217701,0.8707123-0.0855522L40.939167,17.3185024z"/><path fill="#474B59" d="M35.4290619,20.0793533c-0.677597,0.3912106-1.2263527,1.3416958-1.2241516,2.1181946
						l0.0073586,2.0821629l0.8193817-0.4730701l-0.0073586-2.0821629c-0.0007324-0.2581272,0.1827965-0.5760155,0.4074364-0.7057114
						l4.6364098-2.6768341c0.2264824-0.1307583,0.4093704-0.0244198,0.4101028,0.2337055l0.0073586,2.0821648l0.8193855-0.4730721
						l-0.0073624-2.0821629c-0.0022011-0.7764988-0.5545425-1.0912628-1.2321472-0.7000484L35.4290619,20.0793533z"/></g></svg>