<svg xmlns="http://www.w3.org/2000/svg" viewBox="0 0 53 53"><path fill="#dedffb" d="M50.468 21.972c-.415-2.194-4.63-2.817-8.094-2.953-1.923-.076-4.09-.019-6.406.15.743-2.2 1.341-4.284 1.75-6.165.735-3.387 1.188-7.624-.832-8.575-1.622-.764-4.026 1.026-6.639 4.213a2.343 2.343 0 0 0-.384 0 2.302 2.302 0 0 0-1.364.62 1.997 1.997 0 0 0-.355.416 2.367 2.367 0 0 0-.404 1.578c.02.2.071.387.136.568a67.354 67.354 0 0 0-1.457 2.227c-3.755-5.789-8.093-10.702-10.603-9.48-1.931.941-1.712 5.053-.267 10.327-5.181-1.747-9.273-2.203-10.324-.33-.406.725-.297 1.67.31 2.814l-.016.018a2.367 2.367 0 0 0-.404 1.578 2.383 2.383 0 0 0 2.6 2.133c.235-.023.456-.087.665-.173.191.19.384.381.59.577.892.842 1.92 1.72 3.046 2.615a50.474 50.474 0 0 0-3.026 1.195c-3.175 1.39-6.873 3.508-6.458 5.702.624 3.305 9.845 3.075 13.178 2.892.429-.023.883-.066 1.324-.098-.744 2.202-1.343 4.289-1.753 6.173-.735 3.387-1.188 7.624.832 8.574.26.122.534.179.82.179 1.44 0 3.182-1.427 4.78-3.18.4.213.862.315 1.344.267a2.387 2.387 0 0 0 2.115-1.995c.03-.17.036-.353.018-.533.005-.025.002-.056 0-.08a2.376 2.376 0 0 0-.574-1.32 54.81 54.81 0 0 0 1.965-2.949c1.145 1.767 2.29 3.367 3.4 4.742 1.89 2.34 4.413 4.916 6.358 4.916a1.9 1.9 0 0 0 .844-.188c.91-.444 1.375-1.596 1.402-3.407a2.387 2.387 0 0 0 1.571-1.868c.03-.17.036-.352.018-.533.005-.024.002-.055 0-.079a2.394 2.394 0 0 0-2.152-2.14 39.212 39.212 0 0 0-.21-.928c-.105-.438-.233-.902-.359-1.364 2.432.82 5.179 1.553 7.27 1.553 1.43 0 2.553-.342 3.05-1.23 1.093-1.947-1.737-5.133-4.303-7.463a50.455 50.455 0 0 0-2.485-2.096c.59-.214 1.163-.43 1.711-.649a42.42 42.42 0 0 0 1.842-.789 2.36 2.36 0 0 0 1.942.73 2.387 2.387 0 0 0 2.114-1.994c.03-.17.036-.353.018-.533a.268.268 0 0 0 0-.08 2.366 2.366 0 0 0-.08-.395c1.466-1.114 2.126-2.185 1.936-3.19zM28.52 12.781c.48.433 1.128.677 1.82.608a2.387 2.387 0 0 0 2.114-1.995c.03-.17.036-.353.017-.533a.267.267 0 0 0 0-.08 2.385 2.385 0 0 0-1.121-1.783c2.261-2.686 3.84-3.67 4.707-3.67.142 0 .266.026.37.075.807.38 1.293 2.516.238 7.372-.427 1.968-1.067 4.164-1.867 6.485-1.253.11-2.548.257-3.87.433a8.551 8.551 0 0 0-1.652-.888 92.253 92.253 0 0 0-1.084-1.893 81.554 81.554 0 0 0-1.136-1.86c.489-.789.977-1.551 1.464-2.271zm7.304 23.6c-.221-.084-.436-.163-.665-.252a77.271 77.271 0 0 1-3.904-1.674 9.07 9.07 0 0 0 2.724-3.233c.256.648.518 1.3.75 1.933.348.945.667 1.87.957 2.77.05.155.09.301.138.455zm-8.56-18.922c.173.293.343.596.515.894a8.94 8.94 0 0 0-1.822-.194c-.21 0-.417.006-.621.025-.046.003-.09.011-.136.015.408-.729.819-1.433 1.23-2.121.276.447.554.906.834 1.381zm-8.332 4.11a74.88 74.88 0 0 1-1.763-4.956 75.755 75.755 0 0 1 5.313 2.26 9.053 9.053 0 0 0-3.55 2.697zm-1.943 4.86a78.93 78.93 0 0 1-2.731-1.933 77.37 77.37 0 0 1 3.516-1.054 8.976 8.976 0 0 0-.785 2.988zm1.772 6.173-.17.018.062-.167c.036.05.071.1.108.149zm7.373 3.598c.303-.006.602-.026.897-.062-.154.264-.308.521-.462.779a81.09 81.09 0 0 1-.435-.717zm8.435-6.467a8.964 8.964 0 0 0 .37-2.532c0-.492-.047-.973-.123-1.443a79.368 79.368 0 0 1 3.924 2.744c-1.319.431-2.717.842-4.17 1.23zm-1.75-8.321a7.066 7.066 0 0 0-.719-.786c.782-.095 1.553-.18 2.31-.25-.254.7-.523 1.411-.805 2.13a8.945 8.945 0 0 0-.785-1.094zm-16.67-8.498c-1.12-4.842-.662-6.984.139-7.374a.895.895 0 0 1 .396-.085c1.582 0 5.008 3.187 9.108 9.61a88.662 88.662 0 0 0-1.9 3.291c-2.438-1.172-4.854-2.207-7.104-3.026-.24-.832-.46-1.646-.638-2.416zm-6.438 7.818c-.157-.149-.294-.29-.442-.436.438-.505.636-1.135.578-1.713a.268.268 0 0 0 0-.08 2.391 2.391 0 0 0-2.609-2.14c-.314.032-.608.13-.873.274-.314-.666-.391-1.202-.2-1.541.435-.778 2.6-1.11 7.37.287.758.222 1.558.49 2.375.776a76.26 76.26 0 0 0 2.136 6.092 77.829 77.829 0 0 0-4.817 1.455c-1.314-1.02-2.51-2.021-3.518-2.974zm5.94 12.112c-7.943.435-11.82-.74-12.06-2.017-.166-.876 1.28-2.522 5.831-4.515a50.93 50.93 0 0 1 3.605-1.403 78.825 78.825 0 0 0 3.966 2.826c.018.608.096 1.21.255 1.761.165.627.402 1.224.692 1.79-.18.48-.358.957-.525 1.427-.592.047-1.193.1-1.764.13zm8.655 7.628c-.19.28-.378.534-.568.801a2.302 2.302 0 0 0-2.521.434 1.997 1.997 0 0 0-.355.416 2.367 2.367 0 0 0-.404 1.578c.043.434.21.824.45 1.154-2.207 2.422-3.659 3.058-4.336 2.739-.807-.38-1.293-2.515-.238-7.372.428-1.968 1.068-4.166 1.868-6.488.468-.04.946-.094 1.424-.144a8.98 8.98 0 0 0 5.216 2.542c.367.621.734 1.226 1.103 1.815-.966 1.56-1.707 2.625-1.639 2.525zm12.459-.748c.068.283.128.556.187.83-.28.108-.537.262-.75.466a1.997 1.997 0 0 0-.355.416 2.366 2.366 0 0 0-.405 1.579 2.384 2.384 0 0 0 2.07 2.122c-.033 1.259-.31 2.082-.8 2.321-.802.391-2.77-.57-5.893-4.436-1.177-1.457-2.392-3.18-3.607-5.084.41-.677.82-1.372 1.226-2.087a8.902 8.902 0 0 0 1.74-.706 79.77 79.77 0 0 0 4.589 1.987c.45.175.942.36 1.45.544.204.707.39 1.395.548 2.048zm5.98-7.959c3.68 3.34 4.525 5.362 4.09 6.14-.579 1.03-3.808 1.033-9.745-1.061-.123-.414-.241-.822-.379-1.25a78.919 78.919 0 0 0-1.762-4.848 79.07 79.07 0 0 0 4.831-1.456c1.08.84 2.078 1.669 2.966 2.475zm5.267-7.555a2.371 2.371 0 0 0-2.008-.793 2.302 2.302 0 0 0-1.365.62 1.997 1.997 0 0 0-.355.417 2.367 2.367 0 0 0-.307 2.051c-.531.24-1.09.481-1.681.718-.732.293-1.518.58-2.325.861a81.44 81.44 0 0 0-5.543-3.852 8.98 8.98 0 0 0-.175-.451c.48-1.19.928-2.36 1.333-3.502 2.448-.194 4.734-.263 6.746-.184 4.966.196 6.912 1.201 7.077 2.077.102.538-.4 1.256-1.397 2.038z"/><path fill="#dedffb" d="M16.934 48.747c-.287 0-.562-.057-.821-.179-2.02-.95-1.567-5.187-.832-8.574.99-4.556 3.038-10.26 5.768-16.06 5.035-10.7 12.297-21.172 15.837-19.505 2.02.95 1.567 5.188.832 8.575-.99 4.556-3.038 10.26-5.767 16.06-2.103 4.468-4.433 8.615-6.74 11.995-1.567 2.294-5.477 7.688-8.277 7.688zM36.057 5.328c-.96 0-2.789 1.188-5.462 4.59-2.831 3.605-5.875 8.745-8.571 14.474-2.697 5.73-4.717 11.351-5.69 15.83-1.055 4.857-.569 6.992.238 7.372.853.402 2.93-.7 6.203-4.995a50.814 50.814 0 0 0 1.546-2.148c2.275-3.333 4.577-7.429 6.655-11.846 2.696-5.729 4.717-11.35 5.69-15.83 1.054-4.856.568-6.992-.239-7.372a.863.863 0 0 0-.37-.075z"/><path fill="#dedffb" d="M36.34 48.615c-1.946 0-4.469-2.576-6.359-4.916-2.93-3.627-6.089-8.799-8.897-14.562-5.179-10.63-8.785-22.852-5.268-24.566 2.917-1.42 8.305 5.443 12.376 12.341a99.302 99.302 0 0 1 3.724 6.948c1.963 4.03 3.621 8.088 4.795 11.734.44 1.367.81 2.671 1.101 3.878.374 1.551.617 2.942.722 4.134.234 2.648-.22 4.27-1.351 4.82a1.9 1.9 0 0 1-.844.19zM16.683 5.455a.895.895 0 0 0-.396.085c-.801.39-1.258 2.532-.138 7.374 1.033 4.465 3.13 10.06 5.903 15.752 2.773 5.692 5.886 10.79 8.766 14.356 3.122 3.866 5.09 4.827 5.892 4.436.66-.32.933-1.69.75-3.757-.1-1.14-.335-2.477-.696-3.977a53.134 53.134 0 0 0-1.08-3.8c-1.157-3.598-2.796-7.607-4.737-11.592a98.362 98.362 0 0 0-3.684-6.873c-4.741-8.035-8.812-12.004-10.58-12.004z"/><path fill="#dedffb" d="M2.532 31.027c-.415-2.194 3.283-4.312 6.458-5.702 4.27-1.87 10.092-3.555 16.391-4.745 6.3-1.19 12.335-1.744 16.993-1.561 3.464.136 7.68.76 8.094 2.953.23 1.216-.765 2.527-2.956 3.898l-.57-.913c1.701-1.065 2.6-2.08 2.467-2.785-.165-.876-2.111-1.881-7.077-2.077-4.579-.18-10.529.368-16.75 1.543-6.223 1.175-11.961 2.835-16.16 4.674-4.552 1.993-5.997 3.64-5.832 4.515.241 1.276 4.118 2.452 12.061 2.017l.059 1.075c-3.333.183-12.554.413-13.178-2.892z"/><path fill="#dedffb" d="m15.71 33.92-.059-1.076c3.607-.198 7.676-.71 11.767-1.484 5.547-1.047 10.831-2.517 14.878-4.137l.4 1c-4.11 1.645-9.465 3.135-15.078 4.196-4.137.781-8.254 1.3-11.908 1.5z"/><path fill="#dedffb" d="M44.724 39.661c-2.922 0-7.133-1.425-9.957-2.53l.392-1.002c7.179 2.807 11.037 2.914 11.675 1.775.436-.777-.409-2.798-4.088-6.139-3.393-3.08-8.304-6.483-13.826-9.58-5.523-3.098-10.987-5.513-15.385-6.802-4.77-1.398-6.935-1.065-7.37-.287-.316.56.09 1.654 1.113 2.999.608.799 1.426 1.686 2.433 2.637l-.74.783c-1.049-.991-1.907-1.923-2.55-2.768-1.352-1.778-1.754-3.183-1.196-4.178 1.914-3.413 13.908.892 24.221 6.676 5.592 3.136 10.572 6.589 14.024 9.723 2.566 2.33 5.396 5.516 4.304 7.463-.498.888-1.62 1.23-3.05 1.23z"/><path fill="#dedffb" d="M34.767 37.132c-3.512-1.373-7.39-3.233-11.214-5.378-5.857-3.285-11.172-7.017-14.582-10.24l.74-.782c3.348 3.164 8.585 6.84 14.369 10.082 3.782 2.122 7.613 3.96 11.08 5.315l-.393 1.003z"/><path fill="#566df9" d="M48.612 25.557a.268.268 0 0 1 0 .08c.018.18.013.363-.018.533a2.387 2.387 0 0 1-2.114 1.995 2.383 2.383 0 0 1-2.6-2.133c-.058-.58.1-1.136.404-1.578.096-.152.217-.291.355-.416a2.302 2.302 0 0 1 1.365-.62 2.391 2.391 0 0 1 2.608 2.14z"/><path fill="#678aee" d="M48.612 25.557a.268.268 0 0 1 0 .08c.018.18.013.363-.018.533a2.374 2.374 0 0 1-1.735 1.037 2.383 2.383 0 0 1-2.6-2.132c-.02-.212-.01-.42.025-.621.096-.152.217-.291.355-.416a2.302 2.302 0 0 1 1.365-.62 2.391 2.391 0 0 1 2.608 2.14z"/><path fill="#8fabfe" d="M48.612 25.557a.268.268 0 0 1 0 .08 2.358 2.358 0 0 1-1.372.62 2.383 2.383 0 0 1-2.6-2.132.323.323 0 0 1 0-.087 2.302 2.302 0 0 1 1.364-.62 2.391 2.391 0 0 1 2.608 2.14z"/><path fill="#5ec363" d="M32.471 10.782a.268.268 0 0 1 0 .079c.019.18.013.363-.017.533a2.387 2.387 0 0 1-2.115 1.995 2.383 2.383 0 0 1-2.6-2.133c-.058-.58.1-1.135.405-1.578.096-.152.217-.291.355-.416a2.302 2.302 0 0 1 1.364-.62 2.391 2.391 0 0 1 2.608 2.14z"/><path fill="#72d561" d="M32.471 10.782a.268.268 0 0 1 0 .079c.019.18.013.363-.017.533a2.374 2.374 0 0 1-1.735 1.038 2.383 2.383 0 0 1-2.6-2.133c-.021-.212-.01-.42.025-.621.096-.152.217-.291.355-.416a2.302 2.302 0 0 1 1.364-.62 2.391 2.391 0 0 1 2.608 2.14z"/><path fill="#78e75a" d="M32.471 10.782a.268.268 0 0 1 0 .079 2.358 2.358 0 0 1-1.372.621 2.383 2.383 0 0 1-2.6-2.133.323.323 0 0 1 0-.087 2.302 2.302 0 0 1 1.364-.62 2.391 2.391 0 0 1 2.608 2.14z"/><path fill="#df3260" d="M9.847 18.504c.002.023.005.055 0 .079.018.18.012.363-.018.533a2.387 2.387 0 0 1-2.115 1.995 2.383 2.383 0 0 1-2.6-2.133c-.057-.58.1-1.135.405-1.578.096-.152.217-.291.355-.416a2.302 2.302 0 0 1 1.364-.62 2.391 2.391 0 0 1 2.609 2.14z"/><path fill="#e93565" d="M9.847 18.504c.002.023.005.055 0 .079.018.18.012.363-.018.533a2.374 2.374 0 0 1-1.735 1.038 2.383 2.383 0 0 1-2.6-2.133c-.02-.212-.01-.42.025-.62.096-.153.217-.292.355-.417a2.302 2.302 0 0 1 1.364-.62 2.391 2.391 0 0 1 2.609 2.14z"/><path fill="#f45170" d="M9.847 18.504c.002.023.005.055 0 .079a2.358 2.358 0 0 1-1.373.621 2.383 2.383 0 0 1-2.6-2.133c-.002-.031-.005-.055 0-.087a2.302 2.302 0 0 1 1.364-.62 2.391 2.391 0 0 1 2.609 2.14z"/><path fill="#5ec363" d="M25.19 43.226a.268.268 0 0 1 0 .08c.018.18.012.363-.018.533a2.387 2.387 0 0 1-2.115 1.995 2.383 2.383 0 0 1-2.6-2.133c-.057-.58.1-1.135.405-1.578.096-.152.217-.291.355-.416a2.302 2.302 0 0 1 1.364-.62 2.391 2.391 0 0 1 2.609 2.14z"/><path fill="#72d561" d="M25.19 43.226a.268.268 0 0 1 0 .08c.018.18.012.363-.018.533a2.374 2.374 0 0 1-1.735 1.037c-1.55.156-2.842-1.225-2.575-2.753.096-.152.217-.291.355-.416a2.302 2.302 0 0 1 1.364-.62 2.391 2.391 0 0 1 2.609 2.14z"/><path fill="#78e75a" d="M25.19 43.226a.268.268 0 0 1 0 .08 2.358 2.358 0 0 1-1.373.62 2.383 2.383 0 0 1-2.6-2.132.323.323 0 0 1 0-.087 2.302 2.302 0 0 1 1.364-.62 2.391 2.391 0 0 1 2.609 2.14z"/><path fill="#df3260" d="M40.174 42.54c.002.024.005.055 0 .08.018.18.013.363-.018.532a2.387 2.387 0 0 1-2.114 1.996 2.383 2.383 0 0 1-2.6-2.133c-.058-.581.1-1.136.405-1.579.095-.152.216-.29.354-.416a2.302 2.302 0 0 1 1.365-.62 2.391 2.391 0 0 1 2.608 2.14z"/><path fill="#e93565" d="M40.174 42.54c.002.024.005.055 0 .08.018.18.013.363-.018.532a2.374 2.374 0 0 1-1.735 1.038 2.383 2.383 0 0 1-2.6-2.133c-.02-.212-.01-.419.026-.62.095-.153.216-.292.354-.417a2.302 2.302 0 0 1 1.365-.62 2.391 2.391 0 0 1 2.608 2.14z"/><path fill="#f45170" d="M40.174 42.54c.002.024.005.055 0 .08a2.358 2.358 0 0 1-1.372.62 2.383 2.383 0 0 1-2.6-2.132.323.323 0 0 1 0-.088 2.302 2.302 0 0 1 1.364-.62 2.391 2.391 0 0 1 2.608 2.14z"/><path fill="#dedffb" d="M42.496 28.262a.539.539 0 0 1-.2-1.039c.725-.29 1.413-.586 2.044-.88a.539.539 0 0 1 .454.976c-.648.302-1.354.606-2.098.904a.535.535 0 0 1-.2.039zM23.295 42.81a.538.538 0 0 1-.113-.753 53.79 53.79 0 0 0 1.139-1.606.538.538 0 1 1 .89.608c-.391.571-.782 1.123-1.163 1.638a.539.539 0 0 1-.753.114zM37.741 42.296a.539.539 0 0 1-.53-.446 34.69 34.69 0 0 0-.446-2.126.539.539 0 0 1 1.047-.252c.185.767.34 1.505.46 2.192a.539.539 0 0 1-.53.632zM8.97 21.515a27.22 27.22 0 0 1-1.88-1.947.539.539 0 0 1 .815-.704 26.133 26.133 0 0 0 1.806 1.868.539.539 0 1 1-.74.783z"/><path fill="#7e5af2" d="M16.95 27.201c0 .088 0 .207.027.296a7.3 7.3 0 0 0 .271 2c1.012 3.85 4.533 6.712 8.71 6.712 4.953 0 8.98-4.057 8.98-9.008 0-2.21-.805-4.237-2.118-5.789a7.566 7.566 0 0 0-1.491-1.433 8.721 8.721 0 0 0-5.993-1.795c-4.457.305-8.018 3.89-8.356 8.319a7.59 7.59 0 0 0-.03.698z"/><path fill="#986ff9" d="M16.98 26.503c.018.509.097 1.006.228 1.47.875 3.331 3.924 5.81 7.54 5.81 4.285 0 7.77-3.512 7.77-7.798a7.75 7.75 0 0 0-1.832-5.012 6.546 6.546 0 0 0-1.29-1.238 7.52 7.52 0 0 0-4.06-1.551c-4.457.305-8.018 3.89-8.356 8.319z"/><path fill="#b28afd" d="M20.643 27.388c1.234.874 3.086.374 4.133-1.111 1.05-1.485.903-3.395-.335-4.27-1.233-.87-3.082-.373-4.132 1.116-1.05 1.485-.9 3.395.334 4.265z"/><path fill="#dedffb" d="M15.68 33.92a.539.539 0 0 1-.029-1.076c3.607-.198 7.676-.71 11.767-1.484 5.547-1.047 10.831-2.517 14.878-4.137a.538.538 0 1 1 .4 1c-4.11 1.645-9.465 3.135-15.078 4.196-4.137.781-8.254 1.3-11.908 1.5l-.03.001z"/><path fill="#dedffb" d="M34.963 37.169a.54.54 0 0 1-.196-.037c-3.512-1.373-7.39-3.233-11.214-5.378-5.857-3.285-11.172-7.017-14.582-10.24a.538.538 0 1 1 .74-.782c3.348 3.164 8.585 6.84 14.369 10.082 3.782 2.122 7.613 3.96 11.08 5.315a.539.539 0 0 1-.197 1.04zM36.198 36.298a.54.54 0 0 1-.512-.373c-1.158-3.6-2.797-7.608-4.739-11.593a98.282 98.282 0 0 0-3.683-6.873.538.538 0 1 1 .928-.547 99.302 99.302 0 0 1 3.724 6.948c1.963 4.03 3.621 8.088 4.795 11.734a.539.539 0 0 1-.513.704z"/></svg>