<svg xmlns="http://www.w3.org/2000/svg" width="128" height="128"><path d="M114.86 96.32 61 124.59a14.88 14.88 0 0 1-13-.19l-26.2-15.19c-3.51-2-3.71-5.28-.46-7.45l48.42-31.4c3.6-2.39 10-2.52 13.84-.28l31.61 18.32c3.79 2.21 3.67 5.83-.35 7.92Z" opacity=".08"/><path fill="#8fd4ff" d="M105.73 87.51h-2.47V77.24l-6.75-4.85 5.64-34.11c.72-4.86 2.87-8.48 6.37-10.73L111 26a2.69 2.69 0 0 0-.07-4.58L84.47 5.51a7.16 7.16 0 0 0-7.43 0L72.91 8a13.12 13.12 0 0 0-6.33 11.41l.5 32.72H64.6l-.49-32.73a15.61 15.61 0 0 1 7.52-13.51l4.13-2.49a9.66 9.66 0 0 1 10 0l26.44 15.86a5.17 5.17 0 0 1 .14 8.78l-2.48 1.59c-2.88 1.85-4.65 4.89-5.27 9L99.2 71.28l6.53 4.72Z"/><path fill="#8fd4ff" d="M50.51 117.18a13 13 0 0 1-6.33-1.54l-14.87-8.59a5.27 5.27 0 0 1-3-4.25 5 5 0 0 1 2.53-4.21l41.32-26.8c3.48-2.31 9.36-2.44 13.11-.27l19.5 11.26c1.94 1.12 3 2.74 3 4.45s-1.25 3.39-3.33 4.48L56.5 115.83a13.21 13.21 0 0 1-5.99 1.35ZM77 72.46a10.1 10.1 0 0 0-5.42 1.4l-41.32 26.8a2.62 2.62 0 0 0-1.41 2.07 3 3 0 0 0 1.74 2.18l14.88 8.59a11.48 11.48 0 0 0 9.93.13l45.9-24.12c1.25-.65 2-1.5 2-2.33s-.62-1.61-1.74-2.26L82 73.66a10.35 10.35 0 0 0-5-1.2Z"/><path fill="#8fd4ff" d="M95.23 75.72 49.29 99.84a12.74 12.74 0 0 1-11.13-.16L18.28 88.2c-3-1.73-3.17-4.51-.39-6.36L59.2 55.05c3.07-2 8.5-2.16 11.81-.24L95.53 69c3.27 1.85 3.13 4.93-.3 6.72Z"/><path fill="#43bcff" d="M43.11 83.72a13.19 13.19 0 0 1-6.46-1.55L15.24 69.81c-1.8-1-2.81-2.44-2.86-4a4.64 4.64 0 0 1 2.4-3.92l44-28.6c3.51-2.29 9.64-2.42 13.4-.29l26.39 15.28c1.87 1.08 2.89 2.56 2.85 4.16s-1.2 3.16-3.19 4.2l-49 25.72a13.45 13.45 0 0 1-6.12 1.36Zm22.61-51a11.6 11.6 0 0 0-6.23 1.61L15.46 63a3.49 3.49 0 0 0-1.84 2.85 3.8 3.8 0 0 0 2.24 2.94l21.4 12.31a13 13 0 0 0 11.39.16l49-25.72c1.59-.82 2.51-2 2.54-3.13s-.77-2.21-2.19-3.06L71.56 34.11a12 12 0 0 0-5.84-1.37Z"/><path fill="#43bcff" d="M43.5 92.83a12.66 12.66 0 0 1-6.24-1.5L16.62 79.42a4.81 4.81 0 0 1-2.77-3.85 4.51 4.51 0 0 1 2.33-3.8l42.66-27.69c3.36-2.24 9.27-2.36 12.91-.26L97.19 58.5c1.81 1 2.79 2.48 2.76 4s-1.16 3.06-3.09 4.06L49.4 91.51a13 13 0 0 1-5.9 1.32Zm22-49.27a11.15 11.15 0 0 0-6 1.56L16.86 72.81a3.32 3.32 0 0 0-1.77 2.72 3.65 3.65 0 0 0 2.15 2.82l20.63 11.91a12.51 12.51 0 0 0 11 .16l47.41-24.91c1.52-.8 2.41-1.89 2.43-3s-.73-2.12-2.14-2.93L71.13 44.89a11.5 11.5 0 0 0-5.62-1.33Z"/><path fill="#43bcff" d="M42.19 74.53h1.24V101h-1.24zM10.24 56.563l2.456-.397 4.735 29.294-2.456.397zM96.623 72.453l4.7-29.71 2.45.387-4.7 29.71zM64.1 21.517l2.48-.04.501 31.957-2.48.039zM25.555 67.15l1.238-.075 1.582 26.473-1.238.074zM81.56 61.208l2.53-31.097 1.236.1-2.53 31.098zM59.695 93.953l1.378-27.665 1.238.061-1.377 27.666z"/><path fill="#43bcff" d="m80.665 82.166 1.35-27.126 1.24.062-1.351 27.126zM29.726 41.625l1.237-.091L33.21 71.84l-1.237.091zM46.843 31.534l1.24-.054 1.316 30.522-1.239.053z"/><path fill="#43bcff" d="M42.64 75.78a14.29 14.29 0 0 1-7-1.71L13.29 61.18c-2-1.18-3.21-2.83-3.27-4.63A5.41 5.41 0 0 1 12.79 52l45.65-29.73C62.3 19.7 68.83 19.56 73 22l27.51 15.89c2.16 1.24 3.32 3 3.28 4.86s-1.38 3.71-3.66 4.9L49.3 74.28a14.71 14.71 0 0 1-6.66 1.5ZM66 22.74a11.37 11.37 0 0 0-6.16 1.6L14.15 54a3.09 3.09 0 0 0-1.66 2.45 3.47 3.47 0 0 0 2 2.57l22.36 12.91a13.12 13.12 0 0 0 11.3.16L99 45.41c1.45-.76 2.3-1.76 2.32-2.75s-.72-1.91-2-2.67L71.76 24.11A11.84 11.84 0 0 0 66 22.74Z"/><path fill="#43bcff" d="M43.87 102.29a13 13 0 0 1-6.33-1.54L17.66 89.27a5.24 5.24 0 0 1-3-4.25 5 5 0 0 1 2.52-4.21L58.53 54c3.47-2.31 9.36-2.44 13.1-.27l24.52 14.16c1.93 1.11 3 2.74 3 4.45s-1.25 3.39-3.32 4.47l-45.97 24.13a13.19 13.19 0 0 1-5.99 1.35ZM65.3 54.68a10.06 10.06 0 0 0-5.41 1.4l-41.33 26.8A2.62 2.62 0 0 0 17.15 85a3 3 0 0 0 1.75 2.18L38.78 98.6a11.45 11.45 0 0 0 9.93.14l45.95-24.12c1.25-.65 2-1.5 2-2.33S96 70.68 94.91 70L70.4 55.88a10.42 10.42 0 0 0-5.1-1.2Z"/><path fill="#4a2730" fill-rule="evenodd" d="m100.59 88.69-7.18 12.71s-1.63-.91-2.57-1.5a3.65 3.65 0 0 1-1.43-3.28 11.43 11.43 0 0 1 5.17-8.93c1.56-.9 3-.92 3.9-.22a16.31 16.31 0 0 0 2.11 1.22Z"/><path fill="#30121b" fill-rule="evenodd" d="M102.13 92a11.43 11.43 0 0 1-5.13 9c-2.86 1.65-5.18.33-5.18-3A11.41 11.41 0 0 1 97 89.07c2.81-1.65 5.13-.33 5.13 2.93Z"/><path fill="#4a2730" fill-rule="evenodd" d="M99.41 93.6A5.4 5.4 0 0 1 97 97.83c-1.36.78-2.45.16-2.45-1.4A5.39 5.39 0 0 1 97 92.2c1.31-.78 2.41-.15 2.41 1.4zm-23.54 10.08-7.18 12.71s-1.63-.9-2.57-1.49a3.66 3.66 0 0 1-1.43-3.28 11.4 11.4 0 0 1 5.17-8.94c1.56-.9 3-.91 3.9-.21a15.11 15.11 0 0 0 2.11 1.21z"/><path fill="#30121b" fill-rule="evenodd" d="M77.41 107a11.41 11.41 0 0 1-5.18 9c-2.86 1.65-5.17.32-5.17-3a11.4 11.4 0 0 1 5.17-8.94c2.86-1.65 5.18-.32 5.18 2.94Z"/><path fill="#4a2730" fill-rule="evenodd" d="M74.68 108.6a5.42 5.42 0 0 1-2.45 4.23c-1.35.78-2.45.15-2.45-1.4a5.4 5.4 0 0 1 2.45-4.23c1.35-.79 2.45-.2 2.45 1.4Z"/><path fill="#f62121" d="M109.29 21.43a2.56 2.56 0 0 1-1.27-.35L84.11 6.73a2.47 2.47 0 1 1 2.55-4.24l23.9 14.34a2.48 2.48 0 0 1-1.27 4.6Z"/><path fill="#8fd4ff" d="M111.27 21.38a1.23 1.23 0 0 1-.63-.18l-1.59-.95a1.24 1.24 0 1 1 1.28-2.12l1.58.95a1.24 1.24 0 0 1 .43 1.7 1.25 1.25 0 0 1-1.07.6Z"/></svg>