<svg xmlns="http://www.w3.org/2000/svg" viewBox="0 0 132 132"><path fill="#fff" d="M112.5 95.4v1.1"/><path fill="#f3f1fc" d="M97.1 86.9 43.6 118v.8L19.7 105c-3.6-2.1-6.6-7.2-6.5-11.3l.1-49.5c0-1.9-.8-4.1-2-5.9l-8.6 5-.7-.4v-5.2c0-1.9.7-3.2 1.8-3.9L57.3 2.7c1.1-.6 2.6-.6 4.3.4 3.3 1.9 6 6.6 6 10.4L67.4 63c0 3.7 2.6 8.2 5.8 10.1l23.9 13.8z"/><path fill="#e9e7fc" d="M57.8 3.6c-.9.6-1.5 1.7-1.5 3.4v5.2L2.7 43.3v-5.2c0-1.7.6-2.8 1.5-3.4L57.8 3.6z"/><path fill="#dedffb" d="M8 34.2c3.3 1.9 6 6.6 6 10.4l-.1 49.5c0 3.7 2.6 8.2 5.8 10.1L43.6 118v.8L19.7 105c-3.6-2.1-6.6-7.2-6.5-11.3l.1-49.5c0-3.4-2.4-7.5-5.3-9.1-2.9-1.7-5.3-.3-5.3 3v5.2l-.7-.4v-5.2c0-3.8 2.7-5.4 6-3.5z"/><path fill="#f3f1fc" d="M97.1 86.9 43.6 118l-23.9-13.8c-3.2-1.9-5.8-6.4-5.8-10.1l.1-49.5c0-3.8-2.7-8.5-6-10.4-1.7-1-3.2-1.1-4.3-.4L57.3 2.7c1.1-.6 2.6-.5 4.3.4 3.3 1.9 6 6.6 6 10.4L67.4 63c0 3.7 2.6 8.2 5.8 10.1l23.9 13.8z"/><path fill="#fff" d="M20.3 102.7c-2.7-1.6-5-5.6-5-8.7l.1-49.5c0-4.4-3-9.6-6.8-11.8l-.1-.1L57.9 4c.2-.1.5-.2.8-.2.6 0 1.2.2 1.9.6 2.8 1.6 5.2 5.8 5.2 9l-.1 49.5c0 4.3 2.9 9.3 6.6 11.5l21.5 12.4L43.4 116l-23.1-13.3z"/><path fill="#dedffb" d="M20 31.9c.2-.1.4 0 .4.2l.1 30.6 6.1-14c.1-.1.2-.3.3-.3l8.7-5.8 5.8-14.3c0-.1.1-.2.2-.3l14.8-13c.2-.2.4-.1.4 0 .1.2-.1.5-.3.7L41.8 28.6 36 43c-.1.1-.2.3-.3.4L27 49.1 21 63l11.9-11.9.1-.1 8.6-4.9L47 34.2c.1-.1.2-.3.3-.3l11.9-5.7c.2-.1.3 0 .3.3 0 .2-.2.5-.4.6l-11.7 5.6L42 46.5c-.1.1-.2.3-.3.3l-8.7 5-10.9 11 39.4-22.7c.2-.1.4 0 .4.2s-.2.5-.4.6L20.1 64.8H20l-.2-.2-.1-32c0-.3.1-.6.3-.7z"/><path fill="#72d561" d="M26.8 46.8c1-.6 1.8-.1 1.8 1 0 1.2-.8 2.6-1.8 3.2-1 .6-1.8.1-1.8-1 0-1.2.8-2.6 1.8-3.2z"/><path fill="#497bfe" d="M33 49.5c1-.6 1.8-.1 1.8 1 0 1.2-.8 2.6-1.8 3.1-1 .6-1.8.1-1.8-1s.8-2.5 1.8-3.1z"/><path fill="#9ea9c9" d="M41.8 44.3c1-.6 1.8-.1 1.8 1 0 1.2-.8 2.6-1.8 3.1-1 .6-1.8.1-1.8-1-.1-1.1.8-2.5 1.8-3.1z"/><path fill="#f9a83d" d="M47.2 32.3c1-.6 1.8-.1 1.8 1 0 1.2-.8 2.6-1.8 3.2-1 .6-1.8.1-1.8-1 0-1.2.8-2.6 1.8-3.2z"/><path fill="#4c5c75" d="M58.9 26.6c1-.6 1.8-.1 1.8 1 0 1.2-.8 2.6-1.8 3.1-1 .6-1.8.1-1.8-1s.8-2.5 1.8-3.1z"/><path fill="#bf7d5a" d="M35.7 40.8c1-.6 1.8-.1 1.8 1 0 1.2-.8 2.6-1.8 3.2-1 .6-1.8.1-1.8-1 0-1.2.8-2.6 1.8-3.2z"/><path fill="#b28afd" d="M41.4 26.6c1-.6 1.8-.1 1.8 1 0 1.2-.8 2.6-1.8 3.2-1 .6-1.8.1-1.8-1 0-1.2.8-2.7 1.8-3.2z"/><path fill="#f45170" d="M56.4 13.2c1-.6 1.8-.1 1.8 1 0 1.2-.8 2.6-1.8 3.2-1 .6-1.8.1-1.8-1-.1-1.2.8-2.6 1.8-3.2zM58.7 46.5v20.2l-4.9 2.9-.1-20.2z"/><path fill="#78e75a" d="M51.8 55.2v15.5l-4.9 2.8V58z"/><path fill="#febc1f" d="M44.9 63v11.7L40 77.5V65.8z"/><path fill="#497bfe" d="M31.1 71v11.7l-4.9 2.8V73.8z"/><path fill="#4c5c75" d="M38 69.9v8.8l-4.9 2.8v-8.8z"/><path fill="#e3e7f0" d="m96.5 23.7 1.9 1.7-2.9 5.1-2.5-.7c-1 1.2-2 2.4-3.2 3.3l-.4 3.7-4.2 2.4-1.4-.8-.3-2.1c-.7.1-1.3.1-1.9 0l-2.4 3.5-2.9-1.7-1.4-.8 1.8-3.8c-.4-.5-.7-1-.9-1.7l-2 .8-1.4-.8V27l3-2.2c.3-1.5.7-3 1.3-4.4l-1.8-1.7 2.9-5.1 2.5.7c1-1.2 2-2.4 3.2-3.3l.4-3.7 4.2-2.4 1.4.8.3 2.1c.7-.1 1.3-.1 1.9 0L94 4.3l.2.1 4 2.3.1.1-1.8 3.9c.4.5.7 1 .9 1.6l2-.8 1.4.8v4.8l-3 2.2c-.2 1.5-.7 3-1.3 4.4z"/><path fill="#b0b8cf" d="m85.3 39.3-1.4-.8-.5-3.3 1.4.9zM97.8 13.5l-1.4-.8 3-1.2 1.4.8z"/><path fill="#9ea9c9" d="M95.4 5.1 94 4.3l.2.1 4.1 2.4z"/><path fill="#b0b8cf" d="m76.3 38.2-1.4-.8 1.8-3.9 1.4.9zM93 8.6l-1.5-.8L94 4.3l1.4.8z"/><path fill="#c9cee2" d="m78.1 34.4-1.4-.8c-.6-.8-1.1-1.7-1.3-2.9l1.4.8c.2 1.1.7 2.1 1.3 2.9zM89.8 9l-1.4-.8c1.1-.4 2.2-.4 3.2-.3l1.4.7c-1-.1-2.1 0-3.2.4zm-13 16.7-1.4-.8c.3-1.5.7-3 1.3-4.4l1.4.8c-.6 1.4-1.1 3-1.3 4.4zm4.8-10.5-1.4-.8c1-1.2 2-2.4 3.2-3.3l1.4.8c-1.2.9-2.2 2-3.2 3.3zM73.8 32.7l-1.4-.8-.1-4.8 1.5.8z"/><path fill="#b0b8cf" d="m73.8 27.9-1.5-.8 3.1-2.2 1.4.8z"/><path fill="#c9cee2" d="m85.2 8.1-1.4-.8 4.1-2.4 1.4.8z"/><path fill="#b0b8cf" d="m84.8 11.8-1.4-.8.4-3.7 1.4.8zM78.1 21.3l-1.4-.8-1.9-1.8 1.4.9zM79.1 14.5l-1.4-.8 2.5.7 1.4.8z"/><path fill="#c9cee2" d="m76.2 19.6-1.4-.9 2.9-5 1.4.8z"/><path fill="#e3e7f0" d="m96.5 23.7 1.8 1.7-2.9 5.1-2.4-.7c-1 1.2-2 2.4-3.2 3.3l-.4 3.7-4.2 2.4-.4-3.2c-1.2.4-2.2.5-3.2.3l-2.4 3.5-2.9-1.7 1.8-3.8c-.6-.8-1.1-1.7-1.3-2.9l-3 1.3v-4.8l3-2.2c.3-1.5.7-3 1.3-4.4l-1.8-1.7 2.9-5.1 2.4.7c1-1.2 2-2.4 3.2-3.3l.4-3.7 4.2-2.4.4 3.2c1.1-.4 2.2-.5 3.2-.4l2.4-3.5 3 1.7-1.8 3.9c.6.8 1.1 1.7 1.3 2.9l3-1.3v4.8l-3 2.2c-.3 1.5-.8 3-1.4 4.4z"/><path fill="#f45170" d="M87.6 13.2c4.5-2.6 8.2-.5 8.2 4.7S92.2 29.4 87.6 32c-4.5 2.6-8.2.5-8.2-4.7.1-5.2 3.7-11.5 8.2-14.1z"/><path fill="#fff" d="M94.1 18.9c0 4.1-2.9 9-6.4 11.1-3.5 2-6.4.4-6.4-3.7 0-4.1 2.9-9 6.4-11.1 3.5-2 6.4-.4 6.4 3.7z"/><path fill="#f45170" d="M92.1 20c0 2.8-2 6.3-4.5 7.7-2.5 1.4-4.5.3-4.5-2.6 0-2.8 2-6.3 4.5-7.7 2.5-1.4 4.5-.2 4.5 2.6z"/><path fill="#fff" d="M87.6 19.7c1.4-.8 2.6-.2 2.6 1.5 0 1.6-1.1 3.6-2.6 4.4-1.4.8-2.6.2-2.6-1.5.1-1.6 1.2-3.6 2.6-4.4z"/><path fill="#fff" d="M87.7 25.6c1.4-.8 2.6-2.8 2.6-4.4 0-1.6-1.2-2.3-2.6-1.5-1.4.8-2.6 2.8-2.6 4.4 0 1.6 1.1 2.3 2.6 1.5"/><path fill="#f45170" d="M87.7 23.7c.5-.3.9-1 .9-1.6 0-.6-.4-.8-.9-.5-.5.3-.9 1-.9 1.6-.1.5.4.7.9.5"/><path fill="#f45170" d="M88.7 22c0-.7-.5-.9-1.1-.6-.6.3-1.1 1.2-1.1 1.8 0 .7.5.9 1.1.6.6-.3 1.1-1.1 1.1-1.8z"/><path fill="#e3e7f0" d="m96.1 28.5.5-.3 3.1 1.8-.5.3z"/><path fill="#5094ff" d="m100.6 32.5-.5.3-3-1.8-1-2.5 3.1 1.8.5-.3z"/><path fill="#497bfe" d="m99.2 30.3.5-.3.9 2.5-.5.3z"/><path fill="#5094ff" d="m99.2 30.3.9 2.5L97 31l-.9-2.5z"/><path fill="#ffd06c" d="M100.9 29.2c-.1-.1-.3-.1-.5 0-.4.2-.7.7-.7 1.2 0 .2.1.4.2.4l-12.6-7.3c-.1-.1-.2-.2-.2-.4 0-.4.3-.9.7-1.2.2-.1.4-.1.5 0l12.6 7.3z"/><path fill="#4c5c75" d="m100.9 29.2-.9 1.6-1.5-.8c-.1-.1-.2-.2-.2-.4 0-.4.3-.9.7-1.1.2-.1.3-.1.5-.1l1.4.8zM92 24.1c-.1-.1-.3-.1-.5 0-.4.2-.7.7-.7 1.2 0 .2.1.4.2.4l-1.5-.9c-.1-.1-.2-.2-.2-.5 0-.4.3-.9.7-1.2.2-.1.3-.1.5 0l1.5 1z"/><path fill="#febc1f" d="M100.4 29.3c.4-.2.7 0 .7.4s-.3.9-.7 1.2c-.4.2-.7 0-.7-.4 0-.5.3-1 .7-1.2z"/><path fill="#5094ff" d="m100.6 27.1-.9 1.5-.5.3-3.1-1.8 1-1.5.5-.2z"/><path fill="#497bfe" d="m100.2 27.4.4-.3-.9 1.5-.5.3z"/><path fill="#57b3fe" d="m97.1 25.6.4-.2 3.1 1.7-.4.3z"/><path fill="#5094ff" d="m100.2 27.4-1 1.5-3.1-1.8 1-1.5z"/><path fill="#dba660" d="M80.4 84.2v4.4c0 1.8-1.2 3.6-3.5 4.9-1.9 1-4 1.7-6.3 1.9-3.8.4-7.9-.2-10.8-1.9-2.4-1.4-3.6-3.2-3.6-5v-4.4l24.2.1z"/><path fill="#aa6256" d="M76.8 89.1c-4.7 2.7-12.4 2.7-17.1 0-4.7-2.7-4.8-7.2 0-9.9l1.8-.9c-.2.3-.4.7-.6 1-.4.5-.6 1.1-.6 1.6 0 1.1.8 2.2 2.3 3.1 3.1 1.7 8.2 1.7 11.3 0 1.5-.9 2.3-2 2.3-3.1 0-.6-.2-1.2-.6-1.7l-.6-.9c.7.3 1.3.6 1.9.9 4.6 2.8 4.6 7.2-.1 9.9z"/><path fill="#bf7d5a" d="M76.7 80.8v3.4c0 1.2-.8 2.4-2.4 3.3-3.3 1.8-8.6 1.8-11.9 0-1.7-.9-2.5-2.1-2.5-3.3v-3.4h16.8z"/><path fill="#dba660" d="M76.7 80.7c0 1.2-.8 2.4-2.4 3.3-3.3 1.8-8.6 1.8-12 0-1.6-.9-2.5-2.1-2.5-3.3 0-.6.2-1.2.6-1.7.8-1.1 1.4-2.4 1.8-3.7 1-2.8 1.6-5.6 1.9-8.4 2.4.8 5.4.8 7.9.1.3 2.8 1 5.6 2 8.2.5 1.3 1.1 2.6 2 3.8.5.5.7 1.1.7 1.7z"/><path fill="#aa6256" d="M75.7 62.9V66c0 1.1-.7 2.2-2.2 3-2.9 1.7-7.7 1.7-10.6 0-1.5-.8-2.2-2-2.2-3.1v-3.1l15 .1z"/><path fill="#dba660" d="M73.5 59.8c2.9 1.7 2.9 4.4 0 6.1-2.9 1.7-7.7 1.7-10.6 0-2.9-1.7-2.9-4.4 0-6.1 3-1.7 7.7-1.7 10.6 0z"/><path fill="#dba660" d="M74.8 56.9v5.8c0 .7-.4 1.5-1.1 2.1l-1.3-.8v-8.6l1.3-.8c.7.8 1.1 1.5 1.1 2.3z"/><path fill="#bf7d5a" d="M73 56.9v5.8c0-.5-.2-1-.7-1.4v-5.8c.5.4.7.9.7 1.4z"/><path fill="#aa6256" d="M73.7 59v5.8l-1.3-.7v-5.8z"/><path fill="#bf7d5a" d="M74.8 56.9v5.8c0 .7-.4 1.5-1.1 2.1V59c.7-.6 1.1-1.4 1.1-2.1z"/><path fill="#dba660" d="M73.7 54.7c1.5 1.3 1.6 3 0 4.3l-1.3-.8c.9-.9.9-1.9 0-2.8l1.3-.7z"/><path fill="#bf7d5a" d="M72 60v5.8c-2.2.9-5.2.9-7.4 0V60l.4-.2-.4-.2v-5.8c2.2-.9 5.2-.9 7.4 0v5.8l-.4.2.4.2zm-7.8-1.8c0 .1 0 .1 0 0V64l-1.3.8c-.8-.6-1.2-1.4-1.2-2.2v-5.8c0-.7.4-1.5 1.1-2.1l1.3.8.1 2.7z"/><path fill="#aa6256" d="m72 53.7-.1 5.9-1.3.7.1-5.8z"/><path fill="#bf7d5a" d="M70.7 54.5v5.8c-1.5-.5-3.3-.5-4.8 0v-5.8c1.4-.5 3.3-.5 4.8 0z"/><path fill="#aa6256" d="M65.8 54.5v5.8l-1.3-.7v-5.9z"/><path fill="#dba660" d="m72 53.7-1.3.8c-1.5-.5-3.3-.5-4.8 0l-1.3-.8c2.2-.8 5.1-.8 7.4 0z"/><path fill="#bf7d5a" d="M63.5 62.7v-5.8c0-.5.2-1 .6-1.4v5.8c-.4.4-.6.9-.6 1.4z"/><path fill="#aa6256" d="M64.2 58.3v5.8l-1.3.7V59z"/><path fill="#bf7d5a" d="M61.7 62.7v-5.8c0 .8.4 1.5 1.2 2.2v5.8c-.8-.7-1.2-1.5-1.2-2.2z"/><path fill="#dba660" d="M64.2 55.5c-.9.9-.9 1.9 0 2.8l-1.3.7c-1.5-1.3-1.6-3 0-4.3l1.3.8z"/><path fill="#bf7d5a" d="M72 60v5.8c-2.2.9-5.2.9-7.4 0V60c2.2.9 5.2.9 7.4 0z"/><path fill="#dba660" d="M72 60c-2.2.9-5.2.9-7.4 0l1.3-.8c1.5.5 3.3.5 4.8 0l1.3.8z"/><path fill="#ffd06c" d="M54.5 98.1v1.8c0 1.2-.1 1.9-.8 2.9-.8 1-1.9 1.8-3.1 2.2-1.2.5-2.5.8-3.8 1-1.8.2-3.6.1-5.2-.2-2.5-.5-5.6-2-6.3-4.4-.1-.3-.1-.6-.1-.8v-2.5h19.3z"/><path fill="#f9a83d" d="M52.5 94.7c1 .8 1.6 1.6 1.8 2.5.6 2.4-1.5 4.3-3.8 5.3-1.3.6-2.8.9-4.3 1-.9.1-1.9.1-2.8 0-3.1-.3-7.4-1.7-8.2-4.7-.6-2.4 1.5-4.4 3.8-5.3 1.3-.6 2.8-.9 4.3-1 4.1-.3 7.5.8 9.2 2.2z"/><path fill="#ffd475" d="M44.9 102.8c-.5 0-.9 0-1.4-.1-.9-.1-1.8-.2-2.5-.4-.6-.1-1.2-.4-1.6-.5-.3-.1-.7-.3-1-.5-.3-.2-.6-.3-.8-.5-.8-.6-1.4-1.4-1.6-2.1-.1-.4-.1-.8 0-1.2.2-.7.7-1.5 1.5-2.1.3-.2.5-.4.9-.6.3-.2.6-.3 1-.5.5-.2 1.1-.4 1.6-.5.8-.2 1.6-.4 2.5-.4h1.4c.4 0 .8 0 1.2.1h.2c.8.1 1.5.2 2.3.4.6.2 1.2.4 1.6.5.3.1.7.3 1 .5.3.2.6.4.8.6.8.6 1.4 1.4 1.6 2.1.1.4.1.8 0 1.2-.2.7-.7 1.5-1.5 2.1-.3.2-.5.4-.8.6-.3.2-.6.4-1 .5-.5.2-1 .4-1.6.6-.7.2-1.5.3-2.3.4-.6-.2-1.1-.2-1.5-.2z"/><path fill="#f9a83d" d="M48.9 98.9c.2-.3.2-.5.1-.8-.1-.2-.3-.5-.6-.6-.4-.2-.8-.4-1.2-.4-.4 0-.8 0-1.2.1-.4.1-.7.2-1.2.4l-1.7-1c.4-.2.8-.4 1.3-.5l.2-.1c.1-.1.2-.2.2-.3 0-.1-.1-.2-.2-.3-.2-.1-.5-.1-.8-.1-.5.1-1.1.4-1.6.6l-.5-.3c-.1-.1-.2-.1-.4-.1-.1 0-.3 0-.4.1-.1.1-.2.1-.2.2s.1.2.2.2l.5.3c-.3.2-.5.5-.6.7-.1.3-.1.5 0 .8.1.2.3.5.6.6.4.2.7.3 1.2.4.4 0 .8 0 1.2-.1.3-.1.7-.2 1.2-.3l1.7 1c-.5.2-1 .4-1.5.5-.1 0-.2.1-.2.1-.1.1-.2.2-.2.3 0 .1.1.2.2.3.1.1.2.1.4.1h.4c.7-.2 1.4-.4 2-.7l.5.3c.1.1.3.1.4.1.1 0 .3 0 .4-.1.1-.1.2-.1.2-.2s-.1-.2-.2-.2l-.5-.3c-.1-.2.2-.5.3-.7zm-6.7-.9c-.2-.1-.3-.3-.3-.4 0-.2.1-.3.3-.5l1.5.9c-.3.1-.6.2-.9.2-.2-.1-.4-.1-.6-.2zm5 1-1.5-.9c.4-.1.7-.2 1-.2.3 0 .5 0 .6.1.4.2.7.5-.1 1z"/><path fill="#f3a250" d="M53.6 100.3v2.5c-.1.2-.3.3-.4.5v-2.5c.2-.1.3-.3.4-.5zm-1.7 1.5v2.5c-.1.1-.2.1-.3.2-.1 0-.1.1-.2.1v-2.5c.1 0 .1-.1.2-.1.1-.1.2-.1.3-.2zm-1.7.9v2.5c-.1.1-.3.1-.4.2v-2.5c.1-.1.2-.1.4-.2zm-1.7.5v2.5c-.1 0-.3.1-.4.1v-2.5c.1 0 .2 0 .4-.1zm-1.8.3v2.5h-.4v-2.5c.1.1.3 0 .4 0zm-1.7.1v2.5h-.4v-2.5h.4zm-1.7 0v2.5h-.4v-2.5c.1-.1.2 0 .4 0zm-1.7-.3v2.5c-.1 0-.3-.1-.4-.1v-2.5c.1 0 .2.1.4.1zm-1.8-.5v2.5c-.1-.1-.3-.1-.4-.2v-2.5c.1.1.3.2.4.2zm-1.7-.7v2.5s-.1 0-.1-.1c-.1-.1-.2-.1-.3-.2v-2.5c.1.1.2.1.3.2 0 0 .1 0 .1.1zm-1.7-1.3v2.5c-.2-.2-.3-.3-.4-.5v-2.5c.1.1.2.3.4.5z"/><path fill="#ffd06c" d="M54.4 98.1c-.2 1-1 1.9-1.8 2.5-2.4 1.8-5.2 2.1-8 2.3-4.1-.1-9.4-2-9.4-5.6v-2.5h19.3c0 .5 0 2.6-.1 3.3z"/><path fill="#f9a83d" d="M54.4 93.9c.1.5.1 1.1 0 1.6-.7 3-5 4.4-8.1 4.7-3.1.3-6.8-.4-9.2-2.2-1-.8-1.6-1.6-1.8-2.5-.1-.5-.1-1.1 0-1.6.7-3 5-4.4 8.1-4.7.9-.1 1.9-.1 2.8 0 3.2.3 7.4 1.8 8.2 4.7z"/><path fill="#ffd475" d="M44.9 99.6c-3.1 0-8-1.2-8.8-4.2-1-3.4 4.6-5.4 8.8-5.4 4.3 0 9.6 2.3 8.7 5.4-.7 2.9-5.6 4.2-8.7 4.2z"/><path fill="#f9a83d" d="M48.9 95.6c.2-.3.2-.5.1-.8-.1-.2-.3-.5-.6-.6-.4-.2-.8-.4-1.2-.4-.4 0-.8 0-1.2.1-.4.1-.7.2-1.2.4l-1.7-1c.4-.2.8-.4 1.3-.5l.2-.1c.1-.1.2-.2.2-.3 0-.1-.1-.2-.2-.3-.4-.1-.6-.1-.9 0-.5.1-1.1.4-1.6.6l-.5-.3c-.1-.1-.2-.1-.4-.1-.1 0-.3 0-.4.1-.1.1-.2.1-.2.2s.1.2.2.2l.5.3c-.3.2-.5.5-.6.7-.1.3-.1.5 0 .8.1.2.3.5.6.6.4.2.7.3 1.2.4.4 0 .8 0 1.2-.1.3-.1.7-.2 1.2-.3l1.7 1c-.5.2-1 .4-1.5.5-.1 0-.2.1-.2.1-.1.1-.2.2-.2.3 0 .1.1.2.2.3.1.1.2.1.4.1h.4c.7-.2 1.4-.4 2-.7l.5.3c.1.1.3.1.4.1.1 0 .3 0 .4-.1.1-.1.2-.1.2-.2s-.1-.2-.2-.2l-.5-.3c0-.3.3-.5.4-.8zm-6.7-.9c-.2-.1-.3-.3-.3-.4 0-.2.1-.3.3-.5l1.5.9c-.3.1-.6.2-.9.2-.2-.1-.4-.1-.6-.2zm5 1-1.5-.9c.4-.1.7-.2 1-.2.3 0 .5 0 .6.1.4.2.7.5-.1 1z"/><path fill="#fff" d="M44.9 89.2v11.2c-.5 0-1 0-1.4-.1-.9-.1-1.8-.2-2.7-.5V89.7c.8-.2 1.7-.4 2.6-.5h1.5zm3.9.5v10.2c-.8.2-1.6.4-2.4.4v-11c.8 0 1.6.2 2.4.4z" opacity=".3"/><path fill="#f3a250" d="M53.6 97v2.5c-.1.2-.3.3-.4.5v-2.5c.2-.1.3-.3.4-.5zm-1.7 1.5v2.5c-.1.1-.2.1-.3.2-.1 0-.1.1-.2.1v-2.5c.1 0 .1-.1.2-.1s.2-.1.3-.2zm-1.7.9v2.5c-.1.1-.3.1-.4.2v-2.5c.1-.1.2-.1.4-.2zm-1.7.5v2.5c-.1 0-.3.1-.4.1V100c.1 0 .2 0 .4-.1zm-1.8.3v2.5h-.4v-2.5c.1.1.3 0 .4 0zm-1.7.1v2.5h-.4v-2.5h.4zm-1.7 0v2.5h-.4v-2.5c.1-.1.2 0 .4 0zm-1.7-.3v2.5c-.1 0-.3-.1-.4-.1v-2.5c.1 0 .2.1.4.1zm-1.8-.5v2.5c-.1-.1-.3-.1-.4-.2v-2.5c.1.1.3.2.4.2zm-1.7-.7v2.5s-.1 0-.1-.1c-.1-.1-.2-.1-.3-.2v-2.5c.1.1.2.1.3.2 0 0 .1 0 .1.1zm-1.7-1.3v2.5c-.2-.2-.3-.3-.4-.5V97c.1.1.2.3.4.5z"/><path fill="#78e75a" d="M103.1 121.1c0 .7.4.9 1.1 1.1.7.2 1.3.1 2 0 .9-.2 1.8-.6 2.6-1.1 1.8-1.1 3.3-2.5 5.1-3.5.6-.4 1.4-.7 1.7-1.3.3-.5.3-1.2.1-1.7-.1-.5-.3-.9-.5-1.4 0-.1-.1-.2-.1-.2-.2-.5-.4-1.1-.8-1.5-.3-.3-.8-.5-1.2-.6-.7-.2-1.4-.3-2.1-.2-.6 0-1.2.1-1.6.6-.4.5-.4 1.2-.6 1.8-.2.5-.6.9-1 1.3-.1.1-.3.2-.4.4-.2.1-.3.3-.5.5-.2.1-.3.3-.5.5-.3.3-.5.6-.8.9-.5.6-1 1.2-1.5 1.7-.4.5-.8 1-.9 1.6-.2.2-.1.6-.1 1.1z"/><path fill="#5ec363" d="M103.1 121.1c0 .7.4.9 1.1 1.1.7.2 1.3.1 2 0 .9-.2 1.8-.6 2.6-1.1 1.8-1.1 3.3-2.5 5.1-3.5.6-.4 1.4-.7 1.7-1.3.3-.5.3-1.2.1-1.7-.1-.4-.3-.8-.5-1.2-.1.3-.2.6-.3.8-.9 2.3-2.8 3.9-4.8 5.4-.7.5-1.5 1-2.3 1.4-.8.3-1.8.4-2.7.1-.7-.2-1.2-.7-1.9-.9-.1 0-.1 0-.2-.1.1.3.1.6.1 1z"/><path fill="#f5c9c6" d="m108.4 106.5.4 5.8c0 .2.1.4.4.5 1.8.9 3.5.8 5.2-.4.2-.1.3-.4.3-.6l-.4-5.8-5.9.5z"/><path fill="#c9cee2" d="M114.6 76h-8l1.3 35.1c0 .3.1.5.4.6.6.4 1.3.7 1.9.8 1.7.4 3.4.1 5.1-1.1.2-.1.3-.4.4-.6l.4-6.6c.3-4.4.3-9.2-.4-12.5L114.6 76z"/><path fill="#e3e7f0" d="M110.7 85.4c-.2-2-.2-4-.3-6.1 0-1.1 0-2.2-.1-3.4h-3.8l1.3 35.1c0 .3.1.5.4.6.6.4 1.3.7 1.9.8 1.6-1.5 1.8-4.1 1.8-6.3.1-5.9-.1-11.6-.8-17.5-.1-1-.3-2.1-.4-3.2z"/><path fill="#78e75a" d="M114.1 128.5c0 .7.4.9 1.1 1.1.7.2 1.3.1 2 0 .9-.2 1.8-.6 2.6-1.1 1.8-1.1 3.3-2.5 5.1-3.5.6-.4 1.4-.7 1.7-1.3.3-.5.3-1.2.1-1.7-.1-.5-.3-.9-.5-1.4 0-.1-.1-.2-.1-.2-.2-.5-.4-1.1-.8-1.5-.3-.3-.8-.5-1.2-.6-.7-.2-1.4-.3-2.1-.2-.6 0-1.2.1-1.6.6-.4.5-.4 1.2-.6 1.8-.2.5-.6.9-1 1.3-.1.1-.3.2-.4.4-.2.1-.3.3-.5.5-.2.1-.3.3-.5.5-.3.3-.5.6-.8.9-.5.6-1 1.2-1.5 1.7-.4.5-.8 1-.9 1.6-.1.2-.1.6-.1 1.1z"/><path fill="#5ec363" d="M114.1 128.5c0 .7.4.9 1.1 1.1.7.2 1.3.1 2 0 .9-.2 1.8-.6 2.6-1.1 1.8-1.1 3.3-2.5 5.1-3.5.6-.4 1.4-.7 1.7-1.3.3-.5.3-1.2.1-1.7-.1-.4-.3-.8-.5-1.2-.1.3-.2.6-.3.8-.9 2.3-2.8 3.9-4.8 5.4-.7.5-1.5 1-2.3 1.4-.8.3-1.8.4-2.7.1-.7-.2-1.2-.7-1.9-.9-.1 0-.1 0-.2-.1.1.3.1.6.1 1z"/><path fill="#f5c9c6" d="m119.5 113.9.4 5.8c0 .2.1.4.4.5 1.8.9 3.5.8 5.2-.4.2-.1.3-.4.3-.6l-.4-5.8-5.9.5z"/><path fill="#e3e7f0" d="M125 92.3V76h-7.4l-2.6.9 3 24.1 1.1 17.8c2.1 1.6 4.7 1.8 6.5.4.2-.1.3-.3.5-.4.6-9.9 1-18.2-.7-23.9-.3-.8-.4-1.7-.4-2.6z"/><path fill="#c9cee2" d="M125 92.3V76h-3.9c-.2 2.7.3 5.6.3 8.3 0 2.9 0 5.7.1 8.6.1 3.3.3 7.2.7 10.4.2 1.2.4 1.4.5 2.6.2 2.3 0 4.7.3 7.1.2 2.3 1 4.7 2.6 6.3.2-.1.3-.3.5-.4.6-9.9 1-18.2-.7-23.9-.3-.9-.4-1.8-.4-2.7z"/><path fill="#f4d6d4" d="M92.6 53.9s-.4-4.1-1.4-4.2c-1-.2-.3 2-.3 2-.1-.1-2.9-4.8-5.6-1.6-2.8 3.3 5.5 6 5.5 6l1.8-2.2z"/><path fill="#f3f1fc" d="M90.2 56c.8.6 3.2-2.9 2.4-3.4l-.4-.4c.8.6-1.5 4-2.4 3.4l.4.4z"/><path fill="#1d2943" d="m108.5 41-.5 16.5s-3.5 7.7-5.7 7.5c-4.4-.4-9.2-5.3-12.2-9.2.4.2 1-.2 1.5-.9.8-.9 1.4-2.3.9-2.6l7.2 5.2c.4.3.9.1 1-.4 1.8-9.2 4.5-14.9 7-15.9.3-.1.6-.2.8-.2z"/><path fill="#455368" d="M107.9 54s-3.2 7.9-5.4 7.8c-3.7-.2-7.8-3.5-11-6.8.8-.9 1.4-2.3.9-2.6l7.2 5.2c.4.3.9.1 1-.4 1.8-9.2 4.5-14.9 7-15.9l.3 12.7z"/><path fill="#4c5c75" d="M128.5 48.8s-10-9.1-19.7-7.8c-1 .1-1.9.8-2.3 1.7-1.3 2.7-1.8 6.1-1.2 10.2l.5 22.2c0 .6.4 1.2.9 1.6 3.4 2 9.3 4.7 17.1 2.1.8-.3 1.3-1.1 1.3-1.9-.3-4.9.2-10.7 1.2-15.3l2.2-12.8z"/><path fill="#fff" d="M113.4 49.8c-.8.3-2.2 12.8-1.8 19l-1.2 1.3-.6-1.7c-.1-6.1.2-11.3 2.5-18.9-.4-.3-.7-.8-.8-1.4l2.3-1.2 1.1 2.3c-.4.3-1 .5-1.5.6z"/><path fill="#111d33" d="M111.1 44c-.2 1.4 0 2.7.4 4.1l2.3-1.2c0-.1-1.3-3-1.4-4.8l-1.3 1.9z"/><path fill="#f5c9c6" d="m120.1 42.6-.4-2.1-7.6-1.4c-.4 2.2.8 5.9 1.8 7.7l4.5.1 1.7-3v-1.3z"/><path fill="#111d33" d="M120.1 42.6s1.1 1 .7 2.7c-.2.9-.8 1.7-1.6 2.2-1.2.8-2.7 1.3-4.3 1.6l-1.1-2.3c3.3-.5 5.6-1.8 6.3-4.2z"/><path fill="#678aee" d="m92.6 56.3 10 4.3 5.7 17.8-10.1-4.3z"/><path fill="#dba660" d="M106.6 72.9c-.7 0-1.5 0-2.3.1-1 .1-2-.2-2.7-.9-1.2-1.1-2.1-2.3-2.3-3.8-.1-.7 0-1.1.2-1.2.2-.1.4-.1.5.1 1.2 1.7 2.9 2.5 4.3 2.4.6 0 .9-.3 1.1-.6l1.2 3.9z"/><path fill="#8fabfe" d="m95.5 56.8 4.2 1.7v1.4l-4.1-1.7z"/><path fill="#f4d6d4" d="m105 68.1-.4-1.4c2.9-.3 3.7 2.2 3.7 2.2l-.1 3.7c-.5-.1-1.2-.2-1.8-.2h-.3c-.6 0-1.3 0-2.1.1-.9.1-1.8-.2-2.5-.8-1.1-1-1.9-2.1-2.1-3.5-.1-.7 0-1 .2-1.1.1-.1.3-.1.5.1 1.1 1.5 2.7 2.3 3.9 2.2.6 0 .9-.3 1-.6.1-.2.1-.4.2-.6l-.2-.1z"/><path fill="#f3f1fc" d="m110.7 67.6-2.4.3c-1.2 0-1.2 5.2 0 5.2 0 0 .9.1 2.4.1v-5.6z"/><path fill="#1d2943" d="M127.1 71.1c-3 2.9-18.2 2.1-18.2 2.1-.5 0-.8-1-.9-2.1-.1-1.6.2-3.4.9-3.4l12.4-1.4c.6-.1 1-.5 1-1.1 0-4.8-.1-9.5.4-14 .1-.9.5-1.7 1.2-2.3.7-.6 1.5-.9 2.4-.9.3 0 .6 0 .9.1 1.5.4 2.7 1.7 2.8 3.4.1 5.7.2 16.6-2.9 19.6z"/><path fill="#455368" d="M125.4 68.1c-2.5 2.7-14.6 3.1-17.5 3.1-.1-1.6.2-3.4.9-3.4l12.4-1.4c.6-.1 1-.5 1-1.1 0-4.8-.1-9.5.4-14 .1-.9.5-1.7 1.2-2.3.7-.6 1.5-.9 2.4-.9.3 0 .6 0 .9.1v.2c.6 5.5 1.3 16.5-1.7 19.7z"/><path fill="#f4d6d4" d="M122.9 37.6c.1-.5.4-1.6.5-2.1.3-1.3.5-2.7.1-4-.6-1.8-2.4-2.9-4.2-3.4-2.3-.7-4.8-.9-7.2-.3-.6.1-1.2.3-1.8.5-.3.1-.7.2-.9.4-.3.4-.4 1.1-.5 1.6l-.3 1.8c-.1 1.4-.1 2.8-.1 4.2 0 2.1.6 4.7 1.1 6.8.2.7.4 1.4 1 1.7.4.2.9.3 1.3.3 6.9-.8 9.4-3.5 11-7.5z"/><path fill="#aa6256" d="M107.7 33c2.5.8 5.1 1.1 7.9.8.1 0 .2 0 .3-.1.7-.1 1.5.2 1.8.9.2.5.3 1 .2 1.7-.1 1 .1 1.7.4 2.1.2.3.7.4.9.1l.1-.1c.9-1.2 1.8-1.4 2.9-1.1.1 0 .3.1.5.2.7-1.8 1-3.5.9-5.1-.1-2.3-.9-4.3-3.1-5.7-2.2-1.4-4.4-1.7-6.7-1.2-1.5.3-2.9 1.1-4.1 2.1l-.8.8c-.8 1-1.4 2.2-1.8 3.4 0 .7.1 1.1.6 1.2z"/></svg>