<svg id="balloons" enable-background="new 0 0 300 300" height="512" viewBox="0 0 300 300" width="512" xmlns="http://www.w3.org/2000/svg"><g><path d="m233.172 111.367c-1.562 1.562-1.562 4.094 0 5.656l3.172 3.172-3.172 3.172c-1.562 1.562-1.562 4.094 0 5.656.781.781 1.805 1.172 2.828 1.172s2.047-.391 2.828-1.172l3.172-3.172 3.172 3.172c.781.781 1.805 1.172 2.828 1.172s2.047-.391 2.828-1.172c1.562-1.562 1.562-4.094 0-5.656l-3.172-3.172 3.172-3.172c1.562-1.562 1.562-4.094 0-5.656s-4.094-1.562-5.656 0l-3.172 3.172-3.172-3.172c-1.562-1.562-4.094-1.562-5.656 0z"/><circle cx="232" cy="66.195" r="4"/><path d="m200 214.195h-8v-20c0-2.209-1.791-4-4-4s-4 1.791-4 4v24c0 2.209 1.791 4 4 4h12c2.209 0 4-1.791 4-4s-1.791-4-4-4z"/><path d="m172 190.195h-8c-1.955 0-3.625 1.414-3.945 3.342l-4 24c-.363 2.18 1.109 4.24 3.287 4.604 2.203.363 4.24-1.109 4.604-3.287l.776-4.658h6.557l.776 4.658c.326 1.955 2.02 3.342 3.941 3.342.217 0 .439-.018.662-.055 2.178-.363 3.65-2.424 3.287-4.604l-4-24c-.32-1.928-1.99-3.342-3.945-3.342zm-5.945 16 1.333-8h1.223l1.333 8z"/><path d="m116 190.195c-2.209 0-4 1.791-4 4v24c0 2.209 1.791 4 4 4s4-1.791 4-4v-24c0-2.209-1.791-4-4-4z"/><path d="m212 190.195c-2.209 0-4 1.791-4 4v24c0 2.209 1.791 4 4 4s4-1.791 4-4v-24c0-2.209-1.791-4-4-4z"/><path d="m98.041 190.195h-10.041c-2.209 0-4 1.791-4 4v24c0 2.209 1.791 4 4 4h10.041c5.492 0 9.959-4.467 9.959-9.959v-12.082c0-5.492-4.467-9.959-9.959-9.959zm1.959 22.041c0 1.08-.879 1.959-1.959 1.959h-6.041v-16h6.041c1.08 0 1.959.879 1.959 1.959z"/><path d="m152.658 190.25c-2.182-.354-4.24 1.111-4.604 3.287l-2.338 14.023-2.389-3.584c-1.484-2.227-5.172-2.227-6.656 0l-2.389 3.584-2.338-14.023c-.363-2.176-2.412-3.658-4.604-3.287-2.178.363-3.65 2.424-3.287 4.604l4 24c.27 1.619 1.502 2.908 3.105 3.252 1.615.34 3.258-.328 4.168-1.691l4.672-7.008 4.672 7.008c.752 1.127 2.01 1.781 3.328 1.781.277 0 .561-.029.84-.09 1.604-.344 2.836-1.633 3.105-3.252l4-24c.366-2.18-1.107-4.241-3.285-4.604z"/><path d="m72 202.195c0-2.209-1.791-4-4-4s-4 1.791-4 4c-2.209 0-4 1.791-4 4s1.791 4 4 4c0 2.209 1.791 4 4 4s4-1.791 4-4c2.209 0 4-1.791 4-4s-1.791-4-4-4z"/><path d="m236 202.195c0-2.209-1.791-4-4-4s-4 1.791-4 4c-2.209 0-4 1.791-4 4s1.791 4 4 4c0 2.209 1.791 4 4 4s4-1.791 4-4c2.209 0 4-1.791 4-4s-1.791-4-4-4z"/><path d="m256 170.195h-97.632l10.441-21.667c1.848.676 3.785.999 5.775.999 12.883-.002 27.846-12.879 32.969-22.131 6.666-12.041 2.941-27.03-8.182-34.466 2.915-6.336 4.736-13.271 4.736-18.831 0-14.502-11.67-26.301-26.014-26.301-8.051 0-15.257 3.718-20.032 9.542-2.268-.925-4.665-1.494-7.105-1.746-4.525-8.413-13.239-13.79-22.808-13.79-12.898 0-23.585 9.309-25.643 21.953-.597.24-1.207.423-1.791.711-12.86 6.343-18.146 22.093-11.78 35.112.42.86.952 1.76 1.515 2.665-2.29 5.613-2.602 11.828-.81 17.698 3.385 11.088 17.43 28.893 31.295 28.893 1.512 0 3.025-.213 4.52-.668.304-.093.589-.237.886-.349l11.188 22.376h-93.528c-2.209 0-4 1.791-4 4v80c0 2.209 1.791 4 4 4h212c2.209 0 4-1.791 4-4v-80c0-2.209-1.791-4-4-4zm-90.145-65.451c0 10.816-8.902 29.451-18.014 29.451s-18.014-18.635-18.014-29.451c0-10.092 8.08-18.301 18.014-18.301s18.014 8.209 18.014 18.301zm-13.855 36.81c2.484-.698 4.803-1.955 6.921-3.681.852 2.285 1.956 4.258 3.299 5.901l-10.22 21.207zm-15.474-3.893c2.272 1.901 4.773 3.285 7.474 3.984v23.604l-11.06-22.12c1.342-1.531 2.542-3.355 3.586-5.468zm64.027-14.14c-5.238 9.465-22.049 21.447-30.025 17.041-3.356-1.857-4.71-6.545-5.255-9.848 5.467-8.147 8.583-18.851 8.583-25.97 0-1.357-.134-2.68-.331-3.983 5.683-4.649 13.701-5.533 20.132-1.976 8.689 4.811 11.784 15.908 6.896 24.736zm-22.459-67.722c9.934 0 18.014 8.209 18.014 18.301 0 4.419-1.57 10.245-4.01 15.537-7.121-2.007-14.831-.872-21.124 3.13-2.196-4.316-5.535-7.928-9.615-10.451-.814-2.988-1.28-5.871-1.28-8.216-.001-10.092 8.081-18.301 18.015-18.301zm-25.623 23.086c-1.505-.275-3.047-.441-4.629-.441-6.627 0-12.664 2.54-17.262 6.679-.165-1.199-.279-2.357-.279-3.398 0-10.092 8.08-18.301 18.014-18.301 1.921 0 3.817.348 5.628.952-1.191 3.012-1.865 6.287-1.865 9.723 0 1.494.149 3.111.393 4.786zm-24.323-29.08c5.359 0 10.352 2.438 13.727 6.468-6.071 1.572-11.29 5.292-14.808 10.329-4.678-3.296-10.227-4.895-15.809-4.71 2.504-7.113 9.087-12.087 16.89-12.087zm-23.896 21.84c6.328-3.116 13.792-2.145 19.219 2.274-.76 2.467-1.17 5.089-1.17 7.806 0 3.534.714 7.622 2.016 11.868-1.579 3.391-2.488 7.162-2.488 11.151 0 2.968.562 6.57 1.588 10.342-2.25.426-4.694-.086-6.523-.709-8.488-2.896-17.592-11.807-20.771-18.309-4.435-9.07-.789-20.027 8.129-24.423zm-6.961 45.962c-.758-2.484-.93-5.049-.635-7.561 4.916 5.078 11.218 9.705 17.651 11.901 2.596.887 5.094 1.328 7.438 1.328 1.519 0 2.944-.248 4.315-.619 1.27 2.944 2.798 5.82 4.58 8.419-1.221 3.441-3.58 8.238-7.522 9.44-8.692 2.68-22.669-12.56-25.827-22.908zm-49.291 60.588h204v60h-204zm0 72v-4h204v4z"/><path d="m56 126.195c6.617 0 12-5.383 12-12s-5.383-12-12-12-12 5.383-12 12 5.383 12 12 12zm0-16c2.205 0 4 1.795 4 4s-1.795 4-4 4-4-1.795-4-4 1.795-4 4-4z"/><circle cx="76" cy="142.195" r="4"/></g></svg>