<svg id="book" enable-background="new 0 0 300 300" height="512" viewBox="0 0 300 300" width="512" xmlns="http://www.w3.org/2000/svg"><g><path d="m260.277 85.68c-2.362 0-4.276 1.915-4.276 4.277s1.915 4.276 4.276 4.276 4.276-1.915 4.276-4.276-1.914-4.277-4.276-4.277z"/><path d="m47.447 146c-6.617 0-12 5.383-12 12s5.383 12 12 12 12-5.383 12-12-5.383-12-12-12zm0 16c-2.205 0-4-1.795-4-4s1.795-4 4-4 4 1.795 4 4-1.795 4-4 4z"/><path d="m235.67 46h-132.29c-8.785 0-15.934 7.148-15.934 15.934v172.066c0 11.027 8.973 20 20 20h128.224c6.494 0 11.777-5.283 11.777-11.777v-184.446c0-6.494-5.283-11.777-11.777-11.777zm3.777 11.777v156.223h-120v-160h116.223c2.082 0 3.777 1.695 3.777 3.777zm-136.067-3.777h8.066v160h-4c-4.52 0-8.647 1.564-12 4.102v-156.168c.001-4.375 3.559-7.934 7.934-7.934zm132.29 192h-128.223c-5.208 0-9.606-3.354-11.263-8h63.263c2.209 0 4-1.791 4-4s-1.791-4-4-4h-63.263c1.656-4.646 6.055-8 11.263-8h132v20.223c0 2.082-1.695 3.777-3.777 3.777z"/><path d="m179.447 178c25.365 0 46-20.635 46-46s-20.635-46-46-46-46 20.635-46 46 20.635 46 46 46zm0-84c20.953 0 38 17.047 38 38s-17.047 38-38 38-38-17.047-38-38 17.047-38 38-38z"/><path d="m153.029 153.771c3.863 5.795 9.703 9.053 15.732 9.053 1.631 0 3.279-.238 4.904-.73 6.494-1.967 10.691-7.674 10.691-14.541 0-4.81-1.615-8.35-3.954-10.871 1.838-3.559 5.709-9.129 11.954-9.129 3.645 0 6.805 2.674 7.516 6.359.941 4.889-2.764 9.516-9.912 12.373-2.051.822-3.049 3.148-2.229 5.201.627 1.562 2.129 2.516 3.717 2.516.494 0 .996-.094 1.484-.287 12.938-5.176 16.125-14.404 14.795-21.314-1.434-7.445-7.898-12.848-15.371-12.848-5.232 0-9.328 2.077-12.452 4.797-2.06-6.869-10.698-8.797-15.548-8.797-2.203 0-3.986 1.783-3.992 3.986-.008 2.205 1.775 3.998 3.979 4.014.08 0 8.014.223 8.014 4 0 3.221-2.201 3.953-4 4-.006 0-.01 0-.016 0-.016-.002-.021 0-.029 0-.002 0-.004 0-.006 0s-.004 0-.006 0c0 0 0 0-.002 0 0 0-.002 0-.004 0h-.002c-.002 0-.004 0-.004 0-.002 0-.002 0-.002 0-2.178.039-3.93 1.814-3.93 4 0 2.201 1.777 3.986 3.975 4 1.891.031 8.025.701 8.025 8 0 3.361-1.873 5.934-5.01 6.885-3.174.959-8.127.197-11.662-5.104-1.229-1.842-3.709-2.342-5.547-1.109-1.837 1.224-2.333 3.709-1.108 5.546z"/><path d="m184.181 116.664c2.623 0 5.654-.357 9.146-1.23 2.143-.535 3.445-2.707 2.91-4.852-.535-2.141-2.711-3.439-4.852-2.91-12.066 3.021-15.277-1.65-15.508-2.018-1.02-1.893-3.363-2.65-5.311-1.68-1.977.988-2.777 3.391-1.789 5.367.184.362 3.826 7.323 15.404 7.323z"/><path d="m181.447 104.529c2.501 0 4.53-2.028 4.53-4.529 0-2.502-2.028-4.53-4.53-4.53s-4.53 2.028-4.53 4.53c0 2.501 2.028 4.529 4.53 4.529z"/><path d="m167.447 74c0 2.209 1.791 4 4 4s4-1.791 4-4c2.209 0 4-1.791 4-4s-1.791-4-4-4c0-2.209-1.791-4-4-4s-4 1.791-4 4c-2.209 0-4 1.791-4 4s1.791 4 4 4z"/><path d="m187.447 74c0 2.209 1.791 4 4 4s4-1.791 4-4c2.209 0 4-1.791 4-4s-1.791-4-4-4c0-2.209-1.791-4-4-4s-4 1.791-4 4c-2.209 0-4 1.791-4 4s1.791 4 4 4z"/><path d="m175.447 190c0-2.209-1.791-4-4-4s-4 1.791-4 4c-2.209 0-4 1.791-4 4s1.791 4 4 4c0 2.209 1.791 4 4 4s4-1.791 4-4c2.209 0 4-1.791 4-4s-1.791-4-4-4z"/><path d="m195.447 190c0-2.209-1.791-4-4-4s-4 1.791-4 4c-2.209 0-4 1.791-4 4s1.791 4 4 4c0 2.209 1.791 4 4 4s4-1.791 4-4c2.209 0 4-1.791 4-4s-1.791-4-4-4z"/><path d="m215.447 230h-44c-2.209 0-4 1.791-4 4s1.791 4 4 4h44c2.209 0 4-1.791 4-4s-1.791-4-4-4z"/><path d="m70.275 107.172c-1.562-1.562-4.094-1.562-5.656 0l-3.172 3.172-3.172-3.172c-1.562-1.562-4.094-1.562-5.656 0s-1.562 4.094 0 5.656l3.172 3.172-3.172 3.172c-1.562 1.562-1.562 4.094 0 5.656.781.781 1.804 1.172 2.828 1.172s2.047-.391 2.828-1.172l3.172-3.172 3.172 3.172c.781.781 1.804 1.172 2.828 1.172s2.047-.391 2.828-1.172c1.562-1.562 1.562-4.094 0-5.656l-3.172-3.172 3.172-3.172c1.563-1.562 1.563-4.094 0-5.656z"/></g></svg>