<svg id="decor" enable-background="new 0 0 300 300" height="512" viewBox="0 0 300 300" width="512" xmlns="http://www.w3.org/2000/svg"><g><path d="m74 92.099c6.617 0 12-5.383 12-12s-5.383-12-12-12-12 5.383-12 12 5.383 12 12 12zm0-16c2.207 0 4 1.795 4 4s-1.793 4-4 4-4-1.795-4-4 1.793-4 4-4z"/><path d="m219.172 82.927c.781.781 1.805 1.172 2.828 1.172s2.047-.391 2.828-1.172l3.172-3.172 3.172 3.172c.781.781 1.805 1.172 2.828 1.172s2.047-.391 2.828-1.172c1.562-1.562 1.562-4.094 0-5.656l-3.172-3.172 3.172-3.172c1.562-1.562 1.562-4.094 0-5.656s-4.094-1.562-5.656 0l-3.172 3.172-3.172-3.172c-1.562-1.562-4.094-1.562-5.656 0s-1.562 4.094 0 5.656l3.172 3.172-3.172 3.172c-1.563 1.562-1.563 4.093 0 5.656z"/><path d="m201.937 50.786c2.362 0 4.277-1.915 4.277-4.276s-1.915-4.276-4.277-4.276-4.276 1.915-4.276 4.276 1.914 4.276 4.276 4.276z"/><path d="m97.937 58.786c2.362 0 4.277-1.915 4.277-4.276s-1.915-4.276-4.277-4.276-4.276 1.915-4.276 4.276 1.914 4.276 4.276 4.276z"/><path d="m265.008 116.099h-76.46l-26.662-57.133c-.581-6.079-5.656-10.867-11.885-10.867s-11.305 4.787-11.885 10.867l-26.662 57.133h-76.46c-4.957 0-8.992 4.035-8.992 8.994v30.012c0 4.959 4.035 8.994 8.992 8.994h7.006v20c0 2.209 1.789 4 4 4h4v25.469c-1.398.882-2.506 2.187-3.062 3.862l-2.227 6.67h-7.266c-3.266 0-6.117 2.068-7.098 5.146-.98 3.084.105 6.295 2.766 8.178l5.789 4.098-2.195 6.586c-1.02 3.045 0 6.256 2.59 8.18 1.332.986 2.898 1.48 4.473 1.48 1.512 0 3.027-.459 4.328-1.381l5.902-4.177 5.898 4.176c2.664 1.881 6.195 1.834 8.805-.1 2.59-1.924 3.609-5.135 2.59-8.178l-2.195-6.588 5.789-4.098c2.66-1.883 3.746-5.094 2.766-8.178-.98-3.078-3.832-5.146-7.098-5.146h-7.266l-2.227-6.67c-.557-1.675-1.665-2.98-3.062-3.862v-25.469h4c2.211 0 4-1.791 4-4v-20h24v20c0 2.209 1.789 4 4 4h4v5.469c-1.398.882-2.506 2.187-3.062 3.862l-2.227 6.67h-7.266c-3.266 0-6.117 2.068-7.098 5.146-.98 3.084.105 6.295 2.766 8.178l5.789 4.098-2.195 6.586c-1.02 3.045 0 6.256 2.59 8.18 1.332.986 2.898 1.48 4.473 1.48 1.512 0 3.027-.459 4.328-1.381l5.902-4.175 5.898 4.176c2.664 1.883 6.195 1.836 8.805-.1 2.59-1.924 3.609-5.135 2.59-8.178l-2.195-6.588 5.789-4.098c2.66-1.883 3.746-5.094 2.766-8.178-.98-3.078-3.832-5.146-7.098-5.146h-7.266l-2.227-6.67c-.557-1.675-1.665-2.98-3.062-3.862v-5.469h4c2.211 0 4-1.791 4-4v-20h24v20c0 2.209 1.789 4 4 4h4v25.469c-1.398.882-2.506 2.187-3.062 3.862l-2.227 6.67h-7.266c-3.266 0-6.117 2.068-7.098 5.146-.98 3.084.105 6.295 2.766 8.178l5.789 4.098-2.195 6.586c-1.02 3.045 0 6.256 2.59 8.18 1.332.986 2.898 1.48 4.473 1.48 1.512 0 3.027-.459 4.328-1.381l5.902-4.175 5.898 4.176c2.664 1.881 6.195 1.834 8.805-.1 2.59-1.924 3.609-5.135 2.59-8.178l-2.195-6.588 5.789-4.098c2.66-1.883 3.746-5.094 2.766-8.178-.98-3.078-3.832-5.146-7.098-5.146h-7.266l-2.227-6.67c-.557-1.675-1.665-2.98-3.062-3.862v-25.469h4c2.211 0 4-1.791 4-4v-20h24v20c0 2.209 1.789 4 4 4h4v5.469c-1.398.882-2.506 2.187-3.062 3.862l-2.227 6.67h-7.266c-3.266 0-6.117 2.068-7.098 5.146-.98 3.084.105 6.295 2.766 8.178l5.789 4.098-2.195 6.586c-1.02 3.045 0 6.256 2.59 8.18 1.332.986 2.898 1.48 4.473 1.48 1.512 0 3.027-.459 4.328-1.381l5.902-4.175 5.898 4.176c2.664 1.883 6.195 1.836 8.805-.1 2.59-1.924 3.609-5.135 2.59-8.178l-2.195-6.588 5.789-4.098c2.66-1.883 3.746-5.094 2.766-8.178-.98-3.078-3.832-5.146-7.098-5.146h-7.266l-2.227-6.67c-.557-1.675-1.665-2.98-3.062-3.862v-5.469h4c2.211 0 4-1.791 4-4v-20h24v20c0 2.209 1.789 4 4 4h4v25.469c-1.398.882-2.506 2.187-3.062 3.862l-2.227 6.67h-7.266c-3.266 0-6.117 2.068-7.098 5.146-.98 3.084.105 6.295 2.766 8.178l5.789 4.098-2.195 6.586c-1.02 3.045 0 6.256 2.59 8.18 1.332.986 2.898 1.48 4.473 1.48 1.512 0 3.027-.459 4.328-1.381l5.902-4.175 5.898 4.176c2.664 1.881 6.191 1.834 8.805-.1 2.59-1.924 3.609-5.135 2.59-8.178l-2.195-6.588 5.789-4.098c2.66-1.883 3.746-5.094 2.766-8.178-.98-3.078-3.832-5.146-7.098-5.146h-7.266l-2.227-6.67c-.557-1.675-1.665-2.98-3.062-3.862v-25.469h4c2.211 0 4-1.791 4-4v-20h7.008c4.957 0 8.992-4.035 8.992-8.994v-30.012c0-4.957-4.035-8.992-8.992-8.992zm-202.102 116h5.656l-4.488 3.18c-2.656 1.883-3.754 5.209-2.73 8.273l1.766 5.305-4.777-3.379c-1.293-.92-2.812-1.381-4.332-1.381s-3.035.459-4.328 1.377l-4.781 3.383 1.766-5.305c1.023-3.064-.074-6.391-2.73-8.275l-4.488-3.178h5.656c3.219 0 6.059-2.027 7.066-5.049l1.84-5.516 1.84 5.518c1.006 3.02 3.846 5.047 7.064 5.047zm48-20h5.656l-4.488 3.18c-2.656 1.883-3.754 5.209-2.73 8.273l1.766 5.305-4.777-3.379c-1.293-.92-2.812-1.381-4.332-1.381s-3.035.459-4.328 1.377l-4.781 3.383 1.766-5.305c1.023-3.064-.074-6.391-2.73-8.275l-4.488-3.178h5.656c3.219 0 6.059-2.027 7.066-5.049l1.84-5.516 1.84 5.518c1.006 3.02 3.846 5.047 7.064 5.047zm48 20h5.656l-4.488 3.18c-2.656 1.883-3.754 5.209-2.73 8.273l1.766 5.305-4.777-3.379c-1.293-.92-2.812-1.381-4.332-1.381s-3.035.459-4.328 1.377l-4.781 3.383 1.766-5.305c1.023-3.064-.074-6.391-2.73-8.275l-4.488-3.178h5.656c3.219 0 6.059-2.027 7.066-5.049l1.84-5.516 1.84 5.518c1.006 3.02 3.846 5.047 7.064 5.047zm48-20h5.656l-4.488 3.18c-2.656 1.883-3.754 5.209-2.73 8.273l1.766 5.305-4.777-3.379c-1.293-.92-2.812-1.381-4.332-1.381s-3.035.459-4.328 1.377l-4.781 3.383 1.766-5.305c1.023-3.064-.074-6.391-2.73-8.275l-4.488-3.178h5.656c3.219 0 6.059-2.027 7.066-5.049l1.84-5.516 1.84 5.518c1.006 3.02 3.846 5.047 7.064 5.047zm48 20h5.656l-4.488 3.18c-2.656 1.883-3.754 5.209-2.73 8.273l1.766 5.305-4.777-3.379c-1.293-.92-2.812-1.381-4.332-1.381s-3.035.459-4.328 1.377l-4.781 3.383 1.766-5.305c1.023-3.064-.074-6.391-2.73-8.275l-4.488-3.178h5.656c3.219 0 6.059-2.027 7.066-5.049l1.84-5.516 1.84 5.518c1.006 3.02 3.846 5.047 7.064 5.047zm-104.906-176c2.207 0 4 1.795 4 4s-1.793 4-4 4-4-1.795-4-4 1.793-4 4-4zm-7.804 13.04c2.104 1.819 4.811 2.96 7.804 2.96s5.7-1.141 7.804-2.96l21.915 46.96h-59.438zm-84.196 110.96h-8v-16h8zm48 0h-8v-16h8zm48 0h-8v-16h8zm48 0h-8v-16h8zm48 0h-8v-16h8zm16-24.994c0 .549-.445.994-.992.994h-230.016c-.547 0-.992-.445-.992-.994v-30.012c0-.549.445-.994.992-.994h230.016c.547 0 .992.445.992.994z"/><path d="m62.828 133.271c-1.562-1.562-4.094-1.562-5.656 0l-2.172 2.172-2.172-2.172c-1.562-1.562-4.094-1.562-5.656 0s-1.562 4.094 0 5.656l2.172 2.172-2.172 2.172c-1.562 1.562-1.562 4.094 0 5.656.781.781 1.805 1.172 2.828 1.172s2.047-.391 2.828-1.172l2.172-2.172 2.172 2.172c.781.781 1.805 1.172 2.828 1.172s2.047-.391 2.828-1.172c1.562-1.562 1.562-4.094 0-5.656l-2.172-2.172 2.172-2.172c1.563-1.563 1.563-4.094 0-5.656z"/><path d="m86.828 133.271c-1.562-1.562-4.094-1.562-5.656 0l-2.172 2.172-2.172-2.172c-1.562-1.562-4.094-1.562-5.656 0s-1.562 4.094 0 5.656l2.172 2.172-2.172 2.172c-1.562 1.562-1.562 4.094 0 5.656.781.781 1.805 1.172 2.828 1.172s2.047-.391 2.828-1.172l2.172-2.172 2.172 2.172c.781.781 1.805 1.172 2.828 1.172s2.047-.391 2.828-1.172c1.562-1.562 1.562-4.094 0-5.656l-2.172-2.172 2.172-2.172c1.563-1.563 1.563-4.094 0-5.656z"/><path d="m110.828 133.271c-1.562-1.562-4.094-1.562-5.656 0l-2.172 2.172-2.172-2.172c-1.562-1.562-4.094-1.562-5.656 0s-1.562 4.094 0 5.656l2.172 2.172-2.172 2.172c-1.562 1.562-1.562 4.094 0 5.656.781.781 1.805 1.172 2.828 1.172s2.047-.391 2.828-1.172l2.172-2.172 2.172 2.172c.781.781 1.805 1.172 2.828 1.172s2.047-.391 2.828-1.172c1.562-1.562 1.562-4.094 0-5.656l-2.172-2.172 2.172-2.172c1.563-1.563 1.563-4.094 0-5.656z"/><path d="m134.828 133.271c-1.562-1.562-4.094-1.562-5.656 0l-2.172 2.172-2.172-2.172c-1.562-1.562-4.094-1.562-5.656 0s-1.562 4.094 0 5.656l2.172 2.172-2.172 2.172c-1.562 1.562-1.562 4.094 0 5.656.781.781 1.805 1.172 2.828 1.172s2.047-.391 2.828-1.172l2.172-2.172 2.172 2.172c.781.781 1.805 1.172 2.828 1.172s2.047-.391 2.828-1.172c1.562-1.562 1.562-4.094 0-5.656l-2.172-2.172 2.172-2.172c1.563-1.563 1.563-4.094 0-5.656z"/><path d="m158.828 133.271c-1.562-1.562-4.094-1.562-5.656 0l-2.172 2.172-2.172-2.172c-1.562-1.562-4.094-1.562-5.656 0s-1.562 4.094 0 5.656l2.172 2.172-2.172 2.172c-1.562 1.562-1.562 4.094 0 5.656.781.781 1.805 1.172 2.828 1.172s2.047-.391 2.828-1.172l2.172-2.172 2.172 2.172c.781.781 1.805 1.172 2.828 1.172s2.047-.391 2.828-1.172c1.562-1.562 1.562-4.094 0-5.656l-2.172-2.172 2.172-2.172c1.563-1.563 1.563-4.094 0-5.656z"/><path d="m182.828 133.271c-1.562-1.562-4.094-1.562-5.656 0l-2.172 2.172-2.172-2.172c-1.562-1.562-4.094-1.562-5.656 0s-1.562 4.094 0 5.656l2.172 2.172-2.172 2.172c-1.562 1.562-1.562 4.094 0 5.656.781.781 1.805 1.172 2.828 1.172s2.047-.391 2.828-1.172l2.172-2.172 2.172 2.172c.781.781 1.805 1.172 2.828 1.172s2.047-.391 2.828-1.172c1.562-1.562 1.562-4.094 0-5.656l-2.172-2.172 2.172-2.172c1.563-1.563 1.563-4.094 0-5.656z"/><path d="m206.828 133.271c-1.562-1.562-4.094-1.562-5.656 0l-2.172 2.172-2.172-2.172c-1.562-1.562-4.094-1.562-5.656 0s-1.562 4.094 0 5.656l2.172 2.172-2.172 2.172c-1.562 1.562-1.562 4.094 0 5.656.781.781 1.805 1.172 2.828 1.172s2.047-.391 2.828-1.172l2.172-2.172 2.172 2.172c.781.781 1.805 1.172 2.828 1.172s2.047-.391 2.828-1.172c1.562-1.562 1.562-4.094 0-5.656l-2.172-2.172 2.172-2.172c1.563-1.563 1.563-4.094 0-5.656z"/><path d="m230.828 133.271c-1.562-1.562-4.094-1.562-5.656 0l-2.172 2.172-2.172-2.172c-1.562-1.562-4.094-1.562-5.656 0s-1.562 4.094 0 5.656l2.172 2.172-2.172 2.172c-1.562 1.562-1.562 4.094 0 5.656.781.781 1.805 1.172 2.828 1.172s2.047-.391 2.828-1.172l2.172-2.172 2.172 2.172c.781.781 1.805 1.172 2.828 1.172s2.047-.391 2.828-1.172c1.562-1.562 1.562-4.094 0-5.656l-2.172-2.172 2.172-2.172c1.563-1.563 1.563-4.094 0-5.656z"/><path d="m254.828 133.271c-1.562-1.562-4.094-1.562-5.656 0l-2.172 2.172-2.172-2.172c-1.562-1.562-4.094-1.562-5.656 0s-1.562 4.094 0 5.656l2.172 2.172-2.172 2.172c-1.562 1.562-1.562 4.094 0 5.656.781.781 1.805 1.172 2.828 1.172s2.047-.391 2.828-1.172l2.172-2.172 2.172 2.172c.781.781 1.805 1.172 2.828 1.172s2.047-.391 2.828-1.172c1.562-1.562 1.562-4.094 0-5.656l-2.172-2.172 2.172-2.172c1.563-1.563 1.563-4.094 0-5.656z"/></g></svg>