<svg id="diwali" enable-background="new 0 0 300 300" height="512" viewBox="0 0 300 300" width="512" xmlns="http://www.w3.org/2000/svg"><g><circle cx="240.147" cy="104" r="4"/><circle cx="160.147" cy="248" r="4"/><path d="m230.975 53.172c-1.562-1.562-4.094-1.562-5.656 0l-3.172 3.172-3.172-3.172c-1.562-1.562-4.094-1.562-5.656 0s-1.562 4.094 0 5.656l3.172 3.172-3.172 3.172c-1.562 1.562-1.562 4.094 0 5.656.781.781 1.804 1.172 2.828 1.172s2.047-.391 2.828-1.172l3.172-3.172 3.172 3.172c.781.781 1.804 1.172 2.828 1.172s2.047-.391 2.828-1.172c1.562-1.562 1.562-4.094 0-5.656l-3.172-3.172 3.172-3.172c1.562-1.562 1.562-4.094 0-5.656z"/><path d="m72.147 88c6.617 0 12-5.383 12-12s-5.383-12-12-12-12 5.383-12 12 5.383 12 12 12zm0-16c2.207 0 4 1.795 4 4s-1.793 4-4 4-4-1.795-4-4 1.793-4 4-4z"/><path d="m181.85 125.592c-.164-.002-.328-.002-.492-.002-34.496 0-51.125 32.051-56.254 44.402l-4.242-2.584c5.477-6.006 9.398-15.311 10.234-24.924 1.023-11.697-2.594-22.131-10.188-29.377-20.809-19.871-59.176 2.486-60.801 3.451-1.781 1.057-2.465 3.301-1.566 5.17l10.316 21.527c.484 1.016 1.375 1.779 2.453 2.102 1.086.328 2.246.182 3.211-.4 12.254-7.35 22.117-10.291 26.414-7.861 2.129 1.207 3.211 4.203 3.211 8.904 0 4.895-1.277 8.18-3.906 10.039-5.281 3.729-15.332 1.4-18.754.191-1.223-.43-2.586-.244-3.645.506-1.062.748-1.695 1.965-1.695 3.264v14c0 1.99 1.465 3.678 3.434 3.959 7.211 1.031 27.195 6.242 32.988 17.83 2.406 4.811 1.609 9.932-2.184 14.055-4.641 5.049-14.367 8.6-24.754 4.441-17.344-6.936-19.016-23.412-19.074-24.092-.148-1.82-1.512-3.311-3.309-3.619-1.844-.316-3.582.639-4.328 2.303-.117.264-11.527 26.494 10.43 47.982 10.492 10.27 22.16 14.391 33.066 14.389 10.805 0 20.859-4.045 28.277-10.162 18.086-14.92 13.793-40.508 12.312-47.115 5.941-11.535 21.941-37.17 35.648-35.986 7.598.656 13.25 4.701 15.91 11.391 3.691 9.266.949 21.367-6.824 30.111-12.82 14.428-32.352-.049-33.176-.674-1.523-1.148-3.633-1.064-5.059.188-1.426 1.254-1.773 3.336-.832 4.984 15.797 27.641 32.469 30.852 43.699 28.672 19.406-3.773 35.18-26.449 37.738-45.26 1.305-9.627.34-31.805-12.668-46.834-8.485-9.801-20.457-14.838-35.59-14.971zm40.332 60.726c-2.133 15.705-15.988 35.5-31.336 38.484-9.184 1.787-18.309-2.477-26.742-12.441 9.484 2.75 20.812 2.34 29.613-7.559 9.738-10.953 13.062-26.379 8.281-38.389-3.785-9.506-12.043-15.482-22.656-16.398-22.086-1.947-41.957 37.232-44.156 41.699-.434.877-.527 1.889-.27 2.832.07.266 7.105 26.822-9.316 40.367-12.629 10.426-33.195 13.312-50.656-3.773-8.797-8.607-11.145-17.967-11.211-25.361 3.48 5.854 9.281 12.074 18.93 15.936 13.98 5.588 26.949.787 33.609-6.455 6.078-6.604 7.367-15.219 3.453-23.049-7.141-14.277-27.41-19.842-35.578-21.545v-5.441c5.578 1.15 14.285 1.875 20.691-2.639 4.848-3.418 7.309-8.998 7.309-16.586 0-7.797-2.445-13.135-7.27-15.865-6.645-3.764-16.949-1.814-30.672 5.771l-6.801-14.189c8.98-4.553 34.52-15.674 47.98-2.824 7.824 7.469 8.211 17.551 7.742 22.896-.828 9.484-5.539 19.107-11.199 22.883-1.137.758-1.809 2.043-1.781 3.41.027 1.365.754 2.623 1.918 3.334l12.996 7.918c1.055.641 2.328.754 3.477.332 1.148-.428 2.039-1.359 2.414-2.523.141-.438 14.457-43.553 50.43-43.553.133 0 .27 0 .398.002 12.734.111 22.699 4.219 29.613 12.207 11.556 13.346 11.708 33.775 10.79 40.519z"/><path d="m150.748 119.902c1.266.121 2.52.18 3.762.18 24.43 0 43.832-22.486 44.684-23.492 1.352-1.588 1.254-3.945-.219-5.418l-16-16c-.773-.777-1.848-1.209-2.934-1.17-1.098.027-2.133.506-2.867 1.322-10.918 12.131-22.309 18.359-33.852 18.512-.145.002-.289.004-.43.004-15.648 0-26.582-11.328-26.691-11.443-1.387-1.473-3.652-1.67-5.277-.479-1.629 1.197-2.109 3.422-1.117 5.186 11.387 20.244 25.16 31.279 40.941 32.798zm-7.429-18.066c12.84-.135 25.246-6.217 36.918-18.09l10.332 10.332c-5.973 5.932-21.773 19.555-39.086 17.857-8.348-.812-16.145-5.088-23.312-12.754 4.405 1.612 9.433 2.717 15.148 2.655z"/><path d="m143.319 86.828c.781.781 1.804 1.172 2.828 1.172s2.047-.391 2.828-1.172l16-16c1.562-1.562 1.562-4.094 0-5.656l-16-16c-1.562-1.562-4.094-1.562-5.656 0l-16 16c-1.562 1.562-1.562 4.094 0 5.656zm2.828-29.172 10.344 10.344-10.344 10.344-10.344-10.344z"/></g></svg>