<svg id="diwali-day" enable-background="new 0 0 300 300" height="512" viewBox="0 0 300 300" width="512" xmlns="http://www.w3.org/2000/svg"><g><path d="m227.613 64h-31.613v-8c0-2.209-1.791-4-4-4s-4 1.791-4 4v8h-48v-8c0-2.209-1.791-4-4-4s-4 1.791-4 4v8h-31.613c-20.065 0-36.387 16.322-36.387 36.387v123.227c0 .353.043.696.053 1.046-2.602 1.527-5.497 2.615-8.621 3.063-1.969.281-3.432 2.287-3.432 4.277 0 2.209 1.791 4 4 4h10.217c5.083 13.974 18.459 24 34.169 24h127.227c20.065 0 36.387-16.322 36.387-36.387v-123.226c0-20.065-16.322-36.387-36.387-36.387zm28.387 159.613c0 15.653-12.734 28.387-28.387 28.387h-127.226c-11.208 0-20.89-6.545-25.502-16h152.047c13.822 0 25.068-11.246 25.068-25.068v-90.932c0-2.209-1.791-4-4-4h-168c-2.209 0-4 1.791-4 4v84c0 4.791-1.5 9.273-4 13.071v-116.684c0-15.653 12.734-28.387 28.387-28.387h31.613v13.11c-2.381 1.386-4 3.937-4 6.89 0 4.418 3.582 8 8 8s8-3.582 8-8c0-2.954-1.619-5.505-4-6.89v-13.11h48v13.11c-2.381 1.386-4 3.937-4 6.89 0 4.418 3.582 8 8 8s8-3.582 8-8c0-2.954-1.619-5.505-4-6.89v-13.11h31.613c15.653 0 28.387 12.734 28.387 28.387zm-182.924 4.387c6.719-5.916 10.924-14.566 10.924-24v-80h160v86.932c0 9.412-7.656 17.068-17.068 17.068z"/><circle cx="40" cy="80" r="4"/><path d="m61.172 58.828c.781.781 1.805 1.172 2.828 1.172s2.047-.391 2.828-1.172l3.172-3.172 3.172 3.172c.781.781 1.805 1.172 2.828 1.172s2.047-.391 2.828-1.172c1.562-1.562 1.562-4.094 0-5.656l-3.172-3.172 3.172-3.172c1.562-1.562 1.562-4.094 0-5.656s-4.094-1.562-5.656 0l-3.172 3.172-3.172-3.172c-1.562-1.562-4.094-1.562-5.656 0s-1.562 4.094 0 5.656l3.172 3.172-3.172 3.172c-1.563 1.562-1.563 4.094 0 5.656z"/><path d="m196 144c0-2.209-1.791-4-4-4h-32c-2.209 0-4 1.791-4 4v28h-24v-28c0-2.209-1.791-4-4-4s-4 1.791-4 4v32c0 2.209 1.791 4 4 4h28v24h-28c-2.209 0-4 1.791-4 4s1.791 4 4 4h32c2.209 0 4-1.791 4-4v-28h24v28c0 2.209 1.791 4 4 4s4-1.791 4-4v-32c0-2.209-1.791-4-4-4h-28v-24h28c2.209 0 4-1.791 4-4z"/><circle cx="176" cy="160" r="4"/><circle cx="144" cy="160" r="4"/><circle cx="176" cy="192" r="4"/><circle cx="144" cy="192" r="4"/></g></svg>