<svg id="fire-rockets" enable-background="new 0 0 300 300" height="512" viewBox="0 0 300 300" width="512" xmlns="http://www.w3.org/2000/svg"><g><circle cx="142" cy="218.778" r="4"/><circle cx="38" cy="106.778" r="4"/><path d="m261.656 120.778 3.172-3.172c1.562-1.562 1.562-4.094 0-5.656s-4.094-1.562-5.656 0l-3.172 3.172-3.172-3.172c-1.562-1.562-4.094-1.562-5.656 0s-1.562 4.094 0 5.656l3.172 3.172-3.172 3.172c-1.562 1.562-1.562 4.094 0 5.656.781.781 1.805 1.172 2.828 1.172s2.047-.391 2.828-1.172l3.172-3.172 3.172 3.172c.781.781 1.805 1.172 2.828 1.172s2.047-.391 2.828-1.172c1.562-1.562 1.562-4.094 0-5.656z"/><path d="m118 230.778c-6.617 0-12 5.383-12 12s5.383 12 12 12 12-5.383 12-12-5.383-12-12-12zm0 16c-2.205 0-4-1.795-4-4s1.795-4 4-4 4 1.795 4 4-1.795 4-4 4z"/><path d="m199.17 40.114c-4.02-3.855-10.32-3.855-14.34 0v.002l-34.209 32.842c-3.064 2.941-4.021 7.391-2.436 11.332s5.357 6.488 9.605 6.488h.21v109.4c0 5.844 4.756 10.6 10.6 10.6h8.209c-4.553 16.732-15.273 19.978-15.828 20.133-2.119.557-3.398 2.721-2.857 4.85.459 1.812 2.088 3.018 3.875 3.018.324 0 .656-.039.984-.123.628-.159 13.243-3.627 19.867-20.684l3.163 41.113c.16 2.084 1.898 3.693 3.988 3.693h4c2.09 0 3.828-1.609 3.988-3.693l3.716-48.307h13.695c5.844 0 10.6-4.756 10.6-10.6v-109.4h.209c4.248 0 8.02-2.547 9.605-6.488s.629-8.391-2.436-11.332zm-33.17 131.954v-7.381l52 20.8v7.381zm0-16v-7.381l52 20.8v7.381zm0-16v-7.381l52 20.8v7.381zm0-16v-7.381l52 20.8v7.381zm52 4.8-52-20.8v-7.381l52 20.8zm-26 103.756-1.68-21.846h3.361zm23.4-29.846h-46.8c-1.434 0-2.6-1.166-2.6-2.6v-19.491l51.681 20.672c-.434.832-1.279 1.419-2.281 1.419zm2.6-89.91-52-20.8v-1.291h52zm10.393-31.565c-.18.443-.748 1.475-2.184 1.475h-68.418c-1.436 0-2.004-1.031-2.184-1.475-.178-.443-.48-1.582.553-2.576l34.209-32.842c.914-.875 2.348-.875 3.262 0l34.209 32.842c1.033.994.73 2.133.553 2.576z"/><path d="m99.17 40.114c-4.02-3.855-10.32-3.855-14.34 0v.002l-34.209 32.842c-3.064 2.941-4.021 7.391-2.436 11.332s5.357 6.488 9.605 6.488h.21v77.4c0 5.844 4.756 10.6 10.6 10.6h8.209c-4.553 16.732-15.273 19.978-15.828 20.133-2.119.557-3.398 2.721-2.857 4.85.459 1.812 2.088 3.018 3.875 3.018.324 0 .656-.039.984-.123.628-.159 13.243-3.627 19.867-20.684l3.163 41.113c.16 2.084 1.898 3.693 3.988 3.693h4c2.09 0 3.828-1.609 3.988-3.693l3.716-48.307h13.695c5.844 0 10.6-4.756 10.6-10.6v-77.4h.209c4.248 0 8.02-2.547 9.605-6.488s.629-8.391-2.436-11.332zm-33.17 99.954v-7.381l52 20.8v7.381zm0-16v-7.381l52 20.8v7.381zm52 4.8-52-20.8v-7.381l52 20.8zm-26 71.756-1.68-21.846h3.361zm23.4-29.846h-46.8c-1.434 0-2.6-1.166-2.6-2.6v-19.491l51.681 20.672c-.434.832-1.279 1.419-2.281 1.419zm2.6-57.91-52-20.8v-1.291h52zm10.393-31.565c-.18.443-.748 1.475-2.184 1.475h-68.418c-1.436 0-2.004-1.031-2.184-1.475-.178-.443-.48-1.582.553-2.576l34.209-32.842c.914-.875 2.348-.875 3.262 0l34.209 32.842c1.033.994.73 2.133.553 2.576z"/></g></svg>