<svg id="fireworks2" enable-background="new 0 0 300 300" height="512" viewBox="0 0 300 300" width="512" xmlns="http://www.w3.org/2000/svg"><g><path d="m150 46.393c2.362 0 4.276-1.915 4.276-4.276s-1.914-4.277-4.276-4.277-4.276 1.915-4.276 4.277 1.914 4.276 4.276 4.276z"/><path d="m50 46.393c2.362 0 4.276-1.915 4.276-4.276s-1.914-4.277-4.276-4.277-4.276 1.915-4.276 4.277 1.914 4.276 4.276 4.276z"/><path d="m102 34.393c2.362 0 4.276-1.915 4.276-4.276s-1.914-4.277-4.276-4.277-4.276 1.915-4.276 4.277 1.914 4.276 4.276 4.276z"/><path d="m166 86.393c2.362 0 4.276-1.915 4.276-4.276s-1.914-4.277-4.276-4.277-4.276 1.915-4.276 4.277 1.914 4.276 4.276 4.276z"/><path d="m38 77.84c-2.362 0-4.276 1.915-4.276 4.277s1.915 4.276 4.276 4.276 4.276-1.915 4.276-4.276-1.914-4.277-4.276-4.277z"/><path d="m145.17 182.16c-6.617 0-12 5.383-12 12s5.383 12 12 12 12-5.383 12-12-5.383-12-12-12zm0 16c-2.205 0-4-1.795-4-4s1.795-4 4-4 4 1.795 4 4-1.795 4-4 4z"/><path d="m218.342 64.988c.781.781 1.805 1.172 2.828 1.172s2.047-.391 2.828-1.172l3.172-3.172 3.172 3.172c.781.781 1.805 1.172 2.828 1.172s2.047-.391 2.828-1.172c1.562-1.562 1.562-4.094 0-5.656l-3.172-3.172 3.172-3.172c1.562-1.562 1.562-4.094 0-5.656s-4.094-1.562-5.656 0l-3.172 3.172-3.172-3.172c-1.562-1.562-4.094-1.562-5.656 0s-1.562 4.094 0 5.656l3.172 3.172-3.172 3.172c-1.562 1.562-1.562 4.094 0 5.656z"/><path d="m101.17 70.16c-8.822 0-16 7.178-16 16v76c0 7.433 5.119 13.643 12 15.432v72.568c0 2.209 1.791 4 4 4s4-1.791 4-4v-72.568c6.881-1.789 12-7.999 12-15.432v-76c0-8.822-7.178-16-16-16zm8 92c0 4.412-3.588 8-8 8s-8-3.588-8-8v-76c0-4.412 3.588-8 8-8s8 3.588 8 8z"/><path d="m84.824 71.611c-.201-.453-5.064-11.143-15.807-13.137-8.248-1.541-17.223 2.482-26.676 11.934-1.562 1.562-1.562 4.094 0 5.656s4.094 1.562 5.656 0c7.344-7.346 14.062-10.732 19.51-9.734 6.584 1.189 9.977 8.463 10.014 8.547.666 1.48 2.123 2.361 3.65 2.361.543 0 1.094-.111 1.623-.348 2.019-.896 2.929-3.259 2.03-5.279z"/><path d="m65.17 45.16c17.154 0 19.922 16.793 20.041 17.576.291 1.99 2 3.424 3.953 3.424.189 0 .379-.014.572-.041 2.186-.312 3.705-2.338 3.393-4.525-1.207-8.452-8.603-24.434-27.959-24.434-2.209 0-4 1.791-4 4s1.791 4 4 4z"/><path d="m154.342 76.064c.781.781 1.805 1.172 2.828 1.172s2.047-.391 2.828-1.172c1.562-1.562 1.562-4.094 0-5.656-9.451-9.453-18.438-13.479-26.676-11.934-10.742 1.994-15.605 12.684-15.807 13.137-.895 2.012.008 4.359 2.016 5.264 2.012.898 4.375.006 5.287-1.996.033-.074 3.424-7.357 10.014-8.549 5.42-.973 12.162 2.387 19.51 9.734z"/><path d="m112.59 66.109c.195.029.391.043.584.043 1.947 0 3.654-1.43 3.953-3.41.109-.719 2.854-17.582 20.043-17.582 2.209 0 4-1.791 4-4s-1.791-4-4-4c-19.355 0-26.752 15.982-27.959 24.434-.312 2.181 1.199 4.195 3.379 4.515z"/><path d="m101.17 62.16c2.209 0 4-1.791 4-4v-16c0-2.209-1.791-4-4-4s-4 1.791-4 4v16c0 2.209 1.791 4 4 4z"/><path d="m246 110.393c2.362 0 4.276-1.915 4.276-4.276s-1.915-4.277-4.276-4.277-4.276 1.915-4.276 4.277 1.914 4.276 4.276 4.276z"/><path d="m141.724 106.117c0 2.362 1.915 4.276 4.276 4.276s4.276-1.915 4.276-4.276-1.915-4.277-4.276-4.277-4.276 1.915-4.276 4.277z"/><path d="m198 98.393c2.362 0 4.276-1.915 4.276-4.276s-1.914-4.277-4.276-4.277-4.276 1.915-4.276 4.277 1.914 4.276 4.276 4.276z"/><path d="m262 141.84c-2.362 0-4.276 1.915-4.276 4.277s1.915 4.276 4.276 4.276 4.276-1.915 4.276-4.276-1.914-4.277-4.276-4.277z"/><path d="m138.276 146.117c0-2.362-1.915-4.277-4.276-4.277s-4.276 1.915-4.276 4.277 1.915 4.276 4.276 4.276 4.276-1.915 4.276-4.276z"/><path d="m197.17 134.16c-8.822 0-16 7.178-16 16v76c0 7.433 5.119 13.643 12 15.432v28.568c0 2.209 1.791 4 4 4s4-1.791 4-4v-28.568c6.881-1.789 12-7.999 12-15.432v-76c0-8.822-7.178-16-16-16zm8 92c0 4.412-3.588 8-8 8s-8-3.588-8-8v-76c0-4.412 3.588-8 8-8s8 3.588 8 8z"/><path d="m180.824 135.611c-.201-.453-5.064-11.143-15.807-13.137-8.244-1.539-17.225 2.482-26.676 11.934-1.562 1.562-1.562 4.094 0 5.656s4.094 1.562 5.656 0c7.344-7.346 14.062-10.727 19.51-9.734 6.584 1.189 9.977 8.463 10.014 8.547.666 1.48 2.123 2.361 3.65 2.361.543 0 1.094-.111 1.623-.348 2.019-.896 2.929-3.259 2.03-5.279z"/><path d="m157.17 105.16c0 2.209 1.791 4 4 4 17.154 0 19.922 16.793 20.041 17.576.291 1.99 2 3.424 3.953 3.424.189 0 .379-.014.572-.041 2.186-.312 3.705-2.338 3.393-4.525-1.207-8.451-8.604-24.434-27.959-24.434-2.209 0-4 1.791-4 4z"/><path d="m229.323 122.474c-10.742 1.994-15.605 12.684-15.807 13.137-.895 2.012.008 4.359 2.016 5.264 2.012.898 4.375.006 5.287-1.996.033-.074 3.424-7.357 10.014-8.549 5.422-.988 12.162 2.387 19.51 9.734.781.781 1.805 1.172 2.828 1.172s2.047-.391 2.828-1.172c1.562-1.562 1.562-4.094 0-5.656-9.452-9.451-18.432-13.475-26.676-11.934z"/><path d="m208.59 130.109c.195.029.391.043.584.043 1.947 0 3.654-1.43 3.953-3.41.109-.719 2.854-17.582 20.043-17.582 2.209 0 4-1.791 4-4s-1.791-4-4-4c-19.355 0-26.752 15.982-27.959 24.434-.312 2.181 1.199 4.195 3.379 4.515z"/><path d="m197.17 126.16c2.209 0 4-1.791 4-4v-16c0-2.209-1.791-4-4-4s-4 1.791-4 4v16c0 2.209 1.791 4 4 4z"/></g></svg>