<svg id="flat-candle" enable-background="new 0 0 300 300" height="512" viewBox="0 0 300 300" width="512" xmlns="http://www.w3.org/2000/svg"><g><path d="m75.172 78.828c.781.781 1.805 1.172 2.828 1.172s2.047-.391 2.828-1.172l3.172-3.172 3.172 3.172c.781.781 1.805 1.172 2.828 1.172s2.047-.391 2.828-1.172c1.562-1.562 1.562-4.094 0-5.656l-3.172-3.172 3.172-3.172c1.562-1.562 1.562-4.094 0-5.656s-4.094-1.562-5.656 0l-3.172 3.172-3.172-3.172c-1.562-1.562-4.094-1.562-5.656 0s-1.562 4.094 0 5.656l3.172 3.172-3.172 3.172c-1.563 1.562-1.563 4.094 0 5.656z"/><path d="m222 108c6.617 0 12-5.383 12-12s-5.383-12-12-12-12 5.383-12 12 5.383 12 12 12zm0-16c2.207 0 4 1.795 4 4s-1.793 4-4 4-4-1.795-4-4 1.793-4 4-4z"/><circle cx="126" cy="76" r="4"/><circle cx="154" cy="132" r="4"/><circle cx="138" cy="112" r="4"/><circle cx="154" cy="56" r="4"/><path d="m261.258 157.928c-.727-1.197-2.023-1.928-3.422-1.928h-103.836v-4.214c15.885-1.716 27.457-14.429 27.457-30.928 0-28.951-32.949-51.25-34.352-52.186-1.445-.965-3.324-.793-4.684.299s-1.816 3.031-1.188 4.656c.035.092 3.316 9.334-15.465 28.117-8.5 8.5-11.332 21.939-6.883 32.682 4.181 10.086 13.961 16.237 27.113 17.344v4.23h-103.834c-1.398 0-2.695.73-3.422 1.928-5.801 9.578-8.742 19.695-8.742 30.072 0 22.658 14.41 44.32 39.531 59.428.625.375 1.336.572 2.062.572h156.812c.727 0 1.438-.197 2.062-.572 25.123-15.108 39.533-36.77 39.533-59.428 0-10.377-2.941-20.494-8.742-30.072zm-108.891-40.352c4.156 3.883 9.285 10.021 9.285 16.678 0 5.578-3.938 9.475-9.574 9.475-5.223 0-8.836-1.799-10.184-5.068-1.273-3.092-.371-7.152 2.148-9.652 4.528-4.499 7.02-8.325 8.325-11.433zm-26.086 13.787c-3.246-7.834-1.129-17.688 5.145-23.963 11.848-11.85 16.203-20.969 17.543-27.227 9.012 7.545 24.488 23.072 24.488 40.684 0 5.047-1.38 9.571-3.814 13.253-.109-15.375-17.336-26.959-18.072-27.446-1.508-1.002-3.504-.857-4.863.346-1.266 1.123-1.676 2.91-1.062 4.461.066.447.367 4.305-7.238 11.861-4.378 4.346-6.061 11.01-4.43 16.749-3.517-2.114-6.164-5.016-7.697-8.718zm101.004 108.637h-154.57c-22.078-13.588-34.715-32.492-34.715-52 0-8.209 2.176-16.271 6.465-24h211.07c4.289 7.729 6.465 15.791 6.465 24 0 19.508-12.637 38.412-34.715 52z"/><path d="m50 176h196c2.211 0 4-1.791 4-4s-1.789-4-4-4h-196c-2.211 0-4 1.791-4 4s1.789 4 4 4z"/><path d="m62 196c0-2.209-1.789-4-4-4 0-2.209-1.789-4-4-4s-4 1.791-4 4c-2.211 0-4 1.791-4 4s1.789 4 4 4c0 2.209 1.789 4 4 4s4-1.791 4-4c2.211 0 4-1.791 4-4z"/><path d="m86 196c0-2.209-1.789-4-4-4 0-2.209-1.789-4-4-4s-4 1.791-4 4c-2.211 0-4 1.791-4 4s1.789 4 4 4c0 2.209 1.789 4 4 4s4-1.791 4-4c2.211 0 4-1.791 4-4z"/><path d="m110 196c0-2.209-1.789-4-4-4 0-2.209-1.789-4-4-4s-4 1.791-4 4c-2.211 0-4 1.791-4 4s1.789 4 4 4c0 2.209 1.789 4 4 4s4-1.791 4-4c2.211 0 4-1.791 4-4z"/><path d="m134 196c0-2.209-1.789-4-4-4 0-2.209-1.789-4-4-4s-4 1.791-4 4c-2.211 0-4 1.791-4 4s1.789 4 4 4c0 2.209 1.789 4 4 4s4-1.791 4-4c2.211 0 4-1.791 4-4z"/><path d="m158 196c0-2.209-1.789-4-4-4 0-2.209-1.789-4-4-4s-4 1.791-4 4c-2.211 0-4 1.791-4 4s1.789 4 4 4c0 2.209 1.789 4 4 4s4-1.791 4-4c2.211 0 4-1.791 4-4z"/><path d="m182 196c0-2.209-1.789-4-4-4 0-2.209-1.789-4-4-4s-4 1.791-4 4c-2.211 0-4 1.791-4 4s1.789 4 4 4c0 2.209 1.789 4 4 4s4-1.791 4-4c2.211 0 4-1.791 4-4z"/><path d="m206 196c0-2.209-1.789-4-4-4 0-2.209-1.789-4-4-4s-4 1.791-4 4c-2.211 0-4 1.791-4 4s1.789 4 4 4c0 2.209 1.789 4 4 4s4-1.791 4-4c2.211 0 4-1.791 4-4z"/><path d="m230 196c0-2.209-1.789-4-4-4 0-2.209-1.789-4-4-4s-4 1.791-4 4c-2.211 0-4 1.791-4 4s1.789 4 4 4c0 2.209 1.789 4 4 4s4-1.791 4-4c2.211 0 4-1.791 4-4z"/><path d="m250 192c0-2.209-1.789-4-4-4s-4 1.791-4 4c-2.211 0-4 1.791-4 4s1.789 4 4 4c0 2.209 1.789 4 4 4s4-1.791 4-4c2.211 0 4-1.791 4-4s-1.789-4-4-4z"/><path d="m70 216c0-2.209-1.789-4-4-4s-4 1.791-4 4c-2.211 0-4 1.791-4 4s1.789 4 4 4c0 2.209 1.789 4 4 4s4-1.791 4-4c2.211 0 4-1.791 4-4s-1.789-4-4-4z"/><path d="m94 216c0-2.209-1.789-4-4-4s-4 1.791-4 4c-2.211 0-4 1.791-4 4s1.789 4 4 4c0 2.209 1.789 4 4 4s4-1.791 4-4c2.211 0 4-1.791 4-4s-1.789-4-4-4z"/><path d="m118 216c0-2.209-1.789-4-4-4s-4 1.791-4 4c-2.211 0-4 1.791-4 4s1.789 4 4 4c0 2.209 1.789 4 4 4s4-1.791 4-4c2.211 0 4-1.791 4-4s-1.789-4-4-4z"/><path d="m142 216c0-2.209-1.789-4-4-4s-4 1.791-4 4c-2.211 0-4 1.791-4 4s1.789 4 4 4c0 2.209 1.789 4 4 4s4-1.791 4-4c2.211 0 4-1.791 4-4s-1.789-4-4-4z"/><path d="m166 216c0-2.209-1.789-4-4-4s-4 1.791-4 4c-2.211 0-4 1.791-4 4s1.789 4 4 4c0 2.209 1.789 4 4 4s4-1.791 4-4c2.211 0 4-1.791 4-4s-1.789-4-4-4z"/><path d="m190 216c0-2.209-1.789-4-4-4s-4 1.791-4 4c-2.211 0-4 1.791-4 4s1.789 4 4 4c0 2.209 1.789 4 4 4s4-1.791 4-4c2.211 0 4-1.791 4-4s-1.789-4-4-4z"/><path d="m214 216c0-2.209-1.789-4-4-4s-4 1.791-4 4c-2.211 0-4 1.791-4 4s1.789 4 4 4c0 2.209 1.789 4 4 4s4-1.791 4-4c2.211 0 4-1.791 4-4s-1.789-4-4-4z"/><path d="m238 216c0-2.209-1.789-4-4-4s-4 1.791-4 4c-2.211 0-4 1.791-4 4s1.789 4 4 4c0 2.209 1.789 4 4 4s4-1.791 4-4c2.211 0 4-1.791 4-4s-1.789-4-4-4z"/></g></svg>