<svg id="gift" enable-background="new 0 0 300 300" height="512" viewBox="0 0 300 300" width="512" xmlns="http://www.w3.org/2000/svg"><g><path d="m192.735 68c7.719 0 14-6.281 14-14s-6.281-14-14-14-14 6.281-14 14 6.282 14 14 14zm0-20c3.309 0 6 2.691 6 6s-2.691 6-6 6-6-2.691-6-6 2.692-6 6-6z"/><path d="m244.13 112h-46.817c8.175-6.605 13.422-16.696 13.422-28 0-2.209-1.789-4-4-4h-28c-12.084 0-23.274 6.144-29.916 16.114-.376-.039-.741-.114-1.127-.114h-9.914c-.386 0-.751.075-1.127.114-6.644-9.968-17.846-16.114-29.916-16.114h-28c-2.211 0-4 1.791-4 4 0 11.304 5.247 21.395 13.422 28h-46.816c-3.641 0-6.605 2.965-6.605 6.607v26.785c0 3.643 2.965 6.607 6.605 6.607h5.395v91.506c0 9.096 7.398 16.494 16.492 16.494h159.016c9.094 0 16.492-7.398 16.492-16.494v-91.505h5.395c3.641 0 6.605-2.965 6.605-6.607v-26.785c-.001-3.643-2.965-6.608-6.606-6.608zm-65.395-24h23.715c-1.945 13.551-13.633 24-27.715 24h-16v-4.959c0-2.787-1.072-5.307-2.782-7.252 5.221-7.321 13.685-11.789 22.782-11.789zm-36 160c2.733 0 5.396-.284 8-.744v4.744h-16v-4.744c2.604.46 5.267.744 8 .744zm0-8c-20.953 0-38-17.047-38-38s17.047-38 38-38 38 17.047 38 38-17.047 38-38 38zm8-83.256c-2.604-.459-5.267-.744-8-.744s-5.396.284-8 .744v-36.744h16zm-16-44.744v-4.959c0-1.678 1.363-3.041 3.043-3.041h9.914c1.68 0 3.043 1.363 3.043 3.041v4.959zm-51.714-24h23.715c9.087 0 17.556 4.472 22.781 11.791-1.709 1.945-2.781 4.464-2.781 7.25v4.959h-16c-14.083 0-25.77-10.449-27.715-24zm-40.286 32h84v24h-84zm12 123.506v-91.506h72v6.928c-17.487 6.519-30 23.339-30 43.072s12.513 36.552 30 43.072v6.928h-63.507c-4.684 0-8.493-3.811-8.493-8.494zm176 0c0 4.684-3.809 8.494-8.492 8.494h-63.508v-6.928c17.487-6.519 30-23.339 30-43.072s-12.513-36.552-30-43.072v-6.928h72zm12-99.506h-84v-24h84z"/><path d="m260.735 57.47c-2.501 0-4.529 2.028-4.529 4.53 0 2.501 2.028 4.529 4.529 4.529s4.529-2.028 4.529-4.529c.001-2.502-2.027-4.53-4.529-4.53z"/><path d="m230.251 84.484c.781.781 1.805 1.172 2.828 1.172s2.047-.391 2.828-1.172l2.828-2.828 2.828 2.828c.781.781 1.805 1.172 2.828 1.172s2.047-.391 2.828-1.172c1.562-1.562 1.562-4.094 0-5.656l-2.827-2.828 2.828-2.828c1.562-1.562 1.562-4.094 0-5.656s-4.094-1.562-5.656 0l-2.828 2.828-2.828-2.828c-1.562-1.562-4.094-1.562-5.656 0s-1.562 4.094 0 5.656l2.827 2.828-2.828 2.828c-1.563 1.563-1.563 4.094 0 5.656z"/><path d="m171.017 202.4c-1.434-7.445-7.898-12.848-15.371-12.848-5.233 0-9.33 2.076-12.453 4.794-2.061-6.866-10.696-8.794-15.547-8.794-2.203 0-3.984 1.783-3.992 3.986-.008 2.205 1.773 3.998 3.98 4.014.078 0 8.012.223 8.012 4 0 3.221-2.199 3.953-4 4-.004 0-.012 0-.016 0-.016 0-.023 0-.027 0 0 0 0 0-.004 0h-.004c-.004 0-.004 0-.004 0-.004 0-.004 0-.004 0s0 0-.004 0-.004 0-.008 0c-2.176.039-3.93 1.814-3.93 4 0 2.201 1.777 3.986 3.977 4 1.887.031 8.023.701 8.023 8 0 3.361-1.875 5.934-5.012 6.885-3.18.959-8.129.195-11.66-5.104-1.227-1.838-3.707-2.342-5.547-1.109-1.84 1.225-2.336 3.709-1.109 5.547 3.863 5.795 9.703 9.053 15.73 9.053 1.633 0 3.281-.238 4.906-.73 6.496-1.967 10.691-7.674 10.691-14.541 0-4.809-1.615-8.35-3.953-10.87 1.835-3.558 5.704-9.13 11.953-9.13 3.645 0 6.805 2.674 7.516 6.359.941 4.889-2.766 9.516-9.91 12.373-2.051.822-3.051 3.148-2.23 5.201.625 1.562 2.129 2.516 3.715 2.516.496 0 1-.094 1.484-.287 12.938-5.176 16.13-14.404 14.798-21.315z"/><path d="m147.47 186.664c2.625 0 5.656-.357 9.145-1.23 2.145-.535 3.449-2.707 2.91-4.852-.535-2.143-2.711-3.451-4.848-2.91-12.078 3.018-15.281-1.648-15.512-2.018-1.02-1.895-3.371-2.648-5.309-1.68-1.977.988-2.777 3.391-1.789 5.367.18.362 3.825 7.323 15.403 7.323z"/><path d="m144.735 174.529c2.501 0 4.529-2.028 4.529-4.529 0-2.502-2.028-4.53-4.529-4.53s-4.529 2.028-4.529 4.53c0 2.501 2.028 4.529 4.529 4.529z"/><path d="m74.735 164c0-2.209-1.789-4-4-4s-4 1.791-4 4c-2.211 0-4 1.791-4 4s1.789 4 4 4c0 2.209 1.789 4 4 4s4-1.791 4-4c2.211 0 4-1.791 4-4s-1.789-4-4-4z"/><path d="m98.735 168c0-2.209-1.789-4-4-4 0-2.209-1.789-4-4-4s-4 1.791-4 4c-2.211 0-4 1.791-4 4s1.789 4 4 4c0 2.209 1.789 4 4 4s4-1.791 4-4c2.211 0 4-1.791 4-4z"/><path d="m190.735 172c0 2.209 1.789 4 4 4s4-1.791 4-4c2.211 0 4-1.791 4-4s-1.789-4-4-4c0-2.209-1.789-4-4-4s-4 1.791-4 4c-2.211 0-4 1.791-4 4s1.789 4 4 4z"/><path d="m210.735 172c0 2.209 1.789 4 4 4s4-1.791 4-4c2.211 0 4-1.791 4-4s-1.789-4-4-4c0-2.209-1.789-4-4-4s-4 1.791-4 4c-2.211 0-4 1.791-4 4s1.789 4 4 4z"/></g></svg>