<svg id="kite" enable-background="new 0 0 300 300" height="512" viewBox="0 0 300 300" width="512" xmlns="http://www.w3.org/2000/svg"><g><circle cx="246" cy="137.456" r="4"/><circle cx="154" cy="257.456" r="4"/><path d="m236.828 86.627c-1.562-1.562-4.094-1.562-5.656 0l-3.172 3.172-3.172-3.172c-1.562-1.562-4.094-1.562-5.656 0s-1.562 4.094 0 5.656l3.172 3.172-3.172 3.172c-1.562 1.562-1.562 4.094 0 5.656.781.781 1.805 1.172 2.828 1.172s2.047-.391 2.828-1.172l3.172-3.172 3.172 3.172c.781.781 1.805 1.172 2.828 1.172s2.047-.391 2.828-1.172c1.562-1.562 1.562-4.094 0-5.656l-3.172-3.172 3.172-3.172c1.563-1.562 1.563-4.093 0-5.656z"/><path d="m208 161.456c-7.719 0-14 6.281-14 14s6.281 14 14 14 14-6.281 14-14-6.281-14-14-14zm0 20c-3.309 0-6-2.691-6-6s2.691-6 6-6 6 2.691 6 6-2.691 6-6 6z"/><path d="m196.617 229.456h-53.234c-9.586 0-17.383-7.799-17.383-17.385v-8.038l13.977 8.188c.633.369 1.328.549 2.023.549 1.035 0 2.059-.4 2.828-1.172l11.312-11.314c1.562-1.562 1.562-4.094 0-5.656l-11.312-11.314c-1.285-1.289-3.277-1.541-4.852-.623l-13.976 8.187v-4.278l54.053-86.487 6.025 30.128c.379 1.9 2.051 3.215 3.918 3.215.258 0 .523-.025.789-.078 2.164-.434 3.57-2.541 3.137-4.707l-8-40c-.156-.785-.547-1.508-1.121-2.068l-60-58.912c-1.555-1.527-4.047-1.527-5.602 0l-60 58.912c-.574.561-.965 1.283-1.121 2.068l-8 40c-.434 2.166.973 4.273 3.137 4.707 2.152.424 4.273-.971 4.707-3.137l6.024-30.126 54.054 86.485v4.279l-13.977-8.188c-1.578-.918-3.562-.666-4.852.623l-11.311 11.313c-1.562 1.562-1.562 4.094 0 5.656l11.312 11.314c.77.771 1.793 1.172 2.828 1.172.695 0 1.391-.18 2.023-.549l13.977-8.187v8.038c0 13.998 11.387 25.385 25.383 25.385h53.234c9.586 0 17.383 7.799 17.383 17.385v14.615c0 2.209 1.789 4 4 4s4-1.791 4-4v-14.616c0-13.998-11.387-25.384-25.383-25.384zm-55.261-38.301 6.301 6.301-6.301 6.301-10.754-6.301zm-38.711 12.601-6.301-6.301 6.301-6.301 10.754 6.301zm-35.552-113.696 54.907-53.911 54.906 53.91-50.906 81.45v-78.053h40c2.211 0 4-1.791 4-4s-1.789-4-4-4h-40v-36c0-2.209-1.789-4-4-4s-4 1.791-4 4v36h-40c-2.211 0-4 1.791-4 4s1.789 4 4 4h40v78.053z"/></g></svg>