<svg id="light-corp" enable-background="new 0 0 300 300" height="512" viewBox="0 0 300 300" width="512" xmlns="http://www.w3.org/2000/svg"><g><circle cx="78" cy="98" r="4"/><path d="m59.172 80.828c.781.781 1.805 1.172 2.828 1.172s2.047-.391 2.828-1.172c1.562-1.562 1.562-4.094 0-5.656l-3.172-3.172 3.172-3.172c1.562-1.562 1.562-4.094 0-5.656s-4.094-1.562-5.656 0l-3.172 3.172-3.172-3.172c-1.562-1.562-4.094-1.562-5.656 0s-1.562 4.094 0 5.656l3.172 3.172-3.172 3.172c-1.562 1.562-1.562 4.094 0 5.656.781.781 1.805 1.172 2.828 1.172s2.047-.391 2.828-1.172l3.172-3.172z"/><path d="m222.461 166.906c5.059-4.168 7.957-10.33 7.957-16.906s-2.898-12.738-7.957-16.906c-19.258-15.877-30.305-37.414-30.305-59.094 0-2.503.164-5.108.495-8h1.349c2.211 0 4-1.791 4-4v-5.967c0-7.738-6.293-14.033-14.031-14.033h-59.938c-7.738 0-14.031 6.295-14.031 14.033v5.967c0 2.209 1.789 4 4 4h1.293c.33 2.899.492 5.504.492 8 0 21.695-11.031 43.236-30.266 59.1-5.051 4.168-7.949 10.328-7.949 16.9s2.898 12.732 7.949 16.9c19.234 15.863 30.266 37.404 30.266 59.1 0 2.496-.162 5.101-.492 8h-1.293c-2.211 0-4 1.791-4 4v5.967c0 7.738 6.293 14.033 14.031 14.033h59.938c7.738 0 14.031-6.295 14.031-14.033v-5.967c0-2.209-1.789-4-4-4h-1.349c-.331-2.892-.495-5.497-.495-8 0-21.682 11.047-43.219 30.305-59.094zm-104.461-110.873c0-3.326 2.707-6.033 6.031-6.033h59.938c3.324 0 6.031 2.707 6.031 6.033v1.967h-72zm19.163 9.967c.229 2.887.345 5.496.345 8 0 29.043-4.918 49.572-15.031 62.764-5.98 7.793-5.98 18.68-.004 26.471 10.117 13.193 15.035 33.723 15.035 62.766 0 2.504-.115 5.113-.345 8h-2.965c.244-2.851.372-5.475.372-8 0-26.871-7.883-50.412-22.199-66.283-5.074-5.631-5.074-13.803 0-19.432 14.317-15.874 22.199-39.415 22.199-66.286 0-2.525-.128-5.149-.372-8zm-8.343 92.365c-3.777-4.926-3.777-11.805.004-16.732 11.227-14.641 16.684-36.764 16.684-67.633 0-2.529-.111-5.153-.326-8h4.818v168h-4.818c.214-2.847.326-5.471.326-8 0-30.869-5.457-52.992-16.688-67.635zm29.18-92.365h4.818c-.215 2.847-.326 5.471-.326 8 0 30.871 5.461 52.994 16.688 67.633 3.777 4.926 3.777 11.809.004 16.734-11.23 14.639-16.691 36.762-16.691 67.633 0 2.529.111 5.153.326 8h-4.819zm12.837 168c-.229-2.887-.345-5.496-.345-8 0-29.043 4.918-49.574 15.039-62.766 5.973-7.793 5.973-18.676-.004-26.469-10.117-13.191-15.035-33.722-15.035-62.765 0-2.504.115-5.113.345-8h2.965c-.244 2.851-.372 5.475-.372 8 0 26.871 7.883 50.412 22.199 66.283 5.074 5.631 5.074 13.803 0 19.432-14.317 15.873-22.199 39.414-22.199 66.285 0 2.525.128 5.149.372 8zm-80.224-73.271c-3.203-2.643-5.043-6.553-5.043-10.729s1.84-8.086 5.043-10.729c21.082-17.389 33.172-41.18 33.172-65.271 0-2.534-.157-5.159-.454-8h2.839c.267 2.898.399 5.505.399 8 0 24.889-7.152 46.527-20.137 60.928-7.75 8.592-7.75 21.553 0 30.146 12.984 14.398 20.137 36.037 20.137 60.926 0 2.495-.133 5.102-.399 8h-2.839c.297-2.841.454-5.466.454-8 0-24.092-12.09-47.883-33.172-65.271zm99.387 83.238c0 3.326-2.707 6.033-6.031 6.033h-59.938c-3.324 0-6.031-2.707-6.031-6.033v-1.967h72zm-8.171-9.967c-.267-2.898-.399-5.505-.399-8 0-24.889 7.152-46.527 20.137-60.928 7.75-8.592 7.75-21.553 0-30.146-12.985-14.399-20.137-36.037-20.137-60.926 0-2.495.133-5.102.399-8h2.782c-.297 2.835-.455 5.46-.455 8 0 24.076 12.105 47.865 33.219 65.266 3.203 2.645 5.043 6.557 5.043 10.734s-1.84 8.09-5.043 10.734c-21.113 17.398-33.219 41.186-33.219 65.266 0 2.54.158 5.165.455 8z"/><path d="m66 146h-8c-2.211 0-4 1.791-4 4s1.789 4 4 4h8c2.211 0 4-1.791 4-4s-1.789-4-4-4z"/><path d="m64.828 131.172c-1.562-1.562-4.094-1.562-5.656 0s-1.562 4.094 0 5.656l4 4c.781.781 1.805 1.172 2.828 1.172s2.047-.391 2.828-1.172c1.562-1.562 1.562-4.094 0-5.656z"/><path d="m63.172 159.172-4 4c-1.562 1.562-1.562 4.094 0 5.656.781.781 1.805 1.172 2.828 1.172s2.047-.391 2.828-1.172l4-4c1.562-1.562 1.562-4.094 0-5.656s-4.094-1.563-5.656 0z"/><path d="m250 146h-8c-2.211 0-4 1.791-4 4s1.789 4 4 4h8c2.211 0 4-1.791 4-4s-1.789-4-4-4z"/><path d="m242 142c1.023 0 2.047-.391 2.828-1.172l4-4c1.562-1.562 1.562-4.094 0-5.656s-4.094-1.562-5.656 0l-4 4c-1.562 1.562-1.562 4.094 0 5.656.781.781 1.805 1.172 2.828 1.172z"/><path d="m244.828 159.172c-1.562-1.562-4.094-1.562-5.656 0s-1.562 4.094 0 5.656l4 4c.781.781 1.805 1.172 2.828 1.172s2.047-.391 2.828-1.172c1.562-1.562 1.562-4.094 0-5.656z"/><path d="m230 198c-6.617 0-12 5.383-12 12s5.383 12 12 12 12-5.383 12-12-5.383-12-12-12zm0 16c-2.207 0-4-1.795-4-4s1.793-4 4-4 4 1.795 4 4-1.793 4-4 4z"/></g></svg>