<svg id="light2" enable-background="new 0 0 300 300" height="512" viewBox="0 0 300 300" width="512" xmlns="http://www.w3.org/2000/svg"><g><path d="m205.342 79.761c.781.781 1.805 1.172 2.828 1.172s2.047-.391 2.828-1.172l3.172-3.172 3.172 3.172c.781.781 1.805 1.172 2.828 1.172s2.047-.391 2.828-1.172c1.562-1.562 1.562-4.094 0-5.656l-3.172-3.172 3.172-3.172c1.562-1.562 1.562-4.094 0-5.656s-4.094-1.562-5.656 0l-3.172 3.172-3.172-3.172c-1.562-1.562-4.094-1.562-5.656 0s-1.562 4.094 0 5.656l3.172 3.172-3.172 3.172c-1.563 1.562-1.563 4.094 0 5.656z"/><path d="m188.107 47.62c2.362 0 4.277-1.915 4.277-4.276s-1.915-4.276-4.277-4.276-4.276 1.915-4.276 4.276 1.914 4.276 4.276 4.276z"/><path d="m56.107 215.067c-2.362 0-4.276 1.915-4.276 4.276s1.915 4.276 4.276 4.276 4.277-1.915 4.277-4.276-1.915-4.276-4.277-4.276z"/><path d="m228.17 92.933h-64v-40c0-2.209-1.789-4-4-4s-4 1.791-4 4v40h-4v-40c0-2.209-1.789-4-4-4s-4 1.791-4 4v40h-64c-11.027 0-20 8.973-20 20v76c0 11.027 8.973 20 20 20v12.737c-4.646 1.656-8 6.055-8 11.263s3.354 9.606 8 11.263v12.737c0 2.209 1.789 4 4 4s4-1.791 4-4v-12.737c4.646-1.656 8-6.055 8-11.263s-3.354-9.606-8-11.263v-12.737h20v12.737c-4.646 1.656-8 6.055-8 11.263s3.354 9.606 8 11.263v12.737c0 2.209 1.789 4 4 4s4-1.791 4-4v-12.737c4.646-1.656 8-6.055 8-11.263s-3.354-9.606-8-11.263v-12.737h20v12.737c-4.646 1.656-8 6.055-8 11.263s3.354 9.606 8 11.263v12.737c0 2.209 1.789 4 4 4s4-1.791 4-4v-12.737c4.646-1.656 8-6.055 8-11.263s-3.354-9.606-8-11.263v-12.737h20v12.737c-4.646 1.656-8 6.055-8 11.263s3.354 9.606 8 11.263v12.737c0 2.209 1.789 4 4 4s4-1.791 4-4v-12.737c4.646-1.656 8-6.055 8-11.263s-3.354-9.606-8-11.263v-12.737h20v12.737c-4.646 1.656-8 6.055-8 11.263s3.354 9.606 8 11.263v12.737c0 2.209 1.789 4 4 4s4-1.791 4-4v-12.737c4.646-1.656 8-6.055 8-11.263s-3.354-9.606-8-11.263v-12.737h20v12.737c-4.646 1.656-8 6.055-8 11.263s3.354 9.606 8 11.263v12.737c0 2.209 1.789 4 4 4s4-1.791 4-4v-12.737c4.646-1.656 8-6.055 8-11.263s-3.354-9.606-8-11.263v-12.737c11.027 0 20-8.973 20-20v-76c0-11.027-8.973-20-20-20zm-144 144c-2.207 0-4-1.795-4-4s1.793-4 4-4 4 1.795 4 4-1.793 4-4 4zm28 0c-2.207 0-4-1.795-4-4s1.793-4 4-4 4 1.795 4 4-1.793 4-4 4zm28 0c-2.207 0-4-1.795-4-4s1.793-4 4-4 4 1.795 4 4-1.793 4-4 4zm28 0c-2.207 0-4-1.795-4-4s1.793-4 4-4 4 1.795 4 4-1.793 4-4 4zm28 0c-2.207 0-4-1.795-4-4s1.793-4 4-4 4 1.795 4 4-1.793 4-4 4zm28 0c-2.207 0-4-1.795-4-4s1.793-4 4-4 4 1.795 4 4-1.793 4-4 4zm-20.089-120h32.178l-16.089 26.328zm11.4 34-17.312 28.328-17.312-28.328 17.312-28.328zm-39.311-7.672-16.089-26.328h32.178zm-4.689 7.672-17.312 28.328-17.312-28.328 17.312-28.328zm-39.311-7.672-16.089-26.328h32.178zm-4.689 7.672-17.312 28.328-17.312-28.328 17.312-28.328zm-39.311-7.672-16.089-26.328h32.178zm-4.689 7.672-15.311 25.055v-50.109zm4.689 7.672 16.089 26.328h-32.178zm44 0 16.089 26.328h-32.178zm44 0 16.089 26.328h-32.178zm44 0 16.089 26.328h-32.178zm4.688-7.672 15.311-25.055v50.109zm-144.688-50h148c5.208 0 9.606 3.354 11.263 8h-170.526c1.656-4.646 6.055-8 11.263-8zm148 100h-148c-5.208 0-9.606-3.354-11.263-8h170.526c-1.657 4.646-6.056 8-11.263 8z"/><path d="m110.17 160.933c5.516 0 10-4.486 10-10s-4.484-10-10-10-10 4.486-10 10 4.484 10 10 10zm0-12c1.102 0 2 .896 2 2s-.898 2-2 2-2-.896-2-2 .898-2 2-2z"/><path d="m198.17 160.933c5.516 0 10-4.486 10-10s-4.484-10-10-10-10 4.486-10 10 4.484 10 10 10zm0-12c1.102 0 2 .896 2 2s-.898 2-2 2-2-.896-2-2 .898-2 2-2z"/><path d="m154.17 160.933c5.516 0 10-4.486 10-10s-4.484-10-10-10-10 4.486-10 10 4.484 10 10 10zm0-12c1.102 0 2 .896 2 2s-.898 2-2 2-2-.896-2-2 .898-2 2-2z"/></g></svg>