<svg id="omkar" enable-background="new 0 0 300 300" height="512" viewBox="0 0 300 300" width="512" xmlns="http://www.w3.org/2000/svg"><g><circle cx="168" cy="209.999" r="4"/><circle cx="220" cy="37.999" r="4"/><path d="m150.829 215.171c-1.562-1.562-4.094-1.562-5.656 0l-3.173 3.172-3.172-3.172c-1.562-1.562-4.094-1.562-5.656 0s-1.562 4.094 0 5.656l3.172 3.172-3.172 3.172c-1.562 1.562-1.562 4.094 0 5.656.781.781 1.805 1.172 2.828 1.172s2.047-.391 2.828-1.172l3.172-3.172 3.172 3.172c.781.781 1.805 1.172 2.828 1.172s2.047-.391 2.828-1.172c1.562-1.562 1.562-4.094 0-5.656l-3.172-3.172 3.172-3.172c1.563-1.562 1.563-4.094.001-5.656z"/><path d="m244 45.999c-6.617 0-12 5.383-12 12s5.383 12 12 12 12-5.383 12-12-5.382-12-12-12zm0 16c-2.205 0-4-1.795-4-4s1.795-4 4-4 4 1.795 4 4-1.794 4-4 4z"/><path d="m240.108 221.858 11.814-59.074c.094-.465.104-.941.029-1.408l-11.137-70.541c-.811-5.121-5.162-8.836-10.344-8.836-1.58 0-3.063.377-4.407 1.007-12.625-31.925-43.28-53.007-78.063-53.007-34.816 0-65.45 21.067-78.072 53.002-1.342-.626-2.823-1.002-4.399-1.002-5.182 0-9.533 3.715-10.344 8.838l-11.137 70.539c-.074.467-.064.943.029 1.408l11.814 59.074-11.752 43.088c-.58 2.131.676 4.33 2.807 4.912.354.096.707.143 1.055.143 1.76 0 3.371-1.17 3.857-2.949l12-44c.162-.6.186-1.229.062-1.838l-11.859-59.297 11.025-69.832c.191-1.209 1.219-2.086 2.441-2.086 1.363 0 2.471 1.107 2.471 2.471v85.529c0 .51.098 1.014.285 1.486l8 20c.822 2.049 3.145 3.047 5.201 2.229 2.051-.822 3.049-3.148 2.229-5.201l-7.713-19.284v-39.23h.613c6.279 0 11.387 5.107 11.387 11.387v24.613c0 1.615.998 3.084 2.49 3.703.697.291 17.029 7.377 13.551 31.73-1.646 11.525-3.939 17.258-6.158 22.801-3.025 7.565-5.883 14.709-5.883 33.766 0 2.209 1.791 4 4 4s4-1.791 4-4c0-17.516 2.461-23.67 5.312-30.795 2.279-5.701 4.865-12.164 6.646-24.639 1.27-8.883.269-15.966-1.781-21.58 11.605 5.865 24.486 9.013 37.822 9.013 13.333 0 26.216-3.145 37.821-9.01-2.049 5.614-3.049 12.695-1.78 21.576 1.781 12.475 4.367 18.938 6.646 24.639 2.852 7.125 5.312 13.279 5.312 30.795 0 2.209 1.791 4 4 4s4-1.791 4-4c0-19.057-2.857-26.201-5.883-33.766-2.219-5.543-4.512-11.275-6.158-22.801-3.479-24.354 12.854-31.439 13.527-31.719 1.518-.609 2.514-2.08 2.514-3.715v-20-4.613c0-6.279 5.107-11.387 11.387-11.387h.615v39.23l-7.715 19.283c-.82 2.053.178 4.379 2.229 5.201 2.059.818 4.381-.18 5.201-2.229l8-20c.188-.473.285-.977.285-1.486v-85.526c0-1.363 1.107-2.471 2.471-2.471 1.223 0 2.25.877 2.441 2.084l11.025 69.834-11.859 59.297c-.123.609-.1 1.238.062 1.838l12 44c.486 1.779 2.098 2.949 3.857 2.949.348 0 .703-.047 1.055-.143 2.131-.582 3.387-2.781 2.807-4.912zm-52.108-103.859h-32c-2.209 0-4 1.791-4 4v32c0 2.205-1.795 4-4 4h-35.314c1.65-4.656 6.1-8 11.314-8h16c2.209 0 4-1.791 4-4v-24c0-2.209-1.791-4-4-4h-40c-2.205 0-4-1.795-4-4v-35.314c4.656 1.65 8 6.1 8 11.314v16c0 2.209 1.791 4 4 4h32c2.209 0 4-1.791 4-4v-36c0-2.205 1.795-4 4-4h35.314c-1.65 4.656-6.1 8-11.314 8h-16c-2.209 0-4 1.791-4 4v28c0 2.209 1.791 4 4 4h40c2.205 0 4 1.795 4 4v35.314c-4.656-1.65-8-6.1-8-11.314v-16c0-2.209-1.791-4-4-4zm31.387 12c-4.267 0-8.181 1.429-11.387 3.774v-19.774c0-6.617-5.383-12-12-12h-36v-20h12c11.027 0 20-8.973 20-20 0-2.209-1.791-4-4-4h-40c-6.617 0-12 5.383-12 12v32h-24v-12c0-11.027-8.973-20-20-20-2.209 0-4 1.791-4 4v40c0 6.617 5.383 12 12 12h36v16h-12c-11.027 0-20 8.973-20 20 0 2.209 1.791 4 4 4h40c6.617 0 12-5.383 12-12v-28h24v12c0 9.658 6.883 17.737 16 19.596v11.769c-14.142 13.292-32.549 20.635-52 20.635-19.454 0-37.854-7.344-52-20.638v-19.975c0-10.689-8.697-19.387-19.387-19.387h-.613s-.076-38.968-.219-39.654c10.25-31.338 39.148-52.346 72.219-52.346 33.038 0 61.97 21.011 72.222 52.335-.144.69-.222 39.665-.222 39.665z"/><circle cx="172" cy="93.999" r="4"/><circle cx="172" cy="133.999" r="4"/><circle cx="124" cy="93.999" r="4"/><circle cx="124" cy="133.999" r="4"/></g></svg>