<?xml version="1.0" encoding="UTF-8"?><svg xmlns="http://www.w3.org/2000/svg" viewBox="0 0 75.21 72.44"><defs><style>.cls-1{fill:#fff;}.cls-2{fill:#b3b3b3;}.cls-3{fill:#9a9a9a;}.cls-4{fill:gray;}.cls-5{fill:#4d4d4d;}.cls-6{mix-blend-mode:color-dodge;}.cls-7{isolation:isolate;}.cls-8{fill:#29abe2;opacity:.5;}</style></defs><g class="cls-7"><g id="Layer_2"><g id="circle_technology"><g><g class="cls-6"><path class="cls-2" d="M34.1,36.22c0-1.84,1.49-3.33,3.33-3.33s3.33,1.49,3.33,3.33-1.49,3.33-3.33,3.33-3.33-1.49-3.33-3.33Zm6.52,0c0-1.76-1.43-3.19-3.19-3.19s-3.19,1.43-3.19,3.19,1.43,3.19,3.19,3.19c1.76,0,3.19-1.43,3.19-3.19Z"/><path class="cls-2" d="M19.37,36.09v-.07h.58v.07c0,.12,0,.22,0,.31h0l-.57,.02h0c0-.11,0-.22,0-.34Zm0-.44h0c0-.15,0-.28,.01-.4h0l.58,.02h0c0,.12,0,.24-.01,.38l.02,.02h-.6Zm0,1.13l.57-.02h0c0,.14,.01,.26,.02,.39h0l-.56,.05h0c0-.14-.02-.28-.02-.4h0Zm.03-1.94c0-.13,.02-.26,.03-.39h.01l.56,.04h0c-.01,.15-.02,.27-.03,.39h0l-.57-.03h0Zm.02,2.7l.57-.05h0c.01,.15,.02,.27,.03,.39h0l-.57,.07h0c-.01-.12-.02-.25-.04-.4h0Zm.05-3.49h0c.02-.15,.03-.27,.05-.4h0l.57,.07h0c-.02,.13-.03,.25-.05,.38h0l-.57-.05Zm.03,4.26h0l.56-.08h0c.02,.13,.03,.25,.05,.38h0l-.57,.09h0c-.02-.13-.03-.26-.05-.39h0Zm.07-5.04h0c.02-.13,.04-.26,.06-.39h0l.57,.1c-.02,.12-.04,.25-.06,.37h-.01l-.56-.08Zm.04,5.8l.57-.1h0c.02,.13,.04,.26,.07,.38h0l-.57,.12h0c-.02-.14-.05-.27-.07-.39h0Zm.09-6.57h0c.03-.14,.05-.27,.08-.39h0l.56,.12h0c-.02,.11-.05,.24-.08,.38h0l-.56-.1Zm.05,7.33l.56-.12h.08l-.08,.02c.03,.14,.06,.25,.08,.36h0l-.56,.14h0c-.03-.13-.06-.26-.09-.39h0Zm.12-8.1h0c.03-.13,.06-.25,.1-.39h0l.55,.14h0c-.03,.13-.07,.25-.09,.37h0l-.56-.13Zm.06,8.85l.56-.15h0c.03,.13,.06,.25,.1,.37h.06l-.06,.02h-.01l-.54,.16h0c-.03-.13-.07-.25-.1-.39h0Zm.08-9.63h.06c.04-.12,.07-.25,.11-.37h.01l.54,.18h0c-.04,.13-.08,.25-.11,.35h-.01l-.6-.17Zm.13,10.37l.55-.17h.06l-.05,.02c.03,.11,.07,.23,.11,.35h0l-.55,.19h0c-.04-.14-.08-.26-.12-.38h0Zm.16-11.11h0c.04-.13,.08-.25,.13-.38h0l.54,.19h0c-.04,.13-.09,.25-.13,.37h0l-.54-.17Zm.09,11.84h0l.53-.2h0c.04,.13,.09,.25,.13,.36h0l-.54,.21h0c-.05-.13-.09-.26-.13-.37h0Zm.18-12.58v-.02c.05-.12,.1-.25,.15-.36h0l.53,.21h0c-.05,.12-.1,.24-.14,.36h0l-.53-.2Zm.09,13.3l.53-.22h0c.05,.13,.1,.25,.15,.36h0l-.53,.24h0c-.05-.13-.1-.25-.15-.37h0Zm.21-14.03h0c.05-.12,.1-.24,.16-.36h0l.52,.23h0c-.04,.1-.1,.23-.16,.35h0v0l-.53-.22Zm.1,14.74l.52-.24h0v.02h0c.05,.11,.1,.22,.16,.33h0l-.52,.26h0c-.06-.13-.11-.25-.16-.36h0Zm.23-15.45h0c.06-.12,.12-.24,.18-.36h0l.51,.26h0c-.07,.13-.12,.24-.17,.34h0l-.52-.25Zm.12,16.15h0l.5-.27h0c.06,.13,.12,.24,.17,.34h0l-.51,.28h0c-.06-.12-.12-.23-.18-.35h0Zm.25-16.84h0c.06-.12,.13-.24,.19-.35h.01l.49,.28h0c-.06,.11-.12,.22-.19,.34h0l-.5-.27Zm.12,17.52l.5-.28h0c.07,.13,.13,.23,.19,.33h.03l-.52,.3h0c-.07-.12-.13-.23-.2-.34h0Zm.27-18.21h0c.07-.12,.13-.23,.2-.33h.02l.5,.31h-.03c-.07,.1-.13,.21-.2,.32h0l-.49-.29Zm.13,18.87l.49-.3h0c.06,.11,.13,.21,.2,.32h0v.02h-.01l-.47,.31h-.01c-.07-.12-.14-.23-.21-.33h0Zm.29-19.53h0c.07-.11,.15-.22,.22-.33h0l.47,.32h0c-.07,.1-.14,.21-.21,.32h0l-.48-.31Zm.13,20.18l.47-.32h0c.06,.1,.14,.2,.22,.32h0l-.47,.34h0c-.07-.11-.15-.22-.22-.33h0Zm.31-20.82h0c.09-.13,.16-.22,.23-.31h.02l.45,.33h0c-.06,.09-.14,.2-.22,.31v.02l-.47-.34Zm.14,21.45l.46-.35h0c.07,.11,.15,.21,.23,.31h0l-.45,.36h0c-.08-.11-.16-.21-.24-.32h0Zm.33-22.08h0c.07-.1,.15-.2,.25-.31h0l.44,.36h0c-.09,.11-.16,.21-.24,.3h-.01l-.44-.35Zm.15,22.68l.44-.36h0c.09,.11,.17,.21,.24,.3h0l-.44,.39v-.02c-.08-.09-.16-.19-.25-.3h0Zm.35-23.29h0c.08-.1,.16-.19,.26-.3v-.02l.44,.41h-.02c-.09,.1-.17,.19-.25,.28h0l-.43-.37Zm.16,23.87l.43-.38h0c.08,.1,.17,.19,.25,.28h0l-.42,.4h-.01c-.09-.11-.18-.2-.26-.29h0Zm.37-24.46h0c.09-.1,.18-.2,.27-.29h0l.42,.41h-.02c-.09,.09-.17,.18-.26,.27h0l-.42-.39Zm.15,25.03l.02-.02,.4-.4h0c.09,.1,.18,.19,.26,.27h0l-.4,.42h0c-.09-.1-.18-.19-.27-.28h-.02Zm.39-25.58h0c.09-.09,.18-.18,.28-.27h0l.39,.42h0c-.09,.08-.17,.17-.27,.26h-.02l-.4-.4Zm.17,26.12h0l.4-.43v.02c.09,.08,.18,.17,.27,.25h0l-.39,.43h0c-.09-.08-.18-.17-.28-.26h0Zm.39-26.67h.02c.08-.07,.18-.16,.29-.25h0l.37,.43h0c-.1,.09-.19,.17-.28,.25h-.02l-.38-.43Zm.19,27.18l.38-.44h0c.09,.08,.18,.16,.29,.25h.02l-.38,.45h0c-.09-.08-.19-.16-.3-.25h0Zm.42-27.68h0c.11-.09,.2-.17,.3-.24h.02l.35,.44h0c-.1,.08-.19,.16-.3,.24h0l-.36-.44Zm.18,28.17l.36-.45h0c.09,.08,.19,.16,.3,.24h0l-.34,.46h0c-.11-.09-.21-.17-.31-.24h0Zm.43-28.66h0c.1-.08,.2-.15,.31-.23h0l.33,.46h0c-.1,.08-.2,.15-.3,.23v0h-.02l-.34-.46Zm.19,29.12l.34-.47h0c.09,.07,.19,.15,.31,.22h0l-.33,.48h0c-.1-.08-.21-.15-.32-.23h0Zm.44-29.58h0c.11-.08,.22-.15,.33-.22h0l.31,.48h0c-.1,.07-.2,.14-.31,.21h0l-.32-.47Zm.2,30.02l.32-.48h0c.1,.07,.2,.14,.31,.21h.02l-.32,.49h0c-.12-.08-.23-.15-.33-.21h0Zm.45-30.45h0c.1-.07,.21-.14,.33-.21h0l.29,.49h0c-.09,.06-.19,.12-.32,.2v.03l-.31-.51Zm.21,30.86l.3-.49h0c.1,.07,.21,.13,.33,.2h0l-.29,.5h0c-.1-.06-.21-.13-.34-.2h0Zm.46-31.26h0c.12-.07,.23-.13,.34-.19h0l.27,.5h0c-.11,.06-.22,.12-.33,.19h0l-.28-.5Zm.22,31.64h0l.27-.5h0c.11,.06,.22,.12,.34,.18h0l-.26,.52h0c-.12-.07-.23-.12-.33-.18v.02l-.02-.03Zm.47-32h0c.11-.06,.22-.12,.35-.18h0l.25,.52h0c-.12,.06-.23,.12-.34,.17h0l-.26-.51Zm.22,32.36l.13-.26h0l.13-.26h.02c.11,.06,.22,.12,.33,.16h0l-.24,.53h0c-.12-.06-.24-.12-.35-.17h0Zm.48-32.7h0c.13-.06,.24-.11,.36-.16h0l.23,.53h0c-.11,.05-.23,.1-.34,.16h0l-.24-.52Zm.23,33.03l.23-.53h0c.1,.05,.21,.09,.35,.15h0l-.22,.53h0c-.13-.06-.25-.11-.36-.16h0Zm.48-33.34h0c.11-.05,.23-.1,.36-.15h0l.2,.53h0c-.12,.05-.23,.09-.35,.14h0l-.21-.53Zm.24,33.63l.21-.54h0c.12,.05,.24,.09,.35,.14h.01l.04,.02h-.05l-.19,.53h0c-.13-.05-.25-.09-.37-.14h0Zm.49-33.91h0c.13-.05,.25-.09,.37-.13h0l.18,.54h0c-.12,.04-.24,.08-.36,.12h0l-.19-.54Zm.25,34.17l.18-.55h0c.12,.04,.24,.08,.36,.12h0l-.17,.55h0c-.12-.04-.24-.08-.37-.12h0Zm.49-34.41h0c.12-.05,.24-.08,.38-.12h0l.16,.55h0c-.12,.04-.24,.07-.35,.11v.06l-.18-.59Zm.25,34.64l.16-.55h0c.12,.04,.24,.07,.36,.1h0l-.16,.62v-.07c-.11-.03-.23-.06-.37-.1h0Zm.5-34.86h0c.15-.04,.27-.07,.38-.09h0l.13,.56h-.01c-.11,.03-.23,.06-.36,.09h0l-.14-.56Zm.25,35.05l.14-.56h0l.02-.02v.02c.11,.03,.23,.06,.35,.08h0l.08,.02h-.08l-.12,.55h0c-.12-.03-.25-.06-.38-.09h0Zm.5-35.23h0c.13-.03,.25-.05,.38-.08h0l.11,.56h0c-.11,.02-.23,.05-.37,.07h0l-.12-.56Zm.26,35.4h0l.11-.57h0c.13,.03,.25,.06,.37,.08h0l-.1,.57h0c-.15-.03-.27-.05-.38-.07h0Zm.51-35.54h0c.12-.02,.24-.04,.39-.06h0l.08,.57h0c-.11,.02-.22,.03-.37,.06h0l-.09-.57Zm.26,35.67h0l.08-.57h0c.12,.02,.25,.04,.37,.05v-.03l.02,.04-.07,.56h0c-.12-.02-.26-.04-.39-.06h0Zm.51-35.78v-.04l.02,.03c.12-.02,.25-.03,.38-.04h.01l.06,.57h0c-.12,.01-.25,.03-.37,.04h-.02l-.07-.56Zm.26,35.88l.06-.57h0c.12,.01,.25,.03,.38,.04h0l-.05,.57h0c-.15-.01-.27-.03-.39-.04h0Zm.51-35.96h0c.14-.01,.26-.02,.39-.03h0l.03,.56h0c-.12,.02-.25,.02-.38,.03h0l-.05-.57Zm.26,36.03h0l.05-.57h0c.12,0,.24,.02,.37,.02h0l-.02,.57h0c-.13,0-.25,0-.39-.01h0Zm.51-36.08h0c.13,0,.26,0,.39,0h0v.58h0c-.12,0-.24,0-.38,0h-.01l-.02-.58Zm.26,36.11v-.58h.02c.14,0,.26,0,.38,0h0v.58c-.13,0-.26,0-.4,0h0Zm.51-35.55v-.58h.01c.12,0,.25,0,.39,0h0l-.02,.58h0c-.14,0-.26,0-.38,0h0Zm.01,34.97h0c.12,0,.25,0,.38,0h0l.02,.58h0c-.13,0-.26,0-.39,0h0v-.58Zm.73-34.95l.03-.58h0c.14,0,.27,.02,.39,.03h0l-.04,.57h0c-.14,0-.26-.02-.38-.02h0Zm.02,34.93h0c.13,0,.26-.02,.38-.02h0l.04,.57h0c-.14,.01-.27,.02-.39,.02h-.01l-.03-.57Zm.74-34.88h0l.05-.57h0c.15,.02,.28,.03,.39,.04h0l-.07,.57h0c-.14-.02-.26-.03-.38-.04h0Zm.01,34.83h0c.12-.01,.25-.03,.38-.04h0l.07,.57h0c-.13,.02-.26,.03-.39,.04h0l-.05-.57Zm.74-34.74l.08-.57h0c.12,.02,.25,.04,.39,.06h0l-.09,.57h0c-.12-.02-.25-.04-.37-.06h0Zm.01,34.65h0c.12-.02,.24-.03,.36-.06h.02l.09,.57h0c-.12,.02-.25,.04-.39,.06h0l-.08-.57Zm.73-34.54l.1-.57h0c.12,.02,.24,.05,.38,.07h0l-.11,.57h0c-.12-.03-.25-.05-.37-.07h0Zm.01,34.42h0c.11-.02,.24-.05,.37-.07h0l.12,.56h0c-.13,.03-.26,.05-.38,.07h0l-.1-.57Zm.73-34.28h0l.13-.55h0c.13,.03,.26,.06,.38,.09h0l-.14,.56h0c-.13-.04-.25-.06-.35-.09v.02l-.02-.03Zm.01,34.13h0c.13-.04,.25-.07,.37-.09h0l.14,.55h0c-.12,.03-.25,.07-.38,.09h0l-.13-.55Zm.72-33.94l.15-.56h0c.15,.04,.26,.08,.37,.11h0l-.16,.55h0c-.15-.05-.26-.08-.36-.11h0Zm.01,33.75h0c.11-.03,.22-.06,.36-.11h0l.16,.55h0c-.13,.04-.26,.08-.38,.11h0l-.15-.55Zm.71-33.55h0l.17-.54h0c.13,.04,.25,.08,.37,.13h0l-.19,.55h0c-.11-.04-.23-.08-.35-.12v-.01Zm0,33.34h0c.11-.04,.23-.08,.36-.12h0l.19,.54h0c-.14,.05-.26,.09-.37,.12h0l-.17-.54Zm.7-33.08l.21-.54h0c.15,.05,.25,.1,.36,.14h.01v.02l-.21,.53h0c-.1-.05-.22-.1-.35-.14h0Zm.01,32.84v-.01c.13-.04,.25-.09,.36-.13h.01l.21,.53h0c-.14,.06-.26,.1-.36,.14h0l-.2-.53Zm.69-32.57h0l.22-.53h0c.12,.05,.24,.11,.36,.16h0l-.23,.53h0c-.11-.05-.23-.1-.35-.15h-.01Zm0,32.28h.01c.12-.05,.23-.1,.33-.15l-.02-.04,.04,.04,.23,.52h0c-.11,.05-.22,.1-.36,.16h-.01l-.22-.53Zm.69-31.98l.24-.52h0c.11,.06,.23,.11,.35,.17h0l-.25,.52h0c-.1-.06-.21-.11-.34-.17h0Zm0,31.68h0c.11-.06,.22-.11,.33-.16h.02l.25,.51h0c-.13,.07-.24,.12-.35,.17h0l-.25-.52Zm.67-.33h0c.11-.06,.21-.12,.33-.18v-.03l.29,.53h0c-.11,.07-.23,.13-.34,.19h0l-.27-.5Zm0-31.01l.27-.51h0c.1,.06,.22,.12,.34,.19h0l-.28,.51h0c-.1-.06-.21-.12-.33-.18h0Zm.66,30.64h0c.12-.07,.22-.14,.32-.2h0l.3,.49h0c-.11,.07-.22,.14-.33,.2v.03l-.3-.52Zm0-30.28l.29-.5h0c.12,.07,.23,.14,.34,.21h0l-.3,.5h0c-.1-.07-.21-.13-.33-.2h0Zm.64,29.88h0c.12-.08,.22-.15,.31-.21h0l.32,.47h0c-.1,.07-.21,.15-.33,.22h0l-.31-.48Zm0-29.5l.31-.48h.01c.1,.07,.2,.14,.32,.21h0l-.32,.48h0c-.11-.08-.21-.15-.32-.21h0Zm.62,29.07l.02-.03h0c.09-.05,.18-.12,.29-.2h0l.34,.46h0c-.1,.08-.2,.15-.31,.23h-.02l-.32-.46Zm0-28.66l.33-.47h0c.1,.08,.21,.15,.32,.23h0l-.34,.47h0c-.09-.07-.19-.15-.31-.23h0Zm.6,28.21h0c.09-.07,.18-.14,.29-.23h.02l.35,.44h0c-.1,.09-.21,.17-.31,.25h-.01l-.35-.45Zm.01-27.77h0l.34-.45h0c.11,.09,.21,.17,.3,.24h0v.02h0l-.37,.46v-.02c-.1-.08-.19-.15-.29-.22h-.01Zm.57,27.27h.02c.1-.08,.19-.16,.28-.24h0l.38,.43h0c-.09,.09-.19,.17-.3,.26h0l-.38-.44Zm.02-26.81l.37-.44h0c.08,.08,.18,.16,.29,.25v.02h0l-.37,.43h0c-.1-.09-.19-.17-.29-.25h0Zm.56,26.32h0c.09-.09,.18-.17,.28-.26h0l.4,.41h0c-.1,.1-.2,.19-.28,.27h0l-.39-.42Zm0-25.83l.39-.42h0c.1,.09,.19,.18,.28,.27h0l-.41,.43v-.02c-.1-.1-.19-.18-.27-.26h0Zm.53,25.3h0c.1-.11,.19-.2,.26-.28h0l.41,.39v.02h0c-.08,.07-.17,.16-.26,.26h0l-.41-.4Zm0-24.79l.41-.41h0c.08,.09,.17,.17,.27,.28h0l-.41,.41h0c-.09-.1-.17-.19-.26-.28h0Zm.51,24.24h0c.08-.09,.16-.19,.25-.29h0l.43,.37h0c-.08,.1-.17,.2-.26,.3h0l-.42-.38Zm0-23.7l.43-.4v.02c.09,.1,.18,.2,.26,.29h0l-.43,.39h0c-.07-.09-.16-.18-.25-.29h0Zm.49,23.13v-.03h0c.08-.09,.16-.18,.23-.27h0l.45,.35h0c-.08,.11-.16,.21-.25,.3v.02l-.44-.37Zm0-22.57h0l.43-.38h0c.09,.11,.17,.21,.25,.31h0l-.45,.37h0c-.09-.12-.17-.21-.24-.3h0Zm.46,21.97h0c.08-.11,.15-.21,.23-.31h0l.46,.34v.02h0c-.08,.1-.16,.21-.23,.29h0l-.45-.34Zm0-21.4l.46-.35h0c.08,.11,.16,.21,.23,.32h0l-.46,.35h0c-.08-.11-.16-.21-.23-.31h0Zm.44,20.78h0c.08-.12,.15-.22,.21-.32h.01l.46,.32v.02h0c-.07,.1-.15,.21-.21,.3h0l-.47-.32Zm0-20.19l.47-.33h0c.07,.11,.14,.21,.22,.33h0l-.47,.33h0c-.07-.12-.14-.22-.21-.32h0Zm.42,19.55h0c.08-.13,.14-.23,.2-.32v-.02l.49,.31h0c-.07,.11-.14,.22-.2,.33h-.02l-.48-.3Zm0-18.93l.48-.31h0c.07,.12,.14,.23,.21,.34h0l-.48,.31h-.01c-.07-.12-.13-.22-.2-.32h0Zm.39,18.28h0c.06-.12,.12-.22,.19-.34h0l.5,.27h0c-.06,.12-.13,.23-.19,.35h0l-.5-.28Zm0-17.65l.5-.29h0c.07,.14,.13,.24,.18,.33v.03h0l-.49,.28h0c-.06-.11-.12-.22-.19-.34h0Zm.34,.66l.53-.28h0c.06,.12,.12,.24,.18,.35h0l-.51,.27h0c-.05-.11-.11-.22-.17-.34h-.03Zm.02,16.32h0c.06-.12,.11-.23,.17-.35h0l.51,.25h0c-.06,.12-.12,.24-.18,.35h0l-.51-.26Zm.34-15.66l.52-.25h0c.06,.14,.11,.26,.16,.36h0l-.52,.24h0c-.06-.13-.11-.25-.16-.35h0Zm0,14.98h0c.05-.11,.1-.22,.16-.35h0l.53,.23h0c-.06,.14-.11,.25-.16,.35h-.02l-.51-.23Zm.31-14.3l.53-.22h0c.05,.12,.1,.24,.15,.37h0l-.53,.22h0c-.04-.11-.09-.23-.14-.36h0Zm0,13.6h0c.05-.13,.1-.24,.14-.36h0l.53,.2h0c-.05,.13-.1,.26-.15,.37h0l-.53-.21Zm.28-12.9h0l.53-.21h0c.04,.13,.09,.25,.13,.38h0l-.54,.2h0c-.04-.12-.08-.23-.13-.36h0Zm0,12.2h0c.05-.14,.09-.26,.13-.36h0l.54,.19v.02c-.05,.12-.09,.23-.13,.35h0l-.54-.19Zm.24-11.49l.55-.18h0c.04,.13,.08,.26,.12,.38h0l-.55,.17h0c-.03-.12-.07-.24-.11-.37h0Zm0,10.77h0c.04-.12,.07-.24,.11-.37h0l.55,.16h0c-.03,.12-.07,.24-.12,.38h0l-.55-.17Zm.21-10.06l.55-.15h0c.03,.13,.07,.25,.1,.38h0l-.56,.15h0c-.03-.13-.06-.25-.1-.37h0Zm0,9.33h0c.03-.12,.06-.24,.1-.38h0l.56,.13h0c-.03,.14-.07,.27-.1,.39h0l-.56-.14Zm.18-8.6l.56-.13h0c.03,.13,.06,.26,.08,.39h0l-.56,.13h0c-.03-.15-.05-.27-.08-.38h0Zm0,7.86h0c.03-.13,.06-.26,.08-.38h0l.56,.11h0c-.02,.13-.05,.25-.08,.39h0l-.56-.12Zm.15-7.13h0l.56-.12h0c.02,.15,.05,.27,.07,.4h0l-.57,.1h0c-.02-.13-.04-.26-.07-.38h0Zm0,6.39h0c.02-.13,.04-.25,.07-.38h0l.56,.08h0c-.02,.12-.04,.24-.07,.39h0l-.56-.09Zm.12-5.64h0l.55-.09h.01c.02,.12,.03,.25,.05,.39h0l-.56,.08h0c-.01-.12-.03-.25-.05-.38Zm0,4.9h0c.02-.13,.03-.25,.05-.38h0l.57,.06h0c-.01,.13-.03,.26-.05,.4h0l-.57-.07Zm.09-4.15h0l.56-.07h0c.01,.16,.02,.28,.03,.4h0l-.56,.05h0c0-.14-.02-.26-.03-.39h0Zm0,3.4h0c.01-.16,.02-.28,.03-.39h0l.57,.04c-.01,.15-.02,.27-.03,.39h0l-.57-.05Zm.06-2.65h0l.57-.04h0c0,.13,.01,.26,.02,.4h0l-.57,.03h0c0-.14,0-.26-.02-.39h0Zm0,1.9h0c0-.14,.01-.27,.02-.39h.58v.02c0,.15-.01,.27-.02,.39h0l-.57-.02Zm.02-.76h0c0-.14,0-.26,0-.39h.58c0,.12,0,.25,0,.38h-.57Z"/><path class="cls-2" d="M24.42,36.09h.14c0,.19,0,.39,.01,.58h-.14c0-.19-.01-.38-.01-.58Zm.02,.78h.14c.04,.7,.14,1.4,.3,2.08l-.14,.03c-.16-.69-.26-1.4-.3-2.12Zm.15-2.91c.01-.06,.02-.13,.03-.19l.14,.03c-.01,.06-.02,.13-.03,.19l-.14-.02Zm.15-.76c.16-.69,.37-1.38,.64-2.04l.13,.05c-.27,.65-.48,1.33-.64,2.02l-.14-.03Zm.15,6.35l.14-.04c.02,.06,.03,.12,.05,.19l-.14,.04c-.02-.06-.04-.12-.05-.19Zm.57-8.57c.08-.18,.16-.36,.24-.53l.13,.06c-.08,.17-.16,.35-.24,.53l-.13-.06Zm.25,10.75l.13-.06c.08,.17,.17,.34,.26,.51l-.13,.07c-.09-.17-.18-.34-.26-.52Zm.36,.69l.13-.07c.34,.61,.74,1.2,1.18,1.75l-.11,.09c-.44-.56-.85-1.15-1.19-1.77Zm.72-13.82c.04-.05,.08-.11,.11-.16l.12,.08c-.04,.05-.08,.1-.11,.16l-.12-.08Zm.47-.62c.44-.56,.94-1.08,1.46-1.56l.1,.11c-.52,.47-1.01,.99-1.45,1.54l-.11-.09Zm.38,16.66l.11-.09s.08,.1,.13,.14l-.11,.1s-.09-.1-.13-.15Zm1.23-18.35c.15-.13,.3-.25,.45-.37l.09,.11c-.15,.12-.3,.24-.44,.37l-.09-.11Zm.45,19.96l.09-.11c.15,.12,.3,.24,.46,.35l-.08,.12c-.16-.11-.31-.23-.46-.35Zm.62,.47l.08-.12c.58,.41,1.19,.77,1.82,1.07l-.06,.13c-.64-.31-1.26-.67-1.84-1.08Zm1.14-21.99c.06-.03,.11-.06,.17-.09l.07,.13c-.06,.03-.11,.06-.17,.09l-.07-.13Zm.69-.36c.64-.31,1.31-.57,1.99-.77l.04,.14c-.67,.2-1.34,.45-1.97,.76l-.06-.13Zm.54,23.68l.06-.13c.06,.03,.12,.05,.18,.07l-.05,.13c-.06-.02-.12-.05-.18-.08Zm1.64-24.5c.19-.05,.38-.1,.57-.14l.03,.14c-.19,.04-.37,.09-.56,.14l-.04-.14Zm.58,25.22l.03-.14c.19,.04,.38,.08,.57,.12l-.03,.14c-.19-.03-.38-.07-.57-.12Zm.76,.15l.02-.14c.69,.11,1.4,.17,2.11,.17h.03v.14h-.03c-.72,0-1.43-.06-2.13-.17Zm1.34-25.81c.06,0,.13,0,.19-.01v.14c-.06,0-.12,0-.19,.01v-.14Zm.77-.02h.02c.71,0,1.42,.06,2.11,.17l-.02,.14c-.69-.11-1.39-.17-2.09-.17l-.02-.14Zm.62,25.85c.06,0,.13,0,.19-.01v.14c-.06,0-.12,0-.19,.01v-.14Zm1.67-25.51l.03-.14c.19,.03,.38,.07,.57,.12l-.03,.14c-.19-.04-.38-.08-.57-.11Zm.61,25.2c.19-.04,.37-.09,.56-.14l.04,.14c-.19,.05-.38,.1-.57,.14l-.03-.14Zm.74-.19c.68-.2,1.34-.46,1.97-.76l.06,.13c-.64,.31-1.31,.57-1.99,.77l-.04-.14Zm1.23-24.25l.05-.13c.06,.02,.12,.05,.18,.08l-.06,.13c-.06-.02-.12-.05-.18-.07Zm.7,.31l.06-.13c.64,.31,1.26,.67,1.84,1.08l-.08,.12c-.58-.41-1.19-.77-1.82-1.07Zm.55,22.91c.06-.03,.11-.06,.17-.09l.07,.13c-.06,.03-.11,.06-.17,.09l-.07-.13Zm1.43-21.73l.08-.12c.16,.11,.31,.23,.46,.35l-.09,.11c-.15-.12-.3-.24-.46-.35Zm.49,20.46c.15-.12,.3-.24,.44-.37l.09,.11c-.15,.13-.3,.25-.45,.37l-.09-.11Zm.59-.5c.52-.47,1.01-.99,1.45-1.54l.11,.09c-.44,.56-.94,1.08-1.46,1.56l-.1-.11Zm.92-18.16l.11-.1s.09,.1,.13,.15l-.11,.09s-.08-.1-.13-.14Zm.5,.59l.11-.09c.44,.56,.85,1.15,1.19,1.77l-.13,.07c-.34-.61-.74-1.2-1.18-1.75Zm.37,15.57c.04-.05,.08-.1,.11-.16l.12,.08c-.04,.05-.07,.11-.11,.16l-.12-.08Zm.9-13.65l.13-.07c.09,.17,.18,.34,.27,.52l-.13,.06c-.08-.17-.17-.34-.26-.51Zm.28,11.67c.08-.17,.16-.35,.24-.53l.13,.06c-.08,.18-.16,.36-.24,.53l-.13-.06Zm.31-.7c.27-.65,.48-1.33,.63-2.02l.14,.03c-.16,.69-.37,1.38-.64,2.04l-.13-.05Zm.43-8.48l.14-.04c.02,.06,.04,.12,.05,.19l-.14,.04c-.02-.06-.03-.12-.05-.18Zm.19,.74l.14-.03c.16,.69,.26,1.4,.3,2.12h-.14c-.04-.69-.14-1.4-.3-2.08Zm.12,5.16c.01-.06,.02-.13,.03-.19l.14,.02c-.01,.06-.02,.13-.03,.19l-.14-.03Zm.19-2.87h.14c0,.19,.01,.38,.01,.58h-.14c0-.19,0-.39-.01-.58Z"/><path class="cls-2" d="M29.67,36.33c0-1.45,.4-2.86,1.16-4.08l.21,.13c-.73,1.19-1.12,2.55-1.12,3.95h-.24Zm.07,1.08l.24-.03c.03,.23,.07,.46,.13,.68l-.24,.06c-.05-.23-.1-.47-.13-.7Zm1.49-5.75c.22-.28,.45-.56,.7-.81l.17,.17c-.24,.25-.47,.51-.68,.79l-.19-.15Zm.72,10.16l.17-.17c.25,.25,.51,.48,.79,.68l-.15,.19c-.28-.21-.56-.45-.81-.71Zm1.4,1.11l.13-.21c1.19,.74,2.55,1.12,3.96,1.12h.03v.24h-.03c-1.45,0-2.86-.4-4.08-1.16Zm2.29-14.16c.23-.05,.47-.1,.7-.13l.03,.24c-.23,.03-.46,.08-.68,.13l-.06-.24Zm1.78-.21h.02c1.44,0,2.85,.4,4.07,1.15l-.13,.21c-1.18-.73-2.55-1.12-3.94-1.12l-.02-.24Zm1.08,15.21c.23-.03,.46-.08,.68-.13l.06,.24c-.23,.06-.47,.1-.7,.13l-.03-.24Zm3.45-13.46l.15-.19c.29,.22,.56,.45,.81,.7l-.17,.17c-.25-.24-.51-.47-.79-.68Zm.82,11.31c.24-.24,.47-.51,.68-.79l.19,.15c-.22,.29-.45,.56-.7,.81l-.17-.17Zm1.07-1.36c.73-1.18,1.11-2.54,1.11-3.94l.24-.02v.02c0,1.44-.4,2.84-1.15,4.06l-.21-.13Zm.91-5.68l.24-.06c.05,.23,.1,.47,.13,.7l-.24,.03c-.03-.23-.08-.46-.13-.68Z"/><path class="cls-2" d="M37.43,38.61c-1.4,0-2.53-1.13-2.53-2.53s1.13-2.53,2.53-2.53,2.53,1.13,2.53,2.53-1.13,2.53-2.53,2.53Z"/><path class="cls-2" d="M9.06,36.22c0-1.78,.16-3.55,.49-5.29h.01l.93,.17h0c-.57,3.07-.62,6.3-.14,9.38h0c.02,.13,.04,.26,.06,.37h0l-.95,.17h0c-.02-.13-.04-.26-.06-.39h0c-.22-1.45-.34-2.94-.34-4.41Zm.57-5.66v-.02l.92,.18v.02l-.92-.18Zm3.06,19.59l.82-.46v.02l-.81,.46v-.02Zm.17,.34l.83-.48h0c1.58,2.74,3.59,5.17,5.99,7.22,.09,.08,.18,.15,.29,.24l.02,.02h-.02l-.6,.73h0c-.1-.09-.2-.18-.3-.26-2.48-2.13-4.57-4.64-6.2-7.46h0Zm.25-28.99h0c.07-.12,.13-.23,.2-.34,1.72-2.77,3.88-5.22,6.42-7.27h0l.6,.74h0c-2.46,1.99-4.55,4.35-6.21,7.03-.07,.11-.13,.22-.2,.32h0l-.82-.48Zm6.93-7.84v-.02l.6,.75h-.02l-.58-.73Zm7.7,49.4l.33-.88h.02l-.33,.89h-.02Zm.36,.14l.32-.9h0c2.96,1.05,6.07,1.59,9.24,1.59h0v.96c-3.29,0-6.51-.55-9.57-1.64h0Zm.47-54.15h0c.14-.05,.26-.09,.37-.12,2.81-.9,5.75-1.35,8.72-1.35,.29,0,.59,0,.88,.01h0l-.03,.96h0c-.28,0-.56-.01-.85-.01-2.88,0-5.72,.44-8.43,1.31-.12,.04-.24,.08-.36,.12h-.01l-.3-.91Zm10.32-.5l.04-.94h.02l-.04,.94h-.02Zm6.03,54.38v-.07l.26,.98v.07l-.26-.98Zm.36-.11h0c3.03-.87,5.87-2.24,8.44-4.08,.09-.07,.19-.14,.3-.22h0l.57,.76h0c-.11,.09-.22,.17-.32,.23-2.66,1.9-5.6,3.32-8.73,4.22h0l-.26-.92Zm2.77-52.27l.36-.89h0c.1,.04,.23,.1,.36,.15,3,1.27,5.75,3.03,8.17,5.23h0l-.65,.72h0c-2.34-2.14-4.99-3.84-7.89-5.06-.12-.05-.24-.1-.35-.15h0Zm8.53,5.44l.64-.69h.01l-.64,.7h-.01Zm3.97,35.78v-.02l.79,.53v.02l-.79-.53Zm.2-.32h0c1.74-2.64,3.01-5.53,3.77-8.59,.03-.11,.05-.22,.09-.37h0l.93,.21h0c-.03,.13-.06,.26-.09,.39h0c-.78,3.17-2.1,6.15-3.9,8.88h0l-.8-.52Zm1.49-28h0l.84-.44h0c.07,.13,.12,.25,.18,.35h0c1.46,2.92,2.41,6.04,2.81,9.28h0l-.94,.13h0c-.39-3.14-1.3-6.16-2.71-8.98-.06-.11-.12-.23-.17-.34h0Zm2.93,9.69v-.02l.94-.1v.02l-.94,.1Z"/><path class="cls-2" d="M12.02,36.19h0c0-3.36,.65-6.62,1.92-9.7,1.22-2.97,2.98-5.66,5.21-7.99h0l.69,.66h0c-4.41,4.61-6.85,10.65-6.86,17.02h-.96Zm0,.18h.96c0,.12,0,.25,0,.38h0l-.95,.03h0c0-.13,0-.26,0-.4h0Zm7.39-18.15h0c.05-.05,.09-.1,.14-.14h0l.68,.67h0c-.04,.05-.09,.1-.13,.14h0l-.68-.67Zm.08,36.06h0l.67-.67h.01s.09,.09,.13,.13h0l-.67,.69h0l-.11-.12-.04-.03Zm.42,.41l.66-.69h0c4.6,4.41,10.65,6.84,17.02,6.84h0v.96c-3.36,0-6.62-.64-9.7-1.9-2.97-1.22-5.66-2.97-7.99-5.2h0ZM37.09,10.64h0c.13,0,.26,0,.39,0h0v.96c-.13,0-.25,0-.38,0h0l-.02-.96Zm.54,50.21h0c.12,0,.24,0,.38,0h0l.02,.96h0c-.14,0-.27,0-.39,0h0v-.96Zm.04-49.26v-.96c3.36,0,6.62,.66,9.7,1.93,2.97,1.23,5.66,2.98,7.98,5.22h0l-.67,.7h0c-4.59-4.43-10.63-6.87-17-6.89h0Zm17.25,42.14h0s.06-.07,.09-.09l.05-.05,.68,.68-.03,.03s-.08,.07-.11,.11h0l-.68-.68Zm.02-35.01h.02l.67-.67h0s.08,.09,.12,.13l.02,.02-.68,.67h0c-.04-.05-.09-.1-.13-.14l-.02-.02Zm.38,34.61h0c4.43-4.59,6.88-10.63,6.91-17h.96c-.02,3.36-.67,6.62-1.94,9.69-1.23,2.97-2.99,5.65-5.24,7.97h0l-.69-.66Zm6.91-17.57h0l.95-.03h0c0,.13,0,.26,0,.4h-.96c0-.12,0-.25,0-.37Z"/><path class="cls-2" d="M0,25.52v-.11c1-2.89,2.35-5.67,4.01-8.27l.06-.09,.09,.05,10.81,6.94-.05,.08c-1.12,1.74-2.01,3.58-2.67,5.5v.07h-.03v.02l-.11-.02L0,25.52Zm4.13-8.2c-1.62,2.54-2.94,5.25-3.92,8.07l11.84,4.09h.05c.65-1.86,1.53-3.67,2.61-5.36l-10.58-6.8Zm6.96,49.96l.16-.18,8.43-9.73,.07,.09c1.54,1.33,3.24,2.49,5.05,3.42l.1,.04-.05,.11-5.89,11.41-.1-.04c-2.71-1.4-5.26-3.12-7.57-5.12h-.2Zm8.59-9.62l-8.23,9.5c2.27,1.96,4.77,3.65,7.42,5.03l5.77-11.17c-1.78-.92-3.44-2.05-4.96-3.36ZM41.3,12.73v-.1L43.71,0l.09,.02c3.03,.57,5.97,1.51,8.77,2.78l.09,.04-.03,.1-.09-.03,.09,.04-5.32,11.69-.08-.03c-1.87-.85-3.83-1.47-5.83-1.85l-.1-.02ZM43.86,.22l-2.34,12.35c1.97,.38,3.88,.99,5.7,1.81l5.21-11.45c-2.74-1.24-5.62-2.15-8.56-2.72Zm11.28,55.53l.11-.07c1.4-1.48,2.62-3.12,3.64-4.89l.02-.02,.06-.07,.07,.05,11.12,6.39-.03,.1c-1.53,2.66-3.38,5.13-5.48,7.36l-.08,.08-.07-.07-9.35-8.87Zm3.87-4.79c-1,1.73-2.2,3.34-3.58,4.8l9.13,8.65c2.05-2.18,3.85-4.59,5.36-7.18l-10.9-6.27Zm5.56,13.58h0Zm-4.64-37.33l.03-.05,.06-.04,.04-.05v.02l11.62-5.34,.04,.08c1.29,2.8,2.23,5.74,2.82,8.76v.03l-.03,.07-.05,.02-12.6,2.45-.03-.09c-.38-1.95-.98-3.84-1.8-5.65l-.06,.08-.03-.3Zm11.65-5.2l-11.43,5.26c.83,1.82,1.45,3.73,1.83,5.69l12.34-2.4c-.58-2.94-1.5-5.82-2.75-8.54Zm-10.36,23.28l.06-.11c.56-1.93,.89-3.95,.98-6.01v-.09h.1l12.85,.55v.09c-.13,3.09-.63,6.13-1.49,9.07l-.02,.11-.1-.02-12.39-3.59Zm1.23-6.02c-.1,2.02-.42,4-.97,5.9l12.07,3.5c.83-2.87,1.32-5.85,1.45-8.85l-12.56-.55Z"/><g><g><rect class="cls-2" x="37.36" y="35.78" width="30.22" height=".04"/><polygon class="cls-2" points="67.36 36.08 67.48 35.8 67.36 35.52 68.03 35.8 67.36 36.08"/></g><g><polygon class="cls-2" points="37.35 35.79 61.14 17.16 61.16 17.19 37.37 35.82 37.35 35.79"/><polygon class="cls-2" points="61.16 17.53 61.08 17.23 60.81 17.08 61.51 16.89 61.16 17.53"/></g><g><polygon class="cls-2" points="37.34 35.8 44.59 6.46 44.63 6.47 37.38 35.81 37.34 35.8"/><polygon class="cls-2" points="44.84 6.74 44.59 6.56 44.29 6.61 44.72 6.02 44.84 6.74"/></g><g><rect class="cls-2" x="23.97" y="13.65" width=".04" height="30.22" transform="translate(-12.64 36.55) rotate(-62.17)"/><polygon class="cls-2" points="10.95 21.56 10.71 21.76 10.68 22.07 10.22 21.5 10.95 21.56"/></g><g><polygon class="cls-2" points="7.62 41.17 37.35 35.78 37.36 35.82 7.63 41.21 7.62 41.17"/><polygon class="cls-2" points="7.79 40.87 7.72 41.17 7.89 41.43 7.17 41.27 7.79 40.87"/></g><g><polygon class="cls-2" points="17.25 58.36 37.34 35.79 37.37 35.81 17.28 58.38 17.25 58.36"/><polygon class="cls-2" points="17.2 58.02 17.33 58.3 17.62 58.4 16.96 58.71 17.2 58.02"/></g><g><polygon class="cls-2" points="35.43 65.96 37.34 35.8 37.38 35.8 35.47 65.96 35.43 65.96"/><polygon class="cls-2" points="35.18 65.72 35.45 65.86 35.74 65.76 35.42 66.41 35.18 65.72"/></g><g><rect class="cls-2" x="51.75" y="25.24" width=".04" height="30.22" transform="translate(-2.37 77.46) rotate(-72.36)"/><polygon class="cls-2" points="65.88 45.1 66.08 44.87 66.05 44.56 66.61 45.03 65.88 45.1"/></g></g><g><g><g><path class="cls-2" d="M13.47,36.08c0-1.28,.12-2.59,.33-3.9h.04c-.21,1.32-.32,2.63-.33,3.9,0,1.31,.11,2.63,.3,3.9,.19,1.21,.5,2.49,.93,3.8,.42,1.28,.94,2.49,1.54,3.6,.61,1.15,1.32,2.26,2.1,3.3,.74,.99,1.62,1.97,2.61,2.92,.99,.94,2.01,1.77,3.04,2.46,1.08,.73,2.22,1.38,3.4,1.94l-.02,.03c-1.18-.55-2.33-1.21-3.41-1.94-1.03-.7-2.05-1.53-3.04-2.47-.99-.95-1.87-1.93-2.61-2.92-.78-1.04-1.49-2.16-2.1-3.31-.6-1.12-1.12-2.33-1.54-3.61-.43-1.31-.75-2.59-.94-3.81-.2-1.28-.3-2.59-.3-3.91Z"/><polygon class="cls-2" points="14.09 32.45 13.8 32.28 13.46 32.35 13.9 31.71 14.09 32.45"/></g><g><path class="cls-2" d="M17.4,41.33h.04c1.13,4.43,3.74,8.41,7.32,11.2,.94,.73,1.89,1.37,2.84,1.88,.99,.54,2.04,1.01,3.11,1.39,1.03,.37,2.14,.66,3.29,.86,1.25,.21,2.36,.31,3.39,.31v.04c-1.04,0-2.15-.1-3.4-.31-1.16-.2-2.27-.49-3.3-.86-1.07-.38-2.12-.85-3.11-1.39-.95-.52-1.9-1.15-2.84-1.88-3.6-2.8-6.2-6.79-7.34-11.23Z"/><polygon class="cls-2" points="37.61 57.27 37.61 56.71 37.16 56.69 37.15 57.26 37.61 57.27"/></g><g><path class="cls-2" d="M15.04,36.15c0-3.89,.99-7.72,2.89-11.05l.03,.02c-2.42,4.24-3.36,9.29-2.66,14.23,.67,4.87,3,9.45,6.55,12.91l-.03,.03c-3.56-3.47-5.89-8.06-6.56-12.93-.15-1.07-.23-2.14-.23-3.21Z"/><path class="cls-2" d="M18.22,25.28c.08-.13,.01-.31-.14-.4-.15-.09-.34-.05-.42,.08-.08,.14-.01,.32,.14,.4,.16,.09,.34,.05,.42-.08Z"/></g></g><g><g><path class="cls-2" d="M23.75,16.39c2.11-1.5,4.48-2.65,7.04-3.39,2.53-.74,5.14-1.06,7.75-.96,1.33,.06,2.64,.21,3.89,.46,1.28,.27,2.55,.64,3.77,1.1,1.19,.45,2.38,1.01,3.54,1.69,1.13,.66,2.21,1.41,3.22,2.24l-.02,.03c-1.01-.82-2.09-1.58-3.21-2.23-1.16-.68-2.34-1.24-3.53-1.69-1.22-.46-2.48-.83-3.76-1.1-1.25-.25-2.56-.4-3.89-.46-5.29-.21-10.53,1.33-14.77,4.35l-.02-.03Z"/><path class="cls-2" d="M52.57,17.64l.3-.17,.1-.32c.12,.22,.23,.46,.34,.7-.25-.07-.48-.15-.74-.2Z"/></g><g><path class="cls-2" d="M19.65,25.54c1.19-2,2.67-3.76,4.37-5.21,.87-.74,1.79-1.42,2.76-2.01,.97-.59,2-1.1,3.05-1.52,1.07-.43,2.17-.77,3.26-1.01,1.14-.25,2.27-.4,3.38-.46,1.14-.05,2.29-.02,3.41,.09,1.07,.11,2.16,.32,3.35,.65v.04c-1.19-.33-2.28-.54-3.35-.65-1.12-.12-2.27-.15-3.41-.09-1.1,.06-2.24,.22-3.37,.46-1.09,.23-2.18,.57-3.25,1-1.05,.42-2.08,.94-3.05,1.52-.96,.59-1.89,1.26-2.75,2.01-1.7,1.45-3.17,3.2-4.36,5.2l-.03-.02Z"/><polygon class="cls-2" points="19.32 25.6 19.81 25.88 20.03 25.49 19.55 25.2 19.32 25.6"/></g><g><path class="cls-2" d="M31.52,14.42c1.28-.35,2.46-.58,3.62-.7,1.21-.13,2.45-.16,3.69-.1,2.55,.15,4.97,.69,7.18,1.59,1.14,.46,2.25,1.01,3.3,1.64,1.05,.64,2.05,1.37,2.98,2.17,1.84,1.57,3.44,3.46,4.73,5.62l-.03,.02c-1.29-2.16-2.88-4.05-4.72-5.61-.93-.8-1.93-1.53-2.98-2.17-1.05-.63-2.15-1.18-3.29-1.64-2.2-.9-4.61-1.43-7.16-1.58-1.23-.06-2.47-.02-3.68,.1-1.16,.12-2.34,.35-3.61,.7v-.04Z"/><path class="cls-2" d="M56.72,24.8c.08,.13,.26,.17,.42,.08,.15-.09,.22-.27,.14-.41-.08-.14-.27-.17-.42-.08-.15,.09-.21,.27-.13,.41Z"/></g></g><g><g><path class="cls-2" d="M46.05,58.73c1.16-.43,2.32-.97,3.54-1.67,1.19-.69,2.27-1.43,3.23-2.22,2.08-1.71,3.82-3.68,5.17-5.84,2.8-4.37,4.08-9.68,3.62-14.96h.04c.23,2.6,.03,5.22-.58,7.79-.62,2.59-1.65,5.01-3.04,7.2-1.35,2.17-3.09,4.13-5.18,5.85-.95,.78-2.04,1.53-3.23,2.22-1.22,.7-2.38,1.25-3.55,1.67v-.04Z"/><path class="cls-2" d="M46.15,58.37v.34l.23,.25c-.26-.01-.51-.03-.77-.05,.19-.17,.37-.35,.54-.54Z"/></g><g><path class="cls-2" d="M52.16,51.03c3.29-3.2,5.44-7.44,6.06-11.94,.64-4.58-.23-9.25-2.47-13.16l.03-.02c2.24,3.91,3.12,8.6,2.48,13.19-.62,4.5-2.77,8.75-6.07,11.96l-.03-.03Z"/><polygon class="cls-2" points="55.89 25.6 55.4 25.88 55.63 26.27 56.12 25.99 55.89 25.6"/></g><g><path class="cls-2" d="M37.87,58.68c1.14,0,2.34-.11,3.66-.34,1.26-.22,2.46-.53,3.56-.93,1.16-.41,2.29-.92,3.36-1.5,1.02-.55,2.05-1.24,3.07-2.04,3.88-3.02,6.69-7.33,7.91-12.12h.04c-1.23,4.81-4.04,9.13-7.93,12.15-1.02,.8-2.05,1.48-3.07,2.04-1.08,.59-2.21,1.09-3.37,1.51-1.1,.4-2.3,.71-3.57,.93-1.33,.23-2.53,.34-3.67,.34v-.04Z"/><path class="cls-2" d="M37.88,58.37c-.15,0-.28,.15-.28,.33,0,.18,.13,.32,.28,.32,.16,0,.28-.15,.28-.33,0-.18-.13-.32-.28-.32Z"/></g></g></g></g><g><path class="cls-8" d="M40.66,39.45c-1.79,1.79-4.69,1.79-6.48,0-1.79-1.79-1.79-4.69,0-6.48,1.79-1.79,4.69-1.79,6.48,0,1.79,1.79,1.79,4.69,0,6.48Z"/><path class="cls-1" d="M39.72,38.51c-1.27,1.27-3.34,1.27-4.61,0-1.27-1.27-1.27-3.34,0-4.61,1.27-1.27,3.34-1.27,4.61,0,1.27,1.27,1.27,3.34,0,4.61Z"/><g class="cls-6"><path class="cls-2" d="M26.87,46.76c-.74-.74-1.39-1.55-1.96-2.41l3.59-2.34c.4,.62,.87,1.2,1.4,1.72,.8,.8,1.7,1.46,2.69,1.96l-1.94,3.82c-1.39-.71-2.66-1.63-3.78-2.75Z"/><path class="cls-2" d="M24.1,43.09l-.03-.06c-1.19-2.33-1.75-4.96-1.62-7.59v-.07l4.42,.23v.07c-.1,1.86,.29,3.7,1.13,5.35l.03,.06-3.94,2.01Zm-1.51-7.57c-.12,2.56,.42,5.11,1.57,7.38l3.69-1.88c-.82-1.63-1.21-3.45-1.12-5.29l-4.14-.21Z"/><path class="cls-2" d="M41.28,50.62l-1.1-4.14c1.79-.48,3.44-1.43,4.76-2.75l.02-.02,3.03,3.03-.02,.02c-1.85,1.85-4.17,3.19-6.69,3.86Z"/><path class="cls-2" d="M29.88,28.71l-.81-.83-2.21-2.21h.01c1.85-1.86,4.16-3.19,6.67-3.87l1.11,4.14c-1.79,.48-3.43,1.43-4.75,2.75l-.02,.02Z"/><path class="cls-2" d="M35.68,25.79l-.69-4.36h.07c2.6-.42,5.26-.15,7.71,.79l.06,.02-1.57,4.13-.06-.02c-1.73-.66-3.61-.85-5.44-.56h-.07Zm-.54-4.24l.65,4.09c1.81-.28,3.67-.08,5.38,.56l1.48-3.87c-2.39-.9-4.98-1.17-7.51-.78Z"/><path class="cls-2" d="M47.97,36.81v-.07c.1-1.86-.3-3.7-1.14-5.35l-.03-.06,3.93-2.01,.03,.06c1.19,2.33,1.76,4.95,1.62,7.58v.07l-4.42-.22Zm-.99-5.42c.82,1.63,1.21,3.45,1.13,5.29l4.14,.21c.12-2.56-.43-5.11-1.58-7.38l-3.69,1.89Z"/><path class="cls-2" d="M42.23,26.72l1.94-3.82c1.4,.71,2.68,1.64,3.79,2.76h0c.73,.73,1.39,1.54,1.95,2.4l-3.58,2.34c-.4-.61-.87-1.19-1.39-1.71h0c-.8-.8-1.71-1.46-2.71-1.97Z"/></g><g class="cls-6"><path class="cls-4" d="M32.74,40.89l-.05-.05,.1-.1,.04,.04,.05,.05-.1,.1-.05-.05Zm-.14-.15s-.06-.07-.09-.1l.1-.09s.06,.07,.09,.1l-.1,.09Zm.3,.3l.09-.1s.07,.06,.1,.09l-.09,.1s-.07-.06-.1-.09Zm-.48-.5s-.06-.07-.09-.11l.11-.09s.06,.07,.09,.1l-.1,.09Zm.69,.69l.09-.1s.07,.06,.1,.09l-.09,.11s-.07-.06-.11-.09Zm-.87-.9s-.06-.07-.09-.11l.11-.08s.06,.07,.08,.11l-.11,.09Zm1.08,1.08l.09-.11s.07,.06,.11,.08l-.08,.11s-.07-.06-.11-.09Zm-1.25-1.3s-.05-.08-.08-.11l.11-.08s.05,.07,.08,.11l-.11,.08Zm1.47,1.47l.08-.11s.07,.05,.11,.08l-.08,.11s-.08-.05-.11-.08Zm-1.63-1.7s-.05-.08-.08-.12l.12-.07s.05,.08,.07,.11l-.11,.08Zm1.86,1.86l.08-.12s.08,.05,.11,.07l-.07,.12s-.08-.05-.12-.08Zm-2.01-2.09s-.05-.08-.07-.12l.12-.07s.05,.08,.07,.12l-.12,.07Zm2.25,2.24l.07-.12s.08,.05,.12,.07l-.07,.12s-.08-.05-.12-.07Zm-2.39-2.49s-.04-.08-.07-.12l.12-.06s.04,.08,.06,.12l-.12,.07Zm2.63,2.62l.07-.12s.08,.04,.12,.06l-.06,.12s-.08-.04-.12-.07Zm-2.76-2.87s-.04-.08-.06-.13l.12-.06s.04,.08,.06,.12l-.12,.06Zm3.01,3l.06-.12s.08,.04,.12,.06l-.06,.12s-.08-.04-.13-.06Zm-3.12-3.25s-.04-.09-.06-.13l.13-.05s.04,.08,.05,.13l-.13,.06Zm3.38,3.37l.06-.13s.08,.04,.13,.05l-.05,.13s-.09-.04-.13-.05Zm-3.48-3.63s-.03-.09-.05-.13l.13-.05s.03,.09,.05,.13l-.13,.05Zm3.74,3.74l.05-.13s.08,.03,.13,.05l-.05,.13s-.09-.03-.13-.05Zm-3.84-4s-.03-.09-.04-.13l.13-.04s.03,.09,.04,.13l-.13,.04Zm4.1,4.1l.04-.13s.09,.03,.13,.04l-.04,.13s-.09-.03-.13-.04Zm-4.18-4.36s-.03-.09-.04-.13l.13-.04s.02,.09,.04,.13l-.13,.04Zm4.45,4.45l.04-.13s.09,.03,.13,.04l-.04,.13s-.09-.02-.13-.04Zm-4.52-4.72s-.02-.09-.03-.14l.13-.03s.02,.09,.03,.13l-.13,.03Zm4.79,4.79l.03-.13s.09,.02,.13,.03l-.03,.13s-.09-.02-.14-.03Zm-4.85-5.06s-.02-.09-.03-.14l.14-.03s.02,.09,.03,.13l-.14,.03Zm5.13,5.12l.03-.14s.09,.02,.13,.03l-.03,.14s-.09-.02-.14-.03Zm-5.18-5.4s-.01-.09-.02-.14l.14-.02s.01,.09,.02,.14l-.14,.02Zm5.45,5.45l.02-.14s.09,.01,.13,.02l-.02,.14s-.09-.01-.14-.02Zm-5.49-5.73s-.01-.09-.02-.14h.14s0,.08,.02,.12l-.14,.02Zm5.77,5.77l.02-.14s.09,.01,.14,.02v.14c-.06,0-.11,0-.15-.02Zm-5.79-6.04s0-.09,0-.14h.14s0,.08,0,.13h-.14Zm6.07,6.08v-.14c.06,0,.1,0,.15,0v.14c-.05,0-.1,0-.15,0Zm-6.09-6.35s0-.09,0-.14h.14s0,.09,0,.13h-.14Zm6.37,6.37v-.14c.05,0,.1,0,.14,0v.14s-.1,0-.14,0Zm-6.37-6.64s0-.09,0-.14h.14s0,.09,0,.14h-.14Zm6.65,6.65v-.14s.09,0,.14,0v.14s-.09,0-.14,0Zm-6.64-6.93s0-.09,0-.14h.14c0,.05,0,.1,0,.15h-.14Zm6.92,6.91v-.14s.08,0,.13,0v.14s-.08,0-.13,0Zm-6.9-7.2s0-.09,.01-.14l.14,.02s0,.09-.01,.14h-.14Zm7.18,7.17v-.14s.08,0,.12-.01l.02,.14s-.09,0-.14,.01Zm-7.15-7.46s.01-.09,.02-.14l.14,.02s-.01,.09-.02,.14l-.14-.02Zm7.43,7.43l-.02-.14s.09-.01,.14-.02l.02,.14s-.09,.01-.14,.02Zm-7.38-7.7s.02-.09,.03-.14l.14,.03s-.02,.09-.02,.13l-.14-.02Zm7.66,7.66l-.02-.14s.09-.02,.13-.02l.03,.14s-.09,.02-.14,.03Zm-7.61-7.93s.02-.09,.03-.14l.13,.03s-.02,.09-.03,.13l-.13-.03Zm7.88,7.88l-.03-.14s.09-.02,.13-.03l.03,.13s-.09,.02-.14,.03Zm-7.82-8.15s.02-.09,.04-.13l.13,.04s-.02,.09-.04,.13l-.13-.04Zm8.09,8.08l-.03-.13s.09-.02,.13-.04l.04,.13s-.09,.03-.13,.04Zm-8.01-8.35s.03-.09,.04-.13l.13,.04s-.03,.09-.04,.13l-.13-.04Zm8.28,8.27l-.04-.13s.09-.03,.13-.04l.04,.13s-.09,.03-.13,.04Zm-8.19-8.54s.03-.09,.05-.13l.13,.05s-.03,.08-.05,.13l-.13-.05Zm8.46,8.45l-.05-.13s.09-.03,.13-.05l.05,.13s-.09,.03-.13,.05Zm-8.36-8.71s.04-.09,.05-.13l.13,.05s-.04,.08-.05,.13l-.13-.05Zm8.62,8.61l-.05-.13s.08-.03,.13-.05l.05,.13s-.09,.04-.13,.05Zm-8.51-8.87s.04-.08,.06-.13l.12,.06s-.04,.08-.06,.12l-.13-.06Zm8.77,8.76l-.06-.13s.08-.04,.12-.06l.06,.12s-.08,.04-.13,.06Zm-8.65-9.01s.04-.08,.06-.12l.12,.07s-.04,.08-.06,.12l-.12-.06Zm8.9,8.89l-.06-.12s.08-.04,.12-.06l.06,.12s-.08,.04-.12,.06Zm-8.77-9.13s.05-.08,.07-.12l.12,.07s-.05,.08-.07,.12l-.12-.07Zm9.02,9l-.07-.12s.08-.04,.12-.07l.07,.12s-.08,.05-.12,.07Zm-8.87-9.24s.05-.08,.07-.12l.12,.07s-.05,.08-.07,.12l-.12-.07Zm9.11,9.1l-.07-.12s.08-.05,.12-.07l.08,.12s-.08,.05-.12,.07Zm-8.96-9.33s.05-.08,.08-.11l.11,.08s-.05,.07-.08,.11l-.11-.08Zm9.2,9.18l-.08-.11s.07-.05,.11-.08l.08,.11s-.08,.05-.11,.08Zm-9.04-9.41s.06-.07,.08-.11l.11,.08s-.06,.07-.08,.11l-.11-.08Zm9.26,9.25l-.08-.11s.07-.05,.11-.08l.08,.11s-.07,.06-.11,.08Zm-9.09-9.47s.06-.07,.09-.11l.11,.09s-.06,.07-.09,.11l-.11-.09Zm9.31,9.3l-.09-.11s.07-.06,.1-.09l.09,.11s-.07,.06-.11,.09Zm-9.13-9.51s.06-.07,.09-.1l.1,.09s-.06,.07-.09,.1l-.1-.09Zm9.35,9.33l-.09-.1s.07-.06,.1-.09l.09,.1s-.07,.06-.1,.09Zm-9.16-9.54s.06-.07,.1-.1l.1,.1s-.06,.07-.1,.1l-.1-.1Zm9.36,9.35l-.1-.1s.07-.06,.1-.1l.02-.02,.1,.1-.02,.02s-.07,.07-.1,.1Zm-9.07-9.44l-.1-.1s.07-.06,.1-.1l.09,.1s-.07,.06-.1,.09Zm9.18,9.14s.06-.07,.09-.1l.1,.09s-.06,.07-.1,.1l-.1-.1Zm-8.98-9.32l-.09-.1s.07-.06,.11-.09l.09,.11s-.07,.06-.1,.09Zm9.17,9.12s.06-.07,.09-.1l.11,.09s-.06,.07-.09,.11l-.1-.09Zm-8.96-9.3l-.09-.11s.07-.06,.11-.09l.08,.11s-.07,.06-.11,.09Zm9.13,9.09s.06-.07,.08-.11l.11,.08s-.06,.07-.09,.11l-.11-.09Zm-8.92-9.26l-.08-.11s.07-.06,.11-.08l.08,.11s-.07,.05-.11,.08Zm9.08,9.04s.05-.07,.08-.11l.11,.08s-.05,.08-.08,.11l-.11-.08Zm-8.86-9.2l-.08-.11s.08-.05,.12-.08l.08,.12s-.08,.05-.11,.08Zm9.02,8.97s.05-.08,.08-.11l.12,.07s-.05,.08-.08,.12l-.11-.08Zm-8.79-9.12l-.07-.12s.08-.05,.12-.07l.07,.12s-.08,.05-.12,.07Zm8.94,8.89s.05-.08,.07-.12l.12,.07s-.05,.08-.07,.12l-.12-.07Zm-8.7-9.03l-.07-.12s.08-.05,.12-.07l.07,.12s-.08,.04-.12,.07Zm8.84,8.8s.04-.08,.07-.12l.12,.06s-.04,.08-.07,.12l-.12-.07Zm-8.6-8.93l-.06-.12s.08-.04,.13-.06l.06,.12s-.08,.04-.12,.06Zm8.73,8.69s.04-.08,.06-.12l.12,.06s-.04,.08-.06,.13l-.12-.06Zm-8.48-8.81l-.06-.13s.09-.04,.13-.06l.05,.13s-.08,.04-.12,.06Zm8.6,8.56s.04-.08,.05-.13l.13,.05s-.04,.09-.06,.13l-.13-.06Zm-8.35-8.67l-.05-.13s.09-.03,.13-.05l.05,.13s-.09,.03-.13,.05Zm8.45,8.42s.03-.08,.05-.13l.13,.05s-.03,.09-.05,.13l-.13-.05Zm-8.2-8.51l-.05-.13s.09-.03,.13-.05l.04,.13s-.09,.03-.13,.04Zm8.29,8.26s.03-.09,.04-.13l.13,.04s-.03,.09-.04,.13l-.13-.05Zm-8.04-8.35l-.04-.13s.09-.03,.13-.04l.04,.13s-.09,.03-.13,.04Zm8.12,8.09s.03-.09,.04-.13l.13,.04s-.03,.09-.04,.13l-.13-.04Zm-7.86-8.16l-.04-.13s.09-.02,.14-.03l.03,.13s-.09,.02-.13,.03Zm7.93,7.9s.02-.09,.03-.13l.13,.03s-.02,.09-.03,.14l-.13-.03Zm-7.67-7.97l-.03-.13s.09-.02,.14-.03l.03,.14s-.09,.02-.13,.03Zm7.73,7.7s.02-.09,.03-.13l.14,.03s-.02,.09-.03,.14l-.14-.03Zm-7.46-7.75l-.02-.14s.09-.02,.14-.02l.02,.14s-.09,.01-.13,.02Zm7.51,7.49s.01-.09,.02-.13l.14,.02s-.01,.09-.02,.14l-.14-.02Zm-7.24-7.53l-.02-.14s.09-.01,.14-.02l.02,.14s-.09,.01-.14,.02Zm7.28,7.26s.01-.09,.02-.14h.14c0,.06-.01,.11-.02,.15l-.14-.02Zm-7.01-7.29v-.14s.08,0,.13-.01v.14s-.08,0-.13,.01Zm7.04,7.02s0-.09,.01-.14h.14c0,.06,0,.1-.01,.15h-.14Zm-6.77-7.05v-.14s.09,0,.13,0v.14s-.09,0-.13,0Zm6.79,6.76s0-.09,0-.14h.14s0,.1,0,.14h-.14Zm-6.51-6.78v-.14s.09,0,.14,0v.14s-.09,0-.14,0Zm6.52,6.5s0-.09,0-.14h.14s0,.09,0,.14h-.14Zm-6.25-6.49v-.14c.05,0,.1,0,.14,0v.14c-.05,0-.1,0-.14,0Zm6.24,6.22s0-.09,0-.14h.14s0,.08,0,.13h-.14Zm-5.97-6.2v-.14c.06,0,.1,0,.15,.01v.14c-.06,0-.1,0-.15-.01Zm5.95,5.93s0-.09-.01-.14h.14s0,.08,.01,.12h-.14Zm-5.68-5.9l.02-.14s.09,.01,.14,.02l-.02,.14s-.09-.01-.14-.02Zm5.65,5.63s-.01-.09-.02-.14l.14-.02s.01,.09,.02,.14l-.14,.02Zm-5.38-5.6l.02-.14s.09,.02,.14,.02l-.02,.14s-.09-.02-.13-.02Zm5.35,5.33s-.02-.09-.02-.13l.14-.03s.02,.09,.02,.14l-.14,.02Zm-5.08-5.28l.03-.14s.09,.02,.14,.03l-.03,.13s-.09-.02-.13-.03Zm5.03,5.01s-.02-.09-.03-.13l.13-.03s.02,.09,.03,.14l-.14,.03Zm-4.76-4.95l.03-.13s.09,.02,.13,.04l-.04,.13s-.09-.02-.13-.03Zm4.7,4.68s-.02-.09-.04-.13l.13-.04s.02,.09,.04,.13l-.13,.03Zm-4.44-4.61l.04-.13s.09,.03,.13,.04l-.04,.13s-.09-.03-.13-.04Zm4.36,4.35s-.03-.09-.04-.13l.13-.04s.03,.09,.04,.13l-.13,.04Zm-4.1-4.26l.04-.13s.09,.03,.13,.05l-.05,.13s-.09-.03-.13-.05Zm4.02,4s-.03-.09-.05-.13l.13-.05s.03,.09,.05,.13l-.13,.05Zm-3.76-3.91l.05-.13s.09,.03,.13,.05l-.05,.13s-.08-.03-.13-.05Zm3.67,3.65s-.03-.08-.05-.13l.13-.05s.04,.09,.05,.13l-.13,.05Zm-3.42-3.55l.06-.13s.08,.04,.13,.06l-.06,.13s-.08-.04-.12-.06Zm3.31,3.3s-.04-.08-.06-.12l.12-.06s.04,.08,.06,.13l-.13,.06Zm-3.06-3.18l.06-.12s.08,.04,.12,.06l-.06,.12s-.08-.04-.12-.06Zm2.95,2.93s-.04-.08-.06-.12l.12-.06s.04,.08,.06,.12l-.12,.06Zm-2.7-2.81l.07-.12s.08,.04,.12,.07l-.07,.12s-.08-.04-.12-.07Zm2.58,2.57s-.04-.08-.07-.12l.12-.07s.05,.08,.07,.12l-.12,.07Zm-2.34-2.43l.07-.12s.08,.05,.12,.07l-.07,.12s-.08-.05-.12-.07Zm2.2,2.19s-.05-.08-.07-.12l.12-.07s.05,.08,.07,.12l-.12,.07Zm-1.97-2.05l.08-.12s.08,.05,.12,.08l-.08,.11s-.08-.05-.11-.08Zm1.83,1.82s-.05-.08-.08-.11l.11-.08s.05,.08,.08,.12l-.11,.08Zm-1.6-1.66l.08-.11s.07,.05,.11,.08l-.08,.11s-.07-.05-.11-.08Zm1.45,1.44s-.05-.07-.08-.11l.11-.08s.06,.07,.08,.11l-.11,.08Zm-1.23-1.27l.09-.11s.07,.06,.11,.09l-.09,.11s-.07-.06-.11-.09Zm1.06,1.06s-.06-.07-.09-.11l.11-.09s.06,.07,.09,.11l-.11,.09Zm-.85-.88l.09-.1s.07,.06,.1,.09l-.09,.1s-.07-.06-.1-.09Zm.68,.67s-.06-.07-.09-.1l.1-.09s.06,.07,.09,.1l-.1,.09Zm-.47-.49l.09-.1s.07,.06,.1,.1l-.1,.1s-.07-.06-.1-.09Zm.29,.29s-.06-.07-.09-.1l.1-.1s.07,.07,.1,.1l-.1,.09Z"/></g><g class="cls-6"><path class="cls-4" d="M22.88,50.77l2.93-2.93c4.81,4.8,12.19,6.15,18.38,3.36l1.71,3.78c-3.77,1.7-7.92,2.23-12.01,1.52-4.19-.73-7.99-2.7-11.01-5.72Zm-3.66-4.96c-.19-.36-.38-.74-.55-1.11l3.77-1.71c.14,.3,.28,.6,.44,.89l-3.66,1.93Zm27.8,8.62l-1.93-3.67c1.45-.77,2.79-1.75,3.96-2.93l.02-.02,2.93,2.93-.02,.02c-1.47,1.47-3.14,2.7-4.96,3.66ZM25.78,24.61l-2.92-2.94h.01c1.47-1.48,3.13-2.71,4.95-3.66l1.93,3.66c-1.45,.77-2.78,1.75-3.95,2.92l-.02,.02Zm4.86-3.37l-1.71-3.77c3.77-1.71,7.92-2.23,12.01-1.53,4.19,.72,7.99,2.7,11.01,5.71l-2.93,2.93c-4.81-4.8-12.2-6.14-18.39-3.34Zm21.75,8.19c-.14-.3-.28-.6-.44-.89l3.66-1.94c.19,.36,.38,.74,.55,1.11l-3.77,1.71Z"/></g><g class="cls-6"><g><path class="cls-3" d="M41.46,38.23c-.21,.46-.51,.88-.87,1.24l-.07-.07c.35-.35,.64-.76,.85-1.21l.1,.05Z"/><path class="cls-3" d="M41.89,37.25c-.05,.26-.13,.53-.23,.78l-.14-.06c.1-.24,.17-.49,.22-.75l.15,.03Z"/><path class="cls-3" d="M42.09,36.77c0,.06-.01,.12-.02,.18,0,.06-.02,.12-.03,.18l-.41-.07c0-.05,.02-.11,.02-.16,0-.06,.01-.11,.02-.17l.42,.04Z"/><polygon class="cls-3" points="41.5 38.12 41.48 38.17 41.39 38.12 41.41 38.08 41.5 38.12"/><polygon class="cls-3" points="41.55 38.02 41.53 38.07 41.43 38.03 41.45 37.98 41.55 38.02"/><polygon class="cls-3" points="41.59 37.92 41.57 37.96 41.47 37.93 41.49 37.88 41.59 37.92"/><polygon class="cls-3" points="41.63 37.82 41.61 37.86 41.51 37.82 41.53 37.78 41.63 37.82"/><rect class="cls-3" x="41.58" y="37.66" width=".05" height=".11" transform="translate(-7.03 65.8) rotate(-72.2)"/><path class="cls-3" d="M41.7,37.6s0,.03-.01,.05l-.1-.03s.01-.03,.01-.05l.1,.03Z"/><polygon class="cls-3" points="41.72 37.5 41.71 37.54 41.61 37.52 41.62 37.47 41.72 37.5"/><path class="cls-3" d="M41.75,37.39s0,.03-.01,.05l-.1-.03s0-.03,.01-.05l.1,.02Z"/></g><g><path class="cls-3" d="M41.73,35.24c.13,.49,.18,1,.13,1.51h-.11c.04-.5,0-1-.13-1.48l.1-.03Z"/><path class="cls-3" d="M41.43,34.22c.13,.24,.24,.49,.32,.74l-.15,.05c-.08-.25-.19-.49-.31-.72l.13-.07Z"/><path class="cls-3" d="M41.27,33.72c.07,.1,.13,.2,.2,.31l-.36,.21c-.06-.09-.12-.19-.18-.28l.34-.24Z"/><polygon class="cls-3" points="41.7 35.13 41.71 35.18 41.61 35.21 41.6 35.16 41.7 35.13"/><polygon class="cls-3" points="41.66 35.03 41.68 35.07 41.58 35.1 41.56 35.06 41.66 35.03"/><polygon class="cls-3" points="41.63 34.92 41.65 34.97 41.55 35 41.53 34.96 41.63 34.92"/><rect class="cls-3" x="41.5" y="34.84" width=".11" height=".05" transform="translate(-9.61 16.85) rotate(-20.6)"/><polygon class="cls-3" points="41.55 34.72 41.57 34.76 41.47 34.8 41.46 34.75 41.55 34.72"/><rect class="cls-3" x="41.42" y="34.63" width=".11" height=".05" transform="translate(-10.38 19.4) rotate(-23.49)"/><path class="cls-3" d="M41.46,34.51s.01,.03,.02,.04l-.1,.04s-.01-.03-.02-.04l.1-.04Z"/><polygon class="cls-3" points="41.42 34.41 41.44 34.46 41.34 34.5 41.32 34.46 41.42 34.41"/></g><g><path class="cls-3" d="M40.01,32.78c.21,.15,.4,.31,.58,.49,.18,.18,.34,.37,.49,.58l-.09,.06c-.14-.2-.3-.39-.47-.57-.18-.17-.36-.33-.57-.48l.06-.09Z"/><path class="cls-3" d="M39.13,32.19c.25,.1,.49,.22,.72,.36l-.08,.13c-.22-.14-.46-.25-.7-.35l.06-.14Z"/><path class="cls-3" d="M38.69,31.91c.12,.03,.23,.07,.35,.11l-.14,.39c-.1-.03-.21-.07-.32-.1l.11-.4Z"/><polygon class="cls-3" points="39.92 32.72 39.96 32.75 39.9 32.83 39.86 32.81 39.92 32.72"/><polygon class="cls-3" points="39.83 32.66 39.87 32.68 39.81 32.77 39.77 32.75 39.83 32.66"/><polygon class="cls-3" points="39.74 32.6 39.78 32.63 39.72 32.72 39.68 32.69 39.74 32.6"/><polygon class="cls-3" points="39.64 32.54 39.68 32.57 39.63 32.66 39.59 32.64 39.64 32.54"/><polygon class="cls-3" points="39.54 32.49 39.59 32.51 39.54 32.61 39.49 32.58 39.54 32.49"/><polygon class="cls-3" points="39.44 32.44 39.49 32.46 39.44 32.56 39.4 32.54 39.44 32.44"/><polygon class="cls-3" points="39.35 32.39 39.39 32.41 39.34 32.51 39.3 32.49 39.35 32.39"/><polygon class="cls-3" points="39.24 32.35 39.29 32.37 39.25 32.46 39.2 32.44 39.24 32.35"/></g><g><path class="cls-3" d="M37.12,32c.5-.04,1.02,0,1.5,.13l-.03,.1c-.48-.13-.98-.17-1.47-.13v-.11Z"/><path class="cls-3" d="M36.06,32.12c.26-.09,.52-.15,.79-.19l.02,.15c-.26,.04-.51,.1-.76,.18l-.05-.14Z"/><path class="cls-3" d="M35.54,32.18c.11-.05,.22-.1,.34-.14l.15,.39c-.1,.04-.21,.08-.31,.13l-.18-.38Z"/><polygon class="cls-3" points="37.01 32.01 37.06 32 37.07 32.11 37.02 32.11 37.01 32.01"/><polygon class="cls-3" points="36.9 32.02 36.95 32.02 36.96 32.12 36.92 32.13 36.9 32.02"/><polygon class="cls-3" points="36.79 32.04 36.84 32.03 36.86 32.14 36.81 32.14 36.79 32.04"/><polygon class="cls-3" points="36.68 32.06 36.73 32.05 36.75 32.15 36.7 32.16 36.68 32.06"/><polygon class="cls-3" points="36.58 32.08 36.62 32.07 36.64 32.17 36.6 32.18 36.58 32.08"/><polygon class="cls-3" points="36.47 32.1 36.51 32.09 36.54 32.2 36.49 32.21 36.47 32.1"/><rect class="cls-3" x="36.37" y="32.12" width=".05" height=".11" transform="translate(-7.1 10.55) rotate(-15.04)"/><polygon class="cls-3" points="36.25 32.16 36.3 32.15 36.33 32.25 36.28 32.26 36.25 32.16"/></g><g><path class="cls-3" d="M34.4,33.26c.36-.36,.78-.65,1.24-.87l.04,.1c-.45,.21-.86,.5-1.21,.85l-.07-.07Z"/><path class="cls-3" d="M33.67,34.03c.14-.23,.3-.45,.48-.65l.11,.1c-.17,.19-.33,.41-.47,.63l-.13-.08Z"/><path class="cls-3" d="M33.31,34.41l.08-.16c.03-.05,.06-.11,.09-.16l.36,.21s-.06,.1-.08,.15l-.07,.15-.38-.18Z"/><polygon class="cls-3" points="34.33 33.34 34.36 33.3 34.44 33.38 34.4 33.41 34.33 33.34"/><polygon class="cls-3" points="34.25 33.42 34.28 33.38 34.36 33.45 34.33 33.49 34.25 33.42"/><polygon class="cls-3" points="34.18 33.5 34.21 33.46 34.29 33.53 34.26 33.57 34.18 33.5"/><polygon class="cls-3" points="34.11 33.59 34.14 33.55 34.22 33.62 34.19 33.65 34.11 33.59"/><polygon class="cls-3" points="34.04 33.67 34.07 33.63 34.15 33.7 34.12 33.74 34.04 33.67"/><polygon class="cls-3" points="33.97 33.76 34 33.72 34.08 33.79 34.05 33.82 33.97 33.76"/><rect class="cls-3" x="33.94" y="33.81" width=".05" height=".11" transform="translate(-13.23 42.39) rotate(-55.16)"/><polygon class="cls-3" points="33.84 33.94 33.87 33.9 33.96 33.96 33.93 34 33.84 33.94"/></g><g><path class="cls-3" d="M33.13,35.97c.05-.5,.18-1,.39-1.46l.1,.04c-.21,.45-.34,.93-.38,1.42h-.11Z"/><path class="cls-3" d="M33.06,37.03c-.04-.27-.06-.54-.05-.81h.15c0,.27,0,.53,.05,.79l-.15,.02Z"/><path class="cls-3" d="M33.04,37.56l-.02-.09s-.01-.06-.02-.09c-.01-.06-.03-.12-.04-.18l.41-.08c0,.05,.02,.11,.03,.16,0,.03,.01,.05,.02,.08l.02,.08-.4,.11Z"/><polygon class="cls-3" points="33.12 36.08 33.13 36.03 33.23 36.04 33.23 36.09 33.12 36.08"/><path class="cls-3" d="M33.12,36.19s0-.03,0-.05h.11s0,.04,0,.05h-.11Z"/><rect class="cls-3" x="33.14" y="36.23" width=".05" height=".11" transform="translate(-3.91 68.55) rotate(-88.6)"/><polygon class="cls-3" points="33.11 36.41 33.11 36.36 33.22 36.36 33.22 36.41 33.11 36.41"/><rect class="cls-3" x="33.11" y="36.47" width=".11" height=".05" transform="translate(-.89 .83) rotate(-1.42)"/><polygon class="cls-3" points="33.12 36.63 33.12 36.59 33.22 36.58 33.23 36.63 33.12 36.63"/><rect class="cls-3" x="33.13" y="36.69" width=".11" height=".05" transform="translate(-2.56 2.49) rotate(-4.14)"/><polygon class="cls-3" points="33.14 36.85 33.13 36.81 33.24 36.8 33.25 36.84 33.14 36.85"/></g><g><path class="cls-3" d="M33.9,38.87c-.14-.21-.27-.43-.38-.66-.11-.23-.19-.47-.26-.71l.1-.03c.06,.24,.15,.47,.25,.7,.1,.22,.23,.44,.37,.64l-.09,.06Z"/><path class="cls-3" d="M34.53,39.72c-.2-.18-.39-.38-.56-.59l.12-.09c.16,.2,.34,.39,.54,.57l-.1,.11Z"/><path class="cls-3" d="M34.85,40.14l-.07-.05s-.05-.04-.07-.06c-.05-.04-.1-.07-.14-.11l.27-.32s.09,.07,.13,.1c.02,.02,.04,.03,.07,.05l.07,.05-.24,.34Z"/><polygon class="cls-3" points="33.96 38.96 33.93 38.92 34.02 38.86 34.05 38.89 33.96 38.96"/><rect class="cls-3" x="34" y="38.97" width=".11" height=".05" transform="translate(-16.75 29.05) rotate(-37.79)"/><polygon class="cls-3" points="34.1 39.13 34.07 39.09 34.15 39.03 34.18 39.07 34.1 39.13"/><rect class="cls-3" x="34.14" y="39.14" width=".11" height=".05" transform="translate(-17.26 31.73) rotate(-40.65)"/><polygon class="cls-3" points="34.24 39.3 34.21 39.26 34.29 39.19 34.32 39.23 34.24 39.3"/><polygon class="cls-3" points="34.32 39.38 34.28 39.35 34.36 39.27 34.39 39.31 34.32 39.38"/><polygon class="cls-3" points="34.39 39.46 34.36 39.43 34.44 39.35 34.47 39.39 34.39 39.46"/><polygon class="cls-3" points="34.47 39.54 34.44 39.5 34.51 39.43 34.55 39.46 34.47 39.54"/></g><g><path class="cls-3" d="M36.35,40.59c-.24-.07-.48-.15-.71-.26-.23-.11-.45-.24-.66-.38l.06-.09c.2,.14,.42,.27,.64,.37,.22,.1,.46,.19,.7,.25l-.03,.1Z"/><path class="cls-3" d="M37.38,40.84c-.27,0-.54-.04-.8-.09l.03-.15c.26,.05,.52,.08,.78,.09v.15Z"/><polygon class="cls-3" points="37.89 40.96 37.71 40.97 37.53 40.98 37.53 40.56 37.69 40.55 37.86 40.54 37.89 40.96"/><path class="cls-3" d="M36.46,40.62h-.05l.03-.11h.05l-.02,.11Z"/><rect class="cls-3" x="36.5" y="40.56" width=".11" height=".05" transform="translate(-10.93 67.59) rotate(-77.62)"/><path class="cls-3" d="M36.67,40.67s-.03,0-.05,0l.02-.1s.03,0,.05,0l-.02,.1Z"/><polygon class="cls-3" points="36.78 40.69 36.73 40.68 36.75 40.57 36.8 40.58 36.78 40.69"/><path class="cls-3" d="M36.89,40.7s-.03,0-.05,0l.02-.1s.03,0,.05,0v.1Z"/><polygon class="cls-3" points="37 40.72 36.95 40.71 36.96 40.6 37.01 40.61 37 40.72"/><path class="cls-3" d="M37.11,40.73s-.03,0-.05,0v-.11s.04,0,.06,0v.11Z"/><polygon class="cls-3" points="37.22 40.73 37.17 40.73 37.18 40.63 37.23 40.63 37.22 40.73"/></g><g><path class="cls-3" d="M39.33,40.34c-.46,.21-.96,.34-1.46,.39v-.11c.48-.04,.97-.17,1.42-.38l.04,.1Z"/><path class="cls-3" d="M40.29,39.86c-.21,.17-.44,.32-.68,.45l-.07-.13c.23-.12,.45-.27,.65-.43l.1,.12Z"/><path class="cls-3" d="M40.75,39.63c-.09,.08-.17,.17-.27,.25l-.27-.32c.09-.07,.16-.15,.24-.22l.29,.29Z"/><rect class="cls-3" x="39.37" y="40.2" width=".05" height=".11" transform="translate(-13.76 21.62) rotate(-26.3)"/><polygon class="cls-3" points="39.53 40.24 39.49 40.26 39.44 40.17 39.48 40.15 39.53 40.24"/><polygon class="cls-3" points="39.63 40.19 39.59 40.21 39.54 40.12 39.58 40.1 39.63 40.19"/><path class="cls-3" d="M39.73,40.13s-.03,.02-.04,.02l-.05-.09s.03-.01,.04-.02l.05,.09Z"/><polygon class="cls-3" points="39.82 40.07 39.78 40.1 39.72 40.01 39.76 39.99 39.82 40.07"/><path class="cls-3" d="M39.91,40.02s-.03,.02-.04,.03l-.06-.09s.03-.02,.04-.03l.06,.09Z"/><polygon class="cls-3" points="40 39.95 39.96 39.98 39.9 39.89 39.94 39.87 40 39.95"/><path class="cls-3" d="M40.09,39.89s-.03,.02-.04,.03l-.06-.09s.03-.02,.04-.03l.06,.09Z"/></g></g><g class="cls-6"><g><path class="cls-5" d="M40.34,38.72c.3-.35,.53-.74,.69-1.17,.16-.43,.24-.88,.24-1.34h.97c0,.57-.1,1.14-.3,1.68-.2,.54-.5,1.03-.87,1.47l-.74-.63Z"/><path class="cls-5" d="M39.43,39.5c.17-.1,.33-.22,.49-.35l.63,.74c-.19,.16-.39,.31-.61,.44l-.51-.83Z"/><path class="cls-5" d="M34.01,38.01c.09,.18,.2,.35,.32,.51l-.78,.58c-.15-.2-.28-.41-.4-.64l.86-.45Z"/><path class="cls-5" d="M33.68,37.14c.05,.19,.11,.38,.19,.57l-.89,.38c-.1-.23-.17-.47-.24-.71l.94-.23Z"/><path class="cls-5" d="M33.56,36.21c0,.2,.02,.4,.05,.6l-.96,.15c-.04-.25-.06-.5-.06-.75h.97Z"/><path class="cls-5" d="M35.55,39.58c.4,.22,.84,.37,1.29,.44,.45,.07,.92,.06,1.36-.03l.19,.95c-.56,.11-1.14,.13-1.7,.04-.56-.09-1.11-.28-1.61-.55l.47-.85Z"/><path class="cls-5" d="M36.83,41.68h-.04c-1.29-.15-2.53-.78-3.41-1.74l-.03-.03,.77-.71,.03,.03c.71,.78,1.72,1.29,2.76,1.4h.04l-.12,1.05Zm-3.37-1.76c.86,.92,2.06,1.53,3.3,1.67l.1-.89c-1.03-.12-2.03-.63-2.74-1.39l-.66,.61Z"/></g><g><path class="cls-5" d="M34.5,33.7c-.3,.35-.53,.74-.69,1.17-.16,.43-.24,.88-.24,1.34h-.97c0-.57,.1-1.14,.3-1.68,.2-.54,.5-1.03,.87-1.47l.74,.63Z"/><path class="cls-5" d="M35.41,32.92c-.17,.1-.33,.22-.49,.35l-.63-.74c.19-.16,.39-.31,.61-.44l.51,.83Z"/><path class="cls-5" d="M40.83,34.41c-.09-.18-.2-.35-.32-.51l.78-.58c.15,.2,.28,.41,.4,.64l-.86,.45Z"/><path class="cls-5" d="M41.16,35.28c-.05-.19-.11-.38-.19-.57l.9-.38c.1,.23,.17,.47,.24,.71l-.94,.23Z"/><path class="cls-5" d="M41.28,36.21c0-.2-.02-.4-.05-.6l.96-.15c.04,.25,.06,.5,.06,.75h-.97Z"/><path class="cls-5" d="M39.29,32.84c-.4-.22-.84-.37-1.29-.44-.45-.07-.92-.06-1.36,.03l-.19-.95c.56-.11,1.14-.13,1.7-.04,.56,.09,1.11,.27,1.61,.55l-.47,.85Z"/><path class="cls-5" d="M40.72,33.22l-.03-.03c-.71-.78-1.72-1.29-2.76-1.4h-.04l.12-1.05h.04c1.29,.15,2.53,.78,3.41,1.74l.03,.03-.77,.71Zm-2.74-1.5c1.03,.12,2.03,.63,2.74,1.39l.66-.61c-.86-.92-2.05-1.53-3.3-1.67l-.1,.89Z"/></g></g><g class="cls-6"><g><path class="cls-5" d="M42.22,41.8c-.66,.57-1.42,1.02-2.24,1.32-.82,.3-1.69,.45-2.56,.46v1.77c1.08,0,2.16-.19,3.18-.57,1.02-.38,1.96-.94,2.78-1.64l-1.16-1.34Z"/><path class="cls-5" d="M43.71,40.06c-.2,.33-.43,.64-.68,.93l1.35,1.15c.31-.36,.59-.75,.84-1.15l-1.51-.93Z"/><path class="cls-5" d="M40.85,29.69c.34,.18,.66,.38,.97,.61l1.06-1.42c-.38-.28-.78-.54-1.2-.76l-.83,1.57Z"/><path class="cls-5" d="M39.19,29.06c.37,.09,.73,.21,1.09,.36l.69-1.63c-.44-.18-.89-.33-1.35-.45l-.42,1.72Z"/><path class="cls-5" d="M37.42,28.84c.38,0,.77,.03,1.15,.09l.27-1.75c-.47-.07-.94-.11-1.42-.11v1.77Z"/><path class="cls-5" d="M43.86,32.63c.42,.76,.71,1.6,.84,2.46,.13,.86,.11,1.75-.07,2.61l1.74,.36c.21-1.06,.24-2.16,.08-3.23-.17-1.07-.52-2.11-1.05-3.05l-1.55,.86Z"/><path class="cls-5" d="M43.07,29.95l1.34-1.45,.07,.07c.9,.83,1.65,1.82,2.22,2.93,.57,1.12,.93,2.31,1.06,3.52v.1l-1.95,.22v-.1c-.23-1.97-1.2-3.87-2.66-5.22l-.08-.07Zm1.35-1.16l-1.07,1.15c1.44,1.35,2.39,3.23,2.63,5.18l1.56-.18c-.14-1.15-.48-2.28-1.03-3.35-.54-1.06-1.24-2-2.1-2.8Z"/></g><g><path class="cls-5" d="M32.62,30.62c.66-.57,1.42-1.02,2.24-1.32,.82-.3,1.69-.45,2.56-.46v-1.77c-1.08,0-2.16,.19-3.18,.57-1.02,.38-1.96,.94-2.78,1.64l1.16,1.34Z"/><path class="cls-5" d="M31.13,32.36c.2-.33,.43-.64,.68-.93l-1.35-1.15c-.31,.36-.59,.75-.84,1.15l1.51,.93Z"/><path class="cls-5" d="M33.99,42.73c-.34-.18-.66-.38-.97-.61l-1.06,1.42c.38,.28,.78,.54,1.2,.76l.83-1.57Z"/><path class="cls-5" d="M35.65,43.36c-.37-.09-.73-.21-1.09-.36l-.69,1.63c.44,.18,.89,.33,1.35,.45l.42-1.72Z"/><path class="cls-5" d="M37.42,43.58c-.38,0-.77-.03-1.15-.09l-.27,1.75c.47,.07,.94,.11,1.42,.11v-1.77Z"/><path class="cls-5" d="M30.98,39.79c-.42-.76-.71-1.6-.84-2.46-.13-.86-.11-1.75,.07-2.61l-1.74-.36c-.21,1.06-.24,2.16-.08,3.23,.17,1.07,.52,2.11,1.05,3.05l1.55-.86Z"/><path class="cls-5" d="M27.07,37.3l1.96-.22v.1c.23,1.97,1.2,3.88,2.66,5.22l.07,.07-1.34,1.45-.07-.07c-.9-.83-1.65-1.82-2.22-2.93-.57-1.12-.93-2.31-1.06-3.52v-.1Zm1.77,0l-1.56,.18c.14,1.15,.48,2.28,1.03,3.35,.54,1.06,1.24,2,2.1,2.8l1.07-1.15c-1.44-1.35-2.39-3.23-2.63-5.18Z"/></g></g></g></g></g></g></g></svg>