<?xml version="1.0" encoding="UTF-8"?><svg xmlns="http://www.w3.org/2000/svg" viewBox="0 0 89.51 78.1"><defs><style>.cls-1{fill:#f2f2f2;}.cls-2,.cls-3{fill:#ccc;}.cls-4{fill:gray;}.cls-5,.cls-3,.cls-6{mix-blend-mode:color-dodge;}.cls-6{fill:#666;}.cls-7{isolation:isolate;}</style></defs><g class="cls-7"><g id="Layer_2"><g id="circle_technology"><g><g><g class="cls-5"><path class="cls-2" d="M44.77,69.06c-.25,0-.48,0-.72,0v-.58c.25,0,.48,0,.72,0,.24,0,.48,0,.71,0v.58c-.23,0-.47,0-.71,0Zm-2.17-.08c-.48-.03-.97-.08-1.44-.14l.07-.57c.47,.06,.94,.1,1.42,.13l-.04,.58Zm4.35,0l-.04-.58c.47-.03,.95-.08,1.42-.14l.07,.57c-.48,.06-.96,.1-1.44,.14Zm-7.23-.34c-.48-.08-.96-.17-1.42-.28l.12-.56c.46,.1,.93,.19,1.4,.27l-.1,.57Zm10.1,0l-.1-.57c.46-.08,.93-.17,1.4-.27l.12,.56c-.47,.1-.95,.2-1.42,.28Zm-12.94-.62c-.47-.13-.93-.27-1.39-.41l.18-.55c.45,.15,.91,.28,1.36,.41l-.15,.56Zm15.77,0l-.15-.56c.46-.12,.92-.26,1.36-.41l.18,.55c-.46,.15-.92,.29-1.39,.41Zm-18.53-.89c-.45-.17-.9-.35-1.35-.55l.23-.53c.43,.19,.88,.37,1.32,.54l-.2,.54Zm21.29-.01l-.21-.54c.44-.17,.88-.35,1.31-.54l.23,.53c-.44,.19-.89,.38-1.34,.55Zm-23.95-1.15c-.43-.21-.86-.44-1.29-.68l.28-.5c.41,.23,.84,.45,1.26,.66l-.26,.52Zm26.6,0l-.26-.52c.42-.21,.85-.43,1.26-.66l.28,.5c-.42,.23-.85,.46-1.28,.67Zm-29.14-1.4c-.41-.25-.82-.52-1.21-.8l.33-.48c.39,.27,.79,.53,1.19,.78l-.3,.49Zm31.67,0l-.3-.49c.4-.25,.8-.51,1.19-.78l.33,.47c-.39,.27-.8,.54-1.21,.8Zm-34.06-1.64c-.38-.29-.76-.6-1.13-.91l.37-.44c.36,.31,.74,.61,1.11,.89l-.35,.46Zm36.44,0l-.35-.46c.38-.29,.75-.59,1.11-.89l.37,.44c-.37,.31-.75,.62-1.13,.91Zm-38.66-1.87c-.35-.33-.7-.67-1.04-1.01l.41-.4c.33,.34,.67,.67,1.02,.99l-.39,.42Zm40.87,0l-.39-.42c.34-.32,.69-.66,1.02-.99l.41,.4c-.34,.34-.69,.69-1.04,1.01Zm-42.9-2.07c-.32-.36-.63-.73-.94-1.11l.45-.36c.3,.37,.6,.73,.92,1.09l-.43,.38Zm44.92,0l-.43-.38c.31-.35,.62-.72,.92-1.09l.45,.36c-.3,.38-.62,.75-.94,1.11Zm-46.74-2.25c-.28-.39-.56-.79-.82-1.19l.48-.32c.26,.39,.53,.79,.81,1.17l-.47,.34Zm48.56,0l-.47-.34c.28-.38,.55-.78,.81-1.17l.48,.32c-.26,.4-.54,.8-.83,1.19Zm-50.15-2.41c-.24-.41-.48-.84-.71-1.26l.51-.27c.22,.42,.45,.83,.69,1.24l-.5,.29Zm51.74-.01l-.5-.29c.24-.41,.47-.83,.69-1.24l.51,.27c-.22,.43-.46,.85-.71,1.27Zm-53.09-2.55c-.2-.44-.4-.88-.58-1.33l.53-.22c.18,.44,.37,.87,.57,1.3l-.52,.24Zm54.44-.02l-.52-.24c.2-.43,.39-.87,.57-1.31l.53,.22c-.18,.45-.38,.89-.58,1.33Zm-55.54-2.66c-.16-.45-.31-.92-.45-1.38l.55-.17c.14,.45,.28,.91,.44,1.35l-.54,.19Zm56.64-.03l-.54-.19c.16-.44,.3-.9,.44-1.35l.55,.16c-.14,.46-.29,.93-.45,1.38Zm-57.47-2.75c-.12-.47-.22-.94-.31-1.42l.57-.11c.09,.46,.19,.93,.31,1.39l-.56,.14Zm58.29-.03l-.56-.14c.11-.46,.22-.93,.31-1.39l.57,.11c-.09,.47-.2,.95-.31,1.42Zm-58.85-2.81c-.07-.47-.13-.96-.17-1.44l.57-.06c.05,.47,.1,.95,.17,1.41l-.57,.08Zm59.41-.03l-.57-.08c.07-.47,.12-.94,.17-1.41l.57,.05c-.05,.48-.1,.96-.17,1.44Zm-59.69-2.85c-.02-.48-.04-.97-.04-1.45h.58c0,.47,.01,.95,.04,1.42l-.58,.03Zm59.96-.03l-.58-.03c.02-.47,.03-.95,.03-1.42v-.06h.58v.06c0,.48-.01,.97-.03,1.45Zm-59.39-2.84l-.58-.03c.02-.48,.06-.97,.1-1.45l.57,.05c-.04,.47-.08,.95-.1,1.42Zm58.81-.1c-.02-.47-.06-.95-.1-1.42l.57-.06c.05,.48,.08,.96,.11,1.45l-.58,.03Zm-58.54-2.73l-.57-.08c.07-.48,.15-.96,.24-1.43l.57,.11c-.09,.46-.17,.94-.24,1.4Zm58.26-.1c-.07-.47-.15-.94-.24-1.4l.57-.11c.09,.47,.18,.95,.25,1.43l-.57,.08Zm-57.72-2.7l-.56-.14c.11-.47,.24-.94,.38-1.4l.55,.16c-.13,.45-.26,.91-.37,1.37Zm57.17-.09c-.11-.46-.24-.92-.38-1.37l.55-.17c.14,.46,.27,.93,.38,1.4l-.56,.14Zm-56.36-2.63l-.55-.19c.16-.46,.33-.91,.51-1.36l.53,.22c-.18,.44-.35,.89-.5,1.33Zm55.55-.09c-.16-.45-.33-.89-.51-1.33l.53-.22c.18,.44,.36,.9,.52,1.36l-.54,.19Zm-54.48-2.55l-.52-.24c.2-.44,.42-.88,.64-1.3l.51,.27c-.22,.42-.43,.85-.63,1.28Zm53.4-.08c-.2-.43-.41-.85-.63-1.27l.51-.27c.22,.43,.44,.86,.64,1.3l-.52,.24Zm-52.07-2.44l-.5-.29c.24-.42,.5-.83,.77-1.23l.48,.32c-.26,.4-.51,.8-.75,1.21Zm50.75-.07c-.24-.41-.49-.81-.75-1.21l.48-.32c.27,.4,.52,.82,.77,1.23l-.5,.29Zm-49.19-2.31l-.47-.34c.28-.39,.58-.78,.88-1.15l.45,.36c-.3,.37-.59,.75-.86,1.13Zm47.63-.06c-.28-.38-.57-.76-.87-1.13l.45-.36c.3,.37,.6,.76,.88,1.15l-.47,.34Zm-45.85-2.16l-.43-.38c.32-.36,.65-.72,.99-1.06l.41,.4c-.33,.34-.65,.69-.97,1.04Zm44.06-.05c-.31-.35-.64-.7-.97-1.04l.41-.4c.34,.34,.67,.7,.99,1.06l-.43,.38Zm-42.08-1.98l-.39-.42c.35-.33,.72-.65,1.08-.96l.37,.44c-.36,.3-.72,.62-1.06,.94Zm40.09-.05c-.35-.32-.71-.64-1.07-.94l.37-.44c.37,.31,.73,.63,1.09,.96l-.39,.42Zm-37.91-1.79l-.35-.46c.38-.29,.77-.58,1.17-.85l.33,.47c-.39,.27-.78,.55-1.15,.84Zm35.74-.04c-.37-.29-.76-.57-1.15-.84l.33-.48c.4,.27,.79,.56,1.17,.85l-.35,.46Zm-33.4-1.58l-.31-.49c.41-.25,.83-.5,1.25-.74l.28,.5c-.41,.23-.82,.47-1.22,.72Zm31.06-.04c-.4-.25-.81-.49-1.23-.72l.28-.5c.42,.23,.84,.48,1.25,.74l-.3,.49Zm-28.58-1.34l-.26-.52c.43-.21,.87-.42,1.31-.61l.23,.53c-.43,.19-.86,.39-1.29,.6Zm26.09-.04c-.42-.21-.86-.41-1.29-.6l.23-.53c.44,.19,.89,.4,1.32,.61l-.26,.52Zm-23.49-1.1l-.21-.54c.45-.17,.91-.33,1.37-.48l.18,.55c-.45,.15-.9,.31-1.34,.47Zm20.88-.03c-.44-.17-.9-.33-1.35-.47l.18-.55c.46,.15,.92,.31,1.37,.48l-.2,.54Zm-18.18-.85l-.15-.56c.46-.13,.94-.24,1.41-.35l.12,.56c-.46,.1-.93,.22-1.38,.34Zm15.47-.03c-.46-.12-.92-.24-1.38-.34l.12-.56c.47,.1,.94,.22,1.41,.34l-.15,.56Zm-12.69-.59l-.1-.57c.48-.08,.96-.15,1.44-.21l.07,.57c-.47,.06-.94,.13-1.41,.21Zm9.91-.02c-.46-.08-.94-.15-1.41-.2l.07-.57c.48,.06,.96,.13,1.44,.21l-.1,.57Zm-7.09-.33l-.04-.58c.48-.04,.97-.06,1.45-.07v.58c-.46,.01-.93,.04-1.41,.07Zm4.26,0c-.47-.03-.95-.05-1.42-.07v-.58c.5,.01,.98,.03,1.46,.07l-.04,.58Z"/></g><g><g class="cls-5"><rect class="cls-2" x="44.14" width="1.22" height="5.91"/></g><g class="cls-5"><rect class="cls-2" x="18.62" y="10.57" width="1.22" height="5.91" transform="translate(-3.93 17.56) rotate(-44.99)"/></g><g class="cls-5"><rect class="cls-2" x="8.05" y="36.09" width="1.22" height="5.91" transform="translate(-30.39 47.71) rotate(-90)"/></g><g class="cls-5"><rect class="cls-2" x="18.62" y="61.61" width="1.22" height="5.91" transform="translate(-12.82 123.83) rotate(-135.01)"/></g><g class="cls-5"><rect class="cls-2" x="44.14" y="72.18" width="1.22" height="5.91" transform="translate(89.51 150.28) rotate(180)"/></g><g class="cls-5"><rect class="cls-2" x="69.66" y="61.61" width="1.22" height="5.91" transform="translate(165.62 60.54) rotate(135.01)"/></g><g class="cls-5"><rect class="cls-2" x="80.23" y="36.09" width="1.22" height="5.91" transform="translate(119.89 -41.8) rotate(90)"/></g><g class="cls-5"><rect class="cls-2" x="69.66" y="10.57" width="1.22" height="5.91" transform="translate(30.14 -45.72) rotate(44.99)"/></g></g><g class="cls-5"><g><g><path class="cls-1" d="M45.39,66.44c-1.45,0-2.94-.13-4.43-.37v-.04c1.5,.24,2.98,.37,4.43,.37,1.49,0,2.98-.12,4.43-.35,1.38-.21,2.83-.57,4.31-1.06,1.45-.48,2.82-1.07,4.09-1.74,1.31-.69,2.57-1.49,3.75-2.38,1.12-.84,2.23-1.84,3.31-2.96,1.06-1.12,2-2.28,2.8-3.45,.83-1.22,1.57-2.52,2.2-3.86l.04,.02c-.63,1.34-1.37,2.64-2.2,3.87-.79,1.17-1.73,2.33-2.8,3.45-1.08,1.12-2.19,2.12-3.31,2.96-1.18,.89-2.45,1.69-3.75,2.39-1.27,.68-2.64,1.27-4.09,1.75-1.49,.49-2.94,.85-4.32,1.06-1.45,.23-2.94,.34-4.43,.35Z"/><polygon class="cls-1" points="41.27 65.73 41.08 66.06 41.16 66.44 40.43 65.95 41.27 65.73"/></g><g><path class="cls-1" d="M51.35,61.97v-.04c5.02-1.29,9.54-4.24,12.71-8.31,.83-1.06,1.55-2.15,2.13-3.22,.61-1.13,1.14-2.31,1.57-3.53,.42-1.17,.75-2.43,.97-3.74,.24-1.42,.35-2.67,.35-3.85h.04c0,1.18-.12,2.44-.36,3.86-.23,1.31-.55,2.57-.97,3.74-.43,1.21-.96,2.4-1.58,3.53-.59,1.08-1.31,2.16-2.14,3.23-3.18,4.08-7.7,7.04-12.74,8.33Z"/><polygon class="cls-1" points="69.44 39.04 68.8 39.04 68.78 39.55 69.43 39.57 69.44 39.04"/></g><g><path class="cls-1" d="M45.47,64.65c-4.41,0-8.76-1.12-12.54-3.28l.02-.04c4.81,2.74,10.54,3.81,16.15,3.02,5.52-.76,10.72-3.4,14.65-7.44l.03,.03c-3.93,4.04-9.14,6.68-14.67,7.45-1.21,.17-2.43,.26-3.64,.26Z"/><path class="cls-1" d="M33.14,61.04c-.15-.09-.35-.01-.45,.16-.1,.17-.06,.39,.1,.48,.15,.09,.36,.02,.45-.16,.1-.18,.05-.39-.1-.48Z"/></g></g><g><g><path class="cls-1" d="M23.05,54.77c-1.71-2.4-3-5.09-3.85-7.99-.84-2.88-1.21-5.84-1.09-8.8,.06-1.51,.24-3,.52-4.42,.3-1.45,.72-2.89,1.24-4.27,.51-1.35,1.15-2.7,1.92-4.01,.75-1.28,1.6-2.51,2.54-3.65l.03,.03c-.94,1.14-1.79,2.37-2.53,3.65-.77,1.31-1.41,2.66-1.92,4.01-.52,1.38-.94,2.81-1.24,4.27-.28,1.42-.46,2.9-.52,4.41-.24,6,1.51,11.95,4.93,16.76l-.04,.03Z"/><path class="cls-1" d="M24.47,22.06l-.19-.34-.37-.11c.26-.14,.53-.26,.79-.38-.08,.28-.17,.55-.23,.83Z"/></g><g><path class="cls-1" d="M33.43,59.42c-2.27-1.35-4.26-3.02-5.91-4.96-.84-.98-1.61-2.04-2.28-3.13-.66-1.1-1.25-2.27-1.73-3.46-.49-1.22-.88-2.46-1.14-3.7-.28-1.29-.46-2.58-.53-3.83-.06-1.3-.03-2.6,.11-3.87,.12-1.21,.37-2.46,.73-3.8h.04c-.37,1.35-.61,2.59-.73,3.8-.13,1.27-.17,2.57-.11,3.87,.07,1.25,.25,2.54,.53,3.83,.26,1.23,.65,2.47,1.14,3.69,.48,1.19,1.06,2.36,1.72,3.46,.67,1.09,1.43,2.14,2.28,3.12,1.65,1.93,3.63,3.6,5.9,4.95l-.02,.04Z"/><polygon class="cls-1" points="33.5 59.8 33.82 59.24 33.38 58.99 33.04 59.54 33.5 59.8"/></g><g><path class="cls-1" d="M20.81,45.95c-.4-1.45-.66-2.79-.79-4.11-.14-1.38-.18-2.78-.12-4.18,.17-2.9,.78-5.64,1.8-8.14,.52-1.3,1.15-2.56,1.86-3.75,.73-1.19,1.56-2.33,2.46-3.38,1.78-2.09,3.92-3.9,6.38-5.37l.02,.04c-2.45,1.47-4.6,3.27-6.37,5.36-.9,1.06-1.73,2.19-2.46,3.38-.71,1.19-1.34,2.44-1.86,3.74-1.02,2.5-1.63,5.24-1.8,8.13-.07,1.4-.03,2.8,.12,4.18,.14,1.31,.39,2.65,.79,4.1h-.04Z"/><path class="cls-1" d="M32.59,17.36c.15-.09,.19-.3,.09-.47-.1-.18-.31-.24-.46-.16-.16,.09-.19,.3-.09,.48,.1,.17,.31,.24,.46,.15Z"/></g></g><g><g><path class="cls-1" d="M71.09,29.46c-.48-1.32-1.1-2.63-1.89-4.02-.78-1.35-1.63-2.58-2.51-3.66-1.94-2.36-4.17-4.34-6.62-5.87-4.96-3.18-10.99-4.64-16.98-4.11v-.04c2.95-.26,5.93-.04,8.84,.66,2.94,.71,5.69,1.87,8.17,3.45,2.46,1.53,4.69,3.51,6.64,5.88,.89,1.08,1.74,2.31,2.52,3.67,.79,1.39,1.41,2.7,1.9,4.02h-.04Z"/><path class="cls-1" d="M70.69,29.34h.39l.28-.26c-.01,.29-.03,.58-.06,.87-.19-.21-.4-.42-.61-.61Z"/></g><g><path class="cls-1" d="M62.36,22.53c-3.63-3.73-8.45-6.17-13.55-6.87-5.2-.73-10.5,.26-14.93,2.8l-.02-.04c4.44-2.54,9.75-3.54,14.96-2.81,5.11,.7,9.93,3.15,13.57,6.88l-.03,.03Z"/><polygon class="cls-1" points="33.5 18.29 33.82 18.85 34.26 18.59 33.95 18.03 33.5 18.29"/></g><g><path class="cls-1" d="M71.04,38.74c0-1.29-.13-2.65-.39-4.16-.25-1.43-.61-2.79-1.06-4.04-.47-1.31-1.04-2.59-1.71-3.81-.63-1.15-1.41-2.33-2.31-3.48-3.43-4.4-8.32-7.59-13.76-8.98v-.04c5.46,1.39,10.36,4.59,13.79,9,.91,1.16,1.68,2.33,2.31,3.49,.67,1.22,1.24,2.51,1.71,3.82,.45,1.25,.81,2.62,1.06,4.05,.26,1.51,.39,2.87,.39,4.17h-.04Z"/><path class="cls-1" d="M70.69,38.73c0,.17,.17,.31,.37,.31,.2,0,.36-.14,.36-.32,0-.18-.17-.32-.37-.31-.2,0-.36,.15-.36,.32Z"/></g></g></g></g><g><path class="cls-3" d="M45.03,58.22c-10.22,0-18.54-8.32-18.54-18.54s8.32-18.54,18.54-18.54,18.54,8.32,18.54,18.54-8.32,18.54-18.54,18.54Zm0-36.87c-10.11,0-18.33,8.22-18.33,18.33s8.22,18.33,18.33,18.33,18.33-8.22,18.33-18.33-8.22-18.33-18.33-18.33Z"/><path class="cls-3" d="M45.03,44.76c-2.8,0-5.08-2.28-5.08-5.08,0-1.8,.97-3.48,2.53-4.39l.32,.54c-1.37,.8-2.21,2.27-2.21,3.85,0,2.45,2,4.45,4.45,4.45s4.45-2,4.45-4.45h.63c0,2.8-2.28,5.08-5.08,5.08Z"/><path class="cls-3" d="M45.03,46.09c-.56,0-1.11-.07-1.65-.21l.16-.61c.48,.13,.98,.19,1.49,.19,1.54,0,3-.6,4.09-1.69,1.09-1.09,1.69-2.54,1.69-4.09s-.6-3-1.69-4.09-2.54-1.69-4.09-1.69-3,.6-4.09,1.69l-.46-.43,.02-.02c1.21-1.21,2.82-1.87,4.53-1.87s3.32,.67,4.53,1.88c1.21,1.21,1.88,2.82,1.88,4.53s-.67,3.32-1.88,4.53c-1.21,1.21-2.82,1.88-4.53,1.88Z"/><path class="cls-6" d="M45.06,46.09h-.03c-3.53,0-6.41-2.88-6.41-6.41s2.88-6.41,6.41-6.41c2.27,0,4.4,1.22,5.54,3.19l-.54,.32c-1.03-1.77-2.95-2.88-5-2.88-3.19,0-5.78,2.59-5.78,5.78s2.59,5.78,5.78,5.78h.03v.63Z"/><path class="cls-3" d="M45.03,47.55c-2.1,0-4.07-.82-5.56-2.3-.97-.97-1.68-2.19-2.03-3.51l.61-.16c.33,1.22,.97,2.33,1.87,3.23,1.37,1.37,3.18,2.12,5.12,2.12s3.75-.75,5.12-2.12l.45,.44c-1.49,1.49-3.46,2.31-5.56,2.31Zm6.99-9.74c-.33-1.22-.97-2.34-1.87-3.24-1.37-1.37-3.18-2.12-5.12-2.12s-3.75,.75-5.12,2.12l-.46-.43,.02-.02c1.48-1.48,3.45-2.3,5.56-2.3s4.07,.82,5.56,2.3c.98,.98,1.68,2.19,2.03,3.52l-.61,.16Z"/><path class="cls-6" d="M45.05,47.55h-.02c-4.34,0-7.86-3.53-7.86-7.86,0-1.37,.36-2.72,1.04-3.91l.54,.31c-.63,1.09-.96,2.33-.96,3.6,0,3.99,3.25,7.24,7.24,7.24l.02,.63Zm6.8-3.94l-.54-.31c.63-1.09,.96-2.34,.96-3.61,0-3.99-3.25-7.23-7.24-7.23h-.03v-.63h.03c4.34,0,7.87,3.53,7.87,7.86,0,1.38-.36,2.74-1.05,3.92Z"/><path class="cls-3" d="M45.05,60.95h-.01c-.69,0-1.39-.03-2.07-.1l.02-.21c.68,.07,1.37,.1,2.05,.1v.21Zm2.1-.1l-.02-.21c.68-.07,1.37-.17,2.04-.3l.04,.21c-.68,.13-1.37,.24-2.06,.3Zm-6.23-.3c-.68-.13-1.36-.3-2.02-.5l.06-.2c.66,.2,1.33,.37,2,.5l-.04,.21Zm10.32-.51l-.06-.2c.66-.2,1.31-.43,1.95-.7l.08,.19c-.64,.27-1.3,.5-1.96,.7Zm-14.31-.69c-.64-.27-1.28-.57-1.89-.89l.1-.18c.61,.32,1.23,.62,1.87,.88l-.08,.19Zm18.16-.9l-.1-.18c.61-.32,1.2-.68,1.77-1.06l.12,.17c-.58,.39-1.18,.75-1.79,1.08Zm-21.84-1.06c-.58-.39-1.14-.8-1.68-1.24l.13-.16c.53,.44,1.09,.85,1.66,1.23l-.12,.17Zm25.3-1.26l-.13-.16c.53-.44,1.05-.9,1.53-1.39l.15,.15c-.49,.49-1.01,.96-1.55,1.4Zm-28.53-1.39c-.49-.49-.96-1.01-1.4-1.55l.16-.13c.44,.53,.9,1.04,1.39,1.53l-.15,.15Zm31.48-1.56l-.16-.13c.44-.53,.85-1.09,1.23-1.66l.17,.12c-.39,.58-.8,1.14-1.24,1.68Zm-34.12-1.66c-.39-.58-.75-1.18-1.08-1.79l.18-.1c.32,.6,.68,1.2,1.07,1.77l-.17,.12Zm36.44-1.81l-.18-.1c.32-.61,.62-1.23,.88-1.87l.19,.08c-.27,.64-.57,1.27-.89,1.89Zm-38.42-1.86c-.27-.64-.5-1.3-.71-1.96l.2-.06c.2,.66,.43,1.31,.7,1.94l-.19,.08Zm40.01-1.99l-.2-.06c.2-.66,.37-1.33,.5-2l.21,.04c-.13,.68-.3,1.36-.51,2.02Zm-41.22-2c-.14-.68-.24-1.37-.31-2.06l.21-.02c.07,.68,.17,1.37,.3,2.04l-.21,.04Zm42.03-2.09l-.21-.02c.07-.68,.1-1.38,.1-2.06v-.05h.21v.05c0,.7-.03,1.4-.1,2.08Zm-42.23-2.06h-.21v-.02c0-.69,.03-1.38,.1-2.06l.21,.02c-.06,.67-.1,1.36-.1,2.04v.02Zm42.02-2.14c-.07-.68-.17-1.37-.31-2.04l.21-.04c.14,.68,.24,1.37,.31,2.06l-.21,.02Zm-41.62-1.97l-.21-.04c.13-.68,.3-1.36,.5-2.03l.2,.06c-.2,.66-.37,1.33-.5,2.01Zm40.81-2.08c-.2-.66-.44-1.31-.7-1.94l.19-.08c.27,.64,.5,1.3,.71,1.96l-.2,.06Zm-39.62-1.88l-.19-.08c.26-.64,.56-1.28,.89-1.89l.18,.1c-.32,.61-.62,1.23-.88,1.87Zm38.03-1.93c-.32-.6-.68-1.2-1.07-1.77l.17-.12c.39,.58,.75,1.18,1.08,1.79l-.18,.1Zm-36.09-1.71l-.17-.12c.38-.58,.8-1.14,1.24-1.68l.16,.13c-.44,.53-.85,1.09-1.23,1.66Zm33.79-1.72c-.44-.53-.9-1.04-1.39-1.53l.15-.15c.49,.49,.96,1.01,1.4,1.54l-.16,.13Zm-31.17-1.48l-.15-.15c.49-.49,1.01-.96,1.54-1.4l.13,.16c-.53,.44-1.04,.9-1.53,1.39Zm28.24-1.44c-.53-.43-1.09-.85-1.66-1.23l.12-.17c.58,.38,1.14,.8,1.68,1.24l-.13,.16Zm-25.06-1.19l-.12-.17c.58-.39,1.18-.75,1.79-1.08l.1,.18c-.6,.32-1.2,.68-1.77,1.07Zm21.62-1.1c-.61-.32-1.23-.62-1.87-.88l.08-.19c.64,.26,1.28,.56,1.89,.89l-.1,.18Zm-17.99-.85l-.08-.19c.64-.27,1.3-.5,1.96-.71l.06,.2c-.66,.2-1.31,.44-1.94,.7Zm14.17-.72c-.66-.2-1.33-.36-2.01-.5l.04-.21c.68,.13,1.36,.3,2.03,.5l-.06,.2Zm-10.22-.48l-.04-.21c.68-.14,1.37-.24,2.06-.31l.02,.21c-.68,.07-1.37,.17-2.04,.3Zm6.17-.31c-.67-.06-1.35-.1-2.03-.1h-.04v-.21h.04c.68,0,1.37,.03,2.05,.1l-.02,.21Z"/><path class="cls-3" d="M45.03,56.82c-.35,0-.71-.01-1.07-.03l.06-1.04c.67,.04,1.35,.04,2.02,0l.07,1.04c-.36,.02-.72,.03-1.08,.03Zm-3.2-.3c-.7-.13-1.4-.31-2.08-.53l.32-1c.64,.21,1.3,.37,1.96,.5l-.19,1.03Zm6.42,0l-.2-1.03c.66-.13,1.32-.29,1.96-.5l.32,1c-.68,.22-1.38,.4-2.08,.53Zm-10.51-1.32c-.65-.3-1.28-.65-1.89-1.04l.56-.88c.57,.36,1.16,.69,1.77,.97l-.45,.95Zm14.59,0l-.45-.95c.61-.29,1.2-.61,1.77-.97l.56,.88c-.6,.38-1.24,.73-1.88,1.04Zm-18.22-2.29c-.55-.46-1.08-.95-1.57-1.47l.76-.72c.46,.49,.96,.95,1.47,1.38l-.67,.81Zm21.84,0l-.67-.81c.52-.43,1.01-.89,1.47-1.38l.76,.72c-.49,.52-1.02,1.02-1.57,1.47Zm-24.78-3.12c-.42-.58-.81-1.19-1.16-1.81l.92-.51c.32,.59,.69,1.16,1.09,1.7l-.85,.62Zm27.72-.01l-.85-.62c.4-.54,.76-1.12,1.08-1.7l.92,.5c-.34,.63-.73,1.24-1.15,1.82Zm-29.79-3.75c-.26-.66-.49-1.35-.67-2.05l1.01-.26c.17,.65,.38,1.3,.63,1.92l-.97,.39Zm31.86-.02l-.97-.39c.25-.62,.46-1.27,.62-1.92l1.01,.26c-.18,.69-.4,1.38-.66,2.05Zm-32.93-4.14c-.09-.71-.13-1.43-.14-2.15h1.05c0,.67,.04,1.35,.13,2.02l-1.04,.13Zm34-.02l-1.04-.13c.08-.66,.12-1.34,.12-2.02v-.04h1.05v.03c0,.72-.04,1.44-.13,2.15Zm-32.97-4.15l-1.04-.13c.09-.71,.22-1.42,.4-2.11l1.01,.26c-.17,.65-.29,1.32-.37,1.98Zm31.92-.05c-.08-.67-.21-1.33-.38-1.98l1.01-.26c.18,.69,.32,1.4,.41,2.11l-1.04,.13Zm-30.93-3.85l-.97-.38c.26-.67,.57-1.32,.92-1.95l.92,.5c-.32,.59-.61,1.2-.86,1.83Zm29.92-.05c-.25-.62-.54-1.24-.86-1.82l.92-.51c.35,.63,.66,1.28,.92,1.94l-.97,.39Zm-27.98-3.49l-.85-.62c.42-.58,.88-1.14,1.37-1.66l.76,.72c-.46,.49-.89,1.01-1.29,1.56Zm26.03-.04c-.4-.54-.83-1.06-1.29-1.55l.76-.72c.49,.52,.95,1.08,1.37,1.65l-.85,.62Zm-23.27-2.9l-.67-.81c.55-.46,1.13-.88,1.74-1.27l.56,.88c-.57,.36-1.11,.76-1.63,1.19Zm20.5-.03c-.52-.43-1.07-.83-1.64-1.19l.56-.88c.6,.38,1.19,.81,1.74,1.26l-.67,.81Zm-17.1-2.14l-.45-.95c.65-.31,1.32-.57,2-.8l.32,1c-.64,.21-1.27,.46-1.88,.75Zm13.7-.02c-.61-.29-1.24-.53-1.88-.74l.32-1c.68,.22,1.35,.49,2,.79l-.44,.95Zm-9.87-1.23l-.2-1.03c.7-.13,1.42-.23,2.13-.27l.07,1.04c-.67,.04-1.35,.13-2,.25Zm6.03,0c-.66-.12-1.33-.21-2-.25l.06-1.04c.71,.04,1.43,.13,2.13,.26l-.19,1.03Z"/><g class="cls-5"><path class="cls-2" d="M35.02,39.26l-.42-.02c.01-.36,.05-.71,.1-1.06l.41,.06c-.05,.34-.08,.68-.09,1.02Z"/><path class="cls-2" d="M54.84,37.62c-.14-.67-.35-1.34-.63-1.97l.38-.17c.29,.66,.51,1.35,.66,2.05l-.41,.09Zm-19.53-.4l-.41-.1c.18-.7,.43-1.38,.74-2.02l.38,.18c-.3,.62-.54,1.27-.71,1.94Zm18.43-2.49c-.34-.6-.75-1.16-1.2-1.68l.31-.28c.48,.54,.9,1.13,1.25,1.75l-.36,.21Zm-17.22-.35l-.35-.22c.38-.61,.83-1.18,1.32-1.7l.3,.29c-.48,.5-.91,1.05-1.27,1.63Zm15.29-2.07c-.51-.47-1.07-.88-1.66-1.24l.21-.36c.62,.37,1.2,.8,1.73,1.29l-.28,.31Zm-13.26-.27l-.27-.32c.55-.47,1.15-.87,1.78-1.22l.2,.37c-.61,.33-1.18,.72-1.71,1.17Zm10.69-1.45c-.63-.29-1.28-.52-1.96-.67l.09-.41c.7,.16,1.39,.4,2.04,.7l-.18,.38Zm-8.05-.17l-.16-.39c.66-.27,1.36-.48,2.06-.61l.08,.41c-.68,.13-1.34,.33-1.98,.59Zm5.07-.68c-.68-.08-1.38-.1-2.07-.04l-.03-.42c.71-.06,1.44-.04,2.15,.04l-.05,.42Z"/><path class="cls-2" d="M55.47,39.68h-.42c0-.34-.02-.69-.05-1.02l.42-.04c.04,.35,.05,.71,.05,1.07Z"/></g><g class="cls-5"><rect class="cls-4" x="45.03" y="10.83" width=".92" height="4.76"/><rect class="cls-4" x="18.1" y="36.84" width=".92" height="4.76" transform="translate(-20.66 57.78) rotate(-90)"/><rect class="cls-4" x="44.11" y="63.77" width=".92" height="4.76" transform="translate(89.15 132.31) rotate(180)"/><rect class="cls-4" x="71.05" y="37.76" width=".92" height="4.76" transform="translate(111.65 -31.36) rotate(90)"/><rect class="cls-4" x="54.34" y="29.28" width=".46" height="2.39" transform="translate(37.55 -29.67) rotate(45.02)"/><rect class="cls-4" x="35.59" y="28.95" width=".46" height="2.39" transform="translate(-10.83 34.15) rotate(-44.98)"/><rect class="cls-4" x="35.27" y="47.7" width=".46" height="2.39" transform="translate(26.06 108.57) rotate(-135.03)"/><rect class="cls-4" x="54.01" y="48.02" width=".46" height="2.39" transform="translate(127.4 45.68) rotate(135.01)"/></g><path class="cls-3" d="M44.78,44.43v-.21h.42v.21h-.42Zm-.42,0h-.42v-.21h.42v.21Zm1.25,0v-.21h.42v.21h-.42Zm-2.09,0h-.42v-.21h.42v.21Zm2.93,0v-.21h.42v.21h-.42Zm-3.76,0h-.42v-.21h.42v.21Zm4.6,0v-.21h.42v.21h-.42Zm-5.44,0h-.42v-.21h.42v.21Zm6.27,0v-.21h.42v.21h-.42Zm-7.11,0h-.42v-.21h.42v.21Zm7.94,0v-.21h.42v.2h-.42Zm-8.78,0h-.42v-.21h.42v.21Zm9.62,0v-.21h.42v.2h-.42Zm-10.46,0h-.42v-.22h.42v.22Zm11.29,0v-.21h.41v.2h-.41Zm-12.13,0h-.42v-.22h.42v.22Zm12.96,0v-.21h.41v.2h-.41Zm-13.8,0h-.42v-.22h.42v.22Zm14.64,0v-.21h.41v.2h-.41Zm-15.48,0h-.42v-.22h.42v.22Zm16.31-.01v-.21h.41v.2h-.41Zm-17.15,0h-.42v-.22h.42v.22Zm17.98-.01v-.21h.41v.2h-.41Zm-18.82,0h-.42v-.22h.42v.22Zm19.65-.01v-.21h.41v.2h-.41Zm-20.5,0h-.42v-.22h.42v.22Zm21.33-.01v-.21h.41v.2h-.41Zm-22.17,0h-.42v-.22h.42v.22Zm23-.01v-.21h.41v.2h-.41Zm-23.84,0h-.42v-.22h.42v.22Zm24.67-.02v-.21h.41v.19h-.41Zm-25.51,0l-.42-.02v-.21l.43,.02v.21Zm26.34-.02v-.21l.41-.02v.21l-.41,.02Zm-27.19-.01l-.42-.02v-.21l.43,.02v.21Zm28.02-.02v-.21l.41-.02v.21l-.41,.02Zm-28.86-.01l-.42-.02v-.21l.43,.02v.21Zm29.69-.02v-.21l.41-.02v.21l-.41,.02Zm-30.53-.02l-.42-.02v-.21l.43,.02v.21Zm31.36-.02v-.21l.41-.02v.21l-.41,.02Zm-32.2-.02l-.42-.02v-.21l.43,.02v.21Zm33.03-.02v-.21l.41-.02v.21l-.41,.02Zm-33.88-.02l-.42-.02v-.21l.43,.02v.21Zm34.7-.02v-.21l.41-.02v.21l-.41,.02Zm-35.55-.02l-.42-.02v-.21l.43,.02v.21Zm36.37-.02v-.21l.41-.02v.21l-.41,.02Zm-37.22-.02l-.42-.02v-.21l.43,.02v.21Zm38.04-.03v-.21l.41-.02v.21l-.41,.02Zm-38.89-.02l-.42-.02v-.21l.43,.02v.21Zm39.71-.03v-.21l.4-.03v.21l-.4,.03Zm-40.56-.02l-.42-.03v-.21l.43,.03v.21Zm41.38-.03v-.21l.4-.03v.21l-.4,.03Zm-42.23-.02l-.42-.03v-.21l.43,.03v.21Zm43.05-.03v-.21l.4-.03v.21l-.4,.03Zm-43.9-.02l-.42-.03v-.21l.43,.03v.21Zm44.72-.03v-.21l.4-.03v.21l-.4,.03Zm-45.57-.03l-.42-.03,.02-.21,.42,.03v.21Zm46.39-.03l-.02-.21,.42-.03,.02,.21-.42,.03Zm-47.24-.03l-.42-.03,.02-.21,.42,.03-.02,.21Zm48.08-.04l-.02-.21,.42-.03,.02,.21-.42,.03Zm-48.91-.03l-.42-.03,.02-.21,.42,.03-.02,.21Zm49.75-.04l-.02-.21,.42-.03,.02,.21-.42,.03Zm-50.58-.03l-.42-.03,.02-.21,.42,.03-.02,.21Zm51.41-.04l-.02-.21,.42-.04,.02,.21-.42,.04Zm-52.25-.03l-.42-.04,.02-.21,.42,.04-.02,.21Zm53.08-.04l-.02-.21,.42-.04,.02,.21-.42,.04Zm-53.92-.03l-.42-.04,.02-.21,.42,.04-.02,.21Zm54.75-.04l-.02-.21,.42-.04,.02,.21-.42,.04Zm-55.58-.03l-.42-.04,.02-.21,.42,.04-.02,.21Zm56.42-.05l-.02-.21,.42-.04,.02,.21-.42,.04Zm-57.25-.04l-.42-.04,.02-.21,.42,.04-.02,.21Zm58.08-.05l-.02-.21,.42-.04,.02,.21-.42,.04Zm-58.92-.04l-.42-.04,.02-.21,.42,.04-.02,.21Zm59.75-.05l-.02-.21,.42-.05,.02,.21-.42,.05Zm-60.58-.04l-.42-.05,.02-.21,.42,.05-.02,.21Zm61.41-.05l-.02-.21,.42-.05,.02,.21-.42,.05Zm-62.25-.04l-.42-.05,.02-.21,.42,.05-.02,.21Zm63.08-.06l-.02-.21,.42-.05,.03,.21-.42,.05Zm-63.91-.04l-.42-.05,.03-.21,.41,.05-.03,.21Zm64.74-.06l-.03-.21,.41-.05,.03,.21-.42,.05Zm-65.57-.05l-.42-.05,.03-.21,.41,.05-.03,.21Zm66.4-.06l-.03-.21,.41-.06,.03,.21-.41,.06Zm-67.23-.05l-.41-.06,.03-.21,.41,.06-.03,.21Zm68.06-.06l-.03-.21c.14-.02,.28-.04,.41-.06l.03,.21c-.14,.02-.28,.04-.41,.06Zm-68.89-.05l-.41-.06,.03-.21,.41,.06-.03,.21Zm69.72-.07l-.03-.21,.41-.06,.03,.21-.41,.06Zm-70.55-.05l-.41-.06,.03-.21,.41,.06-.03,.21Zm71.38-.07l-.03-.21c.14-.02,.28-.04,.41-.07l.03,.21c-.14,.02-.27,.04-.41,.07Zm-72.2-.06c-.14-.02-.28-.05-.41-.07l.03-.21c.14,.02,.27,.05,.41,.07l-.03,.21Zm73.03-.08l-.03-.21c.14-.02,.28-.05,.41-.07l.04,.21c-.14,.02-.27,.05-.41,.07Zm-73.86-.06c-.14-.02-.28-.05-.41-.07l.04-.21c.14,.02,.27,.05,.41,.07l-.04,.21Zm74.68-.08l-.04-.21c.14-.03,.28-.05,.41-.08l.04,.21c-.14,.03-.27,.05-.41,.08Zm-75.51-.07c-.14-.03-.28-.05-.41-.08l.04-.21c.13,.03,.27,.05,.41,.08l-.04,.21Zm76.33-.09l-.04-.21c.14-.03,.28-.05,.41-.08l.04,.2c-.13,.03-.27,.06-.41,.08Zm-77.15-.07c-.14-.03-.28-.06-.41-.09l.04-.2c.13,.03,.27,.06,.41,.09l-.04,.21Zm77.97-.1l-.04-.2c.14-.03,.27-.06,.41-.09l.05,.2c-.13,.03-.27,.06-.41,.09Zm-78.79-.08c-.14-.03-.28-.06-.41-.09l.05-.2c.13,.03,.27,.06,.41,.09l-.05,.2Zm79.61-.11l-.05-.2c.14-.03,.27-.07,.41-.1l.05,.2c-.13,.03-.27,.07-.41,.1Zm-80.43-.09c-.14-.03-.27-.07-.41-.1l.05-.2c.13,.03,.27,.07,.4,.1l-.05,.2Zm81.24-.12l-.05-.2c.14-.04,.27-.07,.4-.11l.06,.2c-.13,.04-.27,.07-.41,.11Zm-82.06-.1c-.14-.04-.27-.08-.4-.12l.06-.2c.13,.04,.26,.08,.4,.12l-.06,.2Zm82.86-.13l-.06-.2c.14-.04,.27-.08,.4-.12l.07,.2c-.13,.04-.26,.08-.4,.13Zm-83.67-.11c-.14-.04-.27-.09-.4-.13l.07-.2c.13,.04,.26,.09,.39,.13l-.06,.2Zm84.47-.15l-.07-.2c.14-.05,.26-.1,.39-.15l.08,.19c-.13,.05-.26,.1-.4,.15Zm-85.26-.13c-.14-.05-.27-.11-.39-.16l.08-.19c.12,.05,.25,.11,.38,.16l-.08,.2Zm86.05-.18l-.09-.19c.13-.06,.26-.12,.37-.18l.1,.19c-.12,.06-.25,.12-.38,.19Zm-86.82-.16c-.13-.07-.26-.14-.37-.21l.11-.18c.11,.07,.23,.13,.35,.2l-.1,.19Zm87.57-.24l-.11-.18c.12-.08,.23-.16,.32-.24l.14,.16c-.1,.09-.21,.18-.34,.26ZM.46,39.88c-.12-.1-.22-.21-.3-.32l.17-.12c.06,.09,.15,.19,.26,.28l-.14,.16Zm88.92-.37l-.18-.11c.07-.11,.1-.22,.1-.32,0-.03,0-.06,0-.09l.21-.03s0,.08,0,.12c0,.14-.04,.29-.13,.43ZM0,39.14s0-.04,0-.06c0-.13,.03-.26,.1-.38l.18,.1c-.05,.1-.08,.19-.08,.28,0,.01,0,.03,0,.04l-.21,.02Zm89.14-.46c-.07-.09-.16-.18-.27-.27l.13-.16c.12,.1,.23,.21,.3,.31l-.17,.13Zm-88.63-.18l-.14-.15c.09-.09,.21-.18,.34-.27l.12,.17c-.12,.08-.23,.16-.31,.25Zm88.03-.33c-.11-.07-.23-.13-.36-.2l.09-.19c.13,.07,.26,.14,.37,.21l-.11,.18Zm-87.37-.13l-.1-.18c.12-.06,.24-.13,.38-.19l.09,.19c-.13,.06-.25,.12-.37,.18Zm86.64-.24c-.12-.05-.25-.1-.38-.16l.08-.2c.14,.05,.27,.11,.39,.16l-.08,.19Zm-85.89-.1l-.08-.19c.13-.05,.26-.1,.39-.15l.07,.2c-.14,.05-.26,.1-.39,.15Zm85.12-.2c-.13-.04-.26-.09-.39-.13l.06-.2c.14,.04,.27,.09,.4,.13l-.07,.2Zm-84.34-.08l-.07-.2c.13-.04,.26-.09,.4-.13l.06,.2c-.14,.04-.27,.08-.4,.13Zm83.54-.17c-.13-.04-.26-.08-.4-.11l.06-.2c.14,.04,.27,.08,.4,.12l-.06,.2Zm-82.75-.07l-.06-.2c.13-.04,.27-.07,.41-.11l.05,.2c-.14,.04-.27,.07-.4,.11Zm81.95-.15c-.13-.03-.27-.07-.4-.1l.05-.2c.14,.03,.27,.07,.41,.1l-.05,.2Zm-81.14-.07l-.05-.2c.13-.03,.27-.07,.41-.1l.05,.2c-.14,.03-.27,.07-.41,.1Zm80.33-.13c-.13-.03-.27-.06-.41-.09l.05-.2c.14,.03,.28,.06,.41,.09l-.05,.2Zm-79.52-.06l-.05-.2c.13-.03,.27-.06,.41-.09l.04,.2c-.14,.03-.27,.06-.41,.09Zm78.7-.12c-.13-.03-.27-.06-.41-.08l.04-.21c.14,.03,.28,.06,.41,.09l-.04,.2Zm-77.89-.05l-.04-.21c.13-.03,.27-.06,.41-.08l.04,.21c-.14,.03-.27,.06-.41,.08Zm77.07-.11c-.13-.03-.27-.05-.41-.08l.04-.21c.14,.03,.28,.05,.41,.08l-.04,.21Zm-76.25-.05l-.04-.21c.14-.03,.27-.05,.41-.08l.04,.21c-.14,.03-.28,.05-.41,.08Zm75.43-.1c-.14-.02-.27-.05-.41-.07l.04-.21c.14,.02,.28,.05,.41,.07l-.04,.21Zm-74.61-.05l-.04-.21c.14-.02,.27-.05,.41-.07l.04,.21c-.14,.02-.28,.05-.41,.07Zm73.78-.1c-.14-.02-.27-.05-.41-.07l.03-.21c.14,.02,.28,.05,.41,.07l-.03,.21Zm-72.96-.04l-.03-.21c.14-.02,.27-.04,.41-.07l.03,.21c-.14,.02-.28,.04-.41,.07Zm72.14-.09l-.41-.06,.03-.21,.41,.06-.03,.21Zm-71.31-.04l-.03-.21,.41-.06,.03,.21-.41,.06Zm70.49-.09l-.41-.06,.03-.21,.41,.06-.03,.21Zm-69.66-.04l-.03-.21,.41-.06,.03,.21-.41,.06Zm68.83-.08l-.41-.06,.03-.21,.41,.06-.03,.21Zm-68-.04l-.03-.21,.42-.06,.03,.21-.41,.06Zm67.18-.08l-.41-.05,.03-.21,.42,.05-.03,.21Zm-66.35-.03l-.03-.21,.42-.05,.03,.21-.41,.05Zm65.52-.07l-.42-.05,.03-.21,.42,.05-.03,.21Zm-64.69-.03l-.03-.21,.42-.05,.02,.21-.42,.05Zm63.86-.07l-.42-.05,.02-.21,.42,.05-.02,.21Zm-63.03-.03l-.02-.21,.42-.05,.02,.21-.42,.05Zm62.2-.06l-.42-.05,.02-.21,.42,.05-.02,.21Zm-61.37-.03l-.02-.21,.42-.05,.02,.21-.42,.05Zm60.54-.06l-.42-.04,.02-.21,.42,.04-.02,.21Zm-59.7-.03l-.02-.21,.42-.04,.02,.21-.42,.04Zm58.87-.06l-.42-.04,.02-.21,.42,.04-.02,.21Zm-58.04-.03l-.02-.21,.42-.04,.02,.21-.42,.04Zm57.21-.06l-.42-.04,.02-.21,.42,.04-.02,.21Zm-56.38-.03l-.02-.21,.42-.04,.02,.21-.42,.04Zm55.54-.05l-.42-.04,.02-.21,.42,.04-.02,.21Zm-54.71-.02l-.02-.21,.42-.04,.02,.21-.42,.04Zm53.88-.05l-.42-.04,.02-.21,.42,.04-.02,.21Zm-53.05-.02l-.02-.21,.42-.04,.02,.21-.42,.04Zm52.21-.05l-.42-.03,.02-.21,.42,.03-.02,.21Zm-51.38-.02l-.02-.21,.42-.03,.02,.21-.42,.03Zm50.55-.05l-.42-.03,.02-.21,.42,.03-.02,.21Zm-49.71-.02l-.02-.21,.42-.03,.02,.21-.42,.03Zm48.88-.04l-.42-.03,.02-.21,.42,.03-.02,.21Zm-48.05-.02l-.02-.21,.42-.03,.02,.21-.42,.03Zm47.21-.04l-.42-.03v-.21l.43,.03-.02,.21Zm-46.38-.02v-.21l.4-.03v.21l-.4,.03Zm45.54-.04l-.42-.03v-.21l.43,.03v.21Zm-44.72-.02v-.21l.4-.03v.21l-.4,.03Zm43.87-.04l-.42-.03v-.21l.43,.03v.21Zm-43.05-.02v-.21l.4-.03v.21l-.4,.03Zm42.21-.04l-.42-.03v-.21l.43,.03v.21Zm-41.38-.02v-.21l.4-.03v.21l-.4,.03Zm40.54-.03l-.42-.02v-.21l.43,.02v.21Zm-39.71-.02v-.21l.41-.02v.21l-.41,.02Zm38.87-.03l-.42-.02v-.21l.43,.02v.21Zm-38.04-.01v-.21l.41-.02v.21l-.41,.02Zm37.2-.03l-.42-.02v-.21l.43,.02v.21Zm-36.37-.01v-.21l.41-.02v.21l-.41,.02Zm35.53-.03l-.42-.02v-.21l.43,.02v.21Zm-34.7-.01v-.21l.41-.02v.21l-.41,.02Zm33.86-.03l-.42-.02v-.21l.43,.02v.21Zm-33.03-.01v-.21l.41-.02v.21l-.41,.02Zm32.18-.03l-.42-.02v-.21l.43,.02v.21Zm-31.36-.01v-.21l.41-.02v.21l-.41,.02Zm30.51-.02l-.42-.02v-.21l.43,.02v.21Zm-29.69-.01v-.21l.41-.02v.21l-.41,.02Zm28.84-.02l-.42-.02v-.21l.43,.02v.21Zm-28.02-.01v-.21l.41-.02v.21l-.41,.02Zm27.17-.02l-.42-.02v-.21l.43,.02v.21Zm-26.34,0v-.21h.41v.19h-.41Zm25.5,0h-.42v-.22h.42v.22Zm-24.67,0v-.21h.41v.2h-.41Zm23.83,0h-.42v-.22h.42v.22Zm-23,0v-.21h.41v.2h-.41Zm22.16,0h-.42v-.22h.42v.22Zm-21.33,0v-.21h.41v.2h-.41Zm20.48,0h-.42v-.22h.42v.22Zm-19.65,0v-.21h.41v.2h-.41Zm18.81,0h-.42v-.22h.42v.22Zm-17.98,0v-.21h.41v.2h-.41Zm17.14,0h-.42v-.22h.42v.22Zm-16.31,0v-.21h.41v.2h-.41Zm15.47,0h-.42v-.22h.42v.22Zm-14.64,0v-.21h.41v.2h-.41Zm13.8,0h-.42v-.22h.42v.22Zm-12.96,0v-.21h.41v.2h-.41Zm12.12,0h-.42v-.22h.42v.22Zm-11.29,0v-.21h.42v.2h-.42Zm10.45,0h-.42v-.21h.42v.21Zm-9.62,0v-.21h.42v.2h-.42Zm8.78,0h-.42v-.21h.42v.21Zm-7.94,0v-.21h.42v.21h-.42Zm7.11,0h-.42v-.21h.42v.21Zm-6.27,0v-.21h.42v.21h-.42Zm5.43,0h-.42v-.21h.42v.21Zm-4.6,0v-.21h.42v.21h-.42Zm3.76,0h-.42v-.21h.42v.21Zm-2.93,0v-.21h.42v.21h-.42Zm2.09,0h-.42v-.21h.42v.21Zm-1.26,0v-.21h.42v.21h-.42Z"/><path class="cls-3" d="M5.58,52.83c-2.21,0-3.53-.33-3.74-1.03-.85-2.88,17.33-10.72,41.39-17.85,24.06-7.13,43.58-10.46,44.43-7.58h0c.85,2.88-17.33,10.72-41.39,17.85-18.21,5.4-33.81,8.62-40.7,8.62ZM84.1,25.52c-6.78,0-22.92,3.32-40.81,8.62C20.14,41,1.25,49.06,2.05,51.74c.79,2.67,21.02-.86,44.17-7.72,23.15-6.86,42.04-14.92,41.25-17.59h0c-.18-.61-1.37-.9-3.36-.9Z"/><path class="cls-3" d="M14.1,71.23c-.41-.08-.74-.25-.99-.5-.24-.24-.41-.56-.49-.95l.2-.04c.08,.35,.22,.63,.44,.85,.22,.22,.52,.37,.88,.44l-.04,.21Zm2.12-.14l-.05-.2c.58-.14,1.25-.37,1.97-.66l.08,.19c-.73,.3-1.4,.53-2,.67Zm3.9-1.56l-.1-.19c.58-.3,1.2-.63,1.83-1l.1,.18c-.64,.37-1.26,.71-1.84,1Zm-7.18-1.82l-.2-.05c.14-.59,.37-1.27,.67-2l.19,.08c-.3,.72-.52,1.38-.66,1.97Zm10.82-.27l-.11-.18c.57-.35,1.16-.74,1.75-1.14l.12,.17c-.6,.4-1.19,.79-1.76,1.14Zm3.49-2.33l-.12-.17c.55-.39,1.13-.8,1.7-1.22l.12,.17c-.58,.42-1.15,.83-1.7,1.22Zm-12.77-1.26l-.19-.1c.3-.58,.63-1.2,1-1.84l.18,.1c-.37,.64-.7,1.26-1,1.84Zm16.15-1.21l-.13-.17c.55-.42,1.1-.85,1.66-1.28l.13,.16c-.55,.43-1.11,.87-1.66,1.28Zm-14.08-2.41l-.18-.11c.36-.57,.74-1.16,1.14-1.76l.17,.12c-.4,.6-.78,1.19-1.14,1.76Zm17.38-.18l-.13-.16c.53-.43,1.07-.87,1.62-1.33l.13,.16c-.55,.45-1.09,.89-1.62,1.33Zm3.23-2.67l-.14-.16c.53-.45,1.06-.9,1.59-1.36l.14,.16c-.53,.46-1.06,.92-1.59,1.36Zm-18.28-.63l-.17-.12c.39-.55,.8-1.13,1.22-1.7l.17,.12c-.42,.58-.83,1.15-1.22,1.7Zm21.45-2.11l-.14-.16c.52-.46,1.04-.92,1.56-1.4l.14,.16c-.52,.47-1.04,.94-1.56,1.4Zm-18.98-1.26l-.17-.13c.41-.54,.84-1.1,1.28-1.66l.16,.13c-.44,.56-.87,1.11-1.28,1.66Zm22.09-1.54l-.14-.15c.51-.47,1.02-.94,1.53-1.42l.14,.15c-.51,.48-1.03,.96-1.54,1.43Zm-19.51-1.75l-.16-.13c.43-.54,.87-1.08,1.33-1.62l.16,.13c-.45,.55-.89,1.09-1.32,1.62Zm22.57-1.11l-.14-.15c.5-.48,1-.96,1.51-1.45l.15,.15c-.5,.49-1.01,.97-1.51,1.45Zm-19.9-2.11l-.16-.14c.45-.53,.9-1.06,1.36-1.59l.16,.14c-.46,.53-.92,1.06-1.36,1.59Zm22.9-.81l-.15-.15c.37-.36,.74-.73,1.11-1.1l.38-.38,.15,.15-.38,.38c-.37,.37-.74,.74-1.11,1.1Zm-20.16-2.36l-.16-.14c.46-.52,.92-1.04,1.4-1.56l.16,.14c-.47,.52-.94,1.04-1.39,1.56Zm23.12-.61l-.15-.15c.49-.5,.98-1,1.46-1.5l.15,.15c-.48,.5-.97,1-1.46,1.5Zm-20.31-2.5l-.15-.14c.47-.51,.94-1.02,1.43-1.54l.15,.14c-.48,.51-.96,1.02-1.42,1.53Zm23.22-.52l-.15-.14c.48-.51,.96-1.02,1.43-1.53l.15,.14c-.47,.51-.95,1.02-1.43,1.53Zm-20.36-2.53l-.15-.14c.48-.5,.96-1.01,1.45-1.51l.15,.15c-.49,.5-.97,1.01-1.45,1.51Zm23.21-.54l-.15-.14c.47-.52,.94-1.04,1.4-1.55l.16,.14c-.46,.52-.93,1.03-1.4,1.56Zm-20.29-2.47l-.15-.15c.37-.38,.75-.76,1.13-1.14l.35-.35,.15,.15-.35,.35c-.38,.38-.75,.76-1.13,1.13Zm23.09-.66l-.16-.14c.47-.53,.92-1.06,1.37-1.58l.16,.14c-.45,.52-.91,1.05-1.37,1.58Zm-20.12-2.3l-.15-.15c.5-.49,1-.98,1.5-1.46l.15,.15c-.5,.48-1,.97-1.5,1.46Zm22.85-.89l-.16-.13c.45-.54,.9-1.08,1.33-1.61l.16,.13c-.44,.53-.88,1.07-1.34,1.61Zm-19.83-2.02l-.14-.15c.51-.48,1.02-.96,1.53-1.43l.14,.15c-.51,.47-1.02,.95-1.53,1.43Zm22.48-1.23l-.16-.13c.44-.55,.88-1.11,1.29-1.65l.17,.13c-.42,.54-.85,1.09-1.29,1.65Zm-19.42-1.62l-.14-.15c.52-.48,1.04-.94,1.55-1.4l.14,.16c-.52,.46-1.03,.93-1.55,1.4Zm21.98-1.7l-.17-.13c.42-.57,.84-1.14,1.24-1.69l.17,.12c-.4,.55-.81,1.12-1.24,1.69Zm-18.86-1.09l-.14-.16c.53-.47,1.06-.92,1.58-1.37l.14,.16c-.52,.45-1.05,.91-1.58,1.37Zm21.3-2.31l-.17-.12c.41-.59,.8-1.18,1.16-1.74l.18,.11c-.37,.56-.76,1.15-1.17,1.74Zm-18.12-.41l-.13-.16c.54-.46,1.08-.9,1.61-1.34l.13,.16c-.53,.44-1.07,.88-1.61,1.34Zm3.24-2.65l-.13-.16c.55-.44,1.11-.87,1.65-1.29l.13,.17c-.54,.42-1.1,.85-1.65,1.29Zm17.16-.46l-.18-.11c.38-.63,.73-1.23,1.04-1.81l.18,.1c-.32,.58-.67,1.19-1.05,1.82Zm-13.85-2.1l-.13-.17c.57-.43,1.14-.84,1.69-1.24l.12,.17c-.55,.4-1.12,.81-1.69,1.24Zm15.85-1.59l-.19-.09c.32-.69,.59-1.34,.79-1.93l.2,.07c-.2,.59-.47,1.25-.8,1.95Zm-12.45-.85l-.12-.17c.59-.41,1.18-.8,1.74-1.17l.11,.18c-.56,.36-1.15,.76-1.74,1.16Zm3.51-2.28l-.11-.18c.63-.38,1.24-.73,1.82-1.05l.1,.18c-.58,.32-1.19,.67-1.81,1.04Zm10.21-.88l-.21-.02c.01-.13,.02-.26,.02-.39,0-.66-.17-1.16-.5-1.49l.15-.15c.37,.37,.56,.92,.56,1.64,0,.13,0,.26-.02,.4Zm-6.54-1.11l-.09-.19c.7-.33,1.35-.6,1.95-.8l.07,.2c-.59,.2-1.23,.47-1.93,.79Zm5.82-.81c-.4-.38-1.04-.53-1.89-.45l-.02-.21c.92-.09,1.61,.09,2.05,.51l-.14,.15Z"/><path class="cls-3" d="M80.94,63.55c-5.27,0-21.23-7.65-39.52-19.17-10.09-6.36-19.24-12.89-25.76-18.37-3.8-3.2-9.99-8.85-8.76-10.79,1.87-2.97,19.97,5.18,41.2,18.56,21.23,13.38,36.39,26.19,34.52,29.16-.26,.41-.83,.61-1.68,.61ZM8.55,14.8c-.76,0-1.26,.17-1.48,.52-.83,1.32,2.34,5.16,8.72,10.52,6.51,5.48,15.65,12,25.74,18.35,10.09,6.36,19.91,11.79,27.66,15.3,7.59,3.44,12.42,4.65,13.25,3.33,.83-1.32-2.34-5.16-8.72-10.52-6.51-5.48-15.65-12-25.74-18.35-10.09-6.36-19.91-11.79-27.66-15.3-5.58-2.53-9.66-3.85-11.77-3.85Z"/></g></g></g></g></g></svg>