<?xml version="1.0" encoding="iso-8859-1"?>
<!-- Generator: Adobe Illustrator 19.0.0, SVG Export Plug-In . SVG Version: 6.00 Build 0)  -->
<svg version="1.1" id="Capa_1" xmlns="http://www.w3.org/2000/svg" xmlns:xlink="http://www.w3.org/1999/xlink" x="0px" y="0px"
	 viewBox="0 0 211.626 211.626" style="enable-background:new 0 0 211.626 211.626;" xml:space="preserve">
<g>
	<g>
		<path d="M208.213,56.32H3.413C1.527,56.32,0,57.849,0,59.733v122.88c0,1.884,1.527,3.413,3.413,3.413h204.8
			c1.886,0,3.413-1.529,3.413-3.413V59.733C211.627,57.849,210.099,56.32,208.213,56.32z M204.8,179.2H6.827V63.147H204.8V179.2z"/>
	</g>
</g>
<g>
	<g>
		<path d="M81.92,35.84H68.267c-1.886,0-3.413,1.529-3.413,3.413c0,1.884,1.527,3.413,3.413,3.413H81.92
			c1.886,0,3.413-1.529,3.413-3.413C85.333,37.369,83.806,35.84,81.92,35.84z"/>
	</g>
</g>
<g>
	<g>
		<path d="M47.787,35.84H34.133c-1.886,0-3.413,1.529-3.413,3.413c0,1.884,1.527,3.413,3.413,3.413h13.653
			c1.886,0,3.413-1.529,3.413-3.413C51.199,37.369,49.673,35.84,47.787,35.84z"/>
	</g>
</g>
<g>
	<g>
		<path d="M208.213,35.84H102.659c-1.886,0-3.413,1.529-3.413,3.413c0,1.884,1.528,3.413,3.413,3.413H204.8V56.32H6.827V42.667
			h6.827c1.886,0,3.413-1.529,3.413-3.413c0-1.884-1.527-3.413-3.413-3.413H3.413C1.527,35.84,0,37.369,0,39.253v20.48
			c0,1.884,1.527,3.413,3.413,3.413h204.8c1.886,0,3.413-1.529,3.413-3.413v-20.48C211.627,37.369,210.099,35.84,208.213,35.84z"/>
	</g>
</g>
<g>
	<g>
		<path d="M51.2,80.213H17.067c-1.886,0-3.413,1.529-3.413,3.413c0,1.884,1.527,3.413,3.413,3.413H51.2
			c1.886,0,3.413-1.529,3.413-3.413C54.613,81.742,53.086,80.213,51.2,80.213z"/>
	</g>
</g>
<g>
	<g>
		<path d="M40.96,107.52H17.067c-1.886,0-3.413,1.529-3.413,3.413c0,1.884,1.527,3.413,3.413,3.413H40.96
			c1.886,0,3.413-1.529,3.413-3.413C44.373,109.049,42.846,107.52,40.96,107.52z"/>
	</g>
</g>
<g>
	<g>
		<path d="M95.573,107.52h-40.96c-1.886,0-3.413,1.529-3.413,3.413c0,1.884,1.527,3.413,3.413,3.413h40.96
			c1.886,0,3.413-1.529,3.413-3.413C98.986,109.049,97.459,107.52,95.573,107.52z"/>
	</g>
</g>
<g>
	<g>
		<path d="M98.987,134.827h-81.92c-1.886,0-3.413,1.529-3.413,3.413s1.527,3.413,3.413,3.413h81.92c1.886,0,3.413-1.529,3.413-3.413
			S100.873,134.827,98.987,134.827z"/>
	</g>
</g>
<g>
	<g>
		<path d="M194.56,134.827h-81.92c-1.886,0-3.413,1.529-3.413,3.413s1.527,3.413,3.413,3.413h81.92c1.886,0,3.413-1.529,3.413-3.413
			S196.446,134.827,194.56,134.827z"/>
	</g>
</g>
<g>
	<g>
		<path d="M160.427,93.867h-34.133c-1.886,0-3.413,1.529-3.413,3.413c0,1.884,1.528,3.413,3.413,3.413h34.133
			c1.886,0,3.413-1.529,3.413-3.413C163.84,95.396,162.313,93.867,160.427,93.867z"/>
	</g>
</g>
<g>
	<g>
		<path d="M112.64,93.867H17.067c-1.886,0-3.413,1.529-3.413,3.413c0,1.884,1.527,3.413,3.413,3.413h95.573
			c1.886,0,3.413-1.529,3.413-3.413C116.053,95.396,114.526,93.867,112.64,93.867z"/>
	</g>
</g>
<g>
	<g>
		<path d="M136.533,121.173H17.067c-1.886,0-3.413,1.529-3.413,3.413c0,1.884,1.527,3.413,3.413,3.413h119.467
			c1.886,0,3.413-1.529,3.413-3.413C139.947,122.703,138.419,121.173,136.533,121.173z"/>
	</g>
</g>
<g>
	<g>
		<path d="M133.12,80.213H64.853c-1.886,0-3.413,1.529-3.413,3.413c0,1.884,1.527,3.413,3.413,3.413h68.267
			c1.886,0,3.413-1.529,3.413-3.413C136.533,81.742,135.006,80.213,133.12,80.213z"/>
	</g>
</g>
<g>
	<g>
		<path d="M64.853,148.48H17.067c-1.886,0-3.413,1.529-3.413,3.413c0,1.884,1.527,3.413,3.413,3.413h47.787
			c1.886,0,3.413-1.529,3.413-3.413C68.267,150.009,66.739,148.48,64.853,148.48z"/>
	</g>
</g>
<g>
	<g>
		<path d="M126.293,148.48H78.507c-1.886,0-3.413,1.529-3.413,3.413c0,1.884,1.527,3.413,3.413,3.413h47.787
			c1.886,0,3.413-1.529,3.413-3.413C129.707,150.009,128.179,148.48,126.293,148.48z"/>
	</g>
</g>
<g>
	<g>
		<path d="M23.893,25.6c-7.53,0-13.653,6.125-13.653,13.653s6.123,13.653,13.653,13.653c7.53,0,13.653-6.125,13.653-13.653
			S31.423,25.6,23.893,25.6z M23.893,46.08c-3.763,0-6.827-3.062-6.827-6.827s3.063-6.827,6.827-6.827
			c3.763,0,6.827,3.062,6.827,6.827S27.657,46.08,23.893,46.08z"/>
	</g>
</g>
<g>
	<g>
		<path d="M58.027,25.6c-7.53,0-13.653,6.125-13.653,13.653s6.124,13.653,13.653,13.653c7.53,0,13.653-6.125,13.653-13.653
			S65.557,25.6,58.027,25.6z M58.027,46.08c-3.763,0-6.827-3.062-6.827-6.827s3.063-6.827,6.827-6.827
			c3.763,0,6.827,3.062,6.827,6.827S61.79,46.08,58.027,46.08z"/>
	</g>
</g>
<g>
	<g>
		<path d="M92.16,25.6c-7.53,0-13.653,6.125-13.653,13.653S84.63,52.907,92.16,52.907c7.53,0,13.653-6.125,13.653-13.653
			C105.813,31.726,99.69,25.6,92.16,25.6z M92.16,46.08c-3.763,0-6.827-3.062-6.827-6.827s3.063-6.827,6.827-6.827
			c3.764,0,6.827,3.062,6.827,6.827S95.923,46.08,92.16,46.08z"/>
	</g>
</g>
<g>
</g>
<g>
</g>
<g>
</g>
<g>
</g>
<g>
</g>
<g>
</g>
<g>
</g>
<g>
</g>
<g>
</g>
<g>
</g>
<g>
</g>
<g>
</g>
<g>
</g>
<g>
</g>
<g>
</g>
</svg>
