<?xml version="1.0" encoding="iso-8859-1"?>
<!-- Generator: Adobe Illustrator 19.0.0, SVG Export Plug-In . SVG Version: 6.00 Build 0)  -->
<svg version="1.1" id="Capa_1" xmlns="http://www.w3.org/2000/svg" xmlns:xlink="http://www.w3.org/1999/xlink" x="0px" y="0px"
	 viewBox="0 0 191.146 191.146" style="enable-background:new 0 0 191.146 191.146;" xml:space="preserve">
<g>
	<g>
		<path d="M167.253,0H3.413C1.529,0,0,1.527,0,3.413v184.32c0,1.886,1.529,3.413,3.413,3.413h163.84
			c1.884,0,3.413-1.528,3.413-3.413V3.413C170.667,1.527,169.137,0,167.253,0z M163.84,184.32H6.827V6.827H163.84V184.32z"/>
	</g>
</g>
<g>
	<g>
		<path d="M187.733,0h-20.48c-1.884,0-3.413,1.527-3.413,3.413v184.32c0,1.886,1.529,3.413,3.413,3.413h20.48
			c1.884,0,3.413-1.528,3.413-3.413V3.413C191.147,1.527,189.618,0,187.733,0z M184.32,184.32h-13.653V6.827h13.653V184.32z"/>
	</g>
</g>
<g>
	<g>
		<path d="M177.493,27.307c-1.884,0-3.413,1.527-3.413,3.413v78.507c0,1.886,1.529,3.413,3.413,3.413
			c1.884,0,3.413-1.527,3.413-3.413V30.72C180.907,28.834,179.378,27.307,177.493,27.307z"/>
	</g>
</g>
<g>
	<g>
		<path d="M150.187,30.72h-71.68c-1.884,0-3.413,1.527-3.413,3.413s1.529,3.413,3.413,3.413h71.68c1.884,0,3.413-1.527,3.413-3.413
			S152.071,30.72,150.187,30.72z"/>
	</g>
</g>
<g>
	<g>
		<path d="M150.187,71.68h-71.68c-1.884,0-3.413,1.527-3.413,3.413c0,1.886,1.529,3.413,3.413,3.413h71.68
			c1.884,0,3.413-1.527,3.413-3.413C153.6,73.207,152.071,71.68,150.187,71.68z"/>
	</g>
</g>
<g>
	<g>
		<path d="M150.187,51.2h-71.68c-1.884,0-3.413,1.527-3.413,3.413c0,1.886,1.529,3.413,3.413,3.413h71.68
			c1.884,0,3.413-1.527,3.413-3.413C153.6,52.727,152.071,51.2,150.187,51.2z"/>
	</g>
</g>
<g>
	<g>
		<path d="M92.16,112.64H20.48c-1.884,0-3.413,1.528-3.413,3.413c0,1.886,1.529,3.413,3.413,3.413h71.68
			c1.884,0,3.413-1.527,3.413-3.413C95.573,114.168,94.044,112.64,92.16,112.64z"/>
	</g>
</g>
<g>
	<g>
		<path d="M92.16,153.6H20.48c-1.884,0-3.413,1.527-3.413,3.413s1.529,3.413,3.413,3.413h71.68c1.884,0,3.413-1.527,3.413-3.413
			S94.044,153.6,92.16,153.6z"/>
	</g>
</g>
<g>
	<g>
		<path d="M92.16,133.12H20.48c-1.884,0-3.413,1.527-3.413,3.413c0,1.886,1.529,3.413,3.413,3.413h71.68
			c1.884,0,3.413-1.527,3.413-3.413C95.573,134.647,94.044,133.12,92.16,133.12z"/>
	</g>
</g>
<g>
	<g>
		<path d="M61.44,30.72H20.48c-1.884,0-3.413,1.527-3.413,3.413v40.96c0,1.886,1.529,3.413,3.413,3.413h40.96
			c1.884,0,3.413-1.527,3.413-3.413v-40.96C64.853,32.247,63.324,30.72,61.44,30.72z M23.893,71.68V37.547h34.133V71.68H23.893z"/>
	</g>
</g>
<g>
	<g>
		<path d="M150.187,112.64h-40.96c-1.884,0-3.413,1.528-3.413,3.413v40.96c0,1.886,1.529,3.413,3.413,3.413h40.96
			c1.884,0,3.413-1.527,3.413-3.413v-40.96C153.6,114.168,152.071,112.64,150.187,112.64z M146.773,153.6H112.64v-34.133h34.133
			V153.6z"/>
	</g>
</g>
<g>
</g>
<g>
</g>
<g>
</g>
<g>
</g>
<g>
</g>
<g>
</g>
<g>
</g>
<g>
</g>
<g>
</g>
<g>
</g>
<g>
</g>
<g>
</g>
<g>
</g>
<g>
</g>
<g>
</g>
</svg>
