<?xml version="1.0" encoding="iso-8859-1"?>
<!-- Generator: Adobe Illustrator 19.0.0, SVG Export Plug-In . SVG Version: 6.00 Build 0)  -->
<svg version="1.1" id="Capa_1" xmlns="http://www.w3.org/2000/svg" xmlns:xlink="http://www.w3.org/1999/xlink" x="0px" y="0px"
	 viewBox="0 0 211.626 211.626" style="enable-background:new 0 0 211.626 211.626;" xml:space="preserve">
<g>
	<g>
		<path d="M208.213,39.253H3.413C1.527,39.253,0,40.783,0,42.667V199.68c0,1.884,1.527,3.413,3.413,3.413h204.8
			c1.886,0,3.413-1.529,3.413-3.413V42.667C211.627,40.783,210.099,39.253,208.213,39.253z M204.8,196.267H6.827V46.08H204.8
			V196.267z"/>
	</g>
</g>
<g>
	<g>
		<path d="M174.08,56.32H37.547c-1.886,0-3.413,1.529-3.413,3.413v61.44c0,1.884,1.527,3.413,3.413,3.413H174.08
			c1.886,0,3.413-1.529,3.413-3.413v-61.44C177.493,57.849,175.966,56.32,174.08,56.32z M170.667,117.76H40.96V63.147h129.707
			V117.76z"/>
	</g>
</g>
<g>
	<g>
		<path d="M174.08,134.827H37.547c-1.886,0-3.413,1.529-3.413,3.413v61.44c0,1.884,1.527,3.413,3.413,3.413H174.08
			c1.886,0,3.413-1.529,3.413-3.413v-61.44C177.493,136.356,175.966,134.827,174.08,134.827z M170.667,196.267H40.96v-54.613
			h129.707V196.267z"/>
	</g>
</g>
<g>
	<g>
		<path d="M200.8,88.453L190.147,77.8c-1.333-1.333-3.494-1.333-4.826,0c-1.333,1.333-1.333,3.494,0,4.826l8.24,8.24l-8.24,8.241
			c-1.333,1.333-1.333,3.495,0,4.826c0.667,0.667,1.539,1,2.413,1c0.874,0,1.746-0.333,2.413-1L200.8,93.28
			C202.133,91.947,202.133,89.786,200.8,88.453z"/>
	</g>
</g>
<g>
	<g>
		<path d="M18.067,90.866l8.24-8.24c1.333-1.333,1.333-3.494,0-4.826c-1.333-1.333-3.494-1.333-4.826,0L10.827,88.453
			c-1.333,1.333-1.333,3.494,0,4.826l10.653,10.655c0.667,0.667,1.539,1,2.413,1s1.746-0.333,2.413-1
			c1.333-1.331,1.333-3.494,0-4.826L18.067,90.866z"/>
	</g>
</g>
<g>
	<g>
		<path d="M160.427,151.893H51.2c-1.886,0-3.413,1.529-3.413,3.413c0,1.884,1.527,3.413,3.413,3.413h109.227
			c1.886,0,3.413-1.529,3.413-3.413C163.84,153.422,162.313,151.893,160.427,151.893z"/>
	</g>
</g>
<g>
	<g>
		<path d="M160.427,165.547H51.2c-1.886,0-3.413,1.529-3.413,3.413c0,1.884,1.527,3.413,3.413,3.413h109.227
			c1.886,0,3.413-1.529,3.413-3.413C163.84,167.076,162.313,165.547,160.427,165.547z"/>
	</g>
</g>
<g>
	<g>
		<path d="M160.427,179.2H51.2c-1.886,0-3.413,1.529-3.413,3.413c0,1.884,1.527,3.413,3.413,3.413h109.227
			c1.886,0,3.413-1.529,3.413-3.413S162.313,179.2,160.427,179.2z"/>
	</g>
</g>
<g>
	<g>
		<path d="M81.92,18.773H68.267c-1.886,0-3.413,1.529-3.413,3.413c0,1.884,1.527,3.413,3.413,3.413H81.92
			c1.886,0,3.413-1.529,3.413-3.413C85.333,20.302,83.806,18.773,81.92,18.773z"/>
	</g>
</g>
<g>
	<g>
		<path d="M47.787,18.773H34.133c-1.886,0-3.413,1.529-3.413,3.413c0,1.884,1.527,3.413,3.413,3.413h13.653
			c1.886,0,3.413-1.529,3.413-3.413C51.199,20.302,49.673,18.773,47.787,18.773z"/>
	</g>
</g>
<g>
	<g>
		<path d="M13.653,18.773H3.413C1.527,18.773,0,20.303,0,22.187v20.48c0,1.884,1.527,3.413,3.413,3.413
			c1.886,0,3.413-1.529,3.413-3.413V25.6h6.827c1.886,0,3.413-1.529,3.413-3.413C17.066,20.303,15.539,18.773,13.653,18.773z"/>
	</g>
</g>
<g>
	<g>
		<path d="M208.213,18.773H102.659c-1.886,0-3.413,1.529-3.413,3.413c0,1.884,1.528,3.413,3.413,3.413H204.8v17.067
			c0,1.884,1.527,3.413,3.413,3.413s3.413-1.529,3.413-3.413v-20.48C211.627,20.303,210.099,18.773,208.213,18.773z"/>
	</g>
</g>
<g>
	<g>
		<path d="M23.893,8.533c-7.53,0-13.653,6.125-13.653,13.653c0,7.528,6.123,13.653,13.653,13.653c7.53,0,13.653-6.125,13.653-13.653
			C37.547,14.659,31.423,8.533,23.893,8.533z M23.893,29.013c-3.763,0-6.827-3.062-6.827-6.827c0-3.765,3.063-6.827,6.827-6.827
			c3.763,0,6.827,3.062,6.827,6.827C30.72,25.952,27.657,29.013,23.893,29.013z"/>
	</g>
</g>
<g>
	<g>
		<path d="M58.027,8.533c-7.53,0-13.653,6.125-13.653,13.653c0,7.528,6.124,13.653,13.653,13.653c7.53,0,13.653-6.125,13.653-13.653
			C71.68,14.659,65.557,8.533,58.027,8.533z M58.027,29.013c-3.763,0-6.827-3.062-6.827-6.827c0-3.765,3.063-6.827,6.827-6.827
			c3.763,0,6.827,3.062,6.827,6.827C64.853,25.952,61.79,29.013,58.027,29.013z"/>
	</g>
</g>
<g>
	<g>
		<path d="M92.16,8.533c-7.53,0-13.653,6.125-13.653,13.653c0,7.528,6.123,13.653,13.653,13.653c7.53,0,13.653-6.125,13.653-13.653
			C105.813,14.659,99.69,8.533,92.16,8.533z M92.16,29.013c-3.763,0-6.827-3.062-6.827-6.827c0-3.765,3.063-6.827,6.827-6.827
			c3.764,0,6.827,3.062,6.827,6.827C98.987,25.952,95.923,29.013,92.16,29.013z"/>
	</g>
</g>
<g>
</g>
<g>
</g>
<g>
</g>
<g>
</g>
<g>
</g>
<g>
</g>
<g>
</g>
<g>
</g>
<g>
</g>
<g>
</g>
<g>
</g>
<g>
</g>
<g>
</g>
<g>
</g>
<g>
</g>
</svg>
