<?xml version="1.0" encoding="iso-8859-1"?>
<!-- Generator: Adobe Illustrator 19.0.0, SVG Export Plug-In . SVG Version: 6.00 Build 0)  -->
<svg version="1.1" id="Capa_1" xmlns="http://www.w3.org/2000/svg" xmlns:xlink="http://www.w3.org/1999/xlink" x="0px" y="0px"
	 viewBox="0 0 197.974 197.974" style="enable-background:new 0 0 197.974 197.974;" xml:space="preserve">
<g>
	<g>
		<path d="M10.24,191.147H6.827v-3.413c0-1.886-1.527-3.413-3.413-3.413s-3.413,1.528-3.413,3.413v6.827
			c0,1.886,1.527,3.413,3.413,3.413h6.827c1.886,0,3.413-1.527,3.413-3.413C13.654,192.675,12.126,191.147,10.24,191.147z"/>
	</g>
</g>
<g>
	<g>
		<path d="M3.413,152.047c-1.886,0-3.413,1.528-3.413,3.413v16.137c0,1.886,1.527,3.413,3.413,3.413
			c1.886,0,3.413-1.528,3.413-3.413V155.46C6.827,153.574,5.299,152.047,3.413,152.047z"/>
	</g>
</g>
<g>
	<g>
		<path d="M3.413,119.777c-1.886,0-3.413,1.527-3.413,3.413v16.137c0,1.886,1.527,3.413,3.413,3.413
			c1.886,0,3.413-1.527,3.413-3.413V123.19C6.827,121.305,5.299,119.777,3.413,119.777z"/>
	</g>
</g>
<g>
	<g>
		<path d="M3.413,87.504C1.527,87.504,0,89.032,0,90.918v16.137c0,1.886,1.527,3.413,3.413,3.413c1.886,0,3.413-1.527,3.413-3.413
			V90.918C6.827,89.032,5.299,87.504,3.413,87.504z"/>
	</g>
</g>
<g>
	<g>
		<path d="M3.413,22.96C1.527,22.96,0,24.487,0,26.373V42.51c0,1.886,1.527,3.413,3.413,3.413c1.886,0,3.413-1.526,3.413-3.413
			V26.373C6.827,24.487,5.299,22.96,3.413,22.96z"/>
	</g>
</g>
<g>
	<g>
		<path d="M3.413,55.233C1.527,55.233,0,56.76,0,58.646v16.137c0,1.886,1.527,3.413,3.413,3.413c1.886,0,3.413-1.526,3.413-3.413
			V58.646C6.827,56.76,5.299,55.233,3.413,55.233z"/>
	</g>
</g>
<g>
	<g>
		<path d="M10.24,0H3.413C1.527,0,0,1.527,0,3.413v6.827c0,1.886,1.527,3.413,3.413,3.413c1.886,0,3.413-1.527,3.413-3.413V6.827
			h3.413c1.886,0,3.413-1.527,3.413-3.413C13.653,1.527,12.126,0,10.24,0z"/>
	</g>
</g>
<g>
	<g>
		<path d="M74.783,0H58.646c-1.886,0-3.413,1.527-3.413,3.413c0,1.886,1.527,3.413,3.413,3.413h16.137
			c1.888,0,3.413-1.527,3.413-3.413C78.196,1.527,76.669,0,74.783,0z"/>
	</g>
</g>
<g>
	<g>
		<path d="M42.513,0H26.377c-1.886,0-3.413,1.527-3.413,3.413c0,1.886,1.527,3.413,3.413,3.413h16.137
			c1.888,0,3.413-1.527,3.413-3.413C45.926,1.527,44.399,0,42.513,0z"/>
	</g>
</g>
<g>
	<g>
		<path d="M107.058,0H90.921c-1.886,0-3.413,1.527-3.413,3.413c0,1.886,1.527,3.413,3.413,3.413h16.137
			c1.886,0,3.413-1.527,3.413-3.413C110.471,1.527,108.943,0,107.058,0z"/>
	</g>
</g>
<g>
	<g>
		<path d="M139.327,0H123.19c-1.886,0-3.413,1.527-3.413,3.413c0,1.886,1.527,3.413,3.413,3.413h16.137
			c1.886,0,3.413-1.527,3.413-3.413C142.74,1.527,141.213,0,139.327,0z"/>
	</g>
</g>
<g>
	<g>
		<path d="M171.6,0h-16.137c-1.886,0-3.413,1.527-3.413,3.413c0,1.886,1.527,3.413,3.413,3.413H171.6
			c1.886,0,3.413-1.527,3.413-3.413C175.014,1.527,173.486,0,171.6,0z"/>
	</g>
</g>
<g>
	<g>
		<path d="M194.56,0h-6.827c-1.886,0-3.413,1.527-3.413,3.413c0,1.886,1.528,3.413,3.413,3.413h3.413v3.413
			c0,1.886,1.527,3.413,3.413,3.413c1.886,0,3.413-1.527,3.413-3.413V3.413C197.973,1.527,196.446,0,194.56,0z"/>
	</g>
</g>
<g>
	<g>
		<path d="M194.56,55.233c-1.886,0-3.413,1.527-3.413,3.413v16.137c0,1.886,1.527,3.413,3.413,3.413s3.413-1.526,3.413-3.413V58.646
			C197.973,56.76,196.446,55.233,194.56,55.233z"/>
	</g>
</g>
<g>
	<g>
		<path d="M194.56,22.963c-1.886,0-3.413,1.527-3.413,3.413v16.137c0,1.886,1.527,3.413,3.413,3.413s3.413-1.526,3.413-3.413V26.377
			C197.973,24.491,196.446,22.963,194.56,22.963z"/>
	</g>
</g>
<g>
	<g>
		<path d="M194.56,152.05c-1.886,0-3.413,1.527-3.413,3.413V171.6c0,1.886,1.527,3.413,3.413,3.413s3.413-1.527,3.413-3.413v-16.137
			C197.973,153.578,196.446,152.05,194.56,152.05z"/>
	</g>
</g>
<g>
	<g>
		<path d="M194.56,119.777c-1.886,0-3.413,1.527-3.413,3.413v16.137c0,1.886,1.527,3.413,3.413,3.413s3.413-1.527,3.413-3.413
			V123.19C197.973,121.305,196.446,119.777,194.56,119.777z"/>
	</g>
</g>
<g>
	<g>
		<path d="M194.56,87.508c-1.886,0-3.413,1.527-3.413,3.413v16.137c0,1.886,1.527,3.413,3.413,3.413s3.413-1.527,3.413-3.413V90.921
			C197.973,89.035,196.446,87.508,194.56,87.508z"/>
	</g>
</g>
<g>
	<g>
		<path d="M194.56,184.32c-1.886,0-3.413,1.528-3.413,3.413v3.413h-3.413c-1.886,0-3.413,1.527-3.413,3.413
			c0,1.886,1.528,3.413,3.413,3.413h6.827c1.886,0,3.413-1.527,3.413-3.413v-6.827C197.973,185.848,196.446,184.32,194.56,184.32z"
			/>
	</g>
</g>
<g>
	<g>
		<path d="M139.327,191.147H123.19c-1.886,0-3.413,1.527-3.413,3.413s1.527,3.413,3.413,3.413h16.137
			c1.886,0,3.413-1.527,3.413-3.413S141.213,191.147,139.327,191.147z"/>
	</g>
</g>
<g>
	<g>
		<path d="M171.597,191.147H155.46c-1.886,0-3.413,1.527-3.413,3.413s1.528,3.413,3.413,3.413h16.137
			c1.886,0,3.413-1.527,3.413-3.413S173.483,191.147,171.597,191.147z"/>
	</g>
</g>
<g>
	<g>
		<path d="M74.783,191.147H58.646c-1.886,0-3.413,1.527-3.413,3.413s1.527,3.413,3.413,3.413h16.137
			c1.888,0,3.413-1.527,3.413-3.413S76.669,191.147,74.783,191.147z"/>
	</g>
</g>
<g>
	<g>
		<path d="M42.51,191.147H26.373c-1.886,0-3.413,1.527-3.413,3.413s1.527,3.413,3.413,3.413H42.51c1.888,0,3.413-1.527,3.413-3.413
			S44.396,191.147,42.51,191.147z"/>
	</g>
</g>
<g>
	<g>
		<path d="M107.054,191.147H90.918c-1.886,0-3.413,1.527-3.413,3.413s1.527,3.413,3.413,3.413h16.137
			c1.886,0,3.413-1.527,3.413-3.413S108.94,191.147,107.054,191.147z"/>
	</g>
</g>
<g>
	<g>
		<path d="M125.206,129.707H112.64v-61.44h12.566c1.234,0,2.372-0.667,2.976-1.743c0.604-1.075,0.58-2.396-0.063-3.449
			l-26.436-43.237c-1.239-2.028-4.586-2.028-5.827,0L69.42,63.075c-0.643,1.053-0.666,2.374-0.063,3.449
			c0.602,1.075,1.742,1.743,2.976,1.743h13v61.44h-13c-1.234,0-2.372,0.669-2.976,1.744s-0.58,2.396,0.063,3.449l26.436,43.237
			c0.62,1.014,1.724,1.633,2.913,1.633c1.189,0,2.294-0.62,2.913-1.635l26.436-43.237c0.643-1.053,0.666-2.374,0.063-3.449
			C127.58,130.374,126.44,129.707,125.206,129.707z M98.77,169.813l-20.35-33.28h10.327c1.886,0,3.413-1.527,3.413-3.413V64.853
			c0-1.886-1.527-3.413-3.413-3.413H78.42l20.35-33.28l20.35,33.28h-9.894c-1.886,0-3.413,1.528-3.413,3.413v68.267
			c0,1.886,1.527,3.413,3.413,3.413h9.894L98.77,169.813z"/>
	</g>
</g>
<g>
</g>
<g>
</g>
<g>
</g>
<g>
</g>
<g>
</g>
<g>
</g>
<g>
</g>
<g>
</g>
<g>
</g>
<g>
</g>
<g>
</g>
<g>
</g>
<g>
</g>
<g>
</g>
<g>
</g>
</svg>
