<?xml version="1.0" encoding="iso-8859-1"?>
<!-- Generator: Adobe Illustrator 19.0.0, SVG Export Plug-In . SVG Version: 6.00 Build 0)  -->
<svg version="1.1" id="Capa_1" xmlns="http://www.w3.org/2000/svg" xmlns:xlink="http://www.w3.org/1999/xlink" x="0px" y="0px"
	 viewBox="0 0 191.146 191.146" style="enable-background:new 0 0 191.146 191.146;" xml:space="preserve">
<g>
	<g>
		<path d="M167.253,0H3.413C1.529,0,0,1.527,0,3.413v184.32c0,1.886,1.529,3.413,3.413,3.413h163.84
			c1.884,0,3.413-1.528,3.413-3.413V3.413C170.667,1.527,169.137,0,167.253,0z M163.84,184.32H6.827V6.827H163.84V184.32z"/>
	</g>
</g>
<g>
	<g>
		<path d="M40.96,27.307c-15.056,0-27.307,12.25-27.307,27.307c0,15.056,12.25,27.307,27.307,27.307s27.307-12.25,27.307-27.307
			S56.016,27.307,40.96,27.307z M40.96,75.093c-11.293,0-20.48-9.187-20.48-20.48c0-11.293,9.187-20.48,20.48-20.48
			c11.293,0,20.48,9.187,20.48,20.48C61.44,65.906,52.253,75.093,40.96,75.093z"/>
	</g>
</g>
<g>
	<g>
		<path d="M187.733,0h-20.48c-1.884,0-3.413,1.527-3.413,3.413v184.32c0,1.886,1.529,3.413,3.413,3.413h20.48
			c1.884,0,3.413-1.528,3.413-3.413V3.413C191.147,1.527,189.618,0,187.733,0z M184.32,184.32h-13.653V6.827h13.653V184.32z"/>
	</g>
</g>
<g>
	<g>
		<path d="M177.493,27.307c-1.884,0-3.413,1.527-3.413,3.413v78.507c0,1.886,1.529,3.413,3.413,3.413
			c1.884,0,3.413-1.527,3.413-3.413V30.72C180.907,28.834,179.378,27.307,177.493,27.307z"/>
	</g>
</g>
<g>
	<g>
		<path d="M150.187,30.72h-71.68c-1.884,0-3.413,1.527-3.413,3.413s1.529,3.413,3.413,3.413h71.68c1.884,0,3.413-1.527,3.413-3.413
			S152.071,30.72,150.187,30.72z"/>
	</g>
</g>
<g>
	<g>
		<path d="M150.187,71.68h-71.68c-1.884,0-3.413,1.527-3.413,3.413c0,1.886,1.529,3.413,3.413,3.413h71.68
			c1.884,0,3.413-1.527,3.413-3.413C153.6,73.207,152.071,71.68,150.187,71.68z"/>
	</g>
</g>
<g>
	<g>
		<path d="M150.187,51.2h-51.2c-1.884,0-3.413,1.527-3.413,3.413c0,1.886,1.529,3.413,3.413,3.413h51.2
			c1.884,0,3.413-1.527,3.413-3.413C153.6,52.727,152.071,51.2,150.187,51.2z"/>
	</g>
</g>
<g>
	<g>
		<path d="M40.96,102.4c-15.056,0-27.307,12.25-27.307,27.307c0,15.056,12.25,27.307,27.307,27.307s27.307-12.25,27.307-27.307
			C68.267,114.65,56.016,102.4,40.96,102.4z M40.96,150.187c-11.293,0-20.48-9.187-20.48-20.48c0-11.293,9.187-20.48,20.48-20.48
			c11.293,0,20.48,9.187,20.48,20.48C61.44,141,52.253,150.187,40.96,150.187z"/>
	</g>
</g>
<g>
	<g>
		<path d="M150.187,105.813h-71.68c-1.884,0-3.413,1.527-3.413,3.413s1.529,3.413,3.413,3.413h71.68
			c1.884,0,3.413-1.527,3.413-3.413S152.071,105.813,150.187,105.813z"/>
	</g>
</g>
<g>
	<g>
		<path d="M150.187,146.773h-71.68c-1.884,0-3.413,1.527-3.413,3.413s1.529,3.413,3.413,3.413h71.68
			c1.884,0,3.413-1.527,3.413-3.413S152.071,146.773,150.187,146.773z"/>
	</g>
</g>
<g>
	<g>
		<path d="M150.187,126.293h-51.2c-1.884,0-3.413,1.527-3.413,3.413s1.529,3.413,3.413,3.413h51.2c1.884,0,3.413-1.527,3.413-3.413
			C153.6,127.821,152.071,126.293,150.187,126.293z"/>
	</g>
</g>
<g>
</g>
<g>
</g>
<g>
</g>
<g>
</g>
<g>
</g>
<g>
</g>
<g>
</g>
<g>
</g>
<g>
</g>
<g>
</g>
<g>
</g>
<g>
</g>
<g>
</g>
<g>
</g>
<g>
</g>
</svg>
