<?xml version="1.0" encoding="iso-8859-1"?>
<!-- Generator: Adobe Illustrator 19.0.0, SVG Export Plug-In . SVG Version: 6.00 Build 0)  -->
<svg version="1.1" id="Capa_1" xmlns="http://www.w3.org/2000/svg" xmlns:xlink="http://www.w3.org/1999/xlink" x="0px" y="0px"
	 viewBox="0 0 197.973 197.973" style="enable-background:new 0 0 197.973 197.973;" xml:space="preserve">
<g>
	<g>
		<path d="M194.56,30.72H3.413C1.527,30.72,0,32.25,0,34.134v13.653c0,1.885,1.527,3.414,3.413,3.414H194.56
			c1.886,0,3.413-1.529,3.413-3.413V34.134C197.973,32.25,196.446,30.72,194.56,30.72z M191.147,44.374H6.827v-6.827h184.32V44.374z
			"/>
	</g>
</g>
<g>
	<g>
		<path d="M194.56,88.748H47.787c-1.886,0-3.413,1.529-3.413,3.413v13.653c0,1.884,1.527,3.413,3.413,3.413H194.56
			c1.886,0,3.413-1.529,3.413-3.413V92.16C197.973,90.277,196.446,88.748,194.56,88.748z M191.147,102.401H51.2v-6.827h139.947
			V102.401z"/>
	</g>
</g>
<g>
	<g>
		<path d="M194.56,146.774H92.16c-1.886,0-3.413,1.529-3.413,3.413v13.653c0,1.884,1.527,3.413,3.413,3.413h102.4
			c1.886,0,3.413-1.529,3.413-3.413v-13.653C197.973,148.303,196.446,146.774,194.56,146.774z M95.573,160.428V153.6h95.573v6.827
			H95.573z"/>
	</g>
</g>
<g>
</g>
<g>
</g>
<g>
</g>
<g>
</g>
<g>
</g>
<g>
</g>
<g>
</g>
<g>
</g>
<g>
</g>
<g>
</g>
<g>
</g>
<g>
</g>
<g>
</g>
<g>
</g>
<g>
</g>
</svg>
