<?xml version="1.0" encoding="iso-8859-1"?>
<!-- Generator: Adobe Illustrator 19.0.0, SVG Export Plug-In . SVG Version: 6.00 Build 0)  -->
<svg version="1.1" id="Capa_1" xmlns="http://www.w3.org/2000/svg" xmlns:xlink="http://www.w3.org/1999/xlink" x="0px" y="0px"
	 viewBox="0 0 215.04 215.04" style="enable-background:new 0 0 215.04 215.04;" xml:space="preserve">
<g>
	<g>
		<path d="M149.267,150.188H23.893c-8.243,0-15.136-5.873-16.724-13.653h69.228l2.468,4.941c0.58,1.155,1.76,1.886,3.053,1.886h51.2
			c1.294,0,2.473-0.729,3.053-1.886l2.47-4.941h11.017c1.886,0,3.413-1.529,3.413-3.413c0-1.884-1.527-3.413-3.413-3.413h-13.126
			c-1.294,0-2.473,0.729-3.053,1.886l-2.47,4.941h-46.98l-2.47-4.941c-0.58-1.155-1.76-1.886-3.053-1.886H3.413
			c-1.886,0-3.413,1.529-3.413,3.413c0,13.175,10.72,23.893,23.893,23.893h125.373c1.886,0,3.413-1.529,3.413-3.413
			S151.153,150.188,149.267,150.188z"/>
	</g>
</g>
<g>
	<g>
		<path d="M211.627,129.707h-6.286c-1.886,0-3.413,1.529-3.413,3.413s1.527,3.413,3.413,3.413h2.533
			c-0.63,3.092-2.106,5.96-4.313,8.296c-1.294,1.37-1.23,3.531,0.14,4.825c0.661,0.623,1.504,0.932,2.343,0.932
			c0.906,0,1.809-0.358,2.483-1.07c4.2-4.449,6.513-10.272,6.513-16.396C215.04,131.236,213.513,129.707,211.627,129.707z"/>
	</g>
</g>
<g>
	<g>
		<path d="M194.56,13.654H20.48c-1.886,0-3.413,1.529-3.413,3.413v116.054c0,1.884,1.527,3.413,3.413,3.413h47.227
			c1.886,0,3.413-1.529,3.413-3.413c0-1.884-1.527-3.413-3.413-3.413H23.893V20.48h167.253v74.052c0,1.884,1.528,3.413,3.413,3.413
			c1.886,0,3.413-1.529,3.413-3.413V17.068C197.973,15.184,196.446,13.654,194.56,13.654z"/>
	</g>
</g>
<g>
	<g>
		<path d="M204.8,102.401h-54.613c-1.886,0-3.413,1.529-3.413,3.413v81.92c0,1.884,1.527,3.413,3.413,3.413H204.8
			c1.886,0,3.413-1.529,3.413-3.413v-81.92C208.213,103.93,206.686,102.401,204.8,102.401z M201.387,184.321H153.6v-75.093h47.787
			V184.321z"/>
	</g>
</g>
<g>
	<g>
		<path d="M204.8,92.16h-54.613c-1.886,0-3.413,1.529-3.413,3.413v10.24c0,1.884,1.527,3.413,3.413,3.413H204.8
			c1.886,0,3.413-1.529,3.413-3.413v-10.24C208.213,93.69,206.686,92.16,204.8,92.16z M201.387,102.401H153.6v-3.413h47.787V102.401
			z"/>
	</g>
</g>
<g>
	<g>
		<path d="M204.8,184.321h-54.613c-1.886,0-3.413,1.529-3.413,3.413v10.24c0,1.884,1.527,3.413,3.413,3.413H204.8
			c1.886,0,3.413-1.529,3.413-3.413v-10.24C208.213,185.85,206.686,184.321,204.8,184.321z M201.387,194.561H153.6v-3.413h47.787
			V194.561z"/>
	</g>
</g>
<g>
	<g>
		<path d="M75.093,51.201h-40.96c-1.886,0-3.413,1.529-3.413,3.413v40.96c0,1.884,1.527,3.413,3.413,3.413h40.96
			c1.886,0,3.413-1.529,3.413-3.413v-40.96C78.507,52.73,76.979,51.201,75.093,51.201z M71.68,92.16H37.547V58.027H71.68V92.16z"/>
	</g>
</g>
<g>
	<g>
		<path d="M180.907,51.201h-40.96c-1.886,0-3.413,1.529-3.413,3.413v40.96c0,1.884,1.527,3.413,3.413,3.413h40.96
			c1.886,0,3.413-1.529,3.413-3.413v-40.96C184.32,52.73,182.793,51.201,180.907,51.201z M177.493,92.16H143.36V58.027h34.133V92.16
			z"/>
	</g>
</g>
<g>
	<g>
		<path d="M126.293,51.201H88.747c-1.886,0-3.413,1.529-3.413,3.413v40.96c0,1.884,1.527,3.413,3.413,3.413h37.547
			c1.886,0,3.413-1.529,3.413-3.413v-40.96C129.707,52.73,128.179,51.201,126.293,51.201z M122.88,92.16H92.16V58.027h30.72V92.16z"
			/>
	</g>
</g>
<g>
	<g>
		<path d="M191.147,112.641H163.84c-1.886,0-3.413,1.529-3.413,3.413v27.307c0,1.884,1.527,3.413,3.413,3.413h27.307
			c1.886,0,3.413-1.529,3.413-3.413v-27.307C194.56,114.17,193.033,112.641,191.147,112.641z M187.733,139.948h-20.48v-20.48h20.48
			V139.948z"/>
	</g>
</g>
<g>
	<g>
		<path d="M191.147,150.188H163.84c-1.886,0-3.413,1.529-3.413,3.413v23.893c0,1.884,1.527,3.413,3.413,3.413h27.307
			c1.886,0,3.413-1.529,3.413-3.413V153.6C194.56,151.717,193.033,150.188,191.147,150.188z M187.733,174.081h-20.48v-17.067h20.48
			V174.081z"/>
	</g>
</g>
<g>
</g>
<g>
</g>
<g>
</g>
<g>
</g>
<g>
</g>
<g>
</g>
<g>
</g>
<g>
</g>
<g>
</g>
<g>
</g>
<g>
</g>
<g>
</g>
<g>
</g>
<g>
</g>
<g>
</g>
</svg>
