<?xml version="1.0" encoding="iso-8859-1"?>
<!-- Generator: Adobe Illustrator 19.0.0, SVG Export Plug-In . SVG Version: 6.00 Build 0)  -->
<svg version="1.1" id="Capa_1" xmlns="http://www.w3.org/2000/svg" xmlns:xlink="http://www.w3.org/1999/xlink" x="0px" y="0px"
	 viewBox="0 0 215.04 215.04" style="enable-background:new 0 0 215.04 215.04;" xml:space="preserve">
<g>
	<g>
		<path d="M177.495,83.625c-1.886,0-3.413,1.529-3.413,3.413v103.649c0,4.96-4.035,8.992-8.994,8.992H15.821
			c-4.961,0-8.994-4.035-8.994-8.992V80.213H147.91c1.886,0,3.413-1.529,3.413-3.413c0-1.884-1.528-3.413-3.413-3.413H3.413
			C1.527,73.387,0,74.916,0,76.8v113.888c0,8.723,7.098,15.819,15.821,15.819h149.265c8.724,0,15.821-7.096,15.823-15.819V87.038
			C180.908,85.154,179.381,83.625,177.495,83.625z"/>
	</g>
</g>
<g>
	<g>
		<path d="M96.976,169.255l-18.563-3.127c-1.888-0.307-3.62,0.944-3.934,2.801c-0.312,1.859,0.94,3.62,2.801,3.934l18.833,3.171
			c0.186,0.029,0.377,0.046,0.567,0.046c8.801,0,15.961,6.036,15.961,13.459v10.141H20.48v-10.141
			c0-7.422,7.161-13.459,15.961-13.459c0.189,0,0.381-0.015,0.567-0.046l19.246-3.241c1.86-0.314,3.115-2.075,2.801-3.934
			c-0.314-1.859-2.08-3.122-3.934-2.801l-18.976,3.197c-12.428,0.142-22.49,9.187-22.49,20.284v13.554
			c0,1.884,1.527,3.413,3.413,3.413h98.987c1.886,0,3.413-1.529,3.413-3.413v-13.554
			C119.467,178.442,109.402,169.397,96.976,169.255z"/>
	</g>
</g>
<g>
	<g>
		<path d="M78.56,151.893H54.456c-1.886,0-3.413,1.529-3.413,3.413v12.288c0,1.34,0.783,2.557,2.004,3.108
			c4.217,1.91,8.841,2.865,13.461,2.865c4.623,0,9.247-0.954,13.462-2.865c1.22-0.551,2.004-1.768,2.004-3.108v-12.288
			C81.973,153.423,80.445,151.893,78.56,151.893z M75.146,165.291c-5.53,1.947-11.74,1.951-17.277,0v-6.571h17.277V165.291z"/>
	</g>
</g>
<g>
	<g>
		<path d="M147.91,73.387H6.827v-10.24H137.67c1.886,0,3.413-1.529,3.413-3.413c0-1.884-1.527-3.413-3.413-3.413H3.413
			C1.527,56.32,0,57.849,0,59.733V76.8c0,1.884,1.527,3.413,3.413,3.413H147.91c1.886,0,3.413-1.529,3.413-3.413
			C151.323,74.916,149.796,73.387,147.91,73.387z"/>
	</g>
</g>
<g>
	<g>
		<path d="M67.381,90.455h-1.746c-15.428,0-27.981,12.553-27.981,27.982v25.586c0,8.103,6.593,14.696,14.696,14.696h28.317
			c8.103,0,14.696-6.593,14.696-14.696v-25.586C95.363,103.008,82.811,90.455,67.381,90.455z M88.536,144.022L88.536,144.022
			c-0.001,4.34-3.53,7.869-7.87,7.869H52.349c-4.34,0-7.869-3.529-7.869-7.869v-25.586c0-11.663,9.491-21.156,21.154-21.156h1.746
			c11.665,0,21.156,9.491,21.156,21.156V144.022z"/>
	</g>
</g>
<g>
	<g>
		<path d="M157.013,100.693h-40.96c-1.886,0-3.413,1.529-3.413,3.413c0,1.884,1.527,3.413,3.413,3.413h40.96
			c1.886,0,3.413-1.529,3.413-3.413C160.426,102.222,158.899,100.693,157.013,100.693z"/>
	</g>
</g>
<g>
	<g>
		<path d="M157.013,114.347h-40.96c-1.886,0-3.413,1.529-3.413,3.413c0,1.884,1.527,3.413,3.413,3.413h40.96
			c1.886,0,3.413-1.529,3.413-3.413C160.426,115.876,158.899,114.347,157.013,114.347z"/>
	</g>
</g>
<g>
	<g>
		<path d="M157.013,128h-40.96c-1.886,0-3.413,1.529-3.413,3.413c0,1.884,1.527,3.413,3.413,3.413h40.96
			c1.886,0,3.413-1.529,3.413-3.413C160.427,129.529,158.899,128,157.013,128z"/>
	</g>
</g>
<g>
	<g>
		<path d="M174.08,8.533c-22.586,0-40.96,18.376-40.96,40.96s18.374,40.96,40.96,40.96s40.96-18.376,40.96-40.96
			C215.04,26.909,196.666,8.533,174.08,8.533z M174.08,83.627c-18.819,0-34.133-15.312-34.133-34.133
			c0-18.821,15.314-34.134,34.133-34.134c18.819,0,34.133,15.312,34.133,34.133S192.899,83.627,174.08,83.627z"/>
	</g>
</g>
<g>
	<g>
		<path d="M201.675,41.03c-1.027-3.152-3.831-5.188-7.144-5.188h-9.414c-0.297,0-0.556-0.188-0.65-0.473l-2.91-8.953
			c-1.024-3.154-3.831-5.19-7.148-5.19c-3.314,0-6.12,2.036-7.144,5.19l-2.91,8.957c-0.09,0.282-0.353,0.469-0.65,0.469h-9.414
			c-3.314,0-6.117,2.036-7.144,5.188c-1.026,3.154,0.044,6.45,2.727,8.402l7.617,5.533c0.242,0.174,0.34,0.483,0.249,0.765
			l-2.91,8.953c-1.022,3.154,0.048,6.448,2.727,8.397c2.686,1.951,6.147,1.949,8.834,0.002l7.617-5.533
			c0.234-0.172,0.556-0.177,0.804,0l7.617,5.533c1.343,0.975,2.881,1.461,4.417,1.461c1.538,0,3.074-0.488,4.419-1.463
			c2.681-1.949,3.751-5.243,2.727-8.397l-2.91-8.95c-0.09-0.285,0.005-0.592,0.249-0.768l7.617-5.535
			C201.633,47.479,202.703,44.184,201.675,41.03z M194.936,43.907l-7.617,5.533c-2.637,1.917-3.738,5.291-2.731,8.398l2.91,8.953
			c0.043,0.13,0.152,0.473-0.247,0.765c-0.408,0.292-0.703,0.08-0.807,0l-7.617-5.533c-1.321-0.959-2.867-1.439-4.413-1.439
			c-1.55,0-3.096,0.48-4.413,1.439l-7.617,5.533c-0.104,0.084-0.401,0.297-0.807,0c-0.401-0.292-0.29-0.635-0.247-0.765l2.91-8.957
			c1.005-3.104-0.094-6.479-2.731-8.395l-7.617-5.531c-0.111-0.08-0.404-0.294-0.247-0.768c0.154-0.473,0.514-0.473,0.65-0.473
			h9.414c3.268,0,6.137-2.087,7.144-5.19l2.91-8.953c0.044-0.13,0.154-0.473,0.65-0.473c0.5,0,0.611,0.343,0.654,0.473l2.91,8.95
			c1.007,3.106,3.878,5.193,7.144,5.193h9.414c0.137,0,0.497,0,0.65,0.473C195.338,43.616,195.045,43.829,194.936,43.907z"/>
	</g>
</g>
<g>
</g>
<g>
</g>
<g>
</g>
<g>
</g>
<g>
</g>
<g>
</g>
<g>
</g>
<g>
</g>
<g>
</g>
<g>
</g>
<g>
</g>
<g>
</g>
<g>
</g>
<g>
</g>
<g>
</g>
</svg>
