<?xml version="1.0" encoding="iso-8859-1"?>
<!-- Generator: Adobe Illustrator 19.0.0, SVG Export Plug-In . SVG Version: 6.00 Build 0)  -->
<svg version="1.1" id="Capa_1" xmlns="http://www.w3.org/2000/svg" xmlns:xlink="http://www.w3.org/1999/xlink" x="0px" y="0px"
	 viewBox="0 0 215.039 215.039" style="enable-background:new 0 0 215.039 215.039;" xml:space="preserve">
<g>
	<g>
		<path d="M177.509,83.614c-1.886,0-3.413,1.527-3.413,3.413v103.66c0,4.958-4.033,8.992-8.994,8.992H15.821
			c-4.961,0-8.994-4.033-8.994-8.992V80.201h141.097c1.886,0,3.413-1.529,3.413-3.413c0-1.884-1.526-3.413-3.413-3.413H3.413
			C1.527,73.374,0,74.901,0,76.787v113.9c0,8.721,7.096,15.819,15.821,15.819h149.28c8.724,0,15.821-7.098,15.821-15.819V87.027
			C180.922,85.143,179.396,83.614,177.509,83.614z"/>
	</g>
</g>
<g>
	<g>
		<path d="M96.988,169.249l-18.565-3.127c-1.891-0.307-3.62,0.944-3.934,2.801c-0.312,1.859,0.94,3.62,2.801,3.934l18.835,3.173
			c0.186,0.029,0.377,0.046,0.567,0.046c8.8,0,15.961,6.038,15.961,13.46v10.143h-92.17v-10.141c0-7.424,7.159-13.461,15.961-13.461
			c0.189,0,0.381-0.015,0.567-0.046l19.248-3.243c1.86-0.314,3.115-2.075,2.801-3.934c-0.314-1.859-2.084-3.123-3.934-2.801
			l-18.978,3.197c-12.428,0.142-22.492,9.187-22.492,20.285v13.556c0,1.884,1.526,3.413,3.413,3.413h98.995
			c1.888,0,3.413-1.529,3.417-3.413v-13.558C119.48,178.436,109.416,169.391,96.988,169.249z"/>
	</g>
</g>
<g>
	<g>
		<path d="M78.566,151.887H54.461c-1.886,0-3.413,1.527-3.413,3.413v12.29c0,1.34,0.783,2.557,2.004,3.108
			c4.217,1.91,8.841,2.866,13.461,2.866c4.623,0,9.248-0.954,13.464-2.866c1.22-0.551,2.004-1.768,2.004-3.108V155.3
			C81.98,153.417,80.454,151.887,78.566,151.887z M75.153,165.285c-5.531,1.947-11.742,1.951-17.278,0v-6.571h17.278V165.285z"/>
	</g>
</g>
<g>
	<g>
		<path d="M147.922,73.374H6.827V63.132h130.855c1.886,0,3.413-1.529,3.413-3.413c0-1.884-1.526-3.413-3.413-3.413H3.413
			C1.527,56.305,0,57.833,0,59.719v17.068C0,78.671,1.526,80.2,3.413,80.2h144.51c1.886,0,3.412-1.529,3.412-3.413
			C151.335,74.903,149.81,73.374,147.922,73.374z"/>
	</g>
</g>
<g>
	<g>
		<path d="M67.388,90.441H65.64c-15.428,0-27.982,12.554-27.982,27.986v25.59c0,8.103,6.595,14.698,14.698,14.698h28.319
			c8.103,0,14.698-6.593,14.699-14.698v-25.59C95.374,102.995,82.819,90.441,67.388,90.441z M88.544,144.018
			c0,4.34-3.531,7.871-7.871,7.871H52.354c-4.34,0-7.871-3.531-7.871-7.871v-25.59c0-11.667,9.491-21.159,21.156-21.159h1.746
			c11.668,0,21.159,9.492,21.159,21.159V144.018z"/>
	</g>
</g>
<g>
	<g>
		<path d="M203.061,20.512c-15.974-15.971-41.957-15.971-57.931,0c-15.971,15.973-15.971,41.962,0,57.933
			c7.987,7.985,18.475,11.977,28.966,11.977c10.491,0,20.978-3.992,28.966-11.977C219.032,62.472,219.032,36.483,203.061,20.512z
			 M198.234,73.616c-13.312,13.305-34.966,13.312-48.278,0c-13.312-13.31-13.312-34.968,0-48.278
			c6.654-6.654,15.398-9.981,24.139-9.981c8.741,0,17.485,3.326,24.139,9.981C211.547,38.648,211.547,60.306,198.234,73.616z"/>
	</g>
</g>
<g>
	<g>
		<path d="M190.99,61.547l-28.962-28.966c-1.333-1.333-3.494-1.333-4.826,0c-1.333,1.333-1.333,3.494,0,4.826l28.962,28.966
			c0.666,0.667,1.539,1,2.413,1c0.874,0,1.748-0.333,2.413-1C192.323,65.04,192.323,62.88,190.99,61.547z"/>
	</g>
</g>
<g>
	<g>
		<path d="M190.99,32.581c-1.333-1.333-3.494-1.333-4.826,0l-28.962,28.966c-1.333,1.333-1.333,3.494,0,4.826
			c0.666,0.667,1.539,1,2.413,1c0.874,0,1.746-0.333,2.413-1l28.962-28.966C192.323,36.075,192.323,33.914,190.99,32.581z"/>
	</g>
</g>
<g>
	<g>
		<path d="M157.027,100.682h-40.963c-1.886,0-3.413,1.529-3.413,3.413c0,1.884,1.526,3.413,3.413,3.413h40.963
			c1.888,0,3.413-1.529,3.413-3.413C160.44,102.211,158.915,100.682,157.027,100.682z"/>
	</g>
</g>
<g>
	<g>
		<path d="M157.027,114.337h-40.963c-1.886,0-3.413,1.529-3.413,3.413c0,1.884,1.526,3.413,3.413,3.413h40.963
			c1.888,0,3.413-1.529,3.413-3.413C160.44,115.866,158.915,114.337,157.027,114.337z"/>
	</g>
</g>
<g>
	<g>
		<path d="M157.027,127.992h-40.963c-1.886,0-3.413,1.529-3.413,3.413c0,1.884,1.526,3.413,3.413,3.413h40.963
			c1.888,0,3.413-1.529,3.413-3.413C160.44,129.521,158.915,127.992,157.027,127.992z"/>
	</g>
</g>
<g>
</g>
<g>
</g>
<g>
</g>
<g>
</g>
<g>
</g>
<g>
</g>
<g>
</g>
<g>
</g>
<g>
</g>
<g>
</g>
<g>
</g>
<g>
</g>
<g>
</g>
<g>
</g>
<g>
</g>
</svg>
