<?xml version="1.0" encoding="iso-8859-1"?>
<!-- Generator: Adobe Illustrator 19.0.0, SVG Export Plug-In . SVG Version: 6.00 Build 0)  -->
<svg version="1.1" id="Capa_1" xmlns="http://www.w3.org/2000/svg" xmlns:xlink="http://www.w3.org/1999/xlink" x="0px" y="0px"
	 viewBox="0 0 211.627 211.627" style="enable-background:new 0 0 211.627 211.627;" xml:space="preserve">
<g>
	<g>
		<path d="M80.875,128.104L68.928,94.252c-0.481-1.364-1.773-2.275-3.22-2.275H17.921c-1.447,0-2.741,0.911-3.221,2.275
			L2.754,128.104c-0.369,1.051-0.203,2.215,0.451,3.12l12.556,17.425c9.73,13.5,16.326,28.611,19.613,44.911l3.093,15.333
			c0.321,1.589,1.717,2.731,3.343,2.734h0.003c1.62,0,3.019-1.138,3.345-2.726l3.256-15.904c3.337-16.27,9.97-31.343,19.714-44.793
			l12.293-16.973C81.078,130.326,81.245,129.159,80.875,128.104z M62.591,144.212c-10.206,14.092-17.19,29.867-20.756,46.889
			c-3.553-16.829-10.457-32.444-20.536-46.43L9.782,128.689l10.554-29.901h42.952l10.551,29.897L62.591,144.212z"/>
	</g>
</g>
<g>
	<g>
		<path d="M41.812,109.008c-7.53,0-13.653,6.112-13.653,13.626c0,7.514,6.124,13.626,13.653,13.626
			c7.53,0,13.653-6.112,13.653-13.626C55.466,115.12,49.342,109.008,41.812,109.008z M41.812,129.447
			c-3.763,0-6.827-3.057-6.827-6.813c0-3.756,3.063-6.813,6.827-6.813c3.764,0,6.827,3.058,6.827,6.813
			C48.639,126.391,45.576,129.447,41.812,129.447z"/>
	</g>
</g>
<g>
	<g>
		<path d="M65.706,0H17.919c-1.886,0-3.413,1.524-3.413,3.407v91.976c0,1.882,1.527,3.406,3.413,3.406h47.787
			c1.886,0,3.413-1.524,3.413-3.406V3.407C69.119,1.524,67.592,0,65.706,0z M62.292,91.976h-40.96V6.813h40.96V91.976z"/>
	</g>
</g>
<g>
	<g>
		<path d="M41.812,146.48c-1.886,0-3.413,1.524-3.413,3.406v54.504c0,1.882,1.527,3.406,3.413,3.406s3.413-1.522,3.413-3.406
			v-54.504C45.226,148.004,43.698,146.48,41.812,146.48z"/>
	</g>
</g>
<g>
	<g>
		<path d="M52.052,64.724h-20.48c-9.411,0-17.067,7.641-17.067,17.033c0,9.392,7.656,17.032,17.067,17.032h20.48
			c9.411,0,17.067-7.641,17.067-17.032C69.119,72.364,61.463,64.724,52.052,64.724z M52.052,91.976h-20.48
			c-5.647,0-10.24-4.584-10.24-10.219c0-5.635,4.593-10.22,10.24-10.22h20.48c5.647,0,10.24,4.584,10.24,10.22
			C62.292,87.392,57.7,91.976,52.052,91.976z"/>
	</g>
</g>
<g>
	<g>
		<path d="M208.171,205.498L98.945,86.27c-0.949-1.036-2.441-1.374-3.756-0.879c-1.309,0.51-2.176,1.77-2.176,3.178v119.228
			c0,1.882,1.527,3.406,3.413,3.406h109.227c1.352,0,2.575-0.797,3.123-2.033C209.322,207.937,209.084,206.496,208.171,205.498z
			 M99.839,204.391L99.839,204.391V97.345l98.067,107.046H99.839z"/>
	</g>
</g>
<g>
</g>
<g>
</g>
<g>
</g>
<g>
</g>
<g>
</g>
<g>
</g>
<g>
</g>
<g>
</g>
<g>
</g>
<g>
</g>
<g>
</g>
<g>
</g>
<g>
</g>
<g>
</g>
<g>
</g>
</svg>
