<?xml version="1.0" encoding="iso-8859-1"?>
<!-- Generator: Adobe Illustrator 19.0.0, SVG Export Plug-In . SVG Version: 6.00 Build 0)  -->
<svg version="1.1" id="Capa_1" xmlns="http://www.w3.org/2000/svg" xmlns:xlink="http://www.w3.org/1999/xlink" x="0px" y="0px"
	 viewBox="0 0 211.627 211.627" style="enable-background:new 0 0 211.627 211.627;" xml:space="preserve">
<g>
	<g>
		<path d="M207.854,165.726c-0.579-1.155-1.76-1.886-3.053-1.886H85.978c-1.884,0-3.413,1.529-3.413,3.413s1.529,3.413,3.413,3.413
			h111.997l-25.6,34.133H13.654l25.6-34.133h10.883c1.884,0,3.413-1.529,3.413-3.413s-1.529-3.413-3.413-3.413h-12.59
			c-1.075,0-2.087,0.505-2.731,1.365l-30.72,40.96c-0.776,1.036-0.901,2.42-0.323,3.576c0.579,1.155,1.76,1.886,3.053,1.886h167.255
			c1.075,0,2.087-0.505,2.731-1.365l30.72-40.96C208.308,168.265,208.433,166.881,207.854,165.726z"/>
	</g>
</g>
<g>
	<g>
		<path d="M68.268,0C55.092,0,44.374,10.718,44.374,23.893v126.293c0,1.884,1.529,3.413,3.413,3.413h40.96
			c1.886,0,3.413-1.529,3.413-3.413V23.893C92.161,10.718,81.443,0,68.268,0z M85.335,146.773L85.335,146.773H51.201V23.893
			c0-9.411,7.656-17.067,17.067-17.067c9.411,0,17.067,7.656,17.067,17.067V146.773z"/>
	</g>
</g>
<g>
	<g>
		<path d="M75.094,17.067H61.441c-1.884,0-3.413,1.529-3.413,3.413v54.613c0,1.884,1.529,3.413,3.413,3.413h13.653
			c1.886,0,3.413-1.529,3.413-3.413V20.48C78.508,18.596,76.979,17.067,75.094,17.067z M71.681,71.68h-6.827V23.893h6.827V71.68z"/>
	</g>
</g>
<g>
	<g>
		<path d="M92.094,183.651l-6.827-34.133c-0.319-1.594-1.72-2.743-3.347-2.743H54.614c-1.626,0-3.028,1.147-3.347,2.743
			l-6.827,34.133c-0.207,1.027,0.072,2.094,0.754,2.891l20.48,23.893c0.649,0.756,1.596,1.191,2.592,1.191
			c0.997,0,1.944-0.435,2.592-1.191l20.48-23.893C92.023,185.747,92.301,184.68,92.094,183.651z M68.268,202.969l-16.807-19.608
			l5.953-29.761h21.709l5.953,29.761L68.268,202.969z"/>
	</g>
</g>
<g>
	<g>
		<path d="M68.268,160.427c-5.647,0-10.24,4.593-10.24,10.24c0,5.647,4.593,10.24,10.24,10.24c5.647,0,10.24-4.593,10.24-10.24
			C78.508,165.019,73.915,160.427,68.268,160.427z M68.268,174.08c-1.883,0-3.413-1.531-3.413-3.413
			c0-1.882,1.531-3.413,3.413-3.413c1.882,0,3.413,1.531,3.413,3.413C71.681,172.549,70.15,174.08,68.268,174.08z"/>
	</g>
</g>
<g>
</g>
<g>
</g>
<g>
</g>
<g>
</g>
<g>
</g>
<g>
</g>
<g>
</g>
<g>
</g>
<g>
</g>
<g>
</g>
<g>
</g>
<g>
</g>
<g>
</g>
<g>
</g>
<g>
</g>
</svg>
