<?xml version="1.0" encoding="iso-8859-1"?>
<!-- Generator: Adobe Illustrator 19.0.0, SVG Export Plug-In . SVG Version: 6.00 Build 0)  -->
<svg version="1.1" id="Capa_1" xmlns="http://www.w3.org/2000/svg" xmlns:xlink="http://www.w3.org/1999/xlink" x="0px" y="0px"
	 viewBox="0 0 211.626 211.626" style="enable-background:new 0 0 211.626 211.626;" xml:space="preserve">
<g>
	<g>
		<path d="M208.213,15.36H34.133c-1.884,0-3.413,1.527-3.413,3.413v51.2c0,1.886,1.529,3.413,3.413,3.413h174.08
			c1.884,0,3.413-1.528,3.413-3.413v-51.2C211.627,16.888,210.098,15.36,208.213,15.36z M204.8,66.56H37.547V22.187H204.8V66.56z"/>
	</g>
</g>
<g>
	<g>
		<path d="M193.954,81.686c-1.273-1.847-4.343-1.847-5.617,0c-1.811,2.62-10.844,16.024-10.844,22.42
			c0,7.53,6.125,13.653,13.653,13.653s13.653-6.123,13.653-13.653C204.8,97.71,195.767,84.306,193.954,81.686z M191.147,110.933
			c-3.765,0-6.827-3.063-6.827-6.827c0-2.26,3.185-8.446,6.827-14.263c3.642,5.813,6.827,12,6.827,14.263
			C197.973,107.87,194.912,110.933,191.147,110.933z"/>
	</g>
</g>
<g>
	<g>
		<path d="M105.492,68.529l-23.893-51.2c-0.562-1.203-1.766-1.969-3.092-1.969H61.44c-1.884,0-3.413,1.527-3.413,3.413v51.2
			c0,1.886,1.529,3.413,3.413,3.413h40.96c1.167,0,2.251-0.597,2.877-1.58C105.904,70.823,105.986,69.586,105.492,68.529z
			 M64.853,66.56V22.187h11.479L97.039,66.56H64.853z"/>
	</g>
</g>
<g>
	<g>
		<path d="M119.467,97.28H34.133c-15.056,0-27.307-12.25-27.307-27.307c0-15.056,12.25-27.307,27.307-27.307
			c1.884,0,3.413-1.527,3.413-3.413s-1.529-3.413-3.413-3.413C15.312,35.84,0,51.154,0,69.973c0,18.819,15.312,34.133,34.133,34.133
			h81.92v20.48c0,1.886,1.529,3.413,3.413,3.413c1.884,0,3.413-1.527,3.413-3.413v-23.893
			C122.88,98.807,121.351,97.28,119.467,97.28z"/>
	</g>
</g>
<g>
	<g>
		<path d="M123.22,121.173h-7.506c-5.458,0-9.9,4.441-9.9,9.9v55.293c0,5.46,4.442,9.9,9.9,9.9h7.506c5.458,0,9.9-4.441,9.9-9.9
			v-55.293C133.12,125.614,128.678,121.173,123.22,121.173z M126.293,186.366c0,1.693-1.379,3.074-3.074,3.074h-7.506
			c-1.695,0-3.074-1.381-3.074-3.074v-55.293c0-1.693,1.379-3.074,3.074-3.074h7.506c1.695,0,3.074,1.381,3.074,3.074V186.366z"/>
	</g>
</g>
<g>
</g>
<g>
</g>
<g>
</g>
<g>
</g>
<g>
</g>
<g>
</g>
<g>
</g>
<g>
</g>
<g>
</g>
<g>
</g>
<g>
</g>
<g>
</g>
<g>
</g>
<g>
</g>
<g>
</g>
</svg>
