<?xml version="1.0" encoding="iso-8859-1"?>
<!-- Generator: Adobe Illustrator 19.0.0, SVG Export Plug-In . SVG Version: 6.00 Build 0)  -->
<svg version="1.1" id="Capa_1" xmlns="http://www.w3.org/2000/svg" xmlns:xlink="http://www.w3.org/1999/xlink" x="0px" y="0px"
	 viewBox="0 0 193.175 193.175" style="enable-background:new 0 0 193.175 193.175;" xml:space="preserve">
<g>
	<g>
		<path d="M192.2,5.925c1.3-1.3,1.3-3.5,0-4.8s-3.5-1.3-4.8,0l-17.8,17.8H44.4v-13.7c0-1.9-1.5-3.4-3.4-3.4H20.5
			c-1.9,0-3.4,1.5-3.4,3.4v13.7H3.4c-1.9,0-3.4,1.5-3.4,3.4v20.5c0,1.9,1.5,3.4,3.4,3.4h13.7v126.3c0,1.9,1.5,3.4,3.4,3.4h126.3
			v13.7c0,1.9,1.5,3.4,3.4,3.4h20.5c1.9,0,3.4-1.5,3.4-3.4v-13.7h13.7c1.9,0,3.4-1.5,3.4-3.4v-20.5c0-1.9-1.5-3.4-3.4-3.4h-13.7
			v-124.6L192.2,5.925z M23.9,8.725h13.7v10.2H23.9V8.725z M6.9,39.425v-13.7h155.9l-13.7,13.7H6.9z M167.3,30.825v117.8h-13.7
			v-104.1L167.3,30.825z M146.8,51.325v97.3H49.5L146.8,51.325z M44.4,144.125v-97.9h97.9L44.4,144.125z M23.9,46.225h13.7v104.7
			l-13.7,13.7V46.225z M167.3,186.125h-13.7v-10.2h13.7V186.125z M184.4,155.425v13.7h-0.1H29.1l13.7-13.7H184.4z"/>
	</g>
</g>
<g>
</g>
<g>
</g>
<g>
</g>
<g>
</g>
<g>
</g>
<g>
</g>
<g>
</g>
<g>
</g>
<g>
</g>
<g>
</g>
<g>
</g>
<g>
</g>
<g>
</g>
<g>
</g>
<g>
</g>
</svg>
