<?xml version="1.0" encoding="iso-8859-1"?>
<!-- Generator: Adobe Illustrator 19.0.0, SVG Export Plug-In . SVG Version: 6.00 Build 0)  -->
<svg version="1.1" id="Capa_1" xmlns="http://www.w3.org/2000/svg" xmlns:xlink="http://www.w3.org/1999/xlink" x="0px" y="0px"
	 viewBox="0 0 197.974 197.974" style="enable-background:new 0 0 197.974 197.974;" xml:space="preserve">
<g>
	<g>
		<path d="M183.03,0H14.944C6.704,0,0,6.704,0,14.944V183.03c0,8.24,6.704,14.944,14.944,14.944H183.03
			c8.24,0,14.944-6.704,14.944-14.944V14.944C197.973,6.704,191.27,0,183.03,0z M191.147,183.03c0,4.477-3.64,8.117-8.117,8.117
			H14.944c-4.477,0-8.117-3.64-8.117-8.117V14.944c0-4.477,3.64-8.117,8.117-8.117H183.03c4.477,0,8.117,3.64,8.117,8.117V183.03z"
			/>
	</g>
</g>
<g>
	<g>
		<path d="M98.987,3.413c-1.886,0-3.413,1.527-3.413,3.413v184.32c0,1.886,1.527,3.413,3.413,3.413s3.413-1.528,3.413-3.413V6.827
			C102.4,4.941,100.873,3.413,98.987,3.413z"/>
	</g>
</g>
<g>
	<g>
		<path d="M75.093,3.413c-1.886,0-3.413,1.527-3.413,3.413v184.32c0,1.886,1.527,3.413,3.413,3.413s3.413-1.528,3.413-3.413V6.827
			C78.507,4.941,76.979,3.413,75.093,3.413z"/>
	</g>
</g>
<g>
	<g>
		<path d="M51.2,3.413c-1.886,0-3.413,1.527-3.413,3.413v184.32c0,1.886,1.527,3.413,3.413,3.413s3.413-1.528,3.413-3.413V6.827
			C54.613,4.941,53.086,3.413,51.2,3.413z"/>
	</g>
</g>
<g>
	<g>
		<path d="M27.307,3.413c-1.886,0-3.413,1.527-3.413,3.413v184.32c0,1.886,1.527,3.413,3.413,3.413s3.413-1.528,3.413-3.413V6.827
			C30.72,4.941,29.193,3.413,27.307,3.413z"/>
	</g>
</g>
<g>
	<g>
		<path d="M170.667,3.413c-1.886,0-3.413,1.527-3.413,3.413v184.32c0,1.886,1.527,3.413,3.413,3.413
			c1.886,0,3.413-1.528,3.413-3.413V6.827C174.08,4.941,172.553,3.413,170.667,3.413z"/>
	</g>
</g>
<g>
	<g>
		<path d="M146.773,3.413c-1.886,0-3.413,1.527-3.413,3.413v184.32c0,1.886,1.527,3.413,3.413,3.413s3.413-1.528,3.413-3.413V6.827
			C150.187,4.941,148.659,3.413,146.773,3.413z"/>
	</g>
</g>
<g>
	<g>
		<path d="M122.88,3.413c-1.886,0-3.413,1.527-3.413,3.413v184.32c0,1.886,1.528,3.413,3.413,3.413c1.886,0,3.413-1.528,3.413-3.413
			V6.827C126.293,4.941,124.766,3.413,122.88,3.413z"/>
	</g>
</g>
<g>
</g>
<g>
</g>
<g>
</g>
<g>
</g>
<g>
</g>
<g>
</g>
<g>
</g>
<g>
</g>
<g>
</g>
<g>
</g>
<g>
</g>
<g>
</g>
<g>
</g>
<g>
</g>
<g>
</g>
</svg>
