<?xml version="1.0" encoding="iso-8859-1"?>
<!-- Generator: Adobe Illustrator 19.0.0, SVG Export Plug-In . SVG Version: 6.00 Build 0)  -->
<svg version="1.1" id="Capa_1" xmlns="http://www.w3.org/2000/svg" xmlns:xlink="http://www.w3.org/1999/xlink" x="0px" y="0px"
	 viewBox="0 0 194.559 194.559" style="enable-background:new 0 0 194.559 194.559;" xml:space="preserve">
<g>
	<g>
		<path d="M167.806,21.337l-23.173-20.48C144.01,0.304,143.206,0,142.374,0H29.013C27.127,0,25.6,1.527,25.6,3.413v187.733
			c0,1.886,1.527,3.413,3.413,3.413h136.533c1.886,0,3.413-1.527,3.413-3.413V23.893C168.96,22.914,168.54,21.984,167.806,21.337z
			 M162.133,187.733H32.427V6.827H141.08l21.053,18.606V187.733z"/>
	</g>
</g>
<g>
	<g>
		<path d="M167.767,21.304l-23.893-20.48c-1.01-0.867-2.43-1.067-3.647-0.51c-1.21,0.556-1.987,1.766-1.987,3.099v20.48
			c0,1.886,1.527,3.413,3.413,3.413h23.893c1.43,0,2.707-0.889,3.2-2.229C169.243,23.738,168.854,22.231,167.767,21.304z
			 M145.067,20.48v-9.646l11.254,9.646H145.067z"/>
	</g>
</g>
<g>
	<g>
		<path d="M141.653,71.68H29.013c-1.886,0-3.413,1.527-3.413,3.413v58.027c0,1.886,1.527,3.413,3.413,3.413h112.64
			c1.886,0,3.413-1.527,3.413-3.413V75.093C145.067,73.207,143.539,71.68,141.653,71.68z M138.24,129.707H32.427v-51.2H138.24
			V129.707z"/>
	</g>
</g>
<g>
	<g>
		<path d="M75.598,97.01c-1.234-1.273-3.091-1.91-5.571-1.91c-1.586,0-3,0.333-4.239,1c-1.239,0.667-2.186,1.573-2.84,2.72h-0.16
			c-1.055-2.48-3.294-3.721-6.721-3.721c-1.413,0-2.69,0.299-3.83,0.899c-1.14,0.601-2.024,1.434-2.65,2.5h-0.16l-0.539-3h-2.7
			v21.92h3.319v-11.5c0-2.84,0.483-4.883,1.451-6.13c0.968-1.248,2.49-1.87,4.57-1.87c1.587,0,2.755,0.437,3.5,1.311
			c0.746,0.874,1.12,2.185,1.12,3.93v14.259h3.319v-12.24c0-2.466,0.492-4.294,1.48-5.48c0.988-1.186,2.514-1.78,4.581-1.78
			c1.573,0,2.734,0.437,3.48,1.311c0.746,0.874,1.12,2.185,1.12,3.93v14.259h3.321v-14.3C77.449,100.32,76.832,98.284,75.598,97.01z
			"/>
	</g>
</g>
<g>
	<g>
		<path d="M100.495,98.159c-1.806-2.039-4.243-3.06-7.31-3.06c-3.173,0-5.652,0.997-7.439,2.99c-1.787,1.993-2.68,4.777-2.68,8.351
			c0,2.306,0.415,4.32,1.241,6.04c0.826,1.72,1.998,3.04,3.519,3.959c1.521,0.92,3.261,1.381,5.221,1.381
			c3.173,0,5.659-1.005,7.46-3.011c1.801-2.005,2.7-4.796,2.7-8.37C103.207,102.96,102.301,100.198,100.495,98.159z M98.077,112.85
			c-1.126,1.459-2.775,2.19-4.949,2.19s-3.821-0.734-4.941-2.2c-1.12-1.466-1.679-3.599-1.679-6.4c0-2.826,0.551-4.953,1.659-6.379
			c1.108-1.427,2.748-2.14,4.92-2.14c2.2,0,3.864,0.722,4.99,2.169c1.126,1.447,1.69,3.564,1.69,6.35
			C99.767,109.254,99.203,111.391,98.077,112.85z"/>
	</g>
</g>
<g>
	<g>
		<path d="M125.937,98.091c-1.594-1.968-3.83-2.951-6.711-2.951c-3.04,0-5.333,1.094-6.881,3.282h-0.16
			c0.107-1.347,0.16-2.867,0.16-4.56v-7.56h-3.319v31.119h2.381l0.7-2.819h0.241c0.8,1.094,1.79,1.903,2.97,2.43
			c1.179,0.527,2.483,0.79,3.91,0.79c2.854,0,5.084-0.997,6.69-2.99c1.606-1.993,2.41-4.789,2.41-8.39
			C128.326,102.84,127.531,100.058,125.937,98.091z M123.387,112.811c-1,1.487-2.521,2.231-4.56,2.231
			c-2.268,0-3.915-0.664-4.941-1.99s-1.539-3.529-1.539-6.61s0.5-5.27,1.5-6.571c1-1.301,2.633-1.951,4.9-1.951
			c2.094,0,3.64,0.701,4.64,2.101s1.5,3.526,1.5,6.38C124.887,109.187,124.387,111.324,123.387,112.811z"/>
	</g>
</g>
<g>
</g>
<g>
</g>
<g>
</g>
<g>
</g>
<g>
</g>
<g>
</g>
<g>
</g>
<g>
</g>
<g>
</g>
<g>
</g>
<g>
</g>
<g>
</g>
<g>
</g>
<g>
</g>
<g>
</g>
</svg>
