<?xml version="1.0" encoding="iso-8859-1"?>
<!-- Generator: Adobe Illustrator 19.0.0, SVG Export Plug-In . SVG Version: 6.00 Build 0)  -->
<svg version="1.1" id="Capa_1" xmlns="http://www.w3.org/2000/svg" xmlns:xlink="http://www.w3.org/1999/xlink" x="0px" y="0px"
	 viewBox="0 0 204.8 204.8" style="enable-background:new 0 0 204.8 204.8;" xml:space="preserve">
<g>
	<g>
		<path d="M37.547,163.84H3.413c-1.886,0-3.413,1.527-3.413,3.413v34.133c0,1.886,1.527,3.413,3.413,3.413h34.133
			c1.886,0,3.413-1.527,3.413-3.413v-34.133C40.96,165.368,39.433,163.84,37.547,163.84z M34.134,197.974L34.134,197.974H6.827
			v-27.307h27.307V197.974z"/>
	</g>
</g>
<g>
	<g>
		<path d="M119.467,163.84H85.333c-1.886,0-3.413,1.527-3.413,3.413v34.133c0,1.886,1.527,3.413,3.413,3.413h34.133
			c1.886,0,3.413-1.527,3.413-3.413v-34.133C122.88,165.368,121.353,163.84,119.467,163.84z M116.054,197.974h-0.001H88.747v-27.307
			h27.307V197.974z"/>
	</g>
</g>
<g>
	<g>
		<path d="M201.387,163.84h-34.133c-1.886,0-3.413,1.527-3.413,3.413v34.133c0,1.886,1.527,3.413,3.413,3.413h34.133
			c1.886,0,3.413-1.527,3.413-3.413v-34.133C204.8,165.368,203.273,163.84,201.387,163.84z M197.973,197.974h-27.307v-27.307h27.307
			V197.974z"/>
	</g>
</g>
<g>
	<g>
		<path d="M37.547,0.001H3.413C1.527,0.001,0,1.527,0,3.414v34.133c0,1.886,1.527,3.413,3.413,3.413h34.133
			c1.886,0,3.413-1.527,3.413-3.413V3.414C40.96,1.527,39.433,0.001,37.547,0.001z M34.134,34.134L34.134,34.134H6.827V6.828h27.307
			V34.134z"/>
	</g>
</g>
<g>
	<g>
		<path d="M119.467,0.001H85.333c-1.886,0-3.413,1.527-3.413,3.413v34.133c0,1.886,1.527,3.413,3.413,3.413h34.133
			c1.886,0,3.413-1.527,3.413-3.413V3.414C122.88,1.527,121.353,0.001,119.467,0.001z M116.054,34.134h-0.001H88.747V6.828h27.307
			V34.134z"/>
	</g>
</g>
<g>
	<g>
		<path d="M37.547,81.921H3.413C1.527,81.921,0,83.448,0,85.334v34.133c0,1.886,1.527,3.413,3.413,3.413h34.133
			c1.886,0,3.413-1.527,3.413-3.413V85.334C40.96,83.448,39.433,81.921,37.547,81.921z M34.134,116.053L34.134,116.053H6.827V88.748
			h27.307V116.053z"/>
	</g>
</g>
<g>
	<g>
		<path d="M201.387,81.921h-34.133c-1.886,0-3.413,1.527-3.413,3.413v34.133c0,1.886,1.527,3.413,3.413,3.413h34.133
			c1.886,0,3.413-1.527,3.413-3.413V85.334C204.8,83.448,203.273,81.921,201.387,81.921z M197.973,116.053h-27.307V88.748h27.307
			V116.053z"/>
	</g>
</g>
<g>
	<g>
		<path d="M20.48,34.134c-1.886,0-3.413,1.527-3.413,3.413v47.787c0,1.886,1.527,3.413,3.413,3.413c1.886,0,3.413-1.527,3.413-3.413
			V37.548C23.893,35.662,22.366,34.134,20.48,34.134z"/>
	</g>
</g>
<g>
	<g>
		<path d="M20.48,116.053c-1.886,0-3.413,1.527-3.413,3.413v47.787c0,1.886,1.527,3.413,3.413,3.413
			c1.886,0,3.413-1.527,3.413-3.413v-47.787C23.893,117.582,22.366,116.053,20.48,116.053z"/>
	</g>
</g>
<g>
	<g>
		<path d="M184.32,116.053c-1.886,0-3.413,1.527-3.413,3.413v47.787c0,1.886,1.527,3.413,3.413,3.413s3.413-1.527,3.413-3.413
			v-47.787C187.733,117.582,186.206,116.053,184.32,116.053z"/>
	</g>
</g>
<g>
	<g>
		<path d="M85.333,17.068H37.547c-1.886,0-3.413,1.527-3.413,3.413c0,1.886,1.527,3.413,3.413,3.413h47.787
			c1.886,0,3.413-1.527,3.413-3.413C88.747,18.595,87.219,17.068,85.333,17.068z"/>
	</g>
</g>
<g>
	<g>
		<path d="M85.333,180.908H37.547c-1.886,0-3.413,1.527-3.413,3.413c0,1.886,1.527,3.413,3.413,3.413h47.787
			c1.886,0,3.413-1.527,3.413-3.413C88.747,182.434,87.219,180.908,85.333,180.908z"/>
	</g>
</g>
<g>
	<g>
		<path d="M167.253,180.908h-47.787c-1.886,0-3.413,1.527-3.413,3.413c0,1.886,1.527,3.413,3.413,3.413h47.787
			c1.886,0,3.413-1.527,3.413-3.413C170.666,182.434,169.139,180.908,167.253,180.908z"/>
	</g>
</g>
<g>
	<g>
		<path d="M102.4,61.441c-22.586,0-40.96,18.374-40.96,40.96s18.374,40.96,40.96,40.96s40.96-18.374,40.96-40.96
			S124.986,61.441,102.4,61.441z M102.4,136.534c-18.819,0-34.133-15.314-34.133-34.133c0-18.819,15.314-34.133,34.133-34.133
			c18.819,0,34.133,15.314,34.133,34.133C136.533,121.22,121.219,136.534,102.4,136.534z"/>
	</g>
</g>
<g>
	<g>
		<path d="M122.88,98.988H81.92c-1.886,0-3.413,1.527-3.413,3.413c0,1.886,1.527,3.413,3.413,3.413h40.96
			c1.886,0,3.413-1.527,3.413-3.413C126.293,100.514,124.766,98.988,122.88,98.988z"/>
	</g>
</g>
<g>
</g>
<g>
</g>
<g>
</g>
<g>
</g>
<g>
</g>
<g>
</g>
<g>
</g>
<g>
</g>
<g>
</g>
<g>
</g>
<g>
</g>
<g>
</g>
<g>
</g>
<g>
</g>
<g>
</g>
</svg>
