<?xml version="1.0" encoding="iso-8859-1"?>
<!-- Generator: Adobe Illustrator 19.0.0, SVG Export Plug-In . SVG Version: 6.00 Build 0)  -->
<svg version="1.1" id="Capa_1" xmlns="http://www.w3.org/2000/svg" xmlns:xlink="http://www.w3.org/1999/xlink" x="0px" y="0px"
	 viewBox="0 0 191.147 191.147" style="enable-background:new 0 0 191.147 191.147;" xml:space="preserve">
<g>
	<g>
		<path d="M177.731,51.202h-12.793c-1.884,0-3.413,1.527-3.413,3.413s1.529,3.413,3.413,3.413h12.793
			c3.633,0,6.588,2.953,6.588,6.586v113.12c0,3.633-2.954,6.586-6.588,6.586H64.615c-3.633,0-6.588-2.953-6.588-6.586V164.06
			c0-1.886-1.529-3.413-3.413-3.413c-1.884,0-3.413,1.527-3.413,3.413v13.674c0,7.397,6.018,13.413,13.414,13.413h113.118
			c7.397,0,13.414-6.016,13.413-13.413V64.614C191.146,57.218,185.128,51.202,177.731,51.202z"/>
	</g>
</g>
<g>
	<g>
		<path d="M153.838,27.308h-16.585c-1.884,0-3.413,1.527-3.413,3.413s1.529,3.413,3.413,3.413h16.585
			c3.633,0,6.588,2.953,6.588,6.586v113.12c0,3.633-2.954,6.586-6.588,6.586H40.722c-3.634,0-6.588-2.953-6.588-6.586v-17.123
			c0-1.886-1.529-3.413-3.413-3.413c-1.884,0-3.413,1.527-3.413,3.413v17.123c0,7.397,6.018,13.413,13.414,13.413H153.84
			c7.397,0,13.414-6.016,13.413-13.413V40.721C167.253,33.324,161.235,27.308,153.838,27.308z"/>
	</g>
</g>
<g>
	<g>
		<path d="M126.531,0H13.415C6.019,0,0.001,6.016,0.001,13.414v113.12c0,7.397,6.018,13.413,13.414,13.413h113.118
			c7.397,0,13.414-6.016,13.413-13.414V13.413C139.946,6.016,133.928,0,126.531,0z M133.119,126.532
			c0,3.633-2.954,6.586-6.588,6.586H13.415c-3.633,0-6.588-2.953-6.588-6.586V13.413c0-3.633,2.954-6.586,6.588-6.586h113.116
			c3.633,0,6.588,2.953,6.588,6.586V126.532z"/>
	</g>
</g>
<g>
</g>
<g>
</g>
<g>
</g>
<g>
</g>
<g>
</g>
<g>
</g>
<g>
</g>
<g>
</g>
<g>
</g>
<g>
</g>
<g>
</g>
<g>
</g>
<g>
</g>
<g>
</g>
<g>
</g>
</svg>
