<?xml version="1.0" encoding="iso-8859-1"?>
<!-- Generator: Adobe Illustrator 19.0.0, SVG Export Plug-In . SVG Version: 6.00 Build 0)  -->
<svg version="1.1" id="Capa_1" xmlns="http://www.w3.org/2000/svg" xmlns:xlink="http://www.w3.org/1999/xlink" x="0px" y="0px"
	 viewBox="0 0 194.559 194.559" style="enable-background:new 0 0 194.559 194.559;" xml:space="preserve">
<g>
	<g>
		<path d="M167.806,21.337l-23.173-20.48C144.01,0.304,143.206,0,142.374,0H29.013C27.127,0,25.6,1.527,25.6,3.413v187.733
			c0,1.886,1.527,3.413,3.413,3.413h136.533c1.886,0,3.413-1.527,3.413-3.413V23.893C168.96,22.914,168.54,21.984,167.806,21.337z
			 M162.133,187.733H32.427V6.827H141.08l21.053,18.606V187.733z"/>
	</g>
</g>
<g>
	<g>
		<path d="M167.767,21.304l-23.893-20.48c-1.01-0.867-2.434-1.067-3.647-0.51c-1.21,0.556-1.987,1.766-1.987,3.099v20.48
			c0,1.886,1.527,3.413,3.413,3.413h23.893c1.43,0,2.707-0.889,3.2-2.229C169.243,23.738,168.854,22.231,167.767,21.304z
			 M145.067,20.48v-9.646l11.254,9.646H145.067z"/>
	</g>
</g>
<g>
	<g>
		<path d="M141.653,71.68H29.013c-1.886,0-3.413,1.527-3.413,3.413v58.027c0,1.886,1.527,3.413,3.413,3.413h112.64
			c1.886,0,3.413-1.527,3.413-3.413V75.093C145.067,73.207,143.539,71.68,141.653,71.68z M138.24,129.707H32.427v-51.2H138.24
			V129.707z"/>
	</g>
</g>
<g>
	<g>
		<path d="M62.496,97.051c-1.34-1.273-3.35-1.91-6.03-1.91c-1.546,0-2.924,0.304-4.13,0.91c-1.207,0.606-2.137,1.437-2.79,2.49h-0.2
			c0.108-0.746,0.16-1.686,0.16-2.819v-9.421h-3.319v31.119h3.319v-11.46c0-2.852,0.531-4.905,1.591-6.159
			c1.06-1.254,2.743-1.881,5.05-1.881c1.732,0,3.005,0.439,3.82,1.319c0.814,0.881,1.22,2.214,1.22,4v14.181v0.002h3.319v-14.3
			C64.507,100.349,63.836,98.324,62.496,97.051z"/>
	</g>
</g>
<g>
	<g>
		<path d="M80.106,114.951c-0.546,0.087-1.113,0.13-1.7,0.13c-1.092,0-1.954-0.353-2.581-1.06c-0.626-0.707-0.94-1.72-0.94-3.04
			V98.08h6.361V95.5h-6.361v-5.081h-1.92l-1.399,4.68l-3.14,1.381v1.601h3.14v13.041c0,4.466,2.121,6.7,6.361,6.7
			c0.56,0,1.188-0.058,1.889-0.171c0.701-0.113,1.231-0.256,1.591-0.43v-2.54C81.085,114.773,80.652,114.864,80.106,114.951z"/>
	</g>
</g>
<g>
	<g>
		<path d="M115.198,97.01c-1.234-1.273-3.091-1.91-5.571-1.91c-1.586,0-3,0.333-4.239,1s-2.186,1.573-2.84,2.72h-0.16
			c-1.055-2.48-3.294-3.721-6.721-3.721c-1.413,0-2.69,0.299-3.83,0.899c-1.14,0.601-2.024,1.434-2.65,2.5h-0.16l-0.539-3h-2.7
			v21.92h3.319v-11.5c0-2.84,0.483-4.883,1.451-6.13c0.968-1.247,2.49-1.87,4.57-1.87c1.587,0,2.755,0.437,3.5,1.311
			c0.746,0.874,1.12,2.185,1.12,3.93v14.259h3.32v-12.24c0-2.466,0.492-4.294,1.48-5.48c0.988-1.186,2.514-1.78,4.581-1.78
			c1.574,0,2.734,0.437,3.48,1.311c0.746,0.874,1.12,2.185,1.12,3.93v14.259h3.321v-14.3
			C117.048,100.32,116.432,98.284,115.198,97.01z"/>
	</g>
</g>
<g>
	<g>
		<rect x="123.89" y="86.3" width="3.319" height="31.12"/>
	</g>
</g>
<g>
</g>
<g>
</g>
<g>
</g>
<g>
</g>
<g>
</g>
<g>
</g>
<g>
</g>
<g>
</g>
<g>
</g>
<g>
</g>
<g>
</g>
<g>
</g>
<g>
</g>
<g>
</g>
<g>
</g>
</svg>
