<?xml version="1.0" encoding="iso-8859-1"?>
<!-- Generator: Adobe Illustrator 19.0.0, SVG Export Plug-In . SVG Version: 6.00 Build 0)  -->
<svg version="1.1" id="Capa_1" xmlns="http://www.w3.org/2000/svg" xmlns:xlink="http://www.w3.org/1999/xlink" x="0px" y="0px"
	 viewBox="0 0 184.32 184.32" style="enable-background:new 0 0 184.32 184.32;" xml:space="preserve">
<g>
	<g>
		<path d="M51.2,0H3.413C1.527,0,0,1.529,0,3.413V51.2c0,1.884,1.527,3.413,3.413,3.413H51.2c1.886,0,3.413-1.529,3.413-3.413V3.413
			C54.613,1.529,53.086,0,51.2,0z M47.787,47.787H6.827V6.827h40.96V47.787z"/>
	</g>
</g>
<g>
	<g>
		<path d="M116.053,0H68.267c-1.886,0-3.413,1.529-3.413,3.413V51.2c0,1.884,1.527,3.413,3.413,3.413h47.787
			c1.886,0,3.413-1.529,3.413-3.413V3.413C119.467,1.529,117.939,0,116.053,0z M112.64,47.787H71.68V6.827h40.96V47.787z"/>
	</g>
</g>
<g>
	<g>
		<path d="M180.907,0H133.12c-1.886,0-3.413,1.529-3.413,3.413V51.2c0,1.884,1.527,3.413,3.413,3.413h47.787
			c1.886,0,3.413-1.529,3.413-3.413V3.413C184.32,1.529,182.793,0,180.907,0z M177.493,47.787h-40.96V6.827h40.96V47.787z"/>
	</g>
</g>
<g>
	<g>
		<path d="M51.2,64.853H3.413C1.527,64.853,0,66.383,0,68.267v47.787c0,1.884,1.527,3.413,3.413,3.413H51.2
			c1.886,0,3.413-1.529,3.413-3.413V68.267C54.613,66.383,53.086,64.853,51.2,64.853z M47.787,112.64H6.827V71.68h40.96V112.64z"/>
	</g>
</g>
<g>
	<g>
		<path d="M116.053,64.853H68.267c-1.886,0-3.413,1.529-3.413,3.413v47.787c0,1.884,1.527,3.413,3.413,3.413h47.787
			c1.886,0,3.413-1.529,3.413-3.413V68.267C119.467,66.383,117.939,64.853,116.053,64.853z M112.64,112.64H71.68V71.68h40.96V112.64
			z"/>
	</g>
</g>
<g>
	<g>
		<path d="M180.907,64.853H133.12c-1.886,0-3.413,1.529-3.413,3.413v47.787c0,1.884,1.527,3.413,3.413,3.413h47.787
			c1.886,0,3.413-1.529,3.413-3.413V68.267C184.32,66.383,182.793,64.853,180.907,64.853z M177.493,112.64h-40.96V71.68h40.96
			V112.64z"/>
	</g>
</g>
<g>
	<g>
		<path d="M51.2,129.707H3.413c-1.886,0-3.413,1.529-3.413,3.413v47.787c0,1.884,1.527,3.413,3.413,3.413H51.2
			c1.886,0,3.413-1.529,3.413-3.413V133.12C54.613,131.236,53.086,129.707,51.2,129.707z M47.787,177.493H6.827v-40.96h40.96
			V177.493z"/>
	</g>
</g>
<g>
	<g>
		<path d="M116.053,129.707H68.267c-1.886,0-3.413,1.529-3.413,3.413v47.787c0,1.884,1.527,3.413,3.413,3.413h47.787
			c1.886,0,3.413-1.529,3.413-3.413V133.12C119.467,131.236,117.939,129.707,116.053,129.707z M112.64,177.493H71.68v-40.96h40.96
			V177.493z"/>
	</g>
</g>
<g>
	<g>
		<path d="M180.907,129.707H133.12c-1.886,0-3.413,1.529-3.413,3.413v47.787c0,1.884,1.527,3.413,3.413,3.413h47.787
			c1.886,0,3.413-1.529,3.413-3.413V133.12C184.32,131.236,182.793,129.707,180.907,129.707z M177.493,177.493h-40.96v-40.96h40.96
			V177.493z"/>
	</g>
</g>
<g>
</g>
<g>
</g>
<g>
</g>
<g>
</g>
<g>
</g>
<g>
</g>
<g>
</g>
<g>
</g>
<g>
</g>
<g>
</g>
<g>
</g>
<g>
</g>
<g>
</g>
<g>
</g>
<g>
</g>
</svg>
