<?xml version="1.0" encoding="iso-8859-1"?>
<!-- Generator: Adobe Illustrator 19.0.0, SVG Export Plug-In . SVG Version: 6.00 Build 0)  -->
<svg version="1.1" id="Capa_1" xmlns="http://www.w3.org/2000/svg" xmlns:xlink="http://www.w3.org/1999/xlink" x="0px" y="0px"
	 viewBox="0 0 191.146 191.146" style="enable-background:new 0 0 191.146 191.146;" xml:space="preserve">
<g>
	<g>
		<path d="M126.293,0H3.413C1.527,0,0,1.527,0,3.413V51.2c0,1.886,1.527,3.413,3.413,3.413h122.88c1.886,0,3.413-1.527,3.413-3.413
			V3.413C129.707,1.527,128.179,0,126.293,0z M122.88,47.787H6.827V6.827H122.88V47.787z"/>
	</g>
</g>
<g>
	<g>
		<path d="M126.293,136.533H3.413c-1.886,0-3.413,1.527-3.413,3.413v47.787c0,1.886,1.527,3.413,3.413,3.413h122.88
			c1.886,0,3.413-1.528,3.413-3.413v-47.787C129.707,138.061,128.179,136.533,126.293,136.533z M122.88,184.32H6.827v-40.96H122.88
			V184.32z"/>
	</g>
</g>
<g>
	<g>
		<path d="M126.293,47.787H3.413C1.527,47.787,0,49.314,0,51.2v44.373c0,1.886,1.527,3.413,3.413,3.413h122.88
			c1.886,0,3.413-1.527,3.413-3.413V51.2C129.707,49.314,128.179,47.787,126.293,47.787z M122.88,92.16H6.827V54.613H122.88V92.16z"
			/>
	</g>
</g>
<g>
	<g>
		<path d="M126.293,92.16H3.413C1.527,92.16,0,93.687,0,95.573v44.373c0,1.886,1.527,3.413,3.413,3.413h122.88
			c1.886,0,3.413-1.527,3.413-3.413V95.573C129.707,93.687,128.179,92.16,126.293,92.16z M122.88,136.533H6.827V98.987H122.88
			V136.533z"/>
	</g>
</g>
<g>
	<g>
		<path d="M187.733,0h-61.44c-1.886,0-3.413,1.527-3.413,3.413V51.2c0,1.886,1.527,3.413,3.413,3.413h61.44
			c1.886,0,3.413-1.527,3.413-3.413V3.413C191.147,1.527,189.619,0,187.733,0z M184.32,47.787h-54.613V6.827h54.613V47.787z"/>
	</g>
</g>
<g>
	<g>
		<path d="M187.733,136.533h-61.44c-1.886,0-3.413,1.527-3.413,3.413v47.787c0,1.886,1.527,3.413,3.413,3.413h61.44
			c1.886,0,3.413-1.528,3.413-3.413v-47.787C191.147,138.061,189.619,136.533,187.733,136.533z M184.32,184.32h-54.613v-40.96
			h54.613V184.32z"/>
	</g>
</g>
<g>
	<g>
		<path d="M187.733,47.787h-61.44c-1.886,0-3.413,1.527-3.413,3.413v44.373c0,1.886,1.527,3.413,3.413,3.413h61.44
			c1.886,0,3.413-1.527,3.413-3.413V51.2C191.147,49.314,189.619,47.787,187.733,47.787z M184.32,92.16h-54.613V54.613h54.613V92.16
			z"/>
	</g>
</g>
<g>
	<g>
		<path d="M187.733,92.16h-61.44c-1.886,0-3.413,1.527-3.413,3.413v44.373c0,1.886,1.527,3.413,3.413,3.413h61.44
			c1.886,0,3.413-1.527,3.413-3.413V95.573C191.147,93.687,189.619,92.16,187.733,92.16z M184.32,136.533h-54.613V98.987h54.613
			V136.533z"/>
	</g>
</g>
<g>
</g>
<g>
</g>
<g>
</g>
<g>
</g>
<g>
</g>
<g>
</g>
<g>
</g>
<g>
</g>
<g>
</g>
<g>
</g>
<g>
</g>
<g>
</g>
<g>
</g>
<g>
</g>
<g>
</g>
</svg>
