<?xml version="1.0" encoding="iso-8859-1"?>
<!-- Generator: Adobe Illustrator 19.0.0, SVG Export Plug-In . SVG Version: 6.00 Build 0)  -->
<svg version="1.1" id="Capa_1" xmlns="http://www.w3.org/2000/svg" xmlns:xlink="http://www.w3.org/1999/xlink" x="0px" y="0px"
	 viewBox="0 0 191.146 191.146" style="enable-background:new 0 0 191.146 191.146;" xml:space="preserve">
<g>
	<g>
		<path d="M126.293,0H3.413C1.529,0,0,1.527,0,3.413v184.32c0,1.886,1.529,3.413,3.413,3.413h122.88
			c1.884,0,3.413-1.528,3.413-3.413V3.413C129.707,1.527,128.178,0,126.293,0z M122.88,184.32H6.827V6.827H122.88V184.32z"/>
	</g>
</g>
<g>
	<g>
		<path d="M187.733,0h-61.44c-1.884,0-3.413,1.527-3.413,3.413v184.32c0,1.886,1.529,3.413,3.413,3.413h61.44
			c1.884,0,3.413-1.528,3.413-3.413V3.413C191.147,1.527,189.618,0,187.733,0z M184.32,184.32h-54.613V6.827h54.613V184.32z"/>
	</g>
</g>
<g>
</g>
<g>
</g>
<g>
</g>
<g>
</g>
<g>
</g>
<g>
</g>
<g>
</g>
<g>
</g>
<g>
</g>
<g>
</g>
<g>
</g>
<g>
</g>
<g>
</g>
<g>
</g>
<g>
</g>
</svg>
