<?xml version="1.0" encoding="iso-8859-1"?>
<!-- Generator: Adobe Illustrator 19.0.0, SVG Export Plug-In . SVG Version: 6.00 Build 0)  -->
<svg version="1.1" id="Capa_1" xmlns="http://www.w3.org/2000/svg" xmlns:xlink="http://www.w3.org/1999/xlink" x="0px" y="0px"
	 viewBox="0 0 211.626 211.626" style="enable-background:new 0 0 211.626 211.626;" xml:space="preserve">
<g>
	<g>
		<path d="M208.213,39.253H3.413C1.529,39.253,0,40.783,0,42.667V199.68c0,1.884,1.529,3.413,3.413,3.413h204.8
			c1.884,0,3.413-1.529,3.413-3.413V42.667C211.627,40.783,210.098,39.253,208.213,39.253z M204.8,196.267H6.827V46.08H204.8
			V196.267z"/>
	</g>
</g>
<g>
	<g>
		<path d="M208.213,39.253H3.413C1.529,39.253,0,40.783,0,42.667c0,1.884,1.529,3.413,3.413,3.413h204.8
			c1.884,0,3.413-1.529,3.413-3.413C211.626,40.783,210.098,39.253,208.213,39.253z"/>
	</g>
</g>
<g>
	<g>
		<path d="M174.08,100.693H37.547c-1.884,0-3.413,1.529-3.413,3.413v95.573c0,1.884,1.529,3.413,3.413,3.413H174.08
			c1.884,0,3.413-1.529,3.413-3.413v-95.573C177.493,102.223,175.964,100.693,174.08,100.693z M170.667,196.267H40.96V107.52
			h129.707V196.267z"/>
	</g>
</g>
<g>
	<g>
		<path d="M174.08,52.907H37.547c-1.884,0-3.413,1.529-3.413,3.413v34.133c0,1.884,1.529,3.413,3.413,3.413H174.08
			c1.884,0,3.413-1.529,3.413-3.413V56.32C177.493,54.436,175.964,52.907,174.08,52.907z M170.667,87.04H40.96V59.733h129.707V87.04
			z"/>
	</g>
</g>
<g>
	<g>
		<path d="M163.84,114.347H47.787c-1.884,0-3.413,1.529-3.413,3.413c0,1.884,1.529,3.413,3.413,3.413H163.84
			c1.884,0,3.413-1.529,3.413-3.413C167.253,115.876,165.724,114.347,163.84,114.347z"/>
	</g>
</g>
<g>
	<g>
		<path d="M163.84,128H47.787c-1.884,0-3.413,1.529-3.413,3.413c0,1.884,1.529,3.413,3.413,3.413H163.84
			c1.884,0,3.413-1.529,3.413-3.413C167.253,129.529,165.724,128,163.84,128z"/>
	</g>
</g>
<g>
	<g>
		<path d="M163.84,141.653H47.787c-1.884,0-3.413,1.529-3.413,3.413s1.529,3.413,3.413,3.413H163.84
			c1.884,0,3.413-1.529,3.413-3.413S165.724,141.653,163.84,141.653z"/>
	</g>
</g>
<g>
	<g>
		<path d="M75.093,168.96H47.787c-1.884,0-3.413,1.529-3.413,3.413s1.529,3.413,3.413,3.413h27.307c1.884,0,3.413-1.529,3.413-3.413
			S76.978,168.96,75.093,168.96z"/>
	</g>
</g>
<g>
	<g>
		<path d="M75.093,155.307H47.787c-1.884,0-3.413,1.529-3.413,3.413c0,1.884,1.529,3.413,3.413,3.413h27.307
			c1.884,0,3.413-1.529,3.413-3.413C78.507,156.836,76.978,155.307,75.093,155.307z"/>
	</g>
</g>
<g>
	<g>
		<path d="M75.093,182.613H47.787c-1.884,0-3.413,1.529-3.413,3.413s1.529,3.413,3.413,3.413h27.307
			c1.884,0,3.413-1.529,3.413-3.413C78.507,184.143,76.978,182.613,75.093,182.613z"/>
	</g>
</g>
<g>
	<g>
		<path d="M163.84,155.307h-23.893c-1.884,0-3.413,1.529-3.413,3.413c0,1.884,1.529,3.413,3.413,3.413h23.893
			c1.884,0,3.413-1.529,3.413-3.413C167.253,156.836,165.724,155.307,163.84,155.307z"/>
	</g>
</g>
<g>
	<g>
		<path d="M163.84,168.96h-23.893c-1.884,0-3.413,1.529-3.413,3.413s1.529,3.413,3.413,3.413h23.893
			c1.884,0,3.413-1.529,3.413-3.413S165.724,168.96,163.84,168.96z"/>
	</g>
</g>
<g>
	<g>
		<path d="M163.84,182.613h-23.893c-1.884,0-3.413,1.529-3.413,3.413s1.529,3.413,3.413,3.413h23.893
			c1.884,0,3.413-1.529,3.413-3.413C167.253,184.143,165.724,182.613,163.84,182.613z"/>
	</g>
</g>
<g>
	<g>
		<path d="M126.293,155.307H88.747c-1.884,0-3.413,1.529-3.413,3.413v27.307c0,1.884,1.529,3.413,3.413,3.413h37.547
			c1.884,0,3.413-1.529,3.413-3.413V158.72C129.707,156.836,128.178,155.307,126.293,155.307z M122.88,182.613H92.16v-20.48h30.72
			V182.613z"/>
	</g>
</g>
<g>
	<g>
		<path d="M81.92,18.773H68.268c-1.884,0-3.413,1.529-3.413,3.413c0,1.884,1.529,3.413,3.413,3.413H81.92
			c1.884,0,3.413-1.529,3.413-3.413C85.333,20.302,83.804,18.773,81.92,18.773z"/>
	</g>
</g>
<g>
	<g>
		<path d="M47.787,18.773H34.133c-1.884,0-3.413,1.529-3.413,3.413c0,1.884,1.529,3.413,3.413,3.413h13.653
			c1.884,0,3.413-1.529,3.413-3.413C51.199,20.302,49.671,18.773,47.787,18.773z"/>
	</g>
</g>
<g>
	<g>
		<path d="M13.653,18.773H3.413C1.529,18.773,0,20.303,0,22.187v20.48c0,1.884,1.529,3.413,3.413,3.413
			c1.884,0,3.413-1.529,3.413-3.413V25.6h6.827c1.884,0,3.413-1.529,3.413-3.413C17.066,20.303,15.538,18.773,13.653,18.773z"/>
	</g>
</g>
<g>
	<g>
		<path d="M208.213,18.773H102.661c-1.884,0-3.413,1.529-3.413,3.413c0,1.884,1.529,3.413,3.413,3.413H204.8v17.067
			c0,1.884,1.529,3.413,3.413,3.413s3.413-1.529,3.413-3.413v-20.48C211.627,20.303,210.098,18.773,208.213,18.773z"/>
	</g>
</g>
<g>
	<g>
		<path d="M23.893,8.533c-7.528,0-13.653,6.125-13.653,13.653c0,7.528,6.125,13.653,13.653,13.653s13.653-6.125,13.653-13.653
			C37.547,14.659,31.421,8.533,23.893,8.533z M23.893,29.013c-3.765,0-6.827-3.062-6.827-6.827c0-3.765,3.062-6.827,6.827-6.827
			s6.827,3.062,6.827,6.827C30.72,25.952,27.658,29.013,23.893,29.013z"/>
	</g>
</g>
<g>
	<g>
		<path d="M58.027,8.533c-7.528,0-13.653,6.125-13.653,13.653c0,7.528,6.125,13.653,13.653,13.653
			c7.528,0,13.653-6.125,13.653-13.653C71.68,14.659,65.555,8.533,58.027,8.533z M58.027,29.013c-3.765,0-6.827-3.062-6.827-6.827
			c0-3.765,3.062-6.827,6.827-6.827c3.765,0,6.827,3.062,6.827,6.827C64.853,25.952,61.792,29.013,58.027,29.013z"/>
	</g>
</g>
<g>
	<g>
		<path d="M92.16,8.533c-7.528,0-13.653,6.125-13.653,13.653c0,7.528,6.125,13.653,13.653,13.653
			c7.528,0,13.653-6.125,13.653-13.653C105.813,14.659,99.688,8.533,92.16,8.533z M92.16,29.013c-3.765,0-6.827-3.062-6.827-6.827
			c0-3.765,3.062-6.827,6.827-6.827c3.765,0,6.827,3.062,6.827,6.827C98.987,25.952,95.925,29.013,92.16,29.013z"/>
	</g>
</g>
<g>
</g>
<g>
</g>
<g>
</g>
<g>
</g>
<g>
</g>
<g>
</g>
<g>
</g>
<g>
</g>
<g>
</g>
<g>
</g>
<g>
</g>
<g>
</g>
<g>
</g>
<g>
</g>
<g>
</g>
</svg>
