<?xml version="1.0" encoding="iso-8859-1"?>
<!-- Generator: Adobe Illustrator 19.0.0, SVG Export Plug-In . SVG Version: 6.00 Build 0)  -->
<svg version="1.1" id="Capa_1" xmlns="http://www.w3.org/2000/svg" xmlns:xlink="http://www.w3.org/1999/xlink" x="0px" y="0px"
	 viewBox="0 0 197.973 197.973" style="enable-background:new 0 0 197.973 197.973;" xml:space="preserve">
<g>
	<g>
		<path d="M119.467,109.227c1.886,0,3.413-1.527,3.413-3.413V78.507c0-1.886-1.527-3.413-3.413-3.413H3.413
			C1.527,75.093,0,76.621,0,78.507V194.56c0,1.886,1.527,3.413,3.413,3.413h116.053c1.886,0,3.413-1.527,3.413-3.413v-75.093
			c0-1.886-1.527-3.413-3.413-3.413s-3.413,1.528-3.413,3.413v71.68H6.827V81.92h109.227v23.893
			C116.053,107.699,117.581,109.227,119.467,109.227z"/>
	</g>
</g>
<g>
	<g>
		<path d="M194.56,0H78.507c-1.886,0-3.413,1.527-3.413,3.413v75.093c0,1.886,1.527,3.413,3.413,3.413s3.413-1.527,3.413-3.413
			V6.827h109.227v109.227H81.92V92.08c0-1.886-1.527-3.413-3.413-3.413c-1.886,0-3.413,1.527-3.413,3.413v27.387
			c0,1.886,1.527,3.413,3.413,3.413H194.56c1.886,0,3.413-1.527,3.413-3.413V3.413C197.973,1.527,196.446,0,194.56,0z"/>
	</g>
</g>
<g>
	<g>
		<path d="M119.467,75.093h-40.96c-1.886,0-3.413,1.527-3.413,3.413c0,1.886,1.527,3.413,3.413,3.413h37.547v23.893
			c0,1.886,1.528,3.413,3.413,3.413c1.886,0,3.413-1.527,3.413-3.413V78.507C122.88,76.621,121.352,75.093,119.467,75.093z"/>
	</g>
</g>
<g>
	<g>
		<path d="M119.467,116.053H81.92V92.076c0-1.886-1.527-3.413-3.413-3.413c-1.886,0-3.413,1.527-3.413,3.413v27.39
			c0,1.886,1.527,3.413,3.413,3.413h40.96c1.886,0,3.413-1.527,3.413-3.413C122.88,117.581,121.352,116.053,119.467,116.053z"/>
	</g>
</g>
<g>
</g>
<g>
</g>
<g>
</g>
<g>
</g>
<g>
</g>
<g>
</g>
<g>
</g>
<g>
</g>
<g>
</g>
<g>
</g>
<g>
</g>
<g>
</g>
<g>
</g>
<g>
</g>
<g>
</g>
</svg>
