<?xml version="1.0" encoding="iso-8859-1"?>
<!-- Generator: Adobe Illustrator 19.0.0, SVG Export Plug-In . SVG Version: 6.00 Build 0)  -->
<svg version="1.1" id="Capa_1" xmlns="http://www.w3.org/2000/svg" xmlns:xlink="http://www.w3.org/1999/xlink" x="0px" y="0px"
	 viewBox="0 0 204.8 204.8" style="enable-background:new 0 0 204.8 204.8;" xml:space="preserve">
<g>
	<g>
		<path d="M119.467,81.92H3.413C1.529,81.92,0,83.448,0,85.333v116.053c0,1.886,1.529,3.413,3.413,3.413h116.053
			c1.884,0,3.413-1.527,3.413-3.413V85.333C122.88,83.448,121.351,81.92,119.467,81.92z M116.054,197.974h-0.001H6.827V88.747
			h109.227V197.974z"/>
	</g>
</g>
<g>
	<g>
		<path d="M201.387,163.84h-34.133c-1.884,0-3.413,1.527-3.413,3.413v34.133c0,1.886,1.529,3.413,3.413,3.413h34.133
			c1.884,0,3.413-1.527,3.413-3.413v-34.133C204.8,165.367,203.271,163.84,201.387,163.84z M197.973,197.974h-27.307v-27.307h27.307
			V197.974z"/>
	</g>
</g>
<g>
	<g>
		<path d="M37.547,0H3.413C1.529,0,0,1.527,0,3.414v34.133c0,1.886,1.529,3.413,3.413,3.413h34.133c1.884,0,3.413-1.527,3.413-3.413
			V3.414C40.96,1.527,39.431,0,37.547,0z M34.134,34.133L34.134,34.133H6.827V6.828h27.307V34.133z"/>
	</g>
</g>
<g>
	<g>
		<path d="M119.467,0H85.333c-1.884,0-3.413,1.527-3.413,3.413v34.133c0,1.886,1.529,3.413,3.413,3.413h34.133
			c1.884,0,3.413-1.527,3.413-3.413V3.414C122.88,1.527,121.351,0,119.467,0z M116.054,34.133h-0.001H88.747V6.828h27.307V34.133z"
			/>
	</g>
</g>
<g>
	<g>
		<path d="M201.387,0h-34.133c-1.884,0-3.413,1.527-3.413,3.413v34.133c0,1.886,1.529,3.413,3.413,3.413h34.133
			c1.884,0,3.413-1.527,3.413-3.413V3.414C204.8,1.527,203.271,0,201.387,0z M197.973,34.133h-27.307V6.828h27.307V34.133z"/>
	</g>
</g>
<g>
	<g>
		<path d="M201.387,81.92h-34.133c-1.884,0-3.413,1.527-3.413,3.413v34.133c0,1.886,1.529,3.413,3.413,3.413h34.133
			c1.884,0,3.413-1.527,3.413-3.413V85.333C204.8,83.448,203.271,81.92,201.387,81.92z M197.973,116.053h-27.307V88.747h27.307
			V116.053z"/>
	</g>
</g>
<g>
	<g>
		<path d="M184.32,34.133c-1.884,0-3.413,1.527-3.413,3.413v47.787c0,1.886,1.529,3.413,3.413,3.413
			c1.884,0,3.413-1.527,3.413-3.413V37.547C187.733,35.661,186.204,34.133,184.32,34.133z"/>
	</g>
</g>
<g>
	<g>
		<path d="M184.32,116.053c-1.884,0-3.413,1.527-3.413,3.413v47.787c0,1.886,1.529,3.413,3.413,3.413
			c1.884,0,3.413-1.527,3.413-3.413v-47.787C187.733,117.581,186.204,116.053,184.32,116.053z"/>
	</g>
</g>
<g>
	<g>
		<path d="M85.333,17.068H37.547c-1.884,0-3.413,1.527-3.413,3.413c0,1.886,1.529,3.413,3.413,3.413h47.787
			c1.884,0,3.413-1.527,3.413-3.413C88.747,18.594,87.217,17.068,85.333,17.068z"/>
	</g>
</g>
<g>
	<g>
		<path d="M167.253,17.068h-47.787c-1.884,0-3.413,1.527-3.413,3.413c0,1.886,1.529,3.413,3.413,3.413h47.787
			c1.884,0,3.413-1.527,3.413-3.413C170.666,18.594,169.137,17.068,167.253,17.068z"/>
	</g>
</g>
<g>
</g>
<g>
</g>
<g>
</g>
<g>
</g>
<g>
</g>
<g>
</g>
<g>
</g>
<g>
</g>
<g>
</g>
<g>
</g>
<g>
</g>
<g>
</g>
<g>
</g>
<g>
</g>
<g>
</g>
</svg>
