<?xml version="1.0" encoding="iso-8859-1"?>
<!-- Generator: Adobe Illustrator 19.0.0, SVG Export Plug-In . SVG Version: 6.00 Build 0)  -->
<svg version="1.1" id="Capa_1" xmlns="http://www.w3.org/2000/svg" xmlns:xlink="http://www.w3.org/1999/xlink" x="0px" y="0px"
	 viewBox="0 0 197.974 197.974" style="enable-background:new 0 0 197.974 197.974;" xml:space="preserve">
<g>
	<g>
		<path d="M119.467,75.094H3.413C1.527,75.094,0,76.621,0,78.508v116.053c0,1.886,1.527,3.413,3.413,3.413h116.053
			c1.886,0,3.413-1.527,3.413-3.413V78.508C122.88,76.621,121.353,75.094,119.467,75.094z M116.054,191.147h-0.001H6.827V81.921
			h109.227V191.147z"/>
	</g>
</g>
<g>
	<g>
		<path d="M78.507,57.227c-1.886,0-3.413,1.527-3.413,3.413v6.827c0,1.886,1.527,3.413,3.413,3.413s3.413-1.526,3.413-3.413v-6.826
			C81.92,58.755,80.393,57.227,78.507,57.227z"/>
	</g>
</g>
<g>
	<g>
		<path d="M78.507,37.068c-1.886,0-3.413,1.527-3.413,3.413v10.08c0,1.886,1.527,3.413,3.413,3.413s3.413-1.527,3.413-3.413V40.48
			C81.92,38.595,80.393,37.068,78.507,37.068z"/>
	</g>
</g>
<g>
	<g>
		<path d="M78.507,16.907c-1.886,0-3.413,1.527-3.413,3.413V30.4c0,1.886,1.527,3.413,3.413,3.413s3.413-1.526,3.413-3.413V20.321
			C81.92,18.435,80.393,16.907,78.507,16.907z"/>
	</g>
</g>
<g>
	<g>
		<path d="M85.333,0.001h-6.827c-1.886,0-3.413,1.527-3.413,3.413v6.827c0,1.886,1.527,3.413,3.413,3.413
			c1.886,0,3.413-1.527,3.413-3.413V6.828h3.413c1.886,0,3.413-1.527,3.413-3.413C88.747,1.527,87.219,0.001,85.333,0.001z"/>
	</g>
</g>
<g>
	<g>
		<path d="M103.953,0.001h-9.31c-1.886,0-3.413,1.527-3.413,3.413c0,1.886,1.527,3.413,3.413,3.413h9.31
			c1.888,0,3.413-1.527,3.413-3.413C107.366,1.527,105.839,0.001,103.953,0.001z"/>
	</g>
</g>
<g>
	<g>
		<path d="M122.569,0.001h-9.31c-1.886,0-3.413,1.527-3.413,3.413c0,1.886,1.527,3.413,3.413,3.413h9.31
			c1.888,0,3.413-1.527,3.413-3.413C125.983,1.527,124.455,0.001,122.569,0.001z"/>
	</g>
</g>
<g>
	<g>
		<path d="M178.427,0.001h-9.31c-1.886,0-3.413,1.527-3.413,3.413c0,1.886,1.527,3.413,3.413,3.413h9.31
			c1.886,0,3.413-1.527,3.413-3.413C181.84,1.527,180.313,0.001,178.427,0.001z"/>
	</g>
</g>
<g>
	<g>
		<path d="M141.191,0.001h-9.31c-1.886,0-3.413,1.527-3.413,3.413c0,1.886,1.527,3.413,3.413,3.413h9.31
			c1.886,0,3.413-1.527,3.413-3.413C144.604,1.527,143.077,0.001,141.191,0.001z"/>
	</g>
</g>
<g>
	<g>
		<path d="M159.807,0.001h-9.31c-1.886,0-3.413,1.527-3.413,3.413c0,1.886,1.527,3.413,3.413,3.413h9.31
			c1.886,0,3.413-1.527,3.413-3.413C163.22,1.527,161.693,0.001,159.807,0.001z"/>
	</g>
</g>
<g>
	<g>
		<path d="M194.56,0.001h-6.827c-1.886,0-3.413,1.527-3.413,3.413c0,1.886,1.528,3.413,3.413,3.413h3.413v3.413
			c0,1.886,1.527,3.413,3.413,3.413c1.886,0,3.413-1.527,3.413-3.413V3.414C197.973,1.527,196.446,0.001,194.56,0.001z"/>
	</g>
</g>
<g>
	<g>
		<path d="M194.56,16.138c-1.886,0-3.413,1.527-3.413,3.413v9.31c0,1.886,1.527,3.413,3.413,3.413s3.413-1.526,3.413-3.413v-9.31
			C197.973,17.665,196.446,16.138,194.56,16.138z"/>
	</g>
</g>
<g>
	<g>
		<path d="M194.56,34.754c-1.886,0-3.413,1.527-3.413,3.413v9.31c0,1.886,1.527,3.413,3.413,3.413s3.413-1.526,3.413-3.413v-9.31
			C197.973,36.28,196.446,34.754,194.56,34.754z"/>
	</g>
</g>
<g>
	<g>
		<path d="M194.56,90.611c-1.886,0-3.413,1.527-3.413,3.413v9.31c0,1.886,1.527,3.413,3.413,3.413s3.413-1.527,3.413-3.413v-9.31
			C197.973,92.139,196.446,90.611,194.56,90.611z"/>
	</g>
</g>
<g>
	<g>
		<path d="M194.56,71.991c-1.886,0-3.413,1.527-3.413,3.413v9.31c0,1.886,1.527,3.413,3.413,3.413s3.413-1.527,3.413-3.413v-9.31
			C197.973,73.519,196.446,71.991,194.56,71.991z"/>
	</g>
</g>
<g>
	<g>
		<path d="M194.56,53.375c-1.886,0-3.413,1.527-3.413,3.413v9.31c0,1.886,1.527,3.413,3.413,3.413s3.413-1.527,3.413-3.413v-9.31
			C197.973,54.902,196.446,53.375,194.56,53.375z"/>
	</g>
</g>
<g>
	<g>
		<path d="M194.56,109.228c-1.886,0-3.413,1.527-3.413,3.413v3.413h-3.413c-1.886,0-3.413,1.528-3.413,3.413
			c0,1.886,1.528,3.413,3.413,3.413h6.827c1.886,0,3.413-1.527,3.413-3.413v-6.827C197.973,110.754,196.446,109.228,194.56,109.228z
			"/>
	</g>
</g>
<g>
	<g>
		<path d="M157.283,116.053h-10.15c-1.886,0-3.413,1.528-3.413,3.413c0,1.886,1.527,3.413,3.413,3.413h10.15
			c1.888,0,3.413-1.527,3.413-3.413C160.696,117.582,159.169,116.053,157.283,116.053z"/>
	</g>
</g>
<g>
	<g>
		<path d="M177.584,116.053h-10.15c-1.886,0-3.413,1.528-3.413,3.413c0,1.886,1.527,3.413,3.413,3.413h10.15
			c1.886,0,3.413-1.527,3.413-3.413C180.997,117.582,179.47,116.053,177.584,116.053z"/>
	</g>
</g>
<g>
	<g>
		<path d="M136.984,116.053h-6.827c-1.886,0-3.413,1.528-3.413,3.413c0,1.886,1.527,3.413,3.413,3.413h6.827
			c1.886,0,3.413-1.527,3.413-3.413C140.397,117.582,138.87,116.053,136.984,116.053z"/>
	</g>
</g>
<g>
</g>
<g>
</g>
<g>
</g>
<g>
</g>
<g>
</g>
<g>
</g>
<g>
</g>
<g>
</g>
<g>
</g>
<g>
</g>
<g>
</g>
<g>
</g>
<g>
</g>
<g>
</g>
<g>
</g>
</svg>
