<?xml version="1.0" encoding="iso-8859-1"?>
<!-- Generator: Adobe Illustrator 19.0.0, SVG Export Plug-In . SVG Version: 6.00 Build 0)  -->
<svg version="1.1" id="Capa_1" xmlns="http://www.w3.org/2000/svg" xmlns:xlink="http://www.w3.org/1999/xlink" x="0px" y="0px"
	 viewBox="0 0 197.974 197.974" style="enable-background:new 0 0 197.974 197.974;" xml:space="preserve">
<g>
	<g>
		<path d="M119.467,75.094H3.413C1.527,75.094,0,76.621,0,78.508v116.053c0,1.886,1.527,3.413,3.413,3.413h116.053
			c1.886,0,3.413-1.527,3.413-3.413V78.508C122.88,76.621,121.353,75.094,119.467,75.094z M116.054,191.147h-0.001H6.827V81.921
			h109.227V191.147z"/>
	</g>
</g>
<g>
	<g>
		<path d="M194.56,109.228c-1.886,0-3.413,1.527-3.413,3.413v3.413h-3.413c-1.886,0-3.413,1.528-3.413,3.413
			c0,1.886,1.528,3.413,3.413,3.413h6.827c1.886,0,3.413-1.527,3.413-3.413v-6.827C197.973,110.754,196.446,109.228,194.56,109.228z
			"/>
	</g>
</g>
<g>
	<g>
		<path d="M159.807,116.053h-9.31c-1.886,0-3.413,1.528-3.413,3.413c0,1.886,1.527,3.413,3.413,3.413h9.31
			c1.886,0,3.413-1.527,3.413-3.413C163.22,117.582,161.693,116.053,159.807,116.053z"/>
	</g>
</g>
<g>
	<g>
		<path d="M178.423,116.053h-9.31c-1.886,0-3.413,1.528-3.413,3.413c0,1.886,1.527,3.413,3.413,3.413h9.31
			c1.886,0,3.413-1.527,3.413-3.413C181.837,117.582,180.309,116.053,178.423,116.053z"/>
	</g>
</g>
<g>
	<g>
		<path d="M103.95,116.053h-9.31c-1.886,0-3.413,1.528-3.413,3.413c0,1.886,1.527,3.413,3.413,3.413h9.31
			c1.888,0,3.413-1.527,3.413-3.413C107.363,117.582,105.836,116.053,103.95,116.053z"/>
	</g>
</g>
<g>
	<g>
		<path d="M141.187,116.053h-9.31c-1.886,0-3.413,1.528-3.413,3.413c0,1.886,1.527,3.413,3.413,3.413h9.31
			c1.886,0,3.413-1.527,3.413-3.413C144.601,117.582,143.073,116.053,141.187,116.053z"/>
	</g>
</g>
<g>
	<g>
		<path d="M122.569,116.053h-9.31c-1.886,0-3.413,1.528-3.413,3.413c0,1.886,1.527,3.413,3.413,3.413h9.31
			c1.888,0,3.413-1.527,3.413-3.413C125.983,117.582,124.455,116.053,122.569,116.053z"/>
	</g>
</g>
<g>
	<g>
		<path d="M85.333,116.053H81.92v-3.413c0-1.886-1.527-3.413-3.413-3.413c-1.886,0-3.413,1.527-3.413,3.413v6.827
			c0,1.886,1.527,3.413,3.413,3.413h6.827c1.886,0,3.413-1.527,3.413-3.413C88.747,117.582,87.219,116.053,85.333,116.053z"/>
	</g>
</g>
<g>
	<g>
		<path d="M78.507,90.608c-1.886,0-3.413,1.528-3.413,3.413v9.31c0,1.886,1.527,3.413,3.413,3.413s3.413-1.527,3.413-3.413v-9.31
			C81.92,92.134,80.393,90.608,78.507,90.608z"/>
	</g>
</g>
<g>
	<g>
		<path d="M78.507,71.991c-1.886,0-3.413,1.527-3.413,3.413v9.31c0,1.886,1.527,3.413,3.413,3.413s3.413-1.527,3.413-3.413v-9.31
			C81.92,73.519,80.393,71.991,78.507,71.991z"/>
	</g>
</g>
<g>
	<g>
		<path d="M78.507,34.754c-1.886,0-3.413,1.527-3.413,3.413v9.31c0,1.886,1.527,3.413,3.413,3.413s3.413-1.526,3.413-3.413v-9.31
			C81.92,36.28,80.393,34.754,78.507,34.754z"/>
	</g>
</g>
<g>
	<g>
		<path d="M78.507,53.371c-1.886,0-3.413,1.527-3.413,3.413v9.31c0,1.886,1.527,3.413,3.413,3.413s3.413-1.527,3.413-3.413v-9.31
			C81.92,54.899,80.393,53.371,78.507,53.371z"/>
	</g>
</g>
<g>
	<g>
		<path d="M78.507,16.134c-1.886,0-3.413,1.527-3.413,3.413v9.31c0,1.886,1.527,3.413,3.413,3.413s3.413-1.526,3.413-3.413v-9.31
			C81.92,17.662,80.393,16.134,78.507,16.134z"/>
	</g>
</g>
<g>
	<g>
		<path d="M85.333,0.001h-6.827c-1.886,0-3.413,1.527-3.413,3.413v6.827c0,1.886,1.527,3.413,3.413,3.413
			c1.886,0,3.413-1.527,3.413-3.413V6.828h3.413c1.886,0,3.413-1.527,3.413-3.413C88.747,1.527,87.219,0.001,85.333,0.001z"/>
	</g>
</g>
<g>
	<g>
		<path d="M103.953,0.001h-9.31c-1.886,0-3.413,1.527-3.413,3.413c0,1.886,1.527,3.413,3.413,3.413h9.31
			c1.888,0,3.413-1.527,3.413-3.413C107.366,1.527,105.839,0.001,103.953,0.001z"/>
	</g>
</g>
<g>
	<g>
		<path d="M122.569,0.001h-9.31c-1.886,0-3.413,1.527-3.413,3.413c0,1.886,1.527,3.413,3.413,3.413h9.31
			c1.888,0,3.413-1.527,3.413-3.413C125.983,1.527,124.455,0.001,122.569,0.001z"/>
	</g>
</g>
<g>
	<g>
		<path d="M141.191,0.001h-9.31c-1.886,0-3.413,1.527-3.413,3.413c0,1.886,1.527,3.413,3.413,3.413h9.31
			c1.886,0,3.413-1.527,3.413-3.413C144.604,1.527,143.077,0.001,141.191,0.001z"/>
	</g>
</g>
<g>
	<g>
		<path d="M159.807,0.001h-9.31c-1.886,0-3.413,1.527-3.413,3.413c0,1.886,1.527,3.413,3.413,3.413h9.31
			c1.886,0,3.413-1.527,3.413-3.413C163.22,1.527,161.693,0.001,159.807,0.001z"/>
	</g>
</g>
<g>
	<g>
		<path d="M178.427,0.001h-9.31c-1.886,0-3.413,1.527-3.413,3.413c0,1.886,1.527,3.413,3.413,3.413h9.31
			c1.886,0,3.413-1.527,3.413-3.413C181.84,1.527,180.313,0.001,178.427,0.001z"/>
	</g>
</g>
<g>
	<g>
		<path d="M194.56,0.001h-6.827c-1.886,0-3.413,1.527-3.413,3.413c0,1.886,1.528,3.413,3.413,3.413h3.413v3.413
			c0,1.886,1.527,3.413,3.413,3.413c1.886,0,3.413-1.527,3.413-3.413V3.414C197.973,1.527,196.446,0.001,194.56,0.001z"/>
	</g>
</g>
<g>
	<g>
		<path d="M194.56,34.754c-1.886,0-3.413,1.527-3.413,3.413v9.31c0,1.886,1.527,3.413,3.413,3.413s3.413-1.526,3.413-3.413v-9.31
			C197.973,36.28,196.446,34.754,194.56,34.754z"/>
	</g>
</g>
<g>
	<g>
		<path d="M194.56,16.138c-1.886,0-3.413,1.527-3.413,3.413v9.31c0,1.886,1.527,3.413,3.413,3.413s3.413-1.526,3.413-3.413v-9.31
			C197.973,17.665,196.446,16.138,194.56,16.138z"/>
	</g>
</g>
<g>
	<g>
		<path d="M194.56,71.991c-1.886,0-3.413,1.527-3.413,3.413v9.31c0,1.886,1.527,3.413,3.413,3.413s3.413-1.527,3.413-3.413v-9.31
			C197.973,73.519,196.446,71.991,194.56,71.991z"/>
	</g>
</g>
<g>
	<g>
		<path d="M194.56,90.611c-1.886,0-3.413,1.527-3.413,3.413v9.31c0,1.886,1.527,3.413,3.413,3.413s3.413-1.527,3.413-3.413v-9.31
			C197.973,92.139,196.446,90.611,194.56,90.611z"/>
	</g>
</g>
<g>
	<g>
		<path d="M194.56,53.375c-1.886,0-3.413,1.527-3.413,3.413v9.31c0,1.886,1.527,3.413,3.413,3.413s3.413-1.527,3.413-3.413v-9.31
			C197.973,54.902,196.446,53.375,194.56,53.375z"/>
	</g>
</g>
<g>
</g>
<g>
</g>
<g>
</g>
<g>
</g>
<g>
</g>
<g>
</g>
<g>
</g>
<g>
</g>
<g>
</g>
<g>
</g>
<g>
</g>
<g>
</g>
<g>
</g>
<g>
</g>
<g>
</g>
</svg>
