<?xml version="1.0" encoding="iso-8859-1"?>
<!-- Generator: Adobe Illustrator 19.0.0, SVG Export Plug-In . SVG Version: 6.00 Build 0)  -->
<svg version="1.1" id="Capa_1" xmlns="http://www.w3.org/2000/svg" xmlns:xlink="http://www.w3.org/1999/xlink" x="0px" y="0px"
	 viewBox="0 0 211.627 211.627" style="enable-background:new 0 0 211.627 211.627;" xml:space="preserve">
<g>
	<g>
		<path d="M45.226,109.008c-7.528,0-13.653,6.112-13.653,13.626c0,7.514,6.125,13.626,13.653,13.626s13.653-6.112,13.653-13.626
			C58.88,115.12,52.754,109.008,45.226,109.008z M45.226,129.447c-3.765,0-6.827-3.057-6.827-6.813c0-3.756,3.062-6.813,6.827-6.813
			s6.827,3.058,6.827,6.813C52.053,126.391,48.991,129.447,45.226,129.447z"/>
	</g>
</g>
<g>
	<g>
		<path d="M84.287,128.104L72.34,94.252c-0.483-1.364-1.772-2.275-3.22-2.275H21.333c-1.449,0-2.739,0.911-3.221,2.275
			L6.166,128.104c-0.369,1.051-0.203,2.215,0.449,3.12l12.556,17.425c9.73,13.5,16.329,28.611,19.616,44.911l3.092,15.333
			c0.319,1.589,1.719,2.731,3.342,2.734c0.002,0,0.003,0,0.005,0c1.621,0,3.021-1.138,3.343-2.726l3.258-15.904
			c3.333-16.263,9.965-31.336,19.712-44.793l12.293-16.973C84.488,130.326,84.659,129.159,84.287,128.104z M66.007,144.212
			c-10.211,14.1-17.193,29.873-20.755,46.889c-3.553-16.833-10.46-32.444-20.536-46.43L13.198,128.69L23.75,98.789h42.953
			l10.551,29.897L66.007,144.212z"/>
	</g>
</g>
<g>
	<g>
		<path d="M69.12,0H21.333c-1.884,0-3.413,1.524-3.413,3.407v91.976c0,1.882,1.529,3.406,3.413,3.406H69.12
			c1.886,0,3.413-1.524,3.413-3.406V3.407C72.533,1.524,71.004,0,69.12,0z M65.706,91.976h-40.96V6.813h40.96V91.976z"/>
	</g>
</g>
<g>
	<g>
		<path d="M45.226,146.48c-1.884,0-3.413,1.524-3.413,3.406v54.504c0,1.882,1.529,3.406,3.413,3.406
			c1.886,0,3.413-1.522,3.413-3.406v-54.504C48.64,148.004,47.11,146.48,45.226,146.48z"/>
	</g>
</g>
<g>
	<g>
		<path d="M55.466,64.724h-20.48c-9.411,0-17.067,7.641-17.067,17.033c0,9.392,7.656,17.032,17.067,17.032h20.48
			c9.411,0,17.067-7.641,17.067-17.032C72.533,72.364,64.877,64.724,55.466,64.724z M55.466,91.976h-20.48
			c-5.647,0-10.24-4.584-10.24-10.219c0-5.635,4.593-10.22,10.24-10.22h20.48c5.647,0,10.24,4.584,10.24,10.22
			C65.706,87.392,61.114,91.976,55.466,91.976z"/>
	</g>
</g>
<g>
	<g>
		<path d="M204.808,171.488c-1.241-1.42-3.396-1.567-4.816-0.323l-25.465,22.24l-32.297-18.659
			c5.125-4.251,8.062-8.317,8.878-12.242c0.625-3.024,0.324-7.525-4.673-11.797c-8.257-7.066-16.102-9.704-23.308-7.857
			c-11.17,2.867-16.041,15.522-16.244,16.058c-0.585,1.56,0.043,3.314,1.487,4.146l21.207,12.252
			c-16.377,9.897-42.784,20.043-61.469,25.832c-1.799,0.56-2.806,2.464-2.248,4.265c0.454,1.459,1.802,2.394,3.258,2.394
			c0.335,0,0.678-0.049,1.012-0.155c0.189-0.06,19.046-5.926,38.146-14.112c11.761-5.04,21.055-9.817,27.955-14.38l36.992,21.374
			c1.263,0.736,2.855,0.575,3.958-0.382l27.307-23.846C205.907,175.054,206.051,172.901,204.808,171.488z M135.922,171.1
			l-21.396-12.361c1.702-3.07,5.142-7.963,10.3-9.289c4.927-1.283,10.703,0.898,17.166,6.427c2.649,2.265,2.69,3.995,2.43,5.246
			C143.788,164.185,140.675,167.584,135.922,171.1z"/>
	</g>
</g>
<g>
</g>
<g>
</g>
<g>
</g>
<g>
</g>
<g>
</g>
<g>
</g>
<g>
</g>
<g>
</g>
<g>
</g>
<g>
</g>
<g>
</g>
<g>
</g>
<g>
</g>
<g>
</g>
<g>
</g>
</svg>
