<?xml version="1.0" encoding="iso-8859-1"?>
<!-- Generator: Adobe Illustrator 19.0.0, SVG Export Plug-In . SVG Version: 6.00 Build 0)  -->
<svg version="1.1" id="Capa_1" xmlns="http://www.w3.org/2000/svg" xmlns:xlink="http://www.w3.org/1999/xlink" x="0px" y="0px"
	 viewBox="0 0 194.559 194.559" style="enable-background:new 0 0 194.559 194.559;" xml:space="preserve">
<g>
	<g>
		<path d="M167.806,21.337l-23.173-20.48C144.01,0.304,143.206,0,142.374,0H29.013C27.127,0,25.6,1.527,25.6,3.413v187.733
			c0,1.886,1.527,3.413,3.413,3.413h136.533c1.886,0,3.413-1.527,3.413-3.413V23.893C168.96,22.914,168.54,21.984,167.806,21.337z
			 M162.133,187.733H32.427V6.827H141.08l21.053,18.606V187.733z"/>
	</g>
</g>
<g>
	<g>
		<path d="M167.767,21.304l-23.893-20.48c-1.01-0.87-2.43-1.067-3.647-0.51c-1.21,0.556-1.987,1.766-1.987,3.099v20.48
			c0,1.886,1.527,3.413,3.413,3.413h23.893c1.43,0,2.707-0.889,3.2-2.229C169.243,23.738,168.854,22.231,167.767,21.304z
			 M145.067,20.48v-9.646l11.254,9.646H145.067z"/>
	</g>
</g>
<g>
	<g>
		<path d="M100.693,40.96h-51.2c-1.886,0-3.413,1.527-3.413,3.413v51.2c0,1.886,1.527,3.413,3.413,3.413h25.926
			c1.888,0,3.413-1.527,3.413-3.413s-1.527-3.413-3.413-3.413H52.907V47.787H97.28v19.584c0,1.886,1.527,3.413,3.413,3.413
			s3.413-1.527,3.413-3.413V44.373C104.107,42.487,102.579,40.96,100.693,40.96z"/>
	</g>
</g>
<g>
	<g>
		<path d="M128,64.853H76.8c-1.886,0-3.413,1.527-3.413,3.413v51.2c0,1.886,1.527,3.413,3.413,3.413H128
			c1.886,0,3.413-1.528,3.413-3.413v-51.2C131.413,66.381,129.886,64.853,128,64.853z M80.213,116.053V71.68h44.373v44.373H80.213z"
			/>
	</g>
</g>
<g>
	<g>
		<path d="M73.387,133.12c-9.411,0-17.067,7.656-17.067,17.067c0,9.411,7.656,17.067,17.067,17.067s17.067-7.656,17.067-17.067
			C90.454,140.776,82.797,133.12,73.387,133.12z M73.387,160.427c-5.647,0-10.24-4.593-10.24-10.24c0-5.647,4.593-10.24,10.24-10.24
			c5.647,0,10.24,4.593,10.24,10.24C83.627,155.834,79.034,160.427,73.387,160.427z"/>
	</g>
</g>
<g>
</g>
<g>
</g>
<g>
</g>
<g>
</g>
<g>
</g>
<g>
</g>
<g>
</g>
<g>
</g>
<g>
</g>
<g>
</g>
<g>
</g>
<g>
</g>
<g>
</g>
<g>
</g>
<g>
</g>
</svg>
