<?xml version="1.0" encoding="iso-8859-1"?>
<!-- Generator: Adobe Illustrator 19.0.0, SVG Export Plug-In . SVG Version: 6.00 Build 0)  -->
<svg version="1.1" id="Capa_1" xmlns="http://www.w3.org/2000/svg" xmlns:xlink="http://www.w3.org/1999/xlink" x="0px" y="0px"
	 viewBox="0 0 204.8 204.8" style="enable-background:new 0 0 204.8 204.8;" xml:space="preserve">
<g>
	<g>
		<path d="M178.931,59.505c-1.205-0.56-2.623-0.37-3.64,0.486l-51.2,43.213c-0.768,0.65-1.212,1.603-1.212,2.61
			c0,1.007,0.444,1.959,1.212,2.609l51.2,43.213c0.628,0.531,1.411,0.804,2.202,0.804c0.488,0,0.978-0.102,1.439-0.316
			c1.205-0.56,1.975-1.77,1.975-3.096V62.601C180.906,61.273,180.137,60.064,178.931,59.505z M174.079,141.681l-42.494-35.867
			l42.494-35.866V141.681z"/>
	</g>
</g>
<g>
	<g>
		<path d="M80.707,103.204l-51.2-43.213c-1.017-0.857-2.439-1.046-3.64-0.486c-1.205,0.56-1.975,1.77-1.975,3.096v86.426
			c0,1.326,0.77,2.536,1.975,3.096c0.461,0.213,0.951,0.317,1.439,0.317c0.79,0,1.574-0.273,2.202-0.804l51.2-43.213
			c0.768-0.65,1.212-1.603,1.212-2.609C81.921,104.808,81.476,103.854,80.707,103.204z M30.719,141.679V69.946l42.494,35.867
			L30.719,141.679z"/>
	</g>
</g>
<g>
	<g>
		<path d="M102.4,136.533c-1.884,0-3.413,1.527-3.413,3.413V153.6c0,1.886,1.529,3.413,3.413,3.413c1.884,0,3.413-1.527,3.413-3.413
			v-13.653C105.812,138.061,104.283,136.533,102.4,136.533z"/>
	</g>
</g>
<g>
	<g>
		<path d="M102.4,163.84c-1.884,0-3.413,1.527-3.413,3.413v13.653c0,1.886,1.529,3.413,3.413,3.413c1.884,0,3.413-1.527,3.413-3.413
			v-13.653C105.812,165.367,104.283,163.84,102.4,163.84z"/>
	</g>
</g>
<g>
	<g>
		<path d="M102.4,191.147c-1.884,0-3.413,1.527-3.413,3.413v6.827c0,1.886,1.529,3.413,3.413,3.413c1.884,0,3.413-1.527,3.413-3.413
			v-6.827C105.812,192.674,104.283,191.147,102.4,191.147z"/>
	</g>
</g>
<g>
	<g>
		<path d="M102.4,109.227c-1.884,0-3.413,1.527-3.413,3.413v13.653c0,1.886,1.529,3.413,3.413,3.413
			c1.884,0,3.413-1.528,3.413-3.413V112.64C105.812,110.754,104.283,109.227,102.4,109.227z"/>
	</g>
</g>
<g>
	<g>
		<path d="M102.4,27.307c-1.884,0-3.413,1.527-3.413,3.413v13.653c0,1.886,1.529,3.413,3.413,3.413c1.884,0,3.413-1.527,3.413-3.413
			V30.72C105.812,28.834,104.283,27.307,102.4,27.307z"/>
	</g>
</g>
<g>
	<g>
		<path d="M102.4,0c-1.884,0-3.413,1.527-3.413,3.413v13.653c0,1.886,1.529,3.413,3.413,3.413c1.884,0,3.413-1.527,3.413-3.413
			V3.413C105.812,1.527,104.283,0,102.4,0z"/>
	</g>
</g>
<g>
	<g>
		<path d="M102.4,54.613c-1.884,0-3.413,1.527-3.413,3.413V71.68c0,1.886,1.529,3.413,3.413,3.413c1.884,0,3.413-1.527,3.413-3.413
			V58.027C105.812,56.141,104.283,54.613,102.4,54.613z"/>
	</g>
</g>
<g>
	<g>
		<path d="M102.4,81.92c-1.884,0-3.413,1.527-3.413,3.413v13.653c0,1.886,1.529,3.413,3.413,3.413c1.884,0,3.413-1.527,3.413-3.413
			V85.333C105.812,83.447,104.283,81.92,102.4,81.92z"/>
	</g>
</g>
<g>
</g>
<g>
</g>
<g>
</g>
<g>
</g>
<g>
</g>
<g>
</g>
<g>
</g>
<g>
</g>
<g>
</g>
<g>
</g>
<g>
</g>
<g>
</g>
<g>
</g>
<g>
</g>
<g>
</g>
</svg>
