<?xml version="1.0" encoding="iso-8859-1"?>
<!-- Generator: Adobe Illustrator 19.0.0, SVG Export Plug-In . SVG Version: 6.00 Build 0)  -->
<svg version="1.1" id="Capa_1" xmlns="http://www.w3.org/2000/svg" xmlns:xlink="http://www.w3.org/1999/xlink" x="0px" y="0px"
	 viewBox="0 0 157.014 157.014" style="enable-background:new 0 0 157.014 157.014;" xml:space="preserve">
<g>
	<g>
		<path d="M37.391,1.708H3.4C1.522,1.708,0,3.227,0,5.106v33.988c0,1.877,1.522,3.398,3.4,3.398h33.992c1.877,0,3.4-1.521,3.4-3.398
			V5.106C40.791,3.229,39.269,1.708,37.391,1.708z M6.799,35.695V8.504h27.192v27.191H6.799z"/>
	</g>
</g>
<g>
	<g>
		<path d="M37.391,83.278H3.4c-1.877,0-3.4,1.519-3.4,3.398v33.988c0,1.877,1.522,3.398,3.4,3.398h33.992
			c1.877,0,3.4-1.519,3.4-3.398V86.676C40.791,84.799,39.269,83.278,37.391,83.278z M6.799,117.266v-27.19h27.192v27.19H6.799z"/>
	</g>
</g>
<g>
	<g>
		<path d="M118.97,1.708H84.978c-1.877,0-3.4,1.519-3.4,3.398v33.988c0,1.877,1.522,3.398,3.4,3.398h33.992
			c1.877,0,3.4-1.521,3.4-3.398V5.106C122.37,3.229,120.847,1.708,118.97,1.708z M115.57,35.695H88.378V8.504h27.192V35.695z"/>
	</g>
</g>
<g>
	<g>
		<path d="M84.98,18.701H37.393c-1.877,0-3.4,1.519-3.4,3.398c0,1.877,1.522,3.398,3.4,3.398H84.98c1.877,0,3.398-1.519,3.4-3.398
			C88.38,20.222,86.857,18.701,84.98,18.701z"/>
	</g>
</g>
<g>
	<g>
		<path d="M88.378,100.273H37.391c-1.877,0-3.4,1.519-3.4,3.398c0,1.877,1.522,3.398,3.4,3.398h50.987c1.877,0,3.4-1.521,3.4-3.398
			C91.778,101.794,90.255,100.273,88.378,100.273z"/>
	</g>
</g>
<g>
	<g>
		<path d="M20.396,35.696c-1.877,0-3.4,1.519-3.4,3.398v47.584c0,1.877,1.522,3.398,3.4,3.398s3.4-1.521,3.4-3.398V39.094
			C23.796,37.217,22.274,35.696,20.396,35.696z"/>
	</g>
</g>
<g>
	<g>
		<path d="M101.975,35.696c-1.877,0-3.4,1.519-3.4,3.398v47.584c0,1.877,1.522,3.398,3.4,3.398c1.878,0,3.4-1.521,3.4-3.398V39.094
			C105.375,37.217,103.852,35.696,101.975,35.696z"/>
	</g>
</g>
<g>
	<g>
		<path d="M153.1,108.399L79.003,72.762c-1.309-0.625-2.859-0.365-3.878,0.66c-1.021,1.022-1.287,2.577-0.661,3.878l35.64,74.09
			c0.567,1.178,1.76,1.925,3.063,1.925c0.01,0,0.024,0,0.038-0.002c1.319-0.014,2.51-0.79,3.057-1.992l11.493-25.279l25.276-11.488
			c1.202-0.544,1.978-1.736,1.993-3.057C155.04,110.18,154.288,108.972,153.1,108.399z M123.781,120.386
			c-0.749,0.338-1.35,0.939-1.688,1.686l-9.011,19.821L84.796,83.092l58.807,28.286L123.781,120.386z"/>
	</g>
</g>
<g>
	<g>
		<path d="M156.018,149.505l-26.027-26.025c-1.328-1.328-3.478-1.328-4.806,0s-1.328,3.478,0,4.806l26.027,26.025
			c0.664,0.664,1.533,0.995,2.403,0.995s1.741-0.331,2.403-0.995C157.346,152.983,157.346,150.833,156.018,149.505z"/>
	</g>
</g>
<g>
</g>
<g>
</g>
<g>
</g>
<g>
</g>
<g>
</g>
<g>
</g>
<g>
</g>
<g>
</g>
<g>
</g>
<g>
</g>
<g>
</g>
<g>
</g>
<g>
</g>
<g>
</g>
<g>
</g>
</svg>
