<?xml version="1.0" encoding="iso-8859-1"?>
<!-- Generator: Adobe Illustrator 19.0.0, SVG Export Plug-In . SVG Version: 6.00 Build 0)  -->
<svg version="1.1" id="Capa_1" xmlns="http://www.w3.org/2000/svg" xmlns:xlink="http://www.w3.org/1999/xlink" x="0px" y="0px"
	 viewBox="0 0 194.559 194.559" style="enable-background:new 0 0 194.559 194.559;" xml:space="preserve">
<g>
	<g>
		<path d="M167.806,21.337l-23.173-20.48C144.01,0.304,143.206,0,142.374,0H29.013C27.127,0,25.6,1.527,25.6,3.413v187.733
			c0,1.886,1.527,3.413,3.413,3.413h136.533c1.886,0,3.413-1.527,3.413-3.413V23.893C168.96,22.914,168.54,21.984,167.806,21.337z
			 M162.133,187.733H32.427V6.827H141.08l21.053,18.606V187.733z"/>
	</g>
</g>
<g>
	<g>
		<path d="M167.767,21.304l-23.893-20.48c-1.01-0.87-2.434-1.067-3.647-0.51c-1.21,0.556-1.987,1.766-1.987,3.099v20.48
			c0,1.886,1.527,3.413,3.413,3.413h23.893c1.43,0,2.707-0.889,3.2-2.229C169.243,23.738,168.854,22.231,167.767,21.304z
			 M145.067,20.48v-9.646l11.254,9.646H145.067z"/>
	</g>
</g>
<g>
	<g>
		<path d="M145.067,129.707H66.56V61.44c0-1.886-1.528-3.413-3.413-3.413c-1.886,0-3.413,1.527-3.413,3.413v71.68
			c0,1.886,1.527,3.413,3.413,3.413h81.92c1.886,0,3.413-1.527,3.413-3.413S146.953,129.707,145.067,129.707z"/>
	</g>
</g>
<g>
	<g>
		<path d="M131.413,71.68h-81.92c-1.886,0-3.413,1.527-3.413,3.413c0,1.886,1.527,3.413,3.413,3.413H128v68.267
			c0,1.886,1.527,3.413,3.413,3.413c1.886,0,3.413-1.527,3.413-3.413v-71.68C134.827,73.207,133.299,71.68,131.413,71.68z"/>
	</g>
</g>
<g>
</g>
<g>
</g>
<g>
</g>
<g>
</g>
<g>
</g>
<g>
</g>
<g>
</g>
<g>
</g>
<g>
</g>
<g>
</g>
<g>
</g>
<g>
</g>
<g>
</g>
<g>
</g>
<g>
</g>
</svg>
