<?xml version="1.0" encoding="iso-8859-1"?>
<!-- Generator: Adobe Illustrator 19.0.0, SVG Export Plug-In . SVG Version: 6.00 Build 0)  -->
<svg version="1.1" id="Capa_1" xmlns="http://www.w3.org/2000/svg" xmlns:xlink="http://www.w3.org/1999/xlink" x="0px" y="0px"
	 viewBox="0 0 187.734 187.734" style="enable-background:new 0 0 187.734 187.734;" xml:space="preserve">
<g>
	<g>
		<path d="M124.587,0C92.591,0,66.56,26.03,66.56,58.027c0,2.654,0.179,5.316,0.532,7.91c0.256,1.867,1.958,3.144,3.847,2.92
			c1.867-0.256,3.173-1.976,2.92-3.847c-0.312-2.287-0.473-4.637-0.473-6.984c0-28.233,22.967-51.2,51.2-51.2
			c28.233,0,51.2,22.967,51.2,51.2c0,28.233-22.967,51.2-51.2,51.2c-1.886,0-3.413,1.527-3.413,3.413
			c0,1.886,1.527,3.413,3.413,3.413c31.997,0,58.027-26.03,58.027-58.027C182.614,26.03,156.583,0,124.587,0z"/>
	</g>
</g>
<g>
	<g>
		<path d="M83.628,61.44c-24.467,0-44.373,19.907-44.373,44.373c0,3.11,0.323,6.219,0.963,9.233
			c0.393,1.843,2.217,3.026,4.047,2.633c1.847-0.393,3.024-2.203,2.633-4.047c-0.544-2.553-0.818-5.183-0.818-7.82
			c0-20.704,16.843-37.547,37.547-37.547c20.704,0,37.547,16.843,37.547,37.547s-16.843,37.547-37.547,37.547
			c-1.917,0-3.837-0.143-5.707-0.43c-1.9-0.294-3.606,0.997-3.89,2.857c-0.287,1.862,0.993,3.606,2.857,3.889
			c2.214,0.34,4.48,0.51,6.74,0.51c24.467,0,44.375-19.907,44.375-44.373C128.003,81.347,108.096,61.44,83.628,61.44z"/>
	</g>
</g>
<g>
	<g>
		<path d="M42.667,112.64c-20.704,0-37.547,16.843-37.547,37.547c0,20.704,16.843,37.547,37.547,37.547
			c20.704,0,37.547-16.843,37.547-37.547C80.214,129.483,63.37,112.64,42.667,112.64z M42.667,180.907
			c-16.94,0-30.72-13.78-30.72-30.72s13.78-30.72,30.72-30.72s30.72,13.78,30.72,30.72S59.607,180.907,42.667,180.907z"/>
	</g>
</g>
<g>
</g>
<g>
</g>
<g>
</g>
<g>
</g>
<g>
</g>
<g>
</g>
<g>
</g>
<g>
</g>
<g>
</g>
<g>
</g>
<g>
</g>
<g>
</g>
<g>
</g>
<g>
</g>
<g>
</g>
</svg>
