<?xml version="1.0" encoding="iso-8859-1"?>
<!-- Generator: Adobe Illustrator 19.0.0, SVG Export Plug-In . SVG Version: 6.00 Build 0)  -->
<svg version="1.1" id="Capa_1" xmlns="http://www.w3.org/2000/svg" xmlns:xlink="http://www.w3.org/1999/xlink" x="0px" y="0px"
	 viewBox="0 0 211.626 211.626" style="enable-background:new 0 0 211.626 211.626;" xml:space="preserve">
<g>
	<g>
		<path d="M208.213,56.32H3.413C1.527,56.32,0,57.847,0,59.733v122.88c0,1.886,1.527,3.413,3.413,3.413h204.8
			c1.886,0,3.413-1.527,3.413-3.413V59.733C211.627,57.847,210.099,56.32,208.213,56.32z M204.8,179.2H6.827V63.147H204.8V179.2z"/>
	</g>
</g>
<g>
	<g>
		<path d="M208.213,56.32H3.413C1.527,56.32,0,57.847,0,59.733c0,1.886,1.527,3.413,3.413,3.413h204.8
			c1.886,0,3.413-1.527,3.413-3.413C211.626,57.847,210.099,56.32,208.213,56.32z"/>
	</g>
</g>
<g>
	<g>
		<path d="M54.613,158.72H40.96c-1.886,0-3.413,1.527-3.413,3.413s1.527,3.413,3.413,3.413h13.653c1.886,0,3.413-1.527,3.413-3.413
			S56.499,158.72,54.613,158.72z"/>
	</g>
</g>
<g>
	<g>
		<path d="M51.2,73.387H37.547c-1.886,0-3.413,1.527-3.413,3.413s1.527,3.413,3.413,3.413H51.2c1.886,0,3.413-1.527,3.413-3.413
			S53.086,73.387,51.2,73.387z"/>
	</g>
</g>
<g>
	<g>
		<path d="M109.227,158.72H95.573c-1.886,0-3.413,1.527-3.413,3.413s1.527,3.413,3.413,3.413h13.653
			c1.886,0,3.413-1.527,3.413-3.413S111.113,158.72,109.227,158.72z"/>
	</g>
</g>
<g>
	<g>
		<path d="M81.92,158.72H68.267c-1.886,0-3.413,1.527-3.413,3.413s1.527,3.413,3.413,3.413H81.92c1.886,0,3.413-1.527,3.413-3.413
			S83.806,158.72,81.92,158.72z"/>
	</g>
</g>
<g>
	<g>
		<path d="M78.507,73.387H64.853c-1.886,0-3.413,1.527-3.413,3.413s1.527,3.413,3.413,3.413h13.654c1.886,0,3.413-1.527,3.413-3.413
			S80.393,73.387,78.507,73.387z"/>
	</g>
</g>
<g>
	<g>
		<path d="M23.893,73.387H20.48c-1.886,0-3.413,1.527-3.413,3.413v10.24c0,1.886,1.527,3.413,3.413,3.413
			c1.886,0,3.413-1.527,3.413-3.413v-6.827c1.886,0,3.413-1.527,3.413-3.413S25.779,73.387,23.893,73.387z"/>
	</g>
</g>
<g>
	<g>
		<path d="M20.48,97.281c-1.886,0-3.413,1.527-3.413,3.413v13.653c0,1.886,1.527,3.413,3.413,3.413c1.886,0,3.413-1.527,3.413-3.413
			v-13.653C23.893,98.808,22.366,97.281,20.48,97.281z"/>
	</g>
</g>
<g>
	<g>
		<path d="M27.307,158.72h-3.413v-3.413c0-1.886-1.527-3.413-3.413-3.413c-1.886,0-3.413,1.527-3.413,3.413v6.827
			c0,1.886,1.527,3.413,3.413,3.413h6.827c1.886,0,3.413-1.527,3.413-3.413C30.721,160.248,29.193,158.72,27.307,158.72z"/>
	</g>
</g>
<g>
	<g>
		<path d="M20.48,124.587c-1.886,0-3.413,1.528-3.413,3.413v13.653c0,1.886,1.527,3.414,3.413,3.414
			c1.886,0,3.413-1.527,3.413-3.413V128C23.893,126.114,22.366,124.587,20.48,124.587z"/>
	</g>
</g>
<g>
	<g>
		<path d="M105.813,73.387H92.16c-1.886,0-3.413,1.527-3.413,3.413s1.527,3.413,3.413,3.413h13.653c1.886,0,3.413-1.527,3.413-3.413
			S107.699,73.387,105.813,73.387z"/>
	</g>
</g>
<g>
	<g>
		<path d="M191.147,110.933c-1.886,0-3.413,1.527-3.413,3.413V128c0,1.886,1.528,3.413,3.413,3.413c1.886,0,3.413-1.528,3.413-3.413
			v-13.653C194.56,112.461,193.033,110.933,191.147,110.933z"/>
	</g>
</g>
<g>
	<g>
		<path d="M191.147,138.24c-1.886,0-3.413,1.527-3.413,3.413v13.653c0,1.886,1.528,3.413,3.413,3.413
			c1.886,0,3.413-1.527,3.413-3.413v-13.653C194.56,139.768,193.033,138.24,191.147,138.24z"/>
	</g>
</g>
<g>
	<g>
		<path d="M191.147,83.627c-1.886,0-3.413,1.527-3.413,3.413v13.653c0,1.886,1.528,3.413,3.413,3.413
			c1.886,0,3.413-1.527,3.413-3.413V87.04C194.56,85.154,193.033,83.627,191.147,83.627z"/>
	</g>
</g>
<g>
	<g>
		<path d="M191.146,158.72h-13.653c-1.886,0-3.413,1.528-3.413,3.413c0,1.886,1.527,3.413,3.413,3.413h13.653
			c1.886,0,3.413-1.527,3.413-3.413S193.031,158.72,191.146,158.72z"/>
	</g>
</g>
<g>
	<g>
		<path d="M160.427,73.387h-13.653c-1.886,0-3.413,1.527-3.413,3.413s1.527,3.413,3.413,3.413h13.653
			c1.886,0,3.413-1.527,3.413-3.413S162.313,73.387,160.427,73.387z"/>
	</g>
</g>
<g>
	<g>
		<path d="M136.533,158.72H122.88c-1.886,0-3.413,1.527-3.413,3.413s1.527,3.413,3.413,3.413h13.653
			c1.886,0,3.413-1.527,3.413-3.413S138.419,158.72,136.533,158.72z"/>
	</g>
</g>
<g>
	<g>
		<path d="M133.12,73.387h-13.653c-1.886,0-3.413,1.527-3.413,3.413s1.527,3.413,3.413,3.413h13.653
			c1.886,0,3.413-1.527,3.413-3.413S135.005,73.387,133.12,73.387z"/>
	</g>
</g>
<g>
	<g>
		<path d="M163.84,158.72h-13.653c-1.886,0-3.413,1.527-3.413,3.413s1.527,3.413,3.413,3.413h13.653
			c1.886,0,3.413-1.527,3.413-3.413S165.726,158.72,163.84,158.72z"/>
	</g>
</g>
<g>
	<g>
		<path d="M187.733,73.387H174.08c-1.886,0-3.413,1.527-3.413,3.413s1.527,3.413,3.413,3.413h13.653
			c1.886,0,3.413-1.527,3.413-3.413S189.619,73.387,187.733,73.387z"/>
	</g>
</g>
<g>
	<g>
		<path d="M93.169,133.385l-21.97-24.716c-0.643-0.724-1.56-1.14-2.529-1.147c-0.007,0-0.014,0-0.02,0
			c-0.961,0-1.877,0.403-2.524,1.113l-31.101,34.133c-0.911,1-1.147,2.444-0.601,3.68c0.546,1.236,1.77,2.033,3.123,2.033H81.92
			c1.886,0,3.413-1.527,3.413-3.413s-1.527-3.413-3.413-3.413H45.273L68.62,116.04l19.449,21.879
			c1.249,1.41,3.407,1.536,4.816,0.283C94.295,136.951,94.421,134.791,93.169,133.385z"/>
	</g>
</g>
<g>
	<g>
		<path d="M179.922,142.667L132.726,94.88c-0.637-0.643-1.504-1.007-2.41-1.014c-0.007,0-0.014,0-0.021,0
			c-0.896,0-1.76,0.353-2.4,0.983l-48.377,47.787c-0.983,0.975-1.283,2.447-0.756,3.727c0.527,1.28,1.773,2.116,3.157,2.116h95.573
			c1.377,0,2.62-0.826,3.149-2.096C181.171,145.114,180.888,143.647,179.922,142.667z M90.233,141.653l40.033-39.547l39.057,39.547
			H90.233z"/>
	</g>
</g>
<g>
	<g>
		<path d="M81.92,35.84H68.267c-1.886,0-3.413,1.527-3.413,3.413s1.527,3.413,3.413,3.413H81.92c1.886,0,3.413-1.527,3.413-3.413
			S83.806,35.84,81.92,35.84z"/>
	</g>
</g>
<g>
	<g>
		<path d="M47.787,35.84H34.133c-1.886,0-3.413,1.527-3.413,3.413s1.527,3.413,3.413,3.413h13.653c1.886,0,3.413-1.527,3.413-3.413
			S49.673,35.84,47.787,35.84z"/>
	</g>
</g>
<g>
	<g>
		<path d="M13.653,35.84H3.413C1.527,35.84,0,37.368,0,39.253v20.48c0,1.886,1.527,3.413,3.413,3.413
			c1.886,0,3.413-1.527,3.413-3.413V42.667h6.827c1.886,0,3.413-1.527,3.413-3.413C17.066,37.368,15.539,35.84,13.653,35.84z"/>
	</g>
</g>
<g>
	<g>
		<path d="M208.213,35.84H102.659c-1.886,0-3.413,1.527-3.413,3.413s1.528,3.413,3.413,3.413H204.8v17.067
			c0,1.886,1.527,3.413,3.413,3.413s3.413-1.527,3.413-3.413v-20.48C211.627,37.368,210.099,35.84,208.213,35.84z"/>
	</g>
</g>
<g>
	<g>
		<path d="M23.893,25.6c-7.53,0-13.653,6.123-13.653,13.653c0,7.53,6.123,13.653,13.653,13.653c7.53,0,13.653-6.123,13.653-13.653
			C37.546,31.723,31.423,25.6,23.893,25.6z M23.893,46.08c-3.763,0-6.827-3.063-6.827-6.827c0-3.764,3.063-6.827,6.827-6.827
			c3.763,0,6.827,3.063,6.827,6.827C30.72,43.017,27.657,46.08,23.893,46.08z"/>
	</g>
</g>
<g>
	<g>
		<path d="M58.027,25.6c-7.53,0-13.653,6.123-13.653,13.653c0,7.53,6.124,13.653,13.653,13.653c7.53,0,13.653-6.123,13.653-13.653
			C71.68,31.723,65.557,25.6,58.027,25.6z M58.027,46.08c-3.763,0-6.827-3.063-6.827-6.827c0-3.764,3.063-6.827,6.827-6.827
			c3.763,0,6.827,3.063,6.827,6.827C64.854,43.017,61.79,46.08,58.027,46.08z"/>
	</g>
</g>
<g>
	<g>
		<path d="M92.16,25.6c-7.53,0-13.653,6.123-13.653,13.653c0,7.53,6.123,13.654,13.653,13.654c7.53,0,13.653-6.123,13.653-13.653
			C105.813,31.724,99.69,25.6,92.16,25.6z M92.16,46.08c-3.763,0-6.827-3.063-6.827-6.827c0-3.764,3.063-6.827,6.827-6.827
			c3.764,0,6.827,3.063,6.827,6.827C98.987,43.017,95.923,46.08,92.16,46.08z"/>
	</g>
</g>
<g>
</g>
<g>
</g>
<g>
</g>
<g>
</g>
<g>
</g>
<g>
</g>
<g>
</g>
<g>
</g>
<g>
</g>
<g>
</g>
<g>
</g>
<g>
</g>
<g>
</g>
<g>
</g>
<g>
</g>
</svg>
