<?xml version="1.0" encoding="iso-8859-1"?>
<!-- Generator: Adobe Illustrator 19.0.0, SVG Export Plug-In . SVG Version: 6.00 Build 0)  -->
<svg version="1.1" id="Capa_1" xmlns="http://www.w3.org/2000/svg" xmlns:xlink="http://www.w3.org/1999/xlink" x="0px" y="0px"
	 viewBox="0 0 211.626 211.626" style="enable-background:new 0 0 211.626 211.626;" xml:space="preserve">
<g>
	<g>
		<path d="M208.213,39.253H3.413C1.527,39.253,0,40.783,0,42.667V199.68c0,1.884,1.527,3.413,3.413,3.413h204.8
			c1.886,0,3.413-1.529,3.413-3.413V42.667C211.627,40.783,210.099,39.253,208.213,39.253z M204.8,196.267H6.827V46.08H204.8
			V196.267z"/>
	</g>
</g>
<g>
	<g>
		<path d="M174.08,39.253H37.547c-1.886,0-3.413,1.529-3.413,3.413V199.68c0,1.884,1.527,3.413,3.413,3.413H174.08
			c1.886,0,3.413-1.529,3.413-3.413V42.667C177.493,40.783,175.966,39.253,174.08,39.253z M170.667,196.267H40.96V46.08h129.707
			V196.267z"/>
	</g>
</g>
<g>
	<g>
		<path d="M129.707,49.493h-81.92c-1.886,0-3.413,1.529-3.413,3.413v27.307c0,1.884,1.527,3.413,3.413,3.413h81.92
			c1.886,0,3.413-1.529,3.413-3.413V52.907C133.12,51.023,131.593,49.493,129.707,49.493z M126.293,76.8H51.2V56.32h75.093V76.8z"/>
	</g>
</g>
<g>
	<g>
		<path d="M75.093,87.04H47.787c-1.886,0-3.413,1.529-3.413,3.413c0,1.884,1.527,3.413,3.413,3.413h27.307
			c1.886,0,3.413-1.529,3.413-3.413C78.507,88.569,76.979,87.04,75.093,87.04z"/>
	</g>
</g>
<g>
	<g>
		<path d="M75.093,100.693H47.787c-1.886,0-3.413,1.529-3.413,3.413c0,1.884,1.527,3.413,3.413,3.413h27.307
			c1.886,0,3.413-1.529,3.413-3.413C78.507,102.222,76.979,100.693,75.093,100.693z"/>
	</g>
</g>
<g>
	<g>
		<path d="M75.093,168.96H47.787c-1.886,0-3.413,1.529-3.413,3.413s1.527,3.413,3.413,3.413h27.307c1.886,0,3.413-1.529,3.413-3.413
			S76.979,168.96,75.093,168.96z"/>
	</g>
</g>
<g>
	<g>
		<path d="M75.093,182.613H47.787c-1.886,0-3.413,1.529-3.413,3.413s1.527,3.413,3.413,3.413h27.307
			c1.886,0,3.413-1.529,3.413-3.413C78.507,184.143,76.979,182.613,75.093,182.613z"/>
	</g>
</g>
<g>
	<g>
		<path d="M126.293,87.04H88.747c-1.886,0-3.413,1.529-3.413,3.413v51.2c0,1.884,1.527,3.413,3.413,3.413h37.547
			c1.886,0,3.413-1.529,3.413-3.413v-51.2C129.707,88.569,128.179,87.04,126.293,87.04z M122.88,138.24H92.16V93.867h30.72V138.24z"
			/>
	</g>
</g>
<g>
	<g>
		<path d="M126.293,151.893H88.747c-1.886,0-3.413,1.529-3.413,3.413v30.72c0,1.884,1.527,3.413,3.413,3.413h37.547
			c1.886,0,3.413-1.529,3.413-3.413v-30.72C129.707,153.423,128.179,151.893,126.293,151.893z M122.88,182.613H92.16V158.72h30.72
			V182.613z"/>
	</g>
</g>
<g>
	<g>
		<path d="M75.093,114.347H47.787c-1.886,0-3.413,1.529-3.413,3.413v40.96c0,1.884,1.527,3.413,3.413,3.413h27.307
			c1.886,0,3.413-1.529,3.413-3.413v-40.96C78.507,115.876,76.979,114.347,75.093,114.347z M71.68,155.307H51.2v-34.133h20.48
			V155.307z"/>
	</g>
</g>
<g>
	<g>
		<path d="M174.08,39.253h-34.133c-1.886,0-3.413,1.529-3.413,3.413V199.68c0,1.884,1.527,3.413,3.413,3.413h34.133
			c1.886,0,3.413-1.529,3.413-3.413V42.667C177.493,40.783,175.966,39.253,174.08,39.253z M170.667,196.267H143.36V46.08h27.307
			V196.267z"/>
	</g>
</g>
<g>
	<g>
		<path d="M163.84,56.32h-13.653c-1.886,0-3.413,1.529-3.413,3.413c0,1.884,1.527,3.413,3.413,3.413h13.653
			c1.886,0,3.413-1.529,3.413-3.413C167.253,57.849,165.726,56.32,163.84,56.32z"/>
	</g>
</g>
<g>
	<g>
		<path d="M163.84,69.973h-13.653c-1.886,0-3.413,1.529-3.413,3.413c0,1.884,1.527,3.413,3.413,3.413h13.653
			c1.886,0,3.413-1.529,3.413-3.413C167.253,71.503,165.726,69.973,163.84,69.973z"/>
	</g>
</g>
<g>
	<g>
		<path d="M163.84,83.627h-13.653c-1.886,0-3.413,1.529-3.413,3.413c0,1.884,1.527,3.413,3.413,3.413h13.653
			c1.886,0,3.413-1.529,3.413-3.413C167.253,85.156,165.726,83.627,163.84,83.627z"/>
	</g>
</g>
<g>
	<g>
		<path d="M163.84,97.28h-13.653c-1.886,0-3.413,1.529-3.413,3.413c0,1.884,1.527,3.413,3.413,3.413h13.653
			c1.886,0,3.413-1.529,3.413-3.413C167.253,98.809,165.726,97.28,163.84,97.28z"/>
	</g>
</g>
<g>
	<g>
		<path d="M163.84,110.933h-13.653c-1.886,0-3.413,1.529-3.413,3.413c0,1.884,1.527,3.413,3.413,3.413h13.653
			c1.886,0,3.413-1.529,3.413-3.413C167.253,112.462,165.726,110.933,163.84,110.933z"/>
	</g>
</g>
<g>
	<g>
		<path d="M163.84,124.587h-13.653c-1.886,0-3.413,1.529-3.413,3.413c0,1.884,1.527,3.413,3.413,3.413h13.653
			c1.886,0,3.413-1.529,3.413-3.413C167.253,126.116,165.726,124.587,163.84,124.587z"/>
	</g>
</g>
<g>
	<g>
		<path d="M163.84,138.24h-13.653c-1.886,0-3.413,1.529-3.413,3.413c0,1.884,1.527,3.413,3.413,3.413h13.653
			c1.886,0,3.413-1.529,3.413-3.413C167.253,139.769,165.726,138.24,163.84,138.24z"/>
	</g>
</g>
<g>
	<g>
		<path d="M163.84,151.893h-13.653c-1.886,0-3.413,1.529-3.413,3.413c0,1.884,1.527,3.413,3.413,3.413h13.653
			c1.886,0,3.413-1.529,3.413-3.413C167.253,153.422,165.726,151.893,163.84,151.893z"/>
	</g>
</g>
<g>
	<g>
		<path d="M163.84,165.547h-13.653c-1.886,0-3.413,1.529-3.413,3.413c0,1.884,1.527,3.413,3.413,3.413h13.653
			c1.886,0,3.413-1.529,3.413-3.413C167.253,167.076,165.726,165.547,163.84,165.547z"/>
	</g>
</g>
<g>
	<g>
		<path d="M163.84,179.2h-13.653c-1.886,0-3.413,1.529-3.413,3.413c0,1.884,1.527,3.413,3.413,3.413h13.653
			c1.886,0,3.413-1.529,3.413-3.413S165.726,179.2,163.84,179.2z"/>
	</g>
</g>
<g>
	<g>
		<path d="M81.92,18.773H68.267c-1.886,0-3.413,1.529-3.413,3.413c0,1.884,1.527,3.413,3.413,3.413H81.92
			c1.886,0,3.413-1.529,3.413-3.413C85.333,20.302,83.806,18.773,81.92,18.773z"/>
	</g>
</g>
<g>
	<g>
		<path d="M47.787,18.773H34.133c-1.886,0-3.413,1.529-3.413,3.413c0,1.884,1.527,3.413,3.413,3.413h13.653
			c1.886,0,3.413-1.529,3.413-3.413C51.199,20.302,49.673,18.773,47.787,18.773z"/>
	</g>
</g>
<g>
	<g>
		<path d="M13.653,18.773H3.413C1.527,18.773,0,20.303,0,22.187v20.48c0,1.884,1.527,3.413,3.413,3.413
			c1.886,0,3.413-1.529,3.413-3.413V25.6h6.827c1.886,0,3.413-1.529,3.413-3.413C17.066,20.303,15.539,18.773,13.653,18.773z"/>
	</g>
</g>
<g>
	<g>
		<path d="M208.213,18.773H102.659c-1.886,0-3.413,1.529-3.413,3.413c0,1.884,1.528,3.413,3.413,3.413H204.8v17.067
			c0,1.884,1.527,3.413,3.413,3.413s3.413-1.529,3.413-3.413v-20.48C211.627,20.303,210.099,18.773,208.213,18.773z"/>
	</g>
</g>
<g>
	<g>
		<path d="M23.893,8.533c-7.53,0-13.653,6.125-13.653,13.653c0,7.528,6.123,13.653,13.653,13.653c7.53,0,13.653-6.125,13.653-13.653
			C37.547,14.659,31.423,8.533,23.893,8.533z M23.893,29.013c-3.763,0-6.827-3.062-6.827-6.827c0-3.765,3.063-6.827,6.827-6.827
			c3.763,0,6.827,3.062,6.827,6.827C30.72,25.952,27.657,29.013,23.893,29.013z"/>
	</g>
</g>
<g>
	<g>
		<path d="M58.027,8.533c-7.53,0-13.653,6.125-13.653,13.653c0,7.528,6.124,13.653,13.653,13.653c7.53,0,13.653-6.125,13.653-13.653
			C71.68,14.659,65.557,8.533,58.027,8.533z M58.027,29.013c-3.763,0-6.827-3.062-6.827-6.827c0-3.765,3.063-6.827,6.827-6.827
			c3.763,0,6.827,3.062,6.827,6.827C64.853,25.952,61.79,29.013,58.027,29.013z"/>
	</g>
</g>
<g>
	<g>
		<path d="M92.16,8.533c-7.53,0-13.653,6.125-13.653,13.653c0,7.528,6.123,13.653,13.653,13.653c7.53,0,13.653-6.125,13.653-13.653
			C105.813,14.659,99.69,8.533,92.16,8.533z M92.16,29.013c-3.763,0-6.827-3.062-6.827-6.827c0-3.765,3.063-6.827,6.827-6.827
			c3.764,0,6.827,3.062,6.827,6.827C98.987,25.952,95.923,29.013,92.16,29.013z"/>
	</g>
</g>
<g>
</g>
<g>
</g>
<g>
</g>
<g>
</g>
<g>
</g>
<g>
</g>
<g>
</g>
<g>
</g>
<g>
</g>
<g>
</g>
<g>
</g>
<g>
</g>
<g>
</g>
<g>
</g>
<g>
</g>
</svg>
