<?xml version="1.0" encoding="iso-8859-1"?>
<!-- Generator: Adobe Illustrator 19.0.0, SVG Export Plug-In . SVG Version: 6.00 Build 0)  -->
<svg version="1.1" id="Capa_1" xmlns="http://www.w3.org/2000/svg" xmlns:xlink="http://www.w3.org/1999/xlink" x="0px" y="0px"
	 viewBox="0 0 211.626 211.626" style="enable-background:new 0 0 211.626 211.626;" xml:space="preserve">
<g>
	<g>
		<path d="M208.213,56.32H3.413C1.529,56.32,0,57.849,0,59.733v122.88c0,1.884,1.529,3.413,3.413,3.413h204.8
			c1.884,0,3.413-1.529,3.413-3.413V59.733C211.627,57.849,210.098,56.32,208.213,56.32z M204.8,179.2H6.827V63.147H204.8V179.2z"/>
	</g>
</g>
<g>
	<g>
		<path d="M208.213,56.32H3.413C1.529,56.32,0,57.849,0,59.733c0,1.884,1.529,3.413,3.413,3.413h204.8
			c1.884,0,3.413-1.529,3.413-3.413C211.626,57.849,210.098,56.32,208.213,56.32z"/>
	</g>
</g>
<g>
	<g>
		<path d="M75.59,128H6.827v-13.653h68.762c1.884,0,3.413-1.529,3.413-3.413c0-1.884-1.529-3.413-3.413-3.413H3.413
			c-1.884,0-3.413,1.529-3.413,3.413v20.48c0,1.884,1.529,3.413,3.413,3.413H75.59c1.886,0,3.413-1.529,3.413-3.413
			C79.003,129.529,77.474,128,75.59,128z"/>
	</g>
</g>
<g>
	<g>
		<path d="M208.213,107.52h-72.808c-1.884,0-3.413,1.529-3.413,3.413c0,1.884,1.529,3.413,3.413,3.413H204.8V128h-69.789
			c-1.884,0-3.413,1.529-3.413,3.413c0,1.884,1.529,3.413,3.413,3.413h73.202c1.884,0,3.413-1.529,3.413-3.413v-20.48
			C211.627,109.049,210.098,107.52,208.213,107.52z"/>
	</g>
</g>
<g>
	<g>
		<path d="M105.813,87.04c-18.821,0-34.133,15.312-34.133,34.133c0,18.821,15.312,34.133,34.133,34.133
			c18.821,0,34.133-15.312,34.133-34.133C139.947,102.352,124.634,87.04,105.813,87.04z M105.813,148.48
			c-15.056,0-27.307-12.25-27.307-27.307c0-15.056,12.25-27.307,27.307-27.307s27.307,12.25,27.307,27.307
			S120.87,148.48,105.813,148.48z"/>
	</g>
</g>
<g>
	<g>
		<path d="M133.408,112.712c-1.026-3.154-3.831-5.19-7.146-5.19h-9.414c-0.299,0-0.56-0.189-0.652-0.473l-2.908-8.953
			c-1.026-3.154-3.828-5.19-7.146-5.19s-6.12,2.036-7.146,5.19l-2.908,8.953c-0.092,0.283-0.353,0.473-0.652,0.473h-9.414
			c-3.316,0-6.12,2.036-7.146,5.19c-1.022,3.154,0.048,6.45,2.729,8.4l7.619,5.533c0.241,0.174,0.34,0.481,0.247,0.765l-2.908,8.953
			c-1.022,3.154,0.048,6.448,2.729,8.399c2.681,1.944,6.147,1.947,8.832,0l7.613-5.533c0.242-0.177,0.565-0.177,0.807,0l7.617,5.533
			c1.341,0.973,2.879,1.461,4.415,1.461c1.538,0,3.075-0.488,4.415-1.461c2.683-1.951,3.753-5.245,2.729-8.399l-2.908-8.953
			c-0.09-0.283,0.007-0.589,0.249-0.765l7.617-5.535C133.362,119.161,134.432,115.866,133.408,112.712z M126.672,115.586
			l-7.615,5.533c-2.642,1.918-3.739,5.292-2.731,8.399l2.908,8.953c0.041,0.128,0.152,0.471-0.249,0.765
			c-0.403,0.297-0.696,0.082-0.806,0l-7.617-5.531c-2.639-1.918-6.187-1.92-8.832-0.002l-7.615,5.533
			c-0.107,0.082-0.399,0.297-0.806,0c-0.403-0.294-0.29-0.637-0.249-0.765l2.908-8.953c1.007-3.106-0.089-6.48-2.729-8.399
			l-7.617-5.531c-0.111-0.082-0.404-0.294-0.249-0.768c0.154-0.473,0.515-0.473,0.652-0.473h9.417c3.267,0,6.137-2.087,7.146-5.19
			l2.908-8.953c0.043-0.13,0.154-0.473,0.652-0.473s0.611,0.343,0.652,0.473l2.908,8.953c1.009,3.103,3.881,5.19,7.146,5.19h9.414
			c0.137,0,0.498,0,0.652,0.473C127.075,115.294,126.781,115.506,126.672,115.586z"/>
	</g>
</g>
<g>
	<g>
		<path d="M81.92,35.84H68.268c-1.884,0-3.413,1.529-3.413,3.413c0,1.884,1.529,3.413,3.413,3.413H81.92
			c1.884,0,3.413-1.529,3.413-3.413C85.333,37.369,83.804,35.84,81.92,35.84z"/>
	</g>
</g>
<g>
	<g>
		<path d="M47.787,35.84H34.133c-1.884,0-3.413,1.529-3.413,3.413c0,1.884,1.529,3.413,3.413,3.413h13.653
			c1.884,0,3.413-1.529,3.413-3.413C51.199,37.369,49.671,35.84,47.787,35.84z"/>
	</g>
</g>
<g>
	<g>
		<path d="M13.653,35.84H3.413C1.529,35.84,0,37.369,0,39.253v20.48c0,1.884,1.529,3.413,3.413,3.413
			c1.884,0,3.413-1.529,3.413-3.413V42.667h6.827c1.884,0,3.413-1.529,3.413-3.413C17.066,37.37,15.538,35.84,13.653,35.84z"/>
	</g>
</g>
<g>
	<g>
		<path d="M208.213,35.84H102.661c-1.884,0-3.413,1.529-3.413,3.413c0,1.884,1.529,3.413,3.413,3.413H204.8v17.067
			c0,1.884,1.529,3.413,3.413,3.413s3.413-1.529,3.413-3.413v-20.48C211.627,37.369,210.098,35.84,208.213,35.84z"/>
	</g>
</g>
<g>
	<g>
		<path d="M23.893,25.6c-7.528,0-13.653,6.125-13.653,13.653s6.125,13.653,13.653,13.653s13.653-6.125,13.653-13.653
			S31.421,25.6,23.893,25.6z M23.893,46.08c-3.765,0-6.827-3.062-6.827-6.827s3.062-6.827,6.827-6.827s6.827,3.062,6.827,6.827
			S27.658,46.08,23.893,46.08z"/>
	</g>
</g>
<g>
	<g>
		<path d="M58.027,25.6c-7.528,0-13.653,6.125-13.653,13.653s6.125,13.653,13.653,13.653c7.528,0,13.653-6.125,13.653-13.653
			S65.555,25.6,58.027,25.6z M58.027,46.08c-3.765,0-6.827-3.062-6.827-6.827s3.062-6.827,6.827-6.827
			c3.765,0,6.827,3.062,6.827,6.827S61.792,46.08,58.027,46.08z"/>
	</g>
</g>
<g>
	<g>
		<path d="M92.16,25.6c-7.528,0-13.653,6.125-13.653,13.653s6.125,13.653,13.653,13.653c7.528,0,13.653-6.125,13.653-13.653
			S99.688,25.6,92.16,25.6z M92.16,46.08c-3.765,0-6.827-3.062-6.827-6.827s3.062-6.827,6.827-6.827
			c3.765,0,6.827,3.062,6.827,6.827S95.925,46.08,92.16,46.08z"/>
	</g>
</g>
<g>
</g>
<g>
</g>
<g>
</g>
<g>
</g>
<g>
</g>
<g>
</g>
<g>
</g>
<g>
</g>
<g>
</g>
<g>
</g>
<g>
</g>
<g>
</g>
<g>
</g>
<g>
</g>
<g>
</g>
</svg>
