<?xml version="1.0" encoding="iso-8859-1"?>
<!-- Generator: Adobe Illustrator 19.0.0, SVG Export Plug-In . SVG Version: 6.00 Build 0)  -->
<svg version="1.1" id="Capa_1" xmlns="http://www.w3.org/2000/svg" xmlns:xlink="http://www.w3.org/1999/xlink" x="0px" y="0px"
	 viewBox="0 0 191.147 191.147" style="enable-background:new 0 0 191.147 191.147;" xml:space="preserve">
<g>
	<g>
		<path d="M180.907,3.414H10.24C4.593,3.414,0,8.006,0,13.654c0,5.647,4.593,10.24,10.24,10.24h170.667
			c5.647,0,10.24-4.593,10.24-10.24C191.147,8.006,186.554,3.414,180.907,3.414z M180.907,17.068H10.24
			c-1.884,0-3.413-1.529-3.413-3.413c0-1.884,1.529-3.413,3.413-3.413h170.667c1.884,0,3.413,1.529,3.413,3.413
			C184.32,15.539,182.791,17.068,180.907,17.068z"/>
	</g>
</g>
<g>
	<g>
		<path d="M75.093,30.72H58.027c-5.647,0-10.24,4.593-10.24,10.24v136.533c0,5.647,4.593,10.24,10.24,10.24h17.067
			c5.647,0,10.24-4.593,10.24-10.24V40.961C85.333,35.313,80.741,30.72,75.093,30.72z M78.507,177.493
			c0,1.884-1.529,3.413-3.413,3.413H58.027c-1.884,0-3.413-1.529-3.413-3.413V40.961c0-1.884,1.529-3.413,3.413-3.413h17.067
			c1.884,0,3.413,1.529,3.413,3.413V177.493z"/>
	</g>
</g>
<g>
	<g>
		<path d="M129.707,30.72H112.64c-5.647,0-10.24,4.593-10.24,10.24v68.267c0,5.647,4.593,10.24,10.24,10.24h17.067
			c5.647,0,10.24-4.593,10.24-10.24V40.961C139.947,35.313,135.354,30.72,129.707,30.72z M133.12,109.228
			c0,1.884-1.529,3.413-3.413,3.413H112.64c-1.884,0-3.413-1.529-3.413-3.413V40.961c0-1.884,1.529-3.413,3.413-3.413h17.067
			c1.884,0,3.413,1.529,3.413,3.413V109.228z"/>
	</g>
</g>
<g>
</g>
<g>
</g>
<g>
</g>
<g>
</g>
<g>
</g>
<g>
</g>
<g>
</g>
<g>
</g>
<g>
</g>
<g>
</g>
<g>
</g>
<g>
</g>
<g>
</g>
<g>
</g>
<g>
</g>
</svg>
