<?xml version="1.0" encoding="iso-8859-1"?>
<!-- Generator: Adobe Illustrator 19.0.0, SVG Export Plug-In . SVG Version: 6.00 Build 0)  -->
<svg version="1.1" id="Capa_1" xmlns="http://www.w3.org/2000/svg" xmlns:xlink="http://www.w3.org/1999/xlink" x="0px" y="0px"
	 viewBox="0 0 197.973 197.973" style="enable-background:new 0 0 197.973 197.973;" xml:space="preserve">
<g>
	<g>
		<path d="M37.547,0H3.413C1.527,0,0,1.527,0,3.413V37.08c0,1.886,1.527,3.413,3.413,3.413c1.886,0,3.413-1.527,3.413-3.413V6.827
			h30.72c1.886,0,3.413-1.527,3.413-3.413C40.96,1.527,39.432,0,37.547,0z"/>
	</g>
</g>
<g>
	<g>
		<path d="M194.56,0h-34.133c-1.886,0-3.413,1.527-3.413,3.413c0,1.886,1.527,3.413,3.413,3.413h30.72V37.08
			c0,1.886,1.527,3.413,3.413,3.413s3.413-1.527,3.413-3.413V3.413C197.973,1.527,196.446,0,194.56,0z"/>
	</g>
</g>
<g>
	<g>
		<path d="M37.547,191.147H6.827v-30.72c0-1.886-1.527-3.413-3.413-3.413s-3.413,1.527-3.413,3.413v34.133
			c0,1.886,1.527,3.413,3.413,3.413h34.133c1.886,0,3.413-1.527,3.413-3.413S39.432,191.147,37.547,191.147z"/>
	</g>
</g>
<g>
	<g>
		<path d="M194.56,157.013c-1.886,0-3.413,1.527-3.413,3.413v30.72h-30.72c-1.886,0-3.413,1.527-3.413,3.413
			c0,1.886,1.527,3.413,3.413,3.413h34.133c1.886,0,3.413-1.527,3.413-3.413v-34.133
			C197.973,158.541,196.446,157.013,194.56,157.013z"/>
	</g>
</g>
<g>
	<g>
		<path d="M157.013,88.747h-47.787V40.96c0-1.886-1.527-3.413-3.413-3.413H92.16c-1.886,0-3.413,1.527-3.413,3.413v47.787H40.96
			c-1.886,0-3.413,1.527-3.413,3.413v13.653c0,1.886,1.527,3.413,3.413,3.413h47.787v47.787c0,1.886,1.527,3.413,3.413,3.413h13.653
			c1.886,0,3.413-1.527,3.413-3.413v-47.787h47.787c1.886,0,3.413-1.527,3.413-3.413V92.16
			C160.427,90.274,158.899,88.747,157.013,88.747z M153.6,102.4h-47.787c-1.886,0-3.413,1.527-3.413,3.413V153.6h-6.827v-47.787
			c0-1.886-1.527-3.413-3.413-3.413H44.373v-6.827H92.16c1.886,0,3.413-1.527,3.413-3.413V44.373h6.827V92.16
			c0,1.886,1.527,3.413,3.413,3.413H153.6V102.4z"/>
	</g>
</g>
<g>
</g>
<g>
</g>
<g>
</g>
<g>
</g>
<g>
</g>
<g>
</g>
<g>
</g>
<g>
</g>
<g>
</g>
<g>
</g>
<g>
</g>
<g>
</g>
<g>
</g>
<g>
</g>
<g>
</g>
</svg>
