<svg id="calendar" enable-background="new 0 0 300 300" height="512" viewBox="0 0 300 300" width="512" xmlns="http://www.w3.org/2000/svg"><g><path d="m227.613 66h-31.613v-8c0-2.209-1.789-4-4-4s-4 1.791-4 4v8h-48v-8c0-2.209-1.789-4-4-4s-4 1.791-4 4v8h-31.613c-20.063 0-36.387 16.322-36.387 36.387v123.227c0 2.893.375 5.694 1.016 8.394-2.843 1.861-6.056 3.21-9.583 3.716-1.972.28-3.433 2.286-3.433 4.276 0 2.209 1.789 4 4 4h14.265c6.551 9.648 17.607 16 30.121 16h127.227c20.063 0 36.387-16.322 36.387-36.387v-123.226c0-20.065-16.324-36.387-36.387-36.387zm-152.728 172c-.195-.4-.404-.792-.58-1.202 5.979-5.858 9.695-13.971 9.695-22.798v-60h160v66.932c0 9.412-7.656 17.068-17.07 17.068zm181.115-12.387c0 15.653-12.734 28.387-28.387 28.387h-127.226c-7.654 0-14.596-3.058-19.707-8h146.25c13.824 0 25.07-11.246 25.07-25.068v-70.932c0-2.209-1.789-4-4-4h-168c-2.211 0-4 1.791-4 4v64c0 4.749-1.471 9.198-3.931 12.976-.022-.455-.069-.902-.069-1.362v-123.227c0-15.653 12.734-28.387 28.387-28.387h31.613v5.11c-2.381 1.386-4 3.937-4 6.89 0 4.418 3.582 8 8 8s8-3.582 8-8c0-2.954-1.619-5.505-4-6.89v-5.11h48v5.11c-2.381 1.386-4 3.937-4 6.89 0 4.418 3.582 8 8 8s8-3.582 8-8c0-2.954-1.619-5.505-4-6.89v-5.11h31.613c15.653 0 28.387 12.734 28.387 28.387z"/><circle cx="40" cy="82" r="4"/><path d="m61.172 56.828c.781.781 1.805 1.172 2.828 1.172s2.047-.391 2.828-1.172l3.172-3.172 3.172 3.172c.781.781 1.805 1.172 2.828 1.172s2.047-.391 2.828-1.172c1.562-1.562 1.562-4.094 0-5.656l-3.172-3.172 3.172-3.172c1.562-1.562 1.562-4.094 0-5.656s-4.094-1.562-5.656 0l-3.172 3.172-3.172-3.172c-1.562-1.562-4.094-1.562-5.656 0s-1.562 4.094 0 5.656l3.172 3.172-3.172 3.172c-1.563 1.562-1.563 4.094 0 5.656z"/><path d="m204 106h-8v-4c0-2.209-1.789-4-4-4h-12c-2.211 0-4 1.791-4 4v8h-24v-8c0-2.209-1.789-4-4-4h-12c-2.211 0-4 1.791-4 4v4h-8c-2.211 0-4 1.791-4 4v20c0 2.209 1.789 4 4 4h8v4c0 2.209 1.789 4 4 4h12c2.211 0 4-1.791 4-4v-8h24v8c0 2.209 1.789 4 4 4h12c2.211 0 4-1.791 4-4v-4h8c2.211 0 4-1.791 4-4v-20c0-2.209-1.789-4-4-4zm-76 20v-12h4v12zm16 8h-4v-28h4zm8-12v-4h24v4zm36 12h-4v-28h4zm12-8h-4v-12h4z"/><path d="m228 166c0-2.209-1.789-4-4-4h-60c-2.211 0-4 1.791-4 4v16h-56c-2.211 0-4 1.791-4 4v40c0 2.209 1.789 4 4 4h120c2.211 0 4-1.791 4-4zm-8 16h-12v-12h12zm-40 8v12h-12v-12zm-20 12h-12v-12h12zm-20 0h-12v-12h12zm0 8v12h-12v-12zm8 0h12v12h-12zm20 0h12v12h-12zm20 0h12v12h-12zm0-8v-12h12v12zm0-20v-12h12v12zm20 8h12v12h-12zm-28-20v12h-12v-12zm-60 20v12h-12v-12zm-12 20h12v12h-12zm100 12v-12h12v12z"/></g></svg>