<svg id="calories" enable-background="new 0 0 300 300" height="512" viewBox="0 0 300 300" width="512" xmlns="http://www.w3.org/2000/svg"><g><path d="m51.632 91.02c-2.502 0-4.53 2.028-4.53 4.53s2.028 4.53 4.53 4.53c2.501 0 4.529-2.028 4.529-4.53s-2.027-4.53-4.529-4.53z"/><path d="m73.381 43.801c-1.562-1.562-4.094-1.562-5.656 0l-2.828 2.828-2.828-2.828c-1.562-1.562-4.094-1.562-5.656 0s-1.562 4.094 0 5.656l2.828 2.828-2.828 2.828c-1.562 1.562-1.562 4.094 0 5.656.781.781 1.805 1.172 2.828 1.172s2.047-.391 2.828-1.172l2.828-2.828 2.828 2.828c.781.781 1.805 1.172 2.828 1.172s2.047-.391 2.828-1.172c1.562-1.562 1.562-4.094 0-5.656l-2.828-2.828 2.828-2.828c1.563-1.562 1.563-4.094 0-5.656z"/><path d="m240.897 188.285c-6.617 0-12 5.383-12 12s5.383 12 12 12 12-5.383 12-12-5.383-12-12-12zm0 16c-2.205 0-4-1.795-4-4s1.795-4 4-4 4 1.795 4 4-1.795 4-4 4z"/><path d="m196.602 36h-87.41c-11.191 0-20.295 9.104-20.295 20.295v187.408c0 11.191 9.104 20.297 20.295 20.297h87.41c11.191 0 20.295-9.105 20.295-20.297v-187.408c0-11.191-9.103-20.295-20.295-20.295zm-24.177 8c-.947 2.341-3.236 4-5.913 4h-27.23c-2.677 0-4.966-1.659-5.913-4zm36.472 199.703c0 6.781-5.516 12.297-12.295 12.297h-87.41c-6.779 0-12.295-5.516-12.295-12.297v-187.408c0-6.779 5.516-12.295 12.295-12.295h15.946c1.145 6.794 7.029 12 14.144 12h27.23c7.115 0 12.999-5.206 14.144-12h15.946c6.779 0 12.295 5.516 12.295 12.295z"/><path d="m168.555 101.021c-3.816-.748-7.728-.624-11.558.311.977-13.954 8.766-17.1 9.218-17.27 2.061-.719 3.17-2.965 2.477-5.043-.699-2.094-2.953-3.232-5.061-2.529-.36.12-5.548 1.981-9.669 8.266-.604-2.391-1.555-4.709-2.911-6.863-4.01-6.373-10.676-10.404-18.287-11.059-1.77-.15-3.449.898-4.082 2.57-2.705 7.143-1.953 14.896 2.061 21.273 3.006 4.778 7.505 8.239 12.776 9.948-2.104-.095-4.208-.012-6.28.395-8.221 1.605-15.172 6.879-19.57 14.848-4.27 7.736-5.619 17.129-3.797 26.453s6.609 17.52 13.477 23.078c7.078 5.729 15.51 7.986 23.725 6.387.617-.121 1.225-.264 1.824-.426.6.162 1.207.305 1.826.426 1.725.338 3.457.504 5.186.504 6.51 0 12.945-2.365 18.537-6.891 6.867-5.559 11.654-13.754 13.477-23.078s.473-18.717-3.797-26.453c-4.4-7.968-11.351-13.241-19.572-14.847zm-31.043-14.605c-2.084-3.311-2.84-7.193-2.205-11.012 3.719 1.08 6.891 3.439 8.975 6.75s2.84 7.193 2.205 11.012c-3.719-1.08-6.891-3.439-8.975-6.75zm46.559 54.371c-1.463 7.482-5.248 14.016-10.658 18.395-5.203 4.209-11.289 5.898-17.152 4.754-.73-.143-1.443-.33-2.139-.555-.398-.127-.811-.191-1.225-.191s-.826.064-1.225.191c-.695.225-1.408.412-2.137.555-5.859 1.146-11.949-.545-17.154-4.754-5.41-4.379-9.195-10.912-10.658-18.395s-.414-14.959 2.949-21.051c3.234-5.861 8.242-9.719 14.102-10.863 4.07-.797 8.35-.191 12.389 1.754 1.094.527 2.375.527 3.469 0 4.037-1.945 8.316-2.551 12.389-1.754 5.859 1.145 10.867 5.002 14.102 10.863 3.362 6.092 4.411 13.569 2.948 21.051z"/><path d="m140.27 112.125c-5.078 1.27-14.684 6.762-14.684 18.451 0 2.209 1.791 4 4 4s4-1.791 4-4c0-8.162 7.744-10.455 8.646-10.695 2.131-.545 3.422-2.709 2.889-4.846-.536-2.142-2.714-3.445-4.851-2.91z"/><path d="m140.897 228.285c0-2.209-1.791-4-4-4l-8-.133.133-15.867h7.867c2.209 0 4-1.791 4-4s-1.791-4-4-4h-7.867c-4.484 0-8.133 3.648-8.133 8.133v15.734c0 4.484 3.648 8.133 8.133 8.133h7.867c2.209 0 4-1.791 4-4z"/><path d="m159.991 200.285h-11.094c-2.209 0-4 1.791-4 4s1.791 4 4 4h11.094c.5 0 .906.406.906.906v3.094h-6.059c-5.482 0-9.941 4.459-9.941 9.941v6.059c0 2.209 1.791 4 4 4h16c2.209 0 4-1.791 4-4v-19.094c0-4.91-3.996-8.906-8.906-8.906zm.906 24h-8v-2.059c0-1.07.871-1.941 1.941-1.941h6.059z"/><path d="m176.897 188.285c-2.209 0-4 1.791-4 4v36c0 2.209 1.791 4 4 4s4-1.791 4-4v-36c0-2.209-1.791-4-4-4z"/><path d="m164.897 244.285h-24c-2.209 0-4 1.791-4 4s1.791 4 4 4h24c2.209 0 4-1.791 4-4s-1.791-4-4-4z"/></g></svg>