<svg id="course" enable-background="new 0 0 300 300" height="512" viewBox="0 0 300 300" width="512" xmlns="http://www.w3.org/2000/svg"><g><path d="m222.328 52.496c2.362 0 4.277-1.915 4.277-4.276s-1.915-4.277-4.277-4.277-4.276 1.915-4.276 4.277 1.915 4.276 4.276 4.276z"/><path d="m256.619 83.828h-213.238c-5.172 0-9.381 3.807-9.381 8.484v162.135c0 5.172 4.209 9.381 9.381 9.381h213.238c5.172 0 9.381-4.209 9.381-9.381v-162.135c0-4.677-4.209-8.484-9.381-8.484zm1.381 170.619c0 .762-.619 1.381-1.381 1.381h-213.238c-.762 0-1.381-.619-1.381-1.381l-.012-162.066c.072-.164.572-.553 1.393-.553h213.238c.82 0 1.32.389 1.381.484z"/><circle cx="54" cy="99.828" r="4"/><circle cx="66" cy="99.828" r="4"/><circle cx="78" cy="99.828" r="4"/><path d="m69.516 54.312c.781.781 1.805 1.172 2.828 1.172s2.047-.391 2.828-1.172l2.828-2.828 2.828 2.828c.781.781 1.805 1.172 2.828 1.172s2.047-.391 2.828-1.172c1.562-1.562 1.562-4.094 0-5.656l-2.828-2.828 2.828-2.828c1.562-1.562 1.562-4.094 0-5.656s-4.094-1.562-5.656 0l-2.828 2.828-2.828-2.828c-1.562-1.562-4.094-1.562-5.656 0s-1.562 4.094 0 5.656l2.828 2.828-2.828 2.828c-1.563 1.563-1.563 4.094 0 5.656z"/><path d="m162 63.828c6.617 0 12-5.383 12-12s-5.383-12-12-12-12 5.383-12 12 5.383 12 12 12zm0-16c2.205 0 4 1.795 4 4s-1.795 4-4 4-4-1.795-4-4 1.795-4 4-4z"/><path d="m110.328 72.496c2.362 0 4.277-1.915 4.277-4.276s-1.915-4.277-4.277-4.277-4.276 1.915-4.276 4.277 1.915 4.276 4.276 4.276z"/><path d="m238 115.828h-176c-2.209 0-4 1.791-4 4v100c0 2.209 1.791 4 4 4h176c2.209 0 4-1.791 4-4v-100c0-2.209-1.791-4-4-4zm-96 60c-2.205 0-4-1.795-4-4v-20h24v20c0 2.205-1.795 4-4 4-2.209 0-4 1.791-4 4v12c0 2.209 1.791 4 4 4h3.699c11.122 0 20.164 8.956 20.28 20h-7.979v-4c0-2.209-1.791-4-4-4s-4 1.791-4 4v4h-32v-4c0-2.209-1.791-4-4-4s-4 1.791-4 4v4h-7.979c.116-11.044 9.158-20 20.28-20h3.699c2.209 0 4-1.791 4-4v-12c0-2.209-1.791-4-4-4zm-12-38.146v-1.854h20.506c5.121 0 9.469 3.365 10.951 8h-25.311c-3.388 0-6.146-2.758-6.146-6.146zm104 78.146h-44.01c-.114-15.358-12.593-27.839-27.99-27.998v-4.688c4.656-1.65 8-6.1 8-11.314v-24.506c0-10.75-8.744-19.494-19.494-19.494h-24.506c-2.209 0-4 1.791-4 4v5.854c0 5.589 3.284 10.386 8 12.682v21.464c0 5.215 3.344 9.664 8 11.314v4.688c-15.396.159-27.876 12.64-27.99 27.998h-44.01v-92h168z"/><path d="m79.707 236.211-16-7.547c-1.24-.586-2.691-.496-3.85.238-1.156.734-1.857 2.01-1.857 3.379v15.547c0 1.387.719 2.674 1.896 3.402.643.396 1.373.598 2.104.598.611 0 1.225-.141 1.789-.422l16-8c1.369-.686 2.229-2.092 2.211-3.623-.018-1.533-.908-2.92-2.293-3.572zm-13.707 5.144v-2.766l2.846 1.344z"/><path d="m238 235.828h-108.737c-1.656-4.646-6.055-8-11.263-8s-9.606 3.354-11.263 8h-16.737c-2.209 0-4 1.791-4 4s1.791 4 4 4h16.737c1.656 4.646 6.055 8 11.263 8s9.606-3.354 11.263-8h108.737c2.209 0 4-1.791 4-4s-1.791-4-4-4zm-120 8c-2.205 0-4-1.795-4-4s1.795-4 4-4 4 1.795 4 4-1.795 4-4 4z"/><path d="m210 159.828h12c2.209 0 4-1.791 4-4v-24c0-2.209-1.791-4-4-4h-12c-2.209 0-4 1.791-4 4v24c0 2.209 1.791 4 4 4zm4-24h4v16h-4z"/><path d="m191.789 139.406 2.211-1.105v17.527c0 2.209 1.791 4 4 4s4-1.791 4-4v-24c0-1.387-.719-2.674-1.896-3.402-1.18-.729-2.654-.793-3.893-.176l-8 4c-1.977.988-2.777 3.391-1.789 5.367.988 1.975 3.385 2.783 5.367 1.789z"/></g></svg>