<svg id="heartrate" enable-background="new 0 0 300 300" height="512" viewBox="0 0 300 300" width="512" xmlns="http://www.w3.org/2000/svg"><g><path d="m240.735 222.735c-2.502 0-4.53 2.028-4.53 4.53s2.028 4.53 4.53 4.53c2.501 0 4.529-2.028 4.529-4.53s-2.027-4.53-4.529-4.53z"/><circle cx="50" cy="116" r="4"/><path d="m88.828 73.172c-1.562-1.562-4.094-1.562-5.656 0l-3.172 3.172-3.172-3.172c-1.562-1.562-4.094-1.562-5.656 0s-1.562 4.094 0 5.656l3.172 3.172-3.172 3.172c-1.562 1.562-1.562 4.094 0 5.656.781.781 1.805 1.172 2.828 1.172s2.047-.391 2.828-1.172l3.172-3.172 3.172 3.172c.781.781 1.805 1.172 2.828 1.172s2.047-.391 2.828-1.172c1.562-1.562 1.562-4.094 0-5.656l-3.172-3.172 3.172-3.172c1.563-1.562 1.563-4.094 0-5.656z"/><path d="m182 152h-16c-2.209 0-4 1.791-4 4v24c0 2.209 1.791 4 4 4h16c2.209 0 4-1.791 4-4v-24c0-2.209-1.791-4-4-4zm-4 24h-8v-16h8z"/><path d="m154 180v-12c0-2.209-1.791-4-4-4h-4-8v-4h12c2.209 0 4-1.791 4-4s-1.791-4-4-4h-16c-2.209 0-4 1.791-4 4v12 12c0 2.209 1.791 4 4 4h16c2.209 0 4-1.791 4-4zm-8-4h-8v-4h8z"/><path d="m242 180c-6.617 0-12 5.383-12 12s5.383 12 12 12 12-5.383 12-12-5.383-12-12-12zm0 16c-2.205 0-4-1.795-4-4s1.795-4 4-4 4 1.795 4 4-1.795 4-4 4z"/><path d="m190 108h-2.896c.132-.999.215-2.015.215-3.059 0-11.547-8.609-20.941-19.191-20.941-3.607 0-7.104 1.105-10.127 3.164-3.024-2.059-6.521-3.164-10.128-3.164-10.582 0-19.191 9.395-19.191 20.941 0 2.483.426 4.826 1.124 7.059h-3.806c-2.209 0-4 1.791-4 4s1.791 4 4 4h7.776c5.142 7.416 13.1 13.025 18.694 16.963 1.164.818 2.229 1.568 3.143 2.248.709.525 1.547.789 2.387.789s1.678-.264 2.387-.789c.914-.68 1.979-1.43 3.143-2.248 6.558-4.616 16.353-11.534 21.061-20.963h5.409c2.209 0 4-1.791 4-4s-1.791-4-4-4zm-53.318-3.059c0-7.137 5.02-12.941 11.191-12.941 2.664 0 5.256 1.125 7.299 3.168 1.562 1.562 4.094 1.562 5.656 0 2.043-2.043 4.635-3.168 7.299-3.168 6.172 0 11.191 5.805 11.191 12.941 0 1.044-.14 2.059-.342 3.059h-10.503l-2.895-5.789c-.639-1.275-1.906-2.115-3.33-2.203-1.428-.113-2.785.588-3.576 1.773l-6.813 10.219h-13.504c-1.038-2.229-1.673-4.578-1.673-7.059zm22.242 25.479c-.314.223-.623.439-.924.652-.301-.213-.609-.43-.924-.652-3.966-2.792-8.916-6.285-12.949-10.42h9.873c1.338 0 2.586-.668 3.328-1.781l2.905-4.358 2.157-.135.032.063c.678 1.356 2.062 2.211 3.578 2.211h9.272c-4.294 5.921-11.162 10.769-16.348 14.42z"/><path d="m158 200c-9.926 0-18 8.074-18 18s8.074 18 18 18 18-8.074 18-18-8.074-18-18-18zm0 28c-5.514 0-10-4.486-10-10s4.486-10 10-10 10 4.486 10 10-4.486 10-10 10z"/><circle cx="158" cy="218" r="4"/><path d="m218 96h-8v-23.271c0-10.559-6.666-19.568-16-23.107v-17.622c0-2.209-1.791-4-4-4s-4 1.791-4 4v16.037c-.244-.007-.483-.037-.729-.037h-54.543c-.246 0-.484.03-.729.037v-16.037c0-2.209-1.791-4-4-4s-4 1.791-4 4v17.621c-9.334 3.539-16 12.548-16 23.107v154.543c0 10.559 6.666 19.568 16 23.107v17.622c0 2.209 1.791 4 4 4s4-1.791 4-4v-16.037c.244.007.483.037.729.037h54.543c.246 0 .484-.03.729-.037v16.037c0 2.209 1.791 4 4 4s4-1.791 4-4v-17.621c9.334-3.539 16-12.548 16-23.107v-91.272h8c2.209 0 4-1.791 4-4v-32c0-2.209-1.791-4-4-4zm-16 131.271c0 9.225-7.504 16.729-16.729 16.729h-54.543c-9.225 0-16.729-7.504-16.729-16.729v-154.542c.001-9.225 7.505-16.729 16.73-16.729h54.543c9.224 0 16.728 7.504 16.728 16.729zm12-99.271h-4v-24h4z"/></g></svg>