<svg id="infographic" enable-background="new 0 0 300 300" height="512" viewBox="0 0 300 300" width="512" xmlns="http://www.w3.org/2000/svg"><g><path d="m178 90c-6.776 0-13.479.847-20 2.442v-42.676c0-6.489-5.277-11.766-11.766-11.766h-96.468c-6.489 0-11.766 5.277-11.766 11.764v84.471c0 6.488 5.277 11.765 11.766 11.765h49.112c-3.179 8.976-4.878 18.364-4.878 28 0 14.073 3.504 27.764 10.145 40h-18.379c-6.489 0-11.766 5.277-11.766 11.766v24.469c0 6.488 5.277 11.765 11.766 11.765h64.469c4.34 0 8.096-2.388 10.136-5.894 5.774 1.232 11.684 1.894 17.629 1.894 46.316 0 84-37.682 84-84s-37.684-84-84-84zm-4 8.146v71.854h-71.812c.355-6.859 1.616-13.561 3.774-20.03l9.64 7.229c.703.529 1.551.801 2.398.801.609 0 1.223-.139 1.789-.422 1.356-.678 2.211-2.062 2.211-3.578v-8h24.234c6.488 0 11.766-5.277 11.766-11.766v-33.525c5.215-1.418 10.569-2.281 16-2.563zm-128 36.088v-84.47c0-2.076 1.688-3.764 3.766-3.764h96.469c2.078 0 3.766 1.689 3.766 3.766v84.469c0 2.076-1.688 3.766-3.766 3.766h-28.235c-2.211 0-4 1.791-4 4v4l-9.602-7.199c-.691-.52-1.531-.801-2.398-.801h-52.234c-2.078-.001-3.766-1.69-3.766-3.767zm56.144 43.766h71.856v71.877c-4.048-.21-8.059-.756-12-1.6v-22.512c0-6.488-5.277-11.766-11.766-11.766h-8.234v-8c0-1.516-.855-2.9-2.211-3.578-1.352-.674-2.977-.531-4.188.379l-14.933 11.2h-7.253c-6.748-10.868-10.604-23.199-11.271-36zm51.856 72.234c0 2.076-1.688 3.766-3.766 3.766h-64.468c-2.078 0-3.766-1.689-3.766-3.766v-24.469c0-2.076 1.688-3.766 3.766-3.766h36.234c.867 0 1.707-.281 2.398-.801l9.602-7.198v4c0 2.209 1.789 4 4 4h12.234c2.078 0 3.766 1.689 3.766 3.766zm28-.437v-151.594c40.042 2.1 72 35.241 72 75.797s-31.958 73.698-72 75.797z"/><path d="m123.547 127.115c6.867-5.559 11.656-13.756 13.477-23.078 1.824-9.322.477-18.717-3.797-26.453-4.398-7.969-11.348-13.24-19.566-14.848-3.76-.735-7.607-.613-11.379.281.75-4.036 2.867-5.157 3.102-5.263 2.02-.744 3.098-2.963 2.41-5.02-.695-2.094-2.949-3.234-5.059-2.529-2.913.972-7.606 4.777-8.537 12.907-3.924-1.002-7.942-1.141-11.854-.375-8.223 1.605-15.172 6.879-19.57 14.848-4.273 7.736-5.621 17.131-3.797 26.453 1.82 9.322 6.609 17.52 13.477 23.078 7.07 5.723 15.496 7.988 23.723 6.387.617-.121 1.227-.264 1.824-.426.598.162 1.207.305 1.828.426 1.723.338 3.457.504 5.184.504 6.51-.001 12.944-2.366 18.534-6.892zm-24.32-2.019c-.398-.127-.812-.191-1.227-.191s-.828.064-1.227.191c-.695.225-1.406.412-2.133.555-5.871 1.145-11.953-.545-17.156-4.754-5.41-4.379-9.195-10.912-10.656-18.395-1.465-7.482-.418-14.957 2.945-21.051 3.238-5.861 8.246-9.719 14.105-10.863 4.055-.801 8.344-.191 12.387 1.754 1.094.527 2.375.527 3.469 0 4.047-1.941 8.332-2.551 12.387-1.754h.004c5.855 1.145 10.863 5.002 14.102 10.863 3.363 6.094 4.41 13.568 2.945 21.051-1.461 7.482-5.246 14.016-10.656 18.395-5.203 4.213-11.301 5.898-17.152 4.754-.731-.143-1.442-.331-2.137-.555z"/><path d="m85.375 73.84c-5.082 1.27-14.688 6.76-14.688 18.451 0 2.209 1.789 4 4 4s4-1.791 4-4c0-8.158 7.738-10.453 8.648-10.695 2.129-.545 3.422-2.709 2.887-4.846-.534-2.143-2.718-3.451-4.847-2.91z"/><path d="m194 134h24c2.211 0 4-1.791 4-4s-1.789-4-4-4h-24c-2.211 0-4 1.791-4 4s1.789 4 4 4z"/><path d="m234 138h-40c-2.211 0-4 1.791-4 4s1.789 4 4 4h40c2.211 0 4-1.791 4-4s-1.789-4-4-4z"/><path d="m194 190h24c2.211 0 4-1.791 4-4s-1.789-4-4-4h-24c-2.211 0-4 1.791-4 4s1.789 4 4 4z"/><path d="m146 194c2.211 0 4-1.791 4-4s-1.789-4-4-4h-24c-2.211 0-4 1.791-4 4s1.789 4 4 4z"/><path d="m214 218h-20c-2.211 0-4 1.791-4 4s1.789 4 4 4h20c2.211 0 4-1.791 4-4s-1.789-4-4-4z"/><path d="m194 202h32c2.211 0 4-1.791 4-4s-1.789-4-4-4h-32c-2.211 0-4 1.791-4 4s1.789 4 4 4z"/><path d="m194 214h8c2.211 0 4-1.791 4-4s-1.789-4-4-4h-8c-2.211 0-4 1.791-4 4s1.789 4 4 4z"/><path d="m230 206h-16c-2.211 0-4 1.791-4 4s1.789 4 4 4h16c2.211 0 4-1.791 4-4s-1.789-4-4-4z"/><path d="m106 234h-12c-2.211 0-4 1.791-4 4s1.789 4 4 4h12c2.211 0 4-1.791 4-4s-1.789-4-4-4z"/><path d="m142 234h-24c-2.211 0-4 1.791-4 4s1.789 4 4 4h24c2.211 0 4-1.791 4-4s-1.789-4-4-4z"/><path d="m205.516 66.484c.781.781 1.805 1.172 2.828 1.172s2.047-.391 2.828-1.172l2.828-2.828 2.828 2.828c.781.781 1.805 1.172 2.828 1.172s2.047-.391 2.828-1.172c1.562-1.562 1.562-4.094 0-5.656l-2.828-2.828 2.828-2.828c1.562-1.562 1.562-4.094 0-5.656s-4.094-1.562-5.656 0l-2.828 2.828-2.828-2.828c-1.562-1.562-4.094-1.562-5.656 0s-1.562 4.094 0 5.656l2.828 2.828-2.828 2.828c-1.563 1.563-1.563 4.094 0 5.656z"/><circle cx="248.735" cy="89.265" r="4.529"/></g></svg>