<svg id="listen" enable-background="new 0 0 300 300" height="512" viewBox="0 0 300 300" width="512" xmlns="http://www.w3.org/2000/svg"><g><path d="m228.735 81.797c2.501 0 4.529-2.028 4.529-4.53s-2.028-4.53-4.529-4.53c-2.502 0-4.53 2.028-4.53 4.53s2.029 4.53 4.53 4.53z"/><path d="m61.516 110.488c.781.781 1.805 1.172 2.828 1.172s2.047-.391 2.828-1.172l2.828-2.828 2.828 2.828c.781.781 1.805 1.172 2.828 1.172s2.047-.391 2.828-1.172c1.562-1.562 1.562-4.094 0-5.656l-2.828-2.828 2.828-2.828c1.562-1.562 1.562-4.094 0-5.656s-4.094-1.562-5.656 0l-2.828 2.827-2.828-2.828c-1.562-1.562-4.094-1.562-5.656 0s-1.562 4.094 0 5.656l2.828 2.828-2.828 2.828c-1.563 1.563-1.563 4.094 0 5.657z"/><path d="m154.09 142.048c0 6.592 5.332 11.955 11.883 11.955 6.555 0 11.887-5.363 11.887-11.955v-50.02c15.355 1.771 22.406-7.785 23.992-13.457.098-.352.148-.715.148-1.078v-18.126c0-.713-.191-1.412-.551-2.025-.328-.557-8.191-13.584-28.348-11.006-21.261 2.716-19.101 34.634-19.011 35.691zm20.027-87.779c1.434-.182 2.777-.266 4.043-.266 9.555 0 14.32 4.74 15.84 6.633v16.195c-.789 2.037-4.367 8.867-16.141 7.131v-4.203c0-2.209-1.789-4-4-4s-4 1.791-4 4v62.289c0 2.182-1.742 3.955-3.887 3.955-2.141 0-3.883-1.773-3.883-3.955l-.012-60.318c-.018-.256-1.718-25.701 12.04-27.461z"/><path d="m122.143 92.029v50.02c0 6.592 5.332 11.955 11.885 11.955 6.551 0 11.883-5.363 11.883-11.955l-.012-59.721c.102-1.357 2.262-33.275-19.002-35.992-20.123-2.584-28.02 10.451-28.346 11.006-.362.612-.551 1.312-.551 2.025v18.127c0 .363.049.727.148 1.078 1.592 5.691 8.598 15.224 23.995 13.457zm-16.143-31.389c1.754-2.174 7.645-7.926 19.883-6.371 13.758 1.76 12.057 27.205 12.027 27.758v60.021c0 2.182-1.742 3.955-3.883 3.955-2.143 0-3.885-1.773-3.885-3.955v-62.289c0-2.209-1.791-4-4-4s-4 1.791-4 4v4.201c-11.851 1.78-15.38-5.14-16.142-7.119z"/><circle cx="182" cy="66.003" r="4"/><circle cx="122" cy="66.003" r="4"/><path d="m256.523 174.003h-10.523v-10.525c0-5.225-4.25-9.475-9.477-9.475h-14.523v-2.525c0-5.225-4.25-9.475-9.477-9.475h-13.047c-5.227 0-9.477 4.25-9.477 9.475v26.525h-80v-26.525c0-5.225-4.25-9.475-9.475-9.475h-13.049c-5.225 0-9.475 4.25-9.475 9.475v2.525h-14.525c-5.225 0-9.475 4.25-9.475 9.475v10.525h-10.525c-5.225 0-9.475 4.25-9.475 9.475v29.051c0 5.225 4.25 9.475 9.475 9.475h10.525v10.525c0 5.225 4.25 9.475 9.475 9.475h14.525v2.525c0 5.225 4.25 9.475 9.475 9.475h13.051c5.225 0 9.475-4.25 9.475-9.475v-26.525h80v26.525c0 5.225 4.25 9.475 9.477 9.475h13.047c5.227 0 9.477-4.25 9.477-9.475v-2.525h14.523c5.227 0 9.477-4.25 9.477-9.475v-10.525h10.523c5.227 0 9.477-4.25 9.477-9.475v-29.051c-.002-5.225-4.252-9.475-9.479-9.475zm-213.048 40c-.812 0-1.475-.662-1.475-1.475v-29.051c0-.812.662-1.475 1.475-1.475h10.525v32h-10.525zm20 20c-.812 0-1.475-.662-1.475-1.475v-69.051c0-.812.662-1.475 1.475-1.475h14.525v72h-14.525zm38.525 10.526c0 .812-.662 1.475-1.475 1.475h-13.05c-.812 0-1.475-.662-1.475-1.475v-93.051c0-.812.662-1.475 1.475-1.475h13.051c.812 0 1.475.662 1.475 1.475v93.051zm8-34.526v-24h80v24zm104 34.526c0 .812-.664 1.475-1.477 1.475h-13.047c-.812 0-1.477-.662-1.477-1.475v-93.051c0-.812.664-1.475 1.477-1.475h13.047c.812 0 1.477.662 1.477 1.475zm24-12c0 .812-.664 1.475-1.477 1.475h-14.523v-72h14.523c.812 0 1.477.662 1.477 1.475zm20-20c0 .812-.664 1.475-1.477 1.475h-10.523v-32h10.523c.812 0 1.477.662 1.477 1.475z"/><path d="m226 126.003c6.617 0 12-5.383 12-12s-5.383-12-12-12-12 5.383-12 12 5.383 12 12 12zm0-16c2.207 0 4 1.795 4 4s-1.793 4-4 4-4-1.795-4-4 1.793-4 4-4z"/></g></svg>