<svg id="no-burger" enable-background="new 0 0 300 300" height="512" viewBox="0 0 300 300" width="512" xmlns="http://www.w3.org/2000/svg"><g><path d="m59.656 92.77c.781.781 1.805 1.172 2.828 1.172s2.047-.391 2.828-1.172c1.562-1.562 1.562-4.094 0-5.656l-2.828-2.828 2.828-2.828c1.562-1.562 1.562-4.094 0-5.656s-4.094-1.562-5.656 0l-2.828 2.828-2.828-2.829c-1.562-1.562-4.094-1.562-5.656 0s-1.562 4.094 0 5.656l2.828 2.828-2.828 2.828c-1.562 1.562-1.562 4.094 0 5.656.781.781 1.805 1.172 2.828 1.172s2.047-.39 2.828-1.171l2.828-2.828z"/><path d="m240.828 188.285c-6.617 0-12 5.383-12 12s5.383 12 12 12 12-5.383 12-12-5.383-12-12-12zm0 16c-2.207 0-4-1.795-4-4s1.793-4 4-4 4 1.795 4 4-1.793 4-4 4z"/><path d="m164.828 244.285h-24c-2.211 0-4 1.791-4 4s1.789 4 4 4h24c2.211 0 4-1.791 4-4s-1.789-4-4-4z"/><circle cx="63.563" cy="131.55" r="4.529"/><path d="m244.828 86.285c0-16.821-12.291-30.789-28.354-33.491-1.67-9.521-9.951-16.794-19.943-16.794h-87.406c-11.191 0-20.297 9.104-20.297 20.295v187.408c0 11.191 9.105 20.297 20.297 20.297h87.406c11.191 0 20.297-9.105 20.297-20.297v-123.981c15.89-2.846 28-16.739 28-33.437zm-8 0c0 14.336-11.664 26-26 26s-26-11.664-26-26 11.664-26 26-26 26 11.664 26 26zm-64.472-42.285c-.947 2.341-3.235 4-5.911 4h-27.234c-2.676 0-4.964-1.659-5.911-4zm24.175 212h-87.406c-6.781 0-12.297-5.516-12.297-12.297v-187.408c0-6.779 5.516-12.295 12.297-12.295h15.944c1.145 6.794 7.028 12 14.142 12h27.234c7.113 0 12.997-5.206 14.142-12h15.944c5.419 0 9.978 3.546 11.611 8.421-17.492 1.377-31.314 16.022-31.314 33.864 0 18.073 14.186 32.854 32 33.899v123.519c0 6.781-5.516 12.297-12.297 12.297z"/><path d="m192.828 86.285c0 9.926 8.074 18 18 18s18-8.074 18-18-8.074-18-18-18-18 8.074-18 18zm18-10c1.286 0 2.506.265 3.636.708l-12.928 12.927c-.443-1.13-.708-2.35-.708-3.635 0-5.514 4.484-10 10-10zm0 20c-1.286 0-2.506-.265-3.636-.708l12.928-12.927c.443 1.13.708 2.35.708 3.635 0 5.514-4.484 10-10 10z"/><path d="m196.828 144.488v-.202c0-13.234-10.766-24-24-24h-40c-13.234 0-24 10.766-24 24v.202c-4.56.929-8 4.969-8 9.798 0 2.26.782 4.323 2.051 6-1.269 1.677-2.051 3.74-2.051 6 0 4.829 3.44 8.868 8 9.798v.202c0 13.234 10.766 24 24 24h40c13.234 0 24-10.766 24-24v-.202c4.56-.929 8-4.969 8-9.798 0-2.26-.782-4.323-2.051-6 1.269-1.677 2.051-3.74 2.051-6 0-4.83-3.44-8.869-8-9.798zm-64-16.203h40c8.824 0 16 7.178 16 16h-72c0-8.822 7.176-16 16-16zm-22 24h84c1.102 0 2 .896 2 2s-.898 2-2 2h-18c-2.211 0-4 1.791-4 4v2c0 1.104-.898 2-2 2-.184 0-.406-.047-.664-.139-1.219-.428-2.582-.246-3.645.506-1.062.748-1.691 1.967-1.691 3.266v2.367c0 1.104-.898 2-2 2s-2-.896-2-2v-10c0-2.209-1.789-4-4-4h-46c-1.102 0-2-.896-2-2s.899-2 2-2zm0 16c-1.102 0-2-.896-2-2s.898-2 2-2h42v4zm62 24h-40c-8.824 0-16-7.178-16-16h38.051c1.827 2.414 4.694 4 7.949 4s6.128-1.583 7.955-4h18.045c0 8.822-7.176 16-16 16zm22-24h-16.139c.901-1.178 1.631-2.495 1.939-4h14.199c1.102 0 2 .896 2 2s-.897 2-1.999 2z"/></g></svg>