<svg id="purchase" enable-background="new 0 0 300 300" height="512" viewBox="0 0 300 300" width="512" xmlns="http://www.w3.org/2000/svg"><g><path d="m59.656 92.77c.781.781 1.805 1.172 2.828 1.172s2.047-.391 2.828-1.172c1.562-1.562 1.562-4.094 0-5.656l-2.828-2.828 2.828-2.828c1.562-1.562 1.562-4.094 0-5.656s-4.094-1.562-5.656 0l-2.828 2.828-2.828-2.829c-1.562-1.562-4.094-1.562-5.656 0s-1.562 4.094 0 5.656l2.828 2.828-2.828 2.828c-1.562 1.562-1.562 4.094 0 5.656.781.781 1.805 1.172 2.828 1.172s2.047-.39 2.828-1.171l2.828-2.828z"/><path d="m240.828 188.285c-6.617 0-12 5.383-12 12s5.383 12 12 12 12-5.383 12-12-5.383-12-12-12zm0 16c-2.207 0-4-1.795-4-4s1.793-4 4-4 4 1.795 4 4-1.793 4-4 4z"/><path d="m196.531 36h-87.406c-11.191 0-20.297 9.104-20.297 20.295v187.408c0 11.191 9.105 20.297 20.297 20.297h87.406c11.191 0 20.297-9.105 20.297-20.297v-187.408c0-11.191-9.105-20.295-20.297-20.295zm-24.175 8c-.947 2.341-3.235 4-5.911 4h-27.234c-2.676 0-4.964-1.659-5.911-4zm36.472 199.703c0 6.781-5.516 12.297-12.297 12.297h-87.406c-6.781 0-12.297-5.516-12.297-12.297v-187.408c0-6.779 5.516-12.295 12.297-12.295h15.944c1.145 6.794 7.028 12 14.142 12h27.234c7.113 0 12.997-5.206 14.142-12h15.944c6.781 0 12.297 5.516 12.297 12.295z"/><path d="m164.828 244.285h-24c-2.211 0-4 1.791-4 4s1.789 4 4 4h24c2.211 0 4-1.791 4-4s-1.789-4-4-4z"/><path d="m63.563 127.02c-2.502 0-4.53 2.028-4.53 4.53s2.028 4.53 4.53 4.53c2.501 0 4.529-2.028 4.529-4.53s-2.027-4.53-4.529-4.53z"/><path d="m147.406 85.227c-1.305-1.102-3.172-1.25-4.629-.375l-6.785 4.055c-1.371.82-2.125 2.377-1.914 3.961l3.629 27.33c.211 1.576 1.336 2.881 2.863 3.318 1.531.439 3.172-.072 4.188-1.301 2.738-3.318 6.957-5.223 11.582-5.223 3.961 0 7.652 1.402 10.395 3.947.891.824 2.105 1.201 3.293 1.027 1.195-.172 2.25-.877 2.867-1.916 2.461-4.139 7.301-6.709 12.637-6.709 2.031 0 3.996.367 5.828 1.09 2.062.818 4.379-.197 5.191-2.254.809-2.055-.199-4.377-2.254-5.188-2.773-1.094-5.723-1.648-8.766-1.648-6.555 0-12.676 2.637-16.844 7.082-7.055-4.334-16.883-4.445-23.996-.414l-2.336-17.586 2.227-1.33c4.543 2.961 7.188 1.84 8.648.195l7.32-8.199c2.117-2.381 2.289-5.979.348-8.633l-8.137-10.6c-1.137-1.482-3.145-1.973-4.836-1.203l-23.863 10.908c-.605.26-2.637 1.281-3.336 3.494-1.328 4-11.898 48.492-11.898 52.344v3.484c0 1.889.852 3.639 2.305 4.783.762.609 1.691.967 2.984 1.461.691.266 1.977.758 2.355 1.018 10.602 7.742 19.805 12.518 27.363 14.195 10.508 2.328 22.348.541 28.746-.811 1.25 2.246 3.27 5.398 6.098 8.354 2.82 2.947 6.406 5.334 10.148 6.801v9.6c0 2.209 1.789 4 4 4s4-1.791 4-4v-12.506c0-1.834-1.246-3.434-3.027-3.879-3.375-.848-6.781-2.869-9.34-5.547-1.666-1.74-2.968-3.569-3.943-5.131l1.51-.503c1.66 2.324 4.379 5.312 7.98 6.512.422.141.848.207 1.266.207 1.676 0 3.238-1.061 3.793-2.738.699-2.096-.434-4.359-2.527-5.059-2.184-.727-4.449-4.031-5.199-5.506-.891-1.781-2.961-2.625-4.844-2.006l-8.806 2.936c-.074.021-.911.244-2.342.548-4.551.984-16.164 3.041-25.781.918-6.473-1.438-14.672-5.758-24.367-12.84-1.18-.867-2.797-1.486-4.219-2.031-.051-.021-.102-.041-.152-.061l-.004-2.076c.273-3.652 9.059-41.287 11.211-48.98l20.32-9.289 5.566 7.25-5.148 5.766c-.407-.277-.876-.626-1.368-1.042z"/><path d="m152.828 164.285c-19.852 0-36 16.15-36 36s16.148 36 36 36 36-16.15 36-36-16.148-36-36-36zm0 64c-15.438 0-28-12.561-28-28s12.562-28 28-28 28 12.561 28 28-12.562 28-28 28z"/><path d="m164.828 192.285c2.211 0 4-1.791 4-4s-1.789-4-4-4h-8v-4c0-2.209-1.789-4-4-4s-4 1.791-4 4v4h-8c-2.211 0-4 1.791-4 4v12c0 2.209 1.789 4 4 4h8v4h-8c-2.211 0-4 1.791-4 4s1.789 4 4 4h8v4c0 2.209 1.789 4 4 4s4-1.791 4-4v-4h8c2.211 0 4-1.791 4-4v-12c0-2.209-1.789-4-4-4h-8v-4zm-4 12v4h-4v-4zm-12-8h-4v-4h4z"/></g></svg>