<svg id="shoes" enable-background="new 0 0 300 300" height="512" viewBox="0 0 300 300" width="512" xmlns="http://www.w3.org/2000/svg"><g><path d="m244.735 103.794c2.501 0 4.529-2.028 4.529-4.53s-2.028-4.53-4.529-4.53c-2.502 0-4.53 2.028-4.53 4.53s2.029 4.53 4.53 4.53z"/><path d="m189.516 84.484c.781.781 1.805 1.172 2.828 1.172s2.047-.391 2.828-1.172l2.828-2.828 2.828 2.828c.781.781 1.805 1.172 2.828 1.172s2.047-.391 2.828-1.172c1.562-1.562 1.562-4.094 0-5.656l-2.828-2.828 2.828-2.828c1.562-1.562 1.562-4.094 0-5.656s-4.094-1.562-5.656 0l-2.828 2.828-2.828-2.828c-1.562-1.562-4.094-1.562-5.656 0s-1.562 4.094 0 5.656l2.828 2.828-2.828 2.828c-1.563 1.563-1.563 4.094 0 5.656z"/><path d="m274 256h-1.183l1.972-3.529c.674-1.207.678-2.674.01-3.885l-20.729-37.551c-.084-.15-.176-.295-.277-.434-1.248-1.699-2.117-3.604-2.58-5.66l-4.03-17.833-3.794-47.757c-.355-4.281-2.154-8.016-5.062-10.514-4.789-4.121-11.9-4.936-18.145-2.053-4.75 2.166-7.207 7.186-5.715 11.672.223.671.512 1.439.81 2.22-.303.147-.617.273-.912.438-.986.553-3.863.85-7.385-.674-2.404-1.041-6.656-3.672-8.125-9.59l-.406-1.693c-.916-3.889-1.955-8.299-5.223-11.822-5.158-5.568-13.893-5.902-19.459-.74l-18.594 17.232c-2.816 2.613-3.756 5.045-4.699 8.041l-4.73 4.73c-2.932 2.932-3.082 7.664-.344 10.773l85.598 97.27c.535.609 1.244 1.041 2.031 1.238l.477.119h-44.166l17.313-12.016c1.484-1.029 2.094-2.926 1.486-4.627l-3.645-10.23c-.463-1.303-1.564-2.271-2.916-2.566l-41.904-9.141c-.168-.037-.338-.062-.51-.076-2.1-.182-4.105-.783-5.961-1.787l-16.016-8.686-38.484-28.637c-3.455-2.549-7.445-3.648-11.244-3.117-6.26.891-11.553 5.705-13.498 12.303-1.494 5 .662 10.154 5.02 11.986.661.278 1.411.567 2.209.862-.088.323-.208.636-.277.964-.236 1.105-1.902 3.471-5.373 5.115-2.371 1.119-7.148 2.59-12.564-.205l-1.543-.811c-3.531-1.873-7.488-3.967-12.338-3.859-7.588.217-13.586 6.566-13.371 14.154l.717 25.338c.109 3.842 1.318 6.15 2.953 8.836l.41 6.199h-13.804c-2.209 0-4 1.791-4 4s1.791 4 4 4h248c2.209 0 4-1.791 4-4s-1.791-3.997-4-3.997zm-50.43-121.969c1.432-.662 2.904-.988 4.314-.988 1.959 0 3.795.631 5.229 1.863 1.305 1.119 2.121 2.934 2.301 5.094l2.301 28.953c-6.055-11.564-13.338-26.045-15.656-33.021-.143-.428.349-1.37 1.511-1.901zm-44.365-11.568c2.328-2.164 5.992-2.025 8.154.311 1.832 1.977 2.514 4.869 3.303 8.219l.428 1.789c1.682 6.762 6.312 12.229 12.709 15 5.223 2.264 10.762 2.383 14.467.318.041-.023.089-.031.13-.053 3.366 7.408 7.979 16.496 12.056 24.294l-5.938 3.249c-1.938 1.061-2.65 3.492-1.59 5.43.729 1.328 2.098 2.08 3.514 2.08.648 0 1.307-.158 1.916-.49l5.836-3.193c.839 1.574 1.594 2.98 2.284 4.26l-5.108 2.794c-1.938 1.061-2.65 3.492-1.59 5.43.727 1.328 2.098 2.08 3.514 2.08.648 0 1.307-.158 1.916-.49l4.643-2.54 3.56 15.753c.688 3.049 1.959 5.877 3.777 8.414l15.485 28.053-18.389-6.602-85.762-93.559c.493-1.404.973-2.274 2.094-3.314zm-27.805 29.793 2.473-2.473 85.177 92.92c.439.479.986.842 1.598 1.062l24.854 8.923-1.502 2.689-27.822-6.955zm24.616 103.254-128.197.438-.232-3.494 126.019-2.874c.648-.014 1.283-.186 1.85-.502l23.087-12.82 1.034 2.9zm-94.37-65.869c1.066-3.615 3.725-6.145 6.939-6.602.254-.037.512-.055.773-.055 1.496 0 3.098.584 4.58 1.678l23.326 17.357c-12.701-3.068-28.406-7.137-35.184-9.988-.414-.176-.799-1.166-.434-2.39zm-32.324 19.828c2.674-.104 5.32 1.316 8.359 2.93l1.629.857c6.195 3.189 13.357 3.305 19.656.32 5.143-2.438 8.887-6.527 9.77-10.68.01-.045.037-.083.047-.128 7.788 2.348 17.663 4.867 26.219 6.939l-1.465 6.601c-.479 2.158.881 4.293 3.037 4.771.293.066.584.096.871.096 1.834 0 3.486-1.27 3.9-3.133l1.439-6.484c1.722.403 3.302.767 4.712 1.091l-1.259 5.672c-.479 2.158.881 4.293 3.037 4.771.293.066.584.096.871.096 1.834 0 3.488-1.27 3.9-3.133l1.146-5.168 14.197 7.701c2.748 1.488 5.715 2.396 8.82 2.699l31.309 6.83-17.084 9.486-126.882 2.897c-.733-1.297-1.071-2.23-1.115-3.761l-.717-25.339c-.09-3.179 2.424-5.839 5.603-5.931z"/><path d="m202.672 178.219c.756 1.133 2.016 1.781 3.328 1.781.387 0 .775-.055 1.158-.172 1.688-.51 2.842-2.066 2.842-3.828v-16c0-2.209-1.791-4-4-4s-4 1.791-4 4v2.789l-8.672-13.008c-1.227-1.838-3.709-2.34-5.547-1.109-1.838 1.225-2.334 3.709-1.109 5.547z"/><path d="m72.527 230.701 28.598 3.771c.176.023.352.035.525.035 1.553 0 2.988-.906 3.643-2.35.727-1.605.316-3.498-1.01-4.66l-12.037-10.541c-1.662-1.457-4.191-1.291-5.645.375-1.455 1.662-1.287 4.189.375 5.645l2.1 1.838-15.502-2.043c-2.166-.285-4.201 1.25-4.488 3.441-.289 2.192 1.252 4.202 3.441 4.489z"/><path d="m59.346 168h57.309c5.152 0 9.346-4.193 9.346-9.346v-113.31c0-5.152-4.193-9.344-9.346-9.344h-57.309c-5.153 0-9.346 4.191-9.346 9.344v113.311c0 5.152 4.193 9.345 9.346 9.345zm57.308-8h-28.654-28.654c-.742 0-1.346-.604-1.346-1.346v-10.654h30 30v10.654c0 .742-.604 1.346-1.346 1.346zm-57.308-116h57.309c.742 0 1.346.604 1.346 1.344v94.656h-60.001v-94.656c0-.74.604-1.344 1.346-1.344z"/><circle cx="88" cy="154" r="6"/><path d="m70 64h28c2.209 0 4-1.791 4-4s-1.791-4-4-4h-28c-2.209 0-4 1.791-4 4s1.791 4 4 4z"/><path d="m70 76h24c2.209 0 4-1.791 4-4s-1.791-4-4-4h-24c-2.209 0-4 1.791-4 4s1.791 4 4 4z"/><path d="m88 136c14.336 0 26-11.664 26-26s-11.664-26-26-26-26 11.664-26 26 11.664 26 26 26zm16.894-32h-9.344l2.873-8.619c2.968 2.122 5.225 5.123 6.471 8.619zm-16.894-12c1.032 0 2.03.137 3.015.305l-4.81 14.43c-.406 1.221-.201 2.561.551 3.604.75 1.044 1.959 1.661 3.244 1.661h15.798c-1.01 8.975-8.557 16-17.798 16-9.926 0-18-8.074-18-18s8.074-18 18-18z"/></g></svg>