<svg id="transfer" enable-background="new 0 0 300 300" height="512" viewBox="0 0 300 300" width="512" xmlns="http://www.w3.org/2000/svg"><g><path d="m253.103 226.878c-2.502 0-4.53 2.028-4.53 4.53s2.028 4.53 4.53 4.53c2.501 0 4.529-2.028 4.529-4.53s-2.028-4.53-4.529-4.53z"/><path d="m78.852 35.658c-1.562-1.562-4.094-1.562-5.656 0l-2.828 2.828-2.828-2.828c-1.562-1.562-4.094-1.562-5.656 0s-1.562 4.094 0 5.656l2.828 2.828-2.828 2.828c-1.562 1.562-1.562 4.094 0 5.656.781.781 1.805 1.172 2.828 1.172s2.047-.391 2.828-1.172l2.828-2.828 2.828 2.828c.781.781 1.805 1.172 2.828 1.172s2.047-.391 2.828-1.172c1.562-1.562 1.562-4.094 0-5.656l-2.828-2.828 2.828-2.828c1.563-1.562 1.563-4.093 0-5.656z"/><path d="m170.368 236.143h-24c-2.209 0-4 1.791-4 4s1.791 4 4 4h24c2.209 0 4-1.791 4-4s-1.791-4-4-4z"/><path d="m234.368 128.725v-64.582c0-2.209-1.791-4-4-4h-8v-11.99c0-11.191-9.104-20.295-20.295-20.295h-87.41c-11.191 0-20.295 9.104-20.295 20.295v187.408c0 11.191 9.104 20.297 20.295 20.297h87.41c.099 0 .196-.028.295-.03v12.315c0 2.209 1.791 4 4 4h24c2.209 0 4-1.791 4-4v-56.583c4.62-1.465 8-5.743 8-10.842v-61.152c0-5.098-3.38-9.376-8-10.841zm-8-.582h-16v-60h16zm-48.472-92.286c-.947 2.341-3.236 4-5.913 4h-27.23c-2.677 0-4.966-1.659-5.913-4zm24.177 212h-87.41c-6.779 0-12.295-5.516-12.295-12.297v-187.408c0-6.779 5.516-12.295 12.295-12.295h15.946c1.145 6.794 7.029 12 14.144 12h27.23c7.115 0 12.999-5.206 14.144-12h15.946c6.779 0 12.295 5.516 12.295 12.295v11.99h-8c-2.209 0-4 1.791-4 4v64.582c-4.62 1.465-8 5.743-8 10.842v61.152c0 5.098 3.38 9.377 8 10.842v36.267c-.099.003-.196.03-.295.03zm8.295 16.286v-52h16v52zm24-96.942v33.518c0 1.889-1.535 3.424-3.424 3.424h-25.152c-1.889 0-3.424-1.535-3.424-3.424v-33.518-27.635c0-1.889 1.535-3.424 3.424-3.424h25.152c1.889 0 3.424 1.535 3.424 3.424z"/><path d="m54.368 80.143c-6.617 0-12 5.383-12 12s5.383 12 12 12 12-5.383 12-12-5.383-12-12-12zm0 16c-2.205 0-4-1.795-4-4s1.795-4 4-4 4 1.795 4 4-1.795 4-4 4z"/><circle cx="218.368" cy="88.143" r="4"/><circle cx="218.368" cy="256.143" r="4"/><circle cx="218.368" cy="244.143" r="4"/><circle cx="218.368" cy="76.143" r="4"/><path d="m167.196 107.295c-1.562-1.562-4.094-1.562-5.656 0s-1.562 4.094 0 5.656l7.191 7.191h-30.363c-2.209 0-4 1.791-4 4s1.791 4 4 4h30.609l-7.438 7.438c-1.562 1.562-1.562 4.094 0 5.656.781.781 1.805 1.172 2.828 1.172s2.047-.391 2.828-1.172l14.143-14.143c1.562-1.562 1.562-4.094 0-5.656z"/><path d="m178.51 160.143h-30.363l7.191-7.191c1.562-1.562 1.562-4.094 0-5.656s-4.094-1.562-5.656 0l-14.143 14.143c-1.562 1.562-1.562 4.094 0 5.656l14.143 14.143c.781.781 1.805 1.172 2.828 1.172s2.047-.391 2.828-1.172c1.562-1.562 1.562-4.094 0-5.656l-7.438-7.438h30.609c2.209 0 4-1.791 4-4s-1.79-4.001-3.999-4.001z"/><path d="m110.368 52.143c-2.209 0-4 1.791-4 4v20c0 2.209 1.791 4 4 4s4-1.791 4-4v-20c0-2.209-1.791-4-4-4z"/><path d="m223.168 156.143c-1.674 0-3.311.371-4.801 1.072-1.49-.701-3.127-1.072-4.801-1.072-6.176 0-11.199 4.961-11.199 11.059 0 7.055 12.396 15.365 13.811 16.289.666.436 1.428.652 2.189.652s1.523-.217 2.189-.652c1.414-.924 13.811-9.234 13.811-16.289.001-6.098-5.023-11.059-11.199-11.059zm-4.8 19.109c-3.912-2.939-7.684-6.709-8-8.051 0-1.686 1.436-3.059 3.199-3.059 1.021 0 1.738.441 2.16.812 1.512 1.328 3.77 1.328 5.281 0 .422-.371 1.139-.812 2.16-.812 1.764 0 3.199 1.373 3.211 2.898-.326 1.478-4.099 5.269-8.011 8.212z"/></g></svg>