<svg id="web-learn" enable-background="new 0 0 300 300" height="512" viewBox="0 0 300 300" width="512" xmlns="http://www.w3.org/2000/svg"><g><path d="m222.328 58.496c2.362 0 4.277-1.915 4.277-4.276s-1.915-4.277-4.277-4.277-4.276 1.915-4.276 4.277 1.915 4.276 4.276 4.276z"/><path d="m256.617 89.828h-213.234c-5.172 0-9.383 3.807-9.383 8.484v150.135c0 5.172 4.211 9.381 9.383 9.381h213.234c5.172 0 9.383-4.209 9.383-9.381v-150.135c0-4.677-4.211-8.484-9.383-8.484zm1.383 158.619c0 .762-.621 1.381-1.383 1.381h-213.234c-.762 0-1.383-.619-1.383-1.381l-.012-150.066c.07-.164.574-.553 1.395-.553h213.234c.82 0 1.324.389 1.383.484z"/><circle cx="54" cy="105.828" r="4"/><circle cx="66" cy="105.828" r="4"/><circle cx="78" cy="105.828" r="4"/><path d="m69.516 60.312c.781.781 1.805 1.172 2.828 1.172s2.047-.391 2.828-1.172l2.828-2.828 2.828 2.828c.781.781 1.805 1.172 2.828 1.172s2.047-.391 2.828-1.172c1.562-1.562 1.562-4.094 0-5.656l-2.828-2.828 2.828-2.828c1.562-1.562 1.562-4.094 0-5.656s-4.094-1.562-5.656 0l-2.828 2.828-2.828-2.828c-1.562-1.562-4.094-1.562-5.656 0s-1.562 4.094 0 5.656l2.828 2.828-2.828 2.828c-1.563 1.563-1.563 4.094 0 5.656z"/><path d="m162 69.828c6.617 0 12-5.383 12-12s-5.383-12-12-12-12 5.383-12 12 5.383 12 12 12zm0-16c2.207 0 4 1.795 4 4s-1.793 4-4 4-4-1.795-4-4 1.793-4 4-4z"/><path d="m110.328 78.496c2.362 0 4.277-1.915 4.277-4.276s-1.915-4.277-4.277-4.277-4.276 1.915-4.276 4.277 1.915 4.276 4.276 4.276z"/><path d="m230 209.828c-5.208 0-9.606 3.354-11.263 8h-17.474c-1.656-4.646-6.055-8-11.263-8s-9.606 3.354-11.263 8h-17.474c-1.656-4.646-6.055-8-11.263-8s-9.606 3.354-11.263 8h-13.305c-1.789-6.881-7.997-12-15.432-12s-13.643 5.119-15.432 12h-13.305c-1.656-4.646-6.055-8-11.263-8-6.617 0-12 5.383-12 12s5.383 12 12 12c5.208 0 9.606-3.354 11.263-8h13.305c1.789 6.881 7.997 12 15.432 12s13.643-5.119 15.432-12h13.305c1.656 4.646 6.055 8 11.263 8s9.606-3.354 11.263-8h17.474c1.656 4.646 6.055 8 11.263 8s9.606-3.354 11.263-8h17.474c1.656 4.646 6.055 8 11.263 8 6.617 0 12-5.383 12-12s-5.383-12-12-12zm-160 16c-2.207 0-4-1.795-4-4s1.793-4 4-4 4 1.795 4 4-1.793 4-4 4zm40 4c-4.41 0-8-3.588-8-8s3.59-8 8-8 8 3.588 8 8-3.59 8-8 8zm40-4c-2.207 0-4-1.795-4-4s1.793-4 4-4 4 1.795 4 4-1.793 4-4 4zm40 0c-2.207 0-4-1.795-4-4s1.793-4 4-4 4 1.795 4 4-1.793 4-4 4zm40 0c-2.207 0-4-1.795-4-4s1.793-4 4-4 4 1.795 4 4-1.793 4-4 4z"/><path d="m238 133.828h-48.137c-.689-6.721-6.315-12-13.215-12h-53.297c-6.9 0-12.526 5.279-13.215 12h-48.136c-2.211 0-4 1.791-4 4v40c0 2.209 1.789 4 4 4h48.137c.689 6.721 6.315 12 13.215 12h53.297c6.9 0 12.526-5.279 13.215-12h48.136c2.211 0 4-1.791 4-4v-40c0-2.209-1.789-4-4-4zm-172 8h44v32h-44zm116 38.647c0 2.951-2.402 5.354-5.352 5.354h-53.297c-2.949 0-5.352-2.402-5.352-5.354v-45.293c0-2.951 2.402-5.354 5.352-5.354h53.297c2.949 0 5.352 2.402 5.352 5.354zm52-6.647h-44v-32h44z"/><path d="m174 137.828h-12c-2.211 0-4 1.791-4 4v4h-16v-4c0-2.209-1.789-4-4-4h-12c-2.211 0-4 1.791-4 4v28c0 2.209 1.789 4 4 4h12c2.211 0 4-1.791 4-4v-4h16v4c0 2.209 1.789 4 4 4h12c2.211 0 4-1.791 4-4v-28c0-2.209-1.789-4-4-4zm-40 28h-4v-20h4zm8-8v-4h16v4zm28 8h-4v-20h4z"/><path d="m198 153.828h20c2.211 0 4-1.791 4-4s-1.789-4-4-4h-20c-2.211 0-4 1.791-4 4s1.789 4 4 4z"/><path d="m210 157.828h-12c-2.211 0-4 1.791-4 4s1.789 4 4 4h12c2.211 0 4-1.791 4-4s-1.789-4-4-4z"/><path d="m78 153.828h16c2.211 0 4-1.791 4-4s-1.789-4-4-4h-16c-2.211 0-4 1.791-4 4s1.789 4 4 4z"/><path d="m102 157.828h-24c-2.211 0-4 1.791-4 4s1.789 4 4 4h24c2.211 0 4-1.791 4-4s-1.789-4-4-4z"/></g></svg>